<svg width="315" height="260" viewBox="0 0 315 260" fill="none" xmlns="http://www.w3.org/2000/svg">
<path d="M89.4778 258.144C119.785 258.144 144.354 253.066 144.354 246.803C144.354 240.54 119.785 235.463 89.4778 235.463C59.1705 235.463 34.6016 240.54 34.6016 246.803C34.6016 253.066 59.1705 258.144 89.4778 258.144Z" fill="#D7E5F4"/>
<path d="M223.337 260C253.644 260 278.213 254.923 278.213 248.66C278.213 242.397 253.644 237.319 223.337 237.319C193.03 237.319 168.461 242.397 168.461 248.66C168.461 254.923 193.03 260 223.337 260Z" fill="#D7E5F4"/>
<path d="M68.9765 24.2387C85.6598 18.3616 103.485 17.0226 120.932 19.6703C127.427 20.6561 136.255 20.0646 146.995 14.7422C171.16 2.76489 286.004 -31.4532 311.148 76.2755C340.054 200.131 197.631 207.554 150.806 200.092C103.981 192.63 91.3245 213.953 47.9078 192.108C9.92402 172.998 -46.8989 65.0663 68.9765 24.2387Z" fill="#D7E5F4"/>
<mask id="mask0_11130_36425" style="mask-type:luminance" maskUnits="userSpaceOnUse" x="0" y="0" width="315" height="203">
<path d="M68.9765 24.2387C85.6598 18.3616 103.485 17.0226 120.932 19.6703C127.427 20.6561 136.255 20.0646 146.995 14.7422C171.16 2.76489 286.004 -31.4532 311.148 76.2755C340.054 200.131 197.631 207.554 150.806 200.092C103.981 192.63 91.3245 213.953 47.9078 192.108C9.92402 172.998 -46.8989 65.0663 68.9765 24.2387Z" fill="white"/>
</mask>
<g mask="url(#mask0_11130_36425)">
<path d="M-12.4922 -8.11719H347.306V260.572H-12.4922V-8.11719Z" fill="white"/>
<path d="M-1.66406 -5.43457H55.3875V72.0399H-1.66406V-5.43457ZM62.9903 -5.43457H150.184V72.0399H62.9903V-5.43457ZM158.551 -5.43457H245.745V72.0399H158.551V-5.43457Z" fill="#D7E5F4"/>
<mask id="mask1_11130_36425" style="mask-type:luminance" maskUnits="userSpaceOnUse" x="158" y="-6" width="88" height="79">
<path d="M158.555 -5.43555H245.749V72.039H158.555V-5.43555Z" fill="white"/>
</mask>
<g mask="url(#mask1_11130_36425)">
<g opacity="0.56">
<path d="M167.598 88.3403L144.008 79.7885L179.733 -18.7666L205.347 -15.7972L167.598 88.3403ZM200.886 99.1693L187.374 94.2705L224.532 -8.23553L240.474 -10.0404L200.886 99.1693Z" fill="white"/>
</g>
</g>
<path d="M252.883 -5.43457H340.077V72.0399H252.883V-5.43457ZM-1.66406 78.6851H55.3875V156.16H-1.66406V78.6851Z" fill="#D7E5F4"/>
<mask id="mask2_11130_36425" style="mask-type:luminance" maskUnits="userSpaceOnUse" x="-2" y="78" width="58" height="79">
<path d="M-1.66406 78.6855H55.3875V156.16H-1.66406V78.6855Z" fill="white"/>
</mask>
<g mask="url(#mask2_11130_36425)">
<g opacity="0.47">
<path d="M-5.98438 173.785L38.8766 51.1306L47.3689 54.2366L2.50801 176.891L-5.98438 173.785Z" fill="white"/>
</g>
<g opacity="0.47">
<path d="M10.2188 179.762L55.0972 57.0593L59.704 58.7443L14.8256 181.447L10.2188 179.762Z" fill="white"/>
</g>
</g>
<path d="M62.9903 78.6846H150.184V156.159H62.9903V78.6846ZM158.551 78.6846H245.745V156.159H158.551V78.6846ZM252.883 78.6846H340.077V156.159H252.883V78.6846ZM-1.66406 162.804H55.3875V240.279H-1.66406V162.804ZM62.9903 162.804H150.184V240.279H62.9903V162.804ZM158.551 162.804H245.745V240.279H158.551V162.804ZM252.883 162.804H340.077V240.279H252.883V162.804Z" fill="#D7E5F4"/>
<path d="M233.672 82.9365H298.776V126.241H233.672V82.9365Z" fill="#2B2E38"/>
<path d="M233.672 82.9365H236.686V126.241H233.672V82.9365Z" fill="#5B73CE"/>
<path d="M267.327 103.774C269 103.774 270.357 102.417 270.357 100.744C270.357 99.0705 269 97.7139 267.327 97.7139C265.653 97.7139 264.297 99.0705 264.297 100.744C264.297 102.417 265.653 103.774 267.327 103.774Z" fill="#1E2028"/>
<path d="M272.952 108.75C272.952 108.75 284.3 127.135 272.952 136.57H258.289C258.289 136.57 270.019 126.319 258.799 108.75H272.952Z" fill="#121319"/>
<path d="M274.725 108.75C274.725 108.75 286.073 127.135 274.725 136.57H260.062C260.062 136.57 271.793 126.319 260.573 108.75H274.725Z" fill="#1E2028"/>
<path d="M282.758 139.002H251.902V136.571H282.758V139.002Z" fill="#2A2C35"/>
<path d="M317.764 140.702L311.655 190.429L309.209 210.317L306.672 230.972H156.931L154.175 210.317L151.52 190.429L144.883 140.702H317.764Z" fill="#263260"/>
<path d="M321.062 138.942H141.593C141.3 138.942 141.062 139.18 141.062 139.473V141.931C141.062 142.224 141.3 142.462 141.593 142.462H321.062C321.356 142.462 321.593 142.224 321.593 141.931V139.473C321.593 139.18 321.356 138.942 321.062 138.942Z" fill="#192659"/>
<path d="M57.0653 192.788C54.1404 188.505 52.9292 183.254 53.8013 178.14C54.552 173.743 54.5791 167.226 49.4116 163.69C41.1349 158.027 45.8594 153.958 41.4372 149.488C37.015 145.018 33.089 142.152 32.9352 135.045C26.4352 149.104 27.9237 151.395 32.646 159.353C37.3682 167.311 27.81 175.153 34.0814 180.782C40.3528 186.411 54.1403 195.651 50.7376 200.007C47.3349 204.363 54.0569 202.88 54.0569 202.88C54.0569 202.88 62.0389 199.981 57.2083 192.996C57.16 192.926 57.1123 192.857 57.0653 192.788Z" fill="#1E6FC1"/>
<path d="M54.0193 199.843C54.0605 199.591 54.0832 199.338 54.0995 199.084C54.1157 198.831 54.1244 198.576 54.1266 198.326C54.1266 197.817 54.1125 197.309 54.067 196.803C54.0215 196.297 53.9587 195.792 53.8644 195.293C53.8254 195.042 53.7658 194.795 53.7171 194.546C53.6683 194.297 53.6022 194.052 53.5329 193.809C53.009 191.848 52.1767 189.983 51.0672 188.284C50.5172 187.434 49.9088 186.625 49.2462 185.86C49.0858 185.664 48.9125 185.48 48.7413 185.294C48.5702 185.107 48.4033 184.918 48.2202 184.742L47.684 184.2C47.5009 184.027 47.3124 183.857 47.1272 183.686C45.5975 182.338 44.1664 180.785 43.2152 178.931C42.7405 178.004 42.4029 177.013 42.2132 175.989C42.0316 174.967 41.9759 173.928 42.0474 172.893C42.1037 171.862 42.2543 170.847 42.3876 169.839C42.4526 169.334 42.5176 168.83 42.5587 168.322C42.5858 168.071 42.5934 167.819 42.6097 167.564C42.6259 167.308 42.6238 167.061 42.6097 166.811C42.5944 165.809 42.3505 164.824 41.8968 163.931C41.4353 163.027 40.9356 162.143 40.3975 161.279C39.8621 160.416 39.278 159.584 38.6479 158.788C38.3229 158.393 37.9979 158.001 37.6545 157.63C37.3136 157.251 36.9489 156.895 36.5625 156.562C37.3563 157.206 38.0842 157.927 38.7357 158.715C39.3961 159.497 40.011 160.316 40.5773 161.169C41.1385 162.025 41.6607 162.902 42.1417 163.81C42.6332 164.733 42.9077 165.757 42.9444 166.802C42.965 167.061 42.9574 167.32 42.9607 167.579C42.9639 167.838 42.9466 168.096 42.9238 168.351C42.8902 168.866 42.8274 169.374 42.7678 169.882C42.6443 170.895 42.5057 171.902 42.4602 172.915C42.3974 173.918 42.4552 174.924 42.6324 175.912C42.8198 176.895 43.1482 177.847 43.6074 178.736C44.0693 179.628 44.632 180.464 45.2844 181.228L45.5303 181.514C45.6116 181.609 45.6917 181.707 45.7817 181.795L46.3049 182.337C46.4826 182.517 46.6711 182.685 46.8542 182.859L47.4099 183.383C47.5962 183.559 47.7858 183.734 47.97 183.911L48.5117 184.462C48.6947 184.642 48.8616 184.839 49.0349 185.028C49.2082 185.218 49.3816 185.407 49.5419 185.609C49.7022 185.81 49.8669 186.002 50.0305 186.205L50.4963 186.819C50.7932 187.239 51.0878 187.661 51.3554 188.099C52.448 189.843 53.2548 191.75 53.7452 193.749C53.807 193.998 53.8536 194.251 53.9077 194.501C53.9619 194.751 54.0009 195.005 54.0334 195.259C54.1114 195.765 54.1558 196.276 54.1883 196.787C54.2555 197.808 54.1987 198.835 54.0193 199.843Z" fill="white"/>
<path d="M59.7773 193.522C63.8691 190.333 66.6131 185.696 67.3357 180.559C67.9565 176.141 69.9108 169.924 75.9081 168.125C85.514 165.243 82.2478 159.932 87.8248 157.016C93.4018 154.099 98.0081 152.563 100.312 145.838C102.234 161.208 100.121 162.937 93.2046 169.085C86.2886 175.233 93.0118 185.608 85.3266 189.066C77.6415 192.524 61.6959 197.136 63.6166 202.323C65.5374 207.51 59.5823 204.056 59.5823 204.056C59.5823 204.056 52.8581 198.869 59.5823 193.682L59.7773 193.522Z" fill="#1E6FC1"/>
<path d="M60.5391 201.17C60.6773 200.156 60.9373 199.162 61.3136 198.211C61.4989 197.734 61.6961 197.261 61.9246 196.803C62.033 196.57 62.1586 196.347 62.2756 196.118C62.3926 195.889 62.5237 195.67 62.6581 195.451C63.7321 193.695 65.0802 192.122 66.6512 190.792C67.039 190.455 67.4485 190.142 67.858 189.833L68.4885 189.389C68.7052 189.244 68.9219 189.11 69.1385 188.97C69.3552 188.83 69.5719 188.699 69.7983 188.57C70.0247 188.442 70.2392 188.306 70.4689 188.19L71.1503 187.831C71.38 187.722 71.614 187.614 71.8447 187.497L72.5337 187.172C72.7612 187.064 72.992 186.955 73.2151 186.84L73.8792 186.48C73.9875 186.422 74.0959 186.354 74.2042 186.288L74.5292 186.091C75.3826 185.561 76.1725 184.936 76.8833 184.226C77.5901 183.518 78.1908 182.711 78.6665 181.831C79.1368 180.944 79.4976 180.003 79.7411 179.028C80.0044 178.053 80.1745 177.054 80.3684 176.05C80.4659 175.549 80.5601 175.045 80.6847 174.545C80.741 174.294 80.8169 174.046 80.884 173.797C80.9512 173.548 81.0368 173.303 81.1354 173.063C81.4878 172.078 82.0602 171.186 82.8091 170.456C83.5436 169.743 84.3074 169.06 85.1015 168.415C85.8997 167.775 86.7337 167.18 87.5996 166.635C88.4598 166.083 89.3724 165.617 90.3242 165.244C89.8553 165.443 89.3998 165.672 88.9603 165.93C88.515 166.178 88.0871 166.453 87.6603 166.732C86.8178 167.299 86.0083 167.914 85.2358 168.573C84.4608 169.232 83.7159 169.922 83.0009 170.645C82.2969 171.357 81.7654 172.222 81.4474 173.172C81.3564 173.405 81.2924 173.649 81.2177 173.888C81.1429 174.127 81.0877 174.374 81.0368 174.623C80.9285 175.114 80.832 175.614 80.741 176.113C80.5612 177.115 80.3965 178.128 80.1376 179.127C79.8911 180.135 79.5222 181.108 79.0391 182.026C78.5467 182.944 77.9239 183.787 77.1899 184.526C75.7209 186.002 73.8857 187.048 72.0191 187.867C71.7905 187.976 71.5598 188.084 71.3323 188.192L70.6574 188.54C70.4299 188.648 70.2143 188.784 69.9944 188.907C69.7745 189.031 69.5535 189.155 69.3444 189.293C68.4809 189.82 67.6553 190.407 66.8733 191.049C65.3 192.331 63.9404 193.854 62.8455 195.562C62.7068 195.779 62.579 195.996 62.4468 196.212C62.3146 196.429 62.1922 196.651 62.0785 196.879C61.838 197.325 61.6267 197.787 61.4285 198.255C61.2308 198.724 61.0572 199.202 60.9085 199.689C60.8326 199.931 60.7622 200.176 60.7016 200.423C60.6409 200.67 60.577 200.917 60.5391 201.17Z" fill="white"/>
<path d="M52.0807 202.322C52.0807 202.322 50.3473 198.671 52.0807 193.677C53.814 188.683 42.6665 186.183 47.4689 178.691C52.2713 171.199 56.6913 169.853 55.1541 162.55C53.6168 155.246 63.031 157.719 63.2238 150.525C63.4167 143.33 60.7257 136.033 68.0262 131.422C75.3268 126.811 77.0569 121.432 77.0569 121.432C77.0569 121.432 80.7066 131.806 76.096 140.065C71.4853 148.324 70.3326 152.622 73.2143 157.006C76.096 161.39 66.6818 166.77 70.3326 172.15C73.9835 177.53 71.8688 190.594 63.6073 193.86C55.3458 197.126 56.6913 204.043 56.6913 204.043L52.0807 202.322Z" fill="#539EEA"/>
<path d="M54.9688 197.327C55.4911 196.991 55.9687 196.591 56.3901 196.135L56.7032 195.792C56.7552 195.734 56.8115 195.683 56.8581 195.62L57.0022 195.438C57.1928 195.194 57.3965 194.961 57.5644 194.7L57.8287 194.318L57.9598 194.128C58.0042 194.065 58.0411 193.996 58.0812 193.931L58.5567 193.134C58.7052 192.862 58.8406 192.584 58.9825 192.31L59.1992 191.897L59.3833 191.473C60.3973 189.216 61.0701 186.82 61.55 184.394L61.719 183.482C61.7742 183.179 61.8382 182.875 61.8728 182.568L62.1242 180.726C62.2823 179.497 62.4091 178.259 62.5575 177.027C62.8554 174.561 63.1685 172.096 63.5477 169.637C63.6495 169.024 63.7394 168.408 63.8542 167.795L64.0189 166.875L64.1998 165.959C64.4501 164.739 64.7252 163.521 65.0806 162.324C65.4317 161.126 65.8428 159.946 66.3123 158.789L66.6698 157.923L67.0468 157.068C67.1118 156.925 67.1671 156.785 67.2256 156.644L67.3133 156.434C67.3404 156.364 67.3621 156.29 67.387 156.218L67.4606 156.001C67.487 155.93 67.5091 155.858 67.5267 155.784L67.6448 155.343C67.902 154.141 67.9899 152.909 67.9059 151.683C67.8442 150.45 67.6741 149.221 67.5235 147.988C67.3729 146.754 67.2397 145.509 67.3166 144.26C67.3486 143.635 67.4655 143.018 67.6643 142.425C67.8699 141.834 68.1939 141.292 68.6166 140.831C68.2129 141.303 67.9102 141.852 67.7272 142.445C67.5461 143.036 67.4466 143.649 67.4314 144.266C67.387 145.501 67.5592 146.734 67.7337 147.96C67.9081 149.187 68.0955 150.42 68.1789 151.667C68.2847 152.92 68.2143 154.183 67.9698 155.417L67.855 155.876C67.8376 155.953 67.8149 156.029 67.79 156.105L67.7174 156.33C67.6925 156.406 67.6708 156.482 67.6437 156.557L67.556 156.773C67.4975 156.92 67.4401 157.07 67.3783 157.207L67.0132 158.06L66.6644 158.919C66.2101 160.07 65.8129 161.239 65.4727 162.426C65.1304 163.618 64.8563 164.819 64.6126 166.033L64.4349 166.944L64.2735 167.858C64.1652 168.467 64.0742 169.081 63.9734 169.692C63.5877 172.14 63.2725 174.603 62.9616 177.065C62.7991 178.296 62.6637 179.529 62.4947 180.761L62.2238 182.61C62.1848 182.919 62.1155 183.224 62.0548 183.53L61.8696 184.446C61.3517 186.881 60.6378 189.287 59.5751 191.546L59.3779 191.97L59.1537 192.381C59.0031 192.653 58.8601 192.931 58.703 193.2L58.2036 193.99C58.1602 194.055 58.1223 194.123 58.0758 194.186L57.9382 194.375L57.6619 194.753C57.4864 195.01 57.2752 195.24 57.0769 195.481L56.9263 195.66C56.8754 195.718 56.818 195.768 56.766 195.83L56.441 196.166C56.0014 196.613 55.5067 197.004 54.9688 197.327Z" fill="white"/>
<path d="M37.4609 195.98H78.9656L71.8188 232.026H44.6402L37.4609 195.98Z" fill="white"/>
</g>
<g opacity="0.18">
<path d="M178.367 204.186H204.693L236.884 142.46L210.25 142.109L178.367 204.186Z" fill="#D7EBFF"/>
</g>
<g opacity="0.18">
<path d="M221.703 204.186H248.03L280.775 142.46H253.328L221.703 204.186Z" fill="#D7EBFF"/>
</g>
<path d="M150.03 120.165C150.03 120.165 154.056 116.373 155.582 116.67C157.108 116.967 158.08 116.67 158.08 116.67C158.08 116.67 163.552 119.728 164.928 121.485C166.304 123.242 168.07 126.966 167.381 127.938C166.692 128.909 163.481 128.076 163.139 127.938C162.798 127.799 154.889 128.354 152.529 127.243C150.17 126.133 149.062 126.55 149.062 126.55V120.582L150.03 120.165Z" fill="#577AFF"/>
<mask id="mask3_11130_36425" style="mask-type:luminance" maskUnits="userSpaceOnUse" x="149" y="116" width="19" height="13">
<path d="M150.03 120.166C150.03 120.166 154.056 116.374 155.582 116.671C157.108 116.968 158.08 116.671 158.08 116.671C158.08 116.671 163.552 119.729 164.928 121.486C166.304 123.243 168.07 126.967 167.381 127.939C166.692 128.91 163.481 128.077 163.139 127.939C162.798 127.8 154.889 128.355 152.529 127.244C150.17 126.134 149.062 126.551 149.062 126.551V120.583L150.03 120.166Z" fill="white"/>
</mask>
<g mask="url(#mask3_11130_36425)">
<path d="M161.534 116.866C161.391 116.649 161.153 116.509 160.92 116.391C159.092 115.469 157.008 115.186 155 115.588L155.805 115.98C155.705 116.388 155.606 116.795 155.507 117.202C155.449 117.386 155.429 117.579 155.45 117.77C155.539 118.274 156.116 118.509 156.614 118.622C157.388 118.795 158.178 118.887 158.97 118.894C159.691 118.9 160.449 118.823 161.04 118.411C161.53 118.069 161.86 117.368 161.534 116.866ZM168.269 126.608C167.344 124.914 165.986 123.496 164.333 122.5C164.684 123.65 165.271 124.714 166.056 125.624C166.463 126.094 166.953 126.607 166.901 127.227C166.885 127.415 166.754 127.638 166.568 127.601C166.482 127.574 166.409 127.519 166.358 127.445C165.346 126.262 164.347 124.913 162.856 124.462C163.377 125.307 163.984 126.096 164.67 126.814C165.156 127.323 165.7 127.828 165.899 128.502C165.936 128.595 165.936 128.698 165.899 128.791C165.777 129.019 165.428 128.861 165.242 128.683C164.309 127.783 163.427 126.8 162.299 126.162C162.083 126.037 161.804 125.928 161.588 126.053C161.928 126.844 163.021 127.271 163.022 128.132C163.022 128.725 162.338 129.205 161.782 128.999L162.155 129.658C162.514 130.327 163.263 130.725 164.017 130.818C164.771 130.911 165.533 130.739 166.254 130.501C166.832 130.311 167.407 130.068 167.879 129.684C168.35 129.299 168.702 128.735 168.729 128.126C168.753 127.595 168.525 127.076 168.269 126.608Z" fill="#2B56F6"/>
</g>
<path d="M156.493 128.964L154.618 128.541C154.527 128.52 154.448 128.464 154.398 128.386C154.348 128.307 154.332 128.211 154.352 128.121L154.906 125.667C154.936 125.534 155.018 125.419 155.133 125.347C155.247 125.274 155.386 125.25 155.519 125.28L157.081 125.632C157.214 125.663 157.329 125.744 157.401 125.859C157.474 125.974 157.498 126.113 157.469 126.245L156.914 128.699C156.904 128.744 156.885 128.787 156.858 128.825C156.832 128.862 156.798 128.894 156.759 128.919C156.72 128.944 156.676 128.96 156.63 128.968C156.585 128.976 156.538 128.975 156.493 128.964ZM159.25 129.539L157.374 129.115C157.283 129.094 157.204 129.038 157.154 128.959C157.105 128.88 157.088 128.785 157.108 128.694L157.663 126.24C157.693 126.108 157.775 125.993 157.889 125.92C158.004 125.848 158.143 125.824 158.275 125.853L159.838 126.206C159.97 126.237 160.085 126.318 160.157 126.433C160.23 126.547 160.254 126.686 160.225 126.818L159.67 129.272C159.65 129.363 159.594 129.442 159.515 129.492C159.437 129.542 159.341 129.559 159.25 129.539ZM161.509 130L160.054 129.675C159.984 129.659 159.923 129.616 159.884 129.555C159.845 129.494 159.832 129.421 159.847 129.35L160.444 126.708C160.467 126.605 160.531 126.516 160.62 126.46C160.709 126.403 160.817 126.385 160.919 126.408L162.132 126.682C162.234 126.705 162.324 126.769 162.38 126.858C162.437 126.947 162.456 127.055 162.433 127.157L161.836 129.8C161.818 129.869 161.774 129.929 161.713 129.967C161.652 130.004 161.579 130.016 161.509 130ZM163.651 130.433L162.195 130.108C162.124 130.092 162.064 130.049 162.025 129.988C161.986 129.927 161.973 129.854 161.989 129.783L162.586 127.141C162.597 127.09 162.619 127.042 162.649 126.999C162.679 126.957 162.717 126.921 162.761 126.893C162.805 126.865 162.855 126.846 162.906 126.837C162.958 126.828 163.01 126.83 163.061 126.841L164.273 127.115C164.324 127.127 164.373 127.148 164.415 127.178C164.458 127.208 164.494 127.247 164.522 127.291C164.55 127.335 164.569 127.384 164.578 127.436C164.586 127.487 164.585 127.54 164.574 127.591L163.977 130.233C163.959 130.303 163.916 130.362 163.855 130.4C163.794 130.437 163.72 130.449 163.651 130.433Z" fill="#2B56F6"/>
<path d="M156.165 129.013L154.29 128.59C154.199 128.569 154.12 128.513 154.07 128.434C154.02 128.356 154.004 128.26 154.024 128.169L154.579 125.716C154.609 125.583 154.69 125.468 154.805 125.396C154.92 125.323 155.058 125.299 155.191 125.329L156.753 125.681C156.885 125.711 157 125.793 157.073 125.908C157.146 126.023 157.17 126.161 157.141 126.294L156.586 128.748C156.576 128.793 156.557 128.836 156.53 128.873C156.504 128.911 156.47 128.943 156.431 128.968C156.391 128.993 156.348 129.009 156.302 129.017C156.257 129.025 156.21 129.024 156.165 129.013ZM158.922 129.587L157.046 129.163C156.955 129.142 156.876 129.086 156.826 129.007C156.777 128.929 156.76 128.833 156.78 128.742L157.335 126.289C157.365 126.156 157.446 126.041 157.561 125.969C157.676 125.896 157.814 125.872 157.947 125.902L159.51 126.255C159.642 126.285 159.757 126.367 159.83 126.481C159.902 126.596 159.926 126.735 159.897 126.867L159.342 129.321C159.322 129.412 159.266 129.491 159.187 129.541C159.108 129.591 159.013 129.608 158.922 129.587ZM161.176 130.048L159.721 129.723C159.651 129.707 159.59 129.663 159.552 129.603C159.513 129.542 159.5 129.468 159.514 129.398L160.111 126.756C160.135 126.653 160.198 126.564 160.287 126.507C160.376 126.451 160.484 126.433 160.587 126.456L161.8 126.729C161.903 126.753 161.992 126.816 162.048 126.905C162.104 126.994 162.123 127.102 162.1 127.205L161.503 129.847C161.486 129.917 161.442 129.977 161.381 130.014C161.32 130.052 161.246 130.064 161.176 130.048ZM163.322 130.482L161.866 130.157C161.796 130.141 161.735 130.098 161.697 130.037C161.658 129.976 161.645 129.903 161.661 129.832L162.26 127.184C162.271 127.133 162.293 127.084 162.323 127.042C162.353 126.999 162.391 126.963 162.435 126.935C162.479 126.907 162.529 126.888 162.58 126.879C162.632 126.871 162.684 126.872 162.735 126.883L163.947 127.156C164.05 127.18 164.14 127.244 164.196 127.333C164.252 127.422 164.271 127.53 164.249 127.633L163.652 130.275C163.644 130.311 163.629 130.344 163.608 130.374C163.587 130.403 163.561 130.428 163.53 130.447C163.5 130.467 163.465 130.48 163.43 130.486C163.394 130.492 163.358 130.49 163.322 130.482Z" fill="#6B8AFF"/>
<path d="M169.463 119.331C169.463 119.331 166.826 121.136 164.605 119.331C162.384 117.527 160.58 116.001 158.776 116.972C156.971 117.943 153.918 122.389 155.167 122.389C156.416 122.389 160.441 120.168 160.441 120.168C160.441 120.168 164.605 120.445 165.857 122.389C167.11 124.332 167.385 127.941 167.385 127.941L171.409 126.83L169.463 119.331Z" fill="#B3D8FD"/>
<path d="M169.463 119.331C169.463 119.331 166.826 121.136 164.605 119.331C162.384 117.527 160.58 116.001 158.776 116.972C156.971 117.943 153.918 122.389 155.167 122.389C156.416 122.389 160.441 120.168 160.441 120.168C160.441 120.168 164.605 120.445 165.857 122.389C167.11 124.332 167.385 127.941 167.385 127.941L171.409 126.83L169.463 119.331Z" fill="#6B8AFF"/>
<mask id="mask4_11130_36425" style="mask-type:luminance" maskUnits="userSpaceOnUse" x="154" y="116" width="18" height="12">
<path d="M169.463 119.331C169.463 119.331 166.826 121.136 164.605 119.331C162.384 117.527 160.58 116.001 158.776 116.972C156.971 117.943 153.918 122.389 155.167 122.389C156.416 122.389 160.441 120.168 160.441 120.168C160.441 120.168 164.605 120.445 165.857 122.389C167.11 124.332 167.385 127.941 167.385 127.941L171.409 126.83L169.463 119.331Z" fill="white"/>
</mask>
<g mask="url(#mask4_11130_36425)">
<path d="M153.743 121.688C154.963 122.7 156.903 122.244 158.059 121.158C158.798 120.463 159.437 119.494 160.443 119.371C161.489 119.243 162.393 120.11 163.42 120.331C164.147 120.488 164.967 120.331 165.594 120.73C166.31 121.186 166.453 122.145 166.725 122.948C167.048 123.862 167.608 124.674 168.348 125.3C169.089 125.926 169.982 126.344 170.937 126.511C171.804 126.651 172.932 126.758 173.137 127.61C173.313 128.339 172.596 128.961 171.935 129.309C169.503 130.566 166.676 130.823 164.058 130.025C163.253 129.776 162.425 129.375 162.011 128.646C161.619 127.949 161.677 127.085 161.386 126.339C160.913 125.119 159.586 124.427 158.293 124.219C157.001 124.011 155.679 124.178 154.372 124.111C153.064 124.044 151.674 123.694 150.828 122.694L153.743 121.688Z" fill="#2B56F6"/>
</g>
<path d="M226.273 238.68C226.273 238.68 218.234 244.596 214.612 246.732C210.989 248.869 209.52 255.113 220.442 252.155C231.364 249.198 233.667 244.924 235.804 243.281C237.94 241.637 236.79 237.529 236.79 237.529L226.273 238.68Z" fill="white"/>
<mask id="mask5_11130_36425" style="mask-type:luminance" maskUnits="userSpaceOnUse" x="211" y="237" width="27" height="16">
<path d="M226.28 238.681C226.28 238.681 218.242 244.597 214.619 246.733C210.997 248.87 209.528 255.114 220.45 252.156C231.372 249.199 233.675 244.925 235.812 243.282C237.948 241.638 236.797 237.53 236.797 237.53L226.28 238.681Z" fill="white"/>
</mask>
<g mask="url(#mask5_11130_36425)">
<path d="M225.853 248.096C224.624 248.694 223.378 249.299 222.037 249.56C220.183 249.922 218.273 249.61 216.386 249.536C214.499 249.462 212.465 249.683 211.023 250.904L211.403 252.878C211.772 253.893 212.747 254.596 213.786 254.891C214.825 255.186 215.929 255.13 217.002 255.019C220.703 254.633 224.312 253.621 227.674 252.028C230.274 250.793 232.74 249.192 234.685 247.065C236.629 244.938 238.03 242.256 238.335 239.391C235.241 243.474 230.46 245.856 225.853 248.096Z" fill="#2E3242"/>
<path d="M224.638 245.731C225.152 245.604 225.556 245.218 225.926 244.841C227.16 243.582 228.318 242.25 229.393 240.853C229.576 240.64 229.723 240.397 229.826 240.136C230.025 239.541 229.759 238.861 229.294 238.439C228.83 238.018 228.202 237.818 227.583 237.725C224.824 237.308 222.127 238.765 219.937 240.493L218.312 244.133C219.749 244.224 221.156 244.582 222.462 245.187C223.154 245.51 223.897 245.917 224.638 245.731Z" fill="#2E3242"/>
</g>
<path d="M205.689 233.931C205.689 233.931 205.689 237.263 198.105 239.483C190.522 241.704 186.632 242.625 186.447 245.036C186.261 247.446 205.323 247.256 211.245 246.146C217.168 245.036 217.755 243.004 216.814 236.893C215.872 230.782 205.689 233.931 205.689 233.931Z" fill="white"/>
<mask id="mask6_11130_36425" style="mask-type:luminance" maskUnits="userSpaceOnUse" x="186" y="233" width="32" height="14">
<path d="M205.689 233.93C205.689 233.93 205.689 237.262 198.105 239.482C190.522 241.703 186.632 242.624 186.447 245.035C186.261 247.445 205.323 247.255 211.245 246.145C217.168 245.035 217.755 243.003 216.814 236.892C215.872 230.781 205.689 233.93 205.689 233.93Z" fill="white"/>
</mask>
<g mask="url(#mask6_11130_36425)">
<path d="M217.727 241.749C216.692 241.865 215.91 242.693 215.063 243.298C213.425 244.465 211.371 244.86 209.376 245.114C205.228 245.644 201.033 245.701 196.871 245.284C193.022 244.899 189.193 244.108 185.327 244.249L182.68 245.775C183.797 247.779 186.444 248.2 188.73 248.398C196.906 249.104 205.38 249.777 213.113 247.027C214.316 246.594 215.519 246.073 216.442 245.186C217.365 244.299 217.971 243.004 217.727 241.749ZM196.447 242.016C197.135 242.648 198.18 242.627 199.111 242.528C201.107 242.312 203.105 241.914 204.927 241.07C206.749 240.226 208.394 238.913 209.394 237.17C210.248 235.682 210.543 233.659 209.453 232.332C208.586 231.28 207.07 230.961 205.731 231.187C204.392 231.413 203.175 232.099 201.993 232.772L194.642 239.248C195.608 239.815 195.627 241.265 196.447 242.016Z" fill="#2E3242"/>
</g>
<path d="M195.172 138.52C195.172 138.52 195.139 149.728 196.804 164.996C198.47 180.263 203.108 192.478 203.148 200.529C203.189 208.58 205.379 224.957 204.84 228.844C204.3 232.731 204.84 235.755 204.84 235.755C204.84 235.755 208.248 233.563 214.185 236.061C220.123 238.559 218.18 232.453 218.18 232.453C218.18 232.453 218.787 209.412 218.483 202.75C218.179 196.087 216.425 191.091 216.425 191.091C216.425 191.091 220.958 202.75 221.516 208.858C222.074 214.965 224.107 239.671 224.107 239.671C224.107 239.671 224.569 241.892 229.427 241.059C234.285 240.226 237.108 241 237.108 241C237.108 241 238.449 201.918 236.506 191.647C234.564 181.376 232.342 169.162 233.453 159.168C234.563 149.175 234.286 132.183 234.286 132.183L195.58 133.63L195.172 138.52Z" fill="#55AAFF"/>
<mask id="mask7_11130_36425" style="mask-type:luminance" maskUnits="userSpaceOnUse" x="195" y="132" width="43" height="110">
<path d="M195.172 138.519C195.172 138.519 195.139 149.727 196.804 164.995C198.47 180.262 203.108 192.477 203.148 200.528C203.189 208.579 205.379 224.956 204.84 228.843C204.3 232.73 204.84 235.754 204.84 235.754C204.84 235.754 208.248 233.562 214.185 236.06C220.123 238.558 218.18 232.452 218.18 232.452C218.18 232.452 218.787 209.411 218.483 202.749C218.179 196.086 216.425 191.09 216.425 191.09C216.425 191.09 220.958 202.749 221.516 208.857C222.074 214.964 224.107 239.67 224.107 239.67C224.107 239.67 224.569 241.891 229.427 241.058C234.285 240.225 237.108 240.999 237.108 240.999C237.108 240.999 238.449 201.917 236.506 191.646C234.564 181.375 232.342 169.161 233.453 159.167C234.563 149.174 234.286 132.182 234.286 132.182L195.58 133.629L195.172 138.519Z" fill="white"/>
</mask>
<g mask="url(#mask7_11130_36425)">
<path d="M239.133 239.308C237.959 237.908 235.746 238.712 233.969 239.136C229.424 240.219 224.288 237.422 222.73 233.018C221.654 229.985 222.171 226.646 222.429 223.434C223.978 204.133 215.705 185.486 213.396 166.262C212.789 161.197 212.596 156.095 212.357 151C211.26 163.729 212.105 176.551 214.865 189.025L216.458 195.525C217.51 206.875 216.489 218.322 213.443 229.307C213.139 230.397 212.754 231.571 211.818 232.201C211.083 232.693 210.153 232.754 209.27 232.799L202.209 233.161L199.586 236.219C203.817 240.228 208.802 244.519 214.612 244.056C215.527 243.984 216.482 243.765 217.152 243.139C218.127 242.234 218.235 240.762 218.285 239.437C218.528 232.503 219.34 224.284 219.802 216.338L220.885 241.866C220.92 242.672 220.994 243.569 221.588 244.114C222.077 244.562 222.788 244.648 223.448 244.699C227.261 244.99 231.093 244.84 234.871 244.253C236.191 244.048 237.57 243.757 238.57 242.874C239.57 241.991 239.991 240.329 239.133 239.308Z" fill="#2951E7"/>
</g>
<path d="M235.112 128.493L236.087 137.932C236.087 137.932 224.289 141.54 218.044 142.928C216.161 143.336 214.223 143.413 212.314 143.155C208.847 142.709 206.384 141.402 206.107 141.402C205.987 141.402 205.023 141.334 203.692 141.237C200.346 140.996 194.725 140.568 194.725 140.568C194.725 140.568 196.669 118.639 195.003 119.888C193.338 121.137 170.297 129.048 170.297 129.048V126.689C170.297 124.329 167.383 118.639 167.383 118.639C167.383 118.639 184.593 111.699 186.813 110.866C189.034 110.033 189.313 107.812 190.423 105.592C191.534 103.372 191.134 91.11 195.578 83.1984C197.587 79.6234 203.312 76.4969 206.568 74.5534C208.944 73.1335 211.456 71.9534 214.066 71.0304C214.066 71.0304 216.794 68.9493 221.097 70.0554C222.072 70.3078 223.525 70.9762 225.225 71.9209C231.012 75.1319 239.633 81.503 241.777 85.1842C243.177 87.5848 241.5 117.108 239.974 121.271C238.447 125.434 235.112 128.493 235.112 128.493Z" fill="#6795C3"/>
<mask id="mask8_11130_36425" style="mask-type:luminance" maskUnits="userSpaceOnUse" x="167" y="69" width="76" height="75">
<path d="M235.119 128.493L236.094 137.933C236.094 137.933 224.297 141.541 218.052 142.929C216.169 143.337 214.23 143.414 212.322 143.156C208.855 142.71 206.392 141.402 206.114 141.402C205.995 141.402 205.031 141.335 203.7 141.238C200.354 140.997 194.733 140.569 194.733 140.569C194.733 140.569 196.676 118.64 195.011 119.889C193.346 121.138 170.305 129.049 170.305 129.049V126.69C170.305 124.33 167.391 118.64 167.391 118.64C167.391 118.64 184.6 111.7 186.821 110.867C189.042 110.034 189.321 107.813 190.431 105.593C191.541 103.373 191.142 91.1109 195.585 83.1994C197.595 79.6244 203.319 76.4979 206.576 74.5544C208.952 73.1345 211.464 71.9544 214.074 71.0314C214.074 71.0314 216.801 68.9503 221.104 70.0564C222.079 70.3088 223.533 70.9772 225.233 71.9219C231.02 75.1329 239.641 81.504 241.785 85.1851C243.185 87.5858 241.508 117.109 239.981 121.272C238.455 125.435 235.119 128.493 235.119 128.493Z" fill="white"/>
</mask>
<g mask="url(#mask8_11130_36425)">
<path d="M185.4 113.122C186.492 112.5 187.645 111.922 188.892 111.772C190.139 111.623 191.511 111.971 192.313 112.938C192.955 112.044 192.096 110.866 191.332 110.08C190.567 109.295 189.815 107.997 190.583 107.213C191.05 106.739 191.819 106.779 192.425 106.509C193.311 106.11 193.739 105.06 193.755 104.087C193.771 103.114 193.469 102.17 193.298 101.212C193.013 99.6151 193.094 97.9771 193.21 96.3586C193.671 89.9562 194.657 83.6024 196.158 77.3613C192.543 81.1768 190.922 86.3985 189.139 91.3428C187.356 96.2871 185.084 101.418 180.731 104.36C175.839 107.673 169.38 107.52 164.007 109.977C163.07 110.411 162.13 110.952 161.574 111.819C161.017 112.686 160.971 113.956 161.719 114.666L168.135 129.383C169.22 128.414 170.102 127.239 170.73 125.927C171.359 124.616 171.722 123.193 171.798 121.74C171.862 120.389 171.71 118.908 172.503 117.814C173.775 116.059 176.422 116.483 178.57 116.197C181.063 115.861 183.216 114.367 185.4 113.122Z" fill="#0575E6"/>
<path d="M186.568 128.707C182.752 131.828 177.735 133.224 174.001 136.441C173.548 136.831 173.09 137.5 173.468 137.958C173.617 138.139 173.854 138.218 174.079 138.283C180.49 140.112 187.975 136.815 190.955 130.851L194.639 129.464C195.014 122.12 195.535 114.785 196.202 107.458C194.646 115.249 192.717 123.68 186.568 128.707ZM246.162 119.522C251.482 111.704 255.234 102.31 254.082 92.9238C253.757 90.3022 253.032 87.6686 251.494 85.5203C249.5 82.7329 246.361 81.0321 243.333 79.4244L237.996 79.1904C232.913 81.1729 229.78 86.4488 228.571 91.769C227.362 97.0892 227.696 102.619 227.402 108.067C227.365 108.759 227.314 109.464 227.056 110.108C226.432 111.665 224.781 112.497 223.362 113.387C222.165 114.135 221.022 115.038 220.282 116.241C219.542 117.445 219.26 118.994 219.82 120.291C220.184 121.134 220.861 121.8 221.305 122.602C221.761 123.425 221.955 124.363 222.119 125.289C222.893 129.796 222.911 134.399 222.172 138.911C221.895 140.592 221.541 142.433 222.388 143.908C223.752 146.269 227.146 146.164 229.83 145.685C235.038 144.757 240.192 143.579 245.293 142.152C246.296 136.386 241.652 130.58 243.187 124.934C243.732 122.938 244.998 121.231 246.162 119.522Z" fill="#0575E6"/>
</g>
<path d="M213.338 108.922C212.006 117.231 212.205 136.793 212.311 143.155C208.845 142.709 206.381 141.402 206.104 141.402C205.985 141.402 205.02 141.334 203.689 141.237C203.275 133.748 202.606 117.381 203.931 107.626C205.26 97.8331 206.191 81.7933 206.565 74.5534C208.942 73.1335 211.453 71.9534 214.063 71.0304C214.063 71.0304 216.791 68.9493 221.094 70.0554C222.069 70.3078 223.523 70.9762 225.222 71.9209C222.621 78.8954 214.673 100.586 213.338 108.922Z" fill="white"/>
<path d="M231.786 77.8311L231.461 78.9296L231.124 80.0248L230.451 82.2142L229.764 84.4004L229.068 86.5833L229.031 86.6992H228.906L226.462 86.7209L224.018 86.7361L224.164 86.3818L227.131 89.3371L227.265 89.4704L227.151 89.6199L224.503 93.0865C223.615 94.237 222.732 95.3897 221.837 96.5348C220.942 97.6799 220.05 98.825 219.15 99.9668L217.793 101.673L217.115 102.526L216.43 103.374L217.064 102.487L217.704 101.605L218.985 99.84C219.843 98.6693 220.705 97.5 221.572 96.3322C222.438 95.1644 223.305 94.0041 224.179 92.8406L226.806 89.3631L226.826 89.6459L223.87 86.6797L223.514 86.3211H224.018L226.462 86.3374L228.906 86.358L228.743 86.4761L229.491 84.3094L230.249 82.1427L231.017 79.9847L231.401 78.9014L231.786 77.8311ZM200.88 80.4267C200.904 80.8889 200.924 81.3512 200.941 81.8134L200.987 83.2001L201.023 84.5878L201.05 85.9745L200.88 85.8044C201.389 85.7936 201.898 85.7863 202.407 85.7827L203.934 85.7665H204.275L204.118 86.0731L203.36 87.5561C203.108 88.0509 202.856 88.5441 202.601 89.036L202.624 88.9276C202.683 89.7607 202.744 90.5938 202.794 91.428L202.873 92.6781L202.944 93.9283C202.992 94.7625 203.03 95.5966 203.069 96.4319C203.108 97.2671 203.138 98.1013 203.157 98.9376C203.049 98.1078 202.961 97.2769 202.872 96.446C202.783 95.615 202.7 94.7841 202.624 93.9543L202.508 92.7074L202.4 91.4594C202.326 90.6274 202.263 89.7943 202.197 88.9623V88.9027L202.225 88.8486C202.477 88.3531 202.73 87.8595 202.984 87.3676L203.752 85.89L203.937 86.1933L202.411 86.1771C201.902 86.1716 201.392 86.1651 200.883 86.1543H200.711V85.9886L200.738 84.6019L200.774 83.2141L200.82 81.8275C200.837 81.3559 200.857 80.8889 200.88 80.4267Z" fill="#0575E6"/>
<path d="M203.148 122.245L215.124 116.278L229.419 136.682L218.316 148.083L203.148 122.245Z" fill="#55AAFF"/>
<path d="M231.779 135.293L221.885 151.676L218.198 149.503L211.515 145.565L203.621 141.244L191.734 134.741L202.402 117.806L217.085 126.546L226.193 131.968L231.779 135.293Z" fill="#92C8FF"/>
<path d="M226.197 131.968C225.905 133.241 225.038 134.414 224.262 135.517C221.314 139.719 219.252 144.478 218.202 149.503L211.519 145.565L203.625 141.243C204.025 140.032 205.008 139.011 206.1 138.303C207.489 137.405 209.082 136.875 210.527 136.071C214.013 134.127 216.497 130.492 217.09 126.546L226.197 131.968Z" fill="#7BB5EF"/>
<path d="M231.779 87.8247C231.779 87.8247 230.453 88.9351 228.895 98.9288C227.337 108.923 228.078 114.104 228.078 114.104L213.336 138.162L221.045 143.302C221.045 143.302 235.368 129.585 238.941 123.51C242.513 117.434 243.67 88.7044 242.299 86.3438C240.927 83.9832 233.446 83.1447 231.779 87.8247Z" fill="#6795C3"/>
<path d="M213.794 138.521C213.794 138.521 211.644 139.178 208.269 140.802C204.895 142.426 207.773 142.359 209.461 141.955C211.149 141.551 208.524 143.796 209.028 145.546C209.531 147.295 210.151 147.171 212.149 147.544C214.146 147.916 215.769 148.542 216.643 147.544C217.518 146.545 219.973 142.636 219.973 142.636L213.794 138.521Z" fill="#6B8AFF"/>
<mask id="mask9_11130_36425" style="mask-type:luminance" maskUnits="userSpaceOnUse" x="206" y="138" width="14" height="11">
<path d="M213.802 138.519C213.802 138.519 211.652 139.176 208.277 140.8C204.903 142.424 207.781 142.357 209.469 141.953C211.157 141.549 208.532 143.794 209.035 145.544C209.539 147.294 210.159 147.169 212.157 147.542C214.154 147.914 215.777 148.54 216.651 147.542C217.526 146.543 219.98 142.634 219.98 142.634L213.802 138.519Z" fill="white"/>
</mask>
<g mask="url(#mask9_11130_36425)">
<path d="M206.7 140.514C207.023 140.964 207.473 141.307 207.993 141.498C208.513 141.689 209.078 141.72 209.615 141.586C209.877 141.516 210.134 141.404 210.406 141.398C210.678 141.391 210.981 141.527 211.056 141.789C211.116 141.998 211.015 142.222 210.908 142.407C210.533 143.077 210.041 143.707 209.914 144.466C209.691 145.806 210.913 147.19 212.271 147.134C212.487 147.124 212.721 147.086 212.921 147.178C213.12 147.27 213.228 147.455 213.386 147.589C213.69 147.849 214.117 147.898 214.515 147.914C215.726 147.976 216.941 147.879 218.127 147.628C216.216 149.921 212.729 150.315 209.876 149.434C208.927 149.141 208 148.719 207.266 148.05C206.531 147.382 206.008 146.442 205.995 145.45C205.984 144.543 206.389 143.678 206.468 142.772C206.547 141.867 206.099 140.769 205.195 140.672L206.7 140.514Z" fill="#2B56F6"/>
</g>
<path d="M219.661 38.9688C219.661 38.9688 217.625 33.1394 209.02 35.0818C200.415 37.0243 198.749 43.2252 197.916 45.2652C197.083 47.3051 200.322 51.0068 201.802 51.464C203.282 51.9212 219.661 61.3386 219.661 61.3386C219.661 61.3386 228.99 57.4884 228.898 47.6799C228.806 37.8714 219.661 38.9688 219.661 38.9688Z" fill="#021B79"/>
<path d="M219.661 38.9688C219.661 38.9688 217.625 33.1394 209.02 35.0818C200.415 37.0243 198.749 43.2252 197.916 45.2652C197.083 47.3051 200.322 51.0068 201.802 51.464C203.282 51.9212 219.661 61.3386 219.661 61.3386C219.661 61.3386 228.99 57.4884 228.898 47.6799C228.806 37.8714 219.661 38.9688 219.661 38.9688Z" fill="#12225E"/>
<mask id="mask10_11130_36425" style="mask-type:luminance" maskUnits="userSpaceOnUse" x="197" y="34" width="32" height="28">
<path d="M219.661 38.9688C219.661 38.9688 217.625 33.1394 209.02 35.0818C200.415 37.0243 198.749 43.2252 197.916 45.2652C197.083 47.3051 200.322 51.0068 201.802 51.464C203.282 51.9212 219.661 61.3386 219.661 61.3386C219.661 61.3386 228.99 57.4884 228.898 47.6799C228.806 37.8714 219.661 38.9688 219.661 38.9688Z" fill="white"/>
</mask>
<g mask="url(#mask10_11130_36425)">
<path d="M218.069 40.1528C217.117 38.592 215.606 37.4529 213.844 36.9678C214.434 37.6698 214.961 38.4224 215.419 39.2168C212.855 37.3751 209.263 36.3178 206.585 37.9872C205.632 38.5809 204.898 39.4594 204.081 40.2297C201.546 42.5986 198.219 43.9391 194.75 43.9899C195.91 48.5876 198.684 52.6815 202.178 55.8871C205.673 59.0927 209.87 61.4576 214.227 63.3198C215.038 63.6654 215.886 64.0012 216.767 63.9698C217.551 63.9373 218.294 63.6091 218.981 63.2267C223.389 60.7675 226.171 55.6553 225.841 50.6188C225.742 49.1119 225.238 47.4263 223.873 46.7784C224.136 46.9843 224.444 47.1255 224.772 47.1906C225.1 47.2557 225.438 47.2429 225.76 47.1533C226.266 45.7005 225.002 44.2434 223.712 43.4028C222.002 42.2905 220.068 41.5692 218.047 41.2903L218.069 40.1528Z" fill="#0B1744"/>
</g>
<path d="M220.294 60.8837C220.847 60.6818 221.348 60.3599 221.761 59.9412C222.99 58.7127 223.254 56.9848 222.35 56.0813C221.642 55.3728 220.429 55.3847 219.344 56.013L219.019 54.3263C219.019 54.3263 211.959 51.736 211.14 48.9594C211.987 51.9213 209.766 50.8109 209.766 50.8109C209.766 50.8109 207.36 49.5109 206.435 46.9239C205.51 44.3369 207.735 51.3655 201.254 45.2588C201.254 45.2588 200.143 51.1803 200.328 54.3263C200.514 57.4723 199.361 57.8428 200.308 59.3237C201.255 60.8046 201.808 67.2808 206.065 67.6513C210.321 68.0218 211.806 66.5408 211.806 66.5408V72.8328C211.806 74.8684 210.696 80.6058 213.472 80.4162C216.249 80.2266 222.356 71.5328 222.356 71.5328L220.505 61.9096L220.294 60.8837Z" fill="#6B8AFF"/>
<mask id="mask11_11130_36425" style="mask-type:luminance" maskUnits="userSpaceOnUse" x="199" y="45" width="24" height="36">
<path d="M220.286 60.8847C220.839 60.6828 221.34 60.3609 221.753 59.9422C222.982 58.7137 223.246 56.9858 222.343 56.0823C221.634 55.3738 220.421 55.3857 219.336 56.014L219.011 54.3273C219.011 54.3273 211.951 51.737 211.132 48.9604C211.979 51.9223 209.759 50.8118 209.759 50.8118C209.759 50.8118 207.352 49.5118 206.427 46.9248C205.502 44.3378 207.727 51.3665 201.246 45.2598C201.246 45.2598 200.135 51.1813 200.321 54.3273C200.506 57.4732 199.353 57.8437 200.3 59.3247C201.247 60.8056 201.8 67.2817 206.057 67.6522C210.313 68.0227 211.798 66.5418 211.798 66.5418V72.8338C211.798 74.8694 210.688 80.6067 213.465 80.4172C216.241 80.2276 222.348 71.5338 222.348 71.5338L220.498 61.9106L220.286 60.8847Z" fill="white"/>
</mask>
<g mask="url(#mask11_11130_36425)">
<path d="M212.21 53.083C212.496 52.9746 212.772 52.8176 213.076 52.8143C213.381 52.8111 213.654 52.9605 213.91 53.1155C215.479 54.0623 216.92 55.4013 218.737 55.6321C218.93 55.6559 219.142 55.6624 219.298 55.5475C219.454 55.4327 219.515 55.2312 219.551 55.0427C220.042 52.7201 219.264 50.2479 217.83 48.3575C216.396 46.4671 214.363 45.1075 212.211 44.0989C207.98 42.1291 203.269 41.4288 198.648 42.0828L200.136 44.8085C200.745 46.2959 201.39 47.8418 202.59 48.9089C203.789 49.976 205.711 50.4255 207.011 49.4787C207.563 50.4927 208.134 51.5295 209.005 52.2867C209.876 53.044 211.124 53.473 212.21 53.083ZM215.233 63.6736C214.279 65.4682 212.661 66.8182 210.724 67.435L209.678 69.372C209.313 70.0219 209.001 70.8691 209.446 71.466C209.891 72.0629 210.837 71.9979 211.553 71.7401C214.153 70.8063 216.103 68.1034 215.865 65.3485C215.811 64.744 215.647 64.1189 215.233 63.6736ZM220.916 57.0913C220.559 56.658 219.733 56.7576 219.075 57.308C218.416 57.8583 218.17 58.6502 218.533 59.0814C218.896 59.5125 219.716 59.4161 220.375 58.8647C221.033 58.3133 221.274 57.517 220.916 57.0913Z" fill="#2B56F6"/>
</g>
<path d="M206.472 55.8091C206.958 55.8091 207.351 55.229 207.351 54.5134C207.351 53.7979 206.958 53.2178 206.472 53.2178C205.987 53.2178 205.594 53.7979 205.594 54.5134C205.594 55.229 205.987 55.8091 206.472 55.8091Z" fill="#12225E"/>
<path d="M206.151 54.8513C206.394 54.8513 206.591 54.5613 206.591 54.2035C206.591 53.8457 206.394 53.5557 206.151 53.5557C205.908 53.5557 205.711 53.8457 205.711 54.2035C205.711 54.5613 205.908 54.8513 206.151 54.8513Z" fill="white"/>
<path d="M205.592 51.4589C205.73 51.2913 205.91 51.162 206.113 51.083C206.314 51.0007 206.53 50.958 206.747 50.9574C206.967 50.9529 207.184 50.9942 207.387 51.0787C207.589 51.1596 207.767 51.2904 207.906 51.4589C207.689 51.4503 207.494 51.4178 207.304 51.4091C207.115 51.4004 206.934 51.3885 206.752 51.3896C206.57 51.3907 206.385 51.3983 206.195 51.4134L205.592 51.4589ZM203.93 61.7311C204.173 61.7768 204.425 61.7574 204.659 61.6748C204.89 61.603 205.117 61.5176 205.338 61.4191L206.025 61.1006C206.14 61.0443 206.26 60.9977 206.379 60.9435C206.502 60.8896 206.628 60.8429 206.756 60.8038C206.679 60.9149 206.593 61.0203 206.5 61.119C206.408 61.2157 206.309 61.3062 206.205 61.3898C206.154 61.434 206.101 61.4745 206.044 61.5112C205.989 61.5502 205.936 61.5859 205.876 61.6195C205.76 61.6892 205.64 61.7529 205.517 61.8102C205.262 61.9239 204.989 61.9903 204.711 62.0063C204.638 62.0089 204.566 62.0061 204.494 61.9976C204.423 61.9901 204.352 61.9756 204.284 61.9543C204.145 61.9202 204.021 61.8419 203.93 61.7311Z" fill="#12225E"/>
<path d="M211.561 60.343C212.94 60.343 214.059 59.2245 214.059 57.8448C214.059 56.4651 212.94 55.3467 211.561 55.3467C210.181 55.3467 209.062 56.4651 209.062 57.8448C209.062 59.2245 210.181 60.343 211.561 60.343Z" fill="#2B56F6"/>
<path d="M108.169 138.766C100.802 137.978 94.2274 142.882 93.4962 149.724C92.7649 156.565 98.148 162.747 105.521 163.536C112.894 164.325 119.463 159.419 120.194 152.578C120.925 145.737 115.541 139.554 108.169 138.766ZM105.878 162.685C99.7264 162.027 95.2349 156.867 95.8459 151.161C96.4569 145.455 101.936 141.361 108.088 142.019C114.239 142.676 118.73 147.835 118.119 153.542C117.508 159.249 112.029 163.342 105.878 162.685Z" fill="#111935"/>
<path d="M127.972 148.653L86.5192 144.223C85.8053 144.147 85.1647 144.664 85.0884 145.378L81.5271 178.702C81.4508 179.416 81.9677 180.056 82.6816 180.133L124.134 184.563C124.848 184.639 125.489 184.122 125.565 183.408L129.126 150.084C129.203 149.37 128.686 148.729 127.972 148.653Z" fill="#111935"/>
<path d="M129.905 148.861L88.613 144.448C87.899 144.371 87.2585 144.888 87.1822 145.602L85.336 162.877C85.2597 163.591 85.7766 164.232 86.4905 164.308L127.783 168.721C128.497 168.797 129.137 168.28 129.214 167.566L131.06 150.291C131.136 149.577 130.619 148.937 129.905 148.861Z" fill="#1C274F"/>
<path d="M119.103 161.641L117.921 161.515C117.758 161.498 117.611 161.616 117.593 161.78L116.717 169.981C116.699 170.145 116.818 170.292 116.981 170.309L118.163 170.436C118.327 170.453 118.473 170.335 118.491 170.171L119.367 161.969C119.385 161.806 119.267 161.659 119.103 161.641Z" fill="white"/>
<path d="M105.478 160.184L104.296 160.058C104.133 160.041 103.986 160.159 103.968 160.323L103.092 168.524C103.074 168.688 103.193 168.835 103.356 168.852L104.538 168.979C104.702 168.996 104.848 168.878 104.866 168.714L105.742 160.512C105.76 160.349 105.642 160.202 105.478 160.184Z" fill="white"/>
<path d="M103.412 237.436C103.412 237.436 104.133 242.419 111.589 242.902C119.044 243.384 124.987 246.119 123.483 248.451C121.978 250.784 104.665 249.968 98.1912 250.235C91.7172 250.501 93.5664 245.157 93.6845 238.945C93.8026 232.733 103.412 237.436 103.412 237.436Z" fill="#0A0B11"/>
<path d="M117.03 138.521C117.03 138.521 117.696 166.398 116.282 175.262C114.867 184.126 111.463 199.022 109.992 207.104C108.521 215.186 104.843 239.378 104.843 239.378C104.843 239.378 95.8359 240.569 93.1189 241.501C90.4019 242.433 96.006 198.257 94.628 191.861C93.25 185.465 91.7344 142.901 91.7344 142.901L117.03 138.521Z" fill="#2951E7"/>
<path d="M96.6835 239.206C96.6835 239.206 97.054 244.226 104.456 245.233C111.859 246.239 117.596 249.385 115.93 251.605C114.264 253.825 97.054 251.79 90.5801 251.605C84.1061 251.42 86.3236 246.215 86.8794 240.027C87.4351 233.839 96.6835 239.206 96.6835 239.206Z" fill="#1C1F2B"/>
<mask id="mask12_11130_36425" style="mask-type:luminance" maskUnits="userSpaceOnUse" x="86" y="237" width="31" height="16">
<path d="M96.6914 239.207C96.6914 239.207 97.0619 244.227 104.464 245.234C111.867 246.24 117.604 249.386 115.938 251.606C114.272 253.826 97.0619 251.791 90.5879 251.606C84.1139 251.421 86.3314 246.216 86.8872 240.028C87.4429 233.84 96.6914 239.207 96.6914 239.207Z" fill="white"/>
</mask>
<g mask="url(#mask12_11130_36425)">
<path d="M84.7747 247.137C87.4419 249.573 91.4166 249.719 95.0285 249.731C97.7888 249.74 100.553 249.75 103.304 249.521C105.751 249.319 108.191 248.929 110.647 248.965C113.686 249.014 116.678 249.716 119.422 251.024C117.563 252.377 115.286 253.013 113.038 253.499C105.68 255.085 98.0957 255.329 90.6507 254.221C87.781 253.787 84.518 252.829 83.4141 250.145L84.7747 247.137Z" fill="#090A0F"/>
</g>
<path d="M117.226 141.493C117.226 141.493 115.926 169.349 113.895 178.091C111.863 186.834 107.417 201.453 105.382 209.408C103.346 217.363 97.9794 241.241 97.9794 241.241C97.9794 241.241 88.9119 241.795 86.1353 242.535C83.3587 243.274 92.0579 199.6 91.1327 193.123C90.2075 186.645 91.6874 144.081 91.6874 144.081L117.226 141.493Z" fill="#55AAFF"/>
<mask id="mask13_11130_36425" style="mask-type:luminance" maskUnits="userSpaceOnUse" x="85" y="141" width="33" height="102">
<path d="M117.234 141.495C117.234 141.495 115.934 169.351 113.902 178.093C111.871 186.836 107.425 201.455 105.39 209.41C103.354 217.365 97.9872 241.243 97.9872 241.243C97.9872 241.243 88.9197 241.797 86.1431 242.536C83.3665 243.276 92.0657 199.602 91.1405 193.125C90.2153 186.647 91.6952 144.083 91.6952 144.083L117.234 141.495Z" fill="white"/>
</mask>
<g mask="url(#mask13_11130_36425)">
<path d="M94.2367 137.592C92.0701 138.41 89.755 139.494 88.7648 141.59C87.6577 143.934 88.5774 146.665 89.0205 149.218C90.3487 156.884 87.1355 164.778 88.3575 172.462C89.4571 166.07 93.3181 160.193 98.7575 156.645C102.292 154.342 106.367 153.028 110.15 151.159C113.933 149.291 117.611 146.645 119.25 142.756L129.076 133.114C117.273 131.88 105.344 133.413 94.2367 137.592ZM98.2191 239.995C96.8313 240.428 95.7274 241.599 94.292 241.852C92.3528 242.193 90.4787 240.66 89.742 238.839C89.0053 237.018 89.1353 234.969 89.2762 233.006C89.508 229.77 89.7395 226.534 89.9706 223.3C90.2533 219.361 90.5393 215.391 91.5815 211.583C91.9617 210.19 92.4482 208.808 92.5565 207.367C92.7103 205.27 92.0733 203.041 92.9324 201.122C93.2303 200.456 93.6983 199.864 93.8857 199.16C94.1956 197.992 93.6821 196.784 93.2358 195.664C90.4236 188.672 89.6086 181.036 90.8817 173.607L75.1484 227.099C77.4358 231.098 78.3634 235.732 77.7918 240.304C77.5491 242.207 77.0529 244.187 77.6899 245.998C78.471 248.218 80.8457 249.583 83.1922 249.795C85.5387 250.006 87.8613 249.266 90.0464 248.386C93.5981 246.952 96.9776 245.124 100.121 242.936C100.483 242.684 100.859 242.407 101.038 242.003C101.625 240.672 99.6068 239.558 98.2191 239.995Z" fill="#2951E7"/>
</g>
<path d="M113.992 74.999C114.824 74.8701 118.626 74.9632 120.797 82.1338C122.968 89.3044 121.301 106.444 121.301 106.444L113.992 93.3766V74.999Z" fill="#2E4BB8"/>
<path d="M109.459 37.9509C109.459 37.9509 109.644 34.7128 115.752 32.9545C121.86 31.1963 124.13 32.3045 123.966 33.7865C123.803 35.2685 125.428 35.9153 126.003 36.8405C126.578 37.7656 127.556 42.2994 126.003 43.1325C124.449 43.9655 108.257 57.4747 108.257 57.4747C108.257 57.4747 98.3562 50.745 100.3 44.765C102.243 38.785 109.459 37.9509 109.459 37.9509Z" fill="#12225E"/>
<path d="M109.459 37.9509C109.459 37.9509 109.644 34.7128 115.752 32.9545C121.86 31.1963 124.13 32.3045 123.966 33.7865C123.803 35.2685 125.428 35.9153 126.003 36.8405C126.578 37.7656 127.556 42.2994 126.003 43.1325C124.449 43.9655 108.257 57.4747 108.257 57.4747C108.257 57.4747 98.3562 50.745 100.3 44.765C102.243 38.785 109.459 37.9509 109.459 37.9509Z" fill="#0B1744"/>
<mask id="mask14_11130_36425" style="mask-type:luminance" maskUnits="userSpaceOnUse" x="100" y="32" width="27" height="26">
<path d="M109.451 37.9518C109.451 37.9518 109.637 34.7138 115.745 32.9555C121.852 31.1973 124.122 32.3055 123.958 33.7875C123.795 35.2695 125.42 35.9163 125.995 36.8414C126.57 37.7666 127.549 42.3003 125.995 43.1334C124.442 43.9665 108.249 57.4757 108.249 57.4757C108.249 57.4757 98.3484 50.746 100.292 44.766C102.235 38.786 109.451 37.9518 109.451 37.9518Z" fill="white"/>
</mask>
<g mask="url(#mask14_11130_36425)">
<path d="M111.535 39.394C111.854 38.2261 112.771 37.2934 113.822 36.6856C114.873 36.0779 116.058 35.767 117.229 35.4561C116.54 35.7747 115.969 36.3033 115.598 36.9662C116.193 36.3865 116.945 35.9934 117.761 35.8354C118.577 35.6774 119.421 35.7613 120.19 36.0768C121.632 36.6976 122.668 38.107 124.177 38.5381C125.624 38.9509 127.148 38.3735 128.651 38.2965C128.806 38.289 128.976 38.2965 129.095 38.3897C129.214 38.4829 129.253 38.6941 129.267 38.8675C129.385 40.2823 129.494 41.761 128.942 43.0686C128.006 45.2905 125.525 46.3284 123.41 47.4843C121.779 48.3758 120.255 49.4506 118.867 50.6877C116.326 52.9519 114.277 55.7295 111.704 57.959C111.245 58.3566 110.729 58.7531 110.126 58.8094C109.576 58.8614 109.043 58.622 108.542 58.3891C107.263 57.7933 105.902 57.1238 105.218 55.8888C104.828 55.1825 104.706 54.3624 104.639 53.5585C104.44 51.1725 104.675 48.7701 105.334 46.4681C105.736 45.0598 106.431 43.5659 107.791 43.0415C107.322 43.1499 106.108 41.5444 106.395 41.396C107.864 40.6365 109.384 39.9813 110.945 39.4351L111.535 39.394Z" fill="#0B1744"/>
</g>
<path d="M128.421 55.7159C128.052 55.1612 127.867 52.663 127.959 48.4066C128.051 44.1502 125.738 41.7441 125.738 41.7441C125.275 43.1319 119.077 43.8729 116.115 43.965C113.153 44.0571 111.673 45.6301 113.525 47.3883C115.376 49.1465 114.727 50.349 112.414 52.48C111.81 53.0357 111.213 53.8504 110.659 54.755C109.467 53.8049 107.895 53.7301 106.983 54.6466C105.99 55.64 106.166 57.4275 107.376 58.6376C107.663 58.9262 107.996 59.1652 108.361 59.345C108.057 60.0687 107.879 60.5367 107.879 60.5367C107.879 60.5367 107.229 66.7366 105.844 68.77C107.233 69.3247 115.837 76.5429 115.837 76.5429V71.0829C115.837 68.0301 117.318 64.9762 117.318 64.9762C117.318 64.9762 121.39 66.2762 123.98 66.0866C126.57 65.897 127.771 59.332 127.959 58.8695C128.146 58.4069 128.792 56.2716 128.421 55.7159Z" fill="#6B8AFF"/>
<mask id="mask15_11130_36425" style="mask-type:luminance" maskUnits="userSpaceOnUse" x="105" y="41" width="24" height="36">
<path d="M128.429 55.7159C128.06 55.1612 127.875 52.663 127.967 48.4066C128.059 44.1502 125.746 41.7441 125.746 41.7441C125.283 43.1319 119.084 43.8729 116.123 43.965C113.161 44.0571 111.681 45.6301 113.532 47.3883C115.384 49.1465 114.735 50.349 112.422 52.48C111.817 53.0357 111.221 53.8504 110.667 54.755C109.475 53.8049 107.902 53.7301 106.991 54.6466C105.998 55.64 106.173 57.4275 107.383 58.6376C107.671 58.9262 108.004 59.1652 108.369 59.345C108.065 60.0687 107.887 60.5367 107.887 60.5367C107.887 60.5367 107.237 66.7366 105.852 68.77C107.24 69.3247 115.845 76.5429 115.845 76.5429V71.0829C115.845 68.0301 117.326 64.9762 117.326 64.9762C117.326 64.9762 121.397 66.2762 123.988 66.0866C126.578 65.897 127.779 59.332 127.967 58.8695C128.154 58.4069 128.8 56.2716 128.429 55.7159Z" fill="white"/>
</mask>
<g mask="url(#mask15_11130_36425)">
<path d="M126.595 39.7176C126.162 38.9257 125.264 38.4978 124.385 38.2833C122.511 37.8261 120.54 38.124 118.659 38.5476C115.41 39.2784 112.255 40.3753 109.253 41.8171C108.82 42.0229 108.324 42.4184 108.495 42.8582L110.397 54.6113L113.188 52.1012C113.709 51.631 114.239 51.15 114.59 50.5423C114.941 49.9345 115.092 49.1664 114.807 48.524C114.452 47.7191 113.47 47.1417 113.564 46.2674C113.619 45.7583 114.061 45.3596 114.546 45.1906C115.03 45.0216 115.555 45.0357 116.062 45.0389C118.104 45.0347 120.141 44.8469 122.149 44.4778C123.406 44.2546 124.707 43.9491 125.688 43.1312C126.668 42.3133 127.214 40.8345 126.595 39.7176ZM118.097 65.281C116.281 64.9506 114.569 64.1985 113.097 63.0851C113.191 64.488 113.289 65.9018 113.664 67.2581C114.039 68.6144 114.716 69.922 115.797 70.8212C116.137 71.1257 116.546 71.3445 116.988 71.4592C117.434 71.5557 117.932 71.482 118.281 71.1884C118.676 70.8558 118.815 70.3142 118.903 69.805C119.048 68.9605 119.111 68.1039 119.09 67.2472C119.083 66.9222 119.048 66.5572 118.812 66.3297L118.097 65.281ZM110.16 56.2915C109.561 55.8138 108.807 55.7639 108.476 56.1832C108.144 56.6024 108.361 57.3228 108.96 57.8006C109.559 58.2783 110.313 58.3271 110.644 57.9089C110.976 57.4908 110.759 56.7671 110.16 56.2915Z" fill="#2B56F6"/>
</g>
<path d="M123.154 53.6812C123.563 53.6812 123.894 53.1011 123.894 52.3855C123.894 51.6699 123.563 51.0898 123.154 51.0898C122.745 51.0898 122.414 51.6699 122.414 52.3855C122.414 53.1011 122.745 53.6812 123.154 53.6812Z" fill="#12225E"/>
<path d="M123.377 52.5829C123.55 52.5829 123.691 52.337 123.691 52.0336C123.691 51.7303 123.55 51.4844 123.377 51.4844C123.203 51.4844 123.062 51.7303 123.062 52.0336C123.062 52.337 123.203 52.5829 123.377 52.5829Z" fill="white"/>
<path d="M123.149 48.01C122.815 47.9841 122.478 47.9841 122.144 48.01C121.503 48.0561 120.879 48.2358 120.312 48.5376C120.162 48.6037 120.03 48.7012 119.879 48.7813C119.727 48.8615 119.602 48.972 119.445 49.0576C119.488 48.9807 119.535 48.907 119.583 48.8344C119.607 48.7965 119.633 48.7618 119.659 48.7261C119.682 48.6876 119.71 48.6513 119.74 48.6178C119.855 48.4823 119.983 48.3589 120.123 48.2494C120.695 47.7953 121.424 47.5861 122.149 47.6677C122.505 47.7002 122.848 47.8176 123.149 48.01ZM124.537 59.1402C123.895 59.2569 123.246 59.3265 122.595 59.3482C122.27 59.3633 121.945 59.3655 121.62 59.3612L121.375 59.3536C121.303 59.3492 121.23 59.3492 121.158 59.3536C121.11 59.3553 121.062 59.3664 121.018 59.3861C121.01 59.3926 121.011 59.3937 121.018 59.3861C121.026 59.3785 121.018 59.3861 121.018 59.3958C121.023 59.4436 121.038 59.49 121.061 59.5323C121.092 59.5938 121.128 59.6525 121.169 59.7078C121.257 59.8291 121.355 59.9432 121.461 60.0491C121.682 60.2687 121.92 60.4705 122.172 60.6525C122.426 60.8366 122.698 60.9959 122.982 61.1281C123.266 61.2715 123.582 61.3408 123.9 61.3296C123.743 61.3885 123.576 61.4144 123.409 61.4054C123.241 61.3971 123.075 61.3713 122.912 61.3285C122.589 61.238 122.279 61.1065 121.99 60.9374C121.697 60.7709 121.424 60.5718 121.175 60.3438C121.047 60.2261 120.93 60.0978 120.823 59.9602C120.767 59.8856 120.718 59.8062 120.676 59.723C120.623 59.6226 120.592 59.5116 120.587 59.398C120.586 59.3199 120.606 59.2429 120.645 59.1748C120.684 59.107 120.741 59.0507 120.809 59.0112C120.91 58.9584 121.021 58.9288 121.134 58.9246C121.224 58.9219 121.314 58.9244 121.403 58.9322L121.642 58.9484L122.605 59.0091C123.241 59.0481 123.886 59.0838 124.537 59.1402Z" fill="#12225E"/>
<path d="M116.26 58.5807C117.512 58.5807 118.527 57.5656 118.527 56.3133C118.527 55.0611 117.512 54.0459 116.26 54.0459C115.007 54.0459 113.992 55.0611 113.992 56.3133C113.992 57.5656 115.007 58.5807 116.26 58.5807Z" fill="#2B56F6"/>
<path d="M128.039 54.0457C128.037 54.3786 128.001 54.7105 127.93 55.0359C127.862 55.3637 127.749 55.6806 127.593 55.9773C127.439 56.2807 127.225 56.5497 126.964 56.7681C126.692 56.995 126.354 57.1293 126.001 57.1516C125.638 57.1577 125.283 57.0477 124.987 56.8374C124.696 56.6294 124.453 56.3626 124.273 56.0542C123.929 55.4407 123.748 54.7491 123.748 54.0457C123.748 53.3423 123.929 52.6507 124.273 52.0372C124.454 51.7288 124.697 51.4619 124.988 51.2539C125.284 51.0434 125.639 50.9329 126.002 50.9387C126.356 50.9612 126.693 51.096 126.965 51.3233C127.226 51.5414 127.44 51.8105 127.594 52.1141C127.75 52.4109 127.863 52.7277 127.931 53.0555C128.002 53.3809 128.037 53.7128 128.039 54.0457ZM128.039 54.0457C128.043 53.3791 127.871 52.7231 127.54 52.1444C127.375 51.8618 127.152 51.6176 126.885 51.4284C126.627 51.2454 126.317 51.1501 126.001 51.1564C125.694 51.1792 125.403 51.2987 125.169 51.4977C124.932 51.698 124.738 51.9441 124.598 52.2214C124.453 52.5008 124.347 52.7985 124.283 53.1064C124.147 53.7256 124.147 54.3668 124.283 54.986C124.346 55.294 124.452 55.5919 124.597 55.8711C124.736 56.1487 124.93 56.3949 125.168 56.5948C125.402 56.7938 125.694 56.9133 126.001 56.936C126.317 56.9424 126.628 56.8471 126.886 56.6641C127.152 56.4743 127.376 56.2303 127.541 55.948C127.871 55.3687 128.043 54.7125 128.039 54.0457ZM110.664 54.7791C111.747 54.6903 112.831 54.6426 113.922 54.6112C114.463 54.5917 115.005 54.5863 115.547 54.5754L117.172 54.5635L118.797 54.5744C119.338 54.5863 119.88 54.5906 120.422 54.6101C121.505 54.6426 122.588 54.6892 123.679 54.7791C122.596 54.8701 121.513 54.9167 120.422 54.9492C119.88 54.9687 119.338 54.973 118.797 54.9849L117.172 54.9958L115.547 54.9838C115.005 54.9719 114.463 54.9676 113.922 54.9481C112.835 54.9167 111.75 54.869 110.664 54.7791Z" fill="#334072"/>
<path d="M102.422 70.3369C102.422 70.3369 103.3 67.0057 105.845 67.283C108.39 67.5603 112.554 70.3369 114.914 72.2804C117.273 74.2239 117.189 82.1387 117.189 82.1387C117.189 82.1387 113.989 73.7602 102.422 70.3369Z" fill="white"/>
<path d="M102.421 70.3363C102.421 70.3363 92.5625 70.6136 90.0709 85.1877C87.5792 99.7618 89.2843 125.948 89.2843 125.948C89.2843 125.948 88.1403 126.852 88.7123 128.621C89.2843 130.39 85.3984 143.302 85.3984 143.302C85.3984 143.302 88.3592 148.526 95.0217 148.895C101.684 149.265 117.23 146.489 119.45 146.489C121.669 146.489 119.45 126.317 119.45 126.317C119.45 126.317 124.631 128.724 133.329 129.459C142.027 130.195 150.911 130.015 150.911 130.015L150.031 120.157C150.031 120.157 140.548 119.647 133.7 117.797C126.852 115.947 124.539 112.991 124.539 112.991C124.539 112.991 121.113 70.059 102.421 70.3363Z" fill="#3C63F6"/>
<mask id="mask16_11130_36425" style="mask-type:luminance" maskUnits="userSpaceOnUse" x="85" y="70" width="66" height="79">
<path d="M102.429 70.3353C102.429 70.3353 92.5703 70.6127 90.0787 85.1867C87.587 99.7608 89.2922 125.947 89.2922 125.947C89.2922 125.947 88.1482 126.851 88.7202 128.62C89.2922 130.389 85.4062 143.301 85.4062 143.301C85.4062 143.301 88.367 148.525 95.0295 148.894C101.692 149.264 117.238 146.488 119.458 146.488C121.677 146.488 119.458 126.317 119.458 126.317C119.458 126.317 124.639 128.723 133.337 129.458C142.035 130.194 150.919 130.014 150.919 130.014L150.039 120.156C150.039 120.156 140.555 119.646 133.708 117.796C126.86 115.946 124.547 112.99 124.547 112.99C124.547 112.99 121.12 70.058 102.429 70.3353Z" fill="white"/>
</mask>
<g mask="url(#mask16_11130_36425)">
<path d="M139.905 114.991C137.611 114.3 135.3 113.604 132.917 113.347C130.947 113.131 128.86 113.202 127.122 112.249C123.912 110.49 123.33 106.246 122.622 102.656C121.069 94.8267 116.997 87.4243 110.973 82.2373C114.619 85.9152 116.515 91.0535 117.762 96.1148C119.091 101.514 119.85 107.103 122.047 112.211C122.913 114.227 124.012 116.185 124.383 118.348C125.406 118.565 125.258 116.346 126.289 116.171C127.004 116.049 127.335 117.001 127.822 117.54C128.344 118.116 129.185 118.247 129.956 118.344L148.256 120.632C150.265 120.883 152.755 120.917 153.789 119.176L139.905 114.991ZM123.048 127.643L119.451 126.316C112.301 121.238 106.444 115.18 102.281 107.466C103.105 113.834 107.307 119.21 111.664 123.933C116.021 128.655 120.805 133.234 123.295 139.152C123.785 140.317 124.811 141.798 125.929 141.211C126.209 141.066 126.412 140.808 126.579 140.544C127.893 138.536 127.838 135.867 126.993 133.621C126.148 131.375 124.615 129.463 123.048 127.643Z" fill="#2E4BB8"/>
</g>
<path opacity="0.57" d="M98.9219 131.376L99.3785 127.625L112.606 129.235L112.149 132.986L98.9219 131.376Z" fill="white"/>
</svg>
