<svg width="773" height="260" viewBox="0 0 773 260" fill="none" xmlns="http://www.w3.org/2000/svg">
<path d="M403.592 194.433L402.731 186.509L390.445 187.75L391.33 195.865L403.592 194.433Z" fill="#96C2EF"/>
<path d="M392.706 186.383C392.706 186.383 393.727 185.97 394.005 186.661C394.096 186.886 394.07 187.142 393.96 187.36L393.303 188.577C393.125 188.93 392.942 189.281 392.748 189.627C392.455 190.15 391.91 191.375 392.091 192.407C392.091 192.407 390.366 190.611 390.337 190.451C390.308 190.292 390.848 187.483 390.848 187.483L392.706 186.383ZM393.457 195.203C393.457 195.203 396.151 194.938 396.324 195.993C396.342 196.103 396.324 196.216 396.282 196.32C396.177 196.587 395.876 197.179 395.206 197.415L393.884 195.977L393.457 195.203Z" fill="#111111"/>
<path d="M390.159 210.464C389.329 210.608 388.504 210.195 388.138 209.43C388.08 209.32 388.023 209.2 387.973 209.077C387.662 208.349 387.444 207.579 387.308 206.802L384.078 188.187C383.923 187.302 384.56 186.457 385.455 186.368L391.525 185.713C391.643 185.703 391.764 185.7 391.887 185.705C392.376 185.742 392.717 185.878 392.965 186.245C393.091 186.428 393.101 186.658 392.994 186.844C392.36 187.967 390.227 192.496 394.452 195.826C394.774 196.077 395.07 196.378 395.279 196.734C395.523 197.119 395.716 197.598 395.549 197.962C393.978 201.341 392.214 205.106 391.688 208.87C391.62 209.339 391.392 209.786 391.015 210.085C390.769 210.276 390.476 210.409 390.159 210.464Z" fill="#021B79"/>
<path d="M390.159 210.464C389.329 210.608 388.504 210.195 388.138 209.43C388.08 209.32 388.023 209.2 387.973 209.077C387.662 208.349 387.444 207.58 387.308 206.802L384.078 188.187C383.923 187.302 384.56 186.457 385.455 186.368C386.881 195.834 388.832 207.93 390.159 210.464Z" fill="#111111"/>
<path d="M549.408 187.208L543.031 191.988L550.358 201.925L556.89 197.027L549.408 187.208Z" fill="#96C2EF"/>
<path d="M547.638 200.54C547.638 200.54 546.805 199.817 547.295 199.255C547.455 199.071 547.695 198.977 547.939 198.977L549.324 199.011C549.719 199.008 550.117 199.011 550.512 199.029C551.112 199.053 552.449 198.982 553.287 198.354C553.287 198.354 552.47 200.707 552.342 200.804C552.214 200.901 549.465 201.697 549.465 201.697L547.638 200.54ZM555.156 195.867C555.156 195.867 553.698 193.587 554.559 192.954C554.648 192.888 554.758 192.854 554.868 192.844C555.153 192.815 555.818 192.815 556.331 193.307L555.651 195.137L555.156 195.867Z" fill="#111111"/>
<path d="M570.26 191.875C570.765 192.55 570.77 193.472 570.255 194.145C570.181 194.247 570.1 194.351 570.014 194.451C569.509 195.058 568.92 195.603 568.289 196.077L553.171 207.409C552.454 207.948 551.412 207.765 550.925 207.008L547.585 201.896C547.522 201.794 547.464 201.689 547.415 201.576C547.224 201.124 547.192 200.76 547.404 200.37C547.512 200.176 547.71 200.061 547.925 200.071C549.213 200.124 554.216 199.969 555.265 194.694C555.341 194.294 555.477 193.893 555.697 193.545C555.93 193.152 556.268 192.762 556.668 192.749C560.391 192.616 564.548 192.477 568.142 191.236C568.59 191.084 569.092 191.084 569.53 191.283C569.815 191.419 570.066 191.618 570.26 191.875Z" fill="#021B79"/>
<path d="M570.257 191.875C570.762 192.55 570.767 193.472 570.251 194.145C570.178 194.247 570.097 194.351 570.011 194.451C569.505 195.058 568.916 195.603 568.286 196.077L553.168 207.409C552.451 207.948 551.409 207.765 550.922 207.008C558.71 201.44 568.602 194.21 570.257 191.875Z" fill="#111111"/>
<path d="M522.867 136.925L553.136 189.074L543.375 197.42L509.351 151.127C508.577 149.941 507.482 148.996 506.197 148.402L473.498 132.051L453.271 189.721C452.504 191.31 450.962 192.383 449.203 192.548L399.97 197.742L399.156 184.124L437.211 176.415C438.614 176.187 439.724 175.106 439.986 173.708L447.069 136.132C447.069 136.132 443.336 119.289 448.747 112.038L481.373 109.159L487.564 114.125L519.689 133.669C521.006 134.47 522.097 135.59 522.867 136.925Z" fill="#021B79"/>
<path d="M553.348 34.3662C553.307 34.7039 553.1 34.9918 552.809 35.1411L552.438 33.2249C553 33.272 553.427 33.7798 553.348 34.3662Z" fill="#96C2EF"/>
<path d="M556.137 31.5835C555.763 31.7117 555.312 31.8086 554.776 31.8583C554.181 31.9185 553.582 31.9028 552.988 31.8505C552.778 31.8322 552.493 31.8138 552.166 31.8321C551.467 31.8636 550.574 32.0363 549.77 32.5887C549.414 32.8347 549.072 33.1515 548.773 33.5703L549.938 33.4526L550.341 35.5258C547.925 35.8923 544.566 36.5782 542.522 37.7195L541.336 31.3845C541.336 31.3845 544.812 28.7144 548.734 27.2484C549.527 26.9526 550.336 26.7013 551.137 26.5416C553.223 26.1018 555.265 26.217 556.815 27.45C558.297 28.6227 557.927 30.9892 556.137 31.5835Z" fill="#96C2EF"/>
<path d="M475.894 39.7508L469.85 43.4209L461.895 38.3372L460.879 28.7116L458.625 22.6777L462.057 15.1228L474.688 27.4918L475.154 31.6776L475.256 32.6305L475.342 33.4211L475.384 33.798L475.627 35.3582L475.894 39.7508Z" fill="#96C2EF"/>
<path d="M461.939 111.274C461.939 111.274 470.91 118.174 486.198 108.7L477.219 41.8896L473.326 40.7534L471.279 40.8241L464.929 43.1068L457.125 94.1639L461.939 111.274Z" fill="white"/>
<path d="M464.932 43.1044L468.01 101.421C468.424 108.318 465.081 115.038 459.081 118.473C454.825 120.91 452.416 121.85 443.977 119.352C443.977 119.352 445.249 86.1432 445.016 77.6459C444.974 76.1512 444.958 74.6538 444.958 73.1748C444.961 73.0858 444.956 72.9889 444.956 72.8842C444.956 71.5151 444.979 70.1617 445.026 68.8057C445.037 68.4261 445.047 68.057 445.063 67.6774C445.168 64.3214 445.395 60.9681 445.725 57.6225C446.105 53.7351 447.301 49.9368 449.037 46.3792C450.772 42.8295 455.571 39.8714 458.139 36.9316L464.932 43.1044Z" fill="#0575E6"/>
<path d="M514.787 47.4262L484.253 49.2534L475.633 35.353L513.292 36.3137L542.823 29.2327L543.425 39.298L514.787 47.4262Z" fill="#0575E6"/>
<path d="M484.262 49.2533L491 116.13C491 116.13 490.825 116.208 490.51 116.313C485.775 117.897 480.864 114.384 480.673 109.394L478.982 65.5176C478.678 57.6145 477.16 49.8057 474.484 42.366L475.644 35.3503L484.262 49.2533Z" fill="#0575E6"/>
<path d="M458.133 36.9263L469.858 47.4681L471.285 40.8242L461.46 34.1646L458.133 36.9263Z" fill="#F2F2F2"/>
<path d="M475.634 35.353L473.328 40.7535L478.592 43.4367L475.634 35.353Z" fill="#F2F2F2"/>
<path d="M471.285 40.8241L470.469 44.6251L474.364 45.6644L476.95 42.5963L473.333 40.7534L471.285 40.8241Z" fill="#0036FF"/>
<path d="M473.767 44.5152C473.767 44.5152 476.267 65.0961 473.756 82.0829L469.586 106.465L474.06 113.452L477.79 108.025C480.973 86.1247 480.507 64.3187 476.955 42.5938L473.484 43.2011L473.767 44.5152Z" fill="#0036FF"/>
<path d="M450.126 62.5779L444.956 73.1747C444.958 73.0857 444.953 72.9888 444.953 72.8841C444.953 71.515 444.977 70.1616 445.024 68.8056C445.034 68.426 445.045 68.0569 445.06 67.6773L450.126 62.5779Z" fill="#0050A0"/>
<path d="M421.814 101.326C420.371 104.075 419.806 109.174 419.646 111.112C419.646 111.13 419.641 111.159 419.633 111.177C419.227 110.824 418.733 110.57 418.175 110.439L417.699 110.321L417.911 107.554C416.979 108.261 416.568 109.177 416.395 110.004C416.28 110.543 416.282 111.049 416.306 111.423L411.07 110.148C411.144 109.693 411.254 109.237 411.382 108.779C412.557 104.486 415.583 100.321 415.583 100.321L421.814 101.326Z" fill="#96C2EF"/>
<path d="M458.134 36.9263C447.192 44.4 435.844 56.3031 426.878 70.316C416.166 87.0567 413.289 100.842 413.289 100.842L423.559 104.164L434.841 79.4442L460.192 50.2534C461.241 49.0518 461.969 47.5623 462.066 45.9681C462.218 43.4786 461.095 40.9864 458.917 39.476L458.401 39.1173" fill="#0575E6"/>
<path d="M475.342 33.421C470.85 33.4394 469.602 31.5676 469.602 31.5676C471.84 32.2718 474.761 31.7483 475.156 31.6776L475.259 32.6305L475.342 33.421Z" fill="#85B2E0"/>
<path d="M475.61 8.20409C475.61 8.20409 486.27 27.5207 474.838 31.8164C472.089 32.8505 469.568 32.2405 468.089 29.9761C466.979 28.2772 465.971 25.6673 465.848 21.738L464.477 13.1857L471.016 6.46851L475.61 8.20409Z" fill="#96C2EF"/>
<path d="M461.017 26.0888C461.311 27.2039 461.292 28.3793 460.965 29.484C457.47 24.4788 454.25 19.2904 452.761 13.5522C452.596 12.9135 452.339 11.8926 452.4 11.2355C452.512 10.0156 453.13 8.56011 455.413 8.43184L454.038 7.55751L455.719 7.43711L454.559 5.84548L456.256 6.85332L456.638 4.86643L457.266 6.76956C457.316 6.46328 459.271 2.45023 470.711 1.33506L470.646 2.17275C472.583 1.58637 474.339 0.861248 475.91 0C475.91 0 479.368 9.29833 472.049 10.0706C470.376 10.246 468.999 11.5941 469.083 13.2747C469.091 13.4292 469.106 13.5889 469.132 13.7538C469.224 14.3637 469.235 14.9815 469.091 15.581C468.873 16.4737 468.426 17.7197 467.517 18.6202L468.07 21.3218L465.826 21.7432C465.826 21.7432 464.957 18.026 461.75 18.7276C461.75 18.7276 459.07 19.1804 460.321 23.4396L461.017 26.0888Z" fill="#021B79"/>
<path d="M419.625 111.177C419.56 111.604 419.23 111.933 418.793 112.007C418.157 112.109 417.602 111.583 417.646 110.947L417.691 110.321L416.387 110.004L411.377 108.782L408.741 108.14C406.793 107.669 404.827 108.86 404.356 110.808L403.547 114.151L420.023 118.158L420.832 114.823C421.175 113.433 420.659 112.033 419.625 111.177ZM419.476 114.491L418.989 116.465L405.241 113.111L405.728 111.135C406.013 109.944 407.22 109.211 408.411 109.507L411.065 110.145L416.301 111.42L417.837 111.797C419.028 112.096 419.761 113.3 419.476 114.491Z" fill="#132360"/>
<path d="M419.63 111.177C419.565 111.604 419.235 111.933 418.798 112.007C418.161 112.109 417.606 111.583 417.651 110.946L417.695 110.321L418.172 110.439C418.732 110.57 419.224 110.826 419.63 111.177Z" fill="#96C2EF"/>
<path d="M422.193 147.36L388.11 139.056C387.11 138.813 386.497 137.805 386.741 136.808L390.442 121.611L428.144 130.797L424.442 145.993C424.199 146.991 423.191 147.603 422.193 147.36Z" fill="#132360"/>
<path d="M423.134 135.093L392.992 127.75C390.181 127.064 388.458 124.232 389.142 121.42L391.38 112.229C391.72 110.831 393.131 109.973 394.529 110.313L429.783 118.902C431.181 119.242 432.039 120.653 431.699 122.051L429.461 131.242C428.777 134.054 425.945 135.779 423.134 135.093Z" fill="#243575"/>
<path d="M398.524 111.282L391.555 139.89L395.461 140.841L402.431 112.233L398.524 111.282Z" fill="#1E4CF7"/>
<path d="M421.931 116.978L414.961 145.586L418.868 146.538L425.837 117.93L421.931 116.978Z" fill="#1E4CF7"/>
<path d="M419.73 134.384C419.403 134.305 419.204 133.976 419.283 133.648L419.759 131.695C419.838 131.368 420.168 131.169 420.495 131.248C420.822 131.326 421.021 131.656 420.942 131.983L420.466 133.936C420.385 134.264 420.058 134.465 419.73 134.384Z" fill="#3B63FB"/>
<path d="M421.456 137.175L416.911 136.068C416.393 135.942 416.074 135.416 416.199 134.895L417.05 131.405C417.176 130.887 417.702 130.565 418.223 130.693L422.767 131.801C423.286 131.926 423.608 132.452 423.479 132.973L422.628 136.463C422.5 136.981 421.974 137.303 421.456 137.175ZM418.04 131.437C417.93 131.41 417.817 131.479 417.791 131.589L416.94 135.078C416.914 135.188 416.982 135.3 417.092 135.327L421.636 136.434C421.746 136.46 421.859 136.392 421.885 136.282L422.736 132.793C422.762 132.683 422.694 132.57 422.584 132.544L418.04 131.437Z" fill="#3B63FB"/>
<path d="M396.34 128.685C396.013 128.606 395.814 128.276 395.892 127.949L396.369 125.996C396.447 125.669 396.777 125.47 397.104 125.549C397.431 125.627 397.63 125.957 397.552 126.284L397.075 128.237C396.994 128.564 396.667 128.763 396.34 128.685Z" fill="#3B63FB"/>
<path d="M398.066 131.475L393.521 130.368C393.003 130.242 392.681 129.716 392.809 129.195L393.66 125.706C393.786 125.187 394.312 124.865 394.833 124.994L399.377 126.101C399.896 126.226 400.215 126.753 400.089 127.274L399.239 130.763C399.11 131.281 398.584 131.601 398.066 131.475ZM394.65 125.734C394.54 125.708 394.427 125.776 394.401 125.886L393.55 129.376C393.524 129.486 393.592 129.598 393.702 129.624L398.247 130.732C398.356 130.758 398.469 130.69 398.495 130.58L399.346 127.09C399.372 126.98 399.304 126.868 399.194 126.842L394.65 125.734Z" fill="#3B63FB"/>
<path d="M416.375 113.465C416.341 113.991 416.26 114.436 416.142 114.8C415.605 116.567 413.291 116.991 412.113 115.572C410.896 114.111 410.715 112.159 411.063 110.146L416.299 111.42C416.307 111.53 416.312 111.622 416.325 111.714C416.385 112.297 416.422 112.884 416.375 113.465Z" fill="#96C2EF"/>
<path d="M552.443 33.2249L552.814 35.1411C552.725 35.1882 552.634 35.2197 552.534 35.2406C552.511 35.2458 552.485 35.2458 552.461 35.2511C551.945 35.3061 551.204 35.3977 550.348 35.5285L549.945 33.4553L552.244 33.2249C552.314 33.2145 552.377 33.2171 552.443 33.2249Z" fill="#96C2EF"/>
<path d="M772.189 233.558C772.686 241.058 769.846 247.901 765 252.746C760.518 257.228 754.333 260 747.49 260H24.7537C11.081 260 0 248.916 0 235.246C0 221.574 11.0837 210.493 24.7537 210.493H746.961C760.073 210.493 771.319 220.474 772.189 233.558Z" fill="#F2F2F2"/>
<path d="M39.6705 215.262H26.4141V255.233H39.6705V215.262Z" fill="#0575E6"/>
<path d="M63.9752 215.262H50.7188V255.233H63.9752V215.262Z" fill="#0575E6"/>
<path d="M88.2799 215.262H75.0234V255.233H88.2799V215.262Z" fill="#0575E6"/>
<path d="M112.585 215.262H99.3281V255.233H112.585V215.262Z" fill="#0575E6"/>
<path d="M136.881 215.262H123.625V255.233H136.881V215.262Z" fill="#0575E6"/>
<path d="M161.186 215.262H147.93V255.233H161.186V215.262Z" fill="#0575E6"/>
<path d="M185.491 215.262H172.234V255.233H185.491V215.262Z" fill="#0575E6"/>
<path d="M209.795 215.262H196.539V255.233H209.795V215.262Z" fill="#0575E6"/>
<path d="M234.1 215.262H220.844V255.233H234.1V215.262Z" fill="#0575E6"/>
<path d="M258.405 215.262H245.148V255.233H258.405V215.262Z" fill="#0575E6"/>
<path d="M282.702 215.262H269.445V255.233H282.702V215.262Z" fill="#0575E6"/>
<path d="M307.006 215.262H293.75V255.233H307.006V215.262Z" fill="#0575E6"/>
<path d="M331.311 215.262H318.055V255.233H331.311V215.262Z" fill="#0575E6"/>
<path d="M355.616 215.262H342.359V255.233H355.616V215.262Z" fill="#0575E6"/>
<path d="M379.92 215.262H366.664V255.233H379.92V215.262Z" fill="#0575E6"/>
</svg>
