<svg width="325" height="260" viewBox="0 0 325 260" fill="none" xmlns="http://www.w3.org/2000/svg">
<path d="M164.752 77.7518L6.07078 96.3764L0 30.5084L159.411 19.8164L164.752 77.7518Z" fill="#3D9EFF"/>
<path d="M28.981 49.174L32.5098 54.925C32.8669 55.5077 33.487 55.8762 34.1704 55.9119L40.9083 56.2658C42.6256 56.355 43.4941 58.3759 42.3789 59.6842L37.9995 64.8168C37.5564 65.3362 37.3973 66.0407 37.5742 66.6997L39.3208 73.2169C39.7656 74.8774 38.1131 76.3286 36.524 75.6712L30.2893 73.0935C29.6579 72.8322 28.9388 72.8987 28.3658 73.2704L22.7073 76.9454C21.2643 77.882 19.3749 76.7587 19.508 75.043L20.0339 68.3164C20.0875 67.6363 19.8018 66.9724 19.271 66.5423L14.0281 62.296C12.6922 61.2133 13.1759 59.069 14.8478 58.6665L21.4071 57.0871C22.071 56.928 22.6132 56.4508 22.8583 55.8129L25.2769 49.5132C25.8904 47.9095 28.0817 47.7082 28.981 49.174ZM65.1898 44.8206L68.7186 50.5716C69.0757 51.1543 69.6958 51.5228 70.3792 51.5585L77.1171 51.9123C78.8344 52.0016 79.7028 54.0225 78.5877 55.3308L74.2083 60.4634C73.7652 60.9828 73.6061 61.6873 73.783 62.3463L75.5296 68.8634C75.9743 70.524 74.3219 71.9751 72.7328 71.3177L66.4981 68.7401C65.8667 68.4788 65.1476 68.5453 64.5746 68.917L58.9161 72.5919C57.4731 73.5285 55.5837 72.4053 55.7168 70.6895L56.2427 63.963C56.2962 63.2829 56.0106 62.619 55.4798 62.1888L50.2368 57.9425C48.9009 56.8599 49.3847 54.7156 51.0566 54.3131L57.6159 52.7337C58.2798 52.5746 58.822 52.0974 59.0671 51.4595L61.4856 45.1598C62.1008 43.5577 64.2905 43.3548 65.1898 44.8206ZM101.399 40.4688L104.927 46.2198C105.285 46.8025 105.905 47.171 106.588 47.2067L113.326 47.5605C115.043 47.6498 115.912 49.6707 114.796 50.979L110.417 56.1116C109.974 56.631 109.815 57.3355 109.992 57.9945L111.738 64.5116C112.183 66.1722 110.531 67.6233 108.942 66.9659L102.707 64.3883C102.075 64.1269 101.356 64.1935 100.783 64.5652L95.1233 68.2401C93.6802 69.1767 91.7908 68.0535 91.9239 66.3377L92.4499 59.6112C92.5034 58.9311 92.2177 58.2672 91.687 57.837L86.444 53.5907C85.1081 52.5081 85.5918 50.3638 87.2637 49.9613L93.8231 48.3819C94.487 48.2228 95.0291 47.7456 95.2742 47.1077L97.6928 40.808C98.3096 39.2043 100.499 39.003 101.399 40.4688ZM137.607 36.1153L141.136 41.8663C141.493 42.4491 142.113 42.8175 142.797 42.8532L149.535 43.2071C151.252 43.2964 152.12 45.3173 151.005 46.6256L146.626 51.7581C146.183 52.2776 146.024 52.982 146.201 53.6411L147.947 60.1582C148.392 61.8187 146.739 63.2699 145.15 62.6125L138.916 60.0349C138.284 59.7735 137.565 59.8401 136.992 60.2118L131.334 63.8867C129.891 64.8233 128.001 63.7 128.134 61.9843L128.66 55.2578C128.714 54.5776 128.428 53.9137 127.897 53.4836L122.654 49.2373C121.319 48.1546 121.802 46.0104 123.474 45.6078L130.033 44.0284C130.697 43.8694 131.24 43.3921 131.485 42.7542L133.903 36.4546C134.518 34.8509 136.708 34.6496 137.607 36.1153Z" fill="white"/>
<path d="M283.196 129.402V213.861C283.196 228.51 271.321 240.384 256.673 240.384H253.85C251.151 240.384 248.564 241.455 246.655 243.364L233.595 256.424C229.621 260.398 223.18 260.398 219.206 256.426L206.14 243.364C204.231 241.457 201.643 240.385 198.946 240.385H87.2969C72.6442 240.385 60.7656 228.507 60.7656 213.854V122.714C60.7656 111.761 69.6478 102.879 80.6093 102.879H256.673C271.321 102.877 283.196 114.753 283.196 129.402Z" fill="#E6F1FC"/>
<path d="M226.401 259.994C223.643 259.994 220.885 258.945 218.786 256.845L205.72 243.783C203.91 241.974 201.504 240.978 198.946 240.978H87.2972C72.3394 240.978 60.1719 228.809 60.1719 213.852V122.713C60.1719 111.448 69.3397 102.283 80.6096 102.283H256.674C271.627 102.283 283.792 114.447 283.792 129.402V213.861C283.792 228.815 271.627 240.979 256.674 240.979H253.851C251.291 240.979 248.885 241.976 247.077 243.786L234.017 256.846C231.916 258.945 229.159 259.994 226.401 259.994ZM80.6096 103.473C69.9955 103.473 61.3617 112.104 61.3617 122.713V213.852C61.3617 228.154 72.9968 239.788 87.2972 239.788H198.946C201.822 239.788 204.527 240.908 206.56 242.94L219.627 256.002C223.362 259.736 229.439 259.736 233.174 256.002L246.235 242.942C248.269 240.908 250.973 239.788 253.851 239.788H256.674C270.971 239.788 282.603 228.156 282.603 213.859V129.4C282.603 115.103 270.971 103.473 256.674 103.473H80.6096Z" fill="#021B79"/>
<path d="M316.031 260H21.4942C21.1646 260 20.8984 259.734 20.8984 259.404C20.8984 259.075 21.1646 258.809 21.4942 258.809H316.031C316.36 258.809 316.627 259.075 316.627 259.404C316.627 259.734 316.36 260 316.031 260Z" fill="#021B79"/>
<path d="M281.096 109.515C280.739 110.554 280.151 111.633 279.263 112.768C276.637 116.092 271.988 125.694 270.497 128.518L243.535 185.718C239.75 193.93 231.244 198.842 222.335 198.119C221.867 198.087 221.382 198.032 220.914 197.96C213.011 196.793 206.403 191.32 203.783 183.765L193 147.117L220.612 137.921L227.967 154.528L248.208 113.07L267.481 77.5235C268.362 76.0237 270.011 75.2948 271.623 75.4929C272.298 75.5724 272.948 75.8256 273.551 76.2379C275.09 77.3482 275.71 79.3317 275.059 81.1091L270.282 94.2327C270.282 94.2327 273.996 94.3285 274.876 97.747C274.876 97.747 274.9 97.7389 274.964 97.7389C275.464 97.6837 278.114 97.6122 279.153 101.571C279.994 101.683 282.706 105.009 281.096 109.515Z" fill="white"/>
<path d="M224.052 198.785C223.466 198.785 222.879 198.761 222.288 198.714C221.827 198.683 221.333 198.628 220.825 198.55C212.67 197.347 205.924 191.757 203.222 183.962L192.431 147.286C192.34 146.977 192.51 146.654 192.814 146.552L220.426 137.357C220.717 137.263 221.035 137.401 221.158 137.681L227.995 153.118L247.675 112.809L266.958 77.2398C267.934 75.5776 269.791 74.6653 271.697 74.9023C272.461 74.9916 273.198 75.2757 273.888 75.7464C275.647 77.0174 276.355 79.3028 275.618 81.314L271.101 93.7283C272.536 93.9977 274.524 94.9181 275.311 97.1337C276.225 97.1548 278.595 97.5752 279.647 101.124C280.184 101.409 280.717 102.055 281.08 102.651C281.668 103.615 282.903 106.23 281.66 109.714C281.262 110.871 280.632 111.989 279.735 113.135C277.66 115.762 274.264 122.444 272.234 126.437C271.736 127.419 271.318 128.239 271.025 128.796L244.076 185.97C240.469 193.797 232.571 198.785 224.052 198.785ZM193.736 147.5L204.356 183.598C206.903 190.945 213.286 196.234 221.002 197.371C221.48 197.444 221.941 197.496 222.376 197.526C231.066 198.225 239.348 193.385 242.995 185.468L269.958 128.265C270.262 127.687 270.676 126.874 271.171 125.898C273.219 121.866 276.649 115.117 278.796 112.398C279.611 111.359 280.179 110.351 280.533 109.321C280.533 109.319 280.535 109.316 280.535 109.314C281.463 106.717 280.796 104.701 280.316 103.73C279.796 102.683 279.199 102.205 279.051 102.158C278.811 102.125 278.637 101.956 278.576 101.723C277.655 98.2197 275.458 98.2846 275.027 98.33C274.958 98.3365 274.998 98.3317 275.06 98.3122C274.904 98.3609 274.734 98.3463 274.589 98.2683C274.445 98.1888 274.339 98.0541 274.299 97.895C273.539 94.944 270.299 94.8272 270.265 94.8272C270.073 94.8223 269.896 94.7249 269.788 94.5674C269.681 94.41 269.655 94.2087 269.719 94.0285L274.497 80.9049C275.05 79.3905 274.518 77.6699 273.2 76.7187C272.683 76.3665 272.125 76.149 271.55 76.0824C270.114 75.9071 268.716 76.5905 267.991 77.8241L248.728 113.353L228.5 154.788C228.398 154.996 228.177 155.132 227.954 155.123C227.722 155.118 227.515 154.98 227.422 154.769L220.286 138.657L193.736 147.5Z" fill="#021B79"/>
<path d="M270.326 110.72C270.326 110.72 269.331 118.687 275.961 114.34C275.961 114.34 278.019 113.184 281.106 109.516C282.703 105.01 280.001 101.674 279.152 101.568L270.326 110.72Z" fill="white"/>
<path d="M272.657 116.231C272.135 116.231 271.667 116.104 271.26 115.851C269.299 114.629 269.685 111.05 269.736 110.645C269.752 110.517 269.809 110.399 269.898 110.306L278.723 101.155C278.853 101.02 279.04 100.953 279.225 100.978C279.885 101.06 280.606 101.877 281.062 102.614C281.658 103.58 282.911 106.204 281.666 109.714C281.642 109.782 281.606 109.844 281.561 109.899C278.439 113.606 276.339 114.809 276.251 114.858C274.863 115.77 273.656 116.231 272.657 116.231ZM270.896 110.985C270.807 111.994 270.841 114.189 271.89 114.841C272.635 115.304 273.93 114.96 275.633 113.841C275.685 113.809 277.657 112.666 280.579 109.215C281.454 106.649 280.786 104.662 280.304 103.701C279.934 102.961 279.527 102.512 279.272 102.299L270.896 110.985Z" fill="#021B79"/>
<path d="M265.254 107.071C265.288 107.063 265.32 107.06 265.348 107.05C268.586 106.289 274.873 97.7441 274.873 97.7441C273.996 94.3223 270.277 94.2266 270.277 94.2266L262.661 102.365C260.795 104.355 262.577 107.634 265.254 107.071Z" fill="white"/>
<path d="M264.665 107.729C263.468 107.729 262.374 107.094 261.756 105.997C261.001 104.656 261.189 103.072 262.233 101.958L269.847 93.8211C269.964 93.6977 270.128 93.6377 270.297 93.6328C271.738 93.6701 274.672 94.5467 275.454 97.5983C275.498 97.7704 275.462 97.9554 275.357 98.0982C274.699 98.991 268.843 106.841 265.489 107.631C265.479 107.633 265.414 107.648 265.405 107.649L265.259 107.071L265.382 107.654C265.14 107.704 264.9 107.729 264.665 107.729ZM270.521 94.8437L263.101 102.773C262.274 103.654 262.418 104.747 262.793 105.414C263.174 106.091 263.991 106.732 265.135 106.49C265.156 106.485 265.184 106.479 265.194 106.477C267.615 105.907 272.368 100.108 274.224 97.6275C273.495 95.3761 271.282 94.9298 270.521 94.8437Z" fill="#021B79"/>
<path d="M267.591 110.707C271.589 112.824 279.147 101.569 279.147 101.569C278.115 97.6112 275.461 97.681 274.957 97.7362C274.957 97.7362 263.627 108.61 267.591 110.707Z" fill="white"/>
<path d="M268.681 111.564C268.206 111.564 267.749 111.462 267.321 111.235C266.68 110.894 266.289 110.34 266.188 109.631C265.673 105.95 273.642 98.181 274.552 97.3077C274.646 97.2168 274.768 97.16 274.898 97.1454C275.267 97.0984 278.545 96.876 279.729 101.419C279.773 101.585 279.742 101.76 279.648 101.901C278.924 102.979 273.022 111.564 268.681 111.564ZM267.878 110.181C270.399 111.524 275.663 105.632 278.508 101.462C277.659 98.5674 275.877 98.2703 275.221 98.3158C272.77 100.695 267.009 106.909 267.366 109.466C267.413 109.798 267.571 110.019 267.878 110.181Z" fill="#021B79"/>
<path d="M248.211 113.067L248.537 98.2671C248.748 95.3048 251.263 93.0404 254.231 93.1378L264.024 93.4608C265.027 93.4933 265.769 94.4088 265.592 95.3957C265.165 97.8013 263.149 99.603 260.711 99.7572L255.868 100.064L256.973 102.647C259.202 105.081 259.138 107.594 258.03 111.113" fill="white"/>
<path d="M248.211 113.664C248.207 113.664 248.203 113.664 248.198 113.664C247.871 113.656 247.609 113.385 247.617 113.055L247.944 98.2548C248.181 94.9321 250.947 92.4292 254.251 92.5428L264.044 92.8674C264.695 92.8885 265.302 93.1904 265.713 93.6969C266.124 94.2033 266.294 94.8607 266.18 95.5019C265.703 98.1867 263.471 100.18 260.751 100.352L256.75 100.607L257.483 102.323C259.9 105.022 259.679 107.864 258.6 111.292C258.501 111.606 258.167 111.781 257.853 111.682C257.54 111.583 257.366 111.249 257.464 110.935C258.652 107.161 258.41 105.098 256.535 103.05C256.49 103.001 256.454 102.944 256.426 102.883L255.321 100.3C255.245 100.123 255.259 99.9186 255.362 99.7547C255.462 99.5891 255.638 99.4836 255.831 99.4722L260.673 99.1655C262.845 99.0275 264.625 97.4368 265.007 95.2941C265.06 94.9922 264.981 94.6838 264.788 94.4452C264.594 94.2082 264.31 94.067 264.005 94.0572L254.212 93.7326C251.563 93.6466 249.322 95.6545 249.132 98.31L248.807 113.081C248.799 113.406 248.534 113.664 248.211 113.664Z" fill="#021B79"/>
<path d="M174.711 107.912L200.731 112.462C206.945 113.575 212.437 115.71 215.044 121.214L226.863 141.59L193.092 165.328L174.711 107.912Z" fill="#0575E6"/>
<path d="M193.096 165.922C193.034 165.922 192.974 165.913 192.914 165.893C192.737 165.836 192.596 165.7 192.534 165.525L178.526 125.68C178.417 125.37 178.58 125.029 178.89 124.92C179.2 124.815 179.539 124.975 179.648 125.284L193.395 164.387L226.076 141.415L214.532 121.51C214.366 121.226 214.464 120.861 214.748 120.697C215.032 120.53 215.397 120.629 215.561 120.913L227.38 141.29C227.534 141.556 227.459 141.897 227.207 142.076L193.437 165.812C193.336 165.885 193.216 165.922 193.096 165.922Z" fill="#021B79"/>
<path d="M225.821 160.489C225.748 160.489 225.673 160.477 225.6 160.447C225.295 160.326 225.147 159.98 225.269 159.675L227.326 154.531C227.448 154.226 227.795 154.076 228.098 154.2C228.404 154.321 228.551 154.667 228.43 154.972L226.373 160.116C226.28 160.348 226.058 160.489 225.821 160.489Z" fill="#021B79"/>
<path d="M117.469 240.32L120.011 210.799H192.6L190.357 240.32H117.469Z" fill="#021B79"/>
<path d="M123.103 113.641L117.812 216.764H193.441L198.617 116.228C198.617 116.228 185.205 109.222 170.029 107.677C149.634 105.599 123.103 113.641 123.103 113.641Z" fill="#0575E6"/>
<path d="M193.44 217.359C193.43 217.359 193.421 217.359 193.409 217.359C193.081 217.343 192.828 217.064 192.844 216.736L197.139 130.341C197.156 130.013 197.437 129.761 197.763 129.776C198.091 129.792 198.344 130.071 198.328 130.399L194.033 216.794C194.02 217.112 193.757 217.359 193.44 217.359Z" fill="#021B79"/>
<path d="M114.153 240.321H87.8113L83.9805 176.382C83.7533 172.59 84.6298 168.814 86.5046 165.509L107.663 132.941L133.717 153.384L115.448 179.703L114.153 240.321Z" fill="white"/>
<path d="M114.154 240.915H87.8131C87.4982 240.915 87.2385 240.67 87.219 240.355L83.3883 176.416C83.1529 172.499 84.0522 168.626 85.9887 165.214L107.167 132.617C107.257 132.477 107.404 132.381 107.568 132.354C107.733 132.326 107.902 132.37 108.032 132.474L134.086 152.918C134.334 153.113 134.388 153.467 134.208 153.725L116.041 179.896L114.749 240.334C114.742 240.655 114.477 240.915 114.154 240.915ZM88.3731 239.725H113.57L114.854 179.69C114.857 179.573 114.893 179.459 114.96 179.363L132.909 153.507L107.809 133.813L87.0048 165.834C85.2014 169.015 84.3557 172.661 84.5765 176.346L88.3731 239.725Z" fill="#021B79"/>
<path d="M129.664 112.219L122.852 113.482C119.216 114.155 116.039 116.343 114.112 119.5L98.5703 140.117L128.712 165.833L148.294 140.568L129.664 112.219Z" fill="#0575E6"/>
<path d="M128.712 166.428C128.571 166.428 128.435 166.377 128.326 166.285L98.1849 140.568C97.9463 140.364 97.9073 140.008 98.0956 139.758L113.639 119.142C113.837 118.879 114.211 118.826 114.472 119.025C114.735 119.223 114.787 119.597 114.589 119.858L99.3828 140.026L128.623 164.973L141.265 148.663C141.466 148.402 141.839 148.355 142.099 148.558C142.359 148.759 142.406 149.132 142.205 149.392L129.18 166.195C129.081 166.324 128.932 166.406 128.771 166.423C128.753 166.426 128.734 166.428 128.712 166.428Z" fill="#021B79"/>
<path d="M115.451 180.298C115.139 180.298 114.876 180.054 114.857 179.738L114.407 172.287C114.388 171.959 114.638 171.677 114.966 171.657C115.297 171.638 115.576 171.888 115.596 172.216L116.045 179.666C116.065 179.994 115.815 180.277 115.487 180.296C115.475 180.298 115.462 180.298 115.451 180.298Z" fill="#021B79"/>
<path d="M176.315 107.963L175.245 92.3222L154.689 87.6133L153.906 107.84C153.906 107.84 161.337 126.637 170.859 126.046C178.516 125.572 176.315 107.963 176.315 107.963Z" fill="white"/>
<path d="M170.418 126.657C160.817 126.657 153.659 108.831 153.354 108.06C153.323 107.984 153.31 107.901 153.313 107.818L154.095 87.5917C154.102 87.4148 154.188 87.2493 154.327 87.1421C154.469 87.035 154.649 86.9944 154.823 87.035L175.379 91.7439C175.635 91.8023 175.822 92.0215 175.84 92.2844L176.908 107.909C176.994 108.607 178.344 120.152 174.533 124.748C173.564 125.917 172.342 126.555 170.897 126.644C170.736 126.652 170.577 126.657 170.418 126.657ZM154.508 107.737C155.146 109.289 162.216 125.989 170.824 125.455C171.942 125.386 172.856 124.906 173.618 123.989C177.138 119.744 175.741 108.156 175.726 108.039C175.725 108.028 175.723 108.018 175.723 108.005L174.684 92.8055L155.258 88.3563L154.508 107.737Z" fill="#021B79"/>
<path d="M154.498 90.8981C143.78 79.3182 146.194 60.3868 146.194 60.3868L178.32 46.9629C178.917 47.4515 187.438 59.2863 189.512 79.1185C191.221 95.4577 179.158 102.679 162.403 96.5209" fill="white"/>
<path d="M173.535 99.3167C170.082 99.3167 166.26 98.5733 162.197 97.08C161.889 96.9663 161.731 96.6238 161.843 96.3154C161.957 96.007 162.298 95.8512 162.608 95.9616C171.152 99.1025 178.817 98.7519 183.636 95.0023C187.834 91.7347 189.662 86.2645 188.92 79.1809C186.972 60.5644 179.482 49.5185 178.137 47.6843L146.749 60.7997C146.499 63.3823 145.311 80.0948 154.935 90.493C155.157 90.7348 155.144 91.1114 154.902 91.3338C154.66 91.5562 154.284 91.5416 154.061 91.3014C143.28 79.6516 145.58 60.5027 145.605 60.3112C145.632 60.1001 145.768 59.9183 145.965 59.8372L178.09 46.4133C178.293 46.3289 178.526 46.3614 178.697 46.5026C179.588 47.233 188.025 59.196 190.103 79.0559C190.877 86.4626 188.84 92.4587 184.367 95.9405C181.482 98.187 177.789 99.3167 173.535 99.3167Z" fill="#021B79"/>
<path d="M184.164 71.2121C184.937 70.9619 185.261 69.8251 184.888 68.6728C184.515 67.5205 183.586 66.7892 182.813 67.0393C182.04 67.2894 181.716 68.4263 182.089 69.5786C182.462 70.7308 183.391 71.4622 184.164 71.2121Z" fill="#021B79"/>
<path d="M184.328 64.667C182.828 64.2304 181.153 64.8229 180.078 66.1734L184.328 64.667Z" fill="white"/>
<path d="M180.079 66.7676C179.949 66.7676 179.818 66.7254 179.709 66.6377C179.453 66.4332 179.41 66.0583 179.615 65.8002C180.844 64.2581 182.761 63.5861 184.496 64.0942C184.811 64.1851 184.993 64.5162 184.9 64.8311C184.808 65.146 184.48 65.3294 184.163 65.2353C182.892 64.8652 181.472 65.3781 180.545 66.5403C180.428 66.6913 180.254 66.7676 180.079 66.7676ZM146.115 77.4466L153.91 73.3935C153.91 73.3935 154.075 74.8284 156.296 73.0754C156.296 73.0754 162.789 63.4222 158.226 59.5541C164.23 60.3673 170.187 59.8657 175.747 57.4585C176.308 57.2134 176.87 56.9488 177.386 56.6193C178.927 58.0477 181.207 58.7555 183.35 59.033C186.9 59.4956 188.075 60.3348 191.11 58.4373C194.139 56.5463 195.271 52.933 195.501 49.3652C195.641 47.2112 194.094 39.6147 186.432 43.1971C186.333 41.418 186.234 39.6195 185.718 37.9135C185.202 36.2076 184.223 34.5811 182.717 33.6283C181.209 32.6755 179.126 32.5375 177.685 33.5747C176.005 34.7921 175.49 37.2448 173.671 38.2301C172.137 39.0628 170.246 38.5417 168.587 37.998C165.016 36.8276 161.32 36.1994 157.565 36.3325C145.958 36.7432 148.6 49.7159 149.552 51.2482C149.558 51.2546 149.558 51.2611 149.565 51.2676C149.631 51.4462 149.711 51.6247 149.797 51.7968C148.798 51.5858 142.736 50.6524 138.827 57.6079C134.565 65.2223 146.115 77.4466 146.115 77.4466Z" fill="#021B79"/>
<path d="M171.196 76.8743C171.998 76.7483 172.496 75.6763 172.308 74.4798C172.12 73.2833 171.318 72.4155 170.515 72.5415C169.713 72.6674 169.215 73.7395 169.403 74.9359C169.59 76.1324 170.393 77.0002 171.196 76.8743Z" fill="#021B79"/>
<path d="M171.84 70.2615C170.355 69.7794 168.662 70.3216 167.547 71.6364L171.84 70.2615Z" fill="white"/>
<path d="M167.547 72.232C167.411 72.232 167.275 72.1849 167.163 72.0908C166.913 71.8781 166.882 71.5032 167.095 71.2516C168.37 69.7469 170.305 69.1349 172.026 69.6949C172.339 69.7972 172.51 70.1316 172.407 70.4448C172.305 70.7581 171.969 70.9285 171.657 70.8263C170.398 70.4205 168.963 70.8863 168.002 72.021C167.883 72.1606 167.716 72.232 167.547 72.232Z" fill="#021B79"/>
<path d="M154.271 73.5636C154.271 73.5636 146.895 67.5026 143.262 69.2005C139.63 70.8983 142.344 84.0236 146.934 84.8303C151.525 85.637 154.948 83.5155 154.948 83.5155" fill="white"/>
<path d="M149.046 85.6119C148.345 85.6119 147.603 85.5551 146.827 85.4188C143.854 84.8961 141.709 80.1758 141.128 75.785C140.641 72.1036 141.343 69.4416 143.006 68.6641C146.934 66.8282 154.331 72.8487 154.645 73.1068C154.898 73.3145 154.935 73.6895 154.726 73.9443C154.518 74.1992 154.143 74.2349 153.888 74.0271C151.916 72.4088 146.209 68.4806 143.509 69.7435C142.376 70.2727 141.904 72.5841 142.307 75.6292C142.824 79.5476 144.735 83.8443 147.032 84.2484C151.328 85.0016 154.598 83.0343 154.63 83.0132C154.911 82.8427 155.276 82.9288 155.448 83.208C155.62 83.4871 155.534 83.854 155.255 84.0261C155.135 84.1007 152.645 85.6119 149.046 85.6119Z" fill="#021B79"/>
<path d="M178.445 73.125C179.38 74.6054 180.314 76.0841 181.249 77.5645C181.812 78.4572 182.388 79.3873 182.43 80.4116C182.472 81.4374 181.815 82.5866 180.627 82.9243" fill="white"/>
<path d="M180.627 83.5207C180.367 83.5207 180.13 83.3502 180.055 83.0889C179.966 82.774 180.148 82.4445 180.464 82.3536C181.394 82.089 181.865 81.1686 181.836 80.4366C181.8 79.5503 181.24 78.664 180.747 77.8817L177.944 73.4422C177.768 73.1646 177.851 72.7962 178.129 72.6209C178.406 72.4456 178.775 72.53 178.95 72.8059L181.753 77.2454C182.326 78.1527 182.977 79.1835 183.026 80.3879C183.074 81.602 182.323 83.0597 180.791 83.4979C180.735 83.5142 180.68 83.5207 180.627 83.5207Z" fill="#021B79"/>
<path d="M176.212 89.9904C175.49 89.9904 174.766 89.8703 174.079 89.6301C172.485 89.0701 171.148 87.877 170.411 86.3561C170.268 86.0606 170.392 85.7052 170.687 85.5607C170.982 85.4195 171.338 85.5412 171.482 85.8366C172.083 87.0768 173.174 88.0491 174.474 88.5052C175.774 88.9613 177.233 88.8834 178.478 88.2925C178.774 88.1529 179.129 88.2779 179.27 88.575C179.412 88.872 179.285 89.2259 178.988 89.3687C178.12 89.781 177.167 89.9904 176.212 89.9904Z" fill="#021B79"/>
<path d="M145.762 78.2913C145.545 78.2913 145.336 78.1712 145.23 77.965C144.67 76.8547 144.396 75.613 144.433 74.3729C144.441 74.0856 144.47 73.7512 144.618 73.4314C144.816 73.0029 145.188 72.7091 145.611 72.649C146.003 72.5922 146.335 72.7448 146.556 72.8471L149.746 74.3063C150.044 74.4427 150.176 74.7965 150.04 75.0952C149.903 75.3939 149.549 75.527 149.251 75.3874L146.059 73.9281C145.99 73.8956 145.834 73.834 145.777 73.8258C145.771 73.8291 145.727 73.8632 145.698 73.9297C145.639 74.0547 145.626 74.2333 145.621 74.407C145.589 75.4507 145.821 76.4944 146.292 77.4277C146.439 77.7215 146.322 78.0786 146.029 78.228C145.944 78.2702 145.853 78.2913 145.762 78.2913Z" fill="#021B79"/>
<path opacity="0.4" d="M134.084 141.514C133.931 141.514 133.779 141.456 133.663 141.341L129.039 136.718C128.807 136.486 128.807 136.109 129.039 135.877C129.271 135.645 129.648 135.645 129.88 135.877L134.504 140.5C134.736 140.732 134.736 141.108 134.504 141.341C134.389 141.456 134.236 141.514 134.084 141.514ZM172.133 171.149C171.981 171.149 171.828 171.091 171.713 170.975C171.481 170.743 171.481 170.367 171.713 170.135L173.937 167.911C174.169 167.679 174.545 167.679 174.778 167.911C175.01 168.143 175.01 168.519 174.778 168.752L172.554 170.975C172.437 171.091 172.286 171.149 172.133 171.149ZM164.759 176.189C164.607 176.189 164.454 176.131 164.339 176.015L159.782 171.459C159.55 171.227 159.55 170.85 159.782 170.618C160.014 170.386 160.391 170.386 160.623 170.618L165.18 175.175C165.412 175.407 165.412 175.783 165.18 176.015C165.063 176.131 164.912 176.189 164.759 176.189ZM168.085 195.137C167.932 195.137 167.78 195.078 167.665 194.963C167.433 194.731 167.433 194.354 167.665 194.122L174.182 187.603C174.414 187.371 174.79 187.371 175.023 187.603C175.255 187.836 175.255 188.212 175.023 188.444L168.505 194.963C168.39 195.078 168.238 195.137 168.085 195.137ZM133.306 183.141C133.154 183.141 133.001 183.083 132.886 182.968C132.654 182.735 132.654 182.359 132.886 182.127L135.778 179.234C136.011 179.002 136.387 179.002 136.619 179.234C136.851 179.466 136.851 179.843 136.619 180.075L133.727 182.968C133.611 183.083 133.459 183.141 133.306 183.141ZM165.684 154.589C165.532 154.589 165.379 154.531 165.264 154.415L159.659 148.811C159.427 148.578 159.427 148.202 159.659 147.97C159.891 147.738 160.268 147.738 160.5 147.97L166.105 153.575C166.337 153.807 166.337 154.183 166.105 154.415C165.989 154.531 165.837 154.589 165.684 154.589ZM188.635 133.968H182.275C181.946 133.968 181.679 133.702 181.679 133.372C181.679 133.044 181.946 132.777 182.275 132.777H188.635C188.964 132.777 189.231 133.043 189.231 133.372C189.231 133.7 188.964 133.968 188.635 133.968ZM133.675 131.199C133.522 131.199 133.37 131.14 133.254 131.025C133.022 130.793 133.022 130.416 133.254 130.184L134.548 128.891C134.78 128.658 135.157 128.658 135.389 128.891C135.621 129.123 135.621 129.499 135.389 129.731L134.095 131.025C133.98 131.14 133.827 131.199 133.675 131.199ZM115.768 145.355C115.438 145.355 115.172 145.089 115.172 144.759V139.771C115.172 139.443 115.438 139.175 115.768 139.175C116.097 139.175 116.363 139.441 116.363 139.771V144.759C116.362 145.089 116.095 145.355 115.768 145.355ZM130.292 150.953H125.844C125.515 150.953 125.249 150.687 125.249 150.357C125.249 150.03 125.515 149.762 125.844 149.762H130.292C130.622 149.762 130.888 150.028 130.888 150.357C130.886 150.687 130.62 150.953 130.292 150.953ZM122.921 130.259C122.768 130.259 122.616 130.2 122.501 130.085C122.269 129.853 122.269 129.477 122.501 129.244L125.07 126.675C125.302 126.443 125.679 126.443 125.911 126.675C126.143 126.907 126.143 127.284 125.911 127.516L123.341 130.085C123.225 130.202 123.074 130.259 122.921 130.259ZM151.34 126.837C151.011 126.837 150.744 126.571 150.744 126.241V116.139C150.744 115.811 151.011 115.543 151.34 115.543C151.67 115.543 151.936 115.809 151.936 116.139V126.241C151.934 126.571 151.668 126.837 151.34 126.837ZM154.281 138.287C154.129 138.287 153.976 138.229 153.861 138.114C153.629 137.881 153.629 137.505 153.861 137.273L159.044 132.09C159.276 131.858 159.652 131.858 159.885 132.09C160.117 132.322 160.117 132.699 159.885 132.931L154.702 138.114C154.586 138.23 154.434 138.287 154.281 138.287ZM188.05 143.77C187.882 143.77 187.714 143.699 187.598 143.561C187.385 143.311 187.416 142.936 187.666 142.722L190.917 139.958C191.167 139.745 191.544 139.776 191.756 140.026C191.969 140.276 191.938 140.651 191.688 140.865L188.437 143.629C188.323 143.725 188.187 143.77 188.05 143.77ZM186.666 163.509C186.336 163.509 186.07 163.242 186.07 162.913V153.927C186.07 153.599 186.336 153.331 186.666 153.331C186.995 153.331 187.262 153.597 187.262 153.927V162.913C187.262 163.242 186.995 163.509 186.666 163.509ZM137.653 197.875C137.501 197.875 137.348 197.817 137.233 197.701C137.001 197.469 137.001 197.093 137.233 196.861L143.534 190.559C143.766 190.327 144.143 190.327 144.375 190.559C144.607 190.791 144.607 191.168 144.375 191.4L138.074 197.701C137.957 197.817 137.804 197.875 137.653 197.875ZM184.767 203.336C184.614 203.336 184.462 203.277 184.346 203.162L182.308 201.123C182.075 200.891 182.075 200.514 182.308 200.282C182.54 200.05 182.916 200.05 183.148 200.282L185.187 202.321C185.419 202.553 185.419 202.93 185.187 203.162C185.07 203.277 184.919 203.336 184.767 203.336ZM184.88 186.587C184.728 186.587 184.575 186.529 184.46 186.414C184.228 186.182 184.228 185.805 184.46 185.573L187.231 182.802C187.463 182.57 187.839 182.57 188.072 182.802C188.304 183.034 188.304 183.411 188.072 183.643L185.301 186.414C185.185 186.53 185.033 186.587 184.88 186.587ZM158.175 210.101C158.023 210.101 157.87 210.043 157.755 209.927L149.811 201.983C149.579 201.751 149.579 201.375 149.811 201.143C150.043 200.91 150.42 200.91 150.652 201.143L158.596 209.087C158.828 209.319 158.828 209.695 158.596 209.927C158.481 210.044 158.328 210.101 158.175 210.101ZM143.985 170.001C143.833 170.001 143.68 169.943 143.565 169.828C143.333 169.596 143.333 169.219 143.565 168.987L146.612 165.942C146.844 165.71 147.22 165.71 147.453 165.942C147.685 166.174 147.685 166.55 147.453 166.783L144.406 169.829C144.289 169.943 144.138 170.001 143.985 170.001Z" fill="white"/>
<g opacity="0.4">
<path d="M203.783 140.264C203.454 140.264 203.188 139.998 203.188 139.669V133.541C203.188 133.213 203.454 132.945 203.783 132.945C204.113 132.945 204.379 133.212 204.379 133.541V139.669C204.379 139.998 204.113 140.264 203.783 140.264Z" fill="white"/>
</g>
<g opacity="0.4">
<path d="M215.42 139.446C215.304 139.446 215.186 139.412 215.084 139.342L212.649 137.672C212.378 137.485 212.31 137.115 212.495 136.844C212.68 136.573 213.051 136.505 213.322 136.69L215.756 138.36C216.027 138.547 216.097 138.917 215.91 139.186C215.795 139.355 215.61 139.446 215.42 139.446Z" fill="white"/>
</g>
<g opacity="0.4">
<path d="M205.36 147.301C205.208 147.301 205.055 147.242 204.94 147.127C204.708 146.895 204.708 146.518 204.94 146.286L206.626 144.6C206.858 144.368 207.235 144.368 207.467 144.6C207.699 144.832 207.699 145.209 207.467 145.441L205.781 147.127C205.665 147.244 205.513 147.301 205.36 147.301Z" fill="white"/>
</g>
<g opacity="0.4">
<path d="M210.378 130.695C210.225 130.695 210.073 130.636 209.957 130.521L207.393 127.956C207.161 127.724 207.161 127.348 207.393 127.115C207.625 126.883 208.002 126.883 208.234 127.115L210.798 129.68C211.03 129.912 211.03 130.289 210.798 130.521C210.681 130.636 210.529 130.695 210.378 130.695Z" fill="white"/>
</g>
<g opacity="0.4">
<path d="M192.234 120.42H186.416C186.087 120.42 185.82 120.154 185.82 119.824C185.82 119.496 186.087 119.229 186.416 119.229H192.234C192.563 119.229 192.829 119.495 192.829 119.824C192.828 120.152 192.561 120.42 192.234 120.42Z" fill="white"/>
</g>
<path d="M276.216 30.9662L281.723 42.1241C282.326 43.3431 283.488 44.1888 284.833 44.3836L297.147 46.1723C300.535 46.6642 301.888 50.8277 299.436 53.2186L290.524 61.9044C289.55 62.854 289.107 64.2207 289.336 65.5615L291.44 77.8264C292.019 81.201 288.478 83.7738 285.447 82.1815L274.434 76.3915C273.231 75.7584 271.793 75.7584 270.59 76.3915L259.576 82.1815C256.546 83.7754 253.004 81.201 253.584 77.8264L255.687 65.5615C255.918 64.2207 255.473 62.854 254.499 61.9044L245.588 53.2186C243.137 50.8293 244.489 46.6658 247.876 46.1723L260.19 44.3836C261.536 44.1888 262.698 43.3431 263.3 42.1241L268.808 30.9662C270.324 27.8967 274.701 27.8967 276.216 30.9662Z" fill="#3D9EFF"/>
<path d="M294.235 199.84C311.024 199.84 324.635 186.229 324.635 169.44C324.635 152.651 311.024 139.041 294.235 139.041C277.446 139.041 263.836 152.651 263.836 169.44C263.836 186.229 277.446 199.84 294.235 199.84Z" fill="#0575E6"/>
<path d="M284.965 196.775L273.228 199.58C271.327 200.034 269.553 198.462 269.777 196.52L271.158 184.531L284.965 196.775Z" fill="#0575E6"/>
<path d="M49.8349 186.971C64.6338 186.971 76.6307 174.974 76.6307 160.175C76.6307 145.376 64.6338 133.379 49.8349 133.379C35.036 133.379 23.0391 145.376 23.0391 160.175C23.0391 174.974 35.036 186.971 49.8349 186.971Z" fill="#021B79"/>
<path d="M70.5402 173.113L71.4135 185.755C71.5547 187.802 69.6182 189.366 67.646 188.8L55.4688 185.294L70.5402 173.113Z" fill="#021B79"/>
<path d="M284.914 163.087L289.399 162.381C293.584 161.31 293.825 158.462 293.35 154.169C293.277 153.507 293.188 152.828 293.088 152.138C292.728 149.618 296.119 148.348 297.424 150.535C297.445 150.569 297.465 150.603 297.486 150.639C299.508 154.166 299.309 161.563 299.309 161.563L309.334 159.99C311.814 159.6 313.398 162.699 311.533 164.381C311.507 164.403 311.481 164.426 311.455 164.449C311.455 164.449 313.296 164.61 313.528 166.306C313.76 168.002 312.078 168.671 312.078 168.671C312.078 168.671 314.156 168.841 314.32 170.406C314.533 172.445 311.723 172.943 311.723 172.943C311.723 172.943 314.482 172.755 314.369 175.183C314.213 178.507 305.573 179.4 300.364 179.741C295.155 180.084 286.851 179.83 286.851 179.83L284.914 163.087Z" fill="white"/>
<path d="M300.367 180.338C300.055 180.338 299.794 180.098 299.775 179.781C299.754 179.453 300.002 179.169 300.33 179.148C311.905 178.387 313.724 176.321 313.78 175.155C313.802 174.663 313.685 174.3 313.422 174.038C312.95 173.573 312.069 173.522 311.767 173.535C311.452 173.558 311.178 173.326 311.14 173.013C311.103 172.699 311.314 172.412 311.624 172.355C311.647 172.352 313.887 171.927 313.734 170.466C313.624 169.415 312.049 169.263 312.035 169.261C311.76 169.237 311.538 169.028 311.497 168.755C311.457 168.482 311.609 168.218 311.864 168.115C311.989 168.063 313.106 167.567 312.944 166.383C312.778 165.172 311.465 165.044 311.408 165.039C311.171 165.018 310.968 164.858 310.894 164.632C310.819 164.405 310.887 164.156 311.067 163.999L311.47 164.323L311.471 164.306L311.139 163.937C311.9 163.251 311.854 162.342 311.557 161.72C311.256 161.085 310.517 160.397 309.429 160.576L299.405 162.148C299.229 162.174 299.052 162.124 298.919 162.007C298.786 161.89 298.713 161.72 298.718 161.545C298.72 161.473 298.89 154.273 296.973 150.932L296.918 150.836C296.392 149.957 295.488 149.896 294.873 150.116C294.228 150.343 293.53 150.987 293.681 152.05C293.728 152.375 293.503 152.677 293.176 152.724C292.853 152.774 292.55 152.546 292.503 152.219C292.264 150.557 293.322 149.4 294.475 148.992C295.596 148.596 297.101 148.824 297.939 150.226L298.004 150.336C299.732 153.351 299.908 158.887 299.913 160.861L309.244 159.397C310.652 159.178 312.012 159.904 312.63 161.205C313.099 162.189 313.039 163.262 312.51 164.125C313.224 164.45 313.965 165.088 314.119 166.219C314.249 167.172 313.895 167.904 313.429 168.417C314.146 168.75 314.809 169.346 314.913 170.339C315.031 171.466 314.437 172.254 313.687 172.769C313.885 172.876 314.077 173.013 314.249 173.18C314.763 173.685 315.005 174.365 314.966 175.205C314.833 178.057 310.207 179.686 300.406 180.33C300.395 180.338 300.382 180.338 300.367 180.338Z" fill="#021B79"/>
<path d="M287.625 161.081L277.414 163.045L281.215 182.807L291.426 180.843L287.625 161.081Z" fill="#021B79"/>
<path d="M304.572 166.664C304.302 166.664 304.057 166.479 303.992 166.205C303.918 165.885 304.116 165.564 304.435 165.489L311.326 163.871C311.646 163.791 311.965 163.994 312.042 164.314C312.116 164.634 311.918 164.955 311.599 165.03L304.708 166.648C304.663 166.659 304.616 166.664 304.572 166.664ZM305.827 170.331C305.542 170.331 305.289 170.125 305.241 169.836C305.185 169.511 305.403 169.205 305.728 169.149L311.987 168.086C312.31 168.029 312.618 168.25 312.673 168.573C312.728 168.898 312.511 169.205 312.186 169.26L305.927 170.323C305.893 170.328 305.861 170.331 305.827 170.331ZM306.213 174.551C305.93 174.551 305.68 174.35 305.628 174.065C305.57 173.74 305.783 173.431 306.106 173.371L311.623 172.359C311.948 172.298 312.256 172.513 312.316 172.836C312.375 173.16 312.162 173.469 311.839 173.529L306.322 174.542C306.286 174.548 306.249 174.551 306.213 174.551Z" fill="#021B79"/>
<path d="M63.1178 155.141C65.2458 164.658 53.4078 174.191 53.4078 174.191C53.4078 174.191 38.635 170.609 36.507 161.092C35.4665 156.441 38.3915 151.823 43.042 150.783C44.8616 150.375 46.6812 150.578 48.2768 151.25C49.4325 149.961 50.9876 149.005 52.8072 148.598C57.4577 147.559 62.0773 150.489 63.1178 155.141Z" fill="white"/>
<path d="M103.828 81.6628L129.223 97.7958L130.382 74.4688" fill="#3D9EFF"/>
<path d="M297.886 32.0877C300.93 28.4197 302.24 24.4856 300.812 23.3005C299.384 22.1154 295.759 24.1281 292.715 27.7961C289.671 31.464 288.361 35.3982 289.789 36.5833C291.217 37.7684 294.842 35.7556 297.886 32.0877Z" fill="#021B79"/>
<path d="M284.759 29.7847C284.34 31.9696 283.202 33.6691 282.218 33.5765C281.233 33.484 280.775 31.6384 281.194 29.4536C281.607 27.2688 282.743 25.5693 283.728 25.6618C284.713 25.7478 285.171 27.5934 284.759 29.7847Z" fill="#021B79"/>
<path d="M260.282 33.7028C261.376 36.0191 261.601 38.2039 260.783 38.5805C259.963 38.9555 258.413 37.3826 257.319 35.0663C256.22 32.7532 255.993 30.5684 256.813 30.1918C257.629 29.8103 259.179 31.3832 260.282 33.7028Z" fill="#021B79"/>
<path d="M301.306 61.8684C303.379 63.9493 304.324 66.3614 303.412 67.2558C302.499 68.1502 300.079 67.1876 298.006 65.1067C295.927 63.0339 294.982 60.6201 295.895 59.7258C296.8 58.8265 299.22 59.7891 301.306 61.8684Z" fill="#021B79"/>
<path d="M226.677 75.0489L222.496 77.6801C220.534 78.904 217.954 78.3181 216.727 76.3686L214.094 72.1872C212.867 70.2378 213.455 67.6585 215.403 66.4313L219.587 63.7855C221.537 62.5584 224.116 63.146 225.356 65.0971L227.986 69.2931C229.213 71.2425 228.627 73.8218 226.677 75.0489Z" fill="#3D9EFF"/>
<path d="M32.1391 118.479L29.331 120.247C28.0129 121.068 26.281 120.676 25.4564 119.366L23.6887 116.557C22.8641 115.248 23.2585 113.516 24.5685 112.693L27.3782 110.915C28.6865 110.091 30.4185 110.485 31.2528 111.797L33.0189 114.614C33.8418 115.923 33.4474 117.655 32.1391 118.479Z" fill="#3D9EFF"/>
<path d="M194.608 19.334L192.15 20.8809C190.996 21.6 189.48 21.2558 188.76 20.1099L187.213 17.6523C186.492 16.5064 186.836 14.9903 187.982 14.2696L190.441 12.7146C191.587 11.9939 193.103 12.338 193.832 13.4856L195.377 15.9512C196.098 17.0972 195.754 18.6133 194.608 19.334Z" fill="#3D9EFF"/>
<path d="M110.751 4.74178L109.085 5.78874C108.304 6.2757 107.277 6.04196 106.788 5.26607L105.74 3.60066C105.251 2.82477 105.485 1.79729 106.261 1.3087L107.926 0.255241C108.702 -0.233343 109.73 0.000397993 110.223 0.777912L111.27 2.44819C111.76 3.2257 111.526 4.25319 110.751 4.74178Z" fill="#3D9EFF"/>
</svg>
