<svg width="604" height="260" viewBox="0 0 604 260" fill="none" xmlns="http://www.w3.org/2000/svg">
<path d="M191.017 259.999L162.773 203.738H11.5234V198.889H165.768L189.634 246.434L212.595 160.824L222.185 199.63H236.932L244.065 224.126L255.383 197.406H274.444L282.931 168.123L299.908 197.406H319.94L331.46 224.139L337.513 195.738H357.587L374.915 124.125L406.099 192.401H593.486V197.252H402.983L376.332 138.899L361.406 200.589H341.441L333.033 240.034L316.747 202.257H297.114L284.429 180.378L278.086 202.257H258.595L243.216 238.563L233.295 204.481H218.387L212.4 180.263L191.017 259.999Z" fill="#3D4B80"/>
<path d="M11.5285 211.869C17.8954 211.869 23.0569 206.708 23.0569 200.341C23.0569 193.974 17.8954 188.812 11.5285 188.812C5.16147 188.812 0 193.974 0 200.341C0 206.708 5.16147 211.869 11.5285 211.869Z" fill="#2888E8"/>
<path d="M11.5265 207.618C15.5452 207.618 18.8031 204.36 18.8031 200.341C18.8031 196.322 15.5452 193.064 11.5265 193.064C7.50781 193.064 4.25 196.322 4.25 200.341C4.25 204.36 7.50781 207.618 11.5265 207.618Z" fill="#FAFBFC"/>
<path d="M591.732 206.121C598.099 206.121 603.26 200.96 603.26 194.593C603.26 188.226 598.099 183.064 591.732 183.064C585.365 183.064 580.203 188.226 580.203 194.593C580.203 200.96 585.365 206.121 591.732 206.121Z" fill="#2888E8"/>
<path d="M591.73 201.869C595.748 201.869 599.006 198.612 599.006 194.593C599.006 190.574 595.748 187.316 591.73 187.316C587.711 187.316 584.453 190.574 584.453 194.593C584.453 198.612 587.711 201.869 591.73 201.869Z" fill="#FAFBFC"/>
<path d="M589.035 76.5128C589.035 76.5128 575.131 74.7799 568.397 80.7959C567.588 81.5177 566.764 82.2125 565.816 82.7409C563.049 84.2844 557.268 86.4748 548.912 84.4154C546.861 83.9099 544.928 83.0175 543.115 81.9358C538.89 79.4209 528.283 74.7883 518.891 84.4612C518.891 84.4612 532.699 91.5859 537.332 100.787C537.332 100.787 541.061 108.629 553.376 111.485C556.245 112.151 559.209 112.263 562.144 112.03C568.512 111.525 583.485 111.568 589.894 122.125L589.035 76.5128Z" fill="#3660FF"/>
<path d="M589.89 122.118C589.669 121.754 589.434 121.39 589.185 121.047L588.425 80.4436C588.425 80.4436 574.523 78.7149 567.786 84.7309C566.989 85.4527 566.159 86.1412 565.208 86.6675C562.44 88.2193 556.661 90.4015 548.305 88.3525C546.262 87.8408 544.329 86.9504 542.505 85.8667C538.723 83.6242 529.841 79.676 521.281 85.8084C519.818 84.9514 518.891 84.4646 518.891 84.4646C528.287 74.7854 538.881 79.4181 543.11 81.9268C544.935 83.0106 546.867 83.9009 548.91 84.4126C557.266 86.4741 563.045 84.2774 565.812 82.7401C566.762 82.2138 567.594 81.5107 568.391 80.791C575.129 74.775 589.031 76.5037 589.031 76.5037L589.89 122.118Z" fill="#2B54ED"/>
<path d="M589.92 194.592L587.291 76.4618L587.276 75.6734L587.268 75.2761L587.253 74.4773L587.255 74.4752L587.234 73.4705L590.45 73.4102L590.498 75.8835L590.513 76.6865L590.519 76.9756L590.534 77.7619L593.136 194.534L589.92 194.592Z" fill="#021B79"/>
<path d="M586.001 73.6307C586.03 75.1846 587.313 76.4202 588.867 76.3911C590.421 76.362 591.657 75.0785 591.627 73.5246C591.598 71.9707 590.315 70.7351 588.761 70.7642C587.207 70.7933 585.971 72.0768 586.001 73.6307Z" fill="#021B79"/>
<path d="M590.05 76.0918C590.415 75.6072 590.625 75.0081 590.623 74.3466C590.595 72.801 589.31 71.5612 587.752 71.5861C587.327 71.6007 586.93 71.6964 586.57 71.8919C587.07 71.218 587.86 70.7853 588.773 70.7665C590.321 70.727 591.606 71.9668 591.631 73.5249C591.656 74.6524 591.003 75.6446 590.05 76.0918Z" fill="#1F2333"/>
<path d="M77.4765 183.849L69.8906 184.119L70.2404 193.94L77.8263 193.67L77.4765 183.849Z" fill="#82C0FE"/>
<path d="M78.1703 189.46C78.1703 189.46 87.8037 195.596 88.3529 196.083C88.952 196.616 88.8896 196.959 88.8605 197.246C88.771 198.124 88.0242 198.877 87.0507 198.891L69.4293 198.896C69.3004 198.896 69.1901 198.802 69.1693 198.673C69.0861 198.165 69.0216 197.689 68.9717 197.244C68.6118 193.968 69.1298 190.631 69.6124 189.555C69.6644 189.441 69.8246 189.443 69.8766 189.558C71.3702 192.859 76.1484 192.576 77.6232 189.657C77.7252 189.458 77.9644 189.368 78.1703 189.46Z" fill="#021B79"/>
<path d="M88.8575 197.246C88.7681 198.124 88.0213 198.877 87.0478 198.892L69.4264 198.896C69.2974 198.896 69.1872 198.802 69.1664 198.673C69.0832 198.166 69.0187 197.689 68.9688 197.244L88.8575 197.246Z" fill="#1C202D"/>
<path d="M41.6749 183.834L41.3672 193.658L48.9541 193.896L49.2618 184.072L41.6749 183.834Z" fill="#82C0FE"/>
<path d="M49.5844 189.46C49.5844 189.46 59.2178 195.596 59.767 196.083C60.3661 196.616 60.3036 196.959 60.2745 197.246C60.1851 198.124 59.4383 198.877 58.4648 198.891L40.8434 198.896C40.7144 198.896 40.6042 198.802 40.5834 198.673C40.5002 198.165 40.4357 197.689 40.3858 197.244C40.0259 193.968 40.5439 190.631 41.0265 189.555C41.0785 189.441 41.2386 189.443 41.2906 189.558C42.7842 192.859 47.5624 192.576 49.0373 189.657C49.1392 189.458 49.3785 189.368 49.5844 189.46Z" fill="#021B79"/>
<path d="M60.2794 197.246C60.1899 198.124 59.4432 198.877 58.4696 198.892L40.8483 198.896C40.7193 198.896 40.609 198.802 40.5882 198.673C40.505 198.166 40.4405 197.689 40.3906 197.244L60.2794 197.246Z" fill="#1C202D"/>
<path d="M79.4223 185.879L68.2849 186.133L58.7513 103.029C58.6806 102.571 58.0254 102.565 57.9442 103.021L51.2814 186.006L39.2578 186.133L40.7452 85.574L75.4637 83.1152L79.4223 185.879Z" fill="#021B79"/>
<path d="M100.572 59.7571L95.3131 66.2598L83.0524 79.9829L77.8353 72.7542C77.8478 72.4692 77.8582 72.1842 77.8706 71.9055L87.9284 57.5896L78.6965 49.0379C78.5862 52.6345 78.3012 61.3547 77.8706 71.9076L77.5503 72.3611L77.8353 72.7563C77.5857 78.741 77.2944 85.2832 76.9574 91.7963C62.8391 94.4569 52.0138 93.2899 38.3261 89.5414C38.3261 89.5414 40.9825 75.5396 39.4764 52.5014C39.3599 50.7935 39.3308 49.0795 39.3662 47.3591L28.9423 55.4116L37.96 71.0526L31.7963 78.1523L20.815 63.3933L16.1553 56.4434C14.3601 53.7537 14.8885 50.1341 17.3868 48.0831L38.2637 30.9131C38.6236 30.6468 38.9897 30.3951 39.3683 30.1642C40.7807 29.3051 42.3325 28.6894 43.9468 28.3461L50.2519 27.0211L52.1802 26.6133C52.7959 26.5156 53.4054 26.4282 54.0212 26.3512C57.3849 25.9435 60.7839 26.0018 64.1309 26.4844C65.1544 26.6404 66.1758 26.8338 67.193 27.0647L67.2346 27.0814L75.339 29.3301C76.9262 29.7773 78.424 30.5033 79.7428 31.4748C80.1027 31.7431 80.5042 32.0551 80.8349 32.3526L100.089 51.3178C102.396 53.5852 102.606 57.2338 100.572 59.7571Z" fill="#2888E8"/>
<path d="M77.875 71.9043C77.8626 72.183 77.8522 72.468 77.8397 72.753L77.5547 72.3578L77.875 71.9043Z" fill="#2888E8"/>
<path d="M51.4609 17.8268C51.4609 17.8268 51.7251 20.2315 52.6716 21.4027L52.7195 18.428L51.8395 16.9531L51.4609 17.8268Z" fill="#222328"/>
<path d="M52.1854 14.9418C52.1854 14.9418 51.4241 19.5369 53.4648 23.2958C54.717 25.6028 57.1862 26.9029 59.8094 26.8301C65.2553 26.6824 68.1759 21.8147 66.7614 9.62893L57.5773 4.89648L51.1641 8.2997L52.1854 14.9418Z" fill="#82C0FE"/>
<path d="M53.8594 21.9395L54.1132 27.945C54.2276 30.6264 56.4201 32.7523 59.1036 32.7794C62.0762 32.8106 64.433 30.2769 64.1876 27.3147L63.836 23.0773L53.8594 21.9395Z" fill="#82C0FE"/>
<path d="M52.0993 15.4522C52.0993 15.4522 53.26 14.6284 52.9043 12.7354C54.9408 11.8617 55.9102 10.2454 54.8285 7.20417C54.8285 7.20417 63.9876 12.6335 68.6639 10.3952C68.6639 10.3952 70.8689 9.13043 69.4128 6.82349C69.2796 4.07763 68.4683 2.14097 66.2883 1.82061L63.5341 2.2429C63.5341 2.2429 59.8522 -0.935646 56.503 0.275029C56.503 0.275029 51.7956 1.46075 50.9572 3.73648C50.9572 3.73648 47.371 3.82593 48.1927 8.09242L50.1356 14.0688L50.3665 15.7184L52.0993 15.4522Z" fill="#222328"/>
<path d="M53.0376 15.7703C53.229 17.0184 52.6257 18.1459 51.6875 18.2894C50.7515 18.433 49.8362 17.5385 49.6448 16.2925C49.4534 15.0443 50.0567 13.9169 50.9948 13.7733C51.9309 13.6277 52.8462 14.5222 53.0376 15.7703Z" fill="#82C0FE"/>
<path d="M67.2307 27.0817L66.3591 28.4567L63.4593 33.0186L63.012 32.9479L60.3702 32.5402L64.1124 26.4868H64.1208C64.6387 26.5658 65.1567 26.6511 65.6747 26.7489C66.1802 26.8467 66.6836 26.9527 67.187 27.0672L67.2307 27.0817ZM58.0487 32.7045L55.2945 33.5407L55.0553 33.6135L51.987 29.4053L50.25 27.0235L52.1783 26.6178C52.3427 26.5908 52.5091 26.5637 52.6755 26.5367C53.1311 26.466 53.597 26.4056 54.0464 26.3516L54.0547 26.3661L58.0487 32.7045Z" fill="#0575E6"/>
<path d="M61.5446 32.2338L59.5247 34.0623L57.2656 32.5375L59.2876 30.709L61.5446 32.2338Z" fill="white"/>
<path d="M57.8223 32.6796C57.8223 32.6796 58.3195 56.2899 54.3047 65.397L58.542 72.037L63.6614 65.9253C63.6614 65.9253 61.3441 33.701 60.9031 32.5527L57.8223 32.6796Z" fill="white"/>
<path d="M44.4177 77.8177C44.7963 78.1589 44.8316 78.7413 44.4905 79.1241C44.3095 79.3259 44.0557 79.4299 43.7999 79.4299C43.5835 79.4299 43.3651 79.3571 43.1883 79.1969L43.2528 79.2572C43.6834 79.642 43.7187 80.2973 43.3381 80.7237C43.1363 80.9526 42.8513 81.0732 42.5622 81.0732C42.3209 81.0732 42.0754 80.9879 41.8757 80.8111L41.5013 80.4783C41.8507 80.8673 41.859 81.4664 41.5054 81.8637C41.2995 82.0967 41.0145 82.2132 40.7295 82.2132C40.484 82.2132 40.2386 82.1279 40.0389 81.9511L39.7851 81.7264C40.1907 82.0842 40.2261 82.7062 39.8662 83.1076C39.6728 83.3281 39.4003 83.4405 39.134 83.4405H39.1298C38.8968 83.4405 38.668 83.3593 38.4829 83.1909L34.4203 79.5734L32.6562 77.1666L37.4948 71.5938C38.0419 71.8954 38.9218 72.145 39.8454 72.3343C41.131 72.5985 42.4977 72.7441 43.1613 72.7566C43.8332 72.8044 44.4676 72.8003 44.7484 73.235C44.8441 73.3765 44.9003 73.5325 44.9253 73.6927C45.0251 74.3188 44.5363 74.8867 43.908 74.9782L41.2558 75.0094L44.4177 77.8177Z" fill="#82C0FE"/>
<path d="M77.875 71.9043C77.8626 72.183 77.8522 72.468 77.8397 72.753L77.5547 72.3578L77.875 71.9043Z" fill="#2888E8"/>
<path d="M70.5128 78.5227C70.1051 78.8285 70.0177 79.4047 70.3235 79.8166C70.4858 80.035 70.7313 80.1598 70.983 80.1827C71.1972 80.2014 71.424 80.1474 71.6133 80.0059L71.5425 80.06C71.0786 80.4032 70.985 81.0543 71.3262 81.514C71.5072 81.7595 71.7797 81.9051 72.0688 81.9322C72.308 81.953 72.5618 81.8905 72.7761 81.7304L73.1796 81.4329C72.7969 81.7886 72.7345 82.3856 73.0507 82.8121C73.2358 83.0617 73.5104 83.2032 73.7933 83.2302C74.0388 83.251 74.2905 83.1886 74.5047 83.0305L74.7772 82.8308C74.3425 83.1512 74.251 83.7669 74.5734 84.1975C74.7481 84.4347 75.0081 84.5698 75.2744 84.5948H75.2786C75.5115 84.6156 75.7445 84.5553 75.9463 84.4034L80.3147 81.1625L82.2868 78.9221L77.9641 72.9395C77.392 73.1912 76.4934 73.3617 75.5573 73.4678C74.253 73.6155 72.878 73.6384 72.2165 73.5926C71.5425 73.5802 70.9122 73.5198 70.594 73.9275C70.4858 74.0607 70.4171 74.2105 70.3776 74.3665C70.2237 74.9801 70.6584 75.5917 71.2763 75.7373L73.916 76.0036L70.5128 78.5227Z" fill="#82C0FE"/>
</svg>
