<svg width="364" height="260" viewBox="0 0 364 260" fill="none" xmlns="http://www.w3.org/2000/svg">
<path d="M360.946 172.991C336.981 279.456 196.043 262.21 112.892 252.97C60.3341 247.328 -7.32815 213.249 0.644209 151.96C7.13592 114.103 44.5485 93.5211 68.0857 66.4085C73.1538 60.4033 76.7638 53.6443 80.958 47.0444C99.0951 17.885 136.472 3.19871 169.49 14.4072C188.113 20.4844 203.855 33.4919 222.016 40.9071C251.162 52.6952 284.918 49.797 312.274 66.5076C312.286 66.5076 312.286 66.5076 312.286 66.5076C348.23 87.5505 370.122 131.838 360.946 172.991Z" fill="#E1F0FF"/>
<path d="M268.237 89.977C258.75 87.3821 250.512 80.6531 246.445 70.8623C242.377 61.0684 243.424 50.4801 248.285 41.9266C242.296 33.9663 235.205 26.8829 227.233 20.9092C218.687 25.7882 208.097 26.8573 198.296 22.8073C188.499 18.7603 181.752 10.5372 179.139 1.05567C174.309 0.375417 169.381 0 164.364 0C159.276 0 154.279 0.381423 149.383 1.0812C146.79 10.5687 140.059 18.8069 130.269 22.8734C120.475 26.9414 109.888 25.8948 101.333 21.0339C93.3725 27.0225 86.2876 34.1134 80.314 42.0873C85.1944 50.6333 86.2606 61.2215 82.2136 71.0244C78.1666 80.8228 69.9435 87.5668 60.4619 90.1827C59.7817 95.0121 59.4062 99.9406 59.4062 104.958C59.4062 110.045 59.7877 115.043 60.4875 119.938C69.975 122.533 78.2132 129.262 82.2797 139.053C86.3477 148.847 85.301 159.434 80.4401 167.989C86.4288 175.949 93.5197 183.034 101.492 189.008C110.038 184.129 120.626 183.059 130.429 187.108C140.226 191.156 146.973 199.378 149.586 208.86C154.415 209.54 159.344 209.915 164.361 209.915C169.449 209.915 174.446 209.534 179.34 208.833C181.935 199.345 188.664 191.107 198.455 187.04C208.249 182.972 218.837 184.019 227.39 188.88C235.352 182.891 242.436 175.8 248.409 167.827C243.53 159.281 242.461 148.692 246.51 138.889C250.557 129.091 258.78 122.345 268.261 119.731C268.942 114.902 269.317 109.973 269.317 104.956C269.319 99.867 268.936 94.8709 268.237 89.977ZM164.362 156.166C136.08 156.166 113.152 133.239 113.152 104.956C113.152 76.6737 136.08 53.7462 164.362 53.7462C192.645 53.7462 215.572 76.6737 215.572 104.956C215.572 133.239 192.645 156.166 164.362 156.166Z" fill="#C0DEFC"/>
<path d="M164.362 134.904C180.902 134.904 194.31 121.496 194.31 104.956C194.31 88.4164 180.902 75.0083 164.362 75.0083C147.822 75.0083 134.414 88.4164 134.414 104.956C134.414 121.496 147.822 134.904 164.362 134.904Z" fill="#C0DEFC"/>
<path d="M269.485 167.962H185.461V233.731H269.485V167.962Z" fill="#70AEED"/>
<path d="M280.9 150.389H174.062V180.738H280.9V150.389Z" fill="#B9DAFB"/>
<path d="M273.81 176.953H181.157C179.331 176.953 177.852 175.472 177.852 173.647V157.482C177.852 155.656 179.332 154.177 181.157 154.177H273.81C275.636 154.177 277.115 155.657 277.115 157.482V173.647C277.115 175.472 275.634 176.953 273.81 176.953Z" fill="#8CC1F6"/>
<path d="M269.497 158.896H222.016V172.231H269.497V158.896Z" fill="#70AEED"/>
<path d="M215.007 160.59H185.469V163.496H215.007V160.59Z" fill="#70AEED"/>
<path d="M215.007 167.631H185.469V170.537H215.007V167.631Z" fill="#70AEED"/>
<path d="M227.906 164.291C228.527 164.291 229.031 163.787 229.031 163.166C229.031 162.545 228.527 162.041 227.906 162.041C227.285 162.041 226.781 162.545 226.781 163.166C226.781 163.787 227.285 164.291 227.906 164.291Z" fill="#B9DAFB"/>
<path d="M238.109 164.291C238.73 164.291 239.234 163.787 239.234 163.166C239.234 162.545 238.73 162.041 238.109 162.041C237.488 162.041 236.984 162.545 236.984 163.166C236.984 163.787 237.488 164.291 238.109 164.291Z" fill="#B9DAFB"/>
<path d="M243.211 164.291C243.832 164.291 244.335 163.787 244.335 163.166C244.335 162.545 243.832 162.041 243.211 162.041C242.59 162.041 242.086 162.545 242.086 163.166C242.086 163.787 242.59 164.291 243.211 164.291Z" fill="#B9DAFB"/>
<path d="M248.297 164.291C248.918 164.291 249.421 163.787 249.421 163.166C249.421 162.545 248.918 162.041 248.297 162.041C247.675 162.041 247.172 162.545 247.172 163.166C247.172 163.787 247.675 164.291 248.297 164.291Z" fill="#B9DAFB"/>
<path d="M263.586 164.291C264.207 164.291 264.71 163.787 264.71 163.166C264.71 162.545 264.207 162.041 263.586 162.041C262.965 162.041 262.461 162.545 262.461 163.166C262.461 163.787 262.965 164.291 263.586 164.291Z" fill="#B9DAFB"/>
<path d="M227.906 169.087C228.527 169.087 229.031 168.583 229.031 167.962C229.031 167.341 228.527 166.837 227.906 166.837C227.285 166.837 226.781 167.341 226.781 167.962C226.781 168.583 227.285 169.087 227.906 169.087Z" fill="#B9DAFB"/>
<path d="M248.297 169.087C248.918 169.087 249.421 168.583 249.421 167.962C249.421 167.341 248.918 166.837 248.297 166.837C247.675 166.837 247.172 167.341 247.172 167.962C247.172 168.583 247.675 169.087 248.297 169.087Z" fill="#B9DAFB"/>
<path d="M253.39 169.087C254.012 169.087 254.515 168.583 254.515 167.962C254.515 167.341 254.012 166.837 253.39 166.837C252.769 166.837 252.266 167.341 252.266 167.962C252.266 168.583 252.769 169.087 253.39 169.087Z" fill="#B9DAFB"/>
<path d="M233.015 164.291C233.637 164.291 234.14 163.787 234.14 163.166C234.14 162.545 233.637 162.041 233.015 162.041C232.394 162.041 231.891 162.545 231.891 163.166C231.891 163.787 232.394 164.291 233.015 164.291Z" fill="#7FB9F4"/>
<path d="M253.39 164.291C254.012 164.291 254.515 163.787 254.515 163.166C254.515 162.545 254.012 162.041 253.39 162.041C252.769 162.041 252.266 162.545 252.266 163.166C252.266 163.787 252.769 164.291 253.39 164.291Z" fill="#7FB9F4"/>
<path d="M258.5 164.291C259.121 164.291 259.624 163.787 259.624 163.166C259.624 162.545 259.121 162.041 258.5 162.041C257.879 162.041 257.375 162.545 257.375 163.166C257.375 163.787 257.879 164.291 258.5 164.291Z" fill="#7FB9F4"/>
<path d="M233.015 169.087C233.637 169.087 234.14 168.583 234.14 167.962C234.14 167.341 233.637 166.837 233.015 166.837C232.394 166.837 231.891 167.341 231.891 167.962C231.891 168.583 232.394 169.087 233.015 169.087Z" fill="#7FB9F4"/>
<path d="M238.109 169.087C238.73 169.087 239.234 168.583 239.234 167.962C239.234 167.341 238.73 166.837 238.109 166.837C237.488 166.837 236.984 167.341 236.984 167.962C236.984 168.583 237.488 169.087 238.109 169.087Z" fill="#7FB9F4"/>
<path d="M243.211 169.087C243.832 169.087 244.335 168.583 244.335 167.962C244.335 167.341 243.832 166.837 243.211 166.837C242.59 166.837 242.086 167.341 242.086 167.962C242.086 168.583 242.59 169.087 243.211 169.087Z" fill="#7FB9F4"/>
<path d="M258.5 169.087C259.121 169.087 259.624 168.583 259.624 167.962C259.624 167.341 259.121 166.837 258.5 166.837C257.879 166.837 257.375 167.341 257.375 167.962C257.375 168.583 257.879 169.087 258.5 169.087Z" fill="#7FB9F4"/>
<path d="M263.586 169.087C264.207 169.087 264.71 168.583 264.71 167.962C264.71 167.341 264.207 166.837 263.586 166.837C262.965 166.837 262.461 167.341 262.461 167.962C262.461 168.583 262.965 169.087 263.586 169.087Z" fill="#7FB9F4"/>
<path d="M280.9 185.672H174.062V216.021H280.9V185.672Z" fill="#B9DAFB"/>
<path d="M273.81 212.234H181.157C179.331 212.234 177.852 210.753 177.852 208.929V192.763C177.852 190.937 179.332 189.458 181.157 189.458H273.81C275.636 189.458 277.115 190.939 277.115 192.763V208.929C277.115 210.755 275.634 212.234 273.81 212.234Z" fill="#8CC1F6"/>
<path d="M269.497 194.179H222.016V207.514H269.497V194.179Z" fill="#70AEED"/>
<path d="M215.007 195.873H185.469V198.779H215.007V195.873Z" fill="#70AEED"/>
<path d="M215.007 202.915H185.469V205.82H215.007V202.915Z" fill="#70AEED"/>
<path d="M227.906 199.573C228.527 199.573 229.031 199.07 229.031 198.448C229.031 197.827 228.527 197.324 227.906 197.324C227.285 197.324 226.781 197.827 226.781 198.448C226.781 199.07 227.285 199.573 227.906 199.573Z" fill="#B9DAFB"/>
<path d="M238.109 199.573C238.73 199.573 239.234 199.07 239.234 198.448C239.234 197.827 238.73 197.324 238.109 197.324C237.488 197.324 236.984 197.827 236.984 198.448C236.984 199.07 237.488 199.573 238.109 199.573Z" fill="#B9DAFB"/>
<path d="M243.211 199.573C243.832 199.573 244.335 199.07 244.335 198.448C244.335 197.827 243.832 197.324 243.211 197.324C242.59 197.324 242.086 197.827 242.086 198.448C242.086 199.07 242.59 199.573 243.211 199.573Z" fill="#B9DAFB"/>
<path d="M248.297 199.573C248.918 199.573 249.421 199.07 249.421 198.448C249.421 197.827 248.918 197.324 248.297 197.324C247.675 197.324 247.172 197.827 247.172 198.448C247.172 199.07 247.675 199.573 248.297 199.573Z" fill="#B9DAFB"/>
<path d="M263.586 199.573C264.207 199.573 264.71 199.07 264.71 198.448C264.71 197.827 264.207 197.324 263.586 197.324C262.965 197.324 262.461 197.827 262.461 198.448C262.461 199.07 262.965 199.573 263.586 199.573Z" fill="#B9DAFB"/>
<path d="M227.906 204.37C228.527 204.37 229.031 203.866 229.031 203.245C229.031 202.624 228.527 202.12 227.906 202.12C227.285 202.12 226.781 202.624 226.781 203.245C226.781 203.866 227.285 204.37 227.906 204.37Z" fill="#B9DAFB"/>
<path d="M248.297 204.37C248.918 204.37 249.421 203.866 249.421 203.245C249.421 202.624 248.918 202.12 248.297 202.12C247.675 202.12 247.172 202.624 247.172 203.245C247.172 203.866 247.675 204.37 248.297 204.37Z" fill="#B9DAFB"/>
<path d="M253.39 204.37C254.012 204.37 254.515 203.866 254.515 203.245C254.515 202.624 254.012 202.12 253.39 202.12C252.769 202.12 252.266 202.624 252.266 203.245C252.266 203.866 252.769 204.37 253.39 204.37Z" fill="#B9DAFB"/>
<path d="M233.015 199.573C233.637 199.573 234.14 199.07 234.14 198.448C234.14 197.827 233.637 197.324 233.015 197.324C232.394 197.324 231.891 197.827 231.891 198.448C231.891 199.07 232.394 199.573 233.015 199.573Z" fill="#7FB9F4"/>
<path d="M253.39 199.573C254.012 199.573 254.515 199.07 254.515 198.448C254.515 197.827 254.012 197.324 253.39 197.324C252.769 197.324 252.266 197.827 252.266 198.448C252.266 199.07 252.769 199.573 253.39 199.573Z" fill="#7FB9F4"/>
<path d="M258.5 199.573C259.121 199.573 259.624 199.07 259.624 198.448C259.624 197.827 259.121 197.324 258.5 197.324C257.879 197.324 257.375 197.827 257.375 198.448C257.375 199.07 257.879 199.573 258.5 199.573Z" fill="#7FB9F4"/>
<path d="M233.015 204.37C233.637 204.37 234.14 203.866 234.14 203.245C234.14 202.624 233.637 202.12 233.015 202.12C232.394 202.12 231.891 202.624 231.891 203.245C231.891 203.866 232.394 204.37 233.015 204.37Z" fill="#7FB9F4"/>
<path d="M238.109 204.37C238.73 204.37 239.234 203.866 239.234 203.245C239.234 202.624 238.73 202.12 238.109 202.12C237.488 202.12 236.984 202.624 236.984 203.245C236.984 203.866 237.488 204.37 238.109 204.37Z" fill="#7FB9F4"/>
<path d="M243.211 204.37C243.832 204.37 244.335 203.866 244.335 203.245C244.335 202.624 243.832 202.12 243.211 202.12C242.59 202.12 242.086 202.624 242.086 203.245C242.086 203.866 242.59 204.37 243.211 204.37Z" fill="#7FB9F4"/>
<path d="M258.5 204.37C259.121 204.37 259.624 203.866 259.624 203.245C259.624 202.624 259.121 202.12 258.5 202.12C257.879 202.12 257.375 202.624 257.375 203.245C257.375 203.866 257.879 204.37 258.5 204.37Z" fill="#7FB9F4"/>
<path d="M263.586 204.37C264.207 204.37 264.71 203.866 264.71 203.245C264.71 202.624 264.207 202.12 263.586 202.12C262.965 202.12 262.461 202.624 262.461 203.245C262.461 203.866 262.965 204.37 263.586 204.37Z" fill="#7FB9F4"/>
<path d="M280.9 220.954H174.062V251.303H280.9V220.954Z" fill="#B9DAFB"/>
<path d="M273.81 247.517H181.157C179.331 247.517 177.852 246.036 177.852 244.212V228.046C177.852 226.22 179.332 224.741 181.157 224.741H273.81C275.636 224.741 277.115 226.222 277.115 228.046V244.212C277.115 246.036 275.634 247.517 273.81 247.517Z" fill="#8CC1F6"/>
<path d="M269.497 229.462H222.016V242.797H269.497V229.462Z" fill="#70AEED"/>
<path d="M215.007 231.156H185.469V234.062H215.007V231.156Z" fill="#70AEED"/>
<path d="M215.007 238.196H185.469V241.102H215.007V238.196Z" fill="#70AEED"/>
<path d="M227.906 234.855C228.527 234.855 229.031 234.351 229.031 233.73C229.031 233.109 228.527 232.605 227.906 232.605C227.285 232.605 226.781 233.109 226.781 233.73C226.781 234.351 227.285 234.855 227.906 234.855Z" fill="#B9DAFB"/>
<path d="M238.109 234.855C238.73 234.855 239.234 234.351 239.234 233.73C239.234 233.109 238.73 232.605 238.109 232.605C237.488 232.605 236.984 233.109 236.984 233.73C236.984 234.351 237.488 234.855 238.109 234.855Z" fill="#B9DAFB"/>
<path d="M243.211 234.855C243.832 234.855 244.335 234.351 244.335 233.73C244.335 233.109 243.832 232.605 243.211 232.605C242.59 232.605 242.086 233.109 242.086 233.73C242.086 234.351 242.59 234.855 243.211 234.855Z" fill="#B9DAFB"/>
<path d="M248.297 234.855C248.918 234.855 249.421 234.351 249.421 233.73C249.421 233.109 248.918 232.605 248.297 232.605C247.675 232.605 247.172 233.109 247.172 233.73C247.172 234.351 247.675 234.855 248.297 234.855Z" fill="#B9DAFB"/>
<path d="M263.586 234.855C264.207 234.855 264.71 234.351 264.71 233.73C264.71 233.109 264.207 232.605 263.586 232.605C262.965 232.605 262.461 233.109 262.461 233.73C262.461 234.351 262.965 234.855 263.586 234.855Z" fill="#B9DAFB"/>
<path d="M227.906 239.653C228.527 239.653 229.031 239.149 229.031 238.528C229.031 237.907 228.527 237.403 227.906 237.403C227.285 237.403 226.781 237.907 226.781 238.528C226.781 239.149 227.285 239.653 227.906 239.653Z" fill="#B9DAFB"/>
<path d="M248.297 239.653C248.918 239.653 249.421 239.149 249.421 238.528C249.421 237.907 248.918 237.403 248.297 237.403C247.675 237.403 247.172 237.907 247.172 238.528C247.172 239.149 247.675 239.653 248.297 239.653Z" fill="#B9DAFB"/>
<path d="M253.39 239.653C254.012 239.653 254.515 239.149 254.515 238.528C254.515 237.907 254.012 237.403 253.39 237.403C252.769 237.403 252.266 237.907 252.266 238.528C252.266 239.149 252.769 239.653 253.39 239.653Z" fill="#B9DAFB"/>
<path d="M233.015 234.855C233.637 234.855 234.14 234.351 234.14 233.73C234.14 233.109 233.637 232.605 233.015 232.605C232.394 232.605 231.891 233.109 231.891 233.73C231.891 234.351 232.394 234.855 233.015 234.855Z" fill="#7FB9F4"/>
<path d="M253.39 234.855C254.012 234.855 254.515 234.351 254.515 233.73C254.515 233.109 254.012 232.605 253.39 232.605C252.769 232.605 252.266 233.109 252.266 233.73C252.266 234.351 252.769 234.855 253.39 234.855Z" fill="#7FB9F4"/>
<path d="M258.5 234.855C259.121 234.855 259.624 234.351 259.624 233.73C259.624 233.109 259.121 232.605 258.5 232.605C257.879 232.605 257.375 233.109 257.375 233.73C257.375 234.351 257.879 234.855 258.5 234.855Z" fill="#7FB9F4"/>
<path d="M233.015 239.653C233.637 239.653 234.14 239.149 234.14 238.528C234.14 237.907 233.637 237.403 233.015 237.403C232.394 237.403 231.891 237.907 231.891 238.528C231.891 239.149 232.394 239.653 233.015 239.653Z" fill="#7FB9F4"/>
<path d="M238.109 239.653C238.73 239.653 239.234 239.149 239.234 238.528C239.234 237.907 238.73 237.403 238.109 237.403C237.488 237.403 236.984 237.907 236.984 238.528C236.984 239.149 237.488 239.653 238.109 239.653Z" fill="#7FB9F4"/>
<path d="M243.211 239.653C243.832 239.653 244.335 239.149 244.335 238.528C244.335 237.907 243.832 237.403 243.211 237.403C242.59 237.403 242.086 237.907 242.086 238.528C242.086 239.149 242.59 239.653 243.211 239.653Z" fill="#7FB9F4"/>
<path d="M258.5 239.653C259.121 239.653 259.624 239.149 259.624 238.528C259.624 237.907 259.121 237.403 258.5 237.403C257.879 237.403 257.375 237.907 257.375 238.528C257.375 239.149 257.879 239.653 258.5 239.653Z" fill="#7FB9F4"/>
<path d="M263.586 239.653C264.207 239.653 264.71 239.149 264.71 238.528C264.71 237.907 264.207 237.403 263.586 237.403C262.965 237.403 262.461 237.907 262.461 238.528C262.461 239.149 262.965 239.653 263.586 239.653Z" fill="#7FB9F4"/>
<path d="M226.381 65.3183C226.692 65.3498 226.996 65.3408 227.263 65.2747C228.235 65.0345 228.343 63.5719 229.015 62.9096C230.544 61.4049 232.013 61.028 234.079 61.01C236.59 60.9875 238.898 60.516 240.386 59.0428C242.548 56.9029 243.664 51.4999 241.775 48.7969C240.795 47.3944 240.29 46.5519 239.643 45.1584C237.868 41.3442 231.591 39.8275 227.239 41.0258C225.034 41.634 223.001 42.8053 221.364 44.3505C219.24 46.3582 216.808 49.6018 216.82 52.6022C216.826 54.1474 217.365 55.6821 217.622 57.1988C217.842 58.4902 217.648 59.9528 218.463 61.0851C219.298 62.2459 220.849 62.6213 222.127 63.2971C222.935 63.7235 223.657 64.2897 224.464 64.7176C224.958 64.9819 225.691 65.2477 226.381 65.3183Z" fill="#021B79"/>
<path d="M218.276 41.8621C218.519 43.8908 220.191 45.7379 221.882 46.8221C223.379 47.7816 226.265 48.1375 227.833 47.16C230.235 45.6613 229.755 41.4356 228.636 39.3423C227.83 37.8331 226.34 36.9051 224.675 36.5071C221.272 35.6932 217.865 38.4232 218.276 41.8621Z" fill="#021B79"/>
<path d="M284.328 185.603L279.203 174.93L287.219 171.9L291.625 181.469C292.227 182.79 293.036 183.475 294.106 184.026L301.446 187.714C303.207 188.621 302.502 191.288 300.522 191.205L283.644 190.5L284.328 185.603Z" fill="#BDDEFF"/>
<path d="M283.341 190.734C283.31 191.05 283.335 191.333 283.416 191.618C283.66 192.528 284.475 193.219 285.466 193.261L309.502 194.266C310.214 194.296 310.819 193.702 310.852 192.916C310.855 192.86 310.856 192.803 310.84 192.765C310.823 192.277 310.56 191.834 310.119 191.611L299.727 186.75C294.646 188.187 289.653 187.944 284.389 186.215C284.199 186.152 283.996 186.272 283.966 186.47L283.341 190.734Z" fill="#021B79"/>
<path d="M283.43 191.619C283.673 192.529 284.488 193.22 285.479 193.262L309.515 194.267C310.227 194.297 310.832 193.703 310.865 192.917C310.868 192.861 310.87 192.804 310.853 192.766L283.43 191.619Z" fill="#192C72"/>
<path d="M239.987 197.162L239.539 196.818L238.868 198.24C238.535 198.947 238.523 199.761 238.838 200.477C240.368 203.96 244.411 211.38 246.244 213.767C247.525 215.436 249.33 216.392 251.197 216.392C251.213 216.392 251.231 216.392 251.248 216.392C254.257 216.392 254.532 212.653 253.61 210.034L239.987 197.162Z" fill="#192C72"/>
<path d="M246.831 194.657L241.706 193.497C241.005 193.417 239.531 195.338 239.344 198.104C239.344 198.104 245.068 209.922 247.36 212.906C249.944 216.272 253.854 215.346 253.743 211.571C253.628 207.627 251.069 201.099 250.729 199.291L246.831 194.657Z" fill="#021B79"/>
<path d="M249.695 194.974L251.599 185.062L244.086 183.064L241.703 194.126C242.562 198.559 246.04 205.534 247.66 207.246C249.393 209.076 251.954 208.247 251.954 206.322C251.954 204.734 250.853 199.539 249.695 194.974Z" fill="#BDDEFF"/>
<path d="M234.468 86.3774C237.997 86.3774 240.857 83.5166 240.857 79.9878C240.857 76.4589 237.997 73.5981 234.468 73.5981C230.939 73.5981 228.078 76.4589 228.078 79.9878C228.078 83.5166 230.939 86.3774 234.468 86.3774Z" fill="#BDDEFF"/>
<path d="M244.705 115.088C247.199 115.088 249.222 113.065 249.222 110.571C249.222 108.076 247.199 106.054 244.705 106.054C242.21 106.054 240.188 108.076 240.188 110.571C240.188 113.065 242.21 115.088 244.705 115.088Z" fill="#BDDEFF"/>
<path d="M240.542 77.9658L240.588 78.1836C242.788 88.6547 245.589 98.9922 248.977 109.14L240.407 112.001L240.36 111.902C235.825 102.212 231.85 92.2677 228.458 82.1194L228.422 82.0098L240.542 77.9658Z" fill="#BDDEFF"/>
<path d="M283.863 183.793C280.386 177.472 276.321 170.932 271.093 163.239C268.303 159.134 266.12 154.56 264.008 150.136C262.836 147.677 261.624 145.137 260.317 142.695C259.265 140.728 258.056 138.824 256.887 136.983C255.489 134.78 254.046 132.506 252.875 130.127C254.003 129.582 257.626 127.836 257.676 127.81C259.314 127.02 260.982 126.532 262.64 126.358C262.87 126.334 263.097 126.316 263.319 126.303C266.895 126.095 269.197 127.352 270.784 130.381C272.699 134.035 274.331 137.918 275.909 141.674L276.691 143.531C279.48 150.13 289.786 177.95 291.083 181.456L283.863 183.793Z" fill="#BDDEFF"/>
<path d="M262.881 150.572L260.793 158.373L258.962 165.122C257.501 170.538 254.229 181.022 252.104 187.657L244.062 186.271C244.912 179.783 245.468 173.256 246.04 166.879L246.483 161.832C246.686 159.65 246.982 157.358 247.333 154.992C247.685 152.718 248.072 150.425 248.498 148.169L248.776 146.599C249.219 144.103 249.682 141.534 250.496 139.056C250.569 138.834 250.643 138.613 250.736 138.391C253.675 139.463 256.522 140.535 259.24 141.977C260.35 142.568 261.588 143.345 262.29 144.695C263.197 146.486 263.048 148.464 262.881 150.572Z" fill="#BDDEFF"/>
<path d="M216.496 147.413C224.14 148.584 239.047 151.23 246.432 153.6C248.24 154.181 253.67 155.908 253.67 155.908L262.218 150.393C262.514 148.225 262.809 146.168 261.994 144.204C261.416 142.81 260.341 141.909 259.106 141.125C256.492 139.442 253.926 137.679 251.021 136.625C249.969 136.243 249.096 135.992 248.108 135.611C245.756 134.706 234.554 130.642 234.554 130.642L235.098 124.033C235.098 124.033 212.109 122.797 207.141 122.383L206.647 125.551C204.681 133.638 208.234 146.147 216.496 147.413Z" fill="#192C72"/>
<path d="M291.034 176.83C287.635 167.682 277.523 140.98 277.523 140.98C275.933 137.195 274.29 133.282 272.342 129.567C270.57 126.185 267.866 124.538 264.074 124.532C263.559 124.532 263.025 124.562 262.469 124.619C260.614 124.814 258.751 125.356 256.931 126.233L250.555 129.31C250.555 129.31 257.764 141.607 258.787 143.517C260.075 145.923 277.005 175.998 279.909 180.978L291.034 176.83Z" fill="#192C72"/>
<path d="M263.144 143.905C262.223 142.106 260.633 141.103 259.351 140.43C256.458 138.892 249.373 136.472 249.373 136.472C249.373 136.472 241.771 181.05 240.812 188.001L252.3 190.578C254.374 184.07 258.385 171.396 259.957 165.567C261.046 161.53 262.13 157.51 263.22 153.471C264.067 150.329 264.706 146.959 263.144 143.905Z" fill="#192C72"/>
<path d="M206.949 146.509V146.515C209.601 149.721 213.376 151.975 217.78 152.534C222.354 153.112 227.299 151.804 231.666 150.615C232.049 150.509 232.432 150.398 232.809 150.28C232.821 150.28 232.828 150.274 232.84 150.274C236.617 149.098 240.078 147.344 243.786 145.937C247.091 144.681 249.919 143.552 253.449 142.349C255.547 141.633 260.914 140.628 263.326 143.907C263.326 143.907 265.431 142.421 266.38 142.639C266.581 141.345 267.436 125.083 267.436 125.083C264.49 124.143 255.567 124.597 251.628 124.826C244.189 125.253 235.153 125.905 227.57 126.469L225.478 123.684L203.776 126.697L202.903 134.236C202.645 138.789 204.178 143.165 206.949 146.509Z" fill="#192C72"/>
<path d="M264.034 152.387C263.999 152.387 263.965 152.384 263.93 152.375C263.681 152.318 263.526 152.07 263.583 151.821C263.975 150.118 264.36 148.142 263.96 146.243C263.553 144.323 262.436 142.988 260.813 142.488C257.956 141.609 254.815 142.651 252.092 143.695L233.963 150.619C233.721 150.711 233.457 150.589 233.367 150.354C233.275 150.115 233.395 149.847 233.634 149.757L251.762 142.833C254.627 141.734 257.954 140.639 261.084 141.606C263.041 142.21 264.384 143.79 264.861 146.054C265.28 148.038 264.926 150.098 264.48 152.029C264.435 152.243 264.244 152.387 264.034 152.387Z" fill="#021B79"/>
<path d="M206.93 146.509V146.515C209.365 149.852 213.385 152.116 217.794 152.675C222.373 153.253 227.438 152.118 231.671 150.614C232.047 150.481 232.439 150.398 232.815 150.279C230.067 151.062 224.646 151.699 219.93 151.101C214.804 150.451 210.621 148.999 206.93 146.509Z" fill="#021B79"/>
<path d="M206.719 129.576C212.552 125.56 227.777 126.455 239.092 125.646C238.799 122.336 238.425 118.998 238.269 116.804C237.874 111.262 238.041 107.947 238.736 103.132C238.969 101.517 240.388 95.6292 240.86 93.246C241.588 89.5654 241.206 85.9014 239.859 82.398C239.035 80.2521 238.042 74.6178 238.042 74.6178C236.646 73.3789 233.689 71.5784 232.021 70.9583L220.979 70.0723C213.682 71.7196 207.104 74.9467 205.181 83.1548C203.689 89.5279 202.959 96.8245 202.424 106.311C202.016 113.559 202.312 125.443 202.879 133.739C203.343 132.291 204.417 131.16 206.719 129.576Z" fill="#83C1FF"/>
<path d="M233.357 74.5819C233.239 75.5535 231.828 75.9304 230.762 75.7938C227.619 75.4229 223.165 73.7515 220.789 71.4014L223.339 52.9819L233.394 55.2029L232.014 70.9584C232.927 72.0456 233.493 73.5338 233.357 74.5819Z" fill="#BDDEFF"/>
<path d="M233.403 55.201L232.023 70.9565C227.969 69.2491 224.228 64.7786 222.375 59.9898L223.348 52.98L233.403 55.201Z" fill="#8FBFEF"/>
<path d="M229.915 42.2889C236.046 42.7409 240.121 46.5702 240.048 50.8875C239.997 53.9374 239.635 56.9782 239.026 59.9681C238.448 62.7972 237.514 65.775 235.321 67.6971C232.861 69.8535 228.389 68.466 225.68 66.4553C220.644 62.7161 218.612 57.1044 218.97 51.802C219.342 46.3089 223.024 41.7813 229.915 42.2889Z" fill="#BDDEFF"/>
<path d="M240.717 52.1436C241.176 47.6521 237.713 43.5435 232.342 42.183C231.852 42.0448 231.334 41.9457 230.812 41.8661C227.425 41.3616 224.441 42.1184 222.181 44.0255C220.172 45.7449 218.803 48.3819 218.342 51.4318C217.815 55.0493 218.974 59.9117 221.982 62.6718L222.132 60.7241L222.618 55.7235C228.097 55.4923 232.839 53.7188 235.829 50.6704C236.902 51.9483 238.924 53.2638 240.527 53.7834C240.592 53.2383 240.653 52.6902 240.717 52.1436Z" fill="#021B79"/>
<path d="M223.016 54.8064C224.113 55.8681 224.888 57.2737 225.333 58.7348C226.603 57.6911 227.184 55.8771 226.755 54.2898C225.782 54.0421 224.909 53.973 223.932 54.2028C223.812 54.2313 223.69 54.2643 223.594 54.3409C223.498 54.4175 223.435 54.5481 223.472 54.6653C223.433 54.7148 223.056 54.7584 223.016 54.8064Z" fill="#021B79"/>
<path d="M224.302 60.9936C225.705 60.5341 226.425 58.8831 225.909 57.3059C225.393 55.7287 223.836 54.8225 222.432 55.2819C221.029 55.7414 220.309 57.3924 220.825 58.9696C221.341 60.5468 222.898 61.453 224.302 60.9936Z" fill="#BDDEFF"/>
<path d="M224.809 58.4196C224.82 58.4211 224.829 58.4211 224.839 58.4211C224.968 58.4211 225.071 58.319 225.072 58.1914C225.074 57.9616 225.03 57.7334 224.947 57.5141C224.671 56.7753 223.953 56.2678 223.239 56.3068C223.115 56.3128 222.991 56.3368 222.871 56.3774C222.635 56.4555 222.423 56.5996 222.258 56.7933C222.175 56.8909 222.187 57.0366 222.285 57.1192C222.384 57.2003 222.528 57.1883 222.611 57.0922C222.722 56.9615 222.859 56.8684 223.018 56.8144C223.097 56.7873 223.179 56.7708 223.261 56.7678C223.782 56.7288 224.306 57.1222 224.513 57.6763C224.577 57.8445 224.608 58.0157 224.608 58.1884C224.608 58.307 224.695 58.4046 224.809 58.4196Z" fill="#8FBFEF"/>
<path d="M237.924 58.8101C238.332 58.777 238.691 59.0804 238.724 59.4888C238.759 59.8973 238.454 60.2562 238.045 60.2892C237.637 60.3223 237.278 60.0189 237.245 59.6105C237.21 59.2035 237.514 58.8446 237.924 58.8101Z" fill="#021B79"/>
<path d="M232.689 57.9634C233.098 57.9304 233.457 58.2337 233.491 58.6422C233.524 59.0506 233.221 59.4095 232.812 59.4425C232.404 59.4756 232.045 59.1722 232.01 58.7638C231.976 58.3553 232.281 57.9964 232.689 57.9634Z" fill="#021B79"/>
<path d="M230.849 55.3927C230.909 55.2456 231.117 55.187 231.305 55.1885C232.175 55.1945 233.006 55.4258 233.807 55.7396C234.089 55.8492 234.866 56.0805 234.679 56.4529C234.559 56.6947 234.067 56.8073 233.78 56.7337C233.142 56.57 232.506 56.3898 231.879 56.1946C231.521 56.085 230.653 55.8793 230.849 55.3927Z" fill="#021B79"/>
<path d="M240.845 56.9256C240.829 56.7664 240.644 56.6538 240.464 56.6027C239.628 56.3669 238.764 56.3579 237.908 56.4345C237.606 56.4615 236.797 56.4675 236.872 56.8775C236.92 57.1433 237.363 57.3896 237.657 57.3986C238.317 57.4196 238.976 57.4226 239.634 57.4106C240.008 57.4031 240.898 57.4481 240.845 56.9256Z" fill="#021B79"/>
<path d="M235.645 63.3559C235.68 63.3619 235.714 63.3604 235.747 63.3484C236.207 63.2118 236.525 62.9805 236.696 62.6621C236.851 62.3738 236.87 62.0359 236.753 61.6575C236.689 61.4503 236.585 61.186 236.466 60.8917C236.321 60.5298 236.157 60.1198 236.029 59.7083C235.992 59.5867 235.863 59.5206 235.741 59.5567C235.62 59.5942 235.552 59.7234 235.589 59.845C235.722 60.2745 235.89 60.6934 236.038 61.0629C236.151 61.3437 236.252 61.5944 236.313 61.7927C236.391 62.048 236.384 62.2672 236.291 62.4429C236.183 62.6456 235.95 62.8048 235.618 62.9039C235.495 62.9399 235.426 63.0691 235.463 63.1907C235.486 63.2823 235.559 63.3424 235.645 63.3559Z" fill="#8FBFEF"/>
<path d="M234.392 64.7723C234.791 64.7723 235.16 64.6973 235.432 64.5366C235.542 64.4705 235.576 64.3294 235.512 64.2182C235.447 64.1086 235.308 64.0741 235.193 64.1386C234.543 64.5306 233.033 64.2378 232.456 63.6086C232.369 63.5124 232.223 63.5079 232.13 63.5935C232.035 63.6791 232.029 63.8248 232.115 63.9194C232.599 64.451 233.561 64.7723 234.392 64.7723Z" fill="#8FBFEF"/>
<path d="M213.788 86.1103C217.317 86.1103 220.178 83.2495 220.178 79.7207C220.178 76.1918 217.317 73.3311 213.788 73.3311C210.259 73.3311 207.398 76.1918 207.398 79.7207C207.398 83.2495 210.259 86.1103 213.788 86.1103Z" fill="#BDDEFF"/>
<path d="M203.712 114.861C206.207 114.861 208.229 112.839 208.229 110.344C208.229 107.849 206.207 105.827 203.712 105.827C201.218 105.827 199.195 107.849 199.195 110.344C199.195 112.839 201.218 114.861 203.712 114.861Z" fill="#BDDEFF"/>
<path d="M219.87 81.7192L219.777 81.9219C215.283 91.6332 211.353 101.594 208.004 111.757L199.422 108.929L199.444 108.823C201.599 98.3426 204.355 87.9946 207.699 77.8298L207.735 77.7202L219.87 81.7192Z" fill="#BDDEFF"/>
<path d="M244.712 115.07C247.207 115.07 249.229 113.047 249.229 110.553C249.229 108.058 247.207 106.036 244.712 106.036C242.218 106.036 240.195 108.058 240.195 110.553C240.195 113.047 242.218 115.07 244.712 115.07Z" fill="#BDDEFF"/>
<path d="M251.494 124.363C253.307 124.363 254.776 122.893 254.776 121.08C254.776 119.268 253.307 117.798 251.494 117.798C249.681 117.798 248.211 119.268 248.211 121.08C248.211 122.893 249.681 124.363 251.494 124.363Z" fill="#BDDEFF"/>
<path d="M248.656 108.374C250.075 111.565 252.054 115.925 254.376 119.498L248.623 122.665C245.9 119.576 243.161 116.241 240.742 112.73L248.656 108.374Z" fill="#BDDEFF"/>
<path d="M258.017 121.363C257.95 121.354 257.881 121.348 257.812 121.348C257.457 121.345 257.115 121.46 256.765 121.514C256.415 121.567 256.023 121.546 255.757 121.312C255.613 121.184 255.522 121.007 255.437 120.833C255.187 120.312 254.967 119.774 254.781 119.226C255.798 119.161 256.816 119.095 257.833 119.031C258.019 119.019 258.211 119.008 258.384 119.079C259.933 119.714 261.323 121.345 262.432 122.573C262.605 122.764 262.787 123.013 262.703 123.256C262.661 123.376 262.558 123.467 262.446 123.527C262.13 123.696 261.735 123.654 261.407 123.51C261.078 123.366 260.8 123.132 260.518 122.909C259.833 122.369 258.941 121.487 258.017 121.363Z" fill="#BDDEFF"/>
<path d="M251.398 124.363C253.132 124.363 254.538 122.958 254.538 121.223C254.538 119.489 253.132 118.083 251.398 118.083C249.664 118.083 248.258 119.489 248.258 121.223C248.258 122.958 249.664 124.363 251.398 124.363Z" fill="#BDDEFF"/>
<path d="M250.016 119.108C249.283 119.569 248.667 120.227 248.277 121.001C248.08 121.39 247.917 121.833 247.872 122.269C247.827 122.7 248.136 122.907 248.504 123.078C249.082 123.347 249.663 123.617 250.267 123.822C250.858 124.023 251.48 124.159 252.105 124.132C252.935 124.096 253.749 123.758 254.362 123.195C254.634 122.946 254.866 122.653 255.15 122.419C255.435 122.185 255.793 122.004 256.159 122.039C256.472 122.068 256.754 122.248 256.979 122.467C257.204 122.686 257.388 122.945 257.598 123.179C257.88 123.496 258.223 123.773 258.627 123.903C259.03 124.032 259.505 123.991 259.835 123.725C259.897 123.676 259.954 123.619 259.978 123.544C260.029 123.394 259.937 123.236 259.849 123.105C259.074 121.962 258.241 120.398 256.903 119.838C256.24 119.56 255.623 119.47 255.029 119.051C254.437 118.636 253.606 118.352 252.88 118.406C251.282 118.527 250.779 118.63 250.016 119.108Z" fill="#BDDEFF"/>
<path d="M247.004 123.326C247.103 123.228 247.21 123.144 247.323 123.095C247.612 122.967 247.949 123.053 248.248 123.158C248.546 123.263 248.857 123.388 249.17 123.335C249.563 123.267 249.863 122.918 249.982 122.536C250.101 122.155 250.068 121.743 250.017 121.347C249.94 120.758 249.97 120.204 249.947 119.617C249.944 119.558 249.937 119.491 249.887 119.459C249.835 119.425 249.766 119.452 249.709 119.477C248.794 119.901 247.788 120.26 246.953 120.832C246.555 121.105 246.226 121.464 245.905 121.824C245.174 122.647 244.472 123.497 243.77 124.346C243.735 124.388 243.699 124.431 243.69 124.485C243.675 124.568 243.729 124.647 243.788 124.708C244.053 124.975 244.471 125.029 244.843 124.975C245.223 124.919 245.59 124.766 245.894 124.533C246.178 124.317 246.405 124.039 246.629 123.763C246.737 123.631 246.863 123.466 247.004 123.326Z" fill="#BDDEFF"/>
<path d="M255.619 124.804C254.785 124.451 254.38 123.523 254.064 122.737C253.905 122.339 253.774 121.922 253.582 121.536C253.324 120.751 252.877 120.144 252.195 119.701C252.171 119.686 252.145 119.668 252.136 119.641C252.13 119.623 252.133 119.602 252.138 119.582C252.175 119.426 252.328 119.333 252.47 119.255C252.765 119.093 253.075 118.85 253.417 118.814C253.776 118.776 254.135 118.938 254.407 119.177C254.862 119.575 255.2 120.142 255.435 120.689C255.962 121.911 256.481 123.111 257.119 124.277C257.17 124.37 257.221 124.479 257.18 124.577C257.153 124.64 257.095 124.681 257.036 124.715C256.61 124.96 256.069 124.994 255.619 124.804Z" fill="#BDDEFF"/>
<path d="M203.705 114.861C206.199 114.861 208.222 112.839 208.222 110.344C208.222 107.849 206.199 105.827 203.705 105.827C201.21 105.827 199.188 107.849 199.188 110.344C199.188 112.839 201.21 114.861 203.705 114.861Z" fill="#BDDEFF"/>
<path d="M231.783 124.137C233.596 124.137 235.065 122.667 235.065 120.854C235.065 119.041 233.596 117.571 231.783 117.571C229.97 117.571 228.5 119.041 228.5 120.854C228.5 122.667 229.97 124.137 231.783 124.137Z" fill="#BDDEFF"/>
<path d="M205.246 106.101C207.511 106.925 211.541 108.837 216.064 110.822C221.371 113.152 229.177 116.413 232.909 117.77L230.656 123.939C223.121 121.626 211.082 117.543 202.148 114.587L205.246 106.101Z" fill="#BDDEFF"/>
<path d="M231.783 124.137C233.596 124.137 235.065 122.667 235.065 120.854C235.065 119.041 233.596 117.572 231.783 117.572C229.97 117.572 228.5 119.041 228.5 120.854C228.5 122.667 229.97 124.137 231.783 124.137Z" fill="#BDDEFF"/>
<path d="M231.936 117.575C234.188 117.192 236.741 117.668 239.39 117.614C241.973 117.56 245.118 120.23 246.268 122.439C246.58 123.04 246.894 123.64 247.206 124.241C247.29 124.403 247.366 124.627 247.226 124.746C246.996 124.941 246.112 124.807 245.856 124.74C245.625 124.678 245.416 124.553 245.221 124.415C244.859 124.158 244.533 123.852 244.254 123.507C244.418 123.708 244.72 124.537 244.527 124.759C244.235 125.098 243.452 124.999 243.059 124.926C242.55 124.831 242.09 124.585 241.718 124.228C241.338 123.863 241.018 123.435 240.619 123.091C239.95 122.514 239.099 122.205 238.268 121.907C239.407 122.427 240.001 123.372 240.766 124.363C241.119 124.821 241.646 125.638 240.641 125.54C239.965 125.474 239.539 124.897 239.048 124.498C238.579 124.116 238.142 123.589 237.557 123.387C236.846 123.139 236.151 123.631 235.486 123.837C235.01 123.984 234.505 124.234 234.013 124.289C233.444 124.354 232.286 124.268 231.664 124.136C231.687 123.235 231.874 118.532 231.936 117.575Z" fill="#BDDEFF"/>
<path d="M243.461 117.824C244.147 117.932 244.624 118.545 245.012 119.122C245.264 119.499 245.51 119.882 245.725 120.281C246.126 121.026 246.417 121.829 246.589 122.658C246.613 122.778 246.635 122.901 246.616 123.023C246.538 123.498 245.86 123.631 245.449 123.382C245.037 123.133 244.82 122.672 244.561 122.266C243.705 120.921 242.175 120.027 240.582 119.945C240.246 119.927 239.855 119.919 239.651 119.652C239.468 119.413 239.526 119.054 239.706 118.811C240.313 117.996 242.521 117.676 243.461 117.824Z" fill="#BDDEFF"/>
<path d="M243.305 125.735L272.02 124.822C273.419 124.777 274.587 123.741 274.796 122.356L277.851 102.218C278.007 101.183 277.188 100.259 276.142 100.294L249.468 101.141C248.05 101.186 246.868 102.236 246.655 103.638L243.305 125.735Z" fill="#69A8E8"/>
<path d="M228.297 124.301L273.707 122.858C273.975 122.849 274.198 123.059 274.206 123.327L274.236 124.27C274.245 124.537 274.035 124.761 273.767 124.768L228.357 126.211C228.09 126.22 227.866 126.01 227.858 125.743L227.828 124.8C227.821 124.533 228.03 124.309 228.297 124.301Z" fill="#69A8E8"/>
<path d="M244.695 125.69L273.41 124.777C274.81 124.732 275.978 123.696 276.187 122.311L279.241 102.172C279.397 101.137 278.579 100.214 277.532 100.248L250.858 101.095C249.441 101.14 248.259 102.19 248.046 103.593L244.695 125.69Z" fill="#0575E6"/>
<path d="M262.603 114.971C263.734 114.971 264.651 114.054 264.651 112.923C264.651 111.792 263.734 110.875 262.603 110.875C261.472 110.875 260.555 111.792 260.555 112.923C260.555 114.054 261.472 114.971 262.603 114.971Z" fill="white"/>
<path d="M106.574 251.303C138.493 251.303 164.368 225.428 164.368 193.51C164.368 161.591 138.493 135.716 106.574 135.716C74.6562 135.716 48.7812 161.591 48.7812 193.51C48.7812 225.428 74.6562 251.303 106.574 251.303Z" fill="#70AEED"/>
<path d="M70.4288 229.554C67.1311 226.256 64.3515 222.57 62.1666 218.593C51.6819 199.95 53.9464 176.542 67.8053 160.342C76.6427 150.011 88.9984 143.731 102.602 142.663C116.209 141.592 129.392 145.869 139.72 154.703C140.753 155.583 141.737 156.492 142.683 157.436C161.379 176.132 162.573 206.538 145.398 226.656C136.481 237.044 124.116 243.339 110.598 244.385C100.404 245.185 90.3499 242.955 81.5171 237.933C78.5543 236.252 75.8978 234.411 73.4006 232.295C72.3584 231.407 71.3928 230.52 70.4288 229.554ZM140.54 159.596C139.671 158.726 138.722 157.854 137.738 157.022C117.638 139.843 87.306 142.222 70.1269 162.321C57.4123 177.102 55.0487 198.704 64.2404 216.069C66.4433 220.256 69.2454 224.064 72.5701 227.389C73.4621 228.281 74.4007 229.143 75.3768 229.973C78.0497 232.25 80.9585 234.227 84.0279 235.855C92.0032 240.141 101.1 242.054 110.327 241.383C123.118 240.357 134.745 234.426 143.072 224.68C159.228 205.757 158.116 177.171 140.54 159.596Z" fill="white"/>
<path d="M127.722 186.617L122.427 191.912L114.2 200.139L102.96 197.129L99.9489 185.889L107.906 177.931L113.471 172.366C106.298 170.252 98.2235 172.024 92.5637 177.684C84.3225 185.925 84.3225 199.287 92.5637 207.528C100.805 215.769 114.167 215.769 122.408 207.528C128.066 201.866 129.837 193.79 127.722 186.617Z" fill="white"/>
<path d="M105.605 209.101L80.7768 233.93C78.4597 232.863 76.3093 231.57 74.3346 229.988C73.5268 229.336 72.7879 228.675 72.0596 227.947C69.5503 225.438 67.5696 222.52 66.1641 219.317L90.9927 194.488L105.605 209.101Z" fill="white"/>
</svg>
