<svg width="358" height="260" viewBox="0 0 358 260" fill="none" xmlns="http://www.w3.org/2000/svg">
<path fill-rule="evenodd" clip-rule="evenodd" d="M186.933 260.001C281.015 260.001 357.788 257.645 357.788 254.818C357.788 251.991 281.015 249.635 186.933 249.635C92.7812 249.635 16.0078 251.991 16.0078 254.818C16.0078 257.645 92.7812 260.001 186.933 260.001Z" fill="#DFEFFF"/>
<path fill-rule="evenodd" clip-rule="evenodd" d="M42.6442 137.717C27.8438 147.237 19.5151 157.936 20.3189 168.592C22.3699 195.38 81.8762 211.469 153.217 204.554C185.34 201.436 214.414 194.147 236.421 184.682C246.703 191.126 258.566 194.327 270.913 193.149C305.489 189.781 330.905 153.349 327.717 111.775C326.415 95.1034 320.691 80.1506 312.155 68.4406C326.955 58.9201 335.284 48.2217 334.48 37.6065C332.374 10.7774 272.881 -5.31175 201.582 1.6034C169.417 4.72145 140.385 12.0108 118.337 21.5174C108.096 15.0318 96.2331 11.8306 83.8995 13.0501C49.3237 16.376 23.8666 52.8088 27.0955 94.4244C28.3704 111.054 34.0522 126.007 42.6442 137.717Z" fill="#D5EAFF"/>
<path fill-rule="evenodd" clip-rule="evenodd" d="M37.0264 45.2148C53.2541 46.8224 70.1332 56.8417 81.6354 73.4852C93.1375 90.1287 96.5466 109.447 92.3199 125.203C76.0921 123.596 59.2131 113.576 47.7109 96.9329C36.2088 80.2895 32.7997 60.9575 37.0264 45.2148Z" fill="#387EC5"/>
<path d="M92.526 125.509L92.2904 125.481C75.3559 123.804 58.6016 113.189 47.4875 97.0858C36.3595 80.9827 32.3407 61.5677 36.7614 45.1321L36.8168 44.8965L37.0524 44.9242C53.973 46.601 70.7274 57.2163 81.8554 73.3193C92.9833 89.4084 96.9883 108.837 92.5815 125.273L92.526 125.509ZM37.2326 45.5201C32.9643 61.734 36.9554 80.8719 47.9448 96.767C58.9203 112.648 75.4252 123.153 92.1103 124.899C96.3785 108.671 92.3874 89.5331 81.398 73.6519C70.4086 57.7567 53.9176 47.2523 37.2326 45.5201Z" fill="#387EC5"/>
<path d="M92.4868 125.439C92.3621 125.522 92.182 125.494 92.0988 125.369L36.8053 45.3809C36.7222 45.2561 36.7499 45.076 36.8746 44.9928C36.9994 44.9097 37.1795 44.9374 37.2627 45.0621L92.5561 125.051C92.6393 125.161 92.6116 125.342 92.4868 125.439Z" fill="white"/>
<path d="M46.8086 59.3645C46.767 59.3923 46.7116 59.4061 46.6561 59.42C46.5037 59.4338 46.3651 59.3091 46.3651 59.1567L45.7692 46.9893C45.7554 46.8369 45.8801 46.6983 46.0325 46.6983C46.185 46.6845 46.3236 46.8092 46.3236 46.9616L46.9194 59.129C46.9333 59.2121 46.8779 59.3091 46.8086 59.3645ZM53.8207 69.5086C53.7514 69.5502 53.6683 69.5779 53.5851 69.5502L35.4866 64.88C35.3342 64.8385 35.251 64.686 35.2787 64.5336C35.3203 64.3811 35.4727 64.298 35.6252 64.3257L53.7237 68.9959C53.8762 69.0374 53.9593 69.1899 53.9316 69.3423C53.9177 69.4116 53.8762 69.467 53.8207 69.5086ZM61.2348 80.2208C61.1793 80.2624 61.0962 80.2763 61.0269 80.2624C60.8745 80.2347 60.7775 80.0823 60.8052 79.9298L65.0319 56.4821C65.0596 56.3296 65.212 56.2326 65.3645 56.2603C65.5169 56.2881 65.6139 56.4405 65.5862 56.5929L61.3595 80.0407C61.3318 80.1238 61.2902 80.1793 61.2348 80.2208ZM72.7369 96.8782C72.6676 96.9198 72.5845 96.9475 72.5013 96.9198L42.3463 88.2862C42.1939 88.2446 42.1107 88.0922 42.1523 87.9398C42.1939 87.7873 42.3463 87.7042 42.4987 87.7457L72.6538 96.3931C72.8062 96.4347 72.8894 96.5872 72.8478 96.7396C72.8339 96.795 72.7924 96.8505 72.7369 96.8782ZM80.9409 108.741C80.8854 108.782 80.8023 108.796 80.733 108.782C80.5806 108.754 80.4835 108.602 80.5113 108.45L85.6249 80.401C85.6526 80.2486 85.805 80.1516 85.9575 80.1793C86.1099 80.207 86.2069 80.3594 86.1792 80.5119L81.0656 108.574C81.0517 108.644 80.9963 108.699 80.9409 108.741ZM86.8998 117.36C86.8444 117.402 86.7751 117.416 86.6919 117.402L63.5491 113.799C63.3966 113.771 63.2858 113.633 63.3135 113.48C63.3412 113.328 63.4798 113.217 63.6322 113.244L86.7751 116.848C86.9275 116.875 87.0384 117.014 87.0107 117.166C87.0107 117.249 86.9552 117.319 86.8998 117.36Z" fill="white"/>
<path fill-rule="evenodd" clip-rule="evenodd" d="M0.375 112.993C12.1127 101.671 30.6825 95.3244 50.8182 97.3476C70.94 99.3709 87.8745 109.293 97.1316 122.722C85.3801 134.044 66.8242 140.391 46.6885 138.367C26.5528 136.344 9.63215 126.422 0.375 112.993Z" fill="#61A5EA"/>
<path d="M97.4911 122.764L97.3248 122.93C85.0743 134.737 66.1304 140.613 46.6599 138.645C27.1756 136.691 9.79762 127.157 0.13858 113.147L0 112.953L0.166297 112.786C12.4168 100.979 31.3468 95.1036 50.8312 97.0714C70.3017 99.0254 87.6935 108.56 97.3525 122.57L97.4911 122.764ZM0.748333 113.022C10.3242 126.783 27.4943 136.151 46.7154 138.091C65.9226 140.031 84.617 134.266 96.7566 122.695C87.1669 108.934 69.9968 99.5658 50.7896 97.6396C31.5686 95.6995 12.8741 101.451 0.748333 113.022Z" fill="#61A5EA"/>
<path d="M97.4077 122.749C97.3938 122.902 97.2552 123.013 97.1028 122.999L0.359988 113.257C0.20755 113.243 0.0966865 113.104 0.110545 112.952C0.124403 112.799 0.262982 112.688 0.41542 112.702L97.1582 122.445C97.3107 122.458 97.4215 122.597 97.4077 122.749Z" fill="white"/>
<path d="M17.4897 114.713C17.4897 114.768 17.462 114.81 17.4343 114.851C17.3373 114.976 17.1571 115.004 17.0324 114.907L7.3872 107.465C7.26248 107.368 7.23476 107.188 7.33177 107.063C7.42878 106.938 7.60893 106.911 7.73365 107.008L17.3788 114.449C17.462 114.519 17.5036 114.616 17.4897 114.713ZM29.754 115.946C29.7402 116.029 29.6986 116.098 29.6293 116.154L14.3439 126.908C14.2192 126.991 14.039 126.963 13.9559 126.838C13.8728 126.714 13.9005 126.534 14.0252 126.45L29.3106 115.697C29.4353 115.613 29.6155 115.641 29.6986 115.766C29.754 115.807 29.7679 115.877 29.754 115.946ZM42.7251 117.249C42.7113 117.318 42.6836 117.387 42.6281 117.443C42.5034 117.54 42.3232 117.526 42.2262 117.401L27.121 98.9838C27.024 98.8591 27.0379 98.6789 27.1626 98.5819C27.2873 98.4849 27.4675 98.4987 27.5645 98.6235L42.6697 117.041C42.7113 117.11 42.739 117.179 42.7251 117.249ZM62.8747 119.286C62.8608 119.369 62.8193 119.438 62.75 119.494L36.6276 136.858C36.5029 136.941 36.3227 136.913 36.2396 136.775C36.1564 136.65 36.1842 136.47 36.3227 136.387L62.4451 119.022C62.5698 118.939 62.75 118.967 62.8331 119.106C62.8608 119.147 62.8747 119.216 62.8747 119.286ZM77.2177 120.727C77.2039 120.796 77.1761 120.866 77.1207 120.921C76.996 121.018 76.8158 121.004 76.7188 120.879L58.6757 98.7898C58.5787 98.665 58.5926 98.4849 58.7173 98.3879C58.842 98.2909 59.0222 98.3047 59.1192 98.4295L77.1761 120.505C77.2039 120.575 77.2316 120.658 77.2177 120.727ZM87.6389 121.766C87.6251 121.836 87.5974 121.905 87.5419 121.946L69.7898 137.246C69.6651 137.343 69.4988 137.329 69.3879 137.218C69.2909 137.093 69.3048 136.927 69.4157 136.816L87.1678 121.517C87.2925 121.42 87.4588 121.434 87.5697 121.545C87.6251 121.614 87.6528 121.697 87.6389 121.766Z" fill="white"/>
<path fill-rule="evenodd" clip-rule="evenodd" d="M155.758 35.168C159.43 51.0492 155.342 70.2565 143.272 86.4842C131.188 102.712 113.99 112.135 97.7067 113.175C94.0343 97.2796 98.1224 78.0862 110.193 61.8585C122.263 45.6446 139.489 36.2073 155.758 35.168Z" fill="#387EC5"/>
<path d="M97.4876 113.48L97.4322 113.244C93.6073 96.6698 98.2914 77.3933 109.974 61.7061C121.656 45.9911 138.771 35.9717 155.747 34.8908L155.982 34.877L156.038 35.1125C159.876 51.6867 155.192 70.9494 143.496 86.6505C131.814 102.352 114.699 112.371 97.7232 113.466L97.4876 113.48ZM155.539 35.4728C138.812 36.6231 121.961 46.5454 110.417 62.0387C98.8872 77.5319 94.231 96.5174 97.9172 112.884C114.658 111.72 131.509 101.811 143.039 86.3179C154.583 70.8108 159.239 51.8253 155.539 35.4728Z" fill="#387EC5"/>
<path d="M97.5435 113.411C97.4187 113.314 97.391 113.148 97.488 113.009L155.539 35.0024C155.636 34.8777 155.803 34.85 155.941 34.947C156.066 35.044 156.094 35.2103 155.997 35.3489L97.9315 113.342C97.8345 113.48 97.6682 113.494 97.5435 113.411Z" fill="white"/>
<path d="M145.495 48.9711C145.453 48.9434 145.425 48.9018 145.398 48.8464C145.342 48.7078 145.411 48.5415 145.564 48.4861L156.9 44.0238C157.038 43.9684 157.205 44.0376 157.26 44.1901C157.315 44.3287 157.246 44.495 157.094 44.5504L145.758 49.0127C145.675 49.0404 145.564 49.0265 145.495 48.9711ZM138.136 58.8657C138.067 58.8241 138.025 58.741 138.025 58.6578L136.653 40.0188C136.639 39.8664 136.764 39.7278 136.916 39.7139C137.069 39.7001 137.208 39.8248 137.221 39.9772L138.593 58.6163C138.607 58.7687 138.482 58.9073 138.33 58.9211C138.247 58.9211 138.191 58.9073 138.136 58.8657ZM130.348 69.3147C130.292 69.2731 130.251 69.2038 130.237 69.1345C130.209 68.9821 130.32 68.8435 130.473 68.8158L154.031 65.3097C154.184 65.282 154.322 65.3928 154.35 65.5453C154.378 65.6977 154.267 65.8363 154.114 65.864L130.556 69.3701C130.486 69.3839 130.403 69.3562 130.348 69.3147ZM118.264 85.5562C118.194 85.5008 118.153 85.4315 118.153 85.3484L116.67 54.0154C116.656 53.863 116.781 53.7244 116.933 53.7244C117.086 53.7105 117.224 53.8353 117.224 53.9877L118.707 85.3207C118.721 85.4731 118.596 85.6117 118.444 85.6117C118.374 85.6255 118.319 85.5978 118.264 85.5562ZM109.658 97.1277C109.602 97.0861 109.561 97.0168 109.547 96.9475C109.519 96.7951 109.63 96.6565 109.783 96.6288L137.997 92.4852C138.15 92.4575 138.288 92.5684 138.316 92.7208C138.344 92.8733 138.233 93.0119 138.081 93.0396L109.866 97.1831C109.783 97.197 109.713 97.1693 109.658 97.1277ZM103.394 105.526C103.339 105.484 103.297 105.415 103.283 105.345L99.2781 82.258C99.2504 82.1056 99.3474 81.9532 99.5137 81.9254C99.6662 81.8977 99.8186 82.0086 99.8463 82.161L103.851 105.248C103.879 105.401 103.768 105.553 103.616 105.581C103.533 105.595 103.463 105.581 103.394 105.526Z" fill="white"/>
<path fill-rule="evenodd" clip-rule="evenodd" d="M79.8132 22.168C94.2949 29.6652 106.254 45.2138 110.786 64.9338C115.317 84.6537 111.34 103.861 101.584 116.929C87.1025 109.418 75.1292 93.8832 70.6115 74.1632C66.0938 54.4433 70.0433 35.2361 79.8132 22.168Z" fill="#61A5EA"/>
<path d="M101.67 117.304L101.462 117.193C86.3566 109.364 74.7158 93.3021 70.3367 74.2335C65.9437 55.151 69.4082 35.625 79.58 22.0026L79.7186 21.8086L79.9265 21.9195C95.0317 29.7354 106.672 45.7968 111.052 64.8793C115.431 83.9479 111.98 103.474 101.794 117.11L101.67 117.304ZM79.8987 22.5292C69.9348 36.0131 66.5535 55.2757 70.891 74.1087C75.2147 92.9279 86.6476 108.781 101.517 116.584C111.481 103.086 114.849 83.8232 110.525 65.004C106.187 46.171 94.7545 30.3174 79.8987 22.5292Z" fill="#61A5EA"/>
<path d="M101.644 117.206C101.492 117.247 101.34 117.15 101.312 116.998L79.5409 22.2368C79.4993 22.0843 79.5963 21.9319 79.7488 21.9042C79.9012 21.8626 80.0537 21.9596 80.0814 22.1121L101.852 116.887C101.894 117.026 101.797 117.178 101.644 117.206Z" fill="white"/>
<path d="M83.6528 38.9359C83.5973 38.9498 83.5558 38.9498 83.5003 38.9221C83.3479 38.8666 83.2786 38.7142 83.3202 38.5617L87.2836 27.0319C87.339 26.8794 87.4914 26.8102 87.6439 26.8517C87.7963 26.9072 87.8656 27.0596 87.824 27.212L83.8745 38.7419C83.8329 38.8389 83.7498 38.9082 83.6528 38.9359ZM86.4244 50.9508C86.3412 50.9647 86.2581 50.9508 86.1888 50.9092L71.0974 39.8783C70.9727 39.7813 70.945 39.615 71.042 39.4902C71.139 39.3655 71.3053 39.3378 71.43 39.4348L86.5214 50.4658C86.6461 50.5628 86.6738 50.7291 86.5768 50.8538C86.5491 50.8954 86.4798 50.937 86.4244 50.9508ZM89.3346 63.6447C89.2653 63.6586 89.1821 63.6447 89.1267 63.6032C88.9881 63.52 88.9604 63.3399 89.0297 63.2151L101.627 42.9963C101.71 42.8577 101.89 42.83 102.015 42.8993C102.153 42.9825 102.181 43.1626 102.112 43.2873L89.5147 63.5062C89.4731 63.5893 89.4038 63.6309 89.3346 63.6447ZM93.88 83.3786C93.7968 83.3924 93.7137 83.3786 93.6444 83.3231L68.8247 64.1436C68.7 64.0466 68.6723 63.8665 68.7693 63.7418C68.8663 63.617 69.0464 63.5893 69.1711 63.6863L93.977 82.8797C94.1017 82.9767 94.1294 83.1568 94.0324 83.2816C93.9909 83.337 93.9354 83.3647 93.88 83.3786ZM97.1089 97.4444C97.0396 97.4583 96.9565 97.4444 96.901 97.4029C96.7625 97.3197 96.7347 97.1396 96.8179 97.0148L111.951 72.8465C112.034 72.7079 112.214 72.6802 112.339 72.7633C112.477 72.8465 112.505 73.0266 112.422 73.1513L97.2752 97.3197C97.2336 97.3751 97.1782 97.4167 97.1089 97.4444ZM99.4509 107.644C99.3816 107.658 99.3123 107.644 99.243 107.616L79.0658 95.6983C78.9272 95.6152 78.8856 95.4489 78.9688 95.3103C79.0519 95.1717 79.2182 95.1301 79.3568 95.2133L99.5341 107.131C99.6726 107.214 99.7142 107.381 99.6311 107.519C99.5895 107.589 99.5202 107.63 99.4509 107.644Z" fill="white"/>
<path d="M190.246 207.881H167.547V247.085H190.246V207.881Z" fill="#0627A3"/>
<path fill-rule="evenodd" clip-rule="evenodd" d="M77.4538 87.5508H280.28C283.148 87.5508 285.463 89.8651 285.463 92.7337V217.858C285.463 220.685 283.148 222.999 280.28 222.999H77.4538C74.6268 222.999 72.3125 220.685 72.3125 217.858V92.7337C72.3264 89.8651 74.6406 87.5508 77.4538 87.5508Z" fill="#0575E6"/>
<path d="M275.441 96.8223H82.3438V213.742H275.441V96.8223Z" fill="#62A7EC"/>
<path fill-rule="evenodd" clip-rule="evenodd" d="M225.744 245.02L233.117 254.291H178.863H124.664L132.037 245.02H179.791H225.744Z" fill="#0575E6"/>
<path fill-rule="evenodd" clip-rule="evenodd" d="M52.4609 75.8535C56.1749 98.5668 66.3189 114.06 79.7058 122.832V123.054C79.7058 123.594 80.0661 124.01 80.4957 124.01C80.9253 124.01 81.3133 123.594 81.3133 123.054V122.832C94.7002 114.046 104.844 98.5668 108.53 75.8535C106.923 76.2416 105.232 76.4217 103.514 76.4217C94.6309 76.4217 86.912 71.2111 82.8654 63.4922H78.1537C74.121 71.2111 66.3744 76.4217 57.5052 76.4217C55.7869 76.4356 54.0962 76.2416 52.4609 75.8535Z" fill="white"/>
<path fill-rule="evenodd" clip-rule="evenodd" d="M57.4609 79.5675C60.482 98.2481 68.8384 110.984 79.8416 118.204V118.37C79.8416 118.8 80.1465 119.16 80.493 119.16C80.881 119.16 81.1443 118.8 81.1443 118.37V118.204C92.1614 110.984 100.504 98.2481 103.553 79.5675C102.222 79.8724 100.823 80.0248 99.4091 80.0248C91.912 80.0248 85.3987 75.4933 82.1421 68.8691H78.8161C75.5734 75.4933 69.0878 80.0248 61.5768 80.0248C60.1771 80.0387 58.7913 79.8724 57.4609 79.5675Z" fill="#62A7EC"/>
<path fill-rule="evenodd" clip-rule="evenodd" d="M80.4938 80.3301C83.5149 80.3301 85.9955 82.8107 85.9955 85.8317V92.2618C85.9955 93.8971 85.261 95.366 84.1108 96.3777C84.1108 96.3222 84.1108 96.2668 84.1108 96.2114V86.0396C84.1108 84.044 82.4755 82.4088 80.48 82.4088C78.4844 82.4088 76.8492 84.044 76.8492 86.0396V96.2114C76.8492 96.2668 76.8492 96.3222 76.8492 96.3777C75.6989 95.366 74.9922 93.8971 74.9922 92.2618V85.8317C75.0199 82.8107 77.4728 80.3301 80.4938 80.3301Z" fill="white"/>
<path fill-rule="evenodd" clip-rule="evenodd" d="M72.6926 90.4473H88.2967C88.7541 90.4473 89.1421 90.8353 89.1421 91.2926V106.869C89.1421 107.326 88.7541 107.714 88.2967 107.714H72.6926C72.263 107.714 71.875 107.326 71.875 106.869V91.2926C71.875 90.8353 72.263 90.4473 72.6926 90.4473Z" fill="#0575E6"/>
<path fill-rule="evenodd" clip-rule="evenodd" d="M80.4917 95.5469C81.6974 95.5469 82.6675 96.5308 82.6675 97.7226C82.6675 98.6511 82.0438 99.4687 81.1985 99.7736V101.825C81.1985 102.254 80.8382 102.614 80.4363 102.614C80.0067 102.614 79.6741 102.254 79.6741 101.825V99.7181C78.8842 99.3855 78.3438 98.5956 78.3438 97.7226C78.3438 96.5308 79.3277 95.5469 80.4917 95.5469Z" fill="#0627A3"/>
<path fill-rule="evenodd" clip-rule="evenodd" d="M56.6531 250.258L55.004 250.84C52.9669 252.018 48.0196 251.45 48.8511 254.387L58.4131 254.36C58.4131 253.182 58.4962 251.921 57.8865 250.784L56.6531 250.258Z" fill="#6698CB"/>
<path fill-rule="evenodd" clip-rule="evenodd" d="M57.9457 249.191L55.0078 249.219V250.841C55.9917 251.118 56.9895 251.09 57.8903 250.785L57.9457 249.191Z" fill="#6686FF"/>
<path fill-rule="evenodd" clip-rule="evenodd" d="M71.1677 250.174L72.8446 250.617C74.9926 251.629 79.8567 250.7 79.2747 253.694L69.7404 254.387C69.6295 253.236 69.4632 251.975 69.9898 250.811L71.1677 250.174Z" fill="#6698CB"/>
<path fill-rule="evenodd" clip-rule="evenodd" d="M69.7969 249.19L72.7071 248.996L72.8456 250.617C71.9172 250.978 70.8917 251.006 69.9909 250.812L69.7969 249.19Z" fill="#6686FF"/>
<path fill-rule="evenodd" clip-rule="evenodd" d="M62.2957 200.881L69.1 207.505L73.3129 250.035L69.3217 250.202L63.4737 219.478L58.6095 250.146L54.3828 250.174L55.8102 207.727L62.2957 200.881Z" fill="#71ADEA"/>
<path fill-rule="evenodd" clip-rule="evenodd" d="M66.3849 178.432C63.8073 178.571 62.2691 178.294 59.7054 178.432C57.0169 178.515 55.5341 179.208 53.691 181.065C52.2359 182.631 47.3163 187.329 44.7664 190.655C42.951 193.177 43.3391 195.38 45.1822 196.891L53.206 202.143L54.4393 200.161L50.0463 194.341L54.1622 189.948L55.8113 207.728L69.0872 207.506L70.9027 185.361L78.5661 176.755C80.0489 175.162 79.1482 173.596 77.4159 172.778L68.3251 168.801L67.1194 171.572L73.2447 175.508L66.3849 178.432Z" fill="#81B9F1"/>
<path fill-rule="evenodd" clip-rule="evenodd" d="M63.3916 175.66L59.5391 175.799L59.7608 179.125C61.5208 180.497 63.059 180.441 63.9598 179.54L63.3916 175.66Z" fill="#6686FF"/>
<path fill-rule="evenodd" clip-rule="evenodd" d="M57.0191 169.202C59.5967 168.509 62.1604 167.802 64.7103 167.109C65.8328 168.509 66.8583 175.05 65.7773 176.865C64.3777 179.152 60.9686 178.376 59.763 176.644C58.5573 175.078 56.7973 170.879 57.0191 169.202Z" fill="#9BCDFF"/>
<path fill-rule="evenodd" clip-rule="evenodd" d="M59.8436 170.463C61.1601 168.176 64.0149 170.241 65.3452 169.645C66.3291 168.689 71.027 164.449 69.6274 162.065C68.6712 160.665 64.1257 161.649 62.5043 162.315C61.1601 162.786 59.705 163.576 58.6241 164.352C57.5293 165.308 57.0027 166.555 57.2522 167.955C56.4068 167.594 54.5637 169.354 54.536 170.075C54.1202 172.334 57.4184 172.653 58.6795 174.773C59.7327 174.51 59.511 170.74 59.8436 170.463Z" fill="#021B79"/>
<path fill-rule="evenodd" clip-rule="evenodd" d="M59.3309 173.761C60.786 173.124 60.6474 172.473 59.608 171.641C59.2754 171.198 58.5964 170.893 58.2915 171.503C58.0836 172.085 58.8874 173.235 59.3309 173.761Z" fill="#9BCDFF"/>
<path fill-rule="evenodd" clip-rule="evenodd" d="M68.2539 168.981C65.4546 167.914 61.7407 166.099 61.1309 166.916C60.6598 167.415 65.1913 168.233 65.9397 169.965C65.4962 170.021 65.3576 170.048 65.0389 169.937C64.5123 169.66 63.3344 168.787 62.7523 169.466C62.6969 169.854 64.5677 170.644 65.3853 170.977L67.0899 171.143L67.2839 171.254L68.2539 168.981ZM53.2734 202.06C53.9109 203.044 54.3128 204.264 55.4214 204.832C56.5439 205.248 58.0545 202.961 57.708 201.728C57.126 200.494 55.56 200.661 54.3821 200.245L53.2734 202.06Z" fill="#6686FF"/>
<path fill-rule="evenodd" clip-rule="evenodd" d="M303.142 35.0831L307.189 42.511C307.868 43.7582 307.41 45.3519 306.135 46.0448L297.446 50.7704C298.846 55.2604 299.303 59.8889 298.888 64.4066L308.366 67.206C309.738 67.6217 310.528 69.0629 310.126 70.4487L307.729 78.5557C307.327 79.9276 305.872 80.7175 304.5 80.3156L295.021 77.5163C292.915 81.5351 290.018 85.1798 286.402 88.187L291.127 96.8621C291.806 98.1232 291.349 99.7169 290.074 100.396L282.646 104.442C281.399 105.121 279.805 104.664 279.126 103.389L274.387 94.7003C269.897 96.0999 265.282 96.5572 260.75 96.1415L257.951 105.62C257.535 106.992 256.094 107.782 254.708 107.38L246.601 104.983C245.229 104.581 244.439 103.126 244.841 101.754L247.641 92.2751C243.622 90.1687 239.977 87.2724 236.97 83.6554L228.295 88.381C227.034 89.0601 225.44 88.6027 224.761 87.3278L220.715 79.8999C220.036 78.6527 220.493 77.059 221.768 76.38L230.457 71.6405C229.057 67.1505 228.6 62.5358 229.015 58.0042L219.537 55.2049C218.165 54.7892 217.375 53.3479 217.777 51.9622L220.174 43.8552C220.576 42.4833 222.031 41.6934 223.417 42.0952L232.896 44.8946C235.002 40.8757 237.898 37.2311 241.515 34.2239L236.79 25.5488C236.111 24.2877 236.568 22.694 237.843 22.015L245.271 17.9684C246.518 17.2894 248.112 17.7467 248.791 19.0217L253.53 27.7106C258.02 26.311 262.649 25.8537 267.167 26.2694L269.966 16.7905C270.382 15.4186 271.823 14.6287 273.209 15.0305L281.316 17.428C282.688 17.8437 283.477 19.285 283.076 20.6708L280.276 30.1496C284.295 32.2561 287.94 35.1524 290.947 38.7693L299.622 34.0437C300.883 33.3647 302.463 33.822 303.142 35.0831ZM279.833 52.5858C284.6 61.344 281.357 72.3057 272.599 77.0729C263.841 81.84 252.879 78.5973 248.112 69.839C243.345 61.0807 246.587 50.119 255.346 45.3519C264.118 40.5847 275.066 43.8275 279.833 52.5858Z" fill="#0627A3"/>
<path fill-rule="evenodd" clip-rule="evenodd" d="M288.493 47.8605C295.866 61.3998 290.863 78.362 277.31 85.7206C263.771 93.0931 246.808 88.0904 239.45 74.5372C232.077 60.9979 237.08 44.0357 250.633 36.6771C264.172 29.3185 281.135 34.3213 288.493 47.8605ZM279.832 52.5861C284.599 61.3444 281.356 72.3061 272.598 77.0732C263.84 81.8404 252.878 78.5976 248.111 69.8394C243.344 61.0811 246.587 50.1194 255.345 45.3522C264.117 40.5851 275.065 43.8279 279.832 52.5861Z" fill="#0575E6"/>
<path d="M235.82 64.6563C235.349 60.8593 235.667 56.9652 236.79 53.1958C238.938 45.9342 243.774 39.9475 250.426 36.3306C257.078 32.7136 264.741 31.896 272.003 34.044C279.265 36.192 285.251 41.0284 288.868 47.6803C292.485 54.3321 293.303 61.9956 291.155 69.2572C289.007 76.5188 284.17 82.5055 277.519 86.1224C270.867 89.7394 263.203 90.557 255.942 88.409C248.68 86.261 242.693 81.4245 239.076 74.7727C237.344 71.5715 236.249 68.1486 235.82 64.6563ZM291.28 57.8798C290.864 54.4846 289.811 51.1725 288.12 48.0822C284.614 41.6382 278.807 36.9403 271.754 34.8478C264.714 32.7691 257.272 33.559 250.828 37.065C244.37 40.5711 239.672 46.3776 237.594 53.4314C235.515 60.4712 236.305 67.913 239.811 74.357C243.317 80.8148 249.123 85.5127 256.177 87.5914C263.217 89.6701 270.659 88.8801 277.103 85.3741C283.561 81.868 288.258 76.0615 290.337 69.0078C291.432 65.3354 291.737 61.5522 291.28 57.8798ZM245.617 63.4507C245.313 60.9701 245.52 58.4341 246.255 55.9674C247.655 51.2279 250.814 47.3338 255.152 44.9641C259.489 42.6083 264.478 42.0817 269.218 43.4813C273.957 44.881 277.851 48.0406 280.221 52.3782C282.577 56.7157 283.103 61.7046 281.704 66.444C280.304 71.1835 277.144 75.0776 272.807 77.4473C268.469 79.8032 263.48 80.3298 258.741 78.9301C254.001 77.5304 250.107 74.3708 247.738 70.0333C246.615 67.9546 245.895 65.7373 245.617 63.4507ZM281.468 59.0439C281.205 56.9097 280.553 54.7894 279.459 52.78C277.214 48.6365 273.486 45.6293 268.968 44.2989C264.45 42.9686 259.683 43.4674 255.554 45.7263C249.013 49.2878 245.631 56.4108 246.477 63.3814C246.74 65.5155 247.391 67.6358 248.486 69.6314C253.128 78.1679 263.855 81.3414 272.391 76.699C278.932 73.1375 282.327 66.0144 281.468 59.0439Z" fill="#0575E6"/>
<path fill-rule="evenodd" clip-rule="evenodd" d="M343.617 99.5091L344.158 104.359C344.255 105.177 343.659 105.925 342.827 106.022L337.159 106.66C336.938 109.362 336.175 111.94 334.97 114.254L339.432 117.815C340.083 118.328 340.18 119.284 339.668 119.922L336.619 123.733C336.106 124.384 335.164 124.481 334.512 123.968L330.05 120.407C328.055 122.098 325.713 123.414 323.121 124.232L323.759 129.886C323.856 130.703 323.26 131.452 322.428 131.549L317.578 132.089C316.76 132.186 316.012 131.59 315.929 130.759L315.291 125.091C312.589 124.869 310.025 124.107 307.697 122.901L304.136 127.364C303.623 128.015 302.667 128.112 302.029 127.599L298.218 124.55C297.567 124.038 297.47 123.095 297.983 122.444L301.544 117.982C299.854 115.986 298.537 113.644 297.719 111.053L292.065 111.69C291.248 111.787 290.499 111.191 290.402 110.36L289.862 105.51C289.765 104.692 290.361 103.944 291.192 103.86L296.86 103.223C297.082 100.521 297.844 97.957 299.05 95.6288L294.587 92.0673C293.936 91.5546 293.839 90.5984 294.352 89.9609L297.401 86.1499C297.913 85.4986 298.856 85.4016 299.507 85.9144L303.956 89.4759C305.951 87.7852 308.293 86.4687 310.885 85.651L310.247 79.997C310.15 79.1794 310.746 78.431 311.577 78.334L316.428 77.7936C317.245 77.6965 317.994 78.2924 318.077 79.1239L318.714 84.7918C321.417 85.0136 323.994 85.7758 326.308 86.9814L329.87 82.5191C330.383 81.8678 331.339 81.7708 331.976 82.2836L335.787 85.3323C336.439 85.8451 336.536 86.8013 336.023 87.4387L332.461 91.8872C334.152 93.8827 335.469 96.2247 336.286 98.8162L341.94 98.1787C342.786 98.0955 343.52 98.6914 343.617 99.5091ZM327.362 103.777C327.999 109.501 323.883 114.642 318.174 115.279C312.45 115.917 307.309 111.801 306.672 106.092C306.034 100.368 310.15 95.2269 315.86 94.5895C321.569 93.952 326.724 98.0678 327.362 103.777Z" fill="#0627A3"/>
<path fill-rule="evenodd" clip-rule="evenodd" d="M333.015 103.153C334.013 111.995 327.638 119.963 318.811 120.947C309.969 121.945 302.001 115.57 301.017 106.742C300.019 97.901 306.394 89.9327 315.221 88.9487C324.049 87.951 332.017 94.3118 333.015 103.153ZM327.361 103.777C327.998 109.5 323.883 114.641 318.173 115.279C312.45 115.916 307.308 111.801 306.671 106.091C306.034 100.368 310.149 95.2264 315.859 94.589C321.568 93.9515 326.724 98.0673 327.361 103.777Z" fill="#0575E6"/>
<path d="M301.229 100.645C301.811 98.5107 302.822 96.5013 304.236 94.7275C306.966 91.3184 310.846 89.1704 315.198 88.6854C319.535 88.2004 323.803 89.4337 327.226 92.1499C330.635 94.8799 332.783 98.7602 333.268 103.112C333.753 107.449 332.52 111.717 329.804 115.14C327.074 118.549 323.194 120.697 318.842 121.182C314.505 121.667 310.236 120.434 306.813 117.718C303.404 114.988 301.256 111.108 300.771 106.756C300.536 104.678 300.688 102.613 301.229 100.645ZM332.326 109.098C332.839 107.2 333.005 105.19 332.769 103.181C332.298 98.968 330.22 95.1986 326.908 92.5518C323.595 89.9049 319.452 88.7131 315.239 89.1843C311.026 89.6554 307.257 91.7341 304.61 95.0462C301.963 98.3583 300.771 102.502 301.242 106.715C301.714 110.927 303.792 114.697 307.104 117.344C310.417 119.991 314.56 121.182 318.773 120.711C322.986 120.24 326.755 118.161 329.402 114.849C330.774 113.117 331.758 111.163 332.326 109.098ZM306.716 102.142C307.091 100.756 307.756 99.4392 308.684 98.289C310.458 96.0717 312.994 94.672 315.835 94.3533C318.662 94.0346 321.447 94.8383 323.679 96.6122C325.896 98.386 327.296 100.922 327.614 103.763C327.933 106.59 327.129 109.375 325.355 111.607C323.582 113.824 321.046 115.223 318.205 115.542C315.378 115.861 312.592 115.057 310.361 113.283C308.144 111.51 306.744 108.974 306.425 106.133C306.259 104.761 306.37 103.416 306.716 102.142ZM326.824 107.588C327.143 106.396 327.254 105.121 327.115 103.804C326.811 101.102 325.48 98.677 323.36 96.9863C321.24 95.2956 318.579 94.5196 315.877 94.8245C311.608 95.2957 308.255 98.3721 307.188 102.28C306.869 103.472 306.758 104.747 306.897 106.063C307.52 111.634 312.565 115.667 318.135 115.043C322.404 114.572 325.771 111.496 326.824 107.588Z" fill="#0575E6"/>
<path fill-rule="evenodd" clip-rule="evenodd" d="M287.937 191.817C286.87 191.623 285.983 189.031 285.359 189.585C284.777 190.181 286.177 191.539 285.955 191.761C285.262 192.814 282.103 191.304 281.645 192.232C280.509 194.547 284.846 195.905 288.63 194.505L288.865 192.509C288.907 192.274 290.778 192.412 287.937 191.817Z" fill="#6686FF"/>
<path fill-rule="evenodd" clip-rule="evenodd" d="M319.171 188.741L312.269 182.172L304.744 192.233L288.198 191.581L287.852 195.309L304.703 197.901C307.17 197.942 307.821 197.388 309.124 196.446L319.171 188.741Z" fill="#647DDD"/>
<path fill-rule="evenodd" clip-rule="evenodd" d="M313.64 252.363C311.991 253.679 306.489 254.164 308.707 256.284C311.506 256.063 314.305 255.841 317.105 255.605C317.271 254.524 317.368 253.388 316.758 252.432L315.137 250.062L313.64 252.363ZM325.309 252.099C323.659 253.402 318.158 253.901 320.375 256.021C323.174 255.799 325.974 255.578 328.773 255.356C328.939 254.275 329.036 253.139 328.44 252.182L326.819 249.799L325.309 252.099Z" fill="#81B9F1"/>
<path fill-rule="evenodd" clip-rule="evenodd" d="M320.738 204.512L328.069 208.337L326.752 226.671L328.304 251.865L325.297 251.92L320.364 226.366L320.142 218.093L318.341 226.269L316.761 252.447L313.643 252.363L311.453 224.356L313.615 207.879L320.738 204.512Z" fill="#4283C5"/>
<path fill-rule="evenodd" clip-rule="evenodd" d="M320.236 179.317L323.063 179.137C325.737 180.134 330.352 180.814 330.989 183.128L328.038 208.613L313.612 207.476L311.852 182.878C312.6 180.633 317.436 180.495 320.236 179.317Z" fill="#71ADEA"/>
<path fill-rule="evenodd" clip-rule="evenodd" d="M319.667 176.545L323.561 176.614L323.409 179.289C321.94 181.09 320.18 181.562 319.141 179.691L319.667 176.545Z" fill="#6686FF"/>
<path fill-rule="evenodd" clip-rule="evenodd" d="M325.074 168.841C322.386 168.619 319.697 168.398 317.009 168.176C316.178 169.783 316.344 176.477 317.785 178.098C319.573 180.135 322.857 178.708 323.73 176.754C324.645 174.966 325.629 170.476 325.074 168.841Z" fill="#81C0FF"/>
<path fill-rule="evenodd" clip-rule="evenodd" d="M322.417 169.589C320.518 169.478 316.79 170.434 316.707 169.243C316.513 167.995 314.795 165.612 316.652 165.03C316.665 165.03 316.873 163.907 316.998 163.755C318.384 162.092 318.606 163.242 319.492 163.09C322.112 162.646 323.123 161.122 323.664 163.63C323.858 164.545 324.703 163.588 325.077 165.21C325.299 166.208 327.405 165.071 326.809 168.009C326.505 169.52 327.225 170.906 325.562 172.859C325.507 172.929 324.343 174.813 324.551 174.245C320.518 179.511 324.052 170.032 322.417 169.589Z" fill="#021B79"/>
<path fill-rule="evenodd" clip-rule="evenodd" d="M323.498 173.455C321.849 173.067 322.182 172.555 323.097 171.446C323.055 170.85 324.302 170.393 324.441 170.725C324.773 171.321 323.873 172.832 323.498 173.455Z" fill="#81C0FF"/>
<path fill-rule="evenodd" clip-rule="evenodd" d="M320.238 179.318C324.908 178.763 323.439 170.282 322.787 169.326L321.859 175.216C321.36 176.56 316.815 174.37 316.343 175.59C315.595 177.821 317.244 179.318 320.238 179.318Z" fill="#021B79"/>
<path fill-rule="evenodd" clip-rule="evenodd" d="M317.759 177.503C317.33 177.406 317.08 176.865 317.122 176.422C317.981 176.81 318.965 176.796 319.963 176.56C319.325 177.156 318.313 177.531 317.759 177.503Z" fill="white"/>
<path fill-rule="evenodd" clip-rule="evenodd" d="M317.079 212.603L270.974 180.896C270.89 176.115 268.216 171.126 263.49 167.87C259 164.779 253.706 163.989 249.327 165.32L257.67 171.057C261.079 173.399 261.952 178.125 259.61 181.534C257.254 184.957 252.542 185.83 249.133 183.474L240.805 177.737C241.123 182.296 243.756 186.952 248.26 190.043C253 193.299 258.612 194.006 263.102 192.371L309.208 224.078C309.042 228.415 311.023 232.725 314.848 235.358C320.793 239.446 328.928 237.95 333.002 232.005C337.09 226.059 335.58 217.939 329.648 213.851C325.81 211.204 321.07 210.899 317.079 212.603ZM326.53 218.354C323.08 215.985 318.368 216.858 315.984 220.308C313.615 223.759 314.488 228.471 317.938 230.84C321.389 233.21 326.101 232.337 328.484 228.887C330.854 225.45 329.981 220.724 326.53 218.354Z" fill="#81B9F1"/>
<path fill-rule="evenodd" clip-rule="evenodd" d="M310.771 212.007L272.952 185.996C272.038 185.358 270.777 185.594 270.139 186.509L268.047 189.544C267.409 190.458 267.645 191.733 268.559 192.357L306.364 218.368C307.279 218.992 308.554 218.77 309.177 217.842L311.27 214.807C311.907 213.906 311.686 212.645 310.771 212.007Z" fill="#DFEFFF"/>
<path fill-rule="evenodd" clip-rule="evenodd" d="M329.595 212.341C329.373 213.408 326.768 214.24 327.308 214.877C327.904 215.473 329.276 214.101 329.498 214.337C330.537 215.043 328.957 218.175 329.872 218.647C332.158 219.838 333.6 215.528 332.297 211.704L330.301 211.427C330.08 211.385 330.246 209.5 329.595 212.341Z" fill="#6686FF"/>
<path fill-rule="evenodd" clip-rule="evenodd" d="M327.546 190.611C326.631 188.657 329.333 184.791 330.234 181.881C332.23 183.045 333.435 191.692 335.029 196.584L332.881 212.119L329.236 211.62L330.179 198.067L327.546 190.611Z" fill="#647DDD"/>
<path fill-rule="evenodd" clip-rule="evenodd" d="M178.326 75.4102H188.927C190.729 75.4102 192.212 76.9068 192.212 78.7361C192.212 80.5376 190.715 82.0204 188.927 82.0204H178.326C176.483 82.0204 175 80.5238 175 78.7361C175 76.9068 176.483 75.4102 178.326 75.4102Z" fill="#67B2FD"/>
<path fill-rule="evenodd" clip-rule="evenodd" d="M183.761 50.2578H183.636H183.595H183.511H183.47C182.029 50.2578 180.532 50.2578 179.049 50.3825C177.428 50.5627 175.848 50.826 174.407 51.4357C170.721 53.9302 166.037 65.072 166.743 69.3542C167.658 71.8902 174.24 71.6269 179.063 72.2505V72.8602H187.309V72.3752C192.173 71.5853 199.587 72.0703 200.543 69.3542C201.291 65.0582 196.593 53.9302 192.921 51.4357C190.039 50.2994 186.796 50.2578 183.761 50.2578Z" fill="#71ADEA"/>
<path fill-rule="evenodd" clip-rule="evenodd" d="M168.556 90.7095L167.462 87.6469C167.018 87.3004 165.799 87.0787 165.23 87.0371C163.263 87.1618 159.576 87.1203 159.493 88.4783C159.41 90.4046 164.136 91.2777 165.674 91.1529L168.556 90.7095Z" fill="#2D71B5"/>
<path fill-rule="evenodd" clip-rule="evenodd" d="M171.318 89.9626L170.182 86.6367L167.507 87.7315C167.119 88.9649 167.687 90.0597 168.56 90.711L171.318 89.9626Z" fill="#6686FF"/>
<path fill-rule="evenodd" clip-rule="evenodd" d="M170.927 90.6261C169.956 89.4482 169.167 88.0347 169.125 86.4133C175.791 84.0851 202.828 69.2294 207.165 74.0104C212.514 81.2858 180.253 87.3834 170.927 90.6261Z" fill="#2D71B5"/>
<path fill-rule="evenodd" clip-rule="evenodd" d="M198.672 90.7095L199.767 87.6469C200.21 87.3004 201.471 87.0787 202.039 87.0371C204.007 87.1618 207.652 87.1203 207.735 88.4783C207.86 90.4046 203.093 91.2777 201.596 91.1529L198.672 90.7095Z" fill="#4283C5"/>
<path fill-rule="evenodd" clip-rule="evenodd" d="M195.898 89.9626L197.035 86.6367L199.709 87.7315C200.153 88.9649 199.585 90.0597 198.656 90.711L195.898 89.9626Z" fill="#6686FF"/>
<path fill-rule="evenodd" clip-rule="evenodd" d="M196.341 90.6261C197.256 89.4482 198.046 88.0347 198.101 86.4133C191.435 84.0851 164.44 69.2294 160.103 74.0104C154.753 81.2858 187.001 87.3834 196.341 90.6261Z" fill="#4283C5"/>
<path fill-rule="evenodd" clip-rule="evenodd" d="M172.811 61.5664H194.458C195.109 61.5664 195.691 62.1346 195.691 62.7998V77.3091C195.691 78.0159 195.123 78.5425 194.458 78.5425H172.811C172.105 78.5425 171.578 78.0159 171.578 77.3091V62.7859C171.578 62.1346 172.105 61.5664 172.811 61.5664Z" fill="#62A7EC"/>
<path fill-rule="evenodd" clip-rule="evenodd" d="M183.631 67.9141C183.631 67.9141 183.672 67.9141 183.714 67.9141C183.672 68.0388 183.672 68.1774 183.672 68.3021C183.672 69.2721 184.421 70.0066 185.377 70.0066C185.501 70.0066 185.598 70.0066 185.723 69.965C185.723 70.0066 185.723 70.0066 185.723 70.0482C185.723 71.1846 184.809 72.1546 183.617 72.1546C182.425 72.1546 181.469 71.1846 181.469 70.0482C181.483 68.8841 182.439 67.9141 183.631 67.9141Z" fill="white"/>
<path fill-rule="evenodd" clip-rule="evenodd" d="M180.961 46.573C181.003 48.4577 181.003 50.3008 181.044 52.1855C182.541 54.3751 185.423 53.987 186.698 52.1855L186.476 46.2266L180.961 46.573Z" fill="#6686FF"/>
<path fill-rule="evenodd" clip-rule="evenodd" d="M183.715 38.0773L177.617 37.9941C178.629 44.1332 177.659 50.2723 183.618 50.7435C183.659 50.7435 183.659 50.7435 183.701 50.7435H183.742C189.743 50.2585 188.745 44.1194 189.743 37.9941L183.715 38.0773Z" fill="#81C0FF"/>
<path fill-rule="evenodd" clip-rule="evenodd" d="M189.244 42.5396C190.643 40.2669 191.309 38.2436 191.128 36.6638C191.253 36.4421 191.35 36.1788 191.35 35.9155C191.35 35.2087 190.824 34.599 189.95 34.2941C189.202 33.5873 188.107 33.1162 186.625 32.8529C186.14 32.2847 185.225 31.8828 184.172 31.8828C183.257 31.8828 182.412 32.1877 181.941 32.6727C180.97 32.7143 180.181 32.7974 179.488 33.0192C179.266 32.9776 179.1 32.9776 178.878 32.9776C177.34 32.9776 176.12 33.7675 176.12 34.7791C176.12 35.0009 176.162 35.2226 176.245 35.3889C176.065 35.7353 175.982 36.1372 175.898 36.5252C175.898 36.5252 176.079 37.232 176.162 37.3567C176.245 37.4814 176.203 38.8534 176.203 38.9365C176.245 39.0613 176.162 39.9066 176.467 40.1699C176.91 41.1815 177.52 42.1793 178.227 43.0662C179.543 41.625 178.573 38.3822 182.176 38.6871C183.451 38.6871 183.534 37.9803 184.546 38.5624C185.46 37.2459 185.987 39.089 188.01 38.5624C189.022 38.6455 188.052 40.6134 189.244 42.5396Z" fill="#021B79"/>
<path fill-rule="evenodd" clip-rule="evenodd" d="M122.446 189.797H235.333C237.425 189.797 239.13 191.501 239.13 193.594C239.13 195.687 237.425 197.391 235.333 197.391H122.446C120.353 197.391 118.648 195.687 118.648 193.594C118.648 191.501 120.367 189.797 122.446 189.797Z" fill="#62A7EC"/>
<path d="M235.331 198.084H122.443C119.963 198.084 117.953 196.074 117.953 193.594C117.953 191.113 119.963 189.104 122.443 189.104H235.331C237.811 189.104 239.82 191.113 239.82 193.594C239.82 196.06 237.797 198.084 235.331 198.084ZM122.443 190.489C120.739 190.489 119.339 191.875 119.339 193.594C119.339 195.298 120.725 196.698 122.443 196.698H235.331C237.035 196.698 238.435 195.312 238.435 193.594C238.435 191.875 237.049 190.489 235.331 190.489H122.443Z" fill="#0575E6"/>
<path fill-rule="evenodd" clip-rule="evenodd" d="M178.896 116.1C179.755 116.1 180.448 116.793 180.448 117.652V125.398C180.448 126.258 179.755 126.95 178.896 126.95C178.051 126.95 177.344 126.258 177.344 125.398V117.652C177.344 116.806 178.051 116.1 178.896 116.1Z" fill="url(#paint0_linear_11130_41335)"/>
<path fill-rule="evenodd" clip-rule="evenodd" d="M178.891 158.769C179.75 158.769 180.443 159.462 180.443 160.321V168.068C180.443 168.927 179.75 169.62 178.891 169.62C178.046 169.62 177.339 168.927 177.339 168.068V160.321C177.339 159.462 178.046 158.769 178.891 158.769ZM159.975 123.944C160.584 123.334 161.568 123.334 162.164 123.944L167.638 129.431C168.248 130.027 168.248 131.025 167.638 131.621C167.028 132.231 166.044 132.231 165.449 131.621L159.961 126.147C159.365 125.523 159.365 124.54 159.975 123.944ZM190.144 154.113C190.753 153.517 191.737 153.517 192.333 154.113L197.807 159.6C198.417 160.196 198.417 161.194 197.807 161.79C197.211 162.4 196.213 162.4 195.617 161.79L190.13 156.316C189.534 155.692 189.534 154.708 190.144 154.113Z" fill="#0575E6"/>
<path fill-rule="evenodd" clip-rule="evenodd" d="M197.812 123.944C197.216 123.334 196.218 123.334 195.622 123.944L190.134 129.431C189.539 130.027 189.539 131.025 190.134 131.621C190.744 132.231 191.728 132.231 192.324 131.621L197.798 126.147C198.422 125.523 198.422 124.54 197.812 123.944Z" fill="url(#paint1_linear_11130_41335)"/>
<path fill-rule="evenodd" clip-rule="evenodd" d="M167.642 154.113C167.033 153.517 166.049 153.517 165.453 154.113L159.965 159.601C159.355 160.197 159.355 161.194 159.965 161.79C160.575 162.4 161.559 162.4 162.155 161.79L167.629 156.316C168.252 155.693 168.252 154.709 167.642 154.113Z" fill="#0575E6"/>
<path fill-rule="evenodd" clip-rule="evenodd" d="M203.631 132.66C203.312 131.87 202.398 131.496 201.608 131.815L194.443 134.767C193.653 135.085 193.279 136 193.598 136.79C193.917 137.58 194.831 137.954 195.621 137.635L202.786 134.683C203.576 134.365 203.964 133.45 203.631 132.66Z" fill="url(#paint2_linear_11130_41335)"/>
<path fill-rule="evenodd" clip-rule="evenodd" d="M164.194 148.916C163.875 148.126 162.96 147.752 162.17 148.071L155.006 151.022C154.216 151.341 153.842 152.256 154.16 153.046C154.493 153.836 155.394 154.21 156.184 153.891L163.348 150.939C164.138 150.62 164.512 149.706 164.194 148.916Z" fill="#0575E6"/>
<path fill-rule="evenodd" clip-rule="evenodd" d="M189.006 118.08C188.216 117.762 187.302 118.136 186.983 118.926L184.059 126.104C183.74 126.894 184.114 127.809 184.904 128.127C185.694 128.446 186.609 128.072 186.928 127.282L189.852 120.104C190.17 119.314 189.782 118.413 189.006 118.08Z" fill="url(#paint3_linear_11130_41335)"/>
<path fill-rule="evenodd" clip-rule="evenodd" d="M172.878 157.59C172.088 157.271 171.174 157.645 170.855 158.435L167.931 165.614C167.612 166.404 167.986 167.318 168.776 167.637C169.566 167.956 170.481 167.581 170.8 166.792L173.724 159.613C174.056 158.823 173.668 157.909 172.878 157.59ZM152.133 142.859C152.133 142.013 152.826 141.307 153.685 141.307H161.432C162.277 141.307 162.984 142 162.984 142.859C162.984 143.704 162.291 144.411 161.432 144.411H153.685C152.84 144.411 152.133 143.718 152.133 142.859Z" fill="#0575E6"/>
<path fill-rule="evenodd" clip-rule="evenodd" d="M194.805 142.859C194.805 142.013 195.498 141.307 196.357 141.307H204.103C204.963 141.307 205.656 142 205.656 142.859C205.656 143.704 204.963 144.411 204.103 144.411H196.357C195.498 144.411 194.805 143.718 194.805 142.859Z" fill="url(#paint4_linear_11130_41335)"/>
<path fill-rule="evenodd" clip-rule="evenodd" d="M168.779 118.08C169.569 117.762 170.483 118.136 170.802 118.926L173.726 126.104C174.045 126.894 173.671 127.809 172.881 128.127C172.091 128.446 171.176 128.072 170.857 127.282L167.933 120.104C167.615 119.314 168.003 118.413 168.779 118.08ZM184.909 157.59C185.699 157.271 186.614 157.645 186.933 158.435L189.857 165.613C190.175 166.403 189.801 167.318 189.011 167.637C188.221 167.955 187.307 167.581 186.988 166.791L184.064 159.613C183.731 158.823 184.119 157.908 184.909 157.59ZM154.158 132.659C154.491 131.869 155.392 131.495 156.182 131.814L163.346 134.765C164.136 135.084 164.51 135.999 164.192 136.789C163.873 137.579 162.958 137.953 162.168 137.634L155.004 134.682C154.214 134.364 153.826 133.449 154.158 132.659Z" fill="#0575E6"/>
<path fill-rule="evenodd" clip-rule="evenodd" d="M193.598 148.916C193.917 148.126 194.831 147.752 195.621 148.071L202.786 151.022C203.576 151.341 203.95 152.256 203.631 153.046C203.312 153.836 202.398 154.21 201.608 153.891L194.443 150.939C193.653 150.62 193.279 149.706 193.598 148.916Z" fill="url(#paint5_linear_11130_41335)"/>
<path fill-rule="evenodd" clip-rule="evenodd" d="M122.453 189.797H198.589V197.391H122.453C120.361 197.391 118.656 195.687 118.656 193.594C118.656 191.501 120.375 189.797 122.453 189.797Z" fill="#0575E6"/>
<path d="M160.297 175.356H162.098V180.345C162.098 180.954 162.182 181.384 162.334 181.606C162.486 181.841 162.764 181.952 163.138 181.952C163.526 181.952 163.803 181.827 163.955 181.592C164.108 181.356 164.191 180.94 164.191 180.331V175.342H165.895V180.123C165.895 181.19 165.66 181.98 165.203 182.493C164.745 183.005 164.039 183.255 163.082 183.255C162.126 183.255 161.433 183.005 160.976 182.493C160.519 181.98 160.297 181.19 160.297 180.123V175.356ZM167.406 175.356H169.36C169.887 175.356 170.302 175.383 170.607 175.439C170.912 175.494 171.162 175.577 171.356 175.688C171.716 175.896 171.993 176.187 172.187 176.561C172.381 176.922 172.464 177.351 172.464 177.85C172.464 178.668 172.229 179.277 171.757 179.693C171.286 180.109 170.58 180.303 169.623 180.303H169.194V183.158H167.406V175.356ZM169.194 176.658V178.986H169.609C170.011 178.986 170.288 178.889 170.469 178.709C170.635 178.529 170.718 178.224 170.718 177.809C170.718 177.393 170.635 177.102 170.455 176.922C170.288 176.741 169.984 176.658 169.554 176.658H169.194ZM173.504 175.356H175.499C176.913 175.356 177.966 175.674 178.645 176.298C179.324 176.935 179.657 177.906 179.657 179.25C179.657 180.525 179.296 181.481 178.589 182.146C177.883 182.811 176.843 183.144 175.499 183.144H173.504V175.356ZM175.291 176.658V181.841H175.527C176.275 181.841 176.829 181.619 177.204 181.19C177.578 180.76 177.772 180.109 177.772 179.25C177.772 178.363 177.592 177.712 177.218 177.296C176.843 176.866 176.289 176.658 175.527 176.658H175.291ZM182.581 175.356H184.645L187.071 183.144H185.214L184.77 181.412H182.262L181.791 183.144H180.058L182.581 175.356ZM183.578 176.894L182.65 180.067H184.41L183.578 176.894ZM186.766 175.356H191.949V176.755H190.258V183.158H188.456V176.755H186.766V175.356ZM192.919 175.356H197.353V176.658H194.706V178.529H197.215V179.832H194.706V181.841H197.478V183.158H192.919V175.356Z" fill="white"/>
<defs>
<linearGradient id="paint0_linear_11130_41335" x1="176.444" y1="125.777" x2="181.349" y2="117.28" gradientUnits="userSpaceOnUse">
<stop stop-color="#2C95FE"/>
<stop offset="1" stop-color="white"/>
</linearGradient>
<linearGradient id="paint1_linear_11130_41335" x1="191.333" y1="132.362" x2="196.627" y2="123.192" gradientUnits="userSpaceOnUse">
<stop stop-color="#2C95FE"/>
<stop offset="1" stop-color="white"/>
</linearGradient>
<linearGradient id="paint2_linear_11130_41335" x1="196.309" y1="138.734" x2="200.928" y2="130.733" gradientUnits="userSpaceOnUse">
<stop stop-color="#2C95FE"/>
<stop offset="1" stop-color="white"/>
</linearGradient>
<linearGradient id="paint3_linear_11130_41335" x1="184.256" y1="127.776" x2="189.646" y2="118.441" gradientUnits="userSpaceOnUse">
<stop stop-color="#2C95FE"/>
<stop offset="1" stop-color="white"/>
</linearGradient>
<linearGradient id="paint4_linear_11130_41335" x1="198.484" y1="145.88" x2="201.972" y2="139.84" gradientUnits="userSpaceOnUse">
<stop stop-color="#2C95FE"/>
<stop offset="1" stop-color="white"/>
</linearGradient>
<linearGradient id="paint5_linear_11130_41335" x1="197.587" y1="152.775" x2="199.65" y2="149.201" gradientUnits="userSpaceOnUse">
<stop stop-color="#2C95FE"/>
<stop offset="1" stop-color="white"/>
</linearGradient>
</defs>
</svg>
