<svg width="326" height="260" viewBox="0 0 326 260" fill="none" xmlns="http://www.w3.org/2000/svg">
<path d="M55.5455 112.236H51.2832V107.973C51.2832 107.572 50.9603 107.249 50.559 107.249H47.6482C47.2469 107.249 46.924 107.572 46.924 107.973V112.236H42.6617C42.2604 112.236 41.9375 112.559 41.9375 112.96V115.871C41.9375 116.272 42.2604 116.595 42.6617 116.595H46.924V120.857C46.924 121.258 47.2469 121.581 47.6482 121.581H50.559C50.9603 121.581 51.2832 121.258 51.2832 120.857V116.595H55.5455C55.9468 116.595 56.2697 116.272 56.2697 115.871V112.96C56.2697 112.563 55.9468 112.236 55.5455 112.236ZM260.648 7.80487H256.385V3.54258C256.385 3.14126 256.062 2.81836 255.661 2.81836H252.75C252.349 2.81836 252.026 3.14126 252.026 3.54258V7.80487H247.764C247.362 7.80487 247.04 8.12777 247.04 8.52909V11.4398C247.04 11.8411 247.362 12.164 247.764 12.164H252.026V16.4263C252.026 16.8276 252.349 17.1505 252.75 17.1505H255.661C256.062 17.1505 256.385 16.8276 256.385 16.4263V12.164H260.648C261.049 12.164 261.372 11.8411 261.372 11.4398V8.52909C261.372 8.13239 261.049 7.80487 260.648 7.80487ZM170.129 211.389H165.867V207.127C165.867 206.726 165.544 206.403 165.143 206.403H162.232C161.831 206.403 161.508 206.726 161.508 207.127V211.389H157.245C156.844 211.389 156.521 211.712 156.521 212.114V215.024C156.521 215.426 156.844 215.748 157.245 215.748H161.508V220.011C161.508 220.412 161.831 220.735 162.232 220.735H165.143C165.544 220.735 165.867 220.412 165.867 220.011V215.748H170.129C170.531 215.748 170.853 215.426 170.853 215.024V212.114C170.853 211.712 170.531 211.389 170.129 211.389ZM297.431 124.501L302.98 122.375C303.704 122.098 303.704 121.074 302.98 120.797L297.431 118.671C297.209 118.583 297.029 118.408 296.946 118.186L294.82 112.637C294.543 111.913 293.519 111.913 293.242 112.637L291.116 118.186C291.028 118.408 290.853 118.588 290.631 118.671L285.082 120.797C284.358 121.074 284.358 122.098 285.082 122.375L290.631 124.501C290.853 124.589 291.033 124.764 291.116 124.986L293.242 130.535C293.519 131.259 294.543 131.259 294.82 130.535L296.946 124.986C297.029 124.764 297.205 124.589 297.431 124.501Z" fill="#DCE5EF"/>
<path d="M90.7891 121.535L96.0477 118.79C101.039 116.184 104.78 111.691 106.445 106.312L115.445 77.1821C116.275 74.502 117.507 71.9603 119.098 69.6539L138.717 41.1971C141.531 37.1193 145.35 33.9226 149.732 31.8652V121.198H150.876V161.012H151.891C152.163 162.755 153.321 164.255 154.871 165.025C155.817 165.851 157.035 166.363 158.349 166.363C158.423 166.363 158.497 166.353 158.571 166.349L129.62 184.717L90.7891 121.535Z" fill="#7FAAD6"/>
<path d="M158.684 14.8262H220.519C226.618 14.8262 231.563 19.7712 231.563 25.8694V158.48C231.563 164.578 226.618 169.523 220.519 169.523H158.684C152.586 169.523 147.641 164.578 147.641 158.48V25.8694C147.636 19.7712 152.581 14.8262 158.684 14.8262Z" fill="#DCE5EF"/>
<path d="M220.514 164.365C223.761 164.365 226.4 161.722 226.4 158.479V25.8684C226.4 22.621 223.757 19.9824 220.514 19.9824H158.683C155.435 19.9824 152.797 22.6256 152.797 25.8684V158.479C152.797 161.727 155.44 164.365 158.683 164.365H220.514Z" fill="#F2F7FC"/>
<path d="M214.594 29.1016H189.32V37.9721H214.594C217.044 37.9721 219.032 35.984 219.032 33.5345C219.027 31.0897 217.044 29.1016 214.594 29.1016Z" fill="#DCE5EF"/>
<path d="M147.633 67.1648V77.5853L150.599 71.6024C151.235 70.2231 151.969 68.8577 152.79 67.5292V59.2168C150.728 61.6386 148.994 64.3602 147.633 67.1648Z" fill="#C7D2DD"/>
<path d="M253.217 113.662C253.872 117.693 250.975 121.518 246.745 122.205L230.032 124.89C225.802 125.577 221.849 122.86 221.194 118.828C220.539 114.797 223.436 110.972 227.666 110.285L244.378 107.6C248.604 106.913 252.562 109.63 253.217 113.662Z" fill="#7FAAD6"/>
<path d="M228.934 140.439C228.072 140.578 227.218 140.573 226.406 140.444V142.354C227.864 143.309 229.672 143.788 231.563 143.59V140.02L228.934 140.439Z" fill="#C7D2DD"/>
<path d="M223.898 139.613C224.48 140.73 225.351 141.666 226.403 142.353V140.444C225.513 140.305 224.669 140.024 223.898 139.613Z" fill="#DCE5EF"/>
<path d="M194.539 35.0063C194.502 34.6326 194.419 34.2774 194.304 33.9361C193.769 32.3585 192.464 31.1637 190.867 30.7578C190.927 30.9885 190.974 31.2237 190.997 31.4682C191.08 32.2985 191.098 33.1242 191.057 33.9361C190.983 35.3246 190.724 36.6807 190.305 37.977H194.544C194.636 36.999 194.641 36.0073 194.539 35.0063Z" fill="#C7D2DD"/>
<path d="M246.764 130.084C247.419 134.115 244.522 137.94 240.292 138.627L228.931 140.44C224.701 141.127 220.747 138.41 220.092 134.378C219.437 130.347 222.334 126.523 226.564 125.835L237.926 124.022C242.151 123.335 246.109 126.048 246.764 130.084Z" fill="#7FAAD6"/>
<path d="M212.183 169.522H215.776C215.827 169.522 215.878 169.518 215.929 169.518L213.821 164.365H210.07L212.183 169.522Z" fill="#C7D2DD"/>
<path d="M0 186.287L89.7203 119.275C115.276 139.766 132.122 189.008 132.122 189.008C130.203 193.054 74.5209 246.102 58.6158 260H0V186.287Z" fill="#021B79"/>
<path d="M210.079 164.366H213.829L209.52 153.834C209.11 152.815 208.492 151.929 207.735 151.205H204.695L210.079 164.366Z" fill="#DCE5EF"/>
<path d="M124.595 19.983C124.65 19.4709 124.682 18.9543 124.682 18.4238C124.682 11.7813 120.083 6.3796 114.437 6.3796C113.718 6.3796 112.989 6.47186 112.265 6.65637C110.724 3.99475 108.505 1.9697 105.913 0.881058C104.538 0.295224 103.071 0 101.553 0C97.8447 0 94.3067 1.87283 91.848 5.13413C90.3442 7.1315 89.3294 9.50713 88.8681 12.0949C88.5221 12.0396 88.1762 12.0119 87.8256 12.0119C83.8539 12.0119 80.5603 15.49 80.0391 19.9876H124.595V19.983Z" fill="#F2F7FC"/>
<path d="M213.111 133.855C213.42 134.594 213.591 135.401 213.591 136.25V141.702C213.591 145.12 210.819 147.892 207.401 147.892H171.785C170.936 147.892 170.129 147.722 169.391 147.413C170.327 149.641 172.532 151.209 175.101 151.209H210.717C214.135 151.209 216.908 148.437 216.908 145.019V139.566C216.912 136.992 215.344 134.792 213.111 133.855Z" fill="#DCE5EF"/>
<path d="M207.408 130.057H171.792C168.374 130.057 165.602 132.829 165.602 136.247V141.7C165.602 145.118 168.374 147.89 171.792 147.89H207.408C210.826 147.89 213.598 145.118 213.598 141.7V136.247C213.594 132.829 210.826 130.057 207.408 130.057Z" fill="#0036FF"/>
<path d="M173.254 135.79H174.933C175.372 135.79 175.745 135.831 176.059 135.91C176.373 135.993 176.654 136.145 176.908 136.366C177.572 136.934 177.904 137.796 177.904 138.954C177.904 139.337 177.872 139.683 177.803 140.001C177.733 140.32 177.632 140.601 177.494 140.855C177.355 141.108 177.175 141.334 176.958 141.533C176.788 141.685 176.603 141.809 176.4 141.902C176.197 141.994 175.981 142.059 175.745 142.095C175.51 142.132 175.252 142.151 174.957 142.151H173.277C173.042 142.151 172.867 142.114 172.747 142.045C172.627 141.976 172.549 141.874 172.516 141.745C172.484 141.616 172.461 141.45 172.461 141.242V136.574C172.461 136.297 172.521 136.094 172.645 135.97C172.775 135.854 172.978 135.79 173.254 135.79ZM173.753 136.814V141.131H174.73C174.943 141.131 175.113 141.127 175.233 141.113C175.353 141.099 175.482 141.071 175.612 141.025C175.741 140.979 175.856 140.915 175.948 140.832C176.377 140.467 176.594 139.84 176.594 138.95C176.594 138.322 176.497 137.852 176.308 137.538C176.119 137.224 175.884 137.026 175.607 136.943C175.33 136.855 174.993 136.814 174.601 136.814H173.753ZM183.232 136.786H180.326V138.35H183.001C183.2 138.35 183.347 138.396 183.444 138.484C183.541 138.571 183.592 138.687 183.592 138.834C183.592 138.982 183.546 139.097 183.449 139.189C183.352 139.282 183.204 139.328 183.006 139.328H180.33V141.136H183.333C183.536 141.136 183.689 141.182 183.79 141.279C183.892 141.376 183.942 141.5 183.942 141.653C183.942 141.805 183.892 141.925 183.79 142.022C183.689 142.119 183.536 142.165 183.333 142.165H179.828C179.546 142.165 179.343 142.105 179.223 141.98C179.103 141.856 179.039 141.653 179.039 141.376V136.592C179.039 136.408 179.067 136.256 179.122 136.14C179.177 136.025 179.265 135.937 179.38 135.882C179.496 135.827 179.648 135.804 179.828 135.804H183.232C183.44 135.804 183.592 135.85 183.689 135.942C183.786 136.034 183.836 136.154 183.836 136.302C183.836 136.454 183.786 136.574 183.689 136.666C183.587 136.74 183.435 136.786 183.232 136.786ZM186.23 136.463V141.094H188.846C189.053 141.094 189.215 141.145 189.326 141.247C189.436 141.348 189.492 141.477 189.492 141.63C189.492 141.786 189.436 141.911 189.326 142.008C189.215 142.105 189.053 142.155 188.846 142.155H185.732C185.451 142.155 185.248 142.095 185.128 141.971C185.008 141.846 184.943 141.643 184.943 141.367V136.463C184.943 136.205 185.003 136.007 185.119 135.877C185.234 135.748 185.391 135.684 185.58 135.684C185.774 135.684 185.931 135.748 186.05 135.877C186.17 136.007 186.23 136.2 186.23 136.463ZM194.534 136.786H191.627V138.35H194.303C194.501 138.35 194.649 138.396 194.746 138.484C194.843 138.571 194.893 138.687 194.893 138.834C194.893 138.982 194.847 139.097 194.75 139.189C194.653 139.282 194.506 139.328 194.307 139.328H191.632V141.136H194.635C194.838 141.136 194.99 141.182 195.092 141.279C195.193 141.371 195.244 141.5 195.244 141.653C195.244 141.805 195.193 141.925 195.092 142.022C194.99 142.114 194.838 142.165 194.635 142.165H191.129C190.848 142.165 190.645 142.105 190.525 141.98C190.405 141.856 190.34 141.653 190.34 141.376V136.592C190.34 136.408 190.368 136.256 190.423 136.14C190.479 136.025 190.566 135.937 190.682 135.882C190.797 135.827 190.949 135.804 191.129 135.804H194.534C194.741 135.804 194.893 135.85 194.99 135.942C195.087 136.034 195.138 136.154 195.138 136.302C195.138 136.454 195.087 136.574 194.99 136.666C194.889 136.74 194.736 136.786 194.534 136.786ZM200.401 136.855H198.994V141.477C198.994 141.745 198.934 141.943 198.814 142.068C198.694 142.197 198.542 142.262 198.353 142.262C198.164 142.262 198.007 142.197 197.887 142.068C197.767 141.939 197.707 141.74 197.707 141.477V136.855H196.3C196.079 136.855 195.917 136.805 195.811 136.708C195.705 136.611 195.65 136.482 195.65 136.325C195.65 136.159 195.705 136.03 195.816 135.933C195.927 135.836 196.088 135.79 196.3 135.79H200.396C200.618 135.79 200.784 135.84 200.895 135.937C201.005 136.034 201.056 136.163 201.056 136.325C201.056 136.486 201.001 136.611 200.89 136.708C200.779 136.805 200.623 136.855 200.401 136.855ZM206.02 136.786H203.113V138.35H205.789C205.987 138.35 206.135 138.396 206.232 138.484C206.329 138.571 206.379 138.687 206.379 138.834C206.379 138.982 206.333 139.097 206.236 139.189C206.14 139.282 205.992 139.328 205.794 139.328H203.118V141.136H206.121C206.324 141.136 206.476 141.182 206.578 141.279C206.679 141.376 206.73 141.5 206.73 141.653C206.73 141.805 206.679 141.925 206.578 142.022C206.476 142.119 206.324 142.165 206.121 142.165H202.615C202.334 142.165 202.131 142.105 202.011 141.98C201.891 141.856 201.826 141.653 201.826 141.376V136.592C201.826 136.408 201.854 136.256 201.91 136.14C201.965 136.025 202.052 135.937 202.168 135.882C202.283 135.827 202.435 135.804 202.615 135.804H206.02C206.227 135.804 206.379 135.85 206.476 135.942C206.578 136.034 206.624 136.154 206.624 136.302C206.624 136.454 206.573 136.574 206.476 136.666C206.379 136.74 206.227 136.786 206.02 136.786Z" fill="#EEEEEE"/>
<path d="M215.049 31.2063C214.214 30.3713 212.858 30.3713 212.018 31.2063C211.299 31.9259 211.202 33.033 211.719 33.8587L209.818 35.7592C209.634 35.9437 209.634 36.2481 209.818 36.4327C210.003 36.6172 210.307 36.6172 210.492 36.4327L212.392 34.5322C213.218 35.0534 214.325 34.9519 215.044 34.2323C215.884 33.3974 215.884 32.0412 215.049 31.2063Z" fill="#F2F7FC"/>
<path d="M164.797 105.26C164.142 105.26 163.621 105.823 163.685 106.492C163.745 107.073 164.276 107.493 164.861 107.493H214.394C215.013 107.493 215.511 106.995 215.511 106.377C215.511 105.759 215.013 105.26 214.394 105.26H164.797ZM164.797 111.409C164.142 111.409 163.621 111.972 163.685 112.641C163.745 113.222 164.276 113.642 164.861 113.642H200.173C200.791 113.642 201.289 113.144 201.289 112.526C201.289 111.908 200.791 111.409 200.173 111.409H164.797ZM164.797 117.554C164.142 117.554 163.621 118.116 163.685 118.785C163.745 119.367 164.276 119.786 164.861 119.786H179.867C180.485 119.786 180.983 119.288 180.983 118.67C180.983 118.052 180.485 117.554 179.867 117.554H164.797ZM210.741 48.6328H168.455C165.821 48.6328 163.685 50.7686 163.685 53.4025V95.6887C163.685 98.3227 165.821 100.458 168.455 100.458H210.741C213.375 100.458 215.511 98.3227 215.511 95.6887V53.4025C215.511 50.7686 213.375 48.6328 210.741 48.6328Z" fill="#DCE5EF"/>
<path d="M201.913 64.7974V82.3863L193.863 79.5309V75.7391C192.65 76.5971 191.183 77.1045 189.596 77.1045C188.019 77.1045 186.542 76.5971 185.339 75.7483V79.5309L177.289 82.3863V64.7974C177.289 58.0026 182.801 52.4902 189.596 52.4902C196.4 52.4948 201.913 58.0072 201.913 64.7974Z" fill="#80B8F0"/>
<path d="M192.027 75.7384C191.054 76.4303 189.91 76.8778 188.678 77.0346C188.983 77.0715 189.283 77.1084 189.596 77.1084C190.45 77.1084 191.261 76.9516 192.027 76.684V75.7384ZM183.503 75.7476V79.5302L177.289 81.7351V82.3855L185.339 79.5302V76.684C184.684 76.4534 184.061 76.1443 183.503 75.7476ZM189.596 52.4941C189.287 52.4941 188.983 52.5172 188.678 52.5403C195.049 53.0108 200.077 58.3156 200.077 64.8013V81.7351L201.913 82.3855V64.7967C201.913 58.0065 196.4 52.4941 189.596 52.4941Z" fill="#7AADE0"/>
<path d="M187.817 58.6579C186.627 61.1765 183.938 62.7957 182.227 63.6167V69.7334C182.227 72.2244 183.463 74.4201 185.349 75.7532C186.553 76.602 188.03 77.1094 189.607 77.1094C191.194 77.1094 192.661 76.602 193.874 75.744C194.215 75.5133 194.534 75.2458 194.834 74.9506C196.167 73.6174 196.997 71.7769 196.997 69.7334V66.4306C196.407 65.7248 195.724 64.6593 194.977 63.0355C192.532 57.7307 187.817 58.6579 187.817 58.6579Z" fill="#A7CBF0"/>
<path d="M194.969 63.0347C192.575 57.8314 188.003 58.6202 187.828 58.6525C189.424 58.8647 191.791 59.7596 193.299 63.0347C194.046 64.6585 194.729 65.724 195.319 66.4298V69.7326C195.319 71.7715 194.494 73.6121 193.156 74.9498C192.856 75.2496 192.538 75.5126 192.197 75.7432C191.2 76.449 190.028 76.901 188.765 77.044C189.041 77.0763 189.313 77.1086 189.599 77.1086C191.186 77.1086 192.653 76.6012 193.866 75.7432C194.208 75.5126 194.526 75.245 194.826 74.9498C196.159 73.6167 196.989 71.7761 196.989 69.7326V66.4298C196.399 65.7194 195.716 64.6539 194.969 63.0347Z" fill="#94BAE0"/>
<path d="M187.256 91.7499C187.584 91.2148 187.98 90.7212 188.432 90.2876C187.131 89.0283 185.365 88.2441 183.404 88.2441C182.998 88.2441 182.606 88.281 182.219 88.3456C184.355 88.6916 186.177 89.9694 187.256 91.7499ZM202.478 92.654C201.367 90.0616 198.797 88.2441 195.808 88.2441C195.412 88.2441 195.029 88.2857 194.65 88.3456C197.118 88.7562 199.176 90.4122 200.14 92.654H201.321V96.6027H203.664V92.654H202.478Z" fill="#2147D6"/>
<path d="M211.572 92.6556C211.166 89.2928 209.178 86.2576 206.157 84.3063C206.014 84.2048 205.857 84.1172 205.705 84.0296C204.943 83.5683 204.127 83.1808 203.269 82.8717L201.913 82.3874L193.863 79.532V75.7402C192.65 76.5982 191.183 77.1056 189.596 77.1056C188.019 77.1056 186.543 76.5982 185.339 75.7495V79.532L177.289 82.3874L175.933 82.8717C175.061 83.1808 174.245 83.5683 173.497 84.0296C173.345 84.1172 173.188 84.2048 173.045 84.3063C171.537 85.275 170.287 86.5343 169.364 87.9459C168.437 89.3805 167.842 90.9673 167.635 92.6556C167.588 93.0754 167.547 93.4952 167.547 93.9149V96.6042H175.541V92.6556H176.731C177.843 90.0632 180.403 88.2457 183.401 88.2457C186.035 88.2457 188.332 89.6573 189.596 91.7515C190.874 89.6573 193.171 88.2457 195.805 88.2457C198.794 88.2457 201.364 90.0632 202.476 92.6556H203.656V96.6042H211.651V93.9149C211.651 93.4952 211.618 93.0754 211.572 92.6556Z" fill="#A7CBF0"/>
<path d="M187.759 77.1056C188.072 77.1056 188.377 77.0687 188.681 77.0318C187.454 76.875 186.305 76.4322 185.341 75.7495V76.6859C186.103 76.9534 186.914 77.1056 187.759 77.1056ZM181.563 88.2457C178.565 88.2457 176.005 90.0632 174.893 92.6556H173.703V96.6042H175.544V92.6556H176.734C177.739 90.3169 179.921 88.624 182.541 88.3103C182.218 88.2642 181.891 88.2457 181.563 88.2457ZM193.967 88.2457C191.873 88.2457 190.005 89.1452 188.681 90.5614C189.022 90.9304 189.336 91.3225 189.599 91.7515C190.715 89.9202 192.611 88.6101 194.835 88.3103C194.549 88.2734 194.263 88.2457 193.967 88.2457ZM211.575 92.6556C211.169 89.2928 209.181 86.2576 206.159 84.3063C206.016 84.2048 205.859 84.1172 205.707 84.0296C204.946 83.5683 204.13 83.1808 203.272 82.8717L201.915 82.3874L193.866 79.532V75.7402C193.303 76.1369 192.685 76.4506 192.025 76.6813V79.532L200.075 82.3874L201.431 82.8717C202.289 83.1808 203.106 83.5683 203.867 84.0296C204.019 84.1172 204.176 84.2048 204.319 84.3063C207.34 86.2576 209.324 89.2928 209.734 92.6556C209.78 93.0754 209.813 93.4952 209.813 93.9149V96.6042H211.653V93.9149C211.653 93.4952 211.621 93.0754 211.575 92.6556Z" fill="#94BAE0"/>
<path d="M175.852 96.603H175.23V91.455L175.031 89.9558L175.091 89.8267L175.82 91.2382C175.843 91.2843 175.857 91.3305 175.857 91.3812V96.603H175.852ZM203.968 96.603H203.345V91.3812C203.345 91.3305 203.359 91.2843 203.382 91.2382L204.111 89.8267V89.7852L203.968 91.455V96.603Z" fill="#94BAE0"/>
<path d="M203.659 92.654V96.6027H175.539V92.654H176.729C177.841 90.0616 180.401 88.2441 183.399 88.2441C186.033 88.2441 188.331 89.6557 189.594 91.7499C190.872 89.6557 193.169 88.2441 195.803 88.2441C198.793 88.2441 201.362 90.0616 202.474 92.654H203.659Z" fill="#345AE8"/>
<path d="M182.484 80.5451V88.7791C182.697 88.7514 182.913 88.7329 183.13 88.7283V80.3191L182.484 80.5451ZM196.079 80.3145V88.7283C196.295 88.7376 196.512 88.7514 196.724 88.7791V80.5451L196.079 80.3145Z" fill="#345AE8"/>
<path d="M248.709 99.029C249.364 103.061 246.467 106.885 242.237 107.572L225.524 110.257C221.294 110.944 217.341 108.227 216.686 104.195C216.031 100.164 218.928 96.3397 223.158 95.6524L239.87 92.9677C244.1 92.2803 248.058 94.9973 248.709 99.029Z" fill="#7FAAD6"/>
<path d="M204.689 151.206H207.729C206.663 150.192 205.321 149.504 203.891 149.26L204.689 151.206Z" fill="#C7D2DD"/>
<path d="M271.59 226.552C274.275 220.892 274.487 214.369 272.185 208.543L261.206 180.778C259.989 177.738 256.69 175.963 253.54 176.844C249.826 177.886 247.931 181.867 249.328 185.345L248 182.033C246.57 178.467 242.598 176.493 238.977 177.762C235.13 179.109 233.225 183.375 234.724 187.116L233.912 185.087C232.482 181.526 228.51 179.547 224.889 180.815C221.042 182.162 219.137 186.429 220.636 190.17L203.832 149.088C202.369 145.444 198.264 143.456 194.601 144.858C190.888 146.279 189.07 150.463 190.542 154.144L212.476 208.022C210.174 202.279 204.74 198.722 198.928 198.533C195.805 198.432 193.591 201.541 194.753 204.442L205.538 231.806C206.894 235.187 209.538 237.895 212.891 239.33L219.538 242.508C228.349 245.488 233.718 258.242 233.718 258.242L273.14 242.845C273.14 242.845 269.427 231.109 271.59 226.552Z" fill="#7FAAD6"/>
<path d="M192.732 44.1216C193.498 42.6916 194.042 41.1509 194.342 39.5364C194.439 39.0198 194.499 38.4985 194.545 37.9727H190.306C190.135 38.5031 189.937 39.029 189.71 39.5364C188.959 41.2293 187.916 42.7793 186.624 44.1216C185.259 45.5378 183.621 46.714 181.758 47.5582L176.241 48.6284H189.138C190.61 47.3552 191.823 45.8191 192.732 44.1216ZM164.252 51.1378C159.768 52.6185 155.903 55.5661 152.789 59.2149V67.5273C153.998 65.5668 155.409 63.6848 156.982 61.978C158.961 59.8331 161.208 57.9648 163.68 56.5395V53.4027C163.68 52.5816 163.888 51.8113 164.252 51.1378Z" fill="#DCE5EF"/>
<path d="M170.33 54.0081L185.299 51.1019C186.457 50.5761 187.531 49.921 188.505 49.1645C188.722 48.9939 188.934 48.8186 189.141 48.6387H176.244L173.536 49.1645L166.797 50.4746C165.929 50.6453 165.085 50.8713 164.259 51.1435C163.895 51.8169 163.688 52.5873 163.688 53.4084V56.5451C165.307 55.6133 167.018 54.8707 168.817 54.3725C169.315 54.2295 169.818 54.1049 170.33 54.0081Z" fill="#C7D2DD"/>
<path d="M159.142 29.338L185.712 27.0823C188.374 26.8562 190.731 28.8075 191.003 31.4645C191.7 38.2546 187.982 44.7357 181.764 47.5588L166.795 50.4649C157.855 52.1993 151.047 59.7552 147.315 67.837L147.07 33.2866C150.691 31.0816 154.815 29.707 159.142 29.338Z" fill="#7FAAD6"/>
<path d="M274.558 233.715L225.195 252.914L228.89 259.999H285.721L274.558 233.715Z" fill="#021B79"/>
<path d="M317.817 24.5742H229.388C225.089 24.5742 221.602 28.0616 221.602 32.3607V75.5095C221.602 79.8087 225.089 83.2961 229.388 83.2961H241.391V99.704C241.391 100.645 242.484 101.171 243.217 100.58L270.387 83.2961H317.817C322.116 83.2961 325.603 79.8087 325.603 75.5095V32.3607C325.608 28.0616 322.121 24.5742 317.817 24.5742Z" fill="#0E549B"/>
<path d="M262.881 67.8086H241.311C240.079 67.8086 239.078 68.8096 239.078 70.0412V76.3101C239.078 77.5417 240.079 78.5427 241.311 78.5427H262.881C264.112 78.5427 265.113 77.5417 265.113 76.3101V70.0412C265.113 68.8096 264.112 67.8086 262.881 67.8086Z" fill="#EEEEEE"/>
<path d="M246.759 75.2347V73.5741L245.481 71.5906C245.37 71.4106 245.292 71.2723 245.241 71.1708C245.19 71.0693 245.172 70.9817 245.172 70.9078C245.172 70.7879 245.218 70.6818 245.315 70.5942C245.407 70.5065 245.527 70.4604 245.665 70.4604C245.813 70.4604 245.919 70.5019 245.998 70.5849C246.076 70.668 246.187 70.8294 246.334 71.0785L247.312 72.67L248.304 71.0785C248.364 70.9817 248.415 70.8986 248.456 70.834C248.498 70.7695 248.539 70.7049 248.59 70.6449C248.641 70.5849 248.691 70.5434 248.751 70.5111C248.811 70.4789 248.885 70.465 248.968 70.465C249.102 70.465 249.213 70.5065 249.3 70.5942C249.388 70.6818 249.434 70.7833 249.434 70.894C249.434 70.9863 249.411 71.0785 249.365 71.1708C249.319 71.263 249.24 71.3922 249.134 71.5583L247.824 73.5695V75.2301C247.824 75.4469 247.774 75.6084 247.672 75.7145C247.571 75.8206 247.446 75.8759 247.289 75.8759C247.132 75.8759 247.003 75.8252 246.906 75.7191C246.809 75.6176 246.759 75.4561 246.759 75.2347ZM253.618 71.3737H251.229V72.6607H253.429C253.59 72.6607 253.71 72.6976 253.793 72.7714C253.872 72.8453 253.913 72.9421 253.913 73.0574C253.913 73.1774 253.872 73.2742 253.793 73.3481C253.715 73.4219 253.595 73.4588 253.429 73.4588H251.229V74.9487H253.701C253.867 74.9487 253.992 74.9856 254.079 75.064C254.167 75.1425 254.209 75.2439 254.209 75.3731C254.209 75.4977 254.167 75.5991 254.079 75.6729C253.996 75.7514 253.867 75.7883 253.701 75.7883H250.818C250.587 75.7883 250.421 75.7375 250.32 75.636C250.218 75.5346 250.168 75.3685 250.168 75.1379V71.1985C250.168 71.0462 250.191 70.9217 250.237 70.8248C250.283 70.7279 250.352 70.6588 250.449 70.6126C250.546 70.5665 250.67 70.548 250.818 70.548H253.623C253.793 70.548 253.918 70.5849 254.001 70.6587C254.084 70.7326 254.125 70.834 254.125 70.954C254.125 71.0785 254.084 71.1754 254.001 71.2538C253.913 71.3368 253.789 71.3737 253.618 71.3737ZM259.029 74.2199C259.029 74.5382 258.946 74.8196 258.784 75.0733C258.623 75.327 258.383 75.5253 258.069 75.6683C257.756 75.8113 257.382 75.8805 256.949 75.8805C256.432 75.8805 256.003 75.7837 255.671 75.5853C255.431 75.4469 255.237 75.2578 255.09 75.0225C254.942 74.7873 254.868 74.5612 254.868 74.3398C254.868 74.2107 254.914 74.1 255.002 74.0077C255.09 73.9154 255.205 73.8693 255.343 73.8693C255.454 73.8693 255.551 73.9062 255.629 73.9754C255.708 74.0446 255.772 74.1507 255.828 74.2937C255.892 74.4598 255.966 74.5981 256.044 74.7135C256.123 74.8242 256.229 74.9164 256.372 74.9902C256.515 75.064 256.699 75.1009 256.925 75.1009C257.239 75.1009 257.497 75.0271 257.691 74.8795C257.885 74.7319 257.986 74.552 257.986 74.3306C257.986 74.1553 257.936 74.0169 257.83 73.9062C257.723 73.7955 257.585 73.7171 257.419 73.6571C257.253 73.6018 257.027 73.5372 256.746 73.4726C256.367 73.385 256.054 73.2835 255.8 73.1635C255.546 73.0436 255.343 72.8868 255.196 72.6792C255.048 72.4762 254.974 72.2225 254.974 71.9181C254.974 71.6275 255.053 71.3738 255.209 71.1477C255.366 70.9217 255.592 70.751 255.892 70.6311C256.192 70.5111 256.543 70.4512 256.944 70.4512C257.267 70.4512 257.544 70.4927 257.779 70.5711C258.014 70.6495 258.208 70.7556 258.365 70.8894C258.522 71.0232 258.632 71.1616 258.706 71.3046C258.78 71.4522 258.812 71.5906 258.812 71.7289C258.812 71.8535 258.766 71.9688 258.678 72.0703C258.591 72.1718 258.475 72.2225 258.346 72.2225C258.226 72.2225 258.134 72.1902 258.069 72.1303C258.005 72.0703 257.936 71.9688 257.862 71.8304C257.765 71.6321 257.654 71.4798 257.521 71.3691C257.387 71.2584 257.175 71.2031 256.879 71.2031C256.607 71.2031 256.386 71.263 256.215 71.383C256.044 71.5029 255.961 71.6459 255.961 71.8166C255.961 71.9227 255.989 72.0103 256.049 72.0887C256.104 72.1672 256.183 72.2317 256.284 72.2871C256.386 72.3425 256.487 72.384 256.589 72.4163C256.69 72.4485 256.861 72.4947 257.096 72.55C257.391 72.6192 257.659 72.6976 257.899 72.7807C258.139 72.8637 258.342 72.9652 258.512 73.0851C258.678 73.2051 258.812 73.3573 258.904 73.5372C258.983 73.7355 259.029 73.957 259.029 74.2199Z" fill="#1C39A7"/>
<path d="M305.896 67.8105H284.326C283.095 67.8105 282.094 68.8115 282.094 70.0432V76.3121C282.094 77.5437 283.095 78.5447 284.326 78.5447H305.896C307.128 78.5447 308.129 77.5437 308.129 76.3121V70.0432C308.129 68.8115 307.128 67.8105 305.896 67.8105Z" fill="#EEEEEE"/>
<path d="M291.256 71.1034L293.3 74.194V71.0757C293.3 70.8727 293.341 70.7205 293.429 70.619C293.516 70.5175 293.632 70.4668 293.779 70.4668C293.931 70.4668 294.051 70.5175 294.139 70.619C294.227 70.7205 294.273 70.8727 294.273 71.0757V75.1996C294.273 75.6609 294.084 75.8915 293.701 75.8915C293.604 75.8915 293.521 75.8777 293.443 75.85C293.364 75.8223 293.295 75.7808 293.23 75.7209C293.166 75.6609 293.101 75.5917 293.046 75.5133C292.99 75.4349 292.93 75.3518 292.875 75.2688L290.882 72.2151V75.2873C290.882 75.4856 290.836 75.6378 290.744 75.7393C290.652 75.8408 290.532 75.8915 290.384 75.8915C290.232 75.8915 290.112 75.8408 290.024 75.7347C289.932 75.6332 289.891 75.481 289.891 75.2826V71.2418C289.891 71.0711 289.909 70.9373 289.946 70.8358C289.992 70.7297 290.066 70.6421 290.172 70.5729C290.278 70.5037 290.389 70.4714 290.513 70.4714C290.61 70.4714 290.689 70.4852 290.758 70.5175C290.827 70.5498 290.887 70.5913 290.938 70.6421C290.988 70.6928 291.039 70.762 291.095 70.8451C291.145 70.9235 291.201 71.0111 291.256 71.1034ZM297.742 70.4668C298.286 70.4668 298.752 70.5775 299.139 70.7989C299.527 71.0203 299.822 71.334 300.025 71.74C300.228 72.1459 300.325 72.6256 300.325 73.1699C300.325 73.5759 300.27 73.9449 300.159 74.2724C300.048 74.5999 299.887 74.8905 299.665 75.135C299.444 75.3795 299.176 75.564 298.858 75.6932C298.54 75.8223 298.171 75.8869 297.76 75.8869C297.35 75.8869 296.985 75.8223 296.658 75.6886C296.33 75.5548 296.063 75.3703 295.846 75.1304C295.629 74.8905 295.463 74.5999 295.352 74.2632C295.242 73.9265 295.186 73.5574 295.186 73.1653C295.186 72.764 295.246 72.395 295.361 72.0582C295.477 71.7215 295.643 71.4355 295.864 71.2002C296.086 70.965 296.349 70.7851 296.667 70.6605C296.985 70.5268 297.34 70.4668 297.742 70.4668ZM299.25 73.1607C299.25 72.7779 299.19 72.4457 299.066 72.1643C298.941 71.883 298.766 71.6708 298.535 71.5278C298.304 71.3848 298.042 71.311 297.742 71.311C297.53 71.311 297.336 71.3525 297.156 71.4309C296.976 71.5093 296.819 71.6246 296.69 71.7815C296.561 71.9337 296.459 72.1274 296.381 72.3673C296.307 72.6026 296.27 72.8701 296.27 73.1653C296.27 73.4652 296.307 73.7327 296.381 73.9726C296.455 74.2125 296.561 74.4108 296.699 74.5723C296.838 74.7337 296.994 74.849 297.17 74.9274C297.345 75.0059 297.543 75.0474 297.756 75.0474C298.028 75.0474 298.277 74.9782 298.503 74.8444C298.729 74.7106 298.913 74.4984 299.047 74.2171C299.186 73.9265 299.25 73.5759 299.25 73.1607Z" fill="#4066F4"/>
<path d="M264.037 32.6737C264.037 32.8029 264.004 32.9413 263.94 33.0935C263.875 33.2457 263.774 33.3933 263.64 33.5363C263.501 33.6839 263.326 33.7993 263.114 33.8915C262.902 33.9838 262.653 34.0253 262.371 34.0253C262.155 34.0253 261.961 34.0068 261.785 33.9653C261.61 33.9238 261.449 33.8592 261.306 33.7762C261.163 33.6886 261.029 33.5778 260.909 33.4348C260.803 33.3057 260.711 33.1627 260.632 33.0059C260.554 32.849 260.499 32.6783 260.462 32.4984C260.425 32.3185 260.406 32.1294 260.406 31.9264C260.406 31.5989 260.452 31.3037 260.549 31.0454C260.646 30.7871 260.78 30.5656 260.96 30.3811C261.14 30.1966 261.347 30.0582 261.583 29.9614C261.822 29.8645 262.076 29.8184 262.348 29.8184C262.676 29.8184 262.971 29.8829 263.229 30.0167C263.488 30.1459 263.686 30.3119 263.82 30.5057C263.958 30.6994 264.027 30.8839 264.027 31.0546C264.027 31.1469 263.995 31.2345 263.926 31.3037C263.857 31.3729 263.778 31.4098 263.686 31.4098C263.58 31.4098 263.501 31.3867 263.451 31.336C263.4 31.2853 263.34 31.2022 263.275 31.0777C263.169 30.8747 263.04 30.7271 262.897 30.6256C262.75 30.5241 262.574 30.4734 262.362 30.4734C262.025 30.4734 261.753 30.6025 261.555 30.8609C261.356 31.1192 261.255 31.4836 261.255 31.9587C261.255 32.277 261.301 32.54 261.389 32.7475C261.476 32.9551 261.606 33.1166 261.767 33.218C261.928 33.3195 262.122 33.3749 262.339 33.3749C262.574 33.3749 262.777 33.3149 262.939 33.1996C263.1 33.0843 263.225 32.909 263.308 32.683C263.345 32.5769 263.386 32.4892 263.437 32.42C263.488 32.3508 263.571 32.3185 263.686 32.3185C263.783 32.3185 263.871 32.3508 263.94 32.42C264.004 32.4892 264.037 32.5722 264.037 32.6737ZM266.569 29.823C266.989 29.823 267.353 29.9106 267.658 30.0813C267.962 30.252 268.188 30.4965 268.345 30.8101C268.502 31.1238 268.58 31.4974 268.58 31.9218C268.58 32.2355 268.539 32.5215 268.451 32.7798C268.368 33.0381 268.239 33.2596 268.068 33.4487C267.898 33.6378 267.69 33.7808 267.441 33.8823C267.192 33.9838 266.91 34.0345 266.587 34.0345C266.269 34.0345 265.983 33.9838 265.734 33.8823C265.485 33.7808 265.273 33.6332 265.102 33.4487C264.931 33.2596 264.807 33.0381 264.719 32.7752C264.632 32.5123 264.59 32.2263 264.59 31.9218C264.59 31.6082 264.636 31.3222 264.724 31.0592C264.812 30.7963 264.945 30.5749 265.116 30.395C265.287 30.2105 265.494 30.0721 265.739 29.9752C265.983 29.8783 266.26 29.823 266.569 29.823ZM267.741 31.9172C267.741 31.6174 267.695 31.3591 267.598 31.1423C267.501 30.9254 267.362 30.7594 267.187 30.6487C267.012 30.538 266.804 30.4826 266.574 30.4826C266.408 30.4826 266.255 30.5149 266.117 30.5749C265.979 30.6348 265.859 30.7271 265.757 30.847C265.656 30.967 265.577 31.1146 265.517 31.2991C265.457 31.4836 265.43 31.6912 265.43 31.9218C265.43 32.1525 265.457 32.3647 265.517 32.5492C265.577 32.7383 265.656 32.8905 265.766 33.0151C265.872 33.1396 265.997 33.2319 266.131 33.2919C266.269 33.3518 266.421 33.3841 266.583 33.3841C266.795 33.3841 266.989 33.3334 267.164 33.2273C267.339 33.1212 267.482 32.9597 267.584 32.7383C267.685 32.5169 267.741 32.2355 267.741 31.9172ZM270.356 30.3166L271.943 32.7152V30.2935C271.943 30.1366 271.975 30.0167 272.045 29.9383C272.114 29.8599 272.201 29.8184 272.317 29.8184C272.437 29.8184 272.529 29.8599 272.598 29.9383C272.667 30.0167 272.7 30.1366 272.7 30.2935V33.4948C272.7 33.85 272.552 34.0299 272.257 34.0299C272.183 34.0299 272.114 34.0207 272.058 33.9976C271.998 33.9746 271.943 33.9423 271.892 33.8961C271.842 33.85 271.791 33.7947 271.749 33.7347C271.703 33.6747 271.662 33.6101 271.616 33.5456L270.07 31.1745V33.5594C270.07 33.7162 270.033 33.8316 269.964 33.91C269.89 33.9884 269.798 34.0299 269.687 34.0299C269.572 34.0299 269.475 33.9884 269.406 33.91C269.337 33.8316 269.3 33.7116 269.3 33.5594V30.418C269.3 30.2843 269.314 30.1782 269.346 30.1044C269.383 30.0213 269.438 29.9521 269.521 29.9014C269.604 29.8506 269.692 29.823 269.784 29.823C269.858 29.823 269.923 29.8368 269.973 29.8599C270.024 29.8829 270.07 29.9152 270.112 29.9567C270.153 29.9983 270.19 30.049 270.232 30.1136C270.269 30.1782 270.315 30.2474 270.356 30.3166ZM276.035 30.5287H274.411V31.5713H275.767C275.892 31.5713 275.989 31.5989 276.048 31.6543C276.108 31.7096 276.141 31.7881 276.141 31.8803C276.141 31.9726 276.108 32.051 276.048 32.1063C275.984 32.1617 275.892 32.1894 275.767 32.1894H274.411V33.5317C274.411 33.7024 274.374 33.8269 274.296 33.91C274.217 33.993 274.12 34.0345 274 34.0345C273.88 34.0345 273.779 33.993 273.701 33.91C273.622 33.8269 273.585 33.7024 273.585 33.5317V30.3996C273.585 30.2796 273.604 30.1828 273.636 30.109C273.673 30.0352 273.728 29.9798 273.802 29.9429C273.876 29.906 273.973 29.8922 274.088 29.8922H276.03C276.159 29.8922 276.261 29.9198 276.325 29.9798C276.39 30.0398 276.422 30.1136 276.422 30.2105C276.422 30.3073 276.39 30.3857 276.325 30.4411C276.265 30.4965 276.168 30.5287 276.035 30.5287ZM277.073 33.5271V30.3212C277.073 30.1551 277.109 30.0306 277.188 29.9475C277.262 29.8645 277.363 29.823 277.483 29.823C277.608 29.823 277.709 29.8645 277.783 29.9475C277.857 30.0306 277.898 30.1551 277.898 30.3258V33.5317C277.898 33.7024 277.861 33.8269 277.783 33.91C277.705 33.993 277.608 34.0345 277.483 34.0345C277.363 34.0345 277.266 33.993 277.188 33.91C277.109 33.8223 277.073 33.6932 277.073 33.5271ZM279.928 32.2217H279.637V33.5317C279.637 33.7024 279.6 33.8316 279.522 33.91C279.444 33.9884 279.347 34.0299 279.227 34.0299C279.098 34.0299 278.991 33.9884 278.922 33.9007C278.848 33.8177 278.816 33.6886 278.816 33.5271V30.395C278.816 30.2151 278.858 30.0905 278.936 30.0075C279.015 29.9291 279.144 29.8876 279.324 29.8876H280.666C280.85 29.8876 281.007 29.8968 281.141 29.9106C281.27 29.9245 281.39 29.9567 281.496 30.0075C281.625 30.0628 281.736 30.1366 281.833 30.2381C281.93 30.3396 282.004 30.4549 282.054 30.5887C282.105 30.7225 282.133 30.8609 282.133 31.0085C282.133 31.3129 282.045 31.5528 281.875 31.7373C281.704 31.9172 281.446 32.0464 281.095 32.1248C281.243 32.2032 281.381 32.3185 281.515 32.4708C281.648 32.623 281.768 32.7844 281.87 32.9551C281.976 33.1258 282.054 33.2826 282.114 33.421C282.174 33.5594 282.202 33.6517 282.202 33.707C282.202 33.7624 282.184 33.8131 282.151 33.8685C282.119 33.9192 282.068 33.9607 282.013 33.993C281.958 34.0253 281.884 34.0391 281.805 34.0391C281.713 34.0391 281.635 34.0161 281.57 33.9746C281.505 33.933 281.455 33.8777 281.409 33.8085C281.363 33.7439 281.303 33.6424 281.224 33.5133L280.892 32.9643C280.772 32.7614 280.666 32.6091 280.574 32.5031C280.481 32.397 280.385 32.3231 280.288 32.2862C280.195 32.2401 280.071 32.2217 279.928 32.2217ZM280.398 30.5103H279.637V31.6312H280.375C280.574 31.6312 280.74 31.6128 280.874 31.5805C281.007 31.5482 281.113 31.4882 281.183 31.4052C281.252 31.3222 281.289 31.2114 281.289 31.0638C281.289 30.9531 281.261 30.8516 281.201 30.764C281.146 30.6764 281.063 30.6118 280.961 30.5703C280.874 30.5287 280.684 30.5103 280.398 30.5103ZM284.282 33.3472L283.632 30.7548V33.564C283.632 33.7208 283.595 33.8362 283.526 33.9146C283.457 33.993 283.364 34.0299 283.249 34.0299C283.138 34.0299 283.046 33.993 282.977 33.9146C282.908 33.8362 282.871 33.7208 282.871 33.564V30.3442C282.871 30.1643 282.917 30.0444 283.009 29.9844C283.102 29.9245 283.226 29.8922 283.383 29.8922H283.637C283.789 29.8922 283.9 29.906 283.973 29.9337C284.043 29.9614 284.093 30.0121 284.126 30.0859C284.158 30.1597 284.195 30.275 284.241 30.4365L284.831 32.6645L285.422 30.4365C285.463 30.275 285.5 30.1551 285.537 30.0859C285.569 30.0121 285.62 29.966 285.689 29.9337C285.759 29.906 285.869 29.8922 286.026 29.8922H286.28C286.437 29.8922 286.561 29.9245 286.653 29.9844C286.746 30.0444 286.792 30.1643 286.792 30.3442V33.564C286.792 33.7208 286.755 33.8362 286.686 33.9146C286.617 33.993 286.524 34.0299 286.409 34.0299C286.298 34.0299 286.211 33.993 286.141 33.9146C286.072 33.8362 286.035 33.7208 286.035 33.564V30.7548L285.385 33.3472C285.343 33.5179 285.307 33.6378 285.279 33.7162C285.251 33.7947 285.2 33.8685 285.131 33.933C285.057 33.9976 284.961 34.0299 284.831 34.0299C284.735 34.0299 284.651 34.0068 284.587 33.9653C284.522 33.9238 284.467 33.8685 284.43 33.8039C284.393 33.7393 284.365 33.6655 284.342 33.5871C284.319 33.5087 284.306 33.4349 284.282 33.3472Z" fill="#EEEEEE"/>
<path d="M251.015 39.4601H253.34C253.944 39.4601 254.461 39.5155 254.895 39.6262C255.328 39.7369 255.72 39.9491 256.071 40.2581C256.989 41.0423 257.445 42.2371 257.445 43.8377C257.445 44.3682 257.399 44.8479 257.307 45.2862C257.215 45.7244 257.072 46.1165 256.883 46.4671C256.694 46.8176 256.444 47.1313 256.145 47.4081C255.909 47.6203 255.651 47.791 255.37 47.9201C255.088 48.0493 254.788 48.1369 254.466 48.1923C254.143 48.243 253.778 48.2707 253.377 48.2707H251.052C250.729 48.2707 250.485 48.2199 250.319 48.1231C250.153 48.0262 250.046 47.8878 249.996 47.7079C249.945 47.528 249.922 47.2974 249.922 47.016V40.5626C249.922 40.1797 250.01 39.8983 250.18 39.7277C250.351 39.5431 250.632 39.4601 251.015 39.4601ZM251.707 40.8716V46.8453H253.059C253.354 46.8453 253.589 46.8361 253.755 46.8223C253.921 46.8084 254.096 46.7669 254.276 46.7023C254.456 46.6377 254.613 46.5501 254.747 46.4302C255.342 45.9274 255.642 45.0555 255.642 43.8239C255.642 42.9567 255.513 42.3063 255.25 41.8726C254.987 41.439 254.664 41.1669 254.281 41.0469C253.898 40.927 253.432 40.8716 252.888 40.8716H251.707ZM264.812 40.8347H260.794V42.9936H264.494C264.766 42.9936 264.969 43.0535 265.103 43.1781C265.237 43.298 265.306 43.4595 265.306 43.6624C265.306 43.8654 265.241 44.0269 265.107 44.1514C264.974 44.276 264.771 44.3405 264.494 44.3405H260.794V46.8453H264.951C265.232 46.8453 265.444 46.9099 265.583 47.0391C265.721 47.1682 265.795 47.3435 265.795 47.5603C265.795 47.7679 265.726 47.9386 265.583 48.0677C265.44 48.1969 265.227 48.2615 264.951 48.2615H260.107C259.72 48.2615 259.438 48.1738 259.268 48.0031C259.097 47.8325 259.014 47.5511 259.014 47.1682V40.5534C259.014 40.295 259.051 40.0875 259.129 39.926C259.203 39.7646 259.323 39.6446 259.484 39.5708C259.646 39.497 259.853 39.4601 260.107 39.4601H264.812C265.098 39.4601 265.306 39.5247 265.444 39.6492C265.583 39.7738 265.652 39.9398 265.652 40.1428C265.652 40.3504 265.583 40.5165 265.444 40.6456C265.306 40.7702 265.094 40.8347 264.812 40.8347ZM268.959 40.3873V46.7946H272.571C272.857 46.7946 273.078 46.8638 273.235 47.0068C273.388 47.1452 273.466 47.3251 273.466 47.5372C273.466 47.7541 273.392 47.9293 273.24 48.0631C273.088 48.1969 272.866 48.2661 272.576 48.2661H268.272C267.884 48.2661 267.603 48.1784 267.432 48.0078C267.262 47.8371 267.179 47.5557 267.179 47.1728V40.3965C267.179 40.0367 267.262 39.7646 267.423 39.5847C267.585 39.4048 267.797 39.3125 268.064 39.3125C268.332 39.3125 268.549 39.4001 268.715 39.58C268.881 39.7599 268.959 40.0275 268.959 40.3873ZM280.436 40.8347H276.418V42.9936H280.118C280.39 42.9936 280.593 43.0535 280.727 43.1781C280.86 43.298 280.93 43.4595 280.93 43.6624C280.93 43.8654 280.865 44.0269 280.731 44.1514C280.597 44.276 280.394 44.3405 280.118 44.3405H276.418V46.8453H280.574C280.856 46.8453 281.063 46.9099 281.206 47.0391C281.349 47.1682 281.419 47.3435 281.419 47.5603C281.419 47.7679 281.349 47.9386 281.206 48.0677C281.063 48.1969 280.851 48.2615 280.574 48.2615H275.731C275.343 48.2615 275.062 48.1738 274.891 48.0031C274.721 47.8325 274.638 47.5511 274.638 47.1682V40.5534C274.638 40.295 274.675 40.0875 274.753 39.926C274.831 39.7646 274.947 39.6446 275.108 39.5708C275.27 39.497 275.477 39.4601 275.731 39.4601H280.436C280.722 39.4601 280.93 39.5247 281.068 39.6492C281.206 39.7738 281.276 39.9398 281.276 40.1428C281.276 40.3504 281.206 40.5165 281.068 40.6456C280.93 40.7702 280.722 40.8347 280.436 40.8347ZM288.555 40.9316H286.608V47.3251C286.608 47.6941 286.525 47.9662 286.364 48.1461C286.202 48.326 285.985 48.4137 285.727 48.4137C285.464 48.4137 285.247 48.3214 285.081 48.1415C284.915 47.9616 284.832 47.6895 284.832 47.3251V40.9316H282.885C282.581 40.9316 282.355 40.8624 282.207 40.7287C282.06 40.5949 281.986 40.4196 281.986 40.1982C281.986 39.9721 282.064 39.7922 282.217 39.6585C282.369 39.5247 282.595 39.4601 282.885 39.4601H288.555C288.864 39.4601 289.09 39.5293 289.242 39.6631C289.394 39.7968 289.468 39.9768 289.468 40.1982C289.468 40.4196 289.394 40.5949 289.242 40.7287C289.085 40.8624 288.859 40.9316 288.555 40.9316ZM296.323 40.8347H292.305V42.9936H296.004C296.277 42.9936 296.48 43.0535 296.613 43.1781C296.747 43.298 296.816 43.4595 296.816 43.6624C296.816 43.8654 296.752 44.0269 296.618 44.1514C296.484 44.276 296.281 44.3405 296.004 44.3405H292.305V46.8453H296.461C296.742 46.8453 296.955 46.9099 297.093 47.0391C297.231 47.1682 297.305 47.3435 297.305 47.5603C297.305 47.7679 297.236 47.9386 297.093 48.0677C296.95 48.1969 296.738 48.2615 296.461 48.2615H291.618C291.23 48.2615 290.949 48.1738 290.778 48.0031C290.607 47.8325 290.524 47.5511 290.524 47.1682V40.5534C290.524 40.295 290.561 40.0875 290.64 39.926C290.713 39.7646 290.833 39.6446 290.995 39.5708C291.156 39.497 291.364 39.4601 291.618 39.4601H296.323C296.609 39.4601 296.816 39.5247 296.955 39.6492C297.093 39.7738 297.162 39.9398 297.162 40.1428C297.162 40.3504 297.093 40.5165 296.955 40.6456C296.816 40.7702 296.604 40.8347 296.323 40.8347Z" fill="#EEEEEE"/>
<path d="M245.35 61.0856L244.93 59.9831H241.351L240.931 61.1132C240.765 61.5515 240.627 61.8513 240.511 62.0035C240.396 62.1558 240.207 62.2342 239.939 62.2342C239.713 62.2342 239.515 62.1511 239.344 61.9897C239.174 61.8282 239.086 61.6391 239.086 61.4315C239.086 61.3116 239.104 61.1871 239.146 61.0579C239.187 60.9287 239.252 60.7534 239.344 60.5228L241.595 54.8075C241.66 54.6414 241.738 54.4476 241.826 54.217C241.914 53.9864 242.01 53.7972 242.112 53.645C242.213 53.4928 242.347 53.3682 242.513 53.276C242.679 53.1837 242.882 53.133 243.127 53.133C243.376 53.133 243.584 53.1791 243.75 53.276C243.916 53.3682 244.049 53.4928 244.151 53.6404C244.252 53.788 244.34 53.9495 244.409 54.1155C244.478 54.2862 244.566 54.5122 244.677 54.7982L246.974 60.4767C247.154 60.9103 247.246 61.224 247.246 61.4177C247.246 61.6207 247.163 61.8098 246.992 61.9805C246.822 62.1511 246.619 62.2342 246.379 62.2342C246.24 62.2342 246.121 62.2111 246.019 62.1604C245.918 62.1096 245.835 62.0404 245.765 61.9574C245.696 61.8698 245.622 61.7406 245.544 61.5607C245.466 61.3808 245.406 61.2193 245.35 61.0856ZM241.817 58.6407H244.446L243.118 55.0104L241.817 58.6407ZM255.752 59.3004C255.752 59.5818 255.683 59.8816 255.545 60.2091C255.406 60.5366 255.189 60.8549 254.894 61.1686C254.599 61.4823 254.221 61.736 253.759 61.9343C253.298 62.1327 252.763 62.2296 252.15 62.2296C251.684 62.2296 251.264 62.1834 250.881 62.0958C250.498 62.0081 250.157 61.8698 249.848 61.6852C249.539 61.5007 249.253 61.2562 248.994 60.9518C248.764 60.675 248.565 60.366 248.399 60.0246C248.233 59.6833 248.113 59.3188 248.03 58.9268C247.947 58.5347 247.906 58.1241 247.906 57.6905C247.906 56.9801 248.007 56.3481 248.215 55.7854C248.422 55.2272 248.718 54.7475 249.1 54.3462C249.483 53.9448 249.935 53.645 250.452 53.4374C250.969 53.2299 251.518 53.1238 252.103 53.1238C252.814 53.1238 253.45 53.2668 254.009 53.5481C254.567 53.8341 254.991 54.1847 255.286 54.5999C255.582 55.015 255.729 55.4117 255.729 55.7854C255.729 55.9883 255.655 56.1683 255.512 56.3251C255.369 56.4819 255.194 56.5603 254.991 56.5603C254.765 56.5603 254.59 56.505 254.479 56.3989C254.364 56.2928 254.239 56.1037 254.096 55.8407C253.866 55.4025 253.589 55.0796 253.275 54.8628C252.961 54.646 252.574 54.5399 252.113 54.5399C251.379 54.5399 250.798 54.8167 250.364 55.3748C249.931 55.933 249.714 56.7218 249.714 57.7458C249.714 58.4286 249.811 59.0006 250 59.4526C250.194 59.9047 250.466 60.246 250.816 60.4721C251.167 60.6981 251.582 60.8088 252.053 60.8088C252.565 60.8088 252.998 60.6796 253.354 60.4259C253.709 60.1722 253.976 59.7986 254.156 59.305C254.23 59.0744 254.327 58.8852 254.438 58.7376C254.548 58.59 254.728 58.5162 254.977 58.5162C255.189 58.5162 255.369 58.59 255.522 58.7376C255.674 58.8991 255.752 59.0836 255.752 59.3004ZM264.853 59.3004C264.853 59.5818 264.784 59.8816 264.646 60.2091C264.507 60.5366 264.291 60.8549 263.995 61.1686C263.7 61.4823 263.322 61.736 262.861 61.9343C262.399 62.1327 261.864 62.2296 261.251 62.2296C260.785 62.2296 260.365 62.1834 259.982 62.0958C259.599 62.0081 259.258 61.8698 258.949 61.6852C258.64 61.5007 258.354 61.2562 258.096 60.9518C257.865 60.675 257.667 60.366 257.501 60.0246C257.334 59.6833 257.215 59.3188 257.131 58.9268C257.048 58.5347 257.007 58.1241 257.007 57.6905C257.007 56.9801 257.108 56.3481 257.316 55.7854C257.524 55.2272 257.819 54.7475 258.202 54.3462C258.585 53.9448 259.037 53.645 259.553 53.4374C260.07 53.2299 260.619 53.1238 261.205 53.1238C261.915 53.1238 262.552 53.2668 263.11 53.5481C263.668 53.8341 264.092 54.1847 264.388 54.5999C264.683 55.0196 264.83 55.4117 264.83 55.7854C264.83 55.9883 264.757 56.1683 264.614 56.3251C264.471 56.4819 264.295 56.5603 264.092 56.5603C263.866 56.5603 263.691 56.505 263.58 56.3989C263.465 56.2928 263.34 56.1037 263.197 55.8407C262.967 55.4025 262.69 55.0796 262.376 54.8628C262.063 54.646 261.675 54.5399 261.214 54.5399C260.48 54.5399 259.899 54.8167 259.466 55.3748C259.032 55.933 258.815 56.7218 258.815 57.7458C258.815 58.4286 258.912 59.0006 259.101 59.4526C259.295 59.9047 259.567 60.246 259.918 60.4721C260.268 60.6981 260.683 60.8088 261.154 60.8088C261.666 60.8088 262.1 60.6796 262.455 60.4259C262.81 60.1722 263.077 59.7986 263.257 59.305C263.331 59.0744 263.428 58.8852 263.539 58.7376C263.649 58.59 263.829 58.5162 264.078 58.5162C264.291 58.5162 264.471 58.59 264.623 58.7376C264.775 58.8991 264.853 59.0836 264.853 59.3004ZM270.329 53.133C271.242 53.133 272.026 53.3175 272.677 53.6865C273.327 54.0556 273.825 54.5814 274.162 55.2641C274.499 55.9468 274.665 56.7495 274.665 57.6674C274.665 58.3455 274.573 58.9683 274.388 59.5218C274.204 60.0754 273.927 60.5597 273.558 60.9702C273.189 61.3762 272.737 61.6899 272.202 61.9067C271.667 62.1235 271.053 62.2296 270.357 62.2296C269.669 62.2296 269.051 62.1189 268.507 61.8974C267.963 61.676 267.51 61.3623 267.146 60.9564C266.782 60.5505 266.505 60.0661 266.32 59.4987C266.136 58.9314 266.039 58.3178 266.039 57.6536C266.039 56.9755 266.136 56.3574 266.33 55.7946C266.523 55.2318 266.805 54.7521 267.174 54.3554C267.543 53.9587 267.99 53.6542 268.521 53.4467C269.056 53.2345 269.655 53.133 270.329 53.133ZM272.861 57.6582C272.861 57.0124 272.755 56.4542 272.548 55.9837C272.34 55.5132 272.04 55.1534 271.657 54.9135C271.27 54.6737 270.827 54.5491 270.329 54.5491C269.974 54.5491 269.642 54.6183 269.342 54.7521C269.042 54.8859 268.779 55.0796 268.562 55.3379C268.345 55.5963 268.17 55.9192 268.046 56.3205C267.921 56.7172 267.856 57.1646 267.856 57.6628C267.856 58.161 267.921 58.6131 268.046 59.019C268.17 59.4249 268.35 59.7571 268.581 60.0246C268.811 60.2922 269.074 60.4905 269.374 60.6197C269.674 60.7534 270.001 60.818 270.357 60.818C270.813 60.818 271.233 60.7027 271.616 60.4767C271.999 60.2506 272.303 59.8954 272.529 59.4203C272.746 58.9406 272.861 58.3548 272.861 57.6582ZM276.206 58.4424V54.2124C276.206 53.8526 276.289 53.5804 276.45 53.4005C276.612 53.2206 276.824 53.1284 277.091 53.1284C277.368 53.1284 277.585 53.2206 277.746 53.4005C277.908 53.5804 277.991 53.8526 277.991 54.2124V58.5393C277.991 59.0328 278.046 59.4434 278.157 59.7709C278.268 60.0984 278.461 60.3567 278.743 60.5413C279.024 60.7212 279.416 60.8134 279.919 60.8134C280.616 60.8134 281.109 60.6289 281.395 60.2599C281.681 59.8908 281.829 59.3281 281.829 58.5762V54.2124C281.829 53.848 281.907 53.5758 282.069 53.4005C282.23 53.2252 282.442 53.133 282.71 53.133C282.977 53.133 283.194 53.2206 283.36 53.4005C283.526 53.5804 283.609 53.848 283.609 54.2124V58.4424C283.609 59.1297 283.54 59.7063 283.406 60.163C283.273 60.6243 283.019 61.0256 282.645 61.3762C282.327 61.6714 281.953 61.8882 281.529 62.0266C281.105 62.1604 280.606 62.2296 280.039 62.2296C279.361 62.2296 278.78 62.1558 278.291 62.0081C277.802 61.8605 277.405 61.6345 277.096 61.3301C276.787 61.0256 276.561 60.6335 276.418 60.1538C276.275 59.674 276.206 59.1067 276.206 58.4424ZM287.858 54.1986L291.285 59.3834V54.1478C291.285 53.8065 291.359 53.5528 291.507 53.3821C291.654 53.2114 291.848 53.1284 292.097 53.1284C292.355 53.1284 292.554 53.2114 292.701 53.3821C292.849 53.5528 292.923 53.8065 292.923 54.1478V61.0671C292.923 61.8375 292.604 62.2249 291.963 62.2249C291.802 62.2249 291.659 62.2019 291.53 62.1558C291.401 62.1096 291.281 62.0358 291.17 61.9343C291.059 61.8329 290.953 61.7175 290.856 61.5838C290.759 61.45 290.662 61.3116 290.57 61.1732L287.226 56.0483V61.2055C287.226 61.5422 287.147 61.796 286.991 61.9666C286.834 62.1373 286.635 62.2249 286.391 62.2249C286.137 62.2249 285.939 62.1373 285.787 61.962C285.634 61.7867 285.561 61.533 285.561 61.2009V54.4107C285.561 54.1247 285.593 53.8987 285.657 53.7327C285.731 53.5528 285.86 53.4051 286.036 53.2898C286.211 53.1745 286.4 53.1191 286.608 53.1191C286.769 53.1191 286.903 53.1468 287.018 53.1976C287.134 53.2483 287.23 53.3175 287.318 53.4098C287.406 53.4974 287.493 53.6127 287.581 53.7511C287.669 53.9033 287.761 54.0463 287.858 54.1986ZM300.589 54.7521H298.643V61.1455C298.643 61.5146 298.56 61.7867 298.398 61.9666C298.237 62.1465 298.02 62.2342 297.762 62.2342C297.499 62.2342 297.282 62.1419 297.116 61.962C296.95 61.7821 296.867 61.51 296.867 61.1455V54.7521H294.92C294.616 54.7521 294.39 54.6829 294.242 54.5491C294.094 54.4154 294.021 54.2401 294.021 54.0187C294.021 53.7926 294.099 53.6127 294.251 53.4789C294.403 53.3452 294.63 53.2806 294.92 53.2806H300.589C300.898 53.2806 301.124 53.3498 301.277 53.4836C301.429 53.6173 301.503 53.7972 301.503 54.0187C301.503 54.2401 301.429 54.4154 301.277 54.5491C301.12 54.6829 300.894 54.7521 300.589 54.7521ZM302.139 55.6424C302.139 55.2641 302.259 54.8766 302.504 54.4846C302.748 54.0925 303.103 53.7696 303.574 53.5158C304.044 53.2575 304.589 53.133 305.211 53.133C305.793 53.133 306.305 53.2391 306.748 53.4559C307.19 53.6681 307.536 53.9633 307.776 54.3277C308.016 54.6921 308.141 55.0981 308.141 55.5271C308.141 55.8684 308.071 56.1636 307.933 56.422C307.795 56.6803 307.629 56.8971 307.439 57.0862C307.25 57.2753 306.909 57.5844 306.415 58.0272C306.282 58.1518 306.171 58.2625 306.088 58.3548C306.005 58.447 305.945 58.5347 305.903 58.6131C305.862 58.6915 305.834 58.7699 305.811 58.8483C305.788 58.9267 305.756 59.0651 305.714 59.2589C305.64 59.674 305.401 59.8816 304.999 59.8816C304.792 59.8816 304.616 59.8124 304.473 59.6786C304.33 59.5449 304.261 59.3419 304.261 59.0744C304.261 58.7376 304.312 58.447 304.418 58.2025C304.524 57.958 304.658 57.7412 304.833 57.5521C305.008 57.363 305.239 57.1462 305.53 56.8879C305.788 56.6618 305.973 56.4958 306.083 56.3804C306.199 56.2651 306.295 56.1406 306.369 55.9976C306.448 55.8592 306.485 55.707 306.485 55.5409C306.485 55.2226 306.365 54.9505 306.129 54.729C305.894 54.5076 305.585 54.3969 305.207 54.3969C304.769 54.3969 304.441 54.5076 304.234 54.729C304.026 54.9505 303.851 55.278 303.703 55.7116C303.569 56.1636 303.311 56.3897 302.928 56.3897C302.702 56.3897 302.513 56.3112 302.361 56.1544C302.213 55.9976 302.139 55.8223 302.139 55.6424ZM305.068 62.2203C304.824 62.2203 304.612 62.1419 304.427 61.9851C304.247 61.8282 304.155 61.6068 304.155 61.3208C304.155 61.0671 304.243 60.8549 304.418 60.6843C304.593 60.5136 304.81 60.4259 305.068 60.4259C305.322 60.4259 305.534 60.5136 305.705 60.6843C305.876 60.8549 305.963 61.0671 305.963 61.3208C305.963 61.6022 305.871 61.819 305.691 61.9805C305.511 62.1419 305.304 62.2203 305.068 62.2203Z" fill="#EEEEEE"/>
<path d="M320.51 172.448C318.554 171.876 316.538 172.42 315.136 173.703C314.647 171.867 313.245 170.322 311.289 169.75C308.309 168.878 305.186 170.584 304.314 173.564C303.115 177.656 308.886 186.499 310.32 188.612C310.505 188.884 310.855 188.99 311.155 188.865C313.503 187.906 323.052 183.763 324.325 179.427C325.201 176.447 323.49 173.324 320.51 172.448ZM107.612 45.3635C105.942 44.8745 104.222 45.3404 103.027 46.4337C102.607 44.8653 101.413 43.546 99.7427 43.057C97.201 42.3144 94.5348 43.772 93.7875 46.3137C92.7635 49.8057 97.69 57.3523 98.9124 59.156C99.0693 59.3866 99.3691 59.4789 99.6274 59.3728C101.629 58.5563 109.785 55.0182 110.869 51.3141C111.616 48.7724 110.159 46.1061 107.612 45.3635Z" fill="#DCE5EF"/>
<path d="M147.631 84.4531L145.403 85.694C145.228 85.7909 145.034 85.8416 144.836 85.8416H112.767L111.305 90.579H147.636V84.4531H147.631Z" fill="#6F81C6"/>
<path d="M149.197 90.4322L152.79 88.4302V81.5801L147.633 84.4539V90.5798H148.625C148.828 90.5798 149.021 90.529 149.197 90.4322Z" fill="#C7D2DD"/>
<path d="M161.723 81.4225L157.433 78.9961L152.797 81.5793V88.4294L161.718 83.4613C162.512 83.0139 162.516 81.8699 161.723 81.4225Z" fill="#DCE5EF"/>
<path d="M229.394 83.2997C228.481 83.2997 227.609 83.1337 226.797 82.8477C227.581 85.0664 229.343 86.8193 231.562 87.5989V83.2997H229.394Z" fill="#C7D2DD"/>
<path d="M248.711 99.0301C248.619 98.4535 248.453 97.9092 248.232 97.3926L246.133 98.7257V104.441C246.133 104.833 246.327 105.147 246.603 105.345C248.241 103.717 249.099 101.41 248.711 99.0301Z" fill="#6F81C6"/>
</svg>
