<svg width="317" height="260" viewBox="0 0 317 260" fill="none" xmlns="http://www.w3.org/2000/svg">
<path d="M15.0151 217.595C16.6358 214.09 14.137 205.088 16.4526 201.047C18.7674 197.007 17.5124 190.703 16.9531 188.283C16.3937 185.862 16.9752 184.209 17.4388 181.648C17.9033 179.087 16.8486 175.382 16.8486 175.382C16.7867 178.551 14.4101 182.904 12.6863 185.698C10.9633 188.493 7.72629 196.087 8.14214 199.511C8.55799 202.935 8.36589 203.195 8.36589 203.195C7.17501 207.797 8.41373 209.08 8.06633 214.063C7.71893 219.045 10.8846 218.631 11.0399 221.799C11.1944 224.967 15.3772 230.3 17.3255 234.1C18.339 236.077 18.7313 239.108 18.8756 241.562L20.4161 241.549C19.7698 235.34 17.2136 231.036 15.6783 227.582C13.7021 223.135 13.3944 221.101 15.0151 217.595Z" fill="#23398A"/>
<path d="M19.8697 240.454C19.6945 240.646 19.52 240.855 19.3625 241.065C19.0137 240.619 18.6464 240.226 18.271 239.921C16.0615 238.14 12.0877 236.035 11.136 234.156C10.1924 232.27 8.38476 233.379 7.24981 230.261C6.11339 227.143 5.02187 226.698 4.49782 223.588C4.49782 223.588 4.55008 223.379 3.37171 221.413C2.20143 219.448 2.11311 213.964 2.41046 211.807C2.69898 209.65 2.96984 206.366 2.14844 204.427C2.14844 204.427 3.7905 206.392 4.2012 208.069C4.60307 209.745 4.69876 210.907 5.69459 212.226C6.68087 213.545 9.14433 217.03 8.83005 220.103C8.51577 223.178 12.4542 227.964 12.4196 230.532C12.3755 233.09 13.1189 234.244 15.5109 236.41C16.7342 237.519 18.3321 238.733 19.8697 240.454Z" fill="#377BC0"/>
<path d="M286.333 19.2874V248.283C286.333 253.437 282.161 257.609 277.024 257.609H39.0983C33.9608 257.609 29.7891 253.437 29.7891 248.283V19.2874C29.7891 14.1345 33.9608 9.96277 39.0983 9.96277H277.024C282.161 9.96277 286.333 14.1338 286.333 19.2874Z" fill="#E8F2FD"/>
<path d="M286.333 17.7749V9.32467C286.333 4.17178 282.161 0 277.024 0H39.0983C33.9608 0 29.7891 4.17178 29.7891 9.32467V17.7749H286.333Z" fill="#A7B6C6"/>
<path d="M40.7441 12.5507C42.1733 12.5507 43.332 11.3921 43.332 9.96285C43.332 8.53362 42.1733 7.375 40.7441 7.375C39.3149 7.375 38.1562 8.53362 38.1562 9.96285C38.1562 11.3921 39.3149 12.5507 40.7441 12.5507Z" fill="white"/>
<path d="M49.3222 12.5507C50.7515 12.5507 51.9101 11.3921 51.9101 9.96285C51.9101 8.53362 50.7515 7.375 49.3222 7.375C47.893 7.375 46.7344 8.53362 46.7344 9.96285C46.7344 11.3921 47.893 12.5507 49.3222 12.5507Z" fill="white"/>
<path d="M57.9082 12.5507C59.3374 12.5507 60.496 11.3921 60.496 9.96285C60.496 8.53362 59.3374 7.375 57.9082 7.375C56.4789 7.375 55.3203 8.53362 55.3203 9.96285C55.3203 11.3921 56.4789 12.5507 57.9082 12.5507Z" fill="white"/>
<path d="M25.6569 181.971C25.6569 181.971 24.9334 188.38 23.9861 191.298C23.0403 194.216 22.1416 197.004 22.9181 203.982C23.6939 210.961 24.1451 211.539 24.324 213.349C24.5035 215.158 24.307 222.792 24.7052 224.05C25.1034 225.307 22.5229 234.058 22.3595 237.81C22.3109 238.938 22.216 240.224 22.1328 241.535L22.6075 241.532C22.764 239.765 23.0883 238.018 23.5762 236.313C25.5892 229.312 24.6765 228.416 28.1329 224.022C31.5892 219.628 31.7747 210.572 31.7747 210.572C31.7747 210.572 33.3719 200.276 31.654 195.763C29.9361 191.25 29.7698 186.725 25.6569 181.971Z" fill="#23398A"/>
<path d="M22.425 237.893C21.8326 238.418 21.2615 238.966 20.713 239.536C20.8087 235.3 20.9485 231.204 20.3987 229.597C19.3852 226.637 18.1803 222.68 18.2414 218.986C18.3025 215.291 13.0532 212.811 13.0885 206.139C13.1319 199.466 11.481 196.059 10.0929 191.649C8.70403 187.248 10.4418 179.125 10.4418 179.125C20.6872 186.696 20.3023 194.994 22.7915 201.912C25.2807 208.829 24.1458 213.798 24.014 219.3C23.8742 224.794 22.4596 227.335 22.6598 230.488C22.765 232.069 22.634 235.03 22.4242 237.894L22.425 237.893Z" fill="#377BC0"/>
<path d="M36.0412 221.143C34.9843 222.986 34.949 223.3 34.949 223.335C34.486 226.462 33.3945 226.925 32.3118 230.06C31.2284 233.195 29.4031 232.112 28.486 234.008C27.683 235.667 24.5475 237.545 22.3203 239.204C22.3549 238.777 22.3814 238.331 22.416 237.894C23.0365 237.335 23.6304 236.829 24.1545 236.34C26.5127 234.139 27.2288 232.977 27.1501 230.41C27.0713 227.851 30.9318 222.994 30.5652 219.929C30.2068 216.855 32.6084 213.335 33.5778 211.999C34.5479 210.663 34.6259 209.501 35.002 207.815C35.3862 206.13 36.9929 204.138 36.9929 204.138C36.2069 206.094 36.53 209.37 36.8531 211.528C37.185 213.684 37.185 219.16 36.0412 221.143Z" fill="#377BC0"/>
<path d="M8.17729 229.275C7.87814 229.277 7.58254 229.34 7.30855 229.46C7.03456 229.58 6.78795 229.755 6.58381 229.973C6.37967 230.192 6.22229 230.45 6.1213 230.731C6.02031 231.013 5.97783 231.312 5.99646 231.611C6.46751 239.171 8.22808 257.048 14.3334 256.463L27.4846 256.357C33.5988 256.842 35.0686 238.939 35.4168 231.372C35.4304 231.073 35.383 230.775 35.2774 230.495C35.1718 230.215 35.0103 229.96 34.8028 229.745C34.5952 229.53 34.346 229.359 34.0702 229.243C33.7945 229.128 33.4981 229.07 33.1991 229.072L8.17729 229.276V229.275Z" fill="#83BFFC"/>
<path d="M100.312 42.032H177.266V118.985H100.312V42.032ZM195.505 42.032H272.458V118.985H195.505V42.032ZM100.312 138.622H177.266V215.576H100.312V138.622ZM195.505 138.622H272.458V215.576H195.505V138.622Z" fill="white"/>
<path d="M150.192 55.9054C151.178 56.821 152.188 60.0146 152.425 61.3395C153.048 64.8208 152.801 68.4531 151.714 71.8182C151.546 72.3356 151.342 72.8729 150.922 73.2189C150.274 73.7525 149.305 73.6678 148.533 73.3366C147.28 72.7993 146.317 71.7144 145.718 70.4897C145.118 69.2657 144.853 67.904 144.706 66.549C144.356 63.3066 144.648 60.027 145.566 56.8976" fill="#060E2D"/>
<path d="M166.332 118.985C161.481 108.437 153.368 94.5333 151.018 93.1451L149.836 118.985H166.332Z" fill="#82BEFA"/>
<path d="M161.483 118.985C161.469 118.873 161.453 118.76 161.433 118.648C160.63 114.227 157.221 109.121 157.221 109.121L154.565 99.8827C154.565 99.8827 154.248 113.32 154.117 118.985H161.483Z" fill="#0575E6"/>
<path d="M133.073 101.5C132.823 101.605 132.56 101.701 132.323 101.838C131.556 102.281 131.187 103.078 130.858 103.929L123.059 107.606L122.782 107.553C122.61 107.522 122.439 107.487 122.269 107.448C121.177 107.202 120.08 106.807 119.427 105.93C118.72 104.983 118.698 103.67 119.019 102.535C119.344 101.403 119.966 100.381 120.489 99.3196C121.006 98.2627 121.431 97.0998 121.309 95.9288C121.159 94.5428 120.282 93.3497 119.945 91.9984C119.44 89.9545 120.265 87.7663 121.616 86.1514C122.963 84.5373 125.099 84.0758 126.612 82.6112C126.997 82.2348 127.388 81.8635 127.783 81.4976L130.898 82.0017C130.898 82.0017 131.191 83.2647 131.512 84.7125C131.81 86.0683 132.13 87.5948 132.231 88.3757C132.485 90.2614 132.722 94.1652 132.889 97.442C132.968 99.0473 133.03 100.504 133.073 101.5Z" fill="#060E2D"/>
<path d="M122.784 107.553L123.06 107.606L122.008 108.101L122.271 107.448C122.442 107.487 122.613 107.522 122.784 107.553ZM123.06 107.606L130.859 103.929C130.587 104.614 130.351 105.329 129.943 105.921C129.21 106.991 127.938 107.606 126.653 107.794C125.46 107.974 124.249 107.825 123.06 107.606ZM132.325 101.838C132.562 101.701 132.824 101.605 133.075 101.499C133.109 102.342 133.127 102.859 133.127 102.859L130.86 103.929C131.188 103.079 131.557 102.281 132.325 101.838Z" fill="#3D519C"/>
<path d="M134 100.877C133.78 101.193 133.438 101.355 133.075 101.5C133.03 100.504 132.969 99.0472 132.891 97.4419C132.969 97.6171 133.061 97.7886 133.167 97.9549C133.451 98.4157 133.811 98.8322 134.031 99.3239C134.25 99.8193 134.311 100.433 134 100.877Z" fill="#3D519C"/>
<path d="M131.512 84.7118C127.974 84.6293 126.609 82.6119 126.609 82.6119C127.3 81.9421 127.78 81.4983 127.78 81.4983L130.896 82.0032C130.896 82.0032 131.191 83.2647 131.512 84.7118Z" fill="#6081FE"/>
<path d="M119.727 118.985H160.067C160.004 116.032 158.942 112.586 155.857 109.327C155.857 109.327 155.188 95.889 151.443 93.4152C148.655 91.573 147.819 91.9697 144.49 91.6561C141.105 91.336 135.208 91.5163 131.822 91.8291C128.163 92.1662 121.495 94.0033 119.506 97.0887C118.343 98.8935 118.648 106.295 119.342 113.917C119.46 115.223 119.591 116.963 119.727 118.985Z" fill="#82BEFA"/>
<path d="M127.307 118.986C128.285 114.332 129.096 109.201 128.729 106.196C128.059 100.704 123.724 98.3165 123.724 98.3165C121.967 99.1953 120.784 107.11 119.336 113.917C119.454 115.223 119.585 116.963 119.721 118.986H127.307Z" fill="#0575E6"/>
<path d="M126.054 118.985C127.387 114.513 128.44 109.467 128.136 105.307C127.542 97.1837 119.957 96.433 119.957 96.433C116.985 97.788 113.29 108.783 111.25 118.985H126.054Z" fill="#82BEFA"/>
<path d="M142.624 98.3731C135.298 100.48 131.82 91.8299 131.82 91.8299L132.502 80.9699L136.63 80.1882L140.193 82.6392L143.482 84.9017L143.06 89.2663L142.848 91.4884C142.848 91.4884 145.259 97.615 142.624 98.3739V98.3731Z" fill="#BDDDFE"/>
<path d="M143.479 84.9016L143.058 89.2662C143.058 89.2662 135.199 86.3097 134.048 82.9365C133.274 80.657 137.417 81.7124 140.189 82.6391L143.479 84.9016Z" fill="#89BDF1"/>
<path d="M146.45 87.4491C138.128 89.8154 132.506 80.9684 132.506 80.9684C132.506 80.9684 127.724 80.2324 127.54 76.617C127.356 73.0017 130.236 72.5711 131.218 73.6118C131.218 73.6118 132.506 58.1635 142.312 58.41C146.166 58.5057 148.767 62.7025 150.006 67.8701C151.92 75.8486 151.334 86.0602 146.45 87.4491Z" fill="#BDDDFE"/>
<path d="M151.561 63.9426C150.754 72.6409 135.037 64.3069 136.573 67.0876C138.107 69.8646 135.691 69.5511 133.95 72.9831C132.652 75.5393 132.789 76.8002 132.46 76.9378C132.052 77.1071 131.741 76.2857 131.532 75.4172C131.021 73.2945 127.877 73.399 127.573 75.5607C127.528 75.8772 127.512 76.2283 127.532 76.6154C127.716 80.2337 132.497 80.9668 132.497 80.9668L132.313 83.9013C116.906 80.1881 118.954 53.781 140.481 52.9022C148.78 52.5637 152.363 55.2443 151.561 63.9426Z" fill="#060E2D"/>
<path d="M141.671 74.1038C142.084 74.0849 142.396 73.5675 142.367 72.9483C142.339 72.329 141.981 71.8423 141.568 71.8613C141.155 71.8802 140.843 72.3975 140.872 73.0168C140.9 73.636 141.258 74.1227 141.671 74.1038Z" fill="#060E2D"/>
<path d="M140.485 71.4789C140.409 71.4789 140.335 71.4552 140.272 71.4111C140.21 71.367 140.163 71.3045 140.138 71.2325C140.113 71.1604 140.11 71.0823 140.132 71.009C140.153 70.9356 140.196 70.8707 140.256 70.8231C141.815 69.5807 142.827 70.4632 142.869 70.5014C142.942 70.5662 142.987 70.6574 142.993 70.7548C142.998 70.8523 142.965 70.9481 142.9 71.0211C142.836 71.0941 142.744 71.1383 142.647 71.1441C142.549 71.1499 142.454 71.1168 142.381 71.052C142.347 71.024 141.757 70.5669 140.714 71.3979C140.649 71.4501 140.569 71.4787 140.485 71.4789Z" fill="#060E2D"/>
<path d="M147.991 74.1038C148.404 74.0849 148.716 73.5675 148.688 72.9483C148.659 72.329 148.301 71.8423 147.888 71.8613C147.475 71.8802 147.164 72.3975 147.192 73.0168C147.22 73.636 147.578 74.1227 147.991 74.1038Z" fill="#060E2D"/>
<path d="M146.806 71.4789C146.729 71.4789 146.655 71.4552 146.593 71.4111C146.53 71.367 146.483 71.3045 146.458 71.2325C146.433 71.1604 146.431 71.0823 146.452 71.009C146.473 70.9356 146.516 70.8707 146.576 70.8231C148.136 69.5807 149.149 70.4632 149.191 70.5014C149.264 70.5662 149.308 70.6574 149.314 70.7548C149.32 70.8523 149.287 70.9481 149.222 71.0211C149.157 71.0941 149.066 71.1383 148.969 71.1441C148.871 71.1499 148.776 71.1168 148.703 71.052C148.668 71.024 148.078 70.5669 147.035 71.3979C146.97 71.4503 146.889 71.4788 146.806 71.4789Z" fill="#060E2D"/>
<path d="M146.071 79.0157C145.996 79.0157 145.923 78.993 145.862 78.9507C145.801 78.9084 145.753 78.8485 145.727 78.7788C145.7 78.7092 145.695 78.6331 145.713 78.5606C145.731 78.4882 145.77 78.4228 145.826 78.3731C146.005 78.2134 146.108 78.0029 146.114 77.7806C146.116 77.672 146.096 77.564 146.055 77.4634C146.014 77.3629 145.952 77.2719 145.874 77.1962C145.791 77.113 145.693 77.0395 145.596 76.9651C145.522 76.9084 145.448 76.8518 145.378 76.7921C144.872 76.3616 144.53 75.7588 144.392 75.0492C144.274 74.4406 144.311 73.8414 144.346 73.2614C144.355 73.1649 144.4 73.0753 144.472 73.011C144.545 72.9468 144.639 72.9129 144.736 72.9162C144.834 72.9223 144.925 72.9668 144.989 73.04C145.054 73.1131 145.087 73.2089 145.081 73.3063C145.048 73.84 145.015 74.392 145.115 74.9087C145.188 75.2877 145.377 75.825 145.855 76.2313C145.915 76.2828 145.979 76.3314 146.043 76.3807C146.166 76.4749 146.289 76.5706 146.395 76.6766C146.701 76.9828 146.862 77.3832 146.849 77.8027C146.842 78.0161 146.791 78.2257 146.699 78.4185C146.607 78.6112 146.476 78.7829 146.315 78.9229C146.248 78.9827 146.161 79.0157 146.071 79.0157ZM144.205 82.1232C143.187 82.1232 142.179 81.5895 141.613 80.7424C141.585 80.7022 141.565 80.657 141.555 80.6092C141.545 80.5614 141.544 80.512 141.553 80.464C141.562 80.416 141.581 80.3703 141.608 80.3295C141.635 80.2887 141.67 80.2537 141.71 80.2266C141.751 80.1994 141.796 80.1806 141.844 80.1712C141.892 80.1619 141.942 80.1622 141.99 80.1721C142.037 80.182 142.083 80.2014 142.123 80.229C142.163 80.2567 142.198 80.2921 142.224 80.3332C142.672 81.0022 143.481 81.41 144.285 81.3857C144.334 81.3827 144.382 81.3896 144.428 81.4059C144.474 81.4222 144.516 81.4477 144.551 81.4807C144.587 81.5137 144.616 81.5536 144.635 81.598C144.655 81.6424 144.666 81.6904 144.666 81.7389C144.668 81.7873 144.661 81.8355 144.644 81.8809C144.627 81.9263 144.601 81.9679 144.569 82.0033C144.536 82.0388 144.496 82.0675 144.452 82.0877C144.408 82.1078 144.361 82.1192 144.312 82.121C144.277 82.1224 144.241 82.1231 144.205 82.1232Z" fill="#89BDF1"/>
<path d="M221.73 59.3029C219.964 61.196 218.396 63.2647 217.051 65.4766C216.509 66.3672 215.979 67.3778 216.104 68.4398C216.244 69.6329 217.184 70.536 218.182 71.0314C220.28 72.0728 222.91 71.7181 224.678 70.1003C225.902 68.9801 226.692 67.3056 226.819 65.5613C226.945 63.8176 226.407 62.0269 225.361 60.7079" fill="#060E2D"/>
<path d="M204.055 118.985C209.095 110.116 213.772 101.512 217.66 99.5632L222.366 118.985H204.055Z" fill="#3A81C9"/>
<path d="M210.312 118.985C211.954 113.37 213.043 109.216 213.043 109.216L215.566 118.985H210.312Z" fill="#1C68B5"/>
<path d="M254.618 118.985H211.477C212.328 110.746 214.088 102.498 217.667 99.5647C220.363 97.3544 228.003 97.1947 228.003 97.1947L240.742 98.0419C240.742 98.0419 251.317 98.5792 254.038 102.727C255.422 104.832 255.422 110.269 254.858 116.548C254.785 117.361 254.705 118.174 254.618 118.985Z" fill="#3A81C9"/>
<path d="M244.113 118.985C243.884 117.974 243.74 117.091 243.723 116.412C243.59 111.411 246.743 106.143 246.743 106.143L254.86 116.548C254.787 117.361 254.706 118.174 254.619 118.985H244.113Z" fill="#1C68B5"/>
<path d="M230.772 104.486C236.153 104.228 240.932 98.2215 240.939 98.0404C241.138 93.7185 242.05 83.7432 242.948 80.6541C243.147 79.9733 242.566 79.3344 241.945 79.5486L228.73 84.0729C228.324 84.2127 228.087 84.6787 228.196 85.1328C228.413 86.0634 228.561 87.0088 228.639 87.9613C228.777 89.7374 228.713 91.5234 228.448 93.285C228.403 93.5867 228.346 94.1093 228.279 94.7121V94.7165C228.117 96.2622 228.061 97.1874 228 97.4141C227.971 97.5252 227.732 104.631 230.772 104.486Z" fill="#BDDDFE"/>
<path d="M228.273 94.712V94.7164C228.273 94.7164 235.596 91.7532 236.889 89.2066C238.595 85.8459 229.705 87.4747 229.705 87.4747C229.705 87.4747 229.239 87.6852 228.634 87.9612C228.772 89.7373 228.708 91.5233 228.443 93.2849C228.398 93.5866 228.341 94.1092 228.273 94.712Z" fill="#89BDF1"/>
<path d="M225.139 92.0249C233.12 94.1763 240.247 86.1389 242.197 82.7944V82.79C242.542 82.1982 242.775 81.7375 242.897 81.485C242.965 81.3452 243.067 81.2296 243.195 81.1435C244.225 80.4531 248.895 77.1219 247.723 74.1675C246.958 72.2443 245.649 72.0161 244.686 72.1648C244.119 72.2516 243.626 71.7526 243.703 71.1859C245.778 55.7552 228.783 56.4235 224.106 63.3877C223.9 63.6932 223.689 64.0678 223.48 64.505C220.436 70.7281 216.564 89.7138 225.139 92.0249Z" fill="#BDDDFE"/>
<path d="M232.947 75.5688C232.984 74.7611 232.577 74.0864 232.039 74.0617C231.5 74.037 231.034 74.6718 230.997 75.4795C230.96 76.2871 231.366 76.9619 231.905 76.9866C232.443 77.0112 232.91 76.3765 232.947 75.5688Z" fill="#060E2D"/>
<path d="M233.452 73.4507C233.369 73.4505 233.289 73.4222 233.224 73.3704C231.771 72.2127 230.94 72.892 230.906 72.9215C230.832 72.9841 230.736 73.0154 230.64 73.0085C230.543 73.0016 230.453 72.9572 230.389 72.8847C230.325 72.8126 230.292 72.7182 230.297 72.6221C230.303 72.5259 230.346 72.4356 230.417 72.3709C230.47 72.3238 231.723 71.2323 233.682 72.7949C233.741 72.8425 233.785 72.9074 233.805 72.9807C233.826 73.0539 233.824 73.1318 233.799 73.2037C233.774 73.2755 233.727 73.3378 233.665 73.3819C233.603 73.426 233.529 73.4498 233.452 73.4499V73.4507Z" fill="#060E2D"/>
<path d="M224.697 75.5688C224.734 74.7611 224.327 74.0864 223.789 74.0617C223.25 74.0371 222.784 74.6718 222.747 75.4795C222.71 76.2871 223.116 76.9619 223.655 76.9866C224.193 77.0112 224.66 76.3765 224.697 75.5688Z" fill="#060E2D"/>
<path d="M225.203 73.4507C225.119 73.4509 225.038 73.4225 224.973 73.3704C223.523 72.2134 222.691 72.892 222.657 72.9215C222.583 72.9846 222.487 73.0161 222.39 73.0092C222.293 73.0023 222.203 72.9576 222.139 72.8847C222.075 72.8125 222.042 72.7181 222.047 72.6219C222.053 72.5257 222.096 72.4355 222.167 72.3709C222.22 72.3238 223.472 71.2323 225.432 72.7949C225.492 72.8425 225.535 72.9074 225.556 72.9807C225.577 73.0539 225.575 73.1318 225.549 73.2037C225.524 73.2755 225.477 73.3378 225.415 73.3819C225.353 73.426 225.279 73.4498 225.203 73.4499V73.4507Z" fill="#060E2D"/>
<path d="M226.17 83.2802C226.08 83.2805 225.993 83.2474 225.926 83.1875C225.727 83.0149 225.566 82.8033 225.452 82.5657C225.339 82.3282 225.276 82.0698 225.266 81.8067C225.251 81.2915 225.45 80.7984 225.826 80.4208C225.967 80.2857 226.117 80.1601 226.275 80.0447C226.359 79.9792 226.444 79.9144 226.525 79.846C227.173 79.2954 227.427 78.5697 227.526 78.0574C227.66 77.37 227.616 76.6428 227.572 75.9392C227.569 75.8904 227.574 75.8413 227.59 75.7948C227.605 75.7483 227.629 75.7053 227.661 75.6684C227.694 75.6314 227.733 75.6013 227.777 75.5796C227.821 75.558 227.868 75.5453 227.917 75.5424C227.966 75.5395 228.015 75.5463 228.061 75.5625C228.107 75.5787 228.15 75.604 228.186 75.6368C228.222 75.6697 228.252 75.7094 228.273 75.7537C228.293 75.7981 228.305 75.8461 228.307 75.895C228.353 76.6435 228.4 77.4186 228.249 78.1973C228.074 79.0982 227.643 79.8622 227.001 80.4075C226.91 80.4838 226.817 80.5577 226.722 80.6291C226.591 80.7292 226.46 80.8278 226.347 80.9404C226.234 81.05 226.146 81.1816 226.086 81.327C226.027 81.4723 225.998 81.6284 226.002 81.7854C226.011 82.1063 226.159 82.4088 226.415 82.6377C226.471 82.6873 226.51 82.7526 226.528 82.825C226.545 82.8974 226.541 82.9734 226.514 83.043C226.488 83.1127 226.441 83.1726 226.38 83.215C226.318 83.2573 226.246 83.2801 226.171 83.2802H226.17ZM228.605 87.3328C228.559 87.3328 228.514 87.3313 228.468 87.3298C228.371 87.3262 228.279 87.284 228.212 87.2125C228.146 87.141 228.111 87.0461 228.114 86.9486C228.121 86.7454 228.3 86.5784 228.495 86.5945C229.041 86.6088 229.582 86.4862 230.068 86.238C230.555 85.9898 230.971 85.6237 231.28 85.1733C231.306 85.1311 231.34 85.0946 231.38 85.066C231.421 85.0373 231.466 85.0171 231.515 85.0065C231.563 84.9959 231.613 84.9952 231.662 85.0044C231.71 85.0136 231.756 85.0325 231.798 85.06C231.839 85.0875 231.874 85.123 231.901 85.1644C231.928 85.2058 231.947 85.2522 231.955 85.301C231.964 85.3497 231.963 85.3996 231.952 85.4479C231.941 85.4962 231.92 85.5417 231.891 85.5818C231.173 86.6564 229.895 87.3328 228.605 87.3328Z" fill="#89BDF1"/>
<path d="M228.601 87.3328C228.555 87.3328 228.509 87.3313 228.464 87.3299C228.366 87.3262 228.274 87.284 228.208 87.2125C228.141 87.141 228.106 87.0461 228.11 86.9486C228.117 86.7455 228.295 86.5784 228.491 86.5946C229.037 86.6088 229.577 86.4863 230.064 86.238C230.55 85.9898 230.967 85.6238 231.275 85.1733C231.301 85.1312 231.335 85.0947 231.376 85.066C231.416 85.0373 231.462 85.0171 231.51 85.0065C231.558 84.996 231.608 84.9953 231.657 85.0044C231.706 85.0136 231.752 85.0325 231.793 85.06C231.834 85.0875 231.869 85.123 231.897 85.1644C231.924 85.2058 231.942 85.2523 231.951 85.301C231.96 85.3497 231.959 85.3997 231.948 85.4479C231.937 85.4962 231.916 85.5417 231.887 85.5818C231.169 86.6564 229.891 87.3328 228.601 87.3328Z" fill="#89BDF1"/>
<path d="M246.063 118.985C245.523 117.437 245.186 116.014 245.163 114.832C244.899 101.597 253.006 101.597 253.006 101.597C254.882 102.923 261.814 110.353 267.324 118.985H246.063Z" fill="#3A81C9"/>
<path d="M240.963 74.4914C240.969 74.696 241.046 74.8921 241.181 75.0461C241.315 75.2001 241.5 75.3023 241.702 75.3352C241.904 75.3681 242.111 75.3296 242.288 75.2264C242.464 75.1232 242.6 74.9617 242.67 74.7696L243.352 72.9119C243.436 72.6837 243.609 72.4967 243.834 72.4047C244.657 72.0684 246.69 71.5613 247.728 74.1675C248.899 77.1219 244.23 80.4531 243.199 81.1435C243.071 81.2287 242.968 81.3467 242.901 81.4851C242.684 81.9296 242.45 82.3663 242.201 82.7944L241.453 85.7209C241.239 86.5548 241.252 93.4197 241.252 93.4197C244.175 89.5953 246.719 84.8075 249.002 80.5724C250.387 78.0037 251.676 75.3216 252.452 72.4982C252.774 71.3243 252.829 70.1812 253.008 68.9948C253.296 67.0818 253.67 65.4015 252.15 63.8065C251.526 63.1515 250.652 62.5855 250.553 61.6868C250.399 60.2824 252.278 59.0224 251.664 57.7505C251.324 57.0439 250.415 56.8725 249.637 56.7871L243.324 56.0982C244.114 55.6683 244.354 54.5562 243.986 53.7355C243.617 52.9156 242.78 52.382 241.909 52.1582C241.039 51.9337 240.124 51.9742 239.226 52.0162L235.163 52.2061C234.626 52.2311 234.069 52.2613 233.591 52.5078C233.114 52.7551 232.737 53.2836 232.842 53.8106C233.522 53.185 233.226 51.9683 232.498 51.3994C231.77 50.8297 230.792 50.7281 229.872 50.6486C227.894 50.4779 225.856 50.313 223.964 50.9121C222.071 51.5105 220.339 53.0709 220.169 55.0486C218.741 54.4642 217.017 54.9205 215.882 55.9649C214.748 57.0094 214.158 58.5521 214.033 60.0896C213.915 61.544 214.204 63.0742 215.074 64.2459C216.334 65.9425 218.616 66.6218 220.725 66.4849C222.834 66.348 224.828 65.5193 226.776 64.7023C226.267 65.9807 227.442 67.4167 228.779 67.7376C230.117 68.0593 231.505 67.6199 232.827 67.2408C234.151 66.8625 235.605 66.5482 236.868 67.0936C237.729 67.4638 238.37 68.1638 239.059 68.7739C239.599 69.2531 240.354 69.6822 240.673 70.3593C241.212 71.5046 240.927 73.2541 240.963 74.4914Z" fill="#060E2D"/>
<path d="M111.351 215.497H130.629C134.088 213.372 136.862 210.135 138.378 206.362C138.936 204.972 139.431 203.385 140.74 202.656C141.725 202.102 143.511 202.444 144.636 202.35C146.187 202.224 147.735 201.982 149.201 201.441C151.662 200.537 153.916 198.634 154.527 196.079C155.333 192.705 153.232 188.792 155.085 185.863C156.107 184.244 158.046 183.479 159.413 182.147C161.635 179.983 162.058 176.219 160.376 173.614C159.638 172.467 158.572 171.576 157.658 170.564C156.746 169.552 155.945 168.324 155.927 166.957C155.913 165.674 156.601 164.45 156.515 163.168C156.372 160.969 154.141 159.593 152.171 158.594C146.444 155.692 140.713 152.787 134.982 149.885L132.84 150.222C128.086 153.573 119.724 155.656 116.139 169.458C114.676 175.09 114.667 181.153 116.755 186.583C118.109 190.091 118.824 191.895 118.361 195.629C117.713 200.847 112.364 204.073 109.939 208.738C109.152 210.249 110.155 213.879 111.154 215.256C111.215 215.34 111.282 215.421 111.351 215.497Z" fill="#0E1738"/>
<path d="M166.364 215.497C163.378 211.304 157.327 199.827 155.399 199.169C151.829 197.951 149.34 207.954 149.219 215.497H166.364Z" fill="#6081FE"/>
<path d="M161.187 215.497L161.158 215.457L159.8 209.552L156.695 215.497H161.187Z" fill="#475FB9"/>
<path d="M115.432 215.497H160.333C160.116 211.724 159.471 204.35 157.664 201.274C155.901 198.26 150.867 197.068 144.7 196.43C140.135 195.953 135.267 195.597 130.62 196.268C130.62 196.268 119.095 198.413 117.764 199.835C115.361 202.412 115.33 207.338 115.366 213.06C115.372 213.873 115.394 214.685 115.432 215.497Z" fill="#6081FE"/>
<path d="M126.489 215.497C125.832 210.153 122.816 205.134 122.816 205.134L118.328 215.497H126.489Z" fill="#475FB9"/>
<path d="M130.617 196.269C130.617 196.269 133.62 208.662 144.139 206.544C149.567 205.452 144.694 196.427 144.694 196.427L144.556 194.696L143.91 186.777L143.623 183.264H131.011C132.337 188.455 132.251 192.978 130.617 196.269Z" fill="#BDDDFE"/>
<path d="M134.625 187.373C136.645 192.681 144.558 194.696 144.558 194.696L143.913 186.778L139.81 183.265L139.597 183.081C139.597 183.081 137.761 182.813 136.243 183.265C134.799 183.697 133.638 184.783 134.625 187.372V187.373Z" fill="#89BDF1"/>
<path d="M146.984 192.503C138.005 195.026 131.015 183.262 131.015 183.262C131.015 183.262 124.836 179.904 126.227 176.036C127.619 172.168 131.33 174.914 131.33 174.914C131.33 174.914 133.418 161.462 136.117 160.385C138.826 159.3 148.566 161.852 151.044 164.096C151.851 164.829 152.546 167.668 152.89 171.239C153.594 178.596 154.001 190.531 146.984 192.503Z" fill="#BDDDFE"/>
<path d="M151.898 166.383C150.494 166.665 149.03 166.761 147.606 166.778C144.426 166.818 141.17 166.56 138.133 167.503C137.375 167.737 136.635 168.049 135.994 168.515C134.817 169.373 134.056 170.706 133.628 172.098C133.402 172.832 133.262 173.588 133.159 174.348C133.097 174.806 133.208 175.988 132.796 176.299C132.097 176.829 131.494 175.43 131.326 174.914C131.326 174.914 127.615 172.167 126.223 176.036C124.831 179.905 131.01 183.262 131.01 183.262L131.917 189.212C129.942 188.319 128.321 186.764 127.003 185.071C123.054 179.995 121.054 173.026 121.407 166.631C121.579 163.518 122.376 160.364 124.157 157.767C125.028 156.497 130.808 151.847 131.57 151.126C132.623 150.13 134.048 149.598 135.483 149.4C136.918 149.201 138.377 149.313 139.818 149.46C142.806 149.766 145.795 150.226 148.648 151.163C151.502 152.099 154.229 153.531 156.404 155.602C157.71 156.846 158.859 158.462 158.826 160.265C158.796 161.845 157.845 163.292 156.624 164.293C155.266 165.407 153.628 166.036 151.898 166.384V166.383Z" fill="#0E1738"/>
<path d="M144.753 187.265C143.726 187.265 142.718 186.735 142.153 185.868C142.1 185.786 142.082 185.686 142.102 185.591C142.122 185.495 142.179 185.412 142.261 185.358C142.343 185.305 142.442 185.286 142.538 185.307C142.633 185.327 142.717 185.384 142.77 185.466C143.251 186.204 144.193 186.631 145.067 186.506C145.163 186.492 145.261 186.517 145.34 186.575C145.418 186.634 145.47 186.721 145.484 186.818C145.498 186.914 145.473 187.012 145.414 187.091C145.356 187.169 145.268 187.221 145.172 187.235C145.032 187.254 144.892 187.264 144.753 187.264V187.265Z" fill="#89BDF1"/>
<path d="M149.16 173.738C149.579 173.653 149.814 173.073 149.686 172.441C149.558 171.81 149.114 171.367 148.696 171.452C148.277 171.537 148.041 172.118 148.17 172.749C148.298 173.38 148.741 173.823 149.16 173.738Z" fill="#131A36"/>
<path d="M147.564 171.522C147.49 171.522 147.417 171.5 147.356 171.458C147.295 171.416 147.248 171.357 147.221 171.288C147.194 171.219 147.188 171.144 147.205 171.072C147.221 171 147.259 170.934 147.313 170.884C148.491 169.792 149.564 170.086 149.967 170.394C150.046 170.452 150.097 170.54 150.111 170.637C150.124 170.733 150.099 170.832 150.04 170.91C149.982 170.988 149.894 171.039 149.797 171.053C149.701 171.067 149.602 171.041 149.524 170.983C149.488 170.957 148.81 170.5 147.814 171.424C147.746 171.487 147.656 171.522 147.564 171.522Z" fill="#131A36"/>
<path d="M140.98 174.894C141.399 174.809 141.634 174.228 141.506 173.597C141.378 172.965 140.935 172.522 140.516 172.607C140.097 172.692 139.862 173.273 139.99 173.905C140.118 174.536 140.562 174.979 140.98 174.894Z" fill="#131A36"/>
<path d="M139.376 172.677C139.302 172.677 139.23 172.655 139.169 172.613C139.107 172.571 139.06 172.512 139.033 172.443C139.006 172.374 139.001 172.299 139.017 172.227C139.034 172.154 139.072 172.089 139.126 172.039C140.303 170.948 141.376 171.242 141.779 171.549C141.854 171.609 141.903 171.696 141.915 171.791C141.927 171.886 141.901 171.982 141.843 172.058C141.786 172.135 141.7 172.186 141.606 172.2C141.511 172.215 141.414 172.192 141.336 172.137C141.3 172.112 140.622 171.656 139.626 172.578C139.558 172.642 139.468 172.677 139.375 172.677H139.376Z" fill="#131A36"/>
<path d="M146.156 182.468C146.085 182.468 146.016 182.448 145.957 182.409C145.898 182.371 145.85 182.316 145.821 182.252C145.792 182.188 145.782 182.116 145.792 182.047C145.803 181.977 145.833 181.911 145.879 181.858C146.417 181.242 146.447 180.214 145.946 179.567C145.838 179.428 145.711 179.304 145.585 179.18C145.493 179.09 145.403 178.999 145.316 178.905C144.713 178.245 144.306 177.323 144.143 176.241C144.001 175.299 144.047 174.351 144.089 173.436C144.096 173.34 144.14 173.249 144.211 173.184C144.283 173.118 144.377 173.083 144.474 173.085C144.523 173.088 144.57 173.099 144.614 173.12C144.657 173.14 144.697 173.169 144.729 173.205C144.762 173.241 144.787 173.283 144.803 173.328C144.82 173.374 144.827 173.422 144.825 173.47C144.783 174.351 144.74 175.261 144.871 176.131C145.013 177.069 145.355 177.856 145.859 178.408C145.937 178.494 146.019 178.575 146.102 178.656C146.251 178.803 146.4 178.951 146.528 179.116C147.245 180.044 147.204 181.46 146.433 182.342C146.398 182.382 146.356 182.414 146.308 182.435C146.26 182.457 146.209 182.468 146.156 182.468Z" fill="#89BDF1"/>
<path d="M125.202 215.497C124.591 202.18 117.772 199.835 117.772 199.835C114.97 201.279 112.43 207.659 110.539 215.498L125.202 215.497Z" fill="#6081FE"/>
<path d="M207.062 215.576L207.144 215.486C212.908 203.98 217.201 190.04 220.142 186.98L231.054 200.348L224.996 215.576H207.062Z" fill="#3A81C9"/>
<path d="M253.907 215.576H216.383L216.466 214.323C216.466 214.323 216.153 192.504 220.148 186.979C221.989 184.428 230.34 182.576 230.34 182.576L242.437 183.298C242.437 183.298 253.166 185.339 255.215 188.557C257.425 192.025 257.148 197.857 256.158 204.037C255.54 207.913 254.644 211.924 253.907 215.576Z" fill="#3A81C9"/>
<path d="M223.606 149.985C223.606 149.985 222.129 158.006 227.058 160.999C230.899 163.331 231.466 155.605 231.528 152.077C231.54 151.425 230.772 151.07 230.281 151.5L226.971 154.397" fill="#060E2D"/>
<path d="M232.903 188.802C237.949 188.583 242.428 183.454 242.435 183.298C242.622 179.609 243.478 171.091 244.319 168.453C244.361 168.322 244.366 168.182 244.334 168.048C244.301 167.915 244.233 167.793 244.136 167.695C244.039 167.598 243.917 167.529 243.783 167.496C243.65 167.464 243.51 167.468 243.379 167.51L230.988 171.373C230.804 171.43 230.65 171.556 230.556 171.725C230.463 171.894 230.439 172.092 230.487 172.278C230.638 172.867 230.754 173.464 230.833 174.066C230.861 174.278 230.882 174.485 230.903 174.693C231.062 176.457 230.917 178.062 230.724 179.239C230.682 179.496 230.628 179.943 230.566 180.457V180.46C230.414 181.781 230.361 182.57 230.304 182.764C230.276 182.859 230.053 188.926 232.903 188.802Z" fill="#BDDDFE"/>
<path d="M230.562 180.457V180.46C230.562 180.46 237.427 177.931 238.64 175.756C240.24 172.887 231.904 174.277 231.904 174.277C231.904 174.277 231.467 174.457 230.9 174.693C231.059 176.457 230.914 178.062 230.721 179.238C230.679 179.496 230.625 179.943 230.562 180.457Z" fill="#89BDF1"/>
<path d="M229.117 178.162C235.933 179.999 242.017 173.137 243.683 170.281V170.277C243.977 169.772 244.176 169.378 244.281 169.163C244.338 169.045 244.425 168.944 244.535 168.871C245.415 168.282 249.402 165.437 248.401 162.915C247.747 161.272 246.631 161.078 245.808 161.204C245.324 161.279 244.903 160.853 244.968 160.369C246.74 147.193 232.228 147.764 228.235 153.71C228.059 153.971 227.88 154.292 227.7 154.665C225.102 159.978 221.796 176.189 229.117 178.162Z" fill="#BDDDFE"/>
<path d="M224.595 155.336C226.298 160.97 240.265 153.457 239.677 155.982C239.244 157.848 240.991 158.494 241.931 158.705C242.264 158.779 242.502 159.073 242.512 159.415L242.623 163.192C242.628 163.366 242.694 163.534 242.809 163.665C242.924 163.797 243.082 163.884 243.254 163.912C243.427 163.94 243.603 163.907 243.754 163.819C243.905 163.731 244.021 163.593 244.081 163.429L244.662 161.843C244.734 161.648 244.882 161.489 245.075 161.41C245.777 161.123 247.513 160.69 248.398 162.915C249.399 165.437 245.412 168.282 244.532 168.872C244.423 168.944 244.335 169.045 244.278 169.163C244.093 169.542 243.893 169.913 243.68 170.277V170.281L243.042 172.78C242.86 173.492 242.78 178.767 242.78 178.767C242.78 178.767 253.496 164.744 252.882 157.844C252.032 148.293 247.015 152.812 246.251 149.115C245.487 145.418 239.737 143.95 235.979 144.714C232.226 145.478 225.856 145.827 224.332 147.707C222.986 149.362 223.756 152.558 224.595 155.336Z" fill="#060E2D"/>
<path d="M235.784 164.111C235.816 163.421 235.469 162.845 235.009 162.824C234.55 162.803 234.151 163.345 234.12 164.035C234.088 164.724 234.435 165.3 234.895 165.321C235.354 165.342 235.753 164.8 235.784 164.111Z" fill="#060E2D"/>
<path d="M236.217 162.356C236.134 162.356 236.053 162.328 235.988 162.276C234.787 161.319 234.105 161.868 234.077 161.892C234.003 161.954 233.908 161.985 233.811 161.978C233.715 161.97 233.625 161.926 233.56 161.854C233.497 161.782 233.464 161.687 233.469 161.591C233.475 161.495 233.518 161.405 233.589 161.341C233.635 161.299 234.737 160.338 236.446 161.701C236.506 161.749 236.549 161.814 236.57 161.887C236.591 161.96 236.589 162.038 236.563 162.11C236.538 162.182 236.491 162.244 236.429 162.288C236.367 162.332 236.293 162.356 236.217 162.356Z" fill="#060E2D"/>
<path d="M228.737 164.111C228.769 163.421 228.422 162.845 227.962 162.824C227.503 162.803 227.104 163.345 227.073 164.035C227.041 164.724 227.388 165.3 227.848 165.321C228.308 165.342 228.706 164.8 228.737 164.111Z" fill="#060E2D"/>
<path d="M229.17 162.356C229.087 162.356 229.006 162.328 228.941 162.276C227.74 161.319 227.058 161.868 227.03 161.892C226.956 161.954 226.861 161.985 226.764 161.978C226.668 161.97 226.578 161.926 226.514 161.854C226.45 161.782 226.417 161.687 226.422 161.591C226.428 161.495 226.471 161.405 226.542 161.341C226.589 161.299 227.69 160.338 229.4 161.701C229.459 161.749 229.502 161.814 229.523 161.887C229.544 161.96 229.542 162.038 229.517 162.11C229.491 162.182 229.445 162.244 229.382 162.288C229.32 162.332 229.246 162.356 229.17 162.356Z" fill="#060E2D"/>
<path d="M229.991 170.75C229.901 170.75 229.814 170.717 229.746 170.656C229.571 170.504 229.429 170.318 229.329 170.109C229.229 169.899 229.173 169.672 229.165 169.44C229.152 168.983 229.327 168.549 229.659 168.216C229.776 168.099 229.911 167.994 230.047 167.89C230.119 167.836 230.189 167.78 230.259 167.723C230.8 167.263 231.013 166.655 231.096 166.226C231.209 165.646 231.17 165.028 231.134 164.43C231.13 164.382 231.136 164.332 231.152 164.286C231.167 164.24 231.191 164.197 231.223 164.16C231.256 164.123 231.295 164.092 231.339 164.071C231.382 164.049 231.43 164.037 231.479 164.034C231.528 164.031 231.577 164.038 231.623 164.054C231.669 164.07 231.712 164.095 231.748 164.128C231.784 164.161 231.814 164.201 231.835 164.245C231.855 164.289 231.867 164.337 231.869 164.386C231.908 165.029 231.949 165.694 231.818 166.366C231.667 167.146 231.293 167.81 230.735 168.283C230.657 168.35 230.576 168.412 230.494 168.475C230.384 168.559 230.274 168.642 230.18 168.736C229.992 168.925 229.893 169.167 229.9 169.418C229.909 169.677 230.027 169.921 230.236 170.107C230.292 170.156 230.331 170.222 230.349 170.294C230.367 170.367 230.362 170.443 230.335 170.513C230.309 170.582 230.262 170.642 230.2 170.685C230.139 170.727 230.066 170.75 229.991 170.75ZM232.068 174.209C232.029 174.209 231.99 174.209 231.951 174.207C231.853 174.203 231.761 174.161 231.695 174.09C231.628 174.018 231.593 173.923 231.597 173.826C231.598 173.777 231.608 173.729 231.628 173.685C231.648 173.641 231.676 173.601 231.712 173.568C231.748 173.535 231.79 173.509 231.835 173.493C231.881 173.477 231.929 173.47 231.978 173.472C232.886 173.497 233.802 173.038 234.309 172.282C234.335 172.24 234.369 172.204 234.409 172.175C234.45 172.146 234.495 172.126 234.544 172.115C234.592 172.105 234.642 172.104 234.691 172.113C234.739 172.123 234.786 172.141 234.827 172.169C234.868 172.196 234.903 172.232 234.93 172.273C234.957 172.315 234.976 172.361 234.985 172.41C234.993 172.459 234.992 172.509 234.981 172.557C234.97 172.605 234.949 172.651 234.92 172.691C234.297 173.623 233.189 174.209 232.069 174.209H232.068Z" fill="#89BDF1"/>
<path d="M243.039 215.576C243.263 211.817 243.738 204.939 244.344 202.431C245.194 198.902 247.634 194.125 247.634 194.125L256.152 204.037C255.534 207.912 254.638 211.924 253.901 215.576H243.039Z" fill="#1C68B5"/>
<path d="M245.148 215.576C245.16 210.492 245.316 201.296 246.237 197.64C248.133 190.104 255.214 188.557 255.214 188.557C255.79 189.224 258.621 192.433 259.641 196.471C260.996 201.831 261.817 209.075 261.817 215.576H245.148Z" fill="#3A81C9"/>
<path d="M207.062 215.576L207.142 215.488C212.906 203.978 217.199 190.04 220.14 186.98L231.052 200.348L224.993 215.576H207.062Z" fill="#83BFFC"/>
<path d="M212.422 215.576L217.199 198.24C217.199 198.24 221.239 209.251 223.372 215.576H212.422Z" fill="#708EFE"/>
<path d="M253.907 215.576H216.383L216.466 214.323C216.466 214.323 216.153 192.504 220.148 186.979C221.989 184.428 230.34 182.576 230.34 182.576L242.437 183.298C242.437 183.298 253.166 185.339 255.215 188.557C257.425 192.025 257.148 197.857 256.158 204.037C255.54 207.913 254.644 211.924 253.907 215.576Z" fill="#83BFFC"/>
<path d="M223.606 149.985C223.606 149.985 222.129 158.006 227.058 160.999C230.899 163.331 231.466 155.605 231.528 152.077C231.54 151.425 230.772 151.07 230.281 151.5L226.971 154.397" fill="#060E2D"/>
<path d="M232.903 188.802C237.949 188.583 242.428 183.454 242.435 183.298C242.622 179.609 243.478 171.091 244.319 168.453C244.361 168.322 244.366 168.182 244.334 168.048C244.301 167.915 244.233 167.793 244.136 167.695C244.039 167.598 243.917 167.529 243.783 167.496C243.65 167.464 243.51 167.468 243.379 167.51L230.988 171.373C230.804 171.43 230.65 171.556 230.556 171.725C230.463 171.894 230.439 172.092 230.487 172.278C230.638 172.867 230.754 173.464 230.833 174.066C230.861 174.278 230.882 174.485 230.903 174.693C231.062 176.457 230.917 178.062 230.724 179.239C230.682 179.496 230.628 179.943 230.566 180.457V180.46C230.414 181.781 230.361 182.57 230.304 182.764C230.276 182.859 230.053 188.926 232.903 188.802Z" fill="#BDDDFE"/>
<path d="M230.562 180.457V180.46C230.562 180.46 237.427 177.931 238.64 175.756C240.24 172.887 231.904 174.277 231.904 174.277C231.904 174.277 231.467 174.457 230.9 174.693C231.059 176.457 230.914 178.062 230.721 179.238C230.679 179.496 230.625 179.943 230.562 180.457Z" fill="#89BDF1"/>
<path d="M229.117 178.162C235.933 179.999 242.017 173.137 243.683 170.281V170.277C243.977 169.772 244.176 169.378 244.281 169.163C244.338 169.045 244.425 168.944 244.535 168.871C245.415 168.282 249.402 165.437 248.401 162.915C247.747 161.272 246.631 161.078 245.808 161.204C245.324 161.279 244.903 160.853 244.968 160.369C246.74 147.193 232.228 147.764 228.235 153.71C228.059 153.971 227.88 154.292 227.7 154.665C225.102 159.978 221.796 176.189 229.117 178.162Z" fill="#BDDDFE"/>
<path d="M224.595 155.336C226.298 160.97 240.265 153.457 239.677 155.982C239.244 157.848 240.991 158.494 241.931 158.705C242.264 158.779 242.502 159.073 242.512 159.415L242.623 163.192C242.628 163.366 242.694 163.534 242.809 163.665C242.924 163.797 243.082 163.884 243.254 163.912C243.427 163.94 243.603 163.907 243.754 163.819C243.905 163.731 244.021 163.593 244.081 163.429L244.662 161.843C244.734 161.648 244.882 161.489 245.075 161.41C245.777 161.123 247.513 160.69 248.398 162.915C249.399 165.437 245.412 168.282 244.532 168.872C244.423 168.944 244.335 169.045 244.278 169.163C244.093 169.542 243.893 169.913 243.68 170.277V170.281L243.042 172.78C242.86 173.492 242.78 178.767 242.78 178.767C242.78 178.767 253.496 164.744 252.882 157.844C252.032 148.293 247.015 152.812 246.251 149.115C245.487 145.418 239.737 143.95 235.979 144.714C232.226 145.478 225.856 145.827 224.332 147.707C222.986 149.362 223.756 152.558 224.595 155.336Z" fill="#060E2D"/>
<path d="M235.784 164.111C235.816 163.421 235.469 162.845 235.009 162.824C234.55 162.803 234.151 163.345 234.12 164.035C234.088 164.724 234.435 165.3 234.895 165.321C235.354 165.342 235.753 164.8 235.784 164.111Z" fill="#060E2D"/>
<path d="M236.217 162.356C236.134 162.356 236.053 162.328 235.988 162.276C234.787 161.319 234.105 161.868 234.077 161.892C234.003 161.954 233.908 161.985 233.811 161.978C233.715 161.97 233.625 161.926 233.56 161.854C233.497 161.782 233.464 161.687 233.469 161.591C233.475 161.495 233.518 161.405 233.589 161.341C233.635 161.299 234.737 160.338 236.446 161.701C236.506 161.749 236.549 161.814 236.57 161.887C236.591 161.96 236.589 162.038 236.563 162.11C236.538 162.182 236.491 162.244 236.429 162.288C236.367 162.332 236.293 162.356 236.217 162.356Z" fill="#060E2D"/>
<path d="M228.737 164.111C228.769 163.421 228.422 162.845 227.962 162.824C227.503 162.803 227.104 163.345 227.073 164.035C227.041 164.724 227.388 165.3 227.848 165.321C228.308 165.342 228.706 164.8 228.737 164.111Z" fill="#060E2D"/>
<path d="M229.17 162.356C229.087 162.356 229.006 162.328 228.941 162.276C227.74 161.319 227.058 161.868 227.03 161.892C226.956 161.954 226.861 161.985 226.764 161.978C226.668 161.97 226.578 161.926 226.514 161.854C226.45 161.782 226.417 161.687 226.422 161.591C226.428 161.495 226.471 161.405 226.542 161.341C226.589 161.299 227.69 160.338 229.4 161.701C229.459 161.749 229.502 161.814 229.523 161.887C229.544 161.96 229.542 162.038 229.517 162.11C229.491 162.182 229.445 162.244 229.382 162.288C229.32 162.332 229.246 162.356 229.17 162.356Z" fill="#060E2D"/>
<path d="M229.991 170.75C229.901 170.75 229.814 170.717 229.746 170.656C229.571 170.504 229.429 170.318 229.329 170.109C229.229 169.899 229.173 169.672 229.165 169.44C229.152 168.983 229.327 168.549 229.659 168.216C229.776 168.099 229.911 167.994 230.047 167.89C230.119 167.836 230.189 167.78 230.259 167.723C230.8 167.263 231.013 166.655 231.096 166.226C231.209 165.646 231.17 165.028 231.134 164.43C231.13 164.382 231.136 164.332 231.152 164.286C231.167 164.24 231.191 164.197 231.223 164.16C231.256 164.123 231.295 164.092 231.339 164.071C231.382 164.049 231.43 164.037 231.479 164.034C231.528 164.031 231.577 164.038 231.623 164.054C231.669 164.07 231.712 164.095 231.748 164.128C231.784 164.161 231.814 164.201 231.835 164.245C231.855 164.289 231.867 164.337 231.869 164.386C231.908 165.029 231.949 165.694 231.818 166.366C231.667 167.146 231.293 167.81 230.735 168.283C230.657 168.35 230.576 168.412 230.494 168.475C230.384 168.559 230.274 168.642 230.18 168.736C229.992 168.925 229.893 169.167 229.9 169.418C229.909 169.677 230.027 169.921 230.236 170.107C230.292 170.156 230.331 170.222 230.349 170.294C230.367 170.367 230.362 170.443 230.335 170.513C230.309 170.582 230.262 170.642 230.2 170.685C230.139 170.727 230.066 170.75 229.991 170.75ZM232.068 174.209C232.029 174.209 231.99 174.209 231.951 174.207C231.853 174.203 231.761 174.161 231.695 174.09C231.628 174.018 231.593 173.923 231.597 173.826C231.598 173.777 231.608 173.729 231.628 173.685C231.648 173.641 231.676 173.601 231.712 173.568C231.748 173.535 231.79 173.509 231.835 173.493C231.881 173.477 231.929 173.47 231.978 173.472C232.886 173.497 233.802 173.038 234.309 172.282C234.335 172.24 234.369 172.204 234.409 172.175C234.45 172.146 234.495 172.126 234.544 172.115C234.592 172.105 234.642 172.104 234.691 172.113C234.739 172.123 234.786 172.141 234.827 172.169C234.868 172.196 234.903 172.232 234.93 172.273C234.957 172.315 234.976 172.361 234.985 172.41C234.993 172.459 234.992 172.509 234.981 172.557C234.97 172.605 234.949 172.651 234.92 172.691C234.297 173.623 233.189 174.209 232.069 174.209H232.068Z" fill="#89BDF1"/>
<path d="M243.039 215.576C243.263 211.817 243.738 204.939 244.344 202.431C245.194 198.902 247.634 194.125 247.634 194.125L256.152 204.037C255.534 207.912 254.638 211.924 253.901 215.576H243.039Z" fill="#708EFE"/>
<path d="M245.148 215.576C245.16 210.492 245.316 201.296 246.237 197.64C248.133 190.104 255.214 188.557 255.214 188.557C255.79 189.224 258.621 192.433 259.641 196.471C260.996 201.831 261.817 209.075 261.817 215.576H245.148Z" fill="#83BFFC"/>
<path d="M312.999 206.103L312.685 209.706L311.545 222.717L309.855 242.032L308.601 256.35H275.201L273.946 242.032L272.25 222.717L271.11 209.706L270.797 206.103H312.999Z" fill="#82BEFA"/>
<path d="M312.999 206.103L312.685 209.706H271.11L270.797 206.103H312.999Z" fill="#479FF7"/>
<path d="M267.5 200.52H316.306V207.724H267.5V200.52Z" fill="#0E1738"/>
<path d="M315.143 207.724H268.678C268.368 207.724 268.07 207.601 267.851 207.381C267.631 207.162 267.508 206.864 267.508 206.554V201.69C267.508 201.044 268.031 200.52 268.678 200.52H315.143C315.789 200.52 316.313 201.044 316.313 201.69V206.553C316.313 206.863 316.19 207.161 315.971 207.38C315.751 207.6 315.454 207.723 315.143 207.723V207.724ZM311.961 200.52H271.859C271.859 196.541 275.084 193.316 279.063 193.316H304.758C308.736 193.316 311.961 196.541 311.961 200.52Z" fill="#0E1738"/>
<path d="M311.546 222.717L309.855 242.032H273.947L272.25 222.717H311.546Z" fill="#6081FE"/>
<path d="M291.907 238.25C295.152 238.25 297.783 235.619 297.783 232.374C297.783 229.129 295.152 226.498 291.907 226.498C288.662 226.498 286.031 229.129 286.031 232.374C286.031 235.619 288.662 238.25 291.907 238.25Z" fill="white"/>
<path d="M61.6337 70.5316C68.6197 70.5316 74.2829 64.8683 74.2829 57.8823C74.2829 50.8963 68.6197 45.233 61.6337 45.233C54.6477 45.233 48.9844 50.8963 48.9844 57.8823C48.9844 64.8683 54.6477 70.5316 61.6337 70.5316Z" fill="#A7B6C6"/>
<path d="M37.8984 77.7151H85.3719V80.509H37.8984V77.7151ZM37.8984 87.6919H85.3719V90.4858H37.8984V87.6919ZM37.8984 97.6687H85.3719V100.463H37.8984V97.6687ZM37.8984 107.645H85.3719V110.439H37.8984V107.645Z" fill="#A7B6C6"/>
<path d="M61.6337 144.284C68.6197 144.284 74.2829 138.621 74.2829 131.635C74.2829 124.649 68.6197 118.985 61.6337 118.985C54.6477 118.985 48.9844 124.649 48.9844 131.635C48.9844 138.621 54.6477 144.284 61.6337 144.284Z" fill="#A7B6C6"/>
<path d="M37.8984 151.468H85.3719V154.261H37.8984V151.468ZM37.8984 161.444H85.3719V164.238H37.8984V161.444ZM37.8984 171.421H85.3719V174.215H37.8984V171.421ZM37.8984 181.398H85.3719V184.192H37.8984V181.398Z" fill="#A7B6C6"/>
<path d="M316.304 13.7379V45.4133C316.302 45.8334 316.135 46.236 315.838 46.5331C315.541 46.8303 315.138 46.9979 314.718 46.9995H268.795L258.529 52.3062V46.9995H254.492C254.072 46.9979 253.669 46.8303 253.372 46.5331C253.075 46.236 252.908 45.8334 252.906 45.4133V13.7379C252.906 12.8605 253.614 12.1525 254.492 12.1525H314.718C315.595 12.1525 316.304 12.8605 316.304 13.7379Z" fill="#82BEFA"/>
<path d="M299.717 32.6742C301.58 32.6742 303.09 31.164 303.09 29.301C303.09 27.4381 301.58 25.9279 299.717 25.9279C297.854 25.9279 296.344 27.4381 296.344 29.301C296.344 31.164 297.854 32.6742 299.717 32.6742Z" fill="white"/>
<path d="M285.381 32.6742C287.244 32.6742 288.754 31.164 288.754 29.301C288.754 27.4381 287.244 25.9279 285.381 25.9279C283.518 25.9279 282.008 27.4381 282.008 29.301C282.008 31.164 283.518 32.6742 285.381 32.6742Z" fill="white"/>
<path d="M271.045 32.6742C272.908 32.6742 274.418 31.164 274.418 29.301C274.418 27.4381 272.908 25.9279 271.045 25.9279C269.182 25.9279 267.672 27.4381 267.672 29.301C267.672 31.164 269.182 32.6742 271.045 32.6742Z" fill="white"/>
<path d="M0 257.056H316.128V260H0V257.056Z" fill="#021B79"/>
</svg>
