<svg width="323" height="206" viewBox="0 0 323 206" fill="none" xmlns="http://www.w3.org/2000/svg">
<path d="M298.772 54.3769C298.772 54.3769 298.952 42.2039 294.396 41.8437C289.84 41.4836 287.103 53.7286 287.103 53.7286L290.129 62.228L298.772 54.3769ZM278.516 139.715C277.876 149.782 276.633 159.432 276.633 159.432C276.633 159.432 301.749 164.198 308.508 161.125C309.786 160.548 310.41 159.686 310.082 158.46C307.718 149.627 306.84 129.675 308.621 118.294C311.543 114.423 313.961 110.419 315.889 106.689C318.727 101.199 320.505 96.304 321.27 93.2943C321.35 92.9795 321.58 92.7145 321.731 92.4051C322.491 90.8754 322.781 89.4949 322.781 88.2772C322.775 84.7317 320.287 82.5506 319.591 81.9791C318.661 81.2087 319.812 79.2896 319.208 76.4347C318.606 73.5823 315.149 73.1985 314.928 72.155C314.71 71.114 315.461 68.1182 314.379 65.8457C312.89 62.7173 300.717 58.4376 297.312 59.4786C297.312 59.4786 297.312 59.4786 297.309 59.4814C295.528 60.0308 291.467 66.2213 287.844 72.2048C287.839 72.2132 287.836 72.2187 287.83 72.2242C284.531 77.6747 281.596 82.9458 281.071 83.6251C279.972 85.0527 281.071 88.3439 283.468 89.4952C285.82 90.6272 288.587 88.8546 288.694 88.7857C288.678 88.8133 288.567 88.9845 288.377 89.2825C288.377 89.2825 288.377 89.2825 288.374 89.2825C288.374 89.2853 288.374 89.288 288.369 89.2908C288.369 89.2908 288.369 89.2908 288.369 89.2936C287.863 90.0886 286.817 91.7565 285.547 93.9158C281.281 101.178 274.502 114.017 277.283 118.032C277.633 118.539 277.918 119.285 278.142 120.224C279.135 124.341 278.997 132.146 278.516 139.715Z" fill="#BDDBF9"/>
<path d="M278.516 139.714L284.258 140.362C284.258 140.362 280.187 133.752 282.277 131.231C284.367 128.711 296.425 133.621 291.905 120.584C287.346 123.258 284.835 120.279 278.141 120.223C279.135 124.339 278.997 132.145 278.516 139.714Z" fill="#B3D6F9"/>
<path d="M24.0083 56.1172C24.0083 56.1172 23.8284 43.9441 28.3841 43.584C32.9399 43.2238 35.677 55.4688 35.677 55.4688L32.6517 63.9683L24.0083 56.1172ZM44.264 141.455C44.9045 151.522 46.1471 161.172 46.1471 161.172C46.1471 161.172 21.0316 165.938 14.2723 162.865C12.994 162.288 12.3699 161.426 12.6986 160.2C15.0621 151.367 15.9403 131.415 14.1593 120.034C11.238 116.163 8.81932 112.159 6.89191 108.429C4.0534 102.94 2.27524 98.0442 1.51037 95.0346C1.43033 94.7197 1.20104 94.4547 1.04928 94.1454C0.289942 92.6156 0 91.2351 0 90.0175C0.00553709 86.472 2.4932 84.2909 3.18911 83.7193C4.11959 82.9489 2.96838 81.0298 3.57293 78.1749C4.17471 75.3226 7.63187 74.9387 7.8526 73.8952C8.07081 72.8543 7.31978 69.8585 8.40203 67.586C9.89025 64.4575 22.0643 60.1779 25.4686 61.2188C25.4686 61.2188 25.4686 61.2188 25.4714 61.2216C27.2523 61.771 31.314 67.9615 34.9365 73.9451C34.942 73.9534 34.9448 73.9589 34.9504 73.9645C38.25 79.415 41.1851 84.686 41.7096 85.3653C42.8085 86.7929 41.7096 90.0842 39.3128 91.2354C36.9603 92.3675 34.1935 90.5949 34.0861 90.5259C34.1027 90.5536 34.2132 90.7247 34.4037 91.0227C34.4037 91.0227 34.4037 91.0227 34.4065 91.0227C34.4065 91.0255 34.4065 91.0283 34.412 91.031C34.412 91.031 34.412 91.031 34.412 91.0338C34.9174 91.8289 35.9639 93.4968 37.2339 95.656C41.5 102.918 48.2784 115.757 45.498 119.772C45.1474 120.28 44.863 121.025 44.6392 121.964C43.6453 126.081 43.7835 133.887 44.264 141.455Z" fill="#BDDBF9"/>
<path d="M44.2654 141.456L38.5239 142.104C38.5239 142.104 42.5949 135.494 40.5047 132.973C38.4144 130.452 23.0754 133.676 28.7658 121.088C33.3251 123.763 37.9463 122.021 44.6409 121.965C43.6467 126.082 43.7849 133.887 44.2654 141.456Z" fill="#B3D6F9"/>
<path d="M286.832 128.913H33.4925C30.6704 128.913 28.3828 126.625 28.3828 123.803V5.10973C28.3828 2.28757 30.6706 0 33.4925 0H286.832C289.655 0 291.942 2.28782 291.942 5.10973V123.803C291.942 126.625 289.654 128.913 286.832 128.913Z" fill="#78BBFF"/>
<path d="M286.832 0H286.399C286.405 0.102688 286.414 0.204618 286.414 0.308816V119.002C286.414 121.824 284.126 124.112 281.304 124.112H28.3984C28.559 126.79 30.7749 128.913 33.4928 128.913H286.833C289.655 128.913 291.942 126.625 291.942 123.803V5.10998C291.942 2.28782 289.655 0 286.832 0Z" fill="#65A8EB"/>
<path d="M37.9313 69.5524C34.7586 71.9299 12.8579 63.4936 11.8703 57.5669C10.8824 51.6402 17.0834 48.7045 22.2417 51.2287C27.4 53.7529 34.8301 59.5751 36.0429 60.4172C37.4697 61.4081 42.8757 65.8474 37.9313 69.5524Z" fill="#B3D6F9"/>
<path d="M42.0869 89.3222C41.1492 92.722 37.7549 92.3057 35.789 91.6098C34.9828 91.3253 34.4387 91.0382 34.4057 91.0216C34.403 91.0216 34.403 91.0216 34.403 91.0216C34.403 91.0216 34.4057 91.0243 34.4113 91.0299C34.4113 91.0299 34.4113 91.0299 34.4113 91.0326C34.5024 91.1321 35.2506 91.9687 35.9934 93.1367C36.4655 93.8767 36.9377 94.752 37.2332 95.6548C37.7413 97.1957 37.7441 98.8163 36.391 99.9871C34.6295 101.511 31.4404 99.8711 29.4911 98.59C28.5467 97.9714 27.8951 97.4385 27.8314 97.3862C27.8868 97.4607 28.4748 98.2256 28.9469 99.2499V99.2527C29.6179 100.711 30.0541 102.693 28.3836 103.963C24.8963 106.611 14.9975 96.4529 13.1312 96.4529C11.2675 96.4529 3.13301 95.5169 3.13301 95.5169C2.57804 95.376 2.03692 95.2159 1.50939 95.0337C1.35485 94.7493 1.20006 94.4538 1.0483 94.1445C-1.72931 88.5422 1.75503 84.961 2.97294 83.9006C3.05574 83.8289 3.13024 83.768 3.18813 83.7184C3.36758 83.5694 3.46977 83.3759 3.52237 83.1385C3.73781 82.1665 3.0862 80.4739 3.57195 78.174C4.14907 75.446 7.33541 74.9766 7.8048 74.0267C7.82695 73.9824 7.84331 73.9384 7.85162 73.8943C7.89038 73.7149 7.89843 73.4773 7.89038 73.1929C7.86546 71.8398 7.50656 69.4654 8.40105 67.5851C9.88927 64.4566 20.368 60.3509 23.7723 61.3918C23.7723 61.3918 25.4399 61.2207 25.4704 61.2207C25.6113 61.3974 30.4183 67.4112 34.9355 73.9442C34.9411 73.9525 34.9438 73.958 34.9494 73.9636C39.442 80.4659 42.9512 86.1889 42.0869 89.3222Z" fill="#B3D6F9"/>
<path d="M35.9972 93.1378C35.8784 93.124 35.7654 93.0606 35.6935 92.9529C32.485 88.0739 23.4504 75.2427 20.242 74.4917C18.3727 74.0555 12.1185 73.901 7.80868 74.0278C7.83083 73.9835 7.84719 73.9395 7.85549 73.8955C7.89425 73.716 7.90231 73.4784 7.89425 73.194C12.2733 73.0669 18.4832 73.2297 20.4325 73.6855C24.1214 74.5498 33.341 87.9581 35.7926 91.6109C34.9865 91.3265 34.4423 91.0393 34.4094 91.0227C34.4066 91.0227 34.4066 91.0227 34.4066 91.0227C34.4066 91.0227 34.4094 91.0254 34.4149 91.031C34.4149 91.031 34.4149 91.031 34.4149 91.0337C34.5063 91.1334 35.2548 91.9698 35.9972 93.1378ZM27.8353 97.3873C27.8907 97.4618 28.4786 98.2267 28.9508 99.251C26.2505 95.515 19.1902 86.4669 16.3683 85.9119C13.5491 85.3597 6.15762 84.3354 2.97656 83.9017C3.05937 83.83 3.13387 83.7691 3.19175 83.7195C3.37121 83.5705 3.47339 83.377 3.52599 83.1396C6.9084 83.6035 13.8114 84.5672 16.5281 85.1C19.9878 85.7763 27.8489 96.3378 29.4944 98.5909C28.5506 97.9725 27.899 97.4397 27.8353 97.3873ZM14.8803 61.3965C16.187 62.7712 28.0012 69.7454 34.7433 69.8753C28.758 67.9886 22.033 65.0442 14.8803 61.3965Z" fill="#A8CCF0"/>
<path d="M33.9414 61.0586C31.9758 62.1816 31.0924 64.3496 30.6647 66.9573C30.6647 66.9573 36.2174 70.1009 37.9888 67.4408C40.256 64.0358 33.9414 61.0586 33.9414 61.0586ZM39.133 82.9215C36.8728 83.0511 35.1161 84.5985 33.5715 86.7426C33.5715 86.7426 37.1421 92.0308 39.9129 90.4384C43.4597 88.4 39.133 82.9215 39.133 82.9215ZM33.7862 92.1123C31.7241 92.4796 30.2802 94.0939 29.0965 96.2332C29.0965 96.2332 32.9571 100.699 35.3277 98.9323C38.3621 96.6701 33.7862 92.1123 33.7862 92.1123ZM25.9205 97.3809C24.2412 97.9683 23.2493 99.5177 22.5469 101.472C22.5469 101.472 26.3894 104.693 28.1376 102.89C30.3753 100.582 25.9205 97.3809 25.9205 97.3809Z" fill="#C7E3FF"/>
<path d="M8.77332 150.31L7.60938 161.879L49.1841 166.062L50.3481 154.492L8.77332 150.31Z" fill="white"/>
<path d="M50.0043 139.43L49.1211 151.025L12.0332 148.204L10.8438 148.115L11.7269 136.52C19.0721 135.692 30.6006 136.804 43.4157 138.517C45.5812 138.808 47.7824 139.113 50.0043 139.43Z" fill="white"/>
<path d="M50.0043 139.432L49.1211 151.027L12.0332 148.206C12.7183 146.682 11.0078 145.753 11.0078 145.753C14.7479 143.971 35.0217 143.71 41.4535 144.892C44.1808 145.394 43.9127 140.793 43.4159 138.52C45.5811 138.81 47.7824 139.115 50.0043 139.432Z" fill="#DBEDFF"/>
<path d="M51.9791 149.294L49.7368 206H3.01562L8.45783 145.758C9.29166 145.727 10.1476 145.708 11.0258 145.697H11.1307C12.1385 145.683 13.1795 145.686 14.2481 145.697C14.4082 145.7 14.5713 145.7 14.7341 145.705C22.8988 145.821 32.7065 146.622 43.1877 148.014C43.7178 148.083 44.2453 148.154 44.7781 148.229C44.8169 148.234 44.8581 148.24 44.8969 148.245C46.3494 148.444 47.8099 148.654 49.2843 148.878C50.1788 149.013 51.0788 149.151 51.9791 149.294Z" fill="#0575E6"/>
<path d="M51.9827 149.294L49.7404 206H45.7092C46.2918 191.783 47.5231 169.517 47.2636 165.867C46.8274 159.723 46.286 155.51 45.6234 154.751C45.5599 154.676 45.4824 154.604 45.3913 154.527H45.3885C45.2312 154.394 45.0379 154.265 44.8087 154.132C44.6705 154.052 44.5187 153.972 44.3531 153.889C44.3531 153.886 44.3503 153.886 44.3503 153.886C43.9197 153.671 43.4032 153.45 42.8125 153.227C39.5378 151.984 34.0264 150.645 28.3635 149.446C23.4541 148.411 18.429 147.481 14.6572 146.812C14.4667 146.779 14.2789 146.746 14.0939 146.713C13.2047 146.558 12.393 146.417 11.6833 146.296C11.4404 146.252 11.2111 146.216 10.9929 146.18C9.40526 145.91 8.46094 145.758 8.46094 145.758C9.29477 145.727 10.1508 145.708 11.0289 145.697H11.1338C12.1416 145.683 13.1826 145.686 14.2512 145.697C14.4113 145.7 14.5744 145.7 14.7372 145.705C22.9019 145.821 32.7096 146.622 43.1908 148.014C43.7209 148.083 44.2484 148.154 44.7812 148.229C44.82 148.234 44.8613 148.24 44.9 148.245C46.3525 148.444 47.813 148.654 49.2874 148.878C50.1824 149.013 51.0824 149.151 51.9827 149.294Z" fill="#021B79"/>
<path d="M5.2429 99.3465C5.39744 101.547 6.93977 106.168 6.89019 108.429C4.05167 102.94 2.27351 98.0445 1.50864 95.0348C1.4286 94.72 1.19932 94.455 1.04755 94.1456C0.288216 92.6159 -0.00172608 91.2354 0.31263 89.6432L13.4446 96.5432C13.4446 96.5432 4.97234 95.47 5.2429 99.3465ZM284.851 67.8102C288.023 70.1877 309.924 61.7514 310.912 55.8247C311.9 49.898 305.699 46.9624 300.54 49.4865C295.382 52.0107 287.952 57.8329 286.739 58.6751C285.312 59.6659 279.906 64.1052 284.851 67.8102Z" fill="#B3D6F9"/>
<path d="M280.694 87.5819C281.632 90.9817 285.026 90.5654 286.992 89.8695C287.798 89.5851 288.342 89.2979 288.375 89.2813C288.378 89.2813 288.378 89.2813 288.378 89.2813C288.378 89.2813 288.375 89.2841 288.37 89.2896C288.37 89.2896 288.37 89.2896 288.37 89.2924C288.279 89.3918 287.53 90.2284 286.788 91.3965C286.315 92.1364 285.843 93.0118 285.548 93.9146C285.04 95.4554 285.037 97.076 286.39 98.2469C288.152 99.7711 291.341 98.1308 293.29 96.8498C294.234 96.2311 294.886 95.6983 294.95 95.646C294.894 95.7205 294.306 96.4853 293.834 97.5097V97.5125C293.163 98.9705 292.727 100.953 294.397 102.223C297.885 104.871 307.784 94.7127 309.65 94.7127C311.514 94.7127 319.648 93.7767 319.648 93.7767C320.203 93.6357 320.744 93.4757 321.272 93.2934C321.426 93.009 321.581 92.7136 321.733 92.4042C324.51 86.802 321.026 83.2207 319.808 82.1604C319.725 82.0886 319.651 82.0277 319.593 81.9782C319.413 81.8292 319.311 81.6356 319.259 81.3983C319.043 80.4263 319.695 78.7337 319.209 76.4338C318.632 73.7058 315.446 73.2364 314.976 72.2865C314.954 72.2422 314.937 72.1981 314.929 72.1541C314.891 71.9747 314.883 71.7371 314.891 71.4527C314.916 70.0998 315.274 67.7252 314.38 65.8448C312.892 62.7164 302.413 58.6106 299.009 59.6516C299.009 59.6516 297.341 59.4805 297.31 59.4805C297.169 59.6572 292.363 65.6709 287.845 72.2039C287.84 72.2122 287.837 72.2178 287.831 72.2233C283.339 78.7256 279.83 84.4487 280.694 87.5819Z" fill="#B3D6F9"/>
<path d="M286.789 91.3976C286.908 91.3838 287.021 91.3203 287.093 91.2126C290.301 86.3337 299.336 73.5025 302.544 72.7515C304.414 72.3153 310.668 72.1608 314.978 72.2876C314.956 72.2433 314.939 72.1993 314.931 72.1552C314.892 71.9758 314.884 71.7382 314.892 71.4538C310.513 71.3267 304.303 71.4898 302.354 71.9453C298.665 72.8096 289.445 86.2179 286.994 89.8706C287.8 89.5862 288.344 89.299 288.377 89.2824C288.38 89.2824 288.38 89.2824 288.38 89.2824C288.38 89.2824 288.377 89.2852 288.371 89.2907C288.371 89.2907 288.371 89.2907 288.371 89.2935C288.28 89.3929 287.532 90.2295 286.789 91.3976ZM294.951 95.6471C294.896 95.7216 294.308 96.4864 293.836 97.5108C296.536 93.775 303.596 84.7267 306.418 84.1717C309.237 83.6195 316.629 82.5951 319.81 82.1615C319.727 82.0898 319.652 82.0289 319.595 81.9793C319.415 81.8303 319.313 81.6367 319.26 81.3994C315.878 81.8632 308.975 82.8269 306.258 83.3598C302.799 84.036 294.937 94.5975 293.292 96.8506C294.236 96.2322 294.888 95.6994 294.951 95.6471ZM307.906 59.6562C306.599 61.031 294.785 68.0052 288.043 68.135C294.029 66.2484 300.754 63.3039 307.906 59.6562Z" fill="#A8CCF0"/>
<path d="M288.837 59.3184C290.803 60.4414 291.686 62.6094 292.114 65.2171C292.114 65.2171 286.561 68.3607 284.79 65.7006C282.523 62.2956 288.837 59.3184 288.837 59.3184ZM283.645 81.1811C285.906 81.3107 287.662 82.858 289.207 85.0021C289.207 85.0021 285.636 90.2903 282.865 88.6979C279.319 86.6597 283.645 81.1811 283.645 81.1811ZM288.992 90.3721C291.054 90.7393 292.498 92.3536 293.682 94.493C293.682 94.493 289.821 98.9589 287.451 97.192C284.417 94.9299 288.992 90.3721 288.992 90.3721ZM296.858 95.6406C298.537 96.2281 299.529 97.7775 300.232 99.7316C300.232 99.7316 296.389 102.953 294.641 101.15C292.403 98.8421 296.858 95.6406 296.858 95.6406Z" fill="#C7E3FF"/>
<path d="M272.438 152.741L273.602 164.311L315.176 160.128L314.012 148.559L272.438 152.741Z" fill="white"/>
<path d="M272.773 137.689L273.657 149.284L310.745 146.463L311.934 146.374L311.051 134.779C303.706 133.952 292.177 135.064 279.362 136.777C277.197 137.067 274.995 137.373 272.773 137.689Z" fill="white"/>
<path d="M272.773 137.689L273.657 149.284L310.745 146.464C310.06 144.94 311.77 144.011 311.77 144.011C308.03 142.229 287.756 141.968 281.324 143.15C278.597 143.651 278.865 139.051 279.362 136.777C277.197 137.068 274.995 137.373 272.773 137.689Z" fill="#DBEDFF"/>
<path d="M319.923 206H273.116L270.805 147.554C271.705 147.411 272.605 147.273 273.499 147.135C274.974 146.914 276.435 146.701 277.884 146.502C277.923 146.497 277.964 146.491 278.003 146.486C278.536 146.411 279.066 146.342 279.596 146.273C290.078 144.879 299.882 144.078 308.05 143.962C308.212 143.956 308.376 143.956 308.536 143.954C309.604 143.943 310.645 143.943 311.653 143.954H311.656C311.686 143.954 311.725 143.956 311.755 143.954H311.758C312.636 143.967 313.492 143.987 314.323 144.017L319.923 206Z" fill="#0575E6"/>
<path d="M314.323 144.018C314.323 144.018 313.381 144.169 311.794 144.437C311.576 144.473 311.346 144.512 311.103 144.556C311.101 144.556 311.101 144.556 311.098 144.556C310.388 144.677 309.579 144.816 308.693 144.973C308.508 145.006 308.32 145.039 308.13 145.072C304.361 145.741 299.341 146.668 294.434 147.704H294.432C294.429 147.704 294.426 147.706 294.423 147.706C288.76 148.905 283.249 150.241 279.974 151.487C279.383 151.708 278.867 151.931 278.436 152.144C278.434 152.144 278.434 152.146 278.431 152.146C278.265 152.232 278.113 152.309 277.978 152.392C277.749 152.525 277.553 152.657 277.395 152.787C277.304 152.862 277.227 152.936 277.164 153.008C276.498 153.767 275.96 157.984 275.523 164.124V164.127C275.253 167.929 276.6 191.943 277.147 206H273.116L270.805 147.554C271.705 147.411 272.605 147.273 273.499 147.135C274.974 146.914 276.435 146.701 277.884 146.502C277.923 146.497 277.964 146.491 278.003 146.486C278.536 146.411 279.066 146.342 279.596 146.273C290.078 144.879 299.882 144.078 308.05 143.962C308.212 143.956 308.376 143.956 308.536 143.954C309.604 143.943 310.645 143.943 311.653 143.954H311.656C311.686 143.954 311.725 143.956 311.755 143.954H311.758C312.636 143.968 313.492 143.987 314.323 144.018Z" fill="#021B79"/>
<path d="M317.538 97.6056C317.383 99.8063 315.841 104.427 315.89 106.688C318.729 101.199 320.507 96.3036 321.272 93.294C321.352 92.9791 321.581 92.7141 321.733 92.4048C322.492 90.875 322.782 89.4945 322.468 87.9023L309.336 94.8023C309.336 94.8023 317.808 93.7289 317.538 97.6056Z" fill="#B3D6F9"/>
<path d="M47.7812 53.1618H56.4181L59.5277 69.6361L64.0787 53.1618H72.6843L77.2466 69.614L80.3595 53.1618H88.9513L82.4646 82.5891H73.5478L68.3865 64.0618L63.2451 82.5891H54.3284L47.7812 53.1618ZM91.902 53.1618H116.271V59.4449H101.015V64.1219H115.167V70.1239H101.015V75.925H116.712V82.5891H91.902V53.1618ZM121.611 53.1618H130.704V75.3428H144.895V82.5891H121.611V53.1618ZM167.919 70.5455L175.888 72.9541C175.353 75.1891 174.51 77.0558 173.359 78.5543C172.208 80.0534 170.78 81.184 169.073 81.9468C167.367 82.7097 165.196 83.0912 162.56 83.0912C159.361 83.0912 156.748 82.6261 154.721 81.6971C152.694 80.7677 150.944 79.133 149.472 76.7925C148 74.4524 147.264 71.4568 147.264 67.8056C147.264 62.938 148.559 59.1967 151.148 56.5819C153.737 53.9674 157.401 52.6602 162.138 52.6602C165.845 52.6602 168.759 53.4099 170.88 54.9085C173.001 56.4073 174.577 58.7092 175.607 61.8137L167.578 63.5999C167.297 62.7034 167.002 62.0478 166.694 61.6328C166.186 60.9371 165.563 60.4018 164.828 60.027C164.092 59.6525 163.269 59.465 162.359 59.465C160.298 59.465 158.719 60.294 157.621 61.9514C156.791 63.1811 156.377 65.1126 156.377 67.7452C156.377 71.007 156.871 73.2425 157.862 74.4521C158.852 75.6617 160.244 76.2663 162.037 76.2663C163.777 76.2663 165.091 75.7778 165.982 74.801C166.872 73.8242 167.518 72.4057 167.919 70.5455ZM179.16 67.8957C179.16 63.0915 180.498 59.3515 183.175 56.6748C185.851 53.9986 189.578 52.6604 194.356 52.6604C199.254 52.6604 203.027 53.9752 205.677 56.6046C208.327 59.2342 209.651 62.9179 209.651 67.6548C209.651 71.0944 209.073 73.9145 207.915 76.1158C206.757 78.3173 205.085 80.0297 202.897 81.2544C200.709 82.4789 197.982 83.0912 194.717 83.0912C191.398 83.0912 188.652 82.5627 186.477 81.5051C184.302 80.4483 182.539 78.7753 181.188 76.487C179.836 74.1989 179.16 71.3352 179.16 67.8957ZM188.253 67.9357C188.253 70.9066 188.805 73.0414 189.909 74.3394C191.014 75.6373 192.515 76.2862 194.416 76.2862C196.369 76.2862 197.882 75.6506 198.952 74.3794C200.023 73.1079 200.558 70.8266 200.558 67.5343C200.558 64.7642 199.999 62.7404 198.882 61.4624C197.764 60.1846 196.249 59.5455 194.335 59.5455C192.502 59.5455 191.03 60.1946 189.919 61.4923C188.809 62.7905 188.253 64.9384 188.253 67.9357ZM214.449 53.1618H226.407L231.019 71.0672L235.598 53.1618H247.55V82.5891H240.102V60.1476L234.364 82.5894H227.624L221.896 60.1476V82.5894H214.449V53.1618ZM253.331 53.1618H277.699V59.4449H262.444V64.1219H276.595V70.1239H262.444V75.925H278.141V82.5891H253.331V53.1618Z" fill="#65A8EB"/>
<path d="M44.6406 50.9491H53.2775L56.3871 67.4235L60.938 50.9491H69.5437L74.106 67.4013L77.2188 50.9491H85.8106L79.3239 80.3765H70.407L65.2456 61.8491L60.1045 80.3765H51.1877L44.6406 50.9491ZM88.7614 50.9491H113.13V57.2322H97.8747V61.9093H112.026V67.9112H97.8747V73.7123H113.572V80.3765H88.7614V50.9491ZM118.47 50.9491H127.563V73.1302H141.755V80.3765H118.47V50.9491ZM164.778 68.3326L172.747 70.7414C172.212 72.9764 171.369 74.8432 170.218 76.3417C169.067 77.8408 167.639 78.9713 165.933 79.7342C164.226 80.497 162.055 80.8786 159.419 80.8786C156.22 80.8786 153.608 80.4135 151.58 79.4845C149.553 78.555 147.803 76.9203 146.331 74.5799C144.859 72.2397 144.123 69.2442 144.123 65.593C144.123 60.7251 145.418 56.984 148.007 54.3693C150.597 51.7548 154.26 50.4475 158.997 50.4475C162.704 50.4475 165.618 51.1973 167.739 52.6958C169.86 54.1946 171.436 56.4965 172.466 59.6011L164.437 61.3873C164.156 60.4908 163.861 59.8351 163.554 59.4201C163.045 58.7247 162.423 58.1891 161.687 57.8144C160.951 57.4399 160.128 57.2523 159.218 57.2523C157.157 57.2523 155.578 58.0814 154.48 59.7387C153.651 60.9685 153.236 62.8999 153.236 65.5326C153.236 68.7942 153.731 71.0299 154.721 72.2395C155.711 73.4491 157.103 74.0536 158.896 74.0536C160.636 74.0536 161.951 73.5651 162.841 72.5883C163.731 71.6113 164.377 70.1928 164.778 68.3326ZM176.019 65.6828C176.019 60.8786 177.358 57.1386 180.034 54.4616C182.71 51.7855 186.437 50.4473 191.215 50.4473C196.113 50.4473 199.886 51.7621 202.536 54.3914C205.186 57.021 206.511 60.7047 206.511 65.4417C206.511 68.8812 205.932 71.7014 204.774 73.9026C203.617 76.1041 201.944 77.8166 199.756 79.0413C197.568 80.2657 194.841 80.8781 191.576 80.8781C188.257 80.8781 185.511 80.3496 183.336 79.2922C181.161 78.2354 179.398 76.5624 178.047 74.2741C176.695 71.986 176.019 69.1224 176.019 65.6828ZM185.113 65.7231C185.113 68.694 185.664 70.8288 186.769 72.1267C187.873 73.4247 189.375 74.0735 191.275 74.0735C193.229 74.0735 194.741 73.438 195.811 72.1667C196.882 70.8952 197.417 68.6139 197.417 65.3216C197.417 62.5518 196.858 60.5278 195.741 59.2497C194.624 57.9719 193.108 57.3329 191.195 57.3329C189.361 57.3329 187.889 57.9822 186.779 59.2797C185.668 60.5776 185.113 62.7258 185.113 65.7231ZM211.308 50.9491H223.267L227.878 68.8543L232.457 50.9491H244.409V80.3765H236.962V57.9347L231.224 80.3765H224.483L218.755 57.9347V80.3765H211.308V50.9491H211.308ZM250.19 50.9491H274.559V57.2322H259.303V61.9093H273.454V67.9112H259.303V73.7123H275V80.3765H250.19V50.9491Z" fill="white"/>
</svg>
