<svg width="327" height="260" viewBox="0 0 327 260" fill="none" xmlns="http://www.w3.org/2000/svg">
<path d="M233.793 132.746C233.793 132.746 232.789 134.806 231.68 137.923C231.363 138.821 230.993 139.825 230.676 140.934C230.518 141.409 230.412 141.885 230.254 142.413C230.148 142.783 230.042 143.1 229.99 143.469C229.25 146.48 228.669 149.808 228.669 152.978H211.977C211.977 149.755 212.558 146.428 213.297 143.469C213.403 143.1 213.456 142.783 213.561 142.413C213.614 142.254 213.667 142.149 213.667 141.99C214.089 140.406 214.565 138.979 215.04 137.712C216.097 134.701 217.048 132.799 217.048 132.799H233.793V132.746Z" fill="#0A0A0C"/>
<path d="M252.343 142.362H185.151C185.045 142.362 184.992 142.309 184.992 142.203V100.842C184.992 100.736 185.045 100.684 185.151 100.684H252.343C252.449 100.684 252.501 100.736 252.501 100.842V142.203C252.501 142.256 252.449 142.362 252.343 142.362Z" fill="#0A0A0C"/>
<path d="M254.554 142.362H187.362C187.256 142.362 187.203 142.309 187.203 142.203V100.842C187.203 100.736 187.256 100.684 187.362 100.684H254.554C254.659 100.684 254.712 100.736 254.712 100.842V142.203C254.712 142.256 254.659 142.362 254.554 142.362Z" fill="#0A0A0C"/>
<path d="M252.5 140.157V102.863H189.375V140.157H252.5Z" fill="#FAFBFD"/>
<path d="M263.321 148.965L259.201 149.652C257.986 149.863 257.035 150.92 256.982 152.135L256.93 152.927H268.023C268.023 150.444 265.751 148.543 263.321 148.965Z" fill="#5AACFF"/>
<path d="M199.574 151.025H248.965C249.071 151.025 249.123 151.078 249.123 151.184V152.927H199.469V151.131C199.469 151.078 199.522 151.025 199.574 151.025Z" fill="#5AACFF"/>
<path d="M199.469 152.927H209.717V151.184C209.717 151.078 209.664 151.025 209.558 151.025H199.522C199.522 151.025 199.469 151.025 199.469 151.078V152.927Z" fill="#5AACFF"/>
<path d="M245.368 150.707H247.058C247.164 150.707 247.269 150.813 247.269 150.918C247.269 151.077 245.156 151.077 245.156 151.077C245.156 150.813 245.209 150.707 245.368 150.707Z" fill="#ACCBEA"/>
<path d="M242.672 150.707H244.363C244.468 150.707 244.574 150.813 244.574 150.918C244.574 151.077 242.461 151.077 242.461 151.077C242.514 150.813 242.567 150.707 242.672 150.707Z" fill="#ACCBEA"/>
<path d="M240.032 150.707H241.722C241.828 150.707 241.933 150.813 241.933 150.918C241.933 151.077 239.82 151.077 239.82 151.077C239.82 150.813 239.926 150.707 240.032 150.707Z" fill="#ACCBEA"/>
<path d="M237.391 150.707H239.081C239.187 150.707 239.293 150.813 239.293 150.918C239.293 151.077 237.18 151.077 237.18 151.077C237.18 150.813 237.285 150.707 237.391 150.707Z" fill="#ACCBEA"/>
<path d="M234.75 150.707H236.441C236.546 150.707 236.652 150.813 236.652 150.918C236.652 151.077 234.539 151.077 234.539 151.077C234.539 150.813 234.645 150.707 234.75 150.707Z" fill="#ACCBEA"/>
<path d="M232.11 150.707H233.8C233.906 150.707 234.011 150.813 234.011 150.918C234.011 151.077 231.898 151.077 231.898 151.077C231.898 150.813 232.004 150.707 232.11 150.707Z" fill="#A9D4FF"/>
<path d="M229.469 150.707H231.159C231.265 150.707 231.371 150.813 231.371 150.918C231.371 151.077 229.258 151.077 229.258 151.077C229.258 150.813 229.363 150.707 229.469 150.707Z" fill="#A9D4FF"/>
<path d="M226.821 150.707H228.511C228.617 150.707 228.722 150.813 228.722 150.918C228.722 151.077 226.609 151.077 226.609 151.077C226.609 150.813 226.662 150.707 226.821 150.707Z" fill="#A9D4FF"/>
<path d="M224.133 150.707H225.824C225.929 150.707 226.035 150.813 226.035 150.918C226.035 151.077 223.922 151.077 223.922 151.077C223.975 150.813 224.028 150.707 224.133 150.707Z" fill="#A9D4FF"/>
<path d="M221.485 150.707H223.175C223.281 150.707 223.386 150.813 223.386 150.918C223.386 151.077 221.273 151.077 221.273 151.077C221.273 150.813 221.379 150.707 221.485 150.707Z" fill="#A9D4FF"/>
<path d="M218.844 150.707H220.534C220.64 150.707 220.746 150.813 220.746 150.918C220.746 151.077 218.633 151.077 218.633 151.077C218.633 150.813 218.738 150.707 218.844 150.707Z" fill="#A9D4FF"/>
<path d="M216.203 150.707H217.894C217.999 150.707 218.105 150.813 218.105 150.918C218.105 151.077 215.992 151.077 215.992 151.077C215.992 150.813 216.098 150.707 216.203 150.707Z" fill="#A9D4FF"/>
<path d="M213.563 150.707H215.253C215.359 150.707 215.465 150.813 215.465 150.918C215.465 151.077 213.352 151.077 213.352 151.077C213.352 150.813 213.457 150.707 213.563 150.707Z" fill="#A9D4FF"/>
<path d="M210.93 150.707H212.62C212.726 150.707 212.832 150.813 212.832 150.918C212.832 151.077 210.719 151.077 210.719 151.077C210.719 150.813 210.824 150.707 210.93 150.707Z" fill="#A9D4FF"/>
<path d="M208.289 150.707H209.98C210.085 150.707 210.191 150.813 210.191 150.918C210.191 151.077 208.078 151.077 208.078 151.077C208.078 150.813 208.131 150.707 208.289 150.707Z" fill="#A9D4FF"/>
<path d="M205.594 150.707H207.284C207.39 150.707 207.496 150.813 207.496 150.918C207.496 151.077 205.383 151.077 205.383 151.077C205.383 150.813 205.488 150.707 205.594 150.707Z" fill="#A9D4FF"/>
<path d="M202.953 150.707H204.644C204.75 150.707 204.855 150.813 204.855 150.918C204.855 151.077 202.742 151.077 202.742 151.077C202.742 150.813 202.848 150.707 202.953 150.707Z" fill="#A9D4FF"/>
<path d="M266.661 146.955C266.661 146.955 263.122 147.325 262.171 147.642C261.22 147.959 258.473 149.121 258.473 149.121C258.209 149.227 258.103 149.543 258.262 149.755C258.315 149.86 258.42 149.86 258.526 149.86L262.382 148.962C262.382 148.962 263.967 148.751 264.601 148.962C265.235 149.174 267.189 150.811 267.189 150.811L266.661 146.955Z" fill="#BFDEFD"/>
<path d="M265.337 148.963C263.752 149.227 261.798 150.178 260.794 150.548C260.53 150.653 260.371 150.918 260.424 151.182C260.424 151.287 260.53 151.393 260.688 151.393H267.555V148.857C267.503 148.91 266.393 148.805 265.337 148.963Z" fill="#BFDEFD"/>
<path d="M202.374 190.537H155.836V194.657H202.374V190.537Z" fill="#92BDE8"/>
<path d="M314.468 190.537H267.93V194.657H314.468V190.537Z" fill="#021B79"/>
<path d="M161.277 157.416H155.836V260H161.277V157.416Z" fill="#92BDE8"/>
<path d="M202.425 157.416H196.984V260H202.425V157.416Z" fill="#92BDE8"/>
<path d="M314.511 157.416H309.07V260H314.511V157.416Z" fill="#92BDE8"/>
<path d="M273.371 157.416H267.93V260H273.371V157.416Z" fill="#4A4D59"/>
<path d="M322.907 152.926H192.484H151.387C150.7 152.926 150.067 153.19 149.591 153.665C149.116 154.141 148.852 154.722 148.852 155.461C148.852 156.835 149.961 157.944 151.334 157.944H192.484H322.907C323.594 157.944 324.227 157.68 324.703 157.205C325.178 156.729 325.442 156.148 325.442 155.461C325.442 154.035 324.333 152.926 322.907 152.926ZM190.688 153.665C191.058 153.296 191.481 153.084 191.956 152.979C191.533 153.084 191.111 153.296 190.688 153.665C190.213 154.141 189.949 154.722 189.949 155.461C190.002 154.775 190.266 154.141 190.688 153.665Z" fill="#0575E6"/>
<path d="M284.04 151.446H267.453C267.453 151.446 265.34 150.971 266.661 146.956C270.094 145.477 286.1 140.617 286.1 140.617L284.04 151.446Z" fill="white"/>
<path d="M284.088 151.551H267.449C267.449 151.551 266.868 151.392 266.498 150.758C266.022 149.913 266.075 148.645 266.603 146.955C270.037 145.476 285.937 140.616 286.096 140.563C286.201 140.458 284.088 151.551 284.088 151.551ZM267.449 151.339H283.93L285.99 140.669C284.458 141.144 270.037 145.582 266.709 146.955C266.075 148.962 266.286 150.072 266.603 150.6C266.973 151.181 267.396 151.339 267.449 151.339Z" fill="black"/>
<path d="M294.547 111.09C294.547 111.09 289.053 115.369 286.782 121.813C284.669 127.729 280.971 136.445 279.281 143.841C278.753 146.112 279.492 150.18 281.658 151.078C285.831 152.821 288.419 148.648 289.582 147.01C293.86 140.935 301.044 133.646 301.044 126.937C300.992 119.172 294.547 111.09 294.547 111.09Z" fill="white"/>
<path d="M283.608 151.553C282.974 151.553 282.34 151.448 281.601 151.131C279.435 150.233 278.642 146.112 279.223 143.788C280.491 138.453 282.71 132.537 284.717 127.254C285.457 125.247 286.196 123.398 286.777 121.76C289.049 115.316 294.49 111.037 294.542 110.984C294.701 111.09 301.145 119.225 301.145 126.884C301.145 132.167 296.761 137.819 292.852 142.837C291.69 144.316 290.633 145.69 289.683 147.01C289.63 147.116 289.524 147.169 289.471 147.275C288.415 148.806 286.46 151.553 283.608 151.553ZM294.542 111.196C293.909 111.724 288.996 115.844 286.883 121.813C286.302 123.451 285.615 125.353 284.823 127.307C282.815 132.537 280.597 138.506 279.329 143.788C278.801 146.06 279.54 150.021 281.653 150.919C285.562 152.557 288.045 148.912 289.26 147.222C289.313 147.116 289.418 147.01 289.471 146.905C290.422 145.531 291.479 144.158 292.641 142.679C296.497 137.713 300.934 132.061 300.934 126.832C300.934 119.648 295.123 111.988 294.542 111.196Z" fill="black"/>
<path d="M278.802 103.27C275.526 104.802 271.512 105.489 267.022 105.595C266.282 105.595 265.543 105.383 264.962 105.014C264.169 104.485 263.588 103.64 263.377 102.689C262.796 99.784 263.007 96.1392 262.003 90.6983C261.951 90.4342 261.898 90.1172 261.845 89.8003C261.475 87.8986 261.422 86.2611 261.739 84.8348C262.901 79.0242 268.976 77.4395 272.515 77.4395C280.703 77.4395 284.929 77.4394 285.51 86.8421C285.88 93.2338 278.802 103.27 278.802 103.27Z" fill="#A9D2FC"/>
<path d="M264.961 105.069C265.542 105.438 266.282 105.65 267.021 105.65C271.511 105.544 275.473 104.646 278.801 103.273C279.276 102.48 284.559 93.5531 284.506 93.1833C284.4 92.655 280.016 92.4438 279.223 92.2325C278.431 92.0212 272.092 95.2962 272.092 95.2962C272.092 95.2962 272.303 98.7298 271.036 101.529C268.817 104.54 264.961 105.069 264.961 105.069Z" fill="#73B7FC"/>
<path d="M285.512 107.179H271.25L271.62 93.1802L271.673 91.7012L273.257 91.9653L281.022 93.1802L283.611 93.55L283.769 94.6065L284.879 102.794L285.512 107.179Z" fill="#A9D2FC"/>
<path d="M284.83 95.2951C285.042 96.6157 284.83 97.725 284.302 98.5702C282.559 101.317 277.276 100.947 272.945 94.5027C272.628 94.0273 272.311 93.499 271.994 92.9708C271.994 92.918 270.726 92.918 270.726 92.918H269.723C268.772 92.8123 268.032 92.0728 267.874 91.122C267.663 89.8014 267.029 88.111 264.968 88.0582C262.644 88.0582 261.799 89.6429 261.799 89.6429C261.799 89.6429 258.788 88.5336 258.577 83.621C258.365 78.7611 263.384 74.6937 270.092 77.0708C280.974 74.6409 284.249 76.3841 285.781 81.4023C287.366 86.6847 284.513 90.805 284.777 94.714C284.777 94.8197 284.83 95.0838 284.83 95.2951Z" fill="#0A0A0C"/>
<path d="M273.365 92.2831C273.365 92.7057 273.312 93.1283 273.206 93.5509C273.153 93.8678 273.048 94.1848 272.942 94.4489C272.625 95.2941 272.097 96.0336 271.569 96.509C271.093 96.9316 270.565 97.1429 270.037 97.1429C269.931 97.1429 269.825 97.1429 269.72 97.1429C268.241 96.9316 267.448 94.9771 267.871 92.7585C267.924 92.4416 268.029 92.0718 268.135 91.8077C268.663 90.4343 269.667 89.4306 270.723 89.2193C270.935 89.1665 271.146 89.1665 271.41 89.2193C272.572 89.3778 273.312 90.6456 273.365 92.2831Z" fill="#A9D2FC"/>
<path d="M219.797 260.001H242.828C242.828 260.001 242.881 259.684 242.881 259.156C242.934 258.205 242.987 256.462 242.828 254.877C242.564 252.447 242.036 252.13 241.243 251.179C240.451 250.228 234.852 252.553 231.841 251.179C231.841 251.179 225.766 253.926 222.966 254.982C221.17 255.669 219.955 257.307 219.797 259.156C219.797 259.473 219.797 259.737 219.797 260.001Z" fill="#0A0A0C"/>
<path d="M259.16 259.156C259.16 259.42 259.16 259.685 259.213 259.949H277.595C277.595 259.949 277.648 259.632 277.648 259.103C277.701 258.153 277.754 256.462 277.595 254.825C277.331 252.395 276.011 251.127 276.011 251.127C274.849 250.493 273.211 250.335 271.626 250.44C268.457 250.546 265.551 251.919 263.28 254.138C262.752 254.666 262.171 255.142 261.431 255.459C259.635 256.198 259.107 257.413 259.16 259.156Z" fill="#0A0A0C"/>
<path d="M262.372 188.738C262.425 188.686 277.533 199.567 277.533 199.567C278.959 201.628 279.804 204.374 280.174 207.597C280.174 207.597 281.125 211.928 280.913 217.739C280.755 222.123 278.483 235.382 278.8 246.475C278.959 250.807 277.48 254.135 277.48 254.135C277.48 254.135 274.31 254.504 265.964 252.074C264.802 241.932 259.836 201.152 259.836 201.152C259.044 196.873 259.995 192.436 262.372 188.738Z" fill="#3A52AA"/>
<path d="M294.871 166.5L248.914 178.861L252.823 194.497L297.671 194.55L300.153 176.537L294.871 166.5Z" fill="white"/>
<path d="M297.765 194.655C297.712 194.655 252.759 194.602 252.759 194.602L248.797 178.861C248.85 178.861 294.965 166.447 294.965 166.447L300.248 176.589C300.248 176.537 297.765 194.655 297.765 194.655ZM252.917 194.391L297.606 194.444L300.036 176.537L294.807 166.553L249.008 178.914L252.917 194.391Z" fill="black"/>
<path d="M306.646 180.5C306.646 186.575 302.473 190.59 302.473 190.59H278.226C278.226 190.59 257.889 196.242 242.729 196.242L227.727 181.451C227.727 181.451 232.322 176.538 257.783 171.52C259.368 171.203 261.006 170.886 262.749 170.569C264.281 170.305 265.601 169.354 266.341 168.034C266.605 167.558 266.816 167.083 266.922 166.555H303.582C303.582 166.555 305.378 171.996 306.646 180.5Z" fill="#3A52AA"/>
<path d="M231.633 248.432C231.791 250.175 232.161 253.978 232.161 253.978L241.3 251.231C241.3 250.386 241.3 249.541 241.352 248.696C239.081 248.801 235.806 248.854 231.633 248.432Z" fill="white"/>
<path d="M232.106 254.084C232.106 253.925 231.737 250.228 231.578 248.484C235.963 248.801 239.29 248.748 241.351 248.643C241.403 249.594 241.403 250.439 241.403 251.231C241.351 251.284 232.106 254.084 232.106 254.084ZM231.684 248.537C231.842 250.175 232.159 253.239 232.212 253.872L241.192 251.178C241.192 250.386 241.192 249.594 241.245 248.801C239.185 248.907 235.91 248.96 231.684 248.537Z" fill="black"/>
<path d="M246.788 202.262C246.366 214.517 242.668 237.443 243.989 248.483C244.517 252.709 243.302 254.663 243.302 254.663C243.302 254.663 233.265 256.882 229.145 252.445C227.983 242.303 225.131 193.969 225.131 193.969C224.444 189.637 225.342 185.2 227.719 181.502C227.772 181.449 246.26 194.972 246.26 194.972C246.736 196.24 246.894 198.828 246.788 202.262Z" fill="#3A52AA"/>
<path d="M220.75 149.122C220.75 149.122 224.078 150.443 226.613 150.549C228.304 149.017 223.708 147.168 223.708 147.168L220.75 149.122Z" fill="#A9D2FC"/>
<path d="M223.551 145.846L215.099 147.853C214.941 147.906 214.835 148.064 214.941 148.223C215.099 148.645 215.522 148.857 215.945 148.804L223.023 147.747L223.551 145.846Z" fill="#A9D2FC"/>
<path d="M222.342 146.535L218.222 148.226L216.32 149.81C216.584 150.338 217.06 150.444 217.43 150.233L219.067 149.335L222.342 146.535Z" fill="#A9D2FC"/>
<path d="M250.596 143.26C238.34 143.26 241.563 145.214 230.311 145.531C230.311 145.531 226.666 145.426 223.708 145.795C221.278 147.116 218.426 148.912 218.426 148.912L217.475 151.078C217.422 151.183 217.528 151.342 217.633 151.342C218.215 151.289 218.743 150.972 219.06 150.497L219.746 149.493L223.708 148.172C223.708 148.172 224.131 151.5 228.885 150.338C228.885 150.338 240.137 151.87 246.317 151.447L250.596 143.26Z" fill="#A9D2FC"/>
<path d="M263.806 126.937C263.806 131.427 260.795 136.181 257.52 140.618C255.882 142.837 254.192 145.003 252.765 147.063C252.026 148.119 250.547 150.18 248.434 151.078C247.272 151.606 245.898 151.712 244.419 151.078C242.253 150.18 241.778 146.218 242.57 143.999C243.574 141.252 244.578 138.506 245.581 135.811C245.898 134.966 246.215 134.121 246.532 133.276C247.958 129.525 249.332 125.986 250.388 122.87C253.399 117.27 258.682 111.09 258.682 111.09C258.682 111.09 263.806 119.172 263.806 126.937Z" fill="#A9D2FC"/>
<path d="M306.11 173.422C285.456 185.254 263.956 170.146 263.956 170.146C263.956 170.146 267.231 158.578 265.963 148.858C264.643 139.139 258.727 133.487 258.727 133.487C258.727 133.487 259.255 115.157 259.255 110.402C259.255 110.402 264.432 108.448 271.299 107.18C271.774 107.074 272.197 107.022 272.619 106.969C275.894 106.441 279.117 106.229 281.969 106.124C285.878 105.965 289.734 106.969 293.062 109.029C296.549 111.195 298.978 114.259 300.193 117.851C302.993 123.873 303.997 150.232 304.314 161.325C304.419 164.441 304.789 167.505 305.476 170.569C305.634 171.361 305.846 172.312 306.11 173.422Z" fill="#2650ED"/>
<path d="M264.439 127.993C263.435 131.743 261.322 136.286 260.107 138.875C259.526 140.142 259.103 140.882 259.103 140.882C259.103 140.882 253.081 140.037 249.172 136.709C248.063 135.758 247.112 134.596 246.531 133.17C246.69 132.377 246.848 131.532 247.059 130.74C250.229 118.696 259.103 110.508 259.262 110.402C266.816 116.213 265.971 122.499 264.439 127.993Z" fill="#2650ED"/>
<path d="M239.4 196.295C231.74 189.428 230.261 181.61 230.314 176.275C230.419 170.517 232.321 166.397 232.427 166.238L236.653 168.246C236.653 168.298 235.015 171.785 234.962 176.539C234.91 182.772 237.445 188.266 242.463 192.809L239.4 196.295Z" fill="#0036FF"/>
<path d="M287.681 195.08C287.787 196.084 287.734 197.193 287.417 198.461C286.836 200.679 284.829 202.211 282.557 202.211H231.582C228.677 196.876 232.427 190.537 238.344 190.537H282.716C285.198 190.59 287.417 192.544 287.681 195.08Z" fill="#0036FF"/>
<path d="M324.122 195.08C324.227 196.084 324.175 197.193 323.858 198.461C323.277 200.679 321.269 202.211 318.998 202.211H271.456C269.079 202.211 266.966 200.521 266.491 198.144C266.332 197.299 266.227 196.348 266.279 195.344C266.385 192.65 268.656 190.537 271.298 190.537H319.103C321.692 190.59 323.858 192.544 324.122 195.08Z" fill="#0036FF"/>
<path d="M300.039 256.302C300.039 258.363 301.729 260 303.737 260C305.797 260 307.487 258.31 307.487 256.302C307.487 254.242 305.797 252.605 303.737 252.605C301.729 252.552 300.039 254.242 300.039 256.302Z" fill="#92BDE8"/>
<path d="M264.961 256.302C264.961 258.363 266.651 260 268.711 260C270.772 260 272.409 258.31 272.409 256.302C272.409 254.242 270.719 252.605 268.711 252.605C266.598 252.552 264.961 254.242 264.961 256.302Z" fill="#92BDE8"/>
<path d="M288.524 202.264H283.664V238.924H288.524V202.264Z" fill="#92BDE8"/>
<path d="M282.031 251.232H290.219V239.029C290.219 238.977 290.166 238.924 290.113 238.924H282.137C282.084 238.924 282.031 238.977 282.031 239.029V251.232Z" fill="#0575E6"/>
<path d="M264.062 256.304H308.171C308.171 253.504 305.899 251.232 303.099 251.232H269.134C266.334 251.232 264.062 253.504 264.062 256.304Z" fill="#0575E6"/>
<path d="M283.342 236.6H288.888C288.888 236.6 288.941 236.6 288.941 236.652V238.924H283.289L283.342 236.6C283.289 236.6 283.289 236.6 283.342 236.6Z" fill="#0575E6"/>
<path d="M262.852 190.536C262.852 190.536 275.688 175.165 273.733 122.182C273.628 118.96 275.476 116.055 278.487 114.84C287.732 111.142 305.481 109.452 314.778 115.104C316.785 116.319 318.158 118.432 318.422 120.756C323.124 162.276 312.242 190.589 312.242 190.589L262.852 190.536Z" fill="#0036FF"/>
<path d="M320.539 187.685C320.222 188.741 319.957 189.481 319.799 190.009C319.64 190.432 319.588 190.59 319.588 190.59L270.25 190.537C270.25 190.537 270.937 189.692 271.993 187.685C275.427 181.24 282.611 162.699 281.079 122.183C280.973 118.961 282.822 116.055 285.833 114.84C292.33 112.199 303.107 110.614 312.139 111.882C315.943 112.41 319.376 113.414 322.123 115.104C324.131 116.319 325.504 118.432 325.768 120.757C329.519 154.511 323.074 179.497 320.539 187.685Z" fill="#5AACFF"/>
<path d="M272.782 169.407H229.414C228.199 169.407 227.195 168.404 227.195 167.189V166.819C227.195 164.072 229.414 161.854 232.161 161.854H273.522C274.895 161.854 275.952 163.121 275.635 164.495L274.948 167.77C274.684 168.668 273.786 169.407 272.782 169.407Z" fill="#0036FF"/>
<path d="M289.526 213.146H282.658C282.606 213.146 282.5 213.093 282.5 212.987V202.211H289.684V212.987C289.684 213.093 289.631 213.146 289.526 213.146Z" fill="#0575E6"/>
<path d="M157.099 17.6962V121.337C157.099 127.359 152.239 132.219 146.217 132.219H10.8818C4.85981 132.219 0 127.359 0 121.337V17.6962C0 11.6743 4.85981 6.81445 10.8818 6.81445H146.217C152.239 6.81445 157.099 11.6743 157.099 17.6962Z" fill="#92BDE8"/>
<path d="M157.099 17.6962V30.1099H0V17.6962C0 11.6743 4.85981 6.81445 10.8818 6.81445H146.217C152.239 6.81445 157.099 11.6743 157.099 17.6962Z" fill="#0575E6"/>
<path d="M33.4932 50.498H20.2344V61.4326H33.4932V50.498Z" fill="white"/>
<path d="M50.712 50.498H37.4531V61.4326H50.712V50.498Z" fill="white"/>
<path d="M67.9307 50.498H54.6719V61.4326H67.9307V50.498Z" fill="white"/>
<path d="M85.2041 50.498H71.9453V61.4326H85.2041V50.498Z" fill="white"/>
<path d="M102.423 50.498H89.1641V61.4326H102.423V50.498Z" fill="white"/>
<path d="M119.642 50.498H106.383V61.4326H119.642V50.498Z" fill="white"/>
<path d="M136.868 50.498H123.609V61.4326H136.868V50.498Z" fill="white"/>
<path d="M33.4932 65.2891H20.2344V76.2236H33.4932V65.2891Z" fill="white"/>
<path d="M50.712 65.2891H37.4531V76.2236H50.712V65.2891Z" fill="white"/>
<path d="M67.9307 65.2891H54.6719V76.2236H67.9307V65.2891Z" fill="white"/>
<path d="M85.2041 65.2891H71.9453V76.2236H85.2041V65.2891Z" fill="white"/>
<path d="M102.423 65.2891H89.1641V76.2236H102.423V65.2891Z" fill="white"/>
<path d="M119.642 65.2891H106.383V76.2236H119.642V65.2891Z" fill="white"/>
<path d="M136.868 65.2891H123.609V76.2236H136.868V65.2891Z" fill="white"/>
<path d="M33.4932 80.0781H20.2344V91.0127H33.4932V80.0781Z" fill="white"/>
<path d="M50.712 80.0781H37.4531V91.0127H50.712V80.0781Z" fill="white"/>
<path d="M67.9307 80.0781H54.6719V91.0127H67.9307V80.0781Z" fill="white"/>
<path d="M85.2041 80.0781H71.9453V91.0127H85.2041V80.0781Z" fill="white"/>
<path d="M102.423 80.0781H89.1641V91.0127H102.423V80.0781Z" fill="white"/>
<path d="M119.642 80.0781H106.383V91.0127H119.642V80.0781Z" fill="white"/>
<path d="M136.868 80.0781H123.609V91.0127H136.868V80.0781Z" fill="white"/>
<path d="M33.4932 94.8711H20.2344V105.806H33.4932V94.8711Z" fill="white"/>
<path d="M50.712 94.8711H37.4531V105.806H50.712V94.8711Z" fill="white"/>
<path d="M67.9307 94.8711H54.6719V105.806H67.9307V94.8711Z" fill="white"/>
<path d="M85.2041 94.8711H71.9453V105.806H85.2041V94.8711Z" fill="white"/>
<path d="M102.423 94.8711H89.1641V105.806H102.423V94.8711Z" fill="white"/>
<path d="M119.642 94.8711H106.383V105.806H119.642V94.8711Z" fill="white"/>
<path d="M136.868 94.8711H123.609V105.806H136.868V94.8711Z" fill="white"/>
<path d="M19.4985 12.3078C19.4985 13.9454 18.1779 15.3188 16.4875 15.3188C14.85 15.3188 13.4766 13.9982 13.4766 12.3078C13.4766 10.6703 14.7972 9.29688 16.4875 9.29688C18.1779 9.29688 19.4985 10.6175 19.4985 12.3078Z" fill="#92BDE8"/>
<path d="M17.7524 12.308H15.3225C15.2169 12.308 15.1641 12.2552 15.1641 12.1495V0.158474C15.1641 0.0528257 15.2169 0 15.3225 0H17.7524C17.8581 0 17.9109 0.0528257 17.9109 0.158474V12.1495C17.9109 12.2024 17.8053 12.308 17.7524 12.308Z" fill="#5AACFF"/>
<path d="M34.2375 15.3188C35.9004 15.3188 37.2485 13.9708 37.2485 12.3078C37.2485 10.6449 35.9004 9.29688 34.2375 9.29688C32.5746 9.29688 31.2266 10.6449 31.2266 12.3078C31.2266 13.9708 32.5746 15.3188 34.2375 15.3188Z" fill="#92BDE8"/>
<path d="M35.4478 12.308H33.0178C32.9122 12.308 32.8594 12.2552 32.8594 12.1495V0.158474C32.8594 0.0528257 32.9122 0 33.0178 0H35.4478C35.5534 0 35.6062 0.0528257 35.6062 0.158474V12.1495C35.6062 12.2024 35.5534 12.308 35.4478 12.308Z" fill="#5AACFF"/>
<path d="M54.9438 12.3078C54.9438 13.9454 53.6232 15.3188 51.9328 15.3188C50.2953 15.3188 48.9219 13.9982 48.9219 12.3078C48.9219 10.6703 50.2425 9.29688 51.9328 9.29688C53.6232 9.29688 54.9438 10.6175 54.9438 12.3078Z" fill="#92BDE8"/>
<path d="M53.1978 12.308H50.7678C50.6622 12.308 50.6094 12.2552 50.6094 12.1495V0.158474C50.6094 0.0528257 50.6622 0 50.7678 0H53.1978C53.3034 0 53.3562 0.0528257 53.3562 0.158474V12.1495C53.3562 12.2024 53.2506 12.308 53.1978 12.308Z" fill="#5AACFF"/>
<path d="M69.6828 15.3188C71.3458 15.3188 72.6938 13.9708 72.6938 12.3078C72.6938 10.6449 71.3458 9.29688 69.6828 9.29688C68.0199 9.29688 66.6719 10.6449 66.6719 12.3078C66.6719 13.9708 68.0199 15.3188 69.6828 15.3188Z" fill="#92BDE8"/>
<path d="M70.8931 12.308H68.4632C68.3575 12.308 68.3047 12.2552 68.3047 12.1495V0.158474C68.3047 0.0528257 68.3575 0 68.4632 0H70.8931C70.9987 0 71.0515 0.0528257 71.0515 0.158474V12.1495C71.0515 12.2024 70.9987 12.308 70.8931 12.308Z" fill="#5AACFF"/>
<path d="M90.3891 12.3078C90.3891 13.9454 89.0685 15.3188 87.3782 15.3188C85.6878 15.3188 84.3672 13.9982 84.3672 12.3078C84.3672 10.6703 85.6878 9.29688 87.3782 9.29688C89.0685 9.29688 90.3891 10.6175 90.3891 12.3078Z" fill="#92BDE8"/>
<path d="M88.5884 12.308H86.1585C86.0528 12.308 86 12.2552 86 12.1495V0.158474C86 0.0528257 86.0528 0 86.1585 0H88.5884C88.694 0 88.7469 0.0528257 88.7469 0.158474V12.1495C88.7469 12.2024 88.694 12.308 88.5884 12.308Z" fill="#5AACFF"/>
<path d="M105.12 15.3188C106.783 15.3188 108.131 13.9708 108.131 12.3078C108.131 10.6449 106.783 9.29688 105.12 9.29688C103.457 9.29688 102.109 10.6449 102.109 12.3078C102.109 13.9708 103.457 15.3188 105.12 15.3188Z" fill="#92BDE8"/>
<path d="M106.338 12.308H103.908C103.803 12.308 103.75 12.2552 103.75 12.1495V0.158474C103.75 0.0528257 103.803 0 103.908 0H106.338C106.444 0 106.497 0.0528257 106.497 0.158474V12.1495C106.497 12.2024 106.444 12.308 106.338 12.308Z" fill="#5AACFF"/>
<path d="M125.827 12.3078C125.827 13.9454 124.506 15.3188 122.816 15.3188C121.125 15.3188 119.805 13.9982 119.805 12.3078C119.805 10.6703 121.125 9.29688 122.816 9.29688C124.506 9.29688 125.827 10.6175 125.827 12.3078Z" fill="#92BDE8"/>
<path d="M124.026 12.308H121.596C121.49 12.308 121.438 12.2552 121.438 12.1495V0.158474C121.438 0.0528257 121.49 0 121.596 0H124.026C124.132 0 124.184 0.0528257 124.184 0.158474V12.1495C124.184 12.2024 124.132 12.308 124.026 12.308Z" fill="#5AACFF"/>
<path d="M140.566 15.3188C142.229 15.3188 143.577 13.9708 143.577 12.3078C143.577 10.6449 142.229 9.29688 140.566 9.29688C138.903 9.29688 137.555 10.6449 137.555 12.3078C137.555 13.9708 138.903 15.3188 140.566 15.3188Z" fill="#92BDE8"/>
<path d="M141.784 12.308H139.354C139.248 12.308 139.195 12.2552 139.195 12.1495V0.158474C139.195 0.0528257 139.248 0 139.354 0H141.784C141.889 0 141.942 0.0528257 141.942 0.158474V12.1495C141.942 12.2024 141.837 12.308 141.784 12.308Z" fill="#5AACFF"/>
<path d="M49.9241 117.428H20.0257C19.92 117.428 19.8672 117.375 19.8672 117.27V114.946C19.8672 114.84 19.92 114.787 20.0257 114.787H49.9241C50.0297 114.787 50.0825 114.84 50.0825 114.946V117.27C50.0825 117.375 50.0297 117.428 49.9241 117.428Z" fill="white"/>
<path d="M89.3225 117.428H59.4241C59.3185 117.428 59.2656 117.375 59.2656 117.27V114.946C59.2656 114.84 59.3185 114.787 59.4241 114.787H89.3225C89.4282 114.787 89.481 114.84 89.481 114.946V117.27C89.481 117.375 89.4282 117.428 89.3225 117.428Z" fill="white"/>
<path d="M99.0428 42.0483H58.0513C57.8929 42.0483 57.7344 41.8898 57.7344 41.7314V36.9244C57.7344 36.7659 57.8929 36.6074 58.0513 36.6074H99.0428C99.2013 36.6074 99.3597 36.7659 99.3597 36.9244V41.7314C99.3597 41.9426 99.2013 42.0483 99.0428 42.0483Z" fill="white"/>
</svg>
