<svg xmlns="http://www.w3.org/2000/svg" enable-background="new 0 0 2500 2500" viewBox="0 0 2500 2500" id="AccessGranted"><circle cx="1250" cy="1250" r="1250" fill="none"></circle><g fill="#000000" class="color000000 svgShape"><path fill="#021b79" d="M2245.96,2038.73H254.04c-2.23,0-4.04-1.81-4.04-4.04s1.81-4.04,4.04-4.04h1991.92
				c2.23,0,4.04,1.81,4.04,4.04S2248.19,2038.73,2245.96,2038.73z" class="color030047 svgShape"></path><path fill="#021b79" d="M964.96,1991.88l-547.36,38.81c-68.35,4.85-124.33-59.16-124.33-143.01l-3.98-1306.78
				c0-83.85,55.97-147.87,124.33-143.04l547.36,38.66c61.7,4.36,111.24,71.52,111.24,150.06l3.98,1215.21
				C1076.2,1920.32,1026.66,1987.5,964.96,1991.88z" class="color030047 svgShape"></path><path fill="#021b79" d="M410.48,2034.98c-27.13,0-53.3-10.58-74.39-30.22c-29.78-27.74-46.85-70.41-46.85-117.08l-3.99-1306.77
				c0-46.68,17.08-89.35,46.86-117.1c23-21.44,52.06-32.1,81.79-29.98l547.36,38.66c63.41,4.48,115,73.6,115,154.09l3.98,1215.2
				c0,80.5-51.59,149.64-115,154.14l-547.35,38.81C415.41,2034.89,412.94,2034.98,410.48,2034.98z M406.54,441.64
				c-25.09,0-49.35,9.83-68.92,28.07c-28.15,26.23-44.29,66.75-44.29,111.18l3.99,1306.77c0,44.44,16.14,84.96,44.28,111.18
				c21.35,19.88,48.14,29.75,75.72,27.82l547.35-38.81c59.27-4.2,107.49-69.73,107.49-146.07l-3.98-1215.2
				c0-76.35-48.22-141.86-107.49-146.05l-547.36-38.66C411.06,441.72,408.79,441.64,406.54,441.64z" class="color030047 svgShape"></path><path fill="#ffffff" d="M1023.42,2001.02l-549.79,38.7c-68.65,4.83-124.87-59.33-124.87-143.37l-3.98-1309.94
				c0-84.03,56.22-148.18,124.87-143.33l549.79,38.86c61.98,4.38,111.74,71.71,111.74,150.43l3.98,1218.26
				C1135.16,1929.34,1085.4,1996.66,1023.42,2001.02z" class="colorffffff svgShape"></path><path fill="#021b79" d="M466.51,2044.01c-27.3,0-53.63-10.64-74.83-30.41c-29.84-27.81-46.95-70.55-46.95-117.25l-3.98-1309.93
				c0-46.71,17.11-89.44,46.95-117.25c23.12-21.54,52.31-32.24,82.25-30.12l549.79,38.86c63.69,4.5,115.5,73.79,115.5,154.45
				l3.98,1218.25c0,80.68-51.81,149.95-115.49,154.43l-549.79,38.7C471.44,2043.92,468.97,2044.01,466.51,2044.01z M462.51,446.87
				c-25.25,0-49.64,9.88-69.32,28.22c-28.21,26.28-44.38,66.86-44.38,111.33l3.98,1309.93c0,44.48,16.18,85.06,44.38,111.35
				c21.47,20,48.5,29.94,76.17,28l549.79-38.7c59.55-4.19,107.99-69.85,107.99-146.37l-3.98-1218.25
				c0-76.53-48.45-142.2-107.99-146.41l-549.79-38.86C467.08,446.95,464.79,446.87,462.51,446.87z" class="color030047 svgShape"></path><path fill="#021b79" d="M668.74 566.54c0 16.65-10.91 29.51-24.39 28.71-13.51-.8-24.49-15-24.49-31.72 0-16.72 10.98-29.57 24.49-28.7C657.83 535.69 668.74 549.89 668.74 566.54zM868.98 578.91c0 5.32-1.72 9.98-4.47 13.27-2.75 3.3-6.59 5.23-10.82 4.98l-145.53-8.74c-8.63-.52-15.65-9.66-15.65-20.39 0-5.4 1.77-10.18 4.6-13.51 2.83-3.33 6.72-5.28 11.05-5.01l145.53 9.2C862.15 559.25 868.98 568.27 868.98 578.91zM957.48 1090.3c-14.87 0-26.92-12.05-26.92-26.92V958.02c0-95.09-75.4-174.75-168.08-177.57-44.97-1.32-87.45 15.13-119.75 46.46-33.44 32.44-51.86 76.62-51.86 124.41v112.07c0 14.87-12.05 26.92-26.92 26.92s-26.92-12.05-26.92-26.92V951.31c0-62.48 24.23-120.38 68.21-163.05 42.84-41.56 99.23-63.44 158.87-61.63 121.46 3.7 220.28 107.5 220.28 231.38v105.37C984.4 1078.25 972.35 1090.3 957.48 1090.3z" class="color030047 svgShape"></path><path fill="#021b79" d="M962,1661.34l-425.37,12.95c-50.45,1.54-91.59-38.46-91.59-89.35v-442.85c0-50.89,41.14-91.71,91.59-91.18
				l425.37,4.44c47.36,0.49,85.54,40.53,85.54,89.42v425.45C1047.53,1619.1,1009.36,1659.9,962,1661.34z" class="color030047 svgShape"></path><path fill="#021b79" d="M533.8,1678.37c-24.34,0-47.16-9.19-64.55-26.06c-18.22-17.67-28.25-41.6-28.25-67.38v-442.85
				c0-25.77,10.03-49.89,28.24-67.9c18.07-17.88,42.21-27.48,67.43-27.32l425.37,4.44c49.37,0.52,89.53,42.44,89.53,93.45v425.45
				c0,50.97-40.13,93.66-89.45,95.16l-425.37,12.95C535.77,1678.36,534.78,1678.37,533.8,1678.37z M535.66,1054.94
				c-22.9,0-44.44,8.85-60.74,24.99c-16.66,16.49-25.84,38.57-25.84,62.17v442.85c0,23.57,9.16,45.44,25.8,61.58
				c16.51,16.01,38.38,24.42,61.63,23.74l425.37-12.95c45-1.37,81.62-40.44,81.62-87.09v-425.45c0-46.61-36.58-84.91-81.54-85.38
				l-425.37-4.44C536.28,1054.94,535.97,1054.94,535.66,1054.94z M961.99,1661.34h0.05H961.99z" class="color030047 svgShape"></path><path fill="#3d9eff" d="M993.33,1659.92l-422.66,12.87c-50.12,1.53-91-38.35-91-89.07v-441.41c0-50.72,40.88-91.42,91-90.89
				l422.66,4.42c47.07,0.49,85,40.4,85,89.13v424.12C1078.34,1617.83,1040.4,1658.49,993.33,1659.92z" class="colorffcc3d svgShape"></path><path fill="#021b79" d="M567.87,1676.87c-24.14,0-46.79-9.13-64.06-25.88c-18.17-17.63-28.18-41.52-28.18-67.27v-441.41
				c0-25.75,10-49.82,28.17-67.8c17.7-17.52,41.08-27.14,65.9-27.14c0.34,0,0.67,0,1.01,0.01l422.66,4.41
				c49.07,0.52,89,42.31,89,93.17v424.12c0,50.82-39.89,93.38-88.92,94.87l-0.12-4.04l0.12,4.04l-422.66,12.87
				C569.82,1676.86,568.85,1676.87,567.87,1676.87z M569.71,1055.45c-22.69,0-44.04,8.79-60.22,24.8
				c-16.62,16.45-25.77,38.49-25.77,62.06v441.41c0,23.55,9.14,45.38,25.73,61.47c16.39,15.9,38.06,24.23,61.11,23.56l422.66-12.87
				c44.71-1.36,81.08-40.3,81.08-86.8v-424.12c0-46.45-36.34-84.63-81.01-85.1l-422.66-4.41
				C570.33,1055.45,570.02,1055.45,569.71,1055.45z" class="color030047 svgShape"></path><path fill="#021b79" d="M825.51,1414.85l31.62,63.64c5.07,10.2-2.2,22.51-13.43,22.73l-97.68,1.91
				c-11.39,0.22-18.79-11.91-13.63-22.39l32.02-65.05c-35.94-13.11-61.01-49.43-57.89-91.66c3.34-45.08,39.93-81.52,83.88-83.91
				c50.69-2.75,92.34,38.37,92.34,89.56C882.74,1368.4,858.99,1401.66,825.51,1414.85z" class="color030047 svgShape"></path><path fill="#0575e6" d="M930.63,1916.58l-298.71,30.14c-19.38,1.96-35.85-20.38-35.85-48.64v-107.64c0-26.51,14.57-48.17,32.8-48.74
				l298.71-9.42c18.8-0.59,34.26,21.4,34.26,48.74v86.92C961.84,1893.55,948.21,1914.8,930.63,1916.58z" class="color605efd svgShape"></path><polygon fill="#021b79" points="2114.93 2039.02 2126.04 1719.12 1643.98 1759.15 1607.28 2039.02" class="color030047 svgShape"></polygon><path fill="#ffffff" d="M1600.05,1301.98l-170.24,179.5l-330.16,24.82c0,0,44.67,151.83,46.73,155.64
				c1.55,2.85,213.9,8.42,320.22,11.02c37.5,0.92,73.47-14.89,98.15-43.14l211.52-242.12" class="colorffffff svgShape"></path><path fill="#021b79" d="M1469.73,1677.03c-1.07,0-2.15-0.01-3.23-0.04c-320.81-7.87-322.01-10.08-323.67-13.14
				c-2.1-3.89-36.55-120.71-47.06-156.42c-0.34-1.17-0.14-2.43,0.55-3.44c0.69-1,1.8-1.64,3.02-1.73l328.61-24.7l169.17-178.37
				c1.54-1.62,4.08-1.68,5.71-0.15c1.61,1.53,1.68,4.09,0.15,5.71l-170.24,179.5c-0.69,0.73-1.62,1.17-2.62,1.25l-325.19,24.44
				c16.52,56.1,40.08,135.45,44.48,148.55c16.13,2.05,133.23,5.91,317.29,10.42c36.41,1,71.04-14.32,95.01-41.76l211.52-242.12
				c1.46-1.68,4.02-1.85,5.69-0.38c1.68,1.47,1.85,4.02,0.38,5.7l-211.52,242.12C1542.95,1660.9,1507.36,1677.03,1469.73,1677.03z" class="color030047 svgShape"></path><path fill="#3d9eff" d="M1823.77,1323.51l-78.61,196.54l-97.76-109.49l-34.64-38.79l-50.68-52.27l101.15-90.9
				c19.68-16.22,45.34-23.3,70.58-19.38l48.69,7.54L1823.77,1323.51z" class="colorffcc3d svgShape"></path><path fill="#ffffff" d="M1668.38,1382.81c0,13.21-8.87,24.33-20.98,27.75l-34.64-38.79c4.3-10.51,14.66-17.89,26.69-17.89
				C1655.44,1353.88,1668.38,1366.82,1668.38,1382.81z" opacity=".4" class="colorffffff svgShape"></path><path fill="#021b79" d="M1745.15,1524.1c-1.13,0-2.21-0.47-2.98-1.31l-183.08-200.56c-0.73-0.8-1.1-1.85-1.05-2.92
				c0.05-1.08,0.53-2.08,1.34-2.8l101.15-90.9c1.65-1.49,4.21-1.36,5.7,0.3c1.49,1.66,1.36,4.21-0.3,5.7l-98.12,88.18l176,192.8
				l76.22-190.56c0.83-2.07,3.19-3.08,5.25-2.25c2.07,0.83,3.08,3.18,2.25,5.25l-78.61,196.54c-0.52,1.29-1.66,2.23-3.03,2.47
				C1745.64,1524.08,1745.39,1524.1,1745.15,1524.1z" class="color030047 svgShape"></path><path fill="#3d9eff" d="M1757.06,1213.86l312.85,10.12c44.39,1.44,81.04,40.67,79.04,84.6l-23.15,547.51h-513.04L1757.06,1213.86z" class="colorffcc3d svgShape"></path><circle cx="1995.74" cy="1638" r="37.23" fill="#ffffff" opacity=".4" class="colorffffff svgShape"></circle><path fill="#021b79" d="M1612.77,1860.13c-0.29,0-0.59-0.03-0.89-0.1c-2.18-0.49-3.54-2.65-3.05-4.83l120.64-536.92
				c0.48-2.18,2.69-3.54,4.82-3.05c2.18,0.49,3.54,2.65,3.05,4.83l-120.64,536.92C1616.28,1858.86,1614.61,1860.13,1612.77,1860.13z
				" class="color030047 svgShape"></path><circle cx="1818.47" cy="1363.14" r="12.32" fill="#ffffff" opacity=".4" class="colorffffff svgShape"></circle><circle cx="1898.33" cy="1434.49" r="16.27" fill="#ffffff" opacity=".4" class="colorffffff svgShape"></circle><circle cx="2091.23" cy="1748.61" r="16.27" fill="#ffffff" opacity=".4" class="colorffffff svgShape"></circle><circle cx="1847.72" cy="1781.68" r="49.33" fill="#ffffff" opacity=".4" class="colorffffff svgShape"></circle><circle cx="1758.59" cy="1434.49" r="22.28" fill="#ffffff" opacity=".4" class="colorffffff svgShape"></circle><circle cx="1839.81" cy="1513.55" r="22.28" fill="#ffffff" opacity=".4" class="colorffffff svgShape"></circle><circle cx="1668.38" cy="1283.6" r="11.57" fill="#ffffff" opacity=".4" class="colorffffff svgShape"></circle><circle cx="1692.93" cy="1337.26" r="11.47" fill="#ffffff" opacity=".4" class="colorffffff svgShape"></circle><circle cx="1987.74" cy="1530.33" r="16.78" fill="#ffffff" opacity=".4" class="colorffffff svgShape"></circle><circle cx="1736.59" cy="1692.02" r="16.78" fill="#ffffff" opacity=".4" class="colorffffff svgShape"></circle><circle cx="1842.59" cy="1642.54" r="24.12" fill="#ffffff" opacity=".4" class="colorffffff svgShape"></circle><circle cx="1800.38" cy="1283.19" r="18.09" fill="#ffffff" opacity=".4" class="colorffffff svgShape"></circle><circle cx="1909.51" cy="1319.17" r="18.09" fill="#ffffff" opacity=".4" class="colorffffff svgShape"></circle><path fill="#0575e6" d="M1490.94,1753.33l-63.77,75.25l-523.28-443.46c-2.08-1.76-2.34-4.88-0.57-6.96l57.39-67.72
				c1.76-2.08,4.88-2.34,6.96-0.57L1490.94,1753.33z" class="color605efd svgShape"></path><path fill="#0575e6" d="M1683.76,1734.71c-79.32-67.23-198.05-57.42-265.28,21.9c-67.16,79.28-57.35,198.01,21.91,265.23
				c79.33,67.18,198.07,57.37,265.23-21.91C1772.83,1920.66,1763.03,1801.87,1683.76,1734.71z M1668.28,1968.29
				c-17.38,20.57-48.18,23.08-68.74,5.7c-20.55-17.43-23.07-48.23-5.69-68.79c17.43-20.55,48.23-23.07,68.78-5.64
				C1683.2,1916.94,1685.71,1947.74,1668.28,1968.29z" class="color605efd svgShape"></path><rect width="86.75" height="84.25" x="904.22" y="1400.83" fill="#0575e6" transform="rotate(-49.722 947.542 1442.95)" class="color605efd svgShape"></rect><rect width="73.19" height="55.6" x="991.93" y="1473.53" fill="#0575e6" transform="rotate(-49.722 1028.473 1501.326)" class="color605efd svgShape"></rect><path fill="#ffffff" d="M1421.44,1794.16c0,0-19.06,8.37-13.2,23.2c5.86,14.8,25.49,20.59,58.3,21.91
				c32.82,1.36,143.41-45.3,143.41-45.3l408.94-37.95c42.95-6.24,78.64-36.42,91.84-77.82l92.01-288.33l-183.83-64.18l-80.98,223.81
				l-378.61,86.93l0.14,0.52c-13.5,0.21-51.05,0.79-59.09,0.67c-16.77-0.21-46.98-0.83-52.1,11.58
				c-4.67,11.32,12.49,25.17,12.49,25.17l-44.44-6.16c-18.98-2.6-28.8,22.41-12.83,33c0.27,0.18,0.58,0.35,0.85,0.56
				c0,0-18.72,3.41-18.67,20.93c0.01,17.57,25.93,23.72,25.93,23.72s-21.2,2.61-19.56,19.96
				C1393.64,1783.75,1421.44,1794.16,1421.44,1794.16z" class="colorffffff svgShape"></path><path fill="#021b79" d="M1467.94,1843.34c-0.54,0-1.06-0.01-1.56-0.03c-37.19-1.5-55.7-8.81-61.89-24.46
				c-4.22-10.68,1.75-19.09,8.33-24.18c-9.06-4.67-23.54-14.19-24.8-27.89c-0.99-10.46,4.85-16.92,11.49-20.56
				c-8.19-4.05-17.86-11.4-17.87-23.49c-0.03-12.07,7.64-19.06,14.76-22.49c-4.93-5.91-6.35-14-3.44-21.68
				c3.15-8.33,11.71-16,23.93-14.34l32.85,4.55c-4.43-5.75-8.29-13.55-5.18-21.1c5.6-13.56,30.2-14.39,54.91-14.09l0.97,0.01
				c7.63,0.11,42.55-0.42,56.86-0.64c0.35-0.2,0.73-0.36,1.14-0.45l376.47-86.44l80.23-221.74c0.75-2.08,3.03-3.17,5.13-2.44
				l183.83,64.18c2.07,0.72,3.18,2.95,2.52,5.04l-92.01,288.33c-13.57,42.53-50.9,74.16-95.11,80.59l-408.53,37.92
				C1601.47,1801.91,1501.99,1843.33,1467.94,1843.34z M1413.58,1672.07c-7,0-11.38,4.85-13.08,9.34
				c-1.81,4.79-1.52,11.98,5.23,16.45c0.48,0.3,0.81,0.52,1.13,0.77c1.24,0.99,1.78,2.61,1.4,4.14c-0.39,1.54-1.64,2.7-3.2,2.99
				c-0.61,0.12-15.39,3.08-15.35,16.95c0.01,14.16,22.6,19.75,22.83,19.81c1.9,0.45,3.2,2.21,3.09,4.16
				c-0.11,1.95-1.59,3.54-3.53,3.78c-0.69,0.09-17.29,2.38-16.04,15.57c1.12,12.17,19.73,21.71,26.8,24.35
				c1.54,0.58,2.57,2.02,2.62,3.66c0.05,1.64-0.9,3.15-2.4,3.81c-0.63,0.28-15.43,7.01-11.08,18.03
				c4.77,12.06,21.65,18.03,54.71,19.36c31.49,1.27,140.58-44.52,141.67-44.98c0.38-0.16,0.79-0.26,1.2-0.3l408.94-37.95
				c40.97-5.96,75.73-35.42,88.37-75.03l90.82-284.58l-176.35-61.57l-79.62,220.06c-0.47,1.29-1.56,2.25-2.89,2.56l-376.62,86.47
				c-0.73,0.67-1.68,1.06-2.69,1.08c-12.63,0.2-51.07,0.78-59.21,0.67l-0.96-0.01c-14.07-0.17-43.36-0.54-47.35,9.1
				c-2.87,6.96,7.45,17.38,11.29,20.48c1.41,1.14,1.89,3.08,1.17,4.74c-0.71,1.67-2.46,2.65-4.26,2.39l-44.44-6.16
				C1415.01,1672.12,1414.28,1672.07,1413.58,1672.07z" class="color030047 svgShape"></path><path fill="#3d9eff" d="M2215.68,1345.33c0,13.15-2.1,26.46-6.45,39.4l-42.52,134.13l-25.51-13.39l-86.48-45.48l-107.18-56.32
				l94.53-180.59l45.77-1.48c27.65-0.9,54.8,7.48,77.15,23.83C2197.49,1269.21,2215.68,1306.63,2215.68,1345.33z" class="colorffcc3d svgShape"></path><path fill="#ffffff" d="M2160.27,1464.76c0,16.35-7.39,30.98-19.06,40.71l-86.48-45.48c2.38-26.99,25.02-48.15,52.63-48.15
				C2136.6,1411.84,2160.27,1435.55,2160.27,1464.76z" opacity=".4" class="colorffffff svgShape"></path><path fill="#021b79" d="M2166.7,1522.89c-0.65,0-1.29-0.16-1.88-0.46l-219.13-115.19c-1.97-1.04-2.73-3.48-1.7-5.45l68.9-131.63
				c1.04-1.97,3.46-2.74,5.45-1.71c1.98,1.04,2.74,3.48,1.7,5.45l-67.03,128.06l211.31,111.08l39.93-124.93
				c0.68-2.12,2.95-3.3,5.08-2.62c2.12,0.68,3.3,2.95,2.62,5.08l-41.4,129.51c-0.37,1.14-1.21,2.05-2.32,2.51
				C2167.74,1522.79,2167.22,1522.89,2166.7,1522.89z" class="color030047 svgShape"></path><circle cx="2113.68" cy="1310.69" r="12.36" fill="#ffffff" opacity=".4" class="colorffffff svgShape"></circle><circle cx="2011.71" cy="1363.14" r="15.97" fill="#ffffff" opacity=".4" class="colorffffff svgShape"></circle><line x1="1404.36" x2="1441.39" y1="1701.78" y2="1709.99" fill="#fff"></line><path fill="#021b79" d="M1441.39,1714.03c-0.29,0-0.58-0.03-0.88-0.09l-37.03-8.21c-2.18-0.48-3.55-2.64-3.07-4.82
				c0.49-2.18,2.63-3.53,4.82-3.07l37.03,8.21c2.18,0.48,3.55,2.64,3.07,4.82C1444.91,1712.75,1443.24,1714.03,1441.39,1714.03z" class="color030047 svgShape"></path><line x1="1411.59" x2="1441.74" y1="1746.46" y2="1749.92" fill="#fff"></line><path fill="#021b79" d="M1441.75,1753.95c-0.15,0-0.31-0.01-0.46-0.03l-30.15-3.45c-2.22-0.26-3.81-2.26-3.55-4.47
				c0.25-2.21,2.28-3.83,4.47-3.55l30.15,3.45c2.22,0.26,3.81,2.26,3.55,4.47C1445.52,1752.43,1443.77,1753.95,1441.75,1753.95z" class="color030047 svgShape"></path><line x1="1419.96" x2="1443.57" y1="1794.88" y2="1798.71" fill="#fff"></line><path fill="#021b79" d="M1443.58,1802.75c-0.22,0-0.43-0.02-0.65-0.05l-23.61-3.83c-2.2-0.36-3.7-2.43-3.34-4.63
				c0.36-2.2,2.42-3.71,4.63-3.34l23.61,3.83c2.2,0.36,3.7,2.43,3.34,4.63C1447.24,1801.34,1445.52,1802.75,1443.58,1802.75z" class="color030047 svgShape"></path><line x1="1460.79" x2="1491.46" y1="1674.37" y2="1680.02" fill="#fff"></line><path fill="#021b79" d="M1491.47,1684.06c-0.24,0-0.49-0.02-0.74-0.07l-30.68-5.65c-2.19-0.4-3.64-2.51-3.24-4.7
				c0.4-2.19,2.49-3.64,4.7-3.24l30.68,5.65c2.19,0.4,3.64,2.51,3.24,4.7C1495.07,1682.7,1493.38,1684.06,1491.47,1684.06z" class="color030047 svgShape"></path><circle cx="1833.23" cy="862.23" r="62.53" fill="#021b79" class="color030047 svgShape"></circle><path fill="#ffffff" d="M1839.81,1221.11l7.06-93.95l135.71-28.28l5.16,121.49c0,0-34.58,54.78-97.44,51.23
				C1839.76,1268.75,1839.81,1221.11,1839.81,1221.11z" class="colorffffff svgShape"></path><path fill="#021b79" d="M1896.23,1275.81c-2.02,0-4.07-0.06-6.16-0.17c-53.73-3.03-54.3-54.02-54.3-54.53c0-0.1,0.01-0.2,0.01-0.3
				l7.06-93.95c0.14-1.8,1.44-3.28,3.2-3.65l135.71-28.28c1.16-0.24,2.37,0.04,3.31,0.77s1.5,1.83,1.55,3.02l5.16,121.49
				c0.04,0.82-0.18,1.63-0.62,2.33C1989.74,1224.77,1956.81,1275.81,1896.23,1275.81z M1843.84,1221.24
				c0.05,3.18,1.51,43.78,46.68,46.33c55.23,3.16,88.09-41.06,93.12-48.35l-4.91-115.42l-128.08,26.69L1843.84,1221.24z" class="color030047 svgShape"></path><path fill="#ffffff" d="M1984.2,1118.6c73.19-60.2,74.22-174.82,74.22-174.82l-180.27-106.01c-3.95,2.43-84.06,51.24-112.53,167.58
				c-23.46,95.85,62.25,163.31,166.96,140.28" class="colorffffff svgShape"></path><path fill="#021b79" d="M1891.77,1154.21c-40.77,0-77.47-13.82-102.7-39.65c-28.02-28.68-37.73-67.81-27.36-110.17
				c27.96-114.22,105.54-164.66,114.29-170.04c1.29-0.78,2.93-0.82,4.21-0.07l180.27,106.01c1.25,0.73,2,2.07,1.99,3.52
				c-0.04,4.76-1.89,117.21-75.69,177.91c-1.71,1.41-4.26,1.17-5.68-0.55c-1.42-1.72-1.17-4.27,0.55-5.68
				c65.2-53.63,71.99-153.05,72.67-169.44L1878.23,842.5c-14.73,9.59-83.02,58.94-108.69,163.81c-9.68,39.55-0.7,75.99,25.3,102.61
				c31.65,32.41,82.81,44.66,136.87,32.77c2.17-0.49,4.33,0.9,4.81,3.08c0.48,2.18-0.9,4.33-3.08,4.81
				C1919.29,1152.69,1905.3,1154.21,1891.77,1154.21z" class="color030047 svgShape"></path><ellipse cx="1829.4" cy="965.51" fill="#021b79" rx="13.18" ry="8.84" transform="rotate(-64.286 1829.309 965.482)" class="color030047 svgShape"></ellipse><path fill="#ffffff" d="M1827.98,938.24c9.28-1.38,18.77,3.51,24.06,12.42" class="colorffffff svgShape"></path><path fill="#021b79" d="M1852.05 954.7c-1.38 0-2.72-.7-3.48-1.97-4.47-7.51-12.3-11.64-20-10.49-2.15.34-4.26-1.19-4.59-3.4-.33-2.21 1.2-4.26 3.4-4.59 10.96-1.62 21.98 4.01 28.13 14.34 1.14 1.92.51 4.4-1.4 5.54C1853.47 954.51 1852.75 954.7 1852.05 954.7zM2053.45 835.65c19.2 24.15-10.4 54.17-10.4 54.17s42.22-5.3 61.43 43.43-59.45 112.11-59.45 112.11l-43.1-30.45c0 0-2.18 8.38-13.94-3.85 0 0-30.8-62.73-.51-82.04 0 0-182.61-1.28-166.3-136.33C1833.91 687.08 2021.91 795.97 2053.45 835.65z" class="color030047 svgShape"></path><ellipse cx="1899.99" cy="1008.9" fill="#021b79" rx="13.18" ry="8.84" transform="rotate(-73.298 1899.963 1008.924)" class="color030047 svgShape"></ellipse><path fill="#ffffff" d="M1897.74,981.69c9.24-1.66,18.86,2.94,24.43,11.68" class="colorffffff svgShape"></path><path fill="#021b79" d="M1922.17,997.4c-1.34,0-2.64-0.66-3.41-1.87c-4.69-7.37-12.67-11.24-20.31-9.87
				c-2.21,0.38-4.29-1.06-4.69-3.26c-0.39-2.19,1.07-4.3,3.26-4.69c10.85-1.96,22.08,3.33,28.55,13.48c1.2,1.88,0.64,4.38-1.24,5.57
				C1923.67,997.19,1922.92,997.4,1922.17,997.4z" class="color030047 svgShape"></path><path fill="#ffffff" d="M1999.63,1015.64c0,0,48.82-30.07,69.06-17.01s-6.59,88.96-34.56,90.03c-27.97,1.07-46.62-14.34-46.62-14.34
				" class="colorffffff svgShape"></path><path fill="#021b79" d="M2031.32,1092.74c-27.52,0-45.6-14.67-46.39-15.31c-1.72-1.42-1.96-3.95-0.55-5.68
				c1.41-1.71,3.95-1.97,5.68-0.55c0.18,0.14,17.89,14.46,43.91,13.42c13.78-0.53,28.46-24.36,34.69-47.1
				c4.75-17.33,3.88-31.6-2.17-35.5c-14.84-9.56-51.77,9.07-64.76,17.06c-1.91,1.17-4.39,0.58-5.56-1.32
				c-1.17-1.9-0.58-4.38,1.32-5.55c5.22-3.21,51.62-30.99,73.37-16.97c9.45,6.1,11.53,22.7,5.58,44.42
				c-7.08,25.82-23.83,52.33-42.17,53.03C2033.29,1092.72,2032.3,1092.74,2031.32,1092.74z" class="color030047 svgShape"></path><path fill="#021b79" d="M2046.89,1051.16c-0.79,0-1.58-0.23-2.28-0.71c-1.84-1.26-2.3-3.78-1.04-5.61
				c3.51-5.1,5.71-11.05,6.36-17.21c0.1-0.94,0.17-2.01-0.04-2.72c-0.3-0.39-1.19-0.12-1.58,0l-20.17,6.09
				c-2.15,0.65-4.4-0.57-5.03-2.7c-0.65-2.13,0.56-4.39,2.7-5.03l20.17-6.09c1.44-0.44,3.63-1.1,6.04-0.42
				c2.62,0.74,4.72,2.9,5.59,5.78c0.65,2.1,0.54,4.17,0.36,5.93c-0.79,7.5-3.47,14.74-7.74,20.94
				C2049.44,1050.55,2048.17,1051.16,2046.89,1051.16z" class="color030047 svgShape"></path><path fill="#ffffff" d="M1856.11,993.37c-6.76,8.05-13.53,16.09-20.29,24.14c-4.08,4.85-8.26,9.92-9.34,15.99
				c-1.08,6.07,1.89,13.44,8.69,16.42" class="colorffffff svgShape"></path><path fill="#021b79" d="M1835.16 1053.95c-.54 0-1.09-.11-1.62-.34-8.98-3.94-12.35-13.46-11.04-20.83 1.29-7.24 6.04-12.89 10.23-17.87l20.29-24.14c1.44-1.71 3.98-1.93 5.69-.49 1.71 1.44 1.93 3.98.49 5.69l-20.29 24.14c-3.54 4.21-7.55 8.98-8.46 14.09-.74 4.15 1.22 9.78 6.34 12.02 2.04.9 2.97 3.28 2.07 5.32C1838.19 1053.05 1836.71 1053.95 1835.16 1053.95zM1861.01 1096.37c-7.6 0-15.17-2.21-21.58-6.4-1.87-1.22-2.39-3.72-1.17-5.59 1.22-1.87 3.72-2.39 5.59-1.17 6.82 4.47 15.31 6.09 23.31 4.46 7.99-1.64 15.16-6.47 19.68-13.26 1.22-1.85 3.75-2.36 5.59-1.13 1.86 1.24 2.36 3.74 1.13 5.6-5.69 8.55-14.72 14.64-24.78 16.7C1866.22 1096.11 1863.61 1096.37 1861.01 1096.37z" class="color030047 svgShape"></path><path fill="#ffffff" d="M1094.15,1617.29c12.97,22.65,30.36,53.3,69.98,59.39c30.36,4.66,78.03-37.93,31.48-64.23
				c0,0,7.04-12.86-3.36-28.35c-10.4-15.49-19.51-9.66-19.51-9.66s12.6-18.23,0.77-30.09c-11.83-11.86-22.92-7.36-22.92-7.36
				s14.85-10.34-2.87-30.06s-63.44,18.28-70.56,27.71C1060.78,1556.32,1083.55,1598.77,1094.15,1617.29z" class="colorffffff svgShape"></path><path fill="#021b79" d="M1168.86,1681.06c-1.82,0-3.61-0.13-5.35-0.4c-41.38-6.35-59.48-37.99-72.7-61.09l-0.16-0.28
				c-23.93-41.81-29.39-70.3-16.71-87.09c6.49-8.59,36.83-33.94,58.93-34.88c7.46-0.3,13.45,2.01,17.85,6.9
				c7.21,8.03,10.44,15.79,9.6,23.07c-0.22,1.87-0.69,3.54-1.3,5.01c4.89,0.62,11.08,2.91,17.34,9.19
				c9.06,9.08,6.55,20.76,3.46,28.13c4.49,0.79,10.14,3.82,15.78,12.22c8.33,12.41,6.72,23.42,5.02,28.89
				c21.23,13.42,19.76,29.19,16.84,37.62C1211.3,1666.15,1188.4,1681.06,1168.86,1681.06z M1097.66,1615.29
				c0.01,0.01,0.16,0.28,0.16,0.28c13.1,22.88,29.4,51.36,66.93,57.12c16.82,2.57,39.56-11.03,45.08-26.98
				c3.91-11.27-1.7-21.56-16.21-29.75c-1.92-1.09-2.61-3.51-1.56-5.45c0.22-0.42,5.64-11.04-3.17-24.16
				c-7.96-11.87-13.93-8.55-13.98-8.51c-1.61,1.03-3.73,0.79-5.07-0.59c-1.34-1.38-1.51-3.51-0.43-5.1
				c0.11-0.16,10.53-15.64,1.24-24.95c-9.64-9.66-18.23-6.58-18.58-6.45c-1.91,0.72-4.07-0.09-5.02-1.89
				c-0.95-1.8-0.43-4.02,1.24-5.18c0.11-0.08,3.53-2.63,4.04-7.43c0.5-4.78-2.13-10.53-7.6-16.62c-2.75-3.06-6.46-4.43-11.51-4.23
				c-18.95,0.81-47.3,24.35-52.83,31.68C1070,1550.81,1075.81,1577.13,1097.66,1615.29L1097.66,1615.29z" class="color030047 svgShape"></path><g fill="#000000" class="color000000 svgShape"><line x1="1195.6" x2="1161.45" y1="1612.44" y2="1630.72" fill="#fff"></line><path fill="#021b79" d="M1161.45,1634.76c-1.44,0-2.84-0.77-3.56-2.13c-1.05-1.97-0.31-4.41,1.66-5.46l34.15-18.28
				c1.96-1.06,4.41-0.31,5.46,1.65c1.05,1.97,0.31,4.41-1.66,5.46l-34.15,18.28C1162.75,1634.6,1162.1,1634.76,1161.45,1634.76z" class="color030047 svgShape"></path></g><g fill="#000000" class="color000000 svgShape"><line x1="1172.73" x2="1127.49" y1="1574.43" y2="1598.63" fill="#fff"></line><path fill="#021b79" d="M1127.49,1602.67c-1.45,0-2.84-0.77-3.56-2.13c-1.05-1.97-0.31-4.41,1.66-5.47l45.24-24.21
				c1.98-1.06,4.42-0.31,5.46,1.65c1.05,1.97,0.31,4.41-1.66,5.47l-45.24,24.21C1128.79,1602.52,1128.13,1602.67,1127.49,1602.67z" class="color030047 svgShape"></path></g><g fill="#000000" class="color000000 svgShape"><line x1="1150.58" x2="1106.98" y1="1536.98" y2="1560.31" fill="#fff"></line><path fill="#021b79" d="M1106.99,1564.35c-1.44,0-2.84-0.77-3.56-2.13c-1.05-1.97-0.31-4.41,1.66-5.47l43.6-23.33
				c1.98-1.06,4.42-0.31,5.46,1.65c1.05,1.97,0.31,4.41-1.66,5.47l-43.6,23.33C1108.28,1564.19,1107.63,1564.35,1106.99,1564.35z" class="color030047 svgShape"></path></g><g fill="#000000" class="color000000 svgShape"><path fill="#0575e6" d="M1708.81,520.52l18.43,287.56c1.65,25.67-18.57,47.86-45.15,49.56L1442.39,873l-45.25,49.71
				c-13.67,14.95-37.25,16.51-52.66,3.37l-51.27-43.53l-239.74,15.36c-26.54,1.7-49.41-17.72-51.06-43.4l-18.43-287.56
				c-1.65-25.67,18.57-47.86,45.1-49.56l628.62-40.28C1684.29,475.43,1707.16,494.85,1708.81,520.52z" class="color605efd svgShape"></path></g><g fill="#000000" class="color000000 svgShape"><path fill="#ffffff" d="M1077.72 678.63c-1.8.03-3.78-2.47-5.93-7.49-1.42-3.23-2.7-6.99-3.84-11.26-1.66.42-4.4.9-8.2 1.46-3.58.54-6.3 1.08-8.19 1.63-.85 3.16-2.37 7.92-4.56 14.3-.88 2.08-2.2 3.18-3.97 3.3-1.25.08-2.41-.37-3.48-1.36-1.07-.99-1.66-2.3-1.77-3.93-.09-1.43 1.26-6.4 4.05-14.9-.38-.85-.56-1.66-.56-2.42 0-1.36 1.04-2.48 3.1-3.38 2.79-7.12 5.93-14.51 9.41-22.18 5.01-11.01 8.16-16.56 9.48-16.64 2.5-.16 4.3 1.6 5.38 5.28.65 2.98 1.66 7.44 3.01 13.39 1.91 8 4.2 17.15 6.87 27.44.21.78.9 2.6 2.09 5.45.98 2.36 1.5 4.15 1.58 5.35.1 1.63-.3 3.03-1.22 4.18C1080.06 678.01 1078.97 678.6 1077.72 678.63zM1062.22 636.21c-1.54 3.88-3.65 9.16-6.35 15.85 1-.35 2.59-.67 4.74-.98 2.53-.36 4.12-.62 4.78-.77C1064.61 646.69 1063.55 641.99 1062.22 636.21zM1120.69 629.54c-2.05.13-3.65-1.11-4.79-3.71-.54-1.24-1.04-1.96-1.51-2.19-.35-.18-1.26-.22-2.71-.12-2.87.18-6 3.15-9.4 8.9-4.77 8.04-6.93 15.41-6.5 22.12.19 3.06 1.19 5.63 2.99 7.72 1.81 2.09 3.86 3.05 6.19 2.9 2.25-.14 4.49-1.02 6.71-2.63.79-.59 2.43-2.08 4.93-4.46 1.68-1.58 2.98-2.39 3.89-2.45 1.37-.09 2.57.45 3.6 1.63.96 1.1 1.49 2.39 1.59 3.88.11 1.66-.39 3.14-1.5 4.46-5.83 6.92-12 10.59-18.48 11-5.12.33-9.59-1.7-13.41-6.08-3.65-4.22-5.67-9.34-6.06-15.35-.6-9.41 2.11-19.23 8.15-29.47 5.13-8.67 10.66-13.2 16.57-13.58 1-.06 1.91-.08 2.72-.05.81.03 1.54.11 2.16.24.92-1.27 2.09-1.95 3.5-2.04 2.32-.15 3.86 1.4 4.62 4.65.54 2.34.9 5.08 1.11 8.23.09 1.4-.16 2.7-.75 3.9C1123.54 628.6 1122.33 629.44 1120.69 629.54zM1163.72 626.79c-2.05.13-3.65-1.11-4.79-3.71-.54-1.24-1.04-1.96-1.51-2.19-.35-.17-1.26-.21-2.71-.12-2.86.18-6 3.15-9.4 8.9-4.77 8.04-6.93 15.41-6.5 22.12.19 3.06 1.19 5.63 2.99 7.72 1.81 2.08 3.86 3.05 6.19 2.9 2.25-.14 4.49-1.02 6.71-2.63.79-.59 2.43-2.07 4.93-4.46 1.68-1.58 2.98-2.39 3.89-2.45 1.37-.09 2.57.45 3.6 1.63.96 1.1 1.49 2.39 1.59 3.88.11 1.66-.39 3.15-1.5 4.46-5.84 6.92-12 10.59-18.48 11-5.12.33-9.59-1.7-13.41-6.08-3.65-4.22-5.67-9.34-6.06-15.35-.6-9.41 2.11-19.23 8.15-29.47 5.13-8.67 10.66-13.2 16.57-13.58 1-.06 1.91-.08 2.72-.05.81.03 1.54.11 2.17.24.91-1.27 2.09-1.95 3.5-2.04 2.32-.15 3.86 1.4 4.62 4.65.54 2.34.9 5.08 1.11 8.23.09 1.4-.16 2.7-.74 3.9C1166.57 625.84 1165.36 626.68 1163.72 626.79zM1206.34 614.87c-.46.03-.94-.02-1.46-.16-3.76-1-7.38-1.39-10.87-1.16-1.7.11-3.53.39-5.46.86-1.93.46-3.99 1.1-6.14 1.92.24 3.74.49 9.29.75 16.66 1.27-.19 5.68-1 13.24-2.42 4.32-.81 7.06-1.25 8.21-1.33 1.35-.09 2.52.37 3.55 1.36 1.03.99 1.59 2.36 1.7 4.1.22 3.34-1.1 5.33-3.97 5.96-1.81.29-4.51.74-8.1 1.37-3.21.66-8.04 1.52-14.5 2.58.07 3.58.17 6.46.32 8.65.35 5.51.81 8.62 1.38 9.35.28.35 1.72.44 4.34.27 1.41-.09 3.54-.27 6.38-.54 2.83-.27 4.96-.44 6.37-.53.45-.03 1.12-.16 1.99-.38.88-.22 1.54-.35 1.97-.38 1.32-.09 2.48.31 3.47 1.17 1.14.97 1.76 2.4 1.88 4.28.21 3.14-1 5.11-3.63 5.9-2.23.68-6.94 1.25-14.11 1.71-7.42.48-12.33-.45-14.75-2.78-2.66-2.57-4.27-8.39-4.85-17.46-.24-3.76-.38-9.43-.42-17-.04-7.57-.18-13.22-.42-16.96-.06-.98-.27-2.43-.62-4.34-.35-1.91-.55-3.36-.62-4.34-.27-4.27 1.18-6.51 4.37-6.71.99-.06 1.94.23 2.83.87 2.59-.98 5.06-1.75 7.41-2.32 2.35-.56 4.58-.9 6.7-1.04 5.74-.37 10.37.15 13.91 1.56 2.16.85 3.31 2.57 3.48 5.15.09 1.46-.23 2.78-.98 3.96C1208.87 614.06 1207.75 614.78 1206.34 614.87zM1235.04 669.86c-5.77.37-10.43-.93-13.95-3.89-2.97-2.46-4.56-5.42-4.78-8.88-.12-1.77.23-3.27 1.01-4.49.79-1.22 1.95-1.88 3.47-1.98 2.06-.13 3.64 1.06 4.76 3.59 1.51 3.37 4.56 4.91 9.13 4.62 3.92-.25 7.63-1.55 11.17-3.89 3.65-2.41 5.41-4.9 5.25-7.49-.23-3.54-1.57-5.8-4-6.77-1.73-.7-5.15-.96-10.23-.78-3.94.14-7.52-.55-10.75-2.06-4.36-2.06-6.64-5.27-6.85-9.63-.28-5.48 1.76-10.66 6.13-15.52 4.37-4.87 9.36-7.48 14.99-7.84 2.23-.14 5.02.31 8.38 1.37 4.17 1.31 6.32 3 6.45 5.05.09 1.46-.24 2.78-.98 3.95-.83 1.33-1.97 2.03-3.4 2.12-1.07.07-2.68-.11-4.85-.53-2.16-.43-3.79-.61-4.88-.54-2.93.22-5.67 1.27-8.2 3.15-2.62 1.92-3.86 3.9-3.73 5.95.07 1.07.54 1.92 1.41 2.56.87.63 2.15 1.04 3.83 1.21 2.92.01 5.84.02 8.74.03 5.08.16 9.19 1.65 12.32 4.5 3.44 3.16 5.36 7.73 5.75 13.68.46 7.25-2.53 12.95-8.98 17.12C1247.33 667.65 1241.59 669.44 1235.04 669.86zM1283.3 666.77c-5.78.37-10.43-.93-13.96-3.89-2.97-2.46-4.56-5.42-4.78-8.88-.12-1.77.22-3.27 1.01-4.49.79-1.22 1.95-1.88 3.48-1.97 2.05-.13 3.63 1.06 4.75 3.59 1.51 3.37 4.56 4.91 9.13 4.62 3.92-.25 7.63-1.55 11.17-3.89 3.66-2.41 5.41-4.9 5.25-7.49-.23-3.54-1.57-5.8-4-6.77-1.73-.7-5.15-.97-10.23-.78-3.94.14-7.52-.54-10.75-2.06-4.36-2.06-6.64-5.27-6.85-9.63-.28-5.48 1.76-10.66 6.13-15.52 4.37-4.87 9.36-7.48 14.99-7.84 2.23-.14 5.02.32 8.38 1.37 4.17 1.31 6.32 2.99 6.45 5.04.09 1.46-.24 2.78-.98 3.95-.83 1.32-1.96 2.03-3.4 2.12-1.07.07-2.68-.11-4.85-.53-2.16-.43-3.79-.61-4.88-.54-2.93.22-5.67 1.27-8.2 3.15-2.62 1.92-3.86 3.9-3.73 5.95.07 1.07.54 1.92 1.41 2.55.87.63 2.15 1.04 3.83 1.21 2.92.01 5.84.02 8.74.03 5.08.15 9.19 1.65 12.32 4.5 3.44 3.16 5.36 7.72 5.75 13.68.46 7.25-2.53 12.95-8.98 17.12C1295.58 664.55 1289.85 666.35 1283.3 666.77zM1385.97 632.73c-1.01 8.47-3.7 15.37-8.07 20.7-4.43 5.36-9.84 8.25-16.23 8.66-6.05.39-10.72-1.3-14-5.05-3.28-3.75-5.17-9.58-5.67-17.47-.46-7.19.49-14.66 2.88-22.4 2.39-7.74 5.68-14.1 9.88-19.08 2.95-3.49 6.24-5.35 9.85-5.58 2.21-.14 5.27.65 9.2 2.37 4.65 2.05 7.07 4.39 7.23 7.03.09 1.52-.28 2.9-1.14 4.15-.86 1.26-1.97 1.93-3.33 2.01-.68.04-2.24-.65-4.67-2.09-2.44-1.44-4.62-2.1-6.56-1.97-2.05.13-4.63 3.03-7.77 8.7-4.57 8.25-6.56 16.99-5.96 26.24.3 4.69 1.06 7.84 2.29 9.46 1.29 1.69 3.64 2.43 7.03 2.22 3.49-.22 6.46-1.64 8.94-4.26 2.63-2.76 4.46-6.66 5.49-11.69-5.24.84-9.75 2.47-13.53 4.89-.68.44-1.37.68-2.08.73-1.41.09-2.62-.48-3.63-1.71-.92-1.1-1.42-2.38-1.52-3.84-.27-4.3 3.65-7.57 11.78-9.81 4.57-1.25 9.96-2.08 16.16-2.47 1.36-.09 2.54.39 3.54 1.43.98 1.03 1.53 2.35 1.64 3.96C1387.84 629.88 1387.26 631.52 1385.97 632.73zM1427.74 655.44c-1.22.08-2.39-.44-3.49-1.55-7.41-7.54-15.34-12.59-23.8-15.15.78 8.16 1.19 12.69 1.25 13.59.11 1.6-.27 2.99-1.1 4.15-.85 1.17-1.95 1.8-3.31 1.88-1.36.09-2.54-.39-3.52-1.45-.98-1.05-1.52-2.38-1.63-3.98-.14-2.11-.31-5.26-.54-9.46-.22-4.2-.4-7.36-.54-9.47l-2.11-34.01c-.12-1.83.23-3.51 1.01-5.06 1.04-1.98 2.59-2.95 4.65-2.88 5.56.15 8.42.24 8.55.25 3.22.27 5.98 1.04 8.3 2.3 10.1 5.42 15.44 12.59 16.01 21.53.24 3.68-.57 7-2.43 9.95-1.86 2.95-4.76 5.53-8.7 7.73 6.3 3.77 11.1 7.72 14.43 11.85.87 1.08 1.35 2.3 1.44 3.67.1 1.57-.29 2.96-1.17 4.16C1430.17 654.71 1429.07 655.35 1427.74 655.44zM1402.48 603.83c-.18-.01-1.53-.04-4.02-.08l1.44 22.38c.57-.01 1.07-.03 1.5-.06 5.57-.36 9.65-1.48 12.22-3.36 1.11-.81 2.11-1.84 3-3.11.89-1.27 1.32-2.21 1.28-2.83-.2-3.14-2.01-6.08-5.43-8.79C1409.22 605.41 1405.89 604.03 1402.48 603.83zM1476.56 653.07c-1.8.03-3.78-2.47-5.93-7.49-1.41-3.23-2.7-6.99-3.84-11.26-1.66.42-4.4.9-8.2 1.45-3.58.54-6.3 1.08-8.19 1.63-.85 3.16-2.37 7.92-4.56 14.3-.88 2.09-2.2 3.18-3.97 3.3-1.25.08-2.41-.37-3.48-1.36-1.07-.99-1.66-2.3-1.77-3.93-.09-1.43 1.26-6.4 4.06-14.9-.38-.85-.57-1.66-.57-2.42.01-1.36 1.04-2.48 3.1-3.37 2.79-7.12 5.93-14.51 9.41-22.18 5.01-11.01 8.17-16.56 9.48-16.64 2.5-.16 4.3 1.6 5.38 5.28.65 2.98 1.66 7.44 3.01 13.39 1.91 8 4.2 17.15 6.87 27.44.2.78.9 2.59 2.09 5.45.97 2.36 1.5 4.15 1.58 5.36.1 1.63-.3 3.03-1.22 4.18C1478.9 652.45 1477.81 653.05 1476.56 653.07zM1461.06 610.65c-1.54 3.88-3.65 9.16-6.35 15.85 1-.35 2.59-.67 4.74-.98 2.53-.36 4.12-.62 4.78-.77C1463.45 621.13 1462.39 616.43 1461.06 610.65zM1538.03 637.45c.09 1.41.04 3.64-.16 6.7-.23 3.65-1.77 5.57-4.63 5.76-1.59.1-3.46-.9-5.61-2.98-9.38-9.19-20.15-22.22-32.28-39.1.33 7.32.55 11.8.66 13.46.14 2.22.39 5.56.76 10.02.36 4.46.62 7.8.76 10.02.53 8.29-.84 12.54-4.12 12.75-1.66.11-3.03-.44-4.12-1.64-.96-1.06-1.49-2.4-1.59-4-.07-1.12-.11-2.83-.11-5.12.01-2.28-.03-3.99-.11-5.11-.11-1.66-.22-4.15-.34-7.47-.12-3.32-.23-5.81-.34-7.47-.12-1.77-.32-4.44-.62-8-.3-3.56-.5-6.23-.62-8-.11-1.68-.4-4.19-.89-7.52-.48-3.32-.78-5.83-.89-7.52-.11-1.69.38-3.23 1.47-4.62 1.08-1.39 2.38-2.14 3.87-2.24 1.69-.11 3.67 1.57 5.95 5.04 11.5 17.54 22.64 31.74 33.43 42.58-.04-.9-.16-3.04-.37-6.41-.89-13.85-1.6-23.18-2.14-28-.1-.81-.34-2.32-.73-4.52-.35-1.95-.57-3.49-.64-4.61-.25-3.87 1.29-5.92 4.62-6.13 3.7-.24 6.01 6.71 6.92 20.84.02.31.14 2.53.36 6.66C1537.3 625.09 1537.8 633.97 1538.03 637.45zM1582.33 594.29c-1.77.11-4.55.14-8.32.07-3.64-.08-6.41-.04-8.32.11.29 3.2.97 8.88 2.02 17.05.94 7.21 1.55 12.93 1.81 17.14.06.96.23 2.37.52 4.24.28 1.87.45 3.28.51 4.24.14 2.11-.11 4.03-.73 5.76-.79 2.22-2.06 3.39-3.79 3.5-1.25.08-2.39-.34-3.41-1.26-1.14-1.03-1.76-2.37-1.87-4.03-.03-.39-.01-.99.06-1.8.06-.81.08-1.42.05-1.84-.08-1.29-.28-3.24-.6-5.84-.32-2.6-.52-4.56-.6-5.88-.24-3.76-.81-8.85-1.7-15.25-1.02-7.35-1.66-12.43-1.93-15.23l-1.78.11c-5.07.32-9.13.13-12.17-.57-2.57-.6-3.95-2.35-4.14-5.28-.09-1.43.23-2.75.97-3.96.87-1.44 2.08-2.13 3.64-2.09.79.01 2.62.13 5.47.37 2.27.17 4.1.21 5.49.12 1.39-.09 3.46-.25 6.22-.48 2.77-.23 4.83-.39 6.22-.48 1.73-.11 4.34-.13 7.81-.06 3.48.07 6.08.05 7.81-.06 1.37-.09 2.54.39 3.54 1.42.99 1.04 1.54 2.35 1.64 3.96.11 1.6-.27 2.99-1.12 4.15C1584.8 593.58 1583.7 594.2 1582.33 594.29zM1624.15 588.1c-.46.03-.94-.02-1.46-.16-3.76-1-7.39-1.39-10.87-1.16-1.71.11-3.53.4-5.46.86-1.93.46-3.99 1.1-6.15 1.92.24 3.74.49 9.29.75 16.66 1.27-.19 5.69-1 13.25-2.42 4.32-.81 7.05-1.25 8.21-1.33 1.34-.09 2.52.37 3.55 1.36 1.02.99 1.59 2.36 1.7 4.1.22 3.34-1.1 5.33-3.97 5.96-1.81.29-4.51.74-8.1 1.37-3.21.66-8.04 1.52-14.5 2.58.07 3.58.17 6.46.32 8.65.35 5.51.81 8.62 1.38 9.35.28.35 1.72.44 4.34.27 1.41-.09 3.53-.27 6.37-.53 2.84-.27 4.96-.44 6.38-.53.45-.03 1.11-.16 1.99-.38.88-.22 1.53-.35 1.97-.38 1.32-.08 2.48.31 3.47 1.17 1.13.97 1.76 2.4 1.88 4.28.21 3.14-1 5.11-3.63 5.9-2.23.68-6.94 1.25-14.11 1.71-7.42.48-12.33-.45-14.74-2.78-2.66-2.57-4.27-8.39-4.85-17.46-.24-3.76-.38-9.43-.43-17-.04-7.57-.17-13.23-.42-16.96-.06-.98-.27-2.43-.62-4.34-.35-1.91-.56-3.36-.62-4.34-.27-4.27 1.19-6.51 4.37-6.71 1-.06 1.95.23 2.83.88 2.59-.98 5.06-1.75 7.41-2.32 2.35-.56 4.59-.9 6.7-1.04 5.73-.37 10.37.15 13.91 1.56 2.16.85 3.32 2.57 3.49 5.15.09 1.46-.24 2.78-.98 3.95C1626.68 587.29 1625.56 588.01 1624.15 588.1zM1642.85 641.57c-1.34.06-2.5-.44-3.49-1.49-.97-1.05-1.52-2.36-1.62-3.94-.18-2.81-.34-7.03-.48-12.66-.14-5.63-.3-9.85-.48-12.66-.2-3.12-.55-7.79-1.06-14.02-.5-6.23-.85-10.91-1.05-14.02-.1-1.55.4-3.12 1.51-4.73 1.11-1.6 2.34-2.46 3.71-2.54.75-.05 2.69.7 5.83 2.25 3.66 1.85 5.83 2.88 6.5 3.09 6.83 2.24 12.79 6.01 17.85 11.3 6.05 6.3 9.33 13.48 9.85 21.54.32 4.86-.36 9.54-2.01 14.05-1.65 4.59-4.07 8.34-7.27 11.25-3.58 3.28-8.79 5.14-15.65 5.58-1.66.11-3.59-.07-5.78-.52C1646.56 643.47 1644.44 642.65 1642.85 641.57zM1659.26 597.02c-2.32-1.57-7.23-3.96-14.72-7.18l2.67 41.71c.94.65 1.98 1.11 3.15 1.38 1.17.28 2.47.37 3.87.28 4.92-.31 8.39-1.38 10.41-3.21 1.92-1.73 3.4-4.01 4.41-6.84 1.02-2.83 1.44-5.73 1.24-8.71C1669.87 607.5 1666.18 601.68 1659.26 597.02z" class="colorffffff svgShape"></path></g><path fill="#ffffff" d="M1648.54,743.64L1648.54,743.64c-1.26-19.69-18.25-34.63-37.93-33.36l-505.02,32.36
			c-19.69,1.26-34.63,18.24-33.36,37.93v0c1.26,19.69,18.24,34.63,37.93,33.36l505.02-32.36
			C1634.87,780.31,1649.8,763.33,1648.54,743.64z" class="colorffffff svgShape"></path><g fill="#000000" class="color000000 svgShape"><path fill="#021b79" d="M1429.01,793.51l-318.86,20.43c-19.69,1.26-36.67-13.68-37.93-33.36v0c-1.26-19.69,13.68-36.67,33.36-37.93
				l318.86-20.43c19.69-1.26,36.67,13.68,37.93,33.36v0C1463.64,775.26,1448.7,792.24,1429.01,793.51z" class="color030047 svgShape"></path></g><g fill="#000000" class="color000000 svgShape"><path fill="#021b79" d="M1271.39,1278.24c-0.43,0-0.87-0.07-1.3-0.21l-38.99-13.22c-1.01-0.34-1.85-1.08-2.32-2.04
				c-0.47-0.96-0.55-2.07-0.2-3.08l13.23-38.99c0.71-2.12,3.01-3.24,5.12-2.53c2.11,0.72,3.24,3.01,2.52,5.12l-11.93,35.17
				l35.17,11.93c2.11,0.72,3.24,3.01,2.52,5.12C1274.64,1277.18,1273.07,1278.24,1271.39,1278.24z" class="color030047 svgShape"></path></g><g fill="#000000" class="color000000 svgShape"><path fill="#021b79" d="M1296.82,1075.06c-0.43,0-0.87-0.07-1.3-0.21c-2.11-0.72-3.24-3.01-2.52-5.12l13.22-38.99
				c0.34-1.01,1.07-1.85,2.03-2.32c0.96-0.48,2.06-0.55,3.09-0.2l38.99,13.22c2.11,0.72,3.24,3.01,2.52,5.12
				c-0.71,2.11-3.01,3.24-5.12,2.53l-35.17-11.93l-11.93,35.17C1300.08,1074,1298.5,1075.06,1296.82,1075.06z" class="color030047 svgShape"></path></g><g fill="#000000" class="color000000 svgShape"><path fill="#021b79" d="M1525.73,1152.71c-0.43,0-0.87-0.07-1.3-0.21c-2.11-0.72-3.24-3.01-2.52-5.12l11.92-35.17l-35.2-11.94
				c-2.11-0.72-3.24-3.01-2.52-5.12c0.71-2.11,3-3.24,5.12-2.53l39.02,13.24c2.11,0.72,3.24,3.01,2.52,5.12l-13.22,38.99
				C1528.98,1151.65,1527.41,1152.71,1525.73,1152.71z" class="color030047 svgShape"></path></g><g fill="#000000" class="color000000 svgShape"><path fill="#021b79" d="M1461.3,1342.65c-0.43,0-0.87-0.07-1.3-0.21l-39.02-13.24c-2.11-0.72-3.24-3.01-2.52-5.12
				c0.71-2.11,3-3.24,5.12-2.53l35.19,11.94l11.93-35.17c0.71-2.11,3-3.24,5.12-2.53c2.11,0.72,3.24,3.01,2.52,5.12l-13.23,38.99
				C1464.55,1341.59,1462.98,1342.65,1461.3,1342.65z" class="color030047 svgShape"></path></g><g fill="#000000" class="color000000 svgShape"><circle cx="1385.67" cy="1185.34" r="84.94" fill="#3d9eff" class="colorffcc3d svgShape"></circle></g><g fill="#000000" class="color000000 svgShape"><circle cx="1394.77" cy="1158.5" r="19.51" fill="#ffffff" class="colorffffff svgShape"></circle></g><g fill="#000000" class="color000000 svgShape"><path fill="#ffffff" d="M1399.4,1236.98c8.88,3.01,17.82-4.24,16.81-13.56c-1.85-17-13.28-32.23-30.54-38.09
				c-17.27-5.86-35.6-0.72-47.41,11.65c-6.47,6.78-3.78,17.98,5.09,20.99L1399.4,1236.98z" class="colorffffff svgShape"></path></g><g fill="#000000" class="color000000 svgShape"><polygon fill="#ffffff" points="755.3 1886.7 724.22 1837.07 747.04 1822.79 762.6 1847.64 845.31 1785.84 861.42 1807.4" class="colorffffff svgShape"></polygon></g></g></svg>