<svg xmlns="http://www.w3.org/2000/svg" xmlns:xlink="http://www.w3.org/1999/xlink" viewBox="0 0 800 700" id="AddToCart"><defs><linearGradient id="d" x1="-1957.45" x2="-1927.74" y1="61.55" y2="-19.56" gradientTransform="matrix(.99 -.1 .1 .99 2206.44 64.66)" gradientUnits="userSpaceOnUse"><stop offset="0" stop-color="#0d1d5a" class="stopColor5a250d svgShape"></stop><stop offset="1" stop-color="#223da1" class="stopColora13522 svgShape"></stop></linearGradient><linearGradient id="a" x1="-3504.5" x2="-3509.13" y1="2199.51" y2="2215.71" gradientTransform="rotate(42.93 474.965 6181.018)" gradientUnits="userSpaceOnUse"><stop offset="0" stop-color="#7eb6ef" class="stopColoref877e svgShape"></stop><stop offset="1" stop-color="#b2d6fa" class="stopColorfabeb2 svgShape"></stop></linearGradient><linearGradient id="b" x1="-2840.84" x2="-2847.16" y1="2421.61" y2="2437.1" gradientTransform="rotate(45.7 912.214 5191.195)" gradientUnits="userSpaceOnUse"><stop offset="0" stop-color="#223da1" class="stopColora13522 svgShape"></stop><stop offset="1" stop-color="#0d1d5a" class="stopColor5a250d svgShape"></stop></linearGradient><linearGradient id="e" x1="-2905.41" x2="-2910.05" y1="3012.99" y2="3029.22" gradientTransform="matrix(.43 .9 -.9 .43 4191.87 1870.71)" xlink:href="#a"></linearGradient><linearGradient id="f" x1="-2205.03" x2="-2211.35" y1="3205.72" y2="3221.18" gradientTransform="rotate(67.56 1002.005 3687.321)" xlink:href="#b"></linearGradient><linearGradient id="c" x1="780.4" x2="841.2" y1="366.34" y2="287.79" gradientTransform="translate(-491.94)" gradientUnits="userSpaceOnUse"><stop offset="0" stop-color="#223da1" class="stopColora13522 svgShape"></stop><stop offset="1" stop-color="#224ded" class="stopColored2224 svgShape"></stop></linearGradient><linearGradient id="g" x1="1963.63" x2="1964.69" y1="376.11" y2="396.58" gradientTransform="rotate(-19.41 909.887 5281.065)" xlink:href="#a"></linearGradient><linearGradient id="h" x1="1319.34" x2="1302.88" y1="273.25" y2="271.81" gradientTransform="matrix(-1 0 0 1 1658.77 0)" xlink:href="#a"></linearGradient><linearGradient id="i" x1="1150.51" x2="1050.55" y1="430.47" y2="421.71" gradientTransform="matrix(-.71 .7 .7 .71 791.35 -768.62)" xlink:href="#a"></linearGradient><linearGradient id="j" x1="1150.45" x2="1050.31" y1="433.37" y2="424.6" gradientTransform="matrix(-.71 .7 .7 .71 791.35 -768.62)" xlink:href="#a"></linearGradient><linearGradient id="k" x1="1150" x2="1050.01" y1="436.61" y2="427.85" gradientTransform="matrix(-.71 .7 .7 .71 791.35 -768.62)" xlink:href="#a"></linearGradient><linearGradient id="l" x1="1148.45" x2="1050.11" y1="432.76" y2="424.14" gradientTransform="matrix(-.71 .7 .7 .71 791.35 -768.62)" xlink:href="#a"></linearGradient><linearGradient id="m" x1="1150.35" x2="1049.89" y1="438.57" y2="429.77" gradientTransform="matrix(-.71 .7 .7 .71 791.35 -768.62)" xlink:href="#a"></linearGradient><linearGradient id="n" x1="1529.72" x2="1514.14" y1="315.62" y2="314.25" gradientTransform="matrix(-1 0 0 1 1658.77 0)" xlink:href="#a"></linearGradient><linearGradient id="o" x1="1351.08" x2="1223.05" y1="315.9" y2="304.68" gradientTransform="translate(-1074.28)" xlink:href="#a"></linearGradient><linearGradient id="p" x1="1350.79" x2="1222.73" y1="319.55" y2="308.33" gradientTransform="translate(-1074.28)" xlink:href="#a"></linearGradient><linearGradient id="q" x1="1350.44" x2="1222.36" y1="323.78" y2="312.56" gradientTransform="translate(-1074.28)" xlink:href="#a"></linearGradient><linearGradient id="r" x1="1348.68" x2="1222.52" y1="318.91" y2="307.86" gradientTransform="translate(-1074.28)" xlink:href="#a"></linearGradient><linearGradient id="s" x1="1350.86" x2="1222.22" y1="326.25" y2="314.98" gradientTransform="translate(-1074.28)" xlink:href="#a"></linearGradient><linearGradient id="t" x1="725.56" x2="804.97" y1="594.11" y2="422.63" gradientTransform="translate(-491.94)" xlink:href="#b"></linearGradient><linearGradient id="u" x1="778.85" x2="819.1" y1="609.45" y2="484.1" gradientTransform="translate(-491.94)" xlink:href="#b"></linearGradient><linearGradient id="v" x1="731.6" x2="811.28" y1="597.45" y2="425.38" gradientTransform="translate(-491.94)" xlink:href="#b"></linearGradient><linearGradient id="w" x1="1460.8" x2="1461.3" y1="327.99" y2="326.78" gradientTransform="matrix(-1 0 0 1 1658.77 0)" xlink:href="#c"></linearGradient><linearGradient id="x" x1="1398.29" x2="1445.37" y1="443.05" y2="351.92" gradientTransform="matrix(-1 0 0 1 1658.77 0)" xlink:href="#c"></linearGradient><linearGradient id="y" x1="1340.39" x2="1387.29" y1="412.94" y2="322.15" gradientTransform="matrix(-1 0 0 1 1658.77 0)" xlink:href="#c"></linearGradient><linearGradient id="z" x1="2961.45" x2="3037.8" y1="398.87" y2="172.8" gradientTransform="matrix(-1 0 0 1 3234.25 0)" xlink:href="#c"></linearGradient><linearGradient id="A" x1="803.47" x2="825.99" y1="565.4" y2="401.43" gradientTransform="translate(-491.94)" gradientUnits="userSpaceOnUse"><stop offset="0" stop-color="#0d1d5a" class="stopColor5a250d svgShape"></stop><stop offset="1" stop-color="#162a77" class="stopColor772d16 svgShape"></stop></linearGradient><linearGradient id="B" x1="2323.04" x2="2327.69" y1="669.18" y2="712.34" gradientTransform="matrix(.93 -.24 .25 .82 -2046.61 281.44)" xlink:href="#a"></linearGradient><linearGradient id="C" x1="-1961.87" x2="-1932.15" y1="59.95" y2="-21.21" xlink:href="#d"></linearGradient></defs><g style="isolation:isolate" fill="#021b79" class="color000000 svgShape"><g data-name="Layer 1" fill="#021b79" class="color000000 svgShape"><g data-name="4" fill="#021b79" class="color000000 svgShape"><g opacity=".5" fill="#021b79" class="color000000 svgShape"><path fill="#8dc1f5" d="M700.79 617.54c16.21 13.69-617.79 13.69-601.58 0-16.21-13.69 617.79-13.69 601.58 0Z" opacity=".5" class="colorf58d8e svgShape"></path><g opacity=".3" fill="#021b79" class="color000000 svgShape"><path fill="#8dc1f5" d="M676.65 342.49c-6.17 360.41-547.08 360.35-553.2 0 6.18-360.42 547.08-360.36 553.2 0Z" opacity=".8" class="colorf58d8e svgShape"></path><path fill="#8dc1f5" d="M345.69 455.58c-3.61 211.17-320.54 211.14-324.12 0 3.61-211.17 320.54-211.14 324.12 0Zm108.62 0c3.61 211.17 320.54 211.14 324.12 0-3.61-211.17-320.54-211.14-324.12 0Z" opacity=".6" class="colorf58d8e svgShape"></path><path fill="#8dc1f5" d="M556.36 292c2.48 144.68 219.62 144.66 222.07 0-2.43-144.67-219.61-144.64-222.07 0Zm-312.72 0C241.16 436.69 24 436.67 21.57 292c2.43-144.67 219.61-144.64 222.07 0Z" opacity=".5" class="colorf58d8e svgShape"></path></g></g><g opacity=".5" fill="#021b79" class="color000000 svgShape"><g style="mix-blend-mode:multiply" opacity=".8" fill="#021b79" class="color000000 svgShape"><path d="M101.42 435.07c-3-.89.39-3.45 1.6-5.17 12.7-15 29.85-34.46 43.73-50.51a6600.36 6600.36 0 0 0-15.95 16.13c-36.59 37.06-36.92 37.06-37.89 37.07-1.61-.11-1.42-1.85-.47-2.69 16-18.82 38.06-42.91 54.92-62.33-14.82 14.93-35.28 35.95-49.35 50-14.38 13.7-12.66 13.67-15.36 12.89-1-.95-.26-1.77 2.65-5.24 16-18.69 39-43.6 56.38-63.26-14.12 13.89-69.11 70.55-64.82 64.31A1.28 1.28 0 0 1 76 426c-1-.94-.36-1.63 2.86-5.43 15.77-18.23 37.7-42 54.83-61.26-5.61 5.66-11.83 12-17.77 18C74.37 419.38 72 421.39 70.84 421.4c-2.43-.87-1.48-1.62 2-5.87 16.11-18.6 38.57-43 56-62.6-8.3 8.3-18.22 18.29-27.13 27.27C66.1 416.14 66 416.14 65.12 416.14a1.19 1.19 0 0 1-.87-.35c-1.26-2.34 2.59-4.66 4.31-7.36C81.72 393 99.16 373.81 114.25 357c-12 11.61-46.87 48.66-53.76 52.74a1.3 1.3 0 0 1-.89-.36c-1.15-1.9 1.31-3 2.48-4.88 16.19-18.62 39.36-43.87 56.55-63.31-6.78 6.83-14.81 15-22.4 22.72-37 37.61-38.94 39.28-40.09 39.29-2.4-.81-1.44-1.67 1.81-5.61 14.61-17.05 34.82-39.2 50.77-57.25-6.26 6.27-13.38 13.44-20.15 20.25C53 396.34 52.9 396.34 52 396.34c-2-.6-1.62-1.39.71-4 15.13-17.48 35.85-40.53 51.35-58.49-7.64 7.26-54.51 55.69-52.77 52.4a1.26 1.26 0 0 1-.87-.35c-1.17-1.84 1.44-3.18 2.6-5.1 11-13.31 25.64-30.19 38-44.72-4 4.06-8.27 8.4-12.22 12.42-28.53 28.28-26.37 28.22-29.38 27.45-1.49-2 4.59-7.06 6.79-10.53 6.71-8.31 16.6-20.32 24.14-29.55-38.76 40.55-33.83 31.04-14.35 3.28-3.76 3.78-3.84 3.78-4.36 3.78a1.2 1.2 0 0 1-.65-2.2c.58-.51 3.75-3.71 6.08-6.07C72.72 329 72.72 329 73.3 329c3.17 1-.88 4.31-2 6.66-3.56 5.32-9 13.19-12.92 19 5.61-5.26 37.2-38.42 35.35-35 2.05.6 1.53 1.46-.7 4.28-9 11.44-21.2 26-31.1 38.23C66.56 357.53 72 352 77.12 346.79c28.71-29.23 29-29.23 30-29.24 1.56.1 1.45 1.79.52 2.61-11.59 14-26.83 31.48-39.53 46.49 87.06-89.3 41.05-33.31 5.08 6 4.45-4.47 9.16-9.21 13.69-13.78 38.51-38.76 38.72-38.76 39.62-38.76 2.39.83 1.4 1.68-1.89 5.69-14.94 17.45-35.76 40.25-52 58.64 6.69-6.73 14.52-14.7 21.93-22.24 36.89-37.52 38.86-39.2 40-39.2 2.47.93 1.6 1.48-2.45 6.43-15.64 18.21-37.22 41.75-54.48 61.11 9.5-9.2 67.39-68.79 63.18-62.88a1.24 1.24 0 0 1 .87.36c1.12 1.66-.92 2.51-1.87 4-17.26 19.59-40.24 44.71-58.21 65.11l18.51-18.62c46.69-46.26 44.52-46.21 47.6-45.43 1 .95.35 1.66-3 5.59-16.35 18.89-39.28 43.81-56.95 63.64 8.07-8.09 17.77-17.92 26.47-26.75 36.75-37.28 37-37.28 38-37.29a1.27 1.27 0 0 1 .87.36c1 1 .28 1.76-3 5.63-15.47 17.93-36.67 41-53.72 60.05 5.26-5.3 11-11.1 16.48-16.65 40.73-41.21 42.86-43 44-43.05 2.46.85 1.4 1.79-2.08 6.08-15.94 18.59-38.26 42.8-55.54 62.31 15.18-15 65.59-67.53 62.62-62.23a1.26 1.26 0 0 1 .89.35c.93.93.49 1.58-3.41 6.26-13.64 16.11-31.61 36-47.11 53.54 17.79-17.73 53.26-54.69 51.79-51.25 1.67.21 1.44 1.75.33 2.84-13.12 15.73-30.14 34.87-44.64 51.69l9.74-9.86c34.8-35.55 38.13-38.57 36.27-32.29-11.49 14.19-26.84 31.95-39.42 47 6.87-6.62 42.55-43.7 40-39.68a1.26 1.26 0 0 1 .87.35c1.1 1.63-.95 2.68-1.85 4.27-7.51 9.62-17.28 21.65-25.84 32.32 23.75-24 25.9-26.53 25.22-21.53-2.14 1.53-14.32 14-23.95 23.66-14.18 14.32-14.16 14.31-14.85 14.32-1.87-.57-1.64-1.25.43-3.81 8-10.22 18.72-23.34 27.51-34.34l-6.67 6.76c-32.75 33.18-33.11 33.18-34.07 33.19a1.27 1.27 0 0 1-.88-.36c-.95-.94-.95-.94 8.53-12.29 8.58-10.27 21.12-25.07 30.6-36.34-6.23 6.25-13.58 13.7-20.2 20.41-28.65 29.05-28.82 29.05-29.71 29.06ZM163 394.82a1.11 1.11 0 0 0 .5.29 1.1 1.1 0 0 1-.5-.29ZM61.66 340.54a1.23 1.23 0 0 1 .85.34 1.22 1.22 0 0 0-1.4-.21 1.17 1.17 0 0 1 .55-.13Z" style="mix-blend-mode:multiply" fill="#8dc1f5" opacity=".8" class="colorf58d8e svgShape"></path></g><g style="mix-blend-mode:multiply" opacity=".8" fill="#021b79" class="color000000 svgShape"><path d="M395 193.06c-2.22-.65.28-2.53 1.17-3.79 9.32-11 21.91-25.29 32.09-37.07-3.71 3.74-7.8 7.88-11.7 11.84-26.85 27.2-27.09 27.2-27.81 27.2-1.17-.08-1-1.35-.34-2 11.74-13.81 27.92-31.49 40.3-45.74-12.1 11.62-36.38 38.34-46.83 46.44-1.78-.59-1-1.31 1.29-4.11 11.77-13.72 28.64-32 41.37-46.42-10.36 10.19-50.71 51.76-47.57 47.19a1 1 0 0 1-.64-.26c-1.18-1.83 5.69-7.51 8.21-11 9.56-10.76 23.84-26.47 34.12-38-77.56 79.6-44.29 39.5-3.49-4.64-6.09 6.09-13.37 13.42-19.91 20-26.18 26.37-26.26 26.37-26.9 26.37a.84.84 0 0 1-.64-.26c-.86-1.82 1.86-3.34 3.17-5.4 9.65-11.31 22.45-25.4 33.52-37.75-8.77 8.52-34.39 35.71-39.45 38.7-2.25-.68.26-2.57 1.17-3.84C378 157 395 138.42 407.64 124.16c-67.27 69.47-54.48 51.06-7.27-.63-70.14 71.44-39.62 35.82-3.41-4.77-5.6 5.32-40 40.86-38.72 38.45a.86.86 0 0 1-.63-.26c-.86-1.35 1.06-2.33 1.91-3.74 8.09-9.77 18.81-22.15 27.89-32.81-42.69 44.41-36.35 33.75-7.83-.16C351.18 150 354.76 143 369 122.68c-2.75 2.77-2.82 2.77-3.19 2.77a.88.88 0 0 1-.49-1.62c.9-.62 9-9.47 9-8.61 3.78-.12-9.94 16.28-11 18.86 4.11-3.86 27.3-28.19 25.94-25.66 1.5.44 1.12 1.07-.51 3.14-6.63 8.4-15.56 19.09-22.83 28.05 3.42-3.44 7.4-7.49 11.17-11.33 21.07-21.44 21.28-21.45 22-21.45 1.14.07 1.06 1.31.38 1.91-8.5 10.3-19.68 23.1-29 34.12 63.54-65.21 30.13-24.4 3.73 4.41 72.09-73.51 30.36-25-.42 8.66 4.9-4.94 10.65-10.79 16.09-16.32 27.06-27.54 28.51-28.77 29.35-28.77a1 1 0 0 1 .65.26c.69.69.36 1.14-2.45 4.46-11.47 13.36-27.31 30.63-40 44.84 7-6.75 49.46-50.47 46.37-46.14a.92.92 0 0 1 .63.26c1 1.76-3.69 5-5.42 7.53-11.28 12.64-27 30-38.66 43.19 79.74-81.39 46.44-41.72 4.52 3.8 5.92-5.93 13-13.15 19.42-19.63 27-27.36 27.17-27.36 27.89-27.36a.88.88 0 0 1 .64.26c1.11 2-5.93 7.8-8.59 11.45-9.24 10.41-22.91 25.45-33 36.74 77.11-79 39.84-34.54 2.12 6.36 59.44-61.66 61.67-59.15 9.52-1.53 60-61.72 40.83-37.3 5.49 2.42 56.32-58 31.68-27.49 4.83 3.58 5.06-4.87 31.21-32.06 29.38-29.12 2.94.74-3.3 6-4.64 8.36-4.18 5.25-10.21 12.73-15.05 18.75 18-17.64 16.41-17.6 18.5-17 1 1.68-11.05 11.19-17.57 18.61-10.4 10.5-10.4 10.5-10.89 10.5a.86.86 0 0 1-.63-.26c-.59-.58-.35-.88.94-2.53 5.9-7.5 13.74-17.13 20.18-25.2-17.93 18-29.75 30.51-29.89 29.31a1 1 0 0 1-.65-.26c-.69-.69-.69-.69 6.26-9 6.3-7.54 15.5-18.4 22.46-26.66-4.57 4.58-10 10-14.82 15-21 21.32-21.15 21.32-21.81 21.32Zm45.18-29.53a.79.79 0 0 0 .36.21.88.88 0 0 1-.35-.21Zm-74.35-39.83a.86.86 0 0 1 .62.25.88.88 0 0 0-1-.16.9.9 0 0 1 .38-.09Z" style="mix-blend-mode:multiply" fill="#8dc1f5" opacity=".8" class="colorf58d8e svgShape"></path></g><g style="mix-blend-mode:multiply" opacity=".8" fill="#021b79" class="color000000 svgShape"><path d="M633.83 414.25c-1.48-.44.19-1.68.78-2.52 6.19-7.3 14.55-16.81 21.32-24.64-48 49.09-20.29 17 .3-5.76-8 7.72-24.18 25.48-31.12 30.86-1.18-.39-.69-.87.85-2.73 7.83-9.12 19-21.27 27.5-30.85-47.26 48.51-36.52 34.12-3.91-1.33-51.1 52.47-29.39 26.14-2.32-3.09-4.05 4.05-8.88 8.92-13.23 13.3C616.6 405 616.55 405 616.12 405c-1-.16-.64-1 0-1.74 7-8.47 15.91-18.1 23.93-27.12-5.83 5.67-22.85 23.74-26.22 25.72-1.49-.44.17-1.71.78-2.55 7.9-9.08 19.2-21.4 27.58-30.88-44.35 45.85-36 33.7-4.83-.41-46.37 47.24-26.31 23.75-2.26-3.18-3.73 3.54-26.59 27.16-25.74 25.56-1.5-.45.25-1.77.85-2.66 5.38-6.49 12.5-14.72 18.54-21.81-28.2 29.38-24.08 22.29-5.21-.1-18.8 19.72-16.46 15-7 1.62-2.21 2-1.59 2-2.54 1.67-.55-1.18 1.76-2.14 3.07-3.86 2.74-2.77 2.74-2.77 3-2.77 2.3.42-6.47 10.51-7.28 12.54 29-30.06 17.14-14.74 1.73 3.67 35.11-36.31 23.26-20.88 3 2.16 42-43.1 20-16.19 2.48 2.94 47.43-48.4 20.22-16.58-.28 5.75 48.9-50.45 30.92-27.87 2.44 3 4.63-4.49 32.87-33.55 30.81-30.67 1.35.36.07 1.46-.49 2.13-8.41 9.55-19.62 21.8-28.38 31.75 52.6-53.71 30.81-27.63 3 2.53 46.27-47.68 37-34.59 4.21 1 50.81-52.09 26.46-22.88 1.4 4.23 39.33-40.83 40.82-39.08 6.34-1 39.52-40.7 27-24.65 3.64 1.61 37.13-38.24 21-18.2 3.21 2.38 3.36-3.23 20.76-21.31 19.53-19.35 2.77.2-11.64 15.41-13.08 18 12-11.73 10.9-11.7 12.29-11.33.35 1.48-7.15 7.2-11.67 12.36-6.92 7-6.92 7-7.25 7-2.84-.05 12.32-16.14 13.63-18.6-35.78 36.8-16.36 13-1.22-4.41-3 3.05-6.62 6.68-9.85 10-14 14.16-14.05 14.16-14.49 14.17Zm113-24.3a.57.57 0 0 0 .24.15.61.61 0 0 1-.28-.1Zm-49.42-26.47a.58.58 0 0 1 .41.17.59.59 0 0 0-.68-.11.66.66 0 0 1 .23-.06Z" style="mix-blend-mode:multiply" fill="#8dc1f5" opacity=".8" class="colorf58d8e svgShape"></path></g></g><path d="M41.43 302.93a794.4 794.4 0 0 1 133.19-62.11 794.82 794.82 0 0 1-133.19 62.11Zm193.23-139.4a1191.37 1191.37 0 0 1 133.19-62.11 1191.37 1191.37 0 0 1-133.19 62.11ZM663 446a716.64 716.64 0 0 1 86.45-40.31A718.17 718.17 0 0 1 663 446Z" style="mix-blend-mode:multiply" fill="#8dc1f5" opacity=".5" class="colorf58d8e svgShape"></path><g opacity=".9" fill="#021b79" class="color000000 svgShape"><g opacity=".8" fill="#021b79" class="color000000 svgShape"><path fill="#0575e6" d="M627.86 536.79c3.27-22.54 21.07-39 42.6-44.8 40.25-11.65 44-41.45 49.38-26.55s-5.91 31 3.76 42.63 2 33.46-13.51 38.25-70.91 41.22-70.91 70.36h-41.72c-2.13 0-2.14-15.93-2.05-17.12.84-25.33 26.46-39.41 32.45-62.77Z" class="colorf48a8b svgShape"></path><g opacity=".8" fill="#021b79" class="color000000 svgShape"><path fill="#ffffff" d="M658 555.7c-.87-14.34 5.82-28.7 16.61-38.12 6.15-5.39 13-9.31 19-14.55 4.69-3.85 10-7.55 12.62-13.17-2.14 6.93-8.35 11.49-13.37 16.32-17.47 13.18-33.34 25.87-34.86 49.52Z" class="colorffffff svgShape"></path></g></g><path fill="#708bf2" d="M776 562.86c-5.79 18-21.56 28-39.52 31.95-51.07 11.21-75 18.29-82.92 20.82-3.71 2-43.23.68-48 1 13.83-32 11.9-87.12 82.3-82.4 47.23 8.84 65.12-25.5 76.58-35.29 2.42-2.07 11.66-10.87 13.1-3.86-4.88 22.65 5.02 45.22-1.54 67.78Z" class="colorf27072 svgShape"></path><path fill="#708bf2" d="M758.48 534.61c-9.12 34.37-51.62 35-80.66 37.66-17.82 2.11-36.16 12.73-40.64 31.15 2.35-19.48 21.32-31.87 39.52-34.48 28.8-3.73 69.3-1.94 81.78-34.33Z" class="colorf27072 svgShape"></path><path fill="#ffffff" d="M758.48 534.61c-9.12 34.37-51.62 35-80.66 37.66-17.82 2.11-36.16 12.73-40.64 31.15 2.35-19.48 21.32-31.87 39.52-34.48 28.8-3.73 69.3-1.94 81.78-34.33Z" opacity=".8" class="colorffffff svgShape"></path><g opacity=".8" fill="#021b79" class="color000000 svgShape"><path fill="#0575e6" d="M172.14 536.79c-3.27-22.54-21.07-39-42.6-44.8-40.25-11.65-44-41.45-49.38-26.55s5.91 31-3.76 42.63-2 33.46 13.51 38.25 70.91 41.22 70.91 70.36h41.72c2.13 0 2.14-15.93 2.05-17.12-.84-25.33-26.46-39.41-32.45-62.77Z" class="colorf48a8b svgShape"></path><g opacity=".8" fill="#021b79" class="color000000 svgShape"><path fill="#ffffff" d="M142 555.7c.87-14.34-5.82-28.7-16.61-38.12-6.15-5.39-13-9.31-19-14.55-4.69-3.85-10-7.55-12.62-13.17 2.14 6.93 8.35 11.49 13.37 16.32 17.47 13.18 33.34 25.87 34.86 49.52Z" class="colorffffff svgShape"></path></g></g><path fill="#708bf2" d="M24 562.86c5.79 18 21.56 28 39.52 31.95 51.07 11.21 75 18.29 82.92 20.82 3.71 2 43.23.68 48.05 1-13.83-32-11.9-87.12-82.3-82.4C65 543.12 47.07 508.78 35.61 499c-2.42-2.07-11.66-10.87-13.1-3.86 4.83 22.59-5.07 45.16 1.49 67.72Z" class="colorf27072 svgShape"></path><path fill="#708bf2" d="M41.52 534.61c9.12 34.37 51.62 35 80.66 37.66 17.82 2.11 36.16 12.72 40.64 31.15-2.35-19.48-21.32-31.87-39.52-34.48-28.8-3.73-69.3-1.94-81.78-34.33Z" class="colorf27072 svgShape"></path><path fill="#ffffff" d="M41.52 534.61c9.12 34.37 51.62 35 80.66 37.66 17.82 2.11 36.16 12.72 40.64 31.15-2.35-19.48-21.32-31.87-39.52-34.48-28.8-3.73-69.3-1.94-81.78-34.33Z" opacity=".8" class="colorffffff svgShape"></path></g><rect width="280.28" height="445.95" x="293.14" y="170.73" fill="#223da4" rx="36.16" class="colora42322 svgShape"></rect><rect width="248.58" height="407.83" x="308.99" y="189.79" fill="#e9f0f8" rx="18.08" class="colorf8e9e9 svgShape"></rect><path fill="#5b7af1" d="M513.15 350.92c-3.06-5-10-4.39-15-4.31h-124.4c-6.55.52-16-2.14-20.34 4.31-4.75 5.35.9 14.69 2.4 20.23l1.81 5.25c4.86 14.27 11.63 32.86 16.13 47.07h.16c5 11.36 3.42 24.19 19.81 22.51h79.12c16.41 1.67 14.8-11.16 19.8-22.51h.17c4.43-14.2 11.34-32.8 16.12-47.07 1.19-3.42 4.37-12.62 5.59-16.15a10.14 10.14 0 0 0-1.37-9.33Zm-20.34.93v19.3h-15.19v-19.3Zm0 42.93h-15.19V376.4h15.19Zm-20.48 46h-15.56v-17.31h15.56Zm-78.11-17.27h15.56v17.27h-15.56Zm-20.47-16.64V400h15.18v18.19h-11.24Zm0-30.43h15.18v18.38h-15.18Zm77.73 18.38h-15.56V376.4h15.56Zm5.29-18.38h15.56v18.38h-15.56ZM435.92 400h15.56v18.19h-15.56Zm-5.29 18.19h-15.56V400h15.56Zm0-23.44h-15.56V376.4h15.56Zm-20.85 0h-15.56V376.4h15.56ZM394.22 400h15.56v18.19h-15.56Zm20.85 23.44h15.56v17.27h-15.56Zm20.85 0h15.56v17.27h-15.56Zm20.85-5.25V400h15.56v18.19ZM477.62 400h15.19v6.79l-3.95 11.4h-11.24Zm-5.29-48.18v19.3h-15.56v-19.3Zm-20.85 0v19.3h-15.56v-19.3Zm-20.85 0v19.3h-15.56v-19.3Zm-20.85 0v19.3h-15.56v-19.3Zm-20.85 0v19.3h-15.18v-19.3ZM357 358.55c-1.85-7.53 6.59-6.86 11.42-6.7v19.3h-7.02Zm6.18 17.85h5.24v15.14Zm21.08 60.92-4.79-13.85h9.42v17.26a5.1 5.1 0 0 1-4.59-3.41Zm97.95 0a5.09 5.09 0 0 1-4.63 3.41v-17.26h9.43Zm15.85-45.79V376.4h5.24Zm0-20.38v-19.3c18.31-1.61 10.1 8.73 7 19.3Z" class="colorf15c5b svgShape"></path><path fill="#5b7af1" d="M433.28 304.44a44.32 44.32 0 0 0-44.4 42.17h4.85c2.31-48.88 76.8-48.85 79.09 0h4.86a44.33 44.33 0 0 0-44.4-42.17Z" class="colorf15c5b svgShape"></path><path fill="#5b7af1" d="M534.94 358c-.85 49.5-75.13 49.49-76 0 .88-49.5 75.16-49.49 76 0Z" class="colorf15c5b svgShape"></path><g opacity=".8" fill="#021b79" class="color000000 svgShape"><path fill="#ffffff" d="M490.19 379.7c-2.1.86-15.1-12.76-16.75-13.74-3.88-3.43 1.63-9.36 5.38-5.85l11 9.91 24.92-29.91c3.21-4 9.52 1.09 6.16 5-1.26.66-29.08 37.11-30.71 34.59Z" class="colorffffff svgShape"></path></g><path fill="#5b7af1" d="M371.2 482.32a12.59 12.59 0 0 1-4.07-1.74l2-4.53c1.84 2.18 14.22 3.68 9.78-1-3-1.28-8-1.26-10.25-4-5.71-9.76 10-13.22 16.46-8.75l-1.91 4.56c-2.25-2-12.67-2.75-8.6 1.58 1.58.7 5.75 1.33 7.37 2a5.89 5.89 0 0 1 3 9.05c-2.88 3.97-9.25 3.98-13.78 2.83Zm35.27-16.6v16.82h-5.66v-1.8c-2.49 2.83-7.84 2.67-10.28.15-3.09-2.48-1.65-11.53-2-15.17h5.95c.58 2.72-1.88 12.25 2.81 12.07 5.09.11 2.65-9.1 3.2-12.07Zm7.45 15.98c-13.93-8.7 5.62-24.43 13-11.63l-4.6 2.32a3.75 3.75 0 1 0 0 3.48l4.6 2.32c-1.92 4.87-8.79 5.65-13 3.51Z" class="colorf15c5b svgShape"></path><path fill="#5b7af1" d="M432.6 481.7c-13.93-8.7 5.62-24.43 13-11.63l-4.6 2.32a3.75 3.75 0 1 0 0 3.48l4.6 2.32c-1.87 4.87-8.79 5.65-13 3.51Z" class="colorf15c5b svgShape"></path><path fill="#5b7af1" d="M464.9 475.62h-12.33c1 3.37 5.83 3.4 8.07 1.24l3.13 3.23c-6.65 7.22-22-.57-16-10.44 4.79-7.85 19.08-3.99 17.13 5.97Zm-11.25-5.21a3.49 3.49 0 0 0-1.17 2.11h6.94c-.31-2.71-3.82-3.75-5.77-2.11Zm16.07 11.93a11.08 11.08 0 0 1-3.32-1.26l1.79-4c6.39 3.66 14.41-.15 2.05-1.49a4.67 4.67 0 0 1-2.52-7.4c3.09-3.64 9.94-3.24 14-1.29l-1.79 4c-7.31-3.28-12.05.86-1 2a4.61 4.61 0 0 1 2.44 7.3c-2.61 3.02-7.83 2.97-11.65 2.14Zm17.12 0a11.08 11.08 0 0 1-3.32-1.26l1.79-4c6.39 3.66 14.41-.15 2-1.49a4.67 4.67 0 0 1-2.51-7.4c3.09-3.64 9.94-3.24 14-1.29l-1.78 4c-7.31-3.28-12.06.86-1 2a4.61 4.61 0 0 1 2.44 7.3c-2.58 3.02-7.8 2.97-11.62 2.14Zm31.74-62.98c0 .5-1.44 4.6-.67 4.85.3.45 5.77 2.51 3.52 3.29-.47.18-4.86.06-4.87.87-.33.43-.62 6.21-2.06 4.33-.33-.39-1.57-4.57-2.34-4.32-.5-.19-6.15 1.34-4.79-.61.27-.43 3.89-2.88 3.42-3.54-2.69-5.75-2.47-5.79 2.86-2.51 1.04.79 4.53-5 4.93-2.36Zm-167.52-89.03c0 .65-1.85 5.92-.86 6.24.38.58 7.41 3.22 4.52 4.22-7.41.76-5.81-.69-7.47 6.55-1.36 2.72-3.15-4.49-3.68-5-.48-1.6-8.52 1.81-6.93-1.23.35-.55 5-3.71 4.4-4.55-3.46-7.44-3.23-7.45 3.68-3.23 1.33 1.05 5.82-6.39 6.34-3Zm154.77-36.26c-2 9.17-3 6.49 4.94 11.27a.94.94 0 0 1-.39 1.74c-9.28 1-7.17-.95-9.28 8.13-1.64 3.39-3.93-5.58-4.57-6.17-.52-1.94-10.68 2.21-8.61-1.53.4-.68 6.26-4.62 5.47-5.65-4.3-9.28-4.05-9.26 4.57-4 1.58 1.26 7.34-8.02 7.87-3.79Zm11.94 163.1c.36 5.56-8.45 6-8.65.43-.36-5.6 8.45-5.99 8.65-.43ZM354.76 423c.62 13.44-20 14.45-20.71 1s19.95-14.46 20.71-1Zm57.85-130.37c.52 7.9-12 8.51-12.28.61-.51-7.9 12.01-8.51 12.28-.61Z" class="colorf15c5b svgShape"></path><path fill="url(#d)" d="M253.43 262.41c21.19-11.38 42.38-1.09 46.54 22.33.91 5 6.3 34.29-1.28 35.93-6.54 1.41-8.42-7.36-43.61 4.9-15.87 5.53-25-10.48-20.18-24.73 7.24-13.09 4.1-30.27 18.53-38.43Z"></path><path fill="url(#a)" d="M271.68 562.05s-3.45 3.24-5.08 5c-.72.75-12.09-3.57-8.62-10.18l5.13-2.9 8.77 4.25Z"></path><path fill="url(#b)" d="M273.39 591c-18.95-17.44-25.79-27.41-25.79-27.41a22 22 0 0 1 10.4-6.77c-1.12 8.91 15.81 10.63 18.83 20.3 2.23 4.62.08 10.65-3.44 13.88Z"></path><path fill="url(#e)" d="M224.83 530.44s-4.41 1.74-6.57 2.72c-.95.43-9.88-7.77-4.17-12.63l5.84-.79 6.54 7.18Z"></path><path fill="url(#f)" d="M215.56 557.93c-11-23.19-13.64-35-13.64-35a22.12 22.12 0 0 1 12.17-2.44c-4.36 8 10.7 15.74 9.85 25.79.34 5.17-3.94 9.97-8.38 11.65Z"></path><path fill="url(#c)" d="M346.44 271.65c-6.86 11.94-12.72 24.53-19.93 36.21-4.46 4.58-9.19 8.93-13.52 13.61a12 12 0 0 1-8.18 3.76l-8.56 8.52 20.23 13.34.1 2.22c5.72-10.59 16.18-17.61 23.43-27 3.53-5 4.3-11 6.34-16.58 3.68-10.43 7.2-20.93 10.26-31.56-2.93 1.08-10.17-2.52-10.17-2.52Z"></path><path fill="url(#g)" d="M280.37 300.79s5.14 21.71 12.67 22c0 0-6.37 14.52-22.58 2.15 0 0-1.81-11.73-7-19.61Z"></path><path fill="url(#h)" d="M346.44 271.65s7.24 3.6 10.17 2.48l.6-2.15.12-.44a40.91 40.91 0 0 1-10.11-1.48Z"></path><path fill="url(#i)" d="M350 267.25a49.67 49.67 0 0 0-.48-5.68c-1.12-.86 5.24-18.43 4.2-8.24-.74 2.36-1.48 5-1.48 5l.72 7.48Z"></path><path fill="url(#j)" d="M351.2 266.12a50.85 50.85 0 0 0 1.23-5.57c-.83-1.13 10.46-16.07 6.46-6.65-1.41 2-2.9 4.35-2.9 4.35l-1.52 7.35Z"></path><path fill="url(#k)" d="M352.72 267.51a43.55 43.55 0 0 0 2-4.56c-.53-1.1 11.67-11.9 6.69-4.59-1.56 1.51-3.25 3.23-3.25 3.23l-2.57 6Z"></path><path fill="url(#l)" d="M350 262.53c0 4.55-6.9-2.13-7.92-1.36-1.45.15-1.62.35-1.36.94s2.41.34 3 2.36 2.86 3.15 3 5.34c3.45 5.45 17.14 4.73 8.13-6Z"></path><path fill="url(#m)" d="m350.58 267.38 3.95-1c.56-2.75 15-8.88 8.38-3.7-1.52 1-4.56 1.37-4.18 3.77.43 9.15-6.05 3.67-8.15.93Z"></path><path fill="url(#n)" d="M136.11 318.92c.93.54 1.86 1.06 2.8 1.59a23.73 23.73 0 0 0 6.66-11.36c-.59-.19-1.1-.38-1.64-.56.57-.59-4.37 7.24-7.82 10.33Z"></path><path fill="url(#o)" d="M138.91 308.47a66.92 66.92 0 0 1-4.72-5.57c-1.21-1.84-8.3-5.56-11.8-6.7s-2.27 1.5.54 3 5.88 3.21 5.88 3.21l6.11 7.41Z"></path><path fill="url(#p)" d="M136.75 308.56a66.38 66.38 0 0 1-6.16-3.95c-1.71-1.4-9.59-2.89-13.27-3s-1.73 2.1 1.4 2.69 6.57 1.35 6.57 1.35l8 5.31Z"></path><path fill="url(#q)" d="M136.63 311.18a60.15 60.15 0 0 1-6-2.33c-1.7-.91-8.7-.84-11.87-.28s-1.11 2.09 1.67 2.07 5.85 0 5.85 0l7.81 3.17Z"></path><path fill="url(#r)" d="M134.58 304.25c4.15 4.09 4.31-8.05 5.94-8.28 1.44-1.15 1.78-1.13 2.08-.36s-1.87 2.45-.62 4.84.26 5.4 2.14 7.5c1.9 7.7-11.17 19.74-12.82 1.79Z"></path><path fill="url(#s)" d="M138.45 309.15 134 311.8c-3.58-1.95-21.45 5.39-10.94 4.1 2.34-.4 5.38-2.8 7.2-.31 7.82 8.6 8.8-1.99 8.19-6.44Z"></path><path fill="url(#t)" d="M300.22 515.64C268 525.15 223.35 531 223.35 531c-4.84-6.24-4.84-11.23-4.84-11.23s25.43-7.91 45.08-22.36 38.12-14 38.12-14c4.32-5-6-28-14.07-48 11 17.39 45.29 50.34 41.74 58.78 0 .07-15.53 4.64-29.16 21.45Z"></path><path fill="url(#u)" d="M261.82 554.39s2.17 4.29 8.73 8.73c0 0 74.14-36.74 91.28-57.53 13.46-17.11-9.25-49.65-19.8-69.44-5.73-11.07-5.4-24.25-12.07-34.91l-.83.23-.87 23.14s23.49 65.09.72 79.61c-6.18 3.94-16.65 7.83-28.62 11.41-8.63 14.63-39.49 40.59-38.54 38.76Z"></path><path fill="url(#v)" d="M329 504.22c-6.18 3.94-16.65 7.83-28.62 11.41 13.57-16.85 29.08-21.47 29.08-21.47 4-10.12-35.44-42.86-43.3-62.92a112.72 112.72 0 0 0-3.64-17.92L280 405c5.64-10.35 35-14.23 35-14.23 12.19 6.37 15.56 4.13 16 20.09-3.21 27.3 21.59 72.9-2 93.36Z"></path><path fill="url(#w)" d="m197 326.79 1.06.37v-.44a2.15 2.15 0 0 0-1.06.07Z"></path><path fill="url(#x)" d="M138.91 320.51c18.42 9.34 38.52 21.77 58.67 28.1 14.09 4.85 28.93 6.89 43.26 10.95 0-.07 17.71 5.18 21 10.74 2.56 4 8.59-6 8.78-7.19 1-6.86-7.59-27.76-7.59-27.81-4.15 5.75-11.49 4.83-17.35 3.14-15.34-4.44-30.63-8.56-46.38-11.44-18.29-4.3-35.76-12.31-53.73-17.84a23.73 23.73 0 0 1-6.66 11.35Z"></path><path fill="url(#y)" d="M254.6 356.47c6.45 20.64 17.33 40.4 28.58 58.73 20.22 2.44 47.95-12.58 46.77-14-3.69-6.91-6.63-22.52-8.12-32.31-1.7-7.2 1.87-14.31 0-21.51-1.36-5.71-6.28-8.5-9.5-12.85-4.19-5.29-7.68-11.79-15.37-11.67-3.12-.38-6.77-1.36-9.09-3.63.48.58 3.62 5.66-1.84 7.19-9.55 2.32-15.12-2.19-15.12-2.19-6.91 2-16.15 12.82-18.93 16.08-.13 4.77.87 10.26 2.62 16.16Z"></path><path d="M199.69 349.31c21.8 7.45 36.17 5.51 58.54 17.62 6.63 16.79 15.51 33 24.95 48.27 20.22 2.44 47.95-12.58 46.77-14-23.43 12.45-59.37 20.26-55.9-18.58 3.2-8.39 31.08-6.76 39.64-18.39 0 0-14.34 6.08-27 7.56-7.74.91-11.34-5.85-17.12-9.54-21.23-11.43-47.3-5.25-69.88-12.94Z" style="mix-blend-mode:multiply" fill="url(#z)" opacity=".5"></path><path d="M294.39 523.52c12.3-1.54 53.48-8.9 50.18-38.43-1.84-16.5-2.43-34.55-2.54-48.94-5.73-11.07-5.4-24.25-12.07-34.91l-.83.23-.87 23.14s23.49 65.09.72 79.61c-6.18 3.94-16.65 7.83-28.62 11.41-2.05 2.5-3.91 5.37-5.97 7.89Z" style="mix-blend-mode:multiply" fill="url(#A)" opacity=".5"></path><path fill="url(#B)" d="M291.17 279.93c-2.55 11.8 10.34 23.76-3.74 36.94-4.55 0-23.77 1-27-15.16-1.18-2.67-5.57-3.32-4.63-8.21s3.61-2.33 3.61-2.33-.2-3.62-.13-6.69 31.89-4.55 31.89-4.55Z"></path><path fill="url(#C)" d="M291.17 279.93s-5 19.46-32.66 11.61 14.83-16.24 14.83-16.24Z"></path><path fill="#6482f1" d="M289.11 306c-1.68-.43-11.61 1.36-10.87 3.42 4.66 4.38 11.08 3.99 10.87-3.42Z" class="colorf16465 svgShape"></path></g></g></g></svg>