<svg xmlns="http://www.w3.org/2000/svg" enable-background="new 0 0 8000 5000" viewBox="0 0 8000 5000" id="AnniversarySurprise,SalaryBonus,HolidayInvitationDelivery"><g fill="#000000" class="color000000 svgShape"><g fill="#000000" class="color000000 svgShape"><ellipse cx="5638.612" cy="4664.57" fill="#acb9c6" rx="659.528" ry="27.829" class="colorc6b8ac svgShape"></ellipse><g fill="#000000" class="color000000 svgShape"><path fill="#86bdf4" d="M5447.951,2459.187c-8.357,118.108-31.521,239.107-97.963,337.113
				c-14.322,21.122-35.121,43.041-60.501,40.373c-14.834-1.56-27.732-11.771-35.738-24.357
				c-8.005-12.586-11.769-27.374-14.504-42.038c-21.524-115.405,13.699-233.015,48.782-345.044
				c14.449-46.143,33.657-127.825,80.629-152.706c48.93-25.916,73.562,54.136,78.045,86.781
				C5451.241,2392.369,5450.3,2425.989,5447.951,2459.187z" class="colorf4a086 svgShape"></path><path fill="#81b5ea" fill-rule="evenodd" d="M5453.585,2291.382c-2.25-19.536-7.471-42.563-25.614-51.087
				c-19.135-8.992-39.669,4.136-54.555,17.489c-90.208,80.927-124.395,195.152-140.752,317.748l216.322,13.347
				C5463.412,2491.267,5465.057,2391.003,5453.585,2291.382z" clip-rule="evenodd" class="color818bea svgShape"></path><path fill="#86bdf4" d="M5364.725,2773.009c8.178,49.037-34.326,128.905-111.784,136.493
				c-92.445,2.283-193.785-12.545-195.458-21.489C5046.439,2828.868,5281.641,2762.42,5364.725,2773.009z" class="colorf4a086 svgShape"></path><path fill="#90c3f7" d="M4993.08,2889.88c-21.209-15.072-33.007-42.389-29.438-68.162
				c2.332-16.836,13.718-34.632,30.686-35.609c13.069-0.753,25.626,10.399,26.529,23.46c15.673-2.62,29.458,9.774,40.505,21.196
				c6.636,6.86,13.271,13.72,19.906,20.582c5.906,6.105,12.201,13.131,12.164,21.625
				C5093.257,2913.107,5013.076,2904.087,4993.08,2889.88z" class="colorf7b690 svgShape"></path></g><g fill="#000000" class="color000000 svgShape"><path fill="#222c54" fill-rule="evenodd" d="M5329.181,3860.874c-21,26.89-48.06,56.187-78.458,56.226
				c-21.078,0.028-68.686-55.467-76.598-74.323c-7.912-18.857,131.433-641.424,165.843-679.181
				c46.16-50.653,116.062-71.241,175.195-62.84c85.933,12.208,168.238,64.704,137.089,167.512
				c-39.82,131.43-107.227,263.612-179.596,383.895C5429.223,3724.354,5381.259,3794.186,5329.181,3860.874z" clip-rule="evenodd" class="color222b54 svgShape"></path><path fill="#86bdf4" d="M5274.077,4601.751c-30.515,4.518-61.564,1.979-90.035-7.362
				c4.472-35.939,8.945-71.879,13.417-107.818c0.564-4.539,1.212-9.299,3.875-13.143c3.914-5.646,11.083-7.829,17.673-8.988
				c24.973-4.392,62.588-5.765,61.298,25.42C5278.764,4527.127,5276.123,4564.471,5274.077,4601.751z" class="colorf4a086 svgShape"></path><path fill="#021b79" fill-rule="evenodd" d="M4987.397,4654.057
				c-1.325-14.789,12.71-27.045,27.154-30.487c14.444-3.443,29.55-0.822,44.398-0.995c42.349-0.494,83.492-25.889,102.915-63.524
				c2.67-5.173,5.261-10.885,10.335-13.737c6.758-3.801,15.521-0.971,21.514,3.949c5.995,4.92,10.226,11.635,15.702,17.125
				c9.814,9.839,23.819,15.287,37.68,15.083c11.618-0.171,24.625-9.045,35.787-3.18c9.852,5.177,12.504,18.82,15.001,28.544
				c4.301,16.757,8.201,33.628,12.302,50.435c0.909,3.721,1.796,7.613,2.072,11.446h-80.698c-3.752-5.289-6.813-20.675-8.419-27.025
				c-0.266,6.527-2.849,22-6.992,27.025h-221.79C4990.553,4664.613,4987.896,4659.618,4987.397,4654.057z" clip-rule="evenodd" class="color0a3c5f svgShape"></path><path fill="#222c54" fill-rule="evenodd" d="M5177.687,3810.623
				c31.388-62.882,133.45-112.581,174.682,3.104c66.386,186.271-17.652,464.642-57.606,679.751h-103.373
				C5186.061,4473.995,5160.242,3845.575,5177.687,3810.623z" clip-rule="evenodd" class="color222b54 svgShape"></path><path fill="#86bdf4" d="M6186.889,4459.046c-21.452,22.524-47.311,39.624-74.985,49.585
				c-16.787-32.063-33.573-64.126-50.36-96.188c-2.12-4.049-4.3-8.33-4.376-13.109c-0.112-7.018,4.295-13.225,8.824-18.239
				c17.163-18.999,45.977-43.342,62.581-17.12C6148.416,4395.312,6167.436,4427.389,6186.889,4459.046z" class="colorf4a086 svgShape"></path><path fill="#021b79" fill-rule="evenodd" d="M5824.686,3301.708
				c-1.875,31.983-83.722,11.538-114.935,11.538c-256.948,0-405.631-83.563-370.094-201.592
				c36.503-121.241,266.45-101.668,386.558-62.599c25.89,8.421,63.616,16.575,81.303,40.749
				C5833.155,3124.845,5831.45,3186.318,5824.686,3301.708z" clip-rule="evenodd" class="color0a3c5f svgShape"></path><path fill="#021b79" fill-rule="evenodd" d="M5828.943,3848.167
				c-5.28,33.708-14.687,72.464-41.234,87.275c-18.407,10.27-86.986-15.085-103.066-27.718
				c-16.08-12.633-196.934-624.432-185.216-674.156c15.717-66.703,66.797-118.675,122.558-140.077
				c81.032-31.103,178.476-25.235,201.231,79.75c29.088,134.214,34.435,282.495,29.66,422.79
				C5850.008,3680.23,5842.038,3764.572,5828.943,3848.167z" clip-rule="evenodd" class="color0a3c5f svgShape"></path><path fill="#021b79" fill-rule="evenodd" d="M5676.18 3889.59c-9.486-69.638 46.849-168.192 146.081-95.83 159.776 116.512 247.14 393.859 335.296 594.101l-85.412 58.228C6056.766 4432.993 5681.453 3928.298 5676.18 3889.59zM6085.058 4513.408c-2.25-5.367-4.966-11.022-3.895-16.744 1.427-7.622 9.224-12.521 16.844-13.957 7.619-1.436 15.484-.369 23.209-1.041 13.845-1.205 27.013-8.442 35.758-19.199 7.329-9.016 8.877-24.686 20.542-29.475 10.294-4.228 22.457 2.499 31.516 6.83 15.607 7.463 31.044 15.306 46.562 22.955 3.435 1.694 6.989 3.512 10.104 5.761l-51.819 61.863c-6.462-.52-20.223-8.054-26.123-10.9 4.832 4.396 15.036 16.311 16.227 22.713l-94.547 125.185-40.106-36.493C6094.722 4598.207 6101.081 4551.62 6085.058 4513.408z" clip-rule="evenodd" class="color0a3c5f svgShape"></path><path fill="#021b79" fill-rule="evenodd" d="M6056.56,4623.396c14.456-3.395,29.553-0.724,44.401-0.849
				c0.917-0.007,1.829-0.091,2.744-0.123l5.732,46.292l-73.219-0.242c-3.792-4.115-6.433-9.119-6.913-14.682
				C6028.029,4638.999,6042.105,4626.79,6056.56,4623.396z" clip-rule="evenodd" class="color0a3c5f svgShape"></path></g><path fill="#81b5ea" fill-rule="evenodd" d="M5367.79,2752.54
			c-19.283-95.067-52.174-187.877-66.127-283.674c-6.523-44.777-16.022-99.959,10.157-138.68
			c23.491-34.743,124.88-171.486,260.311-171.486c193.063,0,274.498,78.635,301.697,171.774
			c19.415,117.602,12.716,277.858-22.333,390.334c-33.688,108.111,2.145,223.205,33.046,461.897h-557.662
			C5328.94,3047.333,5387.073,2847.606,5367.79,2752.54z" clip-rule="evenodd" class="color818bea svgShape"></path><g fill="#000000" class="color000000 svgShape"><path fill="#222d56" fill-rule="evenodd" d="M5461.856,1939.38c2.18,12.35,10.854,12.546,14.89,0.782
				c12.914-37.626,13.834-43.938,43.314-70.863c16.22-14.816,19.79-15.229,13.703-24.667
				C5513.608,1813.375,5443.812,1837.16,5461.856,1939.38z" clip-rule="evenodd" class="color222b56 svgShape"></path><path fill="#86bdf4" d="M5509.376,2023.336c13.225-58.366,116.319-20.968,141.999-6.959
				c-18.833,74.723-23.085,123.324,17.118,166.331c-53.241,34.136-144.139,27.783-163.784,0
				C5503.924,2173.954,5502.539,2053.516,5509.376,2023.336z" class="colorf4a086 svgShape"></path><path fill="#90c3f7" d="M5654.724,1905.831c-19.958-61.081-99.723-81.868-149.372-34.699
				c-45.457,43.186-60.176,165.388-47.103,196.969c22.862,55.225,121.876,39.649,144.807,13.502
				C5636.643,2043.302,5671.508,1957.198,5654.724,1905.831z" class="colorf7b690 svgShape"></path><path fill="#222d56" fill-rule="evenodd" d="M5588.806,2049.85c-2.524,5.937-5.657,12.474-11.721,14.675
				c-5.036,1.828-10.787-0.008-15.079-3.216c-4.291-3.208-7.472-7.635-10.863-11.783c-14.423-17.646-33.81-31.191-55.34-38.666
				c-9.8-3.402-20.888-5.493-30.329-1.193c-7.705,3.51-13.046,10.734-17.124,18.154c-5.152,9.377-8.88,19.689-9.584,30.364
				c-0.706,10.676,1.786,21.747,8.077,30.401c8.805,12.109,23.689,18.102,38.15,21.98c25.759,6.91,53.287,8.959,79.083,2.188
				c25.797-6.773,49.682-23.025,62.398-46.469c6.317-11.646,9.783-24.825,10.01-38.072c0.196-11.454-2.21-23.37-9.243-32.412
				c-10.932-14.052-15.441-0.182-19.317,9.076C5601.632,2019.9,5595.177,2034.859,5588.806,2049.85z" clip-rule="evenodd" class="color222b56 svgShape"></path><path fill="#222d56" fill-rule="evenodd" d="M5629.054,1913.535
				c-5.58,7.614-28.526,128.26-24.921,128.157c12.833-0.367,39.029-26.708,59.515-17.538c6.548,2.932,14.111,10.787,19.475-2.518
				c33.974-84.278,35.67-78.677,23.507-92.222C5679.819,1899.555,5639.011,1899.95,5629.054,1913.535z" clip-rule="evenodd" class="color222b56 svgShape"></path><path fill="#222d56" fill-rule="evenodd" d="M5742.094,1895.898
				c-50.737-75.01-157.324-136.679-197.57-129.864c-59.912,10.147-55.204,106.027-38.559,117.555
				c7.598,5.263,17.813,1.573,26.803-0.575c42.673-10.198,66.287,19.02,89.972,33.414
				C5664.705,1941.932,5785.327,1959.818,5742.094,1895.898z" clip-rule="evenodd" class="color222b56 svgShape"></path><path fill="#90c3f7" d="M5687.022,2018.196c-3.921,14.197-13.599,26.712-26.354,34.076
				c-36.49,21.07-45.723-29.718-30.169-53.231C5649.042,1971.01,5697.685,1979.584,5687.022,2018.196z" class="colorf7b690 svgShape"></path></g><g fill="#000000" class="color000000 svgShape"><path fill="#b6d3f1" d="M5234.572,3833.815l-2550.665-251.169c-0.696-0.069-1.204-0.688-1.136-1.384l152.28-1546.42
				c0.069-0.696,0.688-1.204,1.384-1.135l2550.659,251.168c0.695,0.068,1.204,0.688,1.135,1.384l-152.273,1546.421
				C5235.887,3833.375,5235.268,3833.884,5234.572,3833.815z" class="colorf1d1b6 svgShape"></path><g fill="#000000" class="color000000 svgShape"><g fill="#000000" class="color000000 svgShape"><path fill="#5273ed" d="M5233.513,3840.697c-0.314,0-0.63-0.015-0.948-0.047l-2548.023-250.908
						c-2.551-0.251-4.851-1.48-6.476-3.462c-1.625-1.98-2.382-4.477-2.13-7.026l152.02-1543.776c0.251-2.549,1.479-4.85,3.461-6.475
						c1.175-0.965,2.532-1.624,3.974-1.947l1383.672-871.138c3.272-2.06,7.593-1.077,9.653,2.194
						c2.06,3.271,1.077,7.593-2.194,9.653l-1384.913,871.918l-151.309,1536.559l2540.806,250.197
						c1.433-1.449,3.482-2.26,5.668-2.047c3.847,0.379,6.658,3.806,6.279,7.653
						C5242.564,3836.991,5238.382,3840.697,5233.513,3840.697z M2837.069,2040.804c0.009,0.001,0.018,0.002,0.027,0.002
						C2837.087,2040.806,2837.078,2040.805,2837.069,2040.804z" class="colored8d52 svgShape"></path></g><polygon fill="#b6d3f1" points="2834.921 2036.163 4222.792 1161.841 5386.196 2284.787" class="colorf1d1b6 svgShape"></polygon><g fill="#000000" class="color000000 svgShape"><path fill="#4c6c8c" d="M4621.449,2331.775c-0.052,0-0.103,0-0.154,0c-11.045-0.083-19.932-9.105-19.848-20.15
						c2.304-304.78-142.667-582.466-264.688-761.748c-132.913-195.285-268.265-319.54-269.616-320.772
						c-8.161-7.44-8.748-20.089-1.31-28.252c7.438-8.163,20.084-8.753,28.25-1.315c1.419,1.293,35.356,32.316,86.449,88.314
						c47.021,51.535,117.932,134.779,188.729,238.689c79.696,116.973,143.035,235.794,188.258,353.165
						c56.744,147.273,84.981,292.694,83.926,432.221C4641.362,2322.919,4632.424,2331.775,4621.449,2331.775z" class="color4c8c7d svgShape"></path></g><g fill="#000000" class="color000000 svgShape"><path fill="#4c6c8c" d="M3788.638,1407.634c2.302-3.452,4.566-6.928,6.834-10.403c0.059-0.091,0.11-0.17,0.164-0.253
						c0.238-0.371,0.476-0.742,0.713-1.114c0.945-1.479,1.887-2.96,2.827-4.441c4.313-6.794,8.582-13.616,12.868-20.427
						c6.905-10.973,13.755-21.98,21.435-32.433c11.53-15.691,24.685-30.964,40.37-42.647c17.232-12.836,41.325-20.474,61.305-8.943
						c12.924,7.458,21.189,19.056,26.77,32.72c4.735,11.595,7.866,24.751,8.317,37.296c0.761,21.161-4.683,42.292-15.468,60.517
						c-22.677,38.321-59.218,66.405-97.195,88.532c-12.728,7.416-25.765,14.416-39.059,20.918
						c157.787,105.305,316.094,71.881,394.895-235.567c-0.76-0.904-450.043-535.623-828.997-735.852
						c-10.231,71.251-6.754,150.091,7.434,231.476c10.458-3.025,20.984-5.844,31.658-8.238c19.24-4.316,38.658-8.26,58.41-9.152
						c18.415-0.831,37.504,0.362,54.568,7.949c17.625,7.836,33.089,25.409,34.578,45.276c1.668,22.264-11.776,38.572-30.732,48.002
						c-14.059,6.994-30.582,9.428-46.073,10.962c-16.799,1.665-33.742,1.792-50.607,1.477c-10.245-0.191-20.484-0.589-30.721-1.061
						c19.802,74.253,47.336,148.986,80.431,220.54c0.727-0.824,1.442-1.659,2.173-2.48c39.59-44.479,88.04-89.83,147.855-103.532
						c22.781-5.218,45.351-7.44,68.712-5.456c21.005,1.783,45.144,9.751,56.873,28.619c7.559,12.159,9.954,26.176,7.344,40.254
						c-0.821,4.428-2.411,8.723-3.817,12.978c-0.222,0.671-0.493,1.462-0.647,1.888c-0.13,0.39-0.25,0.786-0.385,1.173
						c-0.215,0.617-0.421,1.235-0.658,1.845c-1.89,4.877-4.93,9.286-7.814,13.601c-9.774,14.622-25.243,25.793-40.247,34.585
						c-39.298,23.029-83.083,37.582-126.427,50.882c-18.895,5.798-37.893,11.246-56.864,16.789
						c59.24,107.525,130.004,203.149,203.761,272.459c5.56-5.887,10.869-12.008,15.975-18.292
						C3769.719,1435.133,3779.386,1421.51,3788.638,1407.634z M3649.854,912.207c-2.061-2.917-3.214-7.175-2.655-10.979
						c-1.477-4.21-0.961-9.082,2.876-13.523c14.104-16.321,33.354-24.262,54.647-18.163c8.112,2.323,16.332,12.104,10.715,20.977
						c-5.225,8.254-10.934,16.086-19.579,21.065c-9.987,5.752-21.209,7.383-32.597,6.851
						C3657.829,918.182,3653.183,916.916,3649.854,912.207z M3850.317,1191.097c4.38-8.866,9.845-17.259,15.177-25.569
						c8.146-12.696,16.581-25.208,25.618-37.291c6.984-9.338,14.255-18.634,22.584-26.824c7.14-7.022,15.427-14.733,26.007-15.107
						c8.582-0.303,36.015,16.093,37.344,24.408c3.97,24.852-15.453,45.731-33.86,59.276c-8.468,6.232-17.64,11.831-27.206,16.705
						c-12.553,11.621-27.715,20.667-43.623,27.613c-6.651,2.905-12.428,0.501-15.951-3.974
						C3850.353,1206.436,3846.861,1198.093,3850.317,1191.097z" class="color4c8c7d svgShape"></path><path fill="#7292b2" d="M4213.416,1291.388c7.145-27.875,13.64-57.99,19.417-90.471
						c41.064-230.857,10.527-387.17-58.85-491.652c0.277,17.5-0.625,34.994-2.654,52.178
						c-5.046,42.733-23.208,95.543-72.794,101.193c-23.965,2.73-48.316-6.641-64.101-24.593
						c-12.226-13.904-16.665-34.113-16.165-52.208c1.205-43.663,18.228-85.701,36.105-124.984
						c7.715-16.953,16.015-33.629,24.454-50.231c-73.828-53.243-163.737-80.097-254.049-91.423
						c4.997,8.794,9.601,17.819,13.733,27.09c17.326,38.872,24.38,89.114-6.879,123.25c-27.683,30.231-80.368,48.855-113.91,16.871
						c-26.559-25.325-34.725-65.234-35.167-100.631c-0.228-18.257,1.004-36.953,5.301-54.752c1.506-6.241,3.302-12.495,5.546-18.575
						c-168.145,2.491-308.984,43.088-308.984,43.088C3763.373,755.765,4212.656,1290.484,4213.416,1291.388z M3884.43,812.981
						c-7.607-6.664-8.43-17.191-6.689-26.531c3.563-19.115,13.851-37.465,23.096-54.322c7.076-12.903,15.049-25.285,22.177-38.147
						c1.098-1.981,2.541-3.587,4.192-4.833c0.592-7.052,6.24-13.073,13.501-13.698c7.96-0.685,15.435,5.523,16.072,13.524
						c1.778,22.324-2.8,46.48-8.656,67.916c-5.358,19.617-13.339,45.357-32.178,56.313
						C3906.465,818.715,3893.356,820.801,3884.43,812.981z M3576.116,638.333c-0.134-1.33-0.053-2.638,0.184-3.905
						c-0.551-2.901-0.99-5.842-1.281-8.834c-0.875-9.025,8.112-18.378,17.503-15.882c29.783,7.915,40.702,39.854,32.171,67.192
						c-0.596,5.038-3.738,8.454-7.765,10.177c-4.193,2.093-9.372,2.483-13.17,0.243
						C3586.461,677.12,3578.074,657.724,3576.116,638.333z" class="color72b2a2 svgShape"></path></g><g fill="#000000" class="color000000 svgShape"><path fill="#3454cc" d="M3604.808,1959.708c-9.706,0-18.225-7.077-19.744-16.967
						c-30.81-200.616-126.154-350.065-283.382-444.196c-256.826-153.757-637.579-135.463-911.765-93.041
						c-299.111,46.279-539.885,130.629-542.282,131.476c-10.414,3.677-21.84-1.782-25.52-12.196
						c-3.679-10.415,1.78-21.839,12.194-25.519c2.426-0.857,246.144-86.284,548.795-133.182
						c178.135-27.603,341.734-36.709,486.244-27.065c182,12.146,334.354,54.263,452.833,125.18
						c167.963,100.539,269.712,259.501,302.42,472.472c1.677,10.918-5.814,21.127-16.732,22.804
						C3606.841,1959.631,3605.817,1959.708,3604.808,1959.708z" class="colorcc346f svgShape"></path></g><g fill="#000000" class="color000000 svgShape"><path fill="#3454cc" d="M1975.562,1791.838c-2.189-2.791-4.407-5.559-6.623-8.329c-0.058-0.072-0.109-0.135-0.162-0.201
						c-0.238-0.292-0.476-0.585-0.714-0.877c-0.948-1.162-1.9-2.323-2.852-3.483c-4.366-5.317-8.767-10.607-13.154-15.907
						c-7.067-8.539-14.178-17.042-20.616-26.071c-9.664-13.555-18.555-28.319-23.854-44.178c-5.822-17.424-5.59-39.031,9.111-52.179
						c9.509-8.505,21.136-12.12,33.725-13.002c10.682-0.749,22.203,0.222,32.512,3.207c17.389,5.034,33.097,15.099,45.018,28.726
						c25.066,28.652,38.115,65.831,45.942,102.584c2.623,12.318,4.827,24.776,6.557,37.309
						c127.669-100.022,142.806-237.522-85.845-383.638c-0.937,0.375-555.217,222.448-819.052,476.742
						c55.135,27.34,120.095,45.574,189.982,55.788c0.337-9.302,0.858-18.603,1.765-27.911c1.633-16.779,3.616-33.603,8.168-49.883
						c4.243-15.178,10.311-30.362,21.031-42.195c11.072-12.221,29.475-20.087,46.007-15.99c18.527,4.592,28.182,19.867,30.777,37.78
						c1.925,13.286-0.511,27.356-3.403,40.347c-3.135,14.088-7.557,27.883-12.317,41.496c-2.892,8.269-5.949,16.479-9.067,24.667
						c65.595,3.75,133.645,1.348,200.598-6.418c-0.475-0.81-0.962-1.614-1.434-2.427c-25.55-44.034-49.442-95.496-44.594-147.736
						c1.847-19.896,6.071-38.82,13.921-57.263c7.058-16.583,19.977-34.06,38.434-38.546c11.894-2.891,23.918-1.093,34.654,4.787
						c3.377,1.849,6.441,4.288,9.521,6.566c0.485,0.359,1.056,0.791,1.361,1.03c0.282,0.21,0.572,0.413,0.85,0.626
						c0.444,0.34,0.891,0.672,1.323,1.027c3.456,2.838,6.225,6.484,8.959,9.979c9.265,11.844,14.206,27.391,17.339,41.925
						c8.207,38.067,8.332,77.515,7.557,116.27c-0.338,16.894-0.987,33.78-1.552,50.667
						c103.151-19.394,199.714-51.325,275.705-92.715c-3.296-6.088-6.849-12.035-10.589-17.86
						C1992.843,1814.548,1984.361,1803.059,1975.562,1791.838z M1536.126,1772.229c-2.919,0.895-6.686,0.694-9.625-0.776
						c-3.813,0.075-7.632-1.645-10.214-5.948c-9.488-15.814-10.796-33.569-0.156-49.234c4.053-5.968,14.193-10.031,19.898-3.1
						c5.308,6.448,10.144,13.176,11.879,21.527c2.004,9.647,0.332,19.198-3.142,28.304
						C1543.109,1767.348,1540.839,1770.783,1536.126,1772.229z M1816.172,1683.91c-6.031-5.925-11.387-12.606-16.713-19.156
						c-8.136-10.007-16.044-20.199-23.444-30.766c-5.718-8.167-11.326-16.555-15.754-25.507c-3.796-7.674-7.845-16.464-5.323-25.157
						c2.046-7.051,22.69-24.952,29.797-23.81c21.245,3.413,33.014,24.765,39.098,43.332c2.799,8.542,4.897,17.487,6.3,26.558
						c6.085,13.299,9.383,28.029,10.775,42.804c0.583,6.177-2.912,10.228-7.488,11.894
						C1828.64,1687.978,1820.931,1688.585,1816.172,1683.91z" class="colorcc346f svgShape"></path><path fill="#4463d8" d="M1994.606,1415.801c-20.731-13.248-43.454-26.566-68.292-39.934
						c-176.526-95.011-311.634-111.96-415.021-83.521c14.287,4.448,28.254,9.854,41.668,16.091
						c33.359,15.512,71.398,44.367,62.743,86.149c-4.183,20.193-18.298,37.466-37.094,45.492
						c-14.558,6.216-32.156,4.423-46.719-0.816c-35.14-12.641-64.735-37.694-91.865-62.706
						c-11.708-10.794-23.035-21.989-34.264-33.277c-62.961,45.739-108.785,111.588-142.105,181.911
						c8.477-1.709,17.036-3.038,25.669-3.918c36.198-3.689,78.887,4.002,98.262,38.506c17.159,30.557,18.213,78.321-16.723,97.02
						c-27.662,14.806-62.255,10.779-91.122,1.683c-14.889-4.691-29.743-10.685-43.052-18.929c-4.666-2.89-9.266-6.019-13.605-9.466
						c-42.887,137.227-47.533,262.454-47.533,262.454C1439.389,1638.249,1993.669,1416.176,1994.606,1415.801z M1518.191,1555.212
						c-7.444,4.399-16.214,2.255-23.335-1.654c-14.573-7.999-26.728-21.255-37.95-33.267c-8.589-9.193-16.516-18.976-25.058-28.2
						c-1.315-1.42-2.234-3.022-2.805-4.695c-5.57-2.364-8.951-8.559-7.519-14.624c1.57-6.648,8.608-11.06,15.276-9.441
						c18.606,4.518,37.002,14.689,52.847,25.17c14.501,9.591,33.275,22.948,37.141,41.174
						C1528.733,1538.847,1526.926,1550.051,1518.191,1555.212z M1294,1758.967c-1.116-0.246-2.157-0.661-3.122-1.192
						c-2.503-0.328-5.009-0.756-7.516-1.319c-7.563-1.7-12.759-11.497-8.224-18.458c14.383-22.074,43.24-22.412,63.163-8.182
						c3.932,1.829,5.867,5.294,6.192,9.025c0.58,3.965-0.486,8.275-3.321,10.761C1328.264,1760.925,1310.271,1762.556,1294,1758.967
						z" class="colord84480 svgShape"></path></g><g fill="#000000" class="color000000 svgShape"><path fill="#0575e6" d="M2989.528,1979.681c0.797-4.813,1.542-9.633,2.293-14.454c0.019-0.126,0.036-0.235,0.053-0.351
						c0.075-0.513,0.151-1.026,0.226-1.539c0.298-2.042,0.591-4.085,0.882-6.127c1.335-9.367,2.612-18.743,3.911-28.115
						c2.093-15.099,4.111-30.209,7.287-45.125c4.768-22.392,11.48-45.123,22.639-65.23c12.26-22.091,34.387-41.928,61.376-39.234
						c17.458,1.742,31.925,10.175,44.515,22.12c10.682,10.136,20.4,22.722,26.951,35.948c11.049,22.31,15.435,47.59,12.691,72.337
						c-5.77,52.036-31.349,99.807-61.348,141.887c-10.054,14.103-20.641,27.911-31.743,41.308
						c220.031,36.547,373.526-75.836,309.287-443.442c-1.251-0.602-741.36-356.38-1244.327-387.694
						c23.494,81.308,65.35,164.121,119.916,244.48c9.745-8.3,19.662-16.412,29.943-24.14c18.532-13.93,37.436-27.549,58.173-38.057
						c19.333-9.797,40.368-17.749,62.325-17.871c22.678-0.126,47.751,11.229,58.955,31.8c12.555,23.053,6.034,47.034-9.72,66.307
						c-11.685,14.295-28.215,24.894-44.075,34.031c-17.199,9.909-35.295,18.239-53.522,26.058
						c-11.072,4.75-22.238,9.276-33.437,13.72c57.133,70.001,122.785,136.777,192.859,197.457c0.38-1.235,0.743-2.475,1.129-3.709
						c20.918-66.816,50.909-138.851,108.387-182.464c21.891-16.61,45.005-29.906,71.001-39.079
						c23.374-8.248,53.097-11.382,74.792,3.166c13.982,9.376,23.327,23.239,27.339,39.589c1.261,5.142,1.635,10.515,2.186,15.755
						c0.087,0.826,0.178,1.806,0.22,2.336c0.049,0.481,0.113,0.963,0.155,1.444c0.068,0.766,0.146,1.527,0.187,2.296
						c0.333,6.141-0.792,12.337-1.797,18.356c-3.404,20.397-14.579,39.851-26.407,56.53
						c-30.978,43.686-70.865,80.458-110.885,115.674c-17.446,15.352-35.172,30.379-52.822,45.494
						c115.491,86.585,237.576,154.844,350.142,193.453c3.112-8.998,5.841-18.126,8.274-27.33
						C2982.551,2018.301,2986.323,1999.027,2989.528,1979.681z M2601.188,1515.846c-3.62-2.129-6.915-6.134-8.155-10.482
						c-3.619-3.797-5.422-9.268-3.457-15.883c7.222-24.312,24.013-42.133,49.782-45.895c9.817-1.434,23.357,5.073,21.628,17.299
						c-1.608,11.373-3.938,22.527-10.795,32.045c-7.921,10.995-19.159,18.17-31.621,23.108
						C2612.625,1518.392,2607.032,1519.282,2601.188,1515.846z M2950.906,1717.786c0.406-11.621,2.204-23.258,3.899-34.743
						c2.59-17.546,5.579-35.035,9.42-52.355c2.969-13.385,6.266-26.864,11.231-39.67c4.256-10.978,9.407-23.25,20.566-28.768
						c9.051-4.475,46.381-0.171,51.825,8.097c16.274,24.714,5.556,56.485-7.62,79.902c-6.062,10.774-13.184,21.211-21.078,31.06
						c-7.833,18.525-19.707,35.553-33.396,50.69c-5.723,6.329-13.077,6.548-19.017,3.456
						C2958.362,1734.207,2950.585,1726.955,2950.906,1717.786z" class="color606dcc svgShape"></path><path fill="#84b7ea" d="M3388.547,1649.664c-5.824-33.33-13.428-68.745-22.945-106.35
						c-67.641-267.272-175.964-420.026-300.847-498.448c8.761,18.62,16.255,37.805,22.391,57.203
						c15.259,48.238,21.336,113.619-29.075,143.655c-24.363,14.516-54.992,16.25-80.591,4.645
						c-19.827-8.988-34.358-28.5-42.574-48.135c-19.826-47.377-21.913-100.662-21.752-151.409c0.069-21.9,0.899-43.786,1.914-65.66
						c-104.872-21.356-214.216-6.653-316.482,24.887c9.608,7.008,18.907,14.453,27.819,22.391
						c37.368,33.281,69.226,83.714,52.235,135.416c-15.048,45.787-62.503,91.227-113.92,73.171
						c-40.711-14.297-68.764-53.118-86.357-90.84c-9.074-19.456-16.795-40.088-20.799-61.243c-1.404-7.417-2.504-14.988-3.04-22.589
						c-178.998,83.99-310.303,195.611-310.303,195.611C2647.187,1293.284,3387.296,1649.062,3388.547,1649.664z M2804.597,1296.057
						c-11.375-3.462-17.349-14.347-20-25.199c-5.427-22.209-3.275-46.85-1.519-69.388c1.344-17.25,3.9-34.376,5.318-51.608
						c0.219-2.653,0.989-5.073,2.155-7.207c-2.776-7.844,0.365-17.028,7.844-21.21c8.199-4.584,19.212-1.546,23.765,6.721
						c12.702,23.065,19.478,51.168,23.57,76.973c3.745,23.615,7.64,55.061-7.251,75.913
						C2830.986,1291.544,2817.945,1300.12,2804.597,1296.057z M2389.708,1257.994c-0.787-1.361-1.333-2.801-1.692-4.274
						c-1.993-2.843-3.887-5.782-5.645-8.848c-5.302-9.249-0.194-23.619,11.078-25.486c35.746-5.921,62.896,23.027,66.974,56.451
						c1.798,5.687,0.082,10.868-3.4,14.662c-3.481,4.271-8.844,7.194-13.998,6.63
						C2419.554,1294.559,2401.185,1277.828,2389.708,1257.994z" class="color848dea svgShape"></path></g><g fill="#000000" class="color000000 svgShape"><path fill="#3454cc" d="M4495.85,2218.026c-3.761,0-7.563-1.059-10.943-3.274c-9.238-6.054-11.82-18.451-5.767-27.69
						c147.086-224.468,328.381-414.51,538.848-564.847c168.365-120.263,355.63-215.497,556.594-283.056
						c178.76-60.095,335.545-86.718,435.593-98.471c108.785-12.778,174.469-11.309,177.217-11.24
						c11.042,0.277,19.769,9.453,19.492,20.495c-0.277,11.039-9.457,19.746-20.488,19.493l0,0
						c-0.648-0.015-66.485-1.445-173.003,11.15c-98.217,11.614-252.126,37.87-427.589,97.001
						c-309.383,104.264-746.714,333.139-1073.206,831.398C4508.758,2214.844,4502.367,2218.026,4495.85,2218.026z" class="colorcc346f svgShape"></path></g><g fill="#000000" class="color000000 svgShape"><path fill="#3454cc" d="M6222.563,1612.079c-2.971,6.252-5.742,12.602-8.24,19.059
						c80.626,31.422,180.458,50.852,285.235,57.012c-2.702-16.68-5.487-33.346-7.964-50.061
						c-5.683-38.344-10.561-77.489-7.246-116.29c1.266-14.814,4.196-30.862,11.884-43.785c2.268-3.813,4.553-7.781,7.621-11.035
						c0.384-0.407,0.785-0.793,1.182-1.187c0.249-0.247,0.511-0.485,0.764-0.729c0.272-0.275,0.784-0.776,1.22-1.194
						c2.766-2.65,5.496-5.458,8.611-7.72c9.904-7.193,21.603-10.502,33.768-9.142c18.876,2.11,33.907,17.807,43.011,33.362
						c10.125,17.299,16.715,35.535,21.069,55.036c11.432,51.204-5.742,105.279-25.503,152.197c-0.365,0.866-0.746,1.725-1.114,2.589
						c67.397-0.785,135.203-7.03,199.792-19.066c-4.131-7.726-8.204-15.482-12.121-23.318c-6.448-12.9-12.583-26.022-17.479-39.599
						c-4.516-12.52-8.716-26.166-8.491-39.59c0.303-18.098,7.943-34.474,25.739-41.377c15.88-6.16,35.131-0.691,47.663,10.028
						c12.133,10.378,20.077,24.67,26.211,39.188c6.579,15.571,10.679,32.008,14.426,48.445c2.079,9.118,3.776,18.278,5.29,27.462
						c68.028-18.992,130.152-45.315,181.375-79.425c-293.947-218.791-871.91-368.796-872.887-369.05
						c-208.281,173.927-175.833,308.397-36.513,391.426c0.127-12.651,0.733-25.288,1.774-37.839
						c3.104-37.449,11.334-75.982,32.565-107.581c10.097-15.028,24.402-27.004,41.013-34.202c9.847-4.267,21.152-6.691,31.843-7.303
						c12.599-0.72,24.59,1.391,35.101,8.622c16.25,11.178,19.219,32.581,15.653,50.603c-3.246,16.403-10.193,32.175-18.061,46.846
						c-5.241,9.773-11.216,19.109-17.144,28.474c-3.68,5.814-7.374,11.618-11.031,17.446c-0.797,1.271-1.594,2.543-2.387,3.816
						c-0.2,0.32-0.398,0.64-0.597,0.96c-0.045,0.073-0.086,0.141-0.135,0.22c-1.847,3.029-3.697,6.055-5.514,9.101
						C6235.641,1586.723,6228.684,1599.195,6222.563,1612.079z M6666.61,1491.256c-4.6-8.592-7.47-17.854-6.705-27.677
						c0.663-8.504,4.606-15.791,9.054-22.86c4.781-7.599,15.354-4.854,20.131,0.552c12.54,14.189,13.494,31.967,6.088,48.856
						c-2.016,4.595-5.585,6.786-9.378,7.195c-2.729,1.831-6.44,2.508-9.449,1.99
						C6671.492,1498.475,6668.805,1495.356,6666.61,1491.256z M6370.28,1449.588c-4.75-1.072-8.73-4.647-8.935-10.848
						c-0.493-14.832,0.911-29.861,5.261-43.824c0.242-9.176,1.188-18.314,2.882-27.142c3.681-19.188,12.648-41.86,33.289-47.939
						c6.905-2.034,29.652,13.106,32.575,19.84c3.604,8.303,0.702,17.535-2.09,25.628c-3.256,9.441-7.755,18.473-12.392,27.298
						c-6,11.42-12.553,22.533-19.354,33.491c-4.452,7.172-8.918,14.478-14.149,21.12
						C6383.238,1452.453,6375.515,1452.827,6370.28,1449.588z" class="colorcc346f svgShape"></path><path fill="#4463d8" d="M7049.266,1572.939c0,0-20.486-123.628-80.425-254.31c-3.867,3.969-8.033,7.656-12.295,11.114
						c-12.156,9.865-26.131,17.694-40.305,24.235c-27.48,12.682-61.284,21.063-90.6,9.883
						c-37.024-14.119-42.035-61.63-28.889-94.117c14.844-36.683,56.213-49.724,92.587-50.654c8.675-0.222,17.333,0.011,25.958,0.632
						c-41.967-65.531-95.77-125.039-164.022-162.427c-9.708,12.621-19.524,25.161-29.769,37.352
						c-23.74,28.249-49.919,56.853-83.173,73.847c-13.781,7.043-31.01,11.053-46.239,6.733
						c-19.662-5.578-35.853-20.922-42.562-40.422c-13.884-40.347,20.191-73.792,51.313-93.409
						c12.515-7.888,25.684-15.021,39.292-21.245c-106.158-15.102-238.026,18.84-401.082,135.466
						c-22.942,16.409-43.793,32.501-62.677,48.27C6177.356,1204.143,6755.319,1354.148,7049.266,1572.939z M6654.859,1257.532
						c1.524-18.57,18.453-34.199,31.621-45.551c14.389-12.405,31.347-24.826,49.23-31.667c6.409-2.452,13.95,1.033,16.35,7.428
						c2.189,5.834-0.379,12.408-5.604,15.459c-0.354,1.733-1.063,3.438-2.188,5.013c-7.304,10.233-13.926,20.942-21.28,31.15
						c-9.608,13.337-19.984,28.028-33.426,37.81c-6.568,4.78-14.995,8.018-22.937,4.599
						C6657.306,1277.761,6654.093,1266.876,6654.859,1257.532z M6866.862,1452.15c-3.126-2.107-4.731-6.247-4.658-10.254
						c-0.151-3.742,1.329-7.423,4.998-9.737c17.959-16.642,46.625-19.965,63.691,0.107c5.381,6.329,1.47,16.706-5.817,19.351
						c-2.416,0.877-4.847,1.62-7.288,2.262c-0.891,0.649-1.871,1.193-2.946,1.579
						C6899.155,1461.082,6881.101,1461.745,6866.862,1452.15z" class="colord84480 svgShape"></path></g><g fill="#000000" class="color000000 svgShape"><path fill="#7292b2" d="M4835.813,1958.842c1.538,11.805,3.456,23.564,5.868,35.222
						c145.799-29.786,308.169-94.81,465.307-183.621c-19.458-21.581-39.025-43.066-58.192-64.908
						c-43.969-50.104-87.522-102.117-118.917-161.271c-11.986-22.585-22.718-48.506-23.661-74.348
						c-0.278-7.626-0.678-15.489,0.722-23.052c0.175-0.946,0.394-1.878,0.602-2.817c0.129-0.59,0.286-1.177,0.424-1.766
						c0.137-0.652,0.408-1.851,0.648-2.862c1.526-6.409,2.852-13.012,5.243-19.186c7.603-19.63,21.42-35.32,40.266-44.7
						c29.243-14.554,65.599-5.89,93.259,8.095c30.763,15.553,57.29,35.757,81.768,59.874
						c64.269,63.323,89.882,157.474,105.083,243.695c0.28,1.592,0.531,3.188,0.804,4.781
						c96.651-63.986,188.8-136.242,270.903-213.867c-13.174-7.311-26.293-14.719-39.26-22.389
						c-21.346-12.626-42.448-25.865-62.184-40.917c-18.2-13.879-36.995-29.68-49.188-49.286
						c-16.439-26.433-20.672-57.219-1.396-83.79c17.2-23.71,50.118-33.76,78.221-29.959c27.209,3.681,52.017,16.923,74.417,32.18
						c24.026,16.364,45.28,36.291,66.022,56.545c11.507,11.236,22.502,22.889,33.253,34.748
						c80.583-90.882,145.8-186.851,188.004-283.905c-628.763-42.011-1603.759,280.228-1605.408,280.772
						c-138.751,445.543,33.535,609.582,312.27,599.627c-11.614-18.399-22.523-37.223-32.725-56.328
						c-30.438-57.005-54.48-120.358-53.271-185.815c0.575-31.13,10.077-61.774,27.365-87.665
						c10.249-15.349,24.323-29.394,39.2-40.247c17.532-12.789,36.828-20.922,58.758-20.276c33.903,0.998,58.154,29.154,69.807,58.52
						c10.607,26.728,15.277,55.996,17.59,84.531c1.541,19.008,1.614,38.07,1.783,57.131c0.105,11.831,0.181,23.664,0.331,35.495
						c0.033,2.58,0.068,5.16,0.109,7.74c0.01,0.648,0.021,1.296,0.032,1.944c0.003,0.146,0.006,0.284,0.01,0.443
						c0.156,6.099,0.305,12.197,0.521,18.293C4831.066,1910.009,4832.645,1934.517,4835.813,1958.842z M5364.75,1370.163
						c-14.659-8.125-27.443-18.831-35.499-33.738c-6.973-12.905-8.07-27.112-8.236-41.474
						c-0.178-15.439,17.658-21.332,29.602-17.976c31.352,8.807,49.309,33.605,54.358,64.916c1.373,8.519-1.742,15.014-6.84,19.141
						c-2.236,5.192-6.966,9.63-11.797,11.688C5378.536,1376.042,5371.744,1374.04,5364.75,1370.163z M4897.721,1586.302
						c-7.863,2.88-16.947,1.427-23.027-7.342c-14.543-20.972-26.531-43.997-33.267-68.229
						c-8.207-13.484-15.362-27.571-21.147-41.906c-12.576-31.158-20.761-72.279,3.393-100.312c8.081-9.378,55.066-8.716,65.57-1.711
						c12.951,8.635,17.366,24.682,20.879,38.98c4.099,16.679,6.021,33.924,7.552,51c1.98,22.097,2.875,44.264,3.267,66.44
						c0.256,14.515,0.615,29.236-0.749,43.712C4919.116,1578.356,4908.306,1586.1,4897.721,1586.302z" class="color72b2a2 svgShape"></path><path fill="#4c6c8c" d="M5993.83,1131.339c0,0-144.891-159.528-353.366-292.455c-1.886,9.341-4.468,18.553-7.401,27.525
						c-8.365,25.59-21.257,49.935-35.636,72.604c-27.88,43.951-68.908,87.584-121.692,98.77
						c-66.664,14.127-118.21-49.851-129.511-109.05c-12.761-66.846,34.853-124.268,86.543-159.533
						c12.328-8.411,25.056-16.148,38.098-23.295c-121.751-55.55-254.985-91.359-388.47-81.732
						c-2.257,27.289-4.746,54.563-8.18,81.732c-7.958,62.957-19.111,128.701-51.312,184.266
						c-13.345,23.028-34.5,44.889-60.533,52.849c-33.611,10.277-71.315,3.204-99.194-18.714
						c-57.687-45.351-39.641-125.453-12.965-182.821c10.727-23.069,23.104-45.655,36.961-67.338
						c-167.473,77.178-326.357,249.196-453.199,569.768c-17.847,45.105-32.969,87.801-45.549,128.197
						C4390.071,1411.567,5365.066,1089.328,5993.83,1131.339z M5129.811,1043.411c-15.115-28.253-5.229-66.622,3.21-95.305
						c9.222-31.343,22.142-65.104,41.602-91.666c6.974-9.52,21.12-11.517,30.551-4.514c8.604,6.388,11.023,18.282,6.319,27.564
						c1.104,2.834,1.67,5.958,1.515,9.284c-1.012,21.597-0.594,43.246-1.7,64.854c-1.445,28.232-2.738,59.135-13.038,85.804
						c-5.032,13.031-14.189,25.569-28.853,28.034C5152.21,1070.358,5137.417,1057.627,5129.811,1043.411z M5617.628,1126.911
						c-6.482-0.129-12.662-4.615-16.293-10.471c-3.708-5.265-5.003-11.965-1.859-18.729c10.43-40.793,48.751-72.329,92.128-59.24
						c13.678,4.128,17.703,22.769,9.641,33.386c-2.673,3.52-5.493,6.86-8.422,10.065c-0.682,1.769-1.59,3.467-2.785,5.028
						C5672.619,1109.702,5647.15,1127.497,5617.628,1126.911z" class="color4c8c7d svgShape"></path></g><g fill="#000000" class="color000000 svgShape"><path fill="#748deb" fill-rule="evenodd" d="M4908.501,3553.399l-1883.248-176.493
						c-1.282-0.12-2.224-1.257-2.104-2.539l137.355-1465.627c0.12-1.282,1.257-2.224,2.539-2.104l1883.248,176.493
						c1.282,0.12,2.224,1.257,2.104,2.539L4911.04,3551.295C4910.919,3552.577,4909.783,3553.519,4908.501,3553.399z" clip-rule="evenodd" class="coloreb8674 svgShape"></path><path fill="#4361d1" fill-rule="evenodd" d="M5008.726,2483.956l-1883.248-176.493
						c-1.282-0.12-2.224-1.257-2.104-2.539l37.129-396.184c0.12-1.282,1.257-2.224,2.539-2.104l1883.248,176.493
						c1.282,0.12,2.224,1.257,2.104,2.539l-37.129,396.184C5011.145,2483.134,5010.008,2484.076,5008.726,2483.956z" clip-rule="evenodd" opacity=".47" class="colord15443 svgShape"></path><path fill="#86bdf4" fill-rule="evenodd" d="M5131.44,2297.085l-2091.818-196.04
						c-1.285-0.12-2.229-1.26-2.108-2.544l33.983-362.609c0.121-1.285,1.26-2.229,2.545-2.109l2091.818,196.04
						c1.285,0.12,2.229,1.26,2.109,2.545l-33.983,362.609C5133.864,2296.261,5132.725,2297.205,5131.44,2297.085z" clip-rule="evenodd" class="colorf4a086 svgShape"></path><rect width="234.612" height="1640.507" x="3947.466" y="1830.226" fill="#3454cc" transform="rotate(5.354 4065.125 2650.724)" class="colorcc346f svgShape"></rect><path fill="#3454cc" d="M4128.161,1863.568c-2.995-0.281-5.984-0.821-8.949-1.62
						c-63.447-17.199-384.139-108.063-467.176-208.298c-46.059-55.579-67.718-125.763-60.982-197.64
						c6.735-71.868,41.058-136.81,96.642-182.868c55.57-46.06,125.762-67.713,197.64-60.977
						c71.859,6.734,136.811,41.053,182.87,96.628l-0.001,0.009c83.032,100.226,112.757,432.215,117.873,497.753
						c1.338,17.212-5.758,34.014-19.07,45.023C4156.068,1860.643,4142.071,1864.872,4128.161,1863.568z M3875.424,1317.939
						c-43.624-4.088-86.223,9.052-119.946,36.996c-33.725,27.962-54.56,67.368-58.648,110.987
						c-4.087,43.615,9.062,86.214,37.006,119.938c38.052,45.937,201.889,109.529,338.873,151.905
						c-16.21-142.461-48.263-315.256-86.297-361.187C3958.449,1342.853,3919.034,1322.027,3875.424,1317.939z" class="colorcc346f svgShape"></path><path fill="#3454cc" d="M4148.702,1865.493c-13.91-1.304-26.878-8.05-35.943-19
						c-11.016-13.289-14.885-31.119-10.368-47.782c17.199-63.446,108.072-384.134,208.299-467.185l0.001-0.009
						c114.744-95.063,285.426-79.067,380.509,35.66c46.057,55.593,67.716,125.781,60.98,197.65
						c-6.736,71.877-41.058,136.814-96.642,182.873c-100.232,83.055-432.224,112.752-497.743,117.864
						C4154.734,1865.798,4151.696,1865.774,4148.702,1865.493z M4378.467,1413.32c-45.979,38.104-109.56,201.923-151.904,338.873
						c142.454-16.192,315.272-48.238,361.196-86.296c33.724-27.953,54.56-67.368,58.647-110.983
						c4.088-43.62-9.063-86.21-37.005-119.952c-57.697-69.615-161.3-79.347-230.935-21.633L4378.467,1413.32z" class="colorcc346f svgShape"></path></g><path fill="#b6d3f1" d="M4659.193,2739.74c-117.209,51.474-231.33,108.881-346.9,163.497
					c0,0-233.336,152.445-287.509,145.179c-54.172-7.267-152.882-121.497-254.64-198.78
					c-102.795-75.989-203.361-154.75-308.334-228.042c-103.454-75.179-209.243-147.45-315.515-219.122
					c-85.076-55.385-218.648-145.929-326.471-212.981L2682.86,3580.365c-0.117,1.192,0.753,2.252,1.944,2.37l2548.87,250.992
					c1.191,0.117,2.252-0.753,2.37-1.945l135.169-1372.714C5196.401,2528.469,4763.067,2691.792,4659.193,2739.74z" class="colorf1d1b6 svgShape"></path></g><g fill="#000000" class="color000000 svgShape"><path fill="#5273ed" d="M4028.686,3052.654c-1.591,0-3.066-0.092-4.434-0.274c-35.179-4.72-86.653-51.311-146.254-105.26
					c-35.604-32.227-72.419-65.551-110.273-94.299c-34.529-25.525-69.416-51.821-103.153-77.253
					c-66.58-50.187-135.426-102.083-205.052-150.694c-106.49-77.386-214.545-151.027-315.461-219.086l-22.344-14.553
					c-98.365-64.084-200.079-130.35-304.706-189.733c-1.921-1.09-2.595-3.532-1.504-5.454c1.091-1.921,3.533-2.593,5.454-1.504
					c104.839,59.504,206.658,125.838,305.123,189.988l22.396,14.587c101.031,68.135,209.156,141.825,315.685,219.238
					c69.683,48.652,138.588,100.593,205.226,150.823c33.723,25.42,68.594,51.705,103.135,77.238
					c38.169,28.988,75.115,62.43,110.844,94.771c58.614,53.054,109.234,98.873,141.951,103.261
					c14.814,1.987,54.901-8.43,161.552-69.373c64.259-36.719,122.654-74.809,123.237-75.189c0.153-0.101,0.313-0.189,0.479-0.268
					c36.947-17.461,74.369-35.507,110.56-52.959c77.016-37.14,156.653-75.543,236.441-110.583
					c73.624-33.987,295.486-122.531,473.756-193.678c105.171-41.974,196-78.223,239.245-96.368c2.041-0.854,4.382,0.104,5.236,2.141
					s-0.104,4.381-2.141,5.236c-43.311,18.172-134.169,54.434-239.375,96.421c-178.183,71.112-399.937,159.613-473.437,193.542
					c-79.727,35.014-159.299,73.386-236.252,110.495c-36.124,17.42-73.475,35.432-110.371,52.869
					c-4.112,2.679-61.012,39.632-123.409,75.287C4108.759,3028.926,4054.272,3052.654,4028.686,3052.654z" class="colored8d52 svgShape"></path></g></g><g fill="#000000" class="color000000 svgShape"><path fill="#90c3f7" d="M5941.204,2620.2c-7.061-106.568-45.858-210.836-110.179-296.097
				c-11.578-15.347-28.143-31.677-46.934-27.624c-10.251,2.212-18.404,10.413-23.104,19.789c-4.698,9.375-6.456,19.91-8.027,30.279
				c-18.331,120.938-19.369,243.749-20.369,366.064c-0.307,37.58-0.559,75.652,8.682,112.079
				c9.242,36.428,29.205,71.637,61.195,91.36c16.748,10.325,45.521,20.045,64.675,10.25c15.408-7.879,22.756-34.088,29.061-48.586
				c22.377-51.449,36.878-106.308,42.942-162.081C5942.589,2683.961,5943.311,2651.99,5941.204,2620.2z" class="colorf7b690 svgShape"></path><path fill="#81b5ea" fill-rule="evenodd" d="M5760.843,2287.419c4.696-18.991,12.755-40.888,31.656-45.93
				c19.934-5.318,50.611,17.857,63.528,33.944c78.279,97.49,109.464,215.923,109.918,340.861l-238.459-32.333
				C5725.748,2484.219,5736.897,2384.259,5760.843,2287.419z" clip-rule="evenodd" class="color818bea svgShape"></path><path fill="#90c3f7" d="M5405.039,2829.97c-14.628,12.348-14.27,36.317-3.905,52.411
				c10.364,16.095,361.302,66.475,427.854,56.956c52.857-7.56,65.359-37.522,63.421-79.411
				c-1.418-30.658-34.14-58.133-60.305-75.155c-18.048-11.742-36.133-2.61-55.571-0.011
				C5705.099,2794.311,5414.401,2822.065,5405.039,2829.97z" class="colorf7b690 svgShape"></path><path fill="#90c3f7" d="M5373.402,2804.884c-8.483-3.633-21.583-5.247-23.946,3.673
				c-1.407,5.307,2.789,10.468,7.291,13.61c4.501,3.142,9.837,5.591,12.651,10.305c4.854,8.132-0.658,19.255-8.977,23.779
				c-8.32,4.523-18.312,4.269-27.775,3.9c-25.637-1.001-51.274-2.002-76.912-3.004c-10.654-0.415-23.947,0.764-27.944,10.65
				c-2.92,7.22,1.022,15.305,5.469,21.699c17.818,25.623,45.955,43.843,76.624,49.62c30.669,5.778,63.506-0.958,89.425-18.341
				c15.664-10.505,29.067-25.19,35.198-43.027C5451.6,2828.019,5409.251,2820.235,5373.402,2804.884z" class="colorf7b690 svgShape"></path></g></g><g fill="#000000" class="color000000 svgShape"><ellipse cx="2563.151" cy="4664.57" fill="#acb9c6" rx="452.056" ry="27.397" class="colorc6b8ac svgShape"></ellipse><path fill="#6098d1" fill-rule="evenodd" d="M2686.275,3854.082
			c-12.021-68.357-24.044-136.715-36.066-205.072c-12.904-73.37-25.871-148.032-19.301-224.294
			c6.57-76.26,15.186-175.877,70.572-223.629c70.802-61.047,183.206-83.726,205.829,19.068
			c79.563,361.517-113.041,940.781-152.191,1071.357c-10.839,36.149-22.282,72.156-34.198,108.038h-99.793
			C2636.58,4196.913,2635.499,3963.049,2686.275,3854.082z" clip-rule="evenodd" class="color6a60d1 svgShape"></path><path fill="#86bdf4" d="M2621.126,4399.551h99.794c-13.958,42.029-28.59,83.879-44.012,125.492
			c-5.404,14.578-13.046,31.215-27.941,35.557c-19.047,5.551-44.411-11.203-41.576-30.605
			C2613.339,4489.305,2617.645,4445.207,2621.126,4399.551z" class="colorf4a086 svgShape"></path><path fill="#68a5e3" fill-rule="evenodd" d="M2616.833,3940.97c-12.208,33.07-31.888,70.287-63.23,71.38
			c-19.019,0.663-36.581-13.393-47.448-31.277c-10.866-17.884-16.239-39.274-21.438-60.232
			c-22.472-90.611-44.944-181.22-67.417-271.831c-18.196-73.37-36.549-148.032-35.48-224.292
			c1.069-76.261,24.405-155.744,76.345-203.498c66.398-61.047,187.127-53.667,210.8,50.338
			c31.359,137.777,29.868,291.026,8.868,430.469C2665.492,3783.973,2645.115,3864.365,2616.833,3940.97z" clip-rule="evenodd" class="color7368e3 svgShape"></path><path fill="#68a5e3" fill-rule="evenodd" d="M2470.005,3828.579
			c62.086-88.919,179.192-32.918,153.224,75.061c-31.373,130.452-81.823,259.542-132.505,383.499
			c-13.395,32.76-27.349,65.289-41.69,97.646l-97.192-31.353C2385.119,4150.771,2406.59,3919.4,2470.005,3828.579z" clip-rule="evenodd" class="color7368e3 svgShape"></path><path fill="#90c3f7" d="M2351.841,4353.432l97.192,31.353c-18.279,41.238-37.237,82.175-57.035,122.708
			c-6.678,13.67-15.753,29.029-30.848,30.928c-19.303,2.428-42.779-18.447-38.19-37.352
			C2333.979,4455.677,2343.293,4405.486,2351.841,4353.432z" class="colorf7b690 svgShape"></path><path fill="#68a5e3" fill-rule="evenodd" d="M2293.763 4560.793c1.675-17.618 3.434-35.575 10.47-51.813 6.888-15.893 11.609-32.489 26.403-41.497 2.006 8.891 12.797 22.369 21.722 24.22 7.05 1.462 44.89-11.576 51.156-8.031 4.511 2.554.76 76.099 19.555 94.099 18.794 18 42.304 30.107 63.822 44.743 7.504 5.103 14.963 10.716 19.804 18.392 4.842 7.676 6.608 17.884 2.284 25.863-.417.769-.958 1.292-1.434 1.946l-154.214-25.562c-2.745-5.858-4.898-12.086-6.97-18.203-7.441-21.977-14.882-43.953-22.323-65.93-10.319 24.166-16.989 49.87-19.832 75.991l-17.225-2.855C2289.242 4608.37 2291.503 4584.582 2293.763 4560.793zM2691.287 3435.143c-51.034-1.421-427.854 31.396-219.214-299.473 29.066-46.094 102.768-51.117 156.832-57.937 73.225-9.235 215.889-8.533 251.087 57.937C2989.821 3343.074 2747.759 3436.716 2691.287 3435.143z" clip-rule="evenodd" class="color7368e3 svgShape"></path><path fill="#3454cc" d="M2821.957,2688.166c-36.323-42.761-72.474-93.888-78.885-151.25
			c-2.005-17.931-2.158-20.863,15.328-19.425c13.771,1.133,28.907,7.778,41.637,12.828c26.031,10.328,50.511,24.391,73.363,40.517
			c23.888,16.858,46.039,35.946,67.476,55.861l-81.489,102.864C2846.51,2716.132,2834.002,2702.348,2821.957,2688.166z" class="colorcc346f svgShape"></path><path fill="#90c3f7" d="M2940.875,2626.698c14.196,13.189,28.09,26.73,41.937,40.264
			c76.143,74.425,152.287,148.849,228.431,223.273c7.194,7.031,14.788,14.82,16.202,24.78c2.246,15.814-13.057,29.793-28.878,31.982
			c-15.822,2.19-31.474-4.104-46.049-10.637c-109.799-49.22-209.861-119.956-293.133-206.799L2940.875,2626.698z" class="colorf7b690 svgShape"></path><path fill="#90c3f7" d="M3502.934,2739.946c6.03-8.976,11.734-21.287,5.076-29.806c-6.327-8.097-18.861-6.278-28.746-3.477
			c-83.501,23.649-297.273,158.424-304.438,196.749c-6.688,35.773,10.054,54.958,45.437,47.664
			C3292.271,2936.227,3478.789,2775.889,3502.934,2739.946z" class="colorf7b690 svgShape"></path><path fill="#3454cc" d="M2550.612,2975.451c13.482-127.724-123.693-234.872-110.811-362.659
			c8.788-87.181,94.968-156.001,182.583-154.849c87.615,1.15,168.122,64.834,199.429,146.674
			c14.851,38.82,19.857,81.35,14.532,122.572c-3.719,28.781-12.338,56.704-17.237,85.308
			c-10.035,58.597-3.999,118.373,9.852,175.816c12.079,50.099,38.036,97.877,51.031,147.358h-407.919
			C2483.891,3115.037,2546.72,3012.32,2550.612,2975.451z" class="colorcc346f svgShape"></path><path fill="#6098d1" fill-rule="evenodd" d="M2586.688,4593.691c-1.229-17.656-2.43-35.658,1.857-52.828
			c4.196-16.805,10.276-33.882,23.398-45.188c3.434,8.444,12.146,19.907,21.253,20.275c7.194,0.29,42.847-14.825,49.609-12.351
			c4.868,1.781,12.74,71.014,34.224,85.698c21.485,14.684,46.658,22.784,70.279,33.704c8.237,3.809,16.513,8.126,22.545,14.907
			c6.031,6.781,9.444,16.563,6.482,25.142c-0.285,0.826-0.733,1.432-1.095,2.154h-156.318c-3.667-5.331-6.809-11.123-9.852-16.819
			c-10.935-20.464-21.87-40.929-32.805-61.393c-6.229,25.528-8.605,51.978-7.138,78.211h-17.46
			C2590.007,4641.366,2588.348,4617.528,2586.688,4593.691z" clip-rule="evenodd" class="color6a60d1 svgShape"></path><path fill="#3454cc" d="M2370.742,2661.212c12.989-42.074,36.251-82.329,72.143-107.836
			c8.824-6.271,20.159-11.749,30.106-7.479c9.346,4.012,13.385,14.887,15.86,24.753c16.248,64.785,7.045,132.613-4.418,198.744
			l-130.099-20.364C2357.45,2719.285,2361.937,2689.735,2370.742,2661.212z" class="colorcc346f svgShape"></path><path fill="#90c3f7" d="M2350.499,2791.469c1.157-14.135,2.355-28.308,3.835-42.439l130.099,20.364
			c-1.097,6.324-2.205,12.638-3.323,18.928c-11.751,66.126-23.502,132.252-35.254,198.377c-4.408,24.797-3.793,54.631-26.118,70.773
			c-16.01,11.575-39.519,14.303-56.458,3.168c-14.689-9.656-23.248-26.675-26.501-43.949c-3.253-17.277-1.832-35.05-0.399-52.571
			C2341.087,2906.571,2345.793,2849.02,2350.499,2791.469z" class="colorf7b690 svgShape"></path><path fill="#90c3f7" d="M2420.279,3383.916c0.469,15.365,0.79,51.671-14.536,52.863
			c-11.885,0.923-24.288-28.686-26.944-40.307c-18.42-80.589-45.691-350.71-41.202-369.442
			c7.404-30.896,82.516-54.865,101.502-14.171C2458.362,3054.15,2416.013,3244.227,2420.279,3383.916z" class="colorf7b690 svgShape"></path><path fill="#90c3f7" d="M2441.133,3425.411c5.207,23.592,10.415,47.185,15.621,70.776
			c-1.947,4.889-9.811,3.689-12.94-0.542s-3.498-9.851-5.546-14.698c-2.05-4.847-7.571-9.28-12.236-6.846
			c-4.683,2.443-4.247,9.181-3.131,14.342c5.144,23.815,10.288,47.631,15.432,71.447c-15.804,10.887-38.685,6.042-52.906-6.844
			c-14.222-12.886-21.289-31.874-25.454-50.608c-5.794-26.067-6.933-53.162-3.345-79.624c2.072-15.271,6.367-31.449,18.21-41.311
			C2405.013,3356.375,2435.612,3400.4,2441.133,3425.411z" class="colorf7b690 svgShape"></path><path fill="#222d56" fill-rule="evenodd" d="M2736.097,2101.191
			c-10.819-26.89-36.965-46.975-65.735-50.498c-28.771-3.522-58.989,9.663-75.976,33.15c-8.644,11.952-14.335,26.556-26.163,35.368
			c-15.563,11.595-36.949,9.863-55.761,14.626c-28.555,7.229-52.066,31.534-58.341,60.313
			c-12.713,58.303,40.828,115.436,29.706,174.064c-5.064,26.694-22.927,49.014-41.466,68.88
			c-18.537,19.865-38.733,39.052-50.458,63.563c-11.725,24.511-12.969,56.405,5.082,76.715
			c12.899,14.513,32.764,20.373,51.725,24.559c21.133,4.665,42.73,5.345,64.372,5.345c50.069,0,50.069-103.091,52.625-182.813
			c1.479-46.135,108.267-51.144,121.312-95.422c7.152-24.277-0.979-50.385,1.476-75.574c2.395-24.565,15.017-41.917,30.652-59.863
			c11.686-13.415,19.557-33.95,21.871-51.32C2742.858,2128.464,2741.311,2114.152,2736.097,2101.191z" clip-rule="evenodd" class="color222b56 svgShape"></path><path fill="#86bdf4" d="M2669.1,2357.974c-5.306,32.327-3.265,65.84,5.927,97.284c2.845,9.735,6.148,21.039,0.3,29.325
			c-5.582,7.911-16.7,8.957-26.379,9.267c-16.213,0.519-32.754,0.999-48.305-3.618c-15.549-4.617-30.219-15.294-35.324-30.69
			c-4.215-12.714-1.463-26.561,1.321-39.664c5.34-25.129,10.68-50.258,16.02-75.387c1.565-7.366,3.312-15.101,8.352-20.696
			c8.454-9.388,23.807-9.465,35.011-3.627c11.204,5.837,19.229,16.203,26.887,26.252L2669.1,2357.974z" class="colorf4a086 svgShape"></path><path fill="#90c3f7" d="M2716.814,2347.092c8.096-16.234,10.126-34.724,11.96-52.771
			c2.523-24.83,4.901-50.032,0.632-74.622c-4.269-24.589-16.052-48.898-36.637-63.01c-24.85-17.035-58.349-16.417-86.891-6.772
			c-24.789,8.379-48.626,24.475-58.377,48.758c-5.298,13.194-6.051,27.704-6.737,41.905c-0.893,18.451-1.728,37.372,3.907,54.965
			c6.237,19.477,20.083,35.86,36.4,48.19c16.318,12.33,35.095,20.962,53.992,28.782c10.915,4.517,22.154,8.847,33.944,9.583
			C2692.496,2383.565,2707.063,2366.643,2716.814,2347.092z" class="colorf7b690 svgShape"></path><path fill="#222d56" fill-rule="evenodd" d="M2615.522,2194.07c-10.511,23.685-6.445,53.532-22.948,73.508
			c-13.411,16.232-39.314,20.346-57.093,9.066c-13.552-8.596-21.527-24.543-22.429-40.566c-0.902-16.022,4.693-31.964,13.594-45.318
			c8.9-13.354,20.958-24.329,33.792-33.962c19.76-14.832,42.006-26.934,66.174-32.061c15.322-3.25,31.399-3.533,46.721-0.126
			c11.564,2.57,33.958,8.865,37.06,22.551c3.063,13.519-8.845,15.999-18.453,13.338c-14.619-4.05-27.717-5.204-42.284,0.642
			C2634.612,2167.177,2622.095,2179.255,2615.522,2194.07z" clip-rule="evenodd" class="color222b56 svgShape"></path><path fill="#90c3f7" d="M2557.916 2262.338c-4.58-1.641-9.38-2.936-14.241-2.744-4.861.191-9.829 2.037-12.938 5.78-4.184 5.04-4.223 12.399-2.561 18.735 4.192 15.985 18.282 27.523 35.192 24.169 12.813-2.541 17.776-14.106 15.409-26.41C2576.752 2271.346 2567.278 2265.691 2557.916 2262.338zM3522.106 2619.625c-23.347 14.292-39.723 37.342-55.436 59.755-5.295 7.553-10.693 15.327-12.941 24.272-2.73 10.864-.323 22.905 6.372 31.885 37.044 49.655 88.888-25.216 87.412-42.661-.926-10.935 5.573-24.872 2.885-35.512-7.49-.863-15.11 5.047-16.15 12.512.094-55.993 61.123-31.794 70.584-67.692C3576.255 2600.868 3546.506 2604.689 3522.106 2619.625zM3526.165 2671.889c-.002-.037-.008-.074-.01-.111-.008-.43.046-.869.044-1.302C3526.152 2670.943 3526.175 2671.418 3526.165 2671.889z" class="colorf7b690 svgShape"></path></g></g></svg>