<svg xmlns="http://www.w3.org/2000/svg" viewBox="0 0 1364 960" id="AttorneyandJustice"><path fill="#e9f2fc" d="M302.576 145.238c-2.127-38.785-39.577-69.672-85.467-69.672s-83.34 30.887-85.467 69.672h-.099V440.828h171.132V145.238h-.099z" class="colore9ebfc svgShape"></path><path fill="#ffffff" d="M221.463 172.905h69.672v-26.638h-.085c-1.773-31.594-31.895-56.988-69.587-58.816v85.454zM212.754 172.905V87.45c-37.691 1.828-67.814 27.222-69.586 58.816h-.085v26.638h69.671zM221.456 180.72h69.686v84.904h-69.686zM143.082 180.72h69.672v84.887h-69.672zM221.456 273.441h69.686v75.583h-69.686zM143.082 273.441h69.672v75.567h-69.672zM221.456 357.303h69.686v75.583h-69.686zM143.082 357.303h69.672v75.567h-69.672z" class="colorffffff svgShape"></path><path fill="#e9f2fc" d="M121.632 440.829h190.749v11.321H121.632zM1225.914 145.238c-2.127-38.785-39.577-69.672-85.468-69.672s-83.34 30.887-85.467 69.672h-.099V440.828h171.132V145.238h-.098z" class="colore9ebfc svgShape"></path><path fill="#ffffff" d="M1144.801 172.905h69.672v-26.638h-.085c-1.773-31.594-31.895-56.988-69.587-58.816v85.454zM1136.092 172.905V87.45c-37.691 1.828-67.814 27.222-69.586 58.816h-.085v26.638h69.671zM1144.794 180.72h69.686v84.904h-69.686zM1066.42 180.72h69.672v84.887h-69.672zM1144.794 273.441h69.686v75.583h-69.686zM1066.42 273.441h69.672v75.567h-69.672zM1144.794 357.303h69.686v75.583h-69.686zM1066.42 357.303h69.672v75.567h-69.672z" class="colorffffff svgShape"></path><path fill="#e9f2fc" d="M1044.97 440.829h190.749v11.321H1044.97z" class="colore9ebfc svgShape"></path><path fill="#c8d5e3" d="M334.462 610.485h129.86c8.239 0 14.917-6.679 14.917-14.917V383.683c0-8.238-6.679-14.917-14.917-14.917h-129.86c-8.238 0-14.917 6.679-14.917 14.917v211.885c0 8.238 6.679 14.917 14.917 14.917zM310.34 898.835h11.234l53.553-259.354h-11.234zM465.765 639.481l53.552 259.354h11.234l-53.552-259.354z" class="colorc8cbe3 svgShape"></path><path fill="#c8d5e3" d="M348.313 656.7h138.886c9.889 0 17.905-8.016 17.905-17.905 0-9.889-8.016-17.905-17.905-17.905H348.313c-9.889 0-17.905 8.016-17.905 17.905 0 9.888 8.016 17.905 17.905 17.905z" class="colorc8cbe3 svgShape"></path><path fill="#cbe2f9" d="m482.494 805.865-11.215 31.23c8.218 6.629 17.184 10.815 27.46 10.719l13.741-31.03-29.986-10.919z" class="colorf9cbcb svgShape"></path><path fill="#3b4363" d="M471.278 837.095c-7.418 5.976-11.492 14.774-12.428 26.219l71.38 28.894c15.725-26.237-30.588-29.571-31.492-44.394-10.451-.687-19.271-5.002-27.46-10.719z" class="color3b3b63 svgShape"></path><path fill="#313854" d="M511.28 837.653c-17.057-3.551-25.693-7.241-39.617-16.396 5.665-24.268 20.295-132.725 42.698-190.03-35.464-32.694-178.24 8.622-122.271-132.448l72.855 15.631c-3.517 15.992 109.623 46.632 120.176 87.57 11.687 45.336-43.693 156.854-73.841 235.673z" class="color313154 svgShape"></path><path fill="#cbe2f9" d="m504.866 827.983-.1 33.389c9.904 3.171 19.694 3.777 29.285-.11l2.531-34.136-31.716.857z" class="colorf9cbcb svgShape"></path><path fill="#3b4363" d="M538.524 841.189c-12.104 2.956-30.997 2.423-42.356-1.026-1.99-24.823-9.682-119.399-8.418-181.337-18.611-10.499-80.354-10.647-112.533-31.068-21.672-13.753-19.178-46.003-4.642-95.375l53.457-.981c1.454 16.278 99.893 55.021 116.531 89.488 18.425 38.169-.741 135.352-2.039 220.299zM504.766 861.372c-4.956 8.338-5.841 18.081-2.905 29.145l76.467.68c5.986-30.381-38.493-16.388-44.278-29.935-10.016 3.22-19.712 2.438-29.284.11z" class="color3b3b63 svgShape"></path><path fill="#d0ddeb" d="M431.387 596.523c-14.644 21.942-72.228 18.534-76.122-18.46-2.382-22.625 88.302-49.475 88.302-49.475-2.861 43.075-3.957 55.613-12.18 67.935z" class="colord0d0eb svgShape"></path><path fill="#cbe2f9" d="m414.676 366.024-41.462 88.582s-46.066 18.567-67.05 12.715c-13.145-3.666-32.921-16.148-46.573-25.509-9.049-6.202-15.446-11.039-15.446-11.039-14.627 12.053-37.679 8.776-47.898-.741-15.485-14.354 13.145-.117 29.956-12.911 0 0-13.496-8.776-6.202-11.936 6.202-2.691 19.464.897 28.162 6.202 6.747 2.457 13.847 4.33 21.023 6.046 15.291 3.627 31.087 6.319 45.051 11.506 17.905-16.459 66.895-52.15 100.439-62.915zM711.546 438.106c-10.259 9.518-33.272 12.794-47.938.78-10.423 4.341-78.779 48.094-93.3 45.48-17.912-3.224-57.143-12.989-81.092-29.761l-.738-75.592c36.274 23.364 60.199 52.736 78.103 69.236 21.826-1.354 78.911-25.652 89.179-29.249 13.691-8.074 25.83-8.433 31.992-5.741 7.334 3.159-6.202 11.935-6.202 11.935 16.812 12.795 45.48-1.442 29.996 12.912z" class="colorf9cbcb svgShape"></path><path fill="#ffffff" d="m488.05 378.952 1.165 75.653-1.404 71.926-27.643 1.616-12.727.256-27.928 1.326-9.869.469-46.65 2.184 10.22-77.777 40.136-88.386 25.47-3.627 25.822 5.539z" class="colorffffff svgShape"></path><path fill="#cbe2f9" d="M438.823 362.596c5.612 16.451 15.762 16.66 25.816 5.532l2.133-7.761 5.436-19.851-11.738-2.661-11.512-2.63-1.635-.369-.353 1.122-2.149 7.04-2.389 7.761-1.812 5.917-1.797 5.9z" class="colorf9cbcb svgShape"></path><path fill="#43538f" d="M490.285 325.028c1.221-1.025 19.261-22.55 1.221-45.306-15.31-19.311-48.28-10.111-52.174 7.074 0 0-11.785-.426-17.525 15.565-5.421 15.101 5.94 34.088 23.573 39.633 24.022 7.557 44.905-16.966 44.905-16.966z" class="color8f5343 svgShape"></path><path fill="#4d5573" d="M650.75 447.528c-19.19 12.521-55.075 34.442-74.539 36.782h-.039c-2.184.273-4.135.312-5.851.04-17.981-2.809-57.065-12.95-81.014-29.684l-.077-.078-1.444 73.798h-27.889c-1.834-14.081-3.042-27.187-3.589-40.058-1.638-36.119 1.6-70.482 8.348-120.214l1.014.351c17.396 6.046 33.856 14.627 48.6 25.666 25.899 19.386 42.642 34.82 56.294 47.379 23.168-7.06 50.112-12.703 69.81-17.813l10.376 23.831z" class="color4d4d73 svgShape"></path><path fill="#d0ddeb" d="M576.158 484.327c-2.183.274-4.134.312-5.85.039-17.982-2.808-57.065-12.949-81.014-29.683l-.078-.078.311-28.318c19.949 3.434 21.012 34.211 86.631 58.04z" class="colord0d0eb svgShape"></path><path fill="#4d5573" d="M440.355 477.445a710.105 710.105 0 0 1-.703 18.957c-1.247 24.379-3.705 46.456-7.879 70.794-.741 4.486-1.56 9.01-2.418 13.652-2.106 11.351-12.13 19.503-23.676 19.503h-42.906c-7.098 0-12.521-6.358-11.35-13.379l21.804-132.384s-.156.078-.507.195c-4.992 1.989-46.845 18.021-66.543 12.521-13.144-3.667-32.92-16.148-46.572-25.51l9.595-24.378c15.291 3.627 31.088 6.319 45.052 11.507 13.106-12.053 42.827-37.172 70.989-54.022a88.774 88.774 0 0 1 52.307-12.443l1.286.117c1.56 48.366 2.341 84.095 1.521 114.87z" class="color4d4d73 svgShape"></path><path fill="#d0ddeb" d="M393.34 447.974c-21.045 57.318 3.413 84.408-26.835 152.393h-3.745c-7.098 0-12.521-6.357-11.351-13.378l21.805-132.384 20.126-6.631z" class="colord0d0eb svgShape"></path><path fill="#aecae6" d="M442.431 350.779c5.26 4.762 16.709 10.102 24.341 9.589l5.436-19.851-11.738-2.661-11.512-2.63-1.988.753-2.149 7.04-2.39 7.76z" class="colore6aeae svgShape"></path><path fill="#cbe2f9" d="M490.857 290.136s3.639 50.645-10.876 59.991c-14.36 9.246-41.49 3.717-47.149-28.768 0 0-8.934-7.769-4.078-15.634 6.143-9.952 13.498 7.575 13.498 7.575 6.991-12.819 38.25-4.075 48.605-23.164z" class="colorf9cbcb svgShape"></path><path fill="#d0ddeb" d="M440.355 477.445a710.105 710.105 0 0 1-.703 18.957l-11.38-75.099a8.373 8.373 0 0 0-4.204-6.059l-9.393-5.231 24.158-47.438a2112.073 2112.073 0 0 1 1.522 114.87zM482.456 412.755l-11.546 6.796a6.904 6.904 0 0 0-3.297 4.749l-11.306 64.027c-1.638-36.119 1.6-70.482 8.348-120.214l17.801 44.642z" class="colord0d0eb svgShape"></path><path fill="#85c2ff" d="M217.007 504.393H1217.61v33.046H217.007z" class="color85c2ff svgShape"></path><path fill="#cbe2f9" d="M918.673 423.351s-17.852-20.052-25.408-12.796c-7.556 7.256-7.778 24.421-1.111 27.932s18.371 5.462 18.371 5.462l8.148-20.598z" class="colorf9cbcb svgShape"></path><path fill="#516dd4" d="M1014.823 379.424c-19.512 14.221-25.965 51.442-34.522 78.788L917.71 420.62l-12.074 23.329s64.298 53.835 78.52 51.963c45.304-5.965 60.05-92.312 60.05-92.312l-29.383-24.176z" class="colord45151 svgShape"></path><path fill="#cfe7ff" d="M815.955 369.221h82.076v109.231h-82.076z" class="colorffeccf svgShape"></path><path fill="#cbe2f9" d="M840.252 434.582s-17.852-20.052-25.408-12.796c-7.556 7.256-7.778 24.421-1.111 27.932 6.667 3.511 18.371 5.462 18.371 5.462l8.148-20.598z" class="colorf9cbcb svgShape"></path><path fill="#b2d7fd" d="M993.092 337.277s.645 17.096-6.385 33.052h35.857s-6.771-23.128-4.288-35.656l-25.184 2.604z" class="colorfdbeb2 svgShape"></path><path fill="#516dd4" d="m1058.759 590.357-109.63-12.129c2.359-64.818-24.359-115.077-12.726-187.573 13.022-9.771 46.11-21.318 51.136-22.997 9.18 2.717 18.765 3.79 34.348-1.112 4.719 1.549 43.655 10.204 60.448 22.084-16.166 69.66-30.196 138.588-23.576 201.727z" class="colord45151 svgShape"></path><path fill="#516dd4" d="M936.402 390.655c-19.512 14.221-25.965 51.442-34.522 78.788l-62.591-37.592-12.074 23.329s64.298 53.835 78.52 51.963c45.304-5.965 60.05-92.312 60.05-92.312l-29.383-24.176z" class="colord45151 svgShape"></path><path fill="#cbe2f9" d="m1030.913 855.182 1.531 24.31c-6.34 1.92-12.584 2.208-18.659-.366l-5.692-20.246 22.82-3.698z" class="colorf9cbcb svgShape"></path><path fill="#3b4980" d="M1032.444 879.492c3.082 5.363 3.557 11.581 1.585 18.6l-48.732-.339c-3.538-19.419 24.678-10.053 28.487-18.627 6.353 2.153 12.539 1.753 18.66.366z" class="color3d3b80 svgShape"></path><path fill="#cbe2f9" d="m962.541 857.172 2.668 22.321c-6.34 1.92-12.584 2.208-18.66-.366l-4.306-19.146 20.298-2.809z" class="colorf9cbcb svgShape"></path><path fill="#3b4980" d="M965.21 879.492c3.082 5.363 3.557 11.581 1.585 18.6l-48.732-.339c-3.538-19.419 24.677-10.053 28.487-18.627 6.353 2.153 12.539 1.753 18.66.366z" class="color3d3b80 svgShape"></path><path fill="#0575e6" d="M959.467 561.079c-30.231 20.1-73.748 37.309-75.839 69.574-2.166 33.428 50.765 234.549 50.765 234.549 8.584 2.935 27.216 2.269 35.534-1.435l-32.783-236.436 70.949-31.065-48.626-35.187z" class="color3a67b3 svgShape"></path><path fill="#0575e6" d="M1019.377 585.313s-81.291 19.735-78.59 41.089c4.201 33.212 59.696 237.48 59.696 237.48 9.649 2.563 28.281 1.202 36.305-2.293l-36.305-229.28 59.762-17.396-40.868-29.6z" class="color3a67b3 svgShape"></path><path fill="#c8d5e3" d="M900.099 901.4h10.666l50.844-261.919h-10.666zM1047.663 639.481l50.843 261.919h10.666l-50.843-261.919z" class="colorc8cbe3 svgShape"></path><path fill="#0575e6" d="M1044.637 626.402h-74.822c-15.336 0-27.769-12.939-27.769-28.901 0-15.961 12.433-28.901 27.769-28.901h74.822c15.336 0 27.768 12.94 27.768 28.901 0 15.962-12.431 28.901-27.768 28.901z" class="color3a67b3 svgShape"></path><path fill="#c8d5e3" d="M984.121 558.184h41.031v56.728h-41.031z" class="colorc8cbe3 svgShape"></path><path fill="#c8d5e3" d="M1086.952 626.407v11.804c0 9.837-8.295 17.783-18.643 17.783H940.962c-3.95 0-7.663-1.135-10.665-3.178v-.076c-4.819-3.178-7.979-8.475-7.979-14.529v-11.804c0-9.837 8.374-17.783 18.643-17.783h127.347c1.422 0 2.843.151 4.187.454 8.295 1.816 14.457 8.854 14.457 17.329zM1051.202 572.589h-93.208c-6.481 0-12.423-1.98-17.207-5.278-8.102-5.717-13.04-15.246-11.96-25.583 3.704-36.871 3.704-72.936.077-108.122-1.698-16.566 11.728-30.933 29.166-30.933h92.822c2.238 0 4.321.22 6.405.733 14.428 3.006 24.691 15.98 22.685 30.494-4.784 35.331-4.476 71.177.385 107.535 2.161 16.566-11.65 31.154-29.165 31.154z" class="colorc8cbe3 svgShape"></path><path fill="#b2d7fd" d="M979.454 276.885c-.3.855-16.415 60.669 3.142 65.941 19.558 5.272 37.518-1.387 38.732-2.533 1.213-1.145 1.477-58.864 1.477-58.864l-43.351-4.544z" class="colorfdbeb2 svgShape"></path><path fill="#43538f" d="M986.285 252.501c-7.887 4.148-24.698 16.011-10.805 35.354s29.296 20.057 25.74 37.495c-8.745 42.885 27.195 27.086 14.624 54.097-12.571 27.011-18.386 75.258 10.651 82.033 29.037 6.774 33.336-22.801 50.014-7.746 16.678 15.055 61.463-6.146 45.13-63.348-13.076-45.793-34.282-33.181-34.787-46.982-.506-13.8-.36-30.88-19.256-42.724-15.885-9.956-23.893-33.442-29.321-39.579-7.182-8.121-23.613-23.524-51.99-8.6z" class="color8f5343 svgShape"></path><path fill="#c8d5e3" d="m601.677 413.497-24.158 85.97h-56.01v7.741h175.07l26.333-93.711zM243.881 537.438h11.316v360.654h-11.316zM1176.974 537.438h11.316v360.654h-11.316z" class="colorc8cbe3 svgShape"></path><path fill="#30364d" d="M295.269 257.223c-.236 0-.236.367 0 .367s.237-.367 0-.367z" class="color30334d svgShape"></path><path fill="#6291c0" d="M377.354 178.066c-17.825-13.565-41.076-19.11-63.398-17.237-14.427 1.211-28.82 5.496-40.578 13.944-11.758 8.448-20.662 21.317-22.699 35.651-2.037 14.334 3.452 29.905 15.082 38.527 12.294 9.115 28.984 9.484 44.124 7.246 19.161-2.833 37.679-9.195 56.871-11.814 7.938-1.083 16.325-1.46 23.659 1.766 7.334 3.227 13.159 7.029 15.545 17.71 11.852-45.726-10.78-72.228-28.606-85.793z" class="color62c0a6 svgShape"></path><path fill="#ffffff" d="M270.822 209.823a6.882 6.882 0 1 1 13.764 0 6.882 6.882 0 0 1-13.764 0zM298.617 209.823a6.882 6.882 0 1 1 13.764 0 6.882 6.882 0 0 1-13.764 0zM326.412 209.823a6.882 6.882 0 1 1 13.764 0 6.882 6.882 0 0 1-13.764 0zM354.207 209.823a6.882 6.882 0 1 1 6.882 6.882 6.881 6.881 0 0 1-6.882-6.882z" class="colorffffff svgShape"></path><path fill="#6291c0" d="M345.22 257.522c-1.843.413-3.549 1.304-5.317 1.963-1.78.664-3.585 1.261-5.387 1.861-3.619 1.204-7.23 2.405-10.924 3.361-7.353 1.903-14.916 3.037-22.516 3.16-13.371.217-26.803-2.783-38.312-9.729-6.238-3.764-11.96-8.769-16.398-14.558-.212-.277-.685-.029-.484.283 3.563 5.55 7.989 10.164 13.301 14.074 5.373 3.955 11.381 6.996 17.682 9.169 14.255 4.918 29.505 4.84 44.117 1.54 4.323-.976 8.638-2.178 12.798-3.711 2.057-.758 4.071-1.635 6.063-2.549 2.05-.941 4.314-1.744 6.119-3.106.844-.634.384-2.01-.742-1.758zM414.939 210.437c-1.774-7.401-5.135-14.342-9.782-20.364a52.8 52.8 0 0 0-7.931-8.24 53.167 53.167 0 0 0-4.27-3.234c-1.485-1.006-3.247-2.157-4.97-2.674-.411-.123-.755.437-.427.733 1.28 1.158 2.866 2.081 4.253 3.118 1.526 1.141 3.003 2.332 4.407 3.622a54.366 54.366 0 0 1 7.161 8.047c4.286 5.892 7.34 12.607 8.904 19.724.377 1.726 3.069.997 2.655-.732zM362.463 252.83c-.787-.412-1.882-.271-2.746-.191-.866.081-1.731.218-2.575.433-.817.208-1.61.488-2.375.841-.814.376-1.734.785-2.249 1.543-.431.635.129 1.729.937 1.632.313-.038.567-.067.854-.203.176-.084.346-.182.521-.267.307-.15.5-.237.775-.343.703-.273 1.419-.52 2.151-.704a15.04 15.04 0 0 1 1.073-.228c.391-.068.473-.077.889-.113a14.28 14.28 0 0 1 1.095-.052c.442-.004.934.086 1.353-.077.469-.182.828-.506.891-1.034.056-.47-.149-1.004-.594-1.237z" class="color62c0a6 svgShape"></path><path fill="#476eff" d="M1199.257 192.504c-23.317-40.656-108.205-36.422-116.197 17.182-3.875 19.42 12.761 35.879 27.959 44.882 23.506 13.925 2.118 27.604-20.088 24.448 49.021 25.112 139.646-31.9 108.326-86.512z" class="colorffbc47 svgShape"></path><path fill="#ffffff" d="M1142.032 235.676c0-3.294.483-6.885 1.455-10.772.97-3.888 2.376-8.612 4.216-14.175l.766-2.348c1.43-4.698 2.147-8.639 2.147-11.825 0-5.022-1.533-7.533-4.599-7.533-1.942 0-2.912 1.215-2.912 3.645 0 .595.358 2.053 1.073 4.374 0 .055-.256.216-.766.486-1.74.81-3.017 1.215-3.833 1.215-2.862 0-4.292-1.808-4.292-5.426v-.81c0-1.403.279-2.604.843-3.604.56-.999 1.609-1.876 3.143-2.632 1.736-.756 3.881-1.134 6.437-1.134 2.247 0 4.189.216 5.825.648 1.634.432 2.964 1.026 3.986 1.782 1.634 1.296 2.656 3.213 3.067 5.751.1.595.153 1.648.153 3.159 0 4.752-1.533 9.936-4.6 15.551-1.329 2.322-2.452 5.252-3.372 8.788-.92 3.537-1.38 7.196-1.38 10.975 0 2.97.05 4.778.153 5.427-1.839 0-2.862.055-3.065.162a3.028 3.028 0 0 1-.767.081c-2.045-.004-3.272-.597-3.678-1.785zm0 9.962c-1.126-.539-1.687-1.215-1.687-2.025 0-.755.614-1.47 1.84-2.146 1.226-.675 2.606-1.013 4.139-1.013 1.226 0 2.452.352 3.678 1.053 1.227.702 1.841 1.376 1.841 2.025 0 2.053-2.046 3.078-6.133 3.078-1.533-.001-2.759-.324-3.678-.972z" class="colorffffff svgShape"></path><path fill="#476eff" d="M1219.656 212.109a52.478 52.478 0 0 0-.942-8.126 54.389 54.389 0 0 0-5.502-15.328c-4.91-9.111-12.569-16.584-21.703-21.426-5.05-2.677-10.48-4.471-16.166-5.065-.622-.065-.724.914-.145 1.072 9.344 2.553 18.159 6.832 25.219 13.557a50.69 50.69 0 0 1 14.514 25.734 52.791 52.791 0 0 1 1.179 8.617c.156 2.892-.317 5.806-.134 8.673.114 1.791 2.653 2.248 3.189.431.747-2.534.59-5.523.491-8.139zM1217.597 230.544a12.822 12.822 0 0 0-.089-.678c-.04-.248-.183-.378-.263-.598-.089-.247-.462-.431-.661-.174-.12.153-.29.229-.413.391-.118.157-.205.347-.304.516-.204.349-.397.707-.587 1.064-.427.804-.722 1.672-1.077 2.508.073-.171-.142.316-.166.368a23.947 23.947 0 0 1-.861 1.694c-.207.369-.424.733-.652 1.09-.114.178-.239.351-.349.532-.222.364-.28.677-.33 1.096-.146 1.219 1.437 1.924 2.373 1.361.854-.514 1.305-1.681 1.721-2.556.409-.86.776-1.743 1.092-2.642.3-.856.55-1.748.605-2.659a7.883 7.883 0 0 0-.039-1.313zM1104.447 261.792c-1.169-.677-2.591-.984-3.829-1.542a36.293 36.293 0 0 1-10.121-6.804c-1.979-1.881-3.786-3.92-5.325-6.177-1.529-2.243-3.007-4.643-4.093-7.132-.206-.472-.963-.134-.822.347.819 2.813 1.806 5.397 3.347 7.901 1.515 2.461 3.313 4.795 5.361 6.837a39.3 39.3 0 0 0 6.688 5.349 36.502 36.502 0 0 0 3.913 2.16c1.322.626 2.75 1.365 4.207 1.553 1.371.176 1.737-1.876.674-2.492z" class="colorffbc47 svgShape"></path><path fill="#021b79" d="M196.038 875.845c-5.721-24.602-9.515-95.284 3.647-142.671 11.393-41.025.198-65.086.084-65.326l2.431-1.173c.485 1.007 11.774 25.134.084 67.221-13.037 46.951-9.283 116.97-3.615 141.337l-2.631.612z" class="color0d3f75 svgShape"></path><path fill="#021b79" d="M209.603 877.851c-1.84-.644-10.834-7.285-7.214-74.943 3.647-68.22-31.823-79.257-32.182-79.36l.749-2.594c1.547.449 37.89 11.757 34.127 82.097-3.536 66.122 5.447 72.254 5.539 72.307l-1.019 2.493z" class="color0d3f75 svgShape"></path><path fill="#021b79" d="M204.863 873.997c-2.001-8.592 1.687-27.367 5.59-47.244 2.626-13.378 5.344-27.214 5.89-36.6.556-9.571-.936-20.979-2.381-32.016-2.025-15.471-3.936-30.085-.731-40.407 2.025-6.512 6.755-11.363 12.979-13.312 6.697-2.08 14.237-.569 20.18 4.074l-1.661 2.125c-5.246-4.098-11.87-5.461-17.712-3.62-5.445 1.703-9.426 5.798-11.208 11.535-3.032 9.758-1.155 24.087.828 39.255 1.461 11.16 2.971 22.698 2.4 32.524-.556 9.568-3.29 23.495-5.935 36.965-3.678 18.722-7.48 38.082-5.608 46.11l-2.631.611z" class="color0d3f75 svgShape"></path><path fill="#193394" d="M127.062 754.263c7.809-3.22 16.894-18.493 25.427-18.134 1.948 9.718-12.449 10.136-17.855 15.903-4.472 5.948 16.758 9.207 25.929 3.118 7.69-4.665 4.411-15.706 12.662-32.227 6.851-14.222 11.988-14.687 12.541-23.191 1.007-15.56-15.149-29.669-16.865-28.652-.692.411 1.281 3.074 2.143 10.067.616.571.619 28.114-6.533 19.086-5.011-11.428 7.979-19.936-.763-32.891-6.558-9.711-23.377-9.346-23.734-8.137 8.539 1.953 14.036 23.827 10.385 32.65-2.626 5.111-4.756.827-5.523-4.322-4.766-16.603-6.126-25.684-18.386-32.291-15.028-8.099-26.746 6.233-45.676 9.572 0 0-4.312 23.179 5.078 35.919 9.037 12.261 21.48.553 31.399 3.415 4.416.819 5.568 6.465 2.847 9.225-3.798 5.612-12.719 6.188-19.158 6.534-10.667.567-14.484-1.675-15.676.315-3.33 5.163 13.413 19.194 22.409 15.872 11.412.781 23.929-18.596 35.456-13.744.375 9.058-22.2 19.369-31.931 20.118-5.165-.19-8.689-2.476-9.17-1.673 2.487 5 17.786 15.889 24.994 13.468z" class="color195494 svgShape"></path><path fill="#8db6e0" d="M146.222 752.351a16.364 16.364 0 0 0 7.263-2.867c2.089-1.474 3.734-3.425 4.994-5.637 1.376-2.428 2.327-5.055 3.345-7.645a76.403 76.403 0 0 1 3.796-8.207c.65-1.196 1.292-2.422 2.071-3.539.649-.932 1.497-1.822 2.687-1.951.013-.001.017-.012.03-.014.183.104.37.198.551.308.608.36 1.209.737 1.795 1.14.035-.095.078-.18.123-.271a34.017 34.017 0 0 0-3.316-1.971c-.004-.008-.007-.015-.013-.017-.406-.375-.74-.844-1.02-1.325-.265-.45-.539-.979-.534-1.514.012-.797.329-1.597.621-2.33.298-.731.614-1.462.946-2.181 2.328-5.061 5.353-9.83 7.027-15.174 1.372-4.393 1.847-9.232.15-13.606-.068-.176-.339-.054-.268.129.985 2.55 1.23 5.309.962 8.021-.525 5.307-2.896 10.138-5.303 14.824-1.336 2.594-2.7 5.178-3.793 7.886-.401.997-.87 2.164-.481 3.227.213.595.561 1.182.975 1.693-3.25-1.581-6.722-2.637-10.169-3.696-.158-.051-.324-.099-.482-.15l-.004-.008c-1.813-1.923-2.94-4.372-3.529-6.935-1.204-5.223-.011-10.458 1.347-15.525.372-1.386.752-2.775 1.102-4.17.33-1.306.656-2.633.8-3.983.236-2.294-.149-4.808-1.86-6.491-.135-.132-.367.056-.227.189 2.153 2.116 2.061 5.333 1.501 8.084-1.118 5.463-3.266 10.755-3.467 16.388-.154 4.325.896 8.968 3.797 12.284-3.228-.998-6.46-2.056-9.471-3.619-1.645-.858-3.18-1.878-4.639-3.002-.009-.01-.01-.023-.025-.035-.017-.006-.031-.018-.054-.026a52.87 52.87 0 0 1-3.796-3.27c-2.027-1.906-3.963-3.905-5.969-5.834-1.192-2.675-1.687-5.614-1.977-8.51-.525-5.198-.141-10.587-1.844-15.601-1.52-4.461-5.247-8.753-10.26-8.925-.192-.008-.217.286-.024.294 2.787.093 5.282 1.582 7.11 3.636 3.533 3.976 4.095 9.49 4.349 14.582.232 4.686.339 9.611 2.117 14.021-.258-.245-.514-.496-.777-.744-2.623-2.419-5.46-4.545-8.544-6.336-6.321-3.672-13.281-6.036-20.177-8.357-.178-.065-.28.214-.102.279.845.282 1.689.564 2.531.851 6.631 2.263 13.301 4.717 19.245 8.485-1.864-.376-3.836.08-5.656.485-2.281.508-4.953.999-6.986-.492-.155-.113-.325.128-.17.241 1.902 1.4 4.42 1.142 6.596.678 2.265-.482 4.744-1.221 7.008-.383.011.004.015-.008.027-.003l.006.002c2.943 1.955 5.568 4.281 8.092 6.747 2.416 2.363 4.753 4.805 7.321 7.009.245.209.499.415.747.619-2.553-.929-5.485-.469-7.964.566-2.866 1.198-5.24 3.294-7.558 5.31-2.302 2.003-4.676 3.859-7.327 5.368a38.792 38.792 0 0 1-16.729 4.975c-.191.006-.136.304.052.291a38.944 38.944 0 0 0 17.262-5.261c2.556-1.506 4.843-3.331 7.077-5.271 2.328-2.024 4.722-4.107 7.628-5.258 2.684-1.062 5.937-1.431 8.541.054 2.142 1.639 4.439 3.03 6.927 4.119 3.418 1.485 7.018 2.486 10.566 3.595l.904.291c-2.022.318-3.941 1.235-5.599 2.425-1.784 1.276-3.263 2.928-4.715 4.558-1.501 1.695-3.018 3.365-4.687 4.897a50.05 50.05 0 0 1-10.751 7.543c-.171.09-.044.363.122.272a50.29 50.29 0 0 0 11.15-7.89c1.612-1.515 3.079-3.153 4.545-4.804 1.472-1.648 2.985-3.307 4.822-4.557 1.704-1.16 3.668-2.029 5.736-2.229.008-.004.004-.012.01-.009 2.644.868 5.245 1.859 7.687 3.178-1.031.231-1.827.995-2.438 1.84-.903 1.231-1.613 2.626-2.335 3.966a76.65 76.65 0 0 0-3.697 8.022c-1.039 2.645-2.003 5.344-3.442 7.806-1.308 2.239-3.022 4.171-5.18 5.607a16.081 16.081 0 0 1-6.754 2.547c-.186.027-.134.318.052.291z" class="color8db5e0 svgShape"></path><path fill="#193394" d="M297.351 690.766c-8.352 1.265-20.817 13.931-29.018 11.547.427-9.902 14.507-6.874 21.132-11.186 5.761-4.711-14.079-12.938-24.437-9.211-8.581 2.696-8.029 14.2-19.982 28.277-10.045 12.178-15.145 11.405-17.71 19.532-4.688 14.872 7.638 32.426 9.546 31.847.77-.234-.511-3.29.319-10.287-.463-.702 6.103-27.451 10.896-16.978 2.142 12.293-12.503 17.458-7.102 32.124 4.053 10.995 20.474 14.65 21.109 13.562-7.827-3.934-7.949-26.487-2.299-34.184 3.77-4.337 4.816.331 4.333 5.514.669 17.261-.176 26.403 10.155 35.743 12.664 11.449 27.461.325 46.641 1.596 0 0 9.715-21.483 3.634-36.094-5.852-14.062-20.728-5.66-29.679-10.804-4.093-1.848-3.865-7.605-.564-9.638 5.026-4.544 13.828-2.977 20.163-1.777 10.495 1.994 13.667 5.081 15.299 3.433 4.465-4.22-8.449-21.839-17.978-20.757-10.896-3.48-27.672 12.353-37.71 4.892 1.797-8.886 26.179-13.516 35.806-11.924 4.971 1.416 7.848 4.477 8.507 3.812-1.223-5.45-13.483-19.672-21.061-19.039z" class="color195494 svgShape"></path><path fill="#8db6e0" d="M278.287 688.053a16.355 16.355 0 0 0-7.736 1.052c-2.381.934-4.443 2.436-6.194 4.284-1.916 2.03-3.465 4.355-5.072 6.627a76.379 76.379 0 0 1-5.644 7.065c-.917 1.007-1.832 2.043-2.855 2.943-.852.75-1.888 1.412-3.074 1.254-.013-.002-.02.008-.033.006-.152-.145-.312-.281-.461-.431a31.388 31.388 0 0 1-1.471-1.534c-.056.084-.119.156-.185.233a34.261 34.261 0 0 0 2.751 2.705c.001.009.003.017.008.02.305.461.518.996.675 1.529.15.501.29 1.08.158 1.598-.202.771-.7 1.473-1.159 2.115-.464.64-.946 1.273-1.438 1.892-3.469 4.36-7.543 8.271-10.443 13.06-2.38 3.939-3.995 8.526-3.39 13.178.023.187.317.134.291-.062-.349-2.71.071-5.449.978-8.018 1.775-5.03 5.23-9.155 8.684-13.132 1.916-2.201 3.857-4.386 5.565-6.754.627-.872 1.361-1.894 1.236-3.02a5.932 5.932 0 0 0-.542-1.876c2.779 2.311 5.899 4.164 8.994 6.014.141.088.29.174.432.261l.002.008c1.302 2.299 1.813 4.948 1.773 7.577-.076 5.36-2.483 10.159-5.011 14.756-.692 1.257-1.392 2.516-2.064 3.786-.632 1.19-1.265 2.401-1.726 3.677-.776 2.172-1.002 4.705.257 6.748.1.16.37.033.265-.13-1.586-2.568-.729-5.671.47-8.208 2.388-5.04 5.736-9.666 7.275-15.089 1.181-4.163 1.269-8.923-.758-12.836 2.898 1.74 5.784 3.537 8.335 5.773 1.393 1.226 2.641 2.582 3.789 4.022.006.011.005.025.016.04.015.01.026.025.046.038a52.808 52.808 0 0 1 2.907 4.081c1.514 2.334 2.917 4.737 4.405 7.089.52 2.882.3 5.855-.109 8.736-.729 5.172-2.388 10.316-1.93 15.591.412 4.695 3.008 9.752 7.836 11.114.186.053.28-.227.094-.28-2.685-.756-4.752-2.797-6.037-5.227-2.483-4.704-1.714-10.192-.747-15.199.892-4.606 1.963-9.415 1.288-14.121.192.3.381.605.577.907 1.97 2.975 4.219 5.716 6.787 8.192 5.263 5.073 11.459 9.028 17.602 12.927.157.106.322-.141.165-.247a449.17 449.17 0 0 1-2.255-1.431c-5.9-3.779-11.792-7.752-16.667-12.829 1.721.81 3.744.837 5.609.878 2.336.051 5.049.211 6.667 2.144.123.147.346-.047.223-.194-1.513-1.813-4.02-2.163-6.244-2.232-2.315-.072-4.898.054-6.898-1.298-.01-.007-.017.003-.027-.004l-.005-.003c-2.392-2.601-4.387-5.486-6.25-8.482-1.782-2.871-3.469-5.8-5.438-8.553-.188-.262-.386-.522-.577-.779 2.258 1.512 5.215 1.764 7.869 1.35 3.069-.479 5.874-1.95 8.606-3.354 2.713-1.396 5.461-2.633 8.395-3.467a38.8 38.8 0 0 1 17.433-.842c.187.04.204-.263.019-.295a38.674 38.674 0 0 0-9.56-.532 38.975 38.975 0 0 0-8.459 1.525c-2.842.853-5.498 2.081-8.13 3.431-2.744 1.411-5.564 2.863-8.662 3.288-2.86.391-6.107-.027-8.281-2.089-1.69-2.103-3.588-4.002-5.745-5.652-2.966-2.257-6.223-4.088-9.404-6.011l-.808-.498c2.04.173 4.122-.26 6.016-1.02 2.037-.814 3.867-2.065 5.666-3.302 1.862-1.288 3.733-2.548 5.719-3.638a50.074 50.074 0 0 1 12.24-4.762c.188-.046.129-.342-.054-.293a50.483 50.483 0 0 0-6.874 2.208 50.077 50.077 0 0 0-5.835 2.797c-1.927 1.087-3.742 2.327-5.559 3.581-1.822 1.25-3.687 2.5-5.769 3.275-1.931.721-4.046 1.096-6.102.798-.009.001-.007.01-.012.006-2.361-1.474-4.65-3.056-6.707-4.92 1.056.022 2.011-.53 2.806-1.205 1.17-.98 2.192-2.166 3.213-3.296a77.046 77.046 0 0 0 5.504-6.908c1.64-2.322 3.219-4.713 5.204-6.76 1.803-1.862 3.929-3.33 6.367-4.211a16.088 16.088 0 0 1 7.167-.862c.186.02.204-.275.017-.293z" class="color8db5e0 svgShape"></path><path fill="#4e8ac7" d="M148.909 653.975c7.448 3.985 25.014 1.297 30.159 8.115-6.267 7.678-15.737-3.174-23.625-3.685-7.435.327 3.538 18.791 14.066 22.005 8.489 2.975 14.931-6.573 32.931-10.696 15.335-3.745 18.958-.073 25.877-5.05 12.656-9.109 13.287-30.549 11.412-31.227-.757-.274-1.56 2.941-6.412 8.05-.05.839-21.318 18.34-18.89 7.081 5.641-11.13 20.464-6.504 24.915-21.486 3.332-11.234-7.636-23.989-8.796-23.498 3.917 7.836-9.482 25.977-18.616 28.763-5.615 1.219-3.66-3.148-.171-7.01 9.794-14.229 15.942-21.048 13.255-34.713-3.294-16.751-21.807-16.694-36.411-29.191 0 0-20.64 11.397-24.512 26.743-3.727 14.768 13.22 16.939 17.312 26.417 2.173 3.93-1.455 8.406-5.315 8.059-6.746.633-12.86-5.891-17.217-10.643-7.215-7.878-7.909-12.249-10.203-11.906-6.103.709-6.3 22.553 1.98 27.388 6.647 9.309 29.563 6.664 33.14 18.649-6.757 6.044-29.062-4.838-35.822-11.876-3.135-4.109-3.608-8.283-4.535-8.145-2.283 5.097-.971 23.829 5.478 27.856z" class="color4e88c7 svgShape"></path><path fill="#dae6f2" d="M162.559 667.558a16.37 16.37 0 0 0 6.828 3.787c2.465.677 5.018.707 7.526.275 2.75-.479 5.382-1.415 8.029-2.273a76.295 76.295 0 0 1 8.749-2.283c1.337-.258 2.691-.541 4.049-.649 1.132-.091 2.358-.002 3.213.835.01.009.021.005.031.015.036.207.082.411.112.621a31.4 31.4 0 0 1 .26 2.11c.095-.034.188-.054.288-.076a34.15 34.15 0 0 0-.585-3.813c.004-.008.007-.016.005-.021.032-.552.181-1.108.375-1.63.179-.491.413-1.039.83-1.374.623-.497 1.443-.761 2.194-1.001.754-.235 1.52-.454 2.285-.655 5.388-1.417 10.993-2.112 16.183-4.214 4.264-1.731 8.303-4.44 10.603-8.529.093-.165-.174-.297-.27-.125-1.343 2.38-3.318 4.323-5.583 5.839-4.432 2.967-9.669 4.205-14.817 5.323-2.852.616-5.714 1.205-8.5 2.082-1.025.323-2.224.703-2.798 1.679a5.896 5.896 0 0 0-.688 1.828c-.844-3.514-2.235-6.866-3.606-10.201-.061-.155-.129-.314-.19-.468l.004-.008c.333-2.621 1.508-5.049 3.113-7.131 3.269-4.248 8.069-6.653 12.845-8.823 1.306-.593 2.62-1.183 3.919-1.798 1.219-.575 2.451-1.167 3.584-1.913 1.922-1.275 3.618-3.17 3.832-5.56.016-.188-.277-.248-.29-.055-.267 3.007-2.809 4.98-5.289 6.295-4.93 2.608-10.38 4.311-14.859 7.735-3.438 2.628-6.357 6.389-7.075 10.737-1.28-3.128-2.517-6.296-3.222-9.613-.383-1.816-.571-3.649-.629-5.49.001-.013.011-.023.011-.042-.006-.017-.006-.035-.015-.058a53.003 53.003 0 0 1 .114-5.009c.184-2.776.497-5.541.713-8.316 1.309-2.62 3.264-4.87 5.316-6.933 3.679-3.708 8.086-6.836 10.875-11.337 2.48-4.007 3.427-9.613.374-13.593-.117-.154-.36.014-.243.168 1.699 2.212 2.134 5.084 1.709 7.801-.825 5.255-4.727 9.191-8.498 12.623-3.472 3.157-7.207 6.368-9.483 10.543.025-.355.057-.712.081-1.073.202-3.562.04-7.104-.535-10.624-1.181-7.214-3.777-14.091-6.365-20.89-.063-.179-.343-.08-.28.099.319.831.637 1.662.95 2.495 2.466 6.559 4.808 13.268 5.675 20.253-.894-1.678-2.499-2.911-3.968-4.06-1.842-1.438-3.919-3.19-4.059-5.707-.011-.191-.305-.169-.294.022.128 2.358 1.926 4.139 3.667 5.525 1.811 1.442 3.956 2.887 4.749 5.168.004.011.016.007.019.018l.002.006c.36 3.515.232 7.02-.069 10.536-.29 3.367-.691 6.723-.762 10.107-.006.322-.004.649-.004.97-.904-2.562-3.122-4.534-5.497-5.791-2.745-1.453-5.872-1.954-8.902-2.463-3.009-.505-5.951-1.159-8.801-2.247a38.813 38.813 0 0 1-14.471-9.758c-.126-.144-.321.087-.191.225a38.718 38.718 0 0 0 7.34 6.147 38.985 38.985 0 0 0 7.69 3.841c2.786 1.017 5.649 1.623 8.565 2.116 3.043.511 6.172 1.037 8.907 2.549 2.526 1.399 4.877 3.676 5.384 6.63.096 2.696.48 5.353 1.221 7.967 1.025 3.582 2.539 6.999 3.937 10.443l.35.883c-1.531-1.359-3.458-2.258-5.43-2.783-2.119-.567-4.334-.659-6.516-.745-2.262-.082-4.516-.193-6.759-.508a50.054 50.054 0 0 1-12.655-3.51c-.178-.076-.309.197-.133.267a50.679 50.679 0 0 0 6.829 2.346 50.05 50.05 0 0 0 6.348 1.251c2.194.282 4.391.375 6.597.458 2.208.089 4.45.204 6.583.828 1.978.579 3.897 1.544 5.366 3.013.008.004.011-.004.013.002 1.01 2.594 1.896 5.231 2.43 7.955-.833-.65-1.929-.779-2.97-.714-1.524.085-3.052.423-4.546.718a76.331 76.331 0 0 0-8.544 2.242c-2.703.878-5.399 1.848-8.214 2.302-2.56.412-5.141.317-7.621-.438a16.07 16.07 0 0 1-6.258-3.598c-.136-.13-.327.095-.188.222z" class="colordaf2ee svgShape"></path><path fill="#516dd4" d="M234.592 852.218c-.34 4.372-6.104 39.806-6.639 46.617H177.12c-.62-7.156-6.931-41.94-7.33-46.617h64.802z" class="colord45151 svgShape"></path><path fill="#3453c9" d="m169.791 852.218.508 5.885h19.569c17.793 0 30.49 15.105 30.42 32.897-.016 3.906-1.58 6.272-3.596 7.835h11.261c.534-6.812 6.3-42.245 6.639-46.617h-64.801z" class="colorc93434 svgShape"></path><path fill="#516dd4" d="M233.324 852.221h-62.262c-4.178 0-7.565-2.747-7.565-6.136 0-3.388 3.387-6.135 7.565-6.135h62.262c4.179 0 7.565 2.747 7.565 6.135 0 3.389-3.387 6.136-7.565 6.136z" class="colord45151 svgShape"></path><path fill="#c8d5e3" d="M1296.4 901.4H67.6a3.462 3.462 0 0 1 0-6.922h1228.8a3.462 3.462 0 0 1 0 6.922z" class="colorc8cbe3 svgShape"></path></svg>