<svg xmlns="http://www.w3.org/2000/svg" viewBox="0 0 4680 3120" id="BusinesswomanGivingBusinessTrainingToTeam"><defs><clipPath id="a"><path fill="#b5cce4" d="M2432.8,2529.08l-266.52-935.89c-2.78-9.79-12.27-15.74-21.09-13.23-7.09,2-11.66,8.94-11.72,16.66a38.16,38.16,0,0,1-9.94-.87c-5.15-.91-10.2-2.25-15.47-1.8-3.3.27-6.53,1.15-9.82,1.57-4.3.55-8.17-.46-12.21-1.85a89.87,89.87,0,0,0-19.77-4.08c-14.29-1.59-28.69-1.26-43-2.26-4.77-.34-9.55-.74-14.33-1.13-1.57-8.39-8.3-14.75-16.3-14.75-7.57,0-14,5.68-16,13.39-3.8.13-7.58.39-11.35.83-5.5.65-10.73,2.2-16.15,3.17-10.71,1.93-21.72-.3-32.44-1a276.38,276.38,0,0,0-33.93-.33c-10.86.67-21.68,2-32.56,1.64A15.91,15.91,0,0,0,1840,1580c-8.81-2.51-18.3,3.44-21.1,13.23l-266.51,935.89c-2.79,9.8,2.15,19.86,10.95,22.38s18.31-3.45,21.1-13.24L1851,1602.34a19.67,19.67,0,0,0-.4-12.22c13.15.32,26.23-1.58,39.36-2,7.47-.24,15,0,22.47.42,6.76.35,13.45,1.1,20.19,1.63a63.53,63.53,0,0,0,18.72-.85,142.56,142.56,0,0,1,20.76-3.37c1.44-.09,2.89-.16,4.33-.21a20,20,0,0,0-.46,4.2v943.39c0,10.18,7.5,18.51,16.67,18.51s16.65-8.33,16.65-18.51V1590c1.93-2.67,4.08-2.48,6.22-2.3,11.77,1,23.53,1.22,35.32,1.73s23.78,1.21,34.86,5.13a29,29,0,0,0,15.12,1.56c5.33-.89,10.11-1.64,15.5-.74,5.19.86,11.53,2.82,17.22,2.27a20.14,20.14,0,0,0,.74,4.73l266.51,935.88c2.79,9.79,12.29,15.75,21.09,13.24S2435.59,2538.88,2432.8,2529.08Z" class="colorb5c9e4 svgShape"></path></clipPath></defs><g data-name="7" fill="#000000" class="color000000 svgShape"><rect width="4680" height="3120" fill="#ffffff" data-name="7" opacity="0" class="colorffffff svgShape"></rect><path fill="#3f6891" d="M1140.51,2569.6s-79.74-252.08-41-465.71-52-278.15-121.13-229.32S778.57,2146.18,1099,2577.76Z" class="color3f917d svgShape"></path><path fill="#1e2231" d="M1116.82,2574.78c-48.9-92.1-84.83-185.53-106.81-277.69-17.59-73.75-26.34-146.85-26-217.28.59-120,27.79-191.64,28.06-192.35l3.31,1.28c-.27.7-27.27,71.88-27.82,191.29-.52,110.21,22,285.22,132.38,493.09Z" class="color1e312e svgShape"></path><path fill="#6d97c1" d="M1143.69,2586.87s31-232.22,142.49-389,63-242.69-10.79-229.57-262.54,142.6-168.05,609.47Z" class="color6dc184 svgShape"></path><path fill="#6d97c1" d="M1116.44,2588S1031.62,2158,775.37,2154.39s-182.5,175.76-40.94,196.94S917.56,2394.47,972,2451.9s129.19,139.72,129.19,139.72Z" class="color6dc184 svgShape"></path><path fill="#3f6891" d="M1106.34,2593.26s-110.9-199.09-237.5-182.62-164.16,139.1-146,177.14,72,64.73,128,23.86,73.58-72.45,132.77-60.26,103.1,54.81,103.1,54.81Z" class="color3f917d svgShape"></path><path fill="#1e2231" d="M1125.88 2582l-3.14.15c-4.53-92.29 1.83-180.77 18.91-263 13.67-65.78 34.18-127.71 61-184.07 45.66-96 94.46-143.24 94.95-143.71l2.17 2.27c-.48.47-48.94 47.39-94.36 143C1163.48 2224.78 1115.66 2373.65 1125.88 2582zM1107.55 2590.29c-.37-1-37.39-100.58-106.9-193.59-64-85.63-169.4-183.06-308.28-160.85l-.5-3.1c62-9.91 122.7 2.7 180.26 37.51 46 27.8 90.07 69.72 131.08 124.62 69.77 93.36 106.92 193.33 107.29 194.33zM1098.08 2598.9a579.16 579.16 0 00-72.81-72c-38.86-31.89-96.13-68.4-148.32-61.23-39.26 5.41-70.72 34.7-93.51 87.07l-2.89-1.25c23.26-53.45 55.55-83.37 96-88.93 23.6-3.25 50.08 1.83 78.73 15.1 22.81 10.57 47.06 26.33 72 46.85a583.13 583.13 0 0173.21 72.36z" class="color1e312e svgShape"></path><path fill="#3f6891" d="M3701.85,2576.88c20.79-43.57,129.41-234.37,244.75-297.89,14.66-8.07,30.13-15.56,46.78-17.23s34.86,3.51,45,16.8c9.27,12.13,10.39,28.76,7.83,43.81-20.3,119.07-155.48,165.43-221.12,253.77" class="color3f917d svgShape"></path><path fill="#6d97c1" d="M3701.85,2576.17s107.59-215.62,213.14-344.32c50-60.92,83.85-173.42,30.73-206.75-76.86-48.21-151.45,60.67-185.6,114.72-51.64,81.74-89.45,172.07-118.47,264-4.21,13.32-42.31,172.92-43.08,172.92l26.4-.15Z" class="color6dc184 svgShape"></path><path fill="#1e2231" d="M3675.18,2577.66l-8.29-2.6c28.77-91.89,63.78-182.65,101.26-262.48,42.79-91.15,88.4-168,135.56-228.36l6.85,5.35C3790.66,2243.07,3711.62,2461.26,3675.18,2577.66Z" class="color1e312e svgShape"></path><path fill="#3f6891" d="M3458.8,2577.64s-14.64-330.69-161.9-482.73c-39.79-41.08-104.87-83.62-158.13-95.07-69-14.83-76.87,64.79-64.07,117.25,16.59,68,82.67,111.55,123.09,162,74.39,92.87,105.55,154.15,160.32,299" class="color3f917d svgShape"></path><path fill="#6d97c1" d="M3517.51,2577.28c39.07-72.53,23.31-381.56,2.92-478.26-14.18-67.21-42.82-132.7-81.79-186.21-35.3-48.48-140.59-155.18-201.92-111.2-35.46,25.45,19,116,33.43,143.18,46.69,88.19,83.84,182.54,113,279.65,33.75,112.33,59.48,230.44,69.14,348.74.13,1.49.23,3,.35,4.49" class="color6dc184 svgShape"></path><path fill="#3f6891" d="M3524.73,2577.24c-14.06-173-7.32-438.68,69.79-589.19,87.45-170.68,202.3-249.93,219.43-183.72,49.71,192-142,710.47-196.48,772.35" class="color3f917d svgShape"></path><path fill="#1e2231" d="M3405.6 2578.32c-21.89-210.6-134.91-414.73-287.95-520.06l4.23-6.14c77.15 53.1 145.33 131.24 197.17 226 50.75 92.74 83.24 196.29 94 299.45zM3488.61 2577.61c-6.62-161.89-25-305.54-56.23-439.16-30.58-130.92-76.64-222.09-140.83-278.72l5.75-6.52c36.18 31.93 67.19 75.14 92.17 128.46 20.42 43.58 37.22 94.21 51.37 154.8 31.34 134.16 49.81 278.35 56.45 440.78zM3582.28 2577l-4.78-.24c5.62-114.08 25.82-231.56 61.76-359.18 29.49-104.73 69.8-216.32 123.23-341.14l4.41 1.89C3651.1 2148.86 3592.44 2370.87 3582.28 2577zM3760.56 2577.6l-6.57-3.52c49.86-93 111.3-162.49 154.07-204.4 46.37-45.44 81.5-69.25 81.85-69.49l4.16 6.18c-.34.24-35 23.76-81 68.78C3870.77 2416.67 3809.92 2485.5 3760.56 2577.6z" class="color1e312e svgShape"></path><ellipse cx="2367.3" cy="2602.74" fill="#7b96b1" rx="1543.39" ry="83" class="color7b8cb1 svgShape"></ellipse><path fill="#b5cce4" d="M2426.83,1552.3a55.71,55.71,0,0,1-55.54,55.55H1620.36a55.71,55.71,0,0,1-55.54-55.55V489.8a55.7,55.7,0,0,1,55.54-55.54h750.93a55.7,55.7,0,0,1,55.54,55.54Z" class="colorb5c9e4 svgShape"></path><rect width="798.26" height="1140.65" x="1596.7" y="465.86" fill="#ffffff" rx="47.81" class="colorffffff svgShape"></rect><rect width="561.44" height="31.56" x="1713.45" y="2011.79" fill="#b5cce4" class="colorb5c9e4 svgShape"></rect><path fill="#b5cce4" d="M2432.8,2529.08l-266.52-935.89c-2.78-9.79-12.27-15.74-21.09-13.23-7.09,2-11.66,8.94-11.72,16.66a38.16,38.16,0,0,1-9.94-.87c-5.15-.91-10.2-2.25-15.47-1.8-3.3.27-6.53,1.15-9.82,1.57-4.3.55-8.17-.46-12.21-1.85a89.87,89.87,0,0,0-19.77-4.08c-14.29-1.59-28.69-1.26-43-2.26-4.77-.34-9.55-.74-14.33-1.13-1.57-8.39-8.3-14.75-16.3-14.75-7.57,0-14,5.68-16,13.39-3.8.13-7.58.39-11.35.83-5.5.65-10.73,2.2-16.15,3.17-10.71,1.93-21.72-.3-32.44-1a276.38,276.38,0,0,0-33.93-.33c-10.86.67-21.68,2-32.56,1.64A15.91,15.91,0,0,0,1840,1580c-8.81-2.51-18.3,3.44-21.1,13.23l-266.51,935.89c-2.79,9.8,2.15,19.86,10.95,22.38s18.31-3.45,21.1-13.24L1851,1602.34a19.67,19.67,0,0,0-.4-12.22c13.15.32,26.23-1.58,39.36-2,7.47-.24,15,0,22.47.42,6.76.35,13.45,1.1,20.19,1.63a63.53,63.53,0,0,0,18.72-.85,142.56,142.56,0,0,1,20.76-3.37c1.44-.09,2.89-.16,4.33-.21a20,20,0,0,0-.46,4.2v943.39c0,10.18,7.5,18.51,16.67,18.51s16.65-8.33,16.65-18.51V1590c1.93-2.67,4.08-2.48,6.22-2.3,11.77,1,23.53,1.22,35.32,1.73s23.78,1.21,34.86,5.13a29,29,0,0,0,15.12,1.56c5.33-.89,10.11-1.64,15.5-.74,5.19.86,11.53,2.82,17.22,2.27a20.14,20.14,0,0,0,.74,4.73l266.51,935.88c2.79,9.79,12.29,15.75,21.09,13.24S2435.59,2538.88,2432.8,2529.08Z" class="colorb5c9e4 svgShape"></path><g clip-path="url(#a)" fill="#000000" class="color000000 svgShape"><rect width="523.34" height="77.11" x="1760.18" y="1571.45" style="mix-blend-mode:soft-light" fill="#1a1a1a" class="color1a1a1a svgShape"></rect></g><rect width="934.03" height="55.79" x="1528.81" y="1552.07" fill="#99b8d8" class="color99b0d8 svgShape"></rect><path fill="#b5cce4" d="M2320 1058.7H2064.67a9.9 9.9 0 110-19.79H2320a9.9 9.9 0 110 19.79zM2320 1122.29H2064.67a9.9 9.9 0 110-19.79H2320a9.9 9.9 0 110 19.79zM2320 1229.34H2064.67a9.9 9.9 0 010-19.8H2320a9.9 9.9 0 110 19.8zM2320 1292.92H2064.67a9.9 9.9 0 110-19.8H2320a9.9 9.9 0 110 19.8zM2320 1397.55H2064.67a9.9 9.9 0 010-19.8H2320a9.9 9.9 0 110 19.8zM2320 1461.14H2064.67a9.9 9.9 0 010-19.8H2320a9.9 9.9 0 110 19.8z" class="colorb5c9e4 svgShape"></path><rect width="74.03" height="308.56" x="1674.85" y="537.92" fill="#91c3f6" class="colorf6d091 svgShape"></rect><rect width="74.03" height="198.08" x="1785.23" y="648.4" fill="#91c3f6" class="colorf6d091 svgShape"></rect><rect width="74.03" height="114.86" x="1896.94" y="731.62" fill="#91c3f6" class="colorf6d091 svgShape"></rect><rect width="40.12" height="40.11" x="1666.52" y="893.36" fill="#b5cce4" class="colorb5c9e4 svgShape"></rect><rect width="40.12" height="40.12" x="1666.52" y="965.18" fill="#b5cce4" class="colorb5c9e4 svgShape"></rect><rect width="40.12" height="40.12" x="1666.52" y="1036.36" fill="#b5cce4" class="colorb5c9e4 svgShape"></rect><path fill="#b5cce4" d="M1953.23 903h-218a2.72 2.72 0 010-5.43h218a2.72 2.72 0 010 5.43zM1953.23 929.76h-218a2.72 2.72 0 010-5.43h218a2.72 2.72 0 010 5.43zM1953.23 974.86h-218a2.72 2.72 0 010-5.43h218a2.72 2.72 0 010 5.43zM1953.23 1001.65h-218a2.72 2.72 0 010-5.43h218a2.72 2.72 0 010 5.43zM1953.23 1045.74h-218a2.72 2.72 0 010-5.43h218a2.72 2.72 0 010 5.43zM1953.23 1072.53h-218a2.72 2.72 0 010-5.43h218a2.72 2.72 0 010 5.43z" class="colorb5c9e4 svgShape"></path><rect width="206.45" height="281.43" x="2112.87" y="539.3" fill="#9ab8d7" class="color9ab0d7 svgShape"></rect><path fill="#3d4f95" d="M2234.19,545a19.1,19.1,0,1,1-19.1-19.09A19.11,19.11,0,0,1,2234.19,545Z" class="color3d5a95 svgShape"></path><path fill="#ffffff" d="M2290.8 608.32H2136a4 4 0 110-8H2290.8a4 4 0 110 8zM2290.8 646.18H2136a4 4 0 010-8H2290.8a4 4 0 010 8zM2290.8 684H2136a4 4 0 010-8H2290.8a4 4 0 110 8zM2290.8 721.89H2136a4 4 0 010-8H2290.8a4 4 0 010 8zM2290.8 759.75H2136a4 4 0 010-8H2290.8a4 4 0 110 8z" class="colorffffff svgShape"></path><path fill="#bac6d2" d="M1806.73,1251.72a3.51,3.51,0,0,1-1.62-6.63L1964.58,1162a3.52,3.52,0,1,1,3.25,6.24l-159.47,83.1A3.54,3.54,0,0,1,1806.73,1251.72Z" class="colorbac9d2 svgShape"></path><path fill="#9ac7f5" d="M1924.23,1433c-2.5-1-133.56-134-133.56-134a3.52,3.52,0,0,1,5-4.93l131,132.94a3.53,3.53,0,0,1,0,5A3.5,3.5,0,0,1,1924.23,1433Z" class="colorf59d9a svgShape"></path><path fill="#91c3f6" d="M1772.64,1275.66V1163.12a111.92,111.92,0,1,0,112.53,112.54Z" class="colorf6d091 svgShape"></path><path fill="#9ab8d7" d="M1883.9,1259.13c0-52.56-42.16-94.75-94.19-94.75-.54,0-.54,94.75-.54,94.75Z" class="color9ab0d7 svgShape"></path><circle cx="1924.23" cy="1429.44" r="38.92" fill="#9ac7f5" transform="rotate(-.19 1909.523 1417.47)" class="colorf59d9a svgShape"></circle><path fill="#bac6d2" d="M1986.31,1167.13a19.84,19.84,0,1,1-19.85-19.84A19.85,19.85,0,0,1,1986.31,1167.13Z" class="colorbac9d2 svgShape"></path><polygon fill="#324075" points="2002.58 2590.09 1776.36 2001.93 1733.21 2021.4 1972.51 2593.71 2002.58 2590.09" class="color324175 svgShape"></polygon><polygon fill="#9fc9f3" points="1671.24 2240.73 1771.43 2504.14 1781.74 2496.67 1862.25 2497.95 1822.8 2166.75 1734.18 2210.02 1671.24 2240.73" class="colorf39f9f svgShape"></polygon><path fill="#324075" d="M1529,2029.79h305s65.54-228.33,60.19-280.1S1800,1695,1658.39,1695s-141.9,1.56-141.9,1.56Z" class="color324175 svgShape"></path><polygon fill="#324075" points="1529.01 2029.79 1309.83 2598.38 1338.57 2599.99 1570.03 2027.67 1529.01 2029.79" class="color324175 svgShape"></polygon><polygon fill="#a7cef5" points="1784.99 2172.72 2000.19 2388.3 2012.23 2377.01 2077.65 2347.76 1902.5 2056.46 1828.24 2125.77 1784.99 2172.72" class="colorf5afa7 svgShape"></polygon><path fill="#9ab8d7" d="M1962.53,2127.09l-210.82,83.11-21.09,8.31-92.73,35.94-93.56-222.22s-376.5-92.19-438.27-139.54c-32.08-24.58,2.15-179.21,2.15-179.21l86.92,1,329.47-6.74s209.54,64.17,264.62,94S1962.53,2127.09,1962.53,2127.09Z" class="color9ab0d7 svgShape"></path><path fill="#0575e6" d="M1728,2217.07l2.66,1.44-92.73,35.94-91.46-220.83s-378.6-93.58-440.37-140.93c-32.08-24.58,2.15-179.21,2.15-179.21l86.92,1,2.51.78S1157.2,1847.75,1170,1865s440.75,137.33,440.75,137.33Z" class="color5580c1 svgShape"></path><path fill="#232d55" d="M1107.17,1748.08l21-480.1s-154.3-1.38-201,80.32c0,0,24,123.74,24,133.26s115.2,292.69,115.2,292.69Z" class="color233455 svgShape"></path><path fill="#a7cef5" d="M1275.53,1150.64s20.44,70.74-42,69.95c0,0,46.4,49.18,95.2,49.18s101.6-.79,101.6-.79-56-19.33-56-63-3.15-38.57-3.15-38.57Z" class="colorf5afa7 svgShape"></path><path fill="#324075" d="M1529,2029.79H1134.38s-210.67-522.42-230-580.09c-24.08-71.69,29.37-118.2,62-141.86a98.32,98.32,0,0,0-4.58,9.72c-2.89,7.65-4.49,17.92-5,29.79-2,39.75,7.46,96.69,15.73,126.88,9.14,33.37,77.61,214.42,97.67,267.39.08.15.08.24.16.39h104.09c26.17,0,56.18.4,87.48,3.27s64,8.12,95.51,18c35.31,11,69.1,27.56,97.91,52.81,48.72,42.61,67.12,111.87,72.74,160C1531.84,2007.29,1529,2029.79,1529,2029.79Z" class="color324175 svgShape"></path><polygon fill="#324075" points="1134.38 2029.79 919.55 2593.61 951.5 2593.5 1181 2028.97 1134.38 2029.79" class="color324175 svgShape"></polygon><polygon fill="#324075" points="1443.69 2025.98 1667.5 2597.24 1691.64 2596.09 1485.03 2026.37 1443.69 2025.98" class="color324175 svgShape"></polygon><path fill="#5978ee" d="M2240.18,2395.77c-8.58,6.81-212.23,82.45-225.38,79.66-5-1-17-45.68-30.64-94.38l99.61-38s117.88,12,132,16.58S2248.75,2389,2240.18,2395.77Z" class="coloree7b59 svgShape"></path><path fill="#80baf5" d="M2232.05 2386.14c-47.34 16-152.43 55-198 74.32-.37.15-.28.41.11.29 47.27-14.82 151.79-55.33 198.19-73.85C2233.31 2386.51 2233.05 2385.8 2232.05 2386.14zM2194 2356.21c-11.3 3.61-20.23 12.82-23.87 21.6-3.49 8.43-5.19 19.13-1.28 28.65.11.27.63.09.56-.21-4.06-19.18 6.72-41.25 24.81-49.46A.31.31 0 002194 2356.21zM2099.39 2359.36a.42.42 0 00.62.25 1.93 1.93 0 003.1.21c7.85-11.05 17.64-21.91 21.84-35 2.45-7.67 2.45-18.69-6.78-21.92-9.77-3.43-17 6-19.23 14.1A81.37 81.37 0 002099.39 2359.36zm.94-2.2c-.07-8.26-.49-16.49.28-24.76a89.22 89.22 0 011.74-11.86c1.42-6 11.4-23.57 18.79-8.15 4.07 8.5-5.13 21.66-9.58 28.25C2107.83 2346.17 2103.85 2351.5 2100.33 2357.16z" class="colorf59080 svgShape"></path><path fill="#80baf5" d="M2064.73,2378.21c13.6-2.73,25.54-11.21,37.48-17.77a1.9,1.9,0,0,0,.11-3.08.41.41,0,0,0-.18-.64,83.32,83.32,0,0,0-42.47-5c-8.34,1.35-18.59,7.44-16.2,17.43C2045.73,2378.64,2056.78,2379.81,2064.73,2378.21Zm-12-5.08c-14.67-8.93,4-16.89,10.19-17.64A88.55,88.55,0,0,1,2075,2355c8.38.12,16.58,1.42,24.86,2.37-6.06,2.87-11.82,6.22-17.77,9.31C2075,2370.39,2060.79,2378.05,2052.7,2373.13Z" class="colorf59080 svgShape"></path><path fill="#80baf5" d="M2116.68 2347.82c-14.87 5.19-30.11 16.62-34.86 32-.18.59.67.84 1 .46a217.09 217.09 0 0134.75-30.71A1 1 0 002116.68 2347.82zM2129.73 2348.06c-14.87 5.19-30.1 16.62-34.85 32-.19.59.67.84 1 .46a218.08 218.08 0 0134.75-30.72A1 1 0 002129.73 2348.06zM2142.79 2348.31c-14.87 5.19-30.11 16.62-34.86 32-.18.6.67.85 1 .46a217.58 217.58 0 0134.75-30.71A1 1 0 002142.79 2348.31zM2155.84 2348.56c-14.87 5.19-30.1 16.62-34.85 32-.19.59.67.84 1 .46a217.53 217.53 0 0134.75-30.71A1 1 0 002155.84 2348.56z" class="colorf59080 svgShape"></path><path fill="#5978ee" d="M2001.1,2601.35c-10.81,3.47-235.71,2.75-247.4-4.72-4.45-2.81.46-50.33,5.19-102.4l110.37-.63s109.6,54.36,121.54,63.92S2011.9,2597.87,2001.1,2601.35Z" class="coloree7b59 svgShape"></path><path fill="#80baf5" d="M1996.79 2589.08c-51.69-1.73-167.73-2.13-219 .05-.41 0-.41.3 0 .32 51.2 2.83 167.24 1.56 219 .47C1997.87 2589.9 1997.88 2589.12 1996.79 2589.08zM1971.07 2546.35c-12.26-.61-24.3 5.05-31.06 12.23-6.49 6.89-12.08 16.62-11.82 27.24 0 .31.58.32.63 0 3.15-20 21.72-37.47 42.24-38.84A.32.32 0 001971.07 2546.35zM1878.36 2515.06a.42.42 0 00.5.46 2 2 0 002.92 1.33c11.68-7.84 25.15-14.8 34.06-26 5.19-6.53 9.26-17.19 1.53-23.67-8.19-6.85-18.65-.32-23.8 6.67A84.29 84.29 0 001878.36 2515.06zm1.71-1.79c3-8 5.61-16.13 9.42-23.85a90.59 90.59 0 016.06-10.84c3.59-5.31 19.72-18.66 21.17-1.07.8 9.7-13 19.09-19.69 23.86C1891.39 2505.36 1885.57 2509.07 1880.07 2513.27z" class="colorf59080 svgShape"></path><path fill="#80baf5" d="M1837.87,2520.72c14.17,2.28,28.85-1.59,42.81-3.6a2,2,0,0,0,1.25-2.94.42.42,0,0,0,0-.68,85.73,85.73,0,0,0-39.23-20.22c-8.57-1.71-20.73.46-22.11,11C1819.33,2514.23,1829.59,2519.38,1837.87,2520.72Zm-9.75-9.29c-10.9-13.95,10.09-14.88,16.36-13.36a91.34,91.34,0,0,1,11.84,3.95c8.06,3.15,15.52,7.39,23.18,11.31-6.92.57-13.73,1.73-20.62,2.56C1850.66,2516.87,1834.12,2519.13,1828.12,2511.43Z" class="colorf59080 svgShape"></path><path fill="#80baf5" d="M1899.33 2510.16c-16.29-.37-35.25 5.16-45.5 18.27-.4.51.33 1.06.82.82a227.06 227.06 0 0144.95-17.1A1 1 0 001899.33 2510.16zM1911.87 2515.13c-16.3-.37-35.25 5.16-45.51 18.28-.39.51.34 1.06.83.81a226.32 226.32 0 0144.94-17.09A1 1 0 001911.87 2515.13zM1924.41 2520.11c-16.3-.37-35.25 5.16-45.51 18.27-.4.51.34 1.06.82.82a227.06 227.06 0 0145-17.1A1 1 0 001924.41 2520.11zM1936.94 2525.08c-16.3-.37-35.25 5.16-45.51 18.28-.39.51.34 1.06.83.82a226 226 0 0144.94-17.1A1 1 0 001936.94 2525.08z" class="colorf59080 svgShape"></path><path fill="#8097af" d="M1906.47 1398q-13.62 7.85-27.76 14.75c-1.64.8-.63 3.43 1 2.61q14.49-7.07 28.44-15.1C1909.77 1399.31 1908.06 1397.05 1906.47 1398zM1911.16 1408.85q-13.08 7.05-26.86 12.78a1.41 1.41 0 001 2.62q14.1-5.88 27.54-13.14C1914.49 1410.24 1912.77 1408 1911.16 1408.85z" class="color80afa0 svgShape"></path><path fill="#70b1f3" d="M1915.67,1417.35a240.2,240.2,0,0,0-26.85,16.76c-1.49,1.07.21,3.33,1.71,2.25a241.59,241.59,0,0,1,26.85-16.75C1919,1418.74,1917.28,1416.48,1915.67,1417.35Z" class="colorf39c70 svgShape"></path><path fill="#5978ee" d="M1107.15,1715.57c4.34,3.91,17,7.92,22,10.43,48.66,24.82,107.65,28.71,162.63,27.29s109.19-13.56,161.39-30.36c8.34-2.68,18.2-6.36,23.45-13.63,6.2-8.58,3.89-20.23,2.66-29.92a181.29,181.29,0,0,0-8.18-35.42l-358-4.15c-3.18,10.45-7.29,19.16-9.9,29.75-2.19,8.88-5.74,28.07-2.47,37.12C1102,1710.51,1104.06,1712.79,1107.15,1715.57Z" class="coloree7b59 svgShape"></path><path fill="#70b1f3" d="M1120.31 1679.18c-2.43 7-3.73 14.32-5.3 21.52-.4 1.84 2.52 2.63 2.92.78 1.57-7.2 2.87-14.53 5.31-21.52C1123.86 1678.17 1120.94 1677.4 1120.31 1679.18zM1131 1684.16q-4.1 12.55-8.18 25.11c-.59 1.8 2.33 2.57 2.92.78q4.1-12.55 8.18-25.11C1134.53 1683.14 1131.61 1682.37 1131 1684.16zM1143.86 1689.38q-3.88 13.65-7.51 27.35c-.48 1.83 2.44 2.61 2.92.78q3.63-13.69 7.51-27.35C1147.3 1688.34 1144.37 1687.56 1143.86 1689.38zM1156.51 1693.76q-4.89 14.55-10.08 29c-.64 1.79 2.29 2.56 2.93.78q5.19-14.44 10.07-29C1160 1692.74 1157.11 1692 1156.51 1693.76zM1166.36 1698.9a237.27 237.27 0 00-8.76 28.46c-.44 1.84 2.48 2.62 2.92.78a237.27 237.27 0 018.76-28.46C1170 1697.9 1167 1697.14 1166.36 1698.9zM1177.92 1702.2a270.24 270.24 0 00-8.69 29.33c-.44 1.84 2.48 2.62 2.92.78a271.07 271.07 0 018.69-29.34C1181.48 1701.19 1178.56 1700.42 1177.92 1702.2zM1187.17 1704.1q-3.18 15.06-7.76 29.79c-.56 1.81 2.36 2.59 2.92.78q4.58-14.72 7.76-29.79C1190.48 1703 1187.56 1702.25 1187.17 1704.1zM1198 1706.8q-5 15-9 30.35c-.48 1.83 2.44 2.61 2.92.78q4-15.3 9-30.36C1201.54 1705.77 1198.61 1705 1198 1706.8zM1209.25 1708.68a271.12 271.12 0 01-7.08 31c-.53 1.82 2.39 2.6 2.92.78a271.12 271.12 0 007.08-31C1212.48 1707.61 1209.56 1706.82 1209.25 1708.68zM1219.5 1710.88q-3.06 15.72-4.63 31.66c-.18 1.88 2.85 1.86 3 0q1.53-15.54 4.53-30.88C1222.79 1709.82 1219.87 1709 1219.5 1710.88zM1232.53 1713q-2.71 15.52-4.11 31.24c-.17 1.88 2.86 1.87 3 0q1.36-15.3 4-30.46C1235.77 1712 1232.85 1711.16 1232.53 1713zM1243.84 1713.62q-1.8 16.58-2.26 33.26c0 1.89 3 1.89 3 0q.47-16.67 2.26-33.26C1247.07 1711.74 1244 1711.76 1243.84 1713.62zM1257.49 1714.75q-1.89 16.29-3.77 32.57c-.22 1.87 2.82 1.86 3 0q1.89-16.29 3.77-32.57C1260.74 1712.88 1257.7 1712.89 1257.49 1714.75zM1271.61 1715.16c.09-1.89-2.94-1.88-3 0q-.76 16.06-.06 32.15c.08 1.88 3.11 1.89 3 0Q1270.83 1731.25 1271.61 1715.16zM1280.78 1715.44q-2.25 16-3.58 32.09c-.15 1.88 2.88 1.87 3 0q1.29-15.71 3.47-31.31C1284 1714.37 1281 1713.57 1280.78 1715.44zM1294.8 1716.45c-.11-1.88-3.14-1.89-3 0q.88 15.19.67 30.43c0 1.88 3 1.89 3 0Q1295.69 1731.66 1294.8 1716.45zM1306.1 1716.24c0-1.89-3.08-1.9-3 0l.71 32.38c0 1.88 3.08 1.89 3 0zM1317.54 1716.24c0-1.88-3.06-1.89-3 0q.24 14.92 1.89 29.78c.2 1.85 3.23 1.88 3 0Q1317.78 1731.19 1317.54 1716.24zM1330.11 1716.46c0-1.89-3-1.89-3 0a166.16 166.16 0 002.4 29.7c.32 1.85 3.24 1.07 2.92-.78A161.18 161.18 0 011330.11 1716.46zM1341.44 1715.58c-.16-1.87-3.19-1.89-3 0q1.11 13.41 2.9 26.75c.25 1.84 3.28 1.87 3 0Q1342.54 1729 1341.44 1715.58zM1356 1739.58l-.7-3.7c-.46-2.46-.92-4.93-1.39-7.39l-2.78-14.8c-.34-1.85-3.27-1.07-2.92.78q1.27 6.73 2.53 13.47c.42 2.21.83 4.41 1.25 6.61l.59 3.17.3 1.59a11.26 11.26 0 00.23 1.29h0a1.39 1.39 0 000 1.48 1.81 1.81 0 001.53.85 1.5 1.5 0 001.31-.72A3.56 3.56 0 001356 1739.58zM1366.18 1739.31a153.46 153.46 0 01-3.46-25.68c-.09-1.88-3.12-1.89-3 0a159.52 159.52 0 003.56 26.46C1363.66 1741.94 1366.58 1741.16 1366.18 1739.31zM1374.73 1710.84c-.39-1.84-3.31-1.06-2.92.78a177.34 177.34 0 013.47 26.35c.1 1.88 3.13 1.89 3 0A182.56 182.56 0 001374.73 1710.84zM1385 1709.11c-.3-1.86-3.22-1.07-2.92.78q2.07 12.93 4.13 25.84c.3 1.86 3.22 1.07 2.93-.78zM1395.28 1707.35c-.31-1.86-3.23-1.07-2.93.78q2.06 12.4 4.09 24.8c.31 1.86 3.23 1.07 2.93-.78Q1397.32 1719.75 1395.28 1707.35zM1411.86 1729.33a199.14 199.14 0 00-4.93-23.51c-.5-1.83-3.42-1-2.92.78a201.18 201.18 0 014.93 23.51 1.55 1.55 0 001.87 1A1.5 1.5 0 001411.86 1729.33zM1422.11 1727.35a173.53 173.53 0 01-4.27-23.71c-.2-1.86-3.23-1.88-3 0a178.74 178.74 0 004.38 24.49C1419.65 1730 1422.58 1729.19 1422.11 1727.35zM1427.77 1698.67c-.32-1.86-3.24-1.07-2.92.78q2.18 12.61 4.36 25.22c.32 1.86 3.24 1.07 2.92-.78Q1430 1711.28 1427.77 1698.67zM1442.86 1719.77a170 170 0 00-4.69-21.13c-.53-1.82-3.46-1.05-2.93.78a170 170 0 014.7 21.13 1.52 1.52 0 001.86 1A1.49 1.49 0 001442.86 1719.77zM1452.88 1715.33a1.13 1.13 0 00-.35-.59s0-.06 0-.11c0-.23 0-.46-.07-.68l-.18-1.58c-.1-.91-.21-1.81-.32-2.72-.24-1.93-.5-3.87-.78-5.8q-.84-5.85-1.93-11.67c-.35-1.86-3.27-1.07-2.92.78.76 4.1 1.45 8.22 2 12.35q.44 3.07.79 6.15c.12 1.06.24 2.11.35 3.17.08.83 0 1.77.79 2.34a1.6 1.6 0 002.14 0A1.58 1.58 0 001452.88 1715.33zM1459 1688.71c-.31-1.86-3.23-1.07-2.93.78q1.88 11.29 3.39 22.63a1.54 1.54 0 001.51 1.47c.74 0 1.62-.68 1.52-1.47Q1460.89 1700.39 1459 1688.71zM1469.23 1682.81c-.43-1.84-3.35-1.06-2.92.78a92.23 92.23 0 012.38 22.87c0 1.89 3 1.89 3 0A95.62 95.62 0 001469.23 1682.81zM1884.51 1451.57c-50.08 36-100.5 72.12-156 99.92-51.38 25.73-105.9 46.43-164.75 41.72a225.21 225.21 0 01-69.94-17.21l-.25-.1a232.66 232.66 0 01-72.79-48.92c-34.53-34.26-63.89-74.71-93.14-113-22.23-29.13-43.1-59.45-60.47-91.54q-8.73-16.12-16.21-32.87a374.22 374.22 0 01-21.84-63.68c10.79-3.58 21.23-6.58 30.57-9.15a334.86 334.86 0 0134.42-7.57c3.55-.22 7.1-.37 10.66-.47 1.16 0 2.37-.06 3.63-.07a5 5 0 01.55 0l2.23 0c30.38-.27 86.66 4.14 151.35 48.69 20 13.74 40.71 31.31 61.75 53.73 44.79 47.75 62 77.38 92.38 134.83 88.31-42 157.55-29.14 235.73-40C1874.19 1421 1886.57 1426.39 1884.51 1451.57z" class="colorf39c70 svgShape"></path><path fill="#5978ee" d="M1594.32,1542.52c-3,0-6-.1-9-.3l-1.89-.14a1.47,1.47,0,1,1,.26-2.92l1.84.14c3.31.22,6.72.32,10.12.28h0a1.47,1.47,0,1,1,0,2.94Zm13.47-.63a1.51,1.51,0,0,1-1.51-1.33,1.48,1.48,0,0,1,1.36-1.6c3.87-.36,7.87-.88,11.91-1.54a1.5,1.5,0,0,1,1.74,1.2,1.47,1.47,0,0,1-1.24,1.69c-4.1.68-8.18,1.2-12.12,1.57Zm-36.18-1.6a1.32,1.32,0,0,1-.34,0,59,59,0,0,1-11.74-3.93,1.45,1.45,0,0,1-.72-2,1.54,1.54,0,0,1,2-.69,57,57,0,0,0,11.13,3.73,1.46,1.46,0,0,1,1.13,1.76A1.51,1.51,0,0,1,1571.61,1540.29Zm60.07-2.29a1.51,1.51,0,0,1-1.48-1.14,1.47,1.47,0,0,1,1.13-1.76c3.75-.85,7.67-1.84,11.65-2.95a1.52,1.52,0,0,1,1.88,1,1.47,1.47,0,0,1-1,1.82c-4,1.12-8,2.13-11.8,3A2,2,0,0,1,1631.68,1538Zm23.3-6.46a1.51,1.51,0,0,1-1.44-1,1.47,1.47,0,0,1,1-1.86c1.51-.48,3-1,4.51-1.48,2.31-.77,4.6-1.56,6.89-2.37a1.52,1.52,0,0,1,1.94.87,1.45,1.45,0,0,1-.9,1.88c-2.3.82-4.61,1.61-6.93,2.39-1.52.51-3,1-4.56,1.5A1.53,1.53,0,0,1,1655,1531.54Zm-105.06-1.29a1.56,1.56,0,0,1-.92-.3,97.57,97.57,0,0,1-9.2-7.92,1.43,1.43,0,0,1,0-2.07,1.54,1.54,0,0,1,2.14,0,92.9,92.9,0,0,0,8.91,7.68,1.43,1.43,0,0,1,.27,2A1.51,1.51,0,0,1,1549.92,1530.25Zm127.82-6.77a1.52,1.52,0,0,1-1.41-.93,1.45,1.45,0,0,1,.85-1.9c3.69-1.43,7.45-2.93,11.16-4.48a1.53,1.53,0,0,1,2,.77,1.46,1.46,0,0,1-.8,1.93c-3.73,1.55-7.51,3.07-11.23,4.5A1.55,1.55,0,0,1,1677.74,1523.48Zm22.27-9.26a1.53,1.53,0,0,1-1.38-.86,1.45,1.45,0,0,1,.75-1.94c3.59-1.6,7.27-3.29,10.91-5a1.55,1.55,0,0,1,2,.68,1.44,1.44,0,0,1-.69,2c-3.67,1.73-7.37,3.43-11,5A1.56,1.56,0,0,1,1700,1514.22Zm-167.38-.35a1.55,1.55,0,0,1-1.15-.5c-2.59-2.9-5.17-6-7.67-9.2a1.44,1.44,0,0,1,.29-2.06,1.56,1.56,0,0,1,2.13.29c2.46,3.15,5,6.2,7.54,9a1.43,1.43,0,0,1-.16,2.07A1.49,1.49,0,0,1,1532.63,1513.87Zm189.16-9.95a1.53,1.53,0,0,1-1.35-.79,1.45,1.45,0,0,1,.65-2c3.53-1.76,7.12-3.6,10.69-5.48a1.54,1.54,0,0,1,2,.59,1.44,1.44,0,0,1-.61,2c-3.58,1.88-7.19,3.74-10.73,5.51A1.62,1.62,0,0,1,1721.79,1503.92ZM1518,1495.19a1.5,1.5,0,0,1-1.26-.65c-2.18-3.13-4.38-6.48-6.55-10a1.43,1.43,0,0,1,.51-2,1.54,1.54,0,0,1,2.08.49c2.15,3.43,4.33,6.74,6.47,9.84a1.43,1.43,0,0,1-.41,2A1.52,1.52,0,0,1,1518,1495.19Zm225.1-2.45a1.52,1.52,0,0,1-1.31-.74,1.43,1.43,0,0,1,.57-2c3.43-1.89,7-3.86,10.47-5.86a1.53,1.53,0,0,1,2.07.51,1.44,1.44,0,0,1-.53,2c-3.53,2-7.07,4-10.52,5.89A1.55,1.55,0,0,1,1743.1,1492.74Zm20.89-11.91a1.53,1.53,0,0,1-1.3-.71,1.44,1.44,0,0,1,.51-2q5.16-3.06,10.28-6.18a1.53,1.53,0,0,1,2.08.46,1.43,1.43,0,0,1-.47,2q-5.13,3.13-10.31,6.2A1.52,1.52,0,0,1,1764,1480.83Zm-258.6-5.68a1.52,1.52,0,0,1-1.32-.75c-1.88-3.25-3.77-6.63-5.79-10.35a1.44,1.44,0,0,1,.64-2,1.52,1.52,0,0,1,2,.61c2,3.7,3.89,7.07,5.75,10.29a1.45,1.45,0,0,1-.58,2A1.62,1.62,0,0,1,1505.39,1475.15Zm279.11-6.83a1.54,1.54,0,0,1-1.28-.67,1.45,1.45,0,0,1,.45-2q5.08-3.19,10.12-6.43a1.54,1.54,0,0,1,2.1.41,1.44,1.44,0,0,1-.42,2q-5.06,3.25-10.15,6.45A1.56,1.56,0,0,1,1784.5,1468.32Zm20.19-13a1.52,1.52,0,0,1-1.25-.65,1.43,1.43,0,0,1,.4-2q5-3.3,10-6.62a1.52,1.52,0,0,1,2.1.37,1.43,1.43,0,0,1-.38,2c-3.33,2.22-6.67,4.44-10,6.63A1.54,1.54,0,0,1,1804.69,1455.34Zm-310.61-.95a1.51,1.51,0,0,1-1.35-.8c-1.83-3.49-3.63-7-5.43-10.51a1.44,1.44,0,0,1,.68-2,1.52,1.52,0,0,1,2,.66q2.7,5.25,5.42,10.49a1.44,1.44,0,0,1-.67,2A1.64,1.64,0,0,1,1494.08,1454.39ZM1824.65,1442a1.53,1.53,0,0,1-1.24-.62,1.44,1.44,0,0,1,.37-2.05q5-3.36,9.91-6.75a1.55,1.55,0,0,1,2.11.35,1.44,1.44,0,0,1-.37,2q-4.93,3.39-9.91,6.76A1.55,1.55,0,0,1,1824.65,1442Zm-341.39-8.62a1.53,1.53,0,0,1-1.36-.81q-2.7-5.24-5.47-10.45a1.45,1.45,0,0,1,.65-2,1.54,1.54,0,0,1,2,.64c1.86,3.48,3.68,7,5.49,10.48a1.45,1.45,0,0,1-.68,2A1.59,1.59,0,0,1,1483.26,1433.39Zm-11.14-20.84a1.52,1.52,0,0,1-1.33-.77c-2-3.65-4-7-5.91-10.19a1.44,1.44,0,0,1,.55-2,1.55,1.55,0,0,1,2.07.53c2,3.24,3.89,6.6,6,10.27a1.44,1.44,0,0,1-.61,2A1.54,1.54,0,0,1,1472.12,1412.55Zm-12.24-20.25a1.5,1.5,0,0,1-1.27-.68c-2.22-3.36-4.48-6.61-6.73-9.67a1.44,1.44,0,0,1,.36-2,1.54,1.54,0,0,1,2.11.34c2.28,3.1,4.57,6.39,6.81,9.79a1.45,1.45,0,0,1-.46,2A1.52,1.52,0,0,1,1459.88,1392.3Z" class="coloree7b59 svgShape"></path><path fill="#70b1f3" d="M1493.17,1570c-.07,3.89.1,7.78.39,11.64.07,1,.16,2,.25,3,1.28,14.13,3.9,28.14,2.73,42.46-3.5,42.94-36.84,60-75.14,69.49a498.82,498.82,0,0,1-150.94,13.32c-52.49-3.37-121.49-10.3-161-48.55-7.82-7.59-9.9-16.68-9.34-26.43.8-13.5,6.71-28.21,9.53-41.81,6.36-28.86,4.65-59,5.15-88.36q.85-48.45,4.2-96.83c2.74-39.64.51-88.23,19.65-124.1,15.94-29.88,55.06-48.34,90.48-60.39,10.79-3.67,21.23-6.74,30.57-9.36,2-.56,4-1.12,6.06-1.64,19-3,38.93-5.59,39-3.88v.15l3.63-.07h.55c.73,0,1.48,0,2.23,0,30.38-.27,86.66,4.24,151.35,49.84,13.52,19,23.25,41.23,29.58,63.36,2,7,3.69,14.07,5,21,9.81,50.44,5.23,102.63.77,153.42C1495.74,1520.76,1493.57,1545.35,1493.17,1570Z" class="colorf39c70 svgShape"></path><path fill="#5978ee" d="M1474.45 1314.43a117.21 117.21 0 0112 24 217.06 217.06 0 017.66 25.65 346.11 346.11 0 017.64 52.88 513.86 513.86 0 011.11 53.38q-.37 13.35-1.52 26.68l-2.18 26.49c-.64 8.82-1.32 17.64-1.77 26.46-.23 4.41-.43 8.81-.57 13.22l-.17 6.62c0 2.17 0 4.32.05 6.49.3 8.7 1.46 17.44 2.34 26.33s1.4 18 .22 27a69.91 69.91 0 01-8.19 26 66.36 66.36 0 01-18.31 20.48 101.76 101.76 0 01-24.31 12.88c-4.29 1.63-8.65 3-13.05 4.31s-8.87 2.29-13.34 3.25c4.39-1.24 8.76-2.59 13.06-4.09s8.56-3.08 12.71-4.89a99.58 99.58 0 0023.09-13.68 63 63 0 0016.68-20 66.73 66.73 0 007-24.74c.85-8.6.22-17.3-.77-26.05s-2.33-17.59-2.77-26.61c-.1-2.26-.14-4.54-.1-6.81l.14-6.67q.18-6.67.5-13.34c.44-8.89 1-17.77 1.72-26.62l2.31-26.52c.79-8.79 1.34-17.59 1.75-26.41q1.14-26.44-.11-52.93a387.12 387.12 0 00-5.9-52.6C1488.11 1347.27 1483.27 1330 1474.45 1314.43zM1372.05 1535.46c7.65.18 15.83 2.52 20 7.81 2.82 3.6 3.39 8 3.77 12.25.69 7.74 1 15.51 1 23.26s6.33 32.25-.13 37.84c-4.11 3.55-11.53 2.94-17.15 4.67-5.12 1.58-20.61 1.78-26 2.47-4.77.6-4.9-11.74-9.75-11.9a12.23 12.23 0 01-4.2-.63 7.76 7.76 0 01-3.13-2.59c-3.25-4.21-3.95-9.35-4.36-14.28a198.18 198.18 0 011-40.23c1.17-9.71 3.18-18.58 16.91-17.9C1357.39 1536.6 1364.58 1535.27 1372.05 1535.46z" class="coloree7b59 svgShape"></path><path fill="#70b1f3" d="M1383.54 1542.73l-14.8.33-7.25.17a40.12 40.12 0 01-7.19-.17c-1.91-.31-2.73 2.52-.81 2.83 4.79.77 9.84.23 14.67.12l15.38-.35A1.47 1.47 0 101383.54 1542.73zM1386.24 1551.18q-15.65.64-31.22 2.24c-1.92.2-1.94 3.14 0 2.94q15.57-1.6 31.22-2.25C1388.18 1554 1388.19 1551.09 1386.24 1551.18zM1388.72 1562.66Q1372 1564 1355.27 1565c-1.93.11-2 3 0 2.93q16.74-1 33.45-2.35C1390.65 1565.43 1390.67 1562.5 1388.72 1562.66zM1388.12 1572.72q-16.35 2.77-32.87 4.43c-1.92.2-1.94 3.13 0 2.94q16.92-1.71 33.67-4.54C1390.84 1575.23 1390 1572.4 1388.12 1572.72zM1388.52 1585.08q-15.52 2.18-31.23 2.82c-1.94.08-2 3 0 2.93q16.1-.66 32-2.93C1391.25 1587.63 1390.43 1584.81 1388.52 1585.08zM1389.67 1595a258.4 258.4 0 00-32.75 6.73 1.47 1.47 0 00.8 2.82 260.28 260.28 0 0132.76-6.72C1392.4 1597.59 1391.58 1594.76 1389.67 1595zM1391.24 1605.8a258.37 258.37 0 00-32.75 6.72 1.47 1.47 0 00.8 2.83 258.88 258.88 0 0132.76-6.72C1394 1608.36 1393.15 1605.53 1391.24 1605.8zM1353 1620.51c-66.65 13.09-136.45 16.49-204.21 10.71-15.14-1.29-31.82-3.13-48.72-6.09-58.73-10.27-119.9-34.18-127-96.54-4-34.95 8.09-70.08 24.15-100.89 17-32.62 34.35-65.25 56.36-95 28.1-38.07 63.58-68.39 106.91-89.26a353.63 353.63 0 0172-25.46c2.65-.63 17.59-3.23 33.2-5.61 19-2.89 38.93-5.46 39-3.8v.16c2.07 39.74-13.31 80.23-36.92 112.81l-.68.93c-23.24 32-37.35 45.25-67.46 78.56-23.17 43.44-33.42 56.74-55 96.7 66.6 8.4 134.42 23.34 199.79 37.83z" class="colorf39c70 svgShape"></path><path fill="#5978ee" d="M1200.32 1401q-6.08 12.49-12.63 24.77c-4.36 8.19-8.78 16.35-13.38 24.41l-13.65 24.21q-6.77 12.12-13.18 24.41l-1.86-3.46c11.67 1.42 23.33 3 35 4.69s23.22 3.69 34.78 5.76 23.1 4.27 34.6 6.6 23 4.7 34.45 7.25 22.9 5.07 34.31 7.74l17.12 4 4.28 1 1.07.25a8.51 8.51 0 011.36.43 8.08 8.08 0 012.44 1.56 7.62 7.62 0 012.38 5l.29 4.25c.78 11.34 1.54 22.68 2.19 34s1.4 22.69 1.93 34c-1.45-11.28-2.71-22.58-4-33.88s-2.55-22.6-3.75-33.9l-.46-4.24a3.89 3.89 0 00-1.31-2.52 4.16 4.16 0 00-1.24-.75 5.43 5.43 0 00-.73-.2l-1.08-.22-4.3-.9-17.22-3.56-34.42-7.11-34.44-6.93c-11.49-2.26-23-4.41-34.51-6.54-23-4.19-46.13-8-69.32-11.18l-3.52-.48 1.66-3q6.8-12.18 13.92-24.16c4.72-8 9.67-15.87 14.55-23.77s9.82-15.74 14.58-23.7S1195.63 1409 1200.32 1401zM1156.26 1251.54a42.33 42.33 0 0118.27 4.92 55.69 55.69 0 0115 11.7 77.69 77.69 0 0111 15.38 99.8 99.8 0 017.23 17.26 124.24 124.24 0 014.14 18.11 121.41 121.41 0 011.25 18.44 140.91 140.91 0 01-5.14 36.26 273.13 273.13 0 00.62-36.14 152.58 152.58 0 00-2.15-17.74 127.21 127.21 0 00-4.26-17.29c-.46-1.41-.88-2.83-1.38-4.23l-1.54-4.19q-1.65-4.11-3.65-8.08a85.09 85.09 0 00-9.54-15C1178.72 1261.73 1168.61 1254.23 1156.26 1251.54zM1312.93 1609.78h-1a1.47 1.47 0 110-2.93h1q5.57 0 11.12-.07h0a1.47 1.47 0 110 2.94Q1318.51 1609.78 1312.93 1609.78zm-13.1-.09h0q-6.07-.09-12.14-.25a1.47 1.47 0 01-1.47-1.5 1.49 1.49 0 011.55-1.43q6.06.16 12.1.25a1.47 1.47 0 110 2.93zm-24.23-.64h-.06q-6.07-.22-12.13-.53A1.48 1.48 0 011262 1607a1.5 1.5 0 011.59-1.39c4 .2 8.06.38 12.09.53a1.47 1.47 0 11-.06 2.93zm-24.21-1.19h-.1q-6-.36-12.11-.79a1.46 1.46 0 11.22-2.92q6 .42 12.08.78a1.47 1.47 0 11-.09 2.93zm-24.18-1.68h-.13q-6-.48-12.09-1a1.48 1.48 0 01-1.37-1.59 1.51 1.51 0 011.65-1.33q6 .52 12.06 1a1.47 1.47 0 01-.12 2.93zm-24.15-2.1h-.14q-6-.57-12.07-1.19a1.47 1.47 0 01-1.35-1.61 1.49 1.49 0 011.66-1.3q6 .62 12 1.19a1.47 1.47 0 011.36 1.6A1.49 1.49 0 011203.06 1604.08zm-24.1-2.46h-.17q-6-.64-12.06-1.37a1.48 1.48 0 01-1.32-1.63 1.5 1.5 0 011.69-1.28q6 .72 12 1.36a1.47 1.47 0 01-.16 2.93zm-24.07-2.89h-.21c-4.14-.56-8.18-1.15-12-1.75a1.46 1.46 0 01-1.25-1.68 1.51 1.51 0 011.73-1.21c3.82.59 7.84 1.18 12 1.73a1.48 1.48 0 011.29 1.66A1.49 1.49 0 011154.89 1598.73zM1131 1595a1.37 1.37 0 01-.28 0c-4.1-.75-8.11-1.55-11.92-2.37a1.47 1.47 0 01-1.15-1.75 1.53 1.53 0 011.81-1.12c3.78.82 7.75 1.61 11.82 2.36a1.46 1.46 0 011.21 1.71A1.5 1.5 0 011131 1595zm-23.64-5.13a1.31 1.31 0 01-.39 0c-4-1-8-2.12-11.71-3.26a1.46 1.46 0 01-1-1.84 1.52 1.52 0 011.89-1c3.73 1.13 7.62 2.21 11.58 3.23a1.46 1.46 0 011.08 1.79A1.5 1.5 0 011107.32 1589.84zm-23.12-7a1.58 1.58 0 01-.52-.09c-3.87-1.39-7.68-2.88-11.32-4.42a1.46 1.46 0 01-.78-1.94 1.54 1.54 0 012-.75c3.58 1.52 7.34 3 11.15 4.36a1.46 1.46 0 01.89 1.89A1.5 1.5 0 011084.2 1582.81zm-22.17-9.45a1.55 1.55 0 01-.69-.16c-3.65-1.83-7.23-3.79-10.65-5.81a1.45 1.45 0 01-.5-2 1.55 1.55 0 012.08-.49c3.36 2 6.88 3.92 10.46 5.72a1.43 1.43 0 01.65 2A1.51 1.51 0 011062 1573.36zm-20.63-12.26a1.58 1.58 0 01-.9-.29 71.86 71.86 0 01-9.39-7.78 1.44 1.44 0 010-2.08 1.55 1.55 0 012.14 0 69.09 69.09 0 009 7.46 1.43 1.43 0 01.32 2A1.54 1.54 0 011041.4 1561.1zm-16.37-17a1.53 1.53 0 01-1.34-.78 48.11 48.11 0 01-4.35-11.3 1.46 1.46 0 011.11-1.77 1.51 1.51 0 011.83 1.07 45.12 45.12 0 004.09 10.63 1.44 1.44 0 01-.63 2A1.49 1.49 0 011025 1544.06zm-6-22.55a1.5 1.5 0 01-1.51-1.36c-.16-2.06-.24-4.19-.24-6.33 0-1.83.06-3.71.17-5.58a1.51 1.51 0 011.6-1.38 1.48 1.48 0 011.43 1.55c-.11 1.82-.17 3.64-.17 5.41 0 2.07.08 4.13.23 6.12a1.49 1.49 0 01-1.4 1.57zm1.29-23.37l-.24 0a1.47 1.47 0 01-1.25-1.69c.62-3.72 1.43-7.51 2.45-11.6a1.52 1.52 0 011.83-1.08 1.46 1.46 0 011.12 1.77c-1 4-1.8 7.74-2.41 11.38A1.51 1.51 0 011020.27 1498.14zm5.63-22.81a1.29 1.29 0 01-.43-.07 1.45 1.45 0 01-1-1.82c1.15-3.72 2.41-7.5 3.73-11.22a1.52 1.52 0 011.93-.91 1.46 1.46 0 01.94 1.86c-1.31 3.69-2.56 7.43-3.7 11.11A1.5 1.5 0 011025.9 1475.33zm7.88-22.19a1.49 1.49 0 01-.55-.1 1.45 1.45 0 01-.87-1.89c1.44-3.6 3-7.27 4.6-10.91a1.53 1.53 0 012-.77 1.45 1.45 0 01.8 1.92c-1.6 3.62-3.14 7.25-4.56 10.82A1.51 1.51 0 011033.78 1453.14zm9.53-21.56a1.64 1.64 0 01-.64-.14 1.45 1.45 0 01-.73-2c1.69-3.49 3.48-7.06 5.33-10.59a1.54 1.54 0 012-.65 1.44 1.44 0 01.67 2c-1.83 3.51-3.61 7-5.28 10.51A1.54 1.54 0 011043.31 1431.58zm10.93-20.94a1.57 1.57 0 01-.72-.18 1.45 1.45 0 01-.61-2c1.89-3.38 3.88-6.84 5.92-10.28a1.54 1.54 0 012.07-.54 1.43 1.43 0 01.56 2c-2 3.42-4 6.86-5.89 10.22A1.51 1.51 0 011054.24 1410.64zm12.06-20.36a1.55 1.55 0 01-.78-.21 1.45 1.45 0 01-.52-2c2-3.27 4.2-6.64 6.4-10a1.54 1.54 0 012.09-.45 1.45 1.45 0 01.47 2c-2.19 3.35-4.33 6.69-6.36 10A1.53 1.53 0 011066.3 1390.28zm12.94-19.84a1.59 1.59 0 01-.83-.24 1.43 1.43 0 01-.43-2q3.33-4.9 6.75-9.78a1.55 1.55 0 012.1-.39 1.44 1.44 0 01.4 2q-3.39 4.85-6.72 9.74A1.52 1.52 0 011079.24 1370.44zm13.61-19.42a1.58 1.58 0 01-.86-.26 1.44 1.44 0 01-.38-2q3.47-4.82 7-9.6a1.54 1.54 0 012.11-.34 1.44 1.44 0 01.35 2q-3.51 4.77-7 9.57A1.54 1.54 0 011092.85 1351zm14.07-19.11a1.54 1.54 0 01-.89-.28 1.44 1.44 0 01-.34-2.05q3.57-4.75 7.15-9.49a1.55 1.55 0 012.12-.31 1.45 1.45 0 01.33 2q-3.58 4.73-7.15 9.47A1.5 1.5 0 011106.92 1331.91zm14.33-18.93a1.51 1.51 0 01-.9-.29 1.44 1.44 0 01-.32-2l.8-1q3.2-4.18 6.45-8.38a1.54 1.54 0 012.12-.29 1.43 1.43 0 01.3 2q-3.26 4.18-6.43 8.36l-.8 1A1.52 1.52 0 011121.25 1313zm14.65-18.7a1.51 1.51 0 01-.94-.32 1.43 1.43 0 01-.25-2.06c2.73-3.31 5.27-6.29 7.77-9.08a1.55 1.55 0 012.14-.15 1.44 1.44 0 01.15 2.07c-2.47 2.76-5 5.7-7.68 9A1.54 1.54 0 011135.9 1294.28zm15.92-17.69a1.5 1.5 0 01-1.06-.41 1.44 1.44 0 010-2.08c3-2.93 5.93-5.67 8.86-8.16a1.56 1.56 0 012.14.13 1.43 1.43 0 01-.14 2.07c-2.87 2.44-5.79 5.14-8.69 8A1.51 1.51 0 011151.82 1276.59zM1109.81 1625.64c19.73 2 39.44 3.65 59.16 4.49 4.94.14 9.87.29 14.8.49l14.79.22 14.79 0 14.79-.34 14.78-.54 14.77-.86 14.76-1.06c4.91-.48 9.83-.91 14.75-1.33 19.65-1.92 39.66 0 59.28-2.8-19.12 5.14-39 4.39-58.73 7.15-4.93.65-9.86 1.28-14.79 1.86l-14.85 1.48-14.88 1-14.91.67-14.93.21-14.92-.16-14.91-.61c-5-.31-9.93-.67-14.88-1A437.73 437.73 0 011109.81 1625.64z" class="coloree7b59 svgShape"></path><path fill="#a7cef5" d="M1265.74 1212.32s7.7 56.18 75.25 46.83 39.27-41 39.27-41l-7.86-27-90.59 7.27zM1460.26 1504.36s-17.16 4.68-30.62 13.51c-9.61 6.14-18.28 14.51-24 24.53-10.83 27.61 4.76 58.74 13.65 65.57 7 4.36 16.7 6.46 32 4.93 32.12-3.26 69.82-15.89 69.82-15.89 17.4-5.77 14.85-17.73 7-18.21 27.67-.78 27.31-22.44 13.16-22.19 18.59-2.62 12.8-23.2-1.3-18.3l-.45-.51c11.41-2.4 6.85-18.76-12.07-16.81l-61.85 5s7.83-3.61 17.62-8.64c16.43-8.44 8.41-23.08 8.41-23.08l-31.41 10.1" class="colorf5afa7 svgShape"></path><polygon fill="#87bdf3" points="1541.54 1558.03 1480.17 1568.2 1479.69 1565.38 1541.07 1555.2 1541.54 1558.03" class="colorf3878e svgShape"></polygon><polygon fill="#87bdf3" points="1529.2 1580.47 1476.55 1589.55 1476.05 1586.73 1528.7 1577.65 1529.2 1580.47" class="colorf3878e svgShape"></polygon><polygon fill="#87bdf3" points="1540.82 1538.57 1478.81 1548.05 1478.37 1545.22 1540.38 1535.74 1540.82 1538.57" class="colorf3878e svgShape"></polygon><polygon fill="#87bdf3" points="1465.81 1527.41 1449.06 1529.41 1448.71 1526.57 1465.46 1524.56 1465.81 1527.41" class="colorf3878e svgShape"></polygon><path fill="#a7cef5" d="M1393.87,1545.49l14.67-3.64,10.78,66.12-20.21,4s.79-21.81-2.36-38.94S1393.87,1545.49,1393.87,1545.49Z" class="colorf5afa7 svgShape"></path><path fill="#9ebcdb" d="M3017.52,542.7h356.27a37.19,37.19,0,0,1,37.34,37V719c0,30.51-25,55.24-55.71,55.24H3092.33a9.45,9.45,0,0,0-6.63,2.7l-47.34,46.49-.5-40a9.37,9.37,0,0,0-9.41-9.22h-7.23a47,47,0,0,1-47.14-46.74V585.78A43.26,43.26,0,0,1,3017.52,542.7Z" opacity=".3" class="color9eb2db svgShape"></path><rect width="437.05" height="233.82" x="2951.02" y="521.14" fill="#9ebcdb" rx="24.92" transform="rotate(180 3169.545 638.045)" class="color9eb2db svgShape"></rect><polygon fill="#9ebcdb" points="3016.7 753.82 3017.4 805.28 3076.09 752.31 3016.7 753.82" class="color9eb2db svgShape"></polygon><rect width="340.07" height="27.41" x="2997.38" y="571.9" fill="#b5cce4" rx="3.52" class="colorb5c9e4 svgShape"></rect><rect width="189.73" height="14.95" x="3000.58" y="658.17" fill="#b5cce4" rx="1.92" class="colorb5c9e4 svgShape"></rect><rect width="189.73" height="14.95" x="2999.5" y="624.86" fill="#b5cce4" rx="1.92" class="colorb5c9e4 svgShape"></rect><rect width="189.73" height="14.95" x="3000.58" y="692.35" fill="#b5cce4" rx="1.92" class="colorb5c9e4 svgShape"></rect><polygon fill="#87bdf3" points="1949.98 2132.31 1833.34 2224.59 1801.96 2190.76 1949.98 2132.31" class="colorf3878e svgShape"></polygon><polygon fill="#7fb8f2" points="1674.11 2240.72 1697.24 2311.21 1833.34 2224.59 1801.96 2190.76 1674.11 2240.72" class="colorf27f8a svgShape"></polygon><path fill="#2c449f" d="M2036.54,1346.5H1629.83q-28.65,93.48-57.33,186.94-11.77,38.4-23.54,76.8v35.94h420.88l48.38-157.82q21.73-70.92,43.51-141.86Z" class="color2c509f svgShape"></path><polygon fill="#324075" points="1645.3 1346.26 1629.82 1346.26 1600.97 1439.87 1572.3 1533.37 1549.61 1607.38 1432.16 1607.2 1431.92 1646.2 1554.4 1646.44 1571.19 1591.29 1587.88 1536.16 1645.4 1346.42 1645.3 1346.26" class="color324175 svgShape"></polygon><path fill="#070708" d="M1134.37,1104.39c10.75-9.4,27.56-10,36.87-21.1,5.94-7.09,4.76-15.6,1.6-23.55-7.61-19.16-15.6-43.14-.13-61,2.85-3.28,6.74-5.51,10.69-7.41,13.11-6.33,28.07-9,38.92-19,5.74-5.3,11.33-10.86,15.7-17.31,20-29.48,45.22-37.57,74-41.25s64.62-.45,82.15,22.13l40.87,69.81c6,19.7,19.69,35.69,30.5,52.93,5.26,8.4,7.88,14.61,6.21,24.55-1.47,8.75-7.8,19.44-2.41,27.73,5.29,8.14,15.75,13.09,22.31,20.18,12.55,13.59,5.56,36.93-.85,53.93-35,4.91-57.14,10-92.43,12.16-37,2.27-74.66-1.18-111.69-2.48-88.27-3.07-155-15.59-155-15.59,4.54-10.76,2.36-28.58-.72-39.82C1127.73,1127.57,1123.71,1113.71,1134.37,1104.39Z" class="color070808 svgShape"></path><path fill="#262628" d="M1403 1131.51c-.52 8.41 5.24 15.09 8.31 22.44 3.36 8 3.57 16.83 2.68 25.36-.51 4.93-1.39 9.82-2.31 14.69a1.71 1.71 0 001.17 2 1.66 1.66 0 002-1.16c1.64-8.79 3.25-17.75 2.78-26.73a43.51 43.51 0 00-2.47-13 81.19 81.19 0 00-5.77-11.25c-2.16-3.83-4.25-7.89-4.23-12.4a1.1 1.1 0 00-2.2 0zM1227.57 1062.55c-2.35 9.09-6.15 18.2-12.55 25.21-3.41 3.73-7.55 6.72-10.9 10.5a35.73 35.73 0 00-6.83 11.51 37 37 0 00.47 26.44c1.92 4.69 4.51 9.08 6.33 13.82a82.13 82.13 0 013.29 10.14c.2.83.37 1.66.52 2.49.07.42.14.84.2 1.27 0 0 .06.37 0 .13s0 .09 0 .14c0 .23.06.46.08.68a40.58 40.58 0 01.23 5.4 57.64 57.64 0 01-1.86 12.7c-.32 1.31-.67 2.61-1 3.91a1.76 1.76 0 003.4.94c2.35-8.3 3.86-16.91 2.47-25.52-1.3-8.09-4.87-15.62-8.5-22.87a52.87 52.87 0 01-3-6.82c-.34-1-.64-2.08-.88-3.15-.12-.53-.23-1.06-.33-1.6s-.17-1-.21-1.37a35.05 35.05 0 016.12-24.42c2.84-4 6.71-7 10.12-10.51a45.61 45.61 0 008.26-11.77 71.29 71.29 0 004.8-13.47c.31-1.15.59-2.31.85-3.47a.58.58 0 00-1.12-.31z" class="color262828 svgShape"></path><path fill="#070708" d="M1263.73,964.76a133.35,133.35,0,0,0-20.8,31.26c-4.52,9.41-5.66,20.2-10.51,29.08-4.15,7.6-8.09,15.3-11.72,23.16-1.43,3.09-2.57,6.48-4.59,9.12-1.84,2.4-4.68,2.65-5.95,6.09-1.11,3-1.08,6.31-1,9.52a173.79,173.79,0,0,0,6.91,41.81c2.36,8,5.45,16.1,11.26,22.1,1.29,1.33,3,2.64,4.82,2.31a5.55,5.55,0,0,0,3.11-2.23c3.53-4.38,5.15-10,7-15.26,8.73-25,23.45-50.36,44.52-66.33a193.64,193.64,0,0,0,28.74-26.37,181.8,181.8,0,0,0,20.69-28.7c1.12-1.93,13.32-26.06,12.24-26.45,20.89,7.68,44.53,13,63.16,33.85,7.64,8.57,9.52,14.43,13.41,25.24s4.82,37.23,4.82,37.23c13.63-6.37,27.21-13.45,38.16-23.78s19.11-24.41,19.41-39.46a57.64,57.64,0,0,0-3.41-19.6c-6.86-20.16-21.55-37.31-39.78-48.32s-39.81-16-61.1-15.45c-5.05.13-8.87,2.84-14,3.16-10.12.63-18.57-6-28.31-4.73s-19.85,4.7-29,8.55A135.12,135.12,0,0,0,1263.73,964.76Z" class="color070808 svgShape"></path><path fill="#262628" d="M1321.51,967.53c-5.64,7.43-11.29,14.84-16.88,22.31-5.29,7.07-10.62,14.12-15.55,21.46a170.08,170.08,0,0,0-12.85,22.69,246.62,246.62,0,0,0-9.67,24c-2.83,8.13-5.59,16.34-7.7,24.69a27.75,27.75,0,0,0-.63,3.27c-.15,1.17,1.71,1.6,2.21.59a57.34,57.34,0,0,0,2.37-6.12c.73-2,1.32-4.11,2-6.17,1.28-4.08,2.58-8.15,4-12.2,2.72-8,5.68-16,9.12-23.81A176.72,176.72,0,0,1,1290,1015.4c4.67-7.39,9.7-14.53,14.79-21.63q8.07-11.26,16-22.6l2-2.85c.58-.83-.76-1.57-1.35-.79Z" class="color262828 svgShape"></path><path fill="#262628" d="M1296.57 974c-12.92 8.76-22.37 21.64-28.8 35.72-7.5 16.4-10.72 34.19-14.38 51.73-.91 4.36-1.69 8.82-3 13.09a38.51 38.51 0 01-4.83 10.18 39.62 39.62 0 01-7.4 8.27c-2.87 2.42-6.24 4.06-9.21 6.33a28.45 28.45 0 00-10.72 16.1c-1.51 6.51-.79 13.34.92 19.73a63.59 63.59 0 004 10.77c1.69 3.58 3.57 7.12 4.59 11 1.11 4.17.9 8.61.41 12.86-.52 4.53-1.48 9-2.41 13.47a54.47 54.47 0 00-1.06 6.61c-.13 1.53 2.17 1.73 2.6.35a132.47 132.47 0 003.12-13.2 67 67 0 001.54-13.38 30.76 30.76 0 00-2.37-11.94c-1.52-3.72-3.52-7.22-5-11-2.49-6.22-4.12-13.09-3.74-19.82a24.91 24.91 0 017.12-16.35c2.58-2.6 5.64-4.29 8.65-6.31a41.54 41.54 0 008.28-7.38 42.73 42.73 0 006.15-9.43 51 51 0 003.53-11.09c3.89-17.85 6.43-36.13 12.8-53.33 5.32-14.37 13.58-28 25.36-38 1.51-1.28 3.07-2.48 4.68-3.62.86-.61.06-2-.82-1.42zM1455.84 1052.15c-.79.67-1.65 1.24-2.43 1.9s-1.5 1.28-2.29 1.87a46.76 46.76 0 01-5.12 3.33 39.08 39.08 0 01-5.36 2.52c-1 .36-1.93.65-2.9 1a7.86 7.86 0 00-2.72 1.72.87.87 0 00.38 1.44 6 6 0 003.42 0c1-.36 2-.77 3-1.2a42.67 42.67 0 005.68-3 41.49 41.49 0 005.19-3.85c.79-.7 1.57-1.41 2.29-2.17a22.21 22.21 0 002-2.62c.52-.72-.56-1.41-1.16-.89zM1451 1080.11c1.83 6.63-1.8 12.87-4.46 18.71a44.41 44.41 0 00-3.53 9.94 24.26 24.26 0 00.38 10.52c1.74 6.88 5.87 12.84 9.33 18.93a52.56 52.56 0 014.48 9.51 41.92 41.92 0 012.08 11.64c.36 8.33-1.15 16.4-2.89 24.51-.21 1-.43 2-.65 3a1.86 1.86 0 001.28 2.24 1.84 1.84 0 002.24-1.27c1.83-8.26 3.62-16.63 3.76-25.12a50.61 50.61 0 00-1.23-12.45 44.53 44.53 0 00-4.25-10.82c-1.69-3.16-3.6-6.19-5.42-9.27a62.89 62.89 0 01-4.68-9.16 22.81 22.81 0 01-1.69-9.64 22.13 22.13 0 01.86-4.81 48.73 48.73 0 011.76-5c2.49-6.14 6-12.65 5-19.49a14.85 14.85 0 00-.56-2.46.94.94 0 00-1.81.5z" class="color262828 svgShape"></path><path fill="#070708" d="M1339.65,918.71c12.49-10.06,20.58-26.83,16.67-42.39-2.75-11-10.93-19.86-20.3-26.17-39.3-26.45-88.9,22.09-50.58,58.76,11.55,11,30.43,16.44,51.39,12.08" class="color070808 svgShape"></path><path fill="#a7cef5" d="M1284.27,1087.7l-11.81,127s19,16.72,52.14,19.26c39.93,3.06,49.53-6.31,49.53-6.31l4.29-79,1.82-42.21Z" class="colorf5afa7 svgShape"></path><polygon fill="#87bdf3" points="1302.01 1152.58 1374.54 1222.38 1378.41 1148.7 1302.01 1152.58" class="colorf3878e svgShape"></polygon><path fill="#a7cef5" d="M1291.58,965.17l2.51,172.26a19.13,19.13,0,0,0,12,17.41l71.41,28.6a19.18,19.18,0,0,0,18.28-2.28l37.7-27.42a19,19,0,0,0,7.89-15.67l-.11-5.91-1-68.9-.56-40a60.34,60.34,0,0,0-61.19-59.41Z" class="colorf5afa7 svgShape"></path><path fill="#718bee" d="M1421.41,1098.41c-1.27,12.73,6.83,24.3,18.86,28.47l.2-51.53A27.18,27.18,0,0,0,1421.41,1098.41Z" opacity=".24" class="coloree8171 svgShape"></path><path fill="#607ade" d="M1391.46,1110.85a2.44,2.44,0,0,0,1-.13l25.86-9.14a2.5,2.5,0,0,0,1.59-3l-17-62.68a2.5,2.5,0,1,0-4.83,1.32l16.35,60.42-23.67,8.37a2.5,2.5,0,0,0,.64,4.85Z" class="colorde7360 svgShape"></path><path fill="#a7cef5" d="M1314.32,1092.61a35,35,0,1,1-35.52-34.5A35,35,0,0,1,1314.32,1092.61Z" class="colorf5afa7 svgShape"></path><path fill="#1c1f28" d="M1443.77 1021.54c-2.81 6.86-27.44 2.48-26.14-4.28C1419.77 1006 1448.23 1010.66 1443.77 1021.54zM1333.69 1023.75c3.42 6.58 27.55 0 25.64-6.63C1356.18 1006.12 1328.26 1013.33 1333.69 1023.75z" class="color281c1c svgShape"></path><path fill="#718bee" d="M1310.25,1097.31a26.45,26.45,0,1,0,28.39-24.36A26.44,26.44,0,0,0,1310.25,1097.31Z" opacity=".24" class="coloree8171 svgShape"></path><path fill="#1c1f28" d="M1355.74 1067.43c.09 6.59 3.28 11.88 7.11 11.83s6.87-5.44 6.77-12-3.28-11.87-7.11-11.82S1355.64 1060.85 1355.74 1067.43zM1420.54 1066.49c.1 6.35 3.17 11.46 6.88 11.41s6.62-5.25 6.53-11.61-3.17-11.47-6.87-11.41S1420.45 1060.13 1420.54 1066.49z" class="color281c1c svgShape"></path><rect width="3.58" height="28.6" x="1276.76" y="1078.76" fill="#87bdf3" transform="rotate(-45.05 1278.369 1093.004)" class="colorf3878e svgShape"></rect><rect width="12.45" height="3.58" x="1267.84" y="1095.6" fill="#87bdf3" transform="rotate(-43.98 1273.892 1097.327)" class="colorf3878e svgShape"></rect><path fill="#070708" d="M1401.92,971.83s-4.45,23.58-45.05,32.34c-19.75,4.26-33.59,2.82-38.95,8.9-6.73,7.55-1.23,31.46-7.09,39.77-5,7.12-5.6,3.91-12.94,8.72,0,1.46-2.08,15.62-1.77,28.34-17.34-24.3-56.4-42.57-51-71.9,4-21.78,12.8-42.85,27-59.86s33.82-29.77,55.48-34c18.66-3.61,38.25-.87,56,5.86a130,130,0,0,1,68.72,61.34c14.4,27.91,11.26,24.54,3.32,54.91C1423.58,976.71,1401.92,971.83,1401.92,971.83Z" class="color070808 svgShape"></path><path fill="#718bee" d="M1394.7,1140.11A73.41,73.41,0,0,1,1375,1137a2.22,2.22,0,0,1,1.35-4.24c7.5,2.38,28,6.47,32.93-3a2.23,2.23,0,0,1,4,2C1409.89,1138.26,1402.27,1140.11,1394.7,1140.11Z" class="coloree8171 svgShape"></path><path fill="#9fc9f3" d="M2548.28,2482c4.82-11,17.47-47.46,17.41-56.28-.06-9.84-13-562.84-13-562.84l119.82-18.78c51.25,5.63-9.4,69.57,19.28,120.53,30.45,54.13,10.1,133-46.28,445.65-1,5.67-.52,10.86,1.54,18.71-4,10.27-2.27,19.27-4.76,29.85a177.69,177.69,0,0,1-32.5,67.36c-7.25,9.43-15.89,18.62-27.84,23.8-7.37,3.19-15.65,4.68-23.9,5.51-16.36,1.65-36.93-.69-49.37-9.66C2522.28,2526.41,2539,2503.18,2548.28,2482Z" class="colorf39f9f svgShape"></path><path fill="#324075" d="M2646,2423.06c12.3,3.09,21,12.67,24.71,22.89s3.21,21.14,2.47,31.8a824.33,824.33,0,0,1-16.12,114.48l-13.83.57-4.58-76.57c-7.75,15.16-15.62,30.38-23.37,45.54-3.85,7.54-7.71,15.1-12.22,22.39-1.77,2.86-3.68,6.41-7,8.33-4.12,2.42-38.37,9.52-50,11.36a393,393,0,0,1-54.88,5.15,281.87,281.87,0,0,1-28.48-.91c-5.48-.46-16.27-.64-18-6.27-2.8-9,2.48-15.8,10.81-20.72q6.51-3.85,12.78-8c17-11.16,32.38-24.46,46.45-38.14.44-.43,18.42,4.15,20.54,4.36a101.62,101.62,0,0,0,22.73-.19c17.18-2.24,28.14-9.7,35.77-22.43C2612.11,2486.29,2630.25,2454.44,2646,2423.06Z" class="color324175 svgShape"></path><path fill="#a7cef5" d="M2731.3,2479.9c4.14-11.19,14.53-48.14,13.92-57-.67-9.82-77.28-558.17-77.28-558.17l151.47-26.29s-15,79.61,11.3,131.46c18.09,35.68,36.17,97.66-6.77,434.18-.72,5.71.15,10.88,2.69,18.63-3.34,10.42-1.07,19.34-2.91,30a174,174,0,0,1-28.29,68.65c-6.67,9.73-14.73,19.28-26.34,24.95-7.16,3.51-15.34,5.35-23.53,6.53-16.24,2.34-36.92.88-49.9-7.55C2708.09,2525.34,2723.35,2501.43,2731.3,2479.9Z" class="colorf5afa7 svgShape"></path><path fill="#324075" d="M2825.29 2416.86c12.48 2.56 21.76 11.75 26.09 21.8s4.51 21 4.43 31.66a818.5 818.5 0 01-9 115l-13.77 1.16-9.3-76.27c-6.8 15.47-13.72 31-20.52 46.47-3.39 7.7-6.77 15.41-10.83 22.89-1.59 2.92-3.28 6.55-6.43 8.61-4 2.59-37.74 11.14-49.19 13.47a390.86 390.86 0 01-54.49 7.48 282.2 282.2 0 01-28.5.31c-5.5-.23-16.29.05-18.4-5.5-3.36-8.86 1.5-15.89 9.51-21.15q6.27-4.12 12.27-8.5c16.29-11.87 30.83-25.81 44-40.08.41-.44 18.65 3.37 20.78 3.48a101.35 101.35 0 0022.7-1.15c17-3 27.5-10.89 34.33-23.93C2795.32 2481.45 2811.47 2448.87 2825.29 2416.86zM2482.66 1465.77c22.18-119 53.13-190.76 74.51-235.76 108.51-5.64 133.38-1.88 250.44-6.21 55.58 58.8 113.35 120.37 123.82 211.46 13.41 116.52 20.19 374.48 11.2 497.94-84.63 43.39-367.33 58.55-442.12 12.79C2493.62 1941.77 2457 1603.38 2482.66 1465.77z" class="color324175 svgShape"></path><path fill="#87bdf3" d="M2826.42,1960.78s14.69,27.52,16,43.67c0,0-124.18,48.46-150.21,26.33l-8.68-53.25S2783,1973.94,2826.42,1960.78Z" class="colorf3878e svgShape"></path><path fill="#7fb8f2" d="M2683.55,1977.53l7,64.91s-121.17,0-133.19-33.2l-2-44.87S2646.5,1979.92,2683.55,1977.53Z" class="colorf27f8a svgShape"></path><path fill="#334174" d="M2923.08,1409.92s21.85,26.2-25-152.15c-15.24-57.94-28.47-109.61-47-149.54l-290.92,65.14-12.31,63.33-47.59,182s177.66,9.54,206.5,7.37l3.28-6.28" class="color334174 svgShape"></path><path fill="#021b79" d="M2547.83,1236.7c90,23.57,261,22.84,350.2,21.07-13-58.49-28.47-109.61-47-149.54l-290.92,65.14Z" opacity=".5" class="color26245d svgShape"></path><path fill="#2c3d7e" d="M2841.18 1278.85c-7.75-1.84-16-2.33-23.9-3.43-6.38-.9-12.74-1.9-19.05-3.18-11.88-2.4-23.93-6.13-33.74-13.5-11.06-8.28-16.83-21-22.32-33.32-3.26-7.29-6.62-14.53-10-21.75-1.65-3.5-3.31-7-5-10.47-2-4.07-4.7-8.3-6.17-12.57-.22-.62-1.22-.27-1 .31 1.29 2.84 1.88 6.09 2.84 9.07 1.14 3.52 2.21 7.06 3.37 10.57 2.07 6.27 4.09 12.56 6.28 18.79 3.94 11.19 7.47 22.92 14 32.93 12 18.31 32.9 25.4 53.75 27.66 6 .64 12 1 18 1.19 7.44.3 15.35.82 22.73-.23A1.05 1.05 0 002841.18 1278.85zM2531.19 1278.23c7.68-2.12 23.12-5.45 32.67-13.15 10.75-8.68 16.07-21.64 21.12-34.1 3-7.4 6.1-14.75 9.24-22.09q2.3-5.33 4.64-10.64c1.84-4.13 4.4-8.46 5.73-12.77.19-.63 1.2-.32 1 .27-1.19 2.88-1.66 6.15-2.52 9.17-1 3.55-2 7.13-3 10.68-1.84 6.34-3.64 12.7-5.61 19-3.54 11.31-6.66 23.17-12.84 33.4-11.31 18.72-42.71 23.08-50.13 22.3A1.06 1.06 0 012531.19 1278.23zM2655.74 1204.36q-2.47 73.91-2.1 147.9c0 3.77 4.32 3.78 4.31 0q-.37-74 2.09-147.9c.13-3.77-4.18-3.76-4.3 0z" class="color5c2c7e svgShape"></path><path fill="#2c3d7e" d="M2685.1,1208.63l-.21,72.46c0,10.54.83,23-2.79,32.7-4.45,11.91-15.07,15.42-23.34,8.7-2.38-1.94-4.55,3.12-2.17,5.06,14.43,11.74,29.41-1.91,31.89-22.85,1.64-13.89.73-28.66.77-42.67l.15-53.4c0-3.77-4.29-3.77-4.3,0Z" class="color5c2c7e svgShape"></path><path fill="#6e97c1" d="M2263.33,881.79s25.32,132.21,70.24,232.59c25.81,57.71,69.46,60.13,101.9,51.74,20.19-5.19,38.68-15.51,54.39-29.18l52.31-45.57,7.5,67.84-8.26,101.72,360.37,10.27-2.8-59.76,60.16,12.72c16.34,2.39,33.23-.16,47.51-8.42,53.31-30.85,29.33-113.6,29.33-113.6-11.66-67.74-71.51-200.28-90.56-241.34a29.46,29.46,0,0,0-19-16l-137.87-37.15h-96.41l-134.05,32.45a29.44,29.44,0,0,0-16.89,11.33L2439.75,991.15,2323,820.58Z" class="color6ec184 svgShape"></path><path fill="#5c87b2" d="M2910.68 1065.63s-7.82-19.54-22.75-83.12l2.63 81.79zM2540.6 1091.8l3.15-.87c-.13-.48-13.17-48.16-13.36-84.27-.07-13.26 7.33-28.33 15.15-44.28 6.07-12.36 12.33-25.15 15.37-37.76l-3.17-.77c-3 12.27-9.15 24.89-15.13 37.09-8 16.31-15.56 31.71-15.48 45.73C2527.31 1043.23 2540.47 1091.32 2540.6 1091.8zM2469.19 1047.06l3.16-.81c-9-35.16-30.59-55.44-31.51-56.29l-2.22 2.39C2438.84 992.56 2460.44 1012.88 2469.19 1047.06z" class="color5cb280 svgShape"></path><path fill="#a7cef5" d="M2318.91,824.73l-45.89-61s-17.86-20.06-42.88-31.83c-30.57-14.38-70.65-41.62-70.65-41.62s-13.48,8.57,0,21.22l36.34,35.09-22.6,16.76c-9,6.06-9.53,19.56-.54,25.59q.7.46,1.5.9s-4.9,14.69,9.8,21.63a16.42,16.42,0,0,0,10.21,15.1c10.62,4.49,28.76-2.45,28.76-2.45s3.92,21.83,35.78,28l14.05,20Z" class="colorf5afa7 svgShape"></path><path fill="#a7cef5" d="M2239.94,756.83l-65.34-6.12s-6.13,17.95,10.62,22a329.69,329.69,0,0,1,33.89,10.61s-2.71,25.71,22.94,32.65Z" class="colorf5afa7 svgShape"></path><path fill="#87bdf3" d="M2242.05,817.26a1.26,1.26,0,0,0,.33-2.48c-24.29-6.56-22.12-30.29-22-31.3l.1-1-.9-.34a331.49,331.49,0,0,0-34-10.66c-4.29-1-7.34-3.16-9.06-6.28-2.66-4.82-1.52-10.88-.93-13.18l52.74,4.94a1.26,1.26,0,0,0,.23-2.51l-54.76-5.13-.32.94c-.13.37-3,9.1.82,16.14,2.07,3.77,5.67,6.3,10.69,7.53a327.14,327.14,0,0,1,32.88,10.24c-.17,4.9.45,26.65,23.92,33A1.32,1.32,0,0,0,2242.05,817.26Z" class="colorf3878e svgShape"></path><path fill="#87bdf3" d="M2181.36 792.07c14.5 0 37-7.15 38.14-7.52a1.26 1.26 0 00-.77-2.4c-.33.11-32.82 10.44-44.13 6.54a1.26 1.26 0 10-.82 2.38A24.05 24.05 0 002181.36 792.07zM2188.66 813c18 0 34.22-9.86 35-10.31a1.26 1.26 0 10-1.32-2.14c-.19.11-19.24 11.67-38.18 9.71a1.26 1.26 0 10-.26 2.5A45.65 45.65 0 002188.66 813zM2223 825.42a1.26 1.26 0 00.76-.25c1.12-.84 10.91-8.33 9.83-13.67a1.26 1.26 0 10-2.47.49c.58 2.87-5.14 8.37-8.87 11.16a1.26 1.26 0 00.75 2.27z" class="colorf3878e svgShape"></path><polygon fill="#87bdf3" points="2318.91 824.73 2261.94 857.42 2272.78 872.07 2318.91 824.73" class="colorf3878e svgShape"></polygon><path fill="#a7cef5" d="M2672.35,812.41l29.65-9.25h81.54l13.4,6.73s-34.77,64.22-79.1,61.76S2670,814.69,2672.35,812.41Z" class="colorf5afa7 svgShape"></path><path fill="#070708" d="M2659.14,555.54s23.26-68.13,106.6-48.09,178.3,82.16,93,272.52l-236.44,6Z" class="color070808 svgShape"></path><path d="M2773.59,659.8s54.07-15.16,70.77,36.7-13.52,84.58-13.52,84.58l-188.45,4S2637.62,652.62,2773.59,659.8Z" fill="#000000" class="color000000 svgShape"></path><path fill="#070708" d="M2699.67,572.23c-55.73-25.59-101.79,16-84,80.29,19.51,70.63,87.59,49.29,87.59,49.29Z" class="color070808 svgShape"></path><path fill="#a7cef5" d="M2785,687.62l2,126.49s-20,15.08-52.83,15.08c-39.57,0-48.32-10-48.32-10l1.74-78.43,1.39-41.86Z" class="colorf5afa7 svgShape"></path><polygon fill="#87bdf3" points="2762.59 750.42 2685.86 813.92 2687.6 740.79 2762.59 750.42" class="colorf3878e svgShape"></polygon><path fill="#a7cef5" d="M2787,565.93,2771.53,736a18.93,18.93,0,0,1-13.12,16.31l-72.52,22.86a18.91,18.91,0,0,1-17.84-3.63l-35.08-30a18.93,18.93,0,0,1-6.58-16.09l.54-5.84,6.21-68,3.57-39.49a59.69,59.69,0,0,1,64.77-54.1Z" class="colorf5afa7 svgShape"></path><path fill="#708aed" d="M2654.22,684.58a36.15,36.15,0,0,1-27.29,35.09l6.21-68A36.12,36.12,0,0,1,2654.22,684.58Z" opacity=".24" class="colored8070 svgShape"></path><path fill="#607ade" d="M2677.6,702.39a2.49,2.49,0,0,0,1-4.76l-22.69-10.06,20.68-58.5a2.48,2.48,0,1,0-4.67-1.66l-21.44,60.67a2.48,2.48,0,0,0,1.33,3.11l24.79,11A2.56,2.56,0,0,0,2677.6,702.39Z" class="colorde7360 svgShape"></path><path fill="#070708" d="M2781.07,666l1.12-6.15c-50.1-9.17-85.69-29.84-102.91-59.78-13-22.54-11.09-42.68-11.07-42.88l-6.19-.65c-.1.88-2.14,22.06,11.67,46.3C2686.3,625,2715.17,653.89,2781.07,666Z" class="color070808 svgShape"></path><path fill="#070708" d="M2796.45,665.25s-125.39-24.84-129.22-109.71l26.57-19.74,119.58,15.44Z" class="color070808 svgShape"></path><path fill="#a7cef5" d="M2755,690.19a34.6,34.6,0,1,0,37.6-31.41A34.68,34.68,0,0,0,2755,690.19Z" class="colorf5afa7 svgShape"></path><path fill="#1c1f28" d="M2632.81 610.13c2.25 7 26.84 4.53 26.08-2.25C2657.62 596.61 2629.24 599 2632.81 610.13zM2741.1 620.66c-3.87 6.24-27.14-2.11-24.77-8.51C2720.27 601.53 2747.23 610.76 2741.1 620.66z" class="color281c1c svgShape"></path><path fill="#708aed" d="M2768.6,693.35a36.09,36.09,0,1,1-36.09-36.21A36.15,36.15,0,0,1,2768.6,693.35Z" opacity=".24" class="colored8070 svgShape"></path><path fill="#1c1f28" d="M2716.08 662.17c-.59 6.5-4.13 11.49-7.91 11.15s-6.35-5.9-5.76-12.4 4.13-11.5 7.91-11.15S2716.67 655.67 2716.08 662.17zM2652.54 656.34c-.6 6.51-4.14 11.5-7.91 11.15s-6.35-5.9-5.76-12.4 4.13-11.49 7.9-11.15S2653.13 649.84 2652.54 656.34z" class="color281c1c svgShape"></path><path fill="#383839" d="M2700.75,734.37a21.18,21.18,0,0,1-2.66,2.61,28.92,28.92,0,0,1-24.76,5.29,26.73,26.73,0,0,1-10.19-5.13c-4.64-3.85-7.81-9.08-8.34-14.56-.31-3.15.69-7,4.1-8a7.73,7.73,0,0,1,2.45-.21,28.42,28.42,0,0,1,4.46,1.09,64.28,64.28,0,0,0,24.64,2.54,23.34,23.34,0,0,1,8.1.27c2.35.59,4.14,1.74,5,3.77C2705.37,726.2,2703.65,730.85,2700.75,734.37Z" class="color383939 svgShape"></path><path fill="#ffffff" d="M2698.55,718.29a8.64,8.64,0,0,1-2.5,5.43c-1.67,1.49-4,1.9-6.14,2.08a53.89,53.89,0,0,1-23.55-2.85c-1.79-.65-3.67-1.49-4.66-3.11s-.82-3.58-.35-5.45a28.42,28.42,0,0,1,4.46,1.09,64.28,64.28,0,0,0,24.64,2.54A23.34,23.34,0,0,1,2698.55,718.29Z" class="colorffffff svgShape"></path><path fill="#708aed" d="M2698.09,737a28.92,28.92,0,0,1-24.76,5.29,26.73,26.73,0,0,1-10.19-5.13c3.47-3.64,8.94-5.36,14.13-5.68A32.12,32.12,0,0,1,2698.09,737Z" class="colored8070 svgShape"></path><polygon fill="#87bdf3" points="2780.62 703.92 2802.07 685.47 2799.77 682.78 2778.32 701.23 2780.62 703.92" class="colorf3878e svgShape"></polygon><polygon fill="#87bdf3" points="2797.05 703.76 2799.69 701.4 2791.52 692.17 2788.88 694.53 2797.05 703.76" class="colorf3878e svgShape"></polygon><path fill="#070708" d="M2663,558.51s-33.05-8.07-44.92,24.24-3,62.5-3,62.5,22.88-71,39.4-76.53l8.05-2.13Z" class="color070808 svgShape"></path><polygon fill="#232d54" points="3578.65 1706.03 3586.42 2614.93 3542.37 2614.93 3519.04 1711.07 3578.65 1706.03" class="color233454 svgShape"></polygon><rect width="2410.01" height="64.2" x="1221.76" y="1644.35" fill="#232d54" rx="4.97" class="color233454 svgShape"></rect><polygon fill="#232d54" points="1282.66 1703.51 1274.88 2612.41 1318.94 2612.41 1342.26 1708.55 1282.66 1703.51" class="color233454 svgShape"></polygon><path fill="#0575e6" d="M2554.43,1298.27q6.53,25.39,13.07,50.78,29.25,113.75,58.52,227.5,8.13,31.65,16.26,63.28H3112.7v-48.21L3087.32,1493q-25-97.38-50.07-194.7Z" class="color5580c1 svgShape"></path><path fill="#b5cce4" d="M3002.33,1327h-400l5.22,19.93,5.43,19.62,24.17,87.76,24.31,88.09,7.5,27.26,5.95,21.67,389.91.15.24-37.49q-5.29-19.05-10.52-38l-3.85-14-6.71-24.31-18.35-66.63-23.13-83.89Z" class="colorb5c9e4 svgShape"></path><path fill="#3d4f95" d="M2554.44,1298.14l6.41,25.57,6.55,25.38,29.19,113.54,29.32,114,9.06,35.25,7.2,28H2651q-18.72-72-37.45-144-25.68-98.83-51.38-197.7Z" class="color3d5a95 svgShape"></path><rect width="525.13" height="35.96" x="2642.56" y="1608.68" fill="#3d4f95" class="color3d5a95 svgShape"></rect><path fill="#5b87b4" d="M2823.93,1323.31a9.27,9.27,0,1,0-9.33-9.21,9.27,9.27,0,0,0,9.33,9.21" class="color5b7eb4 svgShape"></path><path fill="#a7cef5" d="M2890.87,1364.58c-10.94-1.45-20-.21-21,7.34-1.15,7.95,15.18,16.29,31.29,22.5-12.36-2.83-24.12-3.48-25.48,3.73-3.29,17.46,48.86,12,70.77,45.85,16.57,25.63,31.06,37.74,43.17,44.61,8.83,5,16.39,7.2,22.61,9.81,15.05-18,26.09-40.35,33.85-60.42-4.69-7.3-10.58-15.51-17.89-24.83s-16-19.7-26.25-31.37c-9.52-10.8-23.38-32-32.9-38.69-14.22-10-80.12-42.77-88.39-26.94-4.77,9.12,17.93,20.93,35,28.31-17.84-6.25-43.3-12.75-47-.65C2866.13,1351.75,2877.19,1358.92,2890.87,1364.58Z" class="colorf5afa7 svgShape"></path><path fill="#accef0" d="M2931.27 1404.24a221.67 221.67 0 00-30.16-9.82C2916.29 1400.27 2931.27 1404.24 2931.27 1404.24zM2915.66 1344.5c9.21 4 16.79 6.64 17.57 6.91C2932.51 1351.08 2925.17 1347.83 2915.66 1344.5zM2933.86 1377.35s-24.3-10.3-43-12.77C2909.85 1372.41 2933.86 1377.35 2933.86 1377.35z" class="colorf0c7ac svgShape"></path><path fill="#87bdf3" d="M2954.23 1359.29c-6.8-3.36-13.66-6.81-20.74-9.56s-14.25-5.25-21.55-7.33c-17.91-5.09-29.92-5.47-29.18-5.37 17.48 2.48 43 11.92 50 14.67s14.26 5.13 21.33 7.86C2954.31 1359.63 2954.39 1359.37 2954.23 1359.29zM2944.79 1385.05c-8.32-6.56-36.15-17.85-53.65-20.6-.74-.11-.6.24.11.49 9.09 3.24 44.56 16.66 53.46 20.33C2944.85 1385.33 2944.9 1385.14 2944.79 1385.05zM2940.65 1408.62c-11.46-7.16-26-12-42-14.72-.73-.13-.5.38.21.61 14.06 4.63 25.12 8.17 41.56 14.57C2940.67 1409.18 2940.91 1408.78 2940.65 1408.62zM2989.57 1488.61c8.83 5 16.39 7.2 22.61 9.81 15.05-18 26.09-40.35 33.85-60.42a195 195 0 00-13.78-19.53s-45.48 31.92-42.66 70.13z" class="colorf3878e svgShape"></path><path fill="#a7cef5" d="M3022.21,1405.74c-.15-.9-28.51-59.73-27.17-72.8,1.21-11.81-7.82-19.83-17.16-8s-8.89,18.2-8.89,18.2C2977.51,1349.1,3005.39,1390.37,3022.21,1405.74Z" class="colorf5afa7 svgShape"></path><polygon fill="#a7cef5" fill-rule="evenodd" points="3193.75 2326.64 3081.28 2356.27 3149.17 2541.67 3247.11 2514.54 3193.75 2326.64" class="colorf5afa7 svgShape"></polygon><path fill="#232d54" d="M3124.05,2476.24s-44.42,72.75-68.46,85.93-48,13.3-54,31.61.33,36.09.33,36.09l123.89-22s33-41.11,49.08-35.38,15.46,10.71,15.46,10.71,72-29.59,81.44-38.85c0,0-.14-59.12-42.11-96.18a29.55,29.55,0,0,0-12.27,17.64C3214.49,2477.91,3188.1,2511.92,3124.05,2476.24Z" class="color233454 svgShape"></path><path fill="#030b28" d="M3190.32 2583.19s72-29.59 81.44-38.85a145.34 145.34 0 00-5.19-33.7c-8.62 13.89-110.49 57.42-139.35 72.34-27.36 14.15-117.95 27.5-128.24 29a62.87 62.87 0 002.91 17.9l123.89-22s33-41.11 49.08-35.38S3190.32 2583.19 3190.32 2583.19zM3081.63 2571.1c12.22-12 59.58-64.85 65.64-83.78l.13-.44a148.5 148.5 0 01-23.35-10.64s-44.42 72.75-68.46 85.93C3055.59 2562.17 3069.41 2583.13 3081.63 2571.1z" class="color031028 svgShape"></path><path fill="#232d54" d="M3084.7 2557.28a2.86 2.86 0 01-3.06.62c-4.56-1.8-10.09-8.26-10.7-9a2.86 2.86 0 014.37-3.68c2 2.33 6 6.39 8.43 7.35a2.86 2.86 0 011.61 3.71A2.94 2.94 0 013084.7 2557.28zM3095 2544.92a2.82 2.82 0 01-2.67.73c-3.88-1-9.59-7.58-11.24-9.59a2.86 2.86 0 114.4-3.64c3.12 3.77 6.95 7.36 8.2 7.68a2.87 2.87 0 011.31 4.82zM3105.45 2530.87a2.68 2.68 0 01-2.8.64c-2.63-.9-7.58-6.09-10.3-9.11a2.86 2.86 0 014.25-3.83c2.9 3.23 6.79 7 8 7.55a3 3 0 011.59 3.7A3.14 3.14 0 013105.45 2530.87zM3116.58 2516a2.85 2.85 0 01-3 .65c-6.11-2.21-10.18-9.44-10.63-10.26a2.86 2.86 0 015-2.74c.93 1.69 4.1 6.37 7.56 7.62a2.87 2.87 0 011.71 3.67A2.8 2.8 0 013116.58 2516z" class="color233454 svgShape"></path><polygon fill="#a7cef5" fill-rule="evenodd" points="3008.92 2453.98 2918.91 2401.53 2844.76 2562.04 2923.99 2606.87 3008.92 2453.98" class="colorf5afa7 svgShape"></polygon><path fill="#232d54" d="M2870.2,2504.66s-74.14,18-97.71,11.11-38.82-21.95-54.22-14.18-22.61,23.08-22.61,23.08l92.44,64.51s46.88-5.18,53.47,8.66,3,16.57,3,16.57,64.37,26.87,76.18,27c0,0,37.27-37.56,34.09-87.63a26.4,26.4,0,0,0-18.92,3.41C2926.46,2563,2888.24,2567.84,2870.2,2504.66Z" class="color233454 svgShape"></path><path fill="#030b28" d="M2844.6 2614.41s64.37 26.87 76.18 27a130.17 130.17 0 0018-24.65c-14.25 3.35-106.33-33.58-134.05-42.4-26.29-8.36-92.15-57.27-99.6-62.84a56 56 0 00-9.48 13.19l92.44 64.51s46.88-5.18 53.47 8.66S2844.6 2614.41 2844.6 2614.41zM2783.35 2537.92c15.35.11 78.76-3.37 94.56-11.54l.35-.19a132.83 132.83 0 01-8.06-21.53s-74.14 18-97.71 11.11C2772.49 2515.77 2768 2537.81 2783.35 2537.92z" class="color031028 svgShape"></path><path fill="#232d54" d="M2794 2531.1a2.57 2.57 0 01-2.33-1.54c-1.75-4-1.18-11.62-1.1-12.48a2.55 2.55 0 115.09.43c-.22 2.73-.23 7.85.7 10a2.57 2.57 0 01-1.32 3.38A2.72 2.72 0 012794 2531.1zM2808.4 2529.82a2.55 2.55 0 01-2.16-1.23c-1.85-3.06-1.28-10.88-1.07-13.2a2.56 2.56 0 115.1.48c-.41 4.36-.25 9.07.34 10.06a2.57 2.57 0 01-.87 3.52A2.63 2.63 0 012808.4 2529.82zM2823.88 2527.5a2.44 2.44 0 01-2.19-1.36c-1.09-2.24-1-8.67-.77-12.3a2.59 2.59 0 012.69-2.43 2.55 2.55 0 012.42 2.69c-.19 3.89-.13 8.76.28 9.82a2.65 2.65 0 01-1.33 3.35A2.72 2.72 0 012823.88 2527.5zM2840.33 2525.13a2.55 2.55 0 01-2.3-1.48c-2.47-5.27-.49-12.43-.25-13.23a2.56 2.56 0 114.91 1.43c-.48 1.67-1.43 6.64 0 9.63a2.55 2.55 0 01-1.23 3.4A2.52 2.52 0 012840.33 2525.13z" class="color233454 svgShape"></path><path fill="#a7cef5" d="M3554.58,1285.72h0a60.32,60.32,0,0,0,36.47-86.67l-41.76-122.78-104.16,45.51,34.94,122.46A60.3,60.3,0,0,0,3554.58,1285.72Z" class="colorf5afa7 svgShape"></path><polygon fill="#87bdf3" points="3477.13 1232.39 3534.81 1143.39 3467.15 1197.4 3477.13 1232.39" class="colorf3878e svgShape"></polygon><path fill="#151d39" d="M3259.94,2080.4c0,1.06,0,2.2-.08,3.26a326.74,326.74,0,0,1-9.12,70.46c-25,106.63-95.77,196.48-136.38,238.84-1.06,1.06-2,2.12-3,3.09-11.8,12.06-23.52,30.36-37.58,48.69-42.49,55.41-46.75,84.77-76.62,103.92-6.1,3.91-40.29-14.22-44-15.84-38.56-16.82-71.68-33.65-71.68-33.65l-11.37-9.4,119.58-268.69,23-55.72,18.72-45.29,24-58,31.49,2.85Z" class="color152139 svgShape"></path><path fill="#030b28" d="M3114.36 2393c-1.06 1.06-2 2.12-3 3.09-11.8 12.06-24.19 37.34-41 53.15l-80.62-228.12 23-55.72zM3259.86 2083.66a326.74 326.74 0 01-9.12 70.46c-38.49-5.37-116.69-16.86-219.3-34l24-58 31.49 2.85z" class="color031028 svgShape"></path><path fill="#ffffff" d="M3589.18,1162.81c-1.14-.31-14.24,1.69-17.13,3.3-11.3,6.3-44.49,13.37-58.66,28.37-8,8.47-19,15.1-29.64,27.13-11.63,13.15-22.47,26.11-27.47,33.93,49.78-22.1,141-49.56,144.77-49.18C3597.09,1187.76,3593.5,1164,3589.18,1162.81Z" class="colorffffff svgShape"></path><path fill="#232d54" d="M3536.86,1848.25l-18.23,53-1.22,3.58-51.27,149.07-21.89.16L3146,2056c50.77,159.82,113,368.32,113,368.32l-108.09,22.43h0l-57.28,7.66s-74.78-186.62-104.32-266-62-214.81-51.84-260.67,37.68-60,69.17-70.3c31.49-10.1,381.4-32.58,428.19-38.37v.09a19.26,19.26,0,0,0,1.71,4.72c2.93,2.93,33,13.11,68.68,19.8C3515.46,1845.48,3526.2,1847.19,3536.86,1848.25Z" class="color233454 svgShape"></path><path fill="#2a3664" d="M3800.35,1550.93H3679.83a43.56,43.56,0,0,0-11.15,1.46c-18.88,4.64-37.1,20.53-43.53,39.26l-85.69,249.18-2.6,7.42c-10.66-1.06-21.4-2.77-31.66-4.64-35.64-6.69-65.75-16.87-68.68-19.8a19.26,19.26,0,0,1-1.71-4.72V1819c-7.48-25.49-32.38-146-43.61-200.79-3.42-16.62-5.54-27.21-5.54-27.21s-30.51,40-64.36,74.62-50.86,46.19-83.41,44.8-51.59-27.78-86.18-57S3011,1528.83,3002.84,1509.77c-1.71-3.91-4.79-6.33-5.44-11.14-2.44-18.16,10.72-42.49,18.29-50.47,10.58-11.32,25.52-18.85,37.07-20.32a47.4,47.4,0,0,1,8.79-.49c6.75.74,181.61,98.33,181.61,98.33s142.36-233.55,171-247c6.53-3.06,21.24-13.85,42.16-23.13,49.31-22,129-51.18,133.87-51.18h0c5.37.49,110.73,24.08,142.07,105.59C3740.11,1330.45,3784.4,1492.28,3800.35,1550.93Z" class="color2a6454 svgShape"></path><path fill="#91c3f6" d="M4045.51,1550.93H3679.84c-22.38,0-47,18.32-54.7,40.72l-85.71,249.18-2.56,7.45-70.73,205.62H3160.21a31.64,31.64,0,0,0-31.53,31.56v4.11a31.64,31.64,0,0,0,31.53,31.56h689.17c22.38,0,47-18.32,54.69-40.73l168.12-488.75C4079.9,1569.25,4067.89,1550.93,4045.51,1550.93Z" class="colorf6d091 svgShape"></path><path fill="#0f1736" d="M3341.11,1646.08a1.63,1.63,0,0,1-1.24-2.69c32.24-37.89,64.84-84.78,65.17-85.25a1.6,1.6,0,0,1,2.26-.4,1.62,1.62,0,0,1,.41,2.26c-.33.47-33,47.5-65.36,85.51A1.63,1.63,0,0,1,3341.11,1646.08Z" class="color0f2a36 svgShape"></path><path fill="#07195f" d="M3407.31,1557.77,3404,1683.7c-3.42-16.62-18.32-92.7-18.32-92.7Z" class="color5f0730 svgShape"></path><path fill="#030b28" d="M3518.63,1901.28l-1.22,3.58c-68.44,12.06-177.07,26.56-275.37,39.75-97.81,13-190.26,25.42-196,29.57-6.68,9,42.14,195.56,71.92,331.35,17.74,80.56,41.19,102.78,47.46,137.89l-4.12,1.08c-6-34.38-28.65-56.44-46.63-138.31-49.72-226.45-78.48-329-70.51-334.7,6.11-4.31,79-14.25,197.5-30.14C3340.83,1928.08,3450.52,1913.41,3518.63,1901.28Z" class="color031028 svgShape"></path><path fill="#4363dd" d="M3668.68,1552.39c-18.88,4.64-37.1,20.53-43.53,39.26l-85.69,249.18-2.6,7.42-70.72,205.68-21.89.16c6.76-26.39,34.56-119.16,68.93-213.58,34-93.32,67.72-205.71,101.71-260.06C3632.72,1552,3650.29,1549.5,3668.68,1552.39Z" class="colordd7243 svgShape"></path><polygon fill="#4363dd" points="3703.98 2638.39 3729.72 2634.57 3532.38 2118.68 3489.64 2121.2 3703.98 2638.39" class="colordd7243 svgShape"></polygon><polygon fill="#4363dd" points="3310.97 2637.5 3523.58 2117.42 3567.57 2117.42 3341.32 2639.6 3310.97 2637.5" class="colordd7243 svgShape"></polygon><polygon fill="#283873" points="3407.31 1557.77 3423.02 1757.56 3385.66 1591 3407.31 1557.77" class="color283873 svgShape"></polygon><path fill="#030b28" d="M3434.81,1819l-42,3.57s33.1,33.13,116.9,26.84l2.52-5S3431.94,1831.8,3434.81,1819Z" class="color031028 svgShape"></path><path fill="#ffffff" d="M3236.77 652.66c0 .24 0 .48 0 .72v56h16.74v-56c0-.24 0-.48 0-.72zM3284.22 678.79V707.6a8.26 8.26 0 00.18 1.73h16.38a8.26 8.26 0 00.18-1.73V678.79z" class="colorffffff svgShape"></path><path fill="#70b1f3" d="M3325.51 626.11h-16.65a4 4 0 00-.09.89v82c0 .11 0 .22 0 .34l16.77 0a1.13 1.13 0 000-.38V627a7.92 7.92 0 000-.85zM3278.17 642.71h-16.55a5.49 5.49 0 00-.14 1.29v65.33l12 0h4.8l0-60.38v-5a7.28 7.28 0 00-.1-1.25z" class="colorf39c70 svgShape"></path><path fill="#2a3664" d="M2674.2,807.44s-23.75,46.11-22.59,159.92c.68,66.18,18.39,160.87,18.39,160.87s-80.94-171.77-79.69-225.44c.2-8.34,30.65-16.86,30.65-16.86s-28.89-14.34-24.44-27.25S2674.2,807.44,2674.2,807.44Z" class="color2a6454 svgShape"></path><path fill="#2a3664" d="M2797.76,808.37s-61.12,103.88-100.47,206.9c-23.62,61.82-31.12,105.19-31.12,105.19s173-194.22,175.14-202.29-27.85-12-27.85-12,32.66-10.46,30.47-23.94S2797.76,808.37,2797.76,808.37Z" class="color2a6454 svgShape"></path><path fill="#5c87b2" d="M2844.58,1196.84l1.31-3c-53.67-23.59-99.85-52.65-100.32-52.94l-1.74,2.76C2744.29,1144,2790.69,1173.15,2844.58,1196.84Z" class="color5cb280 svgShape"></path><polygon fill="#87bdf3" points="2743.09 1061.72 2738.45 1128.66 2723.03 1126.85 2743.09 1061.72" class="colorf3878e svgShape"></polygon><path fill="#5c87b2" d="M2898.57,1213.27s-123.57-40.94-153-72.36c0,0,113.91,124,154.45,129.79Z" class="color5cb280 svgShape"></path><path fill="#a7cef5" d="M3348.79,1022.06l28.49,148.29a20.48,20.48,0,0,0,11.63,14.79l45.6,20.64a20.17,20.17,0,0,0,19.63-1.57l68.69-45.54a20.51,20.51,0,0,0,8.76-21l-27.91-145.29Z" class="colorf5afa7 svgShape"></path><polygon fill="#a7cef5" points="3357.35 1066.58 3347.63 1130 3370.2 1133.49 3357.35 1066.58" class="colorf5afa7 svgShape"></polygon><path fill="#a7cef5" d="M3512.4,1092.72a37.51,37.51,0,1,0,29.74-44A37.6,37.6,0,0,0,3512.4,1092.72Z" class="colorf5afa7 svgShape"></path><path fill="#607ade" d="M3528.76,1101.86a2.22,2.22,0,0,0,1.11-.79l20.62-27.38a2.3,2.3,0,0,0-.45-3.2,2.27,2.27,0,0,0-3.19.45l-20.61,27.37a2.28,2.28,0,0,0,.45,3.2A2.25,2.25,0,0,0,3528.76,1101.86Z" class="colorde7360 svgShape"></path><path fill="#0b1129" d="M3392.24,1043.87c1.78,8.47,30.89,8.66,30.82.62C3423,1031.14,3389.4,1030.44,3392.24,1043.87Z" class="color0b1d29 svgShape"></path><path fill="#708aed" d="M3409.25,1116.2a29.64,29.64,0,1,0,23.5-34.78A29.72,29.72,0,0,0,3409.25,1116.2Z" opacity=".32" class="colored8070 svgShape"></path><path fill="#607ade" d="M3370.9,1135.66a2.28,2.28,0,0,0-.22-4.4l-20.27-4.38,9.39-61.29a2.28,2.28,0,1,0-4.5-.71l-9.72,63.42a2.3,2.3,0,0,0,1.78,2.59l22.37,4.83A2.2,2.2,0,0,0,3370.9,1135.66Z" class="colorde7360 svgShape"></path><path fill="#1c1f28" d="M3393.92,1076.36c1.26,5.86,5,10,8.46,9.29s5.13-6.09,3.87-12-5.06-10-8.47-9.29S3392.65,1070.49,3393.92,1076.36Z" class="color281c1c svgShape"></path><path fill="#ffffff" d="M3390.39,1163.57s37.3,34.72,26.44-13.07Z" class="colorffffff svgShape"></path><path fill="#070708" d="M3519.32,1062.59s-6.18,19.8-3.08,28.51l-23.36-2.69s-37.35-45.84-22.88-70.8c0,0-138,50.74-179-47.39,0,0,18.51,7.2,36.72-2s104.63-116.68,197.2-62.08,76.64,131.41,57.05,159.5C3582,1065.63,3554.48,1030.09,3519.32,1062.59Z" class="color070808 svgShape"></path><path d="M3550,922.35s29,69.39,17,93.64a93.9,93.9,0,0,1-31.61,36.12s21.08-11.67,46.61,13.52C3582,1065.63,3631.49,995.06,3550,922.35Z" fill="#000000" class="color000000 svgShape"></path><path fill="#262628" d="M3470,1017.61s-127.8-11.35-134.75-40.1l38-47.37s-35.71,33.33-49.69,39.82c0,0-16,5.93-32.54.26C3291,970.22,3318.62,1063,3470,1017.61Z" class="color262828 svgShape"></path><path fill="#ffffff" d="M2672.35,812.41s-.87,52.88,45.49,59.24c0,0,35.84,4.14,71.24-51.18l5.53-6.64s-103.45,188.66-104.55,227.94l-14.39,30.43s-26-98.48-23.23-142.19S2658.52,846.39,2672.35,812.41Z" class="colorffffff svgShape"></path><path fill="#6e97c1" d="M2991.05,1124.18s-11.44-49.78-78.41-57.94-140.49-2.45-169.07-11.43l-5.77,83.25s125,73.45,189,78.35Z" class="color6ec184 svgShape"></path><polygon fill="#70b1f3" points="2519.78 1160.91 2690.48 1160.91 2659.44 938.11 2488.74 938.11 2519.78 1160.91" class="colorf39c70 svgShape"></polygon><path fill="#a7cef5" d="M2743.09,1061.72s-26.88-12.21-35.46-23.23-37.91-26.6-37.91-26.6l2.79,24.14s-90.25-28.14-101.69-23.65,10.62,17.95,10.62,17.95-21.24-7.65-22.05-3.21,6.53,16.27,11,19.53c0,0-5.71-1.63-6.12,4.08s29.4,29.79,53.9,39.18c0,0-27.36-5.72-35.12,0,0,0,40,20,54.73,24.48s100.65,14.27,100.65,14.27Z" class="colorf5afa7 svgShape"></path><path fill="#87bdf3" d="M2655.36 1056.07a1.24 1.24 0 001.19-.86 1.26 1.26 0 00-.8-1.59l-73.91-24.48a1.26 1.26 0 10-.8 2.39L2655 1056A1.39 1.39 0 002655.36 1056.07zM2647.6 1074.84a1.26 1.26 0 00.32-2.47c-27-7.24-76.55-26.69-77-26.89a1.26 1.26 0 10-.93 2.34c.5.2 50.2 19.7 77.32 27A1.24 1.24 0 002647.6 1074.84zM2642.7 1098.1a1.26 1.26 0 00.34-2.47l-24.5-6.93a1.25 1.25 0 00-1.56.86 1.26 1.26 0 00.87 1.56l24.5 6.93A1.06 1.06 0 002642.7 1098.1z" class="colorf3878e svgShape"></path><path fill="#5c87b2" d="M2989.45,1124.55l3.19-.73c-.12-.53-3.08-13-14.43-26.59-10.43-12.52-30.25-28.33-65.38-32.61-31.64-3.86-64.68-4.62-93.83-5.3-32.22-.74-60.05-1.39-74.94-6.06l-1,3.11c15.33,4.82,43.37,5.46,75.85,6.22,29.07.67,62,1.43,93.51,5.27,34.06,4.15,53.2,19.4,63.26,31.46C2986.56,1112.33,2989.43,1124.43,2989.45,1124.55Z" class="color5cb280 svgShape"></path><path fill="#5978ee" d="M2536.62,958.24H2597a2.45,2.45,0,0,0,2.42-2.81l-2.65-17.68a2.45,2.45,0,0,0-4.85.72l2.23,14.87h-55.39l-2.13-15.56a2.45,2.45,0,1,0-4.85.66l2.41,17.68A2.46,2.46,0,0,0,2536.62,958.24Z" class="coloree7b59 svgShape"></path></g></svg>