<svg xmlns="http://www.w3.org/2000/svg" fill="none" viewBox="0 0 3000 3001" id="BusinessmandoingMultitasking"><path fill="#0575e6" d="M1007.75 2799.65H1797.69H2289.8C2510.23 2799.65 2713.07 2679.64 2818.78 2486.67L2838.56 2450.57C2964.57 2220.54 2910.71 1933.8 2709.77 1764.89C2562.77 1641.32 2490.73 1450.41 2519.56 1260.82L2530.35 1189.85C2572.66 911.651 2438.64 636.233 2193.35 497.315L2045.9 413.807C1776.16 261.039 1433.7 346.581 1267.95 608.13L1244.16 645.668C1179.54 747.633 1078.01 820.825 960.688 850.027L703.339 914.081C550.426 952.14 470.127 1119.76 536.493 1262.37C581.883 1359.9 559.314 1474.99 475.697 1542.85C412.753 1593.93 341.452 1649.59 273.696 1702.15C104.321 1833.55 61.512 2037.52 163.088 2226.06C198.24 2291.31 235.559 2357.64 275.667 2423.91C427.694 2675.08 713.635 2799.65 1007.75 2799.65Z" class="colore7e8ff svgShape"></path><path fill="#021b79" d="M999.813 2433.91C1078.63 2451.87 1034.06 2666.46 1000.72 2775.48C999.56 2779.28 996.069 2781.78 992.099 2781.78H915.772C911.247 2781.78 907.409 2778.47 906.811 2773.98C884.454 2606.3 900.892 2411.38 999.813 2433.91Z" class="color032068 svgShape"></path><path fill="#ffffff" d="M644.534 2000.65C863.531 1986.29 952.747 2496.96 970.899 2763.22C971.255 2768.45 967.088 2772.7 961.846 2772.7H781.645C778.313 2772.7 775.303 2770.98 773.721 2768.05C637.345 2515.21 424.27 2015.09 644.534 2000.65Z" class="colorffffff svgShape"></path><path fill="#021b79" fill-rule="evenodd" d="M961.821 2763.62H781.652C713.62 2637.47 626.664 2450 584.156 2292.58C562.841 2213.65 553.045 2143.45 561.575 2092.6C565.818 2067.3 574.476 2047.52 587.792 2033.7C600.962 2020.04 619.469 2011.39 645.129 2009.71C695.756 2006.39 739.802 2033.19 778.233 2081.92C816.716 2130.72 848.563 2200.37 874.398 2279.52C926 2437.62 952.759 2630.91 961.821 2763.62ZM792.497 2070.67C752.04 2019.37 702.81 1987.72 643.94 1991.58C614.533 1993.51 591.515 2003.66 574.711 2021.1C558.052 2038.38 548.285 2062.02 543.66 2089.59C534.455 2144.47 545.151 2217.82 566.618 2297.32C609.663 2456.73 697.392 2645.67 765.726 2772.36C768.961 2778.36 775.119 2781.78 781.645 2781.78H961.846C972.079 2781.78 980.693 2773.34 979.96 2762.6C970.856 2629.06 943.932 2434.01 891.668 2273.88C865.555 2193.88 832.902 2121.91 792.497 2070.67Z" clip-rule="evenodd" class="color032068 svgShape"></path><path fill="#021b79" d="M534.766 2342.08C662.772 2324 772.563 2614.53 814.454 2770.52C815.994 2776.26 811.632 2781.78 805.694 2781.78H707.914C705.168 2781.78 702.622 2780.61 700.904 2778.47C589.759 2639.93 404.657 2360.45 534.766 2342.08Z" class="color032068 svgShape"></path><path fill="#021b79" fill-rule="evenodd" d="M690.767 2208.46L649.486 2076.02L666.829 2070.61L751.19 2341.27L800.127 2255.03L815.927 2264L758.595 2365.02L841.623 2631.41L886.744 2563.32L901.887 2573.35L848.594 2653.77L884.821 2770L867.478 2775.4L793.572 2538.29L702.053 2490.08L710.519 2474.01L785.915 2513.72L698.681 2233.85L621.88 2190.2L630.855 2174.41L690.767 2208.46Z" clip-rule="evenodd" class="color032068 svgShape"></path><path fill="#5ea9f4" d="M1174.12 237.29L1139.66 281.653C1137.56 284.352 1134.14 285.651 1130.79 285.02L1088.2 276.998C1079.04 275.272 1073.51 286.848 1080.58 292.954L1114.06 321.854C1116.5 323.964 1117.66 327.214 1117.09 330.402L1108.7 378.055C1107.12 387.014 1118.09 392.559 1124.3 385.942L1158.69 349.321C1160.71 347.171 1163.63 346.132 1166.55 346.531L1206.34 351.978C1215.31 353.206 1220.38 341.976 1213.57 335.997L1183.97 310.037C1181.6 307.952 1180.46 304.781 1180.97 301.652L1190.3 244.409C1191.83 235.047 1179.93 229.812 1174.12 237.29zM1781.61 487.122L1799.74 520.099C1800.84 522.105 1800.73 524.559 1799.46 526.461L1783.24 550.647C1779.75 555.85 1785.4 562.316 1791.03 559.559L1817.65 546.508C1819.6 545.555 1821.9 545.699 1823.71 546.887L1850.76 564.637C1855.85 567.974 1862.16 562.66 1859.74 557.079L1846.36 526.19C1845.57 524.377 1845.71 522.295 1846.72 520.601L1860.62 497.464C1863.75 492.252 1858.19 486.156 1852.71 488.788L1828.92 500.219C1827.01 501.137 1824.76 501.002 1822.97 499.862L1790.28 479.007C1784.93 475.596 1778.56 481.564 1781.61 487.122z" class="colorf4ad5e svgShape"></path><path fill="#96c2ef" d="M690.71 1398.87C685.484 1418.32 697.736 1457.24 704.515 1474.26L672.209 1543.8 573.633 1530.39C556.383 1493.18 483.402 1460.57 477.405 1406.83 472.608 1363.83 526.715 1333.16 552.735 1329.28L502.755 1203.76C496.581 1188.25 503.696 1170.64 518.912 1163.76 534.086 1156.89 551.98 1163.13 559.598 1177.93L635.515 1325.41C634.426 1329.46 638.348 1330.08 662.743 1300.13 693.237 1262.69 707.399 1286.04 718.474 1295.53 729.549 1305.01 697.243 1374.55 690.71 1398.87zM1755.98 790.333C1897.3 890.194 1837.91 1067.72 1811.28 1136.51L1822.95 1276.89C1810.86 1321.08 1767.04 1409.47 1688.4 1409.47 1609.75 1409.47 1573.7 1334.02 1565.51 1296.29L1577.8 1189.77C1485.64 1156.49 1479.49 1023.34 1485.64 916.823 1492.93 790.333 1631.51 702.373 1755.98 790.333z" class="colorefcb96 svgShape"></path><path fill="#021b79" d="M1806.85 1101.71L1819.09 1222.42C1823.17 1213.48 1832.56 1187.55 1837.45 1155.36 1843.57 1115.12 1941.51 960.885 1910.91 846.883 1886.42 755.681 1819.09 759.704 1788.48 773.116 1770.12 739.586 1659.94 625.584 1500.78 638.996 1341.63 652.408 1323.27 880.413 1451.81 913.943 1554.65 940.767 1670.14 925.12 1715.03 913.943 1719.11 922.885 1730.94 952.838 1745.63 1001.12 1764 1061.48 1764 1074.89 1770.12 1034.65 1776.24 994.416 1800.73 920.649 1831.33 994.416 1855.82 1053.43 1825.21 1090.54 1806.85 1101.71zM1717.92 1187.35C1675.8 1212.13 1610.68 1197.68 1583.38 1187.35L1577.53 1230.72C1638.36 1245.59 1696.47 1208 1717.92 1187.35z" class="color032068 svgShape"></path><path fill="#5ea9f4" d="M1693.93 1337.17C1779.84 1337.17 1825.41 1290.15 1840.11 1262.34C1841.73 1259.27 1844.87 1257.18 1848.34 1257.24C2118.4 1261.65 2306.24 1575.26 2367.71 1734.81C2368.3 1736.33 2368.41 1737.91 2368.1 1739.51L2294.55 2112.59C2294.35 2113.6 2294.33 2114.59 2294.49 2115.6C2321.21 2281.86 2367.35 2627.32 2339.99 2691.11C2312.55 2755.09 2054.12 2799.65 1842.58 2799.65C1547.05 2799.65 1182.14 2793.69 1021.38 2760.09C1020.47 2759.9 1019.68 2759.61 1018.91 2759.1C967.349 2724.62 995.552 2431.83 1017.97 2275.74C1018.9 2269.27 1012.61 2264.05 1006.28 2265.69C954.378 2279.13 879.066 2274.21 805.536 2234.13C705.123 2179.4 531.677 1586.52 540.805 1550.04C549.934 1513.55 714.245 1411.71 737.066 1436.02C759.887 1460.33 924.207 1682.29 960.721 1668.61C989.932 1657.67 1088.52 1507.7 1207.19 1411.71C1331.56 1311.1 1475.17 1255.5 1545.35 1256.94C1548.8 1257.01 1551.71 1259.31 1553.14 1262.44C1565.91 1290.25 1608.12 1337.17 1693.93 1337.17Z" class="colorf4ad5e svgShape"></path><path fill="#021b79" d="M937.889 1659.49L938.533 1660.02C960.202 1677.41 980.563 1660.91 988.096 1650.37L1038.3 1741.58 938.533 1660.02C938.318 1659.85 938.104 1659.67 937.889 1659.49zM1275.64 2079.07C1235.48 2119.2 1085.47 2220.45 1015.48 2266.06L1001.79 2393.76C1052.91 2346.32 1205.66 2164.2 1275.64 2079.07zM2151.31 1622.81L2208.48 1794.2H2248.5L2151.31 1622.81z" class="color032068 svgShape"></path><path fill="#ffffff" d="M2162.28 1783.73L2123.56 2341.95C2123.15 2347.89 2128.71 2352.46 2134.46 2350.93L2631.64 2218.45C2635.06 2217.54 2637.58 2214.66 2638.02 2211.16L2704.4 1686.05C2705.14 1680.21 2699.96 1675.35 2694.17 1676.45L2169.33 1775.81C2165.45 1776.55 2162.56 1779.8 2162.28 1783.73Z" class="colorffffff svgShape"></path><path fill="#021b79" fill-rule="evenodd" d="M2692.56 1667.93C2704.14 1665.74 2714.49 1675.46 2713.01 1687.14L2646.63 2212.25C2645.74 2219.25 2640.7 2225.01 2633.88 2226.83L2136.69 2359.31C2125.19 2362.37 2114.09 2353.22 2114.91 2341.35L2153.63 1783.13C2154.17 1775.27 2159.96 1768.76 2167.71 1767.3L2692.56 1667.93L2694.17 1676.44L2692.56 1667.93ZM2695.79 1684.97L2170.94 1784.33L2132.22 2342.55L2629.41 2210.07L2695.79 1684.97Z" clip-rule="evenodd" class="color032068 svgShape"></path><path fill="#5ea9f4" d="M2490.59 2031.34C2474.31 2092.31 2431.44 2133.83 2394.83 2124.07C2358.21 2114.31 2341.73 2056.97 2358.01 1996C2374.29 1935.03 2417.17 1893.52 2453.78 1903.28C2490.39 1913.04 2506.87 1970.37 2490.59 2031.34Z" class="colorf4ad5e svgShape"></path><path fill="#96c2ef" d="M2597.27 2022.71C2601.54 1954.42 2646.03 1920.68 2672.08 1910.31C2675.23 1909.06 2677.6 1906.3 2678.04 1902.95L2687.56 1831.64C2688.2 1826.79 2692.81 1823.36 2697.31 1825.31C2727.59 1838.4 2750.66 1893.34 2740.2 1977.01C2728.76 2068.41 2677.31 2108.4 2654.44 2108.4C2631.57 2108.4 2591.55 2114.12 2597.27 2022.71Z" class="colorefcb96 svgShape"></path><path fill="#021b79" d="M1074.82 2229.57C979.881 2145.66 807.048 2139.88 732.498 2147.48C746.191 2180.92 798.223 2252.37 896.812 2270.62C995.4 2288.86 1056.56 2250.85 1074.82 2229.57Z" class="color032068 svgShape"></path><path fill="#ffffff" d="M104.807 623.576C104.807 604.283 120.332 588.643 139.483 588.643H995.283C1014.43 588.643 1029.96 604.283 1029.96 623.576V1433.37C1029.96 1452.66 1014.43 1468.3 995.283 1468.3H139.483C120.332 1468.3 104.807 1452.66 104.807 1433.37V623.576Z" class="colorffffff svgShape"></path><path fill="#021b79" fill-rule="evenodd" d="M99.6094 623.576C99.6094 601.391 117.461 583.406 139.483 583.406H995.283C1017.3 583.406 1035.16 601.391 1035.16 623.576V1433.37C1035.16 1455.55 1017.3 1473.54 995.283 1473.54H139.483C117.461 1473.54 99.6094 1455.55 99.6094 1433.37V623.576ZM139.483 593.878C123.202 593.878 110.004 607.174 110.004 623.576V1433.37C110.004 1449.77 123.202 1463.07 139.483 1463.07H995.283C1011.56 1463.07 1024.76 1449.77 1024.76 1433.37V623.576C1024.76 607.174 1011.56 593.878 995.283 593.878H139.483Z" clip-rule="evenodd" class="color032068 svgShape"></path><path fill="#021b79" d="M104.807 618.34C104.807 599.046 120.332 583.406 139.483 583.406H995.283C1014.43 583.406 1029.96 599.046 1029.96 618.34V703.836H104.807V618.34Z" class="color032068 svgShape"></path><path fill="#ffffff" d="M214.509 644.478C214.509 658.934 202.877 670.652 188.528 670.652 174.179 670.652 162.547 658.934 162.547 644.478 162.547 630.022 174.179 618.304 188.528 618.304 202.877 618.304 214.509 630.022 214.509 644.478zM301.121 644.478C301.121 658.934 289.489 670.652 275.139 670.652 260.79 670.652 249.158 658.934 249.158 644.478 249.158 630.022 260.79 618.304 275.139 618.304 289.489 618.304 301.121 630.022 301.121 644.478zM387.713 644.478C387.713 658.934 376.08 670.652 361.731 670.652 347.382 670.652 335.75 658.934 335.75 644.478 335.75 630.022 347.382 618.304 361.731 618.304 376.08 618.304 387.713 630.022 387.713 644.478z" class="colorffffff svgShape"></path><path fill="#0575e6" d="M306.51 1082.97C306.51 1128.56 334.233 1167.61 373.586 1183.88C378.52 1185.92 381.178 1191.57 379.113 1196.53L340.87 1288.44C339.011 1292.91 334 1295.14 329.558 1293.31C247.44 1259.48 189.566 1178.05 189.566 1082.97C189.566 1066 191.409 1049.47 194.904 1033.56C196.048 1028.36 201.511 1025.51 206.471 1027.34L300.982 1062.21C305.051 1063.71 307.442 1067.93 307.022 1072.28C306.683 1075.8 306.51 1079.36 306.51 1082.97Z" class="colore7e8ff svgShape"></path><path fill="#021b79" d="M289.644 894.046C293.883 891.185 299.581 892.703 302.074 897.194L326.381 940.996L350.688 984.797C352.987 988.94 351.709 994.14 348.005 997.066C332.213 1009.54 319.947 1026.35 312.971 1045.73C311.102 1050.92 305.389 1053.83 300.335 1051.72L209.094 1013.56C204.721 1011.73 202.482 1006.78 204.164 1002.31C220.897 957.859 251.058 920.086 289.644 894.046Z" class="color032068 svgShape"></path><path fill="#0575e6" d="M414.449 1310.04C538.653 1310.04 639.34 1208.38 639.34 1082.97C639.34 1009.38 604.669 943.965 550.921 902.471C546.802 899.291 540.916 900.541 538.21 905.006L486.052 991.056C483.688 994.957 484.595 999.995 487.913 1003.11C509.125 1023.01 522.396 1051.43 522.396 1082.97C522.396 1143.17 474.067 1191.97 414.449 1191.97C409.503 1191.97 404.635 1191.63 399.866 1190.98C395.334 1190.36 390.865 1192.9 389.415 1197.28L357.77 1292.86C356.133 1297.8 358.939 1303.14 363.97 1304.3C380.197 1308.06 397.093 1310.04 414.449 1310.04Z" class="colore7e8ff svgShape"></path><path fill="#5ea9f4" d="M414.462 973.974C399.783 973.974 385.788 976.933 373.031 982.291C368.487 984.199 363.124 982.548 360.807 978.164L314.176 889.933C311.827 885.489 313.501 879.946 318.007 877.783C347.237 863.749 379.941 855.896 414.462 855.896C454.197 855.896 491.525 866.301 523.919 884.559C528.144 886.941 529.533 892.346 527.168 896.608L478.898 983.59C476.338 988.203 470.444 989.608 465.839 987.087C450.562 978.724 433.061 973.974 414.462 973.974Z" class="colorf4ad5e svgShape"></path><path fill="#0575e6" d="M729.305 998.638C729.305 995.05 732.186 992.141 735.74 992.141H920.774C924.328 992.141 927.209 995.05 927.209 998.638V1021.98C927.209 1025.56 924.328 1028.47 920.774 1028.47H735.74C732.186 1028.47 729.305 1025.56 729.305 1021.98V998.638zM729.305 1116.72C729.305 1113.13 732.186 1110.22 735.74 1110.22H866.8C870.354 1110.22 873.235 1113.13 873.235 1116.72V1140.05C873.235 1143.64 870.354 1146.55 866.8 1146.55H735.74C732.186 1146.55 729.305 1143.64 729.305 1140.05V1116.72z" class="colore7e8ff svgShape"></path><path fill="#ffffff" d="M2222.21 761.269C2222.21 750.998 2230.62 742.671 2240.99 742.671H2773.31C2783.68 742.671 2792.1 750.998 2792.1 761.269V1121.75C2792.1 1132.02 2783.68 1140.35 2773.31 1140.35H2240.99C2230.62 1140.35 2222.21 1132.02 2222.21 1121.75V761.269Z" class="colorffffff svgShape"></path><path fill="#021b79" fill-rule="evenodd" d="M2215.94 761.27C2215.94 747.574 2227.16 736.472 2240.99 736.472H2773.31C2787.14 736.472 2798.36 747.574 2798.36 761.27V1121.75C2798.36 1135.45 2787.14 1146.55 2773.31 1146.55H2240.99C2227.16 1146.55 2215.94 1135.45 2215.94 1121.75V761.27ZM2240.99 748.871C2234.08 748.871 2228.47 754.422 2228.47 761.27V1121.75C2228.47 1128.6 2234.08 1134.15 2240.99 1134.15H2773.31C2780.23 1134.15 2785.83 1128.6 2785.83 1121.75V761.27C2785.83 754.422 2780.23 748.871 2773.31 748.871H2240.99Z" clip-rule="evenodd" class="color032068 svgShape"></path><path fill="#ffffff" d="M2240.29 1140.35H2774.01C2779.96 1140.35 2782.56 1132.92 2777.88 1129.28L2518.77 927.44C2511.95 922.131 2502.35 922.131 2495.53 927.44L2236.42 1129.28C2231.75 1132.92 2234.35 1140.35 2240.29 1140.35Z" class="colorffffff svgShape"></path><path fill="#021b79" fill-rule="evenodd" d="M2514.9 932.313C2510.35 928.773 2503.95 928.773 2499.41 932.313L2240.29 1134.15H2774.01L2514.9 932.313ZM2491.66 922.569C2500.75 915.489 2513.55 915.489 2522.64 922.569L2781.76 1124.41C2791.1 1131.69 2785.9 1146.55 2774.01 1146.55H2240.29C2228.4 1146.55 2223.2 1131.69 2232.55 1124.41L2491.66 922.569Z" clip-rule="evenodd" class="color032068 svgShape"></path><path fill="#5ea9f4" d="M2775.1 742.671H2239.21C2233.38 742.671 2230.71 749.849 2235.14 753.588L2494.96 972.844C2501.99 978.77 2512.32 978.77 2519.34 972.844L2779.16 753.588C2783.59 749.849 2780.92 742.671 2775.1 742.671Z" class="colorf4ad5e svgShape"></path><path fill="#021b79" fill-rule="evenodd" d="M2231.08 758.306C2222.22 750.828 2227.56 736.472 2239.21 736.472H2775.1C2786.74 736.472 2792.08 750.828 2783.22 758.306L2523.4 977.562C2514.04 985.464 2500.26 985.464 2490.9 977.562L2231.08 758.306ZM2775.1 748.871L2239.21 748.871L2499.03 968.126C2503.71 972.077 2510.6 972.077 2515.28 968.126L2775.1 748.871Z" clip-rule="evenodd" class="color032068 svgShape"></path><path fill="#021b79" d="M2879 763.216C2879 817.374 2834.87 861.278 2780.44 861.278C2726 861.278 2681.88 817.374 2681.88 763.216C2681.88 709.057 2726 665.153 2780.44 665.153C2834.87 665.153 2879 709.057 2879 763.216Z" class="color032068 svgShape"></path><path fill="#ffffff" d="M2798.36 816.705H2771.24V737.647L2744.6 744.774V725.965L2795.87 709.728H2798.36V816.705Z" class="colorffffff svgShape"></path></svg>