<svg xmlns="http://www.w3.org/2000/svg" viewBox="0 0 2745 1830" id="Businessmanbreakthrough"><defs><clipPath id="a"><path fill="#deeaf7" d="M2130.83,1072.24q4.78-8.79,9.29-17.67c21.4-42.25,37.88-86.15,48.06-130.2a487.07,487.07,0,0,0,12.12-133.84c-2.28-44.65-12-87.6-29.72-125.73C2152.1,625,2125.76,590.34,2094,561.23c-31.06-28.51-66.78-52-104.84-71.79s-78.3-36.12-119.56-50.47c-40.23-14-81.48-26-123-37.39-38.34-10.53-77-20.42-115.41-30.74-37.36-10-74.65-20.37-110.87-32.71-34-11.58-67.09-24.78-97.67-42-29.26-16.49-59.35-31.58-91.24-44a536,536,0,0,0-122.31-32,464.67,464.67,0,0,0-130.2.58,472.12,472.12,0,0,0-135.85,42c-44.61,21.53-86.64,50.09-124.48,83.85q-16,14.3-30.93,29.67c-86.32,81.81-152.31,194.9-188.88,325.61-72.63,259.61-160.26,608.28,371.28,849.75C1424.23,1757.94,1960.09,1416.17,2130.83,1072.24ZM1071.07,228.3a459.4,459.4,0,0,1,130.8-5.12c43.2,4.37,84.52,14.8,123.39,29.15a553.07,553.07,0,0,1,53.1,22.59c14.66,7.22,29,14.92,43.14,22.85,1.78,1,3.64,2.08,5.47,3.1,31.56,17.5,66,30.72,101,42.6,40,13.62,81,25.35,122,37.16,42.7,12.31,85.47,24.47,127.63,37.89,40.84,13,81.19,27,120.23,43.34,38.74,16.19,76.2,34.62,111,56.66,36.24,22.91,69.58,49.75,97.17,82.07a308.78,308.78,0,0,1,61.44,112.6,323,323,0,0,1,9.76,44.14c-78-316.73-581.41-324.6-778.17-438.53-168.76-97.72-330.81-101.31-466.37-40.67,1.16-.63,2.32-1.28,3.49-1.91A470,470,0,0,1,1071.07,228.3Z" class="colore3def7 svgShape"></path></clipPath></defs><g data-name="&amp;lt;Layer&amp;gt;" fill="#000000" class="color000000 svgShape"><path fill="#deeaf7" d="M2130.83,1072.24q4.78-8.79,9.29-17.67c21.4-42.25,37.88-86.15,48.06-130.2a487.07,487.07,0,0,0,12.12-133.84c-2.28-44.65-12-87.6-29.72-125.73C2152.1,625,2125.76,590.34,2094,561.23c-31.06-28.51-66.78-52-104.84-71.79s-78.3-36.12-119.56-50.47c-40.23-14-81.48-26-123-37.39-38.34-10.53-77-20.42-115.41-30.74-37.36-10-74.65-20.37-110.87-32.71-34-11.58-67.09-24.78-97.67-42-29.26-16.49-59.35-31.58-91.24-44a536,536,0,0,0-122.31-32,464.67,464.67,0,0,0-130.2.58,472.12,472.12,0,0,0-135.85,42c-44.61,21.53-86.64,50.09-124.48,83.85q-16,14.3-30.93,29.67c-86.32,81.81-152.31,194.9-188.88,325.61-72.63,259.61-160.26,608.28,371.28,849.75C1424.23,1757.94,1960.09,1416.17,2130.83,1072.24ZM1071.07,228.3a459.4,459.4,0,0,1,130.8-5.12c43.2,4.37,84.52,14.8,123.39,29.15a553.07,553.07,0,0,1,53.1,22.59c14.66,7.22,29,14.92,43.14,22.85,1.78,1,3.64,2.08,5.47,3.1,31.56,17.5,66,30.72,101,42.6,40,13.62,81,25.35,122,37.16,42.7,12.31,85.47,24.47,127.63,37.89,40.84,13,81.19,27,120.23,43.34,38.74,16.19,76.2,34.62,111,56.66,36.24,22.91,69.58,49.75,97.17,82.07a308.78,308.78,0,0,1,61.44,112.6,323,323,0,0,1,9.76,44.14c-78-316.73-581.41-324.6-778.17-438.53-168.76-97.72-330.81-101.31-466.37-40.67,1.16-.63,2.32-1.28,3.49-1.91A470,470,0,0,1,1071.07,228.3Z" class="colore3def7 svgShape"></path><g clip-path="url(#a)" fill="#000000" class="color000000 svgShape"><path fill="#e8f2fc" d="M1142.55 572.4c78.49 0 107.74-6.23 108.33-11.09.35-2.84 2.84-4.93 5.54-5.88 33.18-11.6 21-29 6.07-30.39a8.32 8.32 0 01-7-5.43c-5.28-14.15-16.41-18.27-32.22-5.76a8.3 8.3 0 01-10.77-.5c-12.36-11.33-25-6.08-30.61 1.1a8.41 8.41 0 01-5.79 3.12 39.9 39.9 0 00-16.25 5.37 8.21 8.21 0 01-11.08-2.47c-9.87-14.74-21-5.68-27 2.37a8.24 8.24 0 01-11.08 2c-7.55-4.91-12.53-1-14.69 4.31a8.3 8.3 0 01-11 4.63c-14.24-6.44-22.4-5.34-25.45-1-2.21 3.14-6.48 4-10.07 2.62-20.16-7.81-22.43 2.29-20.8 10.93a8.23 8.23 0 01-6.38 9.59c-13.88 3-24.73 4.86-16.86 7.93a9.11 9.11 0 014.83 5.09c3.13 7.22 30.17.5 46.6-.16a7.42 7.42 0 015.69 2C1067.74 576.3 1125.31 572.4 1142.55 572.4zM1758.23 1367.27c-78.43 0-96.3-7.66-84.77-11.49-40.18-10.21-23-29.36-8.29-26.81 3.85-16.6 15.18-21.7 32.18-5.11 12.53-16.59 26.64-8.93 30.43-1.27 11.46 0 20.55 6.38 21.75 9.57 12-29.36 28.65-1.91 29.29 1.28 14-16 20.39 1.3 17.54 7 22.67-13.42 31.61-8.28 30.33 0 30-15.33 25.21 5.41 22 11.8 16 3.83 32.24 5.42 16.92 9.25 3.83 11.49-29.05 1.6-42.45 2.88C1828.6 1371.1 1773.63 1367.27 1758.23 1367.27zM1117 1491.05c-117 0-143.72-11-126.52-16.52-60-14.69-34.31-42.22-12.37-38.55 5.75-23.86 22.66-31.21 48-7.34 18.7-23.87 39.76-12.85 45.43-1.84 17.09 0 30.66 9.18 32.45 13.77 18-42.22 42.75-2.76 43.7 1.83 21-22.94 30.45 1.88 26.18 10.12 33.84-19.3 47.17-11.91 45.27 0 44.77-22 37.63 7.78 32.86 17 23.82 5.51 48.11 7.8 25.25 13.31 5.71 16.52-43.35 2.29-63.35 4.13C1222.06 1496.55 1140 1491.05 1117 1491.05zM2011.34 601.5c-209.95 0-257.31 1.08-250.55-15.09s27.07-10.91 27.07-10.91c-12.7-20 13.16-16.74 24-14.4.61-15.43 27.67-22.33 43.91-15 31.88-13.67 41.9 14 52.93 1.86 18.55-20.44 45.76-19.72 56.53-6.07 25-14.67 50.86-7.6 52.93 1.87 31.28-16.84 57 4.8 51 14.82 48.14-21.55 54.91 2.42 51 5.57 50.17-33.66 58.37-4.2 61-1.05 39.2-38.93 37.37 18.39 37.37 18.39 21.65-21.81 38.35-11.53 41.95 0 1.65 5.29-4.78 20.77-60.7 20.77C2117.26 602.3 2067 601.49 2011.34 601.5z" class="colorece8fc svgShape"></path><path fill="#e8f2fc" d="M1977.12 596.5c-42.41 14-25.26 24.56 0 26 20.75 16.13 108.91 17.93 119.41 6.51 88.09 11 144-8.12 126-12.58 64-2.35 46-24.54 34.28-25.72C2085.38 576.87 1977.12 596.5 1977.12 596.5zM2000.79 1096.75c240.7 0 295.56-23.51 260.18-35.26 123.31-31.35 70.57-90.12 25.44-82.28-11.83-50.93-46.59-66.61-98.76-15.67-38.45-50.94-81.75-27.43-93.4-3.92-35.16 0-63.06 19.59-66.74 29.38-37-90.11-87.92-5.87-89.88 3.92-43.1-49-62.61 4-53.83 21.6-69.59-41.19-97-25.43-93.1 0-92.07-47.06-77.38 16.6-67.58 36.19-49 11.76-98.93 16.66-51.92 28.41-11.75 35.26 89.14 4.9 130.28 8.82C1784.82 1108.51 1953.54 1096.75 2000.79 1096.75zM885.12 1033.24c6.42-12.84 16-54.58-44.31-23.73 2.57-16.66-15.41-27-61 0 5.75-11.53-7-46.26-35.29-14.15-1.29-6.42-34.68-61.65-58.92-2.57-2.42-6.42-20.71-19.26-43.76-19.26-7.63-15.42-36-30.83-61.23 2.56-34.2-33.39-57-23.11-64.74 10.28-23.5-4.08-50.13 19.37-19.63 39.49-113.78 3.82-139.2 16.4-120.06 22.41-71.88 19.56-40.43 53.45-14.08 48.42 7.42 29.7 27.93 38.54 58 8.2 23 29.45 48.14 15.26 54.73 1.38 20.58-.34 36.72-12.09 38.78-17.86 22.54 52.4 51.54 2.58 52.59-3.17 25.71 28.25 36.61-3 31.3-13.17 41.15 23.43 57 13.93 54.5-.91 38.7 19 45.18 5.62 43.56-7.75h7.58c31 0 141.58 7.71 130.67-5.77 27-2.57 93.11 17.33 85.4-5.79C950 1044.16 917.22 1041 885.12 1033.24zM384.62 504.05c5.54-17.82 18-22.06 27.41-22.49a8.23 8.23 0 007.57-10.2c-5-20.55 15.89-20.61 31.13-17.91a8.23 8.23 0 009.38-5.88c6.27-22.51 37.69-32.67 59.52-23.15a8.4 8.4 0 007.1-.16c43.72-21.83 58.72 27 74.22 4.46 24.63-35.89 60.48-38 78.63-18.17A8.12 8.12 0 00690 411.83c29.51-19.19 58.86-12.8 68.56 0a8.12 8.12 0 0010.38 2.25c34.33-19.12 63.12 1.82 68.37 20a8.24 8.24 0 0011.64 5.06c40.1-20.09 57.23-8.28 62.46 3.27a8.17 8.17 0 0012.43 3c45.88-35.62 64.28-18.24 72.31-4.3a8.26 8.26 0 0013.35 1.45c34.24-38.25 43.78-1 46.43 24.43a8.22 8.22 0 0013.67 5.22c25.15-22.21 44.17-5.45 49 13.23 1 3.82.25 10.48-5.63 17.31l.48 0c16.48 1.92 41.88 39.93-37.75 48.27a7.85 7.85 0 00-7 5.93c-2.47 12.4-76.56 37-185.56 21.76a8.55 8.55 0 00-6.6 2c-22.76 18.65-139 16.33-171.35-11a8.16 8.16 0 00-4.6-1.82c-24.28-2-42.52-11.64-32.48-26a8.21 8.21 0 00-6.93-12.82C430.49 532.12 376.1 531.4 384.62 504.05z" class="colorece8fc svgShape"></path><path fill="#a8c5e3" d="M1532.83 1686.87l333.29-198.25-425-449.31c.73 8.42 3.16 23.91 11.2 35.78 0 0-3.39 8.13-6.81 31l-9.47 7.67s7.18 1.67 24.26 6c0 0 11.83 2 26-4.28 0 0 11.17 7.46 8.25 20s-6.38 36.57-5.44 69.57a149.73 149.73 0 01-37.86-17.73s-9.57 2.3-32 18.13c0 0-5.91-2.22-8.92-11.58s-2.78-14-15.4-19.88c0 0 7.6-15.37 26.61-31 .14-5.18-.5-9.94.57-16.36 0 0-33.81 22.34-53.71 33.59 0 0-2.19-2.41-14.37-27l-11.56 1.18s2.06 9.42 5.07 19.82c0 0-7.47.68-50.85 15.87 0 0-6.53 6.36-42.87 31.11l20.27 9.23s3.86 10.84 9.42 22.52c0 0 8.13 3.39 17.78 14.61 0 0-6.32 3.35-31.19 12.4-6.11 4.5-20.59 23-29.06 38.58 0 0-10.16-14-21.43-40.68 0 0-3.79-2.72-18.42-13.3-7.1-2.86-35.18 12.32-56.29 20.52zM888.25 986.1c2.09-16.08 4-24.81 4.93-31.09-14.22-19.51-19.95-29.32-19.95-29.32 28.42-11.77 89.22-19.92 89.22-19.92C982 869.87 994.4 850 994.4 850c5.63-39.84 6.14-50.45 6.14-50.45 18.25 2.94 45.38-8.21 45.38-8.21 1.71-16.86 3-25.91 6.45-35.78l-7.68-13.46a69.37 69.37 0 014.75-18.58c27.43-3.33 50.53-8.07 80.46-13.16L784 344.73 524.29 590.4z" class="colorb3a8e3 svgShape"></path></g><path fill="#ffffff" d="M1292.4 461.52a28.76 28.76 0 01-.57 6c6.62 9.93 1.38 14.69 6.88 29.56 13-7.91 16-6.8 16-6.8l.79-2.7L1314.2 482a110.86 110.86 0 0114.63-7l1.73-1.84zM1545 1046.4l-4.93 6.49s-.09 13.1-.17 16.1c11.38 13.16 26.27 21.31 26.27 21.31l3.3-3.13s3-25.68 8.48-30.68 6.86-7.64 6.86-7.64-11.21-3.5-18.71.93S1545 1046.4 1545 1046.4zM1536.33 876.89l-4.26 2.92c-.22 3.13 2.12 2.24-1.84 7.32S1525.8 899 1525.8 899s11.79-1.58 17-3.07a53.93 53.93 0 0010.58-5.31zM1234.21 734.79L1230.4 740s-1.07 13.41-6.62 22.56c7.91 3.15 21.4-5.36 24.51-8.3s7.3-13.24 7.3-13.24C1249.92 738.52 1234.21 734.79 1234.21 734.79zM1149.05 525.22l-2.37 2.24c3.62 11.12 16.62 19.81 19.23 24.26s3.59 8.29 2.17 10.43a24.8 24.8 0 0015.19-6.13 8.2 8.2 0 002.35-6.71 170.5 170.5 0 0010.7-19C1179.09 529.41 1149.05 525.22 1149.05 525.22zM1061.62 529.19l-4.92 4.65-4.81 22.63L1024.37 544l-3.12 2.95c2.88 19.15 12.12 40.53 12.12 40.53 43.49 14.13 59.3 21.11 59.3 21.11l3-2.82zM1144.19 434.69l-2 1.88a67 67 0 001 19.74c11.27.68 23.27 1.88 23.27 1.88l1.92-1.81c-7.75-5.41-16-10.55-16-10.55zM1127.7 851.93l-4 3.74c-7.19 21.23-2 43.59-2 43.59 10.61-1.89 28.84-16.13 31-21.45A170.18 170.18 0 001127.7 851.93zM1002.3 912.19l-4.36 4.13c-2.33 8.39-2.61 19.64-2.61 19.64s-17.18 10.39-19.5 10.73l-4.45 4.85c5.57 15.63 10.42 18.13 13 28.4a144 144 0 013.37 16.29l3.42-3.24s25.67-60.28 29.84-63c5.3-4.56 14.13-13.22 14.13-13.22A94.61 94.61 0 011002.3 912.19zM1645.36 982.91l-3.16 6.39c7.06 33.21 28.42 60.28 28.42 60.28 27.82-24.51 37.54-34.71 37.54-34.71l24-5.49c3.16-5.25 8.59-18 8.59-18C1734.43 981.2 1645.36 982.91 1645.36 982.91zM1052 1300.73l-6.23 5.9c-8.31 18.18-10.78 48.15-13.64 52.63 23.42-4.09 42.74-4.64 54.87-2.31s33.18 8.48 42.6 7a40.47 40.47 0 003.36-2.38C1110.36 1336.84 1052 1300.73 1052 1300.73zM899.17 1397.7l-.29 2c12 13 15.35 16.23 15.35 16.23 5.11 13.52 15.79 37.38 15.79 37.38l1.48-1.17s-6.34-35.15-14-43.26S899.17 1397.7 899.17 1397.7zM695.18 1264.69l-.91 3.72s20.21 19.54 30.53 22.87c4.05-1.39 12.6-6.56 12.6-6.56l.61-2.5s-8-24-5.69-30.18c10.37-9.9 17.48-28 17.48-28-.1-1.61-.61-4.34-.61-4.34C736.2 1225.43 695.18 1264.69 695.18 1264.69zM1354.51 540.58l-.3 1.09c6.56 3.35 18.63 12.61 18.63 12.61l.39-1.42-9.72-10.12zM1069.2 730.18l-2 .79c-3.07 8.92-2.56 12.26-2.56 12.26 3.28 4.5 7.24 11.23 7.24 11.23a362.75 362.75 0 00-6.53 38 126.12 126.12 0 0012.62.34c4.26-.28 11.32-2.91 11.32-2.91l4-3.48C1100.87 768 1069.2 730.18 1069.2 730.18zM1238.76 1162.89l-2.2 2.08 4.69 8.54c2 22 1.6 26.13 1.6 26.13 24.26-13 49.77-33.54 49.77-33.54 14.19-4.57 40.76-15.35 40.76-15.35l2.11-2.37zM1398.41 1080.55l-3.13 3-5 16.29c-5.06 5.32-10.7 19.92-11.55 24.2a58.36 58.36 0 01-15.52-4.36 23.93 23.93 0 01-2.65 3.24c-1.07 13.76 3.31 28.22 4.89 30.45 32.23-15.09 46.38-23.63 53.91-29.06s18.67-14.54 18.67-14.54l1.86-2.8C1434.08 1104.39 1398.41 1080.55 1398.41 1080.55zM1387.53 1012.43l-1.87 1.77c-1.05 12.66 1.66 22.85 1.85 26.4-3.15 5-7.3 19.25-3.4 26.33 11.62-.36 17.87-2.29 22.54-5.24s5.41-3 8.77-3.52 11.5-1.05 13.88-.64a4.08 4.08 0 00.74-1.73C1422.14 1047.29 1387.53 1012.43 1387.53 1012.43zM1430.76 1119.28l-3.53 3.34c-2.62 7.91-3.42 22.22-2.69 25.25-14 13-20.63 19.47-20.63 19.47l-2.23 2.42c6.82 5.25 8.46 10.07 8.4 12 .1 6.29 5.86 14.42 11.15 16.56 18.82-9 28.79-14 28.79-14 23.41 12.8 32 16 33.09 16.44l2.06-2zM1655.72 816.76l-1.73 1.63c5.62 9.69 12.66 13.3 19.91 20.26s7.57 6.89 7.57 6.89c.61-.64 1.42-1.34 1.42-1.34-4.44-7.73-11.55-13.27-14-15.93S1655.72 816.76 1655.72 816.76zM741 976.19l-3.15.58c-4.37 6.56-6.57 17.71-7.34 19.77-7 6.65-9.69 12.12-9.69 12.12 7.95 6.81 13.07 10.67 13 17.6 12.38 14.25 23.92 22.84 30.24 25.94a15.4 15.4 0 003.23-.59z" class="colorffffff svgShape"></path><path fill="#a8c5e3" d="M1234.21,734.79a69.54,69.54,0,0,1-7.91,27.15c19.77-3.07,27.21-16.31,27.21-16.31,1-3.87,5.92-10.54,5.92-10.54C1241.65,731,1234.21,734.79,1234.21,734.79Z" class="colorb3a8e3 svgShape"></path><path fill="#b5cee8" d="M1127.7 851.93c-4.54 8.08-5.06 42.63-3.27 43.64 21.9-9.54 28.29-17.76 28.29-17.76 6.78-16.27 7.8-25.44 7.8-25.44C1150.3 851.65 1127.7 851.93 1127.7 851.93zM1645.36 982.91c4.08 25.93 26.39 56.46 26.39 56.46 24.27-23.5 34.87-31.19 34.87-31.19 21.63-3.2 24.42-3.54 24.42-3.54 11.84-13 12.17-19.95 12.17-19.95-8.3-24-9.15-45.64-7.37-54.35a257.67 257.67 0 00-47.78 6.66c-14.87 20.89-20.09 26.71-20.09 26.71C1654.77 972.94 1644.9 980.36 1645.36 982.91zM1052 1300.73c-11.79 20-11.92 46.45-14.61 54.38 34-6.88 56.75-1.17 70.39 3a81.87 81.87 0 0025.18 3.52c-3.55-50.42 6.66-94.87 6.66-94.87-29.69-.74-29.36-7.64-51.36 13.65S1052 1300.73 1052 1300.73z" class="colorbeb5e8 svgShape"></path><path fill="#a8c5e3" d="M738 1282.22c-2.83-12.72-6.1-32.64-6.1-32.64 14.33-18.91 17.28-29.92 17.28-29.92L738 1192c-9.27 21.7-13.53 31.24-13.53 31.24-22 15.26-29.27 41.48-29.27 41.48 12.73 13.52 29.81 24 29.81 24A96.1 96.1 0 00738 1282.22zM899.17 1397.7c12.92-12 35.4-36.51 41-37.09 15.4 11.76 25.05 24.92 27.61 27 14.68 9.18 20.52 17.53 20.52 17.53-16.1 11-25.17 21.08-30.23 25.67-10.73 9.16-26.56 21.34-26.56 21.34-7.72-20.45-15.35-37.76-15.35-37.76A116.44 116.44 0 00899.17 1397.7z" class="colorb3a8e3 svgShape"></path><path fill="#b5cee8" d="M1300.08,1105c-10.16,6.25-48.38,38.81-61.32,57.89l5,9.23c1.16,15.27,1.75,24.46,1.75,24.46,26.75-16.86,45.61-31.51,46.51-32.33,23.22-8.21,43.47-15.87,43.47-15.87-5.35-11-22-27-22-27C1304.41,1115.41,1300.08,1105,1300.08,1105Z" class="colorbeb5e8 svgShape"></path><path fill="#a8c5e3" d="M1387.53,1012.43a72.68,72.68,0,0,0,2.08,28.62c-8,11-4.47,24.51-4.47,24.51,21-1.93,21.4-6.57,26-8.43s18.91-1.33,18.91-1.33c-6-21.55-9.51-50.07-14.35-50.13A125.11,125.11,0,0,0,1387.53,1012.43Z" class="colorb3a8e3 svgShape"></path><path fill="#b5cee8" d="M1292.4,461.52c7.21,13.86,2,21.4,6.72,33.92,11-6.66,16.37-7.84,16.37-7.84l-.92-6.53c11.89-7.25,16-7.93,16-7.93-10.18-9.37-18.39-11.59-22.71-15.31S1292.4,461.52,1292.4,461.52Z" class="colorbeb5e8 svgShape"></path><path fill="#a8c5e3" d="M1682.89,844.2c-2-17.87-1.85-33.32-2.11-38.49-13.36,3.62-19.61,9.39-25.06,11C1661.29,826.84,1672.08,832.58,1682.89,844.2Z" class="colorb3a8e3 svgShape"></path><path fill="#b5cee8" d="M1430.76,1119.28c-5.45,9.85-4.09,25.78-4.09,25.78-15.33,11-22.76,22.28-22.76,22.28,10.15,7.92,8.59,15,8.59,15,1.26,8.53,8.86,13.39,8.86,13.39,23.38-11.66,29-13.81,29-13.81,27.9,16.57,34.79,16.9,34.79,16.9-.91-27.53-.48-42.92,4.42-59.08,4.32-14.25-4.38-21.36-4.38-21.36-13.09,3.57-24.25,5.71-24.25,5.71C1441.08,1120.2,1430.76,1119.28,1430.76,1119.28Z" class="colorbeb5e8 svgShape"></path><path fill="#a8c5e3" d="M1545,1046.4a54.18,54.18,0,0,0,21.58-2.93,24.07,24.07,0,0,1,18.23,5.38c-10.47,2.08-7.77,24.86-15.34,38.32-18.83-14.56-23.86-21.38-23.86-21.38A190.53,190.53,0,0,0,1545,1046.4Z" class="colorb3a8e3 svgShape"></path><path fill="#ffffff" d="M900.76,1300.25l-4.93,6.48s-.09,13.11-.17,16.11c11.38,13.15,26.27,21.31,26.27,21.31l3.31-3.13s3-25.68,8.47-30.68,6.86-7.65,6.86-7.65-11.21-3.5-18.7.94S900.76,1300.25,900.76,1300.25Z" class="colorffffff svgShape"></path><path fill="#a8c5e3" d="M900.76,1300.25a54.18,54.18,0,0,0,21.58-2.93,24,24,0,0,1,18.23,5.37c-10.47,2.09-7.77,24.86-15.33,38.33-18.83-14.57-23.86-21.38-23.86-21.38A192.14,192.14,0,0,0,900.76,1300.25Z" class="colorb3a8e3 svgShape"></path><path fill="#ffffff" d="M677.76,1056.59l.37,4.28s4.6,5.14,5.63,6.34a56.64,56.64,0,0,0,17.78-1l.19-2.39s-7.91-11.08-7.55-15a18.31,18.31,0,0,0,0-5.41s-5.61,2.6-7,7S677.76,1056.59,677.76,1056.59Z" class="colorffffff svgShape"></path><path fill="#a8c5e3" d="M677.76 1056.59a28.47 28.47 0 007.38-8.77 12.66 12.66 0 019-4.35c-3.34 4.52 5.77 12.45 7.58 20.37-12.5 1-16.87.1-16.87.1C681.22 1059.77 677.76 1056.59 677.76 1056.59zM1196.32 530.35a54.13 54.13 0 00-10.7 19 24.08 24.08 0 01-15.3 11.29c4.67-9.61-15.12-21.22-21.27-35.38 23-6.2 31.45-6.09 31.45-6.09A193 193 0 001196.32 530.35z" class="colorb3a8e3 svgShape"></path><path fill="#b5cee8" d="M1536.33 876.89c-.93 4.79.38 6.41-2.23 10.26a78.14 78.14 0 00-5.06 9.11c17.22-3.16 24.36-5.62 24.36-5.62A37.88 37.88 0 001536.33 876.89zM1024.37 544c6-.17 15.23-.3 15.23-.3 5.88 4.78 16.42 10.71 16.42 10.71l5.6-25.2s38 5.41 39.27 7.89c.95 4.08-5.15 61.18-5.23 68.67-12-4.85-53.5-17.23-59.79-20.76C1027.87 559.82 1024.37 544 1024.37 544z" class="colorbeb5e8 svgShape"></path><path fill="#a8c5e3" d="M1354.51 540.58c2-3.38 9.71-9.33 9.71-9.33 2.85 6.39 3 10.31 3 10.31 4 2.07 4.47 2.86 4.47 2.86.91 6.88 1.57 8.44 1.57 8.44C1359.76 543 1354.51 540.58 1354.51 540.58zM1144.55 454.22c-1.28-5.9-.36-19.53-.36-19.53A59.27 59.27 0 011154.73 446c4.6-.23 5.63.43 5.63.43 6.23 8.36 8 9.92 8 9.92C1150.4 453.48 1144.55 454.22 1144.55 454.22z" class="colorb3a8e3 svgShape"></path><path fill="#b5cee8" d="M1398.41 1080.55c-3 9.36-5.65 20.29-5.65 20.29-8.41 9.45-11.8 24.15-11.8 24.15-10.57-4.83-17.8-5.35-17.8-5.35-.27 23.32 3.14 31.44 3.14 31.44 41.62-20.46 50.24-27.13 50.24-27.13 22.16-15 23.3-17 23.3-17-.14-11.59 3.73-20 7.11-29.22-6.83-5.17-19.35-10.88-19.35-10.88C1414.48 1077.17 1398.41 1080.55 1398.41 1080.55zM1202.3 1245.41c7.17 5.53 17.31 12.49 17.31 12.49 10.5 26.87 21.43 40.68 21.43 40.68 11.18-21.53 29.06-38.58 29.06-38.58 23.19-8 31.19-12.4 31.19-12.4-23.6-17-45.26-20.22-45.26-20.22-8.75 13.46-9.87 17.55-9.87 17.55-11.72-14.85-15.31-16.87-15.31-16.87-11.75 9.34-15.37 12.62-15.37 12.62-5.06-1.61-10.17-2.76-10.17-2.76z" class="colorbeb5e8 svgShape"></path><path fill="#ffffff" d="M1185.8,1351.69l-1.55,1.46c.41,9.43,2.11,12.34,2.11,12.34,4.69,3,10.84,7.81,10.84,7.81a364.62,364.62,0,0,0,7.83,37.77,125.39,125.39,0,0,0,11.88-4.3c3.86-1.82,9.46-6.85,9.46-6.85l2.47-4.7C1229.1,1375.28,1185.8,1351.69,1185.8,1351.69Z" class="colorffffff svgShape"></path><path fill="#b5cee8" d="M1069.2,730.18c8.59-1.69,27.37,11.56,36.77,19.83a41.91,41.91,0,0,0,19.87,9.7c-12.38,14.75-33.5,27.33-33.5,27.33a79.09,79.09,0,0,1-23.82,4c4.84-29.5,6-37.26,6-37.26-5.09-8.68-7.28-11.8-7.28-11.8A54,54,0,0,1,1069.2,730.18Z" class="colorbeb5e8 svgShape"></path><path fill="#ffffff" d="M1351.53,1281.4l-2.79,2.64c-9,20.29-14.61,31.47-14.61,31.47,16.83-1,26.68-4,29.11-5.47,11.66,2.78,17,4.2,18.32,5a19.9,19.9,0,0,0,2.33-2.21C1371.26,1296.33,1351.53,1281.4,1351.53,1281.4Z" class="colorffffff svgShape"></path><path fill="#b5cee8" d="M733.14,997.23c.39-6.59,7.87-21,7.87-21a125.93,125.93,0,0,1,45.9,2.88c4.09,16.39,4.18,21.46,4.18,21.46,13.32,15.73,15,22.54,15,22.54-16.61-.6-38.77,28.54-38.77,28.54-17.25-8.57-31.12-26.56-31.12-26.56-.91-8.47-12.71-17-12.71-17C727.05,1003.92,733.14,997.23,733.14,997.23Z" class="colorbeb5e8 svgShape"></path><path fill="#a8c5e3" d="M1035.19,916.72l-15.39,10.84s4,3.16,8.28,6c-8.84,9.82-15.88,22.51-15.88,22.51-1.5,19-21,36.93-21,36.93,0-21.69-14.73-27.77-15.39-46.3a150.53,150.53,0,0,0,23.06-15.82c1-12.75,3.41-18.68,3.41-18.68C1018.21,913.83,1035.19,916.72,1035.19,916.72Z" class="colorb3a8e3 svgShape"></path><path fill="#b5cee8" d="M1185.8 1351.69c7.37-4.71 29.7.75 41.48 5a41.84 41.84 0 0022 1.76c-6.13 18.26-21.19 37.7-21.19 37.7a79 79 0 01-20.71 12.42c-6.28-29.22-8.07-36.86-8.07-36.86-7.91-6.22-11.09-8.32-11.09-8.32A53.36 53.36 0 011185.8 1351.69zM1351.53 1281.4c-5.55 14.6-14 32-14 32 11.93 0 26-5.31 26-5.31 18.65 3.84 20.34 4.78 20.34 4.78 1.88-17.54-7.63-35.29-7.63-35.29C1364.54 1273.21 1351.53 1281.4 1351.53 1281.4zM934.59 910.2c-.3 32.84-3.93 45.49-3.93 45.49l-21.25 4.51-20 17.44c.57-4.37 2.18-13.58 3.76-22.63-7.67-10.58-14.69-20.65-19.95-29.32C873.23 925.69 903.24 913.59 934.59 910.2zM1045.92 791.37L1034.69 822l-16.21 5.33L1007 848.2 994.4 850l6.14-50.45C1019 802.28 1045.92 791.37 1045.92 791.37z" class="colorbeb5e8 svgShape"></path><path fill="#ffffff" d="M1202.51 1245.35q5.7 3.89 11.46 7.69l4.64 3c1 .66 1.67.94 2.15 2.05 5.86 13.68 12.51 27.55 21.39 39.57l-2.37.22a183.71 183.71 0 0124.89-33c1.9-2.05 3.8-4.85 6.48-5.81 3.44-1.24 6.87-2.48 10.28-3.82a153.12 153.12 0 0019.31-8.65l-.12 1.91c-13.59-8.86-28.64-16.74-44.85-19.4l1.74-.78c-4.15 6.41-8.25 12.85-10.77 20.08-2.06-2.63-4.12-5.27-6.21-7.87-3.1-3.84-6.3-8.38-10.34-11.31l1.5-.12c-4.5 3.6-9 7.11-13.6 10.64l-2.34 1.82c-.37.29-1.88-.52-2.28-.65-2.73-.91-5.49-1.74-8.27-2.51a2.13 2.13 0 01.58-.3zm-.4.11c.81-2.29 1.61-4.57 2.42-6.85.1-.29.2-.57.31-.86.25-.72 1.12-.22 1.81-.08 3.06.61 6.1 1.32 9.09 2.19l-.84.18q4.86-4.21 9.72-8.44c1.62-1.4 3.25-2.8 4.89-4.18.84-.7 1-1.18 1.92-.59 3 1.85 5.43 4.77 7.77 7.33 2.88 3.14 5.63 6.4 8.29 9.73l-3 .6a40.26 40.26 0 013.41-7.21c1.93-3.53 4.08-7 6.27-10.33.28-.43.71-1.54 1.26-1.45 1.34.23 2.68.47 4 .78a92.9 92.9 0 0111.53 3.52 136.2 136.2 0 0132.45 18c-10.59 5.26-22 8.85-33.19 12.72l.19-.12a141.83 141.83 0 00-19.1 23.29c-3.73 5.64-6.89 11.54-10.1 17.47-10.1-12.77-16.84-27.74-22.55-42.89a3.94 3.94 0 01.36.45C1213.28 1254.47 1207.52 1250.16 1202.11 1245.46zM934.76 910.2a212.39 212.39 0 010 24.85 123.59 123.59 0 01-2.29 19.28c-.13.58-.27 2.53-1 2.68q-2.47.53-4.95 1-3.69.72-7.4 1.37l-9.59 1.69.42-.2q-10.93 8.82-21.38 18.19c1.25-8.07 2.27-16.18 3.35-24.28l.21.91c-7.61-10-15-20.19-21.57-30.88a229 229 0 0134.25-10.55c4.67-1 9.39-1.93 14.13-2.63 2-.3 4-.6 5.93-.81C926.05 910.73 934.61 909.55 934.76 910.2zm-.35.2c-8.9 1.78-17.74 3.58-26.52 5.91a317.18 317.18 0 00-34 11c.29-.85.57-1.7.85-2.54 5.79 9.58 12.12 18.78 18.41 28 .45.66 1.38 1.61 1.22 2.41l-1 4.82c-1.17 5.88-2.38 11.76-3.43 17.67l-.91-.49q6.75-5.72 13.28-11.68 3.25-3 6.47-6a5.68 5.68 0 011.51-.48c6.66-1.65 13.32-3.35 20-4.78l-1.11 1c2.58-9.64 3.15-20 4-29.89C933.64 920.4 934 915.4 934.41 910.4zM1046.07 791.43c-2.33 8.69-5.21 17.25-8.15 25.75q-1 2.84-2 5.65c-.33.93-2.92 1.29-3.78 1.57-4.4 1.48-8.82 2.86-13.29 4.12l.7-.58q-3 5-6.07 10-1.51 2.49-3 5c-.62 1.08-1.24 2.17-1.85 3.26-.26.46-.95 2.35-1.47 2.42-4.54.69-9.07 1.39-13.59 2.23.82-9.64 1.62-19.28 2.64-28.9.56-5.23 1.09-10.47 1.7-15.69l.84-7c.06-.53.13-1.06.19-1.59 0-.16 1.16.06 1.34.08a56.11 56.11 0 008.29.52c12.77-.45 25.39-3.36 37.55-7.17zm-.47.26c-13.9 6.66-29.86 11-45.32 9.64l2-1.54c-2.09 16.82-4.52 33.58-7.17 50.32l-.82-.79c4.22-.44 8.43-1 12.64-1.61a2.4 2.4 0 01-.37.25c3.17-5.84 6.14-11.78 9.1-17.73.64-1.29 1.21-3.31 2.42-4.06 5.32-2 10.72-3.84 16.15-5.53l-.9.88c3.77-10.06 7.72-20.09 12.26-29.83C1044 792.48 1044.5 794 1045.6 791.69z" class="colorffffff svgShape"></path><path fill="#333f6e" d="M946.46 1114.36c-5.11 1-14-5.24-27.57-3.52-5 4.82-7.55 18.86-12.75 26.85-12.82 19.71-27.9 53.79-26.35 57.3 13.38 2.42 51.8-28.2 70.26-44.39 11-9.66 19-12.29 19-12.29C958.81 1123.22 952.21 1113.21 946.46 1114.36zM1162 1091.66c-11.33-5.94-18-8.84-20.45-7.88-12.34 9.86-30.75 45.65-36.75 61.62s-6 23.6-4.67 24.58c19.58 0 47.51-30 54.85-37.84 9.92-10.58 19.33-12 19.33-12C1173.09 1108.43 1162 1091.66 1162 1091.66z" class="color6e3333 svgShape"></path><path fill="#021b79" d="M1181.64,928.15c-31.83,40.5-60.79,88-60.79,88-52.92,23.55-127.74,60.86-177.32,97.63,5.69,15.1,22.71,38.27,22.71,38.27,128.34-54.86,180.67-78.37,188.49-85.22,43.65-35.31,85.16-76.17,97.59-90.73C1204.93,944.93,1181.64,928.15,1181.64,928.15Z" class="color43377d svgShape"></path><path d="M1252.32,976.1c-47.39-31.17-70.68-48-70.68-48-3.68,4.69-7.33,9.47-10.9,14.27,9.18,9.29,22.53,19.79,40.85,33.5,8.6,6.43,16.91,12.27,24.53,17.4C1243.33,986.05,1248.91,980.09,1252.32,976.1Z" style="mix-blend-mode:multiply" fill="#0575e6" class="colora394e8 svgShape"></path><path fill="#021b79" d="M1196.9,841.48c-18.62,9.57-41.67,40.36-38.94,68.94,2,18.89,18.67,33.57,57,62.27a607.08,607.08,0,0,0,62.73,41.2c-45.72,23.35-116.9,72.34-116.9,72.34-.48,19,9.51,39.08,12.55,44.76,105.23-46.59,166.85-78.62,181.86-97.85,11.13-14.28,12.89-20.87-3.31-41.77-19.39-25-60.5-68.13-60.5-68.13-3.61-4-7-13.49-7-13.49C1266.56,889.36,1246.19,856.43,1196.9,841.48Z" class="color43377d svgShape"></path><path fill="#a3d1ff" d="M1641.43,711.2c24-8.46,45.91-13.2,48.06-13.38,7.91-.66,30.15,4.61,35.89,9,4.32,4.41-1.86,25-3.61,27s-6,.64-6,.64c1.19,2.9.19,4.31.19,4.31-9.41-.54-18.48-3.06-21.87-5.6-3.17-2.37-5.54-8.43-7.69-10.27-6.5,0-40,18.56-43.53,20C1641.93,723.81,1641.43,711.2,1641.43,711.2Z" class="colorffa3b0 svgShape"></path><path fill="#ffffff" d="M1646.76,708c.73-.27.68-.19,7.21-2.11a104.49,104.49,0,0,1,4.87,36.61,73,73,0,0,0-9.62,3.87C1643.3,722.88,1646.76,708,1646.76,708Z" class="colorffffff svgShape"></path><path fill="#c5daf0" d="M1705.28,728.49a3.25,3.25,0,0,1-.45-.56c-1.67-2.53-.44-8.09,1.21-10.24l0-.07.07,0c1.24-.67,3.73,1.06,9.54,5.44l-.44.59c-3.76-2.83-7.64-5.76-8.68-5.41-1.46,2-2.58,7.09-1.12,9.32.87,1.33,3.51,2.69,6.07,4a31.23,31.23,0,0,1,4.53,2.63l-.45.58a32.11,32.11,0,0,0-4.42-2.55C1708.87,731,1706.49,729.78,1705.28,728.49Z" class="colorf0cec5 svgShape"></path><path fill="#61b0ff" d="M1442.92,786.79c9.83-29.26,18-40.54,18-40.54,78.92-17.86,185.17-39.92,188.6-40.41,6.14,22.62,4.34,40.71,4.34,40.71-107.47,42.66-220.71,74.07-220.71,74.07A186.41,186.41,0,0,1,1442.92,786.79Z" class="colorffc761 svgShape"></path><path fill="#4f6de0" d="M1378,893.38c-5.42,8.82-14.25,23.27-20.16,33.91s-15.72,23.56-17.21,24.7c-17.56-16.67-32.17-41.6-32.17-41.6,11.55-12.5,121-112.14,126.25-107.91S1378,893.38,1378,893.38Z" class="colore0ad4f svgShape"></path><path fill="#64a5e7" d="M1416.23,699.86a29.85,29.85,0,0,0-6-1.37c-15.63,35.76-200.54,132-206.22,135.07-9,4-12.53,8.54-12.53,8.54,12.88,22,75,60.28,104.76,84.95,40.36-29.46,118-100.94,133.74-121s22-64.9,22-64.9c-.28-1-3.55-9.44-3.55-9.44C1440.82,715.11,1416.23,699.86,1416.23,699.86Z" class="colore7649a svgShape"></path><path fill="#61b0ff" d="M1416.23,699.86c-3.39,42.74-40,108.93-66.11,146.38s-52.81,71.8-56.34,71.51c-39.08-33.86-90.37-69.06-96.24-84.84,43.17-23.35,58.3-36.56,77-60.91,19.13-25,36-48.21,37.47-50.8,14.56-21.86,57.76-43.64,57.76-43.64C1373.79,676,1415.27,698.05,1416.23,699.86Z" class="colorffc761 svgShape"></path><path fill="#a3d1ff" d="M1150,752.79c-5.79,4.39-19.84,9.54-24.73,23.8.65,4.9,29.38,23.88,36.16,20.89,7-8.85,8.26-23.63,12.54-31.32C1160.61,757.61,1152.85,750.65,1150,752.79Z" class="colorffa3b0 svgShape"></path><path fill="#ffffff" d="M1391.42,766.7c-11.38,2-17.77,2.41-17.77,2.41-13.33,40.29-35.63,88.7-53.55,118.45,9.09-11.95,19.6-26.38,30-41.32,26.16-37.45,62.72-103.64,66.11-146.38-23.93,41.83-38.7,59-38.7,59C1384.13,763,1391.42,766.7,1391.42,766.7Z" class="colorffffff svgShape"></path><path fill="#61b0ff" d="M1452,739.81c6.08,4.24,8.92,6.44,8.92,6.44-3,26.36-15.76,58.93-36,87.88-10.13,14.5-45.24,58.79-67.18,93.16,31.47-64.44,53.22-102.38,67.73-131.22S1450.87,743.19,1452,739.81Z" class="colorffc761 svgShape"></path><path fill="#ffffff" d="M1433.5,820.25c14.6-24.41,24.47-51.4,27.08-74l.74.09c-2.62,22.74-12.53,49.83-27.18,74.33Z" class="colorffffff svgShape"></path><path fill="#ffffff" d="M1452.59,740c-.15-.64-1.18-1.83-1.8-1.87a572.83,572.83,0,0,1-25.27,58c-11.63,23.11-27.92,52.1-50.13,95.87,27.38-35.7,68.08-94.87,68.08-94.87-4-5.68-8.11-11-8.11-11,4,1.9,10.84,4.5,10.84,4.5C1450.33,762.24,1452,744.91,1452.59,740Z" class="colorffffff svgShape"></path><path fill="#95c2f0" d="M1277.88,1014.24l-.29-.69a29.55,29.55,0,0,1,11.2-2l0,.74A29,29,0,0,0,1277.88,1014.24Z" class="colora595f0 svgShape"></path><path fill="#64a5e7" d="M1426.09,696.69c-2.36-.83-9.22,2.54-9.86,3.17,2.35,20,15.7,39.15,15.7,39.15a33.84,33.84,0,0,0,9.44-10.49c1,5.58,1.55,13.13.71,14.36a31.65,31.65,0,0,0,8.62-5.5,29.16,29.16,0,0,0-1.16-10.15C1446.13,721.06,1426.09,696.69,1426.09,696.69Z" class="colore7649a svgShape"></path><path fill="#ffffff" d="M1431.83,739.53l-.21-.3c-.13-.2-13.42-19.43-15.76-39.32l0-.18.13-.13c.69-.68,7.72-4.15,10.25-3.26l.09,0,.07.08c.82,1,20.09,24.47,23.48,30.6a29,29,0,0,1,1.21,10.36v.14l-.11.1a31.58,31.58,0,0,1-8.73,5.58l-.62.23.12-.65a55,55,0,0,0-.55-13.23,34.35,34.35,0,0,1-9,9.74ZM1416.62,700c2.21,18.26,13.71,36,15.4,38.48a33.9,33.9,0,0,0,9-10.16l.51-.94.19,1.05a62,62,0,0,1,.8,13.85,32.32,32.32,0,0,0,7.81-5.1,29,29,0,0,0-1.17-9.86c-3.22-5.82-22-28.75-23.3-30.33C1423.74,696.4,1417.76,699.18,1416.62,700Z" class="colorffffff svgShape"></path><path fill="#333f6e" d="M1507.67,669.93c11.27.38,17.4-6.38,19.53-10.92s-2.83-10.1-7.57-11.49,2.2-9.6-4.65-17.07-14.43,1.67-18.32-4.56-9.39-9.31-12.45-6.14-7.67,4.19-12.59,1.22a8.64,8.64,0,0,0-13.11,5.17c-1.53,4.24-7.33-2.84-9.32,2.21s-3.16,5.75-8.23,7.58-7.87,4.93-5.51,10.93-9.19,11.33-5.82,17,3.75,6.57.9,10.5-5.88,6.26-1.53,9.13,2.76,8.35,8.48,10.29S1507.67,669.93,1507.67,669.93Z" class="color6e3333 svgShape"></path><path fill="#a3d1ff" d="M1452.19,671.82c-6,8.75-18.25,22.26-26.1,24.87,3.51,18.48,15.28,31.83,15.28,31.83a25.56,25.56,0,0,0,8.17-1.29c2.83-10.1,14.13-20.59,14.81-21.44C1463.39,696.16,1452.19,671.82,1452.19,671.82Z" class="colorffa3b0 svgShape"></path><path d="M1464.35,705.79c-1-9.63-12.16-34-12.16-34-1.08,1.57-2.36,3.3-3.78,5.1-.67,4.53-2.15,16.57-.1,21.82,1.14,2.9,6.65,7,12.79,10.46C1462.85,707.31,1464.13,706.06,1464.35,705.79Z" style="mix-blend-mode:multiply" fill="#c5daf0" class="colorf0cec5 svgShape"></path><path fill="#a3d1ff" d="M1509.58,664.2c-9.27,26.39-23.93,48.2-28.15,50.65s-29-10.2-31.55-16.74.37-23.61.37-23.61c-7-1.13-5.51-12.45-2.53-17.21,3.92-6.3,9.06-2.29,8.54,5,6-2.18,2.94-9.4,10.51-13.65,6.1-3.42,8.39,7.27,14.32,1.25s14.12-1.42,15.19,6.26S1506.81,657.54,1509.58,664.2Z" class="colorffa3b0 svgShape"></path><path d="M1477.13,690.34l.37-.64s4.12,2.3,6.53,1.51a93.24,93.24,0,0,1,3-12.26l.7.24a93.38,93.38,0,0,0-3,12.35l0,.2-.19.08C1481.78,692.94,1477.32,690.45,1477.13,690.34Z" style="mix-blend-mode:multiply" fill="#c5daf0" class="colorf0cec5 svgShape"></path><path fill="#3c4566" d="M1478.49 673.63c-1.38 3.32-3.88 5.45-5.57 4.74s-2-4-.57-7.3 3.87-5.45 5.57-4.74S1479.87 670.3 1478.49 673.63zM1497.89 681.08c-1.38 3.32-3.88 5.45-5.57 4.74s-2-4-.57-7.29 3.87-5.46 5.57-4.75S1499.27 677.75 1497.89 681.08z" class="color663d3c svgShape"></path><path fill="#333f6e" d="M1469.42 659.66l-1.41-1.72c3.6-3 7.56-1.05 11.4.79a29.48 29.48 0 005.89 2.33l-.51 2.17a31.67 31.67 0 01-6.34-2.49C1474.4 658.79 1471.8 657.7 1469.42 659.66zM1495.07 667.22l1-2a23.64 23.64 0 003.77 1.47c2.53.82 4.72 1.53 6.42 5.14l-2 .95c-1.29-2.74-2.72-3.2-5.09-4A26 26 0 011495.07 667.22z" class="color6e3333 svgShape"></path><path fill="#ffffff" d="M1479.85,698.86c-7.55-3-11.72-4.52-13.58-9.7a9.1,9.1,0,0,0,5.15,9.09,37.78,37.78,0,0,0,6.25,2.55A11.83,11.83,0,0,0,1479.85,698.86Z" class="colorffffff svgShape"></path><path d="M1453.27,666c.23-3.26-.77-6.76-1.82-7.73l-.5.55c.78.72,1.81,3.92,1.58,7.12,0,.15,0,.3,0,.45a6.06,6.06,0,0,0-3.59,2.18l.57.48a5.54,5.54,0,0,1,2.91-1.88,6.55,6.55,0,0,1-2.56,4.38l.41.61C1452.48,670.61,1453.13,668,1453.27,666Z" style="mix-blend-mode:multiply" fill="#c5daf0" class="colorf0cec5 svgShape"></path><path fill="#ffffff" d="M1150.27,747.55c-1.64,2.32-2.9,4-2.9,4,8.25,7.24,21,16.06,28.12,18,.75-1.26,2.9-4.25,2.9-4.25C1167.42,758.94,1150.27,747.55,1150.27,747.55Z" class="colorffffff svgShape"></path><path fill="#61b0ff" d="M1338.62,714.15c20.86-15.29,33.4-29.79,34.12-36.19-8-7-70.86-19-105.61-24.48s-38-5.6-44.44-4.14c-24.09,17.64-74.79,98.28-74.79,98.28,11.67,12.51,30.75,21.39,31.62,20.61,31.42-36.54,56.17-64.87,57.48-66.44,31.2,11.82,67.71,25.74,71.89,26.4C1318.7,729.75,1332.92,718.33,1338.62,714.15Z" class="colorffc761 svgShape"></path><path fill="#ffffff" d="M1308.83 728.56l.11-.73c8.84 1.4 21.69-8.18 27.86-12.79l1.6-1.19c21.42-15.7 33.3-30 34-35.93l.74.09c-.82 7.26-14.91 22.25-34.27 36.44l-1.6 1.18C1330.51 720.66 1318 730 1308.83 728.56zM1231.1 698.53l.45-.58a24.44 24.44 0 004.87 2.88A23.54 23.54 0 011235 693l.74 0a24.4 24.4 0 001.6 8.31l.28.72-.74-.23A22 22 0 011231.1 698.53z" class="colorffffff svgShape"></path></g></svg>