<svg xmlns="http://www.w3.org/2000/svg" fill="none" viewBox="0 0 3000 3001" id="BusinessmandoingMultitasking"><g clip-path="url(#clip0_101_42940)" fill="#000000" class="color000000 svgShape"><path fill="#0575e6" d="M1797.32 953.765C1797.32 1101.14 1677.85 1220.61 1530.48 1220.61C1383.11 1220.61 1263.64 1101.14 1263.64 953.765C1263.64 806.392 1383.11 686.922 1530.48 686.922C1677.85 686.922 1797.32 806.392 1797.32 953.765Z" class="color53b3cc svgShape"></path><path fill="#021b79" fill-rule="evenodd" d="M954.764 1237.21C957.36 1253.61 946.169 1269.01 929.768 1271.61L660.182 1314.28C643.781 1316.88 628.381 1305.68 625.785 1289.28L568.2 925.458C565.604 909.057 576.795 893.656 593.196 891.06L862.782 848.391C879.183 845.795 894.583 856.987 897.179 873.388L954.764 1237.21ZM927.417 1256.76C935.618 1255.46 941.214 1247.76 939.916 1239.56L882.331 875.738C881.033 867.537 873.333 861.942 865.132 863.24L595.547 905.909C587.346 907.207 581.75 914.907 583.048 923.108L640.633 1286.93C641.931 1295.13 649.632 1300.73 657.832 1299.43L927.417 1256.76Z" clip-rule="evenodd" class="color3e3d3d svgShape"></path><path fill="#e5e5e5" fill-rule="evenodd" d="M842.668 955.899L648.524 987.701L646.094 972.866L840.238 941.064L842.668 955.899ZM854.28 1041.89L660.136 1073.69L657.705 1058.85L851.849 1027.05L854.28 1041.89ZM865.178 1112.86L671.034 1144.66L668.603 1129.83L862.747 1098.02L865.178 1112.86ZM876.076 1183.83L681.932 1215.63L679.501 1200.8L873.645 1168.99L876.076 1183.83Z" clip-rule="evenodd" class="colore5e5e5 svgShape"></path><path fill="#021b79" fill-rule="evenodd" d="M2105.51 859.806C2105.51 843.201 2118.97 829.739 2135.58 829.739H2549C2565.6 829.739 2579.06 843.201 2579.06 859.806V1363.43C2579.06 1380.03 2565.6 1393.49 2549 1393.49H2135.58C2118.97 1393.49 2105.51 1380.03 2105.51 1363.43V859.806ZM2135.58 844.773C2127.27 844.773 2120.54 851.503 2120.54 859.806V1363.43C2120.54 1371.73 2127.27 1378.46 2135.58 1378.46H2549C2557.3 1378.46 2564.03 1371.73 2564.03 1363.43V859.806C2564.03 851.503 2557.3 844.773 2549 844.773H2135.58Z" clip-rule="evenodd" class="color3e3d3d svgShape"></path><path fill="#e5e5e5" fill-rule="evenodd" d="M2158.13 965.041C2158.13 940.133 2178.32 919.94 2203.23 919.94H2218.26C2243.17 919.94 2263.36 940.133 2263.36 965.041V980.074C2263.36 1004.98 2243.17 1025.17 2218.26 1025.17H2203.23C2178.32 1025.17 2158.13 1004.98 2158.13 980.074V965.041zM2203.23 934.974C2186.62 934.974 2173.16 948.435 2173.16 965.041V980.074C2173.16 996.68 2186.62 1010.14 2203.23 1010.14H2218.26C2234.87 1010.14 2248.33 996.68 2248.33 980.074V965.041C2248.33 948.435 2234.87 934.974 2218.26 934.974H2203.23zM2158.13 1115.37C2158.13 1090.47 2178.32 1070.27 2203.23 1070.27H2218.26C2243.17 1070.27 2263.36 1090.47 2263.36 1115.37V1130.41C2263.36 1155.32 2243.17 1175.51 2218.26 1175.51H2203.23C2178.32 1175.51 2158.13 1155.32 2158.13 1130.41V1115.37zM2203.23 1085.31C2186.62 1085.31 2173.16 1098.77 2173.16 1115.37V1130.41C2173.16 1147.01 2186.62 1160.48 2203.23 1160.48H2218.26C2234.87 1160.48 2248.33 1147.01 2248.33 1130.41V1115.37C2248.33 1098.77 2234.87 1085.31 2218.26 1085.31H2203.23zM2158.13 1258.19C2158.13 1233.28 2178.32 1213.09 2203.23 1213.09H2218.26C2243.17 1213.09 2263.36 1233.28 2263.36 1258.19V1280.74C2263.36 1305.65 2243.17 1325.84 2218.26 1325.84H2203.23C2178.32 1325.84 2158.13 1305.65 2158.13 1280.74V1258.19zM2203.23 1228.13C2186.62 1228.13 2173.16 1241.59 2173.16 1258.19V1280.74C2173.16 1297.35 2186.62 1310.81 2203.23 1310.81H2218.26C2234.87 1310.81 2248.33 1297.35 2248.33 1280.74V1258.19C2248.33 1241.59 2234.87 1228.13 2218.26 1228.13H2203.23z" clip-rule="evenodd" class="colore5e5e5 svgShape"></path><path fill="#0575e6" fill-rule="evenodd" d="M2290.28 948.605L2198.66 1014.05 2173.84 959.479 2187.52 953.253 2204.79 991.199 2281.54 936.372 2290.28 948.605zM2289.46 1099.45L2198.99 1147.92 2174.25 1107.13 2187.1 1099.33 2204.45 1127.94 2282.36 1086.2 2289.46 1099.45z" clip-rule="evenodd" class="color53b3cc svgShape"></path><path fill="#021b79" fill-rule="evenodd" d="M2477.83 980.074H2331.01V965.041H2477.83V980.074ZM2503.9 1015.24H2331.01V1000.21H2503.9V1015.24ZM2477.83 1120.75H2331.01V1105.72H2477.83V1120.75ZM2503.9 1155.92H2331.01V1140.89H2503.9V1155.92ZM2477.83 1268.12H2331.01V1253.09H2477.83V1268.12ZM2503.9 1303.29H2331.01V1288.26H2503.9V1303.29Z" clip-rule="evenodd" class="color3e3d3d svgShape"></path><path fill="#466af1" d="M1019.21 1732.17C1078.2 1758.9 1280.12 1828.73 1364.78 1848.19L1137.55 2040.22C1062.91 2007.67 885.426 1904.33 844.05 1848.19 802.674 1792.05 745.456 1512.88 736.073 1409.02L899.078 1367.18C905.174 1458.57 973.116 1711.29 1019.21 1732.17zM2060.21 1735.93C2001.22 1762.66 1799.3 1832.48 1714.64 1851.95L1941.87 2043.98C2016.51 2011.43 2194 1908.08 2235.37 1851.95 2276.75 1795.81 2333.97 1516.64 2343.35 1412.78L2180.35 1370.94C2174.25 1462.33 2106.31 1715.04 2060.21 1735.93z" class="colorf15846 svgShape"></path><path fill="#2f5afa" d="M831.427 2107.58C891.56 2083.53 1051.92 1982.3 1124.58 1934.7L1105.79 2231.61C1030.62 2262.93 862.997 2323.31 793.843 2314.29 724.689 2305.27 544.539 2172.73 463.107 2107.58L545.791 1961.01C615.947 2019.89 778.81 2118.86 831.427 2107.58zM2236.72 2107.58C2176.59 2083.53 2016.23 1982.3 1943.57 1934.7L1962.36 2231.61C2037.53 2262.93 2205.15 2323.31 2274.3 2314.29 2343.46 2305.27 2523.61 2172.73 2605.04 2107.58L2522.36 1961.01C2452.2 2019.89 2289.34 2118.86 2236.72 2107.58z" class="colorfac22f svgShape"></path><path fill="#0575e6" d="M1000.55 2359.39C1003.56 2428.55 1054.42 2603.69 1079.48 2682.61H1989C2030.34 2566.1 2079.2 2389.46 2075.44 2359.39C2071.69 2329.33 1973.97 1949.73 1928.87 1915.91C1892.79 1888.85 1735.94 1854.52 1654.51 1840.74C1645.74 1872.06 1609.41 1934.7 1534.24 1934.7C1459.07 1934.7 1422.74 1872.06 1413.97 1840.74C1337.55 1853.27 1162.16 1885.84 1132.1 1915.91C1094.51 1953.49 996.794 2272.95 1000.55 2359.39Z" class="color53b3cc svgShape"></path><path fill="#021b79" fill-rule="evenodd" d="M-2.92969 2693.89C-2.92969 2689.73 0.435663 2686.37 4.58703 2686.37H2992.48C2996.63 2686.37 3000 2689.73 3000 2693.89C3000 2698.04 2996.63 2701.4 2992.48 2701.4H4.58703C0.435663 2701.4 -2.92969 2698.04 -2.92969 2693.89Z" clip-rule="evenodd" class="color3e3d3d svgShape"></path><path fill="#ffffff" d="M1017.76 2124.61C1016.59 2111.42 1026.98 2100.07 1040.22 2100.07H2021.05C2034.18 2100.07 2044.53 2111.23 2043.53 2124.32L2001.86 2673.04C2000.97 2684.8 1991.16 2693.89 1979.37 2693.89H1088.84C1077.16 2693.89 1067.41 2684.96 1066.38 2673.33L1017.76 2124.61Z" class="colorffffff svgShape"></path><path fill="#021b79" fill-rule="evenodd" d="M1010.27 2125.27C1008.71 2107.69 1022.57 2092.55 1040.22 2092.55H2021.05C2038.55 2092.55 2052.35 2107.44 2051.03 2124.89L2009.35 2673.61C2008.16 2689.29 1995.1 2701.4 1979.37 2701.4H1088.84C1073.27 2701.4 1060.27 2689.51 1058.89 2673.99L1010.27 2125.27ZM1040.22 2107.58C1031.4 2107.58 1024.47 2115.15 1025.25 2123.94L1073.87 2672.66C1074.56 2680.42 1081.05 2686.37 1088.84 2686.37H1979.37C1987.23 2686.37 1993.77 2680.31 1994.36 2672.47L2036.04 2123.75C2036.7 2115.03 2029.8 2107.58 2021.05 2107.58H1040.22Z" clip-rule="evenodd" class="color3e3d3d svgShape"></path><path fill="#e5e5e5" d="M1616.92 2404.49C1616.92 2454.31 1576.54 2494.69 1526.72 2494.69C1476.91 2494.69 1436.52 2454.31 1436.52 2404.49C1436.52 2354.68 1476.91 2314.29 1526.72 2314.29C1576.54 2314.29 1616.92 2354.68 1616.92 2404.49Z" class="colore5e5e5 svgShape"></path><path fill="#96c2ef" d="M1429.01 1761.81H1639.47V1934.7H1429.01V1761.81Z" class="colorefcb96 svgShape"></path><path fill="#96c2ef" d="M1377.4 1698.55C1397.75 1820.59 1490.44 1836.98 1535.65 1836.98C1580.86 1836.98 1670.73 1820.59 1691.07 1698.55C1701.43 1695.72 1722.16 1678.77 1722.16 1633.57C1722.16 1588.37 1707.09 1573.31 1699.55 1571.42L1674.12 1444.29L1558.26 1416.04H1510.22L1394.36 1444.29L1368.93 1571.42C1361.39 1573.31 1346.32 1588.37 1346.32 1633.57C1346.32 1678.77 1367.04 1695.72 1377.4 1698.55Z" class="colorefcb96 svgShape"></path><path fill="#021b79" d="M1367.07 1581.15C1378.29 1598.31 1372.68 1661.24 1383.89 1664.1C1392.31 1635.49 1392.31 1592.59 1395.11 1572.56C1397.91 1552.54 1403.52 1478.17 1451.19 1478.17C1498.85 1478.17 1498.85 1509.64 1535.3 1509.64C1571.76 1509.64 1574.56 1478.17 1613.81 1478.17C1652.67 1478.17 1655.81 1511.81 1661.31 1570.76L1661.48 1572.56C1665.97 1620.62 1676.43 1653.61 1681.11 1664.1C1690.08 1650.37 1681.11 1572.56 1697.93 1575.42C1713.63 1584.58 1717.56 1604.03 1717.56 1612.61C1733.45 1522.03 1717 1340.88 1524.09 1340.88C1331.18 1340.88 1325.95 1529.66 1347.44 1624.05C1351.93 1582.86 1362.4 1578.29 1367.07 1581.15Z" class="color3e3d3d svgShape"></path><path fill="#e5e5e5" d="M151.162 1852.01C151.162 1847.86 154.527 1844.5 158.679 1844.5H354.114C358.265 1844.5 361.63 1847.86 361.63 1852.01V2115.1C361.63 2119.25 358.265 2122.62 354.114 2122.62H158.679C154.527 2122.62 151.162 2119.25 151.162 2115.1V1852.01zM436.798 1984.08C436.798 1909.34 389.192 1895.1 361.631 1897.33V1878.32C396.885 1878.67 474.909 1900.32 474.909 1984.08 474.909 2067.85 396.885 2091.3 361.631 2092.55V2077.52C389.192 2077.51 436.798 2058.83 436.798 1984.08z" class="colore5e5e5 svgShape"></path><path fill="#0575e6" fill-rule="evenodd" d="M184.988 1699.47C184.988 1675.61 202.921 1661.5 211.855 1657.29L218.256 1670.9C212.156 1673.77 200.022 1683.71 200.022 1699.47 200.022 1704.39 201.104 1707.15 202.367 1709.13 203.669 1711.18 205.311 1712.71 207.834 1715.07 208.182 1715.4 208.548 1715.74 208.932 1716.1 211.899 1718.9 215.519 1722.51 218.246 1727.92 220.992 1733.38 222.572 1740.11 222.572 1748.99 222.572 1778.14 204.867 1790.03 193.67 1791.79L191.34 1776.94C195.177 1776.34 207.538 1770.78 207.538 1748.99 207.538 1741.95 206.299 1737.63 204.817 1734.68 203.316 1731.7 201.298 1729.56 198.628 1727.05 198.322 1726.76 197.996 1726.46 197.656 1726.14 195.246 1723.91 192.097 1720.99 189.69 1717.22 186.725 1712.56 184.988 1706.93 184.988 1699.47zM237.605 1699.47C237.605 1675.61 255.538 1661.5 264.472 1657.29L270.873 1670.9C264.773 1673.77 252.639 1683.71 252.639 1699.47 252.639 1704.39 253.721 1707.15 254.984 1709.13 256.286 1711.18 257.928 1712.71 260.451 1715.07 260.8 1715.4 261.165 1715.74 261.549 1716.1 264.517 1718.9 268.136 1722.51 270.863 1727.92 273.609 1733.38 275.189 1740.11 275.189 1748.99 275.189 1778.14 257.484 1790.03 246.287 1791.79L243.957 1776.94C247.794 1776.34 260.156 1770.78 260.156 1748.99 260.156 1741.95 258.917 1737.63 257.435 1734.68 255.934 1731.7 253.915 1729.56 251.246 1727.05 250.939 1726.76 250.613 1726.46 250.273 1726.14 247.864 1723.91 244.714 1720.99 242.307 1717.22 239.342 1712.56 237.605 1706.93 237.605 1699.47zM290.223 1699.47C290.223 1675.61 308.156 1661.5 317.089 1657.29L323.49 1670.9C317.39 1673.77 305.256 1683.71 305.256 1699.47 305.256 1704.39 306.339 1707.15 307.601 1709.13 308.903 1711.18 310.545 1712.71 313.068 1715.07 313.417 1715.4 313.782 1715.74 314.166 1716.1 317.134 1718.9 320.753 1722.51 323.48 1727.92 326.227 1733.38 327.806 1740.11 327.806 1748.99 327.806 1778.14 310.101 1790.03 298.904 1791.79L296.575 1776.94C300.411 1776.34 312.773 1770.78 312.773 1748.99 312.773 1741.95 311.534 1737.63 310.052 1734.68 308.551 1731.7 306.533 1729.56 303.863 1727.05 303.556 1726.76 303.231 1726.46 302.89 1726.14 300.481 1723.91 297.331 1720.99 294.925 1717.22 291.959 1712.56 290.223 1706.93 290.223 1699.47z" clip-rule="evenodd" class="color53b3cc svgShape"></path><path fill="#96c2ef" d="M759.545 1374.13C766.408 1391.86 768.957 1413.82 769.373 1422.58L887.178 1447.08C884.081 1434.68 879.066 1403.06 883.788 1375.75 888.51 1348.43 897.442 1293.58 901.318 1269.56L845.363 1279.75 820.152 1227.02C815.518 1217.33 804.204 1212.84 794.186 1216.72 785.146 1220.22 779.779 1229.55 781.305 1239.13L789.408 1289.93 722.19 1300.65C730.769 1322.82 750.967 1351.96 759.545 1374.13zM2549 1927.18C2539.98 1966.27 2520.18 1993.58 2511.41 2002.35L2579.06 2077.51C2618.15 2062.48 2663 2037.42 2676.78 2028.65L2567.79 1972.28 2594.1 1919.66 2622.28 1863.3C2625.46 1856.93 2623.21 1849.18 2617.1 1845.52 2612.29 1842.63 2606.19 1842.95 2601.99 1846.67 2584.28 1862.33 2556.85 1893.14 2549 1927.18z" class="colorefcb96 svgShape"></path><path fill="#e5e5e5" d="M2678.76 1753.44C2680.68 1749.76 2685.22 1748.34 2688.9 1750.26L2808.86 1812.84C2812.54 1814.76 2813.97 1819.3 2812.05 1822.98L2700.79 2036.24C2698.87 2039.92 2694.33 2041.34 2690.65 2039.42L2570.7 1976.84C2567.01 1974.92 2565.59 1970.38 2567.51 1966.7L2678.76 1753.44Z" class="colore5e5e5 svgShape"></path><path fill="#ffffff" d="M2683.54 1770.36C2685.46 1766.68 2690 1765.25 2693.68 1767.17L2714.08 1777.82C2716.57 1779.11 2718.12 1781.68 2718.12 1784.48L2718.12 1791.08C2718.12 1793.88 2719.68 1796.45 2722.16 1797.75L2751.58 1813.09C2753.8 1814.25 2756.45 1814.22 2758.65 1813.02L2766.33 1808.83C2768.53 1807.63 2771.19 1807.61 2773.41 1808.77L2792.26 1818.6C2795.94 1820.52 2797.37 1825.06 2795.45 1828.74L2695.83 2019.69C2693.91 2023.37 2689.37 2024.8 2685.69 2022.88L2587.11 1971.45C2583.43 1969.53 2582 1964.99 2583.92 1961.31L2683.54 1770.36zM1767.26 953.765C1767.26 1084.53 1661.25 1190.54 1530.48 1190.54 1399.71 1190.54 1293.71 1084.53 1293.71 953.765 1293.71 822.997 1399.71 716.989 1530.48 716.989 1661.25 716.989 1767.26 822.997 1767.26 953.765z" class="colorffffff svgShape"></path><path fill="#96c2ef" d="M2199.1 1354.74C2199.66 1368.25 2195.1 1394.38 2192.76 1405.76L2282.12 1418.97C2284.53 1409 2291.7 1384.74 2301.13 1367.43C2312.93 1345.79 2357.44 1297.42 2343.38 1264.17C2332.12 1237.57 2302.28 1224.99 2282.69 1228.62L2296.42 1127.74C2297.71 1118.24 2290.11 1109.89 2280.53 1110.28C2273.86 1110.56 2268.13 1115.1 2266.34 1121.54L2228.85 1256.23L2226.81 1206.95C2226.49 1199.19 2219.93 1193.16 2212.17 1193.48C2205.58 1193.75 2200.07 1198.56 2198.9 1205.06L2187.16 1270.65C2190.9 1293.05 2198.54 1341.23 2199.1 1354.74Z" class="colorefcb96 svgShape"></path><path fill="#e5e5e5" d="M2203.23 803.431C2203.23 797.204 2208.27 792.156 2214.5 792.156 2220.73 792.156 2225.78 797.204 2225.78 803.431V863.565C2225.78 869.792 2220.73 874.84 2214.5 874.84 2208.27 874.84 2203.23 869.792 2203.23 863.565V803.431zM2458.8 803.431C2458.8 797.204 2463.84 792.156 2470.07 792.156 2476.3 792.156 2481.35 797.204 2481.35 803.431V863.565C2481.35 869.792 2476.3 874.84 2470.07 874.84 2463.84 874.84 2458.8 869.792 2458.8 863.565V803.431zM1456.05 768.618L1458.25 751.955 1470.26 763.717 1541.07 946.028 1512.64 955.828 1456.05 768.618z" class="colore5e5e5 svgShape"></path><path fill="#e5e5e5" d="M1516.44 934.974L1534.79 958.786L1419.39 1043.01L1400.6 1043.25L1405.62 1025.15L1516.44 934.974Z" class="colore5e5e5 svgShape"></path><path fill="#e5e5e5" fill-rule="evenodd" d="M1527.02 767.363V739.539H1542.06V767.363H1527.02zM1527.02 1145.44V1117.62H1542.06V1145.44H1527.02zM1709.11 934.973L1737.49 934.973 1737.49 950.007 1709.11 950.007 1709.11 934.973zM1323.47 934.973L1351.85 934.973 1351.85 950.007 1323.47 950.007 1323.47 934.973zM1628.72 1091.33L1643.23 1115.62 1630.33 1123.33 1615.81 1099.04 1628.72 1091.33zM1431.43 761.244L1445.95 785.536 1433.05 793.248 1418.53 768.957 1431.43 761.244zM1689.64 1023.41L1714.27 1037.34 1706.87 1050.43 1682.24 1036.5 1689.64 1023.41zM1354.89 834.16L1379.52 848.088 1372.12 861.175 1347.49 847.247 1354.89 834.16zM1372.12 1023.41L1347.49 1037.34 1354.89 1050.43 1379.52 1036.5 1372.12 1023.41zM1706.87 834.16L1682.24 848.088 1689.64 861.175 1714.27 847.247 1706.87 834.16zM1433.05 1091.33L1418.53 1115.62 1431.43 1123.33 1445.95 1099.04 1433.05 1091.33zM1630.33 761.244L1615.81 785.536 1628.72 793.248 1643.23 768.957 1630.33 761.244z" clip-rule="evenodd" class="colore5e5e5 svgShape"></path><path fill="#96c2ef" d="M406.731 2077.51C365.49 2047.17 396.127 1976.04 417.425 1942.21L433.04 1953.49L436.798 1976.04L455.59 2032.41C453.085 2058.72 437.38 2100.06 406.731 2077.51Z" class="colorefcb96 svgShape"></path><path fill="#96c2ef" d="M433.041 1915.91C472.128 1915.91 521.989 1950.98 542.033 1968.52C543.286 1989.82 546.543 2033.92 549.55 2039.93C552.557 2045.94 500.691 2075.01 474.383 2088.79L433.041 2066.24L470.624 2013.62C474.383 1979.8 481.9 1942.21 421.766 1968.52C407.993 1974.55 395.457 1991.07 387.941 1994.83L380.424 1987.31C381.677 1963.51 393.954 1915.91 433.041 1915.91Z" class="colorefcb96 svgShape"></path><path fill="#021b79" d="M1549.27 950.007C1549.27 962.461 1539.18 972.557 1526.72 972.557C1514.27 972.557 1504.17 962.461 1504.17 950.007C1504.17 937.553 1514.27 927.457 1526.72 927.457C1539.18 927.457 1549.27 937.553 1549.27 950.007Z" class="color3e3d3d svgShape"></path></g><defs><clipPath id="clip0_101_42940"><rect width="3000" height="3000" fill="#ffffff" transform="translate(0 .803)" class="colorffffff svgShape"></rect></clipPath></defs></svg>