<svg xmlns="http://www.w3.org/2000/svg" enable-background="new 0 0 4000 4000" viewBox="0 0 4000 4000" id="BusinessEmployeesgreetingwithhi-fi"><g fill="#000000" class="color000000 svgShape"><path fill="#ffffff" stroke="#1a1a1a" stroke-linecap="round" stroke-linejoin="round" stroke-miterlimit="10" stroke-width="2" d="M3098.4,2067.4h-116.4l-145,206.7l91.8,164.1h99.3C3110.9,2333.4,3151.7,2194.5,3098.4,2067.4z" class="colorffffff svgShape colorStroke1a1a1a svgStroke"></path><path fill="#021b79" stroke="#1a1a1a" stroke-linecap="round" stroke-linejoin="round" stroke-miterlimit="10" stroke-width="2" d="M3251.1,2297.3l-118.7-229.9h-34c53.3,127.1,12.4,266-70.2,370.7h140.5
		L3251.1,2297.3z" class="color1a1a1a svgShape colorStroke1a1a1a svgStroke"></path><path fill="#ffffff" stroke="#1a1a1a" stroke-linecap="round" stroke-linejoin="round" stroke-miterlimit="10" stroke-width="2" d="M579,3215.9c8.5-205.9,89-326.4,130.2-378.1c199.9-251,620.4-321,1033.4-147.1c24.3-45.9,88.8-150.9,210-193.3
		c177.7-62.1,408.3,34.4,541.9,252.1c17.7-10.6,310.5-180.2,613.3-25.2c261.5,133.9,320.6,402.3,327.7,437
		C2483.3,3179.4,1531.2,3197.7,579,3215.9z" class="colorffffff svgShape colorStroke1a1a1a svgStroke"></path><ellipse cx="2000" cy="3222.1" fill="#ffffff" stroke="#1a1a1a" stroke-linecap="round" stroke-linejoin="round" stroke-miterlimit="10" stroke-width="2" rx="1972.3" ry="182.4" class="colorffffff svgShape colorStroke1a1a1a svgStroke"></ellipse><path fill="#ffffff" stroke="#1a1a1a" stroke-linecap="round" stroke-linejoin="round" stroke-miterlimit="10" stroke-width="2" d="M2402.8,3131c-182.5,0-348.6,9.1-473.2,24c-124.6-14.9-290.8-24-473.2-24c-386.6,0-700,40.8-700,91.1
		s313.4,91.1,700,91.1c182.5,0,348.6-9.1,473.2-24c124.6,14.9,290.8,24,473.2,24c386.6,0,700-40.8,700-91.1S2789.5,3131,2402.8,3131
		z" class="colorffffff svgShape colorStroke1a1a1a svgStroke"></path><circle cx="1420.3" cy="2359" r="86.5" fill="#ffffff" stroke="#1a1a1a" stroke-linecap="round" stroke-linejoin="round" stroke-miterlimit="10" stroke-width="2" class="colorffffff svgShape colorStroke1a1a1a svgStroke"></circle><path fill="#021b79" stroke="#1a1a1a" stroke-linecap="round" stroke-linejoin="round" stroke-miterlimit="10" stroke-width="2" d="M3590.2,2301.9c3-30.2-22.2-55.5-52.4-52.5c-22.4,2.2-40.5,20.3-42.7,42.7c-3,30.2,22.2,55.5,52.4,52.5
		C3569.9,2342.3,3588,2324.2,3590.2,2301.9z" class="color1a1a1a svgShape colorStroke1a1a1a svgStroke"></path><circle cx="684.5" cy="2641.4" r="101.1" fill="#ffffff" stroke="#1a1a1a" stroke-linecap="round" stroke-linejoin="round" stroke-miterlimit="10" stroke-width="2" class="colorffffff svgShape colorStroke1a1a1a svgStroke"></circle><circle cx="3036.1" cy="863.2" r="59.4" fill="#021b79" stroke="#1a1a1a" stroke-linecap="round" stroke-linejoin="round" stroke-miterlimit="10" stroke-width="2" transform="translate(-1.853 6.545)" class="color1a1a1a svgShape colorStroke1a1a1a svgStroke"></circle><g fill="#000000" class="color000000 svgShape"><path fill="#021b79" stroke="#1a1a1a" stroke-linecap="round" stroke-linejoin="round" stroke-miterlimit="10" stroke-width="2" d="M2342.4 929.1c6.8-29.4 21.2-42 27.9-46.8 43-30.8 123.1 1.4 147.5 50.1 3.5 7 3.1 9 10.1 46.3 12.3 65.7 18.4 98.5 23.1 106 28.2 45.4 85.4 12.9 155.2 62.7 5.7 4.1 80.3 58.8 67.5 118.6-6 28-28.9 46-41.9 54.5 3.5 48-10.5 70.4-21.2 81.5-56.4 58.3-210-3.4-298.8-71.8-37.9-29.2-108.9-83.8-102.6-147 4.5-45.8 45.9-58.7 60.2-114.7C2382.8 1016.1 2362.6 965.1 2342.4 929.1zM2223.2 3115.6c-15.4 6.6-35.6 11.8-50.2 4.7-35.9 33.3-78.5 70.1-78.5 70.1s-27.2 20.6 5.9 22.2 98.5 1.9 132.3-36.6c33.8-38.6 33.8-38.6 33.8-38.6l4.4 75.7c0 0 4.4 2.1 15.4 0 6.6-82.1 10.3-114.6 10.3-121.7 0-2.5-.1-18.4 0-39.7C2274.5 3077.3 2254.4 3103.5 2223.2 3115.6z" class="color1a1a1a svgShape colorStroke1a1a1a svgStroke"></path><path fill="#ffffff" stroke="#1a1a1a" stroke-linecap="round" stroke-linejoin="round" stroke-miterlimit="10" stroke-width="2" d="M2233.3,2922.9c0,0-14,128.2-36,168.6c-5,9.2-13.8,19.1-24.3,28.8
			c14.5,7.1,34.7,1.9,50.2-4.7c31.2-12.1,51.3-38.3,73.4-63.8c0.2-38.2,1.1-94.1,4.4-122.6
			C2306.1,2884.9,2233.3,2922.9,2233.3,2922.9z" class="colorffffff svgShape colorStroke1a1a1a svgStroke"></path><path fill="#021b79" stroke="#1a1a1a" stroke-linecap="round" stroke-linejoin="round" stroke-miterlimit="10" stroke-width="2" d="M2761.8,3096.5c-11.5,12.3-27.9,25.1-44,24.5c-19.5,44.9-43.8,95.8-43.8,95.8
			s-16.6,29.8,14.3,17.9c30.9-11.8,91-37.8,106.4-86.7c15.5-48.9,15.5-48.9,15.5-48.9l34.4,67.6c0,0,4.9,0.2,14.1-6.2
			c-26.9-77.8-36.6-109.1-39.4-115.6c-1-2.3-7.5-16.8-15.9-36.3C2793.4,3040.7,2785.5,3072.8,2761.8,3096.5z" class="color1a1a1a svgShape colorStroke1a1a1a svgStroke"></path><path fill="#ffffff" stroke="#1a1a1a" stroke-linecap="round" stroke-linejoin="round" stroke-miterlimit="10" stroke-width="2" d="M2693.8,2915.9c0,0,38.7,123,34.7,168.9c-0.9,10.4-5,23-10.7,36.2
			c16.2,0.6,32.6-12.2,44-24.5c23.7-23.6,31.6-55.7,41.6-87.9c-15.2-35.1-36.8-86.6-45.2-114.1
			C2745.1,2851.9,2693.8,2915.9,2693.8,2915.9z" class="colorffffff svgShape colorStroke1a1a1a svgStroke"></path><path fill="#021b79" stroke="#1a1a1a" stroke-linecap="round" stroke-linejoin="round" stroke-miterlimit="10" stroke-width="2" d="M2526.8,1764.5c-3.5,6.7-6.3,14-8.8,21.3c-28.1,97.4-20.7,195.7-26.2,294.2
			l-20.5,109.6l-156.2,758.9c-69.9,22.6-44.4-16-122.7,2.6c8.7-128,61.2-1084.6,61.2-1090.8l174.9-117.1c0,0,26.2,5.1,62.1,13
			C2502,1758.8,2514.2,1761.5,2526.8,1764.5z" class="color1a1a1a svgShape colorStroke1a1a1a svgStroke"></path><path fill="#021b79" stroke="#1a1a1a" stroke-linecap="round" stroke-linejoin="round" stroke-miterlimit="10" stroke-width="2" d="M2695.7,2046.9c26.5-76.6,38-208.2-18.3-237.1c-29.1-14.9-129.5-49.3-185.9-62.5
			l-0.7,9l-21.6,264.1c-2,18.3-3.6,36.8-4.6,55.3c0,0,2.9,53.7,6.9,114c1.8,27.3-1.1,247.6,17.3,311.7
			c18.4,64.1,111.3,43.7,172.3-22.2C2670.8,2273.3,2687.3,2071.2,2695.7,2046.9z" class="color1a1a1a svgShape colorStroke1a1a1a svgStroke"></path><path fill="#021b79" stroke="#1a1a1a" stroke-linecap="round" stroke-linejoin="round" stroke-miterlimit="10" stroke-width="2" d="M2488.7,2501.4c79.1,205.3,174.8,452.1,179.9,458.9c57.9-42.3,62.4-11.7,110-51.7
			c-10.9-35.6-68.9-250.4-122.7-459C2572.6,2385.4,2509.3,2380.2,2488.7,2501.4z" class="color1a1a1a svgShape colorStroke1a1a1a svgStroke"></path><path fill="#ffffff" stroke="#1a1a1a" stroke-linecap="round" stroke-linejoin="round" stroke-miterlimit="10" stroke-width="2" d="M2344.7,1208.3c0,0,174.1-28.3,220.4,0c46.3,28.3,28,647.6,9.2,648.5c-9.6,0.5-71,7.2-128.9,5
			c-55.1-2.1-121.5-25.7-143.1-47.3c16.4-156.2,24.4-441,24.1-445.8C2326.1,1363.9,2344.7,1208.3,2344.7,1208.3z" class="colorffffff svgShape colorStroke1a1a1a svgStroke"></path><path fill="#ffffff" stroke="#1a1a1a" stroke-linecap="round" stroke-linejoin="round" stroke-miterlimit="10" stroke-width="2" d="M2372,1217.4c-1.9-4.5,33.1-47.6,25.1-81c-35,9.3-74.9-53.3-70.4-115.4
			c4.5-62,25.4-94.2,89.3-106.7c63.9-12.5,46.4,168.1,64.7,219.6c18.3,51.6,48.2,78.1,48.2,78.1S2394.8,1271.8,2372,1217.4z" class="colorffffff svgShape colorStroke1a1a1a svgStroke"></path><g fill="#000000" class="color000000 svgShape"><polygon fill="#ffffff" stroke="#1a1a1a" stroke-linecap="round" stroke-linejoin="round" stroke-miterlimit="10" stroke-width="2" points="964.5 2005.2 1199 1975.2 1236.8 2246.4 984 2287.1" class="colorffffff svgShape colorStroke1a1a1a svgStroke"></polygon><polygon fill="#ffffff" stroke="#1a1a1a" stroke-linecap="round" stroke-linejoin="round" stroke-miterlimit="10" stroke-width="2" points="922.1 2272.4 984 2287.1 964.5 2005.2 929.2 1998.3" class="colorffffff svgShape colorStroke1a1a1a svgStroke"></polygon><polygon fill="#ffffff" stroke="#1a1a1a" stroke-linecap="round" stroke-linejoin="round" stroke-miterlimit="10" stroke-width="2" points="1168.2 1967.4 929.2 1998.3 964.5 2005.2 1199 1975.2" class="colorffffff svgShape colorStroke1a1a1a svgStroke"></polygon></g><path fill="#0575e6" stroke="#1a1a1a" stroke-linecap="round" stroke-linejoin="round" stroke-miterlimit="10" stroke-width="2" d="M1984.2,1122.9c0,3.9,66.5,197.6,114,226.5c47.5,28.9,197.9,86.8,197.9,86.8
			l40.5-214c0,0-157.4,26.3-173.5,18.6c-16.1-7.7-119.8-169.7-119.8-169.7C2031.1,1051.6,1972,1071,1984.2,1122.9z" class="color5067ef svgShape colorStroke1a1a1a svgStroke"></path><path fill="#021b79" stroke="#1a1a1a" stroke-linecap="round" stroke-linejoin="round" stroke-miterlimit="10" stroke-width="2" d="M2036.9,1097.9L2036.9,1097.9c-4,13.2-13.1,27.4-33.4,28c-2.6-0.6-4.8-1-6.7-1.5
			c-8.4-1.9-10.3-3.4-11.3-14.3c-0.4-3.9,1.9-10.1,6-16.6c8.5-13.5,24.7-27.7,40.7-22.5c2.7,0.9,5.4,2.3,8,4.4
			C2040.1,1075.3,2040.5,1086.2,2036.9,1097.9z" class="color1a1a1a svgShape colorStroke1a1a1a svgStroke"></path><path fill="#0575e6" stroke="#1a1a1a" stroke-linecap="round" stroke-linejoin="round" stroke-miterlimit="10" stroke-width="2" d="M2280.6 1395.7c1 13.3 1.7 21.7 1.7 21.7s40 132.6 22.2 199.1c-17.8 66.5-111.8 275.2-111.8 275.2s90.6 53 136.4 20.7c45.8-32.3 67.5-146 72.3-204.9 4.8-58.8-2.4-313.8-5.8-356.2-3.4-42.4-17.8-155.7-17.8-155.7s-86.5 33.7-98.5 35.4M2501.8 1177.9c0 0-20.6 260.4-24.4 366.4-3.9 106 17.3 345.5 113.7 362.9 96.4 17.4 151.6-39.1 140.7-68.7-10.9-29.6-42.4-44.3-54.6-100.3-12.2-55.9-68.8-324.5-55.3-393.3 13.5-68.8 36-113.1 36-113.1S2525.6 1177.2 2501.8 1177.9z" class="color5067ef svgShape colorStroke1a1a1a svgStroke"></path><path fill="#0575e6" stroke="#1a1a1a" stroke-linecap="round" stroke-linejoin="round" stroke-miterlimit="10" stroke-width="2" d="M2497.2,1165.7l76.5,23.4l-31.7,66.6h-18.2l7.9,66.6c0,0-49.3,123.5-50.8,150.6
			C2478.7,1391,2491.6,1184.3,2497.2,1165.7z" class="color5067ef svgShape colorStroke1a1a1a svgStroke"></path><path fill="#021b79" stroke="#1a1a1a" stroke-linecap="round" stroke-linejoin="round" stroke-miterlimit="10" stroke-width="2" d="M2427.6,1631.6c0.8,6.6,66.9,220.5,66.9,220.5l315.9-87.3l-70.7-204.7
			L2427.6,1631.6z" class="color1a1a1a svgShape colorStroke1a1a1a svgStroke"></path><polyline fill="none" stroke="#fff" stroke-linecap="round" stroke-linejoin="round" stroke-miterlimit="10" stroke-width="2" points="2449.7 1643.4 2540.4 1675.5 2693.6 1645.9"></polyline><path fill="#ffffff" stroke="#1a1a1a" stroke-linecap="round" stroke-linejoin="round" stroke-miterlimit="10" stroke-width="2" d="M2674,1772.2c0,0-33.8,37.2-44.3,43.9c-24.7,5.6-24.7,5.6-24.7,5.6
			s5.1,22.2,30.9,32.7c25.8,10.5,78.9-14.5,85-42.3c6.2-27.8,11.7-36.7,11.7-36.7L2674,1772.2z" class="colorffffff svgShape colorStroke1a1a1a svgStroke"></path><g fill="#000000" class="color000000 svgShape"><path fill="#0575e6" stroke="#1a1a1a" stroke-linecap="round" stroke-linejoin="round" stroke-miterlimit="10" stroke-width="2" d="M2639.9,1224.5c0,0,149.9,63.7,189.8,286.3c7.8,43.5-42.6,235.3-96.6,281.3
				c-60,13.5-73.9-4.7-77.4-5.8c-3.5-1,61.9-179.4,63.6-268.2c-25.7-56.8-107.2-111.1-122.4-161.7" class="color5067ef svgShape colorStroke1a1a1a svgStroke"></path></g><path fill="#ffffff" stroke="#1a1a1a" stroke-linecap="round" stroke-linejoin="round" stroke-miterlimit="10" stroke-width="2" d="M1129.1,1781.2l-49,9.5c0,0-7.1,56-16.1,78.5c-9,22.5-16.7,71.9-16.7,71.9l32.5-8.3
			c15.2-11.4,45.1,6.1,64.4,2.6C1132.4,1911.1,1129.1,1781.2,1129.1,1781.2z" class="colorffffff svgShape colorStroke1a1a1a svgStroke"></path><path fill="#ffffff" stroke="#1a1a1a" stroke-linecap="round" stroke-linejoin="round" stroke-miterlimit="10" stroke-width="2" d="M1013.5,1990.4c0,0,13.7-40.6,39.4-48.9c25.7-8.4,96.6-14.9,96.6-14.9s17.3-4.8,31.2,48.5
			c-16.1,1.6-16.1,1.6-16.1,1.6s-9-35-20.2-36c-11.2-1-79.4,9-84.2,13.5c-4.8,4.5-12.9,35-12.9,35S1014.3,1998.9,1013.5,1990.4z" class="colorffffff svgShape colorStroke1a1a1a svgStroke"></path><path fill="#0575e6" stroke="#1a1a1a" stroke-linecap="round" stroke-linejoin="round" stroke-miterlimit="10" stroke-width="2" d="M1188.7,1080.8c1,4.8-132.9,326.5-132.9,384.3c0,57.8-16.1,355.8-10.3,353.9
			c3.2-1.1,73.7,8.5,95.1-9c17.8-52.4,34.4-211.5,43.4-250.7c23.2-101.1,44.8-109,46.3-123.1
			C1235.1,1389,1188.7,1080.8,1188.7,1080.8z" class="color5067ef svgShape colorStroke1a1a1a svgStroke"></path><path fill="#ffffff" stroke="#1a1a1a" stroke-linecap="round" stroke-linejoin="round" stroke-miterlimit="10" stroke-width="2" d="M1468.9,741.9c0,0,53,199-2.6,201.4c-55.5,2.4-55.5,2.4-55.5,2.4l7.4,65.2
			c0,0-103.2,7.2-115-7.7c5.4-76.1-28.5-261.8,65.2-279C1462.1,707,1468.9,741.9,1468.9,741.9z" class="colorffffff svgShape colorStroke1a1a1a svgStroke"></path><path fill="#021b79" stroke="#1a1a1a" stroke-linecap="round" stroke-linejoin="round" stroke-miterlimit="10" stroke-width="2" d="M1375.6 936.2c0 0 25.1 9.9 35.2 9.5 3 26.2 3 26.2 3 26.2S1376.1 948 1375.6 936.2zM1339.3 3092.3c0 0-.5 46.8 9.3 51.1 35.7 15.8 97.3-2.2 101.6 25.2 5.6 34.9-95.5 86.8-151 62.2-3.2 13.4-3.2 13.4-3.2 13.4s-66.1 3.5-71.4-4.6c-11.7-52.8 1-140.1 9.9-147.3C1243.3 3085.1 1339.3 3092.3 1339.3 3092.3z" class="color1a1a1a svgShape colorStroke1a1a1a svgStroke"></path><path fill="#ffffff" stroke="#1a1a1a" stroke-linecap="round" stroke-linejoin="round" stroke-miterlimit="10" stroke-width="2" d="M1359.7,3110.8c-53.7-5.7-61.1,5.5-115.3-4.8c-7.4-1.4-14.7-2.8-22-4.3
			c-2.1-110.5-16.1-988.5-35.8-1053.2c-23-75.5-23-130.2-18.4-164c1-7.4,2.2-13.8,3.5-19.2c3.4-14.6,7-21.9,7-21.9s9.1-1.7,24.6-4.6
			c16.2-3,39.3-7.3,66.4-12.1c122-21.8,324.7-55.8,335.8-42.4c0.9,1.1,1.6,3.1,2.1,6.1c0.5,2.6,0.8,5.9,1,9.8
			c0.5,8.5,0.6,20.3,0.6,35.1c0.1,41.5-164.4,171.7-157.9,259.4C1459.4,2201.5,1380.9,3113,1359.7,3110.8z" class="colorffffff svgShape colorStroke1a1a1a svgStroke"></path><path fill="#021b79" stroke="#1a1a1a" stroke-linecap="round" stroke-linejoin="round" stroke-miterlimit="10" stroke-width="2" d="M1578.2,3110.8c0,0-0.5,46.8,9.3,51.1c35.7,15.8,113.1,18.6,117.5,46
			c5.6,34.9-111.4,65.9-166.9,41.4c-3.2,13.4-3.2,13.4-3.2,13.4s-66.1,3.5-71.4-4.6c-11.7-52.8,2.8-121.1,11.8-128.3
			C1484,3122.6,1578.2,3110.8,1578.2,3110.8z" class="color1a1a1a svgShape colorStroke1a1a1a svgStroke"></path><path fill="#ffffff" stroke="#1a1a1a" stroke-linecap="round" stroke-linejoin="round" stroke-miterlimit="10" stroke-width="2" d="M1323,1851.2c0,0,123-33.4,285.7-51.1c3.4-0.4,6.8-0.7,10.2-1.1c22.2,32.5,7,1184.1-1.8,1342.9
			c-48.7,14.2-147.4-5.6-168.5-7.8c3.7,0.4-48.3-799.8-48.8-806.5c-4.2-53.8-14.8-107.1-29.4-159c-6.1-21.8-12.5-43.7-22-64.3
			c-9.7-21.2-24.4-39-29.2-62.3" class="colorffffff svgShape colorStroke1a1a1a svgStroke"></path><path fill="#021b79" stroke="#1a1a1a" stroke-linecap="round" stroke-linejoin="round" stroke-miterlimit="10" stroke-width="2" d="M1627.3,1834.4c-32.3,11.2-143,44.3-257.4,68.8c-108.6,23.3-177.6-5.8-201.5-19.8c1-7.4,3.9-16.2,5.2-21.6
			c10.1-8.6,25.9-16.3,34.3-22.9c4.2-3.3,7.1-5.5,7.8-5.7c0.8-0.1,23.9-2.7,58.6-6.4c104.1-11.3,321.1-36.5,346.2-39.2
			C1621.9,1795.6,1627.3,1812.6,1627.3,1834.4z" class="color1a1a1a svgShape colorStroke1a1a1a svgStroke"></path><path fill="#ffffff" stroke="#1a1a1a" stroke-linecap="round" stroke-linejoin="round" stroke-miterlimit="10" stroke-width="2" d="M1256.5,1041.6c0,0,23.8-46.3,36.7-52.1c12.9-5.8,130.4-1.3,144.6,17c18.6,64.6,18.6,64.6,18.6,64.6
			L1256.5,1041.6z" class="colorffffff svgShape colorStroke1a1a1a svgStroke"></path><path fill="#0575e6" stroke="#1a1a1a" stroke-linecap="round" stroke-linejoin="round" stroke-miterlimit="10" stroke-width="2" d="M1312.2,1007.2c0,0-121.4,2.9-136.9,118.6c-15.4,115.7,61,308.9,17.6,524.8
			c-43.4,216.9-43.4,216.9-43.4,216.9s109.9,36.6,226.5,20.2c116.6-16.4,258.3-76.2,258.3-76.2s-39.8-559.5-67.2-603.4
			c-27.5-43.9-92.7-173.8-160.8-185.9C1381.2,1017.9,1312.2,1007.2,1312.2,1007.2z" class="color5067ef svgShape colorStroke1a1a1a svgStroke"></path><path fill="#0575e6" stroke="#1a1a1a" stroke-linecap="round" stroke-linejoin="round" stroke-miterlimit="10" stroke-width="2" d="M1496.5 1651.6c0 2.4 20.3 122 26.6 128.8 6.3 6.7 76.7-26.5 81.9-39.5 5.2-13-8.3-127.8-8.3-127.8L1496.5 1651.6zM1435.8 1034.4c0 0 124 98.6 194.9 123.2s78.1 28.9 78.1 28.9l157.6-132.1c0 0 53.3 64.3 54 74.5.6 10.3-154.2 224.3-186.3 233.3-32.1 9-307.8-90.6-366.2-167.7" class="color5067ef svgShape colorStroke1a1a1a svgStroke"></path><path fill="#ffffff" stroke="#1a1a1a" stroke-linecap="round" stroke-linejoin="round" stroke-miterlimit="10" stroke-width="2" d="M2023.9,983.9c-4.1,9.2-3.7,14.5-5.8,15.2c-3.3-21.6-6.4-45.3-8.1-64.2c-3.9-43.1-14.1-41.8-24.7-41.4
			c-10.6,0.3-22.2,15.1-28.3,56.2c-6.1,41.1,0.8,101.1,24.4,129.5c4.5,5.4,7.8,10.2,10.2,14.3c10.1,17.6,3.7,24.1,3.7,24.1
			c0.3,2.5,0.9,4.8,1.6,6.7c1.9,0.4,4.1,0.9,6.7,1.5c20.3-0.5,29.4-14.7,33.4-27.9v0c0,0-2.1-14.2-4.8-26.9c-0.5-2.2-1-4.4-1.4-6.4
			c1.7-3.3,2.9-7.7,2.6-12.9c-0.9-13,2-35.3,3.5-51.8C2038.8,980.2,2036.9,955,2023.9,983.9z" class="colorffffff svgShape colorStroke1a1a1a svgStroke"></path><path fill="#ffffff" stroke="#1a1a1a" stroke-linecap="round" stroke-linejoin="round" stroke-miterlimit="10" stroke-width="2" d="M1891.7,1041c0.6-1.6,15.7-10,9-51.1c-6.7-41.1-7.3-89.7-2.5-90
			c4.7-0.3,11.5,23.8,11.5,23.8s3.9-80.7,16.7-82.6c12.9-1.9,56.2,8.4,51.4,102.2c-4.8,93.8-17.3,104.1-25.1,114.1
			c-7.7,10-26,22.5-26,23.5C1926.7,1081.8,1891.7,1041,1891.7,1041z" class="colorffffff svgShape colorStroke1a1a1a svgStroke"></path><path fill="#ffffff" stroke="#1a1a1a" stroke-linecap="round" stroke-linejoin="round" stroke-miterlimit="10" stroke-width="2" d="M1850.9,1049.3c3.2,2.6,82.9,111.8,82.9,111.8s19.3-48.2,8.4-74.5
			s-53.3-61.7-53.3-61.7L1850.9,1049.3z" class="colorffffff svgShape colorStroke1a1a1a svgStroke"></path><path fill="#021b79" stroke="#1a1a1a" stroke-linecap="round" stroke-linejoin="round" stroke-miterlimit="10" stroke-width="2" d="M1279.8,897.4c2.7,0.6,4.8,35.6,32.9,22.9c28.1-12.7,65.2-16,65.2-31.1
			c0-15.1-39.2-58-24.2-70.7c15.1-12.7,36.5-3.9,41.1,8.2c4.5,12.1,15.7-7.9,15.7-7.9s-19.9-19,0-31.1s94.6-65.4,94.6-88.9
			c-18.6-22.2-46-22.2-78.6-24c-32.6-1.8-159.7,26.9-168.8,97.2C1248.7,842.5,1279.8,897.4,1279.8,897.4z" class="color1a1a1a svgShape colorStroke1a1a1a svgStroke"></path><path fill="#0575e6" stroke="#1a1a1a" stroke-linecap="round" stroke-linejoin="round" stroke-miterlimit="10" stroke-width="2" d="M1496.5,1651.6l103.1-51.1c0,0,13,28.7,8.7,38.6c-4.3,9.9-74.5,49.1-83.8,46.3
			C1515.1,1682.5,1496.5,1651.6,1496.5,1651.6z" class="color5067ef svgShape colorStroke1a1a1a svgStroke"></path><path fill="#ffffff" stroke="#1a1a1a" stroke-linecap="round" stroke-linejoin="round" stroke-miterlimit="10" stroke-width="2" d="M1565.9,1879.6c0,0,34.7,75.2-23.1,116.4" class="colorffffff svgShape colorStroke1a1a1a svgStroke"></path><path fill="#021b79" stroke="#1a1a1a" stroke-linecap="round" stroke-linejoin="round" stroke-miterlimit="10" stroke-width="2" d="M2319.3,926.6c0,0,19.9,55.9,97,28.9c2.2,48.1,26.2,88.7,55.9,99.6
			c23.7,8.7,12.8,115.7,29.5,122.8c5-2.6,56.4,7.7,59.5,0c22.2-54-44.5-232.6-65.4-264.1c-23.8-36-64.8,0-74.4,0
			c-7,0-37.1-22-64.4-18.3C2346.8,896.9,2319.3,926.6,2319.3,926.6z" class="color1a1a1a svgShape colorStroke1a1a1a svgStroke"></path><path fill="#ffffff" stroke="#1a1a1a" stroke-linecap="round" stroke-linejoin="round" stroke-miterlimit="10" stroke-width="2" d="M1058.2,1959.4c0.9,0.6,2.8,10.8,28,5.5c25.2-5.3,58-4,61.7-12.2c6.4-14.4,8.8-40.3-3.7-44.2
			c-18.8-5.8-58.8,15.2-71.3,18C1052.1,1931.3,1058.2,1959.4,1058.2,1959.4z" class="colorffffff svgShape colorStroke1a1a1a svgStroke"></path><path fill="#021b79" stroke="#1a1a1a" stroke-linecap="round" stroke-linejoin="round" stroke-miterlimit="10" stroke-width="2" d="M937.5,2016.4c-0.5,4.3-8.4,257.6-8.4,257.6s50.4,12,49,11.6
			c-1.4-0.3-20.4-272.1-20.4-272.1L937.5,2016.4z" class="color1a1a1a svgShape colorStroke1a1a1a svgStroke"></path></g><path fill="#0575e6" stroke="#1a1a1a" stroke-linecap="round" stroke-linejoin="round" stroke-miterlimit="10" stroke-width="2" d="M2381.2,1184.9c0,0-69.1,35.6-65.8,34.3c3.4-1.2,20.1,61.3,20.1,61.3h15.4l-6.2,47.5
		c0,0,54.1,100.4,54.7,120.9C2404,1386,2396.6,1203.4,2381.2,1184.9z" class="color5067ef svgShape colorStroke1a1a1a svgStroke"></path><g fill="#000000" class="color000000 svgShape"><path fill="#021b79" stroke="#1a1a1a" stroke-linecap="round" stroke-linejoin="round" stroke-miterlimit="10" stroke-width="2" d="M3009.7,1946.4c-8.8-69.9-16.3-129.1,16.3-155.1c2-1.6,22-17,45.9-11.2
			c24.1,5.8,35.1,29,36.7,32.7c-12-73.6,2.9-129.9,31.6-139.8c12.5-4.3,31.8-1.4,45.9,10.2c20.5,16.8,19.6,43.6,19.4,46.9
			c3.1-19.9,16.9-96.2,71.4-122.5c10.8-5.2,31.6-15.2,48-5.1c18.8,11.5,17.5,40.6,17.3,42.9c27.1-49,68-72.8,95.9-63.3
			c12.6,4.3,23.8,15.9,27.6,29.6c6.6,24.4-10.4,55.5-44.9,72.5c20.1-1.1,38.4,6.9,46.9,21.4c13.9,23.6-5.1,51.7-8.2,56.1
			c-19.1,28.2-60.4,39.7-105.1,31.6c36.6,29.2,53.8,64.6,43.9,88.8c-6.4,15.7-22.7,22.9-40.8,30.6c-18.5,7.9-55.9,20.2-109.2,12.2
			c32.7,17.3,54.8,41.7,52,63.3c-3.6,28.9-50.3,41.5-85.7,51c-25.9,7-142.8,38.5-187.8-19.4
			C3017.4,2007.5,3014.9,1987.1,3009.7,1946.4z" class="color1a1a1a svgShape colorStroke1a1a1a svgStroke"></path><path fill="none" stroke="#ffffff" stroke-linecap="round" stroke-linejoin="round" stroke-miterlimit="10" stroke-width="3" d="M2920.8 2047.8c25.3 14.5 57.6 9.6 84.3-2.2 50.1-22.1 87.9-65 119.2-109.9 31.4-44.9 58.3-93.2 95.4-133.5 35-38.2 78.1-68 116.2-103 28.8-26.5 54.8-55.9 77.4-87.8M3063 1853.8c29.6 46.4 39 99.3 8.9 145.3M3099.6 1969.4c38.3-19.5 114.5 13.8 154 8M3159 1883.7c16.5-48.4 5-93.6 8.3-135M3290.1 1655.2c-3.4 37.3-13.1 74-28.5 108.1M3305.6 1725.9c35.2-13 74.9-13.9 110.6-2.3M3187.7 1841.7c39.4-19.7 85.7-21.9 126.8-6.1" class="colorStrokeffffff svgStroke"></path></g><g fill="#000000" class="color000000 svgShape"><path fill="#8ec1f4" stroke="#1a1a1a" stroke-linecap="round" stroke-linejoin="round" stroke-miterlimit="10" d="M3076,2134.6c77.4,62.7,89.1,99.9,124,100.6c21.7,0.4,47.4-13.5,53.9-35.5c8-27.2-17.4-52.8-18.6-54
			c75.6,53.9,146.6,65.1,171.1,38.5c11.6-12.6,19.1-40.5,9.8-65.7c-7.2-19.6-22-30.5-28.5-34.7c85.5,16.1,151,7.3,162-21.1
			c4.3-11.2,3.2-33.2-10-49.3c-10.8-13.1-25.4-17.1-31.4-18.4c54.7-3.9,89-38.5,87.1-67.4c-1.1-18-16.3-34.8-33.5-41.9
			c-24-10-53.6-2.1-72.3,20.6c1.1-2.4,17-39.1,0.2-59c-18.3-21.7-63.4-9.2-88.3,10.3c-24.8,19.4-31.6,47.2-33.6,57.1
			c1-4.1,10-43.8-11.7-63.3c-29.7-26.8-88.2,10.4-91.9,12.8c-52.9,34.5-59.8,101-60.9,114.4c-11.4-40.5-39.7-67.9-67.7-68.2
			c-35.1-0.4-56.8,41.6-68.7,64.5c-28.8,55.8-20.8,113.2-14.2,141.9C3058.1,2120.6,3066.2,2126.7,3076,2134.6z" class="color8e9df4 svgShape colorStroke1a1a1a svgStroke"></path><path fill="none" stroke="#1a1a1a" stroke-linecap="round" stroke-linejoin="round" stroke-miterlimit="10" stroke-width="2" d="M3542.6,1930.5c-50.7,14.8-99.6,35.9-145.1,62.9c-65.5,38.8-125.7,90.2-199.5,108.8
			c-22.5,5.7-45.6,8.1-68.7,10.5c-26.3,2.8-53.1,5.5-79.1,0.2c-24.1-4.9-46.4-16.7-65.6-32" class="colorStroke1a1a1a svgStroke"></path><path fill="none" stroke="#1a1a1a" stroke-linecap="round" stroke-linejoin="round" stroke-miterlimit="10" stroke-width="2" d="M3113.1 2115.2c3.3-1.8 5.7-4.8 7.7-7.9 11.9-18.4 13.3-41.7 12.8-63.6-.5-22-2.4-44.5 4.1-65.5M3298.8 2057.1c17.5-19.3 20.3-47.5 21-73.5.7-26 .6-53.6 14-76M3376.5 2007.1c11-8.9 27.5-7.3 40.3-1.3 12.8 6 23.6 15.7 35.8 22.9 12.2 7.2 27.5 11.6 40.5 6.1M3428.7 1976.6c3.9-1.9 7.9-3.8 11-6.8 4.6-4.5 6.9-10.9 8.4-17.2 3.2-13 4.3-26.3 7.2-39.4 2.9-13 7.8-26.1 17.3-35.5M3227.3 2093.7c10.4-1.8 21-3.6 31.5-2.7 20.2 1.7 38.2 12.7 55.7 22.8 17.6 10.1 36.9 19.7 57 17.9M3202 2168.8c-1.3-14.5-7.7-28.4-17.7-38.9-10-10.5-23.6-17.6-38-19.6" class="colorStroke1a1a1a svgStroke"></path></g><g fill="#000000" class="color000000 svgShape"><path fill="#021b79" stroke="#1a1a1a" stroke-linecap="round" stroke-linejoin="round" stroke-miterlimit="10" stroke-width="2" d="M3040.3,2044.2c12.9-54,28.8-68.9,20.7-86.6c-5-11-18.2-20.6-30.8-18.6
			c-15.6,2.5-22.3,21.4-22.7,22.4c8.9-51-2.6-89.4-21.8-95.3c-9.1-2.8-25,0.1-35.4,10.9c-8.1,8.4-10,18.4-10.6,22.7
			c-12.5-46.9-32.7-77.7-49.6-76.4c-6.6,0.5-17.5,6.4-22.4,16.9c-4,8.6-2.5,16.9-1.7,20.2c-15.1-26.6-40.8-35.5-54.9-27.6
			c-8.8,4.9-13.5,16.6-13,26.9c0.7,14.5,11.8,27.4,27.7,31.4c-1.5,0-23.8,0.9-29.7,14.1c-6.5,14.4,10.6,34.1,26.4,41.9
			c15.7,7.8,31.3,4.6,36.8,3.1c-2.3,0.5-24.4,5.5-29,21.1c-6.3,21.4,26.5,41.9,28.6,43.2c30.1,18.3,65.1,5.7,72.2,3.1
			c-17.6,15.5-24.6,36.3-18,50.5c8.2,17.7,34.6,18.6,48.9,19c35,1.1,61.9-16.8,74.7-27C3037.5,2056.6,3038.6,2051,3040.3,2044.2z" class="color1a1a1a svgShape colorStroke1a1a1a svgStroke"></path><path fill="none" stroke="#ffffff" stroke-linecap="round" stroke-linejoin="round" stroke-miterlimit="10" stroke-width="2" d="M2825.3 1858.7c19.6 22 42.1 41.4 66.5 57.8 35.3 23.6 75.6 41.5 102.8 74.1 8.3 9.9 15.1 21 21.8 32 7.7 12.6 15.6 25.4 19.1 39.7 3.3 13.3 2.8 27.4-.3 40.7M3021.6 2031.2c-1.7-1.2-34.7-10.1-65.7 26.1" class="colorStrokeffffff svgStroke"></path><path fill="none" stroke="#ffffff" stroke-linecap="round" stroke-linejoin="round" stroke-miterlimit="10" stroke-width="2" d="M2947.6 1950.8c-13.9-4.2-28.8 1.2-42 7.1-13.3 5.9-27.1 12.6-41.6 11.2M2903.8 1923.8c-7.1-3.4-10.3-12-10.4-20-.1-7.9 2.2-15.6 2.9-23.5.6-7.9-.8-16.6-6.7-21.8M2875.9 1904.9c-1.9-1.5-3.8-3-6.1-3.9-3.4-1.2-7.1-.8-10.7-.1-7.3 1.5-14.3 4.2-21.5 5.9-7.2 1.7-15 2.4-22-.2M2983.3 1978c-3.4-4.8-6.8-9.7-8.9-15.2-4-10.6-2.8-22.3-2-33.5.8-11.3 1-23.3-4.7-33M3027.1 1972.6c-6.9 4.2-12.4 10.7-15.3 18.3-2.9 7.6-2.3 16.8.2 24.6" class="colorStrokeffffff svgStroke"></path></g><g fill="#000000" class="color000000 svgShape"><path fill="#ffffff" stroke="#1a1a1a" stroke-linecap="round" stroke-linejoin="round" stroke-miterlimit="10" stroke-width="2" d="M2965.5,2043c-76.1-30.7-94.4-57.2-122-49.3c-17.2,4.9-34.1,22.1-33.9,41
			c0.2,23.4,26.4,37.4,27.7,38c-72.6-24.2-131.2-15.8-144.1,11c-6.1,12.7-5.3,36.5,8.1,54.1c10.4,13.7,24.7,18.7,30.8,20.5
			c-71.2,7.9-120.7,30.7-122.5,55.8c-0.7,9.8,5.5,26.9,19.8,36.4c11.6,7.7,24.1,7.3,29.2,6.9c-42.2,16.3-60.8,51.8-52.3,74.2
			c5.2,13.9,21.2,23.4,36.5,24.9c21.3,2.1,42.7-11.3,51.9-33.7c-0.3,2.2-3.9,34.9,14.1,46.5c19.6,12.6,52.1-8.1,67.1-29.4
			c14.9-21.3,13.5-44.8,12.7-53.1c0.2,3.5,2.7,36.9,24.5,47c29.9,13.9,67-29.5,69.3-32.3c33.4-40,22.7-94,20.3-104.8
			c18.8,29.1,47.6,43.9,69.8,37.4c27.7-8.1,34.7-46.5,38.5-67.4c9.3-50.9-11-94.2-23.1-115.2C2983,2049.7,2975.1,2046.8,2965.5,2043
			z" class="colorffffff svgShape colorStroke1a1a1a svgStroke"></path><path fill="none" stroke="#1a1a1a" stroke-linecap="round" stroke-linejoin="round" stroke-miterlimit="10" stroke-width="2" d="M2647.2 2316.5c36.4-23.9 69.8-52.4 99.1-84.6 42.2-46.4 77.3-101.5 130.9-134 16.3-9.9 34-17.4 51.6-24.9 20.1-8.5 40.5-17.2 62.2-19.3 20.1-1.9 40.6 1.9 59.4 9.4M2942.4 2067.4c-2.1 2.2-22.3 48.5 23.7 101.8" class="colorStroke1a1a1a svgStroke"></path><path fill="none" stroke="#1a1a1a" stroke-linecap="round" stroke-linejoin="round" stroke-miterlimit="10" stroke-width="2" d="M2808.7 2157.9c-9.1 19.4-4.6 42.3 1.2 63 5.7 20.7 12.5 42.4 7.3 63.2M2759.5 2216.1c-6.6 9.7-19.9 12.4-31.4 10.8-11.6-1.6-22.4-6.7-33.7-9.4-11.4-2.7-24.5-2.5-33.4 5M2725.8 2252.7c-2.6 2.4-5.3 4.9-7 8-2.6 4.7-2.8 10.3-2.5 15.6.6 11 3 21.8 3.9 32.8.9 11 .1 22.5-5.1 32.1M2856.2 2111.8c-7.8 3.9-15.7 7.9-24.2 9.7-16.3 3.6-33.1-.8-49.4-4.5-16.3-3.7-33.8-6.6-49.3-.3M2857.9 2046.5c4.5 11.1 12.9 20.5 23.3 26.4 10.4 5.9 24.1 7 35.9 5.2" class="colorStroke1a1a1a svgStroke"></path></g><g fill="#000000" class="color000000 svgShape"><path fill="#ffffff" stroke="#1a1a1a" stroke-linecap="round" stroke-linejoin="round" stroke-miterlimit="10" stroke-width="2" d="M3041.4,2103.8c68.3-15.3,94-5.5,109.5-24.5c9.7-11.8,13.2-32,3.9-45.2
			c-11.5-16.3-36.7-13.4-37.9-13.3c62.7-18.2,99.8-52.5,95.9-77.5c-1.9-11.9-14-28.2-31.9-34.1c-14-4.6-26.4-1.2-31.5,0.6
			c46.2-40.1,69.9-80.1,59-98.5c-4.3-7.2-16.9-16.3-31.5-16c-11.9,0.2-20.5,6.5-23.8,9.3c21.7-31.9,17.6-65.9,0.8-77.5
			c-10.4-7.2-26.3-6.2-37.7,0.2c-16,8.8-24.5,28.6-20.2,48.8c-0.9-1.6-14.1-26.4-32.4-25.9c-19.9,0.6-32.7,30.9-32.9,53.2
			c-0.2,22.1,12.2,38,16.8,43.5c-1.8-2.3-19.8-24.6-40-21.2c-27.7,4.7-32.8,53.2-33.1,56.3c-4.1,44.2,29.6,77,36.5,83.5
			c-27.3-11.4-54.7-7.7-67.1,7.6c-15.5,19.2-1.9,49.5,5.6,66c18.1,40.2,41.7,62.3,60.4,71.2
			C3014.2,2109.1,3032.8,2105.7,3041.4,2103.8z" class="colorffffff svgShape colorStroke1a1a1a svgStroke"></path><path fill="none" stroke="#1a1a1a" stroke-linecap="round" stroke-linejoin="round" stroke-miterlimit="10" stroke-width="2" d="M3132.5,1757.4c-14,34.4-23.7,70.6-28.7,107.4c-7.2,53-5.1,108.7-27.1,157.5c-6.7,14.9-15.4,28.7-24.2,42.5
			c-10,15.7-27.6,34.9-41.9,46.9" class="colorStroke1a1a1a svgStroke"></path><path fill="none" stroke="#1a1a1a" stroke-linecap="round" stroke-linejoin="round" stroke-miterlimit="10" stroke-width="2" d="M3046.8 2074.9c.4-2.6-.2-5.2-1-7.7-5-14.6-17.1-25.5-29.5-34.8-12.3-9.3-25.6-18.1-34.3-30.8M3095.9 1947.1c-3-18.1-17.3-31.9-31.3-43.7-14-11.8-29.3-23.7-35.7-40.9M3102.2 1882.4c-.1-10 7.9-18.4 16.9-22.8 8.9-4.5 19-6.1 28.2-9.8 9.3-3.6 18.4-10.1 21-19.7M3108.1 1840.4c.7-3 1.3-6 1-9-.5-4.5-3-8.5-5.8-12.1-5.7-7.4-12.6-13.9-18.6-21.1-5.9-7.3-11-15.7-12-25M3084.9 2002.5c3.6-6.5 7.2-13.1 12.3-18.5 9.7-10.4 23.7-15.5 36.9-20.8s26.9-11.8 34.7-23.7M3115.2 2049.2c-8.6-5.6-19-8.2-29.2-7.2-10.2.9-20 5.4-27.4 12.4" class="colorStroke1a1a1a svgStroke"></path></g><g fill="#000000" class="color000000 svgShape"><g fill="#000000" class="color000000 svgShape"><path fill="#ffffff" d="M856.9,1483l-206.5,144.6c0.7-2,44.8-128.6,80.6-234.4C782.1,1408.8,826.1,1440.8,856.9,1483z" class="colorffffff svgShape"></path><path fill="#ffffff" d="M650.4,1627.5c0.7-2,44.8-128.6,80.6-234.4c-22.8-7-47.1-10.8-72.2-10.8c-135.4,0-245.2,109.8-245.2,245.2
				c0,106.6,68,197.3,162.9,231.1L650.4,1627.5c0,0,0.4,0.5,1.3,1.3l0-2.1L650.4,1627.5z" class="colorffffff svgShape"></path><path fill="#ffffff" d="M856.9,1483l-205.2,143.7l0,2.1c11.7,11.3,101.2,98.1,177.3,175.3c46.2-44.6,75-107.2,75-176.5
				C904,1573.5,886.5,1523.5,856.9,1483z" class="colorffffff svgShape"></path><path fill="#ffffff" d="M828.9,1804.1c-0.6,0.6-1.2,1.2-1.9,1.8c-43.9,41.5-103.1,66.9-168.3,66.9c-28.9,0-56.6-5-82.3-14.2
				l73.9-231.1C650.4,1627.5,747.4,1721.4,828.9,1804.1z" class="colorffffff svgShape"></path></g><g fill="#000000" class="color000000 svgShape"><path fill="#021b79" stroke="#1a1a1a" stroke-linecap="round" stroke-linejoin="round" stroke-miterlimit="10" stroke-width="2" d="M856.9,1483l-206.5,144.6c0.7-2,44.8-128.6,80.6-234.4
				C782.1,1408.8,826.1,1440.8,856.9,1483z" class="color1a1a1a svgShape colorStroke1a1a1a svgStroke"></path><path fill="#ffffff" stroke="#ffffff" stroke-linecap="round" stroke-linejoin="round" stroke-miterlimit="10" stroke-width="2" d="M650.4,1627.5c0.7-2,44.8-128.6,80.6-234.4c-22.8-7-47.1-10.8-72.2-10.8c-135.4,0-245.2,109.8-245.2,245.2
				c0,106.6,68,197.3,162.9,231.1L650.4,1627.5c0,0,0.4,0.5,1.3,1.3l0-2.1L650.4,1627.5z" class="colorffffff svgShape colorStrokeffffff svgStroke"></path><path fill="#0575e6" stroke="#1a1a1a" stroke-linecap="round" stroke-linejoin="round" stroke-miterlimit="10" stroke-width="2" d="M856.9,1483l-205.2,143.7l0,2.1c11.7,11.3,101.2,98.1,177.3,175.3
				c46.2-44.6,75-107.2,75-176.5C904,1573.5,886.5,1523.5,856.9,1483z" class="color5067ef svgShape colorStroke1a1a1a svgStroke"></path><path fill="#ffffff" stroke="#ffffff" stroke-linecap="round" stroke-linejoin="round" stroke-miterlimit="10" stroke-width="2" d="M828.9,1804.1c-0.6,0.6-1.2,1.2-1.9,1.8c-43.9,41.5-103.1,66.9-168.3,66.9c-28.9,0-56.6-5-82.3-14.2
				l73.9-231.1C650.4,1627.5,747.4,1721.4,828.9,1804.1z" class="colorffffff svgShape colorStrokeffffff svgStroke"></path></g><g fill="#000000" class="color000000 svgShape"><path fill="none" stroke="#1a1a1a" stroke-linecap="round" stroke-linejoin="round" stroke-miterlimit="10" stroke-width="2" d="M856.9,1483l-206.5,144.6c0.7-2,44.8-128.6,80.6-234.4C782.1,1408.8,826.1,1440.8,856.9,1483z" class="colorStroke1a1a1a svgStroke"></path><path fill="none" stroke="#1a1a1a" stroke-linecap="round" stroke-linejoin="round" stroke-miterlimit="10" stroke-width="2" d="M650.4,1627.5c0.7-2,44.8-128.6,80.6-234.4c-22.8-7-47.1-10.8-72.2-10.8c-135.4,0-245.2,109.8-245.2,245.2
				c0,106.6,68,197.3,162.9,231.1L650.4,1627.5c0,0,0.4,0.5,1.3,1.3l0-2.1L650.4,1627.5z" class="colorStroke1a1a1a svgStroke"></path><path fill="none" stroke="#1a1a1a" stroke-linecap="round" stroke-linejoin="round" stroke-miterlimit="10" stroke-width="2" d="M856.9,1483l-205.2,143.7l0,2.1c11.7,11.3,101.2,98.1,177.3,175.3c46.2-44.6,75-107.2,75-176.5
				C904,1573.5,886.5,1523.5,856.9,1483z" class="colorStroke1a1a1a svgStroke"></path><path fill="none" stroke="#1a1a1a" stroke-linecap="round" stroke-linejoin="round" stroke-miterlimit="10" stroke-width="2" d="M828.9,1804.1c-0.6,0.6-1.2,1.2-1.9,1.8c-43.9,41.5-103.1,66.9-168.3,66.9c-28.9,0-56.6-5-82.3-14.2
				l73.9-231.1C650.4,1627.5,747.4,1721.4,828.9,1804.1z" class="colorStroke1a1a1a svgStroke"></path></g></g><g fill="#000000" class="color000000 svgShape"><path fill="#ffffff" stroke="#1a1a1a" stroke-linecap="round" stroke-linejoin="round" stroke-miterlimit="10" stroke-width="2" d="M3100.4,1346.9c-8.2,13.2-16.5,26.3-25,39.3c-4.4,6.6-9.3,13.1-13.4,19.9c-4.2,6.9-9,13.5-15,14.8
			c-6-1.3-10.8-7.9-15-14.8c-4.1-6.8-9-13.3-13.4-19.9c-8.5-13-16.9-26.1-25-39.3c-31.1-50.3-71.8-108.6-69.1-170.4
			c1.1-26.2,8.3-53.6,24.1-75c22.9-31,61.5-41,98.4-41.8c36.8,0.7,75.5,10.8,98.4,41.8c15.8,21.3,23,48.8,24.1,75
			C3172.2,1238.3,3131.4,1296.6,3100.4,1346.9z" class="colorffffff svgShape colorStroke1a1a1a svgStroke"></path><circle cx="3049.4" cy="1162.1" r="59.6" fill="#021b79" stroke="#1a1a1a" stroke-linecap="round" stroke-linejoin="round" stroke-miterlimit="10" stroke-width="2" transform="translate(-2.486 6.546)" class="color1a1a1a svgShape colorStroke1a1a1a svgStroke"></circle></g><g fill="#000000" class="color000000 svgShape"><path fill="#ffffff" stroke="#1a1a1a" stroke-linecap="round" stroke-linejoin="round" stroke-miterlimit="10" stroke-width="2" d="M1161.6,830.7l-19.8-43.2c2.7-3.8,4.3-8.5,4.3-13.5V619c0-13-10.5-23.5-23.5-23.5
			H829.1c-13,0-23.5,10.5-23.5,23.5v155c0,13,10.5,23.5,23.5,23.5h261.3c19.8,15.6,41.2,31.8,57.6,44.1
			C1155.5,847.2,1165.4,839.1,1161.6,830.7z" class="colorffffff svgShape colorStroke1a1a1a svgStroke"></path><g fill="#000000" class="color000000 svgShape"><circle cx="865.8" cy="692.7" r="9" fill="#ffffff" stroke="#1a1a1a" stroke-linecap="round" stroke-linejoin="round" stroke-miterlimit="10" stroke-width="2" class="colorffffff svgShape colorStroke1a1a1a svgStroke"></circle><path fill="#ffffff" stroke="#1a1a1a" stroke-linecap="round" stroke-linejoin="round" stroke-miterlimit="10" stroke-width="2" d="M979.3,692.7c0-5-4-9-9-9c-5,0-9,4-9,9c0,5,4,9,9,9C975.3,701.7,979.3,697.7,979.3,692.7z" class="colorffffff svgShape colorStroke1a1a1a svgStroke"></path><circle cx="1074.8" cy="692.7" r="9" fill="#ffffff" stroke="#1a1a1a" stroke-linecap="round" stroke-linejoin="round" stroke-miterlimit="10" stroke-width="2" class="colorffffff svgShape colorStroke1a1a1a svgStroke"></circle></g></g><path fill="#ffffff" stroke="#1a1a1a" stroke-linecap="round" stroke-linejoin="round" stroke-miterlimit="10" stroke-width="2" d="M2948.7,2438.2v863.1c38.2,31.7,166.5,31.7,203.5,0v-863.1H2948.7z" class="colorffffff svgShape colorStroke1a1a1a svgStroke"></path><rect width="275.8" height="21.5" x="2909.5" y="2430.2" fill="#021b79" stroke="#1a1a1a" stroke-linecap="round" stroke-linejoin="round" stroke-miterlimit="10" stroke-width="2" class="color1a1a1a svgShape colorStroke1a1a1a svgStroke"></rect><rect width="275.8" height="21.5" x="2909.5" y="2585.4" fill="#021b79" stroke="#1a1a1a" stroke-linecap="round" stroke-linejoin="round" stroke-miterlimit="10" stroke-width="2" class="color1a1a1a svgShape colorStroke1a1a1a svgStroke"></rect></g></svg>