<svg xmlns="http://www.w3.org/2000/svg" enable-background="new 0 0 3000 3000" viewBox="0 0 3000 3000" id="Businessmanrunonmilestonelocationpinonbusinessroadmap"><path fill="#021b79" d="M791.67,2329.83c-236.54,0-506.14-17.95-766.67-51.27l1.12-8.78c503.11,64.34,1166.19,86.03,1518.39-46.02
			c55.82-22.31,99.19-66.91,118.9-122.31c19.08-53.64,14.31-110.68-13.43-160.63l-138.55-249.43l12.76-113.37l2.21-1.06
			c274.04-131.68,608.28-215.98,1051.86-265.31l395.8-41.73l0.93,8.8l-395.77,41.73c-441.35,49.08-774.07,132.8-1046.78,263.43
			l-11.9,105.69l137.17,246.96c28.99,52.2,33.97,111.82,14.03,167.89c-20.56,57.8-65.78,104.31-124.04,127.6
			c-161.47,60.54-395.24,93.31-694.9,97.41C832.71,2329.69,812.31,2329.83,791.67,2329.83z" class="color37424c svgShape"></path><path fill="#021b79" d="M395.39,2296.46c0,10.74-29.44,19.44-65.75,19.44s-65.75-8.7-65.75-19.44s29.44-19.44,65.75-19.44
				S395.39,2285.72,395.39,2296.46z" class="color37424c svgShape"></path><path fill="#fdfeff" d="M387.17,2296.46c0,9.39-25.76,17.01-57.53,17.01s-57.53-7.62-57.53-17.01c0-9.4,25.76-17.01,57.53-17.01
						S387.17,2287.06,387.17,2296.46z" class="colorfffdfd svgShape"></path><path fill="#0575e6" d="M329.64,2296.46l110.16-190.8c48.96-84.8-12.24-190.8-110.16-190.8l0,0c-97.92,0-159.12,106-110.16,190.8
				L329.64,2296.46z" class="color2a90cb svgShape"></path><circle cx="329.64" cy="2037.67" r="71.25" fill="#ffffff" class="colorffffff svgShape"></circle><path fill="#021b79" d="M934.67,2323.44c0,10.74-29.44,19.44-65.75,19.44s-65.75-8.7-65.75-19.44s29.44-19.44,65.75-19.44
				C905.23,2303.99,934.67,2312.7,934.67,2323.44z" class="color37424c svgShape"></path><ellipse cx="868.92" cy="2323.44" fill="#fdfeff" rx="57.53" ry="17.01" class="colorfffdfd svgShape"></ellipse><path fill="#0575e6" d="M868.92,2323.44l110.16-190.8c48.96-84.8-12.24-190.8-110.16-190.8l0,0c-97.92,0-159.12,106-110.16,190.8
				L868.92,2323.44z" class="color2a90cb svgShape"></path><circle cx="868.92" cy="2064.65" r="71.25" fill="#ffffff" class="colorffffff svgShape"></circle><g fill="#000000" class="color000000 svgShape"><ellipse cx="1422.75" cy="2259.5" fill="#021b79" rx="65.75" ry="19.44" class="color37424c svgShape"></ellipse><ellipse cx="1422.75" cy="2259.5" fill="#fdfeff" rx="57.53" ry="17.01" class="colorfffdfd svgShape"></ellipse><g fill="#000000" class="color000000 svgShape"><path fill="#0575e6" d="M1422.75,2259.5l110.16-190.8c48.96-84.8-12.24-190.8-110.16-190.8l0,0c-97.92,0-159.12,106-110.16,190.8
				L1422.75,2259.5z" class="color2a90cb svgShape"></path><circle cx="1422.64" cy="2000.71" r="71.25" fill="#ffffff" class="colorffffff svgShape"></circle></g></g><g fill="#000000" class="color000000 svgShape"><path fill="#021b79" d="M1600.25,1727.77c0,10.04-27.53,18.18-61.49,18.18s-61.49-8.14-61.49-18.18s27.53-18.18,61.49-18.18
				S1600.25,1717.73,1600.25,1727.77z" class="color37424c svgShape"></path><path fill="#fdfeff" d="M1592.56,1727.77c0,8.79-24.09,15.91-53.8,15.91c-29.72,0-53.8-7.12-53.8-15.91s24.09-15.91,53.8-15.91
						C1568.48,1711.86,1592.56,1718.98,1592.56,1727.77z" class="colorfffdfd svgShape"></path><g fill="#000000" class="color000000 svgShape"><path fill="#0575e6" d="M1538.76,1727.77l103.02-178.44c45.79-79.31-11.45-178.44-103.02-178.44l0,0
				c-91.58,0-148.81,99.13-103.02,178.44L1538.76,1727.77z" class="color2a90cb svgShape"></path><circle cx="1538.84" cy="1485.77" r="66.63" fill="#ffffff" class="colorffffff svgShape"></circle></g></g><g fill="#000000" class="color000000 svgShape"><path fill="#021b79" d="M2084.61,1408.42c0,10.26-28.13,18.58-62.83,18.58c-34.7,0-62.83-8.32-62.83-18.58s28.13-18.58,62.83-18.58
				C2056.48,1389.84,2084.61,1398.16,2084.61,1408.42z" class="color37424c svgShape"></path><path fill="#fdfeff" d="M2076.75,1408.42c0,8.98-24.61,16.25-54.98,16.25c-30.36,0-54.98-7.28-54.98-16.25
						c0-8.98,24.61-16.26,54.98-16.26C2052.14,1392.16,2076.75,1399.44,2076.75,1408.42z" class="colorfffdfd svgShape"></path><g fill="#000000" class="color000000 svgShape"><path fill="#0575e6" d="M2021.78,1408.42l105.27-182.33c46.79-81.04-11.7-182.33-105.27-182.33l0,0
				c-93.57,0-152.05,101.29-105.27,182.33L2021.78,1408.42z" class="color2a90cb svgShape"></path><circle cx="2021.66" cy="1161.17" r="68.09" fill="#ffffff" transform="rotate(-67.549 2021.7 1161.173)" class="colorffffff svgShape"></circle></g></g><g fill="#000000" class="color000000 svgShape"><path fill="#5878ef" d="M2580.35,675.23c0,0,33.25-7.51,62.96,22.86c0,0,11.03,11.96,36,11.11c17.29-0.58,34.46,5.26,46.11,18.04
					c0.18,0.2,0.36,0.39,0.54,0.59c0,0,7.42,8.53,33.14,3.18c0,0-20.15,28.34-43.57,21.15c0,0-13.86-5.71-35.55,14.7
					c0,0-14.11,19.56-51,14.5c0,0-25.65,1.01-50.15,22.21L2580.35,675.23z" class="coloref586a svgShape"></path><rect width="398.4" height="10.76" x="2379.51" y="856.9" fill="#23398a" transform="rotate(-89.861 2578.7 862.28)" class="color8a4323 svgShape"></rect><rect width="11.2" height="24.45" x="2573.57" y="650.53" fill="#172763" transform="rotate(-89.861 2579.165 662.75)" class="color632e17 svgShape"></rect></g><g fill="#000000" class="color000000 svgShape"><path fill="#393939" d="M942.86,1626.69l-4.92,22.32l-7.73-1.95l4.5-20.42l-43.66-11.01l-4.5,20.42l-7.73-1.95l4.92-22.32
							c0.74-3.34,3.97-5.39,7.22-4.57l47.36,11.95C941.56,1619.98,943.6,1623.35,942.86,1626.69z" class="color393939 svgShape"></path><polygon fill="#5faefd" points="882.14 1618.97 889.88 1620.92 886.54 1636.05 878.81 1634.1" class="colorfdeb5f svgShape"></polygon><polygon fill="#5faefd" points="941.27 1633.89 937.94 1649.01 930.21 1647.06 933.54 1631.94" class="colorfdeb5f svgShape"></polygon><path fill="#354686" d="M946.25,1738.41l-112.24-28.31c-2.76-0.69-4.48-3.56-3.86-6.39l8.72-39.54L961.09,1695l-8.72,39.54
							C951.75,1737.37,949.01,1739.1,946.25,1738.41z" class="color865635 svgShape"></path><path fill="#29376d" d="M950.43,1701.38l-104.68-26.41c-4.84-1.22-7.88-6.25-6.78-11.23l8.84-40.1l122.22,30.83l-8.84,40.1
							C960.09,1699.56,955.28,1702.6,950.43,1701.38z" class="color6d4729 svgShape"></path><path fill="#40539c" d="M969.76,1655.73l-7.49,33.99c-1.1,4.98-5.91,8.03-10.76,6.81l-104.68-26.41
							c-4.84-1.22-7.88-6.25-6.78-11.23l7.5-33.99c0.74-3.37,4.01-5.43,7.28-4.61l110.35,27.84
							C968.45,1648.95,970.5,1652.36,969.76,1655.73z" class="color9c6840 svgShape"></path><path fill="#5a6fbf" d="M969.76,1655.73l-0.52,2.36l-122.22-30.83l0.52-2.36c0.74-3.37,4.01-5.43,7.28-4.61l110.35,27.84
						C968.45,1648.95,970.5,1652.36,969.76,1655.73z" class="colorbf8a5a svgShape"></path><path fill="#365ff7" d="M909.39,1682.48l-1.88,8.53c-0.32,1.47-1.74,2.36-3.17,2l-13.85-3.49c-1.43-0.36-2.32-1.83-2-3.31
						l1.88-8.53c0.32-1.46,1.74-2.36,3.17-2l13.85,3.5C908.82,1679.53,909.71,1681.01,909.39,1682.48z" class="colorf7b036 svgShape"></path><path fill="#6bb5ff" d="M909.39,1682.48l-1.45,6.59c-0.32,1.46-1.74,2.37-3.17,2l-13.85-3.49c-1.43-0.36-2.32-1.84-2-3.31
						l1.45-6.59c0.32-1.46,1.74-2.36,3.17-2l13.85,3.5C908.82,1679.53,909.71,1681.01,909.39,1682.48z" class="colorffe66b svgShape"></path><polygon fill="#365ff7" points="939.56 1641.67 931.83 1639.72 932.39 1637.15 940.12 1639.1" class="colorf7b036 svgShape"></polygon><polygon fill="#365ff7" points="888.16 1628.7 880.43 1626.75 881 1624.19 888.73 1626.14" class="colorf7b036 svgShape"></polygon><g fill="#000000" class="color000000 svgShape"><polygon fill="#9ac7f5" points="835.46 1812.89 837.04 1786.33 871.13 1789.1 869.56 1815.66" class="colorf5bf9a svgShape"></polygon><path fill="#333334" d="M841.18,1784.36l-17.43-7.78c-1.46-0.65-2.96-0.87-4.39-0.62l0,0c-3.59,0.61-6.15,4.03-6.45,8.62
				l-3.04,45.77c-0.26,3.92,0.18,8,1.29,11.96l0,0c1.22,4.35,4.88,7.2,8.17,6.36l0,0c1.34-0.34,2.47-1.27,3.22-2.63l20.31-29.3
				c0.48-0.7,0.76-1.61,0.79-2.61l0.71-24.12C844.44,1787.61,843.09,1785.21,841.18,1784.36z" class="color343433 svgShape"></path></g><g fill="#000000" class="color000000 svgShape"><polygon fill="#9ac7f5" points="1345.39 1771.06 1330.6 1793.28 1301.78 1772.54 1316.56 1750.33" class="colorf5bf9a svgShape"></polygon><path fill="#333334" d="M1325.93,1792.76l11.53,16.13c0.97,1.35,2.19,2.35,3.58,2.9l0,0c3.49,1.4,7.48-0.2,10.07-4.02l25.77-38.11
				c2.2-3.26,3.87-7.04,4.88-11.08l0,0c1.11-4.43-0.7-8.87-4.04-9.91l0,0c-1.36-0.43-2.83-0.23-4.18,0.56l-32.77,14.52
				c-0.78,0.35-1.49,0.99-2.02,1.84l-12.79,20.55C1324.68,1788.19,1324.67,1790.99,1325.93,1792.76z" class="color343433 svgShape"></path></g><path fill="#333334" d="M983.48,1648.91l3.44,103.48c0.37,11.12-7.62,20.49-18.32,21.51l-110.67,10.54l-2.26,34.87l144.13,3.79
			c18.08,0.71,34.73-9.46,42.68-26.09l34.23-105.7l115.38,8.35l115.28,87.53l21.02-35.06l-105.29-101.59
			c-7.1-7.36-15.38-13.4-24.44-17.86l-95.05-27.35l0,0l-54.04,18L983.48,1648.91z" class="color343433 svgShape"></path><g fill="#000000" class="color000000 svgShape"><path fill="#9ac7f5" d="M1193.98,1336.96l15.46,9.5l4.9-6.02c0,0,22.88-14.74,5.13-30.22c-6.92-6.03-17.31,0-15.67,9.15
				c0.02,0.13,0.05,0.26,0.07,0.39c0.06,0.32-0.35,0.47-0.51,0.19l-3.76-6.71c-0.64-1.14-2.03-1.57-3.15-0.97l0,0
				c-1.02,0.55-1.49,1.81-1.09,2.94l2.69,7.67c0.6,1.72,0.53,3.6-0.19,5.23L1193.98,1336.96z" class="colorf5bf9a svgShape"></path></g><g fill="#000000" class="color000000 svgShape"><path fill="#5777ef" d="M1216.21,1344.75l-41.71,71.62c-6.98,11.97-17.05,21.68-29.09,28.08l-43.16,22.94l-2.34,39.52l-0.03,0.38
				c-0.37,6.23-0.63,12.46-0.76,18.69c-0.48,22.28,0.55,44.6,3.08,66.75l1.42,12.61l-2.12,1.32
				c-23.26,21.39-68.82,32.66-118.02,42.25l4.82-38.46c3.03-24.08,4.31-48.33,4.49-72.64c0.05-7.04,0.02-14.08-0.1-21.14
				c-0.01-0.97-0.04-1.94-0.05-2.92c-0.52-28,6.59-68.06,46.3-90.75l0.54,1.86l1.3-3.93c9.93,10.34,15.09,9.14,26.72-2.73
				c39.27-8.22,24.3-6.37,48.6-10.35c15.08-2.44,28.55-10.9,37.54-23.55l40.12-56.53L1216.21,1344.75z" class="coloref576a svgShape"></path></g><g fill="#000000" class="color000000 svgShape"><path fill="#9ac7f5" d="M1066.26,1411.51c-0.76,0.09-1.14,0.99-0.7,1.64l5.05,13.06c0.43,0.61,0.73,1.43,0.54,2
					c-0.56,1.51-0.27,1.96-1.12,3.04c-3.68,4.73-9.8,5.79-15.38,5.54c-5.72-0.23-10.81-1.86-12.03-2.4
					c-0.22-0.08-0.37-0.27-0.44-0.49l-6.02-20.93c-0.1-0.32-0.35-0.58-0.66-0.69c-15-5.63-18.99-24.89-18.99-24.89
					c-6.36-42.72,24.69-44.01,40.22-42.1c5.19,0.64,9.77,3.94,12.19,8.75C1094.61,1405.09,1073.06,1410.76,1066.26,1411.51z" class="colorf5bf9a svgShape"></path><path fill="#333334" d="M1035.35,1383.5l5.34,12.06c0.62,1.4,2.4,1.72,3.4,0.61l0,0c0.51-0.56,0.68-1.37,0.44-2.11l-2.99-9.31
					c-0.66-2.06-0.19-4.28,1.19-5.87c2.63-3.03,6.17-8.76,3.17-15.36c-0.65-1.42,0.01-3.1,1.42-3.61
					c4.93-1.79,14.57-5.92,17.26-11.58c0.5-1.04,1.08-2.03,1.75-2.96c1.88-2.6,4.82-8.19,0.47-13.48c-0.72-0.88-1.91-1.17-2.91-0.71
					l-8.45,3.87c-0.59,0.27-1.28,0.04-1.62-0.54l-4.15-7.17c-0.45-0.77-1.49-0.88-2.05-0.21l-7.43,8.88
					c-1.62,1.93-4.16,2.73-6.58,2.09c-5.03-1.33-14.53-2.01-24.14,7.05c-8.55,8.06-10.06,21.23-9.92,30.29
					c0.09,5.94,2.75,11.58,7.21,15.41l10.46,8.98c0.39,0.33,0.75,0.69,1.09,1.08c2.54,2.92,12.47,16.83,17.47,11.79
					c0.14-0.14,0.17-0.36,0.09-0.54l-1.36-8.37c-0.79-1.77-2.05-3.29-3.64-4.34c-4.29-2.83-12.44-9.37-6.73-15.17
					c1.9-1.93,4.54-2.96,7.23-2.82C1033,1381.53,1034.69,1382.01,1035.35,1383.5z" class="color343433 svgShape"></path></g><g fill="#000000" class="color000000 svgShape"><path fill="#9ac7f5" d="M926.11,1598.83l-14.41-5.06l-3,5.91c0,0-16.36,16.47,0.98,26.09c6.75,3.74,14.29-3.19,11.36-10.49
				c-0.04-0.1-0.08-0.21-0.13-0.31c-0.11-0.25,0.2-0.46,0.38-0.25l4.26,4.89c0.72,0.83,1.95,0.93,2.77,0.22l0,0
				c0.75-0.65,0.91-1.78,0.39-2.65l-3.54-5.89c-0.79-1.32-1.06-2.89-0.75-4.39L926.11,1598.83z" class="colorf5bf9a svgShape"></path></g><path fill="#5777ef" d="M1038.98,1423c-33.18,16.73-65.4,41.73-97.01,72.04c-5.81,4.31-10.21,10.34-12.65,17.31l-23.47,84.62
			l24.63,4.8l22.42-56.93c3.81-9.67,10.85-17.55,19.86-22.24l29.79-15.49l32.15-54.76L1038.98,1423z" class="coloref576a svgShape"></path></g><g fill="#000000" class="color000000 svgShape"><path fill="#021b79" d="M2641.04,1312.03c0,10.26-28.13,18.58-62.83,18.58c-34.7,0-62.83-8.32-62.83-18.58s28.13-18.58,62.83-18.58
				C2612.91,1293.45,2641.04,1301.77,2641.04,1312.03z" class="color37424c svgShape"></path><path fill="#fdfeff" d="M2633.19,1312.03c0,8.98-24.61,16.26-54.98,16.26c-30.36,0-54.98-7.28-54.98-16.26
						s24.61-16.26,54.98-16.26C2608.57,1295.77,2633.19,1303.05,2633.19,1312.03z" class="colorfffdfd svgShape"></path><g fill="#000000" class="color000000 svgShape"><path fill="#0575e6" d="M2578.21,1312.03l105.27-182.33c46.79-81.04-11.7-182.33-105.27-182.33l0,0
				c-93.57,0-152.05,101.29-105.27,182.33L2578.21,1312.03z" class="color2a90cb svgShape"></path><circle cx="2578.19" cy="1064.75" r="68.09" fill="#ffffff" transform="rotate(-45.001 2578.188 1064.785)" class="colorffffff svgShape"></circle></g></g></svg>