<svg width="36" height="36" viewBox="0 0 36 36" fill="none" xmlns="http://www.w3.org/2000/svg">
<path d="M35.9947 18C35.9947 18.4752 35.9736 18.9504 35.9366 19.4204C35.2556 28.159 28.3343 35.1446 19.6234 35.9261C19.0849 35.9736 18.5411 36 17.9973 36C8.0563 36 0 27.9425 0 18C0 8.0575 8.0563 0 17.9973 0C27.9384 0 35.9947 8.06278 35.9947 18Z" fill="url(#paint0_linear_11044_124802)"/>
<path opacity="0.3" d="M21.5348 26.501C22.6013 26.501 25.621 26.4851 25.621 26.4851L29.8551 10.386L35.9105 16.1783C35.9739 16.7961 36.0003 17.4191 36.0003 18.0422C36.0003 18.5174 35.9792 18.9926 35.9422 19.4625C35.3351 27.1346 29.9184 33.5711 22.464 35.4772L8.25195 24.8853C8.25195 24.8853 9.22864 25.6403 10.2687 26.031C11.314 26.4218 12.3382 26.5063 13.2357 26.5063C13.8639 26.5063 17.1318 26.5063 19.4178 26.5063L18.325 22.5145L21.1864 25.1809L21.5348 26.501Z" fill="black"/>
<path d="M25.6425 26.5063H21.5352L25.8114 10.386H29.8501L25.6425 26.5063Z" fill="#BEBEBF"/>
<path d="M21.5338 26.501L25.6411 26.5063L21.4176 10.3438H17.3789L21.5338 26.501Z" fill="white"/>
<path d="M14.6875 20.4289L17.38 10.3491H21.4187L18.7948 20.4342L14.6875 20.4289Z" fill="#BEBEBF"/>
<path d="M11.0762 10.6289C11.9842 10.4705 13.2407 10.4441 15.1149 10.4441L17.8126 20.4288H13.6314L11.0762 10.6289Z" fill="white"/>
<path d="M9.1341 11.4421L10.2533 15.5765C10.2533 15.5765 9.03907 16.4266 9.03907 18.6178C9.03907 20.8091 11.1772 22.4882 12.7135 22.4882C14.2498 22.4882 18.3307 22.5146 18.3307 22.5146L19.4236 26.5064C19.4236 26.5064 13.3206 26.5064 12.856 26.5064C12.1011 26.5064 9.1077 26.4113 6.7531 23.37C4.02367 19.8534 5.38575 15.7507 6.24101 14.3937C7.28104 12.7305 8.63784 11.7853 9.1341 11.4421Z" fill="white"/>
<defs>
<linearGradient id="paint0_linear_11044_124802" x1="2.41351" y1="27.0025" x2="33.5896" y2="9.00558" gradientUnits="userSpaceOnUse">
<stop stop-color="#0575E6"/>
<stop offset="1" stop-color="#021B79"/>
</linearGradient>
</defs>
</svg>
