<svg xmlns="http://www.w3.org/2000/svg" enable-background="new 0 0 1500 1000" viewBox="0 0 1500 1000" id="Businessmanattendingonlinewebinar"><path fill="#f5faff" d="M1285.78,571.69c-6.58,33.91-23.99,51.3-47.74,65.72c-18.03,10.94-39.73,20.17-63.09,33.6    c-0.85,0.48-1.7,0.97-2.56,1.47c-2.51,1.47-5.05,3-7.6,4.58c-1.68,1.03-3.36,2.09-5.04,3.19c-4.84,3.12-9.73,6.47-14.66,10.08    c-7.14,5.24-13.86,10.88-20.25,16.75c-2.87,2.62-5.67,5.3-8.41,8.01c-0.78,0.78-1.56,1.55-2.32,2.32    c-3.44,3.45-6.79,6.95-10.06,10.47c-28.11,30.16-51.06,61.54-79.68,75.71c-6.63,3.28-13.56,5.64-20.94,6.84    c-7.97,1.3-16.45,1.26-25.6-0.42c-70.35-12.92-91.88-10.77-180.18,20.32c-74.53,26.24-128.09,47.92-203,20.49    c-4.18-1.52-8.43-3.21-12.75-5.05c-5.56-2.37-11.25-5.01-17.07-7.94c-4.62-2.32-9.32-4.81-14.12-7.5    c-0.68-0.38-1.38-0.77-2.05-1.14c-7.26-3.97-14.07-7.26-20.48-9.96c-16.32-6.87-30.06-9.86-42.2-10.36    c-4.86-0.2-9.47,0-13.86,0.52c-7.13,0.83-13.75,2.48-20.1,4.59c-2.67,0.87-5.3,1.84-7.89,2.85c-2.5,0.97-4.99,2-7.46,3.05    c-7.09,2.99-14.12,6.18-21.51,8.97c-0.99,0.37-1.99,0.75-2.99,1.11c-2.03,0.72-4.09,1.42-6.19,2.06    c-1.66,0.51-3.35,0.98-5.05,1.43c-0.99,0.26-2.01,0.51-3.02,0.74c-1.63,0.38-3.28,0.72-4.97,1.02c-8.93,1.63-18.7,2.18-29.78,0.96    c-0.88-0.09-1.77-0.2-2.67-0.32c-8.27-1.11-15.14-3.17-20.86-6.03c-17.31-8.65-24.14-24.64-27.53-43.55    c-5.18-29-2.26-64.9-16.5-91.98c-1.4-2.68-2.97-5.27-4.74-7.76c-1.65-2.32-3.32-4.61-4.99-6.87    c-11.63-15.73-23.61-30.1-33.29-45.5c-18.59-29.61-28.65-63.01-11.26-117.04c2.05-6.37,4.62-12.46,7.65-18.28    c5.67-10.94,12.94-20.96,21.41-30.28c1.12-1.25,2.27-2.47,3.43-3.69c6.19-6.45,12.95-12.55,20.13-18.39    c24.26-19.73,53.33-36.37,81.65-52.58c10.27-5.88,20.44-11.7,30.24-17.59c1.17-0.7,2.34-1.41,3.5-2.11    c4.61-2.8,9.12-5.62,13.51-8.48c28.2-18.3,51.55-37.96,62.54-62.52c36.62-81.83,110.55-148.59,198.84-165.1    c88.29-16.51,139.27,95.47,228.99,114.14c29.69,6.18,56.17,9.52,80.15,14.36c7.29,1.47,14.36,3.08,21.21,4.95    c5.75,1.57,11.36,3.32,16.82,5.32c1.26,0.46,2.5,0.93,3.74,1.42c7.47,2.94,14.69,6.4,21.68,10.56    c5.34,3.18,10.55,6.77,15.65,10.85c2.75,2.2,5.46,4.55,8.15,7.07c11.73,10.97,22.88,24.98,33.6,43.1    c9.71,16.41,22.45,32.08,36.61,47.16c5.5,5.86,11.22,11.62,17.05,17.31c1.72,1.69,3.47,3.36,5.21,5.03    c5.65,5.42,11.39,10.77,17.13,16.06c2.04,1.87,4.1,3.75,6.14,5.63c0.37,0.35,0.76,0.69,1.13,1.04    c13.52,12.35,26.86,24.4,38.94,36.3c6.44,6.32,12.51,12.59,18.07,18.83c4.74,5.32,9.1,10.62,12.98,15.89    c0.7,0.96,1.39,1.91,2.05,2.86c5.53,7.87,9.94,15.72,12.91,23.58C1286.49,550.23,1287.87,560.9,1285.78,571.69z" class="colorf7f5ff svgShape"></path><path fill="#dbedff" d="M387.05,528.48c-22.59,70.16,11.69,97.6,40.33,137.93c28.64,40.33-4.68,113.38,56.69,121.56    c61.37,8.18,73.64-49.9,154.88-4.5c81.24,45.41,129.16,25.31,201.05,0c71.89-25.31,89.42-27.06,146.7-16.54    c57.28,10.52,81.82-57.53,136.18-97.44c54.35-39.91,103.45-39.32,114.55-96.6c11.1-57.28-98.19-110.46-139.68-180.59    c-41.5-70.13-90.59-64.29-163.64-79.48c-73.06-15.2-114.55-106.37-186.44-92.93c-71.89,13.44-132.08,67.8-161.89,134.42    C555.95,420.94,414.52,443.15,387.05,528.48z" opacity=".44" class="colore2dbff svgShape"></path><path fill="#c2e0ff" d="M284.66,550.3c-23.25,72.24,12.03,100.49,41.52,142.01c29.48,41.52-4.81,116.74,58.37,125.16    s75.82-51.38,159.46-4.63s132.98,26.06,206.99,0c74.01-26.06,92.06-27.87,151.03-17.03c58.97,10.83,84.24-59.23,140.2-100.32    c55.96-41.09,106.51-40.49,117.94-99.46s-101.09-113.73-143.81-185.93s-93.27-66.19-168.48-81.84s-117.94-109.51-191.95-95.67    c-74.01,13.84-135.99,69.8-166.68,138.4S312.94,462.45,284.66,550.3z" opacity=".44" class="colorcec2ff svgShape"></path><path fill="#005ebd" d="M581.9,845.77c-5.56-2.37-11.25-5.01-17.07-7.94c-4.62-2.32-9.32-4.81-14.12-7.5      c-0.68-0.38-1.38-0.77-2.05-1.14c-7.26-3.97-14.07-7.26-20.48-9.96c-16.32-6.87-30.06-9.86-42.2-10.36      c-4.86-0.2-9.47,0-13.86,0.52c-7.13,0.83-13.75,2.48-20.1,4.59c-2.67,0.87-5.3,1.84-7.89,2.85c-2.5,0.97-4.99,2-7.46,3.05      c-7.09,2.99-14.12,6.18-21.51,8.97c-0.99,0.37-1.99,0.75-2.99,1.11c-2.03,0.72-4.09,1.42-6.19,2.06      c-1.66,0.51-3.35,0.98-5.05,1.43c-3.24-5-6.26-10.11-9.13-15.3c-0.27-0.5-0.54-0.98-0.82-1.48      c-9.9-18.13-18.06-37.28-27.66-56.28c-0.39-0.78-0.8-1.55-1.2-2.31c-0.55-1.03-1.11-2.04-1.69-3.05      c-6.12-10.74-13.61-20.09-21.87-28.68c-2.32-2.42-4.71-4.77-7.15-7.07c-8.93-8.46-18.51-16.29-28.08-24.17      c-3.9-3.21-7.5-6.64-10.78-10.27c-0.28-0.3-0.56-0.61-0.82-0.92c-12.04-13.58-19.93-29.83-24.34-47.87      c-3.12-12.79-4.49-26.48-4.35-40.76c0.3-28.68,6.38-59.86-8.02-84.14c-2.36-3.98-4.4-8.09-6.05-12.31      c-5.25-13.36-6.73-27.94-2.81-43.65c3.06-12.28,9.66-23.96,6.81-36.33c-3.51-15.25-8.4-79.98,12.31-81.37      c18.21-1.22,14.71,59.79,13.33,76.12c-1.11,12.96,7.6,20.07,13.34,29.4c0.7,1.15,1.37,2.31,2,3.47      c7.66,14.24,9.53,29.72,7.83,47.54c-0.73,7.73,0.28,14.68,2.5,21.01v0.01c4.16,11.9,12.57,21.65,21.54,30.49      c3.88,3.82,7.87,7.46,11.66,11.03c1.75,1.66,3.49,3.33,5.17,5.02c13.72,13.68,25.1,28.5,32.85,46.06      c3.67,8.3,6.54,17.23,8.45,26.94c3.42,17.38,8.55,34.63,17.98,48.58c3.24,4.82,7.01,9.26,11.4,13.15      c2.58,2.31,5.37,4.43,8.41,6.34c6.07,3.83,12.57,7.1,19.3,10.06c3.58,1.57,7.23,3.05,10.91,4.46      c14.42,5.53,29.41,10.15,43.19,15.8c18.09,7.44,32.99,20.13,45.48,35.66c0.11,0.12,0.21,0.24,0.3,0.37      c1.6,2.01,3.17,4.05,4.7,6.14c4.54,6.22,8.73,12.81,12.64,19.64c2.3,3.98,4.49,8.05,6.58,12.16c1.19,2.34,2.36,4.7,3.5,7.09      c0.04,0.08,0.08,0.15,0.1,0.22c2.1,4.4,4.1,8.84,6.03,13.28C577.1,833.64,579.56,839.74,581.9,845.77z" class="color00bd6b svgShape"></path><path fill="#43a1ff" d="M485.98,808.88c-4.86-0.2-9.47,0-13.86,0.52c-1.62-1.12-3.24-2.25-4.85-3.38c-2.71-2.03-5.4-4.1-8.06-6.18      c-6.55-5.1-12.96-10.35-19.25-15.73v-0.01l-0.01-0.01c-4.55-3.88-9.03-7.85-13.46-11.9v-0.01c-2.86-2.61-5.69-5.25-8.49-7.94      v-0.01c-0.59-0.56-1.18-1.12-1.76-1.69c-1.37-1.31-2.72-2.63-4.07-3.95c-5.94-5.83-11.75-11.83-17.47-17.98      c-5.59-6.39-11.02-12.9-16.3-19.51c-1.03-1.28-2.04-2.57-3.06-3.86c-0.03-0.03-0.06-0.07-0.08-0.09v-0.02      c-0.01-0.01-0.02-0.02-0.03-0.03v-0.01c-7.58-9.67-14.85-19.6-21.81-29.79c-4.65-6.81-9.18-13.75-13.56-20.81      c-1.07-1.71-2.12-3.42-3.17-5.15c-8.31-14.28-16.11-28.98-23.08-44.15c-4.22-9.09-6.21-13.7-10.02-23.05      c-3.77-9.35-5.56-14.1-8.9-23.68c-2.87-8.56-5.54-17.17-8.01-25.82c-7.11-24.93-12.55-50.26-16.29-76.07      c-4.98-34.19-6.99-69.22-6.03-105.26c0.65,34.76,3.77,68.58,9.46,101.57c4.15,24.19,9.69,47.93,16.64,71.27      c3.12,10.51,6.53,20.93,10.23,31.27c3.5,9.4,5.34,14.04,9.24,23.19c3.86,9.17,5.9,13.68,10.17,22.6      c7.06,14.87,14.92,29.25,23.29,43.23c0.06,0.09,0.12,0.2,0.18,0.29c5.78,9.41,11.78,18.57,18.04,27.52      c0,0.01,0.01,0.01,0.01,0.02s0.01,0.02,0.01,0.03c2,2.87,4.02,5.72,6.08,8.55c3.69,5.09,7.46,10.11,11.32,15.06      c0.55,0.71,1.11,1.42,1.67,2.14c6.5,8.28,13.24,16.35,20.22,24.26c3.7,4.03,7.44,7.98,11.25,11.86      c0.93,0.95,1.86,1.89,2.78,2.83v0.01l0.37,0.37c1.71,1.73,3.44,3.45,5.17,5.14c0,0.01,0,0.01,0.01,0.02      c4.35,4.27,8.75,8.45,13.23,12.55c11.37,10.44,23.17,20.36,35.44,29.8c0.99,0.77,1.99,1.53,2.99,2.29      C476.73,802.47,481.33,805.72,485.98,808.88z" class="color43ffad svgShape"></path><path fill="#0068d1" d="M436.67,819.89c-7.09,2.99-14.12,6.18-21.51,8.97c-0.99,0.37-1.99,0.75-2.99,1.11      c-2.03,0.72-4.09,1.42-6.19,2.06c-1.66,0.51-3.35,0.98-5.05,1.43c-0.99,0.26-2.01,0.51-3.02,0.74      c-1.63,0.38-3.28,0.72-4.97,1.02c-8.93,1.63-18.7,2.18-29.78,0.96c-6.14-8.86-14.42-16.05-23.35-22.29      c-0.58-0.41-1.17-0.82-1.76-1.22c-0.4-0.27-0.8-0.54-1.2-0.81c-10.44-6.96-18.45-15.6-24.75-25.58      c-7.21-11.41-12.18-24.61-15.99-39.11c-0.74-2.78-1.46-5.65-2.22-8.53c-3.17-11.95-6.98-24.18-14.73-32.48      c-0.11-0.12-0.22-0.24-0.35-0.36c-4.08-4.27-9.27-7.46-15.99-9c-12.95-2.97-23.27-8.14-30.86-17.31      c-1.47-1.77-2.83-3.68-4.1-5.76c-4.82-7.89-6.71-17.98-17.05-20.47c-13.04-3.13-61.06-16.46-52.74-33.15      c7.37-14.75,37.67-4.68,55.59,4.04h0.01c5.14,2.5,9.27,4.89,11.54,6.55c7.48,5.44,17.64,3.54,27.36,3.47      c1.06-0.01,2.12,0,3.17,0.05c3.62,0.15,7.03,0.65,10.22,1.45c0.48,0.13,0.97,0.26,1.43,0.39c11.88,3.4,20.83,11.16,27.48,21.65      c0.01,0,0.01,0.01,0.01,0.01c1.89,2.98,4.09,5.57,6.5,7.85c3.08,2.91,6.56,5.33,10.31,7.39c6.47,3.57,13.73,6.08,21.18,8.31      h0.01c0.77,0.22,1.55,0.46,2.31,0.67c2.96,0.86,5.91,1.69,8.88,2.53c2.35,0.67,4.7,1.35,7.01,2.08      c0.79,0.23,1.57,0.48,2.33,0.73h0.01c0.83,0.25,1.65,0.52,2.46,0.8c3.09,1.06,6.11,2.22,9.02,3.48      c0.94,0.39,1.86,0.81,2.78,1.27h0.01c17.77,8.23,31.85,20.5,40.51,37.54c0,0.01,0,0.01,0.01,0.01c1.48,2.92,2.8,5.99,3.95,9.19      c1.09,3.01,2.01,6.14,2.78,9.41v0.01c0.21,0.83,0.39,1.67,0.56,2.52c0.1,0.46,0.2,0.94,0.29,1.41      c0.73,3.77,1.45,7.54,2.19,11.29v0.02c1.01,5.14,2.09,10.24,3.29,15.27v0.01c0.51,2.07,1.02,4.15,1.58,6.19      c1.57,5.91,3.37,11.69,5.53,17.26c1.05,2.74,2.21,5.43,3.49,8.05c0.07,0.15,0.14,0.29,0.21,0.43c0.01,0,0.01,0,0.01,0.02      C433.48,814.35,434.99,817.16,436.67,819.89z" class="color00d176 svgShape"></path><path fill="#43a1ff" d="M405.99,832.02c-1.66,0.51-3.35,0.98-5.05,1.43c-0.99,0.26-2.01,0.51-3.02,0.74      c-2.09-4.91-4.26-9.76-6.52-14.55c-0.06-0.12-0.09-0.22-0.16-0.32c-0.2-0.41-0.39-0.83-0.6-1.25      c-6.23-13.15-13.11-25.85-20.64-38.23c-3.48-5.57-7.08-11.04-10.81-16.4c-0.44-0.64-0.88-1.27-1.32-1.88      c-3.67-5.2-7.48-10.29-11.43-15.25c-2.49-3.16-4.4-5.51-6.34-7.83c-2-2.39-4.04-4.72-6.8-7.83c-0.52-0.6-1.02-1.16-1.5-1.71      c-4.47-5.04-7.25-7.98-12.46-13.24c-7.67-7.51-15.58-14.64-23.74-21.41c-1.89-1.59-3.8-3.15-5.73-4.69      c-2.05-1.65-4.12-3.28-6.21-4.88c-3.57-2.77-7.24-5.49-10.93-8.12c-17.53-12.55-36.13-23.65-55.82-33.41      c-12.46-6.19-25.39-11.85-38.73-16.95c13.12,4.18,25.83,8.92,38.09,14.25c19.13,8.23,37.23,17.84,54.35,28.81      c5,3.21,9.92,6.55,14.75,10l0.51,0.37c1.98,1.4,3.94,2.83,5.87,4.26c0.32,0.23,0.63,0.47,0.94,0.71      c10.9,8.14,21.37,16.9,31.42,26.3c2.94,2.83,5.14,4.98,7.28,7.16c2.16,2.21,4.27,4.44,7.06,7.45c0.04,0.05,0.08,0.09,0.13,0.14      c5.6,6.1,8.3,9.22,13.53,15.62c3.14,3.81,6.19,7.71,9.15,11.68c0.7,0.95,1.41,1.89,2.09,2.84c4.55,6.22,8.91,12.6,13.11,19.09      c4.53,7.34,8.82,14.82,12.88,22.41c0.04,0.05,0.07,0.1,0.09,0.15c3.65,6.8,7.1,13.72,10.39,20.75      C401.95,822.78,404,827.38,405.99,832.02z" class="color43ffad svgShape"></path><g fill="#000000" class="color000000 svgShape"><path fill="#0072e6" d="M528.18,819.23c-16.32-6.87-30.06-9.86-42.2-10.36c-4.86-0.2-9.47,0-13.86,0.52      c-7.13,0.83-13.75,2.48-20.1,4.59c-2.67,0.87-5.3,1.84-7.89,2.85c-2.5,0.97-4.99,2-7.46,3.05c-7.09,2.99-14.12,6.18-21.51,8.97      c-0.99,0.37-1.99,0.75-2.99,1.11c-2.03,0.72-4.09,1.42-6.19,2.06c-1.66,0.51-3.35,0.98-5.05,1.43      c-0.99,0.26-2.01,0.51-3.02,0.74c-1.63,0.38-3.28,0.72-4.97,1.02c-0.65-5.29-1.22-10.57-1.71-15.89      c-0.04-0.41-0.07-0.82-0.11-1.22c-0.04-0.47-0.08-0.94-0.13-1.42v-0.01c0-0.01,0-0.01,0-0.02c-0.6-6.42-1.12-12.88-1.66-19.33      c-0.24-3.08-0.48-6.18-0.74-9.28c-0.58-7.35-1.21-14.73-1.96-22.16c-0.04-0.37-0.08-0.77-0.12-1.13      c-0.33-3.24-0.76-6.42-1.26-9.58v-0.01c-1.72-10.78-4.4-21.18-7.7-31.32c-0.71-2.19-1.46-4.38-2.23-6.54      c-0.02-0.06-0.04-0.1-0.06-0.16v-0.02c0,0-0.01-0.01-0.01-0.02l-0.02-0.01v-0.01c-3.07-8.64-6.59-17.12-10.32-25.52      c-1.09-2.44-2.18-4.85-3.29-7.28c0-0.01-0.01-0.02-0.01-0.03s-0.01-0.01-0.01-0.02c-2.95-6.44-5.98-12.85-9-19.26      c-1.57-3.32-3.01-6.65-4.3-10.01c-0.64-1.66-1.25-3.32-1.82-4.99c-8.04-23.28-9.87-47.3-6.8-71.28c0.44-3.45,0.97-6.9,1.6-10.35      c0.4-2.26,0.87-4.51,1.37-6.77v-0.01c1.62-7.32,3.67-14.59,6.11-21.83c3.66-10.87,8.15-21.68,12.13-32.63      c3.82-10.55,7.15-21.22,8.78-32.21c0.61-4.12,0.99-8.28,1.06-12.49c0.08-4.73-0.22-9.54-0.99-14.42      c-3.03-19.02-1.76-37.49,5.86-54.08c1.39-3.01,2.98-5.96,4.8-8.84c7-11.14,17.1-19.78,18.62-34.16      c1.89-17.72,19.24-87.62,39.02-78.06c17.41,8.42-6.48,70.02-13.3,86.24c-0.94,2.24-1.55,4.44-1.89,6.64      c-0.68,4.35-0.36,8.62,0.39,12.9c1.05,6,2.93,11.98,3.99,18.14c1.97,11.44,1.83,22.18-0.1,32.72      c-1.05,5.84-2.65,11.6-4.74,17.39c-0.97,2.71-2.05,5.42-3.24,8.15c-4.22,9.8-5.32,19.78-4.52,29.73      c0.43,5.35,1.42,10.7,2.77,16.01c1.29,5.12,2.94,10.2,4.76,15.2c1.7,4.72,3.56,9.4,5.42,13.97c1.26,3.08,2.53,6.11,3.74,9.1      c0.29,0.71,0.57,1.42,0.85,2.12c0.87,2.17,1.71,4.35,2.54,6.52c1.25,3.3,2.43,6.59,3.54,9.89c2.55,7.51,4.74,15.03,6.5,22.6      c1.26,5.3,2.29,10.63,3.09,16c0.05,0.35,0.1,0.68,0.14,1.03c0.01,0.01,0.01,0.02,0.01,0.03c0.28,1.95,0.53,3.9,0.74,5.86      c1.31,11.76,1.48,23.74,0.23,36.09c0,0,0,0,0,0.01c-0.19,1.9-0.41,3.81-0.67,5.73c-3.24,24.1-4.1,49.3,3.64,72.26v0.02      c2.16,6.41,4.99,12.62,8.61,18.6c11.44,18.88,26.91,35.39,41.77,51.78c0,0.01,0,0.01,0,0.01c0.26,0.29,0.52,0.58,0.79,0.87      c3.16,3.48,6.28,6.94,9.32,10.44c2.16,2.47,4.29,4.96,6.36,7.46C522.19,810.45,525.31,814.75,528.18,819.23z" class="color00e682 svgShape"></path><path fill="#43a1ff" d="M452.02,813.99c-2.67,0.87-5.3,1.84-7.89,2.85c-1.32-3.07-2.62-6.16-3.91-9.25      c-4.84-11.64-9.41-23.43-13.73-35.4v-0.02c-0.01-0.01-0.01-0.01-0.01-0.02c-1.36-3.75-2.69-7.51-3.99-11.29      c-0.67-2.09-1.34-4.22-1.99-6.34c-0.01-0.01-0.01-0.01-0.01-0.02c-7.26-23.52-13.44-47.23-18.56-71.32      c-2.51-11.77-4.75-23.63-6.77-35.59c-1.67-11.02-3.15-22.1-4.36-33.2c-0.47-4.27-0.9-8.56-1.28-12.84      c-0.37-4.05-0.69-8.1-0.98-12.16c-0.85-11.69-1.16-17.54-1.54-29.29c-0.37-11.73-0.42-17.61-0.3-29.36      c0.01-0.43,0.02-0.86,0.03-1.29c0.2-8.88,0.53-17.71,1.04-26.5c0.01-0.26,0.02-0.52,0.04-0.79c0.71-12.67,1.73-25.25,3.09-37.74      c0.52-4.95,1.11-9.88,1.74-14.79c2.31-18.1,5.28-36.03,8.92-53.8c1.33-6.52,2.76-13.02,4.27-19.5c6.06-26,13.6-51.69,22.6-77.13      c-7.59,24.84-13.96,49.81-19.1,75.02c-1.26,6.18-2.45,12.36-3.55,18.57c-3.2,17.8-5.77,35.71-7.73,53.76      c-0.54,4.97-1.04,9.94-1.49,14.93c-1.21,13.32-2.08,26.71-2.61,40.19c-0.13,3.22-0.24,6.46-0.33,9.7      c-0.02,0.54-0.04,1.09-0.04,1.63c-0.16,5.91-0.24,11.86-0.26,17.81c0.07,11.61,0.24,17.43,0.78,29.01      c0.51,11.59,0.88,17.38,1.85,28.91c0.31,3.76,0.65,7.52,1.02,11.27c1.01,10.22,2.27,20.42,3.73,30.57      c0.73,5.17,1.52,10.34,2.36,15.49c2.92,16.97,6.34,33.72,10.27,50.3c4.88,20.63,10.58,41.02,17.09,61.27      c1.08,3.18,2.16,6.32,3.3,9.45c0,0.01,0,0.01,0.01,0.02c2.01,5.72,4.08,11.39,6.21,17.02l0.01,0.01v0.01      c2.58,6.78,5.23,13.49,7.98,20.16C449.27,807.53,450.64,810.77,452.02,813.99z" class="color43ffad svgShape"></path></g><g fill="#000000" class="color000000 svgShape"><path fill="#005ebd" d="M1232.96,542.57c-1.54,4.47-3.38,8.84-5.56,13.11c-0.18,0.37-0.37,0.73-0.56,1.1      c-2.27,4.33-4.88,8.56-7.85,12.65c-7.42,10.24-14.88,20.43-21.49,31.09c-6.96,11.21-12.99,22.95-17.11,35.83      c-0.67,2.11-1.3,4.25-1.86,6.42c-0.43,1.62-0.82,3.26-1.18,4.92c-1.8,8.31-3.37,16.59-4.94,24.81c-2.51,1.47-5.05,3-7.6,4.58      c-1.68,1.03-3.36,2.09-5.04,3.19c-4.84,3.12-9.73,6.47-14.66,10.08c-7.14,5.24-13.86,10.88-20.25,16.75      c-2.87,2.62-5.67,5.3-8.41,8.01c-0.78,0.78-1.56,1.55-2.32,2.32c-3.44,3.45-6.79,6.95-10.06,10.47      c-28.11,30.16-51.06,61.54-79.68,75.71c-6.63,3.28-13.56,5.64-20.94,6.84c-4.79-0.59-9.55-1.37-14.26-2.32      c-1.83-0.37-3.08-0.66-3.68-0.81c-0.27-0.07-0.41-0.1-0.41-0.1c0-0.04,0.01-0.17,0.03-0.39c0.01-0.16,0.03-0.37,0.05-0.62      c0.06-0.67,0.13-1.67,0.24-2.93c1.08-11.55,2.39-23.65,4.24-35.86c1.28-8.52,2.83-17.08,4.74-25.53      c2.06-9.12,4.54-18.12,7.55-26.78c2.76-7.93,5.99-15.59,9.77-22.81c1.96-3.76,4.06-7.39,6.34-10.89      c6.73-10.39,14.9-19.61,24.85-27.08c5.26-3.95,10.81-7.75,16.43-11.56c7.11-4.8,14.38-9.58,21.4-14.6      c3.47-2.48,6.88-5.02,10.19-7.66c1.86-1.48,3.68-2.99,5.46-4.53c3.5-3.02,6.82-6.16,9.93-9.47c2.46-2.61,4.63-5.36,6.54-8.25      c3.27-4.87,5.8-10.12,7.72-15.59c5.61-15.89,6.24-33.86,5.18-51.55c-0.13-2.2-0.21-4.39-0.22-6.54      c-0.3-27.79,8.31-51.49,21.67-74.23c0.06-0.09,0.1-0.18,0.16-0.27v-0.01c1.13-1.92,2.3-3.83,3.49-5.74      c0.08-0.14,0.18-0.28,0.26-0.42c2.77-4.41,5.72-8.93,8.51-13.61c3.07-5.14,5.97-10.45,8.28-15.95      c5.12-12.23,7.31-25.44,2.03-39.95c-6.63-18.2-8.52-34.8-3.31-51.84c1.99-6.49,5.29-12.45,6.49-18.96      c0.54-2.95,0.65-6.03,0-9.32c-0.22-1.15-0.54-2.32-0.97-3.53c-1.71-4.85-4.72-13.9-7.51-24.14      c-6.08-22.42-11.04-50.55,1.26-52.88c14.52-2.76,24.55,28.81,29.3,52.88c1.03,5.26,1.82,10.16,2.33,14.26      c0.45,3.51,0.7,6.43,0.76,8.51c0.36,12.68,9.68,22.33,15.73,33.45c10.2,18.72,10.83,37.89,5.5,56.39      c-7.83,27.13,5.9,55.78,13.39,83.46c1.42,5.29,2.62,10.52,3.56,15.74c1.51,8.4,2.36,16.68,2.48,24.81      C1239.11,516.89,1237.25,530.09,1232.96,542.57z" class="color00bd6b svgShape"></path><path fill="#43a1ff" d="M1134.4,631.88c-15.25,28.64-32.69,55.37-52.64,80.69c-20.82,25.28-43.63,48.76-68.62,69.42      c-8.89,7.35-18.29,14.37-27.73,21.26c-0.23,2.55-0.32,3.96-0.32,3.96s1.44,0.36,4.1,0.91c9.71-6.75,19.35-13.65,28.5-20.89      c25.81-20.44,49.1-43.94,70.54-69.25c20.37-25.58,38.18-52.59,53.79-81.55c14.66-29.28,26.65-59.53,36.2-91.31      c4.46-15.92,8.3-32.09,11.24-48.53c1.79-9.86,2.57-14.83,3.9-24.82c1.3-10.01,1.83-15.04,2.66-25.17      c4.84-69.3-2.58-138.24-22.75-208.12c16.74,69.71,22.28,138.23,16.17,206.7c-1.02,9.97-1.64,14.92-3.11,24.76      c-1.44,9.84-2.27,14.73-4.16,24.43c-3.09,16.17-7.08,32.06-11.67,47.69C1160.94,573.33,1148.98,603.09,1134.4,631.88z" class="color43ffad svgShape"></path><path fill="#0068d1" d="M1298,505.64c-9.37,5.01-8.67,15.24-11.35,24.1c-0.69,2.33-1.53,4.53-2.52,6.61      c-0.52,1.12-1.08,2.19-1.68,3.23c-5.18,9.1-13.26,15.77-23.83,21.28c-6.12,3.18-10.34,7.56-13.2,12.73      c-0.09,0.14-0.17,0.29-0.25,0.43c-5.41,9.99-6.03,22.79-6.08,35.14c-0.02,2.98,0.01,5.93-0.01,8.82      c-0.01,6.67-0.32,13.16-1.02,19.44c-18.03,10.94-39.73,20.17-63.09,33.6c-0.85,0.48-1.7,0.97-2.56,1.47      c-2.51,1.47-5.05,3-7.6,4.58c-1.68,1.03-3.36,2.09-5.04,3.19c-4.84,3.12-9.73,6.47-14.66,10.08      c-7.14,5.24-13.86,10.88-20.25,16.75c0.08-0.61,0.16-1.22,0.22-1.83c0.68-5.94,0.98-11.99,1.01-18.11      c0.03-2.11,0.01-4.25-0.03-6.38v-0.01c-0.1-5.16-0.35-10.38-0.65-15.6v-0.01l-0.01-0.02c-0.22-3.81-0.48-7.64-0.72-11.47      c-0.08-1.36-0.15-2.69-0.16-4.02c-0.16-6.94,0.47-13.5,1.83-19.7c0.01-0.01,0.01-0.01,0.01-0.02      c4.09-18.67,14.63-34.09,29.76-46.52h0.01l0.01-0.01c0.77-0.67,1.57-1.29,2.37-1.92c2.5-1.94,5.13-3.82,7.84-5.62      c0.73-0.48,1.45-0.94,2.19-1.4h0.01c0.68-0.44,1.38-0.87,2.07-1.29c2.05-1.29,4.15-2.55,6.27-3.78      c3.35-1.98,6.69-3.92,10.02-5.91h0.01c10.5-6.37,20.38-13.32,26.52-23.13c1.77-2.82,3.24-5.88,4.32-9.24c0,0,0-0.01,0.01-0.01      c3.8-11.83,10.51-21.58,21.15-27.86c0.42-0.24,0.85-0.5,1.29-0.74c2.88-1.58,6.05-2.92,9.51-3.98c1.56-0.48,3.16-0.89,4.78-1.26      c8.94-2.06,18.37-3.1,23.88-9.81c1.78-2.17,5.17-5.53,9.52-9.25h0.01c15.15-12.94,41.96-30.32,52.79-17.89      C1352.95,474.36,1309.82,499.32,1298,505.64z" class="color00d176 svgShape"></path><path fill="#43a1ff" d="M1322.8,471.29c-11.63,8.29-22.72,17.01-33.23,26.15c-6.93,6.01-13.61,12.18-20.04,18.56      c-9,8.9-17.53,18.17-25.59,27.82c-2.91,3.47-5.77,7.02-8.54,10.6c-1.61,2.08-3.21,4.18-4.78,6.3      c-7.83,10.47-15.14,21.34-21.96,32.66c-4.11,7.09-6.06,10.68-9.74,17.98c-3.73,7.27-5.48,10.97-8.78,18.47      c-5.55,12.43-10.26,25.29-14.38,38.38c-0.28,0.94-0.56,1.88-0.82,2.82c-0.85,0.48-1.7,0.97-2.56,1.47      c-2.51,1.47-5.05,3-7.6,4.58c1.11-4.03,2.28-8.03,3.51-12.02c4.35-13.18,9.31-26.13,15.11-38.65      c3.46-7.51,5.29-11.21,9.17-18.52c3.92-7.29,5.98-10.87,10.3-17.92c7.38-11.63,15.3-22.74,23.8-33.36      c0.23-0.31,0.48-0.61,0.72-0.92c1.64-2.03,3.31-4.08,5-6.08c3.81-4.56,7.74-9.02,11.76-13.38c7.39-7.99,15.16-15.69,23.32-23.07      c7.06-6.4,14.4-12.57,22.03-18.49C1300.05,486.42,1311.15,478.63,1322.8,471.29z" class="color43ffad svgShape"></path><g fill="#000000" class="color000000 svgShape"><path fill="#0072e6" d="M1165.37,541.88c-0.41,3.56-0.96,7.15-1.64,10.76c-1.31,6.96-2.63,13.94-3.87,20.91c0,0,0,0,0,0.01      s0,0.01,0,0.01c-0.13,0.72-0.25,1.43-0.38,2.16c-0.34,1.91-0.67,3.82-0.98,5.74c-1.49,9.07-2.76,18.16-3.57,27.3v0.01      l-0.01,0.01l0.01,0.01c0,0.01,0,0.01-0.01,0.02v0.01c-0.18,1.99-0.33,3.97-0.46,5.97c-0.61,9.25-0.72,18.57-0.08,27.97      c0.11,1.79,0.26,3.58,0.43,5.38l0.01,0.01c0.04,0.43,0.08,0.85,0.13,1.28c0.28,2.76,0.63,5.52,1.06,8.3      c0.06,0.37,0.11,0.75,0.17,1.13c1.12,7.19,2.32,14.31,3.58,21.39c-4.84,3.12-9.73,6.47-14.66,10.08      c-7.14,5.24-13.86,10.88-20.25,16.75c-2.87,2.62-5.67,5.3-8.41,8.01c-0.78,0.78-1.56,1.55-2.32,2.32      c-3.44,3.45-6.79,6.95-10.06,10.47c-28.11,30.16-51.06,61.54-79.68,75.71c0-0.71,0-1.42,0.01-2.14      c0.04-6.93,0.38-13.8,1.07-20.54l-0.02-0.04c0.36-3.59,0.82-7.13,1.38-10.67v-0.01c0,0,0,0,0-0.01      c0.58-3.65,1.27-7.25,2.09-10.82c2.22-9.75,5.34-19.17,9.53-28.12c2.53-5.39,5.23-10.77,8.02-16.17      c1.05-2.04,2.12-4.09,3.2-6.14c0,0,0,0,0-0.01c2.9-5.53,5.83-11.07,8.7-16.66c1.87-3.65,3.71-7.32,5.49-11.01      c5.17-10.72,9.83-21.65,13.21-32.95c0.55-1.85,1.05-3.71,1.47-5.57c1.13-4.85,1.85-9.73,2.18-14.6l-0.01-0.01      c0.18-2.55,0.26-5.1,0.25-7.65c-0.03-6.97-0.73-13.93-1.95-20.82c-0.44-2.51-0.95-5.01-1.53-7.51      c-2.72-11.91-6.81-23.6-11.42-34.88c-0.73-1.78-1.43-3.57-2.09-5.37c0-0.01,0-0.01,0-0.01c-5.16-13.93-8.23-27.85-9.74-41.91      c-0.1-0.94-0.19-1.87-0.27-2.82c-1.47-16.19-0.89-32.58,1.01-49.35c0.19-1.67,0.38-3.34,0.6-5.01c0.1-0.75,0.19-1.5,0.29-2.26      c0.42-3.2,0.89-6.46,1.33-9.75c0.65-4.89,1.28-9.89,1.73-14.89c0.51-5.3,0.82-10.64,0.79-15.91      c-0.07-15.62-3.11-30.85-13.2-43.82c-1.84-2.35-3.56-4.7-5.18-7.08c-2.05-2.99-3.94-6.03-5.64-9.11      c-3.21-5.75-5.8-11.7-7.75-17.97c-1.99-6.36-3.31-13.05-3.91-20.21c-0.66-7.75-0.01-15.56-1.22-22.96      c-0.82-4.93-2.45-9.69-5.84-14.13c-0.68-0.9-1.49-1.96-2.39-3.17c-1.08-1.45-2.31-3.12-3.62-4.95      c-14.56-20.25-41.21-61.25-28.56-72c16.75-14.23,51.11,49.06,57.4,65.73c0.86,2.3,1.93,4.37,3.14,6.27      c5.93,9.33,15.52,14.62,23.48,22.11c0.05,0.05,0.1,0.09,0.15,0.14c2.8,2.65,5.36,5.46,7.68,8.42c2.37,3.02,4.49,6.19,6.37,9.5      c6.79,11.92,10.53,25.58,11.94,40.16c0.9,9.31,3.37,17.9,6.83,26.03c4.34,10.22,10.25,19.72,16.6,28.97      c6.61,9.61,13.66,18.93,19.95,28.53c4.18,6.4,7.99,12.92,11.4,19.6v0.01c0.14,0.27,0.28,0.54,0.41,0.82      c0.91,1.79,1.79,3.58,2.62,5.39c0.15,0.33,0.31,0.66,0.45,0.99c1.31,2.85,2.54,5.73,3.7,8.62      C1164.17,489.93,1168.39,515.43,1165.37,541.88z" class="color00e682 svgShape"></path><path fill="#43a1ff" d="M1121.37,620.5c-0.01,7.41-0.13,14.84-0.34,22.26c-0.07,2.66-0.17,5.32-0.27,7.98      c-0.07,1.87-0.15,3.74-0.23,5.61c0.01,0,0.01,0.01,0.01,0.01s0,0.01-0.01,0.01v0.01c-0.09,2.21-0.21,4.43-0.33,6.63      c-0.23,3.03-0.49,6.05-0.77,9.07c-0.07,0.96-0.17,1.91-0.25,2.86c0,0.01,0,0.01-0.01,0.03v0.01      c-1.24,13.48-2.81,26.84-4.72,40.12c-0.11,0.78-0.22,1.55-0.34,2.32c-3.44,3.45-6.79,6.95-10.06,10.47      c0.67-4.25,1.32-8.52,1.93-12.79c1.18-8.36,2.23-16.75,3.16-25.19l-0.01-0.01l0.01-0.02c0.37-3.36,0.71-6.75,1.02-10.14      c0.26-2.62,0.5-5.26,0.72-7.89c0-0.01,0-0.01,0-0.02c0.3-3.32,0.57-6.63,0.82-9.97c0.11-2.02,0.23-4.05,0.32-6.07      c0.22-4.35,0.4-8.69,0.54-13.03c0.25-7.42,0.4-14.84,0.44-22.26c0.06-7.41-0.01-14.83-0.17-22.24      c-0.37-17.04-1.27-34.1-2.71-51.26c-1.32-14.12-2.99-28.24-5.1-42.3c-0.76-5-1.57-10-2.44-14.99      c-1.97-11.41-3.06-17.1-5.48-28.44c-2.4-11.34-3.7-17.01-6.54-28.27c-2.48-9.44-5.13-18.78-7.94-28.04      c-3.91-12.91-8.12-25.65-12.64-38.24c-1.74-4.87-3.52-9.72-5.36-14.54c-3.45-9.07-7.06-18.05-10.82-26.96      c-5.18-12.27-10.68-24.39-16.49-36.36c-1.93-4.01-3.91-8-5.91-11.98c-1.73-3.43-3.49-6.86-5.28-10.27      c-8.67-16.57-17.94-32.88-27.8-48.93c10.81,15.99,20.91,32.3,30.33,48.93c2.2,3.88,4.37,7.78,6.49,11.69      c1.9,3.5,3.78,7.03,5.61,10.56c5.58,10.68,10.87,21.51,15.9,32.46c5.78,12.61,11.22,25.41,16.31,38.4      c1.1,2.8,2.17,5.61,3.24,8.43c4.46,11.75,8.61,23.66,12.48,35.74c2.91,9.04,5.67,18.16,8.27,27.39      c3.07,11.34,4.5,17.05,7.09,28.49c2.59,11.46,3.76,17.21,5.88,28.73c1.52,8.19,2.88,16.42,4.08,24.67      c1.63,11.08,2.99,22.2,4.15,33.33c1.06,12.09,1.87,24.13,2.4,36.16C1121.13,595.29,1121.4,607.9,1121.37,620.5z" class="color43ffad svgShape"></path></g></g><g fill="#000000" class="color000000 svgShape"><rect width="547" height="376.15" x="626.09" y="266.61" fill="#565a6b" class="color57566b svgShape"></rect><rect width="24.41" height="376.15" x="1173.09" y="266.61" fill="#373a45" transform="rotate(-180 1185.29 454.684)" class="color383745 svgShape"></rect><rect width="502.49" height="331.64" x="648.34" y="288.86" fill="#f0f7ff" class="colorf1f0ff svgShape"></rect><path fill="#d4e9ff" d="M892.15,481.12h-193.3c-7.76,0-14.06-6.29-14.06-14.06V325.89c0-7.76,6.29-14.06,14.06-14.06h193.3     c7.76,0,14.06,6.29,14.06,14.06v141.18C906.21,474.83,899.92,481.12,892.15,481.12z" opacity=".49" class="colorfeffd4 svgShape"></path><polygon fill="#5d678f" points="817.99 406.77 708.92 406.77 708.92 333.35 712.67 333.35 712.67 403.02 817.99 403.02" class="color605d8f svgShape"></polygon><rect width="20.74" height="59.22" x="723.08" y="343.8" fill="#a6d2ff" class="coloraba6ff svgShape"></rect><rect width="20.74" height="34.66" x="754.35" y="368.36" fill="#a6d2ff" class="coloraba6ff svgShape"></rect><rect width="20.74" height="47.58" x="784.02" y="355.44" fill="#a6d2ff" class="coloraba6ff svgShape"></rect><rect width="7.18" height="7.18" x="845.63" y="339.83" fill="#5d678f" class="color605d8f svgShape"></rect><rect width="27.04" height="4.39" x="857.48" y="342.62" fill="#5d678f" class="color605d8f svgShape"></rect><rect width="7.18" height="7.18" x="845.63" y="354.66" fill="#5d678f" class="color605d8f svgShape"></rect><rect width="27.04" height="4.39" x="857.48" y="357.46" fill="#5d678f" class="color605d8f svgShape"></rect><rect width="7.18" height="7.18" x="845.63" y="369.5" fill="#5d678f" class="color605d8f svgShape"></rect><rect width="27.04" height="4.39" x="857.48" y="372.29" fill="#5d678f" class="color605d8f svgShape"></rect><rect width="7.18" height="7.18" x="779.11" y="424.47" fill="#5d678f" class="color605d8f svgShape"></rect><rect width="27.04" height="4.39" x="790.96" y="427.26" fill="#5d678f" class="color605d8f svgShape"></rect><rect width="7.18" height="7.18" x="779.11" y="439.3" fill="#5d678f" class="color605d8f svgShape"></rect><rect width="27.04" height="4.39" x="790.96" y="442.09" fill="#5d678f" class="color605d8f svgShape"></rect><rect width="7.18" height="7.18" x="779.11" y="454.14" fill="#5d678f" class="color605d8f svgShape"></rect><rect width="27.04" height="4.39" x="790.96" y="456.93" fill="#5d678f" class="color605d8f svgShape"></rect><path fill="#a6d2ff" d="M761.08,446.49c0,14.4-11.68,26.08-26.08,26.08c-0.51,0-1.01-0.02-1.51-0.05     c-13.7-0.78-24.57-12.14-24.57-26.03c0-10.34,6.02-19.27,14.74-23.5c3.43-1.66,7.27-2.59,11.34-2.59     c9.54,0,17.88,5.12,22.42,12.76C759.75,437.07,761.08,441.62,761.08,446.49z" class="coloraba6ff svgShape"></path><path fill="#99c2eb" d="M757.42,433.17l-20.78,16.81l-12.98-26.99c3.43-1.66,7.27-2.59,11.34-2.59     C744.54,420.4,752.88,425.52,757.42,433.17z" class="color9d99eb svgShape"></path><path fill="#0575e6" d="M761.08,446.49c0,14.4-11.68,26.08-26.08,26.08c-0.51,0-1.01-0.02-1.51-0.05     c0.59-6.04,3.15-22.54,3.15-22.54l20.78-16.81C759.75,437.07,761.08,441.62,761.08,446.49z" class="color8885cc svgShape"></path><g fill="#000000" class="color000000 svgShape"><path fill="#293357" d="M946.22,382.66c0,0-3.64,10.37-1.73,16.75c1.91,6.38,5.1,11.49,5.1,11.49l5.26-26.16L946.22,382.66z" class="color462957 svgShape"></path><path fill="#d9ecff" d="M837.43,442.84c0,0,2.94,10.17,4.26,15.67c1.32,5.5,9.76,14.84,9.76,14.84l9.27-2.27l9.57-32.41     c0,0,0.96-4.8,0-5.04c-0.96-0.24-25.12,0.96-25.12,0.96L837.43,442.84z" class="colorffd9d9 svgShape"></path><path d="M841.02,443.84c0,0-0.53,5.18,3.05,5.5c3.59,0.32,7.9-1.04,7.9-1.04s-1.04,13.72,4.95,19.54     c5.98,5.82,14.12-30.71,14.12-30.71l-1.75-3.51l-19.7,1.28L841.02,443.84z" opacity=".3" fill="#000000" class="color000000 svgShape"></path><path fill="#badcff" d="M838.43,428.18c0,0-5.36,0.36-4.47,4.07c0.89,3.71,2.23,15.97,6.9,15.55c3.18-0.28,5.11-3.23,3.96-10.41     C843.66,430.22,842.9,427.11,838.43,428.18z" class="colorffbaba svgShape"></path><path fill="#badcff" d="M845.59,424.68c0,0-5.36,0.36-4.47,4.07s3.7,15.43,6.9,15.55c3.19,0.12,5.11-3.23,3.96-10.41     C850.83,426.71,850.06,423.6,845.59,424.68z" class="colorffbaba svgShape"></path><path fill="#badcff" d="M853.39,421.95c0,0-5.36,0.36-4.47,4.07c0.89,3.71,3.7,15.43,6.9,15.55c3.19,0.12,5.11-3.23,3.96-10.41     C858.62,423.98,857.86,420.87,853.39,421.95z" class="colorffbaba svgShape"></path><path fill="#badcff" d="M868.84,430.76c0,0-6.82-33.26-8.97-33.98c-2.15-0.72-6.22,2.03-4.67,9.21c1.56,7.18,4.91,27.64,4.91,27.64     L868.84,430.76z" class="colorffbaba svgShape"></path><path fill="#d9ecff" d="M868.85,469.28c0,0,10.43-20.1,11.01-23.33c0.59-3.23-1.52-17.11-3.05-17.83     c-1.52-0.72-25.08,3.11-24.49,5.5c0.59,2.39,6.18,6.34,13.81,4.79c0,0-7.25,4.19-10.3,10.89c-3.05,6.7,1.99,24.05,1.99,24.05     L868.85,469.28z" class="colorffd9d9 svgShape"></path><path fill="#3c4873" d="M933.33,467.72l-2.16,66.47c0,0-31.35,25.78-47.85,34.64c-16.51,8.85-29.91,1.19-35.42-16.76     c-5.5-17.95-4.55-81.2-4.55-81.2l33.97-4.78l6.38,52.64l3.86-3.96L933.33,467.72z" class="color3e3c73 svgShape"></path><polygon points="887.58 514.77 886.19 537.48 883.71 518.73" opacity=".3" fill="#000000" class="color000000 svgShape"></polygon><path fill="#414e7d" d="M1033.82,502.54c-0.23,4.3-7.41,105.05-7.41,105.05H919.45c0,0,1.68-75.38,2.39-94.99     c0.72-19.62,11.49-44.87,11.49-44.87l17.82-4.53l9.47-2.41h35.41l9.14,3.27l28.67,10.24     C1033.82,474.3,1034.07,498.24,1033.82,502.54z" class="color43417d svgShape"></path><path fill="#021b79" d="M954.91,563.16c0,2.99-1.03,5.41-2.31,5.41c-1.27,0-2.31-2.42-2.31-5.41s1.03-5.41,2.31-5.41     C953.88,557.74,954.91,560.17,954.91,563.16z" class="color252445 svgShape"></path><polygon fill="#3c4873" points="993.51 486.51 998.7 496.2 954.91 529.82 942.19 488.55 949.57 481.12 944.45 474.54 951.14 463.2 960.61 460.79 996.02 460.79 1005.15 464.06 1005.95 486.39" class="color3e3c73 svgShape"></polygon><path fill="#d0ddeb" d="M990.87,471.56l-19.7,29.28l-15.57,23.12c0,0-0.3-9.75-0.69-19.17c-0.06-1.32-0.11-2.64-0.17-3.93     c-0.48-10.4,1.8-28.59,1.8-28.59l24.4-7.53L990.87,471.56z" class="colord1d0eb svgShape"></path><path fill="#737373" d="M971.17,500.83l-15.57,23.12c0,0-0.3-9.75-0.69-19.17l9.77-22.46l5.74-1.2     C970.41,481.12,970.81,491.71,971.17,500.83z" class="color737373 svgShape"></path><path fill="#737373" d="M963.96,472.63c0,0-2.99,8.85,0,12.08c2.99,3.23,11.17-3.47,10.97-3.83c-0.2-0.36,2.19-8.26,2.19-8.26     H963.96z" class="color737373 svgShape"></path><path fill="#e2f0ff" d="M966.95,456.72l-7.66,1.32l-8.14,19.26l9.81-3.71l7.42,4.55l13.4-2.51l5.86,10.05     c0,0,11.84-21.42,11.01-25.36c-0.84-3.95-12.08-5.62-12.08-5.62L966.95,456.72z" class="colore3e2ff svgShape"></path><path fill="#badcff" d="M964.08,449.66l-1.56,12.2l5.86,16.27c0,0,23.33-15.07,23.21-16.87c-0.12-1.79,1.91-28.83,1.91-28.83     L964.08,449.66z" class="colorffbaba svgShape"></path><path fill="#d9ecff" d="M948.96,386.49c0,0-3.19,14.68-2.55,19.3c0.64,4.63,1.11,9.73-0.08,16.11     c-1.19,6.38,8.38,27.92,18.43,31.59c10.05,3.67,31.59-17.39,35.09-30.31c3.51-12.92,0-36.69,0-36.69s-19.14-5.42-19.94-5.74     c-0.8-0.32-27.76-0.48-27.76-0.48L948.96,386.49z" class="colorffd9d9 svgShape"></path><path fill="#293357" d="M960.93,390.16c-11.3-0.79-18.03-2.55-18.98-11.17c-0.96-8.61,9.41-17.39,18.98-17.55     c9.57-0.16,29.6,1.91,40.48,14.36c10.88,12.44,13.75,14.99,9.61,24.09c-4.15,9.09-10.07,17.2-10.07,17.2s-2.86-5.56-3.81-12.1     c-0.96-6.54-3.83-5.58-4.95-12.6C992.19,392.39,966.8,390.57,960.93,390.16z" class="color462957 svgShape"></path><ellipse cx="1003.88" cy="413.47" fill="#d9ecff" rx="9.65" ry="6.54" transform="rotate(-80.166 1003.899 413.471)" class="colorffd9d9 svgShape"></ellipse><ellipse cx="954.66" cy="539.6" fill="#021b79" rx="2.31" ry="5.41" class="color252445 svgShape"></ellipse><rect width="231.62" height="20.83" x="864.73" y="599.68" fill="#4a4f61" class="color60614a svgShape"></rect><path fill="#d9ecff" d="M957.82,599.45c0,0,0.77,1.37,0.99,2.92c0.25,1.68-0.14,3.59-2.83,4.25c-5.18,1.27-10.13-2.24-10.13-2.24     c-1.12,0.01-2.05-0.08-2.86-0.24c-4.22-0.85-4.55-3.66-4.55-3.66c-0.88-0.18-1.66-0.39-2.34-0.65c-5.17-1.89-4.83-5.58-4.7-6.32     l0.03-0.13c0,0-1.08-0.39-2.22-1.05c-1.26-0.73-2.61-1.78-2.81-3.02c-0.39-2.4,7.67-26.17,14.12-26.17     c6.46,0,44.42,12.13,44.42,12.13l2.34,14.04l0.29,1.75c0,0-8.61,5.98-16.91,7.25C962.36,599.61,957.82,599.45,957.82,599.45z" class="colorffd9d9 svgShape"></path><g opacity=".3" fill="#000000" class="color000000 svgShape"><path d="M929.2 592.34l5.41-8.6-3.19 9.65C931.42 593.39 930.34 593 929.2 592.34zM936.09 599.84l3.85-10.12-1.51 10.77C937.56 600.31 936.78 600.09 936.09 599.84zM942.99 604.15l4.44-9.18c-.09.45-1.66 7.73-1.58 9.43C944.73 604.4 943.8 604.32 942.99 604.15z" fill="#000000" class="color000000 svgShape"></path></g><path d="M957.82,599.45c0,0,0.77,1.37,0.99,2.92l-2.51-0.85c0,0-2.95-0.48-1.36-2.31c1.6-1.84,7.74-1.04,14.36-3.59     c4.11-1.58,12.32-4.4,17.98-6.3l0.29,1.75c0,0-8.61,5.98-16.91,7.25C962.36,599.61,957.82,599.45,957.82,599.45z" opacity=".3" fill="#000000" class="color000000 svgShape"></path><path fill="#465487" d="M1069.72,598.97c-15.55,7.89-85.18,0-85.18,0l-2.16-30.87l51.55-9.09c0,0-1.22-2.1-2.95-5.21     c-4.02-7.16-10.82-19.64-12-23.98c-1.67-6.22,14.84-55.52,14.84-55.52s29.67,45.95,39.96,70.83     C1084.07,570.02,1085.27,591.07,1069.72,598.97z" class="color484687 svgShape"></path><path d="M1058.24,556.61c0.71,0-24.3,2.4-24.3,2.4s-1.22-2.1-2.95-5.21     C1046.85,552.64,1057.61,556.61,1058.24,556.61z" opacity=".3" fill="#000000" class="color000000 svgShape"></path></g><rect width="143.57" height="49.53" x="857.41" y="642.76" fill="#4a4e5c" class="color4b4a5c svgShape"></rect><rect width="17.05" height="49.53" x="1000.98" y="642.76" fill="#373a45" transform="rotate(-180 1009.507 667.524)" class="color383745 svgShape"></rect><rect width="263.75" height="22.81" x="796.16" y="692.29" fill="#565a6b" class="color57566b svgShape"></rect><rect width="234.02" height="11.41" x="685.43" y="703.7" fill="#969696" class="color969696 svgShape"></rect><rect width="214.87" height="5.9" x="695" y="697.79" fill="#b3b3b3" class="colorb3b3b3 svgShape"></rect><rect width="5.9" height="5.9" x="909.88" y="697.79" fill="#969696" transform="rotate(-180 912.83 700.745)" class="color969696 svgShape"></rect><rect width="6.92" height="11.41" x="919.45" y="703.7" fill="#7d7d7d" transform="rotate(-180 922.91 709.399)" class="color7d7d7d svgShape"></rect><rect width="19.38" height="22.81" x="1059.91" y="692.29" fill="#373a45" transform="rotate(-180 1069.599 703.696)" class="color383745 svgShape"></rect><path fill="#4a4f61" d="M1116.44,715.1c-0.78,0.78-1.56,1.55-2.32,2.32c-3.44,3.45-6.79,6.95-10.06,10.47    c-28.11,30.16-51.06,61.54-79.68,75.71c-6.63,3.28-13.56,5.64-20.94,6.84c-7.97,1.3-16.45,1.26-25.6-0.42    c-70.35-12.92-91.88-10.77-180.18,20.32c-78.7,27.7-134.01,50.33-215.75,15.44c-5.56-2.37-11.25-5.01-17.07-7.94V715.1H1116.44z" class="color60614a svgShape"></path><g opacity=".5" fill="#000000" class="color000000 svgShape"><polygon fill="#ffffff" points="759.16 620.51 679.52 620.51 922.15 288.86 1001.79 288.86" class="colorffffff svgShape"></polygon><polygon fill="#ffffff" points="837.78 620.51 776.67 620.51 1019.3 288.86 1080.41 288.86" class="colorffffff svgShape"></polygon></g></g><g fill="#000000" class="color000000 svgShape"><path fill="#bddeff" d="M508.96,599.61l-89.29-3.51l3.51-44.03c0,0,14.94-5.7,27.36-10.28c8.36-3.08,15.59-5.67,16.35-5.67    c1.91,0,31.57,10.22,31.57,10.22l4.37,22.15L508.96,599.61z" class="colorffbdbd svgShape"></path><polygon fill="#c0c6cc" points="411.06 579.19 519.05 582.38 524.79 604.71 404.36 602.16" class="colorc1c0cc svgShape"></polygon><path fill="#cfd5db" d="M594.65,850.82c-4.18-1.52-8.43-3.21-12.75-5.05c-5.56-2.37-11.25-5.01-17.07-7.94    c-4.62-2.32-9.32-4.81-14.12-7.5c-0.68-0.38-1.38-0.77-2.05-1.14c-7.26-3.97-14.07-7.26-20.48-9.96    c-16.32-6.87-30.06-9.86-42.2-10.36c-4.86-0.2-9.47,0-13.86,0.52c-7.13,0.83-13.75,2.48-20.1,4.59c-2.67,0.87-5.3,1.84-7.89,2.85    c-2.5,0.97-4.99,2-7.46,3.05c-7.09,2.99-14.12,6.18-21.51,8.97c-0.99,0.37-1.99,0.75-2.99,1.11c-2.03,0.72-4.09,1.42-6.19,2.06    c-1.66,0.51-3.35,0.98-5.05,1.43c-0.99,0.26-2.01,0.51-3.02,0.74c-1.63,0.38-3.28,0.72-4.97,1.02c-8.93,1.63-18.7,2.18-29.78,0.96    c-0.88-0.09-1.77-0.2-2.67-0.32c-8.27-1.11-15.14-3.17-20.86-6.03c-0.52-5.49-1.04-11.25-1.57-17.16    c-2.57-28.7-5.19-60.92-6.26-83.71c-0.17-3.45-0.29-6.69-0.37-9.66c-0.02-0.4-0.03-0.8-0.04-1.19c-0.08-3.01-0.1-5.74-0.08-8.12    c0.02-2.62,0.16-5.3,0.41-8.03c0.59-6.5,1.81-13.24,3.5-20c1.29-5.17,2.86-10.37,4.66-15.47c1.14-3.3,2.38-6.55,3.7-9.76    c0.94-2.28,1.91-4.53,2.92-6.74c8.67-19.08,19.65-35.19,29.02-42.33c0.48-0.37,0.95-0.71,1.42-1.03c2.28-1.55,5.22-2.85,8.62-3.95    c1.27-0.4,2.6-0.79,3.98-1.13c2.34-0.6,4.84-1.12,7.44-1.57c2.69-0.46,5.5-0.85,8.37-1.19c15.06-1.75,31.84-1.79,42.67-1.55    c0.56,0.01,1.11,0.03,1.64,0.04c0.28,0.01,0.56,0.02,0.84,0.03c5.55,0.15,9.02,0.36,9.02,0.36c19.36-0.85,35.64-0.32,49.32,1.3    c5.43,0.65,10.46,1.45,15.11,2.43c16.18,3.36,27.82,8.58,36.28,14.9c0,0,0,0,0.01,0.01c13.1,9.77,18.56,22.17,21.36,34.35    c1.68,7.3,3.45,26.28,5.15,50.35c0.16,2.2,0.32,4.44,0.47,6.73c1.09,16.05,2.13,33.95,3.1,51.98c0.12,2.2,0.23,4.4,0.35,6.61    c1.27,23.97,2.38,47.75,3.24,67.2c0.01,0.26,0.03,0.52,0.04,0.79C594.19,840.27,594.43,845.82,594.65,850.82z" class="colord0cfdb svgShape"></path><path d="M594.65,850.82c-4.18-1.52-8.43-3.21-12.75-5.05c-5.56-2.37-11.25-5.01-17.07-7.94    c-4.62-2.32-9.32-4.81-14.12-7.5c-0.68-0.38-1.38-0.77-2.05-1.14l-1.91-14.84l-0.91-7.05l-1.54-11.99l-2.39-18.56l-0.97-7.48    l-0.03-0.25l-3.84-29.87l53.22,20.55c0.12,2.2,0.23,4.4,0.35,6.61c1.27,23.97,2.38,47.75,3.24,67.2c0.01,0.26,0.03,0.52,0.04,0.79    C594.19,840.27,594.43,845.82,594.65,850.82z" opacity=".3" fill="#000000" class="color000000 svgShape"></path><path fill="#dbedff" d="M827.73,642.04c-1.95-0.65-3.38-1.78-4.43-2.98c-2.03-2.35-2.59-5-2.59-5s-12.13,35.73-19.47,50.09    c-4.96,9.7-21.86,18.97-32.3,23.95c-5.01,2.39-8.53,3.8-8.53,3.8l-24.88-24.89c0,0,15.95-68.91,17.54-76.89    c1.59-7.98,46.9-68.59,51.37-68.59c4.46,0,6.38,10.21,0,17.86c-6.38,7.66-23.29,36.37-23.29,36.37s11.8-5.74,17.54-3.82    c5.75,1.91,5.11,2.71,15.95,5.18c10.85,2.47,20.74,12.36,24.25,17.15C842.4,619.07,833.47,643.96,827.73,642.04z" class="colorffdbdb svgShape"></path><path d="M823.29,639.06c-2.03-2.35-2.59-5-2.59-5s-12.13,35.73-19.47,50.09c-4.96,9.7-21.86,18.97-32.3,23.95    c-2.97-3.74-5.82-7.37-5.82-7.37s30.63-10.21,35.26-18.5c4.63-8.29,19.78-52,19.78-52s8.77-4.31,9.41,0    C828.07,633.67,825.04,637.2,823.29,639.06z" opacity=".3" fill="#000000" class="color000000 svgShape"></path><path fill="#c0c6cc" d="M778.75,715.74c0,0-55.51,103.85-83.27,125.86c-22.25,17.65-52.5,24.84-85.56,4.07    c-8.18-5.14-16.53-11.99-24.99-20.81c-42.59-44.51-53.6-66.52-57.42-100.98c-3.83-34.45,32.71-107.58,32.71-107.58    s16.42,4.69,40.03,54.46c23.62,49.77,53.61,80.4,53.61,80.4l74.66-73.7c0,0,30.52-6.57,45.74,25.78    C775.97,706.88,777.48,711.03,778.75,715.74z" class="colorc1c0cc svgShape"></path><path d="M548.03 699.47l60.35 2.39C608.38 701.86 573.35 718.13 548.03 699.47zM568.66 814.32l-63.17-49.29C505.49 765.03 521.77 807.14 568.66 814.32zM653.85 751.15c0 0 17.55 12.12 25.04 24.09 7.5 11.96 9.57 24.57 9.57 24.57s1.44-20.9-5.58-32.86c-7.02-11.96-25.2-15.79-25.2-15.79l41.63 9.25c0 0-24.57-11.8-33.34-11.49C657.2 749.24 653.85 751.15 653.85 751.15z" opacity=".3" fill="#000000" class="color000000 svgShape"></path><path d="M778.75 715.74c0 0-55.51 103.85-83.27 125.86-22.25 17.65-52.5 24.84-85.56 4.07.02 0 .03.01.05.02 37.94 17.97 85.28-.97 113.76-41.66 23.86-34.09 44.48-85.16 50.53-100.79C775.97 706.88 777.48 711.03 778.75 715.74zM380.59 703.95l-27.76 70.41C352.83 774.36 383.94 724.23 380.59 703.95zM415.8 816.11c-.2 4.38-.41 8.65-.64 12.75-.99.37-1.99.75-2.99 1.11v-98.43c1.42 4.68 2.45 10.79 3.15 17.84.07.7.14 1.42.2 2.16.32 3.49.55 7.18.72 11.02C417 779.12 416.59 798.46 415.8 816.11zM502.83 568.49c-19.54-6.04-44.11-21.39-52.29-26.7 8.36-3.08 15.59-5.67 16.35-5.67 1.91 0 31.57 10.22 31.57 10.22L502.83 568.49z" opacity=".3" fill="#000000" class="color000000 svgShape"></path><path fill="#bddeff" d="M536.76,455.93c0,0,19.53,23.58,19.75,31.57c0.22,8-15.67,16.92-15.67,16.92L536.76,455.93z" class="colorffbdbd svgShape"></path><path fill="#dbedff" d="M528.15,403.72c0,0,11.8,27.76,12.12,44.03c0.32,16.27,3.51,16.59,6.38,36.37    c2.87,19.78,1.28,34.78-4.79,54.88c-6.06,20.1-21.69,17.55-36.69,17.55c-14.99,0-60.94-15.31-60.94-15.31s-18.5-61.89-18.5-64.13    s11.17-52.64,11.17-52.64l37.65-16.27L528.15,403.72z" class="colorffdbdb svgShape"></path><path fill="#4d505c" d="M521.45,412.65c0,0,11.8,22.97,9.89,31.59c-1.91,8.61-4.84,17.55-4.84,17.55s-6.01,49.13-36,73.38    c-29.99,24.25-52.96,23.82-69.87,21.48c-16.91-2.34-12.12-25.95-28.71-47.64c-16.59-21.69-25.84-61.89-11.49-87.74    c14.36-25.84,32.86-32.54,32.86-32.54s9.7-17.55,39.15-19.78c29.45-2.23,28.81-22.97,52.1-24.57c23.29-1.6,46.9,29.03,39.88,47.86    C537.4,411.06,521.45,412.65,521.45,412.65z" class="color4e4d5c svgShape"></path><ellipse cx="513.63" cy="476.17" fill="#dbedff" rx="14.6" ry="25.17" class="colorffdbdb svgShape"></ellipse><path d="M520.52,484.69c-0.05-0.51-0.31-0.99-0.78-1.28c-0.78-0.5-1.81-0.26-2.31,0.52l-0.06,0.09l-1.19,1.89    c-0.63-2.07-0.99-4.41-1.29-6.68c-0.15-1.23-0.25-2.46-0.27-3.67c-0.01-0.6-0.01-1.2,0.04-1.76c0.04-0.56,0.12-1.12,0.22-1.48    c0.04-0.13,0.07-0.2,0.07-0.2c0.01-0.02,0.03-0.04,0.05-0.06c0.07,0.03,0.14,0.07,0.24,0.14c0.65,0.46,1.38,1.55,1.89,2.46    l0.09,0.17c0.23,0.41,0.65,0.71,1.15,0.77c0.83,0.1,1.59-0.5,1.7-1.33c0.23-1.95,0.37-3.83,0.41-5.76    c0.02-1.94-0.04-3.87-0.51-5.89c-0.13-0.5-0.28-1.01-0.56-1.53c-0.27-0.5-0.67-1.07-1.38-1.37c-0.34-0.16-0.74-0.19-0.98-0.16    c-0.29,0-0.56,0.02-0.83,0.09c-0.54,0.09-1.04,0.33-1.49,0.59c-1.76,1.12-2.8,2.82-3.55,4.55c0.56-0.77,1.18-1.47,1.86-2.08    c0.67-0.62,1.42-1.15,2.21-1.44c0.39-0.14,0.79-0.26,1.17-0.26c0.19-0.03,0.38-0.01,0.57,0.02c0.22,0.02,0.29,0.06,0.37,0.12    c0.33,0.21,0.59,1.03,0.67,1.86c0.21,1.69,0.03,3.53-0.16,5.33c-0.07,0.52-0.14,1.04-0.22,1.57c-0.11-0.1-0.22-0.21-0.34-0.31    c-0.36-0.29-0.79-0.57-1.34-0.78c-0.28-0.1-0.64-0.15-0.95-0.2c-0.35,0.01-0.71,0.05-1.04,0.13c-0.3,0.11-0.62,0.24-0.89,0.4    c-0.22,0.16-0.44,0.34-0.65,0.52c-0.54,0.52-0.76,1.08-0.92,1.49c-0.3,0.87-0.39,1.6-0.46,2.32c-0.07,0.72-0.08,1.42-0.08,2.1    c0,1.37,0.09,2.71,0.22,4.05c0.28,2.68,0.74,5.27,1.66,7.98c0.13,0.34,0.27,0.69,0.44,1.06c0.19,0.37,0.37,0.74,0.75,1.22    c0.21,0.22,0.46,0.53,1.06,0.81c0.28,0.13,0.71,0.22,1.13,0.17c0.35-0.04,0.64-0.16,0.87-0.3c-0.04,0.21-0.07,0.4-0.13,0.59    c-0.1,0.45-0.29,0.76-0.45,1.02c-0.05,0.06-0.09,0.08-0.14,0.13c-0.04,0.06-0.07,0.09-0.12,0.1c-0.05,0.02-0.09,0.06-0.14,0.09    c-0.08,0.01-0.17,0.03-0.24,0.06c-0.69,0.16-1.66-0.03-2.52-0.44c-0.89-0.41-1.71-1.06-2.43-1.81c-0.74-0.74-1.39-1.61-1.91-2.57    c-1.07-1.89-1.75-4.07-2.11-6.33c-0.19,2.28,0.07,4.65,0.9,6.89c0.81,2.23,2.23,4.38,4.43,5.79c1.1,0.68,2.42,1.26,4,1.09    l0.59-0.08c0.22-0.07,0.43-0.16,0.65-0.25c0.11-0.04,0.21-0.08,0.3-0.15c0.1-0.06,0.2-0.12,0.28-0.2    c0.18-0.13,0.37-0.27,0.52-0.42c0.56-0.62,0.96-1.3,1.18-1.94c0.5-1.3,0.68-2.55,0.77-3.78c0.04-0.52,0.06-1.04,0.06-1.56    C520.6,486.12,520.57,485.43,520.52,484.69z" opacity=".3" fill="#000000" class="color000000 svgShape"></path></g></svg>