<svg xmlns="http://www.w3.org/2000/svg" enable-background="new 0 0 450 450" viewBox="0 0 450 450" id="BusinessPresentation"><path fill="#021b79" d="M10.484 398.168h429.508v4H10.484z" class="color1a3a49 svgShape"></path><path fill="#0e1738" d="M372.759 52.41v183.82a4.582 4.582 0 0 1-4.578 4.587H127.169a4.582 4.582 0 0 1-4.578-4.587V52.41a4.58 4.58 0 0 1 4.578-4.578h241.012a4.58 4.58 0 0 1 4.578 4.579z" class="color0e1738 svgShape"></path><path fill="#e8f2fd" d="M127.988 53.229h239.374V235.42H127.988z" class="colore8e9fd svgShape"></path><path fill="#a7b6c6" d="M144.503 90.685h206.345v1H144.503zM144.503 126.111h206.345v1H144.503zM144.503 161.538h206.345v1H144.503zM144.503 196.965h206.345v1H144.503z" class="colora7abc6 svgShape"></path><path fill="#a7b6c6" d="M169.015 69.497h1v149.655h-1zM208.095 69.497h1v149.655h-1zM247.175 69.497h1v149.655h-1zM286.255 69.497h1v149.655h-1zM325.335 69.497h1v149.655h-1z" class="colora7abc6 svgShape"></path><path fill="#708efe" d="m259.638 398.006 9.644-62.153h3.484l-9.644 62.153zM282.41 398.006l-9.644-62.153h3.483l9.644 62.153z" class="colorfe8b70 svgShape"></path><path fill="#708efe" d="M263.641 339.184h16.95v6.164h-16.95z" class="colorfe8b70 svgShape"></path><path fill="#bdddfe" d="M188.265 266.81c-2.544 3.177-22.567 8.522-22.567 8.522l-7.579-14.9s10.585-14.895 13.63-14.543c3.01.356-1.13 8.397-1.13 8.397 1.543-1.032 13.034-8.693 13.703-5.103.245 1.305-1.546 3.865-2.49 4.695 3.362-1.604 8.557-2.954 8.98-1.215.591 2.422-3.54 4.263-5.01 4.838 1.52-.53 5.964-1.87 6.074.624.068 1.517-5.155 3.922-6.68 4.77 1.308-.192 4.73 1.847 3.07 3.915z" class="colorfec3bd svgShape"></path><path fill="#060e2d" d="m45.198 398.006 1.188-15.762h8.753l-1.188 15.762zM114.833 398.006l-1.188-15.762h8.752l1.188 15.762z" class="color06112d svgShape"></path><path fill="#070f2b" d="M35.088 384.479h83.55a3.746 3.746 0 0 0 0-7.492h-83.55L17.468 245.62a3.746 3.746 0 0 0-7.426.995l17.594 131.338c.492 3.717 3.696 6.526 7.452 6.526z" class="color070d2b svgShape"></path><path fill="#0e1738" d="M86.871 242.405a3.744 3.744 0 0 1 4.21 3.215l17.62 131.367h59.957a3.746 3.746 0 0 1 0 7.492h-50.02a3.746 3.746 0 0 0 0-7.492h-83.55L17.468 245.62a3.744 3.744 0 0 0-4.21-3.215H86.87z" class="color0e1738 svgShape"></path><path fill="#479ff7" d="m139.042 398.006-7.504-31.961-43.667-16.501-14.403-9.739 17.999-4.326 1.545-.572 11.387-4.223 6.262 3.509 41.146 6.698c8.4.853 15.339 6.94 17.268 15.152l8.095 41.963h-38.128z" class="color47adf7 svgShape"></path><path fill="#2183e5" d="m139.042 398.006-7.504-31.961-43.667-16.501-14.403-9.739 17.999-4.326 1.545-.572 9.477 2.266 22.503 3.203c10.92 1.47 18.926 11.013 18.467 22.026l-.842 35.604h-3.575z" class="color218ae5 svgShape"></path><path fill="#479ff7" d="m100.841 398.006-.086-20.64h-23.26c-15.952 0-29.144-12.446-30.07-28.373l.477-23.547 49.016 11.725 22.498 3.204c10.922 1.47 18.927 11.017 18.472 22.028l-.891 35.603h-36.156z" class="color47adf7 svgShape"></path><path fill="#3a81c9" d="M82.008 273.13s8.274 12.06 17.685 21.855c5.992 6.232 12.445 11.548 17.522 12.266 2.052.29 4.445.06 7.06-.564 19.66-4.692 44.225-30.634 44.225-30.634l-10.528-17.889-35.586 18.744-24.22-37.363-16.158 33.585z" class="color3a6dc9 svgShape"></path><path fill="#1c68b5" d="M99.693 294.985c5.992 6.232 12.445 11.548 17.522 12.266 2.052.29 4.445.06 7.06-.564-9.633-13.47-22.292-52.858-22.292-52.858l-2.29 41.156z" class="color1c5ab5 svgShape"></path><path fill="#3a81c9" d="M37.296 268.215c1.752 12.88 4.992 26.164 5.667 32.737.051.401 3.154 24.976 3.786 35.762.06.94.094 1.77.111 2.48.624 8.017 68.842 1.726 68.218-6.3 0 0-5.788-16.462-7.764-34.926-2.185-20.414-2.91-44.493-7.408-55.597-2.846-7.035-13.94-9.834-19.291-10.603-6.078-.863-13.514-.71-20.625.342-2.035.3-4.625.65-7.428 1.41-5.462 1.462-12.394 3.607-14.283 7.625-2.864 6.077-2.436 16.437-.983 27.07z" class="color3a6dc9 svgShape"></path><path fill="#1c68b5" d="M37.296 268.215c1.752 12.88 4.992 26.164 5.667 32.737.051.401 3.154 24.976 3.786 35.762l50.352-3.805.511-21.406-38.682-12.158s1.658-31.908 0-39.43c-1.65-7.522-7.07-14.676-7.07-14.676l-14.564 22.976z" class="color1c5ab5 svgShape"></path><path fill="#060e2d" d="M87.787 175.32a50.82 50.82 0 0 1 6.868 8.043c.8 1.163 1.582 2.485 1.42 3.886-.182 1.574-1.526 2.78-2.961 3.451-3.015 1.41-6.823.992-9.407-1.106a8.788 8.788 0 0 1-3.171-5.937 8.788 8.788 0 0 1 2.025-6.419" class="color06112d svgShape"></path><path fill="#bdddfe" d="M75.061 243.928c-8.989-1.241-16.14-11.172-16.127-11.45.287-6.634.19-22.017-.871-26.877-.236-1.071.832-1.956 1.84-1.53l21.52 8.996c.66.278.99 1.027.742 1.703a27.377 27.377 0 0 0-1.15 4.252c-.58 3.13-.593 6.027-.444 8.163.032.467.051 1.276.078 2.206v.007c.048 2.388.01 3.809.078 4.165.035.175-.586 11.067-5.666 10.365z" class="colorfec3bd svgShape"></path><path fill="#89bdf1" d="m80.598 227.745-14.153-8.936c-2.94-5.123 12.067-2.816 12.067-2.816s1.15.193 2.17.606c-.244 3.171-.206 10.216-.084 11.146z" class="colorf18b89 svgShape"></path><path fill="#bdddfe" d="M83.613 222.91c-12.204 3.457-23.297-8.734-26.355-13.826v-.006a30.968 30.968 0 0 1-1.1-1.99 1.318 1.318 0 0 0-.463-.518c-1.596-1.038-8.826-6.057-7.086-10.613 1.137-2.966 3.14-3.341 4.62-3.133.871.122 1.619-.652 1.49-1.522-3.488-23.633 22.6-22.943 29.913-12.35.322.464.652 1.036.983 1.702 4.793 9.488 11.108 38.54-2.002 42.255z" class="colorfec3bd svgShape"></path><path fill="#060e2d" d="m59.034 193.792-.043 2.53a1.3 1.3 0 0 1-.27.784c.265-.637-.402-1.694-.296-2.407.046-.344.282-.638.61-.907z" class="color06112d svgShape"></path><ellipse cx="72.809" cy="197.727" fill="#060e2d" rx="1.497" ry="2.246" transform="rotate(-3.36 72.81 197.727)" class="color06112d svgShape"></ellipse><path fill="#060e2d" d="M70.486 194.51a.5.5 0 0 1-.317-.887c2.934-2.401 4.837-.785 4.917-.715a.5.5 0 0 1-.656.754c-.065-.054-1.387-1.098-3.628.736a.497.497 0 0 1-.316.113z" class="color06112d svgShape"></path><path fill="#89bdf1" d="M81.856 209.449a.5.5 0 0 1-.338-.87c.403-.368.63-.852.64-1.362a1.818 1.818 0 0 0-.567-1.336c-.177-.173-.382-.325-.587-.477a10.679 10.679 0 0 1-.43-.332c-.985-.815-1.654-1.966-1.937-3.33-.246-1.185-.189-2.37-.133-3.516.013-.276.273-.48.523-.475a.5.5 0 0 1 .476.523c-.053 1.084-.107 2.204.113 3.265.165.794.576 1.918 1.595 2.762.125.104.258.202.39.3.241.18.481.361.69.564.571.56.879 1.295.866 2.07-.013.787-.356 1.527-.964 2.083a.499.499 0 0 1-.337.13zM78.136 215.714c-1.935 0-3.854-.997-4.952-2.593a.5.5 0 0 1 .824-.567c.959 1.393 2.664 2.238 4.357 2.154a.507.507 0 0 1 .525.474.5.5 0 0 1-.475.525 5.331 5.331 0 0 1-.28.007z" class="colorf18b89 svgShape"></path><path fill="#bdddfe" d="M83.613 222.91c-12.204 3.457-23.297-8.734-26.355-13.826v-.006a30.968 30.968 0 0 1-1.1-1.99 1.318 1.318 0 0 0-.463-.518c-1.596-1.038-8.826-6.057-7.086-10.613 1.137-2.966 3.14-3.341 4.62-3.133.871.122 1.619-.652 1.49-1.522-3.488-23.633 22.6-22.943 29.913-12.35.322.464.652 1.036.983 1.702 4.793 9.488 11.108 38.54-2.002 42.255z" class="colorfec3bd svgShape"></path><path fill="#060e2d" d="M106.54 173.483c.175 1.81-1.16 4.402-1.875 5.398-1.513 2.08-3.725 3.713-6.116 4.614-3.8 1.434-7.936 1.477-11.945 1.291-4.081-.188-8.152-.547-12.16-1.348-2.881-.575-6.696-2.72-9.415-.626-.26.514.452 2.232.515 2.827.3 2.973-1.824 5.628-4.337 6.944-.918.486-2.596.878-2.782 2.116-.106.713.561 1.77.296 2.407a1.324 1.324 0 0 1-.89.532 1.35 1.35 0 0 1-1.453-.858c-.562-1.478-.942-3.62-2.824-3.965-2.277-.412-4.167 1.098-4.945 3.145-1 2.622.958 5.263 2.695 7.045 1.807 1.859 4.427 3.029 5.561 5.386 2.352 4.853 2.054 10.629 2.2 15.875.002.008-.004.04.005.048-.27-.343-.541-.695-.804-1.047-4.656-6.234-9.056-12.813-12.702-19.695-1.394-2.685-10.292-17.192-5.053-32.41 1.127-3.273 11.456-8.714 14.736-8.212.107-.081.222-.163.346-.23-.323-1.222.467-2.605 1.58-3.284 1.206-.735 2.67-.85 4.08-.954 4.182-.29 8.363-.587 12.553-.877 1.587-.11 3.174-.226 4.767-.255 2.67-.049 5.351.056 7.998.438 2.156.316 5.502.635 7.113 2.258.713.721 1.012 1.945.367 2.806.374-.5 3.188-.049 3.713.031 1.338.218 2.644.65 3.845 1.292 2.809 1.513 5.077 4.493 4.068 7.821-.238-.038-.483-.067-.694.03-.22.099-.367.378-.246.579.122.217.47.198.65.03s.25-.425.312-.665c.529.33.782.87.84 1.513z" class="color06112d svgShape"></path><path fill="#060e2d" d="M48.87 209.42c.339.571.697 1.134 1.045 1.701-.35-.56-.698-1.125-1.046-1.702zM58.993 223.243c-.204-.32-.45-.71-.727-1.151.244.382.48.772.727 1.151zM57.451 222.176a138.31 138.31 0 0 1-7.536-11.055 171.164 171.164 0 0 0 7.536 11.055zM58.72 197.106c-.1.267-.36.457-.89.532.37-.054.686-.249.89-.532zM105.682 171.955a4.19 4.19 0 0 1-.464 1c-.434.043-.627-.655-.292-.932.213-.17.505-.17.756-.068z" class="color06112d svgShape"></path><ellipse cx="72.809" cy="197.727" fill="#060e2d" rx="1.497" ry="2.246" transform="rotate(-3.36 72.81 197.727)" class="color06112d svgShape"></ellipse><path fill="#060e2d" d="M70.486 194.51a.5.5 0 0 1-.317-.887c2.934-2.401 4.837-.785 4.917-.715a.5.5 0 0 1-.656.754c-.065-.054-1.387-1.098-3.628.736a.497.497 0 0 1-.316.113z" class="color06112d svgShape"></path><ellipse cx="85.463" cy="197.564" fill="#060e2d" rx="1.497" ry="2.246" transform="rotate(-3.36 85.463 197.564)" class="color06112d svgShape"></ellipse><path fill="#060e2d" d="M83.14 194.348a.5.5 0 0 1-.317-.887c2.933-2.401 4.837-.786 4.917-.716a.5.5 0 0 1-.656.755c-.06-.05-1.382-1.103-3.628.735a.497.497 0 0 1-.316.113z" class="color06112d svgShape"></path><path fill="#89bdf1" d="M81.856 209.449a.5.5 0 0 1-.338-.87c.403-.368.63-.852.64-1.362a1.818 1.818 0 0 0-.567-1.336c-.177-.173-.382-.325-.587-.477a10.679 10.679 0 0 1-.43-.332c-.985-.815-1.654-1.966-1.937-3.33-.246-1.185-.189-2.37-.133-3.516.013-.276.273-.48.523-.475a.5.5 0 0 1 .476.523c-.053 1.084-.107 2.204.113 3.265.165.794.576 1.918 1.595 2.762.125.104.258.202.39.3.241.18.481.361.69.564.571.56.879 1.295.866 2.07-.013.787-.356 1.527-.964 2.083a.499.499 0 0 1-.337.13zM78.136 215.714c-1.935 0-3.854-.997-4.952-2.593a.5.5 0 0 1 .824-.567c.959 1.393 2.664 2.238 4.357 2.154a.507.507 0 0 1 .525.474.5.5 0 0 1-.475.525 5.331 5.331 0 0 1-.28.007z" class="colorf18b89 svgShape"></path><path fill="#a7b6c6" d="M131.253 321.275H175.1v6.534h-49.832v-.55a5.985 5.985 0 0 1 5.985-5.984z" class="colora7abc6 svgShape"></path><path fill="#a7b6c6" d="M181.313 327.81H153.13l8.37-51.966a4.307 4.307 0 0 1 4.258-3.684h15.556v55.65z" class="colora7abc6 svgShape"></path><path fill="#d7e5f4" d="M157.232 327.81h58.028a7.706 7.706 0 0 0 7.625-6.596l7.237-44.13c.383-2.59-1.632-4.923-4.258-4.923H169.86a4.307 4.307 0 0 0-4.258 3.683l-8.37 51.966z" class="colord7daf4 svgShape"></path><path fill="#a7b6c6" d="M191.739 309.696c3.574 0 7.003-2.91 7.659-6.484.647-3.583-1.723-6.482-5.307-6.482-3.574 0-7.002 2.9-7.659 6.482-.647 3.584 1.724 6.484 5.307 6.484z" class="colora7abc6 svgShape"></path><path fill="#708efe" d="m72.08 398.006 9.643-62.153h3.484l-9.644 62.153zM94.85 398.006l-9.643-62.153h3.483l9.644 62.153z" class="colorfe8b70 svgShape"></path><path fill="#83bffc" d="M62.251 327.809h228.765v11.374H62.251z" class="colorfcc283 svgShape"></path><path fill="#708efe" d="M76.081 339.184h16.95v6.164h-16.95z" class="colorfe8b70 svgShape"></path><path fill="#bdddfe" d="M120.254 332.376c-3.635 1.83-24.066-1.641-24.066-1.641l-.693-16.702s15.824-9.14 18.446-7.554c2.588 1.576-4.522 7.166-4.522 7.166 1.833-.296 15.47-2.481 14.584 1.062-.32 1.288-3.014 2.87-4.217 3.233 3.723-.06 9.01.874 8.671 2.632-.47 2.448-4.993 2.403-6.57 2.313 1.603.15 6.202.783 5.265 3.096-.57 1.408-6.32 1.422-8.06 1.559 1.27.369 3.533 3.647 1.162 4.836z" class="colorfec3bd svgShape"></path><path fill="#3a81c9" d="M39.626 239.277c-8.955 7.821-17.083 69.86-5.536 84.658 10.428 13.363 63.011 8.974 63.011 8.974l.511-21.406-41.452-5.43s4.476-38.572-.306-53.56c-4.206-13.183-16.228-13.236-16.228-13.236z" class="color3a6dc9 svgShape"></path><path fill="#0575e6" d="M198.813 103.952a31.666 31.666 0 0 1-1.286 15.406H179.58a31.665 31.665 0 0 0 0-20.514h12.784a101.961 101.961 0 0 1 6.448 5.108z" class="color0c8ff9 svgShape"></path><path fill="#0e63b9" d="M198.813 103.952h-5.162a31.669 31.669 0 0 0-1.286-5.108 101.961 101.961 0 0 1 6.448 5.108zM196.368 109.063h-12.784c0-.458-.01-.916-.031-1.374h12.784c.02.458.03.916.031 1.374zM196.223 112.127H183.44c.043-.457.077-.914.101-1.37h12.784a31.61 31.61 0 0 1-.102 1.37zM195.782 115.169h-12.784c.088-.451.166-.904.234-1.358h12.784c-.068.454-.146.907-.234 1.358z" class="color0e6bb9 svgShape"></path><path fill="#6081fe" d="M237.764 139.176a31.666 31.666 0 0 1-1.286 15.406h-17.945a31.665 31.665 0 0 0 0-20.514h12.784a101.964 101.964 0 0 1 6.447 5.108z" class="colorfe6081 svgShape"></path><path fill="#475fb9" d="M237.764 139.176h-5.162a31.667 31.667 0 0 0-1.285-5.108 101.964 101.964 0 0 1 6.447 5.108zM235.32 144.287h-12.784c0-.458-.011-.916-.032-1.374h12.784c.02.458.031.916.032 1.374zM235.175 147.35H222.39c.044-.456.078-.913.102-1.37h12.783c-.024.458-.057.915-.101 1.37zM234.733 150.393h-12.784c.088-.451.166-.904.235-1.358h12.783c-.068.454-.146.907-.234 1.358z" class="colorb94768 svgShape"></path><circle cx="306.814" cy="181.486" r="11.593" fill="#3a81c9" class="color3a6dc9 svgShape"></circle><circle cx="306.814" cy="176.773" r="2.927" fill="#ffffff" class="colorffffff svgShape"></circle><path fill="#ffffff" d="M313.533 187.57c-.17-3.568-3.108-6.412-6.719-6.412-3.61 0-6.549 2.844-6.718 6.413h13.437z" class="colorffffff svgShape"></path><path fill="#83bffc" d="M106.966 98.855a15.518 15.518 0 0 1-4.699 11.57 11.1 11.1 0 0 0-1.56 1.873c-1.31 2.008-2.014 4.365-1.948 6.801l.009.312-13.62.37-.01-.314c-.082-3.04-1.35-5.898-3.472-8.053-.19-.194-.388-.382-.592-.564a15.49 15.49 0 0 1-5.199-11.18c-.188-6.967 4.24-12.987 10.503-15.128l.009-.002c.238-.081.479-.156.723-.227a15.59 15.59 0 0 1 3.875-.595h.002a18.128 18.128 0 0 1 .502-.006c.065 0 .128.002.193.003.104 0 .21.005.312.008a14.833 14.833 0 0 1 .78.05c7.776.673 13.975 7.094 14.192 15.082z" class="colorfcc283 svgShape"></path><path fill="#ffffff" d="m95.966 120.04-.992-.23 3.945-17.068a.55.55 0 0 0-.111-.475.55.55 0 0 0-.444-.203c-.11.05-.28.484-.372.718-.221.567-.525 1.344-1.293 1.364-.767.021-1.112-.738-1.364-1.292-.104-.228-.297-.653-.412-.697-.11.05-.279.484-.37.718-.222.567-.525 1.344-1.292 1.365-.768.02-1.113-.739-1.365-1.293-.103-.228-.296-.653-.412-.697-.108.05-.278.485-.37.718-.22.567-.524 1.344-1.291 1.365-.768.02-1.113-.739-1.365-1.293-.103-.228-.296-.653-.412-.697-.108.05-.278.485-.37.718-.22.567-.524 1.344-1.292 1.365-.767.02-1.112-.739-1.364-1.293-.103-.228-.296-.652-.412-.697a.552.552 0 0 0-.515.708l4.864 16.83-.978.282-4.864-16.83a1.561 1.561 0 0 1 .241-1.363c.29-.396.737-.63 1.227-.644.767-.02 1.112.738 1.364 1.293.104.228.297.652.412.697.109-.05.278-.485.37-.718.221-.568.524-1.344 1.292-1.365.767-.021 1.112.738 1.364 1.293.104.228.297.652.412.697.109-.051.278-.485.37-.719.221-.567.524-1.344 1.292-1.364.767-.021 1.112.738 1.364 1.292.104.228.297.653.412.697.109-.05.278-.484.37-.718.221-.567.525-1.344 1.292-1.365.767-.02 1.112.739 1.365 1.293.103.228.296.653.412.697.109-.05.279-.485.37-.718.222-.567.525-1.344 1.293-1.365.49-.013.949.197 1.26.577.31.38.424.87.314 1.349l-3.945 17.068z" class="colorffffff svgShape"></path><path fill="#83bffc" d="m91.741 78.54.065 2.376a.798.798 0 1 1-1.595.044l-.065-2.377a.798.798 0 1 1 1.595-.043zM81.543 81.087l1.244 2.026a.798.798 0 1 1-1.36.835l-1.244-2.026a.798.798 0 1 1 1.36-.835zM101.847 81.433l-1.133 2.09a.798.798 0 1 1-1.403-.76l1.133-2.09a.798.798 0 1 1 1.403.76z" class="colorfcc283 svgShape"></path><path fill="#111a3a" d="M101.129 120.82c.01.405-.144.776-.403 1.05-.259.273-.621.447-1.026.458l-15.326.415a1.47 1.47 0 0 1-.08-2.94l15.326-.415a1.47 1.47 0 0 1 1.509 1.431z" class="color11153a svgShape"></path><path fill="#070f2b" d="M101.129 120.82c.01.405-.144.776-.403 1.05-.259.273-.621.447-1.026.458l-15.326.415a1.47 1.47 0 0 1-1.454-1.868 1.472 1.472 0 0 0 1.43.993l15.326-.415a1.463 1.463 0 0 0 1.026-.46c.162-.17.282-.379.349-.61.046.138.074.284.078.436z" class="color070d2b svgShape"></path><path fill="#111a3a" d="M101.208 123.76c.011.405-.143.775-.402 1.049-.26.274-.621.448-1.027.459l-15.325.415a1.47 1.47 0 0 1-.08-2.94l15.326-.415a1.47 1.47 0 0 1 1.508 1.431z" class="color11153a svgShape"></path><path fill="#070f2b" d="M101.208 123.76c.011.405-.143.775-.402 1.049-.26.274-.621.448-1.027.459l-15.325.415A1.47 1.47 0 0 1 83 123.815a1.472 1.472 0 0 0 1.431.993l15.325-.415a1.463 1.463 0 0 0 1.027-.46c.162-.17.282-.379.348-.61.047.138.074.283.078.436zM87.932 126.563a4.18 4.18 0 1 0 8.266-.224l-8.266.224z" class="color070d2b svgShape"></path><path fill="#111a3a" d="M101.208 126.642c.011.405-.143.776-.402 1.05-.26.273-.621.447-1.027.458l-15.325.416a1.47 1.47 0 0 1-.08-2.94l15.326-.415a1.47 1.47 0 0 1 1.508 1.43z" class="color11153a svgShape"></path><path fill="#070f2b" d="M101.208 126.642c.011.405-.143.776-.402 1.05-.26.273-.621.447-1.027.458l-15.325.416A1.47 1.47 0 0 1 83 126.697a1.472 1.472 0 0 0 1.431.993l15.325-.415a1.463 1.463 0 0 0 1.027-.459c.162-.17.282-.38.348-.61.047.138.074.283.078.436z" class="color070d2b svgShape"></path><path fill="#6081fe" d="M332.45 297.54c2.308 16.124 8.191 9.756 8.191 9.756l18.198-25.326 5.012-24.576 3.422-25.867c-8.888 3.19-37.125 49.945-34.824 66.014z" class="colorfe6081 svgShape"></path><path fill="#475fb9" d="m357.6 264.147-11.435 27.787 20.45-15.1z" class="colorb94768 svgShape"></path><path fill="#3a81c9" d="m382.398 397.586.24-1.136 10.522-75.074h-40.237l-1.53 76.21z" class="color3a6dc9 svgShape"></path><path fill="#1c68b5" d="m393.16 321.377-10.523 75.073-4.928-75.073z" class="color1c5ab5 svgShape"></path><path fill="#3a81c9" d="M422.617 397.586v-76.21h-44.908l10.92 76.21z" class="color3a6dc9 svgShape"></path><path fill="#e8f3fe" d="M353.287 325.318h67.403s-1.343-27.33-.77-33.811c1.325-15.08 10.657-40.612 6.224-50.251-1.474-3.22-15.742-11.044-15.742-11.044l-9.15-2.425-19.34-.85-9.404 2.342s-8.04 4.116-11.418 9.127c-5.841 8.65-6.153 37.803-6.162 52.79-.006 5.568-1.073 24.443-1.641 34.122z" class="coloreae8fe svgShape"></path><path fill="#6081fe" d="M424.364 293.371c-.53 6.023-.459 22.372-.28 36.242.16 12 .399 22.14.399 22.14h-7.745c-14.949 0-35.345.787-35.896-15.717-.55-16.484 2.785-58.972 3.15-65.897 1.38-26.094 17.26-42.35 17.26-42.35l9.152 2.423s17.576 7.024 19.107 12.136c1.58 5.255 1.657 11.058 1.007 17.027-1.257 11.696-5.272 24.01-6.154 33.996zM374.727 281.476l-4.054 44.66c-1.018 14.217-7.913 25.618-22.167 25.618.905-11.664 5.32-52.844 5.328-60.44.01-14.986.452-42.49 6.993-53.792 2.464-4.258 7.667-7.06 11.68-8.243 1.655-.488 6.695-1.668 6.695-1.668l-4.475 53.865z" class="colorfe6081 svgShape"></path><path fill="#475fb9" d="M424.364 293.371c-.53 6.023-.459 22.372-.28 36.242l-39.58-11.805-.716-17.458 29.184-7.491s-1.627-26.2-1.34-30.386c.496-7.248 6.911-16.145 6.911-16.145l11.975 13.047c-1.257 11.696-5.272 24.01-6.154 33.996z" class="colorb94768 svgShape"></path><path fill="#c4e0fd" d="M386.002 302.787s-14.242-7.44-16.594-5.956c-2.321 1.474 4.083 6.117 4.083 6.117" class="colorfdd1c4 svgShape"></path><path fill="#070f2b" d="M375.483 334.247H343.2a2.866 2.866 0 0 1-2.805-2.28l-8.974-42.995a2.866 2.866 0 0 1 2.805-3.452h32.283c1.357 0 2.528.952 2.806 2.28l8.974 42.995a2.866 2.866 0 0 1-2.806 3.452z" class="color070d2b svgShape"></path><path fill="#c4e0fd" d="M373.49 302.948c-1.647-.194-13.906-1.62-13.1 1.454.291 1.117 2.716 2.407 3.798 2.681-3.346.082-8.093 1.09-7.784 2.619.43 2.127 4.493 1.925 5.91 1.79-1.44.19-5.57.91-4.722 2.902.517 1.214 3.896 1.056 5.46 1.114-1.14.369-4.068 2.921-1.935 3.878 3.271 1.473 24.31-1.938 24.31-1.938l.575-14.66" class="colorfdd1c4 svgShape"></path><path fill="#6081fe" d="M426.504 238.893s-14.872 5.607-13.051 33.657c.396 6.104 4.534 23.884 4.534 23.884l-34.199 3.916.715 17.458c16.697.657 44.322 5.46 52.93-3.28 5.903-5.992 1.307-69.333-10.93-75.635z" class="colorfe6081 svgShape"></path><path fill="#bdddfe" d="M383.85 237.96c8.982-.39 17.389-9.898 17.401-10.173.333-6.57 1.425-21.36 2.923-26.056.333-1.034-.64-2.006-1.674-1.68l-22.06 6.877a1.334 1.334 0 0 0-.891 1.611 27.123 27.123 0 0 1 .74 4.301c.282 3.14.025 6-.32 8.093-.075.458-.17 1.254-.282 2.17v.006c-.27 2.35-.364 3.756-.464 4.1-.05.17-.45 10.972 4.627 10.752z" class="colorfec3bd svgShape"></path><path fill="#89bdf1" d="M379.687 223.103v.006s12.223-4.504 14.381-8.375c2.849-5.11-11.993-2.634-11.993-2.634s-.777.32-1.786.74c.282 3.14.025 6-.32 8.093-.075.458-.17 1.254-.282 2.17z" class="colorf18b89 svgShape"></path><path fill="#0e1738" d="M364.249 172.163c-1.786 3.371-.883 7.79 1.694 10.602 2.578 2.812 6.543 4.104 10.356 3.97 1.639-.058 3.401-.43 4.485-1.66.958-1.09 1.188-2.62 1.378-4.06.295-2.24.571-4.619-.366-6.675-1.145-2.51-3.914-3.966-6.653-4.294-2.74-.328-5.495.283-8.187.89" class="color0e1738 svgShape"></path><path fill="#bdddfe" d="M377.112 219.017c12.134 3.27 22.968-8.948 25.934-14.032v-.006c.523-.9.878-1.602 1.064-1.984.103-.213.256-.389.452-.52 1.567-1.05 8.667-6.113 6.884-10.605-1.163-2.924-3.152-3.27-4.617-3.045-.86.132-1.611-.625-1.495-1.488 3.155-23.458-22.682-22.442-29.791-11.855a13.634 13.634 0 0 0-.953 1.7c-4.627 9.46-10.513 38.322 2.522 41.835z" class="colorfec3bd svgShape"></path><path fill="#0e1738" d="m401.442 220.093.333-.444c4.016-5.37 7.721-11.018 10.974-16.881 2.132-3.843 4.114-7.83 5.458-12.025 1.626-5.072 1.467-10.29 1.615-15.566.041-1.47.078-2.972-.365-4.374-.444-1.401-1.466-2.709-2.887-3.087-1.226-.326-2.518.073-3.787.058-1.268-.015-2.758-.764-2.752-2.033.005-1.02.975-1.773 1.243-2.757.276-1.012-.266-2.11-1.084-2.767-.818-.656-1.863-.952-2.889-1.168a25.87 25.87 0 0 0-13.662.84c-1.57.539-3.146 1.24-4.806 1.184-1.634-.055-3.139-.839-4.644-1.478a28.469 28.469 0 0 0-12.775-2.206c-3.925.234-13.976 6.661-11.296 14.466 1.42 4.136 2.989 6.732 7.35 7.028 4.363.297 8.639-1.122 12.781-2.522.114 2.644 2.838 4.566 5.478 4.747 2.64.18 5.181-.917 7.6-1.991-.604 1.704.014 3.766 1.457 4.855 1.087.821 2.506 1.006 3.804.673.979-.251 2.33-.624 2.377.993l.198 6.725a1.34 1.34 0 0 0 2.596.422l1.036-2.823c.128-.347.39-.631.733-.771 1.25-.512 4.342-1.283 5.918 2.679 1.783 4.492-5.317 9.556-6.884 10.605-.196.131-.35.307-.452.52-.186.382-.541 1.083-1.064 1.99l-1.138 4.449c-.324 1.268-.466 10.659-.466 10.659z" class="color0e1738 svgShape"></path><ellipse cx="387.495" cy="193.932" fill="#0e1738" rx="2.225" ry="1.484" transform="rotate(-87.377 387.495 193.932)" class="color0e1738 svgShape"></ellipse><path fill="#0e1738" d="M389.749 190.72a.497.497 0 0 1-.311-.108c-2.251-1.794-3.544-.728-3.599-.682a.503.503 0 0 1-.703-.048.497.497 0 0 1 .038-.699c.079-.07 1.945-1.698 4.887.647a.5.5 0 0 1-.312.89z" class="color0e1738 svgShape"></path><ellipse cx="374.957" cy="193.932" fill="#0e1738" rx="2.225" ry="1.484" transform="rotate(-87.377 374.957 193.932)" class="color0e1738 svgShape"></ellipse><path fill="#0e1738" d="M377.21 190.72a.497.497 0 0 1-.31-.108c-2.251-1.794-3.544-.728-3.599-.682a.503.503 0 0 1-.703-.048.497.497 0 0 1 .038-.699c.078-.07 1.946-1.698 4.887.647a.5.5 0 0 1-.312.89z" class="color0e1738 svgShape"></path><path fill="#89bdf1" d="M378.675 205.664a.498.498 0 0 1-.332-.126c-.61-.544-.96-1.274-.984-2.055a2.787 2.787 0 0 1 .834-2.064c.203-.203.438-.385.674-.566.13-.1.261-.2.384-.304 1-.849 1.391-1.966 1.544-2.754.204-1.054.137-2.163.071-3.235a.5.5 0 1 1 .998-.061c.07 1.134.141 2.308-.088 3.486-.262 1.355-.912 2.505-1.877 3.326-.136.115-.28.226-.424.337-.2.153-.402.305-.574.477a1.797 1.797 0 0 0-.542 1.328c.015.504.246.979.649 1.338a.5.5 0 0 1-.333.873zM382.375 211.824c-.069 0-.137 0-.205-.003a.5.5 0 0 1 .037-1c1.671.064 3.354-.796 4.285-2.187a.5.5 0 1 1 .83.556c-1.08 1.616-3.004 2.634-4.947 2.634z" class="colorf18b89 svgShape"></path><path fill="#bdddfe" d="M337.276 291.87a2.344 2.344 0 0 0-1.704-.636l-3.847.238a2.389 2.389 0 0 0-2.303 2.475 2.406 2.406 0 0 0 2.474 2.303 2.384 2.384 0 0 0-2.3 2.461 2.395 2.395 0 0 0 2.466 2.308 2.378 2.378 0 0 0-2.295 2.47 2.386 2.386 0 0 0 2.462 2.3 2.38 2.38 0 0 0-2.296 2.47 2.378 2.378 0 0 0 2.47 2.295l3.846-.238a2.367 2.367 0 0 0 2.288-2.463 2.357 2.357 0 0 0-.757-1.664 2.344 2.344 0 0 0-1.705-.637 2.387 2.387 0 0 0 2.295-2.47 2.37 2.37 0 0 0-.756-1.663 2.345 2.345 0 0 0-1.705-.637l1.696-.068a2.38 2.38 0 0 0 1.531-4.128 2.33 2.33 0 0 0-1.697-.642l-1.701.06a2.378 2.378 0 0 0 2.295-2.47 2.399 2.399 0 0 0-.757-1.663z" class="colorfec3bd svgShape"></path><path fill="#479ff7" d="M272.671 79.828h111.877v61.484H272.671z" class="color47adf7 svgShape"></path><path fill="#ffffff" d="M289.51 110.664a8.287 8.287 0 0 0 8.285 8.285v10.607c-10.43 0-18.883-8.452-18.883-18.892 0-10.43 8.452-18.883 18.883-18.883v10.607c-4.57 0-8.285 3.706-8.285 8.276z" class="colorffffff svgShape"></path><path fill="#83bffc" d="M316.678 110.664H306.08c0-4.57-3.716-8.276-8.285-8.276V91.781c10.43 0 18.883 8.452 18.883 18.883z" class="colorfcc283 svgShape"></path><path fill="#6081fe" d="M320.05 114.78c0 10.44-8.452 18.893-18.883 18.893v-10.607a8.287 8.287 0 0 0 8.285-8.285h10.598z" class="colorfe6081 svgShape"></path><path fill="#ffffff" d="M324.862 94.279h50.094v6.6h-50.094zM324.862 104.89h50.094v3.3h-50.094zM324.862 111.113h50.094v3.3h-50.094zM324.862 117.337h50.094v3.3h-50.094zM324.862 123.56h9.298v3.3h-9.298z" class="colorffffff svgShape"></path><circle cx="186.974" cy="178.41" r="11.838" fill="#377bc0" class="color37c092 svgShape"></circle><path fill="#ffffff" d="m184.598 183.921-3.897-3.896 2.12-2.122 1.777 1.776 6.32-6.321 2.122 2.12z" class="colorffffff svgShape"></path></svg>