<svg xmlns="http://www.w3.org/2000/svg" enable-background="new 0 0 7000 5000" viewBox="0 0 7000 5000" id="Courthouse"><g fill="#000000" class="color000000 svgShape"><g fill="#000000" class="color000000 svgShape"><path fill="#37426b" d="M4080.552,3540.254h-8.361c-1.41-3.457-4.782-5.9-8.746-5.9h-5.479v-3.035h-1.609
			c-4.216-0.62-17.043-1.074-32.402-1.074c-18.773,0-33.994,0.674-33.994,1.507c0,2.312,15.221,1.509,33.994,1.509
			c13.237,0,24.578,0.475,30.194-0.111v1.204h-292.765l-18.777,7.749c-0.01-0.008-0.008-0.017-0.019-0.025
			c0,0-7.182,1.076-9.047,1.832c-1.744,0.707,8.008,1.349,9.299,1.431l18.544,7.947h302.061c4.009,0,7.391-2.509,8.773-6.028h8.334
			c1.935,0,3.503-1.568,3.503-3.503C4084.055,3541.822,4082.487,3540.254,4080.552,3540.254z" opacity=".43" class="color6b4337 svgShape"></path><g fill="#000000" class="color000000 svgShape"><path fill="#021b79" d="M4062.373,3547.751h-302.06l-22.507-9.646l22.507-9.289h302.06c5.229,0,9.468,4.239,9.468,9.467
				l0,0C4071.841,3543.513,4067.602,3547.751,4062.373,3547.751z" class="color222c3d svgShape"></path><ellipse cx="4022.885" cy="3526.215" fill="#021b79" rx="33.995" ry="1.507" class="color222c3d svgShape"></ellipse><rect width="3.816" height="3.632" x="4053.078" y="3525.782" fill="#021b79" class="color222c3d svgShape"></rect><path fill="#171b2b" d="M4079.479 3534.717h-11.393c-1.935 0-3.503 1.568-3.503 3.503 0 1.935 1.568 3.503 3.503 3.503h11.393c1.935 0 3.503-1.568 3.503-3.503C4082.982 3536.285 4081.414 3534.717 4079.479 3534.717zM3741.517 3536.542c0 0-7.182 1.075-9.048 1.832-1.866.757 9.552 1.447 9.552 1.447S3743.332 3538.055 3741.517 3536.542z" class="color171f2b svgShape"></path></g><g fill="#000000" class="color000000 svgShape"><g fill="#000000" class="color000000 svgShape"><g fill="#000000" class="color000000 svgShape"><rect width="7000" height="2998.908" fill="#5c678e" class="color8e695c svgShape"></rect><g fill="#000000" class="color000000 svgShape"><rect width="24.072" height="2473" x="687.875" fill="#576187" class="color876257 svgShape"></rect><rect width="24.072" height="2473" x="433.875" fill="#576187" class="color876257 svgShape"></rect><rect width="24.072" height="2473" x="179.875" fill="#576187" class="color876257 svgShape"></rect><rect width="24.072" height="2473" x="956.105" fill="#576187" class="color876257 svgShape"></rect><rect width="24.072" height="2473" x="1224.336" fill="#576187" class="color876257 svgShape"></rect><rect width="24.072" height="2473" x="1492.567" fill="#576187" class="color876257 svgShape"></rect><rect width="24.072" height="2473" x="1760.798" fill="#576187" class="color876257 svgShape"></rect></g><g fill="#000000" class="color000000 svgShape"><rect width="22.353" height="2493" x="5234.044" fill="#576187" class="color876257 svgShape"></rect><rect width="22.353" height="2493" x="5502.275" fill="#576187" class="color876257 svgShape"></rect><rect width="22.353" height="2493" x="5770.505" fill="#576187" class="color876257 svgShape"></rect><rect width="22.353" height="2493" x="6038.736" fill="#576187" class="color876257 svgShape"></rect><rect width="22.353" height="2493" x="6306.967" fill="#576187" class="color876257 svgShape"></rect><rect width="22.353" height="2493" x="6549.991" fill="#576187" class="color876257 svgShape"></rect><rect width="22.353" height="2493" x="6793.016" fill="#576187" class="color876257 svgShape"></rect></g><g fill="#000000" class="color000000 svgShape"><rect width="22.353" height="2493" x="2074.753" fill="#576187" class="color876257 svgShape"></rect><rect width="22.353" height="2493" x="2342.984" fill="#576187" class="color876257 svgShape"></rect><rect width="22.353" height="2493" x="2611.215" fill="#576187" class="color876257 svgShape"></rect><rect width="22.353" height="2493" x="2879.446" fill="#576187" class="color876257 svgShape"></rect><rect width="22.353" height="2493" x="3122.47" fill="#576187" class="color876257 svgShape"></rect></g><g fill="#000000" class="color000000 svgShape"><rect width="22.353" height="2493" x="3401.317" fill="#576187" class="color876257 svgShape"></rect><rect width="22.353" height="2493" x="3669.548" fill="#576187" class="color876257 svgShape"></rect><rect width="22.353" height="2493" x="3937.778" fill="#576187" class="color876257 svgShape"></rect><rect width="22.353" height="2493" x="4206.009" fill="#576187" class="color876257 svgShape"></rect><rect width="22.353" height="2493" x="4474.24" fill="#576187" class="color876257 svgShape"></rect><rect width="22.353" height="2493" x="4717.264" fill="#576187" class="color876257 svgShape"></rect><rect width="22.353" height="2493" x="4960.289" fill="#576187" class="color876257 svgShape"></rect></g></g><g fill="#000000" class="color000000 svgShape"><path fill="#3b4772" d="M2051.904,1941h-936c-13.255,0-24-10.745-24-24V0h984v1917
						C2075.904,1930.255,2065.159,1941,2051.904,1941z" class="color724a3b svgShape"></path><rect width="867.978" height="1886.621" x="1149.915" fill="#d0e6fc" class="colord0e6fc svgShape"></rect><g fill="#000000" class="color000000 svgShape"><polygon fill="#ffffff" points="2017.894 1059.859 1704.97 1886.621 1928.516 1886.621 2017.894 1650.479" opacity=".2" class="colorffffff svgShape"></polygon><polygon fill="#ffffff" points="2017.894 417.774 1461.946 1886.621 1556.479 1886.621 2017.894 667.534" opacity=".2" class="colorffffff svgShape"></polygon><polygon fill="#ffffff" points="2017.894 0 1863.986 0 1149.915 1886.621 1373.46 1886.621 2017.894 183.988" opacity=".2" class="colorffffff svgShape"></polygon><polygon fill="#ffffff" points="1149.915 1573.566 1745.497 0 1650.965 0 1149.915 1323.806" opacity=".2" class="colorffffff svgShape"></polygon><polygon fill="#ffffff" points="1149.915 1074.166 1556.479 0 1332.933 0 1149.915 483.546" opacity=".2" class="colorffffff svgShape"></polygon></g><rect width="59.979" height="1901" x="1553.915" fill="#3b4772" class="color724a3b svgShape"></rect><rect width="935.247" height="59.978" x="1116.281" y="514.471" fill="#3b4772" class="color724a3b svgShape"></rect><rect width="935.247" height="59.979" x="1116.281" y="982.518" fill="#3b4772" class="color724a3b svgShape"></rect><rect width="935.247" height="59.979" x="1116.281" y="1450.565" fill="#3b4772" class="color724a3b svgShape"></rect></g><g fill="#000000" class="color000000 svgShape"><path fill="#3b4772" d="M4930.856,1941h-936c-13.255,0-24-10.745-24-24V0h984v1917
						C4954.856,1930.255,4944.111,1941,4930.856,1941z" class="color724a3b svgShape"></path><rect width="867.979" height="1886.621" x="4028.867" fill="#d0e6fc" class="colord0e6fc svgShape"></rect><g fill="#000000" class="color000000 svgShape"><polygon fill="#ffffff" points="4896.846 1059.859 4583.923 1886.621 4807.468 1886.621 4896.846 1650.479" opacity=".2" class="colorffffff svgShape"></polygon><polygon fill="#ffffff" points="4896.846 417.774 4340.898 1886.621 4435.431 1886.621 4896.846 667.534" opacity=".2" class="colorffffff svgShape"></polygon><polygon fill="#ffffff" points="4896.846 0 4742.938 0 4028.867 1886.621 4252.413 1886.621 4896.846 183.988" opacity=".2" class="colorffffff svgShape"></polygon><polygon fill="#ffffff" points="4028.867 1573.566 4624.45 0 4529.917 0 4028.867 1323.806" opacity=".2" class="colorffffff svgShape"></polygon><polygon fill="#ffffff" points="4028.867 1074.166 4435.431 0 4211.886 0 4028.867 483.546" opacity=".2" class="colorffffff svgShape"></polygon></g><rect width="59.978" height="1901" x="4432.867" fill="#3b4772" class="color724a3b svgShape"></rect><rect width="935.247" height="59.978" x="3995.233" y="514.471" fill="#3b4772" class="color724a3b svgShape"></rect><rect width="935.247" height="59.979" x="3995.233" y="982.518" fill="#3b4772" class="color724a3b svgShape"></rect><rect width="935.247" height="59.979" x="3995.233" y="1450.565" fill="#3b4772" class="color724a3b svgShape"></rect></g><g fill="#000000" class="color000000 svgShape"><path fill="#3b4772" d="M1117.661,1941H205.671c-19.885,0-36.005-16.12-36.005-36.005V0h984v1904.995
						C1153.666,1924.88,1137.546,1941,1117.661,1941z" class="color724a3b svgShape"></path><rect width="867.979" height="1886.621" x="227.677" fill="#d0e6fc" class="colord0e6fc svgShape"></rect><g fill="#000000" class="color000000 svgShape"><polygon fill="#ffffff" points="1095.655 1059.859 782.732 1886.621 1006.278 1886.621 1095.655 1650.479" opacity=".2" class="colorffffff svgShape"></polygon><polygon fill="#ffffff" points="1095.655 417.774 539.708 1886.621 634.24 1886.621 1095.655 667.534" opacity=".2" class="colorffffff svgShape"></polygon><polygon fill="#ffffff" points="1095.655 0 941.748 0 227.677 1886.621 451.222 1886.621 1095.655 183.988" opacity=".2" class="colorffffff svgShape"></polygon><polygon fill="#ffffff" points="227.677 1573.566 823.259 0 728.727 0 227.677 1323.806" opacity=".2" class="colorffffff svgShape"></polygon><polygon fill="#ffffff" points="227.677 1074.166 634.24 0 410.695 0 227.677 483.546" opacity=".2" class="colorffffff svgShape"></polygon></g><rect width="59.978" height="1901" x="631.677" fill="#3b4772" class="color724a3b svgShape"></rect><rect width="935.247" height="59.978" x="194.042" y="514.471" fill="#3b4772" class="color724a3b svgShape"></rect><rect width="935.247" height="59.979" x="194.042" y="982.518" fill="#3b4772" class="color724a3b svgShape"></rect><rect width="935.247" height="59.979" x="194.042" y="1450.565" fill="#3b4772" class="color724a3b svgShape"></rect></g><g fill="#000000" class="color000000 svgShape"><path fill="#3b4772" d="M5861.153,1941h-936c-13.255,0-24-10.745-24-24V0h984v1917
						C5885.153,1930.255,5874.408,1941,5861.153,1941z" class="color724a3b svgShape"></path><rect width="867.978" height="1886.621" x="4959.164" fill="#d0e6fc" class="colord0e6fc svgShape"></rect><g fill="#000000" class="color000000 svgShape"><polygon fill="#ffffff" points="5827.142 1059.859 5514.22 1886.621 5737.765 1886.621 5827.142 1650.479" opacity=".2" class="colorffffff svgShape"></polygon><polygon fill="#ffffff" points="5827.142 417.774 5271.195 1886.621 5365.728 1886.621 5827.142 667.534" opacity=".2" class="colorffffff svgShape"></polygon><polygon fill="#ffffff" points="5827.142 0 5673.235 0 4959.164 1886.621 5182.709 1886.621 5827.142 183.988" opacity=".2" class="colorffffff svgShape"></polygon><polygon fill="#ffffff" points="4959.164 1573.566 5554.746 0 5460.214 0 4959.164 1323.806" opacity=".2" class="colorffffff svgShape"></polygon><polygon fill="#ffffff" points="4959.164 1074.166 5365.728 0 5142.182 0 4959.164 483.546" opacity=".2" class="colorffffff svgShape"></polygon></g><rect width="59.979" height="1901" x="5363.164" fill="#3b4772" class="color724a3b svgShape"></rect><rect width="935.247" height="59.978" x="4925.53" y="514.471" fill="#3b4772" class="color724a3b svgShape"></rect><rect width="935.247" height="59.979" x="4925.53" y="982.518" fill="#3b4772" class="color724a3b svgShape"></rect><rect width="935.247" height="59.979" x="4925.53" y="1450.565" fill="#3b4772" class="color724a3b svgShape"></rect></g></g><g fill="#000000" class="color000000 svgShape"><g fill="#000000" class="color000000 svgShape"><rect width="7000" height="2019" y="2981" fill="#4f597f" class="color7f584f svgShape"></rect><g fill="#000000" class="color000000 svgShape"><g fill="#000000" class="color000000 svgShape"><rect width="1169.875" height="9.431" x="247.5" y="3712.728" fill="#485175" class="color754e48 svgShape"></rect></g><g fill="#000000" class="color000000 svgShape"><rect width="1083" height="9.431" x="671.5" y="4232.47" fill="#485175" class="color754e48 svgShape"></rect></g><g fill="#000000" class="color000000 svgShape"><rect width="979.5" height="9.431" x="1907" y="4089.96" fill="#485175" class="color754e48 svgShape"></rect></g><g fill="#000000" class="color000000 svgShape"><rect width="833.667" height="9.431" x="1656" y="3547.096" fill="#485175" class="color754e48 svgShape"></rect></g><g fill="#000000" class="color000000 svgShape"><rect width="719.583" height="9.431" x="2632.75" y="3415.052" fill="#485175" class="color754e48 svgShape"></rect></g><g fill="#000000" class="color000000 svgShape"><rect width="749.833" height="9.431" x="3229.667" y="3594.255" fill="#485175" class="color754e48 svgShape"></rect></g><g fill="#000000" class="color000000 svgShape"><rect width="665.25" height="9.431" x="4051.75" y="3358.462" fill="#485175" class="color754e48 svgShape"></rect></g><g fill="#000000" class="color000000 svgShape"><rect width="687.783" height="9.431" x="4717.717" y="3613.08" fill="#485175" class="color754e48 svgShape"></rect></g><g fill="#000000" class="color000000 svgShape"><rect width="582.553" height="9.431" x="5353.78" y="3374.143" fill="#485175" class="color754e48 svgShape"></rect></g><g fill="#000000" class="color000000 svgShape"><rect width="902.667" height="9.431" x="6062.333" y="3562.759" fill="#485175" class="color754e48 svgShape"></rect></g><g fill="#000000" class="color000000 svgShape"><rect width="798" height="9.431" x="5463" y="3866.64" fill="#485175" class="color754e48 svgShape"></rect></g><g fill="#000000" class="color000000 svgShape"><rect width="1095" height="9.431" x="5609" y="4533.084" fill="#485175" class="color754e48 svgShape"></rect></g><g fill="#000000" class="color000000 svgShape"><rect width="811.25" height="9.431" x="4717.75" y="4178.928" fill="#485175" class="color754e48 svgShape"></rect></g><g fill="#000000" class="color000000 svgShape"><rect width="834.271" height="9.431" x="3882.259" y="3919.566" fill="#485175" class="color754e48 svgShape"></rect></g><g fill="#000000" class="color000000 svgShape"><rect width="1023.529" height="9.431" x="3693" y="4546.19" fill="#485175" class="color754e48 svgShape"></rect></g><g fill="#000000" class="color000000 svgShape"><rect width="1009.667" height="9.431" x="2769" y="4260.765" fill="#485175" class="color754e48 svgShape"></rect></g><polygon fill="#485175" points="7000 3586.631 6413.544 3165.486 6408.456 3173.265 7000 3598.064" class="color754e48 svgShape"></polygon><rect width="476" height="9.431" x="6524" y="4260.639" fill="#485175" class="color754e48 svgShape"></rect><polygon fill="#485175" points="7000 4976.35 5800.696 3166.687 5793.304 3172.065 7000 4992.884" class="color754e48 svgShape"></polygon><polygon fill="#485175" points="5313.388 3168.327 5304.612 3170.425 5703.077 5000 5712.309 5000" class="color754e48 svgShape"></polygon><rect width="9" height="1830.624" x="4712.5" y="3169.376" fill="#485175" class="color754e48 svgShape"></rect><polygon fill="#485175" points="3553.36 5000 3562.798 5000 4113.292 3170.794 4104.708 3167.957" class="color754e48 svgShape"></polygon><polygon fill="#485175" points="2258.13 5000 2269.23 5000 3528.648 3172.136 3521.352 3166.616" class="color754e48 svgShape"></polygon><polygon fill="#485175" points="929.76 5000 943.302 5000 2903.99 3172.899 2898.01 3165.853" class="color754e48 svgShape"></polygon><polygon fill="#485175" points="0 4709.036 2207.489 3173.304 2202.511 3165.447 0 4697.716" class="color754e48 svgShape"></polygon><polygon fill="#485175" points="0 3839.141 1406.852 3173.674 1403.149 3165.078 0 3828.793" class="color754e48 svgShape"></polygon><polygon fill="#485175" points="0 3386.815 598.447 3173.841 595.553 3164.911 0 3376.856" class="color754e48 svgShape"></polygon><rect width="944.583" height="9.431" y="3382.617" fill="#485175" class="color754e48 svgShape"></rect></g></g><polygon fill="#101528" points="1907.68 3276.458 0 3584.469 0 3270.172" opacity=".15" class="color281010 svgShape"></polygon><polygon fill="#101528" points="5092.32 3276.458 7000 3584.469 7000 3270.172" opacity=".15" class="color281010 svgShape"></polygon></g></g><rect width="7000" height="247.563" y="3040.813" fill="#37426b" class="color6b4337 svgShape"></rect><g fill="#000000" class="color000000 svgShape"><g opacity=".3" fill="#000000" class="color000000 svgShape"><path fill="#a0cfff" d="M3937.767,1668.938v-1.472C3937.749,1668.422,3937.767,1668.938,3937.767,1668.938z" class="colorffdea0 svgShape"></path><path fill="#7fb4ea" d="M3937.767,0.01v1667.456c0.262-14.189,8.432-126.331,201.239-114.28
					c205.779,12.861,68.593,90.029,334.391,85.742c265.8-4.288,240.076-120.038,372.979-55.732
					c132.897,64.306,282.945,94.315,355.826,55.732c72.881-38.583,94.316-132.9,214.354-55.732
					c120.038,77.168,330.105,98.602,411.56,38.583c81.455-60.019,81.455,55.732,81.455,55.732V0L3937.767,0.01z" class="color7fb2ea svgShape"></path></g><g opacity=".2" fill="#000000" class="color000000 svgShape"><path fill="#74aae0" d="M5834.544 1480.306c-2.068-56.893-2.962-113.786-4.477-170.679l-2.556-170.68c-1.515-113.786-1.375-227.572-2.142-341.359.719-113.786.646-227.573 2.109-341.359l2.562-170.68c1.527-56.893 2.421-113.787 4.503-170.68 2.084 56.893 2.978 113.786 4.505 170.68l2.563 170.68c1.463 113.785 1.39 227.572 2.109 341.359-.767 113.786-.629 227.572-2.142 341.359l-2.556 170.68C5837.508 1366.52 5836.614 1423.413 5834.544 1480.306zM5493.721 1480.306c-2.068-56.893-2.961-113.786-4.477-170.679l-2.556-170.68c-1.515-113.786-1.375-227.572-2.142-341.359.72-113.786.646-227.573 2.109-341.359l2.562-170.68c1.527-56.893 2.42-113.787 4.503-170.68 2.085 56.893 2.979 113.786 4.505 170.68l2.562 170.68c1.463 113.785 1.39 227.572 2.109 341.359-.767 113.786-.629 227.572-2.142 341.359l-2.556 170.68C5496.686 1366.52 5495.792 1423.413 5493.721 1480.306zM5152.898 1480.306c-2.068-56.893-2.962-113.786-4.477-170.679l-2.556-170.68c-1.515-113.786-1.375-227.572-2.142-341.359.719-113.786.646-227.573 2.109-341.359l2.563-170.68c1.527-56.893 2.42-113.787 4.503-170.68 2.084 56.893 2.978 113.786 4.505 170.68l2.562 170.68c1.463 113.785 1.39 227.572 2.109 341.359-.767 113.786-.629 227.572-2.142 341.359l-2.556 170.68C5155.862 1366.52 5154.969 1423.413 5152.898 1480.306zM4812.076 1480.306c-2.068-56.893-2.962-113.786-4.477-170.679l-2.556-170.68c-1.515-113.786-1.375-227.572-2.142-341.359.719-113.786.646-227.573 2.109-341.359l2.562-170.68c1.527-56.893 2.421-113.787 4.503-170.68 2.084 56.893 2.978 113.786 4.505 170.68l2.563 170.68c1.463 113.785 1.39 227.572 2.109 341.359-.767 113.786-.629 227.572-2.142 341.359l-2.556 170.68C4815.04 1366.52 4814.146 1423.413 4812.076 1480.306zM4471.252 1480.306c-2.068-56.893-2.961-113.786-4.477-170.679l-2.556-170.68c-1.515-113.786-1.375-227.572-2.142-341.359.72-113.786.646-227.573 2.109-341.359l2.562-170.68c1.527-56.893 2.42-113.787 4.503-170.68 2.085 56.893 2.979 113.786 4.505 170.68l2.562 170.68c1.463 113.785 1.39 227.572 2.109 341.359-.767 113.786-.629 227.572-2.142 341.359l-2.556 170.68C4474.216 1366.52 4473.323 1423.413 4471.252 1480.306zM4130.43 1480.306c-2.068-56.893-2.962-113.786-4.477-170.679l-2.556-170.68c-1.515-113.786-1.375-227.572-2.142-341.359.719-113.786.646-227.573 2.109-341.359l2.562-170.68c1.527-56.893 2.421-113.787 4.503-170.68 2.084 56.893 2.978 113.786 4.505 170.68l2.562 170.68c1.463 113.785 1.39 227.572 2.109 341.359-.767 113.786-.629 227.572-2.142 341.359l-2.556 170.68C4133.394 1366.52 4132.5 1423.413 4130.43 1480.306z" class="color74a8e0 svgShape"></path></g></g><g fill="#000000" class="color000000 svgShape"><g fill="#000000" class="color000000 svgShape"><g fill="#000000" class="color000000 svgShape"><path fill="#192038" d="M5477.54,3157.135l-1030.231-7.127l-44.343-847.361
						c-9.56-182.68,116.912-336.811,275.467-335.715l584.373,4.043c158.556,1.097,282.883,156.964,270.796,339.494L5477.54,3157.135
						z" class="color381b19 svgShape"></path><path fill="#212844" d="M4404.895,2339.507c20.13-151.66,134.212-269.326,272.818-268.367l584.372,4.043
						c138.605,0.959,251.049,120.192,269.079,272.116l2.438-36.83c12.086-182.53-112.24-338.397-270.796-339.494l-584.372-4.043
						c-158.556-1.097-285.027,153.035-275.468,335.715L4404.895,2339.507z" class="color442221 svgShape"></path></g><g fill="#000000" class="color000000 svgShape"><g fill="#000000" class="color000000 svgShape"><polygon fill="#364066" points="6484.154 4358.786 2090.958 4358.786 2088.694 2769.722 2179.809 2642.105 6484.154 2628.752" class="color664436 svgShape"></polygon><polygon fill="#101528" points="6484.154 4358.786 2090.958 4358.786 1772.536 4769.852 6165.732 4769.852" opacity=".15" class="color281010 svgShape"></polygon><g fill="#000000" class="color000000 svgShape"><path fill="#2f3859" d="M4130.114,2944.79H2293.818c-23.523,0-42.593,19.069-42.593,42.593v1188.501
								c0,23.523,19.069,42.593,42.593,42.593h1836.296c23.523,0,42.593-19.07,42.593-42.593V2987.382
								C4172.707,2963.859,4153.638,2944.79,4130.114,2944.79z" class="color593c2f svgShape"></path></g><g fill="#000000" class="color000000 svgShape"><path fill="#2f3859" d="M4405.461,2987.382v1188.501c0,23.523,19.069,42.593,42.592,42.593h1833.242
								c23.523,0,42.593-19.07,42.593-42.593V2987.382c0-23.523-19.069-42.593-42.593-42.593H4448.053
								C4424.53,2944.79,4405.461,2963.859,4405.461,2987.382z" class="color593c2f svgShape"></path></g></g><g fill="#000000" class="color000000 svgShape"><path fill="#333d61" d="M4066.368,3020.296H2402.719c-21.312,0-38.588,17.277-38.588,38.588v1076.759
							c0,21.312,17.277,38.588,38.588,38.588h1663.649c21.312,0,38.588-17.277,38.588-38.588V3058.884
							C4104.957,3037.573,4087.68,3020.296,4066.368,3020.296z" class="color614133 svgShape"></path><path fill="#39436b" d="M4043.791,3004.665H2380.142c-21.312,0-38.588,17.277-38.588,38.588v1076.759
							c0,21.312,17.276,38.587,38.588,38.587h1663.649c21.312,0,38.588-17.276,38.588-38.587V3043.253
							C4082.379,3021.942,4065.102,3004.665,4043.791,3004.665z" class="color6b4739 svgShape"></path><path fill="#3c4770" d="M3577.528,3004.665H2380.142c-21.312,0-38.588,17.277-38.588,38.588v682.839
							C3428.463,3722.771,3562.84,3183.325,3577.528,3004.665z" class="color704a3c svgShape"></path></g><g fill="#000000" class="color000000 svgShape"><path fill="#333d61" d="M6219.112,3020.296H4555.463c-21.312,0-38.588,17.277-38.588,38.588v1076.759
							c0,21.312,17.276,38.588,38.588,38.588h1663.649c21.312,0,38.588-17.277,38.588-38.588V3058.884
							C6257.7,3037.573,6240.424,3020.296,6219.112,3020.296z" class="color614133 svgShape"></path><path fill="#39436b" d="M6196.534,3004.665H4532.885c-21.312,0-38.588,17.277-38.588,38.588v1076.759
							c0,21.312,17.277,38.587,38.588,38.587h1663.649c21.312,0,38.588-17.276,38.588-38.587V3043.253
							C6235.123,3021.942,6217.846,3004.665,6196.534,3004.665z" class="color6b4739 svgShape"></path><path fill="#3c4770" d="M5730.271,3004.665H4532.885c-21.311,0-38.588,17.277-38.588,38.588v682.839
							C5581.207,3722.771,5715.583,3183.325,5730.271,3004.665z" class="color704a3c svgShape"></path></g></g></g><polygon fill="#424e7d" points="6484.155 2641.978 6566.207 2580.389 6566.207 4047.668 6484.154 4358.786 6484.155 2641.978" class="color7d5442 svgShape"></polygon><path fill="#2f3859" d="M2188.026,2580.389c0,0-110.116,193.839-99.332,189.333
				c10.783-4.506,4395.461,3.672,4395.461,3.672l82.052-193.005H2188.026z" class="color593c2f svgShape"></path><ellipse cx="3276.766" cy="2686.584" fill="#272e4a" rx="297.416" ry="27.33" class="color4a3227 svgShape"></ellipse><g fill="#000000" class="color000000 svgShape"><g fill="#000000" class="color000000 svgShape"><polygon fill="#455282" points="5838.449 2675.09 6358.763 2675.09 6358.763 2641.069 5851.158 2660.861" class="color825745 svgShape"></polygon><polygon fill="#252c47" points="5871.699 2709.112 6392.012 2709.112 6392.012 2675.09 5872.373 2675.09" class="color473025 svgShape"></polygon><polygon fill="#252c47" points="5851.479 2742.84 6371.793 2742.84 6371.793 2708.819 5837.326 2730.708" class="color473025 svgShape"></polygon></g><g fill="#000000" class="color000000 svgShape"><polygon fill="#77a4d1" points="5824.295 2575.019 6344.609 2575.019 6344.609 2496.837 5824.969 2496.837" class="colord1c977 svgShape"></polygon><polygon fill="#303c6b" points="5857.545 2653.2 6377.859 2653.2 6377.859 2575.019 5858.219 2575.019" class="color6b304d svgShape"></polygon><polygon fill="#0575e6" points="5837.326 2730.708 6357.639 2730.708 6357.639 2652.527 5838 2652.527" class="color4880c9 svgShape"></polygon></g></g><g fill="#000000" class="color000000 svgShape"><polygon fill="#c7e3ff" points="3940.954 2733.92 3940.954 2589.408 4827.015 2589.408 4827.015 2729.597" class="colorffecc7 svgShape"></polygon><g fill="#000000" class="color000000 svgShape"><path fill="#afc7e0" d="M4283.765,2688.723c-3.058,0-4.858-0.969-6.173-2.271c-5.949-5.894,1.748-19.407,9.894-33.714
						c2.199-3.861,4.277-7.508,5.806-10.576c1.001-2.01,1.748-4.404,0.841-5.094c-5.363-4.09-36.478,6.719-64.956,32.236
						c-22.135,19.831-49.002,17.886-63.042,5.985c-11.496-9.74-13.068-24.562-4.103-38.683c1.665-2.622,2.75-4.507,3.456-5.853
						c-3.628,1.821-9.448,5.384-15.13,8.864c-17.266,10.574-43.356,26.554-72.354,36.379c-36.527,12.376-48.18,2.515-51.88-4.465
						c-1.882-3.55-2.435-7.791-1.842-12.228c-1.34,0.892-2.671,1.771-3.986,2.632c-1.419,0.936-3.327,0.534-4.256-0.887
						c-0.931-1.421-0.534-3.327,0.887-4.256c3.743-2.453,7.129-4.732,10.186-6.841c2.642-5.628,6.901-11.024,12.422-15.202
						c13.724-10.391,16.507-9.15,17.687-8.62c1.183,0.532,1.951,1.625,2.054,2.923c0.361,4.551-12.853,15.014-27.298,25.026
						c-2.174,5.326-2.5,10.646-0.418,14.573c4.735,8.937,20.942,9.491,44.473,1.52c28.345-9.604,54.083-25.368,71.115-35.799
						c15.98-9.788,21.364-13.091,24.619-9.785c2.679,2.723,0.671,7.108-4.541,15.316c-7.301,11.501-6.222,22.975,2.886,30.695
						c12.23,10.358,36.131,10.998,54.963-5.874c26.792-24.002,62.847-40.125,72.788-32.549c1.969,1.501,4.71,5.151,0.936,12.728
						c-1.604,3.223-3.722,6.942-5.965,10.879c-4.043,7.1-13.511,23.724-10.91,26.302c0.453,0.448,5.446,3.778,40.695-16.735
						c25.641-14.92,86.538-48.299,98.131-35.99c2.985,3.167,2.372,7.975-1.823,14.291c-1.47,2.212-1.143,3.521-0.695,4.414
						c4.756,9.468,43.384,15.029,67.116,16.37c3.87-1.575,24.445-9.875,45.718-17.07c49.235-16.654,54.268-11.258,56.422-8.957
						c1.393,1.49,2.599,4.19,0.433,8.592c-3.613,7.347-2.261,15.099,3.62,20.737c9.912,9.505,33.535,14.033,67.497-4.478
						c1.304-0.711,2.582-1.424,3.828-2.139c-0.506-6.53,3.01-16.338,19.06-29.466c21.393-17.502,26.46-15.21,28.128-14.46
						c1.717,0.775,2.746,2.37,2.822,4.377c0.306,8.153-16.873,26.702-42.853,42.461c0.041,0.073,0.083,0.145,0.127,0.215
						c5.088,8.329,26.964,11.043,47.536,2.059c14.318-6.248,25.388-13.462,33.469-18.729c9.629-6.276,14.93-9.73,19.466-8.078
						c2.092,0.765,3.569,2.532,4.392,5.254c0.49,1.626-0.43,3.341-2.056,3.833c-1.628,0.487-3.342-0.43-3.833-2.056
						c-0.311-1.029-0.609-1.252-0.612-1.253c-1.519-0.689-8.436,3.826-13.999,7.451c-8.262,5.386-19.578,12.762-34.365,19.215
						c-22.08,9.635-47.894,7.539-55.246-4.489c-0.062-0.103-0.124-0.207-0.186-0.314c-0.903,0.511-1.813,1.017-2.734,1.519
						c-36.881,20.099-63.291,14.453-74.696,3.517c-7.796-7.477-9.666-18.164-4.881-27.892c0.625-1.27,0.542-1.772,0.54-1.777
						c-0.13-0.096-4.928-4.528-49.861,10.667c-23.32,7.886-45.817,17.121-46.042,17.212c-0.425,0.174-0.882,0.238-1.334,0.228
						c-6.631-0.356-65.006-3.937-72.969-19.79c-1.17-2.331-1.935-6.056,1.066-10.576c2.956-4.45,2.771-6.354,2.471-6.67
						c-2.456-2.611-24.388-1.419-90.563,37.086C4301.802,2684.575,4290.091,2688.721,4283.765,2688.723z M4706.452,2623.049
						c-2.292,0.618-8.149,3.151-20.636,13.364c-9.541,7.804-15.218,15.047-16.556,20.879
						C4692.921,2642.512,4704.564,2628.003,4706.452,2623.049z" class="colore0d0af svgShape"></path></g><polygon fill="#3b4772" points="3927.312 2748.043 3927.312 2710.341 4840.657 2710.341 4840.657 2750.137" class="color724a3b svgShape"></polygon><polygon fill="#ced4db" points="5165.129 2748.917 5337.668 2710.276 5210.959 2615.244 5070.771 2643.552" class="colorced4db svgShape"></polygon><polygon fill="#dfe6ed" points="5034.376 2722.632 5206.916 2683.991 5099.079 2609.403 4951.702 2636.363" class="colordfe5ed svgShape"></polygon><path fill="#37426b" d="M5413.023,2666.546l-3.571-0.779c-0.281-1.608-1.494-2.966-3.187-3.335l-2.34-0.51
					l0.282-1.296l-0.687-0.15c-1.744-0.657-7.181-2.046-13.742-3.476c-8.02-1.748-14.585-2.877-14.663-2.522
					c-0.215,0.988,6.362,2.062,14.382,3.81c5.655,1.233,10.455,2.491,12.909,2.764l-0.112,0.514l-125.068-27.261l-8.743,1.562
					c-0.004-0.005-0.002-0.008-0.006-0.012c0,0-3.168-0.209-4.036-0.06c-0.811,0.14,3.295,1.322,3.84,1.477l7.182,5.122
					l129.039,28.127c1.713,0.373,3.391-0.384,4.309-1.758l3.56,0.776c0.827,0.18,1.643-0.344,1.823-1.17
					S5413.85,2666.726,5413.023,2666.546z" opacity=".43" class="color6b4337 svgShape"></path><g fill="#000000" class="color000000 svgShape"><path fill="#021b79" d="M5405.458 2666.483l-129.039-28.127-8.717-6.217 10.48-1.872 129.039 28.127c2.233.487 3.649 2.692 3.163 4.926l0 0C5409.897 2665.554 5407.692 2666.97 5405.458 2666.483zM5376.072 2650.44c-.215.987 6.361 2.061 14.382 3.81 8.021 1.748 14.43 3.594 14.663 2.522.078-.356-6.361-2.061-14.382-3.81C5382.714 2651.214 5376.15 2650.085 5376.072 2650.44z" class="color222c3d svgShape"></path><rect width="1.588" height="1.669" x="5403.386" y="2656.352" fill="#021b79" transform="rotate(-77.702 5404.109 2657.02)" class="color222c3d svgShape"></rect><path fill="#171b2b" d="M5413.98 2662.508l-4.867-1.061c-.827-.18-1.643.344-1.823 1.17s.344 1.642 1.17 1.823l4.867 1.061c.826.18 1.643-.344 1.823-1.17C5415.331 2663.504 5414.806 2662.688 5413.98 2662.508zM5269.434 2631.817c0 0-3.168-.209-4.036-.06s3.946 1.508 3.946 1.508S5270.069 2632.633 5269.434 2631.817z" class="color171f2b svgShape"></path></g></g></g><g fill="#000000" class="color000000 svgShape"><path fill="#464d66" d="M3472.211,2635.374c0,5.067-28.695,9.598-73.322,12.472c-16.808,1.072-35.857,1.949-56.514,2.533
				c-4.677,0.146-9.5,0.292-14.421,0.341c-11.352,0.244-23.142,0.39-35.272,0.438c-3.362,0.049-6.821,0.049-10.328,0.049h-4.19
				c-15.298-0.049-30.108-0.243-44.237-0.536c-4.872-0.097-9.695-0.195-14.372-0.39h-0.438c-4.872-0.146-9.647-0.292-14.323-0.438
				c-4.19-0.195-8.331-0.341-12.375-0.536c-3.605-0.146-7.113-0.341-10.572-0.536c-1.559-0.049-3.118-0.146-4.628-0.243
				c-51.057-2.826-84.673-7.698-84.673-13.154c0-4.093,18.27-7.795,48.378-10.523c8.77-0.828,18.513-1.559,29.085-2.241
				c4.482-0.292,9.11-0.536,13.885-0.78c6.382-0.341,12.959-0.633,19.78-0.828c4.677-0.195,9.5-0.39,14.372-0.536
				c0.926-0.049,1.851-0.049,2.826-0.098c4.677-0.097,9.452-0.195,14.323-0.292c11.839-0.292,24.213-0.438,36.88-0.487
				c3.362-0.049,6.821-0.049,10.28-0.049h4.239c14.664,0.049,28.89,0.195,42.58,0.536c4.872,0.097,9.646,0.195,14.323,0.292
				c37.514,1.072,69.765,3.069,92.566,5.7C3458.813,2628.651,3472.211,2631.867,3472.211,2635.374z" class="color464f66 svgShape"></path><g fill="#000000" class="color000000 svgShape"><path fill="#a3b8ce" d="M3311.12,2666.011h-43.625c-108.365,0-196.211-75.576-196.211-183.941v-239.836h436.048v239.836
					C3507.331,2590.434,3419.485,2666.011,3311.12,2666.011z" class="colora3c6ce svgShape"></path><path fill="#565e7a" d="M3506.98 2242.216c0 8.332-62.378 15.403-148.873 17.869-5.372.164-10.908.329-16.499.439-13.046.274-26.584.438-40.452.493-3.892.055-7.838.055-11.84.055h-4.824c-17.54-.055-34.532-.274-50.757-.658-5.591-.11-11.072-.219-16.444-.438h-.494c-5.591-.164-11.072-.329-16.444-.548-4.824-.219-9.538-.384-14.197-.603-5.975-.274-11.785-.603-17.431-.932-58.541-3.344-97.075-9.154-97.075-15.677 0-6.249 34.916-11.73 88.798-15.183 5.153-.329 10.469-.603 15.951-.932 7.29-.384 14.854-.713 22.638-.987 5.372-.219 10.908-.439 16.499-.603 1.041-.055 2.138-.055 3.234-.11 5.372-.164 10.853-.274 16.444-.384 13.594-.329 27.736-.493 42.261-.548 3.892-.055 7.838-.055 11.84-.055h4.824c16.828.055 33.162.219 48.839.603 5.591.11 11.073.219 16.444.384C3445.26 2226.923 3506.98 2233.939 3506.98 2242.216zM3433.419 2283.139c-112.87 19.611-227.757 19.909-340.726.871-6.134-1.034-8.77 8.354-2.59 9.396 114.776 19.342 231.231 19.054 345.906-.871C3442.176 2291.463 3439.562 2282.072 3433.419 2283.139zM3433.419 2327.392c-112.87 19.61-227.757 19.909-340.726.871-6.134-1.034-8.77 8.354-2.59 9.396 114.776 19.342 231.231 19.054 345.906-.871C3442.176 2335.716 3439.562 2326.324 3433.419 2327.392z" class="color565f7a svgShape"></path></g><g fill="#000000" class="color000000 svgShape"><path fill="#132770" d="M3235.215,2224.018c-0.329,12.114-0.822,24.228-1.48,36.396
					c-5.591-0.11-11.072-0.219-16.444-0.438c0.657-11.895,1.096-23.734,1.48-35.574c1.206-40.233,0.877-80.411-0.823-120.48
					c-0.438-12.114-1.042-24.173-1.809-36.287c-0.055-1.535-0.164-3.015-0.274-4.55c-0.603-10.195-1.315-20.391-2.138-30.586
					c-1.096-14.58-2.357-29.161-3.837-43.686c-1.151-12.004-2.412-24.008-3.837-36.013c-0.548-5.097-1.151-10.14-1.809-15.183
					c-0.165-1.754-0.384-3.453-0.603-5.207c-1.699-13.922-3.563-27.845-5.536-41.768c-0.164-1.535-0.384-3.124-0.657-4.714
					c-0.055-0.439-0.11-0.877-0.219-1.316c-0.438-3.563-0.987-7.126-1.535-10.743c-1.042-7.4-2.193-14.799-3.344-22.254v-0.055
					c-1.919-12.278-3.892-24.611-5.975-36.889c-0.219-1.535-0.493-3.015-0.767-4.55c-0.767-4.495-1.535-8.935-2.302-13.429
					c-0.658-3.947-1.37-7.893-2.083-11.84c-0.055-0.438-0.164-0.932-0.219-1.425c-0.11-0.384-0.165-0.767-0.219-1.151
					c-0.329-1.754-0.658-3.508-0.932-5.317c-0.109-0.438-0.219-0.877-0.274-1.37c-2.412-13.375-4.933-26.804-7.509-40.178
					c-1.425-7.4-2.906-14.744-4.33-22.145c-0.657-3.124-1.261-6.249-1.864-9.318c-1.48-7.4-3.015-14.745-4.55-22.09
					c-4.823-23.35-9.812-46.646-14.964-69.887c-0.329-1.37-0.603-2.796-0.932-4.166c-0.11-0.438-0.219-0.932-0.329-1.425
					c0-0.055,0-0.164-0.055-0.274c-1.26-5.701-2.521-11.456-3.837-17.157c-4.001-17.705-8.057-35.41-12.223-53.059
					c-0.384-1.699-0.767-3.344-1.151-5.043c-0.658-2.85-1.37-5.756-2.028-8.606c-0.11-0.384-0.165-0.822-0.274-1.206
					c-0.548-2.302-1.096-4.659-1.644-6.961c-1.864-7.839-3.728-15.622-5.591-23.46c-1.042-4.495-2.138-8.99-3.234-13.484
					c-2.521-10.524-5.043-20.993-7.564-31.518c-2.412-9.921-4.823-19.843-7.29-29.818c-2.467-10.14-4.933-20.281-7.4-30.422
					c-2.466-10.305,13.375-14.69,15.896-4.385c0.438,1.809,0.877,3.617,1.315,5.427c3.125,12.772,6.249,25.543,9.373,38.315
					c2.85,11.785,5.7,23.625,8.496,35.41c3.453,14.197,6.852,28.448,10.25,42.645c2.467,10.579,4.988,21.213,7.455,31.792
					c0.822,3.563,1.644,7.126,2.467,10.689c2.686,11.566,5.371,23.131,8.003,34.752c2.083,9.318,4.166,18.637,6.249,27.955
					c0.877,4.057,1.809,8.058,2.686,12.114c0,0.11,0.054,0.274,0.054,0.384c1.206,5.372,2.357,10.798,3.508,16.17
					c2.96,13.649,5.865,27.297,8.716,40.946c2.247,11.072,4.495,22.09,6.687,33.162c0.712,3.508,1.425,7.016,2.083,10.525
					c0.439,2.192,0.877,4.44,1.261,6.632c1.809,9.099,3.508,18.143,5.207,27.242c0.658,3.508,1.315,7.016,1.919,10.524
					c1.535,8.167,3.015,16.334,4.385,24.502c0.274,1.37,0.493,2.686,0.713,4.056c0.548,2.96,1.041,5.92,1.534,8.88
					c1.042,5.755,1.974,11.511,2.905,17.266c1.042,6.03,2.028,12.059,2.96,18.089c2.193,13.813,4.33,27.681,6.304,41.548
					c0.657,4.385,1.26,8.771,1.809,13.156c0.109,0.329,0.164,0.713,0.164,1.041c2.028,14.251,3.837,28.503,5.536,42.809
					c0.219,1.589,0.439,3.124,0.603,4.714c0.11,1.042,0.274,2.083,0.329,3.124c1.535,12.607,2.905,25.215,4.111,37.822
					c1.754,16.663,3.234,33.326,4.44,49.99c0.713,8.606,1.315,17.211,1.864,25.817c0.274,4.385,0.548,8.716,0.822,13.046
					c0.548,9.538,0.987,19.075,1.37,28.613C3236.092,2141.305,3236.475,2182.634,3235.215,2224.018z" class="color137058 svgShape"></path><g fill="#000000" class="color000000 svgShape"><path fill="#0e1f5e" d="M3216.797,2259.976c-5.591-0.164-11.072-0.329-16.444-0.548
						c-0.438-11.456-0.822-22.857-1.316-34.313c-1.425-38.534-3.125-77.068-5.098-115.602c-0.603-13.045-1.26-26.037-1.973-39.082
						c-0.11-2.85-0.274-5.756-0.439-8.606c-0.11-1.59-0.164-3.125-0.274-4.714c-0.384-6.961-0.768-13.922-1.206-20.884
						c-0.054-1.973-0.164-4.001-0.329-5.975c-1.425-24.886-2.96-49.771-4.659-74.601c-0.329-5.756-0.768-11.511-1.151-17.266
						c-0.274-3.892-0.548-7.729-0.822-11.566c-0.164-2.193-0.274-4.33-0.438-6.468c-0.767-10.469-1.535-20.939-2.357-31.354
						c0-0.713-0.055-1.425-0.165-2.138c0-0.548-0.055-1.096-0.109-1.644c-0.055-1.26-0.165-2.521-0.274-3.782
						c-0.11-1.261-0.165-2.521-0.274-3.782c-0.438-5.207-0.822-10.414-1.261-15.567c-0.438-5.755-0.877-11.456-1.37-17.212
						c-1.151-13.923-2.357-27.845-3.727-41.823c-0.384-3.617-0.713-7.29-1.096-10.963c-0.055-0.439-0.11-0.877-0.164-1.315
						c-0.384-3.727-0.768-7.51-1.206-11.237c-0.11-1.425-0.274-2.796-0.439-4.166c-0.109-1.096-0.219-2.138-0.329-3.179
						c-1.151-10.085-2.357-20.116-3.673-30.147c-1.48-11.182-3.07-22.364-4.769-33.491c-0.274-1.754-0.548-3.508-0.822-5.207
						c-1.315-8.003-2.631-15.95-4.111-23.899c-4.111-22.967-8.935-45.769-14.69-68.352c-0.987-4.001-2.083-8.003-3.179-12.004
						c-1.042-4.001-2.138-7.948-3.234-11.894c-5.262-18.307-11.127-36.451-17.76-54.32c-3.453-9.373-7.126-18.637-11.018-27.845
						c-0.658-1.644-1.37-3.289-2.028-4.879c-5.207-12.004-10.743-23.844-16.718-35.519c-3.727-7.345-7.619-14.635-11.675-21.871
						c-1.699-3.015-1.315-5.865,0.109-8.113c0.767-1.261,1.919-2.302,3.234-3.015c3.508-2.028,8.222-1.754,10.799,2.741
						c0.054,0,0.054,0.055,0.054,0.055c3.947,7.016,7.784,14.142,11.401,21.268c4.001,7.838,7.838,15.731,11.51,23.679
						c1.699,3.727,3.399,7.455,4.989,11.237c3.727,8.441,7.235,16.992,10.579,25.598c0.987,2.576,1.973,5.098,2.906,7.674
						c0.548,1.48,1.096,2.905,1.589,4.33c0.438,1.042,0.768,2.028,1.151,3.015c1.261,3.453,2.467,6.961,3.673,10.415
						c4.988,14.361,9.482,28.887,13.594,43.522c2.028,7.181,3.947,14.416,5.81,21.651c0.219,0.877,0.438,1.754,0.658,2.631
						c0.439,1.645,0.822,3.344,1.261,5.043c0.164,0.658,0.329,1.316,0.438,1.974c0.603,2.247,1.151,4.495,1.645,6.797
						c0.548,2.247,1.041,4.495,1.535,6.742c3.892,16.883,7.29,33.929,10.25,51.031c1.26,7.071,2.467,14.142,3.618,21.213
						c0.109,1.042,0.274,2.028,0.438,3.069c0.548,3.289,1.041,6.523,1.535,9.812c0.329,2.466,0.713,4.878,1.096,7.345
						c0.164,1.315,0.329,2.631,0.548,3.947c1.864,13.429,3.563,26.913,5.098,40.452c0.384,3.179,0.768,6.413,1.151,9.647
						l0.987,9.538c0.055,0.274,0.055,0.493,0.055,0.767c0.932,8.661,1.809,17.376,2.576,26.036c0.11,0.877,0.165,1.754,0.274,2.686
						c0.329,3.453,0.603,6.852,0.932,10.305c0.658,7.455,1.315,14.909,1.918,22.364c0.713,8.551,1.425,17.102,2.083,25.653
						c0.329,3.618,0.603,7.29,0.877,10.908c0.055,0.274,0.055,0.548,0.11,0.822c0.11,1.644,0.219,3.289,0.329,4.933
						c1.042,13.265,2.028,26.53,2.96,39.849c0.164,2.467,0.384,4.933,0.493,7.4c0.439,5.81,0.822,11.62,1.206,17.431
						c0.822,11.949,1.644,23.899,2.357,35.848c0.877,13.977,1.699,28.01,2.521,41.987c0.384,7.016,0.822,14.032,1.206,21.048
						c0,0.658,0.055,1.315,0.109,1.973c0.165,3.07,0.329,6.194,0.493,9.319v0.384c0.713,13.32,1.425,26.585,2.028,39.904
						c1.973,39.575,3.672,79.205,5.153,118.836C3215.975,2236.296,3216.414,2248.136,3216.797,2259.976z" class="color0e5e47 svgShape"></path><g fill="#000000" class="color000000 svgShape"><path fill="#0e1f5e" d="M3082.884 1242.941c-.006-7.647 65.607 84.541 9.54 189.127 0 0-12.812 16.1-12.989-2.278C3079.052 1390.009 3082.937 1304.682 3082.884 1242.941zM3111.984 1480.932c0 0 92.629-110.433 76.501-186.284s-16.128-75.851-16.128-75.851 20.48 80.402-11.607 134.666c-32.087 54.263-63.502 110.332-63.502 110.332L3111.984 1480.932z" class="color0e5e47 svgShape"></path><path fill="#0e1f5e" d="M3083.77 1433.902c0 0-34.844 8.356-97.436-27.743-62.332-35.95-96.52-65.613-96.52-65.613s97.789 117.579 208.738 125.198L3083.77 1433.902zM3264.48 1310.403c0 0-88.369 206.906-128.972 233.266l-14.054-16.748C3121.455 1526.921 3245.918 1347.585 3264.48 1310.403zM3506.014 1723.561c0 0-264.674 166.119-326.614 163.319l16.267-44.368C3195.667 1842.512 3458.968 1748.458 3506.014 1723.561z" class="color0e5e47 svgShape"></path><path fill="#0e1f5e" d="M3117.742 1506.474c0 0-120.251-16.113-179.186-17.147-58.935-1.034-58.935-1.034-58.935-1.034s98.457 19.125 169.404 36.457c73.011 17.835 85.498 2.534 85.498 2.534L3117.742 1506.474zM3292.657 1415.31c-.649 13.128-101.45 199.411-138.813 212.345l-10.035-32.854L3292.657 1415.31z" class="color0e5e47 svgShape"></path><path fill="#0e1f5e" d="M3160.797 1614.663c-4.314.231-210.508-45.927-251.723-31.097 0 0 78.294-44.969 240.565 8.053L3160.797 1614.663zM3187.647 1881.587c-4.314.231-292.345-7.584-329.335-14.749 0 0 155.906-61.317 318.177-8.295L3187.647 1881.587zM3199.594 1955.95c-4.314.231-292.345-7.584-329.335-14.749 0 0 167.083-62.449 329.354-9.427L3199.594 1955.95zM3328.343 1540.952c1.637-5.014-146.687 133.581-158.357 143.058 0 0 6.381 37.691 5.887 34.438C3175.379 1715.194 3302.154 1621.176 3328.343 1540.952z" class="color0e5e47 svgShape"></path><path fill="#0e1f5e" d="M3451.463 1838.824c1.637-5.014-243.865 110.388-255.535 119.865 0 0-2.465 40.473-2.959 37.22C3192.474 1992.656 3425.273 1919.049 3451.463 1838.824zM3178.171 1705.434c0 0-240.944-31.757-310.383 15.147 0 0 157.78-115.433 303.49-33.5L3178.171 1705.434zM3208.707 2056.003c0 0-277.89 13.04-347.543 90.925 0 0 156.619-188.684 336.346-113.62L3208.707 2056.003zM3179.4 1787.588c0 0 78.781-122.181 151.412-159.378 72.146-36.948 82.519-29.573 82.519-29.573s-88.815 52.556-225.773 220.777L3179.4 1787.588z" class="color0e5e47 svgShape"></path><path fill="#0e1f5e" d="M3181.834 1777.064c-.504-5.742-210.446-60.167-299.1 22.6 0 0 274.176-32.101 304.402.026L3181.834 1777.064zM3601.315 2155.64c0 0-320.703-149.332-411.777-119.246l-3.027 24.262C3186.511 2060.657 3457.813 2124.248 3601.315 2155.64z" class="color0e5e47 svgShape"></path></g></g><g fill="#000000" class="color000000 svgShape"><path fill="#132770" d="M3530.44,1125.226c-11.182,9.264-22.035,18.856-32.504,28.941
						c-11.127,10.634-21.871,21.706-32.176,33.162c-13.429,14.855-26.201,30.422-38.205,46.482l-0.055,0.054
						c-6.577,8.77-12.936,17.705-19.075,26.804c-9.866,14.416-19.13,29.161-27.955,44.289c-4.276,7.345-8.442,14.69-12.498,22.199
						c-0.11,0.219-0.274,0.493-0.384,0.767c-4.604,8.496-9.099,17.102-13.375,25.763c-5.81,11.565-11.292,23.241-16.444,35.08
						c-2.028,4.44-3.947,8.88-5.81,13.375c-4.714,10.963-9.154,21.98-13.32,33.108l-0.055,0.109
						c-2.686,7.016-5.262,14.032-7.729,21.048c-1.809,4.933-3.508,9.921-5.153,14.909c-2.248,6.632-4.44,13.265-6.468,19.952
						c-3.234,10.141-6.249,20.336-9.099,30.531v0.055c-2.247,7.838-4.33,15.677-6.303,23.57c-3.563,13.868-6.852,27.79-9.812,41.713
						c-0.164,0.658-0.329,1.37-0.438,2.083c-1.809,8.387-3.508,16.828-5.043,25.214c-1.37,7.016-2.576,14.032-3.728,21.048
						c-0.712,3.947-1.37,7.838-1.973,11.785c-0.219,1.261-0.384,2.467-0.603,3.727c-0.329,2.412-0.713,4.879-1.096,7.29
						c-0.932,6.413-1.809,12.826-2.577,19.239c-0.493,3.563-0.932,7.126-1.315,10.689c-0.438,3.782-0.877,7.619-1.26,11.401
						c-1.59,14.909-2.851,29.819-3.782,44.728c-0.713,10.908-1.261,21.816-1.644,32.724c-0.384,10.195-0.658,20.445-0.768,30.641
						v1.425c-0.055,4.659-0.11,9.263-0.11,13.868c0,7.29,0.055,14.58,0.165,21.816c0.11,6.852,0.274,13.703,0.493,20.555
						c0.384,13.32,0.932,26.694,1.699,40.069c0.11,2.083,0.219,4.111,0.384,6.194c0.329,5.865,0.712,11.675,1.151,17.541
						c0.11,2.028,0.274,4.111,0.439,6.139c0.548,7.674,1.151,15.348,1.863,23.077c0.329,3.946,0.713,7.948,1.096,11.895
						c2.083,22.199,4.55,44.344,7.345,66.434c0.548,4.385,1.096,8.77,1.754,13.1c1.26,10.141,2.686,20.281,4.165,30.367
						c0.548,3.782,1.096,7.564,1.645,11.292c6.577,44.18,14.197,88.195,22.254,131.936c2.302,12.552,4.659,25.105,7.016,37.602
						c-3.892,0.055-7.838,0.055-11.84,0.055h-4.824c-2.412-12.552-4.714-25.05-7.016-37.602
						c-7.838-42.645-15.183-85.4-21.487-128.319c-0.987-6.303-1.918-12.607-2.795-18.911c-1.042-7.509-2.083-15.019-3.07-22.529
						c-0.877-6.468-1.699-12.936-2.521-19.459c-2.357-19.185-4.494-38.369-6.303-57.609c-0.877-8.715-1.644-17.485-2.357-26.201
						c-0.384-4.55-0.712-9.099-1.042-13.648c-0.055-0.165-0.055-0.329,0-0.494c-0.877-10.798-1.59-21.651-2.137-32.504
						c-0.11-1.809-0.219-3.563-0.274-5.372c-0.493-8.77-0.822-17.54-1.151-26.311c-0.384-11.949-0.657-23.898-0.767-35.793
						c0-2.467-0.055-4.933-0.055-7.4c0-4.495,0-8.99,0.055-13.429c0-4.111,0.055-8.222,0.11-12.333
						c0.219-12.991,0.603-25.927,1.206-38.918v-0.658c0.877-18.253,2.138-36.506,3.837-54.704c0.11-1.096,0.219-2.138,0.329-3.234
						c0.658-6.797,1.37-13.539,2.193-20.335c1.096-9.921,2.412-19.788,3.837-29.709c0.384-2.795,0.822-5.536,1.26-8.331
						c0.055-0.384,0.11-0.822,0.165-1.206c0.164-1.042,0.329-2.137,0.493-3.179c1.809-11.566,3.837-23.186,6.084-34.862
						c0.658-3.727,1.425-7.509,2.193-11.292c1.042-5.207,2.083-10.414,3.289-15.622c0.439-2.193,0.932-4.44,1.425-6.687
						c3.234-14.635,6.797-29.325,10.744-43.96c5.262-19.788,11.127-39.576,17.65-59.144c1.59-4.988,3.289-9.921,4.988-14.854
						c0.439-1.315,0.877-2.631,1.37-3.892c0,0,0-0.055,0.055-0.11c0.055-0.219,0.274-0.822,0.603-1.644
						c4.166-11.894,8.606-23.734,13.32-35.464c0.274-0.768,0.548-1.48,0.768-2.028c4.166-10.415,8.551-20.774,13.155-31.025
						c1.37-3.344,2.905-6.632,4.44-9.921c4.111-9.099,8.386-18.143,12.881-27.078c6.358-12.772,13.046-25.379,20.062-37.821v-0.055
						c4.33-7.729,8.825-15.402,13.429-22.967c1.973-3.344,4.056-6.633,6.084-9.921c0.438-0.713,0.877-1.37,1.316-2.083l0.055-0.055
						c5.536-8.825,11.292-17.486,17.211-26.036c19.13-27.681,40.069-53.937,62.871-78.328l0.164-0.11
						c6.742-7.235,13.648-14.306,20.72-21.158c11.839-11.566,24.172-22.638,36.944-33.162
						C3526.932,1106.918,3538.662,1118.484,3530.44,1125.226z" class="color137058 svgShape"></path><g fill="#000000" class="color000000 svgShape"><path fill="#1a2f80" d="M3718.737,987.866c7.811-5.47-133.291-6.425-199.901,125.717c0,0-7.26,24.61,11.628,11.628
							C3571.348,1097.11,3655.67,1032.032,3718.737,987.866z" class="color1a8066 svgShape"></path><path fill="#132770" d="M3461.011,1168.036c0,0-87.216-157.165-49.485-246.203s37.731-89.037,37.731-89.037
							s-44.139,93.578-17.723,167.62c26.417,74.042,51.581,150.134,51.581,150.134L3461.011,1168.036z" class="color137058 svgShape"></path><path fill="#1a2f80" d="M3490.285,1151.77c0,0,40.677,18.493,125.867-10.861
							c84.836-29.231,133.725-57.44,133.725-57.44s-147.602,120.76-285.24,103.779L3490.285,1151.77z" class="color1a8066 svgShape"></path><path fill="#132770" d="M3278.298 956.318c0 0 59.125 274.264 102.583 316.164l21.177-17.172C3402.058 1255.31 3292.206 1006.24 3278.298 956.318zM2965.57 1348.138c0 0 207.596 329.778 278.711 360.122l5.71-58.652C3249.992 1649.608 3004.974 1401.553 2965.57 1348.138z" class="color137058 svgShape"></path><path fill="#132770" d="M3427.537,1233.812c0,0,151.041,8.789,223.438,21.498
							c72.397,12.709,72.397,12.709,72.397,12.709s-125.073,0.068-216.042,4.462c-93.615,4.522-105.273-17.172-105.273-17.172
							L3427.537,1233.812z" class="color137058 svgShape"></path><path fill="#1a2f80" d="M3220.345,1052.436c-2.318,16.227,76.917,268.19,119.592,292.885l20.076-37.843
							L3220.345,1052.436z" class="color1a8066 svgShape"></path><path fill="#132770" d="M3348.42 1353.499c5.227 1.306 268.61-6.31 315.552 21.62 0 0-85.19-73.62-296.427-47.185L3348.42 1353.499zM3244.282 1675.078c5.227 1.306 359.709 60.038 406.693 60.038 0 0-176.332-112.038-387.569-85.604L3244.282 1675.078zM3244.282 1806.718c5.227 1.306 359.709 60.038 406.693 60.038 0 0-189.746-116.075-400.983-89.641L3244.282 1806.718zM3150.222 1198.878c-.815-6.526 147.908 198.323 159.949 212.693 0 0-16.749 44.631-15.373 40.765S3163.262 1303.305 3150.222 1198.878z" class="color137058 svgShape"></path><path fill="#132770" d="M2965.57 1569.774c-.815-6.526 272.381 192.972 284.422 207.341 0 0-6.58 50.135-5.203 46.269C3246.165 1819.519 2978.61 1674.201 2965.57 1569.774zM3305.825 1456.075c0 0 302.512 18.255 376.402 92.145 0 0-165.793-178.735-363.611-112.979L3305.825 1456.075zM3278.298 1548.219c0 0-67.476-168.264-147.577-231.027-79.565-62.343-94.013-55.773-94.013-55.773s96.271 85.403 224.055 323.828L3278.298 1548.219zM3290.154 1521.777c1.978-6.911 271.91-23.758 360.821 98.593 0 0-328.054-104.315-372.677-72.151L3290.154 1521.777zM3252.039 1905.442c0 0 228.834-65.693 310.676 90.04 81.842 155.733 88.26 166.98 88.26 166.98s-173.321-217.095-256.773-226.599c-83.452-9.504-144.21 0-144.21 0L3252.039 1905.442z" class="color137058 svgShape"></path><path fill="#132770" d="M2719.635,1953.787c0,0,428.039-106.775,532.404-48.345l-2.047,30.421
							C3249.992,1935.863,2902.765,1949.383,2719.635,1953.787z" class="color137058 svgShape"></path></g></g><g fill="#000000" class="color000000 svgShape"><path fill="#132770" d="M3481.985,1450.325c-4.056,7.235-7.948,14.525-11.676,21.871
						c-0.493,0.877-0.932,1.754-1.37,2.686c-6.249,12.388-12.059,24.995-17.376,37.712c-1.589,3.727-3.124,7.51-4.604,11.237
						c-2.248,5.536-4.385,11.018-6.414,16.609c-2.521,6.742-4.878,13.484-7.18,20.281c-3.782,11.237-7.29,22.583-10.579,34.039
						c-2.247,7.948-4.385,15.896-6.413,23.898c-2.741,10.744-5.262,21.542-7.619,32.45c-2.576,11.895-4.933,23.844-7.071,35.848
						c-0.822,4.495-1.644,8.99-2.357,13.484c-0.603,3.508-1.206,6.961-1.754,10.469c-3.179,20.007-5.92,40.178-8.277,60.405
						c-0.274,2.247-0.548,4.549-0.822,6.852c-0.055,0.493-0.109,1.041-0.164,1.589c-0.548,4.933-1.096,9.866-1.644,14.855
						c-0.165,1.699-0.329,3.344-0.548,5.043c-0.987,9.976-1.918,19.897-2.796,29.874c-0.713,7.619-1.37,15.293-1.973,22.912
						c-0.493,5.7-0.932,11.346-1.37,17.047v0.164c-0.548,6.413-1.042,12.881-1.535,19.349c-0.11,1.042-0.164,2.083-0.219,3.125
						c-0.055,0.219-0.055,0.438-0.055,0.658c-0.054,0.548-0.109,1.096-0.109,1.644c-0.493,5.865-0.932,11.73-1.315,17.595
						c-0.603,7.29-1.096,14.635-1.645,21.98v0.329c-0.713,9.592-1.37,19.24-2.028,28.887c-1.644,24.83-3.234,49.715-4.659,74.601
						c-0.11,1.973-0.219,4.001-0.329,5.974c-0.384,6.468-0.768,12.936-1.096,19.404c-0.055,0.493-0.11,0.986-0.11,1.479
						c-0.11,1.59-0.164,3.125-0.274,4.714c-0.548,10.908-1.151,21.816-1.699,32.723c-2.083,40.727-3.946,81.508-5.481,122.289
						c-0.493,11.895-0.932,23.789-1.315,35.684c-5.372,0.164-10.908,0.329-16.499,0.439c0.439-12.169,0.877-24.337,1.37-36.506
						c1.589-41.878,3.398-83.755,5.591-125.632c0.384-8.332,0.822-16.718,1.26-25.05c0.11-3.234,0.329-6.468,0.494-9.702
						c0.054-0.712,0.109-1.37,0.164-2.083c0-1.151,0.11-2.302,0.165-3.453c0.329-5.81,0.603-11.621,0.987-17.486
						c0.768-13.978,1.59-28.01,2.521-41.987c0.713-11.949,1.48-23.953,2.302-35.903c0.658-9.976,1.37-19.952,2.083-29.928
						c0.274-3.508,0.493-7.071,0.767-10.634c0.768-9.921,1.48-19.897,2.302-29.818c0-0.219,0-0.438,0.055-0.658
						c0.329-4.769,0.712-9.483,1.151-14.251c0.548-7.236,1.151-14.416,1.754-21.651c0.603-7.455,1.261-14.909,1.918-22.364
						c0.165-2.137,0.384-4.33,0.603-6.468c0.109-1.315,0.219-2.576,0.329-3.892c0.548-6.194,1.151-12.443,1.808-18.637
						c0.658-6.797,1.37-13.539,2.083-20.336c0.219-2.083,0.494-4.166,0.713-6.249c0.055-0.548,0.11-1.096,0.165-1.59
						c2.083-17.869,4.385-35.738,7.016-53.498c0.493-3.289,0.987-6.577,1.535-9.866c0.11-1.096,0.329-2.138,0.493-3.234
						c0.604-3.947,1.261-7.893,1.919-11.785c0.548-3.125,1.042-6.194,1.645-9.264c2.302-13.265,4.878-26.42,7.674-39.521
						c1.315-6.139,2.686-12.223,4.111-18.307c0.657-2.905,1.37-5.81,2.083-8.715c0.438-1.754,0.877-3.508,1.315-5.207
						c0.932-3.782,1.918-7.51,2.85-11.292c0.658-2.357,1.316-4.769,1.974-7.126c0.493-1.918,1.042-3.782,1.589-5.646
						c3.344-11.949,6.961-23.789,10.853-35.574c0.877-2.631,1.809-5.317,2.741-8.003c1.535-4.495,3.124-8.935,4.823-13.429
						c0.494-1.425,1.042-2.85,1.59-4.33c0.932-2.576,1.918-5.098,2.905-7.674c0.274-0.713,0.548-1.48,0.877-2.192
						c4.549-11.675,9.428-23.241,14.69-34.642c2.302-4.933,4.604-9.866,7.016-14.745c1.48-3.015,2.96-5.975,4.495-8.935
						c3.617-7.126,7.455-14.252,11.401-21.268c0,0,0-0.055,0.055-0.055c2.576-4.495,7.29-4.769,10.798-2.741
						c1.315,0.713,2.467,1.754,3.234,3.015C3483.301,1444.46,3483.684,1447.311,3481.985,1450.325z" class="color137058 svgShape"></path><g fill="#000000" class="color000000 svgShape"><path fill="#132770" d="M3475.286 1250.499c.007-7.647-65.607 84.541-9.539 189.127 0 0 12.812 16.1 12.989-2.278C3479.118 1397.567 3475.233 1312.24 3475.286 1250.499zM3446.186 1488.49c0 0-92.629-110.433-76.501-186.284 16.128-75.851 16.128-75.851 16.128-75.851s-20.481 80.402 11.607 134.666 63.502 110.332 63.502 110.332L3446.186 1488.49z" class="color137058 svgShape"></path><path fill="#132770" d="M3474.4 1441.459c0 0 34.844 8.356 97.436-27.743 62.332-35.95 96.52-65.613 96.52-65.613s-97.789 117.579-208.738 125.199L3474.4 1441.459zM3293.69 1317.961c0 0 88.369 206.906 128.972 233.266l14.054-16.748C3436.716 1534.479 3312.252 1355.143 3293.69 1317.961zM3052.156 1731.118c0 0 264.674 166.119 326.614 163.319l-16.267-44.367C3362.503 1850.07 3099.202 1756.016 3052.156 1731.118z" class="color137058 svgShape"></path><path fill="#132770" d="M3440.428 1514.031c0 0 120.251-16.113 179.186-17.147 58.935-1.034 58.935-1.034 58.935-1.034s-98.457 19.125-169.404 36.457c-73.011 17.835-85.498 2.534-85.498 2.534L3440.428 1514.031zM3265.513 1422.868c.649 13.128 101.45 199.411 138.813 212.345l10.035-32.854L3265.513 1422.868z" class="color137058 svgShape"></path><path fill="#132770" d="M3397.373 1622.221c4.314.231 210.508-45.927 251.723-31.097 0 0-78.294-44.969-240.565 8.053L3397.373 1622.221zM3370.523 1889.145c4.314.231 292.345-7.584 329.335-14.749 0 0-155.906-61.317-318.177-8.294L3370.523 1889.145zM3358.576 1963.507c4.314.231 292.345-7.584 329.335-14.749 0 0-167.083-62.449-329.354-9.427L3358.576 1963.507zM3229.827 1548.509c-1.637-5.014 146.687 133.581 158.357 143.058 0 0-6.381 37.691-5.887 34.438C3382.791 1722.751 3256.016 1628.734 3229.827 1548.509z" class="color137058 svgShape"></path><path fill="#132770" d="M3106.708 1846.382c-1.637-5.014 243.865 110.388 255.535 119.865 0 0 2.465 40.473 2.959 37.22C3365.696 2000.213 3132.897 1926.606 3106.708 1846.382zM3379.999 1712.991c0 0 240.944-31.757 310.383 15.147 0 0-157.78-115.432-303.49-33.5L3379.999 1712.991zM3349.463 2063.561c0 0 277.89 13.04 347.543 90.925 0 0-156.618-188.684-336.346-113.62L3349.463 2063.561zM3378.77 1795.146c0 0-78.781-122.181-151.412-159.378-72.146-36.948-82.519-29.573-82.519-29.573s88.815 52.556 225.773 220.777L3378.77 1795.146z" class="color137058 svgShape"></path><path fill="#132770" d="M3376.336 1784.622c.503-5.743 210.446-60.167 299.1 22.599 0 0-274.176-32.1-304.402.026L3376.336 1784.622zM2956.855 2163.198c0 0 320.703-149.332 411.777-119.246l3.027 24.262C3371.659 2068.214 3100.358 2131.805 2956.855 2163.198z" class="color137058 svgShape"></path></g></g><g fill="#000000" class="color000000 svgShape"><path fill="#1a2f80" d="M3186.157,2258.825c-5.975-0.274-11.785-0.603-17.431-0.932
						c-3.344-10.085-5.975-20.39-8.277-30.86c-5.92-27.571-9.263-56.074-15.293-83.316c-1.59-7.29-3.289-14.526-5.043-21.816
						c-2.521-10.359-5.208-20.664-8.058-30.914c-2.521-9.209-5.153-18.418-8.003-27.572c-4.823-16.005-10.085-31.902-15.731-47.688
						c-2.193-6.249-4.495-12.497-6.852-18.746c-5.372-14.252-11.073-28.394-17.157-42.426c-0.219-0.658-0.493-1.261-0.822-1.919
						c-1.425-3.453-2.96-6.906-4.495-10.359c-2.521-5.646-5.043-11.292-7.674-16.938h-0.055c-2.247-4.988-4.604-9.921-7.071-14.855
						c-2.741-5.81-5.591-11.565-8.606-17.321c-2.576-5.262-5.317-10.524-8.112-15.731c-2.522-4.933-5.153-9.812-7.838-14.635
						c-3.892-7.18-7.893-14.252-12.059-21.323c-0.822-1.48-1.699-2.96-2.576-4.44c-7.729-13.32-15.786-26.475-24.173-39.411
						c-1.754-2.741-3.563-5.481-5.372-8.222c-3.289-5.098-6.687-10.141-10.14-15.129c-3.453-5.152-7.016-10.25-10.579-15.348
						c-4.604-6.468-9.263-12.936-13.977-19.295c-4.056-5.481-8.167-10.963-12.333-16.334c-3.125-4.056-6.249-8.112-9.428-12.114
						c-3.289-4.166-1.974-9.209,1.041-12.114c1.864-1.864,4.44-2.85,6.907-2.083c0.767,0.164,1.48,0.493,2.138,1.042
						c0.548,0.383,1.041,0.932,1.535,1.535c8.222,10.415,16.28,20.939,24.118,31.573c6.194,8.332,12.169,16.773,18.088,25.269
						c0.877,1.206,1.699,2.467,2.521,3.672c5.701,8.277,11.292,16.554,16.718,24.995c0.712,0.987,1.37,2.028,1.973,3.069
						c7.838,12.114,15.458,24.447,22.748,36.89c2.412,3.946,4.714,7.948,6.962,11.949c2.85,4.824,5.591,9.757,8.222,14.635
						c0.11,0.055,0.11,0.055,0.054,0.11c4.879,8.715,9.593,17.485,14.197,26.31c2.302,4.495,4.604,8.99,6.852,13.484
						c0.932,1.809,1.809,3.672,2.74,5.536c2.302,4.604,4.55,9.264,6.742,13.922c3.398,7.181,6.742,14.416,9.976,21.651
						c0.055,0.055,0.055,0.055,0.055,0.055c1.315,2.96,2.631,5.975,3.892,8.935c1.754,3.837,3.398,7.729,5.043,11.62
						c1.918,4.44,3.782,8.935,5.591,13.429c6.632,16.335,12.936,32.834,18.746,49.497c5.317,15.019,10.25,30.148,14.8,45.44
						c2.412,7.893,4.714,15.841,6.906,23.844c3.015,10.853,5.865,21.761,8.496,32.723c0.274,1.042,0.548,2.028,0.767,3.07
						c8.058,33.546,11.401,70.216,19.569,104.858C3179.031,2237.283,3182.155,2248.246,3186.157,2258.825z" class="color1a8066 svgShape"></path><g fill="#000000" class="color000000 svgShape"><path fill="#1a2f80" d="M2937.053 1689.913c-.676-5.216-96.297-100.837-162.363-97.36l164.286 118.611 11.628-11.628L2937.053 1689.913zM3005.921 1488.239c-6.954 3.477-55 156.594-55.317 211.298-.317 54.704 24.164 31.63 24.164 31.63L3005.921 1488.239z" class="color1a8066 svgShape"></path><path fill="#1a2f80" d="M2790.337 1842.468c5.216-4.776 123.439-114.306 170.38-122.999l14.05 11.697L2790.337 1842.468zM2802.507 1953.787c0 0 116.224-169.991 187.636-180.422l15.777 20.863C3005.921 1794.228 2814.677 1922.104 2802.507 1953.787z" class="color1a8066 svgShape"></path><path fill="#1a2f80" d="M3071.634 1573.429c-.6-6.937-81.491 199.936-81.491 199.936l15.777 20.863C3005.921 1794.228 3081.713 1689.913 3071.634 1573.429zM3031.35 1838.579l-188.855 145.153c0 0 83.451-1.739 123.439-46.942 39.987-45.203 86.147-85.137 86.147-85.137L3031.35 1838.579z" class="color1a8066 svgShape"></path><path fill="#1a2f80" d="M3118.928 1630.802c-1.098-7.889-87.578 207.778-87.578 207.778l20.73 13.075C3052.081 1851.654 3131.504 1721.208 3118.928 1630.802zM3071.283 1925.321c0 0-68.84 140.124-145.337 162.726-76.497 22.602-63.299 22.576-63.299 22.576s121.113 1.764 168.703-64.302c47.591-66.066 61.214-113.669 61.214-113.669L3071.283 1925.321z" class="color1a8066 svgShape"></path><path fill="#1a2f80" d="M3075.814,1897.046c-0.351-0.716,76.147-181.394,150.906-200.348
							c0,0-125.935,214.08-134.156,235.955C3084.343,1954.527,3075.814,1897.046,3075.814,1897.046z" class="color1a8066 svgShape"></path></g></g></g><g fill="#000000" class="color000000 svgShape"><path fill="#565e7a" d="M3422.645,2684.927c-93.512,9.229-187.024,9.229-280.537,0
					c-27.363,0-49.544-22.182-49.544-49.545l0,0c123.154,20.817,249.604,21.384,379.626,0l0,0
					C3472.19,2662.746,3450.008,2684.927,3422.645,2684.927z" class="color565f7a svgShape"></path></g></g><g fill="#000000" class="color000000 svgShape"><g fill="#000000" class="color000000 svgShape"><g fill="#000000" class="color000000 svgShape"><g fill="#000000" class="color000000 svgShape"><g fill="#000000" class="color000000 svgShape"><g fill="#000000" class="color000000 svgShape"><rect width="152" height="1123" x="4027.507" y="3877" fill="#5c678e" class="color8e695c svgShape"></rect><rect width="152" height="1123" x="4139.507" y="3877" fill="#6b759b" class="color9b776b svgShape"></rect></g><g fill="#000000" class="color000000 svgShape"><rect width="152" height="1447" x="4615.507" y="3553" fill="#5c678e" class="color8e695c svgShape"></rect><rect width="152" height="1447" x="4727.507" y="3553" fill="#6b759b" class="color9b776b svgShape"></rect></g></g><g fill="#000000" class="color000000 svgShape"><polygon fill="#5c678e" points="5007.436 3558.565 4.115 3558.565 4.115 4199.958 4363.733 4199.958" class="color8e695c svgShape"></polygon><g fill="#000000" class="color000000 svgShape"><polygon fill="#6b759b" points="5007.436 3471.789 4.115 3471.789 4.115 4113.181 4363.733 4113.181" class="color9b776b svgShape"></polygon><polygon fill="#5c678e" points="5007.436 3471.789 5007.436 3558.565 4363.733 4199.958 4363.733 4113.181" class="color8e695c svgShape"></polygon><rect width="4359.618" height="86.776" x="4.115" y="4113.181" fill="#515b82" class="color825d51 svgShape"></rect></g></g></g><path fill="#37426b" d="M3852.682,3785.526l-385.948,414.432h287.773l12.945-86.987l58.231-108.455
						l-10.5-14.999C3920.178,3844.023,3852.682,3785.526,3852.682,3785.526z" opacity=".43" class="color6b4337 svgShape"></path></g><g fill="#000000" class="color000000 svgShape"><g fill="#000000" class="color000000 svgShape"><polygon fill="#37426b" points="3498.801 3628.491 4038.973 3628.491 3727.445 4008.613 3140.472 4008.613" opacity=".43" class="color6b4337 svgShape"></polygon><polygon fill="#dfe6ed" points="3497.372 3613.844 4037.544 3613.844 3726.016 3993.965 3139.043 3993.965" class="colordfe5ed svgShape"></polygon><g fill="#000000" class="color000000 svgShape"><path fill="#ced4db" d="M3691.315,3773.368c-1.651,0-2.876-0.648-3.809-2.155c-2.339-3.784,1.364-6.756,5.281-9.904
								c3.016-2.422,7.262-5.589,12.181-9.256c14.579-10.871,36.61-27.302,42.484-36.81c3.699-5.991,4.219-11.642,1.541-16.797
								c-3.872-7.453-20.916-25.264-95.394-29.681c-20.452-1.222-34.266,3.155-38.934,12.293
								c-2.863,5.609-2.002,12.819,2.212,20.037c24.686-4.294,48.657-4.025,71.426,0.814c18.203,3.871,25.71,8.029,25.912,14.359
								c0.2,6.307-7.025,10.925-24.938,15.941c-32.824,9.186-61.429-3.688-75.211-20.529c-0.358-0.439-0.708-0.879-1.047-1.322
								c-2.176,0.436-4.356,0.91-6.543,1.419c-18.747,4.369-31.924,3.614-39.149-2.251c-0.454-0.368-0.882-0.753-1.286-1.156
								c-22.989,17.936-46.823,27.985-48.485,28.674c-2.142,0.887-4.596-0.129-5.485-2.267c-0.889-2.14,0.127-4.596,2.267-5.487
								c0.399-0.166,24.668-10.41,47.432-28.373c-0.527-1.955-0.768-4.098-0.718-6.426c0.508-23.358,24.733-53.174,36.413-57.93
								c4.881-1.987,7.741-0.198,9.009,1.047c3.602,3.532,3.115,10.55-1.58,22.755c-6.442,16.75-18.823,31.063-32.287,42.634
								c0.003,0.003,0.007,0.007,0.01,0.01c4.966,4.029,16.313,4.237,31.955,0.593c1.229-0.286,2.456-0.562,3.683-0.825
								c-4.429-8.931-4.899-18.026-1.066-25.536c3.634-7.117,14.538-18.758,46.909-16.857
								c57.095,3.387,92.485,15.211,102.345,34.193c4.077,7.848,3.438,16.52-1.849,25.078c-5.662,9.17-22.129,22.223-36.741,33.241
								c4.985-2.454,10.653-5.279,16.992-8.472c34.696-17.468,57.349-35.143,71.502-49.134c1.741-4.22,3.976-8.732,6.787-13.542
								c11.792-20.169,16.32-19.256,18.249-18.87c2.059,0.412,3.581,2.087,3.875,4.266c0.633,4.678-6.061,17.137-21.764,32.854
								c-7.905,20.27-2.386,31.284,2.575,34.578c2.352,1.563,5.529,2.054,7.336-0.351c1.388-1.854,4.02-2.23,5.876-0.84
								c1.855,1.39,2.231,4.022,0.84,5.875c-4.27,5.697-12.132,6.667-18.697,2.31c-5.998-3.984-12.339-14.027-9.63-30.763
								c-15.228,13.053-36.032,27.453-63.172,41.118c-16.336,8.224-27.801,13.823-35.051,17.116
								C3697.933,3771.6,3694.045,3773.366,3691.315,3773.368z M3622.588,3708.67c12.71,13.55,36.794,23.188,64.427,15.453
								c13.317-3.729,17.321-6.494,18.464-7.58c-1.208-1.019-5.381-3.543-18.919-6.421
								C3666.16,3705.787,3644.707,3705.302,3622.588,3708.67z M3600.47,3644.338c-7.176,2.917-30.421,28.915-31.019,50.146
								c11.683-10.412,22.135-22.907,27.608-37.134C3600.016,3649.66,3600.485,3645.951,3600.47,3644.338z" class="colorced4db svgShape"></path></g><path fill="#37426b" d="M4080.552,3540.254h-8.361c-1.41-3.457-4.782-5.9-8.746-5.9h-5.479v-3.035h-1.609
							c-4.216-0.62-17.043-1.074-32.402-1.074c-18.773,0-33.994,0.674-33.994,1.507c0,2.312,15.221,1.509,33.994,1.509
							c13.237,0,24.578,0.475,30.194-0.111v1.204h-292.765l-18.777,7.749c-0.01-0.008-0.008-0.017-0.019-0.025
							c0,0-7.182,1.076-9.047,1.832c-1.744,0.707,8.008,1.349,9.299,1.431l18.544,7.947h302.061c4.009,0,7.391-2.509,8.773-6.028
							h8.334c1.935,0,3.503-1.568,3.503-3.503C4084.055,3541.822,4082.487,3540.254,4080.552,3540.254z" opacity=".43" class="color6b4337 svgShape"></path><g fill="#000000" class="color000000 svgShape"><path fill="#021b79" d="M4062.373,3547.751h-302.06l-22.507-9.646l22.507-9.289h302.06
								c5.229,0,9.468,4.239,9.468,9.467l0,0C4071.841,3543.513,4067.602,3547.751,4062.373,3547.751z" class="color222c3d svgShape"></path><ellipse cx="4022.885" cy="3526.215" fill="#021b79" rx="33.995" ry="1.507" class="color222c3d svgShape"></ellipse><rect width="3.816" height="3.632" x="4053.078" y="3525.782" fill="#021b79" class="color222c3d svgShape"></rect><path fill="#171b2b" d="M4079.479 3534.717h-11.393c-1.935 0-3.503 1.568-3.503 3.503 0 1.935 1.568 3.503 3.503 3.503h11.393c1.935 0 3.503-1.568 3.503-3.503C4082.982 3536.285 4081.414 3534.717 4079.479 3534.717zM3741.517 3536.542c0 0-7.182 1.075-9.048 1.832-1.866.757 9.552 1.447 9.552 1.447S3743.332 3538.055 3741.517 3536.542z" class="color171f2b svgShape"></path></g></g><g fill="#000000" class="color000000 svgShape"><path fill="#ced4db" d="M3795.324,3799.528h-409.417c-2.318,0-4.198-1.88-4.198-4.198c0-2.318,1.879-4.198,4.198-4.198
							h409.417c2.318,0,4.198,1.88,4.198,4.198C3799.521,3797.648,3797.642,3799.528,3795.324,3799.528z" class="colorced4db svgShape"></path></g><g fill="#000000" class="color000000 svgShape"><path fill="#ced4db" d="M3758.884,3841.683h-409.417c-2.319,0-4.198-1.88-4.198-4.198s1.879-4.198,4.198-4.198h409.417
							c2.318,0,4.198,1.88,4.198,4.198S3761.201,3841.683,3758.884,3841.683z" class="colorced4db svgShape"></path></g><g fill="#000000" class="color000000 svgShape"><path fill="#ced4db" d="M3722.443,3883.84h-409.416c-2.319,0-4.198-1.88-4.198-4.198c0-2.318,1.879-4.198,4.198-4.198
							h409.416c2.318,0,4.198,1.88,4.198,4.198C3726.641,3881.96,3724.761,3883.84,3722.443,3883.84z" class="colorced4db svgShape"></path></g><g fill="#000000" class="color000000 svgShape"><path fill="#ced4db" d="M3686.003,3925.996h-409.416c-2.319,0-4.198-1.88-4.198-4.198s1.879-4.198,4.198-4.198h409.416
							c2.318,0,4.198,1.88,4.198,4.198S3688.32,3925.996,3686.003,3925.996z" class="colorced4db svgShape"></path></g></g><g fill="#000000" class="color000000 svgShape"><path fill="#37426b" d="M2124.992,3809.111c-22.356-2.249-43.106,3.084-58.485,16.259v314.616l19.556,200.095
						c4.344,44.442,37.383,80.744,81.222,89.24l640.421,124.117c55.474,10.751,108.979-26.078,118.604-81.758
						c26.127-151.141,58.302-439.239,30.417-511.163C2927.788,3885.868,2362.758,3833.023,2124.992,3809.111z" class="color6b4337 svgShape"></path><path fill="#424e7c" d="M2096.992,3817.111c-22.356-2.249-43.106,3.084-58.485,16.259v314.616l19.556,200.095
						c4.344,44.442,37.383,80.744,81.222,89.24l640.421,124.117c55.474,10.751,108.979-26.078,118.604-81.758
						c26.127-151.141,58.302-439.239,30.417-511.163C2899.788,3893.868,2334.758,3841.023,2096.992,3817.111z" class="color7c5342 svgShape"></path><path fill="#7b8b9b" d="M2815.521 3968.424c-15.739-.596-29.011 11.852-29.532 27.639-.991 29.886-17.726 555.394 12.071 1003.937h57.669c-30.055-453.3-12.812-994.712-12.568-1002.044C2843.681 3982.169 2831.313 3968.945 2815.521 3968.424zM2136.957 3865.56c-.34-15.787-12.921-28.224-29.213-27.985-15.792.335-28.32 13.416-27.98 29.208.767 35.996 15.727 715.16 53.713 1133.217h57.497C2152.67 4579.932 2137.144 3874.418 2136.957 3865.56z" class="color7b889b svgShape"></path></g></g><g fill="#000000" class="color000000 svgShape"><path fill="#424e7c" d="M145.535,5000l810.502-104.859c37.025-4.79,74.654-0.993,109.975,11.097L1339.943,5000H145.535z" class="color7c5342 svgShape"></path><g fill="#000000" class="color000000 svgShape"><g fill="#000000" class="color000000 svgShape"><path fill="#37426b" d="M0,3702.333c16.333-10,36.395-6.143,58.223-2.507c244.243,40.68,843.9,93.658,873.964,171.206
							c28.967,74.719-14.378,360.088-41.521,517.1c-9.999,57.843-65.583,96.103-123.211,84.934l-665.297-128.938
							c-45.541-8.826-79.865-46.538-84.377-92.707L0,4069.482V3702.333z" class="color6b4337 svgShape"></path><path fill="#424e7c" d="M0,3703.195c6.547-0.688,13.327-0.517,20.223,0.631
							c244.243,40.68,843.9,93.658,873.964,171.206c28.967,74.718-14.378,360.088-41.521,517.099
							c-9.999,57.843-65.583,96.103-123.211,84.934L64.158,4348.127c-26.346-5.106-48.921-19.891-64.158-40.375V3703.195z" class="color7c5342 svgShape"></path></g><g fill="#000000" class="color000000 svgShape"><path fill="#7b8b9b" d="M766.661 3861.017c16.406.541 29.254 14.279 28.713 30.679-.266 7.984-19.933 625.529 17.917 1108.304h-59.904c-37.55-478.995-18.484-1077.714-17.405-1110.271C736.523 3873.329 750.31 3860.398 766.661 3861.017zM31.392 3725.085c16.925-.249 29.994 12.672 30.347 29.072.205 9.694 18.095 822.615 62.706 1245.842H64.677C20.371 4575.905 3.164 3794.827 2.325 3755.428 1.972 3739.022 14.986 3725.434 31.392 3725.085z" class="color7b889b svgShape"></path></g></g></g></g></g><g fill="#000000" class="color000000 svgShape"><path fill="#7fb4ea" d="M122.872,0.01v1993.687c4.87-2.519,9.906-3.527,15.112-3.443c9.32,0.083,19.31,3.358,30.141,6.968
			c19.308,6.297,41.305,13.266,67.414,3.527c3.359-1.176,6.801-2.686,10.244-4.534c21.995-11.586,43.572-13.769,61.37-12.257
			c26.279,2.099,44.413,12.257,44.413,12.257l-100.074-411.548c0,0,81.52-37.277,571.652-228.695
			C1596.961,1053.733,2113.286,0.01,2113.286,0.01H122.872z" class="color7fb2ea svgShape"></path><path fill="#a0cfff" d="M117.19,1577.48c0,0,155.656-15.945,157.085,11.206c1.429,27.151-111.356,31.664-149.94,21.661
			C85.752,1600.345,117.19,1577.48,117.19,1577.48z" class="colorffdea0 svgShape"></path><path fill="#74aae0" d="M137.985 1990.255c9.32.083 19.31 3.358 30.141 6.968 2.937-29.216 14.524-154.393 1.931-192.173C161.661 1779.946 143.777 1936.775 137.985 1990.255zM214.383 1490.301c11.671-31.231 124.17-352.948 211.485-694.478C509.151 469.992 577.658 126.194 602.09.01H232.939C225.466 271.604 191.295 1551.671 214.383 1490.301zM605.952 1121.652c396.269-420.532 710.513-976.4 789.516-1121.642H879.311c-72.957 176.81-446.476 1079.077-584.918 1355.962C237.221 1470.319 379.861 1361.429 605.952 1121.652z" class="color74a8e0 svgShape"></path><path fill="#74aae0" d="M966.035 1170.179C1547.342 830.244 1903.65 180.43 1991.047.01h-342.958c-90.922 276.716-499.534 935.346-1281.746 1406.755C140.252 1543.025 291.539 1564.601 966.035 1170.179zM235.54 2000.749c3.359-1.176 6.801-2.686 10.244-4.534 21.995-11.586 43.572-13.769 61.37-12.257l-3.441-10.663c0 0-46.511-227.183-66.492-213.583C220.177 1771.3 231.762 1949.116 235.54 2000.749z" class="color74a8e0 svgShape"></path></g><g fill="#000000" class="color000000 svgShape"><g opacity=".3" fill="#000000" class="color000000 svgShape"><path fill="#a0cfff" d="M190.858,1668.938v-1.472C190.84,1668.422,190.858,1668.938,190.858,1668.938z" class="colorffdea0 svgShape"></path><path fill="#7fb4ea" d="M190.858,0.01v1667.456c0.262-14.189,8.433-126.331,201.239-114.28
				c205.779,12.861,68.593,90.029,334.391,85.742c265.8-4.288,240.076-120.038,372.978-55.732
				c132.898,64.306,282.946,94.315,355.826,55.732c72.881-38.583,94.316-132.9,214.355-55.732
				c120.038,77.168,330.105,98.602,411.56,38.583c81.455-60.019,81.455,55.732,81.455,55.732V0L190.858,0.01z" class="color7fb2ea svgShape"></path></g><g opacity=".2" fill="#000000" class="color000000 svgShape"><path fill="#74aae0" d="M2087.635 1480.306c-2.068-56.893-2.962-113.786-4.477-170.679l-2.556-170.68c-1.515-113.786-1.375-227.572-2.142-341.359.719-113.786.646-227.573 2.109-341.359l2.562-170.68c1.527-56.893 2.421-113.787 4.503-170.68 2.084 56.893 2.978 113.786 4.505 170.68l2.562 170.68c1.463 113.785 1.39 227.572 2.109 341.359-.767 113.786-.629 227.572-2.142 341.359l-2.556 170.68C2090.599 1366.52 2089.706 1423.413 2087.635 1480.306zM1746.813 1480.306c-2.068-56.893-2.962-113.786-4.476-170.679l-2.556-170.68c-1.515-113.786-1.375-227.572-2.142-341.359.719-113.786.646-227.573 2.109-341.359l2.562-170.68c1.527-56.893 2.421-113.787 4.503-170.68 2.085 56.893 2.978 113.786 4.505 170.68l2.562 170.68c1.464 113.785 1.39 227.572 2.109 341.359-.766 113.786-.629 227.572-2.142 341.359l-2.556 170.68C1749.776 1366.52 1748.883 1423.413 1746.813 1480.306zM1405.99 1480.306c-2.068-56.893-2.962-113.786-4.476-170.679l-2.556-170.68c-1.515-113.786-1.375-227.572-2.142-341.359.719-113.786.646-227.573 2.109-341.359l2.562-170.68c1.527-56.893 2.421-113.787 4.503-170.68 2.085 56.893 2.978 113.786 4.505 170.68l2.562 170.68c1.464 113.785 1.39 227.572 2.109 341.359-.766 113.786-.629 227.572-2.142 341.359l-2.556 170.68C1408.953 1366.52 1408.06 1423.413 1405.99 1480.306zM1065.167 1480.306c-2.068-56.893-2.962-113.786-4.476-170.679l-2.556-170.68c-1.515-113.786-1.375-227.572-2.142-341.359.719-113.786.646-227.573 2.109-341.359l2.562-170.68c1.527-56.893 2.421-113.787 4.503-170.68 2.085 56.893 2.978 113.786 4.505 170.68l2.562 170.68c1.464 113.785 1.39 227.572 2.109 341.359-.767 113.786-.629 227.572-2.142 341.359l-2.556 170.68C1068.13 1366.52 1067.237 1423.413 1065.167 1480.306zM724.344 1480.306c-2.068-56.893-2.962-113.786-4.477-170.679l-2.556-170.68c-1.515-113.786-1.375-227.572-2.142-341.359.719-113.786.646-227.573 2.109-341.359l2.562-170.68c1.527-56.893 2.421-113.787 4.503-170.68 2.085 56.893 2.978 113.786 4.505 170.68l2.562 170.68c1.464 113.785 1.39 227.572 2.109 341.359-.767 113.786-.629 227.572-2.142 341.359l-2.556 170.68C727.307 1366.52 726.414 1423.413 724.344 1480.306zM383.521 1480.306c-2.068-56.893-2.962-113.786-4.477-170.679l-2.556-170.68c-1.515-113.786-1.375-227.572-2.142-341.359.719-113.786.646-227.573 2.109-341.359l2.562-170.68c1.527-56.893 2.421-113.787 4.503-170.68 2.085 56.893 2.978 113.786 4.505 170.68l2.562 170.68c1.464 113.785 1.39 227.572 2.109 341.359-.767 113.786-.629 227.572-2.142 341.359l-2.556 170.68C386.485 1366.52 385.591 1423.413 383.521 1480.306z" class="color74a8e0 svgShape"></path></g></g><g fill="#000000" class="color000000 svgShape"><path fill="#7fb4ea" d="M5928.181,0.01v1993.687c-4.87-2.519-9.906-3.527-15.112-3.443
			c-9.32,0.083-19.31,3.358-30.141,6.968c-19.308,6.297-41.306,13.266-67.415,3.527c-3.359-1.176-6.801-2.686-10.244-4.534
			c-21.996-11.586-43.572-13.769-61.37-12.257c-26.279,2.099-44.413,12.257-44.413,12.257l100.074-411.548
			c0,0-81.521-37.277-571.653-228.695C4454.092,1053.733,3937.767,0.01,3937.767,0.01H5928.181z" class="color7fb2ea svgShape"></path><path fill="#a0cfff" d="M5933.863,1577.48c0,0-155.656-15.945-157.085,11.206c-1.429,27.151,111.356,31.664,149.94,21.661
			C5965.301,1600.345,5933.863,1577.48,5933.863,1577.48z" class="colorffdea0 svgShape"></path><path fill="#74aae0" d="M5913.068 1990.255c-9.32.083-19.31 3.358-30.141 6.968-2.938-29.216-14.524-154.393-1.931-192.173C5889.392 1779.946 5907.276 1936.775 5913.068 1990.255zM5836.67 1490.301c-11.671-31.231-124.17-352.948-211.485-694.478-83.283-325.83-151.79-669.628-176.222-795.812h369.151C5825.587 271.604 5859.758 1551.671 5836.67 1490.301zM5445.102 1121.652C5048.833 701.12 4734.588 145.252 4655.585.01h516.157c72.957 176.81 446.476 1079.077 584.918 1355.962C5813.833 1470.319 5671.192 1361.429 5445.102 1121.652z" class="color74a8e0 svgShape"></path><path fill="#74aae0" d="M5085.018 1170.179C4503.711 830.244 4147.403 180.43 4060.006.01h342.958c90.922 276.716 499.534 935.346 1281.745 1406.755C5910.801 1543.025 5759.514 1564.601 5085.018 1170.179zM5815.513 2000.749c-3.359-1.176-6.801-2.686-10.244-4.534-21.996-11.586-43.572-13.769-61.37-12.257l3.441-10.663c0 0 46.512-227.183 66.492-213.583C5830.875 1771.3 5819.291 1949.116 5815.513 2000.749z" class="color74a8e0 svgShape"></path></g></g></svg>