<svg xmlns="http://www.w3.org/2000/svg" enable-background="new 0 0 2500 2500" viewBox="0 0 2500 2500" id="ChallengeTheRisksOfSuccessAndFailure"><polygon fill="#4b61b2" points="2449.6 2206.53 2475 360.62 1890.31 143.2 1655.73 349.1" class="color4bb24b svgShape"></polygon><path fill="#0575e6" d="M2450.62,2328.15l-755.21,28.64c-34.56-618.14-27.03-1186.5-208.82-1612.79l-112.73,10.16l276.89-397.89
			l4.99-7.17l6.45,3.08l683.99,302.87l-143.21,8.3C2385.71,1199.1,2450.62,1759.77,2450.62,2328.15z" class="color53c156 svgShape"></path><path fill="#2e2f35" d="M1852.94,1786v65.95c0,3.29-2.69,5.97-5.97,5.97c-3.32,0-5.97-2.69-5.97-5.97V1786
				c0-47.64-8.12-94.06-24.19-137.94c-9.59-26.29-19.42-49.64-27.78-69c-29.15-67.65-35.49-143.1-17.86-212.49
				c0.42-1.61,0.84-3.23,1.25-4.84c9.35-35.1,12.66-71.36,9.89-107.71l-131.54-897.75l4.99-7.17l6.45,3.08l132.02,900.92
				c2.87,37.73-0.57,75.3-10.24,111.71c-0.42,1.55-0.84,3.14-1.23,4.72c-17,66.85-10.87,139.58,17.23,204.78
				c8.42,19.53,18.34,43.07,28.05,69.63C1844.54,1689.13,1852.94,1736.95,1852.94,1786z" class="color2e3535 svgShape"></path><path fill="#9bc9f7" d="M1787.93,1370.47c0.2,1.81,0.05,3.66-0.35,5.46l-0.45,1.98l-2.02,8.91l-5.44,24.02l-24.53-3.11l-0.97-11.92
				c-0.19-2.3-1.37-4.43-3.24-5.79l-7.63-5.6c-1.18-0.85-1.62-2.4-1.07-3.76c0.24-0.61,0.67-1.1,1.16-1.44
				c0.96-0.65,2.23-0.75,3.33-0.14l7.7,4.28c0,0,0.24-2.81-0.14-6.45c-0.23-2.18-0.16-4.1,0.14-5.77
				C1757.61,1353.76,1787.13,1363.09,1787.93,1370.47z" class="colorf7c19b svgShape"></path><rect width="31.4" height="56.14" x="2013.52" y="1825.04" fill="#9bc9f7" transform="rotate(-39.592 2029.204 1853.15)" class="colorf7c19b svgShape"></rect><path fill="#dbdbdb" d="M2108.9,1857.02l-64.33,43.34c-1.66,1.12-3.92,0.68-5.04-0.98l-2.11-3.14l70.36-47.4l2.11,3.14
							C2111,1853.64,2110.56,1855.9,2108.9,1857.02z" class="colordbdbdb svgShape"></path><path fill="#373b4c" d="M2109.18,1850.93c-0.11,0.12-0.24,0.22-0.39,0.32l-69.38,46.75c-0.19,0.13-0.39,0.23-0.59,0.32
							c-1.58,0.68-3.48,0.17-4.48-1.32l-15.69-23.29c-2.18-3.23-0.34-7.61,3.49-8.35c10.14-1.97,18.2-7.56,23.88-17.3
							c0.72-1.25,2.14-1.94,3.56-1.71l4.58,0.74l0.16,0.03l0.69,0.11c0.81,0.13,1.62,0.23,2.44,0.3c0.08,0.01,0.17,0.02,0.25,0.02
							c3.97,0.32,7.98-0.06,11.8-1.17c0.12-0.03,0.25-0.07,0.36-0.11c0.83-0.24,1.66-0.53,2.46-0.86c0.17-0.07,0.35-0.14,0.52-0.2
							c0.01-0.01,0.02-0.01,0.03-0.01c19.39-7.48,31.78-1.36,36.03,1.75C2110.24,1847.91,2110.3,1849.82,2109.18,1850.93z" class="color37424c svgShape"></path><path fill="#e1e4e8" d="M2061.07,1851.82c0.4,0.51,0.31,1.26-0.2,1.67l-0.11,0.07c-0.51,0.32-1.19,0.21-1.57-0.27l-3.49-4.42
								l-1.4-1.77l0.69,0.11c0.81,0.13,1.62,0.23,2.44,0.3c0.08,0.01,0.17,0.02,0.25,0.02L2061.07,1851.82z" class="colore1e3e8 svgShape"></path><path fill="#e1e4e8" d="M2057.43 1847.51l-1.73 1.37-4.41 3.49c-.04.03-.07.06-.11.08-.51.31-1.18.2-1.56-.28-.41-.51-.32-1.26.19-1.67l4.33-3.42.16.03.69.11C2055.81 1847.35 2056.62 1847.44 2057.43 1847.51zM2072.86 1845.19l4.93 2.67c.57.31.79 1.03.47 1.61-.06.11-.13.2-.22.29-.37.35-.93.44-1.4.19l-4.94-2.68-1.86-1.01c.83-.24 1.66-.53 2.46-.86.17-.07.35-.14.52-.2L2072.86 1845.19z" class="colore1e3e8 svgShape"></path><path fill="#e1e4e8" d="M2072.83,1845.2l-1.12,2.07l-2.69,4.95c-0.06,0.11-0.13,0.2-0.22,0.29c-0.37,0.35-0.93,0.44-1.4,0.18
								c-0.58-0.31-0.79-1.03-0.48-1.61l2.56-4.72c0.12-0.03,0.25-0.07,0.36-0.11c0.83-0.24,1.66-0.53,2.46-0.86
								C2072.49,1845.33,2072.66,1845.26,2072.83,1845.2z" class="colore1e3e8 svgShape"></path><rect width="56.14" height="31.4" x="1708.01" y="1994.42" fill="#9bc9f7" transform="rotate(-72.986 1736.134 2010.186)" class="colorf7c19b svgShape"></rect><path fill="#dbdbdb" d="M1776.85,2078.76l-71.6-29.85c-1.85-0.77-2.73-2.9-1.95-4.75l1.45-3.49l78.3,32.65l-1.45,3.49
							C1780.83,2078.65,1778.7,2079.53,1776.85,2078.76z" class="colordbdbdb svgShape"></path><path fill="#373b4c" d="M1782.09,2075.64c-0.16-0.03-0.32-0.08-0.48-0.15l-77.22-32.19c-0.21-0.09-0.41-0.2-0.6-0.32
							c-1.44-0.95-2.06-2.82-1.37-4.47l10.81-25.92c1.5-3.59,6.17-4.47,8.9-1.68c7.23,7.39,16.33,11.03,27.59,10.41
							c1.44-0.09,2.79,0.72,3.39,2.03l1.9,4.23l0.07,0.15l0.29,0.63c0.34,0.75,0.71,1.48,1.09,2.2c0.04,0.08,0.08,0.15,0.12,0.22
							c1.92,3.5,4.44,6.63,7.47,9.21c0.09,0.08,0.2,0.17,0.29,0.24c0.66,0.56,1.36,1.09,2.07,1.58c0.15,0.11,0.31,0.21,0.45,0.32
							c0.01,0.01,0.02,0.01,0.03,0.02c16.91,12.07,18.62,25.79,18.37,31.05C1785.19,2074.86,1783.64,2075.96,1782.09,2075.64z" class="color37424c svgShape"></path><path fill="#e1e4e8" d="M1754.87,2035.97c-0.21,0.62-0.88,0.96-1.51,0.75l-0.12-0.05c-0.55-0.25-0.83-0.88-0.64-1.46l1.76-5.35
								l0.71-2.14l0.29,0.63c0.34,0.75,0.71,1.48,1.09,2.2c0.04,0.08,0.08,0.15,0.12,0.22L1754.87,2035.97z" class="colore1e3e8 svgShape"></path><path fill="#e1e4e8" d="M1756.46,2030.56l-2.09-0.69l-5.34-1.76c-0.05-0.01-0.09-0.03-0.13-0.04c-0.54-0.25-0.82-0.87-0.63-1.46
								c0.2-0.62,0.87-0.96,1.5-0.76l5.24,1.73l0.07,0.15l0.29,0.63C1755.71,2029.11,1756.07,2029.84,1756.46,2030.56z" class="colore1e3e8 svgShape"></path><g fill="#000000" class="color000000 svgShape"><path fill="#e1e4e8" d="M1766.89,2042.16l0.48,5.59c0.06,0.65-0.43,1.23-1.08,1.28c-0.12,0.01-0.24,0-0.36-0.02
								c-0.49-0.11-0.88-0.53-0.92-1.06l-0.48-5.6l-0.18-2.11c0.66,0.56,1.36,1.09,2.07,1.58c0.15,0.11,0.31,0.21,0.45,0.32
								L1766.89,2042.16z" class="colore1e3e8 svgShape"></path><path fill="#e1e4e8" d="M1766.87,2042.14l-2.34,0.2l-5.61,0.48c-0.12,0.01-0.24,0-0.36-0.02c-0.49-0.11-0.88-0.53-0.92-1.06
								c-0.06-0.65,0.43-1.23,1.08-1.29l5.35-0.46c0.09,0.08,0.2,0.17,0.29,0.24c0.66,0.56,1.36,1.09,2.07,1.58
								C1766.57,2041.92,1766.73,2042.03,1766.87,2042.14z" class="colore1e3e8 svgShape"></path></g><rect width="37.91" height="58.44" x="1544.61" y="1452.43" fill="#9bc9f7" transform="rotate(-33.968 1563.658 1481.733)" class="colorf7c19b svgShape"></rect><g fill="#000000" class="color000000 svgShape"><path fill="#9bc9f7" d="M1516.09,1409.86l21.58-8.99c0,0,46.11,18.95,38.05,49.6c-3.08,11.7-12.99,20.45-24.9,22.59
					c-6.39,1.15-14.07,0.84-21.84-3.44l-27.03-26.47L1516.09,1409.86z" class="colorf7c19b svgShape"></path><path fill="#333333" d="M1541.25,1482.66l-5.66-16.9c0,0-10.23-0.74-12.24-9.16c-0.91-3.81,0.84-7.96,4.48-9.4
					c3.09-1.22,8.03,1.29,10.86,3.33l2.67-3.68c0,0-33.66-31-2.2-45.34c0,0,4.21-9.53-7.18-12.67c0,0-4.95-16.34-20.16,1.31
					c0,0-10.3-1.15-14.94,16.51c0,0-28.03,2.25-15.84,32.53c0,0-4.29,35.63,37.21,37.94c1.87,0.1,3.74,0.02,5.6-0.13
					C1526.38,1476.81,1534.87,1477.88,1541.25,1482.66z" class="color333333 svgShape"></path></g><path fill="#373b4c" d="M1717.93,1626.31l20.59-8.59l150.43,48.33c19.46,6.25,37.02,17.41,50.79,32.51
				c42.59,46.72,105.84,138.49,105.84,138.49l-32.45,24.54l-135.68-126.77l-130.77-14.44l36.16,64
				c15.33,27.14,20.95,58.7,15.82,89.45c-9.54,57.28-35.4,128.18-35.4,128.18l-43.38-12.43l17.93-143.44
				c-37.24-39.2-75.4-92.46-113.92-151.21l46.18-38.59L1717.93,1626.31z" class="color37424c svgShape"></path><path fill="#0338ff" d="M1553.8,1605.32c15.44,17.03,28.7,35.65,44.45,56.73c5.53,7.38,11.3,16.32,16.69,23.93
				c3.5,4.93,7.95,11.08,11.38,16.04c0.36-0.14,28.34-11.76,61.96-35.18l-116.53-172.96l-0.87,4.45
				c-0.89-0.07-10.43-0.93-18.59-4.88l-10.63,11.06l-31.87,34.25c-21.84,21.73,4.89,55.62,25.16,82.21
				c8.67,11.38,23.2,16.6,37.18,13.52c10.72-2.36,26.81-7.81,40.98-12.52c28.74-9.55,5.22-3.52,5.22-3.52" class="colorffb703 svgShape"></path><path fill="#0637ef" d="M1570.95,1498.33l-1.93,9.89l-0.83,4.26c-18.21-3.21-26.55-7.87-26.55-7.87l0.03-0.1l4.12-15.12
				c1.86,1.66,4.19,2.94,6.5,4.05c8.16,3.95,17.71,4.81,18.59,4.88C1570.93,1498.33,1570.95,1498.33,1570.95,1498.33z" class="colorefa706 svgShape"></path><path fill="#0338ff" d="M1670.15,1517.37c6.23,12.93,16.27,23.83,25.53,34.62c10.18,11.86,19.02,24.36,28.22,36.94
				c7.51,10.27,15.47,19.6,22.44,30.23c-0.28,0.3-23.74,25.32-58.06,47.67l-116.53-172.96l4.45,0.87
				c0.26-0.85,3.06-10.01,2.46-19.06l14.24-5.69l36.56-14.6c8.53-3.42,17.72-4.64,26.74-3.62c6.16,0.69,77.41,28.6,77.41,28.6
				l16.94-85.12l35.89,4.52l-8.42,90.43c-2.67,28.62-30.46,47.95-58.22,40.5L1670.15,1517.37z" class="colorffb703 svgShape"></path><path fill="#0637ef" d="M1576.18,1494.81l9.89,1.93l4.26,0.83c3.87-18.08,2.68-27.56,2.68-27.56l-0.1-0.01l-15.68-1.78
				c0.84,2.35,1.26,4.91,1.43,7.47c0.6,9.05-2.2,18.21-2.46,19.06C1576.19,1494.79,1576.18,1494.81,1576.18,1494.81z" class="colorefa706 svgShape"></path><polygon fill="#5678fa" points="1647.03 1638.72 1677.74 1651.19 1677.71 1618.05 1584.96 1502.4 1586.06 1496.74 1586.08 1496.67 1571.75 1493.88 1568.96 1508.2 1569.02 1508.22 1574.68 1509.32" class="colorfa5669 svgShape"></polygon><path fill="#9bc9f7" d="M1787.93,1370.47c0.2,1.81,0.05,3.66-0.35,5.46l-0.45,1.98c-19.97,4.01-29.11-2.61-32.71-6.76
				C1757.61,1353.76,1787.13,1363.09,1787.93,1370.47z" class="colorf7c19b svgShape"></path><g fill="#000000" class="color000000 svgShape"><path fill="#9bc9f7" d="M1750.06,1524.56l7.44-9.35c1.44-1.81,2.03-4.17,1.6-6.45l-1.75-9.3c-0.27-1.43,0.47-2.86,1.79-3.48l0,0
					c1.73-0.8,3.78,0.1,4.36,1.92l2.69,8.38c0,0,19.88-24.6,22.15-7.63c0,0,8.81-1.75,4.15,7.12c0,0,9.38-0.49,4.25,7.28
					c0,0,7.63,0.25,2.73,6.74c-1.1,1.46-2.47,2.71-3.99,3.74l-29.64,20.07L1750.06,1524.56z" class="colorf7c19b svgShape"></path><path fill="#0338ff" d="M1756.07,1514.85l-72.97,38.77c0,0-11.37,16.47,16.14,39.31l77.44-55.07L1756.07,1514.85z" class="colorffb703 svgShape"></path><path fill="#e1e4e8" d="M1776.69,1537.87c-6.52-7.98-13.32-15.72-20.19-23.39l-0.3-0.33l-0.39,0.21
						c-3.1,1.67-9.31,5.07-12.38,6.79c-4.11,2.3-8.2,4.64-12.24,7.06c4.25-2.03,8.46-4.14,12.65-6.29c3.13-1.61,9.4-4.9,12.51-6.56
						l-0.69-0.12C1762.52,1522.91,1769.47,1530.51,1776.69,1537.87L1776.69,1537.87z" class="colore1e3e8 svgShape"></path></g><g fill="#000000" class="color000000 svgShape"><polygon fill="#4865d3" points="338.81 2146.54 544.59 2356.8 1164.17 2008.61 1152.84 544.16" class="colord34862 svgShape"></polygon><path fill="#5678fa" d="M454.02,262.86c16.26,585.62-50.88,1110.82-238.1,1569.74L25,1846.67l313.81,299.87l712.92-395.4
					l-161.83,11.37c195.73-417.33,285.14-945.68,258.26-1580.62C930.46,211.98,697.76,238.67,454.02,262.86z" class="colorfa5669 svgShape"></path><g fill="#000000" class="color000000 svgShape"><path fill="#9bc9f7" d="M565.94,650.97l-0.03-11.11c-0.01-2.15,0.92-4.21,2.55-5.62l6.63-5.77c1.02-0.89,1.31-2.36,0.7-3.57l0,0
					c-0.8-1.58-2.81-2.11-4.28-1.12l-6.79,4.56c0,0-0.31-29.39-11.75-18.34c0,0-5.42-6.36-7.13,2.8c0,0-6.55-5.76-7.29,2.86
					c0,0-5.7-4.22-5.87,3.34c-0.04,1.7,0.24,3.4,0.76,5.03l10.04,31.72L565.94,650.97z" class="colorf7c19b svgShape"></path><rect width="29.18" height="52.17" x="797.07" y="1168.66" fill="#9bc9f7" transform="rotate(-70.221 811.66 1194.743)" class="colorf7c19b svgShape"></rect><path fill="#dbdbdb" d="M831.75,1265.73l27.7-66.56c0.72-1.72-0.1-3.7-1.82-4.41l-3.24-1.35l-30.3,72.79l3.24,1.35
								C829.06,1268.26,831.04,1267.45,831.75,1265.73z" class="colordbdbdb svgShape"></path><path fill="#373b4c" d="M826.26,1267.09c0.08-0.12,0.16-0.26,0.22-0.41l29.88-71.78c0.08-0.2,0.14-0.4,0.19-0.6
								c0.33-1.57-0.49-3.2-2.02-3.84l-24.09-10.03c-3.34-1.39-7,1.09-6.97,4.71c0.06,9.6-3.55,17.97-11.39,24.93
								c-1.01,0.89-1.37,2.3-0.91,3.56l1.51,4.04l0.05,0.14l0.23,0.61c0.27,0.72,0.5,1.44,0.72,2.17c0.02,0.07,0.05,0.16,0.07,0.23
								c1.02,3.56,1.41,7.28,1.09,10.97c-0.01,0.12-0.02,0.24-0.04,0.35c-0.07,0.8-0.18,1.61-0.33,2.4
								c-0.03,0.17-0.06,0.34-0.08,0.51c-0.01,0.01-0.01,0.02,0,0.03c-3.26,19.03,4.59,29.2,8.2,32.51
								C823.7,1268.61,825.45,1268.32,826.26,1267.09z" class="color37424c svgShape"></path><path fill="#e1e4e8" d="M818.25,1223.1c0.54,0.27,1.21,0.06,1.49-0.49l0.05-0.11c0.19-0.53-0.03-1.12-0.54-1.38l-4.66-2.37
									l-1.87-0.95l0.23,0.61c0.27,0.72,0.5,1.44,0.72,2.17c0.02,0.07,0.05,0.16,0.07,0.23L818.25,1223.1z" class="colore1e3e8 svgShape"></path><path fill="#e1e4e8" d="M813.66 1220.58l.93-1.82 2.37-4.66c.02-.04.04-.08.05-.11.19-.52-.03-1.11-.54-1.37-.54-.28-1.2-.06-1.49.48l-2.33 4.57.05.14.23.61C813.21 1219.13 813.45 1219.85 813.66 1220.58zM814.37 1235.06l3.34 4c.39.47 1.09.53 1.56.14.09-.08.16-.16.22-.25.25-.4.23-.92-.09-1.31l-3.35-4.01-1.26-1.51c-.07.8-.18 1.61-.33 2.4-.03.17-.06.34-.08.51L814.37 1235.06z" class="colore1e3e8 svgShape"></path><path fill="#e1e4e8" d="M814.38,1235.03l1.68-1.4l4.01-3.36c0.09-0.08,0.16-0.16,0.22-0.25c0.25-0.4,0.23-0.92-0.09-1.31
									c-0.39-0.47-1.09-0.53-1.55-0.14l-3.83,3.2c-0.01,0.12-0.02,0.24-0.04,0.35c-0.07,0.8-0.18,1.61-0.33,2.4
									C814.43,1234.69,814.4,1234.86,814.38,1235.03z" class="colore1e3e8 svgShape"></path><rect width="52.17" height="29.18" x="490.39" y="1276.61" fill="#9bc9f7" transform="rotate(-83.275 516.465 1291.222)" class="colorf7c19b svgShape"></rect><path fill="#dbdbdb" d="M451.08,1326.02l71.28,10.84c1.84,0.28,3.56-0.99,3.84-2.83l0.53-3.47l-77.95-11.85l-0.53,3.47
								C447.97,1324.02,449.24,1325.74,451.08,1326.02z" class="colordbdbdb svgShape"></path><path fill="#373b4c" d="M448.42,1321.02c0.14,0.05,0.29,0.09,0.45,0.11l76.87,11.69c0.21,0.03,0.42,0.04,0.63,0.04
								c1.6-0.05,2.99-1.24,3.24-2.89l3.92-25.8c0.54-3.58-2.74-6.53-6.25-5.63c-9.3,2.38-18.3,0.89-26.94-5.04
								c-1.11-0.76-2.56-0.78-3.67-0.02l-3.55,2.44l-0.12,0.09l-0.53,0.37c-0.63,0.43-1.27,0.83-1.93,1.22
								c-0.07,0.04-0.14,0.08-0.2,0.12c-3.21,1.85-6.73,3.12-10.38,3.71c-0.11,0.02-0.24,0.04-0.35,0.05
								c-0.79,0.13-1.6,0.21-2.41,0.26c-0.17,0.01-0.35,0.02-0.51,0.04c-0.01,0-0.02,0-0.03,0c-19.26,1.42-27.24,11.49-29.57,15.8
								C446.33,1318.9,447.04,1320.53,448.42,1321.02z" class="color37424c svgShape"></path><path fill="#e1e4e8" d="M489.19,1302.64c-0.13,0.59,0.24,1.18,0.83,1.33l0.12,0.02c0.56,0.06,1.08-0.3,1.21-0.85l1.18-5.1
									l0.47-2.05l-0.53,0.37c-0.63,0.43-1.27,0.83-1.93,1.22c-0.07,0.04-0.14,0.08-0.2,0.12L489.19,1302.64z" class="colore1e3e8 svgShape"></path><path fill="#e1e4e8" d="M490.53,1297.58l1.99,0.46l5.09,1.18c0.04,0.01,0.09,0.02,0.12,0.03c0.55,0.06,1.07-0.3,1.2-0.85
									c0.14-0.59-0.23-1.18-0.83-1.33l-5-1.15l-0.12,0.09l-0.53,0.37C491.83,1296.79,491.19,1297.19,490.53,1297.58z" class="colore1e3e8 svgShape"></path><g fill="#000000" class="color000000 svgShape"><path fill="#e1e4e8" d="M476.65,1301.76l-3.08,4.2c-0.36,0.49-0.25,1.18,0.24,1.54c0.09,0.07,0.19,0.12,0.3,0.16
									c0.45,0.15,0.95,0,1.25-0.4l3.09-4.22l1.16-1.59c-0.79,0.13-1.6,0.21-2.41,0.26c-0.17,0.01-0.35,0.02-0.51,0.04
									L476.65,1301.76z" class="colore1e3e8 svgShape"></path><path fill="#e1e4e8" d="M476.68,1301.75l1.76,1.29l4.23,3.09c0.09,0.07,0.19,0.12,0.3,0.16c0.45,0.15,0.95,0,1.25-0.4
									c0.37-0.49,0.25-1.18-0.24-1.54l-4.02-2.94c-0.11,0.02-0.24,0.04-0.35,0.05c-0.79,0.13-1.6,0.21-2.41,0.26
									C477.02,1301.72,476.84,1301.73,476.68,1301.75z" class="colore1e3e8 svgShape"></path></g><path fill="#373b4c" d="M636.12,926.13l-20.71,0.97l-83.02,104.91c-20.72,26.18-32.37,58.38-33.22,91.75l-3.89,153.14l45.97,6.99
					l19.54-178.03l88.59-89.27l-11.42,75.13c-5.33,35.05,14.91,68.97,48.29,80.92l111.77,40.03l14.17-38.41l-112.1-56.43
					l42.33-171.43l-54.13-14.06L636.12,926.13z" class="color37424c svgShape"></path><rect width="54.31" height="35.23" x="681.23" y="725.56" fill="#9bc9f7" transform="rotate(-81.355 708.41 743.201)" class="colorf7c19b svgShape"></rect><g fill="#000000" class="color000000 svgShape"><path fill="#9bc9f7" d="M715.58,659.38L694.01,662c0,0-28.59,36.47-8.02,57.55c7.85,8.04,19.88,10.57,30.48,6.85
						c5.7-2,11.76-5.77,16.08-12.8l9.71-33.79L715.58,659.38z" class="colorf7c19b svgShape"></path><path fill="#333333" d="M728.29,729.63l-2.85-16.11c0,0,7.93-5.28,5.69-13.01c-1.01-3.49-4.32-6.05-7.93-5.54
						c-3.06,0.43-5.89,4.73-7.25,7.67l-3.84-1.75c0,0,12.99-40.49-19.01-37.66c0,0-7.77-5.78-0.01-13.54c0,0-3.49-15.48,16.9-8.19
						c0,0,7.8-5.65,19.65,6.5c0,0,23.69-11.03,27.72,19.03c0,0,19.8,26.83-12.69,47.73c-1.46,0.94-3.01,1.73-4.59,2.46
						C737.95,718.22,731.26,722.83,728.29,729.63z" class="color333333 svgShape"></path></g><path fill="#eceef1" d="M636.94,802.74c-5.57,21.87-28.11,121.33-29.44,129.29c0.33,0.13,31.9,11.23,69.64,16.36l29.13-191.62
					l-3.39,2.5c-0.56-0.61-6.55-7.2-9.64-15.03l-14.23,0.88l-36.51,2.27c-8.52,0.52-21.63,2.23-37.27,6.66
					c-5.55,1.57-35.73-116.02-35.73-116.02l-33.14,8.64l22.74,116.19C570.11,821.75,636.94,802.74,636.94,802.74z" class="colorecf0f1 svgShape"></path><path fill="#e1e4e8" d="M702.93,759.31l-7.54,5.55l-3.25,2.39c-10.44-13.65-13.21-22.09-13.21-22.09l0.08-0.05l12.46-7.73
					c0.23,2.31,0.89,4.63,1.77,6.85c3.1,7.84,9.09,14.43,9.65,15.03C702.91,759.3,702.93,759.31,702.93,759.31z" class="colore1e3e8 svgShape"></path><g fill="#000000" class="color000000 svgShape"><path fill="#021b79" d="M828.33,981.9l-48.7,0.15c-0.32,0-0.57,0.26-0.57,0.58l0.06,20.42c0,0.04,0.03,0.06,0.07,0.06l4.31-0.01
						c0.04,0,0.06-0.03,0.06-0.07l-0.06-16.55v-0.01l40.98-0.13h0.01l0.05,16.56c0,0.04,0.03,0.06,0.07,0.06l4.31-0.01
						c0.04,0,0.06-0.03,0.06-0.07l-0.06-20.42C828.9,982.16,828.64,981.9,828.33,981.9z" class="color375267 svgShape"></path><path fill="#021b79" d="M881.57,1007.55l0.25,83.95c0.02,6.52-5.25,11.82-11.77,11.84l-131.43,0.4
							c-6.52,0.02-11.82-5.24-11.84-11.77l-0.25-83.95c-0.02-6.51,5.24-11.82,11.77-11.84l131.43-0.4
							C876.25,995.76,881.55,1001.03,881.57,1007.55z" class="color375267 svgShape"></path><path fill="#bbdbfb" d="M881.57,1007.55l0.1,32.08c-51.62,19.3-103.3,19.46-155.03,0.47l-0.1-32.08
							c-0.02-6.51,5.24-11.82,11.77-11.84l131.43-0.4C876.25,995.76,881.55,1001.03,881.57,1007.55z" class="colorbbdefb svgShape"></path><path fill="#e9ebed" d="M814.81,1040.31l-21.31,0.06c-0.87,0-1.58,0.71-1.57,1.58l0.06,20.72c0,0.87,0.71,1.58,1.58,1.57
						l21.31-0.06c0.87,0,1.58-0.71,1.57-1.58l-0.06-20.72C816.39,1041.02,815.68,1040.31,814.81,1040.31z" class="coloredede9 svgShape"></path></g><path fill="#9bc9f7" d="M800.1,947.6l-4.48,10.16c-0.87,1.97-2.55,3.47-4.61,4.1l-8.41,2.58c-1.3,0.4-2.15,1.62-2.09,2.98l0,0
					c0.09,1.77,1.71,3.07,3.46,2.76l8.06-1.41c0,0-11.66,26.98,3.29,21.53c0,0,2.37,8.01,7.65,0.34c0,0,3.65,7.93,7.82,0.35
					c0,0,3.5,6.17,6.72-0.67c0.73-1.54,1.16-3.21,1.35-4.9l3.71-33.06L800.1,947.6z" class="colorf7c19b svgShape"></path><g fill="#000000" class="color000000 svgShape"><path fill="#eceef1" d="M846.34,887.79L824,960.62l-31.31-2.83l15.92-77.52c1.15-5.61-0.64-11.42-4.74-15.41l-37.21-36.15
						c-6.2,20.45-22.21,121.07-22.77,124.48c-10.12,0.17-40.24-0.33-66.75-4.8l29.14-191.62l2.5,3.39
						c0.71-0.41,8.38-4.92,13.67-11.5l13.33,5.07l7.77,2.97c29.14,11.08,55.45,28.79,75.99,52.23
						C838.44,830.5,853.86,858.37,846.34,887.79z" class="colorecf0f1 svgShape"></path></g><path fill="#e1e4e8" d="M708.72,760.19l5.55,7.54l2.39,3.25c14.02-9.93,19.18-17.16,19.18-17.16l-0.06-0.07l-9.47-11.06
					c-0.9,2.14-2.36,4.13-3.85,5.99c-5.29,6.56-12.96,11.07-13.68,11.49C708.74,760.18,708.72,760.19,708.72,760.19z" class="colore1e3e8 svgShape"></path><polygon fill="#5678fa" points="700.62 908.37 679.78 931.06 666.62 903.21 698.56 769.18 695.39 764.86 695.35 764.81 706.28 756.77 714.32 767.7 714.27 767.73 709.96 770.91" class="colorfa5669 svgShape"></polygon></g><g fill="#000000" class="color000000 svgShape"><path fill="#e9ebed" d="M918.51,1218.45c-8.14,54.04-49.19,96.98-100.76,112.95c-16.71,5.53-34.03,8.72-51.41,9.46
				c16.47-5.63,32.61-11.24,48.04-18.15C864,1301.04,896.26,1267.77,918.51,1218.45L918.51,1218.45z" class="coloredede9 svgShape"></path><path fill="#e9ebed" d="M879.02,1223.46c-5.26,34.89-31.76,62.62-65.06,72.93c-10.79,3.57-21.97,5.63-33.19,6.11
				c10.63-3.63,21.06-7.26,31.02-11.72C843.82,1276.79,864.66,1255.3,879.02,1223.46L879.02,1223.46z" class="coloredede9 svgShape"></path></g></g></svg>