<svg xmlns="http://www.w3.org/2000/svg" xmlns:xlink="http://www.w3.org/1999/xlink" data-name="Layer 1" viewBox="0 0 2530 2815.38" id="Dealconfirmation"><defs><linearGradient id="a" x1="2941.58" x2="2941.58" y1="1776.24" y2="4817.14" gradientUnits="userSpaceOnUse"><stop offset="0" stop-color="#d6e9fd" class="stopColord6e6fd svgShape"></stop><stop offset="1" stop-color="#d2e7fd" class="stopColord2e3fd svgShape"></stop></linearGradient><linearGradient id="c" x1="1741.32" x2="1492.92" y1="1330.85" y2="199.21" gradientUnits="userSpaceOnUse"><stop offset="0" stop-color="#71b7fd" class="stopColorfd9271 svgShape"></stop><stop offset="1" stop-color="#c4e1fe" class="stopColorfed4c4 svgShape"></stop></linearGradient><linearGradient id="d" x1="2707" x2="2818.37" y1="2505.06" y2="2505.06" xlink:href="#a"></linearGradient><linearGradient id="e" x1="1415.94" x2="3594.99" y1="2490.23" y2="2490.23" xlink:href="#a"></linearGradient><linearGradient id="b" x1="2796.49" x2="1919.44" y1="2404.25" y2="2821.78" gradientUnits="userSpaceOnUse"><stop offset="0" stop-color="#71b7fd" class="stopColorfd9271 svgShape"></stop><stop offset="1" stop-color="#c4e1fe" stop-opacity="0" class="stopColorfed4c4 svgShape"></stop></linearGradient><linearGradient id="f" x1="3046.63" x2="3949.27" y1="1596.02" y2="2669.92" gradientTransform="rotate(39.09 3477.32 2163.167)" gradientUnits="userSpaceOnUse"><stop offset="0" stop-color="#0575e6" class="stopColor5c75c9 svgShape"></stop><stop offset="1" stop-color="#d2e7fd" class="stopColord2e3fd svgShape"></stop></linearGradient><linearGradient id="g" x1="7206.41" x2="8109.05" y1="1702.42" y2="2776.31" gradientTransform="scale(1 -1) rotate(39 10381.366 -8512.865)" gradientUnits="userSpaceOnUse"><stop offset="0" stop-color="#0575e6" class="stopColor5c75c9 svgShape"></stop><stop offset="1" stop-color="#021b79" class="stopColor2e419b svgShape"></stop></linearGradient><linearGradient id="h" x1="2614.05" x2="1387.63" y1="3366.24" y2="2174.86" xlink:href="#b"></linearGradient></defs><path fill="#f0f6fd" d="M3555.36 2752.37a340 340 0 0 1-60.45 81.66l-40.47 40.57-31.16 31.05-31.28 31.27-426.3 426.33-194.28 194.38c-133.42 133.42-349.84 133.42-483.26 0l-481-481.08-139.63-139.63-31.26-31.26-71.59-71.66c-133.42-133.42-133.42-349.74 0-483.15l194.38-194.28 488.64-488.74 40.47-40.47a341.71 341.71 0 0 1 483.26 0l100.81 100.81 622.67 622.68c108.68 108.71 128.86 272.46 60.45 401.52Z" transform="translate(-1235 -842.31)" class="colorf0f5fd svgShape"></path><path fill="url(#a)" d="M3555.36 2752.37a340 340 0 0 1-60.45 81.66l-40.47 40.57-31.16 31.05-31.28 31.27-426.3 426.33-194.28 194.38c-133.42 133.42-349.84 133.42-483.26 0 1243-662.73 241.57-2030.32 241.57-2030.32a340.66 340.66 0 0 1 241.68 100.09l100.81 100.81 622.67 622.68c108.7 108.67 128.88 272.42 60.47 401.48Z" opacity=".48" transform="translate(-1235 -842.31)"></path><path fill="#71b7fd" d="M2066.71 1485.64h-317c-178.44 0-330.59-145.94-329-324.38 1.45-180.82 152-326 334.94-318.69 169 6.73 305.64 146.87 308.34 316a320.26 320.26 0 0 1-62.62 196.35Z" transform="translate(-1235 -842.31)" class="colorfd9271 svgShape"></path><path fill="url(#c)" d="M2066.71 1485.64h-317c-178.44 0-330.59-145.94-329-324.38 1.45-180.82 152-326 334.94-318.69-385.73 377.79 311.06 643.07 311.06 643.07Z" transform="translate(-1235 -842.31)"></path><path fill="#ffffff" d="M1737.06 1304.46a37.39 37.39 0 0 1-56.33.35l-79.57-90a62.51 62.51 0 0 1 6.9-88.13L1709 1244.75l131.48-155.11a62.51 62.51 0 0 1 88.1-7.26Z" transform="translate(-1235 -842.31)" class="colorffffff svgShape"></path><path fill="url(#d)" d="M2818.37 2549.76c-8.47-7.07-64.3-54.2-111.37-89.41 38.2 25.81 77.56 56.01 111.37 89.41Z" opacity=".77" transform="translate(-1235 -842.31)"></path><path fill="url(#e)" d="m3333.06 1920.2-84.39 87.08c-87.31 64.07-149.86 96.07-149.86 96.07l-327.45 52.39c-81.94 13.9-142 38.37-176.9 55.66-112.19-21.84-176.43-26.57-176.43-26.57-177.95-17.46-303.1 29.49-407.87 34.92-113.07 5.9-380.31-212.46-380.31-212.46l-213.92 338.32c165.8 102.67 416.92 204.11 495.47 295.74s231.38 215 231.38 215c79.66 57.82 402.67 184.43 402.67 184.43 105.88 40.35 156.11 5.43 156.11 5.43 33.81-20.73-14.19-32.35-14.19-32.35l-204.11-99.69c-49.12-28.38-6.54-15.24-6.54-15.24l185.54 94.9c99.28 49.11 163.7-7.65 163.7-7.65 43.62-22.89-15.3-47-15.3-47l-193.13-106.35c-120.07-81.88 4.38-14.72 4.38-14.72s153.83 87.31 209.48 121.07c1.17.7 2.28 1.34 3.38 1.93 42 22.31 102.26-2.34 129.53-15.94 12.09-6 22-16.12 26.81-28.79 13.43-35-24.41-44.44-24.41-44.44-29.43 1.11-110.2-48-110.2-48l-158.2-109.11c-51.33-48 14.13-10.92 14.13-10.92l187.76 124.39c128.77 73.18 172.4 5.49 172.4 5.49 44.74-53.49-17.46-89.47-17.46-89.47l-8.47-5.78c97.76-48.36 246.39-279.1 246.39-279.1L3595 2237.2ZM2707 2477.87c-21.43-14.43-42.46-27.45-62-39 10.4 2.16 34.75 18.57 62 39 38.19 25.81 77.56 56 111.37 89.41-8.47-7.06-64.3-54.19-111.37-89.41Z" opacity=".77" transform="translate(-1235 -842.31)"></path><path fill="url(#d)" d="M2818.37 2549.76c-8.47-7.07-64.3-54.2-111.37-89.41 38.2 25.81 77.56 56.01 111.37 89.41Z" opacity=".77" transform="translate(-1235 -842.31)"></path><path fill="#a7c7e8" d="m2644.8 2461-510.57 396 429.07 223.3s374.87-184.53 490.11-289.87Z" transform="translate(-1235 -842.31)" class="colore8b2a7 svgShape"></path><path fill="#d2e7fc" d="M3072.59 2889.19s-43.63 67.69-172.4-5.43l-187.76-124.39s-65.47-37.14-14.13 10.86l158.21 109.15s80.77 49.11 110.2 48c0 0 37.84 9.46 24.41 44.5-4.85 12.62-14.72 22.72-26.81 28.79-27.27 13.61-87.48 38.25-129.53 15.88-1.11-.58-2.22-1.23-3.38-1.87-55.66-33.81-209.48-121.12-209.48-121.12s-124.45-67.1-4.38 14.72l193.13 106.41s58.93 24 15.3 47c0 0-64.42 56.77-163.7 7.65l-185.54-95s-42.57-13.08 6.54 15.3l204.11 99.63s48 11.68 14.19 32.41c0 0-50.22 34.92-156.11-5.49 0 0-323-126.55-402.67-184.43l-.12-.12c-4.61-3.74-153.89-124.63-231.27-214.86-69.15-80.77-272.21-169-432.87-259.07-21.78-12.2-42.81-24.41-62.6-36.68l213.92-338.32s267.24 218.3 380.31 212.46c104.77-5.49 229.92-52.38 407.87-34.92 0 0 98.64 7.24 264.79 45.32 168.55 38.54-271.56 70.66-142.79 153.65 0 0 169.13 75.28 279.39 184.43l146.24 94.9 89.47 61.15s62.2 36.05 17.46 89.49Z" transform="translate(-1235 -842.31)" class="colorfcd9d2 svgShape"></path><path fill="url(#b)" d="M2198.82 2656.07s37.54 46.52 97.7 24.69c0 0 89.27-30.13 153.3-108.91 0 0 78.57-36.59 209.53-49.69l-20.36-32-209.9 36.38Z" transform="translate(-1235 -842.31)"></path><path fill="#a7c7e8" d="M2198.08 2605.87s66.93-60.43 101.85-115.72c0 0 8.73-37.83 61.11-58.22l197.89-125.12s75.67-52.39 212.45-75.68l327.4-52.38s62.58-32 149.89-96l84.39-87.07 261.92 317-301.98 202.2s-148.62 230.71-246.37 279.06c0 0-191.2-117.39-227.27-150.28 0 0-144.88-123.32-174.49-129.32 0 0-128.9 9.27-197.65 38.74 0 0-119 131-211.72 117.86.04 0-74.89-16.64-37.42-65.07ZM2336 3090.26s-1.41-51.38 52.81-44.18l118 63.52s-161.11 21.53-170.81-19.34Z" transform="translate(-1235 -842.31)" class="colore8b2a7 svgShape"></path><path fill="#a7c7e8" d="M2336 3016.66s143.85 66.11 174.26 90.45l6.43 8.17s-162.32-89.61-177.79-89.75Z" opacity=".43" transform="translate(-1235 -842.31)" class="colore8b2a7 svgShape"></path><path fill="#a7c7e8" d="M2249.36 3050.36s-56.45-78.85-22.37-99.24c0 0 72-40.87 102.18 49.62 0 0 40.86 77.85-19.47 83.68 0 0-39.31 1.58-60.34-34.06ZM2011 2910.25s-8.75-49.82 32.11-52.16c0 0 64.23 27.84 64.23 74.54 0 0 23.53 54.5-48.56 34-.04.04-38.08-19.42-47.78-56.38Z" transform="translate(-1235 -842.31)" class="colore8b2a7 svgShape"></path><path fill="#a7c7e8" d="M2119.72 2979.87c-7.92-18.69 1.6-67.81 29.42-76.43 0 0 64.49-8.95 66.93 38.43 0 0-15.18 30.54 16.2 88.88 4.54 8.43-54.18 47.38-96-17.6-.03.01-12.88-24.6-16.55-33.28Z" transform="translate(-1235 -842.31)" class="colore8b2a7 svgShape"></path><path fill="#84abd3" d="M2658 2520s193.46-3.62 292.42-58.92c0 0-97.78 77.7-270.64 75.66ZM2869.17 2680.35l41.91-62.62s-46.16 46.1-48.91 57.85c-.47 2.08 7 4.77 7 4.77Z" transform="translate(-1235 -842.31)" class="colord39184 svgShape"></path><rect width="237.54" height="548.27" x="3393.06" y="1843.56" fill="url(#f)" rx="32.41" ry="32.41" transform="rotate(-39.66 1726.409 3408.895)"></rect><circle cx="3635.46" cy="2266.82" r="37.94" fill="#ffffff" transform="rotate(-.57 -81647.27 125986.421)" class="colorffffff svgShape"></circle><rect width="237.54" height="548.27" x="1355.04" y="1960.57" fill="url(#g)" rx="32.41" ry="32.41" transform="rotate(-146.14 728.082 2001.527)"></rect><circle cx="1365.88" cy="2395.55" r="37.94" fill="#ffffff" transform="rotate(-5.23 -8473.393 15493.818)" class="colorffffff svgShape"></circle><path fill="url(#h)" d="M2142.68 2931.65c-4.61-3.74-153.89-124.63-231.27-214.86-69.15-80.77-272.21-169-432.87-259.07l4.9-24.24s454.24 235.36 551.6 175.73c-.04 0-26.98 177.48 107.64 322.44Z" transform="translate(-1235 -842.31)"></path></svg>