<svg xmlns="http://www.w3.org/2000/svg" enable-background="new 0 0 600 500" viewBox="0 0 600 500" id="Cloudundermaintenance"><g fill="#000000" class="color000000 svgShape"><g opacity=".3" fill="#000000" class="color000000 svgShape"><path fill="#d2e8ff" d="M92.3 436.5h414.9c18.9 0 35-15 36.8-34.9v-.4c.9-10.2-1.3-21.7-8.9-28-6.1-5.1-14.7-6.1-20.5-11.6-9-8.4-7.9-23.4-5.6-35.8 4.6-24.6 11.1-48.7 19.4-72.2 4.5-12.7 9.7-25.8 8.3-39.3-.3-3.4-1.2-6.9-3.4-9.4-7.2-7.9-20.8 1-29.9-4-8.1-4.5-8.1-16.8-5.9-26.2 4.9-21.6 14.5-44.9 5-64.7-8.1-17-27.3-24.2-44.9-27.8-24.4-5-49.7-6.1-73.9-.2-27.7 6.7-52.7 22.2-79.7 31.6-27 9.4-58.8 11.8-81.8-5.9-20.5-15.8-26.6-40.5-75.3-35.3-28.6 3.1-56.4 14.1-79.8 31.7-6.6 4.9-13.2 11-15.1 19.2-3.5 15.1 9.6 27.9 18.7 40.1 16 21.3 22.1 50.6 15.8 77.1-6.8 29-26.9 52.6-36.3 80.8-9.5 28.3-7.4 60.8 5.7 87.5 1.8 3.7 3.9 7.4 6.1 10.8 6.7 10.7 18.2 16.9 30.3 16.9z" class="colord2e4ff svgShape"></path></g><path d="M526.9 313.8h-8v-1h8v1zm-16 0h-8v-1h8v1zm23.4-3.4-.8-.7c1.4-1.6 2.1-3.6 2.1-5.7v-1.4h1v1.4c.1 2.4-.8 4.6-2.3 6.4zm2.4-15.8h-1v-8h1v8zm0-16h-1v-8h1v8zm0-16h-1v-8h1v8zm0-16h-1v-8h1v8zm0-16h-1v-8h1v8zm0-16h-1v-8h1v8zm0-16h-1v-8h1v8zm0-16h-1v-8h1v8zm0-16h-1v-8h1v8zm0-16h-1v-.3c0-2.5-1-4.8-2.8-6.5l.7-.7c2 1.9 3.2 4.5 3.2 7.2v.3zm-10.9-9.1h-8v-1h8v1zm-16 0h-8v-1h8v1zm-16 0h-8v-1h8v1zm-16 0h-8v-1h8v1zm-16 0h-8v-1h8v1zm-16 0h-8v-1h8v1zm-16 0h-8v-1h8v1zm-16 0h-8v-1h8v1zm-16 0h-8v-1h8v1zm-16 0h-8v-1h8v1zm-16 0h-8v-1h8v1zm-16 0h-8v-1h8v1zm-16 0h-8v-1h8v1zm-16 0h-8v-1h8v1zm-16 0h-8v-1h8v1zm-16 0h-8v-1h8v1zm-16 0h-8v-1h8v1zm-16 0h-8v-1h8v1zm-16 0h-8v-1h8v1zm-16 0h-8v-1h8v1zm-16 0h-8l.1-1H205.8v1zm-15.5-3.5c-2-2-3.2-4.6-3.4-7.4l1-.1c.2 2.6 1.3 5 3.1 6.8l-.7.7zm-2.4-15.4h-1v-8h1v8zm0-16h-1v-8h1v8z" fill="#000000" class="color000000 svgShape"></path><path fill="#bddeff" d="M467.8 84.5v177.7c0 .7-.1 1.3-.2 1.9-.9 4.5-5.1 7.9-10.1 7.9h-193c-5.7 0-10.3-4.4-10.3-9.8V84.5c0-3.6 2-6.7 4.9-8.4.6-.3 1.2-.6 1.8-.8.3-.1.6-.2 1-.3.8-.2 1.7-.3 2.6-.3h193c.9 0 1.7.1 2.6.3.3.1.7.2 1 .3.6.2 1.2.5 1.8.8 1 .6 1.9 1.3 2.6 2.1.2.2.4.5.6.8 1.1 1.5 1.7 3.4 1.7 5.5z" class="colorbdd6ff svgShape"></path><path d="M342.3 176.9h-72.2c-2.7 0-4.8-2.1-4.8-4.8v-60.7c0-2.7 2.1-4.8 4.8-4.8h72.2c2.7 0 4.8 2.1 4.8 4.8v60.7c0 2.7-2.2 4.8-4.8 4.8z" opacity=".08" fill="#000000" class="color000000 svgShape"></path><path fill="#ffffff" d="M444 252.6H278.1c-2.1 0-3.8-1.7-3.8-3.8v-49c0-2.1 1.7-3.8 3.8-3.8H444c2.1 0 3.8 1.7 3.8 3.8v49c0 2.1-1.7 3.8-3.8 3.8zM269.7 85.9c0 1.7-1.4 3-3.2 3-1.7 0-3.2-1.3-3.2-3s1.4-3 3.2-3c1.8 0 3.2 1.3 3.2 3zM287.4 85.9c0 1.7-1.4 3-3.2 3s-3.2-1.3-3.2-3 1.4-3 3.2-3 3.2 1.3 3.2 3zM278.6 85.9c0 1.7-1.4 3-3.2 3-1.7 0-3.2-1.3-3.2-3s1.4-3 3.2-3c1.7 0 3.2 1.3 3.2 3z" class="colorffffff svgShape"></path><path fill="#021b79" d="M147.5 436.5c0-.9-1.3-93.6-22.6-111.3-2.9-2.4-6-3.3-9.3-2.7-18 3.1-29.1 42.5-31.3 111-.1 2.7-.1 2.9-.2 3.1l-.9-.3.5.2-.5-.1c0-.2.1-1.3.1-2.8 1.3-39.9 7.2-107.6 32.2-111.9 3.6-.6 7 .4 10.1 2.9 21.7 18 22.9 108.3 23 112.1l-1.1-.2z" class="color060405 svgShape"></path><path fill="#ffffff" d="M170 353.7c-64.6 40.6-125.8 9.9-125.7-54.7.1-43.9 19.9-68.6 34.7-73.6 21.1-7.2 39.9 18.9 42 29.2 2.1 10.2 16.8 68.4 35.9 76.8 19 8.6 16 13.9 13.1 22.3z" class="colorffffff svgShape"></path><path fill="#021b79" d="M112.4 372.5c-12.4 0-24-2.8-34.2-8.4-21.9-12.1-34.5-35.8-34.4-65 .1-45.6 21-69.3 35-74 6.9-2.3 14-1.4 21.2 2.7 11.7 6.7 20.1 20.1 21.4 26.8 2.7 13.2 17.4 68.4 35.6 76.5 18.7 8.2 16.6 13.9 13.8 21.7l-.5 1.3-.1.1c-19.3 12.1-39.4 18.3-57.8 18.3zM86.3 224.8c-2.4 0-4.8.4-7.2 1.2-13.8 4.7-34.2 28-34.3 73.1 0 28.8 12.3 52.2 33.9 64.1 25 13.9 59 10.2 90.9-9.8l.3-1c2.8-7.9 4.5-12.6-13.3-20.5-18.6-8.2-33.5-63.9-36.2-77.2-1.3-6.5-9.5-19.6-20.9-26.2-4.5-2.4-8.9-3.7-13.2-3.7z" class="color060405 svgShape"></path><path fill="#456cff" d="m228.7 398.4-1.6-2.4-14.3 9.4c2.9 4.8 8.2 13.7 8.1 13.8l23.2-15.3c-4.1-8.2-15.4-5.5-15.4-5.5z" class="colorff7545 svgShape"></path><path fill="#021b79" d="M241.7 400.8c1 .8 1.8 1.8 2.5 3.1L221 419.1s-.8-1.5-2-3.5l22.7-14.8zM227.7 395.4c1.8 2-13 12-14.8 10l-57-58s-40.5 5.3-58.9.7c-18.4-4.5-12.3-40.7-12.3-40.7s61.7-5.1 86.3-.7c14 2.5 56.7 88.7 56.7 88.7z" class="color060405 svgShape"></path><path fill="#ffffff" d="M217.6 217.1c-.5 2.5-6.4 5.4-6.4 5.4S189 263.1 174.4 266c-8.9 1.7-28.1-14.3-28.1-14.3l16.3-22.4 10.5 8.5 28.5-26.3s-6.4-6.8-3.1-8.3c3.4-1.5 5.1 2.6 5.1 2.6s6.7-17.1 9.7-15.5c3 1.6-2.6 12.2-2.6 12.2s7.4 12 6.9 14.6z" class="colorffffff svgShape"></path><path fill="#021b79" d="M173 266.5c-9.4 0-26.3-13.9-27-14.5l-.4-.3 16.9-23.2 10.6 8.6 27.8-25.7c-1.1-1.2-4.3-4.9-3.8-7.2.1-.7.5-1.2 1.2-1.5 2.1-.9 4 0 5.2 1.9 1.4-3.4 5.8-13.7 8.7-14.8.4-.2.9-.1 1.2.1 3.1 1.7-1.1 10.3-2.3 12.6 1.3 2 7.4 12 7 14.5-.5 2.6-5.4 5.1-6.5 5.7-1.7 3-22.7 40.8-37.1 43.6-.5.2-1 .2-1.5.2zm-26-14.9c2.7 2.2 19.5 15.4 27.3 13.9 14.3-2.8 36.3-42.8 36.5-43.2l.1-.1.1-.1c1.6-.8 5.8-3.1 6.1-5 .3-1.7-4.1-9.5-7-14.1l-.2-.2.1-.3c2.2-4.2 4.6-10.6 2.9-11.5-.1 0-.2-.1-.4 0-2.5.9-7 11.3-8.6 15.2l-.4 1.1-.5-1.1c-.8-1.9-2.4-3.3-4.4-2.4-.4.2-.6.4-.6.7-.3 1.8 2.7 5.4 3.9 6.7l.4.4-29.1 26.9-10.4-8.5-15.8 21.6z" class="color060405 svgShape"></path><path fill="#0234ef" d="m172.1 232.1-15.7 24.2-16.1-26.8 7.4-13.8c5.9 1.7 16.3 10.1 24.4 16.4z" class="colorefc102 svgShape"></path><path fill="#0234ef" d="M153.3 219.5c-9-10.6-48.5-9.5-55.6-3.8l-16.3 99.4 74-11s3.8-78.6-2.1-84.6z" class="colorefc102 svgShape"></path><path fill="#456cff" d="M177 423.4v-2.9h-17.1c-.2 5.5-.7 16-.8 16h27.8c1-9.2-9.9-13.1-9.9-13.1z" class="colorff7545 svgShape"></path><path fill="#021b79" d="M186.5 432.5c.4 1.2.5 2.5.4 4h-27.8c.1 0 .2-1.6.3-4h27.1zM179.8 422.9l-1.2-83.2-36.9-4.3 16.7 87.9c0 1.1 21.4.8 21.4-.4z" class="color060405 svgShape"></path><path fill="#021b79" d="M51.2 369.8h139v1.5h-139z" transform="rotate(-70.925 120.75 370.585)" class="color060405 svgShape"></path><path fill="#ffffff" d="M62 298.1h117.8v10.6H62z" class="colorffffff svgShape"></path><path fill="#021b79" d="M179.8 298.1h113.5v10.6H179.8z" class="color060405 svgShape"></path><path fill="#021b79" d="M180.3 309.2H61.5v-11.6h118.8v11.6zm-117.8-1h116.8v-9.6H62.5v9.6z" class="color060405 svgShape"></path><path fill="#021b79" d="M293.8 309.2H179.3v-11.6h114.5v11.6zm-113.5-1h112.5v-9.6H180.3v9.6z" class="color060405 svgShape"></path><path fill="#ffffff" d="M255.2 294c0 2.1-1.7 3.8-3.8 3.8H188c1.1 0 2-.4 2.7-1.1.7-.7 1.1-1.6 1.1-2.7 0-2.1-1.7-3.8-3.8-3.8h63.4c2.1 0 3.8 1.7 3.8 3.8z" class="colorffffff svgShape"></path><path fill="#ffffff" d="M191.8 294c0 1-.4 2-1.1 2.7-.7.7-1.6 1.1-2.7 1.1h-51.2c-2.1 0-3.8-1.7-3.8-3.8 0-2.1 1.7-3.8 3.8-3.8H188c2.1 0 3.8 1.7 3.8 3.8z" class="colorffffff svgShape"></path><path fill="#021b79" d="M188 298.3h-51.2c-2.4 0-4.3-1.9-4.3-4.3 0-2.3 1.9-4.3 4.3-4.3H188c2.4 0 4.3 1.9 4.3 4.3 0 1.1-.5 2.2-1.3 3-.8.9-1.8 1.3-3 1.3zm-51.2-7.6c-1.8 0-3.3 1.5-3.3 3.3 0 1.8 1.5 3.3 3.3 3.3H188c.9 0 1.7-.3 2.3-1 .6-.6 1-1.5 1-2.3 0-1.8-1.5-3.3-3.3-3.3h-51.2z" class="color060405 svgShape"></path><path fill="#021b79" d="M255.2 294c0 2.1-1.7 3.8-3.8 3.8H188c1.1 0 2-.4 2.7-1.1.7-.7 1.1-1.6 1.1-2.7 0-2.1-1.7-3.8-3.8-3.8h63.4c2.1 0 3.8 1.7 3.8 3.8z" class="color060405 svgShape"></path><path fill="#021b79" d="M251.4 298.3H188c-.3 0-.5-.2-.5-.5s.2-.5.5-.5c.9 0 1.7-.3 2.3-1 .6-.6 1-1.5 1-2.3 0-1.8-1.5-3.3-3.3-3.3-.3 0-.5-.2-.5-.5s.2-.5.5-.5h63.4c2.4 0 4.3 1.9 4.3 4.3s-1.9 4.3-4.3 4.3zm-60.6-1h60.6c1.8 0 3.3-1.5 3.3-3.3 0-1.8-1.5-3.3-3.3-3.3h-60.6c.9.8 1.5 2 1.5 3.3 0 1.1-.5 2.2-1.3 3 0 .2-.1.2-.2.3z" class="color060405 svgShape"></path><path fill="#ffffff" d="M266.8 236.8h-61.9c-1.6 0-2.9 1-3.4 2.5l-14 46.3c-.7 2.3 1 4.6 3.4 4.6h61.9c1.6 0 2.9-1 3.4-2.5l14-46.3c.7-2.3-1-4.6-3.4-4.6z" class="colorffffff svgShape"></path><path fill="#021b79" d="M252.8 290.7H191c-1.3 0-2.5-.6-3.3-1.6-.8-1-1-2.3-.6-3.6l14-46.3c.5-1.7 2.1-2.9 3.9-2.9h61.9c1.3 0 2.5.6 3.3 1.6.8 1 1 2.3.6 3.6l-14 46.3c-.6 1.7-2.2 2.9-4 2.9zm-47.9-53.4c-1.4 0-2.5.9-2.9 2.2l-14 46.3c-.3.9-.1 1.9.5 2.7.6.8 1.5 1.2 2.4 1.2h61.9c1.4 0 2.5-.9 2.9-2.2l14-46.3c.3-.9.1-1.9-.5-2.7-.6-.8-1.5-1.2-2.4-1.2h-61.9zM185.6 294c0 .6-.5 1.1-1 1.1h-7.9c-.6 0-1.1-.5-1.1-1.1s.5-1.1 1.1-1.1h7.9c.5.1 1 .5 1 1.1zM173.5 294c0 .6-.5 1.1-1.1 1.1H167c-.6 0-1.1-.5-1.1-1.1s.5-1.1 1.1-1.1h5.4c.6.1 1.1.5 1.1 1.1z" class="color060405 svgShape"></path><path fill="#021b79" d="M236.6 267c-1.3 3.2-4.8 5.9-7.9 5.9-3.1.1-4.5-2.5-3.2-5.7 1.3-3.2 4.8-5.9 7.9-5.9 3-.1 4.5 2.5 3.2 5.7z" class="color060405 svgShape"></path><path fill="#ffffff" d="M158.4 298.2H79.1c-8.8 0-15.3-8.1-13.3-16.7l7.3-31.9 26.1 4.8-5.5 16.7 49.8 12.7s4.4-10.9 7.7-8.9c3.2 2-1.6 8.3-1.6 8.3s14.5-2 14.8 6.2c.1 8.1-3.3 8.6-6 8.8z" class="colorffffff svgShape"></path><path fill="#021b79" d="M152.6 298.8c-4.6 0-9.9-.1-9.9-.1H79.1c-4.3 0-8.4-1.9-11.1-5.3-2.7-3.4-3.7-7.8-2.7-12l7.4-32.3 27.1 4.9-5.5 16.8 48.8 12.4c.8-1.8 3.6-8 6.4-8.9.6-.2 1.2-.1 1.8.2.7.4 1.1 1.1 1.3 1.9.4 2.1-1.2 4.8-2.1 6.3 2.5-.2 8.8-.4 12.2 2.4 1.3 1.1 2 2.6 2.1 4.4.3 7.9-2.9 9.2-6.3 9.3-1.4-.1-3.6 0-5.9 0zm-79.2-48.6-7.1 31.4c-.9 3.9 0 8 2.6 11.1 2.5 3.1 6.3 5 10.3 5h79.3c2.2-.1 5.6-.3 5.3-8.3 0-1.5-.6-2.7-1.7-3.7-3.8-3.2-12.4-2.1-12.5-2.1l-1.2.2.7-1c.8-1.1 3-4.4 2.6-6.4-.1-.5-.4-.9-.8-1.2-.3-.2-.6-.2-1-.1-2.3.7-5.1 6.6-6 8.8l-.2.4L93 271.5l5.5-16.7-25.1-4.6z" class="color060405 svgShape"></path><path fill="#0234ef" d="M107.8 226c-.5-5.6-2.7-10.1-8.1-11.4 0 0-13.5 5.4-20.6 17.4-7.8 13.1-9.9 21.1-9.9 21.1l31.3 5.8c0-.1 8.5-19.6 7.3-32.9" class="colorefc102 svgShape"></path><path fill="#021b79" d="m100.8 259.4-31.7-5.8.2-1 30.9 5.7c1.1-2.7 7.9-19.3 7.3-31.2l1-.1c.7 13.2-7.4 31.8-7.5 32l-.2.4zM110.2 436.5c0-.8-1.3-80.1-21.7-97.4-3.1-2.6-6.6-3.7-10.3-3.1-17.9 2.8-29.1 37.5-31.3 97.8-.1 2.5-.1 2.6-.2 2.7l-.9-.4.5.2-.5-.1c0-.2.1-1.2.1-2.5 1.3-35.2 7.2-94.9 32.1-98.7 4-.6 7.7.5 11.1 3.4 20.7 17.6 22 94.8 22.1 98.1h-1z" class="color060405 svgShape"></path><path fill="#021b79" d="M261.9 301.1h1.5v139h-1.5z" transform="rotate(-19.069 262.6 370.54)" class="color060405 svgShape"></path><path fill="#ffffff" d="M136 202.5s-1.5 5.3.7 9.2c1.7 3 1 8.1-3.1 9.2-6.7 1.8-18.5-8.7-18.5-8.7l5.5-29.3 15.4 19.6z" class="colorffffff svgShape"></path><path fill="#021b79" d="m114.8 212.5-.2-.2 5.7-30.7 16.2 20.7c-.8 2.8-.8 6.5.6 9.1 1.1 1.9 1.2 4.5.3 6.6-.7 1.7-2 2.9-3.8 3.3-5.4 1.5-14.6-5-18.8-8.8zm.8-.5c1.6 1.4 11.9 9.9 17.8 8.4 1.8-.5 2.7-1.7 3.1-2.7.8-1.8.6-4.1-.3-5.7-2-3.6-1.1-8.2-.8-9.3L120.9 184l-5.3 28z" class="color060405 svgShape"></path><path fill="#ffffff" d="M117.7 180.2c-1 12.7 8.5 27.5 20.8 25.5 14.2-2.3 6-35.9-.8-42-6.8-6.1-19.4.6-19.4.6l-3.6 10.5 3 5.4z" class="colorffffff svgShape"></path><path fill="#021b79" d="M136.2 206.4c-3.8 0-7.5-1.5-10.7-4.5-5.5-5.1-8.9-13.7-8.3-21.6l-3-5.5 3.7-10.9.2-.1c.5-.3 13-6.8 20-.5 5.1 4.6 11.1 24.6 7.8 35.6-1.3 4.3-3.7 6.8-7.3 7.3-.8.1-1.6.2-2.4.2zm-21-31.7 3 5.4v.2c-.6 7.6 2.6 16 8 20.9 2.6 2.4 6.7 5 12.2 4.1 3.2-.5 5.4-2.7 6.5-6.6 3.1-10.7-2.6-30.1-7.5-34.6-6-5.4-17.2-.2-18.7.6l-3.5 10z" class="color060405 svgShape"></path><ellipse cx="129.6" cy="179.6" fill="#021b79" rx="1" ry="1.4" transform="rotate(-5.902 129.593 179.56)" class="color060405 svgShape"></ellipse><ellipse cx="139" cy="178.9" fill="#021b79" rx="1" ry="1.4" transform="rotate(-5.902 139.021 178.868)" class="color060405 svgShape"></ellipse><path fill="#021b79" d="m135 188.3-.7-.7c.4-.3.8-.4 1.3-.5.3-.1.5-.2.5-.3 0-.1-.3-.4-.4-.5-1.6-1.4-2.3-3.7-2-5.8l1 .2c-.3 1.7.4 3.6 1.7 4.8.3.3.8.8.8 1.4-.1.5-.5 1-1.2 1.1-.5.1-.9.2-1 .3zM132.5 195.6c-.8-.3-1.5-.9-1.9-1.7l.9-.4c.3.5.7 1 1.3 1.2.6.2 1.2.2 1.8-.1l.4.9c-.8.3-1.7.4-2.5.1zM118.7 196s-30.8-22.2-12.5-30.8c0 0-3-9.5 2.7-12.8s7.5-1.1 7.5-1.1 12-10.4 22.4-1.8c0 0 5.4-4.1 9.3 4 3.9 8-7 14.8-7 14.8l-2.1-3.5s-7.3 4.7-17.6 4.1c0 0 4.3 8 0 11.2-4.3 3.2-1.8 12.1-1.8 12.1l-.9 3.8z" class="color060405 svgShape"></path><path fill="#0575e6" d="M515.3 267.7v164.7c0 2.4-1.8 4.4-4.1 4.4h-102c-2.2 0-4.1-2-4.1-4.4V267.7c0-2.4 1.8-4.4 4.1-4.4h102c2.3 0 4.1 2 4.1 4.4z" class="color6193f6 svgShape"></path><path fill="#ffffff" d="M506.6 277.8v26.4c0 .6-.4 1-1 1H415c-.6 0-1-.4-1-1v-26.4c0-.6.4-1 1-1h90.6c.6 0 1 .4 1 1z" class="colorffffff svgShape"></path><path fill="#bddeff" d="M484.8 288c.1.1.2.3.2.6v4.9c0 .2-.1.4-.2.6-.1.1-.2.2-.4.2h-16.7c-.1 0-.3-.1-.4-.2-.1-.1-.2-.3-.2-.6v-4.9c0-.2.1-.4.2-.6.1-.1.2-.2.4-.2h16.7c.1-.1.2 0 .4.2z" class="colorbdd6ff svgShape"></path><path fill="#456cff" d="M499 290.9c0 2.8-2.2 5-5 5s-5-2.2-5-5c0-2.7 2.2-5 5-5 2.7 0 5 2.3 5 5z" class="colorff7545 svgShape"></path><path fill="#021b79" d="M426 283.8h2.9v3H426zM433.4 283.8h2.9v3h-2.9zM440.8 283.8h2.9v3h-2.9zM448.3 283.8h2.9v3h-2.9zM455.7 283.8h2.9v3h-2.9zM429.5 289.5h2.9v3h-2.9zM437 289.5h2.9v3H437zM444.4 289.5h2.9v3h-2.9zM451.8 289.5h2.9v3h-2.9zM459.3 289.5h2.9v3h-2.9zM426 295.2h2.9v3H426zM433.4 295.2h2.9v3h-2.9zM440.8 295.2h2.9v3h-2.9zM448.3 295.2h2.9v3h-2.9zM455.7 295.2h2.9v3h-2.9z" class="color060405 svgShape"></path><path fill="#ffffff" d="M506.6 314.3v26.4c0 .6-.4 1-1 1H415c-.6 0-1-.4-1-1v-26.4c0-.6.4-1 1-1h90.6c.6 0 1 .5 1 1z" class="colorffffff svgShape"></path><path fill="#bddeff" d="M484.8 324.5c.1.1.2.3.2.6v4.9c0 .2-.1.4-.2.6-.1.1-.2.2-.4.2h-16.7c-.1 0-.3-.1-.4-.2-.1-.1-.2-.3-.2-.6v-4.9c0-.2.1-.4.2-.6.1-.1.2-.2.4-.2h16.7c.1 0 .2.1.4.2z" class="colorbdd6ff svgShape"></path><path fill="#456cff" d="M499 327.4c0 2.8-2.2 5-5 5s-5-2.2-5-5c0-2.7 2.2-5 5-5 2.7.1 5 2.3 5 5z" class="colorff7545 svgShape"></path><path fill="#021b79" d="M426 320.4h2.9v3H426zM433.4 320.4h2.9v3h-2.9zM440.8 320.4h2.9v3h-2.9zM448.3 320.4h2.9v3h-2.9zM455.7 320.4h2.9v3h-2.9zM429.5 326h2.9v3h-2.9zM437 326h2.9v3H437zM444.4 326h2.9v3h-2.9zM451.8 326h2.9v3h-2.9zM459.3 326h2.9v3h-2.9zM426 331.7h2.9v3H426zM433.4 331.7h2.9v3h-2.9zM440.8 331.7h2.9v3h-2.9zM448.3 331.7h2.9v3h-2.9zM455.7 331.7h2.9v3h-2.9z" class="color060405 svgShape"></path><path fill="#ffffff" d="M506.6 350.8v26.4c0 .6-.4 1-1 1H415c-.6 0-1-.4-1-1v-26.4c0-.6.4-1 1-1h90.6c.6.1 1 .5 1 1z" class="colorffffff svgShape"></path><path fill="#bddeff" d="M484.8 361c.1.1.2.3.2.6v4.9c0 .2-.1.4-.2.6-.1.1-.2.2-.4.2h-16.7c-.1 0-.3-.1-.4-.2-.1-.1-.2-.3-.2-.6v-4.9c0-.2.1-.4.2-.6.1-.1.2-.2.4-.2h16.7c.1 0 .2.1.4.2z" class="colorbdd6ff svgShape"></path><path fill="#456cff" d="M499 364c0 2.8-2.2 5-5 5s-5-2.2-5-5c0-2.7 2.2-5 5-5 2.7 0 5 2.2 5 5z" class="colorff7545 svgShape"></path><path fill="#021b79" d="M426 356.9h2.9v3H426zM433.4 356.9h2.9v3h-2.9zM440.8 356.9h2.9v3h-2.9zM448.3 356.9h2.9v3h-2.9zM455.7 356.9h2.9v3h-2.9zM429.5 362.5h2.9v3h-2.9zM437 362.5h2.9v3H437zM444.4 362.5h2.9v3h-2.9zM451.8 362.5h2.9v3h-2.9zM459.3 362.5h2.9v3h-2.9zM426 368.2h2.9v3H426zM433.4 368.2h2.9v3h-2.9zM440.8 368.2h2.9v3h-2.9zM448.3 368.2h2.9v3h-2.9zM455.7 368.2h2.9v3h-2.9z" class="color060405 svgShape"></path><path fill="#ffffff" d="M506.6 387.4v26.4c0 .6-.4 1-1 1H415c-.6 0-1-.4-1-1v-26.4c0-.6.4-1 1-1h90.6c.6 0 1 .4 1 1z" class="colorffffff svgShape"></path><path fill="#bddeff" d="M484.8 397.6c.1.1.2.3.2.6v4.9c0 .2-.1.4-.2.6-.1.1-.2.2-.4.2h-16.7c-.1 0-.3-.1-.4-.2-.1-.1-.2-.3-.2-.6v-4.9c0-.2.1-.4.2-.6.1-.1.2-.2.4-.2h16.7c.1-.1.2 0 .4.2z" class="colorbdd6ff svgShape"></path><path fill="#456cff" d="M499 400.5c0 2.8-2.2 5-5 5s-5-2.2-5-5c0-2.7 2.2-5 5-5 2.7 0 5 2.2 5 5z" class="colorff7545 svgShape"></path><path fill="#021b79" d="M426 393.4h2.9v3H426zM433.4 393.4h2.9v3h-2.9zM440.8 393.4h2.9v3h-2.9zM448.3 393.4h2.9v3h-2.9zM455.7 393.4h2.9v3h-2.9zM429.5 399.1h2.9v3h-2.9zM437 399.1h2.9v3H437zM444.4 399.1h2.9v3h-2.9zM451.8 399.1h2.9v3h-2.9zM459.3 399.1h2.9v3h-2.9zM426 404.7h2.9v3H426zM433.4 404.7h2.9v3h-2.9zM440.8 404.7h2.9v3h-2.9zM448.3 404.7h2.9v3h-2.9zM455.7 404.7h2.9v3h-2.9z" class="color060405 svgShape"></path><path d="M467.8 100.1V189h-97.2c-4.6 0-8.3-3.7-8.3-8.2v-72.5c0-4.6 3.7-8.2 8.3-8.2h97.2z" opacity=".05" fill="#000000" class="color000000 svgShape"></path><path fill="#0575e6" d="M480.9 103.7v72.5c0 4.5-3.7 8.2-8.2 8.2h-97.9c-4.5 0-8.2-3.7-8.2-8.2v-72.5c0-4.6 3.7-8.2 8.2-8.2h97.9c4.5 0 8.2 3.7 8.2 8.2z" class="color6193f6 svgShape"></path><path fill="#ffffff" d="M405.6 116.7h-12c-.5 0-.9-.4-.9-.9s.4-.9.9-.9h12c.5 0 .9.4.9.9s-.4.9-.9.9zM388.2 116.7h-6.5c-.5 0-.9-.4-.9-.9s.4-.9.9-.9h6.5c.5 0 .9.4.9.9s-.5.9-.9.9zM430.9 123.6h-11.3c-.5 0-.9-.4-.9-.9s.4-.9.9-.9h11.3c.5 0 .9.4.9.9s-.4.9-.9.9zM414.7 123.6h-12.3c-.5 0-.9-.4-.9-.9s.4-.9.9-.9h12.3c.5 0 .9.4.9.9s-.4.9-.9.9zM397.5 123.6h-9.7c-.5 0-.9-.4-.9-.9s.4-.9.9-.9h9.7c.5 0 .9.4.9.9s-.4.9-.9.9zM463.1 130.6h-33.7c-.5 0-.9-.4-.9-.9s.4-.9.9-.9h33.7c.5 0 .9.4.9.9s-.4.9-.9.9zM425.6 130.6h-15.4c-.5 0-.9-.4-.9-.9s.4-.9.9-.9h15.4c.5 0 .9.4.9.9s-.5.9-.9.9zM404.6 130.6h-16.8c-.5 0-.9-.4-.9-.9s.4-.9.9-.9h16.8c.5 0 .9.4.9.9s-.4.9-.9.9zM425.2 137.6h-37.4c-.5 0-.9-.4-.9-.9s.4-.9.9-.9h37.4c.5 0 .9.4.9.9s-.4.9-.9.9zM463.1 144.6h-36.5c-.5 0-.9-.4-.9-.9s.4-.9.9-.9h36.5c.5 0 .9.4.9.9-.1.5-.4.9-.9.9zM418.7 144.6h-14.1c-.5 0-.9-.4-.9-.9s.4-.9.9-.9h14.1c.5 0 .9.4.9.9s-.4.9-.9.9zM400.2 144.6h-12.4c-.5 0-.9-.4-.9-.9s.4-.9.9-.9h12.4c.5 0 .9.4.9.9-.1.5-.4.9-.9.9zM419.9 151.6h-9.1c-.5 0-.9-.4-.9-.9s.4-.9.9-.9h9.1c.5 0 .9.4.9.9s-.4.9-.9.9zM406.1 151.6h-18.3c-.5 0-.9-.4-.9-.9s.4-.9.9-.9h18.3c.5 0 .9.4.9.9s-.5.9-.9.9zM410.2 158.6h-15.4c-.5 0-.9-.4-.9-.9s.4-.9.9-.9h15.4c.5 0 .9.4.9.9s-.4.9-.9.9zM390.4 158.6h-8.7c-.5 0-.9-.4-.9-.9s.4-.9.9-.9h8.7c.5 0 .9.4.9.9s-.4.9-.9.9zM432.2 165.6H414c-.5 0-.9-.4-.9-.9s.4-.9.9-.9h18.2c.5 0 .9.4.9.9s-.5.9-.9.9zM408.6 165.6h-21.4c-.5 0-.9-.4-.9-.9s.4-.9.9-.9h21.4c.5 0 .9.4.9.9s-.4.9-.9.9zM427.3 172.5h-26.6c-.5 0-.9-.4-.9-.9s.4-.9.9-.9h26.6c.5 0 .9.4.9.9s-.4.9-.9.9zM395.1 172.5h-7.9c-.5 0-.9-.4-.9-.9s.4-.9.9-.9h7.9c.5 0 .9.4.9.9s-.4.9-.9.9zM344.9 173.7h-72.2c-2.7 0-4.8-2.1-4.8-4.8v-60.7c0-2.7 2.1-4.8 4.8-4.8h72.2c2.7 0 4.8 2.1 4.8 4.8v60.7c0 2.6-2.2 4.8-4.8 4.8z" class="colorffffff svgShape"></path><path fill="#0575e6" d="M327.4 143.1c-.5 1.9-1.2 3.6-2.2 5.2l2.7 4.7-4.5 4.5-4.7-2.7c-1.6 1-3.4 1.7-5.2 2.2l-1.4 5.3h-6.4l-1.4-5.3c-1.9-.5-3.6-1.2-5.2-2.2l-4.7 2.7-4.5-4.5 2.7-4.7c-1-1.6-1.7-3.4-2.2-5.2l-5.3-1.4v-6.4l5.3-1.4c.5-1.9 1.2-3.6 2.2-5.2l-2.7-4.7 4.5-4.5 4.7 2.7c1.6-1 3.4-1.7 5.2-2.2l1.4-5.3h6.4l1.4 5.3c1.9.5 3.6 1.2 5.2 2.2l4.7-2.7 4.5 4.5-2.7 4.7c1 1.6 1.7 3.4 2.2 5.2l5.3 1.4v6.4l-5.3 1.4z" class="color6193f6 svgShape"></path><circle cx="308.8" cy="138.5" r="11.5" fill="#ffffff" class="colorffffff svgShape"></circle><path fill="#021b79" d="M320.2 210.4v25.8c0 2.2-1.8 3.9-3.9 3.9h-25.8c-2.2 0-3.9-1.8-3.9-3.9v-25.8c0-2.2 1.8-3.9 3.9-3.9h25.8c2.2 0 3.9 1.7 3.9 3.9z" class="color060405 svgShape"></path><path fill="#bddeff" d="M429.6 215.7h-94.9c-1.2 0-2.1-.9-2.1-2.1 0-1.2.9-2.1 2.1-2.1h94.9c1.2 0 2.1.9 2.1 2.1 0 1.1-.9 2.1-2.1 2.1zM403.6 222.2h-68.7c-1.1 0-2.1.8-2.2 1.9-.1 1.3.9 2.3 2.1 2.3h68.9c1.2 0 2.1-.9 2.1-2.1-.1-1.2-1-2.1-2.2-2.1zM429.5 222.2h-14c-1.2 0-2.1.9-2.1 2.1 0 1.2.9 2.1 2.1 2.1h14.1c1.2 0 2.2-1.1 2.1-2.3-.1-1.1-1.1-1.9-2.2-1.9zM345 232.9h-10.1c-1.1 0-2.1.8-2.2 1.9-.1 1.3.9 2.3 2.1 2.3H345c1.2 0 2.1-.9 2.1-2.1 0-1.2-1-2.1-2.1-2.1zM390 232.9h-31.2c-1.2 0-2.1.9-2.1 2.1 0 1.2.9 2.1 2.1 2.1h31.3c1.2 0 2.2-1.1 2.1-2.3-.1-1.1-1.1-1.9-2.2-1.9z" class="colorbdd6ff svgShape"></path><circle cx="303.8" cy="218.3" r="4.1" fill="#ffffff" class="colorffffff svgShape"></circle><path fill="#ffffff" d="M295.5 232.4h15.9c.5 0 .9-.4.7-.9-1.1-3.8-4.5-6.6-8.7-6.6s-7.6 2.8-8.7 6.6c-.1.4.3.9.8.9z" class="colorffffff svgShape"></path><circle cx="531.1" cy="149.7" r="25.2" fill="#021b79" class="color060405 svgShape"></circle><path fill="#ffffff" d="M544.8 145.6c-7.6-7.6-19.9-7.6-27.5 0l-2.5-2.5c9-9 23.5-9 32.5 0l-2.5 2.5z" class="colorffffff svgShape"></path><path fill="#ffffff" d="M540.7 150.1c-5.3-5.3-13.9-5.3-19.2 0l-2.5-2.5c6.7-6.7 17.5-6.7 24.2 0l-2.5 2.5z" class="colorffffff svgShape"></path><path fill="#ffffff" d="M536.5 154.6c-3-3-7.9-3-10.9 0l-2.5-2.5c4.4-4.4 11.5-4.4 15.9 0l-2.5 2.5z" class="colorffffff svgShape"></path><circle cx="531.1" cy="159.4" r="3.6" fill="#ffffff" class="colorffffff svgShape"></circle><path d="M163.4 108.6c-7.1 0-12.8-5.7-12.8-12.8 0-6.3 4.5-11.5 10.4-12.6-.2-1-.3-1.9-.3-3 0-9.4 7.6-17 17-17 7.3 0 13.5 4.6 15.9 11 2.3-2.5 5.6-4 9.3-4 7.1 0 12.8 5.7 12.8 12.8v.2c6 1 10.6 6.3 10.6 12.6 0 7.1-5.7 12.8-12.8 12.8h-50.1z" fill="#000000" class="color000000 svgShape"></path><path fill="#ffffff" d="m179.9 85.5-8.9 4c-.7.3-1.1.9-1.1 1.6v.2c0 .7.4 1.3 1.1 1.6l8.9 4c1.8.7 2.7-1.9 1-2.6l-7-3.1 7-3.1c1.8-.7.8-3.3-1-2.6zM189.2 81.2l-5.9 17.3c-.6 1.9 2.1 2.7 2.6.9l5.9-17.3c.6-1.8-2.1-2.6-2.6-.9zM204 89.5l-8.9-4c-1.7-.7-2.8 1.8-1 2.6l7 3.1-7 3.1c-1.8.7-.7 3.3 1 2.6l8.9-4c.6-.3 1.1-.9 1.1-1.6v-.2c0-.7-.5-1.3-1.1-1.6z" class="colorffffff svgShape"></path><path fill="#c6e0fa" d="M512 197.1h-38.9c-.2 0-.4-.2-.4-.4s.2-.4.4-.4H512c.2 0 .4.2.4.4s-.2.4-.4.4zM512 216.4h-38.9c-.2 0-.4-.2-.4-.4s.2-.4.4-.4H512c.2 0 .4.2.4.4s-.2.4-.4.4zM504.9 206.8h-55c-.2 0-.4-.2-.4-.4s.2-.4.4-.4h55c.2 0 .4.2.4.4s-.2.4-.4.4z" class="colorc6e2fa svgShape"></path><path fill="#c6e0fa" d="M481.1 197.1c-.2 0-.4-.2-.4-.4v-8.2c0-.2.2-.4.4-.4s.4.2.4.4v8.2c-.1.2-.2.4-.4.4zM494.7 206.8c-.2 0-.4-.2-.4-.4v-9.6c0-.2.2-.4.4-.4s.4.2.4.4v9.6c0 .2-.2.4-.4.4zM484.3 216.1c-.2 0-.4-.2-.4-.4v-9.3c0-.2.2-.4.4-.4s.4.2.4.4v9.3c0 .2-.2.4-.4.4zM341.7 330.5h-38.9c-.2 0-.4-.2-.4-.4s.2-.4.4-.4h38.9c.2 0 .4.2.4.4s-.2.4-.4.4zM341.7 349.8h-38.9c-.2 0-.4-.2-.4-.4s.2-.4.4-.4h38.9c.2 0 .4.2.4.4s-.2.4-.4.4zM334.7 340.2h-55c-.2 0-.4-.2-.4-.4s.2-.4.4-.4h55c.2 0 .4.2.4.4s-.2.4-.4.4z" class="colorc6e2fa svgShape"></path><path fill="#c6e0fa" d="M310.8 330.5c-.2 0-.4-.2-.4-.4v-8.2c0-.2.2-.4.4-.4s.4.2.4.4v8.2c0 .2-.1.4-.4.4zM324.5 340.2c-.2 0-.4-.2-.4-.4v-9.6c0-.2.2-.4.4-.4s.4.2.4.4v9.6c0 .2-.2.4-.4.4zM314.1 349.5c-.2 0-.4-.2-.4-.4v-9.3c0-.2.2-.4.4-.4s.4.2.4.4v9.3c0 .2-.2.4-.4.4zM221.6 170.4h-38.9c-.2 0-.4-.2-.4-.4s.2-.4.4-.4h38.9c.2 0 .4.2.4.4s-.2.4-.4.4zM221.6 189.6h-38.9c-.2 0-.4-.2-.4-.4s.2-.4.4-.4h38.9c.2 0 .4.2.4.4s-.2.4-.4.4zM214.6 180h-55c-.2 0-.4-.2-.4-.4s.2-.4.4-.4h55c.2 0 .4.2.4.4s-.2.4-.4.4z" class="colorc6e2fa svgShape"></path><path fill="#c6e0fa" d="M190.7 170.4c-.2 0-.4-.2-.4-.4v-8.2c0-.2.2-.4.4-.4s.4.2.4.4v8.2c0 .2-.2.4-.4.4zM204.4 180c-.2 0-.4-.2-.4-.4V170c0-.2.2-.4.4-.4s.4.2.4.4v9.6c0 .2-.2.4-.4.4zM194 189.3c-.2 0-.4-.2-.4-.4v-9.3c0-.2.2-.4.4-.4s.4.2.4.4v9.3c0 .3-.2.4-.4.4z" class="colorc6e2fa svgShape"></path></g></svg>