<svg xmlns="http://www.w3.org/2000/svg" enable-background="new 0 0 370 370" viewBox="43.803 52.474 282.394 265.052" id="AddNotes"><g fill="#021b79" class="color000000 svgShape"><path fill="#dfe2e5" d="M161.1102295,257.6939392c-29.5317383-0.0670776-60.1679306-0.0766907-60.5523453,0.1827087     c-0.7395172,0.4899597-0.3264847-59.0533905-0.3264847-59.0533905l49.8309326-0.7493591     c0.1151581,1.0181427,0.2401733,2.0269165,0.3745728,3.0453033     C153.3766479,224.0987549,158.6604309,247.4723358,161.1102295,257.6939392z" class="colore5dfdf svgShape"></path><path fill="#dfe2e5" d="M150.4369049 201.1192017h-47.7749405c-.6820526 0-1.5946579-.1920929-2.1040802.3651733-.5762711.6147461-.3361053 1.642746-.2687912 2.4017181.4889755 5.5469666-.5788498-6.6630249 1.3064041 15.2363586.0480804.614975.3267212 1.5372009-.2209396 2.0175476-.7108994.6147308-2.0653839.2401581-2.9109039.2401581-11.067131.0192413-22.1340332.0286255-33.2011566.0478516-2.104084 0-5.1974678.6053619-7.2051544.0384674-1.0664635-.307251-1.2777863-.8549042-1.3835678-1.969223-.2209396-2.2961731.6724358-4.6401825 1.1241646-6.859436 2.3415947-11.3199768 7.683445-22.36586 15.6397743-31.5201874 13.1067963-15.1062164 35.3100204-22.7407837 55.2012634-25.4774323-.8551483 1.9119873-1.3547211 4.0829163-.3844147 6.0716095 1.4459991 3.0014954 11.199585 8.3099976 18.0321045 3.7754364 1.5948944-1.0469971 2.6418915-2.5361176 3.4393311-4.2365417.4322662-.9029999.3649445-1.9502258.307251-2.9397583-.0863037-1.5850525-.6914368-2.7570496.8262939-3.506424 1.4025726-.7012787 3.9292908-.5380402 5.4758606-.6339569 4.9380646-.2882538 10.1833801.0670776 15.1022034.6243439 5.6487274.6435852 10.7596436 2.4209442 16.1105042 4.2173157 4.7553558 1.6045074 9.4917145 3.2664795 14.1511383 5.1493835l-53.1070251 1.0376129C147.8623199 175.4496765 148.7749329 188.2268524 150.4369049 201.1192017zM305.0534973 198.3481445c0 9.8500977-6.1401367 18.2700195-14.7900391 21.6201172-.3158569-.849762-1.6114197-.4418488-1.3601074.4499512 0 .0100098.0100098.0300293.0100098.0400391-2.2199707.7099609-4.5898438 1.0900879-7.0500488 1.0900879-12.8098145 0-23.1999512-10.380127-23.1999512-23.2001953 0-5.4496002 1.9484253-10.5550232 4.8999023-14.25 5.2865295 8.4065704 5.6273804 10.8977203 7.6501465 12.8300781 1.119873 1.0800781 2.7800293 1.7399902 4.2700195 1.2800293 1.5500488-.5 2.5200195-2.1298828 2.7099609-3.7600098.4511719-4.0617523-4.2928772-13.4393311-6.3898926-16.9899902 2.7488098-1.3759308 6.4040222-2.3000488 10.0598145-2.3000488C294.6633606 175.1582031 305.0534973 185.5483398 305.0534973 198.3481445z" class="colore5dfdf svgShape"></path><path fill="#dfe2e5" d="M290.2634583,219.9682617c-0.4399414,0.1899414-0.8901367,0.3400879-1.3500977,0.4899902     c0-0.0100098-0.0100098-0.0300293-0.0100098-0.0400391C288.6522522,219.5271149,289.9479675,219.1194916,290.2634583,219.9682617     z" class="colore5dfdf svgShape"></path><path fill="#0575e6" d="M178.7424164,218.2992706c-0.072998,0.0867767-0.0341339,0.2334595-0.0277252,0.335083     c0.9635315,15.3049469,14.3796539,26.3488159,29.0227203,25.1033478     c15.7521973-1.3398132,26.769165-15.7101288,24.3117065-31.0308228     c-2.1769867-13.5720215-14.1919403-23.2008514-27.7702789-22.5370331     c-0.9459534,0.0462341-0.6537628,0.3713074-0.5931396,0.7501068c0.1389771,0.8683777,0.2552948,1.5951843,0.394165,2.4628143     c0.4682007,2.925415,3.3571625,20.976181,3.8452301,24.0256805c0.1554718,0.9692383,0.2436981,0.8326416-0.4500732,0.8321991     c-1.6227722-0.0010223-26.652832-0.0168152-28.2621918-0.0178223     C179.0776062,218.2227325,178.863739,218.1786652,178.7424164,218.2992706z" class="color0200f6 svgShape"></path><path fill="#3999fa" d="M164.717041,208.6078949l32.2609406,1.015625c0.7365723,0.0231934,1.3026733-0.645813,1.1578979-1.3683929     l-6.7904968-33.8916321c-0.2809143,0.0097504-0.5907288,0.0594482-0.8652954,0.1034851     c-16.2597046,2.6080933-27.6530914,17.0089874-26.8745422,33.0647888     C163.6341858,208.1226501,164.1257629,208.5892792,164.717041,208.6078949z" class="colorfaec39 svgShape"></path><path fill="#0575e6" d="M236.480484 250.3075409l4.7686157-.486145c.9434052-.0961761 1.6302185-.9389343 1.5340424-1.8823242l-.486145-4.7685394c-.0961761-.9433441-.9388733-1.630127-1.8822174-1.5339508l-4.7687378.4861603c-.9433441.0961609-1.6301117.9388733-1.5339508 1.8822174l.486145 4.7686005C234.6944122 249.7169342 235.5371246 250.403717 236.480484 250.3075409zM237.9152527 264.3814697l4.7686462-.486145c.9434052-.0961914 1.6302185-.9389343 1.5340424-1.8823242l-.486145-4.7685242c-.0961761-.9434204-.9389191-1.6302185-1.8823242-1.5340424l-4.7686157.4861603c-.9433594.0961609-1.6301422.9388733-1.5339661 1.8822327l.486145 4.7686768C236.1292114 263.790863 236.9719086 264.4776306 237.9152527 264.3814697zM239.3500519 278.4553833l4.7686462-.486145c.9433899-.0961609 1.6302032-.9389038 1.5340271-1.8823242l-.4861298-4.7685242c-.0961761-.9433899-.9389191-1.6302185-1.8823242-1.5340271l-4.7686157.486145c-.9433594.0961609-1.6301422.9388733-1.5339813 1.8822327l.4861603 4.7687073C237.5640106 277.8648071 238.4067078 278.5515747 239.3500519 278.4553833z" class="color0200f6 svgShape"></path><g fill="#021b79" class="color000000 svgShape"><path d="M125.5901108 257.1557617c-.2346191-.0053711-11.2529297-.263916-24.6376953-.4831543v-22.0375977c7.8655167-12.835495 8.2021332-12.559082 7.8681641-13.2419434-.109375-.2226563-.3251953-.3740234-.5722656-.4003906-7.6904297-.8027344-8.2392578-.3105469-8.4726563-.1005859-.3424759.3096619-.2684021.8616638-.2646484 1.3283691v34.2819824c-23.3055267-.1421204-33.432457-.2037048-40.2775917-.0187988 3.3815346-37.0482025 3.2130814-34.6005096 3.1767578-34.9147949h-.2365723c-.5499725.0690765-.7463875.090744-1.190918.0991211l-3.2587891 35.4897461c-.0351257.3995972.2095222.8051453.8461914.7861328 16.4474983.122406 23.4802742-.3682251 67.0024414.6533203.390625 0 .7109375-.3115234.7207031-.703125C126.3020248 257.4956055 125.9875717 257.1655273 125.5901108 257.1557617zM313.2234192 282.878418c-5.6000977-7.920166-13.3400879-29.1201172-22.9599609-62.9101563l-1.3500977.4899902c9.25 32.4799805 16.7800293 53.3701172 22.3999023 62.1599121l-110.2299957 3.4001465-4.1499023-26.0900879c-.0600586-.369873-.3999023-.6398926-.7800293-.5998535l-33.1799316 2.9299316c-4.6970673-18.7882843-9.3638-42.0042572-11.8200684-61.2299805-.0100098-.1000977-.0300293-.1999512-.0400391-.3000488-.119873-.9099121-.2299805-1.8200684-.3398438-2.7399902-1.0637512-9.0819244-2.24646-26.1083679-1.5-32.0800781l7.2600098-.1398926c.7207336 2.49617 2.8198395 8.9557037 4.579834 10.880127.8400879.9099121 1.920166 1.4299316 2.9802246 1.4299316 2.4611053 0 4.0140076-2.7493134 3.5898438-5.1101074-.3798828-2.1398926-1.8898926-3.8100586-3.1098633-5.1599121-.6519318-.7002563-1.693924.2500458-1.0700684.9699707 1.0998535 1.2099609 2.4599609 2.7099609 2.7600098 4.4399414.1599121.8798828-.1000977 1.8999023-.6501465 2.6101074-.9694061 1.2211914-2.4345093.9476013-3.4399414-.1601563-1.4911804-1.5884399-3.5337372-7.8382111-4.1499023-9.9299316l56.4299316-1.1098633c.1031494-.0008392 24.2744751-.2001953 24.3798828-.2001953.1201172 1.9702148.25 3.9301758.3701172 5.8901367.5400391 8.3598633 7.6999512 13.7700195 13.0300293 17.1098633 1.1398926.7202148 2.6499023 1.5200195 4.2400055 1.25 2.2600098-.3999023 3.5400391-2.8300781 3.4299316-4.8398438-.1544189-2.9650421-2.3582764-5.0505829-4.3098297-6.9001465-2.6772461-2.4648895-2.8054199-3.0135345-3.4802246-4.3200684-.4099121-.9799805-.4099121-1.2897949-.3398438-1.3898926.3377075-.4052429 1.6600037.5234375 2.1298828.920166 2.2372284 1.8440399 9.3008575 11.9059448 14.1201324 21.2299805.0562134.1030579.0952454.1452942.1298828.25-1.572937 1.4765472-.812561 4.6999512 1.7299805 4.6999512h2.0400391c1.5623169.9149628 3.3699951 1.0834198 4.8601074 0h2.8398438v7.9599609c0 1.3999023 1.1401367 2.5300293 2.5400391 2.5300293h1.2099609c1.4001465 0 2.5400391-1.130127 2.5400391-2.5300293v-7.9599609h8.9899902c1.4001465 0 2.5400391-1.130127 2.5400391-2.5200195v-.3300781c0-1.3999023-1.1398926-2.5300293-2.5400391-2.5300293h-8.9899902v-9c0-1.3999023-1.1398926-2.5300293-2.5400391-2.5300293h-1.2099609c-1.3999023 0-2.5400391 1.130127-2.5400391 2.5300293v9h-.7099609c-.0100098-.0300293 0-.0498047-.0100098-.0698242-.4104919-4.5955353-5.5744324-14.5777893-8.2700195-18.6201172 2.9893494-.2962494 4.2913818-3.3585815 3.6201172-6.3000488-.25-1.119873-.7199707-2.1398926-1.2600098-3.119873.4399414-.0600586.8598633-.2202148 1.2600098-.4399414.5 2.0998535 1.4699707 6.0898438 2.7600098 11.2797852.4599609-.1098633.9299316-.1899414 1.4099121-.2600098 0-.1006012-1.4914856-5.929184-2.9399414-12.0700684.0700684-.0998535.1599121-.1799316.2199707-.2797852.75-1.1899414.9199219-2.75.4899902-4.380127-1.4009705-5.4851532-6.9926453-13.1964417-18.0998535-16.2199707-5.1301422-1.3999023-10.5000153-1.2800293-15.5500641-1.0300293-3.75.1799316-8.5600586.6201172-12.5200195 2.4602051-10.6455231 4.9294281-12.4012451 9.6482697-18.9699707 19.3198242-1.3284149.0254059-1.4358215-.0296326-1.6601563.0700684l-43.4299316.8498535c-.6501465-2.8898926-2.130127-5.4299316-4.4199219-7.5598145-3.1044617-2.8921661-6.002182-1.5292206-6.4499512 1.3000488-.1501465.9697266.0097656 1.9099121.1999512 2.8498535.2399902 1.2099609.5197754 2.4099121.829834 3.6000977l-7.5400391.1499023c-.3022614 0-.6699219.3780365-.6699219.4799805-1.5500488 4.3500977-1.7600098 16.1901855-.6298828 36.1999512 2.3598633 41.3901367 9.829834 103.0700684 9.8999023 103.6899414.0500488.3601074.3500977.630127.7199707.630127h143.8601227c.503479 0 .8451538-.4960632.6799316-.9499512l-1.7399902-5.1298828c2.1419678 0 2.5300598 0 4.3798828 0 .5239563 0 .8266602-.5739441.6801758-.9401855l-1.9799805-6 4.829834-.0598145c.4839172-.0225525.8076172-.451416.6801758-.920166-1.1201172-4-1.880127-6.130127-2.420166-7.2800293l5.7900391-.1799316C313.2348022 283.9963074 313.5626831 283.3446045 313.2234192 282.878418zM230.633316 145.208252c3.7299805-1.7399902 8.3601074-2.1599121 11.9799805-2.329834 4.9401855-.2402344 10.170166-.3601074 15.1001129.9799805 10.1525574 2.7660828 15.7102356 9.8052826 17.0900879 15.1899414.7557678 2.9065399-1.0193176 4.7476959-2.6901855 4.3300781-1.4799805-1.5102539-3.1398926-2.8500977-4.9199219-3.9902344-.8016052-.5184631-1.5828857.6992798-.7800293 1.2099609 1.6801758 1.0800781 3.25 2.3500977 4.6601563 3.7700195.7199707 1.25 1.4699707 2.5302734 1.7700195 3.9001465.329834 1.4199219.0898438 2.7900391-.6401367 3.6699219-.6401367.7700195-1.7900391 1.1000977-2.6298828.7900391-1.8000488-2.5600586-3.7700195-5-5.920166-7.2800293-.6883545-.6883545-1.6975708.3287811-1.0500488 1 6.5194397 6.8770752 11.3204041 15.080246 14.1000977 23.4399414.3200684.9401855.6699219 2.0400391.7700195 3.1201172.305481 3.1130371-1.506897 4.7833862-3.2399902 4.6098633-2.4941101-.2001343-3.8006592-2.7016754-4.920166-4.8999023-4.7324829-9.1684265-12.0981445-19.7121887-14.4897614-21.6899414-1.291626-1.0657806-3.1524048-2.0087433-4.170166-.6999512-.6999512.8798828-.1799316 2.119873.1401367 2.8598633.0547333.1058502.3844452 1.1417084 1.5898438 2.5600586 2.1775513 2.5873413 5.9073944 4.7592621 6.0800934 8.1599121.0800781 1.4101563-.8100586 3.0900879-2.2399902 3.3500977-1.0901031.1899414-2.2400055-.4199219-3.2299957-1.0400391-5.0600586-3.1799316-11.8500977-8.2900391-12.3500977-15.9899902-.2700195-4.3000488-.5498047-8.5998535-.8300781-12.8999023-.0197754-.3901367-.3598633-.6901855-.7597656-.670166-.4001465.0300293-.7001953.3701172-.670166.7700195.1101074 1.7600098.2199707 3.5200195.3400879 5.2900391-5.3248901.1005859 13.5706329-.2563324-25.9399414.4899902C218.9597321 153.9466553 220.8562927 149.7437134 230.633316 145.208252zM156.5234528 158.0981445c.2521057-1.767746 1.8741913-2.48172 4.0397949-.4697266 2 1.8598633 3.3100586 4.0598145 3.9301758 6.5397949l-6.880127.130127C157.2563477 162.964386 156.3037872 159.4518738 156.5234528 158.0981445zM195.6132965 260.8283691l3.9001465 24.4799805-34.880127-21.75L195.6132965 260.8283691zM307.6533508 290.9682617c-154.0037994 2.052887-135.836319 1.8106995-137.2900543 1.8300781l-6.8398438-28.2299805 36.5598145 22.7998047c.1567383.07901.312088.1101074.3901367.1101074 0 0 .0100098 0 .0200195 0 1.8421631-.0567627-16.0441742.4944458 104.8100739-3.2299805C305.7834778 285.0283203 306.8132629 288.0783691 307.6533508 290.9682617z" fill="#021b79" class="color000000 svgShape"></path><path d="M194.8000641 176.206543c-15.4701691 1.4701233-29.1771545 15.934494-28.4716797 33.6416016.0449219 1.1152344.9667969 2.0166016 2.0986328 2.0517578l31.6005859.9951172c1.373642.0572357 2.473587-1.2119751 2.1943359-2.59375l-6.7158203-33.515625C195.438736 176.4477539 195.1428375 176.206543 194.8000641 176.206543zM200.072525 211.4555664l-31.6005859-.9951172c-.3798828-.0126953-.6894531-.3066406-.7041016-.6699219-.6221008-15.6205444 10.5024567-29.5573273 26.4550781-32.0761719l6.5869141 32.8701172C200.8984528 211.0255585 200.5689545 211.4598389 200.072525 211.4555664zM273.0198059 242.5483398c-.9493713-.9309845-3.8695068-5.0291138-7.0800781-3.3427734-2.3093872 1.2138214-2.2211609 4.7723694-3.9726563 5.4179688-1.0673828.3847656-2.2548828-.5273438-2.5927734-.8183594-.8613586-.7368927-1.6320801-1.7825928-2.7236328-2.5029297-1.7881012-1.1845703-4.2314606-1.2509766-6.0839996-.1689453-1.8496094 1.0830078-2.9892578 3.2470703-2.8349609 5.3847656.0689697.9580841 1.5057678.8522491 1.4375-.1035156-.2575836-3.5541992 3.7155762-5.8780518 6.6865234-3.9111328.892746.5908966 1.6616058 1.6069336 2.5800934 2.3955078 1.3291016 1.1386719 2.7988281 1.5292969 4.0292969 1.0761719 2.553772-.9394836 2.4052429-4.580246 4.1445313-5.4941406 2.0907288-1.0915985 4.2744751 1.987854 5.4003906 3.0966797 3.8212585 3.7451477 7.3259583.8267975 6.7207031-1.5644531-.2358093-.9290009-1.6296082-.5672607-1.3964844.3535156C277.5786743 243.3311462 275.8050537 245.2807922 273.0198059 242.5483398zM279.997345 256.7436523c-1.8281555.9691772-4.478363-3.0015717-7.3554688-1.9169922-.8916016.3349609-2.0273438 1.2822266-2.3701172 3.8847656-.1763306 1.4397278-.2776184 2.6134033-.9921875 3.3447266-.8876953.9072266-2.5126953.7373047-3.5722656.0458984-2.5338135-1.6553345-3.1180115-5.5053711-5.8486328-7.5898438-1.8720703-1.4277344-4.5556793-1.6972656-6.6728668-.6699219-2.1191406 1.0273438-3.5683594 3.2998047-3.6074219 5.6533203-.0141144.9580688 1.4247437.9831848 1.4414063.0234375.0649261-4.0405273 4.7516327-6.3140717 7.964859-3.8603516 2.4147644 1.84021 3.0118713 5.7407837 5.9355469 7.6503906 1.6206055 1.0582886 3.993042 1.1852112 5.390625-.2460938 1.0712585-1.0962219 1.2042236-2.6454163 1.390625-4.1640625.1367188-1.0458984.5-2.3671875 1.4482422-2.7246094 2.0520935-.7606812 4.706543 3.3265381 7.5214844 1.8427734C281.513092 257.5704041 280.84021 256.297699 279.997345 256.7436523zM276.1321106 270.3637695c-6.1548767-2.4005127-5.5276489 4.1807251-8.1738281 5.1708984-1.0205078.3837891-2.2460938-.2685547-3.0488281-1.0058594-1.0282593-.9423523-1.7731934-2.1090393-2.9824219-3.0097656-4.1882935-3.119873-10.2221832-.3696899-10.6025543 4.8486328-.0682983.9587097 1.3686066 1.0602417 1.4375.1054688.1337891-1.8398438 1.3505859-3.5908203 3.0283203-4.3574219 1.6797028-.7666016 3.7968903-.5419922 5.2754059.5595703 1.0231018.7618713 1.8220825 1.9526367 2.8691406 2.9160156 1.4482422 1.3261719 3.1386719 1.8085938 4.5273438 1.2929688 2.6889954-1.0046997 2.8386841-5.0222778 4.8476563-5.5712891 1.5116882-.418396 3.3121338 1.3289185 5.40625 1.0097656 1.3590393-.2078552 2.5239258-1.5196838 2.1523438-2.8583984-.2556152-.9192505-1.6433411-.5334167-1.3886719.3847656.0419922.1513672.0068359.3144531-.1035156.484375C278.7004395 271.3867493 277.2118835 270.7850037 276.1321106 270.3637695zM158.2365875 116.7876053c-.6748352.670166.3478546 1.6892624 1.0175781 1.0195313 2.3766022-2.3669968 3.5325317-3.5000916 3.7539063-4.9257813.1904297-1.2285156-.3837891-2.5810547-1.5351563-3.6171875-.9051819-.813797-1.941452-1.314064-2.8867188-1.9472656-2.1640625-1.4550781-3.8193359-3.7880859-4.5400391-6.4023438-.2523193-.9220352-1.642868-.5336914-1.3886719.3828125.8105469 2.9414063 2.6787109 5.5712891 5.125 7.2148438 1.4887085 1.0029602 4.1094513 2.1562881 3.8017578 4.1484375-.1083984.6953125-.6503906 1.3222656-1.2451172 1.9570313C159.6496735 115.3520584 158.9494781 116.0756912 158.2365875 116.7876053zM144.9485016 94.6616287c.9402618.1856689 1.2202759-1.221138.2910156-1.4121094-4.8505859-.9941406-10.1308594 1.2001953-12.8408203 5.3466797-.5270996.8083878.6895142 1.5762787 1.2070313.7890625C135.9983063 95.721199 140.6623688 93.7729568 144.9485016 94.6616287zM165.7238922 91.9760818c-4.0605469-2.8369141-9.7783203-2.9082031-13.9091797-.1708984-.7900848.5243988-.0063934 1.7249374.796875 1.2011719 3.5888672-2.3798828 8.7558594-2.3164063 12.2861328.1513672C165.68013 93.7035828 166.5042572 92.5227966 165.7238922 91.9760818zM141.6640778 101.1064529c-2.8934021.0389481-1.8263855 5.2562943-.2268066 6.9064941.6950684.7165527 2.0998535 1.1643066 3.0136719.5932617C146.5401917 107.3006897 144.122818 101.0732346 141.6640778 101.1064529zM165.4707184 102.523201c-.3697815-1.6292877-1.7602997-4.2852173-3.4118652-4.2634277-2.8934021.0392685-1.8264465 5.2568283-.2265625 6.9067383C163.2020111 106.5790634 166.4097137 106.6628876 165.4707184 102.523201zM149.4084625 120.7465897c-.8378906 1.5029297-1.0576172 3.2607422-.6005859 4.8222656 1.1251068 3.8545761 5.6576233 5.0491409 8.1904297 2.5888596.6840363-.6652756-.3227997-1.6979141-1.0039063-1.0331955-1.7779083 1.7224808-4.9866943.838707-5.8037109-1.9599609-.34375-1.1757813-.1660156-2.5654297.4755859-3.7167969C151.1290131 120.6199646 149.8769073 119.9109192 149.4084625 120.7465897zM117.7287827 117.8735428c-.5460358-.7827301-1.7263947.0458374-1.1796875.8261719 1.0289459 1.4697647 2.8323898 2.3056641 4.0322266 2.3056641.9087906 0 .9748001-1.353363.0654297-1.4384766C119.4875717 119.4604568 118.3967514 118.8266678 117.7287827 117.8735428z" fill="#021b79" class="color000000 svgShape"></path><path d="M150.3625641,156.940918c0.0411987,0.9596252,1.4814148,0.8861542,1.4394531-0.0625l-0.5168457-12.0307617     c4.4139404,0.1947784,10.936676-0.583374,14.3498535-3.3989258c7.6762543-6.3394623,8.8542175-20.3643646,8.9279785-30.3786545     c1.1268463-3.2070236,1.5380554-10.7523499,1.0319824-16.1933594     c-0.9223633-9.8085938-4.2177734-21.9611816-13.4882813-27.0432129     c-8.5102997-4.6445999-21.1136169-4.7189293-31.1357422,1.7966309     c-6.638176,4.3039551-12.7387619,11.5664063-16.7160568,18.348877     C100.273407,79.6508331,92.7457275,92.9938431,98.26931,99.9204178     c-6.3457718-2.6438599-13.6334534,0.9962997-15.3134766,7.6950684     c-1.355217,5.4915161,2.0097961,10.4696121,5.5913086,11.2399902c-3.1220703,1.7773438-5.5432129,4.9379883-5.9755859,8.5117188     c-1.115242,9.1933212,10.304245,13.1757584,13.9299316,6.1772385c0.2978516,4.322998,4.7268066,7.6184082,9.0498047,7.5126953     c4.3327637-0.1152344,8.2329102-3.0166016,10.4904785-6.715332c1.995285,4.7891388,7.9756546,6.5617523,11.3928223,4.9064941     c0.3686523,5.9460449,0.1340332,11.154541-1.0095215,17.5344238c-0.1671295,0.9308167,1.2468033,1.2086945,1.4179688,0.2539063     c1.9453049-10.8486328,1.2167892-18.5732422-0.0244141-28.3027344c-0.0409927-0.3162231-0.3333206-0.6126404-0.7102051-0.6171875     c-0.4251404-0.0031891-4.163208,1.4159698-8.2888184-0.2353439c-5.6322403-2.283989-8.4156189-8.3017502-6.8613281-12.8164063     c0.8720703-2.5351563,3.1796875-4.3984375,5.6152344-4.5302734c3.4160919-0.1756973,6.0157776,2.399704,8.1015625,5.0927734     c0.2515259,0.3258362,0.9223099,0.7352524,1.2802734,0.4902344c0.3286667-0.2264175,0.2416458-0.6784363,0.1247559-1.0473633     c-1.1506653-3.6838684-1.8058472-5.89505-1.1335449-12.2006836c0.125-1.1142578,2.8149338-13.2670898,3.6315842-12.9211426     c7.393219,3.1569824,16.0389709-0.3727417,19.1560059-7.1955566c4.3999023,2.987793,9.3378906,4.6784668,14.6503906,4.9282227     c5.3493652,6.4077148,8.4238281,13.940918,9.7353516,22.0153809c0.0250244,9.8148346-0.8738403,24.4208603-8.4018555,30.6408615     c-4.8908386,4.0318298-19.3768463,5.1243744-30.0263672-2.7646484c-0.7677917-0.5670929-1.6228333,0.5911407-0.8574219,1.1582031     c4.6046295,3.4102936,10.2169647,5.4984894,16.0046387,6.0183105L150.3625641,156.940918z M142.3071442,75.0195389     c-2.1417999,3.19561-6.1181183,4.8803177-9.7800293,4.2941895c-0.3937988-0.057373-0.6625977-0.432373-0.6049805-0.826416     c0.0668945-0.3840332,0.4321289-0.6530762,0.8259277-0.595459c3.1416016,0.4899902,6.5905762-1.0280762,8.3581543-3.6791992     C141.6321716,73.4344711,142.8350983,74.2156601,142.3071442,75.0195389z M163.5671539,80.3320389     c-0.8636932,0-5.2066193-2.0303574-7.1762695-6.3693848c-0.1633301-0.3554688,0-0.7875977,0.3649902-0.9509277     c0.3554688-0.1635742,0.7875977,0,0.9509277,0.3554688c1.1625977,2.5649414,3.439209,4.6496582,6.1003418,5.5717773     C164.5709229,79.1937332,164.3791962,80.3320389,163.5671539,80.3320389z" fill="#021b79" class="color000000 svgShape"></path></g></g></svg>