<svg xmlns="http://www.w3.org/2000/svg" data-name="Layer 1" viewBox="0 0 848.94 901.92" id="AddAppstoLocker"><defs><clipPath id="a" transform="translate(-287.76 -299)"><circle cx="635.27" cy="946.66" r="66.19" fill="none" stroke="#fcfdff" stroke-miterlimit="10" class="colorStrokefcfdff svgStroke"></circle></clipPath><clipPath id="b" transform="translate(-287.76 -299)"><path fill="none" stroke="#fcfdff" stroke-miterlimit="10" d="M564.18 875.57h142.18v142.18H564.18z" transform="rotate(-6.34 635.088 946.444)" class="colorStrokefcfdff svgStroke"></path></clipPath><radialGradient id="c" cx="563.1" cy="1156.56" r=".14" gradientTransform="scale(800 -800) rotate(5.324 12730.765 -5467.623)" gradientUnits="userSpaceOnUse"><stop offset="0" stop-color="#4889cb" class="stopColor488ecb svgShape"></stop><stop offset=".61" stop-color="#577da3" class="stopColor7e57a3 svgShape"></stop><stop offset=".93" stop-color="#5475ef" class="stopColoref5480 svgShape"></stop><stop offset="1" stop-color="#6381f2" class="stopColorf27063 svgShape"></stop></radialGradient><linearGradient id="d" x1="805.09" x2="805.09" y1="988.46" y2="856.08" gradientTransform="rotate(1.49 12128.994 -10369.439)" gradientUnits="userSpaceOnUse"><stop offset="0" stop-color="#485fb6" class="stopColor4eb648 svgShape"></stop><stop offset="1" stop-color="#6c99c6" class="stopColor85c66c svgShape"></stop></linearGradient></defs><path fill="#021b79" d="M391.62 1062.39c-2-6.47-.56-13.65 2.8-19.51s8.52-10.52 14.13-14.29c10.85-7.3 25.62-10.17 38.68-10.84C447 1032.27 436 1045 430 1051.07c-9.5 9.63-32.53 21.27-38.35 11.32M455.32 994.17c-4.45 6.09-12.57 9-20.05 7.94s-14.19-5.66-18.63-11.77c-2.05-2.82-3.72-6.34-2.83-9.72.84-3.15 3.82-5.42 7-6.14a18.68 18.68 0 0 1 9.64.85c10.67 3.37 20.38 8.59 24.87 18.84" transform="translate(-287.76 -299)" class="color20376e svgShape"></path><path fill="#262a38" d="M494.76 979.05a15.2 15.2 0 0 1-2.29 1.43l-6.35 3.66c-5.37 3-13 7.4-22.38 9.26s-18.25 1-24.11-1.21A31.74 31.74 0 0 1 433 989c-.74-.45-1.26-.9-1.63-1.16s-.54-.44-.52-.47c.11-.2 3.14 2.3 9 4.2s14.5 2.78 23.71.91 16.78-6.08 22.24-8.91c2.73-1.46 4.95-2.64 6.5-3.41a13.61 13.61 0 0 1 2.46-1.11Z" transform="translate(-287.76 -299)" class="color263238 svgShape"></path><path fill="#262a38" d="M408.37 1052a5 5 0 0 1 .8-.86l2.42-2.32c2.12-2 5.22-4.86 9.07-8.36 7.71-7 18.5-16.52 30.65-26.77s23.37-19.29 31.57-25.69c4.11-3.21 7.45-5.78 9.78-7.52l2.69-2a5.79 5.79 0 0 1 1-.64 4.92 4.92 0 0 1-.86.8l-2.59 2.13-9.58 7.76c-8.09 6.54-19.23 15.65-31.38 25.88s-23 19.68-30.81 26.55l-9.27 8.13-2.54 2.19a6.49 6.49 0 0 1-.95.72Z" transform="translate(-287.76 -299)" class="color263238 svgShape"></path><path fill="#021b79" d="M473.61 1003.46a50.26 50.26 0 0 0-10.26 44.75c1 3.92 3.26 8.29 7.27 8.82s7.32-3.15 9.24-6.72c8-14.87 5.83-34.61-5.27-47.34" transform="translate(-287.76 -299)" class="color20376e svgShape"></path><path fill="#262a38" d="M471.59 1038.87a12.32 12.32 0 0 1-.74-2.42 25.47 25.47 0 0 1-.63-2.91c-.17-1.14-.48-2.43-.57-3.9a43.31 43.31 0 0 1-.28-4.77 47.22 47.22 0 0 1 .18-5.49 56.39 56.39 0 0 1 2.55-12.32 55.2 55.2 0 0 1 5.47-11.33 46.82 46.82 0 0 1 3.24-4.44 38.51 38.51 0 0 1 3.19-3.57 35.7 35.7 0 0 1 2.88-2.69 23.8 23.8 0 0 1 2.32-1.86 13.79 13.79 0 0 1 2.1-1.42c.13.17-2.86 2.22-6.82 6.43a41.77 41.77 0 0 0-3.05 3.6 48.8 48.8 0 0 0-3.12 4.42 56.7 56.7 0 0 0-5.31 11.17 58 58 0 0 0-2.58 12.09 51.53 51.53 0 0 0-.27 5.41 46.55 46.55 0 0 0 .17 4.71c.48 5.77 1.47 9.25 1.27 9.29Z" transform="translate(-287.76 -299)" class="color263238 svgShape"></path><path fill="#1042fd" d="M514.11 941.06c26.8-36.92 19-85.53 3.33-126.25-2.61-6.79-4.36-14.31-9.72-19.21s-14.41-6.39-19.57-1.36c-4.28 4.17-4.45 10.88-5.61 16.78a42.61 42.61 0 0 1-10.8 21c-3.6 3.78-8.53 7-13.68 6.16-7.07-1.23-10.6-9.18-12.92-16l-13-38.33c-2.32-6.85-4.71-13.84-9.08-19.6s-11.16-10.16-18.3-9.74-13.89 7-12.95 14.14c.39 3 2 5.68 2.75 8.58s.56 6.51-1.87 8.23-5.86.75-8.59-.54c-9.45-4.47-17.32-11.71-24.86-19s-15-14.86-24-20.18-19.94-8.22-29.93-5.39-18.33 12.49-17.48 23 9.86 18.34 18.68 24a161.51 161.51 0 0 0 42.27 19.32c2.68.78 5.59 1.63 7.29 3.88 3.07 4 .31 10.07-3.67 13.12-4.52 3.46-10.23 4.85-15.35 7.32s-10.08 6.82-10.35 12.56c-.39 8 8 13.27 15.4 16.08a138.46 138.46 0 0 0 46.44 9c5.67.1 11.53-.11 16.81 2s9.85 7.43 9.06 13.1-6.54 9.39-12.15 10.23-11.32-.38-17-.54c-10.63-.3-22.55 4.54-25.76 14.75-2.11 6.71.11 14.27 4.32 19.94S374 937.77 380 941.34c21.18 12.47 45.39 20 69.81 20s45.33-4.91 64.27-20.33" transform="translate(-287.76 -299)" class="colorfdbe10 svgShape"></path><path fill="#262a38" d="M515.81 953.46c-7.13-15.81-8-15.89-21.27-34.55s-29.48-38-47.15-57.58q-6.64-7.33-13.13-14.46c-4.32-4.74-8.61-9.44-13.08-13.77A323.85 323.85 0 0 0 394 809.67c-9-7-17.78-13.39-26-19.27s-16.1-11.17-23.44-15.72a257.44 257.44 0 0 0-36.17-18.84 243.5 243.5 0 0 0-10.28-4.11l-2.71-1a6.25 6.25 0 0 0-.93-.29 4.73 4.73 0 0 0 .88.42L298 752c2.34 1 5.79 2.39 10.18 4.34a272 272 0 0 1 35.88 19.17c7.28 4.58 15.05 9.93 23.29 15.82s17 12.29 25.94 19.33a327.93 327.93 0 0 1 27 23.4c4.45 4.32 8.69 9 13 13.73l13.12 14.46c17.65 19.57 33.87 38.79 47.14 57.39s14.19 18.53 21.41 34.23" transform="translate(-287.76 -299)" class="color263238 svgShape"></path><path fill="#262a38" d="M420.8 833.18a14.87 14.87 0 0 0-.34-3.15c-.29-2-.82-4.92-1.51-8.49-1.39-7.15-3.64-16.95-6.17-27.75s-4.63-20.6-5.91-27.75c-.64-3.57-1.14-6.47-1.46-8.47a14.3 14.3 0 0 0-.64-3.11 14.65 14.65 0 0 0 .13 3.17c.16 2 .51 5 1.05 8.56 1 7.21 3 17.09 5.54 27.9 2.51 10.65 4.79 20.28 6.53 27.64.77 3.33 1.41 6.14 1.93 8.39a14.81 14.81 0 0 0 .85 3.06ZM327.17 847.14a18.92 18.92 0 0 0 3.65-.79c2.33-.58 5.69-1.43 9.88-2.36 8.35-1.91 20-4.16 32.93-6.07s24.75-3.1 33.3-3.73c4.28-.34 7.75-.53 10.15-.67a20.08 20.08 0 0 0 3.72-.34 18.4 18.4 0 0 0-3.74-.18c-2.41 0-5.89 0-10.19.24-8.6.39-20.45 1.46-33.44 3.35a328.37 328.37 0 0 0-33 6.48c-4.17 1-7.51 2-9.79 2.78a19.83 19.83 0 0 0-3.47 1.29ZM492.9 917.66a5.14 5.14 0 0 0 .23-1.28c.11-1 .24-2.22.4-3.7.34-3.22.71-7.88 1.08-13.65.76-11.55 1.31-27.52 1.68-45.16s.76-33.61 1.28-45.15c.27-5.61.49-10.23.65-13.67.07-1.48.12-2.71.16-3.72a4.5 4.5 0 0 0 0-1.3 5.44 5.44 0 0 0-.23 1.28c-.11 1-.24 2.22-.4 3.7-.34 3.22-.7 7.88-1.08 13.65-.76 11.55-1.31 27.52-1.67 45.17s-.77 33.6-1.29 45.14c-.27 5.61-.49 10.23-.65 13.67-.06 1.48-.12 2.71-.16 3.72a4.5 4.5 0 0 0 0 1.3ZM363 920.4a4.87 4.87 0 0 0 1.32.08h3.79l13.92-.27c11.75-.23 28-.35 45.92-.47s34.19-.39 45.94-.86c5.88-.23 10.63-.47 13.91-.7l3.78-.28a4.51 4.51 0 0 0 1.31-.2 5.59 5.59 0 0 0-1.33-.08h-3.78l-13.92.27c-11.75.23-28 .35-45.93.47s-34.19.39-45.94.86c-5.87.23-10.62.47-13.91.7l-3.77.29a4.79 4.79 0 0 0-1.31.19ZM726.45 344a10.74 10.74 0 0 0 5.28-18.22 7.5 7.5 0 1 0-7-13.25 8.72 8.72 0 0 0-13.47-8.29 10.37 10.37 0 0 0-16.92 6.1 8.64 8.64 0 0 0-16.2 3.23c-3.46-1-7.58-1.89-10.37.39-2.61 2.15-2.75 6-2.68 9.41a54.88 54.88 0 0 0 1.15 11.94 27.64 27.64 0 0 0 10 15.21 16.15 16.15 0 0 0 19 3.15" transform="translate(-287.76 -299)" class="color263238 svgShape"></path><path fill="#5170e7" d="M730.8 357.83a9.54 9.54 0 1 0-12.22-14.61c-1.05 1-2 2.33-3.49 2.42s-2.51-1-3.66-1.76a9.44 9.44 0 0 0-14.64 9c-4.8-2.06-11.45-1.47-13.87 3.15-2.15 4.12.34 9.49 4.33 11.86s9 2.37 13.54 1.7a54.05 54.05 0 0 0 29.35-14.28" transform="translate(-287.76 -299)" class="colore7515b svgShape"></path><path fill="#ffffff" d="M700.94 358c-.12.26-1.7-.34-2.85-2s-1.22-3.32-.93-3.35.84 1.35 1.84 2.78 2.1 2.35 1.94 2.57ZM718 356.84c-.31 0-.11-2.38-.85-5.09s-2-4.64-1.77-4.84 2 1.59 2.82 4.57.04 5.44-.2 5.36ZM727.12 354.6c-.3-.09.31-2.4-.23-5.18s-1.87-4.72-1.62-4.92 2.13 1.62 2.68 4.73-.58 5.51-.83 5.37ZM694.12 363.9c0 .13-.75.12-1.8-.32a7.95 7.95 0 0 1-4.76-7c0-1.14.24-1.81.37-1.79.31 0 .1 2.78 1.88 5.39s4.43 3.43 4.31 3.72Z" transform="translate(-287.76 -299)" class="colorffffff svgShape"></path><path fill="#262a38" d="M791.88 465.6A15.11 15.11 0 0 0 802 448.22c8.48-5.33 10.43-18.62 3.85-26.16a12.79 12.79 0 0 0-7.58-22.47 17.29 17.29 0 0 0-19-23.23 15.82 15.82 0 0 0-24.54-15.55c-7.76-10.49-25.59-11.13-34.08-1.22-9.87-6-24.55-1.52-29.35 9-6.44-6-17.69-3.85-23.54 2.72s-7.24 16.07-6.54 24.85a14.55 14.55 0 0 0-2.15 25.24c-8.15 10.1-5.93 26.87 4.56 34.51a28.77 28.77 0 0 0 14.17 28.69" transform="translate(-287.76 -299)" class="color263238 svgShape"></path><path fill="#9dccfb" d="m687.93 414.77-3.66-10.48 65-10.38c20-1.52 41 19.08 41.62 39.11.74 22.26.77 49.46-2.35 66-6.27 33.18-31.94 36.66-31.94 36.66l-2 52.35-73.45-2.94Z" transform="translate(-287.76 -299)" class="colorfbbd9d svgShape"></path><path fill="#262a38" d="M778.78 455a4.27 4.27 0 0 1-4.25 4.19 4.08 4.08 0 0 1-4.29-4 4.26 4.26 0 0 1 4.24-4.19 4.09 4.09 0 0 1 4.3 4ZM783.4 447c-.54.55-3.71-2-8.31-2.07s-8 2.08-8.52 1.5c-.24-.26.33-1.25 1.83-2.27a11.67 11.67 0 0 1 6.84-1.89 11.28 11.28 0 0 1 6.6 2.34c1.38 1.1 1.83 2.12 1.56 2.39ZM733.36 452.55a4.28 4.28 0 0 1-4.25 4.19 4.09 4.09 0 0 1-4.3-4 4.29 4.29 0 0 1 4.25-4.2 4.11 4.11 0 0 1 4.3 4.01ZM737.14 446.4c-.54.54-3.72-1.95-8.31-2.07s-8 2.08-8.52 1.5c-.24-.26.32-1.25 1.83-2.27a11.74 11.74 0 0 1 6.84-1.9 11.28 11.28 0 0 1 6.6 2.35c1.42 1.13 1.83 2.15 1.56 2.39ZM753.85 481.1c0-.26 2.86-.67 7.51-1.12 1.18-.09 2.3-.29 2.52-1.09s-.15-2.12-.68-3.5l-3.2-9.05c-4.45-12.87-7.63-23.45-7.11-23.62s4.54 10.12 9 23l3.06 9.09c.41 1.35 1.13 2.88.48 4.63a3 3 0 0 1-2 1.66 8 8 0 0 1-2 .22c-4.68.11-7.57.05-7.58-.22Z" transform="translate(-287.76 -299)" class="color263238 svgShape"></path><path fill="#6fadec" d="M756.56 535.73s-23.6.69-45.42-13.32c0 0 10.57 23.67 45.15 21.63Z" transform="translate(-287.76 -299)" class="colorec996f svgShape"></path><path fill="#262a38" d="M735.54 422.25c-.25 1.31-4.88 1.46-10.1 3s-9.3 3.66-10.19 2.67c-.4-.48.16-1.76 1.7-3.24 1.17-1.56 3.27-3.25 7.24-3.93a17.4 17.4 0 0 1 8.22-.36c2.09.43 3.23 1.24 3.13 1.86ZM783.28 432.49c-.89 1-4-.35-7.76-.7s-7.07.16-7.73-1c-.28-.56.31-1.56 1.79-2.44a11.31 11.31 0 0 1 12.48 1.36c1.26 1.19 1.62 2.29 1.22 2.78ZM721.18 393.37c.89 2.61 1.86 5.34 3.9 7.19s5.54 2.41 7.49.45c2.85 3.47 9.14 3 11.49-.8a10.1 10.1 0 0 0 12.2 1.21l9.94 2.17c3.59.78 8.07 1.27 10.28-1.68.51-.68.89-1.54 1.66-1.9a4.71 4.71 0 0 1 2.55 0c2.85.37 5.66-1.27 7.46-3.51a25.54 25.54 0 0 0 3.7-7.73c1.45-4.18 2.6-9.57-.8-12.39a11.17 11.17 0 0 0-4.79-1.89c-3.45-.76-7-1.52-10.48-.78-4.26.91-7.74 4-10.35 7.49 1-2.19-.64-4.87-2.86-5.75s-4.78-.35-7 .63a18.37 18.37 0 0 0-7.78 6.61 15.05 15.05 0 0 0-13.4 8.31 10.88 10.88 0 0 0-8.54-1.54 3.91 3.91 0 0 0-2.59 1.61 1.76 1.76 0 0 0 .89 2.55" transform="translate(-287.76 -299)" class="color263238 svgShape"></path><path fill="#262a38" d="M753.35 395.35a11 11 0 0 0 16.84 12.84 10.16 10.16 0 0 0 11.41 6.55 15.93 15.93 0 0 0 8.16 14 12.29 12.29 0 0 0-.24 9.1 7.65 7.65 0 0 0 3.75 4.45c2.16 1 4.7.45 6.88-.49 3.07-1.32 5.92-3.62 7-6.8s-.1-7.21-3.15-8.61a26.57 26.57 0 0 0 6.68-9.54c.85-2.07 1.42-4.45.54-6.51s-3.78-3.29-5.47-1.82a9.81 9.81 0 0 0-10.41-14.3 8.15 8.15 0 0 0-13.5-6M713.5 391.61c.31-4-3.56-7.45-7.57-8s-8 1-11.63 2.81a14.26 14.26 0 0 0-15.79-4.05c-5.38 2.14-8.84 7.31-13.27 11-2.35 2-5.09 3.64-6.71 6.25s-1.59 6.63 1.06 8.19a10.36 10.36 0 0 0-3 18c.94.73 2.06 1.38 2.45 2.5a4.5 4.5 0 0 1-.3 2.9c-1.56 4.47-4 8.65-5 13.29s0 10.17 4 12.77c1.05.69 2.34 1.23 2.81 2.39a3.86 3.86 0 0 1 0 2.42c-.69 2.61-2.19 4.92-3.36 7.36s-2 5.23-1.23 7.83 3.66 4.67 6.19 3.71c-1.77 5.1-1.66 11.19 1.66 15.45s14.26 6.2 20.75 2.26l.59-15.27c-.85-2.69 3.32-17 1.59-19.92 0 0-4.58 9.93 5.72 8.28 3.36.92 9.81-8.93 10.25-12.38s-1.73-6.86-4.71-8.65a15.65 15.65 0 0 0 4-19.66 8.37 8.37 0 0 0 1.64-16.16c9.51-2.26 15.24-14.28 11-23.09" transform="translate(-287.76 -299)" class="color263238 svgShape"></path><path fill="#454b64" d="M663.64 394.63s-.51.29-1.15 1.15a8.89 8.89 0 0 0 .84 11.18 9.42 9.42 0 0 0 9.07 2.47l-.84-.82a6.72 6.72 0 1 0 13.14 2.75h-1.55a6.69 6.69 0 0 0 4.2 4.87 6.49 6.49 0 0 0 4.26.24 6.05 6.05 0 0 0 3.32-2.57 6.83 6.83 0 0 0 0-7.57l-1 1.11a17 17 0 0 0 13.39 1.13 16 16 0 0 0 8.32-6.58 15.63 15.63 0 0 0 2.37-6.52 5.82 5.82 0 0 0 0-2.48c-.29-.09.09 3.69-3.14 8.48a15.32 15.32 0 0 1-7.93 5.87 15.78 15.78 0 0 1-12.25-1.22l-3-1.69 2 2.8a5.32 5.32 0 0 1-.07 5.82 4.51 4.51 0 0 1-5.68 1.7 5.14 5.14 0 0 1-3.23-3.66l-.85-4.72-.71 4.74c-.45 3-4 5.14-6.66 4.23a5.59 5.59 0 0 1-3.62-6.4l.32-1.16-1.16.34a8.32 8.32 0 0 1-7.92-2 7.86 7.86 0 0 1-2.39-6c.15-3.78 2.15-5.39 1.92-5.49ZM787.9 376.27a4.64 4.64 0 0 1 .36 1.92 2.42 2.42 0 0 1-1.09 1.8 2.5 2.5 0 0 1-2.66 0l-1.35-.93.66 1.52a6.57 6.57 0 0 1-1.62 7.1 6.28 6.28 0 0 1-8.62-.45l-.79-.87-.46 1.08a11.59 11.59 0 0 1-19.25 3.13l-.49-.55-.56.47a20 20 0 0 1-9.58 4.38 21.65 21.65 0 0 1-8.43-.19c-4.68-1.06-7-3-7.1-2.78 0 .06.48.56 1.59 1.33a18.51 18.51 0 0 0 5.29 2.37 21.57 21.57 0 0 0 8.85.55 20.9 20.9 0 0 0 10.36-4.5l-1.06-.08a13 13 0 0 0 21.77-3.57l-1.25.21a7.4 7.4 0 0 0 12.22-8.05l-.7.59a3.28 3.28 0 0 0 3.6-.17 2.9 2.9 0 0 0 1.17-2.38c-.05-1.49-.86-1.99-.86-1.93ZM729.24 356.3c.06.12.69-.28 1.92-.36a6.06 6.06 0 0 1 4.57 1.86 7.8 7.8 0 0 1 1.55 7c-.59 2.82-2.51 5.54-4.82 8.13l1.15 1.09c.77-.79 2.62-.1 3.13 1a5.36 5.36 0 0 1-.11 4.08 18.78 18.78 0 0 1-4.19 6.57c-3.2 3.23-6 4.18-5.89 4.43 0 .09.75 0 2-.55a17.24 17.24 0 0 0 4.7-3.07 18.66 18.66 0 0 0 4.79-6.87 6.7 6.7 0 0 0 .12-5.29 4.16 4.16 0 0 0-2.33-2 3.21 3.21 0 0 0-3.26.54l-.07.05 1.15 1.1c2.37-2.65 4.47-5.63 5.07-8.89s-.3-6.4-2.2-8.13a6.43 6.43 0 0 0-5.44-1.66c-1.37.29-1.9.91-1.84.97ZM674.84 368.37c.1.23 2.06-1.22 5.85-1.41a11.94 11.94 0 0 1 6.35 1.52 12.15 12.15 0 0 1 5.34 6.14l.52 1.35.81-1.2a6.94 6.94 0 0 1 12.65 3.76v.93l.9-.2a9.6 9.6 0 0 1 7.75 1.81 9.24 9.24 0 0 1 3.34 5.49c.69 3.74-.64 5.92-.39 6 .07 0 .44-.43.84-1.45a9.63 9.63 0 0 0 .48-4.68 9.93 9.93 0 0 0-3.46-6.33 10.71 10.71 0 0 0-8.88-2.29l.92.73a8.43 8.43 0 0 0-15.42-4.59l1.33.15a13.18 13.18 0 0 0-6.14-6.73 12.62 12.62 0 0 0-7-1.33 11.7 11.7 0 0 0-4.45 1.36c-.96.5-1.39.91-1.34.97ZM675.11 315.48a9 9 0 0 1 3-2.47 5.72 5.72 0 0 1 4.34-.14 5.9 5.9 0 0 1 3.63 4.14l.7 3.11.51-3.16a8.44 8.44 0 0 1 6.21-6.57 8.25 8.25 0 0 1 9.2 4.61l.32.71.72-.31a7.5 7.5 0 0 1 3-.59c3.74 0 7.19 2.59 7.9 5.89a8.53 8.53 0 0 1-2.83 8.53l-1.89 1.45 2.36-.24a6.51 6.51 0 0 1 6 3.09 6.17 6.17 0 0 1 .42 5.39c-1.21 3-3.34 3.68-3.18 3.85s.51 0 1.31-.52a7.16 7.16 0 0 0 2.4-9.27 7.65 7.65 0 0 0-7.12-3.88l.47 1.21a9.88 9.88 0 0 0 3.51-10c-.85-4-5-7.16-9.38-7.13a8.93 8.93 0 0 0-3.66.73l1 .4a9.46 9.46 0 0 0-18 2.46h1.21a6.9 6.9 0 0 0-4.5-4.79 6.36 6.36 0 0 0-5 .44 6.16 6.16 0 0 0-2.34 2.1c-.27.57-.36.94-.31.96Z" transform="translate(-287.76 -299)" class="color455b64 svgShape"></path><path fill="#262a38" d="M628.57 326.92c.08.21 1.5-1.51 4.8-1.41a6.09 6.09 0 0 1 4.83 2.59 6.53 6.53 0 0 1 .24 7l-2.7 4.35 3.67-3.58a6.23 6.23 0 0 1 7.64-.45 6.05 6.05 0 0 1 1.05 8.3l1.3.83a6.85 6.85 0 0 1 8.24-3.15 6.78 6.78 0 0 1 3.54 8.79l1.21-.25a2.61 2.61 0 0 1 0-3.38 3.37 3.37 0 0 1 3.45-1c2.62.59 4 3.25 4.67 5.6l1.2-.42a3.19 3.19 0 0 1 .77-3.38 3.89 3.89 0 0 1 3.1-1.25 7.54 7.54 0 0 1 5.15 2.73c2.16 2.64 2.94 4.54 3.11 4.43s-.1-.5-.48-1.35a17.56 17.56 0 0 0-2.08-3.55 8.15 8.15 0 0 0-5.64-3.28 5 5 0 0 0-4 1.47 4.37 4.37 0 0 0-1.09 4.7l1.2-.42a11.88 11.88 0 0 0-1.71-3.93 6.68 6.68 0 0 0-3.87-2.75 4.79 4.79 0 0 0-4.95 1.43 4.08 4.08 0 0 0 .16 5.46l.76.73.46-1a8.08 8.08 0 0 0-14.57-7l1.3.82a7.27 7.27 0 0 0-10.78-9.71l1 .77a7.54 7.54 0 0 0-.48-8.19 7.1 7.1 0 0 0-9.46-1.57c-.8.57-1.07.99-1.04 1.02ZM814.8 487.7c0-.1-.5-.05-1.28-.35a4.49 4.49 0 0 1-2.37-2.59 5.69 5.69 0 0 1 .55-5.32c1.15-1.87 3.23-3.44 5.6-5l-.77-1.07a9.53 9.53 0 0 1-10 .24c-3.44-1.78-5-6.35-3.66-10.37a9.21 9.21 0 0 1 2-3.5c.88-.93 2.15-1.86 3.06-1.81s1.54 1.15 1.48 2.22a2.6 2.6 0 0 1-1.82 2.31c-2.13.81-4.62.15-6.52-.85a11.63 11.63 0 0 1-4.42-4.09 11.86 11.86 0 0 1-1.47-8.62c.45-2.1 1.12-3.15 1-3.22s-.92.9-1.59 3.07a12 12 0 0 0 1.1 9.35 12.64 12.64 0 0 0 4.76 4.67 9.41 9.41 0 0 0 7.68 1.05 4.79 4.79 0 0 0 1.91-1.3 3.68 3.68 0 0 0 .9-2.3 4.3 4.3 0 0 0-.6-2.42 2.94 2.94 0 0 0-2.33-1.43 4.27 4.27 0 0 0-2.45.77 10.57 10.57 0 0 0-1.83 1.51 10.86 10.86 0 0 0-2.4 4.1 11.11 11.11 0 0 0 .05 7.05 9.57 9.57 0 0 0 4.37 5.13 10.86 10.86 0 0 0 11.58-.5l-.76-1.07c-2.34 1.65-4.54 3.38-5.76 5.55a6.45 6.45 0 0 0-.33 6.17 4.64 4.64 0 0 0 2.94 2.65 2 2 0 0 0 1.38-.03ZM725 336.59c0 .05.3.3 1 .71a18.77 18.77 0 0 0 3 1.55 8.44 8.44 0 0 0 5.44.48 6.52 6.52 0 0 0 3-1.9 4.55 4.55 0 0 0 1.16-3.9l-.82.68a5.66 5.66 0 1 0 4.09-10.55l-.31 1.45c3.1.26 5.81-2.31 6.37-5.35.65-3.25-1.77-6.39-4.73-7.44a8.1 8.1 0 0 0-3.92-.49l.43 1.51c4.72-2.34 5.59-9 2.12-12.23a7.83 7.83 0 0 0-11.22.88h1a8.52 8.52 0 0 0-8.52-2.73 7.7 7.7 0 0 0-5.19 4.5 7.8 7.8 0 0 0-.59 4.36 3.1 3.1 0 0 0 .5 1.46c.24 0-.81-2.21.77-5.5a7 7 0 0 1 4.75-3.79 7.44 7.44 0 0 1 7.26 2.52l.53.66.5-.68c1.84-2.48 6.48-3.11 9.14-.59s1.88 8-1.75 9.71l-4.52 2.09 5-.61a6.54 6.54 0 0 1 3.14.4c2.44.87 4.24 3.36 3.76 5.69s-2.58 4.34-4.7 4.13l-6.43-.64 6.12 2.09a4.47 4.47 0 0 1 2.44 6 4.61 4.61 0 0 1-5.57 2.07l-1.07-.46.25 1.14c.48 2.2-1.55 4.07-3.27 4.63a8 8 0 0 1-4.93-.2c-2.71-.95-4.13-1.8-4.23-1.65Z" transform="translate(-287.76 -299)" class="color263238 svgShape"></path><path fill="#9dccfb" d="M690.38 456.15c-.46-.26-18.81-7.72-20.16 11.64s18.36 16.73 18.43 16.18 1.73-27.82 1.73-27.82Z" transform="translate(-287.76 -299)" class="colorfbbd9d svgShape"></path><path fill="#6fadec" d="M683.25 476.22c-.08-.07-.35.21-.94.43a3.36 3.36 0 0 1-2.53-.12c-2-.89-3.48-4.26-3.33-7.76a11.12 11.12 0 0 1 1.28-4.76 3.88 3.88 0 0 1 2.72-2.41 1.71 1.71 0 0 1 1.92 1.06c.22.56.07.94.17 1s.44-.3.34-1.11a2.15 2.15 0 0 0-.67-1.26 2.61 2.61 0 0 0-1.84-.63c-1.5 0-2.94 1.28-3.73 2.76a11.63 11.63 0 0 0-1.55 5.31c-.14 3.91 1.6 7.7 4.34 8.71a3.61 3.61 0 0 0 3.12-.3c.63-.45.77-.88.7-.92ZM740.56 487.49a6.7 6.7 0 0 1 10.75 2.14 6.31 6.31 0 0 1 0 5.11 5.84 5.84 0 0 1-11.06-1.34c-.45-2.42-1.22-5.29.94-6.45" transform="translate(-287.76 -299)" class="colorec996f svgShape"></path><path fill="#262a38" d="M740.28 482.51c.73-.09 1.06 4.79 5.47 8s9.56 2.3 9.65 3c.08.3-1.1 1-3.29 1.23a12.18 12.18 0 0 1-8-2.21 10.64 10.64 0 0 1-4.28-6.71c-.35-2.07.17-3.31.45-3.31Z" transform="translate(-287.76 -299)" class="color263238 svgShape"></path><path fill="#9dccfb" d="m667.66 545 13.2-2.23 74.23 6.6 26.55 12.59 7.05 4.18s-27.62 38.43-55.9 36.36-77.17-42.5-77.17-42.5l-.22-13.19Z" transform="translate(-287.76 -299)" class="colorfbbd9d svgShape"></path><path fill="#021b79" d="m877.24 607.73-60.77-35.05c-7.52-2.51-42.57-14.42-42.57-14.42s-27.23 43.23-49.73 40.45c-12.19-1.51-27-12-38-21.37a113.54 113.54 0 0 1-23.82-28.13l-2.45-4.09c-10.66 0-43.8 8-55.53 10.92a14.71 14.71 0 0 0-7.27 4.29c-6.49 6.95-19.07 20.21-21.74 33.33-2.54 12.52-13 52.61-13 52.61l298.75-9.15Z" transform="translate(-287.76 -299)" class="color20376e svgShape"></path><path fill="#9dccfb" d="M973.13 608.76c-4.55 2.18-42.2 14.89-43.89 16.81s-53.31-16.4-53.31-16.4l-14.75 28 133.18-2.9Z" transform="translate(-287.76 -299)" class="colorfbbd9d svgShape"></path><path fill="#262a38" d="M633.63 599.69c-.18 0-.8-2.39-2.64-6a49 49 0 0 0-9.43-12.4 113.23 113.23 0 0 0-12.16-10c-3.27-2.38-5.28-3.87-5.2-4s2.25 1.14 5.63 3.37a86.16 86.16 0 0 1 12.49 9.8 43.7 43.7 0 0 1 9.35 12.84 27.55 27.55 0 0 1 1.66 4.54 5.06 5.06 0 0 1 .3 1.85ZM813 626.26c-.15 0-.32-2.37-.38-6.2s0-9.14.25-15 .73-11.14 1.16-15 .82-6.16 1-6.14 0 2.38-.2 6.2c-.24 4.17-.53 9.28-.85 14.94s-.41 10.78-.57 14.94c-.19 3.89-.29 6.26-.41 6.26Z" transform="translate(-287.76 -299)" class="color263238 svgShape"></path><path fill="#ffffff" d="M672 565.24s-.12.24-.44.61a10.15 10.15 0 0 1-1.52 1.52 17.29 17.29 0 0 1-7 3.54 18.73 18.73 0 0 1-11.65-.74 18.15 18.15 0 0 1-5.82-3.88c-1.75-1.66-3.34-3.55-5.16-5.21a18.78 18.78 0 0 0-12.54-5 18.18 18.18 0 0 0-10.66 3.22 19.88 19.88 0 0 0-5.37 5.45c-1 1.52-1.4 2.47-1.49 2.43s0-.26.21-.72a13.41 13.41 0 0 1 .92-1.94 18.91 18.91 0 0 1 16.4-9.43 19.47 19.47 0 0 1 13.26 5.23c1.89 1.73 3.47 3.63 5.16 5.25a17.49 17.49 0 0 0 5.47 3.72 18.41 18.41 0 0 0 11.09.92 18.08 18.08 0 0 0 7-3.13c1.36-1.08 2.01-1.92 2.14-1.84ZM810.9 597.75c-.06 0-.63-1.13-2.13-3.08a26.38 26.38 0 0 0-8.18-6.8 25.17 25.17 0 0 0-16.34-2.74 26 26 0 0 0-17.54 12.6 21.78 21.78 0 0 0-3 12.35 13 13 0 0 0 2.18 6.32 10.53 10.53 0 0 0 5.5 4 7.8 7.8 0 0 0 6.77-1.07 10.18 10.18 0 0 0 4-6 11.3 11.3 0 0 0-.94-7.44 15.86 15.86 0 0 0-5.08-6c-4.4-3.17-10.22-4.24-15.85-3.53a36.09 36.09 0 0 0-16.06 6.45c-9.94 6.66-17.76 16.79-28.8 23.62a37.54 37.54 0 0 1-18.09 5.76 38.76 38.76 0 0 1-18.12-3.47 30.91 30.91 0 0 1-13.5-11.56 21.17 21.17 0 0 1-2.57-16.73c1.44-5.44 5.45-10.3 10.8-11.71a15.2 15.2 0 0 1 14.6 3.62 11.65 11.65 0 0 1 3.2 6.68 13.72 13.72 0 0 1-1.15 7 18.28 18.28 0 0 1-9.33 9.23 22.12 22.12 0 0 1-11.93 1.19 36.51 36.51 0 0 1-10.17-3.35c-6-3-10.51-6.63-14.27-9.39s-6.7-4.91-8.79-6.22c-1-.65-1.84-1.14-2.39-1.45s-.81-.51-.81-.51.3.12.87.41 1.39.74 2.45 1.37c2.13 1.25 5.15 3.29 8.92 6.06s8.32 6.3 14.28 9.18a35.74 35.74 0 0 0 10 3.22 21.52 21.52 0 0 0 11.57-1.15 17.49 17.49 0 0 0 8.87-8.86 12.91 12.91 0 0 0 1.06-6.6 10.76 10.76 0 0 0-3-6.15 14.28 14.28 0 0 0-13.7-3.33c-5 1.31-8.74 5.87-10.09 11.05a20.12 20.12 0 0 0 2.48 15.93 29.94 29.94 0 0 0 13.07 11.14 37.66 37.66 0 0 0 17.62 3.35 36.35 36.35 0 0 0 17.57-5.61c10.82-6.66 18.65-16.78 28.78-23.57a37.13 37.13 0 0 1 16.53-6.6c5.82-.72 11.91.39 16.55 3.75a16.86 16.86 0 0 1 5.38 6.4 12.24 12.24 0 0 1 1 8.08 11.09 11.09 0 0 1-4.45 6.54 8.69 8.69 0 0 1-7.54 1.17 11.4 11.4 0 0 1-6-4.4 13.93 13.93 0 0 1-2.31-6.75 22.54 22.54 0 0 1 3.15-12.8 26.66 26.66 0 0 1 18.11-12.82 25.54 25.54 0 0 1 16.64 3 25.87 25.87 0 0 1 8.15 7 18 18 0 0 1 2.03 3.22ZM853.61 594.1a5.51 5.51 0 0 1-.66 1.72 24.32 24.32 0 0 1-2.67 4.24 26.93 26.93 0 0 1-5.36 5.19 35.66 35.66 0 0 1-8 4.37 32.41 32.41 0 0 1-16.33 2 26.88 26.88 0 0 1-4.88-1.11 5.73 5.73 0 0 1-1.69-.72c0-.19 2.52.68 6.66 1.07a34.52 34.52 0 0 0 15.84-2.21 32.93 32.93 0 0 0 13.18-9c2.66-3.24 3.73-5.65 3.91-5.55ZM873.1 607.15c-.05.08-.68-.33-1.94-.66a10.63 10.63 0 0 0-5.41.13 22.13 22.13 0 0 0-7.15 3.91c-2.51 1.87-5.2 4-7.9 6.42a122.24 122.24 0 0 0-12.86 13.29c-3 3.63-4.75 6-4.9 5.93a8.21 8.21 0 0 1 1-1.81c.73-1.12 1.83-2.71 3.28-4.6a100.63 100.63 0 0 1 20.78-20 21.83 21.83 0 0 1 7.54-3.84 10.24 10.24 0 0 1 5.73.21 4.06 4.06 0 0 1 1.83 1.02ZM790.21 566.5c.07.1-1 1.09-3 2.24a24 24 0 0 1-8.48 2.87 24.38 24.38 0 0 1-8.94-.38c-2.23-.54-3.5-1.21-3.45-1.32.07-.35 5.47 1.65 12.24.63s11.42-4.34 11.63-4.04ZM611 638.75c-.22 0 .35-3.54-.36-9.16a41.26 41.26 0 0 0-8.37-20.05 43.65 43.65 0 0 0-8.69-8.36 36.65 36.65 0 0 0-8.72-4.6c-5.32-1.91-8.91-2-8.88-2.24a9.49 9.49 0 0 1 2.49.08 31.92 31.92 0 0 1 6.64 1.43 35.53 35.53 0 0 1 9 4.51 42.26 42.26 0 0 1 9 8.51 39.85 39.85 0 0 1 8.28 20.64 35.43 35.43 0 0 1 0 6.79 9.82 9.82 0 0 1-.39 2.45Z" transform="translate(-287.76 -299)" class="colorffffff svgShape"></path><path d="M632.17 628.28a11.22 11.22 0 0 0-11.52-1.2c-1.56.75-2.93 1.88-4.53 2.56s-3.61.82-4.94-.29c-1.17-1-1.49-2.64-2.4-3.86-1.69-2.28-5-2.62-7.77-2.15s-5.54 1.55-8.36 1.36-5.34-1.61-8-2.32a16.7 16.7 0 0 0-16.83 5.5l-5 14.88 73.46-3.62a11.23 11.23 0 0 0-4.11-10.86Z" opacity=".3" transform="translate(-287.76 -299)" fill="#000000" class="color000000 svgShape"></path><path fill="#ffffff" d="M656.81 637.86c-.18.08-.83-1.93-2.84-4.55a19.06 19.06 0 0 0-22.9-6.08c-3 1.27-4.6 2.7-4.72 2.54s.29-.45 1-1.07a15.72 15.72 0 0 1 3.39-2.17 18.79 18.79 0 0 1 23.83 6.33 15.72 15.72 0 0 1 1.87 3.57c.34.89.44 1.41.37 1.43Z" transform="translate(-287.76 -299)" class="colorffffff svgShape"></path><path d="M830.8 630.35c-4.87-1.3-9.84-3-13.53-6.42s-5.77-9.07-3.76-13.69c-6.41 15.38-22.62 26.12-39.28 26l70.9-1.17c-4.42-2.41-9.45-3.43-14.33-4.72Z" opacity=".3" transform="translate(-287.76 -299)" fill="#000000" class="color000000 svgShape"></path><path fill="#454b64" d="M748.19 454.15a47.58 47.58 0 0 0-1-5.19 21.5 21.5 0 0 0-8.06-11.47 21 21 0 0 0-20-2.6 21 21 0 0 0-9.62 7.5 20.92 20.92 0 0 0 .42 24.82 21.2 21.2 0 0 0 9.87 7.18 21.28 21.28 0 0 0 27.56-15 45.57 45.57 0 0 0 .79-5.22 16.36 16.36 0 0 1-.38 5.31 21.36 21.36 0 0 1-7.59 12.24 21.67 21.67 0 0 1-9.13 4.33 22 22 0 0 1-11.58-.7 20.88 20.88 0 0 1-5.63-2.89 20.49 20.49 0 0 1-4.76-4.59 21.91 21.91 0 0 1-.44-26.07 21 21 0 0 1 4.59-4.75 20.57 20.57 0 0 1 5.54-3.07 21.78 21.78 0 0 1 20.81 2.91 21.45 21.45 0 0 1 8 12 16.57 16.57 0 0 1 .61 5.26ZM802.19 453.23a46.5 46.5 0 0 0-1-5.19 21.47 21.47 0 0 0-8.05-11.47 21.05 21.05 0 0 0-20-2.6 21.11 21.11 0 0 0-9.62 7.5 21 21 0 0 0 .42 24.82 19.75 19.75 0 0 0 4.51 4.39 20 20 0 0 0 5.36 2.79 21.26 21.26 0 0 0 11.08.76 21 21 0 0 0 8.83-4.05 21.46 21.46 0 0 0 7.66-11.73 45.57 45.57 0 0 0 .79-5.22 16.73 16.73 0 0 1-.38 5.31 21.47 21.47 0 0 1-7.59 12.24 21.73 21.73 0 0 1-9.13 4.33 22 22 0 0 1-11.58-.7 20.79 20.79 0 0 1-5.64-2.89 20.45 20.45 0 0 1-4.75-4.59 21.87 21.87 0 0 1-.44-26.07 20.53 20.53 0 0 1 4.59-4.75 20.89 20.89 0 0 1 5.54-3.08 21.82 21.82 0 0 1 20.83 2.97 21.45 21.45 0 0 1 8 12 16.57 16.57 0 0 1 .57 5.23Z" transform="translate(-287.76 -299)" class="color455b64 svgShape"></path><path fill="#454b64" d="M705.47 450.61c.11.27-3.33 2-7.82 3.4s-8.27 2.06-8.34 1.78 3.57-1.38 8-2.81 8.04-2.65 8.16-2.37ZM761.36 448c-.11.31-3.22-.83-7.13-.33s-6.67 2.28-6.84 2 2.47-2.6 6.71-3.08 7.42 1.18 7.26 1.41Z" transform="translate(-287.76 -299)" class="color455b64 svgShape"></path><path fill="#ffffff" d="M719.5 470.7c0 .12-1.44-.14-3.43-1.27a16.64 16.64 0 0 1-8.38-14.83c.06-2.29.56-3.62.68-3.59s0 1.4.08 3.57a18.28 18.28 0 0 0 8 14.21c1.83 1.21 3.11 1.75 3.05 1.91ZM772.93 469.15c0 .12-1.36-.16-3.21-1.24a16.31 16.31 0 0 1-7.93-14c0-2.15.45-3.42.57-3.39s0 1.31.19 3.35a18.06 18.06 0 0 0 7.59 13.38c1.66 1.22 2.86 1.75 2.79 1.9Z" transform="translate(-287.76 -299)" class="colorffffff svgShape"></path><path fill="#021b79" d="M477.55 641.66s-5.55 334.07 40.56 558.78l574.95-1.8L942.56 639Z" transform="translate(-287.76 -299)" class="color20376e svgShape"></path><path fill="#262a38" d="m477.55 641.66 465-3.12h.34l.09.33c42.88 159.34 94.63 351.65 150.59 559.63l.19.68h-.71l-45.71.14-529.24 1.6h-.39l-.07-.38q-2.88-15.49-5.69-30.65c-.91-5.06-1.95-10.07-2.73-15.1s-1.53-10-2.29-15q-2.26-14.91-4.47-29.47-1.85-14.62-3.64-28.87-.9-7.14-1.79-14.17c-.57-4.69-1-9.37-1.5-14q-1.46-13.92-2.86-27.46c-1-9-1.63-17.95-2.43-26.72s-1.49-17.44-2.22-26c-5.29-68.16-7.72-127.78-9.17-176.91s-1.64-87.78-1.65-114.14c0-13.19.08-23.3.15-30.11.05-3.4.09-6 .11-7.73s.07-2.37.08-2.6c0 1 0 14.19-.05 40.43s.46 65 1.92 114.14 4 108.72 9.38 176.86q1.11 12.76 2.25 25.94c.8 8.77 1.42 17.69 2.45 26.71s1.91 18.17 2.88 27.45c.5 4.64.94 9.31 1.51 14s1.2 9.41 1.8 14.16q1.8 14.25 3.66 28.85 2.22 14.57 4.48 29.46c.77 5 1.53 10 2.31 15s1.82 10 2.73 15.08q2.82 15.15 5.71 30.63l-.47-.38 529.24-1.73 45.71-.14-.52.68c-55.9-208-107.58-400.33-150.41-559.68l.43.33Z" transform="translate(-287.76 -299)" class="color263238 svgShape"></path><path fill="#021b79" d="M477.55 641.66s-.48 44 7 122.41c4.93 51.87 4.38 120 18.13 206.81 29.03 183.39 44.32 211.43 44.32 211.43l560.85-3.71-149.31-545.14Z" transform="translate(-287.76 -299)" class="color20376e svgShape"></path><path fill="#262a38" d="m477.55 641.66 481-8.65h.35l.1.34c42.76 156 94.1 343.34 149.41 545.12l.19.68h-.71l-30.56.21-530.33 3.42h-.3l-.11-.25a115.08 115.08 0 0 1-5.16-14.46c-1.49-4.85-2.81-9.72-4.09-14.57s-2.5-9.69-3.63-14.51-2.26-9.63-3.33-14.41Q524 1095.86 519 1068.3c-6.87-36.71-12.64-71.68-17.76-104.59-2.52-16.46-4.52-32.47-6.14-48s-2.95-30.43-4-44.81c-2.09-28.76-3.23-55.23-4.72-79.11-.71-12-1.67-23.22-2.65-33.84s-1.79-20.57-2.48-29.84c-1.39-18.55-2.28-34.35-2.83-47.16s-.78-22.66-.86-29.29c0-3.31 0-5.82-.05-7.51s.05-2.54.05-2.54c0 .49.05 3.53.14 10.05s.41 16.46 1 29.27 1.54 28.61 3 47.14c.72 9.27 1.55 19.23 2.55 29.84s2 21.9 2.71 33.84c1.53 23.89 2.71 50.35 4.83 79.1q1.56 21.57 4 44.78c1.63 15.47 3.65 31.47 6.18 47.92 5.15 32.89 10.95 67.85 17.85 104.54q5.12 27.52 11.48 56.24c1.07 4.78 2.15 9.58 3.34 14.39s2.36 9.65 3.63 14.49 2.6 9.7 4.09 14.53a115.43 115.43 0 0 0 5.09 14.29l-.41-.24 530.28-3.58 30.57-.2-.52.69c-55.26-201.7-106.55-389.09-149.26-545.12l.44.33Z" transform="translate(-287.76 -299)" class="color263238 svgShape"></path><path fill="#021b79" d="m1009.28 659.36-531.28 9c-2.24 144.08 48.49 369 85.69 487.27l557.55-5.84c-57.07-151.54-122.73-323.86-111.96-490.43Z" transform="translate(-287.76 -299)" class="color20376e svgShape"></path><path fill="#262a38" d="M1009.28 659.36c0 .48-.09 3.26-.27 9.24-.1 3.07-.23 6.88-.38 11.4s-.51 9.79-.27 15.71c.28 11.86.18 26.5 1.65 43.65.28 4.29.58 8.75.89 13.35s1 9.35 1.56 14.25 1.11 10 1.69 15.16 1.54 10.52 2.33 16 1.7 11.1 2.58 16.87 2.18 11.61 3.3 17.63 2.2 12.19 3.62 18.44l4.29 19.15c.75 3.26 1.44 6.56 2.25 9.87s1.69 6.64 2.54 10q2.58 10.11 5.26 20.59 2.92 10.43 6 21.21c1 3.59 2 7.24 3.1 10.87l3.36 11c17.76 59.21 42 124.68 68.92 195.93l.24.62h-.67l-539 5.73-18.5.19h-.4l-.12-.39c-13.44-43.31-24.85-86.48-35-129s-18.91-84.39-26.35-125.37-13.51-81.06-17.85-120-7-76.76-6.43-113.08V668h.38l531.29-8.58L478 668.88l.46-.46c-.51 36.26 2.18 74.05 6.48 113s10.45 79 17.89 119.92 16.24 82.82 26.37 125.32 21.56 85.63 35 128.91l-.52-.38 18.5-.19 539.05-5.57-.42.62c-26.88-71.26-51.08-136.77-68.79-196q-1.68-5.54-3.34-11c-1.1-3.64-2.07-7.28-3.09-10.88l-5.95-21.23q-2.67-10.49-5.24-20.6c-.85-3.38-1.7-6.71-2.53-10s-1.5-6.62-2.24-9.88l-4.26-19.17c-1.41-6.26-2.41-12.45-3.6-18.46s-2.29-11.89-3.27-17.64-1.73-11.41-2.55-16.89-1.75-10.8-2.3-16-1.13-10.27-1.67-15.18-1.09-9.66-1.53-14.26-.58-9.07-.86-13.36c-1.42-17.17-1.28-31.82-1.51-43.68-.22-5.94.23-11.15.34-15.66s.34-8.31.46-11.37l.4-9.43Z" transform="translate(-287.76 -299)" class="color263238 svgShape"></path><path fill="#021b79" d="m1010.26 632.58-532.71 9.08c-2.25 144.08 21.38 276.44 58.57 394.75l153.7 95.19L1136 1124c-57-151.59-136.52-324.85-125.74-491.42Z" transform="translate(-287.76 -299)" class="color20376e svgShape"></path><path fill="#262a38" d="M1010.26 632.58c0 .48-.14 3.29-.38 9.34-.14 3.09-.34 7-.35 11.5s-.22 9.85 0 15.83c.3 23.9 2.42 59.08 10.56 103.07 8 44 22.08 96.58 42.41 155.5 10.12 29.48 21.71 60.57 34.29 93.22s26.15 66.85 39.72 102.79l.23.62h-.74l-446.21 7.68h-.16l-.13-.08-66.5-41.22-87.13-54-.17-.11-.06-.19a1290.78 1290.78 0 0 1-46.55-204.8 1232.48 1232.48 0 0 1-12-190.12v-.46h.46l532.72-8.6-532.71 9.55.47-.47a1233.33 1233.33 0 0 0 12.06 190 1291 1291 0 0 0 46.56 204.62l-.23-.3 87.13 54 66.56 41.23-.29-.08 446.21-7.53-.42.63c-13.55-35.94-27.1-70.15-39.65-102.82s-24.12-63.77-34.21-93.27c-20.28-59-34.31-111.62-42.23-155.66s-10.1-79.24-10.3-103.16c-.16-6 .06-11.27.11-15.83s.25-8.38.42-11.46c.32-6.11.48-8.93.51-9.42Z" transform="translate(-287.76 -299)" class="color263238 svgShape"></path><path fill="#021b79" d="m248.81 737.36 135.36-14.55 17.89 109.79-153.25-95.24z" class="color20376e svgShape"></path><path fill="#262a38" d="M689.82 1131.6a2.46 2.46 0 0 1-.14-.55c-.08-.42-.19-1-.32-1.62-.26-1.5-.64-3.6-1.12-6.27-.94-5.54-2.28-13.44-4-23.24-3.27-19.78-7.8-47.19-12.9-78l.59.45-12.59 1.36-87.14 9.2-26.42 2.67-7.19.67-1.88.14a2.82 2.82 0 0 1-.64 0 2.92 2.92 0 0 1 .63-.13l1.86-.25 7.17-.87 26.38-3 87.11-9.52 12.6-1.35h.51l.08.5c5 30.85 9.36 58.28 12.55 78.08 1.53 9.81 2.76 17.74 3.63 23.29.39 2.68.7 4.79.93 6.3.08.67.16 1.21.21 1.64a2.37 2.37 0 0 1 .09.5Z" transform="translate(-287.76 -299)" class="color263238 svgShape"></path><path fill="#9dccfb" d="M498.47 641.56s6.34-9 9.83-11 8.35-2 10.55-.18l2.2 1.85s11-5.33 16.48-1.63c0 0 10.46-5.32 15.7.27 0 0 8-5.55 11.62-1s3.46 12.39 1.9 16.48-4.29 17.93-6.72 18.25c0 0-6.5.88-7.47-2.62s-1.39-5.19-1.39-5.19-2.17 12.54-5.12 13.21-8.72.54-9.07-4.93c0 0-2.66 4.21-5.42 3.09s-6.17-3-6-6.41.15-6.78.15-6.78-1.35 5-3.84 4-5-.7-6.47-4.84-5.29-12.29-5.29-12.29Z" transform="translate(-287.76 -299)" class="colorfbbd9d svgShape"></path><path fill="#6fadec" d="M525.53 654.75c-.16-.08.45-1.37 1-3.56a19.38 19.38 0 0 0-3.55-16.48c-1.37-1.79-2.45-2.71-2.34-2.85s1.35.62 2.93 2.36a17.71 17.71 0 0 1 3.7 17.17c-.77 2.24-1.64 3.42-1.74 3.36ZM538.22 630.66c.12 0 .87 1.78 1.57 4.87a48.58 48.58 0 0 1-.94 24.49c-.94 3-1.82 4.78-1.93 4.74-.35-.1 2.57-7.42 2.89-17s-1.94-17.03-1.59-17.1ZM553.49 631c.27 0 1.19 5.87.54 13.18s-2.51 13-2.77 12.9 1.1-5.8 1.7-13 .21-13.02.53-13.08Z" transform="translate(-287.76 -299)" class="colorec996f svgShape"></path><path fill="#9dccfb" d="M597.45 632.57a4.14 4.14 0 0 0-2.87-2.19c-2.81-.73-5.85.47-8 2.4a27.18 27.18 0 0 0-5.1 7l15.21-.13c-.26-2.39 1.71-4.85.76-7.08Z" transform="translate(-287.76 -299)" class="colorfbbd9d svgShape"></path><circle cx="1026.95" cy="763.21" r="77.23" fill="#021b79" stroke="#ffffff" stroke-miterlimit="10" transform="rotate(-45 522.144 961.06)" class="color20376e svgShape colorStrokeffffff svgStroke"></circle><path fill="#ffffff" d="M1025.07 736.29q.47 26.85.92 53.72c.11 6.67 10.5 6.7 10.39 0q-.47-26.87-.92-53.72c-.11-6.68-10.5-6.7-10.39 0Z" transform="translate(-287.76 -299)" class="colorffffff svgShape"></path><path fill="#ffffff" d="m1002 768.83 57.49-1c6.67-.11 6.69-10.5 0-10.39l-57.49 1c-6.67.12-6.69 10.5 0 10.39Z" transform="translate(-287.76 -299)" class="colorffffff svgShape"></path><path d="M1041.29 687.15c-14.18-3.18-29.31-1.29-43.6 4.58a99 99 0 0 0 10.1 14.33c3.25 4 8.11 8.2 13 6.49 1.35-.47 2.6-1.39 4-1.37 2.21 0 3.68 2.19 4.9 4a47.94 47.94 0 0 0 12.31 12.65c2.59 1.84 6.52 3.27 8.62.89 1-1.19 1.17-2.9 1.19-4.48.12-11.81-5.19-26.55-10.52-37.09Z" opacity=".3" transform="translate(-287.76 -299)" fill="#000000" class="color000000 svgShape"></path><path fill="#9dccfb" d="M973.13 608.76 985.5 605a33.72 33.72 0 0 1 29.24 5.55c6.78 5.09 14 10.88 16.36 14l10.66 14.45a12.3 12.3 0 0 1 2 11 3.56 3.56 0 0 1-1.21 2l-3.77 5.49s1.1 8.36 1.16 13.59c.06 5-5.11 14.36-5.11 14.36l10.17 27.48a6.85 6.85 0 0 1-1.64 7.41 2.89 2.89 0 0 1-4.15.23c-4-3.21-14.45-25.69-14.45-25.69l-4.19-4.82-5.75-1.43s1 8.39-2.7 9.94l-15.81-13.62L984 664.23s-.34-28.43-3.39-36.27-7.48-19.2-7.48-19.2Z" transform="translate(-287.76 -299)" class="colorfbbd9d svgShape"></path><path fill="#6fadec" d="M1027.55 663.7c.23-.15 3 4.3 5.08 10.42s2.56 11.33 2.28 11.36-1.26-5-3.31-11-4.33-10.63-4.05-10.78ZM1036.69 650.94c.34-.15 1.5 2.56 2.17 6s.92 6.31.64 6.36-1-2.72-1.7-6.14-1.32-6.16-1.11-6.22ZM1027.17 700c-.14.07-1.36-2.15-3.45-5.66s-5-8.33-8.46-13.53c-1.71-2.6-3.38-5.06-4.92-7.28a22 22 0 0 0-4.66-5.24 10.92 10.92 0 0 0-6-2.16 3.49 3.49 0 0 1 1.8-.19 9.7 9.7 0 0 1 4.63 1.73 21 21 0 0 1 5 5.28c1.6 2.2 3.3 4.65 5 7.26 3.44 5.23 6.31 10.12 8.22 13.75s2.96 5.93 2.84 6.04Z" transform="translate(-287.76 -299)" class="colorec996f svgShape"></path><path fill="#6fadec" d="M1003.43 668.54c.18 0 .35 1.65 1.18 4.15a23.35 23.35 0 0 0 5.2 8.74 29.93 29.93 0 0 1 4 4.29 8.64 8.64 0 0 1 1.44 4.67c0 2.76-.53 4.37-.63 4.35s.1-1.69-.13-4.3a8.35 8.35 0 0 0-1.5-4.15 35 35 0 0 0-3.92-4.12 21 21 0 0 1-5.15-9.26c-.71-2.66-.61-4.36-.49-4.37ZM982.7 639.11c-.32 0-.06-5-.92-10.93s-2.37-10.72-1.93-10.78a12.47 12.47 0 0 1 1.25 3 44.27 44.27 0 0 1 1.75 7.66c.88 6.09.15 11.09-.15 11.05Z" transform="translate(-287.76 -299)" class="colorec996f svgShape"></path><g clip-path="url(#a)" fill="#000000" class="color000000 svgShape"><path fill="none" stroke="#fcfdff" stroke-miterlimit="10" d="M564.18 875.57h142.18v142.18H564.18z" transform="rotate(-6.34 -2208.149 3394.741)" class="colorStrokefcfdff svgStroke"></path></g><circle cx="347.52" cy="647.66" r="66.19" fill="none" stroke="#fcfdff" stroke-miterlimit="10" class="colorStrokefcfdff svgStroke"></circle><path fill="#ffffff" stroke="#fcfdff" stroke-miterlimit="10" d="M631.5 912.71c11.06-1.23 12.38-1.34 16.76-1.62a22.79 22.79 0 0 1 7.85.57 13.81 13.81 0 0 1 8.74 7 22.88 22.88 0 0 1 2.28 7.53c.68 4.35.87 5.65 2.1 16.71s1.33 12.37 1.62 16.76a23.32 23.32 0 0 1-.57 7.85 13.81 13.81 0 0 1-7 8.74 23 23 0 0 1-7.54 2.28c-4.34.68-5.65.87-16.71 2.1s-12.37 1.33-16.76 1.62a23.32 23.32 0 0 1-7.85-.57 13.06 13.06 0 0 1-5.11-2.57 12.85 12.85 0 0 1-3.62-4.42 23 23 0 0 1-2.28-7.54c-.69-4.34-.88-5.65-2.1-16.71s-1.34-12.37-1.62-16.76a22.79 22.79 0 0 1 .57-7.85 13.76 13.76 0 0 1 7-8.73 22.88 22.88 0 0 1 7.53-2.28c4.35-.69 5.65-.88 16.71-2.1m-.83-7.47c-11.25 1.25-12.65 1.46-17 2.15a30.53 30.53 0 0 0-9.84 3A21.35 21.35 0 0 0 593 923.89a30.86 30.86 0 0 0-.81 10.27c.29 4.44.4 5.85 1.65 17.1s1.46 12.66 2.15 17a30.45 30.45 0 0 0 3 9.84 21.27 21.27 0 0 0 13.46 10.77 30.6 30.6 0 0 0 10.27.81c4.44-.29 5.85-.4 17.1-1.65s12.66-1.45 17-2.14a30.43 30.43 0 0 0 9.84-3.05 21.27 21.27 0 0 0 10.77-13.46 30.51 30.51 0 0 0 .81-10.26c-.29-4.44-.4-5.86-1.65-17.11s-1.45-12.65-2.14-17a30.51 30.51 0 0 0-3-9.84A21.37 21.37 0 0 0 658 904.4a30.86 30.86 0 0 0-10.27-.81c-4.44.29-5.86.4-17.11 1.65Z" transform="translate(-287.76 -299)" class="colorffffff svgShape colorStrokefcfdff svgStroke"></path><path fill="#ffffff" stroke="#fcfdff" stroke-miterlimit="10" d="M632.91 925.39a21.4 21.4 0 1 0 23.63 18.91 21.41 21.41 0 0 0-23.63-18.91Zm3.9 35.08a13.89 13.89 0 1 1 12.27-15.34 13.88 13.88 0 0 1-12.27 15.34Z" transform="translate(-287.76 -299)" class="colorffffff svgShape colorStrokefcfdff svgStroke"></path><circle cx="367.17" cy="623.1" r="5" fill="#ffffff" stroke="#fcfdff" stroke-miterlimit="10" class="colorffffff svgShape colorStrokefcfdff svgStroke"></circle><circle cx="502.21" cy="470.49" r="66.19" fill="#ffffff" class="colorffffff svgShape"></circle><g fill="#000000" class="color000000 svgShape"><path fill="url(#c)" fill-rule="evenodd" d="M785.42 720.67c-28 2.61-47.88 25.19-45.29 52.94a47.42 47.42 0 0 0 19 34.27 4 4 0 0 1 1.6 2.71l1.1 8.83a4 4 0 0 0 5.91 3l9.48-5.28a4 4 0 0 1 2.64-.44 54.75 54.75 0 0 0 14.59.57c28.05-2.62 47.88-25.19 45.3-52.94s-26.28-46.28-54.33-43.66Z" transform="translate(-287.76 -299)"></path><path fill="#ffffff" fill-rule="evenodd" d="m761.34 785.88 12.46-24.57a7.51 7.51 0 0 1 10.62-3l12.44 7.69a3 3 0 0 0 3.6-.34l14.6-13.39a2.38 2.38 0 0 1 3.73 2.82l-12.47 24.57a7.49 7.49 0 0 1-10.61 3L783.26 775a3 3 0 0 0-3.6.35l-14.6 13.39a2.38 2.38 0 0 1-3.72-2.86Z" transform="translate(-287.76 -299)" class="colorffffff svgShape"></path></g><path fill="#427cb7" stroke="#ffffff" stroke-miterlimit="10" d="M671.1 770a66.19 66.19 0 1 0-70.48 71.86l-4.07-46.07-16.74 1.48-1.68-19.06 16.74-1.48-1.28-14.53c-1.46-16.52 7.57-26.52 22.64-27.85a102.46 102.46 0 0 1 14.87 0l1.43 16.23-8.31.73c-8.19.72-10.3 6-9.84 11.24l1.09 12.37 18.29-1.61-1.24 19.31-15.37 1.38 4.07 46.07A66.19 66.19 0 0 0 671.1 770Z" transform="translate(-287.76 -299)" class="color4272b7 svgShape colorStrokeffffff svgStroke"></path><path fill="#ffffff" stroke="#ffffff" stroke-miterlimit="10" d="m632.52 792.64 1.24-19.31-18.29 1.61-1.09-12.37c-.46-5.21 1.65-10.52 9.84-11.24l8.31-.73-1.43-16.23a102.46 102.46 0 0 0-14.87 0c-15.07 1.33-24.1 11.33-22.64 27.85l1.28 14.53-16.74 1.48 1.68 19.06 16.74-1.48 4.07 46.07a66.63 66.63 0 0 0 10.37-.11 64.82 64.82 0 0 0 10.23-1.71L617.15 794Z" transform="translate(-287.76 -299)" class="colorffffff svgShape colorStrokeffffff svgStroke"></path><circle cx="515.01" cy="633.65" r="66.19" fill="url(#d)" stroke="#ffffff" stroke-miterlimit="10" class="colorStrokeffffff svgStroke"></circle><g data-name="WA Logo" fill="#000000" class="color000000 svgShape"><path fill="#ffffff" fill-rule="evenodd" d="M832.39 905.25a38.12 38.12 0 0 0-61.17 44.4l-5.92 19.6 20.34-4.77a38.12 38.12 0 0 0 18.09 5.11 38.12 38.12 0 0 0 28.65-64.34Zm4 27.07a31.72 31.72 0 0 1-32.49 30.84 31.66 31.66 0 0 1-16-4.84l-1.14-.71-12.06 2.83 3.5-11.6-.72-1.22a31.68 31.68 0 1 1 58.93-15.3Zm-14.5 7.58c-.94-.5-5.56-2.93-6.43-3.27s-1.49-.51-2.15.42-2.54 3-3.11 3.66-1.13.68-2.07.18a26.08 26.08 0 0 1-7.53-4.92 28.8 28.8 0 0 1-5.13-6.73c-.53-1 0-1.47.47-1.94s1-1.08 1.47-1.63a6.24 6.24 0 0 0 1-1.56 1.75 1.75 0 0 0 0-1.67c-.23-.48-2-5.22-2.75-7.14s-1.52-1.65-2.1-1.69-1.19-.07-1.83-.08a3.49 3.49 0 0 0-2.57 1.12 10.71 10.71 0 0 0-3.53 7.86c-.13 4.68 3.17 9.29 3.63 9.94s6.44 10.43 15.89 14.8a52.8 52.8 0 0 0 5.37 2.14 13 13 0 0 0 6 .54c1.83-.23 5.69-2.16 6.54-4.36s.9-4.11.67-4.51-.89-.66-1.83-1.16Z" transform="translate(-287.76 -299)" class="colorffffff svgShape"></path><path fill="none" stroke="#ffffff" stroke-miterlimit="10" d="M832.39 905.25a38.12 38.12 0 0 0-61.17 44.4l-5.92 19.6 20.34-4.77a38.12 38.12 0 0 0 18.09 5.11 38.12 38.12 0 0 0 28.65-64.34Zm4 27.07a31.72 31.72 0 0 1-32.49 30.84 31.66 31.66 0 0 1-16-4.84l-1.14-.71-12.06 2.83 3.5-11.6-.72-1.22a31.68 31.68 0 1 1 58.93-15.3Zm-14.5 7.58c-.94-.5-5.56-2.93-6.43-3.27s-1.49-.51-2.15.42-2.54 3-3.11 3.66-1.13.68-2.07.18a26.08 26.08 0 0 1-7.53-4.92 28.8 28.8 0 0 1-5.13-6.73c-.53-1 0-1.47.47-1.94s1-1.08 1.47-1.63a6.24 6.24 0 0 0 1-1.56 1.75 1.75 0 0 0 0-1.67c-.23-.48-2-5.22-2.75-7.14s-1.52-1.65-2.1-1.69-1.19-.07-1.83-.08a3.49 3.49 0 0 0-2.57 1.12 10.71 10.71 0 0 0-3.53 7.86c-.13 4.68 3.17 9.29 3.63 9.94s6.44 10.43 15.89 14.8a52.8 52.8 0 0 0 5.37 2.14 13 13 0 0 0 6 .54c1.83-.23 5.69-2.16 6.54-4.36s.9-4.11.67-4.51-.89-.66-1.83-1.16Z" transform="translate(-287.76 -299)" class="colorStrokeffffff svgStroke"></path></g><circle cx="672.1" cy="621.98" r="66.19" fill="#0575e6" stroke="#ffffff" stroke-miterlimit="10" class="color4294d0 svgShape colorStrokeffffff svgStroke"></circle><path fill="#ffffff" stroke="#ffffff" stroke-miterlimit="10" d="M952.31 960.67c32-4.81 45.46-33.93 42-56.9-.12-.75-.25-1.5-.39-2.24a35.77 35.77 0 0 0 7.31-10.3 35.12 35.12 0 0 1-9.57 4.24 17.62 17.62 0 0 0 6.2-10.77 35 35 0 0 1-10.4 5.88A17.59 17.59 0 0 0 959.19 907a17.24 17.24 0 0 0 1 3.9 49.91 49.91 0 0 1-38.57-12.77 17.62 17.62 0 0 0 8.88 22.4 17.48 17.48 0 0 1-8.2-1v.22a17.59 17.59 0 0 0 16.51 14.94 17.6 17.6 0 0 1-7.8 1.48 17.6 17.6 0 0 0 18 9.63 35.45 35.45 0 0 1-24.65 11.07 49.78 49.78 0 0 0 27.82 3.79" transform="translate(-287.76 -299)" class="colorffffff svgShape colorStrokeffffff svgStroke"></path><path fill="#fcfdff" d="M722.15 1045.37a11.46 11.46 0 0 1 4-4.54 11.05 11.05 0 0 1 12 .11 10.85 10.85 0 0 1 4.09 5.39l-4.36.08a6.3 6.3 0 0 0-2.43-2.86 6.56 6.56 0 0 0-3.55-.89 7.18 7.18 0 0 0-3.9 1.16 7.37 7.37 0 0 0-2.63 3.19 12.16 12.16 0 0 0 .17 9.54 7.45 7.45 0 0 0 2.74 3.11 7.11 7.11 0 0 0 3.93 1 6.64 6.64 0 0 0 3.52-1 6.28 6.28 0 0 0 2.33-2.94l4.36-.07a10.52 10.52 0 0 1-10.15 7.52 10.52 10.52 0 0 1-5.72-1.5 11.46 11.46 0 0 1-4.16-4.4 13.52 13.52 0 0 1-1.63-6.44 13.72 13.72 0 0 1 1.39-6.46ZM749.94 1037.54l.46 26.13-3.63.07-.46-26.14ZM755 1040.81a2.67 2.67 0 0 1-.7-1.83 2.62 2.62 0 0 1 .64-1.84 2.09 2.09 0 0 1 1.64-.77 2.05 2.05 0 0 1 1.63.71 2.6 2.6 0 0 1 .7 1.82 2.64 2.64 0 0 1-.63 1.85 2.19 2.19 0 0 1-3.28.06Zm3.49 3.26.34 19.46-3.62.06-.34-19.46ZM763.19 1048.42a8.41 8.41 0 0 1 3-3.57 8.92 8.92 0 0 1 9.73.27 8.49 8.49 0 0 1 2.9 4.74l-3.92.07a4.59 4.59 0 0 0-1.56-2.23 4.19 4.19 0 0 0-2.66-.77 4.24 4.24 0 0 0-3.52 1.81 7.94 7.94 0 0 0-1.23 4.91 8.08 8.08 0 0 0 1.4 4.89 4.2 4.2 0 0 0 3.58 1.7 4.05 4.05 0 0 0 4.12-3.14l3.91-.07a8.73 8.73 0 0 1-2.78 4.76 7.85 7.85 0 0 1-5.19 1.84 8 8 0 0 1-4.47-1.17 8.48 8.48 0 0 1-3.1-3.48 13.28 13.28 0 0 1-.19-10.56ZM789.42 1053.28l8.25 9.57-4.9.08-6.63-8.25.14 8.37-3.63.06-.45-26.11 3.63-.07.26 15.19 6.21-8.62 5-.09ZM822.41 1037.87l.06 3.28-5.89.1.37 21.26-3.63.07-.37-21.26-5.91.1-.06-3.29ZM838.81 1043.3a6.53 6.53 0 0 1 2.53 2.78 10.25 10.25 0 0 1 1 4.51l.2 11.48-3.6.06-.18-10.88a6.13 6.13 0 0 0-1.25-4 4.42 4.42 0 0 0-6.45.12 6 6 0 0 0-1.12 4l.19 10.87-3.62.07-.46-26.14 3.63-.06.15 8.93a6.14 6.14 0 0 1 2.31-1.94 7 7 0 0 1 3.09-.73 6.86 6.86 0 0 1 3.58.93ZM862.94 1053.48l-13.4.23a5.73 5.73 0 0 0 1.63 3.72 4.68 4.68 0 0 0 3.46 1.35 4.21 4.21 0 0 0 4.09-2.79l3.91-.07a8.8 8.8 0 0 1-2.8 4.45 7.82 7.82 0 0 1-5.14 1.8 8.29 8.29 0 0 1-4.53-1.17 8.5 8.5 0 0 1-3.17-3.48 11.82 11.82 0 0 1-1.23-5.26 12 12 0 0 1 1-5.3 8.22 8.22 0 0 1 3-3.57 8.54 8.54 0 0 1 4.55-1.31 8.21 8.21 0 0 1 4.44 1.12 8.11 8.11 0 0 1 3.08 3.32 11 11 0 0 1 1.17 5 15.15 15.15 0 0 1-.06 1.96Zm-3.72-3.19a4.74 4.74 0 0 0-5-4.82 4.38 4.38 0 0 0-3.19 1.38 5.76 5.76 0 0 0-1.53 3.61ZM889.72 1050.72a6.62 6.62 0 0 1 1.31 3.89 6.55 6.55 0 0 1-.82 3.39 6.09 6.09 0 0 1-2.49 2.41 8.06 8.06 0 0 1-3.83.93l-8.85.16-.42-24.55 8.43-.14a8.18 8.18 0 0 1 3.89.78 5.89 5.89 0 0 1 2.49 2.23 6.27 6.27 0 0 1 .88 3.18 5.84 5.84 0 0 1-.95 3.55 5.93 5.93 0 0 1-2.7 2.14 4.84 4.84 0 0 1 3.06 2.03Zm-11.3-3.52 4.49-.07a4.08 4.08 0 0 0 2.77-1 3.36 3.36 0 0 0 1-2.62 3.43 3.43 0 0 0-1-2.58 4 4 0 0 0-2.8-.88l-4.49.08Zm8 9.83a3.61 3.61 0 0 0 1-2.78 3.78 3.78 0 0 0-1.16-2.84 4.15 4.15 0 0 0-3-1l-4.77.09.13 7.66 4.9-.08a4.11 4.11 0 0 0 2.87-1.08ZM910.62 1041.41l.34 19.46-3.62.07v-2.3a6.08 6.08 0 0 1-2.21 1.93 6.67 6.67 0 0 1-2.94.74 7.27 7.27 0 0 1-3.72-.89 6.62 6.62 0 0 1-2.63-2.78 10.1 10.1 0 0 1-1-4.5l-.2-11.45 3.59-.06.19 10.84a6.06 6.06 0 0 0 1.25 4 4 4 0 0 0 3.24 1.34 4 4 0 0 0 3.2-1.45 6 6 0 0 0 1.13-4l-.19-10.84ZM919.68 1044.54l.19 10.77a2.24 2.24 0 0 0 .49 1.57 2.11 2.11 0 0 0 1.58.44h2.23l.06 3.35h-2.86a5.12 5.12 0 0 1-3.78-1.21 5.57 5.57 0 0 1-1.38-4.1l-.21-10.76h-2.06l-.06-3.28h2.07l-.09-4.84 3.66-.06.09 4.84 4.26-.08.06 3.29ZM931.52 1044.33l.19 10.77a2.18 2.18 0 0 0 .49 1.57 2.15 2.15 0 0 0 1.58.45h2.23v3.35h-2.86a5.19 5.19 0 0 1-3.78-1.2 5.58 5.58 0 0 1-1.37-4.11l-.19-10.77h-2.07l-.06-3.28h2.07l-.08-4.84 3.66-.06.08 4.84 4.26-.07.06 3.28ZM942.51 1059.39a8.68 8.68 0 0 1-3.22-3.48 11.56 11.56 0 0 1-1.23-5.26 11.25 11.25 0 0 1 1.08-5.28 8.67 8.67 0 0 1 15.53-.28 11.5 11.5 0 0 1 1.27 5.25 11.17 11.17 0 0 1-1.12 5.28 8.92 8.92 0 0 1-3.23 3.61 8.77 8.77 0 0 1-4.58 1.33 8.28 8.28 0 0 1-4.5-1.17Zm7-3.11a5.44 5.44 0 0 0 2-2.26 7.78 7.78 0 0 0 .7-3.62 8 8 0 0 0-.79-3.57 5.18 5.18 0 0 0-2-2.17 4.91 4.91 0 0 0-5.2.09 5 5 0 0 0-1.85 2.24 8.15 8.15 0 0 0-.64 3.59 7.28 7.28 0 0 0 1.53 4.84 4.57 4.57 0 0 0 3.67 1.64 4.86 4.86 0 0 0 2.63-.78ZM971.92 1041a6.42 6.42 0 0 1 2.62 2.78 10.23 10.23 0 0 1 1 4.5l.2 11.48-3.6.06-.19-10.87a6 6 0 0 0-1.25-4 4 4 0 0 0-3.23-1.34 4 4 0 0 0-3.21 1.45 6 6 0 0 0-1.12 4l.19 10.88-3.63.06-.34-19.46 3.63-.06v2.22a6.2 6.2 0 0 1 2.24-1.91 6.74 6.74 0 0 1 2.93-.72 7.22 7.22 0 0 1 3.76.93ZM1002.48 1034.72l.06 3.29-5.89.1.37 21.26-3.63.06-.37-21.26-5.91.11-.06-3.29ZM1009.67 1058.21a8.63 8.63 0 0 1-3.21-3.47 11.56 11.56 0 0 1-1.24-5.26 11.32 11.32 0 0 1 1.08-5.29 8.67 8.67 0 0 1 15.53-.27 11.5 11.5 0 0 1 1.27 5.25 11.19 11.19 0 0 1-1.12 5.28 8.92 8.92 0 0 1-3.23 3.61 8.75 8.75 0 0 1-4.58 1.33 8.2 8.2 0 0 1-4.5-1.18Zm7.05-3.11a5.35 5.35 0 0 0 1.95-2.25 7.78 7.78 0 0 0 .71-3.62 8 8 0 0 0-.8-3.57 5.2 5.2 0 0 0-2-2.18 4.86 4.86 0 0 0-2.62-.69 4.77 4.77 0 0 0-2.58.79 4.94 4.94 0 0 0-1.85 2.24 8.15 8.15 0 0 0-.64 3.59 7.34 7.34 0 0 0 1.53 4.83 4.55 4.55 0 0 0 3.67 1.65 4.87 4.87 0 0 0 2.63-.79ZM726.86 1090.3l.19 10.77a2.2 2.2 0 0 0 .49 1.56 2.15 2.15 0 0 0 1.58.45h2.23l.06 3.36h-2.86a5.16 5.16 0 0 1-3.78-1.21 5.58 5.58 0 0 1-1.38-4.11l-.18-10.77h-2.07l-.06-3.29h2.07l-.09-4.84 3.66-.07.09 4.84 4.26-.07.06 3.28ZM737.85 1105.35a8.59 8.59 0 0 1-3.21-3.48 11.66 11.66 0 0 1-1.24-5.26 11.38 11.38 0 0 1 1.09-5.28 8.7 8.7 0 0 1 3.15-3.59 8.65 8.65 0 0 1 12.37 3.32 11.33 11.33 0 0 1 1.27 5.24 11.14 11.14 0 0 1-1.11 5.28 8.81 8.81 0 0 1-3.24 3.61 8.65 8.65 0 0 1-4.57 1.33 8.29 8.29 0 0 1-4.51-1.17Zm7.06-3.11a5.38 5.38 0 0 0 2-2.26 7.87 7.87 0 0 0 .7-3.61 8 8 0 0 0-.79-3.58 5.31 5.31 0 0 0-2-2.17 5 5 0 0 0-2.62-.7 4.87 4.87 0 0 0-2.59.79 5.18 5.18 0 0 0-1.85 2.24 8.37 8.37 0 0 0-.64 3.6 7.33 7.33 0 0 0 1.54 4.83 4.58 4.58 0 0 0 3.67 1.65 5 5 0 0 0 2.58-.79ZM766.89 1102.53l7.48-.13v3.25l-11.1.19-.43-24.54 3.63-.07ZM780.55 1104.6a8.65 8.65 0 0 1-3.22-3.47 11.56 11.56 0 0 1-1.23-5.26 11.32 11.32 0 0 1 1.08-5.29 8.67 8.67 0 0 1 15.53-.27 11.49 11.49 0 0 1 1.27 5.24 11.21 11.21 0 0 1-1.12 5.29 9 9 0 0 1-3.23 3.61 8.87 8.87 0 0 1-4.58 1.33 8.2 8.2 0 0 1-4.5-1.18Zm7.05-3.1a5.44 5.44 0 0 0 1.95-2.26 7.66 7.66 0 0 0 .7-3.62 7.84 7.84 0 0 0-.79-3.57 5.27 5.27 0 0 0-2-2.18 5 5 0 0 0-5.2.09 5.1 5.1 0 0 0-1.86 2.25 8.3 8.3 0 0 0-.63 3.59 7.23 7.23 0 0 0 1.53 4.83 4.54 4.54 0 0 0 3.67 1.65 5 5 0 0 0 2.63-.78ZM797.37 1090.21a8.36 8.36 0 0 1 3-3.56 8.87 8.87 0 0 1 9.73.27 8.32 8.32 0 0 1 2.9 4.74l-3.91.06a4.6 4.6 0 0 0-1.57-2.23 4.55 4.55 0 0 0-6.17 1 9.72 9.72 0 0 0 .17 9.8 4.2 4.2 0 0 0 3.58 1.71 4.05 4.05 0 0 0 4.11-3.15l3.92-.06a8.83 8.83 0 0 1-2.78 4.76 8.6 8.6 0 0 1-9.67.66 8.42 8.42 0 0 1-3.1-3.48 13.22 13.22 0 0 1-.18-10.56ZM823.6 1095.07l8.25 9.57-4.9.09-6.64-8.26.15 8.37-3.63.07-.46-26.14 3.63-.06.27 15.19 6.21-8.63 5-.09ZM846.68 1088.21l.18 10.77a2.25 2.25 0 0 0 .49 1.56 2.18 2.18 0 0 0 1.59.45h2.22l.06 3.36h-2.86a5.22 5.22 0 0 1-3.78-1.21 5.58 5.58 0 0 1-1.37-4.11l-.19-10.77h-2.07l-.06-3.29h2.07l-.08-4.84 3.66-.07.08 4.84 4.26-.07.06 3.28ZM866.88 1085.2a6.5 6.5 0 0 1 2.53 2.79 10.17 10.17 0 0 1 1 4.5l.2 11.48-3.6.06-.19-10.88a6 6 0 0 0-1.24-4 4.43 4.43 0 0 0-6.45.11 6 6 0 0 0-1.12 4l.19 10.87-3.63.07-.45-26.14 3.62-.06.16 8.94a6.12 6.12 0 0 1 2.3-2 7.1 7.1 0 0 1 3.09-.73 6.88 6.88 0 0 1 3.59.99ZM891 1095.38l-13.4.23a5.68 5.68 0 0 0 1.63 3.72 4.64 4.64 0 0 0 3.46 1.35 4.21 4.21 0 0 0 4.09-2.79l3.91-.07a8.86 8.86 0 0 1-2.8 4.45 7.84 7.84 0 0 1-5.14 1.8 8.29 8.29 0 0 1-4.53-1.17 8.53 8.53 0 0 1-3.18-3.48 11.79 11.79 0 0 1-1.22-5.26 12 12 0 0 1 1-5.3 8.22 8.22 0 0 1 3-3.57 8.54 8.54 0 0 1 4.55-1.31 8.3 8.3 0 0 1 4.44 1.12 8.18 8.18 0 0 1 3.08 3.32 11 11 0 0 1 1.17 5 15.15 15.15 0 0 1-.06 1.96Zm-3.72-3.18a4.74 4.74 0 0 0-5-4.83 4.36 4.36 0 0 0-3.18 1.38 5.76 5.76 0 0 0-1.53 3.61ZM916.35 1098.15l-9.25.16-1.51 5-3.78.06 7.49-24.71 4.2-.08 8.35 24.44-3.82.07Zm-1.07-3.26-3.8-11.35-3.42 11.46ZM931.1 1084.05a7 7 0 0 1 3.58-1 7.35 7.35 0 0 1 4.2 1.18 8.5 8.5 0 0 1 3 3.46 11.78 11.78 0 0 1 1.17 5.17 12.25 12.25 0 0 1-1 5.27 8.72 8.72 0 0 1-2.91 3.65 7.33 7.33 0 0 1-4.16 1.36 7 7 0 0 1-3.58-.84 8.28 8.28 0 0 1-2.59-2.19l.21 12.07-3.62.06-.5-28.71 3.62-.06v2.86a7.65 7.65 0 0 1 2.58-2.28Zm7.49 5.43a5.36 5.36 0 0 0-2-2.19 4.9 4.9 0 0 0-2.64-.71 4.74 4.74 0 0 0-2.58.82 5.62 5.62 0 0 0-1.93 2.29 7.75 7.75 0 0 0-.69 3.51 8 8 0 0 0 .81 3.5 5.61 5.61 0 0 0 2 2.25 4.87 4.87 0 0 0 2.61.73 4.81 4.81 0 0 0 2.61-.84 5.67 5.67 0 0 0 1.93-2.35 7.94 7.94 0 0 0 .69-3.54 7.47 7.47 0 0 0-.81-3.47ZM952.67 1083.67a7 7 0 0 1 3.58-1 7.43 7.43 0 0 1 4.2 1.18 8.57 8.57 0 0 1 3 3.46 11.82 11.82 0 0 1 1.17 5.17 12.25 12.25 0 0 1-1 5.27 8.72 8.72 0 0 1-2.91 3.65 7.34 7.34 0 0 1-4.16 1.37 7 7 0 0 1-3.55-.77 8.44 8.44 0 0 1-2.59-2.2l.21 12.08-3.62.06-.5-28.71 3.62-.07.05 2.87a7.57 7.57 0 0 1 2.5-2.36Zm7.49 5.43a5.63 5.63 0 0 0-2-2.19 4.9 4.9 0 0 0-2.64-.71 4.74 4.74 0 0 0-2.58.82 5.59 5.59 0 0 0-1.93 2.3 7.73 7.73 0 0 0-.69 3.51 8 8 0 0 0 .81 3.5 5.58 5.58 0 0 0 2 2.24 4.78 4.78 0 0 0 2.61.73 4.65 4.65 0 0 0 2.61-.84 5.54 5.54 0 0 0 1.93-2.35 7.94 7.94 0 0 0 .69-3.54 7.5 7.5 0 0 0-.81-3.47ZM971.08 1101.7a6.66 6.66 0 0 1-2.64-2.21 6.05 6.05 0 0 1-1.07-3.18l3.75-.07a2.94 2.94 0 0 0 1.1 2 3.68 3.68 0 0 0 2.45.79 3.77 3.77 0 0 0 2.36-.7 2 2 0 0 0 .82-1.69 1.76 1.76 0 0 0-1-1.61 16.57 16.57 0 0 0-3-1.11 27.44 27.44 0 0 1-3.23-1.11 5.78 5.78 0 0 1-2.18-1.69 4.86 4.86 0 0 1-1-3.06 5.12 5.12 0 0 1 .78-2.86 5.61 5.61 0 0 1 2.33-2.07 8.09 8.09 0 0 1 3.54-.8A6.87 6.87 0 0 1 979 1084a6.3 6.3 0 0 1 2 4.54l-3.62.06a3 3 0 0 0-1-2.06 3.33 3.33 0 0 0-2.34-.74 3.47 3.47 0 0 0-2.18.64 1.9 1.9 0 0 0-.74 1.6 1.85 1.85 0 0 0 .53 1.3 3.51 3.51 0 0 0 1.26.81c.49.19 1.21.43 2.17.72a22.32 22.32 0 0 1 3.16 1.09 5.76 5.76 0 0 1 2.14 1.68 4.81 4.81 0 0 1 1 3 5.38 5.38 0 0 1-.78 3 5.5 5.5 0 0 1-2.3 2.09 8.7 8.7 0 0 1-7.25 0Z" transform="translate(-287.76 -299)" class="colorfcfdff svgShape"></path></svg>