<svg xmlns="http://www.w3.org/2000/svg" enable-background="new 0 0 3000 3000" viewBox="0 0 3000 3000" id="Businessteamsolvecomplexproblem"><path fill="#9bc9f7" d="M2521.53,1405.49c0,0,52.95-77.1,106.1-75.44c3.3,0.1,5.73,3.17,5.12,6.42l-0.02,0.12
						c-0.49,2.62-2.82,4.45-5.48,4.39c-7.32-0.15-21.69,1.15-30.11,12.46c-2.26,3.04-1.92,7.31,0.84,9.9l12.78,11.98
						c4.82,4.51,4.23,12.32-1.21,16.06l-48.25,33.17l-15.38,11.37L2521.53,1405.49z" class="colorf7c19b svgShape"></path><polygon fill="#9bc9f7" points="2832.78 2387.78 2837.86 2460.56 2895.41 2457.74 2891.53 2387.78" class="colorf7c19b svgShape"></polygon><path fill="#373b4c" d="M2899.54,2509.74l-121.46-0.04c-6.15,0-11.14-4.99-11.13-11.14v-5.2c0-1.59,1.63-5,2.87-6l63.73-49.34
						c2.22-1.8,5.1-1.01,7.39,0.7c14.06,10.49,33.69,10.78,53.59,9.77c2.4-0.12,4.65,1.17,5.71,3.32c9,18.35,7.41,35.33,6.75,50.75
						C2906.81,2506.56,2903.55,2509.74,2899.54,2509.74z" class="color37424c svgShape"></path><polygon fill="#9bc9f7" points="2626.24 2387.78 2631.31 2460.56 2688.86 2457.74 2684.98 2387.78" class="colorf7c19b svgShape"></polygon><path fill="#373b4c" d="M2693,2509.74l-121.46-0.04c-6.15,0-11.14-4.99-11.14-11.14v-5.2c0-1.59,1.63-5,2.87-6l63.73-49.34
						c2.22-1.8,5.1-1.01,7.39,0.7c14.06,10.49,33.68,10.78,53.59,9.77c2.4-0.12,4.65,1.17,5.71,3.32c9,18.35,7.42,35.33,6.75,50.75
						C2700.26,2506.56,2697,2509.74,2693,2509.74z" class="color37424c svgShape"></path><polygon fill="#404451" points="2627.68 1792.3 2620.85 2405.91 2696.41 2405.91 2731.46 1958.5 2830.8 2405.91 2897.6 2405.91 2865.46 1821.34 2731.46 1758.09" class="color404251 svgShape"></polygon><path fill="#9bc9f7" d="M2690.63,1392.65c1.58,0.23,2.35,2.05,1.41,3.34l-8.76,21.57c-0.9,1.21-3.09,6.86-2.71,8.03
						c1.12,3.06,1.85,3.88,3.59,6.12c7.52,9.71,20.2,12.22,31.76,12.04c11.87-0.12,22.46-3.1,25-4.1c0.45-0.16,0.77-0.53,0.93-0.96
						l12.96-41.68c0.21-0.65,0.73-1.15,1.39-1.35c31.23-10.41,39.94-48.86,39.94-48.86c14.17-85.43-50.21-89.87-82.46-86.97
						c-10.77,0.97-20.35,7.34-25.48,16.85C2633.79,1377.69,2676.55,1390.74,2690.63,1392.65z" class="colorf7c19b svgShape"></path><path fill="#021b79" d="M2757.17,1337.86l-11.36,23.9c-1.31,2.77-5.02,3.3-7.07,1.02l0,0c-1.04-1.16-1.37-2.79-0.86-4.27
						l6.4-18.52c1.41-4.09,0.49-8.59-2.34-11.87c-5.39-6.25-12.6-17.96-6.22-31.04c1.37-2.82,0.06-6.22-2.87-7.34
						c-10.18-3.9-30.07-12.76-35.53-24.3c-1.01-2.12-2.2-4.15-3.56-6.06c-3.83-5.34-9.8-16.74-0.66-27.11
						c1.51-1.72,3.99-2.23,6.06-1.25l17.43,8.28c1.21,0.58,2.66,0.15,3.37-0.99l8.76-14.15c0.95-1.53,3.11-1.68,4.26-0.3
						l15.21,18.27c3.31,3.97,8.56,5.73,13.6,4.59c10.47-2.37,30.17-3.18,49.91,15.61c17.55,16.71,20.37,43.24,19.88,61.44
						c-0.32,11.93-5.96,23.1-15.3,30.53l-21.89,17.41c-0.81,0.64-1.57,1.35-2.28,2.11c-5.33,5.72-26.23,33.06-36.49,22.65
						c-0.28-0.29-0.34-0.73-0.16-1.09l3-16.74c1.67-3.52,4.33-6.48,7.66-8.5c8.97-5.43,26.01-18.07,14.31-30.07
						c-3.9-4-9.35-6.23-14.93-6.11C2762.09,1334.05,2758.57,1334.91,2757.17,1337.86z" class="color29354e svgShape"></path><path fill="#0575e6" d="M2627.67,1792.3l8.92-112.06l-35.43-118.16l-88.31,40.68c-42.32,19.55-86.41-23.42-67.91-66.27
						l79.78-149.2l56.95,30.18c-51.96,60.3-55.31,103.8-55.31,103.8c62.92-69.74,101.17-86.67,156.94-103.73
						c25.26,23.49,45.14,21.32,65.15-0.07l0,0c142.11,62.86,98.55,247.74,98.55,247.74l28.41,134.7
						C2800.13,1852.44,2717.8,1851.77,2627.67,1792.3z" class="color5a92cb svgShape"></path><polygon fill="#9bc9f7" points="2797.14 1884.01 2792.67 1893.79 2838.88 1923.95 2844.89 1923.95 2847.77 1915.29 2844.89 1905.51 2818.78 1888.62 2799.51 1882.89" class="colorf7c19b svgShape"></polygon><path fill="#0575e6" d="M2748.45,1417.48l50.32,16.43c19.79,6.46,36.98,19.11,49.04,36.08l114.7,161.36
						c15,20.84,16.61,48.46,4.13,70.9l-118.46,213.04l-50.63-31.28l104.83-205.92l-85.48-127.28l-48.08-42.13L2748.45,1417.48z" class="color5a92cb svgShape"></path><rect width="18.43" height="81.55" x="2803.31" y="1870.29" fill="#484c5b" transform="rotate(-57.425 2812.53 1911.039)" class="color48495b svgShape"></rect><g fill="#000000" class="color000000 svgShape"><path fill="#484c5b" d="M1840.64,2512.6c-166.17,0-301.35-135.19-301.35-301.35c0-38.17,7.04-75.24,20.51-109.74
							c-48.02-75.07-75.87-164.22-75.87-259.75c0-34.01-23.1-63.32-56.16-71.27l-388.02-93.36l-61.39-56.23v282.79h-5.72V1607.9
							l69.89,64.01l386.59,93.01c35.65,8.58,60.55,40.18,60.55,76.84c0,92.93,26.69,179.77,72.79,253.22
							c15.06-36.03,37.22-69.09,65.77-97.47c56.89-56.54,132.25-87.62,212.38-87.62c0.63,0,1.26,0,1.89,0.01l212.83,1.3
							c95.02,0.58,175.21,65.83,198.73,153.69c-9-97.29-65.68-184.55-152.43-232.05l-4.93-2.7
							c-182.53-99.95-295.91-291.32-295.91-499.42h5.73c0,206.01,112.25,395.46,292.94,494.4l4.93,2.7
							c96.63,52.92,156.67,154.23,156.67,264.41c0,5.11-0.09,10.21-0.27,15.28c0.18,3.54,0.27,7.1,0.27,10.68
							c0,20.73-3.07,40.77-8.76,59.66C2212.61,2368.72,2043.12,2512.6,1840.64,2512.6z M1563.66,2107.44
							c-12.25,32.74-18.64,67.77-18.64,103.8c0,163.01,132.62,295.63,295.63,295.63c185.58,0,343.08-122.56,395.83-290.97
							c-34.95,64.98-103.61,109.25-182.42,109.25h-86.73C1798.84,2325.15,1650.21,2238.51,1563.66,2107.44z M1566.2,2100.88
							c85.19,131.42,233.17,218.54,401.11,218.54h86.73c90.73,0,167.63-60.35,192.66-143.01c4.63-22.36,7.46-45.38,8.31-68.88
							c-5.55-105.41-93.02-189.97-199.75-190.62l-212.83-1.3c-79.16-0.52-153.96,30.04-210.2,85.94
							C1603.26,2030.37,1580.99,2064.1,1566.2,2100.88z" class="color48495b svgShape"></path><path fill="#484c5b" d="M1954.68,2512.6c-147.03,0-266.64-119.62-266.64-266.64c0-147.03,119.62-266.64,266.64-266.64
							c147.03,0,266.64,119.62,266.64,266.64C2221.33,2392.98,2101.71,2512.6,1954.68,2512.6z M1954.68,1985.04
							c-143.87,0-260.92,117.05-260.92,260.92c0,143.87,117.05,260.92,260.92,260.92s260.92-117.05,260.92-260.92
							C2215.6,2102.08,2098.55,1985.04,1954.68,1985.04z" class="color48495b svgShape"></path><path fill="#484c5b" d="M1826.23,2512.6c-147.03,0-266.64-119.62-266.64-266.64c0-147.03,119.62-266.64,266.64-266.64
							s266.64,119.62,266.64,266.64S1973.26,2512.6,1826.23,2512.6z M1826.23,1985.04c-143.87,0-260.92,117.05-260.92,260.92
							c0,143.87,117.05,260.92,260.92,260.92s260.92-117.05,260.92-260.92C2087.15,2102.08,1970.1,1985.04,1826.23,1985.04z" class="color48495b svgShape"></path><path fill="#484c5b" d="M1826.23,2390.64c-147.03,0-266.64-119.62-266.64-266.64s119.62-266.64,266.64-266.64
							s266.64,119.62,266.64,266.64S1973.26,2390.64,1826.23,2390.64z M1826.23,1863.08c-143.87,0-260.92,117.05-260.92,260.92
							s117.05,260.92,260.92,260.92s260.92-117.05,260.92-260.92S1970.1,1863.08,1826.23,1863.08z" class="color48495b svgShape"></path><path fill="#484c5b" d="M1882.43,2614.32c-147.03,0-266.64-119.62-266.64-266.64s119.62-266.64,266.64-266.64
							s266.64,119.62,266.64,266.64S2029.46,2614.32,1882.43,2614.32z M1882.43,2086.76c-143.87,0-260.92,117.05-260.92,260.92
							s117.05,260.92,260.92,260.92s260.92-117.05,260.92-260.92S2026.3,2086.76,1882.43,2086.76z" class="color48495b svgShape"></path><path fill="#484c5b" d="M2101.57,2614.32c-147.03,0-266.64-119.62-266.64-266.64s119.62-266.64,266.64-266.64
							s266.64,119.62,266.64,266.64S2248.6,2614.32,2101.57,2614.32z M2101.57,2086.76c-143.87,0-260.92,117.05-260.92,260.92
							s117.05,260.92,260.92,260.92s260.92-117.05,260.92-260.92S2245.44,2086.76,2101.57,2086.76z" class="color48495b svgShape"></path></g><g fill="#000000" class="color000000 svgShape"><path fill="#676c7e" d="M1809.47,1366.97L1809.47,1366.97c-59,0-106.82-47.83-106.82-106.82v-138.18h213.64v138.18
										C1916.3,1319.14,1868.47,1366.97,1809.47,1366.97z" class="color67737e svgShape"></path><path fill="#2e5aff" d="M2072.65,842.06c0,85.69-40.99,161.85-104.41,209.88v55.6c0,34.44-27.92,62.32-62.36,62.32H1713.1
											c-34.44,0-62.32-27.88-62.32-62.32v-55.56c-63.5-48.03-104.49-124.15-104.49-209.92c0-145.32,117.84-263.16,263.2-263.16
											C1954.85,578.9,2072.65,696.74,2072.65,842.06z" class="colorffc42e svgShape"></path><g fill="#000000" class="color000000 svgShape"><path fill="#373b4c" d="M1914.12 1212.53l-205.15 26.02c-9.01 1.14-17.24-5.23-18.38-14.25l0 0c-1.14-9.01 5.23-17.24 14.25-18.39l205.15-26.02c9.01-1.14 17.24 5.23 18.38 14.25l0 0C1929.51 1203.15 1923.13 1211.39 1914.12 1212.53zM1914.12 1258.54l-205.15 26.02c-9.01 1.14-17.24-5.23-18.38-14.25l0 0c-1.14-9.01 5.23-17.24 14.25-18.39l205.15-26.02c9.01-1.14 17.24 5.23 18.38 14.25l0 0C1929.51 1249.16 1923.13 1257.39 1914.12 1258.54zM1914.12 1304.54l-205.15 26.02c-9.01 1.14-17.24-5.23-18.38-14.25l0 0c-1.14-9.01 5.23-17.24 14.25-18.39l205.15-26.02c9.01-1.14 17.24 5.23 18.38 14.25l0 0C1929.51 1295.17 1923.13 1303.4 1914.12 1304.54z" class="color37424c svgShape"></path></g><g fill="#000000" class="color000000 svgShape"><path fill="#eceef1" d="M1925.25,799.68c-13.15-3.22-30,1.34-37.9,18.64c-5.17,11.23-15.02,32.77-22.39,64.84
									c-12.9-1.63-25.56-6.76-36.35-15.1c10.14-13.6,15.02-27.15,14.65-40.46c-0.53-17.38-14.33-26.95-27.76-27.44
									c-15.35-0.53-27.19,9.57-28.74,24.63c-1.47,14.25,4.72,29.19,18.32,44.45c-1.43,1.47-2.85,2.85-4.23,4.15
									c-10.71,9.97-24.26,16.16-38.42,18.15c-7.94-25.73-17.87-49.33-30.25-69.44c-7.49-12.17-21.61-17.99-35.94-14.82
									c-14.98,3.38-25.77,15.14-27.44,30c-2.32,20.52,5.09,48.77,53.37,66.6c8.96,3.3,18.24,5.05,27.56,5.33
									c22.59,82.1,26.38,184.64,25.2,260.64h17.34c1.3-75.88-2.48-177.92-25.07-261.82c16.73-2.81,32.6-10.38,45.31-22.18
									c1.71-1.63,3.38-3.26,4.97-4.84c13.03,10.26,28.37,16.65,44.08,18.85c-1.87,10.66-3.46,22.27-4.52,34.8
									c-8.02,66.96-11.52,139.09-14.17,235.2h17.02c2.65-95.37,6.15-167.02,14.12-233.45c1.1-13.07,2.73-24.99,4.72-35.78
									c13.35-0.73,26.5-4.56,38.3-11.56c20.68-12.37,32.24-31.43,33.42-55.2C1951.39,814.74,1938.48,802.94,1925.25,799.68z
									 M1728.08,887.89c-30.45-11.23-44.69-27.64-42.33-48.68c1.06-9.16,8.3-13.92,14.21-15.26c0.85-0.16,2.32-0.45,4.11-0.45
									c4.07,0,9.77,1.3,13.64,7.53c10.79,17.58,19.62,38.22,26.87,60.77C1738.98,891.19,1733.45,889.89,1728.08,887.89z
									 M1816.2,856.06c-9.16-10.83-13.35-20.72-12.46-29.51c0.86-8.67,8.43-9.36,10.79-9.36h0.37c5.09,0.2,11.11,3.17,11.32,10.91
									C1826.5,837.91,1822.19,847.55,1816.2,856.06z M1908.28,874.42c-8.02,4.76-16.81,7.69-25.85,8.79
									c6.76-27.92,15.35-46.73,20.43-57.8c3.26-7.12,8.96-9.65,14.25-9.65c1.42,0,2.81,0.16,4.11,0.49
									c5.94,1.47,12.7,6.72,12.21,16.77C1932.54,851.34,1924.32,864.85,1908.28,874.42z" class="colorecf0f1 svgShape"></path></g><g fill="#000000" class="color000000 svgShape"><path fill="#2e5aff" d="M1801.83 385.68c8.45 25.65 10.52 51.76 10.79 78.3-.23 26.54-2.29 52.65-10.79 78.3-8.49-25.64-10.56-51.76-10.79-78.3C1791.31 437.44 1793.38 411.34 1801.83 385.68L1801.83 385.68zM1486.78 522.5c24.11 12.17 44.04 29.16 62.99 47.74 18.61 18.93 35.6 38.85 47.74 62.99-24.14-12.13-44.07-29.13-62.99-47.74C1515.95 566.54 1498.95 546.62 1486.78 522.5L1486.78 522.5zM1360.77 842.02c25.65-8.45 51.76-10.52 78.3-10.79 26.54.23 52.65 2.3 78.3 10.79-25.65 8.49-51.76 10.56-78.3 10.79C1412.53 852.54 1386.42 850.47 1360.77 842.02L1360.77 842.02zM2258.17 826.74c-25.65 8.45-51.76 10.52-78.3 10.79-26.54-.23-52.65-2.29-78.3-10.79 25.65-8.49 51.76-10.56 78.3-10.79C2206.41 816.22 2232.51 818.29 2258.17 826.74L2258.17 826.74zM2121.34 511.7c-12.17 24.11-29.16 44.04-47.74 62.99-18.93 18.61-38.85 35.6-62.99 47.74 12.13-24.14 29.13-44.07 47.74-62.99C2077.31 540.86 2097.23 523.87 2121.34 511.7L2121.34 511.7z" class="colorffc42e svgShape"></path></g></g><g fill="#000000" class="color000000 svgShape"><path fill="#9bc9f7" d="M944.05,1613.49l9.04,29.1l12.99-1.74c0,0,45.68,8.11,40.43-30.85c-2.05-15.18-22.05-19.67-30.22-6.71
						c-0.11,0.18-0.23,0.37-0.34,0.55c-0.28,0.45-0.97,0.18-0.86-0.34l2.74-12.42c0.47-2.11-0.83-4.22-2.92-4.75l0,0
						c-1.92-0.49-3.92,0.5-4.69,2.34l-5.18,12.37c-1.16,2.77-3.35,4.97-6.11,6.14L944.05,1613.49z" class="colorf7c19b svgShape"></path></g><g fill="#000000" class="color000000 svgShape"><path fill="#9bc9f7" d="M1003.76,1673.6l9.04,29.1l12.99-1.74c0,0,45.68,8.12,40.43-30.85c-2.05-15.18-22.05-19.67-30.22-6.71
						c-0.11,0.18-0.23,0.37-0.34,0.55c-0.28,0.45-0.97,0.18-0.86-0.34l2.74-12.42c0.47-2.11-0.83-4.21-2.92-4.75l0,0
						c-1.92-0.49-3.92,0.5-4.69,2.34l-5.18,12.37c-1.16,2.77-3.35,4.97-6.11,6.14L1003.76,1673.6z" class="colorf7c19b svgShape"></path></g><g fill="#000000" class="color000000 svgShape"><path fill="#eceef1" d="M644.07,1581.47c-0.29,0.11-0.52,0.17-0.74,0.29l0.4-0.74C643.85,1581.18,643.96,1581.3,644.07,1581.47z" class="colorecf0f1 svgShape"></path><rect width="62.22" height="82.39" x="1039.44" y="2348.72" fill="#9bc9f7" transform="rotate(-15.64 1070.519 2389.855)" class="colorf7c19b svgShape"></rect><path fill="#373b4c" d="M1043.86,2430.04l-2.7,45.44c-0.23,3.8,0.55,7.38,2.27,10.41l0,0c4.34,7.66,14.01,10.84,24.39,8.01
								l103.54-28.17c8.85-2.41,17.5-6.54,25.31-12.09l0,0c8.58-6.1,11.82-16.57,7.24-23.38l0,0c-1.87-2.78-4.86-4.63-8.49-5.27
								l-81.54-23.55c-1.95-0.56-4.19-0.49-6.41,0.2l-53.81,16.86C1048.32,2420.17,1044.15,2425.07,1043.86,2430.04z" class="color37424c svgShape"></path><rect width="88.87" height="67.12" x="88.76" y="2346.29" fill="#9bc9f7" transform="rotate(-1.621 132.526 2379.9)" class="colorf7c19b svgShape"></rect><path fill="#373b4c" d="M98.11,2341.52l-46.84-14.71c-3.92-1.23-7.87-1.35-11.49-0.34l0,0c-9.15,2.54-15,11.83-14.76,23.43
								l2.4,115.72c0.2,9.9,2.26,20.02,6.03,29.65l0,0c4.13,10.58,14.24,16.71,22.58,13.69l0,0c3.39-1.23,6.12-3.87,7.74-7.5
								l45.97-79.17c1.1-1.89,1.61-4.25,1.46-6.76l-3.57-60.72C107.27,2348.77,103.23,2343.13,98.11,2341.52z" class="color37424c svgShape"></path><path fill="#616986" d="M472.76,1980.94c-22.71,71.99-35.82,162.67-40.54,269.68c-0.95,21.66-14.85,40.85-35.39,47.8
								c-75.49,25.56-159.06,39.68-249.22,44.49l1.69,77.48l232.17-10.24c58.13-2.57,110.05-37.13,134.84-89.77l103.21-219.11
								l286.72,72.68c18.84,4.77,34.34,18.13,41.85,36.05l80.08,191.16l83.21-16.35l-86.22-240.96
								c-11.67-32.62-36.15-59.06-67.77-73.21l-255.05-114.1c0,0-44.14-17.35-109.67,7.15c-17.31,6.47-34.92,12.13-53.09,15.55
								C515.56,1983.75,485.68,1987.39,472.76,1980.94z" class="color617586 svgShape"></path><g fill="#000000" class="color000000 svgShape"><path fill="#5678fa" d="M472.76,1980.94l41.53-175.56c0,0-11.28-171.24,129.05-223.62c0.23-0.11,0.46-0.17,0.74-0.29
							c0.46,0.69,0.92,1.32,1.37,1.95c15.69,20.84,30.51,25.42,56.68,6.98l93.55,60.11l55.42,35.55l34.52-5.32l123.72-19.07
							l11.05,48.61l-162.77,43.97l-95.84-15.57l-48.89,108.03l-5.9,107.98C609.27,2005.4,532.02,2012.4,472.76,1980.94z" class="colorfa5669 svgShape"></path></g><g fill="#000000" class="color000000 svgShape"><path fill="#092695" d="M645.51,1580.95l-0.06,2.46c-0.46-0.63-0.92-1.26-1.37-1.95
							C644.53,1581.3,645.05,1581.13,645.51,1580.95z" class="color095d95 svgShape"></path><polygon fill="#5678fa" points="961.48 1648.28 885.62 1680.74 851.1 1686.07 795.68 1650.52 951.86 1603.68" class="colorfa5669 svgShape"></polygon></g><g fill="#000000" class="color000000 svgShape"><path fill="#9bc9f7" d="M697.47,1567.48c-1.55-0.06-2.61,1.54-1.94,2.94l11.98,25.41c0.65,1.31,1.17,2.32,0.6,3.37
								c-1.61,2.72-3.44,4.95-5.51,6.78c-8.9,7.93-21.43,8.08-32.43,5.86c-11.3-2.22-20.88-6.94-23.12-8.34
								c-0.4-0.23-0.64-0.64-0.71-1.08l-4.98-42.06c-0.09-0.66-0.5-1.23-1.09-1.54c-27.95-15.47-29.45-53.69-29.45-53.69
								c1.63-84.01,63.82-76.83,94.08-68.35c10.1,2.84,18.11,10.61,21.32,20.59C760.23,1563.36,711.24,1568.15,697.47,1567.48z" class="colorf7c19b svgShape"></path><path fill="#021b79" d="M649.6,1503.5l6.6,24.81c0.76,2.87,4.21,4.04,6.56,2.23l0,0c1.2-0.92,1.8-2.42,1.58-3.92l-2.83-18.8
								c-0.62-4.15,1.06-8.28,4.33-10.91c6.25-5.01,15.2-14.9,11.44-28.51c-0.81-2.93,1.05-5.94,4.04-6.49
								c10.4-1.91,30.95-6.85,38.21-16.88c1.33-1.84,2.83-3.57,4.47-5.15c4.6-4.41,12.32-14.23,5.44-25.75
								c-1.14-1.91-3.41-2.83-5.56-2.26l-18.1,4.81c-1.26,0.33-2.56-0.33-3.03-1.54l-5.85-15.05c-0.63-1.63-2.67-2.15-4.01-1.04
								l-17.75,14.74c-3.86,3.2-9.18,3.95-13.78,1.97c-9.56-4.12-28.22-8.38-50.38,6.05c-19.71,12.83-27.09,37.64-29.86,55.08
								c-1.81,11.44,1.59,23.09,9.19,31.83l17.79,20.48c0.66,0.76,1.26,1.56,1.8,2.41c4.07,6.4,19.17,36.19,30.8,28.07
								c0.32-0.22,0.45-0.64,0.35-1.01l0.1-16.5c-0.97-3.65-2.98-6.95-5.8-9.46c-7.59-6.77-21.61-21.85-8.32-31.23
								c4.43-3.12,10.02-4.28,15.32-3.18C645.58,1498.99,648.79,1500.44,649.6,1503.5z" class="color29354e svgShape"></path></g></g><g fill="#000000" class="color000000 svgShape"><path fill="#5678fa" d="M2766.58,1138.77c-5.71,0-10.34-4.63-10.34-10.34v-20.28c0-13.77,6.92-26.62,18.04-33.51
									c26.45-16.39,25.32-32.71,25.26-33.4c-0.07-0.49-0.07-0.72-0.07-1.21c0-18.14-14.76-32.89-32.89-32.89
									s-32.89,14.76-32.89,32.89c0,5.71-4.63,10.34-10.34,10.34c-5.71,0-10.34-4.63-10.34-10.34c0-29.54,24.03-53.58,53.58-53.58
									c29.41,0,53.36,23.81,53.58,53.16c0.38,5.55,0,30.94-34.98,52.62c-5.09,3.15-8.25,9.25-8.25,15.92v20.28
									C2776.93,1134.14,2772.29,1138.77,2766.58,1138.77z" class="colorfa5669 svgShape"></path><circle cx="2766.63" cy="1163.79" r="15.98" fill="#5678fa" class="colorfa5669 svgShape"></circle><g fill="#000000" class="color000000 svgShape"><path fill="#385ff2" d="M2785.18,1092.22c-5.09,3.15-8.25,9.25-8.25,15.92v20.28c0,5.72-4.63,10.35-10.35,10.35
									c-0.62,0-1.24-0.06-1.84-0.17c4.83-0.86,8.5-5.09,8.5-10.18v-20.28c0-6.67,3.16-12.77,8.25-15.92
									c34.98-21.68,35.36-47.07,34.98-52.61c-0.22-28.74-23.18-52.16-51.74-53.12c0.61-0.03,1.23-0.04,1.84-0.04
									c29.41,0,53.36,23.81,53.58,53.16C2820.53,1045.15,2820.17,1070.54,2785.18,1092.22z" class="colorf2384e svgShape"></path><path fill="#385ff2" d="M2764.74,1007.19c-17.28,0.95-31.05,15.31-31.05,32.83c0,5.72-4.63,10.35-10.34,10.35
									c-0.63,0-1.25-0.06-1.84-0.17c4.84-0.87,8.5-5.09,8.5-10.18c0-18.14,14.75-32.89,32.89-32.89
									C2763.51,1007.13,2764.14,1007.15,2764.74,1007.19z" class="colorf2384e svgShape"></path><g fill="#000000" class="color000000 svgShape"><path fill="#385ff2" d="M2782.61,1163.79c0,8.83-7.16,15.98-15.98,15.98c-0.62,0-1.24-0.04-1.84-0.11
									c7.96-0.91,14.13-7.66,14.13-15.87c0-8.2-6.17-14.95-14.13-15.87c0.6-0.08,1.22-0.11,1.84-0.11
									C2775.45,1147.81,2782.61,1154.97,2782.61,1163.79z" class="colorf2384e svgShape"></path></g></g></g><g fill="#000000" class="color000000 svgShape"><path fill="#484c5b" d="M2006.06,2531.75c-138.86,0-251.83-112.97-251.83-251.83s112.97-251.83,251.83-251.83
			s251.83,112.97,251.83,251.83C2257.89,2418.78,2144.92,2531.75,2006.06,2531.75z M2006.06,2033.81
			c-135.7,0-246.1,110.4-246.1,246.1c0,135.7,110.4,246.11,246.1,246.11s246.11-110.4,246.11-246.11
			C2252.16,2144.22,2141.76,2033.81,2006.06,2033.81z" class="color48495b svgShape"></path></g><g fill="#000000" class="color000000 svgShape"><path fill="#484c5b" d="M1728.83,2531.75c-138.86,0-251.83-112.97-251.83-251.83s112.97-251.83,251.83-251.83
			s251.83,112.97,251.83,251.83C1980.66,2418.78,1867.69,2531.75,1728.83,2531.75z M1728.83,2033.81
			c-135.7,0-246.1,110.4-246.1,246.1c0,135.7,110.4,246.11,246.1,246.11s246.11-110.4,246.11-246.11
			C1974.94,2144.22,1864.54,2033.81,1728.83,2033.81z" class="color48495b svgShape"></path></g><g fill="#000000" class="color000000 svgShape"><path fill="#484c5b" d="M1565.31,2485.84c-138.86,0-251.83-112.97-251.83-251.83s112.97-251.83,251.83-251.83
			s251.83,112.97,251.83,251.83C1817.15,2372.86,1704.17,2485.84,1565.31,2485.84z M1565.31,1987.9
			c-135.7,0-246.11,110.4-246.11,246.11c0,135.7,110.4,246.1,246.11,246.1c135.7,0,246.11-110.4,246.11-246.1
			C1811.42,2098.3,1701.02,1987.9,1565.31,1987.9z" class="color48495b svgShape"></path></g><g fill="#000000" class="color000000 svgShape"><path fill="#484c5b" d="M1621.51,2463.42c-138.86,0-251.83-112.97-251.83-251.83s112.97-251.83,251.83-251.83
			s251.83,112.97,251.83,251.83S1760.37,2463.42,1621.51,2463.42z M1621.51,1965.49c-135.7,0-246.11,110.4-246.11,246.11
			s110.4,246.11,246.11,246.11c135.7,0,246.11-110.4,246.11-246.11S1757.22,1965.49,1621.51,1965.49z" class="color48495b svgShape"></path></g><g fill="#000000" class="color000000 svgShape"><path fill="#484c5b" d="M1633.46,2599.51c-138.86,0-251.83-112.97-251.83-251.83s112.97-251.83,251.83-251.83
			s251.83,112.97,251.83,251.83S1772.32,2599.51,1633.46,2599.51z M1633.46,2101.57c-135.7,0-246.1,110.4-246.1,246.11
			c0,135.7,110.4,246.11,246.1,246.11s246.11-110.4,246.11-246.11S1769.17,2101.57,1633.46,2101.57z" class="color48495b svgShape"></path></g><g fill="#000000" class="color000000 svgShape"><path fill="#484c5b" d="M1678.91,2571.25c-138.86,0-251.83-112.97-251.83-251.83s112.97-251.83,251.83-251.83
			s251.83,112.97,251.83,251.83S1817.77,2571.25,1678.91,2571.25z M1678.91,2073.32c-135.7,0-246.11,110.4-246.11,246.11
			c0,135.7,110.4,246.11,246.11,246.11c135.7,0,246.1-110.4,246.1-246.11C1925.02,2183.72,1814.61,2073.32,1678.91,2073.32z" class="color48495b svgShape"></path></g></svg>