<svg xmlns="http://www.w3.org/2000/svg" enable-background="new 0 0 2000 2000" viewBox="38.097 429.875 1906.397 1419.979" id="DataRestoration"><g opacity=".41" fill="#000000" class="color000000 svgShape"><path fill="#abd5ff" d="M142.16 932.37L142.16 932.37c0-101.28 88.06-183.38 196.68-183.38h41.03c-19.19-15.49-31.35-38.35-31.35-63.87v0c0-46.65 40.56-84.47 90.59-84.47h136.55c-13.81-11.08-22.59-27.47-22.59-45.79 0-33.38 29.02-60.44 64.82-60.44h342.87c35.8 0 64.82 27.06 64.82 60.44 0 33.38-29.02 60.44-64.82 60.44H832.38c-23.9 15.21-39.6 40.8-39.6 69.82v0c0 25.52 12.16 48.38 31.35 63.87h211.14c108.62 0 196.68 82.1 196.68 183.38l0 0c0 101.28-88.06 183.38-196.68 183.38h279.71c50.03 0 90.59 37.82 90.59 84.47 0 46.65-40.56 84.47-90.59 84.47h113.97c124.52 0 227.88 84.17 248.4 194.8h39.91c77.64 0 140.58 58.68 140.58 131.07v13.28c0 72.39-62.94 131.07-140.58 131.07h-288.31H485.4h-91.07c-139.27 0-252.17-105.26-252.17-235.11v0c0-129.85 112.9-235.11 252.17-235.11h441.46c-50.03 0-90.59-37.82-90.59-84.47 0-46.65 40.56-84.47 90.59-84.47H338.84C230.22 1115.75 142.16 1033.65 142.16 932.37zM1144.48 615.3c-32.52 0-58.89-27.06-58.89-60.44 0-33.38 26.37-60.44 58.89-60.44 32.52 0 58.89 27.06 58.89 60.44C1203.37 588.24 1177 615.3 1144.48 615.3z" class="colorabe9ff svgShape"></path></g><path fill="#1f2023" d="M1857.84,1758.35c0,22.45-392.68,26.96-866.46,26.96c-473.77,0-849.22-4.51-849.22-26.96   c0-22.45,383.91-21.75,857.68-21.75C1473.61,1736.6,1857.84,1735.9,1857.84,1758.35z" opacity=".15" class="color231f20 svgShape"></path><path fill="#66a7e8" d="M1768.92,1689.25c2.7-1.97,8.19,0.39,26.02-7.03c26-10.83,36.16-66.79,36.16-66.79     c-39.57-4.95-37.07,52.06-52.38,61.81c-6.91,4.4-10.16,8.66-11.65,12.02H1768.92z" class="color66e8c4 svgShape"></path><path fill="#3f88d2" d="M1818.82,1632.09c-8.14,16.58-17.74,41.04-33.95,48.85c-4.52,2.18-7.83,4.64-10.3,7.06     c3.91-0.48,10.07-1.5,20.36-5.79c26-10.83,36.16-66.79,36.16-66.79S1826.95,1615.51,1818.82,1632.09z" class="color3fd2c5 svgShape"></path><path fill="#358de6" d="M1752.23,1689.25h4.29c2.79-5.93,3.68-17.06-5.64-37.52c-17.25-37.85-25.95-86.94-13.93-101.38     c0,0-41.16,29.33-31.8,59.85C1713.93,1638.84,1758.15,1657.92,1752.23,1689.25z" class="color35bfe6 svgShape"></path><path fill="#0575e6" d="M1753.97,1689.25h2.54c2.79-5.92,3.68-17.06-5.64-37.52c-17.25-37.85-25.95-86.94-13.93-101.38     c0,0-27.16,30.21-16.86,59.14C1730.26,1638.05,1761.62,1652.92,1753.97,1689.25z" class="color0a88d2 svgShape"></path><path fill="#498fd5" d="M1711.59,1673.25c15.66,6.38,22.36,10.62,26.73,16h5.5c-4.11-12.43-6.56-25.72-16.21-35.77     c-10.95-11.41-53.17-30.2-54.62-32.38C1671.54,1618.93,1690.43,1664.63,1711.59,1673.25z" class="color49d3d5 svgShape"></path><path fill="#0f63b8" d="M1738.98,1685.74c0.33,1,0.8,2.2,1.37,3.51h3.46c-4.11-12.43-6.56-25.72-16.21-35.77     c-10.95-11.41-53.17-30.2-54.62-32.38c0,0,20.49,25.7,43.28,37.44C1732.58,1666.96,1736.9,1679.39,1738.98,1685.74z" class="color0fa1b8 svgShape"></path><path fill="#66a7e8" d="M1764.11,1671.31c-0.53,7.49-2.22,13.48-4.02,17.94h3c10.28-13.27,26.09-39.04,23.13-69.12     c-4.33-43.96-9.03-99.07-9.03-99.07s-57.87,43.87-29.39,92.54C1761.99,1637.86,1765.1,1657.21,1764.11,1671.31z" class="color66e8c7 svgShape"></path><path fill="#3f88d2" d="M1767.04,1590.21c5.87,36.43,5.94,77.22-3.41,94.48c1.71-1.21,3.53-2.48,5.39-3.76      c9.42-14.36,19.62-36.12,17.19-60.79c-4.33-43.96-9.03-99.07-9.03-99.07S1759.41,1542.79,1767.04,1590.21z" class="color3fd2c5 svgShape"></path><path fill="#cae1f9" d="M1798.13,1686.58h-65.86c-5.84,0-10.27,5.26-9.27,11.02l8.42,48.47c1.31,6.88,7.33,11.86,14.33,11.86h38.9    c7.01,0,13.02-4.98,14.33-11.86l8.42-48.47C1808.39,1691.84,1803.97,1686.58,1798.13,1686.58z" class="colorcadbf9 svgShape"></path><path fill="#a1c6eb" d="M1807.52,1696.31c0.19-5.23-3.99-9.73-9.39-9.73h-65.86c-5.4,0-9.58,4.5-9.39,9.73H1807.52z" class="colora1b7eb svgShape"></path><path fill="#a1c6eb" d="M1798.13,1686.58h-18.31c5.84,0,10.27,5.26,9.27,11.02l-8.42,48.47c-1.31,6.88-7.32,11.86-14.33,11.86h18.31    c7.01,0,13.02-4.98,14.33-11.86l8.42-48.47C1808.39,1691.84,1803.97,1686.58,1798.13,1686.58z" class="colora1b7eb svgShape"></path><g fill="#000000" class="color000000 svgShape"><path fill="#66a7e8" d="M220.76,1689.25c2.7-1.97,8.19,0.39,26.02-7.03c26-10.83,36.16-66.79,36.16-66.79     c-39.57-4.95-37.07,52.06-52.38,61.81c-6.91,4.4-10.16,8.66-11.65,12.02H220.76z" class="color66e8c4 svgShape"></path><path fill="#3f88d2" d="M270.67,1632.09c-8.14,16.58-17.74,41.04-33.95,48.85c-4.52,2.18-7.83,4.64-10.3,7.06     c3.91-0.48,10.07-1.5,20.36-5.79c26-10.83,36.16-66.79,36.16-66.79S278.8,1615.51,270.67,1632.09z" class="color3fd2c5 svgShape"></path><path fill="#358de6" d="M204.07,1689.25h4.29c2.79-5.93,3.68-17.06-5.64-37.52c-17.25-37.85-25.95-86.94-13.93-101.38     c0,0-41.16,29.33-31.8,59.85C165.78,1638.84,209.99,1657.92,204.07,1689.25z" class="color35bfe6 svgShape"></path><path fill="#0575e6" d="M205.82,1689.25h2.54c2.79-5.92,3.68-17.06-5.64-37.52c-17.25-37.85-25.95-86.94-13.93-101.38     c0,0-27.17,30.21-16.86,59.14C182.11,1638.05,213.47,1652.92,205.82,1689.25z" class="color0a88d2 svgShape"></path><path fill="#498fd5" d="M163.43,1673.25c15.66,6.38,22.36,10.62,26.73,16h5.5c-4.11-12.43-6.56-25.72-16.21-35.77     c-10.95-11.41-53.17-30.2-54.62-32.38C123.38,1618.93,142.28,1664.63,163.43,1673.25z" class="color49d3d5 svgShape"></path><path fill="#0f63b8" d="M190.83,1685.74c0.33,1,0.8,2.2,1.37,3.51h3.46c-4.11-12.43-6.56-25.72-16.21-35.77     c-10.95-11.41-53.17-30.2-54.62-32.38c0,0,20.49,25.7,43.28,37.44C184.43,1666.96,188.75,1679.39,190.83,1685.74z" class="color0fa1b8 svgShape"></path><path fill="#66a7e8" d="M215.96,1671.31c-0.53,7.49-2.22,13.48-4.02,17.94h3c10.28-13.27,26.09-39.04,23.13-69.12     c-4.33-43.96-9.03-99.07-9.03-99.07s-57.86,43.87-29.39,92.54C213.84,1637.86,216.95,1657.21,215.96,1671.31z" class="color66e8c7 svgShape"></path><path fill="#3f88d2" d="M218.89,1590.21c5.87,36.43,5.94,77.22-3.41,94.48c1.71-1.21,3.53-2.48,5.39-3.76      c9.42-14.36,19.62-36.12,17.19-60.79c-4.33-43.96-9.03-99.07-9.03-99.07S211.26,1542.79,218.89,1590.21z" class="color3fd2c5 svgShape"></path><path fill="#cae1f9" d="M249.97,1686.58h-65.86c-5.84,0-10.27,5.26-9.27,11.02l8.42,48.47c1.31,6.88,7.33,11.86,14.33,11.86h38.9    c7.01,0,13.02-4.98,14.33-11.86l8.42-48.47C260.24,1691.84,255.81,1686.58,249.97,1686.58z" class="colorcadbf9 svgShape"></path><path fill="#a1c6eb" d="M259.37,1696.31c0.19-5.23-3.99-9.73-9.39-9.73h-65.86c-5.4,0-9.58,4.5-9.39,9.73H259.37z" class="colora1b7eb svgShape"></path><path fill="#a1c6eb" d="M249.97,1686.58h-18.31c5.84,0,10.27,5.26,9.27,11.02l-8.42,48.47c-1.31,6.88-7.32,11.86-14.33,11.86h18.31    c7.01,0,13.02-4.98,14.33-11.86l8.42-48.47C260.24,1691.84,255.81,1686.58,249.97,1686.58z" class="colora1b7eb svgShape"></path></g><g fill="#000000" class="color000000 svgShape"><path fill="#a9c9ea" d="M1594,709.19c-7.12,5.91-13.26,13.1-18.02,21.37l-26.75-3.53l-7.45,23.97l23.93,12.19     c-0.85,9.59,0.07,19.09,2.57,28.07l-21.32,16.35l11.67,22.21l25.68-8.35c5.98,7.04,13.24,13.08,21.57,17.73l-3.57,26.97     l23.96,7.45l12.5-24.53c9.3,0.69,18.48-0.29,27.19-2.74l16.92,22.07l22.21-11.68l-8.69-26.76c6.69-5.78,12.47-12.72,16.98-20.65     l28.08,3.71l7.45-23.97l-25.35-12.92c0.7-9-0.16-17.91-2.42-26.37l22.59-17.32l-11.67-22.21l-26.93,8.76     c-5.7-6.77-12.58-12.63-20.44-17.24l3.69-27.87l-23.96-7.45l-12.62,24.77c-9.3-0.86-18.5-0.03-27.25,2.27l-16.73-21.84     l-22.22,11.68L1594,709.19z M1656.38,732.23c20.91,6.5,32.58,28.71,26.08,49.62c-6.5,20.91-28.72,32.59-49.63,26.1     c-20.91-6.5-32.58-28.71-26.08-49.62C1613.26,737.42,1635.47,725.74,1656.38,732.23z" class="colora9ceea svgShape"></path><path fill="#c9def4" d="M1603.98,713.15c-7.12,5.91-13.26,13.1-18.02,21.37l-26.75-3.53l-7.45,23.97l23.93,12.19     c-0.85,9.59,0.07,19.08,2.57,28.07l-21.32,16.35l11.67,22.21l25.68-8.35c5.98,7.04,13.24,13.08,21.57,17.73l-3.57,26.97     l23.96,7.45l12.5-24.53c9.3,0.69,18.48-0.29,27.19-2.74l16.92,22.07l22.21-11.68l-8.69-26.76c6.69-5.78,12.47-12.72,16.98-20.65     l28.08,3.71l7.45-23.97l-25.35-12.92c0.7-9-0.16-17.91-2.42-26.37l22.59-17.32l-11.67-22.21l-26.93,8.75     c-5.7-6.77-12.58-12.63-20.44-17.24l3.69-27.87l-23.96-7.44l-12.62,24.76c-9.3-0.85-18.5-0.03-27.25,2.27l-16.73-21.84     l-22.21,11.68L1603.98,713.15z M1666.36,736.19c20.91,6.5,32.58,28.71,26.08,49.62c-6.5,20.91-28.72,32.59-49.63,26.1     c-20.91-6.5-32.58-28.71-26.08-49.62C1623.23,741.38,1645.45,729.7,1666.36,736.19z" class="colorc9e2f4 svgShape"></path><polygon fill="#a9c9ea" points="1692.87 872.38 1687.84 865.82 1682.89 868.42" class="colora9ceea svgShape"></polygon><polygon fill="#a9c9ea" points="1568.61 833.78 1558.63 829.82 1565.38 827.62" class="colora9ceea svgShape"></polygon><polygon fill="#a9c9ea" points="1612.3 870.13 1602.32 866.17 1612.41 869.31" class="colora9ceea svgShape"></polygon><polygon fill="#a9c9ea" points="1742.05 714.21 1732.08 710.25 1735.31 716.4" class="colora9ceea svgShape"></polygon><polygon fill="#a9c9ea" points="1617.8 675.6 1607.82 671.64 1612.85 678.21" class="colora9ceea svgShape"></polygon><polygon fill="#a9c9ea" points="1698.37 677.86 1688.39 673.9 1688.28 674.72" class="colora9ceea svgShape"></polygon></g><g fill="#000000" class="color000000 svgShape"><path fill="#a9c9ea" d="M1457.6,588.15c-4.86,4.03-9.05,8.94-12.3,14.59l-18.26-2.41l-5.09,16.36l16.33,8.32     c-0.58,6.55,0.05,13.03,1.76,19.16l-14.56,11.16l7.97,15.16l17.53-5.7c4.08,4.8,9.04,8.93,14.73,12.11l-2.44,18.41l16.36,5.08     l8.53-16.74c6.35,0.47,12.62-0.2,18.56-1.87l11.55,15.07l15.16-7.97l-5.93-18.27c4.57-3.95,8.51-8.68,11.59-14.09l19.17,2.53     l5.09-16.36l-17.3-8.82c0.48-6.15-0.11-12.22-1.65-18l15.42-11.82l-7.97-15.16l-18.39,5.98c-3.89-4.62-8.58-8.62-13.96-11.77     l2.52-19.03l-16.36-5.08l-8.62,16.91c-6.35-0.58-12.63-0.02-18.6,1.55l-11.42-14.91l-15.16,7.97L1457.6,588.15z M1500.17,603.88     c14.27,4.43,22.24,19.6,17.8,33.87c-4.44,14.27-19.61,22.25-33.88,17.82c-14.27-4.43-22.24-19.6-17.8-33.87     C1470.74,607.42,1485.9,599.45,1500.17,603.88z" class="colora9ceea svgShape"></path><path fill="#c9def4" d="M1464.41,590.85c-4.86,4.03-9.05,8.94-12.3,14.59l-18.26-2.41l-5.09,16.36l16.33,8.32     c-0.58,6.55,0.05,13.03,1.76,19.16l-14.56,11.16l7.97,15.16l17.53-5.7c4.08,4.8,9.04,8.93,14.73,12.11l-2.44,18.41l16.36,5.08     l8.53-16.74c6.35,0.47,12.62-0.2,18.56-1.87l11.55,15.07l15.16-7.97l-5.93-18.27c4.57-3.95,8.51-8.68,11.59-14.09l19.17,2.53     l5.09-16.36l-17.3-8.82c0.48-6.14-0.11-12.22-1.65-18l15.42-11.82l-7.97-15.16l-18.39,5.98c-3.89-4.62-8.58-8.62-13.96-11.77     l2.52-19.03l-16.36-5.08l-8.62,16.9c-6.35-0.58-12.63-0.02-18.6,1.55l-11.42-14.91l-15.16,7.97L1464.41,590.85z M1506.99,606.58     c14.27,4.44,22.24,19.6,17.8,33.87c-4.44,14.27-19.61,22.25-33.88,17.82c-14.27-4.43-22.24-19.6-17.8-33.87     C1477.55,610.13,1492.72,602.15,1506.99,606.58z" class="colorc9e2f4 svgShape"></path><polygon fill="#a9c9ea" points="1525.08 699.55 1521.65 695.07 1518.27 696.85" class="colora9ceea svgShape"></polygon><polygon fill="#a9c9ea" points="1440.26 673.2 1433.45 670.49 1438.05 669" class="colora9ceea svgShape"></polygon><polygon fill="#a9c9ea" points="1470.08 698.01 1463.27 695.31 1470.16 697.45" class="colora9ceea svgShape"></polygon><polygon fill="#a9c9ea" points="1558.66 591.58 1551.85 588.88 1554.05 593.08" class="colora9ceea svgShape"></polygon><polygon fill="#a9c9ea" points="1473.84 565.22 1467.03 562.52 1470.46 567" class="colora9ceea svgShape"></polygon><polygon fill="#a9c9ea" points="1528.84 566.76 1522.03 564.06 1521.95 564.62" class="colora9ceea svgShape"></polygon></g><g fill="#000000" class="color000000 svgShape"><path fill="#a4ccf4" d="M1470.86,1053.49l-24.69,17.85l-25.3-15.61l-1.84-34.23c-29.02,28.55-23.5,52.02-2.21,75.08    c21.28,23.06,21.6,99.05,22.88,158.77c1.28,59.71-10.07,48.76-26.71,84.44c-16.64,35.67,19.63,59.57,19.63,59.57l-0.35-36.05    l23.39-17.98l25.82,16.97l0.54,34.11c47.56-37.19,7.98-73.86-4.6-85.58c-12.59-11.73-10.86-121.56-10.3-160.14    c0.55-38.58,2.56-39.03,23.61-72.96c21.05-33.93-20.34-58.99-20.34-58.99L1470.86,1053.49z" class="colora4caf4 svgShape"></path><path fill="#83b8ed" d="M1470.38,1018.74l0.48,34.75l-24.69,17.85l-25.3-15.61c58.5,40.34,30.51,175.24,34.31,229.31    c2.57,36.53-19.79,42.05-34.48,40.46c-2.41,3.86-4.99,8.44-7.72,14.28c-16.64,35.67,19.63,59.57,19.63,59.57l-0.35-36.05    l23.39-17.98l25.82,16.97l0.54,34.11c47.56-37.19,7.98-73.86-4.6-85.58c-12.59-11.73-10.86-121.56-10.3-160.14    c0.55-38.58,2.56-39.03,23.61-72.96C1511.77,1043.8,1470.38,1018.74,1470.38,1018.74z" class="color83b6ed svgShape"></path><path fill="#5f9edd" d="M1456,1338.49l-28.83,23.33l0.9,34c2.68,2.3,4.54,3.54,4.54,3.54l-0.35-36.05l23.39-17.98l25.82,16.97    l0.54,34.11c1.12-0.87,2.14-1.74,3.16-2.61l-0.59-36.42L1456,1338.49z" class="color5f9bdd svgShape"></path><polygon fill="#4788c9" points="1481.47 1362.3 1484.58 1357.37 1456 1338.49 1455.65 1345.33" class="color478cc9 svgShape"></polygon><path fill="#5f9edd" d="M1475.55,1022.41c-3.04-2.38-5.16-3.67-5.16-3.67l0.48,34.75l-24.69,17.85l-25.3-15.61l-1.84-34.23    c-0.87,0.86-1.71,1.71-2.52,2.56l0.44,34.88l30.17,19.36l27.73-22.13L1475.55,1022.41z" class="color5f9bdd svgShape"></path><polygon fill="#4788c9" points="1447.12 1078.31 1446.17 1071.34 1420.87 1055.73 1416.95 1058.94" class="color478cc9 svgShape"></polygon></g><g fill="#000000" class="color000000 svgShape"><path fill="#92c4f7" d="M773.97,1547.05c0,0,15.69,44.51-24.65,157.81h262.17c0,0-47.06-44.51-35.85-157.81H773.97z" class="color92bff7 svgShape"></path><path fill="#5f9edd" d="M974.12,1591.4c-0.47-13.45-0.09-28.18,1.51-44.36H773.97c0,0,4.72,13.47,2.3,44.36H974.12z" class="color5f9bdd svgShape"></path><path fill="#92c4f7" d="M1344.84,1564.34h-946.8c-13.18,0-23.86-10.68-23.86-23.86V980.19c0-11.51,9.33-20.84,20.84-20.84h952.84     c11.51,0,20.84,9.33,20.84,20.84v560.29C1368.7,1553.65,1358.02,1564.34,1344.84,1564.34z" class="color92bff7 svgShape"></path><path fill="#527da8" d="M382.85,1549.35V987.69c0-11.16,9.63-20.2,21.5-20.2h951.52c3.7,0,7.13,0.96,10.17,2.51     c-3.64-6.31-10.66-10.65-18.83-10.65H395.68c-11.87,0-21.5,9.04-21.5,20.2v561.66c0,8.48,4.87,15.87,12.11,19.89     C384.12,1557.66,382.85,1553.65,382.85,1549.35z" class="color5283a8 svgShape"></path><path fill="#021b79" d="M1325.02,1486.74H417.86c-0.61,0-1.11-0.5-1.11-1.11V995.79c0-0.62,0.5-1.11,1.11-1.11h907.16     c0.62,0,1.11,0.5,1.11,1.11v489.83C1326.13,1486.24,1325.64,1486.74,1325.02,1486.74z" class="color1d3b77 svgShape"></path><path fill="#293e8c" d="M1325.06,1486.74H417.82c-0.59,0-1.07-0.48-1.07-1.07v-455.11c0-0.59,0.48-1.07,1.07-1.07h907.24     c0.59,0,1.07,0.48,1.07,1.07v455.11C1326.13,1486.25,1325.65,1486.74,1325.06,1486.74z" class="color29478c svgShape"></path><polygon fill="#83b8ed" points="616 1694.96 594.71 1743.78 1136.97 1743.78 1115.68 1694.96" class="color83b6ed svgShape"></polygon><path fill="#5f9edd" d="M899.38,1524.24c0,10.62-8.5,19.24-18.98,19.24c-10.48,0-18.98-8.61-18.98-19.24     c0-10.62,8.5-19.24,18.98-19.24C890.88,1505.01,899.38,1513.62,899.38,1524.24z" class="color5f9bdd svgShape"></path><g fill="#000000" class="color000000 svgShape"><path fill="#9ac6f3" d="M961.79,1127.69c0,12.68-10.28,22.97-22.97,22.97c-12.68,0-22.96-10.28-22.96-22.97     c0-12.68,10.28-22.97,22.96-22.97C951.5,1104.73,961.79,1115.01,961.79,1127.69z" class="color9b9af3 svgShape"></path><path fill="#c4def9" d="M836.75,1124.29c0,12.68-10.28,22.97-22.97,22.97c-12.68,0-22.97-10.28-22.97-22.97     c0-12.68,10.28-22.97,22.97-22.97C826.47,1101.33,836.75,1111.61,836.75,1124.29z" class="colorc6c4f9 svgShape"></path><path fill="#e6f1fc" d="M897,1278.24c0,12.68-10.28,22.97-22.97,22.97c-12.68,0-22.96-10.28-22.96-22.97     c0-12.68,10.28-22.96,22.96-22.96C886.72,1255.28,897,1265.56,897,1278.24z" class="colore6e9fc svgShape"></path><path fill="#ffffff" d="M959.38,1255.28c0,12.68-10.28,22.96-22.97,22.96c-12.68,0-22.97-10.28-22.97-22.96     c0-12.68,10.28-22.96,22.97-22.96C949.09,1232.31,959.38,1242.59,959.38,1255.28z" class="colorffffff svgShape"></path><path fill="#d3e7fc" d="M832.08,1252.44c0,12.68-10.28,22.96-22.97,22.96c-12.68,0-22.97-10.28-22.97-22.96     c0-12.68,10.28-22.97,22.97-22.97C821.79,1229.48,832.08,1239.76,832.08,1252.44z" class="colord3d6fc svgShape"></path><path fill="#b6d6f7" d="M901.4,1101.33c0,12.68-10.28,22.97-22.96,22.97c-12.68,0-22.97-10.28-22.97-22.97     c0-12.68,10.28-22.97,22.97-22.97C891.11,1078.36,901.4,1088.64,901.4,1101.33z" class="colorbcb6f7 svgShape"></path><path fill="#c4def9" d="M807.55,1188.37c0,12.68-10.28,22.97-22.97,22.97c-12.68,0-22.96-10.28-22.96-22.97     c0-12.68,10.28-22.96,22.96-22.96C797.27,1165.4,807.55,1175.68,807.55,1188.37z" class="colorc6c4f9 svgShape"></path></g><g fill="#000000" class="color000000 svgShape"><path fill="#e8f0f9" d="M1059.97,1414.56H682.91c-6.94,0-12.57,5.63-12.57,12.57l0,0c0,6.94,5.63,12.57,12.57,12.57h377.05     c6.94,0,12.57-5.63,12.57-12.57S1066.91,1414.56,1059.97,1414.56z" class="colore8eaf9 svgShape"></path><path fill="#3c64fc" d="M903.33,1414.56H682.91c-6.94,0-12.57,5.63-12.57,12.57s5.63,12.57,12.57,12.57h220.41V1414.56z" class="colorfc6e3c svgShape"></path></g><g fill="#000000" class="color000000 svgShape"><path fill="#e6f1fc" d="M790.58 1348.56c1.65-.29 4.12-.5 6.66-.5 3.47 0 5.84.57 7.45 1.93 1.32 1.11 2.08 2.79 2.08 4.84 0 3.12-2.11 5.23-4.37 6.05v.11c1.72.65 2.76 2.33 3.37 4.66.75 3.01 1.4 5.8 1.9 6.73h-4.55c-.36-.72-.93-2.69-1.61-5.69-.68-3.15-1.83-4.16-4.33-4.23h-2.22v9.92h-4.37V1348.56zM794.95 1359.24h2.61c2.97 0 4.84-1.58 4.84-3.98 0-2.65-1.86-3.87-4.73-3.87-1.4 0-2.29.11-2.72.21V1359.24zM824.45 1361.67h-9.1v7.09h10.17v3.62h-14.58v-24.14h14.04v3.62h-9.64v6.23h9.1V1361.67zM846.69 1371.66c-1.04.54-3.33 1.08-6.23 1.08-7.67 0-12.32-4.8-12.32-12.14 0-7.95 5.52-12.75 12.89-12.75 2.9 0 4.98.61 5.87 1.08l-.97 3.51c-1.15-.5-2.72-.93-4.73-.93-4.91 0-8.45 3.08-8.45 8.88 0 5.3 3.12 8.7 8.42 8.7 1.79 0 3.65-.36 4.8-.9L846.69 1371.66zM870.93 1360.06c0 8.09-4.91 12.72-11.57 12.72-6.81 0-11.1-5.19-11.1-12.29 0-7.42 4.66-12.64 11.46-12.64C866.77 1347.84 870.93 1353.18 870.93 1360.06zM852.91 1360.42c0 4.91 2.47 8.81 6.7 8.81 4.26 0 6.66-3.94 6.66-8.99 0-4.55-2.26-8.85-6.66-8.85C855.24 1351.39 852.91 1355.44 852.91 1360.42zM880.12 1372.38l-7.81-24.14h4.8l3.29 10.96c.93 3.04 1.72 5.87 2.36 8.81h.07c.64-2.87 1.5-5.8 2.47-8.74l3.51-11.03h4.69l-8.35 24.14H880.12zM909.62 1361.67h-9.1v7.09h10.17v3.62h-14.58v-24.14h14.04v3.62h-9.64v6.23h9.1V1361.67zM914.56 1348.56c1.65-.29 4.12-.5 6.66-.5 3.47 0 5.84.57 7.45 1.93 1.33 1.11 2.08 2.79 2.08 4.84 0 3.12-2.11 5.23-4.37 6.05v.11c1.72.65 2.76 2.33 3.37 4.66.75 3.01 1.4 5.8 1.9 6.73h-4.55c-.36-.72-.93-2.69-1.61-5.69-.68-3.15-1.83-4.16-4.34-4.23h-2.22v9.92h-4.37V1348.56zM918.93 1359.24h2.61c2.97 0 4.84-1.58 4.84-3.98 0-2.65-1.86-3.87-4.73-3.87-1.4 0-2.29.11-2.72.21V1359.24zM939.87 1372.38v-10.06l-7.63-14.08h5.01l2.9 6.2c.82 1.79 1.43 3.15 2.08 4.8h.07c.61-1.54 1.29-3.05 2.11-4.8l2.9-6.2h4.98l-8.02 13.97v10.17H939.87z" class="colore6e9fc svgShape"></path></g></g><g fill="#000000" class="color000000 svgShape"><polygon fill="#4469f3" points="712.95 1735.98 487.56 1736.88 486.84 1558.24 486.78 1543.06 531.59 1542.88 552.39 1557.98 712.23 1557.33" class="colorf3b344 svgShape"></polygon><rect width="210.17" height="10.62" x="494.79" y="1574.57" fill="#f1f1f2" transform="matrix(1 -.00402 .00402 1 -6.349 2.425)" class="colorf1f2f2 svgShape"></rect><path fill="#0034f9" d="M717.51,1742.82l-239.13,0.96c-3.77,0.02-6.85-3.17-6.86-7.12l-0.58-143.81c-0.02-3.95,3.03-7.16,6.81-7.17    l239.13-0.96c3.77-0.02,6.85,3.17,6.86,7.12l0.58,143.81C724.33,1739.6,721.28,1742.81,717.51,1742.82z" class="colorf9a300 svgShape"></path><path fill="#0036ff" d="M709.77,1727.14L478,1728.07c-3.6,0.01-6.54-2.9-6.55-6.5l-0.52-129.34c-0.02-3.6,2.9-6.54,6.5-6.55    l231.76-0.93c3.6-0.01,6.54,2.9,6.55,6.5l0.52,129.34C716.28,1724.19,713.37,1727.13,709.77,1727.14z" class="colorffc300 svgShape"></path><path fill="#81bffd" d="M566.56,1630.04c14.8-13.06,20.89-30.4,30.16-44.83l-119.29,0.48c-3.61,0.01-6.52,2.95-6.5,6.55l0.38,93.28    C490.77,1676.42,532.73,1659.88,566.56,1630.04z" class="colorfddb81 svgShape"></path></g><g fill="#000000" class="color000000 svgShape"><path fill="#5c7fa2" d="M1240.99,1723.32v-442.61c0-11.3,9.16-20.46,20.46-20.46h-24.43c-11.3,0-20.46,9.16-20.46,20.46v442.61    c0,11.3,9.16,20.46,20.46,20.46h24.43C1250.16,1743.78,1240.99,1734.62,1240.99,1723.32z" class="color5c6ba2 svgShape"></path><path fill="#97bce2" d="M1536.54,1743.78h-275.08c-11.3,0-20.46-9.16-20.46-20.46v-442.61c0-11.3,9.16-20.46,20.46-20.46h275.08    c11.3,0,20.46,9.16,20.46,20.46v442.61C1557.01,1734.62,1547.84,1743.78,1536.54,1743.78z" class="color97b3e2 svgShape"></path><path fill="#cadbec" d="M1556.33,1275.56c-2.29-8.81-10.26-15.32-19.79-15.32h-85.59l-205.73,475.5c3.74,4.88,9.61,8.04,16.24,8.04    h92.29L1556.33,1275.56z" class="colorcaddec svgShape"></path><polygon fill="#cadbec" points="1240.99 1687.86 1426 1260.25 1384.42 1260.25 1240.99 1522.97" class="colorcaddec svgShape"></polygon><path fill="#2c3b74" d="M1515.44,1531.84c0.21,0,0.42,0.03,0.63,0.03v-61.47c0.3-3.38,0.48-6.8,0.48-10.26    c0-3.46-0.18-6.88-0.48-10.26v-3.3c0-1.69-0.35-3.29-0.97-4.75c-8.79-55.69-56.99-98.28-115.16-98.28    c-58.16,0-106.37,42.59-115.16,98.28c-0.62,1.46-0.97,3.07-0.97,4.75v3.3c-0.3,3.38-0.48,6.8-0.48,10.26    c0,3.46,0.18,6.88,0.48,10.26v61.44c12.27,0,22.21,9.94,22.21,22.21c0,12.27-9.94,22.21-22.21,22.21v68.22    c11.95,0,21.66,9.44,22.16,21.26h187.29c0.5-11.82,10.22-21.26,22.16-21.26c0.21,0,0.42,0.03,0.63,0.03v-68.28    c-0.21,0.01-0.42,0.03-0.63,0.03c-12.27,0-22.21-9.94-22.21-22.21C1493.23,1541.78,1503.18,1531.84,1515.44,1531.84z" class="color2c3874 svgShape"></path><path fill="#97bce2" d="M1409.41,1626.73h-28.08v-28.24c0-4.92-4.03-8.9-9-8.9h-64.27c-4.97,0-9,3.99-9,8.9v34.58v5.36v2.57    c0,3.5,2.87,6.33,6.4,6.33h2.6h64.27h37.08c3.54,0,6.4-2.84,6.4-6.33v-7.93C1415.82,1629.57,1412.95,1626.73,1409.41,1626.73z" class="color97b3e2 svgShape"></path><circle cx="1399.95" cy="1460.13" r="103.75" fill="#e0e8f0" transform="rotate(-45.001 1399.942 1460.156)" class="colorf0e0e3 svgShape"></circle><path fill="#ffffff" d="M1390.93 1563.47l79.61-179.35c-5.02-4.66-10.48-8.84-16.35-12.44l-83.45 188C1377.23 1561.59 1383.98 1562.87 1390.93 1563.47zM1356.47 1554.33l84.18-189.65c-2.29-.98-4.64-1.86-7.01-2.67l-83.86 188.94C1351.96 1552.15 1354.19 1553.28 1356.47 1554.33z" class="colorffffff svgShape"></path><path fill="none" stroke="#4c6be0" stroke-miterlimit="10" stroke-width=".609" d="M1435.17,1460.13c0,19.45-15.77,35.22-35.22,35.22c-19.45,0-35.22-15.77-35.22-35.22    c0-19.45,15.77-35.22,35.22-35.22C1419.4,1424.92,1435.17,1440.68,1435.17,1460.13z" class="colorStrokee04c5a svgStroke"></path><path fill="#3d64f9" d="M1435.17,1460.13c0,19.45-15.77,35.22-35.22,35.22c-19.45,0-35.22-15.77-35.22-35.22    c0-19.45,15.77-35.22,35.22-35.22C1419.4,1424.92,1435.17,1440.68,1435.17,1460.13z" class="colorf9c33d svgShape"></path><circle cx="1399.95" cy="1460.13" r="19.04" fill="#31417b" transform="rotate(-76.714 1400.098 1460.2)" class="color31407b svgShape"></circle><path fill="#5eaefe" d="M1349.78,1629.12c-6.83,9.2-19.83,11.12-29.03,4.29c-9.2-6.83-11.12-19.83-4.29-29.03     c6.83-9.2,78.37-89.57,87.57-82.74C1413.23,1528.47,1356.61,1619.92,1349.78,1629.12z" class="colorfee05e svgShape"></path><path fill="#3d5ccf" d="M1323.63,1633.55c-9.2-6.83-11.12-19.83-4.29-29.03c6.34-8.54,68.41-78.37,84.66-82.91     c-9.35-6.6-80.71,73.58-87.53,82.76c-6.83,9.2-4.91,22.2,4.29,29.03c3.81,2.83,8.28,4.14,12.69,4.07     C1330,1637.05,1326.61,1635.77,1323.63,1633.55z" class="colorcf963d svgShape"></path><path fill="#89b3dd" d="M1339.86,1623.74c-3.15,4.25-9.15,5.13-13.4,1.98c-4.25-3.15-5.13-9.15-1.98-13.4     c3.15-4.25,9.15-5.13,13.4-1.98C1342.13,1613.49,1343.01,1619.49,1339.86,1623.74z" class="color8989dd svgShape"></path><path fill="#567a9e" d="M1334.2 1619.54c-.83 1.12-2.42 1.35-3.54.52-1.12-.83-1.35-2.41-.52-3.54.83-1.12 2.42-1.35 3.54-.52C1334.8 1616.83 1335.03 1618.41 1334.2 1619.54zM1341.69 1605.21L1341.69 1605.21c-.71-.53-.86-1.53-.33-2.23l19.35-26.05c.53-.71 1.52-.86 2.23-.33l0 0c.71.53.86 1.53.33 2.23l-19.35 26.05C1343.39 1605.59 1342.39 1605.74 1341.69 1605.21zM1369.32 1571.85c-.76 1.02-2.19 1.23-3.21.47-1.02-.76-1.23-2.19-.47-3.21.76-1.02 2.19-1.23 3.21-.47C1369.86 1569.4 1370.07 1570.84 1369.32 1571.85z" class="color56629e svgShape"></path><g fill="#000000" class="color000000 svgShape"><path fill="#567a9e" d="M1282.24,1292.29c0,5.08-4.12,9.2-9.2,9.2c-5.08,0-9.2-4.12-9.2-9.2s4.12-9.2,9.2-9.2      C1278.12,1283.09,1282.24,1287.21,1282.24,1292.29z" class="color56629e svgShape"></path><path fill="#97bce2" d="M1277.96,1292.29c0,2.72-2.2,4.92-4.92,4.92c-2.72,0-4.92-2.2-4.92-4.92c0-2.72,2.2-4.92,4.92-4.92      C1275.76,1287.37,1277.96,1289.57,1277.96,1292.29z" class="color97b3e2 svgShape"></path><g fill="#000000" class="color000000 svgShape"><path fill="#567a9e" d="M1533.53,1292.29c0,5.08-4.12,9.2-9.2,9.2c-5.08,0-9.2-4.12-9.2-9.2s4.12-9.2,9.2-9.2      C1529.41,1283.09,1533.53,1287.21,1533.53,1292.29z" class="color56629e svgShape"></path><path fill="#97bce2" d="M1529.24,1292.29c0,2.72-2.2,4.92-4.92,4.92c-2.72,0-4.92-2.2-4.92-4.92c0-2.72,2.2-4.92,4.92-4.92      C1527.04,1287.37,1529.24,1289.57,1529.24,1292.29z" class="color97b3e2 svgShape"></path></g></g><g fill="#000000" class="color000000 svgShape"><path fill="#567a9e" d="M1282.24,1714.28c0,5.08-4.12,9.2-9.2,9.2c-5.08,0-9.2-4.12-9.2-9.2s4.12-9.2,9.2-9.2      C1278.12,1705.08,1282.24,1709.19,1282.24,1714.28z" class="color56629e svgShape"></path><path fill="#97bce2" d="M1277.96,1714.28c0,2.72-2.2,4.92-4.92,4.92c-2.72,0-4.92-2.2-4.92-4.92c0-2.72,2.2-4.92,4.92-4.92      C1275.76,1709.36,1277.96,1711.56,1277.96,1714.28z" class="color97b3e2 svgShape"></path><g fill="#000000" class="color000000 svgShape"><path fill="#567a9e" d="M1533.53,1714.28c0,5.08-4.12,9.2-9.2,9.2c-5.08,0-9.2-4.12-9.2-9.2s4.12-9.2,9.2-9.2      C1529.41,1705.08,1533.53,1709.19,1533.53,1714.28z" class="color56629e svgShape"></path><path fill="#97bce2" d="M1529.24,1714.28c0,2.72-2.2,4.92-4.92,4.92c-2.72,0-4.92-2.2-4.92-4.92c0-2.72,2.2-4.92,4.92-4.92      C1527.04,1709.36,1529.24,1711.56,1529.24,1714.28z" class="color97b3e2 svgShape"></path></g></g></g><g fill="#000000" class="color000000 svgShape"><path fill="#a4cffb" d="M1544.87,1497.04c0,0,3.78-4.74,9.29,1.16c1.27,1.36,3.33,0.84,5.92-0.77l4.01,6.93    c-8.28,3.46-14.7,5.83-16.29,5.93c-4.39,0.3-6.82,0.28-6.08-2.95c0.73-3.22-4.28-2.58-3.16-5.16c1.12-2.58-4.63-2.65-2.31-4.88    C1538.57,1495.09,1544.87,1497.04,1544.87,1497.04z" class="colorfbc0a4 svgShape"></path><path fill="#abcdef" d="M1653.4,1432.94l-2.26-11.84l-23.12-1.5l-2.59,13.8C1625.43,1433.39,1636.27,1452.26,1653.4,1432.94z" class="colorefceab svgShape"></path><path fill="#c0ddfb" d="M1612.42,1460.28c2.13-5.2,3.67-12.97,4.08-20c0.48-5.89,0.9-6.19,0-8.03c0,0-2.61-2.76-4.72-3.17     c-6.13,0.85-10.85,5.05-13.83,9.13c-5.75,7.86-9.93,46.13-14.61,48.35s-28.53,11.08-28.53,11.08l1.46,11.46     c0,0,32.94-3.73,35.59-7.56c2.66-3.83,8.33-16.42,8.33-16.42S1607.5,1472.31,1612.42,1460.28z" class="colorc5c0fb svgShape"></path><path fill="#3c3d40" d="M1649.13 1740.92c0 0-6.88 15.22 0 20.51 6.88 5.28 21.67 3.97 25.98-4.85 4.31-8.82 2.36-17.94 2.36-17.94L1649.13 1740.92zM1617.09 1739.82c0 0 4.52 11.97 0 13.53-4.52 1.55-14.68 2.18-17.15 2.18-2.46 0-1.85-1.24-6.16 0-4.31 1.24-26.8 1.55-32.96 0-6.16-1.55-.92-12.74 4-13.68 4.93-.93 21.05-1.86 26.39-6.53C1591.21 1735.32 1615.33 1733.19 1617.09 1739.82z" class="color3c403e svgShape"></path><path fill="#c0ddfb" d="M1606.41,1433c0.25-0.42,0.7-0.93,1.26-1.45c1.89-1.77,4.39-2.76,6.97-2.85l11.65,0.39    c0,0,0.28,5.16,7.46,6.6c6.72,1.35,14.69-2.54,19-4.06c0,0,33.81,3.2,14.65,59.59c-8.59,2.22-50.65,3.15-61.61,1.06    c-11.91-2.28-14.01-30.26-14.01-30.26C1593.69,1455.21,1602.64,1439.26,1606.41,1433z" class="colorc5c0fb svgShape"></path><path fill="#243b93" d="M1593.68,1564.58c0,0-0.41,54.29,2.88,65.48c3.29,11.19,0.82,98.63-5.34,105.26c0,0,10.27,8.58,25.88,4.5    c0,0,0.62-5.54,0-10.51c0,0,11.09-68.17,8.21-90.14c-2.88-21.96,0.48-49.32,0.48-49.32s14.72,53.87,18.42,81.23    c3.7,27.35,4.93,69.84,4.93,69.84s14.79,7.24,28.34-2.29c0,0-0.82-48.49-6.16-77.91c-5.34-29.42-13.14-96.15-13.14-96.15    s2.01-48.35,4.11-55.12c1.92-6.18,5.5-19.86,5.5-19.86s-14.53-0.27-24.39-0.98c0,0-12.44-32.25,18.37-53.39    c-0.79-0.89-1.7-1.75-3.39-2.29c-0.91-0.29-1.9-0.68-2.63-0.79c-3.68,2.71-7.46,5.95-11.19,10.64    c-6.15,7.72-13.02,20.05-15.91,38.49c0,0-20.97,0-25.9-3.32c-6.26-10.68,5.03-40.35,17.87-49.07l-6.73-0.24    c-1.63,0.08-2.95,0.83-4.14,1.93c-1.64,1.52-3.29,3.51-3.89,4.34c-4.29,6.01-13,21.01-13.34,32.72    C1592.08,1481.81,1591.21,1550.07,1593.68,1564.58z" class="color246293 svgShape"></path><path fill="#1e3487" d="M1632.7 1512.98c0 0 1.64-22.17 0-24.04-1.64-1.86-30.91-2.17-31.68.68-.77 2.84-.36 20.46.87 23.36 1.23 2.9 12.94 9.95 20.95 7.05C1630.85 1517.13 1632.7 1512.98 1632.7 1512.98zM1658.61 1551.09c0 0-47.19 3.51-66.12 0l1 12.18c0 0 55.3 1.1 65.13-2.01V1551.09z" class="color1e5d87 svgShape"></path><path fill="#b8d9fb" d="M1615.66,1389.43c0,0-1.66,11.21-1.66,17.3s0.86,20.17,13.04,22.2c12.17,2.03,19.12-3.96,23.6-6.55     c0,0,14.62-12.73,12.59-16.79c-2.03-4.06-4.06-16.23-16.23-16.23C1634.82,1389.36,1615.66,1389.43,1615.66,1389.43z" class="colorfbddb8 svgShape"></path><path fill="#1e2952" d="M1670.33,1384.29l-4.06-4.06c0,0-1.28-3.83-3.83-7.79c-4.26-6.61-12.73-9.12-20.03-6.2l-21.9,8.76     c-3.42,1.37-6.98,2.39-10.63,2.88c-1.43,0.19-2.95,0.32-4.47,0.32c0,0,2.03,10.14,18.26,14.2c16.23,4.06,28.4,2.03,28.4,2.03     s-4.06,14.2-2.03,20.29c0,0,4.06-8.12,8.11-8.12c4.06,0,0,6.09-2.03,8.12c-2.03,2.03-8.11,8.11-6.09,8.11     c0,0,16.23-12.17,20.29-20.29C1674.38,1394.43,1674.38,1388.34,1670.33,1384.29z" class="color221e52 svgShape"></path><path fill="#a4ccf4" d="M1605.36,1542.18l7.66-4.69l-1.37-8.66l-9.1-4.39c11.07-4.65,16.82-0.48,20.68,7.94     c3.85,8.41,24.49,17.14,40.6,24.28c16.1,7.14,14.41,2.8,26.01,2.34c11.6-0.47,13.98,12.11,13.98,12.11l-9.77-4.2l-7.55,4.32     l1.68,8.95l9.22,4.03c-15.53,8.71-21-6.23-22.76-10.99c-1.76-4.76-31.84-16.78-42.4-21.02c-10.56-4.24-10.91-3.74-22.54-1.87     c-11.62,1.87-13.74-12.24-13.74-12.24L1605.36,1542.18z" class="colora4caf4 svgShape"></path><path fill="#83b8ed" d="M1595.96,1538.1l9.4,4.08l7.66-4.69l-1.37-8.66c4.32,20.5,44.21,28.23,58.49,35.42     c9.65,4.85,13.69-0.6,14.93-4.78c1.32-0.22,2.86-0.4,4.76-0.48c11.6-0.47,13.98,12.11,13.98,12.11l-9.77-4.2l-7.55,4.32     l1.68,8.95l9.22,4.03c-15.53,8.71-21-6.23-22.76-10.99c-1.76-4.76-31.84-16.78-42.4-21.02c-10.56-4.24-10.91-3.74-22.54-1.87     C1598.07,1552.21,1595.96,1538.1,1595.96,1538.1z" class="color83b6ed svgShape"></path><path fill="#5f9edd" d="M1684.59,1570.55l9.63-5.19l9.15,4.11c0.32,0.99,0.45,1.64,0.45,1.64l-9.77-4.2l-7.55,4.32l1.68,8.95     l9.22,4.03c-0.36,0.2-0.72,0.38-1.07,0.56l-9.84-4.3L1684.59,1570.55z" class="color5f9bdd svgShape"></path><polygon fill="#4788c9" points="1688.17 1580.19 1686.48 1580.47 1684.59 1570.55 1686.49 1571.23" class="color478cc9 svgShape"></polygon><path fill="#5f9edd" d="M1596.37,1539.92c-0.3-1.1-0.41-1.82-0.41-1.82l9.4,4.08l7.66-4.69l-1.37-8.66l-9.1-4.39     c0.33-0.14,0.66-0.27,0.98-0.39l9.44,4.09l1.84,10.41l-9.18,5.03L1596.37,1539.92z" class="color5f9bdd svgShape"></path><polygon fill="#4788c9" points="1614.81 1538.54 1613.02 1537.49 1611.66 1528.83 1612.98 1528.13" class="color478cc9 svgShape"></polygon><g fill="#000000" class="color000000 svgShape"><path fill="#a4cffb" d="M1654.73,1554.92c0,0-1.33-6.96,7.73-7.59c2.09-0.15,3.13-2.41,3.63-5.96l8.86,1.49     c-3.03,10.1-5.65,17.71-6.7,19.22c-2.93,4.22-4.7,6.41-6.94,3.35c-2.23-3.06-5.31,1.97-6.71-0.95c-1.4-2.93-5.63,2.24-5.87-1.52     C1648.48,1559.2,1654.73,1554.92,1654.73,1554.92z" class="colorfbc0a4 svgShape"></path><path fill="#c0ddfb" d="M1656.99,1439.54c3.08-3.15,8.31-2.59,10.58,1.18c8.81,14.62,29.24,49.5,29.18,58.75     c-0.07,11.8-22.59,51.44-22.59,51.44l-14.47-4.72l16.02-47.46C1675.72,1498.74,1633.23,1463.81,1656.99,1439.54z" class="colorc5c0fb svgShape"></path><path fill="#b4d1ef" d="M1686.1,1517.37c4.67-15.84,4.18-18.6,4.18-18.6c0.17-8.01-22.34-57.42-22.35-57.45     c8.99,14.94,28.88,49.03,28.82,58.16c-0.06,9.37-14.27,36.31-20.12,46.99C1679.19,1539.1,1683.17,1527.33,1686.1,1517.37z" class="colorb5b4ef svgShape"></path></g></g><g fill="#000000" class="color000000 svgShape"><path fill="#95bee8" d="M342.16 1633.56c0 0-4.63 87.91-7.72 106.75 0 0 1.85 4.98 12.76 8.17 10.91 3.19 17.29 6.38 12.97 11.56 0 0-41.17 1-44.47-1.4-3.29-2.39-2.06-6.18 2.68-15.15 0 0-6.79-101.07-2.88-109.94H342.16zM308.3 1633.56c0 0-.62 25.82-8.65 43.56-8.03 17.74-23.26 53.43-23.26 59.21 0 5.78 0 14.35 0 14.35s-9.06 5.98-13.79-4.19c0 0 2.06-15.35 3.91-27.31 1.85-11.96 9.06-48.64 11.73-60 2.68-11.36 3.29-25.62 3.29-25.62H308.3z" class="colore8b795 svgShape"></path><path fill="#2d303d" d="M348.13 1748.77c10.33 3.1 16.24 6.25 12.05 11.28 0 0-41.17 1-44.47-1.4-3.06-2.22-2.21-5.65 1.72-13.32C317.44 1745.34 338.15 1754.62 348.13 1748.77zM276.39 1750.68c0 0 6.18 5.33 2.93 11.01-3.24 5.68-18.22 1.61-20.07-1.44-1.85-3.05 3.35-13.76 3.35-13.76L276.39 1750.68z" class="color2d313d svgShape"></path><path fill="#15161c" d="M303.39,1365.53c0,0-7.65-3.96-13.48,11.48c-5.83,15.44-6.13,39.51-4.03,47.72c0,0-16.93,18.23-3.1,30.14    c0,0,19.06,20.05,20.32,25.21c0.49-1.21,8.67-15.94,21.93-16.76c13.26-0.82,45.92-35.13,28.5-40.46c0,0,1.3,5.55-4.65,4.22    c-5.94-1.33-2.2-21.8-2.26-29.04c-0.06-7.24-4.42-25.08-17.1-32.64C316.84,1357.82,302.25,1358.36,303.39,1365.53z" class="color1c1715 svgShape"></path><path fill="#7ab2eb" d="M325.02,1413.16c0,0,2.74,10.2,4.54,11.56c0,0,1.8,4.7-3.51,17.99c-5.31,13.29-18.77,5.87-20.93,2.24    c-2.15-3.63-6.91-10.57-2.57-17.47c0,0,5.94-4.31,2.84-13.68C305.39,1413.8,324.08,1410.03,325.02,1413.16z" class="coloreba97a svgShape"></path><path fill="#96c9fd" d="M303.07,1414.04c0,0,9.01,6.99,16.37,4.29c7.36-2.7,13.89-9.82,15.91-16.95c2.02-7.13-1.26-21.44-6.21-26.53    c-4.96-5.09-23.36-8.43-28.53-1.8C295.43,1379.68,293.42,1406.42,303.07,1414.04z" class="colorfdc596 svgShape"></path><path fill="#022abf" d="M286.46,1540.21c0,0-19.59,10.55-20.67,15.87l21.59-6.91L286.46,1540.21z" class="colorbf027c svgShape"></path><path fill="#475791" d="M344.09,1545.96c0,0,7.87,57.43,0.23,94.03c0,0-55.37,4.38-65.77-1.44c0,0-3.48-63.02,0.82-92.26    L344.09,1545.96z" class="color476291 svgShape"></path><path fill="#3e4d87" d="M278.55,1638.54c0,0,0.1-5.44-0.5-10.91c4.67,2.43,15.01,8.8,30.79,6.26c21.44-3.45,26.36-47.99,23.84-68.93    c-0.94-7.83-3.58-14.88-6.52-20.65l17.93,1.65c0,0,7.87,57.42,0.23,94.02C344.32,1639.98,288.95,1644.36,278.55,1638.54z" class="color3e5c87 svgShape"></path><path fill="#f6f6f6" d="M305.58,1424.07c0,0,16.11,7.05,23.91-0.99c0,0,33.77,33.83,14.6,122.57c0,0-64.4,3.32-65.68,3.55    c-1.28,0.22,4.62-19.24,12.16-24.64c7.48-5.36,50.7-30.26,14.85-99.06C305.17,1425.02,305.2,1424.75,305.58,1424.07z" class="colorf6f6f6 svgShape"></path><path fill="#dce3ea" d="M299.53,1547.93c50.97-11.57,35.22-63.7,36.96-74.14c1.45-8.69-12.94-37.43-17.84-46.87    c3.92,0.03,7.95-0.87,10.83-3.85c0,0,33.77,33.83,14.6,122.57c0,0-25.59,1.32-44.83,2.35    C299.35,1547.98,299.44,1547.95,299.53,1547.93z" class="colordce2ea svgShape"></path><path fill="#77bbff" d="M379.62,1491.58c5.55,10.56,19.2,9.28,19.2,9.28l0,0l-6.69,15.63c-19.47,6.76-31.76-10.05-31.76-10.05    c-12.73-12.43-17.29-79.59-17.29-79.59C363.3,1432.4,374.07,1481.02,379.62,1491.58z" class="colorff77c4 svgShape"></path><path fill="#77bbff" d="M355.43 1450.14c0 0-1.01-6.45-3.19-14.94-.63-2.44-2.25-5.34-4.51-6.73-4.89-3.02-12.74-4.52-18.79-5.39 0 0 16.8 64 15.65 112.75-.82 4.29-1.17 8-.49 9.82 0 0 4 1.58 10.87 6.18 6.3 4.22-2.44-31.91-3.93-37.89C355.1 1490.67 357.81 1474.33 355.43 1450.14zM305.1 1423.87c0 0-4.23.44-10.03 2.19-2.33.71-18.1 6.47-17.02 31.53 1.16 27.06 3.62 49.87-.28 59.17-3.89 9.3-12.77 24.75-13.25 41.42 20.09-16.2 44.38-33.6 57.68-61.55C340.7 1457.75 305.1 1423.87 305.1 1423.87z" class="colorff77c4 svgShape"></path><path fill="#5297dd" d="M290.63,1428.15c-5.39,3.35-13.35,11.38-12.58,29.44c1.16,27.06,3.62,49.87-0.28,59.17    c-3.89,9.3-12.77,24.75-13.25,41.42c0,0,8.7-27.82,22.86-42.37C287.38,1515.81,276.01,1457.28,290.63,1428.15z" class="colordd52a8 svgShape"></path><path fill="#171c2e" d="M321.38,1514.94c0,0-3.82,4.8,4.97,5.98l36.25,11.59l3.24-5.27L321.38,1514.94z" class="color24172e svgShape"></path><path fill="#282b37" d="M322.28,1514.19l54.36-23.19l-13.68,40.17l-40.52-13.22C320.68,1517.37,320.58,1514.92,322.28,1514.19z" class="color283037 svgShape"></path><path fill="#353948" d="M326.12,1513.87l48.95-20.88l-12.32,36.17l-36.48-11.91C324.68,1516.74,324.58,1514.53,326.12,1513.87z" class="color354048 svgShape"></path><path fill="#171c2e" d="M381.08,1474.52l45.79-23.5c2.52-1.29,5.4,0.97,4.73,3.73l-10.72,44.05l-59.24,33.16l16.22-53.57     C378.36,1476.71,379.52,1475.31,381.08,1474.52z" class="color24172e svgShape"></path><path fill="#585e76" d="M382.05,1475.07l45.79-23.5c2.52-1.29,5.4,0.97,4.73,3.73l-10.72,44.05l-59.24,33.16l16.22-53.57     C379.33,1477.27,380.5,1475.87,382.05,1475.07z" class="color586976 svgShape"></path><path fill="#84bcf4" d="M348.62,1502.96c4.16,2.2,9.64,4.13,9.58,6.06c-0.12,4.19-7.06,5.13-10.04,3.45       c-2.85-1.85-4.49-6.75-4.49-6.75S344.5,1500.78,348.62,1502.96z" class="colorf4be84 svgShape"></path><path fill="#84bcf4" d="M365.27 1516.54c.65-.24-1.17-4.69-1.91-5.48-.59-.64-1.15-1.48-7.61-4.55l1.53 4.09c0 0 4.16 1.34 4.69 1.71C362.5 1512.68 363.03 1516.06 365.27 1516.54zM358.47 1522.73c.98.13.84-4.37.57-5.41-.34-1.31-.04-1.82-2.73-8.45l-1.68 3.93c0 0 2.31 4.45 2.44 5.07C357.21 1518.5 357.15 1521.73 358.47 1522.73zM355.04 1522.62c.94.12.8-4.2.55-5.2-.33-1.26-.03-1.75-2.62-8.11l-1.61 3.77c0 0 2.22 4.27 2.35 4.87C353.83 1518.56 353.78 1521.67 355.04 1522.62zM351.21 1520c.8.1.68-3.55.46-4.4-.28-1.07-.03-1.48-2.22-6.86l-1.36 3.19c0 0 1.88 3.61 1.99 4.12C350.18 1516.56 350.14 1519.19 351.21 1520zM344.27 1506.15l-7.02-.96 1.44-6.43c0 0 4.09 1.33 9.93 4.2L344.27 1506.15z" class="colorf4be84 svgShape"></path><path fill="#77bbff" d="M284.78,1431.13c-13.67,0.94-25.53,65.1-16.26,73.56c12.06,12.39,49.72,2.99,70.77,2.43     c0,0,3.57-3.54,4.01-7.21c-15.29-7.11-54.36-6.25-57.81-7.59C282.03,1490.99,298.4,1430.2,284.78,1431.13z" class="colorff77c4 svgShape"></path><path fill="#5297dd" d="M270.23,1501.64c-7.27-6.64-1.22-47,8.41-65.97c-10.58,16.81-17.82,62-10.12,69.02     c12.06,12.39,49.72,2.99,70.77,2.43c0,0,1.2-1.28,2.3-3.02C320.4,1504.82,282.16,1513.9,270.23,1501.64z" class="colordd52a8 svgShape"></path><polygon fill="#9cbfe2" points="303.44 1423.85 317.73 1435.66 320.01 1427.25 308.55 1424.03" class="color9cd6e2 svgShape"></polygon><path fill="#9cbfe2" d="M328.94,1423.08l-8.38,3.84l7.92,9.11C328.48,1436.03,332.32,1426.71,328.94,1423.08z" class="color9cd6e2 svgShape"></path><path fill="#192244" d="M292.84,1436.92c0,0-7.39,2.86-11.58-2.84c-4.2-5.7,2.85-9.13,2.85-9.13s-4.58,5.77,2.1,6.49    c6.68,0.72,6.72-10.49,4.37-16.67c-6.77-17.86-2.85-29.61,0.29-36.01c3.13-6.4,8.71-11.09,8.71-11.09l3.82-2.13l2.65,6.49    c0,0-4.81,7.35-7.24,14.12c-2.43,6.78-3.47,15.48,2.23,26.7C306.72,1424.06,308.15,1435.08,292.84,1436.92z" class="color442b19 svgShape"></path><path fill="#262f51" d="M306.03,1372.02l-2.65-6.49l0,0l0,0c0,0-7.65-3.96-13.48,11.48c-2,5.31-3.05,11.67-3.48,18.08    c2.62,9.6,10.03,20.67,14.07,30.07c5.1,11.87-10.5,8.7-10.5,8.7s5.2,8.8,13.01,2.02c8.59-7.45,1.1-19.74-2.18-26.18    c-3.28-6.44-2.73-18.63,0.42-25.56C304.39,1377.2,306.03,1372.02,306.03,1372.02z" class="color513826 svgShape"></path><path fill="#192244" d="M306.03,1372.02c0,0,17.46-4.63,26.23,16.51c8.77,21.14-3.82,30.87-1.6,37.39    c2.21,6.52,8.16,7.45,13.26,0.75c0,0-6.28,4.05-7.21-0.52c-0.93-4.57,9.49-11.26,8.54-28.69c-0.33-6.12-1.33-11.39-2.47-15.66    c-2.68-6.3-6.94-12.63-13.26-16.4c-12.68-7.57-27.27-7.04-26.13,0.14L306.03,1372.02z" class="color442b19 svgShape"></path><path fill="#96c9fd" d="M394.83,1495.8c-0.76-0.7-1.99-0.23-2.08,0.8c-0.08,0.84,0.04,1.87,0.62,3c1.45,2.77,1.58,5.94,0.92,5.94    c-0.66,0-2.51-5.94-4.75-5.48c-2.24,0.46,2.38,7.46,1.72,8.38c-0.66,0.92-3.17-4.88-4.36-3.83c-1.19,1.06,2.77,7.13,2.38,7.92    c-0.4,0.79-3.04-2.51-3.3-1.32c-0.26,1.19,0.38,3.56,4.35,6.07c0,0,5.95,4.22,8.85,1.06    C401.93,1515.33,403.14,1503.44,394.83,1495.8z" class="colorfdc596 svgShape"></path></g><g fill="#000000" class="color000000 svgShape"><path fill="#96c9fd" d="M632.4,880.95c-0.77-0.71-2-0.24-2.1,0.8c-0.08,0.84,0.04,1.89,0.63,3.02c1.46,2.79,1.59,5.98,0.93,5.98     c-0.66,0-2.53-5.98-4.78-5.52c-2.26,0.47,2.39,7.51,1.73,8.44c-0.66,0.93-3.19-4.92-4.39-3.85c-1.2,1.06,2.79,7.18,2.39,7.97     c-0.4,0.8-3.06-2.53-3.32-1.33c-0.27,1.2,0.38,3.59,4.38,6.11c0,0,5.99,4.25,8.91,1.06C639.55,900.62,640.77,888.64,632.4,880.95     z" class="colorfdc596 svgShape"></path><path fill="#5da1e5" d="M604.08,880.61c4.52,8.6,15.64,7.56,15.64,7.56l0,0l-5.45,12.74c-13.94,3.92-26.79-9.23-26.79-9.23     c-10.37-10.12-13.17-63.8-13.17-63.8C590.79,832.4,599.56,872.01,604.08,880.61z" class="colore55daa svgShape"></path><path fill="#6aa6e2" d="M589.15,1070.6c0,0-1.03,3.74-0.96,7.75l-5.25-1.23l0.32-6.61L589.15,1070.6z" class="colore2a36a svgShape"></path><path fill="#6aa6e2" d="M599.51,1081.05c-0.09,1.06-16.96,0.21-16.96,0.21l0.39-4.14l5.32,0.07     C588.27,1077.19,599.6,1079.98,599.51,1081.05z" class="colore2a36a svgShape"></path><path fill="#2d303d" d="M582.51,1081.23l0.27-2.31c0,0,0.98,1.3,6.13,1.37c4.54,0.06,5.08-1.55,5.08-1.55     c4.24,1.28,6.62,1.52,6,2.39C599.19,1082.25,582.51,1081.23,582.51,1081.23z" class="color2d313d svgShape"></path><path fill="#536ed3" d="M583.26,1070.51l-0.25,5.53c0,0,2.47-1.49,5.23,0.07c0,0,0.43-4.09,0.91-5.52L583.26,1070.51z" class="colord38753 svgShape"></path><path fill="#6aa6e2" d="M613.76,1070.94c0,0-1.03,3.74-0.96,7.75l-5.25-1.23l0.32-6.61L613.76,1070.94z" class="colore2a36a svgShape"></path><path fill="#6aa6e2" d="M624.13,1081.39c-0.09,1.06-16.96,0.21-16.96,0.21l0.39-4.14l5.32,0.07     C612.88,1077.54,624.21,1080.33,624.13,1081.39z" class="colore2a36a svgShape"></path><path fill="#2d303d" d="M607.12,1081.57l0.27-2.31c0,0,0.98,1.3,6.13,1.37c4.54,0.06,5.08-1.55,5.08-1.55     c4.24,1.28,6.62,1.52,6,2.39C623.81,1082.59,607.12,1081.57,607.12,1081.57z" class="color2d313d svgShape"></path><path fill="#536ed3" d="M607.88,1070.86l-0.25,5.53c0,0,2.47-1.49,5.23,0.07c0,0,0.43-4.09,0.91-5.52L607.88,1070.86z" class="colord38753 svgShape"></path><path fill="#475791" d="M582.4,925.52c0,0-33.06,9.37-28.64,39.77l85.12,1.19c0,0,2.66-13.05-2.67-19.01    C630.93,941.56,582.4,925.52,582.4,925.52z" class="color476291 svgShape"></path><path fill="#475791" d="M638.67,966.48c0,0-11.69,33.34-24.24,107.42l-8.56-0.12c0,0-5.29-55.48-3.78-70.42    c1.51-14.93,12.8-38.39,12.8-38.39S631.16,961.5,638.67,966.48z" class="color476291 svgShape"></path><path fill="#3e4d87" d="M582.4,965.69l32.14,0.26c0,0-11.66,23.49-12.46,37.41c-0.81,13.92,3.78,70.42,3.78,70.42l3.56,0.05    c0,0-1.99-59.9-0.87-69.53c1.11-9.63,14.12-41.18,13.49-43.32c-0.62-2.14-40.69-13.98-40.69-13.98L582.4,965.69z" class="color3e5c87 svgShape"></path><polygon fill="#3e4d87" points="582.4 925.52 515.16 924.58 562.88 949.5" class="color3e5c87 svgShape"></polygon><path fill="#5780aa" d="M515.16,924.58c0,0-9.83,15.93-2.7,40.13l99.65,1.4c0,0,2.21-13.29-3.37-19.02    C600.97,939.09,543.23,931.65,515.16,924.58z" class="color5775aa svgShape"></path><path fill="#5780aa" d="M612.12,966.11c0,0-10.87,23.94-21.73,107.46l-8.59-0.12c0,0-6.27-55.5-5.06-70.44    c1.22-14.94,10.98-37.24,10.98-37.24S604.51,961.13,612.12,966.11z" class="color5775aa svgShape"></path><path fill="#475791" d="M512.47,964.71l75.25,1.05c0,0-10.13,24.5-10.98,37.24c-1.07,16.13,5.06,70.44,5.06,70.44l3.19,0.04    c0,0-3.8-55.75-2.17-69.71c1.63-13.96,14.02-40.86,12.02-43.75c-2-2.89-54.56-6.48-84.75-17.13    C510.08,942.9,508.93,955.58,512.47,964.71z" class="color476291 svgShape"></path><path fill="#77bbff" d="M568.18,885.17c-0.21,14.64,4.45,23.77,15.37,40.41c-22.01,7.17-45.11,6.18-69.04-0.97    c5.33-14.13,13.3-25.63,22.17-35.63c0.06-0.07,0.14-0.16,0.19-0.22c0.11-0.12,0.2-0.22,0.26-0.29c0.08-0.08,0.19-0.21,0.19-0.21    c4.67-8.19-9.32-17.84-14.67-33.94c-5.45-16.41-2.85-24.9-2.85-24.9c20.72-8.94,32.82-10.9,56.11-0.99l0.68,14.21    c0,0,6.19,11.17,5.41,16.13C581.23,863.74,568.29,877.37,568.18,885.17z" class="colorff77c4 svgShape"></path><path fill="#8cc5fe" d="M536.07,822.01c-0.37,5.42,8.06,9.36,12.57,9.67c4.51,0.31,12.66-2.5,13.04-7.91      c0.37-5.42-5.43-4.85-12.5-5.33C542.1,817.94,536.44,816.59,536.07,822.01z" class="colorfeb48c svgShape"></path><path fill="#8cc5fe" d="M548.78,830.46L548.78,830.46c4.94,0.34,9.26-3.43,9.6-8.37l1.08-15.72c0.34-4.94-3.43-9.26-8.37-9.6        l0,0c-4.94-0.34-9.26,3.43-9.6,8.37l-1.08,15.72C540.08,825.8,543.84,830.12,548.78,830.46z" class="colorfeb48c svgShape"></path><path fill="#4961ba" d="M558.71,817.25c0.32-4.62,0.74-10.87,0.74-10.87c0.34-4.94-3.43-9.26-8.37-9.6        c-4.94-0.34-9.26,3.43-9.6,8.37c0,0-0.21,3-0.49,7.15c0,0,3.29,4.52,7.79,5.71C554.05,819.39,558.71,817.25,558.71,817.25z" class="colorba6549 svgShape"></path><path fill="#65a9ed" d="M583.55,925.58c-1.98-6.97-15.68-17.79-15.37-40.41c0.13-9.07,13.03-19.58,13.83-26.52    c-4.87,2-24.96,7.97-56.73,1.8c5.91,16.22,13.44,20.67,12.04,27.81c0,0-0.11,0.12-0.19,0.21c-0.07,0.08-0.16,0.18-0.26,0.3    c-0.05,0.06-0.13,0.15-0.19,0.22c-8.87,10-16.84,21.5-22.17,35.63c11.72,3.5,23.23,5.5,34.52,5.81    C560.19,930.56,572.87,929.06,583.55,925.58z" class="colored65b2 svgShape"></path><path fill="#5296db" d="M558.48,894.14c0-2,1.08-6.82,2.22-11.93c1.63-7.28,3.48-15.52,3.19-19.59c-0.49-6.91-7.16-26.61-7.45-27.45    l-0.92,0.31c0.07,0.2,6.91,20.42,7.4,27.2c0.28,3.93-1.55,12.1-3.17,19.31c-1.21,5.38-2.25,10.03-2.25,12.14    c0.02,12.29,2.56,23.67,7.89,35.47c0.34-0.04,0.68-0.05,1.02-0.1C561.05,917.73,558.5,906.39,558.48,894.14z" class="colordb52a3 svgShape"></path><g fill="#000000" class="color000000 svgShape"><path fill="#84bcf4" d="M576.29,913.3c3.83,2.51,8.91,4.78,8.77,6.82c-0.3,4.44-6.88,5.16-9.62,3.26       c-2.61-2.08-3.93-7.35-3.93-7.35S572.5,910.81,576.29,913.3z" class="colorf4be84 svgShape"></path><path fill="#84bcf4" d="M591.4 928.4c.62-.23-.9-5.03-1.56-5.9-.53-.7-1.02-1.62-6.98-5.14l1.27 4.4c0 0 3.87 1.59 4.35 2.01C588.95 924.19 589.31 927.8 591.4 928.4zM584.71 934.7c.92.17.98-4.61.77-5.73-.26-1.41.05-1.93-2.21-9.08l-1.75 4.1c0 0 1.99 4.82 2.08 5.49C583.71 930.15 583.51 933.58 584.71 934.7zM581.49 934.44c.89.17.94-4.43.74-5.5-.25-1.35.04-1.86-2.12-8.72l-1.68 3.94c0 0 1.91 4.62 2 5.27C580.52 930.08 580.34 933.37 581.49 934.44zM577.99 931.5c.75.14.8-3.75.63-4.65-.21-1.15.04-1.57-1.79-7.38l-1.43 3.33c0 0 1.61 3.91 1.69 4.46C577.17 927.81 577.01 930.59 577.99 931.5zM572.05 916.5l-6.58-1.3 1.64-6.77c0 0 3.8 1.58 9.18 4.87L572.05 916.5z" class="colorf4be84 svgShape"></path><path fill="#77bbff" d="M520.21,829.58c-12.93,0.44-27.9,72.92-19.53,82.28c10.83,13.65,46.76,5.2,66.64,5.47     c0,0,3.52-3.61,4.09-7.5c-14.11-8.18-50.99-8.86-54.19-10.42C514.02,897.86,533.1,829.14,520.21,829.58z" class="colorff77c4 svgShape"></path><path fill="#5da1e5" d="M502.42,908.69c-6.57-7.35,1.25-53.47,11.17-73.23c-10.71,17.42-19.87,68.62-12.92,76.39     c10.83,13.65,46.76,5.2,66.64,5.47c0,0,1.19-1.3,2.3-3.11C549.6,914.12,513.13,922.21,502.42,908.69z" class="colore55daa svgShape"></path></g><polygon fill="#5296db" points="532.5 824.58 547.64 840.06 552.18 833.65 556.37 837.35 559.25 833.15 564.23 838.47 564.68 824.33 555.63 825.22" class="colordb52a3 svgShape"></polygon><polygon fill="#65a9ed" points="532.5 824.58 539.53 814.07 555.63 825.22 548.2 836.33" class="colored65b2 svgShape"></polygon><polygon fill="#65a9ed" points="559.16 816.85 555.63 825.22 563.51 835.01 564.68 824.33" class="colored65b2 svgShape"></polygon><g fill="#000000" class="color000000 svgShape"><polygon fill="#839bb4" points="637.93 932.84 562.42 929.29 581.06 871.48 656.56 875.04" class="color8394b4 svgShape"></polygon><rect width="4.55" height="111.25" x="579.54" y="877.71" fill="#a5bed7" transform="rotate(-87.358 581.8 933.362)" class="colora5c0d7 svgShape"></rect><polygon fill="#a5bed7" points="637.98 932.77 564.22 929.37 582.48 872.7 656.25 876.1" class="colora5c0d7 svgShape"></polygon><path fill="#839bb4" d="M617.32,902.43c-1.06,2.75-4.42,4.86-7.51,4.72c-3.09-0.14-4.73-2.49-3.67-5.24     c1.06-2.75,4.42-4.86,7.51-4.72C616.73,897.34,618.38,899.68,617.32,902.43z" class="color8394b4 svgShape"></path><polygon fill="#a5bed7" points="564.22 929.37 582.48 872.7 656.25 876.1" opacity=".2" class="colora5c0d7 svgShape"></polygon><rect width="4.55" height="35.86" x="541.88" y="913.67" fill="#839bb4" transform="rotate(-87.346 544.175 931.627)" class="color8394b4 svgShape"></rect><rect width="2" height="13.85" x="577.57" y="924.12" fill="#839bb4" transform="rotate(-87.358 578.603 931.08)" class="color8394b4 svgShape"></rect><rect width="2" height="11.86" x="625.94" y="927.35" fill="#839bb4" transform="rotate(-87.358 626.976 933.311)" class="color8394b4 svgShape"></rect><polygon fill="#bad6f2" points="582.93 873.45 656.02 876.82 656.25 876.1 582.48 872.7 564.22 929.37 564.9 929.4" class="colorbad6f2 svgShape"></polygon></g><g fill="#000000" class="color000000 svgShape"><path d="M554.21,751.84c-11.81-0.55-19.82,7.93-21.64,11.99c0,0-6.35,5.81-6.24,11.69c0.12,5.88-0.87,9.13-0.87,9.13     s-4.77,4.05-3.12,10.61c0,0-0.18-4.28,1.22-5.87c0,0-1.88,5.92,0.47,9.4c0,0-0.83-3.51,0.54-6.58c0,0,0.05,2.55,0.48,4.99     c0.43,2.44-0.33,12.06,6.03,16.25c0,0-1.76-2.32-2.29-5.15c0,0,1.37,1.83,2.45,3.48c1.08,1.64-0.22,8.04,1.68,12.71     c0,0-0.96-5.17-0.58-9.98c0,0,2.71,7,5.78,8.8c0,0-4.31-6.28-4.53-7.75c0,0,2.87,0.92,4.77,0.89c0,0-4.29-0.7-5.29-3.13     c-0.97-2.35-1.13-9.41-0.65-10.84c0.29,0.9,1.16,1.98,1.91,2.15c0.02,0.84,0.05,3.02-0.3,4.65c0,0,0.75-0.41,1.2-1.69     c0,0,0.42,2.05-0.01,4.12c0,0,1.01-1.78,0.89-2.86c0,0,1.71,1.17,3.65,3.14l26.45-50.15     C566.22,761.83,566.02,752.4,554.21,751.84z" fill="#000000" class="color000000 svgShape"></path><path d="M564.06,812.33c0,0,8.25-11.71,7.67-18.82c0,0,0.76,6.88-0.52,9.84c0,0,2.35-2.79,2.01-6.17c0,0,4.44,8.89-2.58,18.09     c0,0,2.46-1.24,3.24-2.72c0,0-1.26,3.6-2.31,4.81c0,0,3.06-2.44,3.79-5.94c0,0-0.2,3.3-1.32,5.43c0,0,5.8-8.17,1.05-19.16     c0,0,1.18-3.32,1.14-5.24c0,0,0.4,2.46-0.44,4.77c0,0,3.22-3.63,1.57-10.47c0,0,0.94-1.94,0.91-3.41c0,0,0.22,1.92,0.11,5.77     c0,0,0.5-1.84,0.55-3.86c0,0,0.28,0.73,0.07,3.75c0,0,0.98-3.13,0-6.04c0,0,0.96-3.96-1.05-6.94     c-2.01-2.98-7.58-10.29-7.58-10.29s4.42,3.12,4.99,5.21c0,0-0.94-2.73-1.85-3.63c0,0,0.99,0.44,1.72,1.52     c0,0,0.15-1.65-4.98-4.39c0,0-1.04-2.91-4.07-3.67c0,0-1.37-6.38-12.4-6.9c-11.03-0.52-18.52,7.41-20.23,11.2     c0,0-5.94,5.43-5.83,10.92c0.11,5.49-0.81,8.53-0.81,8.53s-4.46,3.78-2.92,9.92c0,0-0.17-4,1.14-5.49c0,0-1.76,5.53,0.44,8.78     c0,0-0.78-3.28,0.5-6.15c0,0,0.05,2.38,0.45,4.66c0.4,2.28-0.31,11.27,5.63,15.18c0,0-1.64-2.17-2.14-4.81     c0,0,1.28,1.71,2.29,3.25c1.01,1.54-0.21,7.51,1.57,11.87c0,0-0.9-4.84-0.54-9.33c0,0,2.53,6.54,5.41,8.23     c0,0-4.03-5.87-4.23-7.24c0,0,2.68,0.86,4.46,0.83c0,0-4.01-0.65-4.95-2.93c-0.93-2.27-1.07-9.23-0.56-10.25c0,0,1,1.26,1.72,1.8     c0,0,0.14,2.74-0.26,4.68c0,0,0.7-0.38,1.12-1.58c0,0,0.39,1.92-0.01,3.85c0,0,0.95-1.67,0.84-2.67c0,0-0.35,2.18,1.64,3.88     C540.51,812.73,548.05,798.45,564.06,812.33z" fill="#000000" class="color000000 svgShape"></path><path fill="#f4f5f7" d="M576.7,770.41c0.08,0.21,0.12,0.34,0.12,0.34C576.79,770.64,576.75,770.52,576.7,770.41z" class="colorf6f7f4 svgShape"></path><path d="M580.55,782.31c0,0,0.99-3.92-1.08-6.88c-2.07-2.96-7.78-10.2-7.78-10.2s4.08,2.78,5,4.84      c-0.29-0.75-1.04-2.57-1.77-3.27c0,0,1.01,0.43,1.77,1.51c0,0,0.15-1.64-5.11-4.35c0,0-2.25-2.42-5.37-3.18c0,0,0,0.02,0,0      l-23.75,49.16c1.92,1.73,4.09,3.49,4.09,3.49l-0.3-0.71c1.91,2.24,9.37,3.41,13.15,2.54c0,0,0,0,0,0      c0.12-0.03,0.24-0.06,0.36-0.09c0,0,0,0,0,0c0.11-0.03,0.22-0.07,0.33-0.1c1.25-0.44,2.65-1.38,3.96-2.55      c0.17-0.15,0.33-0.3,0.5-0.46c0.11-0.11,0.22-0.21,0.33-0.32c0,0,0,0,0.01-0.01c0.42-0.42,0.82-0.86,1.19-1.3      c0.02-0.03,0.05-0.06,0.07-0.09c1.19-1.44,2.1-2.96,2.43-4.24c2.28-3.98,4.82-9.38,4.49-13.34c0,0,0.77,6.83-0.54,9.76      c0,0,2.41-2.77,2.07-6.13c0,0,4.56,8.81-2.66,17.94c0,0,2.53-1.23,3.33-2.7c0,0-1.3,3.57-2.37,4.77c0,0,3.15-2.42,3.9-5.89      c0,0-0.21,3.27-1.36,5.39c0,0,5.96-8.11,1.09-19c0,0,1.21-3.29,1.18-5.2c0,0,0.41,2.44-0.46,4.73c0,0,3.31-3.61,1.62-10.39      c0,0,0.97-1.93,0.94-3.38c0,0,0.22,1.9,0.11,5.72c0,0,0.51-1.83,0.56-3.83c0,0,0.29,0.72,0.07,3.72      C580.55,788.3,581.55,785.19,580.55,782.31z" fill="#000000" class="color000000 svgShape"></path><path fill="#8cc5fe" d="M563.34,770.93c0,0,3.02,4.16,5.17,5.56c0,0,0.99,7.04,1.65,12.21c0.67,5.17-0.84,12.91-1.74,15.99     c-0.91,3.1-5.59,7.93-8.56,10.02c-4.28,3.01-11.47,0.86-14.21-1.09l-1.73-1.09c0,0-5.66-3.71-7.02-10.64l-0.63-5.89     c0,0-1.14-0.75-1.27-2.28c-0.12-1.53,0.38-4.71,0.38-4.71s14.95-15.46,19.71-17.86c4.76-2.4,7.62-0.53,7.62-0.53l2.42-1.3     C565.12,769.31,563.89,770.15,563.34,770.93z" class="colorfeb48c svgShape"></path><path fill="#12256d" d="M528.56 785.02c0 0 7.14 1.32 12.3-3.56 5.17-4.87 7.65-7.14 7.65-7.14s-2.31.97-3.44 2.19c0 0 4.13-5.49 8.15-6.97 4.01-1.48 10.56-1.61 10.56-1.61s-4.26-.75-6.24-.34c0 0 6.31-1.51 8.92.29 0 0-4.52-4.53-12.18-1.79-7.66 2.74-13.05 10.32-17.64 11.89 0 0 3.96-.63 5.41-1.95 0 0-5.89 5.51-9.31 5.6 0 0 5.18.2 9.79-4.6C542.53 777.03 538.16 785.08 528.56 785.02zM533.53 774.53c0 0 12.17-11.87 24.63-11.75 0 0-3.37-.67-6.58-.24 0 0 3.2-1.17 5.47-1.03 0 0-5.19-1.65-10.73 2.15 0 0 5.68-5.19 11.78-3.92 0 0-8.33-5.1-20.98 4.38 0 0 8.94-4.72 11.84-3.74 0 0-6.44 1.79-8.83 4.51 0 0 3.25-1.82 4.45-1.84 0 0-7.48 4.58-11.09 9.27 0 0 6.18-5.11 7.56-5.23C541.04 767.09 534.32 772.76 533.53 774.53z" class="color6d3c12 svgShape"></path><path fill="#83acd6" d="M534.28,795.2c0,0-2.44-0.97-2,0.41c0.44,1.38,2.95,2.01,2.06,2.76c-0.89,0.75-1.29,1.2-0.32,1.48     c0.98,0.28,0-0.41-0.58,0.4c-0.58,0.82,1.21,3.41,2.23,2.91c1.03-0.51,0.79-2.34-0.07-3.34     C535.61,799.81,535.61,795.84,534.28,795.2z" class="colord6a183 svgShape"></path><path fill="#12256d" d="M567.06,771.39c0,0,2.65,1.95,4.02,5.14c0,0-0.21-1.74-0.57-2.6c0,0,2.1,0.72,3.07,7.34     c0,0,0.61-1.5,0.21-4.1c0,0,2.77,2.06,3.44,6.89c0,0-0.39-6.52-3.68-9.93s-4.84-7.04-4.84-7.04s0.5,3.12,1.3,4.32     c0,0-1.69-1.79-1.7-2.4l0.47,1.82l-0.99-1.46c0,0,0.56,1.9,1.1,2.68C568.9,772.05,568.39,771.74,567.06,771.39z" class="color6d3c12 svgShape"></path></g></g></svg>