<svg xmlns="http://www.w3.org/2000/svg" data-name="Layer 1" viewBox="0 0 2500 2500" id="CreativeBuildingHomepage"><path fill="none" stroke="#b5c7d9" stroke-miterlimit="10" stroke-width="2.38" d="M2343.2,1987.4H166.5c-30.9-24.4-22.3-97.4-.2-130.9s58.1-52.9,91.9-72.6,68.7-42.8,85.2-79.9c27.4-61.4-5.4-132.1-17.1-199-14.6-83.6,6.8-173.5,57-239.7S511.6,1158,591.4,1155.6c82.2-2.5,160.8,33.6,234.5,72.4s147.6,81.8,228.9,94.6,173.8-11.4,220.6-83.4c50-77.1,34.4-182,62.7-270.7,32.4-101.6,128.1-176.4,228.9-178.9s199.6,67.4,236.4,167.3c25.2,68.2,22.7,143.9,34.3,216.1s44.5,149.2,109.1,174.4c76.6,29.8,173.4-22.4,238.6,29.6,70.7,56.5,38.4,178.6,77.7,262.9,19.4,41.8,55.4,71.5,88.1,102.7s64.5,68.4,70.5,114.6S2387.1,1987.4,2343.2,1987.4Z" class="colorStrokeb5c4d9 svgStroke"></path><path fill="#b5c7d9" d="M2324.2,1987.4H229.6c-29.7-22.1-21.4-88-.1-118.3s55.9-47.8,88.4-65.6,66-38.7,81.9-72.2c26.4-55.6-5.2-119.5-16.4-179.9-14-75.6,6.6-156.9,54.8-216.6s123.5-97,200.3-99.2c79.1-2.3,154.7,30.4,225.6,65.5s142,73.9,220.3,85.5,167.3-10.3,212.2-75.4c48.2-69.7,33.2-164.5,60.4-244.7,31.2-91.8,123.3-159.4,220.2-161.7s192.1,60.9,227.5,151.2c24.3,61.6,21.8,130,33,195.3s42.9,134.9,105,157.6c73.7,27,166.8-20.2,229.6,26.8,68,51,37,161.4,74.7,237.6,18.7,37.8,53.4,64.6,84.8,92.8s62.1,61.8,67.9,103.6S2366.3,1987.4,2324.2,1987.4Z" class="colorb5c4d9 svgShape"></path><circle cx="2011.1" cy="663.5" r="98.9" fill="#b5c7d9" class="colorb5c4d9 svgShape"></circle><circle cx="116" cy="1176.1" r="30.4" fill="#b5c7d9" class="colorb5c4d9 svgShape"></circle><circle cx="2267.6" cy="1224.8" r="48.9" fill="#b5c7d9" class="colorb5c4d9 svgShape"></circle><circle cx="2357.6" cy="1626.3" r="27.6" fill="#b5c7d9" class="colorb5c4d9 svgShape"></circle><path fill="#0575e6" d="M280.8,1694.9c-.3,0-26.6-3.2-42.5,34.9-1.1-6.2-2.2-12.3-3.4-18.2,0-.1.1-.2.1-.3-8.2-82.5,21-136.4,21.3-136.9a1,1,0,0,0-.4-1.4,1,1,0,0,0-1.3.4c-.3.5-26.4,48.6-22.7,123.3-17.4-82-42.1-140.9-42.5-141.8a1,1,0,0,0-1.8.8c.4.9,26.1,62.4,43.5,147.1-8.2-23.9-18.9-37.3-27.6-44.8-13.2-11.4-24.4-11.9-24.9-11.9a.9.9,0,0,0-1,.9.9.9,0,0,0,1,1c.1.1,11.1.6,23.8,11.6s26.1,30.1,34,71.2c3.4,19.6,6.1,40,8,60.9-16.1-34.8-40.9-31.9-41.2-31.8a1,1,0,0,0,.3,1.9c.2,0,26.2-3,41.4,36.3,1.3,16,2,32.2,2,48.6a.9.9,0,0,0,1,1,1,1,0,0,0,1-1c0-16.4-.7-32.7-2-48.7v-.2c-1.7-21.3-4.4-42.1-7.6-62v-.4c-.1-.7-.3-1.4-.4-2a.1.1,0,0,1,.1-.1c15.2-39.5,41.2-36.5,41.5-36.4a1.1,1.1,0,0,0,1.1-.9A1,1,0,0,0,280.8,1694.9Z" class="color476b9f svgShape"></path><rect width="122.3" height="135.12" x="199" y="1839.7" fill="#0575e6" class="color476b9f svgShape"></rect><path fill="#0575e6" d="M183.2 1647.4s-65.4-45.2-106.7-3.2C76.5 1644.2 129.1 1685.2 183.2 1647.4zM206.5 1760.5s-45.6-35-90.5 29.7C116 1790.2 193.4 1796.2 206.5 1760.5zM190.9 1558.6s15-93.8-73.6-162.8C117.3 1395.8 100.8 1525.1 190.9 1558.6zM252.1 1579.7s-12-83.8 58.1-116.3C310.2 1463.4 324.7 1566.9 252.1 1579.7zM277.5 1695.5s45.6-35 90.4 29.7C367.9 1725.2 290.5 1731.2 277.5 1695.5z" class="color476b9f svgShape"></path><polygon fill="#0575e6" points="987.3 1928.9 793.7 1928.9 803.7 1737.2 977.3 1737.2 987.3 1928.9" class="color476b9f svgShape"></polygon><polygon fill="#021b79" points="977.3 1737.2 803.7 1737.2 812.1 1576.7 968.9 1576.7 977.3 1737.2" class="color13417c svgShape"></polygon><path fill="#0575e6" d="M343.8,1638.1c-94.6,0-171.5-76.9-171.5-171.4v-824C172.3,564,236.3,500,315,500H1465.9c78.7,0,142.7,64,142.7,142.7v824c0,94.5-76.9,171.4-171.4,171.4Z" class="color476b9f svgShape"></path><path fill="#021b79" d="M315,528.5H1465.9a114.2,114.2,0,0,1,114.2,114.2V798.5a0,0,0,0,1,0,0H200.8a0,0,0,0,1,0,0V642.7A114.2,114.2,0,0,1,315,528.5Z" class="color13417c svgShape"></path><circle cx="1140.6" cy="676.7" r="41.5" fill="#01104a" class="color01184a svgShape"></circle><circle cx="1274.2" cy="676.7" r="41.5" fill="#0575e6" class="color476b9f svgShape"></circle><circle cx="1407.8" cy="676.7" r="41.5" fill="#f9fafc" class="colorfcfbf9 svgShape"></circle><path fill="#e1e8f0" d="M200.8,798.5H1580.1a0,0,0,0,1,0,0v668.2a143,143,0,0,1-143,143H343.7a143,143,0,0,1-143-143V798.5A0,0,0,0,1,200.8,798.5Z" class="colore1e7f0 svgShape"></path><rect width="485.1" height="47.56" x="647.9" y="1927.2" fill="#021b79" class="color13417c svgShape"></rect><rect width="239" height="238.98" x="360.9" y="1325.7" fill="#ffffff" class="colorffffff svgShape"></rect><rect width="239" height="238.98" x="742.3" y="1325.7" fill="#ffffff" class="colorffffff svgShape"></rect><rect width="239" height="238.98" x="1123.7" y="1325.7" fill="#ffffff" class="colorffffff svgShape"></rect><rect width="495.3" height="44.15" x="1028.9" y="1009" fill="#b5c7d9" class="colorb5c4d9 svgShape"></rect><rect width="387.3" height="44.15" x="1028.9" y="920.3" fill="#b5c7d9" class="colorb5c4d9 svgShape"></rect><rect width="166.8" height="44.15" x="1028.9" y="1097.7" fill="#b5c7d9" class="colorb5c4d9 svgShape"></rect><rect width="285.3" height="44.15" x="1238.8" y="1097.7" fill="#b5c7d9" class="colorb5c4d9 svgShape"></rect><rect width="99.9" height="44.15" x="1424.2" y="1186.4" fill="#b5c7d9" class="colorb5c4d9 svgShape"></rect><rect width="99.9" height="44.15" x="1028.9" y="1186.4" fill="#b5c7d9" class="colorb5c4d9 svgShape"></rect><rect width="213.8" height="44.15" x="1167.7" y="1186.4" fill="#b5c7d9" class="colorb5c4d9 svgShape"></rect><path fill="#181f38" d="M1903.1,876.6s37-31.7,28.2-66.3c-7-27.6-27.3-33.5-27.3-33.5s-7-23.8-26-29.2c-23.4-6.7-43.3,6.2-43.3,6.2s-27.8-13.5-48.5,4.5-4.3,47.2-4.3,47.2-19.9,15-.8,39c25.6,32.1,69.3,10.5,69.3,10.5Z" class="color381819 svgShape"></path><polygon fill="#8ec5fd" points="2088.2 1801.9 2061.3 1782.6 2131.8 1687 2174.3 1720.3 2160.1 1742.4 2105.4 1800 2088.2 1801.9" class="colorfda08e svgShape"></polygon><path fill="#021b79" d="M1961,1501.6l191.7,176.3-93.9,115.5s-257.3-172.3-257.8-260.2-28.2-130-28.2-130l-9.5-157.9,27.4-62.4,73.5-6.8S1902.1,1230.9,1961,1501.6Z" class="color13417c svgShape"></path><path fill="#01104a" d="M2070.8,1939.4h0a6.5,6.5,0,0,0,9.1-.3l132.7-139.9c18.7-18.8,20.6-33.7-.4-48.5l-41.5-35.6-88,85.1,10,9.6,2.7,10,2.2,7.8,1.7,6.3-1.8,5-3.5,10-4.7,13.6-22,62.4A13.9,13.9,0,0,0,2070.8,1939.4Z" class="color01184a svgShape"></path><polygon fill="#8ec5fd" points="1783.6 1885.5 1779.1 1852.8 1897.1 1838.1 1902.1 1891.9 1876.3 1896.8 1796.9 1896.8 1783.6 1885.5" class="colorfda08e svgShape"></polygon><path fill="#0575e6" d="M1879.6,1501.4l62.2,342.4-164.5,23.4s-94.3-332.8-54.3-411.1,109.8-156.3,109.8-156.3l-34.5-119.7,76.3-40,68.4,27.6S2076.7,1281.5,1879.6,1501.4Z" class="color476b9f svgShape"></path><path fill="#01104a" d="M1981.3,1110.5l-20.8-51.4,26.8,201.5s-139.3,35.5-237.5-10.2l57.8-184.1-38.2,65.4c-5.8,9.9-16.1,15.6-27.6,17.4-24.9,4-48.9-11.9-55.9-36.1l-29.2-100,34.5,6,39.2,29h0c.2-.8,4.8-19,16.1-46.6h0c5.4-13.2,12.3-28.5,21-45.1,27.3-52,68.1-26,68.1-26l83.5-8.4s35-36.5,79.1,20.4c18.7,24.2,43.4,84.7,65.6,146.4,0,0,37.3,105.7-55.4,99.8s-88.3-22.9-88.3-22.9l39.1-68.1Z" class="color01184a svgShape"></path><path fill="#8ec5fd" d="M1797.2,814.3a212.9,212.9,0,0,0,2.9,46.6,130.1,130.1,0,0,0,4.9,18.3c6.2,17.1,16.9,31.4,35.6,33l-3.2,9.5-.7,2s-10.3,26.4,31.7,30.9,50.7-32.8,50.7-32.8l-23.9-67.4s31.3-5.5,23.7-29.4-39.5-4.3-30.5,12.3c0,0-11.7,1.1-21.6-43C1866.8,794.3,1809.2,774.9,1797.2,814.3Z" class="colorfda08e svgShape"></path><circle cx="1847.1" cy="845.3" r="4.7" fill="#040404" class="color040404 svgShape"></circle><circle cx="1808.4" cy="846.6" r="4.7" fill="#040404" class="color040404 svgShape"></circle><path fill="#6f89e9" d="M1897.1 839.7a26.4 26.4 0 015.7-8.6 1.7 1.7 0 012.4-.2 1.5 1.5 0 01.3 2.2c-.6.5-1.1 1.2-1.7 1.8a8.6 8.6 0 00-.7 1l-.4.5-.2.2c.1-.1.1-.1 0 .1a25.5 25.5 0 00-2.3 4.3 1.6 1.6 0 01-2.2.7A1.5 1.5 0 011897.1 839.7zM1837.4 921.7c37.5-4.7 40.6-21 40.6-21-13.7 13.8-37.4 11.5-37.4 11.5z" class="colore97a6f svgShape"></path><path fill="#181f38" d="M1797.2,814.3s47.1,12.6,69.6-20c0,0-3.3-15.2-4.7-15s-37.1-.5-39-.2-23.9,8.5-25.6,10.5-5.3,7.1-5.6,10.7S1797.2,814.3,1797.2,814.3Z" class="color381819 svgShape"></path><path fill="#040404" d="M1832.9,885.2c1.9,4.6,7.6,13.9,20.5,9.2-2.1-13.8,11.7-21.6,11.7-21.6s-.7-1.3-1-1.9C1857.8,875.4,1842,886,1832.9,885.2Z" class="color040404 svgShape"></path><path fill="#ffffff" d="M1832,882.7a12.3,12.3,0,0,0,.9,2.5c9.1.8,24.9-9.8,31.2-14.3a20.7,20.7,0,0,0-2-2.8Z" class="colorffffff svgShape"></path><path fill="#476bf4" d="M1853.4,894.4l3-1.3c12.6-6.3,11.2-15,8.7-20.3C1865.1,872.8,1851.3,880.6,1853.4,894.4Z" class="colorf47847 svgShape"></path><path fill="#000413" d="M1746.5,1001.3l-2.1,70-14-23.3h0c.2-.8,4.8-19,16.1-46.6Z" class="color000613 svgShape"></path><polygon fill="#000413" points="1960.5 1059.1 1955.2 1019 1980.1 1107.5 1960.5 1059.1" class="color000613 svgShape"></polygon><polygon fill="#000413" points="1807.6 1066.3 1812.9 1009 1799.2 1080.6 1807.6 1066.3" class="color000613 svgShape"></polygon><path fill="#01104a" d="M1672,1967.6h0a6.4,6.4,0,0,0,6.4,6.4h192.8c26.5.5,38.7-8.3,35-33.7l-2.8-54.6-122.3-5.2v13.8l-5.3,8.8-4.2,7-3.4,5.5-4.8,2.2-9.8,4.4-13,5.8-60.4,27.1A13.7,13.7,0,0,0,1672,1967.6Z" class="color01184a svgShape"></path><path fill="#6f89e9" d="M1822,864.6c.3-1.9,1.6-3.5,2.5-5.3a21.3,21.3,0,0,0,2-5.5,24.8,24.8,0,0,0,.4-11.8c-.4-2.1,3.1-2.7,3.5-.7a30.9,30.9,0,0,1-2.9,19.8c-.7,1.2-2.3,3.1-1.9,4.5s2.9,1.2,4.1,1a27.9,27.9,0,0,0,10.2-3.8c1.9-1.1,3.7,1.7,1.7,2.8a31.9,31.9,0,0,1-11.5,4.2,8.6,8.6,0,0,1-5.7-.6A4.8,4.8,0,0,1,1822,864.6Z" class="colore97a6f svgShape"></path><ellipse cx="1856.9" cy="825.3" fill="#181f38" rx="5.6" ry="11.9" transform="rotate(-75.6 1857.15 825.22)" class="color381819 svgShape"></ellipse><ellipse cx="1804.8" cy="830.9" fill="#181f38" rx="11.9" ry="5.6" transform="rotate(-27.3 1806.031 831.05)" class="color381819 svgShape"></ellipse><rect width="515.6" height="88.04" x="1502" y="1056.4" fill="#021b79" transform="rotate(-152.6 1759.285 1100.837)" class="color13417c svgShape"></rect><rect width="515.6" height="11.29" x="1512.1" y="1075.2" fill="#01104a" transform="rotate(-152.6 1769.46 1081.3)" class="color01184a svgShape"></rect><rect width="515.6" height="11.29" x="1491.9" y="1114.2" fill="#01104a" transform="rotate(-152.6 1749.185 1120.25)" class="color01184a svgShape"></rect><path fill="#8ec5fd" d="M1435.3,937.6l22.6,24.9,52.8,58.2,40.6-78.2-78-9.7-33.3-4.1A5.4,5.4,0,0,0,1435.3,937.6Z" class="colorfda08e svgShape"></path><path fill="#01104a" d="M1435.3,937.6l22.6,24.9,15.4-29.7-33.3-4.1A5.4,5.4,0,0,0,1435.3,937.6Z" class="color01184a svgShape"></path><path fill="#01104a" d="M2017.2,1186.8h19.3a0,0,0,0,1,0,0v88a0,0,0,0,1,0,0h-19.3a31.5,31.5,0,0,1-31.5-31.5v-25a31.5,31.5,0,0,1,31.5-31.5Z" transform="rotate(-152.6 2010.57 1231.39)" class="color01184a svgShape"></path><path fill="#8ec5fd" d="M1701.1 1119.4s9.6-27.6 4.3-31.4-16.7 21.2-16.7 21.2 10.1-27.1 5.1-29-17.7 24.3-17.7 24.3 11.3-27 5.2-28.8-17 23.3-17 23.3 10.7-22.5 4.9-24.6-14.3 21-14.3 21l-11.3-5.8s5.1 17.8 30.3 29.9S1701.1 1119.4 1701.1 1119.4zM1921 1131.7s10.7-29.3 6.6-40.7-43.7-21.9-43.7-21.9-32.2 2.1-56.1 14.7c-2.7 1.5-1 5.6 1.9 4.6 10.7-3.5 24.2-6.7 34.1-4.8l-23.3 12c-.6.2-9.1 8-10.9 11.6a3.9 3.9 0 005.6 5 41.2 41.2 0 006.3-5.3c7.3-7.8 29.4-11 29.4-11l-25.7 16a6.8 6.8 0 00-2.7 3.1l-4.1 9s2.8 5.5 11.6-4.2l23.1-8.9s2.8.5-14.9 8.9a4.3 4.3 0 00-2.5 3.2 2.6 2.6 0 001.7 3c3.5 1.6 28.6-5.6 28.6-5.6S1912.4 1121.9 1921 1131.7z" class="colorfda08e svgShape"></path><rect width="2238.5" height="25.2" x="154.2" y="1974.8" fill="#0c194a" class="color0c274a svgShape"></rect><rect width="443.5" height="395.47" x="270.4" y="865.5" fill="#ffffff" class="colorffffff svgShape"></rect><path fill="#0575e6" d="M270.4,1261l116.7-117.4a70.9,70.9,0,0,1,92.4-7.2L648.8,1261Z" class="color476b9f svgShape"></path><path fill="#01104a" d="M713.9,1180.6l-72.7-49.4a71.2,71.2,0,0,0-87.1,5.7l-33.4,29.8L648.8,1261h65.1Z" class="color01184a svgShape"></path><circle cx="438.4" cy="995" r="58.2" fill="#01104a" class="color01184a svgShape"></circle><rect width="188.3" height="167.91" x="767.6" y="863.8" fill="#ffffff" class="colorffffff svgShape"></rect><path fill="#b5c7d9" d="M767.6,1031.7l49.6-49.9a30.2,30.2,0,0,1,39.2-3l71.9,52.9Z" class="colorb5c4d9 svgShape"></path><path fill="#0575e6" d="M956,997.6l-30.9-21a30.2,30.2,0,0,0-37,2.4l-14.2,12.7,54.4,40H956Z" class="color476b9f svgShape"></path><circle cx="839" cy="918.8" r="24.7" fill="#0575e6" class="color476b9f svgShape"></circle><rect width="188.3" height="167.91" x="767.6" y="1092.1" fill="#ffffff" class="colorffffff svgShape"></rect><path fill="#b5c7d9" d="M767.6,1260l49.6-49.8a30.1,30.1,0,0,1,39.2-3.1l71.9,52.9Z" class="colorb5c4d9 svgShape"></path><path fill="#0575e6" d="M956,1225.9l-30.9-21a30.4,30.4,0,0,0-37,2.4L873.9,1220l54.4,40H956Z" class="color476b9f svgShape"></path><circle cx="839" cy="1147.1" r="24.7" fill="#0575e6" class="color476b9f svgShape"></circle><path fill="#b5c7d9" d="M559.9 1428.1H548a68.7 68.7 0 00-7.6-18.6l8.4-8.4a5 5 0 000-7.1l-17.1-17.1a5.1 5.1 0 00-7.2 0l-8.4 8.4a70.2 70.2 0 00-18.5-7.7v-11.9a5 5 0 00-5.1-5H468.4a5 5 0 00-5.1 5v11.9a70.9 70.9 0 00-18.6 7.7l-8.4-8.4a5 5 0 00-7.1 0L412.1 1394a5 5 0 000 7.1l8.4 8.4a72.3 72.3 0 00-7.7 18.6H400.9a5.1 5.1 0 00-5.1 5.1v24.1a5.1 5.1 0 005.1 5.1h11.9a70.2 70.2 0 007.7 18.5l-8.4 8.4a5.1 5.1 0 000 7.2l17.1 17.1a5.1 5.1 0 007.1 0l8.4-8.4a67.4 67.4 0 0018.6 7.6v11.9a5.1 5.1 0 005.1 5.1h24.1a5.1 5.1 0 005.1-5.1v-11.9a66.8 66.8 0 0018.5-7.6l8.4 8.4a5.3 5.3 0 007.2 0l17.1-17.1a5.1 5.1 0 000-7.2l-8.4-8.4a66.8 66.8 0 007.6-18.5h11.9a5.1 5.1 0 005.1-5.1v-24.1A5.1 5.1 0 00559.9 1428.1zM480.4 1466a20.8 20.8 0 1120.8-20.8A20.8 20.8 0 01480.4 1466zM913.6 1510.9l16.3-16.8 27.1 26.1a34.8 34.8 0 00-47-45.3l-79.6-76.8a34.8 34.8 0 00-47-45.3l27.1 26.2-16.3 16.8-27.3-26.3a34.8 34.8 0 0046.7 46l79.7 76.9a34.8 34.8 0 0047.6 44.9z" class="colorb5c4d9 svgShape"></path><polygon fill="#b5c7d9" points="1238.2 1360.7 1262.5 1409.9 1316.9 1417.8 1277.6 1456.2 1286.9 1510.3 1238.2 1484.8 1189.6 1510.3 1198.9 1456.2 1159.5 1417.8 1213.9 1409.9 1238.2 1360.7" class="colorb5c4d9 svgShape"></polygon><path fill="#01104a" d="M1443.2 1694.8c0 73.8-35.6 134.9-35.6 134.9s-35.6-61.1-35.6-134.9 35.6-134.9 35.6-134.9S1443.2 1621 1443.2 1694.8zM1536.3 1703.3c-6.6 73.5-47.6 131.1-47.6 131.1s-30-64-23.4-137.5 47.7-131.2 47.7-131.2S1543 1629.8 1536.3 1703.3z" class="color01184a svgShape"></path><path fill="#021b79" d="M1394.3 1710.1c13.6 61.2-6.4 118.8-6.4 118.8s-42.4-43.7-56-105 6.5-118.8 6.5-118.8S1380.8 1648.9 1394.3 1710.1zM1483.7 1721.9c-9.6 62-49.1 108.4-49.1 108.4s-23.7-56.2-14.1-118.1 49-108.5 49-108.5S1493.2 1659.9 1483.7 1721.9zM1569.9 1723.3c-9.5 61.9-49 108.4-49 108.4s-23.7-56.2-14.2-118.2 49.1-108.4 49.1-108.4S1579.5 1661.3 1569.9 1723.3z" class="color13417c svgShape"></path><rect width="231" height="203.5" x="1334.4" y="1771.3" fill="#0575e6" class="color476b9f svgShape"></rect><rect width="231" height="15.71" x="1334.4" y="1814" fill="#021b79" class="color13417c svgShape"></rect><rect width="231" height="7.86" x="1334.4" y="1840" fill="#021b79" class="color13417c svgShape"></rect></svg>