<svg xmlns="http://www.w3.org/2000/svg" xmlns:xlink="http://www.w3.org/1999/xlink" data-name="Layer 1" viewBox="0 0 2000 2000" id="Customerfeedback"><defs><linearGradient id="a" x1="248.52" x2="1751.48" y1="994.67" y2="994.67" gradientUnits="userSpaceOnUse"><stop offset="0" stop-color="#ffffff" class="stopColorffffff svgShape"></stop><stop offset="1" stop-color="#d4dfea" class="stopColord4dbea svgShape"></stop></linearGradient><linearGradient id="d" x1="1136.95" x2="1617.05" y1="486.4" y2="486.4" xlink:href="#a"></linearGradient><linearGradient id="f" x1="-132.51" x2="2746.34" y1="964.89" y2="964.89" xlink:href="#a"></linearGradient><linearGradient id="g" x1="424.18" x2="1113.56" y1="1032.13" y2="1032.13" gradientTransform="rotate(.11 803.176 1077.432)" xlink:href="#a"></linearGradient><linearGradient id="b" x1="2805.79" x2="3810.22" y1="1104.22" y2="230.14" gradientTransform="matrix(-1 0 0 1 3659.31 0)" gradientUnits="userSpaceOnUse"><stop offset="0" stop-color="#668bb0" class="stopColor6669b0 svgShape"></stop><stop offset="1" stop-color="#30448e" class="stopColor33308e svgShape"></stop></linearGradient><linearGradient id="h" x1="499.43" x2="724.13" y1="1157.81" y2="1157.81" xlink:href="#b"></linearGradient><linearGradient id="i" x1="1519.53" x2="1730.74" y1="1164.08" y2="1164.08" xlink:href="#b"></linearGradient><linearGradient id="j" x1="1324.36" x2="1480.34" y1="1399.46" y2="1399.46" xlink:href="#b"></linearGradient><linearGradient id="k" x1="760.8" x2="873.96" y1="772.35" y2="772.35" xlink:href="#b"></linearGradient><linearGradient id="l" x1="866.99" x2="968.84" y1="772.35" y2="772.35" xlink:href="#b"></linearGradient><linearGradient id="c" x1="2687" x2="2510.36" y1="1174.71" y2="766.8" gradientTransform="matrix(-1 0 0 1 3913.5 0)" gradientUnits="userSpaceOnUse"><stop offset="0" stop-color="#1848fb" class="stopColorfbad18 svgShape"></stop><stop offset="1" stop-color="#204df4" class="stopColorf47820 svgShape"></stop></linearGradient><linearGradient id="m" x1="2579.8" x2="2676.35" y1="754.67" y2="754.67" gradientTransform="matrix(-1 0 0 1 3913.5 0)" xlink:href="#a"></linearGradient><linearGradient id="n" x1="2854.42" x2="2677.78" y1="1102.2" y2="694.3" xlink:href="#c"></linearGradient><linearGradient id="o" x1="2953.82" x2="2777.19" y1="1059.16" y2="651.26" xlink:href="#c"></linearGradient><linearGradient id="p" x1="1278.29" x2="1596.32" y1="441.96" y2="441.96" xlink:href="#b"></linearGradient><clipPath id="e"><path fill="none" d="M1584.41,737.05c-176.59-53.61-328.83-129.38-501.33-339.61S447,251.89,312.21,567.24s-37.73,606.45,124,660.36,231.12,106.68,320.4,313.53c71.63,165.92,469.83,245.83,593.21,85.81,225.67-292.66,231.9-178.33,339.71-396.64S1765.78,792.11,1584.41,737.05Z"></path></clipPath></defs><path fill="url(#a)" d="M1584.41,737.05c-176.59-53.61-328.83-129.38-501.33-339.61S447,251.89,312.21,567.24s-37.73,606.45,124,660.36,231.12,106.68,320.4,313.53c71.63,165.92,469.83,245.83,593.21,85.81,225.67-292.66,231.9-178.33,339.71-396.64S1765.78,792.11,1584.41,737.05Z"></path><path fill="url(#d)" d="M1475.65,434.23c-120-135.59-165.39-176.11-298-147.5s82.9,258.77,302.56,371.64S1622.53,600.2,1475.65,434.23Z"></path><rect width="1421.89" height="10.51" x="289.06" y="1714.02" fill="#cbdbeb" class="colorcbd3eb svgShape"></rect><g clip-path="url(#e)" fill="#000000" class="color000000 svgShape"><polygon fill="#cbdbeb" points="465.38 695.34 465.38 638.87 559.05 638.87 559.05 368.96 584.87 368.96 584.87 638.87 685.77 638.87 685.77 695.34 739.81 695.34 739.81 1827.06 350.06 1827.06 350.06 695.34 465.38 695.34" class="colorcbd3eb svgShape"></polygon><rect width="54.04" height="1018.02" x="350.06" y="695.34" fill="#d6e3f0" transform="rotate(180 377.085 1204.355)" class="colord6dcf0 svgShape"></rect><rect width="389.75" height="862.13" x="544.94" y="964.93" fill="#cbdbeb" transform="rotate(180 739.815 1395.995)" class="colorcbd3eb svgShape"></rect><rect width="54.04" height="862.13" x="544.94" y="964.93" fill="#d6e3f0" transform="rotate(180 571.96 1395.995)" class="colord6dcf0 svgShape"></rect><rect width="55.93" height="23.21" x="824.38" y="1001.66" fill="#d6e3f0" transform="rotate(180 852.34 1013.265)" class="colord6dcf0 svgShape"></rect><rect width="55.93" height="23.21" x="730.21" y="1001.66" fill="#d6e3f0" transform="rotate(180 758.18 1013.265)" class="colord6dcf0 svgShape"></rect><rect width="55.93" height="23.21" x="824.38" y="1086.17" fill="#d6e3f0" transform="rotate(180 852.34 1097.78)" class="colord6dcf0 svgShape"></rect><rect width="55.93" height="23.21" x="730.21" y="1086.17" fill="#d6e3f0" transform="rotate(180 758.18 1097.78)" class="colord6dcf0 svgShape"></rect><rect width="55.93" height="23.21" x="636.05" y="1086.17" fill="#d6e3f0" transform="rotate(180 664.015 1097.78)" class="colord6dcf0 svgShape"></rect><rect width="55.93" height="23.2" x="824.38" y="1170.69" fill="#d6e3f0" transform="rotate(180 852.34 1182.295)" class="colord6dcf0 svgShape"></rect><rect width="55.93" height="23.2" x="636.05" y="1170.69" fill="#d6e3f0" transform="rotate(180 664.015 1182.295)" class="colord6dcf0 svgShape"></rect><rect width="55.93" height="23.21" x="730.21" y="1212.95" fill="#d6e3f0" transform="rotate(180 758.18 1224.55)" class="colord6dcf0 svgShape"></rect><rect width="55.93" height="23.21" x="824.38" y="1255.21" fill="#d6e3f0" transform="rotate(180 852.34 1266.815)" class="colord6dcf0 svgShape"></rect><rect width="55.93" height="23.22" x="730.21" y="1297.46" fill="#d6e3f0" transform="rotate(180 758.18 1309.07)" class="colord6dcf0 svgShape"></rect><rect width="55.93" height="23.21" x="824.38" y="1339.72" fill="#d6e3f0" transform="rotate(180 852.34 1351.325)" class="colord6dcf0 svgShape"></rect><rect width="55.93" height="23.21" x="636.05" y="1339.72" fill="#d6e3f0" transform="rotate(180 664.015 1351.325)" class="colord6dcf0 svgShape"></rect><rect width="55.93" height="23.21" x="824.38" y="1417.82" fill="#d6e3f0" transform="rotate(180 852.34 1429.43)" class="colord6dcf0 svgShape"></rect><rect width="55.93" height="23.21" x="730.21" y="1417.82" fill="#d6e3f0" transform="rotate(180 758.18 1429.43)" class="colord6dcf0 svgShape"></rect><rect width="55.93" height="23.21" x="824.38" y="1502.34" fill="#d6e3f0" transform="rotate(180 852.34 1513.945)" class="colord6dcf0 svgShape"></rect><rect width="55.93" height="23.21" x="730.21" y="1502.34" fill="#d6e3f0" transform="rotate(180 758.18 1513.945)" class="colord6dcf0 svgShape"></rect><rect width="55.93" height="23.21" x="636.05" y="1502.34" fill="#d6e3f0" transform="rotate(180 664.015 1513.945)" class="colord6dcf0 svgShape"></rect><rect width="55.93" height="23.21" x="824.38" y="1586.85" fill="#d6e3f0" transform="rotate(180 852.34 1598.46)" class="colord6dcf0 svgShape"></rect><rect width="55.93" height="23.21" x="636.05" y="1586.85" fill="#d6e3f0" transform="rotate(180 664.015 1598.46)" class="colord6dcf0 svgShape"></rect><rect width="55.93" height="23.21" x="730.21" y="1629.11" fill="#d6e3f0" transform="rotate(180 758.18 1640.72)" class="colord6dcf0 svgShape"></rect><rect width="55.93" height="23.21" x="636.05" y="1629.11" fill="#d6e3f0" transform="rotate(180 664.015 1640.72)" class="colord6dcf0 svgShape"></rect><rect width="55.93" height="23.21" x="824.38" y="1671.37" fill="#d6e3f0" transform="rotate(180 852.34 1682.98)" class="colord6dcf0 svgShape"></rect><rect width="55.93" height="23.21" x="730.21" y="1713.63" fill="#d6e3f0" transform="rotate(180 758.18 1725.235)" class="colord6dcf0 svgShape"></rect><rect width="55.93" height="23.21" x="824.38" y="1755.89" fill="#d6e3f0" transform="rotate(180 852.34 1767.495)" class="colord6dcf0 svgShape"></rect><rect width="55.93" height="23.21" x="636.05" y="1755.89" fill="#d6e3f0" transform="rotate(180 664.015 1767.495)" class="colord6dcf0 svgShape"></rect><rect width="389.75" height="862.14" x="1477.49" y="964.92" fill="#cbdbeb" transform="rotate(180 1672.365 1395.99)" class="colorcbd3eb svgShape"></rect><rect width="54.04" height="862.14" x="1477.49" y="964.92" fill="#d6e3f0" transform="rotate(180 1504.51 1395.99)" class="colord6dcf0 svgShape"></rect><rect width="522.93" height="1272.2" x="923.84" y="554.86" fill="#cbdbeb" transform="rotate(180 1185.305 1190.96)" class="colorcbd3eb svgShape"></rect><rect width="54.04" height="1272.2" x="923.84" y="554.86" fill="#d6e3f0" transform="rotate(180 950.86 1190.96)" class="colord6dcf0 svgShape"></rect><rect width="81.67" height="33.9" x="1310.02" y="615.79" fill="#d6e3f0" transform="rotate(180 1350.855 632.74)" class="colord6dcf0 svgShape"></rect><rect width="81.67" height="33.9" x="1172.51" y="615.79" fill="#d6e3f0" transform="rotate(180 1213.35 632.74)" class="colord6dcf0 svgShape"></rect><rect width="81.67" height="33.9" x="1310.02" y="739.21" fill="#d6e3f0" transform="rotate(180 1350.855 756.16)" class="colord6dcf0 svgShape"></rect><rect width="81.67" height="33.9" x="1172.51" y="739.21" fill="#d6e3f0" transform="rotate(180 1213.35 756.16)" class="colord6dcf0 svgShape"></rect><rect width="81.67" height="33.9" x="1035.01" y="739.21" fill="#d6e3f0" transform="rotate(180 1075.845 756.16)" class="colord6dcf0 svgShape"></rect><rect width="81.67" height="33.9" x="1310.02" y="862.63" fill="#d6e3f0" transform="rotate(180 1350.855 879.575)" class="colord6dcf0 svgShape"></rect><rect width="81.67" height="33.9" x="1035.01" y="862.63" fill="#d6e3f0" transform="rotate(180 1075.845 879.575)" class="colord6dcf0 svgShape"></rect><rect width="81.67" height="33.9" x="1172.51" y="924.34" fill="#d6e3f0" transform="rotate(180 1213.35 941.29)" class="colord6dcf0 svgShape"></rect><rect width="81.67" height="33.9" x="1310.02" y="986.05" fill="#d6e3f0" transform="rotate(180 1350.855 1002.995)" class="colord6dcf0 svgShape"></rect><rect width="81.67" height="33.9" x="1172.51" y="1047.75" fill="#d6e3f0" transform="rotate(180 1213.35 1064.7)" class="colord6dcf0 svgShape"></rect><rect width="81.67" height="33.9" x="1310.02" y="1109.47" fill="#d6e3f0" transform="rotate(180 1350.855 1126.415)" class="colord6dcf0 svgShape"></rect><rect width="81.67" height="33.9" x="1035.01" y="1109.47" fill="#d6e3f0" transform="rotate(180 1075.845 1126.415)" class="colord6dcf0 svgShape"></rect><rect width="81.67" height="33.9" x="1310.02" y="1223.51" fill="#d6e3f0" transform="rotate(180 1350.855 1240.46)" class="colord6dcf0 svgShape"></rect><rect width="81.67" height="33.9" x="1172.51" y="1223.51" fill="#d6e3f0" transform="rotate(180 1213.35 1240.46)" class="colord6dcf0 svgShape"></rect><rect width="81.67" height="33.9" x="1310.02" y="1346.93" fill="#d6e3f0" transform="rotate(180 1350.855 1363.88)" class="colord6dcf0 svgShape"></rect><rect width="81.67" height="33.9" x="1172.51" y="1346.93" fill="#d6e3f0" transform="rotate(180 1213.35 1363.88)" class="colord6dcf0 svgShape"></rect><rect width="81.67" height="33.9" x="1035.01" y="1346.93" fill="#d6e3f0" transform="rotate(180 1075.845 1363.88)" class="colord6dcf0 svgShape"></rect><rect width="81.67" height="33.9" x="1310.02" y="1470.35" fill="#d6e3f0" transform="rotate(180 1350.855 1487.3)" class="colord6dcf0 svgShape"></rect><rect width="81.67" height="33.9" x="1035.01" y="1470.35" fill="#d6e3f0" transform="rotate(180 1075.845 1487.3)" class="colord6dcf0 svgShape"></rect><rect width="81.67" height="33.9" x="1172.51" y="1532.06" fill="#d6e3f0" transform="rotate(180 1213.35 1549.005)" class="colord6dcf0 svgShape"></rect><rect width="81.67" height="33.9" x="1035.01" y="1532.06" fill="#d6e3f0" transform="rotate(180 1075.845 1549.005)" class="colord6dcf0 svgShape"></rect><rect width="81.67" height="33.89" x="1310.02" y="1593.77" fill="#d6e3f0" transform="rotate(180 1350.855 1610.715)" class="colord6dcf0 svgShape"></rect><rect width="81.67" height="33.9" x="1172.51" y="1655.48" fill="#d6e3f0" transform="rotate(180 1213.35 1672.425)" class="colord6dcf0 svgShape"></rect><rect width="81.67" height="33.9" x="1310.02" y="1717.18" fill="#d6e3f0" transform="rotate(180 1350.855 1734.13)" class="colord6dcf0 svgShape"></rect><rect width="81.67" height="33.9" x="1035.01" y="1717.18" fill="#d6e3f0" transform="rotate(180 1075.845 1734.13)" class="colord6dcf0 svgShape"></rect><rect width="512.54" height="1177.37" x="1746" y="649.69" fill="#cbdbeb" transform="rotate(180 2002.275 1238.375)" class="colorcbd3eb svgShape"></rect><rect width="52.96" height="1177.37" x="1746" y="649.69" fill="#d6e3f0" transform="rotate(180 1772.485 1238.375)" class="colord6dcf0 svgShape"></rect><rect width="80.05" height="31.37" x="1989.73" y="706.08" fill="#d6e3f0" transform="rotate(180 2029.76 721.765)" class="colord6dcf0 svgShape"></rect><rect width="80.05" height="31.37" x="1989.73" y="820.3" fill="#d6e3f0" transform="rotate(180 2029.76 835.985)" class="colord6dcf0 svgShape"></rect><rect width="80.04" height="31.37" x="1854.96" y="820.3" fill="#d6e3f0" transform="rotate(180 1894.985 835.985)" class="colord6dcf0 svgShape"></rect><rect width="80.04" height="31.37" x="1854.96" y="934.52" fill="#d6e3f0" transform="rotate(180 1894.985 950.2)" class="colord6dcf0 svgShape"></rect><rect width="80.05" height="31.37" x="1989.73" y="991.62" fill="#d6e3f0" transform="rotate(180 2029.76 1007.31)" class="colord6dcf0 svgShape"></rect><rect width="80.05" height="31.37" x="1989.73" y="1105.84" fill="#d6e3f0" transform="rotate(180 2029.76 1121.53)" class="colord6dcf0 svgShape"></rect><rect width="80.04" height="31.37" x="1854.96" y="1162.95" fill="#d6e3f0" transform="rotate(180 1894.985 1178.635)" class="colord6dcf0 svgShape"></rect><rect width="80.05" height="31.37" x="1989.73" y="1268.5" fill="#d6e3f0" transform="rotate(180 2029.76 1284.19)" class="colord6dcf0 svgShape"></rect><rect width="80.05" height="31.37" x="1989.73" y="1382.72" fill="#d6e3f0" transform="rotate(180 2029.76 1398.405)" class="colord6dcf0 svgShape"></rect><rect width="80.04" height="31.37" x="1854.96" y="1382.72" fill="#d6e3f0" transform="rotate(180 1894.985 1398.405)" class="colord6dcf0 svgShape"></rect><rect width="80.04" height="31.37" x="1854.96" y="1496.94" fill="#d6e3f0" transform="rotate(180 1894.985 1512.625)" class="colord6dcf0 svgShape"></rect><rect width="80.05" height="31.37" x="1989.73" y="1554.05" fill="#d6e3f0" transform="rotate(180 2029.76 1569.73)" class="colord6dcf0 svgShape"></rect><rect width="80.04" height="31.37" x="1854.96" y="1554.05" fill="#d6e3f0" transform="rotate(180 1894.985 1569.73)" class="colord6dcf0 svgShape"></rect><rect width="80.05" height="31.37" x="1989.73" y="1668.27" fill="#d6e3f0" transform="rotate(180 2029.76 1683.95)" class="colord6dcf0 svgShape"></rect><rect width="80.04" height="31.37" x="1854.96" y="1725.37" fill="#d6e3f0" transform="rotate(180 1894.985 1741.06)" class="colord6dcf0 svgShape"></rect><rect width="330.1" height="803.05" x="89.63" y="1024.01" fill="#cbdbeb" transform="rotate(180 254.68 1425.535)" class="colorcbd3eb svgShape"></rect><rect width="34.12" height="803.05" x="89.63" y="1024.01" fill="#d6e3f0" transform="rotate(180 106.69 1425.535)" class="colord6dcf0 svgShape"></rect><rect width="51.55" height="21.39" x="333.41" y="1062.47" fill="#d6e3f0" transform="rotate(180 359.18 1073.17)" class="colord6dcf0 svgShape"></rect><rect width="51.55" height="21.39" x="246.61" y="1062.47" fill="#d6e3f0" transform="rotate(180 272.385 1073.17)" class="colord6dcf0 svgShape"></rect><rect width="51.55" height="21.4" x="333.41" y="1140.38" fill="#d6e3f0" transform="rotate(180 359.18 1151.075)" class="colord6dcf0 svgShape"></rect><rect width="51.55" height="21.4" x="246.61" y="1140.38" fill="#d6e3f0" transform="rotate(180 272.385 1151.075)" class="colord6dcf0 svgShape"></rect><rect width="51.55" height="21.4" x="159.81" y="1140.38" fill="#d6e3f0" transform="rotate(180 185.585 1151.075)" class="colord6dcf0 svgShape"></rect><rect width="51.55" height="21.39" x="333.41" y="1218.28" fill="#d6e3f0" transform="rotate(180 359.18 1228.98)" class="colord6dcf0 svgShape"></rect><rect width="51.55" height="21.39" x="159.81" y="1218.28" fill="#d6e3f0" transform="rotate(180 185.585 1228.98)" class="colord6dcf0 svgShape"></rect><rect width="51.55" height="21.39" x="246.61" y="1257.24" fill="#d6e3f0" transform="rotate(180 272.385 1267.93)" class="colord6dcf0 svgShape"></rect><rect width="51.55" height="21.39" x="333.41" y="1296.19" fill="#d6e3f0" transform="rotate(180 359.18 1306.885)" class="colord6dcf0 svgShape"></rect><rect width="51.55" height="21.4" x="246.61" y="1335.14" fill="#d6e3f0" transform="rotate(180 272.385 1345.84)" class="colord6dcf0 svgShape"></rect><rect width="51.55" height="21.4" x="333.41" y="1374.09" fill="#d6e3f0" transform="rotate(180 359.18 1384.79)" class="colord6dcf0 svgShape"></rect><rect width="51.55" height="21.4" x="159.81" y="1374.09" fill="#d6e3f0" transform="rotate(180 185.585 1384.79)" class="colord6dcf0 svgShape"></rect><rect width="51.55" height="21.39" x="333.41" y="1446.08" fill="#d6e3f0" transform="rotate(180 359.18 1456.78)" class="colord6dcf0 svgShape"></rect><rect width="51.55" height="21.39" x="246.61" y="1446.08" fill="#d6e3f0" transform="rotate(180 272.385 1456.78)" class="colord6dcf0 svgShape"></rect><rect width="51.55" height="21.4" x="333.41" y="1523.99" fill="#d6e3f0" transform="rotate(180 359.18 1534.685)" class="colord6dcf0 svgShape"></rect><rect width="51.55" height="21.4" x="246.61" y="1523.99" fill="#d6e3f0" transform="rotate(180 272.385 1534.685)" class="colord6dcf0 svgShape"></rect><rect width="51.55" height="21.4" x="159.81" y="1523.99" fill="#d6e3f0" transform="rotate(180 185.585 1534.685)" class="colord6dcf0 svgShape"></rect><rect width="51.55" height="21.39" x="333.41" y="1601.89" fill="#d6e3f0" transform="rotate(180 359.18 1612.59)" class="colord6dcf0 svgShape"></rect><rect width="51.55" height="21.39" x="159.81" y="1601.89" fill="#d6e3f0" transform="rotate(180 185.585 1612.59)" class="colord6dcf0 svgShape"></rect><rect width="51.55" height="21.39" x="246.61" y="1640.85" fill="#d6e3f0" transform="rotate(180 272.385 1651.545)" class="colord6dcf0 svgShape"></rect><rect width="51.55" height="21.39" x="159.81" y="1640.85" fill="#d6e3f0" transform="rotate(180 185.585 1651.545)" class="colord6dcf0 svgShape"></rect><rect width="51.55" height="21.4" x="333.41" y="1679.8" fill="#d6e3f0" transform="rotate(180 359.18 1690.495)" class="colord6dcf0 svgShape"></rect><rect width="51.55" height="21.4" x="246.61" y="1718.75" fill="#d6e3f0" transform="rotate(180 272.385 1729.45)" class="colord6dcf0 svgShape"></rect><rect width="51.55" height="21.39" x="333.41" y="1757.71" fill="#d6e3f0" transform="rotate(180 359.18 1768.405)" class="colord6dcf0 svgShape"></rect><rect width="51.55" height="21.39" x="159.81" y="1757.71" fill="#d6e3f0" transform="rotate(180 185.585 1768.405)" class="colord6dcf0 svgShape"></rect><rect width="1398.92" height="1595.02" x="-126.89" y="164.52" fill="#ffffff" opacity=".35" class="colorffffff svgShape"></rect><polygon fill="#ffffff" points="364.41 1730.73 255.84 1730.73 837.86 182.77 946.43 182.77 364.41 1730.73" opacity=".5" class="colorffffff svgShape"></polygon><polygon fill="#ffffff" points="172.7 1730.73 118.42 1730.73 700.43 182.77 754.73 182.77 172.7 1730.73" opacity=".5" class="colorffffff svgShape"></polygon><polygon fill="#ffffff" points="820.9 1730.73 766.62 1730.73 1265.61 348.96 1265.61 460.29 820.9 1730.73" opacity=".5" class="colorffffff svgShape"></polygon><rect width="1398.93" height="1595.02" x="1289.08" y="132.96" fill="#ffffff" opacity=".35" class="colorffffff svgShape"></rect><polygon fill="#ffffff" points="1520.44 1730.73 1411.87 1730.73 1993.89 182.77 2102.46 182.77 1520.44 1730.73" opacity=".5" class="colorffffff svgShape"></polygon><polygon fill="#ffffff" points="1328.72 1730.73 1274.44 1730.73 1856.46 182.77 1910.74 182.77 1328.72 1730.73" opacity=".5" class="colorffffff svgShape"></polygon><path fill="url(#f)" d="M2746.34,452.22V434h-50.25V146.28H-132.51v36.5H-102v12.89H800.12V434H-132.51v18.25H800.12V920.63H-132.51v18.24H800.12v468.4H-132.51v18.25H800.12v305.21H-101.74v10.56h-30.77v42.22h2828.6v-3.39h0v-354.6h50.25v-18.25h-50.25V938.87h50.25V920.63h-50.25V452.22ZM1297.16,938.87h435.71v468.4H1297.16Zm0-18.24V452.22h435.71V920.63Zm0-486.66V195.66h435.71V434Zm0,991.55h435.71v305.21H1297.31v10.56h-.15Zm466.31,305.21V1425.52h435.7v305.21Zm0-323.46V938.87h435.7v468.4Zm0-486.64V452.22h435.7V920.63Zm0-486.66V195.66h435.7V434Zm466.3-238.31h435.71V434H2229.77Zm-1399,0h435.71V434H830.72Zm0,256.56h435.71V920.63H830.72Zm0,486.65h435.71v468.4H830.72Zm0,486.65h435.71v315.77h-.17v-10.56H830.72Zm1834.76,315.77h-.16v-10.56H2229.77V1425.52h435.71Zm0-334H2229.77V938.87h435.71Zm0-486.64H2229.77V452.22h435.71Z"></path></g><path fill="#a7d2fe" d="M1068.92,1101.58c23.34.76,32.55,22.52,52.24,14.64s28.69-7.14,28.29-23.35-13.49-15.32-39.94-16.18C1083.69,1075.86,1034.28,1100.47,1068.92,1101.58Z" class="colorfed2a7 svgShape"></path><path fill="#274bd2" d="M1278.56,994.91c-25.23,31.17-61.65,58.76-121.21,112.68,0,0-28.33-15.68-33.78-39.45,0,0,91.33-99,103.38-110S1304.81,962.47,1278.56,994.91Z" class="colord25927 svgShape"></path><rect width="687.06" height="1224.6" x="425.34" y="419.83" fill="url(#g)" transform="rotate(-.11 801.106 1078.972)"></rect><path fill="#021b79" d="M447.87,373.69,845.11,376l.1,51.58L644,428l-143.4.79a87.49,87.49,0,0,0-87.3,87.66L415.2,1514a87.47,87.47,0,0,0,87.66,87.3l344.57.72.22,108.3L450.42,1714a87.46,87.46,0,0,1-87.65-87.3l-2.2-1165.38A87.47,87.47,0,0,1,447.87,373.69Z" class="color2a276f svgShape"></path><path fill="url(#b)" d="M396.24,460.66l.2,1165.34A87.48,87.48,0,0,0,478,1713.3c2,.17,4,.2,6,.2l610.86-.11a56.65,56.65,0,0,0,56.63-56.65l-.21-1227a56.72,56.72,0,0,0-56.72-56.7l-610.79.11c-2,0-4.09.06-6.06.2A87.53,87.53,0,0,0,396.24,460.66ZM448.9,485a56.66,56.66,0,0,1,56.66-56.69l536.39-.09a56.65,56.65,0,0,1,56.65,56.66l.19,1059.16a56.68,56.68,0,0,1-56.64,56.69l-536.35.09a56.72,56.72,0,0,1-56.72-56.7Z"></path><path fill="#021b79" d="M702.27,1683.45l145.62-.29a26.44,26.44,0,0,0,26.39-26.49h0a26.45,26.45,0,0,0-26.49-26.39l-145.62.3a26.44,26.44,0,0,0-26.39,26.49h0A26.43,26.43,0,0,0,702.27,1683.45Z" class="color2a276f svgShape"></path><path fill="#325bf5" d="M723,614A112.35,112.35,0,1,1,613.11,499.25,112.34,112.34,0,0,1,723,614Z" class="colorf58132 svgShape"></path><path fill="#010101" d="M597.61 574.79a4 4 0 01-3.47-2.16 21.48 21.48 0 00-37.71-.83 4 4 0 01-6.95-4 29.51 29.51 0 0151.78 1.14 4 4 0 01-1.72 5.4A3.94 3.94 0 01597.61 574.79zM636 575.63a4.2 4.2 0 01-1.91-.53 4 4 0 01-1.47-5.48 29.51 29.51 0 0151.77 1.13 4 4 0 11-7.11 3.7 21.49 21.49 0 00-37.71-.83A4 4 0 01636 575.63z" class="color010101 svgShape"></path><path fill="#224df1" d="M547.8,607.08c-.13,6-6.42,10.76-14,10.59s-13.69-5.18-13.56-11.2,6.42-10.75,14-10.59S547.93,601.07,547.8,607.08Z" class="colorf15722 svgShape"></path><path fill="#101421" d="M534.14,618.65h-.4c-8.14-.18-14.65-5.65-14.51-12.19s7-11.77,15-11.53,14.65,5.64,14.51,12.18l-1,0,1,0C548.63,613.53,542.1,618.65,534.14,618.65Zm-.29-21.8c-6.91,0-12.56,4.27-12.68,9.64s5.54,10,12.61,10.22h.36c6.92,0,12.57-4.27,12.69-9.65s-5.54-10-12.62-10.21Z" class="color211310 svgShape"></path><path fill="#224df1" d="M697.37,610.36c-.14,6-6.42,10.76-14,10.59s-13.7-5.18-13.56-11.2,6.42-10.75,14-10.59S697.5,604.34,697.37,610.36Z" class="colorf15722 svgShape"></path><path fill="#101421" d="M683.71,621.93h-.4c-8.15-.18-14.66-5.65-14.51-12.19s6.66-11.54,14.63-11.54h.4c8.14.18,14.65,5.64,14.5,12.18l-1,0,1,0C698.19,616.81,691.67,621.93,683.71,621.93Zm-.29-21.8c-6.91,0-12.56,4.27-12.68,9.64s5.53,10.05,12.61,10.22,12.93-4.18,13-9.65-5.54-10.05-12.61-10.21Z" class="color211310 svgShape"></path><path fill="#010101" d="M659.79,646.8a4.15,4.15,0,0,0-.7-.07,3.11,3.11,0,0,0-.61.1v-.1H563.42l-.13.14c-.15,0-.28,0-.42,0a4,4,0,0,0-3.2,4.68A52.58,52.58,0,0,0,663,651.47,4,4,0,0,0,659.79,646.8Z" class="color010101 svgShape"></path><path fill="url(#h)" d="M724.1,1160.27a112.35,112.35,0,1,1-109.85-114.78A112.34,112.34,0,0,1,724.1,1160.27Z"></path><path fill="#021b79" d="M727.26,1433.39A112.35,112.35,0,1,1,617.4,1318.61,112.35,112.35,0,0,1,727.26,1433.39Z" class="color2a276f svgShape"></path><path fill="#ffffff" d="M615.11 1457.93a52.55 52.55 0 00-50.7 44 4 4 0 007.91 1.3 44.56 44.56 0 0187.54-1.92 4 4 0 107.84-1.65 52.64 52.64 0 00-52.59-41.7zM588.92 1402.72a12.52 12.52 0 11-12.51-12.51A12.51 12.51 0 01588.92 1402.72zM668.24 1402.72a12.52 12.52 0 11-12.51-12.51A12.51 12.51 0 01668.24 1402.72z" class="colorffffff svgShape"></path><path fill="#0575e6" d="M723,887.16A112.35,112.35,0,1,1,613.11,772.38,112.36,112.36,0,0,1,723,887.16Z" class="color6669b0 svgShape"></path><path fill="#010101" d="M597.61 847.9a4 4 0 01-3.47-2.15 21.48 21.48 0 00-37.71-.83 4 4 0 01-6.95-4 29.51 29.51 0 0151.78 1.13 4 4 0 01-1.72 5.41A3.92 3.92 0 01597.61 847.9zM636 848.75a4.08 4.08 0 01-1.91-.53 4 4 0 01-1.47-5.48 29.5 29.5 0 0151.77 1.14 4 4 0 11-7.11 3.69 21.48 21.48 0 00-37.71-.83A4 4 0 01636 848.75zM610.83 967.46a52.55 52.55 0 01-50.71-44A4 4 0 11568 922.2a44.56 44.56 0 0087.54 1.91 4 4 0 017.84 1.65 52.62 52.62 0 01-52.58 41.7z" class="color010101 svgShape"></path><path fill="#ffffff" d="M584.15 1127.52a12.74 12.74 0 11-12.74-12.74A12.74 12.74 0 01584.15 1127.52zM664.89 1127.52a12.74 12.74 0 11-12.74-12.74A12.74 12.74 0 01664.89 1127.52zM657.13 1213.92H565a5.48 5.48 0 01-5.46-5.47h0A5.47 5.47 0 01565 1203h92.1a5.48 5.48 0 015.47 5.46h0A5.48 5.48 0 01657.13 1213.92z" class="colorffffff svgShape"></path><path fill="#cbdbeb" d="M917.09,1543.27h0a69.64,69.64,0,0,1-69.44-69.44V568.67a69.65,69.65,0,0,1,69.44-69.44h0a69.65,69.65,0,0,1,69.44,69.44v905.16A69.64,69.64,0,0,1,917.09,1543.27Z" class="colorcbd3eb svgShape"></path><rect width="7.67" height="898.47" x="927.12" y="576.61" fill="#021b79" class="color2a276f svgShape"></rect><rect width="57.51" height="7.67" x="873.45" y="623.99" fill="#021b79" class="color2a276f svgShape"></rect><rect width="35.4" height="7.67" x="895.55" y="677.99" fill="#021b79" class="color2a276f svgShape"></rect><rect width="35.4" height="7.67" x="895.55" y="731.97" fill="#021b79" class="color2a276f svgShape"></rect><rect width="35.4" height="7.67" x="895.55" y="785.97" fill="#021b79" class="color2a276f svgShape"></rect><rect width="35.4" height="7.67" x="895.55" y="839.96" fill="#021b79" class="color2a276f svgShape"></rect><rect width="35.4" height="7.67" x="895.55" y="947.94" fill="#021b79" class="color2a276f svgShape"></rect><rect width="35.4" height="7.67" x="895.55" y="1001.93" fill="#021b79" class="color2a276f svgShape"></rect><rect width="35.4" height="7.67" x="895.55" y="1055.92" fill="#021b79" class="color2a276f svgShape"></rect><rect width="35.4" height="7.67" x="895.55" y="1109.92" fill="#021b79" class="color2a276f svgShape"></rect><rect width="35.4" height="7.67" x="895.55" y="1217.9" fill="#021b79" class="color2a276f svgShape"></rect><rect width="35.4" height="7.67" x="895.55" y="1271.89" fill="#021b79" class="color2a276f svgShape"></rect><rect width="35.4" height="7.67" x="895.55" y="1325.88" fill="#021b79" class="color2a276f svgShape"></rect><rect width="35.4" height="7.67" x="895.55" y="1379.87" fill="#021b79" class="color2a276f svgShape"></rect><rect width="57.51" height="7.67" x="873.45" y="893.95" fill="#021b79" class="color2a276f svgShape"></rect><rect width="57.51" height="7.67" x="873.45" y="1163.91" fill="#021b79" class="color2a276f svgShape"></rect><rect width="57.51" height="7.67" x="873.45" y="1433.86" fill="#021b79" class="color2a276f svgShape"></rect><path fill="#ffffff" d="M960.8,644.94c1.58,59.61,2.32,119.22,2.93,178.82l.9,178.81-.89,178.82-1.06,89.41-1.88,89.4-1.88-89.4-1.07-89.41L957,1002.57l.89-178.81C958.47,764.16,959.21,704.55,960.8,644.94Z" class="colorffffff svgShape"></path><polygon fill="#30448e" points="1570.03 1714.9 1575.98 1714.77 1567.51 1530.96 1561.56 1531.08 1570.03 1714.9" class="color33308e svgShape"></polygon><path fill="#30448e" d="M1433.21,1520.4c0-12.61,82.25-13.59,107.47-13.59s107.47,1,107.47,13.59S1565.89,1534,1540.68,1534,1433.21,1533,1433.21,1520.4Zm107.47-7.65c-55.36,0-91.3,4.17-100,7.65,8.75,3.48,44.69,7.64,100,7.64s91.3-4.16,100-7.64C1632,1516.92,1596,1512.75,1540.68,1512.75Z" class="color33308e svgShape"></path><path fill="#cbdbeb" d="M1642.19,1424.67a109.38,109.38,0,1,1-203,0Z" class="colorcbd3eb svgShape"></path><path fill="#c0d3e7" d="M1439.17,1424.65c0,8.88,45.44,16.08,101.51,16.08s101.51-7.2,101.51-16.08-45.45-16.07-101.51-16.07S1439.17,1415.77,1439.17,1424.65Z" class="colorc0c9e7 svgShape"></path><ellipse cx="1540.68" cy="1424.65" fill="#5a6384" rx="91.52" ry="11.89" class="color84605a svgShape"></ellipse><path fill="#ffffff" d="M1449.11,1461.56c.25-8.18,13-8.22,12.75,0-.58,19.45,1.94,38.85,16,53.45,5.69,5.91-3.31,14.94-9,9C1452.48,1507,1448.43,1484.43,1449.11,1461.56Z" opacity=".42" class="colorffffff svgShape"></path><path fill="#30448e" d="M1540.68,1534c25.21,0,107.47-1,107.47-13.59h-6a1.53,1.53,0,0,1,.33-1c-3.6,3.63-41,8.65-101.85,8.65s-98.26-5-101.86-8.65a1.53,1.53,0,0,1,.33,1h-5.94C1433.21,1533,1515.46,1534,1540.68,1534Z" class="color33308e svgShape"></path><polygon fill="#30448e" points="1663.47 1714.78 1669.41 1714.38 1646.69 1521.96 1640.76 1522.38 1663.47 1714.78" class="color33308e svgShape"></polygon><polygon fill="#30448e" points="1423.13 1714.8 1442.13 1523.14 1436.2 1522.7 1417.2 1714.36 1423.13 1714.8" class="color33308e svgShape"></polygon><rect width="183.79" height="5.94" x="1432" y="1619.92" fill="#30448e" transform="rotate(-88.83 1523.902 1622.894)" class="color33308e svgShape"></rect><path fill="#cbdbeb" d="M1449.17,1424.67c0,4.84,22,9,53.68,10.81,1.85.11,3.75.22,5.71.27,2.66.17,5.32.28,8.1.33,1.79.1,3.63.16,5.53.22,4.14.11,8.37.16,12.72.16,1.9,0,3.8,0,5.71,0h.05c8.47,0,16.68-.16,24.45-.43,2,0,3.91-.16,5.81-.22,35.65-1.63,61.24-6,61.24-11.19,0-4.73-21.36-8.85-52.27-10.75-2-.12-4-.23-6.09-.33-9.23-.49-19.18-.77-29.55-.82h-5.76c-6.31,0-12.44.11-18.37.27-1.9.06-3.69.17-5.54.22-3.1.11-6.14.27-9.13.43-1.9.06-3.81.23-5.65.28C1469.76,1416,1449.17,1420,1449.17,1424.67Z" class="colorcbd3eb svgShape"></path><path fill="#0575e6" d="M1539.34,1318.26a53,53,0,0,1-10.49-8.65c-4.59-4.65-11.82-12.24-11.73-19.35.07-5.86,6.16-7.17,10.21-3.71,3.6,3.08,5.15,7.75,8,11.4,3.47,4.47,9.09,8,14.85,10.36,7.89-11.23,9.19-26.69,6.54-40.21-3.06-15.61-13.37-37.86-28.78-58.64a82,82,0,0,1-7.11,14.5c-2.91,4.82-7.57,14-13.11,16-5.89,2.09-7.08-3.36-6.19-7.79a1.63,1.63,0,0,1,.15-.69v0c.11-.4.22-.79.35-1.16a1.6,1.6,0,0,1,.67-.79c3.22-6.23,7-12.19,9.76-18.62a99.13,99.13,0,0,0,4.72-14.62c-13.5-15.2-29.73-28.49-47.77-36.15,3.66,7.61,6.2,16.22,8.52,23.73,2.4,7.7,8.72,24.09,2.85,31.65-1.6,2.06-4.91,3.38-7.41,2-4.1-2.31-3.6-10.72-3.67-14.5-.17-9.22-.21-17.2-3.22-26.19-2.6-7.8-6.87-14.74-11.5-21.45a76.69,76.69,0,0,0-35.29-.21c3.56,3.17,6.35,7.08,7.09,11.66.68,4.27-1.93,14.07-7.51,14.4-7.36.44-7.87-16.64-8.76-23.35a95,95,0,0,0-20.15,10.15,87.52,87.52,0,0,0-27.1,28.69,1.51,1.51,0,0,1,.26.69c2.38,18.68,26.23,25.14,40.42,32.35,4.41,2.24,20.93,10,18.8,16.64-1.13,3.53-7,3.53-9.8,3-7.12-1.31-13.5-7-19-11.29-12.76-9.91-25.37-19.47-35.93-31.45-11.67,25-14.33,53.74-13.91,75a1.6,1.6,0,0,1,1.27,0,56.5,56.5,0,0,0,26.59,4.18c5.65-.52,11.5-1.85,17.19-1,4.79.7,12.28,6.55,6.9,11.33-4.6,4.09-14.84,3.11-20.45,2.38a98.13,98.13,0,0,1-31.24-10c.33,6.22.9,11.6,1.53,15.65a77,77,0,0,0,33.28,51.35,80.85,80.85,0,0,0,18.82,9.12c12.83-11.12,22.58-23.4,28.27-40.14,2.27-6.68,7-25.16,16.56-24.53,4.24.29,7.18,5.48,8,9.15,1.37,6.27-2.43,12.53-5.87,17.42-5.07,7.18-10.64,13.9-15.58,21.2-4.79,7.06-9.76,14-15,20.71a85.55,85.55,0,0,0,36.27-2.91c18.31-5.66,37.48-24.68,27.34-44.26C1497.6,1325.65,1521.78,1328.59,1539.34,1318.26Zm-161.52-52a4.92,4.92,0,0,1-.82.12,1.51,1.51,0,0,1-2.28.22c-.26-.25-.5-.53-.74-.81-2-1.21-3.17-3.78-3.75-6a1.41,1.41,0,0,1,.2-1.24,18.1,18.1,0,0,1-.45-3.61c0-2.85,1.31-6.08,4.72-5.48a10.59,10.59,0,0,1,8,8.49C1383.06,1261.28,1381.21,1265.25,1377.82,1266.28Zm119.6,4.59a5.27,5.27,0,0,1-7.89.67,9.45,9.45,0,0,1-2.39-9.5,1.37,1.37,0,0,1,1-1,1.25,1.25,0,0,1,.12-.08c2.9-1.21,6.87-1.28,9.38.86C1500.45,1264.25,1499.55,1268.27,1497.42,1270.87Z" class="color6669b0 svgShape"></path><path fill="url(#i)" d="M1695.47,1210.31a128.71,128.71,0,0,0,30.87,7.52c5.82-20.13,4.92-42,2.69-63-7.42,7.55-15.53,14.1-25.62,18.81-8.43,3.94-22.93,10.58-30.46,1.81a1.55,1.55,0,0,1,0-2.17c8.16-6.74,19-6.08,28.69-9.09s19.88-9.43,26.42-17.81c-.21-1.74-.42-3.48-.64-5.2-1.94-15.51-4.64-30.88-7.71-46.19l-.43.87c-1.3,2.67-3.79,8.33-7.29,8.9-3.26.53-4.46-3.32-3.8-5.86,1-3.86,4.73-7,6.26-10.72q1.38-3.39,2.42-6.87c-2.61-12.16-5.39-24.27-8.18-36.39a1.59,1.59,0,0,0-1.9-1.07c-12,1.66-24.18,3.35-36.31,5.33-13.2,13-22.61,28.27-24.14,47.29-.45,5.41,2.94,33.76-10,30.29-13.64-3.67-7.2-29.15-4.56-37.65,4.19-13.41,11.09-25.33,19.32-36.46-27.51,5.41-54.47,13.17-79.19,26.36-9.3,19.43-8,39.59,4,58.62,2.63,4.15,17.9,23.51,5.56,25.66-10.38,1.8-18.5-18.6-20.25-26.2-2.61-11.32-1.09-23-.3-34.47a75,75,0,0,1,3.84-19.66c-.29.17-.59.31-.88.49-18.63,11.1-36.34,25.47-42,47.33a81.85,81.85,0,0,0-1.76,29.63,140.39,140.39,0,0,0,15.92,19.81c6.15,6.2,13.24,9,20.32,13.68,5.05,3.35,13.69,13.89,6.22,19.32-6,4.37-17.29-1-23-3.37-2.34-1-4.63-2-6.89-3.13-.91,59.17,50.62,28.56,50.62,28.82-.38,54.2,54.9,54.66,88.93,42-3.42-.64-6.84-1.27-10.28-1.83-6.76-1.12-13.68-1.51-20.41-2.85-7.32-1.45-17.52-6-16-15.4,1.29-8.07,11.79-1.55,15.63.58,13.23,7.29,28.72,14,44.12,13.23,1.63-1,3.25-2,4.83-3.11a95.66,95.66,0,0,0,28.61-31.93,269.65,269.65,0,0,1-39.21-3.53c-9.4-1.64-24.31-4.14-28.81-14a1.56,1.56,0,0,1,1.32-2.31c11.33-.84,22.09,2.2,32.06,7.39,12,6.24,24.34,8.94,37.21,7.33a86.54,86.54,0,0,0,4-9.72c.07-.2.13-.4.19-.6a130.83,130.83,0,0,1-30.77-7.53C1692.82,1212.59,1693.61,1209.61,1695.47,1210.31Zm-20.36-111.23a1.26,1.26,0,0,1,.72-1,6,6,0,0,1,5.24-4.92c7.19-1.1,12.21,7.37,6.22,12.3-2.3,1.89-5.72,3.06-8.63,2C1675,1106.25,1674.61,1102.38,1675.11,1099.08Zm-66.53,145.22c-2.22,1.82-5.11,2.19-7.43.37a1.33,1.33,0,0,1,.31-2.27,8.34,8.34,0,0,1,2-5.55,4.39,4.39,0,0,1,6.9.88C1611.8,1240,1610.47,1242.75,1608.58,1244.3Zm6.18-116.32c-.58,3.6-2.31,8.92-5.9,10.68-4.31,2.11-6.06-3.25-6.56-6.45a1.53,1.53,0,0,1,0-.68,19.51,19.51,0,0,1-2.39-11.16c.71-5.47,6.15-6.88,10.6-4.28C1614.69,1118.5,1615.47,1123.6,1614.76,1128Zm40.72,57.46c-1.83,2.13-5.08,2.38-7.54,1.31-3.29-1.43-4.61-4.88-4.16-8.29a1.72,1.72,0,0,1,2.36-1.32,5.16,5.16,0,0,1,7.82-.75C1656.24,1178.55,1657.77,1182.76,1655.48,1185.44Z"></path><path fill="url(#j)" d="M1434.06,1441.61a78.33,78.33,0,0,1,6.46,19.13c-13,4.71-27.59,5.25-41.58,4.89a55.8,55.8,0,0,0,11.22-17.15c2.2-5.53,5.9-15-.28-19.36a1.08,1.08,0,0,0-1.44.12c-4.07,5.5-3.1,12.34-4.63,18.6a35.37,35.37,0,0,1-10.52,17.61l-3.47-.15c-10.37-.44-20.68-1.37-31-2.54l.55-.31c1.71-1,5.33-2.83,5.54-5.06s-2.41-2.66-4.06-2.11c-2.51.82-4.4,3.34-6.8,4.5-1.45.69-2.92,1.32-4.43,1.88-8.18-1-16.34-2.19-24.5-3.34a1,1,0,0,1-.8-1.14c.52-7.7,1.06-15.47,1.78-23.24,8-9,17.64-15.73,30.15-17.66,3.57-.55,22.5.16,19.58-7.84-3.08-8.44-19.65-3.08-25.15-1a82.94,82.94,0,0,0-23.22,14.06c2.27-17.67,6.1-35.11,13.64-51.41,12.43-6.86,25.84-7.07,39-.41,2.88,1.45,16.43,10.13,17.26,2.22.69-6.66-13.21-10.76-18.33-11.48-7.62-1.09-15.3.48-22.84,1.55a51.42,51.42,0,0,0-12.83,3.43c.09-.2.18-.4.28-.59,6.45-12.35,15.11-24.27,29.31-29a56.7,56.7,0,0,1,19.54-2.61,92.29,92.29,0,0,1,13.89,9.06c4.4,3.58,6.59,7.92,10,12.16,2.46,3,9.86,8,13.1,3,2.6-4-1.49-10.89-3.36-14.4-.76-1.44-1.56-2.83-2.39-4.2,39.14-3.57,21.35,30.57,21.53,30.55,35.87-3,38.84,32,32.11,54.12-.6-2.13-1.18-4.26-1.72-6.4-1.07-4.23-1.66-8.59-2.87-12.77-1.32-4.56-4.85-10.78-11-9.35-5.28,1.22-.46,7.53,1.13,9.86,5.47,8,10.67,17.44,10.89,27.22-.56,1.09-1.16,2.16-1.82,3.21a62.54,62.54,0,0,1-19.77,19.71,163.08,163.08,0,0,0-4.23-24.62c-1.54-5.86-3.91-15.16-10.64-17.51a1,1,0,0,0-1.47,1c0,7.2,2.52,13.86,6.44,19.9,4.71,7.26,7.1,14.94,6.65,23.16a61.68,61.68,0,0,1-6.24,3l-.39.15a79.89,79.89,0,0,0-6.48-19.08C1435.44,1439.81,1433.5,1440.47,1434.06,1441.61Zm-74.64-7.26a.84.84,0,0,0-.63.5,3.86,3.86,0,0,0-3,3.57c-.38,4.6,5.47,7.35,8.45,3.31a5.79,5.79,0,0,0,.93-5.56C1364.16,1434,1361.57,1433.86,1359.42,1434.35Zm92.95-49.41a3.52,3.52,0,0,0-.11-4.72.91.91,0,0,0-1.49.31,5.66,5.66,0,0,0-3.57,1.58,2.7,2.7,0,0,0,.91,4.31C1449.7,1387.19,1451.44,1386.2,1452.37,1384.94Zm-76.73,9.79c2.36-.55,5.79-1.91,6.79-4.28,1.19-2.83-2.45-3.67-4.59-3.82a1.27,1.27,0,0,0-.45,0,13.46,13.46,0,0,0-7.5-.94c-3.59.72-4.27,4.23-2.33,6.92C1369.36,1395.15,1372.77,1395.39,1375.64,1394.73Zm40,22.84a4,4,0,0,0,.51-4.83,5.11,5.11,0,0,0-5.69-2.22,1.1,1.1,0,0,0-.76,1.57,3.18,3.18,0,0,0-.12,5C1411.14,1418.4,1414,1419.16,1415.65,1417.57Z"></path><path fill="#0575e6" d="M1744.49,1314.92c-3.63-.22-7.26-.46-10.89-.75-7.36-.59-17.68.65-23.76-4.4a1.67,1.67,0,0,1-.12-2.52c11.4-9.6,23.91,1,36.11,1.47a113.59,113.59,0,0,0,.63-27.54,67.16,67.16,0,0,0-4.58-19.71c-6.76,9.25-12.75,19.11-21.65,26.29-3.55,2.87-12.75,11.42-17.41,8-5.13-3.79,3.82-9.87,6.58-11.71,11.29-7.51,22.34-14.83,31-25.82a44,44,0,0,0-20.47-20.73,93.85,93.85,0,0,0-21.22-7.08c1.64,11.45-.14,28.47-10.73,31.3-7.47,2-12.17-6.72-12.67-13.63-.58-8,4.56-15.19,10.77-19.72a180.18,180.18,0,0,0-33.6-.41c-2,.15-4,.36-6,.58a1.82,1.82,0,0,1-.2.64c-5.33,10.34-11.38,22.13-12.43,33.94-.39,4.38,1.44,10.16-.87,14.28-3.65,6.49-10.46,1.13-11.47-4.12-1.85-9.59,2.63-21.66,5.72-30.67,1.29-3.77,2.65-7.79,4.19-11.74-13.52,2.77-26.79,7.54-38.4,15.72a77.85,77.85,0,0,0-10.76,9.23c-1.46,11.65-1,23.43,3.26,34,3.07,7.54,11.68,21.75,3.29,29.65-5.78,5.44-9.19-4.93-10.4-9.26-3.77-13.54-5.36-28.12-6-42.44a126.78,126.78,0,0,0-14.22,27.65,212.79,212.79,0,0,0-8.7,29.65c7.09,5,15.44,7,23.13,11.45,3.6,2,10.72,6.41,7.26,11.89-7.15,11.37-23.36-1.79-32.48-11.56-.75,9.19,2.26,16.49,8.66,23.13,13.85,14.39,35.55,19,52.39,6-.67,16.81,11.9,30.57,28.29,28.25,5.88-.83,10.76-3.79,15.08-7.75a83.11,83.11,0,0,1-11.46.43c-4.91-.18-13.26-.58-15.24-6.43-1.9-5.63,3.22-6,6.81-4.58,4.43,1.7,7.27,4.14,12.32,4.24,5.67.12,11.29-1.69,16.71-3.85,6.17-7.36,12.13-13.89,20.88-18.44a101.12,101.12,0,0,1,10.38-4.57c-6.87-.58-17-1.81-19.24-8.08-3.77-10.46,12.15-11.15,17.51-10.28,7.17,1.16,14,3.44,21.33,3.94a54.76,54.76,0,0,0,18.1-2c1.22-.88,2.42-1.8,3.57-2.79C1739.1,1329.19,1742.49,1322.39,1744.49,1314.92Zm-129.07,7.68c-3.24-.12-4.77-4-5.14-6.93a14.83,14.83,0,0,1,1.33-8.29,1.59,1.59,0,0,1,.08-.73c.7-2,1.82-4.43,4-5.05a4.24,4.24,0,0,1,4.24,1.5c2.52,2.68,3.48,7.27,2.8,11.05C1622.08,1317.53,1619.18,1322.73,1615.42,1322.6Zm40.33-38.84c-1.81-3.48-.5-7.74,2.41-10.26a1.46,1.46,0,0,1,.9-.36c2.86-2,6.28-1.61,8,1.86a8.87,8.87,0,0,1-3,10.85A5.47,5.47,0,0,1,1655.75,1283.76Zm-6.37,73.26c-2,3.37-6.64,4.79-9.29,1.88-2.08-2.29-2.17-5.67-1.07-8.59a1.49,1.49,0,0,1,.06-2.27C1644.59,1343.28,1653.44,1350.26,1649.38,1357Z" class="color6669b0 svgShape"></path><path fill="#30448e" d="M1565.12 1436.08c2 0 3.91-.16 5.81-.22 2-5.86 4.19-11.68 6.8-17.38.7-1.52 1.41-3 2.17-4.56a212.14 212.14 0 0159.66-73.74c2.82-2.28-1.2-6.25-4-4a216.43 216.43 0 00-60.8 75.31c-.33.7-.66 1.41-.93 2.12A176.15 176.15 0 001565.12 1436.08zM1534.91 1436.46c1.9 0 3.8 0 5.71 0 1-7.93 2.28-15.86 3.64-23.74 2.34-13.69 5.1-27.33 8.09-40.86 6.41-28.57 14-56.88 21.57-85.19 7.45-27.66 15.43-55.2 32.49-78.68 2.18-2.93-2.77-5.76-4.89-2.82-16.4 22.49-24.61 48.74-31.84 75.35-8.58 31.57-17 63.25-24 95.2-2.66 12.28-5.16 24.62-7.22 37C1537.14 1420.65 1535.94 1428.58 1534.91 1436.46zM1467.26 1306.39a325 325 0 0118.48 46.61c.76 2.29 1.41 4.57 2.06 6.85h0a432.94 432.94 0 0112 54.12c1.2 7.11 2.17 14.35 3 21.51 1.85.11 3.75.22 5.71.27-.93-7.38-1.9-14.72-3.1-22.06a457 457 0 00-10.27-48.46c-.81-2.93-1.63-5.92-2.55-8.86a344.12 344.12 0 00-20.49-52.86C1470.58 1300.19 1465.69 1303.07 1467.26 1306.39z" class="color33308e svgShape"></path><path fill="#30448e" d="M1414.67,1393.43c14.67-9.73,29.29-19.67,44.06-29.23,8.26-5.33,16.41-9.29,26.3-5.66a22.11,22.11,0,0,1,2.77,1.31,31,31,0,0,1,7.39,5.38,46.09,46.09,0,0,1,7.39,9.35c6.79,11.24,10.16,24.66,12,38.68,1,7.55,1.63,15.27,2.07,22.82,1.79.1,3.63.16,5.53.22-.48-7.61-1-15.49-2.06-23.26-2.44-19.23-7.55-37.81-19.88-50.47a41.51,41.51,0,0,0-7.61-6.2,32.85,32.85,0,0,0-6.9-3.37,27,27,0,0,0-18.86.27c-8.53,3.32-16.51,10-24.12,15-10.27,6.84-20.54,13.64-30.81,20.49C1409,1390.66,1411.73,1395.38,1414.67,1393.43Z" class="color33308e svgShape"></path><polygon fill="url(#k)" points="873.96 792.47 760.8 772.15 760.8 772.15 873.96 752.22 873.96 792.47"></polygon><path fill="url(#l)" d="M968.84,772.35a50.93,50.93,0,1,1-50.92-50.93A50.92,50.92,0,0,1,968.84,772.35Z"></path><path fill="#021b79" d="M1261.83,1136.09c-8.62-26.27,90.19-116.83,90.19-116.83,33,24,101.61,54.49,81.74,130.19-19.68,74.92-171.6,244.17-171.6,244.17s-49.15-24.07-54.07-54.77S1270.46,1162.36,1261.83,1136.09Z" class="color2a276f svgShape"></path><path fill="#a7d2fe" d="M1615.79,1688.68c11.21-2.34,19.79-13.73,18.42-21-3.61-19.29-41.6-40-60.53-53.38l30.76-35c27.44,17.6,37.23,47.76,80.34,66.23,30.65,13.12,16.7,28.65,16.7,28.65l-52.57,37.43a18,18,0,0,1-10.4,3.32h-47.88a4.66,4.66,0,0,1-4.48-6C1588,1702.67,1594.38,1693.14,1615.79,1688.68Z" class="colorfed2a7 svgShape"></path><path fill="#021b79" d="M1615.79,1688.68c11.21-2.34,19.78-13.73,18.42-21a23.13,23.13,0,0,0-3-7.44c23.68-5.7,33.08-17.79,36.36-23.7a125.69,125.69,0,0,0,17.18,9c30.65,13.12,16.7,28.65,16.7,28.65l-52.57,37.43a18,18,0,0,1-10.4,3.32h-47.88a4.66,4.66,0,0,1-4.48-6C1588,1702.67,1594.38,1693.14,1615.79,1688.68Z" class="color2a276f svgShape"></path><path fill="#a7d2fe" d="M1200.25,1684.69c64.34-16,47.94-57.77,41.21-101.53l50.73-4.75c-5.1,36.29-.75,51.4,3,102.65,2.64,36.44-7.77,33.14-7.77,33.14l-124,1.54S1163,1694,1200.25,1684.69Z" class="colorfed2a7 svgShape"></path><path fill="#021b79" d="M1200 1683.74c11.15-3.11 31.47-10.94 39.17-21.1 2.3-3.14 7.62 10.13 11.63 14.44 8 8.65 36.56 3.08 44-3 0 2.53.19 4.62.36 7 2.64 36.44-7.77 33.14-7.77 33.14l-124 1.54S1161.23 1694.56 1200 1683.74zM1296.28 1343.79c2.74 28.35.72 277.35.72 277.35-24.61 10.82-55.19.6-55.19.6-3.68-29.66-33.72-282.89-33.72-282.89S1293.54 1315.43 1296.28 1343.79z" class="color2a276f svgShape"></path><path fill="#3c4f97" d="M1433.3,1398.33c23.47,19,193.47,197.32,193.47,197.32-6.12,26-32,40.89-32,40.89-25-19.26-232.38-171.73-232.38-171.73S1409.84,1379.35,1433.3,1398.33Z" class="color413c97 svgShape"></path><path fill="#3c4f97" d="M1302.75,1235.3c-31.4-140.86,8-179.11,8-179.11,40.7,3.45,115.71-8.86,137.22,73.9,21.29,81.9-25.07,350.62-25.07,350.62s-45.26,5.87-65.16-20.15S1309,1263.29,1302.75,1235.3Z" class="color413c97 svgShape"></path><path fill="#274bd2" d="M1335.45,784.87c-14.17-11.91-32.62-14.37-57,20-22.55,31.74-55.36,136.76-67.06,163.58-10.89,25,26.2,66.65,63.91,25.78s51.47-90.55,64-134.49S1350.83,797.79,1335.45,784.87Z" class="colord25927 svgShape"></path><path fill="#a7d2fe" d="M1233.59,724.87s15.87,2.73,17.45,14.52-5.8,22.69-5.8,22.69,33.64,10.48,64.51.11c0,0-14.06-31-12.93-63.34S1233.59,724.87,1233.59,724.87Z" class="colorfed2a7 svgShape"></path><path fill="#8fc5fb" d="M1266.7,747.84c.49-15.24-11.24-27-25.31-29.73,17.11-14.34,56.32-44.56,55.43-19.26-1.13,32.33,12.93,63.34,12.93,63.34-15.19,5.1-31,5.15-43.25,3.89C1266.62,760,1266.51,753.92,1266.7,747.84Z" class="colorfbbb8f svgShape"></path><path fill="#a7d2fe" d="M1205,622.41s-3.17,21.46-1.42,39-4.61,40.93,12.44,60.7,55.61-2.64,64.37-26.76.76-42.94-11.76-53.89S1205,622.41,1205,622.41Z" class="colorfed2a7 svgShape"></path><path fill="#8fc5fb" d="M1233.23,698.07c-.36-8.67-10.93-72.42-10.93-72.42,16,3.37,38.57,9.06,46.32,15.85,12.52,11,20.52,29.78,11.76,53.89-8.3,22.82-43.26,44.09-61.44,29.54C1227.81,719.24,1233.68,708.78,1233.23,698.07Z" class="colorfbbb8f svgShape"></path><path fill="#021b79" d="M1223.92,636.83s6.84,6.53,9.9,21.79,5.91,23.58,11,13.41,6.43-26.4,19.71-16.75c8.79,6.38,8.72,19.09,6.09,26.05s6.31,22.23,24.4,16.3,29.75-55,29.75-55S1241.69,617.26,1223.92,636.83Z" class="color2a276f svgShape"></path><path fill="#021b79" d="M1215.26,575.3s-24.33,6.25-26.44,26.92c-1.88,18.36,8.15,36.18,40.7,34.52s34.85,18.6,52.09,23.9,34.53.1,42.69-16.92c8.46-17.65,5.65-39.06-15.6-56.33S1217.32,545.7,1215.26,575.3Z" class="color2a276f svgShape"></path><path fill="url(#c)" d="M1196.17,824.93c.34,3.65.67,7.36,1,11.09,3.66,42.78,6.93,90.18,24.45,131.53a65.41,65.41,0,0,1,3.85,15.32c.14,1.09.27,2.17.43,3.27,0,.22.06.44.08.63.52,4.42.89,9.2,1.15,14.26,2.58,49.27,14.58,129.54,23.19,132.55,19.77,6.89,79.19,4.68,127.91-1.85h0c3.56-.49,7-1,10.48-1.5l2.65-.44c1.39-.22,2.76-.44,4.12-.69,1-.18,2-.32,2.93-.51,1.2-.21,2.41-.42,3.6-.67,1.6-.28,3.17-.6,4.72-.93a.29.29,0,0,0,.16,0c1-.2,2-.41,3-.63,1.47-.31,2.88-.64,4.29-1l1.77-.42c11.53-2.75,20.93-6,26.84-9.48.19-.12.37-.24.55-.34a25.07,25.07,0,0,0,2.31-1.62c.32-.24.59-.48.86-.71a12.9,12.9,0,0,0,2-2.18c.16-.25.33-.52.46-.75,0,0,0,0,0-.09a7.24,7.24,0,0,0,.39-.92s0,0,0-.08a4.5,4.5,0,0,0,.25-.92c4-23.89-52.82-260.18-65.22-290.65-12.27-30.27-31.28-51.5-44.55-55.9l-1.37-.38c-.53-.11-1.09-.25-1.72-.34-.95-.18-2-.33-3.16-.51-3.53-.48-8-.85-13.21-1.11-.56,0-1.14-.05-1.75-.1s-1.19,0-1.8-.1c-1.46-.06-3-.12-4.51-.16-1,0-2.09-.08-3.17-.1h-.62c-27.48-.66-65,.56-85.05,3.37a15.89,15.89,0,0,0-3.72.95C1204.83,768.21,1193.28,793.05,1196.17,824.93Z"></path><path fill="#274bd2" d="M1219.88,762.81c3.11,2.57,12.4,8.69,35.53,11.84,21.08,2.86,49.87-5.33,63.22,4.59,14.3,10.6,45.87,19,88.3,149.69,6.11,18.79,15.12,120.91,16,140.62,1.49,32.59-18.24,53.14-44.72,62.18,3.56-.49,7.06-1,10.48-1.52.88-.12,1.78-.28,2.66-.41,1.38-.22,2.76-.46,4.11-.7l2.94-.5c1.2-.22,2.41-.44,3.59-.68q2.42-.43,4.74-.93a.29.29,0,0,0,.15,0c1-.2,2-.41,3-.63,1.46-.32,2.87-.63,4.29-1l1.76-.42c11.53-2.76,20.93-6,26.84-9.48l.54-.34c.85-.53,1.63-1.08,2.33-1.62.3-.24.59-.47.85-.71a12.94,12.94,0,0,0,2-2.19c.17-.24.32-.51.46-.75,0,0,0,0,0-.07a6.58,6.58,0,0,0,.4-.92.11.11,0,0,0,0-.1,4.11,4.11,0,0,0,.25-.93c4-23.87-52.83-260.16-65.22-290.64-12.26-30.26-31.28-51.48-44.56-55.88-.39-.13-.86-.25-1.36-.39s-1.09-.25-1.73-.34c-.94-.18-2-.33-3.15-.51-3.5-.44-8-.83-13.2-1.11-.57,0-1.15-.06-1.76-.1s-1.19,0-1.8-.08c-1.46-.07-3-.12-4.52-.17-1-.06-2.09-.08-3.17-.1-.2,0-.4,0-.62,0-27.47-.67-65,.56-85,3.36A16.63,16.63,0,0,0,1219.88,762.81Z" class="colord25927 svgShape"></path><path fill="url(#m)" d="M1237.15,759.72c10.56-4.91,19.41-.61,29.32-9.39,17.74-15.73,42-13.39,42-13.39l25.22,27.14S1272,785.73,1237.15,759.72Z"></path><path fill="#274bd2" d="M1197.15,836c3.66,42.78,6.93,90.18,24.45,131.53a65.41,65.41,0,0,1,3.85,15.32c-10-80.09,6.6-156.75,6.6-156.75S1210,827.31,1197.15,836Z" class="colord25927 svgShape"></path><path fill="#a7d2fe" d="M960.73,818.94c-21.53-5.74-44-1.62-46.89-18.62-2.52-14.76,3.65-24.93,12.65-34,1.58-1.59.86-.86,5.15-4.94,5.92-5.61,26.4,13.12,37.84,26.18,16.68,19.06,114.16,75.1,142,99.53,27.61,24.22,12.51,71.21-8.23,57.46C1072.62,924.22,982.27,824.69,960.73,818.94Z" class="colorfed2a7 svgShape"></path><path fill="url(#n)" d="M1244.14,767.63c-14.22-11.84-41.31-7.38-70.63,18.23s-77.26,92.84-94.57,116.43c-16.13,22,10.86,70.78,56.65,39.23s83.84-73.36,107.71-112.3C1267.78,789.28,1250.61,773,1244.14,767.63Z"></path><path fill="url(#o)" d="M1091.12,946.34c-33.86-21.48-80-66.05-140.42-119,0,0,12.32-29.94,35.31-38.08,0,0,123.36,90.92,135.68,101.62S1126.35,968.69,1091.12,946.34Z"></path><path fill="#3f4764" d="M1227.11,1001a94.71,94.71,0,0,0-1.15-14.26C1226.48,991.19,1226.85,996,1227.11,1001Z" class="color3f4164 svgShape"></path><path fill="url(#p)" d="M1313.78,305.14h247a35.48,35.48,0,0,1,35.49,35.49V476a35.49,35.49,0,0,1-35.49,35.49H1406.34L1352.72,576a6.93,6.93,0,0,1-12.49-4.14l16.24-60.31h-42.69A35.49,35.49,0,0,1,1278.29,476V340.63A35.48,35.48,0,0,1,1313.78,305.14Z"></path><polygon fill="#ffffff" points="1317.57 343.35 1317.57 353.33 1460.23 353.33 1460.39 343.35 1317.57 343.35" class="colorffffff svgShape"></polygon><polygon fill="#ffffff" points="1317.57 373.38 1317.57 383.36 1575.32 383.36 1575.48 373.38 1317.57 373.38" class="colorffffff svgShape"></polygon><polygon fill="#ffffff" points="1317.57 403.41 1317.57 413.39 1556.88 413.39 1557.04 403.41 1317.57 403.41" class="colorffffff svgShape"></polygon><polygon fill="#ffffff" points="1475.16 353.33 1519.2 353.33 1519.36 343.35 1475.32 343.35 1475.16 353.33" class="colorffffff svgShape"></polygon><polygon fill="#ffffff" points="1317.57 431.47 1317.57 441.45 1460.23 441.45 1460.39 431.47 1317.57 431.47" class="colorffffff svgShape"></polygon><polygon fill="#ffffff" points="1317.57 461.5 1317.57 471.48 1575.32 471.48 1575.49 461.5 1317.57 461.5" class="colorffffff svgShape"></polygon><polygon fill="#ffffff" points="1475.16 441.45 1519.19 441.45 1519.36 431.47 1475.32 431.47 1475.16 441.45" class="colorffffff svgShape"></polygon></svg>