<svg xmlns="http://www.w3.org/2000/svg" viewBox="0 0 2000 2000" id="ELearning"><path fill="#dce6f1" d="M707.681 1215.826 1158.5 953.839c-2.081 1.209-3.17 3.452-3.156 6.565.036 3.852 1.725 8.686 4.761 13.645 5.131 8.342 13.878 17.386 24.684 25.472 3.573 2.677 7.203 5.145 10.853 7.471l-450.819 261.987c-3.65-2.326-7.28-4.793-10.853-7.471-10.807-8.086-19.553-17.13-24.684-25.472-3.036-4.959-4.725-9.792-4.761-13.645-.014-3.113 1.075-5.355 3.156-6.565z" class="colordce8f1 svgShape"></path><path fill="#55a7f9" d="M1195.643 1006.992a146.552 146.552 0 0 0 8.608 6.59c-150.276 87.33-300.542 174.657-450.819 261.987a146.543 146.543 0 0 1-8.598-6.582l450.172-261.611-450.172 261.612-.01-.009 450.819-261.987z" class="color55cef9 svgShape"></path><path fill="#55a7f9" d="m1204.257 1013.586.004.003c-150.276 87.33-300.542 174.657-450.819 261.987l-.004-.003-.006-.004c150.276-87.33 300.542-174.657 450.819-261.987l.006.004z" class="color55cef9 svgShape"></path><path fill="#e7eff7" d="m728.166 1238.008 450.819-261.987c-1.249.726-1.908 1.981-1.894 3.676.04 2.631 1.614 6.311 4.346 10.144 4.781 6.673 12.964 14.305 23.064 21.467 4.129 2.936 8.346 5.656 12.58 8.239a383.04 383.04 0 0 0 7.826 4.632 987.766 987.766 0 0 0 7.588 4.324l-450.82 261.987c-2.51-1.42-5.044-2.856-7.588-4.324a377.695 377.695 0 0 1-7.826-4.632c-4.234-2.583-8.451-5.303-12.58-8.239-10.1-7.162-18.283-14.794-23.064-21.467-2.732-3.833-4.306-7.512-4.346-10.144-.013-1.695.646-2.95 1.895-3.676z" class="colore7f1f7 svgShape"></path><path fill="#55a7f9" d="m1030.285 1430.574.017 2.428-.02-1.478-248.606-141.034a987.766 987.766 0 0 1-7.588-4.324 380.407 380.407 0 0 1-7.827-4.632l264.024 149.04z" class="color55cef9 svgShape"></path><path fill="#c5d1dd" d="m781.675 1290.49 450.819-261.987 248.606 141.034-450.818 261.987z" class="colorc5d4dd svgShape"></path><path fill="#e7eff7" d="M1217.087 1019.551a382.365 382.365 0 0 0 7.819 4.628c2.544 1.468 5.078 2.904 7.588 4.324l-450.597 261.858 248.387 140.213 450.819-261.987-264.016-149.036zm-450.825 261.984.016.009c-.006-.003-.011-.005-.016-.009z" class="colore7f1f7 svgShape"></path><path fill="#55a7f9" d="m766.261 1281.535.015.009a222.9 222.9 0 0 1-10.917-7.081l-1.918 1.115c4.435 3.144 8.941 6.028 13.458 8.764l2.051-1.192c-.895-.536-1.793-1.069-2.689-1.615z" class="color55cef9 svgShape"></path><path fill="#e7eff7" d="m726.636 1235.472 450.819-261.987a5.83 5.83 0 0 1 1.358-.564c5.017-1.423 13.448 2.032 18.053 4.228 2.723 1.3 5.491 2.795 8.237 4.38l-450.819 261.987c-2.745-1.585-5.514-3.08-8.237-4.38-4.605-2.196-13.036-5.651-18.053-4.228a5.813 5.813 0 0 0-1.358.564z" class="colore7f1f7 svgShape"></path><path fill="#c5d1dd" d="m1030.285 1430.574 450.818-261.987.017 2.428-450.818 261.987z" class="colorc5d4dd svgShape"></path><path fill="#c5d1dd" d="m1030.292 1432.997 450.818-261.987.007.955-450.819 261.987zM1030.282 1431.524l450.818-261.987.01 1.473-450.818 261.987z" class="colorc5d4dd svgShape"></path><path fill="#e7eff7" d="m754.283 1243.516 450.819-261.987c4.374 2.525 8.69 5.278 12.678 7.831 57.284 36.512 115.355 71.743 175.735 106.603a5188.938 5188.938 0 0 0 86.687 48.927l-450.819 261.987a5188.938 5188.938 0 0 1-86.687-48.927c-60.379-34.86-118.451-70.091-175.734-106.603-3.989-2.552-8.305-5.305-12.679-7.831z" class="colore7f1f7 svgShape"></path><path fill="#c5d1dd" d="M754.283 1243.516c4.374 2.525 8.691 5.278 12.678 7.831 57.284 36.512 115.355 71.743 175.734 106.603a5188.938 5188.938 0 0 0 86.687 48.927l.04 2.442a5133.272 5133.272 0 0 1-86.771-48.964c-60.408-34.876-118.489-70.125-175.815-106.661-3.974-2.53-8.274-5.269-12.614-7.775-2.672-1.542-5.358-2.996-7.994-4.26-7.438-3.534-13.629-5.043-16.989-4.103-1.94.564-2.985 1.999-2.967 4.128.04 2.631 1.614 6.311 4.346 10.144 4.781 6.673 12.964 14.305 23.064 21.467 4.129 2.936 8.346 5.656 12.58 8.239a383.04 383.04 0 0 0 7.826 4.632 969.125 969.125 0 0 0 7.588 4.324l248.606 141.034.01 1.473.007.955-248.606-141.006a1028.074 1028.074 0 0 1-7.507-4.307 400.04 400.04 0 0 1-7.285-4.299c-4.519-2.737-9.026-5.622-13.462-8.767a146.759 146.759 0 0 1-8.614-6.595c-6.521-5.399-11.853-10.862-15.44-15.879-3.344-4.675-5.176-9.129-5.214-12.601-.015-2.943 1.291-4.879 3.823-5.591 5.017-1.423 13.448 2.032 18.053 4.228 2.722 1.301 5.49 2.796 8.236 4.381z" class="colorc5d4dd svgShape"></path><path fill="#c5d1dd" d="m1029.382 1406.877 450.819-261.987.04 2.441-450.819 261.987z" class="colorc5d4dd svgShape"></path><path fill="#e7eff7" d="m706.12 1213.301 450.819-261.987c.083-.048.167-.095.253-.14 5.375-2.847 14.469.474 19.405 2.671 2.908 1.304 5.862 2.87 8.79 4.561 4.704 2.716 9.345 5.755 13.636 8.551 61.317 40.148 123.468 78.393 188.075 115.694a4247.205 4247.205 0 0 0 93.039 52.149l-450.819 261.987a4257.857 4257.857 0 0 1-93.039-52.149c-64.607-37.301-126.758-75.545-188.075-115.694-4.291-2.796-8.932-5.835-13.636-8.551-2.928-1.691-5.881-3.257-8.79-4.561-4.935-2.197-14.029-5.519-19.405-2.671-.086.045-.17.092-.253.14z" class="colore7f1f7 svgShape"></path><path fill="#616573" d="m1441.315 1135.265-412.289 239.599" class="color616173 svgShape"></path><path fill="#c5d1dd" d="M744.825 1268.979a147.195 147.195 0 0 0 8.614 6.595c4.436 3.145 8.943 6.03 13.462 8.767l-2.96-1.671a1220.04 1220.04 0 0 1-8.074-4.607c-7.412-4.28-14.919-8.858-22.209-14.317-11.208-8.399-20.379-17.878-25.792-26.737-3.484-5.652-5.407-11.273-5.441-15.802-.036-3.879 1.319-6.656 3.948-8.045 5.375-2.848 14.469.474 19.405 2.671 2.908 1.304 5.862 2.87 8.79 4.561 4.704 2.716 9.345 5.755 13.636 8.551 61.317 40.148 123.468 78.393 188.075 115.694a4247.205 4247.205 0 0 0 93.039 52.149l.064 2.482a4299.458 4299.458 0 0 1-93.096-52.195c-64.668-37.336-126.854-75.588-188.23-115.772-4.238-2.782-8.827-5.788-13.457-8.46-2.873-1.659-5.761-3.189-8.591-4.459-7.958-3.562-14.576-4.53-18.176-2.641-2.179 1.188-3.32 3.462-3.306 6.65.036 3.852 1.725 8.686 4.761 13.645 5.131 8.342 13.878 17.386 24.684 25.472 3.574 2.675 7.204 5.143 10.854 7.469z" class="colorc5d4dd svgShape"></path><path fill="#c5d1dd" d="m1029.316 1396.787 450.819-261.987.064 2.482-450.819 261.987z" class="colorc5d4dd svgShape"></path><path fill="#616573" d="m1441.326 1135.255-412.28 239.599c-7.832-4.329-1.011-.388-8.843-4.717l412.471-239.728c7.705 4.395.82.517 8.652 4.846zm-76.621-46.761-412.28 239.599c-7.832-4.329-1.011-.388-8.843-4.717l412.471-239.728c7.704 4.395.82.517 8.652 4.846z" class="color616173 svgShape"></path><path fill="#85c1fd" d="m1425.37 1122.797-412.28 239.599c-37.137-20.744-44.969-25.009-52.8-29.339l412.471-239.728c7.704 4.395 15.472 8.724 52.609 29.468z" class="color85cdfd svgShape"></path><path fill="#c5d1dd" d="m1058.443 1050.083 2.172 1.262 118.575-68.46-2.172-1.262zM1049.737 1045.024l2.172 1.262 118.575-68.46-2.171-1.262zM1067.148 1055.142l2.172 1.262 118.575-68.46-2.172-1.262zM1075.853 1060.201l2.172 1.262 118.575-68.46-2.171-1.262zM1084.558 1065.26l2.191 1.272 118.575-68.459-2.19-1.273zM1093.264 1070.318l2.19 1.273 118.575-68.459-2.19-1.273zM1101.987 1075.388l2.172 1.262 118.576-68.459-2.172-1.262zM1110.693 1080.447l2.172 1.262 118.575-68.459-2.172-1.263zM1119.398 1085.506l2.172 1.262 118.575-68.459-2.171-1.262zM1128.104 1090.565l2.172 1.262 118.575-68.459-2.172-1.262zM1136.809 1095.624l2.172 1.262 118.575-68.459-2.172-1.262zM1145.514 1100.683l2.172 1.262 118.575-68.459-2.171-1.262zM1154.219 1105.742l2.172 1.262 118.576-68.459-2.172-1.262zM1162.925 1110.801l2.172 1.262 118.575-68.459-2.172-1.262zM1171.63 1115.86l2.19 1.273 118.576-68.46-2.191-1.272zM1180.335 1120.919l2.191 1.273 118.575-68.46-2.19-1.273zM1189.059 1125.989l2.172 1.262 118.575-68.46-2.172-1.262zM1197.765 1131.048l2.171 1.262 118.575-68.46-2.171-1.262zM1206.47 1136.107l2.172 1.262 118.575-68.46-2.172-1.262z" class="colorc5d4dd svgShape"></path><path fill="#85b2df" d="m1171.63 1115.86 45.717 26.568 118.575-68.46-45.717-26.567z" class="colordf85de svgShape"></path><g fill="#c5d1dd" class="colorc5d4dd svgShape"><path d="m915.35 1131.867 2.172 1.262 118.575-68.459-2.172-1.262zM906.645 1126.808l2.171 1.262 118.575-68.46-2.171-1.261zM924.055 1136.926l2.172 1.262 118.576-68.459-2.172-1.262zM932.761 1141.985l2.171 1.262 118.576-68.459-2.172-1.262zM941.466 1147.044l2.19 1.273 118.575-68.46-2.19-1.273zM950.171 1152.103l2.19 1.273 118.576-68.46-2.191-1.273zM958.895 1157.172l2.172 1.263 118.575-68.46-2.172-1.262zM967.6 1162.231l2.172 1.263 118.575-68.46-2.172-1.262zM976.306 1167.291l2.171 1.262 118.576-68.46-2.172-1.262zM985.011 1172.35l2.172 1.262 118.575-68.46-2.171-1.262zM993.716 1177.409l2.172 1.262 118.576-68.46-2.172-1.262zM1002.422 1182.468l2.172 1.262 118.575-68.46-2.172-1.262zM1011.127 1187.527l2.172 1.262 118.575-68.46-2.172-1.262zM1019.832 1192.585l2.172 1.263 118.575-68.46-2.171-1.262zM1028.537 1197.645l2.191 1.272 118.575-68.459-2.19-1.273zM1037.243 1202.703l2.19 1.273 118.575-68.459-2.19-1.273zM1045.966 1207.773l2.172 1.262 118.576-68.459-2.172-1.263zM1054.672 1212.832l2.172 1.262 118.575-68.459-2.171-1.262zM1063.377 1217.891l2.172 1.262 118.576-68.459-2.172-1.262zM1072.083 1222.95l2.172 1.262 118.575-68.459-2.172-1.262z" fill="#000000" class="color000000 svgShape"></path></g><g fill="#c5d1dd" class="colorc5d4dd svgShape"><path d="m772.257 1213.652 2.172 1.262 118.576-68.46-2.172-1.262zM763.552 1208.593l2.172 1.261 118.575-68.459-2.171-1.262zM780.963 1218.71l2.172 1.263 118.575-68.46-2.172-1.262zM789.668 1223.77l2.172 1.262 118.575-68.46-2.172-1.262zM798.373 1228.828l2.19 1.273 118.576-68.459-2.19-1.273zM807.079 1233.887l2.19 1.273 118.575-68.459-2.19-1.273zM815.802 1238.957l2.172 1.262 118.575-68.459-2.171-1.262zM824.507 1244.016l2.172 1.262 118.576-68.459-2.172-1.263zM833.213 1249.075l2.172 1.262 118.575-68.46-2.171-1.261zM841.919 1254.134l2.171 1.262 118.576-68.459-2.172-1.262zM850.624 1259.193l2.172 1.262 118.575-68.459-2.172-1.262zM859.329 1264.252l2.172 1.262 118.575-68.459-2.172-1.263zM868.034 1269.311l2.172 1.262 118.576-68.459-2.172-1.263zM876.74 1274.37l2.171 1.262 118.576-68.459-2.172-1.262zM885.445 1279.429l2.19 1.273 118.576-68.46-2.191-1.273zM894.15 1284.488l2.19 1.273 118.576-68.46-2.19-1.273zM977.713 1248.865l45.908-26.504-2.172-1.262-45.331 26.172c.532.531 1.071 1.056 1.595 1.594zM911.58 1294.617l2.171 1.262 118.575-68.46-2.171-1.262zM920.285 1299.676l2.172 1.262 118.575-68.46-2.172-1.262zM928.99 1304.735l2.172 1.262 118.575-68.46-2.171-1.262z" fill="#000000" class="color000000 svgShape"></path></g><path fill="#c5d1dd" d="m1285.685 698.92-.122 57.813c0 8.803-5.871 17.732-17.491 24.464l-595.807 346.275c-23.485 13.582-61.526 13.582-85.133-.119L328.798 978.248c-11.865-6.85-17.736-15.779-17.736-24.708l.122-57.813c0 8.929 5.871 17.858 17.736 24.708l258.334 149.104c23.607 13.701 61.648 13.701 85.132.125l595.807-346.281c11.621-6.731 17.37-15.654 17.492-24.463z" class="colorc5d4dd svgShape"></path><path fill="#545866" d="M374.906 966.664c2.55 1.472 4.6 5.023 4.592 7.933-.004 1.445-.518 2.499-1.353 2.975-.853.466-1.993.395-3.268-.341l-.119-.069c-2.533-1.462-4.583-5.013-4.574-7.943.004-1.465.518-2.498 1.353-2.955.836-.476 1.993-.395 3.251.332l.118.068zm15.214 8.662c2.55 1.472 4.6 5.023 4.592 7.933-.004 1.445-.518 2.499-1.354 2.975-.853.466-1.993.395-3.268-.341l-.119-.069c-2.533-1.462-4.583-5.013-4.574-7.943.004-1.465.518-2.498 1.353-2.955.836-.476 1.993-.395 3.251.332l.119.068zm15.212 8.662c2.55 1.472 4.6 5.023 4.592 7.933-.004 1.445-.518 2.499-1.354 2.975-.853.466-1.993.395-3.268-.341l-.119-.069c-2.533-1.462-4.583-5.013-4.574-7.943.004-1.465.518-2.498 1.353-2.955.836-.476 1.993-.395 3.251.331l.119.069zm15.214 8.663c2.55 1.472 4.6 5.023 4.592 7.933-.004 1.445-.518 2.499-1.353 2.975-.853.466-1.993.395-3.268-.341l-.119-.069c-2.533-1.462-4.583-5.013-4.575-7.943.004-1.464.518-2.498 1.354-2.955.836-.476 1.993-.395 3.251.331l.118.069z" class="color545466 svgShape"></path><path fill="#616573" d="M1267.869 674.056c23.585 13.617 23.708 35.711.355 49.282L672.353 1069.62c-23.434 13.618-61.497 13.572-85.082-.044l-258.34-149.152c-23.585-13.617-23.632-35.574-.198-49.192L924.604 524.95c23.354-13.572 61.341-13.662 84.925-.046l258.34 149.152z" class="color616173 svgShape"></path><path fill="#cfdbe8" d="M467.125 981.323c14.188 8.178 37.15 8.108 51.129 0 14.084-8.178 13.979-21.424-.175-29.601-14.153-8.213-37.045-8.213-51.094 0-14.014 8.107-14.014 21.422.14 29.601z" class="colorcfdee8 svgShape"></path><path fill="#021b79" d="M1121.099 638.249c1.25.721 1.176 1.85.015 2.525-1.242.722-3.109.721-4.359 0l-60.368-34.853c-1.25-.721-1.256-1.803-.015-2.525 1.162-.675 3.109-.721 4.359 0l60.368 34.853zm-86.313-52.979c3.046 1.758 2.983 4.599-.039 6.356-3.027 1.759-7.931 1.804-10.977.046-3.046-1.758-3.061-4.644-.035-6.403 3.022-1.757 8.005-1.757 11.051.001zm76.576 23.715c1.796 1.037 1.802 2.752-.058 3.834-1.861 1.081-4.818 1.081-6.614.044-1.874-1.082-1.885-2.795-.024-3.876 1.86-1.082 4.822-1.084 6.696-.002z" class="color474756 svgShape"></path><path fill="#545866" d="M518.083 951.704c14.167 8.179 14.241 21.426.164 29.607-13.988 8.129-36.943 8.178-51.109-.001-14.167-8.179-14.157-21.475-.169-29.604 14.078-8.181 36.948-8.181 51.114-.002zm-48.528 28.202c12.776 7.376 33.568 7.376 46.259.001 12.695-7.378 12.628-19.421-.148-26.797-12.863-7.426-33.568-7.376-46.263.002-12.691 7.374-12.711 19.367.152 26.794M471.302 1021.903c4.116 2.377 7.426 8.108 7.412 12.806-.007 2.333-.836 4.034-2.158 4.818-1.376.753-3.218.637-5.303-.567l-27.194-15.7c-4.089-2.361-7.398-8.093-7.385-12.823.007-2.364.836-4.032 2.185-4.77 1.349-.768 3.218-.637 5.248.535l27.195 15.701zM492.453 1039.177c2.582 1.491 4.658 5.086 4.649 8.032-.004 1.464-.524 2.53-1.371 3.012-.863.472-2.018.4-3.309-.346l-.121-.07c-2.564-1.481-4.64-5.076-4.632-8.043.004-1.483.524-2.529 1.37-2.992.846-.482 2.018-.4 3.292.336l.122.071zm15.404 8.771c2.582 1.491 4.657 5.086 4.649 8.032-.004 1.464-.524 2.53-1.37 3.012-.863.472-2.018.4-3.309-.346l-.121-.069c-2.564-1.481-4.64-5.076-4.632-8.043.004-1.483.524-2.529 1.37-2.992.846-.482 2.018-.4 3.292.336l.121.07zm15.404 8.771c2.582 1.49 4.658 5.086 4.649 8.032-.004 1.464-.524 2.53-1.37 3.012-.863.472-2.018.4-3.309-.346l-.12-.069c-2.565-1.481-4.64-5.076-4.632-8.043.004-1.483.524-2.529 1.37-2.992.846-.482 2.018-.4 3.292.336l.12.07zm15.403 8.771c2.582 1.491 4.658 5.086 4.649 8.032-.004 1.464-.524 2.53-1.371 3.012-.863.472-2.018.4-3.309-.346l-.121-.07c-2.564-1.481-4.64-5.076-4.632-8.043.004-1.483.524-2.529 1.37-2.992.846-.482 2.018-.4 3.292.336l.122.071z" class="color545466 svgShape"></path><path fill="#616573" d="M1165.969 809.548c.076 4.718 1.752 8.072 4.416 9.67l6.472 3.729c-2.665-1.599-4.34-4.874-4.416-9.592 0-9.596 6.7-21.17 15-25.966 4.112-2.361 7.919-2.588 10.66-.989l-6.472-3.807c-2.741-1.524-6.472-1.294-10.66 1.067-8.299 4.797-15 16.371-15 25.888z" class="color616173 svgShape"></path><ellipse cx="1187.478" cy="804.664" fill="#021b79" rx="21.15" ry="12.251" transform="rotate(-59.834 1187.51 804.638)" class="color474756 svgShape"></ellipse><path fill="#616573" d="M1107.991 843.126c0 4.722 1.675 8.068 4.34 9.592l6.472 3.807c-2.665-1.599-4.34-4.948-4.34-9.67-.076-9.518 6.624-21.092 14.924-25.888 4.188-2.361 7.995-2.588 10.66-.989l-6.472-3.807c-2.665-1.599-6.472-1.372-10.66 1.063-8.299 4.801-15 16.375-14.924 25.892z" class="color616173 svgShape"></path><ellipse cx="1129.45" cy="838.223" fill="#021b79" rx="21.15" ry="12.251" transform="rotate(-59.834 1129.49 838.2)" class="color474756 svgShape"></ellipse><path fill="#85c1fd" d="M917.672 549.704 380.464 859.747l303.585 176.414 537.041-310.128z" class="color85cdfd svgShape"></path><path fill="#94c0ed" d="m1148.626 741.703-331.02 192.344L578.563 796c-15.75-9.055-28.547-31.184-28.468-49.297 0-8.977 3.19-15.316 8.308-18.309L889.424 536.05c-5.118 2.993-8.308 9.293-8.347 18.31-.039 18.073 12.718 40.201 28.468 49.297l239.081 138.046z" class="color94ed96 svgShape"></path><path fill="#cfdbe8" d="M1136.418 670.635 818.067 855.64l-.015 71.78 318.366-185.015z" class="colorcfdee8 svgShape"></path><path fill="#e7eff7" d="M818.052 850.816 591.043 719.74c-18.349-10.591-33.35-2.048-33.389 19.018-.079 21.104 14.805 46.895 33.153 57.486l227.245 131.175v-76.603z" class="colore7f1f7 svgShape"></path><path fill="#75a3d1" d="m817.623 934.049 331.009-192.361-.016 5.425-331.008 192.361zM817.824 862.987l331.009-192.361-.015 5.425-331.009 192.361z" class="color75d178 svgShape"></path><path fill="#94c0ed" d="M1148.823 670.632 817.841 862.977 578.76 724.969c-9.253-5.355-17.64-5.828-23.703-2.323l331.021-192.345c6.064-3.543 14.45-3.032 23.664 2.284l239.081 138.047z" class="color94ed96 svgShape"></path><ellipse cx="904.184" cy="654.016" fill="#7caddf" rx="63.446" ry="109.536" transform="rotate(-89.84 904.16 654.017)" class="color7cdf82 svgShape"></ellipse><path fill="#7caddf" d="m817.824 862.987-.015 5.425-239.077-138.031c-15.748-9.092-28.602-1.766-28.654 16.329-.051 18.095 12.72 40.216 28.468 49.308l239.077 138.031-.015 5.425-239.077-138.031c-18.353-10.596-33.233-36.37-33.174-57.459.06-21.089 15.038-29.624 33.39-19.028l239.077 138.031z" class="color7cdf82 svgShape"></path><g fill="#7caddf" class="color7cdf82 svgShape"><path d="m830.027 820.799-13.73 7.98-194.252-112.151 13.731-7.98zM867.998 798.733l-30.964 17.994-194.251-112.151 30.964-17.994z" fill="#000000" class="color000000 svgShape"></path></g><path fill="#5598db" d="M1081.984 660.709 750.963 853.052 511.921 715.005c-15.75-9.055-28.547-31.184-28.468-49.297 0-8.977 3.19-15.316 8.308-18.309l331.021-192.344c-5.118 2.993-8.308 9.293-8.347 18.31-.039 18.073 12.718 40.201 28.468 49.297l239.081 138.047z" class="color5576db svgShape"></path><path fill="#cfdbe8" d="m1069.775 589.641-318.35 185.005-.015 71.779 318.365-185.014z" class="colorcfdee8 svgShape"></path><path fill="#e7eff7" d="M751.41 769.822 524.401 638.746c-18.349-10.591-33.35-2.047-33.389 19.018-.079 21.104 14.805 46.895 33.153 57.486L751.41 846.425v-76.603z" class="colore7f1f7 svgShape"></path><path fill="#135fab" d="m750.981 853.054 331.008-192.361-.015 5.425-331.009 192.361zM751.182 781.992l331.009-192.361-.016 5.425-331.008 192.361z" class="color1352ab svgShape"></path><path fill="#5598db" d="M1082.181 589.638 751.199 781.982 512.118 643.975c-9.253-5.355-17.64-5.828-23.704-2.323l331.021-192.344c6.064-3.543 14.45-3.032 23.664 2.284l239.082 138.046z" class="color5576db svgShape"></path><ellipse cx="837.542" cy="573.022" fill="#7caddf" rx="63.446" ry="109.536" transform="rotate(-89.84 837.52 573.023)" class="color7cdf82 svgShape"></ellipse><path fill="#256eb8" d="m751.182 781.992-.015 5.425L512.09 649.386c-15.748-9.092-28.603-1.767-28.654 16.329-.051 18.095 12.72 40.216 28.468 49.308l239.077 138.031-.015 5.425-239.078-138.031c-18.353-10.596-33.233-36.37-33.174-57.459.06-21.089 15.038-29.624 33.39-19.028l239.078 138.031z" class="color255bb8 svgShape"></path><g fill="#0575e6" class="color3765c7 svgShape"><path d="m763.385 739.805-13.731 7.979-194.251-112.151 13.73-7.979zM801.356 717.739l-30.964 17.994-194.251-112.152 30.963-17.994z" fill="#000000" class="color000000 svgShape"></path></g><path fill="#5477fd" d="M1179.41 550.014 848.389 742.357 609.347 604.31c-15.75-9.055-28.547-31.184-28.468-49.297 0-8.977 3.19-15.316 8.309-18.309l331.02-192.344c-5.118 2.993-8.308 9.293-8.347 18.31-.04 18.073 12.718 40.201 28.468 49.297l239.081 138.047z" class="colorfd546b svgShape"></path><path fill="#cfdbe8" d="M1167.202 478.945 848.851 663.95l-.015 71.78 318.366-185.015z" class="colorcfdee8 svgShape"></path><path fill="#e7eff7" d="M848.836 659.126 621.827 528.051c-18.349-10.591-33.35-2.048-33.389 19.018-.079 21.104 14.805 46.895 33.153 57.486L848.836 735.73v-76.604z" class="colore7f1f7 svgShape"></path><path fill="#2950e2" d="m848.407 742.359 331.008-192.361-.015 5.425-331.009 192.361zM848.608 671.297l331.009-192.361-.016 5.425-331.008 192.361z" class="colore22951 svgShape"></path><path fill="#5477fd" d="M1179.607 478.943 848.625 671.287 609.544 533.279c-9.253-5.355-17.64-5.828-23.703-2.323l331.021-192.344c6.064-3.543 14.45-3.032 23.664 2.284l239.081 138.047z" class="colorfd546b svgShape"></path><ellipse cx="934.968" cy="462.327" fill="#3d61ea" rx="63.446" ry="109.536" transform="rotate(-89.84 934.946 462.331)" class="colorea3d5b svgShape"></ellipse><path fill="#3d61ea" d="m848.608 671.297-.015 5.425-239.077-138.031c-15.748-9.092-28.602-1.766-28.654 16.329-.051 18.095 12.72 40.216 28.468 49.308l239.077 138.031-.015 5.425-239.078-138.031c-18.353-10.596-33.233-36.37-33.174-57.459.06-21.089 15.038-29.624 33.39-19.028l239.078 138.031z" class="colorea3d5b svgShape"></path><g fill="#3d61ea" class="colorea3d5b svgShape"><path d="m860.811 629.11-13.73 7.979-194.252-112.151 13.731-7.98zM898.782 607.043l-30.964 17.995-194.251-112.152 30.964-17.994z" fill="#000000" class="color000000 svgShape"></path></g><path fill="#021b79" d="M977.611 651.574s-6.815 10.223-3.408 16.065c3.408 5.842 47.708 25.801 47.951 21.42.243-4.381 1.947-11.44-11.197-26.045-13.143-14.604-31.379-14.962-33.346-11.44z" class="color474756 svgShape"></path><path fill="#135fab" d="M901.916 520.29s-.236 29.862 6.419 44.222c6.655 14.36 77.054 44.131 77.054 44.131s-9.457 42.03-8.756 46.933c.701 4.904 20.665 2.802 20.665 2.802s16.812-49.035 15.761-63.395c-1.051-14.36-22.416-40.278-36.776-49.035-14.36-8.756-51.486-22.066-56.39-23.466-4.904-1.4-19.728-14.1-17.977-2.192z" class="color1352ab svgShape"></path><path fill="#256eb8" d="M955.941 528.104s41.737 38.646 41.737 48.848c0 10.202 0 110.955 2.473 111.282 2.473.327 23.188 8.674 23.188-2.146 0-10.821 21.333-70.49 21.951-85.639.618-15.149 5.874-27.825 0-40.501-5.874-12.676-39.883-48.539-49.467-55.65-9.584-7.111-43.283 17.622-39.882 23.806z" class="color255bb8 svgShape"></path><path fill="#545866" d="M999.963 680s-10.308 6.038-9.13 13.843c1.178 7.805 19.144 58.905 24.298 62.586 5.154 3.682 13.695-2.209 12.075-14.284-1.62-12.076-5.154-43-3.092-52.131 2.062-9.13-.295-9.425-.295-9.425s-21.352-3.534-23.856-.589z" class="color545466 svgShape"></path><path fill="#94c0ed" d="m1073.435 543.396-49.839-28.963c-.091-.053-.217-.047-.359.035l49.839 28.963c.142-.082.268-.088.359-.035z" class="color94ed96 svgShape"></path><path fill="#e7eff7" d="m995.022 531.782 49.839 28.964a.127.127 0 0 1-.019-.013l-49.839-28.963.019.012z" class="colore7f1f7 svgShape"></path><path fill="#94c0ed" d="m1073.076 543.431-49.839-28.963-27.446 15.845 49.84 28.964z" class="color94ed96 svgShape"></path><path fill="#75a3d1" d="m1044.448 559.979-49.839-28.963a.46.46 0 0 1 .237.427c0 .151.045.264.133.316l49.839 28.964c-.089-.052-.133-.164-.134-.316a.459.459 0 0 0-.236-.428z" class="color75d178 svgShape"></path><path fill="#7caddf" d="m1045.187 558.733-49.839-28.963c-.288-.168-.722-.241-1.365-.144-.94.147-2.241.686-3.563 1.449l49.839 28.963c1.322-.763 2.623-1.302 3.563-1.449.642-.097 1.076-.024 1.365.144zm-4.928 1.305-49.839-28.963c-2.426 1.401-4.925 3.56-5.399 5.457l49.839 28.964c.474-1.898 2.973-4.057 5.399-5.458z" class="color7cdf82 svgShape"></path><path fill="#94c0ed" d="m1034.86 565.495-49.839-28.963-27.958 16.22 49.839 28.963z" class="color94ed96 svgShape"></path><path fill="#75a3d1" d="M1040.259 560.038c-2.426 1.401-4.925 3.56-5.399 5.457l-27.958 16.22c-.286.165-.518.568-.517.881.001.328.235.461.521.297l28.387-16.467c.13-.075.259-.209.363-.389.091-.157.142-.336.142-.5-.003-.969 1.993-2.913 4.446-4.329 1.22-.704 2.401-1.177 3.233-1.314.455-.068 1.208-.085 1.21.511 0 .164.053.283.157.327.091.067.221.051.364-.031l27.874-16.093c.286-.165.505-.56.504-.888-.001-.313-.222-.454-.508-.29l-27.445 15.846c-.17-.484-.652-.863-1.809-.688-.942.148-2.243.687-3.565 1.45z" class="color75d178 svgShape"></path><path fill="#75a3d1" d="m956.697 553.965 49.839 28.963c-.093-.054-.151-.169-.152-.332-.001-.313.232-.716.517-.881l-49.839-28.963c-.286.165-.518.568-.517.881.001.163.059.278.152.332z" class="color75d178 svgShape"></path><path fill="#e7eff7" d="m1043.872 557.644-52.405-30.455c.169.098.265.257.266.487l52.405 30.454c-.001-.229-.097-.388-.266-.486z" class="colore7f1f7 svgShape"></path><path fill="#dce6f1" d="m1070.962 538.834-47.032-27.332c-8.119 3.233-16.952 4.587-25.205 9.352-2.433 1.404-7.408 4.441-9.707 6.573l47.032 27.332c2.299-2.132 7.274-5.169 9.707-6.573 8.253-4.764 17.086-6.119 25.205-9.352zm-111.619 9.967 47.033 27.329c8.098-6.146 16.909-14.984 25.165-19.731 2.427-1.399 2.216-1.109 4.511-1.636l-47.033-27.328c-2.295.501-2.084.237-4.511 1.635-8.257 4.749-17.067 13.585-25.165 19.731z" class="colordce8f1 svgShape"></path><path fill="#c5d1dd" d="m1006.374 576.125-47.033-27.333.011 3.804 47.033 27.332z" class="colorc5d4dd svgShape"></path><path fill="#c5d1dd" d="M1031.536 556.397c-8.245 4.759-17.061 13.596-25.163 19.728l.011 3.804 26.835-15.493c-.004-1.364 3.317-4.043 5.441-5.384 2.137-1.119 5.474-2.284 5.478-.92l26.835-15.493-.011-3.804c-8.119 3.232-16.952 4.587-25.205 9.352-2.433 1.405-7.408 4.441-9.707 6.573-2.296.521-2.084.234-4.514 1.637z" class="colorc5d4dd svgShape"></path><path fill="#dce6f1" d="m1036.05 554.76-47.032-27.332M1036.05 554.761c-7.697-4.8-15.571-9.294-23.351-13.951-7.897-4.455-15.7-9.073-23.682-13.383 7.696 4.802 15.571 9.296 23.351 13.951 7.899 4.454 15.701 9.072 23.682 13.383zM993.68 527.861l.778.847c1.739-1.601 5.559-4.026 8.305-5.628 4.461-2.563 9.197-4.003 13.772-5.399 2.654-.801 5.399-1.624 8.03-2.676l-1.245-.736c-2.562 1.029-4.36 1.49-7.128 2.336-4.621 1.396-9.425 2.837-14.001 5.492-1.007.572-6.177 3.614-8.511 5.764zm-28.773 21.162 1.069.632c2.585-1.978 5.276-4.299 7.914-6.541 4.59-3.905 9.365-7.941 13.875-10.526 1.583-.949 1.741-.976 2.743-1.188.29-.026.581-.106.976-.184l-1.292-.896c-1.055.21-1.372.315-3.007 1.239-4.59 2.665-9.417 6.727-14.033 10.684-2.745 2.348-5.713 4.828-8.245 6.78zm32.724-18.882.778.847c1.739-1.601 5.559-4.026 8.305-5.628 4.461-2.563 9.197-4.004 13.772-5.399 2.654-.801 5.399-1.624 8.03-2.677l-1.245-.735c-2.562 1.029-4.36 1.49-7.128 2.336-4.621 1.396-9.426 2.837-14.001 5.492-1.007.572-6.178 3.614-8.511 5.764zm-28.774 21.162 1.069.632c2.585-1.978 5.276-4.299 7.914-6.541 4.59-3.905 9.364-7.941 13.875-10.526 1.583-.949 1.741-.976 2.743-1.188.29-.026.58-.106.976-.184l-1.293-.896c-1.055.21-1.371.316-3.007 1.239-4.59 2.665-9.417 6.727-14.033 10.684-2.743 2.347-5.712 4.828-8.244 6.78zm32.724-18.882.778.847c1.739-1.601 5.559-4.026 8.305-5.628 4.461-2.563 9.197-4.004 13.772-5.399 2.654-.801 5.399-1.624 8.03-2.677l-1.245-.735c-2.562 1.029-4.36 1.49-7.128 2.336-4.621 1.396-9.426 2.837-14.001 5.491-1.007.573-6.178 3.615-8.511 5.765zm-28.774 21.162 1.069.632c2.585-1.978 5.276-4.299 7.914-6.541 4.59-3.905 9.364-7.941 13.875-10.526 1.583-.949 1.741-.976 2.743-1.188.29-.026.58-.106.976-.184l-1.292-.896c-1.055.21-1.372.316-3.007 1.239-4.59 2.665-9.417 6.727-14.033 10.684-2.744 2.347-5.712 4.828-8.245 6.78zm32.724-18.882.778.847c1.739-1.601 5.559-4.026 8.305-5.628 4.461-2.563 9.197-4.004 13.772-5.399 2.654-.801 5.399-1.624 8.03-2.677l-1.245-.736c-2.562 1.029-4.36 1.49-7.128 2.336-4.621 1.396-9.425 2.837-14.001 5.492-1.007.573-6.177 3.615-8.511 5.765zm-28.773 21.162 1.069.632c2.585-1.978 5.276-4.299 7.914-6.541 4.59-3.905 9.365-7.941 13.875-10.526 1.583-.949 1.741-.976 2.743-1.188.29-.026.58-.106.976-.184l-1.292-.896c-1.055.21-1.372.316-3.007 1.239-4.59 2.665-9.417 6.727-14.033 10.684-2.745 2.347-5.713 4.828-8.245 6.78zm32.723-18.882.778.847c1.739-1.601 5.559-4.026 8.305-5.628 4.461-2.563 9.197-4.004 13.772-5.399 2.654-.801 5.399-1.624 8.03-2.677l-1.245-.735c-2.562 1.029-4.36 1.49-7.128 2.336-4.621 1.396-9.426 2.837-14.001 5.492-1.007.572-6.177 3.614-8.511 5.764zm-28.773 21.162 1.069.632c2.585-1.978 5.276-4.299 7.914-6.541 4.59-3.905 9.364-7.941 13.875-10.526 1.583-.949 1.741-.976 2.743-1.188.29-.026.58-.106.976-.184l-1.293-.896c-1.055.21-1.372.315-3.007 1.239-4.59 2.665-9.417 6.727-14.033 10.684-2.744 2.347-5.712 4.827-8.244 6.78zm32.724-18.882.778.847c1.739-1.601 5.559-4.026 8.305-5.628 4.461-2.563 9.197-4.004 13.772-5.399 2.654-.801 5.399-1.624 8.03-2.677l-1.245-.735c-2.562 1.029-4.36 1.49-7.128 2.336-4.621 1.396-9.426 2.837-14.001 5.492-1.008.572-6.178 3.613-8.511 5.764zm-28.774 21.162 1.069.632c2.585-1.978 5.276-4.299 7.914-6.541 4.59-3.905 9.364-7.941 13.875-10.526 1.583-.949 1.741-.976 2.743-1.188.29-.026.58-.106.976-.184l-1.292-.896c-1.055.21-1.372.316-3.007 1.239-4.59 2.665-9.417 6.727-14.033 10.684-2.744 2.347-5.713 4.827-8.245 6.78zM1017.382 541.541l.778.847c1.739-1.601 5.559-4.026 8.305-5.628 4.461-2.563 9.197-4.004 13.772-5.399 2.654-.801 5.399-1.624 8.03-2.677l-1.245-.735c-2.562 1.029-4.36 1.49-7.128 2.336-4.621 1.396-9.426 2.837-14.001 5.491-1.007.573-6.178 3.614-8.511 5.765zm-28.774 21.162 1.069.632c2.585-1.978 5.276-4.299 7.914-6.541 4.59-3.905 9.365-7.941 13.875-10.526 1.583-.949 1.741-.976 2.743-1.188.29-.026.581-.106.976-.184l-1.293-.896c-1.055.21-1.372.316-3.007 1.239-4.59 2.665-9.417 6.727-14.033 10.684-2.743 2.347-5.711 4.827-8.244 6.78zM1021.332 543.821l.778.847c1.739-1.601 5.559-4.026 8.305-5.628 4.461-2.563 9.197-4.004 13.772-5.399 2.654-.801 5.399-1.624 8.03-2.677l-1.245-.736c-2.562 1.029-4.36 1.49-7.128 2.336-4.621 1.396-9.426 2.837-14.001 5.491-1.007.574-6.177 3.615-8.511 5.766zm-28.774 21.162 1.069.632c2.585-1.978 5.276-4.299 7.914-6.541 4.59-3.905 9.364-7.941 13.875-10.526 1.583-.949 1.741-.976 2.743-1.188.29-.026.58-.106.976-.184l-1.292-.896c-1.055.21-1.372.315-3.007 1.239-4.59 2.665-9.417 6.727-14.033 10.684-2.744 2.347-5.712 4.827-8.245 6.78zM1025.282 546.101l.778.847c1.739-1.601 5.559-4.026 8.305-5.628 4.461-2.563 9.197-4.004 13.772-5.399 2.654-.801 5.399-1.624 8.03-2.676l-1.245-.736c-2.562 1.029-4.36 1.49-7.128 2.336-4.621 1.396-9.426 2.837-14.001 5.492-1.007.572-6.177 3.613-8.511 5.764zm-28.773 21.162 1.069.632c2.585-1.978 5.276-4.299 7.914-6.541 4.59-3.905 9.364-7.941 13.875-10.526 1.583-.949 1.741-.976 2.743-1.188.29-.026.58-.106.976-.184l-1.292-.897c-1.055.21-1.372.316-3.007 1.239-4.59 2.665-9.417 6.727-14.033 10.684-2.745 2.348-5.713 4.828-8.245 6.781zM1029.233 548.38l.778.847c1.739-1.601 5.559-4.026 8.305-5.628 4.461-2.563 9.197-4.004 13.772-5.399 2.654-.801 5.399-1.624 8.03-2.677l-1.245-.735c-2.562 1.029-4.36 1.49-7.128 2.336-4.621 1.396-9.426 2.837-14.001 5.492-1.008.572-6.178 3.614-8.511 5.764zm-28.774 21.163 1.069.632c2.585-1.978 5.276-4.299 7.914-6.541 4.59-3.905 9.365-7.941 13.875-10.526 1.583-.949 1.741-.976 2.743-1.188.29-.026.58-.106.976-.184l-1.293-.897c-1.055.21-1.372.316-3.007 1.239-4.59 2.665-9.417 6.727-14.033 10.684-2.743 2.348-5.712 4.828-8.244 6.781zM1033.183 550.661l.778.847c1.739-1.601 5.559-4.026 8.305-5.628 4.461-2.563 9.197-4.003 13.772-5.399 2.654-.801 5.399-1.624 8.03-2.676l-1.245-.736c-2.562 1.029-4.36 1.49-7.128 2.336-4.621 1.396-9.426 2.837-14.001 5.492-1.007.571-6.178 3.613-8.511 5.764zm-28.774 21.162 1.069.632c2.585-1.978 5.276-4.299 7.914-6.541 4.59-3.905 9.364-7.941 13.875-10.526 1.583-.949 1.741-.976 2.743-1.188.29-.026.58-.106.976-.184l-1.292-.896c-1.055.21-1.372.315-3.007 1.239-4.59 2.665-9.417 6.727-14.033 10.684-2.744 2.347-5.712 4.827-8.245 6.78z" class="colordce8f1 svgShape"></path><path fill="#e7eff7" d="m1063.808 529.924-49.124-28.548c-.018.009-.316.17-.845.475-3.55 2.049-17.508 10.634-26.935 23.89l49.124 28.548c9.427-13.256 23.385-21.841 26.935-23.89.529-.305.827-.466.845-.475zm-104.735 3.564 49.125 28.549c.02-.02.309-.2.838-.509 3.552-2.046 17.522-9.58 26.992-7.235l-49.125-28.549c-9.47-2.345-23.44 5.189-26.992 7.234-.529.31-.818.49-.838.51z" class="colore7f1f7 svgShape"></path><path fill="#dce6f1" d="m1036.028 554.293-49.125-28.549M1036.028 554.293c-3.99-2.557-8.036-5.019-12.089-7.468-4.053-2.45-8.15-4.823-12.223-7.238-4.113-2.345-8.205-4.728-12.339-7.038l-6.211-3.448c-2.089-1.118-4.16-2.265-6.263-3.357 1.99 1.287 4.012 2.519 6.018 3.78l6.071 3.689c4.054 2.448 8.15 4.823 12.224 7.236 4.115 2.343 8.205 4.729 12.34 7.037 4.133 2.31 8.275 4.606 12.472 6.807z" class="colordce8f1 svgShape"></path><path fill="#c5d1dd" d="m1008.195 562.032-49.124-28.548.022.407 49.124 28.548z" class="colorc5d4dd svgShape"></path><path fill="#cfdbe8" d="M1009.04 561.531c-.529.305-.827.489-.845.5l.022.407c.018-.011.318-.196.849-.503 3.562-2.057 17.554-9.603 26.964-7.141 9.365-13.301 23.353-21.91 26.917-23.967.531-.307.831-.468.849-.477l.013-.427c-.018.009-.316.17-.844.475-3.55 2.049-17.508 10.634-26.935 23.89-9.472-2.344-23.437 5.192-26.99 7.243z" class="colorcfdee8 svgShape"></path><path fill="#b5d9fe" d="M1030.887 513.71c.374 1.665.608 3.175 1.082 4.604.219.659 1.023 1.102 1.364 1.747.968 1.839.696 3.733-.143 5.519-.534 1.136-1.828 1.011-2.404-.255-.527-1.158-1.399-1.948-2.241-2.837-.848-.894-1.542-1.988-2.089-3.1-.852-1.732-1.65-3.512-2.237-5.347-.743-2.326-1.31-4.713-1.84-7.099-.366-1.646-.594-3.328-.785-5.005a9.684 9.684 0 0 0-1.742-4.552c-2.369-3.362-4.677-6.773-7.19-10.025-1.537-1.989-3.372-3.754-5.147-5.545-.538-.543-.658-.924-.248-1.553a3537.74 3537.74 0 0 0 8.818-13.576c.556-.86 1.043-1.764 1.578-2.638.17-.277.393-.522.691-.912.705 1.146 1.333 2.135 1.929 3.142 2.827 4.773 5.563 9.603 8.497 14.309 1.834 2.941 4.428 5.214 7.408 6.993 2.292 1.369 4.738 2.505 6.922 4.023 1.81 1.258 3.368 2.891 4.985 4.414 2.587 2.438 5.124 4.928 7.695 7.384 1.048 1.001 1.91 2.117 2.371 3.508.357 1.079.409 2.187-.15 3.182-.483.861-.442 1.673-.207 2.555.255.958.455 1.932.722 2.886.25.894.047 1.622-.674 2.197-.632.504-.832.981-.425 1.836.97 2.036.773 4.139.006 6.222-.105.286-.027.665.04.985.335 1.586-.648 2.547-2.159 1.978-1.562-.588-2.651-1.745-3.33-3.279-.123-.278-.219-.615-.435-.797-1.58-1.332-3.149-2.685-4.808-3.914-.609-.451-1.512-.485-2.183-.878-2.857-1.676-6.038-2.589-9.037-3.924-1.46-.65-2.879-1.393-4.634-2.248zm-1.14 35.188c-1.31-1.034-2.863-1.37-4.527-1.159-.301.038-.64.129-.907.038-1.957-.666-3.925-1.311-5.834-2.098-.701-.289-1.196-1.045-1.879-1.416-2.911-1.582-5.334-3.835-8.026-5.715-1.31-.915-2.679-1.747-4.317-2.809 1.62-.539 3.033-1.118 4.502-1.45.678-.153 1.472.308 2.201.266 2.075-.12 3.557-1.331 4.653-2.972.698-1.043-.078-2.088-1.459-1.928-1.264.147-2.391-.193-3.586-.456-1.203-.265-2.499-.294-3.734-.189-1.923.164-3.86.399-5.734.844-2.375.564-4.713 1.31-7.03 2.088-1.598.536-3.157 1.21-4.692 1.911a9.69 9.69 0 0 1-4.798.858c-4.102-.293-8.216-.51-12.298-.984a29.86 29.86 0 0 1-1.706-.256c-1.968 3.047-3.807 6.079-5.732 8.979-.183 2.246-.578 4.473-1.131 6.681.041.145.047.294.062.442.585.505 1.14 1.031 1.799 1.474 3.076-.039 6.152-.064 9.227-.018 3.466.053 6.751 1.101 9.813 2.736 2.355 1.257 4.591 2.765 7.019 3.852 2.012.901 4.214 1.393 6.353 1.991 3.423.958 6.866 1.845 10.296 2.78 1.398.381 2.8.543 4.228.22 1.108-.251 2.084-.778 2.648-1.771.488-.858 1.205-1.242 2.081-1.496.953-.276 1.889-.607 2.845-.871.895-.248 1.414-.796 1.534-1.712.105-.801.41-1.219 1.353-1.311 2.245-.22 3.944-1.475 5.333-3.207.191-.238.555-.367.864-.474 1.531-.531 1.847-1.868.579-2.868z" class="colorfed0b5 svgShape"></path><path fill="#6cb0f4" d="M1005.527 399.882s12.11-5.504 13.651 8.807c1.541 14.312-3.083 52.843-1.541 54.605 1.541 1.761 5.064 3.523 5.064 3.523s-9.688 7.706-9.688 9.908c0 2.202-13.651 1.762-13.651 1.762s-7.046-40.513-6.826-41.834c.221-1.322 12.991-36.771 12.991-36.771z" class="colorf46cb4 svgShape"></path><path fill="#021b79" d="M943.744 330.949c-6.011 3.939-9.933 10.5-11.986 17.387-2.053 6.887-2.414 14.153-2.593 21.337-.179 7.184-.196 14.423-1.599 21.471-3.23 16.23-14.159 30.753-28.86 38.352 22.26-4.732 52.759-19.183 60.583-40.553 2.8-7.648-6.969-18.095-3.673-25.543 3.295-7.448 9.055-14.457 16.977-16.348 4.205-1.004 9.326-.823 11.867-4.32 4.99-6.87-4.331-12.336-9.78-13.328-5.992-1.091-11.798-1.78-17.894-1.869-4.669-.066-9.081.819-13.042 3.414z" class="color474756 svgShape"></path><path fill="#7bbdff" d="M1014.513 451.168c3.804 10.023.764 33.682-16.52 42.628-.191.104-.382.209-.573.296 0 0-.226.868-.556 2.293a161.015 161.015 0 0 0-1.685 7.869 111.822 111.822 0 0 0-.851 5.211c-.747 5.42-1.007 10.787.295 13.254 3.144 5.941-76.432 33.508-86.559 15.703-.869-1.528-1.72-3.422-2.519-5.593-1.199-3.196-2.31-7.001-3.318-11.222a185.275 185.275 0 0 1-2.31-11.187c-1.494-8.286-2.692-17.388-3.544-26.369-1.824-18.848-2.137-37.139-.521-46.154 0 0 31.407-42.576 68.407-44.66 37-2.102 54.44 4.186 54.44 12.906s-8.025 34.899-4.186 45.025z" class="colorff7bba svgShape"></path><path fill="#6cb0f4" d="M997.993 493.797c-.191.104-.382.209-.573.296 0 0-.226.868-.556 2.293a161.015 161.015 0 0 0-1.685 7.869 111.822 111.822 0 0 0-.851 5.211c-12.281.33-25.761 1.095-36.183 2.78-16.659 2.606-36.705 10.752-52.599 20.585-1.199-3.196-2.31-7.001-3.318-11.222a185.275 185.275 0 0 1-2.31-11.187c-1.494-8.286-2.692-17.388-3.544-26.369.191-.955.365-1.894.521-2.814 1.946 11.118 7.504 22.547 22.2 21.21 23.658-2.121 59.112-8.409 78.898-8.652z" class="colorf46cb4 svgShape"></path><path fill="#b5d9fe" d="M950.91 388.562c-12.431 7.846-18.099 14.479-14.946 21.135 3.153 6.656 37.832 35.03 44.838 32.344s26.856-24.638 22.653-39.817c-4.204-15.18-38.3-22.653-52.545-13.662z" class="colorfed0b5 svgShape"></path><path fill="#c5e2ff" d="M958.12 398.022c2.178 7.371 5.959 14.44 11.793 19.445 5.834 5.005 13.892 7.713 21.401 6.069 8.365-1.832 14.814-8.585 19.287-15.886 6.37-10.398 9.803-22.574 9.801-34.768-.001-5.535-.929-11.558-4.953-15.358-3.29-3.107-8.004-4.108-12.488-4.715a115.075 115.075 0 0 0-19.289-.973c-4.585.154-9.209.593-13.561 2.045s-8.446 3.993-11.122 7.719c-3.146 4.381-3.675 10.417-3.968 15.673-.376 6.708 1.208 14.348 3.099 20.749z" class="colorffdcc5 svgShape"></path><path fill="#021b79" d="M1022.528 386.173c-3.422 3.856-9.068 4.794-14.227 4.656-5.159-.139-10.37-1.129-15.425-.139a20.276 20.276 0 0 0-9.641 4.76c-1.234 1.094-2.345 2.362-3.718 3.283-3.109 2.102-7.105 2.224-10.718 3.231-2.884.782-5.889 2.658-6.914 5.298 1.025-7.07-.313-14.47-3.804-20.706-2.136-3.804-5.003-7.157-7.591-10.666-2.588-3.526-4.951-7.348-5.819-11.621-.868-4.291-.035-9.12 3.057-12.212 2.033-1.998 4.76-3.092 7.365-4.256 2.588-1.147 5.263-2.536 6.862-4.899 1.581-2.345 1.702-5.958-.504-7.765l-.469 1.65c-1.668-1.268-1.876-3.891-.799-5.698 1.077-1.789 3.144-2.831 5.211-3.162 2.067-.313 4.186-.035 6.253.243 5.646.764 11.274 1.546 16.902 2.31 5.35.73 10.787 1.477 15.668 3.822 6.201 2.97 11.013 8.355 14.279 14.418 3.248 6.063 5.072 12.785 6.393 19.542 1.2 6.134 1.79 13.238-2.361 17.911z" class="color474756 svgShape"></path><path fill="#2950e2" d="M953.597 337.695c2.831-4.639 8.121-8.612 13.329-10.163 1.186-.965 5.713-.462 4.49.876-1.223 1.338-9.042 6.703-10.53 7.738-4.962 3.453-7.93 9.588-7.557 15.623.039.635.111 1.288-.081 1.895-.517 1.636-2.211 1.19-2.648-.177-.443-1.389-.286-3.478-.236-4.921.133-3.818 1.241-7.607 3.233-10.871z" class="colore22951 svgShape"></path><path fill="#8dc6ff" d="m973.053 532.486-.07-.121-47.952-16.694s10.656-44.756-4.618-62.871c-15.274-18.116-23.863-17.774-26.64-15.629 0 0-14.208 9.59-12.787 20.247 1.421 10.656 11.011 74.237 18.115 79.92 5.362 4.29 51.599 11.21 73.952 14.346 2.567-6.808 2.947-13.268 0-19.198z" class="colorff8dc4 svgShape"></path><path fill="#b5d9fe" d="m1385.651 672.243 3.576-16.253-21.666-1.892s-11.585-10.433-13.985-10.873c-2.4-.439-9.408-6.234-10.937-7.604-1.53-1.37-3.072-3.988-4.246-2.706-1.173 1.282-1.488 5.503.744 7.588 2.233 2.085 7.443 5.172 7.981 5.651.538.478 1.92 2.754 1.15 3.115s-5.088 2.286-6.658 2.501c-1.57.215-30.312-3.83-30.911-3.548-.599.281-3.045 1.744-1.316 3.647 1.729 1.903 24.242 6.472 24.242 6.472l-.207 1.56-25.65-.798s-2.672.315-2.276 3.158 28.089 3.099 28.089 3.099l.135 1.399s-22.984.875-24.056 1.483c-1.072.608-1.291 4.366 2.387 4.414 3.678.048 24.861-1.548 24.861-1.548l.935 1.545s-17.418 5.165-18.449 5.638c-2.059.943-1.027 4.008 1.014 3.492.903-.228 37.001-6.832 39.552-7.404 2.551-.572 7.383-2.737 7.383-2.737l18.308.601z" class="colorfed0b5 svgShape"></path><path fill="#4c505e" d="M1509.111 589.759c-11.787 3.771-57.519 29.312-80.031 56.402-1.357 1.632-3.338 1.522-59.521 6.691v19.086c12.127.998 26.375 1.177 38.788 1.177 20.769 0 26.865-2.014 28.523-2.881 2.047-1.07 4.829-2.408 8.185-4.017 17.45-8.373 53.198-25.521 77.103-51.493l-13.047-24.965z" class="color4c4c5e svgShape"></path><path fill="#021b79" d="M1527.975 1031.365s-.834 4.213.174 5.571c1.008 1.358 3.219 3.127 8.724 3.521 5.504.393 10.665 0 14.842-1.794 4.177-1.794 9.362-5.308 11.132-6.536 1.769-1.229 13.024-10.001 14.351-10.96 1.327-.958 4.399-2.654 4.865-3.342.467-.688 1.622-4.546.762-5.873-.86-1.327-11.869 4.841-11.869 4.841l-14.646 12.139-14.351 6.094-13.986-3.76" class="color474756 svgShape"></path><path fill="#c5d1dd" d="M1528.254 1029.635c-.074-.512 2.827-3.722 11.601-10 8.778-6.282 5.778-8.089 9.556-11.022 3.778-2.934 3.467-2.934 7.867-.8 0 0 7.867-4.978 10-7.156s8.045-5.067 12.089-1.822c4.045 3.245 3.689 13.879 3.467 14.673-.222.794-.756 2.705-5.911 4.883-5.156 2.178-17.201 14.979-24.446 16.445-7.245 1.467-9.2 2.8-17.956 1.689 0 0-8.144-1.103-6.267-6.89z" class="colorc5d4dd svgShape"></path><path fill="#021b79" d="M1468.205 1009.765s-1.281 4.099-.426 5.558c.856 1.458 2.864 3.455 8.295 4.437 5.43.982 10.603 1.146 14.949-.189s9.878-4.271 11.769-5.303c1.891-1.031 14.023-8.544 15.445-9.354 1.422-.81 4.658-2.166 5.196-2.8.538-.634 2.101-4.346 1.388-5.757-.712-1.412-12.32 3.538-12.32 3.538l-15.865 10.495-14.922 4.517-13.501-5.24" class="color474756 svgShape"></path><path fill="#c5d1dd" d="M1468.669 1008.075c-.019-.517 3.21-3.397 12.608-8.696 9.403-5.302 6.614-7.421 10.685-9.932s3.762-2.544 7.907.05c0 0 8.356-4.104 10.711-6.04 2.355-1.936 8.543-4.173 12.215-.513 3.673 3.66 2.177 14.195 1.87 14.961-.306.766-1.042 2.609-6.402 4.22-5.36 1.611-18.71 13.044-26.071 13.724-7.36.68-9.448 1.795-18.034-.25.001-.001-7.977-1.973-5.489-7.524z" class="colorc5d4dd svgShape"></path><path fill="#2950e2" d="M1491.487 746.826s-8.543 36.917-7.933 59.19c.61 22.273 12.204 83.903 16.476 97.023s-6.35 75.385-9.106 84.308c-5.239 16.963 33.272.219 32.948-5.384 0 0 13.78-51.464 10.682-83.195 0 0-.047-48.816 4.835-65.597 4.882-16.781 8.924-61.631 8.924-61.631l-13.759-24.713c0-.001-39.101 2.135-43.067-.001z" class="colore22951 svgShape"></path><path fill="#3d61ea" d="M1574.892 742.068s18.661 30.572 10.124 62.732c-8.536 32.16-13.698 53.005-8.338 85.959 5.36 32.954 3.857 87.799 1.872 111.422-5.505 8.143-17 11.547-27.083 6.498l-8.139-89.532s-26.403-94.495-24.021-112.56c2.382-18.065-10.323-53.203-9.926-56.181.397-2.978 62.732-3.772 65.511-8.338z" class="colorea3d5b svgShape"></path><path fill="#545866" d="M1603.792 626.179c3.302-.042-2.946 46.295-9.749 56.87-23.305 31.762-7.572 67.798-8.79 98.264-1.219 30.466-92.763 9.548-93.576-23.762s-3.25-137.059 0-152.495c3.25-15.436 12.593-21.935 26.404-21.935s79.618 25.591 85.711 43.058z" class="color545466 svgShape"></path><path fill="#a7ccf2" d="M1520.387 588.024s-.365 13.7 3.653 17.353 9.133 6.028 12.238 6.028 26.121-6.941 26.669-11.69c.548-4.749-3.105-10.594-4.019-14.796-.913-4.201-1.644-17.353-1.644-17.353s-36.958 16.617-36.897 20.458z" class="colorf2c0a7 svgShape"></path><path fill="#b5d9fe" d="M1511.05 594.505c-1.683-3.122-2.138-6.738-2.538-10.262a741.528 741.528 0 0 1-3.128-34.874c-.16-2.432-.301-4.93.434-7.253.861-2.719 2.951-5.023 5.573-6.144 1.839-.786 3.864-.999 5.854-1.203l15.119-1.551c1.945-.2 3.909-.399 5.852-.175 1.646.19 3.242.68 4.808 1.22a74.535 74.535 0 0 1 8.391 3.48c1.819.888 3.632 1.874 5.044 3.325 2.53 2.602 3.448 6.344 4.024 9.928 1.211 7.541 1.288 15.581-2.014 22.468-.636 1.327-1.39 2.593-2.142 3.858-2.648 4.451-5.35 8.969-9.157 12.481-5.408 4.987-12.52 7.458-19.546 9.158-6.423 1.552-12.861 2.431-16.574-4.456z" class="colorfed0b5 svgShape"></path><path fill="#021b79" d="M1498.684 536.628s-2.425 14.237 13.646 16.202 29.067-2.715 29.067-2.715-.942 19.298 2.06 22.051c0 0 8.018-11.581 10.817-6.354 2.799 5.227-1.809 16.201-1.809 16.201s12.496-11.567 13.04-18.117c.544-6.55 2.553-20.604-4.197-27.917 0 0-5.647-24.893-27.293-16.949-21.645 7.942-31.211 19.957-35.331 17.598z" class="color474756 svgShape"></path><path fill="#e7eff7" d="m1349.987 618.46 32.751 147.131-47.562-85.991-32.751-147.131z" class="colore7f1f7 svgShape"></path><path fill="#cfdbe8" d="m1479.688 634.811 32.751 147.132-129.701-16.352-32.751-147.131z" class="colorcfdee8 svgShape"></path><path fill="#b5d9fe" d="m1545.135 752.756 3.576-16.253-21.666-1.892s-11.585-10.433-13.985-10.873c-2.4-.439-9.408-6.234-10.937-7.604-1.53-1.37-3.072-3.988-4.245-2.706s-1.488 5.503.744 7.588c2.233 2.084 7.443 5.172 7.981 5.651.538.478 1.92 2.753 1.15 3.115-.77.362-5.088 2.286-6.658 2.501-1.57.215-30.312-3.83-30.911-3.549-.599.281-3.045 1.744-1.316 3.647 1.729 1.903 24.242 6.472 24.242 6.472l-.207 1.56-25.65-.798s-2.672.315-2.276 3.158c.396 2.843 28.088 3.099 28.088 3.099l.135 1.399s-22.984.875-24.056 1.483c-1.072.608-1.291 4.366 2.387 4.414 3.678.048 24.861-1.547 24.861-1.547l.935 1.545s-17.418 5.165-18.449 5.638c-2.059.943-1.027 4.008 1.014 3.492.903-.228 37.001-6.832 39.552-7.404 2.551-.572 7.383-2.737 7.383-2.737l18.308.601z" class="colorfed0b5 svgShape"></path><path fill="#616573" d="M1605.443 626.823s14.465 93.784 2.336 114.339-73.099 11.965-73.099 11.965 2.316-15.757.427-18.477c-1.889-2.72 46.528-13.152 46.528-13.152s-.353-53.538-7.983-61.441c-7.629-7.904 23.339-45.918 31.791-33.234z" class="color616173 svgShape"></path><path fill="#2950e2" d="M371.656 877.752s15.653-25.392 18.435-41.741c2.783-16.348 34.088-88.699 38.61-87.655s14.609 53.567 6.609 66.437c-8 12.87-37.914 79.856-37.914 79.856l-25.74-16.897z" class="colore22951 svgShape"></path><path fill="#021b79" d="M406.597 1127.283c-1.351.997-2.912 1.849-4.59 1.875-.984.026-2.072-.223-2.898.315-.42.262-.695.682-.971 1.102a362.147 362.147 0 0 1-4.84 7.2c-1.928 2.754-3.961 5.574-6.846 7.305-3.804 2.269-19.887 12.425-34.035 1.784-2.282-1.716-2.007-5.272-2.059-8.132-.026-1.141-.039-2.308.315-3.397.38-1.194 1.18-2.191 1.967-3.174 8.538-10.61 22.145-18.981 31.653-28.752 1.298-1.338 2.636-2.676 3.594-4.276.564-.918.997-1.941 1.797-2.663 1.154-1.062 2.872-1.298 4.446-1.154 2.715.262 5.246 1.469 7.699 2.662 3.922 1.915 2.775 1.563 6.684 3.465 1.128.551 2.282 1.102 3.2 1.954 1.876 1.705 2.61 4.341 2.781 6.873.405 6.495-2.677 13.118-7.897 17.013zm-39.145-28.178c-1.351.997-2.912 1.849-4.59 1.875-.984.026-2.072-.223-2.898.315-.42.262-.695.682-.971 1.101a362.147 362.147 0 0 1-4.84 7.2c-1.928 2.754-3.961 5.574-6.846 7.306-3.804 2.269-19.887 12.425-34.035 1.784-2.282-1.716-2.007-5.272-2.059-8.132-.026-1.141-.039-2.308.315-3.397.38-1.194 1.18-2.19 1.967-3.174 8.538-10.61 22.145-18.981 31.653-28.752 1.298-1.338 2.636-2.676 3.594-4.276.564-.918.997-1.941 1.797-2.662 1.154-1.062 2.872-1.298 4.446-1.154 2.715.262 5.246 1.469 7.699 2.662 3.922 1.915 2.775 1.563 6.684 3.465 1.128.551 2.282 1.102 3.2 1.954 1.876 1.705 2.61 4.341 2.78 6.872.406 6.494-2.676 13.118-7.896 17.013z" class="color474756 svgShape"></path><path fill="#5fa5ec" d="M411.379 878.172c21.773-15.263 42.742-18.054 62.76-6.034 2.503 16.344 1.178 33.072-7.685 50.578-24.736 20.142-50.865 37.189-78.908 49.96l-15.937 109.474c-5.777 2.818-20.128-1.305-25.055-6.508-1.001-43.468.409-85.067 5.504-123.821 15.66-26.549 35.201-51.207 59.321-73.649z" class="coloraf5fec svgShape"></path><path fill="#66abf1" d="M452.897 901.271c21.773-15.263 42.742-18.054 62.76-6.034 2.503 16.344 1.178 33.072-7.685 50.578-24.736 20.142-50.865 37.189-78.908 49.96l-15.937 109.474c-5.777 2.818-20.128-1.305-25.055-6.508-1.001-43.468.409-85.067 5.504-123.821 15.66-26.548 35.201-51.206 59.321-73.649z" class="colorbf66f1 svgShape"></path><path fill="#3d61ea" d="M415.318 903.584s102.156 15.62 108.716 0c6.56-15.62 21.243-100.906 14.058-114.027-7.185-13.121-37.176-45.611-53.108-49.984-15.933-4.374-59.357 5.623-59.669 11.559-.312 5.936 8.435 67.167 10.309 82.787 1.875 15.62-20.93 66.229-20.306 69.665z" class="colorea3d5b svgShape"></path><path fill="#75a3d1" d="m340.55 829.554 56.388 50.92 23.941 45.498-56.388-50.92z" class="color75d178 svgShape"></path><path fill="#cfdbe8" d="m344.6 832.254 56.388 50.92 23.941 45.498-56.387-50.919z" class="colorcfdee8 svgShape"></path><path fill="#e7eff7" d="m345.427 831.887 56.388 50.919 23.941 45.499-56.387-50.92z" class="colore7f1f7 svgShape"></path><path fill="#cfdbe8" d="m346.254 831.519 56.388 50.92 23.941 45.498-56.387-50.92z" class="colorcfdee8 svgShape"></path><path fill="#e7eff7" d="m347.081 831.152 56.388 50.919 23.941 45.498-56.387-50.919z" class="colore7f1f7 svgShape"></path><path fill="#cfdbe8" d="m347.908 830.784 56.388 50.919 23.941 45.499-56.387-50.92z" class="colorcfdee8 svgShape"></path><path fill="#e7eff7" d="m348.736 830.416 56.387 50.92 23.942 45.498-56.388-50.919z" class="colore7f1f7 svgShape"></path><path fill="#7caddf" d="m418.886 876.656 56.388 50.919-55.536.086-56.387-50.919z" class="color7cdf82 svgShape"></path><path fill="#75a3d1" d="m419.211 874.969 56.388 50.92-.325 1.686-56.388-50.919z" class="color75d178 svgShape"></path><path fill="#acd2f9" d="m419.211 874.969-.325 1.687-55.535.086-24.298-46.178 1.497-1.01 23.941 45.498z" class="coloracf9ac svgShape"></path><path fill="#c5e2ff" d="M391.064 902.078c-1.707.831-3.784.462-5.484-.385-2.71-1.351-5.366-3.477-7.826-5.243-1.839-1.32-4.343-3.202-3.534-5.753 2.086-6.572 8.658.327 10.899 2.778a38.28 38.28 0 0 1 5.945 8.603z" class="colorffdcc5 svgShape"></path><path fill="#b5d9fe" d="M462.306 908.767c-2.1-1.303-4.676-2.117-7.052-1.441.246 2.701 3.469 4.36 3.812 7.05-4.858-.245-9.936-.449-14.356 1.582-.417.192-.855.431-1.048.848-.306.658.125 1.407.55 1.995a51.946 51.946 0 0 0 9.293 9.824c1.112.904 2.274 1.769 3.586 2.346 3.767 1.657 8.111.721 12.112-.242l4.949-1.19c2.322-.558 4.228-1.439 4.525-4.047.227-1.989-.335-4.431-1.382-6.154-1.619-2.666-5.177-3.438-7.683-5.012-2.601-1.633-4.696-3.941-7.306-5.559z" class="colorfed0b5 svgShape"></path><path fill="#5477fd" d="M509.091 845.012c-1.962-7.599-3.599-15.388-3.261-23.229.338-7.841 2.827-15.822 8.201-21.541 2.785-2.964 6.237-5.223 9.81-7.164 3.962-2.151 8.243-3.974 12.748-4.129.559-.019 1.177.01 1.584.393.344.324.448.821.535 1.285 3.757 20.154 5.953 40.561 8.143 60.945 1.103 10.268 2.204 20.674.646 30.883-.143.936-.318 1.895-.821 2.696-.485.772-1.234 1.334-1.966 1.878l-15.545 11.542c-17.362 12.891-35.667 21.308-55.014 30.968-.855-5.938-2.103-7.153-5.235-12.269-.691-1.129-1.466-2.389-1.183-3.683.228-1.044 1.096-1.814 1.96-2.443 3.655-2.659 8.017-4.119 12.156-5.934 9.237-4.049 17.591-10.07 24.421-17.485 3.2-3.474 6.6-7.415 8.833-11.604 2.027-3.805 1.176-7.129-.08-11.08-2.111-6.64-4.188-13.278-5.932-20.029z" class="colorfd546b svgShape"></path><path fill="#a7ccf2" d="M493.337 742.862c3.259 2.341 6.92 4.798 7.99 8.665 1.106 3.999-.962 8.155-3.293 11.587-7.967 11.731-19.942 20.687-33.447 25.014.642-5.86-1.296-11.771-4.326-16.827-3.03-5.057-7.109-9.389-11.154-13.677.685.726 11.401-5.302 12.603-5.938a150.148 150.148 0 0 0 12.446-7.376c3.116-2.056 7.077-6.439 10.701-7.343 3.325-.831 5.998 4.111 8.48 5.895z" class="colorf2c0a7 svgShape"></path><path fill="#b5d9fe" d="M421.695 714.881c-1.328-4.098-2.628-8.394-2.029-12.652.896-6.339 5.962-11.446 11.733-14.187 5.793-2.731 12.279-3.469 18.622-4.178 4.763-.534 9.59-1.06 14.38-1.133 2.607 5.452 6.225 10.224 10.878 14.3l9.472 6.305a45.555 45.555 0 0 0 7.558 2.907l-.001.034c-.201 4.802-.501 9.601-.836 14.396-.246 3.528-.501 3.07-.523 1.67.032-1.115.1-2.32.341-3.138-.265.882-.355 2.21-.341 3.138-.025.875-.031 1.688-.089 2.202-.575 5.087-1.156 10.219-1.512 15.359-2.553 4.156-5.823 7.928-9.482 11.147-7.614 6.722-16.797 11.37-25.952 15.765-2.843 1.356-6.059 2.725-9.036 1.675-3.147-1.106-4.799-4.491-6.089-7.583a598.869 598.869 0 0 1-17.094-46.027z" class="colorfed0b5 svgShape"></path><path fill="#021b79" d="M495.356 720.617c2.631-13.974-1.456-28.787-9.732-40.35a61.496 61.496 0 0 0-6.945-8.11c-3.731-3.659-8.026-6.891-12.985-8.54-5.591-1.859-11.689-1.596-17.476-.488-14.213 2.72-27.769 10.958-34.758 23.63-1.771 3.211-3.133 6.903-2.403 10.497 1.111 5.471 6.906 8.992 12.481 9.276 5.575.284 10.948-1.938 16.008-4.294 5.061-2.356 10.185-4.932 15.745-5.432 2.337-.21 5.029.123 6.415 2.017.873 1.193 1.028 2.748 1.153 4.221l2.383 28.023c2.465-.555 4.147-2.837 5.21-5.129s1.769-4.803 3.365-6.761c1.597-1.958 4.505-3.193 6.686-1.919 1.577.922 2.289 2.879 2.293 4.705.005 1.827-.565 3.598-.973 5.378-.632 2.754-1.179 22.279 4.416 15.972 2.429-2.738 4.009-7.528 5.426-10.877 1.612-3.808 2.925-7.751 3.691-11.819z" class="color474756 svgShape"></path></svg>