<svg xmlns="http://www.w3.org/2000/svg" enable-background="new 0 0 390 390" viewBox="0 0 390 390" id="EmailMarketing"><path fill="#b8c3ce" d="M343.127 25.065H364.5c12.274 0 21.867 10.028 21.437 22.408l-11.213 262.61c-.43 12.38-10.718 22.408-22.992 22.408h-21.374l12.768-307.426z" class="colorb8bfce svgShape"></path><path fill="#d4dce4" d="m212.716 47.473-11.214 262.61c-.43 12.38 9.164 22.409 21.438 22.409H347.9c12.274 0 22.563-10.028 22.993-22.409l11.213-262.61c.43-12.38-9.164-22.408-21.438-22.408h-124.96c-12.274 0-22.563 10.028-22.992 22.408z" class="colord4dbe4 svgShape"></path><path fill="#ffffff" d="m374.715 47.124-11.518 231.257c-.286 8.23-7.161 14.932-15.32 14.932h-124.96c-3.792 0-7.29-1.47-9.837-4.133-2.566-2.681-3.904-6.265-3.766-10.1l11.518-231.257c.286-8.23 7.162-14.932 15.32-14.932h124.96c3.793 0 7.29 1.47 9.837 4.133 2.566 2.672 3.904 6.265 3.766 10.1z" class="colorffffff svgShape"></path><ellipse cx="280.605" cy="311.858" fill="#b8c3ce" rx="9.322" ry="8.45" transform="rotate(-46.125 280.605 311.858)" class="colorb8bfce svgShape"></ellipse><path fill="#9dceff" d="m259.164 311.925-1.616 17.57c-.229 3.725-15.44 2.775-15.211-.95l.032-16.62h16.795z" class="colorffa49d svgShape"></path><path fill="#2552fa" d="M235.398 333.277c-.359-.445-3.485-4.409-2.854-6.33.113-.347.397-.798 1.105-.98.564-.146 1.077-.035 1.486.321 1.567 1.367 1.11 6.205 1.053 6.753a.449.449 0 0 1-.444.403.444.444 0 0 1-.346-.167zm-1.528-6.438c-.34.088-.434.254-.478.39-.296.9.877 2.976 1.99 4.541.073-1.85-.086-4.15-.831-4.8a.628.628 0 0 0-.431-.166c-.077 0-.16.012-.25.035z" class="colorfabe25 svgShape"></path><path fill="#586183" d="m259.212 331.166-.261 13.88h-49.545a8.131 8.131 0 0 1 4.914-5.37l3.87-1.528 19.384-7.706 4.76-1.892c4.533 1.43 10.977 2.695 15.217.94.918 0 1.661.75 1.661 1.676z" class="color585d83 svgShape"></path><path fill="#2552fa" d="M258.951 345.047v3.35c0 1.045-.84 1.903-1.886 1.903h-45.91c-1.153 0-2.091-.956-2.091-2.119v-.828c0-.217.01-.424.03-.63.009-.188.029-.365.058-.543.03-.197.068-.384.107-.572l.147-.561h49.545z" class="colorfabe25 svgShape"></path><path fill="#434b69" d="m236.256 336.137-13.35 4.876a3.229 3.229 0 0 1-3.92-1.46l-.8-1.403 19.39-7.711.563 1.332a3.288 3.288 0 0 1-1.883 4.366z" class="color434c69 svgShape"></path><path fill="#2552fa" d="M222.942 339.116a.447.447 0 0 1-.411-.275l-1.149-2.73a.452.452 0 0 1 .237-.59c.226-.097.49.01.586.239l1.148 2.73a.452.452 0 0 1-.411.626zM226.402 337.879a.447.447 0 0 1-.411-.275l-1.149-2.73a.452.452 0 0 1 .237-.59.446.446 0 0 1 .586.238l1.148 2.73a.452.452 0 0 1-.411.627zM229.862 336.641a.447.447 0 0 1-.411-.274l-1.149-2.73a.452.452 0 0 1 .237-.59c.227-.098.49.008.586.238l1.148 2.73a.452.452 0 0 1-.411.626zM233.322 335.404a.447.447 0 0 1-.412-.275l-1.148-2.73a.451.451 0 0 1 .237-.59.445.445 0 0 1 .586.238l1.148 2.73a.452.452 0 0 1-.411.627z" class="colorfabe25 svgShape"></path><path fill="#2552fa" d="M235.618 332.976c-.53-.113-5.207-1.159-5.974-2.96-.189-.443-.15-.907.115-1.341.264-.434.652-.674 1.123-.695 1.93-.102 4.857 3.839 5.187 4.287.11.15.117.354.017.511a.445.445 0 0 1-.468.198zm-4.697-4.096c-.121.005-.264.041-.4.266-.113.184-.13.342-.057.515.35.822 2.351 1.625 4.078 2.117-1.166-1.388-2.717-2.899-3.589-2.899h-.032z" class="colorfabe25 svgShape"></path><path fill="#586183" d="M235.012 237.787c.176-16.001 15.863-61.199 23.93-79.755h30.754l12.18 5.71-15.483 29.931-18.915 50.02-4.49 73.945c0 .704-3.115 1.164-7.095 1.36-7.009.343-20.495-.107-20.495-1.36.084 1.034-.72-49.424-.386-79.851z" class="color585d83 svgShape"></path><path fill="#021b79" d="m275.802 221.687 10.593-28.013-6.662-21.667z" class="color30323e svgShape"></path><path fill="#586183" d="m320.504 154.291-1.596 139.022h-26.672l-13.945-135.28z" class="color585d83 svgShape"></path><path fill="#021b79" d="M258.893 14.137s-4.769 15.123 8.147 15.358-.76-16.951-.76-16.951" class="color30323e svgShape"></path><path fill="#3f65f4" d="M205.864 92.218c4.872 3.457 24.809 20.67 37.805 25.355 1.56.562 2.984.916 4.243 1.02 4.966.427 13.049-4.519 19.346-9.09 5.233-3.8 9.239-7.34 9.239-7.34l-5.554-27.553c-5.41 1.77-12.532 6.612-24.662 20.534l-31.743-19.586-8.674 16.66z" class="colorf43f62 svgShape"></path><path fill="#1734a1" d="M248.108 111.346c-1.31 2.187-2.715 4.374-4.439 6.227 1.56.562 2.984.916 4.243 1.02 4.966.427 13.049-4.519 19.346-9.09-1.301-4.29-3.428-8.372-4.935-12.558-.516-1.447-1.135-7.278-3.727-6.29-1.187.449-1.713 3.219-2.178 4.301a121.516 121.516 0 0 1-2.322 5.165 135.685 135.685 0 0 1-5.988 11.225z" class="colora1172f svgShape"></path><path fill="#3f65f4" d="M321.404 164.975c.019.967.038 1.76.048 2.39-.346 4.876-10.926 7.382-23.511 7.856-12.192.475-26.255-.977-34.677-4.005-.384-.146-.758-.29-1.122-.436a22.267 22.267 0 0 1-1.17-.503c-3.387-1.548-5.401-3.454-5.238-5.67.662-3.754 1.592-10.053 2.436-15.926 1.065-7.45 1.967-14.214 1.967-14.214s-5.228-49.366 1.611-54.784c3.454-2.73 8.211-5.186 14.744-7.393 3.597-1.2 23.32.203 23.32.203s14.714-.106 19.913 5.351c1.209 1.258 1.765 9.734 1.986 21.074.038 1.664.057 3.387.076 5.147l.03 3.668c.114 20.754-.5 46.405-.413 56.642.01.203.01.406 0 .6z" class="colorf43f62 svgShape"></path><path fill="#1734a1" d="M321.404 164.975c.019.967.038 1.76.048 2.39-.346 4.876-10.926 7.382-23.511 7.856l2.753-19.177 19.808-23.116s-9.564-17.097-11.78-26.124c-2.215-9.037 0-15.288 0-15.288l13.065 12.55.03 3.667c.114 20.754-.5 46.405-.413 56.642.01.203.01.406 0 .6z" class="colora1172f svgShape"></path><path fill="#9dceff" d="M278.365 71.972c-.185 3.724 3.238 2.618 8.23 3.004 5.163.398 12.45-.017 13.22-2.485l-4.797-23.734-.01.01c-.244.323-7.256 9.724-14.918 11.513.184 1.388.191 2.78.099 4.092-.363 4.866-1.824 7.6-1.824 7.6z" class="colorffa49d svgShape"></path><path fill="#82bcf6" d="M280.189 64.372c.437-.271 13.596-8.543 14.83-15.615l-.012.01c-.243.323-7.255 9.724-14.917 11.513.184 1.388.191 2.78.099 4.092z" class="colorf68b82 svgShape"></path><path fill="#9dceff" d="M273.604 61.252c1.963.725 3.96.75 5.933.28 7.668-1.788 14.707-10.816 15.626-12.006a.98.98 0 0 0 .098-.127c5.936-2.262 10.967-11.24 7.23-14.336-5.145-4.241-8.655 1.49-8.655 1.49s-4.09-1.248-3.99-6.816c.1-5.557 2.238-8.038-4.755-8.166-4.91-.09-12.838 2.427-17.946 2.043-.047.236-.105.472-.152.719-.315 1.502-.558 3.157-.75 4.91-1.3 12.32.573 29.429 7.361 32.009z" class="colorffa49d svgShape"></path><path fill="#9dceff" d="M267.145 23.614c5.108.384 13.035-2.132 17.946-2.043 6.993.128 4.855 2.61 4.756 8.166-.1 5.568 3.99 6.816 3.99 6.816s.87-9.27-1.251-14.856c-2.478-6.551-15.522-8.115-21.875-5.17-1.508.704-2.73 3.364-3.566 7.087z" class="colorffa49d svgShape"></path><path fill="#1734a1" d="m272.796 50.25-.007.135a4.532 4.532 0 0 0 2.149 3.93c.625.374 1.34.607 2.105.643 1.893.09 3.573-1.032 4.293-2.68a4.33 4.33 0 0 0 .37-1.5l.006-.104c.004-.094-.023-.179-.02-.262-3.229-.541-6.255-.79-8.853-.422-.014.083-.039.165-.043.26z" class="colora1172f svgShape"></path><path fill="#ffffff" d="m272.796 50.25-.007.135c3.191 1.182 6.048 1.06 8.918.394l.005-.105c.004-.094-.023-.179-.02-.262-3.229-.541-6.255-.79-8.853-.422-.014.083-.039.165-.043.26z" class="colorffffff svgShape"></path><path fill="#3f65f4" d="M274.938 54.314c.625.375 1.34.608 2.105.644 1.893.09 3.573-1.032 4.293-2.68a4.368 4.368 0 0 0-4.262-.204 4.485 4.485 0 0 0-2.136 2.24z" class="colorf43f62 svgShape"></path><path fill="#82bcf6" d="M274.103 45.506c-.482 0-.952-.22-1.334-.627a2.589 2.589 0 0 1-.67-2.05c.072-.562.306-1.041.533-1.506.072-.148.144-.296.21-.446.89-2.019.66-4.53.475-6.547a.376.376 0 0 1 .747-.069c.192 2.104.431 4.722-.535 6.918-.07.159-.147.316-.223.473-.209.428-.406.833-.462 1.272-.065.51.115 1.062.472 1.442.252.269.553.409.84.388a.375.375 0 0 1 .048.749 1.548 1.548 0 0 1-.101.003z" class="colorf68b82 svgShape"></path><ellipse cx="269.483" cy="36.85" fill="#1d1d1e" rx="2.124" ry="1.212" transform="rotate(-87.34 269.483 36.85)" class="color1e1d1e svgShape"></ellipse><ellipse cx="280.167" cy="37.026" fill="#1d1d1e" rx="2.124" ry="1.212" transform="rotate(-87.34 280.167 37.026)" class="color1e1d1e svgShape"></ellipse><path fill="#1d1d1e" d="M271.4 33.424a.375.375 0 0 1-.31-.162c-.006-.009-.644-.914-1.568-1.017-.53-.06-1.083.165-1.63.666a.375.375 0 1 1-.506-.552c.715-.656 1.465-.944 2.226-.858 1.265.144 2.063 1.288 2.096 1.336a.374.374 0 0 1-.308.587zM282.572 33.526a.375.375 0 0 1-.31-.162c-.006-.01-.644-.915-1.568-1.017-.533-.06-1.082.164-1.63.666a.375.375 0 0 1-.507-.553c.716-.656 1.465-.944 2.227-.858 1.265.144 2.063 1.288 2.096 1.337a.374.374 0 0 1-.308.587z" class="color1e1d1e svgShape"></path><path fill="#1734a1" d="m279.69 68.809-3.196 3.488 1.25 10.01 8.852-7.331zM299.325 68.873l2.856 3.777-8.862 11.991-6.723-9.665z" class="colora1172f svgShape"></path><path fill="#021b79" d="M262.618 21.161c-1.14 4.215 5.619 5.69 7.773 5.848 5.109.383 9.79-5.527 14.7-5.438 6.993.128 4.855 2.61 4.756 8.166-.1 5.568 3.99 6.816 3.99 6.816s3.509-5.731 8.655-1.49c3.736 3.095-1.295 12.074-7.23 14.336a.98.98 0 0 1-.099.127l1.61 7.915.01-.011c.542-.443 20.586-17.054 14.515-26.31 1.61-9.936-1.725-27.681-18.955-24.674-4.53.79-9.998 1.523-17.454-.767-7.467-2.29-10.952 1.502-14.93 5.383-3.99 3.88 2.659 10.1 2.659 10.1z" class="color30323e svgShape"></path><path fill="#3f65f4" d="M353.09 131.795c.736 18.661-40.107 38.747-40.107 38.747l-6.93-16.748 21.041-21.872s-17.246-17.191-18.422-33.607c-1.302-18.25 8.497-22.268 8.497-22.268 4.453-.095 35.2 37.134 35.92 55.748z" class="colorf43f62 svgShape"></path><path fill="#9dceff" d="M312.34 168.992s-14.314 12.415-16.337 9.71c-1.912-2.546.69-4.159 1.004-4.333-.408.111-5.3 1.503-6.303-.016-.925-1.407.674-2.435 1.035-2.657-.424.11-2.337.538-3.387-1.154-1.113-1.819 1.646-3.274 1.928-3.416-.392.047-3.684.506-3.684-1.866 0-2.5 11.289-5.725 11.289-5.725s-8.294-1.645-5.613-4.096c2.68-2.436 15.224.79 15.224.79l4.844 12.763z" class="colorffa49d svgShape"></path><path fill="#0575e6" d="m209.27 53.458-5.802 13.472-39.89 3.848 20.001-46.44z" class="color3b6aeb svgShape"></path><path fill="#021b79" d="M169.144 45.85c-5.523 12.821-8.015 23.984-5.567 24.927 2.008.774 6.708-5.548 11.378-14.91a130.004 130.004 0 0 0 3.06-6.6 129.181 129.181 0 0 0 2.687-6.743c3.575-9.783 4.884-17.412 2.876-18.186-2.448-.943-8.912 8.689-14.434 21.511zM215.89 63.863c-.927 2.15-2.426 3.604-.37 4.397 2.057.792 4.475-.308 5.401-2.458.926-2.15.01-4.536-2.047-5.328-2.057-.793-2.059 1.239-2.985 3.389z" class="color30323e svgShape"></path><path fill="#2552fa" d="m209.27 53.457-5.803 13.474 9.481 3.654c.745.287 1.618-.11 1.952-.885l4.592-10.662c.334-.775.005-1.64-.74-1.928l-9.481-3.653z" class="colorfabe25 svgShape"></path><path fill="#021b79" d="M191.073 90.473c-.263.521-.055 1.133.458 1.331l4.192 1.616c.463.178 1.01-.05 1.251-.52l12.489-23.658-5.965-2.299-12.425 23.53z" class="color30323e svgShape"></path><path fill="#2552fa" d="M172.539 47.157c-1.43 3.32-.343 6.959 2.416 8.71a130.004 130.004 0 0 0 3.06-6.6 129.181 129.181 0 0 0 2.687-6.743c-3.268-.57-6.734 1.315-8.163 4.633z" class="colorfabe25 svgShape"></path><path fill="#9dceff" d="m213.882 76.817-7.37 14.156-7.653-1.643 6.612-12.52-2.018-2.76-2.725.868c-1.169.378-2.382-.116-2.914-1.18a2.465 2.465 0 0 1-.264-1.129c.002-.932.5-1.871 1.376-2.397l3.675-2.22c1.077-.652 2.402-.51 3.21.357l8.071 8.468z" class="colorffa49d svgShape"></path><path fill="#9dceff" d="m194.635 78.19.014.012.008.002c.306.211 6.402 4.285 7.269.657.726-3.013-5.836-3.798-5.836-3.798-1.446-.422-2.987 2.185-1.455 3.126z" class="colorffa49d svgShape"></path><path fill="#9dceff" d="m193.608 81.882.051.03.767.372.029.01s6.34 1.53 7.052-.526c.711-2.056-5.573-3.65-5.573-3.65s-2.752-.823-3.41 1.202c-.37 1.134.21 2.066 1.084 2.562z" class="colorffa49d svgShape"></path><path fill="#9dceff" d="m192.9 84.291.014.013.008.002c.305.211 6.401 4.285 7.268.657.727-3.013-5.835-3.798-5.835-3.798-1.446-.422-2.988 2.185-1.455 3.126z" class="colorffa49d svgShape"></path><path fill="#9dceff" d="m192.053 87.268.014.013.008.002c.306.21 6.402 4.285 7.269.656.726-3.013-5.836-3.798-5.836-3.798-1.446-.421-2.987 2.185-1.455 3.127z" class="colorffa49d svgShape"></path><path fill="#82bcf6" d="M194.657 78.204c1.21.608 2.432 1.19 3.692 1.552 1.214.366 2.723.454 3.095-.674.243-.529.212-1.094-.136-1.554-.328-.476-.881-.833-1.45-1.139-1.16-.596-2.46-.985-3.768-1.326 1.36.036 2.717.28 4.014.804.649.256 1.286.631 1.776 1.24.238.309.4.691.45 1.103.024.402-.036.81-.196 1.163-.036.09-.068.182-.11.27l-.186.247c-.118.17-.255.32-.442.422-.17.127-.348.224-.545.266a1.638 1.638 0 0 1-.572.11c-.76.04-1.466-.125-2.11-.387-1.298-.503-2.466-1.228-3.512-2.097z" class="colorf68b82 svgShape"></path><path fill="#82bcf6" d="M199.364 82.818c.695-.345 1.415-.58 1.697-.997a.811.811 0 0 0 .129-.712c-.078-.283-.259-.61-.459-.95.377.115.747.315.989.703.27.38.248.995-.046 1.39-.301.406-.737.589-1.133.654a2.497 2.497 0 0 1-1.177-.088z" class="colorf68b82 svgShape"></path><path fill="#82bcf6" d="M198.937 86.374c.767-.347 1.047-1.16 1.005-1.846-.013-.685-.58-1.203-1.198-1.599-.63-.406-1.364-.7-2.103-.98a78.425 78.425 0 0 0-2.286-.784 9.249 9.249 0 0 1 2.45.222c.808.177 1.605.454 2.343.911.364.23.71.525.985.9.144.177.22.42.324.627.032.236.108.477.068.707-.046.473-.19.89-.476 1.245-.287.346-.7.573-1.112.597z" class="colorf68b82 svgShape"></path><path fill="#82bcf6" d="M192.075 87.283c1.21.608 2.431 1.19 3.692 1.55 1.214.368 2.723.456 3.094-.672.244-.53.213-1.095-.135-1.554-.328-.476-.881-.833-1.45-1.14-1.16-.596-2.46-.984-3.768-1.325 1.36.035 2.717.28 4.014.804.649.256 1.286.631 1.776 1.239.238.31.4.692.45 1.103a2.48 2.48 0 0 1-.196 1.164c-.037.09-.068.182-.11.27l-.186.246c-.118.171-.255.32-.442.423-.17.126-.348.224-.545.265a1.628 1.628 0 0 1-.572.11c-.76.042-1.466-.124-2.11-.386-1.298-.503-2.466-1.229-3.512-2.097z" class="colorf68b82 svgShape"></path><path fill="#2f3c6e" d="M90.263 100.13c-.82 2.47-2.64 4.22-4.09 6.24s-2.59 4.84-1.73 7.29c.91 2.55-57.883 23.744-70.57 11.17-11.264-11.161 6.34-56.91 8.76-62.82 1.89-4.62 16.51-25.39 21.08-27.46 3.73-1.69.13 6.45 4 4.85 2.1-.87 3.98-2.35 5.95-3.57 3.78-2.34 7.98-3.76 12.23-3.93 9.37-.37 21.89 6.42 23.67 18.55.63 4.35.2 8.48-.97 12.65-1.61 5.72-3.92 11.62-2.88 17.53.6 3.39 2.26 6.35 3.51 9.47 1.26 3.13 2.12 6.81 1.04 10.03z" class="color6e302f svgShape"></path><path fill="#021b79" d="M101.454 364.39c1.35 3.66 11.286 4.362 16.916 16.693.813 1.794 2.514 3.023 4.465 3.282 5.398.712 15.566 1.571 17.036-1.83 2.024-4.668-10.594-8.985-10.594-8.985s-3.808 5.527-8.411 3.568c-4.613-1.96-17.157-23.304-17.157-23.304s-4.104 5.565-2.255 10.575z" class="color30323e svgShape"></path><path fill="#021b79" d="M101.167 363.415s4.922 16.612 4.662 21.6h3.341l-2.246-18.517-5.757-3.083z" class="color30323e svgShape"></path><path fill="#9dceff" d="M129.284 373.553s-3.811 5.523-8.412 3.567c-4.622-1.967-17.156-23.312-17.156-23.312l-30.857-82.416-8.979-23.98 38.991-2 3.267 22.035c4.678 31.446 12.812 85.838 13.634 89.56 1.011 4.656 9.512 16.546 9.512 16.546z" class="colorffa49d svgShape"></path><path fill="#021b79" d="M19.99 357.108c.544 3.864 10.107 6.654 12.999 19.897.415 1.925 1.817 3.487 3.668 4.153 5.126 1.838 14.881 4.831 17.038 1.818 2.967-4.134-8.451-11.024-8.451-11.024s-4.893 4.596-8.977 1.706c-4.093-2.891-11.834-26.407-11.834-26.407s-5.189 4.57-4.443 9.857z" class="color30323e svgShape"></path><path fill="#021b79" d="M19.917 356.096s1.293 17.277-.017 22.097l3.265.707 1.725-18.573-4.973-4.231z" class="color30323e svgShape"></path><path fill="#9dceff" d="M39.453 353.777c.007 4.765 5.793 18.18 5.793 18.18s-4.891 4.592-8.976 1.705c-4.093-2.899-11.834-26.413-11.834-26.413M79.826 115.573l-8.642 11.686s-11.749 2.856-12.157 2.438c-.418-.408-18.434-9.761-18.434-9.761l2.5-13.706s3.19-4.135 3.84-5.733c2.236-5.494 4.31-23.33 4.31-23.33l.011.01c.262.324 8.045 9.845 16.185 11.383a21.541 21.541 0 0 0 .073 4.28c.272 2.322 1.341 8.058 2.218 9.52.8 1.332 4.237 4.55 4.237 4.55l5.86 8.663z" class="colorffa49d svgShape"></path><path fill="#9dceff" d="M80.332 110.298s8.668 4.74 11.782 9.344c7.77 11.486 10.71 32.063 10.71 32.063l34.52-12.294 6.942 19.15s-36.516 22.977-52.188 17.61c-22.405-7.672-11.766-65.873-11.766-65.873zM65.347 248.724l-5.245 23.601-20.645 81.45-15.023-6.524 4.244-73.87 1.823-31.557.01-.278.812.189z" class="colorffa49d svgShape"></path><path fill="#82bcf6" d="m65.347 248.724-5.245 23.601c-10.733 3.078-23.6 2.585-31.424 1.056l1.823-31.557.822-.09 34.024 6.99z" class="colorf68b82 svgShape"></path><path fill="#82bcf6" d="M106.138 267.447c-8.263 2.463-20.44 4.028-33.28 3.945l-8.978-23.98 38.991-2 3.267 22.035z" class="colorf68b82 svgShape"></path><path fill="#3584d3" d="m73.968 106.912 6.364 3.386 10.293 26.679s.812 9.073-1.625 15.98l1.755 29.929c-.097 2.528-53.849.466-53.752-2.063l-1.767-21.501-1.016-19.772s10.36-19.366 1.151-31.554l7.72-1.76s11.24 12.713 24.105 10.682c12.866-2.031 6.772-10.006 6.772-10.006z" class="color35d399 svgShape"></path><path fill="#4b5373" d="M107.756 258.353c-.179 1.47-2.194 2.746-5.51 3.819-.373.113-.771.235-1.177.35-3.007.844-6.874 1.543-11.287 2.087-.438.049-.885.098-1.34.155-3.608.398-7.549.698-11.66.893-.43.017-.862.041-1.292.057-3.86.155-7.85.212-11.831.18-.455-.01-.902-.017-1.349-.025-3.99-.057-7.963-.22-11.782-.488l-1.235-.097c-4.07-.31-7.955-.748-11.481-1.309a49.485 49.485 0 0 1-1.243-.21c-4.38-.757-8.158-1.715-11.002-2.902-.334-.146-.659-.284-.967-.438-2.999-1.414-4.697-3.12-4.6-5.136 0 0 3.56-31.348 7.013-44.121 3.453-12.773 8.63-20.216 8.63-20.216l1.356-10.125 53.759 2.397 1.348 7.596c5.574 7.939 10.555 42.774 15.65 67.533z" class="color4b5173 svgShape"></path><path fill="#021b79" d="M92.09 190.676c-.002-.74-43.922 2.021-56.448-1.154L37 180.827l53.759 2.056 1.331 7.793z" class="color30323e svgShape"></path><path fill="#9dceff" d="M35.371 107.996s-11.794 3.109-18.62 13.474c-5.485 8.33-13.042 33.273-12.692 45.254.373 12.706 13.42 48.074 13.42 48.074l12.847-4.007-6.601-42.817 10.334-23.993c6.98-11.921 8.008-26.849 1.312-35.985z" class="colorffa49d svgShape"></path><path fill="#82bcf6" d="M68.438 98.495c-.516-.29-16.052-9.124-17.798-17.143l.013.012c.295.357 8.804 10.766 17.71 12.453-.147 1.594-.092 3.183.075 4.678z" class="colorf68b82 svgShape"></path><path fill="#9dceff" d="M75.864 94.617c-2.218.935-4.516 1.045-6.804.607-9.39-1.77-18.352-12.742-18.66-13.12l-.01-.01c-6.944-2.298-13.14-12.315-8.983-16.035 5.73-5.073 10.703.517 10.703.517l2.467-14.235s15.13-11.986 22.58-8.922c2.576 1.075 4.635 6.914 5.72 14.314.08.527.149 1.074.219 1.621 1.74 13.857.199 32.12-7.232 35.263z" class="colorffa49d svgShape"></path><path fill="#2f3c6e" d="M64.256 56.6c-7.063 0-4.616 11.02-6.187 12.602-1.582 1.572-5.959-2.626-5.959-2.626s-4.973-5.59-10.703-.517c-4.158 3.72 2.04 13.737 8.982 16.035l.01.01s-14.071-.055-17.314-15.532C23.037 18.61 90.38 22.756 85.757 47.607c-.905 4.866-16.886 8.992-21.501 8.992z" class="color6e302f svgShape"></path><path fill="#1734a1" d="m76.304 82.025.013.155a5.17 5.17 0 0 1-2.293 4.586 5.151 5.151 0 0 1-7.463-2.03 4.914 4.914 0 0 1-.496-1.693l-.01-.119c-.01-.107.017-.205.01-.3 3.694-.768 7.167-1.192 10.177-.893.02.094.052.187.062.294z" class="colora1172f svgShape"></path><path fill="#ffffff" d="m76.304 82.025.013.155c-3.62 1.498-6.917 1.491-10.252.863l-.01-.119c-.01-.107.017-.205.01-.3 3.694-.768 7.167-1.192 10.177-.893.02.094.052.187.062.294z" class="colorffffff svgShape"></path><path fill="#3f65f4" d="M74.024 86.766a5.151 5.151 0 0 1-7.463-2.03 5.073 5.073 0 0 1 4.899-.428 5.144 5.144 0 0 1 2.564 2.458z" class="colorf43f62 svgShape"></path><path fill="#82bcf6" d="M74.506 76.618h-.04a.376.376 0 0 1-.367-.384.385.385 0 0 1 .384-.366c.358.013.71-.173 1.002-.51a2.127 2.127 0 0 0 .484-1.704c-.087-.507-.335-.963-.597-1.447a16.2 16.2 0 0 1-.277-.527c-1.21-2.453-1.055-5.445-.93-7.85.01-.206.2-.36.394-.354.207.01.366.187.355.394-.12 2.317-.27 5.2.853 7.478.083.169.174.335.264.501.28.516.57 1.05.677 1.68a2.855 2.855 0 0 1-.656 2.32c-.43.497-.977.769-1.546.769z" class="colorf68b82 svgShape"></path><ellipse cx="79.503" cy="66.572" fill="#1d1d1e" rx="1.397" ry="2.427" transform="rotate(-5.012 79.503 66.572)" class="color1e1d1e svgShape"></ellipse><ellipse cx="67.205" cy="67.268" fill="#1d1d1e" rx="1.397" ry="2.427" transform="rotate(-5.012 67.205 67.268)" class="color1e1d1e svgShape"></ellipse><path fill="#1d1d1e" d="M77.12 62.696a.375.375 0 0 1-.316-.575c.036-.057.888-1.377 2.311-1.598.858-.133 1.718.157 2.56.863a.375.375 0 1 1-.483.575c-.666-.56-1.324-.793-1.957-.698-1.085.166-1.79 1.249-1.798 1.26a.376.376 0 0 1-.317.173zM64.258 63.33a.375.375 0 0 1-.316-.576c.035-.056.887-1.376 2.31-1.597.856-.131 1.719.158 2.56.863a.375.375 0 1 1-.483.575c-.668-.561-1.33-.793-1.962-.697-1.09.17-1.785 1.247-1.792 1.258a.375.375 0 0 1-.317.174z" class="color1e1d1e svgShape"></path><path fill="#9dceff" d="M35.48 237.012c-1.747.683-3.006-1.001-3.848-2.586.808 1.836.463 4.618-1.413 4.413-1.52-.168-1.628-2.094-2.308-3.43.213 1.182.23 3.312-.895 3.681-2.418.787-3.715-5.892-3.908-6.418.15.508.628 6.248-2.324 4.605-3.097-1.721-3.305-22.479-3.305-22.479l12.847-4.007s11.422 14.431 9.005 17.883c-1.503 2.143-6.369-4.379-6.369-4.379s4.56 11.915 2.517 12.717z" class="colorffa49d svgShape"></path><path fill="#2552fa" d="m196 117.353-10.694 32.641a2.218 2.218 0 0 1-2.799 1.418l-43.93-14.394a2.218 2.218 0 0 1-1.416-2.799l10.695-32.641a2.218 2.218 0 0 1 2.798-1.417l43.93 14.393a2.218 2.218 0 0 1 1.417 2.799z" class="colorfabe25 svgShape"></path><path fill="#ffffff" d="m180.518 143.197-35.476-11.624 7.601-23.198 35.477 11.624-7.602 23.198zm-33.02-12.867 31.777 10.411 6.389-19.498-31.777-10.412-6.39 19.499z" class="colorffffff svgShape"></path><path fill="#ffffff" d="m166.222 126.882-13.709-16.66a.973.973 0 1 1 1.504-1.238l12.923 15.706 19.712-5.013a.973.973 0 0 1 .48 1.887l-20.91 5.318z" class="colorffffff svgShape"></path><path fill="#9dceff" d="m164.22 145.42-19.93 13.14-6.94-19.15 7.26-8.98a3.25 3.25 0 0 1 3.42-1.08l6.8 1.93c1.4.4 2.28 1.79 2.02 3.23a2.846 2.846 0 0 1-2.79 2.36c-.11 0-.21-.01-.31-.02l-5.88-.63-1.71 3.19 18.06 6.01z" class="colorffa49d svgShape"></path></svg>