<svg xmlns="http://www.w3.org/2000/svg" enable-background="new 0 0 500 500" viewBox="0 0 500 500" id="Femalelawyergivingorder"><g fill="#000000" class="color000000 svgShape"><polygon fill="#b8c9db" points="298.19 88.93 148.16 168.97 448.21 168.97" class="colordbc8b8 svgShape"></polygon><polygon fill="#d1deeb" points="446.29 172.57 298.19 93.55 150.08 172.57 146.24 165.38 298.19 84.31 450.13 165.38" class="colorebddd1 svgShape"></polygon><path fill="#b8c9db" d="M160.57,168.98v203.48h39.32v-9.83h-4.26V179h4.26v-5.39h13.23V179h4.26v183.63h-4.26v9.83h67.44
						c-0.6,0-1.08-0.49-1.08-1.09v-95.99c0-11.4,9.25-20.65,20.64-20.65c11.4,0,20.65,9.25,20.65,20.65v95.99
						c0,0.6-0.48,1.09-1.08,1.09h71.55v-9.83h-4.27V179h4.27v-5.39h13.22V179h4.26v183.63h-4.26v9.83h35.22V168.98H160.57z
						 M274.14,209.73c0-14.36,11.64-25.99,25.98-25.99c14.36,0,25.99,11.64,25.99,25.99v15.68c0,0.75-0.62,1.36-1.36,1.36H275.5
						c-0.76,0-1.36-0.62-1.36-1.36V209.73z" class="colordbc8b8 svgShape"></path><rect width="35.21" height="203.48" x="408.73" y="168.98" fill="#d1deeb" class="colorebddd1 svgShape"></rect><rect width="43.75" height="10.02" x="404.47" y="168.98" fill="#d1deeb" class="colorebddd1 svgShape"></rect><rect width="43.75" height="10.03" x="404.47" y="362.63" fill="#d1deeb" class="colorebddd1 svgShape"></rect><rect width="4.87" height="165.47" x="413.29" y="188.08" fill="#b8c9db" class="colordbc8b8 svgShape"></rect><rect width="4.87" height="165.47" x="423.9" y="188.08" fill="#b8c9db" class="colordbc8b8 svgShape"></rect><rect width="4.87" height="165.47" x="434.52" y="188.08" fill="#b8c9db" class="colordbc8b8 svgShape"></rect><rect width="35.21" height="203.48" x="351.76" y="168.98" fill="#d1deeb" class="colorebddd1 svgShape"></rect><rect width="43.75" height="10.02" x="347.49" y="168.98" fill="#d1deeb" class="colorebddd1 svgShape"></rect><rect width="43.75" height="10.03" x="347.49" y="362.63" fill="#d1deeb" class="colorebddd1 svgShape"></rect><rect width="4.87" height="165.47" x="356.32" y="188.08" fill="#b8c9db" class="colordbc8b8 svgShape"></rect><rect width="4.87" height="165.47" x="366.93" y="188.08" fill="#b8c9db" class="colordbc8b8 svgShape"></rect><rect width="4.87" height="165.47" x="377.55" y="188.08" fill="#b8c9db" class="colordbc8b8 svgShape"></rect><g fill="#000000" class="color000000 svgShape"><rect width="35.21" height="203.48" x="217.38" y="168.98" fill="#d1deeb" class="colorebddd1 svgShape"></rect><rect width="43.75" height="10.02" x="213.12" y="168.98" fill="#d1deeb" class="colorebddd1 svgShape"></rect><rect width="43.75" height="10.03" x="213.12" y="362.63" fill="#d1deeb" class="colorebddd1 svgShape"></rect><rect width="4.87" height="165.47" x="221.94" y="188.08" fill="#b8c9db" class="colordbc8b8 svgShape"></rect><rect width="4.87" height="165.47" x="232.56" y="188.08" fill="#b8c9db" class="colordbc8b8 svgShape"></rect><rect width="4.87" height="165.47" x="243.17" y="188.08" fill="#b8c9db" class="colordbc8b8 svgShape"></rect><g fill="#000000" class="color000000 svgShape"><rect width="35.21" height="203.48" x="160.41" y="168.98" fill="#d1deeb" class="colorebddd1 svgShape"></rect><rect width="43.75" height="10.02" x="156.14" y="168.98" fill="#d1deeb" class="colorebddd1 svgShape"></rect><rect width="43.75" height="10.03" x="156.14" y="362.63" fill="#d1deeb" class="colorebddd1 svgShape"></rect><rect width="4.87" height="165.47" x="164.97" y="188.08" fill="#b8c9db" class="colordbc8b8 svgShape"></rect><rect width="4.87" height="165.47" x="175.58" y="188.08" fill="#b8c9db" class="colordbc8b8 svgShape"></rect><rect width="4.87" height="165.47" x="186.2" y="188.08" fill="#b8c9db" class="colordbc8b8 svgShape"></rect></g></g><g fill="#000000" class="color000000 svgShape"><path fill="#d1deeb" d="M326.11,274.77v96.33c0,0.75-0.62,1.36-1.36,1.36h-5.06c0.6,0,1.08-0.49,1.08-1.09v-95.99
						c0-11.4-9.25-20.65-20.65-20.65c-11.4,0-20.64,9.25-20.64,20.65v95.99c0,0.6,0.48,1.09,1.08,1.09h-5.06
						c-0.76,0-1.36-0.62-1.36-1.36v-96.33c0-14.36,11.64-25.99,25.98-25.99C314.48,248.78,326.11,260.41,326.11,274.77z" class="colorebddd1 svgShape"></path></g><g fill="#000000" class="color000000 svgShape"><rect width="99.16" height="3.99" x="252.6" y="236.9" fill="#d1deeb" class="colorebddd1 svgShape"></rect></g><g fill="#000000" class="color000000 svgShape"><path fill="#d1deeb" d="M454.42,169.07v0.23c0,2.38-1.93,4.32-4.32,4.32H146.27c-2.38,0-4.32-1.93-4.32-4.32v-0.23
						c0-2.38,1.93-4.32,4.32-4.32H450.1C452.48,164.75,454.42,166.69,454.42,169.07z" class="colorebddd1 svgShape"></path></g><g fill="#000000" class="color000000 svgShape"><path fill="#d1deeb" d="M274.86 128.91v13.74h5.42v3.71h-10.28v-17.46H274.86zM293.21 143.52h-6.19l-.94 2.85h-5.1l6.36-17.46h5.6l6.34 17.46h-5.13L293.21 143.52zM290.12 134.16l-1.86 5.65H292L290.12 134.16zM300.14 128.91h5.25l2.03 11.94 2.75-11.94h5.32l2.67 11.84 2.03-11.84h5.25l-4.28 17.46h-5.97l-2.4-10.7-2.45 10.7h-5.97L300.14 128.91z" class="colorebddd1 svgShape"></path></g><g fill="#000000" class="color000000 svgShape"><rect width="3" height="273.91" x="76.98" y="97.44" fill="#021b79" class="color252626 svgShape"></rect><path fill="#4b69dc" d="M76.98,104.5c0,0-15.35,70.48-17.9,96.91s-9.09,73.32-6.54,77.58c2.56,4.26,11.64,5.97,11.93,14.78
					s5.12,16.77,8.25,16.2s3.69-4.55,5.97-6.25c2.27-1.71,0.57-44.33,1.42-47.46s10.51-6.54,10.51-9.09s-10.23-57.97-12.22-80.42
					C76.41,144.28,76.98,104.5,76.98,104.5z" class="colordc604b svgShape"></path><path fill="#3654c3" d="M52.98,279.4l-0.88-0.82c0.14-0.15,13.67-14.65,27.56-23.33l0.64,1.02
					C66.55,264.86,53.12,279.25,52.98,279.4z" class="colorc34036 svgShape"></path><circle cx="78.48" cy="96.81" r="3.57" fill="#021b79" class="color252626 svgShape"></circle></g><g fill="#000000" class="color000000 svgShape"><path fill="#192966" d="M23.05,353.54v17.82H18.7v3.4h106.56c1.36,0,2.69-0.24,3.96-0.68c1.74-0.59,3.35-1.61,4.65-2.93
										c2.3-2.33,3.56-5.41,3.56-8.69c0-5.5-3.66-10.38-8.91-11.85c-1.04-0.29-2.14-0.45-3.26-0.45H18.7v3.39H23.05z" class="color663c19 svgShape"></path><path fill="#374b96" d="M86.58,350.16c1.12,0,2.22,0.15,3.26,0.45c5.25,1.46,8.91,6.34,8.91,11.85c0,3.27-1.26,6.37-3.56,8.69
										c-1.3,1.32-2.91,2.33-4.65,2.93c-1.27,0.45-2.6,0.67-3.96,0.67H82.4c1.36,0,2.69-0.23,3.96-0.67
										c1.74-0.6,3.35-1.61,4.65-2.93c2.3-2.33,3.56-5.42,3.56-8.69c0-5.51-3.66-10.39-8.91-11.85c-1.03-0.29-2.14-0.45-3.26-0.45
										H86.58z" class="color966437 svgShape"></path><path fill="#374b96" d="M94.76,350.16c1.12,0,2.22,0.15,3.26,0.45c5.25,1.46,8.91,6.34,8.91,11.85c0,3.27-1.26,6.37-3.56,8.69
										c-1.3,1.32-2.91,2.33-4.65,2.93c-1.27,0.45-2.6,0.67-3.96,0.67h-4.18c1.36,0,2.69-0.23,3.96-0.67
										c1.74-0.6,3.35-1.61,4.65-2.93c2.3-2.33,3.56-5.42,3.56-8.69c0-5.51-3.66-10.39-8.91-11.85c-1.03-0.29-2.14-0.45-3.26-0.45
										H94.76z" class="color966437 svgShape"></path><path fill="#f5f6f7" d="M73.83,362.46c0,0.39-0.03,0.77-0.08,1.14c-0.03,0.21-0.06,0.42-0.09,0.63
											c-0.23,1.13-0.67,2.18-1.29,3.11c-0.13,0.22-0.29,0.43-0.46,0.63c-0.21,0.28-0.45,0.54-0.7,0.79
											c-1.61,1.62-3.83,2.61-6.3,2.61H23.1v-17.83h41.81c2.44,0,4.65,0.98,6.25,2.56c0.21,0.2,0.4,0.41,0.58,0.63
											c0.76,0.9,1.34,1.95,1.69,3.11c0.07,0.21,0.12,0.42,0.17,0.63C73.75,361.12,73.83,361.77,73.83,362.46z" class="colorf7f6f5 svgShape"></path><path fill="#f5f6f7" d="M23.05,353.55v17.82h41.42c2.59,0,4.93-0.99,6.62-2.61c0.27-0.25,0.51-0.52,0.73-0.79l0.01-0.01
											c0.17-0.21,0.33-0.41,0.47-0.63c0,0,0-0.01,0.01-0.01c0.64-0.93,1.11-1.98,1.34-3.1c0.04-0.21,0.07-0.42,0.1-0.63
											c0.05-0.37,0.08-0.75,0.08-1.14c0-0.17-0.01-0.34-0.01-0.52c-0.01-0.17-0.02-0.33-0.04-0.49
											c-0.02-0.17-0.04-0.33-0.07-0.5c-0.03-0.16-0.06-0.32-0.1-0.48c-0.06-0.21-0.11-0.42-0.18-0.63
											c-0.37-1.15-0.98-2.21-1.77-3.1c-0.19-0.22-0.4-0.43-0.61-0.63c-1.68-1.58-4-2.56-6.57-2.56H23.05z" class="colorf7f6f5 svgShape"></path><path fill="#d1deeb" d="M23.05,353.55v17.82h41.86c2.16,0,4.13-0.76,5.67-2.03c0.22-0.18,0.43-0.37,0.63-0.57v-0.01
											c0.26-0.25,0.49-0.51,0.7-0.78v-0.01c0.17-0.2,0.32-0.41,0.45-0.63c0.08-0.12,0.15-0.23,0.22-0.34v-0.01
											c0.14-0.24,0.27-0.48,0.4-0.73c0.17-0.35,0.3-0.7,0.42-1.06c0.04-0.13,0.09-0.25,0.11-0.38c0.06-0.19,0.1-0.38,0.14-0.57
											c0.04-0.22,0.07-0.42,0.09-0.63c0.05-0.37,0.08-0.75,0.08-1.14c0-0.17-0.01-0.34-0.01-0.52
											c-0.01-0.17-0.02-0.33-0.04-0.49c-0.02-0.17-0.04-0.33-0.07-0.5c-0.03-0.16-0.06-0.32-0.09-0.48
											c-0.05-0.21-0.1-0.42-0.17-0.63c-0.09-0.29-0.19-0.57-0.31-0.84c-0.12-0.28-0.24-0.55-0.39-0.8
											c-0.28-0.52-0.62-1.01-1-1.46c-0.09-0.11-0.18-0.22-0.28-0.32c-0.09-0.11-0.19-0.21-0.3-0.31
											c-0.3-0.29-0.62-0.57-0.96-0.83c-0.12-0.08-0.23-0.17-0.35-0.24c-0.24-0.15-0.48-0.3-0.73-0.44
											c-0.25-0.13-0.51-0.25-0.78-0.37c-0.27-0.11-0.53-0.21-0.81-0.29c-0.83-0.25-1.72-0.39-2.63-0.39H23.05z" class="colorebddd1 svgShape"></path><path fill="#0575e6" d="M71.75 356.74H23.1v-.63h48.06C71.38 356.31 71.57 356.52 71.75 356.74zM73.61 360.48H23.1v-.63h50.34C73.51 360.06 73.56 360.27 73.61 360.48zM73.75 363.59c-.03.21-.06.42-.09.63H23.1v-.63H73.75zM72.37 367.33c-.13.22-.29.43-.46.63H23.1v-.63H72.37z" class="colordac7b7 svgShape"></path><g fill="#000000" class="color000000 svgShape"><polygon fill="#374b96" points="64.6 363.3 62.28 361.12 60.21 363.3 60.21 356.49 64.6 356.49" class="color966437 svgShape"></polygon></g><g fill="#000000" class="color000000 svgShape"><path fill="#374b96" d="M71.66,356.41c0.1,0.1,0.2,0.22,0.28,0.32h-0.1c0.79,0.9,1.4,1.96,1.77,3.11
								c0.08,0.21,0.12,0.42,0.18,0.63c0.04,0.16,0.08,0.32,0.1,0.48c0.03,0.16,0.05,0.33,0.07,0.49c0.02,0.16,0.04,0.32,0.05,0.49
								c0,0.17,0.01,0.34,0.01,0.51c0,0.39-0.03,0.77-0.08,1.14c-0.03,0.21-0.07,0.42-0.1,0.63c-0.24,1.13-0.7,2.18-1.34,3.1
								c-0.01,0-0.01,0.01-0.01,0.01c-0.14,0.22-0.3,0.42-0.47,0.63l-0.01,0.01c-0.22,0.28-0.46,0.54-0.73,0.79
								c-0.31,0.3-0.65,0.59-1.02,0.84c-0.07,0.04-0.12,0.09-0.19,0.12c-0.03,0.02-0.06,0.04-0.09,0.07
								c-0.03,0.01-0.06,0.03-0.09,0.06c0,0,0,0-0.01,0c-1.35,0.86-2.95,1.41-4.69,1.51h-0.26c-0.01,0.01-0.03,0.01-0.04,0.01H18.7
								v3.39h46.96c1.36,0,2.69-0.23,3.96-0.67c1.74-0.6,3.35-1.61,4.65-2.93c2.3-2.33,3.56-5.42,3.56-8.69
								c0-5.51-3.66-10.39-8.91-11.85c-1.03-0.29-2.14-0.45-3.26-0.45H18.7v3.39h46.41c0.1,0,0.2,0,0.3,0.01
								c0.12,0,0.25,0.01,0.37,0.02c0,0,0.01,0,0.02,0c0.22,0.02,0.44,0.04,0.65,0.08c0.21,0.03,0.42,0.07,0.63,0.11
								c0.02,0,0.04,0.01,0.06,0.02c0.2,0.04,0.4,0.09,0.6,0.15c0.28,0.09,0.54,0.19,0.81,0.29c0.27,0.11,0.52,0.24,0.78,0.37
								c0.25,0.13,0.48,0.28,0.72,0.44c0.06,0.04,0.11,0.08,0.16,0.11c0.07,0.04,0.13,0.09,0.19,0.13c0.05,0.03,0.09,0.07,0.13,0.11
								c0.11,0.08,0.22,0.16,0.32,0.25c0.17,0.15,0.34,0.3,0.5,0.46C71.46,356.2,71.56,356.31,71.66,356.41z" class="color966437 svgShape"></path></g><g fill="#000000" class="color000000 svgShape"><path fill="#3654c3" d="M27.35,337.87c0,3.28,1.27,6.37,3.57,8.69c1.3,1.32,2.9,2.33,4.65,2.93c1.27,0.45,2.6,0.68,3.96,0.68
										h104.26v-3.4h-4.36v-17.82h4.36v-3.39H39.52c-1.12,0-2.22,0.15-3.26,0.45C31.01,327.49,27.35,332.37,27.35,337.87z" class="colorc34036 svgShape"></path><path fill="#4b69dc" d="M60.14,325.57c-1.12,0-2.22,0.15-3.26,0.45c-5.25,1.46-8.91,6.34-8.91,11.85
										c0,3.27,1.26,6.37,3.56,8.69c1.3,1.32,2.91,2.33,4.65,2.93c1.27,0.45,2.6,0.67,3.96,0.67h4.18c-1.36,0-2.69-0.23-3.96-0.67
										c-1.74-0.6-3.35-1.61-4.65-2.93c-2.3-2.33-3.56-5.42-3.56-8.69c0-5.51,3.66-10.39,8.91-11.85
										c1.03-0.29,2.14-0.45,3.26-0.45H60.14z" class="colordc604b svgShape"></path><path fill="#4b69dc" d="M52.25,325.57c-1.12,0-2.22,0.15-3.26,0.45c-5.25,1.46-8.91,6.34-8.91,11.85
										c0,3.27,1.26,6.37,3.56,8.69c1.3,1.32,2.91,2.33,4.65,2.93c1.27,0.45,2.6,0.67,3.96,0.67h4.18c-1.36,0-2.69-0.23-3.96-0.67
										c-1.74-0.6-3.35-1.61-4.65-2.93c-2.3-2.33-3.56-5.42-3.56-8.69c0-5.51,3.66-10.39,8.91-11.85
										c1.03-0.29,2.14-0.45,3.26-0.45H52.25z" class="colordc604b svgShape"></path><path fill="#f5f6f7" d="M67.09,337.87c0,0.39,0.03,0.77,0.08,1.14c0.03,0.21,0.06,0.42,0.09,0.63
											c0.23,1.13,0.67,2.18,1.29,3.11c0.13,0.22,0.29,0.43,0.45,0.63c0.21,0.28,0.45,0.54,0.7,0.79
											c1.61,1.62,3.83,2.61,6.3,2.61h63.37v-17.83H76c-2.44,0-4.65,0.98-6.25,2.56c-0.21,0.2-0.4,0.41-0.58,0.63
											c-0.76,0.9-1.34,1.95-1.69,3.11c-0.07,0.21-0.12,0.42-0.17,0.63C67.16,336.54,67.09,337.19,67.09,337.87z" class="colorf7f6f5 svgShape"></path><path fill="#f5f6f7" d="M139.42,328.97v17.82H76.45c-2.59,0-4.93-0.99-6.62-2.61c-0.27-0.25-0.51-0.52-0.73-0.79l-0.01-0.01
											c-0.17-0.21-0.33-0.41-0.47-0.63c0,0,0-0.01-0.01-0.01c-0.64-0.93-1.11-1.98-1.34-3.1c-0.04-0.21-0.07-0.42-0.1-0.63
											c-0.05-0.37-0.08-0.75-0.08-1.14c0-0.17,0.01-0.34,0.01-0.52c0.01-0.17,0.02-0.33,0.04-0.49c0.02-0.17,0.04-0.33,0.07-0.5
											c0.03-0.16,0.06-0.32,0.1-0.48c0.06-0.21,0.11-0.42,0.18-0.63c0.37-1.15,0.98-2.21,1.77-3.1c0.19-0.22,0.4-0.43,0.61-0.63
											c1.68-1.58,4-2.56,6.57-2.56H139.42z" class="colorf7f6f5 svgShape"></path><path fill="#d1deeb" d="M139.42,328.97v17.82H76c-2.16,0-4.13-0.76-5.67-2.03c-0.22-0.18-0.43-0.37-0.63-0.57v-0.01
											c-0.26-0.25-0.49-0.51-0.7-0.78v-0.01c-0.17-0.2-0.32-0.41-0.45-0.63c-0.08-0.11-0.15-0.23-0.22-0.34v-0.01
											c-0.14-0.24-0.27-0.48-0.4-0.73c-0.17-0.34-0.3-0.7-0.42-1.06c-0.04-0.13-0.09-0.25-0.12-0.38
											c-0.06-0.19-0.1-0.38-0.14-0.57c-0.04-0.22-0.07-0.42-0.09-0.63c-0.05-0.37-0.08-0.75-0.08-1.14
											c0-0.17,0.01-0.34,0.01-0.52c0.01-0.17,0.02-0.33,0.04-0.49c0.02-0.17,0.04-0.33,0.07-0.5c0.03-0.16,0.06-0.32,0.09-0.48
											c0.05-0.21,0.1-0.42,0.17-0.63c0.09-0.29,0.19-0.57,0.31-0.84c0.12-0.28,0.24-0.55,0.39-0.8c0.28-0.52,0.62-1.01,1-1.46
											c0.09-0.11,0.18-0.22,0.28-0.32c0.09-0.11,0.19-0.21,0.3-0.31c0.3-0.29,0.62-0.57,0.96-0.83
											c0.12-0.08,0.23-0.17,0.34-0.24c0.24-0.15,0.48-0.3,0.73-0.44c0.25-0.13,0.51-0.25,0.78-0.37
											c0.27-0.11,0.53-0.21,0.81-0.29c0.83-0.25,1.72-0.39,2.63-0.39H139.42z" class="colorebddd1 svgShape"></path><path fill="#0575e6" d="M69.17 332.15h70.2v-.63H69.75C69.54 331.73 69.35 331.94 69.17 332.15zM67.31 335.9h72.06v-.63h-71.9C67.41 335.47 67.36 335.68 67.31 335.9zM67.16 339.01c.03.21.06.42.09.63h72.11v-.63H67.16zM68.55 342.75c.13.22.29.43.45.63h70.37v-.63H68.55z" class="colordac7b7 svgShape"></path><g fill="#000000" class="color000000 svgShape"><polygon fill="#4b69dc" points="76.32 338.72 78.63 336.54 80.7 338.72 80.7 331.91 76.32 331.91" class="colordc604b svgShape"></polygon></g><g fill="#000000" class="color000000 svgShape"><path fill="#4b69dc" d="M63.23,337.87c0,3.27,1.26,6.37,3.56,8.69c1.3,1.32,2.91,2.33,4.65,2.93c1.27,0.45,2.6,0.67,3.96,0.67
								h68.38v-3.39H76.15c-0.01,0-0.02,0-0.03-0.01h-0.27c-0.6-0.03-1.19-0.12-1.75-0.27c-1.07-0.25-2.06-0.68-2.94-1.24
								c-0.01,0-0.01,0-0.01,0c-0.03-0.03-0.06-0.05-0.09-0.06c-0.03-0.03-0.06-0.05-0.09-0.07c-0.07-0.04-0.12-0.09-0.19-0.12
								c-0.36-0.26-0.7-0.54-1.02-0.84c-0.27-0.25-0.51-0.51-0.73-0.79l-0.01-0.01c-0.17-0.21-0.33-0.41-0.47-0.63
								c0,0,0-0.01-0.01-0.01c-0.12-0.17-0.23-0.35-0.34-0.53c-0.01-0.01-0.01-0.03-0.02-0.04c-0.09-0.17-0.19-0.33-0.27-0.51
								c0,0-0.01,0-0.01-0.01c-0.31-0.63-0.55-1.31-0.7-2.01c-0.04-0.21-0.08-0.42-0.1-0.63c-0.05-0.37-0.08-0.75-0.08-1.14
								c0-0.17,0.01-0.34,0.01-0.51c0.01-0.17,0.03-0.33,0.05-0.49c0.02-0.16,0.04-0.33,0.07-0.49c0.03-0.16,0.07-0.32,0.1-0.48
								c0.06-0.21,0.1-0.42,0.18-0.63c0.19-0.58,0.44-1.13,0.73-1.65c0.29-0.52,0.65-1.02,1.04-1.46h-0.1
								c0.09-0.1,0.18-0.22,0.28-0.32c0.09-0.1,0.2-0.21,0.3-0.3c0.16-0.16,0.33-0.31,0.5-0.46c0.1-0.09,0.21-0.17,0.32-0.25
								c0.04-0.05,0.09-0.09,0.13-0.11c0.06-0.05,0.12-0.09,0.19-0.13c0.05-0.04,0.1-0.08,0.16-0.11c0.24-0.15,0.47-0.3,0.72-0.44
								c0.26-0.13,0.51-0.26,0.78-0.37c0.27-0.1,0.53-0.21,0.81-0.29c0.2-0.06,0.4-0.11,0.6-0.15c0.02-0.01,0.04-0.02,0.06-0.02
								c0.21-0.05,0.42-0.09,0.63-0.11c0.16-0.03,0.33-0.05,0.49-0.06c0.06-0.01,0.1-0.02,0.16-0.02c0.01,0,0.02,0,0.02,0h0.05
								c0.1-0.01,0.22-0.02,0.32-0.02c0.1-0.01,0.2-0.01,0.3-0.01h67.83v-3.39H75.4c-1.12,0-2.22,0.15-3.26,0.45
								C66.89,327.48,63.23,332.36,63.23,337.87z" class="colordc604b svgShape"></path></g></g></g><g fill="#000000" class="color000000 svgShape"><path fill="#021b79" d="M316.12,367.19c0,0,3.37-0.97,3.55-11.9c0.19-10.94-9.17-7.88-9.36-7.32c-0.19,0.56-2.87,12.23-2.87,12.23
					l6.12,6.58L316.12,367.19z" class="color252626 svgShape"></path><polygon fill="#91bce7" points="340.31 342.18 303.35 339.95 298.19 362.06 342.41 355.99" class="colore7a291 svgShape"></polygon><path fill="#505051" d="M247.45,225.48c0,0,11.34,12.34,15.64,43.92c4.31,31.57,14.93,61.42,14.93,61.42l41.46,9.8
					c0,0-7.37,6.77-3.35,26.57c0,0-62.91,4.17-71.22-7.33c-12.35-17.09-8.8-44.25-8.8-44.25l4.31-66.39L247.45,225.48z" class="color505151 svgShape"></path><path fill="#021b79" d="M134.96,243.77c7.99,5.59,16.93,2.49,25.82,7.23c2.86,0.59,5.75,1.06,8.69,1.4
								c23.51,2.67,52.35-4.77,54.1-16.7c6.92-47.23,16.32-85.14-4.12-116.36c-8.21-12.54-28.6-14.45-40.22-12.47
								c-28.76,4.85-34.18,20.55-36.93,59.07c-0.12,1.74-0.31,3.76-0.53,5.99c-0.22,2.24-0.48,4.7-0.76,7.31
								c-4.58,22.28-28.34,40.51-10.32,61.3C132.09,241.83,133.53,242.92,134.96,243.77z" class="color252626 svgShape"></path><path fill="#91bce7" d="M151.05,227.28l12.71,4.78c0,0,12.18,14.61,12.25,14.91c13.4,65.32,44.83-3.9,44.83-3.9l-1.27-20.26
							L202,216.05l-3.45-32.88l-21.8-8.65l-8.81-2.14c0,0-4.55,27.14-7.6,36.25c-2.14,6.38-20.27,5.96-20.27,5.96L151.05,227.28z" class="colore7a291 svgShape"></path><path fill="#91bce7" d="M161.66,144.2c0,0,4.4,64.02,34.07,64.93c13.22,0.4,21.5-17.57,23.54-35.73
							c2.4-21.35-2.76-43.45-2.76-43.45l-43.15-16.24L161.66,144.2z" class="colore7a291 svgShape"></path><path fill="#7ca8d5" d="M196.16,209.69c-0.15,0-0.3,0-0.45-0.01c-6.56-0.2-12.53-3.38-17.73-9.45c-0.2-0.23-0.17-0.58,0.06-0.77
							c0.23-0.2,0.58-0.17,0.77,0.06c5,5.82,10.69,8.87,16.93,9.06c1.53,0.04,3.03-0.17,4.48-0.63c0.29-0.09,0.6,0.07,0.69,0.35
							s-0.07,0.6-0.35,0.69C199.14,209.46,197.66,209.69,196.16,209.69z" class="colord58a7c svgShape"></path><ellipse cx="210.74" cy="163.98" fill="#021b79" rx="2.89" ry="2.38" transform="rotate(-71.192 210.74 163.985)" class="color252626 svgShape"></ellipse><path fill="#021b79" d="M157.33,162.08c2.25-8.63,11.8-11.78,19.75-13.94c15.88-4.32,19.73-18.3,19.73-18.3
							s6.95,25.95,24.19,21.31c0,0-0.59-52.26-38.77-41.97C137.65,121.19,157.33,162.08,157.33,162.08z" class="color252626 svgShape"></path><path fill="#7ca8d5" d="M199.21,182.38c-0.01,0-0.02,0-0.03,0l-0.71-0.01c-0.3,0-0.55-0.25-0.54-0.56s0.26-0.54,0.56-0.54
									l0.71,0.01c0.58,0,1.07-0.23,1.43-0.66c0.35-0.43,0.49-0.98,0.39-1.52l-0.67-3.37c-0.06-0.3,0.13-0.59,0.43-0.65
									c0.3-0.06,0.59,0.13,0.65,0.43l0.67,3.37c0.17,0.87-0.05,1.76-0.62,2.44C200.91,181.99,200.09,182.38,199.21,182.38z" class="colord58a7c svgShape"></path><path fill="#021b79" d="M192.13 155.11c0 0-6.7-2.06-11.37 1.79L192.13 155.11zM206.6 155.01c0 0 5.18-2.05 10.42 1.9L206.6 155.01z" class="color252626 svgShape"></path><path fill="#91bce7" d="M163.36,158.58c0,0-11.29-0.16-9.09,8.75c2.2,8.91,14.77,13.4,14.77,13.4L163.36,158.58z" class="colore7a291 svgShape"></path><path fill="#7ca8d5" d="M162.64,172.72c-0.1,0-0.19-0.03-0.28-0.08c-3.33-2.02-4.97-3.96-4.86-5.78
							c0.12-1.96,2.2-2.92,2.29-2.96c0.28-0.12,0.6,0,0.73,0.27s0,0.6-0.27,0.73c-0.02,0.01-1.57,0.73-1.64,2.03
							c-0.05,0.95,0.65,2.54,4.33,4.76c0.26,0.16,0.34,0.5,0.19,0.75C163.01,172.62,162.82,172.72,162.64,172.72z" class="colord58a7c svgShape"></path><path fill="#021b79" d="M155.32 156.8c0 0 3.37.11 5.67 2.85s5.72 17.17 6.67 16.96c.94-.21-4.24-20.52 8.45-32.22 12.69-11.7-9.54-9.51-9.54-9.51s-10.4 9.93-10.33 10.9C156.31 146.76 155.32 156.8 155.32 156.8zM210.65 161.14c0 0 3.7-.63 6.08 2.63 0 0-2.92-1.39-5-1.15L210.65 161.14z" class="color252626 svgShape"></path><ellipse cx="187.98" cy="166.26" fill="#021b79" rx="2.38" ry="2.89" transform="rotate(-13.493 187.929 166.23)" class="color252626 svgShape"></ellipse><g fill="#000000" class="color000000 svgShape"><path fill="#021b79" d="M188.33,163.44c0,0-3.63-0.97-6.3,2.05c0,0,3.03-1.11,5.08-0.68L188.33,163.44z" class="color252626 svgShape"></path></g><g fill="#000000" class="color000000 svgShape"><path fill="#ecf3fb" d="M190.94,189.52c0,0,7.08,14.1,13.88-0.57L190.94,189.52z" class="colorfbf5ec svgShape"></path></g><g fill="#000000" class="color000000 svgShape"><path fill="#505051" d="M243.87,314.31c-2.3,17.65-8.9,41.84-7.75,62.08H120.15c0,0,4.81-53.82,5.03-78.59
					c0.2-24.75-0.87-65.23-14.64-75.12c0,0,35.07-9.74,49.06-12.75c0,0,8.08,4.44,18.34,9.01v0.01c2.71,1.21,5.58,2.43,8.5,3.58
					l6.34-3.27l9.06-4.65c0,0,2.65,0.28,3.11,0.37c4.24,0.83,26.7,5.31,42.49,10.49c0,0-2.44,13.64-3.01,31.3
					C243.87,274.42,246.15,296.66,243.87,314.31z" class="color505151 svgShape"></path></g><g fill="#000000" class="color000000 svgShape"><rect width="444.7" height="5.72" x="14.92" y="371.87" fill="#021b79" class="color252626 svgShape"></rect></g><g fill="#000000" class="color000000 svgShape"><ellipse cx="286.15" cy="402" fill="#d1deeb" rx="45.04" ry="9.07" class="colorebddd1 svgShape"></ellipse></g><g fill="#000000" class="color000000 svgShape"><path fill="#021b79" d="M238.59,345.62c-0.04,0-0.09,0-0.13-0.01c-0.33-0.07-0.54-0.4-0.46-0.73c1.16-5.19,4.53-25.06,5.26-30.64
					c1.42-10.88,1.08-23.55,0.75-35.8c-0.21-7.69-0.4-14.95-0.18-21.69c0.01-0.34,0.3-0.61,0.63-0.59c0.34,0.01,0.6,0.29,0.59,0.63
					c-0.22,6.7-0.02,13.95,0.18,21.61c0.33,12.3,0.67,25.01-0.76,35.99c-0.73,5.6-4.11,25.54-5.27,30.75
					C239.13,345.43,238.87,345.62,238.59,345.62z" class="color252626 svgShape"></path></g><g fill="#000000" class="color000000 svgShape"><path fill="#021b79" d="M162.4,390.89c0,0,5.03,3.13,11.34-7.06c6.3-10.19-13.25-13.25-13.25-13.25s-2.22,8.9-2.32,9.36
					s2.25,8.8,2.25,8.8L162.4,390.89z" class="color252626 svgShape"></path></g><g fill="#000000" class="color000000 svgShape"><polygon fill="#91bce7" points="178.02 368.36 193.82 377.93 186.82 396.04 151.52 381.39" class="colore7a291 svgShape"></polygon></g><g fill="#000000" class="color000000 svgShape"><path fill="#505051" d="M110.54,222.68c0,0-16.94,8.65-17.3,42.75s1.06,75.12,11.03,84.92c12.32,12.12,58.13,40.53,58.13,40.53
					c-4.51-10.57,18.05-21.33,18.05-21.33l-48.27-46.04l-6.58-96.32L110.54,222.68z" class="color505151 svgShape"></path></g><g fill="#000000" class="color000000 svgShape"><path fill="#021b79" d="M178.02,367.85c-0.15,0-0.3-0.06-0.42-0.17l-45.83-43.72c-0.11-0.1-0.18-0.25-0.19-0.4l-3.81-55.8
					c-0.02-0.34,0.23-0.63,0.57-0.65c0.35-0.02,0.63,0.23,0.65,0.57l3.8,55.57l45.66,43.55c0.24,0.23,0.25,0.62,0.02,0.86
					C178.34,367.78,178.18,367.85,178.02,367.85z" class="color252626 svgShape"></path></g><g fill="#000000" class="color000000 svgShape"><path fill="#90bbe6" d="M336.05,343.49c0,0,3.19-2.37,7.12-5.08c3.93-2.7,7.94-5.2,12.1-5.11c4.17,0.09,11.96,0.87,14.1,3.5
								c2.14,2.64,3.45,7.92,2.8,9.43c-0.65,1.51-1.87,1.26-1.87,1.26s1.11,2.3,0.82,3.71s-1.46,1.44-1.46,1.44s1.22,2.75,0.4,3.81
								s-2.79,0.74-3.58-0.94c-0.8-1.68-4.88-5.78-7.11-5.51c-2.22,0.26-9.42,5.19-14.55,5.89c-3.28,0.45-5.31-0.49-5.31-0.49
								L336.05,343.49z" class="colore6a190 svgShape"></path><path fill="#7ca8d4" d="M370.3 348.04c-.19 0-.37-.1-.47-.27-1.18-2.08-3.24-5.4-4.07-6.01-.8-.58-4.05-1.01-5.92-1.14-.3-.02-.52-.28-.5-.57.02-.3.27-.51.57-.5.52.04 5.17.39 6.48 1.34 1.28.93 4.06 5.79 4.37 6.35.15.26.06.59-.2.73C370.48 348.01 370.39 348.04 370.3 348.04zM369.66 353.18c-.18 0-.36-.1-.46-.27-.03-.05-3.17-5.35-7.13-6.21-.29-.06-.47-.35-.41-.64.06-.29.35-.47.64-.41 4.42.96 7.69 6.48 7.83 6.72.15.26.06.58-.19.73C369.84 353.16 369.75 353.18 369.66 353.18z" class="colord4897c svgShape"></path><g fill="#000000" class="color000000 svgShape"><path fill="#90bbe6" d="M342.41,352.39l5.19-11.37l1.66-0.86c-0.09,0.04-0.19,0.09-0.27,0.13c-0.9,0.44-1.39,0.73-1.39,0.73
						s0.46-0.34,1.31-0.87c0.86-0.51,2.1-1.25,3.74-1.84c0.82-0.28,1.74-0.55,2.78-0.59c1.05-0.05,2.16,0.31,3.11,0.95
						c0.9,0.67,1.82,1.57,1.97,2.95c0.09,0.7-0.4,1.49-1.04,1.75c-0.65,0.31-1.23,0.32-1.73,0.48c-2.14,0.52-3.92,1.95-5.33,3.5
						c-0.74,0.77-1.32,1.57-2.03,2.33c-0.73,0.74-1.56,1.24-2.36,1.61c-1.28,0.59-2.46,0.82-3.39,0.95l-0.01,0l-0.03,0
						c-0.21,0.03-0.43,0.06-0.61,0.08C342.98,352.41,342.41,352.39,342.41,352.39z" class="colore6a190 svgShape"></path></g><g fill="#000000" class="color000000 svgShape"><path fill="#7ca8d4" d="M343.99,352.85c-0.27,0-0.5-0.2-0.53-0.47c-0.04-0.29,0.17-0.56,0.47-0.6l0.6-0.08
						c0.9-0.13,2.04-0.34,3.29-0.91c0.9-0.42,1.62-0.91,2.2-1.49c0.32-0.35,0.63-0.71,0.93-1.08c0.35-0.42,0.7-0.84,1.09-1.25
						c1.81-1.98,3.64-3.18,5.59-3.65c0.16-0.05,0.37-0.09,0.58-0.13c0.34-0.07,0.68-0.13,1.04-0.3c0.45-0.19,0.79-0.75,0.74-1.2
						c-0.11-0.97-0.65-1.76-1.76-2.58c-0.85-0.57-1.87-0.89-2.76-0.85c-1.01,0.04-1.9,0.31-2.63,0.56
						c-1.52,0.54-2.69,1.23-3.54,1.73l-0.11,0.06c-0.81,0.51-1.26,0.83-1.27,0.84c-0.24,0.17-0.57,0.12-0.75-0.11
						c-0.18-0.24-0.13-0.57,0.11-0.75c0,0,0.47-0.35,1.35-0.9l0.12-0.07c0.89-0.52,2.1-1.24,3.73-1.82
						c0.77-0.26,1.79-0.57,2.94-0.62c1.15-0.06,2.37,0.32,3.43,1.04c0.87,0.64,2.02,1.66,2.2,3.33c0.11,0.91-0.5,1.95-1.37,2.3
						c-0.45,0.22-0.89,0.3-1.27,0.38c-0.18,0.03-0.35,0.07-0.51,0.12c-1.77,0.43-3.42,1.52-5.09,3.35c-0.39,0.4-0.72,0.81-1.05,1.21
						c-0.32,0.38-0.63,0.76-0.98,1.13c-0.67,0.69-1.5,1.25-2.52,1.73c-1.38,0.63-2.62,0.86-3.54,1l-0.66,0.09
						C344.03,352.85,344.01,352.85,343.99,352.85z" class="colord4897c svgShape"></path></g></g></g><g fill="#000000" class="color000000 svgShape"><path fill="#192966" d="M263.45 358.64l2.36 4.35-50.38 29.49-2.38 1.39-12.73 7.45c-.05.02-.09.05-.13.08-2.37 1.29-5.36.42-6.66-1.97-1.32-2.44-.37-5.48 2.11-6.73l13.18-6.62 2.46-1.23L263.45 358.64zM260.57 353.34l.07-1.69c.05-1.09-.55-2.11-1.53-2.59l0 0c-.77-.38-1.4-.99-1.81-1.74l0 0c-.35-.64-.52-1.37-.5-2.1l.07-2.46 8.59-4.67 8.59-4.67 2.11 1.28c.62.38 1.14.92 1.49 1.56l0 0c.41.75.57 1.62.47 2.47v0c-.13 1.09.4 2.14 1.34 2.7l1.46.86L260.57 353.34z" class="color663c19 svgShape"></path><path fill="#374b96" d="M256.87,342.76c-0.33-0.6,3.25-3.18,8-5.76c4.75-2.58,8.86-4.18,9.19-3.57L256.87,342.76z" class="color966437 svgShape"></path><path fill="#192966" d="M268.68,368.28l1.46,0.86c0.94,0.55,1.47,1.61,1.34,2.7l0,0c-0.1,0.85,0.07,1.71,0.47,2.47l0,0
						c0.35,0.64,0.86,1.18,1.49,1.56l2.11,1.28l8.59-4.67l8.59-4.67l0.07-2.46c0.02-0.73-0.15-1.45-0.5-2.1l0,0
						c-0.41-0.75-1.04-1.36-1.81-1.74l0,0c-0.98-0.48-1.58-1.5-1.53-2.59l0.07-1.69L268.68,368.28z" class="color663c19 svgShape"></path><path fill="#374b96" d="M275.54 377.15c.33.6 4.44-1 9.19-3.57 4.75-2.58 8.33-5.16 8-5.76L275.54 377.15zM289.03 357.23C289.03 357.23 289.03 357.23 289.03 357.23L289.03 357.23l-8.11-14.94 0 0c0 0 0 0 0 0l0 0 0 0c-.33-.6-5.15 1.38-10.77 4.43-5.62 3.05-9.91 6.01-9.58 6.62l0 0 8.12 14.94 0 0c.33.6 5.15-1.38 10.77-4.43C285.06 360.8 289.35 357.84 289.03 357.23L289.03 357.23 289.03 357.23z" class="color966437 svgShape"></path><path fill="#192966" d="M287.34,354.01C287.34,354.01,287.34,354.01,287.34,354.01L287.34,354.01l-4.67-8.34l0,0c0,0,0,0,0,0l0,0
						l0,0c-0.19-0.34-4.91,1.83-10.55,4.84c-5.64,3.01-10.06,5.72-9.87,6.06l0,0l4.67,8.34l0,0c0.19,0.34,4.92-1.83,10.55-4.84
						C283.11,357.06,287.53,354.35,287.34,354.01L287.34,354.01L287.34,354.01z" class="color663c19 svgShape"></path><rect width="23.15" height="4.94" x="263.22" y="352.82" fill="#374b96" transform="rotate(-28.51 274.807 355.3)" class="color966437 svgShape"></rect><g fill="#000000" class="color000000 svgShape"><path fill="#192966" d="M250.5,372.9L250.5,372.9c-0.67,0.36-1.5,0.12-1.87-0.55l-2.39-4.4c-0.36-0.67-0.12-1.5,0.55-1.87l0,0
					c0.67-0.36,1.5-0.12,1.87,0.55l2.39,4.4C251.41,371.7,251.16,372.54,250.5,372.9z" class="color663c19 svgShape"></path></g><g fill="#000000" class="color000000 svgShape"><polygon fill="#374b96" points="211.28 384.85 215.43 392.48 213.05 393.87 208.82 386.08" class="color966437 svgShape"></polygon></g></g><g fill="#000000" class="color000000 svgShape"><ellipse cx="286.51" cy="397.93" fill="#192966" rx="34.7" ry="7.69" class="color663c19 svgShape"></ellipse><polygon fill="#192966" points="253.56 393.31 251.82 397.93 258.43 397.13" class="color663c19 svgShape"></polygon><polygon fill="#192966" points="321.21 397.93 319.47 393.31 316.15 394.32 316.15 398.77" class="color663c19 svgShape"></polygon><ellipse cx="286.51" cy="393.31" fill="#374b96" rx="32.96" ry="7.3" class="color966437 svgShape"></ellipse><g fill="#000000" class="color000000 svgShape"><ellipse cx="286.51" cy="392.1" fill="#192966" rx="31.16" ry="6.91" class="color663c19 svgShape"></ellipse><polygon fill="#192966" points="256.91 387.95 255.35 392.1 261.29 391.38" class="color663c19 svgShape"></polygon><polygon fill="#192966" points="317.68 392.1 316.12 387.95 313.13 388.86 313.13 392.85" class="color663c19 svgShape"></polygon><ellipse cx="286.51" cy="387.95" fill="#374b96" rx="29.61" ry="6.56" class="color966437 svgShape"></ellipse></g></g><g fill="#000000" class="color000000 svgShape"><path fill="#b9cadc" d="M210.65,288.14l-35.9,0.33l3.19-69.51c2.71,1.21,5.58,2.43,8.5,3.58l6.34-3.27L210.65,288.14z" class="colordcc9b9 svgShape"></path></g><g fill="#000000" class="color000000 svgShape"><polygon fill="#b9cadc" points="206.29 215.25 186.06 223.06 156.46 210.31 160.39 208.23 185.18 218.27 201.72 213.14" class="colordcc9b9 svgShape"></polygon></g><g fill="#000000" class="color000000 svgShape"><path fill="#91bce7" d="M188.44,378.76c0,0,8.63-3.22,14.84-2.58c2.21,0.23,5.86-0.73,14.72,3.56c6.03,2.92,7.02,3.36,6.04,4.87
					c-2.76,4.23-5.78,2.99-8.92,1.79c-2.29-0.88-4.67-1.34-4.94-0.9c-0.44,0.71,15.38,7.18,13.4,9.92
					c-1.98,2.74-6.07,3.06-6.07,3.06s-1.83,2.77-3.6,3.88c-1.78,1.11-3.5,0.58-3.5,0.58s-1.07,1.59-2.31,2.19
					c-1.03,0.49-2.27-0.05-2.28,0.3c-0.04,3.58-4.38,3.31-8.51,0.69c-4.13-2.62-11.79-11.54-11.79-11.54L188.44,378.76z" class="colore7a291 svgShape"></path><path fill="#7ca8d5" d="M217.52 399.02c-.09 0-.19-.02-.27-.07-.05-.03-4.91-2.84-9.17-5.9-.25-.18-.3-.52-.13-.77.18-.25.52-.3.77-.13 4.22 3.03 9.03 5.81 9.08 5.84.26.15.35.49.2.75C217.89 398.93 217.71 399.02 217.52 399.02zM205.83 405.97c-.09 0-.18-.02-.26-.07-.04-.02-3.8-2.09-7.01-4.2-.25-.17-.32-.51-.16-.76.17-.25.51-.32.76-.16 3.18 2.09 6.9 4.14 6.94 4.16.27.15.36.48.22.75C206.21 405.86 206.02 405.97 205.83 405.97zM210.41 403.48c-.09 0-.18-.02-.27-.07-.03-.02-3.34-1.9-6.86-4.49-.24-.18-.3-.52-.12-.77.18-.24.52-.3.77-.12 3.46 2.55 6.72 4.4 6.75 4.42.26.15.36.48.21.75C210.79 403.38 210.6 403.48 210.41 403.48z" class="colord58a7c svgShape"></path></g><g fill="#000000" class="color000000 svgShape"><path fill="#505051" d="M370.05,362.72L370.05,362.72c-3.38,0-6.12-2.74-6.12-6.12V195.52c0-3.38,2.74-6.12,6.12-6.12h0
						c3.38,0,6.12,2.74,6.12,6.12V356.6C376.16,359.98,373.43,362.72,370.05,362.72z" class="color505151 svgShape"></path><ellipse cx="370.05" cy="346.31" fill="#505051" rx="13.05" ry="17.52" class="color505151 svgShape"></ellipse><path fill="#505051" d="M452.9,221.59c-1.16,7.14-10.79,8.47-10.79,8.47h-4.26c-7.36,0-14.62-1.61-21.31-4.71l-13.24-6.17
						l-6.45-2.6c-3.93-1.58-8.14-2.39-12.39-2.39h-28.85c-4.25,0-8.46,0.81-12.39,2.39l-6.45,2.6l-13.24,6.17
						c-6.69,3.1-13.95,4.71-21.31,4.71h-4.26c0,0-9.63-1.33-10.79-8.47c-0.16-0.94-0.14-1.84,0.02-2.69
						c0.9-5.63,7.55-9.01,10.99-5.44c0.9,0.94,1.39,1.91,1.59,2.86c0,0,0,0,0,0.02c0.28,1.16,0.16,2.3-0.14,3.27
						c-0.5,1.72-1.46,2.93-1.46,2.93c4.07-0.4,8.06-1.26,11.87-2.62c3.83-1.33,7.49-3.14,10.92-5.37l23.27-13.58
						c4.9-2.7,10.41-4.12,16.01-4.12h19.6c5.6,0,11.11,1.42,16.01,4.12l23.27,13.58c6.84,4.47,14.66,7.21,22.78,7.99
						c0,0-0.95-1.21-1.46-2.93c-0.17-0.61-0.29-1.28-0.29-1.98c0-0.42,0.05-0.87,0.16-1.3c0-0.02,0-0.02,0-0.02
						c0.21-0.95,0.69-1.92,1.59-2.86c3.45-3.57,10.08-0.19,10.99,5.44C453.04,219.75,453.06,220.65,452.9,221.59z" class="color505151 svgShape"></path><path fill="#021b79" d="M452.9,218.83c0,0.02,0,0.05-0.02,0.07c-1.21,7.09-10.78,8.4-10.78,8.4h-4.26
						c-7.36,0-14.62-1.59-21.31-4.71l-13.24-6.17l-6.45-2.6c-3.93-1.58-8.14-2.39-12.39-2.39h-28.85c-4.25,0-8.46,0.81-12.39,2.39
						l-6.45,2.6l-13.24,6.17c-6.69,3.12-13.95,4.71-21.31,4.71h-4.26c0,0-9.56-1.32-10.78-8.4c-0.02-0.02-0.02-0.05-0.02-0.07
						c-1.16-7.14,7.05-12.21,11-8.11c1.8,1.87,1.96,3.92,1.59,5.6c0,0,0,0,0,0.02c-0.43,1.99-1.59,3.45-1.59,3.45
						c0.48-0.05,0.97-0.1,1.46-0.17c-0.5,1.72-1.46,2.93-1.46,2.93c4.07-0.4,8.06-1.26,11.87-2.62c3.83-1.33,7.49-3.14,10.92-5.37
						l23.27-13.58c4.9-2.7,10.41-4.12,16.01-4.12h19.6c5.6,0,11.11,1.42,16.01,4.12l23.27,13.58c6.84,4.47,14.66,7.21,22.78,7.99
						c0,0-0.95-1.21-1.46-2.93c0.48,0.07,0.97,0.12,1.46,0.17c0,0-1.16-1.46-1.59-3.45c0-0.02,0-0.02,0-0.02
						c-0.1-0.47-0.16-0.94-0.16-1.44c0-1.33,0.43-2.79,1.75-4.16C445.87,206.62,454.07,211.7,452.9,218.83z" class="color252626 svgShape"></path><circle cx="370.05" cy="197.96" r="9.02" fill="#4b69dc" class="colordc604b svgShape"></circle><circle cx="370.05" cy="197.96" r="4.99" fill="#021b79" class="color252626 svgShape"></circle><path fill="#021b79" d="M390.02,373.01h-39.95v-4.48c0-7.66,6.21-13.87,13.87-13.87h12.22c7.66,0,13.87,6.21,13.87,13.87V373.01z" class="color252626 svgShape"></path><polygon fill="#021b79" points="441.97 288.47 441.11 288.47 441.11 220.08 462.23 278.18 461.41 278.47 441.97 225" class="color252626 svgShape"></polygon><path fill="#4b69dc" d="M461.82,278.33c0,11.2-9.08,20.28-20.28,20.28c-11.2,0-20.28-9.08-20.28-20.28H461.82z" class="colordc604b svgShape"></path><rect width="59.36" height=".87" x="401.72" y="250" fill="#021b79" transform="rotate(-70.032 431.408 250.426)" class="color252626 svgShape"></rect><g fill="#000000" class="color000000 svgShape"><polygon fill="#021b79" points="298.99 288.47 298.12 288.47 298.12 220.08 319.24 278.18 318.43 278.47 298.99 225" class="color252626 svgShape"></polygon><path fill="#4b69dc" d="M318.83,278.33c0,11.2-9.08,20.28-20.28,20.28c-11.2,0-20.28-9.08-20.28-20.28H318.83z" class="colordc604b svgShape"></path><path fill="#021b79" d="M462.2 278.33h-41.32c-.78 0-1.42-.63-1.42-1.42v-.46c0-.78.63-1.42 1.42-1.42h41.32c.78 0 1.42.63 1.42 1.42v.46C463.62 277.69 462.98 278.33 462.2 278.33zM319.21 278.33h-41.32c-.78 0-1.42-.63-1.42-1.42v-.46c0-.78.63-1.42 1.42-1.42h41.32c.78 0 1.42.63 1.42 1.42v.46C320.63 277.69 319.99 278.33 319.21 278.33z" class="color252626 svgShape"></path><rect width="59.36" height=".87" x="258.73" y="250" fill="#021b79" transform="rotate(-70.032 288.42 250.43)" class="color252626 svgShape"></rect></g></g><g fill="#000000" class="color000000 svgShape"><circle cx="113.7" cy="139.32" r="14.95" fill="#d1deeb" class="colorebddd1 svgShape"></circle></g><g fill="#000000" class="color000000 svgShape"><circle cx="474.35" cy="233.27" r="10.73" fill="#d1deeb" class="colorebddd1 svgShape"></circle></g><g fill="#000000" class="color000000 svgShape"><circle cx="31.29" cy="221.92" r="6.28" fill="#d1deeb" class="colorebddd1 svgShape"></circle></g></g></svg>