<svg xmlns="http://www.w3.org/2000/svg" enable-background="new 0 0 1407.473 1000" viewBox="0 0 1407.473 1000" id="FemalePutSealStamponDocumentforExpiredFood"><linearGradient id="a" x1="1238.865" x2="299.891" y1="967.431" y2="338.762" gradientUnits="userSpaceOnUse"><stop offset="0" stop-color="#a0cefc" class="stopColorfca0bb svgShape"></stop><stop offset=".545" stop-color="#bed0e2" class="stopColorcfbee2 svgShape"></stop><stop offset="1" stop-color="#add6ff" class="stopColoradd5ff svgShape"></stop></linearGradient><path fill="url(#a)" d="M1279.015 698.653c0 41.293-4.556 81.542-13.201 120.289a524.574 524.574 0 0 1-2.543 10.869l-3.906.607c-.773.119-1.553.237-2.339.356-.817.122-1.637.247-2.465.37-14.785 2.204-30.932 4.316-48.328 6.302-3.516.403-7.082.803-10.7 1.197-119.896 13.107-294.615 21.352-489.153 21.352-199.912 0-378.885-8.716-498.957-22.437a1697.77 1697.77 0 0 1-16.931-2.017c-2.834-.356-5.631-.705-8.391-1.061a1282.704 1282.704 0 0 1-23.864-3.326c-.715-.105-1.427-.214-2.136-.319a518.803 518.803 0 0 1-6.581-1.02 553.613 553.613 0 0 1-2.539-10.872c-8.645-38.75-13.202-78.999-13.202-120.289 0-309.762 256.369-560.876 572.617-560.876s572.619 251.113 572.619 560.875z"></path><linearGradient id="b" x1="1238.865" x2="299.891" y1="967.431" y2="338.762" gradientUnits="userSpaceOnUse"><stop offset="0" stop-color="#a0cefc" class="stopColorfca0bb svgShape"></stop><stop offset=".545" stop-color="#bed0e2" class="stopColorcfbee2 svgShape"></stop><stop offset="1" stop-color="#add6ff" class="stopColoradd5ff svgShape"></stop></linearGradient><path fill="url(#b)" d="M1279.015 698.653c0 41.293-4.556 81.542-13.201 120.289a524.574 524.574 0 0 1-2.543 10.869l-3.906.607c-.773.119-1.553.237-2.339.356-.817.122-1.637.247-2.465.37-14.785 2.204-30.932 4.316-48.328 6.302-3.516.403-7.082.803-10.7 1.197-119.896 13.107-294.615 21.352-489.153 21.352-199.912 0-378.885-8.716-498.957-22.437a1697.77 1697.77 0 0 1-16.931-2.017c-2.834-.356-5.631-.705-8.391-1.061a1282.704 1282.704 0 0 1-23.864-3.326c-.715-.105-1.427-.214-2.136-.319a518.803 518.803 0 0 1-6.581-1.02 553.613 553.613 0 0 1-2.539-10.872c-8.645-38.75-13.202-78.999-13.202-120.289 0-309.762 256.369-560.876 572.617-560.876s572.619 251.113 572.619 560.875z"></path><linearGradient id="c" x1="1340.893" x2="86.63" y1="856.817" y2="807.791" gradientUnits="userSpaceOnUse"><stop offset="0" stop-color="#a0cefc" class="stopColorfca0bb svgShape"></stop><stop offset=".123" stop-color="#adcbe9" class="stopColore9adcc svgShape"></stop><stop offset=".33" stop-color="#bed0e2" class="stopColorcfbee2 svgShape"></stop><stop offset=".542" stop-color="#bcd7f2" class="stopColorbccbf2 svgShape"></stop><stop offset=".762" stop-color="#b1d6fc" class="stopColorb1d3fc svgShape"></stop><stop offset="1" stop-color="#add6ff" class="stopColoradd5ff svgShape"></stop></linearGradient><path fill="url(#c)" d="M1308.885 831.9c-6.755 2.868-13.977 5.656-21.642 8.349a515.116 515.116 0 0 1-11.197 3.837c-.018.007-.038.015-.056.015-1.324.433-2.658.873-4.013 1.313-.794.257-1.596.513-2.404.77-.84.264-1.683.536-2.533.8-15.193 4.769-31.787 9.339-49.663 13.638a939.72 939.72 0 0 1-10.995 2.59c-123.207 28.362-302.752 46.204-502.663 46.204-205.434 0-389.351-18.862-512.739-48.552a895.298 895.298 0 0 1-17.399-4.365c-2.912-.77-5.787-1.526-8.623-2.296a688.485 688.485 0 0 1-24.523-7.197c-.735-.227-1.467-.462-2.195-.69a280.46 280.46 0 0 1-6.762-2.208l-.056-.022a552.054 552.054 0 0 1-9.076-3.096c-8.455-2.964-16.381-5.979-23.76-9.09 7.421-3.104 15.402-6.148 23.917-9.127 2.09-.741 4.212-1.467 6.365-2.193.843-.279 1.693-.565 2.547-.844a756.412 756.412 0 0 1 4.972-1.614c.61-.191 1.223-.389 1.836-.579 9.807-3.14 20.217-6.141 31.191-9.075 1.313-.352 2.634-.704 3.968-1.042a889.89 889.89 0 0 1 18.37-4.607c123.378-29.632 306.961-48.413 511.966-48.413 210.095 0 397.68 19.742 521.037 50.614a946.251 946.251 0 0 1 18.775 4.93c9.1 2.494 17.792 5.055 26.066 7.688.498.154.996.316 1.488.477.219.073.439.139.658.213 1.453.462 2.888.917 4.309 1.409.854.279 1.707.558 2.55.844 2.832.946 5.609 1.915 8.333 2.883a438.89 438.89 0 0 1 21.951 8.436z"></path><linearGradient id="d" x1="1739.319" x2="-65.698" y1="815.447" y2="828.31" gradientUnits="userSpaceOnUse"><stop offset="0" stop-color="#a0cefc" class="stopColorfca0bb svgShape"></stop><stop offset=".123" stop-color="#adcbe9" class="stopColore9adcc svgShape"></stop><stop offset=".33" stop-color="#bed0e2" class="stopColorcfbee2 svgShape"></stop><stop offset=".542" stop-color="#bcd7f2" class="stopColorbccbf2 svgShape"></stop><stop offset=".762" stop-color="#b1d6fc" class="stopColorb1d3fc svgShape"></stop><stop offset="1" stop-color="#add6ff" class="stopColoradd5ff svgShape"></stop></linearGradient><path fill="url(#d)" d="M1181.394 821.893c-3.871.439-8.01.867-12.402 1.279a905.076 905.076 0 0 1-6.449.59l-2.3.201-1.378.118-1.451.123c-8.706.731-18.215 1.431-28.459 2.089-2.07.134-4.171.266-6.301.397-70.604 4.345-173.491 7.079-288.05 7.079-117.723 0-223.116-2.89-293.824-7.439-3.406-.219-6.73-.442-9.97-.669-1.669-.118-3.316-.234-4.941-.352-4.891-.356-9.577-.728-14.053-1.103l-1.258-.106c-1.31-.11-2.599-.221-3.875-.338l-.032-.003c-1.771-.157-3.504-.315-5.201-.474a728.923 728.923 0 0 1-13.616-1.393c4.252-.476 8.826-.942 13.706-1.398 1.198-.114 2.414-.225 3.647-.336.483-.043.97-.087 1.459-.129a1434.5 1434.5 0 0 1 2.849-.247l1.052-.089a1277.93 1277.93 0 0 1 20.148-1.55c3.418-.239 6.928-.475 10.527-.706 70.701-4.54 175.903-7.417 293.38-7.417 120.394 0 227.89 3.025 298.579 7.754 3.687.248 7.275.5 10.759.755a1285.078 1285.078 0 0 1 15.79 1.251c.126.011.252.021.377.033.833.071 1.655.141 2.47.216.489.043.978.085 1.461.129 1.623.145 3.214.293 4.775.442 4.461.423 8.658.856 12.581 1.293z" opacity=".5"></path><linearGradient id="e" x1="912.347" x2="498.224" y1="807.843" y2="256.117" gradientUnits="userSpaceOnUse"><stop offset="0" stop-color="#abd5ff" class="stopColorc4abff svgShape"></stop><stop offset=".205" stop-color="#b7dbff" class="stopColorccb7ff svgShape"></stop><stop offset=".69" stop-color="#cde6ff" class="stopColordccdff svgShape"></stop><stop offset="1" stop-color="#d5eaff" class="stopColore2d5ff svgShape"></stop></linearGradient><path fill="url(#e)" d="M504.591 246.68h404.851v575.214H504.591z"></path><linearGradient id="f" x1="904.463" x2="490.34" y1="807.843" y2="256.117" gradientUnits="userSpaceOnUse"><stop offset="0" stop-color="#abd5ff" class="stopColorc4abff svgShape"></stop><stop offset=".205" stop-color="#b7dbff" class="stopColorccb7ff svgShape"></stop><stop offset=".69" stop-color="#cde6ff" class="stopColordccdff svgShape"></stop><stop offset="1" stop-color="#d5eaff" class="stopColore2d5ff svgShape"></stop></linearGradient><path fill="url(#f)" d="M496.707 246.68h404.851v575.214H496.707z"></path><linearGradient id="g" x1="904.463" x2="490.34" y1="807.843" y2="256.117" gradientUnits="userSpaceOnUse"><stop offset="0" stop-color="#abd5ff" class="stopColorc4abff svgShape"></stop><stop offset=".205" stop-color="#b7dbff" class="stopColorccb7ff svgShape"></stop><stop offset=".69" stop-color="#cde6ff" class="stopColordccdff svgShape"></stop><stop offset="1" stop-color="#d5eaff" class="stopColore2d5ff svgShape"></stop></linearGradient><path fill="url(#g)" d="M496.707 246.68h404.851v575.214H496.707z" opacity=".5"></path><g opacity=".5" fill="#000000" class="color000000 svgShape"><path fill="#abd5ff" d="M555.34 510.052h290.356v11.231H555.34zM555.34 528.549h290.356v11.231H555.34zM555.34 547.047h290.356v11.231H555.34zM555.34 565.544h290.356v11.231H555.34zM555.34 584.041h290.356v11.231H555.34zM555.34 602.539h219.011v11.231H555.34z" class="colorc4abff svgShape"></path></g><path fill="#abd5ff" d="M574.606 300.261H823.66v26.425H574.606zM555.341 362.029v123.239h290.356V362.029H555.341zm7.247 8.258a2.31 2.31 0 0 1 2.312-2.312h129.151a2.31 2.31 0 0 1 2.312 2.312v6.936a2.31 2.31 0 0 1-2.312 2.312H564.9a2.31 2.31 0 0 1-2.312-2.312v-6.936zm87.701 110.991h-90.957v-20.654h90.957v20.654zm0-24.645h-90.957V435.54h90.957v21.093zm0-25.084h-90.957v-21.094h90.957v21.094zm0-25.083h-90.957v-20.654h90.957v20.654zm96.12 74.812h-91.783v-20.654h91.783v20.654zm0-24.645h-91.783V435.54h91.783v21.093zm0-25.084h-91.783v-21.094h91.783v21.094zm0-25.083h-91.783v-20.654h91.783v20.654zm95.298 74.812h-90.961v-20.654h90.961v20.654zm0-24.645h-90.961V435.54h90.961v21.093zm0-25.084h-90.961v-21.094h90.961v21.094zm0-25.083h-90.961v-20.654h90.961v20.654z" class="colorc4abff svgShape"></path><path fill="#abd5ff" d="M639.881 390.766h-70.356a2.312 2.312 0 0 0-2.312 2.312v6.937a2.312 2.312 0 0 0 2.312 2.312h70.356a2.312 2.312 0 0 0 2.312-2.312v-6.937a2.312 2.312 0 0 0-2.312-2.312zM821.348 390.766h-46.243a2.312 2.312 0 0 0-2.312 2.312v6.937a2.312 2.312 0 0 0 2.312 2.312h46.243a2.312 2.312 0 0 0 2.312-2.312v-6.937a2.312 2.312 0 0 0-2.312-2.312zM815.999 440.312h-35.547a2.312 2.312 0 0 0-2.312 2.312v6.936a2.312 2.312 0 0 0 2.312 2.312h35.547a2.312 2.312 0 0 0 2.312-2.312v-6.936a2.312 2.312 0 0 0-2.312-2.312zM634.302 415.539h-59.198c-1.074 0-1.945 1.035-1.945 2.312v6.936c0 1.277.871 2.312 1.945 2.312h59.198c1.074 0 1.946-1.035 1.946-2.312v-6.936c-.001-1.277-.872-2.312-1.946-2.312zM624.852 440.312h-40.298a2.312 2.312 0 0 0-2.312 2.312v6.936a2.312 2.312 0 0 0 2.312 2.312h40.298a2.312 2.312 0 0 0 2.312-2.312v-6.936a2.313 2.313 0 0 0-2.312-2.312zM639.881 465.086h-70.356a2.312 2.312 0 0 0-2.312 2.312v6.936a2.312 2.312 0 0 0 2.312 2.312h70.356a2.312 2.312 0 0 0 2.312-2.312v-6.936a2.312 2.312 0 0 0-2.312-2.312z" opacity=".5" class="colorc4abff svgShape"></path><g opacity=".5" fill="#000000" class="color000000 svgShape"><path fill="#abd5ff" d="M694.022 390.766h-14.313a2.312 2.312 0 0 0-2.312 2.312v6.937a2.312 2.312 0 0 0 2.312 2.312h14.313a2.312 2.312 0 0 0 2.312-2.312v-6.937a2.312 2.312 0 0 0-2.312-2.312zM721.327 390.766h-14.314a2.312 2.312 0 0 0-2.312 2.312v6.937a2.312 2.312 0 0 0 2.312 2.312h14.314a2.312 2.312 0 0 0 2.312-2.312v-6.937a2.312 2.312 0 0 0-2.312-2.312zM701.977 397.813h-2.588a.963.963 0 0 0-.963.963v2.587c0 .532.431.963.963.963h2.588a.963.963 0 0 0 .963-.963v-2.587a.963.963 0 0 0-.963-.963z" class="colorc4abff svgShape"></path></g><g opacity=".5" fill="#000000" class="color000000 svgShape"><path fill="#abd5ff" d="M700.628 415.539h-20.92a2.312 2.312 0 0 0-2.312 2.312v6.936a2.312 2.312 0 0 0 2.312 2.312h20.92a2.312 2.312 0 0 0 2.312-2.312v-6.936a2.312 2.312 0 0 0-2.312-2.312zM721.327 415.539h-7.707a2.312 2.312 0 0 0-2.312 2.312v6.936a2.312 2.312 0 0 0 2.312 2.312h7.707a2.312 2.312 0 0 0 2.312-2.312v-6.936a2.312 2.312 0 0 0-2.312-2.312zM708.583 422.586h-2.588a.963.963 0 0 0-.963.963v2.588c0 .532.431.963.963.963h2.588a.963.963 0 0 0 .963-.963v-2.588a.963.963 0 0 0-.963-.963z" class="colorc4abff svgShape"></path></g><g opacity=".5" fill="#000000" class="color000000 svgShape"><path fill="#abd5ff" d="M688.737 440.312h-9.028a2.312 2.312 0 0 0-2.312 2.312v6.936a2.312 2.312 0 0 0 2.312 2.312h9.028a2.312 2.312 0 0 0 2.312-2.312v-6.936a2.312 2.312 0 0 0-2.312-2.312zM717.033 440.312h-15.304a2.312 2.312 0 0 0-2.312 2.312v6.936a2.312 2.312 0 0 0 2.312 2.312h15.304a2.312 2.312 0 0 0 2.312-2.312v-6.936a2.312 2.312 0 0 0-2.312-2.312zM696.692 447.359h-2.587a.963.963 0 0 0-.963.964v2.587c0 .532.431.963.963.963h2.587a.963.963 0 0 0 .963-.963v-2.587a.963.963 0 0 0-.963-.964z" class="colorc4abff svgShape"></path></g><g opacity=".5" fill="#000000" class="color000000 svgShape"><path fill="#abd5ff" d="M686.755 465.086h-7.047a2.312 2.312 0 0 0-2.312 2.312v6.936a2.312 2.312 0 0 0 2.312 2.312h7.047a2.312 2.312 0 0 0 2.312-2.312v-6.936a2.312 2.312 0 0 0-2.312-2.312zM706.463 465.086h-6.716a2.312 2.312 0 0 0-2.312 2.312v6.936a2.312 2.312 0 0 0 2.312 2.312h6.716a2.312 2.312 0 0 0 2.312-2.312v-6.936a2.311 2.311 0 0 0-2.312-2.312zM694.71 472.132h-2.588a.963.963 0 0 0-.963.963v2.587c0 .532.431.963.963.963h2.588a.963.963 0 0 0 .963-.963v-2.587a.963.963 0 0 0-.963-.963z" class="colorc4abff svgShape"></path></g><path fill="#abd5ff" d="M555.34 628.916h290.356v11.231H555.34zM555.34 648.321h212.548v11.231H555.34zM555.34 668.899h290.356v11.231H555.34zM555.34 688.305h145.178v11.231H555.34z" opacity=".35" class="colorc4abff svgShape"></path><path fill="#021b79" d="M555.341 242.232v63.638c0 6.326-5.146 11.472-11.468 11.472-6.326 0-11.472-5.146-11.472-11.472v-44.133a2.642 2.642 0 0 1 5.286 0v44.133a6.193 6.193 0 0 0 6.187 6.187 6.192 6.192 0 0 0 6.183-6.187v-63.638c0-5.582-4.542-10.124-10.124-10.124-5.582 0-10.124 4.542-10.124 10.124v4.449h-5.285v-4.449c0-8.499 6.913-15.409 15.409-15.409s15.408 6.91 15.408 15.409z" class="color29283a svgShape"></path><g opacity=".75" fill="#000000" class="color000000 svgShape"><linearGradient id="h" x1="1266.832" x2="897.714" y1="488.726" y2="368.598" gradientTransform="rotate(-32.86 1201.083 1137.848)" gradientUnits="userSpaceOnUse"><stop offset="0" stop-color="#2043c5" class="stopColorc5205c svgShape"></stop><stop offset=".2" stop-color="#2e52da" class="stopColorda2e62 svgShape"></stop><stop offset=".453" stop-color="#3a5fec" class="stopColorec3a68 svgShape"></stop><stop offset=".716" stop-color="#4268f7" class="stopColorf7426b svgShape"></stop><stop offset="1" stop-color="#446afb" class="stopColorfb446c svgShape"></stop></linearGradient><path fill="url(#h)" d="M869.003 557.744 600.69 731.068l-47.077-72.877 268.312-173.325 47.078 72.878zM602.314 723.519 861.453 556.12l-41.151-63.704-259.139 167.399 41.151 63.704z"></path><linearGradient id="i" x1="1266.833" x2="897.716" y1="488.726" y2="368.599" gradientTransform="rotate(-32.86 1201.083 1137.848)" gradientUnits="userSpaceOnUse"><stop offset="0" stop-color="#2043c5" class="stopColorc5205c svgShape"></stop><stop offset=".2" stop-color="#2e52da" class="stopColorda2e62 svgShape"></stop><stop offset=".453" stop-color="#3a5fec" class="stopColorec3a68 svgShape"></stop><stop offset=".716" stop-color="#4268f7" class="stopColorf7426b svgShape"></stop><stop offset="1" stop-color="#446afb" class="stopColorfb446c svgShape"></stop></linearGradient><path fill="url(#i)" d="M892.11 562.319 595.361 754.013l-64.854-100.397 296.749-191.694 64.854 100.397zM598.608 738.914 877.01 559.071l-53.003-82.05-278.402 179.843 53.003 82.05z"></path><linearGradient id="j" x1="1257.813" x2="888.693" y1="516.447" y2="396.318" gradientTransform="rotate(-32.86 1201.083 1137.848)" gradientUnits="userSpaceOnUse"><stop offset="0" stop-color="#2043c5" class="stopColorc5205c svgShape"></stop><stop offset=".2" stop-color="#2e52da" class="stopColorda2e62 svgShape"></stop><stop offset=".453" stop-color="#3a5fec" class="stopColorec3a68 svgShape"></stop><stop offset=".716" stop-color="#4268f7" class="stopColorf7426b svgShape"></stop><stop offset="1" stop-color="#446afb" class="stopColorfb446c svgShape"></stop></linearGradient><path fill="url(#j)" d="m651.705 612.063-11.97 7.732.728 15.732c.087 1.862.18 3.508.309 5.144a336.269 336.269 0 0 0-4.519-2.387l-13.857-7.289-11.951 7.72 29.741 14.766.993 32.962-5.515-8.537-19.02 12.286-7.262-11.241 17.065-11.024-5.993-9.277-17.065 11.024-6-9.287 18.043-11.655-6.034-9.341-28.296 18.279 31.322 48.488 28.787-18.596.486-.314 11.451-7.397-1.065-14.615c-.109-2.86-.24-5.085-.396-7.025 1.888.955 3.946 1.954 6.38 3.12l13.242 6.789 11.977-7.737-31.088-15.085-.493-33.235z"></path><linearGradient id="k" x1="1263.18" x2="894.06" y1="499.953" y2="379.825" gradientTransform="rotate(-32.86 1201.083 1137.848)" gradientUnits="userSpaceOnUse"><stop offset="0" stop-color="#2043c5" class="stopColorc5205c svgShape"></stop><stop offset=".2" stop-color="#2e52da" class="stopColorda2e62 svgShape"></stop><stop offset=".453" stop-color="#3a5fec" class="stopColorec3a68 svgShape"></stop><stop offset=".716" stop-color="#4268f7" class="stopColorf7426b svgShape"></stop><stop offset="1" stop-color="#446afb" class="stopColorfb446c svgShape"></stop></linearGradient><path fill="url(#k)" d="M683.554 597.031c-4.939-.793-10.518.791-16.581 4.707-3.973 2.567-7.57 5.308-10.688 8.148l-1.71 1.557 30.759 47.616 10.254-6.624-11.145-17.252a44.944 44.944 0 0 0 2.302-1.407c6.375-4.118 10.463-9.549 11.5-15.246.898-4.486-.13-9.056-3.055-13.584-2.877-4.454-7.029-7.269-11.636-7.915zm1.551 14.8c3.783 5.857-.161 10.148-4.137 12.716a30.358 30.358 0 0 1-2.459 1.45l-8.508-13.17a40.77 40.77 0 0 1 2.968-2.092c5.351-3.456 9.434-3.087 12.136 1.096z"></path><linearGradient id="l" x1="1266.851" x2="897.721" y1="488.693" y2="368.562" gradientTransform="rotate(-32.86 1201.083 1137.848)" gradientUnits="userSpaceOnUse"><stop offset="0" stop-color="#2043c5" class="stopColorc5205c svgShape"></stop><stop offset=".2" stop-color="#2e52da" class="stopColorda2e62 svgShape"></stop><stop offset=".453" stop-color="#3a5fec" class="stopColorec3a68 svgShape"></stop><stop offset=".716" stop-color="#4268f7" class="stopColorf7426b svgShape"></stop><stop offset="1" stop-color="#446afb" class="stopColorfb446c svgShape"></stop></linearGradient><path fill="url(#l)" d="m721.821 635.491 10.254-6.624-31.323-48.488-10.253 6.624z"></path><linearGradient id="m" x1="1269.359" x2="900.236" y1="480.97" y2="360.841" gradientTransform="rotate(-32.86 1201.083 1137.848)" gradientUnits="userSpaceOnUse"><stop offset="0" stop-color="#2043c5" class="stopColorc5205c svgShape"></stop><stop offset=".2" stop-color="#2e52da" class="stopColorda2e62 svgShape"></stop><stop offset=".453" stop-color="#3a5fec" class="stopColorec3a68 svgShape"></stop><stop offset=".716" stop-color="#4268f7" class="stopColorf7426b svgShape"></stop><stop offset="1" stop-color="#446afb" class="stopColorfb446c svgShape"></stop></linearGradient><path fill="url(#m)" d="M759.364 590.186c-3.153-3.073-6.33-4.919-9.495-5.525 2.146-5.05 1.714-10.649-1.379-15.437-2.635-4.08-6.444-6.682-10.691-7.321-5.056-.826-10.28.724-16.937 5.024-4.164 2.69-8.171 5.786-10.718 8.282l-1.592 1.56 30.672 47.481 10.254-6.624-12.286-19.02 3.003-1.94c3.685-2.177 6.151-2.328 10.959 2.481 5.875 5.752 8.687 8.211 10.373 9.073l1.401.717 11.024-7.122-4.004-2.205c-1.887-1.037-6.715-5.693-10.584-9.424zm-20.707-13.687c2.445 3.785 1.061 7.881-3.703 10.958l-3.504 2.263-7.623-11.801a37.511 37.511 0 0 1 3.194-2.286c7.873-4.958 10.705-.575 11.636.866z"></path><linearGradient id="n" x1="1274.063" x2="904.94" y1="466.514" y2="346.385" gradientTransform="rotate(-32.86 1201.083 1137.848)" gradientUnits="userSpaceOnUse"><stop offset="0" stop-color="#2043c5" class="stopColorc5205c svgShape"></stop><stop offset=".2" stop-color="#2e52da" class="stopColorda2e62 svgShape"></stop><stop offset=".453" stop-color="#3a5fec" class="stopColorec3a68 svgShape"></stop><stop offset=".716" stop-color="#4268f7" class="stopColorf7426b svgShape"></stop><stop offset="1" stop-color="#446afb" class="stopColorfb446c svgShape"></stop></linearGradient><path fill="url(#n)" d="m773.057 573.221 17.066-11.024-5.993-9.276-17.065 11.024-6-9.288 18.043-11.655-6.034-9.341-28.296 18.279 31.322 48.488 29.273-18.91-6.034-9.342-19.02 12.287z"></path><linearGradient id="o" x1="1277.63" x2="908.509" y1="455.548" y2="335.419" gradientTransform="rotate(-32.86 1201.083 1137.848)" gradientUnits="userSpaceOnUse"><stop offset="0" stop-color="#2043c5" class="stopColorc5205c svgShape"></stop><stop offset=".2" stop-color="#2e52da" class="stopColorda2e62 svgShape"></stop><stop offset=".453" stop-color="#3a5fec" class="stopColorec3a68 svgShape"></stop><stop offset=".716" stop-color="#4268f7" class="stopColorf7426b svgShape"></stop><stop offset="1" stop-color="#446afb" class="stopColorfb446c svgShape"></stop></linearGradient><path fill="url(#o)" d="M816.069 514.052c-7.04-1.258-14.654.839-23.278 6.41a99.194 99.194 0 0 0-11.787 8.942l-1.761 1.555 30.494 47.206 2.184-1.083c3.361-1.667 7.027-3.779 10.897-6.279 9.186-5.934 14.898-13.049 16.512-20.555 1.669-7.468-.087-15.499-5.077-23.224-4.758-7.365-10.884-11.731-18.184-12.972zm1.948 46.89c-1.003.648-2.285 1.459-3.493 2.137l-19.803-30.655c.989-.823 2.363-1.864 4.197-3.049 5.242-3.386 10.086-4.626 14.397-3.685 4.045.883 7.591 3.678 10.55 8.321 6.904 10.687 4.881 20-5.848 26.931z"></path></g><linearGradient id="p" x1="1155.681" x2="874.794" y1="816.12" y2="625.351" gradientUnits="userSpaceOnUse"><stop offset="0" stop-color="#7abcff" class="stopColorff7a83 svgShape"></stop><stop offset=".086" stop-color="#83c1ff" class="stopColorff8883 svgShape"></stop><stop offset=".331" stop-color="#84c1fe" class="stopColorfea984 svgShape"></stop><stop offset=".565" stop-color="#85c1fe" class="stopColorfec185 svgShape"></stop><stop offset=".78" stop-color="#85c1fe" class="stopColorfed085 svgShape"></stop><stop offset=".96" stop-color="#85c1fe" class="stopColorfed585 svgShape"></stop></linearGradient><path fill="url(#p)" d="M872.775 617.714h283.616v205.153H872.775z"></path><linearGradient id="q" x1="1170.181" x2="889.294" y1="794.767" y2="603.998" gradientUnits="userSpaceOnUse"><stop offset="0" stop-color="#7abcff" class="stopColorff7a83 svgShape"></stop><stop offset=".086" stop-color="#83c1ff" class="stopColorff8883 svgShape"></stop><stop offset=".331" stop-color="#84c1fe" class="stopColorfea984 svgShape"></stop><stop offset=".565" stop-color="#85c1fe" class="stopColorfec185 svgShape"></stop><stop offset=".78" stop-color="#85c1fe" class="stopColorfed085 svgShape"></stop><stop offset=".96" stop-color="#85c1fe" class="stopColorfed585 svgShape"></stop></linearGradient><path fill="url(#q)" d="M964.652 617.713v205.152h191.737V617.713H964.652zm58.758 31.776H976.6v-18.334h46.81v18.334z" opacity=".5"></path><g opacity=".35" fill="#000000" class="color000000 svgShape"><linearGradient id="r" x1="1333.568" x2="1178.427" y1="652.862" y2="602.372" gradientTransform="rotate(-17.021 1469.188 1319.68)" gradientUnits="userSpaceOnUse"><stop offset="0" stop-color="#2043c5" class="stopColorc5205c svgShape"></stop><stop offset=".2" stop-color="#2e52da" class="stopColorda2e62 svgShape"></stop><stop offset=".453" stop-color="#3a5fec" class="stopColorec3a68 svgShape"></stop><stop offset=".716" stop-color="#4268f7" class="stopColorf7426b svgShape"></stop><stop offset="1" stop-color="#446afb" class="stopColorfb446c svgShape"></stop></linearGradient><path fill="url(#r)" d="m1130.045 718.079-128.375 39.292-10.672-34.868 128.375-39.292 10.672 34.868zm-126.853 36.426 123.986-37.949-9.329-30.479-123.987 37.949 9.33 30.479z"></path><linearGradient id="s" x1="1333.568" x2="1178.428" y1="652.862" y2="602.373" gradientTransform="rotate(-17.021 1469.188 1319.68)" gradientUnits="userSpaceOnUse"><stop offset="0" stop-color="#2043c5" class="stopColorc5205c svgShape"></stop><stop offset=".2" stop-color="#2e52da" class="stopColorda2e62 svgShape"></stop><stop offset=".453" stop-color="#3a5fec" class="stopColorec3a68 svgShape"></stop><stop offset=".716" stop-color="#4268f7" class="stopColorf7426b svgShape"></stop><stop offset="1" stop-color="#446afb" class="stopColorfb446c svgShape"></stop></linearGradient><path fill="url(#s)" d="m1138.863 722.58-141.981 43.456-14.702-48.035 141.981-43.456 14.702 48.035zm-138.936 37.724 133.203-40.77-12.016-39.257-133.203 40.77 12.016 39.257z"></path><linearGradient id="t" x1="1329.776" x2="1174.636" y1="664.511" y2="614.021" gradientTransform="rotate(-17.021 1469.188 1319.68)" gradientUnits="userSpaceOnUse"><stop offset="0" stop-color="#2043c5" class="stopColorc5205c svgShape"></stop><stop offset=".2" stop-color="#2e52da" class="stopColorda2e62 svgShape"></stop><stop offset=".453" stop-color="#3a5fec" class="stopColorec3a68 svgShape"></stop><stop offset=".716" stop-color="#4268f7" class="stopColorf7426b svgShape"></stop><stop offset="1" stop-color="#446afb" class="stopColorfb446c svgShape"></stop></linearGradient><path fill="url(#t)" d="m1035.952 715.107-5.727 1.753-1.511 6.445c-.178.763-.33 1.439-.465 2.115-.498-.484-1.012-.973-1.553-1.484l-4.766-4.537-5.718 1.75 10.331 9.383-3.381 13.442-1.25-4.085-9.1 2.785-1.646-5.378 8.165-2.499-1.359-4.438-8.165 2.499-1.36-4.444 8.633-2.642-1.368-4.469-13.539 4.144 7.101 23.199 13.773-4.216.232-.071 5.479-1.677 1.246-6.031c.284-1.169.487-2.084.646-2.886a133.83 133.83 0 0 0 2.222 1.993l4.575 4.264 5.731-1.754-10.839-9.667 3.613-13.494z"></path><linearGradient id="u" x1="1332.033" x2="1176.892" y1="657.58" y2="607.09" gradientTransform="rotate(-17.021 1469.188 1319.68)" gradientUnits="userSpaceOnUse"><stop offset="0" stop-color="#2043c5" class="stopColorc5205c svgShape"></stop><stop offset=".2" stop-color="#2e52da" class="stopColorda2e62 svgShape"></stop><stop offset=".453" stop-color="#3a5fec" class="stopColorec3a68 svgShape"></stop><stop offset=".716" stop-color="#4268f7" class="stopColorf7426b svgShape"></stop><stop offset="1" stop-color="#446afb" class="stopColorfb446c svgShape"></stop></linearGradient><path fill="url(#u)" d="M1050.554 712.684c-1.906-.887-4.343-.887-7.244.001-1.901.582-3.67 1.278-5.256 2.068l-.87.433 6.973 22.782 4.906-1.502-2.527-8.254a19.09 19.09 0 0 0 1.093-.305c3.05-.934 5.326-2.661 6.399-4.845.878-1.711.986-3.677.323-5.843-.653-2.131-2.008-3.745-3.797-4.535zm-1.071 6.162c.858 2.802-1.23 4.084-3.132 4.667-.436.133-.821.234-1.161.304l-1.929-6.301c.371-.152.853-.325 1.44-.505 2.561-.784 4.169-.166 4.782 1.835z"></path><linearGradient id="v" x1="1333.569" x2="1178.437" y1="652.846" y2="602.359" gradientTransform="rotate(-17.021 1469.188 1319.68)" gradientUnits="userSpaceOnUse"><stop offset="0" stop-color="#2043c5" class="stopColorc5205c svgShape"></stop><stop offset=".2" stop-color="#2e52da" class="stopColorda2e62 svgShape"></stop><stop offset=".453" stop-color="#3a5fec" class="stopColorec3a68 svgShape"></stop><stop offset=".716" stop-color="#4268f7" class="stopColorf7426b svgShape"></stop><stop offset="1" stop-color="#446afb" class="stopColorfb446c svgShape"></stop></linearGradient><path fill="url(#v)" d="m1061.613 732.625 4.906-1.501-7.1-23.199-4.906 1.501z"></path><linearGradient id="w" x1="1334.628" x2="1179.49" y1="649.602" y2="599.113" gradientTransform="rotate(-17.021 1469.188 1319.68)" gradientUnits="userSpaceOnUse"><stop offset="0" stop-color="#2043c5" class="stopColorc5205c svgShape"></stop><stop offset=".2" stop-color="#2e52da" class="stopColorda2e62 svgShape"></stop><stop offset=".453" stop-color="#3a5fec" class="stopColorec3a68 svgShape"></stop><stop offset=".716" stop-color="#4268f7" class="stopColorf7426b svgShape"></stop><stop offset="1" stop-color="#446afb" class="stopColorfb446c svgShape"></stop></linearGradient><path fill="url(#w)" d="M1081.992 718.615c-.922-1.604-1.995-2.715-3.205-3.323 1.447-1.796 1.915-4.109 1.214-6.4-.598-1.952-1.839-3.441-3.483-4.187-1.95-.914-4.24-.887-7.425.088-1.992.61-3.968 1.402-5.284 2.119l-.823.448 6.953 22.718 4.906-1.502-2.785-9.1 1.437-.44c1.74-.457 2.754-.235 4.146 2.261 1.716 3 2.57 4.317 3.153 4.859l.484.451 5.275-1.615-1.366-1.351c-.643-.636-2.061-3.073-3.197-5.026zm-6.802-7.91c.554 1.811-.475 3.308-2.755 4.006l-1.676.513-1.728-5.646a15.81 15.81 0 0 1 1.554-.558c3.752-1.101 4.394.996 4.605 1.685z"></path><linearGradient id="x" x1="1336.605" x2="1181.469" y1="643.527" y2="593.039" gradientTransform="rotate(-17.021 1469.188 1319.68)" gradientUnits="userSpaceOnUse"><stop offset="0" stop-color="#2043c5" class="stopColorc5205c svgShape"></stop><stop offset=".2" stop-color="#2e52da" class="stopColorda2e62 svgShape"></stop><stop offset=".453" stop-color="#3a5fec" class="stopColorec3a68 svgShape"></stop><stop offset=".716" stop-color="#4268f7" class="stopColorf7426b svgShape"></stop><stop offset="1" stop-color="#446afb" class="stopColorfb446c svgShape"></stop></linearGradient><path fill="url(#x)" d="m1089.475 713.327 8.165-2.499-1.358-4.438-8.166 2.499-1.36-4.444 8.633-2.642-1.368-4.469-13.538 4.143 7.1 23.2 14.006-4.287-1.368-4.47-9.1 2.786z"></path><linearGradient id="y" x1="1338.106" x2="1182.967" y1="638.92" y2="588.43" gradientTransform="rotate(-17.021 1469.188 1319.68)" gradientUnits="userSpaceOnUse"><stop offset="0" stop-color="#2043c5" class="stopColorc5205c svgShape"></stop><stop offset=".2" stop-color="#2e52da" class="stopColorda2e62 svgShape"></stop><stop offset=".453" stop-color="#3a5fec" class="stopColorec3a68 svgShape"></stop><stop offset=".716" stop-color="#4268f7" class="stopColorf7426b svgShape"></stop><stop offset="1" stop-color="#446afb" class="stopColorfb446c svgShape"></stop></linearGradient><path fill="url(#y)" d="M1113.655 694.339c-2.702-1.316-6.021-1.342-10.147-.079a41.734 41.734 0 0 0-5.792 2.263l-.89.427 6.913 22.586 1.007-.187c1.55-.288 3.275-.722 5.126-1.289 4.395-1.345 7.521-3.567 9.035-6.416 1.532-2.828 1.743-6.277.612-9.973-1.078-3.525-3.054-5.993-5.864-7.332zm-4.592 19.182c-.48.147-1.091.328-1.657.464l-4.489-14.667a18.277 18.277 0 0 1 2.047-.751c2.508-.768 4.609-.713 6.244.162 1.534.821 2.648 2.358 3.311 4.575 1.563 5.113-.323 8.646-5.456 10.217z"></path></g><radialGradient id="z" cx="914.104" cy="468.16" r="31.264" gradientUnits="userSpaceOnUse"><stop offset="0" stop-color="#446afb" class="stopColorfb446c svgShape"></stop><stop offset=".284" stop-color="#4268f7" class="stopColorf7426b svgShape"></stop><stop offset=".547" stop-color="#3a5fec" class="stopColorec3a68 svgShape"></stop><stop offset=".8" stop-color="#2e52da" class="stopColorda2e62 svgShape"></stop><stop offset="1" stop-color="#2043c5" class="stopColorc5205c svgShape"></stop></radialGradient><circle cx="921.848" cy="481.278" r="26.306" fill="url(#z)"></circle><radialGradient id="A" cx="1068.398" cy="471.612" r="33.386" gradientUnits="userSpaceOnUse"><stop offset="0" stop-color="#446afb" class="stopColorfb446c svgShape"></stop><stop offset=".284" stop-color="#4268f7" class="stopColorf7426b svgShape"></stop><stop offset=".547" stop-color="#3a5fec" class="stopColorec3a68 svgShape"></stop><stop offset=".8" stop-color="#2e52da" class="stopColorda2e62 svgShape"></stop><stop offset="1" stop-color="#2043c5" class="stopColorc5205c svgShape"></stop></radialGradient><circle cx="1076.669" cy="485.62" r="28.091" fill="url(#A)"></circle><radialGradient id="B" cx="1025.899" cy="476.895" r="26.745" gradientUnits="userSpaceOnUse"><stop offset="0" stop-color="#446afb" class="stopColorfb446c svgShape"></stop><stop offset=".284" stop-color="#4268f7" class="stopColorf7426b svgShape"></stop><stop offset=".547" stop-color="#3a5fec" class="stopColorec3a68 svgShape"></stop><stop offset=".8" stop-color="#2e52da" class="stopColorda2e62 svgShape"></stop><stop offset="1" stop-color="#2043c5" class="stopColorc5205c svgShape"></stop></radialGradient><circle cx="1032.524" cy="488.117" r="22.504" fill="url(#B)"></circle><radialGradient id="C" cx="981.718" cy="471.197" r="31.264" gradientUnits="userSpaceOnUse"><stop offset="0" stop-color="#446afb" class="stopColorfb446c svgShape"></stop><stop offset=".284" stop-color="#4268f7" class="stopColorf7426b svgShape"></stop><stop offset=".547" stop-color="#3a5fec" class="stopColorec3a68 svgShape"></stop><stop offset=".8" stop-color="#2e52da" class="stopColorda2e62 svgShape"></stop><stop offset="1" stop-color="#2043c5" class="stopColorc5205c svgShape"></stop></radialGradient><circle cx="989.463" cy="484.315" r="26.306" fill="url(#C)"></circle><radialGradient id="D" cx="940.41" cy="478.801" r="31.264" gradientUnits="userSpaceOnUse"><stop offset="0" stop-color="#446afb" class="stopColorfb446c svgShape"></stop><stop offset=".284" stop-color="#4268f7" class="stopColorf7426b svgShape"></stop><stop offset=".547" stop-color="#3a5fec" class="stopColorec3a68 svgShape"></stop><stop offset=".8" stop-color="#2e52da" class="stopColorda2e62 svgShape"></stop><stop offset="1" stop-color="#2043c5" class="stopColorc5205c svgShape"></stop></radialGradient><circle cx="948.154" cy="491.919" r="26.306" fill="url(#D)"></circle><linearGradient id="E" x1="1105.929" x2="904.005" y1="622.105" y2="474.029" gradientUnits="userSpaceOnUse"><stop offset="0" stop-color="#7abcff" class="stopColorff7a83 svgShape"></stop><stop offset=".086" stop-color="#83c1ff" class="stopColorff8883 svgShape"></stop><stop offset=".331" stop-color="#84c1fe" class="stopColorfea984 svgShape"></stop><stop offset=".565" stop-color="#85c1fe" class="stopColorfec185 svgShape"></stop><stop offset=".78" stop-color="#85c1fe" class="stopColorfed085 svgShape"></stop><stop offset=".96" stop-color="#85c1fe" class="stopColorfed585 svgShape"></stop></linearGradient><path fill="url(#E)" d="M892.985 476.647h221.547v141.068H892.985z"></path><linearGradient id="F" x1="1118.517" x2="918.945" y1="605.021" y2="458.668" gradientUnits="userSpaceOnUse"><stop offset="0" stop-color="#7abcff" class="stopColorff7a83 svgShape"></stop><stop offset=".086" stop-color="#83c1ff" class="stopColorff8883 svgShape"></stop><stop offset=".331" stop-color="#84c1fe" class="stopColorfea984 svgShape"></stop><stop offset=".565" stop-color="#85c1fe" class="stopColorfec185 svgShape"></stop><stop offset=".78" stop-color="#85c1fe" class="stopColorfed085 svgShape"></stop><stop offset=".96" stop-color="#85c1fe" class="stopColorfed585 svgShape"></stop></linearGradient><path fill="url(#F)" d="M964.758 476.648v141.065h149.772V476.648H964.758zm52.411 22.27h-44.86v-13.653h44.86v13.653z" opacity=".5"></path><g opacity=".5" fill="#000000" class="color000000 svgShape"><linearGradient id="G" x1="1155.965" x2="1037.337" y1="819.757" y2="781.15" gradientTransform="rotate(6.564 3271.266 175.43)" gradientUnits="userSpaceOnUse"><stop offset="0" stop-color="#2043c5" class="stopColorc5205c svgShape"></stop><stop offset=".2" stop-color="#2e52da" class="stopColorda2e62 svgShape"></stop><stop offset=".453" stop-color="#3a5fec" class="stopColorec3a68 svgShape"></stop><stop offset=".716" stop-color="#4268f7" class="stopColorf7426b svgShape"></stop><stop offset="1" stop-color="#446afb" class="stopColorfb446c svgShape"></stop></linearGradient><path fill="url(#G)" d="m1087.246 566.764-101.979-11.737 3.188-27.699 101.979 11.737-3.188 27.699zm-100.035-13.279 98.492 11.335 2.786-24.212-98.492-11.335-2.786 24.212z"></path><linearGradient id="H" x1="1155.965" x2="1037.338" y1="819.757" y2="781.151" gradientTransform="rotate(6.564 3271.266 175.43)" gradientUnits="userSpaceOnUse"><stop offset="0" stop-color="#2043c5" class="stopColorc5205c svgShape"></stop><stop offset=".2" stop-color="#2e52da" class="stopColorda2e62 svgShape"></stop><stop offset=".453" stop-color="#3a5fec" class="stopColorec3a68 svgShape"></stop><stop offset=".716" stop-color="#4268f7" class="stopColorf7426b svgShape"></stop><stop offset="1" stop-color="#446afb" class="stopColorfb446c svgShape"></stop></linearGradient><path fill="url(#H)" d="m1092.048 572.616-112.787-12.981 4.392-38.158 112.787 12.981-4.392 38.158zm-108.9-16.066 105.814 12.178 3.589-31.185-105.814-12.178-3.589 31.185z"></path><linearGradient id="I" x1="1153.065" x2="1034.439" y1="828.664" y2="790.058" gradientTransform="rotate(6.564 3271.266 175.43)" gradientUnits="userSpaceOnUse"><stop offset="0" stop-color="#2043c5" class="stopColorc5205c svgShape"></stop><stop offset=".2" stop-color="#2e52da" class="stopColorda2e62 svgShape"></stop><stop offset=".453" stop-color="#3a5fec" class="stopColorec3a68 svgShape"></stop><stop offset=".716" stop-color="#4268f7" class="stopColorf7426b svgShape"></stop><stop offset="1" stop-color="#446afb" class="stopColorfb446c svgShape"></stop></linearGradient><path fill="url(#I)" d="m1022.219 535.899-4.549-.524-3.03 4.054c-.358.48-.671.908-.973 1.34-.201-.492-.412-.991-.634-1.515l-1.952-4.638-4.542-.523 4.369 9.735-6.481 8.385.373-3.245-7.229-.832.492-4.273 6.486.747.406-3.526-6.486-.747.406-3.53 6.858.789.409-3.55-10.755-1.238-2.121 18.429 10.941 1.259.185.021 4.352.501 2.718-3.845c.557-.732.978-1.311 1.336-1.825.274.622.581 1.29.947 2.076l1.901 4.388 4.552.524-4.638-10.089 6.659-8.348z"></path><linearGradient id="J" x1="1154.791" x2="1036.164" y1="823.365" y2="784.758" gradientTransform="rotate(6.564 3271.266 175.43)" gradientUnits="userSpaceOnUse"><stop offset="0" stop-color="#2043c5" class="stopColorc5205c svgShape"></stop><stop offset=".2" stop-color="#2e52da" class="stopColorda2e62 svgShape"></stop><stop offset=".453" stop-color="#3a5fec" class="stopColorec3a68 svgShape"></stop><stop offset=".716" stop-color="#4268f7" class="stopColorf7426b svgShape"></stop><stop offset="1" stop-color="#446afb" class="stopColorfb446c svgShape"></stop></linearGradient><path fill="url(#J)" d="M1033.193 538.667c-1.064-1.205-2.772-1.95-5.077-2.216a26.362 26.362 0 0 0-4.316-.159l-.742.038-2.083 18.098 3.897.448.755-6.557c.286.05.576.088.859.121 2.423.279 4.546-.235 5.966-1.437 1.138-.93 1.816-2.275 2.014-3.996.195-1.693-.262-3.239-1.273-4.34zm-2.636 3.991c-.256 2.226-2.111 2.486-3.622 2.312a9.95 9.95 0 0 1-.907-.142l.576-5.006c.306.007.697.033 1.164.086 2.034.235 2.972 1.16 2.789 2.75z"></path><linearGradient id="K" x1="1155.966" x2="1037.344" y1="819.745" y2="781.14" gradientTransform="rotate(6.564 3271.266 175.43)" gradientUnits="userSpaceOnUse"><stop offset="0" stop-color="#2043c5" class="stopColorc5205c svgShape"></stop><stop offset=".2" stop-color="#2e52da" class="stopColorda2e62 svgShape"></stop><stop offset=".453" stop-color="#3a5fec" class="stopColorec3a68 svgShape"></stop><stop offset=".716" stop-color="#4268f7" class="stopColorf7426b svgShape"></stop><stop offset="1" stop-color="#446afb" class="stopColorfb446c svgShape"></stop></linearGradient><path fill="url(#K)" d="m1034.842 556.025 3.898.448 2.121-18.429-3.898-.448z"></path><linearGradient id="L" x1="1156.776" x2="1038.15" y1="817.264" y2="778.658" gradientTransform="rotate(6.564 3271.266 175.43)" gradientUnits="userSpaceOnUse"><stop offset="0" stop-color="#2043c5" class="stopColorc5205c svgShape"></stop><stop offset=".2" stop-color="#2e52da" class="stopColorda2e62 svgShape"></stop><stop offset=".453" stop-color="#3a5fec" class="stopColorec3a68 svgShape"></stop><stop offset=".716" stop-color="#4268f7" class="stopColorf7426b svgShape"></stop><stop offset="1" stop-color="#446afb" class="stopColorfb446c svgShape"></stop></linearGradient><path fill="url(#L)" d="M1053.408 552.441c-.155-1.406-.567-2.513-1.229-3.309 1.563-.816 2.599-2.294 2.808-4.114.178-1.551-.236-2.974-1.16-3.999-1.087-1.237-2.699-1.918-5.23-2.21-1.583-.182-3.209-.231-4.351-.132l-.714.062-2.077 18.046 3.897.449.832-7.229 1.141.131c1.359.212 2.002.677 2.214 2.853.284 2.627.48 3.811.723 4.369l.202.464 4.19.482-.544-1.364c-.255-.642-.503-2.783-.702-4.499zm-2.346-7.624c-.166 1.439-1.345 2.173-3.156 1.964l-1.332-.153.516-4.485c.319.003.741.025 1.259.084 2.967.376 2.776 2.042 2.713 2.59z"></path><linearGradient id="M" x1="1158.287" x2="1039.663" y1="812.619" y2="774.014" gradientTransform="rotate(6.564 3271.266 175.43)" gradientUnits="userSpaceOnUse"><stop offset="0" stop-color="#2043c5" class="stopColorc5205c svgShape"></stop><stop offset=".2" stop-color="#2e52da" class="stopColorda2e62 svgShape"></stop><stop offset=".453" stop-color="#3a5fec" class="stopColorec3a68 svgShape"></stop><stop offset=".716" stop-color="#4268f7" class="stopColorf7426b svgShape"></stop><stop offset="1" stop-color="#446afb" class="stopColorfb446c svgShape"></stop></linearGradient><path fill="url(#M)" d="m1060.27 551.024 6.486.747.406-3.526-6.486-.746.406-3.53 6.858.789.408-3.55-10.754-1.238-2.121 18.429 11.126 1.28.408-3.55-7.229-.832z"></path><linearGradient id="N" x1="1159.435" x2="1040.809" y1="809.096" y2="770.49" gradientTransform="rotate(6.564 3271.266 175.43)" gradientUnits="userSpaceOnUse"><stop offset="0" stop-color="#2043c5" class="stopColorc5205c svgShape"></stop><stop offset=".2" stop-color="#2e52da" class="stopColorda2e62 svgShape"></stop><stop offset=".453" stop-color="#3a5fec" class="stopColorec3a68 svgShape"></stop><stop offset=".716" stop-color="#4268f7" class="stopColorf7426b svgShape"></stop><stop offset="1" stop-color="#446afb" class="stopColorfb446c svgShape"></stop></linearGradient><path fill="url(#N)" d="M1083.023 545.115c-1.491-1.749-3.809-2.783-7.087-3.16a31.948 31.948 0 0 0-4.751-.186l-.754.027-2.065 17.942.763.177a36.13 36.13 0 0 0 3.987.665c3.491.402 6.361-.199 8.294-1.732 1.939-1.513 3.142-3.865 3.48-6.801.322-2.8-.308-5.134-1.867-6.932zm-9.086 12.037a22.352 22.352 0 0 1-1.303-.182l1.341-11.651c.413-.003.967.019 1.664.1 1.993.229 3.448.91 4.326 2.024.824 1.045 1.134 2.462.92 4.219-.468 4.061-2.87 5.96-6.948 5.49z"></path></g><linearGradient id="O" x1="1116.425" x2="882.497" y1="639.014" y2="482.248" gradientUnits="userSpaceOnUse"><stop offset="0" stop-color="#7abcff" class="stopColorff7a83 svgShape"></stop><stop offset=".086" stop-color="#83c1ff" class="stopColorff8883 svgShape"></stop><stop offset=".331" stop-color="#84c1fe" class="stopColorfea984 svgShape"></stop><stop offset=".565" stop-color="#85c1fe" class="stopColorfec185 svgShape"></stop><stop offset=".78" stop-color="#85c1fe" class="stopColorfed085 svgShape"></stop><stop offset=".96" stop-color="#85c1fe" class="stopColorfed585 svgShape"></stop></linearGradient><path fill="url(#O)" d="m961.496 476.648-17.62 67.946h-55.701v-67.946z" opacity=".3"></path><linearGradient id="P" x1="-1428.076" x2="-1670.409" y1="830.955" y2="668.555" gradientTransform="matrix(-1 0 0 1 -994.3 0)" gradientUnits="userSpaceOnUse"><stop offset="0" stop-color="#7abcff" class="stopColorff7a83 svgShape"></stop><stop offset=".086" stop-color="#83c1ff" class="stopColorff8883 svgShape"></stop><stop offset=".331" stop-color="#84c1fe" class="stopColorfea984 svgShape"></stop><stop offset=".565" stop-color="#85c1fe" class="stopColorfec185 svgShape"></stop><stop offset=".78" stop-color="#85c1fe" class="stopColorfed085 svgShape"></stop><stop offset=".96" stop-color="#85c1fe" class="stopColorfed585 svgShape"></stop></linearGradient><path fill="url(#P)" d="M868.975 539.962h73.32l19.201-63.315h-73.321z"></path><linearGradient id="Q" x1="1155.43" x2="916.253" y1="583.728" y2="423.443" gradientUnits="userSpaceOnUse"><stop offset="0" stop-color="#7abcff" class="stopColorff7a83 svgShape"></stop><stop offset=".086" stop-color="#83c1ff" class="stopColorff8883 svgShape"></stop><stop offset=".331" stop-color="#84c1fe" class="stopColorfea984 svgShape"></stop><stop offset=".565" stop-color="#85c1fe" class="stopColorfec185 svgShape"></stop><stop offset=".78" stop-color="#85c1fe" class="stopColorfed085 svgShape"></stop><stop offset=".96" stop-color="#85c1fe" class="stopColorfed585 svgShape"></stop></linearGradient><path fill="url(#Q)" d="M1114.506 476.648v67.513H977.527l-16.031-67.513z" opacity=".5"></path><linearGradient id="R" x1="1158.58" x2="917.202" y1="582.677" y2="420.917" gradientUnits="userSpaceOnUse"><stop offset="0" stop-color="#7abcff" class="stopColorff7a83 svgShape"></stop><stop offset=".086" stop-color="#83c1ff" class="stopColorff8883 svgShape"></stop><stop offset=".331" stop-color="#84c1fe" class="stopColorfea984 svgShape"></stop><stop offset=".565" stop-color="#85c1fe" class="stopColorfec185 svgShape"></stop><stop offset=".78" stop-color="#85c1fe" class="stopColorfed085 svgShape"></stop><stop offset=".96" stop-color="#85c1fe" class="stopColorfed585 svgShape"></stop></linearGradient><path fill="url(#R)" d="M1133.706 539.962h-153.01l-19.2-63.315h153.01z"></path><linearGradient id="S" x1="-1428.076" x2="-1670.409" y1="830.955" y2="668.555" gradientTransform="matrix(-1 0 0 1 -994.3 0)" gradientUnits="userSpaceOnUse"><stop offset="0" stop-color="#7abcff" class="stopColorff7a83 svgShape"></stop><stop offset=".086" stop-color="#83c1ff" class="stopColorff8883 svgShape"></stop><stop offset=".331" stop-color="#84c1fe" class="stopColorfea984 svgShape"></stop><stop offset=".565" stop-color="#85c1fe" class="stopColorfec185 svgShape"></stop><stop offset=".78" stop-color="#85c1fe" class="stopColorfed085 svgShape"></stop><stop offset=".96" stop-color="#85c1fe" class="stopColorfed585 svgShape"></stop></linearGradient><path fill="url(#S)" d="M868.975 539.962h73.32l19.201-63.315h-73.321z" opacity=".35"></path><linearGradient id="T" x1="1010.296" x2="-509.238" y1="836.657" y2="834.191" gradientUnits="userSpaceOnUse"><stop offset="0" stop-color="#a0cefc" class="stopColorfca0bb svgShape"></stop><stop offset=".123" stop-color="#adcbe9" class="stopColore9adcc svgShape"></stop><stop offset=".33" stop-color="#bed0e2" class="stopColorcfbee2 svgShape"></stop><stop offset=".542" stop-color="#bcd7f2" class="stopColorbccbf2 svgShape"></stop><stop offset=".762" stop-color="#b1d6fc" class="stopColorb1d3fc svgShape"></stop><stop offset="1" stop-color="#add6ff" class="stopColoradd5ff svgShape"></stop></linearGradient><path fill="url(#T)" d="M570.83 835.69c-1.738.467-3.596.921-5.568 1.36-.935.209-1.896.421-2.881.626-.345.07-.694.143-1.047.216l-.618.126a286.66 286.66 0 0 1-13.429 2.353c-31.746 4.866-79.169 7.951-132.152 7.951-55.398 0-104.716-3.376-136.392-8.623-.749-.126-1.489-.249-2.218-.375a254.766 254.766 0 0 1-6.874-1.285c-.593-.119-1.177-.238-1.754-.364-.795-.167-1.573-.335-2.335-.505a148.8 148.8 0 0 1-6.113-1.481 151.019 151.019 0 0 1 6.153-1.487 175.32 175.32 0 0 1 4.044-.853c2.524-.511 5.202-1 8.025-1.479.338-.057.678-.115 1.021-.17 31.674-5.26 81.015-8.64 136.444-8.64 54.052 0 102.314 3.217 134.05 8.248 4.134.659 7.987 1.34 11.537 2.056l.552.112c.373.075.743.15 1.108.229.958.198 1.891.403 2.8.608 2.001.452 3.885.912 5.647 1.377z" opacity=".75"></path><linearGradient id="U" x1="512.66" x2="136.439" y1="689.953" y2="567.406" gradientTransform="rotate(9.87 927.573 1345.406)" gradientUnits="userSpaceOnUse"><stop offset="0" stop-color="#171921" class="stopColor171721 svgShape"></stop><stop offset="1" stop-color="#282c3a" class="stopColor29283a svgShape"></stop></linearGradient><path fill="url(#U)" d="M634.576 502.168 292.56 442.639c-6.066-1.056-11.839 3.006-12.895 9.071l-17.616 101.209c-1.056 6.066 3.005 11.839 9.071 12.894l342.016 59.529c6.066 1.056 11.839-3.006 12.894-9.071l17.616-101.209c1.057-6.065-3.004-11.838-9.07-12.894z"></path><path fill="#88bff6" d="M374.366 486.386c-.135 1.991-.447 4.167-.827 6.55a90.558 90.558 0 0 1-.705 3.683c-.263 1.268-.533 2.586-.852 3.934-.65 2.69-1.342 5.558-2.175 8.529-.417 1.483-.821 3.015-1.275 4.565-.227.772-.46 1.556-.692 2.347-.227.791-.46 1.587-.692 2.396-.974 3.211-1.955 6.544-3.039 9.945-.901 3.015-1.844 5.962-2.733 8.842l-.349 1.134c-.257.803-.508 1.605-.766 2.396-.239.797-.484 1.581-.717 2.365-.49 1.556-.974 3.088-1.44 4.577-.931 2.996-1.814 5.846-2.647 8.523l-2.359 7.476c-.76 2.292-1.403 4.381-2.053 6.207-.65 1.832-1.232 3.407-1.771 4.7-1.091 2.567-2.04 3.971-2.88 3.872-.833-.104-1.477-1.691-2.004-4.528-.27-1.416-.503-3.143-.662-5.147-.171-1.997-.337-4.283-.386-6.796a258.777 258.777 0 0 1-.068-3.952c-.012-1.372.025-2.794.049-4.277.037-2.96.214-6.103.429-9.424.104-1.661.276-3.346.435-5.08.086-.864.172-1.74.257-2.622.11-.882.214-1.765.325-2.666.429-3.584 1.029-7.267 1.697-11.035.729-3.744 1.495-7.39 2.402-10.858.227-.87.447-1.728.668-2.58.245-.846.49-1.679.729-2.506.496-1.648.98-3.266 1.513-4.816.202-.582.398-1.152.6-1.716.876-2.463 1.771-4.798 2.733-6.955.582-1.33 1.152-2.61 1.759-3.811a95.354 95.354 0 0 1 1.814-3.419 45.86 45.86 0 0 1 3.646-5.588c1.189-1.581 2.378-2.855 3.517-3.799 2.255-1.906 4.258-2.537 5.79-1.746 1.538.79 2.451 2.911 2.733 5.98.137 1.531.124 3.308-.004 5.3z" class="colorf68895 svgShape"></path><linearGradient id="V" x1="609.69" x2="277.58" y1="614.933" y2="440.299" gradientUnits="userSpaceOnUse"><stop offset="0" stop-color="#171921" class="stopColor171721 svgShape"></stop><stop offset="1" stop-color="#282c3a" class="stopColor29283a svgShape"></stop></linearGradient><circle cx="455.757" cy="533.991" r="40.441" fill="url(#V)"></circle><path fill="#88bff6" d="M501.579 541.214c-1.777 3.1-4.853 5.552-8.26 6.042a2.683 2.683 0 0 1-.214.031 64.894 64.894 0 0 1-3.284.337c-1.244.11-2.561.165-3.946.208-2.77.098-5.815.025-9.093-.159-3.266-.251-6.783-.588-10.453-1.213-3.67-.613-7.531-1.403-11.477-2.5a118.342 118.342 0 0 1-12.083-4.038l-1.85-.735-1.973-2.341-.006-.006c-.539-.643-1.078-1.287-1.624-1.936-.539-.656-1.103-1.299-1.624-1.979a119.804 119.804 0 0 1-5.668-7.69 132.043 132.043 0 0 1-2.218-3.358 115.601 115.601 0 0 1-6.158-11.054c-1.728-3.646-3.211-7.188-4.345-10.594a99.189 99.189 0 0 1-.827-2.512 135.04 135.04 0 0 1-.686-2.451c-.453-1.605-.79-3.174-1.091-4.675a52.87 52.87 0 0 1-.674-4.32 37.751 37.751 0 0 1-.294-3.922c-.098-2.463.098-4.639.441-6.44.349-1.808.931-3.266 1.63-4.32.705-1.054 1.563-1.71 2.555-1.942.986-.227 2.059-.018 3.168.57 1.121.582 2.243 1.556 3.425 2.849 1.195 1.293 2.371 2.923 3.627 4.816.613.956 1.232 1.979 1.887 3.058.637 1.078 1.262 2.237 1.936 3.438.662 1.201 1.311 2.476 2.016 3.787l2.096 4.112a1373.24 1373.24 0 0 0 2.304 4.632c.711 1.44 1.446 2.917 2.2 4.43 1.599 3.174 3.266 6.513 5.061 9.951 1.814 3.425 3.701 6.985 5.76 10.576.367.668.766 1.311 1.146 1.973.037.067.074.135.116.202a218.131 218.131 0 0 0 7.384 3.229c3.327 1.397 6.605 2.598 9.743 3.732 3.143 1.146 6.183 2.096 9.032 3.021 2.862.876 5.545 1.703 8.015 2.414 2.255.668 4.308 1.268 6.152 1.814.19.061.38.116.57.172.999.294 1.924.607 2.782.882.858.276 1.648.552 2.353.827.966.378 1.787.727 2.449 1.082z" class="colorf68895 svgShape"></path><path fill="#88bff6" d="M503.147 536.404c-.147 1.661-.705 3.309-1.569 4.81-1.777 3.1-4.853 5.552-8.26 6.042a2.683 2.683 0 0 1-.214.031c-.116-3.003.037-6.017.319-9.038.435-4.602 1.164-9.197 1.673-13.744 4.963 1.495 8.505 6.734 8.051 11.899zM343.272 559.787c-1.127 4.02-3.103 12.62-4.23 16.641-.333 1.188-.659 2.492-.157 3.619.755 1.693 2.918 2.119 4.761 2.323l8.441.934c-.228-5.862 1.241-13.794 1.013-19.655-2.839-.759-6.989-3.105-9.828-3.862z" class="colorf68895 svgShape"></path><path fill="#77b4f1" d="M374.372 481.085c.135 1.532.123 3.309-.006 5.3-.135 1.991-.447 4.167-.827 6.55a90.558 90.558 0 0 1-.705 3.683c-.263 1.268-.533 2.586-.852 3.934-.65 2.69-1.342 5.558-2.175 8.529-.417 1.483-.821 3.015-1.275 4.565-.227.772-.46 1.556-.692 2.347-.227.791-.46 1.587-.692 2.396-.974 3.211-1.955 6.544-3.039 9.945-.901 3.015-1.844 5.962-2.733 8.842.888-8.45.631-16.887-2.2-24.908a37.93 37.93 0 0 0-6.795-11.844c.876-2.463 1.771-4.798 2.733-6.955.582-1.33 1.152-2.61 1.759-3.811a95.354 95.354 0 0 1 1.814-3.419 45.86 45.86 0 0 1 3.646-5.588c1.189-1.581 2.378-2.855 3.517-3.799 2.255-1.906 4.258-2.537 5.79-1.746 1.537.789 2.45 2.909 2.732 5.979zM430.022 525.234a132.043 132.043 0 0 1-2.218-3.358 115.601 115.601 0 0 1-6.158-11.054c-1.728-3.646-3.211-7.188-4.345-10.594a99.189 99.189 0 0 1-.827-2.512 135.04 135.04 0 0 1-.686-2.451c-.453-1.605-.79-3.174-1.091-4.675a52.87 52.87 0 0 1-.674-4.32 37.751 37.751 0 0 1-.294-3.922c-.098-2.463.098-4.639.441-6.44.349-1.808.931-3.266 1.63-4.32.705-1.054 1.563-1.71 2.555-1.942.986-.227 2.059-.018 3.168.57 1.121.582 2.243 1.556 3.425 2.849 1.195 1.293 2.371 2.923 3.627 4.816.613.956 1.232 1.979 1.887 3.058.637 1.078 1.262 2.237 1.936 3.438.662 1.201 1.311 2.476 2.016 3.787l2.096 4.112a1373.24 1373.24 0 0 0 2.304 4.632c-5.441 7.574-8.572 16.808-8.799 26.134-.018.727-.018 1.463.007 2.192z" class="colorf17785 svgShape"></path><path fill="#9bcaf9" d="M420.03 822.844c-4.818-.405-4.371-.748-9.207-1.153 4.841-65.892-6.286-145.437-23.161-209.312C374.531 733.757 333.913 813.9 333.913 813.9h-10.915c6.492-14.471 10.129-32.843 14.174-52.635.005 0 .005-.005.005-.005 14.001-68.433 15.121-153.854 15.121-153.854.739-11.747.311-23.424 4.902-34.334a70.499 70.499 0 0 1 4.785-9.357l9.475-17.078 5.961.136 9.4.221 19.943.456 1.886 6.154 6.276 20.465.024.08c25.77 79.941 24.783 166.953 5.08 248.695z" class="colorf99bab svgShape"></path><linearGradient id="W" x1="385.011" x2="392.363" y1="556.894" y2="715.895" gradientUnits="userSpaceOnUse"><stop offset="0" stop-color="#1d80e3" class="stopColor631de3 svgShape"></stop><stop offset=".239" stop-color="#187ce1" class="stopColor7b18e1 svgShape"></stop><stop offset=".739" stop-color="#0c38dc" class="stopColorb80cdc svgShape"></stop><stop offset="1" stop-color="#0532da" class="stopColorda05d9 svgShape"></stop></linearGradient><path fill="url(#W)" d="M407.806 550.834s31.827 64.438 31.827 141.014c0 0-48.436 43.758-97.065 0 0 0-4.498-110.655 28.134-143.838l37.104 2.824z"></path><path fill="#171921" d="M336.125 810.178c-1.23 9.776.503 19.913 4.942 28.712-6.042 3.338-14.399 1.617-18.63-3.837-3.974-5.122-4.097-12.427-1.95-18.544 1.304-3.715 3.327-7.095 5.616-10.314 2.198-3.091 6.785-3.091 8.988-.005l.057.079a5.532 5.532 0 0 1 .977 3.909zM441.732 839.323c-11.526 1.899-22.356 1.825-33.619-1.278-.676-5.932.781-14.604 2.859-21.004a45.301 45.301 0 0 1 1.059-2.919c3.983-1.139 5.261 2.471 9.403 2.526-1.039 3.476 1.094 7.205 3.948 9.443 1.989 1.566 4.301 2.63 6.594 3.734.99.477 1.969.96 2.924 1.492 3.167 1.775 6.195 4.435 6.832 8.006z" class="color171721 svgShape"></path><linearGradient id="X" x1="409.287" x2="386.616" y1="550.731" y2="459.432" gradientUnits="userSpaceOnUse"><stop offset="0" stop-color="#0575e6" class="stopColor019df3 svgShape"></stop><stop offset=".218" stop-color="#0272e4" class="stopColor02aee4 svgShape"></stop><stop offset=".728" stop-color="#036ad2" class="stopColor03d2c6 svgShape"></stop><stop offset="1" stop-color="#0471e0" class="stopColor04e0ba svgShape"></stop></linearGradient><path fill="url(#X)" d="M372.774 511.135c.673 12.308-.173 24.815-2.071 36.878 4.382 3.953 10.62 6.228 16.511 6.687 5.886.449 15.649-.627 20.592-3.866 5.621-12.237 8.498-24.743 10.737-37.694.52-3.03 1.015-6.09 1.5-9.176a68.223 68.223 0 0 0 16.985-11.15c-3.351-7.024-6.799-13.695-10.155-20.714-1.194-2.494-2.418-5.034-4.29-7.07-1.872-2.035-4.749-4.081-7.508-3.892v.01l-.005-.005.005-.005a488.003 488.003 0 0 0-12.915-.663c-5.749.668-11.869-.02-17.735.097a50.124 50.124 0 0 0-2.918.143h-.01c-13.812 2.418-23.06 21.255-26.6 29.849-1.066 2.591-1.617 4.249-1.617 4.249 8.039 8.977 18.924 9.095 18.924 9.095.249 2.391.442 4.804.57 7.227z"></path><linearGradient id="Y" x1="402.137" x2="382.529" y1="550.875" y2="463.252" gradientUnits="userSpaceOnUse"><stop offset="0" stop-color="#0575e6" class="stopColor019df3 svgShape"></stop><stop offset=".218" stop-color="#0272e4" class="stopColor02aee4 svgShape"></stop><stop offset=".728" stop-color="#036ad2" class="stopColor03d2c6 svgShape"></stop><stop offset="1" stop-color="#0471e0" class="stopColor04e0ba svgShape"></stop></linearGradient><path fill="url(#Y)" d="M354.896 490.564c8.023 7.121 18.602 11.395 29.344 11.553 14.149.214 28.222-6.712 36.689-18.056-12.951-7.61-25.743-15.746-38.684-23.397-.245.015-.495.031-.74.051h-.01c-13.811 2.417-23.059 21.254-26.599 29.849z"></path><linearGradient id="Z" x1="1139.136" x2="1102.458" y1="489.831" y2="419.095" gradientTransform="matrix(-1 0 0 1 1518.062 0)" gradientUnits="userSpaceOnUse"><stop offset="0" stop-color="#2043c5" class="stopColorc5205c svgShape"></stop><stop offset=".2" stop-color="#2e52da" class="stopColorda2e62 svgShape"></stop><stop offset=".453" stop-color="#3a5fec" class="stopColorec3a68 svgShape"></stop><stop offset=".716" stop-color="#4268f7" class="stopColorf7426b svgShape"></stop><stop offset="1" stop-color="#446afb" class="stopColorfb446c svgShape"></stop></linearGradient><path fill="url(#Z)" d="M422.928 428.164c-1.03 4.668-4.62 8.554-5.183 13.301-.976 8.24 7.194 14.559 9.666 22.479 2.187 7.005-.451 14.887-5.34 20.361-4.889 5.473-11.721 8.847-18.688 11.155-8.451 2.8-17.775 4.189-26.202 1.318-8.427-2.871-15.526-10.917-15.035-19.806.707-12.804 15.749-21.998 14.785-34.784-.463-6.144-4.71-11.741-4.185-17.88.561-6.556 6.645-11.558 13.053-13.048 7.143-1.661 16.03-.419 23.278.718 8.169 1.283 15.897 6.918 13.851 16.186z"></path><path fill="#9bcaf9" d="M431.975 829.825c-3.873.567-7.931-.02-11.437-1.775-4.465-2.228-7.946-6.3-9.567-11.009a45.301 45.301 0 0 1 1.059-2.919c3.983-1.139 5.261 2.471 9.403 2.526-1.039 3.476 1.094 7.205 3.948 9.443 1.99 1.566 4.302 2.63 6.594 3.734z" class="colorf99bab svgShape"></path></svg>