<svg xmlns="http://www.w3.org/2000/svg" xmlns:xlink="http://www.w3.org/1999/xlink" data-name="Layer 1" viewBox="0 0 64 64" id="FestivitiesWishingYouaHappyIndependenceDay"><defs><linearGradient id="a" x1="105.93" x2="113.03" y1="25.24" y2="25.41" gradientTransform="rotate(11.93 166.335 -326.209)" gradientUnits="userSpaceOnUse"><stop offset="0" stop-color="#ffffff" class="stopColorffffff svgShape"></stop><stop offset="1" stop-color="#cccccc" class="stopColorcccccc svgShape"></stop></linearGradient><linearGradient id="g" x1="105.91" x2="113.01" y1="29.28" y2="29.45" xlink:href="#a"></linearGradient><linearGradient id="h" x1="105.91" x2="113.01" y1="27.15" y2="27.32" xlink:href="#a"></linearGradient><linearGradient id="i" x1="114.74" x2="121.84" y1="33.88" y2="34.05" xlink:href="#a"></linearGradient><linearGradient id="j" x1="114.72" x2="121.82" y1="37.92" y2="38.09" xlink:href="#a"></linearGradient><linearGradient id="k" x1="114.72" x2="121.83" y1="35.79" y2="35.96" xlink:href="#a"></linearGradient><linearGradient id="l" x1="123.55" x2="130.66" y1="42.52" y2="42.69" xlink:href="#a"></linearGradient><linearGradient id="m" x1="123.53" x2="130.63" y1="46.56" y2="46.73" xlink:href="#a"></linearGradient><linearGradient id="n" x1="123.53" x2="130.64" y1="44.43" y2="44.6" xlink:href="#a"></linearGradient><linearGradient id="o" x1="-45.61" x2="-38.51" y1="57.75" y2="57.93" gradientTransform="scale(-1 1) rotate(11.93 211.825 109.158)" xlink:href="#a"></linearGradient><linearGradient id="p" x1="-45.63" x2="-38.53" y1="61.79" y2="61.97" gradientTransform="scale(-1 1) rotate(11.93 211.825 109.158)" xlink:href="#a"></linearGradient><linearGradient id="q" x1="-45.63" x2="-38.52" y1="59.66" y2="59.84" gradientTransform="scale(-1 1) rotate(11.93 211.825 109.158)" xlink:href="#a"></linearGradient><linearGradient id="r" x1="-36.8" x2="-29.69" y1="66.39" y2="66.57" gradientTransform="scale(-1 1) rotate(11.93 211.825 109.158)" xlink:href="#a"></linearGradient><linearGradient id="s" x1="-36.81" x2="-29.72" y1="70.43" y2="70.61" gradientTransform="scale(-1 1) rotate(11.93 211.825 109.158)" xlink:href="#a"></linearGradient><linearGradient id="t" x1="-36.82" x2="-29.71" y1="68.3" y2="68.48" gradientTransform="scale(-1 1) rotate(11.93 211.825 109.158)" xlink:href="#a"></linearGradient><linearGradient id="u" x1="-27.99" x2="-20.88" y1="75.03" y2="75.21" gradientTransform="scale(-1 1) rotate(11.93 211.825 109.158)" xlink:href="#a"></linearGradient><linearGradient id="v" x1="-28" x2="-20.9" y1="79.07" y2="79.25" gradientTransform="scale(-1 1) rotate(11.93 211.825 109.158)" xlink:href="#a"></linearGradient><linearGradient id="w" x1="-28" x2="-20.9" y1="76.94" y2="77.12" gradientTransform="scale(-1 1) rotate(11.93 211.825 109.158)" xlink:href="#a"></linearGradient><linearGradient id="x" x1="-11.59" x2="-9.46" y1="-49.84" y2="-49.78" gradientTransform="rotate(53.97 -69.544 9.494)" xlink:href="#a"></linearGradient><linearGradient id="y" x1="-11.67" x2="-9.37" y1="-49.43" y2="-49.38" gradientTransform="rotate(53.97 -69.544 9.494)" xlink:href="#a"></linearGradient><linearGradient id="z" x1="-11.8" x2="-10.98" y1="-49.01" y2="-48.99" gradientTransform="rotate(53.97 -69.544 9.494)" xlink:href="#a"></linearGradient><linearGradient id="A" x1="-10.08" x2="-9.25" y1="-49.02" y2="-49" gradientTransform="rotate(53.97 -69.544 9.494)" xlink:href="#a"></linearGradient><linearGradient id="B" x1="-11.73" x2="-9.32" y1="-50.25" y2="-50.19" gradientTransform="rotate(53.97 -69.544 9.494)" xlink:href="#a"></linearGradient><linearGradient id="C" x1="-12.15" x2="-8.89" y1="-50.66" y2="-50.58" gradientTransform="rotate(53.97 -69.544 9.494)" xlink:href="#a"></linearGradient><linearGradient id="D" x1="-10.96" x2="-10.09" y1="-51.84" y2="-51.82" gradientTransform="rotate(53.97 -69.544 9.494)" xlink:href="#a"></linearGradient><linearGradient id="E" x1="-10.8" x2="-10.26" y1="-52.24" y2="-52.23" gradientTransform="rotate(53.97 -69.544 9.494)" xlink:href="#a"></linearGradient><linearGradient id="F" x1="-12.57" x2="-8.46" y1="-51.07" y2="-50.97" gradientTransform="rotate(53.97 -69.544 9.494)" xlink:href="#a"></linearGradient><linearGradient id="G" x1="-11.13" x2="-9.92" y1="-51.44" y2="-51.41" gradientTransform="rotate(53.97 -69.544 9.494)" xlink:href="#a"></linearGradient><linearGradient id="H" x1="-10.83" x2="-10.63" y1="-51.97" y2="-51.96" gradientTransform="rotate(53.97 -69.544 9.494)" xlink:href="#a"></linearGradient><linearGradient id="I" x1="-10.83" x2="-10.63" y1="-51.6" y2="-51.59" gradientTransform="rotate(53.97 -69.544 9.494)" xlink:href="#a"></linearGradient><linearGradient id="J" x1="-10.83" x2="-10.63" y1="-51.23" y2="-51.22" gradientTransform="rotate(53.97 -69.544 9.494)" xlink:href="#a"></linearGradient><linearGradient id="K" x1="-10.83" x2="-10.63" y1="-50.86" y2="-50.86" gradientTransform="rotate(53.97 -69.544 9.494)" xlink:href="#a"></linearGradient><linearGradient id="L" x1="-10.83" x2="-10.63" y1="-50.49" y2="-50.49" gradientTransform="rotate(53.97 -69.544 9.494)" xlink:href="#a"></linearGradient><linearGradient id="M" x1="-11.08" x2="-10.88" y1="-51.42" y2="-51.41" gradientTransform="rotate(53.97 -69.544 9.494)" xlink:href="#a"></linearGradient><linearGradient id="N" x1="-11.16" x2="-10.96" y1="-51.06" y2="-51.05" gradientTransform="rotate(53.97 -69.544 9.494)" xlink:href="#a"></linearGradient><linearGradient id="O" x1="-11.16" x2="-10.96" y1="-50.69" y2="-50.68" gradientTransform="rotate(53.97 -69.544 9.494)" xlink:href="#a"></linearGradient><linearGradient id="P" x1="-11.16" x2="-10.96" y1="-50.32" y2="-50.32" gradientTransform="rotate(53.97 -69.544 9.494)" xlink:href="#a"></linearGradient><linearGradient id="Q" x1="-11.48" x2="-11.27" y1="-51.23" y2="-51.22" gradientTransform="rotate(53.97 -69.544 9.494)" xlink:href="#a"></linearGradient><linearGradient id="R" x1="-11.48" x2="-11.27" y1="-50.86" y2="-50.86" gradientTransform="rotate(53.97 -69.544 9.494)" xlink:href="#a"></linearGradient><linearGradient id="S" x1="-11.48" x2="-11.27" y1="-50.49" y2="-50.49" gradientTransform="rotate(53.97 -69.544 9.494)" xlink:href="#a"></linearGradient><linearGradient id="T" x1="-11.8" x2="-11.6" y1="-51.06" y2="-51.05" gradientTransform="rotate(53.97 -69.544 9.494)" xlink:href="#a"></linearGradient><linearGradient id="U" x1="-11.8" x2="-11.6" y1="-50.69" y2="-50.68" gradientTransform="rotate(53.97 -69.544 9.494)" xlink:href="#a"></linearGradient><linearGradient id="V" x1="-11.8" x2="-11.6" y1="-50.32" y2="-50.32" gradientTransform="rotate(53.97 -69.544 9.494)" xlink:href="#a"></linearGradient><linearGradient id="W" x1="-12.12" x2="-11.92" y1="-50.86" y2="-50.86" gradientTransform="rotate(53.97 -69.544 9.494)" xlink:href="#a"></linearGradient><linearGradient id="X" x1="-12.44" x2="-12.24" y1="-51.06" y2="-51.05" gradientTransform="rotate(53.97 -69.544 9.494)" xlink:href="#a"></linearGradient><linearGradient id="Y" x1="-16.14" x2="-14.01" y1="-61.69" y2="-61.64" gradientTransform="rotate(53.97 -69.544 9.494)" xlink:href="#a"></linearGradient><linearGradient id="Z" x1="-16.22" x2="-13.93" y1="-61.29" y2="-61.23" gradientTransform="rotate(53.97 -69.544 9.494)" xlink:href="#a"></linearGradient><linearGradient id="aa" x1="-16.35" x2="-15.54" y1="-60.86" y2="-60.84" gradientTransform="rotate(53.97 -69.544 9.494)" xlink:href="#a"></linearGradient><linearGradient id="ab" x1="-14.64" x2="-13.81" y1="-60.87" y2="-60.85" gradientTransform="rotate(53.97 -69.544 9.494)" xlink:href="#a"></linearGradient><linearGradient id="ac" x1="-16.28" x2="-13.87" y1="-62.1" y2="-62.04" gradientTransform="rotate(53.97 -69.544 9.494)" xlink:href="#a"></linearGradient><linearGradient id="ad" x1="-16.7" x2="-13.44" y1="-62.51" y2="-62.43" gradientTransform="rotate(53.97 -69.544 9.494)" xlink:href="#a"></linearGradient><linearGradient id="ae" x1="-15.52" x2="-14.64" y1="-63.69" y2="-63.67" gradientTransform="rotate(53.97 -69.544 9.494)" xlink:href="#a"></linearGradient><linearGradient id="af" x1="-15.35" x2="-14.82" y1="-64.09" y2="-64.08" gradientTransform="rotate(53.97 -69.544 9.494)" xlink:href="#a"></linearGradient><linearGradient id="ag" x1="-17.13" x2="-13.01" y1="-62.93" y2="-62.82" gradientTransform="rotate(53.97 -69.544 9.494)" xlink:href="#a"></linearGradient><linearGradient id="ah" x1="-15.69" x2="-14.47" y1="-63.29" y2="-63.26" gradientTransform="rotate(53.97 -69.544 9.494)" xlink:href="#a"></linearGradient><linearGradient id="ai" x1="-15.39" x2="-15.18" y1="-63.82" y2="-63.81" gradientTransform="rotate(53.97 -69.544 9.494)" xlink:href="#a"></linearGradient><linearGradient id="aj" x1="-15.39" x2="-15.18" y1="-63.45" y2="-63.44" gradientTransform="rotate(53.97 -69.544 9.494)" xlink:href="#a"></linearGradient><linearGradient id="ak" x1="-15.39" x2="-15.18" y1="-63.08" y2="-63.08" gradientTransform="rotate(53.97 -69.544 9.494)" xlink:href="#a"></linearGradient><linearGradient id="al" x1="-15.39" x2="-15.18" y1="-62.71" y2="-62.71" gradientTransform="rotate(53.97 -69.544 9.494)" xlink:href="#a"></linearGradient><linearGradient id="am" x1="-15.39" x2="-15.18" y1="-62.35" y2="-62.34" gradientTransform="rotate(53.97 -69.544 9.494)" xlink:href="#a"></linearGradient><linearGradient id="an" x1="-15.64" x2="-15.43" y1="-63.27" y2="-63.26" gradientTransform="rotate(53.97 -69.544 9.494)" xlink:href="#a"></linearGradient><linearGradient id="ao" x1="-15.71" x2="-15.51" y1="-62.91" y2="-62.9" gradientTransform="rotate(53.97 -69.544 9.494)" xlink:href="#a"></linearGradient><linearGradient id="ap" x1="-15.71" x2="-15.51" y1="-62.54" y2="-62.53" gradientTransform="rotate(53.97 -69.544 9.494)" xlink:href="#a"></linearGradient><linearGradient id="aq" x1="-15.71" x2="-15.51" y1="-62.17" y2="-62.17" gradientTransform="rotate(53.97 -69.544 9.494)" xlink:href="#a"></linearGradient><linearGradient id="ar" x1="-16.03" x2="-15.83" y1="-63.08" y2="-63.08" gradientTransform="rotate(53.97 -69.544 9.494)" xlink:href="#a"></linearGradient><linearGradient id="as" x1="-16.03" x2="-15.83" y1="-62.71" y2="-62.71" gradientTransform="rotate(53.97 -69.544 9.494)" xlink:href="#a"></linearGradient><linearGradient id="at" x1="-16.03" x2="-15.83" y1="-62.35" y2="-62.34" gradientTransform="rotate(53.97 -69.544 9.494)" xlink:href="#a"></linearGradient><linearGradient id="au" x1="-16.36" x2="-16.15" y1="-62.91" y2="-62.9" gradientTransform="rotate(53.97 -69.544 9.494)" xlink:href="#a"></linearGradient><linearGradient id="av" x1="-16.36" x2="-16.15" y1="-62.54" y2="-62.53" gradientTransform="rotate(53.97 -69.544 9.494)" xlink:href="#a"></linearGradient><linearGradient id="aw" x1="-16.36" x2="-16.15" y1="-62.17" y2="-62.17" gradientTransform="rotate(53.97 -69.544 9.494)" xlink:href="#a"></linearGradient><linearGradient id="ax" x1="-16.67" x2="-16.47" y1="-62.71" y2="-62.71" gradientTransform="rotate(53.97 -69.544 9.494)" xlink:href="#a"></linearGradient><linearGradient id="ay" x1="-17" x2="-16.79" y1="-62.91" y2="-62.9" gradientTransform="rotate(53.97 -69.544 9.494)" xlink:href="#a"></linearGradient><linearGradient id="az" x1="-2.96" x2="-.83" y1="-80.33" y2="-80.27" gradientTransform="rotate(53.97 -69.544 9.494)" xlink:href="#a"></linearGradient><linearGradient id="aA" x1="-3.04" x2="-.75" y1="-79.92" y2="-79.87" gradientTransform="rotate(53.97 -69.544 9.494)" xlink:href="#a"></linearGradient><linearGradient id="aB" x1="-3.18" x2="-2.36" y1="-79.5" y2="-79.48" gradientTransform="rotate(53.97 -69.544 9.494)" xlink:href="#a"></linearGradient><linearGradient id="aC" x1="-1.46" x2="-.63" y1="-79.51" y2="-79.49" gradientTransform="rotate(53.97 -69.544 9.494)" xlink:href="#a"></linearGradient><linearGradient id="aD" x1="-3.11" x2="-.69" y1="-80.74" y2="-80.68" gradientTransform="rotate(53.97 -69.544 9.494)" xlink:href="#a"></linearGradient><linearGradient id="aE" x1="-3.53" x2="-.26" y1="-81.15" y2="-81.07" gradientTransform="rotate(53.97 -69.544 9.494)" xlink:href="#a"></linearGradient><linearGradient id="aF" x1="-2.34" x2="-1.47" y1="-82.33" y2="-82.31" gradientTransform="rotate(53.97 -69.544 9.494)" xlink:href="#a"></linearGradient><linearGradient id="aG" x1="-2.17" x2="-1.64" y1="-82.73" y2="-82.72" gradientTransform="rotate(53.97 -69.544 9.494)" xlink:href="#a"></linearGradient><linearGradient id="aH" x1="-3.95" x2=".17" y1="-81.57" y2="-81.46" gradientTransform="rotate(53.97 -69.544 9.494)" xlink:href="#a"></linearGradient><linearGradient id="aI" x1="-2.51" x2="-1.29" y1="-81.93" y2="-81.9" gradientTransform="rotate(53.97 -69.544 9.494)" xlink:href="#a"></linearGradient><linearGradient id="aJ" x1="-2.21" x2="-2.01" y1="-82.46" y2="-82.45" gradientTransform="rotate(53.97 -69.544 9.494)" xlink:href="#a"></linearGradient><linearGradient id="aK" x1="-2.21" x2="-2.01" y1="-82.09" y2="-82.08" gradientTransform="rotate(53.97 -69.544 9.494)" xlink:href="#a"></linearGradient><linearGradient id="aL" x1="-2.21" x2="-2.01" y1="-81.72" y2="-81.72" gradientTransform="rotate(53.97 -69.544 9.494)" xlink:href="#a"></linearGradient><linearGradient id="aM" x1="-2.21" x2="-2.01" y1="-81.35" y2="-81.35" gradientTransform="rotate(53.97 -69.544 9.494)" xlink:href="#a"></linearGradient><linearGradient id="aN" x1="-2.21" x2="-2.01" y1="-80.98" y2="-80.98" gradientTransform="rotate(53.97 -69.544 9.494)" xlink:href="#a"></linearGradient><linearGradient id="aO" x1="-2.46" x2="-2.26" y1="-81.91" y2="-81.9" gradientTransform="rotate(53.97 -69.544 9.494)" xlink:href="#a"></linearGradient><linearGradient id="aP" x1="-2.53" x2="-2.33" y1="-81.55" y2="-81.54" gradientTransform="rotate(53.97 -69.544 9.494)" xlink:href="#a"></linearGradient><linearGradient id="aQ" x1="-2.53" x2="-2.33" y1="-81.18" y2="-81.17" gradientTransform="rotate(53.97 -69.544 9.494)" xlink:href="#a"></linearGradient><linearGradient id="aR" x1="-2.53" x2="-2.33" y1="-80.81" y2="-80.81" gradientTransform="rotate(53.97 -69.544 9.494)" xlink:href="#a"></linearGradient><linearGradient id="aS" x1="-2.85" x2="-2.65" y1="-81.72" y2="-81.72" gradientTransform="rotate(53.97 -69.544 9.494)" xlink:href="#a"></linearGradient><linearGradient id="aT" x1="-2.85" x2="-2.65" y1="-81.35" y2="-81.35" gradientTransform="rotate(53.97 -69.544 9.494)" xlink:href="#a"></linearGradient><linearGradient id="aU" x1="-2.85" x2="-2.65" y1="-80.98" y2="-80.98" gradientTransform="rotate(53.97 -69.544 9.494)" xlink:href="#a"></linearGradient><linearGradient id="aV" x1="-3.18" x2="-2.97" y1="-81.55" y2="-81.54" gradientTransform="rotate(53.97 -69.544 9.494)" xlink:href="#a"></linearGradient><linearGradient id="aW" x1="-3.18" x2="-2.97" y1="-81.18" y2="-81.17" gradientTransform="rotate(53.97 -69.544 9.494)" xlink:href="#a"></linearGradient><linearGradient id="aX" x1="-3.18" x2="-2.97" y1="-80.81" y2="-80.81" gradientTransform="rotate(53.97 -69.544 9.494)" xlink:href="#a"></linearGradient><linearGradient id="aY" x1="-3.49" x2="-3.29" y1="-81.35" y2="-81.35" gradientTransform="rotate(53.97 -69.544 9.494)" xlink:href="#a"></linearGradient><linearGradient id="aZ" x1="-3.82" x2="-3.62" y1="-81.55" y2="-81.54" gradientTransform="rotate(53.97 -69.544 9.494)" xlink:href="#a"></linearGradient><linearGradient id="ba" x1="8.86" x2="10.99" y1="-80.58" y2="-80.53" gradientTransform="rotate(53.97 -69.544 9.494)" xlink:href="#a"></linearGradient><linearGradient id="bb" x1="8.78" x2="11.07" y1="-80.18" y2="-80.12" gradientTransform="rotate(53.97 -69.544 9.494)" xlink:href="#a"></linearGradient><linearGradient id="bc" x1="8.64" x2="9.46" y1="-79.76" y2="-79.74" gradientTransform="rotate(53.97 -69.544 9.494)" xlink:href="#a"></linearGradient><linearGradient id="bd" x1="10.36" x2="11.19" y1="-79.76" y2="-79.74" gradientTransform="rotate(53.97 -69.544 9.494)" xlink:href="#a"></linearGradient><linearGradient id="be" x1="8.71" x2="11.13" y1="-80.99" y2="-80.93" gradientTransform="rotate(53.97 -69.544 9.494)" xlink:href="#a"></linearGradient><linearGradient id="bf" x1="8.29" x2="11.56" y1="-81.41" y2="-81.33" gradientTransform="rotate(53.97 -69.544 9.494)" xlink:href="#a"></linearGradient><linearGradient id="bg" x1="9.48" x2="10.35" y1="-82.59" y2="-82.56" gradientTransform="rotate(53.97 -69.544 9.494)" xlink:href="#a"></linearGradient><linearGradient id="bh" x1="9.65" x2="10.18" y1="-82.99" y2="-82.97" gradientTransform="rotate(53.97 -69.544 9.494)" xlink:href="#a"></linearGradient><linearGradient id="bi" x1="7.87" x2="11.99" y1="-81.82" y2="-81.72" gradientTransform="rotate(53.97 -69.544 9.494)" xlink:href="#a"></linearGradient><linearGradient id="bj" x1="9.31" x2="10.52" y1="-82.19" y2="-82.16" gradientTransform="rotate(53.97 -69.544 9.494)" xlink:href="#a"></linearGradient><linearGradient id="bk" x1="9.61" x2="9.81" y1="-82.71" y2="-82.71" gradientTransform="rotate(53.97 -69.544 9.494)" xlink:href="#a"></linearGradient><linearGradient id="bl" x1="9.61" x2="9.81" y1="-82.34" y2="-82.34" gradientTransform="rotate(53.97 -69.544 9.494)" xlink:href="#a"></linearGradient><linearGradient id="bm" x1="9.61" x2="9.81" y1="-81.98" y2="-81.97" gradientTransform="rotate(53.97 -69.544 9.494)" xlink:href="#a"></linearGradient><linearGradient id="bn" x1="9.61" x2="9.81" y1="-81.61" y2="-81.6" gradientTransform="rotate(53.97 -69.544 9.494)" xlink:href="#a"></linearGradient><linearGradient id="bo" x1="9.61" x2="9.81" y1="-81.24" y2="-81.24" gradientTransform="rotate(53.97 -69.544 9.494)" xlink:href="#a"></linearGradient><linearGradient id="bp" x1="9.36" x2="9.56" y1="-82.16" y2="-82.16" gradientTransform="rotate(53.97 -69.544 9.494)" xlink:href="#a"></linearGradient><linearGradient id="bq" x1="9.28" x2="9.49" y1="-81.8" y2="-81.8" gradientTransform="rotate(53.97 -69.544 9.494)" xlink:href="#a"></linearGradient><linearGradient id="br" x1="9.28" x2="9.49" y1="-81.44" y2="-81.43" gradientTransform="rotate(53.97 -69.544 9.494)" xlink:href="#a"></linearGradient><linearGradient id="bs" x1="9.28" x2="9.49" y1="-81.07" y2="-81.06" gradientTransform="rotate(53.97 -69.544 9.494)" xlink:href="#a"></linearGradient><linearGradient id="bt" x1="8.97" x2="9.17" y1="-81.98" y2="-81.97" gradientTransform="rotate(53.97 -69.544 9.494)" xlink:href="#a"></linearGradient><linearGradient id="bu" x1="8.97" x2="9.17" y1="-81.61" y2="-81.6" gradientTransform="rotate(53.97 -69.544 9.494)" xlink:href="#a"></linearGradient><linearGradient id="bv" x1="8.97" x2="9.17" y1="-81.24" y2="-81.24" gradientTransform="rotate(53.97 -69.544 9.494)" xlink:href="#a"></linearGradient><linearGradient id="bw" x1="8.64" x2="8.84" y1="-81.8" y2="-81.8" gradientTransform="rotate(53.97 -69.544 9.494)" xlink:href="#a"></linearGradient><linearGradient id="bx" x1="8.64" x2="8.84" y1="-81.44" y2="-81.43" gradientTransform="rotate(53.97 -69.544 9.494)" xlink:href="#a"></linearGradient><linearGradient id="by" x1="8.64" x2="8.84" y1="-81.07" y2="-81.06" gradientTransform="rotate(53.97 -69.544 9.494)" xlink:href="#a"></linearGradient><linearGradient id="bz" x1="8.33" x2="8.53" y1="-81.61" y2="-81.6" gradientTransform="rotate(53.97 -69.544 9.494)" xlink:href="#a"></linearGradient><linearGradient id="bA" x1="8" x2="8.2" y1="-81.8" y2="-81.8" gradientTransform="rotate(53.97 -69.544 9.494)" xlink:href="#a"></linearGradient><linearGradient id="b" x1="-400.96" x2="-400.95" y1="-524.53" y2="-524.53" gradientTransform="scale(-78.49 78.49) rotate(86.1 -481.565 -47.71)" gradientUnits="userSpaceOnUse"><stop offset="0" stop-color="#3860f5" class="stopColorf53b38 svgShape"></stop><stop offset="1" stop-color="#284fe0" class="stopColore02b28 svgShape"></stop></linearGradient><linearGradient id="bD" x1="-400.94" x2="-400.93" y1="-532.04" y2="-532.04" gradientTransform="scale(-78.14 78.14) rotate(86.1 -485.601 -51.516)" xlink:href="#b"></linearGradient><linearGradient id="c" x1="-400.96" x2="-400.95" y1="-524.53" y2="-524.53" gradientTransform="scale(-78.49 78.49) rotate(86.1 -481.565 -47.71)" gradientUnits="userSpaceOnUse"><stop offset="0" stop-color="#2a4cce" class="stopColorce2c2a svgShape"></stop><stop offset="1" stop-color="#1e40be" class="stopColorbe201e svgShape"></stop></linearGradient><linearGradient id="bG" x1="-400.94" x2="-400.93" y1="-532.04" y2="-532.04" gradientTransform="scale(-78.14 78.14) rotate(86.1 -485.601 -51.516)" xlink:href="#c"></linearGradient><linearGradient id="bH" x1="-399.19" x2="-399.18" y1="-526.36" y2="-526.36" gradientTransform="scale(-483.33 483.33) rotate(84.8 -487.865 -44.584)" gradientUnits="userSpaceOnUse"><stop offset="0" stop-color="#d3e1f0" class="stopColorf0e3d3 svgShape"></stop><stop offset=".41" stop-color="#d3e1f0" class="stopColorf0e3d3 svgShape"></stop><stop offset="1" stop-color="#9ab9d9" class="stopColord9bc9a svgShape"></stop></linearGradient><linearGradient id="bI" x1="-399" x2="-398.99" y1="-525.83" y2="-525.83" gradientTransform="scale(-383.06 383.06) rotate(88.31 -470.354 -57.425)" gradientUnits="userSpaceOnUse"><stop offset="0" stop-color="#3860f5" class="stopColorf53b38 svgShape"></stop><stop offset=".23" stop-color="#3860f5" class="stopColorf53b38 svgShape"></stop><stop offset="1" stop-color="#284fe0" class="stopColore02b28 svgShape"></stop></linearGradient><linearGradient id="bJ" x1="-399" x2="-398.99" y1="-526.74" y2="-526.74" gradientTransform="scale(-448.6 448.6) rotate(83.19 -496.24 -38.674)" xlink:href="#b"></linearGradient><linearGradient id="bK" x1="-398.98" x2="-398.97" y1="-526.08" y2="-526.08" gradientTransform="scale(-410.33 410.33) rotate(88.53 -469.425 -58.365)" gradientUnits="userSpaceOnUse"><stop offset="0" stop-color="#3860f5" class="stopColorf53b38 svgShape"></stop><stop offset=".38" stop-color="#3860f5" class="stopColorf53b38 svgShape"></stop><stop offset="1" stop-color="#284fe0" class="stopColore02b28 svgShape"></stop></linearGradient><linearGradient id="bL" x1="-398.98" x2="-398.97" y1="-526.4" y2="-526.4" gradientTransform="scale(-454.04 454.04) rotate(84.35 -490.07 -42.994)" xlink:href="#b"></linearGradient><linearGradient id="bM" x1="-399" x2="-398.99" y1="-527.1" y2="-527.1" gradientTransform="scale(-368.68 368.68) rotate(81.72 -504.256 -32.993)" xlink:href="#b"></linearGradient><linearGradient id="bN" x1="-399.19" x2="-399.18" y1="-526.35" y2="-526.35" gradientTransform="scale(-483.33 483.33) rotate(84.8 -487.865 -44.584)" gradientUnits="userSpaceOnUse"><stop offset="0" stop-color="#9eb4ca" class="stopColorcaaa9e svgShape"></stop><stop offset=".41" stop-color="#9eb4ca" class="stopColorcaaa9e svgShape"></stop><stop offset="1" stop-color="#7396b9" class="stopColorb98d73 svgShape"></stop></linearGradient><linearGradient id="bO" x1="-399" x2="-398.99" y1="-526.74" y2="-526.74" gradientTransform="scale(-448.6 448.6) rotate(83.19 -496.24 -38.674)" xlink:href="#c"></linearGradient><linearGradient id="bP" x1="-399" x2="-398.99" y1="-527.1" y2="-527.1" gradientTransform="scale(-368.68 368.68) rotate(81.72 -504.256 -32.993)" xlink:href="#c"></linearGradient><linearGradient id="bQ" x1="-399.19" x2="-399.18" y1="-526.36" y2="-526.36" gradientTransform="scale(-483.33 483.33) rotate(84.8 -487.865 -44.584)" gradientUnits="userSpaceOnUse"><stop offset="0" stop-color="#e7eff7" class="stopColorf7f0e7 svgShape"></stop><stop offset=".41" stop-color="#e7eff7" class="stopColorf7f0e7 svgShape"></stop><stop offset="1" stop-color="#c8d9ea" class="stopColoreadac8 svgShape"></stop></linearGradient><linearGradient id="d" x1="-399" x2="-398.99" y1="-526.74" y2="-526.74" gradientTransform="scale(-448.6 448.6) rotate(83.19 -496.24 -38.674)" gradientUnits="userSpaceOnUse"><stop offset="0" stop-color="#92c6fa" class="stopColorfa9392 svgShape"></stop><stop offset="1" stop-color="#89bbee" class="stopColoree8b89 svgShape"></stop></linearGradient><linearGradient id="bR" x1="-398.98" x2="-398.97" y1="-526.08" y2="-526.08" gradientTransform="scale(-410.33 410.33) rotate(88.53 -469.425 -58.365)" gradientUnits="userSpaceOnUse"><stop offset="0" stop-color="#92c6fa" class="stopColorfa9392 svgShape"></stop><stop offset=".38" stop-color="#92c6fa" class="stopColorfa9392 svgShape"></stop><stop offset="1" stop-color="#89bbee" class="stopColoree8b89 svgShape"></stop></linearGradient><linearGradient id="bS" x1="-398.98" x2="-398.97" y1="-526.4" y2="-526.4" gradientTransform="scale(-454.04 454.04) rotate(84.35 -490.07 -42.994)" xlink:href="#d"></linearGradient><linearGradient id="bT" x1="-399.19" x2="-399.18" y1="-526.35" y2="-526.35" gradientTransform="scale(-483.33 483.33) rotate(84.8 -487.865 -44.584)" gradientUnits="userSpaceOnUse"><stop offset="0" stop-color="#cad6e2" class="stopColore2d0ca svgShape"></stop><stop offset=".41" stop-color="#cad6e2" class="stopColore2d0ca svgShape"></stop><stop offset="1" stop-color="#b2c5d9" class="stopColord9c0b2 svgShape"></stop></linearGradient><linearGradient id="bU" x1="-399" x2="-398.99" y1="-526.73" y2="-526.73" gradientTransform="scale(-448.6 448.6) rotate(83.19 -496.24 -38.674)" gradientUnits="userSpaceOnUse"><stop offset="0" stop-color="#8ab7e4" class="stopColore48b8a svgShape"></stop><stop offset="1" stop-color="#83afdb" class="stopColordb8583 svgShape"></stop></linearGradient><linearGradient id="bV" x1="-400.95" x2="-400.94" y1="-530.11" y2="-530.11" gradientTransform="scale(-78.51 78.51) rotate(86.1 -484.574 -50.535)" xlink:href="#b"></linearGradient><linearGradient id="bW" x1="-400.96" x2="-400.95" y1="-528.27" y2="-528.27" gradientTransform="scale(-78.13 78.13) rotate(86.1 -483.555 -49.598)" xlink:href="#b"></linearGradient><linearGradient id="bX" x1="-400.97" x2="-400.96" y1="-526.43" y2="-526.43" gradientTransform="scale(-78.13 78.13) rotate(86.1 -482.616 -48.668)" xlink:href="#b"></linearGradient><linearGradient id="bY" x1="-400.97" x2="-400.96" y1="-526.43" y2="-526.43" gradientTransform="scale(-78.13 78.13) rotate(86.1 -482.616 -48.668)" xlink:href="#c"></linearGradient><linearGradient id="bZ" x1="-400.95" x2="-400.94" y1="-530.11" y2="-530.11" gradientTransform="scale(-78.51 78.51) rotate(86.1 -484.574 -50.535)" xlink:href="#c"></linearGradient><linearGradient id="ca" x1="-400.96" x2="-400.95" y1="-528.27" y2="-528.27" gradientTransform="scale(-78.13 78.13) rotate(86.1 -483.555 -49.598)" xlink:href="#c"></linearGradient><radialGradient id="bB" cx="-400.56" cy="-525.1" r="0" fx="-400.56" fy="-525.1" gradientTransform="matrix(279.85 0 0 -295.99 112126.21 -155402.93)" gradientUnits="userSpaceOnUse"><stop offset="0" stop-color="#dedede" class="stopColordedede svgShape"></stop><stop offset=".6" stop-color="#dedede" class="stopColordedede svgShape"></stop><stop offset=".73" stop-color="#c1c9d1" class="stopColord1ccc1 svgShape"></stop><stop offset=".91" stop-color="#9dafc1" class="stopColorc1b59d svgShape"></stop><stop offset="1" stop-color="#9dafc1" class="stopColorc1b59d svgShape"></stop></radialGradient><radialGradient id="bC" cx="-400.56" cy="-525.1" r="0" fx="-400.56" fy="-525.1" gradientTransform="matrix(279.85 0 0 -295.99 112126.21 -155402.93)" gradientUnits="userSpaceOnUse"><stop offset="0" stop-color="#bfcad5" class="stopColord5bfbf svgShape"></stop><stop offset=".6" stop-color="#bfcad5" class="stopColord5bfbf svgShape"></stop><stop offset=".73" stop-color="#a6b8ca" class="stopColorcaafa6 svgShape"></stop><stop offset=".91" stop-color="#87a2bd" class="stopColorbd9c87 svgShape"></stop><stop offset="1" stop-color="#87a2bd" class="stopColorbd9c87 svgShape"></stop></radialGradient><radialGradient id="e" cx="-400.56" cy="-525.1" r=".01" fx="-400.56" fy="-525.1" gradientTransform="matrix(279.85 0 0 -295.99 112126.21 -155402.93)" gradientUnits="userSpaceOnUse"><stop offset="0" stop-color="#8fa2b6" class="stopColorb68f8f svgShape"></stop><stop offset=".6" stop-color="#8fa2b6" class="stopColorb68f8f svgShape"></stop><stop offset=".66" stop-color="#859bb1" class="stopColorb18985 svgShape"></stop><stop offset=".91" stop-color="#6572a4" class="stopColora47565 svgShape"></stop><stop offset="1" stop-color="#6572a4" class="stopColora47565 svgShape"></stop></radialGradient><radialGradient id="bE" cx="-400.56" cy="-525.1" r="0" fx="-400.56" fy="-525.1" xlink:href="#e"></radialGradient><radialGradient id="f" cx="-400.56" cy="-525.1" r="0" fx="-400.56" fy="-525.1" gradientTransform="matrix(279.85 0 0 -295.99 112126.21 -155402.93)" gradientUnits="userSpaceOnUse"><stop offset="0" stop-color="#7c84a4" class="stopColora47c7c svgShape"></stop><stop offset=".6" stop-color="#7c84a4" class="stopColora47c7c svgShape"></stop><stop offset=".64" stop-color="#767fa1" class="stopColora17876 svgShape"></stop><stop offset=".91" stop-color="#586493" class="stopColor936658 svgShape"></stop><stop offset="1" stop-color="#586493" class="stopColor936658 svgShape"></stop></radialGradient><radialGradient id="bF" cx="-400.56" cy="-525.1" r="0" fx="-400.56" fy="-525.1" xlink:href="#f"></radialGradient></defs><path fill="#0036ff" d="M36.5,13.02s-.82,.62-.74,.9c.08,.28,.87,.45,1.06,.22s-.31-1.12-.31-1.12Z" class="colorff2400 svgShape"></path><path fill="#0036ff" d="M41.58,7.97c-.45,2.12-2.99,5.62-5.11,5.17-2.12-.45-3.03-4.67-2.58-6.8,.45-2.12,2.53-3.48,4.66-3.03,2.12,.45,3.48,2.53,3.03,4.66Z" class="colorff2400 svgShape"></path><path fill="url(#a)" d="M34.95,5.62c.44,.28,.91,.51,1.39,.7,.24,.1,.49,.18,.73,.25,.25,.07,.5,.14,.75,.2,.25,.05,.51,.1,.76,.14,.26,.03,.51,.06,.77,.08,.52,.03,1.04,.02,1.56-.04,.25-.03,.49-.08,.74-.14-.03-.3-.09-.59-.18-.87-.21,.04-.43,.06-.65,.07-.11,0-.23,.01-.35,.01h-.17s-.17,0-.17,0c-.23,0-.47-.02-.7-.04-.47-.04-.94-.11-1.4-.2-.46-.09-.92-.21-1.37-.35-.22-.07-.45-.15-.66-.24l-.16-.07-.16-.07c-.11-.05-.21-.09-.32-.15-.2-.1-.4-.21-.59-.33-.16,.18-.3,.38-.42,.59,.19,.16,.4,.31,.61,.44Z"></path><path fill="url(#g)" d="M39.98,10c-.11,0-.23,.01-.35,.01h-.17s-.17,0-.17,0c-.23,0-.47-.02-.7-.04-.47-.04-.94-.11-1.4-.2-.46-.09-.92-.21-1.37-.35-.22-.07-.45-.15-.66-.24l-.16-.07-.16-.07c-.11-.05-.21-.09-.32-.15-.23-.11-.46-.24-.67-.38,.04,.33,.09,.68,.16,1.01,.04,.02,.07,.05,.11,.07,.44,.28,.91,.51,1.39,.7,.24,.1,.49,.18,.73,.25,.25,.07,.5,.14,.75,.2,.25,.05,.51,.1,.76,.14,.26,.03,.51,.06,.77,.08,.52,.03,1.04,.02,1.56-.04,.02,0,.04,0,.06,0,.25-.33,.48-.68,.67-1.04-.27,.05-.55,.09-.83,.1Z"></path><path fill="url(#h)" d="M35.92,8.32c.24,.1,.49,.18,.73,.25,.25,.07,.5,.14,.75,.2,.25,.05,.51,.1,.76,.14,.26,.03,.51,.06,.77,.08,.52,.03,1.04,.02,1.56-.04,.28-.04,.57-.09,.85-.17,.11-.28,.19-.55,.24-.8,.01-.06,.02-.11,.03-.17-.38,.12-.8,.17-1.22,.2-.11,0-.23,.01-.35,.01h-.17s-.17,0-.17,0c-.23,0-.47-.02-.7-.04-.47-.04-.93-.11-1.4-.2-.46-.09-.92-.21-1.37-.35-.22-.07-.45-.15-.66-.24l-.16-.07-.16-.07c-.11-.05-.21-.09-.32-.15-.36-.18-.71-.38-1.02-.63,0,.02,0,.04-.01,.06-.05,.22-.08,.47-.1,.73,.23,.21,.48,.39,.73,.55,.44,.28,.91,.51,1.39,.7Z"></path><path fill="#ffffff" d="M36.26,5.78c-.27,.53-.7,.84-.97,.71-.27-.14-.27-.68,0-1.2,.27-.53,.7-.84,.97-.71,.27,.14,.27,.68,0,1.2Z" opacity=".2" class="colorffffff svgShape"></path><path fill="#0036ff" d="M43.33,23.3s-.82,.62-.74,.9c.08,.28,.87,.45,1.06,.22,.19-.23-.31-1.12-.31-1.12Z" class="colorff2400 svgShape"></path><path fill="#0036ff" d="M48.42,18.24c-.45,2.12-2.99,5.62-5.11,5.17-2.12-.45-3.03-4.67-2.58-6.8,.45-2.12,2.53-3.48,4.66-3.03,2.12,.45,3.48,2.53,3.03,4.66Z" class="colorff2400 svgShape"></path><path fill="url(#i)" d="M41.78,15.9c.44,.28,.91,.51,1.39,.7,.24,.1,.49,.18,.73,.25,.25,.07,.5,.14,.75,.2,.25,.05,.51,.1,.76,.14,.26,.03,.51,.06,.77,.08,.52,.03,1.04,.02,1.56-.04,.25-.03,.49-.08,.74-.14-.03-.3-.09-.59-.18-.87-.21,.04-.43,.06-.65,.07-.11,0-.23,.01-.35,.01h-.17s-.17,0-.17,0c-.23,0-.47-.02-.7-.04-.47-.04-.94-.11-1.4-.2-.46-.09-.92-.21-1.37-.35-.22-.07-.45-.15-.66-.24l-.16-.07-.16-.07c-.11-.05-.21-.09-.32-.15-.2-.1-.4-.21-.59-.33-.16,.18-.3,.38-.42,.59,.19,.16,.4,.31,.61,.45Z"></path><path fill="url(#j)" d="M46.81,20.27c-.11,0-.23,.01-.35,.01h-.17s-.17,0-.17,0c-.23,0-.47-.02-.7-.04-.47-.04-.93-.11-1.4-.2-.46-.09-.92-.21-1.37-.35-.22-.07-.45-.15-.66-.24l-.16-.07-.16-.07c-.11-.05-.21-.09-.32-.15-.23-.11-.46-.24-.67-.38,.04,.34,.09,.68,.16,1.01,.04,.02,.07,.05,.11,.07,.44,.28,.91,.51,1.39,.7,.24,.1,.49,.18,.73,.25,.25,.07,.5,.14,.75,.2,.25,.05,.51,.1,.76,.14,.26,.03,.51,.06,.77,.08,.52,.03,1.04,.02,1.56-.04,.02,0,.04,0,.06,0,.25-.33,.48-.68,.67-1.04-.27,.05-.55,.09-.83,.1Z"></path><path fill="url(#k)" d="M42.75,18.59c.24,.1,.49,.18,.73,.25,.25,.07,.5,.14,.75,.2,.25,.05,.51,.1,.76,.14,.26,.03,.51,.06,.77,.08,.52,.03,1.04,.02,1.56-.04,.28-.04,.57-.09,.85-.17,.11-.28,.19-.55,.24-.8,.01-.06,.02-.11,.03-.17-.38,.12-.8,.17-1.22,.2-.11,0-.23,.01-.35,.01h-.17s-.17,0-.17,0c-.23,0-.47-.02-.7-.04-.47-.04-.93-.11-1.4-.2-.46-.09-.92-.21-1.37-.35-.22-.07-.45-.15-.66-.24l-.16-.07-.16-.07c-.11-.05-.21-.09-.32-.15-.36-.18-.71-.38-1.02-.63,0,.02,0,.04-.01,.06-.05,.22-.08,.47-.1,.73,.23,.21,.48,.39,.73,.55,.44,.28,.91,.51,1.39,.7Z"></path><path fill="#ffffff" d="M43.1,16.06c-.27,.53-.7,.84-.97,.71-.27-.14-.27-.68,0-1.2,.27-.53,.7-.84,.97-.71,.27,.14,.27,.68,0,1.2Z" opacity=".2" class="colorffffff svgShape"></path><path fill="#0036ff" d="M50.17,33.57s-.82,.62-.74,.9c.08,.28,.87,.45,1.06,.22,.19-.23-.31-1.12-.31-1.12Z" class="colorff2400 svgShape"></path><path fill="#0036ff" d="M55.25,28.52c-.45,2.12-2.99,5.62-5.11,5.17-2.12-.45-3.03-4.67-2.58-6.8,.45-2.12,2.53-3.48,4.66-3.03,2.12,.45,3.48,2.53,3.03,4.66Z" class="colorff2400 svgShape"></path><path fill="url(#l)" d="M48.62,26.17c.44,.28,.91,.51,1.39,.7,.24,.1,.49,.18,.73,.25,.25,.07,.5,.14,.75,.2,.25,.05,.51,.1,.76,.14,.26,.03,.51,.06,.77,.08,.52,.03,1.04,.02,1.56-.04,.25-.03,.49-.08,.74-.14-.03-.3-.09-.59-.18-.87-.21,.04-.43,.06-.65,.07-.11,0-.23,.01-.35,.01h-.17s-.17,0-.17,0c-.23,0-.47-.02-.7-.04-.47-.04-.94-.11-1.4-.2-.46-.09-.92-.21-1.37-.35-.22-.07-.45-.15-.66-.24l-.16-.07-.16-.07c-.11-.05-.21-.09-.32-.15-.2-.1-.4-.21-.59-.33-.16,.18-.3,.38-.42,.59,.19,.16,.4,.31,.61,.44Z"></path><path fill="url(#m)" d="M53.65,30.55c-.11,0-.23,.01-.35,.01h-.17s-.17,0-.17,0c-.23,0-.47-.02-.7-.04-.47-.04-.94-.11-1.4-.2-.46-.09-.92-.21-1.37-.35-.22-.07-.45-.15-.66-.24l-.16-.07-.16-.07c-.11-.05-.21-.09-.32-.15-.23-.11-.46-.24-.67-.38,.04,.33,.09,.68,.16,1.01,.04,.02,.07,.05,.11,.07,.44,.28,.91,.51,1.39,.7,.24,.1,.49,.18,.73,.25,.25,.07,.5,.14,.75,.2,.25,.05,.51,.1,.76,.14,.26,.03,.51,.06,.77,.08,.52,.03,1.04,.03,1.56-.04,.02,0,.04,0,.06,0,.25-.33,.48-.68,.67-1.04-.27,.05-.55,.09-.83,.1Z"></path><path fill="url(#n)" d="M49.59,28.87c.24,.1,.49,.18,.73,.25,.25,.07,.5,.14,.75,.2,.25,.05,.51,.1,.76,.14,.26,.03,.51,.06,.77,.08,.52,.03,1.04,.02,1.56-.04,.28-.04,.57-.09,.85-.17,.11-.28,.19-.55,.24-.8,.01-.06,.02-.11,.03-.17-.38,.12-.8,.17-1.22,.2-.11,0-.23,.01-.35,.01h-.17s-.17,0-.17,0c-.23,0-.47-.02-.7-.04-.47-.04-.93-.11-1.4-.2-.46-.09-.92-.21-1.37-.35-.22-.07-.45-.15-.66-.24l-.16-.07-.16-.07c-.11-.05-.21-.09-.32-.15-.36-.18-.71-.38-1.02-.63,0,.02,0,.04-.01,.06-.05,.22-.08,.47-.1,.73,.23,.21,.48,.39,.73,.55,.44,.28,.91,.51,1.39,.7Z"></path><path fill="#2288ef" d="M51.83 15.71c.31-.34.64-.66.96-.98l.49-.48.5-.47c.67-.63 1.35-1.23 2.04-1.83.69-.6 1.39-1.19 2.1-1.77.71-.58 1.43-1.15 2.17-1.68-.63.67-1.29 1.3-1.96 1.93-.67.63-1.35 1.24-2.03 1.84-.69.6-1.38 1.2-2.09 1.78l-.53.43-.54.42c-.36.28-.73.56-1.1.82zM52.6 18.02c.67-.46 1.36-.89 2.06-1.3.7-.41 1.41-.8 2.12-1.17.72-.38 1.44-.74 2.17-1.09.73-.34 1.47-.68 2.23-.97-.67.46-1.36.88-2.06 1.29-.7.41-1.41.8-2.12 1.18-.72.38-1.44.74-2.17 1.09-.73.35-1.47.68-2.23.97zM50.3 14.33c.16-.48.33-.95.51-1.42.18-.47.37-.93.56-1.4l.29-.69c.1-.23.2-.46.3-.69.2-.46.42-.91.64-1.36-.16.48-.33.95-.51 1.42-.09.24-.18.47-.27.7l-.28.7c-.19.46-.39.93-.6 1.38-.2.46-.41.92-.64 1.36zM52.99 19.82c.66-.02 1.31 0 1.97.04.65.04 1.31.09 1.96.16.65.07 1.3.15 1.95.24.65.1 1.29.21 1.94.36-.66.02-1.32 0-1.97-.04-.65-.04-1.31-.09-1.96-.16-.65-.07-1.3-.15-1.95-.25-.65-.1-1.29-.21-1.94-.36z" class="color2255ef svgShape"></path><path fill="#0036ff" d="M47.54,12.88c-.09-.6-.15-1.21-.21-1.81-.06-.6-.1-1.21-.13-1.81-.04-.61-.06-1.21-.08-1.82-.01-.61-.02-1.21,0-1.82,.09,.6,.16,1.21,.21,1.81,.06,.6,.1,1.21,.13,1.82,.03,.61,.06,1.21,.07,1.82,.01,.61,.02,1.21,0,1.82Z" class="colorff2400 svgShape"></path><polygon fill="#0036ff" points="47.03 4.01 47.15 4.39 47.54 4.39 47.22 4.62 47.34 4.99 47.03 4.76 46.71 4.99 46.83 4.62 46.51 4.39 46.9 4.39 47.03 4.01" class="colorff2400 svgShape"></polygon><g fill="#000000" class="color000000 svgShape"><path fill="#0036ff" d="M54.99 34.27c.55.01 1.09.07 1.63.14.54.07 1.07.16 1.61.26s1.06.22 1.59.35c.53.13 1.05.28 1.57.47-.55-.01-1.09-.07-1.63-.14-.54-.07-1.07-.16-1.61-.26-.53-.1-1.06-.22-1.59-.35-.53-.13-1.05-.28-1.57-.47zM55.41 31.52c.61-.24 1.22-.45 1.84-.65.62-.2 1.24-.38 1.87-.55.63-.17 1.25-.33 1.89-.47.63-.14 1.27-.26 1.92-.35-.6.25-1.22.46-1.84.66-.62.2-1.24.37-1.87.54-.63.17-1.26.32-1.89.46-.63.14-1.27.27-1.92.36z" class="colorff2400 svgShape"></path><polygon fill="#0036ff" points="62.41 35.16 62.53 35.54 62.93 35.54 62.61 35.77 62.73 36.14 62.41 35.91 62.1 36.14 62.22 35.77 61.9 35.54 62.29 35.54 62.41 35.16" class="colorff2400 svgShape"></polygon><polygon fill="#0036ff" points="63.49 28.62 63.61 28.99 64 28.99 63.68 29.22 63.8 29.6 63.49 29.37 63.17 29.6 63.29 29.22 62.97 28.99 63.36 28.99 63.49 28.62" class="colorff2400 svgShape"></polygon></g><polygon fill="#2288ef" points="61.19 7.51 61.31 7.88 61.7 7.88 61.39 8.12 61.51 8.49 61.19 8.26 60.87 8.49 60.99 8.12 60.68 7.88 61.07 7.88 61.19 7.51" class="color2255ef svgShape"></polygon><polygon fill="#2288ef" points="62.14 12.79 62.26 13.16 62.65 13.16 62.33 13.39 62.46 13.77 62.14 13.53 61.82 13.77 61.94 13.39 61.62 13.16 62.02 13.16 62.14 12.79" class="color2255ef svgShape"></polygon><polygon fill="#2288ef" points="61.64 20.14 61.76 20.51 62.15 20.51 61.84 20.74 61.96 21.11 61.64 20.88 61.32 21.11 61.44 20.74 61.13 20.51 61.52 20.51 61.64 20.14" class="color2255ef svgShape"></polygon><g fill="#000000" class="color000000 svgShape"><path fill="#2288ef" d="M27.5,13.51s.82,.62,.74,.9c-.08,.28-.87,.45-1.06,.22s.31-1.12,.31-1.12Z" class="color2255ef svgShape"></path><path fill="#2288ef" d="M22.42,8.46c.45,2.12,2.99,5.62,5.11,5.17,2.12-.45,3.03-4.67,2.58-6.8-.45-2.12-2.53-3.48-4.66-3.03-2.12,.45-3.48,2.53-3.03,4.66Z" class="color2255ef svgShape"></path><path fill="url(#o)" d="M29.05,6.11c-.44,.28-.91,.51-1.39,.7-.24,.1-.49,.18-.73,.25-.25,.07-.5,.14-.75,.2-.25,.05-.51,.1-.76,.14-.26,.03-.51,.06-.77,.08-.52,.03-1.04,.02-1.56-.04-.25-.03-.49-.08-.74-.14,.03-.3,.09-.59,.18-.87,.21,.04,.43,.06,.65,.07,.11,0,.23,.01,.35,.01h.17s.17,0,.17,0c.23,0,.47-.02,.7-.04,.47-.04,.94-.11,1.4-.2,.46-.09,.92-.21,1.37-.35,.22-.07,.45-.15,.66-.24l.16-.07,.16-.07c.11-.05,.21-.09,.32-.15,.2-.1,.4-.21,.59-.33,.16,.18,.3,.38,.42,.59-.19,.16-.4,.31-.61,.44Z"></path><path fill="url(#p)" d="M24.02,10.49c.11,0,.23,.01,.35,.01h.17s.17,0,.17,0c.23,0,.47-.02,.7-.04,.47-.04,.94-.11,1.4-.2,.46-.09,.92-.21,1.37-.35,.22-.07,.45-.15,.66-.24l.16-.07,.16-.07c.11-.05,.21-.09,.32-.15,.23-.11,.46-.24,.67-.38-.04,.34-.09,.68-.16,1.01-.04,.02-.07,.05-.11,.07-.44,.28-.91,.51-1.39,.7-.24,.1-.49,.18-.73,.25-.25,.07-.5,.14-.75,.2-.25,.05-.51,.1-.76,.14-.26,.03-.51,.06-.77,.08-.52,.03-1.04,.02-1.56-.04-.02,0-.04,0-.06,0-.25-.33-.48-.68-.67-1.04,.27,.05,.55,.09,.83,.1Z"></path><path fill="url(#q)" d="M28.08,8.81c-.24,.1-.49,.18-.73,.25-.25,.07-.5,.14-.75,.2-.25,.05-.51,.1-.76,.14-.26,.03-.51,.06-.77,.08-.52,.03-1.04,.03-1.56-.04-.28-.04-.57-.09-.85-.17-.11-.28-.19-.55-.24-.8-.01-.06-.02-.11-.03-.17,.38,.12,.8,.17,1.22,.2,.11,0,.23,.01,.35,.01h.17s.17,0,.17,0c.23,0,.47-.02,.7-.04,.47-.04,.93-.11,1.4-.2,.46-.09,.92-.21,1.37-.35,.22-.07,.45-.15,.66-.24l.16-.07,.16-.07c.11-.05,.21-.09,.32-.15,.36-.18,.71-.38,1.02-.63,0,.02,0,.04,.01,.06,.05,.22,.08,.47,.1,.73-.23,.21-.48,.39-.73,.55-.44,.28-.91,.51-1.39,.7Z"></path><path fill="#2288ef" d="M20.67,23.79s.82,.62,.74,.9c-.08,.28-.87,.45-1.06,.22-.19-.23,.31-1.12,.31-1.12Z" class="color2255ef svgShape"></path><path fill="#2288ef" d="M15.58,18.73c.45,2.12,2.99,5.62,5.11,5.17s3.03-4.67,2.58-6.8c-.45-2.12-2.53-3.48-4.66-3.03-2.12,.45-3.48,2.53-3.03,4.66Z" class="color2255ef svgShape"></path><path fill="url(#r)" d="M22.22,16.39c-.44,.28-.91,.51-1.39,.7-.24,.1-.49,.18-.73,.25-.25,.07-.5,.14-.75,.2-.25,.05-.51,.1-.76,.14-.26,.03-.51,.06-.77,.08-.52,.03-1.04,.02-1.56-.04-.25-.03-.49-.08-.74-.14,.03-.3,.09-.59,.18-.87,.21,.04,.43,.06,.65,.07,.11,0,.23,.01,.35,.01h.17s.17,0,.17,0c.23,0,.47-.02,.7-.04,.47-.04,.94-.11,1.4-.2,.46-.09,.92-.21,1.37-.35,.22-.07,.45-.15,.66-.24l.16-.07,.16-.07c.11-.05,.21-.09,.32-.15,.2-.1,.4-.21,.59-.33,.16,.18,.3,.38,.42,.59-.19,.16-.4,.31-.61,.44Z"></path><path fill="url(#s)" d="M17.19,20.76c.11,0,.23,.01,.35,.01h.17s.17,0,.17,0c.23,0,.47-.02,.7-.04,.47-.04,.93-.11,1.4-.2,.46-.09,.92-.21,1.37-.35,.22-.07,.45-.15,.66-.24l.16-.07,.16-.07c.11-.05,.21-.09,.32-.15,.23-.11,.46-.24,.67-.38-.04,.33-.09,.68-.16,1.01-.04,.02-.07,.05-.11,.07-.44,.28-.91,.51-1.39,.7-.24,.1-.49,.18-.73,.25-.25,.07-.5,.14-.75,.2-.25,.05-.51,.1-.76,.14-.26,.03-.51,.06-.77,.08-.52,.03-1.04,.02-1.56-.04-.02,0-.04,0-.06,0-.25-.33-.48-.68-.67-1.04,.27,.05,.55,.09,.83,.1Z"></path><path fill="url(#t)" d="M21.25,19.08c-.24,.1-.49,.18-.73,.25-.25,.07-.5,.14-.75,.2-.25,.05-.51,.1-.76,.14-.26,.03-.51,.06-.77,.08-.52,.03-1.04,.02-1.56-.04-.28-.04-.57-.09-.85-.17-.11-.28-.19-.55-.24-.8-.01-.06-.02-.11-.03-.17,.38,.12,.8,.17,1.22,.2,.11,0,.23,.01,.35,.01h.17s.17,0,.17,0c.23,0,.47-.02,.7-.04,.47-.04,.93-.11,1.4-.2,.46-.09,.92-.21,1.37-.35,.22-.07,.45-.15,.66-.24l.16-.07,.16-.07c.11-.05,.21-.09,.32-.15,.36-.18,.71-.38,1.02-.63,0,.02,0,.04,.01,.06,.05,.22,.08,.47,.1,.73-.23,.21-.48,.39-.73,.55-.44,.28-.91,.51-1.39,.7Z"></path><path fill="#2288ef" d="M13.83,34.06s.82,.62,.74,.9c-.08,.28-.87,.45-1.06,.22-.19-.22,.31-1.12,.31-1.12Z" class="color2255ef svgShape"></path><path fill="#2288ef" d="M8.75,29.01c.45,2.12,2.99,5.62,5.11,5.17,2.12-.45,3.03-4.67,2.58-6.8-.45-2.12-2.53-3.48-4.66-3.03-2.12,.45-3.48,2.53-3.03,4.66Z" class="color2255ef svgShape"></path><path fill="url(#u)" d="M15.38,26.66c-.44,.28-.91,.51-1.39,.7-.24,.1-.49,.18-.73,.25-.25,.07-.5,.14-.75,.2-.25,.05-.51,.1-.76,.14-.26,.03-.51,.06-.77,.08-.52,.03-1.04,.02-1.56-.04-.25-.03-.49-.08-.74-.14,.03-.3,.09-.59,.18-.87,.21,.04,.43,.06,.65,.07,.11,0,.23,.01,.35,.01h.17s.17,0,.17,0c.23,0,.47-.02,.7-.04,.47-.04,.94-.11,1.4-.2,.46-.09,.92-.21,1.37-.35,.22-.07,.45-.15,.66-.24l.16-.07,.16-.07c.11-.05,.21-.09,.32-.15,.2-.1,.4-.21,.59-.33,.16,.18,.3,.38,.42,.59-.19,.16-.4,.31-.61,.44Z"></path><path fill="url(#v)" d="M10.35,31.04c.11,0,.23,.01,.35,.01h.17s.17,0,.17,0c.23,0,.47-.02,.7-.04,.47-.04,.94-.11,1.4-.2,.46-.09,.92-.21,1.37-.35,.22-.07,.45-.15,.66-.24l.16-.07,.16-.07c.11-.05,.21-.09,.32-.15,.23-.11,.46-.24,.67-.38-.04,.34-.09,.68-.16,1.01-.04,.02-.07,.05-.11,.07-.44,.28-.91,.51-1.39,.7-.24,.1-.49,.18-.73,.25-.25,.07-.5,.14-.75,.2-.25,.05-.51,.1-.76,.14-.26,.03-.51,.06-.77,.08-.52,.03-1.04,.02-1.56-.04-.02,0-.04,0-.06,0-.25-.33-.48-.68-.67-1.04,.27,.05,.55,.09,.83,.1Z"></path><path fill="url(#w)" d="M14.41,29.36c-.24,.1-.49,.18-.73,.25-.25,.07-.5,.14-.75,.2-.25,.05-.51,.1-.76,.14-.26,.03-.51,.06-.77,.08-.52,.03-1.04,.02-1.56-.04-.28-.04-.57-.09-.85-.17-.11-.28-.19-.55-.24-.8-.01-.06-.02-.11-.03-.17,.38,.12,.8,.17,1.22,.2,.11,0,.23,.01,.35,.01h.17s.17,0,.17,0c.23,0,.47-.02,.7-.04,.47-.04,.93-.11,1.4-.2,.46-.09,.92-.21,1.37-.35,.22-.07,.45-.15,.66-.24l.16-.07,.16-.07c.11-.05,.21-.09,.32-.15,.36-.18,.71-.38,1.02-.63,0,.02,0,.04,.01,.06,.05,.22,.08,.47,.1,.73-.23,.21-.48,.39-.73,.55-.44,.28-.91,.51-1.39,.7Z"></path><path fill="#2288ef" d="M12.17 16.2c-.31-.34-.64-.66-.96-.98l-.49-.48-.5-.47c-.67-.63-1.35-1.23-2.04-1.83-.69-.6-1.39-1.19-2.1-1.77-.71-.58-1.43-1.15-2.17-1.68.63.66 1.29 1.3 1.96 1.93.67.63 1.35 1.24 2.03 1.84.69.6 1.38 1.2 2.09 1.78l.53.43.54.42c.36.28.73.56 1.1.82zM11.4 18.51c-.67-.46-1.36-.89-2.06-1.3-.7-.41-1.41-.8-2.12-1.17-.72-.38-1.44-.74-2.17-1.09-.73-.34-1.47-.68-2.23-.97.67.46 1.36.88 2.06 1.29.7.41 1.41.8 2.12 1.18.71.38 1.44.74 2.17 1.09.73.35 1.47.68 2.23.97zM13.7 14.82c-.16-.48-.33-.95-.51-1.42-.18-.47-.37-.94-.56-1.4l-.29-.69c-.1-.23-.2-.46-.3-.69-.2-.46-.42-.91-.64-1.36.16.48.33.95.51 1.42.09.24.18.47.27.7l.28.7c.19.46.39.93.6 1.38.2.46.41.92.64 1.36zM11.01 20.31c-.66-.02-1.31 0-1.97.04-.65.04-1.31.09-1.96.16-.65.07-1.3.15-1.95.24-.65.1-1.29.21-1.94.36.66.02 1.32 0 1.97-.04.65-.04 1.31-.09 1.96-.16.65-.07 1.3-.15 1.95-.25.65-.1 1.29-.21 1.94-.36z" class="color2255ef svgShape"></path><path fill="#0036ff" d="M16.46,13.37c.09-.6,.15-1.21,.21-1.81,.06-.6,.1-1.21,.13-1.81,.04-.61,.06-1.21,.08-1.82,.01-.61,.02-1.21,0-1.82-.09,.6-.16,1.21-.21,1.81-.06,.6-.1,1.21-.13,1.82-.03,.61-.06,1.21-.07,1.82-.01,.61-.02,1.21,0,1.82Z" class="colorff2400 svgShape"></path><polygon fill="#0036ff" points="16.97 4.5 16.85 4.88 16.46 4.88 16.78 5.11 16.66 5.48 16.97 5.25 17.29 5.48 17.17 5.11 17.49 4.88 17.1 4.88 16.97 4.5" class="colorff2400 svgShape"></polygon><g fill="#000000" class="color000000 svgShape"><path fill="#0036ff" d="M9.01 34.76c-.55.01-1.09.07-1.63.14-.54.07-1.07.16-1.61.26-.53.1-1.06.22-1.59.35-.53.13-1.05.28-1.57.47.55-.01 1.09-.07 1.63-.14.54-.07 1.07-.16 1.61-.26.53-.1 1.06-.22 1.59-.35.53-.13 1.05-.28 1.57-.47zM8.59 32.01c-.61-.24-1.22-.45-1.84-.65-.62-.2-1.24-.38-1.87-.55-.63-.17-1.25-.33-1.89-.47-.63-.14-1.27-.26-1.92-.35.6.25 1.22.46 1.84.66.62.2 1.24.37 1.87.54.63.17 1.26.32 1.89.46.63.14 1.27.27 1.92.36z" class="colorff2400 svgShape"></path><polygon fill="#0036ff" points="1.59 35.65 1.47 36.03 1.07 36.03 1.39 36.26 1.27 36.63 1.59 36.4 1.9 36.63 1.78 36.26 2.1 36.03 1.71 36.03 1.59 35.65" class="colorff2400 svgShape"></polygon><polygon fill="#0036ff" points=".51 29.11 .39 29.48 0 29.48 .32 29.71 .2 30.09 .51 29.86 .83 30.09 .71 29.71 1.03 29.48 .64 29.48 .51 29.11" class="colorff2400 svgShape"></polygon></g><polygon fill="#2288ef" points="2.81 8 2.69 8.37 2.3 8.37 2.61 8.61 2.49 8.98 2.81 8.75 3.13 8.98 3.01 8.61 3.32 8.37 2.93 8.37 2.81 8" class="color2255ef svgShape"></polygon><polygon fill="#2288ef" points="1.86 13.28 1.74 13.65 1.35 13.65 1.67 13.88 1.54 14.25 1.86 14.02 2.18 14.25 2.06 13.88 2.38 13.65 1.98 13.65 1.86 13.28" class="color2255ef svgShape"></polygon><polygon fill="#2288ef" points="2.36 20.63 2.24 21 1.85 21 2.16 21.23 2.04 21.6 2.36 21.37 2.68 21.6 2.56 21.23 2.87 21 2.48 21 2.36 20.63" class="color2255ef svgShape"></polygon></g><g fill="#000000" class="color000000 svgShape"><polygon fill="#0036ff" points="15.52 20.58 14.73 21.96 15.52 23.33 13.97 23 12.91 24.18 12.74 22.61 11.29 21.96 12.74 21.32 12.9 19.74 13.97 20.92 15.52 20.58" class="colorff2400 svgShape"></polygon><polygon fill="url(#x)" points="12.56 21.4 12.39 21.47 13.71 23.29 13.83 23.15 12.56 21.4"></polygon><polygon fill="url(#y)" points="12.18 21.57 12.01 21.64 12.7 22.59 12.74 22.61 12.75 22.65 13.43 23.6 13.56 23.46 12.18 21.57"></polygon><polygon fill="url(#z)" points="11.63 21.81 11.96 22.26 12.29 22.41 11.8 21.73 11.63 21.81"></polygon><polygon fill="url(#A)" points="13.28 23.77 12.79 23.1 12.83 23.45 13.16 23.9 13.28 23.77"></polygon><polygon fill="url(#B)" points="12.77 21.01 12.74 21.28 14.01 23.01 14.27 23.07 12.77 21.01"></polygon><polygon fill="url(#C)" points="12.83 20.41 12.81 20.68 14.6 23.14 14.86 23.19 12.83 20.41"></polygon><polygon fill="url(#D)" points="14.6 20.78 14.41 20.82 14.95 21.57 15.05 21.4 14.6 20.78"></polygon><polygon fill="url(#E)" points="15.04 20.69 14.84 20.73 15.17 21.18 15.27 21.01 15.04 20.69"></polygon><polygon fill="url(#F)" points="12.9 19.81 12.87 20.07 15.19 23.26 15.45 23.32 12.9 19.81"></polygon><polygon fill="url(#G)" points="14.17 20.87 13.98 20.91 14.73 21.95 14.83 21.78 14.17 20.87"></polygon><polygon fill="#2288ef" points="15.52 20.58 13.97 20.92 12.9 19.74 12.74 21.31 13.36 22.16 15.52 20.58" class="color2255ef svgShape"></polygon><polygon fill="url(#H)" points="14.83 20.84 14.79 20.91 14.83 20.97 14.75 20.96 14.7 21.01 14.69 20.94 14.62 20.91 14.69 20.88 14.7 20.8 14.75 20.86 14.83 20.84"></polygon><polygon fill="url(#I)" points="14.53 21.06 14.49 21.12 14.53 21.19 14.46 21.17 14.4 21.23 14.4 21.15 14.33 21.12 14.4 21.09 14.4 21.02 14.46 21.07 14.53 21.06"></polygon><polygon fill="url(#J)" points="14.23 21.27 14.2 21.34 14.23 21.41 14.16 21.39 14.11 21.45 14.1 21.37 14.03 21.34 14.1 21.31 14.11 21.23 14.16 21.29 14.23 21.27"></polygon><polygon fill="url(#K)" points="13.94 21.49 13.9 21.56 13.94 21.62 13.86 21.61 13.81 21.66 13.8 21.59 13.73 21.56 13.8 21.53 13.81 21.45 13.86 21.51 13.94 21.49"></polygon><polygon fill="url(#L)" points="13.64 21.71 13.6 21.77 13.64 21.84 13.56 21.82 13.51 21.88 13.5 21.8 13.43 21.77 13.5 21.74 13.51 21.67 13.56 21.72 13.64 21.71"></polygon><polygon fill="url(#M)" points="14.24 20.96 14.2 21.03 14.24 21.1 14.16 21.08 14.11 21.14 14.1 21.06 14.03 21.03 14.1 21 14.11 20.92 14.16 20.98 14.24 20.96"></polygon><polygon fill="url(#N)" points="13.9 21.11 13.86 21.18 13.9 21.25 13.83 21.23 13.78 21.29 13.77 21.21 13.7 21.18 13.77 21.15 13.78 21.07 13.83 21.13 13.9 21.11"></polygon><polygon fill="url(#O)" points="13.6 21.33 13.57 21.4 13.6 21.46 13.53 21.45 13.48 21.5 13.47 21.43 13.4 21.4 13.47 21.36 13.48 21.29 13.53 21.35 13.6 21.33"></polygon><polygon fill="url(#P)" points="13.31 21.55 13.27 21.61 13.31 21.68 13.23 21.66 13.18 21.72 13.17 21.64 13.1 21.61 13.17 21.58 13.18 21.5 13.23 21.56 13.31 21.55"></polygon><polygon fill="url(#Q)" points="13.86 20.76 13.82 20.82 13.86 20.89 13.78 20.87 13.73 20.93 13.72 20.85 13.65 20.82 13.72 20.79 13.73 20.71 13.78 20.77 13.86 20.76"></polygon><polygon fill="url(#R)" points="13.56 20.97 13.52 21.04 13.56 21.1 13.48 21.09 13.43 21.14 13.42 21.07 13.35 21.04 13.42 21.01 13.43 20.93 13.48 20.99 13.56 20.97"></polygon><polygon fill="url(#S)" points="13.26 21.19 13.22 21.25 13.26 21.32 13.19 21.3 13.14 21.36 13.13 21.28 13.06 21.25 13.13 21.22 13.13 21.15 13.19 21.2 13.26 21.19"></polygon><polygon fill="url(#T)" points="13.52 20.59 13.49 20.66 13.52 20.73 13.45 20.71 13.4 20.77 13.39 20.69 13.32 20.66 13.39 20.63 13.4 20.55 13.45 20.61 13.52 20.59"></polygon><polygon fill="url(#U)" points="13.23 20.81 13.19 20.88 13.23 20.94 13.15 20.93 13.1 20.98 13.09 20.91 13.02 20.88 13.09 20.85 13.1 20.77 13.15 20.83 13.23 20.81"></polygon><polygon fill="url(#V)" points="12.93 21.03 12.89 21.09 12.93 21.16 12.85 21.14 12.8 21.2 12.79 21.12 12.72 21.09 12.79 21.06 12.8 20.99 12.85 21.04 12.93 21.03"></polygon><polygon fill="url(#W)" points="13.18 20.45 13.14 20.52 13.18 20.58 13.11 20.57 13.05 20.63 13.05 20.55 12.98 20.52 13.05 20.49 13.05 20.41 13.11 20.47 13.18 20.45"></polygon><polygon fill="url(#X)" points="13.15 20.07 13.11 20.14 13.15 20.21 13.07 20.19 13.02 20.25 13.01 20.17 12.94 20.14 13.01 20.11 13.02 20.03 13.07 20.09 13.15 20.07"></polygon></g><g fill="#000000" class="color000000 svgShape"><polygon fill="#0036ff" points="22.43 9.93 21.63 11.31 22.43 12.68 20.87 12.35 19.81 13.53 19.65 11.95 18.2 11.31 19.65 10.66 19.81 9.08 20.87 10.26 22.43 9.93" class="colorff2400 svgShape"></polygon><polygon fill="url(#Y)" points="19.46 10.74 19.29 10.82 20.62 12.64 20.74 12.5 19.46 10.74"></polygon><polygon fill="url(#Z)" points="19.08 10.91 18.92 10.99 19.6 11.93 19.65 11.95 19.65 12 20.34 12.94 20.46 12.81 19.08 10.91"></polygon><polygon fill="url(#aa)" points="18.54 11.16 18.87 11.61 19.2 11.75 18.71 11.08 18.54 11.16"></polygon><polygon fill="url(#ab)" points="20.19 13.12 19.7 12.44 19.74 12.8 20.06 13.25 20.19 13.12"></polygon><polygon fill="url(#ac)" points="19.68 10.36 19.65 10.62 20.91 12.36 21.18 12.41 19.68 10.36"></polygon><polygon fill="url(#ad)" points="19.74 9.76 19.71 10.02 21.5 12.48 21.77 12.54 19.74 9.76"></polygon><polygon fill="url(#ae)" points="21.51 10.13 21.32 10.17 21.86 10.91 21.96 10.74 21.51 10.13"></polygon><polygon fill="url(#af)" points="21.94 10.03 21.75 10.08 22.08 10.53 22.18 10.36 21.94 10.03"></polygon><polygon fill="url(#ag)" points="19.8 9.15 19.78 9.42 22.09 12.61 22.36 12.67 19.8 9.15"></polygon><polygon fill="url(#ah)" points="21.08 10.22 20.88 10.26 21.64 11.3 21.74 11.13 21.08 10.22"></polygon><polygon fill="#2288ef" points="22.43 9.93 20.87 10.26 19.81 9.08 19.65 10.65 20.27 11.5 22.43 9.93" class="color2255ef svgShape"></polygon><polygon fill="url(#ai)" points="21.73 10.19 21.7 10.25 21.73 10.32 21.66 10.31 21.61 10.36 21.6 10.29 21.53 10.25 21.6 10.22 21.61 10.15 21.66 10.2 21.73 10.19"></polygon><polygon fill="url(#aj)" points="21.44 10.4 21.4 10.47 21.44 10.54 21.36 10.52 21.31 10.58 21.3 10.5 21.23 10.47 21.3 10.44 21.31 10.36 21.36 10.42 21.44 10.4"></polygon><polygon fill="url(#ak)" points="21.14 10.62 21.1 10.69 21.14 10.75 21.06 10.74 21.01 10.79 21.01 10.72 20.94 10.69 21.01 10.66 21.01 10.58 21.06 10.64 21.14 10.62"></polygon><polygon fill="url(#al)" points="20.84 10.84 20.8 10.9 20.84 10.97 20.77 10.95 20.72 11.01 20.71 10.94 20.64 10.9 20.71 10.87 20.72 10.8 20.77 10.85 20.84 10.84"></polygon><polygon fill="url(#am)" points="20.54 11.05 20.51 11.12 20.54 11.19 20.47 11.17 20.42 11.23 20.41 11.15 20.34 11.12 20.41 11.09 20.42 11.01 20.47 11.07 20.54 11.05"></polygon><polygon fill="url(#an)" points="21.14 10.31 21.1 10.38 21.14 10.44 21.07 10.43 21.02 10.48 21.01 10.41 20.94 10.38 21.01 10.35 21.02 10.27 21.07 10.33 21.14 10.31"></polygon><polygon fill="url(#ao)" points="20.81 10.46 20.77 10.53 20.81 10.59 20.73 10.58 20.68 10.63 20.67 10.56 20.6 10.53 20.67 10.5 20.68 10.42 20.73 10.48 20.81 10.46"></polygon><polygon fill="url(#ap)" points="20.51 10.68 20.47 10.74 20.51 10.81 20.44 10.79 20.38 10.85 20.38 10.77 20.31 10.74 20.38 10.71 20.38 10.64 20.44 10.69 20.51 10.68"></polygon><polygon fill="url(#aq)" points="20.21 10.89 20.17 10.96 20.21 11.03 20.14 11.01 20.09 11.07 20.08 10.99 20.01 10.96 20.08 10.93 20.09 10.85 20.14 10.91 20.21 10.89"></polygon><polygon fill="url(#ar)" points="20.76 10.1 20.72 10.17 20.76 10.23 20.69 10.22 20.64 10.28 20.63 10.2 20.56 10.17 20.63 10.14 20.64 10.06 20.69 10.12 20.76 10.1"></polygon><polygon fill="url(#as)" points="20.46 10.32 20.43 10.38 20.46 10.45 20.39 10.43 20.34 10.49 20.33 10.42 20.26 10.38 20.33 10.35 20.34 10.28 20.39 10.33 20.46 10.32"></polygon><polygon fill="url(#at)" points="20.17 10.53 20.13 10.6 20.17 10.67 20.09 10.65 20.04 10.71 20.03 10.63 19.96 10.6 20.03 10.57 20.04 10.49 20.09 10.55 20.17 10.53"></polygon><polygon fill="url(#au)" points="20.43 9.94 20.39 10.01 20.43 10.07 20.35 10.06 20.3 10.11 20.3 10.04 20.23 10.01 20.3 9.98 20.3 9.9 20.35 9.96 20.43 9.94"></polygon><polygon fill="url(#av)" points="20.13 10.16 20.09 10.22 20.13 10.29 20.06 10.27 20.01 10.33 20 10.25 19.93 10.22 20 10.19 20.01 10.12 20.06 10.17 20.13 10.16"></polygon><polygon fill="url(#aw)" points="19.83 10.37 19.8 10.44 19.83 10.51 19.76 10.49 19.71 10.55 19.7 10.47 19.63 10.44 19.7 10.41 19.71 10.33 19.76 10.39 19.83 10.37"></polygon><polygon fill="url(#ax)" points="20.09 9.8 20.05 9.87 20.09 9.93 20.01 9.92 19.96 9.97 19.95 9.9 19.88 9.87 19.95 9.83 19.96 9.76 20.01 9.82 20.09 9.8"></polygon><polygon fill="url(#ay)" points="20.05 9.42 20.01 9.49 20.05 9.55 19.98 9.54 19.93 9.6 19.92 9.52 19.85 9.49 19.92 9.46 19.93 9.38 19.98 9.44 20.05 9.42"></polygon></g><g fill="#000000" class="color000000 svgShape"><polygon fill="#0036ff" points="45.25 9.63 44.46 11 45.25 12.37 43.7 12.04 42.64 13.23 42.47 11.65 41.02 11 42.47 10.36 42.64 8.78 43.7 9.96 45.25 9.63" class="colorff2400 svgShape"></polygon><polygon fill="url(#az)" points="42.29 10.44 42.12 10.51 43.44 12.33 43.56 12.19 42.29 10.44"></polygon><polygon fill="url(#aA)" points="41.91 10.61 41.74 10.68 42.43 11.63 42.47 11.65 42.48 11.69 43.17 12.64 43.29 12.5 41.91 10.61"></polygon><polygon fill="url(#aB)" points="41.36 10.85 41.69 11.3 42.02 11.45 41.53 10.77 41.36 10.85"></polygon><polygon fill="url(#aC)" points="43.01 12.81 42.52 12.14 42.56 12.49 42.89 12.95 43.01 12.81"></polygon><polygon fill="url(#aD)" points="42.5 10.05 42.48 10.32 43.74 12.05 44 12.11 42.5 10.05"></polygon><polygon fill="url(#aE)" points="42.57 9.45 42.54 9.72 44.33 12.18 44.59 12.23 42.57 9.45"></polygon><polygon fill="url(#aF)" points="44.33 9.82 44.14 9.86 44.68 10.61 44.78 10.44 44.33 9.82"></polygon><polygon fill="url(#aG)" points="44.77 9.73 44.57 9.77 44.9 10.22 45 10.05 44.77 9.73"></polygon><polygon fill="url(#aH)" points="42.63 8.85 42.6 9.12 44.92 12.3 45.18 12.36 42.63 8.85"></polygon><polygon fill="url(#aI)" points="43.9 9.91 43.71 9.95 44.46 10.99 44.56 10.82 43.9 9.91"></polygon><polygon fill="#2288ef" points="45.25 9.63 43.7 9.96 42.64 8.78 42.47 10.35 43.09 11.2 45.25 9.63" class="color2255ef svgShape"></polygon><polygon fill="url(#aJ)" points="44.56 9.88 44.52 9.95 44.56 10.01 44.48 10 44.43 10.06 44.43 9.98 44.36 9.95 44.43 9.92 44.43 9.84 44.48 9.9 44.56 9.88"></polygon><polygon fill="url(#aK)" points="44.26 10.1 44.22 10.16 44.26 10.23 44.19 10.22 44.14 10.27 44.13 10.2 44.06 10.16 44.13 10.13 44.14 10.06 44.19 10.11 44.26 10.1"></polygon><polygon fill="url(#aL)" points="43.96 10.31 43.93 10.38 43.96 10.45 43.89 10.43 43.84 10.49 43.83 10.41 43.76 10.38 43.83 10.35 43.84 10.27 43.89 10.33 43.96 10.31"></polygon><polygon fill="url(#aM)" points="43.67 10.53 43.63 10.6 43.67 10.66 43.59 10.65 43.54 10.7 43.53 10.63 43.46 10.6 43.53 10.57 43.54 10.49 43.59 10.55 43.67 10.53"></polygon><polygon fill="url(#aN)" points="43.37 10.75 43.33 10.81 43.37 10.88 43.29 10.86 43.24 10.92 43.24 10.84 43.17 10.81 43.24 10.78 43.24 10.71 43.29 10.76 43.37 10.75"></polygon><polygon fill="url(#aO)" points="43.97 10 43.93 10.07 43.97 10.14 43.89 10.12 43.84 10.18 43.83 10.1 43.76 10.07 43.83 10.04 43.84 9.96 43.89 10.02 43.97 10"></polygon><polygon fill="url(#aP)" points="43.63 10.15 43.59 10.22 43.63 10.29 43.56 10.27 43.51 10.33 43.5 10.25 43.43 10.22 43.5 10.19 43.51 10.11 43.56 10.17 43.63 10.15"></polygon><polygon fill="url(#aQ)" points="43.33 10.37 43.3 10.44 43.33 10.5 43.26 10.49 43.21 10.54 43.2 10.47 43.13 10.44 43.2 10.41 43.21 10.33 43.26 10.39 43.33 10.37"></polygon><polygon fill="url(#aR)" points="43.04 10.59 43 10.65 43.04 10.72 42.96 10.7 42.91 10.76 42.9 10.68 42.83 10.65 42.9 10.62 42.91 10.55 42.96 10.6 43.04 10.59"></polygon><polygon fill="url(#aS)" points="43.59 9.8 43.55 9.86 43.59 9.93 43.51 9.91 43.46 9.97 43.45 9.89 43.38 9.86 43.45 9.83 43.46 9.76 43.51 9.81 43.59 9.8"></polygon><polygon fill="url(#aT)" points="43.29 10.01 43.25 10.08 43.29 10.14 43.21 10.13 43.16 10.19 43.16 10.11 43.09 10.08 43.16 10.05 43.16 9.97 43.21 10.03 43.29 10.01"></polygon><polygon fill="url(#aU)" points="42.99 10.23 42.95 10.29 42.99 10.36 42.92 10.35 42.87 10.4 42.86 10.33 42.79 10.29 42.86 10.26 42.87 10.19 42.92 10.24 42.99 10.23"></polygon><polygon fill="url(#aV)" points="43.25 9.63 43.22 9.7 43.25 9.77 43.18 9.75 43.13 9.81 43.12 9.73 43.05 9.7 43.12 9.67 43.13 9.59 43.18 9.65 43.25 9.63"></polygon><polygon fill="url(#aW)" points="42.96 9.85 42.92 9.92 42.96 9.98 42.88 9.97 42.83 10.02 42.82 9.95 42.75 9.92 42.82 9.89 42.83 9.81 42.88 9.87 42.96 9.85"></polygon><polygon fill="url(#aX)" points="42.66 10.07 42.62 10.13 42.66 10.2 42.59 10.18 42.53 10.24 42.53 10.16 42.46 10.13 42.53 10.1 42.53 10.03 42.58 10.08 42.66 10.07"></polygon><polygon fill="url(#aY)" points="42.91 9.49 42.87 9.56 42.91 9.63 42.84 9.61 42.79 9.67 42.78 9.59 42.71 9.56 42.78 9.53 42.79 9.45 42.84 9.51 42.91 9.49"></polygon><polygon fill="url(#aZ)" points="42.88 9.12 42.84 9.18 42.88 9.25 42.8 9.23 42.75 9.29 42.74 9.21 42.67 9.18 42.74 9.15 42.75 9.07 42.8 9.13 42.88 9.12"></polygon></g><g fill="#000000" class="color000000 svgShape"><polygon fill="#0036ff" points="52.41 19.03 51.62 20.41 52.41 21.78 50.86 21.45 49.8 22.63 49.63 21.05 48.18 20.41 49.63 19.76 49.79 18.18 50.86 19.36 52.41 19.03" class="colorff2400 svgShape"></polygon><polygon fill="url(#ba)" points="49.45 19.85 49.28 19.92 50.6 21.74 50.72 21.6 49.45 19.85"></polygon><polygon fill="url(#bb)" points="49.07 20.01 48.9 20.09 49.59 21.03 49.63 21.05 49.64 21.1 50.32 22.05 50.45 21.91 49.07 20.01"></polygon><polygon fill="url(#bc)" points="48.52 20.26 48.85 20.71 49.18 20.85 48.69 20.18 48.52 20.26"></polygon><polygon fill="url(#bd)" points="50.17 22.22 49.68 21.54 49.72 21.9 50.05 22.35 50.17 22.22"></polygon><polygon fill="url(#be)" points="49.66 19.46 49.63 19.72 50.9 21.46 51.16 21.52 49.66 19.46"></polygon><polygon fill="url(#bf)" points="49.72 18.86 49.7 19.12 51.49 21.58 51.75 21.64 49.72 18.86"></polygon><polygon fill="url(#bg)" points="51.49 19.23 51.3 19.27 51.84 20.01 51.94 19.84 51.49 19.23"></polygon><polygon fill="url(#bh)" points="51.93 19.14 51.73 19.18 52.06 19.63 52.16 19.46 51.93 19.14"></polygon><polygon fill="url(#bi)" points="49.79 18.25 49.76 18.52 52.08 21.71 52.34 21.77 49.79 18.25"></polygon><polygon fill="url(#bj)" points="51.06 19.32 50.87 19.36 51.62 20.4 51.72 20.23 51.06 19.32"></polygon><polygon fill="#2288ef" points="52.41 19.03 50.86 19.36 49.79 18.18 49.63 19.75 50.25 20.6 52.41 19.03" class="color2255ef svgShape"></polygon><polygon fill="url(#bk)" points="51.72 19.29 51.68 19.36 51.72 19.42 51.64 19.41 51.59 19.46 51.58 19.39 51.51 19.36 51.58 19.32 51.59 19.25 51.64 19.31 51.72 19.29"></polygon><polygon fill="url(#bl)" points="51.42 19.51 51.38 19.57 51.42 19.64 51.35 19.62 51.29 19.68 51.29 19.6 51.22 19.57 51.29 19.54 51.29 19.46 51.35 19.52 51.42 19.51"></polygon><polygon fill="url(#bm)" points="51.12 19.72 51.09 19.79 51.12 19.85 51.05 19.84 51 19.9 50.99 19.82 50.92 19.79 50.99 19.76 51 19.68 51.05 19.74 51.12 19.72"></polygon><polygon fill="url(#bn)" points="50.83 19.94 50.79 20 50.83 20.07 50.75 20.05 50.7 20.11 50.69 20.04 50.62 20 50.69 19.97 50.7 19.9 50.75 19.95 50.83 19.94"></polygon><polygon fill="url(#bo)" points="50.53 20.15 50.49 20.22 50.53 20.29 50.45 20.27 50.4 20.33 50.39 20.25 50.32 20.22 50.39 20.19 50.4 20.11 50.45 20.17 50.53 20.15"></polygon><polygon fill="url(#bp)" points="51.13 19.41 51.09 19.48 51.13 19.54 51.05 19.53 51 19.58 50.99 19.51 50.92 19.48 50.99 19.45 51 19.37 51.05 19.43 51.13 19.41"></polygon><polygon fill="url(#bq)" points="50.79 19.56 50.75 19.63 50.79 19.69 50.72 19.68 50.67 19.73 50.66 19.66 50.59 19.63 50.66 19.6 50.67 19.52 50.72 19.58 50.79 19.56"></polygon><polygon fill="url(#br)" points="50.49 19.78 50.46 19.84 50.49 19.91 50.42 19.89 50.37 19.95 50.36 19.87 50.29 19.84 50.36 19.81 50.37 19.74 50.42 19.79 50.49 19.78"></polygon><polygon fill="url(#bs)" points="50.2 19.99 50.16 20.06 50.2 20.13 50.12 20.11 50.07 20.17 50.06 20.09 49.99 20.06 50.06 20.03 50.07 19.95 50.12 20.01 50.2 19.99"></polygon><polygon fill="url(#bt)" points="50.75 19.2 50.71 19.27 50.75 19.33 50.67 19.32 50.62 19.38 50.61 19.3 50.54 19.27 50.61 19.24 50.62 19.16 50.67 19.22 50.75 19.2"></polygon><polygon fill="url(#bu)" points="50.45 19.42 50.41 19.49 50.45 19.55 50.37 19.54 50.32 19.59 50.31 19.52 50.24 19.49 50.31 19.45 50.32 19.38 50.37 19.43 50.45 19.42"></polygon><polygon fill="url(#bv)" points="50.15 19.64 50.11 19.7 50.15 19.77 50.08 19.75 50.02 19.81 50.02 19.73 49.95 19.7 50.02 19.67 50.02 19.59 50.08 19.65 50.15 19.64"></polygon><polygon fill="url(#bw)" points="50.41 19.04 50.38 19.11 50.41 19.17 50.34 19.16 50.29 19.21 50.28 19.14 50.21 19.11 50.28 19.08 50.29 19 50.34 19.06 50.41 19.04"></polygon><polygon fill="url(#bx)" points="50.12 19.26 50.08 19.32 50.12 19.39 50.04 19.37 49.99 19.43 49.98 19.35 49.91 19.32 49.98 19.29 49.99 19.22 50.04 19.27 50.12 19.26"></polygon><polygon fill="url(#by)" points="49.82 19.47 49.78 19.54 49.82 19.61 49.74 19.59 49.69 19.65 49.68 19.57 49.61 19.54 49.68 19.51 49.69 19.43 49.74 19.49 49.82 19.47"></polygon><polygon fill="url(#bz)" points="50.07 18.9 50.03 18.97 50.07 19.03 50 19.02 49.94 19.07 49.94 19 49.87 18.97 49.94 18.93 49.94 18.86 50 18.92 50.07 18.9"></polygon><polygon fill="url(#bA)" points="50.04 18.52 50 18.59 50.04 18.65 49.96 18.64 49.91 18.7 49.9 18.62 49.83 18.59 49.9 18.56 49.91 18.48 49.96 18.54 50.04 18.52"></polygon></g><g fill="#000000" class="color000000 svgShape"><path fill="#2b4cc7" d="M28.72,20.36s.09,1.02,1.74,1.49c.97,.28,2.13,.42,3.12,.31,1.32-.15,2.13-.96,1.97-1.38-.15-.38-.26-.34-.26-.34l-4.31-.23s-2.26-.27-2.26,.15" class="colorc72b2b svgShape"></path><path fill="#2643b0" d="M29.01,20.29s.08,.89,1.59,1.31c.88,.25,1.94,.38,2.84,.29,1.2-.12,1.94-.81,1.8-1.18-.13-.33-.24-.3-.24-.3l-3.93-.24s-2.05-.25-2.06,.11" class="colorb02626 svgShape"></path><path fill="#223c9e" d="M34.47,21c-.04,.43-1.1,.7-2.36,.59-1.26-.11-2.25-.55-2.21-.99,.04-.43,1.1-.7,2.36-.59,1.26,.11,2.25,.55,2.21,.99" class="color9e2222 svgShape"></path><path fill="#1d3387" d="M33.95,20.77c-.03,.33-.83,.52-1.78,.44-.95-.08-1.7-.42-1.67-.74,.03-.33,.83-.52,1.78-.44,.95,.08,1.7,.42,1.67,.74" class="color871d1d svgShape"></path><path fill="#2542ad" d="M29.83,21.28s-.05,.12-.1,.28c0,0,0,0,0,0,.03-.09,.06-.18,.1-.27,0,0,0,0,0-.01t0,0" class="colorad2525 svgShape"></path><polyline fill="#213a99" points="29.83 21.28 29.83 21.28 29.83 21.28 29.83 21.28" class="color992121 svgShape"></polyline><path fill="#1e358a" d="M30.16,20.68c-.05,.06-.07,.09-.07,.09,0,0,.01-.01,.02-.02,0,0,.01-.02,.02-.02l.03-.05" class="color8a1e1e svgShape"></path><path fill="url(#bB)" d="M30.13,20.73s-.01,.02-.02,.02c0,0,0,0,0,0v-.02"></path><path fill="#19318d" d="M30.25,20.51l-.1,.16s.05-.07,.09-.11c.01-.02,.03-.03,.04-.05-.01,0-.02,0-.04,0" class="color8d1919 svgShape"></path><path fill="url(#bC)" d="M30.29,20.52s-.03,.03-.04,.05c.01-.02,.03-.03,.05-.05,0,0,0,0,0,0"></path><path fill="#162c7e" d="M30.25,20.57s-.06,.08-.09,.11l-.03,.05c.04-.05,.08-.11,.12-.16" class="color7e1616 svgShape"></path><path fill="#3255db" d="M30.68,19.99s1.47-.19,3.41,.41c0,0-2.75-.04-3.41-.41" class="colordb3532 svgShape"></path><path fill="#2544ba" d="M31.38,19.96c-.12,.02-.25,.04-.38,.05,.09,.01,.18,.02,.28,.04-.04,.02-.07,.05-.09,.08h0s.06-.06,.09-.08c.16,.02,.32,.04,.5,.06h0c.12,.01,.23,.02,.36,.04,.17,.02,.34,.03,.5,.04h0c.18,.01,.35,.02,.52,.03,.03,.04,.07,.09,.11,.15h0c-.03-.07-.07-.12-.11-.15,.11,0,.21,.01,.31,.01-.86-.21-1.59-.26-2.09-.27" class="colorba2825 svgShape"></path><path fill="url(#b)" d="M29.31,19.79c-.06,0-.11,0-.16,0-.22,.02-.46,.22-.42,.55,0,.01,0,.02,0,.04-.02-.13,0-.36,.3-.36,.05,0,.1,0,.17,.02,.1,.02,.21,.04,.32,.07,.02-.13,.09-.26,.29-.28-.19-.02-.36-.04-.5-.04"></path><path fill="url(#bD)" d="M34.69,20.27c.06,.03,.17,.12,.17,.31,.44,.02,.7,.12,.68,.48,0,0,0-.05-.03-.1,.02,.04,.03,.08,.03,.11,0,.02-.02,.04-.02,.04,0,0,.11-.28,.07-.44-.05-.16-.15-.28-.4-.35-.12-.03-.29-.05-.5-.06"></path><path fill="#203dab" d="M35.25,20.78s0,0,0,.01c0,0,0,0,0,0,.14,.04,.22,.1,.25,.16-.04-.07-.11-.14-.26-.17m-6.24-.52c-.32,0-.26,.21-.26,.21h0c0-.16,.1-.2,.26-.2h0s0,0,0,0" class="colorab2020 svgShape"></path><path fill="#1c369a" d="M35.03,20.76c-.06,0-.12,0-.19,0h0c-.12,0-.26,.02-.42,.03,0,0,0,0,0,0,.21-.02,.4-.03,.55-.03,.11,0,.21,0,.28,.02,0,0,0,0,0-.01-.02,0-.05,0-.07-.01-.04,0-.09,0-.15,0m-6-.5s-.01,0-.02,0c0,0,0,0,0,0,.18,0,.42,.07,.59,.1,.09,.02,.21,.05,.36,.08,0,0,0,0,0,0-.16-.04-.3-.07-.44-.1h0s-.08-.02-.12-.03c-.16-.04-.28-.05-.37-.05" class="color9a1c1c svgShape"></path><path fill="#19318d" d="M34.42,20.8c-.1,0-.21,.02-.33,.03h0s.05,0,.08,0c.09,0,.17-.02,.25-.02,0,0,0,0,0,0m-4.46-.35s0,0,0,0c.09,.02,.19,.04,.3,.06h0c-.1-.02-.2-.04-.29-.07" class="color8d1919 svgShape"></path><path fill="#132a80" d="M30.27,20.49h0s0,.02,.01,.03c0,0-.02,0-.02,0h0s.02,0,.04,0c0,0,0,0,0,0,0,0,0,0-.01,0,0,0,0-.02-.01-.03" class="color801313 svgShape"></path><polyline fill="url(#e)" points="30.29 20.52 30.29 20.52 30.29 20.52 30.29 20.52 30.29 20.52"></polyline><path fill="#132a80" d="M34.08,20.8s0,.02-.01,.03c-.04,0-.07,0-.11,0,0,0,0,0,0,.01,.04,0,.08,0,.13-.01h0s-.01,0-.02,0c0,0,0-.02,.01-.03h0" class="color801313 svgShape"></path><path fill="url(#bE)" d="M33.92,20.84c-.15,.01-.3,.02-.46,.03,0,0,0,.01,.01,.02,.14,0,.28-.02,.45-.03,0,0,0,0-.01-.01m.04,0s0,0,0,0c0,0,0,0,0,.01,0,0,0,0,0,0,0,0,0,0,0-.01m-2.32-.27c0,.06,.02,.13,.04,.2-.21-.03-.41-.06-.61-.1h0s-.07-.01-.1-.02c.48,.09,.95,.17,1.18,.18,.04,0,.08,0,.12,0,0,0,0,0,0,0-.2-.02-.4-.05-.6-.07-.02-.07-.03-.14-.04-.2h0m-1.26-.03s0,0,0,0c.01,0,.02,0,.03,0-.01,0-.02,0-.03,0"></path><path fill="url(#f)" d="M33.46,20.87c-.07,0-.13,0-.2,0,0,0,.02,0,.02,.01,.06,0,.12,0,.19,0,0,0,0-.01-.01-.02m-1.19-.02s0,0,0,0c.07,0,.14,.01,.21,.02,0,0,0,0,0,0-.05,0-.1,0-.15-.01-.02,0-.04,0-.06,0"></path><path fill="#111939" d="M32.67,20.77h0s-.02,.07-.02,.1c-.05,0-.11,0-.16,0,0,0,0,0,0,0,.18,.01,.37,.03,.62,.03,.06,0,.12,0,.19,0,0,0-.02,0-.02-.01-.02,0-.04,0-.05,0h0c-.08,0-.16,0-.23,0-.11,0-.22,0-.33,0,0-.03,.01-.06,.02-.1" class="color391111 svgShape"></path><path fill="url(#bF)" d="M33.96,20.84s-.03,0-.04,0c0,0,0,0,.01,.01,.01,0,.02,0,.03,0,0,0,0,0,0-.01m-3.66-.31s0,0,0,0c.03,0,.06,.01,.09,.02,0,0,0,0,0,0-.03,0-.06-.01-.09-.02"></path><path fill="#203dab" d="M28.73,20.38c0,.05,.02,.09,.02,.09h0s-.02-.06-.02-.09" class="colorab2020 svgShape"></path><path fill="url(#c)" d="M28.75,20.47h0m.28-.44c-.31,0-.32,.23-.3,.36,0,.03,.01,.06,.02,.09,0,0-.06-.2,.26-.21,0,0,.01,0,.02,0,.09,0,.21,.02,.37,.05,.04,0,.08,.02,.12,.03h0s-.01-.07-.01-.13c0-.03,0-.07,0-.1-.11-.02-.22-.05-.32-.07-.06-.01-.12-.02-.17-.02"></path><path fill="url(#bG)" d="M34.86,20.58s0,0,0,.01c0,.05,0,.11-.02,.18h0c.07,0,.13,0,.19,0,.06,0,.11,0,.15,0,.02,0,.05,0,.07,.01,.15,.03,.22,.11,.26,.17,.04,.06,.03,.1,.03,.1,.02-.35-.24-.46-.68-.48"></path><path fill="#85bdf6" d="M27.48,48.64l.98,9.54c.65,1.37,3.43,1.45,3.02,.02l-1.23-10.1-2.77,.54Z" class="colorf69d85 svgShape"></path><path fill="#3d4666" d="M33.63,39.33l-2.3,9.71,.49,8.01c.01,.23-.13,.44-.36,.49-.6,.13-1.86,.3-3.32,.02-.18-.04-.33-.18-.37-.36-.26-1.19-1.22-5.67-1.42-8.16-.25-3.13,1.12-9.42,1.12-9.42l6.16-.3Z" class="color3d4566 svgShape"></path><path d="M31.83,57.06c.01,.23-.13,.44-.36,.48-.61,.13-1.86,.3-3.31,.03-.19-.04-.33-.17-.38-.36-.26-1.19-1.22-5.66-1.42-8.16-.25-3.12,1.12-9.41,1.12-9.41l.93-.04c-.35,1.76-1.15,6.2-.96,8.68,.2,2.48,1.16,6.97,1.42,8.16,.04,.17,.19,.32,.38,.35,1,.2,1.9,.17,2.57,.1v.17Z" opacity=".15" fill="#000000" class="color000000 svgShape"></path><path fill="#85bdf6" d="M33.93,48.84l2.89,9.14c.91,1.21,3.65,.72,2.96-.59l-3.24-9.64-2.61,1.09Z" class="colorf69d85 svgShape"></path><path fill="#3d4666" d="M36.95,39.36c.87,1.85,.85,9.09,.85,9.09l2.1,7.75c.06,.22-.04,.46-.26,.55-.57,.25-1.76,.67-3.24,.69-.19,0-.36-.11-.44-.28-.46-1.05-2.09-4.88-2.92-7.77-.87-3.02-1.45-8.94-1.45-8.94l5.35-1.1Z" class="color3d4566 svgShape"></path><path d="M39.88,56.2c.06,.22-.04,.45-.25,.55-.57,.25-1.76,.67-3.24,.68-.19,.01-.36-.1-.45-.28-.45-1.05-2.08-4.88-2.9-7.77-.87-3.02-1.45-8.94-1.45-8.94l.61-.12c.19,1.67,.7,5.84,1.38,8.22,.83,2.89,2.45,6.71,2.92,7.77,.07,.17,.25,.28,.44,.28,1.23-.01,2.27-.32,2.9-.57l.04,.17Z" opacity=".15" fill="#000000" class="color000000 svgShape"></path><rect width="2.95" height="1.88" x="30.66" y="24.64" fill="#85bdf6" transform="rotate(-87.33 32.128 25.579)" class="colorf69d85 svgShape"></rect><path fill="#6b80d1" d="M32.72,25.6c-.81,.36-1.54,.25-1.54,.25l.03-.57,1.52,.32Z" class="colord1836b svgShape"></path><path fill="#2a3047" d="M30.3,22.56s-.26-.52-.09-1.05l.59,.14s-.35,.41-.5,.91Z" class="color2a3047 svgShape"></path><path fill="#85bdf6" d="M31.82,25.66h0c-1.08-.17-1.82-1.18-1.65-2.26l.16-1.01c.01-1.19,1.18-1.82,2.26-1.65h0c1.08,.17,1.82,1.18,1.65,2.26l-.16,1.01c-.17,1.08-1.18,1.82-2.26,1.65Z" class="colorf69d85 svgShape"></path><path fill="#85bdf6" d="M34.81 23.73c-.04.29-.31.48-.6.44-.29-.04-.48-.31-.44-.6.04-.29.31-.48.6-.44.29.04.48.31.44.6zM30.74 23.16c-.04.29-.31.48-.6.44-.29-.04-.48-.31-.44-.6.04-.29.31-.48.6-.44.29.04.48.31.44.6zM31.64 37.36h-.11c-1.73-.09-3.07-1.56-2.99-3.29l.22-4.81c.08-1.73 1.77-3 3.29-2.99h.11c1.45.07 3.08 1.56 2.99 3.29l-.22 4.81c-.08 1.73-1.55 3.08-3.29 2.99z" class="colorf69d85 svgShape"></path><path fill="#30333c" d="M32.52 23.07c-.02.15.02.27.09.28.07.01.15-.1.18-.24.02-.15-.02-.27-.09-.28-.07-.01-.15.1-.18.24zM31.34 22.89c-.02.15.02.27.09.28.07.01.15-.1.18-.24.02-.15-.02-.27-.09-.28-.07-.01-.15.1-.18.24z" class="color30313c svgShape"></path><path fill="#021b79" d="M29.41,20.95c.32-.72,1.14-.37,1.63-.8,.37-.31,1.48-.74,2.19-.39,.56,.27,.75,.76,.81,1.14,.28,.15,.58,.43,.64,.94,.08,.61-.47,1.27-.47,1.27,0,0-.58-.27-.79-.92-.11-.34-.15-.62-.15-.82-.3-.03-.64-.06-.9-.04-.91,.07-1.77-.61-1.9,.8-.13,1.28-1.3-.66-1.07-1.19Z" class="color052644 svgShape"></path><path fill="#6b80d1" d="M33.28 23.73c0 .11-.09.19-.21.19-.12 0-.21-.08-.21-.19 0-.11.09-.19.21-.19.12 0 .21.08.21.19zM31.07 23.47c0 .11-.09.19-.21.19-.12 0-.21-.08-.21-.19 0-.11.09-.19.21-.19.12 0 .21.08.21.19z" class="colord1836b svgShape"></path><path fill="#455baf" d="M30.19 23.39s.03-.01.03-.03c.03-.2-.1-.26-.18-.29-.04-.02-.07-.03-.08-.05 0-.01 0-.03 0-.05.08-.17.3-.15.31-.15.02 0 .03-.01.03-.03 0-.02-.01-.03-.03-.03-.01 0-.27-.03-.37.19-.02.04-.02.07-.01.1.02.05.06.07.11.09.08.04.17.08.15.23 0 .02 0 .03.03.03 0 0 0 0 0 0zM34.28 23.99s0 0 0 0c.02 0 .03-.02.03-.03-.01-.15.08-.19.16-.22.05-.02.1-.04.12-.08.01-.03.01-.06 0-.1-.08-.22-.34-.21-.36-.21-.02 0-.03.01-.03.03 0 .02.02.03.03.03 0 0 .23 0 .3.17 0 .02.01.04 0 .05 0 .02-.05.03-.08.05-.09.03-.22.08-.2.28 0 .02.01.03.03.03zM32.02 24.2c.11 0 .23-.02.36-.06.02 0 .02-.02.02-.04 0-.02-.02-.02-.04-.02-.47.16-.86-.07-.86-.07-.01 0-.03 0-.04.01s0 .03.01.04c.01 0 .24.14.55.14zM31.92 23.84s.02 0 .03-.02c0-.02 0-.03-.02-.04-.07-.03-.2-.11-.19-.17.02-.08.22-.44.29-.57 0-.01 0-.03-.01-.04-.01 0-.03 0-.04.01-.01.02-.27.48-.3.59-.04.13.2.23.22.24 0 0 0 0 .01 0zM31.19 22.49s.01 0 .02 0c.29-.13.63 0 .63 0 .03.01.06 0 .07-.03.01-.03 0-.06-.03-.07-.02 0-.38-.14-.71 0-.03.01-.04.04-.03.07 0 .02.03.03.05.03zM33.07 22.76s.03 0 .04-.02c.02-.02.01-.05 0-.07-.01-.01-.31-.25-.71-.22-.03 0-.05.03-.05.06 0 .03.03.05.06.05.35-.02.63.2.63.2 0 0 .02.01.03.01z" class="coloraf5945 svgShape"></path><path fill="#85bdf6" d="M37.55,39.06s-.7,.47-.9,1.13c-.2,.67-.13,.97,.04,1.21,.17,.24,1.11-.59,1.27-1.03,.16-.43,.17-1-.42-1.32Z" class="colorf69d85 svgShape"></path><path fill="#85bdf6" d="M37.26,39.18c-.43,.26-.82,.61-1.11,1.03-.03,.05-.1,.14-.13,.2-.08,.1-.13,.27,.01,.35,.13,.08,.24-.03,.3-.13,.32-.38,.74-.68,1.2-.87,.48-.15,.14-.84-.27-.56Z" class="colorf69d85 svgShape"></path><path fill="#85bdf6" d="M36.65,40.2c-.2,.49-.5,.94-.87,1.32-.14,.14,.06,.37,.21,.25,.18-.13,.35-.27,.51-.42,.28-.27,.53-.57,.73-.91,.22-.41-.45-.69-.58-.24Z" class="colorf69d85 svgShape"></path><path fill="#85bdf6" d="M36.72,40.5c-.09,.34-.25,.67-.44,.96-.07,.2-.49,.42-.29,.63,.22,.19,.69-.47,.84-.62,.2-.25,.38-.52,.51-.82,.18-.45-.56-.64-.61-.15Z" class="colorf69d85 svgShape"></path><path fill="#85bdf6" d="M36.94,40.64c-.06,.51-.27,1.01-.61,1.4-.13,.15,.09,.36,.23,.23,.18-.14,.34-.31,.47-.49,.25-.34,.45-.73,.54-1.14,.1-.52-.73-.53-.64,0Z" class="colorf69d85 svgShape"></path><path fill="#85bdf6" d="M37.46,40.19c0,.53-.13,1.08-.39,1.54-.06,.21-.51,.48-.32,.67,.29,.23,.87-.75,.98-.98,.19-.4,.32-.83,.36-1.27,.02-.47-.7-.43-.63,.03Z" class="colorf69d85 svgShape"></path><path fill="#455baf" d="M36.48 41.26c.07-.11.13-.22.18-.34 0-.02 0-.03-.02-.04s-.03 0-.04.02c-.13.34-.46.71-.46.72-.01.01-.01.03 0 .04.01.01.03.01.04 0 0-.01.16-.18.3-.4zM36.72 41.56c.06-.1.13-.21.17-.31 0-.02 0-.03-.02-.04-.02 0-.03 0-.04.02-.12.27-.4.63-.4.63-.01.01 0 .03 0 .04.01.01.03 0 .04 0 0 0 .12-.15.23-.33zM37.04 41.82s0 0 0 0c0-.01.18-.29.25-.53 0-.02 0-.03-.02-.04-.02 0-.03 0-.04.02-.07.23-.24.51-.24.51 0 .01 0 .03.01.04.01 0 .03 0 .04 0z" class="coloraf5945 svgShape"></path><path d="M26.22,39.86s-.95,.55-2.29,.07c0,0,1.05-.76,2.29-.07Z" fill="#000000" class="color000000 svgShape"></path><path fill="#85bdf6" d="M24.3,40.76l-.36-6.08c-.01-.18,.03-.36,.13-.52l.04-.07,3.89-6.28s.02-.03,.02-.04c.38-.56,1.14-.71,1.7-.34,.56,.38,.71,1.14,.34,1.7l-3.96,5.91-.36,5.72c-.02,.36-.31,.66-.68,.68-.4,.02-.74-.28-.77-.68Z" class="colorf69d85 svgShape"></path><path fill="#e4eaf0" d="M37.3,38.56c.04,.55-.03,.96-.28,1.15-.09,.06-.19,.12-.33,.17h-.01c-1.13,.45-3.95,.73-5.72,.64-1.57-.07-3.54-.41-3.62-.89-.23-1.5-.26-3.32-.1-5.13-.38,.46-.61,.75-.61,.75l-.41,4.6c-.13-.06-.28-.09-.41-.12-.58-.1-1.12-.03-1.47,.04-.04,.01-.07,.01-.1,.03-.2,.06-.32,.1-.32,.1,0,0-.7-4.07-.51-5.52,.19-1.44,2.37-4.54,3.72-6.17,.77-.93,1.83-1.35,2.58-1.54,.12-.03,.22-.06,.32-.06,.2-.04,.36-.07,.48-.07,.03-.01,.04-.01,.06-.01h.01s.04-.03,.07-.03c.03-.03,.06-.03,.07-.04,.04-.01,.1-.03,.13-.04,.19-.07,.29-.09,.29-.09,0,.01,.01,.03,.01,.04,.35,.89,1.63,.19,1.83,.06,.01-.01,.03-.01,.03-.01v.03l-.09,.51-.03,.12-.03,.17v.07s-.04,.15-.04,.15l-.33,1.96c.09,.12,.22,.26,.39,.45,.09,.09,.19,.19,.29,.29,.3,.3,.67,.67,1.06,1.03,.26,.23,.54,.49,.8,.73,.36,.33,.71,.65,1.02,.93v.04c.07,.83,.39,1.96,.68,3.06,.16,.58,.3,1.15,.41,1.66,.01,.04,.01,.07,.01,.1,.03,.13,.06,.26,.07,.39,.03,.16,.04,.3,.06,.44Z" class="colore4eaf0 svgShape"></path><path fill="#d2d6db" d="M31.13,27.09h-.01s-.12,.01-.19,.03c-.06,0-.15,.01-.22,.03h-.01c-.28,.04-.62,.12-1,.26-.07,.03-.13,.06-.22,.09h-.01c-.6,.25-1.26,.64-1.79,1.28-.39,.48-.86,1.07-1.32,1.73-.01,.01-.01,.03-.03,.04-.71,.99-1.41,2.08-1.87,3.01-.01,.01-.01,.03-.03,.06-.25,.51-.42,.97-.46,1.34-.1,.78,.06,2.32,.22,3.57v.03c.06,.48,.13,.91,.17,1.25-.04,.01-.07,.01-.1,.03-.2,.06-.32,.1-.32,.1,0,0-.7-4.07-.51-5.52,.19-1.44,2.37-4.54,3.72-6.17,.77-.93,1.83-1.35,2.58-1.54,.12-.03,.22-.06,.32-.06,.2-.04,.36-.07,.48-.07,.03-.01,.04-.01,.06-.01h.01s.04-.03,.07-.03c.03-.03,.48-.16,.49-.17l.04,.1,.25,.28-.32,.36Z" class="colord2d7db svgShape"></path><path fill="#3a4e9b" d="M26.27,39.41s.02-.01,.03-.02c0-.02,0-.04-.02-.05-.01,0-1.32-.49-2.43,.17-.02,.01-.02,.03-.01,.05s.03,.02,.05,.01c1.08-.64,2.35-.17,2.37-.16,0,0,.01,0,.02,0Z" class="color9b453a svgShape"></path><path d="M39,39.22s-1.07,.31-2.71-.63c0,0,1.4-.72,2.71,.63Z" fill="#000000" class="color000000 svgShape"></path><path fill="#85bdf6" d="M39.72,32.85l-.03-.03-4.97-5.65s-.02-.02-.03-.03c-.4-.43-1.08-.45-1.51-.04s-.45,1.08-.04,1.51l4.84,5.13-1.3,6.08c-.08,.38,.15,.76,.52,.86,.39,.11,.79-.12,.9-.51l1.79-6.49c.07-.28,.01-.59-.19-.82Z" class="colorf69d85 svgShape"></path><path fill="#e4eaf0" d="M40.64,33c.1,.87-1.64,6.21-1.64,6.21,0,0-.06-.04-.17-.1-.06-.04-.12-.07-.2-.12-.04-.03-.1-.06-.16-.09-.03-.01-.07-.03-.1-.04-.28-.13-.64-.25-1.06-.3-.01-.13-.03-.28-.06-.44-.01-.13-.04-.26-.07-.39,0-.03,0-.06-.01-.1-.1-.51-.25-1.07-.41-1.66l.39-2.15s-.45-.41-1.07-.96c-.3-.28-.65-.6-1.02-.93-.26-.23-.54-.49-.8-.73-.39-.36-.76-.73-1.06-1.03-.1-.1-.2-.2-.29-.29-.17-.19-.3-.33-.39-.45l.33-1.96,.03-.15v-.07s.04-.17,.04-.17l.03-.12,.09-.51v-.03s.58-.15,1.47,.2c.07,.03,.15,.06,.22,.09,.09,.03,.16,.07,.25,.12,.01,.01,.04,.01,.06,.03,.39,.2,.81,.51,1.26,.94,1.82,1.74,4.24,4.3,4.36,5.18Z" class="colore4eaf0 svgShape"></path><path fill="#e4eaf0" d="M37.3,38.56c-.32-.04-.65-.04-1.02,.03l.46-2.61c.26,.96,.49,1.89,.55,2.58Z" class="colore4eaf0 svgShape"></path><path fill="#d2d6db" d="M40.64,33c.1,.87-1.64,6.21-1.64,6.21,0,0-.06-.04-.17-.1-.06-.04-.12-.07-.2-.12-.04-.03-.1-.06-.16-.09-.03-.01-.07-.03-.1-.04,.36-1.13,1.45-4.62,1.54-5.68v-.19c-.12-.89-2.54-3.44-4.36-5.18-.32-.3-.62-.55-.91-.74h-.01s-.03-.03-.03-.03c-.03-.01-.04-.01-.06-.03-.06-.04-.12-.07-.17-.1-.04-.03-.07-.04-.12-.07h-.01c-.06-.04-.12-.07-.17-.09-.39-.19-.74-.28-1.02-.32,0,0,.58-.15,1.47,.2,.07,.03,.15,.06,.22,.09,.09,.03,.16,.07,.25,.12,.01,.01,.04,.01,.06,.03,.39,.2,.81,.51,1.26,.94,1.82,1.74,4.24,4.3,4.36,5.18Z" class="colord2d7db svgShape"></path><path fill="#85bdf6" d="M37.12 34.31h0s0 0 0 0zm0 0h0s0 0 0 0zM36.98 34.69s0 0 0 0t0 0zm0 0h0s0 0 0 0zm0 0s0 0 0 0c0 0 0 0 0 0z" class="colorf69d85 svgShape"></path><path fill="#3a4e9b" d="M36.73,35.9s.02-.04,.05-.03c.02,0,.04,.02,.03,.05l-.48,2.68s-.02,.03-.04,.03c0,0,0,0,0,0-.02,0-.04-.02-.03-.05" class="color9b453a svgShape"></path><path fill="#3a4e9b" d="M39.18,38.71s-.02,0-.03,0c-.01,0-1.07-.86-2.76-.64-.02,0-.04-.01-.04-.03,0-.02,.01-.04,.03-.04,1.72-.22,2.81,.65,2.82,.66,.02,.01,.02,.04,0,.06,0,0-.02,.01-.03,.01Z" class="color9b453a svgShape"></path><path fill="#85bdf6" d="M25.25,39.95s.55,.63,.57,1.33c.02,.69-.13,.97-.36,1.16-.23,.19-.92-.86-.96-1.32s.1-1,.75-1.17Z" class="colorf69d85 svgShape"></path><path fill="#85bdf6" d="M25.5,40.14c.35,.37,.63,.81,.81,1.28,.02,.06,.06,.16,.07,.22,.05,.12,.06,.3-.1,.33-.14,.04-.22-.09-.26-.21-.21-.45-.54-.85-.93-1.16-.42-.27,.08-.85,.41-.47Z" class="colorf69d85 svgShape"></path><path fill="#85bdf6" d="M25.82,41.28c.07,.52,.24,1.04,.5,1.5,.1,.17-.15,.34-.27,.19-.14-.17-.27-.35-.38-.54-.2-.34-.36-.69-.47-1.07-.11-.46,.62-.55,.63-.08Z" class="colorf69d85 svgShape"></path><path fill="#85bdf6" d="M25.68,41.55c0,.35,.07,.71,.17,1.04,.02,.21,.36,.53,.12,.68-.26,.13-.55-.63-.65-.82-.13-.3-.23-.61-.27-.92-.05-.48,.7-.47,.63,.01Z" class="colorf69d85 svgShape"></path><path fill="#85bdf6" d="M25.43,41.63c-.08,.51,0,1.05,.22,1.51,.09,.18-.18,.33-.29,.16-.13-.18-.25-.39-.33-.6-.15-.39-.25-.82-.23-1.24,.04-.53,.84-.32,.62,.16Z" class="colorf69d85 svgShape"></path><path fill="#85bdf6" d="M25.04,41.06c-.14,.52-.16,1.07-.02,1.59,0,.22,.37,.59,.13,.73-.34,.14-.64-.95-.69-1.2-.08-.43-.1-.88-.02-1.32,.1-.46,.79-.23,.6,.2Z" class="colorf69d85 svgShape"></path><path fill="#455baf" d="M25.71 42.35c-.04-.12-.07-.25-.08-.37 0-.02.01-.03.03-.03.02 0 .03.01.03.03.04.37.26.81.26.81 0 .02 0 .03-.01.04-.02 0-.03 0-.04-.01 0-.01-.11-.22-.18-.46zM25.4 42.58c-.04-.11-.07-.24-.09-.35 0-.02 0-.03.03-.04.02 0 .03 0 .04.03.05.29.22.71.22.71 0 .02 0 .03-.02.04-.02 0-.03 0-.04-.02 0-.01-.07-.18-.14-.38zM25.03 42.75s0 0 0 0c0-.01-.09-.33-.1-.57 0-.02.01-.03.03-.03s.03.01.03.03c.01.24.1.56.1.56 0 .02 0 .03-.02.04-.02 0-.03 0-.04-.02z" class="coloraf5945 svgShape"></path><path fill="#3a4e9b" d="M39.39,38.02s-.02,0-.02,0c-.01,0-1.43-.93-2.87-.54-.02,0-.04,0-.05-.03,0-.02,0-.04,.03-.05,1.47-.4,2.92,.54,2.93,.55,.02,.01,.02,.04,.01,.06,0,.01-.02,.02-.03,.02Z" class="color9b453a svgShape"></path><g fill="#000000" class="color000000 svgShape"><path fill="#0575e6" d="M30.01,20.32l.05-.88s.56-.47,2.42-.28c1.86,.18,2.16,.71,2.16,.71l-.09,.9-4.54-.44" class="color0264ed svgShape"></path><polygon fill="#d3e1f0" points="30.18 19.72 30.25 19.45 30.32 19.67 30.54 19.64 30.35 19.88 30.4 20.17 30.23 20.01 30.08 20.21 30.12 19.93 30.03 19.84 30.03 19.73 30.18 19.72" class="colorf0e3d3 svgShape"></polygon><polygon fill="#d3e1f0" points="30.77 19.61 31.08 19.59 31.21 19.29 31.3 19.55 31.61 19.53 31.35 19.73 31.44 20.07 31.17 19.89 30.9 20.09 31.03 19.76 30.77 19.61" class="colorf0e3d3 svgShape"></polygon><polyline fill="#d3e1f0" points="33.14 19.67 33.36 19.93 33.19 20.22 33.51 20.1 33.73 20.34 33.67 20.02 33.92 19.9 33.64 19.82 33.58 19.48 33.43 19.76 33.14 19.67" class="colorf0e3d3 svgShape"></polyline><polyline fill="#d3e1f0" points="34.16 19.95 34.36 20.06 34.45 19.82 34.48 20.1 34.65 20.14 34.62 20.22 34.5 20.28 34.51 20.58 34.37 20.39 34.14 20.51 34.28 20.19 34.16 19.95" class="colorf0e3d3 svgShape"></polyline><path fill="#bfcad5" d="M34.62,15.41s0,0,0,.02c.01,0,.03,.01,.04,.02,.25,.12,.45,.25,.59,.4,0,0,0,0,0-.01,.15,.17,.21,.35,.18,.53,0,0,0-.01,0-.02,0,0,.18-.47-.81-.94" class="colord5bfbf svgShape"></path><path fill="#9eb4ca" d="M32.61,19.62c-.16,.13-.34,.24-.52,.32l-.07,.16,.32-.2,.28,.25-.07-.34,.27-.17-.21-.02" class="colorcaaa9e svgShape"></path><polyline fill="#d3e1f0" points="32.37 19.27 32.23 19.58 31.88 19.55 32.16 19.77 32.01 20.1 32.33 19.9 32.61 20.14 32.54 19.8 32.82 19.63 32.47 19.6 32.37 19.27" class="colorf0e3d3 svgShape"></polyline><path fill="url(#bH)" d="M33.3,15.32c-.31,1.74-.45,3.06-.51,3.87,.08,.01,.16,.02,.24,.03,.15-.16,.28-.33,.4-.51,.13-1.26,.42-2.59,.57-3.25-.21-.05-.45-.1-.71-.14m-1.55-.14c-.08,0-.15,0-.23,0,.06,.95-.04,2.74-.12,3.93,.08,0,.17,0,.26,0,.1,0,.2,0,.32,0,.11-1.19,.23-2.97,.29-3.92-.17-.01-.35-.02-.53-.02m-.94-.08c-.99,.19-1.06,.59-1.05,.73,0,.2,.36,1.37,.33,1.81-.02,.35,.05,1.35,.08,1.73,.12-.06,.33-.14,.68-.2,0-1.33-.38-3.21-.43-3.85-.05,.01-.11,.03-.16,.04,0,0,.06-.02,.16-.05,0-.04,0-.07,0-.1,.13-.05,.27-.09,.4-.11m1.89-.09c.23,.02,.44,.04,.64,.08,0,.03-.01,.07-.02,.1,.26,.05,.5,.11,.71,.17,.01-.04,.02-.09,.03-.12-.39-.11-.85-.19-1.35-.22m-.58-.01c-.43,0-.78,.02-1.07,.06,.18-.02,.33-.03,.45-.03,0,.03,0,.05,0,.08,.21-.02,.44-.04,.68-.04,.03,0,.06,0,.09,0,0-.03,0-.05,0-.08-.06,0-.11,0-.16,0"></path><path fill="url(#bI)" d="M29.59,16.23c0,.2,.61,2.52,.44,3.27-.06,.3,.2,.06,.32,.09,.12-1.43-.43-3.58-.43-4.13-.27,.28-.33,.66-.33,.76Z"></path><path fill="url(#bJ)" d="M34,15.47c-.15,.65-.44,1.98-.57,3.25,.76-1.13,1.06-2.57,1.15-3.09-.16-.05-.35-.1-.58-.15m.05-.23s0,0,0,0c0,.04-.02,.08-.03,.12,.22,.07,.41,.14,.57,.2,0-.06,.02-.1,.02-.12-.17-.08-.36-.15-.56-.2"></path><path fill="url(#bK)" d="M31.52,15.19c-.37,.01-.74,.05-1.1,.13,.05,.64,.43,2.52,.43,3.85,.16-.03,.34-.05,.56-.05,.08-1.19,.17-2.98,.12-3.93m-.01-.16c-.11,0-.27,0-.45,.03-.08,0-.16,.02-.25,.04-.13,.03-.26,.06-.4,.11,0,.03,0,.06,0,.1,.21-.06,.61-.15,1.1-.2,0-.03,0-.06,0-.08"></path><path fill="url(#bL)" d="M32.28,15.2c-.06,.94-.19,2.73-.29,3.92,.15,0,.32,.02,.49,.03,.11,.01,.21,.02,.31,.04,.06-.8,.2-2.12,.51-3.87-.32-.05-.66-.1-1.02-.12m.01-.2s0,0,0,0c0,.02,0,.05,0,.08,.18,0,.37,.01,.55,.03,.17,.02,.33,.04,.48,.07,0-.03,.01-.07,.02-.1-.2-.03-.41-.06-.64-.08,0,0,0,0,0,0-.14,0-.28-.02-.41-.02"></path><path fill="url(#bM)" d="M34.73,19.07c-.06,.3-.11,.54-.14,.74,.01,.01,.02,.02,.03,.03,0-.19,.04-.46,.11-.78m.7-2.69c-.11,.38-.2,.72-.29,1.03,.13-.48,.24-.86,.27-.98,0-.02,0-.03,.01-.05"></path><path fill="url(#bN)" d="M33.43,18.71c-.12,.18-.26,.35-.4,.51,.13,.02,.24,.04,.35,.07,.01-.19,.03-.38,.05-.58m1.22-3.26c.09,.05,.18,.1,.26,.15,0,.03-.02,.06-.03,.09,.08,.04,.13,.07,.13,.07,0,0-.05-.02-.13-.04-.31,.95-.78,2.66-1,3.72,.2,.07,.36,.14,.47,.2,.18-1.32,.73-3.01,.9-3.77-.13-.15-.33-.28-.59-.4"></path><path fill="url(#bO)" d="M34.59,15.62c-.09,.53-.39,1.97-1.15,3.09-.02,.2-.04,.39-.05,.58,.19,.04,.36,.09,.49,.13,.22-1.06,.69-2.77,1-3.72-.07-.02-.17-.05-.29-.09m.03-.18s0,.06-.02,.12c.12,.05,.22,.09,.29,.13,0-.03,.02-.06,.03-.09-.08-.05-.16-.1-.26-.15-.01,0-.03-.01-.04-.02"></path><path fill="#bfcad5" d="M35.14,17.41c-.14,.52-.31,1.14-.41,1.66,.09-.43,.23-.98,.41-1.66" class="colord5bfbf svgShape"></path><path fill="url(#bP)" d="M35.24,15.84s0,0,0,.01c-.17,.77-.72,2.45-.9,3.77,.13,.07,.21,.14,.25,.18,.03-.2,.07-.45,.14-.74,.1-.52,.27-1.14,.41-1.66,.08-.31,.18-.66,.29-1.03,.03-.18-.04-.36-.18-.53"></path><path fill="#1865b2" d="M34.37,20.39l-.09,.04s.08,0,.12,0l-.04-.05m.18-.13l-.05,.03v.16s.04,0,.06,0c0-.05-.01-.11-.01-.18m-1.12-.49l.15-.28,.06,.33,.29,.08-.25,.13,.05,.32-.22-.24-.32,.12,.17-.29-.22-.26,.3,.09m-.4-.54c-.13,.14-.27,.27-.42,.39l.21,.02-.27,.17,.07,.34-.28-.25-.32,.2,.07-.16c-.19,.09-.4,.16-.62,.2,.5,0,1.23,.06,2.09,.27,.18,0,.34,.01,.5,.02h0s.09,0,.13,0l.1-.24-.12-.24,.2,.11,.09-.24,.04,.28,.08,.02c0-.09,.02-.19,.03-.3-.04-.04-.12-.11-.25-.18-.11-.06-.26-.13-.47-.2-.14-.05-.3-.09-.49-.13-.11-.02-.23-.05-.35-.07" class="color184bb2 svgShape"></path><polyline fill="#9eb4ca" points="33.58 19.48 33.43 19.76 33.14 19.67 33.36 19.93 33.19 20.22 33.51 20.1 33.73 20.34 33.67 20.02 33.92 19.9 33.64 19.82 33.58 19.48" class="colorcaaa9e svgShape"></polyline><path fill="#9eb4ca" d="M34.45,19.82l-.09,.24-.2-.11,.12,.24-.1,.24s.07,0,.11,0l.09-.04,.04,.05s.07,0,.1,0v-.16s.05-.03,.05-.03c0-.04,0-.09,0-.14l-.08-.02-.04-.28" class="colorcaaa9e svgShape"></path><path fill="url(#bQ)" d="M30.42,15.32c-.1,.03-.16,.05-.16,.05,.05-.01,.11-.03,.16-.04,0,0,0,0,0,0m2.9-.13s-.02,.09-.02,.13c.26,.04,.49,.09,.71,.14,0-.04,.02-.07,.03-.11-.21-.06-.44-.12-.71-.17m-1.12-.11c-.24,0-.47,.01-.68,.04,0,.02,0,.05,0,.07,.08,0,.15,0,.23,0,.18,0,.35,0,.53,.02,0-.04,0-.08,0-.12-.03,0-.06,0-.09,0"></path><path fill="url(#d)" d="M34.03,15.36s-.02,.07-.03,.11c.23,.05,.42,.11,.58,.15,0-.02,0-.04,.01-.06-.15-.06-.34-.13-.57-.2"></path><path fill="url(#bR)" d="M31.52,15.12c-.49,.05-.89,.14-1.1,.2,0,0,0,0,0,0,.36-.08,.73-.12,1.1-.13,0-.02,0-.05,0-.07"></path><path fill="url(#bS)" d="M32.29,15.08s0,.08,0,.12c.36,.02,.7,.07,1.02,.12,0-.04,.02-.09,.02-.13-.15-.03-.31-.05-.48-.07-.19-.02-.37-.03-.55-.03"></path><path fill="url(#bT)" d="M34.88,15.68s0,.01,0,.02c.09,.03,.13,.04,.13,.04,0,0-.04-.03-.13-.07"></path><path fill="url(#bU)" d="M34.6,15.56s0,.04-.01,.06c.12,.03,.22,.07,.29,.09,0,0,0-.01,0-.02-.07-.03-.16-.08-.29-.13"></path></g><g fill="#000000" class="color000000 svgShape"><path fill="#d3e1f0" d="M34.07 20.83c.3-.02.56-.05.77-.06.08-.33-.07-.46-.15-.5-.2-.01-.44-.02-.73-.02.26.14.16.46.11.58M32.65 20.87c.19 0 .37 0 .56 0 .22-.29.04-.56-.05-.66-.16 0-.33-.02-.52-.03.11.2.05.54 0 .69M31.07 20.67c.2.04.4.07.61.1-.1-.34.01-.56.1-.67-.18-.02-.34-.04-.5-.06-.24.15-.23.5-.21.63" class="colorf0e3d3 svgShape"></path><path fill="url(#bV)" d="M33.16,20.21s.07,.09,.11,.15c.03,.06,.05,.14,.05,.22,0,.01,0,.02,0,.03,.25,0,.49-.01,.72-.02,.03,0,.07,0,.1,0,0-.02,0-.03,0-.05,0-.12-.04-.23-.17-.3h0c-.15,0-.32,0-.5-.02-.1,0-.2,0-.31-.01"></path><path fill="url(#bW)" d="M31.78,20.1h0c-.06,.07-.14,.2-.14,.39,.21,.03,.44,.05,.7,.08,.12,.01,.24,.02,.36,.03,0-.04,0-.08,0-.12,0-.11-.02-.22-.06-.3h0c-.16-.01-.33-.03-.5-.04-.12-.01-.24-.02-.36-.04"></path><path fill="#9eb4ca" d="M34.69 20.58c-.17 0-.35 0-.56.02 0 .08-.03.15-.05.21 0 0 0 .02-.01.03 0 0 .01 0 .02 0 .12 0 .23-.02.33-.03.15-.01.29-.02.42-.03h0c.02-.07.02-.13.02-.18 0 0 0 0 0-.01-.06 0-.11 0-.17 0M32.7 20.6c0 .06-.02.12-.03.17 0 .04-.02.07-.02.1.11 0 .22 0 .33 0 .08 0 .16 0 .23 0h0c.07-.09.1-.18.1-.26-.02 0-.05 0-.07 0-.18 0-.36 0-.54-.01M31.07 20.42s0 .08 0 .12c0 .06 0 .1 0 .14h0c.2.04.4.07.61.1-.02-.07-.03-.14-.04-.2 0-.02 0-.04 0-.05 0 0 0-.01 0-.02-.21-.03-.39-.05-.57-.08" class="colorcaaa9e svgShape"></path><path fill="#d3e1f0" d="M29.52,20.34c.23,.05,.48,.11,.76,.17-.15-.32,.03-.53,.11-.6-.22-.03-.41-.06-.59-.08-.36,.04-.3,.45-.28,.51" class="colorf0e3d3 svgShape"></path><path fill="url(#bX)" d="M30.41,20.55c.18,.04,.37,.07,.56,.11-.19-.04-.38-.07-.56-.11m-.02-.63h0c-.06,.05-.16,.17-.17,.35,.24,.05,.52,.1,.85,.15,.01-.1,.05-.21,.12-.29,.03-.03,.06-.06,.09-.08-.1-.01-.19-.02-.28-.04-.07,0-.14-.02-.21-.03-.14-.02-.28-.04-.41-.06"></path><path fill="#9eb4ca" d="M29.52,20.11s0,.07,0,.1c0,.06,0,.11,.01,.13h0c.14,.03,.29,.07,.44,.1,.1,.02,.19,.04,.29,.06,0,0,.02,0,.02,0,0,0,0-.02-.01-.03-.03-.08-.04-.15-.04-.21,0,0,0,0,0-.01-.27-.06-.5-.11-.71-.15" class="colorcaaa9e svgShape"></path><path fill="url(#bY)" d="M30.22,20.27s0,0,0,.01c0,.06,.01,.14,.04,.21,0,0,0,.02,.01,.03,0,0,0,0,.01,0,0,0,0,0,0,0,.03,0,.06,.01,.09,.02,.01,0,.02,0,.03,0,.18,.04,.37,.07,.56,.11,.03,0,.07,.01,.1,.02h0s0-.08,0-.14c0-.04,0-.08,0-.12-.33-.05-.61-.1-.85-.15"></path><path fill="url(#bZ)" d="M34.13,20.59s-.07,0-.1,0c-.22,0-.46,.02-.72,.02,0,.08-.04,.17-.1,.26h0s.04,0,.05,0c.07,0,.13,0,.2,0,.16,0,.31-.02,.46-.03,.01,0,.03,0,.04,0,0,0,0,0,0,0,.04,0,.07,0,.11,0,0,0,0-.02,.01-.03,.02-.05,.04-.13,.05-.21"></path><path fill="url(#ca)" d="M31.64,20.49s0,.01,0,.02c0,.02,0,.03,0,.05,0,.06,.02,.13,.04,.2,.2,.03,.4,.05,.6,.07,.02,0,.04,0,.06,0,.05,0,.1,0,.15,.01,.05,0,.11,0,.16,0,0-.03,.01-.06,.02-.1,0-.05,.02-.11,.03-.17-.12,0-.24-.02-.36-.03-.25-.03-.48-.05-.7-.08"></path></g><g fill="#000000" class="color000000 svgShape"><path fill="#0036ff" d="M35.77,58.88s.82-1,1.07-1.25c.25-.25,.99-.09,.96,.21-.04,.3-.46,.82-.46,.82l-1.57,.21Z" class="colorff2400 svgShape"></path><path fill="#0036ff" d="M40.49,59.59c0,.08-.03,.15-.07,.22-.09,.17-.25,.29-.44,.32l-4.51,.64c-.22,.03-.41-.07-.52-.23-.03-.05-.06-.1-.08-.16-.05-.17-.03-.37,.11-.53l.54-.65,.58-.7c2.13,.02,3.74-.97,3.74-.97l.5,1.13,.14,.75c.01,.07,.02,.13,0,.2Z" class="colorff2400 svgShape"></path><path fill="#263056" d="M40.49,59.59c-.03,.27-.24,.5-.51,.54l-4.51,.64c-.29,.04-.53-.15-.6-.39l5.63-.79Z" class="color263656 svgShape"></path><path fill="#263056" d="M36.42 60.16l-.65.39h-.83c-.03-.06-.06-.11-.08-.17-.05-.17-.03-.37.11-.53l.54-.65s.77.02.9.97zM40.49 59.59c0 .08-.03.15-.07.22l-1.12-.05c-.13-.92 1.04-1.11 1.04-1.11l.14.75c.01.07.02.13 0 .2z" class="color263656 svgShape"></path><path fill="#ffffff" d="M36.56 59.33s-.03 0-.04-.02c-.26-.38-.74-.39-.75-.39-.02 0-.04-.02-.04-.04 0-.02.02-.04.04-.04.02 0 .53.02.81.43.01.02 0 .04 0 .05 0 0-.01 0-.02 0zM36.84 58.98s-.03 0-.04-.02c-.26-.38-.74-.39-.75-.39-.02 0-.04-.02-.04-.04 0-.02.02-.04.04-.04.02 0 .53.02.81.43.01.02 0 .04 0 .05 0 0-.01 0-.02 0zM37.12 58.65s-.03 0-.04-.02c-.26-.38-.74-.39-.75-.39-.02 0-.04-.02-.04-.04 0-.02.02-.04.04-.04.02 0 .53.02.81.43.01.02 0 .04 0 .05 0 0-.01 0-.02 0z" class="colorffffff svgShape"></path></g><g fill="#000000" class="color000000 svgShape"><path fill="#0036ff" d="M27.21,58.89s.91-.92,1.19-1.14c.27-.22,1,0,.93,.3-.06,.29-.53,.78-.53,.78l-1.58,.07Z" class="colorff2400 svgShape"></path><path fill="#0036ff" d="M31.85,60.03c-.02,.08-.05,.15-.09,.21-.1,.16-.27,.27-.47,.28l-4.55,.22c-.23,.01-.41-.11-.5-.28-.03-.05-.05-.11-.06-.17-.04-.18,0-.37,.15-.52l.6-.6,.65-.65c2.12,.22,3.88-.51,3.88-.51l.32,1.06,.07,.76c0,.07,0,.13-.01,.2Z" class="colorff2400 svgShape"></path><path fill="#263056" d="M31.85,60.03c-.06,.27-.28,.47-.56,.49l-4.55,.22c-.3,.01-.51-.2-.56-.45l5.67-.26Z" class="color263656 svgShape"></path><path fill="#263056" d="M27.74 60.22l-.68.33-.83-.09c-.03-.05-.05-.11-.06-.17-.04-.18 0-.37.15-.52l.6-.6s.77.1.81 1.05zM31.85 60.03c-.02.08-.05.15-.09.21l-1.11-.16c-.04-.93 1.14-1.01 1.14-1.01l.07.76c0 .07 0 .13-.01.2z" class="color263656 svgShape"></path><path fill="#ffffff" d="M27.95 59.41s-.03 0-.04-.02c-.23-.4-.71-.46-.71-.46-.02 0-.04-.02-.03-.04 0-.02.02-.04.04-.03.02 0 .52.07.77.5.01.02 0 .04-.01.05 0 0-.01 0-.02 0zM28.27 59.08s-.03 0-.04-.02c-.23-.4-.71-.46-.71-.46-.02 0-.04-.02-.03-.04 0-.02.02-.04.04-.03.02 0 .52.07.77.5.01.02 0 .04-.01.05 0 0-.01 0-.02 0zM28.58 58.78s-.03 0-.04-.02c-.23-.4-.71-.46-.71-.46-.02 0-.04-.02-.03-.04 0-.02.02-.04.04-.03.02 0 .52.07.77.5.01.02 0 .04-.01.05 0 0-.01 0-.02 0z" class="colorffffff svgShape"></path></g></g></svg>