<svg width="870" height="763" viewBox="0 0 870 763" fill="none" xmlns="http://www.w3.org/2000/svg">
<rect width="870" height="763" fill="white"/>
<g clip-path="url(#clip0_11026_32305)">
<path d="M253.27 157.99C244.47 157.99 237.65 161.09 232.34 167.27C227.03 173.46 224.38 181.7 224.38 191.99V239.55H199.87V191.16C199.87 174.2 204.83 160.43 214.74 149.86C224.66 139.29 238.07 134.01 253.43 134.01L253.27 158V157.99Z" fill="black"/>
<path d="M361.04 271.4C361.04 271.4 367.05 268.31 371.32 259.79C374.38 253.7 373.68 242.52 373.68 237.21V133.98H397.34V237C397.34 250.46 398.5 269.53 384.81 283.21C382.77 285.25 377.9 288.44 377.9 288.44L361.04 271.39V271.4Z" fill="black"/>
<path d="M316.77 238.52C316.77 238.52 315.43 238.79 314.83 238.88L306.2 239.7C291.54 239.7 279.14 234.72 269 224.76C258.86 214.8 253.79 202.4 253.79 187.56C253.79 172.72 258.99 159.67 269.41 149.23C279.82 138.79 292.56 133.57 307.63 133.57C322.7 133.57 335.1 138.79 344.82 149.23C354.55 159.67 359.41 173.28 359.41 190.04V239.86H335.37V190.87C335.37 180.7 332.77 172.56 327.56 166.45C322.35 160.34 315.44 157.28 306.8 157.28C298.99 157.28 292.28 160.15 286.66 165.91C281.04 171.66 278.24 178.44 278.24 186.24C278.24 194.59 281.22 201.65 287.18 207.4C293.14 213.15 300.5 216.02 309.27 216.02C312.28 216.02 316.87 215.33 316.87 215.33L316.76 238.54L316.77 238.52Z" fill="black"/>
<path d="M471.44 238.52C471.44 238.52 470.1 238.79 469.5 238.88L460.87 239.7C446.21 239.7 433.81 234.72 423.67 224.76C413.53 214.8 408.46 202.4 408.46 187.56C408.46 172.72 413.66 159.67 424.08 149.23C434.49 138.79 447.23 133.57 462.3 133.57C477.37 133.57 489.77 138.79 499.49 149.23C509.22 159.67 514.08 173.28 514.08 190.04V239.86H490.04V190.87C490.04 180.7 487.44 172.56 482.23 166.45C477.02 160.34 470.11 157.28 461.47 157.28C453.66 157.28 446.95 160.15 441.33 165.91C435.71 171.66 432.91 178.44 432.91 186.24C432.91 194.59 435.89 201.65 441.85 207.4C447.81 213.15 455.17 216.02 463.94 216.02C466.95 216.02 471.54 215.33 471.54 215.33L471.43 238.54L471.44 238.52Z" fill="black"/>
<path d="M526.4 111.67L550.06 86.6699V239.75H526.4V111.67Z" fill="black"/>
<path d="M612.25 134.01C626.72 134.01 639 139.08 649.1 149.23C659.2 159.38 664.25 171.85 664.25 186.66C664.25 201.47 659.2 214.18 649.1 224.39C639 234.61 626.58 239.71 611.84 239.71C597.1 239.71 585.46 234.54 575.29 224.18C565.12 213.83 560.04 201.32 560.04 186.65C560.04 171.98 565.09 159.37 575.19 149.22C585.29 139.08 597.64 134 612.25 134V134.01ZM584.4 187.27C584.4 195.08 587.16 201.94 592.69 207.83C598.22 213.73 604.74 216.67 612.24 216.67C619.74 216.67 625.89 213.72 631.49 207.83C637.08 201.94 639.88 194.95 639.88 186.86C639.88 178.77 637.15 171.99 631.69 166.09C626.23 160.2 619.74 157.25 612.24 157.25C604.74 157.25 598.04 160.2 592.58 166.09C587.12 171.99 584.39 179.05 584.39 187.27H584.4Z" fill="black"/>
<path d="M673.26 110L696.72 85L696.92 159.64H701.02C709.9 159.64 716.63 157.35 723.4 152.11C730.17 146.88 733.06 140.4 733.88 133.32L734.5 127.92H755.57C755.57 127.92 757.4 144.78 750.12 155.15C745.85 161.24 742.82 165.9 735.47 169.43L740.37 172.08C741.46 172.62 743.63 174.29 746.9 177.08C750.16 179.87 753.22 184.25 756.08 190.24C758.94 196.23 760.36 202.41 760.36 208.8V237.08H736.89L736.49 209.41C736.49 200.84 733.12 193.87 726.39 188.5C719.66 183.13 711 180.44 700.42 180.44H696.92V237.08H673.26V110Z" fill="black"/>
<path d="M139.03 135.65H84.25V283.07L118.11 283.15C118.11 283.15 118.08 236.77 118.08 233.01C118.08 227.9 118.04 208.37 118.04 208.09C118.05 207.81 118.1 207.74 117.84 207.53C117.59 207.32 115.76 205.59 114.65 204.51C113.54 203.43 112.67 202.48 112.4 201.98C112.12 201.48 112.04 201.23 111.66 200.09C111.29 198.94 110.73 197.2 110.27 195.24C109.81 193.29 109.42 191.61 109.47 190.05C109.52 188.48 109.54 188.34 109.61 188.01C109.67 187.68 109.85 187.98 110.07 188.15C110.29 188.32 116.36 193.4 116.98 193.91C117.6 194.42 117.92 194.66 118.11 194.47C118.3 194.28 121.5 191.88 122.56 191.24C123.63 190.6 124.39 190.03 124.89 189.98C125.38 189.93 129.39 189.3 131.46 189.06C133.54 188.83 133.75 188.82 134.06 188.78C134.36 188.75 134.25 188.77 133.92 188.99C133.6 189.21 131.31 190.61 129.01 193.14C126.71 195.66 124.9 197.66 123.96 200.72C123.01 203.77 123.17 204.76 123.16 205.56C123.15 206.36 123.15 206.46 123.36 206.55C123.57 206.63 122.79 203.71 129.21 195.73C131.8 192.52 133.38 191.45 135.32 190.05C137.26 188.64 138.57 187.78 139.57 187.45C140.57 187.12 142.54 186.55 144.29 186.33C146.04 186.1 147.21 185.92 146.02 185.76C144.82 185.61 143.79 185.52 143.49 185.41C143.19 185.31 142.78 184.97 142.49 184.57C142.21 184.17 142.23 183.71 142.36 183.31C142.49 182.91 143.41 180.68 143.56 180.22C143.71 179.75 143.65 179.67 143.22 180.08C142.8 180.49 140.94 182.26 140.1 182.67C139.26 183.09 138.89 183.37 136.98 182.96C135.07 182.54 133.65 181.99 132.46 181.41C131.28 180.83 130.9 180.76 130.8 180.15C130.7 179.53 130.42 178.06 130.4 176.36C130.41 175.85 130.51 175.66 130.93 175.51C131.35 175.37 145.28 171.24 146.02 171.02C146.76 170.8 147.59 170.7 148.27 170.95C148.96 171.2 149.76 171.5 150 172.35C150.25 173.21 153 181.45 153.92 184.57C154.85 187.69 155.17 188.87 155.32 189.27C155.46 189.68 155.65 190.15 155.25 190.61C154.85 191.07 142.24 204.36 141.63 204.93C141.02 205.5 140.93 205.54 141.03 206.27C141.14 206.99 142.54 221.99 142.63 222.55C142.72 223.12 143.23 225.38 143.36 226.38C144.58 235.39 148.63 239.82 149.53 239.82C150.62 239.82 187.36 235.9 187.53 188.74C187.7 139.24 147.36 135.65 139.03 135.65ZM121.96 189.91C121.77 190.26 119.67 192.09 118.77 192.43C117.88 192.78 117.88 192.84 117.25 192.36C116.61 191.89 114.44 190.03 112.26 188.01C110.09 185.99 108.29 184.14 107.88 183.66C107.46 183.17 107.26 182.51 107.61 181.9C107.96 181.3 109.28 179.34 111.07 177.97C111.64 177.56 112.82 176.75 113.39 177.41C113.97 178.07 119.99 186.5 121.76 189.06C122.04 189.49 122.16 189.55 121.96 189.91ZM131.27 186.96C131.53 187.4 131.37 187.25 130.53 187.45C129.7 187.65 124.4 188.53 123.76 188.57C123.11 188.62 123.23 188.59 122.89 188.22C122.35 187.67 121.67 186.85 120.63 185.41C119.6 183.97 118.05 181.85 116.98 180.36C115.91 178.87 114.55 176.45 114.32 175.86C114.1 175.28 114.18 175.21 114.46 174.67C115 173.71 116.42 172.34 117.58 171.58C118.74 170.82 119.65 170.47 120.44 170.18C121.22 169.89 121.5 170.1 121.76 170.46C122.03 170.81 124.82 175.47 126.42 178.18C128.01 180.89 131 186.52 131.27 186.96ZM134.52 173.06C133.9 173.23 130.04 174.47 129.54 174.67C129.03 174.88 128.87 175.02 128.81 175.65C128.75 176.29 128.91 178.29 128.94 178.88C129.02 179.53 129 179.33 128.67 178.81C128.35 178.3 127.08 176.32 125.42 173.69C123.76 171.06 123.27 170.18 123.03 169.62C122.78 169.06 122.67 169.2 123.96 168.07C125.24 166.94 126.62 166.29 128.14 165.68C129.67 165.08 130.25 164.92 130.93 164.91C131.61 164.9 131.66 165.03 131.86 165.4C132.07 165.78 134.58 171.48 134.92 172.21C135.26 172.95 135.14 172.88 134.52 173.06ZM145.48 169.9C145.05 170.02 137.71 172.09 137.31 172.21C136.91 172.34 136.81 172.42 136.58 171.93C136.3 171.25 133.97 166.72 133.52 165.68C133.08 164.64 132.82 164.2 133.33 163.93C133.83 163.66 135.96 162.82 137.25 162.45C138.53 162.09 140.72 161.37 141.23 161.19C141.74 161.01 142.06 160.94 142.23 161.33C142.4 161.72 145.52 168.74 145.68 169.19C145.84 169.65 145.91 169.78 145.48 169.9Z" fill="#03947E"/>
<path d="M139.03 135.65H84.25V283.07L118.11 283.15C118.11 283.15 118.08 236.77 118.08 233.01C118.08 227.9 118.04 208.37 118.04 208.09C118.05 207.81 118.1 207.74 117.84 207.53C117.59 207.32 115.76 205.59 114.65 204.51C113.54 203.43 112.67 202.48 112.4 201.98C112.12 201.48 112.04 201.23 111.66 200.09C111.29 198.94 110.73 197.2 110.27 195.24C109.81 193.29 109.42 191.61 109.47 190.05C109.5 189.12 109.52 188.69 109.55 188.43C109.55 188.36 109.55 188.31 109.55 188.25C109.58 187.66 109.6 187.52 109.65 187.28C109.71 186.94 109.9 187.25 110.13 187.43C110.35 187.61 116.63 192.86 117.27 193.38C117.91 193.91 118.24 194.16 118.44 193.96C118.64 193.77 121.94 191.29 123.04 190.62C124.15 189.96 124.93 189.37 125.45 189.32C125.96 189.27 130.1 188.62 132.24 188.37C134.39 188.13 134.61 188.12 134.93 188.08C135.24 188.05 135.13 188.08 134.78 188.3C134.69 188.36 134.44 188.52 134.07 188.78C134.35 188.75 134.23 188.77 133.91 188.99C133.75 189.1 133.13 189.49 132.27 190.14C132.25 190.16 132.22 190.19 132.19 190.2C131.43 190.85 130.57 191.64 129.71 192.59C127.33 195.19 125.46 197.26 124.49 200.42C123.66 203.11 123.65 204.25 123.66 205.04C124.11 203.44 125.38 200.48 129.2 195.73C131.71 192.61 133.27 191.52 135.13 190.18C135.49 189.92 135.86 189.66 136.23 189.39C138.24 187.94 139.59 187.05 140.63 186.71C141.55 186.4 143.29 185.9 144.94 185.63C144.23 185.55 143.68 185.49 143.48 185.41C143.18 185.31 142.77 184.97 142.48 184.57C142.2 184.17 142.22 183.71 142.35 183.31C142.48 182.91 143.4 180.68 143.55 180.22C143.61 180.02 143.64 179.89 143.61 179.84C143.58 179.77 143.45 179.85 143.21 180.08C143.02 180.27 142.53 180.73 141.98 181.23C141.96 181.24 141.95 181.25 141.94 181.26C141.28 181.84 140.54 182.45 140.09 182.67C139.25 183.09 138.88 183.37 136.97 182.96C135.06 182.54 133.64 181.99 132.45 181.41C131.27 180.83 130.89 180.76 130.79 180.15C130.69 179.53 130.41 178.06 130.39 176.36C130.4 175.85 130.5 175.66 130.92 175.51C130.95 175.51 131.03 175.48 131.16 175.44C131.15 175.38 131.15 175.31 131.15 175.24C131.16 174.71 131.26 174.52 131.69 174.36C132.13 174.22 146.53 169.95 147.29 169.72C148.06 169.49 148.92 169.39 149.62 169.65C150.33 169.91 151.16 170.22 151.41 171.09C151.67 171.98 154.51 180.5 155.46 183.73C156.42 186.95 156.75 188.17 156.91 188.59C157.05 189.01 157.25 189.5 156.84 189.97C156.42 190.45 143.39 204.19 142.76 204.78C142.13 205.37 142.03 205.41 142.14 206.16C142.25 206.91 143.7 222.41 143.79 222.99C143.88 223.58 144.41 225.92 144.55 226.95C145.47 233.72 147.93 237.99 149.55 239.82C151.17 239.76 187.35 235.54 187.52 188.74C187.69 139.24 147.35 135.65 139.02 135.65H139.03ZM122.43 189.25C122.39 189.33 122.25 189.48 122.05 189.67C122.05 189.74 122.02 189.81 121.96 189.91C121.77 190.26 119.67 192.09 118.77 192.43C117.88 192.78 117.88 192.84 117.25 192.36C116.61 191.89 114.44 190.03 112.26 188.01C110.09 185.99 108.29 184.14 107.88 183.66C107.52 183.24 107.32 182.68 107.5 182.15C107.36 181.77 107.37 181.36 107.59 180.97C107.96 180.35 109.32 178.32 111.17 176.9C111.76 176.48 112.98 175.64 113.57 176.33C114.17 177.01 120.39 185.72 122.22 188.37C122.51 188.81 122.64 188.88 122.43 189.25ZM132.06 186.2C132.32 186.65 132.16 186.5 131.29 186.71C131.25 186.72 131.2 186.73 131.14 186.74C131.2 186.85 131.25 186.92 131.27 186.96C131.53 187.4 131.37 187.25 130.53 187.45C129.7 187.65 124.4 188.53 123.76 188.57C123.11 188.62 123.23 188.59 122.89 188.22C122.35 187.67 121.67 186.85 120.63 185.41C119.6 183.97 118.05 181.85 116.98 180.36C115.91 178.87 114.55 176.45 114.32 175.86C114.1 175.28 114.18 175.21 114.46 174.67C114.47 174.65 114.48 174.64 114.49 174.62C114.31 174.11 114.41 174.02 114.68 173.49C115.23 172.5 116.7 171.08 117.9 170.3C119.1 169.51 120.04 169.15 120.86 168.85C121.66 168.55 121.95 168.77 122.22 169.14C122.5 169.5 125.39 174.32 127.04 177.12C128.68 179.92 131.78 185.74 132.06 186.2ZM135.42 171.83C135.31 171.86 135.1 171.92 134.82 172C134.86 172.09 134.9 172.16 134.92 172.21C135.26 172.95 135.14 172.88 134.52 173.06C133.9 173.23 130.04 174.47 129.54 174.67C129.53 174.67 129.52 174.68 129.51 174.69C129.02 174.89 128.87 175.03 128.81 175.65C128.79 175.91 128.81 176.39 128.83 176.92C128.86 177.68 128.92 178.53 128.94 178.88C129.02 179.53 129 179.33 128.67 178.81C128.35 178.3 127.08 176.32 125.42 173.69C123.76 171.06 123.27 170.18 123.03 169.62C122.81 169.12 122.7 169.18 123.59 168.39C123.57 168.35 123.56 168.31 123.54 168.27C123.28 167.69 123.16 167.84 124.5 166.67C125.82 165.5 127.25 164.83 128.82 164.2C130.4 163.58 131 163.41 131.7 163.4C132.41 163.39 132.46 163.53 132.67 163.91C132.88 164.3 135.48 170.2 135.83 170.95C136.18 171.71 136.06 171.64 135.42 171.83ZM146.75 168.56C146.65 168.59 146.2 168.72 145.56 168.9C145.62 169.05 145.67 169.15 145.68 169.19C145.84 169.65 145.91 169.78 145.48 169.9C145.05 170.02 137.71 172.09 137.31 172.21C136.91 172.34 136.81 172.42 136.58 171.93C136.3 171.25 133.97 166.72 133.52 165.68C133.08 164.64 132.82 164.2 133.33 163.93C133.48 163.85 133.76 163.72 134.12 163.57C133.85 162.93 133.78 162.61 134.18 162.39C134.7 162.11 136.9 161.24 138.24 160.86C139.56 160.49 141.82 159.74 142.35 159.56C142.88 159.37 143.21 159.3 143.39 159.7C143.56 160.1 146.79 167.36 146.95 167.83C147.12 168.3 147.19 168.44 146.75 168.56Z" fill="url(#paint0_linear_11026_32305)"/>
<path d="M139.03 136.15C142.49 136.15 160.43 136.81 173.44 149.86C182.52 158.97 187.09 172.05 187.03 188.74C186.87 233.88 152.91 238.95 149.77 239.3C147.99 237.18 145.87 232.88 145.06 226.88C144.97 226.24 144.74 225.13 144.56 224.23C144.44 223.64 144.33 223.13 144.3 222.91C144.26 222.64 143.86 218.53 143.52 214.89C143.11 210.56 142.71 206.48 142.66 206.08C142.613 205.78 142.733 205.5 143.02 205.24L143.13 205.14C143.65 204.65 156.58 191.05 157.25 190.29C157.83 189.63 157.58 188.92 157.44 188.49L157.41 188.4C157.32 188.17 157.17 187.63 156.88 186.65C156.67 185.92 156.37 184.92 155.98 183.58C155.36 181.48 153.97 177.23 152.96 174.12C152.43 172.51 152.02 171.24 151.93 170.94C151.61 169.82 150.58 169.44 149.83 169.17C149.5 169.05 149.12 168.98 148.72 168.98C148.25 168.98 147.73 169.06 147.19 169.23C147.1 169.26 146.79 169.35 146.33 169.49C146.32 169.4 146.29 169.31 146.26 169.22C146.62 169.12 146.86 169.05 146.92 169.03C147.14 168.97 147.4 168.87 147.54 168.6C147.69 168.3 147.59 168.01 147.47 167.7L147.45 167.66C147.34 167.33 145.97 164.24 144.59 161.1C144.21 160.23 143.93 159.6 143.88 159.48C143.71 159.1 143.4 158.89 143 158.89C142.76 158.89 142.52 158.96 142.22 159.07C141.73 159.24 139.45 159.99 138.13 160.36C136.78 160.74 134.55 161.62 133.97 161.93C133.35 162.27 133.37 162.81 133.51 163.28C133.35 163.35 133.22 163.42 133.12 163.47C133.1 163.48 133.07 163.5 133.05 163.51C132.79 163.07 132.53 162.88 131.79 162.88H131.71C130.89 162.89 130.2 163.11 128.65 163.72C126.92 164.41 125.5 165.12 124.19 166.28L123.99 166.46C123 167.32 122.71 167.58 123 168.25C122.81 168.43 122.66 168.58 122.55 168.72C122.34 168.46 122.02 168.2 121.51 168.2C121.27 168.2 121.01 168.26 120.7 168.37C119.77 168.71 118.84 169.08 117.64 169.87C116.47 170.63 114.89 172.09 114.25 173.25L114.17 173.4C113.96 173.81 113.84 174.07 113.96 174.55C113.71 175.03 113.62 175.29 113.79 175.83C113.57 175.65 113.29 175.55 112.98 175.55C112.28 175.55 111.53 176.02 110.87 176.49C109.13 177.82 107.72 179.76 107.16 180.71C106.91 181.16 106.85 181.65 106.98 182.15C106.84 182.76 107.03 183.42 107.5 183.97C107.83 184.35 109.12 185.7 110.88 187.38C110.64 187.18 110.48 187.05 110.45 187.02C110.41 186.99 110.37 186.95 110.33 186.91C110.19 186.78 110.02 186.61 109.76 186.61C109.68 186.61 109.27 186.64 109.17 187.16C109.11 187.44 109.09 187.61 109.06 188.23C109.06 188.27 109.06 188.3 109.06 188.35C109.03 188.62 109.01 189.02 108.98 190.01C108.93 191.66 109.35 193.44 109.79 195.33C110.25 197.31 110.82 199.06 111.19 200.22L111.22 200.31C111.58 201.38 111.67 201.66 111.96 202.19C112.31 202.84 113.43 203.99 114.3 204.84C115.38 205.89 117.25 207.66 117.52 207.89C117.52 207.89 117.54 207.9 117.54 207.91C117.54 207.91 117.54 207.91 117.54 207.92V208.06V210.07C117.54 215.23 117.58 228.84 117.58 232.98C117.58 236.51 117.61 277.6 117.61 282.62L84.75 282.54V136.15H139.03ZM136.12 172.13C136.12 172.13 136.12 172.13 136.12 172.14C136.16 172.23 136.22 172.35 136.3 172.46C136.06 172.53 135.82 172.6 135.6 172.67C135.59 172.55 135.56 172.44 135.51 172.32C135.53 172.32 135.54 172.32 135.56 172.31L135.74 172.26C135.87 172.22 136 172.19 136.12 172.13ZM130.7 174.8C130.68 174.89 130.67 174.98 130.67 175.08C130.05 175.34 129.91 175.78 129.9 176.37C129.92 177.92 130.15 179.27 130.27 180L130.31 180.23C130.44 181 130.92 181.23 131.73 181.61C131.88 181.68 132.05 181.76 132.24 181.86C133.69 182.57 135.17 183.07 136.87 183.45C137.54 183.59 138.06 183.66 138.48 183.66C139.24 183.66 139.67 183.44 140.17 183.19L140.32 183.12C140.73 182.92 141.34 182.46 142.25 181.66H142.27L142.32 181.6C142.41 181.52 142.49 181.44 142.58 181.37C142.54 181.47 142.5 181.57 142.46 181.67C142.19 182.36 141.95 182.95 141.88 183.16C141.67 183.8 141.74 184.38 142.08 184.87C142.28 185.15 142.53 185.4 142.77 185.58C141.87 185.8 141.06 186.05 140.48 186.24C139.37 186.6 137.98 187.52 135.94 188.99C135.73 189.15 135.51 189.3 135.3 189.45L134.84 189.78L134.7 189.88C132.88 191.19 131.3 192.33 128.81 195.42C126.92 197.77 125.63 199.71 124.76 201.28C124.82 201.06 124.89 200.82 124.97 200.57C125.92 197.48 127.76 195.47 130.08 192.93C130.78 192.16 131.56 191.4 132.47 190.62C132.52 190.59 132.56 190.55 132.59 190.52C133.26 190.01 133.79 189.67 134.04 189.5L134.19 189.4C134.27 189.34 134.34 189.3 134.39 189.27C134.46 189.23 134.62 189.12 134.7 188.95C134.83 188.86 134.92 188.8 134.99 188.76L135.06 188.71C135.14 188.66 135.2 188.62 135.25 188.59C135.39 188.51 135.71 188.31 135.6 187.93L135.46 187.56H135.08C135.08 187.56 134.98 187.56 134.87 187.57C134.75 187.58 134.65 187.59 134.46 187.61C134.13 187.64 133.54 187.7 132.19 187.85C130.86 188.01 128.78 188.31 127.25 188.54C126.98 188.58 126.72 188.62 126.49 188.65C128.19 188.37 130.14 188.04 130.65 187.91C130.86 187.86 131.02 187.83 131.15 187.81C131.42 187.77 131.7 187.72 131.84 187.43C131.9 187.3 131.91 187.18 131.88 187.07C131.9 187.07 131.91 187.07 131.92 187.07C132.2 187.02 132.48 186.98 132.62 186.68C132.76 186.38 132.61 186.12 132.49 185.91C132.4 185.77 131.98 184.98 131.44 183.99C130.79 182.78 129.94 181.23 129.13 179.76H129.21L129.36 179.59C129.52 179.4 129.5 179.25 129.45 178.82L129.43 178.46C129.4 178.04 129.36 177.43 129.34 176.86C129.31 176.33 129.3 175.88 129.32 175.67C129.36 175.27 129.37 175.27 129.71 175.12L129.81 175.08C129.98 175.01 130.3 174.9 130.71 174.77M125.08 188.87C124.67 189 124.2 189.29 123.61 189.67C123.36 189.83 123.09 189.99 122.8 190.17C122.53 190.33 122.12 190.61 121.66 190.94C122.04 190.6 122.32 190.3 122.4 190.14C122.44 190.07 122.49 189.99 122.52 189.9C122.77 189.65 122.85 189.54 122.88 189.47C122.98 189.29 123.03 189.13 123.04 188.99C123.14 189.03 123.27 189.06 123.43 189.06C123.52 189.06 123.64 189.06 123.8 189.04C123.97 189.03 124.45 188.96 125.08 188.87ZM119.08 192.82C118.71 193.1 118.41 193.33 118.24 193.46C118.14 193.4 117.99 193.29 117.86 193.18C117.88 193.18 117.9 193.18 117.92 193.18C118.18 193.18 118.4 193.09 118.77 192.94L118.95 192.87C118.95 192.87 119.03 192.84 119.08 192.82ZM139.04 135.63H84.25V283.05L118.11 283.13C118.11 283.13 118.08 236.75 118.08 232.99C118.08 227.88 118.04 208.35 118.04 208.07C118.05 207.79 118.1 207.72 117.84 207.51C117.59 207.3 115.76 205.57 114.65 204.49C113.54 203.41 112.67 202.46 112.4 201.96C112.12 201.46 112.04 201.21 111.66 200.07C111.29 198.92 110.73 197.18 110.27 195.22C109.81 193.27 109.42 191.59 109.47 190.03C109.5 189.1 109.52 188.67 109.55 188.41C109.55 188.34 109.55 188.29 109.55 188.23C109.58 187.64 109.6 187.5 109.65 187.26C109.67 187.15 109.7 187.11 109.75 187.11C109.84 187.11 109.98 187.29 110.13 187.41C110.35 187.59 116.63 192.84 117.27 193.36C117.76 193.77 118.07 194.01 118.28 194.01C118.34 194.01 118.4 193.99 118.44 193.94C118.64 193.75 121.94 191.27 123.04 190.6C124.15 189.94 124.93 189.35 125.45 189.3C125.96 189.25 130.1 188.6 132.24 188.35C134.39 188.11 134.61 188.1 134.93 188.06C135 188.06 135.05 188.05 135.08 188.05C135.18 188.05 135.06 188.1 134.78 188.28C134.69 188.34 134.44 188.5 134.07 188.76C134.13 188.76 134.18 188.75 134.2 188.75C134.29 188.75 134.16 188.8 133.91 188.97C133.75 189.08 133.13 189.47 132.27 190.12C132.25 190.14 132.22 190.17 132.19 190.18C131.43 190.83 130.57 191.62 129.71 192.57C127.33 195.17 125.46 197.24 124.49 200.4C123.66 203.09 123.65 204.23 123.66 205.02C124.11 203.42 125.38 200.46 129.2 195.71C131.71 192.59 133.27 191.5 135.13 190.16C135.49 189.9 135.86 189.64 136.23 189.37C138.24 187.92 139.59 187.03 140.63 186.69C141.55 186.38 143.29 185.88 144.94 185.61C144.23 185.53 143.68 185.47 143.48 185.39C143.18 185.29 142.77 184.95 142.48 184.55C142.2 184.15 142.22 183.69 142.35 183.29C142.48 182.89 143.4 180.66 143.55 180.2C143.61 180 143.64 179.87 143.61 179.82C143.61 179.82 143.59 179.79 143.58 179.79C143.52 179.79 143.4 179.88 143.21 180.06C143.02 180.25 142.53 180.71 141.98 181.21C141.96 181.22 141.95 181.23 141.94 181.24C141.28 181.82 140.54 182.43 140.09 182.65C139.54 182.93 139.19 183.14 138.48 183.14C138.11 183.14 137.63 183.08 136.97 182.94C135.06 182.52 133.64 181.97 132.45 181.39C131.27 180.81 130.89 180.74 130.79 180.13C130.69 179.51 130.41 178.04 130.39 176.34C130.4 175.83 130.5 175.64 130.92 175.49C130.95 175.49 131.03 175.46 131.16 175.42C131.15 175.36 131.15 175.29 131.15 175.22C131.16 174.69 131.26 174.5 131.69 174.34C132.13 174.2 146.53 169.93 147.29 169.7C147.74 169.57 148.22 169.48 148.68 169.48C149.01 169.48 149.33 169.53 149.62 169.63C150.33 169.89 151.16 170.2 151.41 171.07C151.67 171.96 154.51 180.48 155.46 183.71C156.42 186.93 156.75 188.15 156.91 188.57C157.05 188.99 157.25 189.48 156.84 189.95C156.42 190.43 143.39 204.17 142.76 204.76C142.13 205.35 142.03 205.39 142.14 206.14C142.25 206.89 143.7 222.39 143.79 222.97C143.88 223.56 144.41 225.9 144.55 226.93C145.47 233.7 147.93 237.97 149.55 239.8C151.17 239.74 187.35 235.52 187.52 188.72C187.69 139.22 147.35 135.63 139.02 135.63H139.04ZM136.95 172.29C136.82 172.29 136.73 172.2 136.59 171.91C136.31 171.23 133.98 166.7 133.53 165.66C133.09 164.62 132.83 164.18 133.34 163.91C133.49 163.83 133.77 163.7 134.13 163.55C133.86 162.91 133.79 162.59 134.19 162.37C134.71 162.09 136.91 161.22 138.25 160.84C139.57 160.47 141.83 159.72 142.36 159.54C142.61 159.45 142.81 159.39 142.98 159.39C143.17 159.39 143.3 159.47 143.4 159.68C143.57 160.08 146.8 167.34 146.96 167.81C147.13 168.28 147.2 168.42 146.76 168.54C146.66 168.57 146.21 168.7 145.57 168.88C145.63 169.03 145.68 169.13 145.69 169.17C145.85 169.63 145.92 169.76 145.49 169.88C145.06 170 137.72 172.07 137.32 172.19C137.15 172.24 137.04 172.29 136.95 172.29ZM128.98 179.27C128.98 179.27 128.86 179.08 128.68 178.79C128.36 178.28 127.09 176.3 125.43 173.67C123.77 171.04 123.28 170.16 123.04 169.6C122.82 169.1 122.71 169.16 123.6 168.37C123.58 168.33 123.57 168.29 123.55 168.25C123.29 167.67 123.17 167.82 124.51 166.65C125.83 165.48 127.26 164.81 128.83 164.18C130.41 163.56 131.01 163.39 131.71 163.38C131.73 163.38 131.76 163.38 131.78 163.38C132.43 163.38 132.48 163.52 132.68 163.89C132.89 164.28 135.49 170.18 135.84 170.93C136.19 171.69 136.07 171.62 135.43 171.81C135.32 171.84 135.11 171.9 134.83 171.98C134.87 172.07 134.91 172.14 134.93 172.19C135.27 172.93 135.15 172.86 134.53 173.04C133.91 173.21 130.05 174.45 129.55 174.65C129.54 174.65 129.53 174.66 129.52 174.67C129.03 174.87 128.88 175.01 128.82 175.63C128.8 175.89 128.82 176.37 128.84 176.9C128.87 177.66 128.93 178.51 128.95 178.86C128.99 179.15 129 179.27 128.98 179.27ZM123.43 188.57C123.15 188.57 123.16 188.49 122.9 188.2C122.36 187.65 121.68 186.83 120.64 185.39C119.61 183.95 118.06 181.83 116.99 180.34C115.92 178.85 114.56 176.43 114.33 175.84C114.11 175.26 114.19 175.19 114.47 174.65C114.48 174.63 114.49 174.62 114.5 174.6C114.32 174.09 114.42 174 114.69 173.47C115.24 172.48 116.71 171.06 117.91 170.28C119.11 169.49 120.05 169.13 120.87 168.83C121.13 168.73 121.34 168.69 121.51 168.69C121.86 168.69 122.05 168.87 122.23 169.12C122.51 169.48 125.4 174.3 127.05 177.1C128.69 179.9 131.79 185.72 132.07 186.18C132.33 186.63 132.17 186.48 131.3 186.69C131.26 186.7 131.21 186.71 131.15 186.72C131.21 186.83 131.26 186.9 131.28 186.94C131.54 187.38 131.38 187.23 130.54 187.43C129.71 187.63 124.41 188.51 123.77 188.55C123.62 188.56 123.51 188.57 123.43 188.57ZM117.92 192.69C117.73 192.69 117.57 192.59 117.25 192.34C116.61 191.87 114.44 190.01 112.26 187.99C110.09 185.97 108.29 184.12 107.88 183.64C107.52 183.22 107.32 182.66 107.5 182.13C107.36 181.75 107.37 181.34 107.59 180.95C107.96 180.33 109.32 178.3 111.17 176.88C111.6 176.57 112.36 176.05 112.97 176.05C113.2 176.05 113.41 176.12 113.57 176.31C114.17 176.99 120.39 185.7 122.22 188.35C122.51 188.79 122.64 188.86 122.43 189.23C122.39 189.31 122.25 189.46 122.05 189.65C122.05 189.72 122.02 189.79 121.96 189.89C121.77 190.24 119.67 192.07 118.77 192.41C118.33 192.58 118.11 192.69 117.92 192.69Z" fill="url(#paint1_linear_11026_32305)"/>
<path d="M132.2 190.2C131.44 190.85 130.58 191.64 129.72 192.59C127.34 195.19 125.47 197.26 124.5 200.42C123.67 203.11 123.66 204.25 123.67 205.04C123.37 206.13 123.44 206.58 123.36 206.55C123.15 206.46 123.15 206.36 123.16 205.56C123.17 204.76 123.01 203.77 123.96 200.72C124.9 197.66 126.71 195.66 129.01 193.14C130.16 191.87 131.3 190.9 132.2 190.2Z" fill="#EA5300"/>
<path d="M144.29 186.33C142.54 186.55 140.57 187.12 139.57 187.45C138.74 187.72 137.69 188.37 136.24 189.39C138.25 187.94 139.6 187.05 140.64 186.71C141.56 186.4 143.3 185.9 144.95 185.63C145.28 185.67 145.64 185.71 146.02 185.76C147.21 185.92 146.04 186.1 144.29 186.33Z" fill="#EA5300"/>
<path d="M134.79 188.3C134.7 188.36 134.45 188.52 134.08 188.78H134.06C133.75 188.82 133.54 188.83 131.46 189.06C129.39 189.3 125.38 189.93 124.89 189.98C124.39 190.03 123.63 190.6 122.56 191.24C121.5 191.88 118.3 194.28 118.11 194.47C117.92 194.66 117.6 194.42 116.98 193.91C116.36 193.4 110.29 188.32 110.07 188.15C109.85 187.98 109.67 187.68 109.61 188.01C109.59 188.09 109.57 188.16 109.56 188.25C109.59 187.66 109.61 187.52 109.66 187.28C109.72 186.94 109.91 187.25 110.14 187.43C110.36 187.61 116.64 192.86 117.28 193.38C117.92 193.91 118.25 194.16 118.45 193.96C118.65 193.77 121.95 191.29 123.05 190.62C124.16 189.96 124.94 189.37 125.46 189.32C125.97 189.27 130.11 188.62 132.25 188.37C134.4 188.13 134.62 188.12 134.94 188.08C135.25 188.05 135.14 188.08 134.79 188.3Z" fill="#EA5300"/>
<path d="M142.15 206.16C142.26 206.91 143.71 222.41 143.8 222.99C143.89 223.58 144.42 225.92 144.56 226.95C145.48 233.72 147.94 237.99 149.56 239.82H149.53C148.64 239.82 144.58 235.38 143.37 226.38C143.23 225.38 142.72 223.12 142.63 222.55C142.54 221.99 141.14 206.99 141.03 206.27C140.93 205.54 141.02 205.5 141.63 204.93C142.24 204.36 154.85 191.07 155.25 190.61C155.65 190.15 155.46 189.68 155.32 189.27C155.17 188.87 154.85 187.69 153.92 184.57C153 181.45 150.25 173.21 150 172.35C149.76 171.5 148.96 171.2 148.27 170.95C147.59 170.7 146.76 170.8 146.02 171.02C145.33 171.23 133.08 174.86 131.17 175.44C131.16 175.38 131.16 175.31 131.16 175.24C131.17 174.71 131.27 174.52 131.7 174.36C132.14 174.22 146.54 169.95 147.3 169.72C148.07 169.49 148.93 169.39 149.63 169.65C150.34 169.91 151.17 170.22 151.42 171.09C151.68 171.98 154.52 180.5 155.47 183.73C156.43 186.95 156.76 188.17 156.92 188.59C157.06 189.01 157.26 189.5 156.85 189.97C156.43 190.45 143.4 204.19 142.77 204.78C142.14 205.37 142.04 205.41 142.15 206.16Z" fill="#EA5300"/>
<path d="M122.43 189.25C122.39 189.33 122.25 189.48 122.05 189.67C122.08 189.49 121.96 189.37 121.76 189.06C119.99 186.5 113.97 178.07 113.39 177.41C112.82 176.75 111.64 177.56 111.07 177.97C109.28 179.34 107.96 181.3 107.61 181.9C107.57 181.98 107.53 182.07 107.5 182.15C107.36 181.77 107.37 181.36 107.59 180.97C107.96 180.35 109.32 178.32 111.17 176.9C111.76 176.48 112.98 175.64 113.57 176.33C114.17 177.01 120.39 185.72 122.22 188.37C122.51 188.81 122.64 188.88 122.43 189.25Z" fill="#EA5300"/>
<path d="M131.29 186.71C131.29 186.71 131.2 186.73 131.14 186.74C130.5 185.58 127.87 180.66 126.42 178.18C124.82 175.47 122.03 170.81 121.76 170.46C121.5 170.1 121.22 169.89 120.44 170.18C119.65 170.47 118.74 170.82 117.58 171.58C116.44 172.33 115.05 173.66 114.49 174.62C114.31 174.11 114.41 174.02 114.68 173.49C115.23 172.5 116.7 171.08 117.9 170.3C119.1 169.51 120.04 169.15 120.86 168.85C121.66 168.55 121.95 168.77 122.22 169.14C122.5 169.5 125.39 174.32 127.04 177.12C128.68 179.92 131.78 185.74 132.06 186.2C132.32 186.65 132.16 186.5 131.29 186.71Z" fill="#EA5300"/>
<path d="M135.42 171.83C135.31 171.86 135.1 171.92 134.82 172C134.25 170.74 132.06 165.75 131.86 165.4C131.66 165.03 131.61 164.9 130.93 164.91C130.25 164.92 129.67 165.08 128.14 165.68C126.62 166.29 125.24 166.94 123.96 168.07C123.82 168.19 123.7 168.3 123.59 168.39C123.57 168.35 123.56 168.31 123.54 168.27C123.28 167.69 123.16 167.84 124.5 166.67C125.82 165.5 127.25 164.83 128.82 164.2C130.4 163.58 131 163.41 131.7 163.4C132.41 163.39 132.46 163.53 132.67 163.91C132.88 164.3 135.48 170.2 135.83 170.95C136.18 171.71 136.06 171.64 135.42 171.83Z" fill="#EA5300"/>
<path d="M146.75 168.56C146.65 168.59 146.2 168.72 145.56 168.9C144.96 167.48 142.38 161.68 142.23 161.33C142.06 160.94 141.74 161.01 141.23 161.19C140.72 161.37 138.53 162.09 137.25 162.45C136.34 162.71 135 163.21 134.12 163.57C133.85 162.93 133.78 162.61 134.18 162.39C134.7 162.11 136.9 161.24 138.24 160.86C139.56 160.49 141.82 159.74 142.35 159.56C142.88 159.37 143.21 159.3 143.39 159.7C143.56 160.1 146.79 167.36 146.95 167.83C147.12 168.3 147.19 168.44 146.75 168.56Z" fill="#EA5300"/>
</g>
<circle cx="461" cy="425" r="80" fill="url(#paint2_linear_11026_32305)"/>
<path d="M264.136 536L267.955 512.727H270.227L266.409 536H264.136ZM253.545 529.545L253.909 527.273H271.273L270.909 529.545H253.545ZM255.955 536L259.773 512.727H262.045L258.227 536H255.955ZM254.909 521.455L255.273 519.182H272.636L272.273 521.455H254.909ZM276.006 536V512.727H289.96V515.227H278.824V523.091H288.915V525.591H278.824V536H276.006ZM294.787 536V512.727H308.832V515.227H297.605V523.091H308.105V525.591H297.605V533.5H309.014V536H294.787ZM320.957 536.318C319.397 536.318 318.018 536.042 316.821 535.489C315.632 534.928 314.704 534.159 314.037 533.182C313.37 532.197 313.041 531.076 313.048 529.818C313.041 528.833 313.234 527.924 313.628 527.091C314.022 526.25 314.56 525.549 315.241 524.989C315.931 524.42 316.7 524.061 317.548 523.909V523.773C316.435 523.485 315.548 522.86 314.889 521.898C314.23 520.928 313.904 519.826 313.912 518.591C313.904 517.409 314.204 516.352 314.81 515.42C315.416 514.489 316.249 513.754 317.31 513.216C318.378 512.678 319.594 512.409 320.957 512.409C322.306 512.409 323.51 512.678 324.571 513.216C325.632 513.754 326.465 514.489 327.071 515.42C327.685 516.352 327.995 517.409 328.003 518.591C327.995 519.826 327.658 520.928 326.991 521.898C326.332 522.86 325.457 523.485 324.366 523.773V523.909C325.207 524.061 325.965 524.42 326.639 524.989C327.313 525.549 327.851 526.25 328.253 527.091C328.654 527.924 328.859 528.833 328.866 529.818C328.859 531.076 328.518 532.197 327.844 533.182C327.177 534.159 326.249 534.928 325.06 535.489C323.878 536.042 322.51 536.318 320.957 536.318ZM320.957 533.818C322.01 533.818 322.92 533.648 323.685 533.307C324.45 532.966 325.041 532.485 325.457 531.864C325.874 531.242 326.086 530.515 326.094 529.682C326.086 528.803 325.859 528.027 325.412 527.352C324.965 526.678 324.355 526.148 323.582 525.761C322.817 525.375 321.942 525.182 320.957 525.182C319.965 525.182 319.079 525.375 318.298 525.761C317.526 526.148 316.916 526.678 316.469 527.352C316.029 528.027 315.813 528.803 315.821 529.682C315.813 530.515 316.014 531.242 316.423 531.864C316.84 532.485 317.435 532.966 318.207 533.307C318.98 533.648 319.897 533.818 320.957 533.818ZM320.957 522.773C321.791 522.773 322.529 522.606 323.173 522.273C323.825 521.939 324.336 521.473 324.707 520.875C325.079 520.277 325.268 519.576 325.276 518.773C325.268 517.985 325.082 517.299 324.719 516.716C324.355 516.125 323.851 515.67 323.207 515.352C322.563 515.027 321.813 514.864 320.957 514.864C320.086 514.864 319.325 515.027 318.673 515.352C318.022 515.67 317.518 516.125 317.162 516.716C316.806 517.299 316.632 517.985 316.639 518.773C316.632 519.576 316.81 520.277 317.173 520.875C317.545 521.473 318.056 521.939 318.707 522.273C319.359 522.606 320.109 522.773 320.957 522.773ZM352.358 520H349.54C349.373 519.189 349.081 518.477 348.665 517.864C348.256 517.25 347.756 516.735 347.165 516.318C346.581 515.894 345.934 515.576 345.222 515.364C344.509 515.152 343.767 515.045 342.994 515.045C341.585 515.045 340.309 515.402 339.165 516.114C338.028 516.826 337.123 517.875 336.449 519.261C335.782 520.648 335.449 522.348 335.449 524.364C335.449 526.379 335.782 528.08 336.449 529.466C337.123 530.852 338.028 531.902 339.165 532.614C340.309 533.326 341.585 533.682 342.994 533.682C343.767 533.682 344.509 533.576 345.222 533.364C345.934 533.152 346.581 532.837 347.165 532.42C347.756 531.996 348.256 531.477 348.665 530.864C349.081 530.242 349.373 529.53 349.54 528.727H352.358C352.146 529.917 351.759 530.981 351.199 531.92C350.638 532.86 349.941 533.659 349.108 534.318C348.275 534.97 347.339 535.466 346.301 535.807C345.271 536.148 344.169 536.318 342.994 536.318C341.009 536.318 339.244 535.833 337.699 534.864C336.153 533.894 334.938 532.515 334.051 530.727C333.165 528.939 332.722 526.818 332.722 524.364C332.722 521.909 333.165 519.788 334.051 518C334.938 516.212 336.153 514.833 337.699 513.864C339.244 512.894 341.009 512.409 342.994 512.409C344.169 512.409 345.271 512.58 346.301 512.92C347.339 513.261 348.275 513.761 349.108 514.42C349.941 515.072 350.638 515.867 351.199 516.807C351.759 517.739 352.146 518.803 352.358 520ZM364.094 536.318C362.382 536.318 360.923 535.852 359.719 534.92C358.514 533.981 357.594 532.621 356.957 530.841C356.321 529.053 356.003 526.894 356.003 524.364C356.003 521.848 356.321 519.701 356.957 517.92C357.601 516.133 358.526 514.769 359.73 513.83C360.942 512.883 362.397 512.409 364.094 512.409C365.791 512.409 367.241 512.883 368.446 513.83C369.658 514.769 370.582 516.133 371.219 517.92C371.863 519.701 372.185 521.848 372.185 524.364C372.185 526.894 371.866 529.053 371.23 530.841C370.594 532.621 369.673 533.981 368.469 534.92C367.264 535.852 365.806 536.318 364.094 536.318ZM364.094 533.818C365.791 533.818 367.109 533 368.048 531.364C368.988 529.727 369.457 527.394 369.457 524.364C369.457 522.348 369.241 520.633 368.81 519.216C368.385 517.799 367.772 516.72 366.969 515.977C366.173 515.235 365.215 514.864 364.094 514.864C362.412 514.864 361.098 515.693 360.151 517.352C359.204 519.004 358.73 521.341 358.73 524.364C358.73 526.379 358.942 528.091 359.366 529.5C359.791 530.909 360.401 531.981 361.196 532.716C361.999 533.451 362.965 533.818 364.094 533.818ZM384.094 536.318C382.382 536.318 380.923 535.852 379.719 534.92C378.514 533.981 377.594 532.621 376.957 530.841C376.321 529.053 376.003 526.894 376.003 524.364C376.003 521.848 376.321 519.701 376.957 517.92C377.601 516.133 378.526 514.769 379.73 513.83C380.942 512.883 382.397 512.409 384.094 512.409C385.791 512.409 387.241 512.883 388.446 513.83C389.658 514.769 390.582 516.133 391.219 517.92C391.863 519.701 392.185 521.848 392.185 524.364C392.185 526.894 391.866 529.053 391.23 530.841C390.594 532.621 389.673 533.981 388.469 534.92C387.264 535.852 385.806 536.318 384.094 536.318ZM384.094 533.818C385.791 533.818 387.109 533 388.048 531.364C388.988 529.727 389.457 527.394 389.457 524.364C389.457 522.348 389.241 520.633 388.81 519.216C388.385 517.799 387.772 516.72 386.969 515.977C386.173 515.235 385.215 514.864 384.094 514.864C382.412 514.864 381.098 515.693 380.151 517.352C379.204 519.004 378.73 521.341 378.73 524.364C378.73 526.379 378.942 528.091 379.366 529.5C379.791 530.909 380.401 531.981 381.196 532.716C381.999 533.451 382.965 533.818 384.094 533.818Z" fill="#3D3D3D"/>
<path d="M525.136 536L528.955 512.727H531.227L527.409 536H525.136ZM514.545 529.545L514.909 527.273H532.273L531.909 529.545H514.545ZM516.955 536L520.773 512.727H523.045L519.227 536H516.955ZM515.909 521.455L516.273 519.182H533.636L533.273 521.455H515.909ZM537.006 536V512.727H550.96V515.227H539.824V523.091H549.915V525.591H539.824V536H537.006ZM562.832 536.318C561.272 536.318 559.893 536.042 558.696 535.489C557.507 534.928 556.579 534.159 555.912 533.182C555.245 532.197 554.916 531.076 554.923 529.818C554.916 528.833 555.109 527.924 555.503 527.091C555.897 526.25 556.435 525.549 557.116 524.989C557.806 524.42 558.575 524.061 559.423 523.909V523.773C558.31 523.485 557.423 522.86 556.764 521.898C556.105 520.928 555.779 519.826 555.787 518.591C555.779 517.409 556.079 516.352 556.685 515.42C557.291 514.489 558.124 513.754 559.185 513.216C560.253 512.678 561.469 512.409 562.832 512.409C564.181 512.409 565.385 512.678 566.446 513.216C567.507 513.754 568.34 514.489 568.946 515.42C569.56 516.352 569.87 517.409 569.878 518.591C569.87 519.826 569.533 520.928 568.866 521.898C568.207 522.86 567.332 523.485 566.241 523.773V523.909C567.082 524.061 567.84 524.42 568.514 524.989C569.188 525.549 569.726 526.25 570.128 527.091C570.529 527.924 570.734 528.833 570.741 529.818C570.734 531.076 570.393 532.197 569.719 533.182C569.052 534.159 568.124 534.928 566.935 535.489C565.753 536.042 564.385 536.318 562.832 536.318ZM562.832 533.818C563.885 533.818 564.795 533.648 565.56 533.307C566.325 532.966 566.916 532.485 567.332 531.864C567.749 531.242 567.961 530.515 567.969 529.682C567.961 528.803 567.734 528.027 567.287 527.352C566.84 526.678 566.23 526.148 565.457 525.761C564.692 525.375 563.817 525.182 562.832 525.182C561.84 525.182 560.954 525.375 560.173 525.761C559.401 526.148 558.791 526.678 558.344 527.352C557.904 528.027 557.688 528.803 557.696 529.682C557.688 530.515 557.889 531.242 558.298 531.864C558.715 532.485 559.31 532.966 560.082 533.307C560.855 533.648 561.772 533.818 562.832 533.818ZM562.832 522.773C563.666 522.773 564.404 522.606 565.048 522.273C565.7 521.939 566.211 521.473 566.582 520.875C566.954 520.277 567.143 519.576 567.151 518.773C567.143 517.985 566.957 517.299 566.594 516.716C566.23 516.125 565.726 515.67 565.082 515.352C564.438 515.027 563.688 514.864 562.832 514.864C561.961 514.864 561.2 515.027 560.548 515.352C559.897 515.67 559.393 516.125 559.037 516.716C558.681 517.299 558.507 517.985 558.514 518.773C558.507 519.576 558.685 520.277 559.048 520.875C559.42 521.473 559.931 521.939 560.582 522.273C561.234 522.606 561.984 522.773 562.832 522.773ZM582.96 536.318C581.46 536.318 580.123 536.061 578.949 535.545C577.782 535.03 576.854 534.314 576.165 533.398C575.483 532.473 575.112 531.402 575.051 530.182H577.915C577.975 530.932 578.233 531.58 578.688 532.125C579.142 532.663 579.737 533.08 580.472 533.375C581.206 533.67 582.021 533.818 582.915 533.818C583.915 533.818 584.801 533.644 585.574 533.295C586.347 532.947 586.953 532.462 587.392 531.841C587.831 531.22 588.051 530.5 588.051 529.682C588.051 528.826 587.839 528.072 587.415 527.42C586.991 526.761 586.369 526.246 585.551 525.875C584.733 525.504 583.733 525.318 582.551 525.318H580.688V522.818H582.551C583.475 522.818 584.286 522.652 584.983 522.318C585.688 521.985 586.237 521.515 586.631 520.909C587.032 520.303 587.233 519.591 587.233 518.773C587.233 517.985 587.059 517.299 586.71 516.716C586.362 516.133 585.869 515.678 585.233 515.352C584.604 515.027 583.862 514.864 583.006 514.864C582.203 514.864 581.445 515.011 580.733 515.307C580.028 515.595 579.453 516.015 579.006 516.568C578.559 517.114 578.316 517.773 578.278 518.545H575.551C575.597 517.326 575.964 516.258 576.653 515.341C577.343 514.417 578.244 513.697 579.358 513.182C580.479 512.667 581.71 512.409 583.051 512.409C584.491 512.409 585.725 512.701 586.756 513.284C587.786 513.86 588.578 514.621 589.131 515.568C589.684 516.515 589.96 517.538 589.96 518.636C589.96 519.947 589.616 521.064 588.926 521.989C588.244 522.913 587.316 523.553 586.142 523.909V524.091C587.612 524.333 588.759 524.958 589.585 525.966C590.411 526.966 590.824 528.205 590.824 529.682C590.824 530.947 590.479 532.083 589.79 533.091C589.108 534.091 588.176 534.879 586.994 535.455C585.813 536.03 584.468 536.318 582.96 536.318ZM603.199 536.318C602.244 536.303 601.29 536.121 600.335 535.773C599.381 535.424 598.509 534.837 597.722 534.011C596.934 533.178 596.301 532.053 595.824 530.636C595.347 529.212 595.108 527.424 595.108 525.273C595.108 523.212 595.301 521.386 595.688 519.795C596.074 518.197 596.634 516.852 597.369 515.761C598.104 514.663 598.991 513.83 600.028 513.261C601.074 512.693 602.252 512.409 603.562 512.409C604.866 512.409 606.025 512.67 607.04 513.193C608.063 513.708 608.896 514.428 609.54 515.352C610.184 516.277 610.6 517.341 610.79 518.545H608.017C607.759 517.5 607.259 516.633 606.517 515.943C605.775 515.254 604.79 514.909 603.562 514.909C601.759 514.909 600.339 515.693 599.301 517.261C598.271 518.83 597.752 521.03 597.744 523.864H597.926C598.35 523.22 598.854 522.67 599.438 522.216C600.028 521.754 600.68 521.398 601.392 521.148C602.104 520.898 602.858 520.773 603.653 520.773C604.987 520.773 606.206 521.106 607.312 521.773C608.419 522.432 609.305 523.345 609.972 524.511C610.638 525.67 610.972 527 610.972 528.5C610.972 529.939 610.65 531.258 610.006 532.455C609.362 533.644 608.456 534.591 607.29 535.295C606.131 535.992 604.767 536.333 603.199 536.318ZM603.199 533.818C604.153 533.818 605.009 533.58 605.767 533.102C606.532 532.625 607.134 531.985 607.574 531.182C608.021 530.379 608.244 529.485 608.244 528.5C608.244 527.538 608.028 526.663 607.597 525.875C607.172 525.08 606.585 524.447 605.835 523.977C605.093 523.508 604.244 523.273 603.29 523.273C602.57 523.273 601.9 523.417 601.278 523.705C600.657 523.985 600.112 524.371 599.642 524.864C599.18 525.356 598.816 525.92 598.551 526.557C598.286 527.186 598.153 527.848 598.153 528.545C598.153 529.47 598.369 530.333 598.801 531.136C599.241 531.939 599.839 532.587 600.597 533.08C601.362 533.572 602.229 533.818 603.199 533.818ZM623.031 536.318C621.319 536.318 619.861 535.852 618.656 534.92C617.452 533.981 616.531 532.621 615.895 530.841C615.259 529.053 614.94 526.894 614.94 524.364C614.94 521.848 615.259 519.701 615.895 517.92C616.539 516.133 617.463 514.769 618.668 513.83C619.88 512.883 621.334 512.409 623.031 512.409C624.728 512.409 626.179 512.883 627.384 513.83C628.596 514.769 629.52 516.133 630.156 517.92C630.8 519.701 631.122 521.848 631.122 524.364C631.122 526.894 630.804 529.053 630.168 530.841C629.531 532.621 628.611 533.981 627.406 534.92C626.202 535.852 624.743 536.318 623.031 536.318ZM623.031 533.818C624.728 533.818 626.046 533 626.986 531.364C627.925 529.727 628.395 527.394 628.395 524.364C628.395 522.348 628.179 520.633 627.747 519.216C627.323 517.799 626.709 516.72 625.906 515.977C625.111 515.235 624.152 514.864 623.031 514.864C621.349 514.864 620.035 515.693 619.088 517.352C618.141 519.004 617.668 521.341 617.668 524.364C617.668 526.379 617.88 528.091 618.304 529.5C618.728 530.909 619.338 531.981 620.134 532.716C620.937 533.451 621.902 533.818 623.031 533.818ZM643.031 536.318C641.319 536.318 639.861 535.852 638.656 534.92C637.452 533.981 636.531 532.621 635.895 530.841C635.259 529.053 634.94 526.894 634.94 524.364C634.94 521.848 635.259 519.701 635.895 517.92C636.539 516.133 637.463 514.769 638.668 513.83C639.88 512.883 641.334 512.409 643.031 512.409C644.728 512.409 646.179 512.883 647.384 513.83C648.596 514.769 649.52 516.133 650.156 517.92C650.8 519.701 651.122 521.848 651.122 524.364C651.122 526.894 650.804 529.053 650.168 530.841C649.531 532.621 648.611 533.981 647.406 534.92C646.202 535.852 644.743 536.318 643.031 536.318ZM643.031 533.818C644.728 533.818 646.046 533 646.986 531.364C647.925 529.727 648.395 527.394 648.395 524.364C648.395 522.348 648.179 520.633 647.747 519.216C647.323 517.799 646.709 516.72 645.906 515.977C645.111 515.235 644.152 514.864 643.031 514.864C641.349 514.864 640.035 515.693 639.088 517.352C638.141 519.004 637.668 521.341 637.668 524.364C637.668 526.379 637.88 528.091 638.304 529.5C638.728 530.909 639.338 531.981 640.134 532.716C640.937 533.451 641.902 533.818 643.031 533.818Z" fill="#3D3D3D"/>
<path d="M359.561 676.115C359.561 678.096 359.314 679.9 358.822 681.529C358.33 683.146 357.58 684.541 356.572 685.713C355.576 686.885 354.311 687.787 352.775 688.42C351.24 689.041 349.424 689.352 347.326 689.352C345.229 689.352 343.412 689.041 341.877 688.42C340.342 687.787 339.07 686.885 338.062 685.713C337.066 684.541 336.322 683.141 335.83 681.512C335.338 679.883 335.092 678.072 335.092 676.08C335.092 673.42 335.525 671.105 336.393 669.137C337.271 667.156 338.619 665.621 340.436 664.531C342.252 663.441 344.561 662.896 347.361 662.896C350.15 662.896 352.441 663.441 354.234 664.531C356.039 665.621 357.375 667.156 358.242 669.137C359.121 671.117 359.561 673.443 359.561 676.115ZM340.805 676.115C340.805 677.908 341.027 679.455 341.473 680.756C341.93 682.045 342.639 683.041 343.6 683.744C344.561 684.436 345.803 684.781 347.326 684.781C348.873 684.781 350.127 684.436 351.088 683.744C352.049 683.041 352.746 682.045 353.18 680.756C353.625 679.455 353.848 677.908 353.848 676.115C353.848 673.42 353.344 671.299 352.336 669.752C351.328 668.205 349.67 667.432 347.361 667.432C345.826 667.432 344.572 667.783 343.6 668.486C342.639 669.178 341.93 670.174 341.473 671.475C341.027 672.764 340.805 674.311 340.805 676.115ZM375.758 668.979C377.973 668.979 379.76 669.84 381.12 671.562C382.491 673.285 383.176 675.811 383.176 679.139C383.176 681.365 382.854 683.24 382.21 684.764C381.565 686.275 380.674 687.418 379.538 688.191C378.401 688.965 377.094 689.352 375.618 689.352C374.669 689.352 373.854 689.234 373.174 689C372.495 688.754 371.915 688.443 371.434 688.068C370.954 687.682 370.538 687.271 370.186 686.838H369.905C369.999 687.307 370.069 687.787 370.116 688.279C370.163 688.771 370.186 689.252 370.186 689.721V697.648H364.825V669.348H369.184L369.94 671.896H370.186C370.538 671.369 370.965 670.883 371.469 670.438C371.973 669.992 372.577 669.641 373.28 669.383C373.995 669.113 374.821 668.979 375.758 668.979ZM374.036 673.268C373.098 673.268 372.354 673.461 371.803 673.848C371.253 674.234 370.848 674.814 370.59 675.588C370.344 676.361 370.21 677.34 370.186 678.523V679.104C370.186 680.369 370.303 681.441 370.538 682.32C370.784 683.199 371.188 683.867 371.751 684.324C372.325 684.781 373.11 685.01 374.106 685.01C374.926 685.01 375.6 684.781 376.128 684.324C376.655 683.867 377.048 683.199 377.305 682.32C377.575 681.43 377.71 680.346 377.71 679.068C377.71 677.146 377.411 675.699 376.813 674.727C376.215 673.754 375.29 673.268 374.036 673.268ZM396.07 668.979C397.886 668.979 399.45 669.33 400.763 670.033C402.075 670.725 403.089 671.732 403.804 673.057C404.519 674.381 404.876 675.998 404.876 677.908V680.51H392.202C392.261 682.021 392.712 683.211 393.556 684.078C394.411 684.934 395.595 685.361 397.107 685.361C398.361 685.361 399.509 685.232 400.552 684.975C401.595 684.717 402.667 684.33 403.769 683.814V687.963C402.796 688.443 401.777 688.795 400.71 689.018C399.656 689.24 398.372 689.352 396.861 689.352C394.892 689.352 393.146 688.988 391.622 688.262C390.111 687.535 388.921 686.428 388.054 684.939C387.199 683.451 386.771 681.576 386.771 679.314C386.771 677.018 387.158 675.107 387.931 673.584C388.716 672.049 389.806 670.9 391.2 670.139C392.595 669.365 394.218 668.979 396.07 668.979ZM396.105 672.793C395.062 672.793 394.195 673.127 393.503 673.795C392.824 674.463 392.431 675.512 392.325 676.941H399.849C399.837 676.145 399.691 675.436 399.409 674.814C399.14 674.193 398.73 673.701 398.179 673.338C397.64 672.975 396.949 672.793 396.105 672.793ZM420.758 668.979C422.855 668.979 424.543 669.553 425.82 670.701C427.098 671.838 427.736 673.666 427.736 676.186V689H422.375V677.521C422.375 676.115 422.117 675.055 421.601 674.34C421.098 673.625 420.301 673.268 419.211 673.268C417.57 673.268 416.451 673.824 415.853 674.938C415.256 676.051 414.957 677.656 414.957 679.754V689H409.596V669.348H413.691L414.412 671.861H414.711C415.133 671.182 415.654 670.631 416.275 670.209C416.908 669.787 417.605 669.477 418.367 669.277C419.141 669.078 419.937 668.979 420.758 668.979ZM447.327 683.164C447.327 684.5 447.01 685.631 446.378 686.557C445.756 687.471 444.825 688.168 443.583 688.648C442.34 689.117 440.794 689.352 438.942 689.352C437.571 689.352 436.393 689.264 435.409 689.088C434.436 688.912 433.452 688.619 432.456 688.209V683.779C433.522 684.26 434.665 684.658 435.883 684.975C437.114 685.279 438.192 685.432 439.118 685.432C440.161 685.432 440.905 685.279 441.35 684.975C441.807 684.658 442.036 684.248 442.036 683.744C442.036 683.416 441.942 683.123 441.754 682.865C441.579 682.596 441.192 682.297 440.594 681.969C439.997 681.629 439.059 681.189 437.782 680.65C436.551 680.135 435.538 679.613 434.741 679.086C433.956 678.559 433.37 677.938 432.983 677.223C432.608 676.496 432.42 675.576 432.42 674.463C432.42 672.646 433.124 671.281 434.53 670.367C435.948 669.441 437.84 668.979 440.208 668.979C441.426 668.979 442.586 669.102 443.688 669.348C444.801 669.594 445.944 669.986 447.116 670.525L445.499 674.393C444.526 673.971 443.606 673.625 442.739 673.355C441.883 673.086 441.01 672.951 440.12 672.951C439.335 672.951 438.743 673.057 438.344 673.268C437.946 673.479 437.747 673.801 437.747 674.234C437.747 674.551 437.846 674.832 438.045 675.078C438.256 675.324 438.655 675.6 439.241 675.904C439.838 676.197 440.711 676.578 441.86 677.047C442.973 677.504 443.94 677.984 444.76 678.488C445.581 678.98 446.213 679.596 446.659 680.334C447.104 681.061 447.327 682.004 447.327 683.164ZM459.921 668.943C462.558 668.943 464.579 669.518 465.986 670.666C467.392 671.814 468.095 673.561 468.095 675.904V689H464.351L463.314 686.328H463.173C462.611 687.031 462.036 687.605 461.45 688.051C460.864 688.496 460.191 688.824 459.429 689.035C458.667 689.246 457.741 689.352 456.652 689.352C455.491 689.352 454.448 689.129 453.523 688.684C452.609 688.238 451.888 687.559 451.361 686.645C450.833 685.719 450.57 684.547 450.57 683.129C450.57 681.043 451.302 679.508 452.767 678.523C454.232 677.527 456.429 676.977 459.359 676.871L462.769 676.766V675.904C462.769 674.873 462.499 674.117 461.96 673.637C461.421 673.156 460.671 672.916 459.71 672.916C458.761 672.916 457.829 673.051 456.915 673.32C456.001 673.59 455.087 673.93 454.173 674.34L452.398 670.719C453.441 670.168 454.607 669.734 455.896 669.418C457.196 669.102 458.538 668.943 459.921 668.943ZM462.769 679.895L460.695 679.965C458.96 680.012 457.753 680.322 457.073 680.896C456.405 681.471 456.071 682.227 456.071 683.164C456.071 683.984 456.312 684.57 456.792 684.922C457.273 685.262 457.9 685.432 458.673 685.432C459.821 685.432 460.788 685.092 461.573 684.412C462.37 683.732 462.769 682.766 462.769 681.512V679.895ZM485.154 668.979C487.252 668.979 488.939 669.553 490.217 670.701C491.494 671.838 492.133 673.666 492.133 676.186V689H486.771V677.521C486.771 676.115 486.514 675.055 485.998 674.34C485.494 673.625 484.697 673.268 483.607 673.268C481.967 673.268 480.848 673.824 480.25 674.938C479.652 676.051 479.353 677.656 479.353 679.754V689H473.992V669.348H478.088L478.808 671.861H479.107C479.529 671.182 480.051 670.631 480.672 670.209C481.305 669.787 482.002 669.477 482.764 669.277C483.537 669.078 484.334 668.979 485.154 668.979ZM511.723 683.164C511.723 684.5 511.407 685.631 510.774 686.557C510.153 687.471 509.221 688.168 507.979 688.648C506.737 689.117 505.19 689.352 503.338 689.352C501.967 689.352 500.79 689.264 499.805 689.088C498.833 688.912 497.848 688.619 496.852 688.209V683.779C497.918 684.26 499.061 684.658 500.28 684.975C501.51 685.279 502.588 685.432 503.514 685.432C504.557 685.432 505.301 685.279 505.747 684.975C506.204 684.658 506.432 684.248 506.432 683.744C506.432 683.416 506.338 683.123 506.151 682.865C505.975 682.596 505.588 682.297 504.991 681.969C504.393 681.629 503.456 681.189 502.178 680.65C500.948 680.135 499.934 679.613 499.137 679.086C498.352 678.559 497.766 677.938 497.379 677.223C497.004 676.496 496.817 675.576 496.817 674.463C496.817 672.646 497.52 671.281 498.926 670.367C500.344 669.441 502.237 668.979 504.604 668.979C505.823 668.979 506.983 669.102 508.084 669.348C509.198 669.594 510.34 669.986 511.512 670.525L509.895 674.393C508.922 673.971 508.002 673.625 507.135 673.355C506.28 673.086 505.407 672.951 504.516 672.951C503.731 672.951 503.139 673.057 502.741 673.268C502.342 673.479 502.143 673.801 502.143 674.234C502.143 674.551 502.243 674.832 502.442 675.078C502.653 675.324 503.051 675.6 503.637 675.904C504.235 676.197 505.108 676.578 506.256 677.047C507.37 677.504 508.336 677.984 509.157 678.488C509.977 678.98 510.61 679.596 511.055 680.334C511.5 681.061 511.723 682.004 511.723 683.164Z" fill="#3D3D3D"/>
<defs>
<linearGradient id="paint0_linear_11026_32305" x1="135.89" y1="274.06" x2="135.89" y2="170.78" gradientUnits="userSpaceOnUse">
<stop stop-color="#FF2200"/>
<stop offset="0.11" stop-color="#FE2B00"/>
<stop offset="0.3" stop-color="#FE4400"/>
<stop offset="0.54" stop-color="#FD6E00"/>
<stop offset="0.81" stop-color="#FCA700"/>
<stop offset="1" stop-color="#FCD200"/>
</linearGradient>
<linearGradient id="paint1_linear_11026_32305" x1="84.25" y1="209.4" x2="187.53" y2="209.4" gradientUnits="userSpaceOnUse">
<stop stop-color="#FF2C00" stop-opacity="0"/>
<stop offset="0.59" stop-color="#FDF400" stop-opacity="0"/>
<stop offset="0.62" stop-color="#FCF100" stop-opacity="0.03"/>
<stop offset="0.65" stop-color="#FCEA00" stop-opacity="0.11"/>
<stop offset="0.69" stop-color="#FCDF00" stop-opacity="0.23"/>
<stop offset="0.73" stop-color="#FCD100" stop-opacity="0.4"/>
<stop offset="0.75" stop-color="#FCD600" stop-opacity="0.5"/>
<stop offset="0.79" stop-color="#FCDF00" stop-opacity="0.65"/>
<stop offset="0.83" stop-color="#FCE600" stop-opacity="0.78"/>
<stop offset="0.87" stop-color="#FCEC00" stop-opacity="0.87"/>
<stop offset="0.91" stop-color="#FCF000" stop-opacity="0.94"/>
<stop offset="0.95" stop-color="#FCF300" stop-opacity="0.99"/>
<stop offset="1" stop-color="#FDF400"/>
</linearGradient>
<linearGradient id="paint2_linear_11026_32305" x1="381" y1="425" x2="541" y2="425" gradientUnits="userSpaceOnUse">
<stop stop-color="#FE8C00"/>
<stop offset="1" stop-color="#F83600"/>
</linearGradient>
<clipPath id="clip0_11026_32305">
<rect width="676.37" height="203.45" fill="white" transform="translate(84 85)"/>
</clipPath>
</defs>
</svg>
