<svg xmlns="http://www.w3.org/2000/svg" enable-background="new 0 0 2000 2000" viewBox="0 0 2000 2000" id="Girllearninggeometryfromonlineclass"><g fill="#000000" class="color000000 svgShape"><path fill="#f5f9fd" d="M1907.6,158.6v521.6c0,19.8-16.1,35.9-35.9,35.9H1094c-19.9,0-35.9-16.1-35.9-35.9V158.6
					c0-19.9,16.1-35.9,35.9-35.9h777.7C1891.5,122.7,1907.6,138.7,1907.6,158.6z" class="colorf5f8fd svgShape"></path><path fill="#2c3d7e" d="M1638.2,225.9v356.6c0,11.2-9,20.2-20.1,20.2h-509.5c-11.1,0-20.1-9-20.1-20.2V225.9
					c0-11.1,9-20.2,20.1-20.2h509.5C1629.2,205.8,1638.2,214.8,1638.2,225.9z" class="color2c367e svgShape"></path><path fill="#5382b1" d="M1626.7,234.5V574c0,10.6-8.6,19.2-19.3,19.2h-488.2c-10.6,0-19.3-8.6-19.3-19.2V234.5
					c0-10.6,8.6-19.2,19.3-19.2h488.2C1618.1,215.3,1626.7,223.9,1626.7,234.5z" class="color53b163 svgShape"></path><path fill="#3f6489" d="M1626.7,234.5V574c0,10.6-8.6,19.2-19.3,19.2h-488.2c-10.6,0-19.3-8.5-19.3-19.2v-42.3
					c29.6,6.7,60.6,10.2,92.6,10.2c204.3,0,369.9-145.1,369.9-324.1c0-0.9,0-1.7-0.1-2.5h45.1
					C1618.1,215.3,1626.7,223.9,1626.7,234.5z" class="color3f897a svgShape"></path><path fill="#c2d5e9" d="M1907.6,632.4v47.8c0,19.8-16.1,35.9-35.9,35.9H1094c-19.9,0-35.9-16.1-35.9-35.9v-47.8H1907.6z" class="colorc2d2e9 svgShape"></path><path fill="#0575e6" d="M1192.5 658.4v28.9c0 1.2-.9 2.1-1.9 2.1h-8.7c-1.1 0-1.9-1-1.9-2.1v-28.9c0-1.2.9-2.2 1.9-2.2h8.7C1191.6 656.2 1192.5 657.1 1192.5 658.4zM1168.5 658.4v28.9c0 1.2-.9 2.1-2 2.1h-8.6c-1.1 0-2-1-2-2.1v-28.9c0-1.2.9-2.2 2-2.2h8.6C1167.6 656.2 1168.5 657.1 1168.5 658.4zM1499.5 672.6c0 1.8-.4 3.6-1.2 5.1h-268.7c-2.8 0-5.1-2.3-5.1-5.1s2.3-5.1 5.1-5.1h268.7C1499.1 669 1499.5 670.8 1499.5 672.6z" class="color535f9b svgShape"></path><path fill="#ffffff" d="M1827.6,672.6c0,2.8-2.3,5.1-5.1,5.1h-324.2c0.8-1.6,1.2-3.3,1.2-5.1c0-1.8-0.4-3.6-1.2-5.1h324.2
					C1825.3,667.5,1827.6,669.8,1827.6,672.6z" class="colorffffff svgShape"></path><path fill="#62aefa" d="M1499.5,672.6c0,1.8-0.4,3.6-1.2,5.1c-1.9,3.9-5.9,6.6-10.6,6.6c-4.6,0-8.7-2.7-10.5-6.6
					c-0.8-1.6-1.2-3.3-1.2-5.1c0-1.8,0.4-3.6,1.2-5.1c1.9-3.9,5.9-6.6,10.5-6.6c4.6,0,8.7,2.7,10.6,6.6
					C1499.1,669,1499.5,670.8,1499.5,672.6z" class="colorfaae62 svgShape"></path><path fill="#0575e6" d="M1907.6,158.6v17.8h-849.5v-17.8c0-19.9,16.1-35.9,35.9-35.9h777.7C1891.5,122.7,1907.6,138.7,1907.6,158.6
					z" class="color535f9b svgShape"></path><circle cx="1121.8" cy="150.8" r="8.9" fill="#5172ec" class="colorec8751 svgShape"></circle><circle cx="1162.7" cy="150.8" r="8.9" fill="#62aefa" class="colorfaae62 svgShape"></circle><circle cx="1203.5" cy="150.8" r="8.9" fill="#5382b1" class="color53b163 svgShape"></circle><path fill="#1a2347" d="M1521.6,272.1c3.8,12.7,7.6,25.5,8.4,38.8c0.4,6.8,0,13.5-1.7,20.1c-1.4,5.8-3.2,11.6-3.4,17.7
							c-0.3,8.8,3.4,18.2,11.2,22.8c5.9,3.6,13.4,3.8,19.8,1.4c8-3,14.1-9.3,17-17.2c0.9-2.6-3.2-3.7-4.1-1.1
							c-4.3,11.7-19.4,20.4-30.9,13c-7.9-5.1-9.5-15.4-8.1-24c1-5.8,3-11.4,3.9-17.3c0.8-5.4,1-10.9,0.6-16.4
							c-1-13.3-4.7-26.2-8.5-38.9C1524.9,268.3,1520.8,269.4,1521.6,272.1L1521.6,272.1z" class="color1a2b47 svgShape"></path><circle cx="1682.5" cy="323" r="44.3" fill="#1a2347" class="color1a2b47 svgShape"></circle><path fill="#1a2347" d="M1688.1,252.6c-0.4-1.9-0.7-3.2-0.8-3.8c-0.1-0.2-0.1-0.4-0.1-0.4c-8.7-29.3-27-56.2-57.6-61.3
							c-55.5-9.1-73.9,20.5-73.9,20.5s-19.7-4.5-37.1,35.3c-17.4,39.7,20.4,67.3,20.4,67.3s3.3,8.2,3.8,19.6
							c18.2,39,91.3,29.7,91.3,29.7C1699.2,335.7,1691.9,271.5,1688.1,252.6z" class="color1a2b47 svgShape"></path><path fill="#8cc4fd" d="M1653.8,322.3c0,0,3.1,10-0.8,19.1c-3.8,9.1-11,21.1-11,21.1s-5.7,19.6-4.9,29.2
							c0.8,9.6,12.9,18.4,12.9,18.4s-12,44.4-56,49.3c-44,5-23.5-59.6-23.5-59.6s4.8-1,8.4-2.7c3.6-1.8,7.6-7.8,7.6-7.8l4.9-10.7
							c0.1-0.1,0.1-0.2-0.1-0.2c-0.3,0-0.6,0.2-1.2,0.2c0.1-0.1,0.1-0.2,0.1-0.2c-48.9-5.7-50-41.1-48.9-44.7
							c1.1-3.7,0.4-8.3-3.4-13.7c-3.6-5.1-3.6-25.5-3.6-27.5c0-0.1,0-0.2,0-0.2c0.1-6,0.8-13.3,1.1-17c0.2-1.5,1.1-2.7,2.5-3.3
							l7.9-3.4c1-0.4,2.1-0.4,3.1,0c4.1,1.7,16.2,6.3,33.6,8.9c16.8,2.6,35.8-6,43.5-10c1.7-0.9,3.8,0.2,4.1,2.1
							c1.6,10.4,5.7,37.7,6.2,39.2c0.7,1.9,6.6,0.9,7.3,0.1c0.8-0.9-0.2-4.9,0.9-10.2c1-5.2,4.9-6.2,9-6.9c4.3-0.7,11,5.8,10.9,16.9
							C1664.3,320.1,1653.8,322.3,1653.8,322.3z" class="colorfd9e8c svgShape"></path><path fill="#4f6cdb" d="M1629.3,365.8c-3.2,7-10,20.3-19.1,30c-10.9,11.6-20.8,16.9-24.5,18.6c-0.3,0.1-0.7,0.2-1.1,0.2
								c-0.5,0-0.9-0.2-1.3-0.5c-0.6-0.6-1-1.4-0.8-2.3l5.8-31.5c0.2-1,1-1.8,1.9-1.8c2.1-0.3,13-2.1,23.4-8.4
								c4.2-2.6,7.9-5.2,11-7.9c1.1-1,2.6-1,3.8-0.1C1629.5,363,1629.8,364.5,1629.3,365.8z" class="colordb5f4f svgShape"></path><ellipse cx="1551.9" cy="309.1" fill="#1a2347" rx="4.4" ry="3.2" transform="matrix(.02696 -.9996 .9996 .02696 1201.037 1852.133)" class="color1a2b47 svgShape"></ellipse><ellipse cx="1591.4" cy="308" fill="#1a2347" rx="4.4" ry="3.2" transform="matrix(.02696 -.9996 .9996 .02696 1240.611 1890.57)" class="color1a2b47 svgShape"></ellipse><path fill="#1a2347" d="M1549.5 295.5c0 0 .1-.1.1-.1-.1.1-.2.3-.3.4.4-.5.9-1 1.5-1.4-.1.1-.3.2-.4.3.6-.4 1.2-.8 1.8-1.1-.1.1-.3.1-.4.2.7-.3 1.4-.5 2.1-.6-.2 0-.3 0-.5.1.1 0 .2 0 .3 0 .5-.1 1-.2 1.3-.5.3-.3.6-.9.6-1.3 0-.5-.2-1-.6-1.3-.3-.3-.8-.6-1.3-.5-1.5.2-2.9.5-4.2 1.3-1.3.7-2.3 1.7-3.2 2.9-.3.4-.3 1-.2 1.4.1.4.5.9.9 1.1.4.2 1 .3 1.4.2C1548.9 296.2 1549.2 295.9 1549.5 295.5L1549.5 295.5zM1592.9 291.5c-.1.3-.3.6-.6.8-.3.1-.4.1-.2.1.2 0 .3-.1.5-.1.1 0 .2 0 .2 0 .2 0 .2 0-.1 0 0 0 .3 0 .4 0 .3 0 .7 0 1 0 .2 0 .3 0 .5 0 .1 0 .2 0 .3 0-.3 0-.3 0-.2 0 .6.1 1.2.3 1.8.5.5.2-.3-.1.1 0 .2.1.3.1.5.2.3.2.6.3.9.5.8.6 2.1.2 2.6-.7.5-1 .2-2-.7-2.6-1.5-1-3.3-1.6-5.1-1.8-.9-.1-1.8 0-2.7.1-1.1.2-2.5.6-2.7 1.9-.1.5-.1 1 .2 1.4.2.4.7.8 1.1.9C1591.5 293 1592.8 292.6 1592.9 291.5L1592.9 291.5z" class="color1a2b47 svgShape"></path><path fill="#4f6cdb" d="M1566.3 311.6c.4 1.8.7 3.6.8 5.4.1.8.3 1.8.2 2.5.1.1.1 0 .2-.2-.2.1-.4.1-.6.2-.4.1-.7.1-1.1.2-3.2.6-6.4 1.5-8.3 4.3-1.9 2.7-1.3 6 .8 8.4 2.4 2.6 6 3 9.3 3.4 1 .1 1.9-.9 1.9-1.9 0-1.1-.9-1.8-1.9-1.9-2.5-.3-5.7-.6-7.1-3-1.4-2.3 1.1-4.3 3.1-5 2.5-.8 6.5-.5 7.3-3.6.4-1.5 0-3.3-.2-4.8-.2-1.7-.5-3.4-.8-5.1C1569.5 308.3 1565.8 309.3 1566.3 311.6L1566.3 311.6zM1597.9 337.4c2.6 8.4-1 17.4-8.7 20.9-7.7 3.4-16.8.2-21.4-7.4-.3-.5-.4-1.1-.3-1.6.1-.6.5-1.1 1-1.4l26.6-11.9c.8-.4 1.7 0 2.3.7C1597.7 336.8 1597.9 337.1 1597.9 337.4z" class="colordb5f4f svgShape"></path><path fill="#ffffff" d="M1597.5,336.7c-2.7,3.5-7.2,7-12.9,9.5c-6.3,2.8-12.5,3.8-17.1,3.1c0.1-0.6,0.5-1.1,1-1.4l26.6-11.9
							C1596,335.6,1597,336,1597.5,336.7z" class="colorffffff svgShape"></path><polygon fill="#9fcfff" points="1364.9 282.8 1311.3 580.6 1264.1 572.1 1268.6 547.4 1269.4 542.8 1272.2 527.4 1273 522.9 1275.7 507.6 1276.6 503 1280.5 481.4 1281.3 476.8 1284 461.4 1284.9 456.8 1287.6 441.6 1288.5 437 1293.3 410 1294.1 405.5 1296.9 390.1 1297.7 385.5 1300.5 370.2 1301.3 365.7 1305.1 344 1306 339.5 1308.8 324.1 1309.6 319.6 1312.3 304.2 1313.1 299.6 1317.7 274.3" class="colorffe19f svgShape"></polygon><path fill="#8cc4fd" d="M1368.7,463.3c0,0-11.2-21.1-15.9-27.3c-4.8-6.2-22.8-14-25.7-13.3c-2.9,0.7-3.8,4.8-1.2,9
						c2.6,4.3,9.5,11.3,9.5,11.3l-9,49.1c0,0,7.6,3.8,16.6,2.9C1352.1,493.9,1368.7,466.8,1368.7,463.3z" class="colorfd9e8c svgShape"></path><path fill="#2c3d7e" d="M1516.9,412c0,0-15.7,6.6-24.2,18.5s-40.9,80.8-45.1,81.2c-4.3,0.5-74.6-61.3-81.2-57
						c-6.7,4.3-34.7,47-32.3,50.4c2.4,3.3,103.6,79.8,115.9,81.7c12.4,1.9,25.7,1.9,37.8-7.1c12.1-9,57.2-63.5,57.2-63.5L1516.9,412
						z" class="color2c367e svgShape"></path><path fill="#ffffff" d="M1645.2,632.4h-100.3l5.4-33.5l10.4-64.3l23.2-143.5c0,0,2.8,21.4,20,26.1c17.1,4.8,38.8-26.1,38.8-26.1
						l1.3,131.3l0.8,78.8L1645.2,632.4z" class="colorffffff svgShape"></path><path fill="#e7eef6" d="M1644.9,601.1c-4.2-0.6-8.6-1.1-13.1-1.5c-17.1-1.8-35.8-2.6-55.5-1.9c-4.2,0.2-8.3,0.3-12.3,0.5
						c-4.8,0.2-9.4,0.4-13.7,0.7l10.4-64.3c1.2,0.3,2.5,0.7,4,0.9c6.4,1.5,15.4,2.5,26.8,1.9c12.4-0.7,28-5.5,40.9-10.4
						c4.2-1.6,8.2-3.2,11.7-4.7L1644.9,601.1z" class="colore7ebf6 svgShape"></path><path fill="#0575e6" d="M1583.9 391.1l-.8 4.7c-.8 4.6-2 12.2-3.5 21.7-.3 1.6-.6 3.2-.8 4.9-.3 1.7-.6 3.4-.8 5.2l-.8 5.4c-5 32.5-11.2 76.3-12.5 102.5-.1 2.2-.2 4.2-.2 6.1-.2 10.5-.4 21.4-.4 31.8v.1c-.1 8.7-.1 17.1 0 24.7.1 19.9.4 34.2.4 34.2h-73.1c0 0 3.7-16.4 5.7-29.7.9-6.1 1.5-11.6 1.2-14.5-.5-5.5-5.7-18.4-10-31.4-3-9.5-5.6-19.1-5.4-26.1.3-16.6 20.3-57 27.9-76.5 7.6-19.5 6.1-42.3 6.1-42.3l62-19.4L1583.9 391.1zM1768.7 580.2c-10.8 17-26.1 19.2-36.3 17.9-2.3-.3-4.4-.7-6-1.3-9-2.8-15.6-11.4-15.6-11.4l-.6 29.9-.3 17.2h-76.5c0 0-.9-12.4-1.5-32.8-.2-9.2-.4-20.1-.3-32.2 0-12.3.3-25.9.9-40.4.2-6.2.6-12.6.9-19.1 4.3-69.4 9.4-116.9 9.4-116.9s1.2.4 3.3 1.2c16.3 5.7 87.3 30.9 93.6 40.1C1746.7 442.6 1782 559.2 1768.7 580.2z" class="color535f9b svgShape"></path><path fill="#2c3d7e" d="M1564.7 535.5l-.6 62.7c-23.5 1.2-54.5 3.2-67 4.5.9-6.1 1.5-11.6 1.2-14.5-.5-5.5-5.7-18.4-10-31.4 23.3 3.3 54.4 7.1 59.1 3.9 7.6-5.2 5-29.3 5-29.3S1559.1 534 1564.7 535.5zM1734.5 579.7l-2.1 18.4c-2.3-.3-4.4-.7-6-1.3-9-2.8-15.6-11.4-15.6-11.4l-.6 29.9c-14.9-4.6-50.7-11.9-78.4-15.6l.6-73.8c8.2-3.5 25.2-9.6 25.2-9.6l-8.2 34c0 0 20 7.1 28.9 1.5 8.8-5.7.4-22.8.4-22.8L1734.5 579.7z" class="color2c367e svgShape"></path><path fill="#a8c0d8" d="M1583.9 391.1c0 0-18.5 108.3-19.5 150.6-.2 10.5-.4 21.4-.4 31.8-13.2-35.1-21.4-94-18.6-100.6 2.8-6.6 14.7-10.4 15.2-12.8.5-2.3-14.7-22.3-15.2-27.5-.3-3.7 20.8-26.5 33.5-39.8L1583.9 391.1zM1667.3 485.1c-.2 7-17.4 58.1-35.8 82.3 0-17.6.6-37.8 1.8-59.4 4.3-69.4 9.4-116.9 9.4-116.9s1.2.4 3.3 1.2c9 20.6 23 54.3 21 58.2-2.8 5.7-14 13.8-14 13.8S1667.4 477.1 1667.3 485.1z" class="colora8b7d8 svgShape"></path><path fill="#8cc4fd" d="M1712.5,478.7l-30.8,29.8c0,0-8.8-6.8-10.4-8.4c-1.5-1.6-12.8-5.7-16.9-8.2c-2.8-1.8-6.7-3.8-9.8-6.8
						c-1.4-1.3-2.7-2.9-3.6-4.8c-2.9-5.9,0.4-7.2,0.4-7.2s-2.3-1.8-3.4-6.4c-1.1-4.7,3-9,3-9s-0.4-2.7,0-7.6
						c0.4-4.9,7.4-7.3,7.4-7.3v-1.3c0,0,6.4-6.4,8.2-6.4c0.7,0,3.4,1.2,6.5,2.6c5,2.3,11,5.2,11,5.2c-0.5-1.9-8-12.8-11.1-18.8
						c-3.1-6-5.1-8.6-5.5-12.9c-0.4-4.3,5.9-2,12,2.1c6.1,4.1,22.3,26,25.5,31C1698.1,449.3,1712.5,478.7,1712.5,478.7z" class="colorfd9e8c svgShape"></path><path fill="#4f6cdb" d="M1663,437.8c-5.1,6.5-18.6,25.6-18.5,47.3c-1.4-1.3-2.7-2.9-3.6-4.8c-2.9-5.9,0.4-7.2,0.4-7.2
						s-2.3-1.8-3.4-6.4c-1.1-4.7,3-9,3-9s-0.4-2.7,0-7.6c0.4-4.9,7.4-7.3,7.4-7.3v-1.3c0,0,6.4-6.4,8.2-6.4
						C1657.2,435.2,1659.9,436.4,1663,437.8z" class="colordb5f4f svgShape"></path><path fill="#86a6c6" d="M1705,583.9c0,0-32.7-54-35-61.7c-2.3-7.8,3.9-18.3,10.9-24.1c7-5.8,32.3-27.6,38.5-23.3
						c6.2,4.3,51.4,61.9,54.1,80.6s-7,41.2-26.9,44.8C1726.7,603.5,1715.1,595.5,1705,583.9z" class="color869dc6 svgShape"></path><g fill="#000000" class="color000000 svgShape"><polygon fill="#62aefa" points="1324.6 301.7 1323.7 306.3 1312.3 304.2 1313.1 299.6" class="colorfaae62 svgShape"></polygon><polygon fill="#62aefa" points="1319.5 321.3 1318.8 325.9 1308.8 324.1 1309.6 319.6" class="colorfaae62 svgShape"></polygon><polygon fill="#62aefa" points="1314.1 340.9 1313.3 345.5 1305.1 344 1306 339.5" class="colorfaae62 svgShape"></polygon><polygon fill="#62aefa" points="1310.3 367.3 1309.5 371.8 1300.5 370.2 1301.3 365.7" class="colorfaae62 svgShape"></polygon><rect width="4.7" height="7.7" x="1298.8" y="384.6" fill="#62aefa" transform="rotate(-79.636 1301.089 388.447)" class="colorfaae62 svgShape"></rect><polygon fill="#62aefa" points="1299.8 406.5 1299.1 411 1293.3 410 1294.1 405.5" class="colorfaae62 svgShape"></polygon><g fill="#000000" class="color000000 svgShape"><polygon fill="#62aefa" points="1297.3 438.3 1296.7 442.9 1287.6 441.6 1288.5 437" class="colorfaae62 svgShape"></polygon><polygon fill="#62aefa" points="1292.9 458 1292.2 462.7 1284 461.4 1284.9 456.8" class="colorfaae62 svgShape"></polygon><polygon fill="#62aefa" points="1288 477.8 1287.3 482.4 1280.5 481.4 1281.3 476.8" class="colorfaae62 svgShape"></polygon><polygon fill="#62aefa" points="1285 504.3 1284.3 508.8 1275.7 507.6 1276.6 503" class="colorfaae62 svgShape"></polygon><polygon fill="#62aefa" points="1280.6 524 1279.9 528.6 1272.2 527.4 1273 522.9" class="colorfaae62 svgShape"></polygon><polygon fill="#62aefa" points="1275.7 543.8 1275 548.4 1268.6 547.4 1269.4 542.8" class="colorfaae62 svgShape"></polygon></g></g><path fill="#8cc4fd" d="M1292.5,416.3c0,0-28.1-13.6-30.2-10.4s-3.5,7.4,0,10.4c3.5,3,26.8,15.8,26.8,15.8s-7.8,2.1-9.2,5.4
						s0,6.7,0,6.7s-5.4,2.5-5.8,6.1s2.3,8.5,2.3,8.5s-4.2,4.4-3,9.5s3.5,8.4,10.3,12.5c6.8,4.1,11.5,0.2,11.4-2.3
						c-0.1-2.5-2.1-4.8-2.1-4.8s7.3,2.8,10.2,1c2.9-1.7,4.8-3.9,3.9-8.1c-0.9-4.2-4.6-10.2-4.6-10.2s7.5,5.8,10.7,3.6
						s2.2-8.3-1.5-14.4c-3.6-6.1-22.6-13.4-22.6-13.4L1292.5,416.3z" class="colorfd9e8c svgShape"></path><g fill="#000000" class="color000000 svgShape"><path fill="#4f6cdb" d="M1301 457.5c-7.3-9.1-21.3-11.5-21.5-11.5l.6-3.4c.6.1 15.4 2.7 23.6 12.7L1301 457.5zM1291.5 474.7c-5.4-7.5-16-14.4-16.1-14.5l1.9-2.9c.5.3 11.3 7.3 17.1 15.3L1291.5 474.7z" class="colordb5f4f svgShape"></path></g><path fill="#f5f9fd" d="M1253.3,540h-37.1L1142,410.8v-75c0-1.5-1.2-2.8-2.8-2.8s-2.8,1.2-2.8,2.8v209.8h116.8
					c1.5,0,2.8-1.2,2.8-2.8C1256.1,541.3,1254.8,540,1253.3,540z M1142,422l67.7,118H1142V422z" class="colorf5f8fd svgShape"></path><g fill="#000000" class="color000000 svgShape"><path fill="#9fcfff" d="M1218.4 290.4c-4.8 0-10.1-.6-16.4-2.4-25.6-7-36.2-.4-36.3-.4-1.2.8-2.9.5-3.7-.8-.8-1.2-.5-2.9.7-3.7.5-.3 12.4-8.1 40.7-.4 14.7 4 23.6 1.7 33.1-.8 7.5-2 15.2-4 25.7-2.6 1.5.2 2.5 1.5 2.3 3-.2 1.5-1.6 2.5-3 2.3-9.5-1.2-16.4.6-23.7 2.5C1231.9 288.8 1225.8 290.4 1218.4 290.4zM1218.4 315c-4.8 0-10.1-.6-16.4-2.4-25.6-7-36.2-.4-36.3-.4-1.2.8-2.9.5-3.7-.8-.8-1.2-.5-2.9.7-3.7.5-.3 12.4-8.1 40.7-.4 14.7 4 23.6 1.7 33.1-.8 7.5-2 15.2-4 25.7-2.6 1.5.2 2.5 1.5 2.3 3-.2 1.5-1.6 2.5-3 2.3-9.5-1.2-16.4.6-23.7 2.5C1231.9 313.4 1225.8 315 1218.4 315zM1206.7 362.2c-3.9 0-8.2-.6-13.2-2.4-19.5-6.8-27.5-.6-27.6-.5-1.1 1-2.8.8-3.8-.3-1-1.1-.8-2.8.3-3.8.4-.4 10.1-8.4 32.8-.5 11.2 3.9 18.1 1.6 25.3-.8 6-2 12.2-4.1 20.7-2.6 1.5.2 2.4 1.6 2.2 3.1-.2 1.5-1.6 2.4-3.1 2.2-7.2-1.2-12.5.6-18.1 2.4C1217.7 360.6 1212.8 362.2 1206.7 362.2z" class="colorffe19f svgShape"></path></g><circle cx="1416.2" cy="379.5" r="31.8" fill="#9fcfff" class="colorffe19f svgShape"></circle><circle cx="1418.9" cy="299.1" r="17.4" fill="#f5f9fd" class="colorf5f8fd svgShape"></circle><g fill="#000000" class="color000000 svgShape"><path fill="#62aefa" d="M1859,108.3h-126.8c-10.9,0-19.7,8.8-19.7,19.7v63.3c0,10.9,8.8,19.7,19.7,19.7h4.7v23.2
					c0,3.8,4.3,6.1,7.5,4l40.7-27.2h73.9c10.9,0,19.7-8.8,19.7-19.7v-63.3C1878.7,117.2,1869.9,108.3,1859,108.3z" class="colorfaae62 svgShape"></path><circle cx="1762.5" cy="158.9" r="8.4" fill="#ffffff" class="colorffffff svgShape"></circle><circle cx="1795.6" cy="158.9" r="8.4" fill="#ffffff" class="colorffffff svgShape"></circle><circle cx="1828.7" cy="158.9" r="8.4" fill="#ffffff" class="colorffffff svgShape"></circle></g><g fill="#000000" class="color000000 svgShape"><path fill="#0575e6" d="M1979.5,508.3H1790c-1.5,0-2.7-1.2-2.7-2.7V302.9c0-1.5,1.2-2.7,2.7-2.7h189.6c1.5,0,2.7,1.2,2.7,2.7v202.7
					C1982.3,507.1,1981,508.3,1979.5,508.3z" class="color535f9b svgShape"></path><path fill="#f5f9fd" d="M1974.7,503.2h-179.9c-1.5,0-2.7-1.2-2.7-2.7V308.1c0-1.5,1.2-2.7,2.7-2.7h179.9c1.5,0,2.7,1.2,2.7,2.7
					v192.3C1977.4,501.9,1976.2,503.2,1974.7,503.2z" class="colorf5f8fd svgShape"></path><path fill="#c2d5e9" d="M1932.2,415.4c-0.9,29.4-25,53-54.6,53c-30.2,0-54.6-24.5-54.6-54.6c0-29.9,24.1-54.2,54-54.6v56.2
							H1932.2z" class="colorc2d2e9 svgShape"></path><path fill="#0575e6" d="M1946.5,397.2c0,0.6,0,1.1,0,1.7h-55.2v-56.2h0.6C1922,342.6,1946.5,367,1946.5,397.2z" class="color535f9b svgShape"></path></g><g fill="#000000" class="color000000 svgShape"><path fill="#0575e6" d="M1187.1,360.4H979.6c-1.5,0-2.7-1.2-2.7-2.7V221.2c0-1.5,1.2-2.7,2.7-2.7h207.6c1.5,0,2.7,1.2,2.7,2.7
					v136.5C1189.9,359.2,1188.6,360.4,1187.1,360.4z" class="color535f9b svgShape"></path><path fill="#f5f9fd" d="M1182.5,355.8H984.2c-1.5,0-2.7-1.2-2.7-2.7V225.8c0-1.5,1.2-2.7,2.7-2.7h198.3c1.5,0,2.7,1.2,2.7,2.7
					v127.3C1185.2,354.6,1184,355.8,1182.5,355.8z" class="colorf5f8fd svgShape"></path><path fill="#86a6c6" d="M1035.4,244.4c0,30,0,60,0,90c0,1.9,3,1.9,3,0c0-30,0-60,0-90C1038.4,242.5,1035.4,242.5,1035.4,244.4
							L1035.4,244.4z" class="color869dc6 svgShape"></path><path fill="#86a6c6" d="M1013,315.9c36,0,72,0,107.9,0c10.2,0,20.5,0,30.7,0c1.9,0,1.9-3,0-3c-36,0-72,0-107.9,0
							c-10.2,0-20.5,0-30.7,0C1011.1,312.9,1011.1,315.9,1013,315.9L1013,315.9z" class="color869dc6 svgShape"></path><path fill="#86a6c6" d="M1014.9,247.6c9.9,19,24,35.8,41,49.2c17.1,13.4,37,23.4,58.2,28.6c15,3.7,30.4,5.2,45.7,6.8
							c1.9,0.2,1.9-2.8,0-3c-13.5-1.3-27-2.7-40.3-5.6c-10.8-2.4-21.3-5.8-31.3-10.5c-19.2-8.9-36.5-21.8-50.4-37.6
							c-7.9-8.9-14.7-18.8-20.1-29.4C1016.7,244.4,1014.1,245.9,1014.9,247.6L1014.9,247.6z" class="color869dc6 svgShape"></path></g><g fill="#000000" class="color000000 svgShape"><path fill="#c2d5e9" d="M816.1,336.5v563.1c0,17.8-14.4,32.1-32.1,32.1H139.7c-17.7,0-32.1-14.3-32.1-32.1V336.5
				c0-17.7,14.4-32.1,32.1-32.1H784C801.7,304.4,816.1,318.8,816.1,336.5z" class="colorc2d2e9 svgShape"></path><path fill="#f5f9fd" d="M798.2,351.8v532.7c0,16.8-13.7,30.4-30.5,30.4H156c-16.8,0-30.5-13.6-30.5-30.4V351.8
				c0-16.8,13.7-30.4,30.5-30.4h611.6C784.5,321.4,798.2,335,798.2,351.8z" class="colorf5f8fd svgShape"></path><path fill="#e7eef6" d="M180.8,406.8h68.8c0,0,0.3,33.6,4.4,50.5c4.1,17,11.2,44.4,11.2,44.4h-80.7
				C184.6,501.7,171.3,437.7,180.8,406.8z" class="colore7ebf6 svgShape"></path><circle cx="213.7" cy="418.7" r="5.1" fill="#c2d5e9" class="colorc2d2e9 svgShape"></circle><path fill="#a8c0d8" d="M190.4,596.2h68.8c0,0,0.3,33.6,4.4,50.5c4.1,17,11.2,44.4,11.2,44.4h-80.7
				C194.2,691.1,180.9,627,190.4,596.2z" class="colora8b7d8 svgShape"></path><circle cx="223.3" cy="608" r="5.1" fill="#0575e6" class="color535f9b svgShape"></circle><path fill="#e7eef6" d="M320.9,626.4h68.8c0,0,0.3,33.6,4.4,50.5c4.1,17,11.2,44.4,11.2,44.4h-80.7
				C324.6,721.3,311.4,657.3,320.9,626.4z" class="colore7ebf6 svgShape"></path><circle cx="353.8" cy="638.3" r="5.1" fill="#c2d5e9" class="colorc2d2e9 svgShape"></circle><path fill="#c2d5e9" d="M433.9,726.7h50.8c0,0,0.3,24.8,3.3,37.3c3,12.5,8.3,32.8,8.3,32.8h-59.6
				C436.6,796.9,426.9,749.5,433.9,726.7z" class="colorc2d2e9 svgShape"></path><circle cx="458.2" cy="735.5" r="3.8" fill="#a8c0d8" class="colora8b7d8 svgShape"></circle><path fill="#c2d5e9" d="M172.8,743.4h50.8c0,0,0.3,24.8,3.3,37.3s8.3,32.8,8.3,32.8h-59.6C175.6,813.5,165.8,766.1,172.8,743.4z" class="colorc2d2e9 svgShape"></path><circle cx="197.1" cy="752.1" r="3.8" fill="#a8c0d8" class="colora8b7d8 svgShape"></circle><path fill="#c2d5e9" d="M302.2,378.5h50.8c0,0,0.3,24.8,3.3,37.3c3,12.5,8.3,32.8,8.3,32.8H305C305,448.6,295.2,401.3,302.2,378.5z" class="colorc2d2e9 svgShape"></path><circle cx="326.5" cy="387.3" r="3.8" fill="#a8c0d8" class="colora8b7d8 svgShape"></circle><path fill="#c2d5e9" d="M247.7,546.8h68.8c0,0,0.3,33.6,4.4,50.5c4.1,17,11.2,44.4,11.2,44.4h-80.7
				C251.5,641.7,238.2,577.7,247.7,546.8z" class="colorc2d2e9 svgShape"></path><circle cx="280.6" cy="558.7" r="5.1" fill="#a8c0d8" class="colora8b7d8 svgShape"></circle><rect width="318.3" height="186.7" x="397.5" y="365.8" fill="#ffffff" class="colorffffff svgShape"></rect><circle cx="429.8" cy="388.9" r="5.8" fill="#c2d5e9" class="colorc2d2e9 svgShape"></circle><circle cx="690.9" cy="388.9" r="5.8" fill="#c2d5e9" class="colorc2d2e9 svgShape"></circle><rect width="117.1" height="5.1" x="426.9" y="418.7" fill="#c2d5e9" class="colorc2d2e9 svgShape"></rect><rect width="117.1" height="5.1" x="426.9" y="436.8" fill="#e7eef6" class="colore7ebf6 svgShape"></rect><rect width="117.1" height="5.1" x="426.9" y="454.8" fill="#c2d5e9" class="colorc2d2e9 svgShape"></rect><rect width="97.9" height="5.1" x="580.3" y="429.6" fill="#c2d5e9" class="colorc2d2e9 svgShape"></rect><rect width="97.9" height="5.1" x="580.3" y="449.5" fill="#e7eef6" class="colore7ebf6 svgShape"></rect><rect width="97.9" height="5.1" x="580.3" y="519.5" fill="#c2d5e9" class="colorc2d2e9 svgShape"></rect><rect width="97.9" height="5.1" x="580.3" y="501.7" fill="#c2d5e9" class="colorc2d2e9 svgShape"></rect><rect width="117.1" height="5.1" x="447.2" y="472.9" fill="#c2d5e9" class="colorc2d2e9 svgShape"></rect><rect width="117.1" height="5.1" x="426.9" y="491" fill="#c2d5e9" class="colorc2d2e9 svgShape"></rect><rect width="117.1" height="5.1" x="426.9" y="509.1" fill="#e7eef6" class="colore7ebf6 svgShape"></rect></g><g fill="#000000" class="color000000 svgShape"><path fill="#f5f9fd" d="M1958.4,1540.3v129.8c0,19.3-17.4,35-39,35h-332.8c-21.5,0-39-15.7-39-35v-129.8c0-19.3,17.4-35,39-35
					h332.8C1941,1505.3,1958.4,1520.9,1958.4,1540.3z" class="colorf5f8fd svgShape"></path><path fill="#a8c0d8" d="M1926.9,1704.3v14.3c0,9.2-8.4,16.7-18.6,16.7h-310.5c-10.3,0-18.6-7.5-18.6-16.7v-14.3H1926.9z" class="colora8b7d8 svgShape"></path><path fill="#e7eef6" d="M1958.4,1664v6.1c0,19.3-17.4,35-39,35h-332.8c-21.5,0-39-15.7-39-35v-129.8c0-19.3,17.4-35,39-35H1753
					v136.6c0,12.2,11,22.1,24.7,22.1H1958.4z" class="colore7ebf6 svgShape"></path><path fill="#86a6c6" d="M1898.5 1831.5h-37.7c-1 0-1.8-.8-1.8-1.8v-94.4h41.4v94.4C1900.4 1830.7 1899.5 1831.5 1898.5 1831.5zM1646.4 1831.5h-37.7c-1 0-1.8-.8-1.8-1.8v-94.4h41.4v94.4C1648.2 1830.7 1647.4 1831.5 1646.4 1831.5z" class="color869dc6 svgShape"></path><g fill="#000000" class="color000000 svgShape"><path fill="#c2d5e9" d="M1703.8,1096.4c0,0,5.5-43.4,23.4-47.2c17.9-3.8,68.3-4.4,79.1,9.4s14.1,52.3,14.1,52.3h-16.8
					c0,0-4.3-41.6-19-45.4s-50.4-6.3-53.6,1.9s-7.6,40.3-7.6,40.3L1703.8,1096.4z" class="colorc2d2e9 svgShape"></path><path fill="#e7eef6" d="M1923.8,1313.8c-2.7-19.5-30.3-27.1-30.3-27.1s-2.2-130.4-20-158.8c-17.9-28.3-141.9-39.1-181-29.6
					c-39,9.5-53.1,21.4-53.1,21.4s-41.7,43.5-49.8,63c-8.1,19.5-21.1,241.3-19,270.2c2.2,29,11.4,53.9,11.4,53.9s310.9,0,312.6,0
					c1.6,0,13.6-6,24.9-24.9C1930.9,1463.1,1926.5,1333.2,1923.8,1313.8z M1629.2,1477.5c-1.7,4.4-11.4,3.2-19,0
					c-7.6-3.1-10.8-25.8-13-48.5c-2.2-22.6,3.8-221.1,6.5-233.7c2.7-12.7,28.7-39.1,28.7-39.1S1630.8,1473.1,1629.2,1477.5z" class="colore7ebf6 svgShape"></path><path fill="#c2d5e9" d="M1893.5,1286.7c0,0-105.6-14.5-131.1,3.8c-25.5,18.3-20.9,38.4-23.2,67.4c-2.3,29,0.7,130.4,0,130.4
					c-0.7,0-5-1.3-6.6-5c-1.6-3.8-4.7-151.1,6.6-182.3C1750.5,1269.6,1830.7,1265.3,1893.5,1286.7z" class="colorc2d2e9 svgShape"></path><rect width="72" height="31.5" x="1755.4" y="1177.7" fill="#c2d5e9" class="colorc2d2e9 svgShape"></rect><path fill="#c2d5e9" d="M1861.4,1348l-16.2,18.9c-1.7,2-4.5,2-6.2,0l-16.2-18.9c-1.7-2-1.7-5.2,0-7.2l16.2-18.9c1.7-2,4.5-2,6.2,0
					l16.2,18.9C1863.1,1342.8,1863.1,1346,1861.4,1348z" class="colorc2d2e9 svgShape"></path></g></g><g fill="#000000" class="color000000 svgShape"><rect width="30.6" height="770.8" x="1300.1" y="1060.8" fill="#86a6c6" class="color869dc6 svgShape"></rect><rect width="44" height="770.8" x="1330.7" y="1060.8" fill="#a8c0d8" class="colora8b7d8 svgShape"></rect></g><g fill="#000000" class="color000000 svgShape"><path fill="#c2d5e9" d="M1305.4,931.8v18c0,3.9-1.1,7.3-2.9,10.1c-2.4,3.5-5.9,5.8-10,5.8H1071c-4,0-7.6-2.2-10-5.8
					c-1.8-2.7-2.9-6.2-2.9-10.1v-18c0-3.9,1.1-7.4,3-10.2c2.4-3.5,5.9-5.7,9.9-5.7h221.6c4,0,7.5,2.2,9.9,5.7
					C1304.3,924.4,1305.4,927.9,1305.4,931.8z" class="colorc2d2e9 svgShape"></path><path fill="#e7eef6" d="M1199,919.8v10.5c0,9.8-6.5,17.8-14.5,17.8h-122.9c-1.2,0-2.4-0.2-3.5-0.5v-15.9c0-3.9,1.1-7.4,3-10.2
					c2.4-3.5,5.9-5.7,9.9-5.7h127.7C1198.9,917.2,1199,918.5,1199,919.8z" class="colore7ebf6 svgShape"></path><rect width="13.4" height="38.2" x="1079.5" y="921.6" fill="#ffffff" class="colorffffff svgShape"></rect><rect width="7.4" height="38.2" x="1099.8" y="921.6" fill="#ffffff" class="colorffffff svgShape"></rect><rect width="13.4" height="5.7" x="1079.5" y="916" fill="#ffffff" class="colorffffff svgShape"></rect><path fill="#ffffff" d="M1071,916h8.5v5.7h-18.4C1063.5,918.2,1067,916,1071,916z" class="colorffffff svgShape"></path><rect width="7.4" height="5.7" x="1099.8" y="916" fill="#ffffff" class="colorffffff svgShape"></rect><rect width="6.9" height="5.7" x="1092.9" y="916" fill="#ffffff" class="colorffffff svgShape"></rect><path fill="#ffffff" d="M1302.4,921.6h-195.2V916h185.3C1296.5,916,1300.1,918.2,1302.4,921.6z" class="colorffffff svgShape"></path><rect width="13.4" height="5.8" x="1079.5" y="959.8" fill="#c2d5e9" class="colorc2d2e9 svgShape"></rect><path fill="#a8c0d8" d="M1061,959.8h18.5v5.8h-8.5C1067,965.6,1063.4,963.3,1061,959.8z" class="colora8b7d8 svgShape"></path><rect width="7.4" height="5.8" x="1099.8" y="959.8" fill="#c2d5e9" class="colorc2d2e9 svgShape"></rect><rect width="6.9" height="5.8" x="1092.9" y="959.8" fill="#a8c0d8" class="colora8b7d8 svgShape"></rect><path fill="#a8c0d8" d="M1302.5,959.8c-2.4,3.5-5.9,5.8-10,5.8h-185.3v-5.8H1302.5z" class="colora8b7d8 svgShape"></path><g fill="#000000" class="color000000 svgShape"><path fill="#a8c0d8" d="M1036.4,1017.8c1.4,0.3,2.9,0.5,4.4,0.5h237.8c5.2,0,9.9-2,13-5.3c2.5-2.5,4-5.8,4-9.4v-23.8
					c0-8.1-7.6-14.7-17-14.7h-237.8c-1.5,0-3,0.2-4.4,0.5c-3.2,0.7-2.5,4.8,0.8,4.8h3.6v42.6h-3.6
					C1033.9,1013,1033.3,1017,1036.4,1017.8z" class="colora8b7d8 svgShape"></path><path fill="#e7eef6" d="M1040.8,1013h-3.6c-3.3,0-3.9,4-0.8,4.8c1.4,0.3,2.9,0.5,4.4,0.5h94.9c9.4,0,17-6.6,17-14.7v-23.8
					c0-8.1-7.6-14.7-17-14.7h-94.9c-1.5,0-3,0.2-4.4,0.5c-3.2,0.7-2.5,4.8,0.8,4.8h3.6V1013z" class="colore7ebf6 svgShape"></path><path fill="#ffffff" d="M1146.6,979.8v23.8c0,0.8-0.1,1.6-0.3,2.3c-0.1,0.4-0.2,0.7-0.4,1c-1.6,3.5-5.5,6-10.2,6h-94.9v-42.6h94.9
					c4.6,0,8.6,2.5,10.2,6c0.2,0.3,0.3,0.7,0.4,1C1146.5,978.2,1146.6,979,1146.6,979.8z" class="colorffffff svgShape"></path><path fill="#c2d5e9" d="M1040.8,976.4v1h105.5c-0.1-0.4-0.2-0.7-0.4-1H1040.8z" class="colorc2d2e9 svgShape"></path><rect width="105.8" height="1" x="1040.8" y="986.3" fill="#c2d5e9" class="colorc2d2e9 svgShape"></rect><rect width="105.8" height="1" x="1040.8" y="996.1" fill="#c2d5e9" class="colorc2d2e9 svgShape"></rect><path fill="#c2d5e9" d="M1040.8,1005.9v1h105.1c0.2-0.3,0.3-0.7,0.4-1H1040.8z" class="colorc2d2e9 svgShape"></path><path fill="#62aefa" d="M1053.8,977.5v25.2c0,1,0.8,1.6,1.5,1l5.2-4.3c0.3-0.3,0.7-0.3,1,0l5.2,4.3c0.6,0.5,1.5-0.1,1.5-1.1v-25.2
					H1053.8z" class="colorfaae62 svgShape"></path><rect width="7" height="53.1" x="1260.5" y="965.1" fill="#c2d5e9" class="colorc2d2e9 svgShape"></rect><rect width="9.9" height="53.1" x="1240" y="965.1" fill="#c2d5e9" class="colorc2d2e9 svgShape"></rect><g fill="#000000" class="color000000 svgShape"><path fill="#c2d5e9" d="M1267.5 965.1v25.4c11.3-2.1 21-5.5 28.2-9.8v-1c0-8.1-7.6-14.7-17-14.7H1267.5zM1249.8 965.1v27.6c3.6-.2 7.2-.6 10.6-1v-26.6H1249.8zM1171.3 965.1c2.1 15.6 32.1 27.9 68.7 27.9v-27.9H1171.3z" class="colorc2d2e9 svgShape"></path></g><g fill="#000000" class="color000000 svgShape"><path fill="#e7eef6" d="M1267.5 965.1h-7v26.6c2.4-.3 4.7-.7 7-1.1V965.1zM1240 965.1V993c3.3 0 6.6-.1 9.9-.3v-27.6H1240z" class="colore7ebf6 svgShape"></path></g><path fill="#86a6c6" d="M1146.6,979.8v23.8c0,0.8-0.1,1.6-0.3,2.3c-0.1,0.4-0.2,0.7-0.4,1c-1.6,3.5-5.5,6-10.2,6h-94.9v-3.7h83.2
					c4.9,0,8.9-3.7,8.9-8.2v-16.5c0-4.5-4-8.2-8.9-8.2h-83.2v-6h94.9c4.6,0,8.6,2.5,10.2,6c0.2,0.3,0.3,0.7,0.4,1
					C1146.5,978.2,1146.6,979,1146.6,979.8z" opacity=".42" class="color869dc6 svgShape"></path></g><g fill="#000000" class="color000000 svgShape"><path fill="#a8c0d8" d="M1256.2,918.9c-1.2,0.3-2.5,0.4-3.8,0.4h-203.5c-4.5,0-8.5-1.6-11.2-4.2c-2.1-2-3.4-4.6-3.4-7.5v-18.9
					c0-6.4,6.5-11.7,14.5-11.7h203.5c1.3,0,2.6,0.1,3.8,0.4c2.7,0.6,2.1,3.8-0.6,3.8h-3.1v33.8h3.1
					C1258.3,915.2,1258.9,918.4,1256.2,918.9z" class="colora8b7d8 svgShape"></path><path fill="#e7eef6" d="M1252.4,915.2h3.1c2.8,0,3.3,3.2,0.6,3.8c-1.2,0.3-2.5,0.4-3.8,0.4h-81.2c-8,0-14.6-5.2-14.6-11.7v-18.9
					c0-6.4,6.5-11.7,14.6-11.7h81.2c1.3,0,2.6,0.1,3.8,0.4c2.7,0.6,2.1,3.8-0.6,3.8h-3.1V915.2z" class="colore7ebf6 svgShape"></path><path fill="#ffffff" d="M1161.9,888.8v18.9c0,0.6,0.1,1.3,0.3,1.8c0.1,0.3,0.2,0.6,0.3,0.8c1.3,2.8,4.7,4.8,8.7,4.8h81.2v-33.8
					h-81.2c-4,0-7.4,2-8.7,4.8c-0.1,0.3-0.2,0.5-0.3,0.8C1162,887.5,1161.9,888.2,1161.9,888.8z" class="colorffffff svgShape"></path><path fill="#c2d5e9" d="M1252.4,886.1v0.8h-90.3c0.1-0.3,0.2-0.6,0.3-0.8H1252.4z" class="colorc2d2e9 svgShape"></path><rect width="90.6" height=".8" x="1161.9" y="893.9" fill="#c2d5e9" class="colorc2d2e9 svgShape"></rect><rect width="90.6" height=".8" x="1161.9" y="901.7" fill="#c2d5e9" class="colorc2d2e9 svgShape"></rect><path fill="#c2d5e9" d="M1252.4,909.5v0.8h-90c-0.1-0.3-0.2-0.5-0.3-0.8H1252.4z" class="colorc2d2e9 svgShape"></path><path fill="#62aefa" d="M1241.3,887v20c0,0.8-0.7,1.3-1.3,0.8l-4.5-3.4c-0.3-0.2-0.6-0.2-0.9,0l-4.5,3.4c-0.6,0.4-1.3-0.1-1.3-0.8
					v-20H1241.3z" class="colorfaae62 svgShape"></path><rect width="6" height="42.2" x="1058.5" y="877.1" fill="#c2d5e9" class="colorc2d2e9 svgShape"></rect><rect width="8.4" height="42.2" x="1073.6" y="877.1" fill="#c2d5e9" class="colorc2d2e9 svgShape"></rect><g fill="#000000" class="color000000 svgShape"><path fill="#c2d5e9" d="M1058.5 877.1v20.2c-9.7-1.7-18-4.4-24.1-7.8v-.8c0-6.4 6.5-11.7 14.5-11.7H1058.5zM1073.6 877.1v21.9c-3.1-.2-6.2-.5-9.1-.8v-21.1H1073.6zM1140.8 877.1c-1.8 12.4-27.4 22.2-58.8 22.2v-22.2H1140.8z" class="colorc2d2e9 svgShape"></path></g><g fill="#000000" class="color000000 svgShape"><path fill="#e7eef6" d="M1058.5 877.1h6v21.1c-2-.3-4-.6-6-.9V877.1zM1082 877.1v22.2c-2.9 0-5.7-.1-8.4-.2v-21.9H1082z" class="colore7ebf6 svgShape"></path></g><path fill="#86a6c6" d="M1161.9,888.8v18.9c0,0.6,0.1,1.3,0.3,1.8c0.1,0.3,0.2,0.6,0.3,0.8c1.3,2.8,4.7,4.8,8.7,4.8h81.2v-2.9
					h-71.2c-4.2,0-7.6-2.9-7.6-6.5v-13.1c0-3.6,3.4-6.5,7.6-6.5h71.2v-4.8h-81.2c-4,0-7.4,2-8.7,4.8c-0.1,0.3-0.2,0.5-0.3,0.8
					C1162,887.5,1161.9,888.2,1161.9,888.8z" opacity=".42" class="color869dc6 svgShape"></path></g></g><g fill="#000000" class="color000000 svgShape"><polygon fill="#86a6c6" points="1032.7 1228.4 1077.4 1831.5 1110 1831.5 1087.8 1228.4" class="color869dc6 svgShape"></polygon><rect width="490" height="61" x="610.7" y="1167.4" fill="#a8c0d8" class="colora8b7d8 svgShape"></rect><path fill="#c2d5e9" d="M932.5,1167.4H610.7c0,0-77.8-399.6-48.9-445.9c29-46.3,176.3-59.7,180-60.3c8.4-1.4,16.9,2,25.5,9.4
						C848.6,740.9,932.5,1167.4,932.5,1167.4z" class="colorc2d2e9 svgShape"></path><path fill="#86a6c6" d="M932.5,1167.4H634.1c-11.5-60.7-73.4-394.4-47.1-436.5c29-46.3,176.3-59.7,180-60.2
							c0.1,0,0.2-0.1,0.3-0.1C848.6,740.9,932.5,1167.4,932.5,1167.4z" class="color869dc6 svgShape"></path><path fill="#8cc4fd" d="M1312.7 1587.4c0 0 8.9 71.4 18.3 92.7 9.4 21.2 34.7 25.8 51.5 32.1s22.3 5.9 42.1 6.8 20.3 9 36.2-1.4 19.8-8.1 21.3-2.3c1.5 5.9-2.5 16.7-7.9 19.9s-12.4 5-18.8 8.6c-6.4 3.6-30 19-55.1 26.7-25.1 7.7-18.7-2.3-52.8 10.4-34.2 12.7-65.4 24.9-76.8 2.7-11.4-22.2 7.9-59.7 7.4-84.5-.5-24.9-31.7-92.7-31.7-92.7L1312.7 1587.4zM925.4 1601.9c0 0-36.2 72.3-37.1 87.7-1 15.4-3 61.9 4 83.2 6.9 21.2 11.9 31.2 19.8 37.5s17.3 14 8.9 21.2h-88.2c0 0-35.7-42-49.5-65.1-13.9-23.1-20.3-27.1-16.3-39.3 4-12.2 21.8-32.1 41.1-45.2 19.3-13.1 56.5-108.8 56.5-108.8L925.4 1601.9z" class="colorfd9e8c svgShape"></path><path fill="#0575e6" d="M1317.1,1604.4c-1.5,6.7-59.4,12.2-67.6,10.8c-8.1-1.4-9.7-19-26-58.3c-16.4-39.4-44.6-76-64.6-133.6
					c-1.2-3.3-2.2-6.6-3.3-10c-16.9-55.7-17.9-121.1-17.9-121.1s-206.4,319.2-212.4,320.1c-5.9,0.9-63.4-22.6-69.4-29.9
					c-5.9-7.2,4-14.4,13-36.2c9-21.7,30.6-76,63.3-175.5c32.7-99.5,92.1-163.6,92.1-168.5c0-4.9-219.9-21.2-276.4-46.5
					c-56.5-25.3-26.7-123.7-26.7-123.7c125.2-3.5,265.6,3.2,365.1,11.5c74,6.2,125.5,13.1,131.2,17.3c1.7,1.2,4.5,10.5,8.1,25.8
					C1251.4,1193.9,1318.4,1598.4,1317.1,1604.4z" class="color535f9b svgShape"></path><path fill="#2c3d7e" d="M1175,1088.3c-5.9,4.1,31.7,40.2,33.7,71.9c2,31.7-40.9,71.4-54.5,136.5c-5.3,25.4-3.1,70.8,1.5,116.5
					c-16.9-55.7-17.9-121.1-17.9-121.1s59.1-115.1,59.8-132c0.8-16.9-8.9-36.6-21.5-48.1c-12.6-11.5-121.8-51.3-121.8-51.3
					s10.1-8,32.2-17.3c74,6.2,125.5,13.1,131.2,17.3c1.7,1.2,4.5,10.5,8.1,25.8C1198.6,1086.5,1177.1,1086.9,1175,1088.3z" class="color2c367e svgShape"></path><path fill="#021b79" d="M1064.2,1175.5c-2.1-5.9-10.2-9.4-24.7-10.7c-26.3-2.4-136.1-29.3-208.8-47.1l-25.4-6.2
					c-4.9-1.2-9.5-2.7-13.8-4.4c10.4-10.5,15.8-21.9,15.9-34.1c0.2-23.3-18.7-40.8-19.5-41.6c-1.1-1-3-1-4.1,0c-1.1,1-1.1,2.7,0,3.8
					c0.2,0.2,18,16.6,17.8,37.8c-0.1,11.3-5.4,22-15.6,31.8c-11.5-5.5-20.2-12.9-25.8-22.2c-13.7-22.8-4.6-49.6-4.5-49.9
					c0.5-1.4-0.4-2.9-1.9-3.3c-1.5-0.4-3.2,0.3-3.7,1.7c-0.4,1.2-10,29.2,4.9,54c6.1,10.3,15.6,18.4,28.1,24.3
					c0.1,0.4,0.3,0.8,0.7,1.1c0.6,0.5,1.3,0.8,2.1,0.8c0.3,0,0.7-0.1,1-0.2c5.2,2.2,10.8,4,16.9,5.5l25.4,6.2
					c77.2,18.9,182.9,44.8,209.7,47.2c15.4,1.4,19,5.1,19.7,7.1c1,2.7-1.5,6.8-6.5,10.9c-12,9.8-101,175.2-130.8,265.2
					c-30.1,90.8-56.3,134.7-56.5,135.2c-0.8,1.3-0.3,2.9,1.1,3.6c0.4,0.2,0.9,0.3,1.4,0.3c1,0,2-0.5,2.6-1.4
					c0.3-0.4,26.7-44.8,57-136.2c30.2-91,119.3-254.8,129.1-262.8C1063.1,1186.3,1066,1180.4,1064.2,1175.5z" class="color2c367d svgShape"></path><g fill="#000000" class="color000000 svgShape"><ellipse cx="965" cy="453.4" fill="#3f6489" rx="43.5" ry="38.6" transform="rotate(-83.212 964.977 453.342)" class="color3f897a svgShape"></ellipse><path fill="#1a2347" d="M1099.2,594.5c-81.9-50.3-129.2-44.2-134.7-89.2c3.4-4.5,6-9.5,7.9-14.9c-0.1-2.3-0.1-4.6-0.1-6.7
						l-15.6,2.6c0,0,22.6-38,26.3-79.5s-44.6-74-44.6-74s-28.7-35.9-101.7-15.4c-7.6,2.2-14.6,5.3-20.8,9.3c-0.2,0-0.3,0.2-0.5,0.2
						c0,0-0.1,0.1-0.1,0.2c-0.1,0-0.3,0.2-0.6,0.4c-3.5,3-18.8,16.7-33.1,38.3c-15.5,23.5-29.8,56.4-26.4,95.2
						c6.9,79.5,90.3,103.9-2.4,146.7c-92.6,42.8-155.6,104.5-97.4,164.6c58,60.2,99.6,42.6,72.9,108.8
						c-26.6,66.2,44.1,130.2,226.8-10.1C1137.7,730.8,1191.1,651,1099.2,594.5z M656,744.6c-30.4-46.6,59.5-108.4,63.4-110.9
						c-2,2.4-34.4,40.9-37.1,83.1c-2.8,42.5,41.8,90.1,44,92.4C723.7,807.9,685.9,790.6,656,744.6z M1071.5,715.9
						c2-4.9,24.5-62.9-14.2-94.5c-40.4-33-94-45.1-91.3-94.9c0,0,4.3,20.6,45.3,36.3c41.2,15.6,95.7,30.9,102.9,75.3
						C1121.4,681.1,1074.5,714,1071.5,715.9z" class="color1a2b47 svgShape"></path><path fill="#8cc4fd" d="M939.7,677.1c-46,17.2-64.8,28.1-86.1,7.4C832.3,664,819,616.4,819,616.4s31.5-21.7,34.7-38.9l0-0.1
						c-2.8-12.9-9.5-29-9.5-29s-11.2-14.6-17.5-25.9c-6.4-11.2-3.7-24.8-3.7-24.8s-14.3-1.2-15.8-15.6c-1.7-14.5,6.4-23.9,12.2-23.8
						c5.7,0.3,10.9,0.9,13,7.6c2.1,6.8,1.5,12.2,2.6,13.2c1.1,1,9.2,1.4,9.8-1.2c0.5-2.1,2.2-38.4,2.9-52.2c0.1-2.5,2.8-4.3,5.1-3.4
						c10.8,4,37.4,12.2,59.5,6.3c22.9-6.1,38.5-14,43.7-16.9c1.3-0.7,2.8-0.8,4.1-0.5l11.1,3.2c1.9,0.5,3.3,2,3.7,3.9
						c1,4.7,2.9,14.2,3.8,22c0,0,0,0.1,0,0.2c0.3,2.6,3.1,29.3-1,36.5c-4.3,7.6-4.5,13.8-2.6,18.4c2,4.5,5.3,50.9-59.3,66l-0.1,0
						c0,0,0.1,0.1,0.1,0.2c-0.7,0-1.2,0-1.5-0.1c-0.2,0-0.2,0.2-0.1,0.3l7.5,12.4l0.5,0.8c0,0,0.1,0.1,0.1,0.2
						c0.9,1.8,8.7,16.2,21,23.1c2.5,1.5,5.1,2.7,7.5,3.8c10,4.6,18,6.6,18,6.6S985.6,659.9,939.7,677.1z" class="colorfd9e8c svgShape"></path><path fill="#ffffff" d="M781.6,365.8c14.2-21.7,29.5-35.3,33.1-38.3C800.2,336.6,789.4,350.2,781.6,365.8z" class="colorffffff svgShape"></path><path fill="#4f6cdb" d="M861.7,550.9c5.3,8.6,16.1,25,29.6,36.2c16.2,13.4,30.1,18.8,35.3,20.5c0.5,0.1,1,0.2,1.5,0.1
							c0.6-0.1,1.2-0.4,1.7-0.8c0.8-0.8,1.1-2,0.8-3.1l-12.1-40.3c-0.4-1.3-1.5-2.1-2.8-2.1c-2.8-0.1-17.6-0.7-32.4-7.3
							c-6-2.7-11.3-5.6-15.8-8.6c-1.5-1.1-3.6-0.9-5,0.4C861.1,547.2,860.8,549.2,861.7,550.9z" class="colordb5f4f svgShape"></path><ellipse cx="899.9" cy="467.4" fill="#1a2347" rx="6.8" ry="5" transform="rotate(-88.831 899.908 467.436) scale(1.00001)" class="color1a2b47 svgShape"></ellipse><ellipse cx="955.1" cy="464.4" fill="#1a2347" rx="6.8" ry="5" transform="rotate(-88.831 955.144 464.362) scale(1.00001)" class="color1a2b47 svgShape"></ellipse><path fill="#1a2347" d="M958.8 446.6c-.1-.1-.1-.1-.2-.2.1.2.3.3.4.5-.6-.6-1.4-1.2-2.1-1.7.2.1.4.2.5.3-.8-.5-1.7-.8-2.6-1.1.2.1.4.1.6.2-.9-.3-1.9-.4-2.8-.4.2 0 .5 0 .7 0-.1 0-.2 0-.4 0-.7 0-1.3-.1-1.9-.5-.5-.4-.9-1-.9-1.6 0-.6.1-1.3.6-1.8.4-.5 1-.9 1.7-.9 2 0 3.9.3 5.7 1 1.8.8 3.3 1.9 4.7 3.3.4.4.5 1.3.5 1.9-.1.6-.5 1.3-1 1.6-.6.4-1.2.6-1.9.5C959.7 447.4 959.3 447.1 958.8 446.6L958.8 446.6zM900.1 448.2c.2.4.5.7.9.9.4.1.5.1.2.1-.2 0-.4-.1-.7-.1-.1 0-.2 0-.3 0-.3 0-.2 0 .2 0 0 0-.4 0-.5 0-.5 0-.9.1-1.3.1-.2 0-.4.1-.7.1-.1 0-.2 0-.3.1.4-.1.4-.1.2-.1-.8.2-1.6.5-2.4.9-.6.3.3-.2-.1 0-.2.1-.4.2-.6.4-.4.3-.7.5-1.1.8-1 .8-2.8.6-3.5-.5-.8-1.2-.5-2.6.5-3.5 1.9-1.6 4.2-2.6 6.6-3.1 1.2-.3 2.4-.3 3.6-.3 1.5 0 3.4.4 3.9 2.1.2.7.2 1.3-.1 1.9-.3.5-.8 1.1-1.4 1.3C902.2 449.9 900.5 449.5 900.1 448.2L900.1 448.2z" class="color1a2b47 svgShape"></path><path fill="#4f6cdb" d="M938.5 470.3c-.3 2.4-.4 4.8-.4 7.2 0 1-.1 2.3.1 3.3-.1.1-.2.1-.3-.2.3.1.5.1.8.1.5.1 1 .1 1.5.1 4.4.3 8.8 1 11.7 4.4 2.8 3.2 2.6 7.7 0 11-2.9 3.7-7.5 4.9-11.9 5.9-1.3.3-2.6-.9-2.8-2.2-.2-1.4.9-2.4 2.3-2.7 3.3-.7 7.6-1.6 9.1-5 1.5-3.3-2-5.5-4.8-6-3.4-.7-8.8.4-10.2-3.5-.7-1.9-.5-4.3-.4-6.3 0-2.3.2-4.6.4-6.9C933.8 466.4 938.8 467.1 938.5 470.3L938.5 470.3zM906 515.9c2.4 5.2 7.5 8.9 12.4 11.5 5.2 2.7 10.9 4.3 16.8 4.6 3.4.2 3.8-5.1.4-5.3-5-.2-9.9-1.5-14.4-3.8-4-2.1-8.5-5.1-10.5-9.4C909.4 510.5 904.6 512.8 906 515.9L906 515.9z" class="colordb5f4f svgShape"></path><path fill="#5382b1" d="M803.5,433.9c0,0,24.9-94.9,87.6-94.7c62.7,0.2,88.9,35,92.9,55.4l-0.9,12.3c0,0-30.4-53.5-88.2-52.8
						c-57.8,0.7-69.8,92.7-69.8,92.7L803.5,433.9z" class="color53b163 svgShape"></path><ellipse cx="811.4" cy="470.9" fill="#3f6489" rx="43.5" ry="38.6" transform="rotate(-85.601 811.344 470.911)" class="color3f897a svgShape"></ellipse><ellipse cx="795.1" cy="469.7" fill="#5382b1" rx="34" ry="30.2" transform="rotate(-85.601 795.061 469.659)" class="color53b163 svgShape"></ellipse><g fill="#000000" class="color000000 svgShape"><path fill="#8cc4fd" d="M1046.2,589.1l-32.3,29.1c-1-0.9-1.5-1.4-1.6-1.4c-0.5-0.5-4-2.4-5.2-4.7c-1.3-2.2-7-5.4-12-13.4
						c-5.1-8-13.5-28.1-14.7-29.3c-0.9-1-10.8-8.5-14.8-11.6c-1.1-0.8-1.7-1.3-1.7-1.3c-0.1,0.9,0.3,2.1,0.7,3.5
						c0,0.4-0.1,1.7-0.5,3.7c-0.5,2.7-3.6,3.3-5.7,1.9c-2.1-1.4-8.8-10.6-8.8-13c0-2.4,7.2-9.5,7.2-9.5s-3.3-2.7-3.4-4.7
						c-0.2-2,4.8-7.5,4.8-7.5s-1.1-4.3-0.4-8.3c0.8-4,10.6-13,10.6-13s0.6-4,1.8-5.9c1-1.6,16.8-11,23.3-13.9
						c0.1-0.1,0.1-0.1,0.1-0.1c1.4-0.6,2.3-0.9,2.6-0.8c1.7,0.6,16.4,16.6,19.4,19.7c3,3.2,7,8.7,10.2,11.1
						c3.3,2.5,2.7,3.7,5.6,13.2c2.9,9.5,13.8,55.1,14.7,56.1C1046.1,589,1046.2,589,1046.2,589.1z" class="colorfd9e8c svgShape"></path><path fill="#4f6cdb" d="M1002.7 513.6C1002.7 513.6 1002.7 513.6 1002.7 513.6c.7-.7.8-1.8.2-2.4-.9-1-9.3-9.9-11.8-11.4-2.1-1.2-10 1.5-23.4 8.2-.9.4-1.3 1.5-.9 2.3.4.8 1.4 1.1 2.2.7 8.3-4.2 18.5-8.5 20.3-8.2 1.5.9 7.5 7.1 11 10.8C1000.9 514.3 1002 514.3 1002.7 513.6zM992.3 526.4c.7-.6.8-1.6.3-2.3-1.1-1.5-7-8.7-11.2-8.7-3.9.1-19.5 10.8-24.1 14-.8.5-1.1 1.6-.6 2.4.5.7 1.5.9 2.4.3 9-6.3 20.1-13.3 22.1-13.4 1.7 0 5.9 3.9 8.7 7.5C990.4 527.1 991.5 527.1 992.3 526.4 992.3 526.5 992.3 526.5 992.3 526.4zM981.3 544.5c.7-.6.8-1.5.4-2.2-.5-.7-4.5-6.5-8.5-7.2-3.7-.6-14 4.9-17 6.6-.9.5-1.2 1.5-.8 2.3.4.8 1.4 1.1 2.3.6 5.7-3.2 13-6.4 14.8-6.1 1.9.3 4.9 3.6 6.5 5.9.5.7 1.6.9 2.4.3C981.2 544.6 981.3 544.6 981.3 544.5zM965.7 561.6c.5-.4.7-1 .6-1.7l-1.2-6.2c-.2-.9-1.1-1.4-2-1.2-.9.2-1.5 1.2-1.4 2.1l1.2 6.2c.2.9 1.1 1.4 2 1.2C965.3 561.9 965.5 561.8 965.7 561.6z" class="colordb5f4f svgShape"></path><path fill="#4f6cdb" d="M965.6,557.8c-1.1-0.8-1.7-1.3-1.7-1.3c-0.1,0.9,0.3,2.1,0.7,3.5c0,0.4-0.1,1.7-0.5,3.7
						c-0.5,2.7-3.6,3.3-5.7,1.9c-2.1-1.4-8.8-10.6-8.8-13c0-2.4,7.2-9.5,7.2-9.5s-3.3-2.7-3.4-4.7c-0.2-2,4.8-7.5,4.8-7.5
						s-1.1-4.3-0.4-8.3c0.8-4,10.6-13,10.6-13s0.6-4,1.8-5.9c1-1.6,16.8-11,23.3-13.9C980.6,504.6,964.1,529.4,965.6,557.8z" opacity=".61" class="colordb5f4f svgShape"></path></g><path fill="#62aefa" d="M1138.3,820.5c-2.7,16.2-40.7,34.8-54.9,33.3c-14.2-1.5-59.8-16-59.8-16l-36.3-224.9l-0.5-3.2l3.5,1.9
					l4.3,2.5c0,0-0.7-1.4-1.8-3.5c-2.7-5.6-7.1-16.1-3-18c0,0,54.6-29.8,62.8-18.5c1.9,2.7,5.7,9.6,10.6,18.9
					c15.6,30.1,41.9,85.8,50.8,110.2C1125.4,735,1141.1,804.4,1138.3,820.5z" class="colorfaae62 svgShape"></path><path fill="#5172ec" d="M995.9,617.1c0,0,25.9,64.8,45.3,109.1c19.4,44.3,30.7,83.6,28.4,79.1s-17.4-56.8-37-78.7
					c-19.6-21.8-36.8-15.3-36.8-15.3S985,607.5,995.9,617.1z" class="colorec8751 svgShape"></path><path fill="#62aefa" d="M1041.2,782.7c0.2,12-4,31.1-8.5,50.3c-4.1,17.1-8.3,34.3-10.1,46.4c-1.9,13.5-5.9,37-8.9,60.1
					c-2.7,20.9-4.6,41.6-3.4,54.3c2.6,26.6,8,44.8,8,44.8l-297.7-6.6c0,0,1.7-8.5,4.1-22.2c2.4-14,5.6-33.3,8.2-54.6
					c0.3-2.3,0.5-4.6,0.8-7c3.6-30,6.1-62.9,4.4-89.1c-1.6-25.3-5.6-61.4-10.1-96.4c-7.2-56.3-15.4-109.7-15.4-109.7
					s7.9-12.6,22.8-23.1c11.1-7.8,62.4-23,87.8-30.3c8.7-2.5,14.4-4.1,14.4-4.1s45.2,38.5,83.2,43c38,4.5,30.3-35.7,30.3-35.7
					s2.6,0.3,6.5,0.8c11.1,1.6,32.9,5.1,36.9,10.5c5.4,7.2,5.4,62.9,21.2,97.2C1031.7,745.6,1040.7,760.1,1041.2,782.7z" class="colorfaae62 svgShape"></path><path fill="#5172ec" d="M1032.7,833c-4,17.2-8.3,34.3-10,46.4c-1.9,13.5-5.9,37-8.9,60.1l-0.1,0.2c0,0-12.3-36.5-40.1-45.4
					c-22.3-7.1-17.1,36-14.1,53.3c-5.8-4.4-23.3-9.7-71.3-12.6c-11.6-0.7-23.2-0.9-34.5-0.7c-47.8,0.7-92.5,8.2-119.8,13.9
					c3.6-30,6.1-62.9,4.4-89.1c-0.6-11.2-1.9-24.5-3.3-39c-1.9-18.1-4.2-37.9-6.7-57.4c28.2-5.3,50-2.6,50-2.6s-1.9,54.8,23.2,72.1
					c25.1,17.4,137.6,23.5,178,19.4C999.4,849.6,1018.5,841.1,1032.7,833z" class="colorec8751 svgShape"></path><path fill="#4666e0" d="M880.4,901.6c-0.6,1-10.3,16.3-26.8,32.8c-47.8,0.7-92.5,8.2-119.8,13.9c3.6-30,6.1-62.9,4.4-89.1
					c-0.6-11.2-1.9-24.5-3.3-39c9.1,0.2,19.1,1,29.8,2.4c0,0-25.3,59.6,40,71.9C867.3,906.1,879.5,901.9,880.4,901.6z" class="colore07146 svgShape"></path><path fill="#5172ec" d="M733,955.3l204.7,4.9c0,0-23.5,15.3-85.5,28.3c-48.6,10.2-105.2,18.3-127.4,21.3
					C727.2,995.8,730.3,976.5,733,955.3z" class="colorec8751 svgShape"></path><path fill="#ffffff" d="M960.7,954.6c0,0-0.6-2.7-1.3-7C964.6,951.5,960.7,954.6,960.7,954.6z" class="colorffffff svgShape"></path><path fill="#5172ec" d="M1018,715.9c0,0,21.6,34.2,22.5,62.9c0.9,28.7-9.1,59.7-9.1,59.7l9.8,4.8
					C1041.2,843.2,1061.8,761.2,1018,715.9z" class="colorec8751 svgShape"></path><path fill="#9fcfff" d="M925.8 656.2c-51.8-1-87.9-38.3-102.5-56.6 8.7-2.5 14.4-4.1 14.4-4.1s45.2 38.5 83.2 43c38 4.5 30.3-35.7 30.3-35.7s2.6.3 6.5.8C963.5 630 960.9 656.8 925.8 656.2zM1063.2 593c-31 3.1-56.1 11.7-70.4 17.6-2.7-5.6-7.1-16.1-3-18 0 0 54.6-29.8 62.8-18.5C1054.5 576.8 1058.3 583.7 1063.2 593z" class="colorffe19f svgShape"></path></g><g fill="#000000" class="color000000 svgShape"><path fill="#1a2347" d="M957.1,969.1c0.1,0.3,0.1,0.5,0.1,0.8l4.1,29.6l-6.9,1.7l-48.3-167.4c-1.8-6.3,2.6-12.7,9.2-13.2l0,0
					c5.1-0.4,9.7,3.1,10.8,8.1L957.1,969.1z" class="color1a2b47 svgShape"></path><path fill="#8cc4fd" d="M814.9,922.9c0,0,28.5-6.2,46.7-12.8s45.6-24.5,50.4-25s22-2.6,26.1,1.7c4.2,4.3,2.3,11.4,2.3,11.4
					s5.6,1.4,7.2,7.4c1.6,5.9,0,10.9,0,10.9s5.8,4,6.9,10.5s-1.4,11.6-1.4,11.6s6,7.4,6.7,10.2c0.7,2.9,2.1,17.6,1.2,19.3
					c-0.9,1.7-3,2.6-3,2.6s-6.9-10.2-9.3-12.6c-2.3-2.4-7.9-1.7-7.9-1.7s-8.1,12.1-28.9,16.4c-20.8,4.3-50,1.2-64.1,0
					c-14.1-1.2-25.9,2.2-25.9,2.2L814.9,922.9z" class="colorfd9e8c svgShape"></path><path fill="#62aefa" d="M835.9,984.6c-2.6,2.1-11.7,5.9-24.2,10.2c-30.8,10.5-82,23.6-104.7,21.7c-31.9-2.8-69.9-12.3-78.7-34
					c-8.8-21.7-3.4-71.9,9.5-124.8c12.9-52.9,70.8-219.4,81.4-209.5c1,0.9,7.1,5.6,15,12.8c0,0,0.1,0.1,0.1,0.1
					c17.5,16.1,43.9,45.1,45.3,75.9c2,44.7-38,161.4-38,161.4h0.4c4.1,0.3,41.5,2.7,66.2,6.8c10.3,1.8,18.5,3.8,20.9,6.1
					C837.9,919.5,844.7,977.1,835.9,984.6z" class="colorfaae62 svgShape"></path><path fill="#5172ec" d="M741.6,898.4c-16.1-1.2-65.1,15.6-78.7,21c-13.5,5.4-19.7,7.4,0-6.1c19.7-13.5,69.1-18.3,69.1-18.3
					s37.4-124.8,38-160c0.4-19.3-18.6-50-35.7-73.8c17.5,16.1,43.9,45,45.3,75.9C781.6,781.8,741.6,898.4,741.6,898.4z" class="colorec8751 svgShape"></path><path fill="#ffffff" d="M871.5,1016.5v-31.6c0,0,47.2,0.5,102.1,20.5c0,0,29.5-13,63.5-15.9c34-2.9,51.3-2.6,51.3-2.6v29.5H871.5z
						" class="colorffffff svgShape"></path><rect width="242.8" height="10.8" x="857.9" y="1005.7" fill="#0575e6" class="color535f9b svgShape"></rect><path fill="#9fcfff" d="M835.9,984.6c-2.6,2.1-11.7,5.9-24.2,10.2c1.8-33.8-0.5-65-3.6-89.5c10.3,1.8,18.5,3.8,20.9,6.1
					C837.9,919.5,844.7,977.1,835.9,984.6z" class="colorffe19f svgShape"></path></g><polygon fill="#a8c0d8" points="688.1 1228.4 643.3 1831.5 610.7 1831.5 633 1228.4" class="colora8b7d8 svgShape"></polygon><polygon fill="#a8c0d8" points="876.9 1228.4 921.7 1831.5 954.3 1831.5 932 1228.4" class="colora8b7d8 svgShape"></polygon></g><g fill="#000000" class="color000000 svgShape"><path fill="#e7eef6" d="M1748.7,1029v19.2c0,7-5.7,12.6-12.7,12.6h-1465c-7.1,0-12.7-5.6-12.7-12.6V1029c0-7,5.7-12.5,12.7-12.5
				h1465C1742.9,1016.5,1748.7,1022,1748.7,1029z" class="colore7ebf6 svgShape"></path><path fill="#a8c0d8" d="M282.6,1029v19.2c0,7-5.6,12.6-12.5,12.6H102.5c-6.9,0-12.5-5.6-12.5-12.6V1029c0-7,5.6-12.5,12.5-12.5H270
				C276.9,1016.5,282.6,1022,282.6,1029z" class="colora8b7d8 svgShape"></path><polygon fill="#a8c0d8" points="601.9 1060.8 601.9 1831.5 559.9 1831.5 559.9 1737.3 295.4 1737.3 295.4 1831.5 247.9 1831.5 247.9 1060.8" class="colora8b7d8 svgShape"></polygon><polygon fill="#c2d5e9" points="318.3 1060.8 318.3 1831.5 277.6 1831.5 277.6 1737.3 165.7 1737.3 165.7 1831.5 136.6 1831.5 136.6 1060.8" class="colorc2d2e9 svgShape"></polygon><polygon fill="#c2d5e9" points="643.3 1060.8 643.3 1831.5 601.3 1831.5 601.3 1737.3 336.8 1737.3 336.8 1831.5 289.3 1831.5 289.3 1060.8" class="colorc2d2e9 svgShape"></polygon><polygon fill="#a8c0d8" points="289.3 1060.8 289.3 1831.5 248.6 1831.5 248.6 1737.3 136.8 1737.3 136.8 1831.5 107.6 1831.5 107.6 1060.8" class="colora8b7d8 svgShape"></polygon><rect width="268.5" height="137" x="332" y="1124.3" fill="#f5f9fd" class="colorf5f8fd svgShape"></rect><rect width="268.5" height="137" x="332" y="1310.4" fill="#f5f9fd" class="colorf5f8fd svgShape"></rect><rect width="268.5" height="137" x="332" y="1496.5" fill="#f5f9fd" class="colorf5f8fd svgShape"></rect><path fill="#c2d5e9" d="M497.1 1194.1c0 4.5-3.6 8.1-8.1 8.1h-45.4c-4.5 0-8.1-3.6-8.1-8.1 0-4.5 3.6-8.1 8.1-8.1H489C493.5 1186 497.1 1189.6 497.1 1194.1zM497.1 1378.9c0 4.5-3.6 8.1-8.1 8.1h-45.4c-4.5 0-8.1-3.6-8.1-8.1 0-4.5 3.6-8.1 8.1-8.1H489C493.5 1370.8 497.1 1374.4 497.1 1378.9zM497.1 1565c0 4.5-3.6 8.1-8.1 8.1h-45.4c-4.5 0-8.1-3.6-8.1-8.1 0-4.5 3.6-8.1 8.1-8.1H489C493.5 1556.9 497.1 1560.5 497.1 1565z" class="colorc2d2e9 svgShape"></path><rect width="354" height="27.6" x="289.3" y="1060.8" fill="#a8c0d8" class="colora8b7d8 svgShape"></rect><rect width="181.7" height="27.6" x="107.6" y="1060.8" fill="#86a6c6" class="color869dc6 svgShape"></rect><rect width="43.4" height="770.8" x="1604.9" y="1060.8" fill="#a8c0d8" class="colora8b7d8 svgShape"></rect><rect width="62.4" height="770.8" x="1648.3" y="1060.8" fill="#c2d5e9" class="colorc2d2e9 svgShape"></rect><rect width="43.4" height="27.8" x="1604.9" y="1060.8" fill="#ffffff" class="colorffffff svgShape"></rect><rect width="62.4" height="27.8" x="1648.3" y="1060.8" fill="#a8c0d8" class="colora8b7d8 svgShape"></rect><rect width="393.1" height="178.1" x="1255.2" y="1060.8" fill="#c2d5e9" class="colorc2d2e9 svgShape"></rect><rect width="140.1" height="178.1" x="1115.1" y="1060.8" fill="#a8c0d8" class="colora8b7d8 svgShape"></rect><rect width="393.1" height="27.6" x="1255.2" y="1060.8" fill="#a8c0d8" class="colora8b7d8 svgShape"></rect><rect width="140.1" height="27.6" x="1115.1" y="1060.8" fill="#86a6c6" class="color869dc6 svgShape"></rect><rect width="303.2" height="96.7" x="1300.1" y="1108.7" fill="#f5f9fd" class="colorf5f8fd svgShape"></rect><path fill="#c2d5e9" d="M1487.5,1157.1c0,3.6-3,6.5-6.6,6.5h-58.4c-3.6,0-6.5-2.9-6.5-6.5s2.9-6.6,6.5-6.6h58.4
				C1484.5,1150.5,1487.5,1153.4,1487.5,1157.1z" class="colorc2d2e9 svgShape"></path></g><g fill="#000000" class="color000000 svgShape"><path fill="#021b79" d="M1485.6,1006.9c0,5.3-4.2,9.5-9.5,9.5h-250.2c-5.3,0-9.5-4.2-9.5-9.5c0-5.3,4.2-9.5,9.5-9.5h250.2
				C1481.4,997.4,1485.6,1001.7,1485.6,1006.9z" class="color2c367d svgShape"></path><path fill="#0575e6" d="M1352.4,993.2l76-177.3c2.7-6.2,8.7-10.2,15.5-10.2h257.8c11.9,0,20.1,12.1,15.6,23.1l-71.8,177.1
				c-2.6,6.3-8.7,10.5-15.6,10.5l-262,0.2C1355.8,1016.6,1347.6,1004.3,1352.4,993.2z" class="color535f9b svgShape"></path><ellipse cx="1547.8" cy="910.5" fill="#a8c0d8" rx="19" ry="12.2" transform="rotate(-71.712 1547.732 910.496)" class="colora8b7d8 svgShape"></ellipse></g><g fill="#000000" class="color000000 svgShape"><path fill="#0575e6" d="M546,606.1c0,1.3-0.2,2.5-0.7,3.7c-1.8,4.6-6.8,7.2-11.6,6.1l-73.5-16.5c-6.1-1.4-9.5-7.9-7.1-13.7l3.2-7.8
				c2.1-4.9,7.6-7.4,12.6-5.7l70.3,24.3C543.4,598,546,602,546,606.1z" class="color535f9b svgShape"></path><path fill="#0575e6" d="M481.2,977.8c-0.5,0-0.9,0-1.4-0.1c-4.6-0.8-7.6-5.1-6.9-9.7l61.5-359.2c1-5.8,4.5-10.7,9.5-13.6
				c5-2.8,10.8-3.4,16.2-1.5l75.7,21.4c4.5,1.3,7.1,5.9,5.8,10.4c-1.3,4.5-5.9,7.1-10.4,5.8l-76.7-21.7c-1-0.4-1.9-0.1-2.3,0.2
				c-0.4,0.2-1.1,0.8-1.3,1.9l-61.5,359.2C488.7,974.9,485.2,977.8,481.2,977.8z" class="color535f9b svgShape"></path><path fill="#c2d5e9" d="M587.8,1016.5H390.7c0-39.7,44.1-71.8,98.5-71.8S587.8,976.8,587.8,1016.5z" class="colorc2d2e9 svgShape"></path><circle cx="545.7" cy="609.3" r="29.3" fill="#c2d5e9" class="colorc2d2e9 svgShape"></circle><circle cx="545.7" cy="609.3" r="14.5" fill="#0575e6" class="color535f9b svgShape"></circle><circle cx="495" cy="867.7" r="29.3" fill="#c2d5e9" class="colorc2d2e9 svgShape"></circle><circle cx="495" cy="867.7" r="14.5" fill="#0575e6" class="color535f9b svgShape"></circle><path fill="#5382b1" d="M757.8,655L690,727.8l-32.2,34.5c-2.3,2.4-6.1,2.6-8.6,0.4l-34.7-31.9c-32.5-30-36.4-81.3-6.4-113.9
				c13.5-14.7,31.1-23.1,49.5-25.2c1.9-0.2,3.8-0.3,5.7-0.4c20.4-0.8,41,6.1,57,21l37,34.1C759.9,648.6,760.1,652.5,757.8,655z" class="color53b163 svgShape"></path><path fill="#3f6489" d="M690,727.8l-32.2,34.5c-2.3,2.4-6.1,2.6-8.6,0.4l-34.7-31.9c-32.5-30-36.4-81.3-6.4-113.9
				c13.5-14.7,31.1-23.1,49.5-25.2C636.6,628.5,632.4,676.6,690,727.8z" class="color3f897a svgShape"></path><polygon fill="#ffffff" points="657.8 762.3 756.5 1016.2 1156.7 1016.2 757.8 655" opacity=".3" class="colorffffff svgShape"></polygon><circle cx="735.9" cy="864.8" r="3.8" fill="#ffffff" class="colorffffff svgShape"></circle><circle cx="753.1" cy="947" r="6.3" fill="#ffffff" class="colorffffff svgShape"></circle><circle cx="766.8" cy="708.4" r="7.4" fill="#ffffff" class="colorffffff svgShape"></circle><circle cx="844.9" cy="833.6" r="4.8" fill="#ffffff" class="colorffffff svgShape"></circle><circle cx="986" cy="922.4" r="11.2" fill="#ffffff" class="colorffffff svgShape"></circle><circle cx="683.2" cy="764.5" r="4.9" fill="#ffffff" class="colorffffff svgShape"></circle><circle cx="813" cy="971" r="6" fill="#ffffff" class="colorffffff svgShape"></circle></g><g fill="#000000" class="color000000 svgShape"><path fill="#3f6489" d="M293.3 932.2c0 0-18.5-168 15.2-189s34.2 40.9 28 95.5c-6.2 54.6-9.3 96.5-9.3 96.5L293.3 932.2zM253.8 928.4c0 0-38.7-127.9-15.5-149.1s32.5 26.8 35.6 70.1c3.1 43.3 6.7 76.3 6.7 76.3L253.8 928.4z" class="color3f897a svgShape"></path><path fill="#5382b1" d="M314.3 924.3c0 0 11.1-133.2 40.5-144.3 29.4-11.1 20.3 36.9 7.3 78.3-13.1 41.4-21.9 73.4-21.9 73.4L314.3 924.3zM277.7 933.8c0 0-41-155.3-12.3-179.7 28.8-24.4 37.9 33.6 39.8 85.8s4.8 92 4.8 92L277.7 933.8z" class="color53b163 svgShape"></path><path fill="#c2d5e9" d="M376.8,943.1v43.8c0,16.2-13.2,29.4-29.4,29.4H252c-16.2,0-29.4-13.2-29.4-29.4v-43.8
				c0-16.2,13.2-29.4,29.4-29.4h95.4C363.7,913.7,376.8,926.9,376.8,943.1z" class="colorc2d2e9 svgShape"></path></g><g fill="#000000" class="color000000 svgShape"><path fill="#e7eef6" d="M1466.4,1793.5c0,0-11.6-8.9-9.7-13.2c1.9-4.3,6.1-5,6.1-5s-2.3-7.9,4.5-10.4s11.1,0.2,11.1,0.2
						s-1.5-7.4,6-6.8c7.6,0.6,13,6.6,13,6.6s11.5-4.8,14,4.5s-1.3,14.5-1.3,14.5s7.5,3.3,2.1,12.2s-7.3,9.5-7.3,9.5s2.6,5.6-5.9,6.8
						c-8.5,1.2-10.8-0.8-11.7-1s-4.5,5.6-9.1,1.3s-6.2-8.1-6.2-8.1s-8.1,5.8-10.3-2.1C1459.7,1794.5,1466.4,1793.5,1466.4,1793.5z" class="colore7ebf6 svgShape"></path><path fill="#e7eef6" d="M1472 1775.7c-.6.4-4.7 5.8-2.8 9.3 1.9 3.5 7.6 4.8 7.6 4.8s-4.2 4.6.9 7.4c5.1 2.7 12.8-.6 12.8-.6s-1.3 4.3 5.7 2.7c7-1.5 13.4-11.4 7-14.1-6.4-2.7-8.3-.8-11.5 1-3.2 1.9-2.7.1-6.3-4.3-3.5-4.5-6.2-3.3-7.5-3.3-1.3 0 0-3.1-3-6.8C1471.8 1768.2 1472 1775.7 1472 1775.7zM1547 1736.8c0 0-11.6-8.9-9.7-13.2 1.9-4.3 6.1-5 6.1-5s-2.3-7.9 4.5-10.4c6.8-2.5 11.1.2 11.1.2s-1.5-7.4 6-6.8c7.6.6 13 6.6 13 6.6s11.5-4.8 14 4.5c2.5 9.3-1.3 14.5-1.3 14.5s7.5 3.3 2.1 12.2c-5.4 8.9-7.3 9.5-7.3 9.5s2.6 5.6-5.9 6.8c-8.5 1.2-10.8-.8-11.7-1-.9-.2-4.5 5.6-9.1 1.3-4.5-4.2-6.2-8.1-6.2-8.1s-8.1 5.8-10.3-2.1C1540.3 1737.8 1547 1736.8 1547 1736.8z" class="colore7ebf6 svgShape"></path><path fill="#e7eef6" d="M1552.6,1719c-0.6,0.4-4.7,5.8-2.8,9.3c1.9,3.5,7.6,4.8,7.6,4.8s-4.2,4.6,0.9,7.4
						c5.1,2.7,12.8-0.6,12.8-0.6s-1.3,4.3,5.7,2.7c7-1.5,13.4-11.4,7-14.1c-6.4-2.7-8.3-0.8-11.5,1c-3.2,1.9-2.7,0.1-6.3-4.3
						c-3.5-4.5-6.2-3.3-7.5-3.3s0-3.1-3-6.8C1552.4,1711.5,1552.6,1719,1552.6,1719z" class="colore7ebf6 svgShape"></path><g fill="#000000" class="color000000 svgShape"><path fill="#e7eef6" d="M1550.7,1728.4C1550.7,1728.4,1550.7,1728.4,1550.7,1728.4c-7.5,12.6-10.2,13.4-10.2,13.4s3.7,7.9-8.3,9.6
						c-12,1.7-15.2-1.1-16.5-1.4c-1.3-0.3-6.4,7.9-12.8,1.9c-6.4-6-8.8-11.5-8.8-11.5s-11.5,8.2-14.6-3c-3-11.2,6.4-12.5,6.4-12.5
						s-2.5-1.9-5.3-4.5c-4.5-4.2-10.1-10.4-8.5-14.1c2.7-6,8.7-7.1,8.7-7.1s-3.2-11.2,6.3-14.8c9.6-3.6,15.7,0.3,15.7,0.3
						s-2.1-10.4,8.6-9.6c10.6,0.9,18.4,9.3,18.4,9.3s16.3-6.8,19.7,6.3c3.5,13.1-1.8,20.5-1.8,20.5S1558.3,1715.8,1550.7,1728.4z" class="colore7ebf6 svgShape"></path><path fill="#c2d5e9" d="M1493.8,1699.7c-0.8,0.5-6.7,8.2-4,13.1c2.7,4.9,10.7,6.8,10.7,6.8s-5.9,6.6,1.3,10.4
						c7.2,3.8,18.1-0.8,18.1-0.8s-1.9,6,8,3.8c9.9-2.2,18.9-16.1,9.9-19.9c-9.1-3.8-11.7-1.1-16.3,1.5c-4.5,2.6-3.8,0.2-8.9-6.1
						c-5-6.3-8.7-4.6-10.6-4.6s0-4.4-4.3-9.6S1493.8,1699.7,1493.8,1699.7z" class="colorc2d2e9 svgShape"></path></g><g fill="#000000" class="color000000 svgShape"><path fill="#e7eef6" d="M1527.1,1786.7c0,0-15.1-11.5-12.6-17.1c2.4-5.5,7.9-6.5,7.9-6.5s-3-10.2,5.8-13.5
						c8.8-3.3,14.4,0.2,14.4,0.2s-2-9.5,7.8-8.8c9.8,0.8,16.9,8.5,16.9,8.5s14.9-6.3,18.1,5.8c3.2,12-1.7,18.8-1.7,18.8
						s9.7,4.3,2.7,15.8c-7,11.5-9.4,12.3-9.4,12.3s3.4,7.3-7.6,8.8c-11,1.5-14-1-15.2-1.3s-5.9,7.2-11.8,1.7
						c-5.9-5.5-8.1-10.5-8.1-10.5s-10.5,7.5-13.3-2.8S1527.1,1786.7,1527.1,1786.7z" class="colore7ebf6 svgShape"></path><path fill="#c2d5e9" d="M1534.3,1763.6c-0.7,0.5-6.1,7.5-3.7,12c2.4,4.5,9.8,6.3,9.8,6.3s-5.4,6,1.2,9.5
						c6.6,3.5,16.6-0.8,16.6-0.8s-1.7,5.5,7.3,3.5s17.4-14.8,9.1-18.3c-8.3-3.5-10.8-1.1-14.9,1.4c-4.2,2.4-3.5,0.2-8.1-5.6
						s-8-4.3-9.7-4.3s0-4-3.9-8.8C1534.1,1753.8,1534.3,1763.6,1534.3,1763.6z" class="colorc2d2e9 svgShape"></path></g><path fill="#86a6c6" d="M1609.5,1663l-0.1-0.2l3.9-32.5l-3.9-0.7l-2.4,20.4l-23.9-20.3l-1-1.7l-0.5,0.4l-0.5-0.4l-1,1.7l-28.9,24.2
				l-29.6-25.9l-0.8,1.2l-0.8-1.2l-29.6,25.9l-28.9-24.2l-1-1.7l-0.5,0.4l-0.5-0.4l-1,1.7l-24.6,20.9l-2.5-21.1l-3.9,0.7l21.6,182.3
				l3.9-0.7l-2.2-18.9l4-3.3l31,24.5l2.2-3.9l-29.6-23.5l27.8-22.7l31.1,24.1l-28.6,22.1l2.2,4l30-23.3l30,23.3l2.2-4l-28.6-22.1
				l31.1-24.1l27.8,22.7l-29.6,23.5l2.2,3.9l31-24.5l3.3,2.7l-2.3,19.6l3.9,0.7l3.5-29.6l0.2-0.1l-0.1-0.2l6.4-54.4l0.1-0.1
				l-0.1-0.2l7.7-64.8L1609.5,1663z M1581.5,1634.2l24.8,21.1l-0.6,5.2l-24.3,19.8l-26.9-23.5L1581.5,1634.2z M1442.5,1724.8
				l-2.5-21.2l20-17.5l26.6,21.7l-31.7,26.5L1442.5,1724.8z M1451.4,1737.3l-6.7,5.6l-1.4-12L1451.4,1737.3z M1439.4,1698.3
				l-3.8-32.2l21,17.2L1439.4,1698.3z M1463.5,1683.1l26.9-23.4l26.9,22.5l-27.1,22.7L1463.5,1683.1z M1490.1,1710.7l27,22.1
				l-31.3,25.6l-27.4-21.2L1490.1,1710.7z M1493.6,1707.8l27.1-22.7l27.1,22.7l-27.1,22.1L1493.6,1707.8z M1551.2,1710.7l31.6,26.5
				l-27.4,21.2l-31.3-25.6L1551.2,1710.7z M1554.7,1707.8l26.6-21.7l19.3,16.9l-2.7,22.5l-11.5,8.9L1554.7,1707.8z M1551.3,1704.9
				l-27.1-22.7l26.9-22.5l26.9,23.4L1551.3,1704.9z M1520.7,1633.2l27,23.5l-27,22.6l-27-22.6L1520.7,1633.2z M1459.9,1634.2
				l27,22.6l-26.9,23.5l-25.2-20.6l-0.4-3.8L1459.9,1634.2z M1450,1787.7l-0.2-1.9l1.3,1L1450,1787.7z M1454.6,1784l-5.6-4.4
				l-3.7-31.3l9.7-8.1l27.3,21.2L1454.6,1784z M1520.7,1785.3l-31.2-24.1l31.2-25.5l31.2,25.5L1520.7,1785.3z M1559,1761.3
				l27.3-21.2l9,7.5l-3.9,32.7l-4.7,3.7L1559,1761.3z M1590.6,1787.1l-0.3-0.3l0.4-0.3L1590.6,1787.1z M1595.9,1742.3l-6-5l7.3-5.6
				L1595.9,1742.3z M1601.2,1697.6l-16.5-14.4l20.1-16.5L1601.2,1697.6z" class="color869dc6 svgShape"></path><rect width="200.5" height="36.5" x="1419.6" y="1593.4" fill="#c2d5e9" class="colorc2d2e9 svgShape"></rect><rect width="147.4" height="19.3" x="1447" y="1812.2" fill="#86a6c6" class="color869dc6 svgShape"></rect></g><g fill="#000000" class="color000000 svgShape"><path fill="#f5f9fd" d="M732.5,182c0,4.7-0.5,9.4-1.3,13.9c-1.1,5.7-2.9,11.2-5.3,16.4c-1.7,3.6-3.6,7.1-5.8,10.3
				c-1.5,2.3-3.1,4.4-5,6.5c-1.3,1.6-2.6,3-4,4.4c-13.2,13.2-31.4,21.3-51.5,21.3H148V109.1h511.6
				C699.8,109.1,732.5,141.7,732.5,182z" class="colorf5f8fd svgShape"></path><path fill="#e7eef6" d="M731.2 196c-1.1 5.7-2.9 11.2-5.3 16.4H148V196H731.2zM720.1 222.6c-1.5 2.3-3.1 4.4-5 6.5H148v-6.5H720.1zM678.2 156.6c0 4.4-3.6 8-8.1 8h-12.9c-4.4 0-8.1-3.6-8.1-8 0-4.5 3.6-8.1 8.1-8.1h12.9C674.6 148.5 678.2 152.1 678.2 156.6z" class="colore7ebf6 svgShape"></path><path fill="#e7eef6" d="M246.1,182c0,20.2-8.1,38.4-21.4,51.5c-13.2,13.2-31.4,21.3-51.5,21.3H148V109.1h25.2
				C213.4,109.1,246.1,141.7,246.1,182z" class="colore7ebf6 svgShape"></path></g><g fill="#000000" class="color000000 svgShape"><path fill="#c2d5e9" d="M1264.5 759.6c-2.2 0-4-1.8-4-4v-21.2c0-2.2 1.8-4 4-4s4 1.8 4 4v21.2C1268.5 757.8 1266.7 759.6 1264.5 759.6zM1333.9 828.7h-33.6c-2.2 0-4-1.8-4-4 0-2.2 1.8-4 4-4h33.6c2.2 0 4 1.8 4 4C1337.9 826.9 1336.1 828.7 1333.9 828.7zM1267.6 825.9c-1 0-2-.4-2.8-1.1-2.8-2.7-4.3-6.3-4.3-10.1v-25.4c0-2.2 1.8-4 4-4s4 1.8 4 4v25.4c0 1.7.7 3.3 1.9 4.4 1.6 1.5 1.6 4.1.1 5.6C1269.6 825.5 1268.6 825.9 1267.6 825.9zM1388.8 828.7h-21.2c-2.2 0-4-1.8-4-4 0-2.2 1.8-4 4-4h21.2c2.2 0 4 1.8 4 4C1392.8 826.9 1391 828.7 1388.8 828.7z" class="colorc2d2e9 svgShape"></path><g fill="#000000" class="color000000 svgShape"><path fill="#c2d5e9" d="M1534.7 755c-2.2 0-4-1.8-4-4v-21.2c0-2.2 1.8-4 4-4s4 1.8 4 4v21.2C1538.7 753.3 1536.9 755 1534.7 755zM1534.7 796.4c-2.2 0-4-1.8-4-4v-21.2c0-2.2 1.8-4 4-4s4 1.8 4 4v21.2C1538.7 794.6 1536.9 796.4 1534.7 796.4z" class="colorc2d2e9 svgShape"></path></g><g fill="#000000" class="color000000 svgShape"><path fill="#c2d5e9" d="M1787.2 768.6c-2.2 0-4-1.8-4-4v-21.2c0-2.2 1.8-4 4-4s4 1.8 4 4v21.2C1791.2 766.8 1789.4 768.6 1787.2 768.6zM1777.1 933.6h-7.4c-2.2 0-4-1.8-4-4s1.8-4 4-4h7.4c3.4 0 6.2-2.8 6.2-6.2v-21.2c0-2.2 1.8-4 4-4s4 1.8 4 4v21.2C1791.2 927.3 1784.9 933.6 1777.1 933.6zM1787.2 857.7c-2.2 0-4-1.8-4-4v-44.6c0-2.2 1.8-4 4-4s4 1.8 4 4v44.6C1791.2 855.9 1789.4 857.7 1787.2 857.7zM1725.1 933.6h-21.2c-2.2 0-4-1.8-4-4s1.8-4 4-4h21.2c2.2 0 4 1.8 4 4S1727.3 933.6 1725.1 933.6z" class="colorc2d2e9 svgShape"></path></g></g><g fill="#000000" class="color000000 svgShape"><path fill="#e7eef6" d="M871.5,113.6c-45.5,0-82.3,36.9-82.3,82.4c0,45.5,36.9,82.4,82.3,82.4c45.5,0,82.4-36.9,82.4-82.4
				C953.9,150.5,917,113.6,871.5,113.6z M871.5,262.2c-36.6,0-66.2-29.7-66.2-66.2s29.7-66.2,66.2-66.2c36.6,0,66.2,29.7,66.2,66.2
				S908.1,262.2,871.5,262.2z" class="colore7ebf6 svgShape"></path><path fill="#e7eef6" d="M907.6,235.7c-0.9,0-1.8-0.4-2.6-1.1l-37.2-37.2v-43.1c0-2,1.6-3.6,3.6-3.6s3.6,1.6,3.6,3.6v40.1l35,35
				c1.4,1.4,1.4,3.7,0,5.1C909.5,235.3,908.6,235.7,907.6,235.7z" class="colore7ebf6 svgShape"></path><circle cx="871.5" cy="196" r="12.3" fill="#e7eef6" class="colore7ebf6 svgShape"></circle></g><rect width="2000" height="19.5" y="1831.5" fill="#c2d5e9" class="colorc2d2e9 svgShape"></rect><g fill="#000000" class="color000000 svgShape"><rect width="855.7" height="16.7" x="127.5" y="1874.9" fill="#e7eef6" class="colore7ebf6 svgShape"></rect><rect width="855.7" height="16.7" x="1035.5" y="1874.9" fill="#e7eef6" class="colore7ebf6 svgShape"></rect></g></g></svg>