<svg xmlns="http://www.w3.org/2000/svg" data-name="Layer 1" viewBox="0 0 200 200" id="Girlthinkingaboutbusinessanalysis"><rect width="152.29" height="1.52" x="18.64" y="172.2" fill="#000000" class="color000000 svgShape"></rect><path fill="#0575e6" d="M102.84,122.39H89.35a28.2,28.2,0,0,0-28.2,28.2v22.14h72.72V150.59C133.87,135,118.41,122.39,102.84,122.39Z" class="color749b8a svgShape"></path><path d="M102.84,122H89.35a28.59,28.59,0,0,0-28.56,28.55v22.14a.36.36,0,0,0,.36.35h72.72a.35.35,0,0,0,.35-.35V150.59C134.22,135.65,119.26,122,102.84,122Zm30.68,50.33h-72V150.59a27.87,27.87,0,0,1,27.85-27.84h13.49c16,0,30.68,13.27,30.68,27.84Z" fill="#000000" class="color000000 svgShape"></path><path fill="#ffffff" d="M104,122.27s6.49,16.79,3.19,34.64H90.9L89.9,122Z" class="colorffffff svgShape"></path><path d="M107.48,157.24H90.58l-1-35.53,14.69.23.08.21c.06.17,6.48,17.08,3.2,34.82Zm-16.25-.66h15.7c2.95-16.39-2.43-32-3.14-34l-13.55-.21Z" fill="#000000" class="color000000 svgShape"></path><path fill="#ffffff" d="M55,153c-6.68,2.88-1.6,2.53-1.6,2.53-7.92,2.41-4,4.46-4,4.46-5.6,4.58.38,4,.38,4s-3.18,3.57.16,3.8,6.44-2.17,6.44-2.17a9.83,9.83,0,0,0,4.27,2.1,35.54,35.54,0,0,0,12.12,1.78l3.42-9.63C64.93,155.39,61.66,150.11,55,153Z" class="colorffffff svgShape"></path><path d="M67.14,155c-3.35-1.88-5.76-3.23-8.51-3.23a9.45,9.45,0,0,0-3.78.85c-3.54,1.52-3.74,2.12-3.65,2.56a.66.66,0,0,0,.48.49c-2.33.88-3.51,1.8-3.6,2.82a1.72,1.72,0,0,0,.73,1.47c-1.72,1.47-2.38,2.54-2.09,3.36s1.37,1,2.31,1c-.52.73-1.23,1.94-.87,2.83.23.57.82.89,1.75,1a11,11,0,0,0,6.46-2.08A9,9,0,0,0,60,167.9l.56.17a37.46,37.46,0,0,0,11.19,1.83c.68,0,1.06,0,1.06,0l.23,0,3.6-10.17-.31-.13A74.28,74.28,0,0,1,67.14,155Zm5.38,14.14-.78,0a37.17,37.17,0,0,1-11-1.8l-.57-.18a8.26,8.26,0,0,1-3.57-1.85l-.22-.19-.23.18s-3.05,2.32-6.21,2.1c-.64,0-1-.22-1.14-.51-.27-.66.61-2,1.23-2.7l.59-.67-.89.08h-.5c-1,0-1.74-.21-1.86-.55s0-1,2.23-2.88l.41-.34-.47-.24s-.84-.46-.78-1.07.72-1.53,4.72-2.74l3-.9-3.09.21h-.43a2.8,2.8,0,0,1-1-.12c.15-.18.75-.7,3.19-1.74a8.78,8.78,0,0,1,3.5-.79c2.56,0,4.91,1.31,8.16,3.13a74.43,74.43,0,0,0,8.95,4.44Z" fill="#000000" class="color000000 svgShape"></path><path d="M57.05 161.35a4.29 4.29 0 00-3.4.25c-1.67.84-4.21 2.17-4.21 2.17l.33.63s2.53-1.33 4.2-2.16a3.6 3.6 0 012.81-.23.36.36 0 00.46-.19A.36.36 0 0057.05 161.35zM53.14 157.65c-1.62.88-4.17 2.15-4.2 2.17a.35.35 0 00-.15.47.34.34 0 00.31.2.29.29 0 00.16 0s2.59-1.29 4.22-2.17c2.92-1.59 4.37.13 4.43.2a.36.36 0 00.5.05.35.35 0 00.05-.49S56.6 155.79 53.14 157.65zM112.85 113.67c.07-.45.19-1.12.33-2A57.57 57.57 0 00113.57 95c-.19-1.54-.37-3.18-.51-4.57h0a32.09 32.09 0 00-1.06-6c-3-10.9-10.42-12-14.25-12.66C80 68.53 70.6 80.43 72.07 92.6c.14 1.3.23 2.42.25 3.42a17.85 17.85 0 01-.25 3.51c0 .26 0 .52 0 .76s0 .46 0 .68v0a85.79 85.79 0 001.42 13.64c.52 3.9-2.48 5-2.48 5a12.84 12.84 0 003.55 2.76l.56.29c.2.1.39.19.59.27A23 23 0 0078.82 124h0l.21 0a34.79 34.79 0 004.52.91l.5-.18c13.31 1.16 27.19-3.15 27.19-3.15.18-.09.37-.18.55-.29a12.38 12.38 0 003.56-2.76S112.34 117.56 112.85 113.67z" fill="#000000" class="color000000 svgShape"></path><path d="M88.75,125.35c-1.55,0-3.11-.06-4.66-.19l-.52.19h-.08a34.42,34.42,0,0,1-4.56-.93l-.58-.12,0,0a20.46,20.46,0,0,1-2.82-1,4.67,4.67,0,0,1-.61-.28,6.06,6.06,0,0,1-.57-.3,12.79,12.79,0,0,1-3.64-2.83l-.31-.36.45-.16c.11,0,2.74-1,2.27-4.61,0-.36-.13-.86-.24-1.49A73.75,73.75,0,0,1,71.71,101c0-.25,0-.48,0-.72s0-.5,0-.75A17.89,17.89,0,0,0,72,96a33.33,33.33,0,0,0-.25-3.39A19.14,19.14,0,0,1,77.4,76.21c4.87-4.59,12.12-6.3,20.41-4.8l.27,0c3.92.69,11.21,2,14.23,12.84a32.1,32.1,0,0,1,1.08,6.07c.12,1.25.3,2.83.51,4.57a57.78,57.78,0,0,1-.39,16.82l-.07.38-.26,1.57c-.47,3.59,2.24,4.6,2.27,4.61l.45.17-.32.36a12.69,12.69,0,0,1-3.64,2.83c-.16.1-.33.18-.5.27l-.11,0A87.05,87.05,0,0,1,88.75,125.35ZM84,124.49h.07c13.09,1.13,26.93-3.09,27.06-3.13l.49-.26a12.74,12.74,0,0,0,3.18-2.37,4.78,4.78,0,0,1-2.27-5.11h0c0-.38.15-.92.26-1.59l.07-.38A56.82,56.82,0,0,0,113.24,95c-.21-1.75-.38-3.33-.5-4.58a32.12,32.12,0,0,0-1.06-6C108.77,74,101.74,72.78,98,72.11l-.27,0c-8.08-1.46-15.12.19-19.83,4.63a18.5,18.5,0,0,0-5.47,15.87c.16,1.42.24,2.52.26,3.46a17.63,17.63,0,0,1-.26,3.57c0,.2,0,.46,0,.7s0,.46,0,.68a74,74,0,0,0,1.18,12.11c.11.64.19,1.15.24,1.51a4.77,4.77,0,0,1-2.27,5.11,12.87,12.87,0,0,0,3.17,2.37l.52.27.6.28a21.45,21.45,0,0,0,3.1,1.1l.36.1a33.34,33.34,0,0,0,4.23.85Z" fill="#000000" class="color000000 svgShape"></path><path fill="#ffffff" d="M103.55,108.72H88.73s1.79,8.61-.56,13.55H104C101.67,117.33,103.55,108.72,103.55,108.72Z" class="colorffffff svgShape"></path><path fill="#ffffff" d="M91.18,74.36C78,76,77.31,82.67,78,86.86s.86,12.16,2.2,15.73c2.6,6.92,5.89,7.43,10.15,11.37,1.06,1,3.9,1.6,5.91,1.43a6.78,6.78,0,0,0,5.18-2.76c3.36-4.73,7.11-7.78,7.44-14.71.18-3.8-1.51-10.25-1.86-14.55S104.36,72.78,91.18,74.36Z" class="colorffffff svgShape"></path><path d="M107.34,83.34c-.6-7.27-6.21-10.53-16.2-9.33-5.8.7-9.82,2.47-11.94,5.28a9.68,9.68,0,0,0-1.58,7.63c.23,1.46.4,3.36.59,5.38.34,3.76.73,8,1.63,10.41,1.9,5.08,4.22,6.81,6.91,8.81a38.84,38.84,0,0,1,3.33,2.7c1.09,1,3.62,1.55,5.45,1.55.25,0,.5,0,.73,0a7.09,7.09,0,0,0,5.44-2.91c.69-1,1.41-1.89,2.11-2.77,2.64-3.35,5.13-6.52,5.39-12.12a45.66,45.66,0,0,0-1-8.66C107.84,87.12,107.48,85.07,107.34,83.34Zm1.16,14.57c-.26,5.37-2.57,8.3-5.25,11.71-.7.89-1.42,1.81-2.13,2.8A6.48,6.48,0,0,1,96.2,115c-.21,0-.44,0-.67,0-2,0-4.14-.6-5-1.36A39.29,39.29,0,0,0,87.17,111c-2.7-2-4.84-3.61-6.67-8.5-.86-2.29-1.25-6.51-1.59-10.23-.18-2-.36-3.94-.59-5.42a9,9,0,0,1,1.45-7.1c2-2.64,5.85-4.32,11.46-5a32.62,32.62,0,0,1,3.82-.24c7.2,0,11.09,3,11.58,8.93.15,1.76.51,3.82.88,6A45.42,45.42,0,0,1,108.5,97.91Z" fill="#000000" class="color000000 svgShape"></path><path d="M100.39,72.69s-10.69-8-19.55-.76-3.69,21.31-3.69,21.31a17.3,17.3,0,0,1,5.64-3.53c-.78-6.51,1.82-9,1.82-9a28.81,28.81,0,0,0,.17,7.93,45.07,45.07,0,0,0,5-.6l.91-2.22,1,2,4.5-.54a11.77,11.77,0,0,1,.42-4.47,14.07,14.07,0,0,1,1.47,4.68c7-.84,9.62,1.42,9.62,1.42C109.8,73.37,100.39,72.69,100.39,72.69Z" fill="#000000" class="color000000 svgShape"></path><path d="M100.52 72.35a21 21 0 00-11.24-3.8 13.37 13.37 0 00-8.67 3.11c-9 7.32-3.85 21.56-3.79 21.71a.33.33 0 00.24.22h.09a.36.36 0 00.24-.09 17 17 0 015.51-3.46.35.35 0 00.24-.38 13 13 0 011-7.54 31.37 31.37 0 00.34 6.6.32.32 0 00.35.29 42.83 42.83 0 005.07-.6.36.36 0 00.27-.22l.62-1.49L91.37 88a.34.34 0 00.36.19l4.5-.54a.35.35 0 00.25-.14.37.37 0 00.06-.27 9.67 9.67 0 01.18-3.36 13.7 13.7 0 011 3.66.34.34 0 00.13.24.35.35 0 00.26.08 23.17 23.17 0 012.92-.19c4.56 0 6.41 1.51 6.43 1.53a.39.39 0 00.36.06.35.35 0 00.22-.29c.82-6.06 0-10.63-2.38-13.58A8.16 8.16 0 00100.52 72.35zm6.9 16A12.67 12.67 0 00101 87a25.07 25.07 0 00-2.66.16 14.48 14.48 0 00-1.45-4.46.36.36 0 00-.35-.18.36.36 0 00-.31.25A12.56 12.56 0 0095.79 87l-3.9.47L91 85.7a.35.35 0 00-.64 0l-.85 2c-.67.11-3 .49-4.46.56A27.86 27.86 0 0185 80.79a.36.36 0 00-.19-.37.34.34 0 00-.4.06c-.11.1-2.65 2.59-2 9a17.88 17.88 0 00-5.1 3.14c-.79-2.54-3.89-14.16 3.75-20.41a12.69 12.69 0 018.22-3c5.85 0 10.85 3.69 10.9 3.73a.4.4 0 00.19.07 7.43 7.43 0 014.75 2.78C107.32 78.54 108.09 82.73 107.42 88.32zM91.54 106.88l.1.71c.24 0 5.89-.86 9.37-3.44l-.42-.57C97.25 106.05 91.6 106.88 91.54 106.88zM100.76 91.75A1.65 1.65 0 0099 93.32a1.62 1.62 0 00.2.87 6 6 0 013.1-.71A1.65 1.65 0 00100.76 91.75z" fill="#000000" class="color000000 svgShape"></path><path d="M100.78 91.4h-.1a2 2 0 00-1.76 3 .35.35 0 00.31.18.32.32 0 00.16 0 5.35 5.35 0 012.46-.66h.42a.42.42 0 00.41-.35 2 2 0 00-1.9-2.1zm1.07 1.73a5.78 5.78 0 00-2.43.57 1.11 1.11 0 010-.36 1.31 1.31 0 011.36-1.24h0a1.32 1.32 0 011.21 1zM95 99.48h0c-.63 0-1.22.48-1.76 1.39a.36.36 0 00.12.49.41.41 0 00.18 0 .38.38 0 00.31-.18c.39-.66.8-1 1.15-1h0a1 1 0 01.66.42.36.36 0 10.6-.38A1.66 1.66 0 0095 99.48zM96 89.64l.41.57a5.86 5.86 0 013.93-1 19.52 19.52 0 014 1.32l.31-.65a20.46 20.46 0 00-4.15-1.36A6.47 6.47 0 0096 89.64zM86.66 94.9a1.64 1.64 0 00-.57 2.26 5.83 5.83 0 013.06-.83 1.58 1.58 0 00-.22-.86A1.65 1.65 0 0086.66 94.9z" fill="#000000" class="color000000 svgShape"></path><path d="M86.48 94.59a2 2 0 00-.92 1.24 2 2 0 00.23 1.52.35.35 0 00.31.18.6.6 0 00.33-.13 5.08 5.08 0 012.73-.72.35.35 0 00.35-.35 2 2 0 00-.28-1A2.06 2.06 0 0086.48 94.59zm-.22 2.09a1.31 1.31 0 010-.68 1.26 1.26 0 01.59-.8 1.31 1.31 0 011.78.45 1 1 0 01.14.34A5.68 5.68 0 0086.26 96.68zM81.26 132.35c-1 15.88 18.29 23.51 24.5 23.51 3.39 0-1.15-11.29-12-22S81.44 129.34 81.26 132.35z" fill="#000000" class="color000000 svgShape"></path><path d="M84.46 127.48c-2.1 0-3.36 1.72-3.56 4.85a18.72 18.72 0 005.47 14.36c5.84 6.22 15 9.53 19.39 9.53a1.33 1.33 0 001.29-.85c1.08-2.64-3.34-12.18-13-21.75C90 129.55 86.72 127.48 84.46 127.48zm21.93 27.62a.6.6 0 01-.63.41c-4.14 0-13.24-3.31-18.87-9.3a18 18 0 01-5.28-13.84c.12-1.91.71-4.18 2.85-4.18s5.13 2 9.1 5.94C102.73 143.21 107.35 152.76 106.39 155.1zM85.43 91.91a19.91 19.91 0 00-3 3.15l.57.42a19.56 19.56 0 012.9-3 5.74 5.74 0 013.93-1l.09-.7A6.38 6.38 0 0085.43 91.91z" fill="#000000" class="color000000 svgShape"></path><path fill="#ffffff" d="M107.18,104.88c-1.74.24-18.86,8-18.86,8a25.06,25.06,0,0,0-3.84-5.56c-2.4-2.57-4.79-.67-3.64.91a14,14,0,0,1,2.57,6.53c.24,2.47-1.31,6.19-1.14,9.5s-4.42,22-4.42,22l14.79,8.85s-1.63-25.11.52-27,6.47-2.72,8.78-5.2.81-3.89.81-3.89a3.64,3.64,0,0,0,.57-4c1.52-4.14-.54-4-.54-4a20.46,20.46,0,0,0,5.45-3.81C109.53,105.61,108.23,104.72,107.18,104.88Z" class="colorffffff svgShape"></path><path d="M107.13,104.52c-1.66.24-16.25,6.84-18.64,7.93a25.81,25.81,0,0,0-3.75-5.35,3.81,3.81,0,0,0-2.65-1.37,1.91,1.91,0,0,0-1.74,1,1.66,1.66,0,0,0,.21,1.75,13.76,13.76,0,0,1,2.49,6.36,15.43,15.43,0,0,1-.5,4.21,21.67,21.67,0,0,0-.64,5.28c.17,3.21-4.36,21.66-4.4,21.85l-.07.25L93,155.75l0-.68c-.63-9.63-1.07-25.41.4-26.71a15.52,15.52,0,0,1,3.71-2.09,15.57,15.57,0,0,0,5.1-3.14c1.93-2.07,1.38-3.53,1-4.11a4,4,0,0,0,.51-4.08c.63-1.77.69-3,.2-3.72a1.09,1.09,0,0,0-.25-.27,19.73,19.73,0,0,0,4.85-3.54,1.84,1.84,0,0,0,.49-2A1.79,1.79,0,0,0,107.13,104.52ZM108,107a20.7,20.7,0,0,1-5.33,3.73l-1.35.67h1.54a.6.6,0,0,1,.51.27c.2.29.43,1.09-.34,3.2l0,.14.07.14a3.28,3.28,0,0,1-.52,3.65l-.24.25.25.25s1.21,1.22-.82,3.39a15.06,15.06,0,0,1-4.87,3,15.42,15.42,0,0,0-3.89,2.2c-2.08,1.84-1,22-.68,26.62l-14-8.37c.58-2.34,4.53-18.66,4.37-21.81a21.42,21.42,0,0,1,.62-5.1,16.35,16.35,0,0,0,.52-4.42A14.58,14.58,0,0,0,81.13,108a.93.93,0,0,1-.14-1,1.19,1.19,0,0,1,1.1-.59,3.11,3.11,0,0,1,2.13,1.15A24.84,24.84,0,0,1,88,113.07l.15.31.32-.14c4.75-2.17,17.38-7.82,18.76-8a1.1,1.1,0,0,1,1.13.48C108.51,106,108.37,106.46,108,107Z" fill="#000000" class="color000000 svgShape"></path><path d="M96.53 116.79l.06.71c5.62-.45 7.13-2.78 7.19-2.87l-.6-.38S101.8 116.37 96.53 116.79zM96.25 120.79l.06.7c5.61-.45 7.13-2.77 7.19-2.87l-.6-.38S101.47 120.37 96.25 120.79z" fill="#000000" class="color000000 svgShape"></path><path fill="#0575e6" d="M81.36,130.85l-14,41.4H99.78l6.89-16.93C77.25,144.13,81.36,130.85,81.36,130.85Z" class="color749b8a svgShape"></path><path d="M106.79,155c-28.7-10.92-25.13-23.91-25.09-24a.36.36,0,0,0-.68-.22l-14,41.4a.41.41,0,0,0,0,.32.38.38,0,0,0,.29.15H99.78a.34.34,0,0,0,.32-.23l6.9-16.92a.39.39,0,0,0,0-.28A.39.39,0,0,0,106.79,155ZM99.54,171.9H67.82l13-38.36c.37,4.54,4,13.78,25.39,22Z" fill="#000000" class="color000000 svgShape"></path><path d="M106.8,155c-28.31-10.76-25.25-23.47-25.11-24a.36.36,0,0,0-.25-.44.35.35,0,0,0-.43.25l-2.6,9.35c-.21,4,1.8,14.23,25,23.26l.12,0a.35.35,0,0,0,.33-.22l3.16-7.75a.39.39,0,0,0,0-.28A.41.41,0,0,0,106.8,155Zm-3.48,7.63C80.24,153.55,79,143.16,79.11,140.26l1.8-6.48c.57,4.62,4.54,13.77,25.3,21.75Z" fill="#000000" class="color000000 svgShape"></path><path fill="#3493f3" d="M81.35,130.89v0Z" class="colorf3d934 svgShape"></path><path d="M81.45,130.51a.35.35,0,0,0-.43.25v0a.33.33,0,0,0,.23.41h.1a.35.35,0,0,0,.36-.27h0A.35.35,0,0,0,81.45,130.51Z" fill="#000000" class="color000000 svgShape"></path><path fill="#0575e6" d="M93.73,69.58a10.52,10.52,0,0,0-1.32.21A2.71,2.71,0,0,0,92.29,75c6.46,1.92,16.43,7.28,16.53,22C108.82,97.05,114.11,71.78,93.73,69.58Z" class="color749b8a svgShape"></path><path d="M93.7,69.25a13.21,13.21,0,0,0-1.36.23A2.92,2.92,0,0,0,90,72.29a3,3,0,0,0,2.19,3c6,1.8,16.2,7,16.31,21.71a.32.32,0,0,0,.29.32h0a.32.32,0,0,0,.32-.27c0-.13,2.67-13.17-3.28-21.36C103.15,72,99.08,69.83,93.7,69.25ZM109,93.71c-1.5-12.59-10.84-17.29-16.57-19a2.38,2.38,0,0,1-1.73-2.4,2.3,2.3,0,0,1,1.83-2.21c.71-.16,1.22-.2,1.22-.21,5.12.56,9,2.65,11.64,6.23C109.31,81.6,109.33,89.36,109,93.71Z" fill="#000000" class="color000000 svgShape"></path><path fill="#0575e6" d="M90.07,69a11.94,11.94,0,0,1,1.44.24,3,3,0,0,1,.14,5.75c-7.1,2.11-18.05,8-18.17,24.18C73.48,99.12,67.67,71.37,90.07,69Z" class="color749b8a svgShape"></path><path d="M76.73,75.72c-6.53,9-3.63,23.33-3.6,23.47a.36.36,0,0,0,.35.29h0a.35.35,0,0,0,.32-.35C74,83,85.11,77.25,91.75,75.28a3.33,3.33,0,0,0,2.41-3.35,3.21,3.21,0,0,0-2.57-3.09,10.69,10.69,0,0,0-1.5-.25C84.19,69.22,79.71,71.62,76.73,75.72Zm.58.42c2.86-3.93,7.16-6.23,12.79-6.84,0,0,.56.06,1.34.23a2.52,2.52,0,0,1,2,2.43,2.58,2.58,0,0,1-1.9,2.63c-6.29,1.88-16.55,7-18.19,20.86C72.93,90.68,72.94,82.15,77.31,76.14Z" fill="#000000" class="color000000 svgShape"></path><rect width="46.13" height="28.68" x="137.91" y="87.23" rx="3.5" fill="#000000" class="color000000 svgShape"></rect><path d="M180.53,86.94H141.41a3.79,3.79,0,0,0-3.79,3.79v21.68a3.79,3.79,0,0,0,3.79,3.79h39.12a3.79,3.79,0,0,0,3.79-3.79V90.73A3.79,3.79,0,0,0,180.53,86.94Zm3.22,25.47a3.22,3.22,0,0,1-3.22,3.22H141.41a3.23,3.23,0,0,1-3.22-3.22V90.73a3.23,3.23,0,0,1,3.22-3.22h39.12a3.22,3.22,0,0,1,3.22,3.22Z" fill="#000000" class="color000000 svgShape"></path><rect width="43" height="25.71" x="139.47" y="88.71" fill="#ffffff" rx="2.21" class="colorffffff svgShape"></rect><path d="M180.26,88.43H141.68a2.49,2.49,0,0,0-2.49,2.49v21.29a2.49,2.49,0,0,0,2.49,2.5h38.58a2.5,2.5,0,0,0,2.5-2.5V90.92A2.5,2.5,0,0,0,180.26,88.43Zm1.93,23.78a1.94,1.94,0,0,1-1.93,1.93H141.68a1.94,1.94,0,0,1-1.93-1.93V90.92A1.93,1.93,0,0,1,141.68,89h38.58a1.93,1.93,0,0,1,1.93,1.92Z" fill="#000000" class="color000000 svgShape"></path><path fill="#59a4ef" d="M148.62,105.3a2.26,2.26,0,0,0-2.27,2.27l0,5h4.55l0-5A2.27,2.27,0,0,0,148.62,105.3Z" class="colorefc959 svgShape"></path><path d="M148.53,104.94a2.51,2.51,0,0,0-2.54,2.55l0,5a.42.42,0,0,0,.14.3.47.47,0,0,0,.32.14H151a.26.26,0,0,0,.28-.27l0-5a2.77,2.77,0,0,0-2.74-2.72Zm2,2.55,0,4.77h-3.81l0-4.6a2,2,0,0,1,2-2,1.81,1.81,0,0,1,1.27.51A1.84,1.84,0,0,1,150.54,107.49Z" fill="#000000" class="color000000 svgShape"></path><path fill="#82a1c0" d="M156.81,99.84a2.26,2.26,0,0,0-2.26,2.28l0,10.49h4.55l-.05-10.49A2.29,2.29,0,0,0,156.81,99.84Z" class="coloraac082 svgShape"></path><path d="M156.72,99.48a2.51,2.51,0,0,0-2.54,2.55l0,10.5a.42.42,0,0,0,.14.3.47.47,0,0,0,.32.14h4.55a.27.27,0,0,0,.28-.27l-.05-10.5a2.72,2.72,0,0,0-.84-1.94A2.75,2.75,0,0,0,156.72,99.48Zm2,2.55.05,10.23H155l-.06-10.06a2,2,0,0,1,2-2,1.79,1.79,0,0,1,1.27.51A1.84,1.84,0,0,1,158.73,102Z" fill="#000000" class="color000000 svgShape"></path><path fill="#59a4ef" d="M165,95.82a2.25,2.25,0,0,0-2.26,2.27l.07,14.52h4.55l-.07-14.52A2.29,2.29,0,0,0,165,95.82Z" class="colorefc959 svgShape"></path><path d="M164.92,95.46A2.53,2.53,0,0,0,162.38,98l.07,14.52a.42.42,0,0,0,.14.3.47.47,0,0,0,.32.14h4.55a.25.25,0,0,0,.27-.27l-.06-14.52a2.78,2.78,0,0,0-2.75-2.72Zm2,2.55.07,14.25h-3.82l-.07-14.08a2,2,0,0,1,2-2A1.83,1.83,0,0,1,166.93,98Z" fill="#000000" class="color000000 svgShape"></path><path fill="#82a1c0" d="M173.21,91.09a2.27,2.27,0,0,0-2.27,2.28l.09,19.24h4.56l-.1-19.24A2.29,2.29,0,0,0,173.21,91.09Z" class="coloraac082 svgShape"></path><path d="M173.12,90.74a2.55,2.55,0,0,0-2.55,2.54l.1,19.25a.42.42,0,0,0,.14.3.47.47,0,0,0,.32.14h4.55a.27.27,0,0,0,.28-.27l-.1-19.25a2.66,2.66,0,0,0-.84-1.93A2.7,2.7,0,0,0,173.12,90.74Zm2,2.54.1,19H171.4l-.09-18.81a2,2,0,0,1,2-2,1.81,1.81,0,0,1,1.27.51A1.79,1.79,0,0,1,175.12,93.28Z" fill="#000000" class="color000000 svgShape"></path><path fill="#ffffff" d="M119.06,30.72a6.57,6.57,0,0,0-11.38,0L95,52.65a6.57,6.57,0,0,0,5.68,9.86l25.34,0a6.58,6.58,0,0,0,5.7-9.85Z" class="colorffffff svgShape"></path><path d="M119.32,30.57a6.87,6.87,0,0,0-11.89,0l-12.69,22a6.86,6.86,0,0,0,5.94,10.3l25.34,0h0A6.87,6.87,0,0,0,132,52.53ZM131.45,59.1A6.2,6.2,0,0,1,126,62.23v0l-25.34,0a6.28,6.28,0,0,1-5.43-9.41l12.69-21.94a6.27,6.27,0,0,1,10.86,0l12.65,22A6.18,6.18,0,0,1,131.45,59.1Z" fill="#000000" class="color000000 svgShape"></path><path fill="#82a1c0" d="M117.06,31.58a4.27,4.27,0,0,0-7.38,0L96.91,53.66a4.26,4.26,0,0,0,3.68,6.39l25.52,0a4.25,4.25,0,0,0,3.69-6.38Z" class="coloraac082 svgShape"></path><path d="M117.32,31.43a4.57,4.57,0,0,0-7.9,0L96.65,53.51a4.56,4.56,0,0,0,3.94,6.84l25.52,0h0a4.56,4.56,0,0,0,4-6.83Zm12.22,26.36a3.93,3.93,0,0,1-3.43,2v0l-25.52,0a4,4,0,0,1-3.42-5.94l12.77-22.09a4,4,0,0,1,6.86,0l12.74,22.11A3.93,3.93,0,0,1,129.54,57.79Z" fill="#000000" class="color000000 svgShape"></path><g fill="#000000" class="color000000 svgShape"><path fill="#59a4ef" fill-rule="evenodd" d="M113.35,36.18a7.18,7.18,0,0,1,7.14,6.5,7,7,0,0,1-3,6.55.73.73,0,0,0-.34.63c0,1.59-.1,3.17-.14,4.76,0,.87-.21,1.12-1,1.44a.45.45,0,0,0-.21.15,2.76,2.76,0,0,1-2.62,1,2.55,2.55,0,0,1-1.77-.63,4.22,4.22,0,0,0-1-.77,1.27,1.27,0,0,1-.52-1.14c-.06-1.57-.13-3.14-.19-4.71a.73.73,0,0,0-.35-.66,7.19,7.19,0,0,1,2.36-12.94,2.9,2.9,0,0,1,.6-.11C112.66,36.23,113,36.21,113.35,36.18Zm0,5.41h0a2.33,2.33,0,0,0-2.12,3.3c.44,1,.85,1.86,1,2.19a1.62,1.62,0,0,1,.21.71,10.73,10.73,0,0,1,.08,1.13c0,.34.13.43.49.39a2.89,2.89,0,0,1,.72,0c.33,0,.47-.05.47-.37a10.69,10.69,0,0,1,.06-1.13,1.68,1.68,0,0,1,.19-.72c.18-.33.58-1.25,1-2.23A2.34,2.34,0,0,0,113.38,41.59Z" class="colorefc959 svgShape"></path><path d="M113.38,57.43h-.23a2.67,2.67,0,0,1-1.9-.67,4.14,4.14,0,0,0-.92-.75,1.4,1.4,0,0,1-.61-1.29l-.07-1.55c0-1-.09-2.11-.12-3.17a.57.57,0,0,0-.28-.51,7.37,7.37,0,0,1,2.41-13.27,4.59,4.59,0,0,1,.64-.12L113,36l.3,0a7.39,7.39,0,0,1,7.35,6.67,7.19,7.19,0,0,1-3.07,6.72.54.54,0,0,0-.26.49c0,.86,0,1.72-.08,2.58s0,1.45-.07,2.17a1.44,1.44,0,0,1-1.15,1.61.34.34,0,0,0-.12.08A2.8,2.8,0,0,1,113.38,57.43Zm0-21.06-.29,0-.72.07c-.22,0-.41.07-.58.11a7,7,0,0,0-2.29,12.6.92.92,0,0,1,.43.81c0,1.06.08,2.11.13,3.16l.06,1.56c0,.53.15.82.43,1a4.43,4.43,0,0,1,1,.81,2.39,2.39,0,0,0,1.65.57,2.57,2.57,0,0,0,2.46-.95.64.64,0,0,1,.3-.22c.75-.28.88-.47.91-1.27l.06-2.18c0-.85.06-1.71.08-2.57a.92.92,0,0,1,.41-.78,6.84,6.84,0,0,0,2.92-6.39A7,7,0,0,0,113.35,36.37Zm-.41,13.14c-.36,0-.54-.2-.54-.59a2.93,2.93,0,0,0,0-.54,3.48,3.48,0,0,1-.06-.58,1.43,1.43,0,0,0-.18-.63c-.17-.29-.52-1-1-2.2a2.52,2.52,0,0,1,2.29-3.57h0a2.52,2.52,0,0,1,2.31,3.53c-.52,1.2-.86,2-1,2.25a1.63,1.63,0,0,0-.16.64,4.19,4.19,0,0,1,0,.57,4.23,4.23,0,0,0,0,.56.48.48,0,0,1-.54.55h-.14a3.75,3.75,0,0,0-.67,0Zm.45-7.92v.19a2.15,2.15,0,0,0-1.95,3c.52,1.15.88,1.9,1,2.18a2,2,0,0,1,.23.8,3.27,3.27,0,0,0,0,.52,3.52,3.52,0,0,1,0,.61c0,.21,0,.21.16.21h.12a3.22,3.22,0,0,1,.76,0h.11c.12,0,.15,0,.15-.19a4.21,4.21,0,0,1,0-.61,4.91,4.91,0,0,0,0-.52,1.9,1.9,0,0,1,.21-.8c.15-.29.49-1,1-2.23a2.15,2.15,0,0,0-2-3Z" fill="#000000" class="color000000 svgShape"></path><path fill="#ffffff" fill-rule="evenodd" d="M109.14,52.57v1l8.3-.94.41-.06V51.6Z" class="colorffffff svgShape"></path><path d="M109.14,53.73a.17.17,0,0,1-.12,0,.21.21,0,0,1-.07-.14v-1a.18.18,0,0,1,.17-.18l8-.9.71-.07a.18.18,0,0,1,.14,0,.21.21,0,0,1,.07.14v.95a.19.19,0,0,1-.17.19l-.4,0c-2.77.32-5.54.64-8.31.94Zm.19-1v.6l8.09-.92.24,0v-.58l-.5.06Z" fill="#000000" class="color000000 svgShape"></path><path fill="#ffffff" fill-rule="evenodd" d="M109.14,54v1l8.71-1V53Z" class="colorffffff svgShape"></path><path d="M109.14,55.13a.15.15,0,0,1-.12-.05A.17.17,0,0,1,109,55V54a.18.18,0,0,1,.17-.18l8.71-1a.19.19,0,0,1,.14,0A.21.21,0,0,1,118,53v1a.19.19,0,0,1-.17.18l-8.71,1Zm.19-1v.6l8.33-.93v-.61Z" fill="#000000" class="color000000 svgShape"></path><path fill="#ffffff" fill-rule="evenodd" d="M117.64,50.82l-8.5,0v1.3l8.68-1h0v-.32Z" class="colorffffff svgShape"></path><path d="M109.14,52.34a.18.18,0,0,1-.12-.05.21.21,0,0,1-.07-.14v-1.3a.19.19,0,0,1,.19-.19h1.21l7.29,0h.21a.2.2,0,0,1,.19.19v.32a.19.19,0,0,1-.16.19l-4.56.52-4.16.48Zm.19-1.3v.9l4-.45,4.16-.48-7.09,0Z" fill="#000000" class="color000000 svgShape"></path><path fill="#ffffff" fill-rule="evenodd" d="M109.14,55.38v.3c2.9,0,5.81,0,8.71,0V54.39Z" class="colorffffff svgShape"></path><path d="M109.14,55.87a.21.21,0,0,1-.19-.19v-.3a.19.19,0,0,1,.17-.19l8.71-1a.16.16,0,0,1,.14,0,.17.17,0,0,1,.07.14v1.26a.19.19,0,0,1-.19.19c-2.9,0-5.8,0-8.71,0Zm8.52-1.27-7.85.89,7.85,0Z" fill="#000000" class="color000000 svgShape"></path></g><path fill="#82a1c0" d="M53.29,26.83a22.3,22.3,0,1,0,22.29,22.3A22.29,22.29,0,0,0,53.29,26.83Z" class="coloraac082 svgShape"></path><path fill="#021b79" d="M53.29,26.29A22.84,22.84,0,1,0,76.13,49.13,22.87,22.87,0,0,0,53.29,26.29Zm0,44.59A21.75,21.75,0,1,1,75,49.13,21.77,21.77,0,0,1,53.29,70.88Z" class="color090b08 svgShape"></path><path fill="#59a4ef" d="M53.29,30.4A18.73,18.73,0,1,0,72,49.13,18.73,18.73,0,0,0,53.29,30.4Z" class="colorefc959 svgShape"></path><path fill="#021b79" d="M53.29,29.86A19.27,19.27,0,1,0,72.56,49.13,19.29,19.29,0,0,0,53.29,29.86Zm0,37.45A18.18,18.18,0,1,1,71.47,49.13,18.2,18.2,0,0,1,53.29,67.31Z" class="color090b08 svgShape"></path><path fill="#021b79" d="M66.3,48.58H53.38V39.47a.55.55,0,1,0-1.1,0v9.66a.55.55,0,0,0,.55.54H66.3a.55.55,0,0,0,.55-.54A.55.55,0,0,0,66.3,48.58Z" class="color090b08 svgShape"></path><rect width="30.28" height="30.28" x="15.85" y="90.07" fill="#ffffff" rx="3.14" class="colorffffff svgShape"></rect><path d="M43,89.9H19a3.31,3.31,0,0,0-3.31,3.31v24A3.31,3.31,0,0,0,19,120.52H43a3.31,3.31,0,0,0,3.31-3.31v-24A3.32,3.32,0,0,0,43,89.9Zm3,27.31a3,3,0,0,1-3,3H19a3,3,0,0,1-3-3v-24a3,3,0,0,1,3-3H43a3,3,0,0,1,3,3Z" fill="#000000" class="color000000 svgShape"></path><path fill="#59a4ef" d="M19.39,91.83H42.6a1.77,1.77,0,0,1,1.77,1.77v23.22a1.78,1.78,0,0,1-1.78,1.78H19.38a1.78,1.78,0,0,1-1.78-1.78V93.61A1.78,1.78,0,0,1,19.39,91.83Z" class="colorefc959 svgShape"></path><path d="M42.6,91.66H19.38a1.94,1.94,0,0,0-1.94,2v23.21a1.94,1.94,0,0,0,1.94,1.94H42.6a1.94,1.94,0,0,0,1.94-1.94V93.61A1.94,1.94,0,0,0,42.6,91.66Zm1.6,25.16a1.6,1.6,0,0,1-1.6,1.6H19.38a1.6,1.6,0,0,1-1.6-1.6V93.61A1.61,1.61,0,0,1,19.38,92H42.6a1.61,1.61,0,0,1,1.6,1.61Z" fill="#000000" class="color000000 svgShape"></path><path fill="#ffffff" d="M29.94,107.77l-4.16-4.15L23,106.36l5.53,5.52a1.93,1.93,0,0,0,1.37.57,1.9,1.9,0,0,0,1.37-.57l9.63-9.62L38.2,99.52Z" class="colorffffff svgShape"></path><path d="M29.94,112.65a2.11,2.11,0,0,1-1.51-.63l-5.66-5.66,3-3,4.16,4.16,8.26-8.26,3,3L31.45,112A2.09,2.09,0,0,1,29.94,112.65Zm-6.62-6.29,5.39,5.38a1.78,1.78,0,0,0,2.46,0l9.49-9.48L38.2,99.79l-8.26,8.26-4.16-4.15Z" fill="#000000" class="color000000 svgShape"></path></svg>