<svg xmlns="http://www.w3.org/2000/svg" enable-background="new 0 0 850 850" viewBox="0 0 850 850" id="Girlisannouncingwithamegaphone"><g fill="#000000" class="color000000 svgShape"><g fill="#000000" class="color000000 svgShape"><g fill="#000000" class="color000000 svgShape"><rect width="50" height="64" x="231.94" y="194.36" fill="#e9edf2" class="colore9e9f2 svgShape"></rect></g><g fill="#000000" class="color000000 svgShape"><rect width="51" height="34" x="163.94" y="168.36" fill="#e9edf2" class="colore9e9f2 svgShape"></rect></g><g fill="#000000" class="color000000 svgShape"><rect width="34" height="51" x="105.94" y="182.36" fill="#e9edf2" class="colore9e9f2 svgShape"></rect></g><g fill="#000000" class="color000000 svgShape"><rect width="20" height="2" x="246.94" y="202.36" fill="#c8d1db" class="colorc8c9db svgShape"></rect></g><g fill="#000000" class="color000000 svgShape"><rect width="34" height="2" x="239.94" y="212.36" fill="#c8d1db" class="colorc8c9db svgShape"></rect></g><g fill="#000000" class="color000000 svgShape"><rect width="12" height="2" x="260.94" y="220.36" fill="#c8d1db" class="colorc8c9db svgShape"></rect></g><g fill="#000000" class="color000000 svgShape"><rect width="16" height="2" x="240.94" y="220.36" fill="#c8d1db" class="colorc8c9db svgShape"></rect></g><g fill="#000000" class="color000000 svgShape"><rect width="10" height="2" x="263.94" y="228.36" fill="#c8d1db" class="colorc8c9db svgShape"></rect></g><g fill="#000000" class="color000000 svgShape"><rect width="13" height="2" x="248.94" y="228.36" fill="#c8d1db" class="colorc8c9db svgShape"></rect></g><g fill="#000000" class="color000000 svgShape"><rect width="7" height="2" x="238.94" y="228.36" fill="#c8d1db" class="colorc8c9db svgShape"></rect></g><g fill="#000000" class="color000000 svgShape"><rect width="34" height="2" x="171.94" y="177.36" fill="#c8d1db" class="colorc8c9db svgShape"></rect></g><g fill="#000000" class="color000000 svgShape"><rect width="12" height="2" x="192.94" y="185.36" fill="#c8d1db" class="colorc8c9db svgShape"></rect></g><g fill="#000000" class="color000000 svgShape"><rect width="16" height="2" x="172.94" y="185.36" fill="#c8d1db" class="colorc8c9db svgShape"></rect></g><g fill="#000000" class="color000000 svgShape"><rect width="10" height="2" x="195.94" y="193.36" fill="#c8d1db" class="colorc8c9db svgShape"></rect></g><g fill="#000000" class="color000000 svgShape"><rect width="13" height="2" x="180.94" y="193.36" fill="#c8d1db" class="colorc8c9db svgShape"></rect></g><g fill="#000000" class="color000000 svgShape"><rect width="7" height="2" x="170.94" y="193.36" fill="#c8d1db" class="colorc8c9db svgShape"></rect></g><g fill="#000000" class="color000000 svgShape"><path fill="#c8d1db" d="M133.15,220.97l-6.32-8.13l-3.23,3.26l-5.47-12.76c-0.12-0.28-0.37-0.48-0.67-0.54
				c-0.3-0.06-0.6,0.03-0.82,0.25l-1.03,1.03l-4.59-10.33l1.83-0.81l3.55,7.98c0.46-0.15,0.95-0.18,1.44-0.09
				c0.95,0.18,1.75,0.82,2.13,1.71l4.3,10.04l1.17-1.17c0.4-0.4,0.96-0.6,1.52-0.58c0.57,0.04,1.09,0.31,1.44,0.76l6.32,8.12
				L133.15,220.97z" class="colorc8c9db svgShape"></path></g></g><g fill="#000000" class="color000000 svgShape"><g fill="#000000" class="color000000 svgShape"><path fill="#83b4e5" d="M167.97,410.85l-52.51,40.33v56.66c1.8,0.16,3.62,0.26,5.46,0.26c33.15,0,60.02-26.87,60.02-60.02
				C180.94,434.02,176.08,421.09,167.97,410.85z" class="colore5b283 svgShape"></path></g><g fill="#000000" class="color000000 svgShape"><path fill="#c8d1db" d="M167.97,410.85c-10.99-13.87-27.98-22.78-47.05-22.78c-1.84,0-3.66,0.1-5.46,0.26v62.86L167.97,410.85z" class="colorc8c9db svgShape"></path></g><g fill="#000000" class="color000000 svgShape"><path fill="#adcdee" d="M60.9,448.09c0,13.45,4.67,25.86,12.54,35.87c10.46,13.29,26.59,22.32,44.99,23.89v-56.66v-62.86
				C86.18,391.09,60.9,416.78,60.9,448.09z" class="coloreecead svgShape"></path></g></g><g fill="#000000" class="color000000 svgShape"><path fill="#c8d1db" d="M779.46,664.07H507.23c-5.33,0-9.64-4.32-9.64-9.64V201.87c0-5.33,4.32-9.64,9.64-9.64h272.23
			c5.33,0,9.64,4.32,9.64,9.64v452.55C789.1,659.75,784.78,664.07,779.46,664.07z" class="colorc8c9db svgShape"></path></g><g fill="#000000" class="color000000 svgShape"><rect width="265.67" height="372.66" x="510.21" y="251.14" fill="#ffffff" class="colorffffff svgShape"></rect></g><g fill="#000000" class="color000000 svgShape"><rect width="98.57" height="21.64" x="593.15" y="634.48" fill="#96c8fb" class="colorfba996 svgShape"></rect></g><g fill="#000000" class="color000000 svgShape"><g fill="#000000" class="color000000 svgShape"><path fill="#adcdee" d="M704.48,338.83c5.49,0,10.37,2.65,13.42,6.74l6.89-6.83c-3.86-4.61-9.65-7.54-16.13-7.54H584.47v7.64H704.48
				z" class="coloreecead svgShape"></path></g><g fill="#000000" class="color000000 svgShape"><path fill="#c8d1db" d="M724.79,338.74l-6.89,6.83c2.08,2.79,3.3,6.24,3.3,9.98v24.49h-38.07h-98.66h-17.94v-24.49
				c0-9.24,7.49-16.72,16.72-16.72h1.22v-7.64h-5.39c-11.62,0-21.03,9.42-21.03,21.03v33.52h26.43h92.92h52.31v-33.52
				C729.69,347.09,727.85,342.39,724.79,338.74z" class="colorc8c9db svgShape"></path></g></g><g fill="#000000" class="color000000 svgShape"><path fill="#c8d1db" d="M724.69,505.02H558.68c-16.15,0-29.24-13.09-29.24-29.24v-78.73c0-16.15,13.09-29.24,29.24-29.24h166.01
			c16.15,0,29.24,13.09,29.24,29.24v78.73C753.94,491.93,740.84,505.02,724.69,505.02z" class="colorc8c9db svgShape"></path></g><g fill="#000000" class="color000000 svgShape"><path fill="#ffffff" d="M710.25,501.38H569.73c-17.57,0-31.81-14.24-31.81-31.81v-43.54c0-17.57,14.24-31.81,31.81-31.81h140.52
			c17.57,0,31.81,14.24,31.81,31.81v43.54C742.06,487.14,727.82,501.38,710.25,501.38z" class="colorffffff svgShape"></path></g><g fill="#000000" class="color000000 svgShape"><circle cx="583.01" cy="447.08" r="32" fill="#96c8fb" class="colorfba996 svgShape"></circle></g><g fill="#000000" class="color000000 svgShape"><rect width="79.52" height="48.97" x="651.87" y="412.65" fill="#adcdee" class="coloreecead svgShape"></rect></g><g fill="#000000" class="color000000 svgShape"><rect width="9.21" height="9.21" x="653.32" y="413.62" fill="#e9edf2" class="colore9e9f2 svgShape"></rect></g><g fill="#000000" class="color000000 svgShape"><rect width="9.21" height="9.21" x="653.32" y="426.23" fill="#e9edf2" class="colore9e9f2 svgShape"></rect></g><g fill="#000000" class="color000000 svgShape"><rect width="9.21" height="9.21" x="653.32" y="438.83" fill="#e9edf2" class="colore9e9f2 svgShape"></rect></g><g fill="#000000" class="color000000 svgShape"><rect width="9.21" height="9.21" x="653.32" y="451.44" fill="#e9edf2" class="colore9e9f2 svgShape"></rect></g><g fill="#000000" class="color000000 svgShape"><rect width="9.21" height="9.21" x="666.9" y="413.62" fill="#e9edf2" class="colore9e9f2 svgShape"></rect></g><g fill="#000000" class="color000000 svgShape"><rect width="9.21" height="9.21" x="666.9" y="426.23" fill="#e9edf2" class="colore9e9f2 svgShape"></rect></g><g fill="#000000" class="color000000 svgShape"><rect width="9.21" height="9.21" x="666.9" y="438.83" fill="#e9edf2" class="colore9e9f2 svgShape"></rect></g><g fill="#000000" class="color000000 svgShape"><rect width="9.21" height="9.21" x="666.9" y="451.44" fill="#e9edf2" class="colore9e9f2 svgShape"></rect></g><g fill="#000000" class="color000000 svgShape"><rect width="9.21" height="9.21" x="680.48" y="413.62" fill="#e9edf2" class="colore9e9f2 svgShape"></rect></g><g fill="#000000" class="color000000 svgShape"><rect width="9.21" height="9.21" x="680.48" y="426.23" fill="#e9edf2" class="colore9e9f2 svgShape"></rect></g><g fill="#000000" class="color000000 svgShape"><rect width="9.21" height="9.21" x="680.48" y="438.83" fill="#e9edf2" class="colore9e9f2 svgShape"></rect></g><g fill="#000000" class="color000000 svgShape"><rect width="9.21" height="9.21" x="680.48" y="451.44" fill="#e9edf2" class="colore9e9f2 svgShape"></rect></g><g fill="#000000" class="color000000 svgShape"><rect width="9.21" height="9.21" x="694.05" y="413.62" fill="#e9edf2" class="colore9e9f2 svgShape"></rect></g><g fill="#000000" class="color000000 svgShape"><rect width="9.21" height="9.21" x="694.05" y="426.23" fill="#e9edf2" class="colore9e9f2 svgShape"></rect></g><g fill="#000000" class="color000000 svgShape"><rect width="9.21" height="9.21" x="694.05" y="438.83" fill="#e9edf2" class="colore9e9f2 svgShape"></rect></g><g fill="#000000" class="color000000 svgShape"><rect width="9.21" height="9.21" x="694.05" y="451.44" fill="#e9edf2" class="colore9e9f2 svgShape"></rect></g><g fill="#000000" class="color000000 svgShape"><rect width="9.21" height="9.21" x="707.63" y="413.62" fill="#e9edf2" class="colore9e9f2 svgShape"></rect></g><g fill="#000000" class="color000000 svgShape"><rect width="9.21" height="9.21" x="707.63" y="426.23" fill="#e9edf2" class="colore9e9f2 svgShape"></rect></g><g fill="#000000" class="color000000 svgShape"><rect width="9.21" height="9.21" x="707.63" y="438.83" fill="#e9edf2" class="colore9e9f2 svgShape"></rect></g><g fill="#000000" class="color000000 svgShape"><rect width="9.21" height="9.21" x="707.63" y="451.44" fill="#e9edf2" class="colore9e9f2 svgShape"></rect></g><g fill="#000000" class="color000000 svgShape"><rect width="9.21" height="9.21" x="721.21" y="413.62" fill="#e9edf2" class="colore9e9f2 svgShape"></rect></g><g fill="#000000" class="color000000 svgShape"><rect width="9.21" height="9.21" x="721.21" y="426.23" fill="#e9edf2" class="colore9e9f2 svgShape"></rect></g><g fill="#000000" class="color000000 svgShape"><rect width="9.21" height="9.21" x="721.21" y="438.83" fill="#e9edf2" class="colore9e9f2 svgShape"></rect></g><g fill="#000000" class="color000000 svgShape"><rect width="9.21" height="9.21" x="721.21" y="451.44" fill="#e9edf2" class="colore9e9f2 svgShape"></rect></g><g fill="#000000" class="color000000 svgShape"><path fill="#adcdee" d="M611.08,446.27L611.08,446.27c0-2.34-1.89-4.23-4.22-4.24l-1.77,0c-0.69-3.67-2.26-7.03-4.49-9.85l1.16-1.34
			c1.53-1.77,1.34-4.44-0.43-5.97l0,0c-1.77-1.53-4.44-1.34-5.97,0.43l-1.16,1.33c-2.18-1.27-4.58-2.18-7.15-2.67v-1.77
			c0-2.34-1.89-4.23-4.23-4.23l0,0c-2.34,0-4.23,1.89-4.23,4.23v1.77c-3.65,0.69-6.98,2.25-9.78,4.46l-1.33-1.16
			c-1.76-1.53-4.43-1.35-5.97,0.42l0,0c-1.53,1.76-1.35,4.44,0.42,5.97l1.33,1.16c-1.27,2.18-2.19,4.58-2.68,7.14l-1.76,0
			c-2.34,0-4.23,1.89-4.24,4.22l0,0c0,2.34,1.89,4.23,4.22,4.24l1.77,0c0.69,3.67,2.26,7.03,4.49,9.85l-1.16,1.34
			c-1.53,1.77-1.34,4.44,0.43,5.97l0,0c1.77,1.53,4.44,1.34,5.97-0.43l1.16-1.33c2.18,1.27,4.58,2.18,7.15,2.67v1.76
			c0,2.34,1.89,4.23,4.23,4.23l0,0c2.34,0,4.23-1.89,4.23-4.23v-1.76c3.65-0.69,6.98-2.25,9.78-4.46l1.33,1.16
			c1.76,1.53,4.44,1.35,5.97-0.42l0,0c1.53-1.76,1.35-4.44-0.42-5.97l-1.33-1.16c1.27-2.18,2.19-4.58,2.68-7.14l1.76,0
			C609.18,450.5,611.08,448.61,611.08,446.27z M582.83,460.01c-7.61,0-13.78-6.17-13.78-13.78s6.17-13.78,13.78-13.78
			s13.78,6.17,13.78,13.78S590.45,460.01,582.83,460.01z" class="coloreecead svgShape"></path></g><g fill="#000000" class="color000000 svgShape"><circle cx="582.83" cy="446.23" r="14.3" fill="#96c8fb" class="colorfba996 svgShape"></circle></g><g fill="#000000" class="color000000 svgShape"><circle cx="582.83" cy="446.23" r="7.7" fill="#dceaf8" class="colordceff8 svgShape"></circle></g><g fill="#000000" class="color000000 svgShape"><rect width="78.07" height="4.85" x="652.11" y="465.75" fill="#c8d1db" class="colorc8c9db svgShape"></rect></g><g fill="#000000" class="color000000 svgShape"><rect width="78.07" height="4.85" x="652.11" y="474.47" fill="#c8d1db" class="colorc8c9db svgShape"></rect></g><g fill="#000000" class="color000000 svgShape"><rect width="78.07" height="4.85" x="652.11" y="483.2" fill="#c8d1db" class="colorc8c9db svgShape"></rect></g><g fill="#000000" class="color000000 svgShape"><g fill="#000000" class="color000000 svgShape"><path fill="#95bde5" d="M366.24,358.56c0,0-7.36,11.73-5.18,20.73c0,0-15.82,1.64-22.91-2.45c0,0,4.91-15,3-21.82L366.24,358.56z" class="colore5959d svgShape"></path></g><g fill="#000000" class="color000000 svgShape"><path fill="#acd2f9" d="M356.42,338.65c6.67,2.92,11.27-12.81,13.07-20.38c0.1,0.16,8.72,6,7.07,17.71
				c-0.08,0.57-0.04,1.14,0.12,1.7c0.39,1.39,1.52,4.07,4.7,7.65c0.11,0.12,0.18,0.27,0.2,0.43c0.06,0.57-0.15,1.88-3.07,2.71
				c0,0-0.55,1.91,0.27,3l-1.91,1.36l0.82,2.45l-1.56,0.89c-0.19,0.11-0.28,0.34-0.21,0.55c0.52,1.53,1.69,7.42-12.14,4.56
				c0,0-16.45-2.53-22.29-4.67C348.66,349.94,343.55,332.85,356.42,338.65z" class="colorf9aeac svgShape"></path></g><g fill="#000000" class="color000000 svgShape"><path fill="#021b79" d="M327.95,323.69c1.06-1.12,2.97-2.08,6.37-1.4c8.04-15.01,29.37-12.77,35.16-4.02
				c-1.8,7.57-6.4,23.3-13.07,20.38c-12.87-5.81-7.76,11.28-14.93,17.97c-0.22-0.08-0.43-0.16-0.62-0.24
				c-5.13,0.04-6.27-6.55-7.64-10.36c-15.24,6.25-19.27-17.49-9.56-19.84C325.31,325.78,326.8,324.91,327.95,323.69z" class="color100259 svgShape"></path></g><g fill="#000000" class="color000000 svgShape"><path fill="#4060d7" d="M380.16,352.08c0,0,30.77,0,51.75-22.38c0,0,20.98,13.99,5.59,40.56c0,0-39.16-12.59-57.34-8.39V352.08z" class="colord79840 svgShape"></path></g><g fill="#000000" class="color000000 svgShape"><rect width="5.59" height="13.99" x="385.75" y="359.08" fill="#526093" class="color915293 svgShape"></rect></g><g fill="#000000" class="color000000 svgShape"><path fill="#4060d7" d="M398.34,371.67c0,0-3.85-6.18-7.73-8.53c-2.12-1.28-4.8,0.66-4.31,3.08
				C386.96,369.41,389.48,373.44,398.34,371.67z" class="colord79840 svgShape"></path></g><g fill="#000000" class="color000000 svgShape"><path fill="#4060d7" d="M452.42,376.22l-1.87-0.72c13.56-35.25-5.15-53.28-5.34-53.45l1.36-1.46
				C446.77,320.77,466.49,339.65,452.42,376.22z" class="colord79840 svgShape"></path></g><g fill="#000000" class="color000000 svgShape"><polygon fill="#bbddff" points="365.47 659.07 366.87 668.87 372.47 674.46 372.47 678.66 366.87 677.26 359.88 671.66 361.28 656.28" class="colorffc1bb svgShape"></polygon></g><g fill="#000000" class="color000000 svgShape"><path fill="#0575e6" d="M373.91,672.12c1.67,1.91,3.74,4.27,5.18,5.92c0.95,1.08,0.44,2.79-0.95,3.16
				c-3.74,0.99-11.14,1.06-21.02-8.15c-0.86-0.8-1.1-2.06-0.58-3.11l0.64-1.29c0.56-1.13,2.08-1.33,2.92-0.4
				c1.72,1.92,4.67,4.17,8.19,2.6C370.24,669.99,372.52,670.52,373.91,672.12z" class="color195ecb svgShape"></path></g><g fill="#000000" class="color000000 svgShape"><path fill="#bbddff" d="M217.5,520.39c0,0-11.47-7.69-16.86-5.25c-0.91,0.41-1.04,1.65-0.21,2.21l13.54,9.08L217.5,520.39z" class="colorffc1bb svgShape"></path></g><g fill="#000000" class="color000000 svgShape"><path fill="#bbddff" d="M226.31,377.26l-2.8-13.99c0,0,7.51-13.77-3.52-12.89c-1.02,0.08-1.71,1.06-1.39,2.04
				c0.85,2.6,1.82,7.6-1.43,11.54c-0.39,0.47-0.59,1.06-0.48,1.66l2.62,14.44L226.31,377.26z" class="colorffc1bb svgShape"></path></g><g fill="#000000" class="color000000 svgShape"><path fill="#0575e6" d="M204.01,513.52c-2.14-2.59-5.67-5.48-8.99-2.06c-1.14,1.18-1.28,3-0.29,4.31c1.44,1.9,4.1,4.18,7.96,2.7
				C204.7,517.7,205.38,515.17,204.01,513.52z" class="color195ecb svgShape"></path></g><g fill="#000000" class="color000000 svgShape"><path fill="#4060d7" d="M382.26,498.24l-13.99,163.63h-8.39c0,0-19.58-16.78-9.79-65.73c0,0,4.2-11.19,0-34.96l-16.78-76.92
				l29.37,2.8L382.26,498.24z" class="colord79840 svgShape"></path></g><g fill="#000000" class="color000000 svgShape"><path fill="#4060d7" d="M351.49,491.24l-62.78,82.81c-3.61,5.08-9.45,8.1-15.68,8.1l0,0c-5.27,0-10.31-2.16-13.94-5.98l-48.86-45.77
				l8.39-13.99L265,544.25c1.68,1.01,3.61,1.54,5.58,1.54l0,0c4.15,0,7.94-2.37,9.75-6.11l19.42-40.04L351.49,491.24z" class="colord79840 svgShape"></path></g><g fill="#000000" class="color000000 svgShape"><path fill="#268aef" d="M371.77,374.46c0,0-7.65,8.3-38.79-1.44c0,0-21.35-5.55-29.74,4.24c0,0-29.37,40.56-74.13-6.99l-13.99,5.59
				c0,0,18.18,74.13,100.7,50.35c0,0,6.99,57.34-22.38,44.75c0,0-13.99,5.59-16.78,15.38c0,0-18.18,13.99-26.57-1.4
				c0,0,12.59,57.34,86.71,9.79c0,0,37.76,18.18,53.15,1.4c-7.52-30.18-10.64-57.31-6.99-79.72c0,0,61.54,26.57,40.56-26.57
				l-26.57-20.98l-5.59,5.59l15.38,15.38l0,0c-1.84,0-3.66-0.41-5.32-1.21L371.77,374.46z" class="color2698ef svgShape"></path></g></g></g></svg>