<svg xmlns="http://www.w3.org/2000/svg" viewBox="0 0 4000 4000" id="HappyEidMubarakgreetingbyMuslimcouple"><path fill="#add5fd" d="M3281.6 1385.3v74.6c0 12.4-10 22.5-22.4 22.5-6.2 0-11.8 2.5-15.9 6.6s-6.6 9.7-6.6 15.9v1270.5c0 12.4-10 22.4-22.4 22.4H2189.6c-12.4 0-22.4-10-22.4-22.4V1504.8c0-12.4-10.1-22.4-22.5-22.4-6.2 0-11.8-2.5-15.9-6.6s-6.6-9.7-6.6-15.9v-74.6c0-12.4 10-22.4 22.4-22.4h4.9c12.4 0 22.4-10.1 22.4-22.5 0-10.5.5-20.9 1.2-31 5.9-76.8 32.2-142.2 70.7-196.1 19-26.7 40.9-50.5 64.8-71.6 57.6-50.9 126.4-85.6 192.1-104.1 9.8-2.8 19.6-5.2 29.2-7.2 91.9-19.5 134.7-50.4 154.6-74.2 8.9-10.7 25.5-10.7 34.4 0 19.9 23.8 62.7 54.7 154.6 74.2 162.2 34.4 357.1 170.9 358 410.1.1 12.4 10 22.5 22.4 22.5h4.9c12.8-.2 22.8 9.9 22.8 22.3z" class="coloradd4fd svgShape"></path><path fill="#c7e3ff" d="M3236.7 1565.4V1804c-86.8 66.2-258.5 161-447.2 68.1-296.2-145.8 8-559.3-207.5-587.7-210.5-27.8-292.1-122.3-273.2-242.8 57.6-50.9 126.4-85.6 192.1-104.1-12.7 31.2-6.7 64.6 48.3 89.3 138.1 62.2 346.6-23.5 482.9 196.6 70.1 113.2-5.5 321.1 204.6 342z" class="colorc7e4ff svgShape"></path><path fill="#c7e3ff" d="M2493.4 1868.4c103-185 107.6-482.8-111.2-582.7-104.7-47.8-135-115.2-138.2-172.5-38.4 54-64.8 119.3-70.7 196.1 82.3 82.7 16.1 216.2-6.2 385.3V1879c6 38.8 16.6 78.9 33.2 120.2 160.6 398.4 501.9 296.2 963 352.6 26.5 3.2 50.9 7.3 73.4 12.1v-314.4c-344.9-103.9-847.7 6.4-743.3-181.1zm-44.8-371.5c-20.8 17-61.4 1.6-90.7-34.3-29.3-35.9-36.2-78.8-15.5-95.7 20.8-17 61.4-1.6 90.7 34.3 29.4 35.8 36.3 78.7 15.5 95.7z" class="colorc7e4ff svgShape"></path><ellipse cx="3145" cy="1470.3" fill="#c7e3ff" rx="24.3" ry="42" transform="rotate(-39.222 3144.998 1470.4)" class="colorc7e4ff svgShape"></ellipse><path fill="none" d="M3281.6 1385.3v74.6c0 12.4-10 22.5-22.4 22.5-6.2 0-11.8 2.5-15.9 6.6s-6.6 9.7-6.6 15.9v1270.5c0 12.4-10 22.4-22.4 22.4H2189.6c-12.4 0-22.4-10-22.4-22.4V1504.8c0-12.4-10.1-22.4-22.5-22.4-6.2 0-11.8-2.5-15.9-6.6s-6.6-9.7-6.6-15.9v-74.6c0-12.4 10-22.4 22.4-22.4h4.9c12.4 0 22.4-10.1 22.4-22.5 0-10.5.5-20.9 1.2-31 5.9-76.8 32.2-142.2 70.7-196.1 19-26.7 40.9-50.5 64.8-71.6 57.6-50.9 126.4-85.6 192.1-104.1 9.8-2.8 19.6-5.2 29.2-7.2 91.9-19.5 134.7-50.4 154.6-74.2 8.9-10.7 25.5-10.7 34.4 0 19.9 23.8 62.7 54.7 154.6 74.2 162.2 34.4 357.1 170.9 358 410.1.1 12.4 10 22.5 22.4 22.5h4.9c12.8-.2 22.8 9.9 22.8 22.3z"></path><path fill="#d1e6fc" d="M1824.5 1385.3v74.6c0 12.4-10 22.5-22.4 22.5-6.2 0-11.8 2.5-15.9 6.6s-6.6 9.7-6.6 15.9v1270.5c0 12.4-10 22.4-22.4 22.4H732.5c-12.4 0-22.4-10-22.4-22.4V1504.8c0-12.4-10-22.4-22.4-22.4-6.2 0-11.8-2.5-15.9-6.6s-6.6-9.7-6.6-15.9v-74.6c0-12.4 10.1-22.4 22.5-22.4h4.9c12.4 0 22.4-10.1 22.4-22.5 0-10.5.5-20.9 1.2-31 5.9-76.8 32.2-142.2 70.7-196.1 19-26.7 40.9-50.5 64.8-71.6 57.6-50.9 126.4-85.6 192.1-104.1 9.8-2.8 19.6-5.2 29.2-7.2 91.9-19.5 134.7-50.4 154.6-74.2 8.9-10.7 25.5-10.7 34.4 0 19.9 23.8 62.7 54.7 154.6 74.2 162.2 34.4 357.1 170.9 358 410.1 0 12.4 10 22.5 22.4 22.5h4.9c12.6-.2 22.6 9.9 22.6 22.3z" class="colorfceed1 svgShape"></path><path fill="#e3f1ff" d="M1779.6 1565.4V1804c-86.8 66.2-258.5 161-447.2 68.1-296.2-145.8 8-559.3-207.5-587.7-210.5-27.8-292.1-122.3-273.2-242.8 57.6-50.9 126.4-85.6 192.1-104.1-12.7 31.2-6.7 64.6 48.3 89.3 138.1 62.2 346.6-23.5 482.9 196.6 70.1 113.2-5.5 321.1 204.6 342z" class="colorfff5e3 svgShape"></path><path fill="#e3f1ff" d="M1036.3 1868.4c103-185 107.6-482.8-111.2-582.7-104.7-47.8-135-115.2-138.2-172.5-38.4 54-64.8 119.3-70.7 196.1 82.4 82.7 16.1 216.2-6.2 385.3V1879c6 38.8 16.6 78.9 33.2 120.2 160.6 398.4 501.9 296.2 963 352.6 26.5 3.2 50.9 7.3 73.4 12.1v-314.4c-344.9-103.9-847.7 6.4-743.3-181.1zm-44.8-371.5c-20.8 17-61.4 1.6-90.7-34.3-29.3-35.9-36.2-78.8-15.5-95.7 20.8-17 61.4-1.6 90.7 34.3 29.4 35.8 36.3 78.7 15.5 95.7z" class="colorfff5e3 svgShape"></path><ellipse cx="1687.9" cy="1470.3" fill="#e3f1ff" rx="24.3" ry="42" transform="rotate(-39.222 1687.881 1470.358)" class="colorfff5e3 svgShape"></ellipse><path fill="none" d="M1824.5 1385.3v74.6c0 12.4-10 22.5-22.4 22.5-6.2 0-11.8 2.5-15.9 6.6s-6.6 9.7-6.6 15.9v1270.5c0 12.4-10 22.4-22.4 22.4H732.5c-12.4 0-22.4-10-22.4-22.4V1504.8c0-12.4-10-22.4-22.4-22.4-6.2 0-11.8-2.5-15.9-6.6s-6.6-9.7-6.6-15.9v-74.6c0-12.4 10.1-22.4 22.5-22.4h4.9c12.4 0 22.4-10.1 22.4-22.5 0-10.5.5-20.9 1.2-31 5.9-76.8 32.2-142.2 70.7-196.1 19-26.7 40.9-50.5 64.8-71.6 57.6-50.9 126.4-85.6 192.1-104.1 9.8-2.8 19.6-5.2 29.2-7.2 91.9-19.5 134.7-50.4 154.6-74.2 8.9-10.7 25.5-10.7 34.4 0 19.9 23.8 62.7 54.7 154.6 74.2 162.2 34.4 357.1 170.9 358 410.1 0 12.4 10 22.5 22.4 22.5h4.9c12.6-.2 22.6 9.9 22.6 22.3z"></path><linearGradient id="a" x1="2755.227" x2="3328.813" y1="854.017" y2="854.017" gradientTransform="rotate(39.104 -122.724 -1775.45)" gradientUnits="userSpaceOnUse"><stop offset=".1" stop-color="#2954f7" class="stopColorf7c629 svgShape"></stop><stop offset="1" stop-color="#0031e9" class="stopColore98e00 svgShape"></stop></linearGradient><path fill="url(#a)" d="M861.9 2485.4s15.7-176.5-85.3-263.7c-36.1-31.2-63.6-50.7-74.1-50.4-10.5.2-28.3 20.5-32.1 12-3.8-8.6 20.4-20-19.4-35.6-39.8-15.7-53.3-22.7-67.2-20.1-13.9 2.6-11.9 8.2-29.8-8.3s-56.9-11.7-75.3-6.9c-18.4 4.8-60.3 13.8-66.3 17.4-6.1 3.6 2.5 5.9 27.1 26.6 24.6 20.7 33.4 58.1 49.5 56.4 16.1-1.7 29.2-9.7 33.3-5.2 4.2 4.4-12.2 12.8-10.3 20.3s48.2 26.6 69.4 57.2c21.1 30.7 47.3 28.8 68.5 53.9 21.2 25.1 36.9 16 45.1 22.3 8.2 6.4-6.6 20.3 3.9 37l2.5 7.1 160.5 80z"></path><path fill="#0031e9" d="M422.5 2131.5s314.4 32.8 369.6 319.1l22.6 11.3s-75.9-228.4-203.1-277.3c-127.2-49-153-55.8-189.1-53.1z" class="colore98e00 svgShape"></path><linearGradient id="b" x1="2898.452" x2="3555.868" y1="831.633" y2="831.633" gradientTransform="scale(-1 1) rotate(53.187 -68.55 -2633.142)" gradientUnits="userSpaceOnUse"><stop offset=".1" stop-color="#1a44e3" class="stopColore1e31a svgShape"></stop><stop offset="1" stop-color="#092db5" class="stopColor8bb509 svgShape"></stop></linearGradient><path fill="url(#b)" d="m918.2 2529.9 163.6-218.5-10.1-9c-21-28.9-54.5-13.6-59.6-31.8-5.1-18.2 21-38.3-6.8-91.1-27.8-52.7-6.8-95.5-43.9-151.9-37.1-56.4-37.6-147.1-48.9-155.6-11.3-8.5-36.5 13.4-41.1 3.4-4.6-10.1 17.6-26.5 31.5-52.4 13.9-26-42.9-66.3-61-121.7-18.1-55.4-16-71.5-26.2-63.7-10.2 7.8-53.9 72.1-74.6 99.6-20.6 27.5-55.2 89.9-39.8 131.2 15.4 41.3 7.4 34.2-6.5 55.8-13.9 21.5-11.2 48.9-12.1 126.5-.8 77.7 34.8 44.8 46.6 57 11.8 12.2-34.4 28.3-42 45.7-7.6 17.5 13.3 75 34.2 159 21.2 83.9 196.7 217.5 196.7 217.5zm-97.9-573.2c-.9-10.1 14.3-19.8 34-21.6 19.7-1.8 36.4 5 37.3 15.2.9 10.1-14.3 19.8-34 21.6-19.6 1.7-36.4-5.1-37.3-15.2z"></path><path fill="#092db5" d="M811.6 1655.9S604.1 2095.3 981.7 2445l14.3-19.1s-228.8-169-224.2-416.1c4.6-247.2 10.7-295.2 39.8-353.9z" class="color8bb509 svgShape"></path><linearGradient id="c" x1="1655.981" x2="1583.12" y1="2487.954" y2="2910.551" gradientTransform="matrix(-1 0 0 1 2332.071 0)" gradientUnits="userSpaceOnUse"><stop offset="0" stop-color="#5dacfb" class="stopColor5db7fb svgShape"></stop><stop offset="1" stop-color="#005ab4" class="stopColor007ab4 svgShape"></stop></linearGradient><path fill="url(#c)" d="M429 2396.1c33.2 32.4 41.9 87.3 65.3 86.5 23.4-.8 43-10.8 48.6-4 5.6 6.8-19 17.1-16.9 28.1 2 11.1 66.6 43.4 93.8 89.8 27.2 46.4 65.1 46.6 92.9 85 27.8 38.4 51.4 26.9 62.6 37 11.2 10.1-11.6 28.6 1.6 53.8l2.9 21.6h212.8s-32.5-223.2-85.1-267.7c-52.5-44.6-86.2-79.8-101.4-80.6-15.1-.8-43 26.5-47.5 13.8s31.5-26.6-24.2-53.4c-55.7-26.8-74.3-38.4-94.6-36.1-20.3 2.3-18.1 10.5-42.1-15.1s-80.7-22.9-107.6-18c-26.9 5-88.2 13.5-97.4 18-9.1 4.7 3.1 8.8 36.3 41.3zm186.1 107.1c7.9-4.5 16.2-4.7 18.7-.4s-1.9 11.5-9.7 16c-7.9 4.5-16.2 4.7-18.7.4-2.6-4.3 1.8-11.5 9.7-16zm-25.3-43.7c15.7-9.1 32.5-9.5 37.5-.9s-3.8 22.9-19.5 32c-15.7 9.1-32.5 9.5-37.5.9s3.8-22.9 19.5-32z"></path><path fill="#0575e6" d="M407.3 2358.5s386.8 7.1 503 400.1l-18.7 3.5s-39.8-223-217.7-307-214.4-96.6-266.6-96.6z" class="color007ab4 svgShape"></path><linearGradient id="d" x1="-6789.283" x2="-6215.697" y1="8611.392" y2="8611.392" gradientTransform="scale(-1 1) rotate(39.103 4026.97 9909.453)" gradientUnits="userSpaceOnUse"><stop offset=".1" stop-color="#2954f7" class="stopColorf7c629 svgShape"></stop><stop offset="1" stop-color="#0031e9" class="stopColore98e00 svgShape"></stop></linearGradient><path fill="url(#d)" d="M3138.1 2485.4s-15.7-176.5 85.3-263.7c36.1-31.2 63.6-50.7 74.1-50.4 10.5.2 28.3 20.5 32.1 12 3.8-8.6-20.4-20 19.4-35.6 39.8-15.7 53.3-22.7 67.2-20.1s11.9 8.2 29.8-8.3c17.9-16.4 56.9-11.7 75.3-6.9s60.3 13.8 66.3 17.4-2.5 5.9-27.1 26.6c-24.6 20.7-33.4 58.1-49.5 56.4-16.1-1.7-29.2-9.7-33.3-5.2-4.2 4.4 12.2 12.8 10.3 20.3s-48.2 26.6-69.4 57.2c-21.1 30.7-47.3 28.8-68.5 53.9-21.2 25.1-36.9 16-45.1 22.3-8.2 6.4 6.6 20.3-3.9 37l-2.5 7.1-160.5 80z"></path><path fill="#0031e9" d="M3577.5 2131.5s-314.4 32.8-369.6 319.1l-22.6 11.3s75.9-228.4 203.1-277.3c127.2-49 153-55.8 189.1-53.1z" class="colore98e00 svgShape"></path><path fill="#5397db" d="M3278.2 2312.3c20.9-84 41.8-141.5 34.2-159-7.6-17.5-53.8-33.6-42-45.7 11.8-12.2 47.5 20.7 46.6-57-.8-77.7 1.9-105-12.1-126.5-13.9-21.5-21.9-14.5-6.5-55.8 15.4-41.3-19.1-103.6-39.8-131.2-20.6-27.6-64.3-91.8-74.6-99.6-10.2-7.8-8.1 8.3-26.2 63.7-18.1 55.4-74.9 95.8-61 121.7 13.9 26 36.1 42.4 31.5 52.4-4.6 10.1-29.8-11.9-41.1-3.4s-11.7 99.2-48.9 155.6c-37.1 56.4-16.2 99.2-43.9 151.9-27.8 52.7-1.7 72.9-6.8 91.1-5.1 18.2-38.7 2.8-59.6 31.8l-10.1 9 163.6 218.5c.3.1 175.8-133.5 196.7-217.5zm-135.9-340.4c-19.7-1.8-35-11.4-34-21.6.9-10.1 17.6-16.9 37.3-15.2 19.7 1.8 35 11.4 34 21.6-.8 10.1-17.6 16.9-37.3 15.2z" class="color9053db svgShape"></path><path fill="#3d7ec0" d="M3188.4 1655.9s207.5 439.4-170.1 789.1l-14.3-19.1s228.8-169 224.2-416.1-10.7-295.2-39.8-353.9z" class="color6e3dc0 svgShape"></path><linearGradient id="e" x1="13955.097" x2="13882.235" y1="2487.954" y2="2910.551" gradientTransform="translate(-10631.186)" gradientUnits="userSpaceOnUse"><stop offset="0" stop-color="#5dacfb" class="stopColor5db7fb svgShape"></stop><stop offset="1" stop-color="#005ab4" class="stopColor007ab4 svgShape"></stop></linearGradient><path fill="url(#e)" d="M3607.2 2354.9c-9.2-4.6-70.5-13-97.4-18-26.9-5-83.6-7.6-107.6 18s-21.8 17.4-42.1 15.1c-20.3-2.3-38.9 9.2-94.6 36.1-55.7 26.9-19.7 40.7-24.2 53.4-4.5 12.7-32.3-14.6-47.5-13.8-15.1.8-48.8 36-101.4 80.6-52.5 44.6-85.1 267.7-85.1 267.7h212.8l2.9-21.6c13.2-25.2-9.5-43.7 1.6-53.8 11.2-10.1 34.7 1.4 62.6-37 27.8-38.4 65.7-38.6 92.9-85 27.2-46.4 91.7-78.8 93.8-89.8 2-11.1-22.5-21.3-16.9-28.1 5.6-6.8 25.1 3.2 48.6 4 23.4.8 32.1-54.1 65.3-86.5 33.3-32.6 45.5-36.7 36.3-41.3zm-212.5 164.3c-2.5 4.3-10.9 4.1-18.7-.4-7.9-4.5-12.2-11.7-9.7-16 2.5-4.3 10.9-4.1 18.7.4 7.8 4.5 12.2 11.7 9.7 16zm34.9-27.7c-5 8.6-21.7 8.2-37.5-.9-15.7-9.1-24.4-23.4-19.5-32s21.7-8.2 37.5.9 24.5 23.4 19.5 32z"></path><path fill="#0575e6" d="M3592.7 2358.5s-386.8 7.1-503 400.1l18.7 3.5s39.8-223 217.7-307 214.4-96.6 266.6-96.6z" class="color007ab4 svgShape"></path><path fill="#3d7ec0" d="M1478 1773.8s158.1 3.7 134.3 342.9l-136.5 157.2 2.2-500.1z" class="color6e3dc0 svgShape"></path><linearGradient id="f" x1="1707.708" x2="1953.054" y1="1970.216" y2="1970.216" gradientUnits="userSpaceOnUse"><stop offset="0" stop-color="#b7d8f9" class="stopColorf9b8b7 svgShape"></stop><stop offset="1" stop-color="#94c3f2" class="stopColorf29494 svgShape"></stop></linearGradient><path fill="url(#f)" d="m1707.7 2058.3 84.1 74.4 87.1-86.2c12.9-12.7 22.9-28.1 29.3-45.1l44.2-117c4.2-11-12.1-22.2-23.7-2.2l15.1-40.8c5.7-12.1-17-19.6-26.3-.5l5.3-18.9c2.6-14-23.1-24.4-34 2l-7.1 15.3c1.9-12.9-12.7-24.9-20.8-11.3-5.4 9.1-22.4 55.4-31.4 80.4-3.8 10.5-10.5 19.7-19.4 26.4l-32 24.2-3.8-39.2s16-41.7 11.3-54.8c-6.5-17.9-20.7-11.6-20.7-11.6s-57.7 85.7-57.2 204.9z"></path><path fill="#5397db" d="M1203.1 1862.5c-166-17.9-366.2 116.9-268.2 355.5l408.3 433.1s91.8 112.6 192.4 22.9c87.9-78.3 254.8-426.6 295.6-513.5 5.4-11.6 2.3-25.3-7.7-33.4l-104.1-84.4c-11.5-9.3-28.2-8-38.1 3l-244.6 271.6-75.8-315.5c-17.9-75.2-81-131.1-157.8-139.3z" class="color9053db svgShape"></path><path fill="#3d7ec0" d="M1727.3 2350.3c-14.9 12-30.2 24.4-46.7 34.3-24.4 14.7-51.4 23.8-77.7 34.3-14.9 6.5-29.8 12.9-45.1 18.5-21.4 7.7-43 10.8-65.8 12.9-15.3 1.4-31.8-1.9-46.3-4.2-9.6-1.5-17.4-5.4-26.6-9.2-8.4-3.5-17-6.6-24.7-11.6-11.1-7.1-21.6-15.6-31.6-24.1-13.5-11.5-24.6-27.7-34.6-41.5-5.5-7.6-10.2-15.8-14.3-24.2-12.5-25.7-23.3-52.7-30.3-80.5-6.4-25.4-9.6-51.4-12.9-77.3 1.3 10 2.7 20 4 30-5.1-38-9.7-75.9-11.7-114.2-3.7-71.2-1.4-142.4.4-213.6-18.6-9.1-39-15.1-60.4-17.4-166-17.9-366.2 116.9-268.2 355.5l408.3 433.1s91.8 112.6 192.4 22.9c56.2-50 144.6-210.3 211.7-342.2-6.1 6.5-12.8 12.7-19.9 18.5z" opacity=".6" class="color6e3dc0 svgShape"></path><path fill="#3d7ec0" d="m1698.9 2025.1 126.6 102.6c9.1 7.3 12.7 19.5 9.1 30.6-4.1 12.8-10 30.2-16.5 45.9-7.1 17.3-29.1 22.4-43.1 10.1l-129.7-114.2c-11.4-10.1-12.4-27.6-2.1-38.7 11.8-12.7 30-27.6 55.7-36.3z" class="color6e3dc0 svgShape"></path><linearGradient id="g" x1="877.428" x2="1612.265" y1="2273.943" y2="2273.943" gradientUnits="userSpaceOnUse"><stop offset=".1" stop-color="#1a44e3" class="stopColore1e31a svgShape"></stop><stop offset="1" stop-color="#092db5" class="stopColor8bb509 svgShape"></stop></linearGradient><path fill="url(#g)" d="m1178.8 1750.1-139.6 12.5c-61.1 13.1-130.8 50.5-137.5 199.1l-24.3 836.1h734.8l-50-911.2s5.5-102.5-112.4-122.8l-87.9-9.8-183.1-3.9z"></path><path fill="#021b79" d="M918.6 2004.9c14.7 3.5 27.5 10.2 38.4 20.2 12.3 8 22 18.5 29 31.6 17.5 28.7 33.5 58.2 48.4 88.3 54.8 110.6 96.2 227.2 143.5 341 1.8 4.3 3.7 8.6 5.6 12.9 27.7 63.6 61 125.1 71.4 194.5 3.4 22.5 6.9 45.4 7.3 68.3.2 12.1-.7 24-2.1 36h352l-50-911.2s5.5-102.5-112.4-122.8l-24.7-2.8c1.5 5.4 2.8 10.8 4 16.3 5.2 23.5 8.1 47.6 11 71.5 1.9 15.4 3.1 30.8 3.6 46.3 1.5 41.7-2.7 82.8-9.2 124.1-2.3 14.6-5.4 29.1-9.7 43.2-1.9 6.4-4.1 12.7-6.6 19-5.9 14.8-11.8 30-19.3 44.1-9.7 18.3-22.7 35.6-37.3 50.2-22.3 22.3-45.3 34.7-74.4 45.5-14.1 5.2-30.7 6.3-45 7.9-5.5.6-11 .8-16.6.2-33-3.2-60.7-8.4-90-25.3-18.8-10.8-36.9-25.7-50.5-42.9-15.6-19.8-29.6-38.3-40-61.2-19-41.5-33.2-83.7-42.9-128.2-13.2-60.2-20.3-121.3-27.8-182.4-37.8 26.5-68.7 76.1-73.1 172.5l-1.1 39.5c6.5.6 12.5 1.8 18.5 3.7z" opacity=".2" class="color012d68 svgShape"></path><path fill="#2a50dd" d="M1354.2 1805.1c14.6 5.6 29.5 10.3 44.8 13.5h.4c2.2-7.4 4-14.9 5.4-22.5.2-12.8 2.4-25 6.6-36.7l-49.4-5.5-102.6-2.1c30.3 19.9 61.8 38.2 94.8 53.3z" class="colordd2a2a svgShape"></path><path fill="#b7d8f9" d="M1269.1 1863c-56.2 0-101.7-45.5-101.7-101.7v-214.6h203.4v214.6c0 56.2-45.6 101.7-101.7 101.7z" class="colorf9b8b7 svgShape"></path><path fill="#94c3f2" d="M1193.3 1551.8c10 10.9 16.7 23.7 20.2 38.4 2.9 12 6.6 23.8 10.9 35.4 9.6 20.3 21.2 39.6 34.2 57.9 17.3 20.7 36.5 39.8 57.3 57 17.2 12.4 35.3 23.6 54.1 33.3.5-4.1.8-8.3.8-12.5v-214.6h-181.1c1.2 1.7 2.4 3.3 3.6 5.1z" class="colorf29494 svgShape"></path><path fill="#021b79" d="M1490.3 1451.6s80-50.6 24.1-127.7l-398.9-24.5c-11 27-43.8 238.4 81.3 294.9l293.5-142.7z" class="color012d68 svgShape"></path><linearGradient id="h" x1="1290.014" x2="1298.736" y1="1717.208" y2="1263.62" gradientUnits="userSpaceOnUse"><stop offset="0" stop-color="#b7d8f9" class="stopColorf9b8b7 svgShape"></stop><stop offset="1" stop-color="#94c3f2" class="stopColorf29494 svgShape"></stop></linearGradient><path fill="url(#h)" d="M1497.5 1382.5s-.3 108.3-12.9 244.5c-9.5 103-163.3 85.8-223.1 57.4-56.3-26.7-107.8-56.7-116.3-154.8l-6.4-53.4s-61.7-46.6-38.8-100.6c20-47.2 58.7-40.4 79.5-12.5 8.1 10.8 11.6 24.6 13 31.1.4 2.1.6 4.2.6 6.4l-.1 63.2 2.2.4c15.3 2.7 29.6-8 31.4-23.4l5.6-48.4c1.8-15.6 13-28.6 28.3-32.2 19.7-4.7 42.5 4.1 54.4-29.2 0-.2 32.4 74 182.6 51.5z"></path><linearGradient id="i" x1="1115.472" x2="1514.397" y1="1234.213" y2="1234.213" gradientUnits="userSpaceOnUse"><stop offset=".1" stop-color="#1a44e3" class="stopColore1e31a svgShape"></stop><stop offset="1" stop-color="#092db5" class="stopColor8bb509 svgShape"></stop></linearGradient><path fill="url(#i)" d="m1115.5 1299.4 302.9 32.3c34 2.8 58.1 3.3 86-4.9l10-2.9-10.3-117.9c-3.6-41.7-39.7-73.1-81.5-71l-253.2 12.9c-23 1.2-41.6 18.9-44.1 41.7l-9.8 109.8z"></path><path fill="#ffffff" d="m1509.5 1267.4-2.8-31.7h-385.5l-1.9 27.5c18 .2 364.3 4 390.2 4.2z" class="colorffffff svgShape"></path><linearGradient id="j" x1="1674.489" x2="1944.618" y1="1974.414" y2="1974.414" gradientUnits="userSpaceOnUse"><stop offset="0" stop-color="#b7d8f9" class="stopColorf9b8b7 svgShape"></stop><stop offset="1" stop-color="#94c3f2" class="stopColorf29494 svgShape"></stop></linearGradient><path fill="url(#j)" d="m1674.5 2033.4 81.5 98.5 105.2-93.8c4.3-3.9 8-8.4 10.9-13.4l71.2-125c5.9-10.2-8.5-23.8-23.1-5.9l21.2-37.9c7.5-11-13.8-22-25.9-4.6l8.2-17.8c4.8-13.4-19-27.7-33.9-3.3l-9.4 14c3.9-12.5-8.7-26.5-18.8-14.4-5.1 6.2-20.1 32.3-32.6 54.8-12.7 22.8-31.7 41.4-54.6 53.7l-15 8 2.4-39.3s22.3-38.7 19.7-52.4c-3.7-18.8-18.6-14.7-18.6-14.7s-70.4 75.6-88.4 193.5z"></path><path fill="#5397db" d="M1136 1863c-38.6-106.2-329-126-249.7 207.6l260.5 494.3s73.1 125.5 186.5 52.6c98.6-63.4 373.2-381.1 443.1-462.9 9.4-11 9.2-27.2-.5-38l-87.2-96.8c-10.1-11.2-27-12.7-38.9-3.6l-335.2 257.6L1136 1863z" class="color9053db svgShape"></path><path fill="#3d7ec0" d="m1776 2116.7-53.3-59.1c-2.1 26.1-5.4 52.7-12.3 78-5 18.3-12.8 35.6-20.4 53-3.7 8.6-8 16.9-12.9 24.8-15.5 24.7-34.6 48.8-57.2 67.5-36.9 30.7-77.3 58-119.5 80.9-26.8 14.6-54.8 26.7-83.1 38.1-18.8 7.6-38.1 14-58 17.8-18.6 3.6-37.5 6.4-56.4 7.4-18 1-35.8-1.9-53.5-4.8-6.6-1.1-13.1-2.7-19.4-5.1-14.8-5.7-30.8-11.7-44.6-20.2-42.7-26.2-74.8-64.1-101.7-105.8-35.7-55.2-57.1-117.6-85.5-176.6-20.7-43-43.1-85.2-64.8-127.7-16.8-32.9-33-66-48-99.7-15.8 43.2-18.5 103.7.9 185.4l260.5 494.3s73.1 125.5 186.5 52.6c98.6-63.4 373.2-381.1 443.1-462.9 9.4-10.9 9.2-27.1-.4-37.9z" opacity=".6" class="color6e3dc0 svgShape"></path><path fill="#3d7ec0" d="m1682 2012.4 98.3 109.1c7.7 8.5 9.3 20.8 4.1 31-6.5 12.9-16 30.9-25.6 46.4-8.9 14.3-29.1 15.7-39.9 2.7l-114.2-137.7c-8.7-10.5-7.2-26.1 3.3-34.8 10.5-8.6 25.5-18.5 45-24.7 10.4-3.2 21.7-.1 29 8z" class="color6e3dc0 svgShape"></path><path fill="#5397db" d="m1167.3 1726.3 131.7 132.2-13.3 13.2c-17.5 17.3-51.1 18.7-67.5.4l-101.8-113.9 50.9-31.9zM1370.8 1726.3l-71.7 132.2 13.3 13.2c17.5 17.3 45.9 16.5 62.3-1.8l51.1-111.3-55-32.3z" class="color9053db svgShape"></path><path fill="#021b79" d="M1172.4 1449.8c-2.6 0-4.8-1.9-5.1-4.5 0-.2-1.9-13.8-9-27.6-9.2-17.8-22.7-27.5-40-29-2.9-.2-5-2.7-4.7-5.6.2-2.9 2.7-5 5.6-4.7 20.9 1.7 37.6 13.8 48.4 34.8 7.9 15.4 9.9 30.2 10 30.8.4 2.8-1.6 5.4-4.5 5.8h-.7z" class="color012d68 svgShape"></path><path fill="#021b79" d="M1135.7 1427.1c-1.3 0-2.5-.5-3.5-1.4-2.1-2-2.2-5.2-.2-7.3l18.6-19.8c2-2.1 5.2-2.2 7.3-.2 2.1 2 2.2 5.2.2 7.3l-18.6 19.8c-1.1 1.1-2.4 1.6-3.8 1.6z" class="color012d68 svgShape"></path><path fill="#94c3f2" d="m1679 2009.5 128.5 76.5-31.5 30.7z" class="colorf29494 svgShape"></path><path fill="#94c3f2" d="m1707.7 2032.2 136.6 48.5-34.6 34.3z" class="colorf29494 svgShape"></path><path fill="#021b79" d="M1259.4 2333.3c-1.3 0-2.7-.5-3.7-1.6-2-2-2-5.3.1-7.3l55.3-54.2c2-2 5.3-2 7.3.1 2 2 2 5.3-.1 7.3l-55.3 54.2c-1 1-2.3 1.5-3.6 1.5zM1357.8 1711.7c-77.6 0-141-45.2-143.8-47.3-2.3-1.7-2.8-4.9-1.2-7.2 1.7-2.3 4.9-2.8 7.2-1.2.8.6 70.7 50.3 150.3 44.9 2.9-.2 5.3 2 5.5 4.8.2 2.9-2 5.3-4.8 5.5-4.3.4-8.8.5-13.2.5z" class="color012d68 svgShape"></path><path fill="#021b79" d="m896.9 2090.7-2.7 130.4 144.7 139.2z" opacity=".2" class="color012d68 svgShape"></path><path fill="#021b79" d="M1776 2121.9c-1.4 0-2.7-.5-3.7-1.6-2-2.1-1.9-5.3.2-7.3l95.6-91.5 59.9-105.1c1.4-2.5 4.6-3.4 7.1-1.9 2.5 1.4 3.4 4.6 1.9 7.1l-60.2 105.8c-.2.4-.6.8-.9 1.2l-96.1 92c-1.3.8-2.6 1.3-3.8 1.3z" class="color012d68 svgShape"></path><path fill="#3d7ec0" d="M2490.1 1773.8s-158.1 3.7-134.3 342.9l136.5 157.2-2.2-500.1z" class="color6e3dc0 svgShape"></path><linearGradient id="k" x1="-6906.326" x2="-6660.98" y1="1970.216" y2="1970.216" gradientTransform="matrix(-1 0 0 1 -4645.973 0)" gradientUnits="userSpaceOnUse"><stop offset="0" stop-color="#b7d8f9" class="stopColorf9b8b7 svgShape"></stop><stop offset="1" stop-color="#94c3f2" class="stopColorf29494 svgShape"></stop></linearGradient><path fill="url(#k)" d="m2260.3 2058.3-84.1 74.4-87.1-86.2c-12.9-12.7-22.9-28.1-29.3-45.1l-44.2-117c-4.2-11 12.1-22.2 23.7-2.2l-15.1-40.8c-5.7-12.1 17-19.6 26.3-.5l-5.3-18.9c-2.6-14 23.1-24.4 34 2l7.1 15.3c-1.9-12.9 12.7-24.9 20.8-11.3 5.4 9.1 22.4 55.4 31.4 80.4 3.8 10.5 10.5 19.7 19.4 26.4l32 24.2 3.8-39.2s-16-41.7-11.3-54.8c6.5-17.9 20.7-11.6 20.7-11.6s57.8 85.7 57.2 204.9z"></path><linearGradient id="l" x1="2134.104" x2="3059.019" y1="2284.767" y2="2284.767" gradientUnits="userSpaceOnUse"><stop offset=".1" stop-color="#2954f7" class="stopColorf7c629 svgShape"></stop><stop offset="1" stop-color="#0031e9" class="stopColore98e00 svgShape"></stop></linearGradient><path fill="url(#l)" d="M2764.9 1862.5c166-17.9 366.2 116.9 268.2 355.5l-408.3 433.1s-91.8 112.6-192.4 22.9c-87.9-78.3-254.8-426.6-295.6-513.5-5.4-11.6-2.3-25.3 7.7-33.4l104.1-84.4c11.5-9.3 28.2-8 38.1 3l244.6 271.6 75.8-315.5c18-75.2 81.1-131.1 157.8-139.3z"></path><path fill="#0031e9" d="M2240.8 2350.3c14.9 12 30.2 24.4 46.7 34.3 24.4 14.7 51.4 23.8 77.7 34.3 14.9 6.5 29.8 12.9 45.1 18.5 21.4 7.7 43 10.8 65.8 12.9 15.3 1.4 31.8-1.9 46.3-4.2 9.6-1.5 17.4-5.4 26.6-9.2 8.4-3.5 17-6.6 24.7-11.6 11.1-7.1 21.6-15.6 31.6-24.1 13.5-11.5 24.6-27.7 34.6-41.5 5.5-7.6 10.2-15.8 14.3-24.2 12.5-25.7 23.3-52.7 30.3-80.5 6.4-25.4 9.6-51.4 12.9-77.3-1.3 10-2.7 20-4 30 5.1-38 9.7-75.9 11.7-114.2 3.7-71.2 1.4-142.4-.4-213.6 18.6-9.1 39-15.1 60.4-17.4 166-17.9 366.2 116.9 268.2 355.5L2625 2651.1s-91.8 112.6-192.4 22.9c-56.2-50-144.6-210.3-211.7-342.2 6.1 6.5 12.8 12.7 19.9 18.5z" class="colore98e00 svgShape"></path><path fill="#3d7ec0" d="m2269.1 2025.1-126.6 102.6c-9.1 7.3-12.7 19.5-9.1 30.6 4.1 12.8 10 30.2 16.5 45.9 7.1 17.3 29.1 22.4 43.1 10.1l129.7-114.2c11.4-10.1 12.4-27.6 2.1-38.7-11.8-12.7-29.9-27.6-55.7-36.3z" class="color6e3dc0 svgShape"></path><linearGradient id="m" x1="2868.88" x2="3545.631" y1="2346.12" y2="2544.082" gradientUnits="userSpaceOnUse"><stop offset=".1" stop-color="#284cd2" class="stopColord22a28 svgShape"></stop><stop offset="1" stop-color="#0026b3" class="stopColorb30000 svgShape"></stop></linearGradient><path fill="url(#m)" d="m2789.3 1750.1 139.6 12.5c61.1 13.1 130.8 50.5 137.5 199.1l24.3 836.1h-734.8l50-911.2s-5.5-102.5 112.4-122.8l87.9-9.8 183.1-3.9z"></path><path fill="#0026b3" d="M3049.5 2004.9c-14.7 3.5-27.5 10.2-38.4 20.2-12.3 8-22 18.5-29 31.6-17.5 28.7-33.5 58.2-48.4 88.3-54.8 110.6-96.2 227.2-143.5 341-1.8 4.3-3.7 8.6-5.6 12.9-27.7 63.6-61 125.1-71.4 194.5-3.4 22.5-6.9 45.4-7.3 68.3-.2 12.1.7 24 2.1 36h-352l50-911.2s-5.5-102.5 112.4-122.8l24.7-2.8c-1.5 5.4-2.8 10.8-4 16.3-5.2 23.5-8.1 47.6-11 71.5-1.9 15.4-3.1 30.8-3.6 46.3-1.5 41.7 2.7 82.8 9.2 124.1 2.3 14.6 5.4 29.1 9.7 43.2 1.9 6.4 4.1 12.7 6.6 19 5.9 14.8 11.8 30 19.3 44.1 9.7 18.3 22.7 35.6 37.3 50.2 22.3 22.3 45.3 34.7 74.4 45.5 14.1 5.2 30.7 6.3 45 7.9 5.5.6 11 .8 16.6.2 33-3.2 60.7-8.4 90-25.3 18.8-10.8 36.9-25.7 50.5-42.9 15.6-19.8 29.6-38.3 40-61.2 19-41.5 33.2-83.7 42.9-128.2 13.2-60.2 20.3-121.3 27.8-182.4 37.8 26.5 68.7 76.1 73.1 172.5l1.1 39.5c-6.5.6-12.5 1.8-18.5 3.7z" class="colorb30000 svgShape"></path><path fill="#94c3f2" d="m2260.4 2032.2-136.6 48.5 34.5 34.3z" class="colorf29494 svgShape"></path><linearGradient id="n" x1="2281.701" x2="3080.375" y1="1760.977" y2="1760.977" gradientUnits="userSpaceOnUse"><stop offset=".1" stop-color="#284cd2" class="stopColord22a28 svgShape"></stop><stop offset="1" stop-color="#0026b3" class="stopColorb30000 svgShape"></stop></linearGradient><path fill="url(#n)" d="M2931.3 1548.8c-53.4-173.5-53.1-270.2-158.4-317.3-58.3-26-125.3-26-183.6 0-105.4 47-105.1 143.7-158.4 317.3-24.6 80.1-60.3 146.2-95.2 197.5-81.6 120.1-69.8 280.8 30.2 386.1 141.1 148.5 315.2 177.5 315.2 177.5s174.1-29 315.2-177.5c100-105.2 111.8-266 30.2-386.1-35-51.3-70.6-117.4-95.2-197.5z"></path><path fill="#0026b3" d="M3026.5 1746.4c-34.9-51.4-70.5-117.5-95.2-197.5-26.4-85.9-39.7-153-59.2-204.6 1 14.1 1.2 28.2.4 42.5-5.8 103.7-41.2 200.7-79.7 296-17.2 42.4-35.5 84.6-50 128-7 21-13.6 42.2-21.3 63-9.9 26.4-20.5 53.5-35.6 77.4-9.4 15-20.4 29.2-32.2 42.3-11.9 13-26.5 24-40.8 34-14.7 10.3-31.6 16.7-48.1 23.3-11 4.4-22.5 7.2-34.2 9.3-31.6 5.8-63.8 9.3-96 7.1-32.1-2.2-64.6-7-95.5-16.2-11.6-3.4-22.9-7.5-34.1-12.1 14 33.9 34.3 65.7 60.8 93.6C2506.9 2281 2681 2310 2681 2310s174.1-29 315.2-177.5c100-105.3 111.9-266.1 30.3-386.1z" class="colorb30000 svgShape"></path><linearGradient id="o" x1="2649.018" x2="2659.583" y1="1774.556" y2="1225.17" gradientUnits="userSpaceOnUse"><stop offset="0" stop-color="#b7d8f9" class="stopColorf9b8b7 svgShape"></stop><stop offset="1" stop-color="#94c3f2" class="stopColorf29494 svgShape"></stop></linearGradient><path fill="url(#o)" d="M2843 1460.2c-28.9-83.9-102.7-153.9-188.9-154.1-86.2-.2-147 59.1-188.6 154.1-4.9 88.9 2.4 171.6 23 208.9 17.4 31.2 93.5 90.3 165.8 90.3 72.3 0 147.5-54.2 165.8-90.3 17.1-28.7 27.8-120 22.9-208.9z"></path><path fill="#021b79" d="M2654.1 1306.1s-119.9-14.2-188.6 154.1c0 0 2.3-3.7 6.8-9.7 89.8-118.8 267.6-120.1 360.5-3.7 6.5 8.2 9.9 13.4 9.9 13.4-68.6-168.3-188.6-154.1-188.6-154.1z" class="color012d68 svgShape"></path><linearGradient id="p" x1="-6939.544" x2="-6669.417" y1="1974.414" y2="1974.414" gradientTransform="matrix(-1 0 0 1 -4645.973 0)" gradientUnits="userSpaceOnUse"><stop offset="0" stop-color="#b7d8f9" class="stopColorf9b8b7 svgShape"></stop><stop offset="1" stop-color="#94c3f2" class="stopColorf29494 svgShape"></stop></linearGradient><path fill="url(#p)" d="m2293.6 2033.4-81.5 98.5-105.2-93.8c-4.3-3.9-8-8.4-10.9-13.4l-71.2-125c-5.9-10.2 8.5-23.8 23.1-5.9l-21.2-37.9c-7.5-11 13.8-22 25.9-4.6l-8.2-17.8c-4.8-13.4 19-27.7 33.9-3.3l9.4 14c-3.9-12.5 8.7-26.5 18.8-14.4 5.1 6.2 20.1 32.3 32.6 54.8 12.7 22.8 31.7 41.4 54.6 53.7l15 8-2.4-39.3s-22.3-38.7-19.7-52.4c3.7-18.8 18.6-14.7 18.6-14.7s70.3 75.6 88.4 193.5z"></path><linearGradient id="q" x1="2184.707" x2="3095.432" y1="2217.167" y2="2217.167" gradientUnits="userSpaceOnUse"><stop offset=".1" stop-color="#2954f7" class="stopColorf7c629 svgShape"></stop><stop offset="1" stop-color="#0031e9" class="stopColore98e00 svgShape"></stop></linearGradient><path fill="url(#q)" d="M2832.1 1863c38.6-106.2 329-126 249.7 207.6l-260.5 494.3s-73.1 125.5-186.5 52.6c-98.6-63.4-373.2-381.1-443.1-462.9-9.4-11-9.2-27.2.5-38l87.2-96.8c10.1-11.2 27-12.7 38.9-3.6l335.2 257.6 178.6-410.8z"></path><path fill="#0031e9" d="m2192.1 2116.7 53.3-59.1c2.1 26.1 5.4 52.7 12.3 78 5 18.3 12.8 35.6 20.4 53 3.7 8.6 8 16.9 12.9 24.8 15.5 24.7 34.6 48.8 57.2 67.5 36.9 30.7 77.3 58 119.5 80.9 26.8 14.6 54.8 26.7 83.1 38.1 18.8 7.6 38.1 14 58 17.8 18.6 3.6 37.5 6.4 56.4 7.4 18 1 35.8-1.9 53.5-4.8 6.6-1.1 13.1-2.7 19.4-5.1 14.8-5.7 30.8-11.7 44.6-20.2 42.7-26.2 74.8-64.1 101.7-105.8 35.7-55.2 57.1-117.6 85.5-176.6 20.7-43 43.1-85.2 64.8-127.7 16.8-32.9 33-66 48-99.7 15.8 43.2 18.5 103.7-.9 185.4l-260.5 494.3s-73.1 125.5-186.5 52.6c-98.6-63.4-373.2-381.1-443.1-462.9-9.5-10.9-9.3-27.1.4-37.9z" class="colore98e00 svgShape"></path><path fill="#94c3f2" d="m2289.1 2009.5-128.5 76.5 31.5 30.7z" class="colorf29494 svgShape"></path><path fill="#021b79" d="M2708.7 2333.3c-1.3 0-2.6-.5-3.6-1.5l-55.3-54.2c-2-2-2.1-5.3-.1-7.3s5.3-2.1 7.3-.1l55.3 54.2c2 2 2.1 5.3.1 7.3-1 1.1-2.4 1.6-3.7 1.6zM2171.8 2102.1c-1.2 0-2.5-.4-3.5-1.4l-70.6-64.7c-.4-.4-.7-.8-1-1.2l-65.4-113.3c-1.4-2.5-.6-5.6 1.9-7.1 2.5-1.4 5.6-.6 7.1 1.9l65 112.6 70 64.1c2.1 1.9 2.3 5.2.3 7.3-1 1.2-2.4 1.8-3.8 1.8z" class="color012d68 svgShape"></path><path fill="#3d7ec0" d="m2286.1 2012.4-98.3 109.1c-7.7 8.5-9.3 20.8-4.1 31 6.5 12.9 16 30.9 25.6 46.4 8.9 14.3 29.1 15.7 39.9 2.7l114.2-137.7c8.7-10.5 7.2-26.1-3.3-34.8-10.5-8.6-25.5-18.5-45-24.7-10.5-3.2-21.8-.1-29 8z" class="color6e3dc0 svgShape"></path><g fill="#2954f7" class="colorf7c629 svgShape"><path d="m2020.3 1277.2 35.7-11.4c5.9-1.9 5.9-10.2 0-12.1l-35.7-11.4c-2-.6-3.5-2.2-4.1-4.1l-11.4-35.7c-1.9-5.9-10.2-5.9-12.1 0l-11.4 35.7c-.6 2-2.2 3.5-4.1 4.1l-35.7 11.4c-5.9 1.9-5.9 10.2 0 12.1l35.7 11.4c2 .6 3.5 2.2 4.1 4.1l11.4 35.7c1.9 5.9 10.2 5.9 12.1 0l11.4-35.7c.6-1.9 2.2-3.5 4.1-4.1zM2049 1114l22.9-7.3c3.8-1.2 3.8-6.6 0-7.8l-22.9-7.3c-1.3-.4-2.2-1.4-2.6-2.6l-7.3-22.9c-1.2-3.8-6.6-3.8-7.8 0l-7.3 22.9c-.4 1.3-1.4 2.2-2.6 2.6l-22.9 7.3c-3.8 1.2-3.8 6.6 0 7.8l22.9 7.3c1.3.4 2.2 1.4 2.6 2.6l7.3 22.9c1.2 3.8 6.6 3.8 7.8 0l7.3-22.9c.4-1.2 1.3-2.2 2.6-2.6zM1932.4 1175.6l16-5.1c2.6-.8 2.6-4.6 0-5.4l-16-5.1c-.9-.3-1.6-1-1.8-1.8l-5.1-16c-.8-2.6-4.6-2.6-5.4 0l-5.1 16c-.3.9-1 1.6-1.8 1.8l-16 5.1c-2.6.8-2.6 4.6 0 5.4l16 5.1c.9.3 1.6 1 1.8 1.8l5.1 16c.8 2.6 4.6 2.6 5.4 0l5.1-16c.3-.9 1-1.6 1.8-1.8z" fill="#000000" class="color000000 svgShape"></path></g><g fill="#2954f7" class="colorf7c629 svgShape"><path d="m3172.8 3106.7 35.7-11.4c5.9-1.9 5.9-10.2 0-12.1l-35.7-11.4c-2-.6-3.5-2.2-4.1-4.1l-11.4-35.7c-1.9-5.9-10.2-5.9-12.1 0l-11.4 35.7c-.6 2-2.2 3.5-4.1 4.1l-35.7 11.4c-5.9 1.9-5.9 10.2 0 12.1l35.7 11.4c2 .6 3.5 2.2 4.1 4.1l11.4 35.7c1.9 5.9 10.2 5.9 12.1 0l11.4-35.7c.6-1.9 2.2-3.5 4.1-4.1zM3201.5 2943.5l22.9-7.3c3.8-1.2 3.8-6.6 0-7.8l-22.9-7.3c-1.3-.4-2.2-1.4-2.6-2.6l-7.3-22.9c-1.2-3.8-6.6-3.8-7.8 0l-7.3 22.9c-.4 1.3-1.4 2.2-2.6 2.6l-22.9 7.3c-3.8 1.2-3.8 6.6 0 7.8l22.9 7.3c1.3.4 2.2 1.4 2.6 2.6l7.3 22.9c1.2 3.8 6.6 3.8 7.8 0l7.3-22.9c.4-1.2 1.4-2.2 2.6-2.6zM3085 3005.1l16-5.1c2.6-.8 2.6-4.6 0-5.4l-16-5.1c-.9-.3-1.6-1-1.8-1.8l-5.1-16c-.8-2.6-4.6-2.6-5.4 0l-5.1 16c-.3.9-1 1.6-1.8 1.8l-16 5.1c-2.6.8-2.6 4.6 0 5.4l16 5.1c.9.3 1.6 1 1.8 1.8l5.1 16c.8 2.6 4.6 2.6 5.4 0l5.1-16c.2-.9.9-1.6 1.8-1.8zM870.3 3106.7l-35.7-11.4c-5.9-1.9-5.9-10.2 0-12.1l35.7-11.4c2-.6 3.5-2.2 4.1-4.1l11.4-35.7c1.9-5.9 10.2-5.9 12.1 0l11.4 35.7c.6 2 2.2 3.5 4.1 4.1l35.7 11.4c5.9 1.9 5.9 10.2 0 12.1l-35.7 11.4c-2 .6-3.5 2.2-4.1 4.1l-11.4 35.7c-1.9 5.9-10.2 5.9-12.1 0l-11.4-35.7c-.6-1.9-2.2-3.5-4.1-4.1zM841.6 2943.5l-22.9-7.3c-3.8-1.2-3.8-6.6 0-7.8l22.9-7.3c1.3-.4 2.2-1.4 2.6-2.6l7.3-22.9c1.2-3.8 6.6-3.8 7.8 0l7.3 22.9c.4 1.3 1.4 2.2 2.6 2.6l22.9 7.3c3.8 1.2 3.8 6.6 0 7.8l-22.9 7.3c-1.3.4-2.2 1.4-2.6 2.6l-7.3 22.9c-1.2 3.8-6.6 3.8-7.8 0l-7.3-22.9c-.4-1.2-1.3-2.2-2.6-2.6zM958.2 3005.1l-16-5.1c-2.6-.8-2.6-4.6 0-5.4l16-5.1c.9-.3 1.6-1 1.8-1.8l5.1-16c.8-2.6 4.6-2.6 5.4 0l5.1 16c.3.9 1 1.6 1.8 1.8l16 5.1c2.6.8 2.6 4.6 0 5.4l-16 5.1c-.9.3-1.6 1-1.8 1.8l-5.1 16c-.8 2.6-4.6 2.6-5.4 0l-5.1-16c-.3-.9-1-1.6-1.8-1.8z" fill="#000000" class="color000000 svgShape"></path></g><path fill="#021b79" d="M1865.5 2799.1H653.2c-2.9 0-5.2-2.3-5.2-5.2s2.3-5.2 5.2-5.2h1212.3c2.9 0 5.2 2.3 5.2 5.2s-2.3 5.2-5.2 5.2zM3308.1 2799.1H2095.8c-2.9 0-5.2-2.3-5.2-5.2s2.3-5.2 5.2-5.2h1212.3c2.9 0 5.2 2.3 5.2 5.2s-2.4 5.2-5.2 5.2z" class="color012d68 svgShape"></path><g fill="#284cd2" class="colord22a28 svgShape"><path d="M1150.8 2999.1h17.7v-55.4c0-1.4-.2-2.6-.5-3.4-.3-.8-.8-1.5-1.4-2-.6-.5-1.3-.8-2.1-1-.8-.2-1.7-.2-2.7-.2-1.4 0-3.2.2-5.3.7-2.1.5-4.3 1.1-6.7 2-2.3.9-4.7 2-7.1 3.4-2.4 1.3-4.5 2.8-6.3 4.5-1.9 1.7-3.4 3.6-4.5 5.6-1.2 2.1-1.8 4.3-1.8 6.7 0 2.1.3 3.7.8 5 .6 1.2 1.2 2.2 1.9 2.8.7.6 1.4 1 2.2 1.2.7.2 1.3.2 1.6.2 1.6 0 3-.3 4-.8 1-.6 2-1.1 2.8-1.8l2.4-1.8c.7-.6 1.6-.8 2.6-.8.8 0 1.6.2 2.5.5.9.4 1.7.9 2.4 1.7.7.8 1.4 1.8 1.9 3.1s.8 2.8.8 4.6c0 2.6-.5 4.8-1.5 6.7-1 1.9-2.3 3.5-3.9 4.7-1.6 1.3-3.4 2.2-5.5 2.8-2 .6-4.1.9-6.1.9-3.1 0-5.9-.5-8.4-1.6s-4.6-2.5-6.4-4.4c-1.8-1.9-3.1-4.1-4-6.6-.9-2.5-1.4-5.2-1.4-8.1 0-4.5.8-8.6 2.4-12.3 1.6-3.7 3.8-7.1 6.7-10.1 2.8-3 6.1-5.6 9.9-7.8 3.8-2.2 7.9-4.1 12.3-5.6s9-2.6 13.8-3.4c4.8-.7 9.6-1.1 14.4-1.1 5.3 0 9.5.5 12.4 1.5 3 1 5.1 2.2 6.5 3.7 1.4 1.4 2.2 2.9 2.5 4.5.3 1.6.4 2.9.4 3.9v57.5h35.8v-46.8c0-10.7 1.4-19.8 4.2-27.4 2.8-7.5 6.4-13.7 10.8-18.5 4.4-4.8 9.3-8.2 14.8-10.4 5.5-2.2 10.9-3.3 16.3-3.3 3.7 0 7.2.3 10.6.8 3.3.6 6.3 1.4 8.8 2.5 2.5 1.1 4.5 2.5 6 4.1 1.5 1.7 2.2 3.6 2.2 5.8 0 1-.1 1.9-.4 2.8-.3.9-.7 1.7-1.2 2.4s-1.1 1.3-1.8 1.7c-.7.4-1.4.6-2.1.6-1.2 0-2.2-.4-3.1-1.1-.9-.7-1.8-1.6-2.6-2.7s-1.6-2.2-2.4-3.5c-.8-1.3-1.7-2.4-2.6-3.5-1-1.1-2.1-2-3.3-2.7-1.2-.7-2.7-1.1-4.4-1.1-4 0-7.1 1.1-9.4 3.3-2.3 2.2-4.1 5.4-5.4 9.5-1.2 4.2-2 9.4-2.4 15.6-.4 6.2-.5 13.4-.5 21.4v50.3h19.6v8.6H1268v59.2c0 1.9.4 3.4 1.2 4.5.8 1.1 2.1 1.7 3.7 1.7 1.8 0 3.5-.3 5.1-1 1.6-.6 2.9-1.3 4.1-1.9l1.7 3.6c-1.4 1-3.1 2-5 3.1s-4 2.1-6.3 3c-2.3.9-4.8 1.7-7.4 2.3-2.6.6-5.4.9-8.2.9-4.4 0-8-.6-10.7-1.8-2.7-1.2-4.8-2.7-6.3-4.6-1.5-1.9-2.5-4.1-3-6.5-.5-2.4-.7-4.8-.7-7.3v-55.4h-35.8v48.5c0 8.8-1.6 16.5-4.8 23.1-3.2 6.6-7.6 12-13.2 16.4-5.6 4.4-12.2 7.7-19.7 9.8-7.6 2.2-15.7 3.3-24.3 3.3-3.3 0-6.5-.3-9.5-.8-3.1-.6-5.7-1.3-8.1-2.3-2.3-1-4.2-2.1-5.6-3.5-1.4-1.3-2.1-2.8-2.1-4.3 0-1.2.2-2.4.5-3.6.3-1.2.8-2.3 1.5-3.3.6-1 1.4-1.8 2.4-2.4.9-.6 2-1 3.2-1 .7 0 1.3.4 1.9 1.1.6.7 1.1 1.6 1.7 2.7.6 1.1 1.2 2.2 2 3.5.7 1.2 1.7 2.4 2.9 3.5s2.6 2 4.3 2.7c1.7.7 3.8 1.1 6.3 1.1 5 0 9.3-.9 12.9-2.7 3.6-1.8 6.6-4.4 8.9-7.7 2.3-3.3 4.1-7.3 5.2-11.8 1.1-4.6 1.7-9.6 1.7-15v-57.1h-17.7v-8.4zM1332.6 2980.6c-2.2 0-4.3.3-6.1.8-1.9.5-3.5 1.2-4.9 1.9-1.4.8-2.4 1.6-3.2 2.6-.8.9-1.2 1.8-1.2 2.7 0 1 .5 1.7 1.5 2.1 1 .4 2.1.9 3.4 1.5 1.2.6 2.4 1.3 3.4 2.3 1 1 1.5 2.5 1.5 4.6 0 1.4-.3 2.6-.8 3.7-.6 1.1-1.3 2.1-2.2 3-.9.9-2 1.6-3.3 2-1.3.5-2.6.7-3.9.7-3.6 0-6.6-1.2-8.8-3.7-2.2-2.5-3.4-5.7-3.4-9.8 0-4 1-7.4 3.1-10.2 2.1-2.8 4.8-5.1 8.1-7 3.3-1.8 7.1-3.2 11.3-4 4.2-.9 8.4-1.3 12.7-1.3 5.1 0 9.9.6 14.5 1.7s8.7 2.9 12.2 5.3 6.4 5.5 8.5 9.2c2.1 3.7 3.2 8.2 3.2 13.4v55c0 .6 0 1.2.1 1.9s.2 1.4.5 1.9c.3.6.6 1.1 1.2 1.5.5.4 1.3.6 2.2.6 1.2 0 2.3-.4 3.3-1.3s1.9-1.8 2.7-2.7l2.4 2c-1 1.4-2.1 2.9-3.5 4.5s-3 3.1-5 4.6c-1.9 1.4-4.2 2.6-6.8 3.6-2.6 1-5.6 1.5-8.9 1.5-4.1 0-7.7-1.2-10.9-3.7-3.2-2.4-5.3-6.2-6.2-11.2-2.1 2.8-4.2 5.1-6.5 7-2.2 1.9-4.5 3.4-6.9 4.6-2.3 1.2-4.7 2-7.1 2.5-2.4.5-4.8.8-7.2.8-3.1 0-6.1-.5-9.1-1.5-2.9-1-5.5-2.5-7.8-4.6-2.3-2.1-4.2-4.9-5.6-8.2-1.4-3.4-2.1-7.5-2.1-12.4 0-5.9 1.2-10.7 3.5-14.5 2.3-3.8 5.4-6.9 9.2-9.5 3.8-2.6 8.1-4.8 13-6.6 4.8-1.8 9.8-3.7 14.9-5.7 3.8-1.5 6.5-3.7 8.2-6.7 1.7-3 2.6-6 2.6-9.1 0-4.8-1.4-8.7-4.2-11.5-2.9-2.8-6.8-4.3-11.6-4.3zm15.4 42.7c0-1.6-.5-2.9-1.6-3.7-1-.8-2.4-1.3-4-1.3-2.3 0-4.4.5-6.5 1.6-2 1-3.8 2.6-5.4 4.6-1.6 2-2.8 4.5-3.7 7.4-.9 3-1.4 6.4-1.4 10.3 0 3.8.3 6.9.8 9.3.6 2.5 1.3 4.4 2.2 5.9.9 1.5 2 2.5 3.3 3.1 1.2.6 2.5.9 3.9.9 1.7 0 3.3-.4 4.8-1.3s2.8-2 3.9-3.4 2-2.9 2.6-4.6c.6-1.7 1-3.4 1-5.1v-23.7zM1404.7 2989.8c0-1.9-.4-3.5-1.3-4.9-.9-1.4-2.4-2.1-4.4-2.1-1.1 0-2 .2-2.8.6-.8.4-1.6.9-2.5 1.7l-2-2.4c1.5-1.2 3.2-2.4 5-3.7 1.9-1.2 3.8-2.3 6-3.2 2.1-.9 4.4-1.7 6.9-2.2 2.5-.6 5.1-.9 7.8-.9 2.9 0 5.4.5 7.5 1.4 2.1.9 3.8 2 5.2 3.3 1.4 1.3 2.4 2.6 3.2 4 .7 1.4 1.1 2.6 1.3 3.6 1.3-1.8 2.8-3.5 4.6-5 1.8-1.5 3.7-2.8 5.8-3.8 2.1-1.1 4.3-1.9 6.7-2.5a30 30 0 0 1 7.4-.9c5.2 0 9.9 1.1 14.1 3.2 4.2 2.1 7.8 5.3 10.9 9.5 3 4.2 5.3 9.4 7 15.7 1.6 6.2 2.4 13.4 2.4 21.6 0 9.5-1 17.5-3 24.2-2 6.7-4.6 12.1-7.8 16.3-3.2 4.2-6.9 7.3-11 9.2-4.1 1.9-8.3 2.9-12.6 2.9-3.6 0-6.7-.4-9.4-1.1-2.7-.7-5-1.6-7-2.6-1.9-1-3.6-2.1-4.9-3.2-1.3-1.1-2.3-2-3.1-2.7v47.5c0 .8-.1 1.9-.4 3-.3 1.2-.9 2.3-1.9 3.4-1 1.1-2.5 2-4.5 2.8-2 .8-4.7 1.2-8.1 1.2-3.4 0-6.2-.4-8.1-1.2-2-.8-3.5-1.8-4.5-2.9-1-1.1-1.7-2.3-1.9-3.4-.3-1.1-.4-2.1-.4-2.8v-123.6zm29.9 62c0 .5.2 1.4.7 2.7.5 1.3 1.2 2.6 2.1 4 1 1.4 2.2 2.6 3.7 3.7s3.4 1.6 5.6 1.6c2.9 0 5.3-1.1 7.3-3.3 2-2.2 3.7-5.1 5-8.9 1.3-3.7 2.2-8.1 2.8-13 .6-5 .9-10.3.9-15.9 0-6.9-.4-12.8-1.1-17.6-.7-4.8-1.8-8.7-3.3-11.6-1.4-3-3.1-5.1-5.1-6.4-2-1.3-4.2-2-6.7-2-1.4 0-2.9.4-4.3 1.2-1.4.8-2.7 1.8-3.8 3-1.1 1.2-2.1 2.5-2.8 4-.7 1.5-1.1 2.9-1.1 4.3v54.2zM1513 2989.8c0-1.9-.4-3.5-1.3-4.9-.9-1.4-2.4-2.1-4.4-2.1-1.1 0-2 .2-2.8.6-.8.4-1.6.9-2.5 1.7l-2-2.4c1.5-1.2 3.2-2.4 5-3.7 1.9-1.2 3.8-2.3 6-3.2 2.1-.9 4.4-1.7 6.9-2.2 2.5-.6 5.1-.9 7.8-.9 2.9 0 5.4.5 7.5 1.4 2.1.9 3.8 2 5.2 3.3 1.4 1.3 2.4 2.6 3.2 4 .7 1.4 1.1 2.6 1.3 3.6 1.3-1.8 2.8-3.5 4.6-5 1.8-1.5 3.7-2.8 5.8-3.8 2.1-1.1 4.3-1.9 6.7-2.5a30 30 0 0 1 7.4-.9c5.2 0 9.9 1.1 14.1 3.2 4.2 2.1 7.8 5.3 10.9 9.5 3 4.2 5.3 9.4 7 15.7 1.6 6.2 2.4 13.4 2.4 21.6 0 9.5-1 17.5-3 24.2-2 6.7-4.6 12.1-7.8 16.3-3.2 4.2-6.9 7.3-11 9.2-4.1 1.9-8.3 2.9-12.6 2.9-3.6 0-6.7-.4-9.4-1.1-2.7-.7-5-1.6-7-2.6-1.9-1-3.6-2.1-4.9-3.2-1.3-1.1-2.3-2-3.1-2.7v47.5c0 .8-.1 1.9-.4 3-.3 1.2-.9 2.3-1.9 3.4-1 1.1-2.5 2-4.5 2.8-2 .8-4.7 1.2-8.1 1.2-3.4 0-6.2-.4-8.1-1.2-2-.8-3.5-1.8-4.5-2.9-1-1.1-1.7-2.3-1.9-3.4-.3-1.1-.4-2.1-.4-2.8v-123.6zm29.9 62c0 .5.2 1.4.7 2.7.5 1.3 1.2 2.6 2.1 4 1 1.4 2.2 2.6 3.7 3.7s3.4 1.6 5.6 1.6c2.9 0 5.3-1.1 7.3-3.3 2-2.2 3.7-5.1 5-8.9 1.3-3.7 2.2-8.1 2.8-13 .6-5 .9-10.3.9-15.9 0-6.9-.4-12.8-1.1-17.6-.7-4.8-1.8-8.7-3.3-11.6-1.4-3-3.1-5.1-5.1-6.4-2-1.3-4.2-2-6.7-2-1.4 0-2.9.4-4.3 1.2-1.4.8-2.7 1.8-3.8 3-1.1 1.2-2.1 2.5-2.8 4-.7 1.5-1.1 2.9-1.1 4.3v54.2z" fill="#000000" class="color000000 svgShape"></path><path d="M1697.8 2987.9c0 11.9-1.2 23.4-3.5 34.4-2.3 11.1-5.5 21.5-9.5 31.2-4.1 9.7-8.9 18.6-14.5 26.6s-11.7 14.9-18.2 20.6c-6.6 5.7-13.5 10.2-20.8 13.3-7.3 3.2-14.7 4.8-22.2 4.8-5.7 0-10.1-1-13.2-2.9-3.1-1.9-4.7-4.5-4.7-7.7 0-1.2.2-2.4.6-3.6.4-1.2.9-2.2 1.6-3.1.6-.9 1.4-1.6 2.3-2.2.9-.6 1.9-.8 2.9-.8 1.2 0 2.3.6 3.1 1.9.8 1.2 1.7 2.6 2.6 4 .9 1.5 2 2.8 3.3 4 1.3 1.2 3.1 1.9 5.4 1.9 2.9 0 6-.5 9.2-1.5 3.2-1 6.4-2.5 9.6-4.3 3.2-1.9 6.4-4.2 9.6-6.9 3.2-2.7 6.4-5.7 9.5-9-1.8-6.6-3.9-13.7-6.3-21.5-2.4-7.8-4.9-15.6-7.5-23.4-2.6-7.9-5.3-15.4-8.1-22.7-2.8-7.3-5.5-13.8-8.1-19.4-2.6-5.6-5.2-10.2-7.6-13.6-2.4-3.4-4.6-5.1-6.5-5.1-1.2 0-2.2.2-2.9.6-.7.4-1.5.9-2.4 1.7l-1.9-2.4c1.3-1.1 2.7-2.2 4.1-3.4 1.4-1.2 3.1-2.2 5.1-3.2 1.9-1 4.2-1.8 6.8-2.4 2.6-.6 5.7-.9 9.3-.9 4 0 7.6.9 11.1 2.7 3.4 1.8 6.5 5.1 9.3 9.9 2 3.6 4.1 7.9 6.3 12.9s4.4 10.6 6.6 16.8c2.2 6.2 4.4 12.8 6.7 20 2.2 7.2 4.5 14.7 6.8 22.5 4-8.4 7.3-17.4 9.7-26.8 2.5-9.4 3.7-19.2 3.7-29.2 0-3.6-.2-6.6-.7-9.2-.5-2.5-1-4.7-1.6-6.5-.6-1.8-1.1-3.3-1.6-4.6-.5-1.3-.7-2.4-.7-3.4s.4-1.8 1.2-2.5c.8-.7 1.7-1.2 2.8-1.6 1.1-.4 2.2-.7 3.4-.8 1.1-.2 2.1-.2 2.9-.2 1.8 0 3.1.4 4 1.1.9.7 1.6 1.7 2.1 3.1.5 1.3.7 2.9.8 4.8 0 1.6.1 3.7.1 6zM1748.6 2970.4c0-7.6 2.1-14.1 6.3-19.4 4.2-5.3 9.9-9.7 17.2-13.1 7.3-3.4 15.7-5.9 25.4-7.4 9.7-1.6 20-2.3 31.1-2.3 5.3 0 10.4 0 15.4.1s9.6.2 13.7.4 7.7.4 10.7.7c3 .3 5.2.6 6.5.9 1.3.3 2.3.7 3.1 1.1.8.4 1.4.8 1.8 1.4.4.5.6 1.1.8 1.8.1.7.2 1.5.2 2.4 0 .8-.1 1.6-.3 2.6-.2.9-.5 1.8-.9 2.6s-.9 1.5-1.5 2.1c-.6.6-1.3.9-2.1.9-.5 0-1.1-.2-1.7-.7-.6-.5-1.5-1-2.6-1.8-1.1-.7-2.7-1.5-4.6-2.2-1.9-.8-4.5-1.5-7.7-2.2-3.2-.7-7.2-1.3-12-1.8s-10.5-.7-17.3-.7v62.4h40.4v8.6H1830v38.1c0 3.1.5 5.7 1.4 7.8.9 2.2 2.2 4 3.9 5.4 1.7 1.4 3.7 2.5 6.1 3.1 2.4.6 5 1 7.9 1 3.3 0 6.6-.3 9.9-1 3.3-.7 6.4-1.5 9.4-2.6 3-1 5.6-2.2 8.1-3.5 2.4-1.3 4.4-2.6 5.9-3.8l3.8 4.2c-1.6 1.3-3.8 3.1-6.5 5.3-2.7 2.2-6.1 4.4-10 6.6-3.9 2.1-8.5 4-13.7 5.6-5.2 1.6-11.2 2.4-17.8 2.4-2.2 0-4.7-.1-7.5-.3-2.8-.2-5.7-.7-8.7-1.4-3-.7-5.9-1.7-8.8-3-2.9-1.3-5.5-3.1-7.7-5.3-2.2-2.2-4.1-4.9-5.5-8.1-1.4-3.2-2.1-7.1-2.1-11.5v-38.9h-15.2v-8.6h15.2V2937c-2.1.2-4.5.6-7.2 1.1-2.7.6-5.5 1.3-8.3 2.3-2.8 1-5.6 2.2-8.3 3.6-2.7 1.4-5.2 3-7.3 4.8-2.1 1.8-3.9 3.8-5.2 6.1-1.3 2.2-2 4.7-2 7.3 0 2.1.3 3.7.8 5 .6 1.2 1.2 2.2 1.9 2.8.7.6 1.4 1 2.2 1.2.7.2 1.3.2 1.6.2 1.6 0 3-.3 4-.8 1-.6 2-1.1 2.8-1.8l2.4-1.8c.7-.6 1.6-.8 2.6-.8.8 0 1.6.2 2.5.5.9.4 1.7.9 2.4 1.7.7.8 1.4 1.8 1.9 3.1s.8 2.8.8 4.6c0 2.6-.5 4.9-1.5 6.8-1 1.9-2.3 3.5-3.9 4.7-1.6 1.2-3.4 2.2-5.5 2.8-2 .6-4.1.9-6.1.9-3.1 0-5.9-.5-8.4-1.6s-4.6-2.5-6.4-4.4c-1.8-1.9-3.1-4.1-4-6.6-.9-2.7-1.3-5.4-1.3-8.3zM1929.6 3064.9c0 .8-.1 1.9-.4 3.1-.3 1.2-1 2.3-2 3.4-1.1 1.1-2.6 2-4.6 2.7-2 .7-4.7 1.1-8.2 1.1-3.4 0-6.1-.4-8.1-1.2-1.9-.8-3.4-1.8-4.4-2.9-1-1.1-1.6-2.2-1.8-3.4-.2-1.2-.3-2.1-.3-2.8v-75.2c0-1.9-.4-3.5-1.3-4.9-.9-1.4-2.4-2.1-4.4-2.1-1.1 0-2 .2-2.8.6-.8.4-1.6.9-2.5 1.7l-2-2.4c1.5-1.2 3.2-2.4 5-3.7 1.9-1.2 3.8-2.3 6-3.2 2.1-.9 4.4-1.7 6.9-2.2 2.5-.6 5.1-.9 7.8-.9 4.2 0 7.5.6 9.8 1.7 2.3 1.1 4.1 2.5 5.2 4.2 1.1 1.7 1.8 3.4 2 5.3.2 1.9.3 3.5.3 5v76.1zm-32.9-114.5c0-1.8.4-3.6 1.2-5.2.8-1.7 1.9-3.1 3.4-4.3 1.5-1.2 3.1-2.2 5.1-2.9 1.9-.7 4-1.1 6.3-1.1 2.2 0 4.3.4 6.2 1.1 1.9.7 3.6 1.7 5 2.9s2.5 2.7 3.4 4.3c.8 1.7 1.2 3.4 1.2 5.2 0 1.9-.4 3.6-1.2 5.3-.8 1.6-1.9 3-3.4 4.2-1.4 1.2-3.1 2.2-5 2.9-1.9.7-4 1.1-6.2 1.1-2.3 0-4.4-.4-6.3-1.1-1.9-.7-3.6-1.7-5.1-2.9-1.5-1.2-2.6-2.6-3.4-4.2-.8-1.6-1.2-3.4-1.2-5.3zM2007.1 2978c-1.2-6.5-3-12.5-5.2-18.2-2.2-5.6-4.9-10.5-7.9-14.6-3.1-4.1-6.6-7.3-10.5-9.6-3.9-2.3-8.2-3.5-12.7-3.5-2.6 0-5 .3-7.1 1-2.1.6-3.9 1.4-5.5 2.3-1.6.9-2.8 1.7-3.8 2.5s-1.7 1.4-2.2 1.8l-2.5-3.4c1.6-2 3.5-3.9 5.7-5.6 2.2-1.8 4.7-3.2 7.4-4.5 2.7-1.2 5.5-2.2 8.4-2.9 3-.7 5.9-1.1 8.8-1.1 9.6 0 18 2.1 25.3 6.3 7.3 4.2 13.3 10.1 18.2 17.8 4.9 7.7 8.5 16.9 11 27.8 2.5 10.8 3.7 22.9 3.7 36.1 0 10.7-1.1 20.1-3.3 28.2-2.2 8.1-5.3 14.9-9.3 20.4-4 5.5-8.9 9.6-14.7 12.4-5.7 2.8-12.2 4.1-19.4 4.1-5 0-10.1-.9-15.2-2.7-5.2-1.8-9.8-4.7-14-8.7-4.2-4-7.6-9.3-10.3-15.8-2.7-6.5-4-14.5-4-24 0-8.2 1.2-15.5 3.5-21.8 2.3-6.4 5.4-11.7 9.3-16.1 3.9-4.4 8.4-7.7 13.5-10s10.5-3.5 16.3-3.5c2.2 0 4.2.2 5.9.5 1.8.4 3.3.8 4.6 1.3 1.3.5 2.4 1.1 3.4 1.7.9.6 1.8 1.2 2.6 1.8zm1.1 42.8v-4.3c0-2.2-.1-4.7-.2-7.5s-.4-5.8-.7-9c-.3-3.2-.8-6.1-1.6-8.9-1.6-2-3.3-3.8-5.2-5.4-1.9-1.6-4.4-2.4-7.4-2.4-5.1 0-8.8 3.3-11.2 9.9-2.4 6.6-3.6 16.9-3.6 30.8 0 6.1.3 11.7.8 16.8.6 5.1 1.4 9.4 2.5 13 1.1 3.6 2.6 6.5 4.4 8.5 1.8 2 3.9 3 6.4 3 10.6 0 15.8-14.8 15.8-44.5zM2189.8 3038.8l-35.1-69.8-1.3 23.5c-.4 6.8-.7 13.6-1 20.3-.3 6.7-.8 13.1-1.6 19.2s-2 11.7-3.7 16.9c-1.7 5.2-4.1 9.7-7.2 13.5-3.1 3.8-7.2 6.8-12.3 8.9-5 2.1-11.3 3.2-18.8 3.2-3.3 0-6.5-.3-9.5-.8-3.1-.6-5.7-1.3-8.1-2.3-2.3-1-4.2-2.1-5.6-3.5-1.4-1.3-2.1-2.8-2.1-4.3 0-1.2.2-2.4.5-3.6.3-1.2.8-2.3 1.5-3.3.6-1 1.4-1.8 2.4-2.4.9-.6 2-.9 3.2-.9.7 0 1.3.4 1.9 1.1.6.7 1.1 1.6 1.7 2.7.6 1.1 1.2 2.2 2 3.5.7 1.2 1.7 2.4 2.9 3.5s2.6 2 4.3 2.7c1.7.7 3.8 1.1 6.3 1.1 5 0 9.2-.9 12.6-2.6 3.4-1.7 6.2-4.2 8.4-7.4s3.9-7.2 5.1-11.8c1.2-4.6 2-9.8 2.6-15.7.3-3.2.5-6.4.8-9.4.3-3 .5-6 .8-9 .3-3 .5-6 .7-9.1.2-3.1.5-6.3.7-9.8.3-5 .6-9.8.9-14.3.3-4.5.5-8.7.6-12.6.2-3.9.3-7.4.4-10.5.1-3.1.2-5.8.2-8.1-1.1-2.3-2.1-4.1-2.9-5.5-.8-1.4-1.7-2.5-2.6-3.2-.9-.7-1.9-1.2-3-1.5-1.1-.3-2.4-.4-4-.4-1.3 0-2.9.2-4.8.7-1.9.5-3.9 1.2-5.9 2.1-2 .9-4.1 2-6.1 3.4-2 1.3-3.9 2.9-5.5 4.6-1.6 1.7-2.9 3.6-3.9 5.7s-1.5 4.3-1.5 6.7c0 2.1.3 3.7.8 5 .6 1.2 1.2 2.2 1.9 2.8.7.6 1.5 1 2.2 1.2.7.2 1.3.2 1.6.2 1.6 0 3-.3 4-.8 1-.6 2-1.1 2.8-1.8l2.4-1.8c.7-.6 1.6-.8 2.6-.8.8 0 1.6.2 2.5.5.9.4 1.7.9 2.4 1.7.7.8 1.4 1.8 1.9 3.1s.8 2.8.8 4.6c0 2.6-.5 4.8-1.5 6.7-1 1.9-2.3 3.5-3.9 4.7-1.6 1.3-3.4 2.2-5.5 2.8-2 .6-4.1.9-6.1.9-3.1 0-5.9-.5-8.4-1.6s-4.6-2.5-6.4-4.4c-1.8-1.9-3.1-4.1-4-6.6-.9-2.5-1.4-5.2-1.4-8.1 0-6.8 1.6-12.6 4.7-17.7 3.1-5 7.2-9.2 12.3-12.6 5.1-3.4 10.8-5.9 17.2-7.5 6.4-1.7 12.9-2.5 19.5-2.5 5.3 0 9.8.5 13.3 1.6 3.6 1.1 6.6 2.5 9 4.3 2.4 1.8 4.4 3.9 5.9 6.3 1.6 2.4 3 4.9 4.3 7.6l25.7 52.2c6.7-13.2 12.8-25 18.3-35.4 5.5-10.4 10.6-19.6 15.2-27.5 4.7-7.9 9-14.7 13.1-20.3 4.1-5.6 8-10.1 11.8-13.7 3.8-3.5 7.6-6.1 11.3-7.7 3.7-1.6 7.6-2.4 11.6-2.4 3.4 0 6.2.7 8.4 2.2 2.1 1.5 3.2 3.7 3.2 6.6 0 2.6-.4 4.7-1.3 6.4-.8 1.7-2 2.5-3.5 2.5-1.2 0-2.2-.5-2.8-1.4-.6-.9-1.3-2-1.9-3.1-.6-1.1-1.4-2.1-2.3-3.1-.9-.9-2.2-1.4-4-1.4-1 0-2.3.3-3.8.9-1.5.6-3 1.5-4.6 2.6-1.6 1.2-3.2 2.6-4.7 4.4-1.6 1.8-2.9 3.8-4.1 6.1-1.2 2.3-2.1 5-2.7 8-.7 3-.8 6.3-.6 9.8.3 4.1.6 8.9 1.1 14.4.5 5.5 1 11.4 1.5 17.6.6 6.3 1.1 12.7 1.8 19.4.6 6.7 1.2 13.3 1.9 19.8.6 6.5 1.3 12.7 1.9 18.7.6 6 1.2 11.4 1.7 16.2.5 4.8 1 8.9 1.5 12.3.5 3.3.8 5.6 1.1 6.9.4 1.9.9 3.4 1.6 4.5.6 1.1 1.8 1.7 3.5 1.7 1.8 0 3.4-.3 5-.9 1.6-.6 3-1.2 4.2-1.9l1.6 3.6c-1.2.8-2.6 1.8-4.4 2.9-1.8 1.1-3.8 2.1-6.1 3.1s-4.8 1.8-7.6 2.4c-2.8.6-5.7 1-8.9 1-4.5 0-8-.6-10.6-1.7-2.6-1.1-4.6-2.5-6-4.2-1.4-1.7-2.3-3.4-2.8-5.3s-.9-3.5-1.1-5c-.6-3.3-1.2-7.3-1.9-12-.6-4.7-1.3-9.7-1.9-15-.6-5.4-1.2-10.9-1.8-16.6-.6-5.7-1.1-11.2-1.6-16.7-.5-5.4-.9-10.5-1.3-15.3-.4-4.8-.7-9-1-12.6-1.9 3.2-3.7 6.2-5.4 9.2-1.7 3-3.3 6-4.8 9.1-1.6 3.1-3.2 6.3-4.8 9.7-1.6 3.4-3.3 7-5.1 11-1.8 4-3.7 8.3-5.8 13-2.1 4.7-4.4 10-7 15.9h-9.7z" fill="#000000" class="color000000 svgShape"></path><path d="M2386.8 3056.8c0 .6 0 1.2.1 1.9s.2 1.3.5 1.9c.3.6.6 1.1 1.2 1.5.5.4 1.3.6 2.2.6 1.2 0 2.3-.4 3.3-1.3s1.9-1.8 2.7-2.7l2.3 2c-1 1.4-2.2 2.9-3.7 4.5-1.5 1.7-3.2 3.2-5.3 4.7-2.1 1.5-4.4 2.7-7.1 3.7-2.7 1-5.7 1.5-9.1 1.5-2.9 0-5.3-.4-7.4-1.1-2.1-.7-3.9-1.8-5.4-3-1.5-1.3-2.5-2.8-3.3-4.5-.7-1.7-1.1-3.6-1.1-5.5v-4.4c-3.2 3.5-6.7 6.6-10.2 9.3-1.6 1.2-3.2 2.3-5 3.4-1.8 1.1-3.6 2.1-5.5 3a31 31 0 0 1-5.8 2.1c-2 .5-4 .8-6 .8-3.9 0-7.2-.7-10-2.1-2.8-1.4-5-3.2-6.7-5.5-1.7-2.3-2.9-4.8-3.7-7.7-.8-2.9-1.2-5.7-1.2-8.6V2991c0-.6 0-1.2-.1-1.9s-.2-1.3-.5-1.9c-.3-.6-.6-1.1-1.2-1.5-.5-.4-1.3-.6-2.2-.6-1.2 0-2.3.4-3.3 1.3s-1.9 1.8-2.7 2.7l-2.4-2c1-1.4 2.2-2.9 3.7-4.5 1.5-1.7 3.2-3.2 5.3-4.7 2.1-1.5 4.5-2.7 7.2-3.7s5.7-1.5 9-1.5c2.9 0 5.4.4 7.5 1.1 2.1.7 3.9 1.8 5.4 3 1.4 1.3 2.5 2.8 3.2 4.5.7 1.7 1.1 3.6 1.1 5.5v65.1c0 .9.1 1.8.4 2.8.3.9.7 1.8 1.3 2.6.6.8 1.2 1.4 2.1 1.9.8.5 1.9.7 3 .7 1.9 0 3.8-.5 5.6-1.5 1.9-1 3.6-2.1 5.2-3.5 1.6-1.3 2.9-2.6 4-3.9 1.1-1.3 2-2.3 2.5-2.9v-56.9c0-.6 0-1.2-.1-1.9s-.2-1.3-.5-1.9c-.3-.6-.6-1.1-1.2-1.5-.5-.4-1.3-.6-2.2-.6-1.2 0-2.3.4-3.3 1.3s-1.9 1.8-2.7 2.7l-2.4-2c1-1.4 2.2-2.9 3.7-4.5 1.5-1.7 3.2-3.2 5.3-4.7 2.1-1.5 4.5-2.7 7.2-3.7s5.7-1.5 9-1.5c2.9 0 5.4.4 7.5 1.1 2.1.7 3.9 1.8 5.4 3 1.4 1.3 2.5 2.8 3.2 4.5.7 1.7 1.1 3.6 1.1 5.5v69.8zM2409.2 2939.3c0-1.9-.4-3.5-1.3-4.9-.9-1.4-2.4-2.1-4.4-2.1-1.1 0-2.1.2-2.9.5-.8.4-1.7.9-2.6 1.6l-1.9-2.3c1.5-1.2 3.2-2.4 5-3.7 1.9-1.2 3.8-2.3 6-3.2 2.1-.9 4.4-1.7 6.9-2.2 2.5-.6 5.1-.9 7.8-.9 3.8 0 6.8.6 9.1 1.7s4.1 2.5 5.3 4.2c1.2 1.7 2 3.4 2.4 5.4.4 1.9.6 3.7.6 5.3v43.4c.8-.7 1.8-1.6 3-2.7s2.8-2.1 4.7-3.2c1.9-1 4.1-1.9 6.8-2.6 2.6-.7 5.7-1.1 9.3-1.1 4.2 0 8.3 1 12.5 2.9 4.2 1.9 7.9 4.9 11.2 9 3.3 4.1 6 9.3 8.1 15.8 2.1 6.4 3.1 14.2 3.1 23.2 0 7.1-1 13.8-2.9 20.1-1.9 6.3-4.8 11.8-8.5 16.5-3.8 4.7-8.5 8.4-14.1 11.2-5.6 2.7-12.2 4.1-19.7 4.1-8.1 0-14.9-1.3-20.5-3.9-5.6-2.6-10-6.2-13.4-10.6-3.4-4.4-5.8-9.6-7.3-15.5s-2.2-12.1-2.2-18.7v-87.3zm58 85.9c0-5.6-.3-11-.9-15.9-.6-5-1.5-9.3-2.8-13-1.3-3.7-3-6.7-5-8.9s-4.4-3.3-7.3-3.3c-2.2 0-4.1.5-5.6 1.6s-2.8 2.3-3.7 3.7-1.7 2.7-2.1 4c-.5 1.3-.7 2.2-.7 2.7v29.1c0 14.2 1.2 24.4 3.6 30.9 2.4 6.4 5.9 9.6 10.5 9.6 4.9 0 8.4-3.3 10.7-9.8 2.2-6.6 3.3-16.8 3.3-30.7zM2544.8 2980.6c-2.2 0-4.3.3-6.1.8-1.9.5-3.5 1.2-4.9 1.9-1.4.8-2.4 1.6-3.2 2.6-.8.9-1.2 1.8-1.2 2.7 0 1 .5 1.7 1.5 2.1 1 .4 2.1.9 3.4 1.5 1.2.6 2.4 1.3 3.4 2.3 1 1 1.5 2.5 1.5 4.6 0 1.4-.3 2.6-.8 3.7-.6 1.1-1.3 2.1-2.2 3-.9.9-2 1.6-3.3 2-1.3.5-2.6.7-3.9.7-3.6 0-6.6-1.2-8.8-3.7-2.2-2.5-3.4-5.7-3.4-9.8 0-4 1-7.4 3.1-10.2 2.1-2.8 4.8-5.1 8.1-7 3.3-1.8 7.1-3.2 11.3-4 4.2-.9 8.4-1.3 12.7-1.3 5.1 0 9.9.6 14.5 1.7s8.7 2.9 12.2 5.3 6.4 5.5 8.5 9.2c2.1 3.7 3.2 8.2 3.2 13.4v55c0 .6 0 1.2.1 1.9s.2 1.4.5 1.9c.3.6.6 1.1 1.2 1.5.5.4 1.3.6 2.2.6 1.2 0 2.3-.4 3.3-1.3s1.9-1.8 2.7-2.7l2.4 2c-1 1.4-2.1 2.9-3.5 4.5s-3 3.1-5 4.6-4.2 2.6-6.8 3.6c-2.6 1-5.6 1.5-8.9 1.5-4.1 0-7.7-1.2-10.9-3.7-3.2-2.4-5.3-6.2-6.2-11.2-2.1 2.8-4.2 5.1-6.5 7-2.2 1.9-4.5 3.4-6.9 4.6-2.3 1.2-4.7 2-7.1 2.5-2.4.5-4.8.8-7.2.8-3.1 0-6.1-.5-9.1-1.5-2.9-1-5.5-2.5-7.8-4.6-2.3-2.1-4.2-4.9-5.6-8.2-1.4-3.4-2.1-7.5-2.1-12.4 0-5.9 1.2-10.7 3.5-14.5 2.3-3.8 5.4-6.9 9.2-9.5 3.8-2.6 8.1-4.8 13-6.6 4.8-1.8 9.8-3.7 14.9-5.7 3.8-1.5 6.5-3.7 8.2-6.7 1.7-3 2.6-6 2.6-9.1 0-4.8-1.4-8.7-4.2-11.5-2.9-2.8-6.7-4.3-11.6-4.3zm15.5 42.7c0-1.6-.5-2.9-1.6-3.7-1-.8-2.4-1.3-4-1.3-2.3 0-4.4.5-6.5 1.6-2 1-3.8 2.6-5.4 4.6-1.6 2-2.8 4.5-3.7 7.4-.9 3-1.4 6.4-1.4 10.3 0 3.8.3 6.9.8 9.3.6 2.5 1.3 4.4 2.2 5.9.9 1.5 2 2.5 3.3 3.1 1.2.6 2.5.9 3.9.9 1.7 0 3.3-.4 4.8-1.3s2.8-2 3.9-3.4 2-2.9 2.6-4.6c.6-1.7 1-3.4 1-5.1v-23.7zM2646.9 2993.2c2.5-3.8 5.1-7.2 7.9-10.2 1.2-1.3 2.4-2.6 3.8-3.8 1.4-1.2 2.8-2.3 4.2-3.3 1.5-1 3-1.8 4.5-2.3 1.6-.6 3.1-.9 4.7-.9 3.3 0 5.9 1 7.8 3 1.9 2 2.8 4.8 2.8 8.3 0 2.2-.2 4.3-.5 6.4-.4 2-1.1 4.5-2.1 7.4h-2.7c-.4-2-1.3-3.7-2.7-5-1.4-1.3-3.5-2-6.2-2-2 0-4 .4-5.9 1.1-1.9.7-3.8 1.7-5.7 2.8-1.9 1.1-3.6 2.3-5.3 3.6-1.7 1.3-3.2 2.5-4.5 3.7v63.2c0 .8-.1 1.9-.4 3-.3 1.2-.9 2.3-1.9 3.3-1 1-2.5 1.9-4.5 2.7-2 .7-4.7 1.1-8.1 1.1-3.4 0-6.2-.4-8.1-1.2-2-.8-3.5-1.8-4.5-2.9-1-1.1-1.7-2.2-1.9-3.4-.3-1.2-.4-2.1-.4-2.8v-75.2c0-1.9-.4-3.5-1.3-4.9-.9-1.4-2.4-2.1-4.4-2.1-1.1 0-2 .2-2.8.6-.8.4-1.6.9-2.5 1.7l-2-2.4c1.5-1.2 3.2-2.4 5-3.7 1.9-1.2 3.8-2.3 6-3.2 2.1-.9 4.4-1.7 6.9-2.2 2.5-.6 5.1-.9 7.8-.9 2.8 0 5.2.4 7.2 1.1 2 .7 3.6 1.7 4.9 2.9 1.3 1.2 2.3 2.5 3 4 .7 1.5 1.2 3 1.6 4.5.4 1.5.6 3 .6 4.4-.3 1.4-.3 2.6-.3 3.6zM2723.3 2980.6c-2.2 0-4.3.3-6.1.8-1.9.5-3.5 1.2-4.9 1.9-1.4.8-2.4 1.6-3.2 2.6-.8.9-1.2 1.8-1.2 2.7 0 1 .5 1.7 1.5 2.1 1 .4 2.1.9 3.4 1.5 1.2.6 2.4 1.3 3.4 2.3 1 1 1.5 2.5 1.5 4.6 0 1.4-.3 2.6-.8 3.7-.6 1.1-1.3 2.1-2.2 3-.9.9-2 1.6-3.3 2-1.3.5-2.6.7-3.9.7-3.6 0-6.6-1.2-8.8-3.7-2.2-2.5-3.4-5.7-3.4-9.8 0-4 1-7.4 3.1-10.2 2.1-2.8 4.8-5.1 8.1-7 3.3-1.8 7.1-3.2 11.3-4 4.2-.9 8.4-1.3 12.7-1.3 5.1 0 9.9.6 14.5 1.7s8.7 2.9 12.2 5.3 6.4 5.5 8.5 9.2c2.1 3.7 3.2 8.2 3.2 13.4v55c0 .6 0 1.2.1 1.9s.2 1.4.5 1.9c.3.6.6 1.1 1.2 1.5.5.4 1.3.6 2.2.6 1.2 0 2.3-.4 3.3-1.3s1.9-1.8 2.7-2.7l2.4 2c-1 1.4-2.1 2.9-3.5 4.5s-3 3.1-5 4.6-4.2 2.6-6.8 3.6c-2.6 1-5.6 1.5-8.9 1.5-4.1 0-7.7-1.2-10.9-3.7-3.2-2.4-5.3-6.2-6.2-11.2-2.1 2.8-4.2 5.1-6.5 7-2.2 1.9-4.5 3.4-6.9 4.6-2.3 1.2-4.7 2-7.1 2.5-2.4.5-4.8.8-7.2.8-3.1 0-6.1-.5-9.1-1.5-2.9-1-5.5-2.5-7.8-4.6-2.3-2.1-4.2-4.9-5.6-8.2-1.4-3.4-2.1-7.5-2.1-12.4 0-5.9 1.2-10.7 3.5-14.5 2.3-3.8 5.4-6.9 9.2-9.5 3.8-2.6 8.1-4.8 13-6.6 4.8-1.8 9.8-3.7 14.9-5.7 3.8-1.5 6.5-3.7 8.2-6.7 1.7-3 2.6-6 2.6-9.1 0-4.8-1.4-8.7-4.2-11.5-2.8-2.8-6.7-4.3-11.6-4.3zm15.5 42.7c0-1.6-.5-2.9-1.6-3.7-1-.8-2.4-1.3-4-1.3-2.3 0-4.4.5-6.5 1.6-2 1-3.8 2.6-5.4 4.6-1.6 2-2.8 4.5-3.7 7.4-.9 3-1.4 6.4-1.4 10.3 0 3.8.3 6.9.8 9.3.6 2.5 1.3 4.4 2.2 5.9.9 1.5 2 2.5 3.3 3.1 1.2.6 2.5.9 3.9.9 1.7 0 3.3-.4 4.8-1.3s2.8-2 3.9-3.4 2-2.9 2.6-4.6c.6-1.7 1-3.4 1-5.1v-23.7zM2824.4 2999.1c2.3-3.1 4.7-6.2 7.3-9.3 2.6-3.1 5.4-6 8.4-8.5s6.2-4.6 9.7-6.2c3.5-1.6 7.3-2.4 11.5-2.4 3.7 0 6.8.7 9.3 2.2 2.5 1.5 4.5 3.2 6 5.3 1.5 2 2.6 4.2 3.2 6.4.6 2.2.9 4.1.9 5.6 0 2.9-.4 5.8-1.1 8.9-.7 3.1-2 6.1-3.8 9.2-1.8 3-4.2 5.9-7.2 8.8-3 2.8-6.8 5.4-11.3 7.7 6.1 12.9 12 24 17.8 33.4 5.8 9.3 11.3 17 16.7 23 5.4 6 10.5 10.4 15.4 13.3 4.9 2.9 9.6 4.3 14.1 4.3.8 0 1.6-.1 2.3-.3.8-.2 1.5-.4 2.1-.7.7-.3 1.5-.6 2.2-1l1.9 3.4c-1.8 1-3.5 1.9-5.4 2.8-1.8.9-3.9 1.6-6.2 2.3-2.3.6-5 1.2-8.1 1.6-3.1.4-6.7.6-10.9.6-3.8 0-7.6-.5-11.3-1.4-3.7-.9-7.5-2.5-11.2-4.9-3.8-2.3-7.6-5.5-11.4-9.3-3.9-3.9-7.8-8.8-11.9-14.8-4.1-6-8.2-13.1-12.5-21.3-4.3-8.2-8.7-17.9-13.3-28.9 6.2-4.6 11.1-8.9 14.7-12.8 3.6-3.9 6.3-7.5 8.1-10.7 1.8-3.2 3-6 3.4-8.5.5-2.5.7-4.6.7-6.3 0-.3 0-.7-.1-1.3-.1-.6-.3-1.2-.6-1.8-.4-.6-.9-1.1-1.6-1.6-.7-.5-1.6-.7-2.9-.7-2.4 0-4.8 1-7.3 3.1-2.5 2-4.8 4.6-7.1 7.6-2.2 3-4.3 6.3-6.1 9.7-1.8 3.5-3.3 6.6-4.5 9.5v50.3c0 .8-.1 1.9-.4 3-.3 1.2-1 2.3-2 3.3-1.1 1-2.6 1.9-4.7 2.7-2 .7-4.8 1.1-8.2 1.1-3.4 0-6.1-.4-8.1-1.2-1.9-.8-3.4-1.8-4.3-2.9-.9-1.1-1.5-2.2-1.8-3.4-.2-1.2-.3-2.1-.3-2.8v-125.6c0-1.9-.4-3.5-1.3-4.9-.9-1.4-2.4-2.1-4.4-2.1-1.1 0-2.1.2-2.9.5-.8.4-1.7.9-2.6 1.6l-1.9-2.3c1.5-1.2 3.1-2.4 5-3.7 1.8-1.2 3.8-2.3 6-3.2 2.2-.9 4.5-1.7 7-2.2 2.5-.6 5.1-.9 7.8-.9 4.2 0 7.5.6 9.8 1.7 2.3 1.1 4.1 2.5 5.2 4.2 1.1 1.7 1.8 3.4 2 5.3.2 1.9.3 3.5.3 4.9v60.6z" fill="#000000" class="color000000 svgShape"></path></g></svg>