<svg xmlns="http://www.w3.org/2000/svg" enable-background="new 0 0 2800 2000" viewBox="0 0 2800 2000" id="LaptopsecurityUpdate"><rect width="2800" height="2000" fill="#ffffff" fill-rule="evenodd" clip-rule="evenodd" opacity=".5" class="colorffffff svgShape"></rect><path fill="#dfefff" fill-rule="evenodd" d="M1400.5,1945c678.9,0,1232.9-22,1232.9-48.5c0-26.5-554-48.5-1232.9-48.5c-679.4,0-1233.4,22-1233.4,48.5    C167.1,1923,721.1,1945,1400.5,1945L1400.5,1945z" clip-rule="evenodd" class="colordfe6ff svgShape"></path><path fill="#d5eaff" fill-rule="evenodd" d="M406.6,525C570.8,231.4,1039.3,33.2,1582,56.9c665.4,29.4,1190,381.2,1171.6,785.9    c-9,197.5-145.3,371.2-360.3,493.9c-164.1,293.5-632.7,491.8-1175.4,468.1C552.6,1775.4,28.4,1423.6,46.3,1018.9    C55.3,820.9,191.6,647.7,406.6,525L406.6,525z" clip-rule="evenodd" class="colord5f0ff svgShape"></path><linearGradient id="a" x1="1861.451" x2="2727.892" y1="569.365" y2="569.365" gradientUnits="userSpaceOnUse"><stop offset="0" stop-color="#0627a3" class="stopColor0643a3 svgShape"></stop><stop offset="1" stop-color="#2c95fe" class="stopColor2c7efe svgShape"></stop></linearGradient><path fill="url(#a)" d="M2294.7,1002.6c-238.9,0-433.2-194.3-433.2-433.2c0-238.9,194.3-433.2,433.2-433.2      c238.9,0,433.2,194.3,433.2,433.2C2727.9,808.2,2533.5,1002.6,2294.7,1002.6z M2294.7,167.2c-221.8,0-402.2,180.4-402.2,402.2      c0,221.8,180.4,402.2,402.2,402.2c221.8,0,402.2-180.4,402.2-402.2C2696.8,347.6,2516.4,167.2,2294.7,167.2z"></path><linearGradient id="b" x1="2042.126" x2="2547.217" y1="569.365" y2="569.365" gradientUnits="userSpaceOnUse"><stop offset="0" stop-color="#0627a3" class="stopColor0643a3 svgShape"></stop><stop offset="1" stop-color="#2c95fe" class="stopColor2c7efe svgShape"></stop></linearGradient><path fill="url(#b)" d="M2294.7,1002.6c-68.9,0-133.2-46.3-180.9-130.5c-46.2-81.4-71.6-188.9-71.6-302.8      c0-113.9,25.4-221.4,71.6-302.8c47.7-84.1,112-130.5,180.9-130.5c68.9,0,133.2,46.3,180.9,130.5      c46.2,81.4,71.6,188.9,71.6,302.8c0,113.9-25.4,221.4-71.6,302.8C2427.9,956.3,2363.6,1002.6,2294.7,1002.6z M2294.7,167.2      c-57.3,0-111.9,40.8-153.9,114.7c-43.6,76.8-67.6,178.8-67.6,287.4c0,108.6,24,210.7,67.6,287.4c42,74,96.7,114.7,153.9,114.7      c57.3,0,111.9-40.8,153.9-114.7c43.6-76.8,67.6-178.8,67.6-287.4c0-108.6-24-210.7-67.6-287.4      C2406.6,207.9,2351.9,167.2,2294.7,167.2z"></path><linearGradient id="c" x1="2279.145" x2="2310.198" y1="569.365" y2="569.365" gradientUnits="userSpaceOnUse"><stop offset="0" stop-color="#0627a3" class="stopColor0643a3 svgShape"></stop><stop offset="1" stop-color="#2c95fe" class="stopColor2c7efe svgShape"></stop></linearGradient><rect width="31.1" height="835.4" x="2279.1" y="151.7" fill="url(#c)"></rect><g fill="#000000" class="color000000 svgShape"><linearGradient id="d" x1="1876.977" x2="2712.365" y1="569.366" y2="569.366" gradientUnits="userSpaceOnUse"><stop offset="0" stop-color="#0627a3" class="stopColor0643a3 svgShape"></stop><stop offset="1" stop-color="#2c95fe" class="stopColor2c7efe svgShape"></stop></linearGradient><rect width="835.4" height="31.1" x="1877" y="553.8" fill="url(#d)"></rect></g><g fill="#000000" class="color000000 svgShape"><linearGradient id="e" x1="1987.043" x2="2602.328" y1="257.014" y2="257.014" gradientUnits="userSpaceOnUse"><stop offset="0" stop-color="#0627a3" class="stopColor0643a3 svgShape"></stop><stop offset="1" stop-color="#2c95fe" class="stopColor2c7efe svgShape"></stop></linearGradient><path fill="url(#e)" d="M2294.7,377.9c-108.1,0-209.6-35.5-293.6-102.6L1987,264l13.2-12.3c80.2-74.6,184.7-115.6,294.4-115.6      c109.4,0,213.9,41.1,294.4,115.6l13.2,12.3l-14.1,11.3C2505.4,341.4,2401.2,377.9,2294.7,377.9z M2035.2,262.3      c75.5,55.4,164.8,84.6,259.5,84.6c93.3,0,184.7-29.9,259.5-84.6c-72.7-61.4-164.1-95.1-259.5-95.1      C2199,167.2,2107.6,200.8,2035.2,262.3z"></path></g><g fill="#000000" class="color000000 svgShape"><linearGradient id="f" x1="1987.013" x2="2602.36" y1="881.716" y2="881.716" gradientUnits="userSpaceOnUse"><stop offset="0" stop-color="#0627a3" class="stopColor0643a3 svgShape"></stop><stop offset="1" stop-color="#2c95fe" class="stopColor2c7efe svgShape"></stop></linearGradient><path fill="url(#f)" d="M2294.7,1002.6c-109.6,0-214.1-40.9-294.4-115.3L1987,875l14.1-11.3c84.2-67.3,185.8-102.9,293.6-102.9      c106.3,0,210.5,36.6,293.6,102.9l14.1,11.3l-13.3,12.3C2508.5,961.6,2403.9,1002.6,2294.7,1002.6z M2035.2,876.8      c72.5,61.2,163.9,94.8,259.5,94.8c95.2,0,186.7-33.5,259.4-94.8c-75-54.8-166.4-84.8-259.4-84.8      C2200.2,791.9,2110.9,821.2,2035.2,876.8z"></path></g><g fill="#000000" class="color000000 svgShape"><path fill="#0e64ba" fill-rule="evenodd" d="M714.6,852.7c30-70.2,26.2-229.2-35.7-327.5c-18.8-30.3-83.9-134.4-143.4-95      c-12.6,40.8,41.5,119.4-37.9,122.3c-38.8-10.2,33.5-94.6,8.5-124.4c-39.3-35.6-137.5-56.6-182-14.6      c-6.1,26.1,89.5,143.8,61.8,165.2c-31,13.6-45.7-84.2-68.5-126.3c-27.5-39.9-99.4-6.4-145.2,9.6c53.8,31.2,91.4,66.9,77.2,83.6      c-38.8,35.8-44.6-74.6-77.2-83.6c-66.5,23.1-93,2.7-116.3,36c0.7,49.1,2.3,71.9,27,111.5c56,84.6,195.3,5.6,197.7,40      c-11.6,28.8-128,5.9-136.2,23c-22.8,32.3,19,102.2,53.6,104.9c51.2,4,166.4-68,181-44c18.6,30-150.4,55.2-160.2,115.2      c-3.4,50.1,47.1,102,86.6,130.8C351,1028.9,453.4,812.5,475.2,823c33.9,53.8-160.3,184.9-67.9,225.9      c51.5,17.7,102.7-1.4,151.6-23C634.1,992.4,694.5,903.3,714.6,852.7L714.6,852.7z M319.4,815c2.9-7.9,12.5-11.7,21.3-8.5      c8.8,3.3,13.6,12.5,10.6,20.4c-3,7.9-12.6,11.7-21.4,8.5C321.1,832.1,316.4,822.9,319.4,815L319.4,815z M443.7,656.3      c11.9,22.9,25.4-12.4,21.6-26c-1.3-17.5-7.7-42.5-26.7-47.8C421.3,596.6,429.7,627.1,443.7,656.3L443.7,656.3z M548.6,684.3      c-35.3-13.5-10.5-87,9.7-91.4C577.5,594.6,575.6,687,548.6,684.3L548.6,684.3z M531.1,863.8c-5.3,13.2,14.3,6.2,18.6-0.3      c6.9-6.8,15.1-18.5,10.4-28.2C548.1,833,538.3,847.4,531.1,863.8L531.1,863.8z M263.1,682.3c9-13.1,30.7-15.2,45.6-13.4      c4.9,10.8-11.6,17-21.7,21.7C276.4,696.4,260.3,693.1,263.1,682.3L263.1,682.3z" clip-rule="evenodd" class="color0ebaa0 svgShape"></path><path fill="#16518c" d="M903.8,1008.3c-1.3-0.1-2.7-0.6-3.8-1.5C668.2,806.5,418.5,658,136.8,553        c-3.3-1.2-5-4.9-3.8-8.2c1.2-3.3,4.9-5,8.2-3.8c148.5,55.3,291.5,124.7,425.2,206.1c118.5,72.2,233.5,156.3,342,250        c2.7,2.3,3,6.3,0.7,9C907.7,1007.7,905.8,1008.5,903.8,1008.3z" class="color16888c svgShape"></path><path fill="#16518c" d="M344.2 640.6c-3.3-.2-6-3-6-6.3-.2-60.2-25.6-108.7-75.3-144.1-2.9-2-3.5-6-1.5-8.9 2-2.9 6-3.5 8.9-1.5 25.4 18.1 45.1 39.8 58.6 64.4 14.5 26.6 21.9 56.8 22.1 90 0 3.5-2.8 6.4-6.4 6.4C344.5 640.6 344.3 640.6 344.2 640.6zM595.2 779.1c-.9-.1-1.9-.3-2.8-.8-3.1-1.7-4.1-5.6-2.4-8.7 52.5-92.4 48.4-191.4-11.7-286.2-1.9-3-1-6.9 2-8.8 3-1.9 6.9-1 8.8 2 62.8 99.1 67 202.6 12 299.3C599.9 778.1 597.6 779.3 595.2 779.1zM302 891.1c-2.6-.2-4.9-1.9-5.7-4.5-1-3.4.9-6.9 4.2-8 85.6-26.3 137-76.9 177.4-174.8 1.3-3.3 5.1-4.8 8.3-3.5 3.3 1.3 4.8 5.1 3.5 8.3-20.2 49.1-42.1 84.9-68.8 112.9-30.5 31.9-68.6 54.5-116.6 69.3C303.5 891.1 302.7 891.2 302 891.1zM450.2 1008.4c-2.6-.2-4.9-1.9-5.7-4.5-1.1-3.4.8-6.9 4.2-8 146.8-46.2 187-121.9 205.6-182.7 1-3.4 4.6-5.3 8-4.2 3.4 1 5.3 4.6 4.2 8-19.5 63.8-61.5 143.1-214 191.1C451.8 1008.3 451 1008.4 450.2 1008.4z" class="color16888c svgShape"></path><g fill="#000000" class="color000000 svgShape"><path fill="#247ad1" fill-rule="evenodd" d="M864.5,765.9c69-32.5,171.7-154.1,190.4-268.8c6-35,26.3-156.2-44.3-166.2      c-36.5,22.2-48.1,117-109.4,66.5c-22.3-33.3,87.8-48.5,88.8-87.5c-5.9-52.6-65.4-133.5-126.5-131.5      C841.5,193.8,835,345.3,800.1,343c-32.2-10.4,21.7-93.3,32.5-140c5.8-48.1-70.2-70.7-115.1-89.2c19.5,59,24,110.8,2.3,113.8      c-52.8,1.1,16.2-85.4-2.3-113.8c-65-26.8-71.3-59.5-110.9-50.2c-32.2,37.3-46,55.3-53.7,101.5      c-14.1,100.6,142.4,133.7,121.5,161.1c-27.8,14-99.8-80.4-117.3-73c-38.3,9-53.5,89.1-29.4,114.1      c35.6,36.9,169.6,59.4,164.6,87.1c-6,34.7-149.2-58.5-196.3-20.1c-35.8,35.2-32.4,107.5-21.9,155.3      c1.4,67.4,221.5-26.8,230.9-4.4c-10.3,62.7-242.5,32.1-200.5,124.1c26.8,47.4,77.8,67,128.6,83.2      C711.6,817.2,815.8,790.6,864.5,765.9L864.5,765.9z M593.7,475.7c7.5-3.9,17.2-0.5,21.6,7.8c4.4,8.4,1.8,18.3-5.7,22.3      c-7.5,4-17.2,0.5-21.6-7.8C583.7,489.7,586.2,479.7,593.7,475.7L593.7,475.7z M792,439.4c-6.4,25,27.2,7.5,33.4-5.2      c10.6-14.1,22.5-36.9,11.8-53.4C814.8,379.7,800.9,408.1,792,439.4L792,439.4z M851.9,529.9c-17.4-33.5,49.8-72.2,68-62      C933,481.8,870.4,549.7,851.9,529.9L851.9,529.9z M719.8,652.6c-12.7,6.4,6.6,14.1,14.1,12.2c9.7-0.6,23.5-3.9,26.6-14.3      C753,640.8,736.1,645.2,719.8,652.6L719.8,652.6z M639.5,339c15.5-3.8,33.1,9,43,20.2c-3.4,11.3-20,5-30.5,2      C640.2,358.4,630.3,345.4,639.5,339L639.5,339z" clip-rule="evenodd" class="color24d1b3 svgShape"></path><path fill="#16518c" d="M907,1009.9c-3-0.2-5.5-2.5-5.9-5.5c-40.8-303.7-129.2-580.5-270.4-845.9        c-1.7-3.1-0.5-7,2.6-8.6c3.1-1.7,7-0.5,8.6,2.6c74.4,139.9,135.5,286.7,181.5,436.3c40.8,132.6,71.2,271.9,90.2,413.9        c0.5,3.5-2,6.7-5.5,7.2C907.9,1009.9,907.5,1009.9,907,1009.9z" class="color16888c svgShape"></path><path fill="#16518c" d="M732 363.5c-1.4-.1-2.7-.6-3.8-1.6-2.6-2.3-2.9-6.4-.6-9 39.7-45.3 52.9-98.4 39.2-157.9-.8-3.4 1.4-6.9 4.8-7.7 3.4-.8 6.9 1.4 7.7 4.8 14.7 63.8.5 120.7-42.1 169.2C735.8 362.9 733.9 363.7 732 363.5zM828 633.6c-2.5-.2-4.8-1.8-5.6-4.3-1.1-3.3.6-7 4-8.1 100.6-34.4 163.2-111.1 181.1-221.9.6-3.5 3.8-5.8 7.3-5.3 3.5.6 5.8 3.8 5.3 7.3-18.7 115.8-84.3 196-189.6 232C829.6 633.6 828.8 633.7 828 633.6zM630.5 548.3c-32.3-2-64.8-10.6-98.4-25.9-3.2-1.5-4.6-5.2-3.2-8.5 1.5-3.2 5.3-4.6 8.5-3.2 81.5 37.2 153.5 33.3 248.6-13.2 3.2-1.6 7-.2 8.5 2.9 1.5 3.2.2 7-2.9 8.5-47.7 23.3-87.8 35.7-126.3 38.9C653.7 548.9 642.1 549 630.5 548.3zM703.4 745.9c-38.7-2.4-84.1-13.3-138-37.3-3.2-1.4-4.7-5.2-3.2-8.4 1.4-3.2 5.2-4.7 8.4-3.2 140.4 62.8 220.7 32.7 275-.5 3-1.8 6.9-.9 8.8 2.1 1.8 3 .9 6.9-2.1 8.8C816.3 729.3 769.6 750 703.4 745.9z" class="color16888c svgShape"></path></g></g><g fill="#000000" class="color000000 svgShape"><path fill="#0575e6" fill-rule="evenodd" d="M654.3,623.7h1491.9c52.3,0,95.3,42.8,95.3,95.3v1021.7c0,52.4-42.9,95.3-95.3,95.3H654.3      c-52.4,0-95.3-42.8-95.3-95.3V719C559,666.6,601.8,623.7,654.3,623.7L654.3,623.7z" clip-rule="evenodd" class="color2c7efe svgShape"></path><path fill="#62a7ec" fill-rule="evenodd" d="M680.1,756.1h1440.2c5.4,0,9.8,4.3,9.8,9.8v1060.2c0,5.4-4.4,9.8-9.8,9.8H680.1c-5.4,0-9.8-4.4-9.8-9.8      V765.9C670.3,760.4,674.8,756.1,680.1,756.1L680.1,756.1z" clip-rule="evenodd" class="color62cbec svgShape"></path><path fill="#0627a3" fill-rule="evenodd" d="M501.2,1744.8h1798.1c13.4,0,24.5,11.1,24.5,24.5v92c0,13.4-11.1,24.5-24.5,24.5H501.2      c-13.4,0-24.5-11.1-24.5-24.5v-92C476.7,1755.9,487.7,1744.8,501.2,1744.8L501.2,1744.8z" clip-rule="evenodd" class="color0643a3 svgShape"></path><path fill="#0b31c0" fill-rule="evenodd" d="M1198.4,1744.8H1602c3.1,0,5.6,2.5,5.6,5.6v20.6c0,3-2.5,5.5-5.6,5.5h-403.6c-3,0-5.5-2.5-5.5-5.5v-20.6      C1192.9,1747.3,1195.4,1744.8,1198.4,1744.8L1198.4,1744.8z" clip-rule="evenodd" class="color260bc0 svgShape"></path><g fill="#000000" class="color000000 svgShape"><linearGradient id="g" x1="1384.039" x2="1416.457" y1="1000.213" y2="944.063" gradientUnits="userSpaceOnUse"><stop offset="0" stop-color="#2c95fe" class="stopColor2c7efe svgShape"></stop><stop offset="1" stop-color="#ffffff" class="stopColorffffff svgShape"></stop></linearGradient><path fill="url(#g)" fill-rule="evenodd" d="M1400.2,936.3L1400.2,936.3c5.6,0,10.2,4.6,10.2,10.2v51.2c0,5.6-4.6,10.2-10.2,10.2l0,0       c-5.6,0-10.2-4.6-10.2-10.2v-51.2C1390,940.9,1394.6,936.3,1400.2,936.3L1400.2,936.3z" clip-rule="evenodd"></path><path fill="#0575e6" fill-rule="evenodd" d="M1400.2 1218.2L1400.2 1218.2c5.6 0 10.2 4.6 10.2 10.2v51.2c0 5.6-4.6 10.2-10.2 10.2l0 0c-5.6 0-10.2-4.6-10.2-10.2v-51.2C1390 1222.8 1394.6 1218.2 1400.2 1218.2L1400.2 1218.2zM1275.2 988.1L1275.2 988.1c4-4 10.5-4 14.5 0l36.2 36.2c4 4 4 10.5 0 14.5l0 0c-4 4-10.5 4-14.5 0l-36.2-36.2C1271.2 998.6 1271.2 992.1 1275.2 988.1L1275.2 988.1zM1474.6 1187.4L1474.6 1187.4c4-4 10.5-4 14.5 0l36.2 36.2c4 4 4 10.5 0 14.5l0 0c-4 4-10.5 4-14.5 0l-36.2-36.2C1470.6 1198 1470.6 1191.4 1474.6 1187.4L1474.6 1187.4z" clip-rule="evenodd" class="color2c7efe svgShape"></path><linearGradient id="h" x1="1482.44" x2="1517.429" y1="1043.733" y2="983.132" gradientUnits="userSpaceOnUse"><stop offset="0" stop-color="#2c95fe" class="stopColor2c7efe svgShape"></stop><stop offset="1" stop-color="#ffffff" class="stopColorffffff svgShape"></stop></linearGradient><path fill="url(#h)" fill-rule="evenodd" d="M1525.3,988.1L1525.3,988.1c-4-4-10.5-4-14.5,0l-36.2,36.2c-4,4-4,10.5,0,14.5l0,0c4,4,10.5,4,14.5,0       l36.2-36.2C1529.3,998.6,1529.3,992.1,1525.3,988.1L1525.3,988.1z" clip-rule="evenodd"></path><path fill="#0575e6" fill-rule="evenodd" d="M1325.9,1187.4L1325.9,1187.4c-4-4-10.5-4-14.5,0l-36.2,36.2c-4,4-4,10.5,0,14.5l0,0c4,4,10.5,4,14.5,0       l36.2-36.2C1329.9,1198,1329.9,1191.4,1325.9,1187.4L1325.9,1187.4z" clip-rule="evenodd" class="color2c7efe svgShape"></path><linearGradient id="i" x1="1515.33" x2="1545.856" y1="1085.844" y2="1032.972" gradientUnits="userSpaceOnUse"><stop offset="0" stop-color="#2c95fe" class="stopColor2c7efe svgShape"></stop><stop offset="1" stop-color="#ffffff" class="stopColorffffff svgShape"></stop></linearGradient><path fill="url(#i)" fill-rule="evenodd" d="M1563.7,1045.7L1563.7,1045.7c-2.1-5.2-8.2-7.7-13.4-5.6l-47.4,19.5c-5.2,2.1-7.7,8.2-5.6,13.4l0,0       c2.1,5.2,8.2,7.7,13.4,5.6l47.3-19.5C1563.4,1057,1565.9,1051,1563.7,1045.7L1563.7,1045.7z" clip-rule="evenodd"></path><path fill="#0575e6" fill-rule="evenodd" d="M1303.1,1153.2L1303.1,1153.2c-2.1-5.2-8.2-7.7-13.4-5.6l-47.4,19.5c-5.2,2.1-7.7,8.2-5.6,13.4l0,0       c2.2,5.2,8.2,7.7,13.4,5.6l47.4-19.5C1302.7,1164.4,1305.2,1158.4,1303.1,1153.2L1303.1,1153.2z" clip-rule="evenodd" class="color2c7efe svgShape"></path><linearGradient id="j" x1="1435.707" x2="1471.327" y1="1013.436" y2="951.74" gradientUnits="userSpaceOnUse"><stop offset="0" stop-color="#2c95fe" class="stopColor2c7efe svgShape"></stop><stop offset="1" stop-color="#ffffff" class="stopColorffffff svgShape"></stop></linearGradient><path fill="url(#j)" fill-rule="evenodd" d="M1467.1,949.4L1467.1,949.4c-5.2-2.1-11.2,0.4-13.3,5.6l-19.4,47.4c-2.1,5.2,0.4,11.2,5.6,13.3l0,0       c5.2,2.1,11.2-0.4,13.4-5.6l19.3-47.4C1474.8,957.5,1472.3,951.5,1467.1,949.4L1467.1,949.4z" clip-rule="evenodd"></path><path fill="#0575e6" fill-rule="evenodd" d="M1360.5 1210.4L1360.5 1210.4c-5.2-2.1-11.2.4-13.3 5.6l-19.4 47.4c-2.1 5.2.4 11.2 5.6 13.3l0 0c5.2 2.1 11.2-.4 13.4-5.6l19.3-47.4C1368.3 1218.6 1365.8 1212.6 1360.5 1210.4L1360.5 1210.4zM1223.4 1113.1L1223.4 1113.1c0-5.6 4.6-10.2 10.2-10.2h51.2c5.6 0 10.2 4.6 10.2 10.2l0 0c0 5.6-4.6 10.2-10.2 10.2h-51.2C1228 1123.4 1223.4 1118.7 1223.4 1113.1L1223.4 1113.1z" clip-rule="evenodd" class="color2c7efe svgShape"></path><linearGradient id="k" x1="1529.7" x2="1552.745" y1="1133.073" y2="1093.158" gradientUnits="userSpaceOnUse"><stop offset="0" stop-color="#2c95fe" class="stopColor2c7efe svgShape"></stop><stop offset="1" stop-color="#ffffff" class="stopColorffffff svgShape"></stop></linearGradient><path fill="url(#k)" fill-rule="evenodd" d="M1505.4,1113.1L1505.4,1113.1c0-5.6,4.6-10.2,10.2-10.2h51.2c5.6,0,10.2,4.6,10.2,10.2l0,0       c0,5.6-4.6,10.2-10.2,10.2h-51.2C1510,1123.4,1505.4,1118.7,1505.4,1113.1L1505.4,1113.1z" clip-rule="evenodd"></path><path fill="#0575e6" fill-rule="evenodd" d="M1333.4 949.4L1333.4 949.4c5.2-2.1 11.2.4 13.4 5.6l19.3 47.4c2.1 5.2-.4 11.2-5.6 13.3l0 0c-5.2 2.1-11.2-.4-13.3-5.6l-19.4-47.4C1325.7 957.5 1328.2 951.5 1333.4 949.4L1333.4 949.4zM1440 1210.4L1440 1210.4c5.2-2.1 11.2.4 13.4 5.6l19.3 47.4c2.1 5.2-.4 11.2-5.6 13.3l0 0c-5.2 2.1-11.2-.4-13.3-5.6l-19.4-47.4C1432.2 1218.6 1434.8 1212.6 1440 1210.4L1440 1210.4zM1236.7 1045.7L1236.7 1045.7c2.2-5.2 8.2-7.7 13.4-5.6l47.4 19.5c5.2 2.1 7.7 8.2 5.6 13.4l0 0c-2.1 5.2-8.2 7.7-13.4 5.6l-47.4-19.5C1237.1 1057 1234.6 1051 1236.7 1045.7L1236.7 1045.7z" clip-rule="evenodd" class="color2c7efe svgShape"></path><linearGradient id="l" x1="1523.774" x2="1537.411" y1="1178.635" y2="1155.015" gradientUnits="userSpaceOnUse"><stop offset="0" stop-color="#2c95fe" class="stopColor2c7efe svgShape"></stop><stop offset="1" stop-color="#ffffff" class="stopColorffffff svgShape"></stop></linearGradient><path fill="url(#l)" fill-rule="evenodd" d="M1497.4,1153.2L1497.4,1153.2c2.1-5.2,8.2-7.7,13.4-5.6l47.3,19.5c5.2,2.1,7.7,8.2,5.6,13.4l0,0       c-2.1,5.2-8.2,7.7-13.4,5.6l-47.4-19.5C1497.8,1164.4,1495.3,1158.4,1497.4,1153.2L1497.4,1153.2z" clip-rule="evenodd"></path><g fill="#000000" class="color000000 svgShape"><path fill="#62a7ec" fill-rule="evenodd" d="M1027.2,1439.4h746c13.8,0,25.1,11.3,25.1,25.1l0,0c0,13.8-11.3,25.1-25.1,25.1h-746        c-13.8,0-25.1-11.3-25.1-25.1l0,0C1002.2,1450.7,1013.4,1439.4,1027.2,1439.4L1027.2,1439.4z" clip-rule="evenodd" class="color62cbec svgShape"></path><path fill="#0575e6" d="M1773.3,1494.2h-746c-16.4,0-29.7-13.3-29.7-29.7c0-16.4,13.3-29.7,29.7-29.7h746        c16.4,0,29.7,13.3,29.7,29.7C1802.9,1480.9,1789.6,1494.2,1773.3,1494.2z M1027.2,1444c-11.3,0-20.5,9.2-20.5,20.5        c0,11.3,9.2,20.5,20.5,20.5h746c11.3,0,20.5-9.2,20.5-20.5c0-11.3-9.2-20.5-20.5-20.5H1027.2z" class="color2c7efe svgShape"></path><g fill="#000000" class="color000000 svgShape"><path fill="#0575e6" fill-rule="evenodd" d="M1027.2,1439.4h503.2v50.2h-503.2c-13.8,0-25.1-11.3-25.1-25.1l0,0        C1002.2,1450.7,1013.4,1439.4,1027.2,1439.4L1027.2,1439.4z" clip-rule="evenodd" class="color2c7efe svgShape"></path></g></g><g fill="#000000" class="color000000 svgShape"><path fill="#ffffff" d="M1217.3 1340.5v45.5h25.7c2 0 3.6.5 4.7 1.5 1.1 1 1.6 2.2 1.6 3.8 0 1.5-.5 2.8-1.6 3.7-1.1 1-2.7 1.4-4.7 1.4h-30.6c-2.8 0-4.7-.6-5.9-1.8-1.2-1.2-1.8-3.2-1.8-5.9v-48.1c0-2.6.6-4.5 1.7-5.8 1.2-1.3 2.7-1.9 4.5-1.9 1.9 0 3.4.6 4.6 1.9C1216.7 1336 1217.3 1337.9 1217.3 1340.5zM1280.8 1332.8c6.5 0 12 1.3 16.7 3.9 4.6 2.6 8.2 6.4 10.5 11.2 2.4 4.8 3.6 10.5 3.6 17.1 0 4.8-.7 9.2-2 13.2-1.3 4-3.3 7.4-5.9 10.3-2.6 2.9-5.8 5.1-9.6 6.6-3.8 1.5-8.2 2.3-13.1 2.3-4.9 0-9.3-.8-13.1-2.4-3.9-1.6-7.1-3.8-9.7-6.7-2.6-2.9-4.5-6.3-5.9-10.4-1.3-4-2-8.4-2-13.1 0-4.8.7-9.2 2.1-13.2 1.4-4 3.4-7.4 6-10.2 2.6-2.8 5.8-5 9.5-6.5C1271.7 1333.6 1276 1332.8 1280.8 1332.8zM1298.7 1365c0-4.6-.7-8.5-2.2-11.9-1.5-3.4-3.6-5.9-6.3-7.6-2.7-1.7-5.9-2.6-9.4-2.6-2.5 0-4.9.5-7 1.4-2.1 1-4 2.3-5.5 4.2-1.5 1.8-2.8 4.1-3.7 7-.9 2.8-1.3 6-1.3 9.5 0 3.6.4 6.8 1.3 9.6.9 2.9 2.2 5.2 3.8 7.1 1.6 1.9 3.5 3.3 5.6 4.2 2.1.9 4.4 1.4 7 1.4 3.2 0 6.2-.8 8.9-2.4 2.7-1.6 4.9-4.1 6.5-7.5C1297.9 1374.1 1298.7 1369.9 1298.7 1365zM1359.1 1389.3l-3-7.8h-25.4l-3 8c-1.2 3.1-2.2 5.2-3 6.3-.8 1.1-2.2 1.6-4 1.6-1.6 0-3-.6-4.2-1.7-1.2-1.2-1.8-2.5-1.8-4 0-.9.1-1.7.4-2.6.3-.9.8-2.2 1.4-3.8l16-40.6c.5-1.2 1-2.6 1.6-4.2.6-1.6 1.3-3 2-4.1.7-1.1 1.7-2 2.9-2.6 1.2-.7 2.6-1 4.4-1 1.8 0 3.2.3 4.4 1 1.2.7 2.1 1.5 2.9 2.6.7 1.1 1.3 2.2 1.8 3.4.5 1.2 1.1 2.8 1.9 4.8l16.3 40.3c1.3 3.1 1.9 5.3 1.9 6.7 0 1.5-.6 2.8-1.8 4-1.2 1.2-2.7 1.8-4.4 1.8-1 0-1.8-.2-2.6-.5-.7-.4-1.3-.8-1.8-1.4-.5-.6-1-1.5-1.6-2.8C1359.9 1391.4 1359.4 1390.3 1359.1 1389.3zM1334 1371.9h18.7l-9.4-25.8L1334 1371.9zM1389.7 1333.9h16.5c4.3 0 8 .4 11 1.2 3.1.8 5.9 2.3 8.4 4.5 6.5 5.6 9.8 14 9.8 25.4 0 3.8-.3 7.2-1 10.3-.7 3.1-1.7 5.9-3 8.4-1.4 2.5-3.1 4.7-5.2 6.7-1.7 1.5-3.5 2.7-5.5 3.6-2 .9-4.1 1.5-6.4 1.9-2.3.4-4.9.6-7.7.6H1390c-2.3 0-4-.3-5.2-1-1.2-.7-1.9-1.7-2.3-2.9-.4-1.3-.5-2.9-.5-4.9v-45.8c0-2.7.6-4.7 1.8-5.9C1385 1334.5 1387 1333.9 1389.7 1333.9zM1394.6 1343.9v42.4h9.6c2.1 0 3.8-.1 4.9-.2 1.2-.1 2.4-.4 3.7-.9 1.3-.5 2.4-1.1 3.3-1.9 4.2-3.6 6.4-9.7 6.4-18.5 0-6.2-.9-10.8-2.8-13.9-1.9-3.1-4.2-5-6.9-5.9-2.7-.8-6-1.3-9.9-1.3H1394.6zM1447 1389.7v-49.2c0-2.6.6-4.5 1.7-5.8 1.2-1.3 2.7-1.9 4.5-1.9 1.9 0 3.4.6 4.6 1.9 1.2 1.3 1.8 3.2 1.8 5.8v49.2c0 2.6-.6 4.5-1.8 5.8-1.2 1.3-2.7 1.9-4.6 1.9-1.8 0-3.3-.6-4.5-1.9C1447.6 1394.2 1447 1392.3 1447 1389.7zM1490.3 1340.4l24.3 36.8v-37.2c0-2.4.5-4.2 1.6-5.4 1-1.2 2.4-1.8 4.2-1.8 1.8 0 3.3.6 4.3 1.8 1.1 1.2 1.6 3 1.6 5.4v49.1c0 5.5-2.3 8.2-6.8 8.2-1.1 0-2.2-.2-3.1-.5-.9-.3-1.8-.8-2.6-1.6-.8-.7-1.5-1.5-2.2-2.5-.7-1-1.4-1.9-2-2.9l-23.7-36.4v36.6c0 2.4-.6 4.2-1.7 5.4-1.1 1.2-2.5 1.8-4.3 1.8-1.8 0-3.2-.6-4.3-1.9-1.1-1.2-1.6-3-1.6-5.4V1342c0-2 .2-3.7.7-4.8.5-1.3 1.4-2.3 2.7-3.1 1.3-.8 2.6-1.2 4-1.2 1.1 0 2.1.2 2.9.6.8.4 1.5.9 2.1 1.5.6.6 1.2 1.4 1.9 2.4C1488.9 1338.3 1489.6 1339.3 1490.3 1340.4zM1597.2 1371v12c0 1.6-.2 2.9-.5 3.8-.3 1-.9 1.8-1.7 2.6-.8.8-1.9 1.5-3.2 2.2-3.8 2-7.4 3.5-10.9 4.5-3.5.9-7.3 1.4-11.4 1.4-4.8 0-9.2-.7-13.1-2.2-3.9-1.5-7.3-3.6-10.1-6.4-2.8-2.8-4.9-6.2-6.4-10.2-1.5-4-2.2-8.5-2.2-13.4 0-4.9.7-9.3 2.2-13.3 1.4-4 3.6-7.5 6.4-10.3 2.8-2.8 6.2-5 10.3-6.5 4-1.5 8.6-2.2 13.7-2.2 4.2 0 7.9.6 11.2 1.7 3.2 1.1 5.9 2.5 7.9 4.2 2 1.7 3.5 3.5 4.6 5.4 1 1.9 1.5 3.6 1.5 5.1 0 1.6-.6 2.9-1.8 4.1-1.2 1.1-2.6 1.7-4.2 1.7-.9 0-1.8-.2-2.6-.6-.8-.4-1.5-1-2.1-1.8-1.6-2.4-2.9-4.3-4-5.5-1.1-1.2-2.5-2.3-4.4-3.2-1.8-.9-4.2-1.3-7-1.3-2.9 0-5.5.5-7.8 1.5-2.3 1-4.3 2.5-5.9 4.4-1.6 1.9-2.9 4.3-3.8 7.1-.9 2.8-1.3 5.9-1.3 9.2 0 7.3 1.7 13 5.1 16.9 3.4 3.9 8.1 5.9 14.1 5.9 2.9 0 5.7-.4 8.2-1.2 2.6-.8 5.2-1.9 7.8-3.3V1373h-9.8c-2.4 0-4.1-.4-5.3-1.1-1.2-.7-1.8-1.9-1.8-3.6 0-1.4.5-2.5 1.5-3.5 1-.9 2.4-1.4 4.1-1.4h14.4c1.8 0 3.3.2 4.5.5 1.2.3 2.2 1 3 2.1C1596.8 1367.2 1597.2 1368.8 1597.2 1371z" class="colorffffff svgShape"></path></g></g></g><g fill="#000000" class="color000000 svgShape"><linearGradient id="m" x1="1952.584" x2="2382.999" y1="1323.058" y2="1323.058" gradientTransform="rotate(-3.242 2273.423 1512.912)" gradientUnits="userSpaceOnUse"><stop offset="0" stop-color="#0b31c0" class="stopColor260bc0 svgShape"></stop><stop offset="1" stop-color="#0627a3" class="stopColor0643a3 svgShape"></stop></linearGradient><path fill="url(#m)" d="M2324.4,1275.7c-5-15.7-12.2-30.4-21.2-43.8l19.8-42.9l-45.3-40.4l-40.3,24.6c-14.3-7.4-29.7-12.8-45.9-16     l-16.3-44.3l-60.6,3.5l-11.1,45.9c-15.7,5-30.4,12.2-43.8,21.2l-42.9-19.9l-21.7,24.4l-18.7,21l24.6,40.3     c-7.4,14.3-12.8,29.7-16,45.9l-44.3,16.3l3.5,60.6l45.9,11.1c5,15.7,12.2,30.4,21.2,43.8l-19.9,42.9l21,18.7l24.4,21.8l40.3-24.6     c14.3,7.4,29.7,12.8,45.9,16l16.3,44.3l60.6-3.5l11.1-45.9c15.7-5,30.4-12.2,43.8-21.2l42.9,19.8l21.8-24.4l18.7-21l-24.6-40.3     c7.4-14.3,12.8-29.7,16-45.9l44.3-16.3l-3.5-60.6L2324.4,1275.7z M2162.9,1429.5c-55.2,3.1-102.7-39.3-105.8-94.4     c-3.1-55.2,39.3-102.7,94.4-105.8c55.1-3.1,102.7,39.3,105.9,94.4C2260.5,1378.8,2218,1426.4,2162.9,1429.5z"></path><path fill="#6686ff" fill-rule="evenodd" d="M2380.3,1219.5l34.9,3.9l-4.2,30c-17.3,11.2-31.3,9.7-38.7,0.9L2380.3,1219.5z" clip-rule="evenodd" class="colorff9866 svgShape"></path><path fill="#9bcdff" fill-rule="evenodd" d="M2442.9,1165.1c-23-8.2-45.8-16.4-68.6-24.6c-10.9,11.9-25.2,70.4-16.5,87.9c11,21.9,42.8,17.1,54.8,2.3      C2424.6,1217.2,2443.8,1180.7,2442.9,1165.1L2442.9,1165.1z" clip-rule="evenodd" class="colorffbb9b svgShape"></path><path fill="#021b79" fill-rule="evenodd" d="M2416.2,1174.6c-10.5-21.7-37.7-5-49.4-11.3c-8.2-9.5-48.1-51.4-33.6-72c9.6-12.3,50.3,0.2,64.8,7.3      c11.8,5.2,24.4,13.5,33.5,21.4c9.5,9.2,13.3,21,10.1,33.5c8.1-2.8,23.4,14.8,23,21.5c2.2,20.7-27.8,21.1-40.8,39.5      C2414.5,1211.6,2419.2,1177.5,2416.2,1174.6L2416.2,1174.6z" clip-rule="evenodd" class="color060352 svgShape"></path><path fill="#9bcdff" fill-rule="evenodd" d="M2418.5,1204.8c-12.7-6.7-11-12.5-1.1-19.4c3.4-3.8,9.7-6.2,12.3-0.2      C2431,1190.4,2422.8,1200.4,2418.5,1204.8L2418.5,1204.8z" clip-rule="evenodd" class="colorffbb9b svgShape"></path><path fill="#0b31c0" fill-rule="evenodd" d="M2569.2,1814.4l-11.7,15.5c-11.7,24-61.5,49.9-35.1,72.3l89.2-60.5c-7.3-11.1-14.4-23.5-27.4-30      L2569.2,1814.4z" clip-rule="evenodd" class="color260bc0 svgShape"></path><path fill="#6686ff" fill-rule="evenodd" d="M2574.5,1796.1l-27.1,18.7l10.1,15.1c10.8-3.2,20.2-9.9,26.7-18.2L2574.5,1796.1z" clip-rule="evenodd" class="colorff9866 svgShape"></path><path fill="#021b79" fill-rule="evenodd" d="M2340.1,1854.9l-18.6,6.4c-23.1,13.6-78.6,7.6-69.3,40.4l107.7-0.5c0.3-13.1,1.3-27.5-5.9-40.2      L2340.1,1854.9z" clip-rule="evenodd" class="color060352 svgShape"></path><path fill="#6686ff" fill-rule="evenodd" d="M2354.5,1842.8l-32.8,0.6l-0.3,18c11,3.5,22.5,3.1,32.6-0.3L2354.5,1842.8z" clip-rule="evenodd" class="colorff9866 svgShape"></path><polygon fill="#021b79" fill-rule="evenodd" points="2434 1562.7 2364.8 1514.9 2315.8 1657.7 2318.9 1851.7 2364.6 1848.4 2371.5 1667.9" clip-rule="evenodd" class="color060352 svgShape"></polygon><path fill="#0b31c0" fill-rule="evenodd" d="M2388.8,1418.1l69.6,59.6c5.6,13,11.5,20.9,2.5,74.8l121.7,248.6l-43.4,26.8      c-89-129.9-171.3-277-182.7-334.1L2388.8,1418.1z" clip-rule="evenodd" class="color260bc0 svgShape"></path><path fill="#0e64ba" fill-rule="evenodd" d="M2469.4,1288.6c-7.2-22.4-30-26-54.4-46.1c-13.6,18.7-35.2,8.7-51.2,19.6c-54,52.1-13.2,164.7-7.3,231.8      c33.8-5.3,67.6-10.8,101.7-16.1C2456.9,1414.7,2479.1,1309.5,2469.4,1288.6L2469.4,1288.6z" clip-rule="evenodd" class="color0ebaa0 svgShape"></path><polygon fill="#6686ff" fill-rule="evenodd" points="2375 1369.6 2338.2 1349.1 2306.6 1407.6 2215.2 1473.6 2225.5 1491 2331.2 1432.6" clip-rule="evenodd" class="colorff9866 svgShape"></polygon><polygon fill="#16518c" fill-rule="evenodd" points="2362.9 1270.3 2418 1301 2373.8 1379.9 2336.2 1355.1" clip-rule="evenodd" class="color16888c svgShape"></polygon><polygon fill="#0e64ba" fill-rule="evenodd" points="2359.9 1267.1 2415.1 1298.1 2370.8 1377 2333.2 1352.2" clip-rule="evenodd" class="color0ebaa0 svgShape"></polygon><path fill="#6686ff" fill-rule="evenodd" d="M2212.3,1475.3c-6.5,3.4-23-6.6-23.7-1c-0.7,5.9,13,7.2,12.6,9.3c1,8.9-23,14.4-21.3,21.5      c4.1,17.7,33.4,10.4,47-17.8l-6.4-12.5C2219.6,1473.9,2220.2,1471.6,2212.3,1475.3L2212.3,1475.3z" clip-rule="evenodd" class="colorff9866 svgShape"></path></g><g fill="#000000" class="color000000 svgShape"><path fill="#0575e6" fill-rule="evenodd" d="M1400.2,81.5c-115.3,8.5-196.9,132.7-305.7,183.7c15.3,209.6,161,437.2,305.7,529.4      c144.6-92.2,290.4-319.8,305.7-529.4C1597.1,214.2,1515.5,89.9,1400.2,81.5L1400.2,81.5z" clip-rule="evenodd" class="color2c7efe svgShape"></path><path fill="#0627a3" fill-rule="evenodd" d="M1400.3,127.9c-100.3,7.3-171.4,115.3-266.1,159.8c13.4,182.4,140.2,380.4,266.1,460.7      C1526.2,668,1653,470,1666.2,287.6C1571.7,243.2,1500.6,135.2,1400.3,127.9L1400.3,127.9z" clip-rule="evenodd" class="color0643a3 svgShape"></path><g fill="#000000" class="color000000 svgShape"><path fill="#ffffff" fill-rule="evenodd" d="M1400.2,558.9c82.9,0,150.6-67.3,150.6-150.6c0-82.9-67.7-150.2-150.6-150.2      c-82.9,0-150.6,67.3-150.6,150.2C1249.6,491.6,1317.3,558.9,1400.2,558.9L1400.2,558.9z" clip-rule="evenodd" class="colorffffff svgShape"></path><path fill="#0575e6" d="M1542.3,361.9c-1.4,0-2.7-0.9-3.3-2.3c-9.2-25.3-24.9-47.7-45.3-64.7c-1.5-1.2-1.7-3.4-0.4-4.9        c1.2-1.5,3.4-1.7,4.9-0.4c21.4,17.8,37.7,41.2,47.4,67.6c0.7,1.8-0.3,3.8-2.1,4.4C1543.1,361.9,1542.7,361.9,1542.3,361.9z" class="color2c7efe svgShape"></path><path fill="#0575e6" d="M1400.2,562.4c-41.2,0-79.9-16-109-45.1c-29.1-29.1-45.1-67.8-45.1-109c0-84.7,69.1-153.7,154.1-153.7        c26,0,50.8,6.3,73.7,18.7c1.7,0.9,2.3,3,1.4,4.7c-0.9,1.7-3,2.3-4.7,1.4c-21.8-11.9-45.5-17.9-70.4-17.9        c-81.1,0-147.2,65.8-147.2,146.8c0,81.1,66,147.2,147.2,147.2c81.1,0,147.2-66,147.2-147.2c0-11.2-1.3-21.8-3.8-31.4        c-0.5-1.8,0.6-3.7,2.5-4.2c1.8-0.5,3.7,0.6,4.2,2.5c2.7,10.2,4,21.4,4,33.2C1554.3,493.2,1485.2,562.4,1400.2,562.4z" class="color2c7efe svgShape"></path><path fill="#0627a3" fill-rule="evenodd" d="M1354.7,441.8l-64.6-34.3c-3.1-1.9-3.9,1.6-2.7,3.5l58.4,63.8c6.2,5.4,10.9,5.4,17.9,0      c49.8-44.4,99.2-88.7,149.1-133.1c1.6-1.6,0-4.7-2.7-3.1L1354.7,441.8z" clip-rule="evenodd" class="color0643a3 svgShape"></path></g></g><g fill="#000000" class="color000000 svgShape"><radialGradient id="n" cx="490.055" cy="1802.039" r="56.365" gradientUnits="userSpaceOnUse"><stop offset=".574" stop-color="#0c0d13" class="stopColor130c0e svgShape"></stop><stop offset=".798" stop-color="#0c0d13" class="stopColor130c0e svgShape"></stop><stop offset="1" stop-color="#0c0d13" class="stopColor130c0e svgShape"></stop></radialGradient><path fill="url(#n)" fill-rule="evenodd" d="M444.4,1773.4h91.6c15.5,0,28.4,12.9,28.4,28.8l0,0c0,15.5-12.9,28.4-28.4,28.4h-91.6     c-15.9,0-28.8-12.9-28.8-28.4l0,0C415.6,1786.3,428.5,1773.4,444.4,1773.4L444.4,1773.4z" clip-rule="evenodd"></path><path fill="#0e64ba" fill-rule="evenodd" d="M491.4,1556.1L491.4,1556.1h-1.1h-0.4h-0.8h-0.4c-12.5,0-25.4,0-38.2,1.1l0,0c-14,1.5-27.6,3.8-40.1,9.1     c-31.8,21.6-72.3,117.8-66.3,154.9c8,22,64.8,19.7,106.4,25v5.3h71.2v-4.2c42-6.8,106-2.7,114.4-26.1     c6.4-37.1-34.1-133.3-65.9-154.9C545.5,1556.5,517.5,1556.1,491.4,1556.1L491.4,1556.1z" clip-rule="evenodd" class="color0ebaa0 svgShape"></path><path fill="#021b79" fill-rule="evenodd" d="M360,1905.6l-9.5-26.5c-3.8-3-14.4-4.9-19.3-5.3c-17,1.1-48.8,0.8-49.6,12.5c-0.8,16.7,40.1,24.2,53.4,23.1     L360,1905.6z" clip-rule="evenodd" class="color060352 svgShape"></path><path fill="#6686ff" fill-rule="evenodd" d="M383.8,1899.2l-9.8-28.8l-23.1,9.5c-3.4,10.6,1.5,20.1,9.1,25.7L383.8,1899.2z" clip-rule="evenodd" class="colorff9866 svgShape"></path><path fill="#021b79" fill-rule="evenodd" d="M380.4,1904.8c-8.3-10.2-15.1-22.3-15.5-36.4c57.6-20.1,291.2-148.4,328.7-107.2     C739.8,1824.2,461.1,1876.8,380.4,1904.8L380.4,1904.8z" clip-rule="evenodd" class="color060352 svgShape"></path><path fill="#0b31c0" fill-rule="evenodd" d="M620.1,1905.6l9.5-26.5c3.8-3,14.8-4.9,19.7-5.3c17,1.1,48.5,0.8,49.2,12.5c1.1,16.7-40.1,24.2-53,23.1     L620.1,1905.6z" clip-rule="evenodd" class="color260bc0 svgShape"></path><path fill="#6686ff" fill-rule="evenodd" d="M596.3,1899.2l9.8-28.8l23.1,9.5c3.8,10.6-1.1,20.1-9.1,25.7L596.3,1899.2z" clip-rule="evenodd" class="colorff9866 svgShape"></path><path fill="#0b31c0" fill-rule="evenodd" d="M600.1,1904.8c8-10.2,14.8-22.3,15.1-36.4c-57.6-20.1-290.8-148.4-328.3-107.2     C240.7,1824.2,519.4,1876.8,600.1,1904.8L600.1,1904.8z" clip-rule="evenodd" class="color260bc0 svgShape"></path><path fill="#62a7ec" fill-rule="evenodd" d="M396.7,1653.8h187.1c5.7,0,10.6,4.9,10.6,10.6v125.3c0,6.1-4.9,10.6-10.6,10.6H396.7     c-6.1,0-10.6-4.5-10.6-10.6v-125.3C386.1,1658.7,390.7,1653.8,396.7,1653.8L396.7,1653.8z" clip-rule="evenodd" class="color62cbec svgShape"></path><path fill="#ffffff" fill-rule="evenodd" d="M490.2,1708.7c0,0,0.4,0,0.8,0c-0.4,1.1-0.4,2.3-0.4,3.4c0,8.3,6.4,14.8,14.8,14.8c1.1,0,1.9,0,3-0.4     c0,0.4,0,0.4,0,0.8c0,9.8-8,18.2-18.2,18.2c-10.2,0-18.6-8.3-18.6-18.2C471.7,1717,480,1708.7,490.2,1708.7L490.2,1708.7z" clip-rule="evenodd" class="colorffffff svgShape"></path><path fill="#6686ff" fill-rule="evenodd" d="M467.1,1524.3c0.4,16.3,0.4,32.2,0.8,48.5c12.9,18.9,37.9,15.5,48.8,0l-1.9-51.5L467.1,1524.3z" clip-rule="evenodd" class="colorff9866 svgShape"></path><path fill="#81c0ff" fill-rule="evenodd" d="M491,1450.8l-52.6-0.8c8.7,53,0.4,106,51.9,110.2l0,0c0.4,0,0.4,0,0.8,0h0.4l0,0     c51.9-4.2,43.2-57.2,51.9-110.2L491,1450.8z" clip-rule="evenodd" class="colorffaa81 svgShape"></path><path fill="#021b79" fill-rule="evenodd" d="M538.7,1489.4c12.1-19.7,17.8-37.1,16.3-50.7c1.1-1.9,1.9-4.2,1.9-6.4c0-6.1-4.5-11.4-12.1-14     c-6.4-6.1-15.9-10.2-28.8-12.5c-4.2-4.9-12.1-8.3-21.2-8.3c-8,0-15.1,2.7-19.3,6.8c-8.3,0.4-15.1,1.1-21.2,3     c-1.9-0.4-3.4-0.4-5.3-0.4c-13.3,0-23.9,6.8-23.9,15.5c0,1.9,0.4,3.8,1.1,5.3c-1.5,3-2.3,6.4-3,9.8c0,0,1.5,6.1,2.3,7.2     c0.8,1.1,0.4,12.9,0.4,13.6c0.4,1.1-0.4,8.3,2.3,10.6c3.8,8.7,9.1,17.4,15.1,25c11.4-12.5,3-40.5,34.1-37.9     c11,0,11.7-6.1,20.4-1.1c8-11.4,12.5,4.5,29.9,0C536.8,1455.7,528.5,1472.8,538.7,1489.4L538.7,1489.4z" clip-rule="evenodd" class="color060352 svgShape"></path></g></svg>