<svg xmlns="http://www.w3.org/2000/svg" enable-background="new 0 0 630 630" viewBox="0 0 630 630" id="LockAccess"><polygon fill="#e7f3ff" points="615.003 498.798 29.539 498.798 15.003 58.622 615.003 78.23" class="colorffe7ff svgShape"></polygon><path d="M98.8827896,430.6672363c-20.2333984,0.0009766-40.3457031-3.3730469-51.2851563-14.6054688         c-13.1738281-13.5263672-18.1455097-39.9023438-14.7773438-78.3955078         c2.4970703-28.5292969,8.9072266-53.4580078,8.9716797-53.7060547         c0.1376953-0.5341797,0.6826172-0.8603516,1.21875-0.7167969c0.5351563,0.1386719,0.8554688,0.6845703,0.7167969,1.21875         c-0.2548828,0.9853516-25.2001972,98.8847656,5.3037109,130.2050781         c26.0419922,26.7382813,109.6464767,6.6298828,110.4863205,6.4228516         c0.5371094-0.1279297,1.078125,0.1972656,1.2099609,0.7333984c0.1308594,0.5361328-0.1972656,1.078125-0.7333984,1.2099609         C157.9316101,423.5383301,128.2841492,430.6662598,98.8827896,430.6672363z" fill="#000000" class="color000000 svgShape"></path><line x1="75.007" x2="42.759" y1="433.742" y2="571.207" fill="#fff"></line><path d="M42.7607193,572.2072754c-0.0761719,0-0.1523438-0.0087891-0.2294922-0.0263672         c-0.5371094-0.1259766-0.8710938-0.6640625-0.7451172-1.2021484L74.0331802,433.513916         c0.1269531-0.5380859,0.6669922-0.8671875,1.2021484-0.7451172c0.5371094,0.1259766,0.8710938,0.6640625,0.7451172,1.2021484         L43.7333755,571.435791C43.6249771,571.8967285,43.2148209,572.2072754,42.7607193,572.2072754z" fill="#000000" class="color000000 svgShape"></path><line x1="102.524" x2="96.65" y1="435.965" y2="571.207" fill="#fff"></line><path d="M96.6503677,572.2072754c-0.0146484,0-0.0292969,0-0.0439453-0.0009766         c-0.5517578-0.0244141-0.9804688-0.4902344-0.9560547-1.0419922l5.8740234-135.2421875         c0.0244141-0.5517578,0.4970703-0.9931641,1.0419922-0.9560547c0.5517578,0.0244141,0.9804688,0.4902344,0.9560547,1.0419922         l-5.8740234,135.2421875C97.6249771,571.7873535,97.1825943,572.2072754,96.6503677,572.2072754z" fill="#000000" class="color000000 svgShape"></path><g fill="#000000" class="color000000 svgShape"><line x1="144.46" x2="197.064" y1="412.56" y2="571.207" fill="#fff"></line><path d="M197.0644226,572.2072754c-0.4199219,0-0.8095703-0.265625-0.9492188-0.6855469l-52.6044922-158.6464844         c-0.1738281-0.5244141,0.1103516-1.0898438,0.6347656-1.2636719         c0.5253906-0.1708984,1.0888672,0.1103516,1.2636719,0.6347656l52.6044922,158.6464844         c0.1738281,0.5244141-0.1103516,1.0898438-0.6347656,1.2636719         C197.2743835,572.1906738,197.1689148,572.2072754,197.0644226,572.2072754z" fill="#000000" class="color000000 svgShape"></path></g><g fill="#000000" class="color000000 svgShape"><path fill="#010101" d="M254.7960205,551.6134644c0.2495422,0,0.4981995-0.1009521,0.6793976-0.2994385           c0.4194946-0.4588623,4.076767-4.5726929,3.3447723-7.7129517c-0.18927-0.8131104-0.7630005-1.9178467-2.4198914-2.5646362           c-1.4779358-0.5759888-2.7944489-0.5108032-3.9158173,0.1948853           c-2.5156708,1.5831299-2.9023438,5.7891846-2.9378662,6.2637939           c-0.0382233,0.5067139,0.3412628,0.9480591,0.8479919,0.9869385           c0.5085297,0.0357056,0.9487152-0.3410645,0.9882813-0.8473511           c0.0804901-1.0343628,0.6119537-3.9216309,2.0849304-4.8460693           c0.6074524-0.3811035,1.3475342-0.3934326,2.2625275-0.036438           c0.9864807,0.3848877,1.2122192,0.9069214,1.2962952,1.2659302           c0.4347839,1.8598633-2.0174866,5.0742798-2.9104614,6.0535889           c-0.3426056,0.3756714-0.3160858,0.9579468,0.0589142,1.3007813           C254.3517914,551.5336914,254.5743561,551.6134644,254.7960205,551.6134644z" class="color010101 svgShape"></path><polygon fill="#23326a" points="281.209 569.768 213.273 569.768 213.704 566.888 217.34 542.458 243.39 542.458 277.221 566.888" class="color48236a svgShape"></polygon><polygon fill="#010101" points="281.209 569.768 213.273 569.768 213.704 566.888 277.221 566.888" opacity=".3" class="color010101 svgShape"></polygon><rect width="70.365" height="2.879" x="212.059" y="568.328" fill="#010101" class="color010101 svgShape"></rect><polygon fill="#add6ff" points="243.39 542.455 244.475 522.075 221.124 522.075 220.524 542.455" class="colorffadbf svgShape"></polygon><path fill="#010101" d="M254.1395721 557.0317383c.2270508 0 .4541168-.0831909.6317291-.2510986 2.3825684-2.2470703 6.2237549-1.4168091 6.2624207-1.4082642.4941406.1105957.9882813-.1989746 1.1006775-.6942139.1124268-.4953003-.1960144-.9876099-.6910706-1.1011353-.1955872-.0449829-4.829895-1.0658569-7.9354858 1.8641357-.3700562.348938-.3871307.9316406-.0382233 1.3016968C253.6508179 556.9348145 253.8949738 557.0317383 254.1395721 557.0317383zM251.0402832 554.3006592c.3592529 0 .700058-.2115479.8484497-.5622559.102951-.2317505 1.0683136-2.1662598 4.3137207-1.3616943.4932556.1216431.9932251-.1789551 1.1150818-.6724243.1223145-.4936523-.1789551-.992981-.6726379-1.1152954-3.9108734-.9698486-5.9346466 1.1724243-6.4557648 2.4403687-.1933441.4703369.0310211 1.0083008.5013275 1.2018433C250.8051147 554.2784424 250.9238281 554.3006592 251.0402832 554.3006592z" class="color010101 svgShape"></path><path fill="#010101" d="M243.2126923 561.3864136c.4293976 0 .813385-.3017578.9015045-.7385254 2.0062408-9.9181519 8.4067078-10.8747559 8.4710083-10.8833008.5040283-.0665283.8587799-.5291748.7922363-1.0334473-.0665436-.5044556-.5332489-.8587646-1.0332489-.7924805-.3160858.0418091-7.7709198 1.1513062-10.0348053 12.3441162-.1011658.4984131.2212219.9842529.7198486 1.085144C243.0908356 561.3803101 243.1524353 561.3864136 243.2126923 561.3864136zM126.5342178 159.1091461c.9499817 1.6998901 1.9097061 3.4236755 2.3953323 5.3094788.485611 1.8858032.4512787 3.9838867-.5174713 5.6731415-1.2873535 2.2448273-4.0030594 3.3590393-6.5901184 3.4192047s-5.1039658-.7608643-7.5611496-1.5725098c1.2304459 1.407959.5273666 3.8126526-1.0333786 4.8424377-1.5607376 1.0297699-3.6137924.9633942-5.4205017.4815521-3.1604156-.842865-6.0576859-2.9555817-7.41996-5.9292755s-.9643097-6.7898712 1.3071213-9.1434326M174.6554413 551.6134644c.2495422 0 .4981842-.1009521.6793823-.2994385.4195099-.4588623 4.0767975-4.5726929 3.3447876-7.7129517-.1892853-.8131104-.7630157-1.9178467-2.4198914-2.5646362-1.4779358-.5759888-2.7944489-.5108032-3.9158173.1948853-2.5156708 1.5831299-2.902359 5.7891846-2.9378815 6.2637939-.038208.5067139.3412781.9480591.8480072.9869385.5085297.0357056.9487152-.3410645.9882813-.8473511.0804901-1.0343628.6119385-3.9216309 2.0849304-4.8460693.6074524-.3811035 1.3475342-.3934326 2.2625275-.036438.9864807.3848877 1.212204.9069214 1.2962799 1.2659302.4347992 1.8598633-2.0174866 5.0742798-2.9104462 6.0535889-.3426208.3756714-.3160858.9579468.0588989 1.3007813C174.2112122 551.5336914 174.4337769 551.6134644 174.6554413 551.6134644z" class="color010101 svgShape"></path><polygon fill="#23326a" points="201.068 569.768 133.132 569.768 133.564 566.888 137.199 542.458 163.249 542.458 197.08 566.888" class="color48236a svgShape"></polygon><polygon fill="#010101" points="201.068 569.768 133.132 569.768 133.564 566.888 197.08 566.888" opacity=".3" class="color010101 svgShape"></polygon><rect width="70.365" height="2.879" x="131.919" y="568.328" fill="#010101" class="color010101 svgShape"></rect><polygon fill="#add6ff" points="163.249 542.455 164.334 522.075 140.804 528.168 140.384 542.455" class="colorffadbf svgShape"></polygon><path fill="#010101" d="M173.9989777 557.0317383c.227066 0 .4541321-.0831909.6317291-.2510986 2.3825836-2.2470703 6.2237701-1.4168091 6.2624359-1.4082642.4941406.1105957.9882813-.1989746 1.1006927-.6942139.1123962-.4953003-.1960449-.9876099-.6910858-1.1011353-.1955872-.0449829-4.8299103-1.0658569-7.9355011 1.8641357-.3700409.348938-.3871155.9316406-.038208 1.3016968C173.5102386 556.9348145 173.7543793 557.0317383 173.9989777 557.0317383zM170.8996887 554.3006592c.3592529 0 .7000732-.2115479.8484497-.5622559.1029663-.2317505 1.0683289-2.1662598 4.313736-1.3616943.4932556.1216431.9932404-.1789551 1.1150818-.6724243.1222992-.4936523-.1789551-.992981-.6726379-1.1152954-3.9108734-.9698486-5.9346466 1.1724243-6.4557648 2.4403687-.1933441.4703369.0310211 1.0083008.5013275 1.2018433C170.6645355 554.2784424 170.7832336 554.3006592 170.8996887 554.3006592z" class="color010101 svgShape"></path><path fill="#010101" d="M163.072113,561.3864136c0.4293976,0,0.8133698-0.3017578,0.9015045-0.7385254            c2.0062408-9.9181519,8.4067078-10.8747559,8.470993-10.8833008            c0.5040436-0.0665283,0.8587952-0.5291748,0.7922516-1.0334473            c-0.0665436-0.5044556-0.5332642-0.8587646-1.0332489-0.7924805            c-0.3160858,0.0418091-7.7709351,1.1513062-10.0348053,12.3441162            c-0.1011658,0.4984131,0.2212219,0.9842529,0.7198486,1.085144            C162.9502563,561.3803101,163.0118561,561.3864136,163.072113,561.3864136z" class="color010101 svgShape"></path><g fill="#000000" class="color000000 svgShape"><path fill="#add6ff" d="M155.135788,255.7701569l8.1816711,23.0248871l48.2812805-34.1386414l10.7919922,16.9853516         c0,0-46.7511444,59.1339111-72.0498657,54.2558594c-16.5465088-3.1904602-35.3457642-47.2345886-35.3457642-47.2345886         L155.135788,255.7701569z" class="colorffadbf svgShape"></path></g><g fill="#000000" class="color000000 svgShape"><path fill="#0575e6" d="M80.9314194,353.1310425l48.9268265,50.1258545l61.2245483,1.3639526l15.5316925,127.6409912h56.1976471         l-20.0195313-170.1440125c-3.2449493-8.6457825-11.2087402-14.6406555-20.4155273-15.3446045l-81.5080719-3.519928         l-21.3395233,3.519928L80.9314194,353.1310425z" class="color6a86ff svgShape"></path></g><g fill="#000000" class="color000000 svgShape"><path fill="#5aacff" d="M80.9268723,353.1336975l48.9334183,50.1210022l61.2225037,1.3661499         c0.2946167-6.6670837,6.8178406-49.3037109-9.2507629-51.4677734l-62.3035355-6.3825073L80.9268723,353.1336975z" class="color6a5aff svgShape"></path></g><g fill="#000000" class="color000000 svgShape"><path fill="#0575e6" d="M92.0112228,344.4297791l68.295784,9.1828613         c16.0706177,2.1607971,27.8361359,16.2242432,27.1209564,32.4236755         c-1.4752655,33.4160461-3.8518066,121.8908081-4.9334717,146.2286987h-63.377327l10.8665543-124.5473022         c0,0-44.8350754,1.0172119-56.4163742-7.2331543C57.3974304,388.965271,58.559082,352.2052307,58.559082,352.2052307         L92.0112228,344.4297791z" class="color6a86ff svgShape"></path></g><g fill="#000000" class="color000000 svgShape"><path fill="#23326a" d="M15.5737906,272.5176086l1.6371412-29.1850128          c2.1607761-17.8548431,20.0331783-30.414444,37.9722519-29.1284943l65.72258-0.0875854          c11.1579514,0.7998505,21.1931534,7.0805054,26.7895584,16.7665863l9.9436188,24.1586304l-27.2255707,19.4696198          l19.9275055,66.0529785c-22.980751,7.8212891-60.9313202,12.6880798-102.3807831,16.8646851l-2.1095963-85.6569824          L15.5737906,272.5176086z" class="color48236a svgShape"></path><path fill="#add6ff" d="M15.5737906,272.5176086c0,0-3.35497,39.3861694,6.1246748,45.7490845          c18.6703587,12.5319214,86.2564392-25.4062805,86.2564392-25.4062805l-10.8155746-16.473175l-50.8432884,13.4754639          l-0.4455376-18.0906677L15.5737906,272.5176086z" class="colorffadbf svgShape"></path><path fill="#add6ff" d="M118.2922211,269.7437744c2.3524857-1.2387695,2.5085983-2.6546631,1.9773407-3.8235779          c-0.7015152-1.564209-2.5189667-2.3214417-4.1878967-1.9023438l-5.2102509,1.3117065          c-1.2220383,0.3144836-2.3524857,0.9096069-3.2890472,1.7520142l-10.4430389,9.3056641" class="colorffadbf svgShape"></path><path fill="#5aacff" d="M119.088974,292.0482483h22.3538055c2.2609863,0,4.0938721-1.8328857,4.0938721-4.0938721v-36.3336182          c0-2.2609863-1.8328857-4.0938721-4.0938721-4.0938721H119.088974c-2.2609863,0-4.0938721,1.8328857-4.0938721,4.0938721          v36.3336182C114.9951019,290.2153625,116.8279877,292.0482483,119.088974,292.0482483z" class="color6a5aff svgShape"></path><path fill="#0d132b" d="M114.996521,251.7732849v36.0271301c0,2.3428345,1.8972092,4.2503052,4.2402802,4.2503052h2.4882355          c-2.353447,0-4.2506638-1.9074707-4.2506638-4.2503052v-36.0271301c0-2.343338,1.8972168-4.2507935,4.2506638-4.2507935          h-2.4882355C116.8937302,247.5224915,114.996521,249.4299469,114.996521,251.7732849z" class="color0d0f2b svgShape"></path><path fill="#add6ff" d="M97.139328,276.3872375l10.8155746,16.473175c0,0,19.2319641-1.9708862,22.1177292-3.6525574          c4.7261047-2.7644958,1.1003571-5.7904968,1.1003571-5.7904968          c3.4241638-2.5516052,0.1924896-5.0765076,0.1924896-5.0765076c2.4372864-3.821106-1.2518616-5.9862366-1.2518616-5.9862366          c0.7547607-1.3575134,0.5600433-2.4269104,0.0501404-3.2249146          c-0.7806702-1.2313538-2.3263016-1.7319641-3.7360153-1.3875732l-8.1355209,2.0016479" class="colorffadbf svgShape"></path></g><g fill="#000000" class="color000000 svgShape"><path fill="#add6ff" d="M69.4623337,214.1188965c0,9.9066467,9.0730591,18.2975922,20.2790146,18.2975922         s20.2683105-8.0552521,20.7121277-18.2759094c-1.8838959-0.075592-3.6161957-0.7364349-5.0020905-1.8080292         c-0.3247299-0.2384338-0.6170807-0.4985352-0.8985901-0.7797852         c-1.5158157-1.5267792-2.4794388-3.6160583-2.5444641-5.9220886l-0.0108337-0.2706757l-0.2056503-6.9942169         l-19.8459091-8.0557861v11.3683929C81.9459381,208.5753326,76.3483124,214.1405792,69.4623337,214.1188965z" class="colorffadbf svgShape"></path></g><g fill="#000000" class="color000000 svgShape"><path fill="#89c4ff" d="M81.9459381,190.3099976v0.530777c0.2815094,0.5630341,0.5845718,1.1043854,0.9202728,1.656311         v0.0110931c3.887001,6.3444977,15.4935455,19.2502441,22.5851746,19.8349457V212.33255         c-0.3247299-0.2384338-0.6170807-0.4985352-0.8985901-0.7797852         c-1.5158157-1.5267792-2.4794388-3.6160583-2.5444641-5.9220886l-0.0108337-0.2706757l-0.2056503-6.9942169         L81.9459381,190.3099976z" class="colorff89a6 svgShape"></path></g><g fill="#000000" class="color000000 svgShape"><path fill="#add6ff" d="M73.018486,177.2753296c0,2.3083191,1.210968,4.3321228,3.0458908,5.5052185         c1.9670105,1.2479248,3.6130295,2.9124146,4.5588989,5.0313721c0.3782501,0.8516541,0.8133087,1.6838989,1.3241119,2.4976807         v0.0184631c4.3321304,7.0755157,13.4225388,10.8001556,20.9705124,10.0057831         c10.8395691-1.1158295,16.1832886-11.935379,14.897049-24.4015656         c-0.2272339-2.1374359-0.7001648-4.1806488-1.4003296-6.0917816         c-3.310524-9.2314148-11.5960693-15.3795319-20.5817795-14.4521332         c-8.0209045,0.8507233-14.3583832,7.1124573-16.5715561,15.3416595         C75.7613983,170.9757233,73.018486,173.813324,73.018486,177.2753296z" class="colorffadbf svgShape"></path></g><g fill="#000000" class="color000000 svgShape"><path fill="#010101" d="M73.018486,148.1521301c-31.847168,13.7150421,8.9289017,51.3131409,8.9289017,51.3131409v-9.1556702         c-0.5117111-0.8152313-0.9474182-1.6490021-1.3261414-2.502243         c-0.9164352-2.0646362-2.4361877-3.7590027-4.3765869-4.9154968         c-1.9354706-1.1535645-3.2261734-3.233429-3.2261734-5.6165314c0-3.4620056,2.7429123-6.2996063,6.2427979-6.5453033         c0.9867249,1.6014709,2.1600647,3.240921,3.5723877,4.4912415c0.5308762,0.4699707,1.8590622,1.6855927,2.6734924,1.1959991         c0.9080658-0.5458679,1.3029404-5.6245728,1.5461426-6.734848c0.2415848-1.1029205,0.479866-2.2745209,0.1050949-3.3395844         c-0.3747635-1.0650635-1.6158371-1.9080811-2.6423569-1.4379272c1.1522369,1.7391968,3.63237,2.4463959,5.528595,1.5764618         c1.8962173-0.8699341,2.9778137-3.2111664,2.4110336-5.2189484c-1.047905,0.4514465-1.337883,1.9237061-0.8206406,2.9407501         s1.5953751,1.6282196,2.6782379,1.987854c2.4232407,0.8047791,5.1639481,0.6030273,7.4432297-0.5479126         c1.0494919-0.5299377,2.0629654-1.3409729,2.3522186-2.480545c0.2892609-1.1395569-0.5043259-2.5667725-1.6798248-2.5449677         c-0.9847946,0.0182648-1.7371063,1.0660248-1.6641617,2.0482788s0.7881165,1.8245544,1.6424713,2.314682         c0.8543549,0.4901428,1.8400574,0.6886902,2.8062439,0.8800964c2.3312531,0.4618378,4.7250061,0.9250793,7.0682297,0.5284119         s4.661377-1.8464661,5.3938446-4.1073303c0.2950592-0.9107208,0.3003082-1.9636688-0.2136765-2.7713318         c-0.5139771-0.8076477-1.6311417-1.2545166-2.4866409-0.8248444         c-1.1373291,0.5712128-1.1728287,2.3316956-0.3384171,3.2929688         c1.2217789,1.4073486,5.0151978,2.2404785,6.8366699,2.3806305c2.7438126,0.2111359,5.5997467-0.7710266,7.5444565-2.7372589         c2.6594391-2.6888733,3.4507294-7.0532532,1.9045563-10.5046234         c-0.3221893-0.7191925-0.7641144-1.4272308-1.4489441-1.8171692s-1.6585159-0.3580475-2.1619415,0.2482605         s-0.1814117,1.7515869,0.6023331,1.8340454c1.464653-1.8753967,2.0162888-4.4319611,1.4552383-6.7444458         c-0.5610352-2.3124847-2.2228851-4.332016-4.3841171-5.3277283         c-1.7777328-0.8190155-3.9848022-0.9135437-5.6206894,0.1611633         c-1.6358871,1.0747223-2.4050827,3.4689484-1.3536835,5.1199036c1.067688-1.7256927-0.2278214-4.1612701-2.1212463-4.8912811         c-1.8934326-0.7299957-4.0413971-0.1882172-5.8904572,0.6478119c-1.1046295,0.4994507-2.210701,1.146759-2.8351059,2.1858826         s-0.5914993,2.5572815,0.3605194,3.3078156c1.2448349,0.9813843,3.3043137-0.0734253,3.6308365-1.6245728         s-0.6836624-3.1364288-2.0269241-3.9780579c-1.3432693-0.841629-2.9587555-1.1017456-4.5252533-1.344162         c-1.0778351-0.1667938-2.1843872-0.3330231-3.251091-0.1056976s-2.1014481,0.9374695-2.3926926,1.9885254         s0.4517288,2.3578491,1.5420914,2.3835754c1.1568909,0.0272827,1.9507141-1.3558502,1.7068253-2.4870758         c-0.2438812-1.1312256-1.1844406-1.977005-2.1608887-2.598053c-3.0020752-1.9094086-6.860466-2.4100342-10.250412-1.3299866         c-1.1363144,0.36203-2.2555695,0.9204712-2.9994354,1.8526459c-0.7438583,0.9321747-1.0290222,2.2999115-0.4504852,3.3427734         c0.5785446,1.0428619,2.1376724,1.4898682,3.0445328,0.7153473c0.9927216-0.8478546,0.6725769-2.577301-0.3102036-3.4366608         c-0.9827728-0.859375-2.3611221-1.0692444-3.6607895-1.1925964         c-2.2350006-0.2121277-4.5238571-0.2703857-6.6903076,0.3184509s-4.2170715,1.9002075-5.2787933,3.8783264         c-1.0617218,1.9781342-0.9304657,4.6543274,0.6372375,6.2613678" class="color010101 svgShape"></path></g><g fill="#000000" class="color000000 svgShape"><polygon fill="#010101" points="111.02 187.376 110.277 185.518 113.209 184.346 110.389 174.549 112.311 173.995 115.631 185.531" class="color010101 svgShape"></polygon></g><g fill="#000000" class="color000000 svgShape"><path fill="#add6ff" d="M211.704483,244.7657623l10.6862488,16.8759918c0,0,23.7239532-6.2866974,26.6881561-8.4346619          c4.8651581-3.5444489,0.5692444-6.4438782,0.5692444-6.4438782          c3.4689178-3.1684418-0.3436279-5.5738831-0.3436279-5.5738831          c2.2445831-4.4354095-2.0190735-6.4008789-2.0190735-6.4008789c0.6766052-1.5679626,0.3437347-2.717453-0.3007507-3.533432          c-0.9879761-1.2564697-2.727951-1.6324615-4.2314148-1.1064911l-8.6670837,3.0824432          c2.4272003-1.6109619,2.4487-3.1789246,1.739975-4.392395c-0.934494-1.6324768-3.0072021-2.2664795-4.7900391-1.621994          l-5.5417786,1.9979858c-1.299469,0.4829712-2.4701996,1.2564697-3.4044189,2.2764435L211.704483,244.7657623z" class="colorffadbf svgShape"></path></g></g><g fill="#000000" class="color000000 svgShape"><path fill="#083af4" d="M470.0906067,192.8087006V338.1362c0,12.3881531-10.042572,22.4307251-22.4307251,22.4307251          H294.5254211c-12.3881531,0-22.4307251-10.042572-22.4307251-22.4307251V192.8087006          c0-12.3881531,10.042572-22.4307251,22.4307251-22.4307251h153.1344604          C460.0480347,170.3779755,470.0906067,180.4205475,470.0906067,192.8087006z" class="colorf49908 svgShape"></path><path fill="#021b79" d="M304.5260925,124.6979065c0-49.7611313,53.6065369-87.2419205,106.1011047-57.7237701            c16.7796631,9.4353485,30.2179565,33.42836,30.2179565,52.6788788l-0.0000305,78.0286255H304.5260925V124.6979065z             M417.9651489,124.6979065c0-33.918251-37.4866943-59.2483749-73.2136536-36.722847            c-10.8752747,6.8567734-17.345459,18.9587402-17.345459,31.8151474v55.0114746h90.5591125V124.6979065z" class="color3e195f svgShape"></path><path fill="#23326a" d="M295.683075,124.6979065c0-49.7611313,53.6065674-87.2419205,106.1011353-57.7237701            c16.7796631,9.4353485,30.2179565,33.42836,30.2179565,52.6788788l-0.0000305,78.0286255H295.683075V124.6979065z             M409.1221619,124.6979065c0-33.918251-37.4866943-59.2483749-73.2136536-36.722847            c-10.8753052,6.8567734-17.345459,18.9587402-17.345459,31.8151474v55.0114746h90.5591125V124.6979065z" class="color48236a svgShape"></path><path fill="#0035fe" d="M461.2486267,192.8087006V338.1362c0,12.3881531-10.0426025,22.4307251-22.4307556,22.4307251           H285.6834412c-12.3881531,0-22.4307251-10.042572-22.4307251-22.4307251V192.8087006           c0-12.3881531,10.042572-22.4307251,22.4307251-22.4307251h153.1344299           C451.2060242,170.3779755,461.2486267,180.4205475,461.2486267,192.8087006z" class="colorfebb00 svgShape"></path><path fill="#021b79" d="M355.9499512,283.9837036l-12.4680786,28.0892029h37.5355835l-12.5994568-28.0892029           c11.5516357-2.7557373,20.0815735-13.1249695,20.0815735-25.4616394           c0-14.5669098-11.8111877-26.2499084-26.2499084-26.2499084s-26.2499084,11.6829987-26.2499084,26.2499084           C335.9997559,270.7305603,344.5296936,281.0997925,355.9499512,283.9837036z" class="color3e195f svgShape"></path><path fill="#23326a" d="M362.1445923,283.9906311l-12.4444885,28.0864563h-6.2227783l12.4876709-28.0864563           c-11.4221802-2.8977966-19.9460144-13.2550354-19.9460144-25.4862061           c0-14.5327911,11.805603-26.2114716,26.2109375-26.2114716c1.0654602,0,2.0882874,0.0437012,3.1111145,0.1706543           c-12.9564209,1.5347443-23.1419678,12.5735016-23.1419678,26.0408173           C342.1990662,270.7355957,350.7655945,281.0928345,362.1445923,283.9906311z" class="color48236a svgShape"></path><g fill="#000000" class="color000000 svgShape"><path fill="#446bff" d="M328.8154907,296.4283142v27.9878845c0,3.1495667-2.5476379,5.6971436-5.6971436,5.6971436H222.2508087         c-3.1496124,0-5.6971588-2.5475769-5.6971588-5.6971436v-27.9878845c0-3.1422729,2.5475464-5.6971741,5.6971588-5.6971741         h100.8675385C326.2678528,290.7311401,328.8154907,293.2860413,328.8154907,296.4283142z" class="colorff449c svgShape"></path></g><g fill="#000000" class="color000000 svgShape"><path fill="#ffffff" d="M238.5444794 320.0464783c-.5195923 0-.9783325-.1855774-1.3652954-.5524597-.3906097-.3680725-.5901794-.8237915-.5901794-1.3525085 0-.0657043 0-.2324219.6972656-4.6924744-3.5203552 2.8556213-3.6627197 2.9255981-3.7503357 2.9682007-.2567596.130188-.5439301.197113-.8505707.197113-.7288971 0-1.3129883-.3224487-1.7364502-.9588623-.184967-.3209534-.272583-.6677551-.272583-1.0510559 0-.7380371.3261261-1.291687.9430695-1.6013794l4.4195862-1.7242737-4.3879547-1.7106018c-.6546631-.368988-.9747009-.9378662-.9747009-1.6679688 0-.3821106.087616-.7286072.259201-1.0303955.4380646-.6576843 1.003891-.9801636 1.6987152-.9801636.3103027 0 .6205902.0879211.9223785.2607117.0657043.0322571.2105103.1052551 3.7308502 2.9581604-.6984711-4.4600525-.6984711-4.6270752-.6984711-4.6924744 0-.5271912.198349-.982605.5914001-1.3540344.3857422-.3653564.8444824-.5509338 1.3640747-.5509338.5183868 0 .9783478.1852722 1.3653107.5506287.3930511.3708191.5926056.8265381.5926056 1.3543396 0 .081543 0 .2141724-.6984711 4.6924744 3.5118256-2.8486328 3.6700134-2.9280396 3.7478943-2.9672852.1764526-.15271.5037842-.2515869.9053345-.2515869.6948242 0 1.2606659.3224792 1.6853485.9585876.1885986.3778076.2725677.6999817.2725677.9993286 0 .7197571-.3139496 1.302948-.910202 1.686554l-4.4536743 1.7437439 4.38797 1.7111816c.6558685.3717651.9759064.9403381.9759064 1.6686096 0 .3008728-.0839691.6227417-.2494507.9570618-.4465942.6771851-1.0306702.9996338-1.760788.9996338-.3054199 0-.5926056-.066925-.8542175-.1989441-.074234-.036499-.2312164-.1137695-3.7466888-2.9663696.6984711 4.4789124.6984711 4.6109314.6984711 4.6924744 0 .5293274-.1995544.9850464-.5938263 1.3543396C239.5228271 319.8609009 239.0640869 320.0464783 238.5444794 320.0464783zM261.3037415 320.0464783c-.5195923 0-.978363-.1855774-1.3653259-.5524597-.3905945-.3680725-.5901489-.8237915-.5901489-1.3525085 0-.0657043 0-.2324219.6972351-4.6924744-3.5203247 2.8556213-3.6627197 2.9255981-3.7503052 2.9682007-.2567749.130188-.5439453.197113-.8505859.197113-.7288971 0-1.3129883-.3224487-1.7364502-.9588623-.184967-.3209534-.2725677-.6677551-.2725677-1.0510559 0-.7380371.3261108-1.291687.9430542-1.6013794l4.4196014-1.7242737-4.38797-1.7106018c-.6546631-.368988-.9746857-.9378662-.9746857-1.6679688 0-.3821106.0876007-.7286072.2591858-1.0303955.4380646-.6576843 1.003891-.9801636 1.6987152-.9801636.3103027 0 .6206055.0879211.9223633.2607117.0657349.0322571.2105408.1052551 3.7308655 2.9581604-.6984558-4.4600525-.6984558-4.6270752-.6984558-4.6924744 0-.5271912.1983337-.982605.5913696-1.3540344.3857422-.3653564.8445129-.5509338 1.3641052-.5509338.5183716 0 .9783325.1852722 1.3652954.5506287.3930359.3708191.5926208.8265381.5926208 1.3543396 0 .081543 0 .2141724-.6984863 4.6924744 3.5118408-2.8486328 3.6700134-2.9280396 3.7478943-2.9672852.1764526-.15271.5037842-.2515869.9053345-.2515869.6948242 0 1.2606506.3224792 1.6853333.9585876.1886292.3778076.272583.6999817.272583.9993286 0 .7197571-.3139343 1.302948-.9102173 1.686554l-4.4536438 1.7437439 4.3879395 1.7111816c.6558838.3717651.9759216.9403381.9759216 1.6686096 0 .3008728-.0839539.6227417-.2494507.9570618-.4465942.6771851-1.0306702.9996338-1.7607727.9996338-.3054504 0-.5926208-.066925-.854248-.1989441-.0742188-.036499-.2312012-.1137695-3.7466736-2.9663696.6984863 4.4789124.6984863 4.6109314.6984863 4.6924744 0 .5293274-.199585.9850464-.5938416 1.3543396C262.282074 319.8609009 261.8233337 320.0464783 261.3037415 320.0464783zM284.0629883 320.0464783c-.5195923 0-.978363-.1855774-1.3653259-.5524597-.3905945-.3680725-.5901489-.8237915-.5901489-1.3525085 0-.0657043 0-.2324219.6972351-4.6924744-3.5203247 2.8556213-3.6627197 2.9255981-3.7503052 2.9682007-.2567749.130188-.5439453.197113-.8505859.197113-.7289124 0-1.3129883-.3224487-1.7364502-.9588623-.184967-.3209534-.272583-.6677551-.272583-1.0510559 0-.7380371.3261108-1.291687.9430542-1.6013794l4.4196167-1.7242737-4.38797-1.7106018c-.6546631-.368988-.9747009-.9378662-.9747009-1.6679688 0-.3821106.087616-.7286072.2591858-1.0303955.4380798-.6576843 1.0039063-.9801636 1.6987305-.9801636.3103027 0 .6206055.0879211.9223633.2607117.0657349.0322571.2105408.1052551 3.7308655 2.9581604-.6984558-4.4600525-.6984558-4.6270752-.6984558-4.6924744 0-.5271912.1983337-.982605.5913696-1.3540344.3857422-.3653564.8445129-.5509338 1.3641052-.5509338.5183716 0 .9783325.1852722 1.3652954.5506287.3930359.3708191.5926208.8265381.5926208 1.3543396 0 .081543 0 .2141724-.6984863 4.6924744 3.5118408-2.8486328 3.6700134-2.9280396 3.7478943-2.9672852.1764526-.15271.5037842-.2515869.9053345-.2515869.6948242 0 1.2606506.3224792 1.6853333.9585876.1886292.3778076.272583.6999817.272583.9993286 0 .7197571-.3139343 1.302948-.9101868 1.686554l-4.4536743 1.7437439 4.3879395 1.7111816c.6558838.3717651.9759216.9403381.9759216 1.6686096 0 .3008728-.0839539.6227417-.2494507.9570618-.4465942.6771851-1.0306702.9996338-1.7607727.9996338-.3054504 0-.5926208-.066925-.854248-.1989441-.0742188-.036499-.2312012-.1137695-3.7466736-2.9663696.6984863 4.4789124.6984863 4.6109314.6984863 4.6924744 0 .5293274-.199585.9850464-.5938416 1.3543396C285.0413208 319.8609009 284.5825806 320.0464783 284.0629883 320.0464783zM306.8222351 320.0464783c-.5195923 0-.978363-.1855774-1.3652954-.5524597-.390625-.3680725-.5901794-.8237915-.5901794-1.3525085 0-.0657043 0-.2324219.6972351-4.6924744-3.5203247 2.8556213-3.6626892 2.9255981-3.7503052 2.9682007-.2567749.130188-.5439453.197113-.8505859.197113-.7289124 0-1.3129883-.3224487-1.7364502-.9588623-.184967-.3209534-.272583-.6677551-.272583-1.0510559 0-.7380371.3261108-1.291687.9430542-1.6013794l4.4196167-1.7242737-4.38797-1.7106018c-.6546631-.368988-.9747009-.9378662-.9747009-1.6679688 0-.3821106.087616-.7286072.2591858-1.0303955.4380798-.6576843 1.0039063-.9801636 1.6987305-.9801636.3103027 0 .6206055.0879211.9223633.2607117.0657349.0322571.2105408.1052551 3.7308655 2.9581604-.6984558-4.4600525-.6984558-4.6270752-.6984558-4.6924744 0-.5271912.1983337-.982605.5913696-1.3540344.3857422-.3653564.8445129-.5509338 1.3641052-.5509338.5183716 0 .9783325.1852722 1.3652954.5506287.3930359.3708191.5926208.8265381.5926208 1.3543396 0 .081543 0 .2141724-.6984863 4.6924744 3.5118408-2.8486328 3.6700134-2.9280396 3.7478943-2.9672852.1764526-.15271.5037842-.2515869.9053345-.2515869.6948242 0 1.2606506.3224792 1.6853333.9585876.1886292.3778076.272583.6999817.272583.9993286 0 .7197571-.3139343 1.302948-.9101868 1.686554l-4.4536743 1.7437439 4.3879395 1.7111816c.6558838.3717651.9759216.9403381.9759216 1.6686096 0 .3008728-.0839539.6227417-.2494507.9570618-.4465942.6771851-1.0306702.9996338-1.7607727.9996338-.3054504 0-.5926208-.066925-.854248-.1989441-.0742188-.036499-.2312012-.1137695-3.7466736-2.9663696.6984863 4.4789124.6984863 4.6109314.6984863 4.6924744 0 .5293274-.199585.9850464-.5938416 1.3543396C307.8005676 319.8609009 307.3418274 320.0464783 306.8222351 320.0464783z" class="colorffffff svgShape"></path></g></g><g fill="#000000" class="color000000 svgShape"><path fill="#add6ff" d="M498.9879456,227.0814209l-19.8240967,30.2317505l-31.4164429,3.8012085v26.7741699          l35.2321167,1.5268555c6.2615967,0.6046143,12.3911133-2.059082,16.2351074-7.0455933l19.9752502-25.9536133          l10.5496216-13.713501L498.9879456,227.0814209z" class="colorffadbf svgShape"></path><path fill="#010101" d="M611.71698,209.2308502c-0.5666504,3.4563904-3.5628052,5.983078-4.4483643,9.3781433           c-0.260437,0.9985809,0.2457275,2.0590973,0.0944214,3.1169739           c-0.6604614,4.6181488-4.8828125,8.2639923-9.5956421,9.9449158           c-4.72229,1.6813812-9.9072876,1.7662354-14.9602051,1.8321838           c-2.4367065,0.028595-5.0244751,0.0189056-7.1022339-1.1708832           c-2.0683594-1.1805725-3.2111816-4.0139313-1.6433716-5.7326813           c-6.8567505,1.4540405-13.713501,2.9085388-20.560791,4.3630371           c-3.1828003,0.670517-6.460083,1.3507385-9.6900635,0.8877258           c-3.2206421-0.4533081-6.4317627-2.3233185-7.3289795-5.2134094           c-1.8511963-5.9401855,6.5734253-11.8905334,4.0422363-17.6139832           c-2.3800049-5.3835754-11.9945679-4.8260345-14.9318848-9.9638062           c-2.1343994-3.7307892,0.3400879-8.8307495-2.2855225-12.2779236           c-1.1049805-1.4544983-2.9089355-2.2855072-4.5428467-3.2115173           c-8.0278625-4.5331879-14.025116-13.1845398-14.5540161-21.9207458           c-0.2550049-4.2025452,0.6233215-8.5849457,1.1333618-12.7404633           c0.5949402-4.816803,0.7555542-9.6806641,1.7755127-14.4504242           c1.3694763-6.4032135,4.4143372-14.9784775,10.8555298-17.4433746           c8.2545166-3.1640167,18.1959229-3.9484406,27.0454712-3.9106216           c9.4918213,0.047493,19.4463501,3.4665298,25.131958,11.0595245           c5.7894897,7.7447128,6.1578369,18.1055832,6.6583862,27.7576523           c0.5005493,9.6617584,1.737793,20.1734314,8.6134644,26.9736786           c6.1672363,6.1108246,15.7250977,7.95224,21.5712891,14.3748169           C610.8575439,197.510025,612.6425781,203.5641327,611.71698,209.2308502z" class="color010101 svgShape"></path><path fill="#89c4ff" d="M515.9881592,251.8262939c-4.023407-3.9290771-7.5461731-7.6995239-7.5461731-7.6995239           c-0.6516113,9.3878174-13.65271,20.8035278-21.3730469,26.1915894           c-11.0228882,7.6929321-24.4500122,11.4368286-35.4622803,13.7564087           c1.3098145,0.6605835,2.6402588,1.281311,3.9560547,1.8910522           c1.0057373,0.4660645,1.6828613,1.3400269,2.0661011,2.3494873l25.350708,1.1000977           c6.2615967,0.6046143,12.3911133-2.059082,16.2351074-7.0455933l19.9752502-25.9536133           C518.3966064,254.7067261,517.3386841,253.1484375,515.9881592,251.8262939z" class="colorff89a6 svgShape"></path><path fill="#6083a6" d="M534.1243286,229.4489136c-6.9984131,12.54216-15.8479614,29.9864197-17.2929688,32.8387146           c-0.1416626,0.2642212-0.2078247,0.4058228-0.2078247,0.4058228l-18.8512573-17.9820099l-8.2828979-7.9051971           c12.1551514-16.3107452,29.854187-39.7524109,38.7792969-46.8731689L534.1243286,229.4489136z" class="color6a60a6 svgShape"></path><path fill="#53629b" d="M517.9741211,209.7288055l-1.1427612,52.5588226           c-0.1416626,0.2642212-0.2078247,0.4058228-0.2078247,0.4058228l-12.459259-11.8847656L517.9741211,209.7288055z" class="color59539b svgShape"></path><path fill="#010101" d="M478.121582,554.3853149c-0.242981,0-0.4850464-0.0982666-0.6614685-0.2915039             c-0.4084473-0.4467773-3.9692078-4.4520874-3.2565308-7.5093994             c0.1843262-0.791687,0.7428894-1.8672485,2.3560486-2.4970093             c1.4389343-0.56073,2.7207031-0.4972534,3.8124695,0.1897583             c2.4492798,1.5413818,2.8257751,5.6364136,2.8603516,6.0985107             c0.0372009,0.4933472-0.3322754,0.9230347-0.8256226,0.9608765             c-0.4951172,0.03479-0.9236755-0.3320313-0.9622192-0.8249512             c-0.0783386-1.0070801-0.5957947-3.8181763-2.0298767-4.7182007             c-0.5914307-0.3710327-1.3119812-0.3830566-2.2028198-0.0354614             c-0.9604797,0.3746948-1.1802368,0.8829346-1.262085,1.2324829             c-0.4233093,1.8108521,1.9642334,4.9403687,2.8336487,5.8938599             c0.3335571,0.3657227,0.3077393,0.9326172-0.057373,1.2664185             C478.5540771,554.3076172,478.3373718,554.3853149,478.121582,554.3853149z" class="color010101 svgShape"></path><polygon fill="#23326a" points="452.406 572.06 518.549 572.06 518.129 569.257 514.59 545.471 489.227 545.471 456.289 569.257" class="color48236a svgShape"></polygon><polygon fill="#010101" points="452.406 572.06 518.549 572.06 518.129 569.257 456.289 569.257" opacity=".3" class="color010101 svgShape"></polygon><rect width="68.508" height="2.803" x="451.223" y="570.658" fill="#010101" class="color010101 svgShape"></rect><polygon fill="#add6ff" points="489.227 545.468 488.17 525.627 511.08 531.559 511.489 545.468" class="colorffadbf svgShape"></polygon><path fill="#010101" d="M478.7607117 559.6605835c-.2210693 0-.4421387-.0809937-.6150513-.2445068-2.3197021-2.1876831-6.0595093-1.3793335-6.097168-1.3710327-.4811096.107666-.9621887-.1937256-1.0716553-.6759033-.109436-.4821777.1908875-.9615479.6728516-1.0720825.1904297-.0437622 4.7024536-1.0377197 7.7260742 1.8149414.36026.3397217.3769226.9070435.0372009 1.267334C479.2365417 559.5662842 478.9988403 559.6605835 478.7607117 559.6605835zM481.7781982 557.0016479c-.349762 0-.6816101-.2059937-.8260498-.5474243-.1002502-.225708-1.0401306-2.1091309-4.1998901-1.3258057-.4802246.1184692-.967041-.1741943-1.0856628-.6546631-.1190796-.4806519.1742249-.9667969.6549072-1.0858765 3.8076477-.9442139 5.7780151 1.1414795 6.2853699 2.3759766.1882324.4578857-.0301819.9816895-.4880981 1.170166C482.0071411 556.9799805 481.891571 557.0016479 481.7781982 557.0016479z" class="color010101 svgShape"></path><path fill="#010101" d="M489.3992004 563.9003296c-.4180603 0-.7919006-.2937622-.8777161-.7190552-1.9532776-9.6563721-8.184845-10.5877075-8.2474365-10.5960083-.4907227-.0648193-.8361206-.5152588-.7713318-1.0062256.0647888-.4911499.519165-.8361206 1.0059814-.7715454.3077393.0407104 7.5658264 1.1209106 9.7699585 12.0183716.0985107.4852295-.2153625.958252-.7008362 1.0565186C489.5178223 563.8944092 489.4578552 563.9003296 489.3992004 563.9003296zM557.850647 554.3853149c-.242981 0-.4850464-.0982666-.661499-.2915039-.4083862-.4467773-3.9691772-4.4520874-3.2564697-7.5093994.1842651-.791687.7428589-1.8672485 2.3560181-2.4970093 1.4389038-.56073 2.7207031-.4972534 3.8125.1897583 2.4492798 1.5413818 2.8257446 5.6364136 2.8602905 6.0985107.0372314.4933472-.3322144.9230347-.8256226.9608765-.4950562.03479-.923645-.3320313-.9621582-.8249512-.0783691-1.0070801-.5958252-3.8181763-2.0299072-4.7182007-.5914307-.3710327-1.3120117-.3830566-2.2028198-.0354614-.9604492.3746948-1.1802368.8829346-1.262085 1.2324829-.4233398 1.8108521 1.9642334 4.9403687 2.8336182 5.8938599.3336182.3657227.3077393.9326172-.057312 1.2664185C558.2831421 554.3076172 558.0664673 554.3853149 557.850647 554.3853149z" class="color010101 svgShape"></path><polygon fill="#23326a" points="532.135 572.06 598.278 572.06 597.858 569.257 594.319 545.471 568.956 545.471 536.018 569.257" class="color48236a svgShape"></polygon><polygon fill="#010101" points="532.135 572.06 598.278 572.06 597.858 569.257 536.018 569.257" opacity=".3" class="color010101 svgShape"></polygon><rect width="68.508" height="2.803" x="530.952" y="570.658" fill="#010101" class="color010101 svgShape"></rect><polygon fill="#add6ff" points="568.956 545.468 567.899 525.627 590.809 531.559 591.218 545.468" class="colorffadbf svgShape"></polygon><path fill="#010101" d="M558.4897461 559.6605835c-.2210693 0-.4421387-.0809937-.6150513-.2445068-2.3197021-2.1876831-6.0595093-1.3793335-6.097168-1.3710327-.4810791.107666-.9621582-.1937256-1.0715942-.6759033s.1908569-.9615479.6727905-1.0720825c.1904297-.0437622 4.7024536-1.0377197 7.7260742 1.8149414.3602905.3397217.3769531.9070435.0372314 1.267334C558.9656372 559.5662842 558.7279053 559.6605835 558.4897461 559.6605835zM561.5072632 557.0016479c-.3497925 0-.6815796-.2059937-.8260498-.5474243-.1002808-.225708-1.0401611-2.1091309-4.1998901-1.3258057-.4802246.1184692-.967041-.1741943-1.0856934-.6546631-.1190186-.4806519.1742554-.9667969.6549072-1.0858765 3.8076782-.9442139 5.7780151 1.1414795 6.2854004 2.3759766.1882324.4578857-.0302124.9816895-.4880981 1.170166C561.7362061 556.9799805 561.6206665 557.0016479 561.5072632 557.0016479z" class="color010101 svgShape"></path><path fill="#010101" d="M569.1282349,563.9003296c-0.4180298,0-0.7918701-0.2937622-0.8776855-0.7190552              c-1.9533081-9.6563721-8.1848145-10.5877075-8.2474365-10.5960083              c-0.4907227-0.0648193-0.8361206-0.5152588-0.7713623-1.0062256              c0.0648193-0.4911499,0.5192261-0.8361206,1.0059814-0.7715454              c0.3077393,0.0407104,7.5658569,1.1209106,9.7700195,12.0183716              c0.0984497,0.4852295-0.2153931,0.958252-0.7008667,1.0565186              C569.2468872,563.8944092,569.1869507,563.9003296,569.1282349,563.9003296z" class="color010101 svgShape"></path><g fill="#000000" class="color000000 svgShape"><polygon fill="#0575e6" points="559.385 312.044 550.686 364.159 526.149 537.634 466.015 537.634 511.019 325.814" class="color6a86ff svgShape"></polygon></g><g fill="#000000" class="color000000 svgShape"><polygon fill="#5aacff" points="550.686 364.159 526.149 537.634 520.426 537.634 538.626 353.978" class="color6a5aff svgShape"></polygon></g><g fill="#000000" class="color000000 svgShape"><polygon fill="#0575e6" points="535.068 317.179 553.842 537.637 613.733 537.637 584.631 315.198" class="color6a86ff svgShape"></polygon></g><g fill="#000000" class="color000000 svgShape"><polygon fill="#add6ff" points="526.424 170.013 527.866 185.582 528.472 192.125 551.712 189.383 549.018 161.379 534.673 166.713" class="colorffadbf svgShape"></polygon></g><g fill="#000000" class="color000000 svgShape"><path fill="#89c4ff" d="M526.4238892,170.0125427l1.4420776,15.5696411l16.7578735-15.1068573           c0,0-5.1119995-1.929306-9.9506226-3.7618408L526.4238892,170.0125427z" class="colorff89a6 svgShape"></path></g><g fill="#000000" class="color000000 svgShape"><path fill="#add6ff" d="M530.4914551,174.5588074c14.248291,1.8650208,26.5162964-10.4964752,27.1480103-24.8619843           c0.6314697-14.3660126-10.8030396-24.1370392-24.8622437-27.1582718           C509.867981,117.615593,491.207428,169.4165497,530.4914551,174.5588074z" class="colorffadbf svgShape"></path></g><g fill="#000000" class="color000000 svgShape"><path fill="#6083a6" d="M505.460083,334.0550842c-1.0186768-16.9824524,3.3262939-101.2714386,15.0714722-132.286972           c4.8771362-12.8790436,21.7331543-30.0294037,47.8639526-11.2145386           c24.7944336,17.8527222,29.2328491,119.5366058,29.7119141,143.5015106H505.460083z" class="color6a60a6 svgShape"></path></g><g fill="#000000" class="color000000 svgShape"><path fill="#010101" d="M515.6972656,165.3249512c-0.1757813,0-0.3505859-0.012207-0.5253906-0.0366211           c-1.7783203-0.2490234-2.6699219-1.6645508-2.765625-1.8251953l1.71875-1.0244141l-0.859375,0.512207l0.8535156-0.5209961           c0.0048828,0.0073242,0.4921875,0.7700195,1.3496094,0.8803711           c0.7880859,0.1030273,1.7841797-0.3735352,2.8515625-1.3774414l1.3710938,1.4570313           C518.3242188,164.6760254,516.9833984,165.3249512,515.6972656,165.3249512z" class="color010101 svgShape"></path></g><g fill="#000000" class="color000000 svgShape"><path fill="#010101" d="M562.8320313,148.804657c-0.5667114,4.750412-1.1522827,9.5294037-2.6350708,14.0722809           c-1.3694458,4.1933289-9.8928223,11.8688354-9.8928223,11.8688354s-2.2905884-22.5128479-1.4689331-25.0441589           c0.3588867-1.1330719,0.5194702-2.3703613,0.1699829-3.503891           c-0.3494263-1.1330719-1.2844238-2.1439362-2.4650269-2.3136292           c-0.5761108-0.0853271-1.1616821,0.0281219-1.7000122,0.2642365           c-0.0944214-0.0567169-0.1983032-0.1037598-0.3116455-0.1323547l-0.0189209,0.2836151           c-0.321106,0.1697083-0.623291,0.3869171-0.8972168,0.6138c-2.3233643,1.9548645-2.7955933,5.0999603-3.4284058,8.0656891           c-2.1817017-0.1983032-2.3988647-8.3488312-2.918335-8.7362061           c-0.7744751-0.5667725,0.5477295-0.8217926-0.3683472-1.0957184           c-2.7200317-0.802887-5.430603-1.6057587-8.1506348-2.4081726c-2.7011108-0.7931976-5.430603-1.6057587-7.8861694-3.00354           c-2.446167-1.3977661-4.6278687-3.4471588-5.6195068-6.0914459           c-1.4922485-3.9387741,0.0094604-8.6043243,3.0316162-11.5317612           c3.0317383-2.9186783,7.3289795-4.2500458,11.5413208-4.3824005           c4.2028198-0.1323547,8.3677979,0.8406906,12.4195557,1.9926682           c3.8061523,1.0860367,7.6028442,2.3611374,11.0217896,4.3727188           c3.4189453,2.0023499,6.4694824,4.8071289,8.2355957,8.3488235           C564.2675781,136.0259247,563.5875854,142.6182098,562.8320313,148.804657z" class="color010101 svgShape"></path></g><g fill="#000000" class="color000000 svgShape"><path fill="#add6ff" d="M535.0680542,245.6178741l-2.6707153,29.4229889l-53.3119812-4.6218262l-9.8526917,17.2270813           c0,0,59.7967529,30.8888245,84.6553345,16.3065186c17.161438-10.0670471,16.9889526-67.1070251,16.9889526-67.1070251           L535.0680542,245.6178741z" class="colorffadbf svgShape"></path></g><g fill="#000000" class="color000000 svgShape"><path fill="#6083a6" d="M571.6942139,248.4359131l-37.5698853-0.062439c0,0,1.2531128-24.2061157,1.9317017-32.8609619           c1.4429932-18.2791901,36.828125-24.626358,37.5548706,6.3187561           C573.9822998,237.5146027,571.6942139,248.4359131,571.6942139,248.4359131z" class="color6a60a6 svgShape"></path></g><g fill="#000000" class="color000000 svgShape"><path fill="#53629b" d="M572.1835938,248.5383301l-0.9785156-0.2050781           c0.0224609-0.1088867,2.2714844-11.0527344,1.90625-26.4902344           c-0.3574219-15.2280273-9.2529297-20.8959961-17.4589844-21.1230469           c-8.6064453-0.2314453-18.3515625,5.3657227-19.0986938,14.8320313l-0.9960327-0.0791016           c0.7939453-10.0517578,11.0605469-15.9765625,20.1230469-15.7524414           c8.6640625,0.2397461,18.0556641,6.1708984,18.4306641,22.0991211           C574.4794922,237.380127,572.2070313,248.4284668,572.1835938,248.5383301z" class="color59539b svgShape"></path></g><g fill="#000000" class="color000000 svgShape"><path fill="#add6ff" d="M550.7211304,182.5808868l-27.579834,21.6182556l5.1236572-14.2636566           C535.1975708,182.3157349,540.3403931,178.173584,550.7211304,182.5808868z" class="colorffadbf svgShape"></path></g><g fill="#000000" class="color000000 svgShape"><path fill="#add6ff" d="M459.8156433,264.3670044c-2.1430664-1.128479-2.2852783-2.418335-1.8013306-3.4831848           c0.6390686-1.4249573,2.2947083-2.1147766,3.8150635-1.7329712l4.7464294,1.1949158           c1.1132202,0.2864685,2.1430359,0.8286133,2.9962158,1.5960388l9.5133362,8.4772339L459.8156433,264.3670044z" class="colorffadbf svgShape"></path><path fill="#446bff" d="M430.2751465,208.1154175l1.0541077,4.8678131l-9.3511658,2.0249176l1.3055115,6.0288239            l2.6914978-0.5828247l1.9416504,8.9666443l-4.9369202,1.069046l1.3055115,6.0288239l11.5965576-2.5111389            l13.8914185,60.6917572c-13.406311,7.0169678-21.0526428,22.3425598-17.6939392,37.8532104            c4.0314636,18.6174011,22.3864746,30.4380798,41.0038757,26.4066162s30.4380798-22.3864441,26.4066162-41.0038452            c-3.3587036-15.5106506-16.6600647-26.3001709-31.7682495-27.1425476l-19.4981689-86.5838623            c-0.5361938-2.4761505-2.0299072-4.5036011-4.0037231-5.7747498s-4.4377441-1.7922668-6.9137268-1.2561188            C432.3536987,198.2703705,429.2027588,203.1631165,430.2751465,208.1154175z M481.0260315,321.9534607            c1.8217468,8.4127808-3.5281372,16.7202759-11.9409485,18.5419922            c-8.4127808,1.8217468-16.7201233-3.5283813-18.5418396-11.9411621            c-1.8217468-8.4128113,3.5281372-16.7203064,11.9409485-18.5420227            C470.8969727,308.1905518,479.2043152,313.5406494,481.0260315,321.9534607z" class="colorff449c svgShape"></path><path fill="#add6ff" d="M479.0853577,270.4190369l-9.8526917,17.2270813c0,0-17.5198364-4.0158997-20.1486816-5.5478516           c-4.3053589-2.5183716-1.0024109-5.2749939-1.0024109-5.2749939           c-3.1193237-2.3244629-0.175354-4.6245728-0.175354-4.6245728           c-2.2203064-3.4809265,1.1404114-5.4533081,1.1404114-5.4533081           c-0.687561-1.2366333-0.5101624-2.2108459-0.0456543-2.9378052           c0.7111511-1.1217346,2.1192017-1.5777893,3.4034119-1.2640381l7.4112549,1.8234558" class="colorffadbf svgShape"></path></g><g fill="#000000" class="color000000 svgShape"><polygon fill="#010101" points="514.279 156.545 510.571 155.025 514.274 143.508 516.179 144.12 513.042 153.876 515.037 154.694" class="color010101 svgShape"></polygon></g></g><g fill="#000000" class="color000000 svgShape"><path fill="#add6ff" d="M438.7792969,267.6968994c1.7891846-0.0311279,3.7217407-0.3276672,5.1132202-1.252533        c5.5820923-3.6826172,0.9565125-7.1281738,0.9565125-7.1281738c4.01474-3.3383331-0.101593-6.2051544-0.101593-6.2051544        c2.7175903-4.8183441-1.9280701-7.2073364-1.9280701-7.2073364c0.7948303-1.6109772,0.558197-2.8512573-0.0339661-3.7812653        c-0.9866638-1.5552979-2.9754028-2.145874-4.7416687-1.6103058l-4.4895325,1.3699341        c-2.9847717,0.9107819-4.7424927,3.9912262-4.0114746,7.021347l3.4521179,14.2932739        C433.6434937,265.8594666,436.0300598,267.7583923,438.7792969,267.6968994z" class="colorffadbf svgShape"></path></g><g fill="#000000" class="color000000 svgShape"><circle cx="174.26" cy="118.494" r="20.623" fill="#002dd5" class="colord5d400 svgShape"></circle><circle cx="174.26" cy="111.828" r="4.602" fill="#ffffff" class="colorffffff svgShape"></circle><path fill="#ffffff" d="M185.2018585,129.7610168c-0.0858459-5.9734421-4.9481049-10.7913666-10.9420776-10.7913666         c-5.9938965,0-10.8561401,4.8179245-10.9420013,10.7913666H185.2018585z" class="colorffffff svgShape"></path></g><g fill="#000000" class="color000000 svgShape"><path fill="#ffffff" d="M428.3634033,412.2089233c-1.9754639,8.9150085-11.1398621,43.8347168-34.8534851,51.9587708        c-0.4324646,0.144165-0.9039001,0.144165-1.33255,0c-23.7135925-8.124054-32.8779907-43.0437622-34.8573303-51.9587708        c-0.2493896-1.1338196,0.4714355-2.24823,1.6053162-2.5014648        c19.7392578-4.3756714,28.7243652-14.8336792,32.1454468-20.1756592c0.8299255-1.2975464,2.7118835-1.2975464,3.5457153,0        c3.4171753,5.34198,12.40625,15.7999878,32.1454468,20.1756592        C427.895813,409.9606934,428.6166687,411.0751038,428.3634033,412.2089233z" class="colorffffff svgShape"></path><path fill="#5aacff" d="M420.9173279,416.0126038c-2.6251221,10.1913452-10.4933777,34.2719727-27.4141235,40.9006653        c-0.4236145,0.163208-0.8993225,0.163208-1.322937,0c-16.9484863-6.6390686-24.7994385-30.7093201-27.4175415-40.9006653        c-0.2535095-0.996521,0.34375-2.0069885,1.336792-2.270874c13.4518127-3.6008301,21.1604309-10.2711487,25.299469-15.3303833        c0.746521-0.913208,2.1389465-0.913208,2.8889771,0c4.1355591,5.0592346,11.8441162,11.7295532,25.2924805,15.3269043        C420.5735779,414.0056152,421.1742859,415.0160828,420.9173279,416.0126038z" class="color6a5aff svgShape"></path><polygon fill="#ffffff" points="388.231 440.089 381.568 433.769 384.32 430.866 388.083 434.435 402.068 419.693 404.971 422.447" class="colorffffff svgShape"></polygon></g><g fill="#000000" class="color000000 svgShape"><path fill="#0575e6" d="M501.3603516,79.414238c0,4.4048233-1.7850647,8.4045105-4.66922,11.2887726       c-2.8924561,2.8924332-6.8757019,4.6775055-11.2886963,4.6775055c-8.8178101,0-15.9662781-7.1485596-15.9662781-15.9662781       c0-4.4048309,1.7850647-8.3962479,4.6775208-11.288681c2.8924255-2.8841553,6.8756714-4.6693306,11.2887573-4.6693306       c4.4129944,0,8.3962402,1.7851753,11.2886963,4.6693306C499.5752869,71.0179901,501.3603516,75.009407,501.3603516,79.414238z" class="color6a86ff svgShape"></path><path fill="#ffffff" d="M490.6826172,80.9791107l-7.4153442,4.325737       c-1.2078552,0.7022171-2.7246399-0.1593246-2.7246399-1.5637436v-8.6512527c0-1.39505,1.5167847-2.2657318,2.7246399-1.5635223       l7.4153442,4.3348846C491.881073,78.5540543,491.881073,80.2862701,490.6826172,80.9791107z" class="colorffffff svgShape"></path></g><g fill="#000000" class="color000000 svgShape"><path fill="#505b86" d="M232.329071,209.8322754c-0.1240234,0-0.25-0.0234375-0.3720703-0.0722656     c-6.0351563-2.4160156-11.4394531-7.3618164-15.21875-13.9267578     c-3.0048828-5.2216797-5.0908203-11.4233398-6.5634766-19.5170898c-0.7050781-3.871582-1.2167969-7.9956055-0.1992188-11.9213867     c0.0302734-0.1196289,0.0634766-0.2382813,0.0966797-0.3564453c-2.8710938-4.6679688-2.9619141-11.1342773-0.9335938-16.1469727     c2.8095703-6.9492188,8.6591797-12.0551758,13.8212891-16.5605469l20.1787109-17.6142578     c0.4140625-0.3632813,1.046875-0.3212891,1.4101563,0.0957031c0.3632813,0.4160156,0.3203125,1.0478516-0.0957031,1.4111328     l-20.1787109,17.6142578c-4.9921875,4.3579102-10.6513672,9.2973633-13.2822266,15.8037109     c-1.6171875,3.9995117-1.7529297,9.0195313,0.0322266,12.9604492c1.5605469-3.0966797,4.1816406-5.3530273,7.1689453-6.0239258     c2.2724609-0.5112305,4.8955078,0.1083984,6.8427734,1.6142578c1.7080078,1.3227539,2.6845703,3.1201172,2.7470703,5.0615234     c0.0976563,2.9921875-2.0380859,5.9492188-5.0791016,7.03125c-2.6464844,0.9433594-5.8417969,0.5214844-8.5400391-1.1289063     c-0.9482422-0.5791016-1.7841797-1.269043-2.5126953-2.0444336c-0.5478516,3.206543-0.0976563,6.6118164,0.4902344,9.8461914     c1.4316406,7.8618164,3.4433594,13.8603516,6.3310547,18.8774414     c3.5546875,6.1777344,8.6074219,10.8183594,14.2285156,13.0683594c0.5126953,0.2050781,0.7617188,0.7871094,0.5566406,1.2998047     C233.1005554,209.5944824,232.7255554,209.8322754,232.329071,209.8322754z M212.2714539,163.7429199     c0.7832031,1.0639648,1.7578125,1.9868164,2.9355469,2.706543c2.1894531,1.3378906,4.7421875,1.6933594,6.8261719,0.9516602     c2.2080078-0.7856445,3.8203125-2.9707031,3.7519531-5.0820313c-0.0439453-1.3349609-0.7451172-2.5942383-1.9736328-3.5454102     c-1.4882813-1.1513672-3.4716797-1.6259766-5.1806641-1.2446289     C215.8525085,158.1530762,213.4462585,160.5378418,212.2714539,163.7429199z" class="color7e5086 svgShape"></path></g><g fill="#000000" class="color000000 svgShape"><path fill="#505b86" d="M252.8495789,107.5666504c-0.2783203,0-0.5556641-0.1157227-0.7529297-0.3422852     c-0.3632813-0.4160156-0.3203125-1.0478516,0.0957031-1.4111328l10.4462891-9.1186523     c0.4150391-0.3632813,1.046875-0.3217773,1.4101563,0.0957031c0.3632813,0.4160156,0.3203125,1.0478516-0.0957031,1.4111328     l-10.4462891,9.1186523C253.3173523,107.4855957,253.0829773,107.5666504,252.8495789,107.5666504z" class="color7e5086 svgShape"></path></g><g fill="#000000" class="color000000 svgShape"><path fill="#505b86" d="M605.0966797,143.5246582c-0.5449219,0-0.9912109-0.4370117-1-0.9838867     c-0.1035156-6.4135742-0.2119141-13.0454102-1.6767578-19.3603516     c-1.0898438-4.6953125-3.4560547-11.1791992-8.5595703-15.8505859c-0.8232422,2.2202148-2.4775391,4.2949219-4.9492188,5.0063477     c-1.7441406,0.5029297-3.7695313,0.0551758-5.2792969-1.1650391c-1.2958984-1.0473633-1.9794922-2.5048828-1.8769531-3.9985352     c0.2050781-2.9492188,3.2207031-4.9204102,5.9208984-4.9204102c0.0078125,0,0.0166016,0,0.0253906,0     c1.5800781,0.0068359,3.1650391,0.5043945,4.7988281,1.5117188c0.0429688-2.1601563-0.53125-4.355957-1.2275391-6.7539063     c-1.6552734-5.6962891-3.6142578-11.6914063-6.7148438-16.9418945     c-2.3574219-3.9916992-6.4853516-9.3422852-12.7568359-12.1650391     c-5.3554688-2.4101563-11.4121094-2.6376953-17.6640625-2.668457c-4.0097656-0.0195313-8.0498047,0.0185547-12.0292969,0.1132813     c-0.5302734,0.0136719-1.0097656-0.4238281-1.0234375-0.9755859c-0.0126953-0.5522461,0.4238281-1.0102539,0.9765625-1.0234375     c3.9980469-0.0952148,8.0693359-0.1328125,12.0859375-0.1142578c6.4755859,0.0317383,12.7617188,0.2734375,18.4746094,2.8442383     c6.7509766,3.0380859,11.1533203,8.7314453,13.6591797,12.972168c3.2128906,5.4414063,5.2207031,11.5791016,6.9121094,17.4013672     c0.8486328,2.9208984,1.5791016,5.7832031,1.2109375,8.6865234c0,0.0024414-0.0009766,0.0048828-0.0009766,0.0078125     c0.0634766,0.0527344,0.1259766,0.105957,0.1894531,0.1601563c5.9111328,5.0532227,8.5791016,12.2626953,9.7753906,17.4213867     c1.5146484,6.5219727,1.6240234,13.262207,1.7294922,19.7802734c0.0087891,0.5522461-0.4316406,1.0068359-0.9833984,1.0161133     C605.1074219,143.5246582,605.1015625,143.5246582,605.0966797,143.5246582z M587.6748047,104.2521973     c-1.7597656,0-3.7988281,1.2514648-3.9238281,3.0585938c-0.0791016,1.140625,0.6796875,1.9335938,1.1386719,2.3051758     c0.9960938,0.8051758,2.3583984,1.1162109,3.46875,0.7983398c2.0283203-0.5839844,3.3183594-2.5078125,3.8447266-4.4453125     c-1.5957031-1.1469727-3.0800781-1.7104492-4.5107422-1.7167969     C587.6865234,104.2521973,587.6806641,104.2521973,587.6748047,104.2521973z" class="color7e5086 svgShape"></path></g><g fill="#000000" class="color000000 svgShape"><path fill="#505b86" d="M515.3457031,66.8395996c-0.5126953,0-0.9492188-0.3920898-0.9951172-0.9125977     c-0.0488281-0.5498047,0.3583984-1.0351563,0.9082031-1.0834961c4.2109375-0.3701172,8.4990234-0.6811523,12.7431641-0.9248047     c0.5332031-0.03125,1.0244141,0.3896484,1.0556641,0.9414063c0.0322266,0.5512695-0.3896484,1.0239258-0.9404297,1.0556641     c-4.2255859,0.2421875-8.4921875,0.5517578-12.6826172,0.9199219     C515.4042969,66.8381348,515.375,66.8395996,515.3457031,66.8395996z" class="color7e5086 svgShape"></path></g></svg>