<svg xmlns="http://www.w3.org/2000/svg" enable-background="new 0 0 1500 789.883" viewBox="0 0 1500 789.883" id="LovingCoupleCelebrateAnniversaryOneYear"><path fill="#d6e9fc" d="M796.235 427.778a24.31 24.31 0 0 1-.005 3.25c-.152 2.403-.533 5.454-1.858 7.546-1.249 1.977-3.214 1.705-5.305 1.576-16.279-1.074-32.556-1.474-48.872-.843-2.303.089-4.865.511-7.163.329-.576-.04-1.184-.04-1.651-.395-1.537-1.145-1.178-4.658-1.219-6.295-.141-5.861.742-13.348 4.01-18.404 1.326-2.039 2.876-1.727 5.051-1.263 3.266.685 6.526 1.594 9.657 2.779 3.004 1.136 5.853 2.601 8.405 4.459a28.285 28.285 0 0 1 3.234 2.714c4.582-3.672 9.531-6.855 14.849-9.428 3.193-1.539 7.04-3.641 10.592-4.115 2.802-.377 4.004 1.433 5.398 3.64 2.732 4.315 4.563 9.334 4.877 14.45z" class="colorfcedd6 svgShape"></path><path fill="#b5cde5" d="M796.235 427.778a24.31 24.31 0 0 1-.005 3.25c-.152 2.403-.533 5.454-1.858 7.546-1.249 1.977-3.214 1.705-5.305 1.576-16.279-1.074-32.556-1.474-48.872-.843-2.303.089-4.865.511-7.163.329-.576-.04-1.184-.04-1.651-.395-1.537-1.145-1.178-4.658-1.219-6.295-.141-5.861.742-13.348 4.01-18.404 1.326-2.039 2.876-1.727 5.051-1.263 3.266.685 6.526 1.594 9.657 2.779 3.004 1.136 5.853 2.601 8.405 4.459a27.51 27.51 0 0 0-13.534-3.166c-2.244.061-4.834.648-5.784 2.681-.759 1.624-.111 3.63 1.121 4.931 1.238 1.293 2.94 2.023 4.619 2.655 10.635 3.976 22.227 5.138 33.533 4.045 6.446-.624 12.802-1.97 18.995-3.885z" class="colore5d0b5 svgShape"></path><path fill="#204cf2" d="M713.175 443.634h100.087v75.76H713.175z" class="colorf28420 svgShape"></path><path fill="#3a62f8" d="M754.2 443.63h59.061v75.763H754.2z" class="colorf89a3a svgShape"></path><path fill="#d6e9fc" d="M775.644 443.63h17.733v75.763h-17.733z" class="colorfcedd6 svgShape"></path><path fill="#b5cde5" d="M723.871 443.63h17.733v75.763h-17.733z" class="colore5d0b5 svgShape"></path><path fill="#204cf2" d="m813.261 456.48-100.087 2.346v-15.191h100.087z" opacity=".5" class="colorf28420 svgShape"></path><path fill="#3a62f8" d="M708.236 434.62H818.2v18.028H708.236z" class="colorf89a3a svgShape"></path><path fill="#577aff" d="M748.023 434.62h70.178v18.028h-70.178z" class="colorffa757 svgShape"></path><path fill="#d6e9fc" d="M778.557 434.62h17.733v18.028h-17.733z" class="colorfcedd6 svgShape"></path><path fill="#b5cde5" d="M719.998 434.62h17.733v18.028h-17.733z" class="colore5d0b5 svgShape"></path><path fill="#0575e6" d="M678.311 530.688h169.814v115.988H678.311z" class="color2796a8 svgShape"></path><path fill="#3777b8" d="M738.628 530.688h109.498v115.988H738.628z" class="color37a0b8 svgShape"></path><path fill="#d6e9fc" d="M774.093 530.688h37.016v115.988h-37.016z" class="colorfcedd6 svgShape"></path><path fill="#b5cde5" d="M694.565 530.688h27.343v115.988h-27.343z" class="colore5d0b5 svgShape"></path><path fill="#0575e6" d="m848.124 546.768-169.813 2.939v-19.023h169.813z" opacity=".5" class="color2796a8 svgShape"></path><path fill="#3777b8" d="M672.125 519.392h182.186v22.583H672.125z" class="color37a0b8 svgShape"></path><path fill="#4c8fd3" d="M730.891 519.392h123.42v22.583h-123.42z" class="color4cc0d3 svgShape"></path><path fill="#d6e9fc" d="M781.184 519.392H818.2v22.583h-37.016z" class="colorfcedd6 svgShape"></path><path fill="#b5cde5" d="M688.962 519.392h27.343v22.583h-27.343z" class="colore5d0b5 svgShape"></path><path fill="#d6e9fc" d="M541.631 373.426a24.31 24.31 0 0 1-.005 3.25c-.152 2.403-.533 5.454-1.858 7.546-1.249 1.977-3.214 1.705-5.305 1.576-16.279-1.074-32.556-1.474-48.872-.843-2.302.089-4.865.511-7.163.329-.576-.04-1.184-.04-1.651-.395-1.537-1.145-1.178-4.658-1.219-6.295-.141-5.861.742-13.348 4.01-18.404 1.326-2.039 2.876-1.727 5.051-1.263 3.266.685 6.526 1.594 9.657 2.779 3.003 1.136 5.853 2.601 8.405 4.459a28.285 28.285 0 0 1 3.234 2.714c4.582-3.672 9.53-6.855 14.849-9.428 3.193-1.539 7.041-3.641 10.592-4.115 2.802-.377 4.004 1.433 5.398 3.64 2.732 4.314 4.562 9.334 4.877 14.45z" class="colorfcedd6 svgShape"></path><path fill="#b5cde5" d="M541.631 373.426a24.31 24.31 0 0 1-.005 3.25c-.152 2.403-.533 5.454-1.858 7.546-1.249 1.977-3.214 1.705-5.305 1.576-16.279-1.074-32.556-1.474-48.872-.843-2.302.089-4.865.511-7.163.329-.576-.04-1.184-.04-1.651-.395-1.537-1.145-1.178-4.658-1.219-6.295-.141-5.861.742-13.348 4.01-18.404 1.326-2.039 2.876-1.727 5.051-1.263 3.266.685 6.526 1.594 9.657 2.779 3.003 1.136 5.853 2.601 8.405 4.459a27.51 27.51 0 0 0-13.534-3.166c-2.244.061-4.834.648-5.784 2.681-.759 1.624-.111 3.63 1.121 4.931 1.238 1.294 2.94 2.023 4.619 2.655 10.635 3.975 22.227 5.138 33.533 4.045 6.445-.624 12.802-1.97 18.995-3.885z" class="colore5d0b5 svgShape"></path><path fill="#1c49f2" d="M458.57 389.282h100.087v113.18H458.57z" class="colorf2c91c svgShape"></path><path fill="#55aaff" d="M499.595 389.277h59.061v113.182h-59.061z" class="colorffde55 svgShape"></path><path fill="#d6e9fc" d="M521.039 389.277h17.733v113.182h-17.733z" class="colorfcedd6 svgShape"></path><path fill="#b5cde5" d="M469.267 389.277H487v113.182h-17.733z" class="colore5d0b5 svgShape"></path><path fill="#1c49f2" d="m558.656 402.127-100.086 2.347v-15.191h100.086z" opacity=".5" class="colorf2c91c svgShape"></path><path fill="#2350f9" d="M453.632 380.268h109.964v18.028H453.632z" class="colorf9d023 svgShape"></path><path fill="#55aaff" d="M493.418 380.268h70.177v18.028h-70.177z" class="colorffde55 svgShape"></path><path fill="#d6e9fc" d="M523.953 380.268h17.733v18.028h-17.733z" class="colorfcedd6 svgShape"></path><path fill="#b5cde5" d="M465.394 380.268h17.733v18.028h-17.733z" class="colore5d0b5 svgShape"></path><path fill="#2747c1" d="M423.707 513.757h169.814v132.919H423.707z" class="colorc1bc27 svgShape"></path><path fill="#3f88d1" d="M484.023 513.757h109.498v132.919H484.023z" class="colord1d13f svgShape"></path><path fill="#d6e9fc" d="M519.488 513.757h37.016v132.919h-37.016z" class="colorfcedd6 svgShape"></path><path fill="#b5cde5" d="M439.96 513.757h27.343v132.919H439.96z" class="colore5d0b5 svgShape"></path><path fill="#2747c1" d="m593.519 529.838-169.812 2.938v-19.023h169.812z" opacity=".5" class="colorc1bc27 svgShape"></path><path fill="#3f88d1" d="M417.521 502.461h182.186v22.583H417.521z" class="colord1d13f svgShape"></path><path fill="#5598db" d="M476.286 502.461h123.42v22.583h-123.42z" class="colord9db55 svgShape"></path><path fill="#d6e9fc" d="M526.58 502.461h37.016v22.583H526.58z" class="colorfcedd6 svgShape"></path><path fill="#b5cde5" d="M434.357 502.461H461.7v22.583h-27.343z" class="colore5d0b5 svgShape"></path><path fill="#435ec4" d="M694.937 124.886c-10.633 7.572-17.467 19.664-18.463 32.701a39.91 39.91 0 0 0-.101 2.677c-5.865.08-10.831 5.658-13.524 10.373-3.047 5.336-4.337 11.526-4.006 17.64.268 4.954.749 10.226 2.003 15.038 1.562 5.995 6.169 15.942 13.748 14.606.238-.042-1.139-8.887-1.033-8.905-6.76 1.191-11.151-6.837-13.017-12.202-.213-.611-.407-1.909-.686-2.83.024-.642.049-1.285.11-1.925a31.994 31.994 0 0 1 2.021-8.555c2.182-5.595 6.403-11.784 12.351-13.762a10.04 10.04 0 0 1 2.634-.495c.16 1.341.335 2.68.505 4.014.481 3.775 1.293 12.234 7.006 11.197 5.059-.918 2.671-10.053 2.268-13.31-.604-4.877-3.076-9.603-8.336-10.704l-.009-.001c.032-.147.057-.295.091-.441 2.434-10.582 8.632-19.917 17.47-26.21 1.222-.869-2.157-8.105-1.032-8.906zm-9.158 48.999c-.468.83-1.196 1.463-2.326 1.668-2.344.426-4.257-1.362-5.243-3.267-.446-.863-.647-1.766-.829-2.676l.005-.378c3.445-.039 6.494 1.805 8.393 4.653z" class="colorc44397 svgShape"></path><path fill="#55aaff" d="M599.614 198.97c-2.907-6.327-7.639-12.449-13.262-16.601-2.921-2.157-6.765-3.712-10.454-3.686-6.228-8.805-15.065-15.538-25.232-19.842.522.221 1.339 3.601 1.57 4.199.269.699.937 3.864 1.653 4.167 5.763 2.439 11.123 5.619 15.921 9.649.904.76 1.778 1.557 2.636 2.37a9.94 9.94 0 0 0-4.043 2.519c-4.102 4.184-3.001 10.628-1.275 15.609 1.446 4.173 2.887 8.879 5.195 12.679 3.975 6.545 10.554 1.404 12.143-4.094 1.639-5.67-.574-10.952-2.593-16.169a50.965 50.965 0 0 0-1.128-2.681c3.864.392 7.571 2.461 10.542 5.013 4.141 3.557 9.387 8.977 10.746 14.383 1.4 5.568.143 11.884-2.499 16.853-.288.542 1.337 3.595 1.569 4.199.231.6 1.943 3.622 1.653 4.167 5.77-10.848 1.617-22.374-3.142-32.734zm-17.95-8.224.125 1.054a16.484 16.484 0 0 1-.245 4.522c-.507 2.587-1.69 5.239-3.794 6.926-1.917 1.537-4.457 2.254-6.62.794-.518-.349-1.222-1.073-1.827-1.873a23.1 23.1 0 0 1-.261-1.329c-.816-5.133.572-10.699 5.774-12.894a11.785 11.785 0 0 1 4.277-.924c.932 1.356 1.937 2.824 2.571 3.724z" class="colorffde55 svgShape"></path><path fill="#577aff" d="M422.027 449.23c-11.823 1.445-26.877 9.504-30.24 22.023-13.716 2.786-25.373 15.286-34.344 24.964.363-.392 3.868.081 4.482.087.718.007 3.978.542 4.483-.003 7.337-7.915 15.202-15.893 24.782-21.049-.025 5.244 3.167 9.776 8.772 10.177l-.017.003h.045c.039.003.076.011.115.013 3.85.224 10.277 1.199 13.37-1.727 4.929-4.665-.495-11.579-5.717-12.645-2.083-.425-4.394-.593-6.71-.599 1.044-2.869 2.849-5.52 4.753-7.794 6.342-7.575 15.446-12.175 25.19-13.366-2.93.358-6.015-.444-8.964-.084zm-16.942 25.965c2.059 3.313 1.356 6.711-1.094 8.656-2.372-1.78-3.745-4.79-3.855-8.03-.048-1.405.152-2.782.524-4.119.857.374 1.915.817 2.165 1.006a9.341 9.341 0 0 1 2.26 2.487z" class="colorffa757 svgShape"></path><path fill="#4869e5" d="M959.899 403.71c-11.81 2.939-23.24 8.108-32.868 15.62-.146.114-.277.229-.413.343a5.178 5.178 0 0 0-.931-1.789c-3.15-3.899-10.131-4.83-14.773-5.484-10.999-1.55-22.393.283-31.436 6.998-.516.383-.639 3.192-.76 3.839-.122.648-.16 3.465-.683 3.854 7.543-5.601 16.754-7.854 26.071-7.484 4.538.18 14.581.85 19.079 4.873l-.113.604c-.47 1.563-.715 3.28-1.009 5.228-.027.181-.057.381-.082.588l-.102.543c.018-.048.041-.093.06-.14-.122 1.359.034 2.766 1.842 1.488 1.33-.939 1.566-2.54 1.873-4.003.15-.713.347-1.49.541-2.297.854-.62 1.737-1.198 2.571-1.776a88.594 88.594 0 0 1 9.521-5.743c6.402-3.337 13.17-5.827 20.171-7.569 1.101-.275.44-7.444 1.441-7.693z" class="colore54866 svgShape"></path><path fill="#3777b8" d="M902.605 485.708c-7.447-5.943-16.485-9.617-25.969-10.405 3.341-6.719 4.671-14.964-1.735-19.414-4.424-3.074-10.318-5.133-15.484-6.58-5.183-1.451-10.459-1.848-15.6-.036-2.007.707-2.846 4.662-4.805 5.352 8.988-3.169 18.341.485 26.574 4.203 5.106 2.306 9.313 5.363 8.988 11.503-.085 1.613-.4 3.229-.826 4.812-3.95-.15-9.128-.258-12.016 2.529-1.808 1.745-5.669 4.867-5.604 7.666.088 3.83 4.648 5.586 7.781 4.434 3.317-1.219 5.872-4.896 8.102-7.458.431-.496.866-1.038 1.297-1.611a66.17 66.17 0 0 1 5.368 1.023c7.019 1.63 13.501 4.847 19.124 9.335.151.119 4.74-5.405 4.805-5.353zm-31.324-4.034c-.252.502-.805 1.334-1.248 2.02-1.927 1.165-4.152 1.684-6.297.443-1.295-.749-2.26-1.925-2.594-3.244 3.251-.86 7.082-.807 10.682-.384-.177.389-.351.782-.543 1.165z" class="color37a0b8 svgShape"></path><path fill="#5598db" d="M741.296 131.145c-7.81 6.007-11.978 14.062-13.029 23.279-2.503 1.366-4.954 2.87-7.085 4.779-3.982 3.57-5.865 7.999-5.884 13.283-.016 4.608-.454 9.75 2.063 13.798-1.337-2.15 1.208-6.755-.165-8.963a9.531 9.531 0 0 1-.826-1.413c.238-.872.464-1.853.662-2.253 1.585-3.214 4.268-5.698 7.176-7.711.944-.654 2.332-1.696 3.811-2.614.049 3.269.356 6.669 2.516 9.152 1.278 1.469 3.831 3.024 5.752 1.74 1.561-1.043 1.215-3.336 1.197-4.962-.02-1.865-.03-3.707-.142-5.529l-.021-1.214c-.01.117-.029.222-.045.331-.202-2.447-.628-4.858-1.592-7.233-1.243-3.06-2.655-3.355-4.725-2.534.411-.896.854-1.778 1.341-2.633 2.322-4.076 5.455-7.49 9.162-10.34 1.45-1.115-1.531-7.913-.166-8.963zm-8.151 30.312c1.451.158 2.424 1.679 3.08 3.526-1.119.953-2.907.815-4.571-.29-.89-.591-1.556-1.373-2.074-2.252 1.283-.658 2.545-1.096 3.565-.984z" class="colord9db55 svgShape"></path><path fill="#3777b8" d="M605.091 113.03c.541 2.98.256 5.907-1.182 8.608-.321.603-.973 1.626-1.759 2.597-.649-.229-1.309-.357-1.971-.333-2.053.077-2.393 1.211-2.146 2.58-.011-.008-.024-.01-.035-.019l.062.167c.247 1.182.893 2.514 1.255 3.49.449 1.209.796 3.434 1.665 4.387l.029.029.122.327c-.024-.093-.038-.176-.056-.263 1.105 1.096 2.041.035 3.264-1.074.212-.192.39-.406.586-.608 1.59.604 3.193 1.559 3.807 2.072 1.46 1.222 2.678 2.697 3.715 4.29.115.176.599 1.126.927 1.715.156.693.476 1.858.48 1.88 1.505 7.991.429 16.366-4.806 22.802-.99 1.217 4.051 7.272 3.134 8.399 5.517-6.784 6.406-15.73 4.545-24.068-1.38-6.18-3.778-13.16-7.08-18.577a25.874 25.874 0 0 0-2.015-2.832c.827-2.248 1.037-4.716.591-7.172-.525-2.902-2.609-5.517-3.132-8.397z" class="color37a0b8 svgShape"></path><path fill="#4869e5" d="M335.863 447.61c2.139-.736 4.333-.857 6.491-.1.482.169 1.311.535 2.116 1.006a3.974 3.974 0 0 0-.023 1.493c.289 1.507 1.165 1.631 2.148 1.293-.005.009-.005.019-.01.028l.116-.065c.845-.316 1.756-.944 2.435-1.321.842-.468 2.446-.976 3.052-1.726.007-.008.011-.016.018-.025l.228-.127c-.066.028-.126.048-.188.071.685-.94-.204-1.511-1.162-2.289-.166-.135-.343-.242-.515-.364.266-1.243.79-2.535 1.1-3.046.738-1.217 1.689-2.282 2.749-3.228.117-.105.764-.57 1.162-.879.494-.194 1.318-.562 1.334-.567 5.731-2.014 12.037-2.166 17.382.972 1.011.593 4.913-3.813 5.849-3.264-5.633-3.308-12.341-2.953-18.288-.637-4.408 1.717-9.292 4.277-12.919 7.328a19.227 19.227 0 0 0-1.863 1.808 10.204 10.204 0 0 0-5.363.374c-2.085.719-3.781 2.553-5.849 3.265z" class="colore54866 svgShape"></path><path fill="#5598db" d="M377.008 389.06c-5.408 1.058-10.031 2.856-13.814 7.105-1.209 1.359-5.781 8.9-6.517 13.344-.279.011-.557.018-.836.032-2.964.152-5.863 1.512-8.809 1.663 2.191-.112 4.358-.127 6.544.103.566.059 2.033.1 3.147.316.194.591.589.994 1.259 1.121 1.117.211 8.222-.851 8.809-1.664.417-.576-.213-.901-1.129-1.095-.823-2.761 2.463-9.754 3.326-11.267 2.419-4.243 5.715-7.072 9.886-9.319.664.044 1.333.063 1.993.172 2.13.352 4.208 1.043 6.096 2.1 3.267 1.829 8.578 6.586 6.471 10.751.797-1.577 7.964.008 8.809-1.663 2.693-5.325-5.528-10.789-9.694-12.158-4.045-1.329-8.005-.934-12.007-.218.439-.739-4.542.092-3.534.677z" class="colord9db55 svgShape"></path><path fill="#55aaff" d="M953.879 491.974c-2.85-4.791-7.85-7.914-13.447-8.256-1.771-.108-3.607.081-5.436.406-.959-8.555-5.652-18.276-14.093-21.667-3.085-1.239-5.994-.955-9.139-.316-3.176.645-6.423 1.066-9.138 2.944 1.81-1.252 5.229-.22 7.073-1.495.201-.157.414-.294.625-.433 1.186.215 2.328.328 3.506.796 2.5.994 4.662 2.685 6.496 4.628 4.461 4.727 6.95 10.836 7.625 17.249a.69.69 0 0 1 .139-.04l-.015.004 2.133-.448c6.687-.748 13.131 2.296 16.598 8.125.423.709 6.703-2.119 7.073-1.497z" class="colorffde55 svgShape"></path><path fill="#3757d1" d="M790.102 315.255c-.283.537-.822.852-1.436.775-1.922-.244-2.363-2.136-3.089-3.718-1.124-2.406-2.225-3.902-5.142-3.111-1.203.33-2.373.793-3.527 1.276-1.144.476-2.115-.754-1.724-1.81a30.059 30.059 0 0 1 7.113-10.999c.568-.565 1.328-.493 1.853-.13 2.921-1.634 3.578 2.787 4.05 4.774.641 2.712 1.348 5.407 1.933 8.129.35 1.598.749 3.293-.031 4.814z" class="colord1375c svgShape"></path><ellipse cx="797.505" cy="226.571" fill="#4869e5" rx="75.344" ry="63.841" transform="rotate(-81.182 797.517 226.55)" class="colore54866 svgShape"></ellipse><ellipse cx="834.522" cy="207.515" fill="#4869e5" rx="19.125" ry="38.848" transform="rotate(-14.738 834.394 207.497)" class="colore54866 svgShape"></ellipse><path fill="#1c49f2" d="M870.592 386.111c-1.505 2.657-4.972.102-6.588-1.079-1.725-1.263-3.468-3.006-5.684-3.289-2.055-.268-3.347 1.193-5.352.687-.474-.126-.725-.61-.848-1.027-.617-2.22 1.65-5.111 2.957-6.724 1.917-2.347 4.294-4.129 7.005-5.455.529-.256 1.004-.138 1.338.137 2.64-.018 3.945 2.448 4.684 4.896.799 2.661 1.597 5.34 2.313 8.029.326 1.201.848 2.619.175 3.825z" class="colorf2c91c svgShape"></path><ellipse cx="880.159" cy="291.023" fill="#55aaff" rx="83.649" ry="63.938" transform="rotate(-84.658 880.126 291.009)" class="colorffde55 svgShape"></ellipse><ellipse cx="916.28" cy="269.835" fill="#55aaff" opacity=".5" rx="19.238" ry="42.943" transform="rotate(-12.552 916.22 269.749)" class="colorffde55 svgShape"></ellipse><path fill="#204cf2" d="M483.181 296.034c.241.457.7.726 1.223.661 1.638-.208 2.014-1.82 2.632-3.168.958-2.05 1.896-3.325 4.382-2.651 1.025.282 2.022.676 3.006 1.088.975.405 1.802-.643 1.469-1.542a25.625 25.625 0 0 0-6.061-9.373c-.484-.482-1.132-.42-1.579-.111-2.489-1.392-3.049 2.375-3.451 4.068-.546 2.311-1.148 4.608-1.647 6.927-.299 1.361-.639 2.805.026 4.101z" class="colorf28420 svgShape"></path><ellipse cx="476.872" cy="220.461" fill="#3a62f8" rx="59.739" ry="64.551" transform="rotate(-20.274 476.874 220.466)" class="colorf89a3a svgShape"></ellipse><ellipse cx="442.047" cy="204.222" fill="#3a62f8" opacity=".5" rx="33.354" ry="17.858" transform="rotate(-72.686 442.032 204.222)" class="colorf89a3a svgShape"></ellipse><path fill="#2747c1" d="M403.08 372.394c1.394 2.461 4.605.094 6.102-1 1.598-1.17 3.212-2.784 5.264-3.047 1.903-.248 3.1 1.105 4.957.636.439-.117.672-.565.785-.951.571-2.057-1.528-4.734-2.738-6.228-1.776-2.174-3.977-3.824-6.488-5.052-.49-.237-.93-.128-1.239.127-2.446-.017-3.654 2.268-4.338 4.535-.741 2.465-1.479 4.946-2.143 7.437-.303 1.112-.786 2.426-.162 3.543z" class="colorc1bc27 svgShape"></path><ellipse cx="394.218" cy="284.321" fill="#3f88d1" rx="64.08" ry="77.555" transform="rotate(-7.607 394.364 284.397)" class="colord1d13f svgShape"></ellipse><ellipse cx="357.982" cy="264.696" fill="#3f88d1" opacity=".5" rx="39.944" ry="19.218" transform="rotate(-75.854 357.975 264.687)" class="colord1d13f svgShape"></ellipse><path fill="#ffffff" d="M563.713 663.26a16.888 16.888 0 0 1-16.895-16.887v-9.655c0-4.491 1.743-8.719 4.91-11.904l.272-.274a16.904 16.904 0 0 1 10.764-4.953c5.385-.397 10.681-.768 15.733-1.116 17.423-68.755 13.621-226.455 11.615-282.386-8.346 3.766-16.387 7.727-23.968 11.811a18.403 18.403 0 0 1-8.7 2.196c-1.972 0-3.921-.316-5.793-.94-6.69-2.229-11.563-8.192-12.416-15.191l-1.876-15.395a18.615 18.615 0 0 1 11.925-19.716c10.123-3.822 44.949-17.044 68.041-26.696 25.672-10.742 44.779-19.237 56.782-25.247a20.145 20.145 0 0 1 8.974-2.122 20.059 20.059 0 0 1 20.042 20.791c-2.798 76.803-4.216 123.697-4.216 139.375v101.974c0 25.048.276 48.75.82 70.447.707 28.802 1.762 34.827 1.989 35.815.207.714.621 1.887 1.215 2.375.098.081 1.093.882 4.369 1.318 2.623.36 16.418 1.039 22.308 1.33 8.757.431 15.617 7.634 15.617 16.399v11.337c0 9.052-7.368 16.417-16.424 16.417h-.197l-.285-.007c-25.891-.755-51.457-1.243-65.132-1.243-11.385 0-49.617.664-98.969 2.138-.169.006-.337.009-.505.009z" class="colorffffff svgShape"></path><path fill="#435ec4" d="M731.778 634.61v11.341c0 1.667-1.39 3.012-3.066 2.967-28.536-.834-53.091-1.255-65.525-1.255-9.091 0-32.794.385-63.786 1.166-11.054.278-23.022.61-35.591.986a3.463 3.463 0 0 1-2.69-1.174 3.411 3.411 0 0 1-.852-2.268v-9.655c0-.905.359-1.775.995-2.42l.287-.287a3.44 3.44 0 0 1 2.188-1.013 3677.6 3677.6 0 0 1 16.747-1.183 11.966 11.966 0 0 0 10.767-8.938c6.374-24.528 10.05-59.976 12.049-98.247.914-17.616 1.479-35.833 1.784-53.852.43-25.362.341-50.338.036-72.715a2939.493 2939.493 0 0 0-1.793-68.42c-.251-6.661-7.154-10.955-13.25-8.248-10.677 4.644-20.772 9.53-30.31 14.667a4.883 4.883 0 0 1-3.864.332 4.879 4.879 0 0 1-3.317-4.061l-1.883-15.393a5.206 5.206 0 0 1 3.326-5.504c11.332-4.276 45.408-17.222 68.483-26.868 26.124-10.937 45.327-19.481 57.618-25.631a6.601 6.601 0 0 1 5.325-.26 6.63 6.63 0 0 1 4.231 6.41c-.672 18.486-1.273 35.214-1.784 50.186-1.165 34.076-1.91 59.052-2.25 74.938-.134 6.383-.197 11.296-.197 14.747v101.967c0 19.364.161 37.814.493 55.358.099 5.227.206 10.364.332 15.429.547 22.081 1.372 35.089 2.465 39.042 1.112 3.936 2.976 7.002 5.648 9.198 2.645 2.205 6.356 3.622 11.134 4.258 2.743.376 11.762.861 23.416 1.434a2.972 2.972 0 0 1 2.834 2.966z" class="colorc44397 svgShape"></path><g opacity=".5" fill="#000000" class="color000000 svgShape"><path fill="#435ec4" d="M685.654 390.208c.341-15.886 1.085-40.862 2.25-74.938l-82.782 82.791c.305 22.376.395 47.353-.036 72.715l80.568-80.568zM685.456 442.473l-82.155 82.155c-1.999 38.271-5.675 73.719-12.049 98.247a11.966 11.966 0 0 1-10.767 8.938c-5.352.367-10.991.762-16.747 1.183a3.44 3.44 0 0 0-2.188 1.013l-.287.287a3.446 3.446 0 0 0-.995 2.42v9.655c0 .834.296 1.641.852 2.268a3.457 3.457 0 0 0 2.69 1.174c12.569-.377 24.537-.708 35.591-.986l86.548-86.548c-.332-17.544-.493-35.994-.493-55.358v-64.448z" class="colorc44397 svgShape"></path></g><path fill="#d3e3f4" d="M869.736 551.68c3.311-6.07 8.424-10.39 12.39-15.82 3.328-4.57 5.647-9.85 7.216-15.53 3.992-14.39 5.009-30.49 5.992-45.49.957-14.522 1.141-29.082.61-43.616a2.022 2.022 0 0 0-2.02-1.944h-64.912c-1.085 0-1.981.86-2.021 1.944-.531 14.535-.348 29.094.61 43.616.983 15 2 31.1 5.992 45.49 1.569 5.68 3.888 10.96 7.216 15.53 3.966 5.43 9.079 9.75 12.39 15.82 3.751 6.89 4.345 15.35 4.958 23.26.621 7.91.94 15.86.638 23.8-.181 5.03-.638 10.06-1.431 15.01v.01c0 .01-.009.03-.009.06-.017.09-.043.28-.095.54-.009.06-.026.13-.034.2-.819 4.08-3.259 22.31-18.951 24.75-1.612.25-3.018 1.15-4.026 2.46-1.009 1.31-1.612 3.03-1.612 4.91H890.3c0-1.88-.604-3.6-1.612-4.91-1.009-1.31-2.414-2.21-4.026-2.46-15.692-2.44-18.132-20.67-18.951-24.75-.009-.07-.026-.14-.034-.2-.052-.26-.078-.45-.095-.54 0-.03-.009-.05-.009-.06v-.01c-.793-4.95-1.25-9.98-1.431-15.01-.302-7.94.017-15.89.638-23.8.611-7.91 1.205-16.37 4.956-23.26z" class="colord3eff4 svgShape"></path><path fill="#55aaff" d="M832.49 472.84c.03.56.06 1.11.1 1.67l.04.56c.97 14.85 1.98 30.21 5.78 43.93 1.5 5.43 3.67 10.11 6.44 13.91 1.4 1.92 2.99 3.73 4.68 5.64 2.83 3.21 5.77 6.53 8.06 10.74.02.04.04.07.06.11a4.317 4.317 0 0 0 7.64-.01c.02-.03.04-.07.06-.1 2.29-4.21 5.22-7.53 8.06-10.75 1.68-1.9 3.27-3.71 4.67-5.62 2.78-3.81 4.94-8.49 6.44-13.93 3.81-13.72 4.82-29.09 5.79-43.95l.03-.53c.04-.56.07-1.11.1-1.67h-57.95z" class="colorffde55 svgShape"></path><path fill="#ffffff" d="M886.989 443.024c-.165-1.909-3.166-1.926-3 0 1.781 20.662.968 41.366-2.505 61.816-.321 1.888 2.57 2.7 2.893.798 3.517-20.712 4.417-41.683 2.612-62.614z" class="colorffffff svgShape"></path><circle cx="860.397" cy="539.047" r="2.575" fill="#55aaff" class="colorffde55 svgShape"></circle><circle cx="864.772" cy="516.817" r="2.575" fill="#55aaff" class="colorffde55 svgShape"></circle><circle cx="865.96" cy="530.735" r="3.763" fill="#55aaff" class="colorffde55 svgShape"></circle><circle cx="857.093" cy="524.485" r="4.375" fill="#55aaff" class="colorffde55 svgShape"></circle><path fill="#d3e3f4" d="M417.794 551.68c3.311-6.07 8.424-10.39 12.39-15.82 3.328-4.57 5.647-9.85 7.217-15.53 3.992-14.39 5.009-30.49 5.992-45.49.957-14.522 1.141-29.082.61-43.616a2.022 2.022 0 0 0-2.02-1.944H377.07c-1.085 0-1.981.86-2.021 1.944-.531 14.535-.348 29.094.61 43.616.983 15 2 31.1 5.992 45.49 1.569 5.68 3.888 10.96 7.217 15.53 3.966 5.43 9.079 9.75 12.39 15.82 3.751 6.89 4.346 15.35 4.958 23.26.621 7.91.94 15.86.638 23.8-.181 5.03-.638 10.06-1.431 15.01v.01c0 .01-.009.03-.009.06-.017.09-.043.28-.095.54-.009.06-.026.13-.035.2-.819 4.08-3.259 22.31-18.951 24.75-1.612.25-3.018 1.15-4.026 2.46-1.009 1.31-1.612 3.03-1.612 4.91h57.664c0-1.88-.604-3.6-1.612-4.91-1.009-1.31-2.414-2.21-4.026-2.46-15.692-2.44-18.132-20.67-18.951-24.75-.009-.07-.026-.14-.035-.2-.052-.26-.078-.45-.095-.54 0-.03-.009-.05-.009-.06v-.01c-.793-4.95-1.25-9.98-1.431-15.01-.302-7.94.017-15.89.638-23.8.611-7.91 1.206-16.37 4.956-23.26z" class="colord3eff4 svgShape"></path><path fill="#55aaff" d="M380.548 472.84c.03.56.06 1.11.1 1.67l.04.56c.97 14.85 1.98 30.21 5.78 43.93 1.5 5.43 3.67 10.11 6.44 13.91 1.4 1.92 2.99 3.73 4.68 5.64 2.83 3.21 5.77 6.53 8.06 10.74.02.04.04.07.06.11a4.317 4.317 0 0 0 7.64-.01c.02-.03.04-.07.06-.1 2.29-4.21 5.22-7.53 8.06-10.75 1.68-1.9 3.27-3.71 4.67-5.62 2.78-3.81 4.94-8.49 6.44-13.93 3.81-13.72 4.82-29.09 5.79-43.95l.03-.53c.04-.56.07-1.11.1-1.67h-57.95z" class="colorffde55 svgShape"></path><path fill="#ffffff" d="M435.047 443.024c-.165-1.909-3.166-1.926-3 0 1.781 20.662.968 41.366-2.505 61.816-.321 1.888 2.57 2.7 2.893.798 3.517-20.712 4.417-41.683 2.612-62.614z" class="colorffffff svgShape"></path><circle cx="409.523" cy="509.297" r="2.575" fill="#55aaff" class="colorffde55 svgShape"></circle><path fill="#55aaff" d="M416.593 523.265a2.575 2.575 0 1 1-5.15 0 2.575 2.575 0 0 1 5.15 0z" class="colorffde55 svgShape"></path><circle cx="410.256" cy="534.218" r="3.763" fill="#55aaff" class="colorffde55 svgShape"></circle><circle cx="401.776" cy="520.465" r="4.375" fill="#55aaff" class="colorffde55 svgShape"></circle><path fill="#55aaff" d="m1335.66 195.646-.084 1.76-.253 4.99-.346 7.059-.384 7.761-1.423 28.666s-12.976-15.616-28.395-18.172a25.525 25.525 0 0 0-5.42-.318l4.69-4.634 5.87-5.805 8.173-8.079 3.829-3.792 5.954-5.879 5.112-5.055c1.151-1.011 2.939-.009 2.677 1.498z" class="colorffde55 svgShape"></path><path fill="#d2e8ff" d="M1329.078 202.143a4.19 4.19 0 0 1-4.185 4.185 4.178 4.178 0 0 1-2.977-1.245l5.954-5.879a4.165 4.165 0 0 1 1.208 2.939zM1334.976 209.455l-.384 7.761a3.97 3.97 0 0 1-1.339.225 4.182 4.182 0 0 1 0-8.361 4.07 4.07 0 0 1 1.723.375zM1305.28 225.717c0 .721-.187 1.395-.506 1.994a25.525 25.525 0 0 0-5.42-.318l4.69-4.634a4.141 4.141 0 0 1 1.236 2.958zM1320.887 213.902a5.913 5.913 0 0 1-5.907 5.907 5.918 5.918 0 0 1-5.065-2.855l8.173-8.079a5.912 5.912 0 0 1 2.799 5.027zM1331.771 225.72a5.911 5.911 0 1 1-11.822 0 5.911 5.911 0 0 1 11.822 0zM1335.576 197.406l-.253 4.99a2.696 2.696 0 0 1-1.563-2.443 2.684 2.684 0 0 1 1.816-2.547z" class="colorfff6d2 svgShape"></path><path fill="#6ab2fb" d="M1181.476 199.547c-.814 1.885-5.396 8.069.024 8.588 1.47.134 2.53-.736 4.041.02 1.906.96 1.914 2.7 1.136 4.451-1.779 4.037-6.688 5.715-8.593 9.517-.787 1.556-.296 2.646 1.419 2.746.399.021 1.698-.567 2.025-.625.951-.17 1.858-.284 2.765.106 2.452 1.046 2.498 4.056 1.017 5.958-3.008 3.846-10.072 3.771-8.562 10.559.14.649-.234 1.096-.71 1.272-.099.131-.24.254-.426.347a6.667 6.667 0 0 1-2.818.677c-.341.337-.865.476-1.372.114-3.917-2.742-8.778.102-12.991-1.539-2.13-.819-3.063-2.884-1.714-4.964 1.079-1.671 6.634-3.426 3.168-5.849-2.325-1.623-6.941-1.368-9.703-1.46-3.547-.113-7.896-.33-9.913-3.806-1.261-2.163-.927-5.204 1.218-6.673 2.947-2.02 7.285.234 10.332.638.859.117 1.719.194 2.587.237 1.705-1.498 1.783-2.894.238-4.211-.655-.931-1.412-1.786-2.026-2.748-.708-1.117-1.401-2.308-1.639-3.632-.407-2.266.33-4.766 2.439-5.945 2.13-1.191 4.219-.229 5.794 1.35.932.937 1.578 2.209 2.579 3.061 4.191 3.545 6.075-3.422 6.856-6.167 1.197-4.186 2.034-8.511 4.089-12.391 1.214-2.281 3.91-6.576 6.892-6.915 2.558-.293 3.849 2.716 4.196 4.766.689 4.055-.75 8.834-2.348 12.518z" class="colorfbc96a svgShape"></path><path fill="#4e68cc" d="m1159.997 182.658-9.326 2.852a1.013 1.013 0 0 0-.673 1.266l1.102 3.601c.164.536.731.837 1.266.673l9.326-2.852c.535-.164.837-.731.673-1.266l-1.101-3.601a1.015 1.015 0 0 0-1.267-.673z" class="colorcc8a4e svgShape"></path><path fill="#4e68cc" d="m1163.159 198.117-6.461 1.978a1.143 1.143 0 0 1-1.413-.75l-2.563-8.401 8.615-2.641.37 1.218 2.203 7.182a1.138 1.138 0 0 1-.751 1.414z" class="colorcc8a4e svgShape"></path><path fill="#3953b7" d="m1155.285 199.345-2.563-8.401 8.615-2.641.37 1.218c0 .001-8.03 3.168-6.422 9.824z" class="colorb77239 svgShape"></path><path fill="#4965ce" d="M1347.032 314.798c-13.51 14.295-38.151 12.482-54.921 6.296-8.849-3.266-18.196-8.435-21.357-17.959-3.57-10.764 5.021-20.64 9.097-30.014 2.711-6.218 4.844-12.76 5.065-19.589.171-5.258-1.315-10.594-.199-15.808 1.695-7.902 7.63-9.746 14.149-9.894.122-.165.282-.317.489-.436 8.928-5.16 21.773-7.265 30.963-1.425 8.782 5.579 9.547 17.083 8.77 26.445-.552 6.584-1.727 13.358-.172 19.904 1.362 5.736 4.807 10.599 7.699 15.638 4.823 8.408 7.874 18.959.417 26.842z" class="colorce4949 svgShape"></path><path fill="#8cc5ff" d="m1258.82 301.35-22.42 16.054-52.249-31.23-3.778 15.176 51.459 37.449a15.082 15.082 0 0 0 17.589-2.752l18.436-11.503c-.001.001 3.501-11.636-9.037-23.194z" class="colorff948c svgShape"></path><path fill="#9dceff" d="M1285.744 296.66c2.709 2.54 5.681.253 9.298.837 4.599.727 9.449 3.343 13.718.736.536-4.576 1.755-15.423 2.811-19.925.025-.112.047-.217.077-.319.82-3.503 1.789-6.985 2.913-10.418.111-.341.227-.698.353-1.033.017-.046.027-.095.044-.14.164-.504.332-.998.51-1.497.44-1.218.882-2.418 1.346-3.627.198-.526.4-1.042.613-1.562-1.054-3.633-1.55-7.526-1.477-11.449-4.077 1.053-8.072 2.493-11.815 4.767a114.197 114.197 0 0 1-3.267 10.084 5.634 5.634 0 0 1-.119.338c-1.599 4.255-3.907 9.705-6.049 14.086-.586 1.189-1.111 2.323-1.694 3.279-6.608 10.864-4.582 12.368-7.262 15.843z" class="colorffa59d svgShape"></path><path fill="#77b4f1" d="M1312.5 265.475c-5.602 13.695-18.013 15.594-19.497 15.343 2.41-4.653 5.535-12.026 7.566-17.433a143.818 143.818 0 0 0 3.464-10.395c3.31-2.438 6.793-4.069 10.323-5.329-.282 3.849-.078 7.631.62 11.132a49.296 49.296 0 0 0-.612 1.558 194.633 194.633 0 0 0-1.343 3.628c-.181.504-.353.995-.521 1.496z" class="colorf17785 svgShape"></path><path fill="#9dceff" d="M1290.546 270.625c3.287 4.639 11.818 5.57 17.289 4.017 5.471-1.553 7.768-4.602 11.143-9.19.189-.272.39-.545.578-.83.07-.669.166-1.339.299-2.011.347-1.787.895-3.559 1.394-5.315.836-2.928 1.565-5.988 1.053-8.981-.63-3.678-3.069-6.773-6.051-9.089-6.098-3.7-13.671-6.861-16.094-7.837a.792.792 0 0 0-1.048.488l-2.235 6.764.001.013c-.27.992-.59 1.974-.962 2.92-1.903 4.898-4.817 9.377-6.542 14.342-1.71 4.965-1.846 10.409 1.175 14.709z" class="colorffa59d svgShape"></path><path fill="#9dceff" d="M1321.343 255.3c.312-1.122.899-2.367 2.035-2.625 1.121-.255 2.199.605 2.839 1.559 1.646 2.452 1.576 5.933-.169 8.316-1.744 2.383-5.041 3.503-7.876 2.675.872-3.276 2.264-6.66 3.171-9.925z" class="colorffa59d svgShape"></path><path fill="#647ddd" d="M1301.094 255.526c.021.16-.423.264-1.006.105-.61-.14-1.39-.553-2.021-1.4a.114.114 0 0 0-.037-.054 3.628 3.628 0 0 1-.61-1.574c-.11-.71.032-1.305.203-1.58.097-.161.178-.216.271-.184a.2.2 0 0 1 .113.074c.113.177.202.624.375 1.147.142.395.318.83.596 1.251.023.056.058.096.094.15.427.652.989 1.095 1.417 1.422.381.289.642.476.605.643z" class="colordd6478 svgShape"></path><path fill="#ffffff" d="M1304.619 259.774c-3.738-.024-7.937-1.281-9.473-2.227-.525-.323-1.227.007-1.304.581-1.439 10.8 8.739 7.122 11.267 2.931.366-.606.241-1.28-.49-1.285z" class="colorffffff svgShape"></path><path fill="#2c49b5" d="M1314.815 244.363c-2.011-1.945-3.78-3.481-6.774-3.191-.837.081-.972 1.141.066 1.508 2.861 1.012 3.78 1.266 6.035 2.924 1.005.74 1.843-.11.673-1.241zM1295.888 239.695c1.24-.703 2.677-.5 3.914-.265.826.156 1.227 1.058.146 1.265-2.98.571-2.913.22-4.318.707-.995.345-1.157-.905.258-1.707z" class="colorb52c2c svgShape"></path><path fill="#021b79" d="M1308.511 247.641c.366-.173.868.115.977.479.232.777.025 1.666-.486 2.29-.263.321-.786.33-1.086.062a.742.742 0 0 1-.24-.453c-.271-.815.059-2.01.835-2.378zM1296.399 245.17c.366-.174.868.115.977.479.232.778.025 1.666-.486 2.29-.263.321-.786.33-1.086.062a.734.734 0 0 1-.24-.453c-.271-.816.059-2.01.835-2.378z" class="color39373b svgShape"></path><path fill="#ffffff" d="M1318.842 267.051c.515.573 1.45.67 2.117.284 1.46-.844 1.347-3.269-.474-3.495-1.64-.203-2.757 1.971-1.643 3.211z" class="colorffffff svgShape"></path><path fill="#7d99b6" d="M1410.531 738.388c0 2.919-55.387 5.285-123.71 5.285s-123.71-2.366-123.71-5.285 55.387-5.286 123.71-5.286c68.323.001 123.71 2.367 123.71 5.286z" class="color7da0b6 svgShape"></path><path fill="#9dceff" d="M1252.908 735.487c-17.472 4.947-35.008 6.271-52.948 3.996-2.172-.277-3.195-2.83-1.807-4.527 2.798-3.401 6.176-2.576 10.076-3.789 1.475-.476 4.582-4.019 6.295-4.844.008 0 .008 0 .016-.008.111-.04.214-.079.325-.127 3.845-1.094 6.406-2.592 9.672-4.701 5.351-3.464 8.601-9.172 9.965-15.054 1.371-5.882 1.031-11.978.373-17.948 3.409.618 7.095.079 10.115-1.506 3.996 10.322 6.627 22.379 7.587 34.025.426 4.962.545 9.837.331 14.483zM1393.595 711.94c-.73 4.664-1.484 9.327-2.238 13.991-.518 3.239-1.095 6.654-3.168 9.221-2.956 3.651-8.103 4.593-12.79 4.982a115.28 115.28 0 0 1-18.702.082c-2.78-.224-3.415-4.11-.824-5.135a.171.171 0 0 0 .071-.024c2.12-.824 4.428-1.095 6.572-1.849 2.355-.824 4.499-2.25 6.195-4.063.235-.247.471-.506.671-.777 1.684-2.014 2.862-4.464 3.333-7.043 1.013-5.524-1.025-11.165-3.71-16.1-2.674-4.946-6.054-9.528-8.091-14.757 5.147-.047 10.423-.436 15.028-2.768 1.896 3.792 3.486 5.21 7.455 7.059.895.412 4.534.844 5.346 1.327 1.472.883 2.779 1.943 3.722 3.356 2.378 3.57 1.801 8.258 1.13 12.498z" class="colorffa59d svgShape"></path><path fill="#4e556d" d="M1383.544 690.543c-3.543 7.738-15.766 15.649-22.38 17.386-44.179-65.401-69.11-144.46-84.245-221.759-18.987 71.881-17.818 149.833-18.124 216.887-5.433.46-20.063.84-25.497 1.293-22.171-91.989-16.836-204.609 12.171-294.586l.023-.081 7.956-20.368 2.124-6.925 22.446-.512 9.694-2.917 7.594 2.524 10.666 19.217c1.165.705 2.969 4.246 4.491 7.853 4.305 10.221 6.732 21.036 8.588 31.992.809 4.78 1.499 9.582 2.1 14.392v.008c.416 3.296.78 6.599 1.113 9.909 2.955 29.674 18.756 151.996 61.28 225.687z" class="color6d4e55 svgShape"></path><path fill="#a2c6ea" d="m1286.636 287.511-5.197 8.975-21.183 36.553a51.326 51.326 0 0 1-2.104-2.151c-10.975-11.986-9.034-23.194-9.034-23.194 16.358-14.544 29.461-18.637 34.855-19.765 1.395-.291 2.267-.384 2.558-.407h.023c.047-.011.082-.011.082-.011z" class="colora2a2ea svgShape"></path><path fill="#a2c6ea" d="M1320.047 333.771c-1.939 2.731-4.154 5.256-6.484 7.654a22.657 22.657 0 0 0-1.675 1.882c-3.018 3.936-5.382 8.331-7.333 12.956-.092 2.628-.115 5.29-.425 7.884-.287 2.376-1.251 3.546-2.318 5.612-1.607 3.11-.023 5.267-.815 8.205-.562 2.077-2.547 3.351-3.454 5.233-.229.459-.608.631-.987.608v.035c-6.989 1.377-16.066 2.433-24.064 1.882-5.979-.436-11.705-1.388-17.03-2.823-.011-.012-.011-.023-.023-.023a538.85 538.85 0 0 1-.252-12.015c-.046-5.187 0-10.213.172-14.953.253-7.562.815-14.39 1.802-19.979 0-.023.012-.046.012-.069a25.546 25.546 0 0 1 .218-12.451 25.395 25.395 0 0 1 6.621-11.292c6.713-15.515 15.239-21.39 19.657-23.513.448-.206.872-.39 1.228-.539.539-.184 1.09-.356 1.63-.539h.023c.046-.011.08-.011.08-.011h.012a.7.7 0 0 1 .16-.023 30.408 30.408 0 0 1 5.118-.241c6.403.195 11.981-1.09 18.326-.321.115.012.241.035.367.058a17.652 17.652 0 0 1 3.58.907c.08.023.31.08.666.195 2.238.711 9.387 3.454 13.22 10.11 3.983 6.917 4.373 18.048-8.032 35.571z" class="colora2a2ea svgShape"></path><path fill="#021b79" d="M1393.595 711.94c-.73 4.664-1.484 9.327-2.238 13.991-.518 3.239-1.095 6.654-3.168 9.221-2.956 3.651-8.103 4.593-12.79 4.982a115.28 115.28 0 0 1-18.702.082c-2.78-.224-3.415-4.11-.824-5.135a.171.171 0 0 0 .071-.024c2.12-.824 4.428-1.095 6.572-1.849 2.355-.824 4.499-2.25 6.195-4.063.235-.247.471-.506.671-.777.821.214 3.918-1.098 7.011-.528 4.25.783 8.465-1.416 9.857-5.508.054-.16.107-.321.158-.481 2.579-8.209 4.209-17.368 2.336-25.765 1.472.883 2.779 1.943 3.722 3.356 2.377 3.57 1.8 8.258 1.129 12.498zM1252.908 735.487c-17.472 4.947-35.008 6.271-52.948 3.996-2.172-.277-3.195-2.83-1.807-4.527.278-.333.555-.626.84-.88.262-.214.523-.428.793-.634 0-.008.008-.008.016-.008 6.176-4.764 14.499-7.095 15.038-7.238.016-.008.024-.008.024-.008 6.231 4.883 13.382 6.651 21.158 5.137 6.524-1.276 12.494-5.081 16.553-10.321.428 4.962.547 9.837.333 14.483z" class="color39373b svgShape"></path><path fill="#3d4359" d="M1253.035 433.474c4.858 5.252 8.655 11.263 15.179 14.493 1.253 6.066 2.992 12.068 4.318 18.07 2.489 11.345 4.822 22.727 6.652 34.2.265 1.693 2.845.979 2.571-.713-1.729-10.915-3.925-21.739-6.286-32.535-1.372-6.286-3.248-12.608-4.566-18.985l-.357-1.876s-.009 0-.018-.009c-.75-3.998-1.244-8.024-1.208-12.077.009-1.72-2.662-1.72-2.672 0-.027 3.532.339 7.018.924 10.485-5.133-3.294-8.472-8.417-12.645-12.947-1.17-1.262-3.054.632-1.892 1.894z" class="color593d44 svgShape"></path><path fill="#ffffff" d="m1314.864 288.092-2.092 1.639c-2.883 2.267-17.672 13.58-25.124 13.58-3.116 0-4.627-1.686-5.255-2.697-.709-1.139-1.023-2.477-.953-4.127.093-2.081.826-4.65 2.232-7.883.105-.221.198-.442.302-.674 1.395-.291 2.267-.384 2.558-.407h.023c.046-.012.081-.012.081-.012h.012a.666.666 0 0 1 .151-.023 31.436 31.436 0 0 1 5.127-.244c6.394.198 11.975-1.081 18.323-.314.116.012.244.035.372.058a17.62 17.62 0 0 1 3.581.907c.07.023.302.081.662.197z" class="colorffffff svgShape"></path><path fill="#9dceff" d="M1310.619 286.985s-36.479 28.647-22.511.361c-.001 0 15.015-8.933 22.511-.361z" class="colorffa59d svgShape"></path><path fill="#3d4359" d="M1376.187 682.646c-7.879-18.518-16.282-36.908-23.251-55.793-6.786-18.392-11.936-37.34-16.434-56.406-4.558-19.322-8.698-38.771-12.48-58.26-3.726-19.195-6.248-38.456-8.697-57.842-2.297-18.177-5.722-36.653-16.33-52.009-.864-1.251-2.927-.063-2.054 1.201 6.647 9.621 10.421 20.501 12.871 31.751-10.292-3.598-13.718-15.005-16.3-24.662-.395-1.477-2.69-.85-2.294.632 2.912 10.888 7.041 23.35 19.151 26.698.994 4.994 1.758 10.045 2.41 15.081 2.394 18.486 4.618 36.89 8.076 55.223 7.283 38.612 15.105 77.87 28.251 114.974 7.293 20.584 16.481 40.529 25.027 60.613.598 1.404 2.647.193 2.054-1.201z" class="color593d44 svgShape"></path><path fill="#7faddb" d="M1267.085 307.496c-1.825 3.43-3.735 6.805-5.803 10.096-1.748 2.782-4.164 5.539-5.331 8.642-1.622 4.313.391 8.267 2.552 11.982.557.957 2.045.092 1.486-.869-2.234-3.841-3.936-6.982-1.868-11.704.699-1.595 1.989-3.071 2.931-4.509 2.71-4.139 5.195-8.402 7.519-12.769.52-.978-.965-1.849-1.486-.869zM1308.147 341.035c-9.123 9.157-16.662 18.912-27.599 26.187-4.395 2.938-9.559 6.851-15.125 6.461-3.408-.241-6.897-1.4-10.236-2.823-.046-5.187 0-10.213.172-14.953.528.057 1.044.161 1.458.172 2.1.023 4.154-.149 6.22-.516 2.869-.493 5.692-1.342 8.458-2.249 12.003-3.89 23.146-10.007 35.138-13.954a.75.75 0 0 1 .826.218c.676-.046 1.308.837.688 1.457z" class="color7f7fdb svgShape"></path><path fill="#253675" d="M1217.246 350.818c-.02.02-.059.039-.088.068a31.143 31.143 0 0 1-2.495 1.627 34.205 34.205 0 0 1-18.38 4.756c-.029-.01-.068 0-.107-.01-4.405-.136-6.802-2.046-8.284-6.071-.185-.507-.38-1.013-.556-1.52-3.196-8.703-6.373-17.659-8.956-26.663a179.08 179.08 0 0 1-2.699-10.476c-1.394-6.179-2.164-12.474-1.735-18.799.185-2.894.536-5.76.779-8.625.146-1.774.244-3.567.234-5.37 0-2.047-.156-4.103-.565-6.179-1.286-6.607-3.002-13.273-5.116-19.657-.409-1.238-1.355-3.06-1.998-4.931-.078-.234-.156-.448-.224-.682a3.186 3.186 0 0 1-1.832-2.007 3.13 3.13 0 0 1 .234-2.417 3.13 3.13 0 0 1 1.871-1.54l9.541-2.924a3.177 3.177 0 0 1 3.957 2.105 3.184 3.184 0 0 1-.234 2.417c-.049.097-.107.185-.166.283.068.224.136.448.195.682.517 1.92.76 3.957 1.111 5.204 1.813 6.481 4.122 12.961 6.744 19.159.828 1.949 1.851 3.742 2.992 5.438.994 1.501 2.076 2.924 3.206 4.317 1.793 2.241 3.684 4.415 5.467 6.705 3.888 5.019 6.773 10.661 9.073 16.557a176.897 176.897 0 0 1 3.615 10.194c2.008 6.149 3.752 12.435 5.37 18.692a625.679 625.679 0 0 1 2.124 8.42c.136.526.263 1.043.39 1.569 1.035 4.172.109 7.096-3.468 9.678z" class="color407525 svgShape"></path><path fill="#6ab2fb" d="M1220.329 339.577c-4.73 2.497-10.15 4.744-16.037 6.545-5.888 1.801-11.637 2.969-16.954 3.546-3.194-8.701-6.37-17.658-8.955-26.666 5.538-.539 11.562-1.735 17.731-3.622 6.168-1.887 11.831-4.265 16.723-6.916 2.895 8.913 5.273 18.114 7.492 27.113z" class="colorfbc96a svgShape"></path><path fill="#4e6cdd" d="m1191.468 274.69-16.503 5.047c-.005-2.05-.164-4.102-.564-6.177-1.294-6.608-3.002-13.275-5.125-19.662-.409-1.232-1.346-3.054-1.993-4.932l13.341-4.081c.514 1.919.757 3.953 1.107 5.203 1.813 6.482 4.127 12.964 6.75 19.165.829 1.944 1.844 3.734 2.987 5.437z" class="colordda64e svgShape"></path><path fill="#6ab2fb" d="M1194.672 279.009a8.402 8.402 0 0 0-1.227 1.958c-.84 1.848-1.085 3.902-1.269 5.914-.182 2.019-.316 4.063-.956 5.987-.003.017-.008.027-.011.044-.819 2.391-3.819 3.309-5.836 1.785-.012-.012-.022-.018-.033-.03-1.606-1.238-2.861-2.857-4.141-4.428-1.278-1.564-2.629-3.13-4.36-4.192a8.39 8.39 0 0 0-2.112-.937c.15-1.783.248-3.574.239-5.372l16.503-5.047a60.562 60.562 0 0 0 3.203 4.318z" class="colorfbc96a svgShape"></path><path fill="#1f2b59" d="M1217.246 350.818c-.02.02-.059.039-.088.068a31.143 31.143 0 0 1-2.495 1.627c.77-2.894.779-5.974-.068-8.839-1.16-3.927-3.547-7.728-6.646-10.408-3.557.292-7.163.585-10.671-.059-3.508-.633-6.978-2.319-9.005-5.243 5.574-1.238 10.866-2.485 16.44-3.723.799-.185 1.628-.361 2.436-.205.819.156 1.54.633 2.222 1.101 2.943 1.998 5.886 3.996 8.829 6.013a625.679 625.679 0 0 1 2.124 8.42c.136.526.263 1.043.39 1.569 1.035 4.173.109 7.097-3.468 9.679z" opacity=".5" class="color32591f svgShape"></path><path fill="#9dceff" d="M1309.346 339.541c-10.323 11.538-27.307 21.317-37.23 26.007a18.568 18.568 0 0 1-15.361.212l-52.685-38.116 3.9-10.102 52.898 27.233 25.744-20.382c4.628 3.432 14.484 10.543 22.734 15.148z" class="colorffa59d svgShape"></path><path fill="#77b4f1" d="M1266.094 346.92c-2.8-1.807-15.708-8.402-18.847-9.517-.774-.275-1.107.956-.339 1.229 3.042 1.081 15.831 7.639 18.543 9.388.691.447 1.331-.656.643-1.1z" class="colorf17785 svgShape"></path><path fill="#7faddb" d="M1294.566 314.698a79.433 79.433 0 0 1-14.768 13.788c-.892.641-.033 2.134.869 1.486a81.139 81.139 0 0 0 15.116-14.057c.703-.846-.508-2.07-1.217-1.217z" class="color7f7fdb svgShape"></path><path fill="#9dceff" d="M1200.968 307.266a.627.627 0 0 0-1.032.172c-.95 2.198-.402 3.522 2.418 8.217-5.093-1.069-10.17-2.145-15.251-3.209-.541-.124-1.115-.234-1.632-.045-1.372.5-1.23 2.483-.775 3.865.109.329.242.649.358.976-.134 1.104-.357 2.34.121 3.356.329.699.731.956 1.222 1.19-.092 1.116-.285 2.295.493 3.173.212.239.548.42.859.56-.025.318-.017.634.046.948.437 2.556 3.257 3.838 5.792 4.33.255.136 14.491.428 16.98.19l1.57-9.468c-2.069-4.446-7.85-10.718-11.169-14.255z" class="colorffa59d svgShape"></path><path fill="#6ab2fb" d="M1194.403 199.959c-1.033.409-2.134.078-3.206.107-1.676.039-3.167.721-4.376 1.852-.02.029-.029.068-.039.097-.351.858-1.764.478-1.413-.39.029-.068.058-.136.088-.214a.7.7 0 0 1 .127-.312c.809-1.881 1.793-3.518 3.849-4.278 1.472-.556 4.444-1.316 5.828-.185 1.247 1.033.468 2.807-.858 3.323zM1148.385 212.891c.175.575-.643 1.208-1.247.721-1.608-1.296-2.982-1.998-4.999-1.13-.663.283-1.335.477-2.047.185-1.374-.546-1.744-2.31-.994-3.489 2.485-3.947 7.835.458 9.258 3.089a.71.71 0 0 1 .029.624zM1197.547 222.211c-.025 1.79-1.739 2.591-3.267 1.873-.984-.448-1.491-1.383-2.234-2.105-1.214-1.173-2.947-1.596-4.499-.867a.715.715 0 0 1-.767-.081c-.569-.173-.864-.992-.199-1.298 2.277-1.04 4.707-1.414 7.176-.873 1.7.373 3.809 1.311 3.79 3.351zM1151.933 234.555c0 .019-.01.039-.01.059-.01.078-.02.146-.039.214-.214.77-1.199.799-1.549.78-2.622.682-4.113 2.163-5.594 4.356-.634.936-1.286 1.9-2.388 2.329-1.959.77-3.84-.643-4.035-2.661-.263-2.621 2.349-4.609 4.444-5.594 2.758-1.296 5.867-1.325 8.683-.224.341.137.488.439.488.741z" class="colorfbc96a svgShape"></path><path fill="#a1d0ff" d="M1180.377 227.097c-.932.27-3.393 1.18-4.214.692-1.589-.944-.767-3.888-.141-5.078 1.057-2.01 2.621-3.563 4.223-5.125 1.696-1.653 3.89-3.842 2.31-6.426-.37-.606-.945-1.059-1.59-1.382-.528-.264-1.263-.173-1.755-.431-1.744-.916-2.963-3.096-2.843-5.038.298-4.823 3.406-10.038 5.873-14.051.988-1.607-1.54-3.077-2.525-1.476-2.891 4.703-6.427 11.088-6.51 16.776-.027 1.824.37 3.585 1.658 4.94 1.405 1.478 5.464 1.345 4.407 4.049-.726 1.858-3.874 3.616-5.06 5.481-1.218 1.915-2.682 4.868-2.321 7.238.692 4.534 6.078 3.573 9.265 2.649 1.803-.522 1.036-3.344-.777-2.818z" class="colorffdba1 svgShape"></path><path fill="#3d5099" d="M1208.498 306.842a116.524 116.524 0 0 0-8.289-16.807c-.966-1.612-3.495-.144-2.525 1.476a111.83 111.83 0 0 1 7.994 16.109c.689 1.727 3.518.974 2.82-.778z" class="color5f993d svgShape"></path><path fill="#4869e5" d="M562.659 424.635s-3.227 9.404-15.617 6.437l.027-4.796.018-4.196.018-3.613.027-5.325.036-6.168c.009-.771.995-1.076 1.434-.439l1.999 2.582 3.129 4.025 2.116 2.716 2.546 3.281 4.267 5.496z" class="colore54866 svgShape"></path><ellipse cx="572.063" cy="655.792" fill="#beccdb" rx="43.152" ry="3.784" class="colorbed0db svgShape"></ellipse><path fill="#021b79" d="M578.63 639.165a46.578 46.578 0 0 1-1.841 16.524c7.814 1.408 15.846 1.65 23.786 1.59.74-.006 1.51-.018 2.172-.35.662-.332 1.175-1.085.981-1.8-.188-.691-.918-1.068-1.586-1.326-2.307-.891-4.765-1.363-7.027-2.362-5.006-2.208-8.739-7.086-9.562-12.495-2.063.749-4.75.52-6.923.219zM542.631 640.331a45.667 45.667 0 0 0-3.716 14.877c-.093 1.225-.119 2.531.497 3.595.975 1.684 3.167 2.163 5.109 2.276a28.771 28.771 0 0 0 7.917-.641c1.036-.231 2.209-.654 2.545-1.661.412-1.234-.682-2.401-1.563-3.357-3.515-3.813-4.895-9.478-3.527-14.481-2.593-.009-4.803.207-7.262-.608z" class="color39373b svgShape"></path><path fill="#7c96fa" d="m591.311 485.982-.009.009-.35 12.094a5.229 5.229 0 0 1-2.079.431 5.301 5.301 0 0 1-3.344-1.192l-.35-.278a74.282 74.282 0 0 1-6.831-5.791c-2.089-1.99-3.945-4.079-5.594-6.141a52.492 52.492 0 0 1-1.999-2.654 38.216 38.216 0 0 0 8.194-10.713c.036.054.081.117.125.17 1.237 1.605 2.501 3.353 3.918 5.146 1.407 1.793 2.887 3.693 4.5 5.603a171.614 171.614 0 0 0 3.102 3.568c.242-.081.484-.171.717-.252z" class="colorfa7e7c svgShape"></path><path fill="#4e556d" d="M538.907 642.601c.66.289 1.366.536 2.111.74.281.077.57.149.864.213 1.26.277 2.613.426 4.022.426 2.251 0 4.363-.383 6.176-1.047l1.124-12.739 6.282-83.364 14.471 84.973 2.43 12.543c7.585 2.643 12.675-1.898 13.701-2.928-.311-2.69-.749-6.525-1.281-11.177-3.154-27.598-9.611-84.079-11.786-103.377-.672-5.963-1.09-9.67-1.094-9.768-6.338-1.524-7.755-2.354-14.91-2.354-9.159 0-14.144 1.358-21.873 3.784.004.06.119 6.644.289 16.438.362 21.086-.102 70.076-.379 95.034-.062 5.614-.118 10.011-.147 12.603z" class="color6d4e55 svgShape"></path><path fill="#3d4359" d="M542.998 542.422c-.085 6.625-.174 13.25-.263 19.88-.242 18.218-.48 53.605-.727 71.823l-.127 9.43a18.136 18.136 0 0 1-.863-.212c.14-10.378.272-20.76.417-31.137.229-17.385.459-51.931.693-69.316l.013-1.092c.009-.467.013-.939.021-1.407l.166-12.43c.008-.557.875-.561.867 0l-.179 13.306c2.932-1.98 4.624-5.342 4.428-9.111-.03-.62.935-.62.969 0 .225 4.325-1.888 8.166-5.415 10.266z" class="color593d44 svgShape"></path><path fill="#717d89" d="M564.223 455.794s-4.545-3.095-12.459-1.548v3.995l10.534 1.246 2.312-1.378-.387-2.315z" class="color718977 svgShape"></path><path fill="#a2a9b1" d="M536.285 480.908c.483 3.593.906 8.426 1.265 13.671.533 7.918 1.176 24.417 1.397 31.347.004.178.011.359.014.533.014.316.021.633.032.942.05 1.571.085 3.017.117 4.307a148.194 148.194 0 0 0 28.341 1.336c.622-.028 1.233-.064 1.855-.099 1.908-.124 3.817-.274 5.721-.469.021 0 .043 0 .067-.003 1.144-.117 2.289-.242 3.429-.384-.721-3.429-1.539-12.335-2.136-17.271a74.159 74.159 0 0 0-.295-2.185 220.241 220.241 0 0 1-.874-5.956 252.14 252.14 0 0 1-1.201-10.644 258.96 258.96 0 0 1-.725-9.822c9.229-2.079 8.539-10.618 8.539-10.618l-6.748-10.38v-.004a10.708 10.708 0 0 0-4.346-3.859c-1.35-.654-2.95-1.422-3.955-1.88-.601-.274-1.205-.551-1.812-.824-2.74-1.251-5.494-2.495-7.95-3.746-2.129.853-4.243 1.702-6.365 2.559a.714.714 0 0 0-.11.043c-1.187.473-2.378.945-3.557 1.425-3.12 1.247-6.365 2.591-8.515 5.171-3.731 4.472-2.977 11.032-2.188 16.81z" class="colora2b1a6 svgShape"></path><path fill="#717d89" d="M573.826 488.74a60.772 60.772 0 0 0-.902-9.424c-.092-.526-.893-.303-.802.221.531 3.049.818 6.11.872 9.203.01.535.841.537.832 0z" class="color718977 svgShape"></path><path fill="#3d4359" d="M564.331 541.102a19.086 19.086 0 0 1-4.499 5.317c.037-1.511.056-3.024.038-4.539-.009-.767-1.2-.767-1.191 0 .06 5.038-.185 10.051-.736 15.059-.084.762 1.108.754 1.191 0 .328-2.984.535-5.971.646-8.963 2.28-1.703 4.167-3.793 5.58-6.274.38-.666-.65-1.266-1.029-.6z" class="color593d44 svgShape"></path><path fill="#717d89" d="M545.851 488.005s10.846 17.527 30.537 26.834v-.021a74.159 74.159 0 0 0-.295-2.185 220.241 220.241 0 0 1-.874-5.956 252.14 252.14 0 0 1-1.201-10.644c-6.081-2.765-22.172-9.652-28.167-8.028z" class="color718977 svgShape"></path><path fill="#32448a" d="M549.819 427.568c-6.547.536-3.688 11.384-.552 17.706 1.555 3.135 7.195 4.643 9.889 4.264-3.021-4.004-7.25-7.865-7.887-13.379-1.193.324-.272-8.013-1.45-8.591z" class="color8a4632 svgShape"></path><path fill="#9dceff" d="M552.328 448.083c.33 2.541.408 5.406.134 7.987 4.466 4.469 9.483 3.311 9.483 3.311.908.084 1.519-.072 1.792-.657-.199-.759-.477-1.803-.528-2.478a74.55 74.55 0 0 1-.21-3.957 65.237 65.237 0 0 1 .016-4.329c-1.6-.589-3.215-1.094-4.831-1.603-.708-.217-1.415-.434-2.123-.656a83.914 83.914 0 0 1-4.515-1.513c.226.768.423 1.633.583 2.561.076.432.14.876.199 1.334z" class="colorffa59d svgShape"></path><path fill="#7c96fa" d="M563.21 456.245c-7.963-1.963-10.312-9.108-10.312-9.108l5.288-.781c1.614.508 3.228 1.016 4.831 1.603-.096 2.224-.046 5.409.193 8.286z" class="colorfa7e7c svgShape"></path><path fill="#32448a" d="M565.854 425.87c1.397 1.144 2.959 3.674 1.875 7.138-.495 1.584-1.478 3.019-2.812 4.006.064-2.741.038-5.479.102-8.22.88-.079.041-2.535.835-2.924z" class="color8a4632 svgShape"></path><path fill="#9dceff" d="M565.581 451.121c-2.326 1.995-6.757 1.487-9.288.062-1.951-1.102-3.175-2.489-4.106-4.322a3.922 3.922 0 0 1-.105-.206c-.424-.909-.676-2.459-.71-2.661v-.006c0-.178.006-.336.015-.439.083-.955.063-1.926.066-2.885.003-1.596.076-3.25.767-4.723.849-1.814-.656-5.343 1.182-6.186 3.606-1.193 11.055.29 12.415.069a.389.389 0 0 1 .457.371l.149 3.725-.004.006c-.005.539.013 1.08.065 1.606.25 2.732 1.071 5.363 1.221 8.106.147 2.741.02 5.626-2.124 7.483z" class="colorffa59d svgShape"></path><path fill="#647ddd" d="M561.77 442.094c-.04.061.12.179.386.213.274.046.67.009 1.09-.229a1.741 1.741 0 0 0 .579-.555c.183-.271.241-.538.226-.678-.008-.082-.03-.118-.074-.121-.02-.004-.038.001-.06.011-.08.053-.203.22-.375.404-.134.137-.29.284-.484.409-.02.019-.042.029-.067.045-.3.194-.613.279-.85.34-.211.054-.354.087-.371.161z" class="colordd6478 svgShape"></path><path fill="#ffffff" d="M560.054 444.042c2.01.431 4.461.3 5.433.009.332-.1.658.149.609.445-.919 5.566-5.807 2.523-6.507.13-.102-.346.071-.668.465-.584z" class="colorffffff svgShape"></path><path fill="#32448a" d="M568.185 426.108c-.368 1.996-1.251 3.895-2.77 5.128-1.682 1.369-3.823 1.73-5.854 1.661-2.192-.072-7.036-1.986-8.307.896a.465.465 0 0 1-.571.275c-.204.17-.516.181-.648-.146-.849-2.097-1.105-4.551-.115-6.676.906-1.946 2.672-3.113 4.487-3.819 2.558-.997 5.254-1.197 7.732-2.486.939-.49 1.521.092 1.385.883.678-.13 1.258-.459 1.818-1.009.199-.196.576-.155.686.136.115.31.166.559.169.801.313-.499.734-1.28.737-1.28.152-.353.483-.425.745-.174 1.238 1.181.783 4.29.506 5.81z" class="color8a4632 svgShape"></path><path fill="#32448a" d="M551.45 439.309c2.174-2.206 3.046-5.609 2.201-8.588-1.498.498-3.065.855-4.619 1.134.233 2.569 1.076 5.25 2.418 7.454z" class="color8a4632 svgShape"></path><path fill="#9dceff" d="M551.714 439.352c-.028-.523-.777-1.395-1.307-1.631-.524-.233-1.152.026-1.574.373-1.086.892-.843 2.683-.251 3.912s2.091 2.074 3.581 2.02c-.062-1.524-.368-3.151-.449-4.674z" class="colorffa59d svgShape"></path><path fill="#ffffff" d="m562.298 459.486 3.258 4.441s1.88-1.38 1.229-4.46l-2.562-3.674c0 .001.389 3.617-1.925 3.693zM551.764 454.246s3.391 4.502 10.534 5.24l-2.445 5.036s-6.051-1.009-10.068-6.721l1.979-3.555z" class="colorffffff svgShape"></path><path fill="#9ccdff" d="M546.553 487.943a47.36 47.36 0 0 0 2.304 3.103 63.28 63.28 0 0 0 5.598 6.139 72.777 72.777 0 0 0 6.831 5.793l.004.004 1.667 1.365a2.332 2.332 0 0 0 2.32.362l1.607-.629c.66-.255 1.333-.517 2.005-.784.338-.131.672-.263 1.011-.394.33-.143.66-.29.999-.438 3.036-1.289 5.9-2.781 8.59-4.333.664-.398 1.321-.788 1.977-1.178a732.9 732.9 0 0 0 1.898-1.229c.31-.199.625-.406.931-.609.302-.207.601-.426.891-.633l1.763-1.253c.561-.438 1.118-.859 1.663-1.285.275-.215.545-.422.816-.633.259-.219.521-.434.78-.652.509-.434 1.018-.859 1.516-1.277.489-.43.955-.867 1.42-1.293.458-.434.923-.836 1.353-1.265l.298-.302c2.208-.446 5.077-2.077 6.728-3.653a12.133 12.133 0 0 0 2.121-2.689c.024-.04.044-.08.068-.119.076-.127.143-.259.211-.39.366-.899-.557-.951-.557-.951l.493-.633c.943-1.691-.47-1.261-.47-1.261 1.444-1.79-.724-1.369-.724-1.369 1.313-1.221 1.182-1.918.565-2.085-.446-.123-.923-.076-1.361.083l-2.904 1.345-5.777 2.117.545-3.052a1.826 1.826 0 0 0-.613.036c-2.144.501-2.809 4.894-2.98 6.465-.008.06-.012.119-.02.175l-.012.143-.016.191c-.004.028-.004.044-.004.044-.06.036-.119.076-.179.112-.462.302-.963.585-1.452.891-.493.294-.983.609-1.504.907-.509.294-1.038.593-1.568.895-.266.151-.533.306-.804.462-.271.143-.545.294-.824.442-.553.298-1.11.597-1.675.903-.577.29-1.158.581-1.747.879-.29.147-.585.298-.879.45-.302.143-.605.286-.911.426-.601.286-1.214.581-1.83.871-.629.275-1.257.553-1.89.832-2.558 1.094-5.22 2.18-7.989 3.127-.052.016-.092.028-.139.048a165.226 165.226 0 0 1-3.099-3.569c-1.623-1.91-3.091-3.811-4.5-5.61-.183-.231-.366-.47-.545-.696a178.43 178.43 0 0 1-1.464-1.918 38.26 38.26 0 0 1-10.536 7.572z" class="colorffa49c svgShape"></path><path fill="#7c96fa" d="M568.677 490.874a14.454 14.454 0 0 0-4.905 2.298c-.43.311-.015 1.032.42.718a13.807 13.807 0 0 1 4.706-2.214c.518-.133.298-.935-.221-.802z" class="colorfa7e7c svgShape"></path><path fill="#717d89" d="M549.958 468.719c1.471 2.57 3.155 4.995 4.864 7.41a222.817 222.817 0 0 1 2.408 3.464c.589.866 1.398 1.713 1.76 2.704.163.446-.52.723-.683.277-.398-1.087-1.37-2.111-2.017-3.062-.796-1.171-1.621-2.321-2.438-3.477-1.581-2.237-3.123-4.495-4.484-6.874-.234-.408.354-.853.59-.442z" class="color718977 svgShape"></path><path fill="#717d89" d="M555.833 478.281c.236-1.258.081-2.54-.4-3.723-.179-.439.521-.673.699-.234a7.32 7.32 0 0 1 .424 4.099c-.087.467-.81.326-.723-.142zM540.402 478.957c1.009 1.651 1.908 3.371 2.977 4.984.945 1.426 1.985 3.52 3.48 4.437a.373.373 0 0 1-.065.676l-.133.051c-.249.096-.421-.085-.451-.291-1.157-.853-1.951-2.272-2.738-3.426-1.334-1.955-2.461-4.021-3.693-6.038-.249-.405.375-.798.623-.393z" class="color718977 svgShape"></path><path fill="#76b5f4" d="M553.73 413.142c-.287.117-.61.179-.941.179a2.679 2.679 0 0 1-2.672-2.672c0-.565.179-1.094.484-1.533l3.129 4.026zM549.938 415.805a2.679 2.679 0 0 1-2.672 2.672c-.054 0-.108 0-.161-.009l.027-5.325c.045-.009.09-.009.134-.009a2.672 2.672 0 0 1 2.672 2.671zM549.615 424.178c0 1.183-.95 2.142-2.134 2.142-.143 0-.278-.018-.412-.045l.018-4.196c.125-.027.26-.036.394-.036a2.13 2.13 0 0 1 2.134 2.135zM558.391 419.14a3.117 3.117 0 0 1-3.111 2.905 3.122 3.122 0 0 1-3.12-3.12 3.122 3.122 0 0 1 3.12-3.12c.197 0 .385.018.565.054l2.546 3.281z" class="colorf47694 svgShape"></path><path fill="#beccdb" d="M1083.626 676.747c0 3.545-31.266 6.419-69.834 6.419-38.568 0-69.834-2.874-69.834-6.419 0-3.545 31.266-6.419 69.834-6.419 38.568 0 69.834 2.874 69.834 6.419z" class="colorbed0db svgShape"></path><path fill="#3a62f8" d="M1016.117 401.454s.944 9.898 13.684 9.903l1.093-4.67.961-4.084.826-3.517 1.216-5.184 1.404-6.006c.171-.752-.717-1.278-1.292-.762l-2.546 2.044-3.982 3.184-2.691 2.148-3.241 2.596-5.432 4.348z" class="colorf89a3a svgShape"></path><path fill="#7dbeff" d="M1027.481 392.362c.252.18.551.317.874.394a2.678 2.678 0 0 0 3.221-1.975 2.683 2.683 0 0 0-.113-1.604l-3.982 3.185zM1030.547 395.836a2.678 2.678 0 0 0 1.974 3.221.947.947 0 0 0 .159.029l1.216-5.184a.663.663 0 0 0-.129-.04 2.67 2.67 0 0 0-3.22 1.974zM1028.907 404.053a2.134 2.134 0 0 0 1.575 2.581c.139.033.274.047.411.053l.961-4.084a1.97 1.97 0 0 0-.375-.127 2.127 2.127 0 0 0-2.572 1.577zM1021.548 397.106a3.117 3.117 0 0 0 2.347 3.55 3.122 3.122 0 0 0 3.762-2.306 3.122 3.122 0 0 0-2.306-3.762 2.88 2.88 0 0 0-.562-.079l-3.241 2.597z" class="colorffbb7d svgShape"></path><path fill="#9dceff" d="M995.862 677.644c-9.87 2.797-19.777 3.541-29.907 2.259a1.584 1.584 0 0 1-1.336-1.954c.117-1.757 5.612-4.429 10.05-6.302a107.17 107.17 0 0 1 5.567-2.188l.009-.009c2.779-1.972 4.473-5.056 5.218-8.221.771-3.326.583-6.769.215-10.139 1.919.35 4.007.045 5.711-.852 2.25 5.827 3.747 12.641 4.285 19.221.009.063.009.135.018.197.224 2.725.286 5.424.17 7.988zM1065.681 649.252c.09 1.596-.242 3.183-.574 4.751-.502 2.385-1.013 4.796-1.919 7.073-.906 2.268-2.223 4.429-4.115 5.971-1.91 1.569-4.303 2.438-6.733 2.86-2.429.43-4.904.439-7.369.457-1.345 0-3.03-.233-3.425-1.515-.377-1.246.807-2.367 1.856-3.138 2.179-1.614 4.384-3.344 5.962-5.504a12.57 12.57 0 0 0 1.452-2.528c1.282-3.075 1.094-6.616.125-9.808-.959-3.201-3.46-5.298-5.128-8.194 1.981-.556 6.069-4.204 6.634-6.177 1.784 3.586 3.326 8.104 7.082 9.494.726.26 1.479.484 2.197.762.771.296 1.506.654 2.116 1.201 1.193 1.067 1.758 2.699 1.839 4.295z" class="colorffa59d svgShape"></path><path fill="#3c53aa" d="M1057.16 637.834c-2.165 2.225-6.524 6.343-9.042 8.296-16.653-15.727-42.215-63.911-47.209-76.063-1.279-3.101-2.618-6.887-3.957-10.944-5.286-16.009-7.343-19.469-7.343-19.469-1.067 5.014.075 6.81-.952 22.527-.272 4.209-.126 13.252-.317 16.816.211 21.566 4.764 67.013 7.704 83.727-.564.091-1.067.171-1.178.171-3.121 0-8.216-.151-11.246-.443-.121-.302-.242-.604-.362-.916-.423-1.077-.856-2.215-1.309-3.403-.06-.161-.121-.322-.181-.493-11.035-30.074-17.098-76.044-17.098-76.044v-.05c-1.541-61.89 15.638-97.373 16.786-99.598.03-.071.05-.111.05-.111l12.203-.272 5.759-.121 3.655-.101c20.529 17.972 18.139 69.563 17.827 85.069 0 .353-.01.685-.02.987-.01.292-.01.554-.02.785-.02.896-.04 1.369-.04 1.369 9.283 10.127 28.336 53.782 36.29 68.281z" class="coloraa733c svgShape"></path><path fill="#465aa5" d="M998.338 425.086c.823 4.478 3.031 8.497 5.003 12.547 2.049 4.208 3.969 8.527 5.115 13.08.347 1.379.605 2.768.78 4.164-.099 2.454-.278 4.91-.433 7.331-.558 8.696-.552 18.078 4.384 25.26 4.549 6.618 12.617 10.121 20.598 11.014 7.834.876 16.008-.521 22.792-4.535 6.784-4.015 12.052-10.741 13.705-18.448 1.653-7.707-.554-16.279-6.172-21.809-4.726-4.653-11.32-6.9-16.483-11.065-5.268-4.25-8.94-25.249-14.467-33.889-5.466-8.543-14.724-17.147-19.244-4.978-3.145.76-5.784 2.451-8.639 3.971-3.542 1.887-5.819 4.479-6.621 7.67-.971 3.094-.872 6.674-.318 9.687z" class="colora55846 svgShape"></path><path fill="#9dceff" d="M1004.474 435.553a10.62 10.62 0 0 0 6.181 2.999c2.323.283 4.454-.381 6.441-1.595.037-1.66.153-3.318.357-4.962.046-.381.093-.762.148-1.136l.006-.036c.066-.436.137-.872.213-1.307.339-1.946.644-2.936 1.214-4.828.034-.112.064-.229.103-.34.162-.538.34-1.073.528-1.607l.001-.005a48.304 48.304 0 0 1 2.184-5.265c-3.347.614-6.694 1.388-9.572 3.203a37.328 37.328 0 0 1-.505 1.658 38.355 38.355 0 0 1-.559 1.633c-.066.176-.127.357-.197.522a39.57 39.57 0 0 1-.753 1.874c-.019.05-.043.099-.062.15-.204.467-.408.934-.627 1.394-.163.346-.325.687-.497 1.021l-.024.049c-1.325 2.642-2.748 4.221-4.58 6.578z" class="colorffa59d svgShape"></path><path fill="#77b4f1" d="M1009.055 428.975c6.314.583 9.525-5.196 9.525-5.196l-6.807-1.446a38.355 38.355 0 0 1-.559 1.633c-.066.176-.127.357-.197.522a39.57 39.57 0 0 1-.753 1.874c-.019.05-.043.099-.062.15-.204.467-.408.934-.627 1.394-.163.346-.325.687-.497 1.021-.008.018-.015.028-.023.048z" class="colorf17785 svgShape"></path><path fill="#9dceff" d="M1005.698 421.901c1.067 2.457 4.91 3.711 7.583 3.523 2.672-.187 4.543-1.214 6.543-3.002.113-.107.233-.214.347-.327.097-.302.206-.601.332-.898.333-.791.757-1.554 1.156-2.315.668-1.269 1.3-2.61 1.354-4.039.065-1.757-.76-3.419-1.911-4.775-2.963-2.772-6.993-5.388-6.993-5.388l-1.884 3.246-.001.006c-.22.431-.463.853-.726 1.254-1.351 2.074-3.128 3.857-4.402 5.98-1.269 2.122-2.375 4.461-1.398 6.735z" class="colorffa59d svgShape"></path><path fill="#9dceff" d="M1021.822 418.163c.252-.46.636-.945 1.16-.942.517.003.902.49 1.085.973.471 1.243.084 2.761-.924 3.627-1.008.866-2.567 1.02-3.725.367.717-1.346 1.673-2.687 2.404-4.025z" class="colorffa59d svgShape"></path><path fill="#647ddd" d="M1012.263 415.737c-.006.076-.22.081-.474-.049-.268-.124-.587-.389-.796-.841a1.706 1.706 0 0 1-.141-.814c.018-.338.141-.599.246-.709.06-.065.103-.082.143-.059.02.008.033.023.045.045.035.092.033.307.062.565.027.196.067.413.154.634.005.028.017.05.029.078.134.342.35.6.516.793.147.171.249.283.216.357z" class="colordd6478 svgShape"></path><path fill="#ffffff" d="M1014.332 417.962c-2.158-.467-4.433-1.703-5.206-2.436-.264-.25-.71-.145-.824.178-2.141 6.069 4.189 5.177 6.158 3.06.285-.305.294-.71-.128-.802z" class="colorffffff svgShape"></path><path fill="#9dceff" d="M980.523 412.061c.792 3.698 2.051 8.564 4.016 14.644l-.005.012c2.435 7.617 5.977 17.152 11.09 28.765l.023.051 12.721-19.743.107-.172s-.172-.107-.495-.342l-.012-.005c-1.699-1.248-7.411-5.988-12.57-16.726l-.02-.022c-1.754-3.663-3.449-8.012-4.899-13.162l13.757-35.662-4.345-1.633s-8.934 14.693-16.687 27.703a22.532 22.532 0 0 0-2.681 16.292z" class="colorffa59d svgShape"></path><path fill="#5676ef" d="M1006.023 433.587s-8.169-9.331-10.624-15.041c0 0-7.084 3.223-10.379 9.67l4.798 19.491 16.205-14.12z" class="coloref5656 svgShape"></path><path fill="#5676ef" d="M1029.774 448.451c-3.761 2.72-7.786 6.045-11.578 9.977-6.092 6.341-11.609 14.313-14.484 23.979l-.016-.016c-9.791 3.776-22.13-.342-22.13-.342.699-10.428 1.601-17.095 3.512-23.528 1.072-3.528.901-7.879 2.036-10.972 1.679-4.6 6.481-7.024 8.594-9.153 3.124-3.092 5.874-4.227 7.273-4.615.295-.094.606-.156.917-.218a.069.069 0 0 0 .047-.016c.031.016.062 0 .093 0 .932-.016 1.849.031 2.797.155 3.45.451 6.543.062 9.93.808.078.016.14.047.202.047.109.031.233.062.326.109.544.14 1.057.342 1.554.591a9.998 9.998 0 0 1 2.766 1.943c2.163 2.082 5.209 6.294 8.161 11.251z" class="coloref5656 svgShape"></path><path fill="#9dceff" d="M1051.129 433.682c-3.462 2.536-8.203 5.71-14.457 9.38.185-.396 3.481-7.772-3.012-15.115 4.252-1.781 8.971-4.188 14.087-7.458l16.366-40.37 4.265 1.005s-3.975 19.848-7.225 36.727a25.556 25.556 0 0 1-10.024 15.831z" class="colorffa59d svgShape"></path><path fill="#5676ef" d="M1039.78 442.189a93.974 93.974 0 0 0-10.005 6.268c-3.767 2.71-7.786 6.035-11.586 9.975l-1.207-23.637.311-.132.361-.155.015.003 18.726-8.033c2.125 1.933 3.375 4.836 3.741 7.732.346 2.649.076 5.335-.356 7.979z" class="coloref5656 svgShape"></path><path fill="#9dceff" d="M1006.023 433.587s-10.957 14.331 11.27 1.075c.001 0-.616-6.346-11.27-1.075zM1076.728 373.607c-1.539 4.755-5.168 8.794-9.73 10.839-1.574-.722-1.619-1.127-3.193-1.849-1.04-2.74-1.179-5.791-.443-8.62 1.223-4.223 1.486-.438 1.519-.147l-.001.016c-.048.98.071 1.851.039 2.832a16.874 16.874 0 0 1 9.454-5.587c.814-.169 1.813-.2 2.313.452.438.57.268 1.383.042 2.064zM996.241 358.476c-1.455 4.781-.787 10.17 1.786 14.455 1.705.308 1.972.001 3.677.309 2.42-1.654 4.278-4.077 5.292-6.819 1.411-4.164-.969-1.208-1.163-.989l-.009.014c-.52.832-1.116 1.478-1.651 2.301a16.873 16.873 0 0 0-4.563-9.989c-.571-.604-1.373-1.201-2.156-.951-.684.217-1.01.98-1.213 1.669z" class="colorffa59d svgShape"></path><path fill="#253982" d="M989.119 526.914c-.086-.965-1.595-.895-1.508.075a104.987 104.987 0 0 0 2.04 13.225c-2.369-1.244-3.192-4.249-4.096-6.624-.344-.905-1.781-.438-1.434.474 1.219 3.201 2.375 6.829 5.964 7.944a103.596 103.596 0 0 0 6.534 19.017c.399.873 1.839.412 1.434-.474-4.889-10.695-7.882-21.918-8.934-33.637zM1011.388 509.796c-6.803-1.738-11.781-9.226-11.367-16.201.058-.971-1.453-.968-1.51 0-.454 7.659 5.011 15.75 12.476 17.658.941.24 1.343-1.216.401-1.457zM1021.511 561.288c-.071-.963-1.582-.971-1.51 0 .31 4.221-.415 8.265-2.234 12.091-.415.873.886 1.641 1.304.762 1.931-4.06 2.77-8.366 2.44-12.853z" class="color824f25 svgShape"></path><path fill="#405dcc" d="M994.61 438.815c-6.318 3.642-9.681 10.234-8.895 17.497.103.956 1.615.966 1.51 0-.733-6.773 2.237-12.786 8.147-16.193.842-.485.082-1.791-.762-1.304zM1010.799 454.532c-2.486 2.436-5.996 5.208-9.537 3.002-.827-.516-1.586.791-.762 1.304 4.143 2.582 8.373-.304 11.367-3.238.695-.682-.373-1.749-1.068-1.068z" class="colorcc4040 svgShape"></path><path fill="#253982" d="M1065.681 649.252c.09 1.596-.242 3.183-.574 4.751-.502 2.385-1.013 4.796-1.919 7.073-.906 2.268-2.223 4.429-4.115 5.971-1.91 1.569-4.303 2.438-6.733 2.86-2.429.43-4.904.439-7.369.457-1.345 0-3.03-.233-3.425-1.515-.377-1.246.807-2.367 1.856-3.138 2.179-1.614 4.384-3.344 5.962-5.504 2.743 2.555 7.719-3.398 8.687-4.886a20.396 20.396 0 0 0 2.403-5.119c.663-2.098.914-4.285 1.273-6.446.771.296 1.506.654 2.116 1.201 1.192 1.067 1.757 2.699 1.838 4.295zM995.862 677.644c-9.87 2.797-19.777 3.541-29.907 2.259a1.584 1.584 0 0 1-1.336-1.954c.117-1.757 5.612-4.429 10.05-6.302 6.293 5.002 14.532 2.313 21.023-1.99.224 2.724.286 5.423.17 7.987z" class="color824f25 svgShape"></path><path fill="#394d96" d="M1016.717 277.008c1.68 3.809 2.434 7.78 1.928 11.932-.22 1.881-.687 6.682-3.055 7.255-2.434.592-7.054-2.282-9.049-3.484-3.436-2.052-6.405-4.735-8.906-7.856-.792-1.002-.286-2.32 1.012-2.444 4.83-.477 9.451 1.098 12.925 4.315.115-3.398 1.012-6.634 2.673-9.718.467-.878 2.033-.993 2.472 0zM1042.796 295.164c-1.556 8.792-7.589 18.672-15.121 23.55-.659.42-1.575.124-1.966-.516-4.658-7.799-6.3-16.467-4.992-25.44.191-1.27 2.062-1.317 2.625-.344 2.224 3.837 4.277 7.675 5.298 11.856 2.406-5.155 6.778-9.011 12.4-10.863 1.126-.371 1.937.755 1.756 1.757zM1083.667 350.622c-5.575 4.219-14.128 8.124-21.202 5.794-.916-.296-1.136-1.203-.897-1.909a2.343 2.343 0 0 1-.057-.382c-.114-5.861 1.318-11.302 4.315-16.333.64-1.069 2.272-.84 2.615.344.84 2.835.831 5.594.573 8.458a57.34 57.34 0 0 1 14.309 1.413c1.327.295 1.241 1.937.344 2.615zM1061.148 341.333c-.649.487-1.566.076-1.957-.506-6.692-9.985-7.369-21.745-5.708-33.353.143-1.04 1.747-1.403 2.396-.63 4.401 5.241 7.188 11.197 8.353 17.774a43.48 43.48 0 0 1 10.901-8.248c1.126-.611 2.377.382 2.1 1.613-1.145 5.155-4.372 9.403-7.389 13.632-2.558 3.59-5.136 7.074-8.696 9.718zM1018.425 349.509c-.649 1.069-2.243.831-2.616-.344-.582-1.89-1.174-3.78-1.766-5.67a.955.955 0 0 1-.43.057c-8.572-.974-13.221-8.047-17.03-15.035-.64-1.184.41-2.301 1.613-2.11a31.077 31.077 0 0 1 14.214 6.109c.296.229.468.525.544.84a.991.991 0 0 1 .076.143c.086.239.162.487.248.726.735-4.706 2.663-9.145 4.83-13.527.458-.926 2.014-.945 2.472 0 3.993 8.287 2.542 21.098-2.155 28.811z" class="color5b9639 svgShape"></path><path fill="#253675" d="M1001.546 307.062c-.832-1.645-3.303-.197-2.473 1.445 8.45 16.712 16.965 34.147 16.061 53.363-.087 1.842 2.777 1.838 2.864 0 .927-19.7-7.785-37.666-16.452-54.808zM1094.807 321.331c-8.956 4.486-16.2 11.304-22.605 18.915-5.866 6.971-13.102 14.75-15.889 23.553-.557 1.761 2.206 2.515 2.762.761 2.752-8.693 10.284-16.647 16.139-23.45 6.007-6.979 12.752-13.156 21.039-17.307 1.647-.825.199-3.296-1.446-2.472zM1065.694 287.532c-.31-1.813-3.07-1.044-2.762.761 3.251 19.027 1.549 38.377-4.846 56.581-.612 1.742 2.154 2.491 2.761.761 6.572-18.707 8.184-38.567 4.847-58.103zM1036.361 274.006c-7.619 18.514-11.376 38.25-11.138 58.266.022 1.841 2.886 1.846 2.864 0-.235-19.779 3.51-39.216 11.036-57.505.7-1.703-2.069-2.445-2.762-.761zM1018.567 299.659c-5.05-12.361-15.156-28.666-23.467-39.116-1.147-1.442-3.161.596-2.025 2.025 7.982 10.036 17.88 25.981 22.731 37.852.688 1.684 3.459.947 2.761-.761z" class="color407525 svgShape"></path><path fill="#55aaff" d="M1003.661 308.342c-.134 1.309-1.085 2.833-1.551 3.81-.448.923-1.856.825-2.331 0a12.778 12.778 0 0 0-.968-1.569c-.296.072-.592.152-.888.224-.807.027-1.874.43-2.681.583-.78.143-1.641.403-2.385-.027-1.909-1.103.305-2.878-.439-4.223-.87-1.56-3.434-2.976-1.91-5.092.493-.699 1.067-.717 1.793-1.004 1.417-.565 1.363-1.398 2.017-2.636.206-.385.717-.699 1.156-.663 1.461.108 2.026.628 3.613.179.798-.233 1.372-.637 2.259-.448 1.694.341 1.811 1.596 1.641 3.021-.09.726-.269 1.542.269 1.999.278.233.825.197 1.156.394.574.332.914.708 1.031 1.363.262 1.373-.84 2.95-1.782 4.089zM1044.497 272.5c-.654.717-.646.843-.816 1.847-.099.592-.188 1.067-.547 1.551a2.296 2.296 0 0 1-1.309.888c-.484 1.936-2.152 3.416-3.954 3.048-1.865-.036-4.644-.152-5.648-1.856-.861-1.47-.125-2.609.744-3.703-.466-.726-1.434-1.542-1.685-2.268-.314-.914-.287-1.748.054-2.636.332-.861 1.13-1.192 1.972-.798.601-.314.888-.789.861-1.425.17-.897 1.273-1.183 1.981-.807.834.448 2.089 1.434 3.057 1.443.968.009 1.56-.995 2.331-1.605.69-.547 2.071-.52 2.25.601.215 1.398 1.748 1.793 1.981 3.174.198 1.192-.564 1.775-1.272 2.546z" class="colorffde55 svgShape"></path><path fill="#5676ef" d="M999.753 261.608c.242 1.004-.197 1.676-.896 2.134a1.342 1.342 0 0 1-.538.726c-.565.376-.699 2.743-1.022 3.443-.197.439-.717.637-1.156.663-.762.054-.986-.278-1.56-.637-1.139-.717-.932-.296-2.116.081-2.188.69-2.394-1.542-3.998-2.071-1.354-.439-3.873-.125-4.196-2.053-.269-1.605 1.497-2.152 2.627-2.976-.457-1.129-1.282-2.116-.484-3.424.233-.386.636-.672 1.004-.923.825-.565 1.542-1.022 2.322-1.658.681-.556 1.398-.932 2.259-.43.852.502.412 1.031 1.793 1.04 1.049 0 2.429-.735 3.389-1.112.502-.197 1.291.126 1.515.619.493 1.058.807 2.08.556 3.254-.152.735-.52 1.246-.287 2.026.133.455.662.796.788 1.298z" class="coloref5656 svgShape"></path><path fill="#55aaff" d="M1104.194 324.201c-.143.78-.87 1.237-1.076 2.053-.188.699.116 1.318-.439 1.936-.385.421-.798.52-1.354.565-.592.054-1.201-.278-1.775-.341-1.04-.116-1.981.081-2.914.341-1.856.502-3.918-.511-5.738.511-.843.466-1.641-.009-1.981-.807-.269-.645.161-2.089-.036-2.43-.099-.179-1.219-.323-1.497-.628-1.139-1.246.278-3.039.861-4.169a.483.483 0 0 1 .072-.116c-1.649-1.049-3.138-2.367-1.309-4.061.654-.61 1.085-.341 1.909-1.183.341-.341.421-.807.932-1.04.368-.179.663-.072 1.031-.134.233.054.457.134.672.242 1.784.457 3.138.081 4.061-1.13.69-.708 2.017-.394 2.25.592.215.915.43 2.474 1.667 2.654-.242-.036 2.501-.368 2.394-.368 1.076.009 1.614 1.112 1.165 2.017-.592 1.192-.583 1.963.072 3.057.197.323.61.502.798.852.307.547.352 1.004.235 1.587z" class="colorffde55 svgShape"></path><path fill="#5676ef" d="M1073.22 286.745c-.583 1.596-1.999 1.551-3.254 2.044.35 1.417 1.309 3.236.143 4.303-.663.619-1.784.565-2.86.368-.251.197-.511.395-.762.592-.726.556-1.569.502-2.116-.26 0 .099-2.035.475-2.268.439-.565-.099-.923-.314-1.39-.646-.762-.538-.529-1.237-1.569-1.883-.601-.376-1.452-.368-2.089-.762-2.761-1.703-1.363-3.738.161-5.496-.439-.475-1.094-1.192-1.103-2.008-.018-1.345.663-1.757 1.685-2.385.968-.61 1.784-1.013 2.492-1.936.43-.565.538-1.219 1.184-1.632 1.587-.995 2.662 1.112 4.231.179.78-.475 1.694-.009 1.972.798.825 2.403 2.555.896 3.945.565 1.085-.269 2.196.95 1.524 1.972-1.468 2.243.845 3.651.074 5.748z" class="coloref5656 svgShape"></path><ellipse cx="207.791" cy="698.225" fill="#beccdb" rx="106.322" ry="7.405" class="colorbed0db svgShape"></ellipse><path fill="#55aaff" d="M273.168 360.748s-.041 14.112 17.954 15.89l2.193-6.445 1.926-5.635 1.655-4.854 2.438-7.154 2.818-8.289c.346-1.038-.835-1.905-1.72-1.256l-3.881 2.534-6.067 3.945-4.1 2.66-4.939 3.217-8.277 5.387z" class="colorffde55 svgShape"></path><path fill="#c0dfff" d="M290.484 349.483c.331.29.734.524 1.179.678a3.801 3.801 0 0 0 4.824-2.342 3.81 3.81 0 0 0 .063-2.281l-6.066 3.945zM294.333 354.816a3.801 3.801 0 0 0 2.342 4.824c.072.025.144.05.221.063l2.438-7.154c-.056-.033-.116-.054-.176-.075a3.794 3.794 0 0 0-4.825 2.342zM290.875 366.196a3.03 3.03 0 0 0 1.866 3.865c.192.067.381.105.574.131l1.926-5.635a2.7 2.7 0 0 0-.512-.231 3.02 3.02 0 0 0-3.854 1.87zM281.445 355.361a4.424 4.424 0 0 0 2.822 5.341 4.431 4.431 0 0 0 5.634-2.734 4.432 4.432 0 0 0-2.735-5.634 4.026 4.026 0 0 0-.782-.19l-4.939 3.217z" class="colorfff3c0 svgShape"></path><path fill="#435ec4" d="M239.777 347.051s-4.22 13.467-21.913 9.729l-.145-6.806-.135-5.954-.113-5.127-.165-7.557-.185-8.753c-.017-1.094 1.371-1.565 2.018-.678l2.935 3.587 4.593 5.592 3.106 3.773 3.738 4.558 6.266 7.636z" class="colorc44397 svgShape"></path><path fill="#90c2f4" d="M226.668 331.085a3.562 3.562 0 0 1-1.329.29 3.802 3.802 0 0 1-3.893-3.689 3.814 3.814 0 0 1 .628-2.194l4.594 5.593zM221.389 335.007a3.802 3.802 0 0 1-3.689 3.893 1.349 1.349 0 0 1-.229-.007l-.165-7.557c.063-.014.127-.016.19-.018a3.794 3.794 0 0 1 3.893 3.689zM221.251 346.9a3.031 3.031 0 0 1-2.946 3.122 2.99 2.99 0 0 1-.587-.048l-.135-5.954c.177-.043.368-.061.558-.066a3.02 3.02 0 0 1 3.11 2.946zM233.512 339.416a4.424 4.424 0 0 1-4.303 4.24 4.432 4.432 0 0 1-4.546-4.307 4.432 4.432 0 0 1 4.307-4.546c.28-.008.548.011.803.055l3.739 4.558z" class="colorf490d5 svgShape"></path><path fill="#28292b" d="M154.332 642.333c6.993 9.547 15.476 17.253 25.6 23.275a1.827 1.827 0 0 0 2.602-.83c1.141-1.681-1.962-8.01-4.669-12.863a122.334 122.334 0 0 0-3.512-5.94l-.002-.015c-1.129-3.766-.482-7.773 1.087-11.18 1.659-3.572 4.273-6.57 6.999-9.375-1.993-1.043-3.677-2.803-4.59-4.827-6.181 3.704-12.378 8.839-17.536 14.442-.053.051-.104.116-.156.167-2.138 2.321-4.109 4.73-5.823 7.146zM107.934 585.171c3.051 11.435 8.157 21.694 15.405 30.981a1.828 1.828 0 0 0 2.726.171c1.673-1.152 1.079-8.176.319-13.681a123.766 123.766 0 0 0-1.116-6.81l.004-.014c.316-3.919 2.373-7.418 5.071-10.022 2.842-2.727 6.366-4.571 9.924-6.195-1.479-1.696-2.409-3.946-2.525-6.164-7.104 1.207-14.742 3.743-21.582 7.092-.068.028-.139.07-.206.099-2.834 1.385-5.546 2.914-8.02 4.543z" class="color29282b svgShape"></path><path fill="#28292b" d="M250.722 522.773c-.61 2.691-1.405 5.251-2.429 7.615-5.425 12.495-17.245 19.292-29.238 24.423-14.281 6.101-29.271 10.273-43.966 15.208-13.519 4.532-26.428 11.743-40.241 15.186-4.227 1.046-7.419-1.394-8.911-6.057-.349-1.089-.643-2.124-.828-3.127 60.95-44.457 87.16-46.2 87.16-46.2 3.573-3.301 3.094-8.312 3.388-13.41.272-4.521.436-9.063.501-13.606a176.32 176.32 0 0 0-.022-5.327c8.693 3.268 16.831 8.05 23.879 14.096a77.83 77.83 0 0 1 10.707 11.199z" class="color29282b svgShape"></path><path fill="#5676ef" d="M238.018 390.73s10.434 3.977 20.835 21.308c0 0-1.17 8.854-12.724 14.599l-8.111-35.907z" class="coloref5656 svgShape"></path><path fill="#021b79" d="M281.049 667.839c2.917 10.849-.015 23.482-7.234 31.163-.857.912-1.785 1.782-2.357 2.955-.572 1.172-.701 2.76.042 3.8.563.788 1.478 1.091 2.341 1.309a27.53 27.53 0 0 0 15.462-.58c2.484-.827 5.057-2.19 6.29-4.814.846-1.801.934-3.937.955-5.989a135.592 135.592 0 0 0-2.991-29.819c-4.508.042-8.162.606-12.508 1.975zM240.241 672.623c.032 5.996.063 13.068.095 19.064.012 2.193-.038 4.572-1.395 6.294-1.555 1.972-4.307 1.369-6.803 1.639-11.262 1.219-19.967 1.176-31.219-.127-1.147-.133-2.589-.572-2.669-1.723-.074-1.065 1.107-1.723 2.1-2.116 6.722-2.66 11.141-4.08 17.524-7.472 2.713-1.442 5.424-2.971 7.648-5.09 2.225-2.119 3.407-6.527 3.672-9.588 3.289-.373 7.758-.507 11.047-.881z" class="color39373b svgShape"></path><path fill="#465aa5" d="m289.573 378.134-5.926 11.23c-1.379 2.613-2.939 5.402-5.63 6.622-2.473 1.121-5.614.547-7.532-1.375 3.945-2.309 7.245-5.46 9.569-9.397 1.089-1.846 1.977-3.847 3.443-5.411 1.465-1.564 4.04-2.338 6.076-1.669z" class="colora55846 svgShape"></path><path fill="#4e556d" d="M298.431 661.734c-.111-9.77-.235-22.027-.359-35.335-.332-37.021-.608-82.277-.207-105.203.249-14.496.428-24.224.428-24.307-11.428-3.593-18.807-5.597-32.35-5.597-10.571 0-12.672 1.216-22.041 3.468-.014.152-.622 5.638-1.617 14.454-2.571 22.843-9.203 80.895-14.151 124.093-1.23 10.779-2.363 20.632-3.289 28.785-.58 5.071-1.078 9.479-1.492 13.045 4.395 2.639 9.673 4.533 15.491 5.445 1.548.235 3.123.415 4.74.498l3.234-16.679 5.845-34.354 15.546-91.301 6.619 87.667 1.05 13.971 1.631 21.64.539 6.039.691 7.849c2.487.401 5.086.608 7.739.608 4.242 0 8.319-.525 12.105-1.493-.042-3.579-.097-8.084-.152-13.293z" class="color6d4e55 svgShape"></path><path fill="#15276d" d="M261.207 404.113s6.721-4.577 18.424-2.289v5.907l-15.578 1.842-3.419-2.038.573-3.422z" class="color6d1526 svgShape"></path><path fill="#6ab2fb" d="M302.528 441.253c-.721 5.313-1.342 12.457-1.874 20.222-.788 11.702-1.742 36.106-2.063 46.355-.011.255-.022.532-.022.788-.022.466-.033.932-.055 1.387-.066 2.329-.122 4.47-.166 6.378a219.81 219.81 0 0 1-41.907 1.974c-.92-.044-1.83-.1-2.751-.155a215.3 215.3 0 0 1-8.463-.688c-.022 0-.056 0-.1-.011a198.304 198.304 0 0 1-5.069-.565c1.065-5.069 2.274-18.236 3.161-25.535.155-1.287.299-2.385.432-3.239.155-.921.288-1.83.422-2.74.166-1.043.322-2.063.466-3.095.144-.987.277-1.986.411-2.973.676-4.98 1.209-9.806 1.653-14.409.044-.444.089-.887.122-1.331.133-1.453.255-2.895.377-4.304.288-3.561.521-6.977.699-10.216-13.655-3.073-12.634-15.707-12.634-15.707l9.983-15.352a15.9 15.9 0 0 1 6.423-5.712c1.997-.965 4.37-2.096 5.857-2.773.887-.411 1.775-.821 2.673-1.22 4.049-1.852 8.131-3.694 11.758-5.546 3.15 1.265 6.278 2.518 9.417 3.794.055.011.1.033.155.056 1.764.699 3.516 1.397 5.269 2.108 4.603 1.852 9.406 3.838 12.59 7.654 5.51 6.607 4.401 16.313 3.236 24.855z" class="colorfbc96a svgShape"></path><path fill="#9ccdff" d="M279.983 388.439c-.373 1.382-1.23 10.958-1.368 12.382 0 .083.414 3.165.414 3.247-.304 3.289-3.607 4.339-2.598 7.573-6.108.566-9.493-1.078-15.366-3.123.497-1.05 1.133-2.1 1.631-3.178.166-.359.318-.732.442-1.106.124-.415.263-.843.373-1.271v-.014c.124-.456.249-.926.345-1.396.193-.774.304-3.469.428-4.256.097-.594.18-1.188.249-1.81.11-1.161.18-2.335.18-3.524 0-.207-.014-.428-.014-.649.332-.414.705-.815 1.092-1.188 3.344-3.206 8.692-4.657 13.957-4.477 0 .91.539 1.657.235 2.79z" class="colorffa49c svgShape"></path><path fill="#ffffff" d="m264.053 409.574-4.818 6.568s-2.78-2.041-1.818-6.595l3.789-5.433c.001-.001-.574 5.346 2.847 5.46zM279.631 401.825s-5.015 6.658-15.578 7.749l3.616 7.448s8.948-1.492 14.889-9.938l-2.927-5.259z" class="colorffffff svgShape"></path><path fill="#647ddc" d="M278.228 390.608s-4.519 10.336-14.717 12.354v-.014c.124-.456.249-.926.345-1.396.193-.774.304-3.469.428-4.256.097-.594.18-1.188.249-1.81.11-1.161.18-2.335.18-3.524l13.515-1.354z" class="colordc6478 svgShape"></path><path fill="#465aa5" d="M267.665 363.951c-2.313 3.592-2.954 8.213-1.707 12.299 1.111-2.813 2.209-5.507 3.321-8.32.515-1.303 1.01-2.857.238-4.027-.236-.357-.618-.657-1.046-.647-.429.01-.938.288-.806.695z" class="colora55846 svgShape"></path><path fill="#9ccdff" d="M269.12 362.907a27.81 27.81 0 0 1-6.553 16.277c-2.19 2.566-4.989 4.999-5.44 8.343-.595 4.403 3.589 8.408 8.009 8.858 4.42.45 8.712-1.827 12.031-4.781 6.075-5.407 9.814-13.355 10.106-21.483-4.788-3.975-11.943-6.815-18.153-7.214z" class="colorffa49c svgShape"></path><path fill="#465aa5" d="M291.038 378.487c-2.436 2.406-5.354 4.742-8.525 6.031-1.6-4.448-.382-9.779 2.989-13.091 0 0-23.611.394-19.128-10.408.906-2.189 1.206-5.431 4.854-8.637 0 0 3.036.435 6.554 2.306 2.877 1.524 7.843 4.589 9.973 8.566 2.53 1.465 5.042 3.207 6.025 5.913 1.159 3.218-.306 6.919-2.742 9.32z" class="colora55846 svgShape"></path><path fill="#9ccdff" d="M282.498 383.511c.099-.869.982-1.532 1.856-1.501s1.663.664 2.006 1.469c.343.805.279 1.744-.039 2.559-.319.815-.874 1.517-1.496 2.133-.922.913-2.062 1.683-3.35 1.837-1.288.155-2.723-.444-3.245-1.632 1.834-1.347 4.01-2.605 4.268-4.865z" class="colorffa49c svgShape"></path><path fill="#647ddc" d="M266.599 381.991c.008.118-.322.175-.744.032-.442-.13-.996-.469-1.422-1.119a.085.085 0 0 0-.025-.042 2.67 2.67 0 0 1-.378-1.184c-.049-.526.082-.958.219-1.151.078-.114.141-.151.208-.123.033.008.056.028.08.059.074.135.12.467.224.86.086.297.197.624.382.946.014.042.038.073.062.115.285.499.678.848.978 1.108.267.229.451.377.416.499z" class="colordc6478 svgShape"></path><path fill="#3d4359" d="M262.661 535.263a37.406 37.406 0 0 0 4.328 7.932c-.38-4.712-.613-9.437-.682-14.178-.027-1.814 2.796-2.123 2.823-.297a215.272 215.272 0 0 0 2.849 31.929c.298 1.806-2.527 2.092-2.823.297a215.445 215.445 0 0 1-1.811-13.801 1.367 1.367 0 0 1-1.343-.52 40.27 40.27 0 0 1-5.992-10.35c-.675-1.702 1.978-2.71 2.651-1.012z" class="color593d44 svgShape"></path><path fill="#4c69d8" d="M249.184 434.75a130.49 130.49 0 0 0-2.083 17.726c-.064 1.334 2.008 1.33 2.073 0a126.45 126.45 0 0 1 2.008-17.175c.245-1.304-1.753-1.863-1.998-.551zM282.562 451.602l-38.491 33.821c.166-1.043.322-2.063.466-3.095.144-.987.277-1.986.411-2.973.676-4.98 1.209-9.806 1.653-14.409.044-.444.089-.887.122-1.331.133-1.453.255-2.895.377-4.304 11.691-4.182 30.393-10.161 35.462-7.709z" class="colord8a34c svgShape"></path><path fill="#ffffff" d="M269.449 385.091c-2.704.049-5.764-.787-6.892-1.444-.385-.224-.888.027-.933.444-.85 7.838 6.447 4.998 8.203 1.921.254-.444.152-.93-.378-.921z" class="colorffffff svgShape"></path><path fill="#33353d" d="M242.562 352.985c.731-2.509.301-5.324-.752-7.267-1.053-1.943-2.673-3.204-4.391-4.078-4.882-2.482-10.845-2.023-16.121 1.243-5.275 3.265-9.791 9.29-12.209 16.291-1.641 4.75-2.407 10.023-4.947 14.151-3.438 5.588-9.161 7.553-13.188 12.418-4.355 5.261-6.139 13.522-5.171 20.424.969 6.901 4.37 12.478 8.632 16.208 4.261 3.73 9.349 5.778 14.505 7.301 4.016 1.186 8.214 2.076 12.501 1.046 4.287-1.031 8.721-4.296 11.034-9.474 3.145-7.038 1.726-15.649 4.744-22.765 1.843-4.347 5.07-7.473 7.486-11.369 3.336-5.378 5.05-12.329 4.597-18.645-.453-6.317-2.778-12.41-6.72-15.484z" class="color3d3533 svgShape"></path><path fill="#9ccdff" d="M224.546 362.797c.13 2.517.103 5.06-.068 7.566l-.003.012c-.045.75-.113 1.494-.194 2.235a5.603 5.603 0 0 1-.052.469c-.284 2.606-.431 3.978-1.019 6.534l-.431 1.758c-.133.487-.277.972-.412 1.471a75.614 75.614 0 0 1-1.12 3.53c1.973 3.122 3.693 5.674 5.199 7.756.269.092.539.183.823.265 2.874.845 6.013.714 8.822-.346-.182-1.376-.408-2.522-.497-2.988a.823.823 0 0 1-.037-.161c-.015-.042-.021-.069-.021-.069-.644-2.39-1.158-4.533-1.326-7.313-.006-.027-.012-.053-.006-.078-.016-.143-.019-.283-.032-.439-.017-.347-.03-.705-.044-1.063-.036-.681-.036-1.353-.048-2.028.006-.075-.001-.153.002-.215a61.87 61.87 0 0 1 .063-2.686c-.004-.242.019-.49.03-.741a48.16 48.16 0 0 1 .157-2.294c.02-.135.029-.272.037-.41.063-.618.129-1.249.219-1.874-2.575-3.711-6.264-6.404-10.042-8.891z" class="colorffa49c svgShape"></path><path fill="#77b3f0" d="M225.824 371.901s.87 8.304 8.351 11.103c-.021-.354-.035-.71-.048-1.069-.03-.674-.035-1.352-.043-2.028.004-.072.001-.146.004-.216-.004-.894.011-1.78.055-2.684-.001-.238.019-.491.031-.739.034-.766.093-1.53.163-2.288l.038-.41-8.551-1.669z" class="colorf07784 svgShape"></path><path fill="#9ccdff" d="M241.99 376.612c-2.583 2.449-7.935 1.983-11.105.363-3.171-1.619-4.924-3.848-6.439-7.076-.082-.19-.173-.382-.253-.58.038-.419.061-.842.061-1.271.005-1.14-.117-2.294-.209-3.433-.157-1.9-.232-3.868.446-5.643.835-2.182 2.709-3.785 4.821-4.845 4.195-1.53 9.229-2.549 10.836-2.855a.496.496 0 0 1 .584.427l.549 4.426-.002.008c.045.642.122 1.284.235 1.91.573 3.239 1.817 6.344 2.272 9.603.447 3.257.582 6.693-1.796 8.966z" class="colorffa49c svgShape"></path><path fill="#9ccdff" d="M224.218 363.651c-.068-.693-.286-1.486-.928-1.756-.634-.266-1.357.13-1.833.626-1.222 1.274-1.539 3.332-.757 4.916.782 1.583 2.609 2.582 4.364 2.386-.177-2.018-.648-4.155-.846-6.172z" class="colorffa49c svgShape"></path><path fill="#647ddc" d="M237.169 365.657c-.033.095.228.213.605.187.392-.012.921-.171 1.411-.614 0 0 .018-.023.029-.029a2.26 2.26 0 0 0 .566-.893c.154-.422.139-.806.068-.994-.041-.111-.084-.154-.145-.146-.029 0-.052.012-.078.032-.091.095-.2.359-.37.659a3.612 3.612 0 0 1-.518.696c-.021.032-.047.052-.076.08-.342.348-.741.552-1.044.701-.267.131-.45.214-.448.321z" class="colordc6478 svgShape"></path><path fill="#5676ef" d="M243.785 471.918s-1.868.183-4.73.254c-8.207.218-25.73-.4-30.025-8.456 0 0 1.439-26.272-3.908-41.995-.017-.048-.049-.099-.052-.144a17.783 17.783 0 0 0-.567-1.495c-.195-.515-.386-.984-.567-1.437-.052-.144-.132-.295-.188-.425-12.675-34.427 5.355-34.729 10.25-34.228l.11.027c.302.016.611.063.921.109.086.007.141.02.141.02l.014.003c.828-.045 6.078 1.083 6.935 1.22.086.007.168.027.265.05 4.395.815 7.843 2.814 12.167 4.035 1.159.328 2.302.725 3.362 1.219.041.01.079.034.107.041l-.003.014s.041.01.051.027c.334.243.675.457.979.707 2.848 2.304 10.502 10.585 9.102 32.047a85.452 85.452 0 0 1-.295 3.224c-.04.34-.066.684-.119 1.021-.607 5.627-1.847 12.047-3.846 19.36 0 0-.125.568-.295 1.561-.78 4.186-2.529 15.835.191 23.241z" class="coloref5656 svgShape"></path><path fill="#9ccdff" d="M221.138 385.263c1.916 3.032 3.587 5.511 5.049 7.533 10.252 14.093 10.088 5.222 9.368-.079-.177-1.337-.397-2.45-.483-2.902a.766.766 0 0 1-.036-.157c-.015-.04-.021-.067-.021-.067-5.487-7.751-13.434-4.527-13.877-4.328z" class="colorffa49c svgShape"></path><path fill="#3959d1" d="M247.309 412.362c3.122 8.004 4.19 16.749-1.544 23.843-.877 1.085-2.431-.429-1.558-1.509 5.226-6.466 3.82-14.545 1.022-21.717-.508-1.304 1.576-1.909 2.08-.617z" class="colord13939 svgShape"></path><path fill="#9ccdff" d="M284.991 408.44c-8.339 5.805-32.62 25.238-38.999 27.68l-1.511.765c-.37.184-.742.38-1.124.561l-3.448 1.588a8.265 8.265 0 0 1-2.108.656 8.14 8.14 0 0 1-3.058-.151 7.772 7.772 0 0 1-3.398-1.82l-.342-.284a121.12 121.12 0 0 1-8.92-7.805c-2.569-2.453-5.086-5.167-7.518-8.073-.349-.41-.683-.829-1.029-1.251 6.269-2.606 13.015-8.168 16.359-14.063.544.783 1.104 1.556 1.692 2.362.083.12.178.243.272.366.518.739 1.03 1.451 1.583 2.198a653.723 653.723 0 0 0 3.908 5.44c1.088 1.465 2.103 2.825 3.109 4.17l42.181-15.899c.869 2.611 1.654.905 2.351 3.56z" class="colorffa49c svgShape"></path><path fill="#ffffff" d="M234.835 367.852c2.487.616 5.49.49 6.67.121.403-.126.814.212.768.607-.869 7.419-7.009 3.255-7.981.043-.14-.464.057-.891.543-.771z" class="colorffffff svgShape"></path><path fill="#9ccdff" d="M279.548 451.15a83.775 83.775 0 0 1-5.279 4.078c-3.695 2.642-7.74 5.24-12.141 7.577a123.556 123.556 0 0 1-14.034 6.429l-.003.012-3.399 1.49a4.042 4.042 0 0 1-4.026-.485l-2.371-1.793c-.756-.561-1.52-1.138-2.285-1.715 0 0-.012-.004-.021-.019-.769-.753-21.322-25.172-28.068-42.719l2.899-4.498c.62.711 1.324 1.405 1.99 2.142.682.728 1.348 1.466 2.079 2.208.707.736 1.442 1.465 2.182 2.223.366.371.744.746 1.119 1.133.382.362.76.737 1.163 1.118.769.753 1.563 1.512 2.357 2.272l2.488 2.282c.407.369.835.758 1.247 1.155.432.376.876.756 1.311 1.119.859.765 1.744 1.536 2.629 2.308.92.741 1.836 1.495 2.753 2.249 3.735 3.008 7.647 6.052 11.8 8.908.08.049.148.095.212.153a338.941 338.941 0 0 0 6.802-4.483c3.591-2.416 6.901-4.885 10.079-7.216.419-.298.83-.613 1.233-.903 1.137-.849 2.243-1.68 3.321-2.506a65.652 65.652 0 0 0 13.963 17.481z" class="colorffa49c svgShape"></path><path fill="#4c69d8" d="M292.718 438.5a529.047 529.047 0 0 1-16.1 15.283c-1.153 1.05.531 2.783 1.679 1.737a531.466 531.466 0 0 0 16.1-15.283c1.107-1.095-.573-2.832-1.679-1.737zM269.114 426.403a72.123 72.123 0 0 1-2.816 3.424l.815-5.167c.242-1.533-2.169-1.697-2.41-.168l-1.212 7.683c-.038.244.007.44.083.614a73.136 73.136 0 0 1-3.885 3.745c-1.163 1.034.399 2.877 1.562 1.843a75.916 75.916 0 0 0 9.846-10.594c.949-1.237-1.04-2.611-1.983-1.38z" class="colord8a34c svgShape"></path><path fill="#9dceff" d="m215.797 427.999-3.736 3.704-8.846-5.534-.022-.011c-.795-.665-1.318-1.035-1.318-1.035-6.71-5.142-1.176-14.085-.719-14.793.022-.033.033-.044.033-.044.512-.25 1.133-.174 1.231-.163 1.351 1.296 3.312 3.148 5.174 4.946 1.874 1.798 3.649 3.53 4.63 4.608.37-4.336.621-5.436 2.266-6.416.294-.185.697.011.741.37.49 3.823 1.307 10.545.566 14.368z" class="colorffa59d svgShape"></path><path fill="#9ccdff" d="M295.861 413.299a11.796 11.796 0 0 0 .729 9.07 11.796 11.796 0 0 0 7.028 5.78c.472-1.689 1.046-3.702 1.163-5.452.118-1.75-.147-3.573-1.062-5.069-1.618-2.644-4.83-3.672-7.858-4.329zM273.339 408.791c2.468-3.478 7.015-5.347 11.216-4.611 4.2.737 7.84 4.042 8.977 8.152-3.352-.13-6.327 1.1-9.475 2.258-3.148 1.159-6.529 2.198-9.812 1.509-.685-2.3-.221-5.008-.906-7.308z" class="colorffa49c svgShape"></path><path fill="#021b79" d="M263.228 529.898c.457 13.617-7.31 24.815-15.948 34.598-10.284 11.634-22.038 21.831-33.204 32.583-10.273 9.891-18.835 21.94-29.849 30.97-3.366 2.756-5.893 4.87-9.249 1.296-.773-.828-1.481-1.645-2.081-2.462l-2.255-3.05c32.005-61.777 59.119-78.597 59.784-79.011h.011c1.819-4.51-.763-8.835-2.68-13.562a309.001 309.001 0 0 0-5.381-12.506c-2.996-6.547-8.628-17.212-11.743-23.704-4.989-10.425-4.532-20.339-.98-30.35 4.031 5.578 14.957 7.125 23.28 7.44 2.288.087 4.39.076 6.122.033l.937-.033h.262c.861-.044 1.601-.087 2.179-.12.109-.011.218-.011.327-.022.882 2.854 1.808 5.687 2.832 8.486 5.348 14.685 17.091 33.378 17.636 49.414z" class="color39373b svgShape"></path></svg>