<svg xmlns="http://www.w3.org/2000/svg" viewBox="0 0 2800 1900" id="Malelawyerholdingbookinhishand"><g style="isolation:isolate" fill="#000000" class="color000000 svgShape"><g data-name="Layer 1" fill="#000000" class="color000000 svgShape"><ellipse cx="1400" cy="1755.322" opacity=".15" rx="431.614" ry="89.237" fill="#000000" class="color000000 svgShape"></ellipse><path d="M1299.586 1720.787c-6.878 4.21 2.105 21.122-19.58 36.982-21.649 15.86-84.037 2.668-86.668-6.878a2.822 2.822 0 0 1 .264-1.841c3.231-7.705 29.277-27.85 51.187-43.86 16.726-12.177 31.007-21.949 31.007-21.949s36.456-31.156 49.159-1.052c12.666 30.142-18.529 34.351-25.369 38.598Z" fill="#000000" class="color000000 svgShape"></path><path fill="#2c2d33" d="M1193.602 1749.05c3.231-7.705 29.277-27.85 51.187-43.86 13.907.113 30.368 1.842 35.742 6.615 9.246 8.193-14.282 54.608-86.93 37.245Z" class="color33312c svgShape"></path><path d="M1461.168 1720.787c6.878 4.21-2.105 21.122 19.58 36.982 21.648 15.86 84.037 2.668 86.668-6.878a2.822 2.822 0 0 0-.264-1.841c-3.231-7.705-29.277-27.85-51.188-43.86-16.725-12.177-31.006-21.949-31.006-21.949s-36.456-31.156-49.159-1.052c-12.666 30.142 18.529 34.351 25.369 38.598Z" fill="#000000" class="color000000 svgShape"></path><path fill="#2c2d33" d="M1567.152 1749.05c-3.231-7.705-29.277-27.85-51.188-43.86-13.906.113-30.367 1.842-35.741 6.615-9.246 8.193 14.282 54.608 86.93 37.245Z" class="color33312c svgShape"></path><path fill="#202228" d="M1208.14 1328.099s10.571 255.8 67.65 355.16c0 0 19.027 11.627 52.852 4.228 0 0-22.198-267.427-16.913-297.024s21.14-19.026 21.14-19.026 68.707 269.541 104.646 313.936c0 0 15.855 10.57 52.851 2.114 0 0-15.855-294.91-12.684-343.533s-146.926-67.65-157.497-67.65-112.044 51.795-112.044 51.795Z" class="color262028 svgShape"></path><path d="M1490.358 1687.488a124.959 124.959 0 0 1-23.978 3.232l-40.478-218.32c-30.592-.564-52.84-3.157-67.16-5.487-15.184-53.519-25.858-95.462-25.858-95.462s-15.859-10.598-21.159 19.018c-5.299 29.578 16.913 297.02 16.913 297.02a99.603 99.603 0 0 1-20.483 2.442c-30.743-204.828-23.715-218.245-47.167-222.83-16.424-3.232-33.298-11.012-42.544-15.71-8.043-68.627-10.298-123.31-10.298-123.31s101.474-51.79 112.036-51.79 160.667 19.055 157.511 67.65c-3.195 48.632 12.665 343.547 12.665 343.547Z" style="mix-blend-mode:soft-light" opacity=".26" fill="#000000" class="color000000 svgShape"></path><path fill="#021b79" d="m1303.344 568.036-78.924 33.825s-41.342 7.517-56.375 26.308-93.958 255.566-90.2 308.182 24.593 102.828 84.491 107.76l-23.959 334.725s4.228 18.322 25.369 26.778 15.503 8.456 54.965 25.369 66.24 11.275 83.153 12.684 19.73-12.684 19.73-12.684 16.913 12.684 23.96 15.503 85.971-4.228 111.34-14.094 53.556-4.228 81.743-18.322 35.234-23.959 35.234-23.959 2.819-157.849-1.41-219.861-5.637-147.983-5.637-147.983 49.328-73.287 33.12-227.613-39.462-172.647-64.83-180.399-90.2-28.892-93.723-28.187-138.047-18.032-138.047-18.032Z" class="color3a313d svgShape"></path><path d="M1566.84 1022.266s49.309-73.287 33.11-227.603-39.462-172.657-64.83-180.4-90.2-28.9-93.733-28.187-138.043-18.04-138.043-18.04l-78.924 33.825s-24.806 4.51-42.958 15.297c2.18 36.38.865 115.23-45.212 161.306-14.132 14.132-25.031 25.557-33.375 34.802-5.711 19.995-10.86 39.425-14.995 56.976a154.136 154.136 0 0 0 28.3 28.714c23.49 18.078 44.687 110.382 21.874 140.035a90.226 90.226 0 0 0 20.746 4.773c5.562-55.66 45.437-440.324 76.82-407.665l-73.476 410.747-23.753 331.972s4.21 18.34 25.369 26.797a168.95 168.95 0 0 1 16.537 7.441c16.161-132.932 55.924-470.579 58.066-488.694l-31.87 501.285a813.729 813.729 0 0 0 12.214 5.336 157.511 157.511 0 0 0 20.784 7.291l13.04-310.324 20.784 315.398c7.442.3 13.981.075 19.694.038l11.688-471.857s42.28 249.44 80.315 367.827c14.883 46.264 21.347 79.6 23.753 103.052 19.28-2.593 37.996-6.088 48.144-10.034a96.429 96.429 0 0 1 18.755-4.924c8.38-59.306 16.837-153.752 3.795-241.697 0 0 39.425 125.941 19.806 238.766 12.93-1.579 26.159-3.871 39.387-10.448 28.187-14.094 35.216-23.978 35.216-23.978s2.819-157.85-1.391-219.862c-4.247-62.012-5.638-147.965-5.638-147.965Zm-8.457-21.121s-14.094-66.974-26.796-76.106c0 0 21.159 76.106 7.065 102.865 0 0-19.054-57.089-33.148-64.831 0 0-9.133 89.485-38.034 121.92 0 0-11.275-80.353-40.176-132.48 0 0 102.188-31.721 97.941-35.93-4.21-4.247-72.573-60.622-72.573-60.622s81.743-171.943 98.656-171.943 5.637 208.587 5.637 208.587l-29.578-1.391s26.76 31.006 31.006 109.93Z" style="mix-blend-mode:soft-light" opacity=".26" fill="#000000" class="color000000 svgShape"></path><path fill="#ffffff" d="m1300.454 636.805-71.173 133.89 63.422 46.509 56.374-198.016h-37.348l-11.275 17.617z" class="colorffffff svgShape"></path><path fill="#0575e6" d="m1349.083 619.187-56.375 198.026-63.44-46.528 4.171-7.818 41.305 25.632 46.49-134.773-33.825 7.592 13.041-24.504 11.275-17.627h37.358z" class="colorcec6ba svgShape"></path><path fill="#0575e6" d="m1439.282 808.042-32.133 5.262-45.4 7.441-27.662-177.054-.526-3.345-2.818-14.093 18.34-7.066 23.263 7.066 66.936 181.789z" class="colorcec6ba svgShape"></path><path fill="#202228" d="M1566.824 1022.267c-7.92 11.982-16.119 23.762-24.206 35.622-8.05 11.889-16.454 23.517-24.663 35.288-8.291 11.71-16.43 23.534-24.853 35.149l-25.17 34.915-3.051 4.233-2.903-4.355c-11.239-16.86-21.745-34.026-31.763-51.55q-15.085-26.225-28.382-53.439c-8.654-18.23-16.794-36.713-23.891-55.61-1.862-4.687-3.357-9.522-4.974-14.298l-2.387-7.177-2.068-7.283c-1.295-4.877-2.937-9.644-3.942-14.594l-3.162-14.769a484.572 484.572 0 0 0 20.304 56.62c7.764 18.473 16.658 36.446 25.85 54.238 9.146 17.824 19.003 35.278 29.01 52.635 10.145 17.26 20.518 34.477 31.444 51.166l-5.953-.121 25.743-34.496c8.548-11.522 17.38-22.836 26.06-34.262 8.762-11.366 17.329-22.875 26.25-34.124 8.884-11.277 17.658-22.634 26.707-33.788Z" class="color262028 svgShape"></path><path fill="#202228" d="M1407.918 922.202a294.455 294.455 0 0 1 31.49 54.333 352.748 352.748 0 0 1 20.736 59.516c2.711 10.181 4.455 20.582 6.326 30.942.747 5.212 1.21 10.467 1.826 15.693l.857 7.846.264 7.898c1.492 21.023-.932 42.116-4.42 62.66.06-5.247.182-10.464.395-15.66l.27-7.787c0-2.596-.195-5.2-.283-7.794l-.45-15.536-1.362-15.465-.691-7.717-1.12-7.672c-.78-5.108-1.405-10.234-2.31-15.315-2.05-10.126-3.806-20.303-6.588-30.263a482.24 482.24 0 0 0-18.833-59.075l-5.874-14.398c-2.107-4.735-4.115-9.53-6.312-14.235-4.202-9.52-8.96-18.766-13.92-27.971ZM1162.336 1044.112c1.84-27.43 4.881-54.499 7.586-81.619l4.02-40.662 3.545-40.853a282.24 282.24 0 0 1 2.313 41.157c-.172 13.744-1.097 27.457-2.405 41.12-1.493 13.643-3.304 27.247-5.785 40.741a370.937 370.937 0 0 1-9.274 40.116ZM1224.42 601.861c-2.635 6.01-3.997 12.45-5.603 18.754-1.473 6.358-2.851 12.717-4.058 19.117-2.409 12.792-4.532 25.625-6.27 38.527-.836 6.456-1.79 12.9-2.436 19.387l-1.168 9.712a346.546 346.546 0 0 1-1.022 9.74c-1.418 12.994-2.508 26.033-4.178 39.15a291.871 291.871 0 0 1-1.676-39.52 353.68 353.68 0 0 1 3.038-39.493 300.381 300.381 0 0 1 8.027-38.856c1.72-6.392 3.913-12.667 6.24-18.865 2.605-6.075 4.986-12.386 9.106-17.653ZM1472.397 835.526c3.067-10.928 6.813-21.559 10.799-32.086 3.943-10.545 8.288-20.915 12.712-31.251 4.552-10.28 9.192-20.522 14.232-30.59 4.997-10.085 10.238-20.064 16.165-29.745-3.058 10.93-6.8 21.564-10.788 32.09-3.945 10.544-8.29 20.914-12.723 31.247-4.56 10.276-9.2 20.518-14.242 30.584-4.999 10.085-10.237 20.066-16.155 29.75ZM1501.994 922.202c8.86 7.384 15.714 16.988 21.363 27.066a148.75 148.75 0 0 1 13.006 32.205c2.714 11.27 4.79 22.727 5.067 34.29.487 5.75-.085 11.541-.194 17.269-.486 5.732-1.29 11.435-2.247 17.07-.71-5.733-.897-11.397-1.444-17.031l-.924-8.422c-.26-2.803-.523-5.597-1.033-8.366-.444-2.775-.86-5.545-1.21-8.32-.42-2.765-1.066-5.493-1.586-8.235-.868-5.523-2.421-10.889-3.686-16.314a236.424 236.424 0 0 0-10.983-31.549 178.554 178.554 0 0 0-16.13-29.663ZM1525.248 926.43c7.213 4.556 12.918 11.228 17.628 18.34a97.85 97.85 0 0 1 10.95 23.19 110.337 110.337 0 0 1 4.619 25.131 121.734 121.734 0 0 1 .107 12.714c-.34 4.228-.848 8.435-1.593 12.586-.924-4.174-1.405-8.3-2.092-12.388-.84-4.07-1.338-8.15-2.238-12.148-.933-3.994-1.544-8.019-2.715-11.922-.85-3.976-2.098-7.83-3.251-11.709a177.766 177.766 0 0 0-8.867-22.567 134.04 134.04 0 0 0-12.548-21.227Z" class="color262028 svgShape"></path><path fill="#74abe2" d="M1418.489 942.285s-84.562 6.342-90.904 6.342-38.053-1.057-38.053-1.057l-31.359-27.13 121.206-24.664 19.026 12.684s19.027 22.198 20.084 33.825Z" class="colore2a374 svgShape"></path><path fill="#202228" d="M1321.595 1430.983c-1.924-39.848-1.788-79.72-2.019-119.57-.193-39.856.254-79.703.717-119.55.644-39.844 1.32-79.687 2.593-119.52l1.943-59.75c.925-19.913 1.595-39.83 2.755-59.738.544 19.935.606 39.862.929 59.793l.154 59.78c.09 39.853-.387 79.697-.863 119.54-.651 39.842-1.292 79.683-2.473 119.516l-1.733 59.751c-.737 19.915-1.553 39.83-2.003 59.748ZM1330.756 846.096c-1.203-14.572-1.664-29.126-1.864-43.673-.247-14.549-.055-29.087.223-43.623.418-14.532.93-29.062 1.88-43.582.903-14.52 2.072-29.035 3.989-43.531 1.212 14.572 1.677 29.126 1.875 43.673.245 14.549.052 29.087-.234 43.622-.427 14.533-.94 29.063-1.892 43.582-.905 14.521-2.07 29.036-3.977 43.532ZM1486.138 1189.629a448.746 448.746 0 0 1 7.338 57.44c.77 9.638.932 19.308 1.224 28.978-.002 9.677-.062 19.356-.547 29.036-1.073 19.333-2.915 38.725-7.322 57.694-4.246 18.912-10.454 37.705-20.776 54.112a451.282 451.282 0 0 1 5.157-13.473c1.637-4.486 2.657-9.21 4.007-13.77 1.498-4.518 2.224-9.277 3.24-13.928l1.495-6.982c.469-2.333.738-4.715 1.117-7.067 3.157-18.796 4.65-37.873 5.579-56.95 1.076-19.086 1.144-38.247.987-57.423-.29-19.174-.63-38.393-1.499-57.667ZM1532.647 1204.427c1.335 3.923 1.658 8.083 2.116 12.151.476 4.094.739 8.189 1.069 12.292q.682 12.306.642 24.63c-.018 16.429-1.015 32.843-2.637 49.21a357.935 357.935 0 0 1-8.501 48.66c-4.004 15.922-9.557 31.958-19.114 45.436 6.966-14.88 10.368-30.804 13.387-46.705q4.242-23.93 6.758-48.19c1.75-16.157 3.056-32.375 4.268-48.623l1.533-24.406c.465-8.148 1.052-16.305.48-24.455Z" class="color262028 svgShape"></path><path fill="#dadfe5" d="M1410.381 679.095c-21.836-33.825-57.089-58.48-57.089-58.48l-9.847-1.428-58.48 35.93c-.676-2.857-1.277-5.6-1.765-8.306-10.035-52.542 7.78-79.977 20.182-92.154a47.177 47.177 0 0 1 10.448-8.043s57.089-52.166 102.902-2.105a69.813 69.813 0 0 1 10.486 14.996 75.507 75.507 0 0 1 7.968 28.563c3.91 44.461-24.805 91.027-24.805 91.027Z" class="colore5e1da svgShape"></path><path fill="#74abe2" d="m1316.662 495.164-2.819 51.442s0 33.12 29.597 72.582l9.866 1.41s67.65-31.007 68.354-69.764l-2.114-56.375ZM1148.947 857.723s-36.995 8.456-51.794-3.17-25.368-107.817-15.855-113.103 42.28-10.57 63.421-1.057 39.11 35.94 39.11 35.94-30.125 5.813-45.452-7.4c0 0-17.97-8.985-50.737 5.285 0 0 12.684 9.513 14.27 11.628s47.037 71.877 47.037 71.877Z" class="colore2a374 svgShape"></path><path d="M1418.489 942.285s-84.562 6.342-90.904 6.342-38.053-1.057-38.053-1.057l-31.359-27.13 121.206-24.664 19.026 12.684s19.027 22.198 20.084 33.825Z" style="mix-blend-mode:soft-light" opacity=".26" fill="#000000" class="color000000 svgShape"></path><path d="M1418.489 942.285s-84.562 6.342-90.904 6.342-38.053-1.057-38.053-1.057l-31.359-27.13 121.206-24.664 19.026 12.684s19.027 22.198 20.084 33.825ZM1087.654 774.217s12.666 9.51 14.244 11.614c1.58 2.142 47.054 71.896 47.054 71.896s-37.018 8.456-51.788-3.157c-8.72-6.877-15.973-43.108-18.492-72.76 1.316-6.09 1.128-14.057 3.157-18.68 3.683-8.456 21.122-9.508 54.42-5.299 13.793 1.767 21.048-1.841 24.843-6.652a142.76 142.76 0 0 1 22.738 25.143s-30.142 5.825-45.439-7.404c0 0-18.001-8.982-50.737 5.3Z" style="mix-blend-mode:soft-light" opacity=".26" fill="#000000" class="color000000 svgShape"></path><path fill="#425fce" d="m1086.583 818.26-14.446 2.82-1.41 6.694 187.446 92.666s15.503 19.026 41.224 2.819l239.24-4.228-1.057-5.638-16.912-4.933-285.397-42.985Z" class="colorce4242 svgShape"></path><path fill="#ffffff" d="m1302.555 858.78-23.227 13.755-191.674-98.317.038-.038c32.698-14.244 50.7-5.262 50.7-5.262 15.296 13.23 45.438 7.404 45.438 7.404a137.04 137.04 0 0 0-8.795-11.237c9.96.714 20.972 1.841 33.11 3.495 0 0 63.065 21.836 94.41 90.2Z" class="colorffffff svgShape"></path><path fill="#dadfe5" d="m1087.64 774.218 2.114 7.047-5.637 2.114 2.818 6.342-8.103 5.99 8.103 4.58-10.57 6.343 5.638 4.932-7.047 2.114 8.808 8.457 177.58 87.733 14.094-32.063 7.047-.705 10.218 33.472 227.965-.704-5.99-8.457 7.751-4.58-5.285-9.513 4.933-4.58-5.637-6.343 6.342-5.99-7.4-6.694 6.695-8.104s-109.93-62.012-242.763 16.912c0 0-125.434-121.205-191.674-98.303Z" class="colore5e1da svgShape"></path><path d="m1522.417 896.851-7.743 4.548 5.976 8.456-227.942.714-10.223-33.449-7.065.677-14.093 32.058-177.58-87.719-8.796-8.456 4.06-1.203c57.576 12.027 156.608 74.828 156.608 74.828l14.282-14.244c-34.576-25.256-145.109-68.213-170.327-77.872l7.366-5.45c48.37 12.14 174.048 81.744 174.048 81.744-62.576-68.815-141.087-87.907-172.056-92.906l-1.278-4.36c66.222-22.888 191.674 98.318 191.674 98.318 132.82-78.925 242.75-16.912 242.75-16.912l-6.69 8.08 7.405 6.69-6.352 6.013 5.637 6.352-4.923 4.547Z" style="mix-blend-mode:soft-light" opacity=".26" fill="#000000" class="color000000 svgShape"></path><path fill="#ffffff" d="M1327.06 619.375s-21.273 3.195-43.86 27.436c-10.035-52.542 7.78-79.977 20.182-92.154.113 17.25 3.796 45.175 23.678 64.718ZM1435.186 588.068c-9.997 33.975-31.495 66.71-31.495 66.71-9.509-23.264-31.72-34.35-31.72-34.35 39.838-15.936 51.752-43.71 55.247-60.923a75.507 75.507 0 0 1 7.968 28.563ZM1407.149 813.304l-45.4 7.441-27.662-177.054 22.024 4.397 51.038 165.216zM1293.231 880.45s127.207-84.759 222.157-16.747c0 0-83.158-36.105-185.69 13.575 0 0 118.742-38.211 186.743-.872 0 0-118.036-9.698-206.826 22.541 0 0 4.757-46.509 125.257-53.908 0 0-69.763-1.586-141.64 35.41ZM1313.315 902.647l203.84-15.342 5.262 9.546-209.102 5.796z" class="colorffffff svgShape"></path><path fill="#74abe2" d="M1209.15 474.543c-14.577 11.187-33.42 8.362-51.275-2.2-35.006-20.625-66.21-70.806-54.092-102.844 4.775-12.55 12.171-18.503 20.566-20.42 23.927-5.457 55.735 21.926 55.735 21.926s72.2 70.417 29.066 103.538Z" class="colore2a374 svgShape"></path><path d="M1209.15 474.543c-14.577 11.187-33.42 8.362-51.275-2.2 16.767.128 24.155-7.126 12.394-18.354-15.412-14.698-54.823-41.704-54.7-61.164.09-19.484 32.557-1.582 32.557-1.582-2.389-23.214-13.74-35.634-23.777-42.164 23.927-5.457 55.735 21.926 55.735 21.926s72.2 70.417 29.066 103.538Z" style="mix-blend-mode:soft-light" opacity=".26" fill="#000000" class="color000000 svgShape"></path><path fill="#556bbf" d="m1191.859 433.87-17.361-17.125a212.7 212.7 0 0 0-17.2-15.402 90.085 90.085 0 0 0-18.84-11.752 70.476 70.476 0 0 0-10.673-3.666 93.49 93.49 0 0 0-11.977-1.9 34.784 34.784 0 0 1 12.205-4.211 42.843 42.843 0 0 1 13.274.401 55.89 55.89 0 0 1 23.718 11.349 77.57 77.57 0 0 1 17.087 19.051c4.504 7.149 8.136 14.86 9.767 23.255Z" class="colorbf7f55 svgShape"></path><path fill="#74abe2" d="M1516.825 471.155c16.55 7.983 34.423 1.379 49.751-12.6 30.07-27.324 50.396-82.81 32.006-111.707-7.231-11.314-15.685-15.635-24.294-15.802-24.537-.468-50.1 32.82-50.1 32.82s-56.339 83.65-7.363 107.289Z" class="colore2a374 svgShape"></path><path d="M1516.825 471.155c16.55 7.983 34.423 1.379 49.751-12.6-16.388 3.542-25.099-2.055-15.872-15.444 12.094-17.53 45.177-51.998 41.092-71.024-4.059-19.058-32.197 5.083-32.197 5.083-2.39-23.214 6.193-37.686 14.689-46.124-24.537-.468-50.1 32.82-50.1 32.82s-56.339 83.65-7.363 107.289Z" style="mix-blend-mode:soft-light" opacity=".26" fill="#000000" class="color000000 svgShape"></path><path fill="#556bbf" d="M1525.468 427.813c-.114-8.552 1.87-16.841 4.824-24.757a77.567 77.567 0 0 1 12.847-22.133 55.888 55.888 0 0 1 20.91-15.943 42.84 42.84 0 0 1 12.913-3.097 34.784 34.784 0 0 1 12.807 1.637 93.515 93.515 0 0 0-11.339 4.3 70.487 70.487 0 0 0-9.702 5.764 90.088 90.088 0 0 0-16.05 15.343 212.67 212.67 0 0 0-13.702 18.583Z" class="colorbf7f55 svgShape"></path><path fill="#74abe2" d="M1533.033 465.567c-27.18 60.272-99.904 118.373-168.443 121.224-.863.052-1.726.052-2.59.052-.915 0-1.778 0-2.642-.052-84.182-3.479-174.59-90.251-179.378-162.086a80.609 80.609 0 0 1 1.23-21.085c14.885-75.968 8.345-118.242 8.345-118.242C1200.725 141.603 1341.15 149.713 1362 151.7c16.48-1.57 106.025-6.775 149.398 60.01 1.02 1.597 2.04 3.218 3.008 4.892 10.438 17.763 17.71 40.287 19.908 68.775 0 0-1.413 9.182-1.413 26.683 0 18.73 1.622 47.01 8.372 83.763.444 2.564.941 5.154 1.465 7.796 3.793 19.385-.157 40.81-9.706 61.947Z" class="colore2a374 svgShape"></path><circle cx="1287.746" cy="382.765" r="24.701" transform="rotate(-45 1287.746 382.765)" style="mix-blend-mode:soft-light" opacity=".45" fill="#000000" class="color000000 svgShape"></circle><circle cx="1287.684" cy="389.021" r="16.337" fill="#171a23" transform="rotate(-45 1287.684 389.021)" class="color1b1723 svgShape"></circle><path fill="#ffffff" d="M1285.656 383.179a5.127 5.127 0 1 1-5.075-5.177 5.127 5.127 0 0 1 5.075 5.177Z" class="colorffffff svgShape"></path><circle cx="1286.46" cy="389.82" r="2.596" fill="#ffffff" transform="rotate(-64.049 1286.46 389.82)" class="colorffffff svgShape"></circle><circle cx="1450.667" cy="377.978" r="24.701" transform="rotate(-45 1450.667 377.978)" style="mix-blend-mode:soft-light" opacity=".45" fill="#000000" class="color000000 svgShape"></circle><circle cx="1450.605" cy="384.234" r="16.337" fill="#171a23" transform="rotate(-44.433 1450.605 384.234)" class="color1b1723 svgShape"></circle><circle cx="1443.45" cy="378.341" r="5.127" fill="#ffffff" transform="rotate(-44.433 1443.45 378.34)" class="colorffffff svgShape"></circle><path fill="#ffffff" d="M1451.976 385.059a2.596 2.596 0 1 1-2.57-2.622 2.596 2.596 0 0 1 2.57 2.622Z" class="colorffffff svgShape"></path><path fill="#4e5056" d="M1319.032 311.563a283.592 283.592 0 0 1-46.196 15.748c-2.61.666-5.054 1.252-7.303 1.756a50.8 50.8 0 0 1-13.558 1.195 23.993 23.993 0 0 1-2.436-.162 46.51 46.51 0 0 1-9.843-1.926 39.05 39.05 0 0 1-3.037-1 37.726 37.726 0 0 1 1.371-9.765 40.432 40.432 0 0 1 16.8-23.629 41.936 41.936 0 0 1 3.706-2.235 52.483 52.483 0 0 1 10.54-4.272 40.338 40.338 0 0 1 12.955-1.728c24.757.771 37 26.018 37 26.018Z" class="color56524e svgShape"></path><path fill="#6b6e77" d="M1249.539 330.1a46.51 46.51 0 0 1-9.843-1.926 74.933 74.933 0 0 1-1.666-10.765 40.432 40.432 0 0 1 16.8-23.629c-4.563 10.287-7.849 23.275-5.291 36.32Z" class="color77716b svgShape"></path><path fill="#6b6e77" d="M1282.03 285.545a152.579 152.579 0 0 0-9.194 41.766c-2.61.666-5.054 1.252-7.303 1.756a50.8 50.8 0 0 1-13.558 1.195c-.863-10.729-.085-25.015 6.56-38.717a52.483 52.483 0 0 1 10.542-4.272 40.338 40.338 0 0 1 12.954-1.728Z" class="color77716b svgShape"></path><path fill="#556bbf" d="M1259.49 453.256c18.045 7.232 35.98 13.79 54.3 18.363 18.308 4.501 36.906 7.24 55.55 7.222 4.657.192 9.31-.23 13.972-.307 4.657-.224 9.272-.972 13.932-1.324 4.631-.589 9.237-1.426 13.875-2.123q6.846-1.577 13.774-3.006c18.297-4.579 36.174-11.272 54.082-18.825a179.784 179.784 0 0 1-51.28 28.132c-4.684 1.534-9.408 3.018-14.177 4.345-4.836 1.042-9.662 2.22-14.54 3.143-4.918.659-9.841 1.416-14.795 1.797-4.965.19-9.932.742-14.906.616a190.318 190.318 0 0 1-29.65-2.765 179.724 179.724 0 0 1-28.633-7.635 190.919 190.919 0 0 1-51.505-27.633Z" class="colorbf7f55 svgShape"></path><path fill="#556bbf" d="M1269.605 443.14c-.882 3.326-1.553 5.55-2.241 7.542a38.491 38.491 0 0 1-2.129 4.99 36.072 36.072 0 0 1-2.982 4.471 67.027 67.027 0 0 1-5.216 5.988c-5.31-4.262-5.55-11.225-2.727-16.431a14.136 14.136 0 0 1 6.27-6.033 11.267 11.267 0 0 1 9.025-.527ZM1467.94 443.14a10.502 10.502 0 0 1 9.207-.124 13.852 13.852 0 0 1 6.634 6.263 14.052 14.052 0 0 1 1.429 8.826 12.015 12.015 0 0 1-4.702 7.72 56.976 56.976 0 0 1-4.985-6.277 38.303 38.303 0 0 1-2.771-4.49 46.468 46.468 0 0 1-2.018-4.684c-.715-1.89-1.498-4.037-2.794-7.234ZM1329.313 537.25c7.136 1.319 13.628 2.477 20.083 3.258a135.676 135.676 0 0 0 18.927 1.167 119.699 119.699 0 0 0 18.801-1.454c6.448-.745 12.77-2.461 20.052-3.585a45.196 45.196 0 0 1-17.274 12.976 52.201 52.201 0 0 1-21.545 4.515 54.84 54.84 0 0 1-21.541-4.206c-6.7-2.83-12.977-6.892-17.503-12.672Z" class="colorbf7f55 svgShape"></path><path fill="#4e5056" d="M1459.022 477.354c-84.67 24.688-177.147 2.967-177.147 2.967 10.303-33.663 38.513-42.432 38.513-42.432 60.679 20.624 94.626 2.11 94.626 2.11a59.17 59.17 0 0 1 6.184 1.708c20.18 6.847 31.545 23.911 35.825 31.662 1.344 2.47 1.999 3.985 1.999 3.985Z" class="color56524e svgShape"></path><path fill="#434344" d="m1455.286 473.91-10.902-10.302 6.41 12.631c-11.544 3.796-28.304 4.16-28.304 4.16l-8.287-9.241-.106 10.723-8.305-7.4.943 9.17c-52.424 6.016-77.487-1.297-77.487-1.297l3.775-11.749 3.296 11.288 4.04-10.433 2.22 12.869 1.444-13.336c55.484-1.992 72.254-20.23 77.175-29.286 20.18 6.847 31.545 23.911 35.825 31.662Z" class="color434344 svgShape"></path><ellipse cx="1368.563" cy="428.809" fill="#8cc0f4" rx="23.825" ry="52.362" transform="rotate(-89.433 1368.563 428.809)" class="colorf4b68c svgShape"></ellipse><path fill="#556bbf" d="M1420.905 428.545a12.423 12.423 0 0 1-1.211 8.009 22.655 22.655 0 0 1-5.22 6.534 46.776 46.776 0 0 1-14.248 8.233 81.133 81.133 0 0 1-15.756 4.182 98.384 98.384 0 0 1-32.34-.308 81.373 81.373 0 0 1-15.673-4.49 46.755 46.755 0 0 1-14.085-8.518 22.695 22.695 0 0 1-5.086-6.643 12.428 12.428 0 0 1-1.044-8.035c.629 5.374 4.39 9.029 8.574 11.527a53.528 53.528 0 0 0 13.71 5.678 127.277 127.277 0 0 0 59.758.6 53.591 53.591 0 0 0 13.823-5.408c4.231-2.418 8.069-6 8.798-11.361Z" class="colorbf7f55 svgShape"></path><path d="M1523.066 469.622c-9.993 21.974-59.46 115.077-178.017 111.624 0 0-97.132-7.352-152.067-127.53q-7.024-15.382-13.002-29.011a80.609 80.609 0 0 1 1.23-21.085c14.885-75.968 8.345-118.242 8.345-118.242C1200.725 141.604 1341.15 149.713 1362 151.7c16.481-1.57 106.026-6.775 149.4 60.01-1.518 1.414-2.538 2.172-2.538 2.172s-21.085-29.43-71.6-13.734-104.98 62.287-158.424 83.372c-53.47 21.085-66.707 121.643-35.813 198.657 30.895 77.015 91.22 74.059 104.954 66.21s39.736-4.42 39.736-4.42 2.46 11.772 22.576 13.734c19.49 1.91 90.147-39.502 112.775-88.08Z" style="mix-blend-mode:soft-light" opacity=".26" fill="#000000" class="color000000 svgShape"></path><path d="M1524.924 465.357c-.131.314-.366.89-.707 1.675.236-.55.471-1.1.707-1.675Z" style="mix-blend-mode:soft-light" opacity=".45" fill="#000000" class="color000000 svgShape"></path><path fill="#8cc0f4" d="M1532.902 312.061c-78.008-25.35-184.635-22.89-149.608-56.976 24.408-23.727 90.435-34.165 131.113-38.482 10.438 17.763 17.71 40.287 19.908 68.775 0 0-1.413 9.182-1.413 26.683ZM1533.033 465.567c-26.369-17.109-66.681-38.638-62.417-53.523 4.055-14.205 45.361-16.298 70.658-16.22.444 2.564.941 5.154 1.465 7.796 3.793 19.385-.157 40.81-9.706 61.947Z" class="colorf4b68c svgShape"></path><path fill="#4e5056" d="M1408.647 302.805a297.498 297.498 0 0 0 48.125 17.477c2.724.753 5.274 1.418 7.622 1.993a53.286 53.286 0 0 0 14.195 1.536 25.161 25.161 0 0 0 2.559-.12 48.779 48.779 0 0 0 10.363-1.816 40.912 40.912 0 0 0 3.207-.985 39.578 39.578 0 0 0-1.236-10.27 42.415 42.415 0 0 0-17.129-25.133 43.963 43.963 0 0 0-3.84-2.42 55.052 55.052 0 0 0-10.968-4.7 42.317 42.317 0 0 0-13.55-2.082c-25.983.295-39.348 26.52-39.348 26.52Z" class="color56524e svgShape"></path><path fill="#6b6e77" d="M1481.148 323.69a48.779 48.779 0 0 0 10.363-1.815 78.63 78.63 0 0 0 1.971-11.255 42.415 42.415 0 0 0-17.129-25.132c4.572 10.884 7.748 24.574 4.795 38.203Z" class="color77716b svgShape"></path><path fill="#6b6e77" d="M1447.995 276.285a160.066 160.066 0 0 1 8.777 43.997c2.724.753 5.274 1.418 7.622 1.993a53.286 53.286 0 0 0 14.195 1.536c1.129-11.235.609-26.235-6.077-40.745a55.052 55.052 0 0 0-10.967-4.7 42.317 42.317 0 0 0-13.55-2.08Z" class="color77716b svgShape"></path><path fill="#4e5056" d="M1595.346 270.31a135.005 135.005 0 0 1-8.45 19.097c-18.835 34.897-46.067 47.297-52.032 72.096 0 0-10.725-26.945-8.763-76.753 1.988-49.808-25.218-80.075-46.46-98.23 0 0-6.932-18.6-70.213-2.773-63.307 15.827-116.777 103.619-218.644 104.561 0 0 1.308 3.48 2.956 9.13v.026a165.292 165.292 0 0 1 6.043 32.203c1.36 17.71-.967 37.068-13.786 49.127-12.321-13.498-26.97-22.366-44.132-26.107 0 0-2.59-5.31-6.173-14.178-2.982-7.404-6.697-17.318-10.15-28.672-15.173-49.573-26.186-127.058 43.556-147.515 0 0 25.715-117.3 188.9-106.13 163.159 11.17 165.147 103.33 165.147 103.33s9.26 6.227 21.268 16.35c25.375 21.452 63.019 60.3 50.933 94.438Z" class="color56524e svgShape"></path><path fill="#6b6e77" d="M1486.311 168.75s-38.259-27.468-110.852 3.924-113.795 99.08-221.704 99.08c0 0 75.536-37.277 128.51-86.327s114.776-96.137 197.179-42.183c0 0-38.259-66.707-153.035-27.467s-107.909 90.25-157.94 119.68c0 0 28.45-40.22 40.221-74.555s45.126-105.947 159.902-95.156 144.206 83.384 144.206 83.384-47.088-57.388-119.681-60.821c0 0 81.913 13.243 107.909 73.574 0 0-42.428-32.373-114.53-17.167 0 0 66.461-11.772 99.815 24.034ZM1595.346 270.31a135.005 135.005 0 0 1-8.45 19.097c-31.758-10.124-57.08-49.286-58.415-72.594-1.046-18.207 7.587-32.02 15.932-40.94 25.375 21.451 63.019 60.298 50.933 94.437ZM1199.783 329.666c-17.213 8.215-43.111 9.523-64.091 8.842-2.982-7.403-6.697-17.317-10.15-28.67 28.54.706 58.598-9 68.199-12.374a165.292 165.292 0 0 1 6.042 32.202Z" class="color77716b svgShape"></path></g></g></svg>