<svg xmlns="http://www.w3.org/2000/svg" viewBox="0 0 1364 960" id="MaleLawyer"><path fill="#0575e6" d="M1051.288 510.413c.104 0 .21-.021.312-.064.102-.043 2.537-1.093 6.689-3.271a.792.792 0 0 0-.736-1.401c-4.091 2.145-6.553 3.207-6.577 3.218a.79.79 0 0 0 .312 1.518zM1069.964 499.463a.79.79 0 0 1 .249-1.091 212.13 212.13 0 0 0 12.122-8.21.792.792 0 1 1 .932 1.279 212.705 212.705 0 0 1-12.213 8.272.787.787 0 0 1-1.09-.25zm23.798-17.211a.792.792 0 0 1 .097-1.116 203.71 203.71 0 0 0 10.855-9.81.79.79 0 1 1 1.103 1.135 204.873 204.873 0 0 1-10.94 9.887.788.788 0 0 1-1.115-.096zm21.114-20.39a.793.793 0 0 1-.07-1.118 182.126 182.126 0 0 0 9.229-11.337.791.791 0 1 1 1.268.948 183.35 183.35 0 0 1-9.309 11.437.792.792 0 0 1-1.118.07zm17.663-23.427a.793.793 0 0 1-.254-1.091 164.187 164.187 0 0 0 7.16-12.731.792.792 0 0 1 1.414.713 165.828 165.828 0 0 1-7.229 12.855.791.791 0 0 1-1.091.254zm13.324-26.121a.791.791 0 0 1-.447-1.026 157.191 157.191 0 0 0 4.704-13.821.79.79 0 0 1 .98-.541.79.79 0 0 1 .541.98 158.936 158.936 0 0 1-4.751 13.961.793.793 0 0 1-1.027.447zm8.278-28.121a.79.79 0 0 1-.628-.926c.901-4.732 1.6-9.593 2.079-14.45a.79.79 0 1 1 1.575.154 163.749 163.749 0 0 1-2.099 14.591.791.791 0 0 1-.927.631zm3.031-29.154a.792.792 0 0 1-.781-.802 182.563 182.563 0 0 0-.418-14.609.792.792 0 0 1 .736-.844.8.8 0 0 1 .843.735 185.107 185.107 0 0 1 .422 14.738.792.792 0 0 1-.791.781l-.011.001zm-2.674-29.967a244.255 244.255 0 0 0-2.291-14.446.79.79 0 0 1 .629-.926c.43-.08.844.2.926.629.884 4.634 1.66 9.526 2.307 14.541a.791.791 0 1 1-1.571.202zm-5.538-28.696c-1.311-4.88-2.798-9.56-4.42-13.91a.791.791 0 1 1 1.484-.553c1.639 4.397 3.141 9.125 4.466 14.052a.792.792 0 0 1-1.53.411zm-75.141-23.663a.791.791 0 1 1 .905-1.299c3.894 2.712 8.805 3.228 13.208 1.365a.792.792 0 0 1 .616 1.459 15.428 15.428 0 0 1-6.039 1.248c-3.083-.001-6.087-.959-8.69-2.773zm64.84-3.573c-2.347-4.505-4.938-8.648-7.701-12.315a.79.79 0 1 1 1.264-.952c2.815 3.736 5.454 7.954 7.841 12.535a.792.792 0 0 1-1.404.732zm-40.572-5.066a.791.791 0 0 1-.327-1.07c2.016-3.783 3.467-8.388 4.311-13.687a.79.79 0 1 1 1.562.249c-.872 5.472-2.377 10.244-4.476 14.182a.792.792 0 0 1-1.07.326zm-31.997-4.113a27.804 27.804 0 0 1-.461-5.117c0-.655.022-1.324.065-2.005.165-2.613 1.071-5.163 2.693-7.581a.79.79 0 1 1 1.315.882c-1.464 2.182-2.282 4.469-2.429 6.799a30.111 30.111 0 0 0-.061 1.904c0 1.669.146 3.292.434 4.826a.792.792 0 0 1-1.556.292zm54.98-13.69c-3.842-3.236-7.948-5.798-12.203-7.615a.792.792 0 1 1 .622-1.456c4.399 1.879 8.638 4.523 12.601 7.86a.791.791 0 0 1-1.02 1.211zm-41.236-9.025a.79.79 0 0 1 .445-1.027c3.995-1.58 8.509-2.416 13.053-2.416.549 0 1.103.012 1.66.036a.79.79 0 0 1 .756.826c-.019.437-.442.778-.825.756-4.947-.215-9.789.579-14.064 2.269a.79.79 0 0 1-1.025-.444zm23.071-2.419-.021-.708c-.152-4.453-.595-9.103-1.317-13.823a.792.792 0 0 1 .663-.902.797.797 0 0 1 .902.663c.732 4.78 1.181 9.494 1.336 14.033l.021.696a.793.793 0 0 1-.771.812l-.021.001a.794.794 0 0 1-.792-.772zm-4.339-28.82a138.573 138.573 0 0 0-4.509-13.886.791.791 0 0 1 1.478-.568 140.309 140.309 0 0 1 4.56 14.046.792.792 0 0 1-1.529.408zm-10.461-27.213a135.715 135.715 0 0 0-7.346-12.606.792.792 0 0 1 1.324-.87c2.69 4.091 5.19 8.381 7.431 12.754a.792.792 0 1 1-1.409.722zm-16.018-24.335a134.823 134.823 0 0 0-9.894-10.711.792.792 0 0 1 1.103-1.135 136.393 136.393 0 0 1 10.011 10.838.792.792 0 0 1-1.22 1.008zm-20.878-20.3a146.037 146.037 0 0 0-11.915-8.408.792.792 0 1 1 .848-1.337 147.478 147.478 0 0 1 12.045 8.5.79.79 0 1 1-.978 1.245zm-348.692-15.006c-2.837 0-5.663-.027-8.398-.081a.792.792 0 0 1-.776-.807.8.8 0 0 1 .807-.776c2.726.054 5.541.081 8.368.081 2.09-.001 4.155-.014 6.287-.043h.011a.79.79 0 0 1 .012 1.583c-2.099.029-4.164.043-6.193.043h-.118zm20.183-1.22a.792.792 0 0 1 .757-.825c4.766-.204 9.692-.48 14.639-.819.425-.04.813.298.844.735a.791.791 0 0 1-.735.844c-4.962.341-9.902.617-14.681.822l-.035.001a.79.79 0 0 1-.789-.758zm303.917.603a170.2 170.2 0 0 0-13.28-6.05.792.792 0 1 1 .596-1.467 172.093 172.093 0 0 1 13.404 6.106.79.79 0 0 1 .345 1.065.79.79 0 0 1-1.065.346zm-347.2-.029c-5.021-.293-9.956-.69-14.667-1.181a.792.792 0 0 1-.705-.869.795.795 0 0 1 .87-.705c4.686.489 9.597.884 14.595 1.176a.792.792 0 0 1-.046 1.582c-.015-.002-.032-.002-.047-.003zm72.582-2.533a.794.794 0 0 1 .716-.861c4.751-.435 9.66-.937 14.59-1.491a.791.791 0 1 1 .177 1.573 713.263 713.263 0 0 1-14.623 1.495.791.791 0 0 1-.86-.716zm-101.846-.565a216.13 216.13 0 0 1-14.461-2.811.792.792 0 0 1-.593-.949.793.793 0 0 1 .949-.592 214.91 214.91 0 0 0 14.356 2.789.79.79 0 0 1-.251 1.563zm131.032-2.678a.79.79 0 0 1 .681-.888c4.748-.624 9.636-1.31 14.527-2.038a.792.792 0 0 1 .233 1.565 867.56 867.56 0 0 1-14.554 2.042.788.788 0 0 1-.887-.681zm29.047-4.292a.793.793 0 0 1 .653-.91c4.718-.778 9.583-1.616 14.459-2.493a.792.792 0 0 1 .28 1.558c-4.884.878-9.757 1.718-14.482 2.497a.794.794 0 0 1-.91-.652zm-188.752.228c-4.953-1.623-9.577-3.44-13.745-5.401a.791.791 0 1 1 .674-1.432c4.109 1.934 8.672 3.726 13.564 5.329a.792.792 0 1 1-.493 1.504zm378.12-1.124a209.585 209.585 0 0 0-14.073-3.915.79.79 0 1 1 .371-1.539 210.658 210.658 0 0 1 14.18 3.945.792.792 0 0 1-.478 1.509zm-160.449-4.219a.792.792 0 0 1 .644-.915c4.88-.849 9.763-1.637 14.515-2.341a.792.792 0 0 1 .233 1.566c-4.74.702-9.61 1.488-14.476 2.335a.792.792 0 0 1-.916-.645zm132.068-2.668a260.358 260.358 0 0 0-14.466-2.116.793.793 0 0 1-.694-.879.785.785 0 0 1 .879-.693c4.937.583 9.834 1.299 14.555 2.128a.79.79 0 1 1-.274 1.56zm-103.025-1.665a.792.792 0 0 1 .693-.88c4.915-.59 9.836-1.106 14.627-1.533a.792.792 0 0 1 .14 1.577c-4.775.426-9.68.94-14.58 1.528a.793.793 0 0 1-.88-.692zm73.992-1.792c-4.762-.32-9.681-.538-14.621-.645a.793.793 0 0 1 .018-1.584h.017c4.963.108 9.906.326 14.693.648a.79.79 0 0 1-.052 1.581.505.505 0 0 1-.055 0zm-44.75-.855a.793.793 0 0 1 .746-.835c4.958-.276 9.905-.463 14.703-.554.4-.012.799.34.807.777s-.339.798-.776.806a400.321 400.321 0 0 0-14.69.553.791.791 0 0 1-.79-.747zM595.045 95.654a.791.791 0 0 0 .479-1.422c-3.757-2.852-5.228-4.825-5.243-4.845a.793.793 0 0 0-1.106-.17.79.79 0 0 0-.172 1.104c.063.087 1.594 2.159 5.564 5.171.144.11.312.162.478.162z" class="color3a67b3 svgShape"></path><path fill="#021b79" d="m581.714 85.235-21.023-11.958 13.04-6.657z" class="color2b4c85 svgShape"></path><path fill="#0575e6" d="m560.068 77.667-21.032-25.269 33.611 19.821zM539.036 52.398l53.31 6.975-12.158 5.942z" class="color3a67b3 svgShape"></path><path fill="#324899" d="m539.036 52.398 33.621 19.958 9.057 12.879-1.423-20.074z" class="color325899 svgShape"></path><path fill="#96b7d9" d="M1034.687 409.302c2.026-2.88 1.898-6.94.177-10.006-1.722-3.066-4.819-5.192-8.15-6.321-3.332-1.128-6.903-1.346-10.422-1.305-5.823.068-11.817.896-16.996 3.452a166.715 166.715 0 0 1 10.531-23.363c.373-.683.759-1.359 1.141-2.037l15.391 9.882c3.423 2.198 6.955 4.441 10.953 5.202 3.998.761 8.624-.303 10.968-3.635 2.026-2.88 1.898-6.94.176-10.006s-4.819-5.192-8.15-6.32-6.903-1.346-10.422-1.305c-6.006.07-12.197.947-17.484 3.697a170.09 170.09 0 0 1 16.409-23.25l15.979 9.414c3.505 2.064 7.121 4.17 11.145 4.777 4.024.607 8.606-.633 10.821-4.052 1.914-2.955 1.631-7.008-.208-10.005s-5.015-5.003-8.387-6.003c-3.372-1-6.95-1.08-10.465-.905-5.627.282-11.39 1.277-16.357 3.834a167.422 167.422 0 0 1 14.523-14.61 160.24 160.24 0 0 1 4.647-3.954l16.752 9.14c3.571 1.948 7.254 3.934 11.297 4.408 4.042.475 8.581-.916 10.682-4.405 1.816-3.017 1.399-7.057-.537-9.992-1.936-2.936-5.177-4.836-8.58-5.724-3.403-.888-6.982-.851-10.489-.56-5.011.416-10.109 1.408-14.617 3.548a160.528 160.528 0 0 1 17.21-11.477l18.606.058c4.07.013 8.257.005 12.041-1.502 3.784-1.507 7.117-4.889 7.306-8.955.163-3.515-2.126-6.867-5.227-8.526-3.1-1.658-6.858-1.785-10.276-.947-3.419.839-6.551 2.575-9.499 4.5-5.434 3.547-10.545 8.001-13.454 13.76-.02.01-.04.015-.06.027a161.86 161.86 0 0 0-18.292 12.251c2.807-4.417 4.387-9.646 5.33-14.838.629-3.463 1.013-7.022.458-10.496-.554-3.474-2.131-6.884-4.865-9.095-2.734-2.212-6.714-3.017-9.892-1.502-3.676 1.754-5.499 6.138-5.418 10.207.081 4.069 1.7 7.928 3.293 11.672l7.278 17.102a167.254 167.254 0 0 0-19.368 18.721c1.869-5.183 2.152-10.939 1.757-16.481-.25-3.51-.761-7.051-2.161-10.277-1.399-3.226-3.774-6.137-6.972-7.599-3.198-1.463-7.255-1.256-9.959 1.001-3.127 2.61-3.806 7.308-2.717 11.228 1.089 3.921 3.615 7.256 6.088 10.485l11.294 14.747c-.181.217-.368.429-.549.647a172.533 172.533 0 0 0-15.958 22.75c1.336-6.027.424-12.441-1.265-18.422-.955-3.385-2.173-6.748-4.197-9.623-2.025-2.875-4.94-5.243-8.369-6.028-3.429-.785-7.362.241-9.553 2.997-2.534 3.188-2.248 7.925-.388 11.543 1.86 3.617 5.011 6.371 8.087 9.031l14.502 12.542c-.064.112-.127.226-.19.339l-.181.012.128.082a169.546 169.546 0 0 0-11.398 24.518c-1.025-5.449-3.689-10.601-6.832-15.231-2.013-2.965-4.272-5.825-7.154-7.955-2.882-2.13-6.463-3.485-10.031-3.145-3.567.34-7.04 2.589-8.271 5.955-1.425 3.893.375 8.379 3.338 11.279 2.963 2.9 6.894 4.552 10.725 6.138l16.32 6.757.451.29a161.499 161.499 0 0 0-6.982 28.946c-.151 1.039 1.444 1.473 1.596.42a161.192 161.192 0 0 1 6.819-28.446l14.601 9.375c3.423 2.197 6.955 4.44 10.953 5.202 3.999.762 8.625-.302 10.969-3.633zM374.89 408.081c-2.322-3.594-.318-8.735 3.287-11.022 3.605-2.288 8.21-2.332 12.446-1.692 6.853 1.036 12.867 3.439 19.04 6.226a284.481 284.481 0 0 1-12.215-14.896 291.797 291.797 0 0 1-7.518-10.273c-8.117 5.169-17.802 7.854-27.423 7.572-3.647-.108-7.749-.91-9.721-3.979-2.305-3.586-.3-8.727 3.293-11.019 3.593-2.293 8.175-2.346 12.39-1.715 7.077 1.06 13.253 3.595 19.638 6.502-7.375-10.809-13.993-22.144-19.578-33.967-8.738 3.682-18.569 4.745-27.885 2.967-3.584-.684-7.507-2.127-8.968-5.47-1.706-3.905 1.088-8.664 5-10.357 3.911-1.694 8.443-1.021 12.505.271 6.581 2.093 12.115 5.409 17.747 9.128-5.69-12.556-10.443-26.1-11.122-39.909-.014-.287-.015-.576-.028-.863-9.26 2.486-19.264 2.157-28.331-.967-3.449-1.188-7.127-3.177-8.095-6.694-1.131-4.109 2.314-8.42 6.427-9.538 4.113-1.118 8.502.195 12.338 2.054 6.758 3.274 12.085 7.802 17.585 12.752-.35-15.973 2.243-32.078 1.344-48.013-9.392 2.627-19.583 2.346-28.806-.833-3.449-1.188-7.127-3.177-8.095-6.694-1.131-4.109 2.314-8.419 6.427-9.538s8.502.195 12.338 2.054c6.94 3.363 12.37 8.047 18.029 13.153-.295-3.978-.822-7.945-1.69-11.895-1.757-7.999-5.21-15.544-9.842-22.379-8.52 5.194-18.671 7.676-28.626 6.965-3.639-.26-7.704-1.235-9.546-4.384-2.151-3.679.067-8.732 3.753-10.871 3.686-2.14 8.266-2.001 12.451-1.193 7.675 1.482 14.199 4.673 21.083 8.206-7.704-10.875-18.397-19.853-29.971-25.825-8.247 3.736-17.552 5.127-26.526 3.908-3.615-.491-7.61-1.722-9.248-4.982-1.913-3.809.623-8.71 4.437-10.611 3.815-1.9 8.377-1.471 12.502-.398 6.58 1.711 12.21 4.659 17.938 8.006.247-.003.508.048.78.18 9.964 4.862 18.883 11.758 26.346 19.939a99.451 99.451 0 0 1 4.751 5.609c-2.422-8.468-2.514-17.601-.195-26.101.96-3.52 2.705-7.319 6.151-8.516 4.027-1.398 8.553 1.758 9.937 5.789 1.385 4.031.361 8.497-1.242 12.447-2.992 7.365-7.488 13.222-12.384 19.406 3.003 4.191 5.613 8.656 7.548 13.427 2.931 7.225 4.351 14.711 4.939 22.312 1.608-8.941 5.765-17.42 11.896-24.128 2.461-2.693 5.747-5.278 9.359-4.77 4.22.594 6.807 5.468 6.2 9.687-.607 4.218-3.557 7.725-6.786 10.507-6.189 5.33-13.064 8.518-20.467 11.883.605 12.562-.808 25.383-1.257 37.818-.141 3.914-.171 7.803.008 11.674 1.254-9.785 5.568-19.16 12.214-26.453 2.457-2.696 5.74-5.285 9.353-4.782 4.221.589 6.815 5.46 6.213 9.679-.602 4.219-3.547 7.73-6.772 10.516-6.322 5.46-13.366 8.68-20.958 12.141.237 4.124.735 8.227 1.64 12.317 1.656 7.48 4.16 14.763 7.09 21.833a191.325 191.325 0 0 0 2.433 5.602c.287-8.941 3.082-17.8 8.029-25.258 2.017-3.04 4.865-6.1 8.512-6.154 4.262-.063 7.569 4.355 7.618 8.616.049 4.262-2.324 8.181-5.087 11.427-5.104 5.997-11.145 10.125-17.664 14.415 5.457 11.55 12.014 22.608 19.231 33.149-2.002-9.119-1.324-18.82 1.984-27.553 1.292-3.411 3.392-7.027 6.936-7.888 4.141-1.006 8.346 2.568 9.339 6.713.994 4.145-.452 8.493-2.426 12.271-3.746 7.168-8.894 12.633-14.469 18.431.968 1.39 1.944 2.774 2.932 4.145 5.428 7.527 11.218 14.837 17.394 21.801-1.814-8.911-1.084-18.336 2.139-26.843 1.292-3.412 3.392-7.027 6.936-7.889 4.141-1.006 8.346 2.568 9.339 6.713.993 4.145-.453 8.493-2.427 12.27-3.643 6.972-8.611 12.332-14.008 17.953 7.135 7.854 14.778 15.24 22.977 21.954 1.708 1.399-.579 3.951-2.284 2.555-8.279-6.781-15.983-14.256-23.181-22.19-8.161 5.184-17.912 7.869-27.608 7.566-3.661-.119-7.785-.931-9.773-4.007z" class="colorb4d996 svgShape"></path><path fill="#6291c0" d="m430.004 468.451-1.128 50.503c-4.507-3.722-9.426-7.011-14.167-10.356-4.665-3.289-9.288-6.717-13.332-10.788-4.112-4.138-7.157-8.884-9.741-14.084-2.5-5.03-4.768-10.235-8.279-14.684-2.754-3.502-6.253-6.33-10.015-8.689-7.795-4.904-16.596-7.891-24.514-12.564-3.993-2.343-7.715-5.136-10.732-8.669-3.643-4.256-6.163-9.324-8.498-14.374-2.333-5.04-4.511-10.183-7.483-14.893a49.563 49.563 0 0 0-9.219-10.766c-7.134-6.29-15.845-10.615-24.946-13.23-22.276-6.417-45.67-1.955-67.649 3.501-1.298.325-2.596.65-3.902.987-.936-13.199 18.676-22.35 30.757-23.855 8.263-1.027 16.455 2.282 24.771 2.525 42.145 1.266 70.4-11.426 87.2 38.125 1.876 5.548 3.425 11.441 7.268 15.86 17.552 17.437 64.961 9.12 63.609 45.451z" class="color62c0a6 svgShape"></path><path fill="#5279a1" d="M391.182 569.152c-34.875 10.334-67.734-21.392-43.296-58.288 16.579-18.769-2.542-32.258-20.056-37.797-8.691-2.76-19.451-3.867-23.662-11.96-7.071-18.253 17.514-39.631-20.057-51.029-21.199-6.442-62.38 10.057-67.53-18.291-.022-.133-.047-.275-.06-.409 20.878-5.319 42.718-10.316 64.196-6.192 9.43 1.811 18.643 5.299 26.555 10.801 3.865 2.683 7.399 5.863 10.408 9.493 3.346 4.044 5.841 8.629 8.076 13.365 2.358 5.013 4.473 10.16 7.313 14.936 2.495 4.204 5.594 7.938 9.441 10.976 6.954 5.486 15.336 8.663 23.208 12.561 4 1.992 7.955 4.185 11.458 6.991 4 3.223 7.027 7.219 9.469 11.723 2.665 4.925 4.748 10.155 7.795 14.868 2.934 4.561 6.762 8.452 10.917 11.912 7.485 6.255 16.032 11.152 23.485 17.447 0-.002 1.571 37.268-37.66 48.893z" class="color52a18b svgShape"></path><path fill="#ffffff" d="m428.876 518.954-.035 1.303c-7.453-6.295-16-11.192-23.485-17.447-4.155-3.46-7.983-7.351-10.917-11.912-3.047-4.713-5.13-9.943-7.795-14.868-2.442-4.504-5.468-8.5-9.469-11.723-3.503-2.805-7.458-4.999-11.458-6.991-7.873-3.899-16.254-7.075-23.208-12.561-3.848-3.038-6.946-6.772-9.441-10.976-2.839-4.775-4.955-9.923-7.313-14.936-2.235-4.736-4.73-9.322-8.076-13.365-3.009-3.63-6.542-6.81-10.408-9.493-7.913-5.501-17.125-8.99-26.555-10.801-21.479-4.123-43.318.873-64.196 6.192a11.429 11.429 0 0 1-.12-1.031c1.306-.337 2.604-.662 3.902-.987 21.979-5.456 45.374-9.919 67.649-3.501 9.1 2.615 17.812 6.94 24.946 13.23a49.563 49.563 0 0 1 9.219 10.766c2.972 4.711 5.15 9.853 7.483 14.893 2.335 5.05 4.855 10.118 8.498 14.374 3.017 3.532 6.739 6.325 10.732 8.669 7.918 4.672 16.719 7.659 24.514 12.564 3.763 2.359 7.261 5.187 10.015 8.689 3.511 4.448 5.778 9.654 8.279 14.684 2.584 5.2 5.629 9.946 9.741 14.084 4.043 4.071 8.667 7.499 13.332 10.788 4.741 3.345 9.66 6.634 14.166 10.356z" class="colorffffff svgShape"></path><path fill="#476eff" d="M987.707 423.768h100.175v411.46H987.707z" class="colorffbc47 svgShape"></path><path fill="#94c9ff" d="M987.707 451.618h100.175v17.192H987.707zM987.707 485.034h100.175v7.653H987.707zM987.707 774.63h100.175v5.734H987.707zM987.707 789.899h100.175v17.176H987.707z" class="colorffd894 svgShape"></path><path fill="#9dc4eb" d="m1006.685 423.768 22.517 351.446c1.461 22.804 16.253 40.354 34.013 40.354h24.667v19.661H987.707v-411.46h18.978z" class="colorebcf9d svgShape"></path><path fill="#dce3eb" d="m958.989 186.581-522.511-.779c-21.241-.032-38.48 14.425-38.507 32.291l-.978 655.893c-.027 17.865 17.17 32.374 38.411 32.406l522.511.779c21.24.032 38.481-14.426 38.507-32.291l.978-655.893c.027-17.866-17.171-32.374-38.411-32.406z" class="colordcdceb svgShape"></path><path fill="#ffffff" d="m986.807 218.967-.812 547.684-.012 9.4-.024 8.353-.129 90.463c-.012 11.977-12.507 21.719-27.837 21.719l-113.37-.177-24.789-.035h-2.612l-381.806-.576c-7.777-.012-15.012-2.494-20.366-7.012-4.824-4.071-7.471-9.318-7.471-14.789l.977-655.889c.024-11.977 12.518-21.719 27.848-21.719l522.565.777c15.366.023 27.861 9.812 27.838 21.801z" class="colorffffff svgShape"></path><path fill="#ffffff" d="m985.983 776.051-.024 8.353-.129 90.463c-.012 11.977-12.507 21.719-27.837 21.719l-113.37-.177-24.789-.035c54.614-28.236 132.336-66.908 166.149-120.323z" class="colorffffff svgShape"></path><path fill="#dce3eb" d="m822.171 187.447-.065 43.403c-.012 8.093-6.582 14.644-14.676 14.632l-224.876-.335c-8.092-.012-14.643-6.582-14.631-14.675l.065-43.404-7.515-.011-.067 44.795c-.017 11.475 9.271 20.79 20.746 20.807l227.659.339c11.474.017 20.79-9.27 20.807-20.745l.067-44.795-7.514-.011z" class="colordcdceb svgShape"></path><path fill="#dce3eb" d="M695.145 143.052c-11.352-.017-20.569 9.173-20.586 20.525l-.054 36.028 41.111.061.054-36.028c.017-11.352-9.171-20.569-20.525-20.586zm-.042 28.292a8.621 8.621 0 1 1 .028-17.24 8.621 8.621 0 0 1-.028 17.24z" class="colordcdceb svgShape"></path><path fill="#dce3eb" d="m829.152 199.836-268.181-.4c-5.697-.008-10.308-4.634-10.3-10.331.008-5.697 4.634-10.307 10.331-10.299l268.181.4c5.697.009 10.307 4.633 10.299 10.33-.009 5.697-4.633 10.309-10.33 10.3zM733.507 255.687l-71.753-.107a.814.814 0 0 1-.813-.815l.02-13.402a.814.814 0 0 1 .816-.813l71.753.107c.45.001.814.366.813.816l-.02 13.402a.814.814 0 0 1-.816.812zM909.847 318.263l-443.753-.661c-2.666-.004-4.823-1.887-4.82-4.205.003-2.318 2.167-4.194 4.832-4.19l443.753.661c2.665.004 4.823 1.886 4.82 4.205-.003 2.318-2.167 4.194-4.832 4.19zM781.002 368.03l-316.367-.472c-1.9-.003-3.438-1.885-3.435-4.202.003-2.318 1.547-4.195 3.447-4.192l316.367.471c1.9.003 3.438 1.884 3.435 4.203-.004 2.318-1.547 4.195-3.447 4.192zM645.629 342.07l-179.571-.268c-2.666-.004-4.823-1.887-4.82-4.204.004-2.318 2.167-4.194 4.833-4.19l179.57.268c2.666.004 4.823 1.886 4.82 4.205-.003 2.317-2.167 4.193-4.832 4.189zM729.805 342.195l-53.306-.079c-2.665-.004-4.823-1.886-4.82-4.205.003-2.318 2.167-4.194 4.833-4.19l53.306.079c2.665.004 4.823 1.886 4.82 4.205-.004 2.318-2.167 4.194-4.833 4.19zM911.649 435.954l-261.923-.391c-1.573-.002-2.846-1.884-2.842-4.202.003-2.318 1.282-4.196 2.855-4.193l261.923.391c1.573.002 2.846 1.884 2.842 4.202-.003 2.318-1.282 4.196-2.855 4.193zM835.568 485.8l-186.734-.278c-1.122-.002-2.028-1.883-2.025-4.2.003-2.318.915-4.196 2.037-4.195l186.734.279c1.122.002 2.028 1.882 2.025 4.201-.003 2.317-.915 4.195-2.037 4.193zM755.681 459.923l-105.991-.158c-1.573-.002-2.846-1.884-2.842-4.202.003-2.318 1.281-4.195 2.855-4.193l105.991.158c1.573.002 2.846 1.883 2.842 4.202-.004 2.318-1.282 4.195-2.855 4.193zM805.366 459.997l-31.464-.047c-1.573-.002-2.846-1.883-2.842-4.202.003-2.318 1.282-4.195 2.855-4.193l31.464.047c1.573.002 2.846 1.883 2.842 4.202-.004 2.318-1.282 4.195-2.855 4.193zM910.006 553.637l-396.9-.592c-2.384-.004-4.314-1.886-4.31-4.204.003-2.318 1.939-4.195 4.323-4.191l396.899.592c2.384.004 4.314 1.886 4.31 4.204-.003 2.317-1.938 4.194-4.322 4.191zM794.756 603.424l-282.964-.422c-1.7-.002-3.075-1.884-3.071-4.202.003-2.318 1.384-4.195 3.084-4.193l282.964.422c1.7.003 3.075 1.884 3.071 4.202-.003 2.318-1.384 4.196-3.084 4.193zM673.681 577.485l-160.611-.239c-2.384-.003-4.314-1.886-4.31-4.204.004-2.318 1.939-4.194 4.323-4.191l160.611.239c2.384.004 4.314 1.885 4.31 4.204-.004 2.318-1.939 4.195-4.323 4.191zM748.97 577.597l-47.678-.071c-2.384-.004-4.314-1.886-4.31-4.204.003-2.318 1.939-4.194 4.323-4.191l47.678.071c2.384.004 4.314 1.885 4.31 4.204-.004 2.319-1.939 4.195-4.323 4.191zM909.321 671.321l-443.753-.661c-2.666-.004-4.823-1.887-4.82-4.204.003-2.318 2.167-4.194 4.833-4.19l443.753.661c2.665.004 4.823 1.886 4.82 4.205-.004 2.317-2.168 4.193-4.833 4.189zM780.475 721.089l-316.367-.471c-1.9-.003-3.438-1.885-3.435-4.202.003-2.318 1.547-4.195 3.447-4.193l316.367.472c1.9.003 3.438 1.884 3.435 4.203-.003 2.316-1.546 4.194-3.447 4.191zM645.102 695.128l-179.571-.268c-2.666-.004-4.823-1.886-4.82-4.205.004-2.318 2.167-4.194 4.833-4.19l179.571.268c2.665.004 4.823 1.886 4.82 4.204-.003 2.319-2.167 4.195-4.833 4.191zM729.279 695.254l-53.306-.079c-2.665-.004-4.823-1.887-4.82-4.205.004-2.318 2.167-4.194 4.833-4.19l53.306.079c2.665.004 4.823 1.886 4.82 4.204-.004 2.319-2.167 4.195-4.833 4.191zM911.276 789.013l-247.859-.37c-1.489-.002-2.693-1.884-2.689-4.201.003-2.318 1.213-4.196 2.702-4.194l247.859.37c1.489.002 2.693 1.883 2.69 4.202-.005 2.318-1.214 4.196-2.703 4.193zM839.276 838.865l-176.707-.263c-1.061-.002-1.919-1.882-1.916-4.2.003-2.318.867-4.196 1.928-4.195l176.708.263c1.061.002 1.919 1.882 1.916 4.201-.004 2.318-.867 4.196-1.929 4.194zM763.68 812.994l-100.299-.15c-1.489-.002-2.693-1.883-2.69-4.201.004-2.318 1.213-4.196 2.702-4.193l100.299.149c1.489.002 2.693 1.883 2.689 4.201-.002 2.319-1.212 4.196-2.701 4.194zM810.697 813.064l-29.774-.044c-1.489-.002-2.693-1.883-2.689-4.201.003-2.318 1.213-4.196 2.702-4.193l29.774.044c1.489.002 2.693 1.883 2.689 4.201-.003 2.318-1.213 4.196-2.702 4.193z" class="colordcdceb svgShape"></path><path fill="#43538f" d="M189.686 542.564h11.425v307.622h-11.425z" class="color8f5343 svgShape"></path><path fill="#cccccc" d="M197.292 542.564h3.819v307.622h-3.819z" class="colorcccccc svgShape"></path><path fill="#43538f" d="M207.948 558.577c0 .517-.023 1.057-.112 1.552a12.448 12.448 0 0 1-4.566 8.209 13.779 13.779 0 0 1-2.159 1.417 12.458 12.458 0 0 1-5.713 1.372c-2.069 0-4.003-.495-5.713-1.372a12.836 12.836 0 0 1-2.272-1.507 12.496 12.496 0 0 1-4.565-9.671c0-1.102.135-2.181.427-3.194.9-3.486 3.262-6.365 6.41-7.984a12.455 12.455 0 0 1 5.713-1.372c2.069 0 4.003.495 5.713 1.372 4.07 2.092 6.837 6.32 6.837 11.178zM182.848 583.681c0-6.932 5.619-12.551 12.551-12.551 6.931 0 12.551 5.619 12.551 12.551 0 6.931-5.619 12.551-12.551 12.551-6.931 0-12.551-5.619-12.551-12.551z" class="color8f5343 svgShape"></path><path fill="#cccccc" d="M200.745 572.338a12.517 12.517 0 0 1 4.466 9.593c0 6.931-5.619 12.551-12.551 12.551-1.915 0-3.722-.441-5.345-1.208a12.495 12.495 0 0 0 8.085 2.958c6.931 0 12.551-5.619 12.551-12.551-.001-5.017-2.952-9.334-7.206-11.343zM201.111 547.399a12.45 12.45 0 0 0-2.403-.927c3.635 2.211 6.05 6.198 6.05 10.735 0 .517-.023 1.057-.112 1.552a12.45 12.45 0 0 1-4.565 8.209 13.779 13.779 0 0 1-2.159 1.417 12.453 12.453 0 0 1-5.712 1.372c-1.126 0-2.21-.151-3.241-.426.238.143.472.293.719.424a12.455 12.455 0 0 0 5.713 1.372c2.069 0 4.003-.495 5.713-1.372a13.779 13.779 0 0 0 2.159-1.417 12.456 12.456 0 0 0 4.566-8.209c.089-.495.112-1.035.112-1.552-.003-4.858-2.77-9.086-6.84-11.178z" class="colorcccccc svgShape"></path><path fill="#43538f" d="M202.406 572.891h-14.408a2.352 2.352 0 1 1 0-4.706h14.408c1.3 0 2.353 1.053 2.353 2.353a2.352 2.352 0 0 1-2.353 2.353z" class="color8f5343 svgShape"></path><path fill="#cccccc" d="M201.773 572.891h.633a2.352 2.352 0 1 0 0-4.706h-1.059c.139.3.222.631.222.983 0 1.3-1.053 2.353-2.353 2.353h-13.349a2.348 2.348 0 0 0 2.132 1.37H201.773z" class="colorcccccc svgShape"></path><path fill="#43538f" d="M207.948 796.506c0 .517-.023 1.057-.112 1.552a12.448 12.448 0 0 1-4.566 8.209 13.779 13.779 0 0 1-2.159 1.417 12.458 12.458 0 0 1-5.713 1.372c-2.069 0-4.003-.495-5.713-1.372a12.836 12.836 0 0 1-2.272-1.507 12.496 12.496 0 0 1-4.565-9.671c0-1.102.135-2.181.427-3.193.9-3.486 3.262-6.365 6.41-7.984a12.455 12.455 0 0 1 5.713-1.372c2.069 0 4.003.495 5.713 1.372 4.07 2.091 6.837 6.319 6.837 11.177zM182.848 821.61c0-6.932 5.619-12.551 12.551-12.551 6.931 0 12.551 5.619 12.551 12.551s-5.619 12.551-12.551 12.551c-6.931-.001-12.551-5.619-12.551-12.551z" class="color8f5343 svgShape"></path><path fill="#cccccc" d="M200.745 810.267a12.517 12.517 0 0 1 4.466 9.593c0 6.931-5.619 12.551-12.551 12.551-1.915 0-3.722-.441-5.345-1.208a12.495 12.495 0 0 0 8.085 2.958c6.931 0 12.551-5.619 12.551-12.551-.001-5.017-2.952-9.334-7.206-11.343zM201.111 785.328a12.45 12.45 0 0 0-2.403-.927c3.635 2.211 6.05 6.198 6.05 10.735 0 .517-.023 1.057-.112 1.552a12.45 12.45 0 0 1-4.565 8.209 13.779 13.779 0 0 1-2.159 1.417 12.453 12.453 0 0 1-5.712 1.372c-1.126 0-2.21-.151-3.241-.426.238.143.472.293.719.424a12.455 12.455 0 0 0 5.713 1.372c2.069 0 4.003-.495 5.713-1.372a13.779 13.779 0 0 0 2.159-1.417 12.456 12.456 0 0 0 4.566-8.209c.089-.495.112-1.034.112-1.552-.003-4.858-2.77-9.086-6.84-11.178z" class="colorcccccc svgShape"></path><path fill="#43538f" d="M202.406 810.82h-14.408a2.352 2.352 0 1 1 0-4.706h14.408a2.352 2.352 0 1 1 0 4.706z" class="color8f5343 svgShape"></path><path fill="#cccccc" d="M201.773 810.82h.633a2.352 2.352 0 1 0 0-4.706h-1.059c.139.3.222.631.222.984 0 1.3-1.053 2.353-2.353 2.353h-13.349a2.348 2.348 0 0 0 2.132 1.37H201.773z" class="colorcccccc svgShape"></path><path fill="#43538f" d="M362.274 542.564h11.425v307.622h-11.425z" class="color8f5343 svgShape"></path><path fill="#cccccc" d="M369.881 542.564h3.819v307.622h-3.819z" class="colorcccccc svgShape"></path><path fill="#43538f" d="M380.536 558.577c0 .517-.023 1.057-.113 1.552a12.45 12.45 0 0 1-4.565 8.209 13.779 13.779 0 0 1-2.159 1.417c-1.709.877-3.644 1.372-5.713 1.372s-4.003-.495-5.713-1.372a12.836 12.836 0 0 1-2.272-1.507 12.496 12.496 0 0 1-4.565-9.671c0-1.102.135-2.181.427-3.194.9-3.486 3.262-6.365 6.41-7.984 1.709-.877 3.644-1.372 5.713-1.372s4.003.495 5.713 1.372c4.07 2.092 6.837 6.32 6.837 11.178zM355.437 583.681c0-6.932 5.619-12.551 12.551-12.551 6.931 0 12.551 5.619 12.551 12.551 0 6.931-5.619 12.551-12.551 12.551s-12.551-5.619-12.551-12.551z" class="color8f5343 svgShape"></path><path fill="#cccccc" d="M373.333 572.338a12.517 12.517 0 0 1 4.466 9.593c0 6.931-5.619 12.551-12.551 12.551-1.915 0-3.722-.441-5.345-1.208a12.493 12.493 0 0 0 8.085 2.958c6.931 0 12.551-5.619 12.551-12.551-.001-5.017-2.952-9.334-7.206-11.343zM373.699 547.399a12.45 12.45 0 0 0-2.403-.927c3.635 2.211 6.05 6.198 6.05 10.735 0 .517-.023 1.057-.112 1.552a12.45 12.45 0 0 1-4.565 8.209 13.779 13.779 0 0 1-2.159 1.417 12.453 12.453 0 0 1-5.712 1.372c-1.126 0-2.21-.151-3.241-.426.238.143.472.293.719.424 1.709.877 3.644 1.372 5.713 1.372s4.003-.495 5.713-1.372a13.779 13.779 0 0 0 2.159-1.417 12.45 12.45 0 0 0 4.565-8.209c.09-.495.113-1.035.113-1.552-.003-4.858-2.77-9.086-6.84-11.178z" class="colorcccccc svgShape"></path><path fill="#43538f" d="M374.995 572.891h-14.408a2.352 2.352 0 1 1 0-4.706h14.408a2.352 2.352 0 1 1 0 4.706z" class="color8f5343 svgShape"></path><path fill="#cccccc" d="M374.362 572.891h.633a2.352 2.352 0 1 0 0-4.706h-1.059c.139.3.222.631.222.983 0 1.3-1.053 2.353-2.353 2.353h-13.349a2.348 2.348 0 0 0 2.132 1.37H374.362z" class="colorcccccc svgShape"></path><path fill="#43538f" d="M380.536 796.506c0 .517-.023 1.057-.113 1.552a12.45 12.45 0 0 1-4.565 8.209 13.779 13.779 0 0 1-2.159 1.417c-1.709.877-3.644 1.372-5.713 1.372s-4.003-.495-5.713-1.372a12.836 12.836 0 0 1-2.272-1.507 12.496 12.496 0 0 1-4.565-9.671c0-1.102.135-2.181.427-3.193.9-3.486 3.262-6.365 6.41-7.984 1.709-.877 3.644-1.372 5.713-1.372s4.003.495 5.713 1.372c4.07 2.091 6.837 6.319 6.837 11.177zM355.437 821.61c0-6.932 5.619-12.551 12.551-12.551 6.931 0 12.551 5.619 12.551 12.551s-5.619 12.551-12.551 12.551c-6.932-.001-12.551-5.619-12.551-12.551z" class="color8f5343 svgShape"></path><path fill="#cccccc" d="M373.333 810.267a12.517 12.517 0 0 1 4.466 9.593c0 6.931-5.619 12.551-12.551 12.551-1.915 0-3.722-.441-5.345-1.208a12.493 12.493 0 0 0 8.085 2.958c6.931 0 12.551-5.619 12.551-12.551-.001-5.017-2.952-9.334-7.206-11.343zM373.699 785.328a12.45 12.45 0 0 0-2.403-.927c3.635 2.211 6.05 6.198 6.05 10.735 0 .517-.023 1.057-.112 1.552a12.45 12.45 0 0 1-4.565 8.209 13.779 13.779 0 0 1-2.159 1.417 12.453 12.453 0 0 1-5.712 1.372c-1.126 0-2.21-.151-3.241-.426.238.143.472.293.719.424 1.709.877 3.644 1.372 5.713 1.372s4.003-.495 5.713-1.372a13.779 13.779 0 0 0 2.159-1.417 12.45 12.45 0 0 0 4.565-8.209c.09-.495.113-1.034.113-1.552-.003-4.858-2.77-9.086-6.84-11.178z" class="colorcccccc svgShape"></path><path fill="#43538f" d="M374.995 810.82h-14.408a2.352 2.352 0 1 1 0-4.706h14.408a2.353 2.353 0 0 1 0 4.706z" class="color8f5343 svgShape"></path><path fill="#cccccc" d="M374.362 810.82h.633a2.352 2.352 0 1 0 0-4.706h-1.059c.139.3.222.631.222.984 0 1.3-1.053 2.353-2.353 2.353h-13.349a2.348 2.348 0 0 0 2.132 1.37H374.362zM207.964 558.577c0 .517-.023 1.057-.112 1.552h-10.413c-2.699 0-5.308-.45-7.737-1.305a22.61 22.61 0 0 1-6.41-3.441c.9-3.486 3.262-6.365 6.41-7.984v-4.835h11.425v4.835c4.07 2.092 6.837 6.32 6.837 11.178zM380.538 557.18a23.84 23.84 0 0 1-8.707 1.619h-16.455c.387-6.59 5.903-11.785 12.672-11.785 6.2.001 11.373 4.364 12.49 10.166z" class="colorcccccc svgShape"></path><path fill="#deeeff" d="M348.526 834.083h-128.06s-.607-2.429-1.35-6.455a159.101 159.101 0 0 1-2.383-18.217c-.652-8.951-.562-19.184 1.484-28.518 1.529-7.107 4.228-13.697 8.591-18.824 12.594-14.754 29.934-30.879 40.122-45.79 5.173-7.512 8.501-14.709 8.501-21.276 0-.517 0-1.035-.045-1.552-.585-7.512-5.24-15.788-11.83-24.402-7.444-9.738-17.317-19.882-26.493-29.732-3.598-3.868-7.084-7.669-10.255-11.402-2.384-2.789-4.273-6.027-5.735-9.558-1.462-3.464-2.497-7.197-3.239-11.065-.674-3.598-1.101-7.332-1.304-11.043-1.125-20.309 3.936-40.347 3.936-40.347h128.06s2.384 9.468 3.531 21.973c.742 8.299.944 17.925-.472 27.056-1.349 8.681-4.183 16.89-9.379 22.985-16.597 19.477-41.494 41.337-47.364 59.599-.652 2.024-1.057 4.003-1.214 5.938-.045.517-.045 1.035-.045 1.552 0 2.272.405 4.633 1.147 7.039 2.699 8.884 9.963 18.6 18.645 28.495 2.159 2.474 4.43 4.97 6.725 7.466 4.093 4.431 8.299 8.839 12.347 13.202 3.418 3.688 6.725 7.309 9.76 10.863 2.407 2.834 4.319 6.095 5.78 9.671 3.081 7.399 4.34 16.058 4.61 24.514.585 19.431-4.071 37.828-4.071 37.828z" class="colordef1ff svgShape"></path><path fill="#43538f" d="M403.612 532.326H165.404c-6.507 0-11.782-5.275-11.782-11.782s5.275-11.782 11.782-11.782h238.208c6.507 0 11.782 5.275 11.782 11.782s-5.275 11.782-11.782 11.782z" class="color8f5343 svgShape"></path><path fill="#43538f" d="M158.187 524.563c0-6.507 5.275-11.782 11.782-11.782h238.208c1.888 0 3.665.455 5.246 1.244-2.112-3.172-5.716-5.264-9.812-5.264H165.404c-6.507 0-11.782 5.275-11.782 11.782 0 4.62 2.665 8.608 6.536 10.539a11.727 11.727 0 0 1-1.971-6.519zM392.584 532.331c0 2.811-.495 5.532-1.394 8.029a23.551 23.551 0 0 1-5.51 8.636 23.492 23.492 0 0 1-16.666 6.904H200c-10.188 0-18.869-6.477-22.153-15.541a23.191 23.191 0 0 1-1.416-8.029h216.153zM403.612 858.388H165.404c-6.507 0-11.782 5.275-11.782 11.782 0 6.508 5.275 11.782 11.782 11.782h238.208c6.507 0 11.782-5.275 11.782-11.782 0-6.506-5.275-11.782-11.782-11.782zM368.243 834.055h-167.47c-13.439 0-24.333 10.894-24.333 24.333h216.137c-.001-13.438-10.895-24.333-24.334-24.333z" class="color8f5343 svgShape"></path><path fill="#476eff" d="M325.968 792.901c-28.463-4.004-35.379-21.038-36.174-36.802 0 0-1.615-53.922-1.061-71.887.47-15.267 26.796-34.525 41.415-51.534 1.854-2.159 3.327-4.648 4.485-7.354 1.767-4.131-2.346-8.355-6.597-6.827-13.325 4.789-37.71 11.014-54.23.291-13.991-9.077-26.51-11.289-34.439-11.575-4.951-.178-8.737 4.284-7.823 9.117 1.169 6.179 3.363 11.952 7.139 16.347 14.62 17.009 41.969 36.368 43.134 51.597 0 0 2.212 53.917.848 71.823-.945 12.407-3.986 24.104-39.055 31.212-16.879 3.422-19.674 9.809-20.344 18.826.498 6.577 1.466 12.374 2.239 16.271.592 2.984 3.226 5.133 6.29 5.133h105.452c3.058 0 5.695-2.14 6.287-5.118.688-3.463 2.024-8.408 2.062-14.116.067-10.256-8.77-13.877-19.628-15.404z" class="colorffbc47 svgShape"></path><path fill="#cccccc" d="M392.584 532.331c0 2.811-.495 5.532-1.394 8.029H177.847a23.191 23.191 0 0 1-1.416-8.029h216.153zM403.612 858.388h-1.987a11.732 11.732 0 0 1 3.268 8.13c0 6.508-5.275 11.782-11.782 11.782H156.889a11.741 11.741 0 0 0 8.515 3.653h238.208c6.507 0 11.782-5.275 11.782-11.783 0-6.506-5.275-11.782-11.782-11.782zM370.765 834.185c6.796 4.316 11.31 11.904 11.31 20.551H176.713a24.445 24.445 0 0 0-.274 3.653h216.137c0-12.588-9.557-22.942-21.811-24.204zM223.997 577.083c-1.941 7.603-1.302 14.332 1.428 15.03 2.73.697 6.518-4.901 8.459-12.505 1.941-7.604 1.302-14.333-1.428-15.03-2.73-.697-6.517 4.902-8.459 12.505zM241.808 751.549c-5.14 5.93-7.581 12.233-5.451 14.079 2.129 1.845 8.022-1.465 13.162-7.395 5.14-5.93 7.58-12.233 5.451-14.079-2.129-1.845-8.022 1.466-13.162 7.395zM227.144 769.991c-1.222 1.409-1.612 3.072-.871 3.714.74.642 2.331.019 3.553-1.39 1.222-1.409 1.612-3.072.871-3.714-.741-.642-2.331-.019-3.553 1.39z" class="colorcccccc svgShape"></path><path fill="#43538f" d="M417.827 881.219H145.275c-6.507 0-11.782 5.275-11.782 11.782s5.275 11.782 11.782 11.782h272.552c6.507 0 11.782-5.275 11.782-11.782.001-6.507-5.274-11.782-11.782-11.782z" class="color8f5343 svgShape"></path><path fill="#cccccc" d="M417.827 881.219h-1.987a11.732 11.732 0 0 1 3.268 8.13c0 6.507-5.275 11.782-11.782 11.782H136.761a11.735 11.735 0 0 0 8.514 3.653h272.552c6.507 0 11.782-5.275 11.782-11.782.001-6.508-5.274-11.783-11.782-11.783z" class="colorcccccc svgShape"></path><path fill="#43538f" d="M162.482 862.785c-2.971 1.715-4.567 4.512-3.565 6.247 1.002 1.735 4.222 1.752 7.193.037 2.971-1.715 4.567-4.512 3.565-6.247-1.002-1.736-4.222-1.752-7.193-.037zM194.765 838.662c-2.971 1.715-4.567 4.513-3.565 6.248 1.002 1.735 4.222 1.751 7.193.036 2.971-1.715 4.567-4.512 3.565-6.247-1.002-1.736-4.223-1.752-7.193-.037zM140.625 884.778c-2.971 1.715-4.567 4.513-3.565 6.248 1.002 1.735 4.222 1.752 7.193.037 2.97-1.715 4.567-4.513 3.565-6.248-1.002-1.736-4.222-1.753-7.193-.037zM154.324 884.556c-1.597.922-2.456 2.426-1.917 3.359.539.933 2.27.942 3.868.02 1.597-.922 2.456-2.426 1.917-3.359-.539-.933-2.271-.942-3.868-.02zM183.286 846.908c-1.597.922-2.456 2.426-1.917 3.359.538.933 2.27.942 3.867.02 1.597-.922 2.456-2.426 1.917-3.359-.538-.933-2.27-.942-3.867-.02z" class="color8f5343 svgShape"></path><path fill="#e3f1ff" d="M1167.632 828.036v62.635H985.569c-17.273 0-31.329-14.032-31.329-31.306 0-17.273 14.057-31.329 31.329-31.329h182.063z" class="colorfff4e3 svgShape"></path><path fill="#0575e6" d="M970.675 890.672h196.955v12.376H652.71c-7.357 0-13.324-5.967-13.324-13.333v-60.726c0-7.357 5.967-13.324 13.324-13.324h514.92v12.367H985.57c-27.335 0-46.608 35.197-14.895 62.64z" class="color3a67b3 svgShape"></path><path fill="#6ca1d6" d="M903.508 815.662h11.721v87.382h-11.721zM866.524 815.662h11.722v87.382h-11.722z" class="color6c93d6 svgShape"></path><path fill="#b6cade" d="M970.675 890.672h69.753l-1.39 12.376H652.71c-7.357 0-13.324-5.967-13.324-13.333v-1.381c62.504 6.319 276.512 10.088 283.624-3.005 5.883-10.831-.235-15.62-.296-31.108-.076-19.466 12.485-31.685 23.435-38.555h102.693l-1.39 12.367H985.57c-27.335-.001-46.608 35.196-14.895 62.639z" class="colorb6d1de svgShape"></path><path fill="#6ca1d6" d="M954.24 859.365c0 17.274 14.057 31.306 31.329 31.306h182.063v12.373H985.569c-24.103 0-43.703-19.6-43.703-43.679 0-24.103 19.599-43.703 43.703-43.703h182.063v12.374H985.569c-17.272 0-31.329 14.057-31.329 31.329z" class="color6c93d6 svgShape"></path><path fill="#c2dbf5" d="M1080.048 840.671h-95.762a2.352 2.352 0 1 1 0-4.704h95.762a2.35 2.35 0 1 1 0 4.704zM1148.861 885.329h-108.666a2.353 2.353 0 0 1 0-4.704h108.666a2.352 2.352 0 0 1 2.352 2.352 2.35 2.35 0 0 1-2.352 2.352zM1080.048 863.481h-59.626a2.353 2.353 0 0 1 0-4.704h59.626a2.35 2.35 0 1 1 0 4.704zM1008.701 863.481H983.21a2.352 2.352 0 1 1 0-4.704h25.492a2.352 2.352 0 1 1-.001 4.704zM1138.523 863.481h-25.493a2.352 2.352 0 1 1 0-4.704h25.493a2.351 2.351 0 1 1 0 4.704zM1121.11 843.023h-8.079a2.352 2.352 0 1 1 0-4.705h8.079a2.352 2.352 0 1 1 0 4.705zM1027.778 885.329h-8.079a2.352 2.352 0 1 1 0-4.704h8.079a2.353 2.353 0 1 1 0 4.704zM1161.645 863.481h-8.079a2.352 2.352 0 1 1 0-4.704h8.079a2.352 2.352 0 1 1 0 4.704z" class="colorf5dac2 svgShape"></path><path fill="#4e66c2" d="M1087.008 850.446v27.196l13.832-9.612 13.832 9.612v-27.196z" class="colorc24e4e svgShape"></path><path fill="#6ca1d6" d="M682.953 835.188v29.069c0 3.237-.997 5.823-2.991 7.761-1.995 1.939-4.629 2.907-7.903 2.907-3.311 0-5.964-.988-7.959-2.963-1.995-1.976-2.992-4.676-2.992-8.1h5.137c.037 1.919.536 3.481 1.496 4.685.96 1.205 2.399 1.807 4.318 1.807 1.919 0 3.349-.573 4.29-1.722.94-1.148 1.411-2.605 1.411-4.375v-29.069h5.193zM720.49 843.598v30.932h-5.137v-4.572c-.979 1.581-2.343 2.814-4.092 3.697-1.75.884-3.679 1.326-5.785 1.326-2.409 0-4.572-.498-6.491-1.496-1.919-.997-3.435-2.492-4.544-4.487-1.11-1.994-1.665-4.422-1.665-7.282v-18.119h5.08v17.441c0 3.048.771 5.391 2.314 7.028 1.543 1.637 3.65 2.455 6.322 2.455 2.746 0 4.911-.846 6.491-2.54 1.58-1.693 2.371-4.158 2.371-7.394v-16.99h5.136zM733.755 873.825c-1.882-.809-3.368-1.938-4.459-3.387-1.092-1.448-1.693-3.113-1.806-4.996h5.305c.151 1.544.875 2.804 2.174 3.782 1.298.979 3 1.468 5.108 1.468 1.956 0 3.5-.432 4.629-1.298 1.129-.865 1.693-1.956 1.693-3.274 0-1.355-.602-2.361-1.806-3.02-1.205-.658-3.068-1.307-5.588-1.947-2.296-.601-4.168-1.214-5.617-1.835a9.954 9.954 0 0 1-3.725-2.765c-1.035-1.223-1.552-2.831-1.552-4.826 0-1.581.47-3.029 1.411-4.346.94-1.317 2.276-2.361 4.007-3.133 1.731-.771 3.706-1.157 5.927-1.157 3.424 0 6.19.867 8.298 2.597 2.107 1.731 3.236 4.102 3.387 7.112h-5.137c-.113-1.618-.762-2.916-1.948-3.895-1.185-.978-2.776-1.467-4.77-1.467-1.844 0-3.311.395-4.403 1.185-1.092.79-1.637 1.826-1.637 3.104 0 1.016.329 1.854.988 2.511.658.659 1.486 1.186 2.484 1.581.997.395 2.379.838 4.149 1.326 2.22.602 4.026 1.195 5.419 1.778a9.49 9.49 0 0 1 3.584 2.625c.997 1.167 1.514 2.691 1.552 4.572 0 1.694-.471 3.217-1.411 4.572-.941 1.355-2.267 2.418-3.979 3.189-1.713.771-3.678 1.157-5.898 1.157-2.372 0-4.498-.404-6.379-1.213zM764.911 847.831v18.232c0 1.506.319 2.569.96 3.19.639.621 1.75.931 3.33.931h3.782v4.346h-4.629c-2.86 0-5.005-.658-6.435-1.976-1.43-1.317-2.145-3.48-2.145-6.491v-18.232h-4.007v-4.233h4.007v-7.79h5.137v7.79h8.072v4.233h-8.072zM779.362 837.558c-.677-.677-1.016-1.505-1.016-2.484 0-.978.339-1.806 1.016-2.484.677-.677 1.505-1.016 2.484-1.016.94 0 1.74.338 2.399 1.016.658.677.988 1.505.988 2.484 0 .979-.33 1.806-.988 2.484-.659.677-1.459 1.016-2.399 1.016-.98.001-1.807-.338-2.484-1.016zm4.967 6.04v30.932h-5.137v-30.932h5.137zM793.077 850.625c1.279-2.389 3.057-4.242 5.334-5.56 2.277-1.317 4.883-1.976 7.818-1.976 3.801 0 6.933.923 9.398 2.766 2.465 1.844 4.092 4.403 4.883 7.677h-5.531c-.528-1.881-1.552-3.367-3.076-4.459-1.524-1.091-3.415-1.637-5.673-1.637-2.935 0-5.306 1.007-7.112 3.019-1.806 2.014-2.71 4.864-2.71 8.551 0 3.726.903 6.604 2.71 8.637s4.177 3.048 7.112 3.048c2.258 0 4.139-.526 5.645-1.58 1.505-1.053 2.54-2.559 3.104-4.516h5.531c-.828 3.161-2.484 5.692-4.967 7.592-2.484 1.901-5.588 2.85-9.314 2.85-2.935 0-5.541-.658-7.818-1.976-2.277-1.317-4.055-3.179-5.334-5.588-1.28-2.407-1.919-5.23-1.919-8.467 0-3.196.639-5.99 1.919-8.381zM855.393 860.983H830.67c.188 3.049 1.232 5.429 3.133 7.141 1.9 1.713 4.205 2.568 6.914 2.568 2.22 0 4.073-.517 5.56-1.552 1.486-1.035 2.531-2.418 3.132-4.149h5.532c-.828 2.973-2.484 5.391-4.967 7.253-2.484 1.863-5.57 2.794-9.257 2.794-2.935 0-5.56-.658-7.874-1.976-2.314-1.317-4.13-3.189-5.447-5.616-1.318-2.428-1.976-5.24-1.976-8.439 0-3.198.639-6.001 1.919-8.41 1.279-2.408 3.076-4.262 5.391-5.56s4.976-1.948 7.987-1.948c2.936 0 5.531.641 7.79 1.919 2.258 1.28 3.998 3.04 5.221 5.278 1.223 2.239 1.835 4.77 1.835 7.592-.001.98-.057 2.014-.17 3.105zm-6.435-9.229a8.443 8.443 0 0 0-3.528-3.217c-1.487-.733-3.132-1.1-4.939-1.1-2.596 0-4.807.828-6.632 2.484-1.825 1.656-2.87 3.951-3.132 6.886h19.53c-.001-1.957-.434-3.642-1.299-5.053z" class="color6c93d6 svgShape"></path><path fill="#e3f1ff" d="M1200.533 812.851c-2.703-.966-451.944 1.836-453.88-.955-10.921-5.087-20.156-13.679-26.075-24.159h-.072v-57.409h.043c6.286-11.144 16.303-20.129 28.103-25.099h451.068c-10.655 34.866-6.509 72.48.813 107.622z" class="colorfff4e3 svgShape"></path><path fill="#516dd4" d="M1207.424 801.002a8.629 8.629 0 0 1 2.554 6.153 8.703 8.703 0 0 1-8.706 8.704H763.204c-8.023 0-15.669-1.611-22.619-4.541a47.506 47.506 0 0 1-2.132-.958 41.469 41.469 0 0 1-2.147-1.06c-.58-.305-1.161-.609-1.741-.943a45.887 45.887 0 0 1-1.813-1.073 51.864 51.864 0 0 1-1.509-.943c-.522-.348-1.044-.696-1.552-1.059-.45-.321-.9-.64-1.336-.958a50.637 50.637 0 0 1-1.364-1.06 41.797 41.797 0 0 1-1.175-.957 43.258 43.258 0 0 1-1.234-1.06 32.765 32.765 0 0 1-1.03-.943c-.392-.348-.768-.711-1.146-1.074l-.479-.478c-.16-.16-.305-.304-.45-.465a22.08 22.08 0 0 1-1.001-1.059 18.452 18.452 0 0 1-.885-.957c-.305-.348-.624-.697-.914-1.06a15.044 15.044 0 0 1-.783-.943c-.29-.348-.58-.711-.856-1.073-.247-.304-.479-.624-.711-.943-.261-.348-.523-.696-.769-1.058-.232-.32-.464-.64-.668-.958-.247-.349-.479-.712-.711-1.06-.203-.319-.407-.623-.595-.943a64.667 64.667 0 0 1-.653-1.073c-.188-.319-.377-.639-.551-.958a.57.57 0 0 1-.073-.131c-4.758-8.458-7.472-18.207-7.472-28.596s2.714-20.138 7.472-28.596l.044-.087c.174-.319.363-.639.551-.943.203-.363.421-.726.653-1.074.189-.318.391-.623.595-.943.217-.348.449-.71.696-1.059.218-.319.435-.638.668-.958.247-.362.507-.71.769-1.059.232-.319.463-.638.711-.943.276-.362.566-.725.841-1.073.261-.319.523-.638.784-.943.304-.363.609-.711.929-1.06.275-.334.566-.653.871-.957.319-.363.653-.711 1-1.059.305-.319.624-.639.943-.958.363-.349.74-.711 1.117-1.059.333-.319.682-.639 1.044-.943.406-.363.828-.726 1.248-1.074.377-.319.754-.639 1.146-.943.449-.363.899-.711 1.364-1.059.434-.319.87-.638 1.32-.958.508-.363 1.031-.711 1.552-1.06.493-.318.987-.638 1.495-.943a45.415 45.415 0 0 1 1.813-1.074 57.114 57.114 0 0 1 3.859-2.002 47.546 47.546 0 0 1 2.133-.958 58.252 58.252 0 0 1 22.749-4.6h438.068c2.409 0 4.585.973 6.151 2.554a8.626 8.626 0 0 1 2.554 6.151 8.693 8.693 0 0 1-8.706 8.706H764.727c-1.464 0-2.916.073-4.337.218a43.247 43.247 0 0 0-6.195 1.059 41.89 41.89 0 0 0-3.279.957 38.262 38.262 0 0 0-4.961 2.003c-.711.334-1.407.682-2.104 1.073-.551.291-1.088.595-1.625.943a29.85 29.85 0 0 0-1.683 1.059c-.464.304-.928.624-1.378.958a54.23 54.23 0 0 0-1.393 1.059c-.392.305-.769.625-1.146.943-.406.348-.812.696-1.204 1.074-.333.304-.667.624-1.001.943-.363.348-.711.696-1.044 1.059-.305.319-.595.638-.87.958-.319.348-.624.697-.9 1.059a11.71 11.71 0 0 0-.769.943c-.29.349-.551.711-.812 1.074-.247.318-.479.638-.696.957-.233.348-.465.696-.682 1.045-.218.319-.421.638-.594.957-.233.348-.436.711-.639 1.074a9.878 9.878 0 0 0-.508.943c-.203.348-.377.696-.551 1.059-.16.319-.319.638-.45.958-.174.348-.334.697-.479 1.059-.145.319-.261.624-.377.943-.16.363-.29.711-.406 1.074-.131.304-.232.624-.334.943a8.616 8.616 0 0 0-.333 1.059c-.116.319-.204.638-.291.957-.102.349-.189.711-.276 1.06-.086.305-.159.623-.218.943-.087.348-.16.711-.218 1.073-.072.304-.13.624-.174.943-.072.348-.116.696-.159 1.059-.059.319-.102.638-.131.957-.043.349-.073.697-.102 1.06-.043.319-.058.638-.072.958-.028.348-.043.697-.043 1.06a6.837 6.837 0 0 0-.029.943c-.014.174-.014.333-.014.508 0 .189 0 .377.014.566 0 .318 0 .638.029.943 0 .362.015.711.043 1.059.014.319.043.638.087.958.014.363.044.711.103 1.06.028.319.072.638.13.943.029.362.087.725.159 1.073.044.319.102.639.175.958.058.348.13.696.218 1.045.058.319.13.638.218.957.087.363.174.711.275 1.074.087.319.189.638.291.943.101.363.202.711.348 1.059.087.319.189.639.319.943.116.363.261.711.406 1.074.116.319.247.624.391.943.146.363.306.711.479 1.059.13.319.291.639.45.958.175.363.348.711.551 1.06.16.319.334.624.508.943.203.362.406.726.638 1.073.189.319.378.638.595.943.218.363.45.711.697 1.059.217.319.45.639.697.957.246.363.522.711.797 1.06.247.319.493.638.77.943.29.363.594.726.928 1.073.276.334.566.639.871.958.334.348.682.711 1.03 1.044.333.334.682.653 1.016.958.391.376.798.725 1.218 1.073.378.319.755.639 1.147.943.465.363.928.726 1.407 1.06.45.333.914.653 1.379.958.551.377 1.102.725 1.682 1.058.538.334 1.088.653 1.654.943.682.392 1.393.74 2.104 1.073a34.32 34.32 0 0 0 2.103.943c.958.392 1.93.741 2.916 1.06a32.99 32.99 0 0 0 3.367.957c2.176.538 4.424.885 6.716 1.059 1.176.116 2.351.161 3.555.161h436.546a8.625 8.625 0 0 1 6.147 2.553z" class="colord45151 svgShape"></path><path fill="#c2dbf5" d="M984.13 738.582H759.224a2.352 2.352 0 1 1 0-4.705H984.13a2.354 2.354 0 0 1 0 4.705zM1141.396 783.239H887a2.353 2.353 0 1 1 0-4.704h254.396a2.353 2.353 0 0 1 0 4.704zM984.13 761.392H841.81a2.353 2.353 0 0 1 0-4.704h142.32a2.353 2.353 0 1 1 0 4.704zM821.071 761.392h-64.308a2.353 2.353 0 0 1 0-4.705h64.308a2.353 2.353 0 0 1 0 4.705zM1117.768 761.392h-64.307a2.353 2.353 0 0 1 0-4.705h64.307a2.351 2.351 0 1 1 0 4.705zM1077.972 740.934h-24.511a2.353 2.353 0 0 1 0-4.705h24.511a2.354 2.354 0 0 1 0 4.705zM864.668 783.239h-24.511a2.353 2.353 0 1 1 0-4.704h24.511a2.352 2.352 0 0 1 2.352 2.352 2.35 2.35 0 0 1-2.352 2.352zM1170.61 761.392h-24.51a2.353 2.353 0 0 1 0-4.705h24.511a2.353 2.353 0 0 1-.001 4.705z" class="colorf5dac2 svgShape"></path><path fill="#516dd4" d="m1028.81 769.462-14.679-8.345-14.679 8.345v-35.585h29.358z" class="colord45151 svgShape"></path><path fill="#d1e8ff" d="M572.241 522.212c1.8 9.649 7.07 22.089 17.374 36.801 1.307 1.811 26.019 33.549 45.308 34.665 13.542.795 38.773-21.978 53.936-37.052 7.466-7.422 30.662-17.655 20.073-34.344-6.605-10.411-17.923 14.316-19.566 8.762-1.643-5.554 5.502-19.98 1.191-16.574-4.311 3.406-8.71 22.998-8.71 22.998s-42.835 26.325-44.052 25.512c-1.629-1.153-57.934-63.424-60.461-61.855-4.612 2.889-7.047 10.194-5.093 21.087z" class="colorffd4d1 svgShape"></path><path fill="#4d5573" d="M572.239 522.215c.904 4.798 2.643 10.288 5.449 16.407 2.836 6.169 6.754 12.993 11.93 20.392 1.303 1.804 26.015 33.544 45.311 34.663 3.532.201 8.081-1.415 13.141-4.193 14.32-7.842 34.312-21.994 45.518-33.125l-11.741-18.892c-14.73 9.125-42.84 26.331-44.055 25.506-1.625-1.152-29.981-48.773-45.854-62.541-4.796-4.16-16.467-8.866-25.28-10.928-1.111 4.721 7.682 24.009 5.581 32.711z" class="color4d4d73 svgShape"></path><path fill="#3d4563" d="M577.563 539.4c2.552 6.292 6.154 13.288 10.986 20.916 1.219 1.861 24.456 34.697 43.681 36.697 3.519.363 8.137-1.044 13.319-3.588-23.508 6.593-40.875-19.599-41.042-33.475-.193-15.945-4.934-32.193-4.934-32.193l-22.01 11.643z" class="color3d3d63 svgShape"></path><path fill="#d1e8ff" d="m589.428 864.614-3.926 20.073c-4.559 7.368-11.449 7.863-19.93.804l-1.366-21.235 25.222.358zM477.974 860.691l-8.129 18.92c-5.621 6.41-12.052 5.638-17.536-2.705l4.414-20.885 21.251 4.67z" class="colorffd4d1 svgShape"></path><path fill="#4d5573" d="m512.018 589.18 10.076 37.963 31.526 118.73 4.05 15.244.967 41.916s0 .029.011.098l1.558 67.485c9.248 2.039 17.734 2.118 27.831 1.005 2.266-.234 4.63-.547 7.089-.898 0 0 10.72-86.583 8.561-120.945-2.17-34.362-24.072-153.346-25.747-159.982l-65.922-.616z" class="color4d4d73 svgShape"></path><path fill="#3d4563" d="m522.093 627.143 31.526 118.73c.204-32.537-14.915-75.286 11.504-82.492 16.183-4.414 23.468-15.794 23.468-15.794l-49.946-25.958c.001.001-6.938 2.226-16.552 5.514z" class="color3d3d63 svgShape"></path><path fill="#4d5573" d="M448.567 858.016c1.525 1.054 3.351 2.069 5.382 3.016h.011c8.604 4.001 20.903 6.763 29.743 6.217 0 0 13.749-28.409 26.757-59.287 6.918-16.415 13.631-33.533 17.96-47.459 4.801-15.41 15.779-80.455 21.719-125.796.011-.029.011-.059.011-.088 1.762-13.399 3.072-25.062 3.663-33.22.183-2.567.365-5.104.526-7.573l-1.772-.322-10.806-1.962-28.626-5.192c-5.682 3.562-10.043 11.408-13.459 21.919-.322.986-.634 2.001-.945 3.045-5.478 18.513-8.421 44.19-10.688 69.359-2.277 25.305-3.878 50.103-6.681 66.596 0 0-1.3 4.431-3.405 11.555-7.251 24.662-24.04 81.616-29.39 99.192z" class="color4d4d73 svgShape"></path><path fill="#3d4563" d="M488.043 680.673c4.64-15.049 17.005-25.854 30.904-24.058 18.766 2.44 23.465-18.936 31.192-21.907l.011-.01v-21.275s-39.4-1.708-51.42-2.108c-5.478 18.512-8.421 44.189-10.687 69.358z" class="color3d3d63 svgShape"></path><path fill="#4d5573" d="M585.579 884.297c2.866-.698 7.843 6.851 12.813 5.801 10.893-2.3 19.345 3.323 19.345 13.374h-52.83c-1.577.343-2.264-16.4.665-17.98 1.4-.755 4.123 2.351 11.107 3.172 6.985.82 4.918-3.506 8.9-4.367zM472.97 874.561s.669 6.203 4.569 8.104c3.9 1.901 23.413 5.889 14.908 21.89l-48.385-16.337c-2.19-6.27 6.103-18.741 9.544-18.56 2.467.13 9.1 13.313 14.352 8.636 1.604-1.429 2.077-5.206 5.012-3.733z" class="color4d4d73 svgShape"></path><path fill="#3d4563" d="M453.96 861.032c8.604 4.001 20.903 6.763 29.743 6.217 0 0 13.749-28.409 26.757-59.287-13.029 21.167-38.175 55.998-56.5 53.07zM558.647 803.131l1.558 67.485c9.248 2.039 17.734 2.118 27.831 1.005-23.847-8.852-29.153-65.826-29.389-68.49z" class="color3d3d63 svgShape"></path><path fill="#ffffff" d="M494.247 555.447c3.416 27.262 4.178 52.505-2.804 79.294 33.743 6.249 67.099 6.71 99.768-1.01-4.486-15.761-7.229-36.122-6.034-56.122.618-43.383 16.952-75.657-6.326-84.431-8.542-3.631-21.207-7.068-30.068-7.67-15.236 2.879-51.488-.42-62.388 16.303-3.882 20.822 5.777 32.404 7.852 53.636z" class="colorffffff svgShape"></path><path fill="#60698c" d="M548.461 485.364c3.738.34 8.957 1.081 12.954 2.218l-10.671 13.341-9.217-3.03-9.107 3.923-15.148-13.395c3.347-1.103 7.95-2.157 11.257-1.987 0 0 4.522 9.918 12.508 9.918 7.987 0 7.424-10.988 7.424-10.988z" class="color60608c svgShape"></path><path fill="#d1e8ff" d="M528.115 487.228c2.127 3.764 4.516 6.382 6.938 8.018h.033c7.396 5.007 14.825.753 14.171-8.018l-2.127-13.647-.556-3.502-14.367-2.749-4.092 19.898z" class="colorffd4d1 svgShape"></path><path fill="#afd4fa" d="M528.115 487.228c2.127 3.764 4.516 6.382 6.938 8.018h.033c.687.196 1.08.295 1.08.295s-5.433-16.331-2.389-15.84c3.044.458 9.622-2.782 9.622-2.782l3.731-3.338-.556-3.502-14.367-2.749-4.092 19.898z" class="colorfab4af svgShape"></path><path fill="#d1e8ff" d="M521.19 458.936s.305.961.961 2.458h.013c2.775 6.287 11.741 21.973 29.796 14.704 15.467-6.233 15.96-31.374 14.103-46.076-6.268 5.216-19.304 2.908-27.803.981-11.314-2.573-18.222 13.437-18.222 13.437s-5.265-3.394-7.136 2.129c-3.109 9.182 8.288 12.367 8.288 12.367z" class="colorffd4d1 svgShape"></path><path fill="#4d5573" d="m547.129 499.871-2.619 6.516h-6.672l-2.683-5.928 5.573-3.214z" class="color4d4d73 svgShape"></path><path fill="#4d5573" d="m537.745 504.222 3.367.089 3.367.089c5.984 16.728 11.003 58.006 10.35 77.205l-10.59 15.471-11.532-16.241c5.458-30.686 6.821-60.703 5.038-76.613z" class="color4d4d73 svgShape"></path><path fill="#4d5573" d="m547.128 569.701 11.565 81.956c4.984-.322 9.925-.827 14.845-1.493a221.69 221.69 0 0 0 20.914-3.867c-4.35-15.36-7.762-47.561-6.71-67.283.011-.194.021-.365.032-.527l.064-1.031c.011-.236.021-.365.021-.365 2.181-37.574 9.163-71.541-.633-79.597-1.074-.881-8.422-4.402-15.662-7.045-3.566-1.3-7.283-2.417-10.57-2.965l-11.902 70.583-1.964 11.634z" class="color4d4d73 svgShape"></path><path fill="#60698c" d="m557.628 651.802 2.129-.292-11.543-81.793 13.84-82.054-2.118-.357-13.895 82.378.022.162z" class="color60608c svgShape"></path><path fill="#4d5573" d="M489.746 646.836c3.008 1.085 6.209 1.966 9.495 2.675 20.57 4.426 44.556 2.148 44.556 2.148l10.927-80.787-3.537-10.087-30.248-72.967s-2.9.43-7.014 1.214c-7.992 1.547-20.581 4.468-25.35 8.346-7.218 5.865-7.852 11.794 2.052 44.158a64.379 64.379 0 0 1 1.364 5.306c7.444 34.374-2.245 99.994-2.245 99.994z" class="color4d4d73 svgShape"></path><path fill="#60698c" d="m544.863 651.802 10.96-81.042-3.621-10.33-30.27-73.023-1.985.822 30.249 72.967 3.43 9.788-10.932 80.818z" class="color60608c svgShape"></path><path fill="#3d4563" d="M489.746 646.836c3.008 1.085 6.209 1.966 9.495 2.675.559-5.468 1.278-10.387 2.213-13.083 2.954-8.518 35.393-14.737 35.393-14.737l5.564-15.694s-34.35-23.973-31.407-38.27c2.943-14.286-4.588-31.647-4.588-31.647l-14.426 10.763c7.445 34.373-2.244 99.993-2.244 99.993z" class="color3d3d63 svgShape"></path><path fill="#60698c" d="m515.601 514.07 14.49 11.977-9.453 7.594s19.27 19.453 30.549 27.144l-30.248-72.967s-2.9.43-7.014 1.214l1.676 25.038z" class="color60608c svgShape"></path><path fill="#60698c" d="m572.789 525.048-10.827-5.467 11.676-14.727-2.073-14.405c-3.566-1.3-7.283-2.417-10.57-2.965l-11.902 70.583c9.442-10.053 23.696-33.019 23.696-33.019z" class="color60608c svgShape"></path><path fill="#43538f" d="M567.87 442.471s7.71-10.19 4.252-19.577c-2.48-6.732-8.483-7.618-12.401-7.264s-1.822-3.295-11.427-5.642c-10.984-2.684-13.11 5.554-15.768 4.314-2.657-1.24-10.364-2.037-14.528 2.569-4.163 4.606-1.594 9.567-3.189 10.984-1.594 1.417-7.707.089-7.175 7.441.531 7.352 3.543 8.591 4.075 11.604 0 0 5.138-3.986 9.213.532 0 0 6.112.443 5.315-6.201-.797-6.644 2.746-6.732 10.01-4.606 7.264 2.126 14.793 1.772 20.905-.709 5.256-2.133 7.972-.531 10.718 6.555z" class="color8f5343 svgShape"></path><path fill="#ffffff" d="M538.889 463.687c-.047.942.365 1.823 1.08 2.493.767.726 1.882 1.21 3.142 1.272 1.353.067 2.586-.366 3.428-1.101.674-.584 1.1-1.362 1.143-2.229.097-1.961-2.799-.624-4.441-.706-1.371-.066-4.255-1.689-4.352.271z" class="colorffffff svgShape"></path><path fill="#e3f1ff" d="M553.756 448.985c.303 1.603 1.632 2.697 2.968 2.444 1.336-.253 2.172-1.757 1.869-3.36-.303-1.603-1.632-2.697-2.968-2.445-1.336.253-2.173 1.758-1.869 3.361z" class="colorffe9e3 svgShape"></path><path fill="#30364d" d="M554.274 448.886c.238 1.26 1.282 2.119 2.332 1.921 1.049-.199 1.707-1.381 1.469-2.64-.238-1.26-1.282-2.119-2.332-1.921-1.05.199-1.707 1.381-1.469 2.64z" class="color30334d svgShape"></path><path fill="#181d2e" d="M554.982 448.752c.15.79.805 1.329 1.463 1.205.658-.125 1.071-.866.921-1.656-.149-.79-.804-1.329-1.463-1.205-.658.125-1.07.866-.921 1.656z" class="color181a2e svgShape"></path><path fill="#ffffff" d="M557.312 447.476a.538.538 0 1 0-1.058.2.538.538 0 0 0 1.058-.2zM555.87 447.103a.24.24 0 1 0-.473.089.24.24 0 0 0 .473-.089z" class="colorffffff svgShape"></path><path fill="#e3f1ff" d="M539.47 449.671c.152 1.624-.823 3.044-2.176 3.17-1.353.126-2.574-1.088-2.726-2.712-.152-1.624.822-3.044 2.176-3.17 1.353-.127 2.574 1.087 2.726 2.712z" class="colorffe9e3 svgShape"></path><path fill="#30364d" d="M538.945 449.72c.119 1.276-.646 2.391-1.71 2.491-1.063.099-2.022-.854-2.142-2.131-.119-1.276.646-2.391 1.71-2.491 1.063-.099 2.022.855 2.142 2.131z" class="color30334d svgShape"></path><path fill="#181d2e" d="M538.227 449.787c.075.801-.405 1.5-1.073 1.562-.667.062-1.268-.536-1.343-1.337-.075-.8.405-1.5 1.073-1.562.666-.062 1.268.536 1.343 1.337z" class="color181a2e svgShape"></path><path fill="#ffffff" d="M535.635 449.205a.538.538 0 1 1 1.074-.1.539.539 0 1 1-1.074.1z" class="colorffffff svgShape"></path><path fill="#30364d" d="M553.32 443.726c1.113-1.227 2.953-1.434 4.362-.614.243.141.287.502.137.722-.168.246-.479.278-.722.137a2.482 2.482 0 0 0-1.578-.302c-.598.093-1.099.383-1.516.842-.189.208-.564.143-.733-.051-.204-.234-.14-.526.05-.734zM534.151 445.529c1.136-1.207 2.979-1.38 4.372-.534.24.146.278.507.123.725-.172.243-.484.269-.724.123a2.485 2.485 0 0 0-1.573-.331c-.6.082-1.106.362-1.531.814-.193.204-.567.132-.732-.064-.198-.237-.128-.528.065-.733z" class="color30334d svgShape"></path><path fill="#9bc3eb" d="M545.809 458.081c.452-.165.917-.087 1.388-.124.437-.034.682-.246.663-.679-.02-.469-.167-.942-.268-1.4l-.349-1.591c-.04-.18.15-.351.325-.361.211-.013.345.136.385.317l.386 1.759c.114.52.292 1.068.215 1.6-.071.491-.437.862-.937.978-.513.119-1.073-.034-1.566.145-.428.155-.666-.489-.242-.644z" class="coloreb9b9b svgShape"></path><path fill="#ffffff" d="M537.259 449.166a.241.241 0 1 0-.474.09.241.241 0 0 0 .474-.09z" class="colorffffff svgShape"></path><path fill="#b3d9ff" d="M532.298 455.734c.086.822 1.453 1.354 3.055 1.187 1.602-.167 2.831-.968 2.746-1.79-.085-.822-1.453-1.354-3.055-1.187-1.602.166-2.831.968-2.746 1.79zM555.74 453.482c.016.826 1.334 1.472 2.944 1.441 1.61-.031 2.903-.725 2.887-1.552-.016-.826-1.334-1.472-2.944-1.441-1.611.031-2.903.725-2.887 1.552z" class="colorffb8b3 svgShape"></path><circle cx="785.241" cy="399.158" r="94.824" fill="#58595b" transform="rotate(-55.681 785.193 399.168)" class="color58595b svgShape"></circle><path fill="#0575e6" d="M856.823 319.286c-44.004-39.741-111.992-36.432-151.558 7.378-39.566 43.809-35.956 111.783 8.047 151.524 44.004 39.742 111.993 36.432 151.558-7.378 39.566-43.81 35.956-111.782-8.047-151.524zM724.351 465.965c-37.294-33.681-40.343-91.084-6.81-128.213 33.532-37.128 90.948-39.923 128.242-6.242 37.294 33.681 40.341 91.084 6.809 128.212-33.532 37.129-90.947 39.924-128.241 6.243z" class="color3a67b3 svgShape"></path><path fill="#0575e6" d="m709.942 459.667 22.104 19.965-19.877 22.007-22.104-19.965z" class="color3a67b3 svgShape"></path><path fill="#476eff" d="M543.019 710.623c-10.471 12.366-29.328 13.388-41.661 2.25-12.332-11.138-13.241-30.012-1.991-41.674l152.405-158.037 8.483-8.807 6.376-6.593 8.483-8.808 10.611-11.002 30.622 27.655-9.868 11.674-7.901 9.334-5.911 7.013-7.901 9.333-141.747 167.662z" class="colorffbc47 svgShape"></path><path fill="#0575e6" d="m702.492 522.282-31.948-28.853 8.66-9.004 31.366 28.328zM688.37 538.97l-32.995-29.798 8.66-9.004 32.413 29.274z" class="color3a67b3 svgShape"></path><path fill="#a7a9ac" d="M791.696 331.487c-28.408-.578-47.064 15.761-48.333 13.567-1.498-2.59 22.123-29.429 52.253-27.782 29.672 1.622 50.349 30.036 48.49 32.697-1.7 2.434-21.423-17.854-52.41-18.482zM740.868 354.127a5.505 5.505 0 0 1-5.235 5.797 5.565 5.565 0 0 1-5.823-5.259 5.506 5.506 0 0 1 5.235-5.796 5.564 5.564 0 0 1 5.823 5.258z" class="colora7a9ac svgShape"></path><path fill="#d1e8ff" d="M464.526 605.721c8.379 14.654 77.886 33.091 77.886 33.091 20.505 22.068 43.773 13.094 43.752-2.802-.007-5.35-16.643-3.537-20.936-6.255-6.538-4.202 3.661-4.279 1.808-8.125-1.899-3.837-17.213 2.029-17.213 2.029l-59.991-29.557 13.608-57.547c2.257-39.402-13.778-34.215-25.34-19.961-11.552 14.302-23.841 71.168-13.574 89.127z" class="colorffd4d1 svgShape"></path><path fill="#4d5573" d="M463.352 612.299c8.989 14.288 54.7 21.723 75.731 26.514 2.778-5.665 4.786-14.266 7.315-19.249l-51.492-27.632s8.636-37.217 11.067-50.86c6.923-38.855-12.813-56.845-30.286-32.852-10.823 14.862-21.326 89.786-12.335 104.079z" class="color4d4d73 svgShape"></path><path fill="#c8d5e3" d="M1289.902 907.652H74.098a3.098 3.098 0 1 1 0-6.196h1215.805a3.098 3.098 0 0 1 3.098 3.098 3.1 3.1 0 0 1-3.099 3.098z" class="colorc8cbe3 svgShape"></path><path fill="#516dd4" d="M273.867 308.648c.483.781.638 1.722.411 2.648a3.449 3.449 0 0 1-2.408 2.517l-11.67 3.404a3.449 3.449 0 0 1-3.384-.827 3.45 3.45 0 0 1-.975-3.344l2.887-11.808a3.449 3.449 0 0 1 2.408-2.517 3.448 3.448 0 0 1 3.383.828l8.782 8.404c.223.212.412.445.566.695zm-15.273 5.607a.757.757 0 0 0 .122.15.721.721 0 0 0 .716.175l11.67-3.403a.726.726 0 0 0 .51-.533.723.723 0 0 0-.206-.707l-8.783-8.405a.723.723 0 0 0-.716-.175.725.725 0 0 0-.51.532l-2.887 11.808a.713.713 0 0 0 .084.558z" class="colord45151 svgShape"></path><path fill="#6bb5ff" d="m481.502 114.796 4.293-4.293a2.493 2.493 0 0 0 0-3.528 2.493 2.493 0 0 0-3.528 0l-4.293 4.293-4.293-4.293a2.493 2.493 0 0 0-3.528 0 2.493 2.493 0 0 0 0 3.528l4.293 4.293-4.285 4.285a2.493 2.493 0 0 0 1.764 4.259c.638 0 1.277-.244 1.764-.731l4.285-4.285 4.285 4.285a2.488 2.488 0 0 0 1.764.731 2.493 2.493 0 0 0 1.764-4.259l-4.285-4.285z" class="colorffb86b svgShape"></path><path fill="#0575e6" d="M1160.894 606.873c-5.406 0-9.804-4.398-9.804-9.804 0-5.406 4.398-9.804 9.804-9.804s9.804 4.398 9.804 9.804c0 5.405-4.398 9.804-9.804 9.804zm0-16.541a6.744 6.744 0 0 0-6.736 6.736 6.744 6.744 0 0 0 6.736 6.736 6.744 6.744 0 0 0 6.736-6.736 6.744 6.744 0 0 0-6.736-6.736z" class="color3a67b3 svgShape"></path></svg>