<svg xmlns="http://www.w3.org/2000/svg" enable-background="new 0 0 850 850" viewBox="0 0 850 850" id="Malelawyerstandsincourt"><polygon fill="#021b79" points="615.06 243.79 245.05 243.79 427.15 145.9" class="color223266 svgShape"></polygon><polygon fill="#fafafb" points="558.51 228.83 301.61 228.83 428.04 160.86" class="colorfafafb svgShape"></polygon><polygon fill="#1f2a54" points="520.73 228.83 339.39 228.83 428.63 180.85" class="color1f2a54 svgShape"></polygon><rect width="464.69" height="27.48" x="197.71" y="249.66" fill="#283c86" class="color284386 svgShape"></rect><rect width="448.37" height="10.38" x="205.87" y="258.21" fill="#fafafb" class="colorfafafb svgShape"></rect><g fill="#000000" class="color000000 svgShape"><path fill="#021b79" d="M303.98,282.56H220v0.02c-5.15,0.24-9.25,4.47-9.25,9.68c0,5.36,4.34,9.7,9.7,9.7
					c4.58,0,8.4-3.17,9.42-7.43h64.68c1.02,4.26,4.85,7.43,9.42,7.43c5.36,0,9.7-4.34,9.7-9.7
					C313.68,286.9,309.34,282.56,303.98,282.56z" class="color223266 svgShape"></path><rect width="56.07" height="252.26" x="234.18" y="297.97" fill="#283c86" class="color284386 svgShape"></rect><rect width="10.57" height="221.06" x="241.97" y="313.06" fill="#fafafb" class="colorfafafb svgShape"></rect><rect width="10.57" height="221.06" x="256.93" y="313.06" fill="#fafafb" class="colorfafafb svgShape"></rect><rect width="10.57" height="221.06" x="271.9" y="313.06" fill="#fafafb" class="colorfafafb svgShape"></rect><path fill="#fafafb" d="M303.98,287.41H220v0.05c-2.47,0.23-4.4,2.28-4.4,4.81c0,2.68,2.17,4.85,4.85,4.85s4.85-2.17,4.85-4.85
				c0-0.89-0.26-1.71-0.67-2.43h75.17c-0.42,0.72-0.67,1.54-0.67,2.43c0,2.68,2.17,4.85,4.85,4.85c2.68,0,4.85-2.17,4.85-4.85
				C308.83,289.58,306.66,287.41,303.98,287.41z" class="colorfafafb svgShape"></path><path fill="#021b79" d="M297.21 537.91h-69.99c.14-4.21 2.06-7.05 6.96-7.58h56.07C295.66 530.59 297.97 533.12 297.21 537.91zM303.5 545.49h-82.56c-.25-4.26 1.85-6.78 6.29-7.58h69.99C301.81 538.44 303.9 540.97 303.5 545.49z" class="color223266 svgShape"></path><path fill="#021b79" d="M309.79,553.07h-95.15c-0.1-5.05,2-7.58,6.29-7.58h82.56C308.09,545.36,310.19,547.88,309.79,553.07z" class="color223266 svgShape"></path></g><g fill="#000000" class="color000000 svgShape"><path fill="#021b79" d="M640.58,282.56H556.6v0.02c-5.15,0.24-9.25,4.47-9.25,9.68c0,5.36,4.34,9.7,9.7,9.7
					c4.58,0,8.4-3.17,9.42-7.43h64.68c1.02,4.26,4.85,7.43,9.42,7.43c5.36,0,9.7-4.34,9.7-9.7
					C650.28,286.9,645.93,282.56,640.58,282.56z" class="color223266 svgShape"></path><rect width="56.07" height="252.26" x="570.78" y="297.97" fill="#283c86" class="color284386 svgShape"></rect><rect width="10.57" height="221.06" x="578.57" y="313.06" fill="#fafafb" class="colorfafafb svgShape"></rect><rect width="10.57" height="221.06" x="593.53" y="313.06" fill="#fafafb" class="colorfafafb svgShape"></rect><rect width="10.57" height="221.06" x="608.49" y="313.06" fill="#fafafb" class="colorfafafb svgShape"></rect><path fill="#fafafb" d="M640.58,287.41H556.6v0.05c-2.46,0.23-4.4,2.28-4.4,4.81c0,2.68,2.17,4.85,4.85,4.85s4.85-2.17,4.85-4.85
				c0-0.89-0.26-1.71-0.67-2.43h75.17c-0.42,0.72-0.67,1.54-0.67,2.43c0,2.68,2.17,4.85,4.85,4.85c2.68,0,4.85-2.17,4.85-4.85
				C645.43,289.58,643.25,287.41,640.58,287.41z" class="colorfafafb svgShape"></path><path fill="#021b79" d="M633.8 537.91h-69.99c.14-4.21 2.06-7.05 6.96-7.58h56.07C632.25 530.59 634.57 533.12 633.8 537.91zM640.09 545.49h-82.56c-.25-4.26 1.85-6.78 6.29-7.58h69.99C638.4 538.44 640.5 540.97 640.09 545.49z" class="color223266 svgShape"></path><path fill="#021b79" d="M646.39,553.07h-95.15c-0.1-5.05,1.99-7.58,6.29-7.58h82.56C644.68,545.36,646.78,547.88,646.39,553.07z" class="color223266 svgShape"></path></g><g fill="#000000" class="color000000 svgShape"><rect width="5.33" height="296.19" x="783.98" y="401.23" fill="#283c86" class="color284386 svgShape"></rect><path fill="#283c86" d="M789.31,398.57c0,1.47-1.19,2.66-2.66,2.66c-1.47,0-2.66-1.19-2.66-2.66c0-1.47,2.66-11.31,2.66-11.31
				S789.31,397.1,789.31,398.57z" class="color284386 svgShape"></path><polygon fill="#9ac4ef" points="786.64 401.23 767.35 501.16 776.14 505.23 769.9 562.49 802.58 603.22 816.4 562.49" class="colorefd29a svgShape"></polygon><polygon fill="#0575e6" points="776.14 505.23 779.88 466.41 771.16 502.93" class="colore1c27b svgShape"></polygon><rect width="26.62" height="3.35" x="773.33" y="697.41" fill="#283c86" class="color284386 svgShape"></rect><rect width="36.44" height="3.35" x="768.42" y="700.76" fill="#283c86" class="color284386 svgShape"></rect></g><g fill="#000000" class="color000000 svgShape"><rect width="5.33" height="296.19" x="50.24" y="401.23" fill="#283c86" class="color284386 svgShape"></rect><path fill="#283c86" d="M55.56,398.57c0,1.47-1.19,2.66-2.66,2.66c-1.47,0-2.66-1.19-2.66-2.66c0-1.47,2.66-11.31,2.66-11.31
				S55.56,397.1,55.56,398.57z" class="color284386 svgShape"></path><polygon fill="#9ac4ef" points="52.9 401.23 33.6 501.16 42.39 505.23 36.15 562.49 68.83 603.22 82.65 562.49" class="colorefd29a svgShape"></polygon><polygon fill="#0575e6" points="42.39 505.23 46.13 466.41 37.41 502.93" class="colore1c27b svgShape"></polygon><rect width="26.62" height="3.35" x="39.59" y="697.41" fill="#283c86" class="color284386 svgShape"></rect><rect width="36.44" height="3.35" x="34.68" y="700.76" fill="#283c86" class="color284386 svgShape"></rect></g><g fill="#000000" class="color000000 svgShape"><path fill="#434651" d="M725.33,448.62l-62.17-80.01c0,0-42.15,105.95-63.3,127.04c-12.93,12.89-61.99,46.42-86.78,49.66
			c-9.02,1.18-35.65-7.3-35.65-7.3l-15.97-5.68l-13.58-4.83H378.2l-13.58,4.83L348.66,538c0,0-27.25,5.88-36.42,5.14
			c-19.73-1.59-59.75-18.54-72.68-31.43c-21.15-21.09-71.47-140.61-71.47-140.61l-64.6,77.87c0,0,62.91,109.36,83.84,126.45
			c24.92,20.35,113.33,60.98,113.33,60.98l-3.83,67.69h233.65l-5.07-67.7c0,0,101.76-56.7,126.67-77.05
			C673.01,542.27,725.33,448.62,725.33,448.62z" class="color434351 svgShape"></path><polygon fill="#434651" points="477.42 538.01 413.03 637.4 348.66 538 364.62 532.33 378.2 527.51 447.88 527.51 461.45 532.33" class="color434351 svgShape"></polygon><polygon fill="#ffffff" points="463.56 533.08 413.04 604.62 362.52 533.08 378.2 527.51 447.88 527.51" class="colorffffff svgShape"></polygon><polygon fill="#c2defa" points="447.88 527.39 413.04 558.64 378.2 527.39 378.2 483.26 447.88 483.26" class="colorfac6c2 svgShape"></polygon><path fill="#c2defa" d="M470.62,426.27c0,42.4-25.78,90.31-57.58,90.31s-57.58-47.91-57.58-90.31s25.78-63.25,57.58-63.25
			S470.62,383.86,470.62,426.27z" class="colorfac6c2 svgShape"></path><path fill="#9ac8f6" d="M447.88,495.93v18.68c-8.28,8.02-17.81,12.89-27.95,12.89c-16.42,0-31.23-12.77-41.72-30.97v-0.59
			c9.67,12.52,21.74,20.63,34.84,20.63C426.13,516.58,438.21,508.45,447.88,495.93z" class="colorf6a29a svgShape"></path><ellipse cx="468.8" cy="444.48" fill="#c2defa" rx="13.36" ry="18.53" class="colorfac6c2 svgShape"></ellipse><ellipse cx="357.27" cy="444.48" fill="#c2defa" rx="13.36" ry="18.53" class="colorfac6c2 svgShape"></ellipse><path fill="#191d2b" d="M466.08,458.33c0,0-8.09-26.19-7.03-35.63c-23.82-18.78-24.4-27.38-24.4-27.38s-13.3,26.61-67.84,27.38
			c0,0-4.29,33.7-6.92,35.27c0,0-6.64-30.43-8.27-40.26c-1.64-9.83-0.34-32.23,12.49-32.23c-0.52-23.76,77.6-42.85,104.69,3.28
			c0,0,8.46,16.3,4.63,31.36C469.61,435.19,466.08,458.33,466.08,458.33z" class="color2b2419 svgShape"></path><polygon fill="#434651" points="413.04 578.14 404.47 567.21 413.04 558.64 421.61 567.21" class="color434351 svgShape"></polygon><polygon fill="#434651" points="413.04 604.62 404.47 592.92 413.04 578.14 421.61 592.91" class="color434351 svgShape"></polygon><path fill="#c2defa" d="M78.41,273.2h26.69l8.93,9.62c0,0,13.95,9.93,17.29,14.46c4.02,5.45,10.48,24.99,10.48,24.99l26.28,48.85
			l-27.27,32.87l-12.48-48.81l-7.21-16.32l-16.04-9.31v-36.77l-9.59-9.67l-5.04-0.25c-5.16-0.25-10.02-2.52-13.54-6.31
			C75.75,275.28,76.66,273.2,78.41,273.2z" class="colorfac6c2 svgShape"></path><polygon fill="#242b46" points="413.03 637.4 409.08 643.58 406.03 703.95 400.41 703.95 404.78 643.45 411.07 634.36" class="color242c46 svgShape"></polygon><polygon fill="#242b46" points="584.71 602.4 525.71 621.84 515.36 588.83 520.27 639.61 530.48 704.1 525.41 636.41" class="color242c46 svgShape"></polygon><polygon fill="#242b46" points="238.46 606.16 300.31 623.03 311.65 588.83 305.77 639.88 296.83 704.1 300.66 636.41" class="color242c46 svgShape"></polygon><path fill="#84c1ff" d="M105.1,292.78c0,0,2.86,23.36,8.02,27.48l-8.02-4.68V292.78z" class="colorff9484 svgShape"></path><path fill="#c2defa" d="M761.33,274.8c6.86-3.79,7.36-8.44,3.98-8.09c-3.96,0.42-21.74,6.65-29.75,7.33
			c-5.21,0.45-13.1-2.15-18.04-2.58c-1.89-0.17-0.28-1.89,0.92-3.78c1.92-3.03,5.32-5.34,7.62-6.46c7.62-3.74,7.59-10.29,6.59-10.06
			c-11.13,2.54-28.81,12.27-30.17,14.14c-5.65,7.79-16.9,16.93-14.38,29.3c0.96,4.69-7.67,23.83-7.67,23.83l-17.25,50.17
			l27.18,34.97l18.6-85.14c0,0,7.02-10.87,14.41-12.41c2.27-0.47,8.87,0.69,12.9,1.07c3.28,0.32,8.32-1.28,10.66-1.98
			c9.74-2.93,8.71-7.12,6.18-6.78c-2.58,0.34-11.16,2.2-11.16,2.2l-12.48-1.12c0,0,11.69-0.72,14.02-1.08
			c3.86-0.6,8.59-2.69,9.45-2.92c4.47-1.2,8.29-7.69,5.15-7.56C754.44,288,744,291.4,744,291.4l-13.95-1.55c0,0,7.94,0,14.25-1.42
			c4.83-1.09,13.2-3.77,14.76-4.29c6.39-2.13,6.47-7.92,4.85-7.37c-5.84,1.98-15.51,3.84-21.3,5.07
			c-3.42,0.73-10.99-0.45-10.99-0.45s6.54,0.51,10.3-0.52C749.38,278.83,757.63,276.84,761.33,274.8z" class="colorfac6c2 svgShape"></path><path fill="#84c1ff" d="M714.93,280.07c-1.08,1.6-1.5,3.47-2.22,5.23c-0.84,2.04-1.95,3.96-3.24,5.74
			c-2.52,3.48-6.12,6.37-9.54,8.93c-0.6,0.45-0.27,1.4,0.52,1.24c4.68-0.96,8.01-3.71,10.82-7.52c1.29-1.76,2.33-3.74,3.06-5.8
			c0.86-2.42,0.74-5.03,1.56-7.42C716.09,279.89,715.25,279.6,714.93,280.07z" class="colorff9484 svgShape"></path></g></svg>