<svg xmlns="http://www.w3.org/2000/svg" enable-background="new 0 0 500 500" viewBox="0 0 500 500" id="Malelawyerfightlawsuit"><g fill="#000000" class="color000000 svgShape"><ellipse cx="260.79" cy="415.95" fill="#d1deeb" rx="219.21" ry="18.37" class="colorebddd1 svgShape"></ellipse><path fill="#d1deeb" d="M149.16,343.31c9.35,1.64,18.78,2.73,28.01,3.64c48.67,4.8,99.08-0.22,146.25-12.9
				c16.19-4.35,32.27-9.82,46.53-18.63c32.36-20.01,58.59-73.36,32.12-107.37c-19.88-25.53-53.01-33.31-78.99-50.46
				c-15.59-10.29-24.7-25.15-35.83-39.64c-17.97-23.38-40.18-45.99-70.56-50.84c-33.86-5.41-69.67,5.34-100.01,19.79
				c-28.94,13.78-57.14,32.77-76.96,58.3c-49.18,63.35,2,147.98,62.14,182.37C116.29,335.82,132.6,340.41,149.16,343.31z" class="colorebddd1 svgShape"></path><path fill="#021b79" d="M401.51,406.49H162.24c-6.02,0-10.9-4.88-10.9-10.9V117.47c0-6.02,4.88-10.9,10.9-10.9h239.26
						c6.02,0,10.9,4.88,10.9,10.9v278.12C412.4,401.61,407.52,406.49,401.51,406.49z" class="color252626 svgShape"></path><path fill="#d2dfec" d="M391.4,392.79H172.35c-3.75,0-6.79-3.04-6.79-6.79V127.06c0-3.75,3.04-6.79,6.79-6.79H391.4
						c3.75,0,6.79,3.04,6.79,6.79v258.95C398.19,389.75,395.15,392.79,391.4,392.79z" class="colorecded2 svgShape"></path><path fill="#ecf3fb" d="M388.5,118.96v254.15c0,3.05-2.47,5.51-5.51,5.51H177V118.96c0-3.05,2.47-5.52,5.52-5.52h200.47
								C386.04,113.44,388.5,115.92,388.5,118.96z" class="colorfbf5ec svgShape"></path><rect width="172.12" height="4.3" x="201.86" y="191.86" fill="#b9cadc" class="colordcc9b9 svgShape"></rect><path fill="#505051" d="M265.53 152.93v13.98h5.49v3.24h-9.69v-17.21H265.53zM283.75 167.1h-6.42l-1.03 3.04h-4.39l6.23-17.21h4.85l6.23 17.21h-4.44L283.75 167.1zM280.54 157.56l-2.11 6.3h4.24L280.54 157.56zM290.21 152.93h4.49l2.48 12.53 3.06-12.53h4.61l2.94 12.53 2.5-12.53h4.51l-4.49 17.21h-5.08l-2.75-11.33-2.84 11.33h-5.08L290.21 152.93zM323.14 170.31c-3.7 0-6.6-1.84-6.72-5.32h4.46c.12 1.32.96 1.96 2.13 1.96 1.23 0 2.01-.61 2.01-1.62 0-3.19-8.61-1.47-8.56-7.58 0-3.26 2.67-5.08 6.28-5.08 3.75 0 6.28 1.86 6.45 5.15h-4.54c-.07-1.1-.86-1.77-1.99-1.79-1.01-.02-1.77.49-1.77 1.57 0 2.99 8.51 1.64 8.51 7.41C329.42 167.91 327.16 170.31 323.14 170.31zM331.92 152.93h4.19v10.3c0 2.04 1.01 3.21 2.99 3.21s3.04-1.18 3.04-3.21v-10.3h4.19v10.27c0 4.76-3.33 7.11-7.31 7.11-4 0-7.11-2.35-7.11-7.11V152.93zM349.29 152.93h4.19v17.21h-4.19V152.93zM355.59 152.93h13.31v3.36h-4.56v13.85h-4.19v-13.85h-4.56V152.93z" class="color505151 svgShape"></path><path fill="#b9cadc" d="M216.47,179.57L216.47,179.57c-0.67,0-1.21-0.54-1.21-1.21v-31.97c0-0.67,0.54-1.21,1.21-1.21l0,0
											c0.67,0,1.21,0.54,1.21,1.21v31.97C217.68,179.02,217.14,179.57,216.47,179.57z" class="colordcc9b9 svgShape"></path><ellipse cx="216.47" cy="176.31" fill="#b9cadc" rx="2.59" ry="3.48" class="colordcc9b9 svgShape"></ellipse><path fill="#b9cadc" d="M232.91,151.56c-0.23,1.42-2.14,1.68-2.14,1.68h-0.85c-1.46,0-2.9-0.32-4.23-0.94l-2.63-1.22
											l-1.28-0.52c-0.78-0.31-1.62-0.47-2.46-0.47h-5.72c-0.84,0-1.68,0.16-2.46,0.47l-1.28,0.52l-2.63,1.22
											c-1.33,0.62-2.77,0.94-4.23,0.94h-0.85c0,0-1.91-0.26-2.14-1.68c-0.03-0.19-0.03-0.36,0-0.53
											c0.18-1.12,1.5-1.79,2.18-1.08c0.18,0.19,0.28,0.38,0.32,0.57c0,0,0,0,0,0c0.05,0.23,0.03,0.46-0.03,0.65
											c-0.1,0.34-0.29,0.58-0.29,0.58c0.81-0.08,1.6-0.25,2.36-0.52c0.76-0.26,1.49-0.62,2.17-1.07l4.62-2.7
											c0.97-0.54,2.07-0.82,3.18-0.82h3.89c1.11,0,2.2,0.28,3.18,0.82l4.62,2.7c1.36,0.89,2.91,1.43,4.52,1.59
											c0,0-0.19-0.24-0.29-0.58c-0.03-0.12-0.06-0.25-0.06-0.39c0-0.08,0.01-0.17,0.03-0.26c0,0,0,0,0,0
											c0.04-0.19,0.14-0.38,0.32-0.57c0.68-0.71,2-0.04,2.18,1.08C232.94,151.19,232.95,151.37,232.91,151.56z" class="colordcc9b9 svgShape"></path><path fill="#b9cadc" d="M232.91,151.01c0,0,0,0.01,0,0.01c-0.24,1.41-2.14,1.67-2.14,1.67h-0.85c-1.46,0-2.9-0.32-4.23-0.94
											l-2.63-1.22l-1.28-0.52c-0.78-0.31-1.62-0.47-2.46-0.47h-5.72c-0.84,0-1.68,0.16-2.46,0.47l-1.28,0.52l-2.63,1.22
											c-1.33,0.62-2.77,0.94-4.23,0.94h-0.85c0,0-1.9-0.26-2.14-1.67c0,0,0-0.01,0-0.01c-0.23-1.42,1.4-2.42,2.18-1.61
											c0.36,0.37,0.39,0.78,0.32,1.11c0,0,0,0,0,0c-0.09,0.4-0.32,0.68-0.32,0.68c0.1-0.01,0.19-0.02,0.29-0.03
											c-0.1,0.34-0.29,0.58-0.29,0.58c0.81-0.08,1.6-0.25,2.36-0.52c0.76-0.26,1.49-0.62,2.17-1.07l4.62-2.7
											c0.97-0.54,2.07-0.82,3.18-0.82h3.89c1.11,0,2.2,0.28,3.18,0.82l4.62,2.7c1.36,0.89,2.91,1.43,4.52,1.59
											c0,0-0.19-0.24-0.29-0.58c0.1,0.01,0.19,0.02,0.29,0.03c0,0-0.23-0.29-0.32-0.68c0,0,0,0,0,0
											c-0.02-0.09-0.03-0.19-0.03-0.29c0-0.26,0.09-0.55,0.35-0.83C231.52,148.59,233.14,149.6,232.91,151.01z" class="colordcc9b9 svgShape"></path><circle cx="216.47" cy="146.87" r="1.79" fill="#b9cadc" class="colordcc9b9 svgShape"></circle><circle cx="216.47" cy="146.87" r=".99" fill="#b9cadc" class="colordcc9b9 svgShape"></circle><path fill="#b9cadc" d="M220.43,181.61h-7.93v-0.89c0-1.52,1.23-2.75,2.75-2.75h2.43c1.52,0,2.75,1.23,2.75,2.75V181.61z" class="colordcc9b9 svgShape"></path><polygon fill="#b9cadc" points="230.74 164.83 230.57 164.83 230.57 151.26 234.76 162.79 234.6 162.85 230.74 152.24" class="colordcc9b9 svgShape"></polygon><path fill="#b9cadc" d="M234.68,162.82c0,2.22-1.8,4.02-4.02,4.02c-2.22,0-4.02-1.8-4.02-4.02H234.68z" class="colordcc9b9 svgShape"></path><polygon fill="#b9cadc" points="226.71 162.85 226.55 162.79 230.58 151.72 230.74 151.78" class="colordcc9b9 svgShape"></polygon><g fill="#000000" class="color000000 svgShape"><polygon fill="#b9cadc" points="202.37 164.83 202.2 164.83 202.2 151.26 206.39 162.79 206.23 162.85 202.37 152.24" class="colordcc9b9 svgShape"></polygon><path fill="#b9cadc" d="M206.31 162.82c0 2.22-1.8 4.02-4.02 4.02s-4.02-1.8-4.02-4.02H206.31zM234.76 162.82h-8.2c-.16 0-.28-.13-.28-.28v-.09c0-.16.13-.28.28-.28h8.2c.16 0 .28.13.28.28v.09C235.04 162.69 234.91 162.82 234.76 162.82zM206.38 162.82h-8.2c-.16 0-.28-.13-.28-.28v-.09c0-.16.13-.28.28-.28h8.2c.16 0 .28.13.28.28v.09C206.66 162.69 206.54 162.82 206.38 162.82z" class="colordcc9b9 svgShape"></path><polygon fill="#b9cadc" points="198.34 162.85 198.18 162.79 202.2 151.72 202.36 151.78" class="colordcc9b9 svgShape"></polygon></g><g fill="#000000" class="color000000 svgShape"><rect width="182.46" height="4.3" x="191.52" y="207.95" fill="#b9cadc" class="colordcc9b9 svgShape"></rect></g><g fill="#000000" class="color000000 svgShape"><rect width="182.46" height="4.3" x="191.52" y="222.88" fill="#b9cadc" class="colordcc9b9 svgShape"></rect></g><g fill="#000000" class="color000000 svgShape"><rect width="182.46" height="4.3" x="191.52" y="238.26" fill="#b9cadc" class="colordcc9b9 svgShape"></rect></g><g fill="#000000" class="color000000 svgShape"><rect width="182.46" height="4.3" x="191.52" y="254.32" fill="#b9cadc" class="colordcc9b9 svgShape"></rect></g><g fill="#000000" class="color000000 svgShape"><rect width="172.12" height="4.3" x="201.86" y="276.1" fill="#b9cadc" class="colordcc9b9 svgShape"></rect></g><g fill="#000000" class="color000000 svgShape"><rect width="182.46" height="4.3" x="191.52" y="292.19" fill="#b9cadc" class="colordcc9b9 svgShape"></rect></g><g fill="#000000" class="color000000 svgShape"><rect width="182.46" height="4.3" x="191.52" y="307.12" fill="#b9cadc" class="colordcc9b9 svgShape"></rect></g><g fill="#000000" class="color000000 svgShape"><path fill="#4b69dc" d="M210.83,365.63l-4.13-1.52l-4.13,1.52l-3.06-3.16l-4.38-0.43l-1.39-4.18l-3.77-2.28l0.56-4.37
										l-2.4-3.69l2.4-3.69l-0.56-4.37l3.77-2.28l1.39-4.18l4.38-0.43l3.06-3.16l4.13,1.52l4.13-1.52l3.06,3.16l4.38,0.43
										l1.39,4.18l3.77,2.28l-0.56,4.37l2.4,3.69l-2.4,3.69l0.56,4.37l-3.77,2.28l-1.39,4.18l-4.38,0.43L210.83,365.63z
										 M195.83,361.15l4.11,0.4l2.87,2.97l3.88-1.43l3.88,1.43l2.87-2.97l4.11-0.4l1.3-3.92l3.53-2.14l-0.53-4.1l2.25-3.46
										l-2.25-3.46l0.53-4.1l-3.53-2.14l-1.3-3.92l-4.11-0.4l-2.88-2.97l-3.88,1.43l-3.88-1.43l-2.88,2.97l-4.11,0.4l-1.3,3.92
										l-3.53,2.14l0.53,4.1l-2.25,3.46l2.25,3.46l-0.53,4.1l3.53,2.14L195.83,361.15z" class="colordc604b svgShape"></path><circle cx="206.7" cy="347.52" r="11.25" fill="#b9cadc" class="colordcc9b9 svgShape"></circle></g><g fill="#000000" class="color000000 svgShape"><line x1="177" x2="168.77" y1="341.78" y2="333.55" fill="none"></line></g><g fill="#000000" class="color000000 svgShape"><path fill="#505051" d="M310.29,99.43c-3.57-12.34-14.93-21.37-28.42-21.37c-13.49,0-24.85,9.03-28.42,21.37h-24.89
							c-3.05,0-5.53,2.47-5.53,5.53v18.85c0,3.05,2.47,5.53,5.53,5.53h106.61c3.05,0,5.53-2.47,5.53-5.53v-18.85
							c0-3.05-2.47-5.53-5.53-5.53H310.29z" class="color505151 svgShape"></path><circle cx="281.87" cy="99.56" r="10.59" fill="#ecf3fb" class="colorfbf5ec svgShape"></circle></g><g fill="#000000" class="color000000 svgShape"><path fill="#192966" d="M184.08 363.15h-34.23v-9.01c0-2.71 2.2-4.91 4.91-4.91h24.41c2.71 0 4.91 2.2 4.91 4.91V363.15zM152.57 360.43h28.79v-6.29c0-1.21-.98-2.19-2.19-2.19h-24.41c-1.21 0-2.19.98-2.19 2.19V360.43zM206.36 411.5h-78.78c-2.37 0-4.3-1.92-4.3-4.3v-31.37h87.38v31.37C210.65 409.58 208.73 411.5 206.36 411.5z" class="color663c19 svgShape"></path><path fill="#374b96" d="M209.12,357.73h-84.3c-1.63,0-2.95,1.32-2.95,2.95v20.86l45.1,5.44l45.1-5.44v-20.86
					C212.07,359.05,210.75,357.73,209.12,357.73z" class="color966437 svgShape"></path><path fill="#375ce7" d="M166.97 393.67L166.97 393.67c-2.02 0-3.66-1.64-3.66-3.66v-6.32c0-2.02 1.64-3.66 3.66-3.66l0 0c2.02 0 3.66 1.64 3.66 3.66v6.32C170.63 392.03 168.99 393.67 166.97 393.67zM176.26 353.16h-18.59c-1.42 0-2.57-1.15-2.57-2.57v-.49c0-1.42 1.15-2.57 2.57-2.57h18.59c1.42 0 2.57 1.15 2.57 2.57v.49C178.83 352.01 177.68 353.16 176.26 353.16z" class="colore7a537 svgShape"></path></g><g fill="#000000" class="color000000 svgShape"><path fill="#91bce7" d="M69.94,391.51l1.47-11.85l16.26,3.89l-2.42,9.42c0,0-2.42,5.18-3.07,5.28c-0.65,0.1-6.88-1.56-6.88-1.56
							L69.94,391.51z" class="colore7a291 svgShape"></path><polygon fill="#91bce7" points="119.4 394.6 118.33 378.69 134.68 379.28 134.55 396.5 131.95 401.96 120.66 400.52" class="colore7a291 svgShape"></polygon><path fill="#505051" d="M95.29,353.23c2.95-11.27,6.44-25.05,7.92-37.93c1.48-12.88,5.77-34.22,5.77-34.22s3.62,38.67,4.82,49.21
							c0.75,6.63-0.21,30.26,3.79,61.99c0,0,18.34,5.18,18.54,0.58c0.26-5.69-0.72-27.42-0.66-31.3c0.2-12.3,1.11-29.18,0.98-31.88
							c-0.27-5.9-2.38-63.51-4.26-88.69l-39.77-0.5l-11.39,2.43c0,0-5.03,18.84-3.69,38.16s-0.62,38.26-0.62,38.26
							c-1.26,4.05-8.07,34.27-8.93,67.83c-0.05,2.05,19.34,5.37,19.88,3.16c0.98-4.01,2.92-16.82,4.28-23.35
							C92.32,365.21,94.59,355.89,95.29,353.23z" class="color505151 svgShape"></path><path fill="#021b79" d="M108.98,281.54c-0.03,0-0.06,0-0.09-0.01c-0.25-0.05-0.42-0.29-0.37-0.55l2.29-11.7
							c0.05-0.25,0.29-0.42,0.55-0.37c0.25,0.05,0.42,0.29,0.37,0.55l-2.29,11.7C109.39,281.39,109.19,281.54,108.98,281.54z" class="color252626 svgShape"></path><path fill="#021b79" d="M110.12 275.69c-.18 0-.36-.11-.43-.29-.1-.24.02-.51.25-.61.04-.02 4.25-1.76 5.93-3.15.2-.16.49-.14.66.06.16.2.14.49-.06.66-1.79 1.48-5.99 3.22-6.17 3.29C110.24 275.68 110.18 275.69 110.12 275.69zM119.4 394.6c0 0 10.85 5.05 15.15 1.9 0 0 5.76 7.33 10.73 10.99 4.97 3.66 12.1 5.08 11.63 8.61s-14.57.56-25.01-1.3-15.4-1.28-16.43-4.54C114.42 406.99 119.4 394.6 119.4 394.6zM69.94 391.51c0 0-4.24 11.24-2.52 15.45 1.72 4.21 21.9 16.12 27.82 13.3 5.92-2.83-2.14-8.27-4.89-15.06-2.76-6.79-5.09-12.21-5.09-12.21s-.43-.54-7.18.54C73.87 394.19 69.94 391.51 69.94 391.51z" class="color252626 svgShape"></path><path fill="#91bce7" d="M135.93,189.73c0,0,0.5,1.96,1.19,5.07l28.97-17.07l4.15,7.73c0,0-33.76,30.52-40.76,28.46
							c-7-2.07-20.3-29.92-20.3-29.92l8.12-10.97l0.61-7.6L135.93,189.73z" class="colore7a291 svgShape"></path><path fill="#90bbe6" d="M161.55,180.83c0,0,1.72-2.16,3.88-4.67c2.16-2.51,4.41-4.9,7.23-5.58
										c2.81-0.68,8.19-1.53,10.09-0.14s3.72,4.71,3.55,5.84c-0.17,1.13-1.03,1.18-1.03,1.18s1.16,1.35,1.21,2.35
										c0.05,1-0.73,1.23-0.73,1.23s1.3,1.63,0.95,2.49c-0.36,0.86-1.74,0.99-2.57,0c-0.83-0.99-4.3-3.02-5.75-2.45
										c-1.45,0.57-5.41,5.16-8.73,6.53c-2.13,0.88-3.66,0.61-3.66,0.61L161.55,180.83z" class="colore6a190 svgShape"></path><path fill="#0575e6" d="M185.27 177.84c-.1 0-.19-.04-.27-.11-1.16-1.19-3.14-3.06-3.8-3.32-.64-.25-2.9.04-4.18.28-.21.04-.4-.09-.44-.3-.04-.2.09-.4.3-.44.36-.07 3.54-.66 4.59-.24 1.02.4 3.75 3.18 4.06 3.49.14.15.14.38-.01.53C185.46 177.8 185.37 177.84 185.27 177.84zM185.75 181.41c-.1 0-.19-.04-.26-.11-.03-.03-3.09-3.03-5.89-2.91-.2 0-.38-.15-.39-.36-.01-.21.15-.38.36-.39 3.15-.12 6.32 2.99 6.45 3.13.15.15.15.38 0 .53C185.94 181.37 185.85 181.41 185.75 181.41z" class="colord4897c svgShape"></path><path fill="#90bbe6" d="M167.4,185.68l1.47-8.56l0.97-0.87c-0.05,0.04-0.11,0.09-0.16,0.13c-0.53,0.45-0.81,0.73-0.81,0.73
								s0.25-0.31,0.73-0.82c0.49-0.49,1.19-1.21,2.19-1.9c0.5-0.34,1.08-0.68,1.76-0.89c0.7-0.22,1.51-0.17,2.25,0.09
								c0.72,0.29,1.5,0.73,1.85,1.63c0.18,0.45-0.01,1.07-0.39,1.36c-0.38,0.32-0.77,0.43-1.08,0.63c-1.35,0.72-2.29,2-2.96,3.3
								c-0.36,0.65-0.61,1.29-0.95,1.92c-0.36,0.62-0.83,1.11-1.3,1.5c-0.76,0.62-1.51,0.98-2.11,1.24l-0.01,0l-0.02,0.01
								c-0.14,0.06-0.28,0.12-0.4,0.16C167.79,185.6,167.4,185.68,167.4,185.68z" class="colore6a190 svgShape"></path><g fill="#000000" class="color000000 svgShape"><path fill="#0575e6" d="M168.44,185.73c-0.15,0-0.29-0.09-0.35-0.23c-0.08-0.19,0.01-0.41,0.21-0.49l0.39-0.16
								c0.58-0.25,1.31-0.59,2.05-1.2c0.53-0.44,0.93-0.9,1.21-1.39c0.16-0.29,0.3-0.59,0.44-0.89c0.16-0.34,0.32-0.68,0.51-1.03
								c0.86-1.65,1.88-2.78,3.11-3.44c0.1-0.06,0.23-0.13,0.37-0.19c0.21-0.1,0.44-0.21,0.65-0.39c0.27-0.21,0.4-0.65,0.28-0.94
								c-0.31-0.81-1.04-1.18-1.64-1.42c-0.67-0.24-1.41-0.27-2.01-0.08c-0.67,0.21-1.22,0.54-1.67,0.84
								c-0.92,0.63-1.58,1.3-2.07,1.79c-0.52,0.55-0.76,0.85-0.76,0.85c-0.13,0.16-0.36,0.19-0.52,0.06
								c-0.16-0.13-0.19-0.36-0.06-0.52c0,0,0.26-0.32,0.75-0.84c0,0,0.07-0.07,0.07-0.07c0.5-0.51,1.19-1.2,2.18-1.88
								c0.5-0.33,1.11-0.7,1.87-0.94c0.76-0.24,1.65-0.2,2.49,0.09c0.7,0.28,1.65,0.76,2.07,1.85c0.24,0.59,0.01,1.4-0.51,1.79
								c-0.27,0.23-0.54,0.36-0.79,0.48c-0.11,0.06-0.22,0.11-0.32,0.17c-1.11,0.6-2.03,1.63-2.83,3.15
								c-0.19,0.34-0.34,0.67-0.49,0.99c-0.15,0.31-0.29,0.62-0.46,0.93c-0.33,0.58-0.78,1.1-1.39,1.61
								c-0.81,0.67-1.61,1.04-2.21,1.3l-0.43,0.18C168.54,185.72,168.49,185.73,168.44,185.73z" class="colord4897c svgShape"></path></g><g fill="#000000" class="color000000 svgShape"><path fill="#4b69dc" d="M136.55,189.44c0,0-6.9,4.13-19.51,9.32l-6.78-9.26l14.37-30.29
							C131.62,168.82,136.55,189.44,136.55,189.44z" class="colordc604b svgShape"></path></g><g fill="#000000" class="color000000 svgShape"><path fill="#4b69dc" d="M136.55,189.44l0.98,3.79l19.56-10.88c0,0,6.63,6.61,6.56,8.89c-0.07,2.28-26.89,24.95-32.97,23.51
							c-6.08-1.44-5.2-25.31-5.2-25.31H136.55z" class="colordc604b svgShape"></path></g><g fill="#000000" class="color000000 svgShape"><path fill="#91bce7" d="M120.89,164.8c-0.05-0.11-10.29,11.06-17.11,8.94c-7.62-2.39-11.91-19-11.91-19l1.63-14.34l0.01-0.25
								l0.01-0.93l1.51,0.52l5.99,2.08l2.4,0.84l6.14,2.14c0,0-0.11,5.32,0.69,8.57c0.09,0.34,0.85,5.15,0.85,5.15
								C112.69,161.72,120.84,164.79,120.89,164.8z" class="colore7a291 svgShape"></path><path fill="#91bce7" d="M92.57 154.4l-4.06 1.01-.12 11.49 10.65 9.64 8.67-.32 3.05-10c0 0-3.13-5.02-4-5.52C105.88 160.2 92.57 154.4 92.57 154.4zM116.85 135.34c-.71 7.93-2.75 16.05-10.36 15.91-5.32-.1-11.32-6.64-13.34-13.11-1.04-3.34-1.99-6.25-2.28-8.5-.23-1.78-.3-2.9-.3-2.9l.76-4.04.45-2.36c0 0 1.49-1.58 3.15-3.36 2.08-2.23 6.04.05 6.09-.09.07-.21 10.33-3.09 14.2.65.01.01.02.02.02.02.35.34.64.7.84 1.07.17.31.27.64.32.97.08.65.19 1.62.32 2.85.04.51.1 1.08.14 1.67.07 1.01.14 2.11.18 3.28C117.12 129.86 117.09 132.6 116.85 135.34z" class="colore7a291 svgShape"></path><path fill="#021b79" d="M116.42,139c-0.65,7.24-3.05,12.03-10.01,12.27c-6.66,0.25-11.08-6.31-12.92-12.22
								c0.36-1.51,0.46-5.13,0.46-5.13s1.33-2.84,1.32-2.75c-0.07,1.12,1.01,8.52,4.33,9.02c3.6,0.54,4.96,1.26,6.29,1.06
								c1.32-0.2,1.65-0.71,2.85-0.58c1.21,0.13,2.1,0.63,3.64,0.15C113.82,140.38,115.59,141.2,116.42,139z" class="color252626 svgShape"></path><path fill="#021b79" d="M90.51,129.61c0,0-3.53-16.67,6.28-18.01c0,0,7.15-4.61,16.27-0.88c5.99,2.45,4.89,9.44,4.65,11.84
								c-0.15,1.51-0.58,2.8-0.78,2.75c-0.57-0.14-0.82-1.6-2.73-0.88c-7.74,2.91-13.56-2.39-15.62-0.79
								c-2.06,1.61-5.09,15.41-5.09,15.41S92.23,132.89,90.51,129.61z" class="color252626 svgShape"></path><path fill="#91bce7" d="M92.65,130.81c0,0-4.85-2.57-4.29,2.03c0.57,4.6,5.13,6.21,5.13,6.21L92.65,130.81z" class="colore7a291 svgShape"></path><path fill="#7ca8d5" d="M91.66,132.39c0,0-3.69-0.76,0.38,3.87L91.66,132.39z" class="colord58a7c svgShape"></path><g fill="#000000" class="color000000 svgShape"><ellipse cx="112.49" cy="133.84" fill="#021b79" rx="1.26" ry=".73" transform="rotate(-81.721 112.482 133.838)" class="color252626 svgShape"></ellipse><ellipse cx="103.81" cy="133.6" fill="#021b79" rx="1.26" ry=".73" transform="rotate(-81.721 103.809 133.597)" class="color252626 svgShape"></ellipse><path fill="#021b79" d="M111.11 131.59c0 0 2.01-1.73 3.89-.9L111.11 131.59zM100.64 130.5c.17-.03 2.85-.7 4.59.93L100.64 130.5z" class="color252626 svgShape"></path><path fill="#7ca8d5" d="M108.66,139.78c-0.24,0-0.53-0.03-0.87-0.11c-0.16-0.04-0.26-0.2-0.23-0.36s0.2-0.26,0.36-0.23
									c0.79,0.19,1.31,0.11,1.43-0.21c0.14-0.36-0.16-0.99-0.59-1.23c-1.09-0.62-0.77-2.68-0.73-2.92
									c0.03-0.16,0.19-0.27,0.35-0.25c0.16,0.03,0.27,0.18,0.25,0.35c-0.08,0.48-0.18,1.94,0.43,2.29
									c0.63,0.35,1.13,1.27,0.86,1.97C109.82,139.37,109.51,139.78,108.66,139.78z" class="colord58a7c svgShape"></path><path fill="#d2dfec" d="M110.89,144.36c0,0-0.09,0.2-0.31,0.47c-0.38,0.49-1.16,1.18-2.47,1.2c-1.29,0.02-2.21-0.7-2.7-1.21
									c-0.27-0.29-0.42-0.52-0.42-0.52" class="colorecded2 svgShape"></path></g></g><g fill="#000000" class="color000000 svgShape"><path fill="#4b69dc" d="M79.23,212.23c2.4,12.81,1.8,30.69,1.8,30.69s38.74,4.81,51.76-2.24c0,0-3.61-33.59-3.77-63.23
						c-0.07-12.47-3.43-17.72-4.84-18.62c-3.18-2.33-10.04-4.25-13.42-3.93c0,0-0.99,5.61-3.94,4.99c-3.26-0.68-15.1-6.24-15.1-6.24
						C68.04,160.49,76.84,191.52,79.23,212.23z" class="colordc604b svgShape"></path></g><g fill="#000000" class="color000000 svgShape"><path fill="#3654c3" d="M130.66,214.46c-0.11,0-0.2-0.08-0.21-0.19c-1.06-14.4-1.58-26.1-1.64-36.82c0-0.75-0.02-1.5-0.05-2.22
						c0-0.11,0.08-0.21,0.2-0.21c0.11-0.02,0.21,0.08,0.21,0.2c0.03,0.72,0.04,1.48,0.05,2.24c0.06,10.71,0.58,22.4,1.63,36.79
						c0.01,0.11-0.08,0.21-0.19,0.22C130.67,214.46,130.66,214.46,130.66,214.46z" class="colorc34036 svgShape"></path></g><g fill="#000000" class="color000000 svgShape"><path fill="#021b79" d="M112.04,161.44v1.57c0,0,5.47,9.37,7.61,19.78c2.14,10.41,4.9,43.47,5.36,51.5l-3.44,4.29l-3.9-6.12
						c0,0-1.53-44.69-2.98-51.35c-1.45-6.66-5.93-16.87-5.93-16.87l-1.22-1.34l1.65-6.35l1.72,1.53L112.04,161.44z" class="color252626 svgShape"></path></g><g fill="#000000" class="color000000 svgShape"><path fill="#91bce7" d="M96.31,178.11c0,0,4.3,38.82,5.05,39.57c0.74,0.74,20.44,3.11,40.05-0.31l0.08,11.13
							c0,0-40.41,10.88-49.68,3.41c-9.28-7.47-12.8-30.22-13.79-41.29s3.25-6.87,7.97-9.95C90.71,177.59,96.31,178.11,96.31,178.11z
							" class="colore7a291 svgShape"></path><path fill="#91bce7" d="M137.34,218.42c0,0,4.28-3.87,6.17-4.37c1.89-0.49,4.35-0.93,6.44-1.35c2.09-0.42,3.65-1.44,3.93,0.1
								c0.27,1.54-4.9,3.35-4.9,3.35s3.12,0.29,7.06-0.67s7.65-2.72,8.75-1.29c0.7,0.91,0.02,1.58,0.02,1.58s1.8,0,2,0.86
								c0.21,0.86-1.32,1.77-1.32,1.77s1.03,0.66-0.42,2.53c-0.45,0.58-5.24,3.07-9.64,4.16c0,0,7.82-1.44,7.9-1.03
								c0.34,1.71-1.32,2.08-7.25,3.19s-15.19,1.54-15.19,1.54L137.34,218.42z" class="colore7a291 svgShape"></path><path fill="#7ca8d5" d="M150.83 224.69c-.14 0-.27-.1-.3-.25-.04-.17.07-.34.24-.37.01 0 1.04-.24 4.18-1.19 3.13-.96 10.32-4.72 10.4-4.76.15-.08.34-.02.42.13.08.15.02.34-.13.42-.3.16-7.31 3.83-10.5 4.8-3.17.97-4.19 1.2-4.23 1.21C150.87 224.69 150.85 224.69 150.83 224.69zM151.31 220.74c-.15 0-.28-.11-.31-.26-.03-.17.08-.33.25-.36 6.5-1.15 13.34-4.58 13.41-4.62.15-.08.34-.02.42.14s.02.34-.14.42c-.07.03-6.99 3.51-13.58 4.68C151.35 220.73 151.33 220.74 151.31 220.74z" class="colord58a7c svgShape"></path></g><g fill="#000000" class="color000000 svgShape"><path fill="#4b69dc" d="M99.23,196.67c0,0,2.32,19.62,2.54,19.99c0.22,0.37,19.64,2.56,31.03,1.53c0,0,3.04,5.37,1.46,12.73
						c0,0-31.83,8.3-43.66,1.29s-13.43-53.23-13.43-53.23l19.42-1.31L99.23,196.67z" class="colordc604b svgShape"></path></g><g fill="#000000" class="color000000 svgShape"><path fill="#3654c3" d="M105.02,235.2c-5.71,0-11.01-0.73-14.53-2.82c-4.39-2.6-7.88-10.71-10.37-24.12
						c-0.02-0.11,0.05-0.22,0.17-0.24c0.12-0.02,0.22,0.05,0.24,0.17c2.47,13.28,5.89,21.3,10.17,23.84
						c11.62,6.88,43.18-1.23,43.5-1.31c0.11-0.03,0.22,0.04,0.25,0.15c0.03,0.11-0.04,0.22-0.15,0.25
						C134.08,231.17,118.41,235.2,105.02,235.2z" class="colorc34036 svgShape"></path></g><g fill="#000000" class="color000000 svgShape"><path fill="#3654c3" d="M125.91,218.65c-10.65,0-24.01-1.35-24.33-1.89c-0.22-0.37-2.02-15.46-2.56-20.07
						c-0.01-0.11,0.07-0.22,0.18-0.23c0.11-0.01,0.22,0.07,0.23,0.18c0.89,7.53,2.26,18.83,2.5,19.87
						c1.36,0.44,19.79,2.46,30.84,1.47c0.12-0.02,0.21,0.07,0.22,0.19c0.01,0.11-0.07,0.21-0.19,0.22
						C130.8,218.58,128.43,218.65,125.91,218.65z" class="colorc34036 svgShape"></path></g><g fill="#000000" class="color000000 svgShape"><path fill="#3654c3" d="M108.36 156.01c0 0-3.33-1.99-6.2-3.41-2.87-1.42-9.9-3.32-9.9-3.32l-3.5 5.42c0 0 11.02 3.06 14.35 5.39s4.85 4.15 4.85 4.15l1.19-7.69L108.36 156.01zM109.17 156.54c0 0 .99-3.14.8-4.71l2.57 3.07-.5 6.54L109.17 156.54z" class="colorc34036 svgShape"></path></g><g fill="#000000" class="color000000 svgShape"><path fill="#3654c3" d="M95.85,219.56c-0.06,0-0.11-0.02-0.15-0.07c-0.08-0.09-0.07-0.22,0.02-0.29c1.91-1.69,5.83-2.7,6-2.75
						c0.11-0.03,0.22,0.04,0.25,0.15c0.03,0.11-0.04,0.22-0.15,0.25c-0.04,0.01-3.99,1.03-5.83,2.65
						C95.95,219.55,95.9,219.56,95.85,219.56z" class="colorc34036 svgShape"></path></g><g fill="#000000" class="color000000 svgShape"><path fill="#021b79" d="M80.76,243.99c0,0,35.15,4.49,51.41-1.7c0.18-0.07,0.36,0.06,0.37,0.24l0.25,5.5c0,0-10,3.27-27.72,3.17
					s-25.53-1.49-25.53-1.49L80.76,243.99z" class="color252626 svgShape"></path></g><g fill="#000000" class="color000000 svgShape"><rect width="2.66" height="8.36" x="85.46" y="243.99" fill="#505051" transform="rotate(180 86.789 248.173)" class="color505151 svgShape"></rect></g><g fill="#000000" class="color000000 svgShape"><rect width="2.66" height="7.13" x="102.89" y="245.22" fill="#505051" transform="rotate(-180 104.217 248.786)" class="color505151 svgShape"></rect></g><g fill="#000000" class="color000000 svgShape"><rect width="2.66" height="7.13" x="120.48" y="244.22" fill="#505051" transform="rotate(173.668 121.815 247.782)" class="color505151 svgShape"></rect></g></g><g fill="#000000" class="color000000 svgShape"><path fill="#b9cadc" d="M284.71,346.92v8.69c0,6.8,2.71,13.32,7.53,18.12l1.19,1.18c1.31,1.3,2.05,3.08,2.05,4.93l0,0
					c0,1.85-0.74,3.62-2.05,4.93l-1.19,1.18c-4.82,4.8-7.53,11.32-7.53,18.12v8.69h31.64v-8.69c0-6.8-2.71-13.32-7.53-18.12
					l-1.19-1.18c-1.31-1.3-2.05-3.08-2.05-4.93l0,0c0-1.85,0.74-3.62,2.05-4.93l1.19-1.18c4.82-4.8,7.53-11.32,7.53-18.12v-8.69
					H284.71z" class="colordcc9b9 svgShape"></path><path fill="#4b69dc" d="M313.81,404.07v6.15h-26.55v-6.15c0-1.54,0.86-4.24,6.18-10.31c5.31-6.07,4.54-12.95,4.54-12.95
					c0.03-0.32,0.05-0.64,0.05-0.97c0-2.51-1.02-4.96-2.8-6.73l-1.19-1.18c-1.84-1.83-3.33-3.92-4.46-6.24
					c1.67-0.62,5.96-1.75,11.26,0.32c2.99,1.17,6.68,1.32,9.89,1.11c-1.01,1.75-2.25,3.36-3.7,4.81l-1.19,1.18
					c-1.78,1.77-2.8,4.22-2.8,6.73c0,0.32,0.02,0.65,0.05,0.97c0,0-0.77,6.88,4.54,12.95C312.95,399.83,313.81,402.52,313.81,404.07
					z" class="colordc604b svgShape"></path><rect width="45.48" height="3.46" x="277.79" y="344.09" fill="#374b96" class="color966437 svgShape"></rect><path fill="#374b96" d="M328.15,339.63h-55.23l0,0c0,2.46,2,4.46,4.46,4.46h46.31C326.15,344.09,328.15,342.1,328.15,339.63
						L328.15,339.63z" class="color966437 svgShape"></path><rect width="45.48" height="3.46" x="277.79" y="412.76" fill="#374b96" class="color966437 svgShape"></rect><path fill="#374b96" d="M328.15,420.69h-55.23v0c0-2.46,2-4.46,4.46-4.46h46.31C326.15,416.22,328.15,418.22,328.15,420.69
						L328.15,420.69z" class="color966437 svgShape"></path><rect width="3.19" height="72.13" x="320.09" y="344.09" fill="#374b96" class="color966437 svgShape"></rect><rect width="3.19" height="72.13" x="277.79" y="344.09" fill="#374b96" class="color966437 svgShape"></rect><g fill="#000000" class="color000000 svgShape"><rect width="45.48" height=".58" x="277.79" y="344.09" fill="#192966" class="color663c19 svgShape"></rect></g><g fill="#000000" class="color000000 svgShape"><rect width="45.48" height=".58" x="277.79" y="415.64" fill="#192966" class="color663c19 svgShape"></rect></g></g><g fill="#000000" class="color000000 svgShape"><path fill="#3c4d8e" d="M423.44,317.87c0,0,13.6-10.21,6.63-14.79S423.44,317.87,423.44,317.87z" class="color898e3c svgShape"></path><path fill="#505051" d="M409.3,412.95c-0.09-17.6,1.13-35.24,3.78-52.67c1.4-8.7,3.11-17.36,5.32-25.89
							c1.12-4.26,2.32-8.5,3.71-12.68c1.37-4.19,2.86-8.34,4.65-12.36c0.56-1.24,0.67-1.24,0.1,0.04
							c-1.76,4.03-3.23,8.19-4.57,12.38c-1.37,4.19-2.55,8.43-3.65,12.69c-2.18,8.53-3.87,17.18-5.26,25.88
							c-2.64,17.41-3.91,35.02-3.95,52.62C409.39,414.43,409.29,414.35,409.3,412.95z" class="color505151 svgShape"></path><path fill="#3c4d8e" d="M414.47 325.31c0 0-1.71-16.92-9.23-13.32C397.72 315.6 414.47 325.31 414.47 325.31zM419.33 318.35c0 0 1.8-16.91-6.3-14.93C404.92 305.4 419.33 318.35 419.33 318.35zM423.64 325.05c0 0 15.06-13.94 19.67-6.99C447.92 325 423.64 325.05 423.64 325.05zM422 336.97c0 0 14.94-17.34 20.42-9.09C447.9 336.14 422 336.97 422 336.97zM414.47 336.91c0 0-4-16.53-10.96-11.94S414.47 336.91 414.47 336.91z" class="color898e3c svgShape"></path><path fill="#505051" d="M417.86 336.49c-.11-1.89-.64-3.72-1.23-5.51-.6-1.79-1.38-3.52-2.21-5.22-1.68-3.39-3.65-6.64-5.8-9.75-.17-.24-.1-.3.09-.06 2.25 3.05 4.28 6.28 5.97 9.69.83 1.71 1.61 3.45 2.18 5.27.57 1.81 1.05 3.67 1.1 5.58C417.99 336.8 417.89 336.79 417.86 336.49zM433.13 332.91c-2.8.48-5.47 1.51-8.07 2.65-2.6 1.16-5.13 2.46-7.6 3.88-.19.11-.25.03-.06-.09 2.41-1.52 4.93-2.89 7.54-4.05 2.61-1.15 5.33-2.14 8.17-2.5C433.35 332.76 433.35 332.86 433.13 332.91zM436.3 319.84c-5.1 2.26-10.26 4.41-15.45 6.45-.2.08-.25-.01-.04-.1 5.11-2.25 10.26-4.42 15.45-6.45C436.47 319.65 436.5 319.75 436.3 319.84z" class="color505151 svgShape"></path><path fill="#3c4d8e" d="M415.01,362.83c0,0,10.61-17.57,16.96-12.17C438.33,356.06,415.01,362.83,415.01,362.83z" class="color898e3c svgShape"></path><path fill="#505051" d="M425.73 354.31c-4.27 3.59-8.64 7.08-13.06 10.48-.17.13-.24.06-.07-.08 4.29-3.58 8.64-7.09 13.06-10.48C425.84 354.08 425.89 354.17 425.73 354.31zM404.62 326.75c2.59 1.76 4.92 3.9 6.95 6.29 2.04 2.38 3.83 4.97 5.29 7.74.11.22.03.27-.09.05-1.55-2.71-3.39-5.25-5.41-7.61-2.02-2.37-4.29-4.53-6.79-6.38C404.35 326.68 404.42 326.6 404.62 326.75z" class="color505151 svgShape"></path><path fill="#3c4d8e" d="M410.06,366.84c0,0-0.61-17-8.35-13.89S410.06,366.84,410.06,366.84z" class="color898e3c svgShape"></path><path fill="#505051" d="M402.45,354.91c2.18,2.24,4.04,4.8,5.55,7.55c1.52,2.74,2.76,5.64,3.63,8.64
							c0.06,0.23-0.03,0.27-0.1,0.03c-0.98-2.96-2.27-5.82-3.78-8.54c-1.5-2.73-3.29-5.3-5.38-7.61
							C402.2,354.79,402.28,354.73,402.45,354.91z" class="color505151 svgShape"></path><path fill="#3c4d8e" d="M417.74,346.79c0,0,2.59-5.33,6.4-7.51s8.58-2.87,9.37,1.11C434.69,346.25,425.36,345.34,417.74,346.79z" class="color898e3c svgShape"></path><path fill="#505051" d="M428.95 340.81c-2.92.87-5.73 2.1-8.25 3.81-2.48 1.71-4.73 3.94-5.89 6.76-.08.22-.18.2-.1-.03 1.07-2.91 3.32-5.23 5.83-6.96 2.55-1.73 5.42-2.92 8.38-3.68C429.16 340.63 429.18 340.73 428.95 340.81zM414.41 307.52c1.82 2.55 3.26 5.36 4.34 8.31 1.08 2.94 1.87 5.99 2.27 9.1.03.24-.07.26-.11.01-.52-3.08-1.36-6.09-2.44-9.01-1.07-2.92-2.45-5.73-4.16-8.34C414.18 307.36 414.27 307.32 414.41 307.52z" class="color505151 svgShape"></path><g fill="#000000" class="color000000 svgShape"><path fill="#3c4d8e" d="M393.52 335.27c0 0-.47-17-8.23-13.96S393.52 335.27 393.52 335.27zM399.24 350.24c0 0-.9-16.98 7.08-14.58C414.3 338.07 399.24 350.24 399.24 350.24z" class="color898e3c svgShape"></path><path fill="#505051" d="M405.84,337.74c-1.85,2.47-3.4,5.15-4.65,7.97c-1.26,2.81-2.29,5.74-3,8.73
							c-0.05,0.23-0.15,0.22-0.1-0.02c0.61-3.04,1.58-6,2.84-8.83c1.25-2.83,2.86-5.52,4.82-7.92
							C405.92,337.47,405.99,337.54,405.84,337.74z" class="color505151 svgShape"></path><path fill="#3c4d8e" d="M396.8,366.26c0,0-8.5-14.73-13.88-8.36C377.54,364.26,396.8,366.26,396.8,366.26z" class="color898e3c svgShape"></path><path fill="#505051" d="M384.49,359.28c2.98,0.96,5.82,2.35,8.44,4.07c2.62,1.71,5.08,3.69,7.26,5.94
							c0.17,0.18,0.1,0.25-0.08,0.07c-2.25-2.16-4.73-4.08-7.34-5.77c-2.61-1.7-5.39-3.14-8.32-4.21
							C384.21,359.29,384.26,359.2,384.49,359.28z" class="color505151 svgShape"></path><path fill="#3c4d8e" d="M394.09,342.94c0,0-2.25-5.49-5.91-7.91c-3.66-2.42-8.37-3.41-9.42,0.5
						C377.21,341.31,386.58,341,394.09,342.94z" class="color898e3c svgShape"></path><path fill="#505051" d="M383.32,336.14c2.9,0.95,5.7,2.32,8.13,4.21c2.4,1.89,4.49,4.35,5.37,7.32c0.06,0.23-0.04,0.26-0.1,0.03
							c-0.97-2.89-3.08-5.27-5.44-7.13c-2.4-1.86-5.13-3.27-7.99-4.33C383.05,336.15,383.1,336.06,383.32,336.14z" class="color505151 svgShape"></path><path fill="#505051" d="M389.34,325.78c3.08,5.55,5.03,11.64,6.6,17.77c1.55,6.15,2.68,12.4,3.58,18.67
							c1.8,12.56,2.67,25.22,3.13,37.87c0.04,0.98-0.06,1.01-0.11,0c-0.57-12.65-1.51-25.3-3.31-37.84
							c-0.91-6.27-2.02-12.51-3.54-18.65c-1.54-6.12-3.44-12.21-6.46-17.77C388.75,324.89,388.87,324.89,389.34,325.78z" class="color505151 svgShape"></path></g><g fill="#000000" class="color000000 svgShape"><path fill="#505051" d="M399.97,415.16h10.91c4.3,0,7.79-3.49,7.79-7.79v-28.63h-26.48v28.63
					C392.18,411.67,395.67,415.16,399.97,415.16z" class="color505151 svgShape"></path></g></g></g></svg>