<svg xmlns="http://www.w3.org/2000/svg" data-name="Layer 1" viewBox="0 0 250 250" id="Manworkingonroutinemaintenance"><defs><clipPath id="a"><path fill="none" d="M-247.34,118.79c-7,36.54,19,67.72,74.68,67.48s20.34,45.31,66.84,48.16,69.16-25.62,63.4-88.81S-49.21,8.31-145,31.77C-205.47,46.57-240.79,84.56-247.34,118.79Z"></path></clipPath></defs><path fill="#e6eaef" d="M53.38,205.49c40.52,38.87,119.92,20.67,160.51,0S224.58,135.19,235.31,93C244.43,57.2,208.85,25.55,174.54,27c-.6,0-1.21.06-1.82.11A49.73,49.73,0,0,0,156.64,31c-38.16,16.54-41.22,26.92-76.8,25.64C-12,53.31,12.86,166.62,53.38,205.49Z" class="colore6ebef svgShape"></path><path fill="#e6eaef" d="M53.38,205.49c40.52,38.87,119.92,20.67,160.51,0S224.58,135.19,235.31,93C244.43,57.2,208.85,25.55,174.54,27c-.6,0-1.21.06-1.82.11A49.73,49.73,0,0,0,156.64,31c-38.16,16.54-41.22,26.92-76.8,25.64C-12,53.31,12.86,166.62,53.38,205.49Z" class="colore6ebef svgShape"></path><path fill="#e6eaef" d="M81.86,41.34a3.47,3.47,0,0,0,2.65,3.82,46.14,46.14,0,0,0,44.37-13.7C148.76,10.48,84.36,21.85,81.86,41.34Z" class="colore6ebef svgShape"></path><rect width="189.8" height="1.44" x="30.81" y="228.33" fill="#021b79" class="color1e3d50 svgShape"></rect><path fill="#aab6c2" d="M68.85,166.44H51v-9.77H68.85Zm-16.8-1H67.83v-7.73H52.05Z" class="coloraab6c2 svgShape"></path><path fill="#aab6c2" d="M56.65 175.18H38.82v-9.76H56.65zm-16.81-1H55.62v-7.72H39.84zM112.81 82.5H95V72.73h17.82zm-16.8-1h15.78V73.76H96zM205.8 180.53H188v-9.77H205.8zm-16.8-1h15.78v-7.72H189zM144.14 190.32H126.31v-9.76h17.83zm-16.81-1h15.79v-7.72H127.33z" class="coloraab6c2 svgShape"></path><path fill="#aab6c2" d="M127.32,190.32H109.49v-9.76h17.83Zm-16.81-1h15.78v-7.72H110.51Z" class="coloraab6c2 svgShape"></path><path fill="#aab6c2" d="M135.74 199.07H117.91V189.3h17.83zm-16.81-1h15.78v-7.73H118.93zM170 134.15H152.16v-9.77H170zm-16.81-1H169v-7.72H153.18z" class="coloraab6c2 svgShape"></path><path fill="#aab6c2" d="M182.19 142.9H164.37v-9.77h17.82zm-16.8-1h15.78v-7.72H165.39zM199.77 94H182V84.21h17.82zM183 93h15.78V85.23H183z" class="coloraab6c2 svgShape"></path><path fill="#aab6c2" d="M183,94H165.13V84.21H183Zm-16.8-1h15.78V85.23H166.15Z" class="coloraab6c2 svgShape"></path><path fill="#aab6c2" d="M191.37,102.72H173.55V93h17.82Zm-16.8-1h15.78V94H174.57Z" class="coloraab6c2 svgShape"></path><path fill="#0575e6" d="M146.9,188.93l1.29-8.09-5-1.25a20.76,20.76,0,0,0-1.68-7l3.92-3.39-4.81-6.63-4.45,2.67a20.6,20.6,0,0,0-6.12-3.76l.37-5.17-8.1-1.29-1.25,5a20.74,20.74,0,0,0-7,1.67l-3.39-3.92L104,162.62l2.68,4.45a20.76,20.76,0,0,0-3.77,6.13l-5.17-.37-1.29,8.09,5,1.26a21,21,0,0,0,1.67,7l-3.92,3.39,4.81,6.63,4.45-2.67a20.78,20.78,0,0,0,6.13,3.76l-.37,5.17,8.09,1.29,1.26-5a20.45,20.45,0,0,0,7-1.67L134,204l6.63-4.81L138,194.69a20.73,20.73,0,0,0,3.76-6.12ZM120,195.49a14.79,14.79,0,1,1,16.93-12.29A14.79,14.79,0,0,1,120,195.49Z" class="color609a8b svgShape"></path><polygon fill="#1e284c" points="99.85 181.95 96.27 181.06 97.24 174.95 97.6 175.01 96.68 180.78 99.94 181.6 99.85 181.95" class="color351e4c svgShape"></polygon><path fill="#1e284c" d="M114.46,205.47l-.36,0,.36-5a17.14,17.14,0,0,1-4.76-2.7l.23-.28a16.48,16.48,0,0,0,4.77,2.68l.14,0Z" class="color351e4c svgShape"></path><path fill="#021b79" d="M132.31,192l-.25-.26c8.5-7.94,3.31-17.5,3.26-17.6l.31-.17C135.69,174.11,141,183.91,132.31,192Z" class="color1e3d50 svgShape"></path><path fill="#1e284c" d="M142.59,176.44a30.64,30.64,0,0,0-1.28-3.77l-.05-.13,1.44-1.24.24.27-1.25,1.08a31.31,31.31,0,0,1,1.25,3.7Z" class="color351e4c svgShape"></path><path fill="#021b79" d="M124.54,206.07l-8.42-1.34.37-5.21a19.81,19.81,0,0,1-6-3.65l-4.47,2.68-5-6.89,3.95-3.42a21,21,0,0,1-1.63-6.81l-5.07-1.26,1.34-8.42,5.21.37a19.9,19.9,0,0,1,3.65-6l-2.68-4.46,6.9-5,3.41,3.93a17.1,17.1,0,0,1,6.81-1.62l1.26-5.07,8.43,1.34-.38,5.21a19.28,19.28,0,0,1,6,3.66l4.47-2.69,5,6.9-3.95,3.41a17.91,17.91,0,0,1,1.63,6.81l5.07,1.26-1.34,8.43-5.2-.37a18.73,18.73,0,0,1-3.67,6l2.69,4.47-6.89,5-3.42-3.94A16.1,16.1,0,0,1,125.8,201Zm-8-1.64,7.77,1.24,1.25-5h.14a15.55,15.55,0,0,0,6.91-1.65l.12-.08,3.39,3.91,6.37-4.62-2.66-4.42.09-.1a18.07,18.07,0,0,0,3.72-6.06l.05-.13,5.15.36,1.23-7.77-5-1.25v-.13a17.56,17.56,0,0,0-1.66-6.92l-.06-.13,3.9-3.38-4.62-6.36-4.42,2.66-.1-.1a18.92,18.92,0,0,0-6.06-3.72l-.13,0,.36-5.15-7.77-1.23-1.25,5h-.13a16.47,16.47,0,0,0-6.92,1.66l-.12.07-3.39-3.91-6.36,4.62,2.66,4.43-.11.1c-2.09,1.93-3.7,6-3.71,6.06l0,.13-5.15-.37L98.7,179.9l5,1.25v.13a20.26,20.26,0,0,0,1.66,6.93l.06.12-3.9,3.38,4.62,6.37,4.42-2.66.1.09a19.86,19.86,0,0,0,6.07,3.73l.12,0Z" class="color1e3d50 svgShape"></path><path fill="#021b79" d="M126.44,194.84a15,15,0,1,1,12.77-16.92A15,15,0,0,1,126.44,194.84Zm-4.1-29.33A14.63,14.63,0,1,0,138.85,178,14.65,14.65,0,0,0,122.34,165.51Z" class="color1e3d50 svgShape"></path><path fill="#0575e6" d="M113.94,60.52l.8-5.06-3.15-.78a12.73,12.73,0,0,0-1-4.37L113,48.19,110,44l-2.78,1.68a12.83,12.83,0,0,0-3.83-2.35l.23-3.24-5.06-.8-.78,3.14a13.14,13.14,0,0,0-4.37,1.05l-2.13-2.45-4.14,3,1.67,2.78a13.12,13.12,0,0,0-2.35,3.83l-3.23-.23-.81,5.06,3.15.78a13,13,0,0,0,1,4.37l-2.45,2.12,3,4.14,2.78-1.67a13,13,0,0,0,3.83,2.35l-.23,3.24,5.06.8.79-3.14a13.08,13.08,0,0,0,4.36-1.05l2.13,2.45,4.14-3-1.67-2.78a12.71,12.71,0,0,0,2.35-3.83Zm-16.81,4.1a9.24,9.24,0,1,1,10.58-7.68A9.25,9.25,0,0,1,97.13,64.62Z" class="color609a8b svgShape"></path><polygon fill="#1e284c" points="84.53 56.16 82.29 55.6 82.89 51.78 83.12 51.82 82.54 55.43 84.58 55.94 84.53 56.16" class="color351e4c svgShape"></polygon><path fill="#1e284c" d="M93.66,70.86l-.23,0,.22-3.15a10.49,10.49,0,0,1-3-1.68l.15-.17a10.46,10.46,0,0,0,3,1.67l.08,0Z" class="color351e4c svgShape"></path><path fill="#021b79" d="M104.81,62.47l-.15-.17a9.18,9.18,0,0,0,2-11l.2-.11A9.43,9.43,0,0,1,104.81,62.47Z" class="color1e3d50 svgShape"></path><path fill="#1e284c" d="M111.24,52.72a22.61,22.61,0,0,0-.8-2.37l0-.07.9-.78.15.17-.78.67a20.47,20.47,0,0,1,.78,2.32Z" class="color351e4c svgShape"></path><path fill="#021b79" d="M100,71.24l-5.27-.84.23-3.26a12.52,12.52,0,0,1-3.73-2.28L88.4,66.54l-3.13-4.31,2.47-2.14a13.05,13.05,0,0,1-1-4.25l-3.17-.79.84-5.27,3.25.23a12.44,12.44,0,0,1,2.29-3.73l-1.68-2.79,4.31-3.13,2.13,2.46a10.61,10.61,0,0,1,4.26-1l.79-3.17,5.26.84-.23,3.25A12,12,0,0,1,108.5,45l2.8-1.68,3.13,4.31L112,49.78A11.5,11.5,0,0,1,113,54l3.17.79-.84,5.26-3.25-.23a11.72,11.72,0,0,1-2.29,3.73l1.68,2.8-4.31,3.12L105,67.05a9.89,9.89,0,0,1-4.25,1Zm-5-1,4.86.77.78-3.13h.09a9.58,9.58,0,0,0,4.31-1l.08,0,2.12,2.44,4-2.89-1.66-2.76.05-.06a11.19,11.19,0,0,0,2.33-3.79l0-.08,3.22.23.77-4.86-3.13-.78v-.09a11,11,0,0,0-1-4.32l0-.08,2.44-2.12-2.88-4-2.77,1.66-.06-.06a12.1,12.1,0,0,0-3.79-2.33l-.08,0,.23-3.21-4.86-.78L99.13,42H99a10.4,10.4,0,0,0-4.32,1l-.08,0-2.12-2.45-4,2.89,1.66,2.77-.06.06a12.4,12.4,0,0,0-2.33,3.79l0,.08L84.58,50l-.78,4.86,3.13.78v.08a12.39,12.39,0,0,0,1,4.33l0,.08-2.44,2.11,2.89,4,2.77-1.66.06.06A12.11,12.11,0,0,0,95.08,67l.08,0Z" class="color1e3d50 svgShape"></path><path fill="#021b79" d="M101.15,64.21a9.37,9.37,0,1,1,8-10.57A9.38,9.38,0,0,1,101.15,64.21ZM98.58,45.88a9.14,9.14,0,1,0,10.32,7.79A9.15,9.15,0,0,0,98.58,45.88Z" class="color1e3d50 svgShape"></path><path fill="#0575e6" d="M242,104.52l1.28-8.09-5-1.26a20.7,20.7,0,0,0-1.68-7l3.92-3.4-4.81-6.62-4.44,2.67a20.78,20.78,0,0,0-6.13-3.76l.37-5.18-8.1-1.28-1.25,5a20.76,20.76,0,0,0-7,1.68l-3.4-3.92-6.63,4.81,2.68,4.44A20.78,20.78,0,0,0,198,88.78l-5.18-.37-1.28,8.1,5,1.25a20.76,20.76,0,0,0,1.68,7l-3.92,3.4,4.81,6.63,4.44-2.68a20.57,20.57,0,0,0,6.13,3.76l-.37,5.18,8.1,1.28,1.25-5a20.7,20.7,0,0,0,7-1.68l3.4,3.93,6.62-4.82-2.67-4.44a20.78,20.78,0,0,0,3.76-6.13Zm-26.9,6.56A14.79,14.79,0,1,1,232,98.79,14.8,14.8,0,0,1,215.11,111.08Z" class="color609a8b svgShape"></path><polygon fill="#1e284c" points="192.7 90.59 192.34 90.54 191.37 96.64 194.95 97.54 195.04 97.19 191.78 96.37 192.7 90.59" class="color351e4c svgShape"></polygon><path fill="#1e284c" d="M205,113l-.23.28a17.15,17.15,0,0,0,4.76,2.69l-.36,5,.36,0,.38-5.31-.14,0A16.75,16.75,0,0,1,205,113Z" class="color351e4c svgShape"></path><path fill="#021b79" d="M230.42,89.77c.05.1,5.25,9.65-3.26,17.6l.25.26c8.71-8.13,3.38-17.94,3.33-18Z" class="color1e3d50 svgShape"></path><path fill="#1e284c" d="M237.8,86.88l-1.44,1.25,0,.12A32,32,0,0,1,237.69,92l.35-.1a35,35,0,0,0-1.24-3.7L238,87.16Z" class="color351e4c svgShape"></path><path fill="#021b79" d="M238.85,87.34l3.94-3.42-5-6.89-4.47,2.68a19.08,19.08,0,0,0-6-3.65l.37-5.21-8.43-1.34L218,74.57a17,17,0,0,0-6.81,1.63l-3.41-3.94-6.9,5,2.69,4.46a19.65,19.65,0,0,0-3.66,6l-5.21-.38-1.34,8.43L198.46,97a21.07,21.07,0,0,0,1.63,6.81l-3.94,3.41,5,6.9,4.47-2.69a19.82,19.82,0,0,0,6,3.66l-.37,5.21,8.42,1.34,1.27-5.07a16,16,0,0,0,6.81-1.62l3.41,3.94,6.9-5-2.69-4.47a18.72,18.72,0,0,0,3.66-6l5.21.37,1.33-8.42-5.06-1.26A18.2,18.2,0,0,0,238.85,87.34Zm5.05,16.11-5.15-.37,0,.14a18.41,18.41,0,0,1-3.73,6.06l-.09.1,2.66,4.42-6.36,4.62-3.39-3.91-.13.08a15.55,15.55,0,0,1-6.91,1.65h-.14l-1.24,5L211.6,120l.37-5.15-.13-.05a19.5,19.5,0,0,1-6.07-3.72l-.1-.1-4.42,2.66-4.62-6.36,3.9-3.38-.06-.12a20.53,20.53,0,0,1-1.66-6.93v-.13l-5-1.25L195,87.72l5.14.36,0-.12s1.62-4.14,3.72-6.06l.1-.1-2.66-4.44,6.36-4.61,3.39,3.9.13-.07a16.61,16.61,0,0,1,6.91-1.65h.13l1.25-5,7.78,1.24L227,76.3l.13,0a19.25,19.25,0,0,1,6.06,3.73l.1.1,4.43-2.67,4.62,6.37-3.91,3.38.07.13a17.58,17.58,0,0,1,1.65,6.91v.14l5,1.25Z" class="color1e3d50 svgShape"></path><path fill="#021b79" d="M217.39,80.75a15,15,0,1,0,16.92,12.76A15,15,0,0,0,217.39,80.75Zm4.11,29.32A14.63,14.63,0,1,1,234,93.56,14.64,14.64,0,0,1,221.5,110.07Z" class="color1e3d50 svgShape"></path><rect width="19.92" height="177.2" x="193.36" y="51.34" fill="#021b79" class="color1e3d50 svgShape"></rect><path fill="#ffffff" d="M126.92,228.32h70.9V51.56h-70.9Zm4.24-169.86h62.41V82.85H131.16Zm0,27.63h62.41v24.39H131.16Zm0,27.62h62.41V138.1H131.16Zm0,27.62h62.41v24.39H131.16Zm0,27.63h62.41v24.39H131.16Zm0,27.62h62.41V221H131.16Z" class="colorffffff svgShape"></path><path fill="#021b79" d="M193.35 83.07h.44V58.24H130.94V83.07h62.41zm-62-24.39h62V82.63h-62zM193.35 110.7h.44V85.87H130.94V110.7h62.41zm-62-24.4h62v24h-62zM193.35 193.57h.44V168.74H130.94v24.83h62.41zm-62-24.39h62v23.95h-62zM193.35 165.94h.44V141.11H130.94v24.83h62.41zm-62-24.39h62v24h-62zM193.35 221.19h.44V196.36H130.94v24.83h62.41zm-62-24.39h62v23.95h-62zM193.35 138.32h.44V113.49H130.94v24.83h62.41zm-62-24.39h62v23.95h-62z" class="color1e3d50 svgShape"></path><path fill="#021b79" d="M126.7,54V228.54H198V51.34H126.7Zm.44,166.76v-169H197.6V228.11H127.14Z" class="color1e3d50 svgShape"></path><rect width="61.97" height="23.95" x="131.38" y="58.68" fill="#aab6c2" class="coloraab6c2 svgShape"></rect><rect width="22.21" height="19.6" x="134.4" y="60.86" fill="#021b79" rx=".91" class="color1e3d50 svgShape"></rect><rect width="2.72" height="19.6" x="187.48" y="60.86" fill="#62a9f0" rx=".32" class="colorf0c562 svgShape"></rect><rect width="18.37" height="3.67" x="136.46" y="62.82" fill="#ffffff" rx="1.6" class="colorffffff svgShape"></rect><rect width="18.37" height="3.67" x="136.46" y="62.82" fill="#ffffff" rx="1.6" class="colorffffff svgShape"></rect><rect width="10.61" height="1.29" x="140.34" y="64.02" fill="#021b79" class="color1e3d50 svgShape"></rect><rect width="8.16" height="4.21" x="159.16" y="62.46" fill="#021b79" class="color1e3d50 svgShape"></rect><rect width="8.16" height="4.21" x="170.94" y="62.46" fill="#021b79" class="color1e3d50 svgShape"></rect><rect width="11.99" height="4.21" x="172.83" y="69.33" fill="#021b79" class="color1e3d50 svgShape"></rect><rect width="10.16" height="1.55" x="173.74" y="70.66" fill="#ffffff" class="colorffffff svgShape"></rect><rect width="11.99" height="4.21" x="172.83" y="75.77" fill="#021b79" class="color1e3d50 svgShape"></rect><rect width="10.16" height="1.55" x="173.74" y="77.1" fill="#ffffff" class="colorffffff svgShape"></rect><rect width="18.37" height="3.67" x="136.46" y="68.82" fill="#ffffff" rx="1.6" class="colorffffff svgShape"></rect><rect width="18.37" height="3.67" x="136.46" y="74.82" fill="#ffffff" rx="1.6" class="colorffffff svgShape"></rect><rect width="10.61" height="1.29" x="140.34" y="70.01" fill="#021b79" class="color1e3d50 svgShape"></rect><rect width="10.61" height="1.29" x="140.34" y="76.01" fill="#021b79" class="color1e3d50 svgShape"></rect><path fill="#62a9f0" d="M160.73,70.41a1.36,1.36,0,1,0,1.3,1.36A1.33,1.33,0,0,0,160.73,70.41Z" class="colorf0c562 svgShape"></path><path fill="#ffffff" d="M165,70.41a1.36,1.36,0,1,0,1.3,1.36A1.33,1.33,0,0,0,165,70.41Z" class="colorffffff svgShape"></path><path fill="#62a9f0" d="M169.36,70.41a1.36,1.36,0,1,0,1.29,1.36A1.33,1.33,0,0,0,169.36,70.41Z" class="colorf0c562 svgShape"></path><path fill="#ffffff" d="M183.48 62.76a1.8 1.8 0 101.72 1.8A1.76 1.76 0 00183.48 62.76zM160.73 75.6A1.36 1.36 0 10162 77 1.33 1.33 0 00160.73 75.6z" class="colorffffff svgShape"></path><path fill="#62a9f0" d="M165,75.6a1.36,1.36,0,1,0,1.3,1.36A1.33,1.33,0,0,0,165,75.6Z" class="colorf0c562 svgShape"></path><path fill="#ffffff" d="M169.36,75.6A1.36,1.36,0,1,0,170.65,77,1.33,1.33,0,0,0,169.36,75.6Z" class="colorffffff svgShape"></path><rect width="61.97" height="23.95" x="131.38" y="86.3" fill="#aab6c2" class="coloraab6c2 svgShape"></rect><rect width="22.21" height="19.6" x="134.4" y="88.48" fill="#021b79" rx=".91" class="color1e3d50 svgShape"></rect><rect width="2.72" height="19.6" x="187.48" y="88.48" fill="#62a9f0" rx=".32" class="colorf0c562 svgShape"></rect><rect width="18.37" height="3.67" x="136.46" y="90.45" fill="#ffffff" rx="1.6" class="colorffffff svgShape"></rect><rect width="18.37" height="3.67" x="136.46" y="90.45" fill="#ffffff" rx="1.6" class="colorffffff svgShape"></rect><rect width="10.61" height="1.29" x="140.34" y="91.64" fill="#021b79" class="color1e3d50 svgShape"></rect><rect width="8.16" height="4.21" x="159.16" y="90.08" fill="#021b79" class="color1e3d50 svgShape"></rect><rect width="8.16" height="4.21" x="170.94" y="90.08" fill="#021b79" class="color1e3d50 svgShape"></rect><rect width="11.99" height="4.21" x="172.83" y="96.95" fill="#021b79" class="color1e3d50 svgShape"></rect><rect width="10.16" height="1.55" x="173.74" y="98.28" fill="#ffffff" class="colorffffff svgShape"></rect><rect width="11.99" height="4.21" x="172.83" y="103.39" fill="#021b79" class="color1e3d50 svgShape"></rect><rect width="10.16" height="1.55" x="173.74" y="104.72" fill="#ffffff" class="colorffffff svgShape"></rect><rect width="18.37" height="3.67" x="136.46" y="96.44" fill="#ffffff" rx="1.6" class="colorffffff svgShape"></rect><rect width="18.37" height="3.67" x="136.46" y="102.44" fill="#ffffff" rx="1.6" class="colorffffff svgShape"></rect><rect width="10.61" height="1.29" x="140.34" y="97.64" fill="#021b79" class="color1e3d50 svgShape"></rect><rect width="10.61" height="1.29" x="140.34" y="103.63" fill="#021b79" class="color1e3d50 svgShape"></rect><path fill="#62a9f0" d="M160.73,98a1.35,1.35,0,1,0,1.3,1.35A1.32,1.32,0,0,0,160.73,98Z" class="colorf0c562 svgShape"></path><path fill="#ffffff" d="M165,98a1.35,1.35,0,1,0,1.3,1.35A1.32,1.32,0,0,0,165,98Z" class="colorffffff svgShape"></path><path fill="#62a9f0" d="M169.36,98a1.35,1.35,0,1,0,1.29,1.35A1.32,1.32,0,0,0,169.36,98Z" class="colorf0c562 svgShape"></path><path fill="#ffffff" d="M183.48,90.39a1.8,1.8,0,1,0,1.72,1.8A1.76,1.76,0,0,0,183.48,90.39Z" class="colorffffff svgShape"></path><ellipse cx="160.73" cy="104.58" fill="#ffffff" rx="1.3" ry="1.35" class="colorffffff svgShape"></ellipse><path fill="#62a9f0" d="M165,103.23a1.35,1.35,0,1,0,1.3,1.35A1.32,1.32,0,0,0,165,103.23Z" class="colorf0c562 svgShape"></path><path fill="#ffffff" d="M169.36,103.23a1.35,1.35,0,1,0,1.29,1.35A1.32,1.32,0,0,0,169.36,103.23Z" class="colorffffff svgShape"></path><rect width="61.97" height="23.95" x="131.38" y="141.55" fill="#aab6c2" class="coloraab6c2 svgShape"></rect><rect width="22.21" height="19.6" x="134.4" y="143.73" fill="#021b79" rx=".91" class="color1e3d50 svgShape"></rect><rect width="2.72" height="19.6" x="187.48" y="143.73" fill="#62a9f0" rx=".32" class="colorf0c562 svgShape"></rect><rect width="18.37" height="3.67" x="136.46" y="145.69" fill="#ffffff" rx="1.6" class="colorffffff svgShape"></rect><rect width="18.37" height="3.67" x="136.46" y="145.69" fill="#ffffff" rx="1.6" class="colorffffff svgShape"></rect><rect width="10.61" height="1.29" x="140.34" y="146.89" fill="#021b79" class="color1e3d50 svgShape"></rect><rect width="8.16" height="4.21" x="159.16" y="145.33" fill="#021b79" class="color1e3d50 svgShape"></rect><rect width="8.16" height="4.21" x="170.94" y="145.33" fill="#021b79" class="color1e3d50 svgShape"></rect><rect width="11.99" height="4.21" x="172.83" y="152.2" fill="#021b79" class="color1e3d50 svgShape"></rect><rect width="10.16" height="1.54" x="173.74" y="153.53" fill="#ffffff" class="colorffffff svgShape"></rect><rect width="11.99" height="4.21" x="172.83" y="158.64" fill="#021b79" class="color1e3d50 svgShape"></rect><rect width="10.16" height="1.55" x="173.74" y="159.97" fill="#ffffff" class="colorffffff svgShape"></rect><rect width="18.37" height="3.67" x="136.46" y="151.69" fill="#ffffff" rx="1.6" class="colorffffff svgShape"></rect><rect width="18.37" height="3.67" x="136.46" y="157.69" fill="#ffffff" rx="1.6" class="colorffffff svgShape"></rect><rect width="10.61" height="1.29" x="140.34" y="152.88" fill="#021b79" class="color1e3d50 svgShape"></rect><rect width="10.61" height="1.29" x="140.34" y="158.88" fill="#021b79" class="color1e3d50 svgShape"></rect><path fill="#62a9f0" d="M160.73,153.28a1.36,1.36,0,1,0,1.3,1.36A1.33,1.33,0,0,0,160.73,153.28Z" class="colorf0c562 svgShape"></path><path fill="#ffffff" d="M165,153.28a1.36,1.36,0,1,0,1.3,1.36A1.33,1.33,0,0,0,165,153.28Z" class="colorffffff svgShape"></path><path fill="#62a9f0" d="M169.36,153.28a1.36,1.36,0,1,0,1.29,1.36A1.33,1.33,0,0,0,169.36,153.28Z" class="colorf0c562 svgShape"></path><path fill="#ffffff" d="M183.48 145.63a1.8 1.8 0 101.72 1.8A1.76 1.76 0 00183.48 145.63zM160.73 158.47a1.36 1.36 0 101.3 1.36A1.33 1.33 0 00160.73 158.47z" class="colorffffff svgShape"></path><path fill="#62a9f0" d="M165,158.47a1.36,1.36,0,1,0,1.3,1.36A1.33,1.33,0,0,0,165,158.47Z" class="colorf0c562 svgShape"></path><path fill="#ffffff" d="M169.36,158.47a1.36,1.36,0,1,0,1.29,1.36A1.33,1.33,0,0,0,169.36,158.47Z" class="colorffffff svgShape"></path><rect width="61.97" height="23.95" x="131.38" y="169.18" fill="#aab6c2" class="coloraab6c2 svgShape"></rect><rect width="22.21" height="19.6" x="134.4" y="171.35" fill="#021b79" rx=".91" class="color1e3d50 svgShape"></rect><rect width="2.72" height="19.6" x="187.48" y="171.35" fill="#62a9f0" rx=".32" class="colorf0c562 svgShape"></rect><rect width="18.37" height="3.67" x="136.46" y="173.32" fill="#ffffff" rx="1.6" class="colorffffff svgShape"></rect><rect width="18.37" height="3.67" x="136.46" y="173.32" fill="#ffffff" rx="1.6" class="colorffffff svgShape"></rect><rect width="10.61" height="1.29" x="140.34" y="174.51" fill="#021b79" class="color1e3d50 svgShape"></rect><rect width="8.16" height="4.21" x="159.16" y="172.95" fill="#021b79" class="color1e3d50 svgShape"></rect><rect width="8.16" height="4.21" x="170.94" y="172.95" fill="#021b79" class="color1e3d50 svgShape"></rect><rect width="11.99" height="4.21" x="172.83" y="179.82" fill="#021b79" class="color1e3d50 svgShape"></rect><rect width="10.16" height="1.55" x="173.74" y="181.15" fill="#ffffff" class="colorffffff svgShape"></rect><rect width="11.99" height="4.21" x="172.83" y="186.26" fill="#021b79" class="color1e3d50 svgShape"></rect><rect width="10.16" height="1.54" x="173.74" y="187.59" fill="#ffffff" class="colorffffff svgShape"></rect><rect width="18.37" height="3.67" x="136.46" y="179.32" fill="#ffffff" rx="1.6" class="colorffffff svgShape"></rect><rect width="18.37" height="3.67" x="136.46" y="185.31" fill="#ffffff" rx="1.6" class="colorffffff svgShape"></rect><rect width="10.61" height="1.29" x="140.34" y="180.51" fill="#021b79" class="color1e3d50 svgShape"></rect><rect width="10.61" height="1.29" x="140.34" y="186.51" fill="#021b79" class="color1e3d50 svgShape"></rect><path fill="#62a9f0" d="M160.73,180.91a1.35,1.35,0,1,0,1.3,1.35A1.32,1.32,0,0,0,160.73,180.91Z" class="colorf0c562 svgShape"></path><path fill="#ffffff" d="M165,180.91a1.35,1.35,0,1,0,1.3,1.35A1.32,1.32,0,0,0,165,180.91Z" class="colorffffff svgShape"></path><path fill="#62a9f0" d="M169.36,180.91a1.35,1.35,0,1,0,1.29,1.35A1.32,1.32,0,0,0,169.36,180.91Z" class="colorf0c562 svgShape"></path><path fill="#ffffff" d="M183.48 173.26a1.8 1.8 0 101.72 1.8A1.76 1.76 0 00183.48 173.26zM160.73 186.1a1.35 1.35 0 101.3 1.35A1.32 1.32 0 00160.73 186.1z" class="colorffffff svgShape"></path><path fill="#62a9f0" d="M165,186.1a1.35,1.35,0,1,0,1.3,1.35A1.32,1.32,0,0,0,165,186.1Z" class="colorf0c562 svgShape"></path><path fill="#ffffff" d="M169.36,186.1a1.35,1.35,0,1,0,1.29,1.35A1.32,1.32,0,0,0,169.36,186.1Z" class="colorffffff svgShape"></path><rect width="61.97" height="23.95" x="131.38" y="196.8" fill="#aab6c2" class="coloraab6c2 svgShape"></rect><rect width="22.21" height="19.6" x="134.4" y="198.98" fill="#021b79" rx=".91" class="color1e3d50 svgShape"></rect><rect width="2.72" height="19.6" x="187.48" y="198.98" fill="#62a9f0" rx=".32" class="colorf0c562 svgShape"></rect><rect width="18.37" height="3.67" x="136.46" y="200.94" fill="#ffffff" rx="1.6" class="colorffffff svgShape"></rect><rect width="18.37" height="3.67" x="136.46" y="200.94" fill="#ffffff" rx="1.6" class="colorffffff svgShape"></rect><rect width="10.61" height="1.29" x="140.34" y="202.13" fill="#021b79" class="color1e3d50 svgShape"></rect><rect width="8.16" height="4.21" x="159.16" y="200.58" fill="#021b79" class="color1e3d50 svgShape"></rect><rect width="8.16" height="4.21" x="170.94" y="200.58" fill="#021b79" class="color1e3d50 svgShape"></rect><rect width="11.99" height="4.21" x="172.83" y="207.45" fill="#021b79" class="color1e3d50 svgShape"></rect><rect width="10.16" height="1.54" x="173.74" y="208.78" fill="#ffffff" class="colorffffff svgShape"></rect><rect width="11.99" height="4.21" x="172.83" y="213.89" fill="#021b79" class="color1e3d50 svgShape"></rect><rect width="10.16" height="1.55" x="173.74" y="215.22" fill="#ffffff" class="colorffffff svgShape"></rect><rect width="18.37" height="3.67" x="136.46" y="206.94" fill="#ffffff" rx="1.6" class="colorffffff svgShape"></rect><rect width="18.37" height="3.67" x="136.46" y="212.94" fill="#ffffff" rx="1.6" class="colorffffff svgShape"></rect><rect width="10.61" height="1.29" x="140.34" y="208.13" fill="#021b79" class="color1e3d50 svgShape"></rect><rect width="10.61" height="1.29" x="140.34" y="214.13" fill="#021b79" class="color1e3d50 svgShape"></rect><ellipse cx="160.73" cy="209.88" fill="#62a9f0" rx="1.3" ry="1.35" class="colorf0c562 svgShape"></ellipse><path fill="#ffffff" d="M165,208.53a1.36,1.36,0,1,0,1.3,1.35A1.33,1.33,0,0,0,165,208.53Z" class="colorffffff svgShape"></path><path fill="#62a9f0" d="M169.36,208.53a1.36,1.36,0,1,0,1.29,1.35A1.33,1.33,0,0,0,169.36,208.53Z" class="colorf0c562 svgShape"></path><path fill="#ffffff" d="M183.48 200.88a1.8 1.8 0 101.72 1.8A1.76 1.76 0 00183.48 200.88zM160.73 213.72a1.36 1.36 0 101.3 1.35A1.33 1.33 0 00160.73 213.72z" class="colorffffff svgShape"></path><path fill="#62a9f0" d="M165,213.72a1.36,1.36,0,1,0,1.3,1.35A1.33,1.33,0,0,0,165,213.72Z" class="colorf0c562 svgShape"></path><path fill="#ffffff" d="M169.36,213.72a1.36,1.36,0,1,0,1.29,1.35A1.33,1.33,0,0,0,169.36,213.72Z" class="colorffffff svgShape"></path><rect width="28.05" height="23.95" x="131.38" y="113.93" fill="#021b79" class="color1e3d50 svgShape"></rect><rect width="34.56" height="23.95" x="158.8" y="113.93" fill="#aab6c2" class="coloraab6c2 svgShape"></rect><path fill="#a5cffa" d="M78,106.28c-4.29-.09-2.14.15-5.73,2.86,0,0-.83,13.12,3.48,16.81,5.57,4.76,23.2,2.22,23.2,2.22l.31-5.15-16.25-3Z" class="colorfab8a5 svgShape"></path><path fill="#a5cffa" d="M106.57,123.11c-.41-.25-1.29-.09-1.95-.2-2.37-.42-4.62-.65-6.07-.07-1.68.68-1.42,2.09-1.26,4,.12,1.51,2.74,2.52,4,2.55s1.12-4,2.31-4.49S107.6,123.72,106.57,123.11Z" class="colorfab8a5 svgShape"></path><path fill="#a5cffa" d="M107.46,125a8.48,8.48,0,0,0-2.17-.81,7.69,7.69,0,0,0-1.88-.4c-1.08.1-2,1.75-2.22,2.66a1.81,1.81,0,0,0,.26,1.77c.55.57,1.49.4,2.25.18l3.14-.86a3.61,3.61,0,0,0,1-.4,1.18,1.18,0,0,0,.56-.89C108.44,125.71,108,125.29,107.46,125Z" class="colorfab8a5 svgShape"></path><path fill="#ffffff" d="M77.92,226.63h0a14.17,14.17,0,0,0-2.44-.21c-2.37-.12-4.06-2-6.26-2.77s3.76-7.19,3.09-9.14c-3.17-.11-5.8-3.15-6-2-2.59,12-6.18,10.94-6.19,14.3,0,1.53,1.53,1.82,2.35,1.8,6.34-.16,10,0,15.17,0A1,1,0,0,0,77.92,226.63Z" class="colorffffff svgShape"></path><path fill="#021b79" d="M78,226.5h0a13.31,13.31,0,0,0-2.23-.2l-.24,0a8.06,8.06,0,0,1-3.76-1.49,13.67,13.67,0,0,0-2.47-1.26.51.51,0,0,1-.35-.33c-.28-.76.74-2.49,1.72-4.16,1.09-1.87,2.13-3.63,1.8-4.57a.11.11,0,0,0-.12-.09A9.38,9.38,0,0,1,68,212.76c-.79-.46-1.31-.77-1.63-.63a.47.47,0,0,0-.24.32c-1.59,7.36-3.54,9.76-4.84,11.34a4.31,4.31,0,0,0-1.35,3,1.71,1.71,0,0,0,.51,1.28,2.94,2.94,0,0,0,2,.65c4.84-.12,8.18-.08,11.71,0l3.45,0h0a1.13,1.13,0,0,0,1.13-1A1.08,1.08,0,0,0,78,226.5Zm.48,1.2a.86.86,0,0,1-.87.76h0l-3.45,0c-3.53,0-6.87-.09-11.72,0a2.55,2.55,0,0,1-1.79-.57,1.45,1.45,0,0,1-.42-1.1A4,4,0,0,1,61.47,224c1.31-1.61,3.28-4,4.89-11.45,0-.11.07-.13.08-.13.19-.09.78.25,1.4.61a9.74,9.74,0,0,0,4.34,1.64c.19.86-.83,2.59-1.81,4.26s-2.06,3.52-1.74,4.39a.8.8,0,0,0,.52.49A13.08,13.08,0,0,1,71.56,225a8.59,8.59,0,0,0,3.89,1.53h.24a14,14,0,0,1,2.16.19A.82.82,0,0,1,78.44,227.7Z" class="color1e3d50 svgShape"></path><path fill="#021b79" d="M78.3 226.51a7.79 7.79 0 00-3.56-.84 10.79 10.79 0 01-3.58-1.46.49.49 0 00-.66.2 3.22 3.22 0 01-2.11 1.23c-2.07.55-6.29-.95-7.36-1.36a.36.36 0 00-.42.13 5.76 5.76 0 00-1 2.05 3.68 3.68 0 00.28 1.87.72.72 0 00.66.45H78.05a.85.85 0 00.85-.86A1.56 1.56 0 0078.3 226.51zM67.62 110.53L69 113.94c3.75-.38 7.68.15 11.63-.45l-4-10.31C72.74 101.29 72 109.59 67.62 110.53z" class="color1e3d50 svgShape"></path><path fill="#ffffff" d="M55.48,224.54c-2.36-1.12-1.09-8.1-1.59-10.32-2.36-.11-5.51.41-5.31,1.69,1.28,7.85.89,7.52-.68,9.88-1,1.45-1,3.17,1.52,2.94a58.13,58.13,0,0,1,6.45-.12C57.42,228.62,60.3,226.83,55.48,224.54Z" class="colorffffff svgShape"></path><path fill="#021b79" d="M55.54 224.42c-1.52-.72-1.46-4.15-1.41-6.91a17 17 0 00-.11-3.32.14.14 0 00-.13-.1c-2-.09-4.45.26-5.2 1.1a.87.87 0 00-.24.74c1.16 7.14.94 7.46-.28 9.24-.12.16-.25.35-.38.55a2.44 2.44 0 00-.44 2.47 1.75 1.75 0 001.64.69 3.31 3.31 0 00.44 0 43.88 43.88 0 015.25-.13h1.2c.84 0 2.16-.51 2.37-1.45C58.4 226.64 58.05 225.62 55.54 224.42zM58 227.23c-.18.78-1.35 1.25-2.11 1.25h-1.2l-1.74 0c-1.08 0-2.23 0-3.54.15-.93.08-1.56-.1-1.83-.55a2.23 2.23 0 01.43-2.19l.37-.55c1.28-1.85 1.51-2.18.33-9.42h0a.62.62 0 01.17-.52c.68-.76 3-1.1 4.9-1a17.84 17.84 0 01.09 3.17c0 2.83-.12 6.36 1.55 7.15C57.26 225.53 58.17 226.45 58 227.23zM77.64 145.91c-1.16-.86-3.3-9.89-4.44-10.79-2.51-2-12-1.94-15-1.1 1.24 35 4.4 34.2 10.69 49.11 1.14 2.69-6 27.05-5.16 35.9 1.92.42 4.43 1.4 6.84 1.73 3-3.81 12-22.88 13.17-36.59a9.84 9.84 0 000-1.8C82.4 167.12 82.27 164.13 77.64 145.91z" class="color1e3d50 svgShape"></path><path fill="#021b79" d="M49.63,131.41c-4.12,15.36-6.72,70.62-2.27,87.65,4.1.36,4.25.23,8.35.58.39-7.76,1.41-20.48,5.58-33.58a10.44,10.44,0,0,0,.4-1.76c2.05-15.17,6.08-17.55,9.08-37.17-.94-1.1-7.95-10.12-8.86-11.25C59.91,133.38,52.71,131.25,49.63,131.41Z" class="color1e3d50 svgShape"></path><path fill="#7fa0c1" d="M77.27,120.91c-.07-.93-.15-1.85-.23-2.75,0-.14,0-.24,0-.3,0-.33-.07-.68-.1-1v0c-.13-1.41-.26-2.76-.39-4,0-.33-.07-.65-.1-1,0,0,0,0,0,0a38.25,38.25,0,0,0-.88-5.58c-.71-2.08-1.75-9.38-5.55-11.62l-.13-.07-.08-.05c-.6-.34-1.17-.65-1.69-.9L68,93.5c-2.39-1.19-4.34-2-4.34-2s-2,.62-4.5,1.6L58,93.59l-.31.14c-3.65,1.57-7.67,3.8-7.77,6.06l-3.27,48.13s5.89-2.09,17-.33c3.94.62,16-.32,16-.32S78,129.9,77.28,121A.08.08,0,0,0,77.27,120.91Z" class="colora1c17f svgShape"></path><path fill="#ffffff" d="M66,92.58l-.22-1.9-.25-2.18H60.68l-.18,2.11-.18,2.08-1.19.45L58,93.59c-.06.26,1.14,2.41,5.81,2.18,3.11-.15,4.32-1.94,4.24-2.21L68,93.5C67.27,93.15,66.62,92.85,66,92.58Z" class="colorffffff svgShape"></path><path fill="#021b79" d="M68.14,93.43,68,93.38l-1.87-.89-.47-4a.14.14,0,0,0-.13-.12H60.68a.13.13,0,0,0-.13.12l-.36,4.1L59.08,93h0l-.25.1-.84.35a.16.16,0,0,0-.07.09c-.05.16.12.44.29.65.43.53,1.74,1.71,4.95,1.71l.69,0A5.45,5.45,0,0,0,68,94.07c.1-.14.25-.39.21-.55A.14.14,0,0,0,68.14,93.43Zm-4.3,2.21c-3.16.15-4.63-.79-5.22-1.36a1.62,1.62,0,0,1-.43-.6l.73-.31.26-.11,1.18-.45a.14.14,0,0,0,.09-.11l.35-4.07h4.64l.46,4a.16.16,0,0,0,.08.1c.69.31,1.32.61,1.94.92l0,0C67.85,94,66.67,95.5,63.84,95.64Z" class="color1e3d50 svgShape"></path><path fill="#021b79" d="M60.68 88.5l-.18 2.11a4.33 4.33 0 001.91.34 5.62 5.62 0 003.27-1.27l-.12-1.18zM63.29 73.05a6 6 0 106.37 6A6.18 6.18 0 0063.29 73.05z" class="color1e3d50 svgShape"></path><path fill="#ffffff" d="M63.21,74.48c-3.4,0-6.16,3.55-6.16,7.94s2.76,7.93,6.16,7.93,6.15-3.55,6.15-7.93S66.61,74.48,63.21,74.48Z" class="colorffffff svgShape"></path><path fill="#021b79" d="M63.21,74.35c-3.47,0-6.29,3.62-6.29,8.07s2.82,8.06,6.29,8.06,6.29-3.62,6.29-8.06S66.68,74.35,63.21,74.35Zm0,15.87c-3.32,0-6-3.5-6-7.8s2.7-7.81,6-7.81,6,3.5,6,7.81S66.53,90.22,63.21,90.22Z" class="color1e3d50 svgShape"></path><path fill="#ffffff" d="M70.41,79.62a2,2,0,0,0-1.84,2c-.09,1.2-.17,2.89.76,3s2.52-1.52,2.61-2.72A2,2,0,0,0,70.41,79.62Z" class="colorffffff svgShape"></path><path fill="#021b79" d="M70.42,79.48a2.14,2.14,0,0,0-2,2.18,9.56,9.56,0,0,0,0,1.93c.11.74.41,1.13.88,1.17h.07c1,0,2.59-1.63,2.68-2.84a2.72,2.72,0,0,0-.4-1.66A1.7,1.7,0,0,0,70.42,79.48Zm-1,5h0c-.34,0-.55-.33-.64-.94a8.35,8.35,0,0,1,0-1.87,1.89,1.89,0,0,1,1.61-1.94h.09a1.39,1.39,0,0,1,1,.66,2.4,2.4,0,0,1,.36,1.49A3.41,3.41,0,0,1,69.39,84.5Z" class="color1e3d50 svgShape"></path><path fill="#021b79" d="M71,80.22c-.65.08-1.38.44-1.88,2.52a.18.18,0,0,0,.12.21h.06a.19.19,0,0,0,.16-.1,3,3,0,0,0,.18-.5c.08-.28.16-.53.35-.63a1.08,1.08,0,0,1,.79,0,.19.19,0,0,0,.23-.12.19.19,0,0,0-.12-.22,1.69,1.69,0,0,0-.89-.08,1.31,1.31,0,0,1,1-.76.18.18,0,1,0,0-.36Z" class="color1e3d50 svgShape"></path><path fill="#ffffff" d="M56.05,79.62a2,2,0,0,0-1.53,2.29c.08,1.2,1.67,2.78,2.6,2.72s.86-1.76.77-3S57,79.55,56.05,79.62Z" class="colorffffff svgShape"></path><path fill="#021b79" d="M56.14,79.48H56a2.13,2.13,0,0,0-1.66,2.44c.09,1.21,1.64,2.84,2.68,2.84h.07c.48,0,.78-.43.89-1.17a8.89,8.89,0,0,0,0-1.93A2.15,2.15,0,0,0,56.14,79.48Zm1.62,4.07c-.09.61-.3.92-.65.94h0a3.39,3.39,0,0,1-2.42-2.6,1.85,1.85,0,0,1,1.41-2.15h.08a1.9,1.9,0,0,1,1.62,1.94A9.73,9.73,0,0,1,57.76,83.55Z" class="color1e3d50 svgShape"></path><path fill="#021b79" d="M55.45 80.22a.18.18 0 00-.2.16.18.18 0 00.16.2 1.3 1.3 0 011 .76 1.66 1.66 0 00-.88.08.18.18 0 10.1.34 1.11 1.11 0 01.8 0c.19.1.26.35.35.63a3 3 0 00.18.5.18.18 0 00.16.1h.06a.17.17 0 00.11-.21C56.83 80.66 56.1 80.3 55.45 80.22zM64.68 84a1.86 1.86 0 01-.89.25.33.33 0 01-.2 0c-.08-.06-.08-.23-.07-.38l.17-2.16a.19.19 0 00-.17-.2.17.17 0 00-.19.17l-.16 2.17a.74.74 0 00.22.7.68.68 0 00.38.1h0a2.27 2.27 0 001.07-.3.18.18 0 00-.19-.31zM64.76 86.77a3.8 3.8 0 01-3.64-1.19.18.18 0 00-.26 0 .19.19 0 000 .25A4.22 4.22 0 0064 87.21a4.12 4.12 0 00.86-.09.18.18 0 00.14-.21A.18.18 0 0064.76 86.77zM63.26 87.57a1.66 1.66 0 01-1.7-.77.17.17 0 00-.24-.07.18.18 0 00-.07.24A2 2 0 0063 88a1.47 1.47 0 00.36 0 .17.17 0 00.14-.21A.19.19 0 0063.26 87.57z" class="color1e3d50 svgShape"></path><ellipse cx="61.13" cy="81.21" fill="#021b79" rx=".42" ry=".7" class="color1e3d50 svgShape"></ellipse><path fill="#021b79" d="M66.58 80.52c-.23 0-.42.31-.42.69s.19.7.42.7.42-.31.42-.7S66.81 80.52 66.58 80.52zM61.39 79.72a1.38 1.38 0 00-1 .26 1.15 1.15 0 00-.36.57c0 .12.1.25.16.15a1.24 1.24 0 01.4-.42 1 1 0 01.85-.07c.06 0 .11 0 .09-.13a2 2 0 000-.24A.14.14 0 0061.39 79.72zM66 79.72a.14.14 0 00-.1.12c0 .08 0 .16 0 .24s0 .15.09.13a1 1 0 01.86.07 1.22 1.22 0 01.39.42c.06.1.2 0 .16-.15A1.15 1.15 0 0067 80 1.36 1.36 0 0066 79.72zM59 75.36c-.39 0-1.88 1.75-1.88 3.64a13.43 13.43 0 00.17 2.63A3 3 0 0059.1 79C59.1 77.11 59.34 75.36 59 75.36zM67.47 75.36c-.39 0 .48 1.75.48 3.64a3 3 0 001.23 2.63A14.25 14.25 0 0069.34 79C69.34 77.11 67.85 75.36 67.47 75.36z" class="color1e3d50 svgShape"></path><path fill="#021b79" d="M67.47,75.7a7.35,7.35,0,0,0-3.9-1.82,4.43,4.43,0,0,0,1.32,3.61c1,1,4.75,2.31,3.63-.4A3.85,3.85,0,0,0,67.47,75.7Z" class="color1e3d50 svgShape"></path><path fill="#021b79" d="M64,73.7a2.56,2.56,0,0,0-1.29,0,6.82,6.82,0,0,0-3.17,1.39,4.67,4.67,0,0,0-1.69,3,1.24,1.24,0,0,0,.25,1.06c.38.37,1,.21,1.52,0a14,14,0,0,0,3.25-1.52C63.77,77,66.1,74.41,64,73.7Z" class="color1e3d50 svgShape"></path><path fill="#7fa0c1" d="M69.79,94.5a.6.6,0,0,0-.23,0l1,19.67,11.62-1.49S74.63,96.61,69.79,94.5Z" class="colora1c17f svgShape"></path><path fill="#021b79" d="M68.38 94.82a8.95 8.95 0 01-10.76.46.18.18 0 00-.25 0 .17.17 0 00.05.24 9.32 9.32 0 005.28 1.65h.39a9.37 9.37 0 005.52-2.12.18.18 0 000-.25A.18.18 0 0068.38 94.82zM70.23 219.56l-6.49-1.45a1.49 1.49 0 00-.65 2.9l6.49 1.45a1.49 1.49 0 10.65-2.9zM54.68 217.77l-6.64.3a1.49 1.49 0 00.13 3l6.65-.3a1.49 1.49 0 001.41-1.56A1.47 1.47 0 0054.68 217.77z" class="color1e3d50 svgShape"></path><polygon fill="#021b79" points="108.54 98.53 67.38 116.89 58.75 142.53 75.7 139.35 133.81 117.81 125.49 95.35 108.54 98.53" class="color1e3d50 svgShape"></polygon><rect width="61.97" height="23.95" x="52.66" y="108.56" fill="#aab6c2" transform="rotate(-20.34 83.623 120.499)" class="coloraab6c2 svgShape"></rect><path fill="#021b79" d="M50.11,119.92l8.5,22.93,58.58-21.71-8.5-22.93Zm8.79,22.29-8.15-22,57.64-21.36,8.15,22Z" class="color1e3d50 svgShape"></path><path fill="#021b79" d="M75.16,114.19a.89.89,0,0,0-1.16-.53l-19.13,7.09a.89.89,0,0,0-.53,1.16l6.18,16.68a.9.9,0,0,0,1.16.54L80.81,132a.91.91,0,0,0,.53-1.17Z" class="color1e3d50 svgShape"></path><path fill="#62a9f0" d="M106.05,101.78l-2,.72a.32.32,0,0,0-.19.41l6.59,17.79a.31.31,0,0,0,.41.18l2-.72a.33.33,0,0,0,.19-.41L106.46,102A.32.32,0,0,0,106.05,101.78Z" class="colorf0c562 svgShape"></path><rect width="18.37" height="3.67" x="56.7" y="118.88" fill="#ffffff" rx="1.6" transform="rotate(-20.34 65.863 120.708)" class="colorffffff svgShape"></rect><rect width="18.37" height="3.67" x="56.7" y="118.88" fill="#ffffff" rx="1.6" transform="rotate(-20.34 65.863 120.708)" class="colorffffff svgShape"></rect><rect width="10.61" height="1.29" x="60.57" y="120.08" fill="#021b79" transform="rotate(-20.34 65.914 120.746)" class="color1e3d50 svgShape"></rect><rect width="8.16" height="4.21" x="78.26" y="112.41" fill="#021b79" transform="rotate(-20.33 82.364 114.53)" class="color1e3d50 svgShape"></rect><rect width="8.16" height="4.21" x="89.31" y="108.32" fill="#021b79" transform="rotate(-20.35 93.394 110.42)" class="color1e3d50 svgShape"></rect><rect width="11.99" height="4.21" x="93.35" y="113.44" fill="#021b79" transform="rotate(-20.33 99.363 115.563)" class="color1e3d50 svgShape"></rect><rect width="10.16" height="1.55" x="94.26" y="114.77" fill="#ffffff" transform="rotate(-20.38 99.324 115.515)" class="colorffffff svgShape"></rect><rect width="11.99" height="4.21" x="95.59" y="119.48" fill="#021b79" transform="rotate(-20.33 101.595 121.576)" class="color1e3d50 svgShape"></rect><rect width="10.16" height="1.55" x="96.5" y="120.81" fill="#ffffff" transform="rotate(-20.33 101.567 121.57)" class="colorffffff svgShape"></rect><rect width="18.37" height="3.67" x="58.78" y="124.51" fill="#ffffff" rx="1.6" transform="rotate(-20.34 67.964 126.32)" class="colorffffff svgShape"></rect><rect width="18.37" height="3.67" x="60.87" y="130.13" fill="#ffffff" rx="1.6" transform="rotate(-20.34 70.03 131.956)" class="colorffffff svgShape"></rect><rect width="10.61" height="1.29" x="62.66" y="125.7" fill="#021b79" transform="rotate(-20.35 67.988 126.364)" class="color1e3d50 svgShape"></rect><rect width="10.62" height="1.29" x="64.74" y="131.32" fill="#021b79" transform="rotate(-20.36 70.06 131.976)" class="color1e3d50 svgShape"></rect><path fill="#62a9f0" d="M82,120.87a1.36,1.36,0,1,0,1.68.82A1.32,1.32,0,0,0,82,120.87Z" class="colorf0c562 svgShape"></path><path fill="#ffffff" d="M86.07,119.37a1.36,1.36,0,1,0,1.69.82A1.33,1.33,0,0,0,86.07,119.37Z" class="colorffffff svgShape"></path><path fill="#62a9f0" d="M90.12,117.87a1.36,1.36,0,1,0,1.68.82A1.32,1.32,0,0,0,90.12,117.87Z" class="colorf0c562 svgShape"></path><path fill="#ffffff" d="M100.7 105.79a1.8 1.8 0 102.24 1.09A1.77 1.77 0 00100.7 105.79zM83.83 125.74a1.36 1.36 0 101.68.82A1.33 1.33 0 0083.83 125.74z" class="colorffffff svgShape"></path><path fill="#62a9f0" d="M87.87,124.24a1.36,1.36,0,1,0,1.69.82A1.33,1.33,0,0,0,87.87,124.24Z" class="colorf0c562 svgShape"></path><path fill="#ffffff" d="M91.92 122.74a1.36 1.36 0 101.68.82A1.32 1.32 0 0091.92 122.74zM66.86 164.76a.17.17 0 00-.21.11L64 172.67a.17.17 0 00.1.21h0a.17.17 0 00.16-.11L67 165A.17.17 0 0066.86 164.76z" class="colorffffff svgShape"></path><path fill="#021b79" d="M55.89,224.56a2.39,2.39,0,0,1-.77-.33,2.81,2.81,0,0,0-1.94-.29c-.79.13-1.54.48-2.32.68a3.34,3.34,0,0,1-2.1-.05.39.39,0,0,0-.45.06,5.14,5.14,0,0,0-1.49,3.82.57.57,0,0,0,.56.54h11.1a.5.5,0,0,0,.5-.51,4.33,4.33,0,0,0-.89-2.53A4.23,4.23,0,0,0,55.89,224.56Z" class="color1e3d50 svgShape"></path><path fill="#ffffff" d="M73.2,123.77a2.23,2.23,0,0,0-1-.22l-3-.09c-.22,0-.66-.08-1.12-.11h0c1-.37,1.74-.78,1.13-1.15-.41-.24-1.29-.08-2-.2-2.37-.42-4.63-.64-6.08-.06L61,122l-15.5-2.82,8-11.72c-4.29-.08-3.46-6.91-7-4.2,0,0-16.49,18.24-12.18,21.92,5,4.25,22.69,2.6,26.44,2.19a6.09,6.09,0,0,0,2.84,1.14,15.37,15.37,0,0,0,2.49.23c.4,0,3.06.13,3.2-.28a.81.81,0,0,0-.08-.57c.92,0,2.4,0,2.51-.29a1,1,0,0,0-.42-.95c.93,0,2.29,0,2.39-.3a1,1,0,0,0-.49-1,2.12,2.12,0,0,0-1-.22l-1,0c.93,0,2.42,0,2.53-.29A1,1,0,0,0,73.2,123.77Z" class="colorffffff svgShape"></path><path fill="#021b79" d="M73.27,123.66a2.23,2.23,0,0,0-1.11-.24l-3-.09a3.71,3.71,0,0,1-.48,0h-.12c.64-.29.92-.52.95-.77s-.08-.3-.29-.42a2.33,2.33,0,0,0-1.15-.17,4.52,4.52,0,0,1-.84,0c-2-.36-4.57-.69-6.15-.06l-.05,0-15.25-2.77,7.89-11.56a.12.12,0,0,0,0-.13.15.15,0,0,0-.12-.07c-2,0-2.82-1.55-3.56-2.89-.53-.94-1-1.76-1.76-1.92a2.34,2.34,0,0,0-1.81.64,0,0,0,0,0,0,0c-.55.6-13.3,14.76-12.93,20.44a2.28,2.28,0,0,0,.75,1.66c5,4.28,22.82,2.62,26.49,2.23a6.36,6.36,0,0,0,2.87,1.13,14.9,14.9,0,0,0,2.49.23h1.21c1.73,0,2.06-.18,2.13-.38a.87.87,0,0,0,0-.48c2.29,0,2.39-.26,2.44-.39a1,1,0,0,0-.22-.86h.09c1.72,0,2-.19,2.1-.39a1.13,1.13,0,0,0-.54-1.16l-.13-.06c.63-.09.68-.24.71-.32A1.11,1.11,0,0,0,73.27,123.66Zm.29,1.09s-.21.23-2.39.19h0a.13.13,0,0,0,0,.26l1,0a2,2,0,0,1,1,.2.86.86,0,0,1,.42.86s-.19.23-2.26.2h0a.11.11,0,0,0-.12.09.12.12,0,0,0,0,.14.86.86,0,0,1,.37.82s-.21.23-2.38.19h0a.11.11,0,0,0-.11.06.12.12,0,0,0,0,.13.68.68,0,0,1,.07.48c0,.06-.36.27-2.9.18h-.16a14.64,14.64,0,0,1-2.47-.23,6,6,0,0,1-2.79-1.11.1.1,0,0,0-.09,0c-3.53.38-21.4,2.07-26.35-2.16a2,2,0,0,1-.66-1.48c-.36-5.51,12.46-19.8,12.85-20.24a2.09,2.09,0,0,1,1.59-.58c.65.14,1.08.9,1.58,1.79.71,1.28,1.6,2.85,3.55,3L45.4,119.08a.13.13,0,0,0,0,.12.16.16,0,0,0,.1.08L61,122.1h.08l0,0c1.54-.62,4-.29,6,.06a5.2,5.2,0,0,0,.89,0,2.43,2.43,0,0,1,1,.13c.06,0,.16.11.16.18s-.19.33-1.27.74a.15.15,0,0,0-.08.12.14.14,0,0,0,.07.12l.06,0,.62.06a4.13,4.13,0,0,0,.5,0l3.05.1a2.09,2.09,0,0,1,1,.19A.86.86,0,0,1,73.56,124.75Z" class="color1e3d50 svgShape"></path><path fill="#021b79" d="M46.46,103.23s-3.56,4-7,8.54c2.71,1.3,5.71,2.33,8.25,4.07l5.75-8.41C49.22,107.35,50.05,100.52,46.46,103.23Z" class="color1e3d50 svgShape"></path><polygon fill="#7fa0c1" points="39.2 110.72 53.83 117.87 55.22 105.33 50.44 98.46 39.2 110.72" class="colora1c17f svgShape"></polygon><path fill="#ffffff" d="M110.58,125.28a.82.82,0,0,0-.58.16,2,2,0,0,0-.37.4.66.66,0,0,0-.3-.12,1.08,1.08,0,0,0-.73.19l-.18.16a.89.89,0,0,0-.51-.37.92.92,0,0,0-.72.21,2.57,2.57,0,0,0-.52.65,1.46,1.46,0,0,1-.11.18l-.13,0a1,1,0,0,0-.72.2,2.26,2.26,0,0,0-.53.54c-.16.22-.76.93-.66,1.21s.94.34,1.21.31a1.8,1.8,0,0,0,1-.44l.09-.1a2.06,2.06,0,0,0,.42,0,1.64,1.64,0,0,0,1-.44,2.29,2.29,0,0,0,.39,0,1.8,1.8,0,0,0,1-.44,1.06,1.06,0,0,0,.22-.29H110a1.41,1.41,0,0,0,.84-.38,1.06,1.06,0,0,0,.3-.89A.8.8,0,0,0,110.58,125.28Z" class="colorffffff svgShape"></path><path fill="#021b79" d="M110.61,125.15a.91.91,0,0,0-.69.19,1.43,1.43,0,0,0-.32.33.9.9,0,0,0-.25-.08,1.15,1.15,0,0,0-.82.21l-.09.08,0,0a1,1,0,0,0-.48-.29,1,1,0,0,0-.83.24,2.61,2.61,0,0,0-.55.68l0,.09-.06,0a1.18,1.18,0,0,0-.82.22,2.55,2.55,0,0,0-.56.58l-.07.09c-.44.57-.69,1-.61,1.24a.45.45,0,0,0,.1.14c.32.34,1.25.25,1.26.25a1.88,1.88,0,0,0,1.11-.47l.06-.06h.37a1.75,1.75,0,0,0,1-.43h.35a1.63,1.63,0,0,0,1.33-.74h.08A1.57,1.57,0,0,0,111,127a1.25,1.25,0,0,0,.35-1A.94.94,0,0,0,110.61,125.15Zm.17,1.62a1.24,1.24,0,0,1-.75.33h-.21l0,.06a1.58,1.58,0,0,1-.2.27,1.68,1.68,0,0,1-1,.4,1.86,1.86,0,0,1-.36,0h-.06l0,0a1.49,1.49,0,0,1-.88.4,2.92,2.92,0,0,1-.4,0h-.07l-.08.09a.1.1,0,0,1,0,0,1.69,1.69,0,0,1-1,.41c-.39,0-1,0-1.07-.22s.14-.45.56-1l.07-.11a2.67,2.67,0,0,1,.5-.51.92.92,0,0,1,.63-.18l.06,0,0,0,.1,0,.17-.27a2.31,2.31,0,0,1,.48-.61.64.64,0,0,1,1,0l.09.11.08.11.16-.14a.63.63,0,0,1,.12-.1.89.89,0,0,1,.63-.17.57.57,0,0,1,.25.1l.11.07.07-.1a1.48,1.48,0,0,1,.34-.37.65.65,0,0,1,.48-.14.67.67,0,0,1,.49.58A.94.94,0,0,1,110.78,126.77Z" class="color1e3d50 svgShape"></path><path fill="#ffffff" d="M52.34,42.37l-43.05,0a4.56,4.56,0,0,0-4.58,4.53l0,18.56A4.56,4.56,0,0,0,9.27,70l26.48.12v.24c.2,4.35,4.51,12.63,11,13.52-.66-1.71-3-8.5-1-13.55l.06-.16,6.5-.12a4.59,4.59,0,0,0,4.59-4.54l0-18.56A4.56,4.56,0,0,0,52.34,42.37Z" class="colorffffff svgShape"></path><path fill="#021b79" d="M52.34,42.12l-43.05,0h0l0,.5,43.06,0A4.32,4.32,0,0,1,56.63,47l0,18.56a4.33,4.33,0,0,1-4.31,4.29L46,69.92h-.33l-.12.31c-1.91,4.8,0,11.11.85,13.33C40.25,82.4,36.2,74.53,36,70.35l0-.48h-.48L9.27,69.75A4.31,4.31,0,0,1,5,65.43L5,46.86a4.31,4.31,0,0,1,4.3-4.28v-.5a4.8,4.8,0,0,0-4.8,4.78l0,18.56a4.8,4.8,0,0,0,4.78,4.83l26.24.12c.2,4.25,4.57,13.18,11.64,13.8,0,0-3.41-8.08-1.16-13.75l6.34-.12h0a4.82,4.82,0,0,0,4.81-4.79l0-18.56A4.81,4.81,0,0,0,52.34,42.12Z" class="color1e3d50 svgShape"></path><path fill="#62a9f0" d="M24.88,51.71l-1.77.34a7.11,7.11,0,0,0-1.54-2l.74-1.64-2.48-1.39-1,1.48a7.24,7.24,0,0,0-2.48-.29l-.63-1.69L13,47.33l.33,1.77a7.26,7.26,0,0,0-2,1.54L9.7,49.9,8.31,52.38l1.49,1a7.19,7.19,0,0,0-.3,2.47l-1.68.64.77,2.74,1.76-.34a7.29,7.29,0,0,0,1.55,2l-.75,1.64,2.48,1.4,1-1.49a7.21,7.21,0,0,0,2.48.29l.63,1.69,2.74-.77-.34-1.77a7.3,7.3,0,0,0,2-1.54l1.64.74,1.39-2.48-1.49-1A7,7,0,0,0,24,55.09l1.69-.64ZM21.21,58a5.13,5.13,0,1,1-2-7A5.13,5.13,0,0,1,21.21,58Z" class="colorf0c562 svgShape"></path><rect width="12.56" height="1.46" x="29.15" y="50.07" fill="#021b79" class="color1e3d50 svgShape"></rect><rect width="10.81" height="1.46" x="42.99" y="50.07" fill="#021b79" class="color1e3d50 svgShape"></rect><rect width="8.44" height="1.46" x="29.15" y="53.34" fill="#021b79" class="color1e3d50 svgShape"></rect><rect width="7.26" height="1.46" x="38.45" y="53.34" fill="#021b79" class="color1e3d50 svgShape"></rect><rect width="7.12" height="1.46" x="46.67" y="53.34" fill="#021b79" class="color1e3d50 svgShape"></rect><rect width="12.56" height="1.46" x="29.15" y="56.17" fill="#021b79" class="color1e3d50 svgShape"></rect><rect width="10.81" height="1.46" x="42.99" y="56.17" fill="#021b79" class="color1e3d50 svgShape"></rect><rect width="8.44" height="1.46" x="29.15" y="59.43" fill="#021b79" class="color1e3d50 svgShape"></rect><rect width="7.26" height="1.46" x="38.45" y="59.43" fill="#021b79" class="color1e3d50 svgShape"></rect><rect width="7.12" height="1.46" x="46.67" y="59.43" fill="#021b79" class="color1e3d50 svgShape"></rect><g clip-path="url(#a)" fill="#000000" class="color000000 svgShape"><rect width="70.36" height="161.64" x="-17.01" y="77.96" fill="#c7d1db" class="colorc7d0db svgShape"></rect><rect width="10.99" height="4.31" x="34.95" y="85.71" fill="#aab6c2" class="coloraab6c2 svgShape"></rect><rect width="10.99" height="4.31" x="16.45" y="85.71" fill="#aab6c2" class="coloraab6c2 svgShape"></rect><rect width="10.99" height="4.31" x="34.95" y="101.39" fill="#aab6c2" class="coloraab6c2 svgShape"></rect><rect width="10.99" height="4.31" x="16.45" y="101.39" fill="#aab6c2" class="coloraab6c2 svgShape"></rect><rect width="10.99" height="4.31" x="-2.05" y="101.39" fill="#aab6c2" class="coloraab6c2 svgShape"></rect><rect width="10.99" height="4.31" x="34.95" y="117.07" fill="#aab6c2" class="coloraab6c2 svgShape"></rect><rect width="10.99" height="4.31" x="-2.05" y="117.07" fill="#aab6c2" class="coloraab6c2 svgShape"></rect><rect width="10.99" height="4.31" x="16.45" y="124.91" fill="#aab6c2" class="coloraab6c2 svgShape"></rect><rect width="10.99" height="4.31" x="34.95" y="132.75" fill="#aab6c2" class="coloraab6c2 svgShape"></rect><rect width="10.99" height="4.31" x="16.45" y="140.59" fill="#aab6c2" class="coloraab6c2 svgShape"></rect><rect width="10.99" height="4.31" x="34.95" y="148.43" fill="#aab6c2" class="coloraab6c2 svgShape"></rect><rect width="10.99" height="4.31" x="-2.05" y="148.43" fill="#aab6c2" class="coloraab6c2 svgShape"></rect><rect width="10.99" height="4.31" x="34.95" y="162.92" fill="#aab6c2" class="coloraab6c2 svgShape"></rect><rect width="10.99" height="4.31" x="16.45" y="162.92" fill="#aab6c2" class="coloraab6c2 svgShape"></rect><rect width="10.99" height="4.31" x="34.95" y="178.6" fill="#aab6c2" class="coloraab6c2 svgShape"></rect><rect width="10.99" height="4.31" x="16.45" y="178.6" fill="#aab6c2" class="coloraab6c2 svgShape"></rect><rect width="10.99" height="4.31" x="-2.05" y="178.6" fill="#aab6c2" class="coloraab6c2 svgShape"></rect><rect width="10.99" height="4.31" x="34.95" y="194.28" fill="#aab6c2" class="coloraab6c2 svgShape"></rect><rect width="10.99" height="4.31" x="-2.05" y="194.28" fill="#aab6c2" class="coloraab6c2 svgShape"></rect><rect width="10.99" height="4.31" x="16.45" y="202.12" fill="#aab6c2" class="coloraab6c2 svgShape"></rect><rect width="10.99" height="4.31" x="-2.05" y="202.12" fill="#aab6c2" class="coloraab6c2 svgShape"></rect><rect width="10.99" height="4.31" x="34.95" y="209.96" fill="#aab6c2" class="coloraab6c2 svgShape"></rect><rect width="10.99" height="4.31" x="16.45" y="217.8" fill="#aab6c2" class="coloraab6c2 svgShape"></rect><rect width="10.99" height="4.31" x="34.95" y="225.64" fill="#aab6c2" class="coloraab6c2 svgShape"></rect><rect width="10.99" height="4.31" x="-2.05" y="225.64" fill="#aab6c2" class="coloraab6c2 svgShape"></rect><rect width="192.05" height="218.97" x="-79.74" y="7.02" fill="#ffffff" opacity=".35" class="colorffffff svgShape"></rect><polygon fill="#ffffff" points="-62.88 226.38 -47.98 226.38 31.93 13.86 17.02 13.86 -62.88 226.38" opacity=".5" class="colorffffff svgShape"></polygon><polygon fill="#ffffff" points="-81.75 226.38 -74.3 226.38 5.61 13.86 -1.84 13.86 -81.75 226.38" opacity=".5" class="colorffffff svgShape"></polygon><polygon fill="#ffffff" points="48.06 226.38 109.11 51.96 109.11 36.68 40.6 226.38 48.06 226.38" opacity=".6" class="colorffffff svgShape"></polygon><path fill="#ffffff" d="M113.42,8.85H-274.9v5h4.18v1.77h123.85V48.35h-128v2.5h128v64.31h-128v2.51h128V182h-128v2.51h128v41.9H-270.68v1.44h-4.22v5.8H113.42V184.48h6.9V182h-6.9v-64.3h6.9v-2.51h-6.9V50.85h6.9v-2.5h-6.9Zm-196.27,219h0v-1.44h-59.8v-41.9h59.82Zm0-45.85h-59.82v-64.3h59.82Zm0-66.81h-59.82V50.85h59.82Zm0-66.81h-59.82V15.63h59.82Zm64,178h-59.8v1.44h0V184.48h59.82Zm0-44.41H-78.63v-64.3h59.82Zm0-66.81H-78.63V50.85h59.82Zm0-66.81H-78.63V15.63h59.82Zm64,178H-14.61v-41.9H45.21Zm0-44.41H-14.61v-64.3H45.21Zm0-66.81H-14.61V50.85H45.21Zm0-66.81H-14.61V15.63H45.21Zm64,179.47h0v-1.44H49.41v-41.9h59.81Zm0-45.85H49.41v-64.3h59.81Zm0-66.81H49.41V50.85h59.81Zm0-66.81H49.41V15.63h59.81Z" class="colorffffff svgShape"></path></g></svg>