<svg xmlns="http://www.w3.org/2000/svg" enable-background="new 0 0 2000 2000" viewBox="0 0 2000 2000" id="Mandoingpaymentusingswipemachine"><ellipse cx="1000" cy="1454.563" fill="#f1f5fa" rx="546.133" ry="62.789" class="colorf1f3fa svgShape"></ellipse><path fill="#4fa5fc" d="M857.504 853.013s-110.253 99.681-155.999 96.491c-24.305-1.695-74.966-62.274-74.966-62.274s-21.853-32.082-21.853-34.382l30.069-46.828 84.455 93.328 122.985-64.15 15.309 17.815z" class="color4f7dfc svgShape"></path><path fill="#315af6" d="M658.544 1476.347c.768 0 1.165-.989 1.342-2.401.649-5.2-3.125-9.848-8.236-11.004-7.694-1.74-14.597-4.752-20.65-9.128h-11.367v18.797a3.736 3.736 0 0 0 3.736 3.736h35.175zM601.229 1476.347c.768 0 1.165-.989 1.342-2.401.649-5.2-3.125-9.848-8.236-11.004-7.694-1.74-14.597-4.752-20.65-9.128h-11.367v18.797a3.736 3.736 0 0 0 3.736 3.736h35.175z" class="colorf66531 svgShape"></path><path fill="#161d38" d="M667.964 1012.366c22.309 33.994-34.811 441.448-34.811 441.448-.048 1.839-14.353 2.312-14.305.473l-20.567-428.297s58.531-30.618 69.683-13.624z" class="color161938 svgShape"></path><path fill="#021b79" d="M630.073 1012.848c22.309 33.994-55.298 440.966-55.298 440.966-.048 1.839-14.739 2.356-14.691.517l-21.054-427.86s79.891-30.617 91.043-13.623z" class="color28214f svgShape"></path><path fill="#0575e6" d="M656.32 845.087c-12.173-49.231-71.458-80.094-88.275-69.463-52.668 33.295-49.721 312.911-49.721 312.911-3.172 22.355 168.456 34.396 171.628 12.04 0 .001 11.039-74.819-33.632-255.488z" class="color3160ff svgShape"></path><path fill="#5061a3" d="M1000.982 811.977v414.93c0 24.663 19.968 44.631 44.599 44.631h59.133V785.995h-77.751c-14.341 0-25.981 11.641-25.981 25.982z" class="color5650a3 svgShape"></path><path fill="#3a94ef" d="M1029.563 1252.576H806.348c-9.565 0-17.319-7.754-17.319-17.319V828.881c0-9.565 7.754-17.319 17.319-17.319h223.215c9.565 0 17.319 7.754 17.319 17.319v406.376c-.001 9.565-7.755 17.319-17.319 17.319z" class="color3aefd0 svgShape"></path><path fill="#ffffff" d="M1002.173 949.121h-54.782a5.451 5.451 0 0 1-5.451-5.451v-88.374c0-3.01 2.44-5.451 5.451-5.451h54.782c3.01 0 5.451 2.44 5.451 5.451v88.374a5.452 5.452 0 0 1-5.451 5.451zM870.976 953.812h-54.782a5.451 5.451 0 0 1-5.451-5.451v-93.065c0-3.01 2.44-5.451 5.451-5.451h54.782a5.45 5.45 0 0 1 5.45 5.451v93.065a5.45 5.45 0 0 1-5.45 5.451zM913.978 1234.748h-18.016v4.128h18.016v-4.128zm0-17.078h-18.016v4.129h18.016v-4.129zm0-16.889h-18.016v4.128h18.016v-4.128zm0-17.079h-18.016v4.129h18.016v-4.129zm0-17.077h-18.016v4.128h18.016v-4.128zm0-17.077h-18.016v4.128h18.016v-4.128zm0-17.078h-18.016v4.129h18.016v-4.129zm0-17.077h-18.016v4.128h18.016v-4.128zm0-17.078h-18.016v4.129h18.016v-4.129zm0-17.077h-18.016v4.128h18.016v-4.128zm0-17.078h-18.016v4.129h18.016v-4.129zm0-17.077h-18.016v4.128h18.016v-4.128zm0-17.078h-18.016v4.129h18.016v-4.129zm0-17.078h-18.016v4.128h18.016v-4.128zm0-17.077h-18.016v4.128h18.016v-4.128zm0-17.078h-18.016v4.129h18.016v-4.129zm0-17.077h-18.016v4.128h18.016v-4.128zm0-16.89h-18.016v4.129h18.016v-4.129zm0-17.077h-18.016v4.128h18.016v-4.128zm0-17.078h-18.016v4.129h18.016v-4.129zm0-17.077h-18.016v4.128h18.016v-4.128zm0-17.079h-18.016v4.129h18.016v-4.129zm0-17.077h-18.016v4.128h18.016v-4.128zm0-17.078h-18.016v4.129h18.016v-4.129zm0-17.077h-18.016v4.128h18.016v-4.128zM976.47 1063.597c7.223 0 8.129 8.233 3.754 11.635l3.19 3.003c11.626-9.964-3.977-26.993-14.637-16.327-3.928 4.322-4.43 11.538.938 16.139l3.19-3.003c-4.985-3.491-3.148-11.447 3.565-11.447zM981.538 1087.993c-.376-.938-.938-1.688-1.69-2.252h2.253v-4.504h-16.14v4.504c9.473.365 11.088-1.409 12.199 4.88h4.128c0-.939-.187-1.877-.75-2.628zM980.224 1106.385c7.167-7.167-4.456-19.19-12.198-11.448-3.084 3.47-3.054 8.956.375 12.387l2.628-2.44c-2.184-2.184-2.282-7.129 1.502-7.882v11.635c1.708-.201 5.061.754 7.693-2.252zm-4.504-9.197c2.13 0 3.945 3.941 2.064 5.818-.375.751-1.126 1.127-2.064 1.127v-6.945zM988.106 1123.086h-7.882c6.62-6.62-3.433-16.616-12.011-9.946-1.688 1.502-2.44 3.19-2.44 5.067 0 2.064.751 3.564 2.44 4.878h-2.252v4.317h22.144v-4.316zm-17.265-6.38c1.507-1.507 4.868-1.513 6.381 0 2.825 2.259.89 6.38-3.191 6.38-2.839 0-6.234-3.336-3.19-6.38zM985.854 1131.344c-3.25 0-3.22 5.255 0 5.255.751 0 3.611-5.255 0-5.255zm-3.753.375h-16.14v4.504h16.14v-4.504zM970.841 1149.36c-.75-.563-1.126-1.314-1.126-2.064 0-.376.188-.751.564-1.126.375-.376.75-.563 1.314-.563h7.318v3.941h3.191v-3.941h4.692v-4.316h-4.692v-1.877h-3.191v1.877h-7.506c-1.69 0-3.003.376-4.129 1.502-.938 1.126-1.502 2.439-1.502 3.94 0 1.502.751 3.003 1.877 4.317l3.19-1.69zM976.47 1165.311c6.414 0 8.616 7.505 3.754 11.823l3.19 2.815c11.464-9.825-3.889-27.075-14.637-16.327-3.902 4.293-4.461 11.314.938 16.327l3.19-3.003c-5.081-4.063-2.97-11.635 3.565-11.635zM982.288 1189.895c0-2.626-.75-5.066-2.252-7.131l-2.814 1.877c1.833 2.752 2.652 7.319-1.126 7.319-.109-2.013.43-5.734-1.126-8.069-1.911-2.673-5.924-2.314-7.695-.188-1.966 2.36-2.288 6.353.751 8.632h-2.065v4.129c8.7-.353 16.327 2.137 16.327-6.569zm-10.134 2.065c-.75 0-1.502-.188-1.876-.939-1.131-1.128-1.235-4.504.938-4.504 2.343 0 1.512 3.736 1.688 5.443h-.75zM979.848 1205.096h2.253v-4.504h-16.14v4.504c5.221.101 12.199-1.183 12.199 3.941v.75h4.128c0-1.496-.815-3.473-2.44-4.691zM988.106 1223.676h-7.882c1.314-1.126 2.064-2.815 2.064-4.692 0-10.104-16.515-9.347-16.515 0 0 1.876.751 3.378 2.44 4.692h-2.252v4.504h22.144v-4.504zm-17.265-.939c-.75-.75-1.314-1.688-1.314-2.626 0-5.293 9.009-5.13 9.009-.188 0 1.126-.376 2.064-1.314 2.814-.751.563-1.877.939-3.191.939-1.313 0-2.439-.376-3.19-.939z" class="colorffffff svgShape"></path><circle cx="835.1" cy="1208.95" r="24.365" fill="#ffffff" transform="rotate(-45.001 835.09 1208.966)" class="colorffffff svgShape"></circle><path fill="#ffffff" d="M835.1 1179.626c-8.523 0-16.204 3.642-21.557 9.465a24.166 24.166 0 0 1-2.8-11.323c0-13.454 10.902-24.356 24.356-24.356 13.454 0 24.356 10.902 24.356 24.356a24.16 24.16 0 0 1-2.8 11.323c-5.376-5.823-13.057-9.465-21.555-9.465z" class="colorffffff svgShape"></path><path fill="#6388ad" d="M1037.542 811.977v414.93c0 24.663 19.968 44.631 44.599 44.631h59.133V785.995h-77.719c-14.373 0-26.013 11.641-26.013 25.982z" class="color6563ad svgShape"></path><path fill="#5061a3" d="M1136.033 1362.409v67.372c0 8.939 7.267 16.206 16.206 16.206h223.767c8.939 0 16.206-7.267 16.206-16.206v-67.372h-256.179z" class="color5650a3 svgShape"></path><path fill="#b2d5f9" d="M1065.003 766.735v593.52c0 23.794 19.357 43.152 43.152 43.152h307.628c23.795 0 43.12-19.358 43.12-43.152v-593.52c0-23.794-19.325-43.152-43.12-43.152h-307.628c-23.795 0-43.152 19.357-43.152 43.152z" class="colorb2c1f9 svgShape"></path><path fill="#cfe4f9" d="M1084.296 766.735v593.52c0 13.151 10.708 23.859 23.859 23.859h307.628c13.151 0 23.827-10.708 23.827-23.859v-593.52c0-13.151-10.676-23.859-23.827-23.859h-307.628c-13.152 0-23.859 10.707-23.859 23.859z" class="colorcfd8f9 svgShape"></path><path fill="#ffffff" d="M1104.714 806.993v176.628c0 11.608 9.389 20.997 20.965 20.997h272.579c11.608 0 20.997-9.389 20.997-20.997V806.993c0-11.576-9.389-20.997-20.997-20.997h-272.579c-11.575-.001-20.965 9.421-20.965 20.997zM1186.163 1046.437v31.705a11.143 11.143 0 0 1-11.158 11.158h-59.133a11.143 11.143 0 0 1-11.158-11.158v-31.705c0-6.142 4.984-11.158 11.158-11.158h59.133c6.174 0 11.158 5.016 11.158 11.158zM1302.709 1046.437v31.705a11.143 11.143 0 0 1-11.158 11.158h-59.133a11.143 11.143 0 0 1-11.158-11.158v-31.705c0-6.142 4.984-11.158 11.158-11.158h59.133c6.174 0 11.158 5.016 11.158 11.158zM1419.256 1046.349v31.705a11.143 11.143 0 0 1-11.158 11.158h-59.133a11.143 11.143 0 0 1-11.158-11.158v-31.705c0-6.142 4.984-11.158 11.158-11.158h59.133c6.174.001 11.158 5.017 11.158 11.158z" class="colorffffff svgShape"></path><path fill="#5577f9" d="M1422.806 1300.51v31.705a11.143 11.143 0 0 1-11.158 11.158h-59.133a11.143 11.143 0 0 1-11.158-11.158v-31.705c0-6.141 4.984-11.158 11.158-11.158h59.133c6.174 0 11.158 5.017 11.158 11.158z" class="colorf97c55 svgShape"></path><path fill="#4ca4fc" d="M1419.25 1215.726v31.705a11.143 11.143 0 0 1-11.158 11.158h-59.133a11.143 11.143 0 0 1-11.158-11.158v-31.705c0-6.142 4.984-11.158 11.158-11.158h59.133c6.174.001 11.158 5.017 11.158 11.158z" class="colorfcb94c svgShape"></path><path fill="#ffffff" d="M1302.72 1131.117v31.705a11.143 11.143 0 0 1-11.158 11.158h-59.133a11.143 11.143 0 0 1-11.158-11.158v-31.705c0-6.142 4.984-11.158 11.158-11.158h59.133c6.174 0 11.158 5.016 11.158 11.158zM1186.158 1215.813v31.705a11.143 11.143 0 0 1-11.158 11.158h-59.133a11.143 11.143 0 0 1-11.158-11.158v-31.705c0-6.142 4.984-11.158 11.158-11.158H1175c6.173.001 11.158 5.017 11.158 11.158zM1302.72 1215.813v31.705a11.143 11.143 0 0 1-11.158 11.158h-59.133a11.143 11.143 0 0 1-11.158-11.158v-31.705c0-6.142 4.984-11.158 11.158-11.158h59.133c6.174.001 11.158 5.017 11.158 11.158zM1186.158 1300.51v31.705a11.143 11.143 0 0 1-11.158 11.158h-59.133a11.143 11.143 0 0 1-11.158-11.158v-31.705c0-6.141 4.984-11.158 11.158-11.158H1175c6.173 0 11.158 5.017 11.158 11.158zM1302.72 1300.423v31.705a11.143 11.143 0 0 1-11.158 11.158h-59.133a11.143 11.143 0 0 1-11.158-11.158v-31.705c0-6.141 4.984-11.158 11.158-11.158h59.133c6.174 0 11.158 5.017 11.158 11.158zM1186.158 1131.117v31.705A11.143 11.143 0 0 1 1175 1173.98h-59.133a11.143 11.143 0 0 1-11.158-11.158v-31.705c0-6.142 4.984-11.158 11.158-11.158H1175c6.173 0 11.158 5.016 11.158 11.158z" class="colorffffff svgShape"></path><path fill="#3a94ef" d="M1419.25 1131.03v31.705a11.143 11.143 0 0 1-11.158 11.158h-59.133a11.143 11.143 0 0 1-11.158-11.158v-31.705c0-6.142 4.984-11.158 11.158-11.158h59.133c6.174 0 11.158 5.016 11.158 11.158z" class="color3aefd0 svgShape"></path><path fill="#bedeff" d="M655.293 747.846c-15.969 28.88-44.692 12.817-44.692 12.817l-1.718 24.427c-1.973 5.915-37.224-2.236-40.839-9.465 0 0-13.802-110.097 49.457-113.054 20.703-.987 34.572-2.685 41.473 7.336 11.995 17.088 8.844 55.286-3.681 77.939z" class="colorffccbe svgShape"></path><path fill="#0e1634" d="M612.356 675.658c12.843 6.383-8.86 17.426-8.86 17.426l-4.907 14.516-4.343-.85s5.351-17.745-6.813-16.072c-11.948 1.53-2.72 64.533-12.3 78.934-2.321 3.489-8.107 1.985-8.107 1.985s-34.436-45.151-26.237-109.134c8.345-63.77 183.176-85.399 193.196-45.21 24.564 98.523-121.629 58.405-121.629 58.405z" class="color180e34 svgShape"></path><path fill="#bedeff" d="M840.982 884.544c5.194 32.541-42.498 27.947-42.498 27.947l-7.075-6.332s-4.055-31.621 5.617-30.228c8.71 1.433.222 12.419-1.439 14.664 2.924-2.894 40.449-37.252 45.395-6.051z" class="colorffccbe svgShape"></path><path fill="#4fa5fc" d="M557.385 809.765c15.969-10.667 35.392-5.905 45.665 8.215 17.749 24.394 61.582 109.649 61.582 109.649l126.219-24.979c1.833-1.354 9.792 9.429 7.959 10.783 0 0-94.494 76.53-145.441 63.978-39.947-9.843-95.933-112.806-95.933-112.806-8.059-17.044-18.022-42.835-.051-54.84z" class="color4f7dfc svgShape"></path><path fill="#bedeff" d="M859.812 812.047c0 7.843-7.348 14.24-16.228 14.24-9.033 0-16.227-6.397-16.227-14.24s32.455-7.843 32.455 0z" class="colorffccbe svgShape"></path><path fill="#1f7edd" d="M1211.127 968.405c-.661 0-1.323-.047-2-.126a16.113 16.113 0 0 1-10.943-6.377l-38.199-51.363c-5.306-7.149-3.826-17.242 3.322-22.564 7.117-5.322 17.242-3.826 22.564 3.322l28.138 37.837 126.849-103.309c6.928-5.637 17.1-4.551 22.69 2.315 5.621 6.912 4.582 17.069-2.315 22.69l-139.918 113.953a16.125 16.125 0 0 1-10.188 3.622z" class="color1fddc1 svgShape"></path><path fill="#b2d5f9" d="M926.698 534.323h-17.534v-4.833h12.934c1.85-20.533 18.9-36.283 39.783-36.283 17.417 0 32.1 10.25 37.417 26.117l-4.6 1.533c-4.7-14.067-17.283-22.817-32.817-22.817-19.05 0-34.467 14.917-35.1 33.95l-.083 2.333z" class="colorb2c1f9 svgShape"></path><path fill="#b2d5f9" d="M937.732 532.64h-4.833c0-15.4 12.517-27.933 27.917-27.933v4.833c-12.734 0-23.084 10.366-23.084 23.1zM1057.032 560.056h-22.317v-2.417c0-19.367-15.75-35.117-35.117-35.117-12.483 0-24.15 6.733-30.4 17.567l-4.2-2.433c7.133-12.317 20.383-19.967 34.6-19.967 21.217 0 38.617 16.617 39.883 37.533h17.55v4.834z" class="colorb2c1f9 svgShape"></path><path fill="#b2d5f9" d="m980.615 546.19-4.2-2.433c4.95-8.533 14.15-13.833 24.017-13.833v4.833c-8.15-.001-15.75 4.383-19.817 11.433zM875.598 530.223h19.283v4.833h-19.283zM1063.515 555.223h7.6v4.833h-7.6zM928.432 557.64h-4.833c0-7.3 5.933-13.233 13.233-13.233v4.833c-4.634 0-8.4 3.766-8.4 8.4zM1245.348 412.04h-17.533v-4.833h12.933c1.85-20.533 18.9-36.283 39.783-36.283 17.417 0 32.1 10.25 37.417 26.117l-4.6 1.533c-4.7-14.067-17.283-22.817-32.817-22.817-19.05 0-34.467 14.917-35.1 33.95l-.083 2.333z" class="colorb2c1f9 svgShape"></path><path fill="#b2d5f9" d="M1256.365 410.356h-4.833c0-15.4 12.533-27.917 27.933-27.917v4.833c-12.733.001-23.1 10.351-23.1 23.084zM1375.682 437.773h-22.317v-2.417c0-19.367-15.75-35.117-35.117-35.117-12.483 0-24.15 6.733-30.4 17.567l-4.2-2.433c7.133-12.317 20.383-19.967 34.6-19.967 21.217 0 38.617 16.617 39.883 37.533h17.55v4.834z" class="colorb2c1f9 svgShape"></path><path fill="#b2d5f9" d="m1299.248 423.923-4.2-2.433c4.95-8.55 14.15-13.85 24.017-13.85v4.833c-8.133 0-15.733 4.383-19.817 11.45zM1194.248 407.94h19.283v4.833h-19.283zM1382.165 432.94h7.6v4.833h-7.6zM1247.082 435.356h-4.833c0-7.3 5.933-13.233 13.233-13.233v4.833c-4.634 0-8.4 3.767-8.4 8.4zM590.232 392.54h-17.533v-4.833h12.933c1.85-20.533 18.9-36.283 39.8-36.283 17.4 0 32.084 10.25 37.4 26.117l-4.6 1.533c-4.7-14.067-17.283-22.817-32.8-22.817-19.066 0-34.483 14.917-35.116 33.95l-.084 2.333z" class="colorb2c1f9 svgShape"></path><path fill="#b2d5f9" d="M601.265 390.856h-4.833c0-15.4 12.517-27.917 27.917-27.917v4.833c-12.734.001-23.084 10.351-23.084 23.084zM720.565 418.273h-22.317v-2.417c0-19.367-15.75-35.117-35.1-35.117-12.5 0-24.15 6.733-30.417 17.567l-4.2-2.433c7.15-12.317 20.4-19.967 34.617-19.967 21.217 0 38.617 16.617 39.867 37.533h17.55v4.834z" class="colorb2c1f9 svgShape"></path><path fill="#b2d5f9" d="m644.148 404.423-4.2-2.433c4.95-8.55 14.15-13.85 24.017-13.85v4.833c-8.133 0-15.733 4.383-19.817 11.45zM539.132 388.44h19.283v4.833h-19.283zM727.048 413.44h7.617v4.833h-7.617zM591.965 415.856h-4.833c0-7.3 5.933-13.233 13.233-13.233v4.833c-4.633 0-8.4 3.767-8.4 8.4z" class="colorb2c1f9 svgShape"></path></svg>