<svg xmlns="http://www.w3.org/2000/svg" enable-background="new 0 0 2000 2000" viewBox="0 0 2000 2000" id="MegaphoneMarketing"><path fill="#eaf1f8" fill-rule="evenodd" d="M1595.4,537.7c-13.9,0-25.2-11.3-25.2-25.2c0-13.9,11.3-25.2,25.2-25.2c13.9,0,25.3,11.3,25.3,25.2
			C1620.6,526.4,1609.3,537.7,1595.4,537.7L1595.4,537.7z M523.2,1143.1H388.3c-72.6,0-132,59.4-132,132l0,0
			c0,72.6,59.4,132,132,132H1529c117.6,0,213.8-96.2,213.8-213.8v0c0-117.6-96.2-213.8-213.8-213.8l0,0c-49.7,0-90.4-40.7-90.4-90.4
			l0,0c0-49.7,40.7-90.4,90.4-90.4h108.8c51.7,0,94-42.3,94-94l0,0c0-51.7-42.3-94-94-94h-137.6c-20.1,0-36.6-16.5-36.6-36.6l0,0
			c0-20.1,16.5-36.6,36.6-36.6h24.2c13.9,0,25.2-11.4,25.2-25.2l0,0c0-13.9-11.4-25.2-25.2-25.2h-90.9c0,0-34.7,0-68.2,0
			c-33.5,0-37.2,39.6-121.9,39.6c-130.8,0-65.4,0-196.3,0c-18.1,0-32.9,14.8-32.9,32.9l0,0c0,18.1,14.8,32.9,32.9,32.9h31.6
			c26.3,0,47.7,21.5,47.7,47.7v0c0,26.3-21.5,47.7-47.7,47.7h-95.2c-128.6,0-146.7,33.6-169.3,100.4
			c-22.5,66.8-139.5,72.2-139.5,72.2H515c-39.6,0-71.9,32.4-71.9,71.9l0,0c0,39.6,32.4,71.9,71.9,71.9h8.2
			c38.1,0,69.2,31.1,69.2,69.2l0,0C592.4,1112,561.3,1143.1,523.2,1143.1L523.2,1143.1z" clip-rule="evenodd" class="coloreaeff8 svgShape"></path><path fill="#d2e0ee" fill-rule="evenodd" d="M999.6,1442.5c440.6,0,797.8,15.6,797.8,34.9s-357.2,34.9-797.8,34.9c-440.6,0-797.8-15.6-797.8-34.9
			S558.9,1442.5,999.6,1442.5z" clip-rule="evenodd" class="colord2dfee svgShape"></path><path fill="#61a0e0" fill-rule="evenodd" d="M627.8,868.4h396.6c12.9,0,23.4,10.5,23.4,23.4v568.7c0,12.9-10.5,23.4-23.4,23.4H627.8
			c-12.9,0-23.4-10.5-23.4-23.4V891.7C604.4,878.9,614.9,868.4,627.8,868.4z" clip-rule="evenodd" class="color61a0e0 svgShape"></path><path fill="#a4d0fc" fill-rule="evenodd" d="M627.8,874.1h396.6c9.7,0,17.6,7.9,17.6,17.6v568.7c0,9.7-7.9,17.6-17.6,17.6H627.8
			c-9.7,0-17.6-7.9-17.6-17.6V891.7C610.2,882.1,618.1,874.1,627.8,874.1z" clip-rule="evenodd" class="colora4d0fc svgShape"></path><path fill="#71afed" fill-rule="evenodd" d="M930.5,895.8c0,7.2-8.6,13-19.2,13H740.9c-10.6,0-19.2-5.8-19.2-13v-39c0-7.2,8.6-13,19.2-13h170.4
			c10.6,0,19.2,5.8,19.2,13V895.8L930.5,895.8z M929.7,820H722.4c-12.9,0-23.3,8.7-23.3,19.5V898c0,10.8,10.4,19.5,23.3,19.5h207.3
			c12.9,0,23.3-8.7,23.3-19.5v-58.4C953.1,828.8,942.6,820,929.7,820z" clip-rule="evenodd" class="color71afed svgShape"></path><rect width="373.4" height="519.4" x="639.4" y="932.6" fill="#fefefe" fill-rule="evenodd" clip-rule="evenodd" class="colorfefefe svgShape"></rect><path fill="#71afed" fill-rule="evenodd" d="M932.1,932.6c0,10.8-8.7,19.5-19.5,19.5h-173c-10.8,0-19.5-8.7-19.5-19.5v-58.4c0-10.8,8.7-19.5,19.5-19.5
			h173c10.8,0,19.5,8.7,19.5,19.5V932.6z" clip-rule="evenodd" class="color71afed svgShape"></path><path fill="#a4d0fc" fill-rule="evenodd" d="M777 904.4c0 9-7.3 16.2-16.2 16.2-9 0-16.2-7.3-16.2-16.2 0-9 7.3-16.2 16.2-16.2C769.8 888.2 777 895.5 777 904.4zM912 904.4c0 9-7.3 16.2-16.2 16.2-9 0-16.2-7.3-16.2-16.2 0-9 7.3-16.2 16.2-16.2C904.7 888.2 912 895.5 912 904.4zM683.6 1057l38.5-.1.1 38.5-38.5.1L683.6 1057 683.6 1057zM684.6 1369.2l38.5-.1.1 38.5-38.5.1L684.6 1369.2 684.6 1369.2zM684.4 1306.8l38.5-.1.1 38.5-38.5.1L684.4 1306.8 684.4 1306.8zM684.2 1244.3l38.5-.1.1 38.5-38.5.1L684.2 1244.3 684.2 1244.3zM684 1181.9l38.5-.1.1 38.5-38.5.1L684 1181.9 684 1181.9zM683.8 1119.5l38.5-.1.1 38.5-38.5.1L683.8 1119.5zM752.3 1058.2l208.8-.7c3.5 0 6.4 2.9 6.4 6.4v0c0 3.5-2.9 6.4-6.4 6.4l-208.8.7c-3.5 0-6.4-2.9-6.4-6.4v0C745.9 1061.1 748.8 1058.2 752.3 1058.2L752.3 1058.2zM753.3 1370.4l208.8-.7c3.5 0 6.4 2.9 6.4 6.4v0c0 3.5-2.9 6.4-6.4 6.4l-208.8.7c-3.5 0-6.4-2.9-6.4-6.4l0 0C746.9 1373.3 749.8 1370.4 753.3 1370.4L753.3 1370.4zM753.4 1393.3l125.4-.4c3.5 0 6.4 2.9 6.4 6.4l0 0c0 3.5-2.9 6.4-6.4 6.4l-125.4.4c-3.5 0-6.4-2.9-6.4-6.4l0 0C747 1396.2 749.8 1393.3 753.4 1393.3L753.4 1393.3zM753.1 1308l208.8-.7c3.5 0 6.4 2.9 6.4 6.4l0 0c0 3.5-2.9 6.4-6.4 6.4l-208.8.7c-3.5 0-6.4-2.9-6.4-6.4v0C746.7 1310.9 749.6 1308 753.1 1308L753.1 1308zM753.2 1330.8l125.4-.4c3.5 0 6.4 2.9 6.4 6.4v0c0 3.5-2.9 6.4-6.4 6.4l-125.4.4c-3.5 0-6.4-2.9-6.4-6.4l0 0C746.8 1333.7 749.7 1330.8 753.2 1330.8L753.2 1330.8zM752.9 1245.5l208.8-.7c3.5 0 6.4 2.9 6.4 6.4l0 0c0 3.5-2.9 6.4-6.4 6.4l-208.8.7c-3.5 0-6.4-2.9-6.4-6.4l0 0C746.5 1248.4 749.4 1245.5 752.9 1245.5L752.9 1245.5zM753 1268.4l125.4-.4c3.5 0 6.4 2.9 6.4 6.4l0 0c0 3.5-2.9 6.4-6.4 6.4l-125.4.4c-3.5 0-6.4-2.9-6.4-6.4v0C746.6 1271.3 749.5 1268.4 753 1268.4L753 1268.4zM752.7 1183.1l208.8-.7c3.5 0 6.4 2.9 6.4 6.4l0 0c0 3.5-2.9 6.4-6.4 6.4l-208.8.7c-3.5 0-6.4-2.9-6.4-6.4v0C746.3 1186 749.2 1183.1 752.7 1183.1L752.7 1183.1zM752.8 1205.9l125.4-.4c3.5 0 6.4 2.9 6.4 6.4l0 0c0 3.5-2.9 6.4-6.4 6.4l-125.4.4c-3.5 0-6.4-2.9-6.4-6.4l0 0C746.4 1208.8 749.3 1205.9 752.8 1205.9L752.8 1205.9zM752.5 1120.6l208.8-.7c3.5 0 6.4 2.9 6.4 6.4l0 0c0 3.5-2.9 6.4-6.4 6.4l-208.8.7c-3.5 0-6.4-2.9-6.4-6.4l0 0C746.1 1123.5 749 1120.6 752.5 1120.6L752.5 1120.6zM752.6 1143.5l125.4-.4c3.5 0 6.4 2.9 6.4 6.4v0c0 3.5-2.9 6.4-6.4 6.4l-125.4.4c-3.5 0-6.4-2.9-6.4-6.4v0C746.2 1146.4 749.1 1143.5 752.6 1143.5L752.6 1143.5zM752.4 1081l125.4-.4c3.5 0 6.4 2.9 6.4 6.4l0 0c0 3.5-2.9 6.4-6.4 6.4l-125.4.4c-3.5 0-6.4-2.9-6.4-6.4l0 0C746 1083.9 748.9 1081 752.4 1081z" clip-rule="evenodd" class="colora4d0fc svgShape"></path><path fill="#61a0e0" fill-rule="evenodd" d="M688,1066c-1.1-1.7-0.5-4,1.2-5c1.7-1.1,4-0.5,5,1.2l8.7,14l20-27.8c1.2-1.6,3.5-2,5.1-0.8
				c1.6,1.2,2,3.5,0.8,5.1l-23.1,32.1c-0.3,0.4-0.7,0.8-1.2,1.1c-1.7,1.1-4,0.5-5-1.2L688,1066L688,1066z M688.2,1128.4
				c-1.1-1.7-0.5-4,1.2-5c1.7-1.1,4-0.5,5,1.2l8.7,14l20-27.8c1.2-1.6,3.5-2,5.1-0.8c1.6,1.2,2,3.5,0.8,5.1l-23.1,32.1
				c-0.3,0.4-0.7,0.8-1.2,1.1c-1.7,1.1-4,0.5-5-1.2L688.2,1128.4L688.2,1128.4z M689,1378.2c-1.1-1.7-0.5-4,1.2-5
				c1.7-1.1,4-0.5,5,1.2l8.7,14l20-27.8c1.2-1.6,3.5-2,5.1-0.8c1.6,1.2,2,3.5,0.8,5.1l-23.1,32.1c-0.3,0.4-0.7,0.8-1.2,1.1
				c-1.7,1.1-4,0.5-5-1.2L689,1378.2L689,1378.2z M688.8,1315.8c-1.1-1.7-0.5-4,1.2-5c1.7-1.1,4-0.5,5,1.2l8.7,14l20-27.8
				c1.2-1.6,3.5-2,5.1-0.8c1.6,1.2,2,3.5,0.8,5.1l-23.1,32.1c-0.3,0.4-0.7,0.8-1.2,1.1c-1.7,1.1-4,0.5-5-1.2L688.8,1315.8
				L688.8,1315.8z M688.6,1253.3c-1.1-1.7-0.5-4,1.2-5c1.7-1.1,4-0.5,5,1.2l8.7,14l20-27.8c1.2-1.6,3.5-2,5.1-0.8
				c1.6,1.2,2,3.5,0.8,5.1l-23.1,32.1c-0.3,0.4-0.7,0.8-1.2,1.1c-1.7,1.1-4,0.5-5-1.2L688.6,1253.3L688.6,1253.3z M688.4,1190.9
				c-1.1-1.7-0.5-4,1.2-5c1.7-1.1,4-0.5,5,1.2l8.7,14l20-27.8c1.2-1.6,3.5-2,5.1-0.8c1.6,1.2,2,3.5,0.8,5.1l-23.1,32.1
				c-0.3,0.4-0.7,0.8-1.2,1.1c-1.7,1.1-4,0.5-5-1.2L688.4,1190.9z" clip-rule="evenodd" class="color61a0e0 svgShape"></path><path fill="#a4d0fc" fill-rule="evenodd" d="M687.9 973.7h276.4c5.3 0 9.7 4.4 9.7 9.7l0 0c0 5.3-4.4 9.7-9.7 9.7H687.9c-5.3 0-9.7-4.4-9.7-9.7l0 0C678.2 978.1 682.5 973.7 687.9 973.7zM668.5 1004.8h315.2c5.3 0 9.7 4.4 9.7 9.7l0 0c0 5.3-4.4 9.7-9.7 9.7H668.5c-5.3 0-9.7-4.4-9.7-9.7l0 0C658.8 1009.1 663.1 1004.8 668.5 1004.8z" clip-rule="evenodd" class="colora4d0fc svgShape"></path><path fill="#dfecfa" fill-rule="evenodd" d="M790 892.3h72.1c1.7 0 3 1.3 3 3v1.1c0 1.7-1.3 3-3 3H790c-1.7 0-3-1.3-3-3v-1.1C787 893.6 788.4 892.3 790 892.3zM790 907.4h72.1c1.7 0 3 1.3 3 3v1.1c0 1.7-1.3 3-3 3H790c-1.7 0-3-1.3-3-3v-1.1C787 908.8 788.4 907.4 790 907.4zM908.6 905.4c0 7.7-6.2 13.9-13.9 13.9-7.7 0-13.9-6.2-13.9-13.9 0-7.7 6.2-13.9 13.9-13.9C902.4 891.6 908.6 897.8 908.6 905.4zM773.2 906.5c0 7.7-6.2 13.9-13.9 13.9-7.7 0-13.9-6.2-13.9-13.9 0-7.7 6.2-13.9 13.9-13.9C767 892.7 773.2 898.9 773.2 906.5z" clip-rule="evenodd" class="colordfedfa svgShape"></path><path fill="#74b8fc" fill-rule="evenodd" d="M1273,795.4c38.5-4.5,98.7-4.5,125,33.2c17.3,26.8,48.2,94.3,69.9,171c25.1,88.8,40.2,187.8,43.3,214.3
			c-30.1,49.4-26,144.6-101.2,159.1c-75.2,14.5-113,7.3-113,7.3l-1.7-17.1c-14.7-6.8-29.2-18.6-43-34.5
			c-18.8-8.3-37.2-26.5-53.7-52.1l-62-216.3c-4.2-78.2,10-145.1,36.9-179.8c13.4-42.2,34.2-72.1,60.3-83c4.5-1.9,9.2-3.2,14.1-3.9
			C1256.3,792.4,1264.6,793.1,1273,795.4z" clip-rule="evenodd" class="colorfc9774 svgShape"></path><path fill="#4469f5" fill-rule="evenodd" d="M1008.7,1445.9c10.1,12.5,19.2,23.2,25.8,30.9l0.2,0.2c6.4,7.3,17.2,8.9,25.5,3.8l8.7-5.4
				c4.8-2.9,8.6-7.2,11-12.2l10.6-22.3l3.3-6.9c0.8-1.7,1.3-3.4,1.6-5.1c0.6-3,0.4-6-0.5-8.9c-0.6-2.3-1.7-4.6-3.2-6.6
				c-0.4-0.6-0.9-1.2-1.4-1.7c-1.7-1.9-3.5-3.9-5.2-5.9c-36.6-42.2-72.3-104.1-87.3-131.5c-4.7-8.5-4.5-18.8,0.3-27.2l2.4-4l4.9-8.3
				l3.8-6.6l4.9-8.4l-1.7-2.5l-26.8,4.9l-17,3.1l-70.1,12.9l-43.3,7.9l-30.5,5.6c2.4,4.9,4.8,9.5,7.3,13.7c1,1.8,2,3.5,3,5.1
				c0.9,1.4,1.7,2.8,2.6,4.1c26.3,39.9,54.4,44.9,70.4,43.7c0.9-0.1,1.7-0.2,2.5-0.3c4.4-0.6,8.7,0.8,11.9,3.6l0.1,0
				c1.4,1.3,2.6,2.9,3.4,4.7C941.7,1360.5,979.7,1410.2,1008.7,1445.9z" clip-rule="evenodd" class="colorf57a44 svgShape"></path><path fill="#2b54f0" fill-rule="evenodd" d="M942.8,1271.3c-30.3,23.6-75.2,23.7-77,23.7c29.3,30.3,82.7-11.9,87.6-13.4
				c4.4-1.3,114.1,131.3,137.1,159.3l3.3-6.9c0.8-1.6,1.3-3.4,1.6-5c0.5-3,0.4-6-0.5-8.9c-0.6-2.3-1.7-4.6-3.2-6.6
				c-0.4-0.6-0.9-1.2-1.4-1.7c-1.8-1.9-3.5-3.9-5.2-5.9c-36.6-42.2-72.3-104.1-87.3-131.5c-4.7-8.5-4.5-18.8,0.4-27.2l11.1-18.8
				l4.9-8.4l-1.7-2.5l-26.8,4.9l-87.1,16l-43.2,7.9l-30.5,5.6c2.4,4.9,4.8,9.5,7.3,13.7c36.1-7.5,84.4-16,93.3-10.2
				c4.6,3.9,10,6.4,15.9,8C944.9,1264.3,945.8,1269,942.8,1271.3z" clip-rule="evenodd" class="colorf0662b svgShape"></path><path fill="#4469f5" fill-rule="evenodd" d="M730.6,1232.1c2.8,2.7,5.7,5.4,9,7.9c5.6,4.3,11.9,8.3,19,11.9c26.3,12.2,112.3,1.3,158.2-7.2l0.1,0
				c0,0,5.9-4,7.8-1.6c0.7,0.8,8.2,2.4,17.7,3.5l0.1,0c3.5,0.4,7.3,0.9,11,1.1l0.5,0c15.1,1.1,30.4,0.3,30.5-5.7l0,0l0.1-0.1l0-0.1
				c0.1-2.4,2.5-5.5,6-8.8c1.7-1.6,3.7-3.2,5.8-4.8c6.1-4.6,13.6-9.3,20.4-13.3c10.3-6,19-10.5,19-10.5l-19.1-24.2l0,0l-15.7-19.8
				l-29.8-135.8l-0.7-3.3l-0.1,0c-1.1-0.6-13.6-7.1-38.7-1.7c-2.5,0.5-6,1.3-10.3,2.3c-23.6,5.6-70.9,17.4-106.2,26.3l-0.8,0.2
				c-18.6,4.7-33.8,8.5-40.3,10.1c-2.3,0.6-3.5,0.9-3.5,0.9c0,0-12.5,3.4-26.1,11.1c-12.3,6.8-25.5,17.2-31.7,31.5
				c-3.7,8.4-7.5,21-9.4,35.4c-1.2,9.1-1.7,19-1,29.1C704,1189.2,711.6,1213,730.6,1232.1z" clip-rule="evenodd" class="colorf57a44 svgShape"></path><path fill="#4469f5" fill-rule="evenodd" d="M777.4,1238.7c6.7,7.7,40.2,6.5,74.9,3.1h0.1c10.6-1.1,21.3-2.4,31.3-3.7l0.1,0c6.5-0.9,12.9-1.8,18.7-2.6
				c5-0.7,6.9-7,3.1-10.4c-0.6-0.6-1.4-0.9-2.1-1.2c-39.5-12.7-35.6-95.3-39.9-101c-4.7-6.2-109.2,0.9-123.5,22.1
				c-1,1.4-1.5,2.9-1.6,4.4c-0.2,3.9,0.2,8.3,1.2,13.1c0.5,2.7,1.3,5.5,2.1,8.4l0,0.1c0.7,2.5,1.6,5,2.4,7.5
				c5.6,15.6,14.3,32.5,22.4,45.4c3.1,4.9,6.1,9.1,8.8,12.5C776,1237,776.8,1237.9,777.4,1238.7L777.4,1238.7z M702.4,1166.6
				c-0.7-10.1-0.2-20,1-29.1c1.9-14.5,5.7-27,9.4-35.4c6.3-14.4,19.5-24.7,31.7-31.5c-14.1,16.7-24,33.6-29.5,52.3l-0.2,0.7
				c-1.6,5.7-2.8,11.5-3.7,17.6c-1,7.1-1.4,14.4-1.3,22.2c0.1,4.1,0.3,8.4,0.8,12.8c0.1,1.3,0.2,2.6,0.3,3.9c0.1,1,0.2,2,0.4,3
				c3.1,20.6,14.4,36,26.8,46.9c3.9,3.5,7.8,6.5,11.7,9c4.1,2.8,8.1,5.1,11.7,7c1.4,0.8,2.6-1.1,1.5-2.2c-1.9-1.6-3.8-3.4-5.8-5.6
				c-2.8-3-5.8-6.6-8.7-10.8c-5-7.2-9.8-16.3-13.8-27.8c-2.3-6.5-4.2-12.8-5.7-19l0,0c-0.6-2.4-1.1-4.8-1.6-7.1
				c-0.7-3.4-1.2-6.7-1.6-10c-0.8-6.5-1.1-12.9-0.9-19.2c0.3-7.5,1.4-15,3.4-22.5c0.2-0.6,0.3-1.2,0.5-1.8c3.3-12,8.9-24,17-36.6
				c6.2-9.6,16.4-17.8,28.3-24.7c6.5-1.7,21.7-5.5,40.3-10.1c-28.8,13.6-44.5,25.8-53.1,35.3c-6.3,7,0.3,18,9.5,15.8
				c34.1-7.9,102.5-26.5,124.8-52.9c29.5-35,73.1-25.7,74.9-25.4l0.1,0c0,0,0,0.8,0.2,2.3c0.9,12.1,4.4,70.6-3.2,121.4l0,0.1
				c-5.8,39.1-18,73.6-43,79.2l10.6,5.9c1.5-0.3,2.3-0.4,2.3-0.4s28.2,1.3,53.1,3.2c-3.5,3.3-5.9,6.4-6,8.8l0,0.1l-0.1,0.1l0,0
				c-0.1,6-15.4,6.8-30.5,5.7l-0.5,0c-3.8-0.2-7.6-0.7-11-1.1l-0.1,0c-9.5-1.1-17-2.7-17.7-3.5c-1.9-2.4-7.8,1.6-7.8,1.6l-0.1,0
				c-46,8.5-131.9,19.4-158.2,7.2c-7.1-3.6-13.5-7.6-19-11.9c-3.3-2.6-6.2-5.2-9-7.9C711.6,1213,704,1189.2,702.4,1166.6z" clip-rule="evenodd" class="colorf57a44 svgShape"></path><path fill="#1f4aed" fill-rule="evenodd" d="M999.3,1236.4c0,0-14,10.4-40.7,4.2c-26.8-6.2-48.9-24.8-61.5-49.1c-21.6-41.7-33.4-109.7,32.7-154.9
				L999.3,1236.4z" clip-rule="evenodd" class="colored5d1f svgShape"></path><path fill="#4469f5" fill-rule="evenodd" d="M771.6,1083.5c-3,3.9,0.6,9.4,5.4,8.1c22.9-6.2,85.7-24.9,113.1-49.7c10.8-9.8,21.6-16,31.3-20
				c-23.6,5.6-70.9,17.4-106.2,26.3C789,1065.6,776.9,1076.6,771.6,1083.5z" clip-rule="evenodd" class="colorf57a44 svgShape"></path><path fill="#74b8fc" fill-rule="evenodd" d="M949.1,1029l-13,4c-36.7,20.5-43.7,59.3-43.7,59.3l-0.9,35.2c0,0,8.5,36.8,9.2,36.6c0.7-0.2,20,40.8,20,40.8
				l14.5,14.2c2.5,4.4,10.6,8.4,17,11c4.9,2,10.1,3.2,15.4,3.6l24.8,1.8h0.1l0.3,0l12.2,0.9c32.5,3.1,122.5,16.1,197,68.3
				c0,0-2.5-8.5-5.2-17.1l3-5.6l-5.3-1.8c-1.8-5.7-3.4-10.2-3.7-10.1c-0.4,0.1-7.6-9-14.5-18.1c-0.1-26.3-22.7-176.9-36.9-268.9
				l13.2-16.5l-20.1-27.9l-4.3-27.5C1128.1,911.4,1059.3,993.2,949.1,1029z" clip-rule="evenodd" class="colorfc9774 svgShape"></path><path fill="#2b54f0" fill-rule="evenodd" d="M902.8,1185.3c6.7,11.3,15,21.7,24.9,30.2c9.3,7.9,20.9,15.4,33.1,17.7c0,0-55.7-20.7-64.8-105
				c-0.1-0.7-0.2-1.5-0.2-2.2c-0.3-2.1-0.5-4.1-0.6-6c-3.7-51.3,22.2-75.1,34.6-83.4c-19.7,12.2-32.8,31.9-38.9,54.3
				c-2.9,10.7-4.4,21.9-4.7,33c0,1.6-0.1,3.1-0.1,4.6l0,1.3C886.4,1150.2,892.4,1167.8,902.8,1185.3z" clip-rule="evenodd" class="colorf0662b svgShape"></path><path fill="#74b8fc" fill-rule="evenodd" d="M1120.3,1086.6c-4-74.6,14.7-135.2,47-148.6c2.8-1.2,5.6-2,8.6-2.4c42.9-6.2,89.2,67.5,103.4,164.7
				c13,88.7-5.2,166.2-41,184c-3.5,1.7-7.1,2.9-10.9,3.4c-21,3.1-42.9-13-61.4-41.8L1120.3,1086.6z" clip-rule="evenodd" class="colorfc9774 svgShape"></path><path fill="#2b54f0" fill-rule="evenodd" d="M1292,1016l-135.5,16.5c0,0-0.9,76.7,21.3,137.7l131.7-22.4c1.6,0,3.2-0.1,4.9-0.4
				c6.1-1.2,11.4-4.6,15.7-9.6l0.1-0.1c11.1-13.1,16-37.2,11-63.1c-6.6-34.6-28.2-59.7-49.1-58.1L1292,1016z" clip-rule="evenodd" class="colorf0662b svgShape"></path><path fill="#1f4aed" fill-rule="evenodd" d="M1317,1146.5c6.1-1.1,11.4-4.6,15.7-9.6l0.1-0.1c11.1-13.1,16-37.2,11-63.1c-6.9-36-30.1-61.9-51.8-57.7
				c-4,0.8-7.7,2.5-11,5.1c-14.5,11.3-21.4,38.3-15.8,67.6C1272.1,1124.8,1295.3,1150.7,1317,1146.5z" clip-rule="evenodd" class="colored5d1f svgShape"></path><path fill="#385ff2" fill-rule="evenodd" d="M1321.8,1141.9c4-0.8,7.6-2.5,10.9-5l0.1-0.1c11.1-13.1,16-37.2,11-63.1c-6.9-36-30.1-61.9-51.8-57.7
				c-4,0.8-7.7,2.5-11,5.1c-11.1,13.1-15.9,37.1-11,63C1277,1120.2,1300.1,1146,1321.8,1141.9z" clip-rule="evenodd" class="colorf27038 svgShape"></path><path fill="#a8d1fb" fill-rule="evenodd" d="M1321.1,1116.3c8.9-1.5,14.9-12.2,15.6-26c0.2-4,0-8.2-0.7-12.5c-3.3-19.3-15.2-33.4-26.7-31.4
				c-2,0.3-3.8,1.1-5.4,2.3c-8,5.6-12.2,20.2-9.4,36.2C1297.7,1104.1,1309.6,1118.2,1321.1,1116.3z" clip-rule="evenodd" class="colorfbbfa8 svgShape"></path><path fill="#dcedff" fill-rule="evenodd" d="M1331.3,1092.5c2-0.3,3.7-1.1,5.4-2.3c0.2-4,0-8.2-0.7-12.5c-3.3-19.3-15.2-33.4-26.7-31.4
				c-2,0.3-3.8,1.1-5.4,2.3c-0.2,3.9,0,8.2,0.8,12.5C1307.9,1080.4,1319.8,1094.5,1331.3,1092.5z" clip-rule="evenodd" class="colorffe2dc svgShape"></path><path fill="#1f4aed" fill-rule="evenodd" d="M1308,1047.8l1.5-0.3c10.8-1.8,22.2,11.8,25.4,30.5c3.2,18.7-3,35.3-13.9,37.2c-5.1,0.9-10.6-1.7-15.4-7.4
				c-4.9-5.8-8.5-14-10-23.2C1292.5,1066.8,1298,1050.8,1308,1047.8L1308,1047.8z M1323,1117c11-3.4,17.3-20.4,14.1-39.4
				c-3.4-19.9-15.9-34.4-28-32.3c-12.1,2.1-19.1,19.9-15.8,39.8c1.6,9.5,5.4,18.1,10.5,24.2c5.3,6.2,11.5,9.1,17.5,8.1
				C1321.9,1117.3,1322.4,1117.1,1323,1117z" clip-rule="evenodd" class="colored5d1f svgShape"></path><path fill="#4469f5" fill-rule="evenodd" d="M1474.1,1053.5c-27.2-153-118.1-265.1-203-250.3c-79.7,13.8-125.8,134.4-108.7,275.7
			c1.1,9.3,2.5,18.7,4.2,28.1c27.2,153,118.1,265.1,203,250.4c73.6-12.8,118.6-117,111.5-244.3
			C1480.1,1093.7,1477.8,1073.7,1474.1,1053.5L1474.1,1053.5z M1124,1111.8c-1.7-9.9-3.2-19.7-4.3-29.5
			c-20-166.9,40.1-310.8,140.6-328.2c106.4-18.5,217.8,111.7,248.9,290.8c3.6,20.7,6,41.1,7.2,61c9.3,153.1-49.3,280.3-143.4,296.6
			C1266.6,1421,1155.2,1290.8,1124,1111.8z" clip-rule="evenodd" class="colorf57a44 svgShape"></path><path fill="#4469f5" fill-rule="evenodd" d="M1372.5,1388.9c79.7-13.9,125.8-134.6,108.6-275.9c-1.1-19.4-3.4-39.3-7-59.5
			c-27.2-153-118.1-265.1-203-250.3c-79.7,13.8-125.8,134.4-108.7,275.7c1.1,19.4,3.4,39.4,7,59.7
			C1196.7,1291.6,1287.5,1403.7,1372.5,1388.9L1372.5,1388.9z M1124,1111.8c-1.7-9.9-3.2-19.7-4.3-29.5
			c-9.3-153.1,49.4-280.3,143.4-296.6c106.4-18.5,217.8,111.7,249,290.7c1.7,9.9,3.2,19.7,4.3,29.5
			c9.3,153.1-49.3,280.3-143.4,296.6C1266.6,1421,1155.2,1290.8,1124,1111.8z" clip-rule="evenodd" class="colorf57a44 svgShape"></path><g fill="#000000" class="color000000 svgShape"><path fill="#4469f5" fill-rule="evenodd" d="M610.4,1380.6H314.9c-14.1,0-26,2.1-28.6,15.5h265c7.5,0,13.7,6.2,13.7,13.7v46.8c0,7.5-6.1,13.7-13.7,13.7
			H287c3.7,11.8,14.8,13.6,27.9,13.6h295.5c16.1,0,29.2-13.1,29.2-29.2v-44.8C639.6,1393.7,626.4,1380.6,610.4,1380.6z" clip-rule="evenodd" class="colorf57a44 svgShape"></path><path fill="#61a0e0" fill-rule="evenodd" d="M559.2,1277.4H263.7c-14.1,0-26,2.1-28.6,15.5h265c7.5,0,13.7,6.2,13.7,13.7v46.8c0,7.5-6.1,13.7-13.7,13.7
			H235.9c3.7,11.8,14.8,13.6,27.9,13.6h295.5c16.1,0,29.2-13.1,29.2-29.2v-44.8C588.4,1290.6,575.3,1277.4,559.2,1277.4z" clip-rule="evenodd" class="color61a0e0 svgShape"></path><path fill="#eff5fc" fill-rule="evenodd" d="M301 1470.2c12.5-23.4 13-48.1 1.4-74.1h248.8c7.5 0 13.7 6.2 13.7 13.7v46.8c0 7.5-6.1 13.7-13.7 13.7H301zM249.9 1367c12.5-23.4 13-48.1 1.4-74.1h248.8c7.5 0 13.7 6.2 13.7 13.7v46.8c0 7.5-6.1 13.7-13.7 13.7H249.9z" clip-rule="evenodd" class="coloreff9fc svgShape"></path><path fill="#a8d1fb" fill-rule="evenodd" d="M539.9,1407.8h-233c0.9,2.9,1.6,5.8,2.2,8.7h230.8c2.4,0,4.4-2,4.4-4.4l0,0
			C544.3,1409.8,542.3,1407.8,539.9,1407.8L539.9,1407.8z M306.1,1458.9c1.1-2.9,1.9-5.8,2.6-8.7h231.2c2.4,0,4.4,2,4.4,4.4l0,0
			c0,2.4-2,4.4-4.4,4.4H306.1L306.1,1458.9z M310.6,1437.7c0.2-2.9,0.2-5.8,0.1-8.7h229.2c2.4,0,4.4,2,4.4,4.4v0
			c0,2.4-2,4.4-4.4,4.4H310.6z" clip-rule="evenodd" class="colorfbbfa8 svgShape"></path><path fill="#71afed" fill-rule="evenodd" d="M488.7,1304.7h-233c0.9,2.9,1.6,5.8,2.2,8.7h230.8c2.4,0,4.4-2,4.4-4.4v0
			C493.1,1306.6,491.1,1304.7,488.7,1304.7L488.7,1304.7z M254.9,1355.7c1.1-2.9,1.9-5.8,2.6-8.7h231.2c2.4,0,4.4,2,4.4,4.4v0
			c0,2.4-2,4.4-4.4,4.4H254.9L254.9,1355.7z M259.4,1334.6c0.2-2.9,0.2-5.8,0.1-8.7h229.2c2.4,0,4.4,2,4.4,4.4l0,0
			c0,2.4-2,4.4-4.4,4.4H259.4z" clip-rule="evenodd" class="color71afed svgShape"></path></g><path fill="#7dbeff" fill-rule="evenodd" d="M313.8 1239.8c0 0-5.3 5.2-5.4 7.1-.1 1.9-.5 22.2 1.7 24.1 2.2 1.9 8.5 3.3 6.5 5.4-1.5 1.6-13.4 1.3-21.3.8-2.3-.2-5.2-18.4-6.1-21.1-1.3-3.9-6.1-12.4-4.9-15.1.6-1.3 4.9-4.4 8.9-6.9 4.1-2.7 8.1-8.6 8.1-8.6L313.8 1239.8zM384.7 1252.4l-4.7 13.4c-.4 2.1-1.7 7.4-1.7 9.3 0 7.2 32.7-6.1 25.4-9.4-.7-.3-2.7-2.6-3-5.1-.3-3.8 2.7-8.5 2.7-8.5L384.7 1252.4z" clip-rule="evenodd" class="colorffb27d svgShape"></path><path fill="#3b77b3" fill-rule="evenodd" d="M429.8,998.6l11.8,30.2c0,0,7.7,72,3.2,115.1c-1.9,18-42.6,114.6-42.6,114.6l-20.2-2.8l27.1-114.3l-10-43.7
		l-14.1-86.4L429.8,998.6z" clip-rule="evenodd" class="color3b5bb3 svgShape"></path><path fill="#0575e6" fill-rule="evenodd" d="M374,1000.2l-10.2,33.6l-15.4,101.4l-52.2,94.9c0,0,7.8,11.9,16.3,13.8l74.1-95.9l40.2-120.1l-1.4-26.7
		L374,1000.2z" clip-rule="evenodd" class="color4567c6 svgShape"></path><path fill="#283e91" fill-rule="evenodd" d="M293.4 1233.8c0 0 11.2 33.7 15.9 35.3 1.3.4 8.4 2.2 9.6 4.9l.1.3c.4 1.7-1.1 3.3-2.9 3.3h-22.7c0 0-3.2-15.1-4.5-21.8 0 0-6.7-16.3-6-17.7C283.8 1236.6 293.4 1233.8 293.4 1233.8zM376.3 1277.5l3.7-11.8c0 0 7.9 3.3 11.8 2.8 3.9-.5 11.6-2.8 11.6-2.8 15.7 5.2 28.5 7.7 26.2 11.8H376.3z" clip-rule="evenodd" class="color284191 svgShape"></path><path fill="#7dbeff" fill-rule="evenodd" d="M543.4,834.1c0,0,3.9-19,5.4-21.8c1.5-2.8,10.4-11,11.3-10.8c0.9,0.2,1.3,1,0.7,2.8c-0.7,1.8-4,7.2-3.2,7.2
		c0.9,0,11.7-15.2,15.1-13.9c3.4,1.3,5.5,13.3,2.4,21.2c-3.1,7.9-18.9,19-19.6,20.2C549.5,849.5,543.4,834.1,543.4,834.1z" clip-rule="evenodd" class="colorffb27d svgShape"></path><path fill="#4f8dcc" fill-rule="evenodd" d="M438.4,893.6c0,0,44.5-15.2,61.8-26.2c5.4-3.5,38.8-37.1,40.9-38.4c2.1-1.3,17.1,11.1,17.1,11.1
		s-40.4,42.8-43.3,45.6c-2.9,2.9-61,38-68.2,38.4c-7.1,0.5-15.1-7.4-16.6-14.9C428.1,898.8,438.4,893.6,438.4,893.6z" clip-rule="evenodd" class="color4f8ecc svgShape"></path><path fill="#61a0e0" fill-rule="evenodd" d="M408.1,877.1c-29.4-1.5-38.7,21.2-35.2,47.8c3.3,24.8,6.8,56.2,4.7,64.1c-3.7,13.6-10.5,33.5-10.5,33.5
		s53.2,13.5,74.9,9.4c0,0-0.9-32.6,0.7-40.8c1.5-8.2,13.4-91,11.6-95.8c-1.8-4.8-6.4-8.2-15.8-12.1
		C429.1,879.2,408.1,877.1,408.1,877.1z" clip-rule="evenodd" class="color61a0e0 svgShape"></path><path fill="#7dbeff" fill-rule="evenodd" d="M416.2,855.7l-7.9,22.3c0,0,7.9,29.8,16.1,28.9c6.9-0.8,7.4-25.7,7.4-25.7s-1.1-13.7,1.2-20
		C435.3,854.9,416.2,855.7,416.2,855.7z" clip-rule="evenodd" class="colorffb27d svgShape"></path><path fill="#6785f5" fill-rule="evenodd" d="M433,861.2c2.3-6.3-16.8-5.5-16.8-5.5l-0.6,1.8c0.3,1.4,0.7,2.6,1.4,3.6c3.3,5.1,9.2,8.9,14.7,10.1
		C431.7,867.6,432.1,863.8,433,861.2z" clip-rule="evenodd" class="colorf58b67 svgShape"></path><path fill="#7dbeff" fill-rule="evenodd" d="M419.3,822.6c-0.5-0.3-9.1,25.4-3.5,33.9c5.5,8.5,18.5,13.4,24.4,8.6c2.9-2.4,9.1-9.4,7.5-19
		c-1.7-9.7-0.1-19-5.2-24.2C433.1,812.6,419.3,822.6,419.3,822.6z" clip-rule="evenodd" class="colorffb27d svgShape"></path><path fill="#021b79" fill-rule="evenodd" d="M436.4,804.9c-11.1,9-53.9,1.9-33.9,48.1c2.4,2.7,6,18.9,6.4,21.4c0.6,4,5.4-9.5,5.4-9.5l0.9-4.2
		c1.4-2.4,2.2-5.1,2.5-7.9c0.1-1.6,0.1-3.5-0.3-5.1c-1.1-4.1,5.1-5.6,7.3-8.5c1.7-2.2,2.8-7.8,5.5-11.4l2.9-2.7
		c0,0,6.1-3.1,11.1-0.9C449.2,826.5,453.8,812.5,436.4,804.9z" clip-rule="evenodd" class="color22407a svgShape"></path><path fill="#7dbeff" fill-rule="evenodd" d="M423.3,844c-0.6,3.2-2.5,5.6-4.4,5.2c-1.9-0.3-3-3.2-2.5-6.4c0.6-3.2,2.5-5.6,4.4-5.2
		C422.8,837.9,423.9,840.8,423.3,844z" clip-rule="evenodd" class="colorffb27d svgShape"></path><path fill="#021b79" fill-rule="evenodd" d="M404.3,824.5c3.5-2.2,4.7-4.5,3.4-7.1c-5.5-2.5-10.7-2.6-15.6-0.3C395.1,817.2,399.1,819.7,404.3,824.5z" clip-rule="evenodd" class="color22407a svgShape"></path><path fill="#021b79" fill-rule="evenodd" d="M412.1 823.5c-2.8 3-5.4 3.7-7.7 1.9-1.3-5.9-.3-11 2.9-15.3C406.8 813 408.4 817.5 412.1 823.5zM441.2 816c5 1.1 7.2 3.4 6.8 6.9-5.4 5.1-11.3 7.3-17.9 6.6C433.5 828.1 437.2 823.6 441.2 816z" clip-rule="evenodd" class="color22407a svgShape"></path><path fill="#125aa3" fill-rule="evenodd" d="M439.5,836.4c1.5-1.3,2.8-2.6,4.4-3.8c2.3-1.8,3.4,0.2,5.2-0.1c-0.4-0.2-0.4-0.3-0.9-0.7
		c-2.8-2.1-4.7-0.9-7.2,1.5C439.6,834.5,439.2,834.1,439.5,836.4z" clip-rule="evenodd" class="color125aa3 svgShape"></path><g fill="#000000" class="color000000 svgShape"><path fill="#ffffff" fill-rule="evenodd" d="M443.9,834.5c0.9-0.2,1.7,0.5,1.9,1.6c0.2,1.1-0.4,2.2-1.2,2.5c-0.9,0.2-1.7-0.5-1.9-1.6
			C442.5,835.8,443,834.7,443.9,834.5z" clip-rule="evenodd" class="colorffffff svgShape"></path><path fill="#125aa3" fill-rule="evenodd" d="M444.6,838.5c0.9-0.2,1.4-1.4,1.2-2.5c-0.2-1.1-1-1.8-1.9-1.6c-0.4,0.1-0.7,0.4-0.9,0.7l0.1-0.1
			c0.3-0.1,0.6,0.2,0.6,0.5c0.1,0.4-0.1,0.7-0.4,0.8c-0.3,0.1-0.6-0.2-0.6-0.5l0-0.1c-0.1,0.3-0.1,0.7,0,1.1
			C442.9,838.1,443.7,838.8,444.6,838.5z" clip-rule="evenodd" class="color125aa3 svgShape"></path></g><path fill="#125aa3" fill-rule="evenodd" d="M435.1,838.1c-1.8-0.3-3.4-0.8-5.2-1.1c-2.7-0.4-3,2-4.7,2.7c0.3-0.4,0.3-0.5,0.6-1.2c1.9-3.4,4-3.3,7-2.5
		C434.4,836.3,434.6,835.8,435.1,838.1z" clip-rule="evenodd" class="color125aa3 svgShape"></path><g fill="#000000" class="color000000 svgShape"><path fill="#ffffff" fill-rule="evenodd" d="M430.5,838.7c-0.9,0.2-1.4,1.4-1.2,2.5c0.2,1.1,1,1.8,1.9,1.6c0.9-0.2,1.4-1.4,1.2-2.5
			C432.2,839.1,431.4,838.4,430.5,838.7z" clip-rule="evenodd" class="colorffffff svgShape"></path><path fill="#125aa3" fill-rule="evenodd" d="M431.2,842.7c-0.9,0.2-1.7-0.5-1.9-1.6c-0.2-1.1,0.4-2.2,1.2-2.5c0.4-0.1,0.7,0,1,0.2l-0.1,0
			c-0.3,0.1-0.5,0.4-0.4,0.8c0.1,0.4,0.3,0.6,0.6,0.5c0.3-0.1,0.5-0.4,0.4-0.8l0-0.1c0.2,0.3,0.3,0.6,0.4,1
			C432.6,841.4,432.1,842.5,431.2,842.7z" clip-rule="evenodd" class="color125aa3 svgShape"></path></g><path fill="none" stroke="#74b8fc" stroke-linecap="round" stroke-miterlimit="2.613" stroke-width=".082" d="M438.4,840.8c2.2,4.6,3.2,7.2,3,8c-0.4,0.8-1,1.3-1.6,1.4" clip-rule="evenodd" class="colorStrokefc9774 svgStroke"></path><path fill="#74b8fc" fill-rule="evenodd" d="M442.8,856.1c-2.7,2.2-5.8,2.5-9.3,0.8C437.6,856.7,440.7,856.4,442.8,856.1z" clip-rule="evenodd" class="colorfc9774 svgShape"></path><path fill="#4469f5" fill-rule="evenodd" d="M627.1,858.9l-56-27.8l-54.7,30.3c-6.2,3.4-13.7-1.8-12.7-8.8l9.2-61.8l-45.7-42.6
		c-5.2-4.9-2.6-13.6,4.4-14.8l61.6-10.4l26.4-56.6c3-6.5,12-6.6,15.4-0.4l28.9,55.4l62,7.6c7.1,0.9,10.1,9.5,5.1,14.6l-43.7,44.6
		l11.9,61.3C640.7,856.5,633.4,862,627.1,858.9z" clip-rule="evenodd" class="colorf57a44 svgShape"></path><path fill="#7dbeff" fill-rule="evenodd" d="M498.7,823.2c0,0,6.6-17.1,8.4-19.5c1.9-2.4,11.4-8.6,12.2-8.3c0.8,0.4,1.1,1.2,0.2,2.7
		c-0.9,1.6-4.9,6.1-4.1,6.2c0.8,0.1,13.2-12.3,16.2-10.5c3,1.8,3,13.2-1.1,20c-4.1,6.9-20.5,14.7-21.4,15.7
		C502,838.6,498.7,823.2,498.7,823.2z" clip-rule="evenodd" class="colorffb27d svgShape"></path><path fill="#4f8dcc" fill-rule="evenodd" d="M387.8,890.2c0,0,45.5-15.5,63.1-26.8c5.5-3.5,45.1-43.7,47.3-45c2.2-1.3,18.6,10.1,18.6,10.1
		s-47.9,50.8-50.9,53.7c-2.9,2.9-62.4,38.8-69.6,39.3c-7.3,0.5-15.4-7.6-17-15.2C377.2,895.5,387.8,890.2,387.8,890.2z" clip-rule="evenodd" class="color4f8ecc svgShape"></path><g fill="#000000" class="color000000 svgShape"><path fill="#ffffff" fill-rule="evenodd" d="M697.1,704.6h338c8.7,0,15.8,7.1,15.8,15.8v0.5c0,8.7-7.1,15.8-15.8,15.8h-338c-8.7,0-15.8-7.1-15.8-15.8
			v-0.5C681.3,711.7,688.4,704.6,697.1,704.6z" clip-rule="evenodd" class="colorffffff svgShape"></path><path fill="#74b8fc" fill-rule="evenodd" d="M697.1 708.1h286c6.8 0 12.3 5.5 12.3 12.3v.5c0 6.8-5.5 12.3-12.3 12.3h-286c-6.8 0-12.3-5.5-12.3-12.3v-.5C684.9 713.6 690.4 708.1 697.1 708.1zM729 795l-13.7-6.8-13.4 7.5c-1.5.8-3.4-.4-3.1-2.2l2.3-15.2-11.2-10.5c-1.3-1.2-.6-3.3 1.1-3.6l15.1-2.6 6.5-13.9c.7-1.6 3-1.6 3.8-.1l7.1 13.6 15.2 1.9c1.7.2 2.5 2.3 1.3 3.6l-10.7 11 2.9 15.1C732.3 794.4 730.5 795.8 729 795zM804.3 795l-13.8-6.8-13.4 7.5c-1.5.8-3.4-.4-3.1-2.2l2.2-15.2L765 767.8c-1.3-1.2-.6-3.3 1.1-3.6l15.1-2.6 6.5-13.9c.7-1.6 3-1.6 3.8-.1l7.1 13.6 15.2 1.9c1.7.2 2.5 2.3 1.3 3.6l-10.7 11 2.9 15.1C807.6 794.4 805.8 795.8 804.3 795zM879.6 795l-13.8-6.8-13.4 7.5c-1.5.8-3.4-.4-3.1-2.2l2.3-15.2-11.2-10.5c-1.3-1.2-.6-3.3 1.1-3.6l15.1-2.6 6.5-13.9c.7-1.6 3-1.6 3.8-.1l7.1 13.6 15.2 1.9c1.7.2 2.5 2.3 1.3 3.6l-10.7 11 2.9 15.1C882.9 794.4 881.2 795.8 879.6 795zM954.9 795l-13.8-6.8-13.4 7.5c-1.5.8-3.4-.4-3.1-2.2l2.3-15.2-11.2-10.5c-1.3-1.2-.6-3.3 1.1-3.6l15.1-2.6 6.5-13.9c.7-1.6 3-1.6 3.8-.1l7.1 13.6 15.2 1.9c1.7.2 2.5 2.3 1.3 3.6l-10.7 11 2.9 15.1C958.3 794.4 956.5 795.8 954.9 795z" clip-rule="evenodd" class="colorfc9774 svgShape"></path><path fill="#ffffff" fill-rule="evenodd" d="M1030.2,795l-13.7-6.8l-13.4,7.5c-1.5,0.8-3.4-0.4-3.1-2.2l2.3-15.2L991,767.8c-1.3-1.2-0.6-3.3,1.1-3.6
			l15.1-2.6l6.5-13.9c0.7-1.6,3-1.6,3.8-0.1l7.1,13.6l15.2,1.9c1.7,0.2,2.5,2.3,1.3,3.6l-10.7,11l2.9,15.1
			C1033.6,794.4,1031.8,795.8,1030.2,795z" clip-rule="evenodd" class="colorffffff svgShape"></path></g><g fill="#000000" class="color000000 svgShape"><path fill="#bbdafa" fill-rule="evenodd" d="M1562.5,1177.3c0.1-1.1,0.1-2.2,0.1-3.2l0.1-1.3l0.3-3.8l0.1-1l0-0.3l0.1-1.2l0-0.1l0.1-1.3l0-0.2l0.1-1.1
				l0-0.4l0.1-0.8l0.1-0.6l0.1-0.6l0.1-1.2l0.1-1.1l0-0.1l0.1-1.2l0-0.1l0.1-1.1l0-0.3l0.1-0.9l0.1-1.2l0.1-0.8l0.1-0.4l0.1-1l0-0.2
				l0.1-1.2l0,0c0.3-2.8,0.7-5.5,1.1-8.2l0-0.2l0.1-1l0.1-0.4l0.1-0.8l0.2-1.1l0.1-0.8l0-0.3l0.2-1l0-0.1l0.2-1.1l0.2-1.1l0-0.3
				l0.1-0.8l0.1-0.5l0.1-0.6l0.1-0.7l0.1-0.4l0.2-0.9l0-0.2l0.2-1.1l0,0l0.2-1l0-0.2l0.1-0.8l0.1-0.4l0.1-0.6l0.1-0.6l0.1-0.4
				l0.1-0.8l0-0.2l0.2-1l0,0l0.2-1l0.2-0.9l0-0.1l0.1-0.4l0.1-0.6l0.1-0.5l0.1-0.5l0.1-0.7l0.1-0.3l0.2-0.9l0-0.1l0.2-1l0-0.1
				l0.2-0.9l0.1-0.3l0.1-0.7l0.1-0.5l0.1-0.5l0.1-0.6l0.1-0.3l0.2-0.8l0-0.1l0.2-0.9l0-0.1l0.2-0.8l0-0.2l0.2-0.7l0.1-0.4l0.1-0.4
				c2.6-2.4,6.6-5.8,8.9-7.3c1.4,2,2.9,4.7,4.2,8l-0.2,0.6l0,0l-0.3,0.9l-0.1,0.2l-0.3,0.8l-0.1,0.3l-0.2,0.6l-0.3,0.9l-0.2,0.6
				l-0.1,0.3l-0.3,0.8l0,0.1l-0.3,0.9l0,0l-0.3,0.9l-0.1,0.2l-0.3,0.8l-0.1,0.3l-0.2,0.6l-0.2,0.5l-0.2,0.5l-0.2,0.6l-0.1,0.3
				l-0.3,0.8l0,0.2l-0.3,0.9l0,0l-0.3,0.9l-0.1,0.2l-0.2,0.8l-0.1,0.3l-0.2,0.6l-0.1,0.5l-0.1,0.5l-0.2,0.6l-0.1,0.3l-0.2,0.8l0,0.2
				l-0.3,1l0,0l-0.3,1l0,0.2l-0.2,0.8l-0.1,0.3l-0.2,0.6l-0.1,0.5l-0.1,0.5l-0.2,0.6l-0.1,0.3l-0.2,0.8l0,0.2l-0.3,1l0,0l-0.3,1
				l0,0.2l-0.2,0.8l-0.1,0.3l-0.2,0.6l-0.1,0.5l-0.1,0.5l-0.2,0.7l-0.1,0.3l-0.2,0.8l0,0.2l-0.2,1l0,0l-0.2,1l0,0.2l-0.2,0.8
				l-0.1,0.3l-0.2,0.6l-0.1,0.5l-0.1,0.5l-0.2,0.7l-0.1,0.3l-0.2,0.8l0,0.2l-0.2,1l0,0l-0.2,1l0,0.2l-0.2,0.8l-0.1,0.3l-0.1,0.7
				l-0.1,0.5l-0.1,0.5l-0.1,0.7l-0.1,0.3l-0.2,0.8l0,0.2l-0.2,1l0,0l-0.2,1l0,0.2l-0.2,0.8l-0.1,0.3l-0.1,0.7l-0.1,0.5l-0.1,0.5
				l-0.1,0.7l-0.1,0.3l-0.2,0.8l0,0.2l-0.2,1v0l-0.2,1l0,0.2l-0.1,0.8l-0.1,0.3l-0.1,0.7l-0.1,0.5l-0.1,0.5l-0.1,0.7l-0.1,0.3
				l-0.1,0.8l0,0.2l-0.2,1c-0.3,3.9-0.2,7.9,0.2,11.8c0.4,4.9,1,10,1.6,13.8c-3.5-0.1-7.2-0.1-11.1,0
				C1561.5,1190.1,1562.2,1184.1,1562.5,1177.3z" clip-rule="evenodd" class="colorbbdbfa svgShape"></path><path fill="#0575e6" fill-rule="evenodd" d="M1540.4,1356.3c-11.5-56.8-17.3-107.2-6.7-149.4c12.4,0.8,20.9-3.1,25.3-11.6c4.9-0.2,9.4-0.2,13.5,0
				c5.6,13.3,18.7,18.8,39.3,16.7c14.3,27.2,3.5,46.2-3.6,71.7c-5.2,18.7-6.4,40.1-2.1,73.9c2.5,15.3,2.4,44-0.2,86.1
				c-7.9,1.6-14.4,0.6-19.5-2.8c1.5-27.5-1-54.8-7.6-81.9c-6.4-28.1-9.4-58.4-8.9-90.8c-5.2,40.1-5.1,69.9,0.3,89.6
				c5.4,23.2,8.3,50.5,8.9,81.9c-6.2,2.5-11.8,2.3-16.5-0.5C1556.1,1403.3,1554.1,1376.9,1540.4,1356.3z" clip-rule="evenodd" class="color4567c6 svgShape"></path><path fill="#7dbeff" fill-rule="evenodd" d="M1604.7,1074.4c0,0-5,11.6-5.7,17.1c-0.7,5.5-7.2,11.1-18.1,8.6c-10.9-2.4,0.7-7.6,3-12.6
				c2.2-5,7.9-23.5,7.9-23.5L1604.7,1074.4z" clip-rule="evenodd" class="colorffb27d svgShape"></path><path fill="#617ff0" fill-rule="evenodd" d="M1589.9,1069.9c1.2-4.5,2.8-7.8,2.8-7.8l12.6,10.7c0,0-1.2,2.7-2.5,6.2
				C1596.1,1078.8,1591.7,1074.7,1589.9,1069.9z" clip-rule="evenodd" class="colorf08261 svgShape"></path><path fill="#283e91" fill-rule="evenodd" d="M1558.5,1462.4c5.4,0.5,0.3,4.6,3.8,5.7c7.9-3.9,12.7-15.3,16-20.3c1.7-2.6,2.8,0.8,3.4,4.7
				c1.4,8.1,0.9,18.7-1.1,22.2c2.3-1.4,4.5-3.4,5.8-6.7c4.8,0.5,0.9,4.6,3.9,5.6c6.9-3.9,10.5-15.3,13.3-20.3c1.5-2.6,2.4,0.8,3,4.7
				c1.2,8.3,0.8,17.9-1,21.2c-2.2-0.7-2.6-8.9-3.5-13.6c-6.9,6.5-5.1,14-9.1,16.4c-9.5,0.8-10.6,3.4-21.8,0.7
				c-0.9-4.7,4.4-5,9.2-7.8c-1.3-2.6-2.2-10.1-3.3-14.8c-7.9,6.5-6.5,14-11.1,16.4c-10.9,0.8-16.7,0.8-25,0.7
				C1539.5,1469.9,1553.7,1472.9,1558.5,1462.4z" clip-rule="evenodd" class="color284191 svgShape"></path><path fill="#61a0e0" fill-rule="evenodd" d="M1612.2 1083.4c.6 3 1.5 5.3 2.6 7 2.2 1.1 4.7 3.2 7.5 6.5 2.8-.5 5.8-1.6 8.9-3.1 12.6-20.9 24.3-39.3 35-55.3.2 10.6 5.2 14.4 15.1 11.4-19.9 37.5-32 58.5-36.4 62.9-7.8 10.8-16.2 18.4-25.4 22.7-18.2 20.6-17.7 55.5-1.6 85.6-26.2 3.9-41.4-3.4-45.7-22-1.3-5.6-3.2-21.7-2.5-29.3 3.9-24.9 10.5-48.8 19.7-71.8C1600.8 1093.4 1608.4 1088.6 1612.2 1083.4zM1575.7 1094.7c2.6-4.2 3-12.4 9.2-20.5-3.3.8-6.7 2-10.2 3.5-1.1-.2-3-.4-5.9-.7-2-18.6-13.7-41.7-16.2-74.8-5.3 3.3-15.5 3.6-18 2.2 3.1 37.6 8.2 63.5 15.2 77.8 1.4 6.5 2.1 6.1 4.1 16.5-11 13.6-16.5 19.7-12.2 35 6 13.5.3 44.7-13.8 72.4 21.3 20.9 33.9 3.5 34.5-32.2C1565.1 1141.8 1570.5 1112.1 1575.7 1094.7z" clip-rule="evenodd" class="color61a0e0 svgShape"></path><path fill="#61a0e0" fill-rule="evenodd" d="M1599.3 1097.7l2.8-6.1c1.2-.3 2.5-.7 3.7-1.2-.1.5-.2.9-.3 1.4C1604 1093.8 1601.9 1095.8 1599.3 1097.7zM1579 1083.9c-2.1 2.4-4 3.9-5.6 4.7 1.2-1.9 2.8-3.9 4.7-5.9 0 0 0-.1 0-.1C1578.5 1083 1578.8 1083.5 1579 1083.9z" clip-rule="evenodd" class="color61a0e0 svgShape"></path><path fill="#4f8dcc" fill-rule="evenodd" d="M1581.2 1100.1c-2.9 1.9-9 7.2-10.9 9.2-1.6-8.2 3.1-19.6 10-26.4 3.3-1.4 6.5-2.5 9.7-3.3-1.9 2-3.5 4-4.7 5.9C1581.5 1091.5 1581.1 1097 1581.2 1100.1zM1587 1112.7c-1.5-5.5-3.7-9.7-5.7-12.6 6.9-2.7 13-5.5 17.1-8.5 2.7-1.9 4.7-3.9 6.2-5.9.6 3 1.5 5.3 2.6 7C1600.5 1103.4 1593.8 1110 1587 1112.7z" clip-rule="evenodd" class="color4f8ecc svgShape"></path><path fill="#7dbeff" fill-rule="evenodd" d="M1578.2 1447.8c-3.3 5-8.1 16.4-16 20.3-2.9-.9.2-3.9-1.9-5.1 2.6-6.1 4-13.7 4.2-22.8 3.7 1.5 7.9 1.6 12.4.2C1577.3 1442.8 1577.7 1445.3 1578.2 1447.8L1578.2 1447.8zM1602.5 1444.2c-.5 4.5-.4 8.1.3 11-2.7 5.5-6.2 14.9-12.4 18.4-2.5-.9-.3-3.8-2.2-5.1 2.1-6.4 2.8-14.9 1.9-25.7C1593.7 1444.2 1597.8 1444.7 1602.5 1444.2zM1556.7 977c-4.4 6.9-5.4 5.9-6 6.8-.7 1-.2 17.7-.2 17.7l.1 1.9c-4.3 1.8-10.2 2.3-13.7 1.9 0-5.9-.2-16.8-.2-17.4 0 0-2.2-7.1-3.4-11.7-1.2-4.5-.3-9.4-.5-10.7 0-.2-.2-4.7 1-10.2 1-4.8 2.2.2 2.2.2s-.3 9.2.4 9.1c.6-.1.4-5.1 1.5-10.4.3-1.4.6-2.7.8-3.9.7-3.2 2.9-3.8 2.7-.2-.1 1.2-.2 3.3-.6 4.7-.3 1.6-.1 3.1-.2 4.5-.2 2.7-.3 4.7-.2 4.6.1-.1.5.5.8-1 .4-1.7.5-5.6 1.3-8.1.4-1.4 1.2-4.4 1.2-4.4s1.8-4.8 2.1-4.7c1.6.2 1.3 3.9.4 5.8.1 1.5-.8 4.6-.8 4.6s-.4 6.8.6 6.8c.8.1 4.8-16 6.4-15.7 1.3.2.3 5.1.3 5.1s-.8 2.9-1 3.9c-.2 1.2-.7 4.7-.7 4.7s-1 12.3-.1 12.3c.9 0 3.2-1 3.6-1.7.3-.8.2-2.4.5-3.1.3-.8 1.4-1.4 2.3-1.1 1 .3.8 4.5.8 4.5S1558 975 1556.7 977z" clip-rule="evenodd" class="colorffb27d svgShape"></path><path fill="#6785f5" fill-rule="evenodd" d="M1544.3,981.5c0.9-3.5,2.8-6.1,6.1-7.6C1546.3,973.8,1543.6,978.1,1544.3,981.5z" clip-rule="evenodd" class="colorf58b67 svgShape"></path><path fill="#7dbeff" fill-rule="evenodd" d="M1671.1,1019.1c0.9,8.1,2.3,7.7,2.3,8.7c0.1,1-4.8,10.4-6.8,14.3c1,6.5,4.7,9.4,10.9,8.5
				c2.7-5.4,6.4-12.6,6.6-13.1c0,0,5.1-5.4,8.2-9c3.1-3.5,4.4-8.2,5.2-9.4c0.1-0.2,2.3-4.1,3.6-9.6c1.2-4.8-2.1-0.8-2.1-0.8
				s-3.8,8.4-4.4,8c-0.5-0.3,1.9-4.8,3.3-10c0.4-1.4,0.7-2.7,1-3.9c0.8-3.2-0.9-4.6-2.3-1.4c-0.5,1.1-1.2,3.1-1.6,4.5
				c-0.4,1.6-1.3,2.9-1.8,4.1c-1,2.5-1.8,4.3-1.8,4.2c-0.1-0.1-0.6,0.2-0.3-1.2c0.4-1.7,2.1-5.2,2.5-7.8c0.2-1.5,0.9-4.5,0.9-4.5
				s0.5-5.1,0.2-5.1c-1.5-0.6-2.9,3-2.9,5c-0.7,1.3-1.3,4.5-1.3,4.5s-2.7,6.2-3.6,5.9c-0.7-0.3,2.7-16.5,1.2-16.9
				c-1.3-0.4-2.5,4.5-2.5,4.5s-0.5,3-0.8,4c-0.3,1.1-1.5,4.5-1.5,4.5s-4.6,11.5-5.4,11.1c-0.8-0.4-2.5-2.3-2.4-3.1
				c0-0.8,0.9-2.3,0.9-3.1c0-0.8-0.6-1.9-1.6-2c-1-0.1-2.7,3.7-2.7,3.7S1670.8,1016.8,1671.1,1019.1z" clip-rule="evenodd" class="colorffb27d svgShape"></path><path fill="#6785f5" fill-rule="evenodd" d="M1680.1,1027.7c0.8-3.6,0.2-6.7-2.1-9.5C1681.6,1019.9,1682.2,1024.9,1680.1,1027.7z" clip-rule="evenodd" class="colorf58b67 svgShape"></path><path fill="#283e91" fill-rule="evenodd" d="M1607.3,1052c-0.6,6.6-7.9,45-13.1,47.2c0,0,8.9,5.1,13.2,4c0,0-1.2,1-2,1.3c0,0,10.2,5.1,16,3.8
				c5.8-1.3,31.2-80.2-0.4-87.4c0,0-27.7-15.6-38.3,13.8c-12.2,41.2-14.1,53.4-20.6,54.7c2.4,3.3,3.9,3.2,6.1,0.9
				c1.9-2,3.7-4.5,4.2-5.1c0,0-4.7,7.7-5.4,7.9c0,0,9.1,3.8,15.8,2.3c4.3-1,10.2-20,15.1-32.4
				C1600.5,1056.2,1606.9,1054.3,1607.3,1052z" clip-rule="evenodd" class="color284191 svgShape"></path><path fill="#283e91" fill-rule="evenodd" d="M1610.9,1067.8c0,0,10.8-6.5,16.3-14c3.9-5.3,11.7-28.4-11.5-36.1c0,0-6.6-2.5-14.5-1.5
				c-6.3,0.8-16.5,4.3-18.3,26.9l-1.2,7.3L1610.9,1067.8z" clip-rule="evenodd" class="color284191 svgShape"></path><path fill="#7dbeff" fill-rule="evenodd" d="M1614.7,1033.1c0,0,5.7,3.6,7.5,10.9c1.8,7.3-1.3,26.1-16.4,30.1c-15.1,4-21-11.1-17.5-22.6
				C1591.9,1039.9,1599.1,1025.4,1614.7,1033.1z" clip-rule="evenodd" class="colorffb27d svgShape"></path><path fill="#283e91" fill-rule="evenodd" stroke="#283e91" stroke-miterlimit="2.613" stroke-width=".216" d="M1603.5,1019.5c0,0-1.5,21.4,7.8,28.9c9.3,7.5,15.2,6.8,15.2,6.8s-5.2-10.1-1.7-22.1
				C1624.8,1033.1,1612.7,1013.1,1603.5,1019.5z" clip-rule="evenodd" class="color284191 svgShape colorStroke284191 svgStroke"></path><path fill="#283e91" fill-rule="evenodd" d="M1603.5 1024.8c-16.6 1.1-15.1 8.3-21.9 13.5 0 0 2.7-15.2 12.4-19.5C1604.3 1014.3 1603.5 1024.8 1603.5 1024.8zM1600.9 1029.6c0 0 0 13 7.4 19.1 0 0-6.5-9.7-5.2-17.9C1604.5 1022.5 1600.9 1029.6 1600.9 1029.6z" clip-rule="evenodd" class="color284191 svgShape"></path><path fill="#283e91" fill-rule="evenodd" d="M1598.6 1021.8c2.2.1 3.4.8 3.5 2.4-1.9 2.6-4.2 4-7.1 4.3C1596.3 1027.6 1597.5 1025.4 1598.6 1021.8zM1621.3 1026.3c-2-1.8-2.5-3.5-1.3-5 3.9-.9 7.2-.3 10.1 1.7C1628.2 1022.8 1625.3 1023.9 1621.3 1026.3z" clip-rule="evenodd" class="color284191 svgShape"></path><path fill="#283e91" fill-rule="evenodd" d="M1620.1,1023.4c1,1.4,2,1.8,3,1.2c0.8-2.3,0.7-4.4-0.4-6.4C1622.8,1019.4,1621.9,1021.1,1620.1,1023.4z" clip-rule="evenodd" class="color284191 svgShape"></path><path fill="#7dbeff" fill-rule="evenodd" d="M1586.2 1045c-1.1 3-.6 5.8 1.1 6.4 1.7.5 3.8-1.4 4.9-4.4 1.1-2.9.6-5.8-1.1-6.3C1589.4 1040.1 1587.2 1042 1586.2 1045zM1617.5 1058.8c-1.9 2.7-2 5.9-.3 7.2 1.7 1.3 4.6.2 6.5-2.5 1.9-2.6 2-5.9.3-7.2C1622.2 1055.1 1619.3 1056.1 1617.5 1058.8z" clip-rule="evenodd" class="colorffb27d svgShape"></path><path fill="#61a0e0" fill-rule="evenodd" d="M1552.8 1001c-3.2 1.4-7 2.4-9.9 2.8-2.8.3-6-.1-8.5-.8l.3 3.4c2.8.8 5.3.6 8.5.2 3.1-.4 6.1-.4 9.5-2L1552.8 1001zM1681.7 1049.1c-3.6.5-7.3-.2-9.6-1.8-2.3-1.7-4.6-5.3-5.6-9.3l-2 2.8c1.2 4.6 3.2 6.7 6 8.8 2.8 2.1 5.5 3.7 9.8 3.1L1681.7 1049.1z" clip-rule="evenodd" class="color61a0e0 svgShape"></path><path fill="#125aa3" fill-rule="evenodd" d="M1609.3,1051.9c6.7-0.9,5.8-0.8,10.8,2.2c-1.6-2.9-4.7-4.1-8.2-3.8
				C1610.3,1050.4,1610,1050.3,1609.3,1051.9z" clip-rule="evenodd" class="color125aa3 svgShape"></path><path fill="#125aa3" fill-rule="evenodd" d="M1613.2,1056c1,0.3,2.1-0.2,2.4-1.2c0.3-1-0.2-2.1-1.2-2.4c-1-0.3-2.1,0.2-2.4,1.2
					C1611.6,1054.7,1612.2,1055.7,1613.2,1056z" clip-rule="evenodd" class="color125aa3 svgShape"></path><path fill="#bbdafa" fill-rule="evenodd" d="M1613.5 1054.9c.4.1.7-.1.8-.4.1-.4-.1-.7-.4-.8-.4-.1-.7.1-.8.4C1613 1054.4 1613.2 1054.8 1613.5 1054.9zM1613.8 1053.2c.1 0 .2 0 .2-.1 0-.1 0-.2-.1-.2-.6-.2-1.3.2-1.5.8 0 .1 0 .2.1.2.1 0 .2 0 .2-.1C1613 1053.3 1613.4 1053.1 1613.8 1053.2z" clip-rule="evenodd" class="colorbbdbfa svgShape"></path><path fill="#125aa3" fill-rule="evenodd" d="M1603.4,1048.2c-4.4-5.1-3.8-4.5-9.5-5.6c3.2-1.1,6.2,0.1,8.6,2.7
				C1603.6,1046.4,1603.9,1046.6,1603.4,1048.2z" clip-rule="evenodd" class="color125aa3 svgShape"></path><path fill="#125aa3" fill-rule="evenodd" d="M1597.7,1048.7c-1-0.4-1.4-1.6-0.9-2.5c0.4-1,1.6-1.4,2.5-0.9c1,0.4,1.4,1.6,0.9,2.5
					C1599.8,1048.7,1598.7,1049.1,1597.7,1048.7z" clip-rule="evenodd" class="color125aa3 svgShape"></path><path fill="#bbdafa" fill-rule="evenodd" d="M1598.2 1047.6c-.3-.2-.5-.6-.3-.9.2-.3.6-.5.9-.3.3.2.5.6.3.9C1599 1047.6 1598.6 1047.7 1598.2 1047.6zM1599.1 1046.1c-.1 0-.1-.2-.1-.2 0-.1.2-.1.2-.1.6.3.9 1 .6 1.6 0 .1-.2.1-.2.1-.1 0-.1-.2-.1-.2C1599.7 1046.8 1599.5 1046.3 1599.1 1046.1z" clip-rule="evenodd" class="colorbbdbfa svgShape"></path><path fill="none" stroke="#74b8fc" stroke-linecap="round" stroke-linejoin="round" stroke-miterlimit="2.613" stroke-width=".076" d="M1604.6,1051.4c-0.5,4.6-8.2,7.8-1.8,9.1l0.2,0" clip-rule="evenodd" class="colorStrokefc9774 svgStroke"></path><path fill="#74b8fc" fill-rule="evenodd" d="M1597.3,1064.6c5.1,3.6,13.2,3.2,4.8,0.9c-2.4-0.6-4.1-2.1-5.8-3.5
				C1593.6,1059.8,1595.9,1063.6,1597.3,1064.6z" clip-rule="evenodd" class="colorfc9774 svgShape"></path><g fill="#000000" class="color000000 svgShape"><path fill="#4469f5" fill-rule="evenodd" d="M1496.6,933.2l54.7-156.3c1.8-5.1,7.4-7.8,12.4-6l210.9,73.9c5.1,1.8,11.5,8.7,9.7,13.7l-57.7,164.6
				c-1.8,5.1-7.4,7.8-12.5,6l-202.6-71C1494.8,952.4,1494.8,938.3,1496.6,933.2z" clip-rule="evenodd" class="colorf57a44 svgShape"></path><path fill="#ffffff" fill-rule="evenodd" d="M1496.6,933.2l54.8-156.3c1.8-5.1,7.4-7.8,12.4-6l207.4,72.6c5.1,1.8,7.8,7.4,6,12.5l-54.8,156.3
				c-1.8,5.1-7.4,7.8-12.5,6l-207.4-72.6C1497.5,943.9,1494.8,938.3,1496.6,933.2z" clip-rule="evenodd" class="colorffffff svgShape"></path><path fill="#74b8fc" fill-rule="evenodd" d="M1503.4,935.6l54.8-156.3c0.5-1.3,2-2,3.3-1.6l207.4,72.6c1.3,0.5,2,2,1.6,3.3l-54.8,156.3
				c-0.5,1.3-1.9,2-3.3,1.6l-207.4-72.6C1503.6,938.4,1502.9,936.9,1503.4,935.6L1503.4,935.6z M1511.7,933.6l198.6,69.6l51.7-147.6
				L1563.4,786L1511.7,933.6z" clip-rule="evenodd" class="colorfc9774 svgShape"></path><path fill="#dcedff" fill-rule="evenodd" d="M1510.6,893.1c100.6,82.5,186,33.9,258.1-50.3l2.4,0.8c5.1,1.8,7.8,7.4,6,12.5l-54.8,156.3
				c-1.8,5.1-7.4,7.8-12.5,6l-207.4-72.6c-5.1-1.8-7.8-7.4-6-12.5L1510.6,893.1z" clip-rule="evenodd" opacity=".25" class="colorffe2dc svgShape"></path></g><g fill="#000000" class="color000000 svgShape"><path fill="#7dbeff" fill-rule="evenodd" d="M1556.7,977c-3.5,5.5-4.9,5.9-5.5,6.4c-1.6-1.7-2.3-3.8-1.8-6.4c0.1-0.4-2.5,0.8-1.7-1.3
				c-0.4,0.4,2.9-2.4,3.4-2.6c1.3-0.7,3.2-1,3.6-1.7c0.3-0.8,0.2-2.4,0.5-3.1c0.3-0.8,1.4-1.4,2.3-1.1c1,0.3,0.8,4.5,0.8,4.5
				S1558,975,1556.7,977z" clip-rule="evenodd" class="colorffb27d svgShape"></path><polygon fill="#6785f5" fill-rule="evenodd" points="1550.3 973.9 1550.4 973.9 1550.4 973.9" clip-rule="evenodd" class="colorf58b67 svgShape"></polygon><path fill="#7dbeff" fill-rule="evenodd" d="M1671.1,1019.1c0.1,1.3,0.3,2.3,0.5,3.2c2.5-0.3,7,2.6,8.5,0.9c0.8-0.9-4.2-7.7-4.6-8.2
				c0-0.8,0.9-2.3,0.9-3.1c0-0.8-0.6-1.9-1.6-2c-1-0.1-2.7,3.7-2.7,3.7S1670.8,1016.8,1671.1,1019.1z" clip-rule="evenodd" class="colorffb27d svgShape"></path></g></g><g fill="#000000" class="color000000 svgShape"><path fill="#8bbae9" fill-rule="evenodd" d="M1618.3,933c13.4,9.1,18.9,13.6,34.5,18.2c10,2.9,15.3,1.9,21.2-4.3c0.7-0.7,1.2-1.6,2.8-6.1
			c1.2-3.4,5.9-1.6,8.4-13.6c-0.3-0.7,0.3-1.3,1-1.8c3.2-2.4,5.1-6.5,5.2-10.5c0.1-3.4,0.3-2.2,2.3-3.9c1.3-1.1,2.1-2.3,3.1-3.9
			c4.1-7,1.5-14.5-2.9-17.9c-0.6-0.3-0.4-0.1-0.9-0.5c-1.3-1-0.3-0.1-0.7-0.8c-7-2.4-14.5-4.4-21.6-6.8c0.6-1.6,1.4-2,2.2-3.1
			c4.5-4.7,9.6-11.3,10.3-18.1c0.8-7.1-2.8-12.8-9.3-15.5c-3-1.3-4.4-1.4-6.4,0c-5.1,3.6-7.9,11.7-12.4,17.2
			c-3.1,2.2-4.6,2.9-7.5,4.7l-2.2,1.7c-4.1,2.6-8.1,5.5-12.3,7.9c-5.1,3-6.3,0.4-9,2.6c-2.1,1.6-7,20.3-8.2,24.3
			C1606.8,932.1,1606.6,925.1,1618.3,933L1618.3,933z M1606.8,921.2c-0.7,2.2-3,3.5-5.2,2.8l-16.1-4.9c-2.2-0.7-3.5-3-2.8-5.2
			l12-39.5c0.7-2.2,3-3.5,5.2-2.8l16.1,4.9c2.2,0.7,3.5,3,2.8,5.2L1606.8,921.2z" clip-rule="evenodd" class="color8bbae9 svgShape"></path><path fill="#7dbeff" fill-rule="evenodd" d="M1618.3,933c13.4,9.1,18.9,13.6,34.5,18.2c10,2.9,15.4,1.9,21.2-4.3c0.7-0.7,1.2-1.6,2.8-6.1
			c1.2-3.4,5.9-1.6,8.4-13.6c-0.3-0.7,0.3-1.3,1-1.8c3.2-2.4,5.1-6.5,5.2-10.5c0.1-3.4,0.3-2.2,2.3-3.9c1.3-1.1,2.1-2.3,3.1-3.9
			c4.1-7,1.5-14.5-2.9-17.9c-0.6-0.3-0.4-0.1-0.9-0.5c-1.3-1-0.3-0.1-0.7-0.8c-7-2.4-14.5-4.4-21.6-6.8c0.6-1.6,1.4-2,2.2-3.1
			c4.5-4.7,9.6-11.3,10.3-18.1c0.8-7.1-2.8-12.8-9.3-15.5c-3-1.3-4.4-1.4-6.4,0c-5.1,3.6-7.9,11.7-12.4,17.2
			c-3.1,2.2-4.6,2.9-7.5,4.7l-2.2,1.7c-4.1,2.6-8.1,5.5-12.3,7.9c-5.1,3-6.3,0.4-9,2.6c-2.1,1.6-7,20.3-8.2,24.3
			C1606.8,932.1,1606.6,925.1,1618.3,933z" clip-rule="evenodd" class="colorffb27d svgShape"></path></g><g fill="#000000" class="color000000 svgShape"><path fill="#eaf1f8" fill-rule="evenodd" d="M936.2 571.5c-1.4-2.6-2.1-5.5-2.1-8.7 0-3.1.8-6.1 2.1-8.7.7-1.3 1.6-2.6 2.6-3.7.8-.9 1.6-1.7 2.6-2.4.8-.6 1.7-1.2 2.6-1.7.8-.4 1.7-.8 2.6-1.1.8-.3 1.7-.5 2.6-.7.8-.2 1.7-.3 2.6-.3.4 0 .8 0 1.2 0 .5 0 .9 0 1.4.1.9.1 1.7.2 2.6.4.9.2 1.7.4 2.6.8.9.3 1.8.7 2.6 1.2.9.5 1.8 1.1 2.6 1.7.9.7 1.8 1.6 2.6 2.5 1 1.2 1.9 2.5 2.6 3.9 1.2 2.5 1.9 5.2 1.9 8.2 0 2.9-.7 5.7-1.9 8.2-.7 1.4-1.6 2.7-2.6 3.9-.8.9-1.6 1.7-2.6 2.5-.8.6-1.7 1.2-2.6 1.7-.8.5-1.7.9-2.6 1.2-.8.3-1.7.6-2.6.8-.8.2-1.7.3-2.6.4-.5 0-.9 0-1.4 0-.4 0-.8 0-1.2 0-.9-.1-1.7-.2-2.6-.3-.9-.2-1.7-.4-2.6-.7-.9-.3-1.7-.7-2.6-1.1-.9-.5-1.8-1-2.6-1.7-.9-.7-1.8-1.5-2.6-2.4C937.8 574.1 936.9 572.8 936.2 571.5zM908 633.6c-.2-1-.3-2-.3-3.1 0-1 .1-2.1.3-3.1.4-2.5 1.3-4.8 2.6-6.8.7-1.2 1.6-2.3 2.6-3.3.8-.8 1.7-1.5 2.6-2.2.8-.6 1.7-1.1 2.6-1.5.8-.4 1.7-.7 2.6-1 .8-.3 1.7-.5 2.6-.6.8-.1 1.7-.2 2.6-.2l.5 0c.7 0 1.4 0 2.1.1.9.1 1.7.3 2.6.5.9.2 1.7.5 2.6.9.9.4 1.7.8 2.6 1.3.9.6 1.8 1.2 2.6 1.9.9.8 1.8 1.8 2.6 2.8 1.1 1.4 1.9 3 2.6 4.7.8 2.1 1.2 4.3 1.2 6.6 0 2.3-.4 4.5-1.2 6.6-.6 1.7-1.5 3.3-2.6 4.7-.8 1-1.6 1.9-2.6 2.8-.8.7-1.7 1.3-2.6 1.9-.8.5-1.7.9-2.6 1.3-.8.3-1.7.6-2.6.9-.8.2-1.7.4-2.6.5-.7.1-1.4.1-2.1.1l-.5 0c-.9 0-1.7-.1-2.6-.2-.9-.1-1.7-.3-2.6-.6-.9-.3-1.7-.6-2.6-1-.9-.4-1.8-.9-2.6-1.5-.9-.6-1.8-1.4-2.6-2.2-1-1-1.8-2.1-2.6-3.3C909.3 638.4 908.4 636.1 908 633.6zM769.4 570.4c-1-2.3-1.6-4.9-1.6-7.6 0-2.7.6-5.3 1.6-7.6.7-1.5 1.5-2.9 2.6-4.2.8-1 1.6-1.8 2.6-2.6.8-.7 1.7-1.3 2.6-1.8.8-.5 1.7-.9 2.6-1.2.8-.3 1.7-.6 2.6-.8.8-.2 1.7-.3 2.6-.4.6 0 1.1-.1 1.7-.1h.9 2.6 2.6 2.6 2.6 2.6 2.6 2.6 2.6 2.6 2.6 2.6 2.6 2.6 2.6 2.6 2.6 2.6 2.6 2.6 2.6 2.6 2.6 2.6 2.6 2.6 2.6 2.6 2.6 2.6 2.6 2.6 2.6 2.6 2.6 2.6 2.6 2.6 2.6 2.6 2.6 2.6 2.6 2.6.9c.6 0 1.1 0 1.7.1.9.1 1.7.2 2.6.4.9.2 1.7.5 2.6.8.9.3 1.7.8 2.6 1.2.9.5 1.8 1.1 2.6 1.8.9.8 1.8 1.7 2.6 2.6 1 1.3 1.9 2.7 2.6 4.2 1 2.3 1.6 4.8 1.6 7.5 0 2.7-.6 5.2-1.6 7.5-.7 1.5-1.5 2.9-2.6 4.2-.8.9-1.6 1.8-2.6 2.6-.8.7-1.7 1.3-2.6 1.8-.8.5-1.7.9-2.6 1.3-.8.3-1.7.6-2.6.8-.8.2-1.7.3-2.6.4-.6.1-1.1.1-1.7.1h-.9-2.6-2.6H890h-2.6-2.6-2.6-2.6-2.6-2.6-2.6-2.6-2.6-2.6-2.6-2.6-2.6-2.6-2.6H849h-2.6-2.6-2.6-2.6-2.6-2.6H831h-2.6-2.6-2.6-2.6-2.6-2.6-2.6-2.6-2.6-2.6-2.6-2.6-2.6-2.6-2.6H790h-2.6-.9c-.6 0-1.1 0-1.7-.1-.9-.1-1.7-.2-2.6-.4-.9-.2-1.7-.5-2.6-.8-.9-.3-1.7-.8-2.6-1.2-.9-.5-1.8-1.1-2.6-1.8-.9-.8-1.8-1.7-2.6-2.6C771 573.3 770.1 571.9 769.4 570.4zM610.3 634.4c-.3-1.2-.4-2.5-.4-3.8 0-1.3.1-2.6.4-3.8.5-2.3 1.4-4.4 2.6-6.3.7-1.1 1.6-2.2 2.6-3.2.8-.8 1.7-1.5 2.6-2.1.8-.6 1.7-1.1 2.6-1.5.8-.4 1.7-.7 2.6-1 .8-.3 1.7-.4 2.6-.6.8-.1 1.7-.2 2.6-.2l.3 0h2.2 2.6 2.6 2.6 2.6 2.6 2.6 2.6 2.6 2.6 2.6 2.6 2.6 2.6 2.6 2.6 2.6 2.6 2.6 2.6 2.6 2.6 2.6 2.6 2.6 2.6 2.6 2.6 2.6 2.6 2.6 2.6 2.6 2.6 2.6 2.6 2.6 2.6 2.6 2.6 2.6 2.6 2.6 2.6 2.6 2.6 2.6 2.6 2.6 2.6 2.6 2.6 2.6 2.6 2.6 2.6 2.6 2.6 2.6 2.6 2.6 2.6 2.6 2.6 2.6 2.6 2.6 2.6 2.6 2.6 2.6 2.6 1.5c.4 0 .7 0 1.1.1l.6.1h1.9 2.6 2.6 2.6 2.6 2.6 2.6 2.6 2.6 2.6 2.6 2.6 2.6.2c.6-.1 1.1-.2 1.7-.2.2 0 .4 0 .6 0 .3 0 .6.1.9.1h1.7 2.6 2.6 2.6 2.6 1.1c.5 0 1 0 1.5.1.9.1 1.7.2 2.6.4.9.2 1.7.5 2.6.8.9.3 1.7.7 2.6 1.2.9.5 1.8 1.1 2.6 1.8.9.8 1.8 1.6 2.6 2.6 1 1.2 1.9 2.6 2.6 4.1 1.1 2.4 1.7 5 1.7 7.7 0 2.7-.6 5.4-1.7 7.7-.7 1.5-1.5 2.8-2.6 4.1-.8.9-1.6 1.8-2.6 2.6-.8.7-1.7 1.3-2.6 1.8-.8.5-1.7.9-2.6 1.2-.8.3-1.7.6-2.6.8-.8.2-1.7.3-2.6.4-.5 0-1 .1-1.5.1h-1.1-2.6-2.6-2.6-2.6-1.8c-.2 0-.5.1-.7.1-.2 0-.4 0-.6 0-.5 0-1-.1-1.6-.1H849h-2.6-2.6-2.6-2.6-2.6-2.6H831h-2.6-2.6-2.6-2.6-2.6-2.1l-.5 0c-.4 0-.7.1-1.1.1h-1.5-2.6-2.6-2.6-2.6-2.6-2.6-2.6-2.6H790h-2.6-2.6-2.6-2.6-2.6-2.6H772h-2.6-2.6-2.6-2.6-2.6-2.6H754h-2.6-2.6-2.6-2.6-2.6-2.6-2.6-2.6-2.6-2.6-2.6-2.6-2.6-2.6-2.6H713h-2.6-2.6-2.6-2.6-2.6-2.6H695h-2.6-2.6-2.6-2.6-2.6-2.6H677h-2.6-2.6-2.6-2.6-2.6-2.6-2.6-2.6-2.6-2.6-2.6-2.6-2.6-2.6-2.6H636h-2.6-2.6-2.2l-.3 0c-.9 0-1.7-.1-2.6-.2-.9-.1-1.7-.3-2.6-.6-.9-.3-1.7-.6-2.6-1-.9-.4-1.8-.9-2.6-1.5-.9-.6-1.8-1.3-2.6-2.1-1-1-1.8-2-2.6-3.2C611.7 638.7 610.8 636.6 610.3 634.4z" clip-rule="evenodd" class="coloreaeff8 svgShape"></path></g><g fill="#000000" class="color000000 svgShape"><path fill="#ffffff" fill-rule="evenodd" d="M1455.5 652.8c-1.4-2.6-2.1-5.5-2.1-8.7 0-3.1.8-6.1 2.1-8.7.7-1.3 1.6-2.6 2.6-3.7.8-.9 1.6-1.7 2.6-2.4.8-.6 1.7-1.2 2.6-1.7.8-.4 1.7-.8 2.6-1.1.8-.3 1.7-.5 2.6-.7.8-.2 1.7-.3 2.6-.3.4 0 .8 0 1.2 0 .5 0 .9 0 1.4.1.9.1 1.7.2 2.6.4.9.2 1.7.4 2.6.8.9.3 1.7.7 2.6 1.2.9.5 1.8 1.1 2.6 1.7.9.7 1.8 1.6 2.6 2.5 1 1.2 1.9 2.5 2.6 3.9 1.2 2.5 1.9 5.2 1.9 8.2 0 2.9-.7 5.7-1.9 8.2-.7 1.4-1.6 2.7-2.6 3.9-.8.9-1.6 1.7-2.6 2.5-.8.6-1.7 1.2-2.6 1.7-.8.5-1.7.9-2.6 1.2-.8.3-1.7.6-2.6.8-.8.2-1.7.3-2.6.4-.5 0-.9.1-1.4.1-.4 0-.8 0-1.2 0-.9-.1-1.7-.2-2.6-.3-.9-.2-1.7-.4-2.6-.7-.9-.3-1.7-.7-2.6-1.1-.9-.5-1.8-1-2.6-1.7-.9-.7-1.8-1.5-2.6-2.4C1457.1 655.4 1456.2 654.1 1455.5 652.8zM1427.3 714.9c-.2-1-.3-2-.3-3.1 0-1 .1-2.1.3-3.1.4-2.5 1.3-4.8 2.6-6.8.7-1.2 1.6-2.3 2.6-3.3.8-.8 1.7-1.5 2.6-2.2.8-.6 1.7-1.1 2.6-1.5.8-.4 1.7-.7 2.6-1 .8-.3 1.7-.5 2.6-.6.8-.1 1.7-.2 2.6-.2l.5 0c.7 0 1.4 0 2.1.1.9.1 1.7.3 2.6.5.9.2 1.7.5 2.6.9.9.4 1.7.8 2.6 1.3.9.6 1.8 1.2 2.6 1.9.9.8 1.8 1.8 2.6 2.8 1.1 1.4 1.9 3 2.6 4.7.8 2 1.2 4.3 1.2 6.6 0 2.3-.4 4.5-1.2 6.6-.6 1.7-1.5 3.3-2.6 4.7-.8 1-1.6 1.9-2.6 2.8-.8.7-1.7 1.3-2.6 1.9-.8.5-1.7.9-2.6 1.3-.8.3-1.7.6-2.6.9-.8.2-1.7.4-2.6.5-.7.1-1.4.1-2.1.1l-.5 0c-.9 0-1.7-.1-2.6-.2-.9-.1-1.7-.3-2.6-.6-.9-.3-1.7-.6-2.6-1-.9-.4-1.8-.9-2.6-1.5-.9-.6-1.8-1.4-2.6-2.2-1-1-1.8-2.1-2.6-3.3C1428.6 719.7 1427.7 717.4 1427.3 714.9zM1288.7 651.8c-1-2.3-1.6-4.9-1.6-7.6 0-2.7.6-5.3 1.6-7.6.7-1.5 1.5-2.9 2.6-4.2.8-1 1.6-1.8 2.6-2.6.8-.7 1.7-1.3 2.6-1.8.8-.5 1.7-.9 2.6-1.2.8-.3 1.7-.6 2.6-.8.8-.2 1.7-.3 2.6-.4.6 0 1.1-.1 1.7-.1h.9 2.6 2.6 2.6 2.6 2.6 2.6 2.6 2.6 2.6 2.6 2.6 2.6 2.6 2.6 2.6 2.6 2.6 2.6 2.6 2.6 2.6 2.6 2.6 2.6 2.6 2.6 2.6 2.6 2.6 2.6 2.6 2.6 2.6 2.6 2.6 2.6 2.6 2.6 2.6 2.6 2.6 2.6 2.6.9c.6 0 1.1 0 1.7.1.9.1 1.7.2 2.6.4.9.2 1.7.5 2.6.8.9.3 1.7.8 2.6 1.2.9.5 1.8 1.1 2.6 1.8.9.8 1.8 1.7 2.6 2.6 1 1.3 1.9 2.7 2.6 4.2 1 2.3 1.6 4.8 1.6 7.5 0 2.7-.6 5.2-1.6 7.5-.7 1.5-1.5 2.9-2.6 4.2-.8.9-1.6 1.8-2.6 2.6-.8.7-1.7 1.3-2.6 1.8-.8.5-1.7.9-2.6 1.3-.8.3-1.7.6-2.6.8-.8.2-1.7.3-2.6.4-.6.1-1.1.1-1.7.1h-.9-2.6-2.6-2.6-2.6-2.6-2.6-2.6-2.6-2.6-2.6-2.6-2.6-2.6-2.6-2.6-2.6-2.6-2.6-2.6-2.6-2.6-2.6-2.6-2.6-2.6-2.6-2.6-2.6-2.6-2.6-2.6-2.6-2.6-2.6-2.6-2.6-2.6-2.6-2.6-2.6-2.6-2.6-2.6-.9c-.6 0-1.1 0-1.7-.1-.9-.1-1.7-.2-2.6-.4-.9-.2-1.7-.5-2.6-.8-.9-.3-1.7-.8-2.6-1.2-.9-.5-1.8-1.1-2.6-1.8-.9-.8-1.8-1.6-2.6-2.6C1290.3 654.7 1289.4 653.3 1288.7 651.8zM1129.6 715.7c-.3-1.2-.4-2.5-.4-3.8 0-1.3.1-2.6.4-3.8.5-2.3 1.4-4.4 2.6-6.3.7-1.1 1.6-2.2 2.6-3.2.8-.8 1.6-1.5 2.6-2.1.8-.6 1.7-1.1 2.6-1.5.8-.4 1.7-.7 2.6-1 .8-.3 1.7-.5 2.6-.6.8-.1 1.7-.2 2.6-.2l.3 0h2.2 2.6 2.6 2.6 2.6 2.6 2.6 2.6 2.6 2.6 2.6 2.6 2.6 2.6 2.6 2.6 2.6 2.6 2.6 2.6 2.6 2.6 2.6 2.6 2.6 2.6 2.6 2.6 2.6 2.6 2.6 2.6 2.6 2.6 2.6 2.6 2.6 2.6 2.6 2.6 2.6 2.6 2.6 2.6 2.6 2.6 2.6 2.6 2.6 2.6 2.6 2.6 2.6 2.6 2.6 2.6 2.6 2.6 2.6 2.6 2.6 2.6 2.6 2.6 2.6 2.6 2.6 2.6 2.6 2.6 2.6 2.6 1.5c.4 0 .7 0 1.1.1l.6.1h1.9 2.6 2.6 2.6 2.6 2.6 2.6 2.6 2.6 2.6 2.6 2.6 2.6.2c.6-.1 1.1-.2 1.7-.2.2 0 .4 0 .6 0 .3 0 .6.1.9.1h1.7 2.6 2.6 2.6 2.6 1.1c.5 0 1 0 1.5.1.9.1 1.7.2 2.6.4.9.2 1.7.5 2.6.8.9.3 1.7.7 2.6 1.2.9.5 1.8 1.1 2.6 1.8.9.8 1.8 1.6 2.6 2.6 1 1.2 1.9 2.6 2.6 4.1 1.1 2.4 1.7 5 1.7 7.7 0 2.7-.6 5.4-1.7 7.7-.7 1.5-1.5 2.8-2.6 4.1-.8.9-1.6 1.8-2.6 2.6-.8.7-1.7 1.3-2.6 1.8-.8.5-1.7.9-2.6 1.2-.8.3-1.7.6-2.6.8-.8.2-1.7.3-2.6.4-.5 0-1 .1-1.5.1h-1.1-2.6-2.6-2.6-2.6-1.8c-.3 0-.5.1-.7.1-.2 0-.4 0-.6 0-.5 0-1-.1-1.6-.1h-.4-2.6-2.6-2.6-2.6-2.6-2.6-2.6-2.6-2.6-2.6-2.6-2.6-2.1l-.5 0c-.4 0-.7.1-1.1.1h-1.5-2.6-2.6-2.6-2.6-2.6-2.6-2.6-2.6-2.6-2.6-2.6-2.6-2.6-2.6-2.6-2.6-2.6-2.6-2.6-2.6-2.6-2.6-2.6-2.6-2.6-2.6-2.6-2.6-2.6-2.6-2.6-2.6-2.6-2.6-2.6-2.6-2.6-2.6-2.6-2.6-2.6-2.6-2.6-2.6-2.6-2.6-2.6-2.6-2.6-2.6-2.6-2.6-2.6-2.6-2.6-2.6-2.6-2.6-2.6-2.6-2.6-2.6-2.6-2.6-2.6-2.6-2.6-2.6-2.6-2.6-2.6-2.2l-.3 0c-.9 0-1.7-.1-2.6-.2-.9-.1-1.7-.3-2.6-.6-.9-.3-1.7-.6-2.6-1-.9-.4-1.8-.9-2.6-1.5-.9-.6-1.8-1.3-2.6-2.1-1-1-1.8-2-2.6-3.2C1130.9 720.1 1130.1 718 1129.6 715.7z" clip-rule="evenodd" class="colorffffff svgShape"></path></g></svg>