<svg xmlns="http://www.w3.org/2000/svg" enable-background="new 0 0 2800 2000" viewBox="0 0 2800 2000" id="NewsArticle"><rect width="2000" height="2000" x="400" fill="#ffffff" fill-rule="evenodd" clip-rule="evenodd" display="none" class="colorffffff svgShape"></rect><path fill="#d5eaff" d="M707.58,1359.79c19.22,29.67,207.5,255.11,359.27,257.85c136.87,2.47,181.26-195.94,325.02-181.25  c107.05,10.94,120.67,124.87,244.7,164.42c121.91,38.87,283.1-8.02,364.25-95.77c422.15-456.43,199.57-1136.24-156.86-1327.9  c-160.95-86.55-258.86,152.78-596.89,109.99c-203.27-25.73-165.41-147.52-340.55-66.72C703.32,314.16,374.55,845.69,707.58,1359.79z  " display="none" opacity=".5" class="colord5f0ff svgShape"></path><g fill="#000000" class="color000000 svgShape"><g fill="#000000" class="color000000 svgShape"><g fill="#000000" class="color000000 svgShape"><path fill="#d5eaff" d="M621.51,718.52c-53.36,106.14-212.3,73.94-326.67,194.35c-118.8,125.07-125.06,340.76,12.91,473.84     c140,135.04,372.6,131.1,486,129.18c186.37-3.16,256.27-52.31,403.99-80.68c517.12-99.3,798.64,284.46,1130.71,161.48     c180.69-66.92,305.64-257.86,272.24-394.89c-57.17-234.56-594.4-283.86-569.84-401.1c20.63-98.52,402.6-76.21,469.72-222.02     c60.17-130.72-173.67-307.62-337.73-386.1c-75.62-36.17-296.87-145.74-483.93-74.61c-148,56.28-145.59,168.82-275.26,194.15     c-156.33,30.54-214.6-122.35-436.09-138.24c-163.2-11.7-371.76,54.07-422.2,169.49C486.05,479.06,685.86,590.51,621.51,718.52z" opacity=".42" class="colord5f0ff svgShape"></path><path fill="#d5eaff" d="M621.6,831.84c-53.36,106.14-212.3,73.94-326.67,194.35c-118.8,125.07-125.06,340.76,12.91,473.84     c140,135.04,372.6,131.1,486,129.18c186.37-3.16,256.27-52.31,403.99-80.68c517.12-99.3,798.64,284.46,1130.71,161.48     c180.69-66.92,305.64-257.86,272.24-394.89c-57.16-234.56-594.4-283.86-569.84-401.1c20.63-98.52,402.6-76.21,469.72-222.02     c60.17-130.72-173.67-307.62-337.73-386.1c-75.62-36.17-296.87-145.74-483.93-74.61c-148,56.28-145.59,168.82-275.26,194.15     c-156.33,30.54-214.6-122.35-436.09-138.24c-163.2-11.7-371.76,54.07-422.2,169.49C486.14,592.39,685.95,703.83,621.6,831.84z" opacity=".6" class="colord5f0ff svgShape"></path></g><g fill="#000000" class="color000000 svgShape"><g fill="#000000" class="color000000 svgShape"><path fill="#62a7ec" d="M695.92,1510.52c-144.94,9.58-424.89-340.06-288.49-478.98c8.88-9.05,58.56-59.64,147.95-67.55      c96.32-8.52,178.57,37.87,188.01,43.19C944.17,1120.4,841.94,1500.86,695.92,1510.52z" class="color62cbec svgShape"></path><path fill="#bbdaf9" d="M718.72,1519.78c-144.94,9.58-424.89-340.06-288.49-478.98c8.88-9.05,58.56-59.64,147.95-67.55      c96.32-8.52,178.57,37.86,188.01,43.19C966.97,1129.67,864.74,1510.12,718.72,1519.78z" class="colorbbe6f9 svgShape"></path><g fill="#000000" class="color000000 svgShape"><g fill="#000000" class="color000000 svgShape"><path fill="#ffffff" d="M707.14,1647.3c-0.09-0.01-0.17-0.01-0.26-0.02c-3.77-0.4-6.54-2.73-6.18-5.2        c16.58-114.87,8.9-231.45-22.85-346.5c-25.38-91.99-66.25-183.03-121.47-270.6c-1.49-2.36,0.12-4.96,3.61-5.79        c3.48-0.83,7.51,0.4,9,2.77c55.62,88.2,96.79,179.91,122.35,272.56c31.98,115.88,39.72,233.31,23.01,349        C714,1645.94,710.8,1647.6,707.14,1647.3z" class="colorffffff svgShape"></path></g><g fill="#000000" class="color000000 svgShape"><path fill="#ffffff" d="M639.7,1167.43c-1.42-0.11-2.84-0.52-4.01-1.22c-2.9-1.73-3.28-4.61-0.84-6.42        c22.46-16.7,39.29-36.05,50.04-57.51c10.41-20.79,14.65-42.69,12.61-65.08c-0.23-2.51,2.65-4.53,6.43-4.52        c3.77,0.01,7.03,2.05,7.26,4.56c2.15,23.53-2.3,46.54-13.25,68.39c-11.29,22.55-28.99,42.88-52.59,60.43        C643.9,1167.14,641.78,1167.59,639.7,1167.43z" class="colorffffff svgShape"></path></g><g fill="#000000" class="color000000 svgShape"><path fill="#ffffff" d="M705.19,1354.09c-2.03-0.16-3.98-0.91-5.23-2.15c-2.17-2.14-1.41-4.94,1.7-6.24        c28.63-11.98,52.78-27.44,71.77-45.95c18.41-17.94,31.18-37.98,37.98-59.58c0.76-2.42,4.38-3.85,8.09-3.18        c3.71,0.66,6.1,3.16,5.34,5.58c-7.14,22.7-20.56,43.77-39.91,62.62c-19.96,19.45-45.34,35.7-75.43,48.29        C708.19,1354.02,706.67,1354.21,705.19,1354.09z" class="colorffffff svgShape"></path></g><g fill="#000000" class="color000000 svgShape"><path fill="#ffffff" d="M636.54,1244.85c-28.6-2.3-56.63-7.43-83.61-15.32c-33.22-9.71-63.44-23.18-89.81-40.05        c-2.81-1.8-3.03-4.67-0.49-6.42c2.54-1.75,6.88-1.71,9.69,0.09c25.1,16.06,53.85,28.88,85.46,38.11        c32.62,9.53,66.86,14.83,101.77,15.76c3.79,0.11,6.93,2.21,7.02,4.72c0.09,2.51-2.9,4.46-6.69,4.35        C652.07,1245.89,644.28,1245.47,636.54,1244.85z" class="colorffffff svgShape"></path></g><g fill="#000000" class="color000000 svgShape"><path fill="#ffffff" d="M712.99,1458.5c-0.37-0.03-0.74-0.08-1.11-0.15c-35.8-6.82-69.23-17.93-99.36-33        c-29.19-14.6-54.04-32.32-73.85-52.66c-2.11-2.17-1.27-4.95,1.87-6.21c3.14-1.26,7.41-0.53,9.52,1.64        c18.85,19.36,42.5,36.22,70.28,50.11c28.67,14.34,60.48,24.9,94.55,31.4c3.7,0.71,6.02,3.23,5.19,5.63        C719.33,1457.43,716.29,1458.76,712.99,1458.5z" class="colorffffff svgShape"></path></g></g></g><g fill="#000000" class="color000000 svgShape"><path fill="#8bbdef" d="M621.66,1583.27c-69.89,98.91-443.36,96.67-461.73-64.63c-1.2-10.5-7.89-69.25,33.93-131.3      c45.06-66.86,118.29-95.78,126.69-99.1C499.32,1217.64,692.08,1483.61,621.66,1583.27z" class="color8bdcef svgShape"></path><path fill="#d2e4f7" d="M639.63,1573.36c-69.89,98.91-443.36,96.67-461.73-64.63c-1.2-10.5-7.88-69.25,33.93-131.3      c45.06-66.86,118.29-95.78,126.69-99.1C517.29,1207.73,710.05,1473.71,639.63,1573.36z" class="colord2edf7 svgShape"></path><g fill="#000000" class="color000000 svgShape"><g fill="#000000" class="color000000 svgShape"><path fill="#ffffff" d="M716.15,1647.82c-0.05,0.05-0.1,0.1-0.15,0.15c-2.24,2.24-5.2,2.81-6.61,1.27        c-65.7-71.05-145.24-127.29-236.43-167.13c-72.91-31.86-153.34-53.19-239.06-63.4c-2.31-0.28-3.15-2.68-1.86-5.38        c1.29-2.69,4.21-4.66,6.52-4.38c86.34,10.28,167.35,31.77,240.79,63.86c91.85,40.13,171.98,96.77,238.15,168.34        C718.87,1642.66,718.27,1645.6,716.15,1647.82z" class="colorffffff svgShape"></path></g><g fill="#000000" class="color000000 svgShape"><path fill="#ffffff" d="M369.91,1439.54c-0.82,0.86-1.83,1.56-2.9,1.96c-2.65,0.97-4.7-0.3-4.6-2.83        c0.97-23.32-2.72-44.38-10.98-62.61c-8-17.66-19.96-31.9-35.54-42.34c-1.75-1.17-1.54-4.1,0.45-6.54        c1.99-2.44,5.02-3.48,6.76-2.31c16.37,10.96,28.94,25.93,37.35,44.49c8.68,19.15,12.56,41.29,11.53,65.79        C371.93,1436.67,371.11,1438.28,369.91,1439.54z" class="colorffffff svgShape"></path></g><g fill="#000000" class="color000000 svgShape"><path fill="#ffffff" d="M525.21,1495.13c-1.17,1.23-2.68,2.1-4.14,2.26c-2.53,0.28-3.94-1.68-3.15-4.37        c7.27-24.83,9.94-48.59,7.92-70.62c-1.95-21.34-8.23-40.14-18.66-55.88c-1.17-1.76-0.19-4.86,2.19-6.91        c2.38-2.06,5.25-2.3,6.42-0.53c10.96,16.54,17.55,36.3,19.61,58.73c2.12,23.14-0.68,48.11-8.33,74.21        C526.73,1493.15,526.06,1494.23,525.21,1495.13z" class="colorffffff svgShape"></path></g><g fill="#000000" class="color000000 svgShape"><path fill="#ffffff" d="M418.4,1482.24c-16.51,17.32-34.55,32.78-53.82,46.11c-23.73,16.42-48.32,28.92-73.1,37.14        c-2.64,0.88-4.62-0.49-4.41-3.05c0.2-2.56,2.51-5.35,5.14-6.23c23.58-7.83,46.98-19.72,69.56-35.35        c23.3-16.13,44.72-35.52,63.64-57.64c2.06-2.4,5.07-3.33,6.74-2.07c1.67,1.26,1.36,4.22-0.69,6.62        C427.23,1472.73,422.87,1477.55,418.4,1482.24z" class="colorffffff svgShape"></path></g><g fill="#000000" class="color000000 svgShape"><path fill="#ffffff" d="M596.93,1544.9c-0.21,0.22-0.44,0.44-0.68,0.64c-23.22,19.61-47.96,35.43-73.54,47.03        c-24.79,11.24-49.31,18.03-72.89,20.19c-2.51,0.23-3.87-1.77-3.04-4.47c0.84-2.7,3.55-5.07,6.06-5.3        c22.44-2.05,45.77-8.51,69.36-19.21c24.34-11.04,47.88-26.1,69.98-44.76c2.4-2.02,5.25-2.21,6.38-0.41        C599.57,1540.23,598.83,1542.9,596.93,1544.9z" class="colorffffff svgShape"></path></g></g></g></g><g fill="#000000" class="color000000 svgShape"><g fill="#000000" class="color000000 svgShape"><path fill="#8bbdef" d="M2296.27,1717.69c-22.52-86.61,156.79-296.38,256.6-229.85c6.5,4.33,42.85,28.56,57.95,81.75      c16.27,57.31-2.32,112.44-4.45,118.77C2561.01,1822.92,2318.96,1804.95,2296.27,1717.69z" class="color8bdcef svgShape"></path><path fill="#d2e4f7" d="M2293.3,1732.56c-22.52-86.61,156.79-296.38,256.6-229.85c6.5,4.33,42.85,28.56,57.95,81.75      c16.27,57.31-2.32,112.44-4.45,118.77C2558.04,1837.79,2315.99,1819.81,2293.3,1732.56z" class="colord2edf7 svgShape"></path><g fill="#000000" class="color000000 svgShape"><g fill="#000000" class="color000000 svgShape"><path fill="#ffffff" d="M2214.78,1740.26c-0.01-0.05-0.01-0.11-0.01-0.16c-0.2-2.33,0.89-4.27,2.43-4.34        c71.43-3.21,141.1-21.32,207.07-53.8c52.74-25.97,103.13-61.21,149.76-104.73c1.26-1.17,3.01-0.5,3.92,1.51        c0.91,2.01,0.62,4.59-0.64,5.77c-46.96,43.84-97.71,79.33-150.84,105.49c-66.44,32.72-136.61,50.95-208.56,54.19        C2216.41,1744.26,2215.03,1742.51,2214.78,1740.26z" class="colorffffff svgShape"></path></g><g fill="#000000" class="color000000 svgShape"><path fill="#ffffff" d="M2497.43,1644.08c-0.09-0.88-0.01-1.78,0.28-2.57c0.71-1.96,2.41-2.51,3.79-1.25        c12.7,11.67,26.35,19.62,40.58,23.65c13.78,3.9,27.53,3.94,40.84,0.12c1.49-0.43,3.05,1.08,3.48,3.37        c0.43,2.28-0.43,4.49-1.92,4.92c-13.99,4.02-28.43,3.97-42.92-0.13c-14.95-4.23-29.3-12.6-42.64-24.85        C2498.09,1646.59,2497.57,1645.36,2497.43,1644.08z" class="colorffffff svgShape"></path></g><g fill="#000000" class="color000000 svgShape"><path fill="#ffffff" d="M2392.01,1705.25c-0.14-1.25,0.09-2.52,0.7-3.42c1.05-1.56,2.82-1.42,3.97,0.31        c10.55,15.95,22.69,28.78,36.09,38.14c12.98,9.07,26.58,14.49,40.44,16.11c1.55,0.18,2.83,2.2,2.86,4.53        c0.03,2.32-1.21,4.06-2.76,3.88c-14.56-1.7-28.86-7.4-42.5-16.93c-14.08-9.84-26.84-23.32-37.93-40.08        C2392.4,1707.06,2392.11,1706.16,2392.01,1705.25z" class="colorffffff svgShape"></path></g><g fill="#000000" class="color000000 svgShape"><path fill="#ffffff" d="M2450.21,1651.1c-1.91-17.57-2.03-35.13-0.38-52.37c2.04-21.23,6.71-41.07,13.88-58.98        c0.76-1.91,2.48-2.37,3.83-1.04c1.35,1.33,1.83,3.97,1.06,5.87c-6.82,17.04-11.26,35.92-13.21,56.12        c-2.01,20.84-1.26,42.18,2.2,63.41c0.37,2.31-0.54,4.45-2.05,4.8c-1.51,0.34-3.03-1.24-3.41-3.55        C2451.37,1660.62,2450.72,1655.86,2450.21,1651.1z" class="colorffffff svgShape"></path></g><g fill="#000000" class="color000000 svgShape"><path fill="#ffffff" d="M2329.73,1722.02c-0.03-0.23-0.04-0.46-0.04-0.69c0-22.46,2.86-43.97,8.51-63.94        c5.47-19.35,13.33-36.43,23.35-50.77c1.07-1.53,2.85-1.34,3.97,0.42c1.12,1.76,1.17,4.42,0.1,5.95        c-9.54,13.64-17.02,29.9-22.22,48.31c-5.37,19-8.09,39.47-8.09,60.84c0,2.32-1.26,4.02-2.81,3.79        C2331.1,1725.73,2329.95,1724.04,2329.73,1722.02z" class="colorffffff svgShape"></path></g></g></g><g fill="#000000" class="color000000 svgShape"><path fill="#62a7ec" d="M2210.24,1595.75c118.89,47.13,447.83-170.41,370.98-323.63c-5-9.98-32.99-65.78-105.78-96.52      c-78.43-33.12-159.88-16.43-169.22-14.51C2107.4,1201.83,2090.46,1548.27,2210.24,1595.75z" class="color62cbec svgShape"></path><path fill="#bbdaf9" d="M2188.63,1597.36c118.89,47.13,447.83-170.41,370.98-323.63c-5-9.98-32.99-65.78-105.78-96.52      c-78.43-33.12-159.88-16.43-169.22-14.51C2085.8,1203.44,2068.85,1549.88,2188.63,1597.36z" class="colorbbe6f9 svgShape"></path><g fill="#000000" class="color000000 svgShape"><g fill="#000000" class="color000000 svgShape"><path fill="#ffffff" d="M2163.94,1707.37c0.07,0.02,0.15,0.03,0.22,0.05c3.27,0.69,6.22-0.52,6.58-2.69        c17.08-100.75,54.97-196.38,112.61-284.24c46.09-70.25,104.9-135.53,174.8-194.03c1.89-1.58,1.23-4.19-1.46-5.83        c-2.69-1.64-6.41-1.69-8.29-0.11c-70.41,58.92-129.64,124.68-176.06,195.44c-58.06,88.5-96.22,184.82-113.42,286.3        C2158.56,1704.37,2160.79,1706.63,2163.94,1707.37z" class="colorffffff svgShape"></path></g><g fill="#000000" class="color000000 svgShape"><path fill="#ffffff" d="M2349.9,1323.36c1.22,0.29,2.52,0.33,3.69,0.06c2.9-0.67,3.99-2.98,2.44-5.15        c-14.32-20.06-23.21-40.81-26.43-61.69c-3.12-20.23-0.77-39.73,6.99-57.95c0.87-2.04-1-4.51-4.17-5.52        c-3.17-1.01-6.45-0.18-7.31,1.86c-8.15,19.14-10.62,39.63-7.35,60.9c3.38,21.95,12.73,43.76,27.77,64.84        C2346.46,1321.99,2348.11,1322.94,2349.9,1323.36z" class="colorffffff svgShape"></path></g><g fill="#000000" class="color000000 svgShape"><path fill="#ffffff" d="M2244.66,1462.15c1.74,0.41,3.58,0.31,4.97-0.39c2.4-1.21,2.51-3.76,0.26-5.68        c-20.76-17.76-36.83-37.23-47.76-57.87c-10.59-20-15.89-40.24-15.76-60.18c0.02-2.23-2.63-4.41-5.93-4.85        c-3.29-0.45-5.97,1-5.98,3.23c-0.14,20.95,5.43,42.23,16.56,63.24c11.48,21.69,28.37,42.15,50.19,60.82        C2242.17,1461.27,2243.39,1461.85,2244.66,1462.15z" class="colorffffff svgShape"></path></g><g fill="#000000" class="color000000 svgShape"><path fill="#ffffff" d="M2331.66,1389.11c24.59,5.78,49.46,9.04,74.2,9.71c30.46,0.83,59.42-2.32,86.08-9.34        c2.84-0.75,3.8-3.1,2.14-5.25c-1.66-2.15-5.3-3.29-8.14-2.54c-25.36,6.69-52.92,9.68-81.91,8.89        c-29.91-0.81-60.04-5.6-89.55-14.24c-3.2-0.93-6.41-0.01-7.16,2.06c-0.75,2.08,1.23,4.52,4.43,5.45        C2318.37,1385.79,2325.01,1387.54,2331.66,1389.11z" class="colorffffff svgShape"></path></g><g fill="#000000" class="color000000 svgShape"><path fill="#ffffff" d="M2209.96,1547.55c0.32,0.07,0.64,0.13,0.97,0.17c31.85,3.94,62.86,3.65,92.18-0.85        c28.41-4.36,54.01-12.51,76.1-24.22c2.35-1.25,2.4-3.8,0.1-5.71c-2.3-1.9-6.07-2.44-8.42-1.19        c-21.02,11.14-45.39,18.89-72.42,23.05c-27.89,4.29-57.4,4.56-87.71,0.81c-3.29-0.41-5.92,1.08-5.87,3.32        C2204.94,1544.94,2207.13,1546.88,2209.96,1547.55z" class="colorffffff svgShape"></path></g></g></g></g><ellipse cx="1428.98" cy="1852.25" fill="#dfefff" rx="1177.68" ry="53.29" class="colordfe6ff svgShape"></ellipse><g fill="#000000" class="color000000 svgShape"><path fill="#84c1fe" d="M2524,383.07c-14.47-0.65-28.47,1.24-41.56,5.26c-26.95-37.4-70.13-62.57-119.76-64.81     c-26.77-1.21-52.26,4.4-74.81,15.28c-8.92-24.46-31.84-42.4-59.47-43.65c-36.67-1.65-67.74,26.73-69.39,63.41     c-0.26,5.71,0.22,11.29,1.34,16.64c-11.24,6.16-21.69,13.68-31.1,22.38c-12.03-6.55-25.37-11.18-39.69-13.42     c-66.95-10.47-129.72,35.32-140.19,102.27c-10.47,66.95,35.32,129.72,102.27,140.19c24.12,3.77,47.69,0.24,68.48-8.95     c23.1,25.28,54.64,43.18,91.11,48.89c38.82,6.07,76.53-2.72,107.35-22.14c14.02,10.38,30.69,17.62,49.12,20.5     c42.73,6.68,83.59-11.81,107.48-44.46c11.8,4.45,24.49,7.16,37.78,7.75c67.7,3.05,125.05-49.35,128.1-117.05     C2644.1,443.47,2591.7,386.12,2524,383.07z" class="color84b2fe svgShape"></path><path fill="#dfefff" d="M2513.09,395.6c-14.47-0.65-28.47,1.24-41.56,5.26c-26.95-37.4-70.13-62.57-119.76-64.81     c-26.77-1.21-52.26,4.4-74.81,15.28c-8.92-24.46-31.84-42.4-59.47-43.65c-36.67-1.65-67.74,26.73-69.39,63.41     c-0.26,5.71,0.22,11.29,1.34,16.64c-11.24,6.16-21.69,13.68-31.1,22.38c-12.03-6.55-25.37-11.18-39.69-13.42     c-66.95-10.47-129.72,35.32-140.19,102.27c-10.47,66.95,35.32,129.72,102.27,140.19c24.12,3.77,47.69,0.24,68.48-8.95     c23.11,25.28,54.64,43.18,91.11,48.89c38.82,6.07,76.53-2.72,107.35-22.14c14.03,10.38,30.69,17.62,49.12,20.5     c42.73,6.68,83.59-11.81,107.48-44.46c11.8,4.45,24.49,7.16,37.78,7.75c67.7,3.05,125.05-49.35,128.1-117.05     C2633.19,456.01,2580.79,398.66,2513.09,395.6z" class="colordfe6ff svgShape"></path></g><g fill="#000000" class="color000000 svgShape"><path fill="#84c1fe" d="M696.77,176.74c-15.77,1.74-30.6,6.16-44.1,12.73c-35.51-35.92-86.5-55.86-140.6-49.88     c-29.18,3.23-55.83,13.61-78.4,29.21c-13.8-24.96-41.65-40.51-71.77-37.18c-39.98,4.42-68.8,40.41-64.38,80.38     c1.16,10.52,4.51,20.26,9.55,28.84c-42.65,22.95-69.32,70.17-63.67,121.26c7.43,67.19,67.91,115.63,135.1,108.2     c20.32-2.25,38.91-9.35,54.78-20.02c32.78,22.77,73.62,34.25,116.4,29.52c40.2-4.44,75.59-22.48,102.13-49.01     c22.29,11.08,47.92,16.11,74.51,13.17c73.8-8.16,127.01-74.59,118.85-148.39C837,221.79,770.57,168.58,696.77,176.74z" class="color84b2fe svgShape"></path><path fill="#dfefff" d="M711.32,188.39c-15.77,1.74-30.6,6.16-44.1,12.73c-35.51-35.92-86.5-55.86-140.6-49.88     c-29.18,3.23-55.83,13.61-78.4,29.21c-13.8-24.96-41.65-40.51-71.77-37.18c-39.98,4.42-68.8,40.41-64.38,80.38     c1.16,10.52,4.51,20.26,9.55,28.84c-42.65,22.95-69.32,70.17-63.67,121.26c7.43,67.19,67.91,115.63,135.1,108.2     c20.32-2.25,38.91-9.35,54.78-20.02c32.78,22.77,73.62,34.25,116.4,29.52c40.2-4.44,75.59-22.48,102.13-49.01     c22.29,11.08,47.92,16.11,74.51,13.17c73.8-8.16,127.01-74.59,118.85-148.39C851.56,233.45,785.12,180.24,711.32,188.39z" class="colordfe6ff svgShape"></path></g><g fill="#000000" class="color000000 svgShape"><g fill="#000000" class="color000000 svgShape"><path fill="#add6ff" d="M1511.78,100.13c-45.85,14.28-91.7,28.56-137.55,42.84c-10.62-4.93-21.25-9.86-31.87-14.8      C1398.84,118.83,1455.31,109.48,1511.78,100.13z" class="colorffcdad svgShape"></path><path fill="#87bdf4" d="M1511.78,100.13c-46.64,13.92-93.28,27.85-139.93,41.77c-8.45,12.35-16.9,24.71-25.34,37.06      C1401.61,152.69,1456.69,126.41,1511.78,100.13z" class="colorf4ab87 svgShape"></path><path fill="#6886f6" d="M1346.52,178.96c11.05-8.96,22.09-17.92,33.14-26.89c5.05,3.3,10.1,6.6,15.14,9.91      C1378.7,167.64,1362.61,173.3,1346.52,178.96z" class="colorf69668 svgShape"></path><path fill="#add6ff" d="M1511.7,100.17c-44.07,17.33-88.13,34.65-132.2,51.98c12.15,7.81,24.3,15.62,36.45,23.43      C1447.86,150.44,1479.78,125.31,1511.7,100.17z" class="colorffcdad svgShape"></path></g><g fill="#000000" class="color000000 svgShape"><path fill="#add6ff" d="M1292.39,580.98c-0.55-0.12-1.05-0.34-1.43-0.67c-5.48-4.69-10.66-9.69-15.4-14.85      c-1.03-1.13-0.5-2.78,1.2-3.7c1.69-0.92,3.91-0.75,4.94,0.38c4.61,5.02,9.65,9.88,14.98,14.45c1.2,1.03,0.89,2.69-0.69,3.72      C1294.92,581,1293.54,581.23,1292.39,580.98z M1264.38,550.42c-0.77-0.16-1.43-0.54-1.82-1.09      c-3.96-5.66-7.43-11.49-10.32-17.34c-0.64-1.3,0.36-2.88,2.24-3.53c1.88-0.65,3.92-0.13,4.56,1.17      c2.81,5.68,6.17,11.34,10.01,16.83c0.85,1.22,0.08,2.85-1.71,3.64C1266.38,550.51,1265.3,550.61,1264.38,550.42z M1247.09,515.2      c-1.04-0.22-1.85-0.82-2.1-1.66c-1.87-6.36-3.13-12.86-3.75-19.32c-0.14-1.42,1.36-2.82,3.34-3.11c1.98-0.3,3.7,0.62,3.83,2.04      c0.6,6.23,1.82,12.5,3.62,18.64c0.4,1.37-0.85,2.87-2.79,3.36C1248.49,515.33,1247.75,515.34,1247.09,515.2z M1243.45,476.68      c-1.37-0.29-2.27-1.22-2.16-2.37c0.21-2.12,0.49-4.27,0.84-6.39c0.73-4.49,1.77-9.1,3.1-13.69c0.42-1.45,2.33-2.53,4.27-2.42      c1.94,0.11,3.17,1.37,2.75,2.82c-1.28,4.43-2.29,8.87-2.99,13.2c-0.33,2.04-0.6,4.11-0.81,6.15c-0.15,1.45-1.87,2.7-3.85,2.79      C1244.2,476.79,1243.81,476.76,1243.45,476.68z M1254.68,437.44c-1.72-0.37-2.59-1.7-1.96-3.06c1.81-3.92,3.85-7.89,6.05-11.8      c1.41-2.51,2.93-5.05,4.5-7.56c0.87-1.38,3.02-2.13,4.8-1.69c1.79,0.45,2.53,1.93,1.66,3.32c-1.53,2.43-2.99,4.9-4.36,7.34      c-2.14,3.8-4.11,7.65-5.87,11.45c-0.66,1.42-2.71,2.34-4.58,2.05C1254.84,437.47,1254.76,437.45,1254.68,437.44z       M1316.48,425.69c-0.39-0.08-0.78-0.17-1.17-0.25c-1.81-0.4-2.63-1.86-1.82-3.26c0.8-1.39,2.91-2.19,4.71-1.8      c0.01,0,0.02,0.01,0.04,0.01c8.22,1.82,16.6,2.81,24.84,2.89c1.96,0.02,3.31,1.21,3.02,2.67c-0.3,1.45-2.13,2.62-4.09,2.6      C1333.52,428.45,1324.93,427.49,1316.48,425.69z M1292.1,417.93c-0.24-0.05-0.47-0.12-0.69-0.22      c-7.22-3.09-14.22-6.8-20.78-11.04c-1.38-0.89-1.35-2.55,0.07-3.69c1.42-1.15,3.7-1.35,5.08-0.46      c6.28,4.05,12.96,7.6,19.86,10.55c1.61,0.69,1.96,2.28,0.79,3.56C1295.43,417.74,1293.61,418.25,1292.1,417.93z M1367.97,425.64      c-1.08-0.23-1.91-0.87-2.12-1.75c-0.33-1.39,1-2.86,2.95-3.3c8.18-1.81,16.51-4.53,24.77-8.09c1.81-0.78,3.94-0.41,4.76,0.81      c0.82,1.23,0.03,2.85-1.78,3.63c-8.83,3.8-17.77,6.72-26.57,8.67C1369.27,425.77,1368.58,425.77,1367.97,425.64z       M1278.14,399.97c-0.17-0.04-0.33-0.08-0.48-0.14c-1.68-0.6-2.19-2.15-1.14-3.48c4.84-6.1,10.13-12.08,15.72-17.8      c1.23-1.25,3.49-1.68,5.05-0.94c1.56,0.73,1.83,2.34,0.61,3.6c-5.43,5.55-10.57,11.37-15.28,17.3      C1281.66,399.71,1279.74,400.31,1278.14,399.97z M1254.55,393.84c-0.58-0.12-1.11-0.37-1.5-0.73      c-5.43-5-10.18-10.29-14.11-15.72c-0.87-1.21-0.13-2.84,1.65-3.65c1.78-0.81,3.94-0.49,4.81,0.71      c3.76,5.2,8.31,10.26,13.52,15.06c1.15,1.06,0.77,2.72-0.85,3.72C1256.99,393.88,1255.66,394.08,1254.55,393.84z       M1416.64,404.83c-0.53-0.11-1.01-0.33-1.4-0.64c-1.23-1.01-0.95-2.68,0.61-3.72c7.22-4.83,13.25-9.97,17.91-15.27      c1.14-1.29,3.38-1.81,5.01-1.14c1.63,0.66,2.02,2.25,0.88,3.54c-5.07,5.76-11.59,11.32-19.36,16.53      C1419.22,404.84,1417.81,405.08,1416.64,404.83z M1231.29,361.13c-0.98-0.21-1.76-0.75-2.05-1.52      c-2.31-6.12-3.8-12.62-4.41-19.32c-0.13-1.42,1.37-2.82,3.35-3.11c1.98-0.29,3.69,0.62,3.82,2.05c0.59,6.37,2,12.55,4.19,18.36      c0.51,1.34-0.64,2.88-2.56,3.44C1232.82,361.25,1232,361.28,1231.29,361.13z M1311.45,365.96c-0.4-0.09-0.77-0.23-1.1-0.43      c-1.41-0.87-1.42-2.52-0.03-3.68c6.66-5.54,13.56-10.67,20.53-15.25c1.57-1.03,3.83-1.05,5.04-0.03      c1.21,1.02,0.91,2.69-0.66,3.72c-6.71,4.41-13.38,9.36-19.81,14.71C1314.37,365.9,1312.77,366.25,1311.45,365.96z       M1445.74,370.04c-1.48-0.31-2.39-1.37-2.12-2.6c0.45-2.06,0.64-4.11,0.55-6.1c-0.16-3.82-1.3-7.68-3.38-11.48      c-0.7-1.28,0.24-2.87,2.1-3.57c1.86-0.69,3.93-0.22,4.63,1.06c2.36,4.31,3.65,8.72,3.84,13.11c0.1,2.32-0.12,4.71-0.64,7.1      c-0.32,1.45-2.16,2.6-4.12,2.57C1446.3,370.13,1446.01,370.1,1445.74,370.04z M1227.57,322.7c-1.41-0.3-2.32-1.27-2.15-2.45      c0.95-6.56,2.64-13.32,5.03-20.1c0.51-1.44,2.48-2.47,4.4-2.29c1.92,0.18,3.06,1.49,2.56,2.93c-2.3,6.51-3.92,13.01-4.83,19.3      c-0.21,1.45-1.98,2.67-3.96,2.71C1228.25,322.81,1227.9,322.77,1227.57,322.7z M1354.31,338.17c-0.74-0.16-1.38-0.51-1.77-1.03      c-0.9-1.19-0.2-2.83,1.56-3.66c9.08-4.28,17.94-7.43,26.33-9.37c1.96-0.45,3.83,0.3,4.18,1.68c0.35,1.38-0.94,2.87-2.9,3.32      c-7.7,1.78-15.88,4.7-24.33,8.68C1356.38,338.27,1355.26,338.38,1354.31,338.17z M1428.45,336.13      c-0.43-0.09-0.83-0.25-1.18-0.48c-6.13-4.06-13.36-6.85-20.81-7.99c-1.88-0.29-2.86-1.68-2.21-3.1      c0.66-1.42,2.71-2.35,4.58-2.06c8.52,1.31,16.75,4.46,23.65,9.04c1.37,0.91,1.31,2.56-0.13,3.7      C1431.28,336.09,1429.73,336.41,1428.45,336.13z M1241.19,283.64c-1.8-0.38-2.65-1.81-1.89-3.21c0.37-0.68,0.75-1.37,1.13-2.05      c3.19-5.66,6.87-11.37,10.94-16.98c0.98-1.35,3.18-2.01,4.9-1.47c1.73,0.54,2.33,2.07,1.35,3.42      c-3.95,5.43-7.51,10.96-10.6,16.44c-0.37,0.66-0.74,1.32-1.1,1.98c-0.76,1.41-2.87,2.24-4.7,1.87      C1241.22,283.65,1241.2,283.64,1241.19,283.64z M1267.7,247.04c-0.24-0.05-0.47-0.12-0.69-0.22c-1.61-0.69-1.96-2.28-0.79-3.56      c5.28-5.79,11.08-11.55,17.22-17.11c1.33-1.2,3.6-1.52,5.08-0.7c1.48,0.82,1.59,2.45,0.27,3.65      c-5.98,5.41-11.61,11.01-16.75,16.64C1271.03,246.85,1269.21,247.36,1267.7,247.04z M1303.7,214.41      c-0.45-0.1-0.87-0.27-1.23-0.51c-1.34-0.93-1.23-2.59,0.23-3.71c6.65-5.06,13.71-10.01,21.01-14.73      c1.59-1.03,3.84-1.02,5.04,0.01c1.19,1.03,0.88,2.7-0.71,3.72c-7.12,4.6-14.01,9.44-20.49,14.37      C1306.47,214.38,1304.96,214.68,1303.7,214.41z" class="colorffcdad svgShape"></path></g></g><g fill="#000000" class="color000000 svgShape"><g fill="#000000" class="color000000 svgShape"><path fill="#ffffff" d="M1400.56,507.22v1333.97H567.92V507.22c120.99,18.68,257.98,31.56,408.32,32      C1133.01,539.68,1275.44,526.54,1400.56,507.22z" class="colorffffff svgShape"></path><path fill="#ffffff" d="M2232.08,507.22v1333.97h-832.65V507.22c120.99,18.68,257.98,31.56,408.32,32      C1964.53,539.68,2106.96,526.54,2232.08,507.22z" class="colorffffff svgShape"></path></g><g fill="#000000" class="color000000 svgShape"><line x1="656.95" x2="958.74" y1="1109.63" y2="1109.63" fill="#84b2fe"></line><path fill="#84c1fe" d="M958.74,1116.56H656.95c-1.78,0-3.22-3.1-3.22-6.92c0-3.82,1.44-6.92,3.22-6.92h301.78      c1.78,0,3.22,3.1,3.22,6.92C961.96,1113.46,960.52,1116.56,958.74,1116.56z" class="color84b2fe svgShape"></path></g><g fill="#000000" class="color000000 svgShape"><line x1="656.95" x2="958.74" y1="1176.9" y2="1176.9" fill="#84b2fe"></line><path fill="#84c1fe" d="M958.74,1183.83H656.95c-1.78,0-3.22-3.1-3.22-6.92c0-3.82,1.44-6.92,3.22-6.92h301.78      c1.78,0,3.22,3.1,3.22,6.92C961.96,1180.73,960.52,1183.83,958.74,1183.83z" class="color84b2fe svgShape"></path></g><g fill="#000000" class="color000000 svgShape"><line x1="656.95" x2="958.74" y1="1245.1" y2="1245.1" fill="#84b2fe"></line><path fill="#84c1fe" d="M958.74,1252.02H656.95c-1.78,0-3.22-3.1-3.22-6.92c0-3.82,1.44-6.92,3.22-6.92h301.78      c1.78,0,3.22,3.1,3.22,6.92C961.96,1248.92,960.52,1252.02,958.74,1252.02z" class="color84b2fe svgShape"></path></g><g fill="#000000" class="color000000 svgShape"><line x1="656.95" x2="958.74" y1="972.53" y2="972.53" fill="#84b2fe"></line><path fill="#84c1fe" d="M958.74,979.45H656.95c-1.78,0-3.22-3.1-3.22-6.92s1.44-6.92,3.22-6.92h301.78c1.78,0,3.22,3.1,3.22,6.92      S960.52,979.45,958.74,979.45z" class="color84b2fe svgShape"></path></g><g fill="#000000" class="color000000 svgShape"><line x1="656.95" x2="958.74" y1="1039.8" y2="1039.8" fill="#84b2fe"></line><path fill="#84c1fe" d="M958.74,1046.72H656.95c-1.78,0-3.22-3.1-3.22-6.92c0-3.82,1.44-6.92,3.22-6.92h301.78      c1.78,0,3.22,3.1,3.22,6.92C961.96,1043.62,960.52,1046.72,958.74,1046.72z" class="color84b2fe svgShape"></path></g><g fill="#000000" class="color000000 svgShape"><line x1="651.23" x2="953.01" y1="1612.94" y2="1612.94" fill="#84b2fe"></line><path fill="#84c1fe" d="M953.01,1619.87H651.23c-1.78,0-3.22-3.1-3.22-6.92c0-3.82,1.44-6.92,3.22-6.92h301.78      c1.78,0,3.22,3.1,3.22,6.92C956.24,1616.77,954.79,1619.87,953.01,1619.87z" class="color84b2fe svgShape"></path></g><g fill="#000000" class="color000000 svgShape"><line x1="651.23" x2="953.01" y1="1680.21" y2="1680.21" fill="#84b2fe"></line><path fill="#84c1fe" d="M953.01,1687.14H651.23c-1.78,0-3.22-3.1-3.22-6.92c0-3.82,1.44-6.92,3.22-6.92h301.78      c1.78,0,3.22,3.1,3.22,6.92C956.24,1684.04,954.79,1687.14,953.01,1687.14z" class="color84b2fe svgShape"></path></g><g fill="#000000" class="color000000 svgShape"><line x1="651.23" x2="953.01" y1="1748.41" y2="1748.41" fill="#84b2fe"></line><path fill="#84c1fe" d="M953.01,1755.34H651.23c-1.78,0-3.22-3.1-3.22-6.92c0-3.82,1.44-6.92,3.22-6.92h301.78      c1.78,0,3.22,3.1,3.22,6.92C956.24,1752.24,954.79,1755.34,953.01,1755.34z" class="color84b2fe svgShape"></path></g><g fill="#000000" class="color000000 svgShape"><line x1="651.23" x2="953.01" y1="1543.11" y2="1543.11" fill="#84b2fe"></line><path fill="#84c1fe" d="M953.01,1550.03H651.23c-1.78,0-3.22-3.1-3.22-6.92c0-3.82,1.44-6.92,3.22-6.92h301.78      c1.78,0,3.22,3.1,3.22,6.92C956.24,1546.93,954.79,1550.03,953.01,1550.03z" class="color84b2fe svgShape"></path></g><g fill="#000000" class="color000000 svgShape"><line x1="656.95" x2="958.74" y1="835.42" y2="835.42" fill="#84b2fe"></line><path fill="#84c1fe" d="M958.74,842.34H656.95c-1.78,0-3.22-3.1-3.22-6.92c0-3.82,1.44-6.92,3.22-6.92h301.78      c1.78,0,3.22,3.1,3.22,6.92C961.96,839.24,960.52,842.34,958.74,842.34z" class="color84b2fe svgShape"></path></g><g fill="#000000" class="color000000 svgShape"><line x1="656.95" x2="958.74" y1="905.26" y2="905.26" fill="#84b2fe"></line><path fill="#84c1fe" d="M958.74,912.18H656.95c-1.78,0-3.22-3.1-3.22-6.92c0-3.82,1.44-6.92,3.22-6.92h301.78      c1.78,0,3.22,3.1,3.22,6.92C961.96,909.08,960.52,912.18,958.74,912.18z" class="color84b2fe svgShape"></path></g><g fill="#000000" class="color000000 svgShape"><line x1="1478.09" x2="1779.88" y1="972.53" y2="972.53" fill="#84b2fe"></line><path fill="#84c1fe" d="M1779.88,979.45h-301.78c-1.78,0-3.22-3.1-3.22-6.92s1.44-6.92,3.22-6.92h301.78      c1.78,0,3.22,3.1,3.22,6.92S1781.65,979.45,1779.88,979.45z" class="color84b2fe svgShape"></path></g><g fill="#000000" class="color000000 svgShape"><line x1="1478.09" x2="1779.88" y1="1039.8" y2="1039.8" fill="#84b2fe"></line><path fill="#84c1fe" d="M1779.88,1046.72h-301.78c-1.78,0-3.22-3.1-3.22-6.92c0-3.82,1.44-6.92,3.22-6.92h301.78      c1.78,0,3.22,3.1,3.22,6.92C1783.1,1043.62,1781.65,1046.72,1779.88,1046.72z" class="color84b2fe svgShape"></path></g><g fill="#000000" class="color000000 svgShape"><line x1="1478.09" x2="1779.88" y1="835.42" y2="835.42" fill="#84b2fe"></line><path fill="#84c1fe" d="M1779.88,842.34h-301.78c-1.78,0-3.22-3.1-3.22-6.92c0-3.82,1.44-6.92,3.22-6.92h301.78      c1.78,0,3.22,3.1,3.22,6.92C1783.1,839.24,1781.65,842.34,1779.88,842.34z" class="color84b2fe svgShape"></path></g><g fill="#000000" class="color000000 svgShape"><line x1="1478.09" x2="1779.88" y1="905.26" y2="905.26" fill="#84b2fe"></line><path fill="#84c1fe" d="M1779.88,912.18h-301.78c-1.78,0-3.22-3.1-3.22-6.92c0-3.82,1.44-6.92,3.22-6.92h301.78      c1.78,0,3.22,3.1,3.22,6.92C1783.1,909.08,1781.65,912.18,1779.88,912.18z" class="color84b2fe svgShape"></path></g><g fill="#000000" class="color000000 svgShape"><line x1="1855.38" x2="2157.17" y1="972.53" y2="972.53" fill="#84b2fe"></line><path fill="#84c1fe" d="M2157.17,979.45h-301.78c-1.78,0-3.22-3.1-3.22-6.92s1.44-6.92,3.22-6.92h301.78      c1.78,0,3.22,3.1,3.22,6.92S2158.95,979.45,2157.17,979.45z" class="color84b2fe svgShape"></path></g><g fill="#000000" class="color000000 svgShape"><line x1="1855.38" x2="2157.17" y1="1039.8" y2="1039.8" fill="#84b2fe"></line><path fill="#84c1fe" d="M2157.17,1046.72h-301.78c-1.78,0-3.22-3.1-3.22-6.92c0-3.82,1.44-6.92,3.22-6.92h301.78      c1.78,0,3.22,3.1,3.22,6.92C2160.39,1043.62,2158.95,1046.72,2157.17,1046.72z" class="color84b2fe svgShape"></path></g><g fill="#000000" class="color000000 svgShape"><line x1="1855.38" x2="2157.17" y1="835.42" y2="835.42" fill="#84b2fe"></line><path fill="#84c1fe" d="M2157.17,842.34h-301.78c-1.78,0-3.22-3.1-3.22-6.92c0-3.82,1.44-6.92,3.22-6.92h301.78      c1.78,0,3.22,3.1,3.22,6.92C2160.39,839.24,2158.95,842.34,2157.17,842.34z" class="color84b2fe svgShape"></path></g><g fill="#000000" class="color000000 svgShape"><line x1="1855.38" x2="2157.17" y1="905.26" y2="905.26" fill="#84b2fe"></line><path fill="#84c1fe" d="M2157.17,912.18h-301.78c-1.78,0-3.22-3.1-3.22-6.92c0-3.82,1.44-6.92,3.22-6.92h301.78      c1.78,0,3.22,3.1,3.22,6.92C2160.39,909.08,2158.95,912.18,2157.17,912.18z" class="color84b2fe svgShape"></path></g><g fill="#000000" class="color000000 svgShape"><line x1="1855.38" x2="2157.17" y1="1169.84" y2="1169.84" fill="#84b2fe"></line><path fill="#84c1fe" d="M2157.17,1176.76h-301.78c-1.78,0-3.22-3.1-3.22-6.92c0-3.82,1.44-6.92,3.22-6.92h301.78      c1.78,0,3.22,3.1,3.22,6.92C2160.39,1173.66,2158.95,1176.76,2157.17,1176.76z" class="color84b2fe svgShape"></path></g><g fill="#000000" class="color000000 svgShape"><line x1="1855.38" x2="2157.17" y1="1237.11" y2="1237.11" fill="#84b2fe"></line><path fill="#84c1fe" d="M2157.17,1244.03h-301.78c-1.78,0-3.22-3.1-3.22-6.92c0-3.82,1.44-6.92,3.22-6.92h301.78      c1.78,0,3.22,3.1,3.22,6.92C2160.39,1240.93,2158.95,1244.03,2157.17,1244.03z" class="color84b2fe svgShape"></path></g><g fill="#000000" class="color000000 svgShape"><line x1="1855.38" x2="2157.17" y1="1408.89" y2="1408.89" fill="#84b2fe"></line><path fill="#84c1fe" d="M2157.17,1415.81h-301.78c-1.78,0-3.22-3.1-3.22-6.92c0-3.82,1.44-6.92,3.22-6.92h301.78      c1.78,0,3.22,3.1,3.22,6.92C2160.39,1412.71,2158.95,1415.81,2157.17,1415.81z" class="color84b2fe svgShape"></path></g><g fill="#000000" class="color000000 svgShape"><line x1="1855.38" x2="2157.17" y1="1476.15" y2="1476.15" fill="#84b2fe"></line><path fill="#84c1fe" d="M2157.17,1483.08h-301.78c-1.78,0-3.22-3.1-3.22-6.92c0-3.82,1.44-6.92,3.22-6.92h301.78      c1.78,0,3.22,3.1,3.22,6.92C2160.39,1479.98,2158.95,1483.08,2157.17,1483.08z" class="color84b2fe svgShape"></path></g><g fill="#000000" class="color000000 svgShape"><line x1="1855.38" x2="2157.17" y1="1102.57" y2="1102.57" fill="#84b2fe"></line><path fill="#84c1fe" d="M2157.17,1109.49h-301.78c-1.78,0-3.22-3.1-3.22-6.92c0-3.82,1.44-6.92,3.22-6.92h301.78      c1.78,0,3.22,3.1,3.22,6.92C2160.39,1106.39,2158.95,1109.49,2157.17,1109.49z" class="color84b2fe svgShape"></path></g><g fill="#000000" class="color000000 svgShape"><line x1="1478.09" x2="1779.88" y1="1611.31" y2="1611.31" fill="#84b2fe"></line><path fill="#84c1fe" d="M1779.88,1618.23h-301.78c-1.78,0-3.22-3.1-3.22-6.92c0-3.82,1.44-6.92,3.22-6.92h301.78      c1.78,0,3.22,3.1,3.22,6.92C1783.1,1615.13,1781.65,1618.23,1779.88,1618.23z" class="color84b2fe svgShape"></path></g><g fill="#000000" class="color000000 svgShape"><line x1="1478.09" x2="1779.88" y1="1678.57" y2="1678.57" fill="#84b2fe"></line><path fill="#84c1fe" d="M1779.88,1685.5h-301.78c-1.78,0-3.22-3.1-3.22-6.92c0-3.82,1.44-6.92,3.22-6.92h301.78      c1.78,0,3.22,3.1,3.22,6.92C1783.1,1682.4,1781.65,1685.5,1779.88,1685.5z" class="color84b2fe svgShape"></path></g><g fill="#000000" class="color000000 svgShape"><line x1="1478.09" x2="1779.88" y1="1745.84" y2="1745.84" fill="#84b2fe"></line><path fill="#84c1fe" d="M1779.88,1752.77h-301.78c-1.78,0-3.22-3.1-3.22-6.92c0-3.82,1.44-6.92,3.22-6.92h301.78      c1.78,0,3.22,3.1,3.22,6.92C1783.1,1749.67,1781.65,1752.77,1779.88,1752.77z" class="color84b2fe svgShape"></path></g><g fill="#000000" class="color000000 svgShape"><line x1="1478.09" x2="1779.88" y1="1474.2" y2="1474.2" fill="#84b2fe"></line><path fill="#84c1fe" d="M1779.88,1481.12h-301.78c-1.78,0-3.22-3.1-3.22-6.92s1.44-6.92,3.22-6.92h301.78      c1.78,0,3.22,3.1,3.22,6.92S1781.65,1481.12,1779.88,1481.12z" class="color84b2fe svgShape"></path></g><g fill="#000000" class="color000000 svgShape"><line x1="1478.09" x2="1779.88" y1="1544.04" y2="1544.04" fill="#84b2fe"></line><path fill="#84c1fe" d="M1779.88,1550.96h-301.78c-1.78,0-3.22-3.1-3.22-6.92s1.44-6.92,3.22-6.92h301.78      c1.78,0,3.22,3.1,3.22,6.92S1781.65,1550.96,1779.88,1550.96z" class="color84b2fe svgShape"></path></g><g fill="#000000" class="color000000 svgShape"><line x1="1019.11" x2="1320.89" y1="1109.63" y2="1109.63" fill="#84b2fe"></line><path fill="#84c1fe" d="M1320.89,1116.56h-301.78c-1.78,0-3.22-3.1-3.22-6.92c0-3.82,1.44-6.92,3.22-6.92h301.78      c1.78,0,3.22,3.1,3.22,6.92C1324.11,1113.46,1322.67,1116.56,1320.89,1116.56z" class="color84b2fe svgShape"></path></g><g fill="#000000" class="color000000 svgShape"><line x1="1019.11" x2="1320.89" y1="1176.9" y2="1176.9" fill="#84b2fe"></line><path fill="#84c1fe" d="M1320.89,1183.83h-301.78c-1.78,0-3.22-3.1-3.22-6.92c0-3.82,1.44-6.92,3.22-6.92h301.78      c1.78,0,3.22,3.1,3.22,6.92C1324.11,1180.73,1322.67,1183.83,1320.89,1183.83z" class="color84b2fe svgShape"></path></g><g fill="#000000" class="color000000 svgShape"><line x1="1019.11" x2="1320.89" y1="1245.1" y2="1245.1" fill="#84b2fe"></line><path fill="#84c1fe" d="M1320.89,1252.02h-301.78c-1.78,0-3.22-3.1-3.22-6.92c0-3.82,1.44-6.92,3.22-6.92h301.78      c1.78,0,3.22,3.1,3.22,6.92C1324.11,1248.92,1322.67,1252.02,1320.89,1252.02z" class="color84b2fe svgShape"></path></g><g fill="#000000" class="color000000 svgShape"><line x1="1017.59" x2="1319.38" y1="1381.25" y2="1381.25" fill="#84b2fe"></line><path fill="#84c1fe" d="M1319.38,1388.17h-301.78c-1.78,0-3.22-3.1-3.22-6.92s1.44-6.92,3.22-6.92h301.78      c1.78,0,3.22,3.1,3.22,6.92S1321.16,1388.17,1319.38,1388.17z" class="color84b2fe svgShape"></path></g><g fill="#000000" class="color000000 svgShape"><line x1="1017.59" x2="1319.38" y1="1449.44" y2="1449.44" fill="#84b2fe"></line><path fill="#84c1fe" d="M1319.38,1456.37h-301.78c-1.78,0-3.22-3.1-3.22-6.92s1.44-6.92,3.22-6.92h301.78      c1.78,0,3.22,3.1,3.22,6.92S1321.16,1456.37,1319.38,1456.37z" class="color84b2fe svgShape"></path></g><g fill="#000000" class="color000000 svgShape"><line x1="1019.11" x2="1320.89" y1="972.53" y2="972.53" fill="#84b2fe"></line><path fill="#84c1fe" d="M1320.89,979.45h-301.78c-1.78,0-3.22-3.1-3.22-6.92s1.44-6.92,3.22-6.92h301.78      c1.78,0,3.22,3.1,3.22,6.92S1322.67,979.45,1320.89,979.45z" class="color84b2fe svgShape"></path></g><g fill="#000000" class="color000000 svgShape"><line x1="1019.11" x2="1320.89" y1="1039.8" y2="1039.8" fill="#84b2fe"></line><path fill="#84c1fe" d="M1320.89,1046.72h-301.78c-1.78,0-3.22-3.1-3.22-6.92c0-3.82,1.44-6.92,3.22-6.92h301.78      c1.78,0,3.22,3.1,3.22,6.92C1324.11,1043.62,1322.67,1046.72,1320.89,1046.72z" class="color84b2fe svgShape"></path></g><g fill="#000000" class="color000000 svgShape"><line x1="1019.11" x2="1320.89" y1="835.42" y2="835.42" fill="#84b2fe"></line><path fill="#84c1fe" d="M1320.89,842.34h-301.78c-1.78,0-3.22-3.1-3.22-6.92c0-3.82,1.44-6.92,3.22-6.92h301.78      c1.78,0,3.22,3.1,3.22,6.92C1324.11,839.24,1322.67,842.34,1320.89,842.34z" class="color84b2fe svgShape"></path></g><g fill="#000000" class="color000000 svgShape"><line x1="1019.11" x2="1320.89" y1="905.26" y2="905.26" fill="#84b2fe"></line><path fill="#84c1fe" d="M1320.89,912.18h-301.78c-1.78,0-3.22-3.1-3.22-6.92c0-3.82,1.44-6.92,3.22-6.92h301.78      c1.78,0,3.22,3.1,3.22,6.92C1324.11,909.08,1322.67,912.18,1320.89,912.18z" class="color84b2fe svgShape"></path></g><g fill="#000000" class="color000000 svgShape"><path fill="#84c1fe" d="M1401.51 600.95c0 395.76 0 791.51 0 1187.27M1401.51 1792.78c-2.08 0-3.77-2.04-3.77-4.56V600.95c0-2.52 1.69-4.56 3.77-4.56 2.08 0 3.77 2.04 3.77 4.56v1187.27C1405.28 1790.74 1403.59 1792.78 1401.51 1792.78z" class="color84b2fe svgShape"></path></g><g fill="#000000" class="color000000 svgShape"><path fill="#84c1fe" d="M985.75 786.42c0 334.17 0 668.34 0 1002.51M985.75 1792.78c-2.08 0-3.77-1.73-3.77-3.85V786.42c0-2.13 1.69-3.85 3.77-3.85 2.08 0 3.77 1.73 3.77 3.85v1002.51C989.52 1791.05 987.83 1792.78 985.75 1792.78z" class="color84b2fe svgShape"></path></g><g fill="#000000" class="color000000 svgShape"><path fill="#84c1fe" d="M1815.76 783.39c0 334.17 0 668.34 0 1002.51M1815.76 1789.75c-2.08 0-3.77-1.73-3.77-3.85V783.39c0-2.13 1.69-3.85 3.77-3.85s3.77 1.73 3.77 3.85V1785.9C1819.53 1788.03 1817.84 1789.75 1815.76 1789.75z" class="color84b2fe svgShape"></path></g><rect width="297.45" height="191.09" x="656.95" y="1294.71" fill="#84c1fe" class="color84b2fe svgShape"></rect><rect width="297.45" height="119.01" x="1021.49" y="665.88" fill="#84c1fe" class="color84b2fe svgShape"></rect><rect width="677.71" height="119.01" x="1480.26" y="665.88" fill="#84c1fe" class="color84b2fe svgShape"></rect><rect width="297.45" height="302.89" x="1015.88" y="1485.79" fill="#b5d6f7" class="colorb5d0f7 svgShape"></rect><rect width="297.45" height="302.89" x="1480.26" y="1109.63" fill="#84c1fe" class="color84b2fe svgShape"></rect><rect width="297.45" height="210.68" x="1856.98" y="1536.5" fill="#84c1fe" class="color84b2fe svgShape"></rect><rect width="297.45" height="69.22" x="1856.98" y="1284.69" fill="#a6cdf4" class="colora6c6f4 svgShape"></rect><rect width="297.45" height="50.19" x="1015.88" y="1294.71" fill="#aed1f4" class="coloraecbf4 svgShape"></rect><g fill="#000000" class="color000000 svgShape"><path fill="#2c95fe" d="M660.44 755.3v-64c0-.88.71-1.6 1.6-1.6h10.51c.48 0 .93.21 1.23.58l37.03 45.19c.85 1.04.11 2.61-1.23 2.61h-1.27c-.88 0-1.6-.71-1.6-1.59V691.3c0-.88.71-1.6 1.6-1.6h12.17c.88 0 1.6.71 1.6 1.6v64c0 .88-.71 1.6-1.6 1.6h-10.51c-.48 0-.93-.21-1.23-.58l-37.03-45.19c-.85-1.04-.11-2.61 1.23-2.61h1.27c.88 0 1.6.71 1.6 1.6v45.19c0 .88-.71 1.6-1.6 1.6h-12.17C661.15 756.89 660.44 756.18 660.44 755.3zM755.05 744.41h33.38c.88 0 1.6.71 1.6 1.6v9.29c0 .88-.71 1.6-1.6 1.6h-48.84c-.88 0-1.6-.71-1.6-1.6v-64c0-.88.71-1.6 1.6-1.6h47.59c.88 0 1.6.71 1.6 1.6v9.29c0 .88-.71 1.6-1.6 1.6h-32.13c-.88 0-1.59.71-1.59 1.6v39.04C753.45 743.7 754.16 744.41 755.05 744.41zM753.89 716.67h29.16c.88 0 1.59.71 1.59 1.6v9c0 .88-.71 1.6-1.59 1.6h-29.16c-.88 0-1.6-.71-1.6-1.6v-9C752.3 717.39 753.01 716.67 753.89 716.67zM817.31 755.79l-21.03-64c-.34-1.03.43-2.09 1.52-2.09h12.76c.69 0 1.31.45 1.52 1.11l18.08 56.32c.33 1.03-.44 2.08-1.52 2.08h-3.66c-1.09 0-1.86-1.07-1.51-2.1l18.9-56.32c.22-.65.83-1.09 1.51-1.09h12.09c.69 0 1.31.45 1.52 1.11l18.17 56.32c.33 1.03-.44 2.08-1.52 2.08h-3.38c-1.09 0-1.85-1.06-1.52-2.09l18.53-56.32c.22-.65.83-1.1 1.52-1.1h11.52c1.09 0 1.85 1.06 1.52 2.09l-21.03 64c-.22.65-.83 1.1-1.52 1.1h-14.2c-.69 0-1.3-.44-1.52-1.1l-16.04-49.03c-.34-1.03.43-2.09 1.52-2.09l0 0c1.09 0 1.86 1.07 1.51 2.1l-16.4 49.03c-.22.65-.83 1.09-1.51 1.09h-14.3C818.13 756.89 817.52 756.45 817.31 755.79zM933.81 758.04c-5.38 0-10.54-.72-15.5-2.16-4.38-1.27-8-2.88-10.86-4.83-.64-.44-.88-1.27-.56-1.98l3.96-8.79c.4-.89 1.49-1.21 2.32-.68 2.49 1.58 5.36 2.91 8.63 3.99 3.97 1.31 7.97 1.97 12 1.97 3.07 0 5.55-.32 7.44-.96 1.89-.64 3.28-1.49 4.18-2.54.89-1.06 1.34-2.29 1.34-3.7 0-1.79-.7-3.22-2.11-4.27-1.41-1.06-3.28-1.92-5.62-2.59-2.34-.67-4.88-1.31-7.63-1.92-2.75-.61-5.52-1.34-8.3-2.21-2.78-.86-5.34-2.02-7.68-3.46-2.34-1.44-4.19-3.33-5.57-5.66-1.38-2.34-2.06-5.26-2.06-8.78 0-3.84 1.02-7.34 3.07-10.51 2.05-3.17 5.17-5.69 9.36-7.58 4.19-1.89 9.45-2.83 15.79-2.83 4.22 0 8.4.51 12.53 1.54 3.59.89 6.78 2.12 9.57 3.68.71.4 1.01 1.26.7 2.01l-3.68 8.8c-.36.86-1.37 1.23-2.2.8-2.53-1.32-5.13-2.34-7.79-3.06-3.2-.86-6.27-1.3-9.21-1.3-3.07 0-5.54.34-7.39 1.01-1.86.67-3.22 1.58-4.08 2.74-.86 1.15-1.3 2.43-1.3 3.84 0 1.79.7 3.23 2.11 4.32 1.41 1.09 3.26 1.94 5.57 2.54 2.3.61 4.86 1.22 7.68 1.82 2.82.61 5.6 1.36 8.35 2.26 2.75.9 5.28 2.03 7.58 3.41 2.3 1.38 4.18 3.23 5.62 5.57 1.44 2.34 2.16 5.23 2.16 8.69 0 3.78-1.04 7.23-3.12 10.37-2.08 3.14-5.23 5.66-9.46 7.58C945.43 757.08 940.15 758.04 933.81 758.04z" class="color2c7efe svgShape"></path></g></g><g fill="#000000" class="color000000 svgShape"><g fill="#000000" class="color000000 svgShape"><path fill="#62a7ec" d="M1303.79,1804.07l0.7-28.68c-31.23-0.77-59.83-9.12-82.71-24.17c-21.3-14-35.84-33.07-40.93-53.7      c-4.3-17.39-5.68-55.42,19.86-74.93c25.39-19.39,67.04-14.09,96.87,12.33l19.02-21.48c-9.98-8.84-21.04-15.98-32.86-21.22      c-11.43-5.07-23.29-8.25-35.25-9.45c-24.46-2.46-47.61,3.58-65.19,17.01c-16.08,12.28-26.94,30.46-31.4,52.58      c-3.36,16.66-2.96,35.62,1.1,52.03c3.48,14.09,9.96,27.44,19.26,39.68c8.97,11.81,20.33,22.28,33.76,31.11      c13.36,8.78,28.44,15.72,44.8,20.62C1267.61,1800.84,1285.43,1803.62,1303.79,1804.07z" class="color62cbec svgShape"></path></g><path fill="#62a7ec" d="M1245.82,1558.37c15.42,98.37,30.85,196.74,46.27,295.11c1.71,10.91,9.97,19.64,20.77,21.92     c26.31,5.55,58.81,9.99,96.04,9.9c35.8-0.09,67.16-4.36,92.78-9.71c9.75-2.04,17.41-9.3,20.12-18.64     c0.41-1.42,0.71-2.89,0.88-4.4c11.25-98.65,22.5-197.3,33.75-295.95c1.11-9.71-6.92-18.01-16.67-17.24     c-41.66,3.3-86.14,5.43-133.17,5.79c-51.26,0.4-99.57-1.33-144.55-4.46c-1.24-0.09-2.45-0.02-3.61,0.17     C1250.37,1542.2,1244.49,1549.86,1245.82,1558.37z" class="color62cbec svgShape"></path><path fill="#8bbef2" d="M1258.44,1540.86c0.03,0.52,0.08,1.05,0.17,1.58c15.42,98.37,30.84,196.74,46.27,295.11     c1.71,10.91,9.97,19.64,20.77,21.92c26.31,5.55,58.81,10,96.04,9.9c35.8-0.09,67.16-4.36,92.78-9.71     c2.61-0.55,5.08-1.47,7.34-2.71c0.41-1.42,0.71-2.89,0.88-4.4c11.25-98.65,22.5-197.3,33.75-295.95     c1.11-9.71-6.92-18.01-16.67-17.24c-41.66,3.3-86.14,5.43-133.17,5.79c-51.26,0.4-99.57-1.33-144.55-4.46     C1260.81,1540.6,1259.6,1540.66,1258.44,1540.86z" class="color8bdef2 svgShape"></path><path fill="#0077ef" d="M1247.33,1547.51c0,2.44,2.88,4.79,8.19,6.99c20.69,8.54,78.31,14.69,146.14,14.69     c67.83,0,125.45-6.15,146.14-14.69c5.31-2.19,8.19-4.54,8.19-6.99c0-11.97-69.09-21.67-154.33-21.67     C1316.43,1525.83,1247.33,1535.54,1247.33,1547.51z" class="color00aeef svgShape"></path><path fill="#add6ff" d="M1255.52,1554.49c20.69,8.54,78.31,14.69,146.14,14.69c67.83,0,125.45-6.15,146.14-14.69     c-20.69-8.55-78.31-14.69-146.14-14.69C1333.83,1539.8,1276.22,1545.95,1255.52,1554.49z" class="colorffcdad svgShape"></path><ellipse cx="1403.19" cy="1556.17" fill="#e7f2fe" rx="57.54" ry="5.31" class="colorfee7ed svgShape"></ellipse><g fill="#000000" class="color000000 svgShape"><path fill="#84c1fe" d="M1404.06,1554.46c-4.97-1.14,7.55-32.11-8.78-59.51c-10.5-17.62-22-15.41-34.14-31.22      c-19.51-25.4-21.44-72.23-0.98-91.7c27.68-26.34,85.35,7.8,97.55-11.71c11.99-19.16-41.04-56.26-29.27-87.8      c9.12-24.42,54.4-38.28,82.92-24.39c39.93,19.45,39.9,89.86,21.46,132.67c-2.61,6.06-23.38,54.27-60.48,59.51      c-22.46,3.17-37.51-11.3-46.82-2.93c-9.78,8.79,3.83,27.39,0.98,61.46C1423.84,1530.55,1408.62,1555.51,1404.06,1554.46z" class="color84b2fe svgShape"></path><path fill="#dfefff" d="M1404.06,1542.85c-4.97-1.14,7.55-32.11-8.78-59.51c-10.5-17.62-22-15.41-34.14-31.22      c-19.51-25.4-21.44-72.23-0.98-91.7c27.68-26.34,85.35,7.8,97.55-11.71c11.99-19.16-41.04-56.26-29.27-87.8      c9.12-24.42,54.4-38.28,82.92-24.39c39.93,19.45,39.9,89.86,21.46,132.67c-2.61,6.06-23.38,54.27-60.48,59.51      c-22.46,3.17-37.51-11.3-46.82-2.93c-9.78,8.79,3.83,27.39,0.98,61.46C1423.84,1518.94,1408.62,1543.9,1404.06,1542.85z" class="colordfe6ff svgShape"></path></g></g><g fill="#000000" class="color000000 svgShape"><g fill="#000000" class="color000000 svgShape"><path fill="#0627a3" d="M2064.7 954.94c41.46 302.42 82.92 604.84 124.38 907.27M2189.07 1870.69c-3.82 0-7.17-3.03-7.75-7.24l-124.38-907.27c-.64-4.63 2.32-8.95 6.61-9.64 4.28-.68 8.27 2.51 8.91 7.15l124.38 907.26c.64 4.63-2.32 8.95-6.61 9.64C2189.84 1870.66 2189.45 1870.69 2189.07 1870.69z" class="color0643a3 svgShape"></path></g><g fill="#000000" class="color000000 svgShape"><path fill="#0627a3" d="M2238.92 954.94c41.46 302.42 82.92 604.84 124.38 907.27M2363.29 1870.69c-3.82 0-7.17-3.03-7.75-7.24l-124.38-907.27c-.64-4.63 2.32-8.95 6.61-9.64 4.28-.68 8.27 2.51 8.91 7.15l124.38 907.26c.64 4.63-2.32 8.95-6.61 9.64C2364.06 1870.66 2363.67 1870.69 2363.29 1870.69z" class="color0643a3 svgShape"></path></g><g fill="#000000" class="color000000 svgShape"><path fill="#0627a3" d="M2073.44,1042.72c59.11,0,118.22,0,177.33,0" class="color0643a3 svgShape"></path><rect width="177.33" height="16.97" x="2073.44" y="1034.24" fill="#0627a3" class="color0643a3 svgShape"></rect></g><g fill="#000000" class="color000000 svgShape"><path fill="#0627a3" d="M2092.57,1182.69c59.11,0,118.22,0,177.33,0" class="color0643a3 svgShape"></path><rect width="177.33" height="16.97" x="2092.57" y="1174.21" fill="#0627a3" class="color0643a3 svgShape"></rect></g><g fill="#000000" class="color000000 svgShape"><path fill="#0627a3" d="M2111.75,1323.4c59.11,0,118.22,0,177.33,0" class="color0643a3 svgShape"></path><rect width="177.33" height="16.97" x="2111.74" y="1314.92" fill="#0627a3" class="color0643a3 svgShape"></rect></g><g fill="#000000" class="color000000 svgShape"><path fill="#0627a3" d="M2133.35,1463.74c59.11,0,118.22,0,177.33,0" class="color0643a3 svgShape"></path><rect width="177.33" height="16.97" x="2133.35" y="1455.26" fill="#0627a3" class="color0643a3 svgShape"></rect></g><g fill="#000000" class="color000000 svgShape"><path fill="#0627a3" d="M2151.61,1603.71c59.11,0,118.22,0,177.33,0" class="color0643a3 svgShape"></path><rect width="177.33" height="16.97" x="2151.61" y="1595.22" fill="#0627a3" class="color0643a3 svgShape"></rect></g><g fill="#000000" class="color000000 svgShape"><path fill="#0627a3" d="M2170.78,1744.42c59.11,0,118.22,0,177.33,0" class="color0643a3 svgShape"></path><rect width="177.33" height="16.97" x="2170.78" y="1735.94" fill="#0627a3" class="color0643a3 svgShape"></rect></g></g><g fill="#000000" class="color000000 svgShape"><path fill="#add6ff" d="M603.54,1618.47c3.2,5.08,5.19,4.18,8.69,9.37c1.83,2.7,6.19,9.09,4.45,16.06     c-1.88,7.51-10,13.57-14.1,11.99c-0.95-0.37-1.51-1.08-1.64-1.25c-2.17-2.87,1.58-6.68,1.05-12.18     c-0.44-4.48-3.56-8.42-5.19-8.15c-1.66,0.28-0.99,4.87-4.57,7.21c-0.89,0.58-3,1.66-3.94,0.92c-2.05-1.62,5.21-8.92,4.19-17.86     c-0.94-8.2-8.34-10.84-6.79-15.3c1.32-3.79,8.1-6.18,11.85-4.15C601.1,1607.07,599.18,1611.55,603.54,1618.47z" class="colorffcdad svgShape"></path><path fill="#81b9f1" d="M572.97,1547.01c-0.38,16.42,1.16,29.33,4.09,41.16c2.93,11.81,6.88,21.53,10.17,28.59     c1.36,0.79,3.69,1.9,6.76,2.24c4.7,0.52,8.33-1.07,9.83-1.83c-4.77-12.23-12.79-37.58-9.22-69.92     c3.55-32.19,16.79-55.11,24.08-66.02c0.59-1.35,1.87-4.78,1.09-9.07c-0.11-0.58-1.29-6.56-6.45-9.96c0,0-5.63-3.71-13.76-1.67     C579.91,1465.45,573.61,1519.55,572.97,1547.01z" class="color8183f1 svgShape"></path><path fill="#add6ff" d="M567.24,1785.74c-3.85,7.82-7.35,9.76-9.4,16.09c-2.74,8.49-0.27,16.9,1.04,21.36     c7.3,24.88,37.95,32.75,39.8,33.19c-22.27-29.64-23.7-46.53-20.58-56.58c2.94-9.47,11.14-16.75,8.74-23.72     c-1.89-5.49-9.14-7.29-14.44-7.99C571.86,1772.41,570.6,1778.92,567.24,1785.74z" class="colorffcdad svgShape"></path><path fill="#0627a3" d="M564.04 1791.62c3.91 1.4 1.66 12.94 5.1 24.85 2.42 8.34 8.37 19.42 24.55 29.6 5.83 2.41 19.16 8.36 18.61 13.54-.39 3.7-7.72 5.77-12.43 6.11-12.32.89-21.9-8.95-25.77-12.93-3.14-3.23-7.96-8.99-11.92-18.03-1.88 4.28-3.76 8.56-5.64 12.84-.18.14-1.51 1.2-3.05.64-1.48-.54-2.53-2.34-2.47-4.42.5-2.1.94-4.49 1.21-7.15.62-5.97.19-11.14-.43-15.04-.57-2.99-1.74-11.13 1.92-19.29C555.87 1797.55 560.73 1790.43 564.04 1791.62zM564.95 1578.65c36.11 34.29 45.78 82.16 45.78 82.16 12.53 61.97-15.86 112.02-21.3 121.23-1.68 1.52-4.66 3.75-8.8 4.59-9.04 1.83-16-4.56-17.18-5.69 10.92-25.79 22.89-64.97 11.11-102.37-17.49-55.52-77.61-75.89-71.33-98.8 3.18-11.62 21.32-17.2 34.01-16.08C546.94 1564.55 555.3 1569.49 564.95 1578.65z" class="color0643a3 svgShape"></path><path fill="#add6ff" d="M504.55,1786.52c-5.04,6.84-8.79,7.99-11.81,13.77c-4.05,7.74-2.96,16.53-2.39,21.18     c3.22,25.99,32.12,40.32,33.87,41.16c-17.19-33.89-15.9-50.78-11.23-59.96c4.4-8.66,13.63-14.03,12.39-21.39     c-0.98-5.79-7.83-9.13-12.93-10.95C511.22,1774.45,508.94,1780.55,504.55,1786.52z" class="colorffcdad svgShape"></path><path fill="#0575e6" d="M500.47 1791.61c3.62 2.22-.43 13.06 1.06 25.48 1.05 8.71 5.14 20.87 19.44 34.35 5.35 3.62 17.52 12.34 16.16 17.3-.97 3.55-8.52 4-13.21 3.31-12.26-1.79-20.12-13.51-23.29-18.24-2.58-3.85-6.4-10.54-8.86-20.27-2.53 3.8-5.07 7.59-7.6 11.39-.2.1-1.68.85-3.11-.03-1.37-.85-2.12-2.85-1.72-4.87.83-1.96 1.64-4.21 2.33-6.75 1.56-5.72 1.97-10.89 1.98-14.85-.08-3.06.06-11.29 4.96-18.52C491.49 1795.66 497.4 1789.73 500.47 1791.61zM545.77 1584.2c27.66 43.08 26.75 92.17 26.75 92.17-1.17 63.55-39.48 104.43-46.73 111.89-1.95 1.02-5.33 2.38-9.52 2.06-9.16-.68-14.54-8.77-15.44-10.18 34.83-47.34 37.81-77.23 32.79-96.35-9.13-34.77-48.54-48.41-52.38-91.86-1-11.3.95-18.52 4.42-23.4 8.19-11.5 25.38-10.54 36.45-6.38C531.33 1565.63 538.38 1572.69 545.77 1584.2z" class="color125dc9 svgShape"></path><path fill="#66b2ff" d="M622.2,1485.21c-4.04,19.2-25.86,20.54-41.78,42.74c-12.72,17.74-14.25,38.57-13.5,53.59     c-4.87,3.14-19.38,11.61-39.26,10.29c-24.78-1.64-39.97-17.29-43.29-20.89c1.69-13.69,12.75-94.38,68.15-119.57     c9.67-4.4,34.58-15.72,53.16-3.35C616.96,1455.54,625.13,1471.31,622.2,1485.21z" class="color6666ff svgShape"></path><path fill="#95c7f9" d="M620.99,1440.67c-1.23,7.8-4.68,13.53-7.05,16.8c-2.56,4.36-7.87,6.23-12.42,4.51     c-4.86-1.84-7.62-7.32-6.1-12.52c1.45-5.84,3.46-12.43,6.3-19.48c3.29-8.19,6.96-15.19,10.43-20.98     C614.13,1411.52,623.6,1424.1,620.99,1440.67z" class="colorf9b995 svgShape"></path><path fill="#add6ff" d="M642.36,1411.63c2.06,3.87,1.78,7.62,1.47,11.67c-0.26,3.47-1.71,22.77-14.54,26.59     c-8.89,2.65-19-3.39-23.77-10.83c-7.14-11.12-4.84-29.24,7.3-35.58C623.13,1398.11,637.62,1402.72,642.36,1411.63z" class="colorffcdad svgShape"></path><path fill="#ffffff" d="M629.85,1444.74c-2.27-0.22-5.91-0.91-9.74-3.25c-2.76-1.68-4.73-3.67-6.02-5.23     c0.04,0.87,0.33,5.32,3.62,8.17C620.94,1447.22,625.74,1447.35,629.85,1444.74z" class="colorffffff svgShape"></path><path fill="#66b2ff" d="M592.73,1441.94" class="color6666ff svgShape"></path><path fill="#add6ff" d="M722.79,1469.3c1.02-1.84,3.2-3.15,7.55-5.75c1.6-0.96,3.38-1.99,5.95-2.9c2.54-0.9,4.79-1.29,6.45-1.48     c3.08-0.13,5.74-0.26,7.82-0.36c0,0,20.14-0.99,21.39,1.6c0.02,0.03,0.03,0.07,0.03,0.07c0.05,0.11,0.11,0.32,0.09,0.58     c-0.33,3.43-15.95,0.65-21.02,8.02c-2.81,4.09,0.2,7.52-2.82,10.04c-3.49,2.91-7.92-1.33-17,1.04c-3.45,0.9-4.67,1.99-6.34,1.18     C721.77,1479.83,720.52,1473.41,722.79,1469.3z" class="colorffcdad svgShape"></path><path fill="#81b9f1" d="M649.37,1504.6c19.76-0.75,35.16-3.55,49.16-7.94c13.98-4.39,25.37-9.84,33.61-14.33     c0.85-1.69,2.02-4.57,2.2-8.29c0.28-5.69-1.89-9.93-2.92-11.68c-14.35,6.63-44.23,18.13-83.35,16.22     c-38.95-1.9-67.47-16.13-81.11-24.09c-1.66-0.61-5.88-1.9-10.98-0.64c-0.69,0.17-7.79,2.03-11.5,8.49c0,0-4.04,7.04-1,16.66     C550.83,1502.25,616.31,1505.85,649.37,1504.6z" class="color8183f1 svgShape"></path><path fill="#031452" d="M647.27,1420.94c6.13-1,11.7-13.31,9.74-23.36c-3.61-18.49-35.17-32.52-57.74-25.59     c-19.32,5.94-15.86,22.24-36.88,38.81c-34.79,27.43-71.74,4.42-94.9,30.23c-12.79,14.25-17.66,39.23-8.15,50.94     c22.14,27.27,126.25-12.59,136.31-46.63c0.63-2.14,3.56-13.3,12.61-23.92c4.27-5.02,10.96-12.97,19.09-12.49     C637.34,1409.52,640.67,1422.01,647.27,1420.94z" class="color060352 svgShape"></path></g><g fill="#000000" class="color000000 svgShape"><path fill="#021b79" d="M1761.87 700.6c-10.4 10.88-23.34 9.27-24.69 16.56-.62 3.33 1.5 6.81 3.52 8.66 12.39 11.33 56.49-6.7 56.91-22.88.25-9.89-15.76-21.01-24.51-17.97C1767.61 686.86 1769.3 692.83 1761.87 700.6zM1928.22 702.9c11.37 11.48 25.29 10 26.85 17.6.71 3.47-1.52 7.07-3.66 8.95-13.17 11.6-60.97-7.83-61.66-24.67-.42-10.29 16.66-21.62 26.14-18.33C1921.82 688.52 1920.09 694.7 1928.22 702.9z" class="color153663 svgShape"></path><g fill="#000000" class="color000000 svgShape"><path fill="#0627a3" d="M1843.26,448.27c-11.15,7.19-22.3,14.39-33.45,21.58c-0.51,0.33-1.01,0.69-1.48,1.09l-42.11,34.91      c-0.31,0.25-0.62,0.49-0.94,0.72c-4.61,3.25-13.74,10.74-20.05,24.35c-6,12.95-6.41,26.86-5.77,38.27      c2.63,47.47,18.74,116.58,21.3,127.42c3.99,0.64,10.1,1.14,17.36-0.14c7.2-1.28,12.74-3.82,16.26-5.77      c-1.55-18.76-4.5-33.88-5.78-44.62c-7.31-61.18-6.03-71.56-0.35-80.17c6.45-9.77,17.14-14.17,38.75-22.23      c19.58-7.31,28.34-5.24,35.92-12.75c8.26-8.18,14.02-26.66,3.03-72.07C1863.28,447.82,1852.08,442.58,1843.26,448.27z" class="color0643a3 svgShape"></path><path fill="#0627a3" d="M1846.28,448.27c11.15,7.19,22.3,14.39,33.45,21.58c0.51,0.33,1.01,0.69,1.48,1.09l42.11,34.91      c0.31,0.25,0.62,0.49,0.94,0.72c4.61,3.25,13.74,10.74,20.05,24.35c6,12.95,6.41,26.86,5.77,38.27      c-2.63,47.47-18.74,116.58-21.3,127.42c-3.42,0.92-9.86,2.15-17.73,0.71c-7.58-1.39-13.01-4.62-15.89-6.63      c1.55-18.76,4.5-33.88,5.78-44.62c7.31-61.18,6.03-71.56,0.35-80.17c-6.45-9.77-17.14-14.17-38.75-22.23      c-19.58-7.31-28.34-5.24-35.92-12.75c-8.26-8.18-14.02-26.66-3.03-72.07C1826.26,447.82,1837.46,442.58,1846.28,448.27z" class="color0643a3 svgShape"></path></g><path fill="#2c95fe" d="M1894.86,405.31c-1.07-17.54-3.97-32.19-6.72-42.98c-1.7-4.14-5.34-11.36-12.55-16.67     c-2.55-1.88-5.15-3.23-7.74-4.19c-8.24-3.04-16.4-2.08-22.47-1.37c-0.21,0.02-0.42,0.05-0.62,0.08     c-0.21-0.03-0.42-0.05-0.62-0.08c-6.02-0.71-14.1-1.66-22.27,1.3c-0.07,0.02-0.13,0.05-0.2,0.07h0     c-2.59,0.96-5.19,2.31-7.74,4.19c-7.2,5.31-10.84,12.53-12.55,16.67c-2.43,9.56-4.99,22.16-6.28,37.11     c-0.17,1.92-0.31,3.87-0.43,5.87c-0.3,4.98-0.46,10.19-0.42,15.62v0c0.03,3.94,0.15,7.99,0.4,12.15     c0.07,1.16,0.15,2.33,0.23,3.51c0.8,10.65,2.27,20.47,4.11,29.36c0.08,0.39,0.16,0.77,0.24,1.15     c2.65,12.53,6.01,23.17,9.13,31.63c5.73,3.42,17.39,9.28,32.99,9.6c1.16,0.02,2.29,0.02,3.41-0.02c1.12,0.04,2.26,0.04,3.41,0.02     c15.61-0.32,27.26-6.17,32.99-9.6c3.22-8.72,6.68-19.75,9.37-32.78c1.84-8.89,3.31-18.71,4.11-29.36     c0.4-5.39,0.6-10.62,0.64-15.66C1895.32,415.51,1895.17,410.29,1894.86,405.31z" class="color2c7efe svgShape"></path><g fill="#000000" class="color000000 svgShape"><path fill="#2c95fe" d="M1830.47 460.49c-.04 1.48-.34 4.91-2.67 8.3-3.31 4.83-8.33 6.08-9.54 6.34-6.84-2.03-13.2-4.76-19.01-8.03-1.65-.93-3.26-1.91-4.83-2.93-25.31-16.48-38.64-43.75-34.34-67.77 5.55-31 40.04-53.96 61.81-55-.07.02-.13.05-.2.07h0c-2.59.96-5.19 2.31-7.74 4.19-7.2 5.31-10.84 12.53-12.55 16.67-2.43 9.56-4.99 22.16-6.28 37.11-4.99 3.61-6.55 7.18-7.09 8.69-2.45 6.81-.1 15.79 6.63 24.95C1801.84 442.81 1813.94 452.75 1830.47 460.49zM1859.07 460.49c.04 1.48.34 4.91 2.66 8.3 3.31 4.83 8.33 6.08 9.54 6.34 6.84-2.03 13.2-4.76 19.01-8.03 1.65-.93 3.26-1.91 4.83-2.93 25.31-16.48 38.64-43.75 34.34-67.77-5.55-31-40.04-53.96-61.81-55 .07.02.13.05.2.07h0c2.59.96 5.19 2.31 7.74 4.19 7.2 5.31 10.84 12.53 12.55 16.67 2.43 9.56 4.99 22.16 6.28 37.11 4.99 3.61 6.55 7.18 7.09 8.69 2.45 6.81.1 15.79-6.63 24.95C1887.71 442.81 1875.6 452.75 1859.07 460.49z" class="color2c7efe svgShape"></path></g><path fill="#ffffff" d="M1815,684.45" class="colorffffff svgShape"></path><g fill="#000000" class="color000000 svgShape"><g fill="#000000" class="color000000 svgShape"><path fill="#ffffff" d="M1862.37,512.47h-60.08c-3.45,0-6.45-2.39-7.21-5.76c-4.42-19.63-8.84-39.26-13.25-58.89       c-1.04-4.63,2.49-9.03,7.23-9.01c24.44,0.09,48.89,0.17,73.33,0.26c4.07,0.01,7.36,3.32,7.36,7.39v58.63       C1869.75,509.17,1866.44,512.47,1862.37,512.47z" class="colorffffff svgShape"></path><path fill="#ffffff" d="M1828.33,512.47h60.08c3.45,0,6.45-2.39,7.21-5.76c4.42-19.63,8.84-39.26,13.25-58.89       c1.04-4.63-2.49-9.03-7.23-9.01c-24.44,0.09-48.89,0.17-73.33,0.26c-4.07,0.01-7.36,3.32-7.36,7.39v58.63       C1820.94,509.17,1824.25,512.47,1828.33,512.47z" class="colorffffff svgShape"></path></g><path fill="#84c1fe" d="M1853.01,472.26c-4.89,0-8.85-3.96-8.85-8.85c0-0.4,0.03-0.79,0.08-1.17      c-6.78,0.39-12.16,6.02-12.16,12.89c0,7.13,5.78,12.92,12.92,12.92c7.13,0,12.92-5.78,12.92-12.92c0-1.39-0.22-2.72-0.62-3.97      C1856.03,471.86,1854.57,472.26,1853.01,472.26z" class="color84b2fe svgShape"></path></g><g fill="#000000" class="color000000 svgShape"><path fill="#add6ff" d="M1832.02,334.29c-0.16,5.22-0.31,10.44-0.46,15.66c3.4,3.94,9.29,6.02,15.11,5.34      c8.15-0.95,11.63-6.78,11.86-7.18c-0.85-5.16-1.7-10.32-2.56-15.47C1847.98,333.18,1840,333.73,1832.02,334.29z" class="colorffcdad svgShape"></path><path fill="#c5dff9" d="M1821.58,295.78c-5.13,6.95-3.07,16.37-2.26,20.12c2.6,11.98,12.38,25.81,23.18,25.92      c16.02,0.15,33.25-29.88,23.71-44.64C1857.94,284.38,1830.62,283.53,1821.58,295.78z" class="colorf9d8c5 svgShape"></path><path fill="#ffffff" d="M1842.14,332.35c-3.94,0-7.54-1.1-10.32-2.92c1.86,4.41,6.19,7.5,11.23,7.5c5.79,0,10.63-4.07,11.88-9.52      C1852.02,330.4,1847.37,332.35,1842.14,332.35z" class="colorffffff svgShape"></path><path fill="#031452" d="M1821.19,321.97c-3.61,1.82-11.21-6.19-12.35-7.4c-4.58-4.83-6.28-9.78-6.65-10.91      c-1-3.07-3.98-12.07,0.37-17.74c3.98-5.19,10.5-3.11,12.93-8.13c1.99-4.11-1.78-6.78,0-11.08c2.41-5.83,12.8-9.36,19.95-6.65      c4.77,1.81,5.68,5.47,9.98,5.54c3.92,0.06,4.78-2.95,8.87-4.06c7.48-2.03,18.56,4.28,20.69,12.19c1.65,6.12-2.92,10-0.37,13.67      c3.11,4.46,11.16,0.54,14.04,4.43c3.61,4.88-2.06,19.9-12.19,21.8c-3.51,0.66-8.62-0.05-11.45-3.5      c-4.06-4.93,0.56-10.62-2.22-15.52c-5.13-9.04-32.05-9.37-39.53,2.22C1817.29,306.05,1825.62,319.73,1821.19,321.97z" class="color060352 svgShape"></path></g></g><g fill="#000000" class="color000000 svgShape"><g fill="#000000" class="color000000 svgShape"><path fill="#021b79" d="M1807.58 1853.13c-17.07 4.97-29.35-4.32-35.04 2.33-2.6 3.04-2.49 7.86-1.52 10.93 5.97 18.91 61.73 26.56 71.72 10.26 6.11-9.96-3.69-30.81-14.43-32.88C1821.58 1842.48 1819.78 1849.58 1807.58 1853.13zM1933.05 1843.84c-15.03 9.5-29.4 3.96-33.03 11.93-1.66 3.64-.22 8.24 1.56 10.93 10.96 16.52 66.67 8.46 71.77-9.97 3.12-11.26-12.06-28.58-22.96-27.61C1943.56 1829.73 1943.79 1837.05 1933.05 1843.84z" class="color153663 svgShape"></path><path fill="#0627a3" d="M1850.55,1586.78c-7.62,19.71-24.07,62.83-33.97,115.24c-6.36,33.66-12.45,84.11-7.53,147.08      c2.2,1.39,8.17,4.74,16.41,4.49c7.4-0.23,12.71-3.25,14.92-4.69c-0.69-32.77,1.91-78.8,16.72-131.39      c16.72-59.37,42.52-104.05,62.27-132.79c-19.02-8.85-38.04-17.7-57.06-26.55C1859.27,1565.14,1855.13,1574.94,1850.55,1586.78z" class="color0643a3 svgShape"></path><path fill="#0627a3" d="M1880.42,1593.56c0.03,24.25,0.07,70.12,10,119.72c6.09,30.42,18.49,75.21,46.06,126.47      c2,0.65,8.92,2.63,16.71-0.47c5.96-2.37,9.36-6.48,10.72-8.35c-5.06-13.12-10.89-30.19-15.88-50.56      c-8.92-36.36-10.69-64.83-11.04-70.86c-2.35-40.41,4.29-50.24,1.77-91.34c-1.38-22.41-4.65-40.5-7.09-51.94      c-16.87-1.2-33.74-2.41-50.61-3.61C1880.72,1570.23,1880.4,1580.86,1880.42,1593.56z" class="color0643a3 svgShape"></path><path fill="#031452" d="M1948.79,1833.09" class="color060352 svgShape"></path></g><path fill="#add6ff" d="M1729.6,1376.1c-3.55-6.77-6.16-5.83-10.08-12.76c-2.05-3.61-6.94-12.15-4.03-20.83     c3.14-9.34,14.06-16.21,19.1-13.8c1.17,0.56,1.81,1.52,1.96,1.75c2.46,3.86-2.68,8.31-2.56,15.34c0.1,5.73,3.67,11.05,5.76,10.86     c2.14-0.19,1.75-6.08,6.52-8.69c1.19-0.65,3.97-1.81,5.09-0.77c2.44,2.27-7.52,10.8-7.11,22.24c0.37,10.5,9.49,14.6,7.08,20.1     c-2.05,4.68-10.91,7.02-15.45,4.07C1731.55,1390.81,1734.43,1385.32,1729.6,1376.1z" class="colorffcdad svgShape"></path><path fill="#0627a3" d="M1945.12,1487.88c-2.07-19.59-6.05-35.85-9.66-47.8c-2.11-4.55-6.55-12.45-14.88-18.05     c-2.94-1.98-5.92-3.36-8.87-4.3c-9.38-3-18.47-1.52-25.23-0.42c-0.23,0.04-0.46,0.08-0.69,0.12c-0.23-0.02-0.47-0.04-0.7-0.06     c-6.78-0.5-15.87-1.15-24.88,2.56c-0.07,0.03-0.14,0.06-0.22,0.09l0,0c-2.85,1.2-5.7,2.84-8.46,5.07     c-7.8,6.31-11.52,14.57-13.22,19.29c-2.25,10.83-4.49,25.06-5.19,41.87c-0.09,2.16-0.16,4.35-0.19,6.59     c-0.09,5.59-0.01,11.44,0.3,17.51v0c0.22,4.41,0.57,8.94,1.05,13.59c0.13,1.3,0.28,2.61,0.44,3.92     c1.42,11.88,3.56,22.81,6.06,32.67c0.11,0.43,0.22,0.85,0.33,1.28c3.59,13.9,7.88,25.65,11.79,34.96     c6.59,3.55,19.93,9.53,37.42,9.11c1.3-0.03,2.57-0.1,3.82-0.19c1.25-0.02,2.53-0.06,3.82-0.15c17.46-1.13,30.22-8.27,36.47-12.39     c3.17-9.92,6.5-22.45,8.86-37.17c1.62-10.05,2.78-21.12,3.14-33.08c0.18-6.06,0.15-11.92-0.07-17.57     C1946.15,1499.27,1945.71,1493.44,1945.12,1487.88z" class="color0643a3 svgShape"></path><path fill="#0627a3" d="M1907.78 1551.45c.12 1.66.62 5.48 3.4 9.16 3.95 5.24 9.63 6.39 11 6.63 7.56-2.62 14.55-5.99 20.89-9.94 1.81-1.13 3.56-2.3 5.26-3.52 27.52-19.71 41.1-50.92 35.09-77.6-7.76-34.45-47.52-58.44-71.95-58.52.07.02.15.05.22.07h0c2.95.94 5.93 2.33 8.87 4.3 8.33 5.59 12.77 13.49 14.88 18.05 3.2 10.59 6.69 24.57 8.88 41.25 5.77 3.8 7.69 7.72 8.37 9.38 3.09 7.51.89 17.68-6.19 28.27C1938.98 1530.23 1925.91 1541.96 1907.78 1551.45zM1861.05 1420.56c-19.25-4.51-29.87 11.76-49.01 12.18-16 .35-38.18-10.37-65.67-58.34-1.5-.56-6.47-2.21-12.32-.29-4.8 1.57-7.6 4.69-8.68 6.03.53 4.24 10.69 76.57 66.72 98.07 40.64 15.59 94.64.3 99.56-20.61C1894.81 1444.18 1878.67 1424.68 1861.05 1420.56z" class="color0643a3 svgShape"></path><path fill="#ffffff" d="M1892.44,1508.35c-2.59,4.18-5.47,6.75-8.52,6.78c-3.05,0.03-6.1-2.46-8.94-6.66     c-7.34-10.83-13.25-32.96-14.02-51.96c-0.57-14.14,1.72-26.43,4.53-36.02c15.92-7.84,31.38-5.56,35.61-4.76     c5.66,15.67,4.29,39.78,4.09,42.82C1904.11,1475.37,1899.23,1497.4,1892.44,1508.35z" class="colorffffff svgShape"></path><path fill="#4a69dd" d="M1892.44,1508.35c-2.59,4.18-5.47,6.75-8.52,6.78c-3.05,0.03-6.1-2.47-8.94-6.66     c1.94-23.74,3.89-47.48,5.83-71.22c2.76,0.18,5.51,0.37,8.27,0.55C1890.2,1461.32,1891.32,1484.83,1892.44,1508.35z" class="colordd4a71 svgShape"></path><path fill="#3a5cdb" d="M1884.81,1436.88" class="colordb3a55 svgShape"></path><path fill="#ffffff" d="M1889.25 1441.86c-3.6-2.87 9.32-29.92 16.37-28.6 3.13.59 4.95 6.74 4.51 11.17-.8 8.12-9.4 12.59-15.01 15.5C1891.77 1441.67 1890.1 1442.54 1889.25 1441.86zM1880.03 1442.27c3.59-3.15-9.39-28.23-16.27-26.8-3.1.64-4.78 6.63-4.34 10.88.87 8.53 10.53 12.74 14.6 14.51C1877.32 1442.29 1879.12 1443.07 1880.03 1442.27z" class="colorffffff svgShape"></path><path fill="#3a5cdb" d="M1883.97,1429.65c-2.13,1.74-4.25,3.48-6.38,5.22c0.95,2.66,1.9,5.33,2.84,7.99     c0.6,0.44,1.78,1.17,3.44,1.39c2.76,0.37,4.84-0.97,5.38-1.34c0.54-3.11,1.09-6.21,1.63-9.32     C1888.58,1432.27,1886.27,1430.96,1883.97,1429.65z" class="colordb3a55 svgShape"></path><g fill="#000000" class="color000000 svgShape"><path fill="#9dccfc" d="M1870.47,1402.57c-3.47,9.95-2.69,18.86-1.71,24.2c0.51,6.74,6.24,12.29,13.3,13.14      c7.56,0.91,14.72-3.8,16.12-10.88c1.91-7.79,3.56-16.8,4.44-26.88c1.03-11.7,0.79-22.25,0.01-31.26      C1898.4,1372.61,1877.83,1381.43,1870.47,1402.57z" class="colorfcbf9d svgShape"></path><g fill="#000000" class="color000000 svgShape"><path fill="#add6ff" d="M1865.8,1355.65c-4.8,3.32-6.75,7.92-8.86,12.9c-1.81,4.26-11.87,27.97,0.97,40.33       c8.89,8.56,24.53,7.59,34.72,1.7c15.23-8.8,23.57-31.62,13.07-46.53C1896.79,1351.39,1876.84,1348.01,1865.8,1355.65z" class="colorffcdad svgShape"></path><path fill="#031452" d="M1859.34,1367.6c-0.43-0.33-6-4.85-6.97-12.15c-1.18-8.9,4.91-18.86,11.58-19.85       c3.37-0.5,4.37,1.66,10.56,3.99c9.1,3.43,13.69,1.3,21.08,2.81c1.43,0.29,14.82,3.46,20.47,13.26       c9.51,16.47-8.55,41.89-12.13,40.85c-2.77-0.8,4.58-17.02-3.16-24.31C1891.6,1363.58,1872.56,1377.98,1859.34,1367.6z" class="color060352 svgShape"></path><path fill="#ffffff" d="M1860.39,1402.45c2.82,1.12,7.54,2.53,13.5,2.11c4.29-0.3,7.83-1.46,10.31-2.51       c-0.58,1-3.63,6.09-9.27,7.45C1869.42,1410.82,1863.66,1408.04,1860.39,1402.45z" class="colorffffff svgShape"></path></g><path fill="#66b2ff" d="M1895.94,1417.72" class="color6666ff svgShape"></path></g></g><g fill="#000000" class="color000000 svgShape"><g fill="#000000" class="color000000 svgShape"><path fill="#e7f2fe" d="M2108.56,1019c-2.5,0.72-3.56-1.73-9.49-3.58c-3.06-0.96-5.58-1.27-7.21-1.46      c-6.22-0.72-6.99,0.6-10.01-0.33c-5.96-1.83-8.51-8.67-8.86-9.64c-0.46-1.3-2.1-6.11,0.04-11.26      c2.69-6.48,10.51-11.4,16.09-9.83c7.94,2.24,4.72,15.75,16.52,22.98c3.16,1.94,6.75,3.04,7.34,6.08      C2113.5,1014.71,2111.34,1018.2,2108.56,1019z" class="colorfee7ed svgShape"></path><path fill="#59a1ea" d="M2241.59,986.41c-12.7-4.73-25.46,18.58-47.66,28.84c-16.58,7.66-43.2,10.24-87.33-11.61      c-1.19,0.38-4.73,1.7-6.91,5.27c-2.46,4.02-2.22,9.31,0.54,13.68c12.58,7.64,69,40.33,115.94,19.51      c7.3-3.24,34.72-15.4,35.7-35.42C2252.24,999.18,2248.72,989.07,2241.59,986.41z" class="color5960ea svgShape"></path></g><path fill="#021b79" d="M2288.34,1431.07c-9.26,11.16-21.86,10.67-22.64,17.69c-0.35,3.21,1.94,6.34,4.02,7.93     c12.77,9.74,54.05-10.91,53.28-26.28c-0.47-9.4-16.73-18.65-24.96-15.07C2292.89,1417.58,2294.95,1423.1,2288.34,1431.07z" class="color153663 svgShape"></path><path fill="#2c95fe" d="M2271.35,1098.1c3.22,9.04,7.53,22.94,10.13,40.16c4.76,31.52,0.02,48.95-0.35,79.4     c-0.25,20.72,2.32,38.31,7.57,73.49c4.81,32.21,13.1,74.79,28.21,124.32c-2.33,1.87-5.71,4.12-10.15,5.79     c-8.2,3.09-15.51,2.51-19.29,1.93c-11.21-50.43-23.85-90.07-33.1-116.45c-21.21-60.54-48.08-117.2-35.71-164.02     c2.25-8.52,7.36-27.85,24.19-38.19C2253.6,1097.93,2264.8,1097.64,2271.35,1098.1z" class="color2c7efe svgShape"></path><path fill="#021b79" d="M2155.22,1295.05c-9.26,11.18-21.85,10.71-22.63,17.74c-0.36,3.21,1.94,6.34,4.01,7.92     c12.76,9.73,54.02-10.99,53.26-26.38c-0.46-9.4-16.71-18.64-24.93-15.05C2159.78,1281.54,2161.84,1287.06,2155.22,1295.05z" class="color153663 svgShape"></path><path fill="#2c95fe" d="M2254.05,1160.9c-18.86,31.43-109.47-5.62-126.8,21.86c-7.96,12.64-0.65,39.24,48.57,95.65     c-0.9,1.52-2.36,3.65-4.62,5.71c0,0-4.92,4.47-12.01,6.05c-11.95,2.66-89.45-55.89-75.74-115.33     c15.82-68.62,142.47-91.67,158.98-68.87c0.84,1.15,1.75,2.92,2.07,5.59C2254.32,1128.55,2261.82,1147.96,2254.05,1160.9z" class="color2c7efe svgShape"></path><path fill="#81b9f1" d="M2228.25,988.85c-10.75,7.31-13.96,18.02-15.67,23.73c-3.25,10.86-2.02,20.14-0.43,32.2     c1.52,11.49,3.27,13.27,4.12,21.97c1.26,12.88-1.15,23.53-3.26,30.31c1.13,2.55,9.06,19.65,29.02,25.74     c17.26,5.27,31.59-1.33,34.65-2.83c10.95-34.43,13.73-62.31,14.28-80.7c0.46-15.39-0.49-28.17-8.92-39.48     c-2.33-3.12-10.63-14.26-25.97-16.86C2253.85,982.56,2240.52,980.51,2228.25,988.85z" class="color8183f1 svgShape"></path><path fill="#add6ff" d="M2246.4,967.69c-4.64,6.38-6.21,12.87-6.79,16.86c-1.23,4.89,1.3,9.98,5.82,11.99     c4.84,2.15,10.72,0.23,13.31-4.52c3.09-5.15,6.3-11.23,9.25-18.22c3.42-8.11,5.72-15.66,7.31-22.21     C2272.06,951.97,2256.26,954.14,2246.4,967.69z" class="colorffcdad svgShape"></path><path fill="#dae8f7" d="M2250.76,930.79c-4.7,1.41-7.42,4.57-10.36,7.97c-2.52,2.92-16.53,19.17-9.21,32.25     c5.07,9.06,17.95,12.28,27.65,10.2c14.49-3.1,26.89-19.08,22.1-33.59C2276.87,935.31,2261.58,927.54,2250.76,930.79z" class="colorf7dae3 svgShape"></path><path fill="#ffffff" d="M2235.41,964.97c2,1.61,5.47,3.93,10.4,5.12c3.55,0.85,6.69,0.84,8.95,0.64c-0.72,0.65-4.45,3.91-9.34,3.54     C2240.64,973.91,2236.67,970.24,2235.41,964.97z" class="colorffffff svgShape"></path><path fill="#031452" d="M2275.1,952.84c-4.22-16.32-33.55-15.09-36.36-29.25c-1.52-7.66,5.28-16.64,13.43-20.3     c7.6-3.4,16.61-2.28,23.06,2.28c7.84,5.55,9.35,14.4,9.7,16.46c0.87,5.06-0.67,5.64,0.08,11.2c1.22,9.02,5.76,11.09,6.55,16.66     c1.75,12.47-17.58,26.33-20.83,24.07C2268.42,972.37,2277.82,963.37,2275.1,952.84z" class="color060352 svgShape"></path><g fill="#000000" class="color000000 svgShape"><path fill="#e7f2fe" d="M2201.05,1121.61c-1.84,1.8-3.96,0.13-10.07,1.25c-3.15,0.58-5.52,1.47-7.05,2.06      c-5.81,2.25-5.86,3.78-8.96,4.36c-6.12,1.16-11.67-3.69-12.44-4.39c-1.04-0.93-4.8-4.41-5.41-9.95      c-0.76-6.97,3.73-14.94,9.39-16.15c8.06-1.72,11.76,11.7,25.62,12.59c3.72,0.24,7.41-0.45,9.39,1.95      C2203.32,1115.53,2203.09,1119.61,2201.05,1121.61z" class="colorfee7ed svgShape"></path><path fill="#59a1ea" d="M2255.77,997.49c-12.81,15.26,21,46.15,13.55,71.58c-4,13.65-21.15,30.04-83.04,38.39      c-0.68,1.22-2.13,4.23-1.73,8.14c0.64,6.24,5.45,9.73,6.24,10.29c51.01,6.96,95.48-13.91,108.69-46.93      c13.27-33.17-3.63-82-25.55-86.74C2268.29,991.01,2260.18,992.24,2255.77,997.49z" class="color5960ea svgShape"></path></g></g></g></g></svg>