<svg xmlns="http://www.w3.org/2000/svg" xmlns:xlink="http://www.w3.org/1999/xlink" data-name="Layer 1" viewBox="0 0 2400 1800" id="Onlineeducationandgraduation.Onlineteacheroncomputermonitororsmartphonescreen.Webinarandvideoseminarlearningvectorconcept."><defs><linearGradient id="d" x1="1200" x2="1200" y1="647.49" y2="794.2" gradientUnits="userSpaceOnUse"><stop offset="0" stop-color="#e9f3fd" class="stopColore9f4fd svgShape"></stop><stop offset="1" stop-color="#ffffff" class="stopColorffffff svgShape"></stop></linearGradient><linearGradient id="e" x1="117.53" x2="117.53" y1="766.12" y2="787.05" gradientUnits="userSpaceOnUse"><stop offset="0" stop-color="#e1e8ef" class="stopColore2e1ef svgShape"></stop><stop offset="1" stop-color="#ffffff" class="stopColorffffff svgShape"></stop></linearGradient><linearGradient id="b" x1="5310.43" x2="5310.43" y1="1596.09" y2="1493.51" gradientTransform="matrix(-1 0 0 1 6612.35 0)" gradientUnits="userSpaceOnUse"><stop offset="0" stop-color="#6c9ed1" class="stopColor6c9ed1 svgShape"></stop><stop offset="1" stop-color="#b9d9f9" class="stopColorb9daf9 svgShape"></stop></linearGradient><linearGradient id="a" x1="5519.93" x2="5519.93" y1="1347.26" y2="1262.89" gradientTransform="matrix(-1 0 0 1 6612.35 0)" gradientUnits="userSpaceOnUse"><stop offset="0" stop-color="#021b79" class="stopColor131a8c svgShape"></stop><stop offset="1" stop-color="#358fea" class="stopColor3a35ea svgShape"></stop></linearGradient><linearGradient id="f" x1="5580.55" x2="5580.55" y1="1676.29" y2="1593.11" xlink:href="#a"></linearGradient><linearGradient id="c" x1="5449.35" x2="5449.35" y1="1620.25" y2="1534.17" gradientTransform="matrix(-1 0 0 1 6612.35 0)" gradientUnits="userSpaceOnUse"><stop offset="0" stop-color="#4664d6" class="stopColord64668 svgShape"></stop><stop offset="1" stop-color="#7abcfe" class="stopColorfe7a91 svgShape"></stop></linearGradient><linearGradient id="g" x1="5408.21" x2="5408.21" y1="1494.01" y2="1407.23" xlink:href="#a"></linearGradient><linearGradient id="h" x1="5574.15" x2="5574.15" y1="1401.04" y2="1349.71" xlink:href="#b"></linearGradient><linearGradient id="i" x1="1138.36" x2="1138.36" y1="1253.96" y2="1202.29" gradientTransform="matrix(-1 0 0 1 2400.36 0)" xlink:href="#c"></linearGradient><linearGradient id="j" x1="5905.49" x2="5905.49" y1="1680.5" y2="1377.93" xlink:href="#c"></linearGradient><linearGradient id="k" x1="533.17" x2="533.17" y1="1551.84" y2="1500.17" gradientTransform="translate(-18.57)" xlink:href="#b"></linearGradient><linearGradient id="l" x1="572.02" x2="572.02" y1="1679.45" y2="1554.16" gradientTransform="translate(-18.57)" xlink:href="#a"></linearGradient><linearGradient id="m" x1="4888.38" x2="4888.38" y1="1317.24" y2="1214.67" gradientTransform="matrix(-1 0 0 1 6880.7 0)" xlink:href="#b"></linearGradient><linearGradient id="n" x1="1532.82" x2="1532.82" y1="1681.66" y2="1438.57" gradientUnits="userSpaceOnUse"><stop offset="0" stop-color="#2c4cc2" class="stopColor6c2cc2 svgShape"></stop><stop offset="1" stop-color="#57abff" class="stopColor5760ff svgShape"></stop></linearGradient><linearGradient id="o" x1="1033.45" x2="1033.45" y1="1387.35" y2="1302.98" gradientTransform="matrix(-1 0 0 1 2787.94 15.61)" xlink:href="#a"></linearGradient><linearGradient id="p" x1="737.94" x2="737.94" y1="1498.73" y2="1447.06" gradientTransform="matrix(-1 0 0 1 2787.94 182.16)" xlink:href="#b"></linearGradient><linearGradient id="q" x1="1054.45" x2="1054.45" y1="1493.24" y2="1367.95" gradientTransform="matrix(-1 0 0 1 2787.94 130.33)" gradientUnits="userSpaceOnUse"><stop offset="0" stop-color="#2893ff" class="stopColor287fff svgShape"></stop><stop offset="1" stop-color="#68b2fd" class="stopColor68defd svgShape"></stop></linearGradient><linearGradient id="r" x1="838.15" x2="838.15" y1="1420.87" y2="1334.11" gradientTransform="matrix(-1 0 0 1 2787.94 67.75)" xlink:href="#c"></linearGradient><linearGradient id="s" x1="1084.12" x2="1084.12" y1="1473.16" y2="1407.75" gradientTransform="matrix(-1 0 0 1 2787.94 47.75)" xlink:href="#a"></linearGradient><linearGradient id="t" x1="1897.16" x2="1897.16" y1="1220.76" y2="322.92" xlink:href="#a"></linearGradient><linearGradient id="u" x1="1538.04" x2="2196.29" y1="1071.67" y2="413.42" gradientUnits="userSpaceOnUse"><stop offset="0" stop-color="#358fea" class="stopColor3a35ea svgShape"></stop><stop offset="1" stop-color="#57abff" class="stopColor5760ff svgShape"></stop></linearGradient></defs><path fill="#cfe6fd" d="M0 0h2400v787.75H0z" class="colorcfe9fd svgShape"></path><path fill="#ffffff" d="M2339.35 386.78a172.73 172.73 0 0 0-247.07-187.72c-50.4-83-141.68-138.54-245.93-138.54-121.14 0-224.76 74.94-267.08 181a233.54 233.54 0 0 0-155.77-11.82c-43.5-99.58-142.77-169.18-258.35-169.18a280.55 280.55 0 0 0-171.6 58.29 116.37 116.37 0 0 0-213.17 88.42A221.6 221.6 0 0 0 507 258.93C490.43 146.67 393.69 60.52 276.82 60.52 150 60.52 46.92 161.93 44.15 288.06A141.65 141.65 0 0 0 0 281v1519h2400V363.55a90.48 90.48 0 0 0-60.65 23.23Z" class="colorffffff svgShape"></path><path fill="#e9f3fd" d="M1200 1738.64c-511.27 0-958.12-35.53-1200-88.48V1800h2400v-149.84c-241.88 52.95-688.73 88.48-1200 88.48Z" class="colore9f4fd svgShape"></path><path fill="url(#d)" d="m2354.28 525.27.11 48.12h-86.75V447.1h-77.13v78.17h-48.98V341.96h-56.28v266.69h-104.22v16.67h-39.61v-52.11h-40.64v125.07h-41.69v-42.73h-47.95v42.73h-54.19v36.48h-36.48V625.45h-71.76V756.9h-107.3v-45.51h-266.32V610.77h-29.26v66.58h-45.87v-38.34h-25.12v35h-14.39v70.4h-50.25V579.24h-57.16v-44.33h-89.39v127.41h-25.59v-50.21H824.98v-147.9h-47.96v53.75h-26.95v52.59H634.36v-69.26h-11.9V341.96h-89.59v143.58h-28.79v-19.38h-44.65v60.76H399.7v145.5h-73.55v-21.03h-31.23v-75.54h-38.61v52.73h-27.34v20.56H122.69V497.97H69V602.8H0v184.93l2400 .18V525.27h-45.72z"></path><path fill="#ffffff" d="M2400 730.27c-79.22-11.93-172.88-2.66-267.6 42.63-53.74-15.91-186.69 6.57-222.3 15H2400ZM0 731.79c77.14-11.62 251.05-2.6 343.28 41.5 52.34-15.49 181.79 6.41 216.46 14.62H0Z" class="colorffffff svgShape"></path><path fill="url(#e)" d="M27.17 787.91H207.9l-41.7-18.53a31 31 0 0 0-19.69-1.85l-23.44 5.52a31 31 0 0 1-26.6-6.05 31 31 0 0 0-37.17-1.4Z"></path><path fill="url(#b)" d="M1376.73 1589.27a46.2 46.2 0 0 0 0-92.39h-195.8v92.39Z"></path><path fill="#72a3d4" d="M903.28 1574.6v-63.06h-7.34a7.33 7.33 0 0 1 0-14.66h320.51c24.84 0 46.25 19 47.48 43.86a46.25 46.25 0 0 1-46.14 48.53H895.94a7.34 7.34 0 0 1 0-14.67Z" class="color72a3d4 svgShape"></path><path fill="#f1f1f2" d="M1217.79 1574.6H903.28v-63.06h314.51a31.53 31.53 0 0 1 0 63.06Z" class="colorf1f2f2 svgShape"></path><path fill="#cbd2d9" d="M903.28 1526.7h310.35v3H903.28zM903.28 1536.62h310.35v3H903.28zM903.28 1546.53h310.35v3H903.28zM903.28 1556.45h310.35v3H903.28z" class="colorcbd9d9 svgShape"></path><path fill="url(#a)" d="M994.43 1347.11a46.2 46.2 0 1 1 0-92.39h242.18v92.39Z"></path><path fill="#152f92" d="M1391.58 1332.44v-63.06h7.34a7.33 7.33 0 0 0 0-14.66h-197.83c-24.85 0-46.25 19-47.48 43.86a46.25 46.25 0 0 0 46.14 48.53h199.17a7.34 7.34 0 0 0 0-14.67Z" class="color151c92 svgShape"></path><path fill="#f1f1f2" d="M1199.75 1332.44h195.4v-63.06h-195.4a31.53 31.53 0 0 0 0 63.06Z" class="colorf1f2f2 svgShape"></path><path fill="#cbd2d9" d="M1203.91 1284.54h187.68v3h-187.68zM1203.91 1294.46h187.68v3h-187.68zM1203.91 1304.37h187.68v3h-187.68zM1203.91 1314.28h187.68v3h-187.68z" class="colorcbd9d9 svgShape"></path><path fill="url(#f)" d="M933.81 1681.66a46.2 46.2 0 0 1 0-92.39H1176v92.39Z"></path><path fill="#152f92" d="M1366.64 1667v-63.06h7.36a7.33 7.33 0 0 0 0-14.66h-233.53c-24.84 0-46.25 19-47.48 43.86a46.25 46.25 0 0 0 46.14 48.53H1374a7.34 7.34 0 0 0 0-14.67Z" class="color151c92 svgShape"></path><path fill="#f1f1f2" d="M1139.13 1667h231.08v-63.06h-231.08a31.53 31.53 0 0 0 0 63.06Z" class="colorf1f2f2 svgShape"></path><path fill="#cbd2d9" d="M1143.29 1619.09h223.36v3h-223.36zM1143.29 1629h223.36v3h-223.36zM1143.29 1638.92h223.36v3h-223.36zM1143.29 1648.83h223.36v3h-223.36z" class="colorcbd9d9 svgShape"></path><path fill="url(#c)" d="m1143.29 1617.95 19.71-11.5 19.71 11.5v-84.07h-39.42v84.07z"></path><path fill="url(#g)" d="M1020 1496.88h321.18a47.11 47.11 0 1 0 0-94.21H1020Z"></path><path fill="#152f92" d="M918.7 1485.15v-70.75h-13.09a5.87 5.87 0 1 1 0-11.73h214.09c25.36 0 47.19 19.49 48.38 44.83a47.1 47.1 0 0 1-47 49.38H905.61a5.87 5.87 0 1 1 0-11.73Z" class="color151c92 svgShape"></path><path fill="#f1f1f2" d="M918.7 1414.4H1121a35.38 35.38 0 0 1 0 70.75H918.7Z" class="colorf1f2f2 svgShape"></path><path fill="#cbd2d9" d="M918.7 1433.4h214.74v3H918.7zM918.7 1443.32h214.74v3H918.7zM918.7 1453.23h214.74v3H918.7zM918.7 1463.15h214.74v3H918.7z" class="colorcbd9d9 svgShape"></path><path fill="url(#h)" d="M880.54 1347.11h343.28v11.73h-11.74v32.41h11.74V1403H880.54a27.94 27.94 0 1 1 0-55.87Z"></path><path fill="#72a3d4" d="M997.86 1347.11h343.28v11.73h-11.73v32.41h11.73V1403H997.86a27.94 27.94 0 1 1 0-55.87Z" class="color72a3d4 svgShape"></path><path fill="#f1f1f2" d="M1329.41 1391.25v-32.41H997.86a16.21 16.21 0 0 0 0 32.41Z" class="colorf1f2f2 svgShape"></path><path fill="#cbd2d9" d="M1003.5 1368.59h325.91v3H1003.5zM1003.5 1378.5h325.91v3H1003.5z" class="colorcbd9d9 svgShape"></path><path fill="url(#i)" d="M1367.16 1198.85h-238.24v11.73h11.73V1243h-11.73v11.73h238.24a27.94 27.94 0 0 0 0-55.87Z"></path><path fill="#4e6cdc" d="M1208.22 1198.85H1011.6v11.73h11.73V1243h-11.73v11.73h196.62a27.94 27.94 0 1 0 0-55.87Z" class="colordc4e6f svgShape"></path><path fill="#f1f1f2" d="M1023.33 1243v-32.41h184.89a16.21 16.21 0 0 1 0 32.41Z" class="colorf1f2f2 svgShape"></path><path fill="#cbd2d9" d="M1023.33 1220.33h176.1v3h-176.1zM1023.33 1230.24h176.1v3h-176.1z" class="colorcbd9d9 svgShape"></path><path fill="url(#j)" d="M521.43 1377.58h376.74l41.24 40.66v263.42H480.14a5.82 5.82 0 0 1-5.81-5.82v-251.15a47.11 47.11 0 0 1 47.1-47.11Z"></path><path fill="#4e6cdc" d="M933.54 1662.7h-70.75v13.09a5.87 5.87 0 1 1-11.73 0V1426c0-25.36 19.49-47.19 44.83-48.38a47.1 47.1 0 0 1 49.38 47v251.1a5.87 5.87 0 1 1-11.73 0Z" class="colordc4e6f svgShape"></path><path fill="#f1f1f2" d="M862.79 1662.7v-238a35.38 35.38 0 0 1 70.75 0v238Z" class="colorf1f2f2 svgShape"></path><path fill="#cbd2d9" d="M880.5 1423.07h3v239.62h-3zM891.28 1423.07h3v239.62h-3zM902.06 1423.07h3v239.62h-3zM912.83 1423.07h3v239.62h-3z" class="colorcbd9d9 svgShape"></path><path fill="url(#k)" d="M386.26 1496.72h284.62v11.74h-11.73v32.41h11.73v11.73H386.26a27.94 27.94 0 0 1 0-55.88Z"></path><path fill="#72a3d4" d="M591.58 1496.72H788.2v11.74h-11.73v32.41h11.73v11.73H591.58a27.94 27.94 0 0 1 0-55.88Z" class="color72a3d4 svgShape"></path><path fill="#f1f1f2" d="M776.47 1540.87v-32.41H591.58a16.21 16.21 0 1 0 0 32.41Z" class="colorf1f2f2 svgShape"></path><path fill="#cbd2d9" d="M600.37 1518.2h176.1v3h-176.1zM600.37 1528.12h176.1v3h-176.1z" class="colorcbd9d9 svgShape"></path><path fill="url(#l)" d="M684.94 1552.6H399a5.87 5.87 0 0 0 0 11.73h5.87v105.59H399a5.87 5.87 0 0 0 0 11.74h286a28.85 28.85 0 0 0 28.85-28.85v-71.37a28.85 28.85 0 0 0-28.91-28.84Z"></path><path fill="#152f92" d="M408.27 1552.6h-286a5.87 5.87 0 1 0 0 11.73h5.87v105.59h-5.87a5.87 5.87 0 1 0 0 11.74h286a28.85 28.85 0 0 0 28.84-28.85v-71.37a28.84 28.84 0 0 0-28.84-28.84Z" class="color151c92 svgShape"></path><path fill="#f1f1f2" d="M239.31 1466.74h71.37a17.11 17.11 0 0 1 17.11 17.11v283.66H222.2v-283.66a17.11 17.11 0 0 1 17.11-17.11Z" transform="rotate(90 274.995 1617.125)" class="colorf1f2f2 svgShape"></path><path fill="#cbd2d9" d="M128.18 1580.61h275.3v3h-275.3zM128.18 1594.62h275.3v3h-275.3zM128.18 1608.62h275.3v3h-275.3zM128.18 1622.63h275.3v3h-275.3zM128.18 1636.63h275.3v3h-275.3zM128.18 1650.64h275.3v3h-275.3z" class="colorcbd9d9 svgShape"></path><path fill="url(#m)" d="M2097.12 1310.42a46.2 46.2 0 1 0 0-92.39h-255.79v92.39Z"></path><path fill="#72a3d4" d="M1650.67 1295.75v-63h-7.33a7.34 7.34 0 0 1 0-14.67h233.51c24.84 0 46.25 19 47.47 43.87a46.24 46.24 0 0 1-46.13 48.52h-234.85a7.34 7.34 0 0 1 0-14.67Z" class="color72a3d4 svgShape"></path><path fill="#f1f1f2" d="M1878.19 1295.75h-227.52v-63h227.52a31.53 31.53 0 0 1 0 63Z" class="colorf1f2f2 svgShape"></path><path fill="#cbd2d9" d="M1650.67 1247.85h223.35v3h-223.35zM1650.67 1257.77h223.35v3h-223.35zM1650.67 1267.68h223.35v3h-223.35zM1650.67 1277.6h223.35v3h-223.35z" class="colorcbd9d9 svgShape"></path><path fill="url(#n)" d="M1365 1681.66v-222l18.49-26.25h290.82a26.25 26.25 0 0 1 26.25 26.25v222Z"></path><path fill="#317cc8" d="M1409.78 1459.7v222h-11v-11h-30.45v11h-11v-222a26.25 26.25 0 1 1 52.49 0Z" class="color6a31c8 svgShape"></path><path fill="#f1f1f2" d="M1368.31 1670.63h30.45V1459.7a15.23 15.23 0 1 0-30.45 0Z" class="colorf1f2f2 svgShape"></path><path fill="#cbd2d9" d="M1386.69 1464.99h3v205.64h-3zM1377.38 1464.99h3v205.64h-3z" class="colorcbd9d9 svgShape"></path><path fill="url(#o)" d="M1656.5 1402.81a46.2 46.2 0 1 1 0-92.39h242.18v92.39Z"></path><path fill="#152f92" d="M2154.36 1388.14v-63.06h7.33a7.33 7.33 0 0 0 0-14.66h-298.53c-24.85 0-46.25 19-47.48 43.86a46.25 46.25 0 0 0 46.14 48.53h299.87a7.34 7.34 0 0 0 0-14.67Z" class="color151c92 svgShape"></path><path fill="#f1f1f2" d="M1861.82 1388.14h292.54v-63.06h-292.54a31.53 31.53 0 1 0 0 63.06Z" class="colorf1f2f2 svgShape"></path><path fill="#cbd2d9" d="M1865.98 1340.24h288.38v3h-288.38zM1865.98 1350.16h288.38v3h-288.38zM1865.98 1360.07h288.38v3h-288.38zM1865.98 1369.99h288.38v3h-288.38z" class="colorcbd9d9 svgShape"></path><path fill="url(#p)" d="M2258.62 1625.78h-445.16v11.73h11.73v32.41h-11.73v11.74h445.16a27.94 27.94 0 0 0 0-55.88Z"></path><path fill="#72a3d4" d="M1891.8 1625.78h-393.16a5.87 5.87 0 1 0 0 11.73h5.86v32.41h-5.86a5.87 5.87 0 0 0 0 11.74h394.11a27.94 27.94 0 0 0 27.88-29.8c-.96-14.86-13.95-26.08-28.83-26.08Z" class="color72a3d4 svgShape"></path><path fill="#f1f1f2" d="M1504.5 1669.92v-32.41h388.25a16.21 16.21 0 1 1 0 32.41Z" class="colorf1f2f2 svgShape"></path><path fill="#cbd2d9" d="M1504.5 1647.26h379.46v3H1504.5zM1504.5 1657.17h379.46v3H1504.5z" class="colorcbd9d9 svgShape"></path><path fill="url(#q)" d="M1602 1496.72h286a5.87 5.87 0 0 1 0 11.74h-5.87v105.59h5.87a5.87 5.87 0 0 1 0 11.73h-286a28.85 28.85 0 0 1-28.85-28.84v-71.37a28.85 28.85 0 0 1 28.85-28.85Z"></path><path fill="#2e96ff" d="M1878.67 1496.72h321.64a5.87 5.87 0 0 1 0 11.74h-5.87v105.59h5.87a5.87 5.87 0 0 1 0 11.73h-321.64a28.84 28.84 0 0 1-28.84-28.84v-71.37a28.85 28.85 0 0 1 28.84-28.85Z" class="color2e88ff svgShape"></path><path fill="#f1f1f2" d="M1975.2 1394.81h105.6v315.77a17.11 17.11 0 0 1-17.11 17.11h-71.37a17.11 17.11 0 0 1-17.11-17.11v-315.77h-.01Z" transform="rotate(90 2028 1561.25)" class="colorf1f2f2 svgShape"></path><path fill="#cbd2d9" d="M1883.46 1524.74h310.98v3h-310.98zM1883.46 1538.74h310.98v3h-310.98zM1883.46 1552.75h310.98v3h-310.98zM1883.46 1566.75h310.98v3h-310.98zM1883.46 1580.76h310.98v3h-310.98zM1883.46 1594.77h310.98v3h-310.98z" class="colorcbd9d9 svgShape"></path><path fill="url(#r)" d="M1708.16 1496.72h436.16a47.11 47.11 0 0 0 0-94.21h-436.16Z"></path><path fill="#4e6cdc" d="M1606.86 1485v-70.75h-13.09a5.87 5.87 0 1 1 0-11.73h279.77c25.36 0 47.19 19.49 48.38 44.83a47.11 47.11 0 0 1-47.05 49.38h-281.1a5.87 5.87 0 1 1 0-11.73Z" class="colordc4e6f svgShape"></path><path fill="#f1f1f2" d="M1606.86 1414.24h268a35.38 35.38 0 1 1 0 70.75h-268Z" class="colorf1f2f2 svgShape"></path><path fill="#cbd2d9" d="M1606.86 1431.95h269.63v3h-269.63zM1606.86 1442.73h269.63v3h-269.63zM1606.86 1453.51h269.63v3h-269.63zM1606.86 1464.28h269.63v3h-269.63z" class="colorcbd9d9 svgShape"></path><path fill="url(#s)" d="m1685.96 1527.74 17.86-10.42 17.86 10.42v-76.17h-35.72v76.17z"></path><path fill="#f0f4f8" d="M442.44 1552.6H182.49c-31.58.46-58.36-28-58.33-63.72v-40.06c0-35.74 18.68-150.59 86.2-150.59 142.85 0 149.58 127.19 232.33 151.31 17.95 5.23 33 15.81 33 41.78v15c.05 25.93-14.57 46.62-33.25 46.28Z" class="colorf0f0f8 svgShape"></path><path fill="#373c4f" d="M301.64 1167.88c.1 10.47 9.38 31.61 15.66 43.68 7.14 13.7 9.76 22.49-5.89 28.71-5.1 2-36.7 8-36.7-4.13l-.54-68.26Z" class="color37384f svgShape"></path><path fill="#1288ff" d="M327.79 1328a13.63 13.63 0 0 1-8.87-13.3l2-51.51c.11-18.09-7-27.09-20.14-32.52-27.5 9.47-9.72 84.93-4.06 106.38a13.74 13.74 0 0 0 7.4 8.84c24.76 11.94 68.26 16.74 86.24 14l1.89-8Z" class="color1274ff svgShape"></path><path fill="#0a2db3" d="m390.38 1359.87 17.09-1.78 9.45 3 .05-3a8.8 8.8 0 0 0-5.09-8.09l-5-2.33 4.78-1.34 3.94 1.67 2.11-1.15-6.17-3.14-9.7 1.62-11.43 5.84Z" class="colorb3680a svgShape"></path><path fill="#1288ff" d="M233.17 1306.36c-3.76-23-6.76-44.62-2.3-71.83 28.8-13.9 44.44-14.12 68-4.79a16.42 16.42 0 0 1 10.45 16.1c-1.14 22.43-1.56 50.79-1.68 76h-77.85c2.69-5.31 4.21-10.25 3.38-15.48Z" class="color1274ff svgShape"></path><path fill="#0575e6" d="M233.17 1306.36c-2.54-15.5-4.72-30.41-4.51-46.82l33.51-4.1c6.67 18.31 14.6 32.77 23.34 44.68a13.65 13.65 0 0 1-11 21.7h-44.72c2.69-5.29 4.21-10.23 3.38-15.46Z" class="color1068e6 svgShape"></path><path fill="#3f8bd8" d="M307.6 1321.82c-.16 34 .25 62.16.25 62.16H207.08c0-31.35 15.5-48 22.71-62.16Z" class="color653fd8 svgShape"></path><path fill="#1288ff" d="m328.6 1278.47-50.09 29.36a4.73 4.73 0 0 1-7.05-3.23l-8.2-45c-3.43-17.77-19.53-27.21-32.39-25.09-17.85 4.94 14.56 101.11 32.47 106.06s58.55-34.73 69.66-53.57Z" class="color1274ff svgShape"></path><path fill="#cce5ff" d="M339 1267.24v11a7.59 7.59 0 0 0 7.58 7.59h3.66a9 9 0 0 0 8 4.89h4.84a9.06 9.06 0 0 0 9.06-9.07v-26.9h-23v4.88h-2.59a7.6 7.6 0 0 0-7.55 7.61Zm4.8 0a2.78 2.78 0 0 1 2.78-2.78h2.59v16.59h-2.59a2.79 2.79 0 0 1-2.78-2.79Z" class="colorccdbff svgShape"></path><path fill="#0a2db3" d="m348.33 1269.73-4.52-2.4v3.21l-2.45.14-2.21-1.82.41-4.35 3.03-3.46-.99-1.97-6.3 3.19-2.72 5.08-3.98 11.12 4.4 8.56 14.52-3.03v-10.67l.81-3.6zM285.95 1204.6l-1.89 29.68-17.51-10.65 2.36-27.37 17.04 8.34z" class="colorb3680a svgShape"></path><path fill="#0a2db3" d="M298.62 1200.42c0 4.69-4.66 8.79-13.36 5.29l-9.28-6.16a15.89 15.89 0 0 1-6.33-8.43l-2.79-8.83a15.85 15.85 0 0 1 .83-11.62l.73-1.5a15.81 15.81 0 0 1 15.48-8.92h.42a15.82 15.82 0 0 1 14.6 16Z" class="colorb3680a svgShape"></path><path fill="#373c4f" d="m299 1155.68-28.1-.4c-11.17-.3-22.34 7.53-21.68 20.37.8 15.27 1.82 22.11-7 29l-11.08 8.18c-4.45 3.29-7.28 11.62-5.37 16.81 2.22 6 11.21 14.14 24.05 11.52 17.51-3.57 29-15.24 29.75-57.77a12.34 12.34 0 0 1 9.46-11.73l9.93-2.4a10.79 10.79 0 0 0 6.15-5.94 5.58 5.58 0 0 0-6.11-7.64Z" class="color37384f svgShape"></path><path fill="#3f8bd8" d="M419.87 1415.92a31.93 31.93 0 0 1-31.93 31.93H278c-41.59 0-60-35.32-60-63.87h169.9a31.93 31.93 0 0 1 31.93 31.94Z" class="color653fd8 svgShape"></path><path fill="#3f8bd8" d="M349.78 1439c-46.57 8.81-50 8.81-82.73 8.81-41.58 0-60-35.32-60-63.87h152.67c15.9 0 25.12 13.69 26.28 20.87Z" class="color653fd8 svgShape"></path><path fill="#373c4f" d="m451.39 1535.4 10.84-2.41 24.45 11.98 11.86 1.94.36 5.69h-47.51v-17.2z" class="color37384f svgShape"></path><path fill="#0a2db3" d="m462.23 1533-10.84 2.41c-3.76-2.8-11.86-9.54-22-18.34l19.46-5.41Z" class="colorb3680a svgShape"></path><path fill="#3f8bd8" d="m345.81 1434.59 40.19-29.74 65.81 106.8-23.76 8.76c-28.16-24.34-68.15-67.98-82.24-85.82Z" class="color653fd8 svgShape"></path><path fill="#8bc5ff" d="M332.5 1384.23h100.3a2.92 2.92 0 0 0 2.92-2.92l16.77-69.71a2.24 2.24 0 0 0-2.24-2.92H350a3.9 3.9 0 0 0-3.6 2.92l-16.78 69.71a2.92 2.92 0 0 0 2.88 2.92Z" class="color8bacff svgShape"></path><path fill="#cce5ff" d="M455.05 1308.68H354.76a3.9 3.9 0 0 0-3.6 2.92l-16.78 67.83H308v1.88a2.92 2.92 0 0 0 2.92 2.92H437.6a2.92 2.92 0 0 0 2.92-2.92l16.77-69.71a2.24 2.24 0 0 0-2.24-2.92Z" class="colorccdbff svgShape"></path><path fill="#8bc5ff" d="M334.38 1379.43v1.88a2.91 2.91 0 0 1-2.92 2.92h-52.29a2.92 2.92 0 0 1-2.92-2.92v-1.88Z" class="color8bacff svgShape"></path><path fill="#0a2db3" d="m234.86 1432.68-14.34 3.04 4.74 11.98 15.6.15-6-15.17z" class="colorb3680a svgShape"></path><path fill="#3f8bd8" d="m232.69 1427.19 8.17 20.66H356c-4.85-22.93-26.91-38.66-50-34.76-26.22 4.41-52.1 9.45-73.31 14.1Z" class="color653fd8 svgShape"></path><path fill="#373c4f" d="m220.52 1435.72 4.74 11.98-5.7 14.9 2.72 12.47-5.47 2.57-15.64-39.51 19.35-2.41z" class="color37384f svgShape"></path><rect width="491.55" height="983.09" x="1651.39" y="236" fill="url(#t)" rx="48.54"></rect><rect width="491.55" height="983.09" x="1636.39" y="236" fill="url(#u)" rx="48.54"></rect><path fill="#87b3df" d="M1684.93 289.24a31.5 31.5 0 0 0-31.47 31.47v796.23a31.5 31.5 0 0 0 31.47 31.47h394.46a31.5 31.5 0 0 0 31.47-31.47V320.71a31.5 31.5 0 0 0-31.47-31.47Z" class="color87b3df svgShape"></path><circle cx="1882.16" cy="261.82" r="10.4" fill="#4299f0" transform="rotate(-13.28 1882.5 261.807)" class="color4342f0 svgShape"></circle><path fill="#55a9fe" d="M1826.72 1191.67h110.89a10.4 10.4 0 0 0 0-20.79h-110.89a10.4 10.4 0 1 0 0 20.79Z" class="color555dfe svgShape"></path><path fill="#acd0f4" d="m1384.6 726.51-31.72-16.2-3.96 5.53 22.47 20.2 1.72 4.79h-43.37l-25.8-16.25-6.33 6.51 28.32 30.29 78.38 9.49v-30.04l-19.71-14.32z" class="colorf4acc8 svgShape"></path><path fill="#ffffff" d="M1442.3 738.74H1403v37.88l39.3 3.39v-41.27z" class="colorffffff svgShape"></path><path fill="#5f7ce9" d="M1810.12 508.55c-24.95 1.88-46.1 10.25-65.55 35.06-40.26 51.39-77.57 107.2-111.18 161.17a67.14 67.14 0 0 1-56.63 31.61l-151.56.87v53.26c53.28 11.32 123.78 16.33 176 11.43a138.86 138.86 0 0 0 77.64-33.26c54.45-46.92 105.27-104.72 149.26-165.18 39.47-52.92 21.72-80.17-17.98-94.96Z" class="colore95f7c svgShape"></path><path fill="#282f4a" d="M1749.77 955.89h252.35c15.67 75.06 20.57 128.45 24.1 192.52h-129L1887 1110.1c-2.18 17.11-4.35 28.22-6.45 38.31H1760.4Z" class="color28394a svgShape"></path><path fill="#5f7ce9" d="M1751 576.39a65.92 65.92 0 0 1 48.62-66.62c50.43-13.54 106.79-21.08 158-16.41 26.3 2.39 51.23 8 73.29 17.69 18 7.88 28.94 25.38 28.15 46-2.4 62.24-22.39 147.44-38.08 205.92a343.47 343.47 0 0 0-7.7 141.28l18.52 120.31h-301.51s24.13-370.83 20.71-448.17Z" class="colore95f7c svgShape"></path><path fill="#ebf2f9" d="M1813.94 832.26 1827 554.41a63.63 63.63 0 0 1 57.36-60.29c12-1.19 24.08-1.91 36-2.08a22.56 22.56 0 0 1 22.2 28.14l-67 262.3a343.89 343.89 0 0 0-10.32 101.64l4.56 95.1H1815Z" class="colorebf1f9 svgShape"></path><path fill="#282f4a" d="m1869.78 979.22 2.16 48.33h-61.86l4.9-48.33h54.8z" class="color28394a svgShape"></path><path fill="#acd0f4" d="m1958.96 892.12-35.33 4.44-.16 6.8 29.93 4.07 4.12 2.98-35.85 24.4-30.48 1.09-1.57 8.93 40.46 9.12 70.14-36.25-16.9-24.84-24.36-.74z" class="colorf4acc8 svgShape"></path><path fill="#ffffff" d="m2013.55 869.76-32.49 22.11 21.31 31.31 34.4-19.3-23.22-34.12z" class="colorffffff svgShape"></path><path fill="#5f7ce9" d="m2040.66 516.79-77.05 78.8c36.3 55.64 85.31 122.48 131.22 174.6a30.72 30.72 0 0 1-5.7 45.58l-90.55 62.39 30 44c49.38-20.19 129.37-57.74 151.28-90.42 15.18-22.65 13.59-52.75 1.85-77.36-29.87-62.51-92.92-187.94-141.05-237.59Z" class="colore95f7c svgShape"></path><path fill="#acd0f4" d="m1857.41 457.96 11.01 75.45 61.08-35.07-28.74-78.44-43.35 38.06z" class="colorf4acc8 svgShape"></path><path fill="#acd0f4" d="M1831.61 463.6c2.13 13.49 17.53 23 40.87 8.87l37.19-27.42 7.18-66.61-31.34-44.72-73.75 18.08Z" class="colorf4acc8 svgShape"></path><path fill="#acd0f4" d="m1823.48 404-7.91 27.74a6.27 6.27 0 0 0 6.27 8l6.53-.25Z" class="colorf4acc8 svgShape"></path><path fill="#282f4a" d="M1827.92 442.85h21a25.75 25.75 0 0 0 24.54-23.85s-.57-14.52-1.36-26.41a15.94 15.94 0 0 0-14.62-14.84l-45.25-3.71c-22.46-2.11-29.62-15.3-22.22-39l19.23.23 71.92-13c31.95-6.15 49.38 15.26 46 52.54l-5.66 45.49c-1.52 12.26-1.14 18.67-11.88 24.77l-7.14-11.76a23.85 23.85 0 0 1-1.44-21.37 25.83 25.83 0 0 0 1.29-4.26c1.75-8.18-.56-15.61-5.16-16.59s-9.75 4.84-11.5 13c-1.1 5.14 2.69 29.56 5 43.08a16 16 0 0 1-5.62 14.95l-24 19.18c-20.81 14.14-31.35-3.52-32.64-17.11Z" class="color28394a svgShape"></path><path fill="#ffffff" d="m1921.17 475.6-46.56 37.04-12.82-24.68-6.73 13.78-6.42 53.64 21.9-20.55 30.97 26.81 32.47-65.43-12.81-20.61z" class="colorffffff svgShape"></path><path fill="#5b94ce" d="m1311.88 1198.79-260 .07c-31.57.47-58.36-28-58.34-63.7v-40.06c0-35.74 18.64-150.59 86.16-150.61 142.85 0 149.62 127.14 232.37 151.24 18 5.23 33 15.8 33.05 41.77v15c.05 25.93-14.57 46.63-33.24 46.29Z" class="color815bce svgShape"></path><path fill="#f0f4f8" d="M1339.64 1028.9a31.92 31.92 0 0 1-20.87 40.09L1186 1110.68c-39.65 12.55-57-15.46-66.62-45.91l180.28-56.7a31.92 31.92 0 0 1 40 20.83Z" class="colorf0f0f8 svgShape"></path><path fill="#373c4f" d="m1207.72 1148.03 5.6 7.84.49 18.18 5.64 11.45-4.69 3.82-21.91-30.68 14.87-10.61z" class="color37384f svgShape"></path><path fill="#f0f4f8" d="m1332.67 1060.17-114.26 99.65-16.52-12.82c29.18-50.49 58.33-91.49 97.22-123.8 16.87-12.11 33.63-10.23 39.1.24 6.07 11.64 6.43 25.24-5.54 36.73Z" class="colorf0f0f8 svgShape"></path><path fill="#5f7ce9" d="M1173.82 1026.41c4.42-37.75 12.11-95.28 2.74-102.58l-27.8-.42c-4.18 38.39 2 115 2 115 18.91 20.09 59.62 27 80.43 28.38l3.65-7.57Z" class="colore95f7c svgShape"></path><path fill="#0a2db3" d="m1231.93 1058.39 15.44-2.04 10.85 6.76 2.38 7.47-7.77-3.82h-21.69l.79-8.37z" class="colorb3680a svgShape"></path><path fill="#5f7ce9" d="M1155.07 1027.87c0-24.94 22.52-83.15 21.49-104-28.84-20.4-84.08-25.9-121.66 0-1.13 35 19.68 109.67 19.68 109.67l-2.56 43.21H1161Z" class="colore95f7c svgShape"></path><path fill="#4e6cdc" d="m1074.58 1033.5-1.64 27.7c6.23 16.82 69 7.34 86.39 2.08l-.64-5.37h-13.12l-48.57-32.33-7.36-44.69-25.9 8.38c5.26 24.18 10.84 44.23 10.84 44.23Z" class="colordc4e6f svgShape"></path><path fill="#0a2db3" d="m1130.77 892.99 3.68 30.51-23.62-10.95 2.42-28.14 17.52 8.58z" class="colorb3680a svgShape"></path><path fill="#0a2db3" d="M1140.54 895.49c-1 4.73-6.52 7.88-14.55 2.54l-12.1-12.23-2.19-21.6 11.71-15.32 25.76 7.45Z" class="colorb3680a svgShape"></path><path fill="#373c4f" d="m1150.3 850.54-25.19-5.64c-11.18-2.64-17.64 4.66-17 17.86l1.33 16.14c.36 4.34.13 6.6 3.84 8.91 0 0 5.33-3.4 3.11-13.09-.66-2.88.42-5.5 2.06-5.78s2.87 2 3.87 4.77c1.19 3.29 3.88-.89 5.63-8.69l-9.32-7.81 24.4 7c9.08 0 14.07-3.53 14.07-13.53Z" class="color37384f svgShape"></path><path fill="#5f7ce9" d="M1054.9 923.83c13.93-5.36 32 6.13 33.43 18 3.23 26.76.69 55-1.56 83.9l72.56 27.52-2.85 7.91c-20.84.82-70.68-4.7-91.56-22.74 0-.04-30.53-100.32-10.02-114.59Z" class="colore95f7c svgShape"></path><path fill="#0a2db3" d="m1156.48 1061.12 17.14-1.28 9.36 3.28.13-3a8.78 8.78 0 0 0-4.85-8.23l-5-2.48 4.82-1.19 3.92 1.78 2.14-1.09-6.08-3.32-9.74 1.34-12.45 5.73Z" class="colorb3680a svgShape"></path><path fill="#8ac4ff" d="M1227.81 1076.71h47.49a2.92 2.92 0 0 0 2.92-2.92l16.78-69.72a2.25 2.25 0 0 0-2.25-2.92h-47.49a3.89 3.89 0 0 0-3.59 2.92l-16.78 69.72a2.92 2.92 0 0 0 2.92 2.92Z" class="color8aabff svgShape"></path><path fill="#cce5ff" d="M1297.55 1001.15h-47.49a3.89 3.89 0 0 0-3.59 2.92l-16.78 67.84h-26.4v1.88a2.92 2.92 0 0 0 2.92 2.92h73.89a2.92 2.92 0 0 0 2.92-2.92l16.78-69.72a2.25 2.25 0 0 0-2.25-2.92Z" class="colorccdbff svgShape"></path><path fill="#8ac4ff" d="M1229.69 1071.91v1.88a2.92 2.92 0 0 1-2.92 2.92h-52.29a2.92 2.92 0 0 1-2.92-2.92v-1.88Z" class="color8aabff svgShape"></path><path fill="#373c4f" d="m1223.74 1246.58 8.28 4.93 7.77 16.44 9.78 8.2-2.76 5.39-32.4-19.26 9.33-15.7z" class="color37384f svgShape"></path><path fill="#f0f4f8" d="M1264.05 1076.71H1072c0 31.93 8.08 63.87 49.67 63.87h111.73c-8.17 32.86-12.62 66.1-15.06 107.51l20.27 5.07 48.41-144.5a24.25 24.25 0 0 0-22.97-31.95Z" class="colorf0f0f8 svgShape"></path><path fill="#5f7ce9" d="m514.83 1050.7 8.95 108c3.64 43.87 40.32 76.09 89 76.09h121.9c26.45 0 44.82-25.74 36.17-49.46l-21.23-58.16c-4.78-13.1-17.86-21.72-32.71-21.72h-30.47c-12.37 0-23.24-6-28.54-15.54l-21.67-39.24c-19.09-41.01-122.23-45.26-121.4.03Z" class="colore95f7c svgShape"></path><path fill="#80bfff" d="m775 1185-21.06-57.72c-5.58-15.27-20.93-26.41-38.16-25.54-15.06.76-36.93 2.94-36.93 2.94s21.87 4.32 36.93 5.08c12.16.61 22.93 11.18 26.76 21.68l21.06 57.72a29.45 29.45 0 0 1-3.77 27.28 31.79 31.79 0 0 1-26.42 13.66h-49.3v12.13h49.3a44.36 44.36 0 0 0 36.36-18.83A41.41 41.41 0 0 0 775 1185Z" class="colorff809a svgShape"></path><path fill="#f0f4f8" d="M762 1377.79h-92.47a5.52 5.52 0 0 1 0-11H762a23.78 23.78 0 0 0 23.73-23.79v-66a23.78 23.78 0 0 0-23.73-23.74h-92.47a5.51 5.51 0 0 1 0-11H762a34.81 34.81 0 0 1 34.75 34.74v66a34.81 34.81 0 0 1-34.75 34.79Z" class="colorf0f0f8 svgShape"></path><path fill="#4c99e7" d="M696.46 1107.37s-20.46-97.13 11.66-108.19c5.54 3 9.63 12.73 9.52 30.82l-1.07 62.44Z" class="color5f4ce7 svgShape"></path><path fill="#4c99e7" d="m790.43 1116.56-1.89 8c-19.5 3-69-2.9-92.08-17.15l4.44-10.61 7.55-10.6Z" class="color5f4ce7 svgShape"></path><path fill="#abcff3" d="m788.54 1124.52 17.1-1.78 9.45 3v-3a8.76 8.76 0 0 0-5.08-8.08l-5-2.34 4.79-1.33 3.94 1.67 2.1-1.15-6.17-3.14L800 1110l-11.44 5.83Z" class="colorf3abc7 svgShape"></path><path fill="#3f8bd8" d="m704.9 930.57-30.31 2.68-6.94 24.75-9.21 43.32 30.08 5.28c22.16-24.78 24.71-49.07 16.38-76.03Z" class="color653fd8 svgShape"></path><path fill="#4c99e7" d="M708.12 999.18c-30.28-13.89-46-16-79.09 0-4.46 27.2-1.46 48.86 2.3 71.83 3.15 19.23-26.09 34.57-26.09 77.62H706s-1.42-98.82 2.12-149.45Z" class="color5f4ce7 svgShape"></path><path fill="#abcff3" d="M648.71 991.23c1.72 9.78 12 19.11 24.38 21.6 13.62 2.74 24.66-3.76 24.66-14.53a16.39 16.39 0 0 0-.46-3.8c-17.71-7.06-30.95-8.7-48.58-3.27Z" class="colorf3abc7 svgShape"></path><path fill="#3652ba" d="M631.33 1071c-.65-4-1.27-7.89-1.84-11.81l18.07-7.06 4 31.55a27.38 27.38 0 0 0 8.22 16.28l40.58 38.79c-18 .93-35.19.48-51.14-2.35-22-3.91-33.23-28.25-22.45-47.76 3.42-6.12 5.54-11.64 4.56-17.64Z" class="color5736ba svgShape"></path><path fill="#4c99e7" d="M648.6 1094.82a7.71 7.71 0 0 1-3.35-6.86l3.63-56.28c1.21-18.05-6.87-31.28-19.85-32.5-16.64 13.21-10.88 101.9-8.32 103.9 5.09 17.23 59.49 38.86 79.68 35.68v-8.66Z" class="color5f4ce7 svgShape"></path><path fill="#abcff3" d="m700.39 1138.76 17.09-1.79 9.45 3v-3a8.78 8.78 0 0 0-5.08-8.09l-5-2.33 4.79-1.33 3.94 1.66 2.1-1.15-6.17-3.13-9.69 1.62-11.43 5.83Z" class="colorf3abc7 svgShape"></path><path fill="#899eb3" d="M801.94 1203.69c-48.2 3.46-104 8.81-136.72 8.81-41.59 0-60-35.33-60-63.87h206.66c15.9 0 25.12 13.69 26.29 20.87Z" class="color899ab3 svgShape"></path><path fill="#7f92a6" d="m780.11 1174.55-114.89 37.95h122.04l-7.15-37.95z" class="color7f8fa6 svgShape"></path><path fill="#899eb3" d="m838.17 1169.5-36.23 34.19c4.33 34.34 15 77.46 28.65 119.71H853Z" class="color899ab3 svgShape"></path><path fill="#abcff3" d="M836.7 1323.4c1.56 4.84 3.17 9.67 4.83 14.45h12.88L853 1323.4ZM738.57 1344.45l-2.45 14.45H749l5.88-14.45h-16.31z" class="colorf3abc7 svgShape"></path><path fill="#8bc5ff" d="M718.17 1148.88h100.3a2.92 2.92 0 0 0 2.92-2.92l16.77-69.71a2.25 2.25 0 0 0-2.24-2.93h-100.3a3.89 3.89 0 0 0-3.59 2.93L715.25 1146a2.92 2.92 0 0 0 2.92 2.88Z" class="color8bacff svgShape"></path><path fill="#cce5ff" d="M840.72 1073.32h-100.3a3.89 3.89 0 0 0-3.59 2.93l-16.78 67.83h-26.4v1.92a2.92 2.92 0 0 0 2.92 2.92h126.7a2.92 2.92 0 0 0 2.92-2.92l16.81-69.75a2.25 2.25 0 0 0-2.28-2.93Z" class="colorccdbff svgShape"></path><path fill="#8bc5ff" d="M720.05 1144.08v1.92a2.92 2.92 0 0 1-2.92 2.92h-52.29a2.92 2.92 0 0 1-2.92-2.92v-1.88Z" class="color8bacff svgShape"></path><path fill="#899eb3" d="M795.75 1174a22.61 22.61 0 0 0-28.7 14.88c-13.26 43.11-26.93 109.66-34.39 155.57h22.22l54.59-140.19a22.59 22.59 0 0 0-13.72-30.26Z" class="color899ab3 svgShape"></path><path fill="#373c4f" d="M736.12 1358.9H749l11.75 10.79 12.6 2.06.38 6.04h-42.5l4.89-18.89zM839.56 1332.1l14.47 1.86 7.83 12.88 11.96 4.44-.79 6-35.87-7.04 2.4-18.14z" class="color37384f svgShape"></path><path fill="#abcff3" d="m687.3 971.49-2.58 18.75-18.06-2.24 4.47-27.82 16.17 11.31z" class="colorf3abc7 svgShape"></path><path fill="#abcff3" d="M700.1 970.82c-.58 4.65-5.69 7.64-13.76 2.18l-9.9-8.34a15.81 15.81 0 0 1-5.59-11.43l-.36-8.8a15.75 15.75 0 0 1 2.73-9.52l.6-.89a15.78 15.78 0 0 1 17.79-6.16l1.25.4a15.78 15.78 0 0 1 10.87 17.28Z" class="colorf3abc7 svgShape"></path><path fill="#3f8bd8" d="M719.52 922.63c-3.9 3.36-8.16 5.25-13.22 4l-24.52-6.15c-10.9-2.86-31.12 1.2-33.19 14.19-2.22 13.91-2 43.76-19.56 64.56 23.39 4.17 53.83-17.38 54.33-41.13.16-7.63-.67-13.69-2.18-18.31 9.15 4.27 42.82 11.34 38.34-17.16Z" class="color653fd8 svgShape"></path><path fill="#4e6cdc" d="M621.75 1205.32 599 1135.18c-5.43-16.73-21.44-27.36-40.84-27.36h-44.33l4.59 55.34c3.78 45.6 41.89 79.08 92.52 79.08h69.73l-34-7.08a52.27 52.27 0 0 1-24.92-29.84Z" class="colordc4e6f svgShape"></path><path fill="#80bfff" d="M670.73 1230.11a49.83 49.83 0 0 1-25.41-6.72 43.72 43.72 0 0 1-19.59-24.39l-21.72-67c-6-18.43-23.54-30.33-44.76-30.33H516a6.07 6.07 0 1 0 0 12.14h43.21c15.86 0 28.9 8.6 33.22 21.93l21.72 67a55.81 55.81 0 0 0 27.9 32.69 62.5 62.5 0 0 0 28.64 6.76H690v-12.13Z" class="colorff809a svgShape"></path><path fill="#f0f4f8" d="M661.6 1377.79h-92.45a5.52 5.52 0 0 1 0-11h92.45a23.77 23.77 0 0 0 23.75-23.79v-66a23.78 23.78 0 0 0-23.75-23.75h-92.45a5.51 5.51 0 0 1 0-11h92.45a34.82 34.82 0 0 1 34.78 34.75v66a34.82 34.82 0 0 1-34.78 34.79Z" class="colorf0f0f8 svgShape"></path><path fill="#4c99e7" d="M701.53 497.09h-95.25a111.58 111.58 0 1 0 0 223.15h25.33L653.9 774l22.3-53.73h25.33a111.58 111.58 0 0 0 0-223.15Z" class="color5f4ce7 svgShape"></path><path fill="#ffffff" d="M555.37 627.72h197.07v9.52H555.37zM555.37 603.91h197.07v9.52H555.37zM555.37 580.1h197.07v9.52H555.37z" class="colorffffff svgShape"></path><path fill="#5cacfd" d="M377.4 850.67h-47.63a111.58 111.58 0 0 0 0 223.15h2.5l21.31 51.37 21.32-51.37h2.5a111.58 111.58 0 0 0 0-223.15Z" class="color5cccfd svgShape"></path><path fill="#ffffff" d="M302.67 981.29h101.82v9.52H302.67zM302.67 957.48h101.82V967H302.67zM302.67 933.67h101.82v9.52H302.67z" class="colorffffff svgShape"></path><path fill="#8ab5e1" d="M1008.47 686.28h-47.62a73.54 73.54 0 1 0 0 147.08h10.35l13.46 32.44 13.46-32.44h10.35a73.54 73.54 0 0 0 0-147.08Z" class="color8ab6e1 svgShape"></path><path fill="#ffffff" d="M933.75 766.96h101.82v9.52H933.75zM933.75 743.15h101.82v9.52H933.75z" class="colorffffff svgShape"></path><path fill="#5f7ce9" d="m1605.94 461.41-60.83-25.23a147.09 147.09 0 0 0-144.88-121.85h-190.49a147.09 147.09 0 1 0 0 294.17h190.49a147.09 147.09 0 0 0 144.88-121.85Z" class="colore95f7c svgShape"></path><path fill="#ffffff" d="M1158.82 504.28h292.32v9.52h-292.32zM1158.82 480.46h292.32v9.52h-292.32zM1158.82 456.65h292.32v9.52h-292.32zM1158.82 432.84h292.32v9.52h-292.32zM1158.82 409.03h292.32v9.52h-292.32z" class="colorffffff svgShape"></path></svg>