<svg xmlns="http://www.w3.org/2000/svg" viewBox="0 0 2000 2000" id="Onlinepaymentdone"><path fill="#edf4fb" d="M1785.79,884.7c-.06,1.87-.11,3.73-.18,5.59-3.92,118.49-24.8,236.86-74.22,344.24-1.62,3.51-3.26,7.01-4.95,10.5-.8,1.67-1.62,3.34-2.44,5.01-58.99,119.63-156.49,222.85-280.37,271.71-110.3,43.51-234.59,41.82-349.91,14.22-115.31-27.59-223.18-79.75-327.8-135.56-25.09-13.38-50.1-27.04-74.86-41.14-2.21-1.24-4.42-2.51-6.63-3.78-89.45-51.28-175.45-108.52-249.78-179.63-96.77-92.59-175.29-213.3-195.55-347.46-.33-2.21-.65-4.43-.95-6.65-.84-6.09-1.54-12.2-2.13-18.34-16.61-174.59,55.46-383.98,218.82-463.03,17.03-8.24,34.28-16.09,51.72-23.54,2.59-1.11,5.19-2.21,7.8-3.3,225.83-94.72,483.44-124.29,724.36-90.55,95.81,13.42,193.72,39.67,280.03,83.45,1.98,.99,3.95,2.01,5.92,3.03,81.84,42.52,152.84,101.09,201.12,179.76,61.48,100.19,78.74,221.41,80.39,338.94,.26,18.81,.15,37.68-.39,56.54Z" class="coloredf2fb svgShape"></path><g opacity=".5" fill="#000000" class="color000000 svgShape"><path fill="#ffffff" d="M1504.67 309.47c-56.34 32.41-118.13 58.45-183.74 76.93-85.24 24.01-177.22 36.02-275.15 36.02-88.42 0-181.69-9.79-279.29-29.38-94.87-19.04-188.18-45.89-279.93-76.21 2.59-1.11 5.19-2.21 7.8-3.3 89.62 29.44 180.7 55.48 273.23 74.04 204.82 41.1 390.49 38.9 551.84-6.55 63.95-18.02 124.23-43.26 179.33-74.59 1.98.99 3.95 2.01 5.92 3.03zM1785.79 884.7c-.06 1.87-.11 3.73-.18 5.59-20.99 1.06-41.12 1.52-60.01 1.73-200.25 2.12-398.95-26.16-590.63-84.11-34.27-10.36-68.88-21.85-102.34-32.97-81.01-26.91-164.77-54.73-250.2-68.55-39.18-6.33-78.83-9.41-118.43-9.41-155.98 0-312.22 47.64-444.9 131.43-.33-2.21-.65-4.43-.95-6.65 26.97-16.95 54.99-32.44 83.96-46.41 75.11-36.24 154.22-61.14 235.15-74.02 83.16-13.24 165.95-13.39 246.07-.44 85.88 13.89 169.85 41.78 251.06 68.76 33.43 11.1 67.99 22.59 102.2 32.93 191.14 57.78 389.29 86.01 588.95 83.87 18.95-.2 39.17-.67 60.25-1.75zM1706.44 1245.04c-.8 1.67-1.62 3.34-2.44 5.01-26.82-13.8-54.15-26.72-82.02-38.61-229.78-98.03-465.84-103.87-647.65-16.04-40.7 19.67-79.65 44.38-117.32 68.28-43.15 27.38-87.77 55.69-135.35 76.64-16.52 7.27-33.41 13.59-50.6 18.96-2.21-1.24-4.42-2.51-6.63-3.78 18.7-5.64 37.07-12.39 54.98-20.28 47.2-20.78 91.64-48.98 134.61-76.24 37.81-23.99 76.9-48.79 117.89-68.6 96.12-46.44 205.36-67.17 324.7-61.63 107.01 4.97 220.28 31.78 327.56 77.55 27.98 11.93 55.38 24.89 82.28 38.73z" class="colorffffff svgShape"></path></g><path fill="#edf4fb" d="M1606.05 337.91c4.15 4.11 8.05 8.61 13.07 11.6 5.02 2.99 11.56 4.22 16.68 1.4 4.66-2.58 7.17-8.08 7.28-13.4.1-5.32-1.86-10.48-4.38-15.18-10.44-19.49-31.36-32.94-53.43-34.36-12.19-.78-35.12 10.46-19.15 23.39 6.1 4.94 14.66 7.35 21.33 11.64 6.7 4.31 12.96 9.31 18.61 14.92zM235.86 492.75c-3.95 6.46-8.68 13.5-16.08 15.12-10.34 2.26-19.94-8.15-20.96-18.69-1.02-10.53 3.88-20.64 8.64-30.08 4.77-9.46 9.71-19.16 17.55-26.29 7.84-7.14 19.33-11.26 29.26-7.55 31.52 11.78-9.7 53.27-18.4 67.49zM1700.53 1298.06c-3.4 5.23-4.82 12.36-1.52 17.65 2.68 4.3 7.94 6.46 13 6.58 5.06.12 9.99-1.52 14.69-3.38 8.57-3.39 16.93-7.7 23.61-14.05 6.68-6.34 11.58-14.93 12.06-24.14.83-16.01-19.07-35.55-33.66-21.09-4.46 4.42-5.66 11.73-8.85 17.02-5.08 8.4-14.01 13.24-19.32 21.41z" class="coloredf2fb svgShape"></path><ellipse cx="1000" cy="1752.61" opacity=".05" rx="791.51" ry="62.49" fill="#000000" class="color000000 svgShape"></ellipse><g fill="#000000" class="color000000 svgShape"><rect width="767.38" height="1448.74" x="364.36" y="291.52" fill="#83b9ef" rx="46.46" ry="46.46" transform="rotate(180 748.05 1015.89)" class="color8583ef svgShape"></rect><path fill="#add0f4" d="M364.36,337.98V1693.8c0,14.94,7.05,28.23,18.01,36.73-6.09-7.86-9.72-17.73-9.72-28.44V346.27c0-25.66,20.8-46.46,46.46-46.46h674.47c10.71,0,20.57,3.63,28.43,9.71-8.49-10.95-21.78-18-36.71-18H410.81c-25.65,0-46.46,20.8-46.46,46.46Z" class="coloradadf4 svgShape"></path><rect width="707.64" height="1315.68" x="394.23" y="358.05" fill="#f3f9ff" rx="21.74" ry="21.74" transform="rotate(180 748.05 1015.89)" class="colorf3fffe svgShape"></rect><rect width="14.79" height="226.35" x="357.86" y="584.4" fill="#5aa2ea" rx="7.4" ry="7.4" transform="rotate(-180 365.25 697.58)" class="color5c5aea svgShape"></rect><rect width="14.79" height="102.28" x="357.86" y="913.61" fill="#5aa2ea" rx="7.4" ry="7.4" transform="rotate(-180 365.25 964.75)" class="color5c5aea svgShape"></rect><path fill="#5aa2ea" d="M686.39,317.33h123.31c6.65,0,12.04,5.4,12.04,12.04h-147.4c0-6.65,5.4-12.04,12.04-12.04Z" transform="rotate(180 748.05 323.35)" class="color5c5aea svgShape"></path><path fill="#add0f4" d="M1063.2,1198.57v346.46c0,11.89-9.64,21.54-21.54,21.54H454.43c-11.89,0-21.54-9.64-21.54-21.54v-346.46c0-11.9,9.64-21.55,21.54-21.55h587.23c11.89,0,21.54,9.64,21.54,21.55Z" class="coloradadf4 svgShape"></path><path fill="#d6e8fa" d="M579.12 1402.98h-82.62c-3.59 0-6.5-2.91-6.5-6.5s2.91-6.5 6.5-6.5h82.62c3.59 0 6.5 2.91 6.5 6.5s-2.91 6.5-6.5 6.5zM579.12 1493.32h-82.62c-3.59 0-6.5-2.91-6.5-6.5s2.91-6.5 6.5-6.5h82.62c3.59 0 6.5 2.91 6.5 6.5s-2.91 6.5-6.5 6.5zM537.81 1508.69h-43.55c-2.05 0-3.72-1.66-3.72-3.72s1.66-3.72 3.72-3.72h43.55c2.05 0 3.72 1.66 3.72 3.72s-1.66 3.72-3.72 3.72zM706.58 1402.98h-82.62c-3.59 0-6.5-2.91-6.5-6.5s2.91-6.5 6.5-6.5h82.62c3.59 0 6.5 2.91 6.5 6.5s-2.91 6.5-6.5 6.5zM834.04 1402.98h-82.62c-3.59 0-6.5-2.91-6.5-6.5s2.91-6.5 6.5-6.5h82.62c3.59 0 6.5 2.91 6.5 6.5s-2.91 6.5-6.5 6.5zM961.5 1402.98h-82.62c-3.59 0-6.5-2.91-6.5-6.5s2.91-6.5 6.5-6.5h82.62c3.59 0 6.5 2.91 6.5 6.5s-2.91 6.5-6.5 6.5z" class="colord6d6fa svgShape"></path><path fill="#83b9ef" d="M1063.2,1221.43v323.59c0,11.89-9.64,21.54-21.54,21.54H454.43c547.14,0,604.08-264.76,608.76-345.13Z" opacity=".2" class="color8583ef svgShape"></path><rect width="102.54" height="68.34" x="486.54" y="1260.16" fill="#91c6fc" rx="5.97" ry="5.97" class="colorfcf391 svgShape"></rect><path fill="#48a1fa" d="M537.81,1262.95c6.45,0,11.7,5.25,11.7,11.7v39.37c0,6.45-5.25,11.7-11.7,11.7s-11.7-5.25-11.7-11.7v-39.37c0-6.45,5.25-11.7,11.7-11.7m0-2.79h0c-8,0-14.49,6.49-14.49,14.49v39.37c0,8,6.49,14.49,14.49,14.49h0c8,0,14.49-6.49,14.49-14.49v-39.37c0-8-6.49-14.49-14.49-14.49h0Z" class="colorfaea48 svgShape"></path><rect width="102.54" height="2.79" x="486.54" y="1292.94" fill="#48a1fa" class="colorfaea48 svgShape"></rect><path fill="#ffffff" d="M678.37,1179.02c0,134.42-108.98,243.4-243.4,243.4-.69,0-1.38,0-2.08,0v-223.84c0-11.9,9.64-21.55,21.54-21.55h223.93c0,.67,0,1.33,0,2Z" opacity=".05" class="colorffffff svgShape"></path><g fill="#000000" class="color000000 svgShape"><rect width="628.23" height="181.47" x="434.97" y="898.65" fill="#d6e8fa" rx="17.76" ry="17.76" class="colord6d6fa svgShape"></rect><path fill="#add0f4" d="M596.96,948.81h-111.11c-2.05,0-3.72-1.66-3.72-3.72s1.66-3.72,3.72-3.72h111.11c2.05,0,3.72,1.66,3.72,3.72s-1.66,3.72-3.72,3.72Z" class="coloradadf4 svgShape"></path><rect width="167.86" height="50.15" x="834.04" y="964.31" fill="#add0f4" rx="13.11" ry="13.11" class="coloradadf4 svgShape"></rect><path fill="#add0f4" d="M499.93 1015.8c-.82 0-1.48-.27-2-.8-.52-.54-.78-1.19-.78-1.97v-3.78c-2.26-.15-4.27-.51-6.03-1.08-1.76-.57-3.27-1.21-4.53-1.92-.85-.48-1.38-1.13-1.58-1.94-.2-.81-.16-1.59.14-2.33.3-.74.8-1.26 1.5-1.56.7-.3 1.54-.17 2.5.39 1.04.59 2.4 1.16 4.08 1.69 1.68.54 3.71.81 6.08.81 2.78 0 4.78-.49 6-1.47 1.22-.98 1.83-2.21 1.83-3.69 0-1.22-.43-2.22-1.28-3-.85-.78-2.37-1.41-4.56-1.89l-5.89-1.28c-6.7-1.44-10.06-4.96-10.06-10.56 0-3.11 1.06-5.73 3.19-7.86 2.13-2.13 4.99-3.42 8.58-3.86v-3.94c0-.78.26-1.43.78-1.97.52-.54 1.19-.81 2-.81s1.43.27 1.97.81c.54.54.81 1.19.81 1.97v3.89c1.48.15 3.05.5 4.69 1.06 1.65.56 3.08 1.32 4.31 2.28.7.56 1.11 1.19 1.22 1.92s0 1.39-.36 2c-.35.61-.89 1.02-1.61 1.22-.72.2-1.57.03-2.53-.53-1.07-.63-2.28-1.14-3.61-1.53-1.33-.39-2.93-.58-4.78-.58-2.37 0-4.23.53-5.58 1.58-1.35 1.06-2.03 2.44-2.03 4.14 0 1.26.41 2.27 1.22 3.03.81.76 2.2 1.36 4.17 1.81l6.06 1.33c3.56.78 6.17 2.01 7.83 3.69 1.67 1.69 2.5 3.9 2.5 6.64 0 3.11-1.07 5.66-3.19 7.64-2.13 1.98-4.9 3.23-8.31 3.75v3.94c0 .78-.26 1.43-.78 1.97-.52.54-1.19.8-2 .8zM564.07 993.1h-29.65c-2.05 0-3.72-1.66-3.72-3.72s1.66-3.72 3.72-3.72h29.65c2.05 0 3.72 1.66 3.72 3.72s-1.66 3.72-3.72 3.72zM611.79 993.1h-29.65c-2.05 0-3.72-1.66-3.72-3.72s1.66-3.72 3.72-3.72h29.65c2.05 0 3.72 1.66 3.72 3.72s-1.66 3.72-3.72 3.72zM659.5 993.1h-29.65c-2.05 0-3.72-1.66-3.72-3.72s1.66-3.72 3.72-3.72h29.65c2.05 0 3.72 1.66 3.72 3.72s-1.66 3.72-3.72 3.72z" class="coloradadf4 svgShape"></path></g><g fill="#000000" class="color000000 svgShape"><circle cx="749.08" cy="619.13" r="156.83" fill="#add0f4" class="coloradadf4 svgShape"></circle><path fill="#ffffff" d="M706.88,703.5c-5.33,0-10.66-2.03-14.73-6.1l-42.65-42.65c-8.14-8.14-8.14-21.33,0-29.47,8.14-8.14,21.33-8.14,29.47,0l27.92,27.92,112.32-112.32c8.14-8.14,21.33-8.14,29.47,0,8.14,8.14,8.14,21.33,0,29.47l-127.06,127.06c-4.07,4.07-9.4,6.1-14.73,6.1Z" class="colorffffff svgShape"></path><path fill="#add0f4" d="M755.47,804.81c-2.49,0-4.55-1.97-4.64-4.48-.09-2.56,1.92-4.71,4.48-4.8,10.01-.35,20.02-1.55,29.76-3.56,2.51-.52,4.97,1.09,5.49,3.61s-1.09,4.97-3.61,5.49c-10.25,2.12-20.79,3.39-31.33,3.75-.05,0-.11,0-.16,0Zm-18.63-.68c-.14,0-.28,0-.42-.02-10.65-.96-21.09-2.62-31.02-4.94-2.5-.58-4.05-3.08-3.47-5.58,.58-2.5,3.08-4.05,5.58-3.47,9.52,2.22,19.52,3.81,29.74,4.73,2.56,.23,4.44,2.49,4.21,5.04-.22,2.41-2.24,4.23-4.62,4.23Zm67.23-7.71c-1.97,0-3.8-1.26-4.43-3.24-.78-2.44,.57-5.06,3.02-5.84,9.5-3.02,18.82-6.89,27.68-11.5,2.28-1.18,5.08-.3,6.26,1.98,1.18,2.28,.3,5.08-1.98,6.26-9.33,4.85-19.14,8.92-29.15,12.11-.47,.15-.94,.22-1.41,.22Zm-115.56-2.21c-.49,0-.99-.08-1.48-.24-10.1-3.39-19.85-7.58-28.97-12.48-2.26-1.21-3.11-4.03-1.9-6.29s4.03-3.11,6.29-1.9c8.66,4.65,17.92,8.63,27.53,11.85,2.43,.82,3.74,3.45,2.93,5.88-.65,1.94-2.46,3.17-4.4,3.17Zm160.07-19.04c-1.51,0-2.99-.74-3.88-2.09-1.41-2.14-.82-5.02,1.32-6.43,8.33-5.49,16.25-11.73,23.55-18.55,1.88-1.75,4.81-1.65,6.57,.22,1.75,1.87,1.65,4.81-.22,6.57-7.68,7.18-16.02,13.75-24.79,19.52-.79,.52-1.67,.77-2.55,.77Zm-204.26-2.82c-.91,0-1.82-.26-2.62-.81-8.7-5.96-16.89-12.75-24.33-20.17-1.82-1.81-1.82-4.75,0-6.57,1.81-1.82,4.75-1.82,6.57,0,7.04,7.02,14.78,13.44,23.02,19.09,2.12,1.45,2.66,4.34,1.21,6.46-.9,1.31-2.36,2.02-3.84,2.02Zm241.39-29.64c-1.08,0-2.17-.38-3.05-1.14-1.93-1.69-2.14-4.62-.45-6.55,6.57-7.53,12.52-15.67,17.71-24.19,1.34-2.19,4.19-2.88,6.38-1.55,2.19,1.33,2.89,4.19,1.55,6.38-5.46,8.97-11.74,17.53-18.64,25.46-.92,1.05-2.21,1.59-3.5,1.59Zm-277.52-3.89c-1.36,0-2.71-.6-3.63-1.74-6.54-8.16-12.42-17.02-17.47-26.33-1.22-2.26-.39-5.08,1.87-6.3,2.26-1.22,5.08-.39,6.3,1.87,4.79,8.83,10.36,17.22,16.55,24.95,1.6,2,1.28,4.93-.72,6.53-.86,.69-1.88,1.02-2.9,1.02Zm304.57-37.36c-.67,0-1.35-.14-1.99-.45-2.32-1.1-3.3-3.87-2.2-6.19,4.29-9.02,7.83-18.47,10.51-28.08,.69-2.47,3.26-3.92,5.72-3.22,2.47,.69,3.91,3.25,3.22,5.72-2.83,10.12-6.55,20.07-11.07,29.57-.8,1.67-2.46,2.65-4.2,2.65Zm-329.6-5.13c-1.82,0-3.55-1.08-4.29-2.87-3.99-9.64-7.22-19.75-9.59-30.05-.58-2.5,.98-4.99,3.48-5.57,2.5-.58,4.99,.98,5.57,3.48,2.26,9.8,5.33,19.42,9.12,28.58,.98,2.37-.14,5.09-2.51,6.07-.58,.24-1.18,.35-1.78,.35Zm344.49-41.9c-.26,0-.52-.02-.79-.07-2.53-.43-4.23-2.83-3.8-5.36,1.67-9.8,2.52-19.85,2.52-29.87v-.4c0-2.57,2.06-4.65,4.63-4.66h.02c2.56,0,4.64,2.07,4.65,4.63v.43c0,10.55-.89,21.12-2.65,31.44-.39,2.26-2.35,3.87-4.57,3.87Zm-357.15-5.79c-2.3,0-4.3-1.71-4.6-4.05-1.09-8.41-1.64-16.98-1.64-25.48,0-1.99,.03-4.01,.09-6,.08-2.57,2.23-4.61,4.78-4.5,2.56,.08,4.58,2.22,4.5,4.78-.06,1.9-.09,3.82-.09,5.72,0,8.1,.53,16.27,1.56,24.28,.33,2.54-1.47,4.87-4.01,5.2-.2,.03-.4,.04-.6,.04Zm358.73-43.92c-2.35,0-4.37-1.78-4.62-4.16-1.04-9.94-2.94-19.85-5.64-29.44-.7-2.47,.74-5.04,3.21-5.73,2.47-.7,5.04,.74,5.73,3.21,2.85,10.1,4.84,20.52,5.94,30.99,.27,2.55-1.59,4.84-4.14,5.1-.16,.02-.33,.03-.49,.03Zm-358.77-5.44c-.2,0-.39-.01-.59-.04-2.55-.32-4.35-2.65-4.02-5.2,1.33-10.47,3.52-20.85,6.49-30.85,.73-2.46,3.31-3.86,5.78-3.13,2.46,.73,3.86,3.32,3.13,5.78-2.83,9.53-4.91,19.41-6.18,29.38-.3,2.35-2.3,4.06-4.6,4.06Zm347-42.45c-1.85,0-3.59-1.11-4.32-2.93-3.68-9.26-8.2-18.27-13.41-26.79-1.34-2.19-.65-5.05,1.54-6.39,2.19-1.34,5.05-.65,6.39,1.54,5.49,8.97,10.24,18.46,14.12,28.21,.95,2.38-.22,5.09-2.6,6.03-.56,.22-1.14,.33-1.72,.33Zm-334.46-5.26c-.59,0-1.19-.11-1.77-.35-2.37-.98-3.5-3.69-2.53-6.06,4.03-9.8,8.91-19.23,14.48-28.05,1.37-2.17,4.24-2.81,6.41-1.44,2.17,1.37,2.81,4.24,1.44,6.41-5.29,8.36-9.92,17.32-13.74,26.62-.74,1.79-2.47,2.88-4.3,2.88Zm310.14-37.63c-1.4,0-2.78-.63-3.7-1.83-6.06-7.93-12.83-15.41-20.14-22.21-1.88-1.75-1.98-4.69-.23-6.57,1.75-1.88,4.69-1.98,6.57-.23,7.69,7.16,14.82,15.02,21.2,23.37,1.56,2.04,1.17,4.95-.87,6.51-.84,.64-1.83,.95-2.82,.95Zm-285.21-4.91c-1.02,0-2.04-.33-2.89-1.01-2.01-1.6-2.34-4.52-.74-6.53,6.58-8.25,13.94-15.92,21.88-22.81,1.94-1.68,4.87-1.47,6.55,.47,1.68,1.94,1.47,4.87-.47,6.55-7.51,6.51-14.48,13.77-20.7,21.58-.92,1.15-2.27,1.75-3.64,1.75Zm250.24-29.88c-.98,0-1.96-.31-2.8-.94-7.98-6.03-16.51-11.4-25.37-15.98-2.28-1.18-3.17-3.98-1.99-6.26,1.18-2.28,3.98-3.17,6.26-1.99,9.33,4.82,18.31,10.48,26.71,16.82,2.05,1.55,2.45,4.46,.91,6.51-.91,1.21-2.3,1.85-3.71,1.85Zm-214.19-3.73c-1.48,0-2.93-.7-3.83-2.01-1.46-2.11-.92-5.01,1.19-6.46,8.58-5.91,17.83-11.13,27.49-15.52,2.34-1.06,5.09-.03,6.15,2.31,1.06,2.34,.03,5.09-2.31,6.15-9.17,4.17-17.94,9.12-26.06,14.71-.8,.55-1.72,.82-2.63,.82Zm171.15-20.37c-.56,0-1.14-.1-1.69-.32-9.3-3.64-18.97-6.5-28.76-8.51-2.51-.51-4.13-2.97-3.62-5.48,.51-2.51,2.97-4.13,5.48-3.62,10.3,2.11,20.49,5.12,30.28,8.96,2.39,.94,3.57,3.63,2.63,6.02-.72,1.83-2.47,2.95-4.33,2.95Zm-127.02-1.58c-1.94,0-3.75-1.22-4.4-3.16-.82-2.43,.48-5.07,2.92-5.89,9.72-3.28,19.98-5.88,30.5-7.73,2.53-.44,4.94,1.25,5.38,3.77,.44,2.53-1.25,4.93-3.77,5.38-10.06,1.77-19.87,4.25-29.14,7.38-.49,.17-.99,.25-1.49,.25Zm79.06-9.95c-.15,0-.31,0-.46-.02-5.78-.57-11.68-.87-17.53-.87-4.14,.17-8.29,.44-12.33,.81-2.56,.23-4.82-1.65-5.05-4.2-.23-2.56,1.65-4.82,4.2-5.05,4.23-.39,8.57-.67,12.9-.84,.06,0,.12,0,.18,0,6.19,0,12.43,.31,18.54,.91,2.55,.25,4.42,2.53,4.16,5.08-.24,2.4-2.26,4.19-4.62,4.19Z" class="coloradadf4 svgShape"></path><path fill="#5aa2ea" d="M749.08,778.29c-87.76,0-159.16-71.4-159.16-159.16s71.4-159.16,159.16-159.16,159.16,71.4,159.16,159.16-71.4,159.16-159.16,159.16Zm0-313.67c-85.2,0-154.51,69.31-154.51,154.51s69.31,154.51,154.51,154.51,154.51-69.31,154.51-154.51-69.31-154.51-154.51-154.51Z" class="color5c5aea svgShape"></path><path fill="#5aa2ea" d="M706.88,705.82c-6.19,0-12-2.41-16.38-6.78l-42.65-42.65c-9.03-9.03-9.03-23.72,0-32.75,9.03-9.03,23.72-9.03,32.75,0l26.27,26.28,110.68-110.68c9.03-9.03,23.72-9.03,32.75,0,9.03,9.03,9.03,23.72,0,32.75l-127.06,127.06c-4.37,4.37-10.19,6.78-16.38,6.78Zm-42.65-84.32c-4.74,0-9.48,1.8-13.09,5.41-7.22,7.22-7.22,18.96,0,26.18l42.65,42.65c3.5,3.5,8.15,5.42,13.09,5.42s9.59-1.93,13.09-5.42l127.06-127.06c7.22-7.22,7.22-18.96,0-26.18-7.22-7.22-18.96-7.22-26.18,0l-112.32,112.32c-.87,.87-2.41,.87-3.28,0l-27.92-27.92c-3.61-3.61-8.35-5.41-13.09-5.41Z" class="color5c5aea svgShape"></path></g><polygon fill="#ffffff" points="552.87 358.05 1101.87 907.05 1101.87 749.53 710.38 358.05 552.87 358.05" opacity=".1" class="colorffffff svgShape"></polygon><path fill="#ffffff" d="M394.23 379.79v236.81l707.64 707.64v-291.05L426.73 358.05h-10.76c-12.01 0-21.74 9.73-21.74 21.74zM394.23 793.91v406.45l473.37 473.37h212.53c12.01 0 21.75-9.73 21.75-21.75v-150.43L394.23 793.91z" opacity=".1" class="colorffffff svgShape"></path><path fill="#83b9ef" d="M1011.5,1673.73h68.63c12.01,0,21.75-9.73,21.75-21.75v-70.67c0,31.05-8.03,92.01-80.05,92.01-3.88,0-7.31,.14-10.33,.4Z" opacity=".15" class="color8583ef svgShape"></path><g fill="#000000" class="color000000 svgShape"><path fill="#0575e6" d="M1388.2 608.36c-.45.12-.88.32-1.28.59.42-.2.85-.39 1.28-.59zM1351.52 623.15c-.62-.09-1.3-.29-2.01-.56.62.36 1.3.56 2.01.56z" class="color29abe2 svgShape"></path><path fill="#294bcc" d="M1384.04 615.27c0 3.89 2.3 7.05 5.15 7.05.02 0 .05 0 .07 0 .16-.02.65-.09 1.66-.41 1.99-.97 3.42-3.57 3.42-6.63 0-3.89-2.3-7.05-5.15-7.05-.34 0-.67.05-.99.13-.43.2-.85.4-1.28.59-1.7 1.15-2.88 3.54-2.88 6.32zM1665.4 797.33c18.02-9.79 18.62-20.11 18.62-20.11 0 0-8.58.13-22.88 2.9 1.24 4.58 2.73 10.44 4.26 17.21z" class="colorcc8729 svgShape"></path><path fill="#0575e6" d="M1390.91,621.91c-1.01,.32-1.49,.39-1.66,.41,.58-.01,1.14-.16,1.66-.41Z" class="color29abe2 svgShape"></path><path fill="#294bcc" d="M1351.52,609.06c-2.84,0-5.15,3.16-5.15,7.05,0,2.91,1.29,5.41,3.13,6.49,.72,.27,1.4,.47,2.01,.56,2.84,0,5.15-3.16,5.15-7.05,0-2.59-1.02-4.85-2.54-6.07-.41-.23-.82-.47-1.24-.72-.43-.16-.89-.26-1.36-.26Z" class="colorcc8729 svgShape"></path><path fill="#0575e6" d="M1354.13,610.03c-.39-.31-.8-.55-1.24-.72,.42,.24,.83,.48,1.24,.72Z" class="color29abe2 svgShape"></path><path fill="#294bcc" d="M1332.45,572.02c-.45,.35-.94,.76-1.44,1.21,.47,0,.95,0,1.44,0v-1.22Z" class="colorcc8729 svgShape"></path><path fill="#54a7fb" d="M1425.78,582.76c.86-2.08,1.28-3.96,1.38-5.68-.58-.05-1.16-.09-1.74-.14,.72,1.83,.89,3.79,.36,5.82Z" class="colorfbb454 svgShape"></path><path fill="#76b9fc" d="M922.57,1674.32l47.48-32.96h0l14.75-10.24,18.21-12.64,5.48-3.81,9.27-6.43h0l19.36-13.44h-46.57s-10.9,5.25-26.68,13.44h0c-5.87,3.05-12.42,6.5-19.33,10.24-7.29,3.94-14.98,8.2-22.72,12.64-5.81,3.33-11.64,6.77-17.35,10.24h0c-6.21,3.78-12.27,7.62-17.98,11.42,9.99,1.29,24.8,6.01,36.07,21.54Z" class="colorfcc376 svgShape"></path><path fill="#325cfb" d="M1147.68,1579.2l.32,14.91c2.18-4.95,3.09-8.43,3.09-8.43,.69-3.03-.81-5.25-3.41-6.48Z" class="colorfba632 svgShape"></path><path fill="#f2f2f2" d="M847.25,1690.81v30.96c0,10.21,8.28,18.48,18.48,18.48h283.73c10.21,0,18.48-8.28,18.48-18.48v-30.96h-320.69Z" class="colorf2f2f2 svgShape"></path><path fill="#54a7fb" d="M1017.76,1608.24l-9.27,6.43-5.48,3.81-18.21,12.64-14.75,10.24h0l-47.48,32.96c1.8,2.48,3.51,5.23,5.09,8.29l126.51-87.82h-17.04l-19.36,13.44h0Z" class="colorfbb454 svgShape"></path><path fill="#f2f2f2" d="M927.66,1682.62c-1.58-3.06-3.29-5.82-5.09-8.29-11.27-15.52-26.08-20.24-36.07-21.54-21.63,14.42-38.27,28.46-39.25,38.02h84.04c-1.12-2.95-2.34-5.67-3.64-8.19Z" class="colorf2f2f2 svgShape"></path><path fill="#99ccff" d="M1254.84,490.78c0,8.15,4.72,15.19,11.58,18.55-2.7-9.36-4.3-20.58-4.59-34.02-4.28,3.78-6.98,9.31-6.98,15.47Z" class="colorffc599 svgShape"></path><path fill="#76b9fc" d="M1151.09,1585.68s-.91,3.48-3.09,8.43c-5.39,12.24-18.54,33.49-44.86,33.49-33.13,0-48.97-32.81-48.97-32.81l-126.51,87.82c1.3,2.52,2.52,5.24,3.64,8.19h236.65c0-99.97-13.45-114.53-20.35-115.42l.08,3.81c2.61,1.24,4.11,3.45,3.41,6.48Z" class="colorfcc376 svgShape"></path><path fill="#cccccc" d="M1005.52,1548.1c-2.92,0-5.28,2.36-5.28,5.28h0c0,2.92,2.36,5.28,5.28,5.28h143.38c2.92,0,5.28-2.36,5.28-5.28h0c0-2.92-2.36-5.28-5.28-5.28h-143.38Z" class="colorcccccc svgShape"></path><path fill="#f2f2f2" d="M1008.07,1594.8h46.1s15.84,32.81,48.97,32.81c26.32,0,39.47-21.25,44.86-33.49l-.32-14.91-.08-3.81-.36-16.72h-139.94l.77,36.13Z" class="colorf2f2f2 svgShape"></path><path fill="#80bfff" d="M1625.19,1372.4c-13.86,45.88-38.64,85.39-74.49,118.43l22.81,14.3,76.85-116.95-25.18-15.78Z" class="colorffb680 svgShape"></path><path fill="#acd5ff" d="M1625.19,1372.4c2.66-8.81,4.93-17.85,6.79-27.12,2.62-13.08-2.35-26.53-12.7-34.95l-164.24-133.67s62.61-145.83,68.93-234.45c-.65,.12-1.31,.18-1.99,.18h-335.16c-3.13,0-5.84-1.48-7.56-3.72-40,32.14-189.06,155.48-199.73,216.87-11.83,67.99-6.66,266.09-4.43,334.81,.48,14.67,10.56,27.29,24.78,30.95,2.22,.57,4.44,1.11,6.67,1.63,45.55,10.7,92.22,11.24,139.98,1.97,5.74-1.11,11.49-2.36,17.26-3.76,14.84-3.59,25.29-16.88,25.29-32.15v-274.4l47.71-38.43c19.73-76.88,61.64-158.71,62.69-160.76-18.96-.05-29.94-6.14-29.94-6.14,0,0,10.98,6.09,29.94,6.14l.02-.04-.02,.04c9.6,.03,21.24-1.49,34.55-6.14-13.31,4.65-24.95,6.16-34.55,6.14-1.05,2.05-42.95,83.88-62.69,160.76-7.64,29.75-11.96,58.76-9.3,82.12,7.72,67.96,188.74,195.54,259.29,242.88,17.21,11.54,40.06,10.39,55.81-3.09,2.77-2.37,5.48-4.79,8.13-7.23,35.85-33.04,60.62-72.55,74.49-118.43Z" class="colorffe0ac svgShape"></path><path fill="#f2f2f2" d="M1638.4,1491.41s36.12,4.78,54.31-22.91c14.46-22,3.92-44.66-3.35-55.88l-12.64-7.92-3.23-2.02-14.18-8.89-76.85,116.95,30.62,19.2,15.96-24.28,9.36-14.24Z" class="colorf2f2f2 svgShape"></path><path fill="#325cfb" d="M1676.72,1404.7l12.64,7.92c-2.94-4.54-5.34-7.21-5.34-7.21-2.15-2.25-4.83-2.21-7.29-.71Z" class="colorfba632 svgShape"></path><path fill="#54a7fb" d="M1629.04,1505.65l.6,23.56v.12l.29,11.16,.17,6.67v.12l.56,22.04v.12l.46,17.83v.12l1.47,57.66c3.06-.14,6.3-.06,9.73,.3l-3.92-153.95-9.36,14.24Z" class="colorfbb454 svgShape"></path><path fill="#cccccc" d="M1660.23,1392.4c1.6-2.44,.92-5.71-1.51-7.31-2.44-1.6-5.71-.92-7.31,1.51l-1.04,1.58-76.85,116.95-.85,1.3c-1.6,2.44-.92,5.71,1.51,7.31,2.44,1.6,5.71,.92,7.31-1.51l.98-1.49,76.85-116.95,.91-1.39Z" class="colorcccccc svgShape"></path><path fill="#76b9fc" d="M1684.01 1405.41s2.41 2.67 5.34 7.21c7.27 11.23 17.81 33.89 3.35 55.88-18.19 27.68-54.31 22.91-54.31 22.91l3.92 153.95c2.82.29 5.77.77 8.85 1.46l129.96-197.77c-83.55-54.91-103.1-51.65-107.63-46.38l3.23 2.02c2.46-1.5 5.14-1.54 7.29.71zM1632.59 1645.06l-1.47-57.66v-.12l-.46-17.83v-.12l-.56-22.04v-.12l-.17-6.67-.28-11.16v-.12l-.6-23.56-15.96 24.28-9.62 14.64s-1.59 11.99-3.42 29.68l-.02.15c-.67 6.54-1.38 13.86-2.04 21.63v.15c-.71 8.21-1.37 16.93-1.91 25.78 0 .05 0 .09 0 .14-.4 6.64-.73 13.35-.96 19.98 0 .04 0 .09 0 .13-.25 7.22-.37 14.35-.32 21.17 6.57-7.64 18.65-17.42 37.81-18.31z" class="colorfcc376 svgShape"></path><path fill="#f2f2f2" d="M1807,1466.06l-25.88-17.01-129.96,197.77-46.16,70.24,25.88,17.01c8.53,5.61,19.99,3.23,25.6-5.3l155.82-237.11c5.61-8.53,3.24-19.99-5.3-25.6Z" class="colorf2f2f2 svgShape"></path><path fill="#f2f2f2" d="M1642.32,1645.37c-3.43-.36-6.67-.44-9.73-.3-19.16,.89-31.24,10.67-37.81,18.31,.17,25.99,2.77,47.62,10.22,53.68l46.16-70.24c-3.08-.69-6.02-1.17-8.85-1.46Z" class="colorf2f2f2 svgShape"></path><path fill="#99ccff" d="M1346.38,555.31c28.06,0,52.93-13.67,68.33-34.7,2.17-2.97,4.16-6.08,5.93-9.33-2.37-.27-4.61-.95-6.67-1.95,2.05,1,4.3,1.68,6.67,1.95,.78,.09,1.58,.14,2.39,.14,11.4,0,20.64-9.24,20.64-20.64,0-6.93-3.42-13.06-8.67-16.81-1.25-.89-2.59-1.65-4.02-2.25-2.45-1.02-5.13-1.59-7.95-1.59s-5.6,.59-8.08,1.64v12.72c0,3.47-2.81,6.28-6.28,6.28-2.69,0-4.98-1.7-5.88-4.08-.26-.69-.41-1.43-.41-2.2v-10.36s-13.84,.8-13.52-18.88c0,0-23.76,17.76-42.49,17.76s-14.13-20.06-14.13-20.06c0,0-13.23,13.9-32.44,20.86-4.25,1.54-7.93,1.75-11.07,1.14-3.46-.67-6.27-2.31-8.51-4.27-4.93-4.3-7.06-10.08-7.06-10.08,0,0-5.08,1.39-10.96,1.37-.29,2.86-.44,5.77-.44,8.71,0,1.57,.02,3.1,.06,4.61,.29,13.44,1.89,24.66,4.59,34.02,9.87,34.16,34.52,43.58,64.79,45.54,.42,.03,.83,.05,1.25,.07,4.53,.26,9.18,.37,13.93,.37Z" class="colorffc599 svgShape"></path><path fill="#b3d9ff" d="M1338.21,554.94c3.35,.19,6.77,.3,10.23,.34-.69,.02-1.38,.02-2.07,.02-4.74,0-9.39-.11-13.93-.37-.42-.03-.83-.05-1.25-.08-30.26-1.97-54.92-11.39-64.79-45.54-2.71-9.36-4.3-20.59-4.59-34.02-.03-1.51-.06-3.04-.06-4.61,0-2.94,.15-5.84,.44-8.71,5.88,.02,10.96-1.38,10.96-1.38,0,0,.14,.38,.43,1.01-1.67,.21-3.6,.38-5.63,.37-.29,2.87-.44,5.77-.44,8.71,0,1.57,.02,3.1,.06,4.61,.29,13.44,1.88,24.66,4.59,34.02,9.87,34.16,34.52,43.57,64.79,45.54,.42,.02,.83,.05,1.25,.08Z" class="colorffd3b3 svgShape"></path><path fill="#99ccff" d="M1123.51,283.27c-1.89,14.41-.74,26.94,7.77,30.2,9.24,3.54,20.8-15.37,25.68-34.15,3.83-14.73,3.55-29.37-5.19-33.06-8.48-3.59-15.38-.59-20.7,4.58-.56,.54-1.1,1.11-1.63,1.7,.17,.79,.29,1.61,.38,2.45,.86,8.34-1.93,19.17-6.32,28.28Z" class="colorffc599 svgShape"></path><path fill="#294bcc" d="M1425.42 576.94c-1.56-3.98-5.69-7.31-10.72-9.2v8.4c3.55.25 7.12.51 10.72.8zM1149.22 558.31s-5.82-.41-11.36 3.17l11.49 1.78c-.02-3.17-.12-4.95-.12-4.95z" class="colorcc8729 svgShape"></path><path fill="#132360" d="M1280.23,470.69c2.24,1.96,5.06,3.6,8.51,4.27,3.15,.61,6.82,.4,11.07-1.14,19.2-6.96,32.44-20.86,32.44-20.86,0,0-4.59,20.06,14.13,20.06s42.49-17.76,42.49-17.76c-.32,19.68,13.52,18.88,13.52,18.88v10.36c0,.78,.15,1.52,.41,2.2,.89,2.38,3.18,4.08,5.88,4.08,3.47,0,6.28-2.81,6.28-6.28v-12.72c2.48-1.06,5.21-1.64,8.08-1.64s5.51,.57,7.95,1.59c1.43,.6,2.78,1.36,4.02,2.25,8.14-50.28-10.85-58.96-10.85-58.96,0,0,13.56-.48,12.84-6.12s-15.32-1.72-15.32-1.72c0,0,5.44-17.52,0-18.32-5.44-.8-8.56,12.48-8.56,12.48-23.76-53.05-62.33-60.81-75.13-55.53-12.8,5.28-3.04,19.04-3.04,19.04-13.6-10.08-41.36-17.58-51.37-5.92-9.2,10.72,.8,22.72,.8,22.72-18.08-2.24-36.81,8.32-35.69,22.72,1.12,14.4,14.72,13.92,14.72,13.92,0,0-19.42,7.2-18.88,28.96,.3,12.13,9.73,14.72,17.69,14.74,5.88,.01,10.96-1.37,10.96-1.37,0,0,2.13,5.77,7.06,10.08Z" class="color603813 svgShape"></path><path fill="#99ccff" d="M1425.42,576.94c-3.59-.29-7.17-.56-10.72-.8v-55.54c-15.39,21.04-40.26,34.7-68.33,34.7-4.74,0-9.4-.11-13.93-.37v18.29c-.48,0-.96,0-1.44,0-3.53,3.25-7.41,9.05-2.39,16.64,.94,1.42,2.19,2.91,3.82,4.45,6.53,6.19,14,11.24,20.43,14.99,.44,.17,.86,.41,1.24,.72,8.09,4.62,14.25,7.09,14.25,7.09,0,0,8.32-3.43,18.55-8.17,.4-.27,.83-.47,1.28-.59,9-4.2,19.24-9.32,26.5-13.96,2.4-1.53,4.48-3.02,6.08-4.4,.93-.81,1.72-1.61,2.39-2.42,1.35-1.62,2.19-3.23,2.61-4.81,.53-2.03,.36-3.99-.36-5.82Z" class="colorffc599 svgShape"></path><path fill="#54a7fb" d="M1186.81,942.37h335.16c.68,0,1.34-.06,1.99-.18,3.98-.71,7.3-3.53,8.65-7.37-2.73-.32-5.47-.65-8.21-1-75.76-9.56-155.29-28.9-155.29-28.9,0,0-24.48,.64-70.57-25.92-42.26-24.36-42-53.28-22.42-50.03-5.83-6.34-10.04-13.29-10.62-20.46-1.05-12.91,8.2-13.97,17.79-11.77-2.96-2.8-5.13-5.51-6.11-8-5.76-14.64,5.04-26.64,22.32-17.04,17.28,9.6,39.85,26.11,58.81,26.62,0,0,2.64-14.69-1.08-26.86-1.99-6.52,.41-12.2,3.07-16.08,2.04-2.97,6.46-2.89,8.46,.1l19.29,28.88c2.36,3.54,4.11,7.45,5.16,11.57l5.96,23.35h0s64.15,13,139.65,15.48l-3.99-16.31c-8.51,.96-15.22,1.01-19.77,.53,0,0-29.76-113.78-36.01-124.34,6.24,10.56,36.01,124.34,36.01,124.34,4.55,.47,11.27,.42,19.77-.53,17.52-1.97,42.67-7.82,72.4-21.07,21.53-9.6,40.33-14.63,53.93-17.26,14.3-2.77,22.88-2.9,22.88-2.9,0,0-24.48-121.46-83.05-156.02-46.82-27.63-106.71-38.54-128.87-41.81-5.56-.82-8.75-1.16-8.75-1.16,0,0,3.19,.34,8.75,1.16-19.74-28.49-47.15-32.88-57.4-33.5v21.84c5.03,1.9,9.16,5.22,10.72,9.2,.58,.05,1.16,.09,1.74,.14,.37-6.6-4.07-10.62-7.05-12.61,2.98,1.98,7.43,6.01,7.05,12.61-.1,1.72-.52,3.6-1.38,5.68-.41,1.58-1.26,3.19-2.61,4.81-.01,.02-.03,.04-.04,.06,.01-.02,.03-.04,.04-.06-.67,.81-1.45,1.62-2.39,2.42-1.6,1.38-3.68,2.86-6.08,4.4-7.26,4.64-17.5,9.76-26.5,13.96,.32-.09,.65-.13,.99-.13,2.84,0,5.15,3.16,5.15,7.05,0,3.06-1.43,5.66-3.42,6.63,2.73-.87,9.32-3.61,23.79-12.12,.86-.5,1.73-1.02,2.64-1.56-.91,.54-1.78,1.06-2.64,1.56-14.47,8.51-21.06,11.24-23.79,12.12-.52,.25-1.07,.4-1.66,.41-.02,0-.05,0-.07,0-2.84,0-5.15-3.16-5.15-7.05,0-2.78,1.18-5.17,2.88-6.32-10.22,4.74-18.55,8.17-18.55,8.17,0,0-6.16-2.47-14.25-7.09,1.52,1.22,2.54,3.48,2.54,6.07,0,3.89-2.3,7.05-5.15,7.05-.72,0-1.4-.2-2.01-.56-5-1.91-12.12-7.92-17.06-12.47-3.34-3.08-5.68-5.48-5.68-5.48,0,0,2.34,2.4,5.68,5.48,4.94,4.55,12.06,10.56,17.06,12.47-1.84-1.07-3.13-3.57-3.13-6.49,0-3.89,2.3-7.05,5.15-7.05,.47,0,.93,.09,1.36,.26-6.43-3.76-13.9-8.8-20.43-14.99-1.63-1.54-2.88-3.03-3.82-4.45-6.64-9.44-4.41-15.9-1.78-19.07-2.63,3.17-4.86,9.63,1.78,19.07-5.02-7.59-1.15-13.39,2.39-16.64,.49-.45,.98-.86,1.44-1.21v-17.08c-.42-.02-.84-.05-1.25-.07-7.09,2.24-17.05,6.81-23.41,15.77-2.49,3.5-4.42,7.67-5.42,12.64-4.05,20.11,15.72,35.29,30.08,43.47,7.75,4.41,13.93,6.78,13.93,6.78,0,0-6.18-2.37-13.93-6.78-14.36-8.17-34.14-23.35-30.08-43.47,1-4.97,2.94-9.14,5.42-12.64-25.27-.78-132.16-4.51-158.57-12.32,0,0,.11,1.78,.12,4.95,.1,17.96-2.63,81.04-43.56,123.89-7.17,7.51-15.5,14.4-25.21,20.31,0,0,51.73,34.34,147.01,40.38l14.77-53.91-14.77,53.91-50,182.44c-.84,3.06-.09,6.11,1.66,8.37,1.73,2.23,4.43,3.72,7.56,3.72Zm253.1-349.18c15.6-16.48-5.68-25.6-5.68-25.6,0,0,21.28,9.12,5.68,25.6Zm-25.2,34.94c15.95-6.46,39.96-19.3,53.45-41.66-13.49,22.35-37.5,35.2-53.45,41.66-9.4,3.8-16,5.39-16,5.39,0,0,6.6-1.59,16-5.39Z" class="colorfbb454 svgShape"></path><path fill="#294bcc" d="M1105.78,687.15c-2.78-.48-5.72-1.02-8.78-1.63-6.78-1.34-14.18-3-21.92-5.05-.03,22.08,5.49,26.98,5.49,26.98,9.71-5.91,18.04-12.8,25.21-20.31Z" class="colorcc8729 svgShape"></path><path fill="#99ccff" d="M1103.76,300.99c6.35,2.28,14.28-6.37,19.75-17.72,4.39-9.1,7.18-19.94,6.32-28.28-.09-.85-.21-1.66-.38-2.45-1.2-5.76-4.52-9.92-10.8-10.76-4.43-.59-8.7,1.32-12.73,4.91-7.73,18.5-17.58,48.76-2.17,54.3Z" class="colorffc599 svgShape"></path><path fill="#80bfff" d="M1006.53,1522.92l.54,25.19h139.94l-.5-23.22c-47.76,9.27-94.44,8.73-139.98-1.97Z" class="colorffb680 svgShape"></path><path fill="#99ccff" d="M1105.78,687.15c40.94-42.85,43.67-105.93,43.56-123.89l-11.49-1.78-2.78-.43-30.48-4.71-4.82,19.72,4.82-19.72,48.47-198.22,29.37-7.9c8.02-2.16,15.34-6.38,21.22-12.25l22-21.97c2.93-2.93,2.18-7.92-1.54-9.73-4.84-2.36-12.22-3.79-21.6,.96-17.52,8.88-30.24,7.44-30.24,7.44,0,0,27.12-67.21,32.65-88.09,5.52-20.88-17.04-20.88-22.08-9.12-3.76,8.78-18.59,44.39-25.86,61.87-4.88,18.78-16.44,37.69-25.68,34.15-8.51-3.27-9.67-15.79-7.77-30.2-5.47,11.35-13.4,20-19.75,17.72-15.41-5.54-5.56-35.8,2.17-54.3-19.85,17.65-34,75.91-34,75.91,0,0-140.18,240.52-96.02,300.56,22.87,31.09,64.42,48.12,99.17,57.32,7.74,2.05,15.14,3.71,21.92,5.05,3.06,.6,6,1.15,8.78,1.63Z" class="colorffc599 svgShape"></path><path fill="#3f66fb" d="M1684.02,777.23s-8.58,.13-22.88,2.9c-13.61,2.63-32.4,7.67-53.93,17.26-19.54,8.71-37.11,14.22-51.83,17.54-.67,.15-1.33,.29-1.98,.43-.02,0-.04,0-.06,.02-6.86,1.48-13.07,2.47-18.54,3.08l.1,.43c-12.4,1.37-19.87,.11-19.87,.11,52.67-16.34,85.46-36.1,104.75-51.21,15.37-12.04,21.7-32.35,15.76-50.95-8.88-27.83-23.7-68.65-37.57-81.23-21.56-19.54-90.73-49.34-91.71-49.77,27.62,6.3,63.98,17.24,94.7,35.36,58.58,34.56,83.05,156.02,83.05,156.02Z" class="colorfbab3f svgShape"></path><path fill="#325cfb" d="M1242.35,693.93l-14.77,53.91c-94.77-6.18-147.01-40.38-147.01-40.38,9.71-5.92,18.04-12.8,25.21-20.31,5.68-5.94,10.63-12.29,14.94-18.84l-4.14,36.42c22.06,12.39,45.92,17.46,64.45,19.42,19.02,2.01,37.88-5.02,50.91-19.03l10.42-11.2Z" class="colorfba632 svgShape"></path><path fill="#80bfff" d="M1105.78 687.15c-2.78-.48-5.73-1.02-8.78-1.63-6.78-1.34-14.18-3-21.92-5.05-15.07-3.99-31.41-9.44-46.94-16.89 12.17 1.56 24.55 2.06 35.15.34 35.53-5.76 86.06-100.67 86.06-100.67.1 17.96-2.63 81.05-43.57 123.89zM1414.71 520.6s-13.49 46.85-82.25 47.13v-12.79c4.53.26 9.18.37 13.93.37 28.06 0 52.93-13.67 68.33-34.71zM1368.36 617.11c-.37-.15-6.39-2.6-14.23-7.08-.39-.31-.81-.55-1.25-.72-6.43-3.76-13.89-8.8-20.43-14.99-1.63-1.54-2.88-3.03-3.83-4.45-5.02-7.58-1.14-13.39 2.39-16.64h1.43s-6.88 23.32 35.91 43.88zM1266.42 509.33c-.84-.41-1.65-.88-2.42-1.4-4.01-21.25-2.18-32.62-2.18-32.62.29 13.44 1.88 24.66 4.59 34.02z" class="colorffb680 svgShape"></path><path fill="#325cfb" d="M1524.39 933.82c2.74.35 5.48.68 8.21 1-1.34 3.84-4.66 6.66-8.64 7.38-.65.12-1.31.18-1.99.18h-335.15c90.2 0 153.9-14.56 198.65-33.66 27.16 6.12 84.04 18.18 138.93 25.1zM1487.19 819.52l-6.29-120.6c6.39 13.56 29.62 102.66 33.56 117.87.02.08.03.16.06.23 0 .05.03.1.04.15.05.2.1.38.14.55.03.11.05.21.08.3.03.09.05.18.07.26 0 .02 0 .03.02.05.04.15.07.28.1.38.03.15.06.24.07.28 0 0 0 .02 0 .02 6.87.33 13.59.06 19.88-.55-.03 0-.07.02-.11.02l3.98 16.3c-20.12-.66-39.44-2.07-56.94-3.78 3.98-7.09 5.34-11.47 5.34-11.47z" class="colorfba632 svgShape"></path><path fill="#f2f2f2" d="M900.25 1639.82l12.67-7.72c1.05-.64 2.25-.97 3.47-.97h71.85c.8 0 1.14 1.02.5 1.5l-9.79 7.4c-1.16.87-2.57 1.35-4.02 1.35h-74.25c-.84 0-1.15-1.11-.43-1.55zM939.05 1616.91l14.68-7.88c.97-.52 2.05-.79 3.15-.79h66.73l-12.46 8.98c-1.14.82-2.5 1.26-3.9 1.26h-67.82c-.87 0-1.16-1.16-.39-1.57zM1591.42 1644.61l.5-14.83c.04-1.22.42-2.41 1.09-3.44l39.46-60.05c.44-.67 1.48-.39 1.53.4l.8 12.25c.09 1.45-.28 2.89-1.08 4.1l-40.78 62.05c-.46.7-1.56.36-1.53-.49zM1593.58 1599.61l1.48-16.6c.1-1.1.46-2.15 1.07-3.07l35.23-53.61c.44-.68 1.49-.39 1.53.42l.55 12.76c.06 1.4-.32 2.78-1.09 3.95l-37.25 56.68c-.48.72-1.6.33-1.53-.53z" class="colorf2f2f2 svgShape"></path><path fill="#80bfff" d="M1095.79 288.82s0 .08 0 .13c0-.03 0-.07-.02-.1v-.03zM1162.82 265.25c-1.61 13.78-5.73 33.85-16.24 46.55-17.29 20.88-30-7.44-30-7.44-8.52 4.2-22.88-3.84-19.28-9.43 1.28 2.83 3.36 4.96 6.47 6.08 6.35 2.28 14.28-6.37 19.75-17.73-1.9 14.41-.75 26.94 7.77 30.2 9.23 3.54 20.8-15.36 25.68-34.15 1.64-3.94 3.67-8.8 5.86-14.08z" class="colorffb680 svgShape"></path><path fill="#1f3999" d="M1298.16,386.81c-24.36-1.93-43.72,3.7-43.68,15.96,.03,12.26,24.76,12.24,24.76,12.24,0,0-11.36,4.56-22.16,14.64-11.01,10.28-5.73,30.01-5.73,30.01-3.83-2.08-6.67-5.84-6.83-12.41-.53-21.76,18.89-28.96,18.89-28.96,0,0-13.6,.48-14.73-13.93-1.12-14.4,17.6-24.96,35.69-22.72,0,0-10-12-.8-22.72,10.01-11.67,37.76-4.17,51.37,5.92,0,0-9.76-13.76,3.04-19.04,1.58-.65,3.57-1.11,5.87-1.3-15.98,6.76-1.03,29.11-1.03,29.11,0,0-41.65-25.68-53.53-11.04-7.65,9.43,8.88,24.25,8.88,24.25Z" class="color99581f svgShape"></path><path fill="#091a59" d="M1435,473.97c-1.24-.89-2.59-1.65-4.03-2.25-2.44-1.02-5.13-1.58-7.95-1.58s-5.59,.58-8.08,1.63v12.72c0,3.48-2.81,6.28-6.28,6.28-2.69,0-4.98-1.69-5.88-4.08-.26-.69-.41-1.43-.41-2.21v-10.35s-13.84,.8-13.52-18.89c0,0-9.63,7.19-21.45,12.43,11.24-6.09,22.81-22.55,22.81-22.55-9.12,.12-15.36-4.92-15.36-4.92,32.65,1.2,41.21-27.05,41.21-27.05,0,0,15.28-1.53,16.24-3.76,.96-2.24-2.18-3.56-2.18-3.56,3.37-.12,6.54,.48,6.87,3.03,.72,5.64-12.84,6.12-12.84,6.12,0,0,18.99,8.68,10.85,58.97Z" class="color592f09 svgShape"></path><path fill="#80bfff" d="M1389.48 462.36c-12.87 8.13-30.72 16.51-43.27 16.74-17.76.33-18.64-13.68-18.64-13.68 0 0-17.04 14.88-34.81 15.36-17.76.48-23.2-14.8-23.2-14.8-6.27.37-7.35-3.99-7.35-3.99 5.88.02 10.96-1.38 10.96-1.38 0 0 2.13 5.78 7.06 10.08 2.24 1.96 5.06 3.61 8.51 4.27 3.15.61 6.82.4 11.08-1.14 19.2-6.96 32.43-20.85 32.43-20.85 0 0-4.59 20.05 14.14 20.05s42.48-17.76 42.48-17.76c-.04 2.75.19 5.1.62 7.11zM1432.92 495.96s-1.45-2.74-3.3-3.8c.31-6.15-2.01-10.79-2.01-10.79-8.97 10.19 0 18.81 0 18.81.82-1.72 1.35-3.43 1.66-5.07.83-.31 2.67-.1 3.65.85z" class="colorffb680 svgShape"></path><path fill="#5e80ff" d="M1428.78,482.29c-2.41,3.93-3.57,8.23-2.02,12.64,.49,1.43,1.22,2.89,2.04,4.37,.76,1.32-.96,2.76-2.12,1.8-7.29-5.71-7.2-14.91,0-20.64,1.2-1,2.92,.52,2.1,1.83h0Z" class="colorffa25e svgShape"></path><path fill="#5e80ff" d="M1423.32,489.07c3.14-.35,6.33,.75,8.54,2.98,.93,1.08,3.1,3.03,1.38,4.28-.66,.41-1.52,.2-1.92-.44-1.58-2.43-4.55-3.89-7.41-3.38-2.35,.43-2.94-3.05-.58-3.42h0Z" class="colorffa25e svgShape"></path><path fill="#e6e6e6" d="M1148 1594.11c-5.39 12.24-18.54 33.5-44.87 33.5-16.04 0-28.03-7.69-36.12-15.64 57.18 27.89 64.13-36.58 64.13-36.58l-123.84-16.72h139.95l.36 16.72.08 3.81.33 14.91zM1692.71 1468.51c-18.19 27.68-54.31 22.9-54.31 22.9 71.28-9.71 31.38-72.16 31.38-72.16l-87.31 91.49 76.85-116.94 14.17 8.88 3.23 2.03 12.64 7.92c7.27 11.23 17.8 33.89 3.35 55.88z" class="colore6e6e6 svgShape"></path><path fill="#54a7fb" d="M1666.99 1622.75c.88-1.38 1.82-2.81 2.79-4.26l-2.79 4.26zM1676.51 1608.25c100.72-156.72 25.28-203.06 23.45-204.16 16.04 5.83 41.33 18.79 81.17 44.97l-104.62 159.19z" class="colorfbb454 svgShape"></path><path fill="#e6e6e6" d="M1167.94 1690.82v30.96c0 10.21-8.28 18.48-18.48 18.48h-283.73c-10.21 0-18.49-8.27-18.49-18.48 170.91 0 183.4-30.96 183.4-30.96h137.3zM1812.29 1491.66l-155.82 237.11c-5.61 8.53-17.06 10.9-25.6 5.29 103.84-144.46 79.29-177.04 79.29-177.04l.02-.03 70.94-107.93 25.88 17c8.53 5.61 10.9 17.07 5.29 25.6z" class="colore6e6e6 svgShape"></path><path fill="#54a7fb" d="M1167.94,1690.82h-160.34c90.01,0,105.86-29.05,151.98-97.68,4.58,15.67,8.36,44.67,8.36,97.68Z" class="colorfbb454 svgShape"></path><path fill="#e6e6e6" d="M931.3 1690.82h-68.14c16.13-.21 42.08-1.14 66.26-4.56.66 1.46 1.28 2.98 1.88 4.56zM1651.16 1646.83l-46.16 70.24c-.33-.28-.66-.58-.97-.91 4.09-5.64 26.19-36.88 39.01-70.7 2.6.29 5.31.74 8.12 1.38z" class="colore6e6e6 svgShape"></path><path fill="#b3d9ff" d="M1092.64,265.25s-15.91,48.22-17.35,58.07c0,0-54.16,96.77-78.57,163.63-16,43.82-31.28,80.41-26.2,125.6-24.75-73.49,101.41-289.95,101.41-289.95,0,0,8.13-33.46,20.71-57.35Z" class="colorffd3b3 svgShape"></path><path fill="#80bfff" d="M1420.64,511.28c-.74,1.34-1.51,2.67-2.32,3.96h0l-1.63-2.18-.76-1.05-1.94-2.68c.16,.08,.33,.15,.48,.22,.19,.09,.38,.17,.58,.25,.28,.12,.6,.24,.96,.38,.23,.08,.47,.18,.7,.25h0c1.21,.42,2.64,.79,3.93,.85Z" class="colorffb680 svgShape"></path><path fill="#97c9fb" d="M1307.79,570.64s-43,.31-56.91-.38c-.23,0-.47-.02-.7-.02-8.64-.42-17.93-.88-27.75-1.38-56.89-2.89-73.09-8.08-73.09-8.08l-.04-.09c-.03-1.54-.08-2.38-.08-2.38,26.4,7.82,133.3,11.54,158.57,12.33Z" class="colorfbd097 svgShape"></path><path fill="#cce5ff" d="M1080.57,1024.42l-72.16,88.09c-16.49,20.12-25.94,45.08-26.91,71.07l-8.5,226.18v-.04c-1.7-87.19-2.06-204.88,6.52-254.18,5.83-33.54,52.96-85.56,101.05-131.11h0Z" class="colorffeccc svgShape"></path><path fill="#73b9ff" d="M1583.71,1370.39c-.72,0-1.41-.42-1.71-1.13-11.71-27.22-124.99-115.81-173.15-152.63-15.21-11.63-20.82-32.17-13.65-49.95,23.99-59.47,49.55-131.75,75.96-214.85,.31-.98,1.36-1.52,2.33-1.21,.98,.31,1.52,1.36,1.21,2.33-26.44,83.19-52.03,155.56-76.06,215.12-6.55,16.23-1.43,34.99,12.46,45.6,60.11,45.96,162.68,127.1,174.3,154.12,.41,.94-.03,2.04-.97,2.44-.24,.1-.49,.15-.73,.15Z" class="colorffcb73 svgShape"></path><path fill="#91c8ff" d="M1631.97,1345.27c-1.86,9.28-4.13,18.32-6.78,27.13-13.86,45.88-38.64,85.39-74.49,118.43,23.93-27.09,32.83-59.61,34.94-88.75,3.08-42.53-14.97-83.86-47.83-111.03l-112.55-93.06c-9.16-7.57-12.42-20.17-8.08-31.23l65.29-171.98c4.9-12.92-3.9-26.94-17.66-28.14l-277.99-24.25h335.15c.68,0,1.34-.06,1.99-.18-6.32,88.63-68.93,234.45-68.93,234.45l164.24,133.66c10.35,8.43,15.32,21.88,12.7,34.96Z" class="colorffd691 svgShape"></path><path fill="#73b9ff" d="M1138.14 1490.21c-1.03 0-1.86-.83-1.86-1.86v-279.3c0-15.45 7.76-29.66 20.76-38.02 30.68-19.72 83.58-54.36 93.06-64.77.69-.76 1.87-.81 2.62-.12.76.69.81 1.87.12 2.62-9.77 10.71-62.96 45.57-93.8 65.39-11.93 7.67-19.05 20.71-19.05 34.89v279.3c0 1.03-.83 1.86-1.86 1.86zM1483.54 1497.78c-.54 0-1.08-.24-1.45-.69-.64-.8-.52-1.97.28-2.61 64.49-51.84 104.82-116.18 119.87-191.25.2-1.01 1.18-1.66 2.19-1.46 1.01.2 1.66 1.18 1.46 2.19-7.57 37.76-21.5 73.09-41.42 105.03-20.15 32.3-46.98 62.04-79.76 88.38-.34.28-.75.41-1.16.41z" class="colorffcb73 svgShape"></path><path fill="#91c8ff" d="M1299.49,1015.34l-.02,.05c-.07,.13-.29,.57-.66,1.29-.1,.2-.2,.41-.31,.61-.44,.88-1.02,2.03-1.73,3.46-6.45,12.92-12.39,25.73-17.79,38.13-26.83,61.47-41.01,112.87-42.13,116.99-.03,.09-.04,.17-.07,.27l-47.71,38.43v274.4c0,15.27-10.45,28.56-25.3,32.16-5.77,1.4-11.53,2.64-17.26,3.76-44.77,8.68-88.59,8.76-131.4-.08,122.68,0,139.07-81.95,139.07-81.95l-2.86-231.33c-.12-9.34,4.45-18.11,12.16-23.38l52.95-36.19c5.77-3.94,10.42-9.32,13.48-15.6l54.45-111.56-28.25-20.8c14.16,8.8,27.11,10.14,32.81,10.73,5.7,.58,10.56,.63,10.56,.63Z" class="colorffd691 svgShape"></path><rect width="83.35" height="140.8" x="1260.21" y="707.26" fill="#021b79" rx="6.89" ry="6.89" transform="rotate(14.26 1301.872 777.626)" class="color333333 svgShape"></rect><rect width="83.35" height="140.8" x="1267.57" y="709.22" fill="#5c5c5c" rx="6.89" ry="6.89" transform="rotate(14.26 1309.222 779.589)" class="color5c5c5c svgShape"></rect><rect width="83.35" height="140.8" x="1260.21" y="707.26" fill="#021b79" rx="6.89" ry="6.89" transform="rotate(14.26 1301.872 777.626)" class="color333333 svgShape"></rect><path fill="#262626" d="M1357.92,726.37l-31.29,123.11c-.94,3.68-4.69,5.92-8.38,4.98l-58.81-14.94c-1.48-11.57,6.19-17.16,6.19-17.16-17.04-29.28,9.12-31.2,9.12-31.2-7.92-11.52-3.84-26.16,13.76-28.32,7.42-.91,16.62,2.42,24.77,6.57,11.58,5.89,25.73,.69,30.89-11.24l13.74-31.79Z" class="color262626 svgShape"></path><rect width="26.88" height="26.88" x="1280.45" y="711.06" fill="#262626" rx="4.56" ry="4.56" transform="rotate(14.26 1293.888 724.508)" class="color262626 svgShape"></rect><circle cx="1288.52" cy="728.21" r="5" fill="#5c5c5c" class="color5c5c5c svgShape"></circle><circle cx="1300.63" cy="721.01" r="5" fill="#5c5c5c" class="color5c5c5c svgShape"></circle><path fill="#73b9ff" d="M1081.56,1493.22c-34.64,0-68.63-3.46-101.73-10.37-1-.21-1.65-1.19-1.44-2.2,.21-1.01,1.19-1.64,2.2-1.44,65.7,13.73,134.96,13.73,205.86,0,1-.19,1.98,.46,2.18,1.47,.2,1.01-.46,1.98-1.47,2.18-35.68,6.91-70.97,10.37-105.6,10.37Z" class="colorffcb73 svgShape"></path><path fill="#99ccff" d="M1607.21,797.39c-29.73,13.25-54.88,19.1-72.4,21.07l3.99,16.31c9.59,.32,19.36,.46,29.21,.39-9.85,.07-19.62-.08-29.21-.39-75.49-2.48-139.65-15.48-139.65-15.48h0l-5.96-23.35c-1.05-4.12-2.8-8.03-5.16-11.57l-19.29-28.88c-2-3-6.42-3.07-8.46-.1-2.66,3.88-5.07,9.57-3.07,16.08,3.72,12.16,1.08,26.86,1.08,26.86-18.96-.51-41.53-17.01-58.81-26.62-17.28-9.6-28.08,2.4-22.32,17.04,.98,2.49,3.16,5.2,6.11,8,15.53,14.7,52.7,31.84,52.7,31.84,0,0-37.17-17.14-52.7-31.84-9.59-2.2-18.85-1.14-17.79,11.77,.58,7.16,4.8,14.12,10.62,20.46,15.68,17.05,43.06,29.62,43.06,29.62,0,0-27.39-12.57-43.06-29.62-19.58-3.26-19.84,25.67,22.42,50.03,46.09,26.56,70.57,25.92,70.57,25.92,0,0,79.54,19.33,155.29,28.9h0c2.74,.35,5.48,.68,8.21,1,51.19,5.99,99.24,6.98,118.06-6.13,33.36-23.25,23.55-92.28,14.74-131.36-1.53-6.77-3.02-12.63-4.26-17.21-13.61,2.64-32.4,7.67-53.93,17.26Z" class="colorffc599 svgShape"></path><path fill="#80bfff" d="M1650.66,928.69c-5.99,4.18-14.94,6.92-26.01,8.52,15.56-6.23,24.9-16.7,30.93-30.28,4.63-8.48,7.03-18.42,8.06-28.49,.81-7.97,.76-16.02,.26-23.51-1.33-19.75-18.52-34.62-38.26-33.04l-88.26,7.08-.03-.1-2.54-10.42c17.52-1.98,42.67-7.82,72.4-21.07,21.54-9.59,40.32-14.63,53.93-17.26,1.24,4.58,2.73,10.43,4.26,17.2,8.81,39.08,18.62,108.11-14.74,131.36Z" class="colorffb680 svgShape"></path><g fill="#000000" class="color000000 svgShape"><path fill="#2f56eb" d="M1331.17 595.67c-4.43-4.32-8.2-11.05-5.42-17.27.84-2 2.16-3.68 3.61-5.13.44-.44 1.15-.44 1.59 0 .43.43.43 1.12.03 1.56-5.95 6.37-3.06 13.15 2.83 18.22 1.79 1.76-.88 4.43-2.64 2.62h0zM1354.12 611.89c-.31 0-.63-.08-.92-.25-.41-.24-.83-.48-1.26-.73-.89-.52-1.18-1.66-.67-2.54.52-.89 1.65-1.19 2.54-.67.41.24.82.48 1.23.71.89.51 1.2 1.64.69 2.54-.34.6-.97.94-1.62.94zM1423.17 589.43c-.42 0-.84-.14-1.19-.43-.79-.66-.9-1.83-.24-2.62 1.13-1.36 1.88-2.73 2.24-4.1.26-.99 1.28-1.59 2.27-1.33.99.26 1.59 1.28 1.33 2.27-.5 1.89-1.5 3.75-2.98 5.53-.37.44-.9.67-1.43.67z" class="coloreb9b2f svgShape"></path><path fill="#2f56eb" d="M1414.7 596.25c-.61 0-1.21-.3-1.57-.86-.55-.87-.3-2.01.57-2.57 2.44-1.56 4.42-2.99 5.87-4.24.81-.7 1.52-1.42 2.17-2.2.66-.79 1.83-.9 2.62-.24.79.66.9 1.83.24 2.62-.78.94-1.64 1.81-2.6 2.64-1.59 1.37-3.7 2.9-6.29 4.56-.31.2-.66.29-1 .29zM1423.69 577.62c-1.06-3.16-3.83-5.68-6.71-7.41-.63-.37-.85-1.19-.47-1.82.35-.59 1.1-.8 1.71-.52 1.8.86 3.53 1.93 5.09 3.3 1.55 1.37 2.95 3.06 3.85 5.11.97 2.38-2.58 3.76-3.47 1.34h0z" class="coloreb9b2f svgShape"></path><path fill="#2f56eb" d="M1425.78 584.62c-.16 0-.31-.02-.47-.06-.99-.26-1.59-1.28-1.33-2.27.41-1.56.31-3.13-.29-4.67-.37-.96.1-2.03 1.05-2.41.96-.37 2.03.1 2.41 1.05.9 2.29 1.04 4.63.43 6.97-.22.83-.97 1.39-1.8 1.39zM1388.2 610.22c-.7 0-1.37-.4-1.68-1.07-.43-.93-.03-2.04.9-2.47 11.38-5.31 20.22-9.97 26.29-13.85.87-.55 2.01-.3 2.57.56.55.86.3 2.01-.57 2.57-6.21 3.97-15.19 8.7-26.72 14.08-.25.12-.52.17-.78.17z" class="coloreb9b2f svgShape"></path><path fill="#2f56eb" d="M1368.38,618.98c-.23,0-.47-.04-.69-.13-.26-.1-6.37-2.57-14.48-7.2-.89-.51-1.2-1.64-.69-2.54,.51-.89,1.64-1.2,2.54-.69,6.34,3.62,11.52,5.92,13.33,6.69,2.22-.93,9.39-3.96,17.77-7.84,.93-.43,2.04-.03,2.47,.91,.43,.93,.03,2.04-.9,2.47-10.14,4.7-18.54,8.17-18.62,8.2-.23,.09-.47,.14-.71,.14Z" class="coloreb9b2f svgShape"></path><path fill="#2f56eb" d="M1352.88 611.17c-.32 0-.64-.08-.94-.25-8.11-4.74-15.09-9.87-20.77-15.25-.74-.71-.78-1.88-.07-2.63.7-.74 1.88-.78 2.63-.07 5.47 5.19 12.23 10.15 20.09 14.74.89.52 1.18 1.66.67 2.54-.35.59-.97.92-1.61.92zM1386.92 610.81c-.7 0-1.37-.4-1.69-1.08-.43-.93-.03-2.04.9-2.47l1.27-.59c.93-.43 2.04-.03 2.47.9.43.93.03 2.04-.9 2.47l-1.28.6c-.25.12-.52.17-.78.17zM1333.37 625.13c4.27 2.77 8.75 5.35 13.34 7.53 1.06.48.45 2.09-.67 1.73-5-1.68-9.79-3.72-14.51-6.04-.92-.45-1.3-1.57-.85-2.49.48-1 1.76-1.35 2.69-.74h0z" class="coloreb9b2f svgShape"></path><path fill="#2f56eb" d="M1331.53 628.36c-17.16-9.16-37.29-26.88-30.15-48.47.95-2.82 2.37-5.51 4.31-7.74.34-.39.94-.44 1.33-.1.31.27.4.7.26 1.06-1 2.61-1.87 5.16-2.5 7.78-5.7 20.02 13.3 35.12 28.59 44.24 2.03 1.26.32 4.34-1.84 3.23h0zM1414.01 626.41c15.54-6.68 30.47-15.39 42.37-27.53 3.96-4 7.62-8.29 10.98-12.88.3-.42.89-.52 1.31-.21.37.27.48.77.28 1.17-5.24 10.5-13.72 19.09-23 26.12-9.3 7.05-19.7 12.57-30.55 16.78-2.26.82-3.61-2.44-1.39-3.45h0z" class="coloreb9b2f svgShape"></path><path fill="#2f56eb" d="M1415.4 629.86c-4.05 1.38-8.14 2.61-12.3 3.64-1.39.34-2.76.66-4.19.94-.5.1-.99-.23-1.09-.74-.09-.47.19-.92.63-1.06 5.31-1.69 10.5-3.86 15.55-6.22 2.37-1.02 3.82 2.52 1.39 3.44h0zM1389.19 624.18c-3.93 0-7-3.91-7-8.91 0-3.31 1.42-6.32 3.7-7.86.85-.57 2.01-.35 2.58.5s.35 2.01-.5 2.58c-1.25.84-2.06 2.72-2.06 4.78 0 2.81 1.51 5.19 3.29 5.19 1.03 0 1.86.83 1.86 1.86s-.83 1.86-1.86 1.86z" class="coloreb9b2f svgShape"></path><path fill="#2f56eb" d="M1389.26,624.17c-1.01,0-1.84-.81-1.86-1.82-.02-1.03,.8-1.87,1.82-1.89,.29,0,.58-.08,.87-.22,.92-.45,2.04-.07,2.49,.86,.45,.92,.07,2.04-.86,2.48-.78,.38-1.6,.58-2.44,.6h-.03Z" class="coloreb9b2f svgShape"></path><path fill="#2f56eb" d="M1390.92,623.77c-.69,0-1.35-.38-1.67-1.04-.45-.92-.07-2.03,.86-2.48,1.4-.68,2.38-2.72,2.38-4.96,0-2.81-1.51-5.19-3.29-5.19-.16,0-.34,.02-.51,.07-1,.27-2.01-.33-2.27-1.32-.26-.99,.33-2.01,1.32-2.27,.49-.13,.98-.2,1.47-.2,3.93,0,7,3.91,7,8.91,0,3.72-1.75,6.98-4.47,8.3-.26,.13-.54,.19-.81,.19Z" class="coloreb9b2f svgShape"></path><path fill="#2f56eb" d="M1386.93 610.81c-.6 0-1.18-.29-1.54-.82-.57-.85-.35-2.01.5-2.58.58-.39 1.2-.68 1.83-.85.99-.27 2.01.32 2.28 1.32.26.99-.32 2.01-1.32 2.27-.23.06-.48.18-.72.34-.32.21-.68.32-1.04.32zM1351.52 625.01c-1.03 0-1.86-.83-1.86-1.86s.83-1.86 1.86-1.86c1.78 0 3.29-2.38 3.29-5.19 0-1.93-.71-3.71-1.85-4.63-.8-.64-.92-1.81-.28-2.61.64-.8 1.81-.93 2.61-.28 2.03 1.63 3.24 4.44 3.24 7.52 0 4.99-3.08 8.91-7 8.91z" class="coloreb9b2f svgShape"></path><path fill="#2f56eb" d="M1349.51,624.45c-.32,0-.64-.08-.93-.25-2.46-1.44-4.05-4.61-4.05-8.09,0-4.99,3.08-8.91,7-8.91,.67,0,1.35,.13,2.01,.37,.96,.36,1.45,1.43,1.09,2.39-.36,.96-1.44,1.45-2.39,1.09-.25-.09-.48-.14-.71-.14-1.78,0-3.29,2.38-3.29,5.19,0,2.48,1.11,4.24,2.21,4.88,.89,.52,1.19,1.65,.67,2.54-.35,.59-.97,.92-1.61,.92Z" class="coloreb9b2f svgShape"></path><path fill="#2f56eb" d="M1354.12 611.89c-.41 0-.82-.13-1.17-.41-.23-.19-.48-.33-.73-.42-.96-.36-1.45-1.43-1.09-2.39.36-.96 1.44-1.45 2.39-1.09.62.23 1.21.57 1.76 1.01.8.64.92 1.81.28 2.61-.37.46-.9.69-1.45.69zM1351.52 625.01c-1.03 0-2.03-.27-2.95-.81-.89-.52-1.19-1.66-.67-2.54.52-.89 1.66-1.19 2.54-.67.35.2.71.31 1.08.31 1.03 0 1.86.83 1.86 1.86s-.83 1.86-1.86 1.86zM1389.19 624.18c-1.03 0-1.86-.83-1.86-1.86s.78-1.8 1.75-1.86c.06 0 .12 0 .17 0 1.01 0 1.84.81 1.86 1.82.02 1-.75 1.83-1.74 1.89-.06 0-.13 0-.18 0z" class="coloreb9b2f svgShape"></path><path fill="#2f56eb" d="M1390.35,620.14c8.99-3.31,18.07-7.57,26.78-11.63,1-.47,1.85,.96,.94,1.6-8.12,5.78-16.99,10.74-26.58,13.56-2.27,.55-3.3-2.68-1.13-3.54h0Z" class="coloreb9b2f svgShape"></path><path fill="#2f56eb" d="M1389.26 624.17c-.95 0-1.76-.72-1.85-1.68-.1-1.02.65-1.93 1.67-2.02 0 0 .36-.04 1.26-.33.98-.32 2.02.23 2.34 1.2.31.98-.23 2.02-1.2 2.34-1.08.35-1.71.46-2.05.49-.06 0-.12 0-.18 0zM1348.85 624.33c-8.62-3.34-21.07-10.68-25.51-18.96-.5-.97.86-1.86 1.55-1.02 1.57 1.9 3.55 3.49 5.57 5.01 6.11 4.42 12.93 8.28 19.71 11.49 2.2.96.96 4.23-1.33 3.47h0z" class="coloreb9b2f svgShape"></path><path fill="#2f56eb" d="M1351.53 625.01c-.09 0-.18 0-.26-.02-.72-.1-1.51-.32-2.42-.67-.96-.37-1.44-1.44-1.07-2.4.37-.96 1.44-1.44 2.4-1.07.63.24 1.17.4 1.61.46 1.02.14 1.72 1.09 1.58 2.1-.13.93-.93 1.6-1.84 1.6zM1327.19 591.06c-4.01-5.1-6.66-12.68-3.03-18.72.76-.98 1.99-3.47 3.42-2.2.35.38.39.94.13 1.36-.79 1.36-1.3 2.81-1.51 4.29-.74 4.76 1.63 9.25 4.09 13.2 1.17 2.01-1.68 3.91-3.09 2.06h0zM1420.72 563.55c2.31 1.31 4.48 3.08 6.06 5.45 1.44 1.77 4.35 9.95.18 9.85-2.45-.38-1.42-3.39-1.93-5.09-.6-3.41-2.81-6.14-5.55-8.35-1.08-.83.06-2.54 1.24-1.86h0z" class="coloreb9b2f svgShape"></path><path fill="#2f56eb" d="M1425.78 584.62c-.24 0-.48-.05-.71-.14-.95-.39-1.4-1.48-1-2.43.73-1.76 1.15-3.47 1.24-5.07.06-1.02.91-1.82 1.96-1.75 1.02.06 1.81.94 1.75 1.96-.12 2.03-.63 4.14-1.52 6.29-.3.71-.99 1.15-1.72 1.15zM1423.13 589.45c-.34 0-.69-.1-1-.3-.85-.56-1.11-1.66-.57-2.51l.07-.11c.58-.85 1.73-1.07 2.58-.49.85.58 1.07 1.73.49 2.58-.36.54-.97.83-1.58.83zM1439.1 592.43c8.01-10.45 5.1-17.17-5.16-24.15-.76-.43-.24-1.63.59-1.37 8.68 2.49 16.2 11.23 11.56 20.39-1.3 2.7-3.21 4.9-5.37 6.67-.48.39-1.19.32-1.58-.16-.33-.4-.33-.97-.04-1.38h0z" class="coloreb9b2f svgShape"></path><path fill="#80bfff" d="M1125.61,284.28c-3.61,7.46-10.15,18.86-19.5,19.56-5.8,.03-10.61-4.98-11.94-10.32-3.09-12.73,2.22-28.41,7.45-39.92,.34-.73,1.21-1.04,1.93-.7,.65,.31,.97,1.04,.78,1.71-1.77,6.36-3.62,12.66-4.9,19-1.19,6.01-2.19,12.68-.55,18.52,.92,3.12,2.78,5.43,5.6,6.45,4.61,1.43,9.42-4.67,12.03-8.14,1.84-2.56,3.45-5.34,4.91-8.2,1.42-2.65,5.38-.74,4.18,2.03h0Z" class="colorffb680 svgShape"></path><path fill="#80bfff" d="M1121.42 282.26c3.44-8.2 6.55-16.69 7.22-25.61.1-1.57 2.39-1.67 2.63-.13 1.23 9.52-1.28 19.32-5.66 27.76-1.44 2.55-5.28.7-4.19-2.02h0zM1099.77 578.38c-.18 0-.37-.02-.55-.07-1.25-.3-2.01-1.56-1.7-2.81l4.08-16.69c.3-1.25 1.56-2.01 2.81-1.7 1.25.3 2.01 1.56 1.7 2.81l-4.08 16.69c-.26 1.06-1.21 1.77-2.25 1.77zM1318.2 860.71c-7.69-3.42-14.95-7.56-21.97-12.18-6.96-4.68-13.8-9.79-19.05-16.42-1.01-1.29.68-2.99 1.97-1.97 9.64 7.53 19.54 14.61 30.24 20.57 3.56 1.99 7.18 3.99 10.77 5.79 2.63 1.39.8 5.33-1.97 4.21h0zM1286.92 798.13c5.16 2.99 10.11 6.4 15.18 9.52 11.29 6.8 23.05 12.96 34.84 18.84 1.16.56 1.64 1.97 1.06 3.12-.55 1.11-1.88 1.59-3.01 1.1-4.48-1.98-8.85-4.08-13.2-6.31-8.68-4.46-17.21-9.22-25.32-14.69-4.06-2.73-8.06-5.67-11.35-9.44-.51-.59-.45-1.48.14-1.99.47-.41 1.15-.45 1.66-.14h0zM1563.3 837.5c-7.47 0-13.44-.15-21.45-.41-1.28-.04-2.29-1.12-2.25-2.4.04-1.26 1.07-2.25 2.32-2.25.03 0 .05 0 .08 0 9.56.31 16.2.46 25.99.39h.02c1.28 0 2.31 1.03 2.32 2.31 0 1.28-1.02 2.33-2.31 2.34-1.65.01-3.22.02-4.73.02z" class="colorffb680 svgShape"></path><path fill="#2f56eb" d="M1367.02 686.59s-.1 0-.15 0c-1.02-.08-1.79-.97-1.71-2 3.98-51.15-14.64-67.39-14.83-67.55-.78-.66-.89-1.83-.24-2.61.66-.79 1.82-.9 2.61-.25.83.68 20.31 17.37 16.16 70.7-.08.97-.89 1.71-1.85 1.71zM1377.57 700.77c-.94 0-1.74-.71-1.85-1.66-6.4-60.44 11.24-84 11.99-84.98.63-.81 1.8-.96 2.61-.33.81.63.96 1.79.33 2.6h0c-.18.23-17.46 23.57-11.24 82.31.11 1.02-.63 1.94-1.65 2.04-.07 0-.13.01-.2.01z" class="coloreb9b2f svgShape"></path><path fill="#1948fb" d="M1369.36 695.63l-6.05-.46c-.59-.04-1.02-.58-.94-1.17l1.17-8.39c.08-.54.55-.92 1.09-.88l4.98.38c.54.04.96.49.95 1.04l-.1 8.47c0 .59-.51 1.06-1.1 1.01zM1382 706.73l-6 .88c-.59.09-1.12-.34-1.17-.93l-.7-8.44c-.04-.54.34-1.02.87-1.1l4.94-.73c.54-.08 1.04.27 1.15.8l1.76 8.28c.12.58-.27 1.14-.85 1.23z" class="colorfb9b19 svgShape"></path></g><ellipse cx="1611.23" cy="764.78" fill="#3f66fb" rx="6.26" ry="3.73" transform="rotate(-30 1611.235 764.79)" class="colorfbab3f svgShape"></ellipse><ellipse cx="1621.6" cy="756.32" fill="#3f66fb" rx="3.66" ry="2.62" transform="rotate(-41.49 1621.784 756.332)" class="colorfbab3f svgShape"></ellipse></g><g fill="#000000" class="color000000 svgShape"><circle cx="389.14" cy="1535.78" r="204.48" fill="#91c6fc" class="colorfcf391 svgShape"></circle><path fill="#ffffff" d="M324.95,1377.22c0,123.02,99.73,222.75,222.75,222.75,12.47,0,24.7-1.03,36.61-2.99,6.05-19.33,9.32-39.89,9.32-61.21,0-112.93-91.55-204.47-204.47-204.47-21.32,0-41.88,3.27-61.21,9.32-1.97,11.91-2.99,24.14-2.99,36.61Z" opacity=".3" class="colorffffff svgShape"></path><circle cx="389.14" cy="1535.78" r="156.83" fill="#6db4fb" class="colorfbee6d svgShape"></circle><path fill="#daecfe" d="M504.17,1642.39c-28.65,30.89-69.58,50.22-115.03,50.22-86.62,0-156.83-70.21-156.83-156.83,0-45.45,19.33-86.38,50.22-115.01-25.95,27.98-41.82,65.44-41.82,106.61,0,86.62,70.21,156.83,156.83,156.83,41.17,0,78.64-15.86,106.63-41.82Z" class="colorfefbda svgShape"></path><path fill="#2148d9" d="M545.98,1535.77c0,46.14-19.92,87.62-51.63,116.32,25.23-27.83,40.59-64.76,40.59-105.28,0-86.61-70.22-156.83-156.83-156.83-40.5,0-77.41,15.35-105.24,40.55,28.7-31.69,70.17-51.59,116.29-51.59,86.61,0,156.83,70.22,156.83,156.83Z" class="colord9c821 svgShape"></path><path fill="#2148d9" d="M340.38,1626.7c-5.33,0-10.66-2.03-14.73-6.1l-42.65-42.65c-8.14-8.14-8.14-21.33,0-29.47,8.14-8.14,21.33-8.14,29.47,0l27.92,27.92,112.32-112.32c8.14-8.14,21.33-8.14,29.47,0,8.14,8.14,8.14,21.33,0,29.47l-127.06,127.06c-4.07,4.07-9.4,6.1-14.73,6.1Z" class="colord9c821 svgShape"></path><path fill="#ffffff" d="M346.94,1620.14c-5.33,0-10.66-2.03-14.73-6.1l-42.65-42.65c-8.14-8.14-8.14-21.33,0-29.47,8.14-8.14,21.33-8.14,29.47,0l27.92,27.92,112.32-112.32c8.14-8.14,21.33-8.14,29.47,0,8.14,8.14,8.14,21.33,0,29.47l-127.06,127.06c-4.07,4.07-9.4,6.1-14.73,6.1Z" class="colorffffff svgShape"></path></g></g></svg>