<svg xmlns="http://www.w3.org/2000/svg" data-name="Layer 1" viewBox="0 0 900 600" id="ParentsGreetinggiftsforchildren"><path fill="#c2e0ff" d="M307.057 484.431c-32.65-6.55-63.705-17.647-88.33-42.03-19.924-19.728-32.845-46.165-37.262-73.854-5.676-35.58 3.284-72.989 23.336-102.794 17.527-26.05 30.586-68.373 58.504-81.666 34.56-16.456 81.097-10.53 117.17-23.697 65.74-23.996 54.877-30.338 124.184-21.897 40.095 4.883 80.302 16.869 112.08 42.705a161.088 161.088 0 0 1 24.66 25.008c51.78 65.417 52.763 169.838-2.714 233.425-15.314 17.554-34.849 31.308-56.056 40.819-47.18 21.159-100.887 22.3-151.674 20.103-57.541-2.49-34.39-3.074-91.524-10.847-10.849-1.476-21.696-3.132-32.374-5.275Z" class="colorffe3c2 svgShape"></path><path fill="#c2e0ff" d="M599.772 501.437c.511-.076 1.021-.161 1.532-.239a24.63 24.63 0 0 0 1.433-.266c-.135.03-.54.114.09-.018 1.308-.274 2.613-.559 3.911-.874q.765-.185 1.526-.383l.608-.16.304-.08q.627-.172-.042.015a5.846 5.846 0 0 1 1.501-.15 11.451 11.451 0 0 0 2.444-.583c4.096-1.362 8.128-2.981 12.087-4.696 2.223-.964 4.384-2.15 6.526-3.276 1.953-1.027 3.911-2.071 5.786-3.236q5.363-3.332 10.457-7.075A187.41 187.41 0 0 0 681.2 449.09a195.998 195.998 0 0 0 24.842-38.334 193.124 193.124 0 0 0 8.751-20.6 176.53 176.53 0 0 0 10.179-44.716 216 216 0 0 0 .837-13.024c.066-1.848-.102-3.663-.174-5.506q-.11-2.826-.312-5.647a14.426 14.426 0 0 0-.65-4.325 13.468 13.468 0 0 0-2.975-4.333l1.784 2.57a18.171 18.171 0 0 0-.949-2.138c-.957-2.048-2.948-3.76-5.377-3.458a6.257 6.257 0 0 0-2.597.928 5.626 5.626 0 0 0-2.167 3.334 22.938 22.938 0 0 0-.684 2.267l1.356-2.819a13.994 13.994 0 0 0-1.452 2.339 9.681 9.681 0 0 0-1.08 4.643c-.025 1.038-.021 2.076-.041 3.114-.042 2.121-.189 4.24-.229 6.361l.113-2.071c-.601 3.131-.416 6.451-.586 9.635l.117-2.13a198.791 198.791 0 0 1-6.572 40.115q-1.486 5.6-3.31 11.104l.625-1.882a194.208 194.208 0 0 1-15.846 35.452q-2.75 4.792-5.774 9.42l.967-1.48a191.06 191.06 0 0 1-23.203 29.043q-3.67 3.751-7.557 7.283l1.141-1.036a173.183 173.183 0 0 1-18.08 14.37c-3.448 2.375-6.895 4.746-10.487 6.902-1.786 1.072-3.524 2.193-5.362 3.18-.408.22-.814.468-1.238.656 1.223-.543-.337.168-.628.314q-1.546.775-3.117 1.501a21.788 21.788 0 0 0-3.739 1.897c-.163.118-.333.23-.5.343l-.5.339q.518-.235.152-.076c-.535.207-1.059.447-1.59.664-2.22.904-4.477 1.723-6.737 2.518a2.91 2.91 0 0 0 1.221 5.629ZM679.35 203.92q1.883 3.3 3.543 6.718c.133.274.265.548.395.824.03.063.443.982.156.318.317.735.593 1.488.923 2.217.547 1.204 1.124 2.392 1.654 3.603l.364.84c.41.946-.302-.742.085.203.228.558.458 1.115.68 1.675.446 1.124.907 2.243 1.345 3.37q1.374 3.53 2.51 7.148a127.742 127.742 0 0 1 3.605 14.439q.34 1.794.622 3.597c.094.602.18 1.204.268 1.806.158 1.085-.142-1.143-.008-.057.05.401.102.802.15 1.203q.427 3.615.62 7.253c.133 2.53.326 5.057.422 7.588q.068 1.822.076 3.645a10.474 10.474 0 0 0 .158 2.718 5.476 5.476 0 0 0 2.414 3.221c2.159 1.24 4.514.035 5.694-1.915.956-1.581.876-3.723.983-5.543a73.434 73.434 0 0 0 .173-7.591 108.025 108.025 0 0 0-2.038-15.726 107.706 107.706 0 0 0-10.9-30.34 96.863 96.863 0 0 0-9.963-14.247 2.483 2.483 0 0 0-3.287-.196 2.513 2.513 0 0 0-.645 3.23ZM174.261 417.664a9.569 9.569 0 0 1-.06 1.355 7.671 7.671 0 0 0 .193 2.51c.234.92.518 1.83.795 2.737.54 1.774 1.083 3.538 1.78 5.256 1.566 3.858 3.274 7.654 5.216 11.338a108.198 108.198 0 0 0 13.623 19.659 117.61 117.61 0 0 0 36.243 28.36 90.971 90.971 0 0 0 12.96 5.45 54.684 54.684 0 0 0 6.016 1.623c1.066.215 2.135.423 3.21.593a9.36 9.36 0 0 0 4.303-.134 7.813 7.813 0 0 0 2.323-1.108 5.137 5.137 0 0 0 1.796-6.85 8.102 8.102 0 0 0-1.721-2.288 12.17 12.17 0 0 0-1.646-1.285 14.59 14.59 0 0 0-2.26-.925q-1.835-.696-3.644-1.46l1.634.69c-2.388-1.01-4.817-1.915-7.206-2.923l1.702.719c-2.006-.852-4.003-1.724-6.012-2.57l1.728.729a114.424 114.424 0 0 1-25.06-14.679l1.44 1.112a122.52 122.52 0 0 1-21.887-21.779l1.057 1.369c-2.778-3.601-5.42-7.344-7.849-11.189-2.428-3.843-4.52-7.863-6.623-11.884a88.255 88.255 0 0 1-1.705-3.47 9.63 9.63 0 0 0-1.467-2.472c-.206-.234-.435-.453-.645-.684-.261-.287-.766-1.093-.07-.01a4.381 4.381 0 0 0-8.164 2.21Z" class="colorffe3c2 svgShape"></path><path fill="#376492" d="M493.352 185.147h-5c0-4.053-3.83-5.536-3.868-5.55l1.756-4.682c.29.108 7.112 2.753 7.112 10.232Z" class="color376f92 svgShape"></path><path fill="#57abff" d="M190.285 257.455h-5c0-4.054-3.83-5.536-3.868-5.551l1.756-4.682c.29.109 7.112 2.753 7.112 10.233ZM627.212 232.024h-5c0-3.978-3.729-5.496-3.888-5.56l1.775-4.673c.29.108 7.113 2.753 7.113 10.233Z" class="colorffb957 svgShape"></path><path fill="#0f3ce6" d="m255.715 217.558-4.821-1.324c.08-.294 2.027-7.21 7.65-8.176l.847 4.927c-2.05.353-3.374 3.499-3.676 4.573ZM283.02 152.586a11.81 11.81 0 0 1-6.908-8.46l4.928-.846a6.745 6.745 0 0 0 3.903 4.69ZM202.608 330.795c-2.24-3.091-5.024-2.14-5.56-1.917l-2.016-4.575a9.577 9.577 0 0 1 11.626 3.56Z" class="colore6560f svgShape"></path><path fill="#57abff" d="m240.918 346.745-4.63-1.887c.5-1.232 3.226-7.336 7.751-6.491l-.92 4.914a.455.455 0 0 0 .203-.005c-.576.2-1.767 1.918-2.404 3.469Z" class="colorffb957 svgShape"></path><path fill="#0f3ce6" d="m285.77 336.246-4.775-1.481c.45-1.45 2.957-8.722 8.182-9.529l.763 4.942c-1.547.239-3.448 3.74-4.17 6.068Z" class="colore6560f svgShape"></path><path fill="#57abff" d="M566.25 136.998c-1.314-3.617-6.304-2.881-6.516-2.848l-.81-4.934c3.205-.535 9.836.05 12.026 6.073Z" class="colorffb957 svgShape"></path><path fill="#0f3ce6" d="m508.289 137.2-4.479-2.223c.82-1.655 3.817-7.052 7.963-7.052v5c-.727.113-2.464 2.231-3.484 4.275Z" class="colore6560f svgShape"></path><path fill="#376492" d="M681.924 208.643a9.958 9.958 0 0 1-9.21-6.647l4.725-1.636-2.362.818 2.355-.84a4.945 4.945 0 0 0 5.187 3.263l.578 4.967a11.07 11.07 0 0 1-1.273.075Z" class="color376f92 svgShape"></path><path fill="#57abff" d="M567.728 256.485c-.852-3.796-7.125-3.04-7.187-3.034l-.658-4.956c3.755-.506 11.24.287 12.724 6.895Z" class="colorffb957 svgShape"></path><path fill="#0f3ce6" d="m422.41 234.463-4.77-1.499c.243-.777 2.537-7.615 8.175-8.306l.609 4.962c-1.94.238-3.542 3.366-4.014 4.843Z" class="colore6560f svgShape"></path><path fill="#57abff" d="M384.998 140.15c-6.994-6.327-22.865-7.24-23.024-7.25l.053-.997c.666.035 16.388.942 23.642 7.505ZM397.968 154.118c-19.492-10.25-48.236-2.106-48.524-2.02l-.28-.962c.294-.084 29.42-8.342 49.27 2.097Z" class="colorffb957 svgShape"></path><path fill="#376492" d="M403.892 154.923c-15.626-12.602-41.615-12.237-41.882-12.242l-.02-1c.266.002 26.616-.369 42.53 12.463Z" class="color376f92 svgShape"></path><path fill="#0f3ce6" d="M395.061 158.069c-3.624-1.813-16.963-1.666-17.099-1.663l-.011-1c.558-.007 13.719-.15 17.557 1.768Z" class="colore6560f svgShape"></path><path fill="#57abff" d="m352.358 165.824-.273-.963c.315-.09 31.775-8.886 52.272-2.398l-.303.954c-20.203-6.402-51.384 2.318-51.696 2.407Z" class="colorffb957 svgShape"></path><path fill="#376492" d="m355.938 173.989-.57-.822a54.3 54.3 0 0 1 27.997-8.334c.315 0 .63.002.95.01l-.021 1a53.019 53.019 0 0 0-28.356 8.146Z" class="color376f92 svgShape"></path><path fill="#57abff" d="m361.462 181.682-.64-.767c.176-.147 17.66-14.53 37.04-14.53l.343.001-.01 1-.334-.002c-19.012 0-36.226 14.155-36.399 14.298Z" class="colorffb957 svgShape"></path><path fill="#0f3ce6" d="m361.496 187.828-.707-.707c.378-.378 9.334-9.206 13.927-9.068l-.039 1a2.206 2.206 0 0 0-.114-.003c-4.238 0-12.978 8.689-13.067 8.778Z" class="colore6560f svgShape"></path><path fill="#376492" d="m369.666 192.476-.918-.396c.06-.141 6.313-14.189 26.334-23.082l.406.914c-19.64 8.724-25.763 22.427-25.822 22.564Z" class="color376f92 svgShape"></path><path fill="#0f3ce6" d="M405.133 152.016c-3.981-7.797-13.71-11.733-13.807-11.772l.369-.93c.413.164 10.173 4.11 14.329 12.247Z" class="colore6560f svgShape"></path><path fill="#376492" d="M396.648 139.047c-4.96-6.676-14.516-11.123-14.611-11.167l.418-.908c.4.185 9.88 4.594 14.996 11.48Z" class="color376f92 svgShape"></path><path fill="#57abff" d="M406.474 145.934c-6.224-19.684-17.042-29.015-17.15-29.106l.646-.764c.11.094 11.139 9.589 17.457 29.57Z" class="colorffb957 svgShape"></path><path fill="#0f3ce6" d="m400.296 112.276.959-.283 6.175 20.953-.959.283z" class="colore6560f svgShape"></path><path fill="#57abff" d="M409.711 122.611h1v23.173h-1z" class="colorffb957 svgShape"></path><path fill="#376492" d="m414.31 133.16-.991-.145c.1-.679 2.491-16.695 8.361-23.084l.737.676c-5.662 6.162-8.084 22.39-8.108 22.553Z" class="color376f92 svgShape"></path><path fill="#57abff" d="m414.301 144.35-.974-.22c.047-.208 4.842-20.778 19.089-29.934l.54.842c-13.907 8.937-18.609 29.109-18.655 29.312Z" class="colorffb957 svgShape"></path><path fill="#0f3ce6" d="m432.351 120.015 9.27-8.23.665.748-9.27 8.23z" class="colore6560f svgShape"></path><path fill="#376492" d="m421.798 140.024-.87-.49c.283-.503 7.003-12.345 13.398-15.974l.494.87c-6.153 3.491-12.953 15.474-13.022 15.594Z" class="color376f92 svgShape"></path><path fill="#57abff" d="m425.341 140.966-.752-.66c.11-.126 11.193-12.67 23.665-18.65l.432.903c-12.284 5.889-23.235 18.282-23.345 18.407Z" class="colorffb957 svgShape"></path><path fill="#0f3ce6" d="m415.387 154.867-.746-.666c.128-.144 13.067-14.432 37.278-22.275l.308.951c-23.938 7.754-36.714 21.848-36.84 21.99ZM402.538 176.827l3.948-10.123.931.363-3.947 10.124z" class="colore6560f svgShape"></path><path fill="#57abff" d="m366.912 209.224-.9-.435c.13-.272 13.283-27.263 28.517-35.65l.482.877c-14.953 8.232-27.97 34.939-28.1 35.208Z" class="colorffb957 svgShape"></path><path fill="#376492" d="m382.728 191.945 12.184-13.725.748.664-12.185 13.725z" class="color376f92 svgShape"></path><path fill="#0f3ce6" d="m380.182 209.889 8.566-15.963.88.473-8.565 15.963z" class="colore6560f svgShape"></path><path fill="#57abff" d="m391.087 192.02 6.685-10.983.853.52-6.685 10.982z" class="colorffb957 svgShape"></path><path fill="#0f3ce6" d="m395.778 206.256-.986-.162c.12-.726 2.975-17.844 6.439-22.52l.803.595c-3.32 4.483-6.227 21.913-6.256 22.087Z" class="colore6560f svgShape"></path><path fill="#57abff" d="M402.55 216.16c-4.655-10.342.935-30.05 1.175-30.884l.961.277c-.058.2-5.728 20.189-1.224 30.197Z" class="colorffb957 svgShape"></path><path fill="#376492" d="M412.515 216.192c-8.394-15.59-2.851-44.058-2.795-44.343l.98.195c-.055.283-5.528 28.4 2.696 43.673Z" class="color376f92 svgShape"></path><path fill="#57abff" d="M474.407 185.804c-22.602-18.217-57.69-19.947-58.041-19.962l.043-1c.355.016 35.771 1.763 58.625 20.183Z" class="colorffb957 svgShape"></path><path fill="#376492" d="m416.666 159.066-.557-.83a75.835 75.835 0 0 1 42.165-10.379l-.049.998a74.781 74.781 0 0 0-41.56 10.21Z" class="color376f92 svgShape"></path><path fill="#0f3ce6" d="M467.047 162.658c-10.543-7.698-29.516-7.12-29.711-7.11l-.036-1c.788-.028 19.515-.601 30.337 7.303Z" class="colore6560f svgShape"></path><path fill="#57abff" d="M441.131 162.737c-13.44-3.698-27.072-.713-27.208-.68l-.218-.977c.137-.03 14.005-3.07 27.692.692ZM450.527 194.313c-16.03-15.229-31.56-20.21-31.716-20.258l.299-.955c.157.05 15.91 5.102 32.106 20.488Z" class="colorffb957 svgShape"></path><path fill="#0f3ce6" d="m414.654 172.895.72-.694 9.094 9.436-.72.694z" class="colore6560f svgShape"></path><path fill="#57abff" d="M417.517 194.446c-4.313-6.384-5.031-14.977-5.06-15.339l.997-.078c.007.086.73 8.696 4.891 14.856Z" class="colorffb957 svgShape"></path><path fill="#376492" d="m415.968 182.255.84-.542 7.72 11.967-.84.542z" class="color376f92 svgShape"></path><path fill="#57abff" d="m424.599 189.701.732-.68 15.612 16.814-.732.68z" class="colorffb957 svgShape"></path><path fill="#376492" d="M435.768 175.736c-3.61-3.527-14.351-4.737-14.46-4.75l.11-.993c.455.05 11.196 1.261 15.05 5.028Z" class="color376f92 svgShape"></path><path fill="#0f3ce6" d="M453.873 182.345c-5.442-5.19-15.442-9.293-15.542-9.334l.377-.926c.417.17 10.275 4.214 15.854 9.538Z" class="colore6560f svgShape"></path><path fill="#57abff" d="m433.807 147.238-.527-.85c.504-.312 12.427-7.634 20.084-6.244l-.18.984c-7.271-1.326-19.256 6.035-19.377 6.11Z" class="colorffb957 svgShape"></path><path fill="#376492" d="M458.73 170.946c-8.578-3.87-19.3-5.105-19.408-5.116l.111-.995c.109.013 10.987 1.266 19.708 5.199Z" class="color376f92 svgShape"></path><path fill="#57abff" d="M654.813 236.908c-3.556-8.735-17.46-16.442-17.6-16.52l.48-.876c.586.321 14.358 7.958 18.047 17.018ZM660.441 255.12c-13.116-17.692-42.548-22.822-42.845-22.87l.166-.987c.3.051 30.126 5.245 43.482 23.26Z" class="colorffb957 svgShape"></path><path fill="#376492" d="M665.43 258.415c-8.613-18.134-32.189-29.078-32.427-29.198l.417-.91c.238.117 24.14 11.213 32.912 29.678Z" class="color376f92 svgShape"></path><path fill="#0f3ce6" d="M656.108 257.418c-2.48-3.205-14.561-8.86-14.685-8.915l.423-.906c.506.236 12.426 5.816 15.053 9.21Z" class="colore6560f svgShape"></path><path fill="#57abff" d="m614.268 245.882.17-.987c.324.055 32.486 5.778 48.14 20.515l-.687.728c-15.427-14.532-47.304-20.201-47.623-20.256Z" class="colorffb957 svgShape"></path><path fill="#376492" d="m613.951 254.791-.157-.988a54.299 54.299 0 0 1 28.841 4.636c.284.137.567.276.852.42l-.453.892a53.019 53.019 0 0 0-29.083-4.96Z" class="color376f92 svgShape"></path><path fill="#57abff" d="m615.592 264.12-.245-.97c.222-.056 22.216-5.431 39.677 2.976l.308.15-.442.897-.3-.147c-17.13-8.247-38.78-2.96-38.998-2.906Z" class="colorffb957 svgShape"></path><path fill="#0f3ce6" d="m612.956 269.671-.33-.944c.504-.176 12.403-4.245 16.482-2.128l-.47.884a2.197 2.197 0 0 0-.1-.052c-3.82-1.838-15.464 2.199-15.582 2.24Z" class="colore6560f svgShape"></path><path fill="#376492" d="m618.3 277.404-.655-.756c.116-.1 11.844-10.045 33.74-9.374l-.03 1c-21.481-.659-32.941 9.032-33.054 9.13Z" class="color376f92 svgShape"></path><path fill="#0f3ce6" d="M667.809 256.334c-.206-8.752-7.264-16.52-7.335-16.597l.736-.677c.301.327 7.384 8.115 7.598 17.25Z" class="colore6560f svgShape"></path><path fill="#376492" d="M665.789 240.968c-1.574-8.168-8.254-16.319-8.321-16.4l.77-.637c.281.34 6.91 8.425 8.532 16.848Z" class="color376f92 svgShape"></path><path fill="#57abff" d="M671.655 251.435c2.93-20.436-2.769-33.535-2.827-33.665l.914-.407c.059.132 5.877 13.471 2.902 34.215Z" class="colorffb957 svgShape"></path><path fill="#0f3ce6" d="m677.163 239.987 3.525-21.558.987.161-3.525 21.558z" class="colore6560f svgShape"></path><path fill="#57abff" d="m674.636 252.704 10.052-20.88.901.435-10.052 20.879z" class="colorffb957 svgShape"></path><path fill="#376492" d="m684.256 243.324-.83-.56c.384-.568 9.487-13.962 17.547-17.172l.37.929c-7.773 3.096-16.995 16.666-17.087 16.803Z" class="color376f92 svgShape"></path><path fill="#57abff" d="m679.394 253.404-.782-.622c.132-.166 13.376-16.62 30.184-18.69l.123.993c-16.408 2.02-29.395 18.155-29.525 18.319Z" class="colorffb957 svgShape"></path><path fill="#0f3ce6" d="m706.215 239.31 11.923-3.393.273.961-11.922 3.394z" class="colore6560f svgShape"></path><path fill="#376492" d="m688.026 252.758-.572-.82c.473-.33 11.665-8.084 19.001-8.58l.068.997c-7.059.477-18.383 8.324-18.497 8.403Z" class="color376f92 svgShape"></path><path fill="#57abff" d="m690.81 255.144-.392-.921c.154-.066 15.581-6.561 29.413-6.538l-.003 1c-13.622-.023-28.866 6.394-29.018 6.459Z" class="colorffb957 svgShape"></path><path fill="#0f3ce6" d="m675.811 263.35-.383-.923c.177-.074 18.033-7.336 43.25-3.9l-.135.991c-24.933-3.398-42.557 3.76-42.732 3.832ZM654.708 277.564l7.948-7.41.682.732-7.948 7.41z" class="colore6560f svgShape"></path><path fill="#57abff" d="m608.554 291.3-.622-.784c.236-.188 23.795-18.801 41.159-19.75l.054 1c-17.044.93-40.357 19.347-40.59 19.533Z" class="colorffb957 svgShape"></path><path fill="#376492" d="m630.3 282.59 16.932-7.08.386.922-16.932 7.08z" class="color376f92 svgShape"></path><path fill="#0f3ce6" d="m620.223 297.654 14.642-10.667.589.808-14.643 10.668z" class="colore6560f svgShape"></path><path fill="#57abff" d="m637.8 286.284 10.786-6.995.544.838-10.787 6.995z" class="colorffb957 svgShape"></path><path fill="#0f3ce6" d="m635.85 301.147-.818-.574c.424-.603 10.422-14.788 15.571-17.498l.465.885c-4.936 2.598-15.115 17.042-15.217 17.187Z" class="colore6560f svgShape"></path><path fill="#57abff" d="M637.656 313.007c.292-11.337 13.878-26.67 14.456-27.316l.746.666c-.14.156-13.92 15.705-14.202 26.676Z" class="colorffb957 svgShape"></path><path fill="#376492" d="M646.621 317.36c-.8-17.69 16.542-40.934 16.717-41.167l.799.602c-.173.23-17.3 23.19-16.516 40.519Z" class="color376f92 svgShape"></path><path fill="#57abff" d="M715.568 316.827c-12.462-26.218-43.326-42.997-43.636-43.163l.472-.882c.314.168 31.466 17.105 44.067 43.615Z" class="colorffb957 svgShape"></path><path fill="#376492" d="m675.141 267.688-.141-.99a75.835 75.835 0 0 1 42.493 8.94l-.477.878a74.781 74.781 0 0 0-41.875-8.828Z" class="color376f92 svgShape"></path><path fill="#0f3ce6" d="M718.978 292.78c-6.16-11.51-23.506-19.22-23.687-19.295l.402-.916c.722.316 17.844 7.923 24.166 19.74Z" class="colore6560f svgShape"></path><path fill="#57abff" d="M695.593 281.609c-10.506-9.163-24.083-12.386-24.22-12.416l.227-.975c.137.033 13.95 3.31 24.65 12.637ZM690.361 314.135c-7.837-20.674-19.67-31.9-19.789-32.01l.684-.731c.12.113 12.122 11.498 20.04 32.387Z" class="colorffb957 svgShape"></path><path fill="#0f3ce6" d="m667.33 279.276.95-.312 4.1 12.445-.95.313z" class="colore6560f svgShape"></path><path fill="#57abff" d="M660.561 299.936c-1.117-7.623 1.964-15.677 2.095-16.016l.932.362c-.032.08-3.115 8.152-2.038 15.508Z" class="colorffb957 svgShape"></path><path fill="#376492" d="m664.453 288.279.992-.124 1.766 14.131-.992.124z" class="color376f92 svgShape"></path><path fill="#57abff" d="m669 298.733.955-.295 6.773 21.921-.954.295z" class="colorffb957 svgShape"></path><path fill="#376492" d="M685.122 290.995c-1.722-4.744-10.876-10.494-10.969-10.552l.53-.848c.388.242 9.54 5.993 11.379 11.059Z" class="color376f92 svgShape"></path><path fill="#0f3ce6" d="M698.567 304.803c-2.652-7.036-9.882-15.071-9.955-15.152l.742-.67c.302.333 7.43 8.254 10.148 15.47Z" class="colore6560f svgShape"></path><path fill="#57abff" d="m695.717 264.467-.107-.994c.59-.063 14.508-1.488 20.805 3.086l-.589.809c-5.976-4.35-19.967-2.916-20.11-2.901Z" class="colorffb957 svgShape"></path><path fill="#376492" d="M707.889 296.64c-6.051-7.208-15.176-12.972-15.268-13.03l.531-.847c.093.058 9.351 5.906 15.503 13.233Z" class="color376f92 svgShape"></path><path fill="#0f3ce6" d="M542.378 141.826a1.076 1.076 0 0 0 0-2.15 1.076 1.076 0 0 0 0 2.15ZM553.45 105.844a1.076 1.076 0 0 0 0-2.151 1.076 1.076 0 0 0 0 2.15ZM524.996 98.669l.626-.349 5.444 9.78-.627.35zM514.578 114.332l.242-.675 11.072 3.968-.242.675z" class="colore6560f svgShape"></path><path fill="#57abff" d="m516.194 130.564 8.947-4.71.334.634-8.947 4.71z" class="colorffb957 svgShape"></path><path fill="#0f3ce6" d="m522.11 133.663 7.012-6.643.493.52-7.012 6.644z" class="colore6560f svgShape"></path><path fill="#376492" d="m522.843 106.592.504-.51 6.827 6.735-.503.51z" class="color376f92 svgShape"></path><path fill="#57abff" d="M535.93 99.397h.717v10.63h-.717zM536.299 129.494h.717v10.61h-.717z" class="colorffb957 svgShape"></path><path fill="#0f3ce6" d="m539.092 109.157 2.952-7.473.667.263-2.952 7.474z" class="colore6560f svgShape"></path><path fill="#57abff" d="M517.928 119.91h9.134v.717h-9.134z" class="colorffb957 svgShape"></path><path fill="#376492" d="m522.23 124.362 7.011-2.66.255.671-7.012 2.66z" class="color376f92 svgShape"></path><path fill="#0f3ce6" d="m529.15 124.412 2.769-2.122.436.57-2.769 2.12z" class="colore6560f svgShape"></path><path fill="#57abff" d="m523.846 113.387.342-.63 5.352 2.906-.342.63zM531.807 106.937l.66-.28 3.045 7.197-.66.28z" class="colorffb957 svgShape"></path><path fill="#0f3ce6" d="m531.826 112.789.622-.357 2.49 4.336-.621.357zM537.697 127.385l.686-.207 2.122 7.012-.686.207z" class="colore6560f svgShape"></path><path fill="#376492" d="m530.873 140.001 2.441-8.028.686.209-2.44 8.028z" class="color376f92 svgShape"></path><path fill="#0f3ce6" d="m543.441 112.333 5.26-4.334.456.553-5.26 4.334z" class="colore6560f svgShape"></path><path fill="#376492" d="m545.818 114.459 7.934-3.924.317.643-7.933 3.924zM546.188 122.916l.221-.682 11.117 3.598-.22.682z" class="color376f92 svgShape"></path><path fill="#57abff" d="m542.053 129.923.65-.303 4.52 9.687-.649.303z" class="colorffb957 svgShape"></path><path fill="#376492" d="m542.851 126.414.531-.482 6.366 7.012-.53.482z" class="color376f92 svgShape"></path><path fill="#0f3ce6" d="m546.868 119.91 6.551-.552.06.715-6.55.552z" class="colore6560f svgShape"></path><path fill="#57abff" d="m539.856 113.533 2.215-3.69.615.368-2.215 3.69z" class="colorffb957 svgShape"></path><path fill="#376492" d="m537.133 116.9.553-4.13.71.095-.553 4.13z" class="color376f92 svgShape"></path><path fill="#57abff" d="m530.143 131.942 1.662-4.06.663.272-1.661 4.06zM528.487 118.659l.289-.656 3.137 1.384-.29.656zM534.273 128.47l.554-3.552.709.111-.555 3.552zM539.936 117.685l2.583-2.123.455.554-2.583 2.123zM544.545 117.615l3.737-1.013.187.692-3.737 1.013z" class="colorffb957 svgShape"></path><path fill="#0f3ce6" d="m542.903 123.924.428-.576 3.782 2.815-.428.575z" class="colore6560f svgShape"></path><path fill="#376492" d="m538.1 123.544.622-.355 1.753 3.083-.623.354zM540.72 120.578l.362-.62 2.215 1.293-.362.619zM549.39 129.278a1.076 1.076 0 0 0 0-2.15 1.076 1.076 0 0 0 0 2.15Z" class="color376f92 svgShape"></path><path fill="#0f3ce6" d="M391.994 282.254a1.076 1.076 0 0 0 0-2.151 1.076 1.076 0 0 0 0 2.15ZM403.065 246.272a1.076 1.076 0 0 0 0-2.152 1.076 1.076 0 0 0 0 2.152ZM374.612 239.097l.626-.349 5.444 9.78-.627.35zM364.194 254.76l.242-.675 11.072 3.968-.242.675z" class="colore6560f svgShape"></path><path fill="#57abff" d="m365.81 270.992 8.947-4.71.334.634-8.947 4.71z" class="colorffb957 svgShape"></path><path fill="#0f3ce6" d="m371.726 274.091 7.012-6.643.493.52-7.012 6.644z" class="colore6560f svgShape"></path><path fill="#376492" d="m372.46 247.02.503-.51 6.827 6.735-.503.51z" class="color376f92 svgShape"></path><path fill="#57abff" d="M385.546 239.825h.717v10.63h-.717zM385.915 269.922h.717v10.61h-.717z" class="colorffb957 svgShape"></path><path fill="#0f3ce6" d="m388.709 249.585 2.951-7.473.667.263-2.952 7.474z" class="colore6560f svgShape"></path><path fill="#57abff" d="M367.544 260.338h9.134v.717h-9.134z" class="colorffb957 svgShape"></path><path fill="#376492" d="m371.845 264.79 7.012-2.66.254.67-7.011 2.66z" class="color376f92 svgShape"></path><path fill="#0f3ce6" d="m378.766 264.84 2.77-2.122.435.57-2.768 2.12z" class="colore6560f svgShape"></path><path fill="#57abff" d="m373.462 253.814.343-.63 5.351 2.907-.342.63zM381.423 247.365l.66-.28 3.045 7.197-.66.28z" class="colorffb957 svgShape"></path><path fill="#0f3ce6" d="m381.442 253.217.622-.357 2.49 4.336-.62.357zM387.314 267.812l.687-.208 2.122 7.012-.687.208z" class="colore6560f svgShape"></path><path fill="#376492" d="m380.488 280.429 2.442-8.028.686.208-2.442 8.028z" class="color376f92 svgShape"></path><path fill="#0f3ce6" d="m393.057 252.761 5.26-4.334.456.553-5.26 4.334z" class="colore6560f svgShape"></path><path fill="#376492" d="m395.433 254.886 7.934-3.924.318.643-7.934 3.924zM395.804 263.344l.221-.682 11.117 3.598-.22.682z" class="color376f92 svgShape"></path><path fill="#57abff" d="m391.67 270.35.649-.302 4.52 9.687-.649.303z" class="colorffb957 svgShape"></path><path fill="#376492" d="m392.467 266.841.53-.482 6.367 7.012-.531.482z" class="color376f92 svgShape"></path><path fill="#0f3ce6" d="m396.484 260.338 6.551-.552.06.715-6.55.552z" class="colore6560f svgShape"></path><path fill="#57abff" d="m389.472 253.96 2.215-3.69.615.37-2.215 3.69z" class="colorffb957 svgShape"></path><path fill="#376492" d="m386.749 257.327.553-4.13.71.096-.552 4.13z" class="color376f92 svgShape"></path><path fill="#57abff" d="m379.76 272.37 1.66-4.06.664.272-1.661 4.06zM378.102 259.086l.29-.656 3.137 1.384-.29.656zM383.889 268.898l.555-3.552.708.11-.555 3.553zM389.552 258.113l2.583-2.123.455.554-2.582 2.123zM394.16 258.043l3.738-1.013.187.692-3.737 1.013z" class="colorffb957 svgShape"></path><path fill="#0f3ce6" d="m392.518 264.35.428-.574 3.783 2.814-.428.575z" class="colore6560f svgShape"></path><path fill="#376492" d="m387.715 263.972.624-.355 1.752 3.083-.623.354zM390.337 261.006l.36-.62 2.216 1.292-.361.62zM399.006 269.706a1.076 1.076 0 0 0 0-2.15 1.076 1.076 0 0 0 0 2.15Z" class="color376f92 svgShape"></path><path fill="#0f3ce6" d="M227.347 211.75a1.076 1.076 0 0 0 0-2.15 1.076 1.076 0 0 0 0 2.15ZM238.418 175.768a1.076 1.076 0 0 0 0-2.15 1.076 1.076 0 0 0 0 2.15ZM209.964 168.593l.627-.349 5.443 9.78-.626.35zM199.546 184.257l.242-.675 11.072 3.967-.242.675z" class="colore6560f svgShape"></path><path fill="#57abff" d="m201.163 200.488 8.947-4.71.334.634-8.947 4.71z" class="colorffb957 svgShape"></path><path fill="#0f3ce6" d="m207.08 203.588 7.01-6.643.494.52-7.012 6.644z" class="colore6560f svgShape"></path><path fill="#376492" d="m207.812 176.517.504-.51 6.828 6.735-.504.51z" class="color376f92 svgShape"></path><path fill="#57abff" d="M220.899 169.322h.717v10.63h-.717zM221.268 199.419h.717v10.61h-.717z" class="colorffb957 svgShape"></path><path fill="#0f3ce6" d="m224.062 179.082 2.951-7.473.667.263-2.952 7.473z" class="colore6560f svgShape"></path><path fill="#57abff" d="M202.897 189.835h9.134v.717h-9.134z" class="colorffb957 svgShape"></path><path fill="#376492" d="m207.199 194.286 7.011-2.66.254.671-7.011 2.66z" class="color376f92 svgShape"></path><path fill="#0f3ce6" d="m214.12 194.337 2.768-2.122.436.57-2.768 2.12z" class="colore6560f svgShape"></path><path fill="#57abff" d="m208.815 183.312.342-.63 5.352 2.906-.342.63zM216.775 176.863l.66-.28 3.045 7.197-.66.28z" class="colorffb957 svgShape"></path><path fill="#0f3ce6" d="m216.795 182.714.622-.357 2.49 4.336-.62.357zM222.667 197.309l.687-.208 2.122 7.012-.687.208z" class="colore6560f svgShape"></path><path fill="#376492" d="m215.841 209.926 2.442-8.029.686.21-2.442 8.027z" class="color376f92 svgShape"></path><path fill="#0f3ce6" d="m228.41 182.258 5.26-4.335.456.554-5.26 4.334z" class="colore6560f svgShape"></path><path fill="#376492" d="m230.787 184.383 7.933-3.924.318.643-7.934 3.924zM231.157 192.84l.221-.681 11.117 3.598-.22.682z" class="color376f92 svgShape"></path><path fill="#57abff" d="m227.022 199.848.65-.303 4.52 9.687-.649.303z" class="colorffb957 svgShape"></path><path fill="#376492" d="m227.82 196.338.53-.482 6.367 7.012-.531.482z" class="color376f92 svgShape"></path><path fill="#0f3ce6" d="m231.838 189.835 6.55-.552.06.715-6.55.552z" class="colore6560f svgShape"></path><path fill="#57abff" d="m224.825 183.457 2.215-3.69.615.37-2.215 3.69z" class="colorffb957 svgShape"></path><path fill="#376492" d="m222.102 186.824.553-4.13.71.096-.552 4.129z" class="color376f92 svgShape"></path><path fill="#57abff" d="m215.112 201.867 1.662-4.06.663.272-1.661 4.06zM213.455 188.583l.29-.656 3.137 1.384-.29.656zM219.242 198.395l.555-3.552.708.11-.555 3.553zM224.905 187.61l2.582-2.122.456.554-2.583 2.122zM229.514 187.54l3.737-1.013.187.692-3.737 1.013z" class="colorffb957 svgShape"></path><path fill="#0f3ce6" d="m227.871 193.848.428-.576 3.783 2.815-.428.575z" class="colore6560f svgShape"></path><path fill="#376492" d="m223.068 193.469.624-.355 1.752 3.083-.623.354zM225.69 190.503l.36-.62 2.216 1.292-.361.62zM234.359 199.203a1.076 1.076 0 0 0 0-2.15 1.076 1.076 0 0 0 0 2.15Z" class="color376f92 svgShape"></path><path fill="#0f3ce6" d="M560.69 228.153a1.738 1.738 0 0 0 0-3.474 1.738 1.738 0 0 0 0 3.474ZM578.573 170.034a1.738 1.738 0 0 0 0-3.474 1.738 1.738 0 0 0 0 3.474ZM532.615 158.445l1.012-.564 8.792 15.797-1.012.564zM515.787 183.745l.39-1.09 17.883 6.408-.39 1.09z" class="colore6560f svgShape"></path><path fill="#57abff" d="m518.397 209.962 14.451-7.608.54 1.025-14.451 7.608z" class="colorffb957 svgShape"></path><path fill="#0f3ce6" d="m527.954 214.969 11.325-10.73.797.84-11.325 10.73z" class="colore6560f svgShape"></path><path fill="#376492" d="m529.137 171.242.813-.824 11.028 10.879-.813.824z" class="color376f92 svgShape"></path><path fill="#57abff" d="M550.276 159.622h1.158v17.169h-1.158zM550.872 208.235h1.158v17.138h-1.158z" class="colorffb957 svgShape"></path><path fill="#0f3ce6" d="m555.383 175.387 4.768-12.072 1.077.425-4.768 12.072z" class="colore6560f svgShape"></path><path fill="#57abff" d="M521.199 192.754h14.753v1.158h-14.753z" class="colorffb957 svgShape"></path><path fill="#376492" d="m528.146 199.945 11.326-4.296.41 1.083-11.325 4.295z" class="color376f92 svgShape"></path><path fill="#0f3ce6" d="m539.325 200.026 4.47-3.426.705.919-4.47 3.426z" class="colore6560f svgShape"></path><path fill="#57abff" d="m530.757 182.218.553-1.018 8.644 4.694-.553 1.018zM543.615 171.801l1.067-.45 4.917 11.623-1.066.451z" class="colorffb957 svgShape"></path><path fill="#0f3ce6" d="m543.646 181.252 1.004-.577 4.024 7.005-1.004.577zM553.132 204.826l1.108-.335 3.428 11.326-1.108.335z" class="colore6560f svgShape"></path><path fill="#376492" d="m542.107 225.205 3.943-12.966 1.108.336-3.943 12.967z" class="color376f92 svgShape"></path><path fill="#0f3ce6" d="m562.407 180.516 8.497-7.002.737.894-8.497 7.001z" class="colore6560f svgShape"></path><path fill="#376492" d="m566.246 183.949 12.814-6.337.513 1.038-12.814 6.337zM566.845 197.61l.356-1.103 17.957 5.812-.356 1.102z" class="color376f92 svgShape"></path><path fill="#57abff" d="m560.165 208.927 1.05-.49 7.302 15.647-1.05.49z" class="colorffb957 svgShape"></path><path fill="#376492" d="m561.454 203.259.857-.779 10.282 11.326-.857.778z" class="color376f92 svgShape"></path><path fill="#0f3ce6" d="m567.943 192.755 10.582-.892.097 1.154-10.582.892z" class="colore6560f svgShape"></path><path fill="#57abff" d="m556.618 182.452 3.577-5.96.993.596-3.577 5.96z" class="colorffb957 svgShape"></path><path fill="#376492" d="m552.218 187.892.894-6.67 1.148.154-.894 6.67z" class="color376f92 svgShape"></path><path fill="#57abff" d="m540.93 212.188 2.683-6.556 1.072.439-2.683 6.556zM538.252 190.733l.467-1.06 5.067 2.236-.468 1.06zM547.598 206.58l.896-5.736 1.144.179-.895 5.736zM556.747 189.16l4.172-3.428.735.895-4.172 3.428zM564.19 189.048l6.035-1.638.304 1.118-6.036 1.637z" class="colorffb957 svgShape"></path><path fill="#0f3ce6" d="m561.537 199.236.69-.929 6.11 4.546-.69.929z" class="colore6560f svgShape"></path><path fill="#376492" d="m553.779 198.624 1.007-.572 2.831 4.98-1.006.572zM558.014 193.833l.584-1.001 3.577 2.086-.584 1.001zM572.016 207.886a1.738 1.738 0 0 0 0-3.474 1.738 1.738 0 0 0 0 3.474Z" class="color376f92 svgShape"></path><path fill="#193fd0" d="M628.034 355.368a12.787 12.787 0 0 1 .568 3.956 15.604 15.604 0 0 1-.51 4.003 12.474 12.474 0 0 1-1.71 3.71 7.937 7.937 0 0 1-3.102 2.592 18.011 18.011 0 0 0 2.099-3.194 22.724 22.724 0 0 0 1.267-3.501c.344-1.203.565-2.447.793-3.705Z" class="colord04719 svgShape"></path><path fill="#12225e" d="M567.084 241.518c2.282 6.582 16.04 9.917 17.927 8.583s4.84 3.603 9.1-.488c0 0 7.654 1.413 8.375-2.216 0 0 7.505-.565 6.97-7.676a7.558 7.558 0 0 0 4.77-7.902s6.63-4.277 3.908-11.422c0 0 2.96-8.168-2.703-9.53 0 0 2.685-6.558-2.13-7.189 0 0 1.332-6.06-5.063-6.571 0 0 1.702-9.067-6.885-7.03 0 0 .132-6.168-5.369-5.357 0 0-2.09-4.015-5.664-1.362 0 0-4.893.964-1.924 6.104 0 0-23.595 45.474-21.312 52.056Z" class="color5e1212 svgShape"></path><path fill="#6686fd" d="M415.902 377.626c-.33.546-.732 1.184-1.168 1.863h-13.948l-34.028-37.892-2.81-51.489a68.664 68.664 0 0 1 14.641-2.32s3.997 24.313 4.696 26.918c3.926 14.63 28.666 48.066 28.666 48.066 3.664 2.093 18.667 9.624 19.978 11.977s-5.296 2.927-8.672.894c-3.377-2.035-5.153-1.656-7.355 1.983ZM285.496 168.828c1.761 2.671 3.977 4.872 6.506 5.541 7.251 1.92 4.692-12.796 4.692-12.796 7.038-3.84 1.92-18.342 1.92-18.342 7.678 0 8.957-6.185 8.957-6.185 5.972 4.905 10.024-2.986 10.024-2.986 1.493 10.45 9.811 7.038 9.811 7.038 2.773 9.171 10.45 4.491 10.45 4.491a5.383 5.383 0 0 0 7.067 2.32s4.664 46.722-2.8 54.187c-7.465 7.464-14.504 7.678-14.504 7.678s.801 24.953 1.68 26.02c0 0-8.192 14.076-11.547 14.076-3.356 0-14.873-13.65-17.006-16.636-2.132-2.986-11.517-17.915-11.73-22.394-.213-4.479 1.493-24.527 1.493-24.527s-16.397-7.258-5.013-17.485Z" class="colorfd8b66 svgShape"></path><path fill="#12225e" d="M317.595 134.06s-4.052 7.891-10.024 2.986c0 0-1.28 6.185-8.957 6.185 0 0 5.118 14.503-1.92 18.342 0 0 2.56 14.716-4.692 12.796s-11.944-16.422-10.664-18.555-4.259-4.905-.21-9.81c0 0-2.136-8.105 1.703-9.172 0 0 0-8.104 7.678-8.104a8.138 8.138 0 0 1 8.1-5.759s4.057-7.464 11.948-5.118c0 0 8.531-3.84 10.45 2.132 0 0 6.826-3.412 7.892 1.707 0 0 6.398-1.92 7.465 4.905 0 0 9.597-2.56 8.104 6.825 0 0 6.612-.64 6.185 5.332 0 0 4.48 1.92 1.92 5.972 0 0-.64 5.332-6.398 2.559 0 0-5.119 3.437-8.318-1.694 0 0-7.678 4.68-10.45-4.491 0 0-8.319 3.412-9.812-7.038Z" class="color5e1212 svgShape"></path><path fill="#000f49" d="M331.884 156.138a.75.75 0 0 1-.593-1.21c3.218-4.16 8.774-1.92 11.266-.152a.75.75 0 0 1-.869 1.224c-.245-.174-6.07-4.218-9.21-.153a.753.753 0 0 1-.594.29ZM307.514 156.138a.75.75 0 0 1-.593-1.21c3.216-4.161 8.776-1.92 11.265-.152a.75.75 0 0 1-.868 1.224c-.245-.175-6.072-4.22-9.21-.153a.753.753 0 0 1-.594.29ZM337.004 166.169c2.895 0 2.9-4.5 0-4.5-2.896 0-2.9 4.5 0 4.5ZM312.903 166.169c2.896 0 2.9-4.5 0-4.5-2.895 0-2.9 4.5 0 4.5Z" class="color490000 svgShape"></path><path fill="#193fd0" d="M326.34 159.866a52.847 52.847 0 0 1 2.989 5.946 63.256 63.256 0 0 1 2.344 6.233c.317 1.069.622 2.145.858 3.25a10.645 10.645 0 0 1 .277 3.51 2.172 2.172 0 0 1-.155.53 1.965 1.965 0 0 1-.146.281 2.49 2.49 0 0 1-.271.279 3.385 3.385 0 0 1-.877.418 4.954 4.954 0 0 1-1.794.204 7.64 7.64 0 0 1-3.225-1.029 9.774 9.774 0 0 0 3.217.292A4.186 4.186 0 0 0 331 179.4a3.13 3.13 0 0 0 .574-.361 1.674 1.674 0 0 0 .074-.39 11.769 11.769 0 0 0-.5-3.032 52.759 52.759 0 0 0-.907-3.127c-.634-2.09-1.342-4.167-2.004-6.267-.672-2.096-1.332-4.201-1.897-6.356Z" class="colord04719 svgShape"></path><path fill="#234ce8" d="M324.634 188.446a3.793 3.793 0 0 1-2.816.127 5.62 5.62 0 0 1-2.423-1.567 6.63 6.63 0 0 1-1.408-2.43 9.909 9.909 0 0 1-.28-1.35 7.237 7.237 0 0 1 .045-1.392 8.799 8.799 0 0 1 .87 1.037c.272.335.53.664.766.99.513.627.96 1.255 1.478 1.79a12.649 12.649 0 0 0 1.637 1.513 11.04 11.04 0 0 0 2.13 1.282Z" class="colore8233b svgShape"></path><path fill="#193fd0" d="M327.62 209.774s-11.944 0-17.596-6.399c0 0 4.585 12.481 17.862 13.546ZM286.883 173.943a12.163 12.163 0 0 0 .295 3.471 4.039 4.039 0 0 0 .7 1.351c.32.455.771.85 1.245 1.386a3.17 3.17 0 0 1-2.023-.511 3.111 3.111 0 0 1-1.354-1.782 3.684 3.684 0 0 1 .015-2.182 3.473 3.473 0 0 1 1.122-1.733Z" class="colord04719 svgShape"></path><path fill="#78a4d0" d="m264.703 304.327-39.812-4.55s5.118-42.371 11.943-49.907 40.38-28.01 40.38-28.01l11.802-11.02c.213 4.479 9.598 19.408 11.73 22.394 2.133 2.986 13.65 16.636 17.006 16.636 3.355 0 11.548-14.077 11.548-14.077-.65-.787-1.256-14.591-1.529-21.763l.115.009s5.919 9.171 9.118 9.598c3.199.426 33.058 11.303 33.058 13.863 0 2.559 11.232 50.049 11.232 50.049s-17.346 1.422-17.346 2.56c0 1.137 11.659 211.571 11.659 211.571H238.54s1.138-57.443 5.12-75.074c3.98-17.63 21.043-122.28 21.043-122.28Z" class="color78c1d0 svgShape"></path><path fill="#0575e6" d="m363.948 290.108 4.55-32.987 3.108 31.402-7.658 1.585zM264.703 304.327s5.971-14.219 8.53-27.584c0 0 .57 33.84-1.421 41.518s-12.351 17.895-12.351 17.895ZM317.751 249.87a106.703 106.703 0 0 1 3.165 13.708c.803 4.62 1.346 9.28 1.732 13.955a132.537 132.537 0 0 1 .302 14.082 73.502 73.502 0 0 1-1.757 13.988 701.764 701.764 0 0 0-.584-13.966c-.184-2.315-.247-4.629-.456-6.94-.126-2.314-.319-4.626-.495-6.938l-1.057-13.897c-.351-4.642-.674-9.291-.85-13.992Z" opacity=".58" class="color2b8daf svgShape"></path><path fill="#021b79" d="M311.908 265.24c3.86 0 3.867-6 0-6-3.86 0-3.867 6 0 6ZM314.183 284.008c3.86 0 3.867-6 0-6-3.86 0-3.867 6 0 6ZM314.752 302.208c3.86 0 3.867-6 0-6-3.861 0-3.867 6 0 6Z" class="color581d58 svgShape"></path><rect width="114.906" height="71.329" x="300.045" y="317.873" fill="#57abff" rx="3" class="colorffb957 svgShape"></rect><path fill="#376492" d="M346.791 317.873h21.415v71.329h-21.415z" class="color376f92 svgShape"></path><path fill="#376492" d="M300.045 342.83h114.906v21.415H300.045z" class="color376f92 svgShape"></path><path fill="#000f49" d="M325.826 182.344a9.986 9.986 0 0 1 6.039-1.57 12.387 12.387 0 0 1 3.182.547 15.893 15.893 0 0 1 1.53.57l1.39.717a42.252 42.252 0 0 0 4.761 2.275c1.689.7 3.447 1.345 5.398 2.091a11.798 11.798 0 0 1-6.105.973 14.756 14.756 0 0 1-6.024-1.859l-1.16-.658c-.377-.186-.745-.398-1.133-.57-.762-.385-1.568-.684-2.394-1.002a40.333 40.333 0 0 0-5.484-1.514Z" class="color490000 svgShape"></path><path fill="#000f49" d="M327.333 182.576a40.355 40.355 0 0 0-5.685-.203c-.884.055-1.742.099-2.584.237-.422.047-.837.139-1.253.204l-1.304.279a14.751 14.751 0 0 1-6.304-.036 11.8 11.8 0 0 1-5.53-2.76c2.084-.127 3.955-.214 5.776-.375a42.263 42.263 0 0 0 5.224-.74l1.543-.267a15.84 15.84 0 0 1 1.63-.084 12.384 12.384 0 0 1 3.2.433 9.987 9.987 0 0 1 5.287 3.312Z" class="color490000 svgShape"></path><path fill="#6686fd" d="M260.18 303.81s-7.563 38.907-6.995 40.329 29.433 13.08 34.551 15.356 13.247 2.914 16.02 2.275 16.365-1.067 16.365-1.067 1.124 2.986-3.355 5.332a34.163 34.163 0 0 1-10.45 2.986s13.807 21.47 20.557 22.892c0 0 .533 4.195-4.479 4.408 0 0-1.386 4.052-6.825 0 0 0-3.519 2.452-8.424-1.173a9.275 9.275 0 0 1-7.358-1.493c-3.84-2.56-8.318-8.318-8.958-14.503 0 0-62.607-6.5-69.635-21.08-2.385-4.946 8.035-57.8 8.035-57.8Z" class="colorfd8b66 svgShape"></path><path fill="#193fd0" d="M306.078 386.083a5.359 5.359 0 0 0 1.073 1.375l1.239 1.255a21.982 21.982 0 0 1 2.293 2.745 23.54 23.54 0 0 0 2.236 2.54c.822.795 1.705 1.545 2.65 2.323a8.969 8.969 0 0 1-3.382-1.41 10.899 10.899 0 0 1-2.702-2.551 109.317 109.317 0 0 1-2.005-2.918 15.706 15.706 0 0 1-.929-1.563 3.59 3.59 0 0 1-.473-1.796ZM307.145 395.148a6.217 6.217 0 0 1-2.21-1.112 8.48 8.48 0 0 1-2.882-3.944 6.168 6.168 0 0 1-.382-2.445c.54.651.982 1.288 1.425 1.912l1.32 1.833 1.341 1.817c.46.612.932 1.227 1.388 1.939ZM322.394 396.32a18.258 18.258 0 0 1-3.39-1.777 26.307 26.307 0 0 1-3.041-2.297 20.485 20.485 0 0 1-2.648-2.776 9.862 9.862 0 0 1-1.851-3.387c.88.943 1.795 1.758 2.708 2.59.92.82 1.841 1.641 2.781 2.448a66.56 66.56 0 0 1 5.441 5.2ZM228.303 344.139c.19 1.422.38 2.8.596 4.161a39.112 39.112 0 0 0 .843 4 23.622 23.622 0 0 0 1.382 3.779 18.562 18.562 0 0 0 2.298 3.416 8.7 8.7 0 0 1-3.302-2.814 13.611 13.611 0 0 1-1.825-3.988 17.11 17.11 0 0 1-.558-4.298 14.195 14.195 0 0 1 .566-4.256Z" class="colord04719 svgShape"></path><path fill="#6686fd" d="M473.807 386.468c.307.508.68 1.1 1.085 1.731h12.953l31.604-35.191 2.609-47.82a63.77 63.77 0 0 0-13.598-2.154s-3.712 22.58-4.36 25c-3.647 13.586-26.623 44.639-26.623 44.639-3.404 1.944-17.337 8.938-18.555 11.124s4.92 2.718 8.054.83c3.136-1.89 4.786-1.538 6.83 1.841ZM594.918 192.553c-1.636 2.481-3.694 4.525-6.042 5.147-6.735 1.782-4.358-11.885-4.358-11.885-6.537-3.565-1.783-17.034-1.783-17.034-7.13 0-8.319-5.744-8.319-5.744-5.546 4.555-9.31-2.774-9.31-2.774-1.386 9.706-9.111 6.537-9.111 6.537-2.575 8.517-9.706 4.17-9.706 4.17a5 5 0 0 1-6.562 2.156s-4.332 43.391 2.6 50.324c6.933 6.932 13.47 7.13 13.47 7.13s-.744 23.175-1.56 24.166c0 0 7.608 13.073 10.724 13.073 3.117 0 13.813-12.677 15.793-15.45 1.981-2.773 10.697-16.639 10.895-20.798.198-4.16-1.387-22.779-1.387-22.779s15.228-6.74 4.656-16.239Z" class="colorfd8b66 svgShape"></path><path fill="#12225e" d="M565.106 160.263s3.764 7.33 9.31 2.773c0 0 1.188 5.745 8.32 5.745 0 0-4.755 13.469 1.782 17.034 0 0-2.377 13.667 4.358 11.885s11.092-15.252 9.903-17.233 3.956-4.556.195-9.111c0 0 1.984-7.527-1.581-8.518 0 0 0-7.526-7.13-7.526a7.558 7.558 0 0 0-7.523-5.348s-3.768-6.933-11.097-4.754c0 0-7.923-3.566-9.706 1.98 0 0-6.338-3.169-7.329 1.585 0 0-5.942-1.783-6.932 4.556 0 0-8.914-2.377-7.527 6.338 0 0-6.14-.594-5.744 4.952 0 0-4.16 1.783-1.783 5.546 0 0 .594 4.952 5.942 2.377 0 0 4.754 3.192 7.725-1.573 0 0 7.131 4.346 9.706-4.171 0 0 7.725 3.17 9.111-6.537Z" class="color5e1212 svgShape"></path><path fill="#000f49" d="M551.836 180.821a.753.753 0 0 1-.595-.29c-2.884-3.736-8.253-.008-8.48.153a.75.75 0 0 1-.867-1.224c2.327-1.651 7.522-3.744 10.535.152a.75.75 0 0 1-.593 1.21ZM574.47 180.821a.753.753 0 0 1-.595-.29c-2.884-3.736-8.255-.008-8.48.153a.75.75 0 0 1-.869-1.224c2.328-1.652 7.524-3.743 10.537.152a.75.75 0 0 1-.593 1.21ZM547.082 190.244c2.895 0 2.9-4.5 0-4.5-2.896 0-2.9 4.5 0 4.5ZM569.464 190.244c2.896 0 2.9-4.5 0-4.5-2.895 0-2.9 4.5 0 4.5Z" class="color490000 svgShape"></path><path fill="#193fd0" d="M556.985 184.23c-1.02 4.01-2.378 7.863-3.571 11.74a49.578 49.578 0 0 0-.845 2.9 11.061 11.061 0 0 0-.472 2.797c.005.184.07.358.05.338a2.883 2.883 0 0 0 .524.333 3.852 3.852 0 0 0 1.327.36 9.168 9.168 0 0 0 2.987-.244 7.037 7.037 0 0 1-2.996.981 4.62 4.62 0 0 1-1.678-.182 3.155 3.155 0 0 1-.825-.391 1.615 1.615 0 0 1-.55-1.036 9.886 9.886 0 0 1 .25-3.278c.219-1.029.501-2.03.796-3.023a56.748 56.748 0 0 1 2.189-5.788 46.624 46.624 0 0 1 2.814-5.506ZM558.57 210.773a10.893 10.893 0 0 0 1.954-1.241 12.837 12.837 0 0 0 1.492-1.402c.477-.492.892-1.067 1.375-1.64.224-.3.47-.6.73-.908a7.912 7.912 0 0 1 .84-.95 6.41 6.41 0 0 1 .075 1.305 8.832 8.832 0 0 1-.243 1.267 6.048 6.048 0 0 1-1.306 2.28 5.171 5.171 0 0 1-2.278 1.457 3.476 3.476 0 0 1-2.639-.168ZM555.797 230.58s11.092 0 16.341-5.942c0 0-4.258 11.592-16.588 12.58ZM593.63 197.304a3.156 3.156 0 0 1 1.083 1.604 3.397 3.397 0 0 1 .024 2.048 3.014 3.014 0 0 1-3.187 2.114c.432-.52.84-.895 1.128-1.32a3.87 3.87 0 0 0 .627-1.238 12.518 12.518 0 0 0 .324-3.208Z" class="colord04719 svgShape"></path><path fill="#0f3ce6" d="m614.23 318.394 36.973-4.226s-4.753-39.35-11.092-46.35-37.502-26.013-37.502-26.013l-10.96-10.234c-.198 4.16-8.914 18.025-10.895 20.798-1.98 2.773-12.676 15.45-15.793 15.45-3.116 0-10.724-13.073-10.724-13.073.603-.732 1.165-13.552 1.419-20.213l-.106.009s-5.497 8.517-8.468 8.913c-2.972.396-24.701 15.109-27.654 17.346-1.894 1.436-13.48 42.011-13.48 42.011s16.11 1.32 16.11 2.377c0 1.056-10.828 196.491-10.828 196.491h127.297s1.03-60.871-2.667-77.246c-1.138-5.038-17.923-53.912-20.546-69.066-.758-4.38 0-11.535 0-11.535Z" class="colore6560f svgShape"></path><path fill="#021b79" d="m522.058 305.189-4.226-30.636-2.887 29.164 7.113 1.472z" class="color581d58 svgShape"></path><path fill="#0025af" d="M607.627 331.335c1.075 4.146 4.776 9.087 7.688 12.498l-1.086-25.439s-5.546-13.205-7.923-25.618c0 0-.528 31.428 1.32 38.559Z" class="coloraf2500 svgShape"></path><path fill="#021b79" d="M561.269 319.633c-2.266-20.83 3.145-51.594 3.2-51.903l.984.176c-.055.307-5.44 30.933-3.19 51.62ZM570.388 282.307c3.861 0 3.868-6 0-6-3.86 0-3.867 6 0 6ZM568.276 299.738c3.86 0 3.867-6 0-6-3.861 0-3.867 6 0 6ZM567.747 316.64c3.861 0 3.868-6 0-6-3.86 0-3.867 6 0 6Z" class="color581d58 svgShape"></path><path fill="#6686fd" d="m581.406 345.617 33.909-1.784v11.535l-33.909 4.698v-14.449z" class="colorfd8b66 svgShape"></path><path fill="#376492" d="M522.058 313.64s52.335-65.657 80.55-71.835c0 0 11.512-.939 21.438 13.749 0 0-49.238 188.425-109.97 194.701 0 0-4.493-98.25 7.982-136.615Z" class="color376f92 svgShape"></path><rect width="110.167" height="66.245" x="474.69" y="332.723" fill="#78a4d0" rx="3" class="color78c1d0 svgShape"></rect><rect width="85.367" height="52.993" x="493.724" y="279.73" fill="#57abff" rx="3" class="colorffb957 svgShape"></rect><path fill="#032dca" d="M493.724 323.829h85.367v8.894h-85.367z" opacity=".53" class="colorca5303 svgShape"></path><rect width="76.655" height="41.271" x="480.174" y="238.459" fill="#78a4d0" rx="3" class="color78c1d0 svgShape"></rect><path fill="#032dca" d="M552.658 285.532v-5.802h-58.934v8.802h55.934a3 3 0 0 0 3-3Z" opacity=".53" class="colorca5303 svgShape"></path><path fill="#0575e6" d="M592.12 212.12a4.5 4.5 0 1 0-4.5-4.5 4.55 4.55 0 0 0 4.5 4.5Z" class="color2b8daf svgShape"></path><path fill="#193fd0" d="M556.053 200.934a1.5 1.5 0 0 0 0-3 1.5 1.5 0 0 0 0 3ZM558.4 181.148c2.298 0 0-5.52 0-5.52s-2.303 5.52 0 5.52Z" class="colord04719 svgShape"></path><path fill="#376492" d="M556.829 260.618h-50.881v-22.159h-15.537v22.159h-10.237v12.997h10.237v5.692h15.537v-5.692h50.881v-12.997z" class="color376f92 svgShape"></path><path fill="#789fc6" d="M493.724 295.737h84.852v2h-84.852zM493.724 313.629h84.852v2h-84.852z" class="color78a7c6 svgShape"></path><path fill="#376492" d="M584.858 354.338h-43.192v-21.615h-21.415v21.615h-45.56v21.415h45.56v23.215h21.415v-23.215h43.192v-21.415z" class="color376f92 svgShape"></path><path fill="#6686fd" d="M618.43 317.914s7.024 36.134 6.495 37.454-27.334 12.149-32.088 14.262-12.303 2.707-14.878 2.112-15.198-.99-15.198-.99-1.044 2.773 3.116 4.952a31.728 31.728 0 0 0 9.705 2.773s-12.823 19.94-19.092 21.26c0 0-.495 3.896 4.16 4.094 0 0 1.287 3.763 6.338 0 0 0 3.268 2.278 7.824-1.09a8.614 8.614 0 0 0 6.834-1.386c3.565-2.377 7.725-7.725 8.319-13.47 0 0 50.27-7.676 61.42-21.26 3.237-3.942-4.211-51.996-4.211-51.996Z" class="colorfd8b66 svgShape"></path><path fill="#193fd0" d="M575.802 394.323a3.307 3.307 0 0 1-.417 1.682 14.169 14.169 0 0 1-.852 1.463 82.155 82.155 0 0 1-1.852 2.716 9.954 9.954 0 0 1-2.525 2.37 8.118 8.118 0 0 1-3.168 1.277c.868-.743 1.68-1.447 2.435-2.19a23.142 23.142 0 0 0 2.06-2.359 19.555 19.555 0 0 1 2.14-2.543l1.162-1.155a5.082 5.082 0 0 0 1.017-1.261ZM574.812 402.741c.41-.679.84-1.257 1.26-1.83l1.232-1.69 1.231-1.689c.417-.574.838-1.16 1.361-1.756a5.528 5.528 0 0 1-.318 2.288 7.362 7.362 0 0 1-1.063 2.042 7.437 7.437 0 0 1-1.622 1.633 5.578 5.578 0 0 1-2.08 1.002ZM560.65 403.83a53.63 53.63 0 0 1 5.017-4.869l2.588-2.261c.853-.767 1.709-1.513 2.546-2.377a8.93 8.93 0 0 1-1.689 3.174 17.573 17.573 0 0 1-2.454 2.59 22.02 22.02 0 0 1-2.835 2.125 16.127 16.127 0 0 1-3.173 1.619Z" class="colord04719 svgShape"></path><path fill="#789fc6" d="m612.25 312.646 38.1-4.912.255 1.985-38.1 4.912zM615.824 310.478a1.5 1.5 0 0 0 0-3 1.5 1.5 0 0 0 0 3ZM623.504 308.798a1.5 1.5 0 0 0 0-3 1.5 1.5 0 0 0 0 3ZM633.584 307.358a1.5 1.5 0 0 0 0-3 1.5 1.5 0 0 0 0 3Z" class="color78a7c6 svgShape"></path><path fill="#789fc6" d="M623.664 305.918a1.5 1.5 0 0 0 0-3 1.5 1.5 0 0 0 0 3Z" class="color78a7c6 svgShape"></path><path fill="#000f49" d="M689.291 503.18H177.269a1.5 1.5 0 1 1 0-3H689.29a1.5 1.5 0 0 1 0 3Z" class="color490000 svgShape"></path></svg>