<svg xmlns="http://www.w3.org/2000/svg" viewBox="0 0 2000 2000" id="Paymentdone"><path fill="#edf4fb" d="M1655.13 1191h0c-2.16 3.23-4.35 6.4-6.55 9.55h0c-13.33 19.04-27.38 36.77-42.06 52.86-114.65 125.73-293.59 213.24-453.3 263.52-98.5 31.01-201.05 49.29-304.25 53.47-141.75 5.72-288.25-15.69-410.49-87.68-122.24-72-216.43-200.51-222.39-342.25-.49-11.7-.4-23.37.24-35.01h0c.1-1.88.22-3.75.35-5.62 5.32-75.91 33.6-149.82 72.49-215.68 45.81-77.56 105.95-145.52 165.71-212.93 66.59-75.13 133.19-150.27 199.78-225.39 2-2.26 4.01-4.53 6.02-6.79 15.71-17.73 31.41-35.44 47.12-53.17 49.99-56.41 101.21-113.82 166.62-151.26 112.54-64.43 252.48-60.88 378.37-29.79 135.25 33.41 264.66 97.72 363.25 196.14 82.26 82.12 141.69 189.03 161.23 303.09.32 1.82.62 3.64.91 5.47 3.34 20.87 5.33 41.96 5.89 63.17 3.46 132.42-48.52 298.74-128.94 418.31zM1637.96 350.52c3.39-4.41 5.05-9.91 6.11-15.38 3.86-20.03-.31-42.44-14.64-56.95-19.3-19.53-81.41-13.46-65.25 23.11 5.87 13.29 23.28 22.38 33.01 32.66 9.91 10.47 25.59 36.32 40.78 16.56zM1657.16 385.95c1.97 3.28 4.01 6.65 7.12 8.88 3.1 2.23 7.56 3.05 10.73.9 2.1-1.42 3.3-3.92 3.56-6.44.83-7.96-6.67-20.83-14.83-22.87-12.97-3.24-10.53 12.93-6.57 19.52z" class="coloredf2fb svgShape"></path><g opacity=".5" fill="#000000" class="color000000 svgShape"><path fill="#ffffff" d="M1778.18 709.52c-29.78-2.95-59.15-8.3-87.84-16.06-90.34-24.43-173.45-71.07-253.83-116.18-47.35-26.57-96.3-54.05-146.28-76.73-198.5-90.1-425.57-108.15-635.57-54.72 2-2.26 4.01-4.53 6.02-6.79 71.58-17.5 145.76-27 220.34-28.03 142.94-1.97 285.22 27.29 411.45 84.59 50.18 22.78 99.25 50.31 146.69 76.94 80.09 44.94 162.91 91.41 252.59 115.67 28.12 7.6 56.73 12.86 85.51 15.83.32 1.82.62 3.64.91 5.47zM1655.13 1191.01c-2.16 3.22-4.35 6.39-6.55 9.54h0c-33.31 16.18-67.75 30.52-103.13 42.9-102.52 35.9-209.15 54.09-314.48 54.1-50.42 0-100.53-4.17-149.79-12.56-106.09-18.07-209.37-54.79-309.24-90.28-19.94-7.09-40.56-14.41-60.84-21.47-137.66-47.86-254.2-79.77-375.49-79.94h-.8c-41.04 0-80.8 4.16-118.48 12.15.1-1.87.22-3.74.35-5.61 37.62-7.89 77.25-11.97 118.13-11.97h.81c59.4.08 122.02 8.03 191.48 24.31 67.76 15.88 134.88 38.23 185.78 55.93 20.31 7.07 40.93 14.39 60.88 21.49 99.65 35.42 202.7 72.05 308.33 90.04 193.48 32.95 396.99-.96 573.04-88.63z" class="colorffffff svgShape"></path></g><ellipse cx="1000" cy="1739.11" opacity=".05" rx="771.22" ry="60.89" fill="#000000" class="color000000 svgShape"></ellipse><g fill="#000000" class="color000000 svgShape"><rect width="13.59" height="106.93" x="1179.11" y="874.42" fill="#5aa2ea" rx="6.8" ry="6.8" class="color5c5aea svgShape"></rect><rect width="13.59" height="236.64" x="1179.11" y="530.25" fill="#5aa2ea" rx="6.8" ry="6.8" class="color5c5aea svgShape"></rect><rect width="802.26" height="1514.57" x="333.35" y="224.06" fill="#67a6e6" rx="48.57" ry="48.57" class="color6a67e6 svgShape"></rect><rect width="802.26" height="1514.57" x="381.03" y="224.06" fill="#83b9ef" rx="48.57" ry="48.57" class="color8583ef svgShape"></rect><path fill="#add0f4" d="M1183.29,272.62V1690.06c0,15.61-7.37,29.51-18.83,38.4,6.37-8.22,10.16-18.53,10.16-29.73V281.29c0-26.83-21.74-48.57-48.57-48.57H420.94c-11.2,0-21.5,3.79-29.72,10.15,8.88-11.45,22.77-18.82,38.38-18.82h705.13c26.82,0,48.57,21.75,48.57,48.57Z" class="coloradadf4 svgShape"></path><rect width="739.8" height="1375.47" x="412.26" y="293.61" fill="#f3f9ff" rx="22.73" ry="22.73" class="colorf3fffe svgShape"></rect><path fill="#5aa2ea" d="M705.11,251.04h154.1c0,6.95-5.64,12.59-12.59,12.59h-128.91c-6.95,0-12.59-5.64-12.59-12.59h0Z" class="color5c5aea svgShape"></path><circle cx="782.16" cy="616.76" r="163.96" fill="#add0f4" class="coloradadf4 svgShape"></circle><path fill="#ffffff" d="M738.04,704.96c-5.58,0-11.15-2.13-15.4-6.38l-44.59-44.59c-8.51-8.51-8.51-22.3,0-30.81,8.51-8.51,22.3-8.51,30.81,0l29.19,29.19,117.43-117.43c8.51-8.51,22.3-8.51,30.81,0,8.51,8.51,8.51,22.3,0,30.81l-132.83,132.83c-4.25,4.25-9.83,6.38-15.4,6.38Z" class="colorffffff svgShape"></path><path fill="#add0f4" d="M782.18,810.66c-.07,0-.13,0-.2,0-6.03-.24-12.05-.69-17.88-1.33-2.49-.27-4.28-2.51-4.01-4.99s2.52-4.28,4.99-4.01c5.6,.61,11.37,1.04,17.16,1.27,3.86,0,7.77-.12,11.62-.36,2.49-.16,4.64,1.74,4.8,4.24,.16,2.49-1.74,4.64-4.24,4.8-4.06,.25-8.18,.38-12.25,.38Zm29.81-2.34c-2.19,0-4.11-1.59-4.46-3.82-.39-2.47,1.29-4.79,3.76-5.18,9.5-1.5,18.95-3.77,28.09-6.74,2.38-.78,4.93,.53,5.7,2.91,.77,2.38-.53,4.93-2.91,5.7-9.58,3.12-19.5,5.5-29.47,7.07-.24,.04-.48,.06-.71,.06Zm-65.14-1.6c-.28,0-.56-.03-.84-.08-10.07-1.9-19.91-4.46-29.25-7.63-2.37-.8-3.64-3.37-2.83-5.74,.8-2.37,3.37-3.64,5.74-2.83,8.94,3.03,18.37,5.49,28.02,7.31,2.46,.46,4.07,2.83,3.61,5.29-.41,2.17-2.31,3.69-4.44,3.69Zm110.71-11.67c-1.75,0-3.41-1.02-4.15-2.72-1-2.29,.06-4.96,2.35-5.96,8.8-3.82,17.38-8.38,25.5-13.55,2.11-1.34,4.91-.72,6.25,1.39,1.34,2.11,.72,4.91-1.39,6.25-8.51,5.42-17.51,10.2-26.75,14.21-.59,.26-1.2,.38-1.8,.38Zm-156.06-2.33c-.62,0-1.24-.13-1.84-.39-9.31-4.15-18.26-9.03-26.61-14.52-2.09-1.37-2.67-4.18-1.3-6.27,1.37-2.09,4.18-2.67,6.27-1.3,7.94,5.22,16.47,9.87,25.33,13.82,2.28,1.02,3.31,3.69,2.29,5.98-.75,1.68-2.4,2.68-4.14,2.68Zm196.86-21.89c-1.35,0-2.68-.6-3.58-1.75-1.54-1.97-1.18-4.82,.79-6.35,7.59-5.9,14.77-12.45,21.36-19.46,1.71-1.82,4.58-1.91,6.4-.2,1.82,1.71,1.91,4.58,.2,6.4-6.91,7.35-14.44,14.22-22.4,20.41-.83,.64-1.8,.95-2.78,.95Zm-237.3-2.88c-1,0-2.01-.33-2.85-1.02-7.83-6.37-15.18-13.46-21.84-21.07-1.65-1.88-1.46-4.74,.43-6.39,1.88-1.65,4.74-1.46,6.39,.43,6.32,7.23,13.3,13.96,20.74,20.01,1.94,1.58,2.23,4.43,.65,6.37-.89,1.1-2.2,1.67-3.51,1.67Zm270.83-30.7c-.97,0-1.95-.31-2.77-.95-1.98-1.53-2.33-4.38-.8-6.35,5.9-7.61,11.24-15.73,15.88-24.15,1.21-2.19,3.96-2.99,6.15-1.78,2.19,1.21,2.99,3.96,1.78,6.15-4.86,8.83-10.46,17.35-16.65,25.33-.89,1.15-2.23,1.75-3.58,1.75Zm-303.24-3.93c-1.42,0-2.81-.66-3.69-1.91-5.81-8.18-11.02-16.96-15.49-26.09-1.1-2.25-.17-4.96,2.08-6.06,2.25-1.1,4.96-.17,6.06,2.08,4.25,8.69,9.21,17.04,14.74,24.82,1.45,2.04,.97,4.86-1.07,6.31-.8,.56-1.71,.84-2.62,.84Zm327.4-36.92c-.6,0-1.21-.12-1.79-.37-2.29-.99-3.35-3.66-2.36-5.95,3.82-8.83,6.96-18.03,9.35-27.35,.62-2.42,3.08-3.88,5.51-3.26,2.42,.62,3.88,3.09,3.26,5.51-2.5,9.78-5.8,19.43-9.81,28.7-.74,1.71-2.41,2.73-4.16,2.73Zm-349.63-5.01c-1.83,0-3.55-1.12-4.24-2.93-3.53-9.38-6.38-19.16-8.48-29.08-.52-2.45,1.05-4.85,3.49-5.36,2.45-.52,4.85,1.05,5.36,3.49,2,9.47,4.73,18.81,8.1,27.76,.88,2.34-.3,4.95-2.64,5.83-.53,.2-1.06,.29-1.59,.29Zm362.84-40.59c-.23,0-.47-.02-.71-.05-2.47-.39-4.16-2.7-3.77-5.17,1.48-9.46,2.23-19.15,2.23-28.81v-.46c0-2.5,2.01-4.53,4.51-4.54h.01c2.49,0,4.52,2.02,4.53,4.51v.47c0,10.13-.79,20.3-2.34,30.22-.35,2.23-2.28,3.83-4.47,3.83Zm-374.05-5.54c-2.26,0-4.21-1.69-4.49-3.99-.96-8.09-1.45-16.34-1.45-24.51,0-1.91,.03-3.83,.08-5.73,.07-2.5,2.16-4.48,4.65-4.4,2.5,.07,4.47,2.15,4.4,4.65-.05,1.81-.08,3.66-.08,5.48,0,7.81,.47,15.7,1.39,23.44,.3,2.48-1.48,4.73-3.96,5.03-.18,.02-.36,.03-.54,.03Zm375.44-42.35c-2.3,0-4.27-1.75-4.5-4.09-.92-9.59-2.61-19.16-5.01-28.45-.63-2.42,.83-4.89,3.25-5.52,2.42-.63,4.89,.83,5.52,3.25,2.52,9.75,4.29,19.79,5.26,29.84,.24,2.49-1.58,4.7-4.07,4.94-.15,.01-.29,.02-.44,.02Zm-375.48-5.13c-.18,0-.35-.01-.53-.03-2.48-.29-4.26-2.54-3.97-5.02,1.18-10.05,3.1-20.05,5.73-29.73,.66-2.41,3.14-3.84,5.55-3.18,2.41,.66,3.84,3.14,3.18,5.55-2.51,9.25-4.35,18.8-5.48,28.41-.27,2.3-2.23,4-4.49,4Zm365.04-41.15c-1.85,0-3.59-1.14-4.25-2.98-3.28-9.02-7.3-17.86-11.96-26.27-1.21-2.19-.42-4.94,1.77-6.15,2.19-1.21,4.94-.42,6.15,1.77,4.89,8.83,9.11,18.1,12.55,27.57,.85,2.35-.36,4.95-2.71,5.8-.51,.19-1.03,.27-1.55,.27Zm-353.94-5.01c-.53,0-1.06-.09-1.58-.29-2.34-.88-3.53-3.48-2.65-5.82,3.56-9.52,7.87-18.76,12.81-27.47,1.23-2.17,4-2.94,6.17-1.7,2.17,1.23,2.94,4,1.7,6.17-4.71,8.3-8.81,17.1-12.2,26.17-.68,1.82-2.41,2.94-4.24,2.94Zm332.26-37.19c-1.44,0-2.86-.69-3.74-1.97-5.43-7.93-11.53-15.5-18.13-22.49-1.72-1.82-1.63-4.68,.19-6.4,1.82-1.72,4.68-1.63,6.4,.19,6.92,7.34,13.32,15.28,19.01,23.59,1.41,2.06,.89,4.88-1.18,6.29-.78,.54-1.67,.79-2.55,.79Zm-310.15-4.79c-.9,0-1.81-.27-2.61-.83-2.04-1.44-2.53-4.27-1.09-6.31,5.85-8.28,12.42-16.1,19.52-23.24,1.76-1.77,4.63-1.78,6.4-.02,1.77,1.76,1.78,4.63,.02,6.4-6.74,6.78-12.98,14.21-18.54,22.08-.88,1.25-2.28,1.92-3.7,1.92Zm278.65-30.72c-1.06,0-2.12-.37-2.98-1.12-7.23-6.35-15.02-12.17-23.14-17.31-2.11-1.34-2.74-4.13-1.4-6.25,1.34-2.11,4.13-2.74,6.25-1.4,8.52,5.39,16.68,11.5,24.27,18.16,1.88,1.65,2.07,4.51,.42,6.39-.89,1.02-2.15,1.54-3.4,1.54Zm-246.32-4c-1.31,0-2.61-.57-3.51-1.66-1.58-1.93-1.3-4.79,.64-6.37,7.77-6.36,16.19-12.14,25.01-17.17,2.17-1.24,4.94-.48,6.18,1.69,1.24,2.17,.48,4.94-1.69,6.18-8.38,4.79-16.38,10.28-23.77,16.32-.84,.69-1.86,1.02-2.86,1.02Zm207.02-22.61c-.69,0-1.39-.16-2.04-.49-8.59-4.35-17.58-8.06-26.72-11.01-2.38-.77-3.69-3.32-2.92-5.7,.77-2.38,3.32-3.69,5.7-2.92,9.6,3.1,19.03,6.98,28.04,11.55,2.23,1.13,3.12,3.85,1.99,6.08-.8,1.57-2.39,2.48-4.04,2.48Zm-166.63-2.26c-1.73,0-3.38-1-4.13-2.67-1.02-2.28,0-4.96,2.28-5.98,9.04-4.06,18.63-7.51,28.48-10.25,2.41-.67,4.9,.74,5.57,3.15,.67,2.41-.74,4.9-3.15,5.57-9.42,2.62-18.57,5.92-27.2,9.79-.6,.27-1.23,.4-1.85,.4Zm121.94-13.7c-.32,0-.65-.03-.98-.11-9.36-2.06-18.99-3.4-28.61-3.97-2.5-.15-4.4-2.29-4.25-4.79s2.3-4.39,4.79-4.25c10.09,.61,20.19,2.01,30.01,4.17,2.44,.54,3.99,2.95,3.45,5.39-.47,2.11-2.34,3.56-4.42,3.56Zm-76.63-.4c-2.13,0-4.03-1.51-4.44-3.68-.47-2.46,1.14-4.83,3.6-5.29,9.63-1.83,19.7-3.1,29.93-3.76,2.48-.17,4.65,1.73,4.81,4.23,.16,2.49-1.73,4.65-4.23,4.81-9.86,.63-19.55,1.85-28.81,3.61-.29,.05-.57,.08-.85,.08Z" class="coloradadf4 svgShape"></path><path fill="#5aa2ea" d="M782.16,782.98c-91.66,0-166.22-74.57-166.22-166.22s74.57-166.22,166.22-166.22,166.22,74.57,166.22,166.22-74.57,166.22-166.22,166.22Zm0-327.92c-89.16,0-161.7,72.54-161.7,161.7s72.54,161.7,161.7,161.7,161.7-72.54,161.7-161.7-72.54-161.7-161.7-161.7Z" class="color5c5aea svgShape"></path><path fill="#5aa2ea" d="M738.04,707.22c-6.42,0-12.46-2.5-17-7.04l-44.59-44.59c-9.38-9.38-9.38-24.63,0-34.01,9.38-9.38,24.63-9.38,34.01,0l27.59,27.59,115.83-115.83c9.38-9.37,24.63-9.38,34.01,0,9.38,9.38,9.38,24.63,0,34.01l-132.83,132.83c-4.54,4.54-10.58,7.04-17,7.04Zm-44.59-88.15c-5,0-10,1.9-13.8,5.71-7.61,7.61-7.61,19.99,0,27.61l44.59,44.59c3.69,3.69,8.59,5.72,13.8,5.72s10.12-2.03,13.8-5.72l132.83-132.83c7.61-7.61,7.61-19.99,0-27.61-7.61-7.61-19.99-7.61-27.61,0l-117.43,117.43c-.85,.85-2.35,.85-3.2,0l-29.19-29.19c-3.81-3.8-8.81-5.71-13.8-5.71Z" class="color5c5aea svgShape"></path><g fill="#000000" class="color000000 svgShape"><polygon fill="#ffffff" points="986.21 293.61 412.26 867.55 412.26 702.88 821.54 293.61 986.21 293.61" opacity=".3" class="colorffffff svgShape"></polygon><path fill="#ffffff" d="M1152.06 316.33v247.57L412.26 1303.7v-304.27L1118.09 293.61h11.25c12.56 0 22.72 10.17 22.72 22.72zM1152.06 749.28v424.92l-494.88 494.88h-222.18c-12.56 0-22.73-10.18-22.73-22.73v-157.27l739.8-739.8z" opacity=".3" class="colorffffff svgShape"></path></g><g fill="#000000" class="color000000 svgShape"><rect width="560.84" height="63.01" x="501.74" y="1258.27" fill="#add0f4" rx="12.21" ry="12.21" class="coloradadf4 svgShape"></rect><path fill="#021b79" d="M1029.6,1292.04h-494.87c-1.25,0-2.26-1.01-2.26-2.26s1.01-2.26,2.26-2.26h494.87c1.25,0,2.26,1.01,2.26,2.26s-1.01,2.26-2.26,2.26Z" class="color1b1464 svgShape"></path><path fill="#e6e6e6" d="M1013.27,1688.89h-296.61c-3.7,9.53-11.65,18.81-20.38,18.81-16.11,0-34.93-31.56-34.93-151.31,0-135.35-5.87-198.59-28.76-235.11-8.36-13.32-18.96-23.09-32.37-31.51h336.27c13.41,8.42,24.01,18.19,32.37,31.51,22.89,36.53,28.76,99.77,28.76,235.11,0,71.81,6.76,111.9,15.66,132.5Z" class="colore6e6e6 svgShape"></path><path fill="#cccccc" d="M1052.92 1688.89c-3.7 9.53-11.64 18.81-20.38 18.81h-336.26c8.73 0 16.68-9.28 20.38-18.81h336.26zM721.48 1367.8h-37.14c-2 0-3.62-1.62-3.62-3.62s1.62-3.62 3.62-3.62h37.14c2 0 3.62 1.62 3.62 3.62s-1.62 3.62-3.62 3.62zM896.89 1367.8h-151.87c-2 0-3.62-1.62-3.62-3.62s1.62-3.62 3.62-3.62h151.87c2 0 3.62 1.62 3.62 3.62s-1.62 3.62-3.62 3.62zM728 1397.15h-37.14c-2 0-3.62-1.62-3.62-3.62s1.62-3.62 3.62-3.62h37.14c2 0 3.62 1.62 3.62 3.62s-1.62 3.62-3.62 3.62zM959.12 1397.15h-207.58c-2 0-3.62-1.62-3.62-3.62s1.62-3.62 3.62-3.62h207.58c2 0 3.62 1.62 3.62 3.62s-1.62 3.62-3.62 3.62zM732.02 1425.75h-37.14c-2 0-3.62-1.62-3.62-3.62s1.62-3.62 3.62-3.62h37.14c2 0 3.62 1.62 3.62 3.62s-1.62 3.62-3.62 3.62zM880.29 1621.16h-175.71c-2 0-3.62-1.62-3.62-3.62s1.62-3.62 3.62-3.62h175.71c2 0 3.62 1.62 3.62 3.62s-1.62 3.62-3.62 3.62zM795.76 1645.92h-89.5c-2 0-3.62-1.62-3.62-3.62s1.62-3.62 3.62-3.62h89.5c2 0 3.62 1.62 3.62 3.62s-1.62 3.62-3.62 3.62zM909.69 1425.75h-154.13c-2 0-3.62-1.62-3.62-3.62s1.62-3.62 3.62-3.62h154.13c2 0 3.62 1.62 3.62 3.62s-1.62 3.62-3.62 3.62z" class="colorcccccc svgShape"></path><path fill="#cccccc" d="M982.6,1649.72s0-34.03-4.02-178.57c-4.01-144.55-42.16-167.44-42.16-167.44l-336.22-13.93h336.27c13.41,8.42,24.01,18.19,32.37,31.51,22.89,36.53,28.76,99.77,28.76,235.11,0,71.81,6.76,111.9,15.66,132.5h-138.67c72.67,0,108-39.18,108-39.18Z" opacity=".25" class="colorcccccc svgShape"></path></g><g fill="#000000" class="color000000 svgShape"><polygon fill="#76b9fc" points="1431.03 1641.47 1441.14 1633.53 1424.6 1633.53 1431.03 1641.47" class="colorfcc376 svgShape"></polygon><polygon fill="#76b9fc" points="1205.8 1633.53 1211.83 1645.2 1237.21 1645.2 1227.76 1633.53 1205.8 1633.53" class="colorfcc376 svgShape"></polygon><path fill="#76b9fc" d="M1400.85,1618.55c-2.08,1.93-4.24,3.92-6.45,5.94h11.26l-4.81-5.94Z" class="colorfcc376 svgShape"></path><polygon fill="#0575e6" points="1224.55 666.6 1224.55 666.6 1303.29 655.45 1224.55 666.6" class="color29abe2 svgShape"></polygon><path fill="#325cfb" d="M1249.59,743.38l66.01-6.07c3.57-.51,5.78-3.77,4.94-7.29l-10.88-47.04-37.66,11.84-40.88-.75,10.49,43.85c.84,3.52,4.42,5.96,7.98,5.46Z" class="colorfba632 svgShape"></path><path fill="#325cfb" d="M1309.65,682.97l1.94-.61c1.59-.5,2.53-2.15,2.14-3.77l-4.63-19.34c-.59-2.47-3.1-4.18-5.6-3.83l-.21,.03-78.74,11.15-.21,.03c-2.5,.35-4.05,2.64-3.46,5.11l4.68,19.58c.37,1.56,1.75,2.67,3.35,2.69l2.21,.04,40.88,.75,37.66-11.84Z" class="colorfba632 svgShape"></path><polygon fill="#76b9fc" points="1410.71 1645.2 1422.43 1645.2 1412.98 1633.53 1409.73 1633.53 1391.02 1633.53 1397.05 1645.2 1410.71 1645.2" class="colorfcc376 svgShape"></polygon><path fill="#f2f2f2" d="M1504.23,914.83l6.83,20.66h-255.41c-.91,0-1.79-.2-2.58-.57-1.81-.84-3.16-2.54-3.5-4.61l-6.67-41.55c.6,.12,1.22,.19,1.85,.19h118.89c1.05,0,1.86-.9,1.73-1.93-1.93-17.1-16.45-143.63-31.4-218.4-7.83-39.17-14.18-62.87-21.7-80.05-7.91-18.05-17.12-28.9-30.75-42.91-7.48-7.69-11.73-14.02-13.97-19.13-1.86-4.24-2.33-7.65-2.13-10.33l1.44-.32c.16,.59,.38,1.36,.69,2.27,2.59,7.62,11.04,24.75,34.8,24.84,27.85,.11,45.14-17.96,51.19-29.6,1.73-3.35,2.54-6.15,2.4-7.85l6.93,.47c1.04,2.24,1.8,4.84,2.07,7.84,.51,5.58-.65,12.51-4.87,21.03-10.05,20.24-18.73,33.91-20.67,51.85-.97,8.97-.24,19,2.85,31.46,8.88,35.75,63.64,250.71,68.43,269.46,.19,.78,.89,1.31,1.68,1.31h102.25l2.74,19.8-8.95,.18c-3.01,.06-5.11,3.03-4.17,5.9Z" class="colorf2f2f2 svgShape"></path><path fill="#54a7fb" d="M1363.64,888.94c1.04,0,1.85-.9,1.73-1.93-1.93-17.1-16.45-143.63-31.4-218.4-7.83-39.17-14.18-62.87-21.7-80.05-18.76-23.67-46.72-25.85-46.72-25.85,0,0-16.14,7.03-19.91,25.35,0,0,1.62-45.55,11.64-70.03,.98-2.39,2.04-4.57,3.18-6.5-9.51,2.08-71.67,16.48-108.68,45.16-40.15,31.12-139.53,157.59-139.53,157.59l-81.71,62.89,80.99,110.78c22.58-14.41,99.12-63.83,116.66-82.82,15.83-17.15,55.28-65.99,73.96-89.26l-17.25-85.4,17.25,85.4,33.44,165.58c.76,3.74,3.69,6.58,7.32,7.31,.6,.12,1.21,.19,1.85,.19h118.89Zm-122.04-151.03l-10.49-43.85-2.21-.04c-1.6-.03-2.98-1.14-3.35-2.69l-4.68-19.58c-.59-2.47,.96-4.76,3.46-5.11l.21-.03h0l78.74-11.15,.21-.03c2.5-.35,5.01,1.36,5.6,3.83l4.63,19.34c.39,1.62-.55,3.27-2.14,3.77l-1.94,.61,10.88,47.04c.84,3.52-1.37,6.78-4.94,7.29l-66.01,6.07c-3.57,.51-7.14-1.94-7.98-5.46Z" class="colorfbb454 svgShape"></path><path fill="#4b70fb" d="M1363.64 888.95h-118.89c-.64 0-1.25-.07-1.85-.19-3.62-.73-6.56-3.56-7.32-7.31l-20-99.03 36.89 38.06c10.01 10.33 25.01 14.11 38.72 9.77 52.86-16.75 60.19-54.03 60.19-54.03 7.36 52.92 12.85 100.76 13.99 110.81.11 1.04-.7 1.93-1.73 1.93zM1202.16 715.87c-18.67 23.27-58.14 72.11-73.96 89.26-17.54 19-94.08 68.41-116.66 82.82l-80.98-110.78 48.58-37.39c3.31 50.52 56.03 50.51 92.05 44.47 19.94-3.34 38.19-13.28 51.88-28.16l47.76-51.93 14.1-73.69 17.24 85.4z" class="colorfbb04b svgShape"></path><path fill="#f2f2f2" d="M1391.64,1654.23l4.9,9.4,1.81,3.48,3.15,6.05c.24,.39,.59,.65,.99,.78,.56,.19,1.21,.11,1.72-.3l4.19-3.34c.71-.57,.9-1.58,.43-2.37l-3.32-6.42-3.76-7.27h-10.09Z" class="colorf2f2f2 svgShape"></path><polygon fill="#76b9fc" points="1401.73 1654.23 1405.49 1661.51 1411.32 1656.93 1414.76 1654.23 1411.21 1654.23 1401.73 1654.23" class="colorfcc376 svgShape"></polygon><path fill="#f2f2f2" d="M1410.71,1645.2h-44.53c-.57,0-1.13,.19-1.57,.55l-8.5,6.83c-.68,.55-.3,1.65,.58,1.65h69.53c.88,0,1.74-.29,2.43-.83l.25-.2,7.14-5.54,1.26-.98c.62-.48,.28-1.48-.51-1.48h-26.08Z" class="colorf2f2f2 svgShape"></path><polygon fill="#f2f2f2" points="1412.98 1633.53 1422.43 1645.2 1426.27 1645.2 1431.03 1641.47 1424.6 1633.53 1412.98 1633.53" class="colorf2f2f2 svgShape"></polygon><path fill="#76b9fc" d="M1382,1635.72c-3.56,3.17-7.16,6.36-10.76,9.48h15.7l-4.94-9.48Z" class="colorfcc376 svgShape"></path><path fill="#f2f2f2" d="M1389.13 1660.46l-14.53-6.23h-13.97c-.35.29-.69.57-1.03.86l29.92 13.23 4.66 2.06 4.17-3.27-1.81-3.48-7.41-3.18zM1388.36 1645.2h8.69l-6.03-11.67h-6.57c-.81.73-1.63 1.46-2.45 2.19l4.94 9.48h1.43z" class="colorf2f2f2 svgShape"></path><polygon fill="#76b9fc" points="1396.54 1663.64 1391.64 1654.23 1388.82 1654.23 1374.6 1654.23 1389.13 1660.46 1396.54 1663.64" class="colorfcc376 svgShape"></polygon><path fill="#294bcc" d="M1574.67,1601.23c4.85-9.69,.13-13.27-2.69-14.48l1.44,16.47,.02,.26c.21-.35,.41-.71,.61-1.07,.22-.4,.43-.79,.62-1.18Z" class="colorcc8729 svgShape"></path><path fill="#325cfb" d="M1013.62 900.43l-47.31 16.36c-1.83.63-3.84 0-4.98-1.56l-17.01-23.27-44.21-60.47-11.52-15.75-.74-1.02c-.24-.33-.44-.7-.58-1.07-.51-1.37-.3-2.94.6-4.15l29.93-40.13c1.77-2.37 5.32-2.35 7.07.03l5.68 7.76 56.05 76.67.02.02 24.92 34.1 2.93 4 1.26 1.73c1.74 2.39.68 5.78-2.11 6.74zM1245.64 588.06c3.76-18.32 19.91-25.35 19.91-25.35-6.12-23.26-6.06-37.25-4.14-45.62 1.59-6.9 4.44-9.97 6.15-11.24v-.92c-.45-.03-.89-.07-1.33-.1-2.13 1.5-4.04 3.8-5.76 6.69-1.14 1.92-2.2 4.11-3.18 6.5-10.02 24.48-11.64 70.03-11.64 70.03z" class="colorfba632 svgShape"></path><path fill="#294bcc" d="M1267.55,510.04c-.91,1.28-1.9,3.29-2.12,6.14l1.43-.32,.69-.16v-5.66Z" class="colorcc8729 svgShape"></path><path fill="#e6e6e6" d="M1266.87,515.86c.16,.59,.38,1.36,.69,2.26v-2.42l-.69,.16Z" class="colore6e6e6 svgShape"></path><path fill="#cccccc" d="M1038.31 908.65v11.92h-470.77v-11.92c0-9.22 7.47-16.69 16.69-16.69h250.32l-8.49 27.11s31.17 9.45 40.6-27.11h77.66l17.01 23.27c1.14 1.55 3.15 2.19 4.98 1.56l47.31-16.36c2.79-.97 3.85-4.36 2.11-6.74l-1.26-1.73h7.15c9.22 0 16.69 7.48 16.69 16.69zM567.54 1006.39v169.27c0 2.25.44 4.39 1.25 6.35 2.5 6.06 8.47 10.33 15.44 10.33h437.4c9.22 0 16.69-7.47 16.69-16.69v-169.27h-470.77zm100.97 165.15c-3.93 3.93-9.36 6.35-15.34 6.35h-36.83c-11.98 0-21.7-9.71-21.7-21.69s9.72-21.7 21.7-21.7h36.83c11.98 0 21.7 9.72 21.7 21.7 0 5.99-2.43 11.41-6.35 15.34zm64.71 6.35h-43.38v-33.35h43.38v33.35zm57.16 0h-43.38v-33.35h43.38v33.35zm57.17 0h-43.39v-33.35h43.39v33.35zm13.6-105.41h-266.51v-50.04h266.51v50.04z" class="colorcccccc svgShape"></path><rect width="470.77" height="85.82" x="567.54" y="920.57" fill="#333333" class="color333333 svgShape"></rect><path fill="#99ccff" d="M826.06,919.06s31.17,9.44,40.6-27.1c.29-1.13,.56-2.3,.81-3.51l20.08-19.07-20.08,19.07c-.25,1.22-.52,2.39-.81,3.51h77.66l-55.73-76.22-31.7,20.21c-3.87,2.47-6.74,6.22-8.12,10.6l-2.21,7.04-12.02,38.38-8.49,27.1Z" class="colorffc599 svgShape"></path><path fill="#99ccff" d="M846.57,853.58c-7.09,5.05-26.96,20.35-34.78,38.38h22.76l12.02-38.38Z" class="colorffc599 svgShape"></path><path fill="#294bcc" d="M1267.55,505.86c-1.71,1.27-4.56,4.34-6.15,11.24-1.92,8.36-1.98,22.36,4.14,45.62,0,0,27.97,2.18,46.72,25.85-7.91-18.04-17.12-28.9-30.74-42.91-7.49-7.7-11.73-14.02-13.97-19.14-1.85-4.24-2.33-7.65-2.12-10.32,.22-2.85,1.21-4.86,2.12-6.14v-4.19Z" class="colorcc8729 svgShape"></path><path fill="#e6e6e6" d="M1353.55,513.37c1.74-3.35,2.54-6.15,2.4-7.85l-2.4-.16v8.01Z" class="colore6e6e6 svgShape"></path><path fill="#325cfb" d="M1362.88,505.99c1.03,2.24,1.79,4.85,2.07,7.85,1.61,12.1-2.87,37.27-2.87,37.27,21.48,1.59,34.65,22.65,34.65,22.65,0,0,6.14-24.43-11.31-54.2-2.91-4.96-5.75-9.12-8.48-12.62-2.25-2.88-4.41-5.3-6.47-7.36-7.63-7.6-13.79-10.02-16.92-10.78v6.67c2.58,1.64,6.78,4.98,9.33,10.53Z" class="colorfba632 svgShape"></path><path fill="#99ccff" d="M1289.07,504.88c-7.86,.54-15.01,.54-21.52,.06v13.18c2.59,7.62,11.04,24.75,34.8,24.85,27.86,.11,45.15-17.96,51.19-29.6v-38.95c-15.7,17.49-38.79,28.7-64.48,30.46Z" class="colorffc599 svgShape"></path><path fill="#99ccff" d="M1289.07,504.88c25.68-1.76,48.78-12.97,64.48-30.46,4.2-4.68,7.87-9.8,10.92-15.32-1,.14-2.01,.21-3.05,.21-2.77,0-5.42-.5-7.87-1.42,2.45,.92,5.1,1.42,7.87,1.42,1.03,0,2.05-.08,3.05-.21,10.94-1.49,19.37-10.86,19.37-22.21,0-5.13-1.72-9.85-4.62-13.62-1.31-1.71-2.86-3.23-4.61-4.5-3.7-2.7-8.26-4.3-13.19-4.3-2.77,0-5.42,.51-7.87,1.42v20.08c0,4.43-3.6,8.03-8.03,8.03-2.44,0-4.63-1.1-6.1-2.82-1.2-1.4-1.93-3.22-1.93-5.21v-32.12s-9.79,8.28-18.32,8.28-17.57-12.3-17.57-12.3c0,0,4.77,19.7-8.78,19.7s-31.87-5.39-40.65-17.69c0,0,7.28,17.69-11.04,17.69-14.68,0-29.97-13.77-35.46-19.25-1.19,5.23-1.9,10.64-2.08,16.18-.03,.95-.05,1.9-.05,2.86,0,41.96,8.28,80.9,62.7,85.5,.44,.04,.89,.07,1.33,.1,6.51,.48,13.65,.48,21.52-.06Z" class="colorffc599 svgShape"></path><path fill="#325cfb" d="M1317.02,411.9c7.41-1.76,14.56-7.82,14.56-7.82v3.89c-3.52,2.07-8.13,4.17-12.42,4.17-.71,0-1.43-.09-2.14-.24Z" class="colorfba632 svgShape"></path><path fill="#b3d9ff" d="M1274.42,504.95c2.18,.16,4.43,.26,6.74,.3-4.83,.11-9.35,0-13.6-.3-.45-.03-.9-.07-1.33-.1-54.42-4.6-62.7-43.55-62.7-85.5,0-.95,.03-1.9,.05-2.85,.18-5.55,.89-10.96,2.08-16.19,1.38,1.38,3.37,3.28,5.83,5.34-.58,3.55-.92,7.16-1.05,10.85-.03,.95-.05,1.9-.05,2.85,0,41.96,8.28,80.9,62.69,85.5,.44,.03,.89,.07,1.33,.1Z" class="colorffd3b3 svgShape"></path><path fill="#132360" d="M1203.53,398.09s.77,.85,2.13,2.21c5.49,5.47,20.78,19.25,35.46,19.25,18.32,0,11.04-17.69,11.04-17.69,8.78,12.3,27.1,17.69,40.65,17.69s8.78-19.7,8.78-19.7c0,0,9.03,12.3,17.57,12.3s18.32-8.28,18.32-8.28v32.12c0,1.99,.73,3.81,1.93,5.21,1.47,1.72,3.66,2.82,6.1,2.82,4.43,0,8.03-3.6,8.03-8.03v-20.08c2.45-.92,5.1-1.42,7.87-1.42,4.93,0,9.49,1.6,13.19,4.3,1.74,1.27,3.29,2.79,4.61,4.5,19.65-48.96-11.11-62.45-11.11-62.45,0,0,14.3,.5,12.67-6.9-1.63-7.4-18.32-3.64-18.32-3.64,0,0,5.52-14.93-1.13-16.49-6.65-1.56-10.04,8.34-10.04,8.34-39.65-57.97-90.34-47.18-96.87-40.15-6.52,7.03-1.76,14.81-1.76,14.81,0,0-40.65,0-43.92,13.3-3.26,13.3,9.03,17.82,9.03,17.82,0,0-28.11,5.27-29.36,18.57-1.25,13.3,11.04,20.08,11.04,20.08-10.3,16.48-1.18,26.11,4.12,29.93,.18-5.54,.89-10.95,2.08-16.18-1.36-1.35-2.13-2.21-2.13-2.21Z" class="color603813 svgShape"></path><path fill="#132360" d="M1379.21,423.27c-1.31-1.71-2.87-3.22-4.61-4.5-3.69-2.7-8.25-4.3-13.19-4.3-2.76,0-5.42,.51-7.87,1.42v20.08c0,4.44-3.59,8.03-8.03,8.03-2.45,0-4.64-1.09-6.11-2.81-1.19-1.4-1.93-3.22-1.93-5.21v-32.13s-9.79,8.29-18.32,8.29-17.57-12.29-17.57-12.29c0,0,4.77,19.69-8.78,19.69s-31.87-5.39-40.65-17.68c.19,.48,7.01,17.68-11.05,17.68-14.68,0-29.97-13.78-35.46-19.25-1.19,5.23-1.9,10.64-2.08,16.19-5.29-3.83-14.41-13.46-4.11-29.94,0,0-12.29-6.77-11.04-20.08,1.25-13.3,29.36-18.57,29.36-18.57,0,0-12.3-4.51-9.04-17.82,3.26-13.3,43.92-13.3,43.92-13.3,0,0-4.77-7.78,1.75-14.8,2.51-2.7,11.55-5.97,24-5.66,19.89,.5,48.47,10.13,72.87,45.81,0,0,3.39-9.9,10.04-8.34,6.65,1.56,1.13,16.49,1.13,16.49,0,0,16.69-3.76,18.32,3.63,1.63,7.41-12.67,6.9-12.67,6.9,0,0,30.76,13.49,11.11,62.45Z" class="color603813 svgShape"></path><path fill="#132360" d="M1379.21,423.27c-1.31-1.71-2.87-3.22-4.61-4.5-3.69-2.7-8.25-4.3-13.19-4.3-2.76,0-5.42,.51-7.87,1.42v20.08c0,4.44-3.59,8.03-8.03,8.03-2.45,0-4.64-1.09-6.11-2.81-1.19-1.4-1.93-3.22-1.93-5.21v-32.13s-9.79,8.29-18.32,8.29-17-11.54-17.54-12.26l-.02-.03h0s4.77,19.68-8.78,19.68-31.87-5.39-40.65-17.68c.19,.48,7.01,17.68-11.05,17.68-14.68,0-29.97-13.78-35.46-19.25-1.19,5.23-1.9,10.64-2.08,16.19-5.29-3.83-14.41-13.46-4.11-29.94,0,0-12.29-6.77-11.04-20.08,1.25-13.3,29.36-18.57,29.36-18.57,0,0-12.3-4.51-9.04-17.82,3.26-13.3,43.92-13.3,43.92-13.3,0,0-4.77-7.78,1.75-14.8,2.51-2.7,11.55-5.97,24-5.66,19.89,.5,48.47,10.13,72.87,45.81,0,0,3.39-9.9,10.04-8.34,6.65,1.56,1.13,16.49,1.13,16.49,0,0,4.5-1.02,9.05-.96,4.22,.06,8.48,1.04,9.26,4.59,1.63,7.41-12.67,6.9-12.67,6.9,0,0,30.76,13.49,11.11,62.45Z" class="color603813 svgShape"></path><path fill="#294bcc" d="M1353.55 495.46v9.91l2.4.16 6.93.46c-2.55-5.55-6.75-8.89-9.33-10.53zM1362.08 551.11s4.48-25.17 2.87-37.27c.51 5.57-.65 12.51-4.87 21.02-10.04 20.24-18.73 33.91-20.66 51.86 6.56-21.61 22.67-35.6 22.67-35.6z" class="colorcc8729 svgShape"></path><path fill="#54a7fb" d="M1651.17,803.49v102.52l-133.81,2.74-2.74-19.8h-102.24c-.8,0-1.49-.53-1.69-1.31-4.77-18.75-59.55-233.71-68.43-269.46-2.27-9.13-3.26-16.97-3.24-24.01v-.04c0-2.57,.15-5.03,.4-7.41,5.74-18.91,18.79-31.99,21.96-34.96,.24-.22,.47-.44,.71-.64,8.03,.59,14.88,3.9,20.34,7.82,.02,.02,.04,.03,.07,.05,8.87,6.39,13.98,14.37,14.24,14.76t0,.02s6.14-24.43-11.31-54.21c-2.91-4.96-5.75-9.11-8.48-12.62-2.25-2.88-4.42-5.31-6.47-7.36,19.27,1.73,123.73,12.01,156.48,34.41,32.94,22.52,97.76,159.79,119.24,234.29,3.3,11.45,4.98,23.3,4.98,35.22Z" class="colorfbb454 svgShape"></path><path fill="#4b70fb" d="M1495.08 869.87l-30.65 19.07h-52.06c-.8 0-1.49-.53-1.69-1.31-2.27-8.9-15.79-61.98-30.32-119.12l-.23-1.63 38.53 47.49c3.52 4.34 9.51 5.72 14.61 3.44 33.73-15.11 33.59-74.83 21.94-113.66l34.82 85.42 5.06 80.3zM1651.17 803.49v102.52l-133.81 2.74-2.74-19.8-6.3-45.56c109.63 15.16 100.15-82.04 100.15-82.04-2.65-51.79-46.34-140.24-72.03-188.16-11.38-21.22-30.08-37.56-52.63-46l-54.96-20.55c36.49 5.54 79.21 14.43 98.1 27.34 32.94 22.52 97.76 159.79 119.24 234.29 3.3 11.45 4.98 23.3 4.98 35.22z" class="colorfbb04b svgShape"></path><polygon fill="#76b9fc" points="1189.38 1654.23 1211.31 1663.64 1206.42 1654.23 1189.38 1654.23" class="colorfcc376 svgShape"></polygon><path fill="#f2f2f2" d="M1353.53 1733.08c-69.72 9.51-123.13 4.72-176.84.83-13.19-.96-23.6-3.22-31.65-6.33-13.11-5.05-19.95-12.29-22.32-19.67 24.49 2.62 46.98 4.44 67.61 5.59 6.26.36 12.36.64 18.29.87 26.14 1.02 49.01.91 69.04 0 11.65-.53 22.33-1.33 32.12-2.34 5.31 9.35 18.59 17.85 43.76 21.04zM1405.66 1624.5h-15.12c-.87 0-1.72.33-2.36.92l-.78.71-2.36 2.16-3.93 3.6c-.64.59-.23 1.65.64 1.65h68.98c.99 0 1.95-.31 2.76-.88l9.31-6.57c.7-.49.35-1.59-.5-1.59h-56.65z" class="colorf2f2f2 svgShape"></path><path fill="#f2f2f2" d="M1606.16 1710.3c-.58 6.14-5.05 11.22-11.07 12.57-99.05 22.21-165.88 15.91-233.17 11.03-2.95-.21-5.72-.49-8.39-.83-4.52-.58-8.66-1.32-12.43-2.21h-.02c-17.24-4.06-26.96-11.16-31.31-18.83-.78-1.36-1.39-2.74-1.83-4.12 6.63.71 13.1 1.36 19.45 1.95 17.08 1.6 33.12 2.81 48.16 3.64 6.27.36 12.36.64 18.3.87 8.97.35 17.56.57 25.77.66 15.73.18 30.11-.07 43.26-.66 26.82-1.22 48.52-3.88 65.99-7.21.03 0 .05-.02.05-.02 6.73-1.28 12.83-2.67 18.34-4.1 39.32-10.26 49.54-23.33 49.54-23.33 9.04 10.74 10.13 22.42 9.36 30.59zM1213.12 1667.11l-1.81-3.48-21.94-9.4h-13.97c-.35.29-.69.57-1.03.86l34.58 15.29 4.17-3.27zM1227.76 1633.53h37.76c.99 0 1.95-.31 2.76-.88l9.31-6.57c.7-.49.35-1.59-.5-1.59h-71.76c-.87 0-1.72.33-2.36.92l-3.13 2.87-3.93 3.6c-.64.59-.23 1.65.64 1.65h31.22z" class="colorf2f2f2 svgShape"></path><path fill="#f2f2f2" d="M1206.42,1654.23h34.58c.88,0,1.74-.29,2.43-.83l.25-.2,7.14-5.54,1.26-.98c.62-.48,.28-1.48-.51-1.48h-70.6c-.57,0-1.13,.19-1.57,.55l-8.5,6.83c-.68,.55-.3,1.65,.58,1.65h34.94Z" class="colorf2f2f2 svgShape"></path><path fill="#54a7fb" d="M1596.8,1679.71s-10.21,13.08-49.54,23.33c-5.52,1.44-11.62,2.82-18.34,4.1-9.9,1.9-21.16,3.57-33.93,4.89-3.87,.4-7.88,.77-12.03,1.1-6.35,.51-13.04,.92-20.08,1.25,1.4-28.28,61.83-67.91,90.6-79.26,9.5-3.74,16.54-9.28,21.38-15.35,9.83-12.32,10.58-26.82,4.14-32.95,4.95,2.77,8.53,9.97,11.13,19.2,7.79,27.69,6.67,73.69,6.67,73.69Z" class="colorfbb454 svgShape"></path><path fill="#f2f2f2" d="M1211.83,1645.2l-6.03-11.67h-6.57c-.81,.73-1.63,1.46-2.45,2.19l4.94,9.48h10.12Z" class="colorf2f2f2 svgShape"></path><path fill="#76b9fc" d="M1196.78,1635.72c-3.56,3.17-7.16,6.36-10.76,9.48h15.7l-4.94-9.48Z" class="colorfcc376 svgShape"></path><path fill="#99ccff" d="M1522.52,1049.55c7.98,16.24,22.74,13.07,31.29,7.85-3.56-9.89,.16-22.9,.16-22.9,0,0-3.72,13.01-.16,22.9,2.02,5.61,6.38,10.23,15.11,10.89,14.07,1.06,21.93-2.38,26.26-7.11-6.45-9.97-1.82-26.68-1.82-26.68,0,0-4.64,16.71,1.82,26.68,3.08,4.75,8.68,7.98,18.51,7.11,30.45-2.67,41.49-29.77,41.66-48.51,.12-13.38-13.67-13.96-22.29-9.79-1.01,11.98-3.21,23.56-7.49,31.49,4.28-7.92,6.47-19.5,7.49-31.49,1.6-18.9,.26-38.8-.44-46.95l-99.08,2.03c-4,13.55-19.21,67.85-11.03,84.49Z" class="colorffc599 svgShape"></path><path fill="#76b9fc" d="M1574.67,1601.23h0c-.19,.38-.4,.77-.62,1.18-.2,.36-.4,.71-.61,1.07-.84,1.45-1.75,2.87-2.75,4.25-8.48,11.69-23.4,20.62-57.54,21.79-18.54,.63-27.32-4.36-31.22-10.26l-35.68,28.39-34.62,27.54-8.21,6.53c-2.37,1.89-4.02,4.52-4.71,7.46-.04,.17-.09,.34-.12,.51l-4.75,24.68c8.98,.35,17.56,.56,25.78,.66,15.72,.18,30.11-.06,43.25-.66,1.41-28.29,61.84-67.91,90.61-79.25,9.49-3.74,16.53-9.28,21.38-15.35,9.83-12.32,10.58-26.83,4.14-32.96-2.11-1.18-4.47-1.56-7.11-.95l.08,.89c2.82,1.21,7.54,4.79,2.69,14.48Z" class="colorfcc376 svgShape"></path><path fill="#325cfb" d="M1666.48,911.51l-13.69,47.94c-.54,1.9-2.26,3.22-4.23,3.26l-15.94,.32-89.39,1.83s-.1,0-.14,0l-9.54,.19-9.33,.19h-.08c-1.93,0-3.66-1.24-4.27-3.08l-8.82-26.68-6.82-20.66c-.95-2.87,1.15-5.84,4.17-5.9l8.95-.18,77.47-1.59,56.34-1.15,10.9-.22c3.01-.06,5.24,2.81,4.41,5.72Z" class="colorfba632 svgShape"></path><path fill="#76b9fc" d="M1215.63,1618.55c-2.08,1.93-4.24,3.92-6.45,5.94h11.26l-4.81-5.94Z" class="colorfcc376 svgShape"></path><path fill="#acd5ff" d="M1553.81,1057.4c-8.55,5.22-23.31,8.39-31.29-7.85-8.18-16.65,7.03-70.95,11.03-84.49l-9.33,.19c-1.97,.04-3.74-1.21-4.35-3.08l-8.81-26.68h-255.4c-.92,0-1.8-.21-2.58-.57-6.55,23.31-53.01,191.03-55.11,265.2-1.86,65.76,6.5,254.27,9.5,318.58,.57,12.21,10.63,21.8,22.85,21.8h154.23c7.41,0,13.85-3.82,17.58-9.53-3.53-4.1-5.88-9.27-6.48-15-7.58-72.3-29.3-281.57-30.55-315.1-1.51-40.65,25.6-215.31,25.6-215.31,0,0-27.1,174.66-25.6,215.31,1.24,33.53,22.97,242.8,30.55,315.1,.6,5.74,2.95,10.91,6.48,15,5.05,5.86,12.51,9.53,20.77,9.53h157.63c12.74,0,22.6-11.16,21.05-23.8l-39.22-318.09,6.59-130.33c-8.73-.66-13.09-5.27-15.11-10.89Z" class="colorffe0ac svgShape"></path><path fill="#9eceff" d="M1402.11,1530.97c-3.73,5.72-10.17,9.53-17.58,9.53h-154.23c-12.22,0-22.28-9.59-22.85-21.8-1.22-26.15-3.33-72.82-5.27-123.42,12.73,6.53,29.02,10.95,49.89,11.62,95.81,3.01,92.85-161.68,91.86-199.76-.98-38.07,36.04-165.68,36.04-165.68l1.59,5.89c-.58,4.06-1.16,8.23-1.76,12.5-.11,.85-.24,1.71-.36,2.56-.47,3.43-.95,6.91-1.43,10.43-.12,.87-.24,1.76-.36,2.64-1.44,10.59-2.88,21.45-4.23,32.18h0c-.02,.13-.03,.25-.04,.37-.15,1.13-.29,2.27-.44,3.41-.06,.53-.12,1.05-.19,1.59-.11,.89-.23,1.78-.33,2.67-.15,1.22-.3,2.44-.45,3.66-.13,1.09-.26,2.17-.39,3.25-1.8,14.9-3.38,29.16-4.54,41.67-.06,.62-.11,1.23-.17,1.84-.11,1.21-.22,2.4-.32,3.57v.02c-.11,1.34-.22,2.66-.32,3.95-.06,.67-.11,1.34-.16,2-.17,2.19-.32,4.3-.45,6.31-.03,.44-.05,.86-.08,1.29-.03,.6-.07,1.19-.1,1.78,0,.03,0,.05,0,.08-.04,.73-.09,1.46-.12,2.16-.04,.94-.09,1.86-.12,2.74v.04c-.03,.53-.04,1.05-.06,1.56-.02,.51-.03,1.02-.04,1.51,0,.24-.02,.48-.02,.71v.15c0,.2-.02,.4-.02,.59v.13c0,.31,0,.63-.02,.92v.55c0,.36,0,.71,0,1.06,0,1.31,.02,2.52,.06,3.63,1.25,33.53,22.97,242.8,30.55,315.09,.6,5.74,2.95,10.91,6.47,15Z" class="colorffdb9e svgShape"></path><path fill="#9eceff" d="M1580.51,1540.5h-157.63c-8.25,0-15.72-3.67-20.76-9.53-3.53-4.1-5.87-9.26-6.47-15-2.7-25.75-7.2-68.86-11.92-115.23,17.4-3.27,37.08,6.96,55.83,8.83,22.82,2.27,46.45-9.58,58.29-29.22,11.04-18.3,11.72-40.79,12.09-62.15,.69-39.53-4.34-79.81-3.66-119.34,.83-47.7,7.37-94.65,8.2-142.35,.38-21.91,2.85-45.66-7.85-64.79-18.95-33.89-97.51-34.23-101.35-56.23h105.77l8.82,26.68c.61,1.87,2.38,3.12,4.35,3.08l9.32-.19c-4,13.54-19.2,67.84-11.03,84.49,7.98,16.24,22.74,13.07,31.3,7.84,2.01,5.61,6.38,10.23,15.11,10.89l-6.59,130.33,39.22,318.09c1.56,12.64-8.3,23.8-21.04,23.8Z" opacity=".8" class="colorffdb9e svgShape"></path><path fill="#f2f2f2" d="M1440.2,1571.13c-.22,0-.43-.02-.64-.04l2.11,24.16,35.05,6.8c1.04,.2,1.87,.86,2.35,1.73,.36,.65,.51,1.4,.38,2.18-.62,3.45-.58,8.66,2.5,13.31,3.9,5.9,12.68,10.89,31.22,10.26,34.13-1.17,49.06-10.09,57.54-21.79,1-1.38,1.91-2.8,2.75-4.25l-.02-.26-1.44-16.47-.08-.89-1.3-14.85c-.35,.07-.71,.11-1.08,.11h-129.32Z" class="colorf2f2f2 svgShape"></path><path fill="#cccccc" d="M1439.8,1560.41c-.4,0-.79,.05-1.16,.13-2.37,.53-4.08,2.67-3.99,5.22,.1,2.74,2.25,5,4.91,5.31,.21,.03,.43,.04,.64,.04h129.32c.37,0,.73-.04,1.08-.11,2.42-.5,4.17-2.66,4.07-5.25-.1-2.77-2.29-5.05-5-5.33-.18-.02-.37-.03-.55-.03h-129.32Z" class="colorcccccc svgShape"></path><path fill="#99ccff" d="M1438.64,1560.54c.37-.08,.76-.13,1.16-.13h129.32c.19,0,.37,0,.55,.03l-1.74-19.94h-131.05l1.75,20.04Z" class="colorffc599 svgShape"></path><path fill="#76b9fc" d="M1197.62,1681.13c.33-1.45,1.15-2.75,2.32-3.67l9.02-7.08-34.58-15.29c-15.1,12.54-28.82,22.66-36.33,25.11-11.52,3.76-19.16,15.88-15.33,27.71,24.5,2.62,46.98,4.44,67.61,5.59l7.29-32.38Z" class="colorfcc376 svgShape"></path><path fill="#54a7fb" d="M1218.2,1681.72l39.38-31.32,39.14-31.14c-3.07-4.65-3.11-9.86-2.5-13.31,.14-.78-.02-1.54-.38-2.18l-26.42,20.73h9.66c.85,0,1.2,1.09,.5,1.59l-9.31,6.57c-.81,.57-1.77,.88-2.76,.88h-9.6l-10.11,7.93-4.76,3.73h10.52c.79,0,1.13,1,.51,1.48l-1.26,.98-7.14,5.54-.25,.2c-.7,.54-1.55,.83-2.43,.83h-11.46l-9.27,7.27,3.32,6.42c.47,.78,.29,1.8-.43,2.37l-4.19,3.34c-.51,.4-1.15,.49-1.72,.3-.4-.13-.75-.39-.99-.78l-3.15-6.05-4.17,3.27-9.02,7.08c-1.17,.92-1.99,2.22-2.32,3.67l-7.29,32.38c6.27,.35,12.36,.64,18.29,.87l4.75-24.68c.61-3.15,2.32-5.98,4.83-7.98Z" class="colorfbb454 svgShape"></path><path fill="#f2f2f2" d="M1217.26,1673.94c.56,.19,1.21,.11,1.72-.3l4.19-3.34c.71-.57,.9-1.58,.43-2.37l-3.32-6.42-3.76-7.27h-10.09l4.9,9.4,1.81,3.48,3.15,6.05c.24,.39,.59,.65,.99,.78Z" class="colorf2f2f2 svgShape"></path><polygon fill="#76b9fc" points="1229.54 1654.23 1216.5 1654.23 1220.27 1661.51 1229.54 1654.23" class="colorfcc376 svgShape"></polygon><path fill="#54a7fb" d="M1323.27,1680.21c7.51-2.45,21.23-12.57,36.33-25.11,.34-.29,.69-.57,1.03-.86h-3.94c-.88,0-1.27-1.1-.58-1.65l8.5-6.83c.45-.36,1-.55,1.57-.55h5.05c3.6-3.12,7.21-6.3,10.76-9.48,.82-.73,1.63-1.46,2.45-2.19h-2.68c-.87,0-1.28-1.07-.64-1.65l3.93-3.6,2.36-2.16,.78-.71c.64-.59,1.49-.92,2.36-.92h3.86c2.21-2.03,4.36-4.01,6.45-5.94l-1.04-1.29c-.42-.52-.38-1.28,.11-1.75l4.64-4.5c.44-.43,1.1-.47,1.59-.16-2.66-11.51-6.58-20.79-12.36-24.04,6.93,6.6,5.55,22.91-6.55,35.75-4.68,4.96-10.95,9.4-18.96,12.56-28.77,11.34-89.2,50.97-90.61,79.25,11.65-.53,22.33-1.33,32.11-2.34-.77-1.36-1.38-2.74-1.83-4.12-3.83-11.83,3.82-23.95,15.33-27.71Z" class="colorfbb454 svgShape"></path><path fill="#76b9fc" d="M1368.27,1635.12c8.02-3.16,14.29-7.6,18.96-12.56,12.1-12.84,13.49-29.15,6.55-35.75-2.44-1.37-5.22-1.66-8.37-.59v.07c1.98,.52,9.83,3.38,4.03,14.95h0c-.19,.38-.4,.77-.62,1.18-.74,1.34-1.54,2.66-2.41,3.95-.31,.46-.63,.92-.95,1.37-8.48,11.69-23.4,20.62-57.54,21.79-18.54,.63-27.32-4.36-31.22-10.26l-39.14,31.14-39.38,31.32c-2.51,2-4.22,4.83-4.83,7.98l-4.75,24.68c26.13,1.02,49.01,.91,69.04,0,1.41-28.29,61.84-67.91,90.61-79.25Z" class="colorfcc376 svgShape"></path><path fill="#f2f2f2" d="M1404.55,1611.01l-4.64,4.5c-.48,.47-.53,1.23-.11,1.75l1.04,1.29,4.81,5.94h11.63l-9.82-12.12-1.01-1.25c-.09-.11-.2-.2-.32-.28-.49-.31-1.15-.27-1.59,.16Z" class="colorf2f2f2 svgShape"></path><path fill="#294bcc" d="M1389.45,1601.23c5.79-11.57-2.06-14.43-4.03-14.95l.99,19.86v.21c.88-1.29,1.68-2.61,2.42-3.95,.22-.4,.43-.79,.62-1.18Z" class="colorcc8729 svgShape"></path><polygon fill="#76b9fc" points="1255.92 1633.53 1239.38 1633.53 1245.81 1641.47 1255.92 1633.53" class="colorfcc376 svgShape"></polygon><polygon fill="#f2f2f2" points="1239.38 1633.53 1227.76 1633.53 1237.21 1645.2 1241.05 1645.2 1245.81 1641.47 1239.38 1633.53" class="colorf2f2f2 svgShape"></polygon><path fill="#76b9fc" d="M1256.28,1624.5h11.15l26.42-20.73c-.47-.86-1.31-1.52-2.35-1.73l-36.7-7.12-8.34-1.62c-2.19-.43-4.46,.24-6.06,1.8-3.39,3.28-9.91,9.55-18.14,17.27l9.82,12.12h24.21Z" class="colorfcc376 svgShape"></path><path fill="#99ccff" d="M1383.58,1560.48c.19,0,.37,0,.55,.03l-1-20.01h-131.05l1.01,20.11c.38-.08,.77-.13,1.17-.13h129.32Z" class="colorffc599 svgShape"></path><path fill="#f2f2f2" d="M1293.84,1603.77c.36,.65,.51,1.4,.38,2.18-.62,3.45-.58,8.66,2.5,13.31,3.9,5.9,12.68,10.89,31.22,10.26,34.13-1.17,49.06-10.09,57.54-21.79,.33-.45,.64-.91,.95-1.37v-.21l-1-19.86v-.07l-.76-15.14c-.35,.07-.71,.11-1.08,.11h-129.32c-.22,0-.43-.02-.64-.04l1.19,23.78,36.7,7.12c1.04,.2,1.87,.86,2.35,1.73Z" class="colorf2f2f2 svgShape"></path><path fill="#cccccc" d="M1383.58,1571.19c.37,0,.73-.04,1.08-.11,2.44-.5,4.27-2.66,4.27-5.24,0-2.77-2.1-5.05-4.8-5.32-.18-.02-.37-.03-.55-.03h-129.32c-.4,0-.79,.05-1.17,.13-2.39,.53-4.18,2.67-4.18,5.22,0,2.74,2.06,4.99,4.71,5.31,.21,.03,.42,.04,.64,.04h129.32Z" class="colorcccccc svgShape"></path><path fill="#f2f2f2" d="M1232.07,1624.5l-9.82-12.12-1.01-1.25c-.48-.59-1.37-.65-1.91-.12l-4.64,4.5c-.48,.47-.53,1.23-.11,1.75l1.04,1.29,4.81,5.94h11.63Z" class="colorf2f2f2 svgShape"></path><path fill="#76b9fc" d="M1425.62,1595.11c-3.39,3.28-9.91,9.55-18.14,17.27l9.82,12.12h35.36l26.42-20.73c-.47-.86-1.31-1.52-2.35-1.73l-35.05-6.8-9.99-1.94c-2.19-.43-4.46,.24-6.06,1.8Z" class="colorfcc376 svgShape"></path><path fill="#54a7fb" d="M1462.31,1624.5c.85,0,1.2,1.09,.5,1.59l-9.31,6.57c-.81,.57-1.77,.88-2.76,.88h-9.6l-10.11,7.93-4.76,3.73h10.52c.79,0,1.13,1,.51,1.48l-1.26,.98-7.14,5.54-.25,.2c-.7,.54-1.55,.83-2.43,.83h-11.46l-3.43,2.7-5.84,4.58,3.32,6.42c.47,.78,.29,1.8-.43,2.37l-4.19,3.34c-.51,.4-1.15,.49-1.72,.3-.4-.13-.75-.39-.99-.78l-3.15-6.05-4.17,3.27-9.02,7.08c-1.17,.92-1.99,2.22-2.32,3.67l-3.76,16.72-3.53,15.66c6.27,.35,12.36,.64,18.29,.87l4.75-24.68c.03-.17,.08-.34,.12-.51,.69-2.94,2.33-5.57,4.71-7.46l8.21-6.53,34.62-27.54,35.68-28.39c-3.07-4.65-3.11-9.86-2.5-13.31,.14-.78-.02-1.54-.38-2.18l-26.42,20.73h9.66Z" class="colorfbb454 svgShape"></path><path fill="#76b9fc" d="M1382.84,1681.13c.33-1.45,1.15-2.75,2.32-3.67l9.02-7.08-4.66-2.06-29.92-13.23c-15.1,12.54-28.82,22.66-36.33,25.11-11.52,3.76-19.16,15.88-15.33,27.71,6.63,.71,13.11,1.36,19.45,1.95,17.08,1.6,33.12,2.8,48.16,3.64l3.53-15.66,3.76-16.72Z" class="colorfcc376 svgShape"></path><rect width="266.5" height="50.04" x="594.64" y="1022.45" fill="#f2f2f2" class="colorf2f2f2 svgShape"></rect><rect width="80.22" height="43.39" x="594.64" y="1134.51" fill="#0575e6" rx="21.69" ry="21.69" class="color29abe2 svgShape"></rect><rect width="43.39" height="33.35" x="689.83" y="1144.55" fill="#0036ff" class="colorff0000 svgShape"></rect><rect width="43.39" height="33.35" x="746.99" y="1144.55" fill="#0036ff" class="colorff0000 svgShape"></rect><rect width="43.39" height="33.35" x="804.15" y="1144.55" fill="#0575e6" class="color29abe2 svgShape"></rect><path fill="#80bfff" d="M1372.37,442.79s-1.51-2.86-3.45-3.97c.33-6.43-2.1-11.28-2.1-11.28-9.37,10.66,0,19.67,0,19.67,.86-1.8,1.41-3.59,1.73-5.31,.87-.33,2.79-.11,3.81,.89Z" class="colorffb680 svgShape"></path><path fill="#80bfff" d="M1379.21,423.27c-1.31-1.71-2.87-3.22-4.61-4.5-3.69-2.7-8.25-4.3-13.19-4.3-1.3,0-2.58,.11-3.82,.33,4.14,.37,7.94,1.87,11.12,4.19,1.74,1.27,3.29,2.79,4.6,4.5,2.9,3.77,4.62,8.5,4.62,13.63,0,11.1-8.07,20.3-18.66,22.09l-6.16-.11,2.43,5.25c-2.36,3.63-4.99,7.07-7.88,10.29-15.7,17.49-38.79,28.7-64.48,30.46-.86,.06-1.71,.11-2.55,.15,2.72-.05,5.53-.17,8.45-.37,25.69-1.76,48.78-12.97,64.47-30.46,4.2-4.68,7.87-9.8,10.92-15.32,10.94-1.48,19.37-10.86,19.37-22.2,0-5.13-1.73-9.85-4.62-13.63Z" class="colorffb680 svgShape"></path><path fill="#1f3999" d="M1216.53,330.5c-7.11,7.53,18.34,19.4,18.34,19.4,0,0-29.03,6.32-36.92,13.22-8.03,7.04,1.51,23.42,1.51,23.42,0,0-12.29-6.77-11.04-20.08,1.25-13.3,29.36-18.57,29.36-18.57,0,0-12.3-4.51-9.04-17.82,3.26-13.3,43.92-13.3,43.92-13.3,0,0-4.77-7.78,1.75-14.8,2.51-2.7,11.55-5.97,24-5.66-33.37,.8-12.2,26.81-12.2,26.81,0,0-43.44,.74-49.68,7.36Z" class="color99581f svgShape"></path><path fill="#091a59" d="M1379.21,423.27c-1.31-1.71-2.87-3.22-4.61-4.5-3.69-2.7-8.25-4.3-13.19-4.3-2.76,0-5.42,.51-7.87,1.42v20.08c0,4.44-3.59,8.03-8.03,8.03-2.45,0-4.64-1.09-6.11-2.81-1.19-1.4-1.93-3.22-1.93-5.21v-32.13s-9.79,8.29-18.32,8.29-17-11.54-17.54-12.26l-.02-.03c11.63,8.94,21.99-2.1,21.99-2.1l-21.42-12.22c37.97,11.04,54.37-28.48,54.37-28.48,0,0,5.52-.25,14.43-.63,8.91-.37,.51-7.09,.51-7.09h.02c4.22,.05,8.48,1.03,9.26,4.58,1.63,7.41-12.67,6.9-12.67,6.9,0,0,30.76,13.49,11.11,62.45Z" class="color592f09 svgShape"></path><path fill="#80bfff" d="M1353.54,474.42c-15.69,17.49-38.78,28.7-64.47,30.46-7.86,.54-15.01,.53-21.51,.06v13.18c.38,1.12,.9,2.47,1.57,3.92,.09,.2,.19,.4,.28,.6,.06,.12,.11,.24,.17,.36h0c4.1,8.35,13.28,19.89,32.77,19.96,2.84,0,5.58-.17,8.19-.51-32.54-4.66-33.08-17.94-32.84-20.64,68.37-11.22,75.85-47.41,75.85-47.41Z" class="colorffb680 svgShape"></path><path fill="#3f66fb" d="M1430.84 622.94l44.77 149.24c6.78 22.59 6.59 46.82-1.21 69.08-8.35 23.84-25.76 47.68-62.03 47.68h102.25l-12.64-91.34-71.14-174.66zM1202.16 715.87c-18.67 23.27-58.13 72.11-73.96 89.26-17.53 19-94.08 68.41-116.66 82.82l-76.07-104.05c17.66 22.18 48.01 42.58 68.74 55 13.09 7.84 29.56 7.27 42.09-1.44l58.97-40.97c4.23-2.94 8.09-6.37 11.5-10.22l68.15-77.01v-78.8l17.24 85.4z" class="colorfbab3f svgShape"></path><path fill="#1948fb" d="M1315.6,737.3l-66,6.08c42.76-4.13,51.51-31.04,53.27-43.28,.42-2.9-2.32-5.26-5.14-4.46l-21.83,6.21c-2.17,.62-4.47,.7-6.68,.23l-38.09-8.02,40.88,.75,37.65-11.84,10.88,47.04c.85,3.52-1.37,6.78-4.94,7.28Z" class="colorfb9b19 svgShape"></path><path fill="#1948fb" d="M1311.59,682.37l-1.93,.6-37.65,11.84-24-.44c.6-.1,1.24-.21,1.9-.31,55.96-8.68,53.39-38.61,53.39-38.61l.21-.03c2.5-.35,5.01,1.36,5.6,3.83l4.63,19.34c.38,1.62-.55,3.27-2.14,3.77Z" class="colorfb9b19 svgShape"></path><path fill="#3f66fb" d="M1396.73,573.76l-28.8-10.26s-27.06,11.37-28.83,29.35c-.04,.42-.08,.85-.09,1.28,0-2.57,.15-5.03,.4-7.41,5.74-18.91,18.79-31.99,21.96-34.96,.24-.22,.47-.44,.71-.64,0,0,8.29-1.46,20.34,7.82,.02,.02,.04,.03,.07,.05,4.33,3.35,9.14,8.08,14.24,14.76t0,.02Z" class="colorfbab3f svgShape"></path><path fill="#4b70fb" d="M1245.64,588.06s26.6-25.1,66.63,.5c0,0-20.29-24.59-46.72-25.84,0,0-14.89,7.53-19.91,25.34Z" class="colorfbb04b svgShape"></path><path fill="#1948fb" d="M1666.48,911.51l-13.69,47.94c-.54,1.9-2.26,3.22-4.23,3.26l-15.94,.32-89.39,1.83c102.58-4.4,103.42-44.29,103.42-44.29l-54.9-12.02,3.08-1.39,56.34-1.15,10.9-.22c3.01-.06,5.24,2.81,4.41,5.72Z" opacity=".7" class="colorfb9b19 svgShape"></path><path fill="#1948fb" d="M887.27,813.65c.43,.64,.86,1.34,1.32,2.09l-.74-1.02c-.24-.33-.44-.7-.58-1.07Z" class="colorfb9b19 svgShape"></path><path fill="#1948fb" d="M1013.62,900.43l-47.31,16.36c-1.83,.63-3.84,0-4.98-1.56l-17.01-23.27-44.21-60.47c25.94,29.92,66.31,48.47,86.01,56.24,4.77,1.88,9.62-2.53,8.19-7.45l-7.7-26.43,.02,.02,24.92,34.1,2.93,4,1.26,1.73c1.74,2.39,.68,5.78-2.11,6.74Z" opacity=".7" class="colorfb9b19 svgShape"></path><path fill="#91c8ff" d="M1533.55 965.06c-.19.65-.41 1.39-.65 2.23l-274.93-31.8h253.09l8.82 26.68c.62 1.87 2.38 3.12 4.35 3.08l9.33-.19zM1580.51 1540.5h-157.63c61.26 0 96.1-20.06 115.51-39.63 15.59-15.71 22.84-37.87 20.09-59.84l-27.75-221.76c-1.68-13.41-1.97-26.95-.86-40.42l9.61-117.25c5.25.12 10.44-1.83 14.33-4.22 2.02 5.61 6.38 10.23 15.11 10.89l-6.59 130.33 39.23 318.09c1.56 12.64-8.31 23.8-21.05 23.8zM1390.69 985.56l-39.15 204.52 19.57 271.02s11 79.4-140.8 79.4h151.8s12.6 1.37 20-9.53c0 0-5.24-3.79-6.74-16.33-1.51-12.55-26.77-268.35-26.77-268.35l-3.57-47.93s2.9-41.74 4.91-61.82c2.01-20.08 20.74-150.99 20.74-150.99z" class="colorffd691 svgShape"></path><path fill="#73b9ff" d="M1599.65,1503.03h-9.91c-1,0-1.81-.81-1.81-1.81s.81-1.81,1.81-1.81h9.91c1,0,1.81,.81,1.81,1.81s-.81,1.81-1.81,1.81Zm-20.77,0h-10.86c-1,0-1.81-.81-1.81-1.81s.81-1.81,1.81-1.81h10.86c1,0,1.81,.81,1.81,1.81s-.81,1.81-1.81,1.81Zm-21.73,0h-10.86c-1,0-1.81-.81-1.81-1.81s.81-1.81,1.81-1.81h10.86c1,0,1.81,.81,1.81,1.81s-.81,1.81-1.81,1.81Zm-21.73,0h-10.86c-1,0-1.81-.81-1.81-1.81s.81-1.81,1.81-1.81h10.86c1,0,1.81,.81,1.81,1.81s-.81,1.81-1.81,1.81Zm-21.73,0h-10.86c-1,0-1.81-.81-1.81-1.81s.81-1.81,1.81-1.81h10.86c1,0,1.81,.81,1.81,1.81s-.81,1.81-1.81,1.81Zm-21.73,0h-10.86c-1,0-1.81-.81-1.81-1.81s.81-1.81,1.81-1.81h10.86c1,0,1.81,.81,1.81,1.81s-.81,1.81-1.81,1.81Zm-21.73,0h-10.86c-1,0-1.81-.81-1.81-1.81s.81-1.81,1.81-1.81h10.86c1,0,1.81,.81,1.81,1.81s-.81,1.81-1.81,1.81Zm-21.73,0h-10.86c-1,0-1.81-.81-1.81-1.81s.81-1.81,1.81-1.81h10.86c1,0,1.81,.81,1.81,1.81s-.81,1.81-1.81,1.81Zm-21.73,0h-10.86c-1,0-1.81-.81-1.81-1.81s.81-1.81,1.81-1.81h10.86c1,0,1.81,.81,1.81,1.81s-.81,1.81-1.81,1.81Zm-21.73,0h-10.86c-1,0-1.81-.81-1.81-1.81s.81-1.81,1.81-1.81h10.86c1,0,1.81,.81,1.81,1.81s-.81,1.81-1.81,1.81Z" class="colorffcb73 svgShape"></path><path fill="#73b9ff" d="M1394.2 1503.03h-10.67c-1 0-1.81-.81-1.81-1.81s.81-1.81 1.81-1.81h10.67c1 0 1.81.81 1.81 1.81s-.81 1.81-1.81 1.81zm-21.54 0h-10.86c-1 0-1.81-.81-1.81-1.81s.81-1.81 1.81-1.81h10.86c1 0 1.81.81 1.81 1.81s-.81 1.81-1.81 1.81zm-21.73 0h-10.86c-1 0-1.81-.81-1.81-1.81s.81-1.81 1.81-1.81h10.86c1 0 1.81.81 1.81 1.81s-.81 1.81-1.81 1.81zm-21.73 0h-10.86c-1 0-1.81-.81-1.81-1.81s.81-1.81 1.81-1.81h10.86c1 0 1.81.81 1.81 1.81s-.81 1.81-1.81 1.81zm-21.73 0h-10.86c-1 0-1.81-.81-1.81-1.81s.81-1.81 1.81-1.81h10.86c1 0 1.81.81 1.81 1.81s-.81 1.81-1.81 1.81zm-21.73 0h-10.86c-1 0-1.81-.81-1.81-1.81s.81-1.81 1.81-1.81h10.86c1 0 1.81.81 1.81 1.81s-.81 1.81-1.81 1.81zm-21.73 0h-10.86c-1 0-1.81-.81-1.81-1.81s.81-1.81 1.81-1.81h10.86c1 0 1.81.81 1.81 1.81s-.81 1.81-1.81 1.81zm-21.73 0h-10.86c-1 0-1.81-.81-1.81-1.81s.81-1.81 1.81-1.81h10.86c1 0 1.81.81 1.81 1.81s-.81 1.81-1.81 1.81zm-21.73 0h-10.86c-1 0-1.81-.81-1.81-1.81s.81-1.81 1.81-1.81h10.86c1 0 1.81.81 1.81 1.81s-.81 1.81-1.81 1.81zM1543.59 1503.03c-.9 0-1.67-.66-1.79-1.58l-1.41-10.77c-.13-.99.57-1.9 1.56-2.03.99-.13 1.9.57 2.03 1.56l1.41 10.77c.13.99-.57 1.9-1.56 2.03-.08.01-.16.02-.24.02zm-2.81-21.54c-.9 0-1.67-.66-1.79-1.58l-1.41-10.77c-.13-.99.57-1.9 1.56-2.03.99-.12 1.9.57 2.03 1.56l1.41 10.77c.13.99-.57 1.9-1.56 2.03-.08.01-.16.02-.24.02zm-2.81-21.54c-.9 0-1.67-.66-1.79-1.58l-1.41-10.77c-.13-.99.57-1.9 1.56-2.03.99-.13 1.9.57 2.03 1.56l1.41 10.77c.13.99-.57 1.9-1.56 2.03-.08.01-.16.02-.24.02zm-2.81-21.54c-.9 0-1.67-.66-1.79-1.58l-1.41-10.77c-.13-.99.57-1.9 1.56-2.03.98-.13 1.9.57 2.03 1.56l1.41 10.77c.13.99-.57 1.9-1.56 2.03-.08.01-.16.02-.24.02zm-2.81-21.54c-.9 0-1.67-.66-1.79-1.58l-1.41-10.77c-.13-.99.57-1.9 1.56-2.03.98-.13 1.9.57 2.03 1.56l1.41 10.77c.13.99-.57 1.9-1.56 2.03-.08 0-.16.02-.24.02zm-2.81-21.54c-.9 0-1.67-.66-1.79-1.58l-1.41-10.77c-.13-.99.57-1.9 1.56-2.03.98-.13 1.9.57 2.03 1.56l1.41 10.77c.13.99-.57 1.9-1.56 2.03-.08.01-.16.02-.24.02zm-2.81-21.54c-.9 0-1.67-.66-1.79-1.58l-1.41-10.77c-.13-.99.57-1.9 1.56-2.03.99-.13 1.9.57 2.03 1.56l1.41 10.77c.13.99-.57 1.9-1.56 2.03-.08.01-.16.02-.24.02zm-2.81-21.54c-.9 0-1.67-.66-1.79-1.58l-1.41-10.77c-.13-.99.57-1.9 1.56-2.03.99-.13 1.9.57 2.03 1.56l1.41 10.77c.13.99-.57 1.9-1.56 2.03-.08 0-.16.02-.24.02zm-2.81-21.54c-.9 0-1.67-.66-1.79-1.58l-1.41-10.77c-.13-.99.57-1.9 1.56-2.03.99-.13 1.9.57 2.03 1.56l1.41 10.77c.13.99-.57 1.9-1.56 2.03-.08 0-.16.02-.24.02zm-2.81-21.54c-.9 0-1.67-.66-1.79-1.58l-1.41-10.77c-.13-.99.57-1.9 1.56-2.03.99-.13 1.9.57 2.03 1.56l1.41 10.77c.13.99-.57 1.9-1.56 2.03-.08.01-.16.02-.24.02zm-2.81-21.54c-.9 0-1.67-.66-1.79-1.58l-1.41-10.77c-.13-.99.57-1.9 1.56-2.03.99-.13 1.9.57 2.03 1.56l1.41 10.77c.13.99-.57 1.9-1.56 2.03-.08.01-.16.02-.24.02zm-2.81-21.54c-.9 0-1.67-.66-1.79-1.58l-1.41-10.77c-.13-.99.57-1.9 1.56-2.03.99-.12 1.9.57 2.03 1.56l1.41 10.77c.13.99-.57 1.9-1.56 2.03-.08.01-.16.02-.24.02zm-2.81-21.54c-.9 0-1.67-.66-1.79-1.58l-1.41-10.77c-.13-.99.57-1.9 1.56-2.03.99-.13 1.9.57 2.03 1.56l1.41 10.77c.13.99-.57 1.9-1.56 2.03-.08 0-.16.02-.24.02zm-2.67-21.56c-.92 0-1.71-.7-1.8-1.64-.34-3.63-.58-7.3-.73-10.93-.04-1 .74-1.84 1.73-1.88 1-.04 1.84.74 1.88 1.73.15 3.57.39 7.18.72 10.74.09 1-.64 1.88-1.64 1.97-.06 0-.11 0-.17 0zm-.89-21.7h-.02c-1-.01-1.8-.83-1.79-1.83.04-3.64.17-7.33.4-10.95.06-1 .93-1.76 1.92-1.69 1 .06 1.76.92 1.69 1.92-.22 3.56-.35 7.18-.39 10.76-.01.99-.82 1.79-1.81 1.79zm1.35-21.68c-.07 0-.14 0-.21-.01-.99-.11-1.71-1.01-1.59-2l1.26-10.8c.12-.99 1.01-1.71 2.01-1.59.99.11 1.7 1.01 1.59 2.01l-1.25 10.79c-.11.92-.89 1.61-1.8 1.61zm2.51-21.58c-.07 0-.14 0-.21-.01-.99-.11-1.71-1.01-1.59-2.01l1.25-10.79c.12-.99 1.02-1.71 2.01-1.59.99.11 1.71 1.01 1.59 2.01l-1.25 10.79c-.11.92-.89 1.6-1.8 1.6zm2.51-21.58c-.07 0-.14 0-.21-.01-.99-.11-1.71-1.01-1.59-2.01l1.25-10.79c.12-.99 1.02-1.71 2.01-1.59.99.11 1.71 1.01 1.59 2.01l-1.25 10.79c-.11.92-.89 1.6-1.8 1.6zm2.51-21.58c-.07 0-.14 0-.21-.01-.99-.11-1.71-1.01-1.59-2.01l1.25-10.79c.11-.99 1.01-1.71 2.01-1.59.99.11 1.7 1.01 1.59 2.01l-1.25 10.79c-.11.92-.89 1.6-1.8 1.6zm2.51-21.58c-.07 0-.14 0-.21-.01-.99-.11-1.7-1.01-1.59-2.01l1.25-10.79c.11-.99 1.02-1.71 2.01-1.59.99.11 1.71 1.01 1.59 2.01l-1.25 10.79c-.11.92-.89 1.6-1.8 1.6zm2.51-21.58c-.07 0-.14 0-.21-.01-.99-.11-1.7-1.01-1.59-2.01l1.25-10.79c.11-.99 1.02-1.71 2.01-1.59.99.11 1.71 1.01 1.59 2.01l-1.25 10.79c-.11.92-.89 1.6-1.8 1.6zM1357.29 1503.03c-.96 0-1.76-.75-1.81-1.72l-.52-10.85c-.05-1 .72-1.85 1.72-1.9.99-.03 1.85.72 1.9 1.72l.52 10.85c.05 1-.72 1.85-1.72 1.9-.03 0-.06 0-.09 0zm-1.05-21.7c-.96 0-1.76-.75-1.81-1.72l-.52-10.85c-.05-1 .72-1.85 1.72-1.9.99-.04 1.85.72 1.9 1.72l.52 10.85c.05 1-.72 1.85-1.72 1.9-.03 0-.06 0-.09 0zm-1.05-21.7c-.96 0-1.76-.75-1.81-1.72l-.52-10.85c-.05-1 .72-1.85 1.72-1.9.98-.04 1.85.72 1.9 1.72l.52 10.85c.05 1-.72 1.85-1.72 1.9-.03 0-.06 0-.09 0zm-1.05-21.7c-.96 0-1.76-.75-1.81-1.72l-.52-10.85c-.05-1 .72-1.85 1.72-1.9.98-.05 1.85.72 1.9 1.72l.52 10.85c.05 1-.72 1.85-1.72 1.9-.03 0-.06 0-.09 0zm-1.05-21.7c-.96 0-1.76-.75-1.81-1.72l-.52-10.85c-.05-1 .72-1.85 1.72-1.9.98-.05 1.85.72 1.9 1.72l.52 10.85c.05 1-.72 1.85-1.72 1.9-.03 0-.06 0-.09 0zm-1.05-21.7c-.96 0-1.76-.75-1.81-1.72l-.52-10.85c-.05-1 .72-1.85 1.72-1.9.98-.02 1.85.72 1.9 1.72l.52 10.85c.05 1-.72 1.85-1.72 1.9-.03 0-.06 0-.09 0zm-1.05-21.7c-.96 0-1.76-.75-1.81-1.72l-.52-10.85c-.05-1 .72-1.85 1.72-1.9.98-.03 1.85.72 1.9 1.72l.52 10.85c.05 1-.72 1.85-1.72 1.9-.03 0-.06 0-.09 0zm-1.05-21.7c-.96 0-1.76-.75-1.81-1.72l-.52-10.85c-.05-1 .72-1.85 1.72-1.9.98-.03 1.85.72 1.9 1.72l.52 10.85c.05 1-.72 1.85-1.72 1.9-.03 0-.06 0-.09 0zm-1.05-21.7c-.96 0-1.76-.75-1.81-1.72l-.52-10.85c-.05-1 .72-1.85 1.72-1.9.98-.04 1.85.72 1.9 1.72l.52 10.85c.05 1-.72 1.85-1.72 1.9-.03 0-.06 0-.09 0zm-1.05-21.7c-.96 0-1.76-.75-1.81-1.72l-.52-10.85c-.05-1 .72-1.85 1.72-1.9.98-.04 1.85.72 1.9 1.72l.52 10.85c.05 1-.72 1.85-1.72 1.9-.03 0-.06 0-.09 0zm-1.05-21.7c-.96 0-1.76-.75-1.81-1.72l-.52-10.85c-.05-1 .72-1.85 1.72-1.9.98-.05 1.85.72 1.9 1.72l.52 10.85c.05 1-.72 1.85-1.72 1.9-.03 0-.06 0-.09 0zm-1.05-21.7c-.96 0-1.76-.75-1.81-1.72l-.52-10.85c-.05-1 .72-1.85 1.72-1.9.98-.05 1.85.72 1.9 1.72l.52 10.85c.05 1-.72 1.85-1.72 1.9-.03 0-.06 0-.09 0zm-1.05-21.7c-.96 0-1.76-.75-1.81-1.72l-.52-10.86c-.05-1 .73-1.85 1.73-1.89 1.03-.05 1.85.73 1.89 1.73l.52 10.84c.05 1-.72 1.85-1.72 1.9-.03 0-.06 0-.09 0zm-.78-21.71c-1 0-1.81-.81-1.81-1.81v-.47c0-3.48.07-7.01.22-10.47.04-1 .91-1.76 1.88-1.73 1 .04 1.78.88 1.73 1.88-.14 3.41-.21 6.88-.21 10.32v.47c0 1-.81 1.81-1.81 1.81zm.9-21.7c-.05 0-.1 0-.16 0-1-.08-1.73-.96-1.65-1.96.31-3.62.7-7.28 1.16-10.88.13-.99 1.05-1.7 2.03-1.56.99.13 1.69 1.04 1.56 2.03-.46 3.55-.84 7.16-1.14 10.72-.08.94-.87 1.66-1.8 1.66zm2.77-21.54c-.1 0-.21 0-.31-.03-.99-.17-1.65-1.11-1.48-2.09.62-3.59 1.33-7.21 2.1-10.74.21-.98 1.18-1.59 2.16-1.38.98.21 1.6 1.18 1.38 2.16-.76 3.48-1.46 7.04-2.07 10.58-.15.88-.92 1.5-1.78 1.5zm4.57-21.24c-.14 0-.28-.02-.43-.05-.97-.23-1.57-1.21-1.34-2.18l2.54-10.56c.23-.97 1.21-1.57 2.18-1.34.97.23 1.57 1.21 1.34 2.18l-2.54 10.56c-.2.83-.94 1.39-1.76 1.39zm5.08-21.12c-.14 0-.28-.02-.43-.05-.97-.23-1.57-1.21-1.34-2.18l2.54-10.56c.23-.97 1.21-1.57 2.18-1.34.97.23 1.57 1.21 1.34 2.18l-2.54 10.56c-.2.83-.94 1.39-1.76 1.39zm5.08-21.12c-.14 0-.28-.02-.43-.05-.97-.23-1.57-1.21-1.34-2.18l2.54-10.56c.23-.97 1.21-1.57 2.18-1.34.97.23 1.57 1.21 1.34 2.18l-2.54 10.56c-.2.83-.94 1.39-1.76 1.39zm5.08-21.12c-.14 0-.28-.02-.43-.05-.97-.23-1.57-1.21-1.34-2.18l2.54-10.56c.23-.97 1.21-1.57 2.18-1.34.97.23 1.57 1.21 1.34 2.18l-2.54 10.56c-.2.83-.94 1.39-1.76 1.39zm5.08-21.12c-.14 0-.28-.02-.43-.05-.97-.23-1.57-1.21-1.34-2.18l2.54-10.56c.23-.97 1.21-1.57 2.18-1.34.97.23 1.57 1.21 1.34 2.18l-2.54 10.56c-.2.83-.94 1.39-1.76 1.39zm5.08-21.12c-.14 0-.28-.02-.43-.05-.97-.23-1.57-1.21-1.34-2.18l2.54-10.56c.23-.97 1.21-1.57 2.18-1.34.97.23 1.57 1.21 1.34 2.18l-2.54 10.56c-.2.83-.94 1.39-1.76 1.39zm5.08-21.12c-.14 0-.28-.02-.43-.05-.97-.23-1.57-1.21-1.34-2.18l2.54-10.56c.23-.97 1.21-1.57 2.18-1.34.97.23 1.57 1.21 1.34 2.18l-2.54 10.56c-.2.83-.94 1.39-1.76 1.39z" class="colorffcb73 svgShape"></path><path fill="#3f66fb" d="M1363.64,888.95h-118.89c-.63,0-1.25-.07-1.85-.19-1.79-.37-3.42-1.24-4.69-2.49l71.37-11.73c20.18-3.32,35.5-19.96,37.14-40.34l4.66-58s0,0,0,.02c7.35,52.92,12.84,100.75,13.98,110.8,.11,1.04-.7,1.93-1.73,1.93Z" class="colorfbab3f svgShape"></path><path fill="#80bfff" d="M1532.9,967.29l75.49,5.51c8.09,.59,14.75,6.64,16.04,14.64,1.96,12.14,3.77,31.43,1.14,54.02,0,0,12.77-17.74,7.05-78.44l-99.73,1.02v3.25Z" class="colorffb680 svgShape"></path><path fill="#5e80ff" d="M1655.35,1019.77s-6.86-11.21-17.23-5.69c0,0-3.92,17.01-10.16,22.47,0,0,5.6-12.77,5.85-26.57,0,0,18.19-8.95,21.54,9.79Z" class="colorffa25e svgShape"></path><polygon fill="#80bfff" points="888.59 815.74 905.48 869.37 866.65 891.96 944.32 891.95 888.59 815.74" class="colorffb680 svgShape"></polygon><path fill="#333333" d="M1038.31,918.84v256.81c0,9.22-7.47,16.69-16.69,16.69h-437.4c64.68,0,120.17-5.3,167.76-14.45,13.42-2.58,26.2-5.46,38.39-8.63,4.68-1.2,9.27-2.46,13.78-3.75,15.46-4.43,29.9-9.31,43.39-14.57,96.91-37.8,144.74-95.15,168.27-144.56,17.51-36.77,21.58-69.15,22.41-85.82,.03-.59,.05-1.18,.08-1.73Z" opacity=".1" class="color333333 svgShape"></path><path fill="#f2f2f2" d="M834.54,891.95l-241.74,9.43c-8.74,.34-15.73,7.39-16,16.14l-.09,3.05-2.6,85.82-5.33,175.62c-.8-1.96-1.25-4.1-1.25-6.35v-267.01c0-9.22,7.47-16.69,16.69-16.69h250.31Z" class="colorf2f2f2 svgShape"></path><path fill="#e6e6e6" d="M1504.23,914.83l6.83,20.66h-255.41c-.91,0-1.79-.2-2.58-.57,217.95,0,238.9-32.6,238.9-32.6l-79.61-13.38h102.25l2.74,19.8-8.95,.18c-3.01,.06-5.11,3.03-4.17,5.9Z" class="colore6e6e6 svgShape"></path><path fill="#325cfb" d="M1494.99 1712.03c-3.87.4-7.88.77-12.03 1.1-14.7-.64-15.21-1.09 12.03-1.1zM1596.8 1679.71s-10.21 13.08-49.54 23.33c-5.52 1.44-11.62 2.82-18.34 4.1 63.84-20.82 61.21-101.13 61.21-101.13 7.79 27.69 6.67 73.69 6.67 73.69z" class="colorfba632 svgShape"></path><path fill="#e6e6e6" d="M1606.16,1710.3c-.58,6.14-5.05,11.22-11.07,12.57-99.05,22.21-165.88,15.91-233.17,11.03-2.95-.21-5.72-.49-8.39-.83-4.52-.58-8.66-1.32-12.43-2.21,93.24,9.65,185.28-22.81,187.77-23.7,.03,0,.05-.02,.05-.02,6.73-1.28,12.83-2.67,18.34-4.1,39.32-10.26,49.54-23.33,49.54-23.33,9.04,10.74,10.13,22.42,9.36,30.59Z" class="colore6e6e6 svgShape"></path><path fill="#e6e6e6" d="M1353.53,1733.08c-69.72,9.51-123.13,4.72-176.84,.83-13.19-.96-23.6-3.22-31.65-6.33,.12,0,.25,.02,.37,.03,103.39,7.03,164.35-15.57,164.35-15.57,5.31,9.35,18.59,17.85,43.76,21.04Z" class="colore6e6e6 svgShape"></path><polygon fill="#80bfff" points="1252.08 1540.5 1252.58 1550.5 1384.03 1558.49 1383.13 1540.5 1252.08 1540.5" class="colorffb680 svgShape"></polygon><polygon fill="#80bfff" points="1436.89 1540.5 1437.76 1550.47 1569.68 1558.49 1567.93 1540.5 1436.89 1540.5" class="colorffb680 svgShape"></polygon><path fill="#3f66fb" d="M1651.17,803.49v102.52l-119.07,2.43c103.71-4.34,95.87-54.62,95.87-54.62v-49.92c0-18.27-2.11-36.49-6.49-54.23-16.3-66.01-51.04-139.15-94.53-215.68,32.94,22.52,97.76,159.79,119.24,234.29,3.3,11.45,4.98,23.3,4.98,35.22Z" class="colorfbab3f svgShape"></path><path fill="#e6e6e6" d="M1372.41,902.32l-127.63-5.68-1.86-7.89,120.73,.19c1.05,0,1.86-.9,1.73-1.93-.06-.53-.13-1.18-.22-1.92-.06-.56-.13-1.18-.21-1.85-.03-.22-.05-.45-.08-.69-.09-.71-.17-1.46-.26-2.27-.03-.27-.06-.55-.1-.84-.1-.85-.21-1.74-.31-2.69-.03-.32-.07-.64-.11-.97-.07-.66-.15-1.33-.24-2.03-.17-1.4-.34-2.88-.52-4.44-.04-.39-.09-.78-.14-1.19-.15-1.2-.3-2.45-.44-3.73-.1-.86-.2-1.73-.31-2.63-.32-2.68-.67-5.53-1.03-8.52-2.25-18.46-5.27-42.49-8.78-68.19-.19-1.39-.37-2.78-.58-4.17-.58-4.2-1.17-8.43-1.77-12.69-.1-.71-.2-1.42-.3-2.13-.2-1.42-.4-2.84-.61-4.27-.1-.71-.2-1.42-.31-2.13-.2-1.42-.41-2.85-.62-4.28-.31-2.14-.63-4.29-.94-6.43-.21-1.42-.43-2.85-.64-4.28-.96-6.42-1.93-12.82-2.93-19.14-.23-1.4-.44-2.81-.67-4.21-.1-.7-.22-1.39-.33-2.09-.23-1.39-.44-2.78-.67-4.17-.34-2.07-.67-4.14-1.01-6.19-.23-1.37-.45-2.73-.69-4.08-.23-1.35-.45-2.7-.68-4.03-.23-1.34-.46-2.68-.69-3.99-.23-1.32-.46-2.64-.69-3.95-1.5-8.5-3.01-16.63-4.53-24.21-2.2-11.01-4.29-20.81-6.32-29.57-.23-.98-.44-1.94-.67-2.88-.23-.95-.44-1.89-.67-2.81-.1-.46-.22-.92-.33-1.38-.78-3.2-1.55-6.25-2.32-9.16-.44-1.66-.88-3.28-1.32-4.86-.66-2.37-1.32-4.64-1.97-6.83-1.1-3.64-2.2-7.05-3.31-10.25-.22-.64-.44-1.27-.67-1.89-1.35-3.74-2.72-7.19-4.13-10.41-.24-.57-.5-1.12-.74-1.67-.5-1.1-1-2.17-1.52-3.22-.51-1.05-1.03-2.07-1.55-3.08-.52-1-1.05-1.99-1.59-2.95-.81-1.45-1.64-2.84-2.48-4.21-1.98-3.19-4.06-6.19-6.28-9.1-.64-.83-1.28-1.66-1.94-2.48-1.32-1.64-2.69-3.27-4.11-4.91-3.2-3.67-6.68-7.36-10.52-11.3-3.08-3.16-5.6-6.1-7.67-8.81-.28-.36-.54-.71-.79-1.05-2.54-3.45-4.31-6.54-5.51-9.27-1.86-4.24-2.33-7.65-2.13-10.33l1.44-.32c.16,.59,.38,1.36,.69,2.27,1.2,3.56,3.69,9.2,8.43,14.2,0,0,.03,.03,.04,.05l4.37,3.87,4.12,3.65s22.84,16.61,34.22,46.81c11.37,30.21,22.75,77.76,27.77,107.35,5.02,29.59,18.73,117.93,21.42,140.35,2.2,18.47,6.46,52.73,7.89,64.22,.25,2.03-1.38,3.79-3.42,3.69Z" class="colore6e6e6 svgShape"></path><path fill="#ffffff" d="M1316.22 1214.24c0 33.76-32.66 61.14-72.94 61.14-17.05 0-32.75-4.91-45.17-13.13-.46-25.23-.58-46.96-.15-62.14.29-10.34 1.45-22.5 3.24-35.83 11.89-7.05 26.41-11.19 42.08-11.19 40.28 0 72.94 27.38 72.94 61.14zM1484.89 1214.24c0 33.76-32.66 61.14-72.94 61.14-15.49 0-29.85-4.04-41.67-10.95-2.85-30.53-4.84-54.08-5.19-63.56-.28-7.57.44-19.81 1.78-34.7 12.41-8.19 28.07-13.07 45.08-13.07 40.28 0 72.94 27.38 72.94 61.14z" opacity=".15" class="colorffffff svgShape"></path><path fill="#2f56eb" d="M1201.62 715.02c-.84 0-1.6-.59-1.77-1.45l-16.71-82.74c-.2-.98.44-1.94 1.42-2.13.98-.2 1.93.44 2.13 1.42l16.71 82.74c.2.98-.44 1.94-1.42 2.13-.12.02-.24.04-.36.04zM1306.61 583.89c-6.01-4.89-12.26-9.41-19.3-12.68-5.21-2.48-10.71-4.36-16.33-5.67-1.85-.42-3.8-.79-5.58-1.02-1.03-.09-1.79-1.02-1.65-2.04.13-.96.98-1.64 1.93-1.57 2.15.16 4.1.5 6.11.89 5.92 1.24 11.79 3.23 17.2 5.93 3.63 1.8 7.17 3.82 10.4 6.28 3.3 2.36 6.2 5.24 8.84 8.28.41.48.36 1.19-.11 1.61-.44.38-1.08.36-1.5 0h0z" class="coloreb9b2f svgShape"></path><path fill="#2f56eb" d="M1265.98,508.48c-7.74,14.31-2.07,38.45,1.31,53.77,.49,2.27-2.8,3.16-3.5,.92-4.08-14.71-8.33-34.69-2.9-49.37,.92-2.27,2.15-4.48,3.9-6.26,.3-.3,.78-.3,1.08,0,.26,.26,.3,.65,.11,.95h0Z" class="coloreb9b2f svgShape"></path><path fill="#2f56eb" d="M1266.27 564.37c-5.86 2.87-10.97 7.58-14.47 13.09-2.09 3.37-3.52 7.09-4.38 10.96-.22.98-1.2 1.59-2.18 1.37-.85-.2-1.42-.96-1.4-1.79.05-3.22.2-6.39.39-9.58.65-11.13 1.91-22.3 3.83-33.3.89-4.54 1.86-9.65 3.11-14.09 1.65-6.22 3.94-12.39 7.37-17.87.57-.92 2.04-.22 1.6.83-6.45 17.72-9.08 36.58-11.09 55.28-.52 5.51-1.27 13.42-1.59 18.86l-3.58-.43c2.38-11.52 10.4-21.5 20.96-26.64 2.24-.97 3.69 2.33 1.45 3.32h0zM1363.27 552.48c-7.97 7.84-14.67 17.09-19.88 26.99-.69 1.37-2.78.47-2.24-.98 1.99-5.51 4.79-10.7 8.1-15.53 3.4-4.85 7.1-9.32 11.65-13.22.76-.64 1.91-.55 2.55.21.64.75.55 1.87-.18 2.52h0z" class="coloreb9b2f svgShape"></path><path fill="#2f56eb" d="M1373.57 501.38c13.85 14.23 23.51 32.83 25.68 52.71.52 4.99.63 10.03.08 15.03-.19 1.69-.41 3.3-.84 5.08-.24.97-1.22 1.56-2.19 1.32-.48-.12-.86-.41-1.11-.8-3.8-5.66-8.8-10.74-14.37-14.68-4.52-3.23-9.7-5.48-15.1-6.62-.85-.11-2.9-.39-3.77-.5-2.5-.16-2.25-3.84.27-3.61l2.79.36c12.01 1.78 22.37 9.48 29.94 18.65 1.18 1.42 2.25 2.85 3.32 4.48l-3.29.52c2.17-12.45.14-25.45-3.97-37.32-3.28-9-8.01-17.5-13.17-25.54-1.75-2.72-3.83-5.21-5.8-7.8-.74-.97.67-2.22 1.54-1.27h0zM1011.54 889.76c-.56 0-1.11-.26-1.46-.74l-80.99-110.78c-.59-.81-.41-1.94.39-2.53.81-.59 1.94-.41 2.53.39l80.99 110.78c.59.81.41 1.94-.39 2.53-.32.24-.7.35-1.07.35z" class="coloreb9b2f svgShape"></path><path fill="#2f56eb" d="M1014.47 893.77c-.56 0-1.11-.26-1.46-.74l-2.93-4c-.59-.81-.41-1.94.39-2.53.81-.59 1.94-.41 2.53.39l2.93 4c.59.81.41 1.94-.39 2.53-.32.24-.7.35-1.07.35zM1519.29 910.56c-.98 0-1.79-.79-1.81-1.77-.02-1 .77-1.83 1.77-1.85l129.83-2.74h.04c.98 0 1.79.79 1.81 1.77.02 1-.77 1.83-1.77 1.85l-129.83 2.74h-.04zM1514.61 887.26c-.88 0-1.66-.65-1.79-1.55l-12.61-87.63-71.06-174.45c-.38-.93.07-1.98.99-2.36.93-.38 1.98.07 2.36.99l71.14 174.66c.06.14.09.28.11.43l12.64 87.85c.14.99-.54 1.91-1.53 2.05-.09.01-.18.02-.26.02z" class="coloreb9b2f svgShape"></path><path fill="#73b9ff" d="M1402.11,1532.78c-.51,0-1.01-.21-1.37-.63-3.9-4.52-6.28-10.06-6.91-16-8.78-83.8-29.33-282.28-30.55-315.22-1.49-40.36,24.51-208.52,25.62-215.66,.15-.99,1.08-1.66,2.07-1.51,.99,.15,1.66,1.08,1.51,2.07-.27,1.75-27.06,174.95-25.58,214.97,1.25,33.75,23.69,249.62,30.54,314.97,.55,5.2,2.64,10.05,6.05,14.01,.65,.76,.57,1.9-.19,2.55-.34,.29-.76,.44-1.18,.44Z" class="colorffcb73 svgShape"></path><path fill="#80bfff" d="M1553.81 1059.66c-.93 0-1.8-.57-2.13-1.5-3.77-10.46-.05-23.73.11-24.29.34-1.2 1.59-1.9 2.8-1.55 1.2.34 1.9 1.59 1.56 2.8-.04.12-3.47 12.44-.21 21.52.42 1.18-.19 2.47-1.36 2.9-.25.09-.51.13-.77.13zM1595.18 1063.43c-.74 0-1.47-.36-1.9-1.03-6.92-10.7-2.3-27.79-2.1-28.51.33-1.2 1.58-1.91 2.78-1.58 1.2.33 1.91 1.58 1.58 2.78-.04.16-4.28 15.86 1.53 24.84.68 1.05.38 2.45-.67 3.13-.38.25-.81.36-1.23.36zM1625.57 1043.73c-.36 0-.73-.09-1.07-.27-1.1-.59-1.51-1.97-.92-3.07 3.65-6.75 6.08-17.04 7.22-30.6.11-1.24 1.18-2.17 2.45-2.06 1.24.11 2.17 1.2 2.06 2.45-1.2 14.18-3.81 25.07-7.75 32.37-.41.76-1.19 1.19-1.99 1.19zM867.22 891.92c-.19 0-.38-.02-.57-.07-1.21-.31-1.94-1.55-1.63-2.76.04-.15.07-.26.09-.34.03-.24.08-.49.13-.76.09-.45.32-.87.66-1.19l20.08-19.07c.91-.86 2.34-.82 3.2.08.86.91.82 2.34-.08 3.2l-19.54 18.56c-.04.2-.09.42-.16.65-.26 1.02-1.18 1.7-2.19 1.7zm2.18-3.82h0zM835.49 891.21c-.22 0-.45-.03-.68-.1-1.19-.37-1.86-1.64-1.48-2.84l9.88-31.53c.37-1.19 1.64-1.85 2.84-1.48 1.19.37 1.86 1.64 1.48 2.84l-9.88 31.53c-.3.97-1.2 1.59-2.16 1.59z" class="colorffb680 svgShape"></path><path fill="#2f56eb" d="M1272 696.62h-.03l-38.53-.7c-1-.02-1.8-.84-1.78-1.84.02-.99.83-1.78 1.81-1.78h.03l38.23.7 35.59-11.19c.95-.3 1.97.23 2.27 1.18.3.95-.23 1.97-1.18 2.27l-35.87 11.28c-.18.05-.36.08-.54.08zM1360.3 550.79c1.41-9.25 2.65-18.67 3.06-28 .23-6.7 0-13.78-3.82-19.53-1.21-1.86-2.66-3.59-4.33-5.13-.49-.45-.52-1.22-.07-1.71.42-.45 1.1-.51 1.58-.16 6.3 4.37 9.89 11.66 10.24 19.34.73 12.06-1.04 24-3.1 35.83-.48 2.3-3.9 1.73-3.57-.63h0z" class="coloreb9b2f svgShape"></path><path fill="#9eceff" d="M1156.76,1321.31l1.64,14.05c-1.6-8.09-1.64-13.63-1.64-14.05Z" class="colorffdb9e svgShape"></path><path fill="#80bfff" d="M1337.48,403.86v7.75c-17.32,12.05-28.2,3.72-28.6,3.41,.3,.41,7.77,11.1-13.56,13.08-21.75,2.01-34.76-9.2-34.76-9.2,0,0-2.88,12.83-27.6,8.19-17.26-3.24-24.77-16.89-27.73-24.82,.14-.66,.28-1.32,.43-1.97,5.49,5.47,20.78,19.25,35.46,19.25,18.06,0,11.24-17.2,11.05-17.68,8.78,12.29,27.1,17.68,40.65,17.68s8.78-19.69,8.78-19.69c0,0,9.04,12.29,17.57,12.29s18.32-8.29,18.32-8.29Z" class="colorffb680 svgShape"></path><path fill="#e6e6e6" d="M1573.44 1603.48c-.85 1.45-1.75 2.87-2.75 4.24-8.48 11.69-23.4 20.62-57.53 21.79-18.54.63-27.32-4.37-31.22-10.26 66.81 14.11 76.84-36.7 76.84-36.7l-118.84-11.44c.09 0 .18 0 .27 0h129.32c.37 0 .73-.04 1.08-.11l1.3 14.85.08.89 1.44 16.48.03.25zM1386.42 1606.36c-.3.46-.62.91-.95 1.37-8.48 11.69-23.4 20.62-57.53 21.79-18.54.63-27.32-4.37-31.22-10.26 66.18 20.63 78.84-36.2 78.84-36.2l-121.3-11.89h129.32c.37 0 .73-.03 1.08-.1l.76 15.14v.07l.99 19.86v.21z" class="colore6e6e6 svgShape"></path><path fill="#ffffff" d="M1051.27,740.23c-12.29,16.94-40.06,17.76-62,1.83-2.26-1.64-4.36-3.39-6.31-5.23l29.29-22.55s9.96-12.68,24.86-31c19.4,16.11,25.82,40.88,14.16,56.95Z" opacity=".1" class="colorffffff svgShape"></path><path fill="#5e80ff" d="M1368.19,428.43c-2.59,4.11-3.87,8.7-2.18,13.35,.53,1.51,1.31,3.03,2.2,4.56,.77,1.29-.93,2.72-2.06,1.76-7.5-6.04-7.4-15.39,0-21.45,1.17-1,2.87,.51,2.05,1.79h0Z" class="colorffa25e svgShape"></path><path fill="#5e80ff" d="M1362.58,435.7c3.25-.36,6.54,.77,8.83,3.07,.91,1.07,3.17,3.07,1.47,4.31-.64,.41-1.48,.19-1.88-.43-1.67-2.58-4.83-4.14-7.87-3.61-2.28,.4-2.84-2.98-.55-3.34h0Z" class="colorffa25e svgShape"></path></g></g></svg>