<svg xmlns="http://www.w3.org/2000/svg" xmlns:xlink="http://www.w3.org/1999/xlink" enable-background="new 0 0 2083.63 1959.833" viewBox="0 0 2083.63 1959.833" id="Peopleeagerlyexploresthevastlandscapeusingbinoculars"><g fill="#000000" class="color000000 svgShape"><g fill="#000000" class="color000000 svgShape"><defs><path id="a" d="M866.946,656.42c0,0-470.369-34.933-538.731,183.568s-72.614,756.508,213.735,860.208
				c286.348,103.7,914.693,116.074,1081.577-7.547c38.378-28.429,99.489-70.548,122.429-123.587
				c76.814-177.595,44.214-458.723,20.324-596.753C1735.255,793.054,1359.652,546.733,866.946,656.42z" fill="#000000" class="color000000 svgShape"></path></defs><clipPath id="b"><use overflow="visible" xlink:href="#a"></use></clipPath><g clip-path="url(#b)" fill="#000000" class="color000000 svgShape"><g fill="#000000" class="color000000 svgShape"><g fill="#000000" class="color000000 svgShape"><path fill="#8097af" d="M988.948,1514.458c-44.563-22.91-97.434,54.687-131.419,109.13
						c2.733-77.256,2.289-261.191-90.755-258.518c-78.014,2.241-90.238,138.738-94,227.704c-4.411-14.318-9.29-29.122-14.087-43.724
						c-18.636-56.72-48.453-143.672-108.088-127.475c-59.635,16.197-64.604,65.379-45.968,162.575
						c18.636,97.197,34.787,184.078,34.787,184.078s339.172,9.559,375.201-3.303
						C950.648,1752.063,1047.554,1544.588,988.948,1514.458z" class="color8baf80 svgShape"></path></g></g><g fill="#000000" class="color000000 svgShape"><g fill="#000000" class="color000000 svgShape"><g fill="#000000" class="color000000 svgShape"><path fill="#4a5270" d="M782.755,1366.596c-1.989-0.459-4.029-0.818-6.121-1.075
							c-3.163,17.23-7.34,38.15-11.452,58.742c-6.608,33.091-13.441,67.309-17.073,90.675
							c-6.652,42.803-16.642,183.903-20.958,256.568c2.072,0.014,4.143,0.027,6.214,0.039
							c4.308-72.528,14.261-213.107,20.89-255.756c3.614-23.249,10.435-57.407,17.032-90.441
							C775.629,1403.599,779.696,1383.231,782.755,1366.596z" class="color4a7057 svgShape"></path></g></g><g fill="#000000" class="color000000 svgShape"><g fill="#000000" class="color000000 svgShape"><path fill="#4a5270" d="M636.323,1694.81c-18.245-58.167-37.11-118.315-50.152-149.506
							c-13.873-33.178-35.073-81.892-51.007-118.255c-1.915,0.87-3.745,1.798-5.507,2.772
							c15.898,36.283,36.944,84.65,50.735,117.635c12.941,30.951,32.615,93.677,49.973,149.018
							c8.414,26.825,16.582,52.864,23.623,74.187c2.165,0.034,4.343,0.068,6.538,0.101
							C653.378,1749.181,644.98,1722.411,636.323,1694.81z" class="color4a7057 svgShape"></path></g></g></g></g><g clip-path="url(#b)" fill="#000000" class="color000000 svgShape"><g fill="#000000" class="color000000 svgShape"><g fill="#000000" class="color000000 svgShape"><g fill="#000000" class="color000000 svgShape"><g fill="#000000" class="color000000 svgShape"><g fill="#000000" class="color000000 svgShape"><g fill="#000000" class="color000000 svgShape"><g fill="#000000" class="color000000 svgShape"><path fill="#6c87a3" d="M1239.393,1750.715c0,0,44.461-243.277,105.087-326.022
											c60.626-82.745,115.688-77.059,115.083-38.619c-0.605,38.44-83.167,191.337-69.752,207.071
											s142.125-278.83,258.547-255.468c116.422,23.363-175.948,274.723-142.876,297.183
											c33.073,22.46,103.244-113.368,198.773-116.622c95.529-3.254-99.146,190.67-134.515,234.477
											c-35.368,43.808-187.319,55.087-265.604,46.264C1225.852,1790.157,1239.393,1750.715,1239.393,1750.715z" class="color6ca36c svgShape"></path></g></g></g></g></g></g></g><g fill="#000000" class="color000000 svgShape"><g fill="#000000" class="color000000 svgShape"><g fill="#000000" class="color000000 svgShape"><g fill="#000000" class="color000000 svgShape"><g fill="#000000" class="color000000 svgShape"><g fill="#000000" class="color000000 svgShape"><g fill="#000000" class="color000000 svgShape"><g fill="#000000" class="color000000 svgShape"><path fill="#4a5270" d="M1455.727,1613.951c44.971-64.934,138.416-196.294,164.541-226.911
												c11.621-13.619,25.542-30.764,38.178-46.365c-2.812-1.171-5.998-2.136-9.574-2.883
												c-12.453,15.375-26.095,32.165-37.471,45.498c-26.328,30.855-120.041,162.574-165.105,227.643
												c-7.932,11.452-17.647,25.974-28.895,42.79c-21.973,32.847-49.32,73.727-73.136,105.947
												c-12.767,17.272-23.58,30.767-32.141,40.116c3.686,0.333,7.503,0.625,11.438,0.875
												c7.814-8.817,17.617-21.024,30.111-37.934c23.907-32.357,51.26-73.247,73.239-106.103
												C1438.14,1639.841,1447.836,1625.345,1455.727,1613.951z" class="color4a704a svgShape"></path></g></g></g></g></g></g></g><g fill="#000000" class="color000000 svgShape"><g fill="#000000" class="color000000 svgShape"><g fill="#000000" class="color000000 svgShape"><g fill="#000000" class="color000000 svgShape"><g fill="#000000" class="color000000 svgShape"><g fill="#000000" class="color000000 svgShape"><g fill="#000000" class="color000000 svgShape"><path fill="#4a5270" d="M1292.066,1780.982c1.657-19.493,5.941-45.667,12.387-75.692
												c13.668-63.666,34.242-132.913,55.036-185.234c28.84-72.566,60.062-130.018,77.993-160.749
												c-3.492-0.399-7.331-0.27-11.473,0.445c-18.319,31.65-48.706,88.161-76.809,158.874
												c-20.929,52.661-41.628,122.315-55.37,186.326c-6.502,30.284-10.825,56.731-12.505,76.482
												c-0.432,5.085-0.672,9.512-0.758,13.375c3.315,0.847,6.883,1.622,10.729,2.312
												C1291.293,1792.808,1291.511,1787.504,1292.066,1780.982z" class="color4a704a svgShape"></path></g></g></g></g></g></g></g><g fill="#000000" class="color000000 svgShape"><g fill="#000000" class="color000000 svgShape"><g fill="#000000" class="color000000 svgShape"><g fill="#000000" class="color000000 svgShape"><g fill="#000000" class="color000000 svgShape"><g fill="#000000" class="color000000 svgShape"><g fill="#000000" class="color000000 svgShape"><path fill="#4a5270" d="M1453.614,1795.503c4.619-0.641,9.196-1.334,13.712-2.08
												c49.407-59.296,135.569-156.948,171.492-188.414c29.478-25.821,61.23-56.226,77.534-72.052
												c3.188-3.095,6.342-6.172,9.407-9.177c-2.039-1.941-4.791-3.41-8.328-4.353c-23.439,22.978-56.926,54.928-86.428,80.77
												C1592.316,1634.085,1502.306,1736.516,1453.614,1795.503z" class="color4a704a svgShape"></path></g></g></g></g></g></g></g></g></g><g clip-path="url(#b)" fill="#000000" class="color000000 svgShape"><g fill="#000000" class="color000000 svgShape"><path fill="#7abcff" d="M1435.673,2288.811c1.723-1.149-9.766-10.915,3.447-17.234
					c4.622-2.21,10.721-4.068,17.065-5.526c-1.393-3.768-2.13-6.487-2.196-6.538c7.078-34.877,40.545-235.744,44.078-336.169
					c-28.132,2.421-65.891,5.202-106.209,6.847c0,0,1.157,257.135,6.727,349.385c6.235,2.198,15.371,5.716,21.003,9.236
					C1428.779,2294.556,1433.95,2289.96,1435.673,2288.811z" class="colorff867a svgShape"></path></g><g fill="#000000" class="color000000 svgShape"><path fill="#021b79" d="M1471.865,2288.237c-7.697-3.37-12.95-14.801-15.68-22.186
					c-6.345,1.458-12.443,3.316-17.065,5.526c-13.213,6.319-1.723,16.085-3.447,17.234c-1.724,1.149-6.894,5.745-16.085,0
					c-5.632-3.52-14.767-7.037-21.003-9.236c1.193,19.762,2.588,31.967,4.218,32.446c19.682,5.78,111.546,12.498,113.287,2.85
					C1517.135,2309.081,1491.966,2297.038,1471.865,2288.237z" class="color393351 svgShape"></path></g><g fill="#000000" class="color000000 svgShape"><path fill="#5d647f" d="M1500.648,880.009c0,0,17.426,4.668,24.862,15.502
					c7.436,10.835,19.282,51.558,19.313,88.148c0.031,36.59,3.734,36.853-6.07,47.761c-18.486,20.568-77.881,10.897-121.451,1.009
					c-43.57-9.888-23.795-19.342-21.655-33.177c2.14-13.835,23.155-89.458,30.434-108.186
					C1433.359,872.338,1472.089,866.852,1500.648,880.009z" class="color7f635d svgShape"></path></g><g fill="#000000" class="color000000 svgShape"><path fill="#7abcff" d="M1154.897,1921.693c-46.248-4.251-95.3-17.456-123.081-20.653
					c-60.894,87.282-119.221,296.199-127.534,326.685c-1.27,3.647-33.723,52.039-26.043,58.214
					c10.445,8.398,48.186,25.884,77.486,38.769c21.548,9.476,44.758,2.395,47.3-1.571c-12.32-18.483-18.608-3.848-35.867-21.77
					c-3.695-13.554-10.615-21.927-11.553-34.354C955.543,2266.175,1118.576,1994.415,1154.897,1921.693z" class="colorff867a svgShape"></path></g><g fill="#000000" class="color000000 svgShape"><path fill="#436aff" d="M1474.423,1020.512c0,0,240.605,63.232,254.392,90.232
					c13.787,27,30.903,93.141-13.22,118.879c-41.362,24.128-168.629-31.167-211.304-63.912
					C1461.615,1132.966,1474.423,1020.512,1474.423,1020.512z" class="colorffae43 svgShape"></path></g><g fill="#000000" class="color000000 svgShape"><g fill="#000000" class="color000000 svgShape"><path fill="#586aaf" d="M1527.368,1699.898c-8.845-90.12-88.816-338.511-87.087-345.759
						c-26.851-34.135-158.456-20.343-266.159-57.381c-1.185,3.719-32.673,34.807-52.065,85.027
						c-17.939,46.457-32.91,262.619-51.128,368.933c-7.168,41.829-25.775,103.302-52.659,158.813
						c29.986,24.106,129.201,48.402,175.449,52.653c19.787-39.617,56.474-135.393,64.853-161.932
						c25.196-79.803,27.074-271.285,27.074-271.285l65.635,212.104l5.053,228.318c58.725,17.578,153.251,1.42,181.383-1.001
						C1552.245,1887.703,1531.568,1742.692,1527.368,1699.898z" class="coloraf7b58 svgShape"></path></g></g><g fill="#000000" class="color000000 svgShape"><path fill="#4d5a8c" d="M1368.745,1386.749c-28.298,0-60.489-1.49-87.18-6.652
					c-63.012-12.184-115.232-45.899-115.752-46.238c-0.862-0.562-1.105-1.716-0.543-2.579c0.562-0.862,1.716-1.105,2.579-0.543
					c0.514,0.335,52.15,33.659,114.423,45.7c62.392,12.063,155.378,3.887,156.31,3.803c1.025-0.088,1.931,0.664,2.024,1.689
					c0.092,1.025-0.664,1.931-1.689,2.024C1438.377,1384.002,1407.148,1386.749,1368.745,1386.749z" class="color8c674d svgShape"></path></g><g fill="#000000" class="color000000 svgShape"><path fill="#d4e9ff" d="M1162.996,1311.087c0,0-36.953,23.34-32.357,30.898
					c4.596,7.558,104.555,35.133,126.959,39.729c22.405,4.596,47.852,12.063,56.873,6.894c9.021-5.169,25.602-16.085,28.599-13.213
					c2.997,2.872,6.444,19.507,15.635,21.243c9.192,1.736,99.959,6.332,101.108-4.009c1.149-10.341-9.766-33.069-10.915-37.503
					C1447.749,1350.692,1182.151,1297.481,1162.996,1311.087z" class="colorffe9d4 svgShape"></path></g><g fill="#000000" class="color000000 svgShape"><g fill="#000000" class="color000000 svgShape"><path fill="#436aff" d="M1335.636,1004.4c13.589-5.986,55.961-11.733,92.831-1.973
						c44.895,11.884,73.555,28.885,87.033,74.049c4.224,14.154,10.858,67.578,5.853,87.983
						c-6.882,28.053-16.392,64.149-30.089,93.169c-26.833,56.848-22.374,107.046-64.027,111.684
						c-139.588,9.417-155.101-9.808-264.241-58.224C1190.214,1201.588,1237.88,1047.463,1335.636,1004.4z" class="colorffae43 svgShape"></path></g></g><g fill="#000000" class="color000000 svgShape"><path fill="#d4e9ff" d="M1429.94,1002.56c0,0-4.021,0.287-9.479,6.607
					c-5.458,6.319-8.617,32.896-1.723,34.401c6.894,1.504,30.734-13.719,30.734-13.719s19.532,30.389,25.851,25.391
					c6.319-4.997-1.149-33.147-6.319-36.593C1463.834,1015.198,1439.419,1000.836,1429.94,1002.56z" class="colorffe9d4 svgShape"></path></g><g fill="#000000" class="color000000 svgShape"><g fill="#000000" class="color000000 svgShape"><g fill="#000000" class="color000000 svgShape"><path fill="#4d5a8c" d="M1285.645,1532.697c1.318,0,2.596-0.699,3.273-1.938
							c19.271-35.17,46.897-55.768,47.174-55.972c1.658-1.222,2.012-3.556,0.79-5.215c-1.222-1.658-3.553-2.013-5.215-0.79
							c-1.184,0.873-29.235,21.793-49.289,58.394c-0.989,1.806-0.328,4.073,1.479,5.062
							C1284.424,1532.55,1285.039,1532.697,1285.645,1532.697z" class="color8c674d svgShape"></path></g></g></g><g fill="#000000" class="color000000 svgShape"><g fill="#000000" class="color000000 svgShape"><g fill="#000000" class="color000000 svgShape"><path fill="#4d5a8c" d="M1306.658,1502.135c0.031,0,0.063,0,0.093-0.001l40.894-1.012
							c2.06-0.051,3.687-1.761,3.636-3.82c-0.049-2.058-1.76-3.728-3.82-3.636l-40.894,1.013c-2.06,0.051-3.687,1.761-3.636,3.82
							C1302.982,1500.525,1304.641,1502.135,1306.658,1502.135z" class="color8c674d svgShape"></path></g></g></g><g fill="#000000" class="color000000 svgShape"><g fill="#000000" class="color000000 svgShape"><path fill="#4d5a8c" d="M1096.851,1805.999c-2.536,0-4.858-1.693-5.545-4.26l-21.271-79.392
						c-0.821-3.065,0.998-6.215,4.062-7.036c3.064-0.823,6.215,0.998,7.036,4.062l21.271,79.392
						c0.821,3.065-0.997,6.215-4.062,7.036C1097.843,1805.935,1097.343,1805.999,1096.851,1805.999z" class="color8c674d svgShape"></path></g></g><g fill="#000000" class="color000000 svgShape"><g fill="#000000" class="color000000 svgShape"><path fill="#4d5a8c" d="M1400.995,1821.128c-2.438,0.701-5.136-0.285-6.507-2.562l-42.382-70.422
						c-1.636-2.719-0.759-6.248,1.96-7.884c2.717-1.638,6.249-0.758,7.884,1.96l42.382,70.422c1.636,2.719,0.759,6.249-1.96,7.884
						C1401.931,1820.792,1401.468,1820.992,1400.995,1821.128z" class="color8c674d svgShape"></path></g></g><g fill="#000000" class="color000000 svgShape"><path fill="#436aff" d="M1368.45,997.853c0,0-250.898-14.517-330.171,94.053
					c-79.274,108.571-11.17,306.293,36.049,316.234c72.767,15.319,87.418-55.405,80.57-93.68
					c-6.849-38.275-9.908-140.132,5.602-152.196c15.51-12.063,109.448-34.47,156.258-68.937
					C1363.566,1058.86,1368.45,997.853,1368.45,997.853z" class="colorffae43 svgShape"></path></g><g fill="#000000" class="color000000 svgShape"><g fill="#000000" class="color000000 svgShape"><g fill="#000000" class="color000000 svgShape"><g fill="#000000" class="color000000 svgShape"><g fill="#000000" class="color000000 svgShape"><path fill="#7abcff" d="M1464.77,939.062l-36.303,63.366c-9.454,13.633,38.648,30.062,39.036,24.835
									l6.573-19.744l15.922-49.869L1464.77,939.062z" class="colorff867a svgShape"></path></g></g></g></g></g><g fill="#000000" class="color000000 svgShape"><g fill="#000000" class="color000000 svgShape"><g fill="#000000" class="color000000 svgShape"><g fill="#000000" class="color000000 svgShape"><g fill="#000000" class="color000000 svgShape"><path fill="#7abcff" d="M1469.074,908.056l-9.406,27.295c-7.457,21.64,2.886,40.418,24.493,48.164
									c21.728,7.79,46.157,2.064,49.645-20.94c3.525-23.251-6.111-45.128-10.208-56.524
									C1514.26,880.068,1482.202,877.445,1469.074,908.056z" class="colorff867a svgShape"></path></g></g></g></g></g><g fill="#000000" class="color000000 svgShape"><g fill="#000000" class="color000000 svgShape"><g fill="#000000" class="color000000 svgShape"><g fill="#000000" class="color000000 svgShape"><g fill="#000000" class="color000000 svgShape"><path fill="#677bc6" d="M1515.677,936.018c1.349-0.237,2.193-1.159,2.094-2.542
									c-0.217-3.022,4.527-3.089,4.744-0.078c0.234,3.276-2.23,6.557-5.527,7.135c-1.26,0.222-2.555-0.281-2.936-1.595
									C1513.729,937.824,1514.407,936.24,1515.677,936.018z" class="colorc66c67 svgShape"></path></g></g></g></g></g><g fill="#000000" class="color000000 svgShape"><g fill="#000000" class="color000000 svgShape"><g fill="#000000" class="color000000 svgShape"><g fill="#000000" class="color000000 svgShape"><g fill="#000000" class="color000000 svgShape"><path fill="#5d647f" d="M1485.063,919.166c-0.111-0.058-0.217-0.128-0.318-0.21
									c-0.785-0.644-0.901-1.801-0.258-2.587c0.254-0.311,6.301-7.596,12.557-6.095c0.986,0.235,1.597,1.23,1.36,2.219
									c-0.237,0.988-1.23,1.597-2.219,1.36c-3.331-0.799-7.518,3.23-8.851,4.849
									C1486.771,919.385,1485.818,919.56,1485.063,919.166z" class="color7f635d svgShape"></path></g></g></g></g></g><g fill="#000000" class="color000000 svgShape"><g fill="#000000" class="color000000 svgShape"><g fill="#000000" class="color000000 svgShape"><g fill="#000000" class="color000000 svgShape"><g fill="#000000" class="color000000 svgShape"><path fill="#5d647f" d="M1516.491,912.066c-0.435-0.226-0.779-0.625-0.922-1.134
									c-0.275-0.979,0.296-1.995,1.274-2.27c5.158-1.449,8.879,2.187,10.126,4.312c0.514,0.877,0.221,2.004-0.656,2.518
									c-0.874,0.513-1.998,0.222-2.514-0.648c-0.104-0.17-2.279-3.674-5.96-2.639
									C1517.369,912.337,1516.891,912.275,1516.491,912.066z" class="color7f635d svgShape"></path></g></g></g></g></g><g fill="#000000" class="color000000 svgShape"><g fill="#000000" class="color000000 svgShape"><g fill="#000000" class="color000000 svgShape"><g fill="#000000" class="color000000 svgShape"><path fill="#021b79" d="M1525.656,922.354c-0.166,2.176-1.648,3.837-3.31,3.71
								c-1.662-0.127-2.874-1.994-2.708-4.17c0.166-2.176,1.648-3.838,3.31-3.711S1525.823,920.177,1525.656,922.354z" class="color393351 svgShape"></path></g></g></g><g fill="#000000" class="color000000 svgShape"><g fill="#000000" class="color000000 svgShape"><g fill="#000000" class="color000000 svgShape"><path fill="#021b79" d="M1497.007,924.743c0.025,2.182-1.305,3.967-2.972,3.987
								c-1.667,0.02-3.038-1.734-3.064-3.916c-0.025-2.182,1.305-3.967,2.971-3.987
								C1495.61,920.807,1496.982,922.56,1497.007,924.743z" class="color393351 svgShape"></path></g></g></g></g><g fill="#000000" class="color000000 svgShape"><path fill="#5d647f" d="M1509.311,886.903c0,0-15,16.187-32.322,32.318
					c-17.322,16.131-16.895,28.196-20.551,27.14c-3.656-1.056-8.253-16.403-8.934-22.85c-0.681-6.446,14.014-40.021,26.633-47.003
					C1486.756,869.526,1506.631,877.09,1509.311,886.903z" class="color7f635d svgShape"></path></g><g fill="#000000" class="color000000 svgShape"><g fill="#000000" class="color000000 svgShape"><g fill="#000000" class="color000000 svgShape"><g fill="#000000" class="color000000 svgShape"><g fill="#000000" class="color000000 svgShape"><path fill="#7abcff" d="M1464.264,942.076c-1.102-2.577-1.796-5.285-2.326-8.034
									c-1.007-5.224-3.728-12.756-10.821-7.456c-10.318,7.708-3.411,35.249,10.039,34.892
									C1471.145,961.212,1467.039,948.568,1464.264,942.076z" class="colorff867a svgShape"></path></g></g></g></g></g><g fill="#000000" class="color000000 svgShape"><path fill="#677bc6" d="M1525.895,978.465c-4.445,0.625-13.003,1.944-22.626,2.074
					c-14.17,0.192-36.796-8.231-36.796-8.231s-3.578,21.596,8.824,31.384l6.706-21.004c0.707,0.288,1.424,0.566,2.157,0.829
					C1499.504,989.016,1516.183,987.766,1525.895,978.465z" class="colorc66c67 svgShape"></path></g><g fill="#000000" class="color000000 svgShape"><path fill="#7992f2" d="M1586.223,905.819c0,0-71.617-17.308-70.715-6.26
					c0.903,11.048,60.628,39.337,71.543,33.131C1597.967,926.484,1595.941,908.562,1586.223,905.819z" class="colorf27c79 svgShape"></path></g><g fill="#000000" class="color000000 svgShape"><path fill="#436aff" d="M1581.016,912.038c0,0-25.921,30.676-18.453,43.057
					c7.468,12.381,25.347,203.722,89.379,252.258c29.058,22.025,90.328,14.128,92.004-21.343
					c5.966-126.29-72.737-229.923-94.568-263.885C1627.548,888.162,1597.675,899.974,1581.016,912.038z" class="colorffae43 svgShape"></path></g><g fill="#000000" class="color000000 svgShape"><g fill="#000000" class="color000000 svgShape"><path fill="#021b79" d="M967.159,2301.367c-3.419-12.54-9.588-20.651-11.236-31.635
						c-9.738-1.125-19.694-2.419-28.278,0.663c-11.107,3.988-3.447,22.438-11.49,19.374c-8.043-3.064-10.724-25.277-14.17-32.553
						c-2.267-4.786-7.834-5.921-11.388-6.141c-8.355,14.676-16.662,31.404-12.357,34.865c10.445,8.398,48.186,25.884,77.486,38.769
						c21.548,9.476,44.758,2.395,47.3-1.571C990.706,2304.654,984.418,2319.289,967.159,2301.367z" class="color393351 svgShape"></path></g></g><g fill="#000000" class="color000000 svgShape"><g fill="#000000" class="color000000 svgShape"><path fill="#677bc6" d="M1501.545,953.73c-0.815,0-1.538-0.579-1.693-1.409
						c-0.174-0.936,0.443-1.836,1.379-2.01c2.043-0.38,20.143-3.661,26.458-1.879c0.916,0.259,1.449,1.211,1.191,2.127
						c-0.259,0.917-1.211,1.447-2.127,1.191c-4.698-1.327-19.561,0.959-24.892,1.95
						C1501.755,953.72,1501.649,953.73,1501.545,953.73z" class="colorc66c67 svgShape"></path></g></g><g fill="#000000" class="color000000 svgShape"><path fill="#7abcff" d="M1131.1,1354.976c0,0,24.063-12.031,30.873-12.939
					c6.81-0.908,46.144,10.454,45.628,12.939c-1.361,6.563-30.192,0-30.192,0s26.752,9.791,26.587,13.715
					c-0.165,3.924-2.298,4.673-2.298,4.673s1.589,3.293-1.589,6.356c-1.995,1.923-25.644-0.454-25.644-0.454
					s9.981,2.27,15.429,5.675c5.448,3.405-13.393,1.135-21.793,1.362c-8.399,0.227-23.382,9.337-39.272,10.23
					c-15.89,0.893-24.744-4.101-25.198-8.868C1103.178,1382.898,1120.199,1360.197,1131.1,1354.976z" class="colorff867a svgShape"></path></g><g fill="#000000" class="color000000 svgShape"><path fill="#284cd4" d="M1519.623,1175.79c-0.506,0-1.02-0.089-1.521-0.276
					c-2.249-0.841-3.392-3.345-2.552-5.594c0.485-1.298,12.021-31.896,24.663-41.375c1.921-1.441,4.647-1.05,6.088,0.87
					c1.441,1.921,1.051,4.647-0.87,6.088c-8.806,6.603-18.674,29.28-21.733,37.461
					C1523.043,1174.711,1521.385,1175.79,1519.623,1175.79z" class="colord47328 svgShape"></path></g><g fill="#000000" class="color000000 svgShape"><path fill="#284cd4" d="M1623.531,1193.422c-1.372,0-2.723-0.648-3.569-1.859
					c-33.99-48.667-40.886-132.443-41.163-135.985c-0.188-2.394,1.601-4.487,3.995-4.674c2.401-0.186,4.487,1.601,4.675,3.995
					c0.066,0.844,7,84.974,39.623,131.685c1.375,1.969,0.894,4.679-1.076,6.055
					C1625.259,1193.167,1624.39,1193.422,1623.531,1193.422z" class="colord47328 svgShape"></path></g><g fill="#000000" class="color000000 svgShape"><path fill="#284cd4" d="M1214.401,1145.044c-1.878,0-3.61-1.226-4.169-3.119
					c-0.679-2.304,0.637-4.722,2.94-5.401c0.726-0.214,72.909-21.687,96.747-43.636c24.102-22.193,31.999-32.895,32.076-33.001
					c1.412-1.938,4.129-2.368,6.072-0.958c1.941,1.41,2.375,4.122,0.968,6.065c-0.328,0.453-8.322,11.362-33.225,34.292
					c-25.322,23.316-97.132,44.682-100.177,45.579C1215.222,1144.987,1214.808,1145.044,1214.401,1145.044z" class="colord47328 svgShape"></path></g><g fill="#000000" class="color000000 svgShape"><path fill="#284cd4" d="M1107.267,1190.359c-1.664,0-3.252-0.96-3.974-2.578
					c-0.979-2.193,0.007-4.765,2.2-5.742l53.235-23.745c2.194-0.978,4.765,0.006,5.742,2.2c0.979,2.193-0.007,4.765-2.2,5.742
					l-53.234,23.745C1108.46,1190.237,1107.859,1190.359,1107.267,1190.359z" class="colord47328 svgShape"></path></g><g fill="#000000" class="color000000 svgShape"><path fill="#284cd4" d="M1156.412,1336.647c-0.073,0-0.146-0.002-0.219-0.005
					c-2.399-0.119-4.246-2.16-4.127-4.558c0.544-10.969-4.837-44.702-4.891-45.041c-0.38-2.371,1.234-4.602,3.605-4.982
					c2.378-0.377,4.603,1.235,4.982,3.605c0.228,1.423,5.579,34.981,4.99,46.849
					C1160.636,1334.839,1158.714,1336.647,1156.412,1336.647z" class="colord47328 svgShape"></path></g><g fill="#000000" class="color000000 svgShape"><g fill="#000000" class="color000000 svgShape"><path fill="#7793af" d="M1728.059,1072.536c-15.474,5.507-48.186,46.432-48.675,47.438
						c-0.593,1.22,3.805-29.765,7.759-44.511c3.954-14.746,0.193-24.221-14.665-4.761c-14.858,19.46-19.738,80.348-19.738,80.348
						c0.734,26.146,22.251,14.022,33.561,1.44c8.762-9.748,37.53-41.682,46.732-62.92
						C1731.494,1083.792,1729.83,1078.113,1728.059,1072.536z" class="color77af98 svgShape"></path></g><g fill="#000000" class="color000000 svgShape"><path fill="#7793af" d="M1653.833,928.891c-1.663-2.491-3.162-4.755-4.455-6.767
						c-9.999-15.556-21.685-21.505-33.016-22.228c-3.743,19.66-5.2,37.828-5.2,37.828c0.734,26.146,22.251,14.022,33.561,1.44
						C1646.805,936.847,1650.021,933.274,1653.833,928.891z" class="color77af98 svgShape"></path></g></g><g fill="#000000" class="color000000 svgShape"><g fill="#000000" class="color000000 svgShape"><path fill="#7793af" d="M1256.883,1352.929c13.353-22.194,34.796-61.019,26.963-72.557
						c-9.734-14.337-46.743,53.002-47.118,54.305c-0.375,1.303-1.363-29.976,0-45.182c1.363-15.205-3.97-23.894-15.265-2.172
						c-5.418,10.419-6.937,29.833-7.052,47.217C1230.016,1341.713,1243.685,1347.842,1256.883,1352.929z" class="color77af98 svgShape"></path></g><g fill="#000000" class="color000000 svgShape"><path fill="#7793af" d="M1441.794,1274.156c-0.897,1.017,11.604-27.673,19.346-40.831
						c7.743-13.158,6.644-23.293-12.865-8.499c-19.509,14.794-40.447,72.176-40.447,72.176
						c-6.264,25.396,17.707,19.447,31.962,10.336c7.612-4.865,27.195-17.354,43.39-30.546c2.364-6.264,5.018-12.671,8.084-19.166
						c2.375-5.031,4.616-10.285,6.747-15.663C1479.852,1246.305,1442.487,1273.37,1441.794,1274.156z" class="color77af98 svgShape"></path></g><g fill="#000000" class="color000000 svgShape"><path fill="#7793af" d="M1418.816,1112.768c-2.658-17.124-64.936,27.883-65.833,28.9
						c-0.897,1.017,11.603-27.673,19.346-40.831c7.743-13.157,6.644-23.293-12.865-8.499
						c-19.509,14.794-40.447,72.176-40.447,72.176c-6.264,25.396,17.707,19.447,31.962,10.336
						C1365.233,1165.741,1421.474,1129.891,1418.816,1112.768z" class="color77af98 svgShape"></path></g></g><g fill="#000000" class="color000000 svgShape"><g fill="#000000" class="color000000 svgShape"><path fill="#7793af" d="M1215.085,1006.891c-15.723,13.895-34.115,36.977-34.48,37.729
						c-0.453,0.933,2.011-16.958,4.964-32.025c-7.285,1.619-14.557,3.401-21.766,5.367c-7.227,25.118-9.843,57.735-9.843,57.735
						c0.734,26.146,22.252,14.022,33.561,1.44c10.403-11.572,49.006-54.417,49.584-73.507
						C1229.856,1004.578,1222.499,1005.659,1215.085,1006.891z" class="color77af98 svgShape"></path></g><g fill="#000000" class="color000000 svgShape"><path fill="#7793af" d="M1100.66,1258.184c-7.128-15.795-55.151,44.188-55.744,45.407
						c-0.593,1.22,3.805-29.765,7.759-44.511c3.954-14.746,0.193-24.221-14.665-4.761c-11.392,14.921-16.919,54.196-18.877,71.707
						c2.787,8.513,5.821,16.596,9.038,24.13c7.353,0.206,17.181-6.839,23.661-14.049
						C1063.141,1323.526,1107.788,1273.979,1100.66,1258.184z" class="color77af98 svgShape"></path></g></g></g><g clip-path="url(#b)" fill="#000000" class="color000000 svgShape"><g fill="#000000" class="color000000 svgShape"><path fill="#485fb7" d="M625.433,888.967c-15.184-0.436-80.176,91.407-134.292,173.931
					c-15.119,109.273,61.766,152.167,114.512,140.678c49.035-69.432,91.668-181.716,96.138-194.777
					C721.926,949.971,652.443,889.742,625.433,888.967z" class="colorb74848 svgShape"></path></g><g fill="#000000" class="color000000 svgShape"><path fill="#7992f2" d="M491.142,1062.899c-42.375,64.619-78.081,123.526-77.981,127.94
					c1.073,47.293,44.799,120.306,126.927,61.553c18.24-13.048,39.52-38.529,60.546-68.301c-4.72-10.592-11.407-23.66-20.917-39.406
					C556.502,1106.246,512.511,1076.041,491.142,1062.899z" class="colorf27c79 svgShape"></path></g><g fill="#000000" class="color000000 svgShape"><path fill="#7992f2" d="M444.859,900.264c0,0-5.045-66.496,11.428-75.483
					c16.473-8.987,34.708-5.207,46.609-0.181c11.901,5.027,3.782,55.996,3.289,67.495
					C505.692,903.594,458.772,911.761,444.859,900.264z" class="colorf27c79 svgShape"></path></g><g fill="#000000" class="color000000 svgShape"><g fill="#000000" class="color000000 svgShape"><g fill="#000000" class="color000000 svgShape"><g fill="#000000" class="color000000 svgShape"><g fill="#000000" class="color000000 svgShape"><g fill="#000000" class="color000000 svgShape"><g fill="#000000" class="color000000 svgShape"><path fill="#7992f2" d="M444.282,888.288c0,0,50.381-8.99,59.664-5.276
											c2.905,1.162,15.701,36.42,29.063,111.149c2.924,16.354,20.182,132.698,17.686,197.346
											c-1.467,37.992-42.886,71.898-78.809,74.793c-17.535,1.413-51.88-35.969-57.828-64.673
											C395.628,1112.686,444.282,888.288,444.282,888.288z" class="colorf27c79 svgShape"></path></g></g></g></g></g></g></g><g fill="#000000" class="color000000 svgShape"><g fill="#000000" class="color000000 svgShape"><g fill="#000000" class="color000000 svgShape"><path fill="#677bc6" d="M534.353,1239.291c-0.074-0.02-0.148-0.042-0.222-0.069
							c-1.577-0.551-2.409-2.278-1.857-3.856c18.673-53.383,12.387-146.168,12.322-147.099c-0.118-1.667,1.139-3.114,2.806-3.232
							c1.668-0.119,3.114,1.138,3.232,2.806c0.272,3.852,6.443,94.954-12.647,149.525
							C537.461,1238.869,535.867,1239.695,534.353,1239.291z" class="colorc66c67 svgShape"></path></g></g></g><g fill="#000000" class="color000000 svgShape"><g fill="#000000" class="color000000 svgShape"><g fill="#000000" class="color000000 svgShape"><g fill="#000000" class="color000000 svgShape"><g fill="#000000" class="color000000 svgShape"><g fill="#000000" class="color000000 svgShape"><g fill="#000000" class="color000000 svgShape"><path fill="#021b79" d="M635.35,2328.435c13.163-5.543,15.794-16.817,22.151-27.508
											c0.429-0.721,3.901-16.078,4.028-17.303c0.544-5.298,17.131-19.368,23.265-8.335c12.09,21.749,30.583-12.236,28.945-3.159
											c-4.876,27.019,3.578,70.586-6.754,73.542c-22.01,6.296-122.739,13.614-123.683,3.104
											C582.734,2342.468,612.586,2338.022,635.35,2328.435z" class="color393351 svgShape"></path></g></g></g></g></g></g></g><g fill="#000000" class="color000000 svgShape"><g fill="#000000" class="color000000 svgShape"><g fill="#000000" class="color000000 svgShape"><g fill="#000000" class="color000000 svgShape"><g fill="#000000" class="color000000 svgShape"><g fill="#000000" class="color000000 svgShape"><g fill="#000000" class="color000000 svgShape"><path fill="#021b79" d="M1095.449,2328.435c-12.661-5.543-14.271-16.817-19.659-27.508
											c-0.363-0.721-2.445-16.078-2.46-17.303c-0.065-5.298-15.377-19.368-22.51-8.335
											c-14.06,21.749-29.475-12.236-28.659-3.159c2.428,27.019-9.971,70.586,0.092,73.542
											c21.439,6.296,121.506,13.614,123.402,3.104C1146.795,2342.468,1117.345,2338.022,1095.449,2328.435z" class="color393351 svgShape"></path></g></g></g></g></g></g></g><g fill="#000000" class="color000000 svgShape"><g fill="#000000" class="color000000 svgShape"><g fill="#000000" class="color000000 svgShape"><g fill="#000000" class="color000000 svgShape"><g fill="#000000" class="color000000 svgShape"><g fill="#000000" class="color000000 svgShape"><g fill="#000000" class="color000000 svgShape"><g fill="#000000" class="color000000 svgShape"><path fill="#84a9ce" d="M956.713,1312.146c-22.107-48.827-190.197-112.174-234.537-122.608
												c-3.244,49.167-38.263,83.986-65.096,137.021c-19.625,38.787-36.941,257.023-44.809,489.404
												c-0.822,24.274,16.376,67.225,15.298,92.053c-6.904,158.987-5.087,382.03-5.087,382.03s0.725,10.204,43.49,10.204
												c41.104,0,81.875-10.869,81.875-10.869s23.074-279.912,31.022-402.853c0.755-11.684-5.63-63.235-5.607-70.565
												c0.25-78.946,36.004-387.624,36.004-387.624l193.506,870.684c0,0,22.071,13.29,55.177,4.267
												c25.266-6.886,61.248-10.36,63.308-27.492c2.133-17.73-4.547-77.942-16.321-160.27
												c-3.511-24.551-10.381-25.697-14.7-53.64c-1.093-7.073,0.697-39.61-0.441-46.858
												c-12.984-82.757-28.722-176.29-44.833-267.557c-6.12-34.67,0.818-41.779-5.28-75.079
												C1008.754,1503.496,966.683,1334.167,956.713,1312.146z" class="color84c0ce svgShape"></path></g></g></g></g></g></g></g></g><g fill="#000000" class="color000000 svgShape"><g fill="#000000" class="color000000 svgShape"><g fill="#000000" class="color000000 svgShape"><g fill="#000000" class="color000000 svgShape"><g fill="#000000" class="color000000 svgShape"><g fill="#000000" class="color000000 svgShape"><g fill="#000000" class="color000000 svgShape"><path fill="#668cb2" d="M811.655,1429.802c-1,0.002-1.962-0.548-2.39-1.464
											c-11.064-23.669-23.22-18.694-35.648-28.403c-1.084-0.847-1.276-2.413-0.43-3.497c0.848-1.084,2.415-1.275,3.497-0.43
											c13.299,10.39,25.836,6.033,37.27,30.469c0.57,1.218-0.018,2.621-1.313,3.135
											C812.321,1429.74,811.985,1429.801,811.655,1429.802z" class="color669eb2 svgShape"></path></g></g></g></g></g></g></g><g fill="#000000" class="color000000 svgShape"><path fill="#668cb2" d="M799.55,1373.461c39.805,4.887,126.484,5.131,175.977,3.344
					c-8.732-34.06-15.523-57.39-18.814-64.66c-0.594-1.311-1.313-2.634-2.111-3.964c-78.249,7.134-263.579,26.222-295.684,49.531
					C658.918,1357.713,742.102,1366.408,799.55,1373.461z" class="color669eb2 svgShape"></path></g><g fill="#000000" class="color000000 svgShape"><g fill="#000000" class="color000000 svgShape"><g fill="#000000" class="color000000 svgShape"><g fill="#000000" class="color000000 svgShape"><g fill="#000000" class="color000000 svgShape"><g fill="#000000" class="color000000 svgShape"><g fill="#000000" class="color000000 svgShape"><g fill="#000000" class="color000000 svgShape"><g fill="#000000" class="color000000 svgShape"><g fill="#000000" class="color000000 svgShape"><path fill="#6682ed" d="M947.764,889.255c-28.326-38.01-139.836-45.032-178.267-44.073
														c-21.285,0.532-127.354,17.817-158.376,51.571c-21.143,23.006-17.686,78.596-9.192,148.268
														c23.983,196.72,2.298,287.474,48.124,310.593c61.203,18.535,313.756-14.075,324.923-23.119
														c22.366-6.245,14.63-86.119,4.611-165.569C966.5,1063.125,993.915,951.183,947.764,889.255z" class="colored6966 svgShape"></path></g></g></g></g></g></g></g></g></g></g><g fill="#000000" class="color000000 svgShape"><g fill="#000000" class="color000000 svgShape"><g fill="#000000" class="color000000 svgShape"><g fill="#000000" class="color000000 svgShape"><g fill="#000000" class="color000000 svgShape"><g fill="#000000" class="color000000 svgShape"><g fill="#000000" class="color000000 svgShape"><path fill="#021b79" d="M527.903,785.893l16.132-2.937l22.584-4.112l12.299-2.239
											c4.532-0.825,8.616,2.209,9.122,6.776l0.424,3.825l5.125-0.933c0.709-0.129,1.219-0.813,1.14-1.527
											c-0.079-0.714,0.431-1.398,1.14-1.527l13.684-2.745c0.709-0.129,1.348,0.345,1.427,1.06l4.247,27.624
											c0.079,0.714-0.431,1.398-1.14,1.527l-14.85,2.922c-0.709,0.129-1.348-0.345-1.427-1.06
											c-0.079-0.714-0.718-1.189-1.427-1.06l-5.125,0.933l2.201,19.86c0.432,3.9-2.355,7.633-6.225,8.338l-52.471,11.84
											c-4.062,0.739-8.137-0.178-11.33-2.549c-1.276-0.948-3.185-11.393-4.067-12.692l-34.373,18.19
											c-4.555,2.411-9.407,4.099-14.378,5.004l-30.643,5.579c-2.524,0.459-4.798-1.23-5.079-3.773l-6.112-55.155
											c-0.282-2.543,1.535-4.977,4.059-5.437l31.092-5.66c4.676-0.851,9.405-0.999,14.03-0.438l35.738,4.331l-0.461-2.911
											c-0.477-4.552,2.782-8.892,7.295-9.713l0.918-0.167L527.903,785.893L527.903,785.893z" class="color393351 svgShape"></path></g></g></g></g></g><g fill="#000000" class="color000000 svgShape"><g fill="#000000" class="color000000 svgShape"><g fill="#000000" class="color000000 svgShape"><g fill="#000000" class="color000000 svgShape"><g fill="#000000" class="color000000 svgShape"><g fill="#000000" class="color000000 svgShape"><g fill="#000000" class="color000000 svgShape"><ellipse cx="434.275" cy="834.451" fill="#5c91c6" rx="18.497" ry="29.1" transform="rotate(-6.332 434.31 834.852)" class="color5cbec6 svgShape"></ellipse></g></g></g></g></g></g><g fill="#000000" class="color000000 svgShape"><g fill="#000000" class="color000000 svgShape"><g fill="#000000" class="color000000 svgShape"><g fill="#000000" class="color000000 svgShape"><g fill="#000000" class="color000000 svgShape"><g fill="#000000" class="color000000 svgShape"><path fill="#0575e6" d="M452.66,832.413c1.77,15.973-5.026,29.835-15.18,30.96
													c-10.154,1.125-19.82-10.912-21.59-26.885c-1.77-15.973,5.026-29.835,15.18-30.96
													C441.224,804.403,450.89,816.44,452.66,832.413L452.66,832.413z M455.799,832.065
													c-0.921-8.314-3.879-15.944-8.328-21.484c-2.261-2.815-4.799-4.961-7.544-6.379c-2.997-1.548-6.094-2.158-9.205-1.813
													c-3.112,0.345-6,1.618-8.585,3.784c-2.368,1.984-4.375,4.634-5.964,7.876c-3.128,6.379-4.343,14.472-3.422,22.786
													c0.921,8.314,3.879,15.944,8.328,21.484c2.261,2.815,4.799,4.961,7.544,6.379c2.997,1.548,6.094,2.158,9.205,1.813
													s6-1.618,8.585-3.784c2.368-1.984,4.375-4.634,5.964-7.876C455.505,848.472,456.72,840.38,455.799,832.065
													L455.799,832.065z" class="color4c87c2 svgShape"></path></g></g></g></g></g></g></g><g fill="#000000" class="color000000 svgShape"><g fill="#000000" class="color000000 svgShape"><g fill="#000000" class="color000000 svgShape"><g fill="#000000" class="color000000 svgShape"><g fill="#000000" class="color000000 svgShape"><path fill="#ffffff" d="M433.509,809.61c1.378-0.943,3.358-0.772,4.421,0.381
											c12.435,13.487,11.703,23.77,11.665,24.201c-0.128,1.489-1.64,2.64-3.376,2.571c-0.116-0.005-0.229-0.015-0.34-0.029
											c-1.563-0.209-2.691-1.402-2.57-2.792c0.008-0.085,0.432-8.822-10.368-20.535
											C431.878,812.253,432.132,810.553,433.509,809.61z" class="colorffffff svgShape"></path></g></g></g></g></g></g><g fill="#000000" class="color000000 svgShape"><g fill="#000000" class="color000000 svgShape"><g fill="#000000" class="color000000 svgShape"><g fill="#000000" class="color000000 svgShape"><g fill="#000000" class="color000000 svgShape"><g fill="#000000" class="color000000 svgShape"><path fill="#021b79" d="M582.681,781.687l16.132-2.937l22.584-4.111l12.299-2.239
											c4.532-0.825,8.616,2.209,9.122,6.776l0.424,3.825l5.125-0.933c0.709-0.129,1.219-0.813,1.14-1.527
											c-0.079-0.714,0.431-1.398,1.14-1.527l15.405-2.396c0.709-0.129,1.348,0.346,1.427,1.06l4.246,27.624
											c0.079,0.714-0.431,1.398-1.14,1.527l-16.57,2.573c-0.709,0.129-1.348-0.345-1.427-1.06
											c-0.079-0.714-0.718-1.189-1.427-1.06l-5.125,0.933l2.201,19.86c0.432,3.9-2.355,7.633-6.225,8.338l-52.471,11.84
											c-4.062,0.739-8.137-0.177-11.33-2.549c-1.276-0.948-3.186-11.393-4.067-12.692l-34.373,18.19
											c-4.555,2.411-9.407,4.099-14.378,5.004l-30.643,5.579c-2.524,0.459-4.798-1.23-5.079-3.773l-6.112-55.155
											c-0.282-2.543,1.535-4.977,4.059-5.437l31.092-5.66c4.677-0.851,9.405-0.999,14.03-0.439l35.738,4.331l-0.461-2.911
											c-0.477-4.553,2.782-8.892,7.295-9.713l0.918-0.167L582.681,781.687L582.681,781.687z" class="color393351 svgShape"></path></g></g></g></g></g><g fill="#000000" class="color000000 svgShape"><g fill="#000000" class="color000000 svgShape"><g fill="#000000" class="color000000 svgShape"><g fill="#000000" class="color000000 svgShape"><g fill="#000000" class="color000000 svgShape"><g fill="#000000" class="color000000 svgShape"><g fill="#000000" class="color000000 svgShape"><path fill="#5c91c6" d="M485.848,801.323c-10.154,1.125-16.95,14.986-15.18,30.96
													c1.77,15.974,11.436,28.01,21.59,26.885c10.154-1.125,16.95-14.986,15.18-30.96
													C505.668,812.234,496.002,800.197,485.848,801.323z" class="color5cbec6 svgShape"></path></g></g></g></g></g></g><g fill="#000000" class="color000000 svgShape"><g fill="#000000" class="color000000 svgShape"><g fill="#000000" class="color000000 svgShape"><g fill="#000000" class="color000000 svgShape"><g fill="#000000" class="color000000 svgShape"><g fill="#000000" class="color000000 svgShape"><path fill="#0575e6" d="M507.438,828.208c1.77,15.974-5.026,29.835-15.18,30.96
													c-10.154,1.125-19.82-10.912-21.59-26.885c-1.77-15.974,5.026-29.835,15.18-30.96
													C496.002,800.197,505.668,812.234,507.438,828.208L507.438,828.208z M510.577,827.86
													c-0.921-8.314-3.879-15.944-8.327-21.484c-2.261-2.815-4.799-4.961-7.544-6.379c-2.997-1.548-6.094-2.157-9.205-1.813
													c-3.112,0.345-6,1.618-8.585,3.784c-2.368,1.984-4.375,4.634-5.964,7.876c-3.128,6.38-4.343,14.472-3.422,22.786
													c0.921,8.315,3.879,15.944,8.328,21.484c2.261,2.815,4.799,4.962,7.544,6.379c2.997,1.548,6.094,2.158,9.205,1.813
													c3.112-0.345,6-1.618,8.585-3.784c2.368-1.984,4.375-4.634,5.964-7.876C510.283,844.267,511.499,836.174,510.577,827.86
													L510.577,827.86z" class="color4c87c2 svgShape"></path></g></g></g></g></g></g></g><g fill="#000000" class="color000000 svgShape"><g fill="#000000" class="color000000 svgShape"><g fill="#000000" class="color000000 svgShape"><g fill="#000000" class="color000000 svgShape"><g fill="#000000" class="color000000 svgShape"><path fill="#ffffff" d="M488.288,805.404c1.378-0.943,3.358-0.772,4.421,0.381
											c12.435,13.487,11.703,23.77,11.665,24.201c-0.128,1.489-1.64,2.64-3.376,2.571c-0.115-0.005-0.229-0.014-0.34-0.029
											c-1.563-0.208-2.691-1.402-2.57-2.792c0.008-0.085,0.432-8.822-10.367-20.535
											C486.656,808.048,486.91,806.348,488.288,805.404z" class="colorffffff svgShape"></path></g></g></g></g></g></g></g><g fill="#000000" class="color000000 svgShape"><g fill="#000000" class="color000000 svgShape"><g fill="#000000" class="color000000 svgShape"><path fill="#021b79" d="M716.512,708.019c0,0,19.231-13.596,31.953-11.533
							c12.722,2.063,15.214,5.477,15.214,5.477s14.701-1.865,23.821,11.245c9.12,13.109,14.622,91.37-17.307,92.892
							C743.384,807.378,671.193,737.76,716.512,708.019z" class="color393351 svgShape"></path></g></g><g fill="#000000" class="color000000 svgShape"><g fill="#000000" class="color000000 svgShape"><g fill="#000000" class="color000000 svgShape"><g fill="#000000" class="color000000 svgShape"><g fill="#000000" class="color000000 svgShape"><path fill="#7abcff" d="M764.46,882.554c-2.92-1.15-8.311-6.521-12.293-10.793
										c0.055-0.892,0.127-1.741,0.217-2.521l-7.164-83.902l29.854-6.042l36.003,73.749c-5.149,4.668-21.466,19.303-29.063,24.297
										C772.926,883.317,769.458,884.522,764.46,882.554z" class="colorff867a svgShape"></path></g></g></g></g></g><g fill="#000000" class="color000000 svgShape"><g fill="#000000" class="color000000 svgShape"><g fill="#000000" class="color000000 svgShape"><g fill="#000000" class="color000000 svgShape"><g fill="#000000" class="color000000 svgShape"><g fill="#000000" class="color000000 svgShape"><path fill="#677bc6" d="M750.643,848.849c3.14-2.178,13.309-7.595,16.923-12.336
											c13.51-17.721,4.859-36.113,4.859-36.113l-24.367,18.185L750.643,848.849z" class="colorc66c67 svgShape"></path></g></g></g></g></g></g><g fill="#000000" class="color000000 svgShape"><g fill="#000000" class="color000000 svgShape"><g fill="#000000" class="color000000 svgShape"><g fill="#000000" class="color000000 svgShape"><g fill="#000000" class="color000000 svgShape"><g fill="#000000" class="color000000 svgShape"><g fill="#000000" class="color000000 svgShape"><g fill="#000000" class="color000000 svgShape"><g fill="#000000" class="color000000 svgShape"><path fill="#7abcff" d="M754.729,752.065l6.349,21.748l11.616,9.138
														c14.831,34.522-30.907,54.302-42.578,56.025c-13.963,2.061-21.093,2.624-25.94-15.091
														c-6.287-22.982-5.546-45.935-4.461-58.194c0.799-9.029,1.217-19.008,8.166-24.895
														C722.445,728.46,746.732,732.155,754.729,752.065z" class="colorff867a svgShape"></path></g></g></g></g></g></g></g></g></g><g fill="#000000" class="color000000 svgShape"><g fill="#000000" class="color000000 svgShape"><g fill="#000000" class="color000000 svgShape"><g fill="#000000" class="color000000 svgShape"><g fill="#000000" class="color000000 svgShape"><g fill="#000000" class="color000000 svgShape"><g fill="#000000" class="color000000 svgShape"><g fill="#000000" class="color000000 svgShape"><g fill="#000000" class="color000000 svgShape"><path fill="#021b79" d="M730.386,753.828c2.971,0.202,5.953,0.233,8.915,0.561
														c3.116,0.345,2.643,5.187-0.472,4.842c-2.962-0.328-5.944-0.359-8.915-0.561
														C726.782,758.459,727.266,753.617,730.386,753.828z" class="color393351 svgShape"></path></g></g></g></g></g></g></g></g></g><g fill="#000000" class="color000000 svgShape"><g fill="#000000" class="color000000 svgShape"><path fill="#021b79" d="M699.103,790.251c0,0-2.298,17.406-1.298,24.612
							c1,7.205,0.682,31.304,26.505,30.835c25.822-0.469,35.912-13.377,43.923-25.653c8.011-12.275-1.393-46.756-1.869-48.512
							c-0.476-1.755-5.838,0.395-5.838,0.395s-0.563,17.318-3.193,18.716c-3.264,1.734-6.665-0.291-14.668-4.184
							c-7.188-3.496-20.54,5.752-24.707,6.455c-4.167,0.703-7.306-2.356-10.918-2.505S699.103,790.251,699.103,790.251z" class="color393351 svgShape"></path></g></g><g fill="#000000" class="color000000 svgShape"><g fill="#000000" class="color000000 svgShape"><path fill="#7abcff" d="M722.015,797.846c-2.346,0.697-15.871-0.707-17.239,0.714
							c-2.167,2.251,3.197,19.885,7.548,20.51c4.351,0.625,7.087-7.993,9.497-7.518c2.41,0.475,6.02,6.752,11.777,4.204
							c5.757-2.548,8.983-16.099,8.235-20.582s-2.987-3.27-5.675-2.177C734.332,793.74,726.857,796.406,722.015,797.846z" class="colorff867a svgShape"></path></g></g><g fill="#000000" class="color000000 svgShape"><g fill="#000000" class="color000000 svgShape"><g fill="#000000" class="color000000 svgShape"><g fill="#000000" class="color000000 svgShape"><g fill="#000000" class="color000000 svgShape"><g fill="#000000" class="color000000 svgShape"><g fill="#000000" class="color000000 svgShape"><g fill="#000000" class="color000000 svgShape"><g fill="#000000" class="color000000 svgShape"><path fill="#021b79" d="M704.886,758.66c-2.077,1.43-4.243,2.714-6.253,4.251
														c-2.115,1.616,0.536,5.671,2.65,4.055c2.01-1.537,4.176-2.821,6.253-4.251
														C709.726,761.208,707.067,757.159,704.886,758.66z" class="color393351 svgShape"></path></g></g></g></g></g></g></g></g></g><g fill="#000000" class="color000000 svgShape"><g fill="#000000" class="color000000 svgShape"><g fill="#000000" class="color000000 svgShape"><g fill="#000000" class="color000000 svgShape"><g fill="#000000" class="color000000 svgShape"><g fill="#000000" class="color000000 svgShape"><g fill="#000000" class="color000000 svgShape"><g fill="#000000" class="color000000 svgShape"><g fill="#000000" class="color000000 svgShape"><path fill="#677bc6" d="M721.018,790.096c-3.374,0.014-6.474-0.73-9.476-2.27
														c-2.273-1.167-3.653,2.559-1.404,3.713c3.254,1.669,6.821,2.522,10.477,2.507
														C723.147,794.035,723.57,790.086,721.018,790.096z" class="colorc66c67 svgShape"></path></g></g></g></g></g></g></g></g></g><g fill="#000000" class="color000000 svgShape"><g fill="#000000" class="color000000 svgShape"><g fill="#000000" class="color000000 svgShape"><g fill="#000000" class="color000000 svgShape"><g fill="#000000" class="color000000 svgShape"><g fill="#000000" class="color000000 svgShape"><g fill="#000000" class="color000000 svgShape"><g fill="#000000" class="color000000 svgShape"><g fill="#000000" class="color000000 svgShape"><path fill="#7abcff" d="M766.959,764.447c0.311-5.768,2.109-14.267,10.44-9.597
														c12.117,6.792,10.799,34.836-3.582,36.409C763.137,792.427,766.795,767.482,766.959,764.447z" class="colorff867a svgShape"></path></g></g></g></g></g></g></g></g></g><g fill="#000000" class="color000000 svgShape"><path fill="#021b79" d="M742.71,727.836c0,0-19.788,10.974-26.244,17.176
						c-6.456,6.202-18.938,20.293-21.249,20.597c-2.311,0.304-14.474-31.702,1.775-43.455
						C713.24,710.401,733.18,717.963,742.71,727.836z" class="color393351 svgShape"></path></g><g fill="#000000" class="color000000 svgShape"><path fill="#021b79" d="M708.016,774.69c0.17,2.508-1.204,4.643-3.068,4.769
						c-1.864,0.126-3.513-1.804-3.683-4.312c-0.17-2.508,1.204-4.643,3.068-4.769C706.197,770.252,707.846,772.182,708.016,774.69z" class="color393351 svgShape"></path></g><g fill="#000000" class="color000000 svgShape"><path fill="#021b79" d="M735.412,770.392c0.17,2.508-1.204,4.643-3.068,4.769
						c-1.864,0.126-3.513-1.804-3.683-4.312c-0.17-2.508,1.204-4.643,3.068-4.769C733.593,765.954,735.242,767.885,735.412,770.392z
						" class="color393351 svgShape"></path></g><g fill="#000000" class="color000000 svgShape"><g fill="#000000" class="color000000 svgShape"><path fill="#677bc6" d="M718.877,803.375c-4.268,0.289-7.5,0.203-7.789,0.194
							c-0.824-0.024-1.473-0.713-1.448-1.537c0.025-0.824,0.71-1.465,1.537-1.449c0.15,0.004,15.102,0.397,23.211-3.469
							c0.747-0.357,1.636-0.039,1.991,0.705c0.355,0.745,0.039,1.636-0.705,1.991C730.853,802.109,724.092,803.022,718.877,803.375z
							" class="colorc66c67 svgShape"></path></g></g></g><g fill="#000000" class="color000000 svgShape"><path fill="#6682ed" d="M891.975,866.654c-14.837-2.323-89.359,78.675-152.996,153.016
					c16.011,25.398,27.251,166.097,110.252,138.826c69.809-72.113,97.802-152.015,103.355-163.325
					C979.99,939.358,918.671,870.835,891.975,866.654z" class="colored6966 svgShape"></path></g><g fill="#000000" class="color000000 svgShape"><path fill="#7abcff" d="M738.979,1019.671c-51.134,59.735-95.24,115.171-95.705,119.626
					c-4.909,47.05,29.245,125,118.136,77.091c23.759-12.805,54.161-42.912,83.718-76.983
					C815.635,1081.063,754.99,1045.068,738.979,1019.671z" class="colorff867a svgShape"></path></g><g fill="#000000" class="color000000 svgShape"><g fill="#000000" class="color000000 svgShape"><g fill="#000000" class="color000000 svgShape"><g fill="#000000" class="color000000 svgShape"><g fill="#000000" class="color000000 svgShape"><g fill="#000000" class="color000000 svgShape"><g fill="#000000" class="color000000 svgShape"><path fill="#7abcff" d="M678.37,831.87c0,0-3.892-60.035-16.789-61.815
											c-12.897-1.78-42.703-9.952-42.212-3.09c0.491,6.862,23.137,9.997,23.137,9.997s-31.227-0.224-33.207,3.616
											c-1.98,3.841,2.515,6.598,2.515,6.598s-3.907,3.734-4.056,8.052c-0.149,4.318,24.797,11.129,24.797,11.129
											s-2.798,88.182,30.379,82.182C696.113,882.539,678.37,831.87,678.37,831.87z" class="colorff867a svgShape"></path></g></g></g></g></g></g></g><g fill="#000000" class="color000000 svgShape"><g fill="#000000" class="color000000 svgShape"><g fill="#000000" class="color000000 svgShape"><g fill="#000000" class="color000000 svgShape"><g fill="#000000" class="color000000 svgShape"><g fill="#000000" class="color000000 svgShape"><g fill="#000000" class="color000000 svgShape"><path fill="#7abcff" d="M637.133,859.057c0,0,30.982-12.794,40.594-10.043
											c3.008,0.861,34.604,46.476,54.034,102.169c5.472,15.686,52.043,97.821,59.519,185.878
											c3.217,37.884-48.266,83.043-83.708,89.576c-17.3,3.189-49.829-18.425-58.665-46.376
											C621.53,1093.653,637.133,859.057,637.133,859.057z" class="colorff867a svgShape"></path></g></g></g></g></g></g></g><g fill="#000000" class="color000000 svgShape"><path fill="#677bc6" d="M793.505,1172.312c-0.236,0-0.475-0.022-0.715-0.069
					c-2.021-0.392-3.341-2.349-2.948-4.37c6.542-33.661-12.064-87.279-12.252-87.817c-0.682-1.942,0.34-4.07,2.282-4.751
					c1.943-0.681,4.07,0.341,4.751,2.282c0.798,2.274,19.46,56.083,12.536,91.708
					C796.813,1171.076,795.253,1172.312,793.505,1172.312z" class="colorc66c67 svgShape"></path></g><g fill="#000000" class="color000000 svgShape"><path fill="#485fb7" d="M845.48,1159.435c-5.823,0-9.574-1.717-9.927-1.886
					c-1.548-0.739-2.204-2.593-1.466-4.141c0.739-1.548,2.591-2.204,4.141-1.466c0.648,0.296,16.528,7.238,34.59-14.512
					c21.971-26.458,74.017-118.364,74.54-119.289c0.844-1.492,2.739-2.019,4.232-1.175c1.493,0.844,2.02,2.74,1.175,4.233
					c-2.148,3.797-52.844,93.315-75.169,120.2C865.293,1156.215,853.448,1159.435,845.48,1159.435z" class="colorb74848 svgShape"></path></g><g fill="#000000" class="color000000 svgShape"><path fill="#485fb7" d="M763.022,994.983c-0.752,0-1.505-0.271-2.102-0.82
					c-1.263-1.161-1.345-3.126-0.184-4.388c3.511-3.819,86.121-93.639,96.998-103.268c1.284-1.136,3.247-1.017,4.385,0.267
					c1.137,1.284,1.017,3.247-0.267,4.385c-10.64,9.419-95.686,101.888-96.543,102.821
					C764.696,994.645,763.86,994.983,763.022,994.983z" class="colorb74848 svgShape"></path></g><g fill="#000000" class="color000000 svgShape"><path fill="#668cb2" d="M1105.168,2274.588c-1.178,0-2.223-0.841-2.442-2.041
					c-0.069-0.378-6.952-38.08-13.732-61.984c-3.021-10.647-3.049-26.851-3.079-44.006c-0.039-22.504-0.083-48.01-7.146-64.064
					c-11.973-27.21-16.548-44.353-12.008-74.001c3.069-20.042-6.95-53.351-15.001-80.116c-2.792-9.282-5.429-18.048-7.105-24.973
					c-6.469-26.72-37.645-223.362-41.906-255.323c-4.533-33.994-59.167-305.035-59.718-307.769
					c-0.271-1.345,0.599-2.656,1.944-2.927c1.345-0.27,2.656,0.599,2.927,1.944c0.552,2.735,55.219,273.939,59.773,308.095
					c4.255,31.916,35.364,228.184,41.811,254.81c1.645,6.792,4.262,15.496,7.034,24.711c8.194,27.243,18.392,61.148,15.154,82.3
					c-3.994,26.081-1.491,41.396,11.644,71.247c7.483,17.006,7.528,43.066,7.567,66.057c0.029,16.802,0.057,32.672,2.889,42.658
					c6.847,24.136,13.772,62.07,13.842,62.451c0.246,1.35-0.651,2.644-2,2.889
					C1105.465,2274.575,1105.315,2274.588,1105.168,2274.588z" class="color669eb2 svgShape"></path></g><g fill="#000000" class="color000000 svgShape"><path fill="#668cb2" d="M729.467,2278.283c-0.091,0-0.183-0.005-0.277-0.015
					c-1.364-0.151-2.347-1.379-2.196-2.743c0.069-0.624,6.94-62.599,10.359-83.11c1.781-10.688,1.048-26.081,0.272-42.379
					c-0.684-14.378-1.392-29.245-0.295-41.311c2.127-23.405,6.283-47.119,12.703-72.495c3.719-14.698,6.551-118.468,8.618-194.238
					c1.081-39.604,2.015-73.806,2.801-85.435c2.27-33.547,14.807-323.933,14.934-326.862c0.059-1.37,1.202-2.455,2.59-2.375
					c1.371,0.059,2.434,1.218,2.375,2.589c-0.126,2.93-12.666,293.376-14.94,326.984c-0.78,11.529-1.713,45.686-2.792,85.235
					c-2.189,80.235-4.914,180.09-8.768,195.322c-6.356,25.121-10.469,48.583-12.573,71.726c-1.066,11.723-0.366,26.416,0.311,40.625
					c0.789,16.57,1.534,32.221-0.334,43.431c-3.396,20.379-10.253,82.217-10.322,82.839
					C731.793,2277.342,730.716,2278.283,729.467,2278.283z" class="color669eb2 svgShape"></path></g></g></g><g fill="#000000" class="color000000 svgShape"><path fill="#d4e9ff" d="M1131.151,246.991c-60.258,8.433-169.444,40.445-239.976,111.101
			c-70.532,70.657-45.896,260.225,44.788,315.371c90.684,55.147,197.956,8.617,248.337,22.403
			c50.38,13.787,262.662,68.934,331.755-31.02c69.093-99.954,79.169-320.545-12.955-378.275
			C1410.976,228.842,1227.13,233.559,1131.151,246.991z" class="colorffe9d4 svgShape"></path></g><g fill="#000000" class="color000000 svgShape"><g fill="#000000" class="color000000 svgShape"><g fill="#000000" class="color000000 svgShape"><g fill="#000000" class="color000000 svgShape"><g fill="#000000" class="color000000 svgShape"><g fill="#000000" class="color000000 svgShape"><path fill="#ffffff" d="M1249.855,549.25l-94.132-30.999c-6.959-2.292-15.031,3.054-17.937,11.879
								l0,0c-2.906,8.825,0.409,17.921,7.368,20.213l0.02,0.007c0.7,0.23,0.612,1.446-0.123,1.796
								c-4.041,1.922-7.574,5.927-9.295,11.154l0,0c-2.906,8.826,0.409,17.921,7.368,20.213l2.695,0.887
								c0.7,0.231,0.612,1.446-0.123,1.796c-4.041,1.922-7.574,5.927-9.295,11.154l0,0c-2.906,8.825,0.41,17.921,7.369,20.213
								l56.688,18.668c6.959,2.292,15.031-3.054,17.937-11.88l0,0c1.721-5.227,1.26-10.548-0.849-14.494
								c-0.383-0.718,0.268-1.748,0.968-1.518l2.695,0.888c6.959,2.292,15.031-3.054,17.937-11.879l0,0
								c1.721-5.227,1.26-10.548-0.848-14.494c-0.384-0.718,0.268-1.748,0.968-1.517l0.02,0.007
								c6.959,2.292,15.031-3.054,17.937-11.879l0,0C1260.13,560.637,1256.814,551.541,1249.855,549.25z" class="colorffffff svgShape"></path></g></g></g><g fill="#000000" class="color000000 svgShape"><g fill="#000000" class="color000000 svgShape"><g fill="#000000" class="color000000 svgShape"><path fill="#5cadff" d="M1320.912,396.266c-12.138-23.646-32.815-41.072-58.177-49.024
								c-51.261-16.094-106.52,12.385-123.182,63.485c-6.891,21.137-6.406,44.224,1.368,65.01
								c4.595,12.286,6.794,24.746,6.537,37.036c-0.064,3.044,1.894,5.66,4.643,6.565c0.587,0.193,87.792,28.821,98.394,32.124
								c3.033,2.027,7.146,1.289,9.265-1.709c7.111-10.059,16.262-18.759,27.198-25.861c18.725-12.156,32.89-30.553,39.887-51.798
								C1335.158,446.846,1333.052,419.917,1320.912,396.266z" class="colorffd45c svgShape"></path></g></g></g><g fill="#000000" class="color000000 svgShape"><g fill="#000000" class="color000000 svgShape"><g fill="#000000" class="color000000 svgShape"><g fill="#000000" class="color000000 svgShape"><path fill="#ffffff" d="M1170.696,388.406c-0.35-0.115-0.684-0.299-0.983-0.553
									c-1.228-1.048-1.374-2.894-0.326-4.123c1.489-1.745,3.065-3.442,4.683-5.045c1.148-1.136,3-1.126,4.135,0.02
									c1.136,1.148,1.128,2.999-0.02,4.135c-1.503,1.488-2.966,3.064-4.35,4.686
									C1173.042,388.457,1171.79,388.767,1170.696,388.406z" class="colorffffff svgShape"></path></g></g></g><g fill="#000000" class="color000000 svgShape"><g fill="#000000" class="color000000 svgShape"><g fill="#000000" class="color000000 svgShape"><path fill="#ffffff" d="M1186.899,374.037c-0.602-0.198-1.145-0.593-1.522-1.163
									c-0.891-1.347-0.522-3.161,0.825-4.052c24.169-15.993,49.354-14.018,50.414-13.926c1.608,0.141,2.8,1.557,2.661,3.166
									c-0.139,1.608-1.555,2.798-3.162,2.661l0,0c-0.24-0.02-24.278-1.852-46.685,12.977
									C1188.652,374.212,1187.719,374.307,1186.899,374.037z" class="colorffffff svgShape"></path></g></g></g></g><g fill="#000000" class="color000000 svgShape"><g fill="#000000" class="color000000 svgShape"><g fill="#000000" class="color000000 svgShape"><path fill="#454d6d" d="M1143.77,617.562c0,0-7.226,26.525,19.269,36.961
								c26.495,10.435,37.419-18.292,37.419-18.292L1143.77,617.562z" class="color50456d svgShape"></path></g></g></g><g fill="#000000" class="color000000 svgShape"><g fill="#000000" class="color000000 svgShape"><g fill="#000000" class="color000000 svgShape"><g fill="#000000" class="color000000 svgShape"><path fill="#454d6d" d="M1182.193,600.914c-18.344-6.041-32.181-12.695-32.388-12.795
									c-0.888-0.43-1.259-1.499-0.829-2.387c0.43-0.888,1.501-1.26,2.387-0.829c0.307,0.148,31.022,14.914,61.456,20.242
									c0.973,0.171,1.622,1.096,1.452,2.068c-0.17,0.972-1.096,1.622-2.068,1.452
									C1201.834,606.849,1191.44,603.96,1182.193,600.914z" class="color50456d svgShape"></path></g></g></g></g><g fill="#000000" class="color000000 svgShape"><g fill="#000000" class="color000000 svgShape"><g fill="#000000" class="color000000 svgShape"><g fill="#000000" class="color000000 svgShape"><path fill="#454d6d" d="M1192.893,571.571c-24.604-8.102-43.379-16.376-43.66-16.501
									c-0.902-0.4-1.31-1.456-0.91-2.358c0.4-0.903,1.458-1.31,2.358-0.909c0.419,0.185,42.352,18.661,82.974,27.326
									c0.963,0.202,1.581,1.155,1.375,2.12c-0.206,0.965-1.155,1.581-2.12,1.375
									C1219.173,579.694,1205.292,575.654,1192.893,571.571z" class="color50456d svgShape"></path></g></g></g></g><g fill="#000000" class="color000000 svgShape"><g fill="#000000" class="color000000 svgShape"><g fill="#000000" class="color000000 svgShape"><g fill="#000000" class="color000000 svgShape"><path fill="#ffffff" d="M1183.16,530.895c-0.577-0.19-0.958-0.766-0.882-1.391
									c0.031-0.257,3.163-26.025,6.79-51.703c7.433-52.633,9.551-53.593,10.817-54.166c1.906-0.863,3.706,1.294,4.297,2.003
									c3.341,4.005,7.382,13.177,9.622,21.837c2.482-3.661,5.354-6.658,8.455-8.771c12.138-8.274,19.054-6.429,22.096-4.592
									c3.858,2.329,5.694,6.965,5.037,12.718c-0.069,0.601-0.14,1.236-0.214,1.898c-0.307,2.729-0.621,5.414-0.96,7.995
									c3.582-2.668,8.413-5.485,13.886-6.615c4.121-0.851,7.061-0.254,8.738,1.772c3.883,4.693-0.465,15.213-3.959,23.667
									c-0.489,1.184-0.951,2.302-1.341,3.292c-3.825,9.725-40.714,61.981-42.282,64.201c-0.414,0.586-1.226,0.724-1.812,0.311
									c-0.586-0.414-0.726-1.225-0.311-1.812c0.382-0.541,38.275-54.216,41.986-63.652c0.397-1.011,0.864-2.139,1.357-3.333
									c2.709-6.556,7.244-17.529,4.358-21.017c-1.015-1.227-3.105-1.525-6.209-0.884c-5.278,1.09-10.565,4.161-14.936,7.823
									c-1.451,9.719-3.416,17.354-6.933,19.213c-1.175,0.62-2.467,0.594-3.732-0.075c-1.812-0.958-2.619-2.819-2.274-5.243
									c0.549-3.861,4.056-9.239,9.153-14.035c0.405-0.381,0.863-0.799,1.369-1.24c0.549-3.799,0.974-7.576,1.32-10.658
									c0.074-0.664,0.146-1.3,0.215-1.903c0.537-4.7-0.847-8.417-3.798-10.198c-4.267-2.576-11.298-0.932-19.288,4.514
									c-3.679,2.508-6.714,6.178-9.091,10.196c1.369,6.693,2.229,16.023-1.714,21.719c-1.139,1.645-2.877,3.786-4.813,3.385
									c-0.782-0.161-1.792-0.784-2.201-2.829c-0.71-3.559,0.511-10.219,3.039-16.573c0.864-2.172,1.845-4.228,2.927-6.147
									c-0.933-4.247-2.306-8.575-3.911-12.548c-3.042-7.529-5.863-11.265-6.97-11.917c-0.957,1.754-3.546,10.751-9.534,53.352
									c-3.543,25.202-6.567,50.081-6.597,50.329c-0.086,0.712-0.734,1.22-1.447,1.133
									C1183.324,530.941,1183.24,530.922,1183.16,530.895z M1212.647,454.785c-2.5,5.262-3.933,10.684-4.266,14.613
									c-0.218,2.565,0.1,3.77,0.303,4.151c0.265-0.133,0.95-0.608,2.097-2.264C1213.32,467.617,1213.65,461.499,1212.647,454.785z
									 M1244.608,463.304c-4.067,4.083-6.857,8.437-7.283,11.432c-0.277,1.948,0.59,2.406,0.915,2.579
									c0.637,0.336,1.016,0.227,1.303,0.075c0.932-0.492,2.756-2.593,4.507-11.13
									C1244.247,465.3,1244.433,464.31,1244.608,463.304z" class="colorffffff svgShape"></path></g></g></g></g></g></g><g fill="#000000" class="color000000 svgShape"><g fill="#000000" class="color000000 svgShape"><g fill="#000000" class="color000000 svgShape"><path fill="#454d6d" d="M1075.69,452.468c-0.895-0.201-1.615-0.935-1.754-1.897
						c-0.179-1.245,0.684-2.4,1.928-2.579l33.874-4.892c1.246-0.18,2.4,0.684,2.579,1.928c0.179,1.245-0.684,2.4-1.928,2.579
						l-33.874,4.892C1076.232,452.54,1075.953,452.527,1075.69,452.468z" class="color50456d svgShape"></path></g></g></g><g fill="#000000" class="color000000 svgShape"><g fill="#000000" class="color000000 svgShape"><g fill="#000000" class="color000000 svgShape"><path fill="#454d6d" d="M1113.732,370.595c-0.158-0.035-0.314-0.089-0.467-0.16l-53.026-24.642
						c-1.216-2.788,1.121-4.504,2.922-3.661l51.943,24.136c1.047,0.49,1.648,1.676,1.3,2.779
						C1116.035,370.223,1114.849,370.846,1113.732,370.595z" class="color50456d svgShape"></path></g></g></g><g fill="#000000" class="color000000 svgShape"><g fill="#000000" class="color000000 svgShape"><g fill="#000000" class="color000000 svgShape"><path fill="#454d6d" d="M1212.155,322.876c-0.862-0.194-1.568-0.883-1.74-1.806l-8.548-45.972
						c-0.23-1.236,0.586-2.425,1.823-2.655c1.237-0.231,2.425,0.586,2.655,1.823l8.548,45.972c0.23,1.236-0.586,2.425-1.823,2.655
						C1212.757,322.951,1212.447,322.942,1212.155,322.876z" class="color50456d svgShape"></path></g></g></g><g fill="#000000" class="color000000 svgShape"><g fill="#000000" class="color000000 svgShape"><g fill="#000000" class="color000000 svgShape"><path fill="#454d6d" d="M1306.979,327.769c-0.272-0.061-0.537-0.173-0.781-0.34
						c-1.04-0.708-1.309-2.124-0.601-3.164l8.155-11.98c0.707-1.039,2.123-1.309,3.164-0.601c1.04,0.708,1.309,2.124,0.601,3.164
						l-8.155,11.98C1308.821,327.624,1307.864,327.969,1306.979,327.769z" class="color50456d svgShape"></path></g></g></g><g fill="#000000" class="color000000 svgShape"><g fill="#000000" class="color000000 svgShape"><g fill="#000000" class="color000000 svgShape"><path fill="#454d6d" d="M1353.284,418.057c-0.9-0.203-1.622-0.943-1.756-1.91
						c-0.172-1.246,0.698-2.396,1.944-2.568l75.798-10.515c1.245-0.172,2.395,0.698,2.567,1.944
						c0.172,1.246-0.698,2.395-1.944,2.568l-75.798,10.515C1353.817,418.129,1353.543,418.115,1353.284,418.057z" class="color50456d svgShape"></path></g></g></g><g fill="#000000" class="color000000 svgShape"><g fill="#000000" class="color000000 svgShape"><g fill="#000000" class="color000000 svgShape"><path fill="#454d6d" d="M1361.5,496.681c-0.22-0.05-0.436-0.133-0.642-0.252l-16.697-9.673
						c-1.088-0.63-1.459-2.024-0.829-3.112c0.63-1.088,2.024-1.461,3.112-0.829l16.697,9.673c1.088,0.63,1.459,2.024,0.829,3.112
						C1363.458,496.483,1362.445,496.893,1361.5,496.681z" class="color50456d svgShape"></path></g></g></g></g><g fill="#000000" class="color000000 svgShape"><path fill="#d4e9ff" d="M1461.422,728.265c0,0-5.745,4.366-44.809,13.097
			c-39.064,8.731-33.32,40.745-8.043,46.566c25.277,5.821,63.192,1.865,88.4-20.441
			C1515.154,751.394,1486.699,712.258,1461.422,728.265z" class="colorffe9d4 svgShape"></path></g><g fill="#000000" class="color000000 svgShape"><path fill="#d4e9ff" d="M1482.324,823.012c-4.373-7.158-12.692-11.078-21.007-9.977
			c-5.031,0.666-11.119,2.885-17.439,8.434c-15.799,13.872,6.743,32.946,30.152,20.808
			C1486.35,835.889,1485.702,828.54,1482.324,823.012z" class="colorffe9d4 svgShape"></path></g><g fill="#000000" class="color000000 svgShape"><path fill="#d4e9ff" d="M950.181,711.978c0,0-7.21,0.271-44.196-15.035
			c-36.986-15.306-50.684,14.194-33.344,33.485c17.34,19.291,50.641,37.845,84.09,34.077
			C980.859,761.787,980.066,713.406,950.181,711.978z" class="colorffe9d4 svgShape"></path></g><g fill="#000000" class="color000000 svgShape"><path fill="#d4e9ff" d="M912.833,801.527c0.535-8.371-4.02-16.36-11.457-20.238
			c-4.5-2.346-10.757-4.029-19.118-3.12c-20.902,2.272-13.417,30.837,12.716,34.357C908.726,814.379,912.42,807.993,912.833,801.527
			z" class="colorffe9d4 svgShape"></path></g></g></svg>