<?xml version="1.0" encoding="UTF-8"?>
<svg id="Layer_2" data-name="Layer 2" xmlns="http://www.w3.org/2000/svg" xmlns:xlink="http://www.w3.org/1999/xlink" viewBox="0 0 184.5 184.67">
  <defs>
    <style>
      .cls-1 {
        fill: url(#linear-gradient-2);
      }

      .cls-2 {
        fill: #03947e;
      }

      .cls-3 {
        fill: #fff;
        stroke: #000;
        stroke-miterlimit: 10;
        stroke-width: .5px;
      }

      .cls-4 {
        opacity: .05;
      }

      .cls-5 {
        fill: #ea5300;
      }

      .cls-6 {
        fill: url(#linear-gradient);
      }
    </style>
    <linearGradient id="linear-gradient" x1="98.82" y1="149.17" x2="98.82" y2="61.97" gradientUnits="userSpaceOnUse">
      <stop offset="0" stop-color="#f20"/>
      <stop offset=".11" stop-color="#fe2b00"/>
      <stop offset=".3" stop-color="#fe4400"/>
      <stop offset=".54" stop-color="#fd6e00"/>
      <stop offset=".81" stop-color="#fca700"/>
      <stop offset="1" stop-color="#fcd200"/>
    </linearGradient>
    <linearGradient id="linear-gradient-2" x1="55.22" y1="94.57" x2="142.42" y2="94.57" gradientUnits="userSpaceOnUse">
      <stop offset="0" stop-color="#ff2c00" stop-opacity="0"/>
      <stop offset=".59" stop-color="#fdf400" stop-opacity="0"/>
      <stop offset=".62" stop-color="#fcf100" stop-opacity=".03"/>
      <stop offset=".65" stop-color="#fcea00" stop-opacity=".11"/>
      <stop offset=".69" stop-color="#fcdf00" stop-opacity=".23"/>
      <stop offset=".73" stop-color="#fcd100" stop-opacity=".4"/>
      <stop offset=".75" stop-color="#fcd600" stop-opacity=".5"/>
      <stop offset=".79" stop-color="#fcdf00" stop-opacity=".65"/>
      <stop offset=".83" stop-color="#fce600" stop-opacity=".78"/>
      <stop offset=".87" stop-color="#fcec00" stop-opacity=".87"/>
      <stop offset=".91" stop-color="#fcf000" stop-opacity=".94"/>
      <stop offset=".95" stop-color="#fcf300" stop-opacity=".99"/>
      <stop offset="1" stop-color="#fdf400"/>
    </linearGradient>
  </defs>
  <g id="Layer_1-2" data-name="Layer 1">
    <g id="circle2">
      <path class="cls-3" d="m184.25,91.89v.36c0,2.44-.1,4.86-.29,7.25-3.47,44.67-38.86,80.39-83.39,84.37-2.74.25-5.52.38-8.32.38-1.83,0-3.66-.05-5.46-.17-.1-.01-.2-.01-.3-.02C38.36,181.09.25,141.13.25,92.25S41.44.25,92.25.25s91.8,40.99,92,91.64Z"/>
      <path class="cls-4" d="m184.08,92.46v.21c0,2.44-.1,4.86-.29,7.25-3.47,44.67-38.86,80.39-83.39,84.37-2.74.25-5.52.38-8.32.38-1.83,0-3.66-.05-5.46-.17-.1-.01-.2-.01-.3-.02l-.17-.26-31.47-27.48,8.48-113.96,67.54.8,53.37,48.88Z"/>
    </g>
    <g id="Layer_23" data-name="Layer 23">
      <path class="cls-2" d="m101.47,32.31h-46.25v124.46l28.59.07s-.03-39.16-.03-42.33c0-4.31-.03-20.8-.03-21.04,0-.24.05-.3-.17-.47-.21-.18-1.76-1.64-2.69-2.55-.94-.91-1.67-1.71-1.9-2.14-.24-.42-.3-.63-.62-1.6-.31-.97-.79-2.44-1.17-4.09-.39-1.65-.72-3.06-.68-4.38.04-1.33.06-1.44.12-1.72.05-.28.2-.03.39.12.19.14,5.31,4.43,5.83,4.86s.79.63.95.47,2.86-2.19,3.76-2.73c.9-.54,1.55-1.02,1.97-1.06.41-.04,3.8-.57,5.55-.78,1.76-.19,1.93-.2,2.2-.24.25-.03.16,0-.12.18-.27.19-2.2,1.37-4.15,3.5-1.94,2.13-3.47,3.82-4.26,6.4-.8,2.57-.67,3.41-.68,4.09,0,.68,0,.76.17.84.18.07-.48-2.4,4.94-9.13,2.18-2.71,3.52-3.61,5.16-4.8,1.64-1.19,2.74-1.92,3.59-2.2.84-.28,2.51-.76,3.98-.95,1.48-.19,2.47-.35,1.46-.48-1.01-.13-1.88-.2-2.14-.3-.25-.08-.6-.37-.84-.71-.24-.34-.22-.73-.11-1.06.11-.34.89-2.22,1.01-2.61.13-.4.08-.46-.29-.12-.35.35-1.92,1.84-2.63,2.19-.71.35-1.02.59-2.63.24-1.61-.35-2.81-.82-3.82-1.31-1-.49-1.32-.55-1.4-1.06-.08-.52-.32-1.76-.34-3.2,0-.43.09-.59.45-.72.35-.12,12.12-3.6,12.74-3.79.62-.19,1.33-.27,1.9-.06.58.21,1.26.46,1.46,1.18.21.73,2.53,7.68,3.31,10.32.79,2.63,1.06,3.63,1.18,3.97.12.35.28.74-.06,1.13-.34.39-10.98,11.61-11.5,12.09s-.59.51-.51,1.13c.09.61,1.27,13.27,1.35,13.74.08.48.51,2.39.62,3.23,1.03,7.6,4.45,11.35,5.21,11.35.92,0,31.94-3.31,32.08-43.12.14-41.79-33.91-44.82-40.95-44.82Zm-14.41,45.81c-.16.3-1.93,1.84-2.69,2.13-.75.3-.75.35-1.28-.06-.54-.4-2.37-1.97-4.21-3.67-1.83-1.71-3.35-3.27-3.7-3.67-.35-.41-.52-.97-.23-1.49.3-.51,1.41-2.16,2.92-3.32.48-.35,1.48-1.03,1.96-.47.49.56,5.57,7.67,7.07,9.84.24.36.34.41.17.72Zm7.86-2.49c.22.37.08.24-.62.41-.7.17-5.18.91-5.72.95-.55.04-.45.02-.73-.3-.46-.46-1.03-1.16-1.91-2.37-.87-1.22-2.18-3.01-3.08-4.26s-2.05-3.3-2.25-3.8c-.19-.49-.12-.55.12-1,.46-.81,1.65-1.97,2.63-2.61.98-.64,1.75-.94,2.41-1.18.66-.24.89-.07,1.11.24.23.3,2.58,4.23,3.93,6.52,1.34,2.29,3.87,7.04,4.09,7.41Zm2.74-11.74c-.52.14-3.78,1.19-4.2,1.36-.43.18-.57.3-.62.83-.05.54.08,2.23.11,2.73.07.55.05.38-.23-.06-.27-.43-1.34-2.1-2.74-4.32-1.4-2.22-1.82-2.96-2.02-3.44-.21-.47-.3-.35.79-1.31,1.08-.95,2.25-1.5,3.53-2.02,1.29-.51,1.78-.64,2.36-.65s.62.1.79.41c.18.32,2.3,5.13,2.58,5.75.29.62.19.57-.34.72Zm9.25-2.67c-.36.1-6.56,1.85-6.9,1.95-.34.11-.42.18-.62-.24-.24-.57-2.2-4.4-2.58-5.28-.37-.88-.59-1.25-.16-1.48.42-.23,2.22-.94,3.31-1.25,1.08-.3,2.93-.91,3.36-1.06.43-.15.7-.21.84.12.14.33,2.78,6.26,2.91,6.64.14.39.19.5-.17.6Z"/>
      <g>
        <path class="cls-6" d="m101.47,32.31h-46.25v124.46l28.59.07s-.03-39.16-.03-42.33c0-4.31-.03-20.8-.03-21.04,0-.24.05-.3-.17-.47-.21-.18-1.76-1.64-2.69-2.55-.94-.91-1.67-1.71-1.9-2.14-.24-.42-.3-.63-.62-1.6-.31-.97-.79-2.44-1.17-4.09-.39-1.65-.72-3.06-.68-4.38.03-.79.04-1.15.07-1.37,0-.06,0-.1,0-.15.03-.5.04-.62.08-.82.05-.29.21-.03.41.13.19.15,5.49,4.58,6.03,5.02.54.45.82.66.99.49.17-.16,2.95-2.25,3.88-2.82.94-.56,1.6-1.06,2.03-1.1.43-.04,3.93-.59,5.73-.8,1.82-.2,2-.21,2.27-.24.26-.03.17,0-.13.19-.08.05-.29.19-.6.41.24-.03.14,0-.14.18-.14.09-.66.42-1.38.97-.02.02-.04.04-.07.05-.64.55-1.37,1.22-2.09,2.02-2.01,2.2-3.59,3.94-4.41,6.61-.7,2.27-.71,3.23-.7,3.9.38-1.35,1.45-3.85,4.68-7.86,2.12-2.63,3.44-3.55,5.01-4.69.3-.22.62-.44.93-.67,1.7-1.22,2.84-1.98,3.71-2.26.78-.26,2.25-.68,3.64-.91-.6-.07-1.06-.12-1.23-.19-.25-.08-.6-.37-.84-.71-.24-.34-.22-.73-.11-1.06.11-.34.89-2.22,1.01-2.61.05-.17.08-.28.05-.32h0c-.03-.06-.14,0-.34.2-.16.16-.57.55-1.04.97-.02,0-.03.02-.03.03-.56.49-1.18,1-1.56,1.19-.71.35-1.02.59-2.63.24-1.61-.35-2.81-.82-3.82-1.31-1-.49-1.32-.55-1.4-1.06-.08-.52-.32-1.76-.34-3.2,0-.43.09-.59.45-.72.03,0,.09-.03.2-.06,0-.05,0-.11,0-.17,0-.45.09-.61.46-.74.37-.12,12.53-3.72,13.17-3.92.65-.19,1.38-.28,1.97-.06.6.22,1.3.48,1.51,1.22.22.75,2.62,7.94,3.42,10.67.81,2.72,1.09,3.75,1.22,4.1.12.35.29.77-.06,1.17-.35.41-11.36,12.01-11.89,12.5-.53.5-.62.53-.52,1.17s1.32,13.72,1.39,14.21c.08.5.52,2.47.64,3.34.78,5.72,2.85,9.32,4.22,10.87,1.37-.05,31.91-3.61,32.06-43.12.14-41.79-33.91-44.82-40.95-44.82Zm-14.01,45.25c-.03.07-.15.19-.32.35,0,.06-.03.12-.08.2-.16.3-1.93,1.84-2.69,2.13-.75.3-.75.35-1.28-.06-.54-.4-2.37-1.97-4.21-3.67-1.83-1.71-3.35-3.27-3.7-3.67-.3-.35-.47-.83-.32-1.27-.12-.32-.11-.67.08-1,.31-.52,1.46-2.24,3.02-3.44.5-.35,1.53-1.06,2.03-.48.51.57,5.76,7.93,7.3,10.16.24.37.35.43.18.74Zm8.13-2.58c.22.38.08.25-.65.43-.03,0-.08.02-.13.03.05.09.09.15.11.19.22.37.08.24-.62.41-.7.17-5.18.91-5.72.95-.55.04-.45.02-.73-.3-.46-.46-1.03-1.16-1.91-2.37-.87-1.22-2.18-3.01-3.08-4.26s-2.05-3.3-2.25-3.8c-.19-.49-.12-.55.12-1,0-.02.02-.03.03-.04-.15-.43-.07-.51.16-.95.46-.84,1.71-2.03,2.72-2.69,1.01-.67,1.81-.97,2.5-1.22.68-.25.92-.07,1.15.24.24.3,2.68,4.37,4.07,6.74,1.38,2.36,4,7.28,4.24,7.67Zm2.84-12.13c-.09.03-.27.08-.51.14.03.08.07.14.08.18.29.62.19.57-.34.72-.52.14-3.78,1.19-4.2,1.36,0,0-.02,0-.03.02-.41.17-.54.29-.59.81-.02.22,0,.62.02,1.07.03.64.08,1.36.09,1.65.07.55.05.38-.23-.06-.27-.43-1.34-2.1-2.74-4.32-1.4-2.22-1.82-2.96-2.02-3.44-.19-.42-.28-.37.47-1.04-.02-.03-.03-.07-.04-.1-.22-.49-.32-.36.81-1.35,1.11-.99,2.32-1.55,3.65-2.09,1.33-.52,1.84-.67,2.43-.68.6,0,.64.11.82.43.18.33,2.37,5.31,2.67,5.94.3.64.19.58-.35.74Zm9.57-2.76c-.08.03-.46.14-1,.29.05.13.09.21.1.24.14.39.19.5-.17.6s-6.56,1.85-6.9,1.95c-.34.11-.42.18-.62-.24-.24-.57-2.2-4.4-2.58-5.28-.37-.88-.59-1.25-.16-1.48.13-.07.36-.18.67-.3-.23-.54-.29-.81.05-1,.44-.24,2.3-.97,3.43-1.29,1.11-.31,3.02-.95,3.47-1.1.45-.16.73-.22.88.12.14.34,2.87,6.47,3.01,6.86.14.4.2.52-.17.62Z"/>
        <path class="cls-1" d="m101.47,32.81c2.92,0,18.04.56,29,11.55,7.65,7.67,11.5,18.7,11.45,32.77-.14,37.87-28.49,42.27-31.35,42.6-1.49-1.79-3.25-5.4-3.94-10.41-.07-.54-.27-1.48-.42-2.24-.1-.49-.19-.92-.22-1.11-.04-.23-.37-3.7-.66-6.76-.41-4.29-.69-7.13-.73-7.45q-.05-.34.28-.64l.09-.08c.44-.41,11.36-11.9,11.92-12.54.52-.59.3-1.22.18-1.59l-.03-.08c-.07-.19-.21-.65-.45-1.48-.18-.62-.43-1.46-.76-2.59-.52-1.78-1.69-5.36-2.55-7.98-.44-1.36-.79-2.43-.87-2.68-.28-.98-1.21-1.32-1.82-1.55-.29-.11-.61-.16-.97-.16-.41,0-.85.07-1.32.21-.07.02-.3.09-.65.19,0-.02-.01-.05-.02-.07.26-.07.43-.12.48-.14.2-.05.44-.15.57-.4.15-.28.05-.55-.06-.86-.09-.26-.95-2.23-2.42-5.55-.32-.73-.56-1.26-.6-1.36-.16-.35-.45-.54-.81-.54-.21,0-.42.06-.68.15-.42.14-2.33.78-3.45,1.09-1.15.33-3.04,1.07-3.53,1.33-.54.3-.55.76-.44,1.16-.11.05-.2.09-.27.13-.22-.35-.47-.5-1.09-.5h-.06c-.7.01-1.29.2-2.61.71-1.47.59-2.67,1.18-3.79,2.17l-.17.15c-.82.72-1.11.97-.87,1.55-.11.11-.21.2-.29.3-.19-.21-.46-.4-.88-.4-.21,0-.44.05-.71.15-.79.29-1.58.6-2.6,1.27-.99.64-2.34,1.89-2.89,2.89l-.07.13c-.18.35-.29.58-.19,1-.18.34-.26.56-.19.91-.17-.09-.35-.13-.56-.13-.61,0-1.26.4-1.83.81-1.48,1.13-2.67,2.78-3.15,3.59-.22.39-.27.83-.16,1.25-.11.53.05,1.11.46,1.59.23.26.99,1.06,2.06,2.11-.03,0-.06,0-.09,0-.22,0-.5.14-.57.53-.05.24-.07.39-.09.92,0,.03,0,.05,0,.09-.03.23-.04.57-.07,1.41-.04,1.4.31,2.91.69,4.51.39,1.67.87,3.15,1.19,4.14l.03.08c.3.91.38,1.15.63,1.6.24.45.91,1.21,1.99,2.26.9.88,2.44,2.33,2.72,2.57v.09s0,1.7,0,1.7c0,4.36.03,15.85.03,19.34,0,2.96.02,37.26.03,41.83l-27.59-.07V32.81h45.75m-2.49,30.4s.04.09.07.14c-.14.04-.27.08-.41.12,0-.05-.02-.1-.04-.14l.11-.03c.09-.02.17-.05.26-.08m-4.63,2.27s0,.04,0,.07c-.52.23-.64.62-.65,1.14.02,1.32.21,2.46.31,3.08l.03.2c.11.69.54.89,1.24,1.23.13.06.27.13.43.21,1.23.6,2.48,1.03,3.93,1.35.57.12,1.01.18,1.38.18.66,0,1.05-.2,1.46-.4l.12-.06c.35-.17.87-.56,1.64-1.24h.02s.02-.03.02-.03c-.25.64-.41,1.04-.47,1.2-.18.56-.12,1.08.18,1.51.14.19.31.37.48.52-.7.18-1.33.37-1.79.52-.95.31-2.13,1.09-3.85,2.33-.18.13-.36.26-.54.39l-.39.28-.12.08c-1.54,1.11-2.88,2.07-4.99,4.7-1.38,1.71-2.37,3.17-3.1,4.39.8-2.58,2.34-4.26,4.29-6.39.59-.65,1.25-1.28,2.01-1.94.05-.03.08-.06.11-.08.57-.43,1.01-.72,1.22-.86l.12-.08c.07-.05.12-.08.16-.11.14-.08.23-.18.28-.28.1-.07.17-.12.23-.15l.06-.04c.06-.04.12-.07.16-.1.12-.07.44-.27.33-.64l-.13-.37h-.38s-.09,0-.19.01c-.1.01-.18.02-.35.04-.28.03-.78.08-1.92.21-.19.02-.4.05-.63.08.16-.05.31-.13.4-.32.04-.09.06-.19.05-.27.23-.04.48-.09.61-.37.14-.29-.01-.54-.11-.72-.07-.12-.43-.78-.89-1.62-.54-.99-1.23-2.27-1.9-3.48l.13-.15c.16-.18.14-.35.1-.7l-.02-.31c-.02-.35-.05-.87-.07-1.35-.03-.45-.03-.82-.02-1q.03-.29.28-.4l.09-.04h0c.13-.05.35-.13.62-.22m-5.19,11.95c-.22.12-.47.28-.74.45-.21.13-.43.27-.69.42-.09.05-.19.12-.31.2.03-.04.06-.08.08-.11.04-.06.07-.13.1-.2.2-.19.27-.3.3-.36.07-.12.11-.24.13-.34.08.02.16.03.27.03.08,0,.18,0,.32-.02.09,0,.28-.03.54-.07m-5.02,3.46c-.08.06-.15.12-.21.17-.03-.02-.07-.05-.11-.08.1-.02.2-.05.32-.09m17.35-48.57h-46.25v124.46l28.59.07s-.03-39.16-.03-42.33c0-4.31-.03-20.8-.03-21.04,0-.24.05-.3-.17-.47-.21-.18-1.76-1.64-2.69-2.55-.94-.91-1.67-1.71-1.9-2.14-.24-.42-.3-.63-.62-1.6-.31-.97-.79-2.44-1.17-4.09-.39-1.65-.72-3.06-.68-4.38.03-.79.04-1.15.07-1.37,0-.06,0-.1,0-.15.03-.5.04-.62.08-.82.02-.09.04-.13.08-.13.08,0,.19.15.32.26.19.15,5.49,4.58,6.03,5.02.41.34.68.55.85.55.05,0,.1-.02.14-.06.17-.16,2.95-2.25,3.88-2.82.94-.56,1.6-1.06,2.03-1.1.43-.04,3.93-.59,5.73-.8,1.82-.2,2-.21,2.27-.24.06,0,.1,0,.12,0,.09,0-.02.04-.25.19-.08.05-.29.19-.6.41.05,0,.09,0,.11,0,.07,0-.04.04-.25.19-.14.09-.66.42-1.38.97-.02.02-.04.04-.07.05-.64.55-1.37,1.22-2.09,2.02-2.01,2.2-3.59,3.94-4.41,6.61-.7,2.27-.71,3.23-.7,3.9.38-1.35,1.45-3.85,4.68-7.86,2.12-2.63,3.44-3.55,5.01-4.69.3-.22.62-.44.93-.67,1.7-1.22,2.84-1.98,3.71-2.26.78-.26,2.25-.68,3.64-.91-.6-.07-1.06-.12-1.23-.19-.25-.08-.6-.37-.84-.71-.24-.34-.22-.73-.11-1.06.11-.34.89-2.22,1.01-2.61.05-.17.08-.28.05-.32h0s-.01-.02-.03-.02c-.05,0-.15.07-.31.23-.16.16-.57.55-1.04.97-.02,0-.03.02-.03.03-.56.49-1.18,1-1.56,1.19-.46.23-.76.41-1.36.41-.32,0-.72-.05-1.27-.17-1.61-.35-2.81-.82-3.82-1.31-1-.49-1.32-.55-1.4-1.06-.08-.52-.32-1.76-.34-3.2,0-.43.09-.59.45-.72.03,0,.09-.03.2-.06,0-.05,0-.11,0-.17,0-.45.09-.61.46-.74.37-.12,12.53-3.72,13.17-3.92.38-.11.78-.19,1.17-.19.28,0,.55.04.79.13.6.22,1.3.48,1.51,1.22.22.75,2.62,7.94,3.42,10.67.81,2.72,1.09,3.75,1.22,4.1.12.35.29.77-.06,1.17-.35.41-11.36,12.01-11.89,12.5-.53.5-.62.53-.52,1.17.09.63,1.32,13.72,1.39,14.21.08.5.52,2.47.64,3.34.78,5.72,2.85,9.32,4.22,10.87,1.37-.05,31.91-3.61,32.06-43.12.14-41.79-33.91-44.82-40.95-44.82h0Zm-1.77,30.95c-.11,0-.19-.08-.3-.32-.24-.57-2.2-4.4-2.58-5.28-.37-.88-.59-1.25-.16-1.48.13-.07.36-.18.67-.3-.23-.54-.29-.81.05-1,.44-.24,2.3-.97,3.43-1.29,1.11-.31,3.02-.95,3.47-1.1.21-.08.38-.13.52-.13.16,0,.27.07.35.25.14.34,2.87,6.47,3.01,6.86.14.4.2.52-.17.62-.08.03-.46.14-1,.29.05.13.09.21.1.24.14.39.19.5-.17.6-.36.1-6.56,1.85-6.9,1.95-.14.05-.24.08-.31.08h0Zm-6.73,5.89s-.1-.16-.25-.4c-.27-.43-1.34-2.1-2.74-4.32-1.4-2.22-1.82-2.96-2.02-3.44-.19-.42-.28-.37.47-1.04-.02-.03-.03-.07-.04-.1-.22-.49-.32-.36.81-1.35,1.11-.99,2.32-1.55,3.65-2.09,1.33-.52,1.84-.67,2.43-.68.02,0,.04,0,.06,0,.54,0,.59.12.76.43.18.33,2.37,5.31,2.67,5.94.3.64.19.58-.35.74-.09.03-.27.08-.51.14.03.08.07.14.08.18.29.62.19.57-.34.72-.52.14-3.78,1.19-4.2,1.36,0,0-.02,0-.03.02-.41.17-.54.29-.59.81-.02.22,0,.62.02,1.07.03.64.08,1.36.09,1.65.03.24.04.35.02.35h0Zm-4.68,7.85c-.24,0-.23-.07-.45-.31-.46-.46-1.03-1.16-1.91-2.37-.87-1.22-2.18-3.01-3.08-4.26-.9-1.26-2.05-3.3-2.25-3.8-.19-.49-.12-.55.12-1,0-.02.02-.03.03-.04-.15-.43-.07-.51.16-.95.46-.84,1.71-2.03,2.72-2.69,1.01-.67,1.81-.97,2.5-1.22.22-.08.4-.12.54-.12.3,0,.46.15.61.36.24.3,2.68,4.37,4.07,6.74,1.38,2.36,4,7.28,4.24,7.67.22.38.08.25-.65.43-.03,0-.08.02-.13.03.05.09.09.15.11.19.22.37.08.24-.62.41-.7.17-5.18.91-5.72.95-.13,0-.22.02-.29.02h0Zm-4.65,3.48c-.16,0-.29-.09-.56-.29-.54-.4-2.37-1.97-4.21-3.67-1.83-1.71-3.35-3.27-3.7-3.67-.3-.35-.47-.83-.32-1.27-.12-.32-.11-.67.08-1,.31-.52,1.46-2.24,3.02-3.44.36-.26,1.01-.7,1.52-.7.19,0,.37.06.51.22.51.57,5.76,7.93,7.3,10.16.24.37.35.43.18.74-.03.07-.15.19-.32.35,0,.06-.03.12-.08.2-.16.3-1.93,1.84-2.69,2.13-.37.15-.56.23-.72.23h0Z"/>
      </g>
      <path class="cls-5" d="m95.71,78.36c-.64.55-1.37,1.22-2.09,2.02-2.01,2.2-3.59,3.94-4.41,6.61-.7,2.27-.71,3.23-.7,3.9-.25.92-.19,1.3-.26,1.27-.18-.08-.18-.16-.17-.84,0-.68-.13-1.51.68-4.09.79-2.58,2.32-4.27,4.26-6.4.97-1.07,1.93-1.89,2.69-2.48Z"/>
      <path class="cls-5" d="m105.91,75.1c-1.48.19-3.14.67-3.98.95-.7.23-1.59.78-2.81,1.64,1.7-1.22,2.84-1.98,3.71-2.26.78-.26,2.25-.68,3.64-.91.28.03.58.07.9.11,1,.14.02.29-1.46.48Z"/>
      <path class="cls-5" d="m97.89,76.76c-.08.05-.29.19-.6.41h-.02c-.26.03-.44.04-2.2.24-1.75.2-5.13.73-5.55.78-.42.04-1.06.52-1.97,1.06-.89.54-3.6,2.57-3.76,2.73s-.43-.04-.95-.47-5.65-4.72-5.83-4.86c-.19-.14-.34-.4-.39-.12-.02.07-.03.13-.04.2.03-.5.04-.62.08-.82.05-.29.21-.03.41.13.19.15,5.49,4.58,6.03,5.02.54.45.82.66.99.49.17-.16,2.95-2.25,3.88-2.82.94-.56,1.6-1.06,2.03-1.1.43-.04,3.93-.59,5.73-.8,1.82-.2,2-.21,2.27-.24.26-.03.17,0-.13.19Z"/>
      <path class="cls-5" d="m104.11,91.84c.09.63,1.32,13.72,1.39,14.21.08.5.52,2.47.64,3.34.78,5.72,2.85,9.32,4.22,10.87h-.03c-.75,0-4.18-3.75-5.2-11.35-.12-.84-.55-2.75-.62-3.23-.08-.47-1.26-13.14-1.35-13.74-.08-.62,0-.65.51-1.13.52-.48,11.16-11.7,11.5-12.09.34-.39.18-.79.06-1.13-.13-.34-.4-1.33-1.18-3.97-.78-2.63-3.1-9.59-3.31-10.32-.2-.72-.88-.97-1.46-1.18-.57-.21-1.27-.13-1.9.06-.58.18-10.92,3.24-12.54,3.73,0-.05,0-.11,0-.17,0-.45.09-.61.46-.74.37-.12,12.53-3.72,13.17-3.92.65-.19,1.38-.28,1.97-.06.6.22,1.3.48,1.51,1.22.22.75,2.62,7.94,3.42,10.67.81,2.72,1.09,3.75,1.22,4.1.12.35.29.77-.06,1.17-.35.41-11.36,12.01-11.89,12.5-.53.5-.62.53-.52,1.17Z"/>
      <path class="cls-5" d="m87.46,77.56c-.03.07-.15.19-.32.35.03-.15-.08-.25-.24-.51-1.49-2.16-6.58-9.28-7.07-9.84-.48-.56-1.48.13-1.96.47-1.51,1.16-2.63,2.81-2.92,3.32-.03.07-.07.14-.09.21-.12-.32-.11-.67.08-1,.31-.52,1.46-2.24,3.02-3.44.5-.35,1.53-1.06,2.03-.48.51.57,5.76,7.93,7.3,10.16.24.37.35.43.18.74Z"/>
      <path class="cls-5" d="m94.94,75.42s-.08.02-.13.03c-.54-.98-2.76-5.13-3.98-7.23-1.35-2.29-3.71-6.22-3.93-6.52-.22-.3-.46-.48-1.11-.24-.67.24-1.44.54-2.41,1.18-.96.63-2.14,1.76-2.61,2.57-.15-.43-.07-.51.16-.95.46-.84,1.71-2.03,2.72-2.69,1.01-.67,1.81-.97,2.5-1.22.68-.25.92-.07,1.15.24.24.3,2.68,4.37,4.07,6.74,1.38,2.36,4,7.28,4.24,7.67.22.38.08.25-.65.43Z"/>
      <path class="cls-5" d="m98.43,62.85c-.09.03-.27.08-.51.14-.48-1.06-2.33-5.28-2.5-5.57-.17-.31-.21-.42-.79-.41-.57,0-1.06.14-2.36.65-1.28.51-2.45,1.06-3.53,2.02-.12.1-.22.19-.31.27-.02-.03-.03-.07-.04-.1-.22-.49-.32-.36.81-1.35,1.11-.99,2.32-1.55,3.65-2.09,1.33-.52,1.84-.67,2.43-.68.6,0,.64.11.82.43.18.33,2.37,5.31,2.67,5.94.3.64.19.58-.35.74Z"/>
      <path class="cls-5" d="m107.99,60.09c-.08.03-.46.14-1,.29-.51-1.2-2.68-6.1-2.81-6.39-.14-.33-.41-.27-.84-.12-.43.15-2.28.76-3.36,1.06-.77.22-1.9.64-2.64.95-.23-.54-.29-.81.05-1,.44-.24,2.3-.97,3.43-1.29,1.11-.31,3.02-.95,3.47-1.1.45-.16.73-.22.88.12.14.34,2.87,6.47,3.01,6.86.14.4.2.52-.17.62Z"/>
    </g>
  </g>
</svg>