<svg xmlns="http://www.w3.org/2000/svg" enable-background="new 0 0 2500 2500" viewBox="0 0 2500 2500" id="ProjectMilestone"><g fill="#000000" class="color000000 svgShape"><rect width="1905.69" height="26.08" x="220.91" y="1017.09" fill="#2e2f35" class="color2e3535 svgShape"></rect><g fill="#000000" class="color000000 svgShape"><g fill="#000000" class="color000000 svgShape"><g fill="#000000" class="color000000 svgShape"><circle cx="131.97" cy="1030.14" r="106.98" fill="#64adf6" transform="rotate(-45.001 131.96 1030.144)" class="color64b5f6 svgShape"></circle><circle cx="131.97" cy="1030.14" r="81" fill="#ffffff" class="colorffffff svgShape"></circle></g><g fill="#000000" class="color000000 svgShape"><g fill="#000000" class="color000000 svgShape"><g fill="#000000" class="color000000 svgShape"><path fill="#2e2f35" d="M135.45,1080.03l-66.82-70.3c-0.9-0.99-0.84-2.52,0.15-3.42l10.43-9.54c0.99-0.9,2.52-0.84,3.42,0.15
							l51.4,53.43l109.04-134.94c0.8-1.07,2.32-1.28,3.39-0.48l11.3,8.5c1.07,0.81,1.28,2.33,0.48,3.4L135.45,1080.03z" class="color2e3535 svgShape"></path></g></g></g></g><g fill="#000000" class="color000000 svgShape"><g fill="#000000" class="color000000 svgShape"><circle cx="619.57" cy="1030.14" r="106.98" fill="#64adf6" class="color64b5f6 svgShape"></circle><circle cx="619.57" cy="1030.14" r="81" fill="#ffffff" class="colorffffff svgShape"></circle></g><g fill="#000000" class="color000000 svgShape"><g fill="#000000" class="color000000 svgShape"><g fill="#000000" class="color000000 svgShape"><path fill="#2e2f35" d="M623.05,1080.03l-66.82-70.3c-0.9-0.99-0.84-2.52,0.15-3.42l10.43-9.54c0.99-0.9,2.52-0.84,3.42,0.15
							l51.4,53.43l109.04-134.94c0.81-1.07,2.32-1.28,3.39-0.48l11.29,8.5c1.07,0.81,1.28,2.33,0.48,3.4L623.05,1080.03z" class="color2e3535 svgShape"></path></g></g></g></g><g fill="#000000" class="color000000 svgShape"><g fill="#000000" class="color000000 svgShape"><circle cx="1107.14" cy="1030.17" r="106.98" fill="#64adf6" class="color64b5f6 svgShape"></circle><circle cx="1107.21" cy="1030.17" r="81" fill="#ffffff" class="colorffffff svgShape"></circle></g><g fill="#000000" class="color000000 svgShape"><g fill="#000000" class="color000000 svgShape"><g fill="#000000" class="color000000 svgShape"><path fill="#2e2f35" d="M1110.65,1080.03l-66.82-70.3c-0.9-0.99-0.84-2.52,0.15-3.42l10.43-9.54c0.99-0.9,2.52-0.84,3.42,0.15
							l51.4,53.43l109.04-134.94c0.8-1.07,2.32-1.28,3.39-0.48l11.3,8.5c1.07,0.81,1.28,2.33,0.48,3.4L1110.65,1080.03z" class="color2e3535 svgShape"></path></g></g></g></g><g fill="#000000" class="color000000 svgShape"><g fill="#000000" class="color000000 svgShape"><circle cx="1594.76" cy="1030.14" r="106.98" fill="#64adf6" class="color64b5f6 svgShape"></circle><circle cx="1594.76" cy="1030.14" r="81" fill="#ffffff" class="colorffffff svgShape"></circle></g><g fill="#000000" class="color000000 svgShape"><g fill="#000000" class="color000000 svgShape"><g fill="#000000" class="color000000 svgShape"><path fill="#2e2f35" d="M1598.24,1080.03l-66.82-70.3c-0.9-0.99-0.84-2.52,0.15-3.42l10.43-9.54c0.99-0.9,2.52-0.84,3.43,0.15
							l51.39,53.43l109.04-134.94c0.81-1.07,2.32-1.28,3.39-0.48l11.3,8.5c1.07,0.81,1.28,2.33,0.48,3.4L1598.24,1080.03z" class="color2e3535 svgShape"></path></g></g></g></g><g fill="#000000" class="color000000 svgShape"><g fill="#000000" class="color000000 svgShape"><circle cx="2082.37" cy="1030.08" r="106.98" fill="#64adf6" class="color64b5f6 svgShape"></circle><circle cx="2082.38" cy="1030.2" r="81" fill="#ffffff" class="colorffffff svgShape"></circle></g><g fill="#000000" class="color000000 svgShape"><g fill="#000000" class="color000000 svgShape"><g fill="#000000" class="color000000 svgShape"><path fill="#2e2f35" d="M2085.84,1080.03l-66.82-70.3c-0.9-0.99-0.84-2.52,0.15-3.42l10.43-9.54c0.99-0.9,2.52-0.84,3.43,0.15
							l51.4,53.43l109.04-134.94c0.8-1.07,2.32-1.28,3.39-0.48l11.3,8.5c1.07,0.81,1.28,2.33,0.48,3.4L2085.84,1080.03z" class="color2e3535 svgShape"></path></g></g></g></g></g><g fill="#000000" class="color000000 svgShape"><g fill="#000000" class="color000000 svgShape"><path fill="#2e2f35" d="M2113.87,561.75v315.59c0,2.59-2.12,4.68-4.68,4.68c-2.59,0-4.68-2.09-4.68-4.68V561.75
				c0-0.81,0.22-1.59,0.59-2.25l6.68-1.62h0.03C2113.06,558.72,2113.87,560.13,2113.87,561.75z" class="color2e3535 svgShape"></path></g><path fill="#5678fa" d="M2340.53,601.85l-103.63,51.33c-8.46,4.15-18.66,0.78-22.94-7.61l-4.87-9.55
			c-3.56-6.99-11.92-10.05-19.16-6.96l-76.07,32.33l-9.36,3.96v-103.6c0-0.81,0.22-1.59,0.59-2.25l6.68-1.62h0.03l86.37-20.88
			c8.92-2.15,17.97,3.12,20.53,11.95l3.15,10.61c2.37,7.99,10.86,12.48,18.82,9.98l91.83-28.86l-40.47,50.14L2340.53,601.85z" class="colorfa5669 svgShape"></path></g><g fill="#000000" class="color000000 svgShape"><g fill="#000000" class="color000000 svgShape"><g fill="#000000" class="color000000 svgShape"><g fill="#000000" class="color000000 svgShape"><rect width="36.74" height="65.68" x="2338.4" y="1872.81" fill="#9bc9f7" transform="rotate(-2.807 2357.004 1905.346)" class="colorf7c19b svgShape"></rect><g fill="#000000" class="color000000 svgShape"><g fill="#000000" class="color000000 svgShape"><path fill="#c2ccd6" d="M2283.91,1963.47h90.76c2.35,0,4.25-1.9,4.25-4.25v-4.42h-99.25v4.42
								C2279.66,1961.57,2281.56,1963.47,2283.91,1963.47z" class="colorc2cbd6 svgShape"></path><path fill="#021b79" d="M2279.66,1957.75c0.19,0.04,0.38,0.06,0.58,0.06h97.88c0.27,0,0.53-0.03,0.79-0.07
								c1.99-0.37,3.49-2.11,3.49-4.21v-32.85c0-4.55-4.65-7.61-8.85-5.83c-11.13,4.72-22.6,4.56-34.49-1.18
								c-1.52-0.74-3.34-0.48-4.57,0.67l-3.96,3.71l-0.14,0.13l-0.59,0.56c-0.7,0.66-1.43,1.28-2.17,1.88
								c-0.07,0.07-0.16,0.13-0.23,0.19c-3.64,2.91-7.78,5.16-12.22,6.58c-0.14,0.05-0.29,0.09-0.43,0.13
								c-0.96,0.31-1.96,0.57-2.95,0.78c-0.21,0.05-0.43,0.09-0.63,0.15c-0.02,0-0.03,0-0.04,0.01
								c-23.7,5.42-31.72,19.46-33.82,25.26C2276.65,1955.51,2277.84,1957.4,2279.66,1957.75z" class="color37424c svgShape"></path></g><g fill="#000000" class="color000000 svgShape"><g fill="#000000" class="color000000 svgShape"><path fill="#e1e4e8" d="M2326.92,1927.17c-0.06,0.76,0.52,1.43,1.29,1.49h0.15c0.7-0.03,1.29-0.58,1.34-1.29l0.5-6.57l0.2-2.63
									l-0.59,0.56c-0.7,0.66-1.43,1.28-2.17,1.88c-0.07,0.07-0.16,0.13-0.23,0.19L2326.92,1927.17z" class="colore1e3e8 svgShape"></path></g><g fill="#000000" class="color000000 svgShape"><path fill="#e1e4e8" d="M2327.63,1920.61l2.57,0.19l6.56,0.5c0.05,0.01,0.11,0.01,0.16,0.01c0.7-0.03,1.28-0.58,1.34-1.29
									c0.07-0.76-0.51-1.43-1.28-1.49l-6.44-0.49l-0.14,0.13l-0.59,0.56C2329.09,1919.38,2328.37,1920.01,2327.63,1920.61z" class="colore1e3e8 svgShape"></path></g></g><g fill="#000000" class="color000000 svgShape"><g fill="#000000" class="color000000 svgShape"><path fill="#e1e4e8" d="M2311.14,1928.44l-3.03,5.82c-0.35,0.68-0.09,1.52,0.59,1.87c0.13,0.07,0.26,0.11,0.4,0.14
									c0.58,0.1,1.19-0.18,1.48-0.73l3.04-5.83l1.14-2.2c-0.96,0.31-1.96,0.57-2.95,0.78c-0.21,0.05-0.43,0.09-0.63,0.15
									L2311.14,1928.44z" class="colore1e3e8 svgShape"></path></g><g fill="#000000" class="color000000 svgShape"><path fill="#e1e4e8" d="M2311.18,1928.43l2.44,1.27l5.84,3.04c0.13,0.06,0.26,0.11,0.4,0.14c0.58,0.1,1.19-0.18,1.47-0.73
									c0.36-0.68,0.09-1.52-0.58-1.87l-5.57-2.9c-0.14,0.05-0.29,0.09-0.43,0.13c-0.96,0.31-1.96,0.57-2.95,0.78
									C2311.59,1928.33,2311.38,1928.37,2311.18,1928.43z" class="colore1e3e8 svgShape"></path></g></g></g></g><g fill="#000000" class="color000000 svgShape"><rect width="65.68" height="36.74" x="2186.33" y="1889.38" fill="#9bc9f7" transform="rotate(-85.498 2219.17 1907.78)" class="colorf7c19b svgShape"></rect><g fill="#000000" class="color000000 svgShape"><g fill="#000000" class="color000000 svgShape"><path fill="#c2ccd6" d="M2144.34,1963.47h90.76c2.35,0,4.25-1.9,4.25-4.25v-4.42h-99.25v4.42
								C2140.09,1961.57,2141.99,1963.47,2144.34,1963.47z" class="colorc2cbd6 svgShape"></path><path fill="#021b79" d="M2140.09,1957.75c0.19,0.04,0.38,0.06,0.58,0.06h97.88c0.27,0,0.53-0.03,0.79-0.07
								c1.98-0.37,3.49-2.11,3.49-4.21v-32.85c0-4.55-4.65-7.61-8.85-5.83c-11.13,4.72-22.6,4.56-34.49-1.18
								c-1.52-0.74-3.34-0.48-4.57,0.67l-3.96,3.71l-0.14,0.13l-0.59,0.56c-0.71,0.66-1.43,1.28-2.17,1.88
								c-0.07,0.07-0.16,0.13-0.23,0.19c-3.64,2.91-7.78,5.16-12.21,6.58c-0.14,0.05-0.29,0.09-0.43,0.13
								c-0.96,0.31-1.96,0.57-2.95,0.78c-0.21,0.05-0.43,0.09-0.63,0.15c-0.02,0-0.03,0-0.04,0.01
								c-23.7,5.42-31.72,19.46-33.82,25.26C2137.09,1955.51,2138.27,1957.4,2140.09,1957.75z" class="color37424c svgShape"></path></g><g fill="#000000" class="color000000 svgShape"><g fill="#000000" class="color000000 svgShape"><path fill="#e1e4e8" d="M2187.35,1927.17c-0.06,0.76,0.52,1.43,1.29,1.49h0.15c0.71-0.03,1.29-0.58,1.34-1.29l0.5-6.57
									l0.19-2.63l-0.59,0.56c-0.71,0.66-1.43,1.28-2.17,1.88c-0.07,0.07-0.16,0.13-0.23,0.19L2187.35,1927.17z" class="colore1e3e8 svgShape"></path></g><g fill="#000000" class="color000000 svgShape"><path fill="#e1e4e8" d="M2188.06,1920.61l2.57,0.19l6.56,0.5c0.06,0.01,0.11,0.01,0.16,0.01c0.7-0.03,1.28-0.58,1.34-1.29
									c0.06-0.76-0.51-1.43-1.28-1.49l-6.44-0.49l-0.14,0.13l-0.59,0.56C2189.53,1919.38,2188.8,1920.01,2188.06,1920.61z" class="colore1e3e8 svgShape"></path></g></g><g fill="#000000" class="color000000 svgShape"><g fill="#000000" class="color000000 svgShape"><path fill="#e1e4e8" d="M2171.57,1928.44l-3.03,5.82c-0.35,0.68-0.09,1.52,0.59,1.87c0.13,0.07,0.26,0.11,0.4,0.14
									c0.58,0.1,1.19-0.18,1.47-0.73l3.04-5.83l1.14-2.2c-0.96,0.31-1.96,0.57-2.95,0.78c-0.21,0.05-0.43,0.09-0.63,0.15
									L2171.57,1928.44z" class="colore1e3e8 svgShape"></path></g><g fill="#000000" class="color000000 svgShape"><path fill="#e1e4e8" d="M2171.61,1928.43l2.44,1.27l5.84,3.04c0.13,0.06,0.26,0.11,0.4,0.14c0.58,0.1,1.19-0.18,1.47-0.73
									c0.36-0.68,0.09-1.52-0.58-1.87l-5.57-2.9c-0.14,0.05-0.29,0.09-0.43,0.13c-0.96,0.31-1.96,0.57-2.95,0.78
									C2172.02,1928.33,2171.81,1928.37,2171.61,1928.43z" class="colore1e3e8 svgShape"></path></g></g></g></g><rect width="44.35" height="68.37" x="2271.24" y="1155.25" fill="#9bc9f7" class="colorf7c19b svgShape"></rect><g fill="#000000" class="color000000 svgShape"><path fill="#9bc9f7" d="M2292.42,1088.8l-26.82,5.38c0,0-32.35,48.54-4.49,73.01c10.63,9.34,25.97,11.34,38.92,5.64
						c6.96-3.06,14.2-8.39,18.94-17.62l8.92-43.35L2292.42,1088.8z" class="colorf7c19b svgShape"></path><path fill="#333333" d="M2315.59,1175.89l-5.55-20.1c0,0,9.44-7.4,5.89-16.89c-1.61-4.29-6.01-7.17-10.49-6.19
						c-3.8,0.83-6.94,6.5-8.36,10.33l-4.99-1.83c0,0,12.39-52.08-27.5-45.43c0,0-10.31-6.5-1.32-16.99c0,0-5.88-19.09,20.42-11.91
						c0,0,9.24-7.85,25.29,6.25c0,0,28.67-16.14,36.63,21.21c0,0,27.45,31.76-11.31,61.14c-1.74,1.32-3.61,2.46-5.52,3.54
						C2326.2,1160.49,2318.67,1167.08,2315.59,1175.89z" class="color333333 svgShape"></path></g><polygon fill="#021b79" points="2238.07 1430.77 2212.48 1435.9 2191.67 1893.98 2250.21 1893.98 2292.83 1534.4 2327.48 1893.98 2384.17 1893.98 2374.19 1435.9 2304.16 1428.64" class="color37424c svgShape"></polygon><path fill="#0338ff" d="M2293.34,1206.72v244c33.83,0.53,63.14-3.26,75.71-5.39c4.77-0.81,8.3-4.89,8.37-9.73
					c0.07-4.35,2.34-105.87,6.18-132.48l33.3,29.21l11.32,15.41l29.74,12.62l4.79-4.83c15.01-15.19,16.39-39.18,3.22-55.98
					l-54.19-69.14c-9.32-11.89-22.52-20.14-37.29-23.31l-45.02-9.73l-17.54-3.79c-5.34,9.17-14.04,16.24-14.85,16.89
					L2293.34,1206.72z" class="colorffb703 svgShape"></path><path fill="#0637ef" d="M2297.02,1210.51l8.33,8.33l3.59,3.59c15.57-15.02,20.62-24.99,20.62-24.99l-0.09-0.08l-13.88-11.97
					c-0.72,2.83-2.15,5.59-3.66,8.19c-5.34,9.17-14.04,16.24-14.85,16.89C2297.05,1210.5,2297.02,1210.51,2297.02,1210.51z" class="colorefa706 svgShape"></path><path fill="#0338ff" d="M2213.22,1293.83c3.85,26.61-3.38,142.48-3.29,149.53c0.47,0.11,35.49,8.11,83.4,7.36v-244l-3.75,3.75
					c-0.81-0.65-9.51-7.72-14.85-16.89l-17.54,3.79l-45.02,9.73c-10.51,2.26-20.22,7.08-28.31,13.96
					c-5.53,4.7-56.42,78.36-56.42,78.36l-72.08-71.52l-31.87,27.85l67.27,82.22c21.31,26.04,60.93,26.63,83.01,1.23L2213.22,1293.83
					z" class="colorffb703 svgShape"></path><path fill="#0637ef" d="M2289.65,1210.51l-8.33,8.33l-3.59,3.59c-15.57-15.02-20.62-24.99-20.62-24.99l0.09-0.08l14.05-11.97
					c0.72,2.83,1.99,5.59,3.49,8.19c5.34,9.17,14.04,16.24,14.85,16.89C2289.63,1210.5,2289.65,1210.51,2289.65,1210.51z" class="colorefa706 svgShape"></path><polygon fill="#5678fa" points="2314.98 1396.46 2293.34 1428.64 2271.69 1396.46 2286.08 1223.62 2281.32 1218.84 2281.26 1218.79 2293.34 1206.72 2305.41 1218.79 2305.36 1218.84 2300.59 1223.62" class="colorfa5669 svgShape"></polygon><g fill="#000000" class="color000000 svgShape"><g fill="#000000" class="color000000 svgShape"><g fill="#000000" class="color000000 svgShape"><g fill="#000000" class="color000000 svgShape"><g fill="#000000" class="color000000 svgShape"><g fill="#000000" class="color000000 svgShape"><rect width="47.33" height="541.75" x="2135.1" y="1042.9" fill="#0575e6" transform="rotate(-60.877 2158.712 1313.74)" class="color42a5f5 svgShape"></rect><path fill="#9bc9f7" d="M1933.61,1161.31c2.04,4.18,0.49,11.62-2.84,19.06c-1.52,3.39-3.41,6.78-5.49,9.85
											c-4.57,6.74-10.08,11.98-14.7,12.44c0,0.01-0.01,0-0.01,0l-25.05-28.14l-22.78-25.6l33.76,5.9L1933.61,1161.31z" class="colorf7c19b svgShape"></path></g></g><path fill="#0575e6" d="M2444.68,1456.12l-14.46,25.96c-2.37,4.25-7.73,5.78-11.98,3.41l-26.86-14.96l23.04-41.35l26.86,14.96
									C2445.52,1446.5,2447.05,1451.87,2444.68,1456.12z" class="color42a5f5 svgShape"></path><rect width="47.33" height="15.95" x="2374.35" y="1439.09" fill="#eceef1" transform="rotate(-60.877 2397.954 1447.025)" class="colorecf0f1 svgShape"></rect></g></g><polygon fill="#333333" points="1896.5 1154.82 1885.53 1174.52 1862.74 1148.92" class="color333333 svgShape"></polygon></g><path fill="#64adf6" d="M1930.77,1180.36l462.96,257.93l-5.49,9.85l-462.96-257.93
						C1927.37,1187.14,1929.26,1183.76,1930.77,1180.36z" class="color64b5f6 svgShape"></path></g><g fill="#000000" class="color000000 svgShape"><path fill="#9bc9f7" d="M2367.36,1401.88l-12.51,6.24c-2.43,1.21-5.26,1.31-7.77,0.26l-10.21-4.26c-1.57-0.66-3.39-0.16-4.41,1.21
						l0,0c-1.34,1.79-0.81,4.35,1.13,5.46l8.94,5.12c0,0-32.99,16.77-14.12,23.5c0,0-4.15,9.66,7.14,6.47c0,0-2.84,10.61,7.29,6.63
						c0,0-1.57,8.79,7.05,4.76c1.94-0.91,3.7-2.17,5.25-3.66l30.17-29.04L2367.36,1401.88z" class="colorf7c19b svgShape"></path><g fill="#000000" class="color000000 svgShape"><path fill="#0338ff" d="M2354.79,1406.41l62.11-74.08c0,0,21.61-9.01,41.06,28.03l-81.85,75.24L2354.79,1406.41z" class="colorffb703 svgShape"></path><path fill="#0637ef" d="M2376.12,1435.59c-7.55-9.4-14.76-19.06-21.86-28.79l-0.31-0.42l0.34-0.4
							c2.66-3.14,8.07-9.43,10.78-12.52c3.63-4.15,7.3-8.25,11.05-12.3c-3.36,4.37-6.79,8.68-10.28,12.95
							c-2.6,3.2-7.89,9.57-10.54,12.72l0.03-0.82C2362.44,1415.75,2369.45,1425.55,2376.12,1435.59L2376.12,1435.59z" class="colorefa706 svgShape"></path></g></g></g><path fill="#9bc9f7" d="M2048.45,1226.36c2.02-1.83,1.6-5.13-0.77-6.48l-32.19-18.35c-2.02-1.15-4.57-0.37-5.63,1.69
				c-2.91,5.69-15.38,14.98-3.28,16.81c0,0,0.88,6.47,8.57,3.39c0,0,0.14,7.26,7.54,3.91c0,0,0.84,6.98,8.38,2.51
				c0,0-0.96,5.56,3.76,5.55c1.3,0,2.54-0.5,3.57-1.29L2048.45,1226.36z" class="colorf7c19b svgShape"></path></g></g><g fill="#000000" class="color000000 svgShape"><g fill="#000000" class="color000000 svgShape"><path fill="#28292d" d="M131.98,856.62L131.98,856.62c-21.76,0-39.4-17.64-39.4-39.4v-34.37h78.8v34.37
				C171.38,838.98,153.74,856.62,131.98,856.62z" class="color282d2d svgShape"></path><path fill="#0338ff" d="M223.32,705.47c-4.81,11.6-11.83,22.08-19.72,31.85c-9.36,11.53-15.7,26.22-19.45,43.63
				c-1.3,6.02-6.68,10.3-12.83,10.3h-78.7c-6.15,0-11.53-4.28-12.83-10.29c-3.75-17.41-10.09-32.1-19.42-43.63
				c-7.92-9.77-14.92-20.25-19.7-31.85c-21.51-52.16-7.82-104.12,39.37-130.2c32.19-17.78,71.7-17.78,103.89,0
				C231.12,601.35,244.8,653.31,223.32,705.47z" class="colorffb703 svgShape"></path><path fill="#2f3036" d="M175.99 813.03H87.97c-3.24 0-5.87-2.63-5.87-5.87l0 0c0-3.24 2.63-5.87 5.87-5.87h88.02c3.24 0 5.87 2.63 5.87 5.87l0 0C181.86 810.4 179.23 813.03 175.99 813.03zM175.99 831.47H87.97c-3.24 0-5.87-2.63-5.87-5.87l0 0c0-3.24 2.63-5.87 5.87-5.87h88.02c3.24 0 5.87 2.63 5.87 5.87l0 0C181.86 828.84 179.23 831.47 175.99 831.47z" class="color2f3636 svgShape"></path></g><g fill="#000000" class="color000000 svgShape"><g fill="#000000" class="color000000 svgShape"><path fill="#ffffff" d="M186.69,669.16c-3.57-4.69-8.99-7.62-14.87-8.05c-11.03-0.78-20.91,7.6-21.9,18.72l-1.69,22.15h-16.27
					c-1.26,0-2.29,1.03-2.29,2.29c0,1.28,1.03,2.29,2.29,2.29h15.9l-6.5,84.7h4.6l6.5-84.7h12.45c12.35,0,23.11-8.78,25.56-20.91
					C191.64,679.87,190.26,673.85,186.69,669.16z M185.98,684.74c-2.01,9.97-10.89,17.23-21.07,17.23h-12.1l1.67-21.78
					c0.75-8.6,8.33-15.12,17.02-14.51c4.55,0.32,8.76,2.61,11.55,6.25C185.82,675.57,186.9,680.23,185.98,684.74z" class="colorffffff svgShape"></path></g><g fill="#000000" class="color000000 svgShape"><path fill="#ffffff" d="M131.97,701.97h-16.24l-1.69-22.17c-0.98-11.1-10.8-19.47-21.89-18.69c-5.88,0.43-11.3,3.36-14.87,8.05
					s-4.94,10.71-3.77,16.47c2.45,12.13,13.2,20.91,25.55,20.91h12.44l6.5,84.7h4.6l-6.5-84.7h15.88c1.28,0,2.29-1.01,2.29-2.29
					C134.26,703,133.25,701.97,131.97,701.97z M99.05,701.97c-10.18,0-19.06-7.25-21.07-17.23c-0.92-4.51,0.16-9.17,2.93-12.81
					s7-5.92,11.55-6.25c0.39-0.02,0.75-0.05,1.12-0.05c8.17,0,15.17,6.31,15.88,14.53l1.69,21.8L99.05,701.97L99.05,701.97z" class="colorffffff svgShape"></path></g></g></g></g></svg>