<svg xmlns="http://www.w3.org/2000/svg" enable-background="new 0 0 650 700" viewBox="0 0 650 700" id="ReferralProgram"><g fill="#000000" class="color000000 svgShape"><path fill="#b2d8ff" d="M432.3,560.6l-8.5,14.4l-13,2.2l-5-23.6l0.3-9.7l0.2-5.8c0,0,23.5-5,23.8-4.9c0.2,0,1,10.5,1.6,18.5       C432,556.6,432.3,560.6,432.3,560.6z" class="colorffc5b2 svgShape"></path><polygon points="405.8 543 431.8 553.3 430.5 539.7" fill="#000000" class="color000000 svgShape"></polygon><path fill="#343847" d="M404.4,574.3c-6.3-1.4-15.2-5.3-18.9-9.8c-2.2-2.6-3.5-7-1.2-9.2c1.8-1.8,4.4-1,6.7,0.3         c4.6,2.7,8.2,6.7,11.6,10.5l-1,0.9c-3.4-3.7-6.9-7.6-11.3-10.2c-6-3.5-7.6,2.1-3.7,6.9c3.5,4.1,11.9,8,18.2,9.4L404.4,574.3z         " class="color453447 svgShape"></path><path fill="#343847" d="M400.4,568.5c-2.2-0.9-4.1-2.5-5.4-4.6c-2.2-3.7-1.6-7.3,0.7-9.2c2.8-2.4,7.1-1.4,8.2,4.2         c0.1,0.6,0.2,1.1,0.3,1.7c0.2,1.7,0.6,4,2,5c0.5,0.4,1.1,0.5,1.6,0.4l0.4,1.3c-0.9,0.2-1.9,0-2.8-0.6c-1.8-1.3-2.3-3.8-2.6-6         c-0.1-0.5-0.2-1.1-0.3-1.6c-0.9-4.4-3.9-5.1-6-3.4c-3.2,2.7-1.2,9.2,4.3,11.5L400.4,568.5z" class="color453447 svgShape"></path><path fill="#52a8ff" d="M433.9,593.2l-66.4-0.1c0,0-2.7-11.6,18.7-15.6c0,0,16.7-10.1,19.7-24.2c0,0,6-1,4,6.8         c-0.1,0.2-0.1,0.3-0.1,0.4c0,0,0,0,0,0.1c0,0,22.8,0.2,22.6,0C432.1,560.4,433.9,593.2,433.9,593.2z" class="colorffd552 svgShape"></path><path fill="#181b26" d="M367.9,588.8c-0.9,2.5-0.4,4.3-0.4,4.3l66.4,0.1c0,0-0.1-1.7-0.2-4.3L367.9,588.8z" class="color231826 svgShape"></path><path fill="#dcedff" d="M409.9,560.1c-0.1,0.2-0.1,0.3-0.1,0.4c0,0,0,0,0,0.1c0,0-5.3,20.8-23.5,16.9c0,0,16.7-10.1,19.7-24.2         C405.9,553.3,411.9,552.3,409.9,560.1z" class="colordcebff svgShape"></path><path fill="#343847" d="M410.8 563.9l-10.2 0c-.4 0-.7-.3-.7-.7 0-.4.3-.7.7-.7l10.2 0c.4 0 .7.3.7.7C411.4 563.6 411.1 563.9 410.8 563.9zM406.8 570.6l-11.7-.8c-.4 0-.6-.3-.6-.7 0-.4.3-.6.7-.6l11.7.8c.4 0 .6.3.6.7C407.5 570.3 407.1 570.6 406.8 570.6zM401.8 575.8c-.2 0 .3.1-9.6-3.1-.4-.1-.5-.5-.4-.8.1-.4.5-.5.8-.4l9.4 3.1c.4.1.5.5.4.8C402.4 575.6 402.1 575.8 401.8 575.8zM395.4 579.5l-7-4.1c-.3-.2-.4-.6-.2-.9.2-.3.6-.4.9-.2l7 4.1c.3.2.4.6.2.9C396.2 579.6 395.8 579.7 395.4 579.5z" class="color453447 svgShape"></path><g fill="#000000" class="color000000 svgShape"><path fill="#b2d8ff" d="M320.5,241.7l-17.2-15c-1-1.3-2.9-1.6-4.3-0.6l0,0c-1.3,1-1.6,2.8-0.8,4.1l3.6,5.6         c0,0-15.3-0.9-24.7-4.2c-1.5-0.5-3.1,0.3-3.6,1.8v0c-0.4,1.4,0.3,2.9,1.8,3.4l15.6,5.3c0,0-9.3-0.9-15.6-2.8         c-1.5-0.5-3,0.4-3.4,1.9l0,0.1c-0.3,1.5,0.5,2.9,2,3.3c5.3,1.3,16.9,4.3,16.6,4.3c-0.3,0-10.9-1-16.8-2.3         c-1.4-0.3-2.8,0.6-3.1,2v0c-0.2,1.3,0.6,2.6,2,2.9l15.9,3.6l-8.6,0.5c-1.4,0.1-2.3,1.3-2.1,2.6l0,0c0.2,1.1,1.1,1.9,2.2,1.9         l28.9,8.3L320.5,241.7z" class="colorffc5b2 svgShape"></path><path fill="#181b26" d="M309.2,243.4c-3.5-0.7-6.5-3.6-7.2-7.1l1-0.2c0.6,3.1,3.3,5.7,6.4,6.3L309.2,243.4z" class="color231826 svgShape"></path><path fill="#b2d8ff" d="M163,554.3l10,16.9l15.1,2.6l5.9-27.6l-0.3-11.4l-0.2-6.8c0,0-27.5-5.8-27.8-5.8          c-0.2,0.1-1.2,12.3-1.8,21.6C163.3,549.6,163,554.3,163,554.3z" class="colorffc5b2 svgShape"></path><path fill="#343847" d="M195.5,570.3c7.4-1.7,17.7-6.2,22.1-11.5c2.5-3,4.1-8.2,1.4-10.8c-2.2-2.1-5.2-1.2-7.8,0.3            c-5.4,3.2-9.6,7.8-13.6,12.2l1.2,1.1c3.9-4.4,8-8.9,13.2-11.9c1.9-1.1,4.3-2,5.8-0.6c1.9,1.9,0.5,6.1-1.5,8.6            c-4.1,4.8-14,9.3-21.2,10.9L195.5,570.3z" class="color453447 svgShape"></path><path fill="#343847" d="M200.2,563.6c2.6-1.1,4.8-2.9,6.3-5.3c2.6-4.3,1.9-8.6-0.8-10.8c-3.3-2.8-8.3-1.6-9.6,4.8            c-0.5,2.6-0.5,6.3-2.7,7.8c-0.6,0.4-1.3,0.6-1.9,0.4l-0.4,1.6c1.1,0.3,2.3,0,3.3-0.7c2.8-1.9,2.8-6.1,3.3-8.8            c1-5.2,4.6-6,7-3.9c2,1.7,2.6,5.1,0.4,8.7c-1.3,2.1-3.2,3.7-5.5,4.7L200.2,563.6z" class="color453447 svgShape"></path><path fill="#81c0ff" d="M161,592.4h77.6c0,0,3.1-13.5-21.9-18.3c0,0-19.5-11.9-22.9-28.3c0,0-7-1.2-4.6,8            c0.1,0.2,0.1,0.4,0.1,0.4c0,0,0,0,0,0.1c0,0-26.6,0.2-26.4,0C163.2,554.1,161,592.4,161,592.4z" class="colorff8281 svgShape"></path><path fill="#181b26" d="M238.1,587.3c1,2.9,0.5,5.1,0.5,5.1h-77.6c0,0,0.1-2,0.3-5.1H238.1z" class="color231826 svgShape"></path><path fill="#dcedff" d="M189.2,553.8c0.1,0.2,0.1,0.4,0.1,0.4c0,0,0,0,0,0.1c0,0,6.1,24.3,27.4,19.8c0,0-19.5-11.9-22.9-28.3            C193.9,545.8,186.9,544.6,189.2,553.8z" class="colordcebff svgShape"></path><path fill="#343847" d="M188.1 558.2H200c.4 0 .8-.4.8-.8 0-.4-.4-.8-.8-.8h-11.9c-.4 0-.8.4-.8.8C187.4 557.8 187.7 558.2 188.1 558.2zM192.8 566l13.7-.9c.4 0 .8-.4.7-.8 0-.4-.4-.8-.8-.7l-13.7.9c-.4 0-.8.4-.7.8C192 565.7 192.4 566 192.8 566zM198.8 572.1l11-3.6c.4-.1.6-.6.5-1-.1-.4-.6-.6-1-.5l-11 3.6c-.4.1-.6.6-.5 1C198 572 198.4 572.2 198.8 572.1zM206 576.4l8.1-4.8c.4-.2.5-.7.3-1.1-.2-.4-.7-.5-1.1-.3l-8.1 4.8c-.4.2-.5.7-.3 1.1C205.2 576.5 205.6 576.7 206 576.4z" class="color453447 svgShape"></path><path fill="#b2d8ff" d="M45.6,511l-6,18.7l8.2,13l24.5-14l8.3-7.8l5-4.7c0,0-13.9-24.4-14.2-24.6c-0.2-0.1-9.9,7.3-17.4,13          C49.3,508.1,45.6,511,45.6,511z" class="colorffc5b2 svgShape"></path><path fill="#343847" d="M55.4,546c6.1,4.4,16.4,9.1,23.3,8.9c3.9-0.1,8.9-2.4,9-6.1c0.1-3-2.6-4.7-5.4-5.6            c-5.9-1.9-12.2-2-18.2-2l0,1.6c5.9,0,12,0.1,17.7,1.9c2,0.7,4.4,1.8,4.3,4c-0.1,2.7-4.2,4.5-7.4,4.6            c-6.3,0.2-16.2-4.2-22.3-8.6L55.4,546z" class="color453447 svgShape"></path><path fill="#343847" d="M63.5,545c2.5,1.2,5.4,1.6,8.2,1.1c4.9-0.9,7.6-4.3,7.5-7.7c-0.1-4.3-4.3-7.3-10-3.9            c-2.2,1.3-5.1,3.8-7.6,3.2c-0.7-0.2-1.3-0.6-1.6-1.1l-1.4,0.7c0.5,1,1.5,1.7,2.7,2c3.3,0.8,6.5-2,8.8-3.4            c4.5-2.7,7.5-0.6,7.6,2.6c0.1,2.6-2.1,5.4-6.2,6.1c-2.4,0.4-5,0.1-7.2-1L63.5,545z" class="color453447 svgShape"></path><path fill="#81c0ff" d="M15.9,535l51.7,57.9c0,0,12.2-6.7-0.9-28.5c0,0-4.1-22.5,5.8-35.9c0,0-3.8-6-9,1.8            c-0.1,0.2-0.2,0.3-0.3,0.4c0,0,0,0,0,0.1c0,0-17.9-19.7-17.6-19.7C45.9,511,15.9,535,15.9,535z" class="colorff8281 svgShape"></path><path fill="#181b26" d="M71,589.1c-1.5,2.7-3.4,3.7-3.4,3.7L15.9,535c0,0,1.6-1.2,4-3.2L71,589.1z" class="color231826 svgShape"></path><path fill="#dcedff" d="M63.5,530.3c-0.1,0.2-0.2,0.3-0.3,0.4c0,0,0,0,0,0.1c0,0-14.1,20.7,3.5,33.7c0,0-4.1-22.5,5.8-35.9            C72.5,528.4,68.7,522.4,63.5,530.3z" class="colordcebff svgShape"></path><path fill="#343847" d="M59.5 532.4l7.9 8.9c.3.3.8.4 1.1.1.3-.3.4-.8.1-1.1l-7.9-8.9c-.3-.3-.8-.4-1.1-.1S59.2 532.1 59.5 532.4zM56.7 541.1l9.8 9.6c.3.3.8.3 1.1 0 .3-.3.3-.8 0-1.1l-9.8-9.6c-.3-.3-.8-.3-1.1 0C56.4 540.3 56.4 540.8 56.7 541.1zM56.2 549.6l10 5.9c.4.2.9.1 1.1-.3.2-.4.1-.9-.3-1.1l-10-5.9c-.4-.2-.9-.1-1.1.3C55.7 548.9 55.8 549.4 56.2 549.6zM57.7 557.9l9 2.9c.4.1.9-.1 1-.5.1-.4-.1-.9-.5-1l-9-2.9c-.4-.1-.9.1-1 .5C57.1 557.3 57.3 557.8 57.7 557.9z" class="color453447 svgShape"></path><g fill="#000000" class="color000000 svgShape"><path fill="#021b79" d="M214,535.9c0,0-62.1,9.3-62.4,8.1c-0.4-1.3,15.7-79.9,13.9-106.5c-0.5-7.3-1.8-17.8-3.6-29.6         c-4-26.7-10.4-75.5-14.8-97.4c-2.6-13.3-4.5-22.2-4.7-22.4c0.2,0.1,4.2,1,10,2.5c4,1,8.8,2.1,13.9,3.3         c16.3,3.9,31.1,0.7,31.1,0.7s19.2,97.6,21.4,123C221.5,447.3,214,535.9,214,535.9z" class="color394084 svgShape"></path></g><g fill="#000000" class="color000000 svgShape"><path d="M174.4,300.7l-11.3,108.5l-1.1-1.4c-4-26.7-10.4-75.5-14.8-97.4l5.3-20l1.9-7l12,10.3L174.4,300.7z" fill="#000000" class="color000000 svgShape"></path></g><g fill="#000000" class="color000000 svgShape"><path fill="#021b79" d="M171,289.4l-7.3,109.7c0.1,14.3-4.1,28.4-11.9,40.4c-18.9,28.8-63.2,91.9-63.2,91.9l-46.5-39.6l59.9-87         c-3.4-37.1,0.5-84.5,5.1-111.1L171,289.4z" class="color394084 svgShape"></path></g><g fill="#000000" class="color000000 svgShape"><path fill="#ffffff" d="M53.4,498.3l-0.8-0.6l59.8-86.9c-3.3-36.8,0.3-83.3,5.1-111.1l1,0.2c-4.8,27.7-8.4,74.3-5.1,111l0,0.2         l-0.1,0.1L53.4,498.3z" class="colorffffff svgShape"></path></g><g fill="#000000" class="color000000 svgShape"><path fill="#ffffff" d="M92.7,514.4c-9.5-5.9-18.3-12.8-26.1-20.8l0.7-0.7c7.8,7.9,16.5,14.8,25.9,20.6L92.7,514.4z" class="colorffffff svgShape"></path></g><g fill="#000000" class="color000000 svgShape"><path fill="#ffffff" d="M159.3,533.3l-1-0.1c0.8-11.4,4.3-22.9,7.6-34.1c3.3-11.1,6.8-22.6,7.6-33.8c1.1-14.8,2.2-31.6-3.4-46.5         l0.9-0.4c5.7,15.1,4.5,32,3.5,47c-0.8,11.4-4.3,22.9-7.6,34.1C163.5,510.5,160.1,522,159.3,533.3z" class="colorffffff svgShape"></path></g><g fill="#000000" class="color000000 svgShape"><path fill="#ffffff" d="M189.2,522.8c-5.6,0-11.3-0.3-16.9-0.9l0.1-1c11.5,1.3,23.2,1.2,34.6-0.1l0.1,1         C201.3,522.5,195.3,522.8,189.2,522.8z" class="colorffffff svgShape"></path></g><g fill="#000000" class="color000000 svgShape"><path fill="#b2d8ff" d="M172.5,224.4l6.9,7.9l27.3,31.3l1.8,2.1c7.5,8.5,20.8,8.5,28.2,0l29.4-57l-17-15.9L221,230                 l-7.3-8.4l-3.7,0.3l-24.5,1.7L172.5,224.4z" class="colorffc5b2 svgShape"></path><path d="M262.7,172.6c0,0,5,21.8,15.4,32c0.9,0.9,1.1,2.3,0.4,3.4l-4,6.1c-1.1,1.6-3.4,1.7-4.5,0.1                  c-5.7-8.1-22.2-34.1-24.3-41.3l13.7-3.2L262.7,172.6z" fill="#000000" class="color000000 svgShape"></path><path fill="#81c0ff" d="M304.5,170.9c-0.5,1.3-2,3.9-6.9,3.7c-2.1-0.1-4.8-0.7-8.3-2.2c-11.9-4.9-37.5,2.3-37.5,2.3                  c-13.8,5.5-23.6,3.3-26.7-5.9c-3.1-9.2,1.7-16.1,18.9-19.4c17.2-3.3,34-23.6,38.4-26.2c4.1-2.4,8.2-0.6,8.8-0.3                  c-0.8-0.3-1.5-0.4-2.1-0.2c-4.1,1.3-4.2,13.3-0.3,26.9C292.6,163.2,300.4,172.2,304.5,170.9z" class="colorff8281 svgShape"></path><path fill="#52a8ff" d="M225,168.8c3.1,9.2,12.9,11.4,26.7,5.9c-8.8-8.2-8.1-22.1-7.9-24.8c0-0.3,0-0.5,0-0.5                  C226.7,152.8,221.9,159.7,225,168.8z" class="colorffd552 svgShape"></path><path d="M286.3,138.7L286.3,138.7c0.9,6.7,3,14.3,5.8,20.6c3.6,8.3,8,13.6,11,12.6c3.2-1,4-8.8,2.2-18.8                  c-0.5-2.6-1.1-5.3-1.9-8.2c-0.7-2.5-1.5-4.9-2.4-7.1c-3.1-7.8-6.8-13.5-9.9-15c0,0,0,0,0,0                  c-0.8-0.3-1.5-0.4-2.1-0.2C286,123.5,285.1,130,286.3,138.7z" fill="#000000" class="color000000 svgShape"></path><path fill="#52a8ff" d="M286.3,138.7L286.3,138.7c0.9,6.7,3,14.3,5.8,20.6l13.2-6.2l3.7-1.7l-3-13.8                  C280,139,288.4,138.5,286.3,138.7z" class="colorffd552 svgShape"></path><path fill="#365ffb" d="M304.8,145c0.7,3.8,2.5,6.7,4.1,6.4c1.5-0.3,2.2-3.6,1.5-7.4c-0.7-3.8-2.5-6.7-4.1-6.4                  C304.7,137.8,304.1,141.2,304.8,145z" class="colorfbc536 svgShape"></path><path fill="#11172f" d="M229.1 161.3c0-.3.2-.5.5-.5 3.3-.2 6.6-.8 9.8-1.9.3-.1.5.1.6.3s-.1.5-.3.6c-3.3 1.1-6.6 1.8-10.1 2C229.4 161.8 229.1 161.6 229.1 161.3zM230.6 166.6c0-.3.2-.5.5-.5 3.1-.2 6.1-.8 9-1.8.3-.1.5 0 .6.3.1.3 0 .5-.3.6-3 1-6.1 1.7-9.3 1.9C230.8 167.1 230.6 166.9 230.6 166.6zM232.2 171.6c-.3 0-.5-.2-.5-.5 0-.3.2-.5.5-.5 2.5.1 5.1-.4 7.4-1.5.2-.1.5 0 .7.2s0 .5-.2.7C237.6 171.2 234.8 171.7 232.2 171.6z" class="color2f1a11 svgShape"></path><path fill="#4363dc" d="M304.5,170.9c-0.5,1.3-2,3.9-6.9,3.7c0,0,0,0,0,0c-23.5-14-19.2-48.1-15.2-51.4                  c4.1-2.4,8.2-0.6,8.8-0.3c-0.8-0.3-1.5-0.4-2.1-0.2c-4.1,1.3-4.2,13.3-0.3,26.9                  C292.6,163.2,300.4,172.2,304.5,170.9z" class="colordc4343 svgShape"></path><path fill="#b2d8ff" d="M249.1,192.6l2.7-6.3c0.5-2.2,2-4,4-4.9l3.6-2.7c1.7-1.3,4.1-0.7,5,1.3l0,0c0.6,1.4,0.2,3-1,4                  l-5.4,4.2l8,20.4L249.1,192.6z" class="colorffc5b2 svgShape"></path><path fill="#b2d8ff" d="M264.8,191.1L264.8,191.1c-0.2-1.1,0.7-2.1,1.8-2.1l-2-0.9c-0.6-0.3-1-0.8-1-1.5                  c-0.1-0.9,0.6-1.7,1.5-1.8l2.2-0.3c2.1-0.3,4,1.7,3.3,3.8l0,0.1c0,0,4.6,0.6,4.1,4c0,0,3.9,1.7,2.4,4.5                  c0,0,5.6,3.1,0.4,7l-2.1-2.5l-3.6-0.1c-0.9,0-1.7-0.7-1.8-1.5c-0.2-1.1,0.5-2.1,1.6-2.3l-3-0.9                  c-0.6-0.2-1.1-0.7-1.2-1.4c-0.2-0.9,0.3-1.7,1.1-2c0.3-0.1,0.6-0.1,1.2-0.3l-3-0.2                  C265.6,192.5,265,191.9,264.8,191.1z" class="colorffc5b2 svgShape"></path><path d="M272.4 197.2c0-.3.2-.5.5-.5l4.2-.3c.3 0 .5.2.5.5 0 .3-.2.5-.5.5l-4.2.3C272.7 197.7 272.4 197.5 272.4 197.2zM270.3 192.7c0-.3.2-.5.5-.5l3.9-.3c.3 0 .5.2.5.5 0 .3-.2.5-.5.5l-3.9.3C270.5 193.2 270.3 193 270.3 192.7zM267.4 188.8c0-.3.2-.5.4-.6l2.7-.4c.3 0 .5.2.6.4 0 .3-.2.5-.4.6l-2.7.4C267.7 189.3 267.5 189.1 267.4 188.8z" fill="#000000" class="color000000 svgShape"></path><g fill="#000000" class="color000000 svgShape"><polygon fill="#52a8ff" points="324.5 111.9 320.2 121.8 314.4 118.9 314.2 133.1 318.2 125.1 323.9 127" class="colorffd552 svgShape"></polygon></g><g fill="#000000" class="color000000 svgShape"><polygon fill="#52a8ff" points="341.1 135.9 329.4 141.9 326.3 134.6 315.1 147.7 325 143.3 328.9 149.6" class="colorffd552 svgShape"></polygon></g><g fill="#000000" class="color000000 svgShape"><polygon fill="#52a8ff" points="337.8 172.1 327.1 166.6 330.9 160.4 315.2 159.1 323.7 164.1 321.2 170.3" class="colorffd552 svgShape"></polygon></g><g fill="#000000" class="color000000 svgShape"><path fill="#0575e6" d="M168.2,190l17.7,42.1l5.3,12.5l0.5,1.2l3.6-2.4l11.5-7.9l16.6-12.4l-10-10.3                 c-11.1-11.5-21.8-20.4-37.6-22.1L168.2,190z" class="color3b93fe svgShape"></path></g><g fill="#000000" class="color000000 svgShape"><polygon points="185.9 232.1 191.2 244.6 195.2 243.4 206.8 235.5 188.8 208.5" fill="#000000" class="color000000 svgShape"></polygon></g><g fill="#000000" class="color000000 svgShape"><path fill="#0575e6" d="M101.9,203.9l-0.8,31.5l0,1.4l-0.6,26.8l-0.1,3.4l1.3,44.2l101.1-3L189,204.6                  c-1.5-8-8.1-13.9-16-14.3l-52.9-3.2C110.6,186.6,102.5,194.1,101.9,203.9z" class="color3b93fe svgShape"></path><polygon points="101.1 235.4 101.1 236.8 100.5 263.7 100.4 267.1 125.4 290.1 106.1 234" fill="#000000" class="color000000 svgShape"></polygon></g><g fill="#000000" class="color000000 svgShape"><path fill="#b2d8ff" d="M102.5,248.8l15.5,31.3c3.9,10.2,14.7,16,25.3,13.5l56.1-0.6l2.4-25.9l-57.3-12.6l-10.2-26.8                 L102.5,248.8z" class="colorffc5b2 svgShape"></path></g><g fill="#000000" class="color000000 svgShape"><path fill="#b2d8ff" d="M155.1,208.3c-12.6,1.4-19.5-20.3-19.5-20.3c2.6-11.3-0.5-24-0.5-24l27.1-2.3l-0.9,14.6l-0.6,8.9              l-0.3,4.4C160.5,189.6,167.7,206.9,155.1,208.3z" class="colorffc5b2 svgShape"></path></g><g fill="#000000" class="color000000 svgShape"><path fill="#8bc5ff" d="M161.3,176.3l-0.6,8.9c-2.9-1.1-13.4-5.3-17.3-10.6c-4.6-6.2,15.8-3.7,15.8-3.7l1.9,0.7              L161.3,176.3z" class="colorff988b svgShape"></path></g><g fill="#000000" class="color000000 svgShape"><path fill="#b2d8ff" d="M165.1,180.9c-17.7,4.1-31-16.7-31-16.7s-8,0.2-6.7-10.1c1.3-10.1,8.9-0.2,8.9-0.2              s-1.3-26.1,11.8-28.2c13.2-2.2,30.5,10.4,30.5,10.4s0,0.3,0.1,0.8C179.2,142.5,181.4,177.1,165.1,180.9z" class="colorffc5b2 svgShape"></path></g><g fill="#000000" class="color000000 svgShape"><path d="M187.8,128.2c-0.9,5.6-4.8,10.5-9.9,13.1c-5.1,2.6-11.4-0.1-16.9-1.6c-0.3-0.1-0.7-0.2-1-0.3              c-1.7,2.9-4.6,5.1-7.9,5.8c-3.6,0.7-7.1-0.1-9.9-2.6c-0.5,3.9-0.7,10.9-1.2,14.8c-1.3-0.2-3.6-0.2-4.1-1.3              c-0.6-1.3-0.6-2.4-1.6-3.5c-0.8-0.9-1.8-1.7-2.8-2.4c-3.2-1.9-4.7,0.9-5,3.8c-1.3,10.3,6.7,10.1,6.7,10.1              c2.8,2.6,2.2,8.5,2.6,12.7c-14.2-7.4-19.8-32.9-12-44.8c7.5-11.3,3.3-10,9.9-11.4c0.4-1.8,1.4-3.5,2.7-4.8              c1.9-1.9,4.3-3.2,6.8-4.2c9.6-4.1,20.3-6,30.6-4.1c1.4,0.3,2.9,0.6,4.2,1.3c1.3,0.7,2.5,1.7,3,3.1              c0.3,0.7,0.4,1.4,0.3,2.1C186.5,117.2,188.7,122.9,187.8,128.2z" fill="#000000" class="color000000 svgShape"></path></g><g fill="#000000" class="color000000 svgShape"><circle cx="155.9" cy="149.9" r="1.9" fill="#000000" class="color000000 svgShape"></circle></g><g fill="#000000" class="color000000 svgShape"><circle cx="171.3" cy="149.3" r="1.9" fill="#000000" class="color000000 svgShape"></circle></g><g fill="#000000" class="color000000 svgShape"><path fill="#8bc5ff" d="M163.7,165.6c-0.2-0.4,0-0.8,0.4-1c0.6-0.3,1.2-0.6,1.6-0.9c1.3-1.1,0.8-2.1-0.1-3.4             c-0.1-0.1-2.5-3.6-3.1-8.7c0-0.4,0.2-0.8,0.7-0.8c0.4,0,0.8,0.2,0.8,0.7c0.5,4.6,2.6,7.4,2.9,8.1c1.3,2,1.6,3.8-0.2,5.3             c-0.6,0.5-1.3,0.8-1.9,1.1C164.3,166.1,163.9,166,163.7,165.6z" class="colorff988b svgShape"></path></g><g fill="#000000" class="color000000 svgShape"><path fill="#8bc5ff" d="M158.3,169.2c-0.2-0.4-0.1-0.8,0.3-1c0.4-0.2,0.8-0.1,1,0.3c1.2,2.2,3.9,3,6,1.7             c0.4-0.2,0.8-0.1,1,0.3c0.2,0.4,0.1,0.8-0.3,1C163.6,173.2,159.9,172.1,158.3,169.2z" class="colorff988b svgShape"></path></g><g fill="#000000" class="color000000 svgShape"><circle cx="155.9" cy="149.9" r="1.9" fill="#000000" class="color000000 svgShape"></circle></g><g fill="#000000" class="color000000 svgShape"><circle cx="171.3" cy="149.3" r="1.9" fill="#000000" class="color000000 svgShape"></circle></g><g fill="#000000" class="color000000 svgShape"><path fill="#8bc5ff" d="M163.7,165.6c-0.2-0.4,0-0.8,0.4-1c0.6-0.3,1.2-0.6,1.6-0.9c1.3-1.1,0.8-2.1-0.1-3.4            c-0.1-0.1-2.5-3.6-3.1-8.7c0-0.4,0.2-0.8,0.7-0.8c0.4,0,0.8,0.2,0.8,0.7c0.5,4.6,2.6,7.4,2.9,8.1c1.3,2,1.6,3.8-0.2,5.3            c-0.6,0.5-1.3,0.8-1.9,1.1C164.3,166.1,163.9,166,163.7,165.6z" class="colorff988b svgShape"></path></g><g fill="#000000" class="color000000 svgShape"><path fill="#8bc5ff" d="M158.3,169.2c-0.2-0.4-0.1-0.8,0.3-1c0.4-0.2,0.8-0.1,1,0.3c1.2,2.2,3.9,3,6,1.7            c0.4-0.2,0.8-0.1,1,0.3c0.2,0.4,0.1,0.8-0.3,1C163.6,173.2,159.9,172.1,158.3,169.2z" class="colorff988b svgShape"></path></g><g fill="#000000" class="color000000 svgShape"><path fill="#0575e6" d="M118.5,187l-1.4,0c-17,0.4-28.8,24.6-23.3,40.8l6.5,24l41.4-22L118.5,187z" class="color3b93fe svgShape"></path></g><g fill="#000000" class="color000000 svgShape"><path fill="#b2d8ff" d="M235.5,293.3l-15.2-2.2l8.5,4.2c0.9,0.5,1.3,1.6,0.8,2.5c-0.4,0.8-1.4,1.3-2.3,0.9l-27.8-5.8l2-25.7          c0.1-0.1-2.5,0.7,17.4-6.1c1.5-0.6,3.1,0.1,3.6,1.5c0.4,1.2,0,2.5-1.1,3.2l-3.4,2.1c4.3,2.2,12.9,5.9,21.9,6.4          c1.3,0.1,2.2,1.1,2.2,2.4c0,1.4-1.2,2.4-2.5,2.4l-16.9-1.2c0.6,0.2,10.5,3.3,18.1,4.5c1.3,0.2,2.2,1.4,2.1,2.7          c-0.1,1.4-1.4,2.3-2.6,2.2l-16.2-1.4l12.3,2.6c1.2,0.2,2,1.4,1.9,2.6C238,292.6,236.8,293.5,235.5,293.3z" class="colorffc5b2 svgShape"></path></g></g><g fill="#000000" class="color000000 svgShape"><path fill="#ffffff" d="M115.8,364.7l-0.5-0.9c4-2.2,6.7-4.4,8.6-6.9c2.2-2.8,3.5-21.4,2.9-25c-0.6-3.2-2.6-5.7-4.2-7.2         c-2.1-2-4.6-3.6-7-5.1l0.5-0.8c2.5,1.6,5,3.2,7.1,5.3c2.4,2.4,4,5,4.5,7.7c0.6,3.5-0.5,22.5-3.1,25.8         C122.7,360.2,119.9,362.5,115.8,364.7z" class="colorffffff svgShape"></path></g><g fill="#000000" class="color000000 svgShape"><path d="M453.4,139.9c8.4-1.1,17.2,4.5,19.8,12.6c3.4,10.6-3.4,21.1,15.1,36.2c6,4.9,12.8,8.9,18.8,13.9               c6,5,11.2,11.5,12.6,19.1c1.6,8.8-2.4,18.1-9.2,23.8c-6.8,5.8-16.1,8.1-25,7.5s-17.4-4.1-24.9-8.8               c-22.9-14.5-36.7-42.2-34.6-69.2" fill="#000000" class="color000000 svgShape"></path><path fill="#b2d8ff" d="M562.2,345.1l15.2-7l11.9,5.6l-9.3,22.3l-5.8,7.8l-3.5,4.7c0,0-22.2-9.2-22.4-9.5                        c-0.1-0.1,5.2-9.2,9.2-16.1C560.2,348.6,562.2,345.1,562.2,345.1z" class="colorffc5b2 svgShape"></path><polygon points="574.1 374.7 558.5 351.4 551.8 363.4" fill="#000000" class="color000000 svgShape"></polygon><path fill="#343847" d="M593,349.7c4.4,4.7,9.5,13,10,18.8c0.3,3.4-1.1,7.8-4.3,8.3c-2.5,0.4-4.2-1.7-5.3-4                          c-2.3-4.8-3-10.1-3.6-15.2l1.4-0.2c0.7,5,1.3,10.2,3.5,14.8c3,6.5,7.5,2.2,6.9-3.6                          c-0.5-5.4-5.3-13.3-9.6-18L593,349.7z" class="color453447 svgShape"></path><path fill="#343847" d="M593,356.7c1.3,2,2,4.4,1.8,6.8c-0.2,4.3-2.9,6.9-5.8,7.2c-3.7,0.4-6.7-2.9-4.4-8.1                          c0.2-0.5,0.5-1,0.7-1.5c0.6-1.1,1.1-2.2,1.3-3.4c0.1-0.7,0.1-1.4-0.1-1.9c-0.2-0.6-0.6-1-1.1-1.2l0.5-1.3                          c0.9,0.3,1.6,1.1,2,2c0.3,0.8,0.3,1.7,0.2,2.7c-0.2,1.4-0.8,2.6-1.4,3.7c-0.2,0.5-0.5,1-0.7,1.5                          c-1.8,4.1,0.3,6.4,3,6.2c2.2-0.2,4.3-2.3,4.5-5.9c0.1-2.1-0.5-4.2-1.6-6L593,356.7z" class="color453447 svgShape"></path><path fill="#52a8ff" d="M579.4,317.4l54.7,37.8c0,0-4.4,11.1-24.3,2.3c0,0-19.5-1.1-29.9,8.7                          c0,0-5.5-2.6,0.6-7.9c0.2-0.1,0.3-0.2,0.3-0.3c0,0,0,0,0,0c0,0-18.6-13.1-18.6-12.8                          C562.3,345.4,579.4,317.4,579.4,317.4z" class="colorffd552 svgShape"></path><path fill="#181b26" d="M631.3,358.5c2.1-1.6,2.8-3.3,2.8-3.3l-54.7-37.8c0,0-0.9,1.5-2.3,3.7L631.3,358.5z" class="color231826 svgShape"></path><path fill="#dcedff" d="M580.5,358.3c0.2-0.1,0.3-0.2,0.3-0.3c0,0,0,0,0,0c0,0,16.1-14.1,29-0.6                          c0,0-19.5-1.1-29.9,8.7C579.9,366.1,574.4,363.6,580.5,358.3z" class="colordcebff svgShape"></path><path fill="#343847" d="M581.9 354.7l8.4 5.8c.3.2.4.6.2.9-.2.3-.6.4-.9.2l-8.4-5.8c-.3-.2-.4-.6-.2-.9S581.6 354.4 581.9 354.7zM588.9 351.4l9.2 7.3c.3.2.3.7.1.9-.2.3-.7.3-.9.1l-9.2-7.3c-.3-.2-.3-.7-.1-.9C588.2 351.2 588.7 351.2 588.9 351.4zM596.1 350.1l6 7.9c.2.3.2.7-.1.9-.3.2-.7.2-.9-.1l-6-7.9c-.2-.3-.2-.7.1-.9C595.5 349.7 595.9 349.8 596.1 350.1zM603.4 350.5l3.4 7.3c.2.3 0 .7-.3.9-.3.2-.7 0-.9-.3l-3.4-7.3c-.2-.3 0-.7.3-.9C602.8 350 603.2 350.1 603.4 350.5z" class="color453447 svgShape"></path><g fill="#000000" class="color000000 svgShape"><path fill="#0575e6" d="M449.4,366.5l-6.7,53.1l1,52l1.4,70.7l-71.6,3c1.1-33.1,4.4-106.9,7-127.8                       c4.9-39.8,29.9-133.6,29.9-133.6h49.6L449.4,366.5z" class="color3b93fe svgShape"></path></g><g fill="#000000" class="color000000 svgShape"><polygon points="442.6 419.6 443.6 471.6 427.9 341.7 449.4 366.5" fill="#000000" class="color000000 svgShape"></polygon></g><g fill="#000000" class="color000000 svgShape"><path fill="#0575e6" d="M587.8,383.8l-48.2,78.4c-21.6,30.3-68.6,22.7-79.4-13c0,0-27.9-78-31.9-105.1                       c-2.2-14.9,0-60.3,0-60.3h50.9c20.8,26.6,27.3,77,28.5,127.7l34.8-62.6L587.8,383.8z" class="color3b93fe svgShape"></path></g><g fill="#000000" class="color000000 svgShape"><path fill="#ffffff" d="M502.8,437c-1.5-14.9,0.3-105.4-32.5-147.3l0.8-0.6c19.9,25.5,30.6,72.6,32.6,143.9                       l36.5-72.6l0.9,0.4L502.8,437z" class="colorffffff svgShape"></path></g><g fill="#000000" class="color000000 svgShape"><path fill="#ffffff" d="M495.7,355c-5.1-0.9-9.5-4-13-9.1c-6.6-9.7-8.1-21.1-4-31.5l0.9,0.4                       c-4,10-2.6,21.1,3.9,30.5c3.3,4.8,7.5,7.7,12.3,8.6L495.7,355z" class="colorffffff svgShape"></path></g><g fill="#000000" class="color000000 svgShape"><rect width="36.7" height="1" x="386.4" y="519.1" fill="#ffffff" class="colorffffff svgShape"></rect></g><g fill="#000000" class="color000000 svgShape"><path fill="#ffffff" d="M385.5,487.2c-3.4-24.5-1.7-50.1,5-73.9l1,0.3c-6.7,23.7-8.4,49.1-5,73.5L385.5,487.2z" class="colorffffff svgShape"></path></g><g fill="#000000" class="color000000 svgShape"><path fill="#ffffff" d="M575.1,393.4c-16.2-13.6-9.5-7.1-25.7-21.8l0.7-0.7c16.4,14.9,9.4,8,25.7,21.7                       L575.1,393.4z" class="colorffffff svgShape"></path></g><g fill="#000000" class="color000000 svgShape"><path d="M396.8,168.2c-1,8,0.9,16.3,5.2,23.1c1.6,2.5,3.6,5.1,3.5,8.1c-0.1,3.5-3,6.2-5.9,8.1               c-2.9,1.9-6.1,3.8-7.7,6.9c-0.8,1.6-1,3.7,0.2,5.1c1.2,1.4,3.9,1.1,4.3-0.7c0.3-1.4-1.2-2.8-2.6-2.9               c-1.5-0.1-2.8,0.6-4.1,1.4c-3.1,1.9-3.1,5.1-5.2,8s-6.5,5.7-5.4,9.2s4.8,6.2,8.4,5.4c2.5-0.6,4.5-2.6,7-3.1               c4.5-0.9,8.3,3.2,12.4,5.2c3.8,1.8,8.5,1.9,12.3,0c3.8-1.8,6.7-5.5,7.7-9.6c1.1-4.8-0.3-9.9,1.2-14.6               c1.1-3.5,4-6.4,7.4-7.6c1.9-0.7,4-0.8,6-1.4s3.9-1.7,4.7-3.6c1.8-4.5-3.9-9.5-2-13.9c0.8-1.8,3.1-1.1,4.5-2.4               c3.3-3.2,3.8-9.9,4.5-14.5c0.8-5.1,1.5-10.3,1-15.4s-2.5-10.3-6.3-13.8c-4.7-4.2-11.3-5.1-17.5-5.7               c-7-0.7-16-1.5-21.9,3.3c-1.6,1.3-2.4,3-3.2,4.8C402.2,154.1,398,158.2,396.8,168.2z" fill="#000000" class="color000000 svgShape"></path></g><g fill="#000000" class="color000000 svgShape"><path fill="#2e81d5" d="M424.4,239.6l-26.2,36.8c-7.3,10.3-20.3,14.8-32.5,11.4l-17.9-5.1l-40-14l8.9-32.5l52.1,12.9                l22.2-41c5.7-8.8,15.5-14.1,25.9-14l4.1,0l1.4,18.2L424.4,239.6z" class="color2ed5b8 svgShape"></path><path d="M424.4,239.6l-26.2,36.8c-7.3,10.3-20.3,14.8-32.5,11.4l-17.9-5.1c6.8-0.1,33.1,5.4,42.8-16.5                c3.6-8.1,0.2-24.6,2-33.3c0.9-4.2,2.5-8.3,4.5-12.1c1.8-3.2,3.9-6.6,6.6-9.2c2-1.9,5.1-2.3,7.8-2.3                c3.8,0,7.5,1.1,10.8,3.1L424.4,239.6z" fill="#000000" class="color000000 svgShape"></path><path fill="#2e81d5" d="M493.6,304.7c-35.5,8.6-68.5,8.3-91-0.8v-50.4c-5.6-3-9.4-8.9-9.1-16.2                c0.3-6.3,3.9-11.7,9.1-14.5l2.8-15.1c0-7.7,6.3-13.8,14-13.5l49,2.7c6.8,0.3,12.2,5.6,12.7,12.3                c7.9,60.2,5.5,41.6,5.9,45.3L493.6,304.7z" class="color2ed5b8 svgShape"></path><polygon points="473.2 258.8 459.9 279.2 427.4 271.8 469.1 255.5 465.6 212.2" fill="#000000" class="color000000 svgShape"></polygon></g><g fill="#000000" class="color000000 svgShape"><path fill="#b2d8ff" d="M424.9,194.5l-0.2-4.6l-1.4-10.8c28.2-11.5,18.4-7.5,20.5-8.4l4.8,18.2l2,7.8               C449.7,205.5,422.6,206.5,424.9,194.5z" class="colorffc5b2 svgShape"></path></g><g fill="#000000" class="color000000 svgShape"><path fill="#8bc5ff" d="M436.7,180.2c-3.5,7.6-11.7,9.5-12,9.6l-1.4-10.8l2.1-0.9C431.3,176.5,439,175.3,436.7,180.2z" class="colorff988b svgShape"></path></g><g fill="#000000" class="color000000 svgShape"><path fill="#b2d8ff" d="M443.8,170.6c0,0-11.9,23-28.5,15.2c-11.9-5.6-6.9-26.4-0.8-37.1c2.7-4.9,5.2-8.2,5.2-8.2               l18.8-4.4c0,0,11.2,4.1,11.8,4.3l-7.9,18.5c1.2-2.1,3.4-4.6,6.7-1.4C454.1,162.4,443.8,170.6,443.8,170.6z" class="colorffc5b2 svgShape"></path></g><g fill="#000000" class="color000000 svgShape"><path d="M448.6,188.8l-4.8-18.2c0,0,10.2-8.2,5.1-13.1c-3.3-3.1-5.5-0.7-6.7,1.4c0,0-2,1.2-1.2,5.1               c0,0-4.4-2.2-0.7-12.4c0,0-15.5-0.2-25.9-3c-4.5-1.2-8.1-2.8-9.1-5.1c0,0,16.5-23.1,37.4-15.2               c20.8,7.8,15.6,15.3,15.5,15.4c0.2-0.1,7.1-1.8,8.9,17.2C469,180.4,448.6,188.8,448.6,188.8z" fill="#000000" class="color000000 svgShape"></path></g><g fill="#000000" class="color000000 svgShape"><path fill="#8bc5ff" d="M419.1 171.9c-.5-.5-1.1-1-1.6-1.6-1.4-2.1-.6-3.6 1.2-5.3.1-.1 3.2-2.7 5-7.1.2-.4.6-.6 1-.4.4.2.6.6.4 1-1.9 4.6-4.9 7-5.4 7.6-1.2 1.1-2 1.9-1 3.3.3.5.8.9 1.3 1.4.3.3.3.7.1 1.1C419.9 172.2 419.4 172.2 419.1 171.9zM415.6 177.4c-.3-.3-.2-.8.1-1.1.3-.3.8-.2 1.1.1 1.6 1.9 4.5 2.2 6.4.5.3-.3.8-.2 1.1.1.3.3.2.8-.1 1.1C421.5 180.3 417.7 180 415.6 177.4z" class="colorff988b svgShape"></path></g><g fill="#000000" class="color000000 svgShape"><path d="M430.1,162.6c-0.2,1-1.2,1.7-2.2,1.4c-1-0.2-1.6-1.3-1.3-2.3c0.2-1,1.2-1.7,2.2-1.4              C429.8,160.5,430.4,161.6,430.1,162.6z" fill="#000000" class="color000000 svgShape"></path></g><g fill="#000000" class="color000000 svgShape"><path d="M418.3,159.1c-0.2,1-1.2,1.7-2.2,1.4c-1-0.2-1.6-1.3-1.3-2.3c0.2-1,1.2-1.7,2.2-1.4              C418,157.1,418.6,158.1,418.3,159.1z" fill="#000000" class="color000000 svgShape"></path></g><g fill="#000000" class="color000000 svgShape"><path fill="#b2d8ff" d="M418.3,279.6l-4.4-2.8c-0.9-1-1-2.5-0.2-3.6c0.8-1.1,2.3-1.5,3.5-1.1c0.3,0.1,0.5,0.3,0.8,0.4             l16.4,6.9" class="colorffc5b2 svgShape"></path></g><g fill="#000000" class="color000000 svgShape"><path fill="#021b79" d="M425.1,302.9c0.2,2.1-1.4,3.9-3.5,3.9h-35.8c-1.8,0-3.3-1.4-3.5-3.2l-5.2-50.9             c-0.2-2.1,1.4-3.9,3.5-3.9h35.7c1.8,0,3.3,1.4,3.5,3.2L425.1,302.9z" class="color394084 svgShape"></path></g><g fill="#000000" class="color000000 svgShape"><path fill="#b2d8ff" d="M434.3,279.6l-0.9,17.7l-29.2,2.4c-0.5,0-1-0.2-1.3-0.6c-0.1-0.2-0.2-0.4-0.3-0.6             c-0.1-0.8,0.4-1.6,1.2-1.7l7.3-1.4l-12-1.6c-0.5-0.1-1-0.3-1.3-0.7c-0.3-0.4-0.5-0.9-0.4-1.5c0.2-1,1-1.6,2-1.5l9.9,0.7             l-12.5-2.4c-0.5-0.1-0.9-0.4-1.2-0.7c-0.3-0.4-0.5-0.9-0.4-1.5c0.1-1,1.1-1.7,2.1-1.6c6,0.8,14.1,0.5,14.6,0.5l-13-2.7             c-0.5-0.1-0.8-0.3-1.1-0.7c-0.4-0.4-0.5-1-0.3-1.6c0.3-1,1.2-1.6,2.2-1.3c5.8,1.3,14.4,1.6,18.4,1L434.3,279.6z" class="colorffc5b2 svgShape"></path></g><g fill="#000000" class="color000000 svgShape"><path fill="#2e81d5" d="M496.4,282.1L431,301.5l-3.7-29.7l45.8-13l-10.1-62.3l13-0.3c8.8-0.2,16.5,5.8,18.4,14.5             c2.7,12.6,8.2,32.5,12.3,47C509.7,268.3,504.5,279.4,496.4,282.1z" class="color2ed5b8 svgShape"></path></g></g><g fill="#000000" class="color000000 svgShape"><circle cx="511.4" cy="141.3" r="25" fill="#98cbfe" class="color98d3fe svgShape"></circle><path fill="#ffffff" d="M504.2 137.1v13.8c0 .5-.4.9-.9.9h-6.4c-.5 0-.9-.4-.9-.9v-13.8c0-.5.4-.9.9-.9h6.4C503.8 136.2 504.2 136.6 504.2 137.1zM506.3 138.5c0-.6.4-1.2 1-1.5 1-.5 2.6-1.6 3.9-4 2-3.8 2.6-9.4 4.7-8.4 2.1 1 0 11.1 0 11.1s8.9-3 9.9 1.7c1 4.7 1.3 15.1-4.5 16.1-5.8 1-12.7-2.6-12.7-2.6h-.6c-.9 0-1.6-.7-1.6-1.6V138.5z" class="colorffffff svgShape"></path><polyline fill="#98cbfe" points="498.8 160.1 498.8 174.4 511.4 166.3" class="color98d3fe svgShape"></polyline></g><g fill="#000000" class="color000000 svgShape"><path fill="#dcedff" d="M266.8,396.2c-6.2,1.1-13.4-1.3-18.8-6.2c-4.5-4.1-8-9.7-11-17.7c-7-18.2-8.1-38.7-3.3-57.5l1,0.3       c-4.8,18.7-3.7,38.9,3.2,56.9c3,7.8,6.4,13.3,10.8,17.3c4.9,4.5,11.3,6.8,17,6.1c-2.8-2.2-5.4-5-6.8-8.8       c-3.8-10.3,5-20.6,14.7-15.1c3.5,2,5.9,5.5,6.3,9.2c0.6,6.7-4.6,13.4-11.7,15.3c11.2,7.2,27.6,8.4,40.8,1.7l0.5,0.9       C295.4,405.6,278,403.9,266.8,396.2z M259.7,386.2c1.4,3.9,4.3,6.8,7.3,8.9c6.9-1.3,12.4-7.8,11.8-14.4       c-0.3-3.3-2.5-6.5-5.8-8.4C264.1,367.3,256.3,376.9,259.7,386.2z" class="colordcebff svgShape"></path></g><g fill="#000000" class="color000000 svgShape"><path fill="#dcedff" d="M509.4,326.1l-0.4-0.9c16.4-6.4,30.4-19.1,38.3-34.8c7.8-15.3,9.9-33.4,5.9-50.1       c-2.4,3.3-5.8,6.1-10.2,7.2c-7.8,1.9-16.4-3.5-17.8-11.2c-1.4-7.8,5.8-16,13.7-15.1c6.6,0.8,12,7,14.8,16.7       c2.9-4.7,4.3-10.2,4.8-13.3c3.5-18.7,0.5-38.2-8.6-54.9l0.9-0.5c9.2,16.9,12.3,36.7,8.7,55.6c-0.6,3.4-2.2,9.4-5.5,14.4       c4.3,17.1,2.2,35.9-5.7,51.6C540.2,306.7,526,319.6,509.4,326.1z M526.2,236.1c1.2,7,9.4,12.1,16.6,10.4       c4.5-1.1,7.8-4,10.2-7.5c-1.9-7.4-6.5-15.9-14.2-16.8C531.6,221.4,525,229,526.2,236.1z" class="colordcebff svgShape"></path></g></g></g></svg>