<svg xmlns="http://www.w3.org/2000/svg" enable-background="new 0 0 2500 2500" viewBox="0 0 2500 2500" id="reminderandnotificationtoolstoorganizetasks"><rect width="84.82" height="151.64" x="640.97" y="2270.5" fill="#9bc9f7" transform="rotate(-3.273 683.356 2346.252)" class="colorf7c19b svgShape"></rect><path fill="#c2ccd6" d="M855.93,2475H646.4c-5.41,0-9.81-4.39-9.81-9.81v-10.21h229.14v10.21
				C865.74,2470.61,861.35,2475,855.93,2475z" class="colorc2cbd6 svgShape"></path><path fill="#021b79" d="M865.74,2461.78c-0.43,0.09-0.88,0.13-1.35,0.13H638.42c-0.62,0-1.22-0.06-1.82-0.17
				c-4.58-0.86-8.05-4.88-8.05-9.72v-75.85c0-10.51,10.73-17.56,20.43-13.45c25.7,10.9,52.18,10.54,79.62-2.72
				c3.51-1.71,7.71-1.11,10.56,1.54l9.14,8.57l0.32,0.3l1.37,1.29c1.63,1.52,3.3,2.96,5.01,4.35c0.17,0.15,0.36,0.3,0.54,0.43
				c8.42,6.72,17.97,11.91,28.2,15.18c0.32,0.11,0.66,0.21,0.98,0.3c2.23,0.71,4.52,1.31,6.81,1.8c0.49,0.11,0.99,0.21,1.46,0.34
				c0.04,0,0.06,0,0.08,0.02c54.71,12.51,73.24,44.93,78.08,58.31C872.68,2456.62,869.94,2460.99,865.74,2461.78z" class="color37424c svgShape"></path><path fill="#e1e4e8" d="M756.64,2391.18c0.13,1.76-1.2,3.3-2.98,3.45h-0.34c-1.63-0.06-2.98-1.33-3.11-2.98l-1.16-15.16l-0.45-6.08
					l1.37,1.29c1.63,1.52,3.3,2.96,5.01,4.35c0.17,0.15,0.36,0.3,0.54,0.43L756.64,2391.18z" class="colore1e3e8 svgShape"></path><path fill="#e1e4e8" d="M754.99 2376.04l-5.93.45-15.14 1.16c-.13.02-.26.02-.37.02-1.61-.07-2.96-1.33-3.08-2.98-.15-1.76 1.18-3.3 2.96-3.45l14.86-1.14.32.3 1.37 1.29C751.61 2373.21 753.28 2374.65 754.99 2376.04zM792.98 2394.09c-.47-.13-.96-.24-1.46-.34-2.29-.49-4.58-1.09-6.81-1.8l2.63 5.08 7.02 13.47c.66 1.28 2.06 1.93 3.4 1.69.32-.06.62-.17.92-.32 1.58-.81 2.18-2.76 1.37-4.32l-7-13.43L792.98 2394.09z" class="colore1e3e8 svgShape"></path><path fill="#e1e4e8" d="M792.98,2394.09l-5.63,2.93l-13.49,7.02c-0.3,0.15-0.6,0.26-0.92,0.32c-1.35,0.24-2.74-0.41-3.4-1.69
					c-0.84-1.56-0.21-3.51,1.35-4.33l12.85-6.7c0.32,0.11,0.66,0.21,0.98,0.3c2.23,0.71,4.52,1.31,6.81,1.8
					C792.02,2393.85,792.51,2393.96,792.98,2394.09z" class="colore1e3e8 svgShape"></path><rect width="151.64" height="84.82" x="255.75" y="2303.93" fill="#9bc9f7" transform="rotate(-85.618 331.593 2346.312)" class="colorf7c19b svgShape"></rect><path fill="#c2ccd6" d="M504.24,2475H294.71c-5.42,0-9.81-4.39-9.81-9.81v-10.21h229.15v10.21
				C514.04,2470.61,509.65,2475,504.24,2475z" class="colorc2cbd6 svgShape"></path><path fill="#021b79" d="M514.05,2461.78c-0.43,0.09-0.88,0.13-1.35,0.13H286.72c-0.62,0-1.22-0.06-1.82-0.17
				c-4.58-0.86-8.05-4.88-8.05-9.72v-75.85c0-10.51,10.73-17.56,20.43-13.45c25.7,10.9,52.19,10.54,79.62-2.72
				c3.51-1.71,7.71-1.11,10.56,1.54l9.14,8.57l0.32,0.3l1.37,1.29c1.63,1.52,3.3,2.96,5.01,4.35c0.17,0.15,0.36,0.3,0.54,0.43
				c8.42,6.72,17.97,11.91,28.2,15.18c0.32,0.11,0.66,0.21,0.99,0.3c2.23,0.71,4.52,1.31,6.81,1.8c0.49,0.11,0.98,0.21,1.45,0.34
				c0.04,0,0.07,0,0.09,0.02c54.71,12.51,73.23,44.93,78.07,58.31C520.99,2456.62,518.24,2460.99,514.05,2461.78z" class="color37424c svgShape"></path><path fill="#e1e4e8" d="M404.94,2391.18c0.13,1.76-1.2,3.3-2.98,3.45h-0.34c-1.63-0.06-2.98-1.33-3.1-2.98l-1.16-15.16l-0.45-6.08
					l1.37,1.29c1.63,1.52,3.3,2.96,5.01,4.35c0.17,0.15,0.36,0.3,0.54,0.43L404.94,2391.18z" class="colore1e3e8 svgShape"></path><path fill="#e1e4e8" d="M403.3 2376.04l-5.93.45-15.14 1.16c-.13.02-.26.02-.36.02-1.61-.07-2.96-1.33-3.08-2.98-.15-1.76 1.18-3.3 2.96-3.45l14.86-1.14.32.3 1.37 1.29C399.91 2373.21 401.58 2374.65 403.3 2376.04zM441.28 2394.09c-.47-.13-.96-.24-1.45-.34-2.29-.49-4.58-1.09-6.81-1.8l2.63 5.08 7.03 13.47c.66 1.28 2.05 1.93 3.4 1.69.32-.06.62-.17.92-.32 1.58-.81 2.18-2.76 1.37-4.32l-7-13.43L441.28 2394.09z" class="colore1e3e8 svgShape"></path><path fill="#e1e4e8" d="M441.28,2394.09l-5.63,2.93l-13.49,7.02c-0.3,0.15-0.6,0.26-0.92,0.32c-1.35,0.24-2.74-0.41-3.41-1.69
					c-0.83-1.56-0.21-3.51,1.35-4.33l12.85-6.7c0.32,0.11,0.66,0.21,0.99,0.3c2.23,0.71,4.52,1.31,6.81,1.8
					C440.32,2393.85,440.81,2393.96,441.28,2394.09z" class="colore1e3e8 svgShape"></path><path fill="#333333" d="M489.2,228.72c0,0,120.25-32.88,128.44,128.57c0.87,17.07,0.23,34.18-1.58,51.18
			c-2.75,25.95-4.58,100.75,54.36,159.49c13.36,13.32,9.83,35.82-6.9,44.54l-107.36,55.95l-264.24,7.14l-31.12-27.12
			C260.81,648.47,278.01,156.28,489.2,228.72z" class="color333333 svgShape"></path><path fill="#9bc9f7" d="M514.85,290.95c0,0-23.98,105.08-108.65,102.02c0,0-18.12,85.03,83.54,101.66c18.4,3.01,37.5-1,52.33-12.28
			c21.21-16.13,40.99-50.56,26.34-124.06C568.41,358.29,556.68,305.24,514.85,290.95z" class="colorf7c19b svgShape"></path><rect width="94.54" height="187.73" x="412.99" y="420.86" fill="#9bc9f7" class="colorf7c19b svgShape"></rect><path fill="#9bc9f7" d="M1002.95,657.01l13.42-29.36c2.6-5.7,2.6-12.24,0-17.94l-10.64-23.23c-1.64-3.58-0.63-7.81,2.44-10.28l0,0
			c4.02-3.23,9.96-2.2,12.68,2.18l12.51,20.22c0,0,36.1-77.42,53.1-34.42c0,0,21.97-10.33,15.49,15.96c0,0,24.26-7.39,15.87,16.31
			c0,0,20.15-4.31,11.53,15.89c-1.94,4.56-4.73,8.71-8.04,12.39l-64.64,71.88L1002.95,657.01z" class="colorf7c19b svgShape"></path><polygon fill="#021b79" points="274.86 1286.24 274.86 2319.08 393.32 2319.08 521.77 1458.6 622.72 2319.08 740.93 2319.08 727.47 1293.19 723.37 1220.73 625.93 1182.75 469.74 1143.35" class="color37424c svgShape"></polygon><path fill="#eceef1" d="M614.56,608.86l-42.51-37.26c-7.67-4.24-14.55-7.6-21.49-12.42l-54.45,6.69l-37.23,3.83l-77.31-15.83
			c-5.77,2.95-19.58,9.82-25.89,12v202.04l167.65,97.44l77.38-40.12L614.56,608.86z" class="colorecf0f1 svgShape"></path><polygon fill="#5678fa" points="573.22 1002.92 486.25 1108.04 430.67 1027.72 461.2 591.94 449.04 580.07 448.91 579.94 478.91 549.14 509.72 579.14 509.59 579.28 497.74 591.46" class="colorfa5669 svgShape"></polygon><path fill="#64adf6" d="M703.32,906.01l-28.51-40.65l-11.47-170.95l-82.27-117.93l-9-4.88l-70.21,247.9L355.68,565.87l-27.33,9.11
			l-0.81,0.27l-43.15,14.38c52.84,147.31-17.54,208.38-17.54,208.38c34.23,103.14,40.75,177.61,37.18,277.92l-1.49,20.62
			c-7.58,70.57-27.16,139.18-58.62,205.85c84.99,50.19,169.74,78.93,253.97,59.68l33.71-75.85l0.7-1.39l0.63,1.15l30.72,77.92
			c72.12-0.13,137.89-27.73,179.95-69.42L703.32,906.01z M1004.38,621.68l-169.1,222.18l-96.6-177.22
			c-22.21-40.75-61.14-69.73-106.53-79.35l-51.09-10.82c-14.26,87.12-29.53,215.98-9.9,205.91L703.32,906l38.99,55.59
			c39.67,56.53,123.93,54.98,161.49-2.98l180.57-278.63L1004.38,621.68z" class="color64b5f6 svgShape"></path><path fill="#e1e4e8" d="M412.99 513.38c-7.43 16.23-12.08 23.48-31.43 40.49l58.93 70.05 18.38-54.22L412.99 513.38zM507.54 523l-11.43 42.87 24.16 59.87 30.29-66.56C535.78 549.14 514.72 536.32 507.54 523z" class="colore1e3e8 svgShape"></path><g fill="#000000" class="color000000 svgShape"><path fill="#0575e6" d="M540.69,916.2l-0.02,0.77c-2.19,114.74-4.86,246.7-7.75,369.03l-0.63-1.15l-0.7,1.39
					c1.59-122.38,3.75-254.34,5.75-369.19c0.1,0.05,0.1,0,0-0.14v0.14c-4.04-1.63-172.08-150.87-171.24-149.45l-0.86-0.74l0.5-1.01
					l26.68-55.34l1.59,0.36l-0.89-1.81l-0.7,1.45l-68.57-15.11l-0.84-0.19l0.03-0.86c1.08-28.84,2.88-76.95,4.48-119.11l0.8-0.27
					c-1.11,41.81-2.43,89.46-3.22,118.58l-0.82-0.17l0.8,1.04c0-0.29,0.02-0.58,0.02-0.87l69.44,14.79l1.61,0.34l-0.72,1.49
					l-26.58,55.94l-0.84-0.74l0.36,1.75l0.48-1.01l169.12,147.72l0.12,0.1l2,1.75L540.69,916.2z" class="color42a5f5 svgShape"></path><path fill="#0575e6" d="M608.78,672.49l0.31,1.2l-1.13,0.55l-43.08,20.3c9.62,13.73,27.25,39.06,36.13,51.93l0.72,1.03l-0.84,0.96
					c-20.83,23.88-62.88,71.7-84.19,95.64c6.26,20.42,15.01,48.59,21.41,69.85c0.31,1.03,0.62,2.02,0.91,3.01
					c-0.34-1.03-0.67-2.05-1.03-3.11c-7.14-21.62-16.88-49.55-23.48-70.19c0.14-0.17,0.27-0.33,0.43-0.5
					c0.1-0.14,0.22-0.27,0.34-0.41c20.88-24.44,61.22-71.17,82.34-95.45c-9.55-13.61-27.54-39.43-36.54-52.46l-1.11-1.61l1.76-0.8
					l43.82-20.37c-3.29-12.58-6.57-25.18-9.77-37.77c-4.62-17.92-9.71-37.83-14.72-57.78L608.78,672.49z" class="color42a5f5 svgShape"></path><path fill="#0575e6" d="M515.61,843.86c-6.54-6.81-11.33-15.24-13.77-24.36C508.39,826.3,513.15,834.75,515.61,843.86
					L515.61,843.86z" class="color42a5f5 svgShape"></path></g><g fill="#000000" class="color000000 svgShape"><path fill="#0575e6" d="M524.52 953.38c-.07 5.01-4.19 9.02-9.2 8.95s-9.02-4.19-8.95-9.2c.07-5.01 4.19-9.02 9.2-8.95C520.59 944.25 524.59 948.37 524.52 953.38zM523.58 1021.2c-.07 5.01-4.19 9.02-9.2 8.95s-9.02-4.19-8.95-9.2c.07-5.01 4.19-9.02 9.2-8.95S523.65 1016.19 523.58 1021.2zM522.64 1089.02c-.07 5.01-4.19 9.02-9.2 8.95-5.01-.07-9.02-4.19-8.95-9.2.07-5.01 4.19-9.02 9.2-8.95C518.7 1079.89 522.71 1084.01 522.64 1089.02zM521.69 1156.84c-.07 5.01-4.19 9.02-9.2 8.95-5.01-.07-9.02-4.19-8.95-9.2.07-5.01 4.19-9.02 9.2-8.95C517.76 1147.71 521.76 1151.83 521.69 1156.84zM520.75 1224.66c-.07 5.01-4.19 9.02-9.2 8.95-5.01-.07-9.02-4.19-8.95-9.2.07-5.01 4.19-9.02 9.2-8.95C516.81 1215.53 520.82 1219.65 520.75 1224.66z" class="color42a5f5 svgShape"></path></g><path fill="#9bc9f7" d="M286.44,1097.3l25.95,19.2c5.03,3.73,11.44,5.08,17.55,3.71l24.92-5.6c3.84-0.86,7.78,1,9.55,4.51l0,0
			c2.32,4.6,0.09,10.2-4.76,11.95l-22.37,8.05c0,0,68.28,51.33,22.69,59.07c0,0,5.56,23.63-18.82,11.86c0,0,2.21,25.26-19.24,12.15
			c0,0,0.05,20.61-17.93,7.99c-4.06-2.85-7.54-6.43-10.46-10.43l-56.96-78.11L286.44,1097.3z" class="colorf7c19b svgShape"></path><path fill="#64adf6" d="M189.5,889.4l128.49,215.18l-74.08,64.48L96.75,977.21c-35.22-43.54-38.12-104.92-7.15-151.58L206.72,649.1
			c18.54-27.93,45.87-48.87,77.67-59.48C337.23,736.93,266.85,798,266.85,798L189.5,889.4z" class="color64b5f6 svgShape"></path><g fill="#000000" class="color000000 svgShape"><path fill="#38393d" d="M2269.82,2475H1242.68c-89.46,0-161.97-72.52-161.97-161.97V186.97c0-89.45,72.52-161.97,161.97-161.97
							h1027.13c89.45,0,161.97,72.52,161.97,161.97v2126.06C2431.79,2402.48,2359.27,2475,2269.82,2475z" class="color383d3d svgShape"></path><path fill="#e3f0fd" d="M1242.68,2418.37c-58.09,0-105.35-47.26-105.35-105.35V186.97c0-58.09,47.26-105.35,105.35-105.35
							h1027.13c58.09,0,105.35,47.26,105.35,105.35v2126.06c0,58.09-47.26,105.35-105.35,105.35H1242.68V2418.37z" class="colore3f2fd svgShape"></path><g fill="#000000" class="color000000 svgShape"><circle cx="1756.25" cy="912.98" r="397.96" fill="#5678fa" class="colorfa5669 svgShape"></circle><path fill="#ffffff" d="M1939.86,1081.63h-367.21l9.76-201.59c4.49-92.74,80.99-165.63,173.84-165.63l0,0
							c92.85,0,169.35,72.89,173.84,165.63L1939.86,1081.63z" class="colorffffff svgShape"></path><path fill="#ffffff" d="M1756.25,664.83L1756.25,664.83c-17.19,0-31.12,13.93-31.12,31.12v93.93
							c0,17.19,13.93,31.12,31.12,31.12l0,0c17.19,0,31.12-13.93,31.12-31.12v-93.93C1787.37,678.77,1773.44,664.83,1756.25,664.83z
							" class="colorffffff svgShape"></path><circle cx="1756.25" cy="1107.26" r="53.88" fill="#ffffff" class="colorffffff svgShape"></circle><path fill="#ffffff" d="M1948.75,1109.87h-385c-14.73,0-26.68-11.94-26.68-26.68l0,0c0-14.73,11.94-26.68,26.68-26.68h385
							c14.73,0,26.68,11.94,26.68,26.68l0,0C1975.43,1097.93,1963.48,1109.87,1948.75,1109.87z" class="colorffffff svgShape"></path><g fill="#000000" class="color000000 svgShape"><path fill="#ffffff" d="M2053.97,1773.07h-595.45c-77.67,0-140.63-62.96-140.63-140.63l0,0c0-77.67,62.96-140.63,140.63-140.63
							h595.45c77.67,0,140.63,62.96,140.63,140.63l0,0C2194.61,1710.11,2131.64,1773.07,2053.97,1773.07z" class="colorffffff svgShape"></path><rect width="568.52" height="40.39" x="1471.99" y="1569.6" fill="#e9ebed" class="coloredede9 svgShape"></rect><rect width="310.44" height="40.39" x="1471.99" y="1654.88" fill="#e9ebed" class="coloredede9 svgShape"></rect><rect width="206.09" height="40.39" x="1834.42" y="1654.88" fill="#e9ebed" class="coloredede9 svgShape"></rect><g fill="#000000" class="color000000 svgShape"><path fill="#ffffff" d="M2053.97,2188.99h-595.45c-77.67,0-140.63-62.96-140.63-140.63l0,0c0-77.67,62.96-140.63,140.63-140.63
							h595.45c77.67,0,140.63,62.96,140.63,140.63l0,0C2194.61,2126.02,2131.64,2188.99,2053.97,2188.99z" class="colorffffff svgShape"></path><rect width="568.52" height="40.39" x="1471.99" y="1985.52" fill="#e9ebed" class="coloredede9 svgShape"></rect><rect width="310.44" height="40.39" x="1471.99" y="2070.79" fill="#e9ebed" class="coloredede9 svgShape"></rect><rect width="206.09" height="40.39" x="1834.42" y="2070.79" fill="#e9ebed" class="coloredede9 svgShape"></rect></g></g><g fill="#000000" class="color000000 svgShape"><rect width="39.4" height="105.48" x="1729.26" y="311.01" fill="#5678fa" class="colorfa5669 svgShape"></rect><rect width="105.48" height="39.4" x="2027.31" y="448.12" fill="#5678fa" transform="rotate(-56.11 2080.051 467.834)" class="colorfa5669 svgShape"></rect><rect width="39.4" height="105.48" x="1412.85" y="423.9" fill="#5678fa" transform="rotate(-33.881 1432.548 476.587)" class="colorfa5669 svgShape"></rect></g></g></g></svg>