<svg xmlns="http://www.w3.org/2000/svg" data-name="Layer 1" viewBox="0 0 1801.68 1200" id="ReminderNotes"><path fill="#c8e3ff" fill-rule="evenodd" d="M1013 274.69s-258.28-81.05-452.8 16.21-263.68 209.65-243.14 321 126.47 236.62 337.2 247.42S1055.18 883.1 1181.62 734s-6.48-410.68-168.62-459.31Zm346.93 418.21c37.82 51.33 15.67 121-43.77 170.75s-98.34 21.07-122.65-10.81-11.35-103.74 44.31-150.21 122.11-9.73 122.11-9.73Zm4.32-413.9c49.71 33.5 84.29 190.2-20 202.08S1186.48 402.75 1170.81 359s6.49-96.72 75.11-115.63S1364.25 279 1364.25 279Z" class="colorc8e3ff svgShape"></path><path fill="#b4cde6" fill-rule="evenodd" d="M900.84 1062.25c156.3 0 302.68.94 428.38 2.57-.38-6.37-.77-23.11 5.37-26.31 7.62-4 11.51 1.94 11.67 8.35.15 5.61.35 15.77.4 18.19h.3c2.43-4.37 19.9-35.22 31.64-40.48 12.65-5.68 16.05 4.78 13.62 12.48-1.88 6-17.83 21.51-25 28.29 229.57 3.35 381.06 9.1 381.06 15.63 0 10.33-379.42 18.71-847.45 18.71S53.39 1091.3 53.39 1081c0-6.85 166.64-12.84 415.23-16.1-6.62-6.26-28.83-27.62-30.89-34.16-2.43-7.7 1-18.16 13.61-12.49s31.94 41 31.94 41 .24-12.32.4-18.73 4.05-12.32 11.67-8.35c6.6 3.44 5.42 26.23 5 32.31 119.25-1.42 255.65-2.23 400.49-2.23Z" class="colorb4cce6 svgShape"></path><path fill="#ffffff" fill-rule="evenodd" d="M522.36 108.19h759.75a29 29 0 0 1 28.9 28.9v481a54.39 54.39 0 0 1-54.24 54.23H542.06a54.39 54.39 0 0 1-54.24-54.23V142.73a34.65 34.65 0 0 1 34.54-34.54Z" class="colorffffff svgShape"></path><path fill="#0575e6" fill-rule="evenodd" d="M522.36 108.19h759.75a29 29 0 0 1 28.9 28.9v43.1H487.82v-37.46a34.65 34.65 0 0 1 34.54-34.54Z" class="color3f96d1 svgShape"></path><path fill="#263a87" fill-rule="evenodd" d="M564 130a11.72 11.72 0 1 1-11.72 11.72A11.72 11.72 0 0 1 564 130Zm79.1 0a11.72 11.72 0 1 1-11.7 11.7 11.72 11.72 0 0 1 11.71-11.7Zm-38.55 0a11.72 11.72 0 1 1-11.71 11.72A11.72 11.72 0 0 1 604.56 130Z" class="color265487 svgShape"></path><path fill="#8dc6ff" fill-rule="evenodd" d="m653.57 958.03 11.13 40.69 32.64-10.53-6.11-33.94-37.66 3.78z" class="colorffa58d svgShape"></path><path fill="#272a37" fill-rule="evenodd" d="M782.36 1018.23a22.63 22.63 0 0 0-.9-3.5 22.63 22.63 0 0 1 .9 3.5Zm-77.08-24.36Zm6.81 2.24 6-5.47-6 5.47Zm8.75 2.41 6-5.48-6 5.48Zm16.4 4.18 6-5.48-6 5.48Zm44.17 11.87a14.74 14.74 0 0 0-7-8.49c-3.11-1.58-12.34-4.07-22.94-6.77l-6 5.47 6-5.47-6 5.47 6-5.47c-5.32-1.36-11-2.77-16.4-4.14l-6 5.48 6-5.48-6 5.48 6-5.48c-11.17-2.83-21.22-5.5-24.85-7.22-8.86-4.21-11.38-7.51-17-4.52s-10.17 8.2-18.28 8-12-1.38-14.28 2.27c-1.13 1.78-.89 6.09-.22 11.24 0 0 8.4 1.23 14.56 10 4.74 6.72 6.07 17.46 6.43 22.06l99.82-22.88.18.47Zm-121-9.61s8.4 1.23 14.56 10c4.74 6.72 6.07 17.46 6.43 22.06l-.8.18-14.48 3.32c-1.12-5.13-2.58-12.44-3.23-18.38-.57-5.3-1.77-11.69-2.48-17.14Z" class="color282737 svgShape"></path><path fill="#5e647c" fill-rule="evenodd" d="m667.6 1046.86 115-26.36a21.39 21.39 0 0 0-1.39-6.4l-115.1 26.38c.89 3.78 1.49 6.38 1.49 6.38Z" class="color5f5e7c svgShape"></path><path fill="none" stroke="#5e647c" stroke-linecap="round" stroke-linejoin="round" stroke-width="2.3" d="M681.54 1039.19s-.4-15.54-6.56-24.27-14.56-10-14.56-10" class="colorStroke5f5e7c svgStroke"></path><path fill="none" stroke="#ffffff" stroke-linecap="round" stroke-linejoin="round" stroke-width="3.06" d="m745.49 1004.78 5.98-5.47M737.24 1002.7l5.97-5.48M729.1 1000.65l5.97-5.48M720.84 998.52l5.97-5.48M712.09 996.11l5.98-5.47M705.28 993.87l5.97-5.48" class="colorStrokeffffff svgStroke"></path><path fill="#66b2fe" fill-rule="evenodd" d="M325.24 191.25c-18.72 4.33-12.37 38.82-27.4 41.61a20.87 20.87 0 0 0-2.83.74c-5.47 1.87-17 8-17.62 26.78-.39 11.62 8.61 25.79 21.49 36.27l1.41.93q7.95 5.12 15.4 9.37c11.07 4.78 23.07 6.2 33.84 1.73 31.28-13 20.58-40.72 45.62-44.35 21.17-3.07 16.58-28.87 35.25-24.81a24.56 24.56 0 0 0-3.25-6.85c-12.93-19.5 17.27-58.92 17.27-58.92L393.94 152c6.66-6.65 13.22-11.86 18.8-13.81 21.72-7.62 61.15 20.73 57.19 5.36s-19.09-30-46-29.19-32.1 19.77-44.42 22.2-26.26 4.95-27.72 28c-1.15 18.1-7.79 22.36-26.55 26.69Z" class="colorfec866 svgShape"></path><path fill="#8dc6ff" fill-rule="evenodd" d="m201.14 767.19-38.37 17.54 15.65 30.52 32.52-11.5-9.8-36.56z" class="colorffa58d svgShape"></path><path fill="#272a37" fill-rule="evenodd" d="M162.46 904a24 24 0 0 0 3.31-1.45 24 24 0 0 1-3.31 1.45Zm11.63-80Zm-1.09 7.08 6.36 5-6.36-5Zm-1 9 6.37 5-6.37-5ZM170.53 857l6.36 5-6.36-5Zm-4.62 45.51a14.73 14.73 0 0 0 7.26-8.27c1.06-3.33 2-12.84 3-23.74l-6.36-5 6.36 5-6.36-5 6.36 5c.48-5.47 1-11.29 1.45-16.84l-6.37-5 6.37 5-6.37-5 6.37 5c1-11.48 2-21.84 3.12-25.69 2.73-9.43 5.59-12.45 1.72-17.53s-9.72-8.73-10.85-16.76-.57-12-4.55-13.72c-1.93-.83-6.15.1-11.12 1.59 0 0 .14 8.49-7.49 16-5.86 5.76-16.25 8.8-20.74 9.9l38.65 94.84-.44.25Zm-10-121s.14 8.49-7.49 16c-5.86 5.76-16.25 8.8-20.74 9.9l-.31-.76-5.6-13.76c4.88-1.93 11.87-4.55 17.62-6.14 5.14-1.42 11.25-3.63 16.52-5.21Z" class="color282737 svgShape"></path><path fill="#5e647c" fill-rule="evenodd" d="m115.73 795.34 44.54 109.28a21.67 21.67 0 0 0 6.08-2.4l-44.56-109.36c-3.6 1.43-6.06 2.48-6.06 2.48Z" class="color5f5e7c svgShape"></path><path fill="none" stroke="#5e647c" stroke-linecap="round" stroke-linejoin="round" stroke-width="2.3" d="M125.54 807.87s15.27-2.9 22.9-10.39 7.49-16 7.49-16" class="colorStroke5f5e7c svgStroke"></path><path fill="none" stroke="#ffffff" stroke-linecap="round" stroke-linejoin="round" stroke-width="3.06" d="m169.8 865.45 6.36 5.01M170.53 856.96l6.36 5.02M171.24 848.6l6.37 5.02M172.01 840.1l6.37 5.02M172.98 831.08l6.36 5.02M174.09 824l6.37 5.01" class="colorStrokeffffff svgStroke"></path><path fill="#8dc6ff" fill-rule="evenodd" d="M511.92 285.94c24.44 19.71 53.31 44.42 53.31 44.42s27.14-19.63 41.7-34.12a210.72 210.72 0 0 0 20.41-23.57 57.88 57.88 0 0 0 21.89 11.86c-4.54 8.52-24.51 44.89-42.44 60.7-20.37 18-38.51 25.56-55.76 16.44-10.38-5.48-39.77-29.44-61.56-47.68Z" class="colorffa58d svgShape"></path><path fill="#272a37" fill-rule="evenodd" d="M443.3 245.08s20.67 11.75 33.77 12.83a59.9 59.9 0 0 1 19.46 4.54c13.65 2.95 31.85 23.55 31.85 23.55l-6.78 6.9-15.53 15.44 4.8 6.75c5.76 7.38 12.34 15.16 13.07 26.06 1.08 16.2-11.62 27.28-11.62 27.28s-1.17 12.7-1.44 28.09c3.4 30.52 14.44 68.87 14.44 68.87l-96.81 21.41s-47.46-10.15-45.57-21.41a95.44 95.44 0 0 1 3.51-13.31s10.31-56.27-8.94-101.34C373.05 343 367.19 333 362 323.14l-11.39-.05-11.78.22c7.88-84.84 51.65-43.68 65.95-77.46 2.72-6.32 29.74-4.7 38.52-.77Z" class="color282737 svgShape"></path><path fill="#8dc6ff" fill-rule="evenodd" d="M447.6 135.19c25.94 13.77 21.48 29.44 21.08 47.14s1 35.25-3.52 41.67a23.39 23.39 0 0 1-9.92 8.38s-1 11 0 18.7c3.27 1.48 6.91 3 10.53 4.21 1.15 9-.31 27.54-32.06 26.41-26.06-.92-37.05-13.25-41.64-22.43 5.18-2.33 9.65-6.13 12.73-13.42a68.6 68.6 0 0 0 3.2-21.34c0-14.45-1-17.16-1-17.16s-17.29.14-22.83-13.77 5.2-15.37 5.2-15.37c-12.37-42.55 29.18-58.46 58.23-43.02Z" class="colorffa58d svgShape"></path><path fill="#272a37" fill-rule="evenodd" d="M455.24 232.38s-.54 6-.42 12.17c-20.88-3.3-28.6-16.23-28-16.81s3.31 1.89 11.82 4a42.69 42.69 0 0 0 16.6.64Z" class="color282737 svgShape"></path><path fill="none" stroke="#5f76cd" stroke-linecap="round" stroke-linejoin="round" stroke-width="1.53" d="M449.08 185.1s2.77 5.54 4.66 7 3.17 2.22 3.17 2.22l-3.58 3.11M403.62 197a20 20 0 00-6.28-8c-4.73-3.72-6.76-4.46-6.76-4.46M392.68 195.3l4.97-6.1" class="colorStrokecd665f svgStroke"></path><path fill="#79b1ea" fill-rule="evenodd" d="M430.57 197.63c3.86 0 7-.92 7-2.06s-3.15-2.07-7-2.07-7 .93-7 2.07 3.14 2.06 7 2.06ZM468.59 192.4v4.11h-.77c-3.87 0-7-.93-7-2.07s3.14-2.06 7-2.06Z" class="colorea8a79 svgShape"></path><path fill="none" stroke="#5e647c" stroke-linecap="round" stroke-linejoin="round" stroke-width="2.3" d="M415.42 359.44s16 10.33 39.31 1.21 34.44-4.65 34.44-4.65" class="colorStroke5f5e7c svgStroke"></path><path fill="#0575e6" fill-rule="evenodd" d="M473.18 563.43c-6.16 42.2-9.74 80.14-16.08 115.74-.65 2.7-1.27 6-1.86 10-1.17 5.91-2.42 11.77-3.8 17.57-11.22 39-36.84 55.91-53.48 63a332.84 332.84 0 0 1-45.95 12c-42.2 8-146.1 28.42-146.1 28.42l-21-42.88S334.54 702.05 371.66 693l12.5-141.21s-14.05-15.67-1.22-86.45c.25-1.38.58-2.88.94-4.36 24.2 4.78 77.24 12 138.1.05C555.14 492.1 626.5 648.4 638.8 691.22c4.17 14.54 60.28 271.93 60.28 271.93L653.61 972s-57.11-157.83-68-190.15a288.31 288.31 0 0 1-13.18-62.76l-85.54-158.68Z" class="color3f96d1 svgShape"></path><path fill="#5e647c" fill-rule="evenodd" d="M382.94 465.36a118.75 118.75 0 0 1 3.51-13.31s17.34 2.3 51.38 4.47S522 453.1 522 453.1l3.29 12.26c-60.29 14.79-142.35 0-142.35 0Z" class="color5f5e7c svgShape"></path><path fill="none" stroke="#021b79" stroke-linecap="round" stroke-linejoin="round" stroke-width="2.3" d="M398.74 512.61 381 705.39c-46.27 16.82-97 33.39-169.77 66.65M509.59 529.1s-1.15 10-6.75 17.15a42.65 42.65 0 0 1-13.58 10.94" class="colorStroke1e4864 svgStroke"></path><path fill="none" stroke="#5e647c" stroke-linecap="round" stroke-linejoin="round" stroke-width="2.3" d="M386.74 341c11.69 29.86 13.45 66.25 12.51 97" class="colorStroke5f5e7c svgStroke"></path><path fill="#66b2fe" fill-rule="evenodd" d="M415.79 174.63c-.29 3.64.14 6.9-1.57 8.17-3.72 2.75-3.24 9.4-5.18 8.75s-5.51-14.2-19.7-13.34a8.19 8.19 0 0 0-6.28 5.13 50 50 0 0 1-3-19.84c-2.83-2.63-4.14-5.49-2.81-8.23 4.71-9.66 18.05-33.33 58.25-31.54s38.42 37.77 38.42 37.77-3.73 2.27-18-1.79c-9.37-2.66-17.89-11.05-22.64-16.49a26.93 26.93 0 0 0-5.46 2.38c-2 8.49-6.05 21.94-12.21 26.65 0 .79.08 1.58.15 2.38Z" class="colorfec866 svgShape"></path><path fill="#ffffff" fill-rule="evenodd" d="M401.24 213.66a5.41 5.41 0 1 0-5.4-5.4 5.41 5.41 0 0 0 5.4 5.4Z" class="colorffffff svgShape"></path><path fill="#5f76cd" fill-rule="evenodd" d="M468.84 178c2 1.1 5.18 3.92 5.1 10.71-.08 6.35-3.16 9.53-5.35 11 0-5.51 0-11.44.09-17.39.03-1.44.09-2.88.16-4.32Z" class="colorcd665f svgShape"></path><path fill="#ffffff" fill-rule="evenodd" d="M468.59 198a5.41 5.41 0 0 1 0 10.81h-.15c.12-3.31.15-6.96.15-10.81Z" class="colorffffff svgShape"></path><path fill="#272a37" fill-rule="evenodd" d="M442.88 169.11s1.08-4-3.52-4.32-8.81 2.73-11 5-2.26 3.31-1.45 3.31 6-3.68 9.76-3.61 6.21.2 6.18-.34Zm10.75 0s-1.08-4 3.52-4.32 8.81 2.73 11 5 2.26 3.31 1.45 3.31-6-3.68-9.76-3.61-6.24.16-6.21-.38Z" class="color282737 svgShape"></path><path fill="none" stroke="#5f76cd" stroke-linecap="round" stroke-linejoin="round" stroke-width="1.53" d="M443.28 212.57a14.65 14.65 0 0 0 6 1.3" class="colorStrokecd665f svgStroke"></path><path fill="none" stroke="#021b79" stroke-linecap="round" stroke-linejoin="round" stroke-width="2.3" d="M226.88 805.99l-21.91-47.41M435 477.5c-8.23 15.43-22.43 32.72-40.53 36.2" class="colorStroke1e4864 svgStroke"></path><path fill="none" stroke="#5e647c" stroke-linecap="round" stroke-linejoin="round" stroke-width="2.3" d="m392.72 289.68 5.27 28.41" class="colorStroke5f5e7c svgStroke"></path><path fill="none" stroke="#021b79" stroke-linecap="round" stroke-linejoin="round" stroke-width="2.3" d="M416.83 722.76c9.91 2.82 18.65 4.33 28.64 6.21" class="colorStroke1e4864 svgStroke"></path><path fill="none" stroke="#ffffff" stroke-linecap="round" stroke-linejoin="round" stroke-width="1.53" d="M403.62 249.31c3.65 16.7 12.5 29.53 27.09 41.69 30.14 25.12 44.61-7.29 25.69-40.52" class="colorStrokeffffff svgStroke"></path><path fill="none" stroke="#5e647c" stroke-linecap="round" stroke-linejoin="round" stroke-width="2.3" d="M492.29 277.11s3.38 9.73 6.62 18a57.13 57.13 0 0 0 7.16 13.23" class="colorStroke5f5e7c svgStroke"></path><path fill="#ffffff" fill-rule="evenodd" d="M454.36 202.19a27 27 0 0 1-13.62-2.27s-1.22 6.73 4.74 9.2 8.96-1.58 8.88-6.93Z" class="colorffffff svgShape"></path><path fill="none" stroke="#021b79" stroke-linecap="round" stroke-linejoin="round" stroke-width="2.3" d="M648.38 957.49l47.49-9.02M497.36 554.19L579 703.51s5.76 36.64 23.3 89.55 29.4 86.24 40.32 117.58 14.88 45.11 14.88 45.11M619.48 709.6s3.51 1.09 11.66-1.38 10.57-4.93 10.57-4.93" class="colorStroke1e4864 svgStroke"></path><path fill="#bdcad7" fill-rule="evenodd" d="M573.86 237.43h280a10.68 10.68 0 0 1 10.65 10.65v177.3a20 20 0 0 1-20 20H581.12a20 20 0 0 1-20-20V250.16a12.77 12.77 0 0 1 12.74-12.73Z" class="colorbdc9d7 svgShape"></path><path fill="none" stroke="#ffffff" stroke-linecap="round" stroke-linejoin="round" stroke-width="4.59" d="M605.17 314.6H813.3M605.17 343.46H813.3M605.17 372.31H813.3M605.17 401.16H813.3" class="colorStrokeffffff svgStroke"></path><rect width="41.17" height="11.99" x="605.17" y="275.21" fill="none" stroke="#ffffff" stroke-miterlimit="22.93" stroke-width="4.59" rx="6" class="colorStrokeffffff svgStroke"></rect><rect width="28.04" height="11.99" x="785.91" y="275.21" fill="none" stroke="#ffffff" stroke-miterlimit="22.93" stroke-width="4.59" rx="6" class="colorStrokeffffff svgStroke"></rect><path fill="#8dc6ff" fill-rule="evenodd" d="M497.43 422.53c-76.36 4-128.49-14-143.11-99.43l42.81.19c7.58 30.63 22 48.93 42.45 59.42.75.16 43.42 9.5 71.41 9.22 28.24-.28 39.31-2.4 39.31-2.4l13.24 10.55-3.75 14.21s-31 8-62.35 8.24Z" class="colorffa58d svgShape"></path><path fill="#8dc6ff" fill-rule="evenodd" d="m572 408.7.16-.17c.73-.63 1.47-1.26 2.23-1.88a7.27 7.27 0 0 1 .61-.49 54.79 54.79 0 0 1 8.54-5.81c6-3.13 9.07-4 12.1-5.55s3.88-3.78-.72-4.14-9.88 1.11-11.12 1.11-1.66-1.45 2.78-4.26 9.33-3.26 13.5-4.43 6.07-5-3.19-5.48-17.88 6.26-18 4 5.81-6.79 12.46-8.55 9.72-.65 10.7-2.61-.39-4.17-9.26-4.3-18.46 6.52-19.12 6.52.79-4.37 5.81-8.48 11.29-6 13-8.42-2.28-4.69-11.68-.58-19.66 17-19.66 17v-5.74s-2.06.58-6.69 8.48c-3.13 5.34-3.68 11.18-4.14 14.67l4.21 6.49c2.78 5.28 4.44 12.42 5.28 18.27a25.75 25.75 0 0 0 5.63-1.42 33.82 33.82 0 0 0 6.57-4.23Z" class="colorffa58d svgShape"></path><path fill="none" stroke="#5f76cd" stroke-linecap="round" stroke-linejoin="round" stroke-width="2.3" d="m435 392.78 4.58-10.07" class="colorStrokecd665f svgStroke"></path><path fill="#8dc6ff" fill-rule="evenodd" d="M650.34 249.13c5.64 2 5.06-1.66 3.42-3.65a16.5 16.5 0 0 0-2-2.19s11.57 7.24 13.43 5.36.48-2.5-1.46-4.47-2.91-2.32-2.67-2.68 6.16 3 10.62 5.34 6 1.22 6.3-.53-6.34-7.6-6.34-7.6 10.55 6.86 13 6 1.65-3.35-3.66-8-10.94-8.84-13.56-8.59a11.08 11.08 0 0 0-4.22 1.19 8 8 0 0 0-6.93-.64c-3.94 1.44-4.47 2.12-4.47 2.12s-4.6-2.78-6.74-1.92a16.27 16.27 0 0 0-4.24 2.88s-9-6.36-12.37 5.6c6.35-.17 11.2 4.24 15.81 7.56s6.08 4.22 6.08 4.22Z" class="colorffa58d svgShape"></path><path fill="none" stroke="#272a37" stroke-linecap="round" stroke-linejoin="round" stroke-width="2.14" d="M454.51 186.81c.21-1.29 1.08-4.72 4.47-5.05 4.19-.4 5.61 2.23 5.61 2.23M442.19 186.81c-.21-1.29-1.07-4.72-4.47-5.05-4.18-.4-5.6 2.23-5.6 2.23" class="colorStroke282737 svgStroke"></path><rect width="142.11" height="115.49" x="1490.78" y="108.19" fill="#ffffff" rx="10.72" class="colorffffff svgShape"></rect><path fill="#0575e6" fill-rule="evenodd" d="M1501.5 108.19h120.67a10.74 10.74 0 0 1 10.71 10.72v25.46h-142.1v-25.46a10.75 10.75 0 0 1 10.72-10.72Z" class="color3f96d1 svgShape"></path><path fill="#bdcad7" fill-rule="evenodd" d="M1561.36 194.73v8.47h-33.95v-6.73l17.33-16.37a18.29 18.29 0 0 0 3.72-4.52 8.31 8.31 0 0 0 1-3.76 5 5 0 0 0-1.83-4.14 8.54 8.54 0 0 0-5.36-1.44 12.29 12.29 0 0 0-5.33 1.12 10.22 10.22 0 0 0-4 3.37l-7.57-4.88a17.77 17.77 0 0 1 7.25-6.13 24.3 24.3 0 0 1 10.59-2.21 21.77 21.77 0 0 1 8.76 1.64 13.5 13.5 0 0 1 5.84 4.62 12 12 0 0 1 2.09 7 15.77 15.77 0 0 1-1.54 6.87 26.56 26.56 0 0 1-6 7.32l-10.33 9.75Zm25.29-18.16q5.91 1 9 4.4a12.14 12.14 0 0 1 3.14 8.5 13.4 13.4 0 0 1-2 7.22 14.39 14.39 0 0 1-6.26 5.3 24 24 0 0 1-10.3 2 35.15 35.15 0 0 1-9.34-1.25 23.92 23.92 0 0 1-7.79-3.56l4-8a19.51 19.51 0 0 0 5.94 3 23 23 0 0 0 6.89 1.06 11 11 0 0 0 6.17-1.51 4.86 4.86 0 0 0 2.24-4.27q0-5.52-8.41-5.52h-4.74v-6.87l9.24-10.46h-19.13v-8.34h31.45V165Z" class="colorbdc9d7 svgShape"></path><path fill="#c8e3ff" fill-rule="evenodd" d="M983.31 419.83h223.38a8.53 8.53 0 0 1 8.5 8.5v141.43a16 16 0 0 1-16 15.94H989.1a16 16 0 0 1-15.94-15.94V430a10.19 10.19 0 0 1 10.15-10.17Z" class="colorc8e3ff svgShape"></path><path fill="none" stroke="#ffffff" stroke-linecap="round" stroke-linejoin="round" stroke-width="4.59" d="M1008.28 481.39h166.03M1008.28 504.41h166.03M1008.28 527.43h166.03M1008.28 550.44h166.03" class="colorStrokeffffff svgStroke"></path><path fill="none" stroke="#ffffff" stroke-miterlimit="22.93" stroke-width="4.59" d="M1013.07 459.54h23.27a4.8 4.8 0 0 0 4.79-4.78 4.8 4.8 0 0 0-4.79-4.78h-23.27a4.8 4.8 0 0 0-4.79 4.78 4.8 4.8 0 0 0 4.79 4.78ZM1157.24 459.54H1170a4.79 4.79 0 0 0 4.78-4.78A4.79 4.79 0 0 0 1170 450h-12.8a4.8 4.8 0 0 0-4.79 4.78 4.8 4.8 0 0 0 4.83 4.76Z" class="colorStrokeffffff svgStroke"></path><path fill="#46517b" fill-rule="evenodd" d="M925.69 653.23a29 29 0 0 0-28 3.15c2.56 5 10 19.71 12 26.56 2.43 8.31 1 19.46-7.64 14.73-6.49-3.55-13.36-19.75-16.38-27.59-1 1.63-1.89 3.39-2.8 5.3A152.14 152.14 0 0 0 870 719.59c4.29 4 13 12.2 18.79 17.38 7.91 7.09 16.42 19 11.89 23.24s-11.14.54-17.49-7.5c-5-6.27-11.6-16.13-14.28-20.15-.6 17.66 2.7 33 10.56 41.16 16.08 16.61 35.26 29 61.47 14 21.85-12.51 28.48-34.59 26-57.87-1.27 2.81-3 7.65-6.29 14.84-6.39 13.94-15.27 22.69-18.64 14.72s8.1-18.91 15.13-27.28 5.29-23.66 5.29-23.69a169.4 169.4 0 0 0-7.32-20.44c-2.88 3-8.74 8.77-13.75 11.6-7 3.91-11.82 2.83-10.74-5.14.82-6 10-18.84 14.41-24.71-5.59-7.91-12.06-13.84-19.34-16.55Zm-38.09 53.82 12.76 15.4s4.6 6.35-.54 7.23-17-15.06-17-15.06-4.32-3.79-1.55-7.64 6.28.07 6.28.07Zm62.61 9.86c4.25 2.23 1.21 10.67-4.32 12.36s-7.91-3.44-4.06-9.25 8.38-3.11 8.38-3.11ZM814.58 758.33a29 29 0 0 0-20.65 19.23c5 2.46 19.8 9.86 25.49 14.17 6.9 5.22 12.4 15 2.64 16.37-7.33 1-22.49-7.9-29.6-12.4.21 1.88.51 3.85.92 5.93a152 152 0 0 0 16 43.16c5.83.68 17.72 2.05 25.44 2.77 10.57 1 24.53 5.52 23.39 11.58s-8.63 7.07-18.52 4.4c-7.71-2.09-18.92-6-23.47-7.68 10 14.54 21.85 24.92 33 26.77 22.84 3.77 45.65 2.37 57.78-25.33 10.11-23.06 2.28-44.75-13.58-62 .66 3 2.15 7.93 3.79 15.67 3.18 15 1.26 27.32-6.2 22.93s-4.76-20-4.1-30.93-9.84-22.16-9.86-22.18a168.13 168.13 0 0 0-18.09-12c-.53 4.12-1.79 12.25-4.14 17.5-3.25 7.29-7.8 9.32-11.68 2.27-2.94-5.33-3.2-21.09-3.15-28.43-9.2-3-17.93-3.94-25.39-1.77Zm1.42 65.92 19.47 4.75s7.47 2.36 3.87 6.12-22.59-2-22.59-2-5.72-.46-5.79-5.2 5.08-3.69 5.08-3.69Zm56.17-29.38c4.74-.74 7.33 7.85 3.89 12.51s-8.4 1.94-8.77-5 4.92-7.51 4.92-7.51ZM1023.29 768.05a29 29 0 0 1 20.65 19.24c-5 2.46-19.8 9.86-25.49 14.17-6.9 5.22-12.4 15-2.64 16.37 7.33 1 22.49-7.9 29.6-12.4-.21 1.88-.51 3.85-.92 5.92a151.93 151.93 0 0 1-16 43.17c-5.84.68-17.72 2-25.44 2.77-10.57 1-24.53 5.52-23.39 11.58s8.63 7.07 18.52 4.4c7.71-2.09 18.92-6 23.46-7.69-10 14.55-21.84 24.93-33 26.77-22.81 3.77-45.62 2.33-57.73-25.33-10.11-23.06-2.28-44.75 13.58-62-.66 3-2.15 7.94-3.79 15.68-3.18 15-1.26 27.32 6.2 22.93s4.76-20 4.1-30.93 9.84-22.16 9.86-22.18a168.23 168.23 0 0 1 18.09-12.06c.53 4.13 1.79 12.25 4.14 17.51 3.25 7.29 7.8 9.31 11.68 2.27 2.94-5.34 3.2-21.1 3.15-28.43 9.2-3 17.93-3.94 25.39-1.78Zm-1.46 65.95-19.43 4.76s-7.47 2.37-3.87 6.13 22.59-2 22.59-2 5.72-.46 5.79-5.21-5.08-3.68-5.08-3.68Zm-56.17-29.4c-4.74-.74-7.33 7.85-3.89 12.5s8.4 1.94 8.77-5-4.88-7.5-4.88-7.5Z" class="color467b6c svgShape"></path><path fill="none" stroke="#272a37" stroke-linecap="round" stroke-linejoin="round" stroke-width="1.53" d="M919.07 715.29s1.35 59.7-1.08 92.93 3.24 102.94 3.24 102.94M846.94 814.17s27.83 24.85 42.69 50.52 21.88 44.58 21.88 44.58M927.45 911.16s2.43-13.24 25.66-45.66 37-41.34 37-41.34" class="colorStroke282737 svgStroke"></path><path fill="#263a87" fill-rule="evenodd" d="m852.46 918.22 22.56 151.84H968.5l22.56-151.84-69.3 2.36-69.3-2.36z" class="color265487 svgShape"></path><path fill="#272a37" fill-rule="evenodd" d="m852.46 918.22 3.19 21.46 133.08-5.81 2.33-15.65-69.3 2.36-69.3-2.36z" class="color282737 svgShape"></path><path fill="#263a87" fill-rule="evenodd" d="M842 909h161v14.79c-57.9 5.08-103.64 5.36-161 0Z" class="color265487 svgShape"></path><path fill="#272a37" fill-rule="evenodd" d="M922.46 913.5c44.34 0 80.5-2 80.5-4.53s-36.16-4.52-80.5-4.52-80.5 2-80.5 4.52 36.16 4.53 80.5 4.53Z" class="color282737 svgShape"></path><path fill="none" stroke="#b4cde6" stroke-linecap="round" stroke-linejoin="round" stroke-width="4.59" d="M272.16 130.93h-59.84a3.93 3.93 0 0 0-3.92 3.92V174a3.92 3.92 0 0 0 3.92 3.91h49.3l20.67 13.38-6.21-17.29v-39.15a3.94 3.94 0 0 0-3.92-3.92Z" class="colorStrokeb4cce6 svgStroke"></path><path fill="#b4cde6" fill-rule="evenodd" d="M242 150.82a4 4 0 1 0 4 4 4 4 0 0 0-4-4Zm16.58 0a4 4 0 1 0 4 4 4 4 0 0 0-4-4Zm-33.16 0a4 4 0 1 0 4 4 4 4 0 0 0-4.03-4Z" class="colorb4cce6 svgShape"></path><path fill="#c8e3ff" fill-rule="evenodd" d="M301.58 900.12h55.65v24.45h-55.65v-24.45Zm30.26 28.37h55.65v24.45h-55.65v-24.45Zm30.8-28.37h55.65v24.45h-55.65ZM1457.55 471.44h55.65v24.45h-55.65v-24.45Zm30.26 28.37h55.65v24.45h-55.65v-24.45Zm30.8-28.37h55.65v24.45h-55.65Z" class="colorc8e3ff svgShape"></path><path fill="#66b2fe" fill-rule="evenodd" d="M1326 267.53c-29.64 23.9-64.65 53.88-64.65 53.88s-32.93-23.81-50.58-41.39a254.9 254.9 0 0 1-24.77-28.59 70.18 70.18 0 0 1-26.55 14.39c5.51 10.34 29.73 54.45 51.47 73.62 24.72 21.8 46.72 31 67.64 19.95 12.58-6.64 91.94-67.42 101.57-82 11.35-17.18 5.19-35.66-11.67-37.93S1326 267.53 1326 267.53Z" class="colorfec866 svgShape"></path><path fill="#5c76d9" fill-rule="evenodd" d="m1476.07 1003.48.56 29.36-34.28-.56-1.62-24.8 35.34-4zM1216.67 964.15l-5.37 32.41-33.96-4.75 4.2-31.49 35.13 3.83z" class="colord9735c svgShape"></path><path fill="#272a37" fill-rule="evenodd" d="m1310 516.45 6.17-29.6h160.1l1.21 28.47c.69 9.85 1.82 25.64 2.27 30.89.66 7.84.38 178.94.29 188.89s2.86 68.49 8.11 116.51-6.57 154.09-6.57 154.09l-46.66 4.94-43.15-400.84-25.32-2.41c-45.55 107.89-113.61 256-145.88 364.73l-41.86-8.9c18.88-147.77 75.09-309.03 131.29-446.77Z" class="color282737 svgShape"></path><path fill="none" stroke="#5e647c" stroke-linecap="round" stroke-linejoin="round" stroke-width="2.3" d="m1225.32 955.99-44.42-9.83" class="colorStroke5f5e7c svgStroke"></path><path fill="#bdcad7" fill-rule="evenodd" d="m1213.3 1047.17-117.12-14.4s-.77-10.39 6.68-15.19 53.61-19.54 62-24.63 10.56-8.64 16.47-6.24 11 7.1 19 6.09 11.75-2.6 14.44.8.71 18.09.66 28.45-2.13 25.12-2.13 25.12Z" class="colorbdc9d7 svgShape"></path><path fill="#5e647c" fill-rule="evenodd" d="m1213.3 1047.17-117.12-14.4a21.64 21.64 0 0 1 .73-6.51l117.2 14.41c-.43 3.85-.81 6.5-.81 6.5Z" class="color5f5e7c svgShape"></path><path fill="none" stroke="#5e647c" stroke-linecap="round" stroke-linejoin="round" stroke-width="2.3" d="M1198.65 1041s-1.2-15.5 4-24.82 13.46-11.4 13.46-11.4" class="colorStroke5f5e7c svgStroke"></path><path fill="none" stroke="#ffffff" stroke-linecap="round" stroke-linejoin="round" stroke-width="3.06" d="m1131.5 1013.32-6.51-4.83M1139.5 1010.39l-6.51-4.83M1147.38 1007.52l-6.51-4.83M1155.38 1004.55l-6.5-4.83M1163.83 1001.26l-6.5-4.83M1170.38 998.33l-6.51-4.83" class="colorStrokeffffff svgStroke"></path><path fill="#bdcad7" fill-rule="evenodd" d="M1486 1082.83h-72.17a21.72 21.72 0 0 1-.07-6.54 39.3 39.3 0 0 1 11.46-24.92c11.08-10.67 10.54-9.86 15.13-22s22-10.53 28.64-8.51 10.64 12 10.64 12c4.1 15.57 5.79 39.06 6.37 49.97Z" class="colorbdc9d7 svgShape"></path><path fill="#5e647c" fill-rule="evenodd" d="M1486 1082.83h-72.17a21.72 21.72 0 0 1-.07-6.54h71.84c.18 2.47.31 4.71.4 6.54Z" class="color5f5e7c svgShape"></path><path fill="none" stroke="#ffffff" stroke-linecap="round" stroke-linejoin="round" stroke-width="3.06" d="M1433.68 1054c4.31-1.8 17-1.4 20.93.54M1437.59 1046.24c4.32-1.8 17-1.4 20.94.54M1441.09 1038.6c4.32-1.8 17-1.4 20.94.54M1443.57 1031.33c4.32-1.8 17-1.4 20.94.54" class="colorStrokeffffff svgStroke"></path><path fill="none" stroke="#5e647c" stroke-linecap="round" stroke-linejoin="round" stroke-width="2.3" d="M1441.77 765.59s-10.71 2.77-18.34 3.82-14.32 1.54-14.32 1.54M1433.24 995.19l49.92-5.29M1467.05 587.27s3.29 146.36 4.95 158.73 9.41 94.86 10.59 118.37.23 54.42-1.4 75.94-3.16 50.14-3.16 50.14M1253.95 747.44l-23-1.23M1355.43 595.23l-95.32 235s-27.79 75.7-32.66 92.08-9.37 32-9.37 32" class="colorStroke5f5e7c svgStroke"></path><path fill="#bdcad7" fill-rule="evenodd" d="m958.38 198.44 275.89 48a10.68 10.68 0 0 1 8.67 12.32l-30.42 174.67a20.05 20.05 0 0 1-23.12 16.27l-259.54-45.15a20.06 20.06 0 0 1-16.27-23.12l30.06-172.63a12.77 12.77 0 0 1 14.73-10.36Z" class="colorbdc9d7 svgShape"></path><path fill="none" stroke="#ffffff" stroke-linecap="round" stroke-linejoin="round" stroke-width="4.59" d="m975.98 279.84 205.05 35.7M971.03 308.27l205.05 35.7M966.08 336.7l205.05 35.7M961.14 365.12l205.05 35.7" class="colorStrokeffffff svgStroke"></path><path fill="none" stroke="#ffffff" stroke-miterlimit="22.93" stroke-width="4.59" d="m986.59 253.88 28.74 5a6 6 0 0 0 6.94-4.88 6 6 0 0 0-4.88-6.94l-28.74-5a6 6 0 0 0-6.94 4.88 6 6 0 0 0 4.88 6.94ZM1164.65 284.89l15.81 2.75a6 6 0 0 0 6.94-4.88 6 6 0 0 0-4.88-6.94l-15.81-2.75a6 6 0 0 0-6.94 4.88 6 6 0 0 0 4.88 6.94Z" class="colorStrokeffffff svgStroke"></path><path fill="none" stroke="#2b2e39" stroke-linecap="round" stroke-linejoin="round" stroke-width="2.3" d="M1371.35 590.27l3.56-52.2M1388 538.64l-2.59 26.83s-.06 5.47-6.44 5.79-13.5-3.68-13.5-3.68M1424.8 540.81s11.08 24.58 27 33.16 28.3 6.62 28.3 6.62" class="colorStroke2b2b39 svgStroke"></path><path fill="#66b2fe" fill-rule="evenodd" d="M1335.85 317.72c-.23 24-4.09 50.68-10.13 78.4s-18.36 88-31 127.24c-9.83 30.52-22.41 66.32-27.52 80.73 12.41 7 44.68 24.47 76.09 34.08l25.59-45.27 8.39 52c46.17 3.88 115.46-6.26 115.46-6.26.4-18.19 22.31-348.88 8.81-383.5-10.48-16.4-26.87-24-62.45-29.78-17.43-2.85-41.49 1.31-59.66 5.64-33.43 8.9-41.64 58.11-43.58 86.72Z" class="colorfec866 svgShape"></path><path fill="#163197" fill-rule="evenodd" d="M1375.74 190.24s-7.78-2-9.4-14.94 6.75-13.42 6.75-13.42Z" class="color973116 svgShape"></path><path fill="#5c76d9" fill-rule="evenodd" d="M1441.27 128.56s-10.89-17-39-13-32.79 21.8-31.72 33.19 2.31 32.36 2.87 40.69 5 20.45 9.54 23.67 10.65 3.77 10.65 3.77l1.43 13.46s9.27 8.12 26.78 4.16 19.63-12.74 19.63-12.74L1434 185s15-2.87 18.26-13.29-4.39-15.14-4.39-15.14 2.59-13.37-6.6-28.01Z" class="colord9735c svgShape"></path><path fill="none" stroke="#272a37" stroke-linecap="round" stroke-linejoin="round" stroke-width=".92" d="M1403.26 162.79a7.28 7.28 0 0 0-4.5-1.4 6.26 6.26 0 0 0-4.2 1.42" class="colorStroke282737 svgStroke"></path><path fill="#272a37" fill-rule="evenodd" d="M1398.48 161.4c-1.19.16-1.9 2.08-1.6 4.28s1.5 3.85 2.69 3.69 1.91-2.08 1.61-4.28-1.51-3.85-2.7-3.69Z" class="color282737 svgShape"></path><path fill="none" stroke="#272a37" stroke-linecap="round" stroke-linejoin="round" stroke-width=".92" d="M1376.72 166a7.32 7.32 0 0 1 4.19-2.16 6.37 6.37 0 0 1 4.39.68" class="colorStroke282737 svgStroke"></path><path fill="#272a37" fill-rule="evenodd" d="M1380.91 163.8c1.19-.16 2.4 1.49 2.7 3.69s-.42 4.12-1.61 4.28-2.39-1.49-2.69-3.69.41-4.08 1.6-4.28Z" class="color282737 svgShape"></path><path fill="#3a54b6" fill-rule="evenodd" d="M1408.8 173.44c-3.84.52-6.82 1.86-6.67 3s3.39 1.62 7.23 1.09 6.82-1.86 6.67-3-3.39-1.62-7.23-1.09Z" class="colorb6513a svgShape"></path><path fill="none" stroke="#272a37" stroke-linecap="round" stroke-linejoin="round" stroke-width="4.59" d="M1406.81 153.08a19.37 19.37 0 0 0-6.59-2.15 24.78 24.78 0 0 0-6.29 0M1385.28 151.47c-4 .28-7.72.83-10.54 4" class="colorStroke282737 svgStroke"></path><path fill="none" stroke="#163197" stroke-linecap="round" stroke-linejoin="round" stroke-width="1.53" d="M1446.4 162.62a27.3 27.3 0 0 0-7 6.24c-3.43 4.23-3.76 7.18-3.76 7.18" class="colorStroke973116 svgStroke"></path><path fill="none" stroke="#163197" stroke-linecap="round" stroke-linejoin="round" stroke-width="1.53" d="M1446.52 170.66s-2.86-1.34-4.3-1.82a16.14 16.14 0 0 0-2.33-.62M1427 182.1c1.68 1.36 4.73 3.22 7 2.92" class="colorStroke973116 svgStroke"></path><path fill="#272a37" fill-rule="evenodd" d="M1436.41 162.51s-6 6.63-10 4.31 1.35-10.49-3.1-12.5-4.61-5-5.53-10-2-17.24-19.44-17.13-25.86 7.5-25.86 7.5-15.38-8.57-9.22-18.46 12-1.46 19.94-10.86 20.1-1.46 20.1-1.46 14.58-6.81 21.39-1.78 4 10.7 13.62 10.7 15.56 7.45 13.13 14.75 6.48 12.48 4.86 19.45-8.49 9.52-8.49 9.52-5.29-2.85-11.4 5.96Z" class="color282737 svgShape"></path><path fill="#3a54b6" fill-rule="evenodd" d="m1372.59 177 .26 4.12c3.61-.56 6.34-1.84 6.19-2.93s-2.96-1.52-6.45-1.19Z" class="colorb6513a svgShape"></path><path fill="none" stroke="#163197" stroke-linecap="round" stroke-linejoin="round" stroke-width="1.53" d="M1389.88 158.93s-2.78 11.42-4.53 12.93-5.75 2.54-5.64 3.34 6.91 5.64 6.91 5.64" class="colorStroke973116 svgStroke"></path><path fill-rule="evenodd" d="m1393.58 216.92.75 7.06c3.4.27 11.19.29 17.78-4 8.71-5.73 10.66-14.75 9.65-14.65s-5.58 4.89-11.94 8.34-16.24 3.25-16.24 3.25Z" fill="#000000" class="color000000 svgShape"></path><path fill="none" stroke="#163197" stroke-linecap="round" stroke-linejoin="round" stroke-width="1.53" d="M1397.74 195.19a14.71 14.71 0 0 1-5.66 2.4" class="colorStroke973116 svgStroke"></path><path fill="#66b2fe" fill-rule="evenodd" d="M1450.29 227.32s-6.34-15.91-8.41-17.25a10.31 10.31 0 0 0-3.15-1.55s-1.47 11.44-16.91 20.55c-9.68 2.48-21-.6-21-.6-6.38-3.7-7.21-11.55-7.21-11.55a12.75 12.75 0 0 0-2.68 2c-1 1.06-3.91 15.51-3.91 15.51s-.54 2.73 3.1 8.65 11.92 7.86 11.92 7.86c16.87 6.52 50.68-1.21 48.25-23.62Z" class="colorfec866 svgShape"></path><path fill="#5c76d9" fill-rule="evenodd" d="M1158.61 247.05c-6.83 1.16-5.43-2.9-3.17-4.84a19.63 19.63 0 0 1 2.65-2.12s-14.62 6-16.36 3.45-.06-2.94 2.55-4.81 3.77-2.06 3.57-2.52-7.61 2.21-13.16 4-7.1.19-7.07-1.85 8.74-7.41 8.74-7.41-13.39 5.73-16 4.3-1.22-4.14 5.74-8.34 14.22-7.89 17.16-7.09a13 13 0 0 1 4.57 2.19 9.17 9.17 0 0 1 8 .65c4.2 2.42 4.67 3.31 4.67 3.31s5.79-2.27 8.06-.85a18.6 18.6 0 0 1 4.26 4.12s11.55-5.46 13 8.83c-7.2-1.45-13.6 2.61-19.51 5.48s-7.7 3.5-7.7 3.5ZM1210.77 367.72l-.15-.23q-1.09-1.33-2.25-2.67a7.87 7.87 0 0 0-.62-.71 49.62 49.62 0 0 0-8.88-8.61c-4.7-3.6-9.88-6.6-13.15-9s-3.8-5.27 1.7-4.74 11.44 3.34 12.9 3.59 2.25-1.37-2.4-5.59-10.34-5.77-15-8-6.14-7.1 4.9-5.81 19.81 11.06 20.43 8.39-5.46-9.2-13-12.65-11.34-2.76-12.09-5.27 1.32-4.85 11.82-3.18 20.45 11.49 21.22 11.63 0-5.32-5.11-11.21-12.09-9.4-13.6-12.6 3.66-5.07 13.91 1.71 19.72 24.06 19.72 24.06l1.18-6.78s2.31 1.12 6.15 11.39c2.6 6.94 2 14 1.87 18.16.16 2.13 1.16 2.57 1.16 2.57a46 46 0 0 0-8.46 21.7c-.18 1.64-.33 3.13-.47 4.49-3.3-.62-6.7-1.29-6.7-1.29a38.81 38.81 0 0 1-8.17-3 40.33 40.33 0 0 1-6.91-6.35Z" class="colord9735c svgShape"></path><path fill="#66b2fe" fill-rule="evenodd" d="M1241.5 352.13s125.68 3.06 155.83-9.58 59.65-69.38 70-79.11c0 0 21.72-23.67 39.22-4.21a20.64 20.64 0 0 1 4.6 8.88c.74 3.23 3.45 14.15-9.78 35.21s-47.34 64.51-85.59 84.61c-12.64 6.64-30.94 9.08-50.35 9.24-35.08 2.84-110.43-10.23-133.32-14.43.22-2.32.51-5.25.91-8.91a46 46 0 0 1 8.48-21.7Z" class="colorfec866 svgShape"></path><path fill="none" stroke="#0231e4" stroke-linecap="round" stroke-linejoin="round" stroke-width="2.3" d="M1411.76 391.2l-2.6-11.63M1351.54 350.11c19.78-1.48 36.91-3.87 45.79-7.56 23.48-9.76 46.77-45.83 60.56-66.23 4.06-6 7.29-10.66 9.47-12.88m28.64 48.05c-15.78 22.66-46.35 58.68-80.16 76.44-12.64 6.64-30.94 9.08-50.35 9.24h0c-9 .74-20.76.41-33.56-.55M1247 352.34c6.85.13 19.48.23 34.69.1M1372 580.27c1.38-10.69 11.12-64.94 14.68-97s9.57-81.7 9.57-81.7M1412 260.19l-9.57 71.81" class="colorStrokee48a02 svgStroke"></path><path fill="#0231e4" fill-rule="evenodd" d="m1307.6 503.33-4 12.16a255.63 255.63 0 0 0 46.69 13l3.31-13.58s-16.49-2.25-46-11.58ZM1411.39 523.49l-.73 12.8a256.29 256.29 0 0 0 48.45.32l-.35-14s-16.46 2.18-47.37.88Z" class="colore48a02 svgShape"></path><path fill="none" stroke="#0231e4" stroke-linecap="round" stroke-linejoin="round" stroke-width="2.3" d="M1273.26 586.84c24.19 13.56 46.42 22.87 71.85 33.83M1383.46 627.91s27.72.81 55.44-1 47.82-4.38 47.82-4.38" class="colorStrokee48a02 svgStroke"></path><path fill="none" stroke="#0231e4" stroke-linecap="round" stroke-linejoin="round" stroke-width="2.3" d="M1494 327.66s-2.6 128.71-6.16 172.15-6.2 123.36-6.2 123.36" class="colorStrokee48a02 svgStroke"></path><path fill="#0231e4" fill-rule="evenodd" d="m1346.17 311-1.44 12.66a137.14 137.14 0 0 0 35 5l.74-13.93s-12.02.6-34.3-3.73Z" class="colore48a02 svgShape"></path><path fill="none" stroke="#0231e4" stroke-linecap="round" stroke-linejoin="round" stroke-width="2.3" d="M1355.15 249c-12.13 17.25-16.9 42.67-18.75 62M1271.07 330.58l-9.71-9.17M1387.09 236.08a20.71 20.71 0 003 7c3.65 5.91 11.92 7.86 11.92 7.86 15.63 6.05 45.75-.12 48.24-18.82M1399.78 232.1l-1.56 17.48" class="colorStrokee48a02 svgStroke"></path><path fill="#ffffff" fill-rule="evenodd" d="M1385.31 186.19A22.55 22.55 0 0 0 1393 184a19.12 19.12 0 0 0 4.21-3s1.54 5.23-2 8.92-7.09 3-7.09 3Z" class="colorffffff svgShape"></path><path fill="none" stroke="#0231e4" stroke-linecap="round" stroke-linejoin="round" stroke-width="2.3" d="M1248.11 380.88c1.31-11.22 2.94-18.41 8-28.43" class="colorStrokee48a02 svgStroke"></path><path fill="none" stroke="#b4cde6" stroke-linecap="round" stroke-linejoin="round" stroke-width="4.59" d="M250.14 426.79v17a4.22 4.22 0 1 1-8.44 0v-17h-17a4.22 4.22 0 1 1 0-8.43h17v-17a4.22 4.22 0 0 1 8.44 0v17h17a4.22 4.22 0 1 1 0 8.43Z" class="colorStrokeb4cce6 svgStroke"></path><circle cx="216.61" cy="623.57" r="25.97" fill="none" stroke="#b4cde6" stroke-miterlimit="22.93" stroke-width="4.59" transform="rotate(-13.42 216.683 623.716)" class="colorStrokeb4cce6 svgStroke"></circle><path fill="#b4cde6" fill-rule="evenodd" d="M212.37 607.44h8.47l-1.41 20.82h-5.65l-1.41-20.82Zm4.24 32.26a4.32 4.32 0 0 1-3.13-1.21 3.93 3.93 0 0 1-1.25-2.94 3.81 3.81 0 0 1 1.23-2.89 4.84 4.84 0 0 1 6.29 0 3.81 3.81 0 0 1 1.23 2.89 3.93 3.93 0 0 1-1.25 2.94 4.32 4.32 0 0 1-3.12 1.21Z" class="colorb4cce6 svgShape"></path></svg>