<svg xmlns="http://www.w3.org/2000/svg" xmlns:xlink="http://www.w3.org/1999/xlink" enable-background="new 0 0 3000 2000" viewBox="0 0 3000 2000" id="SigningaWill"><switch><g fill="#000000" class="color000000 svgShape"><polygon points="2174.3 1618.821 1558.33 1976.783 683.768 1471.854 1299.738 1113.892" opacity=".1" fill="#000000" class="color000000 svgShape"></polygon><linearGradient id="a" x1="1234.995" x2="1617.846" y1="395.68" y2="395.68" gradientUnits="userSpaceOnUse"><stop offset="0" stop-color="#2956ff" class="stopColorffd529 svgShape"></stop><stop offset="1" stop-color="#0032ed" class="stopColoredbe00 svgShape"></stop></linearGradient><path fill="url(#a)" d="M1481.236,153.831c1.416-0.817,2.658-1.333,3.764-1.571
					c6.795-1.378,12.781,6.26,18.572,13.654c5.83,7.461,11.874,15.155,20.739,17.448c8.981,2.315,20.181-0.982,31.012-4.177
					c10.578-3.116,21.506-6.323,25.617-2.223c4.033,4.011,3.274,17.263,2.533,30.102c-0.759,13.296-1.555,27.06,1.932,37.301
					c3.369,9.841,10.709,15.514,17.796,20.999c7.184,5.562,14.621,11.314,14.645,19.805c0.024,8.491-7.356,22.797-14.485,36.623
					c-7.033,13.637-14.316,27.753-17.619,41.446c-3.418,14.228-2.546,27.029-1.714,39.407c0.811,11.921,1.642,24.276-2.354,32.923
					c-4.074,8.826-14.984,18.205-25.546,27.294c-10.813,9.324-21.995,18.927-30.934,31.611
					c-8.823,12.505-14.804,27.142-20.572,41.298c-5.73,14.045-11.652,28.559-18.433,35.019c-1.104,1.039-2.345,1.957-3.761,2.774
					c-6.168,3.561-14.518,4.498-22.597,5.39c-10.545,1.155-21.421,2.367-32.864,8.973c-11.423,6.595-22.289,17.936-32.787,28.908
					c-8.057,8.424-16.406,17.151-22.573,20.712c-1.416,0.817-2.638,1.322-3.764,1.548c-6.776,1.39-12.781-6.238-18.552-13.643
					c-5.849-7.449-11.874-15.155-20.758-17.436c-8.982-2.337-20.181,0.982-31.012,4.154c-10.559,3.105-21.487,6.334-25.617,2.245
					c-4.013-4.023-3.254-17.296-2.514-30.113c0.759-13.296,1.536-27.048-1.951-37.29c-3.35-9.852-10.69-15.526-17.796-20.999
					c-7.184-5.562-14.621-11.314-14.645-19.805c-0.024-8.491,7.356-22.797,14.485-36.623c7.052-13.67,14.336-27.764,17.619-41.446
					c3.418-14.228,2.565-27.04,1.734-39.418c-0.811-11.943-1.642-24.276,2.335-32.912c4.093-8.837,15.004-18.239,25.546-27.316
					c10.833-9.313,22.015-18.938,30.954-31.599c8.823-12.505,14.784-27.13,20.572-41.298c5.73-14.045,11.653-28.559,18.414-35.008
					c1.124-1.051,2.345-1.957,3.78-2.785c6.148-3.55,14.518-4.498,22.597-5.39c10.526-1.166,21.421-2.367,32.844-8.962
					c11.443-6.607,22.289-17.958,32.807-28.942C1466.74,166.085,1475.069,157.392,1481.236,153.831z"></path><g fill="#000000" class="color000000 svgShape"><defs><rect id="b" width="3000" height="2000" fill="#000000" class="color000000 svgShape"></rect></defs><clipPath id="c"><use overflow="visible" xlink:href="#b"></use></clipPath><g clip-path="url(#c)" opacity=".1" fill="#000000" class="color000000 svgShape"><path d="M2221.429,1642.566c9.566,16.876,5.618,41.951-3.241,50.749c-7.523,7.471-18.804,6.274-20.807,5.829
							c-14.263-3.169-33.196-16.397-51.392-40.249c-38.986-51.104-40.689-68.877-40.671-89.515
							c0.002-2.759,77.937-177.297,103.517-190.031c20.361-10.136,55.763,4.086,63.267,19.369
							c7.789,15.865-82.55,173.554-93.236,185.257C2189.593,1601.63,2208.871,1620.411,2221.429,1642.566z" fill="#000000" class="color000000 svgShape"></path><path d="M2212.095,1667.896c-4.114-6.055-34.115-31.141-37.435-29.937c-8.971,3.255-10.67,18.081-9.88,26.687
							c1.816,19.766,28.765,33.748,33.525,35.536C2198.819,1693.863,2204.811,1675.099,2212.095,1667.896z" fill="#000000" class="color000000 svgShape"></path><path d="M2177.073,1469.978c13.249,23.852-50.297,99.826-51.871,118.226c3.125,13.68,36.837,45.788,43.256,64.967
							c4.148,12.394,5.725,33.259-3.051,45.136c-5.619,7.604-16.163,15.995-29.003,16.011c-4.133,0.005-20.28-5.392-47.513-51.554
							c-5.925-10.044-35.73-26.776-43.694-41.143c-16.816-30.336-5.106-105.873,34.18-138.968
							C2112.597,1454.669,2167.461,1452.672,2177.073,1469.978z" fill="#000000" class="color000000 svgShape"></path><path d="M2101.36 1643.566c8.466 3.29 35.788 19.506 45.309 34.006-9.046 7.824-11.225 28.584-8.674 36.528-10.608 7.036-48.113-38.46-50.188-53.275C2089.265 1653.958 2094.045 1646.314 2101.36 1643.566zM2036.653 1482.615c-32.708 55.013-35.914 92.199-37.59 113.889 7.934 16.204 16.618 70.279 24.077 73.656 17.259 7.812 46.278 18.563 52.461-45.91.873-9.101 2.891-29.936 10.605-49.421 13.764-34.766 16.201-73.625 36.732-95.924 32.024-34.78 63.566-30.62 71.727-56.663 6.893-21.999-16.457-53.485-38.198-59.129C2114.223 1352.146 2058.541 1445.801 2036.653 1482.615z" fill="#000000" class="color000000 svgShape"></path><path d="M1999.128,1596.651c7.149-11.112,48.83,27.742,43.416,43.449c-2.759,8.003-8.986,13.216-12.34,19.991
							c-2.353,4.752,0.689,10.372-0.918,11.892c-1.328,1.257-5.483,1.647-8.991-0.918
							C2008.85,1662.698,1995.492,1602.303,1999.128,1596.651z" fill="#000000" class="color000000 svgShape"></path><path d="M1981.542,1568.1c5.594,11.697,13.891,20.716,24.565,27.381c68.237-47.893,171.558-127.809,261.949-208.83
								l-49.627-55.315C2127.987,1411.793,2037.243,1502.47,1981.542,1568.1z" fill="#000000" class="color000000 svgShape"></path><path d="M2584.408,1706.429c-31.849-10.985-64.966-28.426-117.89-53.086c-11.189-5.214-31.014-8.347-34.701-6.977
							c-34.992,13.002-57.97,4.515-71.116,1.708c-41.588-8.881-105.728-56.367-139.809-71.894
							c-8.487-19.148,27.791-34.142,32.712-71.292c5.828-43.996-9.972-66.864,4.873-100.833
							c12.125-27.743,24.865-73.044,51.634-114.027l5.154-6.898c28.954,25.485,47.996,51.01,52.633,55.121
							c67.213,59.593,115.063,98.932,147.826,115.02c55.056,27.035,123.473,37.623,155.917,48.921
							C2711.287,1562.59,2640.488,1705.224,2584.408,1706.429L2584.408,1706.429z" fill="#000000" class="color000000 svgShape"></path><path d="M2246.565,1244.191c-14.689,0.491-38.633,12.978-59.349,25.74c-17.549,10.811-87.662,33.344-120.393,48.49
							c-22.786,10.544-38.489,18.697-51.038,43.888c-16.734,33.593-67.826,106.619-75.519,131.14
							c-3.856,12.293-24.888,37.163-32.039,62.469c-4.271,15.113,17.865,27.92,34.466,25.968
							c24.581-2.89,82.153-66.272,100.082-97.615c14.744-11.616,42.252-44.44,54.257-62.888
							c14.201-6.216,61.847-14.889,82.549-36.861c14.24,21.325,47.652,52.682,73.451,68.992l62.232-170.383
							C2273.32,1246.551,2253.775,1243.949,2246.565,1244.191z" fill="#000000" class="color000000 svgShape"></path><path d="M2183.779,1440.529c6.785-0.148,13.126,0.255,19.328,0.835c-49.105,42.258-99.912,82.988-145.408,117.673
							c-12.658-7.129-22.654-18.531-25.403-34.54c-1.31-7.63-0.556-14.77,1.652-21.336c11.723-12.053,23.927-24.361,36.502-36.812
							C2096.306,1455.223,2168.885,1440.853,2183.779,1440.529z" fill="#000000" class="color000000 svgShape"></path><path d="M2296.253,1437.95c-10.52,5.332-26.396,11.753-46.218,13.387c-24.311,2.004-42.201-3.711-65.111-3.213
							c-15.745,0.342-95.994,16.385-117.316,27.697c-20.382,10.813-38.524,30.901-34.167,56.272
							c4.494,26.169,28.336,40.047,51.552,43.032c35.214,4.527,69.02,4.69,128.446,1.495c31.351-1.686,47.516-1.144,64.734,4.814
							c18.805,6.507,51.331,28.399,81.753,40.261c22.102,8.618,56.615,14.882,107.992-0.234L2296.253,1437.95z" fill="#000000" class="color000000 svgShape"></path><polygon points="2174.3 1618.821 1558.33 1976.783 683.768 1471.854 1299.738 1113.892" opacity=".1" fill="#000000" class="color000000 svgShape"></polygon><path d="M2043.945 1496.402c17.824-10.333 46.433-10.458 65.626-9.151 3.808 14.625 6.152 55.484 4.174 69.827-18.101 7.978-56.815 8.904-66.777 2.543C2028.11 1547.581 2020.808 1509.816 2043.945 1496.402zM2452.105 1737.922l610.946 276.665 139.024-343.683-634.734-221.68C2486.771 1502.318 2439.28 1640.387 2452.105 1737.922z" fill="#000000" class="color000000 svgShape"></path><path d="M2495.962,1783.756l686.435,310.85l156.203-386.149l-713.163-249.071
							C2534.912,1519.041,2481.552,1674.17,2495.962,1783.756z" fill="#000000" class="color000000 svgShape"></path></g><path fill="#e1ebf5" d="M1581.198,1256.271c-81.219-48.307-145.484-163.424-145.22-256.755
										c0.529-186.612,1.587-559.886,2.116-746.499c0.141-49.593-19.164-107.759-52.549-158.38
										c-9.441-14.324-36.391-55.172-37.809-57.322c-1.359-2.056-2.995-3.622-4.623-4.561c-1.897-1.095-3.78-1.339-5.193-0.518
										L731.775,384.489c1.413-0.821,3.296-0.577,5.193,0.518c1.627,0.94,3.264,2.505,4.622,4.561
										c1.419,2.15,28.368,42.998,37.809,57.322c33.385,50.621,52.689,108.787,52.549,158.38
										c-0.529,186.612-1.587,559.887-2.116,746.499c-0.265,93.331,64.001,208.448,145.22,256.755
										c42.513,24.555,80.59,26.924,107.845,11.085l606.145-352.253C1661.788,1283.195,1623.71,1280.825,1581.198,1256.271z" class="colorf5efe1 svgShape"></path><path fill="#c9c9c9" d="M1225.497 637.764c-.512-8.395-4.334-7.109-6.172-6.49L905.754 813.501c-9.008 7.44-6.435 20.363-2.466 20.82.74.085 1.742-.272 2.409-.604l313.572-182.228C1224.872 646.852 1225.491 640.346 1225.497 637.764L1225.497 637.764zM1360.206 559.479c-.166-5.822-2.531-8.309-6.172-6.49l-74.858 43.503c-7.586 5.029-8.038 20.2-2.467 20.82.978.109 1.673-.238 2.409-.605l74.858-43.503C1358.531 570.183 1360.197 563.341 1360.206 559.479L1360.206 559.479zM1002.079 881.177c-.164-5.889-2.586-8.543-6.171-6.762l-90.476 52.579c-7.594 5.055-8.046 20.603-2.468 21.314.978.124 1.673-.221 2.409-.586l90.476-52.579C1000.403 892.113 1002.07 885.131 1002.079 881.177L1002.079 881.177zM1137.357 802.562c-.165-5.888-2.587-8.542-6.171-6.762l-95.966 55.769c-7.595 5.055-8.047 20.604-2.468 21.314.978.124 1.673-.221 2.409-.586l95.966-55.769C1135.681 813.497 1137.348 806.515 1137.357 802.562L1137.357 802.562zM1359.884 673.243c-.096-3.437-1.024-8.886-6.171-6.762l-180.384 104.828c-8.065 6.043-7.564 20.665-2.472 21.317.739.095 1.725-.304 2.413-.589l180.384-104.828C1359.563 682.782 1359.88 674.799 1359.884 673.243L1359.884 673.243zM1057.711 962.317c-.096-3.348-1.026-8.644-6.172-6.501l-146.43 85.096c-8.081 6.025-7.571 20.246-2.466 20.79.742.079 1.721-.325 2.409-.613l146.43-85.096C1057.391 971.596 1057.707 963.829 1057.711 962.317L1057.711 962.317zM1288.589 828.145c-.162-5.649-2.638-8.263-6.162-6.506l-189.456 110.1c-7.629 5.688-7.647 19.303-3.007 20.682.631.188 1.426.256 2.95-.505l189.456-110.1C1288.27 837.425 1288.586 829.657 1288.589 828.145L1288.589 828.145zM1359.562 786.9c-.165-5.737-2.587-8.289-6.172-6.501l-25.288 14.696c-7.05 4.678-8.113 19.147-3.005 20.681 1.211.364 2.298-.179 2.948-.504l25.287-14.695C1357.887 797.559 1359.553 790.745 1359.562 786.9L1359.562 786.9zM966.046 1123.275c-.167-5.307-2.59-7.567-6.174-5.758l-55.071 32.004c-7.083 4.657-8.139 18.052-3.003 19.218 1.212.275 2.3-.276 2.95-.605l55.071-32.004C964.374 1133.142 966.038 1126.805 966.046 1123.275L966.046 1123.275zM1359.256 894.766c-.163-5.226-2.644-7.54-6.174-5.758l-110.984 64.497c-7.618 5.009-8.06 18.998-2.461 19.29.97.051 1.669-.303 2.408-.677l110.984-64.497C1357.583 904.635 1359.248 898.297 1359.256 894.766L1359.256 894.766zM1203.297 985.399c-.366-5.499-2.385-7.383-6.174-5.758l-200.07 116.268c-8.09 5.935-7.574 19.028-2.462 19.291.75.039 1.72-.381 2.409-.678l200.07-116.268C1202.979 993.94 1203.294 986.789 1203.297 985.399L1203.297 985.399zM1021.716 1187.104c-.169-4.568-2.593-6.328-6.177-4.484l-111.015 64.515c-6.731 4.359-8.137 15.385-3.506 16.697.641.182 1.761.214 3.46-.665l111.015-64.515C1020.048 1195.715 1021.71 1190.137 1021.716 1187.104L1021.716 1187.104zM1241.27 1059.514c-.37-4.716-2.391-6.182-6.177-4.484l-183.073 106.39c-7.244 5.171-7.746 15.497-3.506 16.698 1.226.347 2.465-.214 3.461-.665l183.073-106.39C1240.957 1066.873 1241.268 1060.707 1241.27 1059.514L1241.27 1059.514zM1358.983 991.107c-.169-4.568-2.594-6.328-6.177-4.483l-71.317 41.445c-6.744 4.366-8.151 15.393-3.511 16.7 1.407.396 2.646-.244 3.465-.668l71.317-41.445C1357.314 999.718 1358.976 994.139 1358.983 991.107L1358.983 991.107zM1107.804 1231.374c-1.159-5.764-4.107-8.242-7.695-6.468l-193.88 112.671c-7.72 5.869-5.325 19.295.202 20.717.751.193 1.66.268 3.205-.489l193.88-112.671C1109.084 1240.832 1108.065 1232.917 1107.804 1231.374L1107.804 1231.374zM1362.205 1083.532c-1.405-5.988-3.85-8.043-7.695-6.468l-210.136 122.118c-8.206 6.239-5.084 20.259.832 20.83.79.076 1.839-.306 2.575-.602l210.136-122.118C1363.484 1092.991 1362.465 1085.076 1362.205 1083.532L1362.205 1083.532zM1064.516 1392.095c-3.461-5.512-7.923-7.823-11.646-6.031l-108.894 63.282c-6.865 4.737-.215 18.448 7.509 19.666 1.84.29 2.978-.259 3.658-.586l108.894-63.282C1068.609 1401.987 1066.349 1395.228 1064.516 1392.095L1064.516 1392.095zM1301.067 1254.626c-1.991-3.171-6.152-8.172-11.646-6.031l-201.491 117.094c-7.539 6.096 1.101 19.491 8.296 19.746.884.031 2.048-.344 2.871-.666l201.491-117.094C1305.827 1263.428 1301.906 1256.06 1301.067 1254.626L1301.067 1254.626zM1403.903 1194.865c-3.461-5.513-7.923-7.824-11.646-6.031l-55.741 32.393c-6.865 4.737-.215 18.448 7.509 19.666 1.84.29 2.978-.259 3.658-.586l55.741-32.393C1407.996 1204.758 1405.736 1197.998 1403.903 1194.865L1403.903 1194.865zM1127.41 1508.889c-5.127-3.201-10.651-4.022-14.415-2.143l-80.796 46.953c-5.497 3.709.677 10.599 8.726 11.944 4.542.759 7.023-.494 7.838-.906l80.796-46.953C1133.968 1514.837 1130.283 1510.806 1127.41 1508.889L1127.41 1508.889zM1411.178 1343.981c-5.05-3.153-10.708-3.994-14.415-2.143l-180.171 104.704c-6.213 4.86 2.844 11.434 9.721 12.082 3.674.346 5.142-.298 6.843-1.044l180.171-104.704C1418.147 1349.171 1412.901 1345.131 1411.178 1343.981L1411.178 1343.981zM1494.896 1295.33c-5.127-3.202-10.651-4.023-14.415-2.143l-40.154 23.335c-5.496 3.707.676 10.598 8.722 11.946 4.539.76 7.025-.496 7.842-.908l40.154-23.335C1501.454 1301.278 1497.769 1297.247 1494.896 1295.33L1494.896 1295.33zM1328.887 1468.767c-6.549.892-10.624 2.734-13.12 4.041l-195.301 113.497c-.679.443-1.524 1.128-2.106 1.692.014.35.032.818.045 1.168 4.912 1.575 15.568-4.21 15.673-4.269l195.301-113.497c.678-.426 1.544-1.058 2.16-1.571-.151-.328-.352-.765-.503-1.093C1330.391 1468.724 1329.528 1468.701 1328.887 1468.767L1328.887 1468.767zM1581.866 1321.751c-6.549.891-10.624 2.733-13.12 4.041l-213.678 124.176c-.678.443-1.523 1.127-2.104 1.691.015.35.035.816.049 1.165 4.917 1.159 12.594-2.597 15.667-4.266l213.678-124.176c.68-.427 1.547-1.06 2.164-1.574-.152-.327-.355-.763-.507-1.091C1583.371 1321.708 1582.508 1321.685 1581.866 1321.751L1581.866 1321.751z" class="colorc9c9c9 svgShape"></path><path fill="#c5c5c5" d="M1175.065,464.778c5.365-3.098,9.731-0.61,9.749,5.556l0.243,85.791
												c0.017,6.145-4.32,13.658-9.685,16.756L908.467,726.977c-5.348,3.088-9.714,0.6-9.731-5.546l-0.243-85.79
												c-0.017-6.165,4.32-13.678,9.668-16.766L1175.065,464.778z" class="colorc5c5c5 svgShape"></path><path fill="#bdbdbd" d="M1165.685,1452.11l606.145-352.253c-15.577,9.053-25.072,28.215-25.149,55.306
										c-0.017,5.855-0.05,17.591-0.067,23.447c-0.148,52.196-18.633,89.4-48.518,106.767l-606.145,352.253
										c29.885-17.367,48.37-54.571,48.518-106.767c0.017-5.855,0.05-17.591,0.067-23.446
										C1140.613,1480.325,1150.108,1461.162,1165.685,1452.11z" class="colorbdbdbd svgShape"></path><path fill="#eaf4ff" d="M1156.407,1434.303l606.145-352.253c18.439-10.715,43.718-9.469,71.536,6.592
										c56.94,33.978,101.423,111.711,101.243,175.438c-0.052,18.399-0.156,55.196-0.209,73.595
										c-0.191,67.285,47.294,149.683,105.849,183.667c30.024,17.436,115.573,67.116,120.076,69.73
										c4.063,2.346,7.303,8.008,7.29,12.652c-0.017,2.294-0.832,3.911-2.141,4.672L1560.05,1960.65
										c1.309-0.761,2.124-2.378,2.141-4.672c0.013-4.644-3.227-10.306-7.29-12.652c-4.503-2.615-90.051-52.295-120.076-69.73
										c-58.556-33.984-106.04-116.382-105.849-183.667c0.052-18.399,0.156-55.196,0.209-73.595
										c0.181-63.727-44.303-141.46-101.243-175.438C1200.125,1424.834,1174.845,1423.588,1156.407,1434.303z" class="colorfff9ea svgShape"></path><g fill="#000000" class="color000000 svgShape"><path fill="#acc0d4" d="M1673.965,1774.21c20.564,11.872,27.208,29.672,16.941,45.353
													c-0.622,0.949-2.457,1.428-4.096,1.064c-0.432-0.096-0.807-0.24-1.114-0.417c-0.86-0.497-1.188-1.256-0.729-1.955
													c9.379-14.329,3.31-30.595-15.48-41.443c-20.034-11.567-50.636-14.661-76.145-7.7c-1.246,0.341-2.678,0.168-3.599-0.364
													c-0.253-0.146-0.469-0.315-0.63-0.514c-0.755-0.922-0.08-2.017,1.509-2.452
													C1618.538,1758.161,1652.035,1761.548,1673.965,1774.21z" class="coloracd4d1 svgShape"></path><path fill="#91a2b3" d="M1662.415,1780.922c22.353,12.906,22.464,33.897,0.256,46.803
													c-22.2,12.901-58.441,12.906-80.794,0c-22.353-12.906-22.471-33.902-0.271-46.803
													C1603.814,1768.017,1640.062,1768.017,1662.415,1780.922z M1587.019,1824.737c19.497,11.256,51.115,11.252,70.476,0
													c19.37-11.256,19.274-29.571-0.222-40.827c-19.496-11.256-51.114-11.252-70.484,0.005
													C1567.427,1795.167,1567.523,1813.481,1587.019,1824.737L1587.019,1824.737z" class="color91b3b0 svgShape"></path><path fill="#acc0d4" d="M1656.549,1839.335c0.231,0.134,0.431,0.29,0.587,0.467
													c0.801,0.905,0.187,2.008-1.379,2.474c-28.402,8.41-62.74,5.263-85.43-7.838c-20.641-11.917-27.247-29.774-16.842-45.5
													c0.638-0.949,2.472-1.419,4.104-1.051c0.431,0.096,0.805,0.24,1.111,0.417c0.865,0.499,1.189,1.262,0.724,1.959
													c-9.517,14.364-3.478,30.683,15.381,41.572c20.733,11.97,52.091,14.847,78.056,7.159
													C1654.115,1838.624,1655.599,1838.787,1656.549,1839.335z" class="coloracd4d1 svgShape"></path><path fill="#91a2b3" d="M1683.807,1768.491c34.224,19.76,34.405,51.911,0.403,71.67
													c-34.002,19.76-89.507,19.76-123.732,0.001c-34.224-19.76-34.405-51.911-0.403-71.67
													C1594.077,1748.731,1649.582,1748.731,1683.807,1768.491z M1565.811,1837.062
													c31.268,18.053,81.974,18.057,113.039,0.004c31.065-18.053,30.899-47.428-0.369-65.481
													c-31.268-18.053-81.982-18.052-113.047,0.001C1534.37,1789.639,1534.543,1819.01,1565.811,1837.062L1565.811,1837.062z" class="color91b3b0 svgShape"></path></g><g fill="#000000" class="color000000 svgShape"><path fill="#898989" d="M736.968,385.007c1.627,0.939,3.264,2.505,4.623,4.561
											c1.418,2.15,28.368,42.998,37.809,57.322c33.384,50.621,52.689,108.787,52.549,158.38
											c-0.529,186.612-1.587,559.886-2.116,746.499c-0.265,93.331,64.001,208.448,145.22,256.755
											c83.893,48.456,150.516,10.517,150.782-83.255c0.017-6.057,0.052-18.172,0.069-24.229
											c0.183-64.688,45.953-92.528,102.04-60.146c56.94,33.978,101.423,111.711,101.243,175.438
											c-0.052,18.399-0.156,55.196-0.209,73.595c-0.191,67.285,47.294,149.683,105.849,183.667
											c30.024,17.436,115.573,67.116,120.076,69.73c4.063,2.346,7.303,8.008,7.29,12.652c-0.035,4.616-3.297,6.49-7.319,4.167
											c-0.041-0.024-90.114-52.306-120.138-69.741c-66.594-38.65-120.602-132.374-120.385-208.922
											c0.051-17.945,0.152-53.783,0.203-71.702c0.155-54.59-37.142-122.132-84.624-150.861
											c-50.067-28.934-89.235-6.642-89.391,48.497c-0.017,5.855-0.05,17.591-0.067,23.446
											c-0.291,102.568-71.389,147.243-160.655,97.272c-92.201-53.21-164.931-179.176-164.639-282.225
											c0.531-187.293,1.593-561.83,2.124-749.098c0.127-44.722-17.062-96.56-47.183-142.212
											c-9.441-14.324-28.346-42.985-37.809-57.322c-3.111-4.728-3.579-10.307-1.021-12.445
											C732.735,383.621,734.843,383.78,736.968,385.007z" class="color898989 svgShape"></path></g><g fill="#000000" class="color000000 svgShape"><path fill="#c9c9c9" d="M1334.345 1331.551c-2.803 1.152-5.723 2.692-12.015 6.341l-90.476 52.579c-.839.489-1.678.976-2.5 1.494 1.576-.136 11.122-4.31 14.523-6.231l90.476-52.579c1.572-.942 1.913-1.272 2.384-1.729-.151-.139-.353-.323-.504-.461C1335.657 1331.107 1334.896 1331.334 1334.345 1331.551L1334.345 1331.551zM1469.623 1252.936c-2.804 1.152-5.724 2.693-12.015 6.341l-95.966 55.769c-.839.489-1.678.977-2.5 1.494 1.575-.135 11.122-4.31 14.523-6.231l95.966-55.769c1.568-.939 1.908-1.269 2.38-1.726-.15-.139-.351-.324-.501-.463C1470.934 1252.493 1470.174 1252.719 1469.623 1252.936L1469.623 1252.936zM1692.149 1123.618c-2.996 1.275-5.152 2.37-12.015 6.341l-180.384 104.828c-.686.401-1.597.941-2.277 1.35 3.372-.66 12.458-5.045 14.3-6.087l180.384-104.828c.68-.421 1.557-1.03 2.19-1.518C1693.742 1123.442 1692.763 1123.376 1692.149 1123.618L1692.149 1123.618zM1474.083 1322.173c-4.781-3.582-10.441-4.615-14.419-2.631l-146.43 85.096c-6.44 5.053 4.267 13.165 11.382 13.846 1.053.101 2.643.252 4.809-.813l146.43-85.096C1481.384 1328.161 1474.383 1322.416 1474.083 1322.173L1474.083 1322.173zM1704.961 1188.001c-4.708-3.527-10.498-4.587-14.409-2.637l-189.456 110.1c-6.498 5.098 4.159 12.688 10.45 13.722 3.253.535 4.934-.292 5.742-.689l189.456-110.1C1712.264 1193.99 1705.262 1188.244 1704.961 1188.001L1704.961 1188.001zM1775.933 1146.757c-4.781-3.583-10.441-4.616-14.419-2.631l-25.287 14.696c-6.097 4.119 2.716 12.424 10.454 13.72 3.239.542 4.927-.288 5.738-.687l25.288-14.696C1782.098 1154.162 1778.949 1149.188 1775.933 1146.757L1775.933 1146.757zM1451.783 1471.998c-2.418-5.655-6.573-8.233-10.339-6.417l-55.071 32.004c-6.468 4.445-2.157 19.076 4.397 20.609 1.582.37 2.697-.171 3.362-.494l55.071-32.004C1453.741 1482.6 1453.194 1475.651 1451.783 1471.998L1451.783 1471.998zM1844.993 1243.489c-2.418-5.656-6.572-8.234-10.339-6.416l-110.984 64.497c-6.46 4.439-2.149 19.071 4.399 20.608 1.581.371 2.695-.17 3.36-.492l110.984-64.497C1846.983 1254.071 1846.459 1247.288 1844.993 1243.489L1844.993 1243.489zM1689.035 1334.122c-2.38-5.567-6.631-8.206-10.339-6.416l-200.07 116.268c-7.233 5.793-.936 19.388 4.397 20.609.771.177 1.73.298 3.363-.494l200.07-116.268C1692.317 1343.197 1689.388 1335.038 1689.035 1334.122L1689.035 1334.122zM1520.798 1547.158c0-.006 0-.012 0-.017-.2-7.131-3.449-8.081-6.17-6.727l-111.015 64.515c-3.585 2.384-6.03 7.853-6.229 13.932 0 .006 0 .011 0 .017.196 6.973 3.317 7.929 6.171 6.499l111.015-64.515C1518.754 1558.097 1520.713 1551.986 1520.798 1547.158L1520.798 1547.158zM1740.352 1419.567c-.162-5.789-2.641-8.5-6.171-6.744l-183.073 106.39c-5.15 3.854-6.114 10.384-6.229 13.933 0 .006 0 .012 0 .017.162 5.745 2.584 8.296 6.172 6.499l183.073-106.39C1740.031 1428.896 1740.349 1421.088 1740.352 1419.567L1740.352 1419.567zM1858.064 1351.16c-.164-5.88-2.586-8.527-6.171-6.744l-71.318 41.445c-6.974 4.635-8.098 19.509-3.012 20.975 1.209.348 2.302-.199 2.954-.526l71.317-41.445C1856.745 1361.62 1858.056 1354.481 1858.064 1351.16L1858.064 1351.16zM1620.622 1606.933c-1.879-4.063-5.181-8.492-10.241-6.511l-193.88 112.671c-7.695 6.125-.951 20.276 5.774 20.737.853.058 1.986-.309 2.783-.619l193.88-112.671C1624.236 1616.272 1621.27 1608.457 1620.622 1606.933L1620.622 1606.933zM1875.023 1459.092c-3.003-6.003-6.257-8.072-10.241-6.511l-210.136 122.118c-7.688 6.12-.946 20.272 5.775 20.736.853.059 1.985-.308 2.782-.618l210.136-122.118C1878.505 1468.54 1875.934 1461.233 1875.023 1459.092L1875.023 1459.092z" class="colorc9c9c9 svgShape"></path></g><g fill="#000000" class="color000000 svgShape"><defs><path id="d" d="M1156.407,1434.303l606.145-352.253c18.439-10.715,43.718-9.469,71.536,6.592
								c56.94,33.978,101.423,111.711,101.243,175.438c-0.052,18.399-0.156,55.196-0.209,73.595
								c-0.191,67.285,47.294,149.683,105.849,183.667c30.024,17.436,115.573,67.116,120.076,69.73
								c4.063,2.346,7.303,8.008,7.29,12.652c-0.017,2.294-0.832,3.911-2.141,4.672L1560.05,1960.65
								c1.309-0.761,2.124-2.378,2.141-4.672c0.013-4.644-3.227-10.306-7.29-12.652c-4.503-2.615-90.051-52.295-120.076-69.73
								c-58.556-33.984-106.04-116.382-105.849-183.667c0.052-18.399,0.156-55.196,0.209-73.595
								c0.181-63.727-44.303-141.46-101.243-175.438C1200.125,1424.834,1174.845,1423.588,1156.407,1434.303z" fill="#000000" class="color000000 svgShape"></path></defs><clipPath id="e"><use overflow="visible" xlink:href="#d"></use></clipPath><path d="M2668.767,1499.319c-32.443-11.298-100.861-21.886-155.917-48.921
							c-32.763-16.088-80.613-55.427-147.826-115.02c-4.636-4.111-23.678-29.636-52.633-55.121l0,0l0,0
							c-41.944-36.579-61.489-39.181-68.698-38.94c-14.689,0.491-38.633,12.978-59.349,25.74
							c-17.549,10.811-87.662,33.344-120.393,48.49c-22.786,10.544-38.489,18.697-51.038,43.888
							c-16.734,33.593-67.826,106.619-75.519,131.14c-3.856,12.293-24.888,37.163-32.039,62.469
							c-4.271,15.113,17.865,27.92,34.466,25.968c17.294-2.033,50.905-34.006,75.565-63.701c-2.305,5.271-4.332,10.334-6.095,15.171
							c-11.065,12.165-18.68,25.472-20.522,39.698c-1.305,10.072,7.888,17.74,7.888,17.74c-0.175,2.008-0.327,3.918-0.466,5.712
							c0.022,0.045,0.044,0.099,0.067,0.145c-0.001,0.001-0.001,0.001-0.002,0.002c-3.636,5.652,9.721,66.047,21.167,74.414
							c2.996,2.19,6.448,2.217,8.224,1.399c14.675,5.829,34.21,8.867,43.262-25.533c6.888,5.403,13.093,10.381,16.136,14.448
							c2.834,15.183,38.823,58.733,49.728,52.887c12.274-0.534,22.327-8.603,27.763-15.959c2.764-3.741,4.498-8.375,5.451-13.353
							c8.417,6.769,16.445,11.219,23.505,13.381c1.77,0.924,3.159,1.553,3.941,1.847c0.021-0.26,0.066-0.572,0.105-0.872
							c3.488,0.439,13.105,0.632,19.778-5.995c8.859-8.798,12.807-33.874,3.241-50.749c-12.558-22.154-31.836-40.936-42.563-58.592
							c0.903-0.989,2.386-3.042,4.319-5.942c9.337-0.354,19.362-0.825,30.254-1.411c2.651-0.142,5.156-0.262,7.6-0.371
							c34.118,15.594,98.132,62.957,139.662,71.825c13.145,2.807,36.124,11.295,71.116-1.708c3.687-1.37,23.512,1.763,34.701,6.977
							c52.924,24.66,86.041,42.101,117.89,53.086C2637.616,1702.351,2708.415,1559.717,2668.767,1499.319z" clip-path="url(#e)" opacity=".1" fill="#000000" class="color000000 svgShape"></path></g><g fill="#000000" class="color000000 svgShape"><defs><path id="f" d="M1581.198,1256.271c-81.219-48.307-145.484-163.424-145.22-256.755
									c0.529-186.612,1.587-559.886,2.116-746.499c0.141-49.593-19.164-107.759-52.549-158.38
									c-9.441-14.324-36.391-55.172-37.809-57.322c-1.359-2.056-2.995-3.622-4.623-4.561c-1.897-1.095-3.78-1.339-5.193-0.518
									L731.775,384.489c1.413-0.821,3.296-0.577,5.193,0.518c1.627,0.94,3.264,2.505,4.622,4.561
									c1.419,2.15,28.368,42.998,37.809,57.322c33.385,50.621,52.689,108.787,52.549,158.38
									c-0.529,186.612-1.587,559.887-2.116,746.499c-0.265,93.331,64.001,208.448,145.22,256.755
									c42.513,24.555,80.59,26.924,107.845,11.085l606.145-352.253C1661.788,1283.195,1623.71,1280.825,1581.198,1256.271z" fill="#000000" class="color000000 svgShape"></path></defs><clipPath id="g"><use overflow="visible" xlink:href="#f"></use></clipPath><path fill="#cccccc" d="M1262.104,796.446c-2.347,0-4.605-0.662-6.532-1.915
								c-5.08-3.305-6.931-9.977-4.713-16.996l49.103-155.378c-0.513-0.065-1.083-0.095-1.706-0.095
								c-5.106,0-12.343,2.131-19.343,4.193c-8.221,2.42-16.72,4.923-24.406,4.923c-6.996,0-12.651-2.099-16.813-6.236
								c-9.444-9.427-8.46-26.556-7.418-44.694c0.636-11.085,1.294-22.551-0.91-28.994c-1.76-5.156-6.756-9.021-12.542-13.495
								c-9.321-7.207-20.92-16.179-20.972-34.087c-0.045-15.749,9.289-33.839,18.314-51.333
								c6.044-11.718,12.293-23.834,14.606-33.444c2.394-9.938,1.698-20.253,0.96-31.175c-1.04-15.432-2.116-31.388,5.412-47.679
								c7.464-16.165,21.291-28.069,34.663-39.579c9.703-8.35,18.866-16.239,25.269-25.305c6.316-8.952,11.23-21,16.433-33.755
								c7.222-17.704,14.69-36.009,27.05-47.765c2.8-2.675,5.889-5,9.17-6.896c10.132-5.848,20.538-6.996,30.601-8.104
								c8.937-0.986,17.378-1.915,24.846-6.228c7.99-4.614,17.298-14.345,26.297-23.757c10.003-10.458,19.449-20.335,29.063-25.883
								c3.557-2.058,6.894-3.376,10.199-4.027c1.65-0.337,3.372-0.516,5.056-0.516c13.448,0,21.923,10.816,28.731,19.505
								c4.314,5.505,8.773,11.195,12.818,12.239c0.738,0.19,1.657,0.287,2.733,0.287c5.106,0,12.347-2.133,19.352-4.196
								c8.223-2.42,16.729-4.925,24.417-4.925c7.006,0,12.667,2.103,16.828,6.253c9.44,9.42,8.456,26.554,7.416,44.696
								c-0.634,11.079-1.29,22.535,0.908,28.996c1.754,5.14,6.754,9.004,12.544,13.476c9.327,7.205,20.935,16.17,20.984,34.083
								c0.045,15.749-9.293,33.841-18.323,51.337c-6.051,11.72-12.304,23.838-14.617,33.451c-2.384,9.927-1.689,20.238-0.951,31.155
								c1.04,15.436,2.116,31.395-5.401,47.685c-7.459,16.159-21.28,28.053-34.648,39.555c-9.711,8.357-18.884,16.25-25.284,25.327
								c-1.547,2.192-3.072,4.659-4.618,7.474l50.015,98.641c2.358,4.657,1.905,10.803-1.21,16.446
								c-1.913,3.475-4.664,6.368-7.738,8.143c-1.633,0.947-3.354,1.57-5.099,1.849l-59.55,9.33l-23.765,83.295
								c-1.508,5.285-5.013,10.018-9.375,12.66c-2.547,1.471-4.998,2.168-7.451,2.168c-4.601,0-8.59-2.463-10.671-6.59
								l-31.017-61.172l-33.699,106.638c-1.637,5.192-5.184,9.776-9.485,12.259c-2.453,1.355-4.812,1.995-7.168,1.995
								c-4.838,0-9.051-2.776-10.993-7.248l-20.564-47.351l-55.773,55.719c-1.21,1.208-2.522,2.228-3.902,3.026
								C1266.949,795.752,1264.488,796.446,1262.104,796.446z" clip-path="url(#g)" class="colorcccccc svgShape"></path><g fill="#000000" class="color000000 svgShape"><path fill="#0028bf" d="M1527.171 166.295l-12.888-7.49c1.339.778 2.735 1.38 4.206 1.759 15.307 3.95 43.788-14.323 56.988-6.652l12.888 7.49c-13.2-7.671-41.681 10.602-56.988 6.652C1529.906 167.675 1528.51 167.073 1527.171 166.295zM1467.968 736.116l-40.81-80.486-12.888-7.49 40.81 80.486c.3.595.712 1.042 1.212 1.332l12.888 7.49C1468.68 737.158 1468.268 736.711 1467.968 736.116zM1375.823 789.048l-25.733-59.253-12.888-7.49 25.733 59.254c.302.694.747 1.207 1.302 1.53l12.888 7.49C1376.569 790.255 1376.124 789.742 1375.823 789.048z" class="colorbf9a00 svgShape"></path><path fill="#2e5aff" d="M1516.993,532.022l43.185,85.184l-57.205,8.964c-0.683,0.106-1.382,0.373-2.071,0.771
									c-2.405,1.388-4.671,4.365-5.599,7.608l-22.236,77.93l-53.495-105.507c2.51-2.013,4.991-3.772,7.432-5.181
									c17.979-10.38,38.238-4.42,55.461-14.363c2.56-1.478,5.08-3.313,7.483-5.615
									C1502.028,570.324,1509.305,550.681,1516.993,532.022z" class="colorff4a2e svgShape"></path><path fill="#4068ff" d="M1336.916,635.99c7.768,9.735,15.132,20.925,27.238,18.449c2.427-0.486,4.93-1.552,7.49-3.03
									c11.3-6.524,23.872-21.383,36.255-33.761l12.601,24.852l-38.782,122.718l-22.604-52.042
									c-0.939-2.181-3.213-2.521-5.618-1.132c-0.679,0.392-1.396,0.94-2.074,1.622l-57.068,57.012L1336.916,635.99z" class="colorff5940 svgShape"></path><path fill="#0028bf" d="M1277.527,789.725l51.323-162.401l-12.888-7.49l-51.323,162.401
								c-0.982,3.112-0.547,5.852,1.107,6.928c0.041,0.026,0.082,0.052,0.124,0.076l12.888,7.49
								c-0.042-0.024-0.083-0.049-0.124-0.076C1276.98,795.577,1276.545,792.837,1277.527,789.725z" class="colorbf9a00 svgShape"></path><path fill="#73b9ff" d="M1629.928,278.194c-0.067-23.735-26.943-26.812-33.054-44.736
								c-6.327-18.58,5.545-58.561-6.202-70.284c-11.864-11.835-43.023,9.079-59.295,4.88c-16.116-4.156-23.353-35.068-42.69-31.114
								c-2.408,0.475-4.911,1.518-7.49,3.007c-17.222,9.943-37.382,39.262-55.36,49.642c-17.96,10.369-38.219,4.386-55.441,14.33
								c-2.579,1.489-5.08,3.335-7.502,5.648c-19.297,18.351-26.334,57.505-42.355,80.215
								c-16.214,22.955-47.37,38.019-59.129,63.492c-11.662,25.238,0.418,51.39-5.803,77.215
								c-5.991,24.911-32.741,58.949-32.674,82.684c0.067,23.735,26.923,26.824,33.035,44.747
								c6.347,18.547-5.545,58.561,6.202,70.284c11.884,11.823,43.023-9.102,59.295-4.88c2.674,0.69,5.105,2.117,7.386,3.999
								c0,0,0,0,0,0l-51.323,162.401c-0.982,3.112-0.547,5.852,1.108,6.928c1.174,0.763,2.776,0.608,4.417-0.339
								c0.698-0.403,1.403-0.949,2.085-1.629l64.953-64.89l25.733,59.253c0.899,2.07,3.077,2.532,5.637,1.121
								c2.366-1.366,4.515-4.214,5.477-7.27l40.221-127.269l40.81,80.486c0.977,1.936,3.134,2.298,5.655,0.842
								c2.424-1.466,4.572-4.426,5.457-7.526l25.314-88.725l65.108-10.201c0.678-0.107,1.38-0.375,2.074-0.776
								c1.651-0.953,3.261-2.66,4.418-4.758c1.643-2.98,2.061-6.213,1.065-8.182l-52.075-102.704
								c-2.837,5.647-5.436,11.736-7.99,17.935l43.185,85.184l-57.205,8.964c-0.683,0.106-1.382,0.373-2.07,0.771
								c-2.405,1.388-4.671,4.365-5.599,7.608l-22.236,77.93l-53.495-105.507c-3.84,3.08-7.748,6.755-11.673,10.678l12.601,24.852
								l-38.782,122.718l-22.604-52.042c-0.939-2.181-3.213-2.52-5.617-1.132c-0.679,0.392-1.396,0.94-2.074,1.622l-57.069,57.012
								l42.562-134.689c-0.645-0.809-1.293-1.607-1.947-2.387c0.654,0.78,1.302,1.578,1.947,2.387
								c7.768,9.735,15.132,20.925,27.238,18.45c2.427-0.486,4.93-1.552,7.49-3.03c11.3-6.524,23.872-21.383,36.255-33.76
								c3.925-3.923,7.833-7.598,11.673-10.677c2.51-2.013,4.991-3.772,7.432-5.181c17.979-10.38,38.238-4.42,55.46-14.363
								c2.561-1.478,5.08-3.312,7.483-5.615c12.081-11.489,19.357-31.131,27.045-49.79c2.554-6.2,5.153-12.288,7.99-17.936
								c2.263-4.506,4.678-8.73,7.339-12.501c16.195-22.967,47.37-38.02,59.129-63.492c11.643-25.227-0.417-51.391,5.784-77.204
								C1603.226,335.979,1629.996,301.928,1629.928,278.194z M1330.844,629.119c0.036,0.035,0.074,0.064,0.11,0.099
								C1330.918,629.183,1330.88,629.154,1330.844,629.119z M1585.741,363.239c-3.417,14.228-2.546,27.029-1.714,39.407
								c0.811,11.921,1.643,24.276-2.354,32.923c-4.074,8.826-14.985,18.205-25.546,27.294
								c-10.813,9.323-21.995,18.927-30.935,31.611c-8.823,12.504-14.804,27.141-20.572,41.298
								c-5.73,14.045-11.652,28.559-18.433,35.019c-1.105,1.039-2.345,1.957-3.761,2.774c-6.167,3.561-14.518,4.498-22.597,5.39
								c-10.545,1.155-21.42,2.367-32.863,8.973c-11.424,6.595-22.29,17.936-32.788,28.908
								c-8.057,8.424-16.405,17.151-22.573,20.712c-1.416,0.817-2.638,1.322-3.765,1.548c-6.776,1.39-12.781-6.237-18.552-13.643
								c-5.849-7.449-11.874-15.155-20.758-17.436c-8.982-2.337-20.181,0.981-31.012,4.154c-10.559,3.105-21.487,6.334-25.617,2.245
								c-4.013-4.022-3.255-17.296-2.514-30.113c0.759-13.296,1.536-27.048-1.951-37.29c-3.35-9.852-10.69-15.526-17.796-20.999
								c-7.184-5.563-14.621-11.314-14.646-19.805c-0.024-8.491,7.356-22.797,14.486-36.623
								c7.052-13.67,14.336-27.764,17.619-41.446c3.417-14.228,2.565-27.04,1.734-39.418c-0.811-11.943-1.643-24.276,2.335-32.912
								c4.093-8.837,15.004-18.239,25.546-27.317c10.833-9.313,22.014-18.938,30.953-31.6c8.823-12.505,14.784-27.13,20.572-41.298
								c5.73-14.045,11.652-28.559,18.414-35.007c1.124-1.051,2.345-1.957,3.781-2.785c6.148-3.55,14.518-4.498,22.597-5.39
								c10.526-1.166,21.421-2.367,32.844-8.962c11.443-6.607,22.289-17.958,32.806-28.941c8.058-8.425,16.386-17.117,22.554-20.678
								c1.416-0.818,2.658-1.333,3.765-1.571c6.795-1.378,12.781,6.26,18.571,13.654c5.83,7.461,11.874,15.154,20.739,17.447
								c8.982,2.314,20.182-0.982,31.012-4.176c10.578-3.117,21.506-6.322,25.617-2.222c4.033,4.011,3.274,17.263,2.533,30.101
								c-0.759,13.296-1.555,27.06,1.932,37.302c3.369,9.841,10.709,15.514,17.796,21c7.184,5.562,14.622,11.314,14.646,19.804
								c0.024,8.491-7.356,22.797-14.486,36.624C1596.328,335.429,1589.044,349.546,1585.741,363.239z" class="colorffec73 svgShape"></path><linearGradient id="h" x1="1234.995" x2="1617.846" y1="395.68" y2="395.68" gradientUnits="userSpaceOnUse"><stop offset="0" stop-color="#2956ff" class="stopColorffd529 svgShape"></stop><stop offset="1" stop-color="#0032ed" class="stopColoredbe00 svgShape"></stop></linearGradient><path fill="url(#h)" d="M1481.236,153.831c1.416-0.817,2.658-1.333,3.764-1.571
									c6.795-1.378,12.781,6.26,18.572,13.654c5.83,7.461,11.874,15.155,20.739,17.448c8.981,2.315,20.181-0.982,31.012-4.177
									c10.578-3.116,21.506-6.323,25.617-2.223c4.033,4.011,3.274,17.263,2.533,30.102c-0.759,13.296-1.555,27.06,1.932,37.301
									c3.369,9.841,10.709,15.514,17.796,20.999c7.184,5.562,14.621,11.314,14.645,19.805c0.024,8.491-7.356,22.797-14.485,36.623
									c-7.033,13.637-14.316,27.753-17.619,41.446c-3.418,14.228-2.546,27.029-1.714,39.407
									c0.811,11.921,1.642,24.276-2.354,32.923c-4.074,8.826-14.984,18.205-25.546,27.294
									c-10.813,9.324-21.995,18.927-30.934,31.611c-8.823,12.505-14.804,27.142-20.572,41.298
									c-5.73,14.045-11.652,28.559-18.433,35.019c-1.104,1.039-2.345,1.957-3.761,2.774c-6.168,3.561-14.518,4.498-22.597,5.39
									c-10.545,1.155-21.421,2.367-32.864,8.973c-11.423,6.595-22.289,17.936-32.787,28.908
									c-8.057,8.424-16.406,17.151-22.573,20.712c-1.416,0.817-2.638,1.322-3.764,1.548c-6.776,1.39-12.781-6.238-18.552-13.643
									c-5.849-7.449-11.874-15.155-20.758-17.436c-8.982-2.337-20.181,0.982-31.012,4.154
									c-10.559,3.105-21.487,6.334-25.617,2.245c-4.013-4.023-3.254-17.296-2.514-30.113c0.759-13.296,1.536-27.048-1.951-37.29
									c-3.35-9.852-10.69-15.526-17.796-20.999c-7.184-5.562-14.621-11.314-14.645-19.805
									c-0.024-8.491,7.356-22.797,14.485-36.623c7.052-13.67,14.336-27.764,17.619-41.446c3.418-14.228,2.565-27.04,1.734-39.418
									c-0.811-11.943-1.642-24.276,2.335-32.912c4.093-8.837,15.004-18.239,25.546-27.316
									c10.833-9.313,22.015-18.938,30.954-31.599c8.823-12.505,14.784-27.13,20.572-41.298
									c5.73-14.045,11.653-28.559,18.414-35.008c1.124-1.051,2.345-1.957,3.78-2.785c6.148-3.55,14.518-4.498,22.597-5.39
									c10.526-1.166,21.421-2.367,32.844-8.962c11.443-6.607,22.289-17.958,32.807-28.942
									C1466.74,166.085,1475.069,157.392,1481.236,153.831z"></path><path fill="#0028bf" d="M1264.468,629.968l-12.888-7.49c-0.829-0.482-1.597-1.065-2.299-1.763
								c-11.747-11.723,0.145-51.737-6.202-70.284c-6.112-17.923-32.968-21.013-33.035-44.747
								c-0.067-23.735,26.683-57.773,32.674-82.684c6.221-25.825-5.859-51.977,5.803-77.215
								c11.759-25.473,42.915-40.537,59.129-63.492c16.021-22.71,23.059-61.864,42.355-80.215c2.422-2.314,4.923-4.159,7.502-5.648
								c17.222-9.943,37.482-3.961,55.441-14.33c17.979-10.38,38.138-39.698,55.36-49.642c2.58-1.489,5.083-2.533,7.49-3.007
								c4.379-0.896,8.138-0.003,11.52,1.963l12.888,7.49c-3.382-1.965-7.141-2.858-11.52-1.962
								c-2.408,0.475-4.911,1.518-7.49,3.007c-17.222,9.943-37.382,39.262-55.36,49.642c-17.96,10.369-38.219,4.387-55.441,14.33
								c-2.579,1.489-5.08,3.335-7.502,5.648c-19.297,18.351-26.334,57.505-42.355,80.215
								c-16.214,22.955-47.37,38.019-59.129,63.492c-11.662,25.238,0.418,51.39-5.803,77.215
								c-5.991,24.911-32.741,58.949-32.674,82.684c0.067,23.735,26.923,26.824,33.035,44.747
								c6.347,18.547-5.545,58.561,6.202,70.284C1262.87,628.903,1263.639,629.487,1264.468,629.968z" class="colorbf9a00 svgShape"></path></g></g><g fill="#000000" class="color000000 svgShape"><path fill="#0575e6" d="M1963.694,1598.933c2.321,3.629,5.983,8.4,0.067,11.838
									c-2.661,1.547-6.837,1.914-10.271-0.008c-0.046-0.026-0.093-0.052-0.139-0.079c-0.245-0.142-0.484-0.293-0.717-0.451
									c-0.866-0.589-1.644-1.287-2.318-2.051c-1.498-1.7-2.479-3.724-2.755-5.589c-0.371-2.584,0.67-5.211,2.947-6.509
									c0.759-0.432,1.656-0.717,2.683-0.803c1.097-0.087,2.056,0.135,2.836,0.585c1.765,1.019,2.613,3.208,2.077,5.64
									c-0.427,1.677-2.765,4.341-4.201,5.176c0.496,0.699,1.662,1.806,3.113,2.644c1.822,1.052,4.094,1.68,6.052,0.541
									c4.691-2.726,1.224-8.055-0.389-10.406c-0.431-0.655,0.105-1.221,0.643-0.91
									C1963.45,1598.625,1963.578,1598.749,1963.694,1598.933z M1951.519,1601.169c0.327,1.792,1.357,3.928,1.838,4.77
									c0.962-0.559,2.986-2.611,3.292-4.648c0.295-2.046-0.924-3.938-2.269-4.715
									C1952.649,1595.578,1950.711,1596.426,1951.519,1601.169L1951.519,1601.169z" class="color5fa4b3 svgShape"></path><path fill="#0575e6" d="M1950.316 1608.182c.674.764 1.452 1.462 2.318 2.051 1.126 2.393 1.785 5.011.097 6.641-1.069.999-4.171 1.794-7.114.095-.893-.516-1.772-1.261-2.575-2.3-1.411-1.731-2.272-4.456-3.045-5.574-.152-.218-.338-.388-.556-.514-1.238-.714-3.484-.005-6.062 1.44l1.078 1.371c1.352 1.732 3.239 4.384 4.391 6.847.641 1.37 1.054 2.681 1.023 3.742-.036.328-.513.348-.841.158-.131-.075-.237-.184-.284-.319-.098-.405-.216-.814-.351-1.225-1.755-5.336-6.535-11.111-11.134-14.9-.941-.782-.826-1.446-.167-1.829.904-.526 2.832-.525 4.469.421.304.176.599.384.875.628 1.182 1.049.928 2.887.669 3.775 2.069-1.08 4.796-2.726 7.14-4.395.19.037.382.116.572.226.939.542 1.858 1.853 2.446 2.814.663 1.105 3.452 6.664 6.239 8.273.805.465 1.609.6 2.362.204C1953.695 1614.797 1951.733 1610.709 1950.316 1608.182zM1920.888 1633.688c-.069 3.057-5.442 5.471-10.296 2.668-.362-.209-.721-.447-1.075-.716-.22-.165-.443-.341-.67-.526-.808-.66-1.65-1.437-2.494-2.283-2.326-2.33-4.671-5.178-6.372-7.505l-2.767 1.608c-.27.157-.641.088-.908-.066-.319-.184-.49-.489-.167-.677l3.202-1.861c-1.453-2.259-2.749-4.548-3.725-6.654-2.152-4.49 1.219-7.195 4.998-5.013 1.176.679 2.392 1.831 3.493 3.551.867 1.371 1.615 2.672 2.323 3.997l2.556-1.485c.237-.138.586-.063.849.089.321.186.515.485.226.654l-3.096 1.799c1.312 2.848 2.015 5.727 1.77 9.234.918 1.08 4.073 3.727 4.239 3.867.374.34.75.615 1.123.83 2.414 1.394 4.684.328 5.088-1.198.555-2.219-.68-4.837-1.988-7.157.036.031.073.058.112.08.353.204.788.058 1.03-.082.422.725.784 1.496 1.283 2.222C1920.623 1630.983 1920.888 1632.118 1920.888 1633.688zM1902.582 1622.448l2.675-1.554c-.802-1.638-1.79-3.246-2.802-4.701-.561-.855-1.691-1.977-2.635-2.522-1.144-.66-2.013-.475-1.267 2.055C1899.091 1617.517 1900.876 1619.906 1902.582 1622.448L1902.582 1622.448zM1903.236 1623.436c1.519 2.175 3.131 4.28 4.263 5.789-.066-2.374-.715-4.854-1.759-7.244L1903.236 1623.436 1903.236 1623.436z" class="color5fa4b3 svgShape"></path><path fill="#0575e6" d="M1926.641 1610.71c-.308 1.608-.079 2.351 1.629 5.199 1.522 2.603 3.456 5.766 4.97 7.006.402.353.793.631 1.166.847 1.326.766 2.431.734 3.058.417 1.202-.699 1.336-2.031.931-3.584.135.411.253.82.351 1.225.046.135.153.244.284.319.328.189.805.17.841-.158.032-1.062-.382-2.373-1.023-3.742 1.303 2.67 1.965 5.561-.664 7.089-1.763 1.024-4.358.964-6.78-.434-.891-.515-1.759-1.21-2.554-2.1 1.418 2.91 2.298 6.623-.324 8.147-1.067.62-3.31 1.478-5.787.551-.398-.151-.753-.32-1.071-.503-.938-.541-1.558-1.21-2.047-1.922-.499-.726-.862-1.497-1.283-2.222-.242.141-.677.286-1.03.082-.038-.022-.076-.049-.112-.08-.066-.056-.127-.127-.182-.217l-.934-1.639c-.975-1.799-2.057-3.721-2.911-5.145-.44-.743-.06-1.271.955-1.861l3.241-1.884c-.31 1.24-.412 2.037 1.109 4.579.124.21 2.483 4.211 3.563 5.949.906 1.414 1.936 2.398 2.917 2.964 1.141.659 2.218.754 2.96.305.743-.448 1.152-1.441.958-2.956-.497-3.752-3.858-9.081-6.06-12.703-.427-.75-.06-1.271.955-1.861L1926.641 1610.71zM1906.354 1632.832c.844.846 1.686 1.623 2.494 2.283 1.325 2.739 2.267 5.902.232 7.31-1.287.844-3.921 1.424-6.924-.31-.868-.501-1.767-1.195-2.673-2.133.536 1.302 1.248 3.377 1.205 5.138-.135 4.193-5.061 4.754-9.322 2.294-.201-.116-.4-.239-.597-.369-.831-.545-1.627-1.207-2.343-1.983-1.5-1.625-2.653-3.746-3.068-6.32-.387-2.6 1.172-5.467 4.017-7.151 1.596-.945 3.598-1.518 5.888-1.463.548.014.963.119 1.222.268.471.272.427.691-.263.972-2.569-.812-4.97.092-5.872 1.861-1.058 2.167-.656 5.605.59 8.553.321.674 1.511 3.024 3.224 4.395.258.198.511.367.758.51 2.849 1.645 4.929-.237 4.474-3.182-.397-2.381-1.534-4.763-2.763-7.09-1.082-1.983-1.63-3.155.189-4.089.6-.299 1.453-.542 2.069-.906.142-.084.272-.174.383-.274.007 1.302 2.495 6.386 5.072 8.683.583.496 1.11.876 1.582 1.148.969.559 1.698.664 2.168.391C1910.233 1640.252 1907.727 1635.24 1906.354 1632.832z" class="color5fa4b3 svgShape"></path><path fill="#0575e6" d="M1888.425 1645.062c.716.776 1.511 1.438 2.343 1.983 1.095 2.537 1.523 5.259-.99 6.72-1.459.848-4.116 1.486-6.83-.081-.767-.443-1.539-1.062-2.289-1.902-.958-1.057-1.76-2.695-2.685-4.954-.221-.528-.559-.934-.938-1.153-1.023-.591-2.351.172-2.525 3.534-.161 2.014.241 5.268 3.205 10.444.334.682-.087.988-1.207 1.639-.751.498-1.278.743-1.5 1.24-.365-.637-.738-1.268-1.115-1.897-1.533-2.554-3.141-5.052-4.613-7.552-.685-1.164-1.342-2.328-1.945-3.499-1.103-2.154-1.374-3.103.096-3.982.098-.059.204-.117.317-.175.6-.299 1.462-.537 2.081-.899.143-.084.273-.174.384-.273-.759 1.424 1.688 6.225 3.623 9.571-.272-1.394-.615-3.561-.4-5.36.248-2.818 2.361-7.963 4.816-8.637.219.457 4.374 9.135 7.442 11.7.418.361.798.632 1.144.832 1.115.644 1.872.535 2.405.225C1891.323 1651.377 1889.794 1647.661 1888.425 1645.062zM1835.372 1659.156c1.009.842.857 2.052-.355 2.757-1.133.658-2.701.631-3.783.006-.101-.058-.197-.122-.289-.19-1.022-.835-.818-2.075.354-2.756 1.1-.639 2.683-.655 3.735-.048C1835.154 1658.994 1835.267 1659.071 1835.372 1659.156zM1851.907 1669.334c1.142 2.481 1.672 5.222-.776 6.644-2.61 1.517-5.305 1.008-7.323-.157-1.069-.617-1.948-1.418-2.525-2.201l-5.354-7.029c-.128-.183-.309-.332-.518-.454-.753-.435-1.88-.512-2.263-.542l2.885-1.738c1.068-.621 1.701-.715 2.196-.43.292.169.537.47.794.874l5.771 8.262c.032.05.64.995.919 1.279.429.43.892.806 1.379 1.087.978.564 2.049.746 3.123.214.91-.406 1.327-1.34 1.377-1.983-.011-1.883-1.339-4.514-2.713-6.946C1849.674 1667.415 1850.686 1668.502 1851.907 1669.334z" class="color5fa4b3 svgShape"></path><path fill="#0575e6" d="M1872.928 1664.049c4.418 5.268 6.931 14.87-.79 19.357-3.36 1.953-6.36 2.144-9.158.528-2.626-1.516-2.586-3.905-1.529-6.256 2.127-4.832 5.955-8.239 8.382-11.585-1.224-1.455-2.792-2.787-4.729-4.15-.998-.715-1.951-1.329-2.737-1.783-.688-.397-1.248-.671-1.6-.782 1.616 2.902 4.601 9.571-.954 11.294-2.886.668-5.328.183-7.289-.95-.211-.122-.416-.252-.616-.388-1.22-.832-2.233-1.919-3.028-3.119-1.07-1.615-1.747-3.433-2.008-5.107-.421-2.58.818-5.186 3.649-6.856 1.588-.937 3.678-1.58 6.256-1.758 1.083-.058 1.797.105 2.198.336.86.497.269 1.307-1.239.904-5.19-1.394-6.981 2.136-6.588 6.133.376 3.498 2.333 7.358 4.915 8.849.962.555 2.01.782 3.095.539 4.489-1.057 1.457-8.805-.923-11.34-1.716-1.861.952-2.29 1.172-3.155 1.846.766 3.591 1.627 5.215 2.564 2.759 1.593 5.17 3.408 7.136 5.36.363-1.271.619-2.726.241-4.181-.608-2.381-2.112-4.181-2.606-5.077-.073-.128-.107-.244-.112-.345 1.472 2.499 3.08 4.998 4.613 7.552C1873.948 1661.768 1873.656 1662.863 1872.928 1664.049zM1865.047 1683.783c1.239.716 2.901.813 4.725-.247 2.293-1.332 3.612-4.219 3.935-5.513.321-1.738.032-3.813-.469-5.827-.539-1.792-1.301-3.407-2.367-4.893l-1.234 1.455c-2.547 3.032-5.462 6.539-6.568 9.793C1862.382 1680.509 1863.289 1682.768 1865.047 1683.783L1865.047 1683.783zM1811.242 1656.12c1.345.776 2.098 1.896 1.871 3.281-.154.903-.729 1.929-1.847 3.07-.516.508-1.087.612-1.362.453-.292-.169-.25-.635.551-1.227 1.875-1.389 1.475-2.939-.295-3.961-3.761-2.172-13.713-1.959-21.194 7.246-2.474 3.079-2.57 6.392.421 8.119 1.88 1.086 4.981 1.544 9.478.924 5.244-.743 12.49-2.787 18.909-3.66 6.343-.867 10.788-.132 13.709 1.555 5.201 3.003 5.581 9.018 3.275 14.372-4.802 11.179-29.003 23.507-45.044 15.299-.161-.084-.322-.172-.479-.263-5.062-2.922-7.938-9.282-5.257-13.612.27-.412.952-1.002 1.256-.827.154.089.211.374.067.98-.309 1.485-.234 3.009.355 4.464 1.074 2.848 3.653 5.513 7.035 7.527 13.311 7.686 33.761-2.598 38.823-11.991 2.77-5.196 1.387-10.223-3.192-12.867-2.406-1.389-5.694-2.12-9.727-1.872-5.986.375-15.064 3.407-21.735 4.181-4.782.558-8.243-.049-10.478-1.339-3.965-2.289-4.077-6.73-.878-10.652 3.44-4.181 11.067-8.982 16.837-10.092C1805.763 1654.548 1809.19 1654.936 1811.242 1656.12z" class="color5fa4b3 svgShape"></path><path fill="#c9c9c9" d="M1993.923,1619.484c1.843,1.064,1.853,2.78,0.022,3.844l-160.43,93.232
									c-1.831,1.064-4.793,1.064-6.636,0s-1.866-2.787-0.035-3.851l160.431-93.232
									C1989.105,1618.413,1992.079,1618.42,1993.923,1619.484z" class="colorc9c9c9 svgShape"></path></g><g fill="#000000" class="color000000 svgShape"><defs><rect id="i" width="3000" height="2000" fill="#000000" class="color000000 svgShape"></rect></defs><clipPath id="j"><use overflow="visible" xlink:href="#i"></use></clipPath><g clip-path="url(#j)" fill="#000000" class="color000000 svgShape"><path fill="#83abd4" d="M2249.15,1576.384c9.566,16.876,5.618,41.951-3.241,50.749
								c-7.523,7.471-18.804,6.274-20.807,5.829c-14.263-3.17-33.196-16.397-51.392-40.249
								c-38.985-51.104-40.689-68.877-40.671-89.515c0.002-2.759,77.937-177.297,103.517-190.031
								c20.362-10.136,55.763,4.086,63.267,19.369c7.789,15.865-82.55,173.554-93.236,185.257
								C2217.315,1535.448,2236.592,1554.229,2249.15,1576.384z" class="colord4aa83 svgShape"></path><path fill="#a1c7ed" d="M2239.816,1601.715c-4.114-6.056-34.115-31.142-37.435-29.937
								c-8.971,3.255-10.67,18.082-9.879,26.687c1.816,19.766,28.765,33.748,33.525,35.536
								C2226.541,1627.682,2232.532,1608.917,2239.816,1601.715z" class="coloredc7a1 svgShape"></path><path fill="#85afd9" d="M2204.795,1403.796c13.248,23.852-50.297,99.826-51.871,118.226
								c3.125,13.68,36.836,45.788,43.256,64.967c4.148,12.394,5.725,33.259-3.051,45.136c-5.619,7.604-16.163,15.995-29.003,16.011
								c-4.133,0.005-20.28-5.392-47.513-51.554c-5.926-10.044-35.73-26.776-43.694-41.143
								c-16.816-30.336-5.106-105.873,34.18-138.968C2140.318,1388.487,2195.182,1386.49,2204.795,1403.796z" class="colord9ad85 svgShape"></path><path fill="#a3c9f0" d="M2129.081,1577.385c8.466,3.29,35.788,19.507,45.309,34.006
								c-9.046,7.824-11.225,28.584-8.674,36.528c-10.608,7.036-48.113-38.46-50.188-53.275
								C2116.986,1587.776,2121.767,1580.133,2129.081,1577.385z" class="colorf0c9a3 svgShape"></path><path fill="#8ab4df" d="M2064.375,1416.434c-32.708,55.013-35.914,92.199-37.59,113.889
								c7.935,16.204,29.013,73.934,30.707,75.08c12.791,8.656,40.262,10.731,45.831-47.334c0.873-9.101,2.891-29.936,10.605-49.421
								c13.765-34.765,16.201-73.625,36.732-95.924c32.025-34.78,63.567-30.62,71.727-56.663
								c6.893-21.999-16.457-53.485-38.198-59.129C2141.945,1285.964,2086.262,1379.619,2064.375,1416.434z" class="colordfb38a svgShape"></path><path fill="#789ec4" d="M2099.293 1581.626c1.439-6.056 2.363-12.206 3.053-18.372.64-6.163 1.102-12.394 1.987-18.565.915-6.166 2.055-12.308 3.615-18.347 1.563-6.037 3.522-11.975 5.98-17.694-2.09 5.863-3.769 11.849-5.186 17.889-1.386 6.048-2.528 12.152-3.357 18.302-.97 6.135-1.411 12.324-2.231 18.515C2102.321 1569.531 2101.109 1575.67 2099.293 1581.626zM2204.795 1403.796c1.296 2.447 1.775 5.209 1.879 7.957-.066 2.75-.347 5.505-.994 8.182-1.202 5.378-3.145 10.556-5.308 15.61-4.421 10.085-9.846 19.677-15.394 29.16-5.583 9.469-11.42 18.782-17.119 28.167-2.842 4.696-5.662 9.407-8.28 14.219-1.29 2.413-2.579 4.833-3.671 7.329-1.086 2.478-2.163 5.043-2.461 7.646l-.011-.161c1.397 4.86 4.45 9.232 7.363 13.485 3.009 4.238 6.221 8.342 9.427 12.449 6.417 8.211 13.036 16.298 18.809 25.021 2.835 4.376 5.644 8.848 7.362 13.847 1.643 4.981 2.643 10.153 3.074 15.366.438 5.21.318 10.481-.589 15.632-.855 5.145-2.688 10.186-5.751 14.42 2.994-4.284 4.733-9.329 5.501-14.462.819-5.138.853-10.378.334-15.545-.489-5.168-1.49-10.303-3.148-15.214-1.707-4.889-4.522-9.327-7.365-13.659-5.791-8.645-12.447-16.688-18.912-24.865-3.233-4.094-6.473-8.185-9.525-12.433-2.958-4.293-6.066-8.601-7.601-13.808l-.021-.071.01-.09c.31-2.889 1.447-5.453 2.561-7.979 1.126-2.531 2.436-4.958 3.748-7.38 2.66-4.824 5.51-9.526 8.382-14.212 5.757-9.363 11.642-18.637 17.271-28.064 5.594-9.44 11.061-18.986 15.522-29.01 2.237-5 4.253-10.125 5.536-15.455.687-2.656 1.01-5.386 1.12-8.123C2206.481 1409.02 2206.052 1406.264 2204.795 1403.796z" class="colorc49d78 svgShape"></path><path fill="#aad2fa" d="M2026.85,1530.47c10.499-8.022,48.83,27.742,43.416,43.449
								c-2.759,8.003-8.986,13.216-12.34,19.991c-2.353,4.752,1.136,11.069-0.917,11.892
								C2041.602,1611.98,2023.67,1532.9,2026.85,1530.47z" class="colorfad1aa svgShape"></path><path fill="#8ebbe9" d="M2342.985,1216.949c28.954,25.485,47.996,51.01,52.633,55.121
								c67.213,59.593,115.063,98.932,147.826,115.02c55.056,27.035,123.473,37.623,155.917,48.921
								c39.648,60.398-31.151,203.032-87.231,204.237c-31.849-10.985-64.966-28.426-117.89-53.086
								c-11.189-5.214-31.014-8.347-34.701-6.977c-34.992,13.002-57.97,4.515-71.116,1.708
								c-41.588-8.88-105.728-56.367-139.809-71.894c-8.487-19.148,27.791-34.142,32.712-71.292
								c5.828-43.996-9.972-66.864,4.873-100.833c12.124-27.743,24.865-73.044,51.634-114.027L2342.985,1216.949z" class="colore9ba8e svgShape"></path><path fill="#8ebbe9" d="M2274.287,1178.009c-14.689,0.491-38.633,12.978-59.349,25.74
								c-17.549,10.811-87.662,33.344-120.393,48.49c-22.786,10.544-38.489,18.697-51.038,43.888
								c-16.734,33.593-52.993,85.531-60.686,110.052c-3.856,12.293-2.51,43.939,3.921,69.437
								c3.841,15.228,29.414,15.281,42.827,5.305c19.859-14.771,23-31.489,40.928-62.831c14.744-11.616,42.252-44.44,54.257-62.888
								c14.201-6.216,61.847-14.889,82.549-36.861c14.24,21.325,47.652,52.682,73.451,68.992l62.232-170.383
								C2301.041,1180.369,2281.496,1177.768,2274.287,1178.009z" class="colore9ba8e svgShape"></path><path fill="#add6ff" d="M1981.881,1415.134c5.3,0.082,13.211,22.36,18.333,45.635
								c-8.435,12.896-5.871,20.998-2.326,25.317c-3.784,1.968-8.941-1.591-10.775-6.774
								C1977.737,1452.808,1980.044,1415.105,1981.881,1415.134z" class="colorffd5ad svgShape"></path><path fill="#7ea5cc" d="M2109.02 1293.906c10.499 16.09 17.344 35.04 18.504 58.438L2109.02 1293.906zM2040.763 1377.394c11.614 10.562 21.465 23.964 28.844 41.354L2040.763 1377.394zM2230.367 1262.52c-1.842 19.125-8.324 38.201-22.022 57.205L2230.367 1262.52z" class="colorcca37e svgShape"></path><path fill="#789ec4" d="M2070.497,1418.088c5.335-4.444,10.165-9.441,14.874-14.525
								c4.694-5.104,9.214-10.363,13.677-15.665c4.45-5.315,8.779-10.731,12.97-16.248c4.18-5.522,8.255-11.129,12.042-16.901
								l0.143-0.218l0.219-0.089c7.178-2.907,14.523-4.832,21.782-7.104c7.269-2.214,14.5-4.529,21.592-7.199
								c7.094-2.65,14.086-5.587,20.736-9.162c6.621-3.58,12.993-7.78,18.162-13.211l0.722-0.759l0.583,0.868
								c7.969,11.877,17.205,22.923,27.46,32.94c10.272,9.992,21.392,19.17,33.442,27.02c-12.232-7.542-23.767-16.291-34.211-26.22
								c-10.437-9.922-20.027-20.814-28.082-32.812l1.303,0.109c-5.325,5.652-11.814,9.965-18.521,13.64
								c-6.739,3.659-13.781,6.69-20.933,9.363c-7.163,2.653-14.443,4.941-21.738,7.121c-7.265,2.227-14.685,4.147-21.633,6.921
								l0.361-0.306c-3.835,5.83-8.017,11.394-12.308,16.864c-4.294,5.468-8.719,10.828-13.265,16.083
								c-4.532,5.266-9.224,10.396-14.073,15.372C2080.94,1408.928,2075.957,1413.797,2070.497,1418.088z" class="colorc49d78 svgShape"></path><path fill="#6e7b89" d="M2002.719,1581.306c1.156-0.126,2.079-0.407,3.088-0.938
											c1.237-0.651,2.016-1.526,2.39-1.947c-0.614,0.731-1.649,1.228-3.051,1.365c-3.577,0.349-8.185-1.773-10.293-4.739
											c-0.861-1.211-1.172-2.376-0.994-3.354c-0.086,0.596-0.161,1.111-0.126,1.77c0.029,0.558,0.088,1.184,0.322,1.985
											c0.357,1.222,0.981,2.323,1.856,3.272C1997.63,1580.585,2000.239,1581.577,2002.719,1581.306z" class="color6e8988 svgShape"></path><path fill="#939598" d="M2008.195,1578.423c2.553-3.039,5.106-6.077,7.659-9.116
											c-0.851,1.013-2.286,1.7-4.229,1.89c-4.959,0.484-11.349-2.458-14.272-6.57c-1.193-1.679-1.624-3.293-1.379-4.648l0,0
											c-0.705,3.906-1.411,7.811-2.116,11.716c-0.177,0.978,0.134,2.142,0.995,3.352c2.108,2.966,6.716,5.088,10.293,4.739
											C2006.546,1579.649,2007.581,1579.153,2008.195,1578.423z" class="color939598 svgShape"></path><path fill="#525252" d="M2020.246,1571.314c3.439-4.909,6.854-9.975,8.163-11.925
											c5.784-8.62,9.604-14.495,10.637-16.09c7.46-11.523,8.781-13.616,14.341-22.424c3.741-5.927,10.328-16.6,11.384-18.332
											c1.857-3.047,4.342-7.105,6.19-10.157c1.954-3.228,4.549-7.537,6.482-10.777c2.407-4.034,7.416-12.428,13.815-23.448
											c4.529-7.8,8.587-14.849,14.811-25.871c6.731-11.918,8.378-14.975,10.871-19.602c2.748-5.1,10.42-20.159,19.308-38.854
											c2.499-5.257,7.699-16.195,13.356-28.367c8.405-18.087,12.772-27.593,22.707-49.242
											c9.234-20.12,17.209-37.497,23.276-50.359c-0.004,0.007-0.007,0.015-0.011,0.022c-2.265,4.758-7.608,8.072-15.542,8.846
											c-16.204,1.581-37.082-8.031-46.632-21.468c-4.833-6.801-5.839-13.278-3.553-18.222c0.003-0.008,0.007-0.015,0.01-0.022
											c-1.002,2.12-2.324,4.953-3.321,7.075c-1.083,2.307-2.54,5.377-3.634,7.678c-4.47,9.406-9.221,19.324-12.407,25.966
											c-4.593,9.582-9.193,19.159-13.78,28.745c-3.756,7.847-9.381,19.663-9.415,19.735
											c-5.839,12.302-10.436,22.061-13.665,29.007c-5.987,12.879-7.294,15.776-12.158,26.553
											c-0.914,2.026-4.216,9.449-6.765,15.441c-2.217,5.214-4.01,9.588-5.33,13.002c-2.88,7.45-9.625,24.895-16.111,42.693
											c-3.717,10.2-9.334,25.616-17.21,48.747c-1.978,5.809-5.167,15.377-6.825,20.476c-3.292,10.122-4.127,12.706-8.083,25.367
											c-1.204,3.853-6.351,20.64-9.535,32.376c-0.551,2.031,0.019,4.522,1.866,7.121c4.181,5.882,13.32,10.089,20.413,9.397
											C2016.919,1574.106,2019.08,1572.973,2020.246,1571.314z" class="color525252 svgShape"></path><path fill="#ffffff" d="M2195.577,1245.888c1.01-2.133,1.974-4.167,2.892-6.085
											c-0.012,0.026-0.024,0.051-0.037,0.077c-2.288,4.722-7.621,8.007-15.519,8.778c-16.219,1.582-37.116-8.038-46.675-21.488
											c-4.813-6.771-5.834-13.222-3.592-18.161c0.012-0.026,0.024-0.052,0.035-0.078c-0.888,1.933-1.836,3.974-2.831,6.114
											c-2.286,4.944-1.281,11.421,3.553,18.222c9.55,13.437,30.428,23.049,46.632,21.468
											C2187.969,1253.96,2193.311,1250.646,2195.577,1245.888z" class="colorffffff svgShape"></path><path fill="#525252" d="M2198.432,1239.879c0.649-1.363,1.279-2.666,1.88-3.907
											c-0.018,0.037-0.036,0.074-0.054,0.111c-2.32,4.668-7.637,7.911-15.483,8.677c-16.238,1.584-37.159-8.047-46.729-21.513
											c-4.782-6.728-5.825-13.14-3.646-18.069c0.017-0.038,0.033-0.075,0.051-0.113c-0.571,1.256-1.17,2.573-1.804,3.943
											c-2.242,4.939-1.221,11.39,3.592,18.161c9.559,13.45,30.456,23.07,46.675,21.488
											C2190.812,1247.886,2196.144,1244.601,2198.432,1239.879z" class="color525252 svgShape"></path><path fill="#ffffff" d="M2200.258,1236.083c0.877-1.809,1.692-3.488,2.459-5.022
											c-2.326,4.679-7.656,7.932-15.522,8.699c-16.279,1.588-37.253-8.068-46.848-21.568c-4.794-6.745-5.84-13.173-3.656-18.115
											c-0.69,1.57-1.46,3.27-2.291,5.101c-2.178,4.93-1.135,11.342,3.646,18.069c9.57,13.465,30.491,23.097,46.729,21.513
											C2192.621,1243.994,2197.938,1240.75,2200.258,1236.083z" class="colorffffff svgShape"></path><path fill="#525252" d="M2202.717,1231.061c17.737-35.681,47.519-81.402,67.049-123.481
											c-2.852,5.738-9.388,9.726-19.033,10.667c-19.961,1.947-45.679-9.893-57.444-26.446c-5.878-8.27-7.16-16.153-4.482-22.213
											c-19.881,41.914-36.01,94.042-52.116,130.488c-2.184,4.942-1.138,11.37,3.656,18.115
											c9.595,13.5,30.569,23.156,46.848,21.568C2195.06,1238.992,2200.39,1235.74,2202.717,1231.061z" class="color525252 svgShape"></path><path fill="#525252" d="M2269.939,1107.22c2.236-4.869,4.347-9.469,7.94-18.096
											c2.976-7.145,5.414-13.632,6.724-17.117c1.372-3.65,3.62-9.846,6.54-18.64c0.604-1.82,1.86-5.662,3.481-10.945
											c0.267-0.87,0.605-2.037,0.776-2.931c0.169-0.882,0.431-2.053,0.547-2.944c0.168-1.294,0.397-3.025,0.399-4.33
											c0.002-1.349,0.036-3.153-0.086-4.497c-0.154-1.695-0.495-3.943-0.831-5.611c-0.344-1.709-1.308-4.884-2.265-7.034
											c-0.841-1.889-1.794-4.03-4.185-7.457c-3.37-4.742-9.91-7.201-18.727-6.341c8.817-0.86,15.357,1.599,18.727,6.341
											c-0.849-1.123-2.02-2.591-2.936-3.66c-0.512-0.597-1.25-1.345-1.821-1.887c-1.28-1.217-1.823-1.701-3.208-2.795
											c-1.251-0.988-2.256-1.641-3.142-2.218c-1.796-1.168-4.241-2.431-6.381-3.295c-3.188-1.287-5.828-1.903-7.118-2.155
											c-2.43-0.475-4.634-0.736-6.55-0.773c-1.415-0.028-3.303,0.027-4.715,0.116c-0.93,0.059-2.168,0.207-3.085,0.377
											c-1.482,0.274-3.442,0.728-4.9,1.11c-0.783,0.205-1.805,0.56-2.561,0.847c-0.803,0.305-1.879,0.705-2.648,1.086
											c-1.512,0.75-3.511,1.793-4.949,2.678c-1.254,0.773-2.832,1.955-3.972,2.888c-1.055,0.863-2.415,2.081-3.333,3.09
											c-1.209,1.329-2.757,3.163-3.817,4.613c-0.746,1.021-3.802,5.802-3.833,5.849c-4.519,7.092-10.054,15.985-16.842,28.176
											c-3.47,6.231-8.749,16.07-14.194,27.559c-0.057,0.12-0.112,0.241-0.166,0.363c-2.678,6.06-1.396,13.942,4.482,22.213
											c11.765,16.553,37.483,28.393,57.444,26.446c9.645-0.941,16.181-4.929,19.033-10.667
											C2269.825,1107.46,2269.883,1107.34,2269.939,1107.22z" class="color525252 svgShape"></path><path fill="#ffffff" d="M2288.978,1007.619c-1.887-2.496-1.961-2.593-3.257-4.011
												c-1.975-2.022-2.013-2.061-3.19-3.083c-2.023-1.662-2.023-1.662-3.125-2.439c-2.041-1.365-2.041-1.365-3.112-1.979
												c-2.091-1.136-2.091-1.136-3.169-1.634c-2.184-0.947-2.184-0.947-3.311-1.349c-2.292-0.758-2.336-0.773-3.555-1.084
												c-2.462-0.563-2.558-0.585-3.937-0.793c-2.701-0.33-2.863-0.35-4.499-0.412c-2.938-0.016-3.245-0.017-5.284,0.167
												c-1.46,0.189-3.4,0.495-4.845,0.772c-2.215,0.571-4.726,1.219-7.78,2.596c-2.976,1.476-3.683,1.827-6.622,3.804
												c-2.812,2.157-3.319,2.545-5.631,4.852c-2.46,2.756-2.838,3.179-4.624,5.794c-2.013,3.087-2.013,3.087-3.026,4.667
												l-0.17,0.265c-3.63,5.673-2.876,13.589,3.062,21.944c10.643,14.974,33.909,25.685,51.967,23.924
												c9.778-0.954,16.024-5.37,18.006-11.596l0.095-0.3c1.116-3.551,1.116-3.551,1.656-5.311
												c0.952-3.6,1.099-4.153,1.502-7.261c0.271-3.644,0.313-4.204,0.133-7.435c-0.383-3.413-0.462-4.123-1.307-7.527
												c-0.65-2.083-1.459-4.676-2.974-7.64C2290.393,1009.695,2290.264,1009.461,2288.978,1007.619
												c-3.37-4.742-9.91-7.201-18.727-6.341C2279.068,1000.418,2285.608,1002.877,2288.978,1007.619L2288.978,1007.619z" class="colorffffff svgShape"></path><g fill="#000000" class="color000000 svgShape"><path fill="#cccccc" d="M2227.842,1100.065c-12.683,30.351-32.288,91.877-47.463,100.413
											c-3.893,2.19-12.436-1.848-13.215-6.246c-3.036-17.144,32.061-71.347,47.463-100.413
											c14.055-26.525,13.168-38.99,23.358-44.945c2.865-1.674,9.235,1.337,9.76,4.613
											C2249.611,1065.141,2239.416,1072.367,2227.842,1100.065z" class="colorcccccc svgShape"></path><path fill="#d1d1d1" d="M2226.547,1095.061c-12.683,30.351-32.288,91.877-47.463,100.413
											c-3.893,2.19-12.436-1.848-13.215-6.246c-3.036-17.144,32.061-71.347,47.463-100.413
											c14.055-26.525,13.168-38.99,23.358-44.945c2.865-1.674,9.235,1.337,9.76,4.613
											C2248.316,1060.137,2238.121,1067.364,2226.547,1095.061z" class="colord1d1d1 svgShape"></path><path fill="#c2c2c2" d="M2223.646,1094.12c9.912-23.72,17.668-31.865,18.276-41.175
											c0.098-1.503,2.325-1.705,2.584-0.221c0.002,0.012,0.004,0.025,0.006,0.037c1.758,10.978-7.845,17.785-18.748,43.876
											c-11.947,28.591-30.415,86.547-44.709,94.588c-0.995,0.559-2.314,0.676-3.72,0.483
											C2191.957,1180.214,2211.66,1122.802,2223.646,1094.12z" class="colorc2c2c2 svgShape"></path><path fill="#d1d1d1" d="M2214.666,1090.42c13.639-25.74,12.779-37.836,22.667-43.615
											c0.012-0.007,0.023-0.014,0.035-0.02c1.452-0.82,2.811,1.219,1.608,2.374c-7.276,6.985-8.099,19.96-21.003,44.313
											c-13.4,25.288-41.102,68.831-48.04,92.914c-0.293,1.017-0.109,2.095-0.866,2.176c-0.39,0.042-0.372-0.202-0.46-0.698
											C2165.661,1171.226,2199.719,1118.626,2214.666,1090.42z" class="colord1d1d1 svgShape"></path></g><g fill="#000000" class="color000000 svgShape"><path fill="#ffffff" d="M2001.155,1525.512c-2.658,8.656-2.761,8.994-3.991,13.11
											c-1.922,6.484-2.036,6.872-2.902,9.875c-1.319,4.611-1.319,4.611-1.839,6.475c-0.268,0.968-0.537,1.936-0.8,2.905
											c-0.551,2.031,0.019,4.522,1.866,7.121c4.181,5.882,13.32,10.089,20.413,9.397c3.018-0.294,5.179-1.428,6.344-3.087
											c0.576-0.823,1.151-1.646,1.723-2.472c2.326-3.377,2.371-3.442,3.805-5.553c3.61-5.344,3.679-5.446,5.74-8.543
											c4.887-7.387,4.887-7.387,7.532-11.448l0.094-0.145c-1.504,2.31-4.417,3.895-8.536,4.296
											c-9.383,0.915-21.472-4.65-27.002-12.431c-2.519-3.544-3.243-6.937-2.397-9.667L2001.155,1525.512L2001.155,1525.512z" class="colorffffff svgShape"></path></g><path fill="#cccccc" d="M2081.641,1488.158c-12.658-7.129-18.875-13.833-21.624-29.842
								c-1.31-7.63-0.556-14.77,1.652-21.336c11.723-12.053,23.927-24.361,36.502-36.812c7.118-3.063,29.796-9.566,29.796-9.566
								S2104.671,1440.535,2081.641,1488.158z" class="colorcccccc svgShape"></path><path fill="#8ebbe9" d="M2323.975,1371.769c-10.52,5.332-26.396,11.754-46.218,13.387
								c-24.311,2.004-42.201-3.711-65.111-3.213c-15.745,0.342-95.993,16.385-117.316,27.697
								c-20.382,10.813-38.524,30.901-34.168,56.272c4.494,26.169,28.337,40.047,51.552,43.032
								c35.214,4.527,69.02,4.69,128.446,1.495c31.351-1.686,47.516-1.144,64.734,4.814c18.805,6.507,51.331,28.399,81.753,40.261
								c22.102,8.618,56.615,14.882,107.992-0.235L2323.975,1371.769z" class="colore9ba8e svgShape"></path><path fill="#7295b8" d="M2208.285 1404.908c3.626 6.344 6.177 13.273 8.21 20.301 2.059 7.034 3.421 14.251 4.411 21.5.928 7.259 1.486 14.569 1.46 21.886-.01 7.308-.428 14.642-1.773 21.819.099-3.649.261-7.272.155-10.903-.004-3.625-.107-7.248-.334-10.862-.432-7.227-1.051-14.439-2.024-21.605-.916-7.173-2.193-14.295-3.778-21.349-.803-3.526-1.728-7.023-2.782-10.487-.5-1.741-1.099-3.449-1.647-5.183L2208.285 1404.908zM2249.459 1400.769c5.932 4.758 10.215 11.512 12.979 18.664 2.821 7.179 4.207 14.827 4.74 22.466.441 7.652.007 15.358-1.545 22.858-1.523 7.464-4.155 14.881-8.629 21.018 3.173-6.873 4.688-14.192 5.697-21.511.912-7.342 1.167-14.76.678-22.12-.44-7.359-1.604-14.685-3.737-21.735C2257.437 1413.402 2254.332 1406.58 2249.459 1400.769z" class="colorb89372 svgShape"></path><path fill="#789ec4" d="M2324.693,1373.755c-14.295,7.367-29.973,12.18-46.046,13.603
								c-8.036,0.695-16.139,0.444-24.144-0.471c-8.012-0.885-15.946-2.27-23.927-3.101c-7.984-0.771-16.012-1.221-23.959-0.019
								c-7.963,1.007-15.896,2.336-23.807,3.754c-15.819,2.864-31.57,6.145-47.183,9.958c-7.804,1.912-15.573,3.976-23.236,6.354
								c-7.656,2.424-15.241,5.014-21.93,9.439c-6.739,4.249-12.95,9.417-17.961,15.595c-5.004,6.151-8.808,13.359-10.354,21.125
								c-1.573,7.748-0.823,15.892,1.796,23.344c2.583,7.48,7.276,14.138,13.191,19.38c5.942,5.239,13.028,9.122,20.518,11.741
								c3.752,1.297,7.608,2.313,11.522,2.996c3.9,0.671,7.922,1.056,11.901,1.483c31.954,3.286,64.196,1.426,96.3-0.056
								c16.067-0.725,32.12-1.931,48.259-1.971c8.062,0.025,16.165,0.389,24.157,1.743c7.993,1.316,15.804,3.734,23.171,7.088
								c14.642,6.836,28.471,15.085,42.725,22.52c7.111,3.745,14.289,7.362,21.614,10.652c7.321,3.298,14.791,6.26,22.531,8.358
								c15.455,4.33,31.692,5.545,47.709,4.544c4.016-0.172,8.005-0.678,12.003-1.082c3.971-0.608,7.968-1.079,11.906-1.894
								c7.926-1.379,15.714-3.424,23.471-5.546c-7.736,2.196-15.509,4.318-23.428,5.775c-3.935,0.854-7.931,1.364-11.905,2.011
								c-4,0.443-7.994,0.988-12.018,1.2c-16.049,1.158-32.373,0.101-47.984-4.109c-7.814-2.064-15.351-5.044-22.705-8.322
								c-7.364-3.278-14.573-6.881-21.709-10.609c-14.295-7.397-28.179-15.611-42.732-22.345
								c-7.285-3.287-14.981-5.641-22.873-6.914c-7.887-1.31-15.916-1.646-23.934-1.644c-16.048,0.093-32.106,1.35-48.177,2.13
								c-16.069,0.845-32.146,1.661-48.254,1.967c-16.101,0.285-32.259,0.047-48.319-1.609c-4.015-0.445-8.009-0.838-12.036-1.542
								c-4.008-0.713-7.954-1.766-11.798-3.109c-7.672-2.711-14.947-6.723-21.071-12.157
								c-12.389-10.735-18.728-28.188-15.381-44.339c1.632-8.054,5.592-15.476,10.74-21.759
								c5.157-6.314,11.504-11.553,18.371-15.852c6.806-4.472,14.636-7.128,22.285-9.514c7.712-2.366,15.508-4.408,23.335-6.299
								c15.659-3.77,31.437-7.002,47.289-9.818c7.929-1.394,15.875-2.699,23.878-3.684c8.011-1.177,16.187-0.725,24.181,0.115
								c8.016,0.913,15.934,2.374,23.907,3.331c7.967,0.987,16.018,1.314,24.026,0.699
								C2294.63,1385.634,2310.327,1380.985,2324.693,1373.755z" class="colorc49d78 svgShape"></path><path fill="#add6ff" d="M2071.666,1430.221c17.824-10.333,46.433-10.458,65.626-9.151
								c3.809,14.625,6.152,55.484,4.174,69.826c-18.101,7.978-56.815,8.904-66.777,2.544
								C2055.831,1481.4,2048.529,1443.635,2071.666,1430.221z" class="colorffd5ad svgShape"></path><path fill="#ededed" d="M2479.826,1671.74l610.946,276.665l139.025-343.683l-634.734-221.68
							C2514.492,1436.136,2467.001,1574.205,2479.826,1671.74z" class="colorededed svgShape"></path><path fill="#4d4d4d" d="M2523.683,1717.575l715.627,321.866l156.203-386.149l-742.355-260.088
							C2562.633,1452.86,2509.274,1607.988,2523.683,1717.575z" class="color4d4d4d svgShape"></path><g fill="#000000" class="color000000 svgShape"><path fill="#355fff" d="M2599.206,1719.226c11.366,2.324,17.872-3.947,14.557-13.982
										c-3.32-10.05-15.208-20.067-26.574-22.391c-11.351-2.321-17.877,3.932-14.557,13.982
										C2575.947,1706.869,2587.855,1716.905,2599.206,1719.226z" class="colorffca35 svgShape"></path></g><g fill="#000000" class="color000000 svgShape"><ellipse cx="2654.012" cy="1734.926" fill="#355fff" rx="14.154" ry="24.641" transform="rotate(-52.888 2653.971 1734.852)" class="colorffca35 svgShape"></ellipse></g><g fill="#000000" class="color000000 svgShape"><ellipse cx="2716.964" cy="1767.124" fill="#355fff" rx="14.154" ry="24.641" transform="rotate(-52.888 2716.916 1767.047)" class="colorffca35 svgShape"></ellipse></g></g></g><g fill="#000000" class="color000000 svgShape"><path d="M797.744 1674.976c41.535 23.98 41.754 62.865.489 86.846-41.258 23.977-108.389 23.977-149.924-.003-41.528-23.976-41.747-62.861-.489-86.838C689.085 1651 756.216 1650.999 797.744 1674.976zM593.419 1758.168c50.678 29.259 50.945 76.704.596 105.964-50.341 29.255-132.25 29.255-182.928-.004-50.67-29.254-50.937-76.699-.596-105.954C460.84 1728.915 542.749 1728.914 593.419 1758.168z" opacity=".1" fill="#000000" class="color000000 svgShape"></path><path fill="#f0f0f0" d="M700.328,1285.3c13.757,3.38,25.963-23.252,19.534-35.876
								c-78.049-32.185-115.415-87.099-145.074-65.218c-11.4,8.41-8.166,38.838,8.244,51.628
								C620.624,1265.135,666.647,1277.026,700.328,1285.3z" class="colorf0f0f0 svgShape"></path><path d="M489.214,1776.649c3.892,7.166,27.797,19.387,27.797,19.387l10.805-4.837L489.214,1776.649z" fill="#000000" class="color000000 svgShape"></path><path fill="#1b1f2e" d="M517.01,1796.036c0,0-23.905-12.221-27.797-19.387c-0.915-1.684,0.216-12.892,0.216-12.892
											l29.766,22.191L517.01,1796.036z" class="color2e231b svgShape"></path><path fill="#1b1f2e" d="M599.708,1804.992c2.882-13.637-32.476-33.238-60.275-46.708
											c-27.799-13.47-39.483-27.013-47.287-10.908c-7.804,16.105-3.24,28.192,24.559,41.662
											c12.532,6.072,23.737,19.428,39.509,25.554C573.11,1821.155,597.005,1817.78,599.708,1804.992z" class="color2e231b svgShape"></path><path fill="#202e61" d="M600.081,1802.879c5.636-12.748-32.476-33.238-60.275-46.708
											c-27.799-13.47-39.483-27.013-47.287-10.908c-7.804,16.105-2.914,27.351,24.885,40.82
											c12.532,6.072,26.636,18.946,42.651,24.406C574.988,1815.58,596.056,1811.982,600.081,1802.879z" class="color613b20 svgShape"></path><path fill="#021b79" d="M547.592,1758.205c-0.649,17.001-57.943,11.349-55.968-7.525l9.62-143.881l-7.046-199.67
										l80.273,12.676c0,0-2.742,158.933-5.401,185.238C566.231,1633.13,547.592,1758.205,547.592,1758.205z" class="color2e2e2e svgShape"></path><g fill="#000000" class="color000000 svgShape"><path fill="#1b1f2e" d="M449.754,1786.001c1.807,3.442,9.864,10.599,16.741,24.005
											c4.134,8.059,9.447,15.338,10.296,23.313c1.514,14.222-3.7,16.506-16.574,18.762
											c-22.33,3.913-46.365-18.469-54.705-46.446c-8.504-28.526,5.22-32.369,13.583-36.434
											C433.215,1762.337,435.918,1759.645,449.754,1786.001z" class="color2e231b svgShape"></path><path fill="#202e61" d="M450.384,1780.087c1.807,3.442,7.677,12.386,14.553,25.791
											c4.88,9.513,13.435,24.118,12.179,32.635c-4.025,4.557-20.909,9.905-32.18,5.863
											c-10.392-3.727-20.332-11.368-26.868-20.344c-8.442-11.592-22.317-49.968-8.416-57.265
											C423.553,1759.471,436.548,1753.732,450.384,1780.087z" class="color613b20 svgShape"></path><path fill="#3b3b3b" d="M458.467,1797.171c-12,3.62-46.155,6.485-53.127-25.871l25.568-140.355l7.345-183.683
											l95.489-12.104c0,0-29.526,178.451-34.239,202.875C496.346,1654.396,461.329,1796.307,458.467,1797.171z" class="color3b3b3b svgShape"></path></g><g fill="#000000" class="color000000 svgShape"><path fill="#001668" d="M579.289,1452.554c-2.357,20.544-130.564,33.197-147.198-1.248l39.438-265.107
											l63.126-32.655l42.529,28.439l23.788-3.203l5.571,4.492c0,0-19.021,125.822-23.415,165.627
											C580.704,1370.859,579.289,1452.554,579.289,1452.554z" class="color006838 svgShape"></path><path fill="#001f94" d="M531.207,1168.059c0,11.023,18.434,37.013,40.279,37.013s28.849-11.294,28.849-22.317
											c0-11.023-12.628-15.422-34.473-15.422C544.017,1167.333,531.207,1157.037,531.207,1168.059z" class="color009444 svgShape"></path><path fill="#9cbad9" d="M602.141,1100.527l-7.85,67.217c0,0-0.355,22.301-21.171,20.454
											c-21.615-1.917-43.014-22.578-42.094-28.486c14.878-4.354,13.107-71.156,13.107-71.156L602.141,1100.527z" class="colord9b49c svgShape"></path><path fill="#e6e7e8" d="M538.958 1145.831c-5.721 16.029 25.135 39.691 33.073 42.186l-22.137 28.661c0 0-22.43-42.216-19.881-56.267C531.201 1153.856 538.958 1145.831 538.958 1145.831zM599.428 1168.22c0 0-.707 3.664-1.24 5.992-2.342 10.226-18.083 13.625-18.083 13.625l13.699 28.123c0 0 11.2-19.877 10.893-32.081C604.609 1180.377 599.428 1168.22 599.428 1168.22z" class="colore6e7e8 svgShape"></path><path fill="#adcef0" d="M537.469,1092.988c-3.099,19.414,1.128,37.206,10.703,54.506
													c8.418,15.211,19.921,31.511,32.084,34.457c27.2,6.588,20.576-6.683,28.654-16.513
													c10.217-12.433,19.899-30.176,23.151-50.551c2.416-15.134,3.197-33.628-3.413-45.461
													c-9.324-16.691-32.56-27.722-48.212-27.73C553.464,1041.683,543.292,1056.505,537.469,1092.988z" class="colorf0c7ad svgShape"></path><path fill="#f2f2f2" d="M637.896 1057.092c2.902 3.714-1.347 7.602-2.361 13.156-1.101 6.032.075 12.652-2.083 18.222-2.034-5.151-3.437-16.117-9.081-13.863-4.265 1.703-4.444 2.368-11.172 1.742-11.106-2.744-14.561-12.755-30.113-12.402-13.758.312-28.935 13.68-22.22 32.411-2.511 4.118-4.913 9.501-10.298 16.178-.218-6.261-2.559-11.149-5.579-11.243-3.308-.103-6.17 5.58-6.392 12.694-.15 4.816 1.863 9.006 3.615 11.272-2.863 4.411 1.29 9.672.745 11.587-8.148-13.353-9.74-26.897-7.693-37.27 4.985-25.257 10.006-47.816 25.449-56.641C579.039 1032.464 629.814 1046.749 637.896 1057.092zM625.899 1153.299c-.008.889-6.598 11.92-19.127 4.909-18.25 2.862-31.543-17.346-31.041-18.071.102-1.266 19.095 1.977 32.987 9.667C621.662 1146.014 625.899 1153.299 625.899 1153.299z" class="colorf2f2f2 svgShape"></path><path fill="#f2f2f2" d="M541.079,1124.37c0,0,38.333,32.651,51.783,36.237
												c17.289,4.609,19.332-0.135,22.522-4.157c2.088,3.917-6.363,13.321-9.299,18.371c-1.808,3.111-4.763,10.306-7.933,12.009
												c-4.105,2.204-14.27,1.6-18.637-0.025c-9.023-3.36-24.362-16.807-29.169-25.149
												C538.372,1140.879,541.079,1124.37,541.079,1124.37z" class="colorf2f2f2 svgShape"></path></g><g fill="#000000" class="color000000 svgShape"><path fill="#f0f0f0" d="M416.322,1352.999c20.164-21.92,47.317-70.372,69.823-100.902
										c8.498-6.954,24.487-49.968,7.736-64.526c-14.287-12.417-32.902,4.072-43.979,19.422
										c-21.473,29.754-63.556,113.414-70.851,130.876C373.265,1351.716,397.196,1373.79,416.322,1352.999z" class="colorf0f0f0 svgShape"></path></g><g fill="#000000" class="color000000 svgShape"><path fill="#707070" d="M430.435,1433.329c8.157,10.053,12.677,18.412,12.677,18.412
								c13.94,7.283,41.052-13.68,30.226-23.579l-12.777-16.076L430.435,1433.329z" class="color707070 svgShape"></path><path fill="#313b63" d="M522.184,1500.735L522.184,1500.735c-6.283,23.862-7.144-26.914-31.006-33.197
										l-43.206-11.377c-8.225-3.245-18.438-25.753-0.823-21.385l43.206,11.377
										C514.217,1452.436,528.468,1476.873,522.184,1500.735z" class="color634831 svgShape"></path><path fill="#5063a9" d="M511.475,1476.19l-122.121,348.192c-3.881,3.398-10.256,2.562-12.44-3.276l122.122-348.191
										L511.475,1476.19z" class="colora97c50 svgShape"></path><path fill="#3c4d8b" d="M522.184,1500.735L522.184,1500.735c-6.283,23.862-8.138-26.174-32-32.458l-42.35-12.186
										c19.697,4.753,11.47-18.115-0.685-21.316l43.206,11.377C514.217,1452.436,528.468,1476.873,522.184,1500.735z" class="color8b5e3c svgShape"></path><path fill="#adcef0" d="M494.533,1439.067c-3.27-2.462-14.834-9.011-14.834-9.011s-5.446-1.75-8.02-3.072
								c-4.912-2.522-5.908-4.416-9.889-9.728c-4.3-5.828-23.263,12.892-17.33,23.995c1.49,2.788,6.501,5.077,7.089,9.209
								c1.472,10.334,2.939,16.254,9.984,22.296c4.591,3.938,16.283,3.89,25.573,0.15c4-1.61,5.167-3.559,4.835-3.923
								c-3.923-4.303-8.976-7.465-9.206-16.536c-0.019-0.747,1.803-5.884,5.029-6.751c-0.127,0,2.911,0.464,4.514,1.097
								c1.043,0.412,3.557,1.686,4.598,1.561C498.431,1448.17,497.031,1440.948,494.533,1439.067z" class="colorf0c7ad svgShape"></path><path fill="#e3e3e3" d="M421.747,1345.658c-11.763-16.23-44.681-13.966-44.708-2.36
								c-0.072,30.797,65.154,107.859,65.154,107.859c-7.796-8.55,19.997-30.734,31.146-22.995L421.747,1345.658z" class="colore3e3e3 svgShape"></path></g><g fill="#000000" class="color000000 svgShape"><path fill="#00166b" d="M855.825,1292.006c-18.771-26.04-17.188-31.878-47.544-74.894
								c-14.378-20.372-19.128-34.79-35.49-33.831c-15.765,0.919-18.875,42.449-5.976,61.249
								c22.36,32.602,17.498,52.242,33.556,76.272C815.469,1346.584,873.163,1338.937,855.825,1292.006z" class="color6b0008 svgShape"></path><path fill="#99b7d6" d="M834.24,1324.161c7.855,1.374,15.606-22.901,13.195-26.051l-24.117-26.004l-30.117,19.83
								C793.201,1291.935,814.794,1320.779,834.24,1324.161z" class="colord6b299 svgShape"></path><path fill="#3551b8" d="M855.825,1292.006c-18.771-26.04-17.188-31.878-47.544-74.894
								c-14.378-20.372-19.128-34.79-35.49-33.831c-15.765,0.919-18.875,42.449-5.976,61.249
								c22.36,32.602,17.498,52.242,33.556,76.272C800.07,1294.753,849.011,1282.294,855.825,1292.006z" class="colorb83535 svgShape"></path><path fill="#9cbad9" d="M722.382,1653.31l16.474,2.821c0,0,34.544-71.911,47.91-91.751
											c3.707-5.503,5.29-10.818,5.576-17.447c1.034-23.939-13.396-97.289-13.396-97.289l-47.762-5.747l13.892,96.093
											c-10.749,8.261-11.878,56.787-26.564,107.025C717.682,1649.851,719.469,1652.811,722.382,1653.31z" class="colord9b49c svgShape"></path><path d="M723.707,1683.208c4.969,3.315,24.558,3.063,24.558,3.063l5.291-6.831L723.707,1683.208z" fill="#000000" class="color000000 svgShape"></path><polygon fill="#636363" points="733.459 1690.413 738.587 1688.002 736.548 1685.069 731.697 1686.489" class="color636363 svgShape"></polygon><path fill="#dedede" d="M733.506,1690.426c0,0-17.33-9.272-20.103-14.575c-0.652-1.247,0.277-9.445,0.277-9.445
												l21.514,16.657L733.506,1690.426z" class="colordedede svgShape"></path><path fill="#dedede" d="M793.766,1698.084c0.366-6.408-11.36-10.657-23.709-18.423
												c-7.279-4.578-12.363-12.808-19.84-16.605c-20.16-10.239-28.56-20.319-34.403-8.62
												c-5.844,11.699-2.626,20.618,17.534,30.857c9.088,4.616,16.689,15.172,28.141,19.871
												C773.756,1710.197,793.362,1705.156,793.766,1698.084z" class="colordedede svgShape"></path><path fill="#58595b" d="M794.057,1696.54c2.875-5.439-10.19-11.225-23.995-19.53
												c-6.945-4.178-17.787-13.615-20.67-19.932c-9.389-20.569-27.443-15.885-33.287-4.186
												c-5.844,11.699-2.38,20.006,17.779,30.245c9.088,4.616,18.479,16.081,30.114,20.293
												C774.849,1707.359,790.657,1702.972,794.057,1696.54z" class="color58595b svgShape"></path><path fill="#9cbad9" d="M722.475,1653.458c5.311,7.322,28.42,19.783,32.394,15.015
											c1.182-1.419-2.017-7.298-3.788-10.282c-3.581-6.033-10.443-14.44-13.954-18.198c-5.243-5.611-10.057-7.341-12.743-5.506
											C721.697,1636.32,714.671,1642.701,722.475,1653.458z" class="colord9b49c svgShape"></path><path fill="#adcef0" d="M723,1454.818c0,0-3.043,97.945,0.528,131.156c4.487,41.738-0.9,59.942,3.157,116.431
											l-27.865,2.021c-5.034-69.478-17.925-83.203-20.651-112.046c-3.066-32.44-11.515-129.732-11.515-129.732L723,1454.818z" class="colorf0c7ad svgShape"></path><g fill="#000000" class="color000000 svgShape"><path fill="#636363" d="M727.124,1730.37c-0.679-1.353-0.311-18.875-0.311-18.875s-30.23-14.638-32.878,13.647
												c-0.481,5.135,5.159,8.25,8.845,13.093C705.273,1737.696,727.124,1730.37,727.124,1730.37z" class="color636363 svgShape"></path><path fill="#dedede" d="M704.32,1711.156c-4.068,2.349-9.582,5.409-10.385,13.985
												c-0.481,5.135,5.159,8.25,8.845,13.093c0.016-0.011,0.044-0.026,0.063-0.038L704.32,1711.156z" class="colordedede svgShape"></path><path fill="#dedede" d="M745.477,1762.671c-2.458,5.238-24.344,6.809-34.834-4.526
													c-3.986-4.307-3.202-11.249-5.701-18.95c-4.772-14.702-11.423-11.937-10.704-19.613
													c2.648-28.285,31.36-14.116,31.36-14.116s4.057,16.233,10.684,31.969
													C741.733,1750.379,748.751,1755.697,745.477,1762.671z" class="colordedede svgShape"></path><path fill="#58595b" d="M744.642,1762.01c-6.73,3.569-25.004,1.929-33.796-7.571
													c-3.986-4.307-3.202-11.249-5.701-18.95c-4.771-14.702-11.423-11.937-10.704-19.614
													c2.648-28.285,31.36-14.116,31.36-14.116s4.057,16.233,10.684,31.969
													C741.936,1746.672,750.981,1758.648,744.642,1762.01z" class="color58595b svgShape"></path></g><path fill="#adcef0" d="M727.676,1726.521c9.866-1.519-0.158-23.645-2.049-31.684
											c-2.238-9.512-10.801-7.717-13.161-7.574c-1.18,0.072-2.493,0.255-3.901,0.546c-3.835,0.792-2.249,0.159-3.716,1.756
											c-1.908,2.076-5.359,5.228-5.941,9.37C694.418,1705.589,716.979,1728.305,727.676,1726.521z" class="colorf0c7ad svgShape"></path><path fill="#3d5cd1" d="M789.153,1367.748c2.09-11.624,13.872-99.939,13.555-137.58
										c-0.203-24.061-12.201-46.306-20.3-47.705c-0.268,0.598-5.582-2.843-9.526-4.802c-5.986-7.34-18.266-12.207-42.749-8.374
										c-9.206,1.441-16.28,4.523-21.629,8.06c-9.536,2.933-27.319,14.825-29.929,16.689
										c-17.484,12.494-28.666,25.743-31.869,48.061c-4.255,29.655-11.94,82.655-11.875,126.912
										c0.089,60.829-6.329,230.754-3.288,234.052c19.981,21.666,103.26,22.707,135.731,4.549l0.008,0.16
										c0.939-0.635,1.905-1.275,2.888-1.919c0.035-0.023,0.07-0.046,0.105-0.069c16.203-10.625,37.475-22.833,37.451-43.986
										C808.457,1546.023,779.703,1420.307,789.153,1367.748z" class="colord13d3d svgShape"></path><path fill="#ffffff" d="M758.626,1169.323l-3.519,39.166l18.688,25.461c1.503-13.658,6.915-31.724,5.031-41.695
										C777.054,1182.885,776.846,1173.789,758.626,1169.323z" class="colorffffff svgShape"></path><path fill="#9bbad9" d="M763.051,1205.116c1.007-3.873,12.923-49.735,12.923-49.735l-57.103-2.048
										c0,0-5.899,15.844-6.015,21.244C711.384,1191.216,754.062,1217.542,763.051,1205.116z" class="colord9b49b svgShape"></path><path fill="#f0f0f0" d="M712.809,1174.81c-7.029,3.648-6.951,3.028-12.245,5.867
										c-4.335,2.325-10.465,5.154-10.404,5.872c2.913,3.656,28.126,35.645,39.671,54.276l25.359-32.419
										C731.396,1203.384,713.987,1185.342,712.809,1174.81z" class="colorf0f0f0 svgShape"></path><g fill="#000000" class="color000000 svgShape"><rect width="2.305" height="31.605" x="763.922" y="1106.216" fill="#4d4d4d" transform="rotate(-87.278 765.005 1121.976)" class="color4d4d4d svgShape"></rect><path fill="#adcef0" d="M683.716,1129.86c4.594,18.364,16.921,29.633,30.709,42.762
											c12.93,12.312,34.283,17.75,41.889,17.506c20.169-0.645,14.55-7.607,18.223-17.596
											c5.348-14.543,4.314-32.963,0.684-43.316c-4.883-13.926-4.822-45.525-15.148-53.506
											c-14.566-11.257-35.583-11.993-49.447-6.084C686.736,1079.81,675.083,1095.351,683.716,1129.86z" class="colorf0c7ad svgShape"></path><path fill="#ffffff" d="M740.945,1107.423l5.73-1.927c6.067,3.544,14.205,3.683,22.698,3.239
											C759.995,1110.752,747.189,1109.533,740.945,1107.423z" class="colorffffff svgShape"></path><path fill="#ffffff" d="M739.207,1107.305l6.379-1.331c6.041,4.568,14.734,5.755,23.88,6.364
											C759.171,1113.3,745.62,1110.361,739.207,1107.305z" class="colorffffff svgShape"></path><path fill="#4d4d4d" d="M749.312 1147.245c-1.022.354-2.02.315-2.882-.136-1.185-.621-1.875-1.909-1.947-3.629l-.094-2.315c-.133-3.067 1.799-6.754 4.393-8.391l7.502-4.399c1.454-.915 2.911-1.075 4.095-.456 1.184.62 1.874 1.907 1.945 3.622l.098 2.314c.125 3.072-1.819 6.766-4.428 8.412l-7.514 4.405C750.09 1146.919 749.699 1147.111 749.312 1147.245zM758.232 1129.977c-.231.08-.477.2-.732.361l-.031.018-7.487 4.388c-1.863 1.177-3.383 4.081-3.29 6.323l.095 2.317c.038.846.298 1.461.718 1.68.418.216 1.074.083 1.777-.363l7.514-4.405c1.878-1.187 3.414-4.101 3.325-6.345l-.098-2.311c-.038-.846-.297-1.458-.716-1.676C759.035 1129.822 758.661 1129.829 758.232 1129.977zM768.451 1136.634c-1.026.355-2.024.316-2.882-.136-1.185-.622-1.876-1.911-1.943-3.63l-.098-2.311c-.126-3.074 1.807-6.759 4.397-8.392l7.498-4.397c1.467-.905 2.914-1.078 4.099-.457 1.184.619 1.875 1.906 1.945 3.622l.094 2.315c.134 3.069-1.815 6.764-4.425 8.408l-7.518 4.406C769.228 1136.309 768.838 1136.5 768.451 1136.634zM777.374 1119.365c-.231.08-.48.204-.736.365l-.031.018-7.483 4.387c-1.863 1.177-3.383 4.081-3.294 6.325l.098 2.312c.036.852.295 1.466.714 1.684.416.223 1.071.087 1.777-.363l7.518-4.406c1.883-1.186 3.414-4.099 3.322-6.341l-.095-2.317c-.038-.844-.296-1.454-.716-1.674C778.178 1119.21 777.803 1119.217 777.374 1119.365z" class="color4d4d4d svgShape"></path><rect width="3.26" height="2.307" x="761.531" y="1131.114" fill="#4d4d4d" transform="rotate(-31.559 763.106 1132.184)" class="color4d4d4d svgShape"></rect><path fill="#f2f2f2" d="M737.679,1063.137c-54.633-1.881-63.064,41.631-62.378,53.331
											c1.117,19.06,13.906,40.478,27.179,52.843c6.276,5.847,12.661,9.669,17.972,10.261c6.424,1.523,5.445-5.076-3.533-16.567
											c-9.495-5.29-17.26-15.003-12.428-21.073c7.646-9.603,10.041,1.112,18.356-0.012c4.274-7.36,9.06-27.955,2.671-37.788
											c25.827,8.551,57.908,3.611,54.928-7.781C779.121,1089.913,760.758,1063.932,737.679,1063.137z" class="colorf2f2f2 svgShape"></path><polygon fill="#4d4d4d" points="745.486 1142.269 716.822 1140.723 713.315 1138.634 745.594 1139.966" class="color4d4d4d svgShape"></polygon><ellipse cx="693.177" cy="1082.714" fill="#f2f2f2" rx="42.088" ry="23.172" transform="rotate(-49.238 693.248 1082.78)" class="colorf2f2f2 svgShape"></ellipse></g><g fill="#000000" class="color000000 svgShape"><path fill="#00166b" d="M617.09,1317.154c2.457-19.605,19.411-36.032,24.608-69.125
								c3.873-24.639,11.192-37.464,26.226-43.983c14.493-6.281,26.187,27.166,23.152,49.76
								c-5.265,39.182-7.999,35.367-11.502,64.061C677.722,1347.686,622.767,1366.862,617.09,1317.154z" class="color6b0008 svgShape"></path><path fill="#abcced" d="M650.692,1338.838c-11.677,6.355-28.543-14.378-25.867-29.502l14.972-34.96l35.861,3.741
								C675.659,1278.117,667.84,1329.492,650.692,1338.838z" class="coloredc5ab svgShape"></path><path fill="#3551b8" d="M617.09,1317.154c1.099-18.023,18.749-38.593,24.608-69.125
								c4.708-24.491,11.192-37.464,26.226-43.983c14.493-6.281,26.187,27.166,23.152,49.76
								c-5.265,39.182-7.999,35.367-11.502,64.061C668.099,1294.473,618.792,1305.412,617.09,1317.154z" class="colorb83535 svgShape"></path></g><g fill="#000000" class="color000000 svgShape"><path fill="#9fbede" d="M776.629,1274.441l46.446,51.749c15.563,11.104,36.54-22.33,23.339-28.652
								c-19.507-10.816-36.881-27.766-52.065-38.977L776.629,1274.441z" class="colordeb89f svgShape"></path><path fill="#9fbede" d="M764.089,1232.954c1.871,3.704,7.103,8,7.098,9.552c-0.199,0.328-6.226-1.336-12.508-5.826
								c-7.454-5.307-9.758-7.414-11.383-7.541c-8.672-2.919-11.614,15.097-11.772,17.534c-0.621,9.052,8.16,19.888,13.664,24.128
								c6.166,4.753,15.89,5.913,21.08,5.662c3.422-0.152,15.954,4.816,18.392,5.853c10.6,4.492,11.432-16.162,9.046-20.428
								c-2.277-4.046-3.881-6.147-4.36-8.595c-1.638-8.481-10.395-16.908-12.55-17.739c-4.721-1.826-10.697-8.293-12.609-11.274
								c-0.505-0.788-1.556-1.062-2.339-0.542C763.452,1225.329,761.721,1228.275,764.089,1232.954z" class="colordeb89f svgShape"></path></g><g fill="#000000" class="color000000 svgShape"><path fill="#abcced" d="M736.927,1280.994l-86.315,59.469c-12.435,8.357-27.933-16.425-11.958-32.036
								c19.039-11.618,65.208-30.718,79.906-42.564L736.927,1280.994z" class="coloredc5ab svgShape"></path><path fill="#abcced" d="M750.309,1234.614c-1.675,3.791-6.682,8.343-6.597,9.892
								c0.218,0.323,6.148-1.655,12.193-6.454c7.169-5.691,9.355-7.91,10.976-8.125c8.514-3.36,12.375,14.48,12.667,16.907
								c1.085,9.002-7.13,20.284-12.408,24.798c-5.918,5.063-15.554,6.728-20.76,6.751c-3.422,0.018-15.675,5.626-18.061,6.786
								c-10.352,5.038-12.257-15.547-10.082-19.937c2.057-4.153,3.551-6.327,3.906-8.804c1.2-8.561,9.509-17.426,11.614-18.362
								c4.614-2.066,10.259-8.83,12.019-11.917c0.455-0.807,1.493-1.13,2.296-0.651
								C750.556,1226.955,752.434,1229.811,750.309,1234.614z" class="coloredc5ab svgShape"></path></g><path fill="#adcef0" d="M788.85,1182.254c-3.233,4.525-3.958,10.273-3.758,11.677
							c0.634,4.447-1.773,11.882-3.257,14.659c-0.391,0.731-0.144,1.666,0.594,2.044c2.274,1.168,5.305,1.226,7.904-2.639
							c2.055-3.056,3.106-8.971,4.31-9.638c0.344,0.011,1.666,5.395,0.923,12.208c-0.881,8.078-0.459,6.989,0.146,8.309
							c1.502,7.979,15.639,6.3,17.596,5.372c3.482-1.651,4.654-8.13,4.968-12.547
							C818.779,1204.623,796.142,1172.048,788.85,1182.254z" class="colorf0c7ad svgShape"></path></g></g></g></g></switch></svg>