<svg xmlns="http://www.w3.org/2000/svg" xmlns:xlink="http://www.w3.org/1999/xlink" data-name="Layer 1" viewBox="0 0 854.553 861.608" id="Softwareundermaintenance"><defs><radialGradient id="a" cx="184.874" cy="1096.63" r="98.088" gradientTransform="rotate(-21.192 -931.87 871.883)" gradientUnits="userSpaceOnUse"><stop offset="0" stop-color="#425497" class="stopColor8c4297 svgShape"></stop><stop offset="1" stop-color="#35478d" class="stopColor55358d svgShape"></stop></radialGradient><radialGradient id="f" cx="-1618.164" cy="2220.222" r="239.614" gradientTransform="rotate(-96.932 -1436.954 746.384)" xlink:href="#a"></radialGradient><radialGradient id="c" cx="-752.232" cy="63.404" r="32.205" gradientTransform="rotate(15.195 -1030.01 4177.334)" gradientUnits="userSpaceOnUse"><stop offset="0" stop-color="#3497fb" class="stopColorfbe034 svgShape"></stop><stop offset=".149" stop-color="#3e65fa" class="stopColorfac63e svgShape"></stop><stop offset=".319" stop-color="#466bf8" class="stopColorf8af46 svgShape"></stop><stop offset=".504" stop-color="#4c70f8" class="stopColorf89f4c svgShape"></stop><stop offset=".714" stop-color="#5073f7" class="stopColorf79650 svgShape"></stop><stop offset="1" stop-color="#5174f7" class="stopColorf79351 svgShape"></stop></radialGradient><radialGradient id="i" cx="-754.173" cy="63.761" r="29.725" xlink:href="#c"></radialGradient><radialGradient id="j" cx="-758.249" cy="68.972" r="30.114" xlink:href="#c"></radialGradient><radialGradient id="k" cx="-756.609" cy="64.441" r="29.138" xlink:href="#c"></radialGradient><radialGradient id="l" cx="-772.756" cy="49.968" r="43.836" xlink:href="#c"></radialGradient><radialGradient id="m" cx="3373.54" cy="3072.401" r="47.585" gradientTransform="matrix(.5522 -.4651 .4819 .7815 -2661.21 -259.746)" xlink:href="#c"></radialGradient><radialGradient id="n" cx="3371.315" cy="3072.895" r="44.371" gradientTransform="matrix(.5522 -.4651 .4819 .7815 -2661.21 -259.746)" xlink:href="#c"></radialGradient><radialGradient id="o" cx="3365.525" cy="3077.997" r="46.26" gradientTransform="matrix(.5522 -.4651 .4819 .7815 -2661.21 -259.746)" xlink:href="#c"></radialGradient><radialGradient id="p" cx="3371.315" cy="3072.894" r="42.395" gradientTransform="matrix(.5522 -.4651 .4819 .7815 -2661.21 -259.746)" xlink:href="#c"></radialGradient><radialGradient id="q" cx="3346.022" cy="3053.632" r="64.925" gradientTransform="matrix(.5522 -.4651 .4819 .7815 -2661.21 -259.746)" xlink:href="#c"></radialGradient><radialGradient id="r" cx="-82.228" cy="-311.617" r="25.077" gradientTransform="rotate(11.564 -2246.719 3187.104)" xlink:href="#c"></radialGradient><radialGradient id="s" cx="-83.401" cy="-311.356" r="23.383" gradientTransform="rotate(11.564 -2246.719 3187.104)" xlink:href="#c"></radialGradient><radialGradient id="t" cx="-86.453" cy="-308.668" r="24.379" gradientTransform="rotate(11.564 -2246.719 3187.104)" xlink:href="#c"></radialGradient><radialGradient id="u" cx="-83.401" cy="-311.356" r="22.34" gradientTransform="rotate(11.564 -2246.719 3187.104)" xlink:href="#c"></radialGradient><radialGradient id="v" cx="-96.731" cy="-321.507" r="34.215" gradientTransform="rotate(11.564 -2246.719 3187.104)" xlink:href="#c"></radialGradient><radialGradient id="w" cx="898.928" cy="1049.312" r="21.273" gradientTransform="rotate(-16.487 -2519.5 3244.041)" xlink:href="#c"></radialGradient><radialGradient id="x" cx="897.933" cy="1049.534" r="19.836" gradientTransform="rotate(-16.487 -2519.5 3244.041)" xlink:href="#c"></radialGradient><radialGradient id="y" cx="895.345" cy="1051.814" r="20.681" gradientTransform="rotate(-16.487 -2519.5 3244.041)" xlink:href="#c"></radialGradient><radialGradient id="z" cx="897.933" cy="1049.534" r="18.951" gradientTransform="rotate(-16.487 -2519.5 3244.041)" xlink:href="#c"></radialGradient><radialGradient id="A" cx="886.626" cy="1040.922" r="29.024" gradientTransform="rotate(-16.487 -2519.5 3244.041)" xlink:href="#c"></radialGradient><radialGradient id="e" cx="760.432" cy="209.589" r="215.859" gradientUnits="userSpaceOnUse"><stop offset=".103" stop-color="#172f89" class="stopColor175689 svgShape"></stop><stop offset="1" stop-color="#021b79" class="stopColor073d6c svgShape"></stop></radialGradient><radialGradient id="D" cx="655.833" cy="255.436" r="62.177" xlink:href="#e"></radialGradient><linearGradient id="b" x1="299.179" x2="127.102" y1="764.376" y2="479.787" gradientUnits="userSpaceOnUse"><stop offset="0" stop-color="#bdddfd" class="stopColorbddcfd svgShape"></stop><stop offset="1" stop-color="#0575e6" class="stopColor5f98ed svgShape"></stop></linearGradient><linearGradient id="d" x1="768.364" x2="136.191" y1="970.404" y2="-111.709" gradientUnits="userSpaceOnUse"><stop offset="0" stop-color="#bdddfd" class="stopColorbddcfd svgShape"></stop><stop offset=".69" stop-color="#d8e6f4" class="stopColorebf4d8 svgShape"></stop><stop offset="1" stop-color="#ffffff" class="stopColorffffff svgShape"></stop></linearGradient><linearGradient id="g" x1="239.327" x2="665.444" y1="111.538" y2="111.538" xlink:href="#b"></linearGradient><linearGradient id="h" x1="243.729" x2="650.973" y1="713.088" y2="713.088" xlink:href="#b"></linearGradient><linearGradient id="B" x1="624.273" x2="-7.902" y1="1054.583" y2="-27.532" xlink:href="#d"></linearGradient><linearGradient id="C" x1="906.941" x2="274.767" y1="889.447" y2="-192.668" xlink:href="#d"></linearGradient><linearGradient id="E" x1="60.835" x2="189.756" y1="381.851" y2="381.851" xlink:href="#b"></linearGradient><linearGradient id="F" x1="33.371" x2="207.423" y1="359.775" y2="478.589" xlink:href="#d"></linearGradient></defs><path fill="#d8e9fa" d="M854.553,503.6797c-2.1802,119.2338-86.9366,227.6508-203.5797,292.6962q-21.27465,11.8536-43.8886,21.7401c-166.0151,72.5155-378.4031,59.7348-514.4965-117.0961-148.5495-194.4041-113.5767-565.4446,70.7025-630.7497,163.6189-57.9652,266.9848,93.3921,433.7549,148.8742C763.77326,274.6482,848.72416,383.7995,854.553,503.6797Z" class="colord8f0fa svgShape"></path><path fill="url(#b)" d="M244.84206,616.4414c-2.9247,23.0432-4.9704,13.1738,1.8926,33.4515,6.8837,20.2497-.4933,16.9889,17.6136,22.375,18.1069,5.3852-4.4202,20.5725-2.5472,32.7017a7.35341,7.35341,0,0,0,.2192,1.0549c2.117,10.582,10.7589,9.9635,26.1437,20.561.028.0207.028.0207.0559.0425.6122.4209,1.2524.8635,1.8988,1.3558,4.0861,2.9764,6.3045,6.1308,7.2301,9.2334,3.021,9.8043-6.4586,18.9332-6.4586,18.9332l-8.8414,8.0596s-36.7713-9.1072-37.2243-26.0175c-.455-16.9104-7.8734-25.4871-22.5374-25.9431-13.6247-.4199,1.2731-13.2875,2.3052-23.338a8.45485,8.45485,0,0,0-.0268-2.2411c-.7995-5.8929-5.6044-5.2414-11.1488-4.8422-4.0727.2762-8.5694.4065-12.1912-2.3042-4.0428-3.0323-2.6311-6.7554-1.8761-11.5986.8356-5.3593.8481-12.1447-8.5281-20.8341-17.7459-16.4801-51.943-64.9576-1.6009-97.7771C218.96936,529.9196,247.73886,593.3755,244.84206,616.4414Z"></path><g opacity=".1" fill="#000000" class="color000000 svgShape"><path fill="#ffffff" d="M193.44606,573.6552c-6.2559,5.7357-4.2578,15.2825.0724,21.5963,3.3943,4.9477,8.2241,8.6822,11.9131,13.3858,4.2258,5.3872,5.4906,11.2904,6.4814,17.8928.8159,5.4368,1.9432,10.55,4.9249,15.2525,3.3125,5.2217,7.9282,9.4165,12.003,14.0156,8.0378,9.0762,11.6451,20.0512,13.8222,31.7863,2.2514,12.1313,3.3849,24.4808,7.682,36.1332.3548.9628,1.7716.2275,1.42-.724-7.0595-19.1421-5.0262-41.0952-15.1604-59.1845-5.6768-10.1311-16.6146-16.7356-20.8807-27.6734-1.9919-5.1048-2.148-10.6875-3.2557-16.0023a29.33133,29.33133,0,0,0-5.8598-12.5718c-4.1741-5.2414-9.917-9.3927-13.0931-15.388-2.8844-5.4461-3.9734-12.7766,1.0063-17.3426a.7973.7973,0,0,0-1.0756-1.1759Z" class="colorffffff svgShape"></path></g><path fill="#1f2023" d="M294.51816,731.3005l.0414.0579a126.43637,126.43637,0,0,1,5.5423,12.9648c-.0889,10.3452-11.9865,16.2278-11.9865,16.2278l-10.9595,5.048s-32.5641-19.9768-27.8388-36.37c4.7243-16.3932.2121-26.9018-13.7446-31.8164-12.9679-4.5619,5.2797-12.3815,9.3389-21.7287a223.83511,223.83511,0,0,0,17.7718,15.6072,116.56323,116.56323,0,0,1,12.9814,12.2657A120.04224,120.04224,0,0,1,294.51816,731.3005Z" opacity=".1" class="color231f20 svgShape"></path><path fill="url(#a)" d="M268.35166,715.2786a128.83888,128.83888,0,0,1,16.7025,40.6712,97.51945,97.51945,0,0,1,2.5162,17.7077l-4.6694-2.8617a22.87092,22.87092,0,0,1-5.7461,2.2991c-35.5488,9.1786-95.4687-61.5374-128.5334-85.3883-23.0969-16.6125-16.2743-29.7748-14.1759-38.4405,1.1149-4.4864.9443-7.7658-5.1069-9.7412-17.9145-5.8339,3.1078-6.2373-18.0603-18.0624-21.1589-11.8748-19.0863-29.9331,4.0106-46.348,23.0691-16.3943,37.1001-3.2547,43.1151,28.723,7.1288,37.7745,33.8858,4.3199,44.6581,29.5546s12.8645,31.4326,39.7973,53.1903A118.22548,118.22548,0,0,1,268.35166,715.2786Z"></path><path fill="#1f2023" d="M268.35166,715.2786a128.83888,128.83888,0,0,1,16.7025,40.6712,97.51945,97.51945,0,0,1,2.5162,17.7077l-4.6694-2.8617a22.87092,22.87092,0,0,1-5.7461,2.2991c-.7374-3.4036-.3847-7.921,2.3352-13.8429,8.1031-17.7232-16.5131-1.9825-14.8677-24.49C265.73516,719.4278,265.184,722.7342,268.35166,715.2786Z" opacity=".1" class="color231f20 svgShape"></path><g opacity=".1" fill="#000000" class="color000000 svgShape"><path fill="#ffffff" d="M118.58086,594.056c.1458,11.7258,9.1134,20.1588,18.4772,25.9255,6.1494,3.7873,12.7445,6.9251,18.4109,11.4549,6.6851,5.3437,10.2014,12.548,13.8874,20.0646a62.37871,62.37871,0,0,0,12.0557,17.293c5.109,5.0801,10.8654,9.4444,16.1533,14.3269,11.8531,10.943,20.62,24.3566,30.8183,36.7237,4.9177,5.9632,10.338,11.6679,16.7759,16.0116,6.6065,4.4574,17.4792,6.2238,20.8714,14.0238a.89188.89188,0,0,0,1.6309-.7198c-2.2132-5.0903-6.8651-7.4297-11.7124-9.5985a62.51213,62.51213,0,0,1-19.4741-13.3464c-10.2118-10.3348-17.9125-22.8477-27.451-33.772a150.04746,150.04746,0,0,0-15.3569-15.1233c-6.1236-5.262-12.545-10.3989-17.2672-17.0261-4.4512-6.2487-6.9033-13.604-10.8995-20.1154a41.99336,41.99336,0,0,0-12.7228-12.9048c-12.334-8.3068-32.2031-15.2246-32.4234-33.0398-.0145-1.1356-1.7882-1.3248-1.7737-.1779Z" class="colorffffff svgShape"></path></g><path fill="url(#f)" d="M267.78706,800.4921s-10.7362,14.6795-30.4606-1.1945c-19.7233-15.8741-7.7627,20.165-35.5612,10.8954-27.7984-9.2676-6.1835-1.1739-46.8072-26.7385-40.6226-25.5645-57.5071,4.2506-68.2928-28.7054-10.7868-32.9561,13.7291-42.7345,50.097-37.61,36.3679,5.1214,32.2766-2.1449,54.9929,4.2061,22.7154,6.3511-3.7231,24.9834,24.8531,27.027,28.5772,2.0436,43.84,32.8536,46.4814,39.7901C265.73206,795.0977,267.78706,800.4921,267.78706,800.4921Z"></path><g opacity=".1" fill="#000000" class="color000000 svgShape"><path fill="#ffffff" d="M102.771,745.7504c13.1458-1.0311,26.5377-1.9701,39.5967.4096a58.43618,58.43618,0,0,1,18.4058,6.4183c6.5972,3.7386,11.8541,9.2489,17.991,13.6246,9.733,6.9385,21.3264,8.9594,32.6396,11.9513,14.6279,3.869,27.2731,11.2781,36.9998,22.9791.9453,1.1387,2.8203-.2193,1.8657-1.3683a69.89368,69.89368,0,0,0-32.1359-22.0493c-14.2927-4.6549-28.8109-6.0304-40.9991-15.6589-10.6244-8.3926-19.9323-15.3787-33.53-18.0231-13.5026-2.6269-27.4417-1.6548-41.0529-.5864a1.15746,1.15746,0,0,0,.2193,2.3031Z" class="colorffffff svgShape"></path></g><path fill="#1f2023" d="M285.05416,755.9498a97.51945,97.51945,0,0,1,2.5162,17.7077l-4.6694-2.8617c-34.4888,19.5455-99.3522-57.8907-134.2795-83.0892-23.0969-16.6125-16.2743-29.7748-14.1759-38.4405,41.3808-7.2673,51.0413,25.3722,66.2938,47.0647,16.0726,22.8571,20.6366-5.9715,32.2207,19.3025,11.5345,25.2646,28.0198-6.5,35.5705,20.7814C271.31466,746.5706,277.83436,752.3125,285.05416,755.9498Z" opacity=".1" class="color231f20 svgShape"></path><path fill="#83b0dd" d="M277.309,787.1953s-.8046-11.0826-25.6639-4.473c-24.8613,6.6086-37.8995,42.1781-51.6048,8.3306-13.7054-33.8486-19.4855-11.1478-50.5087-39.8067-31.0231-28.6599-7.1215-45.4668-35.0751-49.8829-27.9526-4.4161-50.1829-33.8238-2.9061-46.0998s57.1327,22.7246,73.2084,45.5868c16.0768,22.8633,20.6469-5.9756,32.2001,19.2911,11.5541,25.2657,28.0353-6.5124,35.586,20.7917s41.842,22.6057,45.2435,31.8619Z" class="color8396dd svgShape"></path><g opacity=".1" fill="#000000" class="color000000 svgShape"><path fill="#ffffff" d="M107.156,678.0636c7.8021.3465,16.0861.7302,23.0566,4.6581,7.3398,4.1368,11.9813,11.548,15.9103,18.745,6.2859,11.5118,12.2057,24.9616,25.6276,29.4646,3.4698,1.1635,7.1588,1.7581,10.4569,3.3901,3.9569,1.9588,7.0306,5.1731,9.8353,8.5074,4.11,4.8825,7.8786,10.2821,13.4799,13.5885,12.4643,7.3552,26.6008,1.8016,39.9783,2.691,15.9144,1.058,28.511,10.612,39.9546,20.8837.8532.7653,1.9867-.6102,1.1334-1.3765-9.344-8.3854-19.4358-16.5173-31.8039-19.7937-6.8651-1.8192-13.7405-1.7633-20.7524-1.0259-7.8093.8201-16.0054,1.7054-23.5675-1.0187-8.0307-2.8937-12.547-9.9264-17.9063-16.0789a30.69966,30.69966,0,0,0-15.3394-10.0307c-8.9541-2.5969-15.1945-6.5031-20.5714-14.2628-4.3654-6.3004-7.3997-13.3661-11.3173-19.9302-3.869-6.4814-8.7339-12.6235-15.6331-16.0344-7.0068-3.4635-15.0281-3.812-22.6905-4.1523-1.1449-.0507-.9815,1.7261.1489,1.7757Z" class="colorffffff svgShape"></path></g><path fill="url(#d)" d="M677.33316,57.2961V780.595c-.2161.1303-.4095.2596-.604.3888a497.39955,497.39955,0,0,1-46.7823,26.4675c-121.6725,60.5125-272.9429,74.6532-401.2653,8.679V57.2961a45.38639,45.38639,0,0,1,45.3366-45.3366h357.9795a45.43751,45.43751,0,0,1,45.3355,45.3366Z"></path><path fill="#16245b" d="M631.39266,0H273.39136A56.66267,56.66267,0,0,0,216.722,56.6694V809.7182c.907.5182,1.813,1.0146,2.6983,1.4893,2.872,1.5761,5.7429,3.1088,8.6356,4.5981V56.6694a45.39989,45.39989,0,0,1,45.3355-45.3356h358.0013a45.47526,45.47526,0,0,1,45.3365,45.3356V780.9838c.1945-.1292.3879-.2585.604-.3888q5.40795-3.49665,10.7299-7.0802V56.6694A56.66352,56.66352,0,0,0,631.39266,0Z" class="color28165b svgShape"></path><path fill="url(#g)" d="M665.444,65.7683V197.0299c-2.9423,1.8668-6.0636,3.3385-8.6481,3.3385-2.6186,0-8.8631-4.8091-13.0258-7.9676-8.253-6.351-17.6539-13.5626-29.0654-13.5626-10.2262,0-18.624,6.4235-26.7332,12.666-5.1669,3.9475-11.5904,8.8642-15.358,8.8642-3.1223,0-9.402-4.8453-13.9949-8.3616-8.074-6.1722-17.1885-13.1686-28.0973-13.1686-10.55,0-19.5207,6.8527-27.3786,12.9173-5.0242,3.84-11.2677,8.6129-14.7488,8.6129-3.3726,0-9.5447-4.7367-14.5327-8.5405-7.9303-6.1008-16.9372-12.9897-27.5948-12.9897-10.765,0-19.8433,6.9613-27.845,13.061-4.9155,3.7677-11.0515,8.4692-14.2824,8.4692-3.6238,0-9.9397-4.8453-15.0342-8.7567-7.8228-5.9922-16.6859-12.7735-27.0932-12.7735-11.0877,0-20.3097,7.0688-28.4552,13.3123-4.5215,3.4812-10.7288,8.2179-13.636,8.2179-4.1254,0-10.4413-4.8453-16.0395-9.1145-7.9303-6.1008-16.1833-12.4157-26.0879-12.4157-12.1643,0-22.3554,7.8217-30.537,14.1014-2.2246,1.723-5.3459,4.1265-7.9293,5.7409V65.7683A43.09393,43.09393,0,0,1,282.387,22.7081h339.9967A43.09463,43.09463,0,0,1,665.444,65.7683Z"></path><path fill="url(#h)" d="M650.97326,796.3759q-21.27465,11.8536-43.8886,21.7401H244.42016l-.6909-168.3472a40.29017,40.29017,0,0,1,40.0683-40.4562l84.1949-.3237,153.2343-.605,88.7506-.3237a40.22139,40.22139,0,0,1,40.392,40.0683Z"></path><path fill="#16245b" d="M629.94686,807.4513c-121.6725,60.5125-272.9429,74.6532-401.2653,8.679-.2151-.1086-.4095-.2161-.6257-.3247-2.8927-1.4893-5.7636-3.022-8.6356-4.5981v-3.7562Z" class="color28165b svgShape"></path><path fill="#16245b" d="M503.28746,828.7373a50.54747,50.54747,0,0,1-5.5051,23.0132c-5.2248.9504-10.4703,1.8357-15.7169,2.6124A459.66847,459.66847,0,0,1,427.9,859.3716c-5.3324.1727-10.6431.2585-15.9754.2379a50.89951,50.89951,0,1,1,91.3629-30.8722Z" class="color28165b svgShape"></path><path fill="#35478d" d="M491.60816,828.7373a38.98218,38.98218,0,0,1-9.5427,25.6256A459.66847,459.66847,0,0,1,427.9,859.3716a39.22168,39.22168,0,1,1,63.7082-30.6343Z" opacity=".3" class="color55358d svgShape"></path><g opacity=".6" fill="#000000" class="color000000 svgShape"><path fill="#ffffff" d="M639.42946,48.7639h-1.5461V46.559a1.40478,1.40478,0,0,0-1.4065-1.4066H605.069a1.40386,1.40386,0,0,0-1.4055,1.4066V57.4119a1.40953,1.40953,0,0,0,1.4055,1.4055h31.4079a1.41046,1.41046,0,0,0,1.4065-1.4055v-3.507h1.5461a1.22437,1.22437,0,0,0,1.2214-1.2214V49.9863A1.22458,1.22458,0,0,0,639.42946,48.7639Zm-28.3321,7.9179h-5.2465V46.9892h5.2465Zm6.1608,0h-5.2466V46.9892h5.2466Zm6.1597,0h-5.2465V46.9892h5.2465Zm6.1608,0h-5.2465V46.9892h5.2465Zm6.1597,0h-5.2465V46.9892h5.2465Z" class="colorffffff svgShape"></path><rect width="6.022" height="18.37" x="279.779" y="39.939" fill="#ffffff" class="colorffffff svgShape"></rect><rect width="6.022" height="12.346" x="271.949" y="45.962" fill="#ffffff" class="colorffffff svgShape"></rect><rect width="6.022" height="6.323" x="264.12" y="51.985" fill="#ffffff" class="colorffffff svgShape"></rect><path fill="#ffffff" d="M296.64446 55.1977h-1.8439v2.4231h-.9484V55.1977h-5.2041V54.512l4.8876-6.1111h1.0539l-4.716 5.9529h4.0044V52.2202h.9226v2.1336h1.8439zM304.95436 53.0103h.936v3.5174a4.49753 4.49753 0 01-1.5276.8697 5.68754 5.68754 0 01-1.8564.302 5.08473 5.08473 0 01-2.4903-.606 4.46921 4.46921 0 01-1.7385-1.6785 4.88163 4.88163 0 010-4.8081 4.4717 4.4717 0 011.7385-1.6795 5.132 5.132 0 012.5027-.605 5.38933 5.38933 0 011.9361.3351 3.843 3.843 0 011.4882.9949l-.606.6184a3.79448 3.79448 0 00-2.779-1.0797 4.14534 4.14534 0 00-2.0218.4933 3.63774 3.63774 0 00-1.4159 1.3704 3.78586 3.78586 0 00-.5129 1.9556 3.7478 3.7478 0 00.5129 1.9495 3.7 3.7 0 001.4097 1.3703 4.05358 4.05358 0 002.0146.5006 4.00842 4.00842 0 002.4097-.7115z" class="colorffffff svgShape"></path></g><g opacity=".2" fill="#000000" class="color000000 svgShape"><path fill="#35478d" d="M753.24086 507.3283a1.8538 1.8538 0 101.8533 1.8533A1.85379 1.85379 0 00753.24086 507.3283zM753.24086 496.5736a1.8538 1.8538 0 101.8533 1.8543A1.85471 1.85471 0 00753.24086 496.5736zM753.24086 485.8199a1.8538 1.8538 0 101.8533 1.8543A1.85471 1.85471 0 00753.24086 485.8199zM753.24086 475.0662a1.8538 1.8538 0 101.8533 1.8543A1.85471 1.85471 0 00753.24086 475.0662zM753.24086 464.3125a1.85385 1.85385 0 101.8533 1.8544A1.85473 1.85473 0 00753.24086 464.3125zM753.24086 453.5588a1.85385 1.85385 0 101.8533 1.8533A1.85385 1.85385 0 00753.24086 453.5588z" class="color55358d svgShape"></path><circle cx="744.087" cy="495.046" r="1.854" fill="#35478d" class="color55358d svgShape"></circle><path fill="#35478d" d="M744.08706 482.438a1.85385 1.85385 0 101.8543 1.8544A1.85464 1.85464 0 00744.08706 482.438zM744.08706 471.6843a1.85385 1.85385 0 101.8543 1.8544A1.85464 1.85464 0 00744.08706 471.6843zM744.08706 460.9307a1.8538 1.8538 0 101.8543 1.8543A1.85456 1.85456 0 00744.08706 460.9307zM744.08706 450.177a1.8538 1.8538 0 101.8543 1.8533A1.8537 1.8537 0 00744.08706 450.177zM744.08706 439.4233a1.8538 1.8538 0 101.8543 1.8533A1.8537 1.8537 0 00744.08706 439.4233z" class="color55358d svgShape"></path></g><path fill="#35478d" d="M190.09946,114.8663a7.6526,7.6526,0,1,1,7.6541-7.6531A7.66164,7.66164,0,0,1,190.09946,114.8663Zm0-12.3567a4.7041,4.7041,0,1,0,4.7056,4.7036A4.71022,4.71022,0,0,0,190.09946,102.5096Z" opacity=".2" class="color55358d svgShape"></path><path fill="url(#c)" d="M345.38156,287.8954c-5.6251,20.7111-25.3236,30.9321-41.6196,23.8612-14.1542-6.1411-20.8031-23.554-16.4491-39.5853,4.355-16.0323,18.9022-27.7043,34.225-25.8645C339.17936,248.4259,351.00656,267.1844,345.38156,287.8954Z"></path><path fill="#3497fb" d="M343.53446,287.8106c-5.5868,20.5714-25.0496,30.7408-41.1398,23.7309-13.9866-6.0935-20.5393-23.4062-16.2081-39.3536s18.7378-27.5503,33.8796-25.7084C337.48436,248.5976,349.12226,267.2402,343.53446,287.8106Z" class="colorfbe034 svgShape"></path><path fill="url(#i)" d="M341.06166,287.1363c-5.1597,18.9963-23.1011,28.5586-38.0702,22.2086-13.1365-5.5723-19.3625-21.7608-15.2918-36.7444,4.0696-14.9846,17.6249-25.7838,31.7698-23.9243C335.58756,250.7943,346.22026,268.141,341.06166,287.1363Z"></path><path fill="#3497fb" d="M339.56516,286.7319a33.26972,33.26972,0,0,1-1.389,4.082c-3.8389,9.3751-11.2428,15.8472-19.502,18.1018a23.45094,23.45094,0,0,1-15.3166-.9256c-12.607-5.26-18.622-20.7473-14.7147-35.131a33.83722,33.83722,0,0,1,3.3529-8.0948,31.932,31.932,0,0,1,6.8237-8.3181,25.79446,25.79446,0,0,1,20.2818-6.4224C334.42826,252.1315,344.46526,268.6902,339.56516,286.7319Z" class="colorfbe034 svgShape"></path><path fill="url(#j)" d="M338.17616,290.8139c-3.8389,9.3751-11.2428,15.8472-19.502,18.1018-13.0155-12.8987-23.3814-28.2639-26.6784-44.1514a31.932,31.932,0,0,1,6.8237-8.3181C306.29576,271.4401,319.83976,282.7885,338.17616,290.8139Z" opacity=".2"></path><path fill="url(#k)" d="M291.52726,265.602a34.38806,34.38806,0,0,0-2.8855,7.255c-3.9072,14.3838,2.1098,29.8762,14.7168,35.1362a23.11058,23.11058,0,0,0,7.9944,1.7674C300.59206,297.2684,292.37526,281.2972,291.52726,265.602Z" opacity=".2"></path><g opacity=".3" fill="#000000" class="color000000 svgShape"><path fill="url(#l)" d="M306.65976,291.7509a14.10341,14.10341,0,0,1-3.5132-2.0942,21.22766,21.22766,0,0,1-1.8005-1.7023l-.3413-1.0766,2.8171-2.749a16.229,16.229,0,0,0,2.3084,1.963,11.00285,11.00285,0,0,0,3.1605,1.5616,4.568,4.568,0,0,0,2.9372.2337,2.211,2.211,0,0,0,1.2462-1.5627,2.57312,2.57312,0,0,0,.0372-1.3465,3.42484,3.42484,0,0,0-.6205-1.2017,8.72659,8.72659,0,0,0-1.2131-1.239q-.7524-.64845-1.7427-1.42-.95085-.75855-1.816-1.5875a8.46264,8.46264,0,0,1-1.4541-1.8243,6.03451,6.03451,0,0,1-.7715-2.2556,7.07616,7.07616,0,0,1,.2523-2.84,9.59348,9.59348,0,0,1,.936-2.2721,7.1825,7.1825,0,0,1,1.4913-1.8378,6.26026,6.26026,0,0,1,2.0974-1.209,8.07974,8.07974,0,0,1,2.7458-.4168l1.1097-4.082,3.8317-.2068.4406,1.0466-1.088,4.0065a42.64187,42.64187,0,0,1,4.4492,1.4572c.091.2782.2885.6826.4157,1.0487l-2.3859,4.4605a15.03337,15.03337,0,0,0-2.4221-1.5803,12.58147,12.58147,0,0,0-3.0199-1.1262,3.64982,3.64982,0,0,0-2.4655.06,2.15069,2.15069,0,0,0-1.1211,1.4189,2.40543,2.40543,0,0,0-.0683,1.0921,2.16457,2.16457,0,0,0,.4623.9463,7.03381,7.03381,0,0,0,.9598.9577q.5925.50265,1.4623,1.1407a24.39557,24.39557,0,0,1,2.4077,2.0912,11.05774,11.05774,0,0,1,1.7995,2.3135,7.33975,7.33975,0,0,1,.9008,2.69,8.11738,8.11738,0,0,1-.2762,3.2019,8.996,8.996,0,0,1-.9566,2.2546,6.19876,6.19876,0,0,1-1.6361,1.814,6.34828,6.34828,0,0,1-2.3404,1.0662,8.193,8.193,0,0,1-3.0602.0786l-1.2763,4.6995-4.1006-1.4727-.364-1.1159Zm11.0505-24.1125a42.45477,42.45477,0,0,1,4.4182,1.4065c.091.2782.3195.7333.4467,1.0994"></path></g><path fill="#5174fa" d="M306.28536,290.6485a13.95346,13.95346,0,0,1-3.4966-2.0695,21.05925,21.05925,0,0,1-1.7933-1.6868l2.4676-3.8224a16.076,16.076,0,0,0,2.297,1.9453,10.89481,10.89481,0,0,0,3.146,1.541,4.53617,4.53617,0,0,0,2.9247.2182,2.21676,2.21676,0,0,0,1.2411-1.5606,2.56835,2.56835,0,0,0,.0372-1.3424,3.39314,3.39314,0,0,0-.6174-1.1935,8.63982,8.63982,0,0,0-1.2069-1.2286q-.74775-.6423-1.7333-1.4065-.94785-.7509-1.8089-1.572a8.44563,8.44563,0,0,1-1.4468-1.8109,5.99875,5.99875,0,0,1-.7664-2.2442,7.04439,7.04439,0,0,1,.2524-2.8286,9.6361,9.6361,0,0,1,.9328-2.268,7.19333,7.19333,0,0,1,1.4851-1.8368,6.30324,6.30324,0,0,1,2.0891-1.2131,8.056,8.056,0,0,1,2.7345-.4271l1.1056-4.0707,4.2526.8191-1.0849,3.9941a17.28164,17.28164,0,0,1,2.9444,1.239,12.88915,12.88915,0,0,1,1.8978,1.2359l-2.3776,4.4523a14.85933,14.85933,0,0,0-2.4108-1.5627,12.43423,12.43423,0,0,0-3.0054-1.1087,3.63877,3.63877,0,0,0-2.4542.0703,2.15192,2.15192,0,0,0-1.1159,1.419,2.37077,2.37077,0,0,0-.0693,1.0869,2.15074,2.15074,0,0,0,.4592.9411,6.95852,6.95852,0,0,0,.9556.9494q.5895.498,1.4552,1.1294a23.97721,23.97721,0,0,1,2.3962,2.0725,10.89215,10.89215,0,0,1,1.7902,2.296,7.27991,7.27991,0,0,1,.8946,2.6734,8.063,8.063,0,0,1-.2761,3.1905,8.96638,8.96638,0,0,1-.9536,2.2494,6.22231,6.22231,0,0,1-1.6278,1.814,6.361,6.361,0,0,1-2.3311,1.0725,8.16971,8.16971,0,0,1-3.0468.0931l-1.2721,4.685-4.082-1.4469Z" class="colorfa9351 svgShape"></path><path fill="url(#m)" d="M708.52386,550.1715c12.6639,20.5383,11.1663,47.0967-3.3446,59.319-14.512,12.2233-36.5427,5.4813-49.2076-15.0581-12.6639-20.5383-11.1664-47.0967,3.3456-59.319S695.859,529.6321,708.52386,550.1715Z"></path><path fill="#3497fb" d="M707.53306,551.5925c12.6649,20.5383,11.1674,47.0967-3.3446,59.319-14.512,12.2233-36.5427,5.4813-49.2066-15.057-12.6638-20.5394-11.1663-47.0978,3.3447-59.3201C672.83856,524.3121,694.86916,531.0531,707.53306,551.5925Z" class="colorfbe034 svgShape"></path><path fill="url(#n)" d="M705.75946,553.0869c11.8085,19.1515,10.4124,43.9166-3.1192,55.3136s-34.0751,5.111-45.8837-14.0415c-11.8096-19.1514-10.4134-43.9155,3.1192-55.3135C673.40736,527.6485,693.94976,533.9354,705.75946,553.0869Z"></path><path fill="#3497fb" d="M704.67036,554.0073a48.98234,48.98234,0,0,1,2.4087,4.3778c5.2279,10.6669,6.5114,22.5633,4.0313,32.5248a30.03878,30.03878,0,0,1-9.4268,15.9444c-12.9286,10.8892-32.5496,4.8846-43.8328-13.4137a51.30033,51.30033,0,0,1-5.3106-11.6503,49.96084,49.96084,0,0,1-2.356-15.5224c.1241-10.3659,3.7232-19.8537,10.64-25.6784C673.75176,529.7004,693.38826,535.7091,704.67036,554.0073Z" class="colorfbe034 svgShape"></path><path fill="url(#o)" d="M707.07906,558.3851c5.2279,10.6669,6.5114,22.5633,4.0313,32.5248-18.4761,3.3074-40.0166,1.7199-58.5702-9.1196a49.96084,49.96084,0,0,1-2.356-15.5224C670.80426,572.1556,690.19356,568.4242,707.07906,558.3851Z" opacity=".2"></path><path fill="url(#p)" d="M652.97866,583.1306a51.80356,51.80356,0,0,0,4.8701,10.309c11.2821,18.2982,30.9093,24.3049,43.8379,13.4157a27.01373,27.01373,0,0,0,6.1391-7.5331C690.43656,601.0379,669.41636,596.6912,652.97866,583.1306Z" opacity=".2"></path><g opacity=".3" fill="#000000" class="color000000 svgShape"><path fill="url(#q)" d="M689.51306,589.4931a13.82886,13.82886,0,0,1-4.2382,2.0849,20.10813,20.10813,0,0,1-2.8068.5502l-1.2338-.5543-.5254-5.5496a15.52951,15.52951,0,0,0,3.3911-.8118,11.04589,11.04589,0,0,0,3.5195-2.0405,5.587,5.587,0,0,0,2.1201-2.873,3.5672,3.5672,0,0,0-.5544-2.6011,3.25531,3.25531,0,0,0-1.1469-1.179,3.28971,3.28971,0,0,0-1.4531-.3919,7.90473,7.90473,0,0,0-1.8946.1789c-.7188.1437-1.5348.334-2.4428.5719a25.18749,25.18749,0,0,1-2.69.5161,8.34548,8.34548,0,0,1-2.6972-.0693,6.63572,6.63572,0,0,1-2.6383-1.1769,9.47053,9.47053,0,0,1-2.4428-2.7903,14.41013,14.41013,0,0,1-1.4086-3.0034,11.1866,11.1866,0,0,1-.5812-3.1729,9.24432,9.24432,0,0,1,.4582-3.1875,10.27951,10.27951,0,0,1,1.6475-3.0705l-2.8906-4.6891,2.6175-3.7718,1.2483.5151,2.7841,4.5164a41.43788,41.43788,0,0,1,4.3282-2.8514c.2999.1562.7808.3227,1.18.5203l2.2618,6.0118a13.64444,13.64444,0,0,0-2.9899.9339,12.3989,12.3989,0,0,0-3.0737,1.9319,4.40789,4.40789,0,0,0-1.6888,2.4769,3.29207,3.29207,0,0,0,.4799,2.3663,3.18819,3.18819,0,0,0,.9359,1.0259,2.29716,2.29716,0,0,0,1.178.361,6.81127,6.81127,0,0,0,1.5275-.1324q.85635-.15675,2.0146-.4727a22.1368,22.1368,0,0,1,3.4398-.5832,10.05411,10.05411,0,0,1,3.1595.2089,7.62511,7.62511,0,0,1,2.8575,1.3858,10.65285,10.65285,0,0,1,2.5349,2.9403,13.68509,13.68509,0,0,1,1.3176,2.8161,10.21151,10.21151,0,0,1,.5388,3.1399,9.93326,9.93326,0,0,1-.5223,3.2753,10.60241,10.60241,0,0,1-1.8347,3.2598l3.266,5.2972-3.8658,3.2557-1.2235-.5409Zm-13.8584-31.9994a41.42154,41.42154,0,0,1,4.263-2.8669c.301.1562.846.3382,1.2452.5358"></path></g><path fill="#5174fa" d="M688.28546,588.9615a13.8328,13.8328,0,0,1-4.2372,2.0839,19.79279,19.79279,0,0,1-2.8078.5502l-1.7582-6.1039a15.58257,15.58257,0,0,0,3.3912-.8108,11.06858,11.06858,0,0,0,3.5194-2.0415,5.58451,5.58451,0,0,0,2.1201-2.8731,3.56274,3.56274,0,0,0-.5543-2.5999,2.97376,2.97376,0,0,0-2.6-1.572,7.94708,7.94708,0,0,0-1.8947.1789q-1.0797.21555-2.4428.5729a25.47854,25.47854,0,0,1-2.69.5151,8.32062,8.32062,0,0,1-2.6982-.0683,6.6374,6.6374,0,0,1-2.6372-1.1769,9.46506,9.46506,0,0,1-2.4428-2.7903,14.3622,14.3622,0,0,1-1.4086-3.0044,11.14459,11.14459,0,0,1-.5813-3.1719,9.25231,9.25231,0,0,1,.4582-3.1885,10.26771,10.26771,0,0,1,1.6475-3.0705l-2.8906-4.6891,3.8658-3.2557,2.7841,4.5153a16.66967,16.66967,0,0,1,3.1471-1.6599,11.86268,11.86268,0,0,1,2.3611-.6712l2.2618,6.0119a13.70038,13.70038,0,0,0-2.9899.9339,12.46578,12.46578,0,0,0-3.0747,1.9319,4.417,4.417,0,0,0-1.6888,2.4779,3.295,3.295,0,0,0,.4809,2.3653,3.18363,3.18363,0,0,0,.9359,1.0269,2.29247,2.29247,0,0,0,1.178.3599,6.79723,6.79723,0,0,0,1.5275-.1313q.85485-.15825,2.0147-.4737a22.25507,22.25507,0,0,1,3.4387-.5822,10.05545,10.05545,0,0,1,3.1595.2078,7.615,7.615,0,0,1,2.8575,1.3869,10.62208,10.62208,0,0,1,2.5359,2.9403,13.72608,13.72608,0,0,1,1.3166,2.8151,10.1641,10.1641,0,0,1,.5388,3.1409,9.88015,9.88015,0,0,1-.5223,3.2743,10.58707,10.58707,0,0,1-1.8337,3.2598l3.2661,5.2972-3.8659,3.2567Z" class="colorfa9351 svgShape"></path><path fill="url(#r)" d="M599.54356,198.1966a25.07626,25.07626,0,1,1-19.5431-29.5929A25.076,25.076,0,0,1,599.54356,198.1966Z"></path><path fill="#3497fb" d="M598.34216,198.2167A25.07618,25.07618,0,1,1,578.8,168.6238,25.07571,25.07571,0,0,1,598.34216,198.2167Z" class="colorfbe034 svgShape"></path><path fill="url(#s)" d="M596.68366,197.8773a23.3829,23.3829,0,1,1-18.2231-27.5941A23.38374,23.38374,0,0,1,596.68366,197.8773Z"></path><path fill="#3497fb" d="M595.66376,197.6705a21.33032,21.33032,0,0,1-.7486,2.7491,22.34079,22.34079,0,0,1-43.027-11.7031,22.37885,22.37885,0,0,1,8.5841-13.4795,22.345,22.345,0,0,1,35.1915,22.4335Z" class="colorfbe034 svgShape"></path><path fill="url(#t)" d="M594.91516,200.4196a22.318,22.318,0,0,1-13.0555,13.6008c-11.5356-7.9097-22.4343-19.0772-27.3847-32.0794a22.284,22.284,0,0,1,5.9973-6.704C568.85926,187.4872,581.08666,195.6962,594.91516,200.4196Z" opacity=".2"></path><path fill="url(#u)" d="M554.08416,182.6363a22.34841,22.34841,0,0,0,22.0592,32.773C565.94176,207.4647,556.61686,195.5679,554.08416,182.6363Z" opacity=".2"></path><g opacity=".3" fill="#000000" class="color000000 svgShape"><path fill="url(#v)" d="M570.85016,202.8869a13.63918,13.63918,0,0,1-3.2674-1.3409,19.51507,19.51507,0,0,1-1.7745-1.1848l-.4075-.8053,2.3155-2.2405a15.289,15.289,0,0,0,2.2135,1.3785,10.71816,10.71816,0,0,0,2.8581,1.0033,4.40526,4.40526,0,0,0,2.4918.0175,1.592,1.592,0,0,0,.9178-1.2023,1.68437,1.68437,0,0,0-.0672-.9858,2.57944,2.57944,0,0,0-.602-.855,7.53793,7.53793,0,0,0-1.108-.8681q-.6831-.4542-1.5879-.9981-.87675-.5379-1.6952-1.1395a7.56937,7.56937,0,0,1-1.4264-1.3514,4.48229,4.48229,0,0,1-.8873-3.9173,6.18416,6.18416,0,0,1,.6456-1.7659,4.9118,4.9118,0,0,1,1.1717-1.4195,4.96541,4.96541,0,0,1,1.7406-.9134,7.38531,7.38531,0,0,1,2.3294-.2862l.6334-3.0972,3.181-.0594.4336.7983-.6098,2.9839c.9745.2983,2.9969.7729,3.6739,1.1106.0899.2041.2713.4999.3943.7669l-1.5931,3.2604a13.59888,13.59888,0,0,0-2.0537-1.1377,11.96243,11.96243,0,0,0-2.5659-.8228,3.38513,3.38513,0,0,0-2.0739.0541,1.46938,1.46938,0,0,0-.848,1.081,1.59837,1.59837,0,0,0,.0253.8271,1.75273,1.75273,0,0,0,.4677.7084,6.371,6.371,0,0,0,.8872.705q.53655.3651,1.3105.8218a21.72267,21.72267,0,0,1,2.1314,1.485,8.94129,8.94129,0,0,1,1.6105,1.6288,5.00513,5.00513,0,0,1,.8882,4.1992,5.909,5.909,0,0,1-.6072,1.6542,4.50971,4.50971,0,0,1-1.1796,1.3863,5.369,5.369,0,0,1-1.8164.9126,7.72015,7.72015,0,0,1-2.518.2626l-.7162,3.4985-3.6146-.7389-.4075-.7957Zm7.4988-18.2491c.9745.2983,2.9689.7354,3.646,1.0731.0898.2041.2992.5374.4222.8044"></path></g><path fill="#5174fa" d="M570.43576,202.093a13.59584,13.59584,0,0,1-3.2665-1.341,19.47729,19.47729,0,0,1-1.7746-1.1848l1.9081-3.0457a15.29182,15.29182,0,0,0,2.2134,1.3794,10.73279,10.73279,0,0,0,2.8573,1.0024,4.40448,4.40448,0,0,0,2.4918.0175,1.5929,1.5929,0,0,0,.9186-1.2023,1.682,1.682,0,0,0-.0671-.985,2.60183,2.60183,0,0,0-.602-.8559,7.5568,7.5568,0,0,0-1.108-.8681q-.68445-.45405-1.5879-.9972-.8769-.5391-1.6961-1.1403a7.592,7.592,0,0,1-1.4256-1.3514,4.48606,4.48606,0,0,1-.8881-3.9174,6.18526,6.18526,0,0,1,.6465-1.7658,4.90635,4.90635,0,0,1,1.1717-1.4195,4.979,4.979,0,0,1,1.7405-.9135,7.40694,7.40694,0,0,1,2.3286-.2861l.6343-3.0973,3.6146.739-.6107,2.9838a16.36581,16.36581,0,0,1,2.4786.9554,11.77781,11.77781,0,0,1,1.5905.9221l-1.5931,3.2604a13.60025,13.60025,0,0,0-2.0538-1.1377,12.02363,12.02363,0,0,0-2.5667-.8227,3.38186,3.38186,0,0,0-2.073.0541,1.47214,1.47214,0,0,0-.8489,1.081,1.60759,1.60759,0,0,0,.0253.8271,1.75948,1.75948,0,0,0,.4685.7093,6.48157,6.48157,0,0,0,.8864.704q.53655.36525,1.3105.8228a21.491,21.491,0,0,1,2.1322,1.484,8.93616,8.93616,0,0,1,1.6097,1.6289,5.00937,5.00937,0,0,1,.8891,4.1991,5.92593,5.92593,0,0,1-.6073,1.6542,4.52177,4.52177,0,0,1-1.1795,1.3872,5.39246,5.39246,0,0,1-1.8165.9126,7.74814,7.74814,0,0,1-2.5179.2618l-.7163,3.4994-3.6146-.7399Z" class="colorfa9351 svgShape"></path><path fill="url(#w)" d="M155.94156,163.3892a21.27333,21.27333,0,1,1-26.4364-14.361A21.27273,21.27273,0,0,1,155.94156,163.3892Z"></path><circle cx="134.652" cy="169.921" r="21.273" fill="#3497fb" class="colorfbe034 svgShape"></circle><path fill="url(#x)" d="M153.67256,164.2911a19.8363,19.8363,0,1,1-24.6503-13.391A19.836,19.836,0,0,1,153.67256,164.2911Z"></path><path fill="#3497fb" d="M152.82656,164.5424a18.24518,18.24518,0,0,1,.5368,2.3569,18.95254,18.95254,0,0,1-36.883,8.4009,18.71307,18.71307,0,0,1-.7663-6.1039,18.95232,18.95232,0,0,1,37.1125-4.6539Z" class="colorfbe034 svgShape"></path><path fill="url(#y)" d="M153.36336,166.8993a18.93489,18.93489,0,0,1-4.3499,15.3911c-11.792-1.3207-24.4063-5.3344-33.2994-13.0941a18.91494,18.91494,0,0,1,1.816-7.4122C128.69646,167.6109,141.12556,168.8788,153.36336,166.8993Z" opacity=".2"></path><path fill="url(#z)" d="M115.69856,169.8727a18.95979,18.95979,0,0,0,29.5897,15.7375C134.48076,183.7321,122.75386,178.5445,115.69856,169.8727Z" opacity=".2"></path><g opacity=".3" fill="#000000" class="color000000 svgShape"><path fill="url(#A)" d="M136.32886,178.3459a11.57331,11.57331,0,0,1-2.9805.3,16.53317,16.53317,0,0,1-1.8016-.18l-.6257-.4395.8397-2.6021a12.90965,12.90965,0,0,0,2.207.15,9.13053,9.13053,0,0,0,2.5401-.3889,3.72307,3.72307,0,0,0,1.8719-.9815,1.3485,1.3485,0,0,0,.2089-1.2658,1.43558,1.43558,0,0,0-.4437-.7116,2.20437,2.20437,0,0,0-.7922-.4002,6.452,6.452,0,0,0-1.1759-.2079c-.4612-.0444-.9918-.0827-1.5865-.1127q-.8718-.0543-1.724-.1779a6.46258,6.46258,0,0,1-1.6071-.4426,3.79939,3.79939,0,0,1-2.2267-2.5793,5.21581,5.21581,0,0,1-.2213-1.5793,4.16385,4.16385,0,0,1,.3113-1.5306,4.20878,4.20878,0,0,1,.939-1.3776,6.23851,6.23851,0,0,1,1.6289-1.1438l-.7612-2.5721,2.3591-1.3124.6432.424.7323,2.478c.8501-.1655,2.5524-.6174,3.1946-.634.1479.1169.4023.2658.6009.4168l.1076,3.0768a11.46484,11.46484,0,0,0-1.9909-.0331,10.17335,10.17335,0,0,0-2.2494.4075,2.87393,2.87393,0,0,0-1.5316.8677,1.25114,1.25114,0,0,0-.2038,1.1479,1.36781,1.36781,0,0,0,.3485.6092,1.49879,1.49879,0,0,0,.633.3444,5.51651,5.51651,0,0,0,.9452.1727c.3651.0403.8026.0703,1.3093.0931a18.24965,18.24965,0,0,1,2.1884.2616,7.54816,7.54816,0,0,1,1.8554.5771,4.24207,4.24207,0,0,1,2.3404,2.7903,5.0152,5.0152,0,0,1,.2048,1.48,3.8087,3.8087,0,0,1-.3299,1.5089,4.56093,4.56093,0,0,1-.996,1.4075,6.53787,6.53787,0,0,1-1.7809,1.2007l.8605,2.9051-3.0013.8884-.6226-.4323Zm-1.665-16.6538c.8501-.1655,2.5172-.634,3.1584-.6505.149.1158.4385.2823.6371.4333"></path></g><path fill="#5174fa" d="M135.70316,177.9168a11.58485,11.58485,0,0,1-2.9805.2999,16.50543,16.50543,0,0,1-1.8016-.18l.213-3.0416a12.91789,12.91789,0,0,0,2.207.15,9.12929,9.12929,0,0,0,2.54-.3889,3.733,3.733,0,0,0,1.873-.9815,1.351,1.351,0,0,0,.2079-1.2658,1.42868,1.42868,0,0,0-.4437-.7116,2.19153,2.19153,0,0,0-.7912-.3992,6.37689,6.37689,0,0,0-1.1759-.2089c-.4623-.0444-.9928-.0827-1.5875-.1137-.5812-.0352-1.1542-.0941-1.724-.1769a6.46335,6.46335,0,0,1-1.6072-.4426,3.80525,3.80525,0,0,1-2.2266-2.5793,5.279,5.279,0,0,1-.2213-1.5793,4.08736,4.08736,0,0,1,1.2503-2.9082,6.26169,6.26169,0,0,1,1.6299-1.1438l-.7612-2.5721,3.0013-.8884.7333,2.477a13.96487,13.96487,0,0,1,2.237-.2731,9.9875,9.9875,0,0,1,1.5585.0569l.1076,3.0758a11.58615,11.58615,0,0,0-1.9919-.0321,10.17335,10.17335,0,0,0-2.2494.4075,2.86626,2.86626,0,0,0-1.5306.8677,1.2484,1.2484,0,0,0-.2048,1.1479,1.35981,1.35981,0,0,0,.3495.6092,1.48665,1.48665,0,0,0,.633.3444,5.47818,5.47818,0,0,0,.9452.1727c.3641.0403.8016.0703,1.3094.0931a18.23554,18.23554,0,0,1,2.1873.2616,7.54951,7.54951,0,0,1,1.8554.5771,4.244,4.244,0,0,1,2.3404,2.7893,5.02531,5.02531,0,0,1,.2058,1.481,3.82587,3.82587,0,0,1-.331,1.5089,4.58357,4.58357,0,0,1-.9949,1.4075,6.54583,6.54583,0,0,1-1.7819,1.2007l.8605,2.9051-3.0013.8884Z" class="colorfa9351 svgShape"></path><path fill="url(#B)" d="M271.52986,12.0857a45.35337,45.35337,0,0,0-42.8483,45.2104V816.1303a383.03866,383.03866,0,0,0,42.8483,18.7513Z" opacity=".25"></path><path fill="url(#C)" d="M663.71056,24.9564a44.99791,44.99791,0,0,0-31.7129-12.9969H602.681V819.989q13.84545-5.8935,27.2659-12.5377a497.39955,497.39955,0,0,0,46.7823-26.4675c.1945-.1292.3879-.2585.604-.3888V57.2961A45.15913,45.15913,0,0,0,663.71056,24.9564Z" opacity=".25"></path><path fill="#ffffff" d="M402.62136 102.448a4.699 4.699 0 01-1.8323 3.9441 7.94967 7.94967 0 01-4.9814 1.415 12.50646 12.50646 0 01-5.2405-.8766v-2.1487a14.02992 14.02992 0 002.5698.786 13.5436 13.5436 0 002.751.2871 5.54751 5.54751 0 003.3521-.8435 2.77719 2.77719 0 001.1279-2.3516 3.02486 3.02486 0 00-.3994-1.6333 3.73051 3.73051 0 00-1.3372-1.1739 19.008 19.008 0 00-2.8505-1.2185 9.11386 9.11386 0 01-3.8191-2.2637 5.0285 5.0285 0 01-1.1445-3.4221 4.24319 4.24319 0 011.6639-3.523 6.88863 6.88863 0 014.4021-1.3105 12.98409 12.98409 0 015.2545 1.0463l-.6928 1.9395a11.89824 11.89824 0 00-4.614-.994 4.46669 4.46669 0 00-2.7663.7592 2.50938 2.50938 0 00-.9953 2.1092 3.21928 3.21928 0 00.3687 1.632 3.43215 3.43215 0 001.2378 1.165 15.08936 15.08936 0 002.6655 1.1726 10.54118 10.54118 0 014.1469 2.3083A4.52413 4.52413 0 01402.62136 102.448zM419.27816 100.3515a7.91524 7.91524 0 01-1.7686 5.4829 6.22751 6.22751 0 01-4.887 1.9727 6.50649 6.50649 0 01-3.4209-.9021 5.98832 5.98832 0 01-2.3057-2.5954 9.04064 9.04064 0 01-.8115-3.9581 7.89584 7.89584 0 011.7544-5.4689 6.20467 6.20467 0 014.8743-1.9611 6.0852 6.0852 0 014.7901 2.0045A7.89726 7.89726 0 01419.27816 100.3515zm-10.9404 0a6.81078 6.81078 0 001.0987 4.1929 4.36843 4.36843 0 006.4807.0064 6.77106 6.77106 0 001.1076-4.1993 6.66238 6.66238 0 00-1.1076-4.1584 3.8899 3.8899 0 00-3.2678-1.424 3.82252 3.82252 0 00-3.2244 1.4036A6.74745 6.74745 0 00408.33776 100.3515zM430.23626 94.8737h-3.6569v12.6718h-2.1743V94.8737h-2.5699v-.9825l2.5699-.786v-.7975q0-5.2941 4.6242-5.2953a9.6064 9.6064 0 012.6744.458l-.5652 1.743a7.2389 7.2389 0 00-2.1488-.4057 2.09175 2.09175 0 00-1.8208.8204 4.57835 4.57835 0 00-.5895 2.6273v.9276h3.6569zM438.16656 106.0118a6.91214 6.91214 0 001.1139-.0842 7.6537 7.6537 0 00.8524-.1761v1.6639a4.09735 4.09735 0 01-1.0399.2807 7.76183 7.76183 0 01-1.2416.111q-4.1628 0-4.1648-4.3881V94.8737h-2.0582V93.8274l2.0582-.9059.9162-3.0637h1.2594V93.183h4.1661v1.6907h-4.1661v8.4534a2.90347 2.90347 0 00.615 1.9918A2.13634 2.13634 0 00438.16656 106.0118zM455.40006 107.5455l-2.6349-8.4266q-.24885-.76935-.9315-3.5115h-.1046q-.5226 2.2968-.9162 3.5383l-2.7115 8.3998h-2.5162l-3.9186-14.3625h2.2802q1.3857 5.4147 2.1169 8.2442a33.65933 33.65933 0 01.8319 3.8126h.1047q.14355-.7464.4631-1.9331c.2144-.7885.4007-1.4189.5602-1.8795l2.6324-8.2442h2.358l2.5698 8.2442a27.40952 27.40952 0 01.994 3.7871h.1046a13.51943 13.51943 0 01.2846-1.4559q.2259-.9819 2.7306-10.5754h2.2534l-3.9696 14.3625zM474.04856 107.5455l-.4313-2.0441h-.1046a6.0497 6.0497 0 01-2.1436 1.8272 6.53022 6.53022 0 01-2.6669.4785 4.79126 4.79126 0 01-3.3469-1.0999 4.01086 4.01086 0 01-1.2122-3.1313q0-4.35045 6.9567-4.5616l2.4384-.0778v-.8907a3.64188 3.64188 0 00-.7273-2.4958 2.99422 2.99422 0 00-2.3261-.8064 9.48081 9.48081 0 00-4.0627 1.1011l-.6661-1.6638a10.4401 10.4401 0 014.8602-1.2326 5.47793 5.47793 0 013.8063 1.1394 4.76753 4.76753 0 011.239 3.657v9.8008zm-4.9151-1.5337a4.41769 4.41769 0 003.1925-1.1139 4.11938 4.11938 0 001.1612-3.1173v-1.2989l-2.1756.0931a7.92419 7.92419 0 00-3.7437.8065 2.42883 2.42883 0 00-1.1458 2.2214 2.24528 2.24528 0 00.7132 1.7941A2.95791 2.95791 0 00469.13346 106.0118zM487.36476 92.9215a8.61044 8.61044 0 011.7162.1569l-.3011 2.0186a7.48306 7.48306 0 00-1.5746-.1965 3.83409 3.83409 0 00-2.9807 1.4138 5.176 5.176 0 00-1.239 3.5268v7.7044h-2.1742V93.183h1.7953l.2488 2.6617h.1046a6.3309 6.3309 0 011.928-2.1628A4.324 4.324 0 01487.36476 92.9215zM498.50286 107.8071a6.59846 6.59846 0 01-5.0223-1.9369 7.5024 7.5024 0 01-1.8412-5.3885 8.32574 8.32574 0 011.7073-5.5148 5.68027 5.68027 0 014.5935-2.0454 5.41647 5.41647 0 014.272 1.7749 6.81368 6.81368 0 011.5746 4.6867v1.3742h-9.8953a5.70672 5.70672 0 001.276 3.8394 4.41669 4.41669 0 003.4171 1.3105 11.54563 11.54563 0 004.5833-.9685v1.9408a11.69786 11.69786 0 01-2.1806.7133A12.28635 12.28635 0 01498.50286 107.8071zm-.5895-13.0635a3.54875 3.54875 0 00-2.7574 1.1279 5.18337 5.18337 0 00-1.2122 3.1173h7.5079a4.7854 4.7854 0 00-.9161-3.1517A3.23331 3.23331 0 00497.91336 94.7436zM334.88046 120.5925v12.3937a6.76811 6.76811 0 01-1.9777 5.1499 7.59268 7.59268 0 01-5.4408 1.8731 7.26877 7.26877 0 01-5.3528-1.8846 7.01275 7.01275 0 01-1.8936-5.192V120.5925h2.2305v12.497a4.91239 4.91239 0 001.3104 3.6825 5.27357 5.27357 0 003.8509 1.2849 5.09472 5.09472 0 003.7348-1.29 4.97 4.97 0 001.3105-3.7029V120.5925zM350.12086 139.7476v-9.2904a3.7673 3.7673 0 00-.7975-2.6222 3.27076 3.27076 0 00-2.5022-.8638 4.12116 4.12116 0 00-3.3022 1.2185 6.15537 6.15537 0 00-1.0502 4.0245v7.5334h-2.1742V125.3851h1.7685l.3534 1.9663h.1047a4.43514 4.43514 0 011.8757-1.6447 6.09707 6.09707 0 012.6859-.5819 5.46252 5.46252 0 013.9058 1.2518 5.32216 5.32216 0 011.3079 4.0015v9.3695zM367.21016 137.8222h-.1161a5.11631 5.11631 0 01-4.5093 2.187 5.32477 5.32477 0 01-4.3818-1.9255 8.47881 8.47881 0 01-1.5656-5.4778 8.62087 8.62087 0 011.5707-5.5161 5.28861 5.28861 0 014.3767-1.965 5.22564 5.22564 0 014.4825 2.122h.1684l-.0905-1.0348-.0511-1.0093v-5.8428h2.1743v20.3877h-1.7685zm-4.3498.3662a3.95974 3.95974 0 003.2295-1.2122 6.12715 6.12715 0 001.0042-3.9122v-.4581a7.18928 7.18928 0 00-1.0182-4.3562 3.85456 3.85456 0 00-3.2423-1.304 3.32778 3.32778 0 00-2.9284 1.4878 7.3979 7.3979 0 00-1.0157 4.198 7.09861 7.09861 0 001.0093 4.1558A3.41813 3.41813 0 00362.86036 138.1884zM380.61826 140.0092a6.59831 6.59831 0 01-5.0223-1.9369 7.5024 7.5024 0 01-1.8412-5.3885 8.32625 8.32625 0 011.7072-5.5148 5.67966 5.67966 0 014.5936-2.0442 5.41257 5.41257 0 014.272 1.7749 6.80815 6.80815 0 011.5746 4.6854v1.3743h-9.8953a5.70028 5.70028 0 001.276 3.8394 4.41654 4.41654 0 003.4171 1.3105 11.546 11.546 0 004.5833-.9685v1.9395a11.63 11.63 0 01-2.1794.7145A12.29927 12.29927 0 01380.61826 140.0092zm-.5882-13.0635a3.54968 3.54968 0 00-2.7587 1.1279 5.18337 5.18337 0 00-1.2122 3.1173h7.5079a4.778 4.778 0 00-.9162-3.1517A3.23026 3.23026 0 00380.03006 126.9457zM396.831 125.1248a8.61632 8.61632 0 011.7162.1557l-.3011 2.0186a7.49366 7.49366 0 00-1.5746-.1978 3.83529 3.83529 0 00-2.9807 1.4151 5.176 5.176 0 00-1.239 3.5268v7.7044h-2.1743V125.3851h1.7953l.2489 2.6617h.1046a6.32886 6.32886 0 011.928-2.1628A4.3228 4.3228 0 01396.831 125.1248zM418.35046 139.7476l-6.4986-16.9808h-.1072q.1857 2.01735.185 4.7964v12.1844h-2.0581V120.5925h3.3546l6.066 15.8006h.1046l6.1209-15.8006h3.3265v19.1551h-2.2266V127.4037q0-2.1225.1825-4.6101h-.1046l-6.5509 16.954zM443.27686 139.7476l-.4325-2.0441h-.1047a6.036 6.036 0 01-2.1423 1.8272 6.5366 6.5366 0 01-2.6681.4785 4.78588 4.78588 0 01-3.3457-1.0999 4.0064 4.0064 0 01-1.2122-3.1313q0-4.35045 6.9567-4.5616l2.4384-.0779v-.8906a3.64119 3.64119 0 00-.7286-2.4971 2.9936 2.9936 0 00-2.3248-.8051 9.47547 9.47547 0 00-4.0628 1.1011l-.6673-1.6639a10.45406 10.45406 0 014.8602-1.2326 5.48158 5.48158 0 013.8076 1.1395 4.77216 4.77216 0 011.2377 3.657v9.8008zm-4.9151-1.5337a4.4219 4.4219 0 003.1925-1.1139 4.12555 4.12555 0 001.1599-3.1173v-1.2989l-2.1755.0931a7.92985 7.92985 0 00-3.7438.8064 2.42991 2.42991 0 00-1.1446 2.2203 2.2439 2.2439 0 00.7133 1.7953A2.95561 2.95561 0 00438.36176 138.2139zM449.85586 121.4934a1.44278 1.44278 0 01.3688-1.0936 1.27731 1.27731 0 01.9161-.347 1.29217 1.29217 0 01.9047.3534 1.4249 1.4249 0 01.3803 1.0872 1.44643 1.44643 0 01-.3803 1.096 1.27061 1.27061 0 01-.9047.3599 1.24526 1.24526 0 01-.9161-.3599A1.46823 1.46823 0 01449.85586 121.4934zm2.358 18.2542h-2.1755V125.3851h2.1755zM467.32416 139.7476v-9.2904a3.76778 3.76778 0 00-.7975-2.6222 3.27106 3.27106 0 00-2.5022-.8638 4.12319 4.12319 0 00-3.3023 1.2185 6.156 6.156 0 00-1.0501 4.0245v7.5334h-2.1756V125.3851h1.7698l.3535 1.9663h.1046a4.43573 4.43573 0 011.8757-1.6447 6.09954 6.09954 0 012.6847-.5819 5.46587 5.46587 0 013.907 1.2518 5.32216 5.32216 0 011.3079 4.0015v9.3695zM479.28016 138.2139a6.91214 6.91214 0 001.1139-.0842 7.38459 7.38459 0 00.8524-.1774v1.6652a4.06106 4.06106 0 01-1.0412.2807 7.73744 7.73744 0 01-1.2416.111q-4.1628 0-4.1635-4.3881v-8.5453h-2.0595v-1.0463l2.0595-.9047.9161-3.0662h1.2582v3.3265h4.1673v1.6907h-4.1673v8.4521a2.90483 2.90483 0 00.615 1.9931A2.14491 2.14491 0 00479.28016 138.2139zM490.85076 140.0092a6.603 6.603 0 01-5.0235-1.9369 7.50769 7.50769 0 01-1.8413-5.3885 8.32617 8.32617 0 011.7086-5.5148 5.67932 5.67932 0 014.5935-2.0442 5.408 5.408 0 014.2707 1.7749 6.80187 6.80187 0 011.5746 4.6854v1.3743h-9.894a5.69417 5.69417 0 001.276 3.8394 4.41564 4.41564 0 003.4158 1.3105 11.54707 11.54707 0 004.5846-.9685v1.9395a11.64219 11.64219 0 01-2.1806.7145A12.28663 12.28663 0 01490.85076 140.0092zm-.5895-13.0635a3.54686 3.54686 0 00-2.7574 1.1279 5.176 5.176 0 00-1.2122 3.1173h7.5079a4.78522 4.78522 0 00-.9161-3.1517A3.23331 3.23331 0 00490.26126 126.9457zM510.33636 139.7476v-9.2904a3.76778 3.76778 0 00-.7975-2.6222 3.27076 3.27076 0 00-2.5022-.8638 4.12282 4.12282 0 00-3.3022 1.2185 6.15537 6.15537 0 00-1.0502 4.0245v7.5334H500.51V125.3851h1.7686l.3534 1.9663h.1046a4.44343 4.44343 0 011.8757-1.6447 6.10153 6.10153 0 012.686-.5819 5.46252 5.46252 0 013.9058 1.2518 5.32216 5.32216 0 011.3079 4.0015v9.3695zM526.48526 139.7476l-.4313-2.0441h-.1046a6.04906 6.04906 0 01-2.1437 1.8272 6.52939 6.52939 0 01-2.6668.4785 4.79109 4.79109 0 01-3.3469-1.0999 4.01052 4.01052 0 01-1.2122-3.1313q0-4.35045 6.9567-4.5616l2.4384-.0779v-.8906a3.64123 3.64123 0 00-.7273-2.4971 2.99861 2.99861 0 00-2.3261-.8051 9.48012 9.48012 0 00-4.0628 1.1011l-.666-1.6639a10.44345 10.44345 0 014.8589-1.2326 5.47936 5.47936 0 013.8076 1.1395 4.76753 4.76753 0 011.239 3.657v9.8008zm-4.9151-1.5337a4.41769 4.41769 0 003.1925-1.1139 4.12066 4.12066 0 001.1599-3.1173v-1.2989l-2.1743.0931a7.92559 7.92559 0 00-3.7437.8064 2.42829 2.42829 0 00-1.1459 2.2203 2.24463 2.24463 0 00.7146 1.7953A2.952 2.952 0 00521.57016 138.2139zM543.07436 139.7476v-9.2904a3.76767 3.76767 0 00-.7962-2.6222 3.27407 3.27407 0 00-2.5035-.8638 4.12462 4.12462 0 00-3.3022 1.2185 6.15537 6.15537 0 00-1.0502 4.0245v7.5334h-2.1742V125.3851h1.7685l.3534 1.9663h.1046a4.43932 4.43932 0 011.877-1.6447 6.09181 6.09181 0 012.6847-.5819 5.46039 5.46039 0 013.9058 1.2518 5.32216 5.32216 0 011.3079 4.0015v9.3695zM556.13286 140.0092a6.12394 6.12394 0 01-4.8309-1.9204 7.88909 7.88909 0 01-1.7086-5.4306 8.14968 8.14968 0 011.7341-5.5684 6.25582 6.25582 0 014.947-1.965 9.85528 9.85528 0 012.0709.2233 6.695 6.695 0 011.6269.5244l-.6699 1.8464a10.39052 10.39052 0 00-1.572-.4772 6.967 6.967 0 00-1.5082-.1914q-4.37535 0-4.3754 5.5812a6.65929 6.65929 0 001.0668 4.0627 3.72049 3.72049 0 003.1644 1.4151 9.71573 9.71573 0 003.6825-.7707v1.9254A7.82432 7.82432 0 01556.13286 140.0092zM569.90456 140.0092a6.60323 6.60323 0 01-5.0236-1.9369 7.50808 7.50808 0 01-1.8412-5.3885 8.32667 8.32667 0 011.7085-5.5148 5.67966 5.67966 0 014.5936-2.0442 5.408 5.408 0 014.2707 1.7749 6.80187 6.80187 0 011.5746 4.6854v1.3743h-9.894a5.69417 5.69417 0 001.276 3.8394 4.41564 4.41564 0 003.4158 1.3105 11.5521 11.5521 0 004.5846-.9685v1.9395a11.6116 11.6116 0 01-2.1806.7145A12.27841 12.27841 0 01569.90456 140.0092zm-.5895-13.0635a3.54686 3.54686 0 00-2.7574 1.1279 5.16741 5.16741 0 00-1.2122 3.1173h7.5079a4.78522 4.78522 0 00-.9161-3.1517A3.23331 3.23331 0 00569.31506 126.9457z" class="colorffffff svgShape"></path><path fill="#4a5b9d" d="M677.03946,242.3975v80.5286h-69.6559a32.27605,32.27605,0,0,1,0-64.5521h.304a52.889,52.889,0,0,1,29.0881-36.6203,52.41,52.41,0,0,1,30.7377,11.0433A53.65625,53.65625,0,0,1,677.03946,242.3975Z" opacity=".2" class="color574a9d svgShape"></path><path fill="url(#e)" d="M728.49746,305.8782l.0249.1407H616.18046a32.28075,32.28075,0,0,1,0-64.5615c.1014,0,.2027.0124.3051.0124a52.73244,52.73244,0,0,1,104.2833,11.1023c0,.7125-.0248,1.4127-.0507,2.1004a26.56938,26.56938,0,0,1,5.169-.5098,25.92374,25.92374,0,0,1,2.6103,51.7155Z"></path><path fill="url(#D)" d="M727.75906,285.0751a25.88392,25.88392,0,0,1-10.6565,20.9438H616.18046a32.28075,32.28075,0,0,1,0-64.5615c.1014,0,.2027.0124.3051.0124a52.80934,52.80934,0,0,1,29.0912-36.6161,52.74517,52.74517,0,0,1,51.1426,52.7084c0,.7136-.0258,1.4127-.0506,2.1129a25.62582,25.62582,0,0,1,5.1689-.5213A25.92863,25.92863,0,0,1,727.75906,285.0751Z"></path><rect width="22.17" height="33.922" x="656.389" y="239.698" fill="#ffffff" class="colorffffff svgShape"></rect><polygon fill="#ffffff" points="667.475 292.022 687.479 266.505 647.47 266.505 667.475 292.022" class="colorffffff svgShape"></polygon><path fill="#4a5b9d" d="M227.31126,306.8193s43.6839,12.0506,65.5253,57.9943c21.8414,45.9426,22.5954,116.7413,8.285,128.038-14.3103,11.2976-32.3862,12.0516-32.3862,12.0516s-6.7782,102.4299-5.2724,143.8541c1.5069,41.4241,49.6244,125.4835,53.3869,146.844s-117.4064-158.1417-116.6524-172.451C200.95036,608.84,227.31126,306.8193,227.31126,306.8193Z" opacity=".2" class="color574a9d svgShape"></path><polygon fill="#8ebbe9" points="106.263 827.142 103.207 846.618 116.551 848.519 121.518 828.2 106.263 827.142" class="colore9aa8e svgShape"></polygon><path fill="#d1e5fa" d="M104.58,837.9061c-1.2542,2.2138-.8739,9.0602-.8739,9.0602l12.4318,1.5096s4.0424-8.251,2.5097-8.762C112.506,837.6634,107.14016,836.0728,104.58,837.9061Z" class="colorfad1de svgShape"></path><path fill="#2c3558" d="M116.80616,859.8656c-3.2431,2.5352-42.7042,2.6181-45.7693-1.8641-3.0436-4.479,1.6803-6.0718,1.6803-6.0718s.3125-.0561.8897-.1274c3.6766-.5845,17.8496-3.0412,22.7457-6.941,5.6792-4.475,8.1643-7.0896,8.2491-4.0999.061,3.009,6.762,8.7875,11.4255,5.2369,2.7143-2.0867,3.6393,2.1086,3.277,6.4546l-.0022.0216C119.06636,855.6057,118.16386,858.8218,116.80616,859.8656Z" class="color312c58 svgShape"></path><polygon fill="#8ebbe9" points="298.431 797.445 311.456 812.242 321.447 803.192 308.993 786.388 298.431 797.445" class="colore9aa8e svgShape"></polygon><path fill="#d1e5fa" d="M305.63386,805.6176c.9008,2.3797,6.41,6.4617,6.41,6.4617l9.1062-8.5963s-3.7635-8.3822-5.1348-7.5301C310.51216,799.3669,305.85926,802.4778,305.63386,805.6176Z" class="colorfad1de svgShape"></path><path fill="#2c3558" d="M330.337,810.2478c-.121,4.1151-25.2761,34.5187-30.6829,34.013-5.3893-.5223-3.597-5.1742-3.597-5.1742s.1572-.2751.4716-.7653c1.9009-3.2008,9.0669-15.6724,9.1972-21.9303.1872-7.2281-.2358-10.8096,2.1181-8.9646,2.3538,1.8761,11.0805.4137,11.3297-5.442.1303-3.4211,3.9476-1.452,7.0585,1.6041l.0155.0155C328.50536,805.7872,330.40206,808.5372,330.337,810.2478Z" class="color312c58 svgShape"></path><path fill="#222a49" d="M141.60306,521.258l-39.5128,309.7488,20.454,2.3769S237.34,580.8104,235.84456,532.8917C234.35026,484.9731,141.60306,521.258,141.60306,521.258Z" class="color242249 svgShape"></path><path fill="#2c3558" d="M243.29386,524.8954s29.9476,23.2738,11.4342,103.8913c-7.0067,30.5133,4.201,61.252,2.2887,76.8365,25.1644,26.9349,58.6903,84.0583,58.6903,84.0583l-14.5948,14.7116s-52.8201-17.3736-87.5425-89.7692c-34.7225-72.3945-61.3161-180.1776-61.3161-180.1776Z" class="color312c58 svgShape"></path><path fill="#8ebbe9" d="M115.54236,387.894c-1.3031,8.7401-3.0778,16.3239-5.5196,20.7606-9.2685,16.8773-45.503,132.9174-45.503,132.9174l6.0894,1.9898a.0922.0922,0,0,1,.0341-.0568c1.3579-1.7468,35.7795-46.7348,50.5593-80.5389,6.7617-15.4542,12.7601-44.1617,17.3364-71.1184C130.87656,390.5002,123.21616,389.1516,115.54236,387.894Z" class="colore9aa8e svgShape"></path><path fill="#6a7fd0" d="M123.76016,389.2715c-1.1542,6.7255-2.1098,13.5678-2.0105,19.5073.3454,18.8401-16.0892,75.7494-28.4531,93.2555-11.9337,16.9713-22.0348,40.0259-22.6533,41.4707,1.3579-1.7468,35.7795-46.7348,50.5593-80.5389,6.7617-15.4542,12.7601-44.1617,17.3364-71.1184Q131.15161,390.5478,123.76016,389.2715Z" opacity=".55" class="colord0876a svgShape"></path><path fill="#6e90b2" d="M256.39626,557.9466c-3.8886,6.3811-19.018,12.8687-39.9794,15.0664h-.0207a160.574,160.574,0,0,1-67.8719-8.0089c-22.736-7.7762-30.9352-47.5436-32.5196-90.9245-2.0281-55.4469,6.7399-116.8313,9.8043-124.9663,1.4799-3.93,5.3044-7.8176,10.46-11.4311,13.8821-9.7412,37.4858-17.5598,51.3256-19.3139,0,0,40.2121-7.6696,57.8556,13.6505,5.8537,7.0368,9.8467,32.8154,12.2978,64.5749C262.71426,460.8945,261.38316,549.7474,256.39626,557.9466Z" class="color6f6eb2 svgShape"></path><path fill="#4a5b9d" d="M256.40456,557.9456c-3.9031,6.3873-19.0336,12.8624-39.9846,15.0653,29.1481-16.3084,30.5878-48.858,30.5878-60.3253,0-11.9037-54.3963-19.6872-54.3963-19.6872s53.8729-21.7587,48.706-39.3743c-5.1886-17.6157-.5233-65.7974-.5233-65.7974,3.4946,20.2136,10.2004,36.8799,15.3456,41.0002C261.08846,493.1204,261.375,549.7474,256.40456,557.9456Z" opacity=".2" class="color574a9d svgShape"></path><path fill="#8ebbe9" d="M173.488,320.1172l2.3259-14.5668,14.4893-1.0518,4.5815,14.3879s-5.3696,17.4905-10.8023,17.6611C178.91656,336.71,173.52316,321.4658,173.488,320.1172Z" class="colore9aa8e svgShape"></path><path fill="#6e90b2" d="M134.56146,341.8903s-38.1995,40.6382-35.1569,82.9249c0,0,20.4205,8.0192,24.8489-1.0353S134.56146,341.8903,134.56146,341.8903Z" class="color6f6eb2 svgShape"></path><polygon fill="#3a4a87" points="179.226 324.211 183.561 337.651 171.745 326.64 179.226 324.211" class="color433a87 svgShape"></polygon><path fill="#4a5b9d" d="M163.80366,335.4286l15.7717-11.2925-5.3045-8.6677-8.7421,5.0511S168.48136,325.9791,163.80366,335.4286Z" class="color574a9d svgShape"></path><polygon fill="#3a4a87" points="189.716 323.823 184.726 337.621 195.738 326.445 189.716 323.823" class="color433a87 svgShape"></polygon><path fill="#4a5b9d" d="M205.36436,334.3479,189.02586,323.89l4.4782-9.975,9.131,2.9134A24.439,24.439,0,0,0,205.36436,334.3479Z" class="color574a9d svgShape"></path><path fill="#8ebbe9" d="M70.60186,543.5577s4.7564,7.3956,3.0479,12.3205c-1.7086,4.9239-9.0928,17.928-14.2628,9.0162s-8.4939-20.9302,5.1214-23.3172Z" class="colore9aa8e svgShape"></path><path fill="#6a7fd0" d="M58.96706,549.5613s5.1897,0,6.7761-3.3374C65.74316,546.2239,66.04936,552.6329,58.96706,549.5613Z" class="colord0876a svgShape"></path><path fill="#6a7fd0" d="M56.81386,552.1902s10.0318-2.4231,11.246-.9101c1.2152,1.512,3.7252,9.2448-.059,12.3247,0,0,1.7623-7.9365-.8356-11.0629Z" class="colord0876a svgShape"></path><path fill="#4a5b9d" d="M240.14476 385.2454s8.3822 36.0762 16.2773 39.7683l1.1584.8129.1634 7.9872S242.43136 419.0474 240.14476 385.2454zM116.499 428.0254s1.8223-32.1598 7.0027-44.3345c0 0-9.4062 27.724-8.9201 44.4317z" class="color574a9d svgShape"></path><path fill="#6a7fd0" d="M175.14576,310.3201s5.925,9.131,9.3245,5.7316a16.55533,16.55533,0,0,1,8.0626-4.1772l-1.845-6.0221Z" opacity=".55" class="colord0876a svgShape"></path><path fill="#121b3c" d="M164.26906,290.1531s-52.2854-22.7381-15.813-47.5901,60.1308,18.0645,57.2289,33.4928c-2.9031,15.4283-7.5332,16.7138-7.5332,16.7138Z" class="color121e3c svgShape"></path><path fill="#8ebbe9" d="M200.547,280.6508c-1.4168,5.2982-2.2018,26.8811-17.2454,31.1545-15.0643,4.295-19.0977-24.5707-18.9674-26.5109a9.25076,9.25076,0,0,1,.24-1.6351c1.9402-8.6118,14.5203-6.1484,23.4806-6.1701.3268,0,.6536-.0217.9587-.0217,9.5054-.2617,8.9832-5.2972,8.9832-5.2972s2.0922-2.3766,4.9052,1.6351C205.73556,277.7953,200.547,280.6508,200.547,280.6508Z" class="colore9aa8e svgShape"></path><path fill="#6a7fd0" d="M192.24026,288.1726s-7.0854-5.5382-13.4954-7.4784c-6.409-1.9401-13.212,2.7252-13.212,2.7252a5.424,5.424,0,0,1-.9587.2399c1.9402-8.6118,14.5203-6.1484,23.4806-6.1701C189.23176,280.8038,192.24026,288.1726,192.24026,288.1726Z" opacity=".55" class="colord0876a svgShape"></path><path fill="#121b3c" d="M185.77026,272.4919s6.9591,21.0027,7.7886,15.539c.8294-5.4627,2.4335-18.5247,2.4335-18.5247Z" class="color121e3c svgShape"></path><path fill="#6a7fd0" d="M199.72066,273.0845s2.7851,1.8781,2.0725,3.3033c-.7125,1.4241-1.5544,3.1078-1.5544,3.1078s.9711-2.266.7126-3.4315S199.00916,273.733,199.72066,273.0845Z" class="colord0876a svgShape"></path><path fill="#2c3558" d="M159.89536 282.2807s4.1441-12.5636 27.1976-8.0296C187.093 274.2511 161.57906 258.9676 159.89536 282.2807zM145.38956 263.242s23.4424-16.5784 34.9687-11.9162c11.5272 4.6633 22.6656 16.5784 22.6656 16.5784s-12.0454-26.2916-26.1623-28.8813c-14.1169-2.5907-40.9267 20.074-37.5593 23.1828S145.38956 263.242 145.38956 263.242z" opacity=".5" class="color312c58 svgShape"></path><path fill="#4a5b9d" d="M183.98516,337.7132s2.72,49.734-6.2166,80.8171c-8.9366,31.0841-1.9433,153.0875-1.9433,153.0875h1.9433s-5.9808-111.2797,1.3589-142.0142C191.94966,375.9199,183.98516,337.7132,183.98516,337.7132Z" class="color574a9d svgShape"></path><path fill="#4a5b9d" d="M159.89536,504.3995s22.5354,14.7644,34.192,9.3244c11.6565-5.4389,64.8872,1.5544,66.0527-2.7189,1.1656-4.2744,1.5534-16.7076,1.5534-16.7076Z" opacity=".5" class="color574a9d svgShape"></path><path fill="#8ebbe9" d="M290.41336,490.9724c-2.7685,3.357-8.5901,5.8867-16.1108,7.7824-29.2578,7.3698-84.0894,5.1897-84.0894,5.1897s-2.3114-9.2665-.7632-9.31,70.1803-19.9922,71.0738-25.2026c.7198-4.0985-4.0551-28.7778-3.4232-43.2112.153-3.9021.7198-7.042,1.875-8.8508,5.472-8.4381,27.7757-7.6531,27.7757-7.6531S303.974,474.5554,290.41336,490.9724Z" class="colore9aa8e svgShape"></path><path fill="#2c3558" d="M188.75706,502.7107l1.5316-.1397s-.4178-4.3178-11.4218-15.3218-11.5614-7.9396-14.2079-7.6614c-2.6466.2793-18.804,9.4723-14.4862,14.6258C154.49166,499.3671,188.75706,502.7107,188.75706,502.7107Z" class="color312c58 svgShape"></path><path fill="#222a49" d="M173.43416,507.5859s-19.9178-8.497-23.2614-12.6763c-3.3425-4.1782,12.8149-14.2069,17.8298-13.5109,5.0148.6971,23.2614,19.7793,22.2861,21.1723C189.31446,503.9641,175.94216,508.4215,173.43416,507.5859Z" class="color242249 svgShape"></path><path fill="#8ebbe9" d="M189.45,494.6376a106.9365,106.9365,0,0,1-10.3225-8.3057c-5.05-4.6632-.1933,6.2166-.1933,6.2166s-27.9754,8.5478-16.3188,12.4333c11.6555,3.8855,27.5947-1.0353,27.5947-1.0353Z" class="colore9aa8e svgShape"></path><path fill="#6a7fd0" d="M290.41336,490.9724c-2.7685,3.357-8.5901,5.8867-16.1108,7.7824-5.2983-3.0302,4.7956-10.3989,13.4291-15.3476,10.8799-6.2136,3.8814-56.7067-.3919-53.2183s-27.209-1.1769-27.209-1.1769a6.55351,6.55351,0,0,1-3.0302-2.7913c.153-3.9021.7198-7.042,1.875-8.8508,5.472-8.4381,27.7757-7.6531,27.7757-7.6531S303.974,474.5554,290.41336,490.9724Z" opacity=".55" class="colord0876a svgShape"></path><path fill="#6e90b2" d="M245.46576,332.0095s35.6491,10.7341,46.1939,87.4175c0,0-28.0808,11.2242-36.4,5.2217C246.94156,418.6461,245.46576,332.0095,245.46576,332.0095Z" class="color6f6eb2 svgShape"></path><g opacity=".95" fill="#000000" class="color000000 svgShape"><path fill="url(#E)" d="M189.75556,383.4193v4.2512H60.83456v-4.2512a7.38618,7.38618,0,0,1,7.3871-7.3871h114.151A7.38529,7.38529,0,0,1,189.75556,383.4193Z"></path><path fill="url(#F)" d="M189.75556,387.6705V453.478a7.38526,7.38526,0,0,1-7.3829,7.387H68.22166a7.38616,7.38616,0,0,1-7.3871-7.387V387.6705Z"></path><path fill="#d8e9fa" d="M75.75616 382.4479a1.9397 1.9397 0 11-1.9401-1.9401A1.93979 1.93979 0 0175.75616 382.4479zM80.53076 382.4479a1.9397 1.9397 0 11-1.9393-1.9401A1.93917 1.93917 0 0180.53076 382.4479z" class="colord8f0fa svgShape"></path><path fill="#325dfe" d="M85.30616,382.4479a1.9397,1.9397,0,1,1-1.94-1.9401A1.93976,1.93976,0,0,1,85.30616,382.4479Z" class="colorfeaa32 svgShape"></path></g><path fill="#ffffff" d="M131.87086 412.4075h-12.174a2.66075 2.66075 0 100 5.3215h12.174a2.66075 2.66075 0 000-5.3215zM177.10746 412.4075h-36.625a2.66075 2.66075 0 000 5.3215h36.625a2.66075 2.66075 0 000-5.3215zM177.10746 423.5622h-57.4106a2.6607 2.6607 0 100 5.3214h57.4106a2.6607 2.6607 0 000-5.3214zM131.87086 433.6473h-12.174a2.6607 2.6607 0 100 5.3214h12.174a2.6607 2.6607 0 000-5.3214z" class="colorffffff svgShape"></path><path fill="#172f89" d="M109.35716,426.6177v-5.4202l-4.2471-.3897a15.0201,15.0201,0,0,0-2.1568-5.1931l2.7324-3.2854-3.8321-3.832-3.2853,2.7358a15.03209,15.03209,0,0,0-5.1897-2.1603l-.3904-4.2471h-5.4195l-.3904,4.2471a15.06031,15.06031,0,0,0-5.1931,2.1603l-3.2853-2.7358-3.8314,3.832,2.7351,3.2854a15.0672,15.0672,0,0,0-2.1602,5.1931l-4.2472.3897v5.4202l4.2472.3896a15.03464,15.03464,0,0,0,2.1602,5.1932l-2.7351,3.2853,3.8314,3.8321,3.2853-2.7324c.0419.0254.0803.0508.1214.0768a15.07024,15.07024,0,0,0,5.0717,2.08l.0673,4.276h6.0657l.0673-4.276a15.07109,15.07109,0,0,0,2.4538-.7347,14.69981,14.69981,0,0,0,1.5086-.6997c.4219-.2209.8308-.4638,1.2273-.7224l3.2853,2.7324,3.8321-3.8321-2.7324-3.2853a15.015,15.015,0,0,0,2.1568-5.1932ZM90.275,433.473a9.5507,9.5507,0,1,1,9.5494-9.5527A9.551,9.551,0,0,1,90.275,433.473Z" class="color175689 svgShape"></path><g opacity=".2" fill="#000000" class="color000000 svgShape"><path fill="#2b4090" d="M105.11626 420.816a9.92129 9.92129 0 00-5.2816-5.8688l3.9425-4.4907 1.9133 1.8831-2.7324 3.2854A15.04177 15.04177 0 01105.11626 420.816zM75.43576 427.0135a9.92164 9.92164 0 005.2816 5.8696l-3.9432 4.4906-1.9126-1.8831 2.7324-3.2853A15.04092 15.04092 0 0175.43576 427.0135z" class="color2b3990 svgShape"></path></g><g opacity=".2" fill="#000000" class="color000000 svgShape"><path fill="#2b4090" d="M87.17766 409.0735a9.92166 9.92166 0 00-5.8689 5.2823l-4.49-3.9432 1.8824-1.9133 3.2861 2.7324A15.0275 15.0275 0 0187.17766 409.0735zM103.73326 437.4176l-1.8824 1.9133-3.2861-2.7317c-.393.2586-.8012.4988-1.2204.7224a14.60184 14.60184 0 01-1.3226.6208 14.86723 14.86723 0 01-2.6474.8143 11.19349 11.19349 0 002.375-1.2046 10.30328 10.30328 0 001.464-1.1868 8.667 8.667 0 002.0299-2.8909z" class="color2b3990 svgShape"></path></g><g opacity=".2" fill="#000000" class="color000000 svgShape"><path fill="#2b4090" d="M102.96076 432.2183a9.92129 9.92129 0 00.4151-7.885l5.9628-.387.0213 2.6844-4.2547.391A15.05261 15.05261 0 01102.96076 432.2183zM77.59126 415.6112a9.92307 9.92307 0 00-.4151 7.8858l-5.9628.3869-.0213-2.6844 4.2547-.3917A15.06456 15.06456 0 0177.59126 415.6112z" class="color2b3990 svgShape"></path></g><g opacity=".2" fill="#000000" class="color000000 svgShape"><path fill="#2b4090" d="M90.01776 443.0176H87.236l-.0666-4.2718a15.05128 15.05128 0 01-5.1965-2.1452c.0439.0206.0898.0405.1337.0597a9.8961 9.8961 0 007.752.3553zM98.57856 411.229a9.91965 9.91965 0 00-7.8844-.4151l-.3869-5.9635 2.6837-.0213.3917 4.2554A15.042 15.042 0 0198.57856 411.229z" class="color2b3990 svgShape"></path></g><path fill="#142a7c" d="M90.275,413.2788a10.64355,10.64355,0,1,0,10.6456,10.6415A10.64155,10.64155,0,0,0,90.275,413.2788Zm0,20.1942a9.5507,9.5507,0,1,1,9.5494-9.5527A9.551,9.551,0,0,1,90.275,433.473Z" class="color14527c svgShape"></path><path fill="#ffffff" d="M564.78856 440.1096l-20.9095-24.7634L519.112 436.2574l-1.6334 19.3908 15.4002-13.0125a90.67407 90.67407 0 01-175.2095-8.6336 6.76053 6.76053 0 00-13.2351 2.7661 104.22587 104.22587 0 00203.0304 4.1454l15.6867 18.5868zM373.75276 394.435l1.6366-19.3917-15.4006 13.0109a90.67678 90.67678 0 01174.6409 6.0932 6.75926 6.75926 0 0013.147-3.1475 104.22951 104.22951 0 00-202.3772-1.2223l-15.6867-18.5866-1.6336 19.392 20.9095 24.7632z" class="colorffffff svgShape"></path><path fill="#ffffff" d="M387.84776 422.1204v25.517a7.82722 7.82722 0 007.8765 7.8473 7.69831 7.69831 0 005.5828-2.2642 7.4984 7.4984 0 002.3161-5.5831v-25.517h-5.1865v25.4647a2.83336 2.83336 0 01-2.8443 2.8442 2.78922 2.78922 0 01-2.0296-.8301 2.7191 2.7191 0 01-.8404-2.0141V422.1204zM408.97426 422.1204v32.9962h4.9769V442.6868h2.8699a7.45111 7.45111 0 005.5165-2.3172 7.67194 7.67194 0 002.2799-5.583v-4.7924a7.94188 7.94188 0 00-2.0047-5.5838 7.58 7.58 0 00-5.7917-2.29zm10.0456 5.8719a2.84132 2.84132 0 01.7778 2.0807v4.8188a2.79664 2.79664 0 01-.8289 2.0275 2.72709 2.72709 0 01-2.0155.8425h-3.0021V427.2023h3.0021A2.76615 2.76615 0 01419.01986 427.9923zM437.33836 422.0939h-7.8217v33.0227h7.8217a7.49386 7.49386 0 005.5315-2.3174 7.65493 7.65493 0 002.2907-5.5828V429.9677a7.64133 7.64133 0 00-2.2764-5.5573A7.49 7.49 0 00437.33836 422.0939zm2.9766 25.228a2.823 2.823 0 01-.8151 2.0143 2.6632 2.6632 0 01-2.0037.8563h-3.0021V427.1758h3.0021a2.69354 2.69354 0 011.9897.843 2.78323 2.78323 0 01.8291 2.0277zM449.51306 455.1166h5.1786l1.2112-7.5844h5.1975l1.1636 7.5844h5.2334l-5.531-32.9962h-6.8449zm9.0034-25.4391l1.8456 13.0093h-3.6885z" class="colorffffff svgShape"></path><polygon fill="#ffffff" points="478.222 455.117 478.222 427.123 483.485 427.123 483.485 422.12 467.949 422.12 467.949 427.123 473.245 427.123 473.245 455.117 478.222 455.117" class="colorffffff svgShape"></polygon><path fill="#ffffff" d="M403.035 415.4669h-14.5329V380.1106h5.3348V410.163h9.1981zM413.55266 407.3407l-1.2962 8.1262h-5.5549l6.0103-35.3563h7.3364l5.9262 35.3563h-5.6063l-1.2478-8.1262zm2.7997-19.1306l-1.9754 13.9382h3.9508zM431.13766 385.4728h-5.671v-5.3622h16.648v5.3622h-5.642v29.9941h-5.335zM446.40126 415.4669V380.0832h15.1833v5.3608h-9.8481v9.6509h7.1937v5.3608h-7.1937v9.6511h9.8481v5.3601zM482.88836 406.6631a9.94023 9.94023 0 01-1.9206 6.321 6.88952 6.88952 0 01-3.6664 2.5102 9.99267 9.99267 0 01-2.965.3966 8.38314 8.38314 0 01-5.1895-1.5519 8.70463 8.70463 0 01-2.7255-3.4565 13.99714 13.99714 0 01-1.1705-5.0094l5.0794-.3655a7.73633 7.73633 0 001.6361 4.4808 2.737 2.737 0 002.2018.9926 3.3056 3.3056 0 002.7935-1.7229 4.26688 4.26688 0 00.5369-2.3444 6.514 6.514 0 00-2.0047-4.3774q-1.58085-1.49625-4.7401-4.4911a20.26037 20.26037 0 01-3.7536-4.6026 10.66707 10.66707 0 01-1.1832-4.9709q0-4.8303 3.2429-7.315a8.07124 8.07124 0 014.9662-1.4973 9.02042 9.02042 0 014.8822 1.2712 7.331 7.331 0 012.554 2.7642 10.2276 10.2276 0 011.1705 4.0917l-5.1054.9312a6.17128 6.17128 0 00-1.2416-3.3854 2.61285 2.61285 0 00-2.1176-.8761 2.43494 2.43494 0 00-2.2278 1.2981 5.00942 5.00942 0 00-.6207 2.5963 7.79729 7.79729 0 002.0855 4.9386 17.71045 17.71045 0 002.3732 2.2564q1.8621 1.5525 2.454 2.1728a18.15834 18.15834 0 013.0459 3.8946 14.59646 14.59646 0 01.8174 1.6652A9.63555 9.63555 0 01482.88836 406.6631zM492.22556 385.4728h-5.6713v-5.3622h16.6478v5.3622h-5.6415v29.9941h-5.335z" class="colorffffff svgShape"></path><polygon fill="#ffffff" points="502.586 427.097 502.586 422.094 488.418 422.094 488.418 455.117 502.586 455.117 502.586 450.113 493.396 450.113 493.396 441.107 500.108 441.107 500.108 436.103 493.396 436.103 493.396 427.097 502.586 427.097" class="colorffffff svgShape"></polygon><rect width="51.104" height="30.972" x="342.814" y="672.899" fill="#ffffff" class="colorffffff svgShape"></rect><rect width="51.104" height="30.972" x="398.047" y="672.899" fill="#ffffff" class="colorffffff svgShape"></rect><rect width="51.104" height="30.972" x="453.28" y="672.899" fill="#ffffff" class="colorffffff svgShape"></rect><rect width="51.104" height="30.972" x="508.514" y="672.899" fill="#ffffff" opacity=".2" class="colorffffff svgShape"></rect><rect width="25.681" height="30.972" x="508.514" y="672.899" fill="#ffffff" class="colorffffff svgShape"></rect><path fill="#ffffff" d="M287.58026,688.3849a15.48608,15.48608,0,0,0,15.4859,15.486H338.684V672.8992h-35.6178A15.48589,15.48589,0,0,0,287.58026,688.3849Z" class="colorffffff svgShape"></path><path fill="#ffffff" d="M599.36456,672.8992h-35.6177v30.9717h35.6177a15.48585,15.48585,0,1,0,0-30.9717Z" opacity=".2" class="colorffffff svgShape"></path><path fill="#ffffff" d="M435.70336 717.4127a2.81132 2.81132 0 01-.1048.7395q-.36405 2.0643-.6719 4.1028-.3045 2.0361-.5505 4.1005-.26235 2.12355-.4875 4.245-.2271 2.12385-.4896 4.2452l-.1051.9958a3.27921 3.27921 0 00-.0535.3571 1.01486 1.01486 0 01-.0865.3358.54585.54585 0 01-.2262.2402.85842.85842 0 01-.4385.0932 2.57315 2.57315 0 01-.4968-.0628 4.3436 4.3436 0 01-.6112-.1796 3.44827 3.44827 0 01-.5596-.2637.71267.71267 0 01-.322-.3196 1.6906 1.6906 0 01-.0537-.2214 1.45211 1.45211 0 01-.0163-.2357 2.73512 2.73512 0 01.0956-.6975 6.49156 6.49156 0 00.1492-.6974c.0583-.331.1097-.6599.1565-.9819.0466-.3241.0886-.6508.1235-.9843q.29415-2.14815.5668-4.2731.2694-2.12025.6205-4.2426.245-1.4241.4968-2.806.25185-1.3821.5154-2.8059c-.7581.0465-1.516.0862-2.2788.1211q-1.144.049-2.2975.0492c-.0934 0-.1958-.0024-.3055-.0072a1.24371 1.24371 0 01-.3057-.049.65665.65665 0 01-.2355-.1282.31255.31255 0 01-.0955-.2427.93685.93685 0 01.3917-.8185 2.12482 2.12482 0 011.0053-.3499c.3382-.0466.6742-.0817 1.0125-.1003s.6764-.0421 1.0122-.07c.6647-.0583 1.3459-.1469 2.0454-.2706a11.71426 11.71426 0 012.0434-.1866c.2775 0 .4526.0863.5226.2566a1.35641 1.35641 0 01.1048.5132 1.23979 1.23979 0 01-.0349.2986A1.25981 1.25981 0 00435.70336 717.4127zM446.91786 730.6285c0 .3709-.021.7815-.0607 1.2338a9.74927 9.74927 0 01-.2285 1.3739 6.73964 6.73964 0 01-.471 1.3459 4.60468 4.60468 0 01-.7768 1.1615 3.54047 3.54047 0 01-1.1524.8187 3.91743 3.91743 0 01-1.6069.3055 3.21081 3.21081 0 01-1.6583-.4197 4.39145 4.39145 0 01-1.2504-1.1034 6.83664 6.83664 0 01-.8909-1.5394 12.24323 12.24323 0 01-.5761-1.7237 13.83766 13.83766 0 01-.315-1.6652 11.89552 11.89552 0 01-.0955-1.3529c0-.2567.0069-.5132.0186-.7697s.0162-.5226.0162-.7978a20.09119 20.09119 0 01.7254-5.4277 24.432 24.432 0 012.1389-5.1686c.0351-.0769.0816-.1751.1399-.2917a2.042 2.042 0 01.2193-.3499 1.59949 1.59949 0 01.2799-.2914.51625.51625 0 01.3406-.1213 1.23363 1.23363 0 01.4712.1003 2.059 2.059 0 01.4455.2472 1.26742 1.26742 0 01.3219.3499.73894.73894 0 01.1235.3848 1.64076 1.64076 0 01-.1399.5271q-.1398.35685-.3242.7627c-.1213.2706-.2472.5319-.3754.7815-.1285.2519-.2217.4454-.2799.5784-.2427.6251-.4689 1.2526-.6719 1.88a19.67864 19.67864 0 00-.5154 1.9079 2.97132 2.97132 0 01.7953-.3196 3.57511 3.57511 0 01.8816-.1072 3.83788 3.83788 0 011.8171.3988 3.77826 3.77826 0 011.2477 1.0474 5.07406 5.07406 0 01.7768 1.4741 10.50183 10.50183 0 01.4199 1.6793 14.13572 14.13572 0 01.175 1.6677C446.90616 729.7469 446.91786 730.2203 446.91786 730.6285zm-6.2883-.6251c.0234.1889.0559.434.0955.7325.0421.2986.0982.6227.1682.9678.07.3476.1538.7022.2517 1.0615a8.18193 8.18193 0 00.3499 1.0191 3.9757 3.9757 0 00.462.8329 1.58555 1.58555 0 00.5947.513.95724.95724 0 00.6367-.3126 2.52142 2.52142 0 00.4641-.7068 4.80956 4.80956 0 00.3057-.9164c.0746-.3337.1328-.6626.1749-.9915.0396-.3265.0652-.6274.0769-.905.0117-.2751.0186-.4874.0186-.6391 0-.1818-.0093-.4455-.0255-.7906q-.02805-.52125-.098-1.1476-.0702-.62625-.182-1.297a8.63693 8.63693 0 00-.2985-1.2314 4.04677 4.04677 0 00-.4431-.9609 1.11575 1.11575 0 00-.6298-.4992 2.75078 2.75078 0 00-.9005.9539 6.4812 6.4812 0 00-.5761 1.318 9.05956 9.05956 0 00-.3148 1.4039 9.26156 9.26156 0 00-.0955 1.2246v.1982A.45482.45482 0 01440.62956 730.0034zM454.07866 723.1669c0 .2752-.0117.5878-.0351.9401a9.13064 9.13064 0 01-.14 1.0822 6.6854 6.6854 0 01-.3054 1.0892 3.49057 3.49057 0 01-.5413.9611 2.46308 2.46308 0 01-2.0175.9398 2.55714 2.55714 0 01-1.2315-.2703 2.51777 2.51777 0 01-.8211-.6975 3.49186 3.49186 0 01-.5061-.947 6.45173 6.45173 0 01-.2706-1.0194 11.50517 11.50517 0 01-.2355-1.3597 11.8226 11.8226 0 01-.0793-1.3738 11.43577 11.43577 0 01.0793-1.3598 5.34535 5.34535 0 01.3405-1.3483 1.08194 1.08194 0 01-.0957-.1492.312.312 0 01-.0442-.1634v-.0862a.27412.27412 0 01.0349-.1121 4.1121 4.1121 0 01.4361-.6764 3.14886 3.14886 0 011.3624-1.0122 2.515 2.515 0 01.926-.1634 2.37394 2.37394 0 011.2314.3058 2.82089 2.82089 0 01.8654.8046 4.43732 4.43732 0 01.5574 1.1243 8.23928 8.23928 0 01.3148 1.2618 11.75554 11.75554 0 01.14 1.2245C454.067 722.5557 454.07866 722.8918 454.07866 723.1669zm-1.9571.483c0-.1889-.0045-.4247-.0162-.7046s-.0351-.5761-.07-.8909c-.0351-.3126-.0817-.6322-.14-.9611-.0582-.3265-.1282-.6437-.2099-.9468a4.57 4.57 0 00-.3055-.8257 2.26325 2.26325 0 00-.4106-.5995 7.16966 7.16966 0 00-.646.8981 3.85523 3.85523 0 00-.3755.8326 4.02571 4.02571 0 00-.1658.884c-.0231.3078-.0348.653-.0348 1.0332 0 .1237.0093.322.0255.5971.0186.2754.0444.5878.0793.9329.0351.3478.0841.7046.1471 1.0753a8.50015 8.50015 0 00.2379 1.0125 2.94719 2.94719 0 00.3311.7533.53428.53428 0 00.4363.3009.2595.2595 0 00.1749-.0864 1.51 1.51 0 00.1655-.1935c.0537-.07.1027-.1447.1493-.2192.0468-.0769.0817-.1376.1051-.1866a5.25624 5.25624 0 00.4105-1.3318A8.55309 8.55309 0 00452.12156 723.6499zm7.6156-3.816a1.35959 1.35959 0 01-.1655.6391c-.1121.21-.2193.4151-.3244.6134q-1.39575 2.99145-2.6987 5.9759-1.29795 2.98425-2.5399 5.9897c-.0351.0838-.084.2169-.1493.3965-.063.182-.1306.3661-.2006.5575-.07.1889-.1399.3637-.2099.5271a1.14563 1.14563 0 01-.1751.3126.426.426 0 01-.3475.1422 1.62334 1.62334 0 01-.4104-.0629 2.3311 2.3311 0 01-.4456-.1726 1.36455 1.36455 0 01-.359-.2566.43349.43349 0 01-.1471-.3057 2.59157 2.59157 0 01.2006-.6413c.133-.3406.3148-.7743.5412-1.2945q.3393-.7839.7767-1.7541.4371-.96555.9074-1.992.4722-1.02855.9446-2.0385.4722-1.011.8723-1.8659.4023-.85365.6998-1.5021c.1982-.4315.3427-.7418.4361-.9331l.9074-1.9079c.07-.161.14-.3241.21-.4851a3.0044 3.0044 0 01.2448-.4548 1.18312 1.18312 0 01.1913-.2216.44385.44385 0 01.2985-.0934.92852.92852 0 01.6717.2637A.78785.78785 0 01459.73716 719.8339zm4.1215 10.7387c0 .2751-.0117.5878-.0351.9398a9.02843 9.02843 0 01-.14 1.0825 6.334 6.334 0 01-.3055 1.0891 3.43347 3.43347 0 01-.541.9611 2.57518 2.57518 0 01-.8304.6857 2.583 2.583 0 01-3.2397-.7136 3.52135 3.52135 0 01-.5064-.9471 6.46168 6.46168 0 01-.2703-1.017 12.04654 12.04654 0 01-.2358-1.3621 12.40093 12.40093 0 01-.0793-1.3738 12.02635 12.02635 0 01.0793-1.36 5.44583 5.44583 0 01.3406-1.3457 1.2714 1.2714 0 01-.0955-.1492.32832.32832 0 01-.0444-.1658v-.0838a.27962.27962 0 01.0351-.1144 4.34843 4.34843 0 01.4361-.6764 3.22241 3.22241 0 011.3645-1.0123 2.55385 2.55385 0 01.9236-.1633 2.37449 2.37449 0 011.2315.3057 2.81673 2.81673 0 01.8654.8047 4.38155 4.38155 0 01.5598 1.1266 8.41788 8.41788 0 01.3124 1.2594 11.76451 11.76451 0 01.14 1.2246C463.847 729.9614 463.85866 730.2974 463.85866 730.5726zm-1.9547.4851c0-.1914-.0069-.4269-.0187-.7068s-.0348-.5761-.0699-.8885c-.0349-.315-.0817-.6346-.14-.9635-.0583-.3265-.1283-.6413-.2099-.947a4.39533 4.39533 0 00-.3055-.8257 2.21947 2.21947 0 00-.4106-.5971 7.03545 7.03545 0 00-.6461.8957 4.07 4.07 0 00-.3754.8352 4.00189 4.00189 0 00-.1656.8816c-.0234.3102-.0351.653-.0351 1.0332 0 .1237.0093.322.0258.5971.0187.2776.0442.5878.0793.933.0349.3475.0839.7067.1493 1.0752a7.9735 7.9735 0 00.2355 1.0125 3.40386 3.40386 0 00.322.7557.52793.52793 0 00.4454.2986.25006.25006 0 00.1748-.0865 1.47092 1.47092 0 00.1658-.1911c.0535-.0723.1025-.1447.1493-.2216.0466-.0748.0814-.1376.1048-.1844a5.17634 5.17634 0 00.4106-1.3318A8.61263 8.61263 0 00461.904 731.0577z" class="colorffffff svgShape"></path></svg>