<svg xmlns="http://www.w3.org/2000/svg" enable-background="new 0 0 2000 2000" viewBox="0 0 2000 2000" id="Studentsgettingonlineeducation"><g fill="#000000" class="color000000 svgShape"><path fill="#c2d5e9" d="M581.7 1585.4c-1.5 0-2.8-1.2-2.8-2.7 0-1.6 1.2-2.8 2.8-2.9 7.5-.2 15-.6 22.3-1.2 1.5-.1 2.9 1 3.1 2.5.1 1.5-1 2.9-2.5 3.1C597.1 1584.8 589.4 1585.3 581.7 1585.4 581.8 1585.4 581.8 1585.4 581.7 1585.4zM536.6 1583.5c-.1 0-.2 0-.3 0-14.5-1.5-29.6-3.9-44.9-7.1-1.5-.3-2.5-1.8-2.2-3.3.3-1.5 1.8-2.5 3.3-2.2 15.1 3.2 30 5.5 44.3 7 1.5.2 2.7 1.5 2.5 3.1C539.3 1582.4 538 1583.5 536.6 1583.5zM448.2 1565.3c-.3 0-.5 0-.8-.1-13.7-4.1-28.2-8.9-43-14.3-1.5-.5-2.2-2.2-1.7-3.6.5-1.5 2.2-2.2 3.6-1.7 14.7 5.4 29.1 10.2 42.7 14.2 1.5.4 2.3 2 1.9 3.5C450.5 1564.5 449.4 1565.3 448.2 1565.3zM363.3 1534.4c-.4 0-.7-.1-1.1-.2-15.3-6.5-28.8-12.7-41.2-19-1.4-.7-1.9-2.4-1.2-3.8.7-1.4 2.4-1.9 3.8-1.2 12.4 6.2 25.7 12.4 40.9 18.8 1.4.6 2.1 2.3 1.5 3.7C365.4 1533.8 364.4 1534.4 363.3 1534.4zM283 1493.2c-.5 0-1.1-.1-1.5-.5-13.3-8.6-25.6-17.8-36.4-27.4-1.2-1-1.3-2.8-.2-4 1-1.2 2.8-1.3 4-.2 10.6 9.4 22.6 18.4 35.8 26.9 1.3.8 1.7 2.6.8 3.9C284.8 1492.8 283.9 1493.2 283 1493.2zM215.9 1433.2c-.8 0-1.7-.4-2.2-1.1-9.3-12.2-17.2-25.4-23.4-39.3-.6-1.4 0-3.1 1.4-3.7 1.4-.6 3.1 0 3.7 1.4 6.1 13.5 13.7 26.4 22.7 38.2.9 1.2.7 3-.5 3.9C217.1 1433.1 216.5 1433.2 215.9 1433.2zM179.6 1351.4c-1.3 0-2.5-1-2.8-2.3-1.5-8.8-2.3-17.7-2.3-26.3 0-6.6.4-13.2 1.3-19.5.2-1.5 1.6-2.6 3.2-2.4 1.5.2 2.6 1.6 2.4 3.2-.8 6.1-1.3 12.4-1.3 18.8 0 8.3.7 16.9 2.2 25.4.3 1.5-.8 3-2.3 3.2C179.9 1351.4 179.8 1351.4 179.6 1351.4zM192.6 1263.6c-.4 0-.9-.1-1.3-.3-1.4-.7-1.9-2.4-1.2-3.8 7.1-13.3 16.4-25.5 27.9-36.4 1.1-1.1 2.9-1 4 .1 1.1 1.1 1 2.9-.1 4-11 10.5-20 22.2-26.8 34.9C194.5 1263.1 193.6 1263.6 192.6 1263.6zM1430.6 1241.9c-3.7 0-7.5 0-11.2 0-1.6 0-2.8-1.3-2.8-2.8 0-1.5 1.3-2.8 2.8-2.8 0 0 0 0 0 0 15.2.1 30.5 0 45.1-.4 1.7 0 2.8 1.2 2.9 2.7 0 1.6-1.2 2.8-2.7 2.9C1453.6 1241.8 1442.1 1241.9 1430.6 1241.9zM1374.2 1240.9C1374.2 1240.9 1374.2 1240.9 1374.2 1240.9c-14.7-.5-30-1.2-45.3-2.2-1.5-.1-2.7-1.4-2.6-3 .1-1.6 1.4-2.8 3-2.6 15.3.9 30.5 1.6 45.1 2.2 1.6.1 2.8 1.4 2.7 2.9C1377 1239.7 1375.7 1240.9 1374.2 1240.9zM1509.8 1239.7c-1.5 0-2.7-1.2-2.8-2.6-.1-1.5 1.1-2.9 2.6-3 16.2-1 30.9-2.3 44.8-3.9 1.5-.2 2.9.9 3.1 2.5.2 1.5-.9 2.9-2.5 3.1-14 1.7-28.8 3-45.2 4C1509.9 1239.7 1509.8 1239.7 1509.8 1239.7zM1284 1235.5c-.1 0-.2 0-.2 0-14.5-1.2-29.6-2.6-45.1-4.1-1.5-.2-2.7-1.5-2.5-3.1.1-1.6 1.6-2.7 3.1-2.5 15.4 1.5 30.5 2.9 45 4.1 1.5.1 2.7 1.5 2.6 3C1286.7 1234.4 1285.5 1235.5 1284 1235.5zM1599.4 1228.5c-1.3 0-2.5-.9-2.7-2.2-.3-1.5.6-3 2.2-3.3 15.3-3.2 29.8-7.2 43.3-11.8 1.5-.5 3.1.3 3.6 1.7.5 1.5-.3 3.1-1.7 3.6-13.7 4.7-28.4 8.7-43.9 12C1599.8 1228.4 1599.6 1228.5 1599.4 1228.5zM1194.1 1226.5c-.1 0-.2 0-.3 0-15-1.7-29.9-3.6-44.9-5.5-1.5-.2-2.6-1.6-2.4-3.2.2-1.5 1.6-2.6 3.2-2.4 14.9 1.9 29.9 3.8 44.8 5.5 1.5.2 2.6 1.6 2.5 3.1C1196.7 1225.4 1195.5 1226.5 1194.1 1226.5zM1104.4 1215c-.1 0-.3 0-.4 0-14.9-2.1-29.9-4.2-44.8-6.4-1.5-.2-2.6-1.7-2.4-3.2.2-1.5 1.7-2.6 3.2-2.4 14.9 2.2 29.8 4.3 44.7 6.4 1.5.2 2.6 1.6 2.4 3.2C1107 1213.9 1105.8 1215 1104.4 1215zM1014.9 1202c-.1 0-.3 0-.4 0l-44.7-6.7c-1.5-.2-2.6-1.7-2.4-3.2.2-1.5 1.7-2.6 3.2-2.4l44.7 6.7c1.5.2 2.6 1.7 2.4 3.2C1017.5 1201 1016.3 1202 1014.9 1202zM256.4 1201.5c-1 0-1.9-.5-2.5-1.4-.8-1.4-.3-3.1 1.1-3.8 12.4-7 26.4-13.2 41.6-18.6 1.5-.5 3.1.2 3.6 1.7.5 1.5-.2 3.1-1.7 3.6-14.9 5.3-28.6 11.4-40.8 18.2C257.3 1201.4 256.9 1201.5 256.4 1201.5zM1684.5 1198.8c-1 0-2-.5-2.5-1.5-.7-1.4-.2-3.1 1.2-3.8 4.8-2.5 9.5-5.2 14-8 8.1-4.9 16-10.4 23.5-16.2 1.2-1 3-.7 3.9.5 1 1.2.7 3-.5 3.9-7.7 6-15.8 11.6-24 16.6-4.6 2.8-9.4 5.5-14.3 8.1C1685.4 1198.7 1684.9 1198.8 1684.5 1198.8zM925.5 1188.7c-.1 0-.3 0-.4 0-14.9-2.2-29.8-4.4-44.7-6.5-1.5-.2-2.6-1.6-2.4-3.2.2-1.5 1.6-2.6 3.2-2.4 14.9 2.1 29.8 4.3 44.7 6.5 1.5.2 2.6 1.7 2.4 3.2C928.1 1187.7 926.9 1188.7 925.5 1188.7zM836 1176.1c-.1 0-.2 0-.4 0-14.9-2-29.9-3.9-44.8-5.7-1.5-.2-2.6-1.6-2.5-3.1.2-1.5 1.6-2.7 3.1-2.4 15 1.8 29.9 3.7 44.9 5.7 1.5.2 2.6 1.6 2.4 3.2C838.6 1175.1 837.4 1176.1 836 1176.1zM341 1170.6c-1.3 0-2.4-.9-2.7-2.2-.3-1.5.6-3 2.1-3.4 13.9-3.2 28.9-5.9 44.7-8.2 1.5-.2 3 .8 3.2 2.4.2 1.5-.9 3-2.4 3.2-15.6 2.2-30.5 4.9-44.3 8.1C341.5 1170.6 341.2 1170.6 341 1170.6zM746.3 1165.3c-.1 0-.2 0-.3 0-15.2-1.6-30.3-3.1-44.9-4.4-1.5-.1-2.7-1.5-2.6-3 .1-1.5 1.5-2.6 3-2.6 14.6 1.3 29.8 2.8 45 4.4 1.5.2 2.7 1.5 2.5 3.1C748.9 1164.2 747.7 1165.3 746.3 1165.3zM430.5 1157.5c-1.4 0-2.7-1.1-2.8-2.6-.1-1.5 1-2.9 2.6-3 4.4-.4 8.7-.7 12.9-1 10.4-.7 21.3-1.4 32.3-1.9 1.6-.1 2.9 1.1 2.9 2.7s-1.1 2.9-2.7 2.9c-11 .5-21.8 1.2-32.2 1.9-4.2.3-8.5.6-12.8 1C430.6 1157.5 430.5 1157.5 430.5 1157.5zM656.2 1157.3c-.1 0-.1 0-.2 0-15.2-1-30.4-1.9-45.1-2.5-1.6-.1-2.8-1.4-2.7-2.9.1-1.6 1.4-2.6 2.9-2.7 14.7.6 29.9 1.5 45.2 2.5 1.6.1 2.7 1.4 2.6 3C658.9 1156.2 657.7 1157.3 656.2 1157.3zM565.9 1153.4C565.9 1153.4 565.9 1153.4 565.9 1153.4c-15.1-.2-30.1-.3-45.2-.1-1.7 0-2.8-1.2-2.8-2.8 0-1.6 1.2-2.8 2.8-2.8 15.1-.2 30.2-.1 45.3.1 1.6 0 2.8 1.3 2.8 2.9C568.7 1152.2 567.5 1153.4 565.9 1153.4zM1755.4 1143.6c-.7 0-1.4-.2-1.9-.7-1.1-1-1.2-2.8-.2-4 9.8-10.8 19-22.7 27.3-35.4.9-1.3 2.6-1.7 3.9-.8 1.3.9 1.7 2.6.8 3.9-8.5 12.9-17.9 25.1-27.9 36.1C1756.9 1143.3 1756.2 1143.6 1755.4 1143.6zM1805.1 1068.5c-.4 0-.8-.1-1.2-.3-1.4-.7-2-2.3-1.3-3.7 6.3-13.2 11.9-27.2 16.7-41.6.5-1.5 2.1-2.3 3.6-1.8 1.5.5 2.3 2.1 1.8 3.6-4.9 14.6-10.5 28.8-16.9 42.2C1807.1 1067.9 1806.1 1068.5 1805.1 1068.5zM1833.7 982.9c-.2 0-.4 0-.6-.1-1.5-.3-2.5-1.8-2.2-3.3 3.1-14.5 5.4-29.4 6.9-44.4.2-1.6 1.6-2.7 3.1-2.5 1.5.2 2.7 1.5 2.5 3.1-1.5 15.1-3.9 30.3-7 44.9C1836.1 982 1835 982.9 1833.7 982.9zM1842.8 893.2c-1.5 0-2.8-1.2-2.8-2.8-.1-15.1-.9-30.1-2.6-44.8-.2-1.5.9-2.9 2.5-3.1 1.5-.2 2.9.9 3.1 2.5 1.7 14.8 2.6 30.1 2.6 45.4C1845.6 891.9 1844.3 893.1 1842.8 893.2 1842.8 893.2 1842.8 893.2 1842.8 893.2zM514.5 825.6c-1.6 0-2.8-1.3-2.8-2.8 0-1.6 1.3-2.8 2.8-2.8 15 0 30.2-.3 45.1-.8 1.5-.1 2.9 1.2 2.9 2.7.1 1.6-1.2 2.9-2.7 2.9C544.8 825.4 529.6 825.6 514.5 825.6zM469.3 824.9C469.3 824.9 469.2 824.9 469.3 824.9c-10.6-.4-21.1-.8-31.5-1.4-4.6-.3-9.2-.6-13.8-.9-1.6-.1-2.7-1.4-2.6-3 .1-1.6 1.4-2.7 3-2.6 4.6.3 9.2.6 13.7.9 10.4.6 20.9 1.1 31.3 1.4 1.6.1 2.8 1.4 2.7 2.9C472.1 823.7 470.8 824.9 469.3 824.9zM604.8 822.5c-1.5 0-2.7-1.1-2.8-2.6-.1-1.5 1.1-2.9 2.6-3 15-1.1 30.1-2.4 44.9-3.9 1.6-.1 2.9 1 3.1 2.5.2 1.5-1 2.9-2.5 3.1-14.9 1.6-30.1 2.9-45.1 4C605 822.5 604.9 822.5 604.8 822.5zM379.2 818c-.1 0-.3 0-.4 0-16.2-2.3-30.8-5.2-44.6-8.8-1.5-.4-2.4-1.9-2-3.4.4-1.5 1.9-2.4 3.4-2 13.6 3.6 28 6.4 44 8.7 1.5.2 2.6 1.6 2.4 3.2C381.8 816.9 380.6 818 379.2 818zM694.7 813c-1.4 0-2.6-1-2.8-2.4-.2-1.5.9-3 2.4-3.2 14.8-2.1 29.8-4.5 44.5-7.2 1.5-.3 3 .7 3.3 2.3.3 1.5-.7 3-2.3 3.3-14.8 2.7-29.8 5.1-44.7 7.2C695 812.9 694.8 813 694.7 813zM1832.5 803.5c-1.3 0-2.4-.9-2.7-2.2-3.4-14.6-7.7-29.1-12.7-43-.5-1.5.2-3.1 1.7-3.6 1.4-.5 3.1.2 3.6 1.7 5.1 14.1 9.5 28.8 12.9 43.6.4 1.5-.6 3-2.1 3.4C1832.9 803.5 1832.7 803.5 1832.5 803.5zM783.6 796.9c-1.3 0-2.5-.9-2.7-2.2-.3-1.5.6-3 2.1-3.3 14.6-3.2 29.4-6.7 43.9-10.5 1.5-.4 3 .5 3.4 2 .4 1.5-.5 3-2 3.4-14.5 3.8-29.4 7.3-44.1 10.5C784 796.9 783.8 796.9 783.6 796.9zM292.3 794.3c-.4 0-.8-.1-1.2-.2-14.4-6.5-27.6-14.3-39.4-23.1-1.2-.9-1.5-2.7-.6-3.9.9-1.2 2.7-1.5 3.9-.6 11.5 8.6 24.4 16.2 38.4 22.5 1.4.6 2 2.3 1.4 3.7C294.4 793.7 293.3 794.3 292.3 794.3zM871.1 774.3c-1.2 0-2.3-.8-2.7-2-.4-1.5.4-3.1 1.9-3.5 14.4-4.3 28.8-9 42.9-13.8 1.5-.5 3.1.3 3.6 1.7.5 1.5-.3 3.1-1.7 3.6-14.2 4.9-28.7 9.6-43.1 13.9C871.7 774.2 871.4 774.3 871.1 774.3zM956.6 744.9c-1.1 0-2.2-.7-2.6-1.8-.6-1.4.2-3.1 1.6-3.6 5.3-2 10.5-4.1 15.7-6.3 8.7-3.5 17.4-7.2 26-10.9 1.4-.6 3.1 0 3.7 1.5.6 1.4 0 3.1-1.5 3.7-8.7 3.8-17.4 7.4-26.1 11-5.2 2.1-10.5 4.2-15.8 6.3C957.3 744.8 956.9 744.9 956.6 744.9zM221.1 740c-.8 0-1.7-.4-2.2-1.1-9.5-12.1-17.1-25.5-22.8-39.8-.6-1.4.1-3.1 1.6-3.6 1.4-.6 3.1.1 3.6 1.6 5.5 13.8 12.8 26.7 22 38.4 1 1.2.7 3-.5 3.9C222.3 739.8 221.7 740 221.1 740zM1801.5 718.9c-1 0-2-.6-2.5-1.5-6.9-13.3-14.8-26.2-23.3-38.2-.9-1.3-.6-3 .7-3.9 1.3-.9 3-.6 3.9.7 8.7 12.2 16.7 25.3 23.7 38.9.7 1.4.2 3.1-1.2 3.8C1802.4 718.8 1801.9 718.9 1801.5 718.9zM1039.5 709c-1.1 0-2.1-.6-2.5-1.6-.7-1.4 0-3.1 1.4-3.7 12.3-5.8 25.2-12 40.7-19.5 1.4-.7 3.1-.1 3.8 1.3.7 1.4.1 3.1-1.3 3.8-15.5 7.6-28.5 13.8-40.8 19.5C1040.3 708.9 1039.9 709 1039.5 709zM1120.9 669.5c-1 0-2-.6-2.5-1.6-.7-1.4-.1-3.1 1.3-3.8 13.5-6.7 27-13.4 40.6-20 1.4-.7 3.1-.1 3.8 1.3.7 1.4.1 3.1-1.3 3.8-13.5 6.6-27 13.3-40.5 20C1121.7 669.4 1121.3 669.5 1120.9 669.5zM187.9 657.2c-1.4 0-2.6-1-2.8-2.5-1.5-11.3-2.2-23.1-2.2-35 0-3.5.1-7 .2-10.5.1-1.6 1.3-2.8 2.9-2.7 1.6.1 2.8 1.4 2.7 2.9-.1 3.4-.2 6.9-.2 10.3 0 11.7.7 23.2 2.2 34.3.2 1.5-.9 2.9-2.4 3.1C188.1 657.2 188 657.2 187.9 657.2zM1749.3 645.5c-.7 0-1.5-.3-2-.9-10.3-10.8-21.4-20.9-33.1-30.1-1.2-1-1.4-2.7-.5-3.9 1-1.2 2.7-1.4 3.9-.5 11.9 9.3 23.2 19.6 33.7 30.6 1.1 1.1 1 2.9-.1 4C1750.7 645.2 1750 645.5 1749.3 645.5zM1202.2 630.1c-1.1 0-2.1-.6-2.5-1.6-.7-1.4 0-3.1 1.4-3.7 13.7-6.4 26.3-12.1 38.5-17.4l2.8-1.2c1.4-.6 3.1 0 3.7 1.5.6 1.4 0 3.1-1.5 3.7l-2.8 1.2c-12.2 5.3-24.7 11-38.4 17.3C1203 630 1202.6 630.1 1202.2 630.1zM1285.2 594.4c-1.1 0-2.2-.7-2.6-1.8-.6-1.4.2-3.1 1.6-3.6 14.6-5.6 28.9-10.8 42.7-15.3 1.5-.5 3.1.3 3.5 1.8.5 1.5-.3 3.1-1.8 3.5-13.7 4.5-28 9.6-42.4 15.2C1285.9 594.3 1285.5 594.4 1285.2 594.4zM1678.4 590c-.5 0-.9-.1-1.4-.4-12.9-7.3-26.5-13.8-40.4-19.2-1.4-.6-2.2-2.2-1.6-3.6.6-1.4 2.2-2.2 3.6-1.6 14.2 5.5 28 12.1 41.1 19.6 1.4.8 1.8 2.5 1.1 3.8C1680.3 589.5 1679.4 590 1678.4 590zM190.7 567.2c-.2 0-.3 0-.5 0-1.5-.3-2.5-1.7-2.3-3.3 2.6-14.7 6.2-29.5 10.8-44.2.5-1.5 2-2.3 3.5-1.8 1.5.5 2.3 2 1.8 3.5-4.5 14.5-8.1 29.1-10.6 43.5C193.3 566.3 192.1 567.2 190.7 567.2zM1371.1 566.3c-1.2 0-2.4-.8-2.7-2.1-.4-1.5.5-3 2-3.4 15-3.9 29.9-7.3 44.3-10 1.5-.3 3 .7 3.3 2.2.3 1.5-.7 3-2.2 3.3-14.3 2.7-29 6-43.9 9.9C1371.5 566.2 1371.3 566.3 1371.1 566.3zM1594.6 557.2c-.2 0-.4 0-.7-.1-14.3-3.4-29.1-6-44.1-7.6-1.5-.2-2.7-1.5-2.5-3.1.2-1.5 1.6-2.7 3.1-2.5 15.3 1.6 30.3 4.2 44.9 7.7 1.5.4 2.4 1.9 2.1 3.4C1597 556.3 1595.8 557.2 1594.6 557.2zM1459.8 549.8c-1.4 0-2.6-1.1-2.8-2.5-.2-1.5 1-2.9 2.5-3.1 15.3-1.6 30.6-2.4 45.4-2.5 0 0 0 0 0 0 1.5 0 2.8 1.2 2.8 2.8 0 1.6-1.2 2.8-2.8 2.8-14.6.1-29.7.9-44.8 2.4C1460 549.8 1459.9 549.8 1459.8 549.8zM217.4 481.1c-.4 0-.8-.1-1.1-.2-1.4-.6-2.1-2.3-1.4-3.7 6.1-13.9 13.1-27.5 20.8-40.5.8-1.3 2.5-1.8 3.8-1 1.3.8 1.8 2.5 1 3.8-7.5 12.8-14.4 26.2-20.5 39.9C219.5 480.5 218.4 481.1 217.4 481.1zM263.2 403.4c-.6 0-1.2-.2-1.7-.6-1.2-.9-1.5-2.7-.5-3.9 7-9.1 14.3-17.9 21.9-26 2.6-2.8 5.3-5.6 8.1-8.3 1.1-1.1 2.9-1.1 4 0 1.1 1.1 1.1 2.9 0 4-2.7 2.6-5.3 5.4-7.9 8.1-7.4 8-14.7 16.6-21.5 25.6C264.9 403 264 403.4 263.2 403.4zM1074.9 356.5C1074.9 356.5 1074.8 356.5 1074.9 356.5c-15-.4-30.3-1.4-45.4-3-1.5-.2-2.7-1.5-2.5-3.1.2-1.5 1.6-2.6 3.1-2.5 15 1.5 30.1 2.5 44.9 2.9 1.6 0 2.8 1.3 2.7 2.9C1077.6 355.3 1076.4 356.5 1074.9 356.5zM1120.1 356c-1.5 0-2.7-1.2-2.8-2.7-.1-1.6 1.1-2.9 2.7-2.9 15.2-.8 30.3-2.1 44.8-4.1 1.5-.2 3 .9 3.2 2.4.2 1.5-.9 3-2.4 3.2-14.7 2-29.9 3.4-45.2 4.2C1120.2 356 1120.1 356 1120.1 356zM985 347.7c-.1 0-.3 0-.4 0-14.2-2.2-28.8-4.8-44.6-7.9-1.5-.3-2.5-1.8-2.2-3.3.3-1.5 1.8-2.5 3.3-2.2 15.7 3.1 30.2 5.6 44.4 7.8 1.5.2 2.6 1.7 2.3 3.2C987.5 346.7 986.3 347.7 985 347.7zM1209.5 343.6c-1.3 0-2.4-.9-2.7-2.2-.4-1.5.6-3 2.1-3.4 14.9-3.5 29.3-7.8 43-12.7 1.5-.5 3.1.2 3.6 1.7.5 1.5-.2 3.1-1.7 3.6-13.9 5-28.6 9.3-43.6 12.9C1209.9 343.6 1209.7 343.6 1209.5 343.6zM327.5 340.4c-.9 0-1.7-.4-2.3-1.2-.9-1.3-.6-3 .7-3.9 12.1-8.6 25.2-16.6 39-23.6 1.4-.7 3.1-.2 3.8 1.2.7 1.4.2 3.1-1.2 3.8-13.5 6.9-26.4 14.7-38.3 23.2C328.6 340.2 328.1 340.4 327.5 340.4zM896.3 330.5c-.2 0-.4 0-.6-.1-14.7-3.3-29.4-6.7-44.1-10.2-1.5-.4-2.4-1.9-2.1-3.4.4-1.5 1.9-2.4 3.4-2.1 14.7 3.5 29.3 6.9 44 10.1 1.5.3 2.5 1.8 2.1 3.4C898.7 329.6 897.5 330.5 896.3 330.5zM1294.3 312.9c-1 0-2-.6-2.5-1.5-.7-1.4-.2-3.1 1.2-3.8 13.5-6.9 26.4-14.7 38.3-23.1 1.3-.9 3-.6 3.9.7.9 1.3.6 3-.7 3.9-12.1 8.6-25.2 16.5-39 23.6C1295.2 312.8 1294.8 312.9 1294.3 312.9zM808.2 309.9c-.2 0-.4 0-.7-.1-14.7-3.5-29.3-6.9-44-10.2-1.5-.3-2.5-1.8-2.1-3.4.3-1.5 1.9-2.4 3.4-2.1 14.7 3.3 29.4 6.7 44.1 10.2 1.5.4 2.4 1.9 2.1 3.4C810.7 309 809.5 309.9 808.2 309.9zM407.6 299.1c-1.2 0-2.2-.7-2.6-1.9-.5-1.5.2-3.1 1.7-3.6 13.9-5 28.6-9.3 43.6-12.8 1.5-.3 3 .6 3.4 2.1.4 1.5-.6 3-2.1 3.4-14.8 3.5-29.3 7.7-43 12.6C408.2 299.1 407.9 299.1 407.6 299.1zM720 290.4c-.2 0-.4 0-.5-.1-15.7-3.1-30.2-5.7-44.4-7.9-1.5-.2-2.6-1.7-2.3-3.2.2-1.5 1.6-2.6 3.2-2.3 14.2 2.2 28.8 4.8 44.6 7.9 1.5.3 2.5 1.8 2.2 3.3C722.5 289.5 721.3 290.4 720 290.4zM495.4 278.3c-1.4 0-2.6-1-2.8-2.4-.2-1.5.9-3 2.4-3.2 14.6-2 29.9-3.3 45.2-4.1 1.5-.1 2.9 1.1 2.9 2.7.1 1.6-1.1 2.9-2.7 2.9-15.2.7-30.3 2.1-44.8 4C495.6 278.3 495.5 278.3 495.4 278.3zM630.7 276.7c-.1 0-.2 0-.3 0-15-1.5-30.1-2.5-44.9-2.9-1.6 0-2.8-1.3-2.7-2.9 0-1.6 1.3-2.8 2.9-2.7 14.9.4 30.1 1.4 45.3 2.9 1.5.2 2.7 1.5 2.5 3.1C633.3 275.7 632.1 276.7 630.7 276.7zM1368.4 259.7c-.7 0-1.4-.3-2-.8-1.1-1.1-1.1-2.9 0-4 5.2-5.2 10.3-10.7 15.1-16.3 1-1.2 2.8-1.3 4-.3 1.2 1 1.3 2.8.3 4-4.9 5.8-10.1 11.4-15.4 16.7C1369.9 259.5 1369.2 259.7 1368.4 259.7z" class="colorc2d2e9 svgShape"></path><path fill="#5382b1" d="M1866.2,1561.7c-12-2-54.1,15.6-80.5-8.5
					c-28.8-25.4-28.7-93.3,23.3-149.8c1.1-1.2,3.1-0.4,3,1.3c-0.8,11.2,0,27.1,8.6,42.6c5.2,9.3,14.9,21.5,19.4,19.6
					c4.6-1.9,3.1-18.9-1.5-32.4c-6.6-19.2-16.6-22.7-17.4-32.2c-0.8-9.3,7.2-23,47-42.3c1.6-0.8,3.2,1,2.2,2.5
					c-9.1,9.1-14.1,47.3,0.1,54c6.3,0.9,16.3-14.1,17.2-29c0.7-11.8-4.9-16.8-1.9-24.6c-0.2-4.4,18.7-18.4,18.3-10.5
					c-4.2,5.2-3.2,20.3,5.2,22.2c4.7-0.1,4.7-11,14.9-23.9c2.9-3.6,26.6-26.8,29.1-24.2c4.2,1,3.7,7.2,10.8,23.7
					c8.7,20.4,13,17-7.9,41c-15.5,15.8-26.1,19.5-33.2,34.6c-9.9,19.8,11,9.6,16.5,6.8c17.1-9.2,25.8-25.6,28.1-30.2
					c6.6-13.3,6.9-22.9,10.2-22.9c8.7,6,12.3,35.8,5.1,47.5c-8.2,14-23.5,10.3-40.1,29.7c-17.9,19.2,9.1,12.8,17.7,9.7
					c8.6-2.8,21.9-8.7,35.8-22.8c1-1,2.7-0.5,2.9,0.9c2.6,36-2.3,27.8-43.8,48.3c-31.9,12.1,23,15.9,38.3-5.8
					c1.1-1.2,3.1-0.3,2.9,1.3c-13.4,82.7-33.7,41.2-63.1,57.7c-17.1,14.3,14.3,17.2,36.3,19.6c5.9,4.3-17.4,28.3-34.4,33.8
					C1904.7,1613.9,1870.4,1594.8,1866.2,1561.7z" class="color53b163 svgShape"></path><path fill="#3f6489" d="M1935.7 1599.3c-31 14.5-65.3-4.6-69.5-37.6-12-2-54.1 15.6-80.5-8.5-28.8-25.4-28.7-93.3 23.3-149.8 1.1-1.2 3.1-.4 3 1.3-.7 9.8-.2 23.3 5.8 36.9-14.3 39.6-8.1 76.4 11.5 93.7 26.4 24.1 68.5 6.5 80.5 8.5 3.2 25.1 23.7 42.2 47 42.6C1950.3 1592 1942.5 1597.2 1935.7 1599.3zM1879.5 1410.1c-6.3-13.7-14.1-17.4-14.9-25.7-.8-9.3 7.2-23 47-42.3 1.6-.8 3.2 1 2.2 2.5-4.5 4.5-8 16.2-8.6 27.6-4.6-5-4.5-15.6-1.2-19.8.4-7.9-18.5 6.1-18.3 10.5-3 7.8 2.5 12.8 1.9 24.6C1887.2 1396 1883.6 1404.6 1879.5 1410.1z" class="color3f897a svgShape"></path><path fill="#273054" d="M1840.9,1602.9c27.8-42.2,36.6-77.7,36.6-77.7c31.4,11.9,68.3,8.4,96.6-9.8c-28.9,16.1-64.6,18.7-95.6,7
					c2.6-7.5,5.1-15,7.6-22.5c30.2,4.9,62.2-6.6,83-28.9c-22.9,18.9-52.6,29.7-82.4,27.1c2.4-7.2,4.8-14.3,7.2-21.3c0,0,0,0,0,0
					c0-0.1,0.1-0.3,0.1-0.4c0.1-0.2,0.1-0.3,0.2-0.5c1.7-5.2,3.4-10.4,5.1-15.5c30.1-2.7,57.7-21.6,72.8-47.5
					c-17.9,23.1-43.3,40.6-72.2,46c7.7-23.3,15.8-46.5,24.1-69.6c13-2.9,24.4-12.2,30.2-24c-8.2,9.1-17.7,16.9-29.2,21.2
					c5.3-14.7,10.7-29.4,16.2-44.1c-6.4,14.8-12.5,29.8-18.4,44.9c0,0-0.1,0-0.1,0l-1,2.5c0,0,0.1,0,0.1,0
					c-2.6,6.7-5.1,13.4-7.6,20.1c-12-9.3-19.9-22.8-23-37.6c-0.9,15.8,8.5,31.6,22.4,39.2c-7.7,20.9-15.1,42-22.1,63.1
					c-31.2-18-50.5-53.1-49.2-89.2c-5.6,36.6,15.4,74.7,48.8,90.4c-2.4,7.4-4.8,14.9-7.2,22.3c-0.1,0-0.1,0-0.2,0l-0.5,1.5
					c0.1,0,0.1,0,0.2,0c-2.4,7.4-4.9,14.8-7.5,22.2c-41.4-6-77.5-39.7-80.7-82.3c0.5,43.7,37.5,79.1,79.6,85.2c0,0,0,0.1,0,0.1
					l-1.5-0.3c0,0-18.8,47.1-41.5,76c-22.7,28.9-59.2,174.7-59.2,174.7l6,6.3C1778.6,1781.3,1813.1,1645.2,1840.9,1602.9z" class="color27544f svgShape"></path><path fill="#3f6489" d="M1881,1721.7
					c-4.7-4.5-28.6-9.6-32.9-28.2c-5-20,15.7-49.8,55.8-58.9c0.8-0.2,1.5,0.8,0.9,1.5c-3.8,4.7-8.3,12-9.1,21.4
					c-0.5,5.7,0.1,14,2.6,14.5c2.6,0.6,7.1-7.4,9.2-14.7c3-10.5-0.4-15,2.1-19.5c2.5-4.3,10.2-8,33.6-4.4c0.9,0.1,1.1,1.4,0.2,1.8
					c-6.8,1.3-20.6,16.6-16.3,23.8c2.5,2.3,11.5-1.2,16.4-7.5c3.9-5,3-8.9,6.7-11.4c1.3-2,13.8-2.4,11.2,0.9
					c-3.4,1-7.6,7.9-4.4,11.4c2.1,1.4,5.4-3.4,13.8-6c2.4-0.7,19.8-3.7,20.2-1.8c1.6,1.7-0.6,4.3-2.5,13.7
					c-2.3,11.6,0.6,11.4-16,15.7c-11.6,2.3-17.4,0.7-25.1,5.2c-10.4,5.7,1.9,7.6,5.2,8c10.3,1.1,19.1-3.4,21.6-4.8
					c7-3.8,10-8,11.5-7c2,5.3-5.5,19.5-12.2,22.5c-7.9,3.7-13.5-2.6-26.7,0.9c-13.7,3,0.2,8.4,4.8,9.7c4.6,1.4,12.3,2.8,22.7,0.9
					c0.7-0.1,1.3,0.6,1,1.3c-9.8,16.6-9.5,11.6-34,8c-17.7-4.4,5.3,14,18.7,9.1c0.8-0.2,1.4,0.8,0.9,1.5c-31,32.4-27.4,7.9-45.3,6.2
					c-11.9,1.1,1.1,11.9,10,19.6c1.3,3.7-16.3,7.2-25.4,4.4C1882.1,1756.4,1872.8,1737.6,1881,1721.7z" class="color3f897a svgShape"></path><path fill="#273054" d="M1900.2 1759.4c-18.1-3-27.4-21.9-19.2-37.7-4.7-4.5-28.6-9.6-32.9-28.2-5-19.9 15.7-49.8 55.8-58.9.8-.2 1.5.8.9 1.5-3.3 4.1-7.2 10.2-8.7 18-18.4 13.1-26.8 31.2-23.4 44.8 4.3 18.6 28.2 23.7 32.9 28.2-6.2 12-2.4 25.8 7.8 33C1908.8 1760.6 1903.8 1760.5 1900.2 1759.4zM1933 1659c1.4-8-.9-11.9 1.3-15.8 2.5-4.3 10.2-8 33.6-4.4.9.1 1.1 1.4.2 1.8-3.3.6-8.4 4.7-12.2 9.5-.5-3.6 2.7-8.3 5.5-9.1 2.6-3.3-10-2.9-11.2-.9-3.7 2.5-2.8 6.4-6.7 11.4C1940.6 1655.1 1936.5 1657.8 1933 1659z" class="color27544f svgShape"></path><path fill="#273054" d="M1857.3,1732.2c25.1-10.2,39.7-23.1,39.7-23.1c10.2,14.8,27.5,24.4,45.5,25c-17.6-1.7-34.2-11.4-44.2-26
					c3.4-2.5,6.8-5.1,10.2-7.6c11.8,11.3,29.4,16,45.3,12.5c-15.9,1.4-32.2-2.9-44.5-13.1c3.2-2.4,6.4-4.9,9.7-7.2c0,0,0,0,0,0
					c0.1,0,0.1-0.1,0.2-0.1c0.1-0.1,0.1-0.1,0.2-0.2c2.3-1.8,4.6-3.5,7-5.3c14.1,8,32,8,46.5,1.2c-14.9,4.7-31.4,4.7-45.8-1.7
					c10.5-7.9,21.1-15.7,31.8-23.3c6.6,2.7,14.4,2,20.6-1.4c-6.4,1.5-13,2.1-19.3,0.5c6.8-4.9,13.7-9.7,20.5-14.5
					c-7.3,4.6-14.6,9.3-21.8,14.2c0,0,0,0-0.1,0l-1.2,0.8c0,0,0,0,0.1,0c-3.2,2.2-6.3,4.3-9.5,6.5c-2.4-7.7-1.9-16.1,1.3-23.5
					c-5.2,6.7-5.8,16.5-2,24.1c-9.8,6.9-19.4,13.9-28.9,21.1c-8.3-17.4-6.1-38.8,5.4-54.3c-13.6,14.4-15.9,37.6-6,54.7
					c-3.3,2.5-6.6,5.1-10,7.6c0,0,0,0-0.1-0.1l-0.7,0.5c0,0,0,0,0.1,0.1c-3.3,2.5-6.7,5.1-10,7.5c-16.4-15.2-22.1-41-10.5-60.8
					c-13.1,19.4-7.5,46.3,9.2,61.8c0,0,0,0,0,0l-0.6-0.6c0,0-22.6,15.1-41.4,20.9s-79.2,59-79.2,59l0.7,4.6
					C1775.7,1791.8,1832.3,1742.4,1857.3,1732.2z" class="color27544f svgShape"></path><path fill="#5382b1" d="M133,1674c9.1-3.4,44.9,3.9,62-19.1c18.7-24.4,8.2-77.8-41.4-114.2
					c-1.1-0.8-2.5,0.2-2.2,1.5c2.4,8.7,4.2,21.3-0.2,34.8c-2.7,8.1-8.4,19.2-12.2,18.4c-3.9-0.8-5.4-14.4-3.8-25.7
					c2.2-16.1,9.6-20.4,8.8-28c-0.8-7.4-9.2-17-43.5-26c-1.3-0.4-2.3,1.3-1.4,2.3c8.5,5.8,18.3,35,8.2,42.4c-4.8,1.6-15-8.6-18-20.1
					c-2.4-9.2,1.2-14-2.3-19.7c-0.5-3.5-17.6-11.6-16-5.4c4.1,3.4,5.6,15.4-0.7,18.3c-3.7,0.6-5.4-7.9-15.4-16.5
					c-2.8-2.4-25-16.9-26.6-14.6c-3.2,1.4-1.8,6.2-4.8,20.3c-3.7,17.4-7.6,15.4,12.5,31.1c14.6,10.1,23.5,11.3,31.4,22.1
					c10.8,14-7.2,9.3-12,7.9c-14.9-4.6-24.2-16.1-26.8-19.4c-7.3-9.4-8.9-17-11.6-16.4c-6,6-4.1,30.1,3.3,38.1
					c8.6,9.8,20.1,4.5,36.1,17.2c17,12.4-5.2,11.4-12.4,10.4c-7.2-0.9-18.5-3.5-31.7-12.4c-0.9-0.6-2.2,0.1-2.1,1.2
					c3.5,28.7,6.1,21.5,41.9,31.2c27,4.6-15.7,16-31,1.3c-1.1-0.8-2.5,0.2-2.1,1.5c23.3,63,32.9,27.2,58.5,35.6
					c15.6,8.6-8.6,15.8-25.5,21c-4,4.3,18,19.6,32.2,21.3C110.8,1720.9,134.8,1700.6,133,1674z" class="color53b163 svgShape"></path><path fill="#3f6489" d="M84.2 1714.3c26.6 6.6 50.6-13.7 48.8-40.3 9.1-3.4 44.9 3.9 62-19.1 18.7-24.4 8.2-77.8-41.4-114.2-1-.8-2.5.2-2.2 1.5 2.1 7.6 3.7 18.3 1.1 29.9 17.4 28.9 18.2 58.8 5.4 75.4-17 23-52.9 15.7-62 19.1 1.4 20.2-12.2 36.8-30.4 40.7C71.6 1710.7 78.5 1713.6 84.2 1714.3zM99.2 1556.9c2.9-11.8 8.4-15.8 7.7-22.5-.8-7.4-9.2-17-43.5-26-1.3-.4-2.3 1.3-1.4 2.3 4.2 2.9 8.8 11.5 11 20.4 2.8-4.6 1.2-13-2.1-15.7-1.6-6.1 15.4 1.9 16 5.4 3.6 5.7 0 10.5 2.3 19.7C91 1546.9 95.1 1553.1 99.2 1556.9z" class="color3f897a svgShape"></path><path fill="#273054" d="M159.3,1702.5c-28.3-28.9-40.7-55.5-40.7-55.5c-22.9,14.2-52.4,17.1-77.4,7.2c25.2,8.2,53.7,4.8,76.2-9.2
					c-3.2-5.5-6.3-11-9.4-16.5c-23,8.5-50,4.4-69.7-9.9c20.9,11.3,45.9,15.2,69,8.6c-3-5.3-5.9-10.5-9-15.7c0,0,0,0,0,0
					c0-0.1-0.1-0.2-0.2-0.3c-0.1-0.1-0.1-0.2-0.2-0.4c-2.1-3.8-4.3-7.6-6.4-11.4c-24.1,2.5-48.7-8.1-64.5-26.1
					c17.7,15.4,40.3,25.2,63.9,25c-9.7-17.1-19.6-34.1-29.7-51c-10.7-0.3-21-5.8-27.5-14.2c7.8,5.9,16.6,10.6,26.2,12.2
					c-6.4-10.8-13-21.5-19.5-32.2c7.3,10.6,14.5,21.5,21.4,32.4c0,0,0.1,0,0.1,0l1.2,1.8c0,0-0.1,0-0.1,0c3.1,4.9,6.1,9.7,9.1,14.6
					c8-9.1,12.2-21,12.3-33.1c3.1,12.3-1.8,26.2-11.6,34.2c9.3,15.3,18.3,30.7,27.1,46.2c21.8-19,31.5-49.6,24.9-77.7
					c10,27.9-0.6,61.1-24.5,78.6c3,5.4,6.1,10.9,9.1,16.4c0,0,0.1,0,0.1,0l0.6,1.1c0,0-0.1,0-0.1,0.1c3,5.5,6.1,10.9,9.3,16.3
					c31.6-11.1,54.8-43.1,50.7-77.2c6.3,34.5-17.3,68-49.5,79.3c0,0,0,0,0,0.1l1.2-0.5c0,0,22.1,34.2,44.4,53.4
					c22.3,19.2,73.5,128.2,73.5,128.2l-3.8,5.9C235.8,1833.1,187.6,1731.4,159.3,1702.5z" class="color27544f svgShape"></path><path fill="#3f6489" d="M146.1,1802.1c3-4.3,21-11.9,21.5-27.3
					c0.8-16.5-20-36.8-53-37.7c-0.7,0-1,0.8-0.5,1.3c3.7,3.1,8.3,8.1,10.5,15.4c1.3,4.4,2.1,11,0.2,11.8c-2,0.8-6.8-4.7-9.5-10.2
					c-3.9-7.8-2-11.9-4.7-15c-2.6-3-9.2-4.7-27.1,1.7c-0.7,0.3-0.6,1.3,0.1,1.4c5.5-0.1,18.7,9.8,16.5,16.2c-1.6,2.2-9.2,0.8-14-3.4
					c-3.8-3.3-3.7-6.5-7-8c-1.3-1.4-11.2,0.2-8.7,2.5c2.8,0.3,7.2,5.1,5.2,8.3c-1.5,1.4-4.8-1.9-11.8-2.6c-2-0.2-16.2,0.1-16.2,1.7
					c-1,1.6,1.1,3.3,4,10.4c3.6,8.8,1.3,9.1,15,9.9c9.5,0,13.8-2.1,20.6,0.2c9,2.9-0.3,6.3-2.9,7.1c-7.9,2.5-15.6,0.3-17.7-0.4
					c-6.1-1.9-9.1-4.8-10.1-3.7c-0.8,4.5,7.3,14.5,13,15.8c6.8,1.7,10.2-4.1,21.1-3.4c11.3,0.3,1.2,6.6-2.3,8.3
					c-3.4,1.8-9.2,4.1-17.7,4.2c-0.6,0-0.9,0.7-0.6,1.2c10.3,11.6,9.2,7.6,27.9,1c13.3-6.2-2,11.8-13.3,10c-0.7,0-1,0.9-0.5,1.3
					c29.4,20.7,22.7,2,36.6-2.1c9.5-1,1,9.6-4.9,17c-0.5,3.1,13.9,3.1,20.7-0.4C150.6,1829.5,155,1813.3,146.1,1802.1z" class="color3f897a svgShape"></path><path fill="#273054" d="M136.8 1834.7c13.7-5.2 18.1-21.4 9.3-32.6 3-4.3 21-11.9 21.5-27.3.8-16.5-20-36.8-53-37.7-.7 0-1 .8-.5 1.3 3.2 2.7 7.2 6.9 9.6 12.8 16.4 7.5 25.9 20.4 25.3 31.6-.5 15.3-18.5 23-21.5 27.3 6.7 8.5 5.8 19.9-1 27.2C130.2 1836.9 134.1 1836.1 136.8 1834.7zM95.6 1760.8c-2.3-6.1-1.1-9.5-3.4-12.3-2.6-3-9.2-4.7-27.1 1.7-.7.3-.6 1.3.1 1.4 2.7 0 7.4 2.4 11.1 5.6-.2-2.9-3.4-6.1-5.7-6.3-2.5-2.2 7.4-3.8 8.7-2.5 3.3 1.4 3.2 4.6 7 7.9C89 1758.9 92.6 1760.3 95.6 1760.8z" class="color27544f svgShape"></path><path fill="#273054" d="M166.3,1806.6c-21.3-4.1-34.8-12.1-34.8-12.1c-5.8,13.2-17.9,23.5-31.9,26.7c13.6-4.1,25.1-14.2,30.8-27.2
					c-3.1-1.4-6.1-2.9-9.2-4.4c-7.5,10.7-20.7,17.1-33.7,16.8c12.7-1.4,24.9-7.3,33-17.2c-2.9-1.4-5.8-2.8-8.7-4.2c0,0,0,0,0,0
					c-0.1,0-0.1-0.1-0.2-0.1c-0.1,0-0.1-0.1-0.2-0.1c-2.1-1-4.2-2.1-6.3-3.1c-9.8,8.4-23.9,11.2-36.4,8.1
					c12.4,1.4,25.4-1.1,35.7-8.4c-9.5-4.6-19-9.1-28.6-13.4c-4.8,3.1-11,3.8-16.4,2.1c5.2,0.2,10.5-0.4,15.3-2.6
					c-6.1-2.8-12.2-5.5-18.4-8.2c6.5,2.5,12.9,5.1,19.3,7.8c0,0,0,0,0,0l1.1,0.4c0,0,0,0,0,0c2.8,1.2,5.6,2.4,8.4,3.7
					c0.7-6.4-1-12.9-4.7-18.3c5.1,4.5,7.1,12.1,5.3,18.6c8.7,3.9,17.4,8,26,12.1c3.8-15-1.2-31.4-12.6-41.8
					c12.9,9.2,18.3,27.1,13.1,42.1c3,1.5,6,3,9,4.5c0,0,0,0,0-0.1l0.6,0.3c0,0,0,0,0,0.1c3,1.5,6,2.9,9,4.4
					c10.6-14.5,11-35.7-1.1-49.4c13.3,13.3,13,35.2,2.3,50c0,0,0,0,0,0l0.4-0.6c0,0,20.1,8.3,35.8,10s71.3,34.1,71.3,34.1l0.1,3.7
					C239.7,1840.9,187.6,1810.8,166.3,1806.6z" class="color27544f svgShape"></path><g fill="#000000" class="color000000 svgShape"><path fill="#62aefa" d="M1785.2,1351.7c-7.9,1.4-16.3,2.2-24.9,2.2H423c-29.5,0-55.8-8.9-73.4-22.9c-13.9-11.1-22.2-25.4-22.2-40.9
					v-103.3c0-35.3,42.8-63.8,95.6-63.8h1337.3c8.6,0,17,0.8,24.9,2.2c17.7,3.2,14.1,20.7-4.3,20.7h-20.3V1331h20.3
					C1799.3,1331,1802.9,1348.5,1785.2,1351.7z" class="colorfaae62 svgShape"></path><path fill="#5172ec" d="M1785.2,1351.7c-7.9,1.4-16.3,2.2-24.9,2.2H423c-29.5,0-55.8-8.9-73.4-22.9h1431.3
					C1799.3,1331,1802.9,1348.5,1785.2,1351.7z" class="colorec8751 svgShape"></path><path fill="#5172ec" d="M1760.7,1331h20.3c18.4,0,22,17.5,4.3,20.7c-7.9,1.4-16.3,2.2-24.9,2.2h-533.6
					c-52.8,0-95.6-28.6-95.6-63.8v-103.3c0-35.3,42.8-63.8,95.6-63.8h533.6c8.6,0,17,0.8,24.9,2.2c17.7,3.2,14.1,20.7-4.3,20.7
					h-20.3V1331z" class="colorec8751 svgShape"></path><path fill="#ffffff" d="M1165.4,1186.7V1290c0,3.5,0.7,6.9,1.9,10.1c0.6,1.5,1.3,3,2.2,4.5c8.8,15.4,31.2,26.3,57.3,26.3h533.9
					v-185.2h-533.9c-26.1,0-48.5,10.9-57.3,26.3c-0.8,1.5-1.6,3-2.2,4.5C1166,1179.9,1165.4,1183.3,1165.4,1186.7z" class="colorffffff svgShape"></path><path fill="#c2d5e9" d="M1760.7,1172.1v4.5h-593.4c0.6-1.5,1.3-3.1,2.2-4.5H1760.7z" class="colorc2d2e9 svgShape"></path><rect width="595.3" height="4.5" x="1165.4" y="1214.8" fill="#c2d5e9" class="colorc2d2e9 svgShape"></rect><rect width="595.3" height="4.5" x="1165.4" y="1257.5" fill="#c2d5e9" class="colorc2d2e9 svgShape"></rect><path fill="#c2d5e9" d="M1760.7,1300.2v4.5h-591.2c-0.9-1.5-1.6-3-2.2-4.5H1760.7z" class="colorc2d2e9 svgShape"></path><path fill="#0575e6" d="M1658,1176.6V1286c0,4.3-3.1,6.9-5.4,4.6l-18.9-18.5c-1.1-1.1-2.6-1.1-3.8,0l-18.9,18.5
					c-2.3,2.3-5.4-0.3-5.4-4.6v-109.4H1658z" class="color535f9b svgShape"></path><rect width="39.4" height="231" x="485.8" y="1122.9" fill="#9fcfff" class="colorffe19f svgShape"></rect><rect width="55.5" height="231" x="585.1" y="1122.9" fill="#9fcfff" class="colorffe19f svgShape"></rect><g fill="#000000" class="color000000 svgShape"><path fill="#9fcfff" d="M485.8 1122.9v110.6c-63.5-9.3-118.1-24-158.4-42.5v-4.2c0-35.3 42.8-63.8 95.6-63.8H485.8zM585.1 1122.9v120c-20.5-1-40.5-2.5-59.9-4.5v-115.5H585.1zM1026.7 1122.9c-12.1 67.7-180.4 121.3-386.2 121.3v-121.3H1026.7z" class="colorffe19f svgShape"></path></g><g fill="#000000" class="color000000 svgShape"><path fill="#ffffff" d="M485.8 1122.9h39.4v115.5c-13.5-1.4-26.6-3-39.4-4.9V1122.9zM640.6 1122.9v121.3c-18.8 0-37.4-.4-55.5-1.3v-120H640.6z" class="colorffffff svgShape"></path></g><path fill="#c2d5e9" d="M1165.4,1186.7V1290c0,3.5,0.7,6.9,1.9,10.1c0.6,1.5,1.3,3,2.2,4.5c8.8,15.4,31.2,26.3,57.3,26.3h533.9
					v-16.1h-467.8c-27.5,0-49.8-15.9-49.8-35.6v-71.5c0-19.7,22.3-35.6,49.8-35.6h467.8v-26.3h-533.9c-26.1,0-48.5,10.9-57.3,26.3
					c-0.8,1.5-1.6,3-2.2,4.5C1166,1179.9,1165.4,1183.3,1165.4,1186.7z" opacity=".5" class="colorc2d2e9 svgShape"></path></g><g fill="#000000" class="color000000 svgShape"><path fill="#3f6489" d="M1744.9,1428.6v91.3c0,14.5-4,28.2-11,40c-14.2,24.2-40.9,40.4-71.6,40.4H244.3
				c-30.6,0-57.4-16.3-71.6-40.4c-7-11.8-11-25.4-11-40v-91.3c0-19.6,7.2-37.7,19.3-51.6c15.1-17.6,37.8-28.8,63.2-28.8h1418.2
				c25.4,0,48.1,11.2,63.2,28.8C1737.7,1391,1744.9,1409,1744.9,1428.6z" class="color3f897a svgShape"></path><path fill="#5382b1" d="M1063.5,1367.9v53.3c0,50.1-41.6,90.6-92.9,90.6H184.1c-7.7,0-15.2-0.9-22.3-2.6v-80.6
				c0-19.6,7.2-37.7,19.3-51.6c15.1-17.6,37.8-28.8,63.2-28.8h817.1C1062.8,1354.6,1063.5,1361.2,1063.5,1367.9z" class="color53b163 svgShape"></path><path fill="#5382b1" d="M1063.5,1377v-9.1c0-6.7-0.8-13.3-2.2-19.7h601.1c25.4,0,48.1,11.2,63.2,28.8H1063.5z" class="color53b163 svgShape"></path><path fill="#7fa1c4" d="M1063.5,1367.9v9.1H181.1c15.1-17.6,37.8-28.8,63.2-28.8h817.1C1062.8,1354.6,1063.5,1361.2,1063.5,1367.9z
				" class="color7fc481 svgShape"></path><rect width="86.1" height="40.4" x="298.6" y="1559.9" fill="#5382b1" class="color53b163 svgShape"></rect><path fill="#273054" d="M172.7,1559.9h125.9v40.4h-54.4C213.6,1600.3,186.9,1584.1,172.7,1559.9z" class="color27544f svgShape"></path><rect width="47.6" height="40.4" x="429" y="1559.9" fill="#5382b1" class="color53b163 svgShape"></rect><rect width="44.3" height="40.4" x="384.7" y="1559.9" fill="#273054" class="color27544f svgShape"></rect><path fill="#273054" d="M1734,1559.9c-14.2,24.2-40.9,40.4-71.6,40.4H476.5v-40.4H1734z" class="color27544f svgShape"></path><rect width="86.1" height="211.6" x="298.6" y="1348.2" fill="#7fa1c4" class="color7fc481 svgShape"></rect><rect width="47.6" height="211.6" x="429" y="1348.2" fill="#7fa1c4" class="color7fc481 svgShape"></rect></g><g fill="#000000" class="color000000 svgShape"><path fill="#a8c0d8" d="M1485,994.7v70c0,14.7-5.4,28.1-14.5,38.8c-12,13.9-30.4,22.8-50.9,22.8H294.5c-20.5,0-38.9-8.9-50.8-22.8
					c-9.1-10.6-14.6-24.1-14.6-38.8v-70c0-15,5.8-28.9,15.3-39.5c0.8-0.9,1.5-1.7,2.4-2.5c11.9-12.1,28.9-19.6,47.8-19.6h1125
					c20.1,0,38.2,8.6,50.2,22.1C1479.2,965.9,1485,979.7,1485,994.7z" class="colora8b7d8 svgShape"></path><path fill="#c2d5e9" d="M944.4,948.2v40.9c0,38.3-33,69.4-73.7,69.4H246.8c-6.1,0-12-0.7-17.7-2v-61.7c0-15.1,5.7-28.9,15.3-39.6
					c12-13.5,30-22.1,50.2-22.1h648.2C943.8,938,944.4,943,944.4,948.2z" class="colorc2d2e9 svgShape"></path><rect width="68.3" height="171.1" x="337.6" y="955.2" fill="#e7eef6" class="colore7ebf6 svgShape"></rect><rect width="37.7" height="171.1" x="441.1" y="955.2" fill="#e7eef6" class="colore7ebf6 svgShape"></rect><rect width="68.3" height="22.1" x="337.6" y="933.1" fill="#ffffff" class="colorffffff svgShape"></rect><path fill="#e7eef6" d="M294.5,933.1h43.1v22.1h-93.3C256.4,941.7,274.3,933.1,294.5,933.1z" class="colore7ebf6 svgShape"></path><rect width="37.7" height="22.1" x="441.1" y="933.1" fill="#ffffff" class="colorffffff svgShape"></rect><rect width="35.2" height="22.1" x="405.9" y="933.1" fill="#e7eef6" class="colore7ebf6 svgShape"></rect><path fill="#e7eef6" d="M1469.7,955.2H478.8v-22.1h940.8C1439.6,933.1,1457.7,941.7,1469.7,955.2z" class="colore7ebf6 svgShape"></path><path fill="#0575e6" d="M1470.4,1103.5c-12,13.9-30.4,22.8-50.9,22.8H294.5c-20.5,0-38.9-8.9-50.8-22.8H1470.4z" opacity=".47" class="color535f9b svgShape"></path></g><g fill="#000000" class="color000000 svgShape"><path fill="#a8c0d8" d="M543.2,592.1v57.6c0,12.1,4.2,23.2,11.2,31.9c9.2,11.5,23.3,18.8,39.1,18.8h864.1c15.8,0,29.9-7.3,39-18.8
					c7-8.7,11.2-19.8,11.2-31.9v-57.6c0-12.4-4.4-23.8-11.7-32.5c-0.6-0.7-1.2-1.4-1.8-2c-9.1-9.9-22.2-16.1-36.7-16.1H593.4
					c-15.5,0-29.3,7.1-38.5,18.2C547.6,568.4,543.2,579.8,543.2,592.1z" class="colora8b7d8 svgShape"></path><path fill="#c2d5e9" d="M958.3,553.9v33.6c0,31.5,25.3,57.1,56.6,57.1h479.2c4.7,0,9.2-0.6,13.6-1.7v-50.8
					c0-12.4-4.4-23.7-11.7-32.5c-9.2-11.1-23-18.1-38.5-18.1H959.7C958.8,545.5,958.3,549.6,958.3,553.9z" class="colorc2d2e9 svgShape"></path><rect width="52.5" height="140.8" x="1371.9" y="559.6" fill="#e7eef6" class="colore7ebf6 svgShape"></rect><rect width="28.9" height="140.8" x="1316" y="559.6" fill="#e7eef6" class="colore7ebf6 svgShape"></rect><rect width="52.4" height="18.1" x="1371.9" y="541.5" fill="#ffffff" class="colorffffff svgShape"></rect><path fill="#e7eef6" d="M1457.5,541.5h-33.1v18.1h71.6C1486.8,548.5,1473,541.5,1457.5,541.5z" class="colore7ebf6 svgShape"></path><rect width="28.9" height="18.1" x="1316" y="541.5" fill="#ffffff" class="colorffffff svgShape"></rect><rect width="27" height="18.1" x="1344.9" y="541.5" fill="#e7eef6" class="colore7ebf6 svgShape"></rect><path fill="#e7eef6" d="M554.9,559.6H1316v-18.1H593.4C578,541.5,564.1,548.5,554.9,559.6z" class="colore7ebf6 svgShape"></path><path fill="#0575e6" d="M554.3,681.6c9.2,11.5,23.3,18.8,39.1,18.8h864.1c15.8,0,29.9-7.3,39-18.8H554.3z" opacity=".47" class="color535f9b svgShape"></path></g><g fill="#000000" class="color000000 svgShape"><path fill="#62aefa" d="M321.2,930.9c7.7,1.4,15.8,2.2,24.1,2.2h1294.3c28.5,0,54-9,71-23.1c13.4-11.2,21.5-25.5,21.5-41.2V764.7
				c0-35.5-41.4-64.3-92.5-64.3H345.3c-8.3,0-16.4,0.8-24.1,2.2c-17.2,3.2-13.7,20.9,4.1,20.9h19.6V910h-19.6
				C307.5,910,304,927.7,321.2,930.9z" class="colorfaae62 svgShape"></path><path fill="#5172ec" d="M321.2,930.9c7.7,1.4,15.8,2.2,24.1,2.2h1294.3c28.5,0,54-9,71-23.1H325.3C307.5,910,304,927.7,321.2,930.9
				z" class="colorec8751 svgShape"></path><path fill="#5172ec" d="M344.9,910h-19.6c-17.8,0-21.3,17.7-4.1,20.9c7.7,1.4,15.8,2.2,24.1,2.2h516.5c51.1,0,92.6-28.8,92.6-64.3
				V764.7c0-35.5-41.4-64.3-92.6-64.3H345.3c-8.3,0-16.4,0.8-24.1,2.2c-17.2,3.2-13.7,20.9,4.1,20.9h19.6V910z" class="colorec8751 svgShape"></path><path fill="#ffffff" d="M921.1,764.7v104.1c0,3.5-0.6,6.9-1.8,10.2c-0.6,1.5-1.3,3.1-2.1,4.6C908.6,899,887,910,861.7,910H344.9
				V723.5h516.8c25.3,0,46.9,11,55.5,26.5c0.8,1.5,1.5,3,2.1,4.6C920.5,757.8,921.1,761.2,921.1,764.7z" class="colorffffff svgShape"></path><path fill="#c2d5e9" d="M344.9,750v4.6h574.3c-0.6-1.6-1.3-3.1-2.1-4.6H344.9z" class="colorc2d2e9 svgShape"></path><rect width="576.2" height="4.6" x="344.9" y="793" fill="#c2d5e9" class="colorc2d2e9 svgShape"></rect><rect width="576.2" height="4.6" x="344.9" y="836" fill="#c2d5e9" class="colorc2d2e9 svgShape"></rect><path fill="#c2d5e9" d="M344.9,879v4.6h572.2c0.8-1.5,1.5-3,2.1-4.6H344.9z" class="colorc2d2e9 svgShape"></path><path fill="#5382b1" d="M602,754.5v110.2c0,4.3,4.6,6.9,8.2,4.6l28.5-18.6c1.7-1.1,3.9-1.1,5.7,0l28.5,18.7
				c3.5,2.3,8.2-0.3,8.2-4.6V754.5H602z" class="color53b163 svgShape"></path><rect width="38.1" height="232.7" x="1540.7" y="700.4" fill="#9fcfff" class="colorffe19f svgShape"></rect><rect width="53.7" height="232.7" x="1429.1" y="700.4" fill="#9fcfff" class="colorffe19f svgShape"></rect><g fill="#000000" class="color000000 svgShape"><path fill="#9fcfff" d="M1578.9 700.4v111.4c61.5-9.3 114.3-24.2 153.3-42.9v-4.2c0-35.5-41.4-64.3-92.5-64.3H1578.9zM1482.8 700.4v120.9c19.9-1 39.2-2.5 57.9-4.6V700.4H1482.8zM1055.3 700.4c11.7 68.2 174.6 122.3 373.8 122.3V700.4H1055.3z" class="colorffe19f svgShape"></path></g><g fill="#000000" class="color000000 svgShape"><path fill="#ffffff" d="M1578.9 700.4h-38.1v116.4c13-1.4 25.8-3.1 38.1-4.9V700.4zM1429.1 700.4v122.3c18.2 0 36.2-.5 53.7-1.3V700.4H1429.1z" class="colorffffff svgShape"></path></g><path fill="#c2d5e9" d="M921.1,764.7v104.1c0,3.5-0.6,6.9-1.8,10.2c-0.6,1.5-1.3,3.1-2.1,4.6C908.6,899,887,910,861.7,910H344.9
				v-16.2h452.8c26.6,0,48.2-16.1,48.2-35.9v-72.1c0-19.8-21.6-35.9-48.2-35.9H344.9v-26.5h516.8c25.3,0,46.9,11,55.5,26.5
				c0.8,1.5,1.5,3,2.1,4.6C920.5,757.8,921.1,761.2,921.1,764.7z" opacity=".5" class="colorc2d2e9 svgShape"></path></g><g fill="#000000" class="color000000 svgShape"><path fill="#1a2347" d="M682.5,219.6c0,0,16.7-9.5,19.5-33.6s1.4-98.4-29.5-113.6s-60.8-0.8-98.4,0.5s-45.3-24.7-57.5,0.3
						c-12.2,25-13.4,73.8,29.4,91.9S682.5,219.6,682.5,219.6z" class="color1a2b47 svgShape"></path><path fill="#8cc4fd" d="M552.7,231.1c8.7,14.2,22.6,36.3,35.1,40.7c0.1,0.1,0.1,0.1,0.2,0.1c13.7,3.2,25.6-0.2,28.4-1.1
						c0.1-0.1,0.3-0.1,0.3-0.1c0.1-0.1,0.1,0,0.1,0.1l-1.5,4.6l-2.7,8.4c0,0-3.8,7.4-7.6,10c-3.9,2.4-9.3,4.3-9.3,4.3
						s-42.2,101.7,7.9,90c50-11.8,85.1-89.2,85.1-89.2s-15.2-8.4-17.4-19.3c-2.3-10.9,1.6-34.2,1.6-34.2s6.5-14.8,9.6-25.7l0.1-0.1
						c3.1-10.9-1.8-22-1.8-22s11.7-3.9,10.2-16.6c-1.5-12.8-10.1-19.2-14.9-17.9c-4.8,1.4-9,3-9.5,9.2c-0.5,6.2,1.1,10.7,0.4,11.7
						c-0.7,1.1-7.4,3.1-8.4,1c-0.8-1.6-9.4-32.5-12.6-44.2c-0.6-2.2-3.1-3.1-5-1.8c-8.2,5.6-28.9,18-48.7,17.4
						c-20.4-0.6-35-4.2-39.9-5.6c-1.2-0.3-2.4-0.2-3.5,0.5l-8.7,5c-0.4,0.2,0.3-0.3,0,0l0.1,1.3c0.4,6.3,2.1,34.1,3.9,39.5
						c2,6.1,3.8,7.6,2.8,11.5C546.2,212.4,544,216.8,552.7,231.1z" class="colorfd9e8c svgShape"></path><ellipse cx="614.5" cy="188.9" fill="#1a2347" rx="4.9" ry="6.6" transform="rotate(-11.735 614.462 188.804)" class="color1a2b47 svgShape"></ellipse><ellipse cx="609.9" cy="187.1" fill="#ffffff" rx="2" ry="3.3" transform="rotate(-11.706 610.072 187.207)" class="colorffffff svgShape"></ellipse><ellipse cx="564.3" cy="197.9" fill="#1a2347" rx="4.9" ry="6.6" transform="rotate(-11.735 564.218 197.795)" class="color1a2b47 svgShape"></ellipse><ellipse cx="559.7" cy="196.1" fill="#ffffff" rx="2" ry="3.3" transform="rotate(-11.706 559.81 196.191)" class="colorffffff svgShape"></ellipse><path fill="#1a2347" d="M554.2 178.7c1.8-3 5-5 8.4-5.7 1.4-.3 2.9.8 3 2.2.2 1.5-.8 2.7-2.2 3-.3.1-.6.1-.9.2.2-.1.5-.1.7-.2-.9.3-1.7.6-2.5 1.1.2-.1.4-.2.6-.4-.7.5-1.4 1-2 1.7.2-.2.3-.3.5-.5-.5.5-.9 1-1.2 1.6-.3.5-1.1.9-1.7 1-.6.1-1.4-.1-2-.5-.5-.4-1-1-1-1.7C553.6 179.9 553.8 179.3 554.2 178.7L554.2 178.7zM606.3 170.8c.1-1.1.9-2.1 1.9-2.6.6-.3 1.2-.4 1.8-.6 1.1-.3 2.3-.4 3.4-.4 2.1 0 4.2.5 6.1 1.5.6.3 1.1.7 1.4 1.4.3.6.3 1.4 0 2-.3.6-.7 1.2-1.4 1.4-.6.2-1.4.4-2 0-.4-.2-.8-.4-1.2-.6-.2-.1-.5-.2-.7-.3-.1 0-.2-.1-.3-.1-.1 0-.5-.1-.1 0 .4.1 0 0 0 0-.1 0-.2-.1-.4-.1-.2 0-.5-.1-.7-.1-.5-.1-1-.1-1.4-.1.2 0 .5 0 .7 0-1 0-1.9.2-2.8.4.2-.1.5-.1.7-.2-.2.1-.4.1-.6.2-.1 0-.1.1-.2.1.6-.3 1-.8 1.2-1.6-.1 1.4-1.6 2.5-2.9 2.3C607.1 173.5 606.2 172.3 606.3 170.8L606.3 170.8z" class="color1a2b47 svgShape"></path><path fill="#4f6cdb" d="M585.4 197.1c.6 2.1 1.2 4.1 1.7 6.3.4 1.8 1 4 .8 5.9-.5 4.3-5.8 4.2-8.8 5.6-2.1 1-4.7 3.3-3.1 5.8 1.9 2.9 6.3 2.8 9.4 2.8 1.4 0 2.5 1.6 2.3 2.9-.2 1.5-1.5 2.3-2.9 2.3-4-.1-8.3-.4-11.4-3.2-3.1-2.8-4-7-1.9-10.7 2.1-3.6 6-5.1 9.8-6.1.4-.1 1-.4 1.4-.4.6 0 .4-.5.2.1-.2.9-.3-.9-.4-1.1-.1-.5-.2-1-.3-1.6-.4-2.2-.9-4.3-1.6-6.5-.4-1.4-.1-2.8 1.3-3.5C583.1 195.3 585 195.8 585.4 197.1L585.4 197.1zM616.6 269.7c.1-.3.3-.5.6-.6 2.7-.3 15.6-1.8 28.1-8.8 6-3.3 10.4-6.4 13.4-8.8 1.3-1 3.1.4 2.3 1.9-4.3 8.5-12.5 22.9-23.1 33.3-13.1 12.8-24.9 18.3-28.6 19.9-.5.2-1.1-.3-1-.8L616.6 269.7zM587.5 243.4c4.9 9.4 15.5 14.1 25.1 10.7 9.5-3.5 14.7-13.9 12.3-24.2-.2-.7-.6-1.2-1.1-1.6-.6-.4-1.3-.6-2-.3l-33 12c-1 .4-1.5 1.4-1.4 2.5C587.3 242.7 587.3 243.1 587.5 243.4z" class="colordb5f4f svgShape"></path><path fill="#ffffff" d="M587.3,242.5c5.3,0.8,12.1,0,19.1-2.6c7.8-2.8,14-7.2,17.4-11.6c-0.6-0.4-1.3-0.6-2-0.3l-33,12
						C587.7,240.3,587.1,241.4,587.3,242.5z" class="colorffffff svgShape"></path><polygon fill="#8cc4fd" points="498.7 391.2 458.8 504.4 505.1 547.2 538 402.5" class="colorfd9e8c svgShape"></polygon><path fill="#e7eef6" d="M545,311.8c0,0-24.8,24.9-37,43.4c-12.1,18.5-20.8,44.1-20.8,45.2s52.6,35.8,52.6,35.8S590,293.9,545,311.8z
				" class="colore7ebf6 svgShape"></path><path fill="#e7eef6" d="M752.1,431.8c-10.7,36.6-21.9,73.9-27.3,96.6c-12.7,54-10.9,75.4-10.9,75.4H483.1c0,0,13.1-72.2,27.5-144.8
				c13.9-70.3,28.9-141.1,34.3-147.3c11-12.7,67.6-29.6,67.6-29.6s-30.5,41.9,0.3,51c30.9,9.1,53.4-44.2,59.5-45.5
				c6-1.3,95.5,26.7,103.3,38.5C780.2,333,766.7,381.6,752.1,431.8z" class="colore7ebf6 svgShape"></path><path fill="#c2d5e9" d="M724.8,528.4c-12.7,54-10.9,75.4-10.9,75.4H483.1c0,0,13.1-72.2,27.5-144.8l39,70.2c0,0,82.7-3.5,109.3-30.6
				c26.6-27.2,50.3-107.4,50.3-107.4l42.9,40.6C741.4,468.4,730.2,505.7,724.8,528.4z" class="colorc2d2e9 svgShape"></path><path fill="#021b79" d="M461.3,1110c0.6,10-40.1,76.6-63.5,90.9c-23.4,14.2-22.9,17.2-29.5,17.2c-6.7,0-46.8-2.4-51.8-11.3
				c-5-8.9-5.6-18.4,3.9-26.7c8.3-7.3,46.1-77.9,56.9-105.3c1.5-3.8,2.5-6.9,2.7-8.7c2.2-14.9,1.1-77.2,1.1-77.2l62.4,10
				c0,0-0.5,43.3,0,58.2c0.1,2.3,0.6,5,1.4,7.9C448.9,1080.3,460.8,1101.5,461.3,1110z" class="color2c367e svgShape"></path><path fill="#8cc4fd" d="M444.8,1065c-12.6,1.7-26.1,11.9-32.6,20c-10.5,13.1-27.8-1.2-32.3-8.3c-0.6-1-1.6-1.6-2.7-2
				c1.5-3.8,2.5-6.9,2.7-8.7c2.2-14.9,1.1-77.2,1.1-77.2l62.4,10c0,0-0.5,43.3,0,58.2C443.6,1059.4,444.1,1062.1,444.8,1065z" class="colorfd9e8c svgShape"></path><path fill="#021b79" d="M299.3,1073c-0.9,10-50.6,69.3-75.9,79.7c-25.2,10.3-25.1,13.4-31.7,12.3c-6.6-1.1-45.9-9.9-49.6-19.4
				c-3.7-9.6-2.8-19.1,7.7-25.8c9.3-5.8,56.8-69.6,71.4-95c2-3.6,3.5-6.4,4-8.2c4.3-14.3,12.2-76.1,12.2-76.1l60.2,19.9
				c0,0-6.8,42.8-8.4,57.5c-0.2,2.3-0.1,5.1,0.2,8C291.4,1041.7,300.1,1064.5,299.3,1073z" class="color2c367e svgShape"></path><path fill="#8cc4fd" d="M289.6,1025.9c-12.7-0.3-27.5,7.6-35.1,14.6c-12.3,11.2-27.3-5.6-30.7-13.4c-0.4-1.1-1.3-1.8-2.4-2.4
				c2-3.6,3.5-6.4,4-8.2c4.3-14.3,12.2-76.1,12.2-76.1l60.2,19.9c0,0-6.8,42.8-8.4,57.5C289.1,1020.1,289.2,1022.9,289.6,1025.9z" class="colorfd9e8c svgShape"></path><path fill="#0575e6" d="M657,717.2c-106.7,20-149.8,15.5-155.2,25.2c-5.5,9.7-24.3,113.6-27.5,135c-3.1,21.4-4.7,132.2-11,139.9
				c-6.3,7.8-94,9.6-95.6,0c-1.6-9.6,6.3-180.3,7.9-204.2c1.5-23.9,8.7-99.7,8.7-99.7s-0.2,1-0.7,2.9c-0.1,0.3-0.1,0.5-0.1,0.6
				c-0.1,0.2-0.1,0.3-0.1,0.3v0.1c-8.2,33.3-66.4,270.8-73.7,271.5c-7.8,0.8-90.9-13.2-93.3-24.7c-0.2-0.9,0-3.6,0.6-7.7
				c6.1-47.2,56.1-285.9,66.9-313.1c6.1-15.4,12.7-24.7,17.5-30.1c2.2-2.4,4.1-4,5.3-5c1.5-1.1,2.3-1.6,2.3-1.6l410.8-24.2
				C719.8,582.3,763.7,697.3,657,717.2z" class="color535f9b svgShape"></path><path fill="#021b79" d="M472.6,611.1c0,0-55.5,8.1-66.4,16c-10.3,7.3-21.3,80.3-22.6,89.2c-0.1,0.3-0.1,0.5-0.1,0.6
				c-0.1,0.2-0.1,0.3-0.1,0.3v0.1c-8.2,33.3-66.4,270.8-73.7,271.5c-7.8,0.8-90.9-13.2-93.3-24.7c-0.2-0.9,0-3.6,0.6-7.7
				c36.5,10.5,63.7,0.3,63.7,0.3s106.6-320.1,103.6-329.6c-1.5-4.8-42.6-10-83-14c2.2-2.4,4.1-4,5.3-5L472.6,611.1z" class="color2c367e svgShape"></path><path fill="#8cc4fd" d="M773,465.5c0,0-17.2,80.1-27.4,91.7c-10.2,11.6-20,23.3-26.7,25.1c-6.7,1.8-58.6,8.5-86.3,12.1
				s-42.9,2.7-47,4c-4,1.3-15.7,9.4-15.7,9.4h-53.7c0,0,10.7-26.8,17.9-32.2c7.2-5.4,33.6-8.9,37.1-9.8c3.6-0.9,39.4-17.4,63.1-24.6
				s60.7-30,61-34c0.3-4,8.8-56.4,8.8-56.4L773,465.5z" class="colorfd9e8c svgShape"></path><g fill="#000000" class="color000000 svgShape"><path fill="#021b79" d="M401.1,600.8c-0.1,6,3.9,11,9.1,11.1l245,5.7c5.1,0.1,9.4-4.6,9.6-10.6c0.1-6-3.9-11-9.1-11.1l-245-5.7
						C405.5,590,401.2,594.8,401.1,600.8z" class="color2c367e svgShape"></path><path fill="#021b79" d="M553.6,588.6l-82-204.4c-2.9-7.1-9.7-11.9-17.4-12.1l-294.2-6.9c-13.6-0.3-23.2,13.3-18.4,26l77.3,204.1
						c2.8,7.3,9.7,12.2,17.5,12.4l299,7.2C549.1,615.3,558.7,601.4,553.6,588.6z" class="color2c367e svgShape"></path><ellipse cx="332.7" cy="489" fill="#c2d5e9" rx="13.9" ry="21.7" transform="rotate(-16.954 332.76 489.044)" class="colorc2d2e9 svgShape"></ellipse></g><path fill="#e7eef6" d="M756.1,324.5c0,0-31.2,11.6-39.9,39.9c-8.7,28.3-21.4,93.4-17.9,96.7c3.5,3.3,13.9,9.1,28.6,12.6
				c14.8,3.5,42.5,12.2,48.9,4.4C782.1,470.3,826.1,311.2,756.1,324.5z" class="colore7ebf6 svgShape"></path></g><g fill="#000000" class="color000000 svgShape"><path fill="#021b79" d="M1513,408.6l-304,93.4c-2.4,0.7-5,0.7-7.4,0l-304.1-93.4c-12.1-3.7-13.2-21.6-1.8-27.1L1199.9,237
				c3.5-1.7,7.4-1.7,10.9,0l304.1,144.5C1526.3,387,1525.1,404.9,1513,408.6z" class="color2c367e svgShape"></path><path fill="#0575e6" d="M1358.2,415.7v122.4c0,2.1-1.5,3.9-3.5,3.9h-299c-1.9,0-3.5-1.7-3.5-3.9V415.7c0-1.3,0.5-2.5,1.5-3.2
				c17.4-13.8,39.6-23.7,61.6-30.7c58.6-18.9,121.1-18.8,179.7,0c22.1,7.1,44.3,17,61.7,30.8
				C1357.7,413.2,1358.2,414.4,1358.2,415.7z" class="color535f9b svgShape"></path><path fill="#c2d5e9" d="M1454.6,392v82.2c0,1.2-1,2.2-2.2,2.2h-9.2c-1.2,0-2.2-1-2.2-2.2V392c0-1.2,1-2.2,2.2-2.2h9.2
				C1453.6,389.8,1454.6,390.8,1454.6,392z" class="colorc2d2e9 svgShape"></path><path fill="#62aefa" d="M1433.6,471.5c0,0-12-9.8-6.7-13.1c5.3-3.3,31.2-5.5,34.1-1.4c2.9,4.1-1.6,19.3-1.6,19.3
				s11.6,52.5,24.9,64.8c13.3,12.2,12.9,16.9,12.9,16.9l-8.1,3.9c0,0-7.4-6.5-16-21c-8.6-14.5-17.6-35.1-17.6-35.1
				s5.9,23.9,13.9,37.2c8,13.3,10.6,17.6,10.6,17.6L1463,562c0,0-8.2-9-12.7-34.1s-5.7-38.4-5.7-38.4l-2,74.5h-19
				c0,0,8.4-27.2,10.6-47.6c2.2-20.4,2.7-28.8,2.7-28.8s-8.8,43.5-17.6,58c-8.8,14.5-9.6,15.7-9.6,15.7l-6.1-0.2
				C1403.6,561.1,1432.5,488.5,1433.6,471.5z" class="colorfaae62 svgShape"></path></g><g fill="#000000" class="color000000 svgShape"><path fill="#021b79" d="M633.2,1312.4l-76.1,290.2c-1.2,4.5,1.5,9.1,6,10.3l28.8,7.6c4.5,1.2,9.1-1.5,10.3-6l76.1-290.2
				c1.2-4.5-1.5-9.1-6-10.3l-28.8-7.6C639,1305.2,634.4,1307.9,633.2,1312.4z" class="color2c367e svgShape"></path><path fill="#86a6c6" d="M617.1,1311.5l-11,41.8c-1.6,6.2,0.7,12.3,5.2,13.4l59.3,15.6c4.5,1.2,9.5-2.9,11.1-9.2l11-41.8
				c1.6-6.2-0.7-12.2-5.2-13.4l-59.3-15.6C623.7,1301.2,618.8,1305.3,617.1,1311.5z" class="color869dc6 svgShape"></path><path fill="#021b79" d="M527.2,1114.2c-24.7,94.1,31.6,190.4,125.7,215.1c94.1,24.7,190.4-31.6,215.1-125.7
				c24.7-94.1-31.6-190.4-125.7-215.1C648.1,963.9,551.9,1020.1,527.2,1114.2z M567.7,1124.9c18.8-71.7,92.2-114.5,163.9-95.7
				c71.7,18.8,114.5,92.1,95.7,163.8c-18.8,71.7-92.2,114.6-163.8,95.8C591.8,1270,548.9,1196.6,567.7,1124.9z" class="color2c367e svgShape"></path><path fill="#0575e6" d="M610.7,1306.5l-76.1,290.2c-1.2,4.5,1.5,9.1,6,10.3l28.8,7.6c4.5,1.2,9.1-1.5,10.3-6l76.1-290.2
				c1.2-4.5-1.5-9.1-6-10.3l-28.8-7.6C616.4,1299.3,611.8,1302,610.7,1306.5z" class="color535f9b svgShape"></path><path fill="#a8c0d8" d="M594.6,1305.6l-11,41.8c-1.6,6.2,0.7,12.3,5.2,13.4l59.3,15.6c4.5,1.2,9.5-2.9,11.1-9.2l11-41.8
				c1.6-6.2-0.7-12.2-5.2-13.4l-59.3-15.6C601.2,1295.3,596.2,1299.4,594.6,1305.6z" class="colora8b7d8 svgShape"></path><path fill="#0575e6" d="M719.7,982.6c-94.1-24.7-190.4,31.6-215.1,125.7c-24.7,94.1,31.6,190.4,125.7,215.1
				c94.1,24.7,190.4-31.6,215.1-125.7C870.1,1103.6,813.8,1007.3,719.7,982.6z M804.8,1187.1c-18.8,71.7-92.1,114.6-163.9,95.8
				c-71.7-18.8-114.5-92.2-95.7-163.9c18.8-71.7,92.1-114.5,163.9-95.7C780.8,1042.1,823.6,1115.4,804.8,1187.1z" class="color535f9b svgShape"></path><path fill="#ffffff" d="M807.3,1175.4c-0.6,3.9-1.5,7.8-2.5,11.7c-2.5,9.7-6.1,19-10.6,27.5c-9.8,19-23.8,35.1-40.6,47.2
				c-17.4,12.6-37.8,21-59.4,24.1c-11.1,1.7-22.5,1.9-34,0.6c-6.4-0.7-12.9-1.9-19.3-3.6c-0.8-0.2-1.7-0.4-2.4-0.7
				c-70.2-19.7-111.9-92.3-93.3-163.1c1-3.8,2.2-7.5,3.5-11.2c2-5.9,4.5-11.6,7.4-17c4.6-9,10.3-17.3,16.7-24.8
				c10.5-12.3,23.1-22.6,37.1-30.3c18.4-10.2,39.2-16.1,60.8-16.8c12.6-0.4,25.5,1,38.3,4.4c1.3,0.3,2.5,0.7,3.8,1.1
				C778.5,1043.6,818.7,1108.9,807.3,1175.4z" opacity=".37" class="colorffffff svgShape"></path><g opacity=".57" fill="#000000" class="color000000 svgShape"><path fill="#ffffff" d="M660.3 1286.5c-6.4-.7-12.9-1.9-19.3-3.6-.8-.2-1.7-.4-2.4-.7l-89.8-174.3c2-5.9 4.5-11.6 7.4-17L660.3 1286.5zM753.6 1261.8c-17.4 12.6-37.8 21-59.4 24.1L572.8 1066c10.5-12.3 23.1-22.6 37.1-30.3L753.6 1261.8zM807.3 1175.4c-.6 3.9-1.5 7.8-2.5 11.7-2.5 9.7-6.1 19-10.6 27.5l-123.5-195.7c12.6-.4 25.5 1 38.3 4.4 1.3.3 2.5.7 3.8 1.1L807.3 1175.4z" class="colorffffff svgShape"></path></g></g><g fill="#000000" class="color000000 svgShape"><path fill="#86a6c6" d="M175,1872c9.1,1.7,18.7,2.6,28.5,2.6h1531.8c33.8,0,64-10.6,84-27.3c15.9-13.2,25.5-30.2,25.5-48.8v-123.2
				c0-42-49-76.1-109.5-76.1H203.6c-9.9,0-19.4,0.9-28.5,2.6c-20.3,3.8-16.2,24.7,4.9,24.7h23.2v220.8h-23.2
				C158.9,1847.3,154.7,1868.2,175,1872z" class="color869dc6 svgShape"></path><path fill="#0575e6" d="M175,1872c9.1,1.7,18.7,2.6,28.5,2.6h1531.8c33.8,0,64-10.6,84-27.3H179.9
				C158.9,1847.3,154.7,1868.2,175,1872z" class="color535f9b svgShape"></path><path fill="#a8c0d8" d="M203.1,1847.3h-23.2c-21.1,0-25.2,20.9-4.9,24.7c9.1,1.7,18.7,2.6,28.5,2.6h611.2
				c60.5,0,109.5-34.1,109.5-76.1v-123.2c0-42-49-76.1-109.5-76.1H203.6c-9.9,0-19.4,0.9-28.5,2.6c-20.3,3.8-16.2,24.7,4.9,24.7
				h23.2V1847.3z" class="colora8b7d8 svgShape"></path><path fill="#ffffff" d="M885,1675.3v123.2c0,4.2-0.8,8.2-2.1,12.1c-0.7,1.8-1.5,3.6-2.5,5.4c-10.1,18.3-35.7,31.4-65.6,31.4H203.2
				v-220.8h611.6c29.9,0,55.5,13,65.6,31.4c1,1.8,1.8,3.5,2.5,5.4C884.2,1667.1,885,1671.2,885,1675.3z" class="colorffffff svgShape"></path><path fill="#c2d5e9" d="M203.1,1657.9v5.4h679.7c-0.7-1.8-1.5-3.6-2.5-5.4H203.1z" class="colorc2d2e9 svgShape"></path><rect width="681.9" height="5.4" x="203.1" y="1708.8" fill="#c2d5e9" class="colorc2d2e9 svgShape"></rect><rect width="681.9" height="5.4" x="203.1" y="1759.7" fill="#c2d5e9" class="colorc2d2e9 svgShape"></rect><path fill="#c2d5e9" d="M203.1,1810.6v5.4h677.2c1-1.8,1.8-3.5,2.5-5.4H203.1z" class="colorc2d2e9 svgShape"></path><path fill="#62aefa" d="M287,1663.3v130.4c0,5.1,5.5,8.2,9.6,5.4l33.8-22.1c2.1-1.3,4.7-1.3,6.7,0l33.8,22.1
				c4.2,2.7,9.6-0.4,9.6-5.5v-130.4H287z" class="colorfaae62 svgShape"></path><rect width="45.1" height="275.4" x="1618.3" y="1599.2" fill="#c2d5e9" class="colorc2d2e9 svgShape"></rect><rect width="63.5" height="275.4" x="1486.2" y="1599.2" fill="#c2d5e9" class="colorc2d2e9 svgShape"></rect><g fill="#000000" class="color000000 svgShape"><path fill="#a8c0d8" d="M1663.4 1599.2v131.9c72.7-11 135.3-28.7 181.4-50.7v-5c0-42-49-76.1-109.5-76.1H1663.4zM1549.7 1599.2v143.1c23.5-1.2 46.4-3 68.6-5.4v-137.7H1549.7zM1043.8 1599.2c13.8 80.7 206.6 144.7 442.3 144.7v-144.7H1043.8z" class="colora8b7d8 svgShape"></path></g><g fill="#000000" class="color000000 svgShape"><path fill="#e7eef6" d="M1663.4 1599.2h-45.1v137.7c15.4-1.7 30.5-3.6 45.1-5.8V1599.2zM1486.2 1599.2v144.7c21.6 0 42.8-.5 63.5-1.6v-143.1H1486.2z" class="colore7ebf6 svgShape"></path></g><path fill="#c2d5e9" d="M885,1675.3v123.2c0,4.2-0.8,8.2-2.1,12.1c-0.7,1.8-1.5,3.6-2.5,5.4c-10.1,18.3-35.7,31.4-65.6,31.4H203.2
				v-19.2h535.9c31.5,0,57-19,57-42.5v-85.3c0-23.5-25.6-42.5-57-42.5H203.2v-31.4h611.6c29.9,0,55.5,13,65.6,31.4
				c1,1.8,1.8,3.5,2.5,5.4C884.2,1667.1,885,1671.2,885,1675.3z" opacity=".5" class="colorc2d2e9 svgShape"></path></g><g fill="#000000" class="color000000 svgShape"><path fill="#2f51d1" d="M1063.5,1126.3l-18.3,221.9h234.5C1279.7,1348.2,1346,1106.4,1063.5,1126.3z" opacity=".41" class="colord12f4e svgShape"></path><circle cx="1190.5" cy="638.7" r="53" fill="#1a2347" class="color1a2b47 svgShape"></circle><path fill="#1a2347" d="M1335.2,911.2c-51.7-57.8-89.7-64-83.6-100.1c3.7-2.7,6.8-5.9,9.6-9.7c2.9-11.7,8-19.7,8-19.7
					s45.8-21.6,34.9-66.4c-10.6-43.7-31.9-43.7-32.8-43.7c0,0-13.9-34.4-75.1-35.4c-6.4-0.1-12.5,0.7-18.2,2.3
					c-0.2,0-0.3,0.1-0.4,0.1c0,0-0.1,0-0.2,0.1c-0.1,0-0.2,0.1-0.5,0.2c-3.5,1.5-18.4,8.5-34.5,22c-17.4,14.6-36,36.7-42.4,67.5
					c-11.3,54.9,31.6,90.7-10.4,106.9l-0.1,0.1c0,0-0.2,0.1-0.6,0.2c-1.3,0.5-2.7,1-4.2,1.4c-0.2,0.1-0.4,0.2-0.6,0.2
					c-14.3,5.7-52.6,25.7-62.9,81.7c-12.8,69.3,94.2,95,70.5,144.3c-8.2,17.1-25.5,43.8-7.8,51.4c21.8-4.4,47.1-11.8,76-22.9
					C1333.6,1025.5,1393.2,976.2,1335.2,911.2z M1336.9,948.4c-4.5,34.8-48.4,49.5-51.1,50.3c2.6-3.4,33.4-43,10.8-76.4
					c-23.6-34.8-62.3-56.6-48.7-94.4c0,0-1.5,17,26.7,38.5C1302.9,887.9,1341.4,912.3,1336.9,948.4z" class="color1a2b47 svgShape"></path><path fill="#1a2347" d="M1142.4,661c16-13.5,31-20.5,34.4-22C1163.5,642.7,1152,650.8,1142.4,661z" class="color1a2b47 svgShape"></path><path fill="#8cc4fd" d="M1143.9,772.6c0,0-5.2,9.9-2.9,20c2.3,10.2,7.6,24.1,7.6,24.1s2.3,21.5-0.5,31.4
					c-2.7,9.9-17.4,16.7-17.4,16.7s22.2,106.8,87.6,121.2c46.9,10.3,14-107.8,14-107.8s-19.4-11.1-22.9-13.5
					c-3.5-2.5-6.6-9.5-6.6-9.5l-3.2-12c-0.1-0.1,0-0.2,0.1-0.2c0.3,0.1,0.6,0.3,1.2,0.4c0-0.1,0-0.2,0-0.2
					c53.4,3.3,61.5-33.4,61.1-37.4c-0.4-4,1.2-8.7,6.3-13.6c4.8-4.6,8.8-25.9,9.2-28c0-0.1,0-0.2,0-0.2c1.1-6.3,1.8-14,2.1-17.9
					c0.1-1.5-0.7-3-2-3.9l-7.8-5c-0.9-0.6-2.1-0.8-3.3-0.6c-4.7,1-18.6,3.5-37.7,2.9c-18.4-0.5-37.1-13-44.6-18.6
					c-1.7-1.2-4.1-0.5-4.8,1.4c-3.7,10.5-13.4,38.2-14.3,39.7c-1.1,1.9-7.2-0.4-7.8-1.3c-0.6-1,1.1-5,1-10.8c-0.1-5.6-4-7.3-8.3-8.8
					c-4.4-1.5-12.9,4-14.9,15.5C1133.2,768.4,1143.9,772.6,1143.9,772.6z" class="colorfd9e8c svgShape"></path><path fill="#4f6cdb" d="M1161.7,822.6c2.1,7.9,6.7,23.1,14.5,34.8c9.4,14.1,18.9,21.5,22.6,24c0.3,0.2,0.8,0.4,1.1,0.4
						c0.5,0.1,1,0,1.5-0.2c0.8-0.5,1.3-1.3,1.3-2.2l0-34c0-1.1-0.7-2-1.7-2.3c-2.2-0.7-13.5-4.6-23.4-13.1c-4-3.5-7.4-6.9-10.2-10.3
						c-0.9-1.2-2.6-1.5-4-0.9S1161.3,821.2,1161.7,822.6z" class="colordb5f4f svgShape"></path><ellipse cx="1210.2" cy="767" fill="#1a2347" rx="5.3" ry="3.8" transform="rotate(-72.206 1210.184 767.02)" class="color1a2b47 svgShape"></ellipse><ellipse cx="1252.7" cy="779.3" fill="#1a2347" rx="5.3" ry="3.8" transform="rotate(-72.206 1252.66 779.257)" class="color1a2b47 svgShape"></ellipse><path fill="#1a2347" d="M1260.8 764.4c0-.1-.1-.1-.1-.2.1.2.2.3.2.5-.3-.6-.8-1.2-1.3-1.8.1.1.2.3.3.4-.5-.6-1.1-1-1.8-1.5.1.1.3.2.4.3-.7-.4-1.4-.7-2.1-1 .2.1.3.1.5.2-.1 0-.2-.1-.3-.1-.5-.2-1-.4-1.3-.8-.3-.4-.4-1-.3-1.5.1-.5.4-1 .8-1.3.4-.3 1-.5 1.5-.3 1.5.4 3 1.1 4.2 2.1 1.2 1 2.2 2.2 2.9 3.6.2.4.1 1.1-.1 1.5-.2.4-.7.9-1.1 1-.5.2-1.1.2-1.6-.1C1261.3 765.3 1261 764.9 1260.8 764.4L1260.8 764.4zM1215.1 752.1c.1.4.2.7.5.9.3.2.4.2.2.1-.2-.1-.3-.1-.5-.2-.1 0-.2-.1-.3-.1-.2-.1-.2-.1.1 0 0 0-.3-.1-.4-.1-.4-.1-.7-.2-1.1-.2-.2 0-.4 0-.5-.1-.1 0-.2 0-.3 0 .3 0 .4 0 .2 0-.7 0-1.4 0-2 .2-.5.1.3-.1-.1 0-.2 0-.4.1-.5.1-.3.1-.7.2-1 .4-1 .4-2.3-.2-2.6-1.2-.4-1.1.2-2.1 1.2-2.6 1.8-.8 3.8-1 5.8-.9 1 .1 1.9.3 2.9.6 1.2.4 2.5 1.1 2.5 2.5 0 .6-.1 1-.5 1.5-.3.4-.9.7-1.4.7C1216.3 753.9 1215 753.2 1215.1 752.1L1215.1 752.1z" class="color1a2b47 svgShape"></path><path fill="#4f6cdb" d="M1239.6 778.1c-.8 1.8-1.4 3.6-1.9 5.5-.2.8-.6 1.8-.7 2.6-.1.1-.2 0-.2-.2.2.1.4.2.6.3.4.2.7.3 1.1.4 3.3 1.2 6.5 2.8 8.1 6.1 1.5 3.1.2 6.5-2.5 8.5-3.1 2.2-7 2-10.6 1.8-1.1-.1-1.8-1.3-1.6-2.3.2-1.2 1.3-1.7 2.4-1.6 2.7.2 6.2.5 8.2-1.7 1.9-2.2-.3-4.7-2.3-5.8-2.5-1.3-6.9-1.7-7.1-5.1-.1-1.6.6-3.4 1.1-5 .5-1.8 1.2-3.5 1.9-5.2C1236.9 774 1240.6 775.7 1239.6 778.1L1239.6 778.1zM1200.8 798.9c-4.4 8.3-2.3 18.3 5.2 23.4 7.5 5 17.9 3.3 24.3-3.6.4-.5.6-1 .6-1.6 0-.7-.3-1.2-.9-1.6l-26.1-17.5c-.8-.5-1.8-.4-2.6.3C1201.1 798.4 1200.9 798.6 1200.8 798.9z" class="colordb5f4f svgShape"></path><path fill="#ffffff" d="M1201.4,798.2c2.2,4.2,6.4,8.7,11.9,12.4c6.1,4.1,12.6,6.3,17.7,6.5c0-0.7-0.3-1.2-0.9-1.6l-26.1-17.5
					C1203.1,797.5,1202.1,797.6,1201.4,798.2z" class="colorffffff svgShape"></path><path fill="#8cc4fd" d="M1244.3,878c0,0,26.5,12.8,33.6,32.7c7.2,19.9,29.7,124.2,35.2,134.6s72.2,39.9,74.4,49.9
				s-7.6,44.2-12.4,44.3c-4.8,0.1-93.3-40.9-98.2-47.9c-4.9-7.1-33.4-59-36.8-81.2C1236.7,988.2,1244.3,878,1244.3,878z" class="colorfd9e8c svgShape"></path><path fill="#5382b1" d="M1277,1165.7l11.6,35.6c0,0-25.8,1.3-56.6,5.8c-46.1,6.8-103.3,20.6-102.2,48.1
				c1.8,45.9,24.2,89.3,24.2,89.3s-22.2-2.5-29.6-12.4c-7.4-9.9-26.9-44.6-28.6-53.9c-1.3-7.3-3-72.7-7.1-109.8
				c-1.1-9.9-2.4-17.8-3.8-22c-6.9-20-29.8-79-38.1-154.8c-8.2-75.9-4.4-97.2,4.3-103.5c0,0,2-2.5,4.9-5.8
				c5.6-6.4,14.6-15.9,20.2-16.9c8.6-1.7,55.9-1.3,55.9-1.3s13.6,60,52.9,79.8c39.2,19.9,57.6,7.3,54.2-16.3
				c-3.4-23.6-14.9-54.9-14.9-54.9l20.1,5.3c0,0,10.9,60.5,18.4,74.8c7.5,14.3,25.2,32.6,27,53.3c0.8,8.9-4.4,21.7-10.3,36.1
				c0,0,0,0-0.1,0c-7.5,18.1-16.3,38.3-15.7,55.6c0,1.2,0.1,2.4,0.3,3.6c0.9,8,2.2,16.1,3.6,23.8
				C1271.8,1147.5,1277,1165.7,1277,1165.7z" class="color53b163 svgShape"></path><path fill="#3f6489" d="M1288.6,1201.3c0,0-25.8,1.3-56.6,5.8c-14.1-13.2-34.2-27.8-65.4-37.4c-38.7-11.9-63-8.1-77.8-1.2
				c-1.1-9.9-2.4-17.8-3.8-22c-6.9-20-29.8-79-38.1-154.8c-8.2-75.9-4.4-97.2,4.3-103.5c0,0,2-2.5,4.9-5.8
				c26-10.7,51.8,4.6,66.8,65.2c0,0,3.1,45.2,33.1,72.5c22.6,20.4,90.9,22.4,123.5,22.2c-7.5,18.1-16.3,38.3-15.7,55.6
				c-6.1-4.3-18.2-10.7-42-18.3c-44-14-19.6,18.4-3.5,30.2c8.5,6.2,30.5,11.8,49.4,15.5c4.2,22.2,9.4,40.5,9.4,40.5L1288.6,1201.3z" class="color3f897a svgShape"></path><path fill="#8cc4fd" d="M1072.4 872.9c0 0-29.9 9.7-26.9 55.2s17 148 24.7 162.9c7.7 14.9 12.4 19.3 24.6 27.3s31.8 19.2 63.7 29 45.1 10.6 53.7 15.7c8.6 5.1 15.4 12.2 15.4 12.2l78.8-1.8c0 0-24.4-19.1-30.7-23.5-6.3-4.4-22.6-7.4-28.5-11.8-5.9-4.4-63.4-48.6-86.9-65.8-23.6-17.2-24.4-20.5-25.2-22-.8-1.5-9.7-118.4-22.8-149.8C1098.9 869.3 1084.3 870.4 1072.4 872.9zM1442.5 1805.6c-3.4-.2-155.1-70.4-156.1-86.9-1.1-16.4 2.6-26.1 12-35.4 5.1-5 13.2-14.8 20.1-24.8 5.9-8.4 11.1-17 13-23.1 4.4-13.4 10.1-23.8 10.1-23.8l61.5 11.8c0 0-11.6 38.8-12.8 51.5-1.1 11.2 4.6 25.4 10.1 36.6.7 1.5 1.4 2.8 2.1 4.1 6 11.5 28.7 43.4 39.6 53.5 10.9 10.1 12 9.4 11.1 18C1452.2 1795.7 1445.9 1805.8 1442.5 1805.6z" class="colorfd9e8c svgShape"></path><path fill="#021b79" d="M1442.5,1805.6c-3.4-0.2-155.1-70.4-156.1-86.9c-1.1-16.4,2.6-26.1,12-35.4c5.1-5,13.2-14.8,20.1-24.8
				c8,3.8,15,8,16.9,12.1c5.2,10.8,9.2,26.9,30.3,41.4c15.3,10.5,28.5,3.9,34.6-0.6c0.7,1.5,1.4,2.8,2.1,4.1
				c6,11.5,28.7,43.4,39.6,53.5c10.9,10.1,12,9.4,11.1,18C1452.2,1795.7,1445.9,1805.8,1442.5,1805.6z" class="color2c367e svgShape"></path><path fill="#8cc4fd" d="M1588.5,1812.7c-3.2,1.4-170.3-0.7-178.1-17.9c-7.9-17.1-8.5-29.4-3.8-43.9c2.6-7.9,5.8-22.3,7.9-36.4
				c1.9-11.9,2.9-23.7,2.1-31.2c-1.6-16.5-0.7-30.5-0.7-30.5l60.8-17.1c0,0,5.7,47.3,9.8,61.6c3.7,12.7,14.8,25.1,24.4,34.5
				c1.3,1.2,2.5,2.3,3.6,3.4c10.3,9.5,44.2,32.8,58.3,38.5c14.1,5.6,14.8,4.3,17.6,14C1593.1,1797.4,1591.7,1811.4,1588.5,1812.7z" class="colorfd9e8c svgShape"></path><path fill="#0575e6" d="M1588.5 1812.7c-3.2 1.4-170.3-.7-178.1-17.9-7.9-17.1-8.5-29.4-3.8-43.9 2.6-7.9 5.8-22.3 7.9-36.4 8.8.2 17 1.4 20.4 4.8 9.2 9.1 19.6 24.5 44.8 29.9 18.3 3.9 27.5-9.7 31.2-17.4 1.3 1.2 2.5 2.3 3.6 3.4 10.3 9.5 44.2 32.8 58.3 38.5 14.1 5.6 14.8 4.3 17.6 14C1593.1 1797.4 1591.7 1811.4 1588.5 1812.7zM1583.8 1275.6c-7.5 15.2-53.5 117-77.7 167.9-.1.1-.2.3-.2.4-24.1 50.8-69.7 148-84.9 176.4-12.6 23.6-14.5 36.2-20.2 38.8-1.1.6-2.5.7-4 .4-9.4-1.7-58.7-25.7-64-34.9-4.3-7.5 15.5-49 27.8-89.6 2.8-9.1 5.1-18.2 6.8-26.8 8.9-46.9 20.7-128.3 41.2-172.5 20.5-44.3 20.9-56.5 20.9-56.5s-157.9 30.9-189.6-2.8c-31.7-33.7-1.9-83.6-1.9-83.6l287.7-4.3c0 0 7.5 2.7 16.9 6.9 13.6 6 31 15 35.4 22.9C1585.7 1231.7 1591.4 1260.3 1583.8 1275.6z" class="color535f9b svgShape"></path><path fill="#021b79" d="M1568.1,1279.6c-5,0.8-45.2,1.1-56.1-3.8c-10.8-4.8-23.2-10.9-23-1.6c0.1,6.2,10.2,103.7,17.1,169.3
				c-0.1,0.1-0.2,0.3-0.2,0.4c-24.1,50.8-69.7,148-84.9,176.4c-12.6,23.6-14.5,36.2-20.2,38.8c-7.8-37-20.2-83.5-40.2-124.2
				c2.8-9.1,5.1-18.2,6.8-26.8c8.9-46.9,20.7-128.3,41.2-172.5c20.5-44.3,20.9-56.5,20.9-56.5s-157.9,30.9-189.6-2.8
				c-31.7-33.7-1.9-83.6-1.9-83.6l287.7-4.3c0,0,7.5,2.7,16.9,6.9l-90.6,2.1c0,0,20.3,10.7,30.2,33.6c9.9,22.9,24,41.2,56.3,42.6
				C1570.9,1275.2,1573.2,1278.7,1568.1,1279.6z" class="color2c367e svgShape"></path><path fill="#0575e6" d="M1484.1,1593.7c0.7,33.4,1,55.6,0.8,57.4c-0.5,7.9-67.9,8.8-70.2,6c-2.2-2.8-11.4-58.6-14.8-82.9
				c-3.5-24.3-10.4-46.4-26.5-88.4c-16.1-42-29.4-122-31-130.6c-1.7-8.6-10,1.6-43,1c-33.1-0.7-136.4-1.9-156.8-16.5
				c-20.5-14.6-31.7-36.5-24.9-80.5c6.9-44,36.9-63.8,36.9-63.8s0.4,0,1.1,0c16.7-0.6,214.5-7.2,249-4.1
				c35.9,3.3,56.3,13.2,64.6,30.2C1475.6,1234.7,1481.8,1479.7,1484.1,1593.7z" class="color535f9b svgShape"></path><path fill="#021b79" d="M1392.8,1181.4c0.1,5.5-3.6,10.1-8.3,10.2l-225.4,5.3c-4.7,0.1-8.7-4.3-8.8-9.8s3.6-10.1,8.3-10.2l225.4-5.3
				C1388.8,1171.5,1392.7,1175.9,1392.8,1181.4z" class="color2c367e svgShape"></path><path fill="#021b79" d="M1252.6,1170.2l75.5-188.1c2.6-6.6,8.9-10.9,16-11.1l270.7-6.3c12.5-0.3,21.4,12.2,16.9,23.9l-71.1,187.8
				c-2.5,6.7-8.9,11.2-16.1,11.4l-275.1,6.6C1256.7,1194.8,1247.8,1182,1252.6,1170.2z" class="color2c367e svgShape"></path><ellipse cx="1455.7" cy="1078.6" fill="#c2d5e9" rx="20" ry="12.8" transform="rotate(-73.046 1455.784 1078.653)" class="colorc2d2e9 svgShape"></ellipse><path fill="#021b79" d="M1484.1,1593.7c0.7,33.4,1,55.6,0.8,57.4c-0.5,7.9-67.9,8.8-70.2,6c-2.2-2.8-11.4-58.6-14.8-82.9
				c-3.5-24.3-10.4-46.4-26.5-88.4c-16.1-42-29.4-122-31-130.6c-1.7-8.6-10,1.6-43,1c-33.1-0.7-136.4-1.9-156.8-16.5
				c-20.5-14.6-31.7-36.5-24.9-80.5c6.9-44,36.9-63.8,36.9-63.8s0.4,0,1.1,0c-12.9,20.1-22.2,44.2-18.3,68.3
				c10,61,201.1,44.1,201.1,44.1s-2.4-60.4,2.4-59c4.8,1.4,3.9,45.4,14.8,103.5c10.9,58.2,43.8,153.1,71.7,201.2
				C1440.7,1576.6,1463.7,1588,1484.1,1593.7z" class="color2c367e svgShape"></path></g><g fill="#000000" class="color000000 svgShape"><path fill="#e7eef6" d="M907.4,83.6c-57.7,0-104.4,46.8-104.4,104.5c0,57.7,46.8,104.5,104.4,104.5c57.7,0,104.5-46.8,104.5-104.5
						C1011.9,130.4,965.1,83.6,907.4,83.6z M907.4,272.1c-46.4,0-84-37.6-84-84s37.6-84,84-84c46.4,0,84,37.6,84,84
						S953.8,272.1,907.4,272.1z" class="colore7ebf6 svgShape"></path><path fill="#c2d5e9" d="M953.2,238.5c-1.2,0-2.3-0.4-3.2-1.3L902.8,190v-54.6c0-2.5,2.1-4.6,4.6-4.6s4.6,2.1,4.6,4.6v50.8
							l44.5,44.5c1.8,1.8,1.8,4.7,0,6.5C955.5,238,954.4,238.5,953.2,238.5z" class="colorc2d2e9 svgShape"></path><circle cx="907.4" cy="188.1" r="15.6" fill="#c2d5e9" class="colorc2d2e9 svgShape"></circle></g><g fill="#000000" class="color000000 svgShape"><path fill="#021b79" d="M1272.8,1789.9l-36,73c-2.1,4.2-7.1,5.9-11.3,3.8l-38.6-19c-0.4-0.2-0.6-0.7-0.4-1.2l42.6-86.5
				c0.2-0.4,0.7-0.6,1.2-0.4l38.6,19C1273.2,1780.7,1274.9,1785.7,1272.8,1789.9z" class="color2c367e svgShape"></path><path fill="#0575e6" d="M1214.8,1722l9.4,4.6c7.1,3.5,12.8,8.6,17.2,14.6c10,14,12,33.4,3.7,50.4l-25.7,52.1
				c-12,24.3-40.8,34.7-64.2,23.1l-9.4-4.6c-2.5-1.2-3.4-4.3-2.2-6.8l64.6-131C1209.4,1721.9,1212.4,1720.8,1214.8,1722z" class="color535f9b svgShape"></path><path fill="#021b79" d="M1176.5,1841.9l14.6-4.1c2-0.6,3.7-2,4.7-3.9l45.7-92.6c10,14,12,33.4,3.7,50.4l-25.7,52.1
				c-12,24.3-40.8,34.7-64.2,23.1l-9.4-4.6c-2.5-1.2-3.4-4.3-2.2-6.8l64.6-131c1.3-2.5,4.3-3.6,6.7-2.4l6.1,3l-52.6,106.7
				C1165.5,1837.3,1170.5,1843.6,1176.5,1841.9z" class="color2c367e svgShape"></path><path fill="#021b79" d="M1215.4,1719.5l-71.3,144.7c-1,2.1-3.5,2.9-5.5,1.9l-34.3-16.9c-2.1-1-2.9-3.5-1.9-5.5l71.3-144.7
				c1-2.1,3.5-2.9,5.5-1.9l34.3,16.9C1215.6,1715,1216.4,1717.5,1215.4,1719.5z" class="color2c367e svgShape"></path><path fill="#62aefa" d="M998.4,1468.9c62.6,31.2,104.1,87.4,118,149.5c3.2,14.6,10.3,27.9,20.1,39c2.8,3.1,5.8,6.1,9,8.8
					c3.4,2.9,7.1,5.6,11,8c2.5,1.5,5,3,7.7,4.3l16.3,8.2l-84,168l-10.3-5.2c-25.7-12.8-55.5-12.6-80.7-0.2
					c-59.7,29.3-133.3,30.7-198.6-2.9c-73-37.5-116.9-109.9-120.3-185.1c-1.5-33.1,4.8-66.7,19.9-98.1
					C757.8,1456.5,889.2,1414.4,998.4,1468.9z" class="colorfaae62 svgShape"></path><path fill="#9fcfff" d="M998.4,1468.9c62.6,31.2,104.1,87.4,118,149.5c0.2,1,0.4,1.9,0.7,2.9c-20.6-42.7-55.3-79.5-101.7-102.6
					c-109.2-54.5-240.6-12.3-291.9,94.3c-15.1,31.4-21.5,65.1-19.9,98.1c0.5,11.5,2,22.9,4.3,34.1c-12.7-26.3-20-54.9-21.3-83.9
					c-1.5-33.1,4.8-66.7,19.9-98.1C757.8,1456.5,889.2,1414.4,998.4,1468.9z" class="colorffe19f svgShape"></path><path fill="#ffffff" d="M1127.2,1793.2l-6.6,13.1l-179.8-89.8l-8,16c-5.5,11-19.3,15.4-30.7,9.7c-11.4-5.7-16.2-19.3-10.7-30.3
					l4.6-9.1c5.5-11,19.3-15.4,30.7-9.7l7.1,3.5l24.5-49.1l-7.1-3.5c-11.4-5.7-16.2-19.3-10.7-30.3l3.8-7.6
					c5.5-11,19.3-15.4,30.7-9.7c11.4,5.7,16.2,19.3,10.7,30.3l-7.2,14.4l178.6,89.2l-6.6,13.1L972,1654.3l-24.5,49.1L1127.2,1793.2z
					 M964.9,1634.4l7.2-14.4c1.9-3.8,0.2-8.5-3.7-10.4c-3.9-2-8.6-0.5-10.5,3.3l-3.8,7.6c-1.9,3.8-0.2,8.5,3.7,10.4L964.9,1634.4z
					 M905.1,1718.6c-1.9,3.8-0.2,8.5,3.7,10.4c3.9,2,8.7,0.5,10.5-3.3l8-16l-7.1-3.5c-3.9-2-8.6-0.5-10.5,3.3L905.1,1718.6z" class="colorffffff svgShape"></path><path fill="#5172ec" d="M1083.7,1810.7c13.2-1.4,44.8-69.5,72.8-136.6c2.5,1.5,5,3,7.7,4.3l16.3,8.2l-84,168l-10.3-5.2
					c-25.7-12.8-55.5-12.6-80.7-0.2c-59.7,29.3-133.3,30.7-198.6-2.9c-73-37.5-116.9-109.9-120.3-185.1
					c22.5,47.6,57.7,93.8,113,122.9c156.2,82.2,222.1-12.8,257.3-2c22.9,7,56.8-74.2,79.7-124.9c2.8,3.1,5.8,6.1,9,8.8
					C1117.9,1724,1064.7,1812.7,1083.7,1810.7z" class="colorec8751 svgShape"></path><path fill="#021b79" d="M1068.1 1717.3l14.1 7c2 1 2.8 3.4 1.8 5.3l-10 20.3c-1 2-3.3 2.8-5.3 1.8l-14.1-7c-2-1-2.8-3.4-1.8-5.3l10-20.3C1063.8 1717.1 1066.1 1716.3 1068.1 1717.3zM1166.2 1714.2l-26.3 52.8-25.9 53.1-41.4-35.1c-6.6-5.6-8.6-14.7-4.9-22.2l24.9-50.5c3.7-7.5 12.2-11.4 20.6-9.6L1166.2 1714.2z" class="color2c367e svgShape"></path><path fill="#0575e6" d="M1178.6,1680.7l32.8,16.2c2.5,1.2,3.5,4.2,2.3,6.7l-82.8,167.9c-1.2,2.5-4.2,3.5-6.7,2.3l-32.8-16.2
				c-2.5-1.2-3.5-4.2-2.3-6.7l82.8-167.9C1173.1,1680.5,1176.1,1679.5,1178.6,1680.7z" class="color535f9b svgShape"></path><path fill="#021b79" d="M1195.7,1689.1l15.7,7.7c2.5,1.2,3.5,4.2,2.3,6.7l-82.8,167.9c-1.2,2.5-4.2,3.5-6.7,2.3l-32.8-16.2
				c-2.5-1.2-3.5-4.2-2.3-6.7l3.9-8l20.9-2.8c4.3-0.6,8-3.2,10-7.1C1135.2,1810.6,1174,1733.5,1195.7,1689.1z" class="color2c367e svgShape"></path></g><g fill="#000000" class="color000000 svgShape"><path fill="#c2d5e9" d="M1944.1 1894.6H1.8c-1 0-1.8-.8-1.8-1.8l0-16.4c0-1 .8-1.8 1.8-1.8h1942.4c1 0 1.8.8 1.8 1.8v16.4C1945.9 1893.8 1945.1 1894.6 1944.1 1894.6zM1047.3 1937.8H309.8c-1 0-1.8-.8-1.8-1.8v-16.4c0-1 .8-1.8 1.8-1.8h737.5c1 0 1.8.8 1.8 1.8v16.4C1049.1 1937 1048.3 1937.8 1047.3 1937.8zM1590.1 1937.8h-472.7c-1 0-1.8-.8-1.8-1.8v-16.4c0-1 .8-1.8 1.8-1.8h472.7c1 0 1.8.8 1.8 1.8v16.4C1591.8 1937 1591 1937.8 1590.1 1937.8z" class="colorc2d2e9 svgShape"></path></g><g fill="#000000" class="color000000 svgShape"><path fill="#e7eef6" d="M1526.1,105.5l-81.8,193l-66.2-43.6l-17.4-11.5c0,0-0.1,0-0.1-0.1l-50.8-33.4L1526.1,105.5z" class="colore7ebf6 svgShape"></path><polygon fill="#c2d5e9" points="1526.1 105.5 1378.1 254.9 1363.6 269.6 1360.6 243.4" class="colorc2d2e9 svgShape"></polygon></g></g></svg>