<svg xmlns="http://www.w3.org/2000/svg" xmlns:xlink="http://www.w3.org/1999/xlink" viewBox="0 0 3000 3000" id="Successfulbusinessmanridebicyclestothefinishline"><defs><linearGradient id="b" x1="1919.89" x2="1919.89" y1="2341.23" y2="2267.28" gradientUnits="userSpaceOnUse"><stop offset="0"></stop><stop offset="1" stop-color="#e6e7e8" class="stopColore6e7e8 svgShape"></stop></linearGradient><linearGradient id="a" x1="1926.25" x2="1926.25" y1="2331.12" y2="2277.81" gradientUnits="userSpaceOnUse"><stop offset="0" stop-color="#e6e7e8" class="stopColore6e7e8 svgShape"></stop><stop offset="1"></stop></linearGradient><linearGradient id="c" x1="1881.08" x2="1881.08" y1="2610.97" y2="1979.21" xlink:href="#a"></linearGradient><linearGradient id="d" x1="1489.38" x2="1489.38" y1="2423.26" y2="2303.82" xlink:href="#b"></linearGradient><linearGradient id="e" x1="1499.65" x2="1499.65" y1="2406.91" y2="2320.83" xlink:href="#a"></linearGradient><linearGradient id="f" x1="1496.62" x2="1496.62" y1="2532.22" y2="2357.83" gradientUnits="userSpaceOnUse"><stop offset="0" stop-color="#e6e7e8" class="stopColore6e7e8 svgShape"></stop><stop offset=".1" stop-color="#e1e2e3" class="stopColore1e2e3 svgShape"></stop><stop offset=".24" stop-color="#d1d2d3" class="stopColord1d2d3 svgShape"></stop><stop offset=".38" stop-color="#b8b9ba" class="stopColorb8b9ba svgShape"></stop><stop offset=".54" stop-color="#949596" class="stopColor949596 svgShape"></stop><stop offset=".7" stop-color="#676768" class="stopColor676768 svgShape"></stop><stop offset=".87" stop-color="#303031" class="stopColor303031 svgShape"></stop><stop offset="1"></stop></linearGradient><linearGradient id="g" x1="951.51" x2="951.51" y1="2424.38" y2="2331.44" xlink:href="#b"></linearGradient><linearGradient id="h" x1="959.5" x2="959.5" y1="2411.66" y2="2344.67" xlink:href="#a"></linearGradient><linearGradient id="i" x1="907.3" x2="907.3" y1="2701.78" y2="2033.54" xlink:href="#a"></linearGradient></defs><g style="isolation:isolate" fill="#000000" class="color000000 svgShape"><g fill="#000000" class="color000000 svgShape"><path fill="#56a5f4" d="M1905.54,1783s-283.46-74.78-415-68.65S1018.59,1913.78,760,1954.16,0,1843.93,0,1843.93V1722.08s631.82,170.8,771.06,133.22,596.8-208.23,686.23-208.66,494,96.33,494,96.33S1950.53,1762.78,1905.54,1783Z" class="colorf4b456 svgShape"></path><path fill="#415ab7" d="M1136.12,1213.09S1849.3,1515.94,1967,1629.87c105.76,102.35-62.2,153.13-62.2,153.13s176-81.44-266.33-249.14c-130.32-49.4-559.8-201.43-559.8-201.43l57.44-11-30.69-44.9H1174Z" class="colorb78741 svgShape"></path><path d="M1944.92,1611.4c-102.38-77.44-388.2-211.76-591-302.81-5.29,39.17-26.26,72.75-54.15,102.47,126,45,271.81,97.43,338.73,122.8,137.23,52,214.92,95.74,256.84,131.31C1908,1642.53,1925,1625.17,1944.92,1611.4Z" style="mix-blend-mode:multiply" fill="#939598" class="color939598 svgShape"></path><path fill="#9ac9f8" d="M0,1722.08v121.85S373.2,1956,641.71,1960.86c27.17-31.43,54.4-64.62,76.73-100.18C516.54,1861.71,0,1722.08,0,1722.08Z" class="colorf8d29a svgShape"></path><path fill="#56a5f4" d="M1182,1047.44s-14.17,25.51-14.17,39.42,7.08,44.7,7.08,44.7l36-35.93S1176.73,1093.41,1182,1047.44Z" class="colorf4b456 svgShape"></path><path fill="#9ac9f8" d="M956.74,1146.58s.16,28.16.16,42.06-7.25,42.06-7.25,42.06l36-35.93S972.23,1168.31,956.74,1146.58Z" class="colorf8d29a svgShape"></path><path fill="#415ab7" d="M1153.48,1426.22s17.72,21.87,26.42,32.73,20.63,37.36,20.63,37.36l5.65-50.56S1179.16,1433.49,1153.48,1426.22Z" class="colorb78741 svgShape"></path></g><g data-name="bike 1" fill="#000000" class="color000000 svgShape"><ellipse cx="1410.8" cy="2692.57" rx="1047.33" ry="92.99" transform="rotate(-4.39 1409.827 2690.917)" style="mix-blend-mode:multiply" fill="#bcbec0" class="colorbcbec0 svgShape"></ellipse><path d="M1757.88,2754.12q14.49-1.56,28.8-3.14l6.42-.71q13.51-1.5,26.86-3l6.41-.73q13.35-1.53,26.5-3.09l6-.71q14.29-1.68,28.35-3.41l3-.36q32.06-3.93,62.81-7.94l.24,0q14.64-1.91,28.93-3.83l6.18-.85q11.2-1.51,22.2-3l8.3-1.16q9.94-1.4,19.73-2.8l8.78-1.26q9.31-1.35,18.47-2.71l8.95-1.33c6.05-.91,12-1.81,17.93-2.72l8.52-1.31c6.33-1,12.56-2,18.75-2.94l5.66-.89h0c62.86-10.06,118.43-20.25,165.13-30.32-61.31-1.57-131.84-1.69-209.58-.37a360.37,360.37,0,0,0-389.16,15.69q-94.15,5.65-193.46,13.22c-148.56,11.4-289.64,25-417.19,39.77a360.62,360.62,0,0,0-382.85,55.22c-26.19,4.84-50.57,9.68-72.89,14.49,17.78.46,36.57.75,55.85,1l0,0c4.53,0,9.2.08,13.8.11,3.32,0,6.57.07,9.93.09,10.87.06,22,.08,33.29.07l11.77,0q15,0,30.36-.17l8.56-.07c11.69-.11,23.62-.28,35.67-.46l12.94-.22c12.48-.21,25.09-.45,37.93-.75l9.66-.24q16.16-.37,32.67-.85l13.7-.39q19.71-.6,39.88-1.29l13.35-.48q16.08-.58,32.45-1.24c4.7-.18,9.37-.36,14.11-.56q20.51-.84,41.44-1.8l16-.75q17.38-.81,35-1.71l12.45-.63q17.14-.88,34.54-1.84l0,0c79.29-4.36,161.92-9.77,247-16.29,66.07-5.07,130.63-10.58,193.21-16.43h0l.88-.08q72.72-6.81,141.54-14.19Z" style="mix-blend-mode:multiply" fill="#bcbec0" class="colorbcbec0 svgShape"></path><path d="M1473.3,1599s-295.61,78.39-300.12,150.17c-7.94,126.39,157.76,337.31,237.62,432.42-86.85,58.79-49.47,110.51-49.47,110.51l183-87.45-177.86-358.15,373.66-124.93,37.29-184.79Z" fill="#000000" class="color000000 svgShape"></path><path fill="#0a1438" d="M1915.35,2287.31l-323.54-367c-2.62-3-19.82,29.09-19.82,29.09l250.18,283.77c19.37,22,7.3,58.38-20.6,62.13l-296.75,39.79v28.44l400.63-46.36a16.76,16.76,0,0,0,13.47-11.64A18.78,18.78,0,0,0,1915.35,2287.31Z" class="color0a2a38 svgShape"></path><path d="M1457.56,2447.25a5.34,5.34,0,0,1,3.94,1.43,4.65,4.65,0,0,0,6.81-.52l0,0a5.89,5.89,0,0,1,.6-.62l.18-.17a5.08,5.08,0,0,1,.61-.42l.28-.18a5.3,5.3,0,0,1,.65-.28c.12,0,.22-.09.34-.12a4.83,4.83,0,0,1,.66-.14c.12,0,.22-.06.34-.07h.2c.11,0,.22,0,.34,0a5.32,5.32,0,0,1,.69,0,1.83,1.83,0,0,1,.32.07,4.1,4.1,0,0,1,.71.18l.29.12a5.39,5.39,0,0,1,.68.34l.19.12a5.22,5.22,0,0,1,.7.54h0a4.65,4.65,0,0,0,6.81-.52l0,0a4.4,4.4,0,0,1,.6-.62l.17-.17a6.74,6.74,0,0,1,.62-.42l.27-.17a5.51,5.51,0,0,1,.66-.29l.33-.12a5,5,0,0,1,.67-.14,3.4,3.4,0,0,1,.34-.07.33.33,0,0,0,.1,0h.09c.12,0,.23,0,.34,0s.46,0,.69,0a1.94,1.94,0,0,1,.33.07,5.68,5.68,0,0,1,.71.18l.29.12a6.16,6.16,0,0,1,.68.34l.19.13a4.44,4.44,0,0,1,.7.53h0a4.65,4.65,0,0,0,6.81-.52l0,0a5,5,0,0,1,.59-.62l.18-.17a6.58,6.58,0,0,1,.61-.42c.1-.06.18-.12.28-.17a4.88,4.88,0,0,1,.66-.29c.11,0,.22-.09.33-.12a4.83,4.83,0,0,1,.66-.14c.12,0,.23-.06.34-.07h.2c.12,0,.23,0,.34,0s.46,0,.69,0a1.94,1.94,0,0,1,.33.07,5.68,5.68,0,0,1,.71.18l.28.12a4.79,4.79,0,0,1,.68.34l.19.13a5.15,5.15,0,0,1,.7.53h0a4.65,4.65,0,0,0,6.81-.52l0,0a4.4,4.4,0,0,1,.6-.62l.18-.17a6.58,6.58,0,0,1,.61-.42l.27-.17a5.51,5.51,0,0,1,.66-.29l.33-.12a5,5,0,0,1,.67-.14l.34-.07h.2a2,2,0,0,1,.34,0,5.08,5.08,0,0,1,.68,0l.33.07a5.68,5.68,0,0,1,.71.18l.29.12a6.16,6.16,0,0,1,.68.34l.19.13a5.15,5.15,0,0,1,.7.53h0a4.59,4.59,0,0,0,3.51,1.23,4.66,4.66,0,0,0,3.3-1.75l0,0a5,5,0,0,1,.6-.62,1.29,1.29,0,0,1,.17-.16,5.27,5.27,0,0,1,.62-.43l.27-.17a6.58,6.58,0,0,1,.66-.29l.33-.12a5,5,0,0,1,.67-.14l.33-.07a.33.33,0,0,0,.1,0h.1a1.88,1.88,0,0,1,.34,0,5.31,5.31,0,0,1,.69,0l.33.07a5.68,5.68,0,0,1,.71.18l.28.12a5.52,5.52,0,0,1,.69.34l.19.13a5.06,5.06,0,0,1,.69.53h0a4.65,4.65,0,0,0,6.81-.52h0a5.26,5.26,0,0,1,.61-.64l.17-.15a4.55,4.55,0,0,1,.62-.43,2.46,2.46,0,0,1,.27-.17,6.58,6.58,0,0,1,.66-.29,3.21,3.21,0,0,1,.33-.12c.21-.06.44-.1.66-.14s.22-.05.34-.07a.34.34,0,0,0,.1,0h.1c.11,0,.22,0,.34,0a5.08,5.08,0,0,1,.68,0l.33.07a4.12,4.12,0,0,1,.71.19l.29.11a5.39,5.39,0,0,1,.68.34l.19.13a5.15,5.15,0,0,1,.7.53h0a4.63,4.63,0,0,0,6.81-.52h0a6.15,6.15,0,0,1,.61-.64l.17-.15a6.26,6.26,0,0,1,.62-.43l.27-.17a6.58,6.58,0,0,1,.66-.29l.33-.12c.22-.06.44-.1.67-.14s.22,0,.34-.07h.1l.09,0c.12,0,.23,0,.34,0a5.23,5.23,0,0,1,.69,0l.33.07a4.38,4.38,0,0,1,.71.19c.1,0,.19.08.29.12a6.08,6.08,0,0,1,.68.33l.19.13a5.15,5.15,0,0,1,.7.53h0a4.64,4.64,0,0,0,6.82-.52h0a5.2,5.2,0,0,1,.61-.63,1.29,1.29,0,0,1,.17-.16,5.16,5.16,0,0,1,.61-.43c.1-.06.18-.12.28-.17a4.84,4.84,0,0,1,.66-.28l.33-.13a5.13,5.13,0,0,1,.66-.13c.12,0,.23-.06.34-.07h.1l.1,0c.12,0,.23,0,.34,0a5.31,5.31,0,0,1,.69,0l.33.07a4.38,4.38,0,0,1,.71.19l.28.12a4.76,4.76,0,0,1,.68.33l.19.13a5.15,5.15,0,0,1,.7.53l0,0a4.64,4.64,0,0,0,6.81-.53h0a4.47,4.47,0,0,1,.6-.63l.18-.16a4.45,4.45,0,0,1,.61-.43,2.61,2.61,0,0,1,.28-.17,5.3,5.3,0,0,1,.65-.28l.34-.13a4.53,4.53,0,0,1,.66-.13,3.4,3.4,0,0,1,.34-.07.33.33,0,0,1,.1,0l.1,0,.34,0a5.08,5.08,0,0,1,.68,0l.33.07a5.71,5.71,0,0,1,.71.19c.1,0,.19.08.29.12a6.08,6.08,0,0,1,.68.33l.19.13a5.15,5.15,0,0,1,.7.53l0,0a4.64,4.64,0,0,0,6.81-.53h0a4.47,4.47,0,0,1,.6-.63l.17-.16a5.16,5.16,0,0,1,.61-.43c.1,0,.19-.12.28-.17a4.84,4.84,0,0,1,.66-.28l.33-.13a5.13,5.13,0,0,1,.66-.13c.12,0,.23-.06.34-.07a.33.33,0,0,1,.1,0l.1,0,.34,0a5.31,5.31,0,0,1,.69,0l.33.07a5.71,5.71,0,0,1,.71.19,2.36,2.36,0,0,1,.28.12,5.47,5.47,0,0,1,.69.33l.19.13a6,6,0,0,1,.69.53l0,0a4.65,4.65,0,0,0,6.81-.52s0,0,0,0a5.13,5.13,0,0,1,.6-.63l.18-.16a5.16,5.16,0,0,1,.61-.43c.09-.05.18-.12.28-.17a5.3,5.3,0,0,1,.65-.28l.34-.13a4.81,4.81,0,0,1,.66-.13c.12,0,.22-.06.34-.07h.1l.1,0,.34,0a5.08,5.08,0,0,1,.68,0l.33.07a5.28,5.28,0,0,1,.71.19c.1,0,.19.08.29.12a5.34,5.34,0,0,1,.68.33l.19.13a6.12,6.12,0,0,1,.7.53l0,0a4.65,4.65,0,0,0,6.81-.52,0,0,0,0,1,0,0,4.47,4.47,0,0,1,.6-.63l.17-.16a5.27,5.27,0,0,1,.62-.43l.27-.17a4.84,4.84,0,0,1,.66-.28l.33-.13a5,5,0,0,1,.67-.13,3.4,3.4,0,0,1,.34-.07h.1l.09,0,.34,0a5.23,5.23,0,0,1,.69,0l.33.07a5.71,5.71,0,0,1,.71.19,2.36,2.36,0,0,1,.28.12,5.47,5.47,0,0,1,.69.33l.19.13a5.22,5.22,0,0,1,.7.54h0a4.66,4.66,0,0,0,6.82-.52s0,0,0,0a5.2,5.2,0,0,1,.61-.63l.17-.16a6.67,6.67,0,0,1,.61-.43c.1,0,.18-.12.28-.17a4.84,4.84,0,0,1,.66-.28l.33-.13a5.13,5.13,0,0,1,.66-.13c.12,0,.23-.06.34-.07h.1l.1,0,.34,0a5.31,5.31,0,0,1,.69,0l.33.07a5.71,5.71,0,0,1,.71.19l.28.12a4.76,4.76,0,0,1,.68.33l.19.13a5.22,5.22,0,0,1,.7.54h0a4.65,4.65,0,0,0,6.81-.52l0,0a5.09,5.09,0,0,1,.6-.63c.06-.05.11-.11.18-.16a4.39,4.39,0,0,1,.61-.42,2.68,2.68,0,0,1,.28-.18,5.3,5.3,0,0,1,.65-.28l.34-.13a4.53,4.53,0,0,1,.66-.13,3.4,3.4,0,0,1,.34-.07h.1l.1,0,.34,0a5.08,5.08,0,0,1,.68,0l.33.07a5.71,5.71,0,0,1,.71.19c.1,0,.19.08.29.12a6.08,6.08,0,0,1,.68.33l.19.13a5.22,5.22,0,0,1,.7.54h0a4.66,4.66,0,0,0,6.82-.52s0,0,0,0a6.05,6.05,0,0,1,.61-.63l.17-.16a5.08,5.08,0,0,1,.61-.42l.28-.18a6.54,6.54,0,0,1,.66-.28l.33-.13c.22-.06.44-.09.66-.13s.23-.06.34-.07h.1l.1,0,.34,0a4,4,0,0,1,.69,0c.11,0,.22,0,.33.06a5.71,5.71,0,0,1,.71.19l.28.12a5.52,5.52,0,0,1,.69.34l.19.12a5.13,5.13,0,0,1,.69.54h0a4.65,4.65,0,0,0,6.81-.52l0,0a6,6,0,0,1,.6-.63l.18-.16a5.08,5.08,0,0,1,.61-.42,2.68,2.68,0,0,1,.28-.18c.21-.11.43-.19.65-.28a3.4,3.4,0,0,1,.34-.12,4.83,4.83,0,0,1,.66-.14c.12,0,.22-.06.34-.07h.2c.11,0,.22,0,.34,0a3.82,3.82,0,0,1,.68,0,1.76,1.76,0,0,1,.33.07,4.1,4.1,0,0,1,.71.18l.29.12a5.39,5.39,0,0,1,.68.34l.19.12a5.22,5.22,0,0,1,.7.54h0a4.65,4.65,0,0,0,6.81-.52s0,0,0,0a5.09,5.09,0,0,1,.6-.63l.17-.16a5.19,5.19,0,0,1,.62-.42l.27-.18a6.54,6.54,0,0,1,.66-.28c.11,0,.22-.09.33-.12a5,5,0,0,1,.67-.14,3.4,3.4,0,0,1,.34-.07h.19c.12,0,.23,0,.34,0a5.22,5.22,0,0,1,.69,0,1.94,1.94,0,0,1,.33.07,4.35,4.35,0,0,1,.71.18l.28.12a5.52,5.52,0,0,1,.69.34l.19.12a5.22,5.22,0,0,1,.7.54h0a4.66,4.66,0,0,0,6.82-.52s0,0,0,0a7.23,7.23,0,0,1,.61-.63l.17-.16a6.58,6.58,0,0,1,.61-.42c.1-.06.18-.12.28-.17a5.37,5.37,0,0,1,.65-.29c.12,0,.22-.09.34-.12a5.18,5.18,0,0,1,.66-.14c.12,0,.23-.06.34-.07h.2c.12,0,.22,0,.34,0s.46,0,.69,0a1.65,1.65,0,0,1,.32.07,5.41,5.41,0,0,1,.72.18l.28.12a4.79,4.79,0,0,1,.68.34l.19.13a4.44,4.44,0,0,1,.7.53h0a4.65,4.65,0,0,0,6.81-.52l0,0a5.91,5.91,0,0,1,.6-.63l.18-.16a5.47,5.47,0,0,1,.61-.42,2.61,2.61,0,0,1,.28-.17,5.37,5.37,0,0,1,.65-.29,3.4,3.4,0,0,1,.34-.12,4.54,4.54,0,0,1,.66-.14,3.4,3.4,0,0,1,.34-.07.33.33,0,0,0,.1,0h.1c.11,0,.22,0,.34,0s.46,0,.68,0a1.94,1.94,0,0,1,.33.07,5.68,5.68,0,0,1,.71.18l.28.12a5.52,5.52,0,0,1,.69.34l.18.12a5.31,5.31,0,0,1,.71.54h0a4.66,4.66,0,0,0,6.82-.52s0,0,0,0a7.23,7.23,0,0,1,.61-.63l.17-.16a6.58,6.58,0,0,1,.61-.42l.28-.17a4.88,4.88,0,0,1,.66-.29l.33-.12a5.18,5.18,0,0,1,.66-.14l.34-.07a.33.33,0,0,0,.1,0h.1a1.88,1.88,0,0,1,.34,0,5.31,5.31,0,0,1,.69,0l.32.07a5.41,5.41,0,0,1,.72.18l.28.12a5.52,5.52,0,0,1,.69.34l.18.12a5.31,5.31,0,0,1,.71.54h0a4.65,4.65,0,0,0,6.81-.52l0,0a7.11,7.11,0,0,1,.6-.63l.18-.15a5.16,5.16,0,0,1,.61-.43,2.61,2.61,0,0,1,.28-.17c.21-.11.43-.2.65-.29a3.4,3.4,0,0,1,.34-.12,4.83,4.83,0,0,1,.66-.14l.34-.07a.34.34,0,0,0,.1,0h.1a2,2,0,0,1,.34,0,5.08,5.08,0,0,1,.68,0l.33.07a6.31,6.31,0,0,1,.72.18l.27.12a6.44,6.44,0,0,1,.7.34l.18.12a6.2,6.2,0,0,1,.7.54h0a4.65,4.65,0,0,0,6.81-.52s0,0,0,0a4.47,4.47,0,0,1,.6-.63l.17-.16a6.26,6.26,0,0,1,.62-.43l.27-.17c.21-.11.44-.2.66-.29s.22-.09.33-.12.44-.1.67-.14.22,0,.34-.07h.1l.09,0c.12,0,.23,0,.34,0a5.23,5.23,0,0,1,.69,0l.33.07a4.38,4.38,0,0,1,.71.19l.28.11a5.52,5.52,0,0,1,.69.34l.18.12a6.32,6.32,0,0,1,.71.54,0,0,0,0,0,0,0,4.64,4.64,0,0,0,6.82-.52h0a5.2,5.2,0,0,1,.61-.63,1.29,1.29,0,0,1,.17-.16,4.55,4.55,0,0,1,.62-.43,2.46,2.46,0,0,1,.27-.17,6.58,6.58,0,0,1,.66-.29l.33-.12c.22-.06.44-.1.66-.14a3.4,3.4,0,0,0,.34-.07h.1l.1,0c.12,0,.23,0,.34,0a5.31,5.31,0,0,1,.69,0l.33.07a4.38,4.38,0,0,1,.71.19l.28.12a4.37,4.37,0,0,1,.69.33l.18.12a6.2,6.2,0,0,1,.7.54h0a4.63,4.63,0,0,0,6.81-.52h0a4.47,4.47,0,0,1,.6-.63l.17-.16a6.26,6.26,0,0,1,.62-.43l.27-.17c.22-.11.44-.2.66-.29l.34-.12a4.53,4.53,0,0,1,.66-.13,3.4,3.4,0,0,1,.34-.07.33.33,0,0,1,.1,0l.1,0c.11,0,.22,0,.34,0a5.08,5.08,0,0,1,.68,0l.33.07a4.38,4.38,0,0,1,.71.19,2.36,2.36,0,0,1,.28.12,4.37,4.37,0,0,1,.69.33,2,2,0,0,0,.19.12,6.2,6.2,0,0,1,.7.54s0,0,0,0a4.65,4.65,0,0,0,6.82-.53h0a5.2,5.2,0,0,1,.61-.63l.17-.16a5.27,5.27,0,0,1,.62-.43,2.46,2.46,0,0,1,.27-.17,4.84,4.84,0,0,1,.66-.28l.33-.13a5.13,5.13,0,0,1,.66-.13c.12,0,.23-.06.34-.07a.33.33,0,0,1,.1,0l.1,0,.34,0a5.31,5.31,0,0,1,.69,0l.33.07a5.71,5.71,0,0,1,.71.19,2.36,2.36,0,0,1,.28.12,4.37,4.37,0,0,1,.69.33l.18.13a4.59,4.59,0,0,1,.71.54h0a4.64,4.64,0,0,0,6.81-.53h0a4.54,4.54,0,0,1,.61-.63,1.29,1.29,0,0,1,.17-.16,5.16,5.16,0,0,1,.61-.43,2.61,2.61,0,0,1,.28-.17,4.84,4.84,0,0,1,.66-.28l.33-.13a4.81,4.81,0,0,1,.66-.13c.12,0,.22-.06.34-.07h.1l.1,0,.34,0a5.08,5.08,0,0,1,.68,0l.33.07a5.86,5.86,0,0,1,.72.19l.28.12a6.22,6.22,0,0,1,.69.33l.18.13a5.22,5.22,0,0,1,.7.54h0a4.65,4.65,0,0,0,6.81-.52,0,0,0,0,1,0,0,4.47,4.47,0,0,1,.6-.63l.17-.16a6.26,6.26,0,0,1,.62-.43l.27-.17a5.44,5.44,0,0,1,.66-.28l.33-.13a5,5,0,0,1,.67-.13,3.4,3.4,0,0,1,.34-.07h.1l.09,0,.34,0a5.23,5.23,0,0,1,.69,0l.33.07a5.71,5.71,0,0,1,.71.19,2.36,2.36,0,0,1,.28.12,5.47,5.47,0,0,1,.69.33l.18.13a5.31,5.31,0,0,1,.71.54,0,0,0,0,1,0,0,4.66,4.66,0,0,0,6.82-.52,0,0,0,0,1,0,0,5.2,5.2,0,0,1,.61-.63l.17-.16a5.16,5.16,0,0,1,.61-.43c.1-.06.18-.12.28-.17a4.84,4.84,0,0,1,.66-.28l.33-.13a5.13,5.13,0,0,1,.66-.13c.12,0,.23-.06.34-.07h.1l.1,0,.34,0a5.31,5.31,0,0,1,.69,0l.33.07a5.71,5.71,0,0,1,.71.19,2.36,2.36,0,0,1,.28.12,5.47,5.47,0,0,1,.69.33l.19.13a7,7,0,0,1,.69.53l0,0a4.65,4.65,0,0,0,6.81-.52l0,0a4.47,4.47,0,0,1,.6-.63l.17-.16a6.26,6.26,0,0,1,.62-.43l.27-.17a6.21,6.21,0,0,1,.66-.28l.34-.13a4.53,4.53,0,0,1,.66-.13,3.4,3.4,0,0,1,.34-.07h.1l.1,0,.34,0a5.08,5.08,0,0,1,.68,0l.33.07a5.71,5.71,0,0,1,.71.19c.1,0,.19.08.29.12a6.08,6.08,0,0,1,.68.33l.19.13a5.25,5.25,0,0,1,.69.53l0,0a4.65,4.65,0,0,0,6.81-.52s0,0,0,0a6.05,6.05,0,0,1,.61-.63l.17-.16a5.27,5.27,0,0,1,.62-.43c.09-.05.17-.12.27-.17a4.84,4.84,0,0,1,.66-.28l.33-.13a5.13,5.13,0,0,1,.66-.13c.12,0,.23-.06.34-.07h.1l.1,0,.34,0a4,4,0,0,1,.69,0l.33.06a5.71,5.71,0,0,1,.71.19,2.36,2.36,0,0,1,.28.12,5.47,5.47,0,0,1,.69.33l.19.13a7,7,0,0,1,.69.53l0,0a4.65,4.65,0,0,0,6.81-.52s0,0,0,0a4.54,4.54,0,0,1,.61-.63l.16-.16a5.39,5.39,0,0,1,.63-.43,1.48,1.48,0,0,1,.27-.16,3.89,3.89,0,0,1,.66-.29l.33-.13c.21-.06.44-.09.66-.13a3.4,3.4,0,0,1,.34-.07h.1l.1,0,.34,0a3.82,3.82,0,0,1,.68,0,2.05,2.05,0,0,1,.34.07,5.53,5.53,0,0,1,.7.18l.3.12a6,6,0,0,1,.67.34l.2.13a5.82,5.82,0,0,1,.68.52l0,0a4.65,4.65,0,0,0,6.81-.52s0,0,0,0a4.47,4.47,0,0,1,.6-.63l.17-.16a6.26,6.26,0,0,1,.62-.43c.09,0,.18-.12.27-.16a4.27,4.27,0,0,1,.66-.29c.11,0,.22-.09.33-.12a5,5,0,0,1,.67-.14,3.4,3.4,0,0,1,.34-.07h.19c.12,0,.23,0,.34,0a3.94,3.94,0,0,1,.69,0,1.94,1.94,0,0,1,.33.07,5.68,5.68,0,0,1,.71.18l.29.12a6.16,6.16,0,0,1,.68.34l.19.13a5.19,5.19,0,0,1,.69.52s0,0,0,0a4.66,4.66,0,0,0,6.82-.52s0,0,0,0a6.05,6.05,0,0,1,.61-.63l.17-.16a4.55,4.55,0,0,1,.62-.43l.27-.16a3.89,3.89,0,0,1,.66-.29,3.21,3.21,0,0,1,.33-.12,4.83,4.83,0,0,1,.66-.14c.12,0,.23-.06.34-.07h.2c.11,0,.23,0,.34,0a5.32,5.32,0,0,1,.69,0,1.94,1.94,0,0,1,.33.07,5.12,5.12,0,0,1,.7.18l.3.12a5.26,5.26,0,0,1,.67.34l.2.13a5.76,5.76,0,0,1,.69.53h0a4.62,4.62,0,0,0,3.52,1.23c.13,0,.25,0,.38-.07l.33,4.32h-.14l-.49,0a4.22,4.22,0,0,0-2.89,1.57,5.39,5.39,0,0,1-3.9,2.19s0,0,0,0h0a5.33,5.33,0,0,1-4.18-1.57,4.22,4.22,0,0,0-3.11-1.11l-.48,0a4.23,4.23,0,0,0-2.9,1.56,5.33,5.33,0,0,1-3.9,2.2h0a5.34,5.34,0,0,1-4.19-1.57,4.19,4.19,0,0,0-3.1-1.11l-.49,0a4.17,4.17,0,0,0-2.89,1.56,5.37,5.37,0,0,1-3.91,2.2h0a5.31,5.31,0,0,1-4.18-1.57,4.23,4.23,0,0,0-3.11-1.11l-.49,0a4.19,4.19,0,0,0-2.89,1.56,5.31,5.31,0,0,1-3.9,2.19H1897a5.33,5.33,0,0,1-4.18-1.57,4.2,4.2,0,0,0-3.11-1.11l-.48,0a4.19,4.19,0,0,0-2.9,1.56,5.29,5.29,0,0,1-3.9,2.19h0a5.37,5.37,0,0,1-4.19-1.57,4.19,4.19,0,0,0-3.1-1.11l-.49,0a4.24,4.24,0,0,0-2.89,1.57,5.31,5.31,0,0,1-3.9,2.19h-.06a5.35,5.35,0,0,1-4.18-1.57,4.23,4.23,0,0,0-3.11-1.11l-.48,0a4.24,4.24,0,0,0-2.9,1.57,5.29,5.29,0,0,1-3.9,2.19h-.06a5.36,5.36,0,0,1-4.18-1.57,4.19,4.19,0,0,0-3.1-1.11l-.49,0a4.24,4.24,0,0,0-2.9,1.57,5.29,5.29,0,0,1-3.9,2.19h0a5.35,5.35,0,0,1-4.18-1.57,4.23,4.23,0,0,0-3.11-1.11l-.49,0a4.24,4.24,0,0,0-2.89,1.57,5.31,5.31,0,0,1-3.9,2.19h-.06a5.36,5.36,0,0,1-4.18-1.57,4.28,4.28,0,0,0-3.11-1.12l-.48,0a4.24,4.24,0,0,0-2.9,1.57,5.29,5.29,0,0,1-3.9,2.19h0a5.34,5.34,0,0,1-4.19-1.58,4.28,4.28,0,0,0-3.1-1.11l-.49,0a4.24,4.24,0,0,0-2.89,1.57,5.33,5.33,0,0,1-3.9,2.19h-.06a5.28,5.28,0,0,1-4.18-1.57,4.31,4.31,0,0,0-3.11-1.11l-.48,0a4.24,4.24,0,0,0-2.9,1.57,5.29,5.29,0,0,1-3.9,2.19H1780a5.29,5.29,0,0,1-4.18-1.57,4.31,4.31,0,0,0-3.1-1.11l-.49,0a4.2,4.2,0,0,0-2.89,1.57,5.36,5.36,0,0,1-3.91,2.19h0a5.3,5.3,0,0,1-4.19-1.57,4.19,4.19,0,0,0-3.1-1.11l-.49,0a4.24,4.24,0,0,0-2.89,1.57,5.38,5.38,0,0,1-3.9,2.19h-.06a5.31,5.31,0,0,1-4.19-1.57,4.19,4.19,0,0,0-3.1-1.11l-.48,0a4.27,4.27,0,0,0-2.9,1.56,5.33,5.33,0,0,1-3.9,2.2h0a5.3,5.3,0,0,1-4.19-1.57,4.19,4.19,0,0,0-3.1-1.11l-.49,0a4.25,4.25,0,0,0-2.89,1.56,5.37,5.37,0,0,1-3.9,2.2h-.06a5.31,5.31,0,0,1-4.19-1.57,4.19,4.19,0,0,0-3.1-1.11l-.48,0a4.27,4.27,0,0,0-2.9,1.56,5.33,5.33,0,0,1-3.9,2.2s0,0,0,0h0a5.3,5.3,0,0,1-4.19-1.57,4.22,4.22,0,0,0-3.1-1.11l-.49,0a4.19,4.19,0,0,0-2.89,1.56,5.37,5.37,0,0,1-3.91,2.2h0a5.34,5.34,0,0,1-4.19-1.57,4.19,4.19,0,0,0-3.1-1.11l-.49,0a4.19,4.19,0,0,0-2.89,1.56,5.35,5.35,0,0,1-3.9,2.2h-.06a5.38,5.38,0,0,1-4.19-1.57,4.19,4.19,0,0,0-3.1-1.11l-.48,0a4.19,4.19,0,0,0-2.9,1.56,5.29,5.29,0,0,1-3.9,2.19s0,0,0,0h0a5.34,5.34,0,0,1-4.19-1.58,4.23,4.23,0,0,0-3.1-1.1l-.49,0a4.17,4.17,0,0,0-2.89,1.56,5.33,5.33,0,0,1-3.9,2.19h-.06a5.36,5.36,0,0,1-4.19-1.58,4.23,4.23,0,0,0-3.1-1.1l-.48,0a4.24,4.24,0,0,0-2.9,1.57,5.29,5.29,0,0,1-3.9,2.19h0a5.34,5.34,0,0,1-4.19-1.58,4.25,4.25,0,0,0-3.1-1.1l-.49,0a4.2,4.2,0,0,0-2.89,1.57,5.33,5.33,0,0,1-3.91,2.19h0a5.36,5.36,0,0,1-4.19-1.58,4.23,4.23,0,0,0-3.1-1.1l-.49,0a4.24,4.24,0,0,0-2.89,1.57,5.31,5.31,0,0,1-3.9,2.19h-.06a5.36,5.36,0,0,1-4.19-1.58,4.23,4.23,0,0,0-3.1-1.1l-.48,0a4.24,4.24,0,0,0-2.9,1.57,5.29,5.29,0,0,1-3.9,2.19h0a5.34,5.34,0,0,1-4.19-1.58,4.29,4.29,0,0,0-3.1-1.11l-.49,0a4.22,4.22,0,0,0-2.89,1.57,5.33,5.33,0,0,1-3.9,2.19h-.06a5.36,5.36,0,0,1-4.19-1.58,4.28,4.28,0,0,0-3.1-1.11l-.48,0a4.24,4.24,0,0,0-2.9,1.57,5.29,5.29,0,0,1-3.9,2.19h0a5.3,5.3,0,0,1-4.19-1.57,4.31,4.31,0,0,0-3.1-1.11l-.49,0A4.2,4.2,0,0,0,1550,2449a5.33,5.33,0,0,1-3.91,2.19h0a5.31,5.31,0,0,1-4.19-1.57,4.23,4.23,0,0,0-3.1-1.11l-.49,0a4.24,4.24,0,0,0-2.89,1.57,5.34,5.34,0,0,1-3.9,2.19h-.06a5.31,5.31,0,0,1-4.19-1.57,4.19,4.19,0,0,0-3.1-1.11l-.48,0a4.24,4.24,0,0,0-2.9,1.57,5.36,5.36,0,0,1-3.9,2.19h0a5.3,5.3,0,0,1-4.19-1.57,4.21,4.21,0,0,0-3.1-1.11l-.49,0a4.2,4.2,0,0,0-2.89,1.57,5.39,5.39,0,0,1-3.9,2.19h-.06a5.31,5.31,0,0,1-4.19-1.57,4.19,4.19,0,0,0-3.1-1.11l-.48,0a4.24,4.24,0,0,0-2.9,1.57,5.38,5.38,0,0,1-3.9,2.19h0a5.3,5.3,0,0,1-4.19-1.57,4.22,4.22,0,0,0-3.1-1.11l-.49,0a4.24,4.24,0,0,0-2.9,1.57,5.36,5.36,0,0,1-3.9,2.19h0a5.31,5.31,0,0,1-4.19-1.57,4.19,4.19,0,0,0-3.1-1.11l-.49,0a4.23,4.23,0,0,0-3,1.7,5.36,5.36,0,0,1-9.59-3A5.41,5.41,0,0,1,1457.56,2447.25Z" fill="#000000" class="color000000 svgShape"></path><path d="M1862.26,2326.59a46.25,46.25,0,0,1,43.23-25.05c24.27,1.07,44,19.35,44.14,43.63h0a5.08,5.08,0,0,1-5.06,4.53h-40.14a5.53,5.53,0,0,0-3.91,9.45l16.75,16.76a17,17,0,0,0,12.42,5.06,24.49,24.49,0,0,1,5.66.51,23.93,23.93,0,1,1-28.29,28.91,24.33,24.33,0,0,1-.47-8.27c.86-7.42-2.53-14.7-8.23-19.52L1869,2357.74C1859.93,2350.09,1856.84,2337.13,1862.26,2326.59Z" fill="#000000" class="color000000 svgShape"></path><circle cx="1939.86" cy="2406.45" r="12.97" fill="#404042" transform="rotate(-45 1939.861 2406.443)" class="color414042 svgShape"></circle><path d="M1445.63,2258.74a5.3,5.3,0,0,1,3.81,1.73,4.66,4.66,0,0,0,6.83,0l0,0a5.88,5.88,0,0,1,.64-.58l.19-.15a5.07,5.07,0,0,1,.64-.37c.1,0,.19-.11.29-.15a5.49,5.49,0,0,1,.68-.24l.34-.1c.22,0,.45-.06.67-.08s.23,0,.35,0h.19c.12,0,.23,0,.34,0a5.06,5.06,0,0,1,.68.09c.11,0,.22.06.33.09a5.63,5.63,0,0,1,.69.24c.1,0,.18.09.28.14a6.21,6.21,0,0,1,.65.39l.18.14a6.09,6.09,0,0,1,.66.58v0a4.66,4.66,0,0,0,6.83,0l0,0a5.07,5.07,0,0,1,.64-.58l.19-.15a5.07,5.07,0,0,1,.64-.37c.1,0,.19-.11.29-.15a5.49,5.49,0,0,1,.68-.24l.34-.1c.22,0,.44-.06.67-.08s.23,0,.34,0h.2c.12,0,.23,0,.34,0a5.06,5.06,0,0,1,.68.09,3,3,0,0,1,.32.09,5.24,5.24,0,0,1,.7.24l.27.14a5.45,5.45,0,0,1,.66.39l.18.14a6,6,0,0,1,.65.58l0,0a4.66,4.66,0,0,0,6.83,0l0,0a5.07,5.07,0,0,1,.64-.58l.19-.15a5.07,5.07,0,0,1,.64-.37c.1,0,.19-.11.29-.15a5,5,0,0,1,.68-.24l.34-.1c.22,0,.44-.06.67-.08s.23,0,.34,0h.2c.12,0,.22,0,.34,0a5.06,5.06,0,0,1,.68.09,3,3,0,0,1,.32.09,5.78,5.78,0,0,1,.7.24l.27.14a5.45,5.45,0,0,1,.66.39l.18.14a6,6,0,0,1,.65.58l0,0a4.66,4.66,0,0,0,6.83,0l0,0a6,6,0,0,1,.65-.58l.19-.15a5.07,5.07,0,0,1,.64-.37c.1,0,.19-.11.29-.15a5,5,0,0,1,.68-.24l.34-.1c.22,0,.44-.06.67-.08s.22,0,.34,0h.2c.12,0,.22,0,.34,0a5.06,5.06,0,0,1,.68.09c.11,0,.21.06.32.09a5.78,5.78,0,0,1,.7.24l.27.14a5.45,5.45,0,0,1,.66.39l.18.14a6,6,0,0,1,.65.58l0,0a4.66,4.66,0,0,0,6.83,0s0,0,0,0a6,6,0,0,1,.65-.58l.18-.15a6,6,0,0,1,.65-.37,2.64,2.64,0,0,1,.29-.15,4.83,4.83,0,0,1,.67-.24l.34-.1c.22,0,.45-.06.68-.08s.22,0,.34,0h.2c.11,0,.22,0,.34,0a5.06,5.06,0,0,1,.68.09c.11,0,.21.06.32.09a5.78,5.78,0,0,1,.7.24l.27.14a5.45,5.45,0,0,1,.66.39l.18.14a6,6,0,0,1,.65.58l0,0a4.66,4.66,0,0,0,6.83,0v0a7.21,7.21,0,0,1,.66-.58l.18-.14a6.21,6.21,0,0,1,.65-.39c.1,0,.19-.1.28-.14a5.49,5.49,0,0,1,.68-.24l.34-.1c.22,0,.45-.06.68-.08s.22,0,.34,0h.2c.11,0,.22,0,.33,0a5.21,5.21,0,0,1,.69.09c.11,0,.21.06.32.09a5.1,5.1,0,0,1,.69.24,2.44,2.44,0,0,1,.28.14,5.45,5.45,0,0,1,.66.39l.17.14a5.27,5.27,0,0,1,.66.58l0,0a4.66,4.66,0,0,0,6.83,0v0a7.21,7.21,0,0,1,.66-.58l.18-.14a6.21,6.21,0,0,1,.65-.39c.09,0,.18-.1.28-.14a5.49,5.49,0,0,1,.68-.24l.34-.1c.22,0,.45-.06.67-.08s.23,0,.35,0h.2c.11,0,.22,0,.33,0a5.21,5.21,0,0,1,.69.09c.11,0,.21.06.32.09a5.1,5.1,0,0,1,.69.24,2.44,2.44,0,0,1,.28.14,4.66,4.66,0,0,1,.65.39,1.24,1.24,0,0,1,.18.14,5.27,5.27,0,0,1,.66.58v0a4.67,4.67,0,0,0,6.84,0l0,0a5.88,5.88,0,0,1,.64-.58l.19-.15a5.07,5.07,0,0,1,.64-.37c.1,0,.19-.11.29-.15a5.49,5.49,0,0,1,.68-.24l.34-.1c.22,0,.45-.06.67-.08s.23,0,.35,0h.2c.11,0,.22,0,.33,0a5.43,5.43,0,0,1,.69.09c.11,0,.21.06.32.09a5.1,5.1,0,0,1,.69.24c.1,0,.18.09.28.14a6.21,6.21,0,0,1,.65.39l.18.14a5.27,5.27,0,0,1,.66.58v0a4.67,4.67,0,0,0,6.84,0s0,0,0,0a6,6,0,0,1,.65-.58l.19-.15a5.07,5.07,0,0,1,.64-.37c.1,0,.19-.11.29-.15a5.49,5.49,0,0,1,.68-.24l.34-.1c.22,0,.45-.06.67-.08s.23,0,.35,0h.19c.12,0,.23,0,.34,0a5.06,5.06,0,0,1,.68.09c.11,0,.22.06.33.09a5.63,5.63,0,0,1,.69.24c.1,0,.18.09.28.14a6.21,6.21,0,0,1,.65.39l.18.14a6.09,6.09,0,0,1,.66.58v0a4.66,4.66,0,0,0,6.83,0s0,0,0,0a6,6,0,0,1,.65-.58l.19-.15a5.07,5.07,0,0,1,.64-.37c.1,0,.19-.11.29-.15a5,5,0,0,1,.68-.24l.34-.1c.22,0,.44-.06.67-.08s.23,0,.34,0h.2c.12,0,.23,0,.34,0a5.06,5.06,0,0,1,.68.09,3,3,0,0,1,.32.09,5.24,5.24,0,0,1,.7.24l.27.14a5.45,5.45,0,0,1,.66.39l.18.14a6,6,0,0,1,.65.58l0,0a4.66,4.66,0,0,0,6.83,0s0,0,0,0a6,6,0,0,1,.65-.58l.19-.15a5.07,5.07,0,0,1,.64-.37c.1,0,.19-.11.29-.15a5.35,5.35,0,0,1,.67-.24l.35-.1c.22,0,.44-.06.67-.08s.23,0,.34,0h.2c.12,0,.22,0,.34,0a5.06,5.06,0,0,1,.68.09,3,3,0,0,1,.32.09,5.78,5.78,0,0,1,.7.24l.27.14a5.45,5.45,0,0,1,.66.39l.18.14a6,6,0,0,1,.65.58l0,0a4.66,4.66,0,0,0,6.83,0l0,0a6,6,0,0,1,.65-.58l.19-.15a5.07,5.07,0,0,1,.64-.37c.1,0,.19-.11.29-.15a5.35,5.35,0,0,1,.67-.24l.35-.1c.22,0,.44-.06.67-.08s.22,0,.34,0h.2c.12,0,.22,0,.34,0a5.06,5.06,0,0,1,.68.09c.11,0,.21.06.32.09a5.78,5.78,0,0,1,.7.24l.27.14a5.45,5.45,0,0,1,.66.39l.18.14a6,6,0,0,1,.65.58l0,0a4.66,4.66,0,0,0,6.83,0l0,0a6,6,0,0,1,.65-.58l.18-.15a5.19,5.19,0,0,1,.65-.37,2.64,2.64,0,0,1,.29-.15,5.35,5.35,0,0,1,.67-.24l.35-.1c.22,0,.44-.06.67-.08s.22,0,.34,0h.2c.11,0,.22,0,.34,0a5.06,5.06,0,0,1,.68.09c.11,0,.21.06.32.09a5.78,5.78,0,0,1,.7.24l.27.14a5.45,5.45,0,0,1,.66.39l.18.14a6,6,0,0,1,.65.58l0,0a4.66,4.66,0,0,0,6.83,0l0,0a6,6,0,0,1,.65-.58l.18-.15a5.19,5.19,0,0,1,.65-.37,2.64,2.64,0,0,1,.29-.15,4.83,4.83,0,0,1,.67-.24l.34-.1c.22,0,.45-.06.68-.08s.22,0,.34,0h.2c.11,0,.22,0,.33,0a5.21,5.21,0,0,1,.69.09c.11,0,.21.06.32.09a5.1,5.1,0,0,1,.69.24,2.44,2.44,0,0,1,.28.14,5.45,5.45,0,0,1,.66.39l.17.14a5.27,5.27,0,0,1,.66.58l0,0a4.66,4.66,0,0,0,6.83,0l0,0a5.17,5.17,0,0,1,.65-.58l.18-.15a5.89,5.89,0,0,1,.64-.37c.1,0,.19-.11.29-.15a5.49,5.49,0,0,1,.68-.24l.34-.1c.22,0,.45-.06.67-.08s.23,0,.35,0h.2c.11,0,.22,0,.33,0a5.43,5.43,0,0,1,.69.09c.11,0,.21.06.32.09a5.1,5.1,0,0,1,.69.24,2.44,2.44,0,0,1,.28.14,4.66,4.66,0,0,1,.65.39,1.24,1.24,0,0,1,.18.14,5.27,5.27,0,0,1,.66.58v0a4.67,4.67,0,0,0,6.84,0l0,0a5.88,5.88,0,0,1,.64-.58l.19-.15a5.07,5.07,0,0,1,.64-.37c.1,0,.19-.11.29-.15a5.49,5.49,0,0,1,.68-.24l.34-.1c.22,0,.45-.06.67-.08s.23,0,.35,0h.2c.11,0,.22,0,.33,0a5.06,5.06,0,0,1,.68.09,3.18,3.18,0,0,1,.33.09,5.1,5.1,0,0,1,.69.24c.1,0,.18.09.28.14a6.21,6.21,0,0,1,.65.39l.18.14a6.09,6.09,0,0,1,.66.58v0a4.67,4.67,0,0,0,6.84,0s0,0,0,0a6,6,0,0,1,.65-.58l.19-.15a5.07,5.07,0,0,1,.64-.37c.1,0,.19-.11.29-.15a5.49,5.49,0,0,1,.68-.24l.34-.1c.22,0,.45-.06.67-.08s.23,0,.35,0h.19c.12,0,.23,0,.34,0a5.06,5.06,0,0,1,.68.09c.11,0,.22.06.33.09a5.63,5.63,0,0,1,.69.24c.1,0,.18.09.28.14a6.21,6.21,0,0,1,.65.39l.18.14a6.09,6.09,0,0,1,.66.58v0a4.66,4.66,0,0,0,6.83,0s0,0,0,0a6,6,0,0,1,.65-.58l.19-.15a5.07,5.07,0,0,1,.64-.37c.1,0,.19-.11.29-.15a5,5,0,0,1,.68-.24l.34-.1c.22,0,.44-.06.67-.08s.23,0,.34,0h.2c.12,0,.23,0,.34,0a5.06,5.06,0,0,1,.68.09,3,3,0,0,1,.32.09,5.24,5.24,0,0,1,.7.24l.27.14a5.45,5.45,0,0,1,.66.39l.18.14a6,6,0,0,1,.65.58l0,0a4.66,4.66,0,0,0,6.83,0s0,0,0,0a6,6,0,0,1,.65-.58l.19-.15a5.07,5.07,0,0,1,.64-.37c.1,0,.19-.11.29-.15a5.35,5.35,0,0,1,.67-.24l.35-.1c.22,0,.44-.06.67-.08s.23,0,.34,0h.2c.12,0,.22,0,.34,0a5.06,5.06,0,0,1,.68.09c.11,0,.21.06.32.09a5.78,5.78,0,0,1,.7.24l.27.14a4.4,4.4,0,0,1,.66.39l.17.13a5.42,5.42,0,0,1,.67.6h0a4.66,4.66,0,0,0,6.83,0l0,0a6,6,0,0,1,.65-.58l.19-.15a5.07,5.07,0,0,1,.64-.37c.1,0,.19-.11.29-.15a5.35,5.35,0,0,1,.67-.24l.35-.1c.22,0,.44-.06.67-.08s.22,0,.34,0h.2c.12,0,.22,0,.34,0a5.06,5.06,0,0,1,.68.09c.11,0,.21.06.32.09a5.78,5.78,0,0,1,.7.24l.27.14a4.4,4.4,0,0,1,.66.39l.17.13a4.7,4.7,0,0,1,.66.6h0a4.66,4.66,0,0,0,6.83,0l0,0a6,6,0,0,1,.65-.58l.18-.15a5.19,5.19,0,0,1,.65-.37,2.64,2.64,0,0,1,.29-.15,5.35,5.35,0,0,1,.67-.24l.35-.1c.22,0,.44-.06.67-.08s.22,0,.34,0h.2c.11,0,.22,0,.34,0a5.06,5.06,0,0,1,.68.09c.11,0,.21.06.32.09a5.78,5.78,0,0,1,.7.24l.27.14a4.4,4.4,0,0,1,.66.39l.17.13a4.7,4.7,0,0,1,.66.6h0a4.66,4.66,0,0,0,6.83,0l0,0a6,6,0,0,1,.65-.58l.18-.14a6.21,6.21,0,0,1,.65-.39c.1,0,.19-.1.28-.14a5.49,5.49,0,0,1,.68-.24l.34-.1c.22,0,.45-.06.68-.08s.22,0,.34,0h.2c.11,0,.22,0,.34,0a5.28,5.28,0,0,1,.68.09c.11,0,.21.06.32.09a5.78,5.78,0,0,1,.7.24l.27.14a5.45,5.45,0,0,1,.66.39l.17.13a4.7,4.7,0,0,1,.66.6h0a4.66,4.66,0,0,0,6.83,0l0,0a5.17,5.17,0,0,1,.65-.58l.18-.14a5.32,5.32,0,0,1,.65-.39c.09,0,.18-.1.28-.14a5.49,5.49,0,0,1,.68-.24l.34-.1c.22,0,.45-.06.67-.08s.23,0,.35,0h.2c.11,0,.22,0,.33,0a5.43,5.43,0,0,1,.69.09c.11,0,.21.06.32.09a5.1,5.1,0,0,1,.69.24,2.44,2.44,0,0,1,.28.14,5.45,5.45,0,0,1,.66.39l.17.13a4.7,4.7,0,0,1,.66.6h0a4.67,4.67,0,0,0,6.84,0l0,0a5.17,5.17,0,0,1,.65-.58l.18-.14a5.32,5.32,0,0,1,.65-.39c.09,0,.18-.1.28-.14a5.49,5.49,0,0,1,.68-.24l.34-.1c.22,0,.45-.06.67-.08s.23,0,.35,0h.19c.12,0,.23,0,.34,0a5.06,5.06,0,0,1,.68.09,3.18,3.18,0,0,1,.33.09,5.1,5.1,0,0,1,.69.24,2.29,2.29,0,0,1,.27.14,5.57,5.57,0,0,1,.67.39l.17.13a5.34,5.34,0,0,1,.66.6h0a4.67,4.67,0,0,0,6.84,0s0,0,0,0a5.27,5.27,0,0,1,.66-.58,1.24,1.24,0,0,1,.18-.14,4.66,4.66,0,0,1,.65-.39c.09,0,.18-.1.28-.14a5.49,5.49,0,0,1,.68-.24l.34-.1c.22,0,.45-.06.67-.08s.23,0,.35,0h.19c.12,0,.23,0,.34,0a5.06,5.06,0,0,1,.68.09c.11,0,.22.06.33.09a5.63,5.63,0,0,1,.69.24,2.29,2.29,0,0,1,.27.14,5.45,5.45,0,0,1,.66.39l.18.13a6.17,6.17,0,0,1,.66.6h0a4.66,4.66,0,0,0,6.83,0s0,0,0,0a6,6,0,0,1,.65-.58,1.33,1.33,0,0,1,.19-.14,5.2,5.2,0,0,1,.64-.39l.29-.14a5.49,5.49,0,0,1,.68-.24l.34-.1c.22,0,.44-.06.67-.08s.23,0,.34,0h.2c.12,0,.23,0,.34,0a5.06,5.06,0,0,1,.68.09c.11,0,.22.06.33.09a5.63,5.63,0,0,1,.69.24l.27.14a5.45,5.45,0,0,1,.66.39l.18.13a6.17,6.17,0,0,1,.66.6h0a4.66,4.66,0,0,0,6.83,0l0,0a6,6,0,0,1,.65-.58,1.33,1.33,0,0,1,.19-.14,5.2,5.2,0,0,1,.64-.39l.29-.14a5.49,5.49,0,0,1,.68-.24l.34-.1c.22,0,.44-.06.67-.08s.23,0,.34,0h.2c.12,0,.23,0,.34,0a5.06,5.06,0,0,1,.68.09,3,3,0,0,1,.32.09,5.78,5.78,0,0,1,.7.24l.27.14a5.45,5.45,0,0,1,.66.39l.17.13a5.42,5.42,0,0,1,.67.6h0a4.66,4.66,0,0,0,6.83,0l0,0a6,6,0,0,1,.65-.58l.18-.14a6.21,6.21,0,0,1,.65-.39l.29-.14a5,5,0,0,1,.68-.24l.34-.1c.22,0,.44-.06.67-.08s.22,0,.34,0h.2c.12,0,.22,0,.34,0a5.06,5.06,0,0,1,.68.09c.11,0,.21.06.32.09a5.78,5.78,0,0,1,.7.24l.27.14a5.45,5.45,0,0,1,.66.39l.18.14a6,6,0,0,1,.65.58s0,0,0,0a4.66,4.66,0,0,0,6.83,0l0,0a6,6,0,0,1,.65-.58l.18-.14a6.21,6.21,0,0,1,.65-.39l.29-.14a5,5,0,0,1,.68-.24l.34-.1c.22,0,.44-.06.67-.08s.22,0,.34,0h.2c.11,0,.22,0,.34,0a5.06,5.06,0,0,1,.68.09c.11,0,.21.06.32.09a5.78,5.78,0,0,1,.7.24l.27.14a5.45,5.45,0,0,1,.66.39l.18.14a6,6,0,0,1,.65.58s0,0,0,0a4.66,4.66,0,0,0,6.83,0l0,0a6,6,0,0,1,.65-.58l.18-.14a6.21,6.21,0,0,1,.65-.39l.28-.14a5.49,5.49,0,0,1,.68-.24l.34-.1c.22,0,.45-.06.68-.08s.22,0,.34,0h.2c.11,0,.22,0,.34,0a5.28,5.28,0,0,1,.68.09c.11,0,.21.06.32.09a5.78,5.78,0,0,1,.7.24l.27.14a5.45,5.45,0,0,1,.66.39l.18.14a6,6,0,0,1,.65.58s0,0,0,0a4.66,4.66,0,0,0,6.83,0l0,0a6,6,0,0,1,.65-.58l.18-.14a6.21,6.21,0,0,1,.65-.39l.28-.14a5.49,5.49,0,0,1,.68-.24l.34-.1c.22,0,.45-.06.67-.08s.23,0,.35,0h.2c.11,0,.22,0,.33,0a5.43,5.43,0,0,1,.69.09c.11,0,.21.06.32.09a5.1,5.1,0,0,1,.69.24c.1,0,.19.1.28.14a4.66,4.66,0,0,1,.65.39,1.33,1.33,0,0,1,.19.14,5.07,5.07,0,0,1,.64.58l0,0a4.66,4.66,0,0,0,6.83,0l0,0a5.17,5.17,0,0,1,.65-.58l.18-.14a6.21,6.21,0,0,1,.65-.39c.1-.05.18-.1.28-.14a5.49,5.49,0,0,1,.68-.24l.34-.1c.22,0,.45-.06.67-.08s.23,0,.35,0h.19c.12,0,.23,0,.34,0a5.06,5.06,0,0,1,.68.09,3.18,3.18,0,0,1,.33.09,5.1,5.1,0,0,1,.69.24c.1,0,.19.1.28.14a4.66,4.66,0,0,1,.65.39,1.33,1.33,0,0,1,.19.14,5.88,5.88,0,0,1,.64.58l0,0a4.67,4.67,0,0,0,6.84,0s0,0,0,0a6.09,6.09,0,0,1,.66-.58,1.24,1.24,0,0,1,.18-.14,4.66,4.66,0,0,1,.65-.39,2.44,2.44,0,0,1,.28-.14,5.49,5.49,0,0,1,.68-.24l.34-.1c.22,0,.45-.06.67-.08s.23,0,.35,0h.19c.12,0,.23,0,.34,0a5.06,5.06,0,0,1,.68.09,3.18,3.18,0,0,1,.33.09,5.1,5.1,0,0,1,.69.24c.1,0,.19.1.28.14a5.32,5.32,0,0,1,.65.39l.19.14a5.88,5.88,0,0,1,.64.58l0,0a4.66,4.66,0,0,0,3.42,1.49c.13,0,.25,0,.38,0v4.33l-.14,0h-.49a4.21,4.21,0,0,0-3,1.35,5.36,5.36,0,0,1-4.06,1.88h0a5.33,5.33,0,0,1-4-1.88,4.26,4.26,0,0,0-3-1.35H1922a4.28,4.28,0,0,0-3,1.34,5.32,5.32,0,0,1-4.06,1.89h0a5.33,5.33,0,0,1-4.05-1.88,4.26,4.26,0,0,0-3-1.35h-.48a4.28,4.28,0,0,0-3,1.34,5.32,5.32,0,0,1-4.06,1.89h0a5.33,5.33,0,0,1-4-1.88,4.24,4.24,0,0,0-3-1.35h-.49a4.28,4.28,0,0,0-3,1.34,5.3,5.3,0,0,1-4.05,1.89h-.06a5.33,5.33,0,0,1-4-1.88,4.24,4.24,0,0,0-3-1.35H1878a4.28,4.28,0,0,0-3,1.34,5.3,5.3,0,0,1-4,1.89h-.06a5.33,5.33,0,0,1-4.05-1.88,4.24,4.24,0,0,0-3-1.35h-.49a4.24,4.24,0,0,0-3,1.34,5.34,5.34,0,0,1-4.06,1.89h-.06a5.34,5.34,0,0,1-4-1.88,4.24,4.24,0,0,0-3-1.35h-.49a4.24,4.24,0,0,0-3,1.34,5.34,5.34,0,0,1-4.06,1.89h-.06a5.36,5.36,0,0,1-4-1.88,4.22,4.22,0,0,0-3-1.35H1834a4.24,4.24,0,0,0-3,1.34,5.34,5.34,0,0,1-4.06,1.89h-.06a5.36,5.36,0,0,1-4.05-1.88,4.22,4.22,0,0,0-3-1.35h-.49a4.24,4.24,0,0,0-3,1.34,5.34,5.34,0,0,1-4.06,1.89h0a5.36,5.36,0,0,1-4.06-1.88,4.22,4.22,0,0,0-3-1.35h-.48a4.27,4.27,0,0,0-3,1.34,5.32,5.32,0,0,1-4.06,1.89h0a5.36,5.36,0,0,1-4.06-1.88,4.22,4.22,0,0,0-3-1.35H1790a4.27,4.27,0,0,0-3,1.34,5.32,5.32,0,0,1-4.06,1.89h0a5.33,5.33,0,0,1-4.05-1.88,4.25,4.25,0,0,0-3-1.35h-.49a4.28,4.28,0,0,0-3,1.34,5.3,5.3,0,0,1-4,1.89h-.06a5.34,5.34,0,0,1-4.06-1.89,4.24,4.24,0,0,0-3-1.34h-.49a4.28,4.28,0,0,0-3,1.34,5.3,5.3,0,0,1-4.05,1.89h-.06a5.34,5.34,0,0,1-4.06-1.89,4.24,4.24,0,0,0-3-1.34H1746a4.24,4.24,0,0,0-3,1.34,5.34,5.34,0,0,1-4.06,1.89h-.06a5.3,5.3,0,0,1-4-1.89,4.28,4.28,0,0,0-3-1.34h-.49a4.24,4.24,0,0,0-3,1.34,5.34,5.34,0,0,1-4.06,1.89h-.06a5.3,5.3,0,0,1-4-1.89,4.27,4.27,0,0,0-3-1.34h-.49a4.24,4.24,0,0,0-3,1.34,5.34,5.34,0,0,1-4.06,1.89h-.06a5.32,5.32,0,0,1-4-1.89,4.27,4.27,0,0,0-3-1.34H1702a4.24,4.24,0,0,0-3,1.34,5.34,5.34,0,0,1-4.06,1.89h-.05a5.32,5.32,0,0,1-4.06-1.89,4.27,4.27,0,0,0-3-1.34h-.48a4.25,4.25,0,0,0-3,1.34,5.32,5.32,0,0,1-4.06,1.89h0a5.34,5.34,0,0,1-4.06-1.89,4.25,4.25,0,0,0-3-1.34h-.48a4.27,4.27,0,0,0-3,1.34,5.32,5.32,0,0,1-4.06,1.89h0a5.34,5.34,0,0,1-4.06-1.89,4.24,4.24,0,0,0-3-1.34H1658a4.28,4.28,0,0,0-3,1.34,5.3,5.3,0,0,1-4,1.89h-.06a5.34,5.34,0,0,1-4.06-1.89,4.24,4.24,0,0,0-3-1.34h-.49a4.28,4.28,0,0,0-3,1.34,5.3,5.3,0,0,1-4,1.89h-.06a5.34,5.34,0,0,1-4.06-1.89,4.24,4.24,0,0,0-3-1.34h-.49a4.24,4.24,0,0,0-3,1.34,5.34,5.34,0,0,1-4.06,1.89h-.06a5.3,5.3,0,0,1-4-1.89,4.28,4.28,0,0,0-3-1.34H1614a4.24,4.24,0,0,0-3,1.34,5.34,5.34,0,0,1-4.06,1.89h-.06a5.3,5.3,0,0,1-4-1.89,4.27,4.27,0,0,0-3-1.34h-.49a4.24,4.24,0,0,0-3,1.34,5.34,5.34,0,0,1-4.06,1.89h-.06a5.32,5.32,0,0,1-4-1.89,4.27,4.27,0,0,0-3-1.34h-.49a4.24,4.24,0,0,0-3,1.34,5.32,5.32,0,0,1-4.06,1.89h0a5.32,5.32,0,0,1-4.06-1.89,4.27,4.27,0,0,0-3-1.34H1570a4.25,4.25,0,0,0-3,1.34,5.32,5.32,0,0,1-4.06,1.89h-.05a5.34,5.34,0,0,1-4.06-1.89,4.27,4.27,0,0,0-3-1.34h-.48a4.27,4.27,0,0,0-3,1.34,5.32,5.32,0,0,1-4.06,1.89h0a5.34,5.34,0,0,1-4.06-1.89,4.24,4.24,0,0,0-3-1.34h-.49a4.28,4.28,0,0,0-3,1.34,5.3,5.3,0,0,1-4,1.89h-.06a5.34,5.34,0,0,1-4.06-1.89,4.24,4.24,0,0,0-3-1.34H1526a4.28,4.28,0,0,0-3,1.34,5.3,5.3,0,0,1-4,1.89h-.06a5.34,5.34,0,0,1-4.06-1.89,4.24,4.24,0,0,0-3-1.34h-.49a4.24,4.24,0,0,0-3,1.35,5.33,5.33,0,0,1-4,1.88h-.06a5.3,5.3,0,0,1-4.05-1.89,4.28,4.28,0,0,0-3-1.34h-.49a4.25,4.25,0,0,0-3,1.35,5.33,5.33,0,0,1-4,1.88h-.06a5.3,5.3,0,0,1-4-1.89,4.27,4.27,0,0,0-3-1.34H1482a4.21,4.21,0,0,0-3,1.35,5.36,5.36,0,0,1-4.06,1.88h-.05a5.32,5.32,0,0,1-4.06-1.89,4.27,4.27,0,0,0-3-1.34h-.49a4.21,4.21,0,0,0-3,1.35,5.36,5.36,0,0,1-4.06,1.88h0a5.32,5.32,0,0,1-4.06-1.89,4.27,4.27,0,0,0-3-1.34h-.48a4.26,4.26,0,0,0-3.15,1.47,5.36,5.36,0,0,1-9.33-3.76A5.42,5.42,0,0,1,1445.63,2258.74Z" fill="#000000" class="color000000 svgShape"></path><path d="M1479.41 2253.07c-56.53-7.11-109.15 49.14-108.71 116.2.33 48.86 30.51 88.15 71.7 93.33 56.54 7.11 109.16-49.14 108.72-116.21C1550.79 2297.53 1520.61 2258.25 1479.41 2253.07zm39.86 73.24l-29.33 10.84c-9.69 3.59-18.64-4.63-17.67-16.22l2.93-35.11c.79-9.38 9.15-16.14 16.5-13.22 14.92 5.91 27.21 17.43 35.32 32.5C1531.09 2312.65 1527.09 2323.42 1519.27 2326.31zm-60.62-40.49l-2.93 35.09c-1 11.59-11.29 19.81-20.38 16.23l-27.51-10.84c-7.34-2.89-9.54-13.66-4.21-21.22 10.63-15.06 24.85-26.57 40.74-32.48C1452.2 2269.68 1459.44 2276.44 1458.65 2285.82zm-74.11 72v-.2c.8-9.3 9.24-15.76 16.53-12.89l27.59 10.87c9.09 3.58 11.66 16.87 5.07 26.25l-20 28.45c-5.35 7.6-15 7.64-19.11 0C1386.77 2395.58 1382.9 2377.43 1384.54 2357.83zm41.61 64l20-28.5c6.59-9.38 18.5-9.38 23.52 0l15.26 28.51c4 7.54.3 18.36-7.49 21.26a68.56 68.56 0 01-24 4.42 62.94 62.94 0 01-23.34-4.43C1422.78 2440.14 1420.85 2429.32 1426.15 2421.79zm73.12-11.44L1484 2381.89c-5-9.38-.23-22.67 9.46-26.25l29.44-10.88c7.76-2.88 15.13 3.59 14.37 12.88l0 .19a107.27 107.27 0 01-18.92 52.56C1513 2418 1503.34 2418 1499.27 2410.35zM1626 1972.65s180.18-187.31 410-105.54c-17.4 18.79-204.26-47.19-363.08 156.75C1664.67 2034.51 1626 1972.65 1626 1972.65zM1907.35 2245.16c-29 .43-53.33 27.29-54.32 58.86-1 30.38 20.17 54 47.23 53.81s51.51-24.32 54.4-54.91C1957.68 2271.12 1936.5 2244.74 1907.35 2245.16z" fill="#000000" class="color000000 svgShape"></path><path fill="url(#b)" d="M1952.72,2304.33c-1.47,20.31-17.21,36.73-35.16,36.9s-31.61-15.92-30.56-36.18c1.06-20.53,16.79-37.54,35.14-37.77S1954.21,2283.75,1952.72,2304.33Z"></path><path fill="url(#a)" d="M1949.92,2304.43c-1,14.66-12.37,26.55-25.34,26.68s-22.83-11.52-22-26.16,12.15-27,25.34-27.14S1950.94,2289.63,1949.92,2304.43Z"></path><path fill="#1f2023" d="M1981.15,1963.16c-159.21-53.45-338.29,49.65-400,230.29s17.31,370.4,176.5,423.86,338.28-49.65,400-230.29S2140.34,2016.62,1981.15,1963.16Zm153.49,411.32c-53.72,157.23-209.59,247-348.16,200.44S1579.13,2363.21,1632.85,2206s209.59-247,348.16-200.44S2188.36,2217.25,2134.64,2374.48Z" class="color231f20 svgShape"></path><path fill="#404042" d="M1632.85,2206c53.72-157.23,209.59-247,348.16-200.44a234.72,234.72,0,0,1,71.18,38.63,278.81,278.81,0,0,0-21.09-58.26,268.63,268.63,0,0,0-49.95-22.75c-159.21-53.46-338.29,49.64-400,230.28-24.4,71.4-26.72,144.2-10.88,209.48a416,416,0,0,0,61.36,13.36C1609.41,2352.79,1608.06,2278.55,1632.85,2206Z" class="color414042 svgShape"></path><path fill="#808285" d="M1590.72,2168.49a241,241,0,0,0,48.93,19.45c42.86-105.82,133-177.52,230.13-191.92-20.41-12.82-45.48-22.93-73.61-29.37C1708.67,1998.12,1631.86,2070.21,1590.72,2168.49Z" class="color808285 svgShape"></path><path d="M1966.81,1990.38c-145.29-49.81-308.71,46.25-365,214.54s15.8,345.08,161.08,394.89,308.71-46.26,365-214.55S2112.09,2040.17,1966.81,1990.38Zm140.08,383.2c-49,146.48-191.28,230.08-317.73,186.74S1599.94,2363.08,1649,2216.6s191.27-230.09,317.73-186.74S2155.91,2227.1,2106.89,2373.58Z" fill="#000000" class="color000000 svgShape"></path><path fill="url(#c)" d="M1983.65,1992.28c-146.13-49.49-310.49,46-367.14,213.2s15.89,342.93,162,392.42,310.49-46,367.14-213.2S2129.76,2041.77,1983.65,1992.28Zm140.88,380.81c-49.31,145.56-192.38,228.65-319.56,185.57s-190.31-196-141-341.57,192.37-228.65,319.55-185.57S2173.83,2227.52,2124.53,2373.09Z"></path><path d="M1986.89,1972.68c-155.58-52.7-330.59,48.93-390.9,227s16.91,365.13,172.49,417.83,330.58-48.94,390.9-227S2142.46,2025.37,1986.89,1972.68Zm150,405.45c-52.5,155-204.83,243.46-340.24,197.59S1594,2367,1646.51,2212s204.83-243.45,340.25-197.59S2189.39,2223.15,2136.89,2378.13Z" fill="#000000" class="color000000 svgShape"></path><path fill="#bcbec0" d="M1642,1734.25c2-9-2.26-18.77-10.84-22.22a18.64,18.64,0,0,0-25.25,13.15l-30.68,137.41,36.79,5.93Z" class="colorbcbec0 svgShape"></path><path fill="#1c48ed" d="M1575.21,1862.59l-110.53,495c-2.06,9.22,2.55,19.1,11.41,22.34a18.91,18.91,0,0,0,6.57,1.19,18.62,18.62,0,0,0,18.14-14.55L1612,1868.52Z" class="colored1c24 svgShape"></path><path d="M1500.8,2366.58,1642,1734.25a20.5,20.5,0,0,0-.75-11.32,18.55,18.55,0,0,0-19.6,14.38l-141.2,632.42a20.22,20.22,0,0,0,.76,11.27c.49,0,1,.13,1.47.13A18.62,18.62,0,0,0,1500.8,2366.58Z" style="mix-blend-mode:multiply" fill="#bcbec0" class="colorbcbec0 svgShape"></path><path d="M1563.74 1913.93l-26.66 119.42c13.65-5.31 27.65-4.24 36.33 8l25.79-115.5zM1628 1796.69l13.94-62.44c2-9-2.26-18.77-10.84-22.22a18.64 18.64 0 00-25.25 13.15l-14.55 65.13C1603.58 1801.47 1615.81 1801 1628 1796.69z" style="mix-blend-mode:multiply" fill="#a7a9ac" class="colora7a9ac svgShape"></path><path d="M1618.28,1883l-53.18-9.67a11.88,11.88,0,0,1-9.57-13.81h0a11.87,11.87,0,0,1,13.81-9.56l53.19,9.66a11.89,11.89,0,0,1,9.57,13.82h0A11.89,11.89,0,0,1,1618.28,1883Z" fill="#000000" class="color000000 svgShape"></path><path fill="#44538b" d="M1519.78,1747.9h0c9-19.18,25.19-37.62,42-43.84,0,0,62-33.77,134.11-33.77l42.77,2c17.43.82,32.53,15.65,37.64,37h0c4.57,19-6.37,38.4-22,38.84,0,0-89.86-16.89-163.54,17.07l-19.5,10.18C1562,1780.21,1500.28,1786.06,1519.78,1747.9Z" class="color8b5644 svgShape"></path><path fill="#6975a2" d="M1772.72,1698.9c-6.89-15.58-19.63-25.93-34-26.61l-42.76-2c-72.15,0-134.12,33.77-134.12,33.77-16.83,6.22-33,24.66-42,43.84-7.45,14.58-3,22.73,5.79,27C1597.3,1625.28,1708.5,1749.6,1772.72,1698.9Z" class="colora27869 svgShape"></path><path fill="#333e68" d="M1572.52,1774.7l18.3-9.55c37.7-17.38,79.6-21.43,111.57-21.25C1728.89,1710.65,1571.57,1703.19,1572.52,1774.7Z" class="color684133 svgShape"></path><path fill="#0575e6" d="M1482.64,2381.13a18.62,18.62,0,0,1-14-6.3l-422.91-479.26a18.6,18.6,0,0,1,1.64-26.25,18.16,18.16,0,0,1,4.14-2.77,18.61,18.61,0,0,1,17.2-29.62l518.13,64.85a18.57,18.57,0,0,1,11.17,5.63l365.34,384.2a18.59,18.59,0,0,1-11.19,31.27L1484.94,2381A17.88,17.88,0,0,1,1482.64,2381.13Zm-404.91-505.58,412.36,467.3L1834.92,2300c31.5-3.92,45.13-42,23.25-65l-282.49-297.07Z" class="color27aae1 svgShape"></path><path d="M1077.73,1875.55l26.46,3.31a18.6,18.6,0,0,0,20.42-14.23h0a18.6,18.6,0,0,0-15.81-22.69l-38.92-4.87c-9.76-1.22-19.54,4.74-21.61,14.35a18.57,18.57,0,0,0,3.3,15.12,18.59,18.59,0,0,0-4.84,3.43c-7.25,7.06-6.84,18.93-.15,26.51l35.73,40.48a15.68,15.68,0,0,0,27-6.81h0a29.62,29.62,0,0,0-6.64-26.31Z" style="mix-blend-mode:multiply" fill="#bcbec0" class="colorbcbec0 svgShape"></path><path fill="#1c48ed" d="M1482.64,2381.13a18.62,18.62,0,0,1-14-6.3l-422.91-479.26a18.6,18.6,0,0,1,1.64-26.25,18.16,18.16,0,0,1,4.14-2.77,18.61,18.61,0,0,1,17.2-29.62l518.13,64.85a18.57,18.57,0,0,1,11.17,5.63l365.34,384.2a18.59,18.59,0,0,1-11.19,31.27L1484.94,2381A17.88,17.88,0,0,1,1482.64,2381.13Zm-404.91-505.58,412.36,467.3L1834.92,2300c31.5-3.92,45.13-42,23.25-65l-282.49-297.07Z" class="colored1c24 svgShape"></path><path d="M1077.73,1875.55l26.46,3.31a18.6,18.6,0,0,0,20.42-14.23h0a18.6,18.6,0,0,0-15.81-22.69l-38.92-4.87c-9.76-1.22-19.54,4.74-21.61,14.35a18.57,18.57,0,0,0,3.3,15.12,18.59,18.59,0,0,0-4.84,3.43c-7.25,7.06-6.84,18.93-.15,26.51l35.73,40.48a15.68,15.68,0,0,0,27-6.81h0a29.62,29.62,0,0,0-6.64-26.31Z" style="mix-blend-mode:multiply" fill="#a7a9ac" class="colora7a9ac svgShape"></path><path d="M1045.56,1895.26c.08.1.14.22.22.31l422.91,479.26a18.62,18.62,0,0,0,14,6.3,17.88,17.88,0,0,0,2.3-.15l467.27-58.1a18.45,18.45,0,0,0,11.78-6.51c-.23-.26-.36-.57-.59-.82l-365.34-384.2a18.63,18.63,0,0,0-11.17-5.64l-518.13-64.84a18.6,18.6,0,0,0-17.19,29.62,18.22,18.22,0,0,0-4.15,2.77A19.49,19.49,0,0,0,1045.56,1895.26Zm32.17-19.71,498,62.32,282.49,297.07c39.06,40.33,4.46,68-21,71.13l-299.47,43.38c-36.43,4.53-62.11.88-86.4-26.65l-343.7-389.5a31.21,31.21,0,0,1-6.1-30.84h0Z" style="mix-blend-mode:multiply" fill="#bcbec0" class="colorbcbec0 svgShape"></path><path fill="#2041bf" d="M1939.88,2318.89l-2.14-.85a18.27,18.27,0,0,1-10.18-23.75h0a18.27,18.27,0,0,1,23.75-10.18l2.13.85a18.27,18.27,0,0,1,10.19,23.76h0A18.27,18.27,0,0,1,1939.88,2318.89Z" class="colorbf8920 svgShape"></path><ellipse cx="1949.75" cy="2303.16" fill="#2b58ff" rx="17.09" ry="14.93" transform="rotate(-68.21 1949.827 2303.18)" class="colorffb72b svgShape"></ellipse><g style="mix-blend-mode:multiply" fill="#000000" class="color000000 svgShape"><path d="M1960.86,2304.73c-.95,6.39-6.26,11.16-11.86,10.9s-9.67-5.44-9.15-11.79c.55-6.63,5.87-12,11.89-11.78S1961.85,2298.08,1960.86,2304.73Z" fill="#000000" class="color000000 svgShape"></path></g><path fill="url(#d)" d="M1542.41,2363.64c-2.37,32.81-27.8,59.33-56.79,59.61s-51-25.71-49.36-58.44c1.71-33.14,27.12-60.63,56.76-61S1544.81,2330.41,1542.41,2363.64Z"></path><path fill="url(#e)" d="M1537.88,2363.81c-1.64,23.68-20,42.89-40.93,43.1s-36.87-18.62-35.58-42.26c1.3-23.86,19.62-43.57,40.91-43.82S1539.54,2339.91,1537.88,2363.81Z"></path><path fill="#1536b2" d="M1500.89,2394.27l-3.26-1.3a28,28,0,0,1-15.58-36.34h0a28,28,0,0,1,36.33-15.58l3.26,1.31a28,28,0,0,1,15.59,36.33h0A28,28,0,0,1,1500.89,2394.27Z" class="colorb2151b svgShape"></path><ellipse cx="1516" cy="2370.2" fill="#1c48ed" rx="26.13" ry="22.83" transform="rotate(-68.21 1516.097 2370.246)" class="colored1c24 svgShape"></ellipse><g style="mix-blend-mode:multiply" fill="#000000" class="color000000 svgShape"><path d="M1533,2372.61c-1.45,9.76-9.56,17.07-18.13,16.67s-14.8-8.32-14-18c.84-10.13,9-18.36,18.17-18S1534.5,2362.44,1533,2372.61Z" fill="#000000" class="color000000 svgShape"></path></g><path fill="url(#f)" d="M1470.21,2532.22a9.3,9.3,0,0,1-8.81-12.29l52.81-155.78a9.3,9.3,0,0,1,17.62,6L1479,2525.9A9.3,9.3,0,0,1,1470.21,2532.22Z"></path><path d="M1530.91,2362.42a9.18,9.18,0,0,0-9.57,6.11l-52.81,155.79a9.16,9.16,0,0,0,1,7.79c.23,0,.47.11.69.11a9.3,9.3,0,0,0,8.81-6.32l52.81-155.78A9.17,9.17,0,0,0,1530.91,2362.42Z" fill="#000000" class="color000000 svgShape"></path><polygon fill="#404042" points="1445.13 2515.49 1503.1 2511.42 1588.87 2519.88 1529 2542.09 1445.13 2515.49" class="color414042 svgShape"></polygon><polygon fill="#1748ff" points="1533.1 2545.26 1445.13 2536.49 1445.13 2515.49 1533.1 2524.26 1533.1 2545.26" class="colorffb617 svgShape"></polygon><polygon points="1588.87 2540.88 1533.17 2545.26 1533.17 2524.26 1588.87 2519.88 1588.87 2540.88" fill="#000000" class="color000000 svgShape"></polygon><path fill="#9eccfb" d="M1279.43,544.94l-4.62-44.21,28.94-34.56-94-190.14s-33,2.55-26.07,24,50,84.1,50,84.1-81.59,34-83.19,46,1.67,50.55,15.86,64.62c16.25,16.11,46.94,16.12,46.94,16.12l38.37,58.57Z" class="colorfbb09e svgShape"></path><path d="M1237.13,401.05s17.52,55.3.61,62.38-69.32,13.76-69.32,13.76,39.53,14.91,56.17,11.91,39.93-20.58,39.93-20.58S1278,431.06,1237.13,401.05Z" style="mix-blend-mode:multiply" fill="#d1d2d4" class="colord1d3d4 svgShape"></path><path d="M1258,434.8s-72-22.79-76.3-1.52,3.31,30.61,18.1,35.77,73.23-8.31,73.23-8.31S1276.66,446.18,1258,434.8Z" style="mix-blend-mode:multiply" fill="#d1d2d4" class="colord1d3d4 svgShape"></path><path fill="#9eccfb" d="M1267.23,425.49s-72-22.79-76.31-1.52,3.32,30.61,18.11,35.76,71.69-1,71.69-1S1285.87,436.87,1267.23,425.49Z" class="colorfbb09e svgShape"></path><path fill="#9eccfb" d="M1235.56,391.74s-80.59-80.48-89.37-66.53-3,27.18,11,42.38,72.93,52.65,72.93,52.65S1252.12,414.84,1235.56,391.74Z" class="colorfbb09e svgShape"></path><polygon fill="#d1d2d4" points="1324.62 500.75 1304.33 459.47 1220.38 524.43 1242.94 558.27 1324.62 500.75" class="colord1d3d4 svgShape"></polygon><path fill="#2b4090" d="M1531.6,1185.22l-325-625.72,131.25-86,307.7,657.09S1589.59,1241.1,1531.6,1185.22Z" class="color2b3990 svgShape"></path><path d="M1337.85,473.49l-37.52,24.59c108.72,157.7,192.76,368.88,167.49,564.34l63.78,122.8c58,55.88,114-54.64,114-54.64Z" style="mix-blend-mode:multiply" fill="#d1d2d4" class="colord1d3d4 svgShape"></path><path d="M1553.7,934.43c-44.91,22.88-74.68,73.51-87.1,125.64l65,125.15c58,55.88,114-54.64,114-54.64Z" style="mix-blend-mode:multiply" fill="#d1d2d4" class="colord1d3d4 svgShape"></path><path fill="#021b79" d="M1807.79,1524.41S1850,1582.2,1806.2,1696L1616,2052l-21.37,464.81-139.76,13.57c-15-39.12,49.64-67.17,49.64-67.17L1482,2033.54l34-318.24-51.8-137.84Z" class="color202b6c svgShape"></path><path fill="#3e4769" d="M1504.5,2463.2s-64.59,28.06-49.64,67.18l139.76-13.57,1.31-28.43Z" class="color693e4a svgShape"></path><path fill="#2b4090" d="M1571.62,1766c-24.78-3.29-50.42,24.09-68.25,67.56l-18.49,173.12c7.53,38.29,23.81,64.6,45.74,67.51,37.47,5,77-60,88.35-145.07S1609.09,1771,1571.62,1766Z" class="color2b3990 svgShape"></path><path d="M1815,1669.63c28.28-96.26-7.23-145.22-7.23-145.22l-343.59,53,31.2,83C1601.84,1650.34,1711.05,1648.06,1815,1669.63Z" style="mix-blend-mode:multiply" fill="#bcbec0" class="colorbcbec0 svgShape"></path><path d="M886,2401.16a23.26,23.26,0,0,1-21.11-33c.63-1.38,63.84-140.72,75.24-329.55,1.48-24.59,23-76.82,93.72-98.51a23.25,23.25,0,0,1,13.63,44.46c-56.07,17.19-60.91,56.46-60.94,56.85-11.94,198-76.67,340.27-79.42,346.23A23.25,23.25,0,0,1,886,2401.16Z" fill="#000000" class="color000000 svgShape"></path><path d="M935.75,2303.64c-36.5.54-67,34.3-68.27,74-1.19,38.17,25.35,67.87,59.36,67.62s64.73-30.56,68.38-69C999,2336.26,972.38,2303.11,935.75,2303.64Z" fill="#000000" class="color000000 svgShape"></path><path fill="url(#g)" d="M992.78,2378c-1.85,25.53-21.63,46.17-44.19,46.39s-39.73-20-38.41-45.48c1.33-25.79,21.1-47.18,44.16-47.46S994.64,2352.14,992.78,2378Z"></path><path fill="url(#h)" d="M989.25,2378.12c-1.28,18.43-15.54,33.38-31.85,33.54s-28.69-14.49-27.68-32.88c1-18.57,15.26-33.91,31.83-34.1S990.54,2359.52,989.25,2378.12Z"></path><path fill="#1f2023" d="M1013.14,2016.57C844.74,1960,655.32,2069.08,590,2260.15s18.31,391.79,186.7,448.34,357.81-52.52,423.1-243.59S1181.53,2073.11,1013.14,2016.57Zm162.36,435.07c-56.83,166.3-221.7,261.23-368.27,212s-219.32-223.93-162.5-390.24,221.69-261.23,368.27-212S1232.32,2285.33,1175.5,2451.64Z" class="color231f20 svgShape"></path><path fill="#404042" d="M644.73,2273.41c56.82-166.3,221.69-261.23,368.27-212a248.18,248.18,0,0,1,75.28,40.86,294.29,294.29,0,0,0-22.3-61.62,284.42,284.42,0,0,0-52.84-24.07C844.74,1960,655.32,2069.08,590,2260.15c-25.81,75.53-28.26,152.53-11.5,221.58a440.94,440.94,0,0,0,64.9,14.14C619.94,2428.69,618.5,2350.17,644.73,2273.41Z" class="color414042 svgShape"></path><path fill="#808285" d="M600.17,2233.75a254.8,254.8,0,0,0,51.75,20.57c45.34-111.93,140.7-187.76,243.42-203-21.59-13.56-48.11-24.26-77.86-31.07C724.93,2053.54,643.68,2129.79,600.17,2233.75Z" class="color808285 svgShape"></path><path d="M998,2045.35c-153.68-52.68-326.55,48.92-386.12,226.93s16.71,365,170.38,417.7,326.53-48.93,386.11-226.94S1151.65,2098,998,2045.35Zm148.17,405.33c-51.86,154.94-202.33,243.38-336.08,197.53s-200.15-208.63-148.3-363.57,202.31-243.37,336.08-197.53S1198,2295.74,1146.15,2450.68Z" fill="#000000" class="color000000 svgShape"></path><path fill="url(#i)" d="M1015.78,2047.36C861.22,1995,687.36,2096,627.45,2272.88S644.25,2635.61,798.8,2688s328.42-48.61,388.34-225.51S1170.34,2099.71,1015.78,2047.36Zm149,402.8c-52.16,154-203.49,241.86-338,196.3s-201.3-207.33-149.15-361.3,203.48-241.86,338-196.29S1217,2296.19,1164.81,2450.16Z"></path><path d="M1019.21,2026.63c-164.56-55.74-349.67,51.76-413.47,240.11s17.89,386.22,182.45,442,349.67-51.77,413.48-240.12S1183.78,2082.36,1019.21,2026.63Zm158.67,428.87C1122.35,2619.45,961.22,2713,818,2664.5s-214.33-220.74-158.81-384.68,216.66-257.51,359.9-209S1233.41,2291.56,1177.88,2455.5Z" fill="#000000" class="color000000 svgShape"></path><path fill="#293975" d="M1000.19,1640,893,1629.27a26,26,0,0,1-23.22-28.46h0a26,26,0,0,1,28.45-23.22l107.22,10.73a26,26,0,0,1,23.22,28.45h0A26,26,0,0,1,1000.19,1640Z" class="color754c29 svgShape"></path><path fill="#151d3c" d="M869.8,1600.54c0,.1,0,.18,0,.27A26,26,0,0,0,893,1629.27L1000.19,1640a26,26,0,0,0,28.46-23.22c0-.1,0-.18,0-.28Z" class="color3c2415 svgShape"></path><circle cx="1002.81" cy="1614.15" r="25.97" fill="#132360" transform="rotate(-49.67 1002.717 1614.091)" class="color603913 svgShape"></circle><path d="M1022,1616.09a19.24,19.24,0,1,1-17.2-21.08A19.24,19.24,0,0,1,1022,1616.09Z" fill="#000000" class="color000000 svgShape"></path><path fill="#1f2023" d="M1137.91,1642.59a14.41,14.41,0,0,1-1.46-.07l-136.34-14.27a14,14,0,0,1,2.91-27.75l136.33,14.26a14,14,0,0,1-1.44,27.83Z" class="color231f20 svgShape"></path><path d="M1120.56,1627.08l-132.87-13.9a13.93,13.93,0,0,0,12.42,15.07l132.88,13.9A14,14,0,0,0,1120.56,1627.08Z" style="mix-blend-mode:multiply" fill="#bcbec0" class="colorbcbec0 svgShape"></path><path fill="#1c48ed" d="M1018.06 1956.9a23.25 23.25 0 0010.86 25.52c8.71 5.1 19.09 13.21 30.83 24.12a76.89 76.89 0 0121.94 75.25c-26.16 103.6-73.91 202.44-138.11 285.84A23.25 23.25 0 10980.43 2396c68-88.39 118.65-193.11 146.35-302.82a123.39 123.39 0 00-35.38-120.7 286.23 286.23 0 00-24.34-20.42l38.54-159.82-45.76-8.61zM1127.94 1600.34a23.24 23.24 0 00-28 17.16l-40.05 166.12 45.76 8.61 39.5-163.83A23.26 23.26 0 001127.94 1600.34z" class="colored1c24 svgShape"></path><path d="M1091.4,1972.47a286.23,286.23,0,0,0-24.34-20.42l78-323.65a23.27,23.27,0,0,0-12.62-26.45,22.71,22.71,0,0,0-2.74,6.44l-81.83,339.4a23.25,23.25,0,0,0,10.86,25.52c8.71,5.1,19.08,13.21,30.83,24.12a76.89,76.89,0,0,1,21.94,75.25c-26.16,103.6-87.45,235.74-143.67,283.12-9.82,8.28-32.67,29.4-7.91,44.51,8.07,4.93,15.23,1.45,22.16-6.56,67.18-87.93,117.19-191.78,144.66-300.58A123.39,123.39,0,0,0,1091.4,1972.47Z" style="mix-blend-mode:multiply" fill="#bcbec0" class="colorbcbec0 svgShape"></path><path fill="#2041bf" d="M968.67,2399.21l-2.13-.86a18.27,18.27,0,0,1-10.19-23.75h0a18.28,18.28,0,0,1,23.76-10.19l2.13.85A18.29,18.29,0,0,1,992.43,2389h0A18.29,18.29,0,0,1,968.67,2399.21Z" class="colorbf8920 svgShape"></path><ellipse cx="978.55" cy="2383.47" fill="#2b58ff" rx="17.09" ry="14.93" transform="rotate(-68.3 976.583 2379.696)" class="colorffb72b svgShape"></ellipse><g style="mix-blend-mode:multiply" fill="#000000" class="color000000 svgShape"><path d="M989.65,2385.05c-.95,6.38-6.25,11.16-11.85,10.9s-9.68-5.44-9.15-11.8c.55-6.62,5.87-12,11.88-11.78S990.65,2378.4,989.65,2385.05Z" fill="#000000" class="color000000 svgShape"></path></g><path d="M1108.67 1804.81l-53.19-9.67a11.87 11.87 0 01-9.56-13.81h0a11.86 11.86 0 0113.81-9.56l53.19 9.66a11.89 11.89 0 019.56 13.82h0A11.88 11.88 0 011108.67 1804.81zM1071.76 1952.29l-53.19-9.67a11.88 11.88 0 01-9.57-13.81h0a11.88 11.88 0 0113.82-9.56l53.18 9.67a11.88 11.88 0 019.57 13.81h0A11.88 11.88 0 011071.76 1952.29z" fill="#000000" class="color000000 svgShape"></path><path fill="#1f2023" d="M1377.58,1667.51a14.44,14.44,0,0,1-1.46-.08l-256.72-26.86a14,14,0,1,1,2.91-27.75L1379,1639.68a14,14,0,0,1-1.44,27.83Z" class="color231f20 svgShape"></path><path d="M1360.23,1652,1107,1625.5a13.94,13.94,0,0,0,12.42,15.07l253.26,26.5A13.93,13.93,0,0,0,1360.23,1652Z" style="mix-blend-mode:multiply" fill="#bcbec0" class="colorbcbec0 svgShape"></path><path fill="#293975" d="M1375,1679.39l-107.23-10.72a26,26,0,0,1-23.22-28.45h0A26,26,0,0,1,1273,1617l107.22,10.73a26,26,0,0,1,23.22,28.45h0A26,26,0,0,1,1375,1679.39Z" class="color754c29 svgShape"></path><path fill="#151d3c" d="M1244.56,1639.94c0,.1,0,.18-.06.28a26,26,0,0,0,23.22,28.45L1375,1679.39a26,26,0,0,0,28.45-23.22c0-.09,0-.18,0-.28Z" class="color3c2415 svgShape"></path><circle cx="1377.57" cy="1653.55" r="25.97" fill="#132360" transform="rotate(-39.22 1377.536 1653.545)" class="color603913 svgShape"></circle><circle cx="1377.57" cy="1653.56" r="16.23" fill="#3c4d8b" transform="rotate(-52.34 1377.57 1653.558)" class="color8b5e3c svgShape"></circle><path fill="#ffffff" d="M1581.06,1180.84c-43.07,6.7-134.26,407.34-134.26,407.34s33.61,45.7,175.57,39.49,221.93-63.79,221.93-63.79S1897,1131.68,1581.06,1180.84Z" class="colorffffff svgShape"></path><path fill="#2b4090" d="M1553.45,1019.46l-131.33,401.63-90,66.41c-.49,107.41,187.72,152.63,187.72,152.63l55.66-146.83,100.61,153s147.41-7.53,199.66-29.42,92.77-95.19,92.77-95.19l-92.77-70.36s105-446.71,85.26-452.11S1657.86,991.6,1553.45,1019.46Z" class="color2b3990 svgShape"></path><path fill="#ffffff" d="M1603.12,1294.39,1586.88,1057s37.45-49.34,105-37.54,105.68,58,105.68,58S1710.69,1204.88,1603.12,1294.39Z" class="colorffffff svgShape"></path><path d="M1875.75,1451.31s105-446.71,85.26-452.1-303.15-7.61-407.56,20.26l-46.08,140.92a210.5,210.5,0,0,1,27.16-1.83c1,32,18.7,117.8,35,135.83l-4.42-133.74c50.36,6.81,99.38,30.34,144.91,64.49a243.14,243.14,0,0,1,27.44,24.63l-86.14,56.78c48.2-5.57,87.72-12.25,115.39-19.21,39.76,64.15,43.8,143.31,23.14,219.37,56.84-10.4,104.25,22.31,138.93,69.59a326.44,326.44,0,0,0,39.73-54.63Z" style="mix-blend-mode:multiply" fill="#d1d2d4" class="colord1d3d4 svgShape"></path><path fill="#9eccfb" d="M2248.64,571.66l4.87-44.19-28.75-34.72,95.06-189.61s32.95,2.73,25.94,24.18-50.51,83.82-50.51,83.82,81.4,34.43,82.94,46.49-2,50.54-16.23,64.53c-16.34,16-47,15.86-47,15.86l-38.7,58.35Z" class="colorfbb09e svgShape"></path><path d="M2291.75,428s-17.84,55.19-1,62.37S2360,504.53,2360,504.53s-39.61,14.68-56.24,11.6S2264,495.32,2264,495.32,2250.71,457.78,2291.75,428Z" style="mix-blend-mode:multiply" fill="#d1d2d4" class="colord1d3d4 svgShape"></path><path d="M2270.67,461.64s72.11-22.39,76.31-1.09-3.49,30.59-18.31,35.66-73.18-8.72-73.18-8.72S2252,472.91,2270.67,461.64Z" style="mix-blend-mode:multiply" fill="#d1d2d4" class="colord1d3d4 svgShape"></path><path fill="#9eccfb" d="M2261.51,452.27s72.12-22.38,76.31-1.08-3.48,30.58-18.3,35.65-71.68-1.42-71.68-1.42S2242.81,463.55,2261.51,452.27Z" class="colorfbb09e svgShape"></path><path fill="#9eccfb" d="M2293.36,418.7s81-80,89.75-66,2.8,27.2-11.22,42.32-73.22,52.25-73.22,52.25S2276.68,441.7,2293.36,418.7Z" class="colorfbb09e svgShape"></path><polygon fill="#d1d2d4" points="2203.7 527.21 2224.22 486.05 2307.8 551.48 2285.06 585.19 2203.7 527.21" class="colord1d3d4 svgShape"></polygon><path fill="#2b4090" d="M1873.19,1013.91,2192,510l140,70.86-416.06,594.43S1853.68,1092.05,1873.19,1013.91Z" class="color2b3990 svgShape"></path><path d="M2229.66,529.08c-20.83,114.54-37.78,187.47-92.41,288.93-42.31,67.7-148.81,178.17-234.49,149.16l-29.57,46.74c-19.51,78.14,42.72,161.37,42.72,161.37L2332,580.85Z" style="mix-blend-mode:multiply" fill="#d1d2d4" class="colord1d3d4 svgShape"></path><path d="M1872.39,1067.8c-.53,37-61.43,74.81-147.05,85.09s-158.61-11.14-163-47.85,58.46-98.89,144.09-109.17S1873.5,989.39,1872.39,1067.8Z" style="mix-blend-mode:multiply" fill="#a7a9ac" class="colora7a9ac svgShape"></path><path fill="#1d40c6" d="M1757.67,1105.92s43.78,87.41,130.63,100.22,142.5-54.93,203.83-39.9,127.09,55.21,127.09,55.21L2339,1198.64l-83.82-109.05s-116-20.09-168.47,0-94.36,77.32-160.71,73.19-132.62-50.2-138.41-66.09S1757.55,1090.57,1757.67,1105.92Z" class="colorc61d24 svgShape"></path><path d="M2043.52,1113.68c-35.23,23.74-70.15,52-117.56,49.1-3.86-.23-7.72-.65-11.57-1.16a160.94,160.94,0,0,1-39.41,41.79c4.34,1.06,8.74,2,13.32,2.72,64,9.44,111-24.69,155.88-37.37C2036.67,1152.54,2039,1131.68,2043.52,1113.68Z" style="mix-blend-mode:multiply" fill="#d1d2d4" class="colord1d3d4 svgShape"></path><path d="M1787.55,1096.69c-5.8-15.89-30-6.12-29.88,9.23,0,0,11.74,23.2,34.92,47.42,14.24-6,29-11.65,43.44-18.18C1809.43,1120.88,1790.52,1104.83,1787.55,1096.69Z" style="mix-blend-mode:multiply" fill="#a7a9ac" class="colora7a9ac svgShape"></path><path fill="#ffffff" d="M2109,1157.24c9.34,8.52,103.6,51.14,107.68,50.51s105.18-13.5,105.18-17.9-.63-14.42-14.76-14.59-60.28,24.85-87,17.84S2091.58,1141.35,2109,1157.24Z" opacity=".2" class="colorffffff svgShape"></path><circle cx="1862.8" cy="807.86" r="40.06" fill="#9eccfb" class="colorfbb09e svgShape"></circle><path d="M1862.43,807.86a27.8,27.8,0,0,0-14-24,27.62,27.62,0,0,1,14-3.87,27.91,27.91,0,0,1,0,55.82,27.62,27.62,0,0,1-14-3.87A27.78,27.78,0,0,0,1862.43,807.86Z" style="mix-blend-mode:multiply" fill="#9eccfb" class="colorfbb09e svgShape"></path><path d="M1862.8,767.8a39.4,39.4,0,0,1,10.7,1.64,95.22,95.22,0,0,0-.93,77.14,40,40,0,1,1-9.77-78.78Z" style="mix-blend-mode:multiply" fill="#e6e7e8" class="colore6e7e8 svgShape"></path><circle cx="1554.86" cy="802.58" r="40.06" fill="#9eccfb" class="colorfbb09e svgShape"></circle><path d="M1555.23,802.58a27.78,27.78,0,0,1,14-24,27.62,27.62,0,0,0-14-3.87,27.91,27.91,0,0,0,0,55.82,27.62,27.62,0,0,0,14-3.87A27.79,27.79,0,0,1,1555.23,802.58Z" style="mix-blend-mode:multiply" fill="#9eccfb" class="colorfbb09e svgShape"></path><path d="M1554.86,762.52a39.47,39.47,0,0,0-10.71,1.63,95.2,95.2,0,0,1,.94,77.15,40,40,0,1,0,9.77-78.78Z" style="mix-blend-mode:multiply" fill="#e6e7e8" class="colore6e7e8 svgShape"></path><path fill="#9eccfb" d="M1690.28,566.35c-64.17-1.47-117.14,50.37-116.68,114.55.62,85.71-5.35,289.07-36.95,321.44-110.94,113.63,235.4,126.43,260.93,93,58.8-77,49.32-326.11,45.24-398.13-1.52-26.72-10-52.84-26.28-74.11C1795.59,595.7,1757.77,567.9,1690.28,566.35Z" class="colorfbb09e svgShape"></path><path d="M1737.75 751.69a5.86 5.86 0 004.65.67c.22-.06 22.27-6 34.92 2.79 5 3.48 7.75 8.9 8.43 16.56a5.93 5.93 0 1011.81-1c-1-11.24-5.53-19.74-13.5-25.28-17.22-11.94-43.66-4.78-44.78-4.47a5.93 5.93 0 00-1.53 10.77zM1641.14 752.31a5.88 5.88 0 01-4.66.59c-.22-.06-22.17-6.32-35 2.22-5 3.39-7.89 8.77-8.7 16.42A5.93 5.93 0 111581 770.3c1.17-11.22 5.85-19.64 13.91-25 17.42-11.66 43.74-4.06 44.85-3.73a5.92 5.92 0 011.35 10.79z" fill="#000000" class="color000000 svgShape"></path><path d="M1842.82,697.22c-1.52-26.72-10-52.84-26.28-74.11a133.6,133.6,0,0,0-30.11-28.69c2.46,2.74,4.79,5.49,6.9,8.25,16.25,21.26,24.76,47.39,26.28,74.11,4.09,72,13.56,321.14-45.24,398.12-17.54,23-186.47,24.11-254.55-14.26,36.14,58.64,257.54,61.18,277.76,34.71C1856.38,1018.36,1846.9,769.24,1842.82,697.22Z" style="mix-blend-mode:multiply" fill="#e6e7e8" class="colore6e7e8 svgShape"></path><path fill="#151d3c" d="M1816.54,623.11c-21-27.41-58.77-55.21-126.26-56.76-60.61-1.39-111.16,44.79-116.21,104h264.67A127.84,127.84,0,0,0,1816.54,623.11Z" class="color3c2415 svgShape"></path><path fill="#444b63" d="M1690,566.36c-60.49-1.26-110.91,44.86-116,104h54.67C1635.75,630,1658.58,594.1,1690,566.36Z" class="color635044 svgShape"></path><path d="M1775,985c9.49,21.78-11.77,52-47.48,67.6s-72.35,10.51-81.83-11.26,27.18-16.68,62.88-32.23S1765.5,963.18,1775,985Z" style="mix-blend-mode:multiply" fill="#d1d2d4" class="colord1d3d4 svgShape"></path><path fill="#cce3fb" d="M1769.79,980.37c9.49,21.78-11.77,52-47.48,67.59s-72.35,10.52-81.83-11.25,27.18-16.68,62.88-32.23S1760.31,958.6,1769.79,980.37Z" class="colorfbcce8 svgShape"></path><path fill="#13225b" d="M1767.11,981.54c7.53,17.29-14.11,43.39-48.34,58.3s-68.08,13-75.61-4.3,29.52-8,63.74-22.94S1759.58,964.26,1767.11,981.54Z" class="color5b1322 svgShape"></path><path d="M1588.35 832.08a42.32 42.32 0 013.62-31.31c2.69-5.09 7.29-9.16 12.31-12.15s10.92-4.08 16.46-4.77c10.77-1.14 24.28 2.5 31 12.63 6.7 9.71 7.28 21.31 4.73 31.23-1.85-10.05-5.21-19.7-11.25-25.91s-14.6-8.08-23.63-7.19c-9 .58-17 3.92-22.65 10.85S1590.15 822 1588.35 832.08zM1723.65 832.08a42.28 42.28 0 013.63-31.31c2.69-5.09 7.29-9.16 12.3-12.15s10.92-4.08 16.47-4.77c10.76-1.14 24.27 2.5 31 12.63 6.7 9.71 7.29 21.31 4.73 31.23-1.85-10.05-5.2-19.7-11.25-25.91s-14.6-8.08-23.63-7.19c-9 .58-17 3.92-22.64 10.85S1725.46 822 1723.65 832.08z" fill="#000000" class="color000000 svgShape"></path><path d="M1732.47,922c0,55.07-18.17,62.13-40.57,62.13s-40.57-7.06-40.57-62.13,18.16-147.7,40.57-147.7S1732.47,866.94,1732.47,922Z" style="mix-blend-mode:multiply" fill="#a7a9ac" class="colora7a9ac svgShape"></path><path fill="#9eccfb" d="M1723.67,897.42c0,53.27-18.17,60.09-40.57,60.09s-40.57-6.82-40.57-60.09,18.16-142.84,40.57-142.84S1723.67,844.16,1723.67,897.42Z" class="colorfbb09e svgShape"></path><path fill="#c5e1fd" d="M1688.34,756.39a10.21,10.21,0,0,0-5.24-1.81c-22.41,0-40.57,89.58-40.57,142.84,0,48.31,15,58.39,34.45,59.85,1.83-8,3.54-17.15,5.1-27.76C1689.41,879.59,1692.65,805.47,1688.34,756.39Z" class="colorfdd0c5 svgShape"></path><path d="M1575.21,1452.41l24-140.34S1654.49,1391.64,1575.21,1452.41Z" style="mix-blend-mode:multiply" fill="#d1d2d4" class="colord1d3d4 svgShape"></path></g><g fill="#000000" class="color000000 svgShape"><path fill="#56a5f4" d="M2201,1483.07s17.73,21.88,26.42,32.73,20.63,37.36,20.63,37.36l5.65-50.55S2226.63,1490.35,2201,1483.07Z" class="colorf4b456 svgShape"></path><path fill="#9ac9f8" d="M2071.51,1429.5s-23.08,17.87-28.56,30.65-11.09,43.88-11.09,43.88l47.25-18.84S2048.61,1469.7,2071.51,1429.5Z" class="colorf8d29a svgShape"></path><path fill="#415ab7" d="M2189.46,1608.12s-12.86-26.2-24.28-34.13-40.75-19.69-40.75-19.69l9,50.07S2154.69,1577.6,2189.46,1608.12Z" class="colorb78741 svgShape"></path><path fill="#56a5f4" d="M1677.48,1363.63s263.12-114.38,585.44-96.16c600.46,33.94,91.13,508.41,368,603.51,201.37,69.17,369.09-14,369.09-14v126.8s-318.49,30.61-461.67-25.12c-335.94-130.79,305-574.64-189.52-595-215.77-8.88-653.06,112.09-653.06,112.09l78.71-50.55-85.13-9.12,40.42-32.07Z" class="colorf4b456 svgShape"></path><path fill="#9ac9f8" d="M2216.93,1265.83c-84.95-1.62-164.94,5.39-236,16.41,22.21,37.32,29.16,77.61,32.2,119.43,102.31-19.9,211.16-36.46,296.57-38.3C2282.53,1328,2249.49,1295.71,2216.93,1265.83Z" class="colorf8d29a svgShape"></path><path d="M2570.3,1832.74c-74-85,17.91-252.74,0-383.82l-.25.31a146.45,146.45,0,0,0-29.39,62.92c-27.29,138.27-196.66,336.22-37.34,429.69C2506.09,1894.3,2532.84,1857.94,2570.3,1832.74Z" style="mix-blend-mode:multiply" fill="#d1d2d4" class="colord1d3d4 svgShape"></path></g></g></svg>