<svg xmlns="http://www.w3.org/2000/svg" enable-background="new 0 0 3000 3000" viewBox="0 0 3000 3000" id="Successfulcompletionoftheprobationaryperiod"><ellipse cx="442" cy="2062.2" fill="#e0e0e0" rx="417" ry="89.1" class="colore0e0e0 svgShape"></ellipse><polygon fill="#bdbdbd" points="800.3 2068.7 841.4 2068.7 764 1563.9 701.4 1854.4 714 1961.2" class="colorbdbdbd svgShape"></polygon><polygon fill="#f5f5f5" points="752.5 2076 820.2 2080 764 1563.9 708.1 1913.5" class="colorf5f5f5 svgShape"></polygon><polygon fill="#bdbdbd" points="754 2084.2 795.2 2084.2 764 1563.9 655.1 1869.8 667.7 1976.7" class="colorbdbdbd svgShape"></polygon><polygon fill="#e0e0e0" points="706.2 2091.5 773.9 2095.5 764 1563.9 661.8 1928.9" class="colore0e0e0 svgShape"></polygon><g fill="#000000" class="color000000 svgShape"><polygon fill="#f5f5f5" points="764 1612.4 730.1 2106.1 59.2 2068.9 138.2 1612.4" class="colorf5f5f5 svgShape"></polygon><polygon fill="#e0e0e0" points="764 1612.4 764 1563.9 138.2 1560.6 138.2 1612.4" class="colore0e0e0 svgShape"></polygon><path fill="#e0e0e0" d="M688.5 1563.5v.4c0 17.4 9.7 31.5 21.6 31.5v-4.4c-9.5 0-17.2-12.2-17.2-27.2v-.4L688.5 1563.5zM641.4 1563.3v.7c0 17.4 9.7 31.5 21.6 31.5v-4.4c-9.5 0-17.2-12.2-17.2-27.2v-.6L641.4 1563.3zM594.4 1563.9c0 17.4 9.7 31.5 21.6 31.5v-4.4c-9.5 0-17.2-12.2-17.2-27.2 0-.3 0-.6 0-.9l-4.4 0C594.4 1563.3 594.4 1563.6 594.4 1563.9zM547.3 1563.9c0 17.4 9.7 31.5 21.6 31.5v-4.4c-9.5 0-17.2-12.2-17.2-27.2 0-.4 0-.8 0-1.1l-4.4 0C547.3 1563.1 547.3 1563.5 547.3 1563.9zM500.3 1563.9c0 17.4 9.7 31.5 21.6 31.5v-4.4c-9.5 0-17.2-12.2-17.2-27.2 0-.5 0-.9 0-1.4l-4.4 0C500.3 1563 500.3 1563.4 500.3 1563.9zM453.2 1563.9c0 17.4 9.7 31.5 21.6 31.5v-4.4c-9.5 0-17.2-12.2-17.2-27.2 0-.5 0-1.1 0-1.6l-4.4 0C453.2 1562.8 453.2 1563.4 453.2 1563.9zM406.2 1563.9c0 17.4 9.7 31.5 21.6 31.5v-4.4c-9.5 0-17.2-12.2-17.2-27.2 0-.6 0-1.3 0-1.9l-4.4 0C406.2 1562.7 406.2 1563.3 406.2 1563.9zM359.1 1563.9c0 17.4 9.7 31.5 21.6 31.5v-4.4c-9.5 0-17.2-12.2-17.2-27.2 0-.7 0-1.4.1-2.1l-4.4 0C359.1 1562.5 359.1 1563.2 359.1 1563.9zM312 1563.9c0 17.4 9.7 31.5 21.6 31.5v-4.4c-9.5 0-17.2-12.2-17.2-27.2 0-.8 0-1.6.1-2.4l-4.4 0C312.1 1562.3 312 1563.1 312 1563.9zM265 1563.9c0 17.4 9.7 31.5 21.6 31.5v-4.4c-9.5 0-17.2-12.2-17.2-27.2 0-.9 0-1.8.1-2.6l-4.4 0C265 1562.2 265 1563 265 1563.9zM217.9 1563.9c0 17.4 9.7 31.5 21.6 31.5v-4.4c-9.5 0-17.2-12.2-17.2-27.2 0-1 0-1.9.1-2.9l-4.4 0C217.9 1562 217.9 1562.9 217.9 1563.9zM170.8 1563.9c0 17.4 9.7 31.5 21.6 31.5v-4.4c-9.5 0-17.2-12.2-17.2-27.2 0-1 0-2.1.1-3.1l-4.4 0C170.9 1561.8 170.8 1562.9 170.8 1563.9z" class="colore0e0e0 svgShape"></path></g><g fill="#000000" class="color000000 svgShape"><path fill="#404042" d="M170.8 1563.9c0 17.4 9.7 31.5 21.6 31.5v-4.4c-9.5 0-17.2-12.2-17.2-27.2 0-1 0-2.1.1-3.1 1-13.5 8.3-24.1 17.1-24.1 8.9 0 16.2 10.6 17.1 24.2l4.4 0c-1-16.1-10.3-28.6-21.5-28.6-11.2 0-20.4 12.5-21.5 28.4C170.9 1561.8 170.8 1562.9 170.8 1563.9zM217.9 1563.9c0 17.4 9.7 31.5 21.6 31.5v-4.4c-9.5 0-17.2-12.2-17.2-27.2 0-1 0-1.9.1-2.9.9-13.6 8.2-24.3 17.1-24.3 8.9 0 16.3 10.8 17.1 24.5l4.4 0c-.9-16.2-10.2-28.9-21.5-28.9-11.2 0-20.5 12.6-21.5 28.7C217.9 1562 217.9 1562.9 217.9 1563.9zM265 1563.9c0 17.4 9.7 31.5 21.6 31.5v-4.4c-9.5 0-17.2-12.2-17.2-27.2 0-.9 0-1.8.1-2.6.8-13.8 8.2-24.6 17.1-24.6 9 0 16.4 10.9 17.1 24.7l4.4 0c-.9-16.3-10.2-29.1-21.5-29.1-11.3 0-20.6 12.7-21.5 28.9C265 1562.2 265 1563 265 1563.9zM312 1563.9c0 17.4 9.7 31.5 21.6 31.5v-4.4c-9.5 0-17.2-12.2-17.2-27.2 0-.8 0-1.6.1-2.4.8-13.9 8.1-24.8 17.1-24.8 9 0 16.5 11 17.2 25l4.4 0c-.8-16.4-10.2-29.4-21.6-29.4-11.4 0-20.7 12.9-21.5 29.2C312.1 1562.3 312 1563.1 312 1563.9zM359.1 1563.9c0 17.4 9.7 31.5 21.6 31.5v-4.4c-9.5 0-17.2-12.2-17.2-27.2 0-.7 0-1.4.1-2.1.7-14 8.1-25.1 17.2-25.1 9.1 0 16.5 11.2 17.2 25.3l4.4 0c-.7-16.5-10.1-29.6-21.5-29.6-11.4 0-20.8 13-21.6 29.4C359.1 1562.5 359.1 1563.2 359.1 1563.9zM406.2 1563.9c0 17.4 9.7 31.5 21.6 31.5v-4.4c-9.5 0-17.2-12.2-17.2-27.2 0-.6 0-1.3 0-1.9.6-14.1 8.1-25.3 17.2-25.3 9.2 0 16.6 11.3 17.2 25.5l4.4 0c-.6-16.6-10-29.9-21.6-29.9-11.5 0-20.9 13.1-21.5 29.7C406.2 1562.7 406.2 1563.3 406.2 1563.9zM453.2 1563.9c0 17.4 9.7 31.5 21.6 31.5v-4.4c-9.5 0-17.2-12.2-17.2-27.2 0-.5 0-1.1 0-1.6.5-14.2 8.1-25.6 17.2-25.6 9.2 0 16.7 11.4 17.2 25.8l4.4 0c-.5-16.8-10-30.1-21.6-30.1-11.5 0-21 13.3-21.6 29.9C453.2 1562.8 453.2 1563.4 453.2 1563.9zM500.3 1563.9c0 17.4 9.7 31.5 21.6 31.5v-4.4c-9.5 0-17.2-12.2-17.2-27.2 0-.5 0-.9 0-1.4.5-14.4 8-25.8 17.2-25.8 9.2 0 16.8 11.6 17.2 26l4.4 0c-.4-16.9-9.9-30.4-21.6-30.4-11.6 0-21.1 13.4-21.6 30.2C500.3 1563 500.3 1563.4 500.3 1563.9zM547.3 1563.9c0 17.4 9.7 31.5 21.6 31.5v-4.4c-9.5 0-17.2-12.2-17.2-27.2 0-.4 0-.8 0-1.1.4-14.5 8-26.1 17.2-26.1 9.3 0 16.9 11.7 17.2 26.3l4.4 0c-.3-17-9.9-30.6-21.6-30.6-11.7 0-21.2 13.5-21.6 30.4C547.3 1563.1 547.3 1563.5 547.3 1563.9zM594.4 1563.9c0 17.4 9.7 31.5 21.6 31.5v-4.4c-9.5 0-17.2-12.2-17.2-27.2 0-.3 0-.6 0-.9.3-14.6 7.9-26.3 17.2-26.3 9.3 0 17 11.8 17.2 26.5l4.4 0c-.3-17.1-9.9-30.9-21.6-30.9-11.7 0-21.3 13.7-21.6 30.7C594.4 1563.3 594.4 1563.6 594.4 1563.9zM641.4 1563.3v.7c0 17.4 9.7 31.5 21.6 31.5v-4.4c-9.5 0-17.2-12.2-17.2-27.2v-.6c.2-14.7 7.9-26.6 17.2-26.6 9.4 0 17.1 12 17.2 26.8l4.4 0c-.2-17.2-9.8-31.1-21.6-31.1C651.3 1532.4 641.7 1546.2 641.4 1563.3zM688.5 1563.5v.4c0 17.4 9.7 31.5 21.6 31.5v-4.4c-9.5 0-17.2-12.2-17.2-27.2v-.4c.1-14.8 7.8-26.8 17.2-26.8 9.5 0 17.2 12.1 17.2 27l4.4 0c-.1-17.3-9.7-31.4-21.6-31.4C698.3 1532.4 688.7 1546.3 688.5 1563.5z" class="color414042 svgShape"></path></g><g fill="#000000" class="color000000 svgShape"><path fill="#bdbdbd" d="M647.6,1740.5c-1.2-1.3-1.7-3.1-1.5-4.8l4.6-38.3c0.4-3.1,3-5.4,6.1-5.4H716c1.8,0,3.4,0.8,4.6,2.1
									c1.2,1.3,1.7,3.1,1.5,4.8l-4.6,38.3c-0.4,3.1-3,5.4-6.1,5.4h-59.1C650.5,1742.5,648.8,1741.8,647.6,1740.5z" class="colorbdbdbd svgShape"></path><path fill="#bdbdbd" d="M649.3 1739c.7.9 1.8 1.3 3 1.3h59.1c2 0 3.7-1.5 4-3.5l4.6-38.3c.2-1.1-.2-2.3-1-3.1-.8-.9-1.8-1.3-3-1.3h-59.1c-2 0-3.7 1.5-4 3.5l-4.6 38.3C648.2 1737 648.5 1738.2 649.3 1739zM550.4 1736.9c-1.2-1.3-1.7-3.1-1.5-4.8l4.6-38.3c.4-3.1 3-5.4 6.1-5.4h59.1c1.8 0 3.4.8 4.6 2.1 1.2 1.3 1.7 3.1 1.5 4.8l-4.6 38.3c-.4 3.1-3 5.4-6.1 5.4H555C553.2 1739 551.5 1738.2 550.4 1736.9z" class="colorbdbdbd svgShape"></path><path fill="#bdbdbd" d="M552 1735.4c.7.9 1.8 1.3 3 1.3h59.1c2 0 3.7-1.5 4-3.5l4.6-38.2c.2-1.1-.2-2.3-1-3.1-.8-.9-1.8-1.3-3-1.3h-59.1c-2 0-3.7 1.5-4 3.5l-4.6 38.2C550.9 1733.5 551.2 1734.6 552 1735.4zM453.1 1733.3c-1.2-1.3-1.7-3.1-1.5-4.8l4.6-38.3c.4-3.1 3-5.4 6.1-5.4h59.1c1.8 0 3.4.8 4.6 2.1 1.2 1.3 1.7 3.1 1.5 4.8l-4.6 38.3c-.4 3.1-3 5.4-6.1 5.4h-59.1C455.9 1735.4 454.3 1734.6 453.1 1733.3zM462.3 1687c-2 0-3.7 1.5-4 3.5l-4.6 38.3c-.1 1.1.2 2.3 1 3.1.8.9 1.8 1.3 3 1.3h59.1c2 0 3.7-1.5 4-3.5l4.6-38.3c.1-1.1-.2-2.3-1-3.1s-1.8-1.3-3-1.3H462.3zM355.8 1729.8c-1.2-1.3-1.7-3.1-1.5-4.8l4.6-38.3c.4-3.1 3-5.4 6.1-5.4h59.1c1.8 0 3.4.8 4.6 2.1 1.2 1.3 1.7 3.1 1.5 4.8l-4.6 38.3c-.4 3.1-3 5.4-6.1 5.4h-59.1C358.7 1731.8 357 1731.1 355.8 1729.8zM365.1 1683.4c-2 0-3.7 1.5-4 3.5l-4.6 38.3c-.1 1.1.2 2.3 1 3.1.8.9 1.8 1.3 3 1.3h59.1c2 0 3.7-1.5 4-3.5l4.6-38.3c.1-1.1-.2-2.3-1-3.1-.8-.9-1.8-1.3-3-1.3H365.1z" class="colorbdbdbd svgShape"></path><g fill="#000000" class="color000000 svgShape"><path fill="#bdbdbd" d="M258.6,1726.2c-1.2-1.3-1.7-3.1-1.5-4.8l4.6-38.3c0.4-3.1,3-5.4,6.1-5.4h59.1c1.8,0,3.4,0.8,4.6,2.1
									c1.2,1.3,1.7,3.1,1.5,4.8l-4.6,38.3c-0.4,3.1-3,5.4-6.1,5.4h-59.1C261.4,1728.3,259.7,1727.5,258.6,1726.2z M267.8,1679.9
									c-2,0-3.7,1.5-4,3.5l-4.6,38.3c-0.1,1.1,0.2,2.3,1,3.1c0.8,0.9,1.8,1.3,3,1.3h59.1c2,0,3.7-1.5,4-3.5l4.6-38.3
									c0.1-1.1-0.2-2.3-1-3.1c-0.8-0.9-1.8-1.3-3-1.3H267.8z" class="colorbdbdbd svgShape"></path></g><g fill="#000000" class="color000000 svgShape"><path fill="#bdbdbd" d="M161.3,1722.6c-1.2-1.3-1.7-3.1-1.5-4.8l4.6-38.3c0.4-3.1,3-5.4,6.1-5.4h59.1c1.8,0,3.4,0.8,4.6,2.1
									c1.2,1.3,1.7,3.1,1.5,4.8l-4.6,38.3c-0.4,3.1-3,5.4-6.1,5.4h-59.1C164.1,1724.7,162.5,1723.9,161.3,1722.6z M170.5,1676.3
									c-2,0-3.7,1.5-4,3.5l-4.6,38.3c-0.1,1.1,0.2,2.3,1,3.1c0.8,0.9,1.8,1.3,3,1.3H225c2,0,3.7-1.5,4-3.5l4.6-38.3
									c0.1-1.1-0.2-2.3-1-3.1c-0.8-0.9-1.8-1.3-3-1.3H170.5z" class="colorbdbdbd svgShape"></path></g><g fill="#000000" class="color000000 svgShape"><path fill="#bdbdbd" d="M635.9 1814.3c-1.2-1.3-1.7-3.1-1.5-4.8l4.6-38.3c.4-3.1 3-5.4 6.1-5.4h59.1c1.8 0 3.4.8 4.6 2.1 1.2 1.3 1.7 3.1 1.5 4.8l-4.6 38.3c-.4 3.1-3 5.4-6.1 5.4h-59.1C638.8 1816.4 637.1 1815.6 635.9 1814.3zM645.2 1768c-2 0-3.7 1.5-4 3.5l-4.6 38.3c-.1 1.1.2 2.3 1 3.1.8.9 1.8 1.3 3 1.3h59.1c2 0 3.7-1.5 4-3.5l4.6-38.3c.1-1.1-.2-2.3-1-3.1-.8-.9-1.8-1.3-3-1.3H645.2zM538.7 1810.8c-1.2-1.3-1.7-3.1-1.5-4.8l4.6-38.3c.4-3.1 3-5.4 6.1-5.4H607c1.8 0 3.4.8 4.6 2.1 1.2 1.3 1.7 3.1 1.5 4.8l-4.6 38.3c-.4 3.1-3 5.4-6.1 5.4h-59.1C541.5 1812.8 539.8 1812.1 538.7 1810.8zM547.9 1764.4c-2 0-3.7 1.5-4 3.5l-4.6 38.3c-.1 1.1.2 2.3 1 3.1.8.9 1.8 1.3 3 1.3h59.1c2 0 3.7-1.5 4-3.5l4.6-38.3c.1-1.1-.2-2.3-1-3.1-.8-.9-1.8-1.3-3-1.3H547.9zM441.4 1807.2c-1.2-1.3-1.7-3.1-1.5-4.8l4.6-38.3c.4-3.1 3-5.4 6.1-5.4h59.1c1.8 0 3.4.8 4.6 2.1 1.2 1.3 1.7 3.1 1.5 4.8l-4.6 38.3c-.4 3.1-3 5.4-6.1 5.4H446C444.2 1809.3 442.6 1808.5 441.4 1807.2zM450.6 1760.9c-2 0-3.7 1.5-4 3.5l-4.6 38.3c-.1 1.1.2 2.3 1 3.1.8.9 1.8 1.3 3 1.3h59.1c2 0 3.7-1.5 4-3.5l4.6-38.3c.1-1.1-.2-2.3-1-3.1-.8-.9-1.8-1.3-3-1.3H450.6zM344.1 1803.6c-1.2-1.3-1.7-3.1-1.5-4.8l4.6-38.3c.4-3.1 3-5.4 6.1-5.4h59.1c1.8 0 3.4.8 4.6 2.1 1.2 1.3 1.7 3.1 1.5 4.8l-4.6 38.3c-.4 3.1-3 5.4-6.1 5.4h-59.1C347 1805.7 345.3 1804.9 344.1 1803.6zM353.4 1757.3c-2 0-3.7 1.5-4 3.5l-4.6 38.3c-.1 1.1.2 2.3 1 3.1.8.9 1.8 1.3 3 1.3h59.1c2 0 3.7-1.5 4-3.5l4.6-38.3c.1-1.1-.2-2.3-1-3.1-.8-.9-1.8-1.3-3-1.3H353.4zM246.8 1800c-1.2-1.3-1.7-3.1-1.5-4.8l4.6-38.3c.4-3.1 3-5.4 6.1-5.4h59.1c1.8 0 3.4.8 4.6 2.1 1.2 1.3 1.7 3.1 1.5 4.8l-4.6 38.3c-.4 3.1-3 5.4-6.1 5.4h-59.1C249.7 1802.1 248 1801.4 246.8 1800zM256.1 1753.7c-2 0-3.7 1.5-4 3.5l-4.6 38.3c-.1 1.1.2 2.3 1 3.1.8.9 1.8 1.3 3 1.3h59.1c2 0 3.7-1.5 4-3.5l4.6-38.3c.1-1.1-.2-2.3-1-3.1-.8-.9-1.8-1.3-3-1.3H256.1zM149.6 1796.5c-1.2-1.3-1.7-3.1-1.5-4.8l4.6-38.3c.4-3.1 3-5.4 6.1-5.4h59.1c1.8 0 3.4.8 4.6 2.1 1.2 1.3 1.7 3.1 1.5 4.8l-4.6 38.3c-.4 3.1-3 5.4-6.1 5.4h-59.1C152.4 1798.6 150.8 1797.8 149.6 1796.5zM158.8 1750.2c-2 0-3.7 1.5-4 3.5l-4.6 38.3c-.1 1.1.2 2.3 1 3.1.8.9 1.8 1.3 3 1.3h59.1c2 0 3.7-1.5 4-3.5l4.6-38.3c.1-1.1-.2-2.3-1-3.1-.8-.9-1.8-1.3-3-1.3H158.8z" class="colorbdbdbd svgShape"></path></g><g fill="#000000" class="color000000 svgShape"><path fill="#bdbdbd" d="M624.2 1888.2c-1.2-1.3-1.7-3.1-1.5-4.8l4.6-38.3c.4-3.1 3-5.4 6.1-5.4h59.1c1.8 0 3.4.8 4.6 2.1 1.2 1.3 1.7 3.1 1.5 4.8l-4.6 38.3c-.4 3.1-3 5.4-6.1 5.4h-59.1C627.1 1890.3 625.4 1889.5 624.2 1888.2zM633.5 1841.9c-2 0-3.7 1.5-4 3.5l-4.6 38.3c-.1 1.1.2 2.3 1 3.1.8.9 1.8 1.3 3 1.3h59.1c2 0 3.7-1.5 4-3.5l4.6-38.3c.1-1.1-.2-2.3-1-3.1-.8-.9-1.8-1.3-3-1.3H633.5zM526.9 1884.6c-1.2-1.3-1.7-3.1-1.5-4.8l4.6-38.3c.4-3.1 3-5.4 6.1-5.4h59.1c1.8 0 3.4.8 4.6 2.1 1.2 1.3 1.7 3.1 1.5 4.8l-4.6 38.3c-.4 3.1-3 5.4-6.1 5.4h-59.1C529.8 1886.7 528.1 1885.9 526.9 1884.6zM536.2 1838.3c-2 0-3.7 1.5-4 3.5l-4.6 38.3c-.1 1.1.2 2.3 1 3.1.8.9 1.8 1.3 3 1.3h59.1c2 0 3.7-1.5 4-3.5l4.6-38.3c.1-1.1-.2-2.3-1-3.1-.8-.9-1.8-1.3-3-1.3H536.2zM429.7 1881.1c-1.2-1.3-1.7-3.1-1.5-4.8l4.6-38.3c.4-3.1 3-5.4 6.1-5.4H498c1.8 0 3.4.8 4.6 2.1 1.2 1.3 1.7 3.1 1.5 4.8l-4.6 38.3c-.4 3.1-3 5.4-6.1 5.4h-59.1C432.5 1883.1 430.8 1882.4 429.7 1881.1zM438.9 1834.7c-2 0-3.7 1.5-4 3.5l-4.6 38.3c-.1 1.1.2 2.3 1 3.1.8.9 1.8 1.3 3 1.3h59.1c2 0 3.7-1.5 4-3.5l4.6-38.3c.1-1.1-.2-2.3-1-3.1s-1.8-1.3-3-1.3H438.9zM332.4 1877.5c-1.2-1.3-1.7-3.1-1.5-4.8l4.6-38.3c.4-3.1 3-5.4 6.1-5.4h59.1c1.8 0 3.4.8 4.6 2.1 1.2 1.3 1.7 3.1 1.5 4.8l-4.6 38.3c-.4 3.1-3 5.4-6.1 5.4H337C335.3 1879.6 333.6 1878.8 332.4 1877.5zM341.6 1831.2c-2 0-3.7 1.5-4 3.5l-4.6 38.3c-.1 1.1.2 2.3 1 3.1.8.9 1.8 1.3 3 1.3h59.1c2 0 3.7-1.5 4-3.5l4.6-38.3c.1-1.1-.2-2.3-1-3.1-.8-.9-1.8-1.3-3-1.3H341.6zM235.1 1873.9c-1.2-1.3-1.7-3.1-1.5-4.8l4.6-38.3c.4-3.1 3-5.4 6.1-5.4h59.1c1.8 0 3.4.8 4.6 2.1 1.2 1.3 1.7 3.1 1.5 4.8l-4.6 38.3c-.4 3.1-3 5.4-6.1 5.4h-59.1C238 1876 236.3 1875.2 235.1 1873.9zM244.4 1827.6c-2 0-3.7 1.5-4 3.5l-4.6 38.3c-.1 1.1.2 2.3 1 3.1.8.9 1.8 1.3 3 1.3h59.1c2 0 3.7-1.5 4-3.5l4.6-38.3c.1-1.1-.2-2.3-1-3.1-.8-.9-1.8-1.3-3-1.3H244.4zM137.9 1870.3c-1.2-1.3-1.7-3.1-1.5-4.8l4.6-38.3c.4-3.1 3-5.4 6.1-5.4h59.1c1.8 0 3.4.8 4.6 2.1 1.2 1.3 1.7 3.1 1.5 4.8l-4.6 38.3c-.4 3.1-3 5.4-6.1 5.4h-59.1C140.7 1872.4 139 1871.7 137.9 1870.3zM147.1 1824c-2 0-3.7 1.5-4 3.5l-4.6 38.3c-.1 1.1.2 2.3 1 3.1.8.9 1.8 1.3 3 1.3h59.1c2 0 3.7-1.5 4-3.5l4.6-38.3c.1-1.1-.2-2.3-1-3.1-.8-.9-1.8-1.3-3-1.3H147.1z" class="colorbdbdbd svgShape"></path></g><g fill="#000000" class="color000000 svgShape"><path fill="#bdbdbd" d="M612.5 1962.1c-1.2-1.3-1.7-3.1-1.5-4.8l4.6-38.3c.4-3.1 3-5.4 6.1-5.4h59.1c1.8 0 3.4.8 4.6 2.1 1.2 1.3 1.7 3.1 1.5 4.8l-4.6 38.3c-.4 3.1-3 5.4-6.1 5.4h-59.1C615.4 1964.1 613.7 1963.4 612.5 1962.1zM621.7 1915.7c-2 0-3.7 1.5-4 3.5l-4.6 38.3c-.1 1.1.2 2.3 1 3.1.8.9 1.8 1.3 3 1.3h59.1c2 0 3.7-1.5 4-3.5l4.6-38.3c.1-1.1-.2-2.3-1-3.1-.8-.9-1.8-1.3-3-1.3H621.7zM515.2 1958.5c-1.2-1.3-1.7-3.1-1.5-4.8l4.6-38.3c.4-3.1 3-5.4 6.1-5.4h59.1c1.8 0 3.4.8 4.6 2.1 1.2 1.3 1.7 3.1 1.5 4.8l-4.6 38.3c-.4 3.1-3 5.4-6.1 5.4h-59.1C518.1 1960.6 516.4 1959.8 515.2 1958.5zM524.5 1912.2c-2 0-3.7 1.5-4 3.5l-4.6 38.3c-.1 1.1.2 2.3 1 3.1.8.9 1.8 1.3 3 1.3h59.1c2 0 3.7-1.5 4-3.5l4.6-38.3c.1-1.1-.2-2.3-1-3.1-.8-.9-1.8-1.3-3-1.3H524.5zM418 1954.9c-1.2-1.3-1.7-3.1-1.5-4.8l4.6-38.3c.4-3.1 3-5.4 6.1-5.4h59.1c1.8 0 3.4.8 4.6 2.1 1.2 1.3 1.7 3.1 1.5 4.8l-4.6 38.3c-.4 3.1-3 5.4-6.1 5.4h-59.1C420.8 1957 419.1 1956.2 418 1954.9zM427.2 1908.6c-2 0-3.7 1.5-4 3.5l-4.6 38.3c-.1 1.1.2 2.3 1 3.1.8.9 1.8 1.3 3 1.3h59.1c2 0 3.7-1.5 4-3.5l4.6-38.3c.1-1.1-.2-2.3-1-3.1-.8-.9-1.8-1.3-3-1.3H427.2zM320.7 1951.3c-1.2-1.3-1.7-3.1-1.5-4.8l4.6-38.3c.4-3.1 3-5.4 6.1-5.4H389c1.8 0 3.4.8 4.6 2.1 1.2 1.3 1.7 3.1 1.5 4.8l-4.6 38.3c-.4 3.1-3 5.4-6.1 5.4h-59.1C323.6 1953.4 321.9 1952.7 320.7 1951.3zM329.9 1905c-2 0-3.7 1.5-4 3.5l-4.6 38.3c-.1 1.1.2 2.3 1 3.1.8.9 1.8 1.3 3 1.3h59.1c2 0 3.7-1.5 4-3.5l4.6-38.3c.1-1.1-.2-2.3-1-3.1-.8-.9-1.8-1.3-3-1.3H329.9zM223.4 1947.8c-1.2-1.3-1.7-3.1-1.5-4.8l4.6-38.3c.4-3.1 3-5.4 6.1-5.4h59.1c1.8 0 3.4.8 4.6 2.1 1.2 1.3 1.7 3.1 1.5 4.8l-4.6 38.3c-.4 3.1-3 5.4-6.1 5.4H228C226.3 1949.9 224.6 1949.1 223.4 1947.8zM232.7 1901.5c-2 0-3.7 1.5-4 3.5l-4.6 38.3c-.1 1.1.2 2.3 1 3.1.8.9 1.8 1.3 3 1.3h59.1c2 0 3.7-1.5 4-3.5l4.6-38.3c.1-1.1-.2-2.3-1-3.1-.8-.9-1.8-1.3-3-1.3H232.7zM126.2 1944.2c-1.2-1.3-1.7-3.1-1.5-4.8l4.6-38.3c.4-3.1 3-5.4 6.1-5.4h59.1c1.8 0 3.4.8 4.6 2.1 1.2 1.3 1.7 3.1 1.5 4.8l-4.6 38.3c-.4 3.1-3 5.4-6.1 5.4h-59.1C129 1946.3 127.3 1945.5 126.2 1944.2zM135.4 1897.9c-2 0-3.7 1.5-4 3.5l-4.6 38.3c-.1 1.1.2 2.3 1 3.1.8.9 1.8 1.3 3 1.3h59.1c2 0 3.7-1.5 4-3.5l4.6-38.3c.1-1.1-.2-2.3-1-3.1-.8-.9-1.8-1.3-3-1.3H135.4z" class="colorbdbdbd svgShape"></path></g><g fill="#000000" class="color000000 svgShape"><path fill="#bdbdbd" d="M600.8 2035.9c-1.2-1.3-1.7-3.1-1.5-4.8l4.6-38.3c.4-3.1 3-5.4 6.1-5.4h59.1c1.8 0 3.4.8 4.6 2.1 1.2 1.3 1.7 3.1 1.5 4.8l-4.6 38.3c-.4 3.1-3 5.4-6.1 5.4h-59.1C603.7 2038 602 2037.2 600.8 2035.9zM610 1989.6c-2 0-3.7 1.5-4 3.5l-4.6 38.3c-.1 1.1.2 2.3 1 3.1s1.8 1.3 3 1.3h59.1c2 0 3.7-1.5 4-3.5l4.6-38.3c.1-1.1-.2-2.3-1-3.1-.8-.9-1.8-1.3-3-1.3H610zM503.5 2032.4c-1.2-1.3-1.7-3.1-1.5-4.8l4.6-38.3c.4-3.1 3-5.4 6.1-5.4h59.1c1.8 0 3.4.8 4.6 2.1 1.2 1.3 1.7 3.1 1.5 4.8l-4.6 38.3c-.4 3.1-3 5.4-6.1 5.4h-59.1C506.4 2034.4 504.7 2033.7 503.5 2032.4zM512.8 1986c-2 0-3.7 1.5-4 3.5l-4.6 38.3c-.1 1.1.2 2.3 1 3.1.8.9 1.8 1.3 3 1.3h59.1c2 0 3.7-1.5 4-3.5l4.6-38.3c.1-1.1-.2-2.3-1-3.1-.8-.9-1.8-1.3-3-1.3H512.8zM406.3 2028.8c-1.2-1.3-1.7-3.1-1.5-4.8l4.6-38.3c.4-3.1 3-5.4 6.1-5.4h59.1c1.8 0 3.4.8 4.6 2.1 1.2 1.3 1.7 3.1 1.5 4.8l-4.6 38.3c-.4 3.1-3 5.4-6.1 5.4h-59.1C409.1 2030.9 407.4 2030.1 406.3 2028.8zM415.5 1982.5c-2 0-3.7 1.5-4 3.5l-4.6 38.3c-.1 1.1.2 2.3 1 3.1.8.9 1.8 1.3 3 1.3H470c2 0 3.7-1.5 4-3.5l4.6-38.3c.1-1.1-.2-2.3-1-3.1-.8-.9-1.8-1.3-3-1.3H415.5zM309 2025.2c-1.2-1.3-1.7-3.1-1.5-4.8l4.6-38.3c.4-3.1 3-5.4 6.1-5.4h59.1c1.8 0 3.4.8 4.6 2.1 1.2 1.3 1.7 3.1 1.5 4.8l-4.6 38.3c-.4 3.1-3 5.4-6.1 5.4h-59.1C311.8 2027.3 310.2 2026.5 309 2025.2zM318.2 1978.9c-2 0-3.7 1.5-4 3.5l-4.6 38.3c-.1 1.1.2 2.3 1 3.1.8.9 1.8 1.3 3 1.3h59.1c2 0 3.7-1.5 4-3.5l4.6-38.3c.1-1.1-.2-2.3-1-3.1-.8-.9-1.8-1.3-3-1.3H318.2z" class="colorbdbdbd svgShape"></path><path fill="#2654ff" d="M221,1975.3c-2,0-3.7,1.5-4,3.5l-4.6,38.3c-0.1,1.1,0.2,2.3,1,3.1c0.8,0.9,1.8,1.3,3,1.3h59.1
									c2,0,3.7-1.5,4-3.5l4.6-38.3c0.1-1.1-0.2-2.3-1-3.1c-0.8-0.9-1.8-1.3-3-1.3H221z" class="colorffa726 svgShape"></path><path fill="#bdbdbd" d="M211.7,2021.7c1.2,1.3,2.8,2.1,4.6,2.1h59.1c3.1,0,5.7-2.3,6.1-5.4l4.6-38.2c0.2-1.7-0.3-3.5-1.5-4.8
									c-1.2-1.3-2.9-2.1-4.6-2.1H221c-3.1,0-5.7,2.3-6.1,5.4l-4.6,38.3C210,2018.6,210.5,2020.3,211.7,2021.7z" class="colorbdbdbd svgShape"></path><g fill="#000000" class="color000000 svgShape"><path fill="#2654ff" d="M123.7,1971.7c-2,0-3.7,1.5-4,3.5l-4.6,38.3c-0.1,1.1,0.2,2.3,1,3.1c0.8,0.9,1.8,1.3,3,1.3h59.1
									c2,0,3.7-1.5,4-3.5l4.6-38.3c0.1-1.1-0.2-2.3-1-3.1c-0.8-0.9-1.8-1.3-3-1.3H123.7z" class="colorffa726 svgShape"></path><path fill="#bdbdbd" d="M114.5,2018.1c1.2,1.3,2.8,2.1,4.6,2.1h59.1c3.1,0,5.7-2.3,6.1-5.4l4.6-38.3c0.2-1.7-0.3-3.5-1.5-4.8
									c-1.2-1.3-2.9-2.1-4.6-2.1h-59.1c-3.1,0-5.7,2.3-6.1,5.4l-4.6,38.2C112.7,2015,113.3,2016.8,114.5,2018.1z" class="colorbdbdbd svgShape"></path></g></g></g><path fill="#0575e6" d="M188.5,1787.6c80.8,50.8,113.5,71.2,187.5,130.9L336,1926c103.2-183.9,276.4-319.8,468.2-401.1
				c-151.4,128.9-311.8,258.6-422.2,425c0,0-18.1,28.4-18.1,28.4C287.5,1905.9,255.6,1869,188.5,1787.6L188.5,1787.6z" class="color1e88e5 svgShape"></path><g fill="#000000" class="color000000 svgShape"><ellipse cx="1237.2" cy="1687.7" fill="#e0e0e0" rx="417" ry="89.1" class="colore0e0e0 svgShape"></ellipse><polygon fill="#bdbdbd" points="1595.5 1694.2 1636.6 1694.2 1559.2 1189.4 1496.6 1479.9 1509.2 1586.7" class="colorbdbdbd svgShape"></polygon><polygon fill="#f5f5f5" points="1547.7 1701.5 1615.4 1705.5 1559.2 1189.4 1503.3 1539" class="colorf5f5f5 svgShape"></polygon><polygon fill="#bdbdbd" points="1549.2 1709.7 1590.4 1709.7 1559.2 1189.4 1450.3 1495.3 1463 1602.2" class="colorbdbdbd svgShape"></polygon><polygon fill="#e0e0e0" points="1501.4 1717 1569.1 1720.9 1559.2 1189.4 1457 1554.4" class="colore0e0e0 svgShape"></polygon><g fill="#000000" class="color000000 svgShape"><polygon fill="#f5f5f5" points="1559.2 1237.9 1525.3 1731.6 854.4 1694.4 933.4 1237.9" class="colorf5f5f5 svgShape"></polygon><polygon fill="#e0e0e0" points="1559.2 1237.9 1559.2 1189.4 933.4 1186.1 933.4 1237.9" class="colore0e0e0 svgShape"></polygon><path fill="#e0e0e0" d="M1483.7 1189v.4c0 17.4 9.7 31.5 21.6 31.5v-4.4c-9.5 0-17.2-12.2-17.2-27.2v-.4L1483.7 1189zM1436.7 1188.8v.7c0 17.4 9.7 31.5 21.6 31.5v-4.4c-9.5 0-17.2-12.2-17.2-27.2v-.6L1436.7 1188.8zM1389.6 1189.4c0 17.4 9.7 31.5 21.6 31.5v-4.4c-9.5 0-17.2-12.2-17.2-27.2 0-.3 0-.6 0-.9l-4.4 0C1389.6 1188.8 1389.6 1189.1 1389.6 1189.4zM1342.5 1189.4c0 17.4 9.7 31.5 21.6 31.5v-4.4c-9.5 0-17.2-12.2-17.2-27.2 0-.4 0-.8 0-1.1l-4.4 0C1342.5 1188.6 1342.5 1189 1342.5 1189.4zM1295.5 1189.4c0 17.4 9.7 31.5 21.6 31.5v-4.4c-9.5 0-17.2-12.2-17.2-27.2 0-.5 0-.9 0-1.4l-4.4 0C1295.5 1188.5 1295.5 1188.9 1295.5 1189.4zM1248.4 1189.4c0 17.4 9.7 31.5 21.6 31.5v-4.4c-9.5 0-17.2-12.2-17.2-27.2 0-.5 0-1.1 0-1.6l-4.4 0C1248.4 1188.3 1248.4 1188.9 1248.4 1189.4zM1201.4 1189.4c0 17.4 9.7 31.5 21.6 31.5v-4.4c-9.5 0-17.2-12.2-17.2-27.2 0-.6 0-1.3 0-1.9l-4.4 0C1201.4 1188.1 1201.4 1188.8 1201.4 1189.4zM1154.3 1189.4c0 17.4 9.7 31.5 21.6 31.5v-4.4c-9.5 0-17.2-12.2-17.2-27.2 0-.7 0-1.4.1-2.1l-4.4 0C1154.3 1188 1154.3 1188.7 1154.3 1189.4zM1107.2 1189.4c0 17.4 9.7 31.5 21.6 31.5v-4.4c-9.5 0-17.2-12.2-17.2-27.2 0-.8 0-1.6.1-2.4l-4.4 0C1107.3 1187.8 1107.2 1188.6 1107.2 1189.4zM1060.2 1189.4c0 17.4 9.7 31.5 21.6 31.5v-4.4c-9.5 0-17.2-12.2-17.2-27.2 0-.9 0-1.8.1-2.6l-4.4 0C1060.2 1187.6 1060.2 1188.5 1060.2 1189.4zM1013.1 1189.4c0 17.4 9.7 31.5 21.6 31.5v-4.4c-9.5 0-17.2-12.2-17.2-27.2 0-1 0-1.9.1-2.9l-4.4 0C1013.1 1187.5 1013.1 1188.4 1013.1 1189.4zM966 1189.4c0 17.4 9.7 31.5 21.6 31.5v-4.4c-9.5 0-17.2-12.2-17.2-27.2 0-1 0-2.1.1-3.1l-4.4 0C966.1 1187.3 966 1188.3 966 1189.4z" class="colore0e0e0 svgShape"></path></g><g fill="#000000" class="color000000 svgShape"><path fill="#404042" d="M966 1189.4c0 17.4 9.7 31.5 21.6 31.5v-4.4c-9.5 0-17.2-12.2-17.2-27.2 0-1 0-2.1.1-3.1 1-13.5 8.3-24.1 17.1-24.1 8.9 0 16.2 10.6 17.1 24.2l4.4 0c-1-16.1-10.3-28.6-21.5-28.6-11.2 0-20.4 12.5-21.5 28.4C966.1 1187.3 966 1188.3 966 1189.4zM1013.1 1189.4c0 17.4 9.7 31.5 21.6 31.5v-4.4c-9.5 0-17.2-12.2-17.2-27.2 0-1 0-1.9.1-2.9.9-13.6 8.2-24.3 17.1-24.3 8.9 0 16.3 10.8 17.1 24.5l4.4 0c-.9-16.2-10.2-28.9-21.5-28.9-11.2 0-20.5 12.6-21.5 28.7C1013.1 1187.5 1013.1 1188.4 1013.1 1189.4zM1060.2 1189.4c0 17.4 9.7 31.5 21.6 31.5v-4.4c-9.5 0-17.2-12.2-17.2-27.2 0-.9 0-1.8.1-2.6.8-13.8 8.2-24.6 17.1-24.6 9 0 16.4 10.9 17.1 24.7l4.4 0c-.9-16.3-10.2-29.1-21.5-29.1-11.3 0-20.6 12.7-21.5 28.9C1060.2 1187.6 1060.2 1188.5 1060.2 1189.4zM1107.2 1189.4c0 17.4 9.7 31.5 21.6 31.5v-4.4c-9.5 0-17.2-12.2-17.2-27.2 0-.8 0-1.6.1-2.4.8-13.9 8.1-24.8 17.1-24.8 9 0 16.5 11 17.2 25l4.4 0c-.8-16.4-10.2-29.4-21.6-29.4-11.4 0-20.7 12.9-21.5 29.2C1107.3 1187.8 1107.2 1188.6 1107.2 1189.4zM1154.3 1189.4c0 17.4 9.7 31.5 21.6 31.5v-4.4c-9.5 0-17.2-12.2-17.2-27.2 0-.7 0-1.4.1-2.1.7-14 8.1-25.1 17.2-25.1 9.1 0 16.5 11.2 17.2 25.3l4.4 0c-.7-16.5-10.1-29.6-21.5-29.6-11.4 0-20.8 13-21.6 29.4C1154.3 1188 1154.3 1188.7 1154.3 1189.4zM1201.4 1189.4c0 17.4 9.7 31.5 21.6 31.5v-4.4c-9.5 0-17.2-12.2-17.2-27.2 0-.6 0-1.3 0-1.9.6-14.1 8.1-25.3 17.2-25.3 9.2 0 16.6 11.3 17.2 25.5l4.4 0c-.6-16.6-10-29.9-21.6-29.9-11.5 0-20.9 13.1-21.5 29.7C1201.4 1188.1 1201.4 1188.8 1201.4 1189.4zM1248.4 1189.4c0 17.4 9.7 31.5 21.6 31.5v-4.4c-9.5 0-17.2-12.2-17.2-27.2 0-.5 0-1.1 0-1.6.5-14.2 8.1-25.6 17.2-25.6 9.2 0 16.7 11.4 17.2 25.8l4.4 0c-.5-16.8-10-30.1-21.6-30.1-11.5 0-21 13.3-21.6 29.9C1248.4 1188.3 1248.4 1188.9 1248.4 1189.4zM1295.5 1189.4c0 17.4 9.7 31.5 21.6 31.5v-4.4c-9.5 0-17.2-12.2-17.2-27.2 0-.5 0-.9 0-1.4.5-14.4 8-25.8 17.2-25.8 9.2 0 16.8 11.6 17.2 26l4.4 0c-.4-16.9-9.9-30.4-21.6-30.4-11.6 0-21.1 13.4-21.6 30.2C1295.5 1188.5 1295.5 1188.9 1295.5 1189.4zM1342.5 1189.4c0 17.4 9.7 31.5 21.6 31.5v-4.4c-9.5 0-17.2-12.2-17.2-27.2 0-.4 0-.8 0-1.1.4-14.5 8-26.1 17.2-26.1 9.3 0 16.9 11.7 17.2 26.3l4.4 0c-.3-17-9.9-30.6-21.6-30.6-11.7 0-21.2 13.5-21.6 30.4C1342.5 1188.6 1342.5 1189 1342.5 1189.4zM1389.6 1189.4c0 17.4 9.7 31.5 21.6 31.5v-4.4c-9.5 0-17.2-12.2-17.2-27.2 0-.3 0-.6 0-.9.3-14.6 7.9-26.3 17.2-26.3 9.3 0 17 11.8 17.2 26.5l4.4 0c-.3-17.1-9.9-30.9-21.6-30.9-11.7 0-21.3 13.7-21.6 30.7C1389.6 1188.8 1389.6 1189.1 1389.6 1189.4zM1436.7 1188.8v.7c0 17.4 9.7 31.5 21.6 31.5v-4.4c-9.5 0-17.2-12.2-17.2-27.2v-.6c.2-14.7 7.9-26.6 17.2-26.6 9.4 0 17.1 12 17.2 26.8l4.4 0c-.2-17.2-9.8-31.1-21.6-31.1C1446.5 1157.9 1436.9 1171.7 1436.7 1188.8zM1483.7 1189v.4c0 17.4 9.7 31.5 21.6 31.5v-4.4c-9.5 0-17.2-12.2-17.2-27.2v-.4c.1-14.8 7.8-26.8 17.2-26.8 9.5 0 17.2 12.1 17.2 27l4.4 0c-.1-17.3-9.7-31.4-21.6-31.4C1493.5 1157.9 1483.9 1171.8 1483.7 1189z" class="color414042 svgShape"></path></g><g fill="#000000" class="color000000 svgShape"><path fill="#bdbdbd" d="M1442.8,1366c-1.2-1.3-1.7-3.1-1.5-4.8l4.6-38.3c0.4-3.1,3-5.4,6.1-5.4h59.1c1.8,0,3.4,0.8,4.6,2.1
									c1.2,1.3,1.7,3.1,1.5,4.8l-4.6,38.3c-0.4,3.1-3,5.4-6.1,5.4h-59.1C1445.7,1368,1444,1367.3,1442.8,1366z" class="colorbdbdbd svgShape"></path><path fill="#bdbdbd" d="M1444.5 1364.5c.7.9 1.8 1.3 3 1.3h59.1c2 0 3.7-1.5 4-3.5l4.6-38.3c.2-1.1-.2-2.3-1-3.1-.8-.9-1.8-1.3-3-1.3h-59.1c-2 0-3.7 1.5-4 3.5l-4.6 38.3C1443.4 1362.5 1443.7 1363.7 1444.5 1364.5zM1345.6 1362.4c-1.2-1.3-1.7-3.1-1.5-4.8l4.6-38.3c.4-3.1 3-5.4 6.1-5.4h59.1c1.8 0 3.4.8 4.6 2.1 1.2 1.3 1.7 3.1 1.5 4.8l-4.6 38.3c-.4 3.1-3 5.4-6.1 5.4h-59.1C1348.4 1364.5 1346.7 1363.7 1345.6 1362.4z" class="colorbdbdbd svgShape"></path><path fill="#bdbdbd" d="M1347.2 1360.9c.7.9 1.8 1.3 3 1.3h59.1c2 0 3.7-1.5 4-3.5l4.6-38.2c.2-1.1-.2-2.3-1-3.1-.8-.9-1.8-1.3-3-1.3h-59.1c-2 0-3.7 1.5-4 3.5l-4.6 38.2C1346.1 1358.9 1346.4 1360.1 1347.2 1360.9zM1248.3 1358.8c-1.2-1.3-1.7-3.1-1.5-4.8l4.6-38.3c.4-3.1 3-5.4 6.1-5.4h59.1c1.8 0 3.4.8 4.6 2.1 1.2 1.3 1.7 3.1 1.5 4.8l-4.6 38.3c-.4 3.1-3 5.4-6.1 5.4h-59.1C1251.2 1360.9 1249.5 1360.1 1248.3 1358.8zM1257.5 1312.5c-2 0-3.7 1.5-4 3.5l-4.6 38.3c-.1 1.1.2 2.3 1 3.1.8.9 1.8 1.3 3 1.3h59.1c2 0 3.7-1.5 4-3.5l4.6-38.3c.1-1.1-.2-2.3-1-3.1-.8-.9-1.8-1.3-3-1.3H1257.5zM1151 1355.2c-1.2-1.3-1.7-3.1-1.5-4.8l4.6-38.3c.4-3.1 3-5.4 6.1-5.4h59.1c1.8 0 3.4.8 4.6 2.1 1.2 1.3 1.7 3.1 1.5 4.8l-4.6 38.3c-.4 3.1-3 5.4-6.1 5.4h-59.1C1153.9 1357.3 1152.2 1356.6 1151 1355.2zM1160.3 1308.9c-2 0-3.7 1.5-4 3.5l-4.6 38.3c-.1 1.1.2 2.3 1 3.1.8.9 1.8 1.3 3 1.3h59.1c2 0 3.7-1.5 4-3.5l4.6-38.3c.1-1.1-.2-2.3-1-3.1-.8-.9-1.8-1.3-3-1.3H1160.3z" class="colorbdbdbd svgShape"></path><g fill="#000000" class="color000000 svgShape"><path fill="#bdbdbd" d="M1053.8,1351.7c-1.2-1.3-1.7-3.1-1.5-4.8l4.6-38.3c0.4-3.1,3-5.4,6.1-5.4h59.1c1.8,0,3.4,0.8,4.6,2.1
									c1.2,1.3,1.7,3.1,1.5,4.8l-4.6,38.3c-0.4,3.1-3,5.4-6.1,5.4h-59.1C1056.6,1353.7,1054.9,1353,1053.8,1351.7z M1063,1305.3
									c-2,0-3.7,1.5-4,3.5l-4.6,38.3c-0.1,1.1,0.2,2.3,1,3.1c0.8,0.9,1.8,1.3,3,1.3h59.1c2,0,3.7-1.5,4-3.5l4.6-38.3
									c0.1-1.1-0.2-2.3-1-3.1c-0.8-0.9-1.8-1.3-3-1.3H1063z" class="colorbdbdbd svgShape"></path></g><g fill="#000000" class="color000000 svgShape"><path fill="#bdbdbd" d="M956.5,1348.1c-1.2-1.3-1.7-3.1-1.5-4.8l4.6-38.3c0.4-3.1,3-5.4,6.1-5.4h59.1c1.8,0,3.4,0.8,4.6,2.1
									c1.2,1.3,1.7,3.1,1.5,4.8l-4.6,38.3c-0.4,3.1-3,5.4-6.1,5.4h-59.1C959.3,1350.2,957.7,1349.4,956.5,1348.1z M965.7,1301.8
									c-2,0-3.7,1.5-4,3.5l-4.6,38.3c-0.1,1.1,0.2,2.3,1,3.1s1.8,1.3,3,1.3h59.1c2,0,3.7-1.5,4-3.5l4.6-38.3
									c0.1-1.1-0.2-2.3-1-3.1c-0.8-0.9-1.8-1.3-3-1.3H965.7z" class="colorbdbdbd svgShape"></path></g><g fill="#000000" class="color000000 svgShape"><path fill="#bdbdbd" d="M1431.1 1439.8c-1.2-1.3-1.7-3.1-1.5-4.8l4.6-38.3c.4-3.1 3-5.4 6.1-5.4h59.1c1.8 0 3.4.8 4.6 2.1 1.2 1.3 1.7 3.1 1.5 4.8l-4.6 38.3c-.4 3.1-3 5.4-6.1 5.4h-59.1C1434 1441.9 1432.3 1441.1 1431.1 1439.8zM1440.4 1393.5c-2 0-3.7 1.5-4 3.5l-4.6 38.3c-.1 1.1.2 2.3 1 3.1.8.9 1.8 1.3 3 1.3h59.1c2 0 3.7-1.5 4-3.5l4.6-38.3c.1-1.1-.2-2.3-1-3.1-.8-.9-1.8-1.3-3-1.3H1440.4zM1333.9 1436.2c-1.2-1.3-1.7-3.1-1.5-4.8l4.6-38.3c.4-3.1 3-5.4 6.1-5.4h59.1c1.8 0 3.4.8 4.6 2.1 1.2 1.3 1.7 3.1 1.5 4.8l-4.6 38.3c-.4 3.1-3 5.4-6.1 5.4h-59.1C1336.7 1438.3 1335 1437.6 1333.9 1436.2zM1343.1 1389.9c-2 0-3.7 1.5-4 3.5l-4.6 38.3c-.1 1.1.2 2.3 1 3.1.8.9 1.8 1.3 3 1.3h59.1c2 0 3.7-1.5 4-3.5l4.6-38.3c.1-1.1-.2-2.3-1-3.1-.8-.9-1.8-1.3-3-1.3H1343.1zM1236.6 1432.7c-1.2-1.3-1.7-3.1-1.5-4.8l4.6-38.3c.4-3.1 3-5.4 6.1-5.4h59.1c1.8 0 3.4.8 4.6 2.1 1.2 1.3 1.7 3.1 1.5 4.8l-4.6 38.3c-.4 3.1-3 5.4-6.1 5.4h-59.1C1239.4 1434.8 1237.8 1434 1236.6 1432.7zM1245.8 1386.4c-2 0-3.7 1.5-4 3.5l-4.6 38.3c-.1 1.1.2 2.3 1 3.1.8.9 1.8 1.3 3 1.3h59.1c2 0 3.7-1.5 4-3.5l4.6-38.3c.1-1.1-.2-2.3-1-3.1-.8-.9-1.8-1.3-3-1.3H1245.8zM1139.3 1429.1c-1.2-1.3-1.7-3.1-1.5-4.8l4.6-38.3c.4-3.1 3-5.4 6.1-5.4h59.1c1.8 0 3.4.8 4.6 2.1 1.2 1.3 1.7 3.1 1.5 4.8l-4.6 38.3c-.4 3.1-3 5.4-6.1 5.4h-59.1C1142.2 1431.2 1140.5 1430.4 1139.3 1429.1zM1148.6 1382.8c-2 0-3.7 1.5-4 3.5l-4.6 38.3c-.1 1.1.2 2.3 1 3.1.8.9 1.8 1.3 3 1.3h59.1c2 0 3.7-1.5 4-3.5l4.6-38.3c.1-1.1-.2-2.3-1-3.1-.8-.9-1.8-1.3-3-1.3H1148.6zM1042.1 1425.5c-1.2-1.3-1.7-3.1-1.5-4.8l4.6-38.3c.4-3.1 3-5.4 6.1-5.4h59.1c1.8 0 3.4.8 4.6 2.1 1.2 1.3 1.7 3.1 1.5 4.8l-4.6 38.3c-.4 3.1-3 5.4-6.1 5.4h-59.1C1044.9 1427.6 1043.2 1426.9 1042.1 1425.5zM1051.3 1379.2c-2 0-3.7 1.5-4 3.5l-4.6 38.3c-.1 1.1.2 2.3 1 3.1.8.9 1.8 1.3 3 1.3h59.1c2 0 3.7-1.5 4-3.5l4.6-38.3c.1-1.1-.2-2.3-1-3.1-.8-.9-1.8-1.3-3-1.3H1051.3zM944.8 1422c-1.2-1.3-1.7-3.1-1.5-4.8l4.6-38.3c.4-3.1 3-5.4 6.1-5.4h59.1c1.8 0 3.4.8 4.6 2.1 1.2 1.3 1.7 3.1 1.5 4.8l-4.6 38.3c-.4 3.1-3 5.4-6.1 5.4h-59.1C947.6 1424 946 1423.3 944.8 1422zM954 1375.6c-2 0-3.7 1.5-4 3.5l-4.6 38.3c-.1 1.1.2 2.3 1 3.1.8.9 1.8 1.3 3 1.3h59.1c2 0 3.7-1.5 4-3.5l4.6-38.3c.1-1.1-.2-2.3-1-3.1-.8-.9-1.8-1.3-3-1.3H954z" class="colorbdbdbd svgShape"></path></g><g fill="#000000" class="color000000 svgShape"><path fill="#bdbdbd" d="M1419.4 1513.7c-1.2-1.3-1.7-3.1-1.5-4.8l4.6-38.3c.4-3.1 3-5.4 6.1-5.4h59.1c1.8 0 3.4.8 4.6 2.1 1.2 1.3 1.7 3.1 1.5 4.8l-4.6 38.3c-.4 3.1-3 5.4-6.1 5.4H1424C1422.3 1515.8 1420.6 1515 1419.4 1513.7zM1428.7 1467.4c-2 0-3.7 1.5-4 3.5l-4.6 38.3c-.1 1.1.2 2.3 1 3.1.8.9 1.8 1.3 3 1.3h59.1c2 0 3.7-1.5 4-3.5l4.6-38.3c.1-1.1-.2-2.3-1-3.1-.8-.9-1.8-1.3-3-1.3H1428.7zM1322.2 1510.1c-1.2-1.3-1.7-3.1-1.5-4.8l4.6-38.3c.4-3.1 3-5.4 6.1-5.4h59.1c1.8 0 3.4.8 4.6 2.1 1.2 1.3 1.7 3.1 1.5 4.8l-4.6 38.3c-.4 3.1-3 5.4-6.1 5.4h-59.1C1325 1512.2 1323.3 1511.4 1322.2 1510.1zM1331.4 1463.8c-2 0-3.7 1.5-4 3.5l-4.6 38.3c-.1 1.1.2 2.3 1 3.1.8.9 1.8 1.3 3 1.3h59.1c2 0 3.7-1.5 4-3.5l4.6-38.3c.1-1.1-.2-2.3-1-3.1-.8-.9-1.8-1.3-3-1.3H1331.4zM1224.9 1506.5c-1.2-1.3-1.7-3.1-1.5-4.8l4.6-38.3c.4-3.1 3-5.4 6.1-5.4h59.1c1.8 0 3.4.8 4.6 2.1 1.2 1.3 1.7 3.1 1.5 4.8l-4.6 38.3c-.4 3.1-3 5.4-6.1 5.4h-59.1C1227.7 1508.6 1226.1 1507.9 1224.9 1506.5zM1234.1 1460.2c-2 0-3.7 1.5-4 3.5l-4.6 38.3c-.1 1.1.2 2.3 1 3.1.8.9 1.8 1.3 3 1.3h59.1c2 0 3.7-1.5 4-3.5l4.6-38.3c.1-1.1-.2-2.3-1-3.1-.8-.9-1.8-1.3-3-1.3H1234.1zM1127.6 1503c-1.2-1.3-1.7-3.1-1.5-4.8l4.6-38.3c.4-3.1 3-5.4 6.1-5.4h59.1c1.8 0 3.4.8 4.6 2.1 1.2 1.3 1.7 3.1 1.5 4.8l-4.6 38.3c-.4 3.1-3 5.4-6.1 5.4h-59.1C1130.5 1505 1128.8 1504.3 1127.6 1503zM1136.9 1456.6c-2 0-3.7 1.5-4 3.5l-4.6 38.3c-.1 1.1.2 2.3 1 3.1.8.9 1.8 1.3 3 1.3h59.1c2 0 3.7-1.5 4-3.5l4.6-38.3c.1-1.1-.2-2.3-1-3.1-.8-.9-1.8-1.3-3-1.3H1136.9zM1030.3 1499.4c-1.2-1.3-1.7-3.1-1.5-4.8l4.6-38.3c.4-3.1 3-5.4 6.1-5.4h59.1c1.8 0 3.4.8 4.6 2.1 1.2 1.3 1.7 3.1 1.5 4.8l-4.6 38.3c-.4 3.1-3 5.4-6.1 5.4H1035C1033.2 1501.5 1031.5 1500.7 1030.3 1499.4zM1039.6 1453.1c-2 0-3.7 1.5-4 3.5l-4.6 38.3c-.1 1.1.2 2.3 1 3.1.8.9 1.8 1.3 3 1.3h59.1c2 0 3.7-1.5 4-3.5l4.6-38.3c.1-1.1-.2-2.3-1-3.1-.8-.9-1.8-1.3-3-1.3H1039.6zM933.1 1495.8c-1.2-1.3-1.7-3.1-1.5-4.8l4.6-38.3c.4-3.1 3-5.4 6.1-5.4h59.1c1.8 0 3.4.8 4.6 2.1 1.2 1.3 1.7 3.1 1.5 4.8l-4.6 38.3c-.4 3.1-3 5.4-6.1 5.4h-59.1C935.9 1497.9 934.3 1497.2 933.1 1495.8zM942.3 1449.5c-2 0-3.7 1.5-4 3.5l-4.6 38.3c-.1 1.1.2 2.3 1 3.1.8.9 1.8 1.3 3 1.3h59.1c2 0 3.7-1.5 4-3.5l4.6-38.3c.1-1.1-.2-2.3-1-3.1-.8-.9-1.8-1.3-3-1.3H942.3z" class="colorbdbdbd svgShape"></path></g><g fill="#000000" class="color000000 svgShape"><path fill="#bdbdbd" d="M1407.7 1587.6c-1.2-1.3-1.7-3.1-1.5-4.8l4.6-38.3c.4-3.1 3-5.4 6.1-5.4h59.1c1.8 0 3.4.8 4.6 2.1 1.2 1.3 1.7 3.1 1.5 4.8l-4.6 38.3c-.4 3.1-3 5.4-6.1 5.4h-59.1C1410.6 1589.6 1408.9 1588.9 1407.7 1587.6zM1417 1541.2c-2 0-3.7 1.5-4 3.5l-4.6 38.3c-.1 1.1.2 2.3 1 3.1.8.9 1.8 1.3 3 1.3h59.1c2 0 3.7-1.5 4-3.5l4.6-38.3c.1-1.1-.2-2.3-1-3.1-.8-.9-1.8-1.3-3-1.3H1417zM1310.4 1584c-1.2-1.3-1.7-3.1-1.5-4.8l4.6-38.3c.4-3.1 3-5.4 6.1-5.4h59.1c1.8 0 3.4.8 4.6 2.1 1.2 1.3 1.7 3.1 1.5 4.8l-4.6 38.3c-.4 3.1-3 5.4-6.1 5.4h-59.1C1313.3 1586.1 1311.6 1585.3 1310.4 1584zM1319.7 1537.7c-2 0-3.7 1.5-4 3.5l-4.6 38.3c-.1 1.1.2 2.3 1 3.1.8.9 1.8 1.3 3 1.3h59.1c2 0 3.7-1.5 4-3.5l4.6-38.3c.1-1.1-.2-2.3-1-3.1-.8-.9-1.8-1.3-3-1.3H1319.7zM1213.2 1580.4c-1.2-1.3-1.7-3.1-1.5-4.8l4.6-38.3c.4-3.1 3-5.4 6.1-5.4h59.1c1.8 0 3.4.8 4.6 2.1 1.2 1.3 1.7 3.1 1.5 4.8l-4.6 38.3c-.4 3.1-3 5.4-6.1 5.4h-59.1C1216 1582.5 1214.3 1581.7 1213.2 1580.4zM1222.4 1534.1c-2 0-3.7 1.5-4 3.5l-4.6 38.3c-.1 1.1.2 2.3 1 3.1.8.9 1.8 1.3 3 1.3h59.1c2 0 3.7-1.5 4-3.5l4.6-38.3c.1-1.1-.2-2.3-1-3.1-.8-.9-1.8-1.3-3-1.3H1222.4zM1115.9 1576.8c-1.2-1.3-1.7-3.1-1.5-4.8l4.6-38.3c.4-3.1 3-5.4 6.1-5.4h59.1c1.8 0 3.4.8 4.6 2.1 1.2 1.3 1.7 3.1 1.5 4.8l-4.6 38.3c-.4 3.1-3 5.4-6.1 5.4h-59.1C1118.8 1578.9 1117.1 1578.2 1115.9 1576.8zM1125.1 1530.5c-2 0-3.7 1.5-4 3.5l-4.6 38.3c-.1 1.1.2 2.3 1 3.1.8.9 1.8 1.3 3 1.3h59.1c2 0 3.7-1.5 4-3.5l4.6-38.3c.1-1.1-.2-2.3-1-3.1-.8-.9-1.8-1.3-3-1.3H1125.1zM1018.6 1573.3c-1.2-1.3-1.7-3.1-1.5-4.8l4.6-38.3c.4-3.1 3-5.4 6.1-5.4h59.1c1.8 0 3.4.8 4.6 2.1 1.2 1.3 1.7 3.1 1.5 4.8l-4.6 38.3c-.4 3.1-3 5.4-6.1 5.4h-59.1C1021.5 1575.3 1019.8 1574.6 1018.6 1573.3zM1027.9 1526.9c-2 0-3.7 1.5-4 3.5l-4.6 38.3c-.1 1.1.2 2.3 1 3.1.8.9 1.8 1.3 3 1.3h59.1c2 0 3.7-1.5 4-3.5l4.6-38.3c.1-1.1-.2-2.3-1-3.1-.8-.9-1.8-1.3-3-1.3H1027.9zM921.4 1569.7c-1.2-1.3-1.7-3.1-1.5-4.8l4.6-38.3c.4-3.1 3-5.4 6.1-5.4h59.1c1.8 0 3.4.8 4.6 2.1 1.2 1.3 1.7 3.1 1.5 4.8l-4.6 38.3c-.4 3.1-3 5.4-6.1 5.4H926C924.2 1571.8 922.5 1571 921.4 1569.7zM930.6 1523.4c-2 0-3.7 1.5-4 3.5l-4.6 38.3c-.1 1.1.2 2.3 1 3.1.8.9 1.8 1.3 3 1.3h59.1c2 0 3.7-1.5 4-3.5l4.6-38.3c.1-1.1-.2-2.3-1-3.1-.8-.9-1.8-1.3-3-1.3H930.6z" class="colorbdbdbd svgShape"></path></g><g fill="#000000" class="color000000 svgShape"><path fill="#bdbdbd" d="M1396 1661.4c-1.2-1.3-1.7-3.1-1.5-4.8l4.6-38.3c.4-3.1 3-5.4 6.1-5.4h59.1c1.8 0 3.4.8 4.6 2.1 1.2 1.3 1.7 3.1 1.5 4.8l-4.6 38.3c-.4 3.1-3 5.4-6.1 5.4h-59.1C1398.9 1663.5 1397.2 1662.7 1396 1661.4zM1405.2 1615.1c-2 0-3.7 1.5-4 3.5l-4.6 38.3c-.1 1.1.2 2.3 1 3.1.8.9 1.8 1.3 3 1.3h59.1c2 0 3.7-1.5 4-3.5l4.6-38.3c.1-1.1-.2-2.3-1-3.1-.8-.9-1.8-1.3-3-1.3H1405.2zM1298.7 1657.8c-1.2-1.3-1.7-3.1-1.5-4.8l4.6-38.3c.4-3.1 3-5.4 6.1-5.4h59.1c1.8 0 3.4.8 4.6 2.1 1.2 1.3 1.7 3.1 1.5 4.8l-4.6 38.3c-.4 3.1-3 5.4-6.1 5.4h-59.1C1301.6 1659.9 1299.9 1659.2 1298.7 1657.8zM1308 1611.5c-2 0-3.7 1.5-4 3.5l-4.6 38.3c-.1 1.1.2 2.3 1 3.1.8.9 1.8 1.3 3 1.3h59.1c2 0 3.7-1.5 4-3.5l4.6-38.3c.1-1.1-.2-2.3-1-3.1-.8-.9-1.8-1.3-3-1.3H1308zM1201.5 1654.3c-1.2-1.3-1.7-3.1-1.5-4.8l4.6-38.3c.4-3.1 3-5.4 6.1-5.4h59.1c1.8 0 3.4.8 4.6 2.1 1.2 1.3 1.7 3.1 1.5 4.8l-4.6 38.3c-.4 3.1-3 5.4-6.1 5.4h-59.1C1204.3 1656.4 1202.6 1655.6 1201.5 1654.3zM1210.7 1608c-2 0-3.7 1.5-4 3.5l-4.6 38.3c-.1 1.1.2 2.3 1 3.1.8.9 1.8 1.3 3 1.3h59.1c2 0 3.7-1.5 3.9-3.5l4.6-38.3c.1-1.1-.2-2.3-1-3.1-.8-.9-1.8-1.3-3-1.3H1210.7zM1104.2 1650.7c-1.2-1.3-1.7-3.1-1.5-4.8l4.6-38.3c.4-3.1 3-5.4 6.1-5.4h59.1c1.8 0 3.4.8 4.6 2.1 1.2 1.3 1.7 3.1 1.5 4.8l-4.6 38.3c-.4 3.1-3 5.4-6.1 5.4h-59.1C1107.1 1652.8 1105.4 1652 1104.2 1650.7zM1113.4 1604.4c-2 0-3.7 1.5-4 3.5l-4.6 38.3c-.1 1.1.2 2.3 1 3.1.8.9 1.8 1.3 3 1.3h59.1c2 0 3.7-1.5 4-3.5l4.6-38.3c.1-1.1-.2-2.3-1-3.1-.8-.9-1.8-1.3-3-1.3H1113.4z" class="colorbdbdbd svgShape"></path><path fill="#2654ff" d="M1016.2,1600.8c-2,0-3.7,1.5-4,3.5l-4.6,38.3c-0.1,1.1,0.2,2.3,1,3.1c0.8,0.9,1.8,1.3,3,1.3h59.1
									c2,0,3.7-1.5,4-3.5l4.6-38.3c0.1-1.1-0.2-2.3-1-3.1c-0.8-0.9-1.8-1.3-3-1.3H1016.2z" class="colorffa726 svgShape"></path><path fill="#bdbdbd" d="M1006.9,1647.1c1.2,1.3,2.8,2.1,4.6,2.1h59.1c3.1,0,5.7-2.3,6.1-5.4l4.6-38.2c0.2-1.7-0.3-3.5-1.5-4.8
									c-1.2-1.3-2.9-2.1-4.6-2.1h-59.1c-3.1,0-5.7,2.3-6.1,5.4l-4.6,38.3C1005.2,1644.1,1005.8,1645.8,1006.9,1647.1z" class="colorbdbdbd svgShape"></path><g fill="#000000" class="color000000 svgShape"><path fill="#2654ff" d="M918.9,1597.2c-2,0-3.7,1.5-4,3.5l-4.6,38.3c-0.1,1.1,0.2,2.3,1,3.1c0.8,0.9,1.8,1.3,3,1.3h59.1
									c2,0,3.7-1.5,4-3.5l4.6-38.3c0.1-1.1-0.2-2.3-1-3.1c-0.8-0.9-1.8-1.3-3-1.3H918.9z" class="colorffa726 svgShape"></path><path fill="#bdbdbd" d="M909.7,1643.6c1.2,1.3,2.8,2.1,4.6,2.1h59.1c3.1,0,5.7-2.3,6.1-5.4l4.6-38.3c0.2-1.7-0.3-3.5-1.5-4.8
									c-1.2-1.3-2.9-2.1-4.6-2.1h-59.1c-3.1,0-5.7,2.3-6.1,5.4l-4.6,38.2C907.9,1640.5,908.5,1642.3,909.7,1643.6z" class="colorbdbdbd svgShape"></path></g></g></g><path fill="#0575e6" d="M983.8,1413.1c80.8,50.8,113.5,71.2,187.5,130.9l-40.1,7.5c103.2-183.9,276.4-319.8,468.2-401.1
				c-151.4,128.9-311.8,258.6-422.2,425c0,0-18.1,28.4-18.1,28.4C1082.7,1531.4,1050.8,1494.5,983.8,1413.1L983.8,1413.1z" class="color1e88e5 svgShape"></path></g><g fill="#000000" class="color000000 svgShape"><ellipse cx="2032.4" cy="1313.2" fill="#e0e0e0" rx="417" ry="89.1" class="colore0e0e0 svgShape"></ellipse><polygon fill="#bdbdbd" points="2390.7 1319.7 2431.9 1319.7 2354.4 814.9 2291.8 1105.4 2304.4 1212.2" class="colorbdbdbd svgShape"></polygon><polygon fill="#f5f5f5" points="2342.9 1327 2410.6 1331 2354.4 814.9 2298.5 1164.5" class="colorf5f5f5 svgShape"></polygon><polygon fill="#bdbdbd" points="2344.4 1335.2 2385.6 1335.2 2354.4 814.9 2245.6 1120.8 2258.2 1227.7" class="colorbdbdbd svgShape"></polygon><polygon fill="#e0e0e0" points="2296.6 1342.5 2364.3 1346.4 2354.4 814.9 2252.2 1179.9" class="colore0e0e0 svgShape"></polygon><g fill="#000000" class="color000000 svgShape"><polygon fill="#f5f5f5" points="2354.4 863.3 2320.5 1357.1 1649.6 1319.9 1728.6 863.3" class="colorf5f5f5 svgShape"></polygon><polygon fill="#e0e0e0" points="2354.4 863.3 2354.4 814.9 1728.6 811.6 1728.6 863.3" class="colore0e0e0 svgShape"></polygon><path fill="#e0e0e0" d="M2278.9 814.5v.4c0 17.4 9.7 31.5 21.6 31.5v-4.4c-9.5 0-17.2-12.2-17.2-27.2v-.4L2278.9 814.5zM2231.9 814.3v.7c0 17.4 9.7 31.5 21.6 31.5v-4.4c-9.5 0-17.2-12.2-17.2-27.2v-.6L2231.9 814.3zM2184.8 814.9c0 17.4 9.7 31.5 21.6 31.5v-4.4c-9.5 0-17.2-12.2-17.2-27.2 0-.3 0-.6 0-.9l-4.4 0C2184.8 814.3 2184.8 814.6 2184.8 814.9zM2137.7 814.9c0 17.4 9.7 31.5 21.6 31.5v-4.4c-9.5 0-17.2-12.2-17.2-27.2 0-.4 0-.8 0-1.1l-4.4 0C2137.7 814.1 2137.7 814.5 2137.7 814.9zM2090.7 814.9c0 17.4 9.7 31.5 21.6 31.5v-4.4c-9.5 0-17.2-12.2-17.2-27.2 0-.5 0-.9 0-1.4l-4.4 0C2090.7 814 2090.7 814.4 2090.7 814.9zM2043.6 814.9c0 17.4 9.7 31.5 21.6 31.5v-4.4c-9.5 0-17.2-12.2-17.2-27.2 0-.5 0-1.1 0-1.6l-4.4 0C2043.6 813.8 2043.6 814.4 2043.6 814.9zM1996.6 814.9c0 17.4 9.7 31.5 21.6 31.5v-4.4c-9.5 0-17.2-12.2-17.2-27.2 0-.6 0-1.3 0-1.9l-4.4 0C1996.6 813.6 1996.6 814.3 1996.6 814.9zM1949.5 814.9c0 17.4 9.7 31.5 21.6 31.5v-4.4c-9.5 0-17.2-12.2-17.2-27.2 0-.7 0-1.4.1-2.1l-4.4 0C1949.5 813.5 1949.5 814.2 1949.5 814.9zM1902.4 814.9c0 17.4 9.7 31.5 21.6 31.5v-4.4c-9.5 0-17.2-12.2-17.2-27.2 0-.8 0-1.6.1-2.4l-4.4 0C1902.5 813.3 1902.4 814.1 1902.4 814.9zM1855.4 814.9c0 17.4 9.7 31.5 21.6 31.5v-4.4c-9.5 0-17.2-12.2-17.2-27.2 0-.9 0-1.8.1-2.6l-4.4 0C1855.4 813.1 1855.4 814 1855.4 814.9zM1808.3 814.9c0 17.4 9.7 31.5 21.6 31.5v-4.4c-9.5 0-17.2-12.2-17.2-27.2 0-1 0-1.9.1-2.9l-4.4 0C1808.3 813 1808.3 813.9 1808.3 814.9zM1761.2 814.9c0 17.4 9.7 31.5 21.6 31.5v-4.4c-9.5 0-17.2-12.2-17.2-27.2 0-1 0-2.1.1-3.1l-4.4 0C1761.3 812.8 1761.2 813.8 1761.2 814.9z" class="colore0e0e0 svgShape"></path></g><g fill="#000000" class="color000000 svgShape"><path fill="#404042" d="M1761.2 814.9c0 17.4 9.7 31.5 21.6 31.5v-4.4c-9.5 0-17.2-12.2-17.2-27.2 0-1 0-2.1.1-3.1 1-13.5 8.3-24.1 17.1-24.1 8.9 0 16.2 10.6 17.1 24.2l4.4 0c-1-16.1-10.3-28.6-21.5-28.6-11.2 0-20.4 12.5-21.5 28.4C1761.3 812.8 1761.2 813.8 1761.2 814.9zM1808.3 814.9c0 17.4 9.7 31.5 21.6 31.5v-4.4c-9.5 0-17.2-12.2-17.2-27.2 0-1 0-1.9.1-2.9.9-13.6 8.2-24.3 17.1-24.3 8.9 0 16.3 10.8 17.1 24.5l4.4 0c-.9-16.2-10.2-28.9-21.5-28.9-11.2 0-20.5 12.6-21.5 28.7C1808.3 813 1808.3 813.9 1808.3 814.9zM1855.4 814.9c0 17.4 9.7 31.5 21.6 31.5v-4.4c-9.5 0-17.2-12.2-17.2-27.2 0-.9 0-1.8.1-2.6.8-13.8 8.2-24.6 17.1-24.6 9 0 16.4 10.9 17.1 24.7l4.4 0c-.9-16.3-10.2-29.1-21.5-29.1-11.3 0-20.6 12.7-21.5 28.9C1855.4 813.1 1855.4 814 1855.4 814.9zM1902.4 814.9c0 17.4 9.7 31.5 21.6 31.5v-4.4c-9.5 0-17.2-12.2-17.2-27.2 0-.8 0-1.6.1-2.4.8-13.9 8.1-24.8 17.1-24.8 9 0 16.5 11 17.2 25l4.4 0c-.8-16.4-10.2-29.4-21.6-29.4-11.4 0-20.7 12.9-21.5 29.2C1902.5 813.3 1902.4 814.1 1902.4 814.9zM1949.5 814.9c0 17.4 9.7 31.5 21.6 31.5v-4.4c-9.5 0-17.2-12.2-17.2-27.2 0-.7 0-1.4.1-2.1.7-14 8.1-25.1 17.2-25.1 9.1 0 16.5 11.2 17.2 25.3l4.4 0c-.7-16.5-10.1-29.6-21.5-29.6-11.4 0-20.8 13-21.6 29.4C1949.5 813.5 1949.5 814.2 1949.5 814.9zM1996.6 814.9c0 17.4 9.7 31.5 21.6 31.5v-4.4c-9.5 0-17.2-12.2-17.2-27.2 0-.6 0-1.3 0-1.9.6-14.1 8.1-25.3 17.2-25.3 9.2 0 16.6 11.3 17.2 25.5l4.4 0c-.6-16.6-10-29.9-21.6-29.9-11.5 0-20.9 13.1-21.5 29.7C1996.6 813.6 1996.6 814.3 1996.6 814.9zM2043.6 814.9c0 17.4 9.7 31.5 21.6 31.5v-4.4c-9.5 0-17.2-12.2-17.2-27.2 0-.5 0-1.1 0-1.6.5-14.2 8.1-25.6 17.2-25.6 9.2 0 16.7 11.4 17.2 25.8l4.4 0c-.5-16.8-10-30.1-21.6-30.1-11.5 0-21 13.3-21.6 29.9C2043.6 813.8 2043.6 814.4 2043.6 814.9zM2090.7 814.9c0 17.4 9.7 31.5 21.6 31.5v-4.4c-9.5 0-17.2-12.2-17.2-27.2 0-.5 0-.9 0-1.4.5-14.4 8-25.8 17.2-25.8 9.2 0 16.8 11.6 17.2 26l4.4 0c-.4-16.9-9.9-30.4-21.6-30.4-11.6 0-21.1 13.4-21.6 30.2C2090.7 814 2090.7 814.4 2090.7 814.9zM2137.7 814.9c0 17.4 9.7 31.5 21.6 31.5v-4.4c-9.5 0-17.2-12.2-17.2-27.2 0-.4 0-.8 0-1.1.4-14.5 8-26.1 17.2-26.1 9.3 0 16.9 11.7 17.2 26.3l4.4 0c-.3-17-9.9-30.6-21.6-30.6-11.7 0-21.2 13.5-21.6 30.4C2137.7 814.1 2137.7 814.5 2137.7 814.9zM2184.8 814.9c0 17.4 9.7 31.5 21.6 31.5v-4.4c-9.5 0-17.2-12.2-17.2-27.2 0-.3 0-.6 0-.9.3-14.6 7.9-26.3 17.2-26.3 9.3 0 17 11.8 17.2 26.5l4.4 0c-.3-17.1-9.9-30.9-21.6-30.9-11.7 0-21.3 13.7-21.6 30.7C2184.8 814.3 2184.8 814.6 2184.8 814.9zM2231.9 814.3v.7c0 17.4 9.7 31.5 21.6 31.5v-4.4c-9.5 0-17.2-12.2-17.2-27.2v-.6c.2-14.7 7.9-26.6 17.2-26.6 9.4 0 17.1 12 17.2 26.8l4.4 0c-.2-17.2-9.8-31.1-21.6-31.1C2241.7 783.3 2232.1 797.1 2231.9 814.3zM2278.9 814.5v.4c0 17.4 9.7 31.5 21.6 31.5v-4.4c-9.5 0-17.2-12.2-17.2-27.2v-.4c.1-14.8 7.8-26.8 17.2-26.8 9.5 0 17.2 12.1 17.2 27l4.4 0c-.1-17.3-9.7-31.4-21.6-31.4C2288.7 783.3 2279.1 797.3 2278.9 814.5z" class="color414042 svgShape"></path></g><g fill="#000000" class="color000000 svgShape"><path fill="#bdbdbd" d="M2238,991.4c-1.2-1.3-1.7-3.1-1.5-4.8l4.6-38.3c0.4-3.1,3-5.4,6.1-5.4h59.1c1.8,0,3.4,0.8,4.6,2.1
									c1.2,1.3,1.7,3.1,1.5,4.8l-4.6,38.3c-0.4,3.1-3,5.4-6.1,5.4h-59.1C2240.9,993.5,2239.2,992.8,2238,991.4z" class="colorbdbdbd svgShape"></path><path fill="#bdbdbd" d="M2239.7 990c.7.9 1.8 1.3 3 1.3h59.1c2 0 3.7-1.5 4-3.5l4.6-38.3c.2-1.1-.2-2.3-1-3.1-.8-.9-1.8-1.3-3-1.3h-59.1c-2 0-3.7 1.5-4 3.5l-4.6 38.3C2238.6 988 2238.9 989.2 2239.7 990zM2140.8 987.9c-1.2-1.3-1.7-3.1-1.5-4.8l4.6-38.3c.4-3.1 3-5.4 6.1-5.4h59.1c1.8 0 3.4.8 4.6 2.1 1.2 1.3 1.7 3.1 1.5 4.8l-4.6 38.3c-.4 3.1-3 5.4-6.1 5.4h-59.1C2143.6 989.9 2141.9 989.2 2140.8 987.9z" class="colorbdbdbd svgShape"></path><path fill="#bdbdbd" d="M2142.4 986.4c.7.9 1.8 1.3 3 1.3h59.1c2 0 3.7-1.5 4-3.5l4.6-38.2c.2-1.1-.2-2.3-1-3.1-.8-.9-1.8-1.3-3-1.3H2150c-2 0-3.7 1.5-4 3.5l-4.6 38.2C2141.3 984.4 2141.7 985.6 2142.4 986.4zM2043.5 984.3c-1.2-1.3-1.7-3.1-1.5-4.8l4.6-38.3c.4-3.1 3-5.4 6.1-5.4h59.1c1.8 0 3.4.8 4.6 2.1 1.2 1.3 1.7 3.1 1.5 4.8l-4.6 38.3c-.4 3.1-3 5.4-6.1 5.4h-59.1C2046.4 986.4 2044.7 985.6 2043.5 984.3zM2052.7 938c-2 0-3.7 1.5-4 3.5l-4.6 38.3c-.1 1.1.2 2.3 1 3.1.8.9 1.8 1.3 3 1.3h59.1c2 0 3.7-1.5 4-3.5l4.6-38.3c.1-1.1-.2-2.3-1-3.1-.8-.9-1.8-1.3-3-1.3H2052.7zM1946.2 980.7c-1.2-1.3-1.7-3.1-1.5-4.8l4.6-38.3c.4-3.1 3-5.4 6.1-5.4h59.1c1.8 0 3.4.8 4.6 2.1 1.2 1.3 1.7 3.1 1.5 4.8l-4.6 38.3c-.4 3.1-3 5.4-6.1 5.4h-59.1C1949.1 982.8 1947.4 982.1 1946.2 980.7zM1955.5 934.4c-2 0-3.7 1.5-4 3.5l-4.6 38.3c-.1 1.1.2 2.3 1 3.1.8.9 1.8 1.3 3 1.3h59.1c2 0 3.7-1.5 4-3.5l4.6-38.3c.1-1.1-.2-2.3-1-3.1-.8-.9-1.8-1.3-3-1.3H1955.5z" class="colorbdbdbd svgShape"></path><g fill="#000000" class="color000000 svgShape"><path fill="#bdbdbd" d="M1849,977.2c-1.2-1.3-1.7-3.1-1.5-4.8l4.6-38.3c0.4-3.1,3-5.4,6.1-5.4h59.1c1.8,0,3.4,0.8,4.6,2.1
									c1.2,1.3,1.7,3.1,1.5,4.8l-4.6,38.3c-0.4,3.1-3,5.4-6.1,5.4h-59.1C1851.8,979.2,1850.1,978.5,1849,977.2z M1858.2,930.8
									c-2,0-3.7,1.5-4,3.5l-4.6,38.3c-0.1,1.1,0.2,2.3,1,3.1c0.8,0.9,1.8,1.3,3,1.3h59.1c2,0,3.7-1.5,4-3.5l4.6-38.3
									c0.1-1.1-0.2-2.3-1-3.1c-0.8-0.9-1.8-1.3-3-1.3H1858.2z" class="colorbdbdbd svgShape"></path></g><g fill="#000000" class="color000000 svgShape"><path fill="#bdbdbd" d="M1751.7,973.6c-1.2-1.3-1.7-3.1-1.5-4.8l4.6-38.3c0.4-3.1,3-5.4,6.1-5.4h59.1c1.8,0,3.4,0.8,4.6,2.1
									c1.2,1.3,1.7,3.1,1.5,4.8l-4.6,38.3c-0.4,3.1-3,5.4-6.1,5.4h-59.1C1754.6,975.7,1752.9,974.9,1751.7,973.6z M1760.9,927.3
									c-2,0-3.7,1.5-4,3.5l-4.6,38.3c-0.1,1.1,0.2,2.3,1,3.1c0.8,0.9,1.8,1.3,3,1.3h59.1c2,0,3.7-1.5,4-3.5l4.6-38.3
									c0.1-1.1-0.2-2.3-1-3.1c-0.8-0.9-1.8-1.3-3-1.3H1760.9z" class="colorbdbdbd svgShape"></path></g><g fill="#000000" class="color000000 svgShape"><path fill="#bdbdbd" d="M2226.3 1065.3c-1.2-1.3-1.7-3.1-1.5-4.8l4.6-38.3c.4-3.1 3-5.4 6.1-5.4h59.1c1.8 0 3.4.8 4.6 2.1 1.2 1.3 1.7 3.1 1.5 4.8l-4.6 38.3c-.4 3.1-3 5.4-6.1 5.4h-59.1C2229.2 1067.4 2227.5 1066.6 2226.3 1065.3zM2235.6 1019c-2 0-3.7 1.5-4 3.5l-4.6 38.3c-.1 1.1.2 2.3 1 3.1.8.9 1.8 1.3 3 1.3h59.1c2 0 3.7-1.5 4-3.5l4.6-38.3c.1-1.1-.2-2.3-1-3.1-.8-.9-1.8-1.3-3-1.3H2235.6zM2129.1 1061.7c-1.2-1.3-1.7-3.1-1.5-4.8l4.6-38.3c.4-3.1 3-5.4 6.1-5.4h59.1c1.8 0 3.4.8 4.6 2.1 1.2 1.3 1.7 3.1 1.5 4.8l-4.6 38.3c-.4 3.1-3 5.4-6.1 5.4h-59.1C2131.9 1063.8 2130.2 1063.1 2129.1 1061.7zM2138.3 1015.4c-2 0-3.7 1.5-4 3.5l-4.6 38.3c-.1 1.1.2 2.3 1 3.1.8.9 1.8 1.3 3 1.3h59.1c2 0 3.7-1.5 4-3.5l4.6-38.3c.1-1.1-.2-2.3-1-3.1-.8-.9-1.8-1.3-3-1.3H2138.3zM2031.8 1058.2c-1.2-1.3-1.7-3.1-1.5-4.8l4.6-38.3c.4-3.1 3-5.4 6.1-5.4h59.1c1.8 0 3.4.8 4.6 2.1 1.2 1.3 1.7 3.1 1.5 4.8l-4.6 38.3c-.4 3.1-3 5.4-6.1 5.4h-59.1C2034.6 1060.2 2033 1059.5 2031.8 1058.2zM2041 1011.8c-2 0-3.7 1.5-4 3.5l-4.6 38.3c-.1 1.1.2 2.3 1 3.1.8.9 1.8 1.3 3 1.3h59.1c2 0 3.7-1.5 4-3.5l4.6-38.3c.1-1.1-.2-2.3-1-3.1-.8-.9-1.8-1.3-3-1.3H2041zM1934.5 1054.6c-1.2-1.3-1.7-3.1-1.5-4.8l4.6-38.3c.4-3.1 3-5.4 6.1-5.4h59.1c1.8 0 3.4.8 4.6 2.1 1.2 1.3 1.7 3.1 1.5 4.8l-4.6 38.3c-.4 3.1-3 5.4-6.1 5.4h-59.1C1937.4 1056.7 1935.7 1055.9 1934.5 1054.6zM1943.8 1008.3c-2 0-3.7 1.5-4 3.5l-4.6 38.3c-.1 1.1.2 2.3 1 3.1.8.9 1.8 1.3 3 1.3h59.1c2 0 3.7-1.5 4-3.5l4.6-38.3c.1-1.1-.2-2.3-1-3.1-.8-.9-1.8-1.3-3-1.3H1943.8zM1837.3 1051c-1.2-1.3-1.7-3.1-1.5-4.8l4.6-38.3c.4-3.1 3-5.4 6.1-5.4h59.1c1.8 0 3.4.8 4.6 2.1 1.2 1.3 1.7 3.1 1.5 4.8l-4.6 38.3c-.4 3.1-3 5.4-6.1 5.4h-59.1C1840.1 1053.1 1838.4 1052.3 1837.3 1051zM1846.5 1004.7c-2 0-3.7 1.5-4 3.5l-4.6 38.3c-.1 1.1.2 2.3 1 3.1.8.9 1.8 1.3 3 1.3h59.1c2 0 3.7-1.5 4-3.5l4.6-38.3c.1-1.1-.2-2.3-1-3.1-.8-.9-1.8-1.3-3-1.3H1846.5zM1740 1047.5c-1.2-1.3-1.7-3.1-1.5-4.8l4.6-38.3c.4-3.1 3-5.4 6.1-5.4h59.1c1.8 0 3.4.8 4.6 2.1 1.2 1.3 1.7 3.1 1.5 4.8l-4.6 38.3c-.4 3.1-3 5.4-6.1 5.4h-59.1C1742.8 1049.5 1741.2 1048.8 1740 1047.5zM1749.2 1001.1c-2 0-3.7 1.5-4 3.5l-4.6 38.3c-.1 1.1.2 2.3 1 3.1.8.9 1.8 1.3 3 1.3h59.1c2 0 3.7-1.5 4-3.5l4.6-38.3c.1-1.1-.2-2.3-1-3.1-.8-.9-1.8-1.3-3-1.3H1749.2z" class="colorbdbdbd svgShape"></path></g><g fill="#000000" class="color000000 svgShape"><path fill="#bdbdbd" d="M2214.6 1139.2c-1.2-1.3-1.7-3.1-1.5-4.8l4.6-38.3c.4-3.1 3-5.4 6.1-5.4h59.1c1.8 0 3.4.8 4.6 2.1 1.2 1.3 1.7 3.1 1.5 4.8l-4.6 38.3c-.4 3.1-3 5.4-6.1 5.4h-59.1C2217.5 1141.3 2215.8 1140.5 2214.6 1139.2zM2223.9 1092.9c-2 0-3.7 1.5-4 3.5l-4.6 38.3c-.1 1.1.2 2.3 1 3.1.8.9 1.8 1.3 3 1.3h59.1c2 0 3.7-1.5 4-3.5l4.6-38.3c.1-1.1-.2-2.3-1-3.1-.8-.9-1.8-1.3-3-1.3H2223.9zM2117.4 1135.6c-1.2-1.3-1.7-3.1-1.5-4.8l4.6-38.3c.4-3.1 3-5.4 6.1-5.4h59.1c1.8 0 3.4.8 4.6 2.1 1.2 1.3 1.7 3.1 1.5 4.8l-4.6 38.3c-.4 3.1-3 5.4-6.1 5.4H2122C2120.2 1137.7 2118.5 1136.9 2117.4 1135.6zM2126.6 1089.3c-2 0-3.7 1.5-4 3.5l-4.6 38.3c-.1 1.1.2 2.3 1 3.1.8.9 1.8 1.3 3 1.3h59.1c2 0 3.7-1.5 4-3.5l4.6-38.3c.1-1.1-.2-2.3-1-3.1-.8-.9-1.8-1.3-3-1.3H2126.6zM2020.1 1132c-1.2-1.3-1.7-3.1-1.5-4.8l4.6-38.3c.4-3.1 3-5.4 6.1-5.4h59.1c1.8 0 3.4.8 4.6 2.1 1.2 1.3 1.7 3.1 1.5 4.8l-4.6 38.3c-.4 3.1-3 5.4-6.1 5.4h-59.1C2022.9 1134.1 2021.3 1133.4 2020.1 1132zM2029.3 1085.7c-2 0-3.7 1.5-4 3.5l-4.6 38.3c-.1 1.1.2 2.3 1 3.1.8.9 1.8 1.3 3 1.3h59.1c2 0 3.7-1.5 4-3.5l4.6-38.3c.1-1.1-.2-2.3-1-3.1s-1.8-1.3-3-1.3H2029.3zM1922.8 1128.5c-1.2-1.3-1.7-3.1-1.5-4.8l4.6-38.3c.4-3.1 3-5.4 6.1-5.4h59.1c1.8 0 3.4.8 4.6 2.1 1.2 1.3 1.7 3.1 1.5 4.8l-4.6 38.3c-.4 3.1-3 5.4-6.1 5.4h-59.1C1925.7 1130.5 1924 1129.8 1922.8 1128.5zM1932.1 1082.1c-2 0-3.7 1.5-4 3.5l-4.6 38.3c-.1 1.1.2 2.3 1 3.1.8.9 1.8 1.3 3 1.3h59.1c2 0 3.7-1.5 4-3.5l4.6-38.3c.1-1.1-.2-2.3-1-3.1-.8-.9-1.8-1.3-3-1.3H1932.1zM1825.6 1124.9c-1.2-1.3-1.7-3.1-1.5-4.8l4.6-38.3c.4-3.1 3-5.4 6.1-5.4h59.1c1.8 0 3.4.8 4.6 2.1 1.2 1.3 1.7 3.1 1.5 4.8l-4.6 38.3c-.4 3.1-3 5.4-6.1 5.4h-59.1C1828.4 1127 1826.7 1126.2 1825.6 1124.9zM1834.8 1078.6c-2 0-3.7 1.5-4 3.5l-4.6 38.3c-.1 1.1.2 2.3 1 3.1.8.9 1.8 1.3 3 1.3h59.1c2 0 3.7-1.5 4-3.5l4.6-38.3c.1-1.1-.2-2.3-1-3.1-.8-.9-1.8-1.3-3-1.3H1834.8zM1728.3 1121.3c-1.2-1.3-1.7-3.1-1.5-4.8l4.6-38.3c.4-3.1 3-5.4 6.1-5.4h59.1c1.8 0 3.4.8 4.6 2.1 1.2 1.3 1.7 3.1 1.5 4.8l-4.6 38.3c-.4 3.1-3 5.4-6.1 5.4h-59.1C1731.1 1123.4 1729.5 1122.6 1728.3 1121.3zM1737.5 1075c-2 0-3.7 1.5-4 3.5l-4.6 38.3c-.1 1.1.2 2.3 1 3.1.8.9 1.8 1.3 3 1.3h59.1c2 0 3.7-1.5 4-3.5l4.6-38.3c.1-1.1-.2-2.3-1-3.1-.8-.9-1.8-1.3-3-1.3H1737.5z" class="colorbdbdbd svgShape"></path></g><g fill="#000000" class="color000000 svgShape"><path fill="#bdbdbd" d="M2202.9 1213c-1.2-1.3-1.7-3.1-1.5-4.8l4.6-38.3c.4-3.1 3-5.4 6.1-5.4h59.1c1.8 0 3.4.8 4.6 2.1 1.2 1.3 1.7 3.1 1.5 4.8l-4.6 38.3c-.4 3.1-3 5.4-6.1 5.4h-59.1C2205.8 1215.1 2204.1 1214.4 2202.9 1213zM2212.2 1166.7c-2 0-3.7 1.5-4 3.5l-4.6 38.3c-.1 1.1.2 2.3 1 3.1.8.9 1.8 1.3 3 1.3h59.1c2 0 3.7-1.5 4-3.5l4.6-38.3c.1-1.1-.2-2.3-1-3.1-.8-.9-1.8-1.3-3-1.3H2212.2zM2105.7 1209.5c-1.2-1.3-1.7-3.1-1.5-4.8l4.6-38.3c.4-3.1 3-5.4 6.1-5.4h59.1c1.8 0 3.4.8 4.6 2.1 1.2 1.3 1.7 3.1 1.5 4.8l-4.6 38.3c-.4 3.1-3 5.4-6.1 5.4h-59.1C2108.5 1211.5 2106.8 1210.8 2105.7 1209.5zM2114.9 1163.1c-2 0-3.7 1.5-4 3.5l-4.6 38.3c-.1 1.1.2 2.3 1 3.1.8.9 1.8 1.3 3 1.3h59.1c2 0 3.7-1.5 4-3.5l4.6-38.3c.1-1.1-.2-2.3-1-3.1-.8-.9-1.8-1.3-3-1.3H2114.9zM2008.4 1205.9c-1.2-1.3-1.7-3.1-1.5-4.8l4.6-38.3c.4-3.1 3-5.4 6.1-5.4h59.1c1.8 0 3.4.8 4.6 2.1 1.2 1.3 1.7 3.1 1.5 4.8l-4.6 38.3c-.4 3.1-3 5.4-6.1 5.4H2013C2011.2 1208 2009.6 1207.2 2008.4 1205.9zM2017.6 1159.6c-2 0-3.7 1.5-4 3.5l-4.6 38.3c-.1 1.1.2 2.3 1 3.1.8.9 1.8 1.3 3 1.3h59.1c2 0 3.7-1.5 4-3.5l4.6-38.3c.1-1.1-.2-2.3-1-3.1-.8-.9-1.8-1.3-3-1.3H2017.6zM1911.1 1202.3c-1.2-1.3-1.7-3.1-1.5-4.8l4.6-38.3c.4-3.1 3-5.4 6.1-5.4h59.1c1.8 0 3.4.8 4.6 2.1 1.2 1.3 1.7 3.1 1.5 4.8l-4.6 38.3c-.4 3.1-3 5.4-6.1 5.4h-59.1C1914 1204.4 1912.3 1203.7 1911.1 1202.3zM1920.4 1156c-2 0-3.7 1.5-4 3.5l-4.6 38.3c-.1 1.1.2 2.3 1 3.1.8.9 1.8 1.3 3 1.3h59.1c2 0 3.7-1.5 4-3.5l4.6-38.3c.1-1.1-.2-2.3-1-3.1-.8-.9-1.8-1.3-3-1.3H1920.4zM1813.8 1198.8c-1.2-1.3-1.7-3.1-1.5-4.8l4.6-38.3c.4-3.1 3-5.4 6.1-5.4h59.1c1.8 0 3.4.8 4.6 2.1 1.2 1.3 1.7 3.1 1.5 4.8l-4.6 38.3c-.4 3.1-3 5.4-6.1 5.4h-59.1C1816.7 1200.8 1815 1200.1 1813.8 1198.8zM1823.1 1152.4c-2 0-3.7 1.5-4 3.5l-4.6 38.3c-.1 1.1.2 2.3 1 3.1.8.9 1.8 1.3 3 1.3h59.1c2 0 3.7-1.5 4-3.5l4.6-38.3c.1-1.1-.2-2.3-1-3.1-.8-.9-1.8-1.3-3-1.3H1823.1zM1716.6 1195.2c-1.2-1.3-1.7-3.1-1.5-4.8l4.6-38.3c.4-3.1 3-5.4 6.1-5.4h59.1c1.8 0 3.4.8 4.6 2.1 1.2 1.3 1.7 3.1 1.5 4.8l-4.6 38.3c-.4 3.1-3 5.4-6.1 5.4h-59.1C1719.4 1197.3 1717.7 1196.5 1716.6 1195.2zM1725.8 1148.9c-2 0-3.7 1.5-4 3.5l-4.6 38.3c-.1 1.1.2 2.3 1 3.1.8.9 1.8 1.3 3 1.3h59.1c2 0 3.7-1.5 4-3.5l4.6-38.3c.1-1.1-.2-2.3-1-3.1-.8-.9-1.8-1.3-3-1.3H1725.8z" class="colorbdbdbd svgShape"></path></g><g fill="#000000" class="color000000 svgShape"><path fill="#bdbdbd" d="M2191.2 1286.9c-1.2-1.3-1.7-3.1-1.5-4.8l4.6-38.3c.4-3.1 3-5.4 6.1-5.4h59.1c1.8 0 3.4.8 4.6 2.1 1.2 1.3 1.7 3.1 1.5 4.8l-4.6 38.3c-.4 3.1-3 5.4-6.1 5.4h-59.1C2194.1 1289 2192.4 1288.2 2191.2 1286.9zM2200.5 1240.6c-2 0-3.7 1.5-4 3.5l-4.6 38.3c-.1 1.1.2 2.3 1 3.1.8.9 1.8 1.3 3 1.3h59.1c2 0 3.7-1.5 4-3.5l4.6-38.3c.1-1.1-.2-2.3-1-3.1-.8-.9-1.8-1.3-3-1.3H2200.5zM2093.9 1283.3c-1.2-1.3-1.7-3.1-1.5-4.8l4.6-38.3c.4-3.1 3-5.4 6.1-5.4h59.1c1.8 0 3.4.8 4.6 2.1 1.2 1.3 1.7 3.1 1.5 4.8l-4.6 38.3c-.4 3.1-3 5.4-6.1 5.4h-59.1C2096.8 1285.4 2095.1 1284.7 2093.9 1283.3zM2103.2 1237c-2 0-3.7 1.5-4 3.5l-4.6 38.3c-.1 1.1.2 2.3 1 3.1.8.9 1.8 1.3 3 1.3h59.1c2 0 3.7-1.5 4-3.5l4.6-38.3c.1-1.1-.2-2.3-1-3.1-.8-.9-1.8-1.3-3-1.3H2103.2zM1996.7 1279.8c-1.2-1.3-1.7-3.1-1.5-4.8l4.6-38.3c.4-3.1 3-5.4 6.1-5.4h59.1c1.8 0 3.4.8 4.6 2.1 1.2 1.3 1.7 3.1 1.5 4.8l-4.6 38.3c-.4 3.1-3 5.4-6.1 5.4h-59.1C1999.5 1281.8 1997.8 1281.1 1996.7 1279.8zM2005.9 1233.4c-2 0-3.7 1.5-4 3.5l-4.6 38.3c-.1 1.1.2 2.3 1 3.1.8.9 1.8 1.3 3 1.3h59.1c2 0 3.7-1.5 3.9-3.5l4.6-38.3c.1-1.1-.2-2.3-1-3.1-.8-.9-1.8-1.3-3-1.3H2005.9zM1899.4 1276.2c-1.2-1.3-1.7-3.1-1.5-4.8l4.6-38.3c.4-3.1 3-5.4 6.1-5.4h59.1c1.8 0 3.4.8 4.6 2.1 1.2 1.3 1.7 3.1 1.5 4.8l-4.6 38.3c-.4 3.1-3 5.4-6.1 5.4H1904C1902.3 1278.3 1900.6 1277.5 1899.4 1276.2zM1908.6 1229.9c-2 0-3.7 1.5-4 3.5l-4.6 38.3c-.1 1.1.2 2.3 1 3.1.8.9 1.8 1.3 3 1.3h59.1c2 0 3.7-1.5 4-3.5l4.6-38.3c.1-1.1-.2-2.3-1-3.1-.8-.9-1.8-1.3-3-1.3H1908.6z" class="colorbdbdbd svgShape"></path><path fill="#2654ff" d="M1811.4,1226.3c-2,0-3.7,1.5-4,3.5l-4.6,38.3c-0.1,1.1,0.2,2.3,1,3.1c0.8,0.9,1.8,1.3,3,1.3h59.1
									c2,0,3.7-1.5,4-3.5l4.6-38.3c0.1-1.1-0.2-2.3-1-3.1c-0.8-0.9-1.8-1.3-3-1.3H1811.4z" class="colorffa726 svgShape"></path><path fill="#bdbdbd" d="M1802.1,1272.6c1.2,1.3,2.8,2.1,4.6,2.1h59.1c3.1,0,5.7-2.3,6.1-5.4l4.6-38.2c0.2-1.7-0.3-3.5-1.5-4.8
									c-1.2-1.3-2.9-2.1-4.6-2.1h-59.1c-3.1,0-5.7,2.3-6.1,5.4l-4.6,38.3C1800.4,1269.6,1801,1271.3,1802.1,1272.6z" class="colorbdbdbd svgShape"></path><g fill="#000000" class="color000000 svgShape"><path fill="#2654ff" d="M1714.1,1222.7c-2,0-3.7,1.5-4,3.5l-4.6,38.3c-0.1,1.1,0.2,2.3,1,3.1c0.8,0.9,1.8,1.3,3,1.3h59.1
									c2,0,3.7-1.5,4-3.5l4.6-38.3c0.1-1.1-0.2-2.3-1-3.1c-0.8-0.9-1.8-1.3-3-1.3H1714.1z" class="colorffa726 svgShape"></path><path fill="#bdbdbd" d="M1704.9,1269.1c1.2,1.3,2.8,2.1,4.6,2.1h59.1c3.1,0,5.7-2.3,6.1-5.4l4.6-38.3c0.2-1.7-0.3-3.5-1.5-4.8
									c-1.2-1.3-2.9-2.1-4.6-2.1h-59.1c-3.1,0-5.7,2.3-6.1,5.4l-4.6,38.2C1703.1,1266,1703.7,1267.7,1704.9,1269.1z" class="colorbdbdbd svgShape"></path></g></g></g><path fill="#0575e6" d="M1779,1038.6c80.8,50.8,113.5,71.2,187.5,130.9l-40.1,7.5c103.2-183.9,276.4-319.8,468.2-401.1
				c-151.4,128.9-311.8,258.6-422.2,425c0,0-18.1,28.4-18.1,28.4C1877.9,1156.9,1846,1120,1779,1038.6L1779,1038.6z" class="color1e88e5 svgShape"></path></g><g fill="#000000" class="color000000 svgShape"><path fill="#9bc9f7" d="M2586.5,1436.3l-0.5,16.7c0.2,3.1-0.9,6.1-3,8.4l-9.1,9.7c-1.7,1.8-1.6,4.7,0.2,6.5l0,0
					c1.5,1.4,3.7,1.7,5.5,0.7l10.3-5.9c2.7-1.6,6.2-0.4,7.4,2.5l6.7,11.3c0.9,1.5,2.7,2.2,4.3,1.7c8.5-2.5,26.4-11.1,28.7-11.9l0,0
					c2.5-0.8,3.9-3.5,3.2-6c-5.1-19-11.4-27.9-21.5-48.4L2586.5,1436.3z" class="colorf7c19b svgShape"></path><path fill="#1d2a5b" d="M2579.9,1494.8c-2.9-6.1-0.3-13.4,5.9-16.3l55.2-26.1c6.1-2.9,13.4-0.3,16.3,5.9l11.1,23.4l-77.4,36.6
							L2579.9,1494.8z M2653.2,1460.1c-1.8-3.9-6.5-5.5-10.3-3.7l-55.2,26.1c-3.9,1.8-5.5,6.5-3.7,10.3l9.1,19.3l69.3-32.7
							L2653.2,1460.1z" class="color5b291d svgShape"></path><path fill="#33437f" d="M2536.2,1537.4l53.9,113.9c3.2,6.8,11.3,9.7,18.1,6.5l78.6-37.2c7.1-57-10.2-100.5-59.7-126.2
								L2536.2,1537.4z" class="color7f4833 svgShape"></path><path fill="#344583" d="M2627.1,1494.4l59.7,126.2l78.6-37.2c6.8-3.2,9.7-11.3,6.5-18.1l-53.9-113.9L2627.1,1494.4z" class="color834e34 svgShape"></path><path fill="#233063" d="M2535.7,1543.9l17.9,37.9c0.8,1.7,2.6,2.7,4.4,2.5l106.2-11.2c6.3-41-11.7-67.1-40.8-86.3l-81.1,38.3
								C2535.4,1528.5,2532.4,1536.9,2535.7,1543.9z" class="color633223 svgShape"></path><path fill="#253368" d="M2623.5,1486.9l40.8,86.3l76-75c1.3-1.3,1.7-3.3,0.9-5l-17.9-37.9c-3.3-7-11.7-10-18.7-6.7
								L2623.5,1486.9z" class="color683725 svgShape"></path><path fill="#bdbdbd" d="M2649.4,1568.8l9.8,20.8c0.6,1.3,2.1,1.8,3.4,1.2l8.2-3.9l-12-25.3l-8.2,3.9
							C2649.4,1566,2648.8,1567.6,2649.4,1568.8z" class="colorbdbdbd svgShape"></path><path fill="#e0e0e0" d="M2658.8,1561.6l12,25.3l8.2-3.9c1.3-0.6,1.8-2.1,1.2-3.4l-9.8-20.8c-0.6-1.2-2.1-1.8-3.4-1.2
							L2658.8,1561.6z" class="colore0e0e0 svgShape"></path><path fill="#9bc9f7" d="M2637.8,1461.8c0,0-2.9-5.3-20.3,3.1c0,0-14.3,4.8-16.4,16.2l15.8-1c0,0,3.9-2.6,4.1-2.9
					C2621,1477,2637.8,1461.8,2637.8,1461.8z" class="colorf7c19b svgShape"></path><polygon fill="#9bc9f7" points="2810 1959.5 2818.1 1913.2 2748.7 1899.9 2740.6 1946.2" class="colorf7c19b svgShape"></polygon><path fill="#021b79" d="M2828.4,1917.1l10.1-5.4l3.2-1.3c1.9-0.8,3.9-1,5.9-0.6l7.7,1.5c1.9,0.4,3.2,2.3,2.9,4.2l-1.5,8.7
							l-2.2-0.4l-0.8,4.7l2.2,0.4l-1.6,10.6l-1.8-0.3l-0.9,4.9l1.9,0.4l-2.1,11.8l-8.6,4.6c1,9.9,2.8,19,5.6,27
							c0.2,0.4-1.9,12.3-2.2,12.3l-1.7-0.3l-0.8,4.6l1.7,0.3c-0.4,3.9-1.1,7.7-2,11.4l-1.8-0.4l-0.8,4.5l1.5,0.3
							c-0.7,4-1.8,7.4-3.1,10.3l-1.4-0.3l-1.4,4.4l1.3,0.2c-0.8,2.6-2,4.9-3.3,7.1l-1.4-0.5l-2.3,3.7l1.3,1.1
							c-2.5,4.1-5.1,7.7-7.7,10.8c0,0-6.1-0.4-5.7-4.2l3.2-48.9l2.5-63.1L2828.4,1917.1z" class="color333333 svgShape"></path><path fill="#58595b" d="M2825.7,1907.3c2.9,0.6,5.7,1.4,8.5,2.6l4.3,1.8c-3.6,18.4-5.2,35.8-4.1,51.9c0.2,3.3,0.6,6.6,1.1,9.8
							c4.3,27.6-1.9,54.2-17,79.9l-4.2-0.8c-3.1-0.6-5.4-3.4-5.5-6.6l-0.5-21.3c-0.1-3.8-0.1-7.6-0.1-11.4
							c-0.1-10.7-2.4-21-6.7-30.9c-0.2-0.5-0.5-1.1-0.7-1.6c-0.1-0.3-0.3-0.6-0.5-1c4.5,0.3,10.7-3,11-3.2c0.2-0.1,0.3-0.3,0.3-0.5
							c0-0.1,0-0.2-0.1-0.3c-0.1-0.3-0.5-0.4-0.8-0.2c-2.2,1.2-7.7,3.5-11.1,3c-0.1-0.2-0.2-0.5-0.3-0.7c-0.3-3.8,2.1-9.6,3.3-11.9
							c0.1-0.3,0-0.6-0.2-0.8c-0.3-0.2-0.6-0.1-0.8,0.2c-0.2,0.3-2.9,5.7-3.4,10.3c-0.4-0.8-0.9-1.6-1.3-2.5c-0.3-0.5-0.6-1-0.9-1.5
							c-0.6-1.1-1.3-2.2-2-3.3c-0.3-0.4-0.6-0.9-0.9-1.3c-1.1-1.6-2.2-3.2-3.3-4.8c0.7-2.9,3.4-6.2,4.6-7.5c0.2-0.2,0.2-0.6,0-0.8
							c-0.2-0.2-0.6-0.2-0.8,0c-0.2,0.2-3.4,3.7-4.6,7.2c-0.5-0.6-1-1.3-1.4-1.9c-0.8-1.1-1.2-2.4-1-3.7l6.7-48.1
							c0.2-1.8,1.9-2.9,3.6-2.5l5.5,1.2c4.1,0.9,8.3,1.2,12.4,0.9C2818.3,1906.4,2822,1906.6,2825.7,1907.3z" class="color58595b svgShape"></path><path fill="#1f2023" d="M2811.3 1975.6c.1.1.1.2.1.3 0 .2-.1.4-.3.5-.3.2-6.5 3.4-11 3.2-.2-.4-.4-.8-.6-1.2 3.4.6 8.9-1.8 11.1-3C2810.9 1975.2 2811.2 1975.3 2811.3 1975.6zM2802.3 1964.9c.3.2.4.5.2.8-1.2 2.3-3.7 8.1-3.3 11.9-.4-.7-.7-1.4-1.1-2.1.5-4.7 3.3-10 3.4-10.3C2801.6 1964.9 2802 1964.8 2802.3 1964.9z" class="color231f20 svgShape"></path><path fill="#303030" d="M2794.2,1953.7c0.2,0.2,0.2,0.6,0,0.8c-1.3,1.3-3.9,4.7-4.6,7.5c-0.3-0.4-0.6-0.8-0.8-1.2
							c1.2-3.5,4.5-7,4.6-7.2C2793.6,1953.5,2794,1953.4,2794.2,1953.7z" class="color303030 svgShape"></path><path fill="#404042" d="M2825.7,1907.3c2.9,0.6,5.7,1.4,8.5,2.6l4.3,1.8c-3.6,18.4-5.2,35.8-4.1,51.9l-20.2,20.6
							c-1.2,1.2-3.1,1.1-4.2-0.2l-23.6-28.7l6.7-48.1c0.2-1.8,1.9-2.9,3.6-2.5l5.5,1.2c4.1,0.9,8.3,1.2,12.4,0.9
							C2818.3,1906.4,2822,1906.6,2825.7,1907.3z" class="color414042 svgShape"></path><polygon fill="#58595b" points="2788.6 1954.8 2788.2 1955.1 2788 1954.7 2788 1954.3 2788.5 1954.3 2788.5 1954.6" class="color58595b svgShape"></polygon><path fill="#58595b" d="M2835.7,1912.5l-0.2,0.5l-0.6-0.3l0.2-0.5L2835.7,1912.5z M2834.4,1912l-0.2,0.5l-0.6-0.3l0.2-0.5
										L2834.4,1912z M2833.1,1911.4l-0.2,0.5c-0.2-0.1-0.4-0.2-0.6-0.3l0.2-0.5C2832.7,1911.2,2832.9,1911.3,2833.1,1911.4z
										 M2831.8,1910.9l-0.2,0.5c-0.2-0.1-0.4-0.2-0.6-0.2l0.2-0.5C2831.4,1910.7,2831.6,1910.8,2831.8,1910.9z M2830.5,1910.4
										l-0.2,0.5c-0.2-0.1-0.4-0.1-0.7-0.2l0.1-0.5C2830.1,1910.3,2830.3,1910.4,2830.5,1910.4z M2829.2,1910l-0.1,0.5
										c-0.2-0.1-0.4-0.1-0.7-0.2l0.1-0.5C2828.7,1909.9,2829,1909.9,2829.2,1910z M2827.8,1909.6l-0.1,0.5
										c-0.2-0.1-0.4-0.1-0.7-0.2l0.1-0.5C2827.4,1909.5,2827.6,1909.6,2827.8,1909.6z M2826.5,1909.3l-0.1,0.5
										c-0.2,0-0.4-0.1-0.7-0.1l0.1-0.5C2826,1909.2,2826.3,1909.2,2826.5,1909.3z M2825,1909.5c-0.2,0-0.4-0.1-0.7-0.1l0.1-0.5
										c0.2,0,0.5,0.1,0.7,0.1L2825,1909.5z M2823.7,1909.3c-0.2,0-0.5-0.1-0.7-0.1l0.1-0.5c0.2,0,0.5,0.1,0.7,0.1L2823.7,1909.3z
										 M2822.3,1909.1c-0.2,0-0.5-0.1-0.7-0.1l0-0.5c0.2,0,0.5,0,0.7,0.1L2822.3,1909.1z M2821,1909c-0.2,0-0.5,0-0.7,0l0-0.5
										c0.2,0,0.5,0,0.7,0L2821,1909z M2819.6,1908.9c-0.2,0-0.5,0-0.7,0l0-0.5c0.2,0,0.5,0,0.7,0L2819.6,1908.9z M2818.2,1908.9
										c-0.2,0-0.5,0-0.7,0l0-0.5c0.2,0,0.5,0,0.7,0L2818.2,1908.9z M2816.9,1908.9c-0.2,0-0.5,0-0.7,0l0-0.5c0.2,0,0.5,0,0.7,0
										L2816.9,1908.9z M2815.5,1908.9c-0.2,0-0.5,0-0.7,0l0-0.5c0.2,0,0.5,0,0.7,0L2815.5,1908.9z M2814.1,1909
										c-0.2,0-0.5,0-0.7,0l0-0.5c0.2,0,0.5,0,0.7,0L2814.1,1909z M2812.7,1909.1c-0.2,0-0.5,0-0.7,0l0-0.5c0.2,0,0.5,0,0.7,0
										L2812.7,1909.1z M2811.3,1909.1c-0.2,0-0.5,0-0.7,0l0-0.5c0.2,0,0.5,0,0.7,0L2811.3,1909.1z M2810,1909.1
										c-0.2,0-0.5,0-0.7,0l0-0.5c0.2,0,0.5,0,0.7,0L2810,1909.1z M2808.6,1909c-0.2,0-0.5,0-0.7,0l0-0.5c0.2,0,0.5,0,0.7,0
										L2808.6,1909z M2807.2,1908.9c-0.2,0-0.5,0-0.7-0.1l0.1-0.5c0.2,0,0.5,0,0.7,0.1L2807.2,1908.9z M2805.8,1908.8
										c-0.2,0-0.5-0.1-0.7-0.1l0.1-0.5c0.2,0,0.5,0.1,0.7,0.1L2805.8,1908.8z M2804.4,1908.6c-0.2,0-0.5-0.1-0.7-0.1l0.1-0.5
										c0.2,0,0.4,0.1,0.7,0.1L2804.4,1908.6z M2803.2,1907.8l-0.1,0.5c-0.2,0-0.5-0.1-0.7-0.1l0.1-0.5
										C2802.7,1907.7,2802.9,1907.8,2803.2,1907.8z M2801.8,1907.5l-0.1,0.5l-0.7-0.2l0.1-0.5L2801.8,1907.5z M2800.5,1907.2
										l-0.1,0.5l-0.7-0.2l0.1-0.5L2800.5,1907.2z M2799.1,1906.9l-0.1,0.5l-0.7-0.2l0.1-0.5L2799.1,1906.9z M2797.8,1906.6
										l-0.1,0.5l-0.7-0.2l0.1-0.5L2797.8,1906.6z M2788.6,1953.7l-0.5-0.1l0.1-0.7l0.5,0.1L2788.6,1953.7z M2788.8,1952.3
										l-0.5-0.1l0.1-0.7l0.5,0.1L2788.8,1952.3z M2789,1950.9l-0.5-0.1l0.1-0.7l0.5,0.1L2789,1950.9z M2789.2,1949.5l-0.5-0.1
										l0.1-0.7l0.5,0.1L2789.2,1949.5z M2789.4,1948.1l-0.5-0.1l0.1-0.7l0.5,0.1L2789.4,1948.1z M2789.6,1946.7l-0.5-0.1l0.1-0.7
										l0.5,0.1L2789.6,1946.7z M2789.8,1945.3l-0.5-0.1l0.1-0.7l0.5,0.1L2789.8,1945.3z M2790,1943.9l-0.5-0.1l0.1-0.7l0.5,0.1
										L2790,1943.9z M2790.2,1942.5l-0.5-0.1l0.1-0.7l0.5,0.1L2790.2,1942.5z M2790.4,1941.1l-0.5,0l0.1-0.7l0.5,0.1
										L2790.4,1941.1z M2796.3,1906.9c-0.2,0-0.4,0-0.6,0.1l-0.2-0.5c0.2-0.1,0.5-0.1,0.8-0.1L2796.3,1906.9z M2790.5,1939.7
										l-0.5-0.1l0.1-0.7l0.5,0.1L2790.5,1939.7z M2790.7,1938.3l-0.5-0.1l0.1-0.7l0.5,0.1L2790.7,1938.3z M2790.9,1936.9l-0.5,0
										l0.1-0.7l0.5,0.1L2790.9,1936.9z M2791.1,1935.5l-0.5,0l0.1-0.7l0.5,0.1L2791.1,1935.5z M2791.3,1934.1l-0.5,0l0.1-0.7
										l0.5,0.1L2791.3,1934.1z M2791.5,1932.8l-0.5-0.1l0.1-0.7l0.5,0.1L2791.5,1932.8z M2791.7,1931.4l-0.5-0.1l0.1-0.7l0.5,0.1
										L2791.7,1931.4z M2791.9,1930l-0.5-0.1l0.1-0.7l0.5,0.1L2791.9,1930z M2792.1,1928.6l-0.5-0.1l0.1-0.7l0.5,0.1
										L2792.1,1928.6z M2792.3,1927.2l-0.5-0.1l0.1-0.7l0.5,0.1L2792.3,1927.2z M2792.5,1925.8l-0.5-0.1l0.1-0.7l0.5,0.1
										L2792.5,1925.8z M2792.7,1924.4l-0.5-0.1l0.1-0.7l0.5,0.1L2792.7,1924.4z M2792.9,1923l-0.5-0.1l0.1-0.7l0.5,0.1
										L2792.9,1923z M2793.1,1921.6l-0.5-0.1l0.1-0.7l0.5,0.1L2793.1,1921.6z M2793.2,1920.3l-0.5-0.1l0.1-0.7l0.5,0.1
										L2793.2,1920.3z M2793.4,1918.9l-0.5-0.1l0.1-0.7l0.5,0.1L2793.4,1918.9z M2793.6,1917.5l-0.5-0.1l0.1-0.7l0.5,0.1
										L2793.6,1917.5z M2793.8,1916.1l-0.5-0.1l0.1-0.7l0.5,0.1L2793.8,1916.1z M2794,1914.7l-0.5-0.1l0.1-0.7l0.5,0.1
										L2794,1914.7z M2795.3,1907.3c-0.1,0.1-0.2,0.3-0.3,0.5l-0.5-0.2c0.1-0.3,0.2-0.5,0.4-0.7L2795.3,1907.3z M2794.2,1913.3
										l-0.5-0.1l0.1-0.7l0.5,0.1L2794.2,1913.3z M2794.4,1911.9l-0.5-0.1l0.1-0.7l0.5,0.1L2794.4,1911.9z M2794.6,1910.5
										l-0.5-0.1l0.1-0.7l0.5,0.1L2794.6,1910.5z M2794.8,1909.1l-0.5-0.1l0.1-0.7l0.5,0.1L2794.8,1909.1z" class="color58595b svgShape"></path><polygon fill="#58595b" points="2836.8 1913 2836.6 1913.5 2836.1 1913.4 2836.2 1913.3 2836 1913.2 2836.2 1912.7" class="color58595b svgShape"></polygon><path fill="#58595b" d="M2832.8,1961.7l-0.5,0l0-0.7l0.5,0L2832.8,1961.7z M2832.7,1960.3l-0.5,0l0-0.7l0.5,0L2832.7,1960.3z
										 M2832.6,1958.9l-0.5,0l0-0.7l0.5,0L2832.6,1958.9z M2832.6,1957.5l-0.5,0l0-0.7l0.5,0L2832.6,1957.5z M2832.5,1956.1
										l-0.5,0l0-0.7l0.5,0L2832.5,1956.1z M2832.5,1954.7h-0.5l0-0.7l0.5,0L2832.5,1954.7z M2832.5,1953.4l-0.5,0l0-0.7l0.5,0
										L2832.5,1953.4z M2832.5,1952l-0.5,0l0-0.7l0.5,0L2832.5,1952z M2832.5,1950.6l-0.5,0l0-0.7l0.5,0L2832.5,1950.6z
										 M2832.6,1949.2l-0.5,0l0-0.7l0.5,0L2832.6,1949.2z M2832.6,1947.8l-0.5,0l0-0.7l0.5,0L2832.6,1947.8z M2832.7,1946.4
										l-0.5,0l0-0.7l0.5,0L2832.7,1946.4z M2832.7,1945.1l-0.5,0l0-0.7l0.5,0L2832.7,1945.1z M2832.8,1943.7l-0.5,0l0-0.7l0.5,0
										L2832.8,1943.7z M2832.9,1942.3l-0.5,0l0-0.7l0.5,0L2832.9,1942.3z M2833,1940.9l-0.5,0l0.1-0.7l0.5,0L2833,1940.9z
										 M2833.1,1939.5l-0.5,0l0.1-0.7l0.5,0L2833.1,1939.5z M2833.2,1938.2l-0.5-0.1l0.1-0.7l0.5,0.1L2833.2,1938.2z
										 M2833.3,1936.8l-0.5-0.1l0.1-0.7l0.5,0.1L2833.3,1936.8z M2833.4,1935.4l-0.5-0.1l0.1-0.7l0.5,0.1L2833.4,1935.4z
										 M2833.6,1934l-0.5-0.1l0.1-0.7l0.5,0.1L2833.6,1934z M2833.7,1932.7l-0.5-0.1l0.1-0.7l0.5,0.1L2833.7,1932.7z
										 M2833.9,1931.3l-0.5-0.1l0.1-0.7l0.5,0.1L2833.9,1931.3z M2834.1,1929.9l-0.5-0.1l0.1-0.7l0.5,0.1L2834.1,1929.9z
										 M2834.2,1928.5l-0.5-0.1l0.1-0.7l0.5,0.1L2834.2,1928.5z M2834.4,1927.2l-0.5-0.1l0.1-0.7l0.5,0.1L2834.4,1927.2z
										 M2834.6,1925.8l-0.5-0.1l0.1-0.7l0.5,0.1L2834.6,1925.8z M2834.8,1924.4l-0.5-0.1l0.1-0.7l0.5,0.1L2834.8,1924.4z
										 M2835,1923.1l-0.5-0.1l0.1-0.7l0.5,0.1L2835,1923.1z M2835.2,1921.7l-0.5-0.1l0.1-0.7l0.5,0.1L2835.2,1921.7z
										 M2835.4,1920.3l-0.5-0.1l0.1-0.7l0.5,0.1L2835.4,1920.3z M2836.5,1914.2l-0.1,0.7l-0.5-0.1l0.1-0.7L2836.5,1914.2z
										 M2835.7,1919l-0.5-0.1l0.1-0.7l0.5,0.1L2835.7,1919z M2836.3,1915.6l-0.1,0.7l-0.5-0.1l0.1-0.7L2836.3,1915.6z
										 M2835.9,1917.6l-0.5-0.1l0.1-0.7l0.5,0.1L2835.9,1917.6z" class="color58595b svgShape"></path><polygon fill="#58595b" points="2832.8 1962.8 2832.5 1963.1 2832.1 1962.8 2832.3 1962.6 2832.3 1962.4 2832.8 1962.4" class="color58595b svgShape"></polygon><path fill="#58595b" d="M2832,1963.6l-0.5,0.5l-0.4-0.4l0.5-0.5L2832,1963.6z M2831.1,1964.6l-0.5,0.5l-0.4-0.4l0.5-0.5
										L2831.1,1964.6z M2830.1,1965.6l-0.5,0.5l-0.4-0.4l0.5-0.5L2830.1,1965.6z M2829.1,1966.6l-0.5,0.5l-0.4-0.4l0.5-0.5
										L2829.1,1966.6z M2828.2,1967.5l-0.5,0.5l-0.4-0.4l0.5-0.5L2828.2,1967.5z M2827.2,1968.5l-0.5,0.5l-0.4-0.4l0.5-0.5
										L2827.2,1968.5z M2826.3,1969.5l-0.5,0.5l-0.4-0.4l0.5-0.5L2826.3,1969.5z M2825.3,1970.5l-0.5,0.5l-0.4-0.4l0.5-0.5
										L2825.3,1970.5z M2824.4,1971.4l-0.5,0.5l-0.4-0.4l0.5-0.5L2824.4,1971.4z M2823.4,1972.4l-0.5,0.5l-0.4-0.4l0.5-0.5
										L2823.4,1972.4z M2822.4,1973.4l-0.5,0.5l-0.4-0.4l0.5-0.5L2822.4,1973.4z M2821.5,1974.3l-0.5,0.5l-0.4-0.4l0.5-0.5
										L2821.5,1974.3z M2820.5,1975.3l-0.5,0.5l-0.4-0.4l0.5-0.5L2820.5,1975.3z M2819.6,1976.3l-0.5,0.5l-0.4-0.4l0.5-0.5
										L2819.6,1976.3z M2818.6,1977.3l-0.5,0.5l-0.4-0.4l0.5-0.5L2818.6,1977.3z M2817.7,1978.2l-0.5,0.5l-0.4-0.4l0.5-0.5
										L2817.7,1978.2z M2816.7,1979.2l-0.5,0.5l-0.4-0.4l0.5-0.5L2816.7,1979.2z M2815.7,1980.2l-0.5,0.5l-0.4-0.4l0.5-0.5
										L2815.7,1980.2z M2814.8,1981.2l-0.5,0.5l-0.4-0.4l0.5-0.5L2814.8,1981.2z M2813.8,1982.1l-0.5,0.5l-0.4-0.4l0.5-0.5
										L2813.8,1982.1z M2812.7,1983.1c-0.2,0.1-0.4,0.1-0.6,0.1c-0.1,0-0.1,0-0.2,0l0.1-0.5c0,0,0.1,0,0.1,0c0.2,0,0.3,0,0.4-0.1
										L2812.7,1983.1z M2811.5,1982.4l-0.3,0.4c-0.1-0.1-0.2-0.2-0.3-0.3l-0.2-0.3l0.4-0.3l0.2,0.3
										C2811.3,1982.3,2811.4,1982.3,2811.5,1982.4z M2810.6,1981.4l-0.4,0.3l-0.4-0.5l0.4-0.3L2810.6,1981.4z M2809.7,1980.3
										l-0.4,0.3l-0.4-0.5l0.4-0.3L2809.7,1980.3z M2808.8,1979.3l-0.4,0.3l-0.4-0.5l0.4-0.3L2808.8,1979.3z M2808,1978.2
										l-0.4,0.3l-0.4-0.5l0.4-0.3L2808,1978.2z M2807.1,1977.1l-0.4,0.3l-0.4-0.5l0.4-0.3L2807.1,1977.1z M2806.2,1976.1
										l-0.4,0.3l-0.4-0.5l0.4-0.3L2806.2,1976.1z M2805.3,1975l-0.4,0.3l-0.4-0.5l0.4-0.3L2805.3,1975z M2804.5,1973.9l-0.4,0.3
										l-0.4-0.5l0.4-0.3L2804.5,1973.9z M2803.6,1972.9l-0.4,0.3l-0.4-0.5l0.4-0.3L2803.6,1972.9z M2802.7,1971.8l-0.4,0.3
										l-0.4-0.5l0.4-0.3L2802.7,1971.8z M2801.8,1970.7l-0.4,0.3l-0.4-0.5l0.4-0.3L2801.8,1970.7z M2800.9,1969.7l-0.4,0.3
										l-0.4-0.5l0.4-0.3L2800.9,1969.7z M2800.1,1968.6l-0.4,0.3l-0.4-0.5l0.4-0.3L2800.1,1968.6z M2799.2,1967.5l-0.4,0.3
										l-0.4-0.5l0.4-0.3L2799.2,1967.5z M2798.3,1966.5l-0.4,0.3l-0.4-0.5l0.4-0.3L2798.3,1966.5z M2797.4,1965.4l-0.4,0.3
										l-0.4-0.5l0.4-0.3L2797.4,1965.4z M2796.5,1964.4l-0.4,0.3l-0.4-0.5l0.4-0.3L2796.5,1964.4z M2795.7,1963.3l-0.4,0.3
										l-0.4-0.5l0.4-0.3L2795.7,1963.3z M2794.8,1962.2l-0.4,0.3l-0.4-0.5l0.4-0.3L2794.8,1962.2z M2793.9,1961.2l-0.4,0.3
										l-0.4-0.5l0.4-0.3L2793.9,1961.2z M2793,1960.1l-0.4,0.3l-0.4-0.5l0.4-0.3L2793,1960.1z M2792.2,1959l-0.4,0.3l-0.4-0.5
										l0.4-0.3L2792.2,1959z M2791.3,1958l-0.4,0.3l-0.4-0.5l0.4-0.3L2791.3,1958z M2790.4,1956.9l-0.4,0.3l-0.4-0.5l0.4-0.3
										L2790.4,1956.9z M2789.5,1955.8l-0.4,0.3l-0.4-0.5l0.4-0.3L2789.5,1955.8z" class="color58595b svgShape"></path><g fill="#000000" class="color000000 svgShape"><path fill="#e6e7e8" d="M2813.5 1975.9c-.1 1.5-1.3 2.6-2.8 2.5-1.5-.1-2.6-1.4-2.5-2.9.1-1.5 1.3-2.6 2.8-2.5C2812.4 1973.1 2813.6 1974.4 2813.5 1975.9zM2809 1975.6c-.1 1 .7 1.9 1.7 2 1 .1 1.9-.7 1.9-1.7.1-1-.7-1.9-1.7-2C2809.9 1973.8 2809.1 1974.6 2809 1975.6zM2805.2 1965.1c-.1 1.5-1.3 2.6-2.8 2.5-1.5-.1-2.6-1.4-2.5-2.9.1-1.5 1.3-2.6 2.8-2.5C2804.2 1962.3 2805.3 1963.6 2805.2 1965.1zM2800.8 1964.8c-.1 1 .7 1.9 1.7 2 1 .1 1.9-.7 1.9-1.7.1-1-.7-1.9-1.7-2C2801.7 1963 2800.8 1963.8 2800.8 1964.8z" class="colore6e7e8 svgShape"></path><g fill="#000000" class="color000000 svgShape"><path fill="#1f2023" d="M2810.6,1975.4c0.3-0.2,0.6,0,0.8,0.2c0.1,0.1,0.1,0.2,0.1,0.3c0,0.2-0.1,0.4-0.3,0.5
										c-0.3,0.2-6.5,3.4-11,3.2c-0.1,0-0.3,0-0.4,0c-0.5-0.1-0.9-0.2-1.4-0.3c-0.5-0.2-0.9-0.4-1.3-0.7c-1.5-1.3-1.9-3.6-1.2-7
										c0.3,0.5,0.6,1,0.9,1.5c-0.3,2.2,0,3.7,1,4.5c0.1,0.1,0.2,0.1,0.3,0.2c0.4,0.2,0.8,0.4,1.2,0.5c0.1,0,0.2,0,0.2,0.1
										C2802.9,1978.9,2808.4,1976.6,2810.6,1975.4z" class="color231f20 svgShape"></path><path fill="#1f2023" d="M2802.3,1964.9c0.3,0.2,0.4,0.5,0.2,0.8c-1.2,2.3-3.7,8.1-3.3,11.9c0,0.2,0,0.4,0.1,0.6
										c0.1,0.5,0.2,0.9,0.4,1.3c0.1,0.2,0.2,0.3,0.3,0.4c0.2,0.2,0.4,0.4,0.6,0.5c0.3,0.5,0.5,1.1,0.7,1.6
										c-0.9-0.3-1.7-0.8-2.2-1.5c-0.3-0.4-0.6-0.9-0.8-1.5c-0.1-0.4-0.2-0.9-0.3-1.4c-0.1-0.7,0-1.5,0-2.3
										c0.5-4.7,3.3-10,3.4-10.3C2801.6,1964.9,2802,1964.8,2802.3,1964.9z" class="color231f20 svgShape"></path></g></g><g fill="#000000" class="color000000 svgShape"><path fill="#e6e7e8" d="M2796.4,1954.6c-0.3,1.5-1.6,2.4-3.1,2.2c-1.4-0.3-2.4-1.7-2.1-3.1c0.3-1.5,1.6-2.4,3.1-2.2
									C2795.7,1951.7,2796.7,1953.1,2796.4,1954.6z M2792.1,1953.8c-0.2,1,0.5,2,1.5,2.2c1,0.2,1.9-0.5,2.1-1.5
									c0.2-1-0.5-2-1.5-2.2C2793.2,1952.1,2792.2,1952.7,2792.1,1953.8z" class="colore6e7e8 svgShape"></path><path fill="#1f2023" d="M2794.2,1953.7c0.2,0.2,0.2,0.6,0,0.8c-1.3,1.3-3.9,4.7-4.6,7.5c-0.3,1-0.3,1.9,0,2.6
									c0.4,1.1,1.5,1.8,3.3,2.2c0.3,0.4,0.6,0.9,0.9,1.3c-2.8-0.4-4.6-1.4-5.2-3.1c-0.5-1.3-0.3-2.7,0.2-4.2
									c1.2-3.5,4.5-7,4.6-7.2C2793.6,1953.5,2794,1953.4,2794.2,1953.7z" class="color231f20 svgShape"></path></g><g fill="#000000" class="color000000 svgShape"><rect width="46.7" height="71.9" x="2109.3" y="2106.6" fill="#9bc9f7" transform="rotate(-170.694 2132.787 2142.587)" class="colorf7c19b svgShape"></rect><path fill="#021b79" d="M2144.6,2193.6l5.2,10.4l1.3,3.3c0.7,1.9,0.9,4,0.5,6.1l-1.6,7.9c-0.4,2-2.3,3.2-4.3,2.8l-8.7-1.8
							l0.5-2.2l-4.7-1l-0.5,2.2l-10.5-1.9l0.4-1.8l-4.9-1l-0.4,2l-11.7-2.5l-4.4-8.9c-9.9,0.8-19.1,2.4-27.1,5
							c-0.4,0.2-12.3-2.2-12.3-2.5l0.4-1.8l-4.6-1l-0.4,1.8c-3.9-0.5-7.7-1.3-11.3-2.3l0.4-1.9l-4.5-0.9l-0.3,1.5
							c-4-0.8-7.4-2-10.2-3.5l0.3-1.5l-4.4-1.5l-0.3,1.3c-2.6-0.9-4.9-2.1-7-3.6l0.5-1.4l-3.7-2.5l-1.1,1.3c-4-2.7-7.6-5.4-10.6-8.1
							c0,0,0.5-6.2,4.3-5.7l48.9,4.6l63.1,4.3L2144.6,2193.6z" class="color333333 svgShape"></path><path fill="#58595b" d="M2154.4,2191.2c-0.6,2.9-1.5,5.8-2.7,8.6l-1.9,4.3c-18.3-4.1-35.8-6.3-51.8-5.6c-3.3,0.1-6.6,0.4-9.9,0.8
							c-27.7,3.6-54.2-3.4-79.6-19.6l0.9-4.3c0.7-3.2,3.5-5.5,6.7-5.5l21.4,0.1c3.8,0,7.6,0.1,11.4,0.2c10.7,0.2,21-1.9,31.1-6
							c0.6-0.2,1.1-0.5,1.7-0.7c0.3-0.1,0.6-0.3,1-0.4c-0.4,4.6,2.8,11,3,11.3c0.1,0.2,0.3,0.3,0.5,0.3c0.1,0,0.2,0,0.3-0.1
							c0.3-0.1,0.4-0.5,0.3-0.8c-1.1-2.3-3.4-7.9-2.8-11.4c0.2-0.1,0.5-0.2,0.7-0.3c3.8-0.2,9.5,2.4,11.9,3.7
							c0.3,0.2,0.6,0.1,0.8-0.2c0.2-0.3,0.1-0.6-0.2-0.8c-0.3-0.2-5.6-3.1-10.3-3.8c0.8-0.4,1.7-0.9,2.5-1.3c0.5-0.3,1-0.6,1.6-0.9
							c1.1-0.6,2.2-1.3,3.4-2c0.4-0.3,0.9-0.5,1.3-0.8c1.6-1,3.3-2.1,4.9-3.3c2.8,0.8,6.1,3.6,7.4,4.9c0.2,0.2,0.6,0.2,0.8,0
							c0.2-0.2,0.2-0.6,0-0.8c-0.2-0.2-3.6-3.6-7.1-4.9c0.7-0.5,1.3-0.9,1.9-1.4c1.1-0.8,2.4-1.1,3.7-0.9l48,8.1
							c1.8,0.3,2.9,2,2.5,3.8l-1.3,5.6c-1,4.1-1.4,8.4-1.1,12.7C2155.5,2183.6,2155.2,2187.5,2154.4,2191.2z" class="color58595b svgShape"></path><path fill="#1f2023" d="M2086.3 2174.7c-.1.1-.2.1-.3.1-.2 0-.4-.1-.5-.3-.2-.3-3.3-6.7-3-11.3.4-.2.8-.4 1.3-.6-.6 3.4 1.6 9.1 2.8 11.4C2086.7 2174.2 2086.6 2174.5 2086.3 2174.7zM2097.2 2165.7c-.2.3-.5.4-.8.2-2.3-1.3-8.1-4-11.9-3.7.7-.4 1.4-.7 2.2-1.1 4.7.6 10 3.6 10.3 3.8C2097.2 2165.1 2097.3 2165.4 2097.2 2165.7z" class="color231f20 svgShape"></path><path fill="#303030" d="M2108.6,2157.8c-0.2,0.2-0.6,0.2-0.8,0c-1.3-1.3-4.6-4.1-7.4-4.9c0.4-0.3,0.8-0.6,1.2-0.8
							c3.5,1.4,6.9,4.7,7.1,4.9C2108.8,2157.2,2108.8,2157.6,2108.6,2157.8z" class="color303030 svgShape"></path><path fill="#404042" d="M2154.4,2191.2c-0.6,2.9-1.5,5.8-2.7,8.6l-1.9,4.3c-18.3-4.1-35.8-6.3-51.8-5.6l-20.2-21.2
							c-1.2-1.2-1-3.2,0.3-4.2l29.1-23.3l48,8.1c1.8,0.3,2.9,2,2.5,3.8l-1.3,5.6c-1,4.1-1.4,8.4-1.1,12.7
							C2155.5,2183.6,2155.2,2187.5,2154.4,2191.2z" class="color414042 svgShape"></path><polygon fill="#58595b" points="2107.6 2152.1 2107.3 2151.6 2107.6 2151.4 2108.1 2151.4 2108 2151.9 2107.8 2151.9" class="color58595b svgShape"></polygon><path fill="#58595b" d="M2149,2201.2l-0.5-0.2l0.3-0.6l0.5,0.2L2149,2201.2z M2149.6,2199.9l-0.5-0.2l0.3-0.6l0.5,0.2
										L2149.6,2199.9z M2150.2,2198.6l-0.5-0.2c0.1-0.2,0.2-0.4,0.3-0.6l0.5,0.2C2150.4,2198.2,2150.3,2198.4,2150.2,2198.6z
										 M2150.7,2197.3l-0.5-0.2c0.1-0.2,0.2-0.4,0.3-0.7l0.5,0.2C2150.9,2196.9,2150.8,2197.1,2150.7,2197.3z M2151.2,2196
										l-0.5-0.2c0.1-0.2,0.2-0.4,0.2-0.7l0.5,0.2C2151.4,2195.5,2151.3,2195.8,2151.2,2196z M2151.7,2194.6l-0.5-0.2
										c0.1-0.2,0.1-0.4,0.2-0.7l0.5,0.1C2151.8,2194.2,2151.7,2194.4,2151.7,2194.6z M2152.1,2193.3l-0.5-0.1
										c0.1-0.2,0.1-0.4,0.2-0.7l0.5,0.1C2152.2,2192.8,2152.1,2193.1,2152.1,2193.3z M2152.4,2191.9l-0.5-0.1
										c0.1-0.2,0.1-0.5,0.2-0.7l0.5,0.1C2152.5,2191.5,2152.5,2191.7,2152.4,2191.9z M2152.2,2190.4c0-0.2,0.1-0.5,0.1-0.7
										l0.5,0.1c0,0.2-0.1,0.5-0.1,0.7L2152.2,2190.4z M2152.5,2189.1c0-0.2,0.1-0.5,0.1-0.7l0.5,0.1c0,0.2-0.1,0.5-0.1,0.7
										L2152.5,2189.1z M2152.7,2187.7c0-0.2,0.1-0.5,0.1-0.7l0.5,0.1c0,0.2-0.1,0.5-0.1,0.7L2152.7,2187.7z M2152.8,2186.3
										c0-0.2,0-0.5,0.1-0.7l0.5,0c0,0.2,0,0.5-0.1,0.7L2152.8,2186.3z M2152.9,2184.9c0-0.2,0-0.5,0-0.7l0.5,0c0,0.2,0,0.5,0,0.7
										L2152.9,2184.9z M2153,2183.5c0-0.2,0-0.5,0-0.7l0.5,0c0,0.2,0,0.5,0,0.7L2153,2183.5z M2153,2182.1c0-0.2,0-0.5,0-0.7
										l0.5,0c0,0.2,0,0.5,0,0.7L2153,2182.1z M2153,2180.7c0-0.2,0-0.5,0-0.7l0.5,0c0,0.2,0,0.5,0,0.7L2153,2180.7z
										 M2152.9,2179.3c0-0.2,0-0.5,0-0.7l0.5,0c0,0.2,0,0.5,0,0.7L2152.9,2179.3z M2152.9,2177.9c0-0.2,0-0.5,0-0.7l0.5,0
										c0,0.2,0,0.5,0,0.7L2152.9,2177.9z M2152.9,2176.5c0-0.2,0-0.5,0-0.7l0.5,0c0,0.2,0,0.5,0,0.7L2152.9,2176.5z
										 M2152.9,2175.1c0-0.2,0-0.5,0-0.7l0.5,0c0,0.2,0,0.5,0,0.7L2152.9,2175.1z M2153,2173.6c0-0.2,0-0.5,0.1-0.7l0.5,0
										c0,0.2,0,0.5-0.1,0.7L2153,2173.6z M2153.1,2172.2c0-0.2,0.1-0.5,0.1-0.7l0.5,0.1c0,0.2-0.1,0.5-0.1,0.7L2153.1,2172.2z
										 M2153.3,2170.8c0-0.2,0.1-0.5,0.1-0.7l0.5,0.1c0,0.2-0.1,0.5-0.1,0.7L2153.3,2170.8z M2153.5,2169.4
										c0-0.2,0.1-0.5,0.1-0.7l0.5,0.1c0,0.2-0.1,0.5-0.1,0.7L2153.5,2169.4z M2154.3,2168.2l-0.5-0.1c0-0.2,0.1-0.5,0.2-0.7
										l0.5,0.1C2154.4,2167.7,2154.4,2167.9,2154.3,2168.2z M2154.6,2166.8l-0.5-0.1l0.2-0.7l0.5,0.1L2154.6,2166.8z
										 M2155,2165.4l-0.5-0.1l0.2-0.7l0.5,0.1L2155,2165.4z M2155.3,2164.1l-0.5-0.1l0.2-0.7l0.5,0.1L2155.3,2164.1z
										 M2155.6,2162.7l-0.5-0.1l0.2-0.7l0.5,0.1L2155.6,2162.7z M2108.7,2152.1l0.1-0.5l0.7,0.1l-0.1,0.5L2108.7,2152.1z
										 M2110.1,2152.3l0.1-0.5l0.7,0.1l-0.1,0.5L2110.1,2152.3z M2111.5,2152.5l0.1-0.5l0.7,0.1l-0.1,0.5L2111.5,2152.5z
										 M2112.9,2152.8l0.1-0.5l0.7,0.1l-0.1,0.5L2112.9,2152.8z M2114.3,2153l0.1-0.5l0.7,0.1l-0.1,0.5L2114.3,2153z
										 M2115.6,2153.2l0.1-0.5l0.7,0.1l-0.1,0.5L2115.6,2153.2z M2117,2153.5l0.1-0.5l0.7,0.1l-0.1,0.5L2117,2153.5z
										 M2118.4,2153.7l0.1-0.5l0.7,0.1l-0.1,0.5L2118.4,2153.7z M2119.8,2153.9l0.1-0.5l0.7,0.1l-0.1,0.5L2119.8,2153.9z
										 M2121.3,2154.2l0-0.5l0.7,0.1l-0.1,0.5L2121.3,2154.2z M2155.4,2161.2c0-0.2,0-0.4-0.1-0.6l0.5-0.2
										c0.1,0.3,0.1,0.5,0.1,0.8L2155.4,2161.2z M2122.6,2154.4l0.1-0.5l0.7,0.1l-0.1,0.5L2122.6,2154.4z M2124,2154.6l0.1-0.5
										l0.7,0.1l-0.1,0.5L2124,2154.6z M2125.4,2154.9l0-0.5l0.7,0.1l-0.1,0.5L2125.4,2154.9z M2126.8,2155.1l0-0.5l0.7,0.1
										l-0.1,0.5L2126.8,2155.1z M2128.2,2155.4l0.1-0.5l0.7,0.1l-0.1,0.5L2128.2,2155.4z M2129.5,2155.6l0.1-0.5l0.7,0.1
										l-0.1,0.5L2129.5,2155.6z M2130.9,2155.8l0.1-0.5l0.7,0.1l-0.1,0.5L2130.9,2155.8z M2132.3,2156.1l0.1-0.5l0.7,0.1
										l-0.1,0.5L2132.3,2156.1z M2133.7,2156.3l0.1-0.5l0.7,0.1l-0.1,0.5L2133.7,2156.3z M2135.1,2156.5l0.1-0.5l0.7,0.1
										l-0.1,0.5L2135.1,2156.5z M2136.5,2156.8l0.1-0.5l0.7,0.1l-0.1,0.5L2136.5,2156.8z M2137.9,2157l0.1-0.5l0.7,0.1l-0.1,0.5
										L2137.9,2157z M2139.3,2157.2l0.1-0.5l0.7,0.1l-0.1,0.5L2139.3,2157.2z M2140.6,2157.5l0.1-0.5l0.7,0.1l-0.1,0.5
										L2140.6,2157.5z M2142,2157.7l0.1-0.5l0.7,0.1l-0.1,0.5L2142,2157.7z M2143.4,2157.9l0.1-0.5l0.7,0.1l-0.1,0.5
										L2143.4,2157.9z M2144.8,2158.2l0.1-0.5l0.7,0.1l-0.1,0.5L2144.8,2158.2z M2146.2,2158.4l0.1-0.5l0.7,0.1l-0.1,0.5
										L2146.2,2158.4z M2147.6,2158.6l0.1-0.5l0.7,0.1l-0.1,0.5L2147.6,2158.6z M2155,2160.2c-0.1-0.1-0.3-0.2-0.5-0.3l0.2-0.5
										c0.3,0.1,0.5,0.2,0.7,0.4L2155,2160.2z M2149,2158.9l0.1-0.5l0.7,0.1l-0.1,0.5L2149,2158.9z M2150.4,2159.1l0.1-0.5
										l0.7,0.1l-0.1,0.5L2150.4,2159.1z M2151.8,2159.3l0.1-0.5l0.7,0.1l-0.1,0.5L2151.8,2159.3z M2153.2,2159.6l0.1-0.5l0.7,0.1
										l-0.1,0.5L2153.2,2159.6z" class="color58595b svgShape"></path><polygon fill="#58595b" points="2148.6 2202.3 2148 2202.2 2148.1 2201.7 2148.2 2201.7 2148.3 2201.6 2148.8 2201.8" class="color58595b svgShape"></polygon><path fill="#58595b" d="M2099.9,2196.9l0-0.5l0.7,0l0,0.5L2099.9,2196.9z M2101.3,2196.8l0-0.5l0.7,0l0,0.5L2101.3,2196.8z
										 M2102.7,2196.8l0-0.5l0.7,0l0,0.5L2102.7,2196.8z M2104,2196.8l0-0.5l0.7,0l0,0.5H2104z M2105.4,2196.8l0-0.5l0.7,0l0,0.5
										L2105.4,2196.8z M2106.8,2196.8l0-0.5l0.7,0l0,0.5L2106.8,2196.8z M2108.2,2196.9l0-0.5l0.7,0l0,0.5L2108.2,2196.9z
										 M2109.6,2196.9l0-0.5l0.7,0l0,0.5L2109.6,2196.9z M2111,2197l0-0.5l0.7,0l0,0.5L2111,2197z M2112.4,2197l0-0.5l0.7,0
										l0,0.5L2112.4,2197z M2113.7,2197.1l0-0.5l0.7,0l0,0.5L2113.7,2197.1z M2115.1,2197.2l0-0.5l0.7,0l0,0.5L2115.1,2197.2z
										 M2116.5,2197.3l0-0.5l0.7,0.1l0,0.5L2116.5,2197.3z M2117.9,2197.4l0-0.5l0.7,0.1l0,0.5L2117.9,2197.4z M2119.3,2197.5
										l0-0.5l0.7,0.1l-0.1,0.5L2119.3,2197.5z M2120.7,2197.7l0.1-0.5l0.7,0.1l-0.1,0.5L2120.7,2197.7z M2122,2197.8l0.1-0.5
										l0.7,0.1l-0.1,0.5L2122,2197.8z M2123.4,2198l0.1-0.5l0.7,0.1l-0.1,0.5L2123.4,2198z M2124.8,2198.1l0.1-0.5l0.7,0.1
										l-0.1,0.5L2124.8,2198.1z M2126.2,2198.3l0.1-0.5l0.7,0.1l-0.1,0.5L2126.2,2198.3z M2127.5,2198.5l0.1-0.5l0.7,0.1
										l-0.1,0.5L2127.5,2198.5z M2128.9,2198.7l0.1-0.5l0.7,0.1l-0.1,0.5L2128.9,2198.7z M2130.3,2198.9l0.1-0.5l0.7,0.1
										l-0.1,0.5L2130.3,2198.9z M2131.7,2199.1l0.1-0.5l0.7,0.1l-0.1,0.5L2131.7,2199.1z M2133,2199.3l0.1-0.5l0.7,0.1l-0.1,0.5
										L2133,2199.3z M2134.4,2199.5l0.1-0.5l0.7,0.1l-0.1,0.5L2134.4,2199.5z M2135.8,2199.8l0.1-0.5l0.7,0.1l-0.1,0.5
										L2135.8,2199.8z M2137.1,2200l0.1-0.5l0.7,0.1l-0.1,0.5L2137.1,2200z M2138.5,2200.2l0.1-0.5l0.7,0.1l-0.1,0.5
										L2138.5,2200.2z M2139.8,2200.5l0.1-0.5l0.7,0.1l-0.1,0.5L2139.8,2200.5z M2141.2,2200.8l0.1-0.5l0.7,0.1l-0.1,0.5
										L2141.2,2200.8z M2147.3,2202l-0.7-0.1l0.1-0.5l0.7,0.1L2147.3,2202z M2142.6,2201l0.1-0.5l0.7,0.1l-0.1,0.5L2142.6,2201z
										 M2146,2201.7l-0.7-0.1l0.1-0.5l0.7,0.1L2146,2201.7z M2143.9,2201.3l0.1-0.5l0.7,0.1l-0.1,0.5L2143.9,2201.3z" class="color58595b svgShape"></path><polygon fill="#58595b" points="2098.7 2196.9 2098.4 2196.6 2098.8 2196.2 2098.9 2196.4 2099.2 2196.4 2099.2 2196.9" class="color58595b svgShape"></polygon><path fill="#58595b" d="M2097.9,2196.1l-0.5-0.5l0.4-0.4l0.5,0.5L2097.9,2196.1z M2097,2195.1l-0.5-0.5l0.4-0.4l0.5,0.5
										L2097,2195.1z M2096,2194.1l-0.5-0.5l0.4-0.4l0.5,0.5L2096,2194.1z M2095.1,2193.1l-0.5-0.5l0.4-0.4l0.5,0.5L2095.1,2193.1
										z M2094.1,2192.1l-0.5-0.5l0.4-0.4l0.5,0.5L2094.1,2192.1z M2093.1,2191.1l-0.5-0.5l0.4-0.4l0.5,0.5L2093.1,2191.1z
										 M2092.2,2190.1l-0.5-0.5l0.4-0.4l0.5,0.5L2092.2,2190.1z M2091.2,2189.1l-0.5-0.5l0.4-0.4l0.5,0.5L2091.2,2189.1z
										 M2090.3,2188.1l-0.5-0.5l0.4-0.4l0.5,0.5L2090.3,2188.1z M2089.3,2187l-0.5-0.5l0.4-0.4l0.5,0.5L2089.3,2187z
										 M2088.4,2186l-0.5-0.5l0.4-0.4l0.5,0.5L2088.4,2186z M2087.4,2185l-0.5-0.5l0.4-0.4l0.5,0.5L2087.4,2185z M2086.4,2184
										l-0.5-0.5l0.4-0.4l0.5,0.5L2086.4,2184z M2085.5,2183l-0.5-0.5l0.4-0.4l0.5,0.5L2085.5,2183z M2084.5,2182l-0.5-0.5
										l0.4-0.4l0.5,0.5L2084.5,2182z M2083.6,2181l-0.5-0.5l0.4-0.4l0.5,0.5L2083.6,2181z M2082.6,2180l-0.5-0.5l0.4-0.4l0.5,0.5
										L2082.6,2180z M2081.7,2179l-0.5-0.5l0.4-0.4l0.5,0.5L2081.7,2179z M2080.7,2178l-0.5-0.5l0.4-0.4l0.5,0.5L2080.7,2178z
										 M2079.7,2177l-0.5-0.5l0.4-0.4l0.5,0.5L2079.7,2177z M2078.8,2175.8c-0.1-0.2-0.1-0.4-0.1-0.6c0-0.1,0-0.1,0-0.2l0.5,0.1
										c0,0,0,0.1,0,0.1c0,0.2,0,0.3,0.1,0.4L2078.8,2175.8z M2079.5,2174.6l-0.4-0.3c0.1-0.1,0.2-0.2,0.3-0.3l0.3-0.2l0.3,0.4
										l-0.3,0.2C2079.6,2174.4,2079.6,2174.5,2079.5,2174.6z M2080.5,2173.7l-0.3-0.4l0.5-0.4l0.3,0.4L2080.5,2173.7z
										 M2081.6,2172.9l-0.3-0.4l0.5-0.4l0.3,0.4L2081.6,2172.9z M2082.7,2172l-0.3-0.4l0.5-0.4l0.3,0.4L2082.7,2172z
										 M2083.8,2171.1l-0.3-0.4l0.5-0.4l0.3,0.4L2083.8,2171.1z M2084.9,2170.3l-0.3-0.4l0.5-0.4l0.3,0.4L2084.9,2170.3z
										 M2085.9,2169.4l-0.3-0.4l0.5-0.4l0.3,0.4L2085.9,2169.4z M2087,2168.5l-0.3-0.4l0.5-0.4l0.3,0.4L2087,2168.5z
										 M2088.1,2167.7l-0.3-0.4l0.5-0.4l0.3,0.4L2088.1,2167.7z M2089.2,2166.8l-0.3-0.4l0.5-0.4l0.3,0.4L2089.2,2166.8z
										 M2090.3,2165.9l-0.3-0.4l0.5-0.4l0.3,0.4L2090.3,2165.9z M2091.4,2165.1l-0.3-0.4l0.5-0.4l0.3,0.4L2091.4,2165.1z
										 M2092.4,2164.2l-0.3-0.4l0.5-0.4l0.3,0.4L2092.4,2164.2z M2093.5,2163.3l-0.3-0.4l0.5-0.4l0.3,0.4L2093.5,2163.3z
										 M2094.6,2162.5l-0.3-0.4l0.5-0.4l0.3,0.4L2094.6,2162.5z M2095.7,2161.6l-0.3-0.4l0.5-0.4l0.3,0.4L2095.7,2161.6z
										 M2096.8,2160.7l-0.3-0.4l0.5-0.4l0.3,0.4L2096.8,2160.7z M2097.8,2159.9l-0.3-0.4l0.5-0.4l0.3,0.4L2097.8,2159.9z
										 M2098.9,2159l-0.3-0.4l0.5-0.4l0.3,0.4L2098.9,2159z M2100,2158.1l-0.3-0.4l0.5-0.4l0.3,0.4L2100,2158.1z M2101.1,2157.3
										l-0.3-0.4l0.5-0.4l0.3,0.4L2101.1,2157.3z M2102.2,2156.4l-0.3-0.4l0.5-0.4l0.3,0.4L2102.2,2156.4z M2103.3,2155.5
										l-0.3-0.4l0.5-0.4l0.3,0.4L2103.3,2155.5z M2104.3,2154.7l-0.3-0.4l0.5-0.4l0.3,0.4L2104.3,2154.7z M2105.4,2153.8
										l-0.3-0.4l0.5-0.4l0.3,0.4L2105.4,2153.8z M2106.5,2152.9l-0.3-0.4l0.5-0.4l0.3,0.4L2106.5,2152.9z" class="color58595b svgShape"></path><g fill="#000000" class="color000000 svgShape"><path fill="#e6e7e8" d="M2086 2176.8c-1.5-.1-2.6-1.4-2.5-2.9.1-1.5 1.4-2.6 2.9-2.5 1.5.1 2.6 1.4 2.5 2.9C2088.8 2175.8 2087.5 2177 2086 2176.8zM2086.4 2172.3c-1-.1-1.9.7-2 1.7-.1 1 .7 1.9 1.7 2 1 .1 1.9-.7 2-1.7C2088.2 2173.3 2087.4 2172.4 2086.4 2172.3zM2096.9 2168.7c-1.5-.1-2.6-1.4-2.5-2.9.1-1.5 1.4-2.6 2.9-2.5 1.5.1 2.6 1.4 2.5 2.9C2099.7 2167.7 2098.4 2168.8 2096.9 2168.7zM2097.3 2164.1c-1-.1-1.9.7-2 1.7-.1 1 .7 1.9 1.7 2 1 .1 1.9-.7 2-1.7C2099.1 2165.1 2098.3 2164.2 2097.3 2164.1z" class="colore6e7e8 svgShape"></path><g fill="#000000" class="color000000 svgShape"><path fill="#1f2023" d="M2086.6,2173.9c0.1,0.3,0,0.6-0.3,0.8c-0.1,0.1-0.2,0.1-0.3,0.1c-0.2,0-0.4-0.1-0.5-0.3
										c-0.2-0.3-3.3-6.7-3-11.3c0-0.1,0-0.3,0-0.4c0.1-0.5,0.2-1,0.3-1.4c0.2-0.5,0.4-0.9,0.8-1.3c1.3-1.5,3.7-1.9,7-1
										c-0.5,0.3-1,0.6-1.6,0.9c-2.2-0.4-3.7-0.1-4.6,0.9c-0.1,0.1-0.1,0.2-0.2,0.3c-0.2,0.4-0.4,0.8-0.5,1.2c0,0.1,0,0.2-0.1,0.3
										C2083.2,2165.9,2085.4,2171.6,2086.6,2173.9z" class="color231f20 svgShape"></path><path fill="#1f2023" d="M2097.2,2165.7c-0.2,0.3-0.5,0.4-0.8,0.2c-2.3-1.3-8.1-4-11.9-3.7c-0.2,0-0.4,0-0.6,0.1
										c-0.5,0.1-0.9,0.2-1.3,0.4c-0.2,0.1-0.3,0.2-0.5,0.3c-0.2,0.2-0.4,0.4-0.6,0.6c-0.6,0.2-1.1,0.5-1.7,0.7
										c0.3-0.9,0.8-1.7,1.5-2.2c0.4-0.3,0.9-0.6,1.5-0.7c0.4-0.1,0.9-0.2,1.4-0.3c0.7,0,1.5,0,2.3,0.1c4.7,0.6,10,3.6,10.3,3.8
										C2097.2,2165.1,2097.3,2165.4,2097.2,2165.7z" class="color231f20 svgShape"></path></g></g><g fill="#000000" class="color000000 svgShape"><path fill="#e6e7e8" d="M2107.6,2160c-1.5-0.3-2.4-1.7-2.1-3.2c0.3-1.5,1.7-2.4,3.2-2.1c1.5,0.3,2.4,1.7,2.1,3.2
									C2110.5,2159.4,2109.1,2160.3,2107.6,2160z M2108.5,2155.6c-1-0.2-2,0.4-2.2,1.4c-0.2,1,0.4,2,1.4,2.2c1,0.2,2-0.4,2.2-1.5
									C2110.2,2156.8,2109.5,2155.8,2108.5,2155.6z" class="colore6e7e8 svgShape"></path><path fill="#1f2023" d="M2108.6,2157.8c-0.2,0.2-0.6,0.2-0.8,0c-1.3-1.3-4.6-4.1-7.4-4.9c-1-0.3-1.9-0.3-2.6-0.1
									c-1.1,0.4-1.9,1.5-2.3,3.3c-0.4,0.3-0.9,0.6-1.3,0.8c0.4-2.8,1.5-4.6,3.2-5.2c1.3-0.5,2.7-0.3,4.2,0.3
									c3.5,1.4,6.9,4.7,7.1,4.9C2108.8,2157.2,2108.8,2157.6,2108.6,2157.8z" class="color231f20 svgShape"></path></g></g><path fill="#021b79" d="M2456,1560.6l85.4,256.4c2.8,8.5,9.7,15.1,18.4,17.6l220.5,63.2l-6.5,62.8l-223.9-35.8
					c-46.9-7.5-88.6-33.9-115.6-72.9L2331.1,1702l-120.2,181.5l-44.7,258.8l-62.3-9.5l5.1-236c0.5-30.6,6.9-60.9,19-89.1
					l113.9-265.7l113.8-28.1L2456,1560.6z" class="color333333 svgShape"></path><path fill="#9bc9f7" d="M2297.4,1195c24.5,35.3,43.8,30.1,58.3-13.3l-2-42.6l-56.2,8.1l0,27.3l0,4.9l0,6.8l0,5L2297.4,1195z" class="colorf7c19b svgShape"></path><path fill="#9bc9f7" d="M2284.4,1062.8c0,0-27.5,54.1-13.5,89c7.3,18.1,27.3,27.5,46.1,22.3c14.3-4,35.8-12.5,54.1-30
					c1.6-1.5,4.5-53.4,4.5-53.4l-9.9-19.1L2320,1059L2284.4,1062.8z" class="colorf7c19b svgShape"></path><path fill="#021b79" d="M2327.4,1116.3l9.8-19c0,0-6.4,1.5-14,1.7c-11.1,0.2-20.1-8.7-20.3-19.8l0-2.7c0,0-44.6-8.4-25.8-45.7
					c4.8-9.5,14.8-15.2,25.3-14.2c9.3,0.9,22.3,5.2,39.1,17.2c6.3,4.5,14.7,4.8,22.3,3.1c8.2-1.9,20.2,0,25.2,24.3
					c0.9,4.2,2.3,8.3,4.5,11.9c6.1,10.3,13.7,54.6-37.1,91.2c-2.2,1.6-5.1-0.7-4.1-3.2c6.2-15.4,16.9-47.1,0.6-49.7
					c-3.9-0.6-7.9,0.9-10.7,3.7l-6.8,6.8c-1.9,1.9-4.9,1.9-6.8,0.1l0,0C2326.8,1120.6,2326.4,1118.2,2327.4,1116.3z" class="color333333 svgShape"></path><path fill="#9bc9f7" d="M1998.7,1321.2l-12.3-17.4c-2-2.8-2.7-6.2-2-9.5l2.9-14.3c0.6-2.7-1.2-5.4-3.9-6l0,0
					c-2.2-0.5-4.5,0.5-5.6,2.5l-6.2,11.4c-1.7,3-5.6,3.9-8.4,1.9l-28.2-20.6c-2.2-1.6-5.3-1.2-7,1l0,0c-1.6,2.1-1.3,5.2,0.7,6.9
					l14.8,12.8l-16.8-14.5c-2.4-2.1-6.1-1.7-8,0.9l0,0c-1.7,2.4-1.3,5.6,1,7.5l25.3,20.7l-20-16.7c-2.3-1.9-5.8-1.6-7.7,0.8l0,0
					c-1.9,2.4-1.5,5.8,0.9,7.7l27.4,21.8l-20.6-16.6c-2.3-1.8-5.7-1.5-7.6,0.8l0,0c-1.8,2.2-1.6,5.5,0.4,7.4
					c15.6,14.8,34.8,28.8,56.1,42.2L1998.7,1321.2z" class="colorf7c19b svgShape"></path><g fill="#000000" class="color000000 svgShape"><path fill="#f1f1f2" d="M2369.7,1204.1l-14-22.4c-14.9,24.5-34,30-58.3,13.3l-54.3,102.2l24.2,42.8l16.3,159.2l25.3,74
						c15.1,18.6,36.9,19.5,62.5,10.3l27.7-22.5l27.6-162.5l-5.1-67.1c0,0-17.1-46-19.5-48.2
						C2399.9,1281.1,2369.7,1204.1,2369.7,1204.1z" class="colorf1f2f2 svgShape"></path><path fill="#2654ff" d="M1995.5 1309.2c0 0 130.3 64.8 135.3 61.9 13.4-7.9 21.5-25.2 28.6-38.2 16.6-30.5 35.9-62 61-86.4 7.7-7.5 15.9-14.7 24.5-21.3 7.7-5.9 15.8-11.4 24.3-16.3 4.5-2.6 9-5 13.6-7.3 1.7-.8 13.6-5.7 14.8-6.6-1.8 14-3.5 28-5.3 41.9-3.3 26.3-3.6 51.5.8 77.9 3.6 21.1 8.4 42 10.2 63.3 2.1 24.9-1.7 49.3-2.8 74.1-2.1 46.2 5.8 92.6 10.4 138.5.7 6.6-4.7 12.2-11.2 11.9-26.2-1.3-48.8-9.8-67.9-25.9-2-1.7-3.2-4.3-3.1-7 1.1-30.7 2.8-61.4 4.9-92.1 2.3-33.5 3.3-119.2-2.5-120.1-5.2-.8-8.8 9.2-11.6 13.9-13.7 23.5-30.8 53-47.8 69.1-1.7 1.4-3.7 3.5-5.7 4.5-17.7 13.9-42.7 13.3-59.7-1.4l-143.7-93.6L1995.5 1309.2zM2355.7 1181.8c0 0-.4 12.9-.5 13.6-1.3 53.4-6.9 107.6-3.9 161 3.8 66.8 25.3 131.9 21.7 199.2-.3 5.6-.7 11.3-1.4 16.9-.4 3.4-1.8 8.1 0 11.2 19.6 34 82.1 30.9 99.8 30.2 2.9-.1 5.1-2.6 4.9-5.5l-16.3-162.6c-1.4-13.9-2-28-1.8-42l1.7-114c.8-50.9-35.2-95-85.2-104.5L2355.7 1181.8z" class="colorffa726 svgShape"></path></g><path fill="#96c0ea" d="M2297.4,1186.2c25.7-1.4,42.2-18.1,43.2-19.1c-17.4,11.3-39.5,8.1-43.2,7.4l0,4.9L2297.4,1186.2z" class="coloreab896 svgShape"></path><path fill="#2654ff" d="M2580,1454.1l53.1-20.8l-65-137.7c-11.4-24.1-29.5-44.4-52.1-58.5c-35-21.8-92.3-50.1-160.4-55.4
					l55.5,103.5c33.1,4.4,65.6,16.5,97.1,39C2521.3,1328.8,2580,1454.1,2580,1454.1z" class="colorffa726 svgShape"></path><polygon fill="#5071ef" points="1765 1315.1 1746.3 1336.9 1708 1325.6 1718.5 1313.6" class="coloref5350 svgShape"></polygon><polygon fill="#5071ef" points="1833.8 1940.7 1820.2 1956.5 1792.5 1948.3 1800.1 1939.6" class="coloref5350 svgShape"></polygon><polygon fill="#5071ef" points="2356 1885.5 2357.6 1906.2 2332.2 1920.1 2331.4 1908.6" class="coloref5350 svgShape"></polygon><polygon fill="#5071ef" points="1960.7 1591.1 1981.4 1589.5 1995.3 1614.9 1983.8 1615.7" class="coloref5350 svgShape"></polygon><path fill="#6690bb" d="M2023.7 1806.8c1.4 1.2 32 15.7 32 15.7l11-7.3-29.9-16.5L2023.7 1806.8zM2115.9 1486.9c1.4 1.2 32 15.7 32 15.7l11-7.3-29.9-16.5L2115.9 1486.9zM2075.9 1040.8c.1 1.8 11.5 33.8 11.5 33.8l12.9 2.6-9.5-32.8L2075.9 1040.8z" class="color66bb6a svgShape"></path><path fill="#e0e0e0" d="M1793.2 1579.8c1.4 1.2 32 15.7 32 15.7l11-7.3-29.9-16.5L1793.2 1579.8zM1935 1999.1c1.4 1.2 32 15.7 32 15.7l11-7.3-29.9-16.5L1935 1999.1zM2185.1 1176.6c1.4 1.2 32 15.7 32 15.7l11-7.3-29.9-16.5L2185.1 1176.6z" class="colore0e0e0 svgShape"></path><polygon fill="#5071ef" points="2770.9 1722.1 2768.4 1742.8 2740.8 1751.4 2742.3 1740" class="coloref5350 svgShape"></polygon><polygon fill="#5071ef" points="2962.2 1576.4 2975 1592.8 2961.6 1618.5 2954.6 1609.3" class="coloref5350 svgShape"></polygon><polygon fill="#5071ef" points="2619.4 1061.6 2635.8 1048.8 2661.4 1062.1 2652.3 1069.2" class="coloref5350 svgShape"></polygon><path fill="#6690bb" d="M2818.2 1190.2c1.8.3 35.4-4.7 35.4-4.7l5.1-12.1-34.1 2.9L2818.2 1190.2zM2601.2 1279.9c1.1 1.5 28.4 21.7 28.4 21.7l12.2-5-26.2-22L2601.2 1279.9z" class="color66bb6a svgShape"></path><path fill="#e0e0e0" d="M2868,1372.1c1.8,0.3,35.4-4.7,35.4-4.7l5.1-12.1l-34.1,2.9L2868,1372.1z" class="colore0e0e0 svgShape"></path></g></svg>