<svg xmlns="http://www.w3.org/2000/svg" viewBox="0 0 2000 2000" id="SystemSecurity"><linearGradient id="a" x1="1006.991" x2="1006.991" y1="1518.543" y2="1698.521" gradientUnits="userSpaceOnUse"><stop offset="0" stop-color="#b3d8fd" class="stopColorb3cdfd svgShape"></stop><stop offset=".987" stop-color="#ffffff" class="stopColorffffff svgShape"></stop></linearGradient><ellipse cx="1006.99" cy="1583.72" fill="url(#a)" rx="685.41" ry="13.45"></ellipse><linearGradient id="b" x1="280.38" x2="2080.848" y1="1706.769" y2="368.657" gradientUnits="userSpaceOnUse"><stop offset="0" stop-color="#b3d8fd" class="stopColorb3cdfd svgShape"></stop><stop offset=".987" stop-color="#ffffff" class="stopColorffffff svgShape"></stop></linearGradient><path fill="url(#b)" d="M845.63 1317.9c82.88-48.65 176.11-76.81 269.6-99.06 119.38-28.41 244.96-49.62 345.31-120.24 102.35-72.03 167.93-193.72 171.86-318.81-36.92-27.93-77.25-43.12-118.64-48.58-105.85-13.98-218.49 35.57-298.01 97.76-17.61 13.78-33.6 28.17-47.53 42.64-110.54 114.79-289.1 210.44-569.69 342.24-280.59 131.79-199.82 369.87-199.82 369.87s97.73-.21 237.23-.43h1.87c3.6-19.33 9.34-38.32 16.66-56.55 35.82-89.18 108.28-160.19 191.16-208.84z"></path><linearGradient id="c" x1="1911.927" x2="615.364" y1="692.823" y2="2056.916" gradientUnits="userSpaceOnUse"><stop offset="0" stop-color="#b3d8fd" class="stopColorb3cdfd svgShape"></stop><stop offset=".987" stop-color="#ffffff" class="stopColorffffff svgShape"></stop></linearGradient><path fill="url(#c)" d="M1565.73 1583.72c16.79-18.75 27.29-38.81 33.53-59.49 24.69-81.7-17.06-172.88.48-229.61 3.85-12.46 12.5-29.12 23.59-49.01 56.55-101.45 176.64-287.1 48.69-429.27-12.65-14.05-25.9-26.18-39.61-36.55-3.93 125.09-69.51 246.79-171.86 318.81-100.36 70.62-225.93 91.83-345.31 120.24-93.49 22.25-186.72 50.4-269.6 99.06-82.88 48.65-155.34 119.66-191.15 208.84-7.32 18.22-13.05 37.22-16.66 56.55 131.43-.21 299.52-.43 457.85-.49 209.98-.09 402.79.09 470.05.92z"></path><path fill="#92c8ff" d="M469.56 1374.78c-14.52-11.48-38.84 3.39-44.79 7.36 1.5-9.48 3.66-18.9 6.05-28.21 49 10.56 60.09-16.55 40.1-23.36-17.45-5.95-35.34 16.01-39.71 21.83 1.18-4.57 2.42-9.12 3.64-13.65 2.26-8.36 4.55-16.86 6.54-25.44 37.94 6.88 45.82-14.27 30.23-19.07-13.1-4.03-25.92 11.85-29.8 17.21 2-8.82 3.65-17.72 4.57-26.66.09-.91.19-1.89.27-2.92 34.3-4.56 35.19-24.76 20.61-24.54-12.02.18-18.51 16.61-20.46 22.52.43-6.3.45-14.14-1.31-21.8-.98-4.24-2.46-8.2-4.38-11.75 26.2-20.97 16.84-38.38 4.51-30.9-9.08 5.51-8.03 19.78-6.76 27.23-1.47-2.14-3.11-4.08-4.92-5.78-10.54-31.71-30.06-28.99-27.35-14.84 2.22 11.54 18.79 15.18 25.29 16.17 5.39 4.91 9.37 12.06 11.29 20.4 1.38 5.99 1.62 12.15 1.44 17.53-11.48-27.74-29.36-24.24-26.4-10.7 2.57 11.73 19.92 14.83 26.12 15.57-.1 1.25-.21 2.46-.32 3.55-.87 8.43-2.41 16.85-4.27 25.2-11.75-34.6-33.23-31.53-30.27-15.8 2.62 13.9 23.83 17.66 29.69 18.43-2 8.68-4.33 17.28-6.62 25.74-1.04 3.86-2.09 7.74-3.11 11.63-4.38-46.03-31.87-48.61-33-28.12-1.02 18.54 25.33 29.86 31.9 32.39-2.23 8.73-4.25 17.55-5.71 26.45-12.94-46.94-41.51-44.39-38.57-23.7 2.7 19.05 32.72 24.78 38.26 25.68-1.51 9.78-2.32 19.64-1.91 29.58.22 5.27.95 11.22 4.74 15.39l1.76-1.6c-3.28-3.61-3.92-9.05-4.12-13.89-.39-9.45.34-18.86 1.74-28.21 42.25 25.84 61.52 4.12 45.03-8.92z" class="color9892ff svgShape"></path><path fill="#1d4bf7" d="M455.7 1582.31s-5.72-378.64-135.43-468.29c-129.71-89.65-160.23 60.09-77.25 173.58s110.64 294.71 110.64 294.71H455.7z" class="colorf7941d svgShape"></path><path fill="#0053a7" d="M557.75 1266.62c-80.12 7.63-114.93 156.48-114.93 156.48v.01c11.8 87.98 12.88 159.21 12.88 159.21h66.76c93.47-185.99 115.41-323.33 35.29-315.7z" class="color00a79d svgShape"></path><path fill="#ffffff" d="M400.3 1582.43c-.12-4.4-.35-12.11-.65-16.62-.29-4.52-.64-9.05-1.04-13.57-.82-9.05-1.75-18.09-2.91-27.11-2.24-18.05-5.16-36.03-8.6-53.92-6.84-35.78-16.12-71.1-27.47-105.75-5.79-17.29-12.07-34.42-18.97-51.31-1.72-4.22-3.57-8.39-5.34-12.6l-2.69-6.29-2.85-6.22-5.73-12.43-6.05-12.28c-1.02-2.04-1.99-4.11-3.06-6.12l-3.2-6.05c-2.15-4.02-4.23-8.09-6.45-12.08l-6.77-11.91c-1.15-1.97-2.21-4-3.43-5.93l-3.57-5.85c-2.4-3.89-4.72-7.82-7.18-11.67l-7.52-11.46c-1.26-1.9-2.49-3.84-3.79-5.71l-3.95-5.6-7.91-11.2 8.15 11.03 4.07 5.52c1.34 1.85 2.6 3.76 3.91 5.64l7.77 11.31c2.54 3.8 4.95 7.69 7.43 11.54l3.7 5.78c1.26 1.91 2.37 3.91 3.56 5.87l7.03 11.79c2.31 3.95 4.47 7.99 6.72 11.98l3.34 6c1.12 2 2.13 4.05 3.2 6.08l6.33 12.19 6.01 12.35 2.99 6.19 2.83 6.26c1.87 4.18 3.81 8.33 5.63 12.54 7.28 16.82 13.95 33.9 20.14 51.16 12.14 34.6 22.22 69.96 29.88 105.87 3.84 17.95 7.16 36.02 9.81 54.21 1.36 9.09 2.5 18.21 3.52 27.36.5 4.57.95 9.16 1.34 13.75.4 4.61.73 12.29.95 17.03l-9.18.23zm67.17-.12c2.47-12.46 5.22-25.52 8.11-37.81 2.89-12.27 5.96-24.5 9.19-36.67 3.23-12.18 6.64-24.31 10.21-36.39 3.6-12.07 7.4-24.09 11.4-36.04 8.05-23.87 16.95-47.48 27.42-70.4 5.18-11.48 10.92-22.71 17.14-33.66 6.25-10.92 13.06-21.55 20.87-31.4-7.51 10.09-13.97 20.89-19.87 31.96a407.18 407.18 0 0 0-16.04 34.02c-9.72 23.13-17.86 46.88-25.15 70.87-3.61 12.01-7.03 24.07-10.24 36.19-3.19 12.13-6.21 24.3-9.06 36.5s-5.52 24.46-8.03 36.74c-2.49 12.27-4.74 23.81-6.78 36.08h-9.17z" opacity=".5" class="colorffffff svgShape"></path><ellipse cx="480.74" cy="1063.19" fill="#444856" rx="16.98" ry="17.3" class="color444c56 svgShape"></ellipse><path fill="#444856" d="M452.75 1037.81a4.166 4.166 0 0 0 0 5.82 3.99 3.99 0 0 0 5.72 0 30.566 30.566 0 0 1 43.75 0c.79.8 1.82 1.21 2.86 1.21 1.03 0 2.07-.4 2.86-1.21 1.58-1.61 1.58-4.22 0-5.82-15.22-15.5-39.98-15.5-55.19 0z" class="color444c56 svgShape"></path><path fill="#444856" d="M480.34 1005.51c-14.71 0-28.53 5.83-38.93 16.43-1.58 1.61-1.58 4.22 0 5.82a3.99 3.99 0 0 0 5.72 0c8.87-9.04 20.67-14.02 33.22-14.02s24.34 4.98 33.22 14.02c.79.8 1.82 1.21 2.86 1.21 1.03 0 2.07-.4 2.86-1.21a4.166 4.166 0 0 0 0-5.82c-10.42-10.6-24.25-16.43-38.95-16.43z" class="color444c56 svgShape"></path><path fill="#444856" d="M528.21 1006.06c-12.79-13.03-29.79-20.2-47.87-20.2s-35.08 7.17-47.87 20.2a4.166 4.166 0 0 0 0 5.82 3.99 3.99 0 0 0 5.72 0c11.26-11.47 26.23-17.79 42.16-17.79 15.92 0 30.9 6.32 42.16 17.79.79.8 1.82 1.21 2.86 1.21s2.07-.4 2.86-1.21c1.56-1.6 1.56-4.21-.02-5.82z" class="color444c56 svgShape"></path><path fill="#0053a7" d="M1728.87 876.15c-40.99 0-74.34 33.35-74.34 74.34 0 41 33.35 74.35 74.34 74.35s74.34-33.35 74.34-74.35c0-40.99-33.35-74.34-74.34-74.34zm0 14.26c33.13 0 60.09 26.95 60.09 60.08 0 33.13-26.96 60.09-60.09 60.09s-60.09-26.96-60.09-60.09 26.96-60.08 60.09-60.08z" class="color00a79d svgShape"></path><path fill="#393d4e" d="M1420.08 1582.43h-416.82c-7.91 0-14.32-6.41-14.32-14.32v-379.23h445.45v379.23c.01 7.91-6.4 14.32-14.31 14.32z" class="color39414e svgShape"></path><path fill="#2f323f" d="M1406.45 1487.53H1016.9c-2.18 0-3.95-1.77-3.95-3.95v-8.36c0-2.18 1.77-3.95 3.95-3.95h389.55c2.18 0 3.95 1.77 3.95 3.95v8.36c0 2.18-1.77 3.95-3.95 3.95zm0-52.67H1016.9c-2.18 0-3.95-1.77-3.95-3.95v-8.36c0-2.18 1.77-3.95 3.95-3.95h389.55c2.18 0 3.95 1.77 3.95 3.95v8.36c0 2.18-1.77 3.95-3.95 3.95zm0 105.35H1016.9c-2.18 0-3.95-1.77-3.95-3.95v-8.36c0-2.18 1.77-3.95 3.95-3.95h389.55c2.18 0 3.95 1.77 3.95 3.95v8.36c0 2.18-1.77 3.95-3.95 3.95z" class="color2f353f svgShape"></path><path fill="#393d4e" d="M1428.43 815.53H994.92c-4.78 0-8.65-3.87-8.65-8.65v-67.22c0-4.78 3.87-8.65 8.65-8.65h433.51c4.78 0 8.65 3.87 8.65 8.65v67.22c0 4.78-3.87 8.65-8.65 8.65z" class="color39414e svgShape"></path><path fill="#636776" d="M997.23 815.56h428.89v12.2H997.23z" class="color636b76 svgShape"></path><path fill="#2f323f" d="M997.23 815.56h428.89v4.27H997.23zM1085.75 796.53h331.69a3.93 3.93 0 0 0 3.93-3.93v-50.99a3.93 3.93 0 0 0-3.93-3.93h-331.69a3.93 3.93 0 0 0-3.93 3.93v50.99c0 2.18 1.76 3.93 3.93 3.93z" class="color2f353f svgShape"></path><path fill="#7ab7f5" d="M1409.14 780.14h-83.87a3.55 3.55 0 0 1-3.55-3.55v-31.05a3.55 3.55 0 0 1 3.55-3.55h83.87a3.55 3.55 0 0 1 3.55 3.55v31.05a3.55 3.55 0 0 1-3.55 3.55z" class="color7acdf5 svgShape"></path><path fill="#0575e6" d="M1321.89 786.13h10.28v6.76h-10.28zM1375.45 786.13h10.28v6.76h-10.28zM1348.67 786.13h10.28v6.76h-10.28zM1402.24 786.13h10.28v6.76h-10.28z" class="color1b75bc svgShape"></path><path fill="#393d4e" d="M1428.43 912.59H994.92c-4.78 0-8.65-3.87-8.65-8.65v-67.22c0-4.78 3.87-8.65 8.65-8.65h433.51c4.78 0 8.65 3.87 8.65 8.65v67.22c0 4.78-3.87 8.65-8.65 8.65z" class="color39414e svgShape"></path><path fill="#636776" d="M997.23 912.62h428.89v12.2H997.23z" class="color636b76 svgShape"></path><path fill="#2f323f" d="M997.23 912.62h428.89v4.27H997.23zM1085.75 893.6h331.69a3.93 3.93 0 0 0 3.93-3.93v-50.99a3.93 3.93 0 0 0-3.93-3.93h-331.69a3.93 3.93 0 0 0-3.93 3.93v50.99a3.93 3.93 0 0 0 3.93 3.93z" class="color2f353f svgShape"></path><path fill="#7ab7f5" d="M1409.14 877.2h-83.87a3.55 3.55 0 0 1-3.55-3.55V842.6a3.55 3.55 0 0 1 3.55-3.55h83.87a3.55 3.55 0 0 1 3.55 3.55v31.05a3.55 3.55 0 0 1-3.55 3.55z" class="color7acdf5 svgShape"></path><path fill="#0575e6" d="M1321.89 883.19h10.28v6.76h-10.28zM1375.45 883.19h10.28v6.76h-10.28zM1348.67 883.19h10.28v6.76h-10.28zM1402.24 883.19h10.28v6.76h-10.28z" class="color1b75bc svgShape"></path><path fill="#393d4e" d="M1428.43 1009.65H994.92c-4.78 0-8.65-3.87-8.65-8.65v-67.22c0-4.78 3.87-8.65 8.65-8.65h433.51c4.78 0 8.65 3.87 8.65 8.65V1001c0 4.78-3.87 8.65-8.65 8.65z" class="color39414e svgShape"></path><path fill="#636776" d="M997.23 1009.68h428.89v12.2H997.23z" class="color636b76 svgShape"></path><path fill="#2f323f" d="M997.23 1009.68h428.89v4.27H997.23zM1085.75 990.66h331.69a3.93 3.93 0 0 0 3.93-3.93v-50.99a3.93 3.93 0 0 0-3.93-3.93h-331.69a3.93 3.93 0 0 0-3.93 3.93v50.99a3.93 3.93 0 0 0 3.93 3.93z" class="color2f353f svgShape"></path><path fill="#7ab7f5" d="M1409.14 974.26h-83.87a3.55 3.55 0 0 1-3.55-3.55v-31.05a3.55 3.55 0 0 1 3.55-3.55h83.87a3.55 3.55 0 0 1 3.55 3.55v31.05a3.55 3.55 0 0 1-3.55 3.55z" class="color7acdf5 svgShape"></path><path fill="#0575e6" d="M1321.89 980.25h10.28v6.76h-10.28zM1375.45 980.25h10.28v6.76h-10.28zM1348.67 980.25h10.28v6.76h-10.28zM1402.24 980.25h10.28v6.76h-10.28z" class="color1b75bc svgShape"></path><path fill="#393d4e" d="M1428.43 1106.71H994.92c-4.78 0-8.65-3.87-8.65-8.65v-67.22c0-4.78 3.87-8.65 8.65-8.65h433.51c4.78 0 8.65 3.87 8.65 8.65v67.22c0 4.78-3.87 8.65-8.65 8.65z" class="color39414e svgShape"></path><path fill="#636776" d="M997.23 1106.74h428.89v12.2H997.23z" class="color636b76 svgShape"></path><path fill="#2f323f" d="M997.23 1106.74h428.89v4.27H997.23zM1085.75 1087.72h331.69a3.93 3.93 0 0 0 3.93-3.93v-50.99a3.93 3.93 0 0 0-3.93-3.93h-331.69a3.93 3.93 0 0 0-3.93 3.93v50.99a3.93 3.93 0 0 0 3.93 3.93z" class="color2f353f svgShape"></path><path fill="#7ab7f5" d="M1409.14 1071.32h-83.87a3.55 3.55 0 0 1-3.55-3.55v-31.05a3.55 3.55 0 0 1 3.55-3.55h83.87a3.55 3.55 0 0 1 3.55 3.55v31.05c0 1.97-1.59 3.55-3.55 3.55z" class="color7acdf5 svgShape"></path><path fill="#0575e6" d="M1321.89 1077.31h10.28v6.76h-10.28zM1375.45 1077.31h10.28v6.76h-10.28zM1348.67 1077.31h10.28v6.76h-10.28zM1402.24 1077.31h10.28v6.76h-10.28z" class="color1b75bc svgShape"></path><path fill="#2f323f" d="M997.23 1203.81h428.89v4.27H997.23z" class="color2f353f svgShape"></path><path fill="#393d4e" d="M1428.43 1203.78H994.92c-4.78 0-8.65-3.87-8.65-8.65v-67.22c0-4.78 3.87-8.65 8.65-8.65h433.51c4.78 0 8.65 3.87 8.65 8.65v67.22c0 4.77-3.87 8.65-8.65 8.65z" class="color39414e svgShape"></path><path fill="#2f323f" d="M1085.75 1184.78h331.69a3.93 3.93 0 0 0 3.93-3.93v-50.99a3.93 3.93 0 0 0-3.93-3.93h-331.69a3.93 3.93 0 0 0-3.93 3.93v50.99a3.93 3.93 0 0 0 3.93 3.93z" class="color2f353f svgShape"></path><path fill="#7ab7f5" d="M1409.14 1168.39h-83.87a3.55 3.55 0 0 1-3.55-3.55v-31.05a3.55 3.55 0 0 1 3.55-3.55h83.87a3.55 3.55 0 0 1 3.55 3.55v31.05a3.55 3.55 0 0 1-3.55 3.55z" class="color7acdf5 svgShape"></path><path fill="#0575e6" d="M1321.89 1174.38h10.28v6.76h-10.28zM1375.45 1174.38h10.28v6.76h-10.28zM1348.67 1174.38h10.28v6.76h-10.28zM1402.24 1174.38h10.28v6.76h-10.28z" class="color1b75bc svgShape"></path><path fill="#4067fb" d="M1286.74 1306.52h-150.13c-4.31 0-7.8-3.49-7.8-7.8v-16.48c0-4.31 3.49-7.8 7.8-7.8h150.13c4.31 0 7.8 3.49 7.8 7.8v16.48c0 4.31-3.5 7.8-7.8 7.8z" class="colorfbb040 svgShape"></path><path fill="#2f323f" d="M1275.25 1296.13h-127.83c-1.46 0-2.64-1.18-2.64-2.64v-7.06c0-1.46 1.18-2.64 2.64-2.64h127.83c1.46 0 2.64 1.18 2.64 2.64v7.06c0 1.46-1.18 2.64-2.64 2.64z" class="color2f353f svgShape"></path><path fill="#4067fb" d="M1286.74 1367.99h-150.13c-4.31 0-7.8-3.49-7.8-7.8v-16.48c0-4.31 3.49-7.8 7.8-7.8h150.13c4.31 0 7.8 3.49 7.8 7.8v16.48c0 4.31-3.5 7.8-7.8 7.8z" class="colorfbb040 svgShape"></path><path fill="#2f323f" d="M1275.25 1357.61h-127.83c-1.46 0-2.64-1.18-2.64-2.64v-7.06c0-1.46 1.18-2.64 2.64-2.64h127.83c1.46 0 2.64 1.18 2.64 2.64v7.06c0 1.45-1.18 2.64-2.64 2.64z" class="color2f353f svgShape"></path><path fill="#393d4e" d="M1420.08 1582.43h-416.82c-7.91 0-14.32-6.41-14.32-14.32v-379.23h445.45v379.23c.01 7.91-6.4 14.32-14.31 14.32z" class="color39414e svgShape"></path><path fill="#2f323f" d="M1406.56 1487.53h-378.72c-2.12 0-3.84-1.77-3.84-3.95v-8.36c0-2.18 1.72-3.95 3.84-3.95h378.72c2.12 0 3.84 1.77 3.84 3.95v8.36c0 2.18-1.72 3.95-3.84 3.95zm0-52.67h-378.72c-2.12 0-3.84-1.77-3.84-3.95v-8.36c0-2.18 1.72-3.95 3.84-3.95h378.72c2.12 0 3.84 1.77 3.84 3.95v8.36c0 2.18-1.72 3.95-3.84 3.95zm0 105.35h-378.72c-2.12 0-3.84-1.77-3.84-3.95v-8.36c0-2.18 1.72-3.95 3.84-3.95h378.72c2.12 0 3.84 1.77 3.84 3.95v8.36c0 2.18-1.72 3.95-3.84 3.95z" class="color2f353f svgShape"></path><path fill="#393d4e" d="M1428.43 815.53H994.92c-4.78 0-8.65-3.87-8.65-8.65v-67.22c0-4.78 3.87-8.65 8.65-8.65h433.51c4.78 0 8.65 3.87 8.65 8.65v67.22c0 4.78-3.87 8.65-8.65 8.65z" class="color39414e svgShape"></path><path fill="#636776" d="M997.23 815.56h428.89v12.2H997.23z" class="color636b76 svgShape"></path><path fill="#2f323f" d="M997.23 815.56h428.89v4.27H997.23zM1085.75 796.53h331.69a3.93 3.93 0 0 0 3.93-3.93v-50.99a3.93 3.93 0 0 0-3.93-3.93h-331.69a3.93 3.93 0 0 0-3.93 3.93v50.99c0 2.18 1.76 3.93 3.93 3.93z" class="color2f353f svgShape"></path><path fill="#3591ed" d="M1409.14 780.14h-83.87a3.55 3.55 0 0 1-3.55-3.55v-31.05a3.55 3.55 0 0 1 3.55-3.55h83.87a3.55 3.55 0 0 1 3.55 3.55v31.05a3.55 3.55 0 0 1-3.55 3.55z" class="color5035ed svgShape"></path><path fill="#92c8ff" d="M1321.89 786.13h10.28v6.76h-10.28zM1375.45 786.13h10.28v6.76h-10.28zM1348.67 786.13h10.28v6.76h-10.28zM1402.24 786.13h10.28v6.76h-10.28z" class="color9892ff svgShape"></path><path fill="#393d4e" d="M1428.43 912.59H994.92c-4.78 0-8.65-3.87-8.65-8.65v-67.22c0-4.78 3.87-8.65 8.65-8.65h433.51c4.78 0 8.65 3.87 8.65 8.65v67.22c0 4.78-3.87 8.65-8.65 8.65z" class="color39414e svgShape"></path><path fill="#636776" d="M997.23 912.62h428.89v12.2H997.23z" class="color636b76 svgShape"></path><path fill="#2f323f" d="M997.23 912.62h428.89v4.27H997.23zM1085.75 893.6h331.69a3.93 3.93 0 0 0 3.93-3.93v-50.99a3.93 3.93 0 0 0-3.93-3.93h-331.69a3.93 3.93 0 0 0-3.93 3.93v50.99a3.93 3.93 0 0 0 3.93 3.93z" class="color2f353f svgShape"></path><path fill="#3591ed" d="M1409.14 877.2h-83.87a3.55 3.55 0 0 1-3.55-3.55V842.6a3.55 3.55 0 0 1 3.55-3.55h83.87a3.55 3.55 0 0 1 3.55 3.55v31.05a3.55 3.55 0 0 1-3.55 3.55z" class="color5035ed svgShape"></path><path fill="#92c8ff" d="M1321.89 883.19h10.28v6.76h-10.28zM1375.45 883.19h10.28v6.76h-10.28zM1348.67 883.19h10.28v6.76h-10.28zM1402.24 883.19h10.28v6.76h-10.28z" class="color9892ff svgShape"></path><path fill="#393d4e" d="M1428.43 1009.65H994.92c-4.78 0-8.65-3.87-8.65-8.65v-67.22c0-4.78 3.87-8.65 8.65-8.65h433.51c4.78 0 8.65 3.87 8.65 8.65V1001c0 4.78-3.87 8.65-8.65 8.65z" class="color39414e svgShape"></path><path fill="#636776" d="M997.23 1009.68h428.89v12.2H997.23z" class="color636b76 svgShape"></path><path fill="#2f323f" d="M997.23 1009.68h428.89v4.27H997.23zM1085.75 990.66h331.69a3.93 3.93 0 0 0 3.93-3.93v-50.99a3.93 3.93 0 0 0-3.93-3.93h-331.69a3.93 3.93 0 0 0-3.93 3.93v50.99a3.93 3.93 0 0 0 3.93 3.93z" class="color2f353f svgShape"></path><path fill="#3591ed" d="M1409.14 974.26h-83.87a3.55 3.55 0 0 1-3.55-3.55v-31.05a3.55 3.55 0 0 1 3.55-3.55h83.87a3.55 3.55 0 0 1 3.55 3.55v31.05a3.55 3.55 0 0 1-3.55 3.55z" class="color5035ed svgShape"></path><path fill="#92c8ff" d="M1321.89 980.25h10.28v6.76h-10.28zM1375.45 980.25h10.28v6.76h-10.28zM1348.67 980.25h10.28v6.76h-10.28zM1402.24 980.25h10.28v6.76h-10.28z" class="color9892ff svgShape"></path><path fill="#393d4e" d="M1428.43 1106.71H994.92c-4.78 0-8.65-3.87-8.65-8.65v-67.22c0-4.78 3.87-8.65 8.65-8.65h433.51c4.78 0 8.65 3.87 8.65 8.65v67.22c0 4.78-3.87 8.65-8.65 8.65z" class="color39414e svgShape"></path><path fill="#636776" d="M997.23 1106.74h428.89v12.2H997.23z" class="color636b76 svgShape"></path><path fill="#2f323f" d="M997.23 1106.74h428.89v4.27H997.23zM1085.75 1087.72h331.69a3.93 3.93 0 0 0 3.93-3.93v-50.99a3.93 3.93 0 0 0-3.93-3.93h-331.69a3.93 3.93 0 0 0-3.93 3.93v50.99a3.93 3.93 0 0 0 3.93 3.93z" class="color2f353f svgShape"></path><path fill="#3591ed" d="M1409.14 1071.32h-83.87a3.55 3.55 0 0 1-3.55-3.55v-31.05a3.55 3.55 0 0 1 3.55-3.55h83.87a3.55 3.55 0 0 1 3.55 3.55v31.05c0 1.97-1.59 3.55-3.55 3.55z" class="color5035ed svgShape"></path><path fill="#92c8ff" d="M1321.89 1077.31h10.28v6.76h-10.28zM1375.45 1077.31h10.28v6.76h-10.28zM1348.67 1077.31h10.28v6.76h-10.28zM1402.24 1077.31h10.28v6.76h-10.28z" class="color9892ff svgShape"></path><path fill="#2f323f" d="M997.23 1203.81h428.89v4.27H997.23z" class="color2f353f svgShape"></path><path fill="#393d4e" d="M1428.43 1203.78H994.92c-4.78 0-8.65-3.87-8.65-8.65v-67.22c0-4.78 3.87-8.65 8.65-8.65h433.51c4.78 0 8.65 3.87 8.65 8.65v67.22c0 4.77-3.87 8.65-8.65 8.65z" class="color39414e svgShape"></path><path fill="#2f323f" d="M1085.75 1184.78h331.69a3.93 3.93 0 0 0 3.93-3.93v-50.99a3.93 3.93 0 0 0-3.93-3.93h-331.69a3.93 3.93 0 0 0-3.93 3.93v50.99a3.93 3.93 0 0 0 3.93 3.93z" class="color2f353f svgShape"></path><path fill="#3591ed" d="M1409.14 1168.39h-83.87a3.55 3.55 0 0 1-3.55-3.55v-31.05a3.55 3.55 0 0 1 3.55-3.55h83.87a3.55 3.55 0 0 1 3.55 3.55v31.05a3.55 3.55 0 0 1-3.55 3.55z" class="color5035ed svgShape"></path><path fill="#92c8ff" d="M1321.89 1174.38h10.28v6.76h-10.28zM1375.45 1174.38h10.28v6.76h-10.28zM1348.67 1174.38h10.28v6.76h-10.28zM1402.24 1174.38h10.28v6.76h-10.28z" class="color9892ff svgShape"></path><path fill="#3591ed" d="M1286.74 1306.52h-150.13c-4.31 0-7.8-3.49-7.8-7.8v-16.48c0-4.31 3.49-7.8 7.8-7.8h150.13c4.31 0 7.8 3.49 7.8 7.8v16.48c0 4.31-3.5 7.8-7.8 7.8z" class="color5035ed svgShape"></path><path fill="#2f323f" d="M1275.25 1296.13h-127.83c-1.46 0-2.64-1.18-2.64-2.64v-7.06c0-1.46 1.18-2.64 2.64-2.64h127.83c1.46 0 2.64 1.18 2.64 2.64v7.06c0 1.46-1.18 2.64-2.64 2.64z" class="color2f353f svgShape"></path><path fill="#3591ed" d="M1286.74 1367.99h-150.13c-4.31 0-7.8-3.49-7.8-7.8v-16.48c0-4.31 3.49-7.8 7.8-7.8h150.13c4.31 0 7.8 3.49 7.8 7.8v16.48c0 4.31-3.5 7.8-7.8 7.8z" class="color5035ed svgShape"></path><path fill="#2f323f" d="M1275.25 1357.61h-127.83c-1.46 0-2.64-1.18-2.64-2.64v-7.06c0-1.46 1.18-2.64 2.64-2.64h127.83c1.46 0 2.64 1.18 2.64 2.64v7.06c0 1.45-1.18 2.64-2.64 2.64z" class="color2f353f svgShape"></path><path fill="#3591ed" d="M557.75 721.33c.1-1.12-.7-2.12-1.82-2.24l-14.43-1.59c-.87-3.05-2.08-5.95-3.59-8.66 3.02-3.78 6.05-7.55 9.07-11.33.7-.88.56-2.15-.3-2.87a87.157 87.157 0 0 1-10.61-10.61c-.72-.86-1.99-1-2.87-.3l-11.33 9.08a40.957 40.957 0 0 0-8.66-3.59l-1.59-14.43a2.056 2.056 0 0 0-2.24-1.82c-4.99.43-10.01.43-15 0-1.12-.1-2.12.7-2.24 1.82l-1.59 14.43c-3.05.87-5.95 2.08-8.66 3.59l-11.33-9.08c-.88-.7-2.15-.56-2.87.3a86.45 86.45 0 0 1-10.61 10.61c-.86.72-1 1.99-.3 2.87 3.02 3.78 6.05 7.55 9.07 11.33a40.957 40.957 0 0 0-3.59 8.66l-14.43 1.59a2.056 2.056 0 0 0-1.82 2.24c.43 4.99.43 10.01 0 15-.1 1.12.7 2.12 1.82 2.24l14.43 1.59c.87 3.05 2.08 5.95 3.59 8.66l-9.08 11.33c-.7.88-.56 2.15.3 2.87a86.45 86.45 0 0 1 10.61 10.61c.72.86 1.99 1 2.87.3 3.78-3.02 7.55-6.05 11.33-9.07 2.71 1.51 5.62 2.72 8.66 3.59l1.59 14.43c.12 1.12 1.12 1.91 2.24 1.82a87.37 87.37 0 0 1 15 0c1.12.1 2.12-.7 2.24-1.82l1.59-14.43c3.05-.87 5.95-2.08 8.66-3.59 3.78 3.03 7.55 6.05 11.33 9.07.88.7 2.15.56 2.87-.3a86.45 86.45 0 0 1 10.61-10.61c.86-.72 1-1.99.3-2.87-3.02-3.78-6.05-7.55-9.08-11.33 1.51-2.71 2.72-5.62 3.59-8.66l14.43-1.59a2.056 2.056 0 0 0 1.82-2.24 87.37 87.37 0 0 1 .02-15zm-55.87 31.25c-13.12 0-23.76-10.64-23.76-23.76 0-13.12 10.64-23.76 23.76-23.76 13.12 0 23.76 10.64 23.76 23.76 0 13.13-10.63 23.76-23.76 23.76z" class="color5035ed svgShape"></path><path fill="#0053a7" d="M1536.2 489.44c-30.17 0-54.63 24.46-54.63 54.63v53.69c0 9.31 6.65 17.07 15.45 18.79 2.14.42 4.36-.13 6.12-1.41l9.48-6.9c3.66-2.66 8.59-2.75 12.34-.22l7.34 4.95c3.51 2.37 8.11 2.3 11.54-.18l6.54-4.72c4.02-2.9 9.53-2.5 13.09.93l4.16 4.01c3.23 3.12 8.07 4 12.14 2.1 6.53-3.05 11.05-9.68 11.05-17.35v-53.69c.01-30.17-24.45-54.63-54.62-54.63zm-14.83 57.91c0 5.38-4.36 9.75-9.75 9.75-5.38 0-9.75-4.36-9.75-9.75v-11.02c0-5.38 4.36-9.75 9.75-9.75 5.38 0 9.75 4.36 9.75 9.75v11.02zm49.16 0c0 5.38-4.36 9.75-9.75 9.75-5.38 0-9.75-4.36-9.75-9.75v-11.02c0-5.38 4.36-9.75 9.75-9.75 5.38 0 9.75 4.36 9.75 9.75v11.02z" class="color00a79d svgShape"></path><g fill="#ffffff" class="colorffffff svgShape"><path d="M836.42 1199.3c-2.63 2.42-4.29 5.89-4.29 9.74.01 7.29 5.95 13.22 13.24 13.21 7.29-.01 13.22-5.95 13.21-13.24 0-3.51-1.39-6.7-3.63-9.06 3.81-6.14 8.09-9.91 9.82-9.53l1.14-5.17c-6.15-1.36-12.42 7.11-15.29 11.64a13.098 13.098 0 0 0-9.68-.33c-2.97-4.59-9.11-12.61-15.1-11.27l1.15 5.16c1.67-.36 5.71 3.11 9.43 8.85zm16.87 9.71c.01 4.38-3.55 7.94-7.93 7.95s-7.94-3.55-7.95-7.93c-.01-4.38 3.55-7.94 7.93-7.95s7.95 3.56 7.95 7.93z" fill="#000000" class="color000000 svgShape"></path><path d="m900.34 1291.07-9.79-32.5-11.78.02c-.16-3.63-.69-7.46-1.54-11.24l10.91-.01 5.96 5.95c-.56.97-.89 2.1-.89 3.3 0 3.65 2.98 6.61 6.62 6.61 3.65 0 6.61-2.98 6.61-6.62 0-3.65-2.98-6.61-6.62-6.6-.48 0-.95.06-1.4.15l-8.1-8.08-14.51.02c-.36-1.17-.74-2.33-1.17-3.46-.69-1.86-1.46-3.63-2.29-5.32 16.17-12.44 16.18-12.81 16.18-14.39l-.02-14.93a6.624 6.624 0 0 0 3.63-5.9c0-3.65-2.98-6.61-6.62-6.61-3.65 0-6.61 2.98-6.61 6.62 0 2.83 1.8 5.24 4.31 6.18l.02 13.59c-1.87 1.66-7.67 6.26-13.49 10.76-2.49-3.93-5.38-7.18-8.59-9.61l-2.28-1.72-1.54 2.4c-2.63 4.09-7.1 6.54-11.95 6.55-4.91.01-9.41-2.47-12.04-6.64l-1.52-2.41-2.29 1.69c-3.16 2.33-5.86 5.38-8.13 8.84-5.4-4.17-10.54-8.23-12.28-9.77l-.02-13.59a6.61 6.61 0 0 0 4.29-6.19c0-3.65-2.98-6.61-6.62-6.6-3.65 0-6.61 2.98-6.61 6.62 0 2.58 1.49 4.8 3.64 5.89l.02 14.93c0 1.53.01 1.92 14.9 13.34-1.57 3.11-2.85 6.42-3.86 9.79l-12.77.02-8.08 8.1c-.45-.1-.92-.15-1.4-.15-3.65 0-6.61 2.98-6.61 6.62 0 3.65 2.98 6.61 6.62 6.6 3.65 0 6.61-2.98 6.61-6.62 0-1.2-.33-2.33-.9-3.3l5.95-5.96 9.22-.01c-.82 3.86-1.3 7.68-1.44 11.24l-10.17.01-9.71 32.52c-3.1.55-5.47 3.26-5.47 6.52 0 3.65 2.98 6.61 6.62 6.61 3.65 0 6.61-2.98 6.61-6.62 0-2.14-1.03-4.04-2.61-5.25l8.51-28.49 6.31-.01c1.14 12.82 9.45 23.76 21.56 28.27v.07l1.86.57 3.43 1.05v-.2c2.12.41 4.27.62 6.45.62 2.29 0 4.55-.24 6.78-.71v.21l3.45-1.12 1.83-.59v-.07a33.284 33.284 0 0 0 21.16-28.19l7.92-.01 8.58 28.47a6.598 6.598 0 0 0-2.6 5.25c0 3.65 2.98 6.61 6.62 6.61 3.65 0 6.61-2.98 6.61-6.62a6.6 6.6 0 0 0-5.47-6.5zm1.46-34.5c0 1.09-.89 1.99-1.98 1.99-1.09 0-1.99-.89-1.99-1.98 0-1.09.89-1.99 1.98-1.99a1.98 1.98 0 0 1 1.99 1.98zm-16.28-60.5c1.09 0 1.99.89 1.99 1.98 0 1.09-.89 1.99-1.98 1.99-1.09 0-1.99-.89-1.99-1.98-.01-1.09.88-1.98 1.98-1.99zm-78.75.1c1.09 0 1.99.89 1.99 1.98 0 1.09-.89 1.99-1.98 1.99-1.09 0-1.99-.89-1.99-1.98a2 2 0 0 1 1.98-1.99zm-14.14 62.52c-1.09 0-1.99-.89-1.99-1.98 0-1.09.89-1.99 1.98-1.99 1.09 0 1.99.89 1.99 1.98.01 1.1-.88 1.99-1.98 1.99zm.72 41c-1.09 0-1.99-.89-1.99-1.98 0-1.09.89-1.99 1.98-1.99 1.09 0 1.99.89 1.99 1.98s-.89 1.99-1.98 1.99zm45.66-11.38-.05-40.92 13.23-.02.05 40.84a28.312 28.312 0 0 1-13.23.1zm18.51-2-.06-44.24-23.81.03.06 44.4c-9.93-4.51-16.39-14.37-16.4-25.53-.02-16.54 6.57-29.77 13.34-36.16 3.68 4.24 9 6.7 14.73 6.69 5.65-.01 10.92-2.43 14.59-6.59 8.89 8.32 13.54 23.97 13.55 35.99.02 11-6.28 20.8-16 25.41zm41.69 13.25c-1.09 0-1.99-.89-1.99-1.98s.89-1.99 1.98-1.99c1.09 0 1.99.89 1.99 1.98 0 1.1-.89 1.99-1.98 1.99z" fill="#000000" class="color000000 svgShape"></path></g><path fill="#1d4bf7" d="M1292.25 655.61v-36.65c.06-.33.09-.67.09-1V617.79c0-.34-.03-.67-.09-1v-36.65c.06-.33.09-.67.09-1 0-10-25.96-18.11-57.98-18.11-32.02 0-57.98 8.11-57.98 18.11 0 .34.03.67.09 1v36.65c-.06.33-.09.67-.09 1V617.96c0 .34.03.67.09 1v36.65a5.634 5.634 0 0 0-.07 1.46c-.01.15-.02.3-.02.46 0 .34.03.67.09 1v36.65c-.06.33-.09.67-.09 1 0 10 25.96 18.11 57.98 18.11 32.02 0 57.98-8.11 57.98-18.11 0-.34-.03-.67-.09-1v-36.65c.06-.33.09-.67.09-1 0-.15-.01-.3-.02-.46.01-.15.02-.3.02-.46 0-.33-.04-.67-.09-1z" class="colorf7941d svgShape"></path><path fill="#ffffff" d="M1294.75 616.59v-36.3c.05-.39.09-.77.09-1.15 0-13.39-31.16-20.61-60.49-20.61-29.32 0-60.49 7.22-60.49 20.61 0 .38.03.76.09 1.15v36.3c-.06.4-.09.81-.09 1.2V617.96c0 .38.03.76.09 1.15v36.3c-.06.4-.09.81-.09 1.2 0 .15.01.3.02.46-.01.15-.02.3-.02.46 0 .38.03.76.09 1.15v36.3c-.06.4-.09.81-.09 1.2 0 13.39 31.16 20.61 60.49 20.61 29.32 0 60.49-7.22 60.49-20.61 0-.39-.03-.8-.09-1.2v-36.3c.05-.39.09-.77.09-1.15 0-.15-.01-.3-.02-.46.01-.15.02-.3.02-.46 0-.39-.03-.8-.09-1.2v-36.3c.05-.39.09-.77.09-1.15V617.79c0-.39-.03-.8-.09-1.2zm-20.14 90.01c-10.72 3.35-25.01 5.19-40.26 5.19-15.24 0-29.54-1.84-40.26-5.19-9.39-2.93-15.23-6.92-15.23-10.42 0-.18.02-.37.05-.57.03-.14.04-.29.04-.43v-28.96c.03.03.07.05.11.08.17.13.34.26.51.38l.21.15c.24.17.49.35.75.51.01.01.03.02.04.03.24.16.49.31.74.47.08.05.17.1.25.15.18.11.37.22.56.33.1.06.19.11.29.16.18.1.37.21.56.31.1.05.19.1.29.15.21.11.43.22.64.33.07.04.14.07.21.11l.87.42c.06.03.12.06.18.08.23.11.46.21.7.32.1.04.2.09.3.13.2.09.4.17.6.26.11.05.22.09.32.14.2.08.41.17.61.25l.3.12c.25.1.5.2.75.29l.15.06c.3.11.6.22.91.33.08.03.17.06.25.09.22.08.44.15.65.23.11.04.22.07.32.11.2.07.4.13.59.2.11.04.22.07.33.11.2.07.41.13.61.19.09.03.19.06.28.09l.88.27c11.04 3.28 25.48 5.08 40.64 5.08s29.6-1.8 40.64-5.08c.29-.09.58-.17.87-.27.09-.03.19-.06.28-.09.2-.06.41-.13.61-.19.11-.03.22-.07.32-.11.2-.06.4-.13.6-.2.11-.04.21-.07.32-.11.22-.08.44-.15.66-.23.08-.03.17-.06.25-.09.3-.11.61-.22.91-.33l.15-.06c.25-.1.5-.19.75-.29l.3-.12c.2-.08.41-.17.61-.25.11-.04.21-.09.32-.13.2-.09.4-.17.61-.26.1-.04.2-.09.3-.13.24-.11.48-.22.71-.33.06-.03.11-.05.17-.08l.87-.42c.07-.03.13-.07.19-.1.22-.11.44-.22.66-.34.09-.05.19-.1.28-.15.19-.1.38-.21.57-.31.1-.05.19-.11.28-.16.19-.11.38-.22.57-.34.08-.05.16-.1.24-.14.26-.16.51-.32.76-.48.01 0 .01-.01.02-.01.26-.17.51-.34.75-.52.07-.05.13-.1.2-.14.18-.13.35-.26.52-.39.03-.03.07-.05.1-.08v28.96c0 .14.01.29.04.43.03.2.05.39.05.57 0 3.49-5.83 7.48-15.22 10.42zm15.21-49.73c-.01.1-.02.21-.04.31-.23 1.32-2.08 5.97-16.21 10.16-10.59 3.14-24.52 4.87-39.21 4.87-14.69 0-28.62-1.73-39.22-4.87-14.13-4.19-15.98-8.83-16.21-10.16-.02-.1-.03-.21-.04-.31-.01-.09-.01-.17-.01-.26 0-.18.02-.37.05-.57.03-.14.04-.29.04-.43v-28.96l.12.09c.16.12.31.24.47.35l.24.18c.24.17.48.34.73.5.04.03.09.05.13.08.21.14.43.28.65.41.1.06.19.12.29.17l.51.3c.11.06.21.12.32.18.17.1.34.19.51.28.11.06.22.12.32.17.19.1.39.2.58.3.09.04.18.09.26.13.28.14.56.28.85.41.08.04.16.07.25.11.21.1.42.19.64.29.11.05.23.1.34.15.19.08.37.16.56.24.12.05.24.1.35.15.19.08.38.16.57.23.11.04.22.09.33.13.23.09.47.18.71.27.07.02.13.05.2.08l.9.33c.09.03.18.06.27.1.21.07.42.15.64.22.11.04.22.08.33.11.19.07.39.13.58.19.11.04.22.07.33.11.2.07.41.13.61.19.09.03.19.06.28.09l.88.27c11.04 3.28 25.48 5.08 40.64 5.08s29.6-1.8 40.64-5.08c.29-.09.58-.17.87-.27.09-.03.19-.06.28-.09.2-.06.41-.13.61-.19.11-.03.22-.07.32-.11.2-.06.4-.13.6-.2.11-.04.21-.07.32-.11.22-.07.44-.15.66-.23.08-.03.17-.06.25-.09.3-.11.61-.22.91-.33l.15-.06c.25-.1.5-.19.75-.29l.3-.12c.2-.08.41-.16.61-.25.11-.04.21-.09.32-.13.2-.09.4-.17.6-.26.1-.04.2-.09.3-.13.24-.11.48-.22.71-.33.06-.03.11-.05.17-.08l.87-.42c.07-.03.13-.07.2-.1.22-.11.44-.22.65-.34.09-.05.19-.1.28-.15.19-.1.38-.21.56-.31.1-.05.19-.11.28-.16.19-.11.38-.22.56-.33l.24-.15c.25-.16.5-.31.75-.47.01-.01.02-.01.03-.02.26-.17.51-.34.75-.52.07-.05.13-.1.2-.15.17-.13.35-.25.51-.38.03-.03.07-.05.1-.08v28.96c0 .14.01.29.04.43.03.2.05.39.05.57.03.13.03.22.02.3zm-.04-39.65c.03.19.05.37.05.54v.08c0 .05-.01.1-.01.15h-.07v.54c0 .02-.01.04-.02.06 0 .02-.01.04-.02.07l-.03.09c-.01.03-.02.05-.03.08-.01.03-.02.07-.04.1-.01.03-.02.06-.03.08-.01.04-.03.07-.05.11-.01.03-.03.06-.04.09-.02.04-.04.08-.05.12-.02.03-.03.07-.05.1-.02.04-.05.08-.07.13-.02.04-.04.07-.06.11-.03.05-.06.1-.09.14-.02.03-.04.07-.06.1-.05.08-.11.17-.17.26l-.07.1c-.04.06-.08.11-.13.17-.03.04-.06.08-.1.12-.04.05-.08.11-.13.16-.04.04-.08.09-.12.14-.05.05-.09.11-.14.16-.04.05-.09.1-.13.14-.05.05-.1.11-.15.16l-.15.15-.17.17c-.05.05-.11.1-.17.15-.06.06-.12.11-.19.17-.06.05-.12.11-.18.16l-.2.17c-.07.05-.14.11-.2.17-.07.06-.15.12-.22.18s-.15.11-.23.17l-.24.18c-.08.06-.16.12-.25.17l-.27.18-.27.18c-.09.06-.19.12-.29.19-.09.06-.19.12-.29.18-.1.06-.21.13-.32.19-.1.06-.2.12-.31.18-.11.06-.23.13-.34.19l-.33.18c-.12.07-.24.13-.37.2-.12.06-.23.12-.36.18-.13.07-.26.13-.4.2-.13.06-.25.12-.38.18-.14.07-.29.13-.43.2-.13.06-.26.12-.4.18-.15.07-.31.14-.46.2l-.42.18c-.16.07-.33.14-.5.21-.15.06-.29.12-.44.18-.18.07-.36.14-.55.21-.15.06-.3.12-.46.18-.2.07-.4.15-.6.22-.15.06-.31.11-.47.17-.22.08-.44.15-.67.23-.15.05-.3.11-.46.16-.26.09-.52.17-.79.26-.14.04-.27.09-.41.13-.41.13-.83.26-1.26.39-10.59 3.14-24.52 4.87-39.21 4.87-14.69 0-28.62-1.73-39.22-4.87-.43-.13-.85-.26-1.26-.39-.14-.04-.27-.09-.41-.13-.27-.09-.53-.17-.79-.26-.16-.05-.31-.11-.46-.16-.22-.08-.45-.15-.67-.23-.16-.06-.31-.11-.46-.17-.2-.07-.41-.15-.6-.22-.16-.06-.31-.12-.46-.18-.18-.07-.37-.14-.55-.21-.15-.06-.29-.12-.44-.18-.17-.07-.34-.14-.5-.21l-.42-.18c-.16-.07-.31-.14-.46-.2-.14-.06-.27-.12-.4-.18-.14-.07-.29-.13-.43-.2-.13-.06-.25-.12-.38-.18-.13-.07-.27-.13-.4-.2l-.36-.18c-.12-.07-.25-.13-.37-.2l-.33-.18c-.12-.06-.23-.13-.34-.19-.1-.06-.21-.12-.31-.18-.11-.06-.21-.13-.32-.19-.1-.06-.19-.12-.29-.18-.1-.06-.2-.12-.29-.19l-.27-.18-.27-.18c-.08-.06-.17-.12-.25-.17l-.24-.18-.23-.17c-.08-.06-.15-.12-.22-.18s-.14-.11-.2-.17l-.2-.17-.19-.16c-.06-.06-.13-.11-.19-.17-.06-.05-.11-.1-.17-.15l-.17-.17-.15-.15c-.05-.05-.1-.11-.15-.16-.05-.05-.09-.1-.13-.14-.05-.05-.09-.11-.14-.16-.04-.05-.08-.09-.12-.14-.04-.05-.08-.11-.13-.16-.03-.04-.07-.08-.1-.12-.04-.06-.08-.11-.12-.17-.03-.03-.05-.07-.08-.1-.06-.09-.12-.17-.17-.26-.02-.03-.04-.07-.06-.1-.03-.05-.06-.1-.09-.14-.02-.04-.04-.07-.06-.11-.02-.04-.05-.09-.07-.13-.02-.03-.03-.07-.05-.1l-.06-.12c-.01-.03-.03-.06-.04-.09a.487.487 0 0 1-.04-.11.689.689 0 0 0-.03-.08c-.01-.03-.03-.07-.04-.1-.01-.03-.02-.05-.02-.08l-.03-.09c-.01-.02-.01-.05-.02-.07-.01-.02-.01-.04-.02-.06v-.54h-.07c0-.05-.01-.1-.01-.15v-.09c0-.17.02-.35.05-.53.03-.14.04-.29.04-.43v-28.96c.03.03.07.05.11.08.17.13.34.26.51.38l.21.15c.24.17.49.35.75.51.01.01.03.02.04.03.24.16.49.31.74.47.08.05.17.1.25.15.18.11.37.22.56.33.1.06.19.11.29.16.18.1.37.21.56.31.1.05.19.1.29.15.21.11.43.22.64.33.07.04.14.07.21.11l.87.42c.06.03.12.06.18.08.23.11.46.21.7.32.1.04.2.09.3.13.2.09.4.17.6.26.11.05.22.09.32.14.2.08.41.17.61.25l.3.12c.25.1.5.19.75.29l.15.06c.3.11.6.22.91.33.08.03.17.06.25.09.22.08.44.15.65.23.11.04.22.07.32.11.2.07.4.13.59.2.11.04.22.07.33.11.2.07.41.13.61.19.09.03.19.06.28.09l.88.27c11.04 3.28 25.48 5.08 40.64 5.08s29.6-1.8 40.64-5.08c.29-.09.58-.17.87-.27.09-.03.19-.06.28-.09.2-.06.41-.13.61-.19.11-.03.22-.07.32-.11.2-.06.4-.13.6-.2.11-.04.21-.07.32-.11.22-.07.44-.15.66-.23.08-.03.17-.06.25-.09.3-.11.61-.22.91-.33l.15-.06c.25-.1.5-.19.75-.29l.3-.12c.2-.08.41-.17.61-.25.11-.04.21-.09.32-.13.2-.09.4-.17.61-.26.1-.04.2-.09.3-.13.24-.11.48-.22.71-.33.06-.03.11-.05.17-.08l.87-.42c.07-.03.13-.07.19-.1.22-.11.44-.22.66-.34.09-.05.19-.1.28-.15.19-.1.38-.21.57-.31.1-.05.19-.11.28-.16.19-.11.38-.22.57-.34.08-.05.16-.1.24-.14.26-.16.51-.32.76-.48.01 0 .01-.01.02-.01.26-.17.51-.34.75-.52.07-.05.13-.1.2-.14.18-.13.35-.26.52-.39.03-.03.07-.05.1-.08v28.96c.07.14.09.29.11.43zm.05-38.05h-.09v.71c0 .02-.01.04-.02.06 0 .02-.01.04-.02.07l-.03.09c-.01.03-.02.05-.03.08l-.03.1-.03.09c-.01.04-.03.07-.05.11-.01.03-.03.06-.04.09l-.06.12c-.02.03-.03.06-.05.1-.02.04-.05.09-.07.13-.02.03-.03.07-.05.1l-.09.15c-.02.03-.04.06-.06.1-.05.08-.11.17-.17.26-.02.03-.05.06-.07.09-.04.06-.08.12-.13.18-.03.04-.07.08-.1.13l-.13.16c-.04.04-.08.09-.12.14-.04.05-.09.1-.14.16-.04.05-.09.1-.13.14-.05.05-.1.11-.15.16l-.15.15-.17.17c-.05.05-.11.1-.17.16-.06.06-.12.11-.18.17-.06.05-.12.11-.19.16l-.2.17c-.07.05-.14.11-.2.17-.07.06-.15.12-.23.18-.07.06-.15.11-.22.17-.08.06-.16.12-.25.18-.08.06-.16.12-.25.17l-.27.18-.27.18c-.1.06-.19.12-.29.19-.09.06-.19.12-.29.18-.1.06-.21.13-.32.19-.1.06-.2.12-.31.18-.11.06-.23.13-.34.19l-.33.18c-.12.07-.25.13-.37.2-.12.06-.23.12-.35.18-.13.07-.27.13-.4.2-.12.06-.25.12-.38.18-.14.07-.29.13-.43.2-.13.06-.26.12-.4.18-.15.07-.31.14-.46.2l-.42.18c-.16.07-.33.14-.5.21-.15.06-.29.12-.45.18l-.54.21c-.15.06-.3.12-.46.18-.2.07-.4.15-.6.22-.16.06-.31.11-.47.17-.22.08-.44.15-.66.23-.16.05-.31.11-.47.16-.26.09-.52.17-.78.25-.14.04-.27.09-.41.13-.41.13-.83.26-1.26.39-10.59 3.14-24.52 4.87-39.21 4.87-14.69 0-28.62-1.73-39.22-4.87-.43-.13-.85-.26-1.26-.39-.14-.04-.27-.09-.41-.13-.27-.09-.53-.17-.79-.26-.16-.05-.31-.11-.47-.16-.22-.08-.45-.15-.66-.23-.16-.06-.31-.11-.47-.17-.2-.07-.4-.15-.6-.22-.16-.06-.31-.12-.46-.18-.18-.07-.37-.14-.55-.21-.15-.06-.3-.12-.44-.18-.17-.07-.34-.14-.5-.21l-.42-.18c-.16-.07-.31-.14-.46-.2-.14-.06-.27-.12-.4-.18-.14-.07-.29-.13-.43-.2-.13-.06-.25-.12-.38-.18-.14-.07-.27-.13-.4-.2-.12-.06-.24-.12-.35-.18-.13-.07-.25-.13-.37-.2l-.33-.18c-.12-.06-.23-.13-.34-.19-.1-.06-.21-.12-.31-.18-.11-.06-.21-.13-.32-.19-.1-.06-.19-.12-.29-.18-.1-.06-.2-.13-.29-.19l-.27-.18-.27-.18c-.08-.06-.17-.12-.24-.17-.08-.06-.17-.12-.25-.18-.08-.06-.15-.11-.22-.17-.08-.06-.15-.12-.22-.18s-.14-.11-.2-.17l-.2-.17-.19-.16c-.06-.06-.13-.11-.19-.17-.06-.05-.11-.1-.17-.16l-.17-.17-.15-.15c-.05-.06-.1-.11-.15-.16-.04-.05-.09-.1-.13-.14-.05-.05-.09-.11-.14-.16-.04-.04-.08-.09-.12-.14l-.13-.16-.09-.12c-.04-.06-.08-.12-.13-.17l-.07-.1c-.06-.09-.12-.17-.17-.26-.02-.03-.04-.06-.06-.1l-.09-.15c-.02-.04-.04-.07-.06-.11-.02-.04-.05-.09-.07-.13-.02-.03-.03-.07-.05-.1l-.06-.12c-.01-.03-.03-.06-.04-.09-.01-.04-.03-.07-.04-.11l-.03-.09c-.01-.03-.03-.07-.04-.1-.01-.03-.02-.05-.02-.08l-.03-.09c-.01-.02-.01-.05-.02-.07-.01-.02-.01-.04-.02-.06v-.71h-.09v-.03c0-3.49 5.83-7.48 15.23-10.42 10.72-3.35 25.01-5.19 40.26-5.19 15.24 0 29.54 1.84 40.26 5.19 9.39 2.93 15.23 6.92 15.23 10.42.04.01.04.03.04.04z" class="colorffffff svgShape"></path><circle cx="1189.12" cy="609.45" r="4.84" fill="#ffffff" class="colorffffff svgShape"></circle><path fill="#3591ed" d="M773.56 531.07c0-70.71 57.52-128.24 128.23-128.24s128.24 57.53 128.24 128.24v151.49H773.56V531.07zm212.55 0c0-46.49-37.83-84.32-84.32-84.32-46.49 0-84.31 37.83-84.31 84.32v107.57h168.63V531.07z" class="color5035ed svgShape"></path><path fill="#92c8ff" d="M727.44 896.04h348.72c2.59 0 4.68-2.1 4.68-4.68V581.75c0-2.59-2.1-4.68-4.68-4.68H727.44a4.68 4.68 0 0 0-4.68 4.68v309.61c-.01 2.58 2.09 4.68 4.68 4.68z" class="color9892ff svgShape"></path><path fill="#ffffff" d="M935.97 651.07c0-18.09-14.66-32.75-32.75-32.75s-32.75 14.66-32.75 32.75c0 15.26 10.46 28.05 24.59 31.68v47.91h-7.24v14.44h7.24v55.85h-16.21v14.44h16.21v.02h19.57V681.74c12.45-4.63 21.34-16.6 21.34-30.67z" class="colorffffff svgShape"></path><path fill="#8dc2f7" d="m700.39 1538.86 13.76-1.19c3.06-.26 5.34-3.02 5.08-6.16l-2.2-26.92-24.85 2.14 2.2 26.92c.26 3.14 2.95 5.47 6.01 5.21z" class="colorf7ce8d svgShape"></path><path fill="#393d4e" d="M681.03 1528.49c4.14-5.05 9.71-7.08 12.3-7.79l.48 5.89c.58 7.04 6.61 12.26 13.47 11.67 5.85-.5 10.4-5.07 11.26-10.76.05-.14.13-.26.18-.39 0 0 50.91 29.19 55.6 35.46 4.69 6.27 6.73 15.58-2.46 16.66-9.19 1.08-86.59 5.05-88.24 2.17-1.67-2.87-8.16-46.11-2.59-52.91z" class="color39414e svgShape"></path><path fill="#8dc2f7" d="m595.93 1533.23 13.8.58c3.07.13 5.66-2.32 5.79-5.47l1.09-26.99-24.92-1.06-1.09 26.99c-.12 3.16 2.26 5.82 5.33 5.95z" class="colorf7ce8d svgShape"></path><path fill="#393d4e" d="M577.98 1520.47c4.72-4.48 10.5-5.78 13.15-6.15l-.24 5.9c-.28 7.06 5.06 13.01 11.94 13.3 5.86.25 10.93-3.7 12.48-9.24.07-.13.16-.24.23-.37 0 0 46.96 35.47 50.85 42.3 3.89 6.82 4.78 16.32-4.47 16.22-9.25-.11-86.53-6.07-87.82-9.13-1.29-3.07-2.47-46.8 3.88-52.83zm162.78-548.63-15.97 536.61h-39.08l-25.38-367.17-37.82 367.17-33.76-3.01 20.63-530.49 8.98-11.93c.01 0 51.92 14.95 122.4 8.82z" class="color39414e svgShape"></path><path fill="#8dc2f7" d="M712.78 671.14s12.35 50.74-8.33 69.04c-20.67 18.3-28.11 7.63-28.11 7.63l-1.63 5.25-19.72-.53s-.92-34.41 2.15-41.75c-4.16-14.34.58-37.96 24.75-21.56C684.32 674.9 699 664.6 699 664.6l-2.45 9 16.23-2.46z" class="colorf7ce8d svgShape"></path><path fill="#021b79" d="M623.79 641.96c46.52-47.35 87.61-14.25 87.61-14.25s30.58-9.48 39.42 15.49c14.11 39.83-36.02 38.83-36.02 38.83-.97-6.56-2.02-10.88-2.02-10.88l-16.22 2.48 2.45-9s-14.68 10.29-17.11 24.62c-24.17-16.4-28.92 7.22-24.75 21.56 4.8 6.31 16.4 11.13 13.53 17.69-.73 1.68-2.12 3.88-3.79 6.24-7.22 10.22-24.03 4.61-32.27-4.76-22.27-25.3-11.89-60.13-11.89-60.13s-14.08-9.56 1.06-27.89z" class="color2a2a72 svgShape"></path><path fill="#0053a7" d="M688.17 753.07s-33.15 4.06-43.35-2.81c-10.84 1.31-43.67 16.67-53.87 54.91-10.2 38.24 18.43 169.78 18.43 169.78l8.98-11.93s63.11 19.28 122.39 8.83c-1.27-46.41-1.59-118.29-1.59-118.29s53.87 38.57 94.98 31.05 45.26-138.59 45.26-138.59l-27.09-11.77s-8.61 83.02-37.93 91.52c-16.88 3.59-74.25-77.41-126.21-72.7z" class="color00a79d svgShape"></path><path fill="#bcbec0" d="M739.17 853.55s.32 71.88 1.59 118.29c-6.93 1.22-13.91 2.03-20.84 2.52 0 0 2.39-70.24-3.48-92.22-5.87-21.99-11.75-57.65-3.65-74.27 5.71 17.6 26.38 45.68 26.38 45.68zm-120.8 109.47s-12.12-127.64-9.48-149.3c-5.72 18.5 21.25 152.38 21.25 152.38l-11.77-3.08z" opacity=".3" class="colorbcbec0 svgShape"></path><path fill="#021b79" d="M660.34 1141.28v-94.38s-14.68-8.11-23.72-28.95c10.16 97.86 14.82 209.69 14.82 209.69l8.9-86.36z" opacity=".3" class="color2a2a72 svgShape"></path><path fill="#8dc2f7" d="M852.32 734.25s-1.76-33.94 5.63-42.36c7.39-8.42 13.96-10.53 8.62 0-5.34 10.53-5.34 12.63-1.64 14.74 3.7 2.11 13.76 3.37 14.48 13.06s-6.67 17.27-6.67 17.27l-1.19 5.65-19.23-8.36z" class="colorf7ce8d svgShape"></path><path fill="#3591ed" d="M1542.23 1318.72s38.92-150.44 98.4-154.22c59.48-3.78-61.17 154.22-61.17 154.22h-37.23z" class="color5035ed svgShape"></path><path fill="#92c8ff" d="M1512.53 1247.86s-16.66-108.9-41.15-110.32c-24.49-1.42-13.12 56.27-4.37 97.41 8.75 41.14 14.43 83.77 14.43 83.77h33.67l-2.58-70.86z" class="color9892ff svgShape"></path><path fill="#0053a7" d="M1471.94 1259.9s-25.49-57.57-51.73-53.31c-26.24 4.26-14.53 38.38 18.23 72.64 28.59 29.91 37.54 39.49 37.54 39.49h14.64l-18.68-58.82z" class="color00a79d svgShape"></path><path fill="#ffffff" d="M1555.62 1317.14c5.27-10.07 10.77-19.86 16.44-29.58 5.69-9.7 11.51-19.31 17.65-28.68 6.15-9.36 12.41-18.64 19.21-27.46 6.78-8.82 13.88-17.4 21.76-25.06-7.52 8.07-14.18 16.98-20.52 26.11-6.35 9.12-12.15 18.68-17.84 28.3-5.67 9.63-11.02 19.48-16.22 29.41-5.17 9.93-10.22 20-14.92 30.13l-5.56-3.17zm-58.87 2.02c-2.62-25.44-5.65-50.89-9.13-76.24-1.77-12.67-3.69-25.32-5.86-37.92-2.28-12.57-4.6-25.17-8.5-37.3 4.39 11.94 7.24 24.47 10.03 36.95 2.69 12.51 5.13 25.09 7.42 37.7 4.52 25.23 8.59 50.52 12.26 75.94l-6.22.87zM1483.98 1320.64l-54.62-90.13 59.78 86.29z" opacity=".3" class="colorffffff svgShape"></path><path fill="#1d4bf7" d="M1507.24 1318.72s1.31-153.28 48.98-183.07 9.77 114.51 9.77 114.51l-12.83 68.56h-45.92z" class="colorf7941d svgShape"></path><path fill="#ffffff" d="M1526.24 1316.92c1.1-13.07 2.56-25.99 4.26-38.92 1.72-12.91 3.69-25.79 6.09-38.58 2.41-12.78 5.19-25.5 8.83-37.95 1.82-6.22 3.84-12.38 6.31-18.34 2.47-5.94 5.31-11.77 9.09-16.84-3.57 5.25-6.16 11.16-8.37 17.17-2.21 6.03-3.97 12.24-5.52 18.49-3.12 12.52-5.36 25.27-7.25 38.07-1.87 12.81-3.32 25.69-4.51 38.59-1.16 12.89-2.1 25.86-2.67 38.74l-6.26-.43z" opacity=".3" class="colorffffff svgShape"></path><path fill="#2f323f" d="M1543.86 1307.94c-4.28 10.88-6.77 24.33-1.51 37.1 7.97 19.37 22.23 16.75 35.92 31.48l3.19-59.02c-12.21-4.88-24.74-8.1-37.6-9.56zm-20.79 72.36c-13.58-28.21-8.97-56.18-3.75-72.95-14.98.93-30.42 4.23-46.37 10.16l1.95 36.11c4.51 7.8 10.18 16.14 16.77 22.91 16.16 16.59 35.05 67.48-12.03 64.78l2.46 45.44c65.66 4.46 60.93-65.01 40.97-106.45z" class="color2f353f svgShape"></path><path fill="#393d4e" d="M1491.68 1376.53c-6.59-6.77-12.26-15.11-16.77-22.91l4.74 87.68c47.08 2.71 28.19-48.18 12.03-64.77z" class="color39414e svgShape"></path><path fill="#393d4e" d="M1558.32 1486.95c-1.65-35.45 16.44-45.54 16.44-45.54l3.51-64.88c-13.68-14.73-27.94-12.11-35.92-31.48-5.26-12.78-2.77-26.22 1.51-37.1-8.04-.91-16.22-1.11-24.53-.59-5.22 16.77-9.83 44.74 3.75 72.95 19.95 41.44 24.68 110.92-40.97 106.45l3.07 56.73c55.24 16.27 74.66-23.98 73.14-56.54z" class="color39414e svgShape"></path><path fill="#2f323f" d="m1567.14 1582.43 7.62-141.02s-18.09 10.1-16.44 45.54c1.52 32.56-17.91 72.81-73.16 56.53l2.11 38.95h79.87z" class="color2f353f svgShape"></path><path fill="#ffffff" d="m1573.68 822.14.04-.04c.06-6.39 6.39-11.55 12.77-11.61l.01-.01c-6.41-.06-11.58-5.25-11.63-11.66l-.04.04c-.06 6.39-6.39 11.55-12.77 11.61l-.01.01c9.5.09 11.58 5.23 11.63 11.66zm.28 7.51-.07.07c-.11 11.18-9.15 20.21-20.32 20.32l-.02.02c14.31.13 20.27 9.15 20.34 20.4l.07-.07c.11-11.18 9.15-20.21 20.32-20.32l.02-.02c-11.2-.1-20.26-9.18-20.34-20.4zm-8.41-4.51c-19.58-.18-34.25-16.04-34.37-35.63l-.13.13c-.19 19.52-17.14 35.3-36.66 35.5l-.03.03c19.58.18 36.57 16.04 36.69 35.63l.13-.13c.19-19.52 14.82-35.3 34.34-35.5l.03-.03z" class="colorffffff svgShape"></path></svg>