<svg xmlns="http://www.w3.org/2000/svg" enable-background="new 0 0 600 500" viewBox="0 0 600 500" id="TaxPayment"><g fill="#000000" class="color000000 svgShape"><path fill="#d2e8ff" d="M544.7 424.2c32.6-76.6-14.4-115.6-24.4-144.1-9.9-28.5 61.1-201.6-120.2-214.6-85.5-6.1-91.1 29.8-127.6 22.7-30.5-6-73.5-38.6-100.4-23.3-26.8 15.2-46 45.2-42.8 75.6 2.7 25.3 19.9 48.9 16.4 74.1-3.4 24.7-25.5 42.4-46.5 56.3-21 14-44.2 28.7-52.3 52.4-8 23.2 1.3 49.5 17.5 68.2 11.6 13.5 26.3 23.8 41.7 33.1l438.6-.4z" opacity=".3" class="colord2e4ff svgShape"></path><path fill="#c6e0fa" d="M534.3 356.5h-36.5c-.2 0-.4-.2-.4-.4s.2-.4.4-.4h36.5c.2 0 .4.2.4.4s-.2.4-.4.4zM534.3 374.6h-36.5c-.2 0-.4-.2-.4-.4s.2-.4.4-.4h36.5c.2 0 .4.2.4.4s-.2.4-.4.4zM527.6 365.6H476c-.2 0-.4-.2-.4-.4s.2-.4.4-.4h51.6c.2 0 .4.2.4.4s-.2.4-.4.4z" class="colorc6e2fa svgShape"></path><path fill="#c6e0fa" d="M505.3 356.5c-.2 0-.4-.2-.4-.4v-7.7c0-.2.2-.4.4-.4s.4.2.4.4v7.7c-.1.3-.2.4-.4.4zM518.1 365.6c-.2 0-.4-.2-.4-.4v-9.1c0-.2.2-.4.4-.4s.4.2.4.4v9.1c0 .2-.2.4-.4.4zM508.3 374.3c-.2 0-.4-.2-.4-.4v-8.7c0-.2.2-.4.4-.4s.4.2.4.4v8.7c0 .3-.2.4-.4.4zM195.2 336.1h-36.5c-.2 0-.4-.2-.4-.4s.2-.4.4-.4h36.5c.2 0 .4.2.4.4s-.2.4-.4.4zM195.2 354.2h-36.5c-.2 0-.4-.2-.4-.4s.2-.4.4-.4h36.5c.2 0 .4.2.4.4s-.2.4-.4.4zM188.6 345.2H137c-.2 0-.4-.2-.4-.4s.2-.4.4-.4h51.6c.2 0 .4.2.4.4s-.2.4-.4.4z" class="colorc6e2fa svgShape"></path><path fill="#c6e0fa" d="M166.2 336.1c-.2 0-.4-.2-.4-.4V328c0-.2.2-.4.4-.4s.4.2.4.4v7.7c0 .3-.2.4-.4.4zM179.1 345.2c-.2 0-.4-.2-.4-.4v-9.1c0-.2.2-.4.4-.4s.4.2.4.4v9.1c-.1.2-.2.4-.4.4zM169.3 353.9c-.2 0-.4-.2-.4-.4v-8.7c0-.2.2-.4.4-.4s.4.2.4.4v8.7c0 .3-.2.4-.4.4z" class="colorc6e2fa svgShape"></path><path fill="#bddeff" d="M318.1 120.8V85.5c0-2.8-1.1-5.3-2.9-7.1-1.8-1.8-4.3-2.9-7.1-2.9-5.6 0-10 4.5-10 10.1v35.3h20z" class="colorbdd6ff svgShape"></path><path fill="#021b79" d="M377.4 114.1v288.7c0 10.7-8.7 19.4-19.4 19.4H211.3c-10.7 0-19.4-8.7-19.4-19.4V114.1c0-10.7 8.7-19.4 19.4-19.4H358c10.7.1 19.4 8.7 19.4 19.4z" class="color060405 svgShape"></path><path fill="#ffffff" d="M377.4 120.7v270.7H191.9V120.7z" class="colorffffff svgShape"></path><path fill="#021b79" d="M296 166.8v114.5c0 1.3-.8 2.3-1.7 2.3h-19.4c-.9 0-1.7-1-1.7-2.3V166.8c0-1.3.8-2.3 1.7-2.3h19.4c1 0 1.7 1 1.7 2.3z" class="color060405 svgShape"></path><path fill="#ffffff" d="m169.6 191.9 11.5 12.6 58.4-12.6v18.3s-50 25.7-67.6 22.9c-7.2-1.2-23.4-17.8-23.4-17.8" class="colorffffff svgShape"></path><path fill="#021b79" d="M175 233.8c-1.1 0-2.2-.1-3.2-.2-7.3-1.2-23-17.3-23.7-17.9-.2-.2-.2-.5 0-.7.2-.2.5-.2.7 0 .2.2 16.1 16.5 23.1 17.7 16.6 2.7 63-20.6 67-22.7v-17.4L181.1 205c-.2 0-.4 0-.5-.2l-11.5-12.6c-.2-.2-.2-.5 0-.7.2-.2.5-.2.7 0l11.3 12.4 58.1-12.5c.1 0 .3 0 .4.1.1.1.2.2.2.4v18.3c0 .2-.1.4-.3.4-1.7 1-45 23.2-64.5 23.2zM99.7 424l20.2-117.7L137.1 424h15.6l5.8-155.7H81.8c-2.6 5.7 0 132.4 2.3 156l15.6-.3z" class="color060405 svgShape"></path><path fill="#456cff" d="M156.5 214.1v.2l3 62.6c0 7.3-81.3 7.3-81.3 0 0 0-.5-94.7 6.9-108.9 5-9.5 31-11.2 36.8-11.1 4.7.2 9.1.9 13.2 2.1 21.3 6.2 34.7 24.6 38.9 31.3-1.6 12.8-17.5 23.8-17.5 23.8z" class="colorff7545 svgShape"></path><path fill="#021b79" d="M156.5 214.8c-.2 0-.5-.2-.5-.4l-2.2-15c0-.3.1-.5.4-.6.3 0 .5.1.6.4l2.2 15c.1.3-.1.5-.5.6.1 0 0 0 0 0z" class="color060405 svgShape"></path><path fill="#ffffff" d="M110.7 157.9s6.2 10.4 22.7 14.9l.9-13.8s-1.6-6.9-2.1-12.9c-.5-5.8-13.7-18.3-14.6-19.1s-.4 8.9-2.6 17.8c-1.2 4.8-2 9.6-4.3 13.1z" class="colorffffff svgShape"></path><path fill="#021b79" d="M133.4 173.2h-.1c-16.5-4.4-23-15-23-15.1-.1-.2-.1-.4 0-.5 1.9-2.7 2.7-6.3 3.5-10.2.2-.9.4-1.8.6-2.8 2.1-8.8 2.6-17.6 2.6-17.7 0-.4.5-.7.9-.3.1.1 14.2 13.1 14.8 19.4.5 5.9 2.1 12.7 2.1 12.8v.1l-.9 13.8c0 .1-.1.3-.2.4-.1.1-.2.1-.3.1zm-22.1-15.3c1.1 1.6 7.5 10.2 21.7 14.2l.8-13.1c-.2-.8-1.6-7.2-2.1-12.9-.4-4.9-10.7-15.2-13.7-18.1-.2 2.6-.8 9.8-2.5 16.9l-.6 2.7c-1 3.8-1.8 7.4-3.6 10.3z" class="color060405 svgShape"></path><path fill="#ffffff" d="M116.9 129.6s-.5 22.1 17.1 24c20.1 2.1 12.4-38.7 12.4-38.7l-13.2-10.3-15.5 3.4-7 10.5 6.2 11.1z" class="colorffffff svgShape"></path><path fill="#021b79" d="M135.5 154.2c-.5 0-1 0-1.5-.1-17.1-1.8-17.6-22.4-17.6-24.4l-6.1-10.9c-.1-.2-.1-.4 0-.5l7-10.5c.1-.1.2-.2.3-.2l15.5-3.4c.1 0 .3 0 .4.1l13.2 10.3c.1.1.2.2.2.3.2 1.1 5 26.7-3.6 36-2 2.2-4.7 3.3-7.8 3.3zm-24.2-35.6 6.1 10.8c0 .1.1.2.1.3 0 .2-.2 21.7 16.7 23.5 3.5.4 6.4-.6 8.5-2.9 7.9-8.5 3.8-32.6 3.4-35l-12.8-10-15.1 3.3-6.9 10z" class="color060405 svgShape"></path><path fill="#021b79" d="M103.6 123.3c-4.3 4.3 2.5 20.2 11.3 21.5 2.2-8.9 3-17.8 3-17.8s2.7-5.1 2.8-5.1c.1 0 3.9-2.2 3.2-5.4-.7-3.2.9-2.5 3.4-2.2 4 .5 23.7 9.4 27.3 1.3 7.7-17.7-19.4-19.6-30-17.4-10.6 2.1-13.2 5-18.6 10.5-2 2 1.7 10.5-2.4 14.6z" class="color060405 svgShape"></path><path fill="#021b79" d="M142.9 128.3c0 1-.6 1.9-1.2 1.9-.7 0-1.2-.9-1.2-1.9 0-1.1.6-1.9 1.2-1.9.7 0 1.2.9 1.2 1.9zM132.3 129c0 1-.6 1.9-1.2 1.9-.7 0-1.2-.9-1.2-1.9 0-1.1.6-1.9 1.2-1.9s1.2.9 1.2 1.9zM135.6 138.7c-.2-.2-.2-.5 0-.7l2.2-2.1c.4-.4.4-.5.3-.5 0-.1-.7-.4-.9-.5-.9-.5-1-1.7-1.1-2.3l-.5-4.3c0-.3.2-.5.4-.6.3 0 .5.2.6.4l.5 4.3c.1.7.2 1.3.6 1.5.3.2 1.1.3 1.3 1 .2.7-.4 1.3-.6 1.5l-2.2 2.1c-.1.4-.4.4-.6.2zM133.7 146c-1 0-1.9-.5-2.6-1.2-.2-.2-.2-.5 0-.7.2-.2.5-.2.7 0 .5.5 1.2.8 1.9.9.7 0 1.4-.2 2-.7.2-.2.5-.2.7.1.2.2.2.5-.1.7-.6.6-1.6.9-2.6.9zM123.3 181.7c-.2 0-.3 0-.5-.1-1.1-.2-1.7-1.1-2.3-2l-7.4-11.3c-.2-.2-.1-.5.1-.7.2-.2.5-.1.7.1l7.4 11.3c.5.7 1 1.4 1.7 1.6.7.1 1.4-.2 2.1-.7 2-1.2 7.9-7.5 8-7.6.2-.2.5-.2.7 0 .2.2.2.5 0 .7-.2.3-6.1 6.5-8.2 7.7-.7.5-1.5 1-2.3 1z" class="color060405 svgShape"></path><path fill="#021b79" d="M139.9 175.8c-2.2 0-6.2-2.4-6.7-2.7-.2-.1-.3-.4-.2-.7s.4-.3.7-.2c1.3.8 5 2.8 6.5 2.5.6-.1 1.1-.2 1.4-.6.4-.5 0-1.4-.3-2.1l-3.2-6.5c-.1-.2 0-.5.2-.7.2-.1.5 0 .7.2l3.2 6.5c.5 1 .9 2.2.2 3.1-.5.6-1.2.8-2 1-.2.2-.4.2-.5.2z" class="color060405 svgShape"></path><path fill="#456cff" d="M100.4 426.7V424H84.2c-.2 5.3-.6 15.2-.8 15.2h26.4c1-8.7-9.4-12.5-9.4-12.5z" class="colorff7545 svgShape"></path><path fill="#021b79" d="M109.5 435.4c.3 1.1.5 2.4.4 3.8H83.4s.1-1.6.3-3.8h25.8z" class="color060405 svgShape"></path><path fill="#456cff" d="M153.4 426.7V424h-16.2c-.2 5.3-.6 15.2-.8 15.2h26.4c.9-8.7-9.4-12.5-9.4-12.5z" class="colorff7545 svgShape"></path><path fill="#021b79" d="M162.5 435.4c.3 1.1.5 2.4.4 3.8h-26.4s.1-1.6.3-3.8h25.7z" class="color060405 svgShape"></path><circle cx="239.5" cy="228.1" r="55.6" fill="#0234ef" class="colorefc102 svgShape"></circle><circle cx="239.5" cy="228.1" r="42" fill="#0234ef" class="colorefc102 svgShape"></circle><path d="M275.2 206.1c-7.6-8-18.4-13-30.3-13-23.2 0-42 18.8-42 42 0 8.1 2.3 15.6 6.3 22-7.2-7.5-11.6-17.7-11.6-29 0-23.2 18.8-42 42-42 15 0 28.2 8 35.6 20z" opacity=".15" fill="#000000" class="color000000 svgShape"></path><path fill="#ffffff" d="M252 242c-1 1.5-2.5 2.8-4.3 3.7-1.9.9-4 1.4-6.5 1.6v3.8c0 .5-.2.8-.5 1.2-.3.3-.7.5-1.2.5s-.8-.1-1.2-.4c-.3-.3-.5-.7-.5-1.2v-3.8c-3.9-.3-7.5-1.1-10.8-2.5-.4-.2-.8-.5-1.1-.9-.3-.4-.4-.8-.4-1.3 0-.6.2-1.1.6-1.6.4-.4.9-.7 1.6-.7.4 0 .7.1 1 .2 2.9 1.3 5.9 2 9.1 2.1v-12.3c-2.4-.6-4.5-1.3-6.1-2.1-1.7-.7-3-1.8-4.1-3.2-1.1-1.4-1.7-3.1-1.7-5.2 0-1.9.5-3.6 1.4-5.1.9-1.6 2.3-2.9 4.1-3.9 1.8-1 4-1.7 6.5-1.9v-3.7c0-.5.2-.9.5-1.2.3-.3.7-.5 1.2-.5s.9.2 1.2.5c.3.3.5.7.5 1.2v3.7c3.5.1 6.6.7 9.3 1.8 1 .4 1.5 1.1 1.5 2.1 0 .6-.2 1.1-.6 1.6-.4.5-.9.7-1.6.7-.2 0-.5-.1-.9-.2-2.4-.9-5-1.3-7.8-1.4v12.7c2.6.6 4.7 1.3 6.4 2 1.7.7 3.1 1.8 4.3 3.2 1.1 1.4 1.7 3.3 1.7 5.6-.1 1.7-.6 3.4-1.6 4.9zm-19.4-18.9c1.2.9 3 1.6 5.3 2.2v-11.8c-2.1.3-3.9.9-5.1 2-1.3 1-1.9 2.3-1.9 4-.1 1.6.5 2.8 1.7 3.6zm16.1 13.5c0-1.4-.6-2.5-1.9-3.2-1.3-.8-3.2-1.5-5.6-2.2v11.5c4.9-.4 7.5-2.4 7.5-6.1zM202.5 240c-3.1 13-22.5 5.1-22.5 5.1-16.5-.2-81.9.6-87.2-4.2-3.3-3-7.1-16.9-9.6-31.4l28.5-3.8 5.8 12.5 63.3 13s2.5-8.3 4.8-8.3c.2 0 .4 0 .5.2 2.4 1.6 0 6.5 0 6.5s19.5-2.6 16.4 10.4z" class="colorffffff svgShape"></path><path fill="#021b79" d="M191.6 248c-5.5 0-10.9-2.1-11.7-2.4h-11.1c-34.7-.1-72.1-.4-76.4-4.3-3.8-3.5-7.6-19.2-9.8-31.7 0-.1 0-.3.1-.4s.2-.2.3-.2l28.5-3.8c.2 0 .4.1.5.3l5.7 12.3 62.6 12.9c.7-2.1 2.8-8.2 5.2-8.2.3 0 .6.1.8.3 2.1 1.4 1.1 4.7.5 6.3 2.7-.2 11-.6 14.6 3.5 1.7 1.9 2.2 4.5 1.4 7.7-.7 3-2.4 5.2-4.9 6.5-1.7.8-4 1.2-6.3 1.2zM83.8 209.9c2.7 15.7 6.5 27.9 9.4 30.6 4.3 3.9 52.5 4 75.7 4H180.3c.1 0 11 4.4 17.5 1.1 2.2-1.1 3.7-3.1 4.4-5.9.7-2.9.3-5.1-1.2-6.8-4-4.5-14.5-3.2-14.6-3.1-.2 0-.4-.1-.5-.2-.1-.1-.1-.3 0-.5.6-1.3 1.8-4.7.2-5.8-.1-.1-.2-.1-.3-.1-1.3 0-3.4 4.7-4.3 7.9-.1.2-.3.4-.6.3l-63.3-13c-.2 0-.3-.1-.4-.3l-5.6-12.2-27.8 4zM202.5 240z" class="color060405 svgShape"></path><path fill="#456cff" d="M117.3 210.1c-2.1 3.1-38.7 5.8-39.1 2.5-.2-1-1.6-39.9 8-46.2 19.3-11.1 32.5 39.1 31.1 43.7z" class="colorff7545 svgShape"></path><path fill="#021b79" d="M87.7 214.7c-3.4 0-6.3-.2-8-.6-.8-.2-1.9-.5-2-1.4 0-.3.2-.5.4-.6.3 0 .5.2.6.4 0 0 .3.5 3.4.9 9.9 1 33-1.4 34.8-3.5.7-2.8-3.8-22.1-11.6-34.3-.1-.2-.1-.5.2-.7.2-.1.5-.1.7.2 7.8 12.2 12.7 32.1 11.7 35.2 0 0 0 .1-.1.1-1.7 2.4-18.8 4.3-30.1 4.3zm29.6-4.6z" class="color060405 svgShape"></path><path fill="#bddeff" d="M323.1 356.3h-77c-3.8 0-6.8-3.1-6.8-6.8v-27.1c0-3.8 3.1-6.8 6.8-6.8h77c3.8 0 6.8 3.1 6.8 6.8v27.1c.1 3.8-3 6.8-6.8 6.8z" class="colorbdd6ff svgShape"></path><path fill="#ffffff" d="M258.6 330.6c-.6-.3-1.4-.5-2.4-.5h-3.4c-.3 0-.5.1-.7.3-.2.2-.3.4-.3.7v9c0 .3.1.5.3.7.2.2.4.3.7.3.3 0 .5-.1.7-.3.2-.2.3-.4.3-.7v-2.9h2.4c1 0 1.8-.2 2.4-.5.6-.3 1.1-.8 1.4-1.3.3-.5.4-1.1.4-1.7 0-.6-.1-1.2-.4-1.7-.3-.7-.7-1.1-1.4-1.4zm0 3c0 .5-.2.9-.5 1.2-.4.3-1 .5-1.9.5h-2.3v-3.5h2.3c.9 0 1.6.2 1.9.5.3.4.5.8.5 1.3zM267.8 330.7c-.1-.2-.2-.4-.4-.5-.2-.2-.4-.2-.7-.2h-.1c-.3 0-.5.1-.7.2-.2.1-.3.3-.4.5l-3.8 8.9c-.1.2-.1.3-.1.4 0 .3.1.5.3.7.3.3.8.4 1.2.1.2-.1.3-.2.4-.4l.9-2.1h4.7l.9 2.2c.1.2.2.3.4.4.2.1.3.2.5.2.3 0 .5-.1.7-.3.2-.2.3-.4.3-.7 0-.1 0-.2-.1-.4l-4-9zm.4 5.8H265l1.6-3.9 1.6 3.9zM280.8 330c-.3 0-.6.2-.8.5l-2.9 4.2-2.9-4.2c-.2-.3-.5-.5-.8-.5-.3 0-.5.1-.7.3-.2.2-.3.4-.3.7 0 .2.1.4.2.6l3.5 4.9v3.7c0 .3.1.5.3.7.2.2.4.3.7.3.3 0 .5-.1.7-.3.2-.2.3-.4.3-.7v-3.7l3.5-4.9c.1-.2.2-.3.2-.5 0-.3-.1-.5-.2-.7-.3-.3-.6-.4-.8-.4zM296 330.1h-7.4c-.2 0-.5.1-.6.3-.2.2-.3.4-.3.6 0 .2.1.5.3.6.2.2.4.3.6.3h2.8v8.2c0 .3.1.5.3.7.2.2.4.3.7.3.3 0 .5-.1.7-.3.2-.2.3-.4.3-.7v-8.2h2.7c.2 0 .5-.1.6-.3.2-.2.3-.4.3-.6 0-.2-.1-.5-.3-.6-.2-.3-.4-.3-.7-.3zM303.7 330.7c-.1-.2-.2-.4-.4-.5-.2-.2-.4-.2-.7-.2h-.1c-.3 0-.5.1-.7.2-.2.1-.3.3-.4.5l-3.8 8.9c-.1.2-.1.3-.1.4 0 .3.1.5.3.7.3.3.8.4 1.2.1.2-.1.3-.2.4-.4l.9-2.1h4.7l.9 2.2c.1.2.2.3.4.4.2.1.3.2.5.2.3 0 .5-.1.7-.3.2-.2.3-.4.3-.7 0-.1 0-.2-.1-.4l-4-9zm.5 5.8H301l1.6-3.9 1.6 3.9zM318.9 340l-3.3-4 3.3-4.1c.1-.2.2-.3.2-.5s-.1-.5-.3-.6c-.2-.2-.4-.3-.6-.3-.4 0-.6.2-.7.3l-2.9 3.7-2.9-3.7-.3-.3c-.4-.2-.8-.1-1.1.2-.2.2-.3.4-.3.7 0 .2.1.4.2.6l3.2 4-3.3 4c-.1.2-.2.4-.2.6 0 .2.1.4.3.6.4.4 1 .3 1.3-.1l2.9-3.7 2.9 3.7c.2.3.4.4.7.4.3 0 .5-.1.7-.3.2-.2.3-.4.3-.7.1-.2 0-.4-.1-.5z" class="colorffffff svgShape"></path><path fill="#456cff" d="M124.5 180.6c-.4-1.2-.9-2.4-1.4-3.5.6 1.1 1 2.3 1.4 3.5z" class="colorff7545 svgShape"></path><path fill="#021b79" d="M486.4 219.8c-9 2.9-18.3 1.4-25.7-3.3l4.6-6.2c-.1-.1-2.3-1.7-2.2-1.6l-4.6 6.3c-4.8-3.7-8.5-8.7-10.4-14.9-5.1-16.1 3.7-33.2 19.8-38.4 16.1-5.1 33.2 3.7 38.4 19.8 5 16-3.8 33.2-19.9 38.3z" class="color060405 svgShape"></path><path fill="#ffffff" d="m468.6 199.8-5.1-5.1c-1.3-1.3-1.3-3.4 0-4.6 1.3-1.3 3.4-1.3 4.6 0l2.8 2.8 12.5-12.5c1.3-1.3 3.4-1.3 4.6 0 1.3 1.3 1.3 3.4 0 4.6l-14.8 14.8c-1.2 1.3-3.3 1.3-4.6 0z" class="colorffffff svgShape"></path><path fill="#021b79" d="m446 228 1.7 1.3 16-21.4-1.8-1.4z" class="color060405 svgShape"></path><path d="M377.4 114.2v6.5h-63.9V94.9H358c10.7 0 19.4 8.6 19.4 19.3z" opacity=".1" fill="#000000" class="color000000 svgShape"></path><path d="M377.4 120.7v78.5h-56.5c-4.1 0-7.4-3.3-7.4-7.4v-71.1h63.9z" opacity=".05" fill="#000000" class="color000000 svgShape"></path><path fill="#d2e8ff" d="M425.5 82.8v103.9c0 4.1-3.3 7.4-7.4 7.4h-92.6c-4.1 0-7.4-3.3-7.4-7.4V85.5c0-2.8-1.1-5.3-2.9-7.1-1.8-1.8-4.3-2.9-7.1-2.9h110.1c4-.1 7.3 3.2 7.3 7.3z" class="colord2e4ff svgShape"></path><path fill="#ffffff" d="M351.2 99.1c0 1.4-1.1 2.5-2.5 2.5h-19.1c-1.4 0-2.5-1.1-2.5-2.5 0-.7.3-1.3.7-1.8.5-.5 1.1-.7 1.8-.7h19.1c1.4 0 2.5 1.1 2.5 2.5zM327.4 106.4h91.7v2.6h-91.7zM327.4 150.1h91.7v2.6h-91.7zM328.1 113.9h37.2v1.9h-37.2zM328.1 118.8h21.3v1.9h-21.3zM354.8 118.8h10.5v1.9h-10.5zM328.1 123.7h37.2v1.9h-37.2zM328.1 128.7h10.1v1.9h-10.1zM343.3 128.7h22.1v1.9h-22.1zM328.1 133.6h37.2v1.9h-37.2zM328.1 138.5H352v1.9h-23.9zM328.1 143.4h26.4v1.9h-26.4zM359 143.4h6.3v1.9H359zM407.7 113.9h11.6v1.9h-11.6zM407.7 118.8h11.6v1.9h-11.6zM407.7 123.7h11.6v1.9h-11.6zM407.7 128.7h11.6v1.9h-11.6zM407.7 133.6h11.6v1.9h-11.6zM407.7 138.5h11.6v1.9h-11.6zM407.7 143.4h11.6v1.9h-11.6zM415.5 173.3c-.4.6-.9 1-1.6 1.4-.7.3-1.5.5-2.4.6v1.4c0 .2-.1.3-.2.4-.1.1-.3.2-.4.2-.2 0-.3-.1-.4-.2-.1-.1-.2-.3-.2-.4v-1.4c-1.4-.1-2.8-.4-4-.9-.2-.1-.3-.2-.4-.3-.1-.2-.2-.3-.2-.5s.1-.4.2-.6c.2-.2.3-.2.6-.2.1 0 .3 0 .4.1 1.1.5 2.2.7 3.4.8v-4.6c-.9-.2-1.7-.5-2.3-.8-.6-.3-1.1-.7-1.5-1.2-.4-.5-.6-1.2-.6-1.9s.2-1.3.5-1.9c.3-.6.8-1.1 1.5-1.5.7-.4 1.5-.6 2.4-.7v-1.4c0-.2.1-.3.2-.4.1-.1.3-.2.4-.2s.3.1.4.2c.1.1.2.3.2.4v1.4c1.3.1 2.5.3 3.5.7.4.1.6.4.6.8 0 .2-.1.4-.2.6-.1.2-.3.3-.6.3-.1 0-.2 0-.3-.1-.9-.3-1.9-.5-2.9-.5v4.7c1 .2 1.7.5 2.4.7.6.3 1.2.7 1.6 1.2.4.5.6 1.2.6 2.1-.1.5-.3 1.1-.7 1.7zm-7.2-7.1c.4.3 1.1.6 2 .8v-4.4c-.8.1-1.4.3-1.9.7-.5.4-.7.9-.7 1.5 0 .7.2 1.1.6 1.4zm6 5c0-.5-.2-.9-.7-1.2-.5-.3-1.2-.6-2.1-.8v4.3c1.9-.1 2.8-.9 2.8-2.3z" class="colorffffff svgShape"></path><path fill="#021b79" d="M389.1 314.5c-.6 0-1-.4-1-1 0-4.4-2.9-8-6.5-8-.6 0-1-.4-1-1s.4-1 1-1c4.7 0 8.5 4.5 8.5 10 0 .6-.5 1-1 1zM420.3 314.5c-.6 0-1-.4-1-1 0-4.4-2.9-8-6.5-8-.6 0-1-.4-1-1s.4-1 1-1c4.7 0 8.5 4.5 8.5 10 0 .6-.4 1-1 1zM451.6 314.5c-.6 0-1-.4-1-1 0-4.4-2.9-8-6.5-8-.6 0-1-.4-1-1s.4-1 1-1c4.7 0 8.5 4.5 8.5 10 0 .6-.4 1-1 1zM482.9 314.5c-.6 0-1-.4-1-1 0-4.4-2.9-8-6.5-8-.6 0-1-.4-1-1s.4-1 1-1c4.7 0 8.5 4.5 8.5 10 0 .6-.5 1-1 1z" class="color060405 svgShape"></path><path d="M377.4 309.4v93.5c0 10.7-8.7 19.4-19.4 19.4h-4.6c-.8-1-1.3-2.4-1.3-3.8v-103c0-3.4 2.7-6.1 6.1-6.1h19.2z" opacity=".05" fill="#000000" class="color000000 svgShape"></path><path fill="#0575e6" d="M498.8 317.7v98.8c0 3.2-2.6 5.9-5.9 5.9H361c-3.2 0-5.9-2.6-5.9-5.9v-98.8c0-3.2 2.6-5.9 5.9-5.9h131.9c3.2 0 5.9 2.7 5.9 5.9z" class="color6193f6 svgShape"></path><path fill="#ffffff" d="M495.3 331.2v-13.5c0-1.3-1.1-2.4-2.4-2.4H361c-1.3 0-2.4 1.1-2.4 2.4v13.5h136.7z" class="colorffffff svgShape"></path><circle cx="381.6" cy="322.5" r="3.7" fill="#bddeff" class="colorbdd6ff svgShape"></circle><circle cx="412.4" cy="322.5" r="3.7" fill="#bddeff" class="colorbdd6ff svgShape"></circle><circle cx="443.2" cy="322.5" r="3.7" fill="#bddeff" class="colorbdd6ff svgShape"></circle><circle cx="474" cy="322.5" r="3.7" fill="#bddeff" class="colorbdd6ff svgShape"></circle><path fill="#021b79" d="M381.6 323.5c-4.7 0-8.5-4.5-8.5-10s3.8-10 8.5-10c.6 0 1 .4 1 1s-.4 1-1 1c-3.6 0-6.5 3.6-6.5 8s2.9 8 6.5 8c.6 0 1 .4 1 1s-.5 1-1 1zM412.8 323.5c-4.7 0-8.5-4.5-8.5-10s3.8-10 8.5-10c.6 0 1 .4 1 1s-.4 1-1 1c-3.6 0-6.5 3.6-6.5 8s2.9 8 6.5 8c.6 0 1 .4 1 1s-.4 1-1 1zM444.1 323.5c-4.7 0-8.5-4.5-8.5-10s3.8-10 8.5-10c.6 0 1 .4 1 1s-.4 1-1 1c-3.6 0-6.5 3.6-6.5 8s2.9 8 6.5 8c.6 0 1 .4 1 1s-.4 1-1 1zM475.4 323.5c-4.7 0-8.5-4.5-8.5-10s3.8-10 8.5-10c.6 0 1 .4 1 1s-.4 1-1 1c-3.6 0-6.5 3.6-6.5 8s2.9 8 6.5 8c.6 0 1 .4 1 1s-.5 1-1 1z" class="color060405 svgShape"></path><path fill="#ffffff" d="M399.3 388.1c-.4-.2-.7-.4-1-.7-.2-.3-.4-.7-.4-1.2 0-.6.2-1.1.6-1.5.4-.4.9-.6 1.5-.6.3 0 .6.1 1 .2 2.5 1 5.2 1.5 8.2 1.5 2.7 0 5-.4 6.8-1.3 1.8-.9 2.8-2.4 2.8-4.4 0-4.3-3.8-6.5-11.4-6.5h-.8c-.6 0-1.1-.2-1.5-.6-.4-.4-.6-.9-.6-1.5s.2-1.1.6-1.5c.4-.4.9-.6 1.5-.6h.3c3.4 0 6.1-.5 7.9-1.6 1.8-1.1 2.7-2.6 2.7-4.7 0-1.7-.7-3-2.1-3.9-1.4-1-3.4-1.4-6.1-1.4-2.9 0-5.6.6-8 1.7-.3.1-.7.2-.9.2-.5 0-1-.2-1.3-.5-.4-.4-.6-.8-.6-1.4 0-.8.3-1.4 1-1.8 3.3-1.8 6.7-2.6 10.2-2.6 4 0 7 .8 9.2 2.4 2.2 1.6 3.3 3.9 3.3 6.9 0 2.4-.6 4.2-1.8 5.6-1.2 1.4-2.7 2.4-4.5 3 2 .4 3.7 1.4 5.2 2.8s2.3 3.6 2.3 6.4c0 3.2-1.2 5.6-3.7 7.4-2.5 1.7-5.7 2.6-9.6 2.6-3.9-.3-7.5-1-10.8-2.4zM434.9 389c-.4-.4-.6-.9-.6-1.5s.2-1.1.6-1.6c.4-.4.9-.6 1.6-.6h6.1v-26.2l-5.3 2.6c-.5.2-.9.3-1.2.3-.7 0-1.2-.2-1.6-.6-.4-.4-.6-.9-.6-1.6 0-1 .4-1.7 1.3-2.1l7-3.7c.5-.2 1-.4 1.4-.4h1.1c.7 0 1.3.2 1.8.7.5.5.7 1.1.7 1.8v29.2h5.1c.6 0 1.1.2 1.6.6.4.4.6 1 .6 1.6 0 .6-.2 1.1-.6 1.5-.4.4-1 .6-1.6.6h-16c-.5 0-1-.2-1.4-.6z" class="colorffffff svgShape"></path><path fill="#c6e0fa" d="M462 244.6h-36.5c-.2 0-.4-.2-.4-.4s.2-.4.4-.4H462c.2 0 .4.2.4.4s-.2.4-.4.4zM462 262.7h-36.5c-.2 0-.4-.2-.4-.4s.2-.4.4-.4H462c.2 0 .4.2.4.4s-.2.4-.4.4zM455.4 253.6h-51.6c-.2 0-.4-.2-.4-.4s.2-.4.4-.4h51.6c.2 0 .4.2.4.4s-.2.4-.4.4z" class="colorc6e2fa svgShape"></path><path fill="#c6e0fa" d="M433 244.6c-.2 0-.4-.2-.4-.4v-7.7c0-.2.2-.4.4-.4s.4.2.4.4v7.7c0 .2-.2.4-.4.4zM445.9 253.6c-.2 0-.4-.2-.4-.4v-9.1c0-.2.2-.4.4-.4s.4.2.4.4v9.1c-.1.3-.2.4-.4.4zM436.1 262.4c-.2 0-.4-.2-.4-.4v-8.7c0-.2.2-.4.4-.4s.4.2.4.4v8.7c0 .2-.2.4-.4.4zM192.9 74.5h-36.5c-.2 0-.4-.2-.4-.4s.2-.4.4-.4h36.5c.2 0 .4.2.4.4s-.2.4-.4.4zM192.9 92.6h-36.5c-.2 0-.4-.2-.4-.4s.2-.4.4-.4h36.5c.2 0 .4.2.4.4s-.2.4-.4.4zM186.2 83.5h-51.6c-.2 0-.4-.2-.4-.4s.2-.4.4-.4h51.6c.2 0 .4.2.4.4s-.2.4-.4.4z" class="colorc6e2fa svgShape"></path><path fill="#c6e0fa" d="M163.9 74.5c-.2 0-.4-.2-.4-.4v-7.7c0-.2.2-.4.4-.4s.4.2.4.4v7.7c-.1.2-.2.4-.4.4zM176.7 83.5c-.2 0-.4-.2-.4-.4V74c0-.2.2-.4.4-.4s.4.2.4.4v9.1c0 .2-.2.4-.4.4zM166.9 92.3c-.2 0-.4-.2-.4-.4v-8.7c0-.2.2-.4.4-.4s.4.2.4.4v8.7c0 .2-.2.4-.4.4zM500.7 107.2h-36.5c-.2 0-.4-.2-.4-.4s.2-.4.4-.4h36.5c.2 0 .4.2.4.4s-.1.4-.4.4zM500.7 125.3h-36.5c-.2 0-.4-.2-.4-.4s.2-.4.4-.4h36.5c.2 0 .4.2.4.4s-.1.4-.4.4zM494.1 116.2h-51.6c-.2 0-.4-.2-.4-.4s.2-.4.4-.4h51.6c.2 0 .4.2.4.4s-.2.4-.4.4z" class="colorc6e2fa svgShape"></path><path fill="#c6e0fa" d="M471.7 107.2c-.2 0-.4-.2-.4-.4v-7.7c0-.2.2-.4.4-.4s.4.2.4.4v7.7c0 .2-.1.4-.4.4zM484.6 116.2c-.2 0-.4-.2-.4-.4v-9.1c0-.2.2-.4.4-.4s.4.2.4.4v9.1c0 .3-.2.4-.4.4zM474.8 125c-.2 0-.4-.2-.4-.4v-8.7c0-.2.2-.4.4-.4s.4.2.4.4v8.7c0 .2-.2.4-.4.4z" class="colorc6e2fa svgShape"></path></g></svg>