<svg xmlns="http://www.w3.org/2000/svg" enable-background="new 0 0 2950 2950" viewBox="0 0 2950 2950" id="ValiantSecretarywithBigSignDocumentation."><path fill="#f5f6f7" d="M2769.91,1175.55c189.42,900.57,95.13,1326.76-78.51,1572.67c-44.86,64.39-117.56,102.6-194.82,108.84
					h-0.42c-7.06,0.42-14.54,0.82-21.6,0.82H772.72c1.24-0.41,2.08-0.82,3.32-1.24c88.06-29.92,139.57-192.33,155.77-432.83
					c20.77-308.23-15.79-745.22-105.92-1197.99C664.3,415.81,996.61,118.39,996.61,118.39h1894.59
					C2891.21,118.39,2549.34,125.03,2769.91,1175.55z" class="colorf5f7f6 svgShape"></path><rect width="1104.5" height="24.69" x="1030.54" y="480.32" fill="#d7d9db" class="colord7dbd8 svgShape"></rect><rect width="1226.94" height="24.69" x="1030.54" y="568.76" fill="#d7d9db" class="colord7dbd8 svgShape"></rect><rect width="1414.89" height="24.69" x="1030.54" y="657.21" fill="#d7d9db" class="colord7dbd8 svgShape"></rect><rect width="1104.5" height="24.69" x="1011.23" y="869.17" fill="#d7d9db" class="colord7dbd8 svgShape"></rect><rect width="1226.94" height="24.69" x="1011.23" y="957.62" fill="#d7d9db" class="colord7dbd8 svgShape"></rect><rect width="1414.89" height="24.69" x="1011.23" y="1046.06" fill="#d7d9db" class="colord7dbd8 svgShape"></rect><g fill="#000000" class="color000000 svgShape"><rect width="1104.5" height="24.69" x="1073.4" y="1258.03" fill="#d7d9db" class="colord7dbd8 svgShape"></rect><rect width="1226.94" height="24.69" x="1073.4" y="1346.47" fill="#d7d9db" class="colord7dbd8 svgShape"></rect><rect width="1414.89" height="24.69" x="1073.4" y="1434.91" fill="#d7d9db" class="colord7dbd8 svgShape"></rect></g><g fill="#000000" class="color000000 svgShape"><rect width="1104.5" height="24.69" x="1124.52" y="1646.88" fill="#d7d9db" class="colord7dbd8 svgShape"></rect><rect width="1226.94" height="24.69" x="1124.52" y="1735.32" fill="#d7d9db" class="colord7dbd8 svgShape"></rect><rect width="1414.89" height="24.69" x="1124.52" y="1823.76" fill="#d7d9db" class="colord7dbd8 svgShape"></rect></g><g fill="#000000" class="color000000 svgShape"><rect width="445.52" height="24.69" x="1139.68" y="2212.61" fill="#d7d9db" class="colord7dbd8 svgShape"></rect><rect width="513.77" height="24.69" x="1139.68" y="2124.17" fill="#d7d9db" class="colord7dbd8 svgShape"></rect></g><path fill="#d7d9db" d="M2354.94,2487.35c-39.05,39.04-63.55,93.46-63.55,153.28c0,115.9,90.55,210.19,204.79,216.43
				c-7.06,0.42-14.54,0.82-21.6,0.82H796.81c-7.06,0-14.12-0.41-20.77-1.24c-110.08-10.38-196.06-103.02-196.06-216.01
				c0-59.81,24.51-114.23,63.55-153.28c39.05-39.04,93.46-63.55,153.28-63.55h1699.78v0.82
				C2441.34,2427.12,2391.49,2450.8,2354.94,2487.35z" class="colord7dbd8 svgShape"></path><g fill="#000000" class="color000000 svgShape"><polygon fill="#224ae0" points="2890.56 1131.79 2846.27 1116.37 2825.09 1108.66 2765.41 1087.5 2746.14 1079.79 2738.43 1099.07 2713.42 1156.8 2705.71 1179.93 2688.36 1222.29 2470.79 742.82 2561.29 700.46 2590.16 688.89 2672.97 650.39" class="colore02242 svgShape"></polygon><polygon fill="#ffffff" points="2765.41 1087.5 2746.14 1079.79 2738.43 1099.07 2561.29 700.46 2590.16 688.89" class="colorffffff svgShape"></polygon><g fill="#000000" class="color000000 svgShape"><polygon fill="#224ae0" points="2188.26 1131.79 2232.55 1116.37 2253.73 1108.66 2313.41 1087.5 2332.68 1079.79 2340.39 1099.07 2365.4 1156.8 2373.11 1179.93 2390.46 1222.29 2608.03 742.82 2517.53 700.46 2488.67 688.89 2405.85 650.39" class="colore02242 svgShape"></polygon><polygon fill="#ffffff" points="2313.41 1087.5 2332.68 1079.79 2340.39 1099.07 2517.53 700.46 2488.67 688.89" class="colorffffff svgShape"></polygon></g><g fill="#000000" class="color000000 svgShape"><path fill="#0036ff" d="M2950,485.95c0,42.4-40.86,77.84-53.28,116.1c-12.88,39.66-1.09,92.25-25.12,125.26
					c-24.26,33.34-78.09,38.27-111.43,62.53c-33.01,24.02-54.2,73.82-93.86,86.7c-38.26,12.42-84.5-15-126.91-15
					c-42.4,0-88.65,27.43-126.91,15c-39.66-12.88-60.85-62.68-93.86-86.7c-33.34-24.26-87.16-29.2-111.43-62.53
					c-24.02-33.01-12.24-85.6-25.12-125.26c-12.42-38.26-53.28-73.7-53.28-116.1c0-42.4,40.86-77.84,53.28-116.1
					c12.88-39.66,1.09-92.25,25.12-125.26c24.26-33.34,78.09-38.27,111.43-62.53c33.01-24.02,54.2-73.82,93.86-86.7
					c38.26-12.42,84.5,15,126.91,15c42.4,0,88.65-27.43,126.91-15c39.66,12.88,60.85,62.68,93.86,86.7
					c33.34,24.26,87.16,29.2,111.43,62.53c24.02,33.01,12.24,85.6,25.12,125.26C2909.14,408.11,2950,443.54,2950,485.95z" class="colorffbf00 svgShape"></path><circle cx="2539.41" cy="485.95" r="319.5" fill="#0036ff" class="colorffd800 svgShape"></circle></g></g><g fill="#000000" class="color000000 svgShape"><path fill="#9ac7f4" d="M797.23,1599.47l-18.66,51.23l20.38,11.59c0,0,56.25,61.05,91-0.14c13.54-23.83-10.09-51.9-35.76-42.29
						c-0.36,0.13-0.72,0.27-1.08,0.41c-0.89,0.34-1.58-0.8-0.86-1.41l17.36-14.71c2.96-2.5,3.39-6.9,0.98-9.93l0,0
						c-2.2-2.78-6.12-3.53-9.2-1.75l-20.77,12c-4.65,2.68-10.16,3.44-15.36,2.12L797.23,1599.47z" class="colorf4c99a svgShape"></path><rect width="79.75" height="69.78" x="90.54" y="2740.24" fill="#9ac7f4" transform="rotate(-89.981 130.418 2775.125)" class="colorf4c99a svgShape"></rect><path fill="#343435" d="M88.86,2857.81l184.9,0.06c2.78,0,4.4-2.18,5.29-5.33c3.38-11.92-5.42-23.9-17.68-25.63
						c-22.88-3.23-63.3-31.76-96.06-55.29c-31.08,13.18-53.95,24.69-71.96,1.9c-0.66-0.83-1.99-0.43-2.11,0.62l-8.25,77.22
						C82.67,2854.83,85.39,2857.81,88.86,2857.81z" class="color353434 svgShape"></path><rect width="79.75" height="69.78" x="317.8" y="2740.24" fill="#9ac7f4" transform="rotate(-89.981 357.672 2775.125)" class="colorf4c99a svgShape"></rect><path fill="#343435" d="M316.12 2857.81l184.9.06c2.78 0 4.4-2.18 5.29-5.33 3.38-11.92-5.42-23.9-17.68-25.63-22.88-3.23-63.3-31.76-96.06-55.29-31.08 13.18-53.95 24.69-71.96 1.9-.66-.83-1.99-.43-2.11.62l-8.25 77.22C309.92 2854.83 312.64 2857.81 316.12 2857.81zM276.59 2313.38l22.65 434.08 113.03 1.25c0 0 12.27-749.89 5.6-852.6-1.53-23.16-2.93-42.46-4.1-56.73-1.4-17.9-2.3-27.9-2.3-27.9l-163.34 12.26.89 29.94L276.59 2313.38z" class="color353434 svgShape"></path><path fill="#343435" d="M239.28,2319.23l-50.23,431.39l-106.08,0.22c0,0,24.79-753.38,36.74-855.61
					c2.72-23.05,5.11-42.26,7.02-56.44c2.32-17.8,3.74-27.74,3.74-27.74l162.49,20.67l-2.43,29.85L239.28,2319.23z" class="color353434 svgShape"></path><path fill="#5fa8f2" d="M627.98,1512.31l189.51,79.56l-27.94,76.12l-201.67-56.35L448.69,1506.9c0,0-25.75,361.59-20.85,398.77
								c0.43,3.25-326.29,5.05-324.95-6.98l24.07-400.1l-87.04-71.66c17.29-55.11,60.01-99.58,115.48-115.64
								c50.68-14.68,149.99-6.44,224.03,3.98c40.83,5.75,78.64,24.73,107.59,54.09L627.98,1512.31z" class="color5facf2 svgShape"></path><path fill="#9ac7f4" d="M311.15,1301.98c0.43-7.27,0.74-12.47,0.74-12.47s35.43-6.14,38.85-7.82
						c6.81-3.34,16.86-26.41,16.98-53.62s-2.79-54.72-4.08-66.08c-1.29-11.36-6.5-57.16-49.71-72.44
						c-43.21-15.28-98.23,8.41-111.32,51.31c-13.09,42.89-5.37,75.29,3.17,87.82s15.91,34.92,17.19,43.68
						c0.5,3.43,0.6,14.54,0.53,26.78c-0.13,22.94,17.46,42.11,40.33,43.96h0C288.33,1345.08,309.69,1326.53,311.15,1301.98z" class="colorf4c99a svgShape"></path><path fill="#021b79" d="M227.33,1190.26c3.52,4.68,8.26,15.64,8.26,15.64c6.42-8.11,13.21-60.27,6.25-73.69
						c3.28,9.18,77.53-8.33,96.7-14.48c3.99-1.28,9.42,0.1,12.04,4.24c2.83,4.47,10.32,26.41,12.01,32.1
						c0.47-8.39-0.19-16.48-0.43-24.84c-0.23-7.92,23.41-39.15,11.85-53.76c-16.78-21.23-109.06-5.47-120.15-2.62
						c-12.18,3.13-49.96,19.84-52,37.5c-13.59,7.93-22.88,16.99-19.92,43.56c1.42,12.8,3.4,25.66,5.27,38.44
						c1.86,12.69,6.77,23.25,11.63,35.04c4.16,10.08,9.16,19.74,13.63,29.66c0.79,1.75,7.09,16.26,10.44,14.92
						c0.57-0.23,3.85-13.44,4.63-16.83c1.24-5.37,0.75-10.71,0.51-16.11c-0.09-2.02,0.24-4.39-0.8-6.22
						c-1.63-2.85-5.16-2.24-7.9-2.81c-8.72-1.81-13.55-10.12-15.29-18.24c-1.88-8.77-2.02-20.48,7.5-24.9
						c4.95-2.3,11.46-1.4,15.22,2.71C226.96,1189.79,227.15,1190.02,227.33,1190.26z" class="color323131 svgShape"></path><g fill="#000000" class="color000000 svgShape"><path fill="#17296d" d="M199.43,1981.27c-57.05,0-103.46-42.94-103.46-95.73c0-52.78,46.41-96.65,103.46-96.65
							s103.46,43.86,103.46,96.65C302.89,1938.33,256.48,1981.27,199.43,1981.27z M199.43,1808.48c-47.27,0-85.72,34.06-85.72,77.06
							s38.45,77.99,85.72,77.99s85.72-34.98,85.72-77.99S246.7,1808.48,199.43,1808.48z" class="color6d2917 svgShape"></path><rect width="31.79" height="34.17" x="95.54" y="1854.04" fill="#0036ff" class="colorffd800 svgShape"></rect><rect width="31.79" height="34.17" x="270.64" y="1853.72" fill="#0036ff" class="colorffd800 svgShape"></rect><path fill="#21347c" d="M342.49,2086.79H56.37c-5.64,0-10.22-4.57-10.22-10.22v-182.23c0-5.64,4.57-10.22,10.22-10.22h286.11
						c5.64,0,10.22,4.57,10.22,10.22v182.23C352.7,2082.21,348.13,2086.79,342.49,2086.79z" class="color7c3821 svgShape"></path><path fill="#17296d" d="M351.44,1954.46c-101.34,23.92-202.68,23.92-304.02,0c-4.8-1.13-8.19-5.47-8.19-10.4l0-71.28h320.41
						l0,71.28C359.63,1948.99,356.24,1953.33,351.44,1954.46z" class="color6d2917 svgShape"></path><path fill="#1c3cb5" d="M351.44,1947.08c-101.34,23.92-202.68,23.92-304.02,0c-4.8-1.13-8.19-5.47-8.19-10.4l0-71.28h320.41
						l0,71.28C359.63,1941.61,356.24,1945.95,351.44,1947.08z" class="colorb5591c svgShape"></path><path fill="#0036ff" d="M219.33,1997.24h-39.81c-2.1,0-3.8-1.7-3.8-3.8v-52.87c0-2.1,1.7-3.8,3.8-3.8h39.81
							c2.1,0,3.8,1.7,3.8,3.8v52.87C223.13,1995.54,221.43,1997.24,219.33,1997.24z" class="colorffbf00 svgShape"></path><rect width="48.63" height="35.58" x="175.11" y="1949.22" fill="#0036ff" transform="rotate(90 199.43 1967.005)" class="colorffd800 svgShape"></rect></g><g fill="#000000" class="color000000 svgShape"><path fill="#9ac7f4" d="M180.83,1741.66l-46.46,28.53l8.75,21.75c0,0,6.11,82.78,71.37,56.46c25.41-10.25,24.36-46.92-1.72-55.36
						c-0.36-0.12-0.73-0.24-1.11-0.35c-0.91-0.28-0.74-1.61,0.21-1.64l22.75-0.73c3.87-0.12,6.94-3.3,6.94-7.17l0,0
						c0-3.55-2.6-6.57-6.12-7.09l-23.73-3.51c-5.31-0.79-10.1-3.62-13.35-7.89L180.83,1741.66z" class="colorf4c99a svgShape"></path></g><g fill="#000000" class="color000000 svgShape"><path fill="#0575e6" d="M111.85,1557.4c0.24,0.52,83.77,184.4,83.99,184.88c-0.31,0.62-66.16,54.15-66.54,54.72l-0.75,0.62
							l-0.5-0.82L9.94,1602.76c-0.69,0.25,122.83,195.4,118.29,192.94c-0.19,0.47,68.05-56.72,66.01-53.33
							C194.24,1742.37,111.85,1557.4,111.85,1557.4L111.85,1557.4z" class="color42a2ea svgShape"></path><path fill="#5fa8f2" d="M39.91,1426.92L4.55,1533.58c-7.58,22.85-5.63,47.78,5.4,69.17l118.82,193.59l66.16-54.28l-83.08-184.67
							l33.3-96.94L39.91,1426.92z" class="color5facf2 svgShape"></path></g></g></svg>