<svg xmlns="http://www.w3.org/2000/svg" enable-background="new 0 0 2500 2500" viewBox="0 0 2500 2500" id="Websitemaintenanceprocess"><rect width="409.66" height="102.42" x="224.89" y="2141.3" fill="#e2e2e2" class="colore2e2e2 svgShape"></rect><polygon fill="#e2e2e2" points="529.62 2164.57 327.4 2164.57 327.4 434.13 343.33 434.13 343.33 2148.65 513.69 2148.65 513.69 434.13 529.62 434.13" class="colore2e2e2 svgShape"></polygon><rect width="335.5" height="15.93" x="260.72" y="732.61" fill="#e2e2e2" transform="rotate(-56.267 428.49 740.604)" class="colore2e2e2 svgShape"></rect><rect width="15.93" height="329.7" x="420.54" y="575.72" fill="#e2e2e2" transform="rotate(-34.401 428.515 740.562)" class="colore2e2e2 svgShape"></rect><rect width="335.5" height="15.93" x="260.71" y="1089.43" fill="#e2e2e2" transform="rotate(-56.267 428.474 1097.438)" class="colore2e2e2 svgShape"></rect><rect width="15.93" height="329.7" x="420.54" y="932.55" fill="#e2e2e2" transform="rotate(-34.401 428.515 1097.387)" class="colore2e2e2 svgShape"></rect><rect width="335.5" height="15.93" x="260.69" y="1446.25" fill="#e2e2e2" transform="rotate(-56.267 428.455 1454.279)" class="colore2e2e2 svgShape"></rect><rect width="15.93" height="329.7" x="420.53" y="1289.37" fill="#e2e2e2" transform="rotate(-34.401 428.514 1454.213)" class="colore2e2e2 svgShape"></rect><g fill="#000000" class="color000000 svgShape"><rect width="335.5" height="15.93" x="260.67" y="1803.07" fill="#e2e2e2" transform="rotate(-56.267 428.438 1811.113)" class="colore2e2e2 svgShape"></rect><rect width="15.93" height="329.7" x="420.53" y="1646.2" fill="#e2e2e2" transform="rotate(-34.401 428.514 1811.038)" class="colore2e2e2 svgShape"></rect></g><g fill="#000000" class="color000000 svgShape"><path fill="#e2e2e2" d="M1689.04,442.07H101.91c-42.41,0-76.91-34.5-76.91-76.91s34.5-76.91,76.91-76.91h1503.47L1689.04,442.07z
					 M101.91,304.17c-33.63,0-60.99,27.36-60.99,60.99s27.36,60.99,60.99,60.99h1560.33l-66.33-121.97L101.91,304.17L101.91,304.17z
					" class="colore2e2e2 svgShape"></path></g><g fill="#000000" class="color000000 svgShape"><rect width="15.93" height="474.17" x="1362.85" y="434.1" fill="#e2e2e2" class="colore2e2e2 svgShape"></rect></g><path fill="#64adf6" d="M541.01,474.02h-225c-60.13,0-108.87-48.74-108.87-108.87l0,0c0-60.13,48.74-108.87,108.87-108.87H541
				c60.13,0,108.87,48.74,108.87,108.87l0,0C649.87,425.28,601.13,474.02,541.01,474.02z" class="color64b5f6 svgShape"></path><circle cx="291.9" cy="361.53" r="36.89" fill="#ffffff" class="colorffffff svgShape"></circle><g fill="#000000" class="color000000 svgShape"><path fill="#f4f4f4" d="M2122.66,965.54v984.6c0,27.6-22.37,50.01-50.01,50.01H731.66c-27.63,0-50.04-22.41-50.04-50.01v-984.6
					L2122.66,965.54L2122.66,965.54z" class="colorf4f4f4 svgShape"></path><path fill="#0575e6" d="M2122.66,923.19v63.68H681.62v-63.68c0-27.64,22.41-50.01,50.04-50.01h1340.99
					C2100.29,873.19,2122.66,895.56,2122.66,923.19z" class="color42a5f5 svgShape"></path><circle cx="2043.56" cy="930.03" r="20.37" fill="#ffffff" transform="rotate(-80.781 2043.58 929.997)" class="colorffffff svgShape"></circle><circle cx="1984.82" cy="930.03" r="20.37" fill="#ffffff" class="colorffffff svgShape"></circle><circle cx="1926.08" cy="930.03" r="20.37" fill="#ffffff" class="colorffffff svgShape"></circle><g fill="#000000" class="color000000 svgShape"><rect width="1104.52" height="730.8" x="842.06" y="1085.81" fill="#e9ebed" class="coloredede9 svgShape"></rect><path fill="#b2b2b2" d="M1862.44,1780.34H941.86c-26.04,0-47.23-21.19-47.23-47.23v-546.85c0-26.04,21.19-47.23,47.23-47.23
						h920.57c26.04,0,47.23,21.19,47.23,47.23v546.85C1909.66,1759.15,1888.48,1780.34,1862.44,1780.34z M941.86,1156.93
						c-16.17,0-29.33,13.16-29.33,29.33v546.85c0,16.17,13.16,29.33,29.33,29.33h920.57c16.17,0,29.33-13.16,29.33-29.33v-546.85
						c0-16.17-13.16-29.33-29.33-29.33H941.86z" class="colorb2b2b2 svgShape"></path><circle cx="969.46" cy="1222.06" r="26.1" fill="#b2b2b2" class="colorb2b2b2 svgShape"></circle><circle cx="1834.84" cy="1222.06" r="26.1" fill="#b2b2b2" class="colorb2b2b2 svgShape"></circle><g fill="#000000" class="color000000 svgShape"><circle cx="969.46" cy="1697.3" r="26.1" fill="#b2b2b2" class="colorb2b2b2 svgShape"></circle><circle cx="1834.84" cy="1697.3" r="26.1" fill="#b2b2b2" class="colorb2b2b2 svgShape"></circle></g><g fill="#000000" class="color000000 svgShape"><path fill="#2e2f35" d="M1088.66 1296.45v91.29c0 34.55 15.33 49.2 35.92 49.2 22.88 0 37.53-15.1 37.53-49.2v-91.29h20.13v89.92c0 47.36-24.94 66.81-58.35 66.81-31.58 0-55.37-18.08-55.37-65.9v-90.83H1088.66zM1216.77 1450.67v-154.22h21.74l49.42 78.02c11.44 18.08 20.36 34.32 27.68 50.11l.46-.23c-1.83-20.59-2.29-39.36-2.29-63.38v-64.52h18.76v154.22h-20.13l-48.97-78.25c-10.75-17.16-21.05-34.78-28.83-51.48l-.69.23c1.14 19.45 1.6 37.98 1.6 63.61v65.9h-18.75V1450.67zM1367.31 1298.51c12.13-1.83 26.54-3.21 42.33-3.21 28.6 0 48.96 6.64 62.46 19.22 13.73 12.58 21.74 30.43 21.74 55.37 0 25.17-7.78 45.76-22.19 59.95-14.41 14.41-38.21 22.19-68.19 22.19-14.19 0-26.08-.69-36.15-1.83L1367.31 1298.51 1367.31 1298.51zM1387.22 1434.88c5.03.92 12.36 1.14 20.13 1.14 42.56 0 65.67-23.8 65.67-65.44.23-36.38-20.36-59.49-62.47-59.49-10.3 0-18.08.91-23.34 2.06L1387.22 1434.88 1387.22 1434.88zM1599.54 1378.37h-59.95v55.6h66.81v16.7h-86.72v-154.22h83.29v16.7h-63.38v48.73h59.95L1599.54 1378.37 1599.54 1378.37zM1632.24 1298.51c10.07-2.06 24.48-3.21 38.21-3.21 21.28 0 35.01 3.89 44.62 12.58 7.78 6.87 12.13 17.39 12.13 29.29 0 20.37-12.81 33.86-29.06 39.36v.69c11.9 4.12 18.99 15.1 22.65 31.12 5.03 21.51 8.69 36.38 11.9 42.33h-20.59c-2.52-4.35-5.95-17.62-10.3-36.84-4.58-21.28-12.81-29.29-30.89-29.97h-18.76v66.81h-19.91L1632.24 1298.51 1632.24 1298.51zM1652.15 1368.76h20.36c21.28 0 34.78-11.67 34.78-29.29 0-19.91-14.42-28.6-35.46-28.83-9.61 0-16.48.91-19.68 1.83V1368.76z" class="color2e3535 svgShape"></path><g fill="#000000" class="color000000 svgShape"><path fill="#2e2f35" d="M1107.61 1603.78c-3.24 1.61-9.71 3.23-18 3.23-19.21 0-33.67-12.13-33.67-34.48 0-21.33 14.46-35.79 35.59-35.79 8.49 0 13.85 1.82 16.18 3.03l-2.12 7.18c-3.34-1.62-8.09-2.83-13.75-2.83-15.97 0-26.59 10.21-26.59 28.11 0 16.68 9.6 27.4 26.19 27.4 5.36 0 10.82-1.11 14.36-2.83L1107.61 1603.78zM1174.75 1571.22c0 23.46-14.26 35.89-31.65 35.89-18 0-30.64-13.95-30.64-34.58 0-21.64 13.45-35.79 31.65-35.79C1162.72 1536.75 1174.75 1551 1174.75 1571.22zM1121.87 1572.33c0 14.56 7.89 27.6 21.74 27.6 13.95 0 21.84-12.84 21.84-28.31 0-13.55-7.08-27.7-21.74-27.7C1129.15 1543.92 1121.87 1557.37 1121.87 1572.33zM1186.17 1606v-68.14h9.6l21.84 34.48c5.05 7.99 9 15.16 12.23 22.14l.2-.1c-.81-9.1-1.01-17.39-1.01-28v-28.51h8.29V1606h-8.9l-21.64-34.58c-4.75-7.58-9.3-15.37-12.74-22.75l-.3.1c.51 8.6.71 16.78.71 28.11V1606H1186.17zM1251.48 1595.28c3.94 2.43 9.71 4.45 15.77 4.45 9 0 14.26-4.75 14.26-11.63 0-6.37-3.64-10.01-12.84-13.55-11.12-3.94-18-9.7-18-19.31 0-10.62 8.8-18.5 22.04-18.5 6.98 0 12.03 1.62 15.07 3.33l-2.43 7.18c-2.23-1.21-6.77-3.23-12.94-3.23-9.3 0-12.84 5.56-12.84 10.21 0 6.37 4.15 9.51 13.55 13.14 11.53 4.45 17.39 10.01 17.39 20.02 0 10.52-7.79 19.61-23.86 19.61-6.57 0-13.75-1.92-17.39-4.35L1251.48 1595.28zM1315.48 1545.34h-20.73v-7.48h50.45v7.48h-20.83V1606h-8.9v-60.66H1315.48zM1352.79 1538.77c4.45-.91 10.82-1.42 16.88-1.42 9.4 0 15.47 1.72 19.72 5.56 3.44 3.03 5.36 7.68 5.36 12.94 0 9-5.66 14.96-12.84 17.39v.3c5.26 1.82 8.39 6.67 10.01 13.75 2.22 9.51 3.84 16.08 5.26 18.71h-9.1c-1.11-1.92-2.63-7.79-4.55-16.28-2.02-9.4-5.66-12.94-13.65-13.25h-8.29V1606h-8.8L1352.79 1538.77 1352.79 1538.77zM1361.59 1569.8h9c9.4 0 15.37-5.16 15.37-12.94 0-8.8-6.37-12.64-15.67-12.74-4.25 0-7.28.41-8.69.81v24.87H1361.59zM1415.98 1537.86v40.34c0 15.27 6.77 21.74 15.87 21.74 10.11 0 16.58-6.67 16.58-21.74v-40.34h8.9v39.73c0 20.93-11.02 29.52-25.78 29.52-13.95 0-24.47-7.99-24.47-29.12v-40.14h8.9V1537.86zM1520.22 1603.78c-3.24 1.61-9.71 3.23-18 3.23-19.21 0-33.67-12.13-33.67-34.48 0-21.33 14.46-35.79 35.59-35.79 8.49 0 13.85 1.82 16.18 3.03l-2.12 7.18c-3.34-1.62-8.09-2.83-13.75-2.83-15.97 0-26.59 10.21-26.59 28.11 0 16.68 9.6 27.4 26.19 27.4 5.36 0 10.82-1.11 14.36-2.83L1520.22 1603.78zM1547.01 1545.34h-20.73v-7.48h50.45v7.48h-20.83V1606h-8.9v-60.66H1547.01zM1593.12 1537.86V1606h-8.8v-68.14H1593.12zM1666.72 1571.22c0 23.46-14.26 35.89-31.65 35.89-18 0-30.64-13.95-30.64-34.58 0-21.64 13.45-35.79 31.65-35.79C1654.69 1536.75 1666.72 1551 1666.72 1571.22zM1613.84 1572.33c0 14.56 7.89 27.6 21.74 27.6 13.95 0 21.84-12.84 21.84-28.31 0-13.55-7.08-27.7-21.74-27.7C1621.12 1543.92 1613.84 1557.37 1613.84 1572.33zM1678.15 1606v-68.14h9.6l21.84 34.48c5.05 7.99 9 15.16 12.23 22.14l.2-.1c-.81-9.1-1.01-17.39-1.01-28v-28.51h8.29V1606h-8.9l-21.64-34.58c-4.75-7.58-9.3-15.37-12.74-22.75l-.3.1c.51 8.6.71 16.78.71 28.11V1606H1678.15z" class="color2e3535 svgShape"></path></g></g></g><g fill="#000000" class="color000000 svgShape"><polygon fill="#f9f9f9" points="963.55 873.19 871.2 965.54 849.86 986.88 681.62 1155.12 681.62 1044.3 760.37 965.54 852.69 873.19" class="colorf9f9f9 svgShape"></polygon><polygon fill="#5678fa" points="729.48 1107.26 711.72 1125.05 681.62 1106.3 681.62 1077.44" class="colorfa5669 svgShape"></polygon><polygon fill="#5678fa" points="803.08 1033.67 785.31 1051.45 716.99 1008.89 734.77 991.12" class="colorfa5669 svgShape"></polygon><polygon fill="#5678fa" points="876.68 960.07 858.91 977.85 790.6 935.29 808.37 917.51" class="colorfa5669 svgShape"></polygon><polygon fill="#5678fa" points="950.27 886.47 932.52 904.26 882.62 873.19 928.97 873.19" class="colorfa5669 svgShape"></polygon></g></g><g fill="#000000" class="color000000 svgShape"><rect width="72.7" height="40.67" x="2155.63" y="2161.71" fill="#9bc9f7" transform="rotate(-86.732 2191.929 2181.987)" class="colorf7c19b svgShape"></rect><path fill="#c2ccd6" d="M2109.36,2243.71h100.46c2.6,0,4.7-2.1,4.7-4.7v-4.9h-109.86v4.9
						C2104.66,2241.61,2106.77,2243.71,2109.36,2243.71z" class="colorc2cbd6 svgShape"></path><path fill="#021b79" d="M2104.66,2237.37c0.21,0.04,0.42,0.06,0.65,0.06h108.35c0.3,0,0.58-0.03,0.87-0.08
						c2.2-0.41,3.86-2.34,3.86-4.66v-36.37c0-5.04-5.14-8.42-9.79-6.45c-12.32,5.23-25.02,5.05-38.17-1.3
						c-1.68-0.82-3.7-0.53-5.06,0.74l-4.38,4.11l-0.15,0.14l-0.66,0.62c-0.78,0.73-1.58,1.42-2.4,2.08
						c-0.08,0.07-0.17,0.14-0.26,0.21c-4.03,3.22-8.61,5.71-13.52,7.28c-0.15,0.05-0.32,0.1-0.47,0.14
						c-1.07,0.34-2.17,0.63-3.26,0.86c-0.24,0.05-0.47,0.1-0.7,0.16c-0.02,0-0.03,0-0.04,0.01c-26.23,6-35.11,21.54-37.43,27.96
						C2101.34,2234.9,2102.65,2236.99,2104.66,2237.37z" class="color37424c svgShape"></path><path fill="#e1e4e8" d="M2156.97,2203.52c-0.06,0.84,0.57,1.58,1.43,1.65h0.16c0.78-0.03,1.43-0.64,1.49-1.43l0.55-7.27
							l0.22-2.92l-0.66,0.62c-0.78,0.73-1.58,1.42-2.4,2.08c-0.08,0.07-0.17,0.14-0.26,0.21L2156.97,2203.52z" class="colore1e3e8 svgShape"></path><path fill="#e1e4e8" d="M2157.76 2196.26l2.84.22 7.26.55c.06.01.12.01.17.01.77-.03 1.42-.64 1.48-1.43.07-.84-.56-1.58-1.42-1.65l-7.12-.54-.15.14-.66.62C2159.38 2194.91 2158.58 2195.6 2157.76 2196.26zM2139.55 2204.92c.23-.06.46-.11.7-.16 1.1-.24 2.2-.52 3.26-.86l-1.26 2.43-3.37 6.46c-.32.62-.99.92-1.63.81-.15-.03-.3-.08-.44-.15-.76-.39-1.05-1.32-.66-2.07l3.36-6.44L2139.55 2204.92z" class="colore1e3e8 svgShape"></path><path fill="#e1e4e8" d="M2139.55,2204.92l2.7,1.41l6.47,3.37c0.14,0.07,0.29,0.12,0.44,0.15c0.65,0.11,1.31-0.2,1.63-0.81
							c0.4-0.75,0.1-1.68-0.65-2.07l-6.16-3.21c-0.15,0.05-0.32,0.1-0.47,0.14c-1.07,0.34-2.17,0.63-3.26,0.86
							C2140.01,2204.81,2139.77,2204.86,2139.55,2204.92z" class="colore1e3e8 svgShape"></path><rect width="40.67" height="72.7" x="2340.39" y="2145.59" fill="#9bc9f7" transform="rotate(-4.365 2361.346 2181.22)" class="colorf7c19b svgShape"></rect><path fill="#c2ccd6" d="M2277.99,2243.71h100.46c2.6,0,4.7-2.1,4.7-4.7v-4.9h-109.86v4.9
						C2273.28,2241.61,2275.39,2243.71,2277.99,2243.71z" class="colorc2cbd6 svgShape"></path><path fill="#021b79" d="M2273.28,2237.37c0.21,0.04,0.42,0.06,0.65,0.06h108.35c0.3,0,0.58-0.03,0.87-0.08
						c2.2-0.41,3.86-2.34,3.86-4.66v-36.37c0-5.04-5.14-8.42-9.79-6.45c-12.32,5.23-25.02,5.05-38.17-1.3
						c-1.68-0.82-3.7-0.53-5.06,0.74l-4.38,4.11l-0.15,0.14l-0.66,0.62c-0.78,0.73-1.58,1.42-2.4,2.08
						c-0.08,0.07-0.17,0.14-0.26,0.21c-4.03,3.22-8.61,5.71-13.52,7.28c-0.15,0.05-0.32,0.1-0.47,0.14
						c-1.07,0.34-2.17,0.63-3.26,0.86c-0.24,0.05-0.47,0.1-0.7,0.16c-0.02,0-0.03,0-0.04,0.01c-26.23,6-35.11,21.54-37.43,27.96
						C2269.96,2234.9,2271.27,2236.99,2273.28,2237.37z" class="color37424c svgShape"></path><path fill="#e1e4e8" d="M2325.59,2203.52c-0.06,0.84,0.57,1.58,1.43,1.65h0.16c0.78-0.03,1.43-0.64,1.49-1.43l0.55-7.27
							l0.22-2.92l-0.66,0.62c-0.78,0.73-1.58,1.42-2.4,2.08c-0.08,0.07-0.17,0.14-0.26,0.21L2325.59,2203.52z" class="colore1e3e8 svgShape"></path><path fill="#e1e4e8" d="M2326.38 2196.26l2.84.22 7.26.55c.06.01.12.01.17.01.77-.03 1.42-.64 1.48-1.43.07-.84-.56-1.58-1.42-1.65l-7.13-.54-.15.14-.66.62C2328.01 2194.91 2327.21 2195.6 2326.38 2196.26zM2308.17 2204.92c.23-.06.46-.11.7-.16 1.1-.24 2.2-.52 3.26-.86l-1.26 2.43-3.37 6.46c-.32.62-.99.92-1.63.81-.15-.03-.3-.08-.44-.15-.76-.39-1.05-1.32-.66-2.07l3.36-6.44L2308.17 2204.92z" class="colore1e3e8 svgShape"></path><path fill="#e1e4e8" d="M2308.17,2204.92l2.7,1.41l6.47,3.37c0.14,0.07,0.29,0.12,0.44,0.15c0.65,0.11,1.31-0.2,1.63-0.81
							c0.4-0.75,0.1-1.68-0.65-2.07l-6.16-3.21c-0.15,0.05-0.32,0.1-0.47,0.14c-1.07,0.34-2.17,0.63-3.26,0.86
							C2308.63,2204.81,2308.4,2204.86,2308.17,2204.92z" class="colore1e3e8 svgShape"></path><path fill="#333333" d="M2270.36,1166.73c0,0-57.66-15.77-61.58,61.64c-0.42,8.19-0.11,16.39,0.76,24.54
			c1.32,12.44,2.2,48.3-26.06,76.47c-6.41,6.39-4.72,17.17,3.31,21.36l51.47,26.82l126.69,3.42l14.92-13
			C2379.86,1367.98,2371.61,1132,2270.36,1166.73z" class="color333333 svgShape"></path><path fill="#9bc9f7" d="M2258.06,1196.56c0,0,11.5,50.38,52.09,48.92c0,0,8.69,40.77-40.05,48.74c-8.82,1.44-17.98-0.48-25.09-5.89
			c-10.17-7.73-19.65-24.24-12.63-59.48C2232.38,1228.85,2238,1203.41,2258.06,1196.56z" class="colorf7c19b svgShape"></path><rect width="45.33" height="90.01" x="2261.56" y="1258.85" fill="#9bc9f7" class="colorf7c19b svgShape"></rect><polygon fill="#021b79" points="2372.85 1666.05 2387.96 2168.95 2331.17 2168.95 2269.58 1756.39 2221.18 2168.95 2164.5 2168.95 2174.99 1695.25 2172.92 1642.35 2219.64 1624.14 2294.53 1605.25" class="color37424c svgShape"></polygon><path fill="#eceef1" d="M2210.25,1348.99l20.38-17.86c3.68-2.03,6.98-3.64,10.31-5.95l26.11,3.21l17.85,1.84l37.07-7.59
			c2.77,1.41,9.39,4.71,12.41,5.75v96.87l-80.38,46.72l-37.1-19.24L2210.25,1348.99z" class="colorecf0f1 svgShape"></path><polygon fill="#5678fa" points="2230.07 1537.92 2271.77 1588.32 2298.42 1549.81 2283.78 1340.87 2289.61 1335.18 2289.68 1335.12 2275.29 1320.35 2260.52 1334.74 2260.58 1334.8 2266.26 1340.64" class="colorfa5669 svgShape"></polygon><path fill="#64adf6" d="M2148.39,1677.71c20.17,19.99,51.7,33.22,86.28,33.28l14.73-37.36l0.3-0.55l0.34,0.66l16.16,36.37
			c40.38,9.23,81.02-4.55,121.76-28.61c-15.08-31.96-24.47-64.86-28.11-98.7l-0.71-9.89c-1.72-48.1,1.41-83.8,17.82-133.25
			c0,0-33.74-29.28-8.41-99.91l-20.69-6.89l-0.39-0.13l-13.1-4.37l-70.08,121.61l-33.66-118.86l-4.32,2.34l-39.45,56.54l-5.5,81.96
			l-13.67,19.49L2148.39,1677.71z M2038.17,1453.21l33.41,63.46c18,27.79,58.4,28.53,77.42,1.43l18.69-26.65l63.36-59.27
			c9.41,4.83,2.09-56.95-4.75-98.72l-24.5,5.19c-21.76,4.61-40.42,18.5-51.08,38.04l-46.32,84.97l-27.91-36.4L2038.17,1453.21z" class="color64b5f6 svgShape"></path><path fill="#e1e4e8" d="M2306.9 1303.21c3.56 7.78 5.79 11.26 15.07 19.41l-28.26 33.59-8.81-26L2306.9 1303.21zM2261.57 1307.82l5.48 20.55-11.58 28.7-14.52-31.91C2248.02 1320.35 2258.12 1314.21 2261.57 1307.82z" class="colore1e3e8 svgShape"></path><g fill="#000000" class="color000000 svgShape"><path fill="#0575e6" d="M2245.67,1496.34l0.01,0.37c1.05,55.01,2.33,118.28,3.72,176.93l0.3-0.55l0.34,0.66
					c-0.76-58.67-1.8-121.94-2.76-177.01c-0.05,0.02-0.05,0,0-0.07v0.07c1.94-0.78,82.5-72.34,82.1-71.66l0.41-0.35l-0.24-0.48
					l-12.79-26.53l-0.76,0.17l0.43-0.87l0.34,0.7l32.87-7.25l0.4-0.09l-0.02-0.41c-0.52-13.83-1.38-36.9-2.15-57.11l-0.39-0.13
					c0.53,20.05,1.17,42.89,1.54,56.85l0.39-0.08l-0.39,0.5c0-0.14-0.01-0.28-0.01-0.42l-33.29,7.09l-0.77,0.16l0.34,0.71
					l12.74,26.82l0.4-0.35l-0.17,0.84l-0.23-0.48l-81.09,70.83l-0.06,0.05l-0.96,0.84L2245.67,1496.34z" class="color42a5f5 svgShape"></path><path fill="#0575e6" d="M2213.03,1379.49l-0.15,0.57l0.54,0.26l20.65,9.73c-4.61,6.58-13.06,18.73-17.32,24.9l-0.34,0.49l0.4,0.46
					c9.99,11.45,30.15,34.38,40.37,45.86c-3,9.79-7.2,23.3-10.27,33.49c-0.15,0.49-0.29,0.97-0.43,1.44
					c0.16-0.49,0.32-0.98,0.49-1.49c3.42-10.36,8.09-23.76,11.26-33.65c-0.07-0.08-0.13-0.16-0.21-0.24
					c-0.05-0.07-0.11-0.13-0.16-0.2c-10.01-11.72-29.35-34.12-39.48-45.77c4.58-6.52,13.2-18.91,17.52-25.15l0.53-0.77l-0.84-0.39
					l-21.01-9.77c1.58-6.03,3.15-12.07,4.69-18.11c2.22-8.59,4.65-18.14,7.06-27.7L2213.03,1379.49z" class="color42a5f5 svgShape"></path><path fill="#0575e6" d="M2257.7,1461.66c3.14-3.27,5.43-7.3,6.6-11.68C2261.16,1453.24,2258.88,1457.29,2257.7,1461.66
					L2257.7,1461.66z" class="color42a5f5 svgShape"></path></g><g fill="#000000" class="color000000 svgShape"><path fill="#0575e6" d="M2253.42 1514.17c.03 2.4 2.01 4.32 4.41 4.29 2.4-.03 4.32-2.01 4.29-4.41s-2.01-4.32-4.41-4.29C2255.31 1509.79 2253.39 1511.77 2253.42 1514.17zM2253.87 1546.68c.03 2.4 2.01 4.32 4.41 4.29 2.4-.03 4.32-2.01 4.29-4.41s-2.01-4.32-4.41-4.29C2255.76 1542.31 2253.84 1544.28 2253.87 1546.68zM2254.33 1579.2c.03 2.4 2.01 4.32 4.41 4.29 2.4-.03 4.32-2.01 4.29-4.41s-2.01-4.32-4.41-4.29C2256.21 1574.82 2254.29 1576.8 2254.33 1579.2zM2254.78 1611.72c.03 2.4 2.01 4.32 4.41 4.29 2.4-.03 4.32-2.01 4.29-4.41s-2.01-4.32-4.41-4.29C2256.67 1607.34 2254.75 1609.31 2254.78 1611.72zM2255.23 1644.23c.03 2.4 2.01 4.32 4.41 4.29 2.4-.03 4.32-2.01 4.29-4.41s-2.01-4.32-4.41-4.29C2257.12 1639.86 2255.2 1641.83 2255.23 1644.23z" class="color42a5f5 svgShape"></path></g><path fill="#64adf6" d="M2406.8,1509.76l-124.74,5.55l2.18,51.13l143.43-3.09c36.89-0.79,59.96-41.77,39.96-72.78
			c-0.15-0.23-0.29-0.45-0.44-0.67l-61.38-121.62c-8.89-13.39-21.99-23.43-37.24-28.52c-25.33,70.63-1.08,113.34-1.08,113.34
			L2406.8,1509.76z" class="color64b5f6 svgShape"></path><g fill="#000000" class="color000000 svgShape"><polygon fill="#5678fa" points="2307.85 1590.03 2120.79 1708.96 2093.05 1625.84 2074.9 1571.58 2041.76 1472.24 2023.62 1417.93 2005.86 1364.78 2044.92 1339.94 2085.52 1378.58 2127.03 1418.02 2202.89 1490.21 2244.36 1529.64" class="colorfa5669 svgShape"></polygon><path fill="#5678fa" d="M2363.82,1598.21l-255.1,162.19c-4.8,3.05-11.17,1.64-14.23-3.17l-12.44-19.57
				c-3.05-4.8-1.64-11.17,3.17-14.23l255.1-162.19c4.8-3.05,11.17-1.64,14.23,3.17l12.44,19.57
				C2370.04,1588.78,2368.62,1595.15,2363.82,1598.21z" class="colorfa5669 svgShape"></path><polygon fill="#e9ebed" points="2127.03 1418.02 2041.76 1472.24 2023.62 1417.93 2085.52 1378.58" class="coloredede9 svgShape"></polygon><polygon fill="#e9ebed" points="2244.36 1529.64 2093.05 1625.84 2074.9 1571.58 2202.89 1490.21" class="coloredede9 svgShape"></polygon></g><path fill="#9bc9f7" d="M2009.94 1406.24c0 0 13.48-6.56 23.8 6.45 4.42 5.56 6.62 12.61 5.89 19.68-.6 5.79-3.12 12.45-10.92 15.58l-.33.16c-2.03.98-4.47.08-5.38-1.99l-15.21-34.58C2006.91 1409.49 2007.87 1407.1 2009.94 1406.24L2009.94 1406.24zM2287.32 1523.55l-14.94-4.04c-2.9-.78-5.31-2.79-6.62-5.49l-5.31-11.04c-.82-1.7-2.69-2.63-4.54-2.25l0 0c-2.42.5-3.86 3-3.08 5.35l3.63 10.81c0 0-39.62-10.39-28.96 9.05 0 0-10.54 4.94 1.14 10.61 0 0-10.15 6.69 1.16 10.85 0 0-7.76 6.11 2.33 9.12 2.28.68 4.66.92 7.03.83l46.31-1.83L2287.32 1523.55z" class="colorf7c19b svgShape"></path></g></svg>