<svg width="298" height="300" viewBox="0 0 298 300" fill="none" xmlns="http://www.w3.org/2000/svg">
<path d="M134.077 44.3545H73.7463C71.66 44.3545 69.9688 46.0457 69.9688 48.1322V80.1412C69.9688 82.2275 71.66 83.9187 73.7463 83.9187H134.077C136.163 83.9187 137.855 82.2275 137.855 80.1412V48.1322C137.855 46.0457 136.164 44.3545 134.077 44.3545ZM101.098 77.6226H76.2649V50.6508H101.099V77.6226H101.098ZM116.589 77.6226H106.447C105.65 77.6226 105.004 76.9766 105.004 76.1798C105.004 75.383 105.65 74.737 106.447 74.737H116.589C117.386 74.737 118.032 75.383 118.032 76.1798C118.032 76.9766 117.386 77.6226 116.589 77.6226ZM130.116 71.6011L106.447 71.601C105.65 71.601 105.004 70.955 105.004 70.1582C105.004 69.3614 105.65 68.7153 106.447 68.7153H130.116C130.913 68.7153 131.559 69.3614 131.559 70.1582C131.559 70.955 130.913 71.6011 130.116 71.6011ZM130.116 65.5795H106.447C105.65 65.5795 105.004 64.9336 105.004 64.1367C105.004 63.3397 105.65 62.6937 106.447 62.6937H130.116C130.913 62.6937 131.559 63.3397 131.559 64.1367C131.559 64.9336 130.913 65.5795 130.116 65.5795ZM105.004 58.1152C105.004 57.3184 105.65 56.6723 106.447 56.6723H116.589C117.386 56.6723 118.032 57.3184 118.032 58.1152C118.032 58.912 117.386 59.558 116.589 59.558H106.447C105.65 59.558 105.004 58.912 105.004 58.1152ZM130.116 53.5365H106.447C105.65 53.5365 105.004 52.8905 105.004 52.0937C105.004 51.2969 105.65 50.6509 106.447 50.6509H130.116C130.913 50.6509 131.559 51.2969 131.559 52.0937C131.559 52.8905 130.913 53.5365 130.116 53.5365ZM227.723 44.3545H167.392C165.306 44.3545 163.615 46.0457 163.615 48.1322V80.1412C163.615 82.2275 165.306 83.9187 167.392 83.9187H227.723C229.809 83.9187 231.501 82.2275 231.501 80.1412V48.1322C231.501 46.0457 229.809 44.3545 227.723 44.3545ZM194.744 77.6226H169.911V50.6508H194.744V77.6226ZM210.235 77.6226H200.093C199.296 77.6226 198.65 76.9766 198.65 76.1798C198.65 75.383 199.296 74.737 200.093 74.737H210.235C211.032 74.737 211.678 75.383 211.678 76.1798C211.678 76.9766 211.032 77.6226 210.235 77.6226ZM223.762 71.6011L200.093 71.601C199.296 71.601 198.65 70.955 198.65 70.1582C198.65 69.3614 199.296 68.7153 200.093 68.7153H223.762C224.559 68.7153 225.205 69.3614 225.205 70.1582C225.205 70.955 224.559 71.6011 223.762 71.6011ZM223.762 65.5795H200.093C199.296 65.5795 198.65 64.9336 198.65 64.1367C198.65 63.3397 199.296 62.6937 200.093 62.6937H223.762C224.559 62.6937 225.205 63.3397 225.205 64.1367C225.205 64.9336 224.559 65.5795 223.762 65.5795ZM198.65 58.1152C198.65 57.3184 199.296 56.6723 200.093 56.6723H210.235C211.032 56.6723 211.678 57.3184 211.678 58.1152C211.678 58.912 211.032 59.558 210.235 59.558H200.093C199.296 59.558 198.65 58.912 198.65 58.1152ZM223.762 53.5365H200.093C199.296 53.5365 198.65 52.8905 198.65 52.0937C198.65 51.2969 199.296 50.6509 200.093 50.6509H223.762C224.559 50.6509 225.205 51.2969 225.205 52.0937C225.205 52.8905 224.559 53.5365 223.762 53.5365Z" fill="#FED2CA"/>
<path d="M30.8527 64.3416C43.5134 58.0625 32.714 54.011 39.1339 48.5182C45.556 43.0337 55.9219 47.3674 58.8723 44.0334C61.8227 40.6992 66.3227 31.923 79.2902 32.6754C83.5441 32.9222 92.2817 37.2688 91.2144 44.8516C90.5956 49.2473 91.7849 51.9043 92.4623 53.9573C93.6483 57.5767 95.0647 59.4934 93.6514 66.6459C91.4322 77.8589 79.4577 71.5986 71.2497 82.1834C62.2219 93.84 52.8685 99.4254 44.5489 100.701C34.7697 102.202 26.4009 97.7347 21.617 90.1468C12.7619 76.0844 18.1842 70.6217 30.8527 64.3416Z" fill="#444444"/>
<path d="M102.932 122.162L110.981 100.338L128.661 108.187L186.027 93.4482L188.628 105.405C188.628 105.405 151.835 123.498 127.974 128.993C121.809 130.413 102.932 122.162 102.932 122.162Z" fill="#EDA69A"/>
<path opacity="0.2" d="M135.073 127.103C132.624 127.84 130.232 128.474 127.973 128.989C121.808 130.406 102.928 122.163 102.928 122.163L110.978 100.344L123.841 106.047C124.253 109.41 125.168 118.219 124.002 121.428C124.002 121.428 128.249 126.49 135.073 127.103Z" fill="#FF5C40"/>
<path opacity="0.2" d="M129.025 116.687C126.74 113.317 127.908 108.948 128.536 108.927C129.164 108.906 131.499 111.569 130.71 111.507C129.921 111.446 128.934 109.935 128.934 109.935C128.934 109.935 129.791 117.816 129.025 116.687Z" fill="#FF5C40"/>
<path d="M198.093 83.1768C198.901 83.5578 199.029 84.3536 198.516 85.2821C197.422 87.2602 196.135 89.1165 194.905 91.0987C199.235 90.0769 203.917 89.0677 208.246 88.0459C208.489 88.5704 208.256 89.1457 207.934 89.4966C207.613 89.8473 207.184 90.0775 206.761 90.2943C205.102 91.1436 203.389 91.8879 201.635 92.5214C204.736 92.2001 206.953 91.8962 209.879 91.7146C209.982 92.1536 209.814 92.7996 209.468 93.0882C209.121 93.3768 208.329 93.6459 207.902 93.79C205.961 94.4447 204.373 94.98 202.432 95.6345C204.597 95.5573 206.869 95.7067 209.034 95.6293C209.19 95.9414 209.004 96.5337 208.762 96.7857C208.521 97.0378 208.195 97.1976 207.862 97.3033C206.173 97.8401 203.893 98.3147 202.526 98.6891C203.983 98.7814 205.484 99.029 206.941 99.1213C207.037 100.492 205.286 100.226 204.226 100.557C199.825 101.93 195.212 103.391 190.812 104.764C190.812 104.764 187.487 105.792 184.915 106.356C184.883 106.212 182.058 96.2109 181.758 95.3854C182.981 95.0399 185.55 94.2608 185.55 94.2608C188.123 88.8069 191.32 88.6708 198.093 83.1768Z" fill="#EDA69A"/>
<path d="M200.386 92.7423C200.408 92.8508 200.929 92.8359 201.55 92.7093C202.171 92.5827 202.656 92.3919 202.634 92.2834C202.612 92.1749 202.091 92.1896 201.47 92.3164C200.849 92.443 200.364 92.6338 200.386 92.7423ZM200.852 95.9807C200.874 96.0893 201.395 96.0745 202.016 95.9479C202.637 95.8212 203.122 95.6305 203.1 95.522C203.078 95.4135 202.557 95.4282 201.936 95.555C201.315 95.6816 200.83 95.8722 200.852 95.9807ZM201.034 99.0434C201.056 99.1519 201.578 99.1371 202.198 99.0104C202.819 98.8838 203.304 98.6931 203.282 98.5846C203.26 98.4759 202.739 98.4908 202.118 98.6174C201.497 98.7442 201.012 98.9349 201.034 99.0434ZM199.156 99.3992C199.265 99.3753 199.059 98.0274 198.698 96.3883C198.337 94.7492 197.956 93.4399 197.848 93.4638C197.74 93.4877 197.945 94.8355 198.307 96.4747C198.668 98.1137 199.048 99.4231 199.156 99.3992ZM191.405 96.4704C191.411 96.4975 191.518 96.494 191.709 96.4637C191.897 96.426 192.183 96.3992 192.502 96.2534C193.156 96.03 194.026 95.457 194.575 94.5114C195.138 93.5761 195.252 92.5775 195.267 91.8945C195.266 91.2002 195.151 90.7814 195.098 90.7902C195.042 90.7975 195.054 91.2158 194.983 91.8781C194.899 92.5312 194.745 93.4571 194.23 94.3071C193.729 95.1659 192.98 95.7151 192.387 95.9941C192.102 96.1647 191.838 96.2307 191.668 96.313C191.495 96.3883 191.4 96.4432 191.405 96.4704ZM185.823 94.9711C185.796 94.9685 185.763 95.0912 185.727 95.3172C185.691 95.5433 185.643 95.8729 185.647 96.2831C185.625 97.1014 185.739 98.2454 186.103 99.4468C186.814 101.873 188.168 103.47 188.246 103.388C188.338 103.328 187.173 101.679 186.487 99.3322C185.756 96.9937 185.96 94.9762 185.823 94.9711Z" fill="#FF5C40"/>
<path d="M92.3916 86.8154C92.3916 86.8154 116.287 101.175 122.944 103.416C125.269 104.199 116.908 128.851 115.252 129.582C113.596 130.313 95.7442 121.583 91.5516 118.017C87.359 114.451 82.3845 103.729 81.9037 100.855C81.4954 98.4144 82.5682 88.3066 85.5196 85.6069C86.2506 85.5068 91.8344 86.8375 92.3916 86.8154Z" fill="url(#paint0_linear_11045_32730)"/>
<path opacity="0.5" d="M98.5803 95.086C95.7563 89.9792 119.158 102.624 118.701 105.15C118.244 107.676 101.039 99.5323 98.5803 95.086Z" fill="#6E6E6E"/>
<path opacity="0.5" d="M118.988 121.296C117.416 125.727 115.872 129.316 115.256 129.586C113.595 130.315 95.7391 121.586 91.5539 118.015C87.3535 114.447 82.388 103.724 81.8979 100.856C81.4509 98.1357 81.6431 94.7289 85.0931 93.541C89.4938 103.316 104.528 118.872 118.988 121.296Z" fill="#888888"/>
<path d="M244.314 194.901C241.047 199.684 239.381 276.271 238.936 289.285H197.392C196.433 258.182 196.486 180.553 197.654 178.272C198.808 175.992 241.548 173.712 243.48 173.768C245.135 179.426 247.582 190.118 244.314 194.901Z" fill="url(#paint1_linear_11045_32730)"/>
<path d="M244.31 194.897C241.047 199.685 239.385 276.27 238.937 289.281H197.39C197.08 279.043 196.873 263.767 196.77 247.794C210.762 255.966 212.932 273.162 215.972 274.1C219.373 275.159 215.679 269.433 214.594 267.883C213.501 266.333 217.487 266.85 221.319 263.793C225.16 260.736 218.779 260.392 216.773 258.325C214.758 256.258 215.937 256.775 221.319 253.158C226.71 249.542 215.937 197.876 212.321 194.26C209.307 191.246 202.72 191.668 196.925 195.586C197.08 185.606 197.329 178.915 197.656 178.269C198.81 175.987 241.546 173.714 243.484 173.766C245.137 179.423 247.583 190.118 244.31 194.897Z" fill="#444444"/>
<path d="M229.679 289.288H268.741C269.697 258.184 270.473 180.545 269.314 178.271C266.009 171.782 214.592 174.027 214.592 174.027L225.753 197.354L229.679 289.288Z" fill="url(#paint2_linear_11045_32730)"/>
<path opacity="0.5" d="M240.538 272.206C244.121 274.359 257.39 275.547 269.075 276.038C268.972 281.007 268.851 285.493 268.739 289.291H229.68L225.753 197.352L214.594 174.025C214.594 174.025 266.01 171.777 269.316 178.27C269.54 178.718 269.695 182.067 269.781 187.397C261.523 191.694 246.402 198.747 241.442 200.081C234.726 201.881 228.724 242.37 232.401 247.993C236.086 253.616 245.688 251.161 242.243 254.52C238.799 257.878 231.084 259.221 233.581 262.037C236.086 264.853 258.966 257.094 254.987 262.037C251.001 266.98 233.762 268.142 240.538 272.206Z" fill="#444444"/>
<path d="M178.341 114.268C178.178 116.27 180.206 122.312 186.354 127.194C192.501 132.076 199.996 132.074 199.996 132.074C199.996 132.074 200.711 123.545 194.661 117.774C188.612 112.003 180.981 115.901 178.341 114.268Z" fill="#444444"/>
<path d="M185.162 114.782C185.162 114.782 161.544 133.455 162.203 134.584C162.862 135.714 163.375 136.031 168.739 138.004C174.102 139.977 186.993 139.924 186.993 139.924L201.703 129.909C201.703 129.909 201.155 111.865 185.162 114.782Z" fill="#EDA69A"/>
<path d="M215.963 85.7295C215.963 85.7295 212.115 87.0968 211.644 87.285C211.174 87.4731 194.071 104.6 178.574 114.009C175.963 115.595 195.931 119.653 199.995 132.073C206.845 129.062 214.175 123.385 215.972 117.112C217.77 110.84 215.963 85.7295 215.963 85.7295Z" fill="url(#paint3_linear_11045_32730)"/>
<path opacity="0.5" d="M208.12 94.4071C211.688 94.7808 194.66 114.783 187.708 113.189C185.259 112.628 206.069 94.1922 208.12 94.4071Z" fill="#6E6E6E"/>
<path opacity="0.5" d="M216.589 112.639C216.471 114.512 216.271 116.068 215.97 117.105C214.18 123.378 206.853 129.065 199.995 132.076C198.707 128.112 195.796 125.001 192.518 122.558C199.627 122.826 208.844 121.069 216.589 112.639Z" fill="#888888"/>
<path d="M195.516 183.972C196.86 185.007 244.874 187.135 250.933 187.133C256.991 187.131 273.028 179.177 273.028 179.177C273.028 179.177 251.218 97.0809 244.295 85.6523C239.662 84.2995 217.507 85.1247 215.963 85.7302C214.418 86.3355 189.814 179.582 195.516 183.972Z" fill="url(#paint4_linear_11045_32730)"/>
<path opacity="0.2" d="M253.371 110.297C251.874 115.921 249.618 123.255 247.971 123.929C245.256 125.03 212.101 123.48 209.909 123.17C208.893 123.031 207.685 120.807 206.68 118.433C199.752 145.964 192.065 181.311 195.518 183.973C196.865 185.01 244.881 187.138 250.933 187.128C256.995 187.128 273.033 179.173 273.033 179.173C273.033 179.173 262.191 138.384 253.371 110.297ZM260.662 175.056C257.562 175.313 241.685 170.427 245.416 173.656C249.148 176.874 258.706 178.2 256.995 179.526C255.284 180.851 256.6 182.412 251.307 182.776C246.015 183.129 207.568 183.086 205.803 180.402C204.039 177.719 223.402 171.229 223.402 171.229C234.35 168.823 248.784 159.436 252.27 161.478C255.766 163.531 263.624 171.464 260.662 171.229C257.69 170.983 251.553 168.695 254.44 170.62C257.327 172.544 263.752 174.789 260.662 175.056Z" fill="#636363"/>
<path opacity="0.2" d="M243.192 120.253C235.452 123.403 216.41 119.787 215.981 118.268C215.552 116.748 237.8 111.646 234.703 113.803C231.606 115.96 223.054 117.851 223.411 117.828C223.768 117.804 249.914 117.518 243.192 120.253Z" fill="#636363"/>
<path d="M273.742 123.892C273.742 123.892 289.054 160.368 288.971 164.805C288.889 169.243 286.477 174.233 281.357 174.054C276.237 173.876 269.636 171.738 269.636 171.738L256.053 125.443L273.742 123.892Z" fill="#EDA69A"/>
<path d="M244.295 85.6846C244.295 85.6846 254.585 88.3448 255.655 89.5031C256.724 90.6614 270.039 115.89 276.712 123.892C279.882 127.693 257.314 134.403 255.76 131.93C254.877 130.526 249.787 118.818 246.86 106.357C244.632 96.8727 244.295 85.6846 244.295 85.6846Z" fill="url(#paint5_linear_11045_32730)"/>
<path opacity="0.5" d="M252.347 90.3584C255.915 90.7321 262.398 104.136 260.756 106.037C259.113 107.937 250.296 90.1436 252.347 90.3584Z" fill="#888888"/>
<path d="M248.047 110.075C248.047 110.075 254.666 130.324 256.529 131.46C258.391 132.596 266.121 130.552 265.991 130.587C265.861 130.621 257.075 135.322 255.056 133.866C253.036 132.41 247.406 112.716 248.047 110.075ZM209.843 106.179C210.68 107.055 202.871 139.988 201.813 138.399C200.754 136.811 207.673 108.903 209.843 106.179Z" fill="#636363"/>
<path opacity="0.2" d="M223.078 85.1357C223.078 85.1357 222.626 91.3795 229.662 92.2117C236.698 93.0442 239.856 85.1357 239.856 85.1357H223.078Z" fill="#636363"/>
<path d="M244.146 56.6233C244.629 54.9901 243.881 53.2533 242.976 51.8108C242.071 50.3681 240.966 48.9787 240.63 47.309C240.353 45.9288 240.636 44.5062 240.684 43.0991C240.732 41.6923 240.473 40.1396 239.399 39.2285C238.807 38.7263 238.035 38.4833 237.267 38.3718C236.177 38.2136 235.052 38.2986 233.998 38.619C232.879 38.9591 231.728 39.5674 230.605 39.24C229.674 38.9687 229.049 38.1282 228.374 37.4318C227.101 36.1195 225.397 35.1835 223.576 35.026C221.755 34.8689 219.835 35.5527 218.673 36.9632C218.175 37.5676 217.823 38.2831 217.311 38.8755C215.812 40.6089 213.316 40.9553 211.082 41.468C208.849 41.9805 206.36 43.106 205.856 45.3414C205.471 47.0489 206.4 48.9411 205.682 50.5369C205.178 51.6559 204.001 52.2986 203.234 53.2564C202.18 54.5704 202.028 56.61 203.067 57.9359C204.267 59.4679 206.642 59.7862 207.656 61.447C208.443 62.7354 208.138 64.3744 208.256 65.8792C208.429 68.0772 209.617 70.1748 211.414 71.4523L210.881 70.916C213.983 73.3803 217.653 75.1235 221.523 75.9701C223.443 76.3903 225.454 76.59 227.369 76.1455C230.116 75.508 232.398 73.622 235.033 72.6183C237.037 71.8545 239.47 71.4298 240.516 69.5573C241.856 67.1575 239.964 64.0233 240.928 61.4493C241.611 59.6254 243.594 58.491 244.146 56.6233Z" fill="#444444"/>
<path d="M238.144 83.2296L232.389 65.2383L224.684 74.9876L226.155 83.3524C224.52 83.7923 225.171 88.7395 230.793 88.7395C238.862 88.7395 238.938 83.2745 238.144 83.2296Z" fill="#EDA69A"/>
<path d="M226.002 82.469L223.078 84.8577C223.078 84.8577 224.82 89.8415 230.985 89.9776C237.151 90.1135 240.025 84.802 240.025 84.802L237.661 81.7246C237.661 81.7246 236.576 86.3818 231.094 86.3818C226.652 86.3817 226.002 82.469 226.002 82.469Z" fill="#636363"/>
<path d="M225.87 81.724L224.688 74.9906L228.83 69.752L232.473 71.0252C232.473 71.0252 233.768 79.2578 225.87 81.724Z" fill="#E39082"/>
<path d="M237.649 65.6098C237.103 67.7465 234.975 66.3787 234.975 66.3787C234.975 66.3787 235.142 69.273 234.793 69.9109C233.193 72.8308 228.424 80.7325 218.848 79.8079C207.181 78.6814 209.237 54.1037 209.237 54.1037C209.237 54.0231 217.302 56.6608 222.201 54.1037C226.099 52.0651 228.6 59.4398 232.588 54.661C232.588 54.661 231.201 60.2029 233.273 60.813C233.843 60.9809 234.904 59.0831 234.904 59.0831C234.984 58.8862 235.869 56.8301 238.292 58.2336C240.831 59.7179 238.203 63.4641 237.649 65.6098Z" fill="#EDA69A"/>
<path d="M235.995 60.4531C235.995 60.4531 235.533 61.8413 235.752 62.474L237.139 62.036L235.849 63.0971L236.147 64.7126C236.147 64.7126 233.732 62.4715 235.995 60.4531Z" fill="#444444"/>
<path d="M229.113 67.2028C229.237 68.0217 228.333 68.8369 227.094 69.0238C225.856 69.2106 224.751 68.6983 224.628 67.8795C224.504 67.0606 225.408 66.2454 226.647 66.0586C227.886 65.8718 228.99 66.3841 229.113 67.2028ZM215.12 67.0372C215.244 67.8559 214.339 68.6713 213.101 68.8581C211.862 69.045 210.758 68.5327 210.634 67.7138C210.511 66.8949 211.415 66.0797 212.654 65.893C213.892 65.706 214.997 66.2185 215.12 67.0372Z" fill="#E39082"/>
<path d="M214.747 62.217C214.729 63.2926 214.117 64.1542 213.381 64.1415C212.645 64.1287 212.064 63.2464 212.082 62.1707C212.101 61.0952 212.713 60.2335 213.449 60.2462C214.185 60.2591 214.766 61.1413 214.747 62.217ZM226.741 62.425C226.722 63.5006 226.11 64.3623 225.374 64.3495C224.638 64.3366 224.057 63.4543 224.076 62.3788C224.094 61.3031 224.706 60.4416 225.442 60.4543C226.178 60.467 226.759 61.3494 226.741 62.425ZM219.627 66.6132C219.5 66.4703 219.282 66.457 219.14 66.5845C218.766 66.9163 218.24 66.8727 217.895 66.7917C219.063 64.7573 218.59 61.8634 218.398 61.887C218.209 61.9092 218.383 64.8694 217.111 66.749C217.068 66.8128 217.055 66.8859 217.058 66.9572C217.043 67.1008 217.115 67.2441 217.253 67.3075C217.287 67.3226 217.777 67.5413 218.366 67.5413C218.768 67.5413 219.217 67.4394 219.598 67.1005C219.741 66.974 219.754 66.7557 219.627 66.6132Z" fill="#444444"/>
<path d="M223.752 70.3545C223.752 70.3545 223.687 71.735 223.2 73.1462C222.612 74.8659 221.47 76.1979 219.038 76.2086C216.484 76.2199 215.131 71.7425 215.131 71.7425C219.967 72.8483 223.752 70.3545 223.752 70.3545Z" fill="#444444"/>
<path d="M216.979 74.4966C217.527 75.1273 218.23 75.6131 219.175 75.7672C221.111 76.0895 222.132 74.4243 222.667 72.834C220.776 72.1735 218.242 72.656 216.979 74.4966Z" fill="white"/>
<path d="M210.173 59.1056C210.325 59.5079 212.367 59.2099 213.377 58.8284C214.386 58.4466 215.53 58.2468 215.378 57.8441C215.226 57.4416 213.835 56.9891 212.826 57.3707C211.816 57.7525 210.021 58.7029 210.173 59.1056Z" fill="#444444"/>
<path d="M227.925 59.7251C227.772 60.1275 225.739 59.5821 224.73 59.2005C223.721 58.8187 222.576 58.6189 222.729 58.2161C222.881 57.8137 224.272 57.3611 225.281 57.7427C226.29 58.1246 228.077 59.3224 227.925 59.7251Z" fill="#444444"/>
<path d="M57.3605 194.901C60.628 199.684 62.2936 276.271 62.7386 289.285H104.283C105.242 258.182 105.19 180.553 104.022 178.272C102.867 175.992 60.1274 173.712 58.1949 173.768C56.5401 179.426 54.0933 190.118 57.3605 194.901Z" fill="url(#paint6_linear_11045_32730)"/>
<path d="M104.555 277.484C104.477 281.876 104.383 285.854 104.279 289.281H62.7401C62.2923 276.27 60.6304 199.684 57.3583 194.897C54.0947 190.118 56.5402 179.423 58.1936 173.766C60.1311 173.714 102.867 175.987 104.021 178.269C104.34 178.898 104.581 185.209 104.736 194.682C103.616 193.579 102.058 192.916 99.9739 193.226C92.9732 194.26 80.7371 208.984 80.7371 208.984C80.7371 208.984 77.0344 257.998 80.7371 262.036C84.4484 266.075 89.9767 262.63 87.0834 266.807C84.1902 270.983 77.2842 273.472 80.3496 277.14C82.8035 280.068 98.441 278.302 104.555 277.484Z" fill="#444444"/>
<path d="M71.9958 289.288H32.934C31.9772 258.184 31.2019 180.545 32.3604 178.271C35.6658 171.782 87.0827 174.027 87.0827 174.027L75.921 197.354L71.9958 289.288Z" fill="url(#paint7_linear_11045_32730)"/>
<path opacity="0.5" d="M87.0835 174.025L75.9238 197.352L75.2779 212.447C73.8656 204.309 71.5149 194.105 67.8295 193.485C61.7157 192.452 41.5919 184.185 39.2498 191.935C36.9163 199.685 35.8226 237.918 41.0151 241.793C46.2161 245.668 52.9326 243.222 49.0577 246.511C45.1829 249.801 38.7161 244.893 42.7201 252.126C46.7328 259.359 72.5656 268.22 63.2659 269.993C53.966 271.758 31.3538 266.308 41.2391 273.946C47.5508 278.82 62.4735 279.267 72.4365 278.957L71.9973 289.29H32.938C31.9736 258.188 31.1986 180.543 32.3611 178.27C35.6676 171.777 87.0835 174.025 87.0835 174.025Z" fill="#444444"/>
<path d="M27.9325 123.891C27.9325 123.891 12.6207 160.367 12.7035 164.804C12.7862 169.242 15.1979 174.232 20.3179 174.053C25.4379 173.875 32.0388 171.737 32.0388 171.737L45.6221 125.442L27.9325 123.891Z" fill="#EDA69A"/>
<path d="M57.3783 85.6836C57.3783 85.6836 47.0877 88.3438 46.0185 89.5021C44.9494 90.6604 31.6342 115.89 24.961 123.891C21.7912 127.692 44.3589 134.402 45.913 131.93C47.4671 129.457 57.3783 85.6836 57.3783 85.6836Z" fill="url(#paint8_linear_11045_32730)"/>
<path opacity="0.5" d="M49.3271 90.3574C45.7587 90.7311 39.2756 104.135 40.918 106.036C42.5603 107.936 51.3781 90.1426 49.3271 90.3574Z" fill="#888888"/>
<path d="M106.157 183.971C104.813 185.006 56.7988 187.134 50.7403 187.132C44.6818 187.13 28.6445 179.176 28.6445 179.176C28.6445 179.176 50.4551 97.08 57.378 85.6513C62.0109 84.2985 84.1661 85.1237 85.7105 85.7292C87.2546 86.3345 111.859 179.581 106.157 183.971Z" fill="url(#paint9_linear_11045_32730)"/>
<path opacity="0.5" d="M49.6357 161.19C55.459 162.519 83.51 173.753 85.0184 176.399C86.5267 179.045 61.5493 183.375 53.7104 181.451C45.8716 179.526 35.443 176.639 40.6573 176.158C45.8716 175.677 51.6451 175.196 47.0744 173.753C42.5036 172.309 39.3342 172.975 42.7231 171.56C46.1121 170.144 46.0958 167.926 45.6228 165.667C45.1498 163.409 48.3479 160.896 49.6357 161.19ZM82.1736 106.179C67.6323 113.667 63.7581 107.004 61.6742 105.699C59.5904 104.393 52.3934 124.882 56.7667 123.892C61.1399 122.901 61.781 116.063 67.1234 119.589C72.4658 123.115 87.6381 125.487 88.9203 122.11C90.2025 118.734 85.7628 104.331 82.1736 106.179Z" fill="#6E6E6E"/>
<path d="M91.8308 106.179C90.9944 107.055 98.8033 139.988 99.8617 138.399C100.92 136.811 94.0014 108.903 91.8308 106.179ZM53.6275 110.075C53.6275 110.075 47.0084 130.324 45.1456 131.46C43.2829 132.596 35.5532 130.552 35.6833 130.587C35.8133 130.621 44.5994 135.322 46.6186 133.866C48.638 132.41 54.2687 112.716 53.6275 110.075Z" fill="#636363"/>
<path d="M83.2522 85.3966C83.2522 85.3966 79.7687 84.7706 78.3413 84.5412C78.2125 84.2098 76.6629 71.5544 76.6629 71.5544L67.2146 68.3213C67.2146 68.3213 66.2617 83.0036 65.0937 84.8342C65.0286 84.9354 59.3942 85.2558 59.3942 85.2558C58.1228 89.7949 63.8876 99.3084 72.5945 99.8653C80.5362 98.621 83.2559 89.0616 83.2522 85.3966Z" fill="#EDA69A"/>
<path d="M78.0865 82.8118C77.6145 79.2714 76.6703 71.5607 76.6703 71.5607L69.0646 68.9512C68.1206 73.1869 67.6484 81.094 78.0865 82.8118Z" fill="#FF5C40"/>
<path opacity="0.2" d="M72.5915 99.8654C63.8911 99.3024 57.8416 89.9341 59.1197 85.3959C59.1197 85.3959 59.6474 85.3488 60.3979 85.2902C61.2082 96.7297 70.8509 98.7252 72.9378 97.3182C74.7909 96.052 83.1471 91.0886 81.7147 85.126C82.5828 85.2789 83.2514 85.3958 83.2514 85.3958C83.3616 89.6268 80.0025 98.7934 72.5915 99.8654Z" fill="#FF5C40"/>
<path d="M85.5794 78.1128C72.8416 84.7476 66.1374 66.7467 65.6346 66.7181C65.1316 66.6896 64.6435 66.8874 64.1413 66.9265C62.1932 67.079 61.3496 63.8212 61.0524 61.8897C60.0965 55.6782 64.6045 57.3472 65.2828 58.7508C66.0226 58.7667 62.467 47.1612 77.243 44.9277C84.5115 44.9501 86.4712 48.7032 88.1885 52.3952C91.0404 58.5254 91.9454 67.3926 89.4248 73.6661C88.6301 75.6448 87.4871 77.1191 85.5794 78.1128Z" fill="#EDA69A"/>
<path d="M65.0325 66.7934C64.9764 67.1642 64.6301 67.4193 64.2601 67.3632C63.8884 67.3071 63.6333 66.9608 63.6894 66.59C63.7464 66.2201 64.0917 65.965 64.4625 66.0202C64.8335 66.0772 65.0884 66.4225 65.0325 66.7934Z" fill="#FED2CA"/>
<path d="M86.9194 68.2276C86.9194 68.2276 86.1702 71.0285 84.1383 72.5531C83.3919 73.1176 82.496 73.5159 81.3892 73.5466C79.1184 73.6193 78.2742 71.8109 77.9693 70.1407C77.715 68.7698 77.8465 67.4854 77.8465 67.4854C77.8465 67.4854 82.011 69.3331 86.9194 68.2276Z" fill="#444444"/>
<path d="M83.5297 72.2516C82.9356 72.7582 82.2184 73.1095 81.3246 73.1206C79.4918 73.1501 78.7795 71.4703 78.5059 69.9271C80.3441 69.5794 82.6181 70.3763 83.5297 72.2516Z" fill="white"/>
<path d="M63.4577 59.0398L63.6254 60.9236L62.293 60.6081L63.4103 61.6141C63.7431 62.371 63.4308 63.3451 63.4308 63.3451C64.7713 62.1715 64.0187 59.8336 63.4577 59.0398ZM86.9968 49.4745C86.9968 49.4745 80.6193 50.3139 75.4224 46.9677C74.6532 48.9296 72.8502 52.701 68.5552 53.8611C69.0197 57.4217 65.9162 60.1841 64.4603 57.9291C62.2674 54.5321 62.8126 47.597 70.6388 44.3235C78.465 41.0501 86.3362 44.703 86.9968 49.4745Z" fill="#444444"/>
<path d="M71.5417 54.2777C71.8646 54.8053 73.769 54.2273 75.0924 53.4172C76.4156 52.6066 76.6569 51.871 76.3337 51.3432C76.0106 50.8156 75.2454 50.6959 73.9224 51.5061C72.5988 52.3167 71.2186 53.7499 71.5417 54.2777Z" fill="#444444"/>
<path d="M87.8921 54.0148C87.6083 54.5641 85.6671 54.1252 84.2888 53.4128C82.9106 52.6998 82.6169 51.9836 82.901 51.4337C83.1854 50.8842 83.9399 50.7097 85.3179 51.4222C86.6964 52.1351 88.1765 53.4648 87.8921 54.0148Z" fill="#444444"/>
<path opacity="0.5" d="M74.0704 60.6379C74.0005 61.3228 74.8608 61.9705 75.9912 62.0854C77.1215 62.2004 78.0942 61.7384 78.1637 61.0536C78.2331 60.369 77.3732 59.721 76.2427 59.6063C75.1128 59.4917 74.1401 59.9534 74.0704 60.6379Z" fill="#FF5C40"/>
<path opacity="0.5" d="M84.9512 60.956C84.8816 61.6409 85.7419 62.2888 86.8722 62.4037C88.0026 62.5187 88.9753 62.0565 89.0447 61.3721C89.114 60.6874 88.2542 60.0393 87.1237 59.9248C85.9936 59.8098 85.021 60.2715 84.9512 60.956Z" fill="#FF5C40"/>
<path d="M81.6926 64.625C81.7617 64.6414 81.835 64.6456 81.9097 64.6364C82.8949 64.5113 83.2793 64.0436 83.4282 63.6729C83.7046 62.9852 83.4136 62.1249 82.5385 61.0429C81.4701 59.722 81.4633 57.3877 81.1365 57.3463C80.8035 57.3042 80.7158 60.0289 82.12 61.765C82.7928 62.597 82.3474 63.0946 82.2976 63.2186C82.2757 63.2736 82.1366 63.3795 81.7566 63.4274C81.4228 63.4701 81.1865 63.7748 81.2288 64.1085C81.2618 64.3677 81.4526 64.5681 81.6926 64.625ZM84.9916 58.6594C85.128 59.7211 85.8402 60.5046 86.5822 60.4094C87.3242 60.3141 87.8151 59.376 87.6788 58.3142C87.5424 57.2523 86.8303 56.4687 86.0882 56.5641C85.3461 56.6595 84.8553 57.5975 84.9916 58.6594ZM74.7708 58.2349C74.9072 59.2967 75.6194 60.0804 76.3614 59.985C77.1034 59.8896 77.5943 58.9516 77.458 57.8897C77.3216 56.8279 76.6095 56.0443 75.8675 56.1397C75.1253 56.2351 74.6343 57.1732 74.7708 58.2349Z" fill="#444444"/>
<path d="M82.8526 84.8903C82.8526 84.8903 80.7273 99.0508 70.9046 98.4931C68.4485 98.3536 62.2758 98.4108 60.3391 84.8903C60.3391 84.8903 58.4649 84.9675 58.2551 85.5826C57.3786 88.1516 61.5359 102.673 70.6588 102.673C79.7817 102.673 86.1333 93.2377 84.8536 85.3747C84.8536 85.3747 83.2979 84.4167 82.8526 84.8903Z" fill="#636363"/>
<path d="M58.8449 125.524C63.5984 126.13 108.833 126.46 150.919 126.325C192.972 125.863 243.685 126.33 246.074 126.586C251.097 127.35 251.215 152.034 250.07 155.206C250.112 155.991 201.491 181.667 148.658 180.229C95.7573 182.759 51.6131 157.35 51.7294 155.517C50.6111 150.379 49.5732 124.777 58.8449 125.524Z" fill="#FED2CA"/>
<path d="M235.9 152.332C235.512 150.413 221.369 161.43 222.725 161.821C224.081 162.213 236.374 154.681 235.9 152.332ZM230.349 137.068C231.584 135.404 217.488 136.398 219.554 137.07C221.621 137.742 229.122 138.721 230.349 137.068ZM65.0095 143.855C65.397 141.936 79.5404 152.953 78.1842 153.345C76.8279 153.736 64.5351 146.204 65.0095 143.855ZM71.3385 133.529C70.1034 131.864 82.5757 136.795 80.5091 137.467C78.4424 138.139 72.5654 135.182 71.3385 133.529Z" fill="#FC8A77"/>
<path opacity="0.2" d="M114.678 153.38C138.456 167.335 173.761 171.335 164.805 168.567C155.849 165.799 144.369 160.304 149.798 161.18C155.227 162.056 168.96 163.299 161.987 160.907C155.013 158.514 144.418 153.236 149.847 154.455C155.275 155.674 189.035 164.066 193.412 160.575C196.997 157.715 143.484 121.408 143.991 138.81C144.127 143.485 129.799 136.479 132.738 138.511C135.677 140.543 143.674 143.161 137.185 143.265C130.696 143.37 99.0599 134.869 107.448 138.381C115.836 141.892 124.525 145.277 121.962 145.963C119.398 146.649 111.812 144.912 114.86 146.762C117.908 148.611 121.854 148.08 121.217 149.9C120.579 151.721 109.407 150.287 114.678 153.38Z" fill="#FA4323"/>
<path opacity="0.2" d="M246.076 126.587C243.682 126.329 192.973 125.864 150.917 126.329C108.835 126.458 63.5932 126.131 58.8399 125.52C49.5746 124.779 50.6079 150.379 51.7273 155.52C51.6154 157.346 95.7551 182.756 148.661 180.225C201.489 181.663 250.115 155.994 250.072 155.201C251.217 152.033 251.096 127.354 246.076 126.587ZM147.352 174.757C106.392 174.369 55.75 164.126 57.3589 153.342C58.3458 146.727 63.1267 153.2 69.4658 154.22C76.1823 155.301 57.0661 142.612 64.816 142.027C72.5658 141.433 84.7304 145.323 77.9907 142.024C67.8297 137.05 68.0364 128.628 72.2644 129.153C107.052 133.485 228.053 126.949 230.525 129.153C232.987 131.358 222.525 133.64 226.598 134.148C230.662 134.647 234.959 134.906 233.582 138.462C232.212 142.01 212.648 144.567 218.263 144.843C223.877 145.11 235.898 140.89 234.727 144.843C233.573 148.795 202.892 155.925 212.321 156.528C221.75 157.122 234.968 146.987 238.533 150.793C241.375 153.841 226.363 175.506 147.352 174.757Z" fill="#FA4323"/>
<path d="M92.411 135.922C91.7499 137.763 91.2077 139.499 90.7877 141.143C90.3647 142.796 90.0041 144.397 89.7073 145.953C90.4056 144.884 91.1043 143.763 91.7995 142.588C92.4937 141.417 93.1845 140.184 93.878 138.889C94.0727 140.435 94.2886 141.895 94.5269 143.264C94.7668 144.638 95.058 145.977 95.4065 147.282C95.4894 146.801 95.5721 146.319 95.6546 145.839C95.9336 144.214 96.1408 142.612 96.2762 141.039C96.411 139.472 96.4431 137.982 96.3754 136.573C96.4074 136.607 96.5089 136.655 96.6817 136.719C96.8559 136.783 97.0862 136.847 97.3758 136.912C97.6642 136.977 98.0018 137.044 98.388 137.112C98.7726 137.181 99.1975 137.238 99.6615 137.282C100.371 137.349 101.145 137.374 101.983 137.354C102.821 137.333 103.673 137.236 104.537 137.06C104.267 137.511 103.983 138.124 103.682 138.898C103.381 139.674 103.071 140.56 102.759 141.556C102.445 142.556 102.129 143.648 101.817 144.835C101.503 146.025 101.201 147.261 100.907 148.541C100.614 149.827 100.337 151.131 100.08 152.457C99.8221 153.788 99.5933 155.094 99.3947 156.377C99.2681 157.197 99.1583 157.991 99.0633 158.758C98.9692 159.528 98.8915 160.271 98.8309 160.987C97.8978 160.591 97.0651 160.273 96.329 160.034C95.5942 159.796 94.9449 159.61 94.3812 159.479C94.019 159.395 93.6966 159.331 93.4168 159.287C93.1367 159.244 92.8992 159.209 92.7062 159.185C92.4808 159.165 92.287 159.151 92.1184 159.144C92.1729 158.161 92.217 157.202 92.2555 156.268C92.2916 155.337 92.3031 154.445 92.2897 153.593C92.2748 152.743 92.2299 151.94 92.1523 151.183C92.0756 150.429 91.9476 149.729 91.7658 149.086C91.429 149.716 91.1188 150.372 90.8335 151.052C90.5479 151.735 90.2783 152.463 90.0279 153.239C89.7766 154.015 89.5443 154.846 89.3293 155.73C89.1149 156.617 88.9137 157.569 88.7232 158.587C87.8111 158.16 86.9888 157.813 86.2547 157.543C85.5202 157.274 84.8882 157.063 84.3534 156.914C83.9886 156.812 83.6683 156.733 83.394 156.675C83.1176 156.618 82.887 156.573 82.695 156.539C82.474 156.507 82.2922 156.485 82.1445 156.474C82.4298 155.386 82.6995 154.239 82.95 153.032C83.1837 151.909 83.3971 150.763 83.5913 149.597C83.7841 148.435 83.9528 147.285 84.0941 146.148C84.2349 145.014 84.3508 143.91 84.4387 142.834C84.5269 141.761 84.5828 140.756 84.608 139.818C84.6316 138.882 84.6184 138.024 84.5661 137.243C84.5146 136.465 84.4243 135.794 84.2961 135.229C84.5407 135.335 84.8352 135.433 85.1758 135.523C85.4634 135.606 85.8132 135.69 86.2267 135.773C86.6393 135.858 87.106 135.931 87.6307 135.993C88.2813 136.071 89.0085 136.113 89.8186 136.116C90.6271 136.119 91.4905 136.056 92.411 135.922ZM117.906 164.125C117.406 163.938 116.89 163.776 116.359 163.637C115.83 163.499 115.27 163.37 114.68 163.251C114.089 163.132 113.459 163.019 112.789 162.913C112.119 162.808 111.391 162.694 110.609 162.57C110.238 162.511 109.795 162.446 109.282 162.374C108.768 162.302 108.214 162.24 107.618 162.185C107.023 162.13 106.408 162.091 105.775 162.066C105.143 162.04 104.518 162.041 103.908 162.066C104.192 161.588 104.467 160.969 104.729 160.207C104.991 159.448 105.232 158.636 105.452 157.77C105.671 156.907 105.87 156.024 106.051 155.121C106.231 154.222 106.387 153.384 106.52 152.607C106.653 151.832 106.759 151.161 106.84 150.594C106.92 150.027 106.975 149.638 107.003 149.425C107.01 149.38 107.029 149.206 107.066 148.904C107.101 148.601 107.147 148.209 107.202 147.728C107.256 147.248 107.316 146.698 107.38 146.08C107.443 145.462 107.504 144.821 107.561 144.155C107.617 143.49 107.665 142.82 107.704 142.146C107.744 141.473 107.769 140.836 107.78 140.235C107.792 139.636 107.786 139.097 107.764 138.618C107.74 138.14 107.689 137.757 107.609 137.467C108.482 137.687 109.347 137.864 110.206 137.999C111.064 138.133 111.902 138.229 112.715 138.285C113.711 138.353 114.648 138.381 115.525 138.369C116.401 138.357 117.17 138.323 117.829 138.271C118.598 138.213 119.301 138.132 119.936 138.029C119.68 140.695 119.421 143.382 119.162 146.088C118.679 145.421 118.208 144.904 117.747 144.533C117.287 144.162 116.874 143.883 116.511 143.694C116.085 143.477 115.678 143.342 115.29 143.288C114.827 143.251 114.44 143.291 114.132 143.408C113.824 143.525 113.575 143.686 113.387 143.892C113.199 144.098 113.061 144.336 112.973 144.608C112.885 144.88 112.824 145.157 112.791 145.44C112.758 145.735 112.757 146.033 112.793 146.334C112.83 146.636 112.909 146.914 113.031 147.168C113.154 147.422 113.325 147.638 113.547 147.817C113.77 147.995 114.046 148.101 114.375 148.133C114.647 148.16 114.905 148.106 115.148 147.972C115.391 147.838 115.603 147.681 115.782 147.5C115.995 147.298 116.194 147.06 116.384 146.786C116.137 149.137 115.89 151.502 115.64 153.883C115.533 153.42 115.392 153.05 115.214 152.77C115.036 152.491 114.856 152.28 114.675 152.136C114.494 151.993 114.325 151.898 114.172 151.852C114.018 151.806 113.913 151.779 113.856 151.773C113.237 151.704 112.752 151.883 112.393 152.309C112.035 152.735 111.814 153.311 111.728 154.041C111.665 154.574 111.662 155.033 111.72 155.419C111.777 155.805 111.876 156.126 112.018 156.382C112.158 156.638 112.337 156.834 112.551 156.969C112.766 157.105 113 157.189 113.25 157.222C113.635 157.272 114.062 157.219 114.529 157.062C114.997 156.904 115.453 156.671 115.899 156.364C116.345 156.057 116.763 155.693 117.149 155.274C117.535 154.855 117.852 154.418 118.1 153.965C118.032 157.313 117.967 160.7 117.906 164.125ZM134.923 165.666C134.578 165.546 134.171 165.435 133.702 165.332C133.232 165.228 132.741 165.141 132.231 165.07C131.72 164.998 131.215 164.936 130.713 164.881C130.212 164.826 129.76 164.78 129.358 164.742C128.957 164.705 128.626 164.676 128.369 164.655C128.111 164.634 127.971 164.622 127.951 164.621C127.335 164.582 126.67 164.562 125.95 164.558C125.331 164.565 124.623 164.588 123.826 164.626C123.029 164.664 122.191 164.739 121.313 164.852C121.59 163.926 121.852 162.885 122.095 161.729C122.338 160.577 122.562 159.355 122.764 158.064C122.967 156.778 123.147 155.451 123.306 154.083C123.465 152.722 123.598 151.363 123.707 150.007C123.798 148.893 123.87 147.796 123.922 146.716C123.978 145.64 124.008 144.609 124.017 143.625C124.027 142.643 124.02 141.716 123.993 140.843C123.968 139.973 123.915 139.178 123.837 138.46C124.771 138.722 125.625 138.904 126.395 139.005C127.166 139.107 127.851 139.169 128.448 139.192C128.824 139.206 129.16 139.209 129.455 139.203C129.75 139.195 130 139.184 130.203 139.168C130.445 139.141 130.653 139.113 130.83 139.083C130.577 139.918 130.332 140.824 130.096 141.802C129.858 142.784 129.643 143.794 129.451 144.834C129.258 145.878 129.093 146.927 128.953 147.984C128.814 149.044 128.713 150.061 128.65 151.034C128.57 152.276 128.563 153.346 128.631 154.246C128.699 155.148 128.838 155.891 129.049 156.476C129.262 157.062 129.538 157.502 129.877 157.796C130.215 158.089 130.614 158.251 131.073 158.279C131.687 158.316 132.31 158.071 132.937 157.541C133.563 157.011 134.12 156.22 134.603 155.168C134.704 158.631 134.811 162.131 134.923 165.666ZM153.741 145.975C153.75 146.59 153.676 147.217 153.514 147.855C153.353 148.495 153.116 149.076 152.804 149.599C152.491 150.122 152.107 150.552 151.652 150.888C151.197 151.224 150.675 151.394 150.093 151.399C149.576 151.403 149.134 151.291 148.766 151.066C148.398 150.84 148.099 150.538 147.866 150.159C147.634 149.78 147.461 149.353 147.351 148.878C147.241 148.403 147.187 147.911 147.189 147.401C147.192 146.892 147.245 146.399 147.347 145.922C147.448 145.445 147.603 145.02 147.81 144.647C147.865 144.9 147.939 145.096 148.032 145.234C148.126 145.373 148.225 145.472 148.327 145.532C148.44 145.604 148.561 145.647 148.694 145.658C148.994 145.657 149.208 145.554 149.334 145.348C149.461 145.143 149.523 144.908 149.522 144.643C149.523 144.523 149.502 144.4 149.467 144.273C149.428 144.147 149.368 144.031 149.291 143.923C149.212 143.815 149.105 143.725 148.975 143.653C148.844 143.582 148.687 143.546 148.499 143.546C148.396 143.547 148.251 143.565 148.059 143.601C147.867 143.638 147.655 143.73 147.42 143.88C147.187 144.031 146.947 144.256 146.701 144.555C146.455 144.856 146.23 145.265 146.022 145.782C145.815 146.301 145.644 146.948 145.508 147.722C145.371 148.499 145.295 149.448 145.282 150.572C145.273 151.343 145.324 152.016 145.438 152.588C145.551 153.162 145.702 153.653 145.891 154.061C146.08 154.47 146.299 154.805 146.549 155.066C146.798 155.327 147.054 155.533 147.314 155.682C147.576 155.831 147.829 155.933 148.077 155.989C148.326 156.045 148.545 156.072 148.739 156.071C148.991 156.07 149.309 156.01 149.693 155.889C150.076 155.768 150.455 155.551 150.831 155.237C151.206 154.924 151.545 154.493 151.844 153.945C152.142 153.398 152.344 152.694 152.45 151.832C152.793 152.429 153.058 153.144 153.246 153.978C153.436 154.815 153.539 155.697 153.551 156.627C153.57 157.897 153.408 159.134 153.065 160.338C152.72 161.546 152.217 162.626 151.556 163.573C150.891 164.522 150.079 165.287 149.12 165.86C148.16 166.434 147.085 166.72 145.901 166.711C145.03 166.705 144.224 166.518 143.489 166.154C142.756 165.79 142.09 165.289 141.496 164.65C140.905 164.014 140.39 163.267 139.959 162.414C139.527 161.563 139.169 160.643 138.887 159.656C138.605 158.672 138.403 157.641 138.283 156.562C138.163 155.487 138.123 154.403 138.161 153.309C138.202 152.108 138.345 150.905 138.585 149.699C138.824 148.497 139.148 147.345 139.554 146.243C139.958 145.144 140.437 144.118 140.99 143.162C141.539 142.209 142.157 141.383 142.836 140.681C143.515 139.982 144.252 139.43 145.048 139.025C145.843 138.621 146.683 138.419 147.574 138.419C148.381 138.419 149.091 138.539 149.707 138.78C150.323 139.02 150.855 139.342 151.305 139.749C151.755 140.155 152.135 140.618 152.447 141.138C152.758 141.659 153.008 142.199 153.197 142.758C153.385 143.318 153.523 143.876 153.605 144.433C153.689 144.99 153.734 145.505 153.741 145.975ZM173.232 152.09C173.371 153.903 173.336 155.627 173.128 157.268C172.918 158.915 172.52 160.383 171.928 161.668C171.334 162.958 170.537 164.014 169.534 164.826C168.528 165.641 167.306 166.114 165.868 166.227C164.439 166.341 163.181 166.063 162.099 165.401C161.019 164.741 160.114 163.796 159.386 162.577C158.66 161.361 158.11 159.923 157.733 158.271C157.357 156.626 157.149 154.867 157.101 152.998C157.066 151.627 157.134 150.307 157.299 149.038C157.464 147.774 157.707 146.596 158.023 145.506C158.338 144.418 158.726 143.429 159.179 142.536C159.633 141.645 160.135 140.883 160.69 140.249C161.243 139.615 161.835 139.121 162.466 138.763C163.098 138.406 163.757 138.217 164.444 138.196C165.598 138.16 166.669 138.482 167.663 139.158C168.658 139.835 169.539 140.788 170.307 142.018C171.078 143.254 171.717 144.721 172.226 146.427C172.736 148.142 173.073 150.026 173.232 152.09ZM167.273 150.964C167.221 150.064 167.117 149.238 166.96 148.485C166.803 147.735 166.612 147.087 166.388 146.544C166.164 146.002 165.915 145.579 165.635 145.277C165.355 144.975 165.071 144.829 164.782 144.842C164.5 144.854 164.241 145.052 164.008 145.437C163.773 145.823 163.573 146.318 163.407 146.924C163.241 147.53 163.119 148.209 163.038 148.96C162.957 149.712 162.932 150.458 162.965 151.195C162.997 151.911 163.076 152.574 163.205 153.183C163.333 153.794 163.499 154.32 163.703 154.762C163.906 155.205 164.149 155.55 164.428 155.798C164.705 156.046 165.015 156.159 165.355 156.138C165.685 156.117 165.979 155.967 166.242 155.686C166.504 155.406 166.715 155.035 166.879 154.573C167.042 154.111 167.159 153.571 167.229 152.954C167.301 152.337 167.314 151.674 167.273 150.964ZM185.963 162.501C185.794 162.505 185.586 162.515 185.339 162.53C185.13 162.54 184.875 162.563 184.577 162.598C184.278 162.633 183.941 162.68 183.569 162.737C182.843 162.848 181.986 163.019 180.991 163.246C179.997 163.473 178.894 163.788 177.681 164.191C177.967 161.417 178.089 158.749 178.058 156.175C178.026 153.62 177.902 151.191 177.692 148.879C177.502 146.792 177.257 144.845 176.962 143.034C176.669 141.233 176.348 139.58 176.002 138.071C176.935 138.227 177.77 138.314 178.504 138.338C179.238 138.362 179.871 138.356 180.402 138.322C180.768 138.299 181.089 138.267 181.367 138.227C181.643 138.186 181.872 138.149 182.052 138.114C182.269 138.066 182.452 138.021 182.604 137.977C183.154 140.129 183.79 142.254 184.509 144.346C185.231 146.451 186.075 148.553 187.044 150.64C187.374 148.364 187.573 146.132 187.647 143.932C187.72 141.746 187.674 139.548 187.512 137.329C187.561 137.424 187.61 137.518 187.658 137.613C187.609 137.518 187.561 137.424 187.512 137.329C188.448 137.455 189.295 137.517 190.052 137.519C190.808 137.522 191.473 137.498 192.047 137.448C192.431 137.415 192.766 137.375 193.054 137.328C193.343 137.281 193.589 137.238 193.796 137.198C194.028 137.146 194.229 137.096 194.397 137.049C194.362 138.11 194.401 139.364 194.514 140.813C194.627 142.268 194.808 143.83 195.054 145.496C195.23 146.686 195.441 147.911 195.685 149.17C195.929 150.434 196.206 151.69 196.514 152.938C196.823 154.19 197.164 155.418 197.542 156.62C197.921 157.826 198.33 158.963 198.771 160.029C198.576 160.05 198.352 160.077 198.098 160.109C197.874 160.135 197.612 160.175 197.312 160.228C197.012 160.281 196.666 160.349 196.27 160.432C195.518 160.59 194.638 160.811 193.629 161.094C192.618 161.376 191.521 161.746 190.334 162.203C190.504 161.579 190.611 160.804 190.656 159.878C190.7 158.955 190.708 157.985 190.68 156.965C190.652 155.949 190.599 154.944 190.524 153.948C190.447 152.957 190.369 152.073 190.287 151.299C190.102 152.032 189.928 152.778 189.764 153.538C189.6 154.3 189.433 155.115 189.263 155.983C189.094 156.854 188.918 157.798 188.738 158.815C188.557 159.834 188.36 160.975 188.143 162.24C187.628 161.102 187.166 160.066 186.752 159.134C186.338 158.205 185.952 157.341 185.592 156.543C185.232 155.747 184.884 154.992 184.548 154.279C184.212 153.567 183.87 152.859 183.523 152.152C183.809 153.967 184.149 155.757 184.548 157.516C184.949 159.284 185.419 160.948 185.963 162.501ZM215.488 155.968C214.985 156.018 214.473 156.09 213.954 156.186C213.435 156.281 212.89 156.394 212.318 156.526C211.745 156.659 211.139 156.811 210.493 156.983C209.849 157.157 209.149 157.345 208.395 157.546C208.037 157.641 207.611 157.759 207.116 157.899C206.621 158.039 206.091 158.203 205.525 158.39C204.957 158.578 204.377 158.787 203.782 159.017C203.187 159.248 202.606 159.498 202.046 159.767C202.176 159.229 202.256 158.573 202.287 157.8C202.317 157.03 202.314 156.223 202.277 155.379C202.241 154.538 202.179 153.689 202.095 152.831C202.01 151.975 201.921 151.183 201.828 150.453C201.735 149.724 201.646 149.097 201.562 148.569C201.477 148.041 201.421 147.679 201.387 147.481C201.381 147.44 201.351 147.279 201.299 146.999C201.249 146.72 201.18 146.358 201.097 145.914C201.012 145.471 200.912 144.963 200.8 144.393C200.686 143.824 200.559 143.233 200.425 142.621C200.29 142.009 200.144 141.395 199.99 140.778C199.836 140.161 199.679 139.579 199.518 139.031C199.358 138.484 199.197 137.994 199.038 137.561C198.879 137.129 198.719 136.786 198.557 136.534C199.47 136.589 200.363 136.603 201.236 136.577C202.109 136.552 202.949 136.493 203.756 136.404C204.743 136.295 205.661 136.161 206.509 136.004C207.357 135.848 208.093 135.693 208.72 135.542C209.452 135.368 210.115 135.189 210.704 135.005C211.152 137.179 211.601 139.365 212.053 141.566C211.422 141.151 210.837 140.843 210.298 140.645C209.76 140.447 209.291 140.309 208.892 140.232C208.426 140.146 207.998 140.12 207.612 140.157C207.157 140.225 206.796 140.341 206.532 140.505C206.268 140.669 206.072 140.859 205.949 141.075C205.824 141.291 205.757 141.524 205.747 141.774C205.736 142.025 205.755 142.274 205.8 142.522C205.848 142.78 205.928 143.033 206.046 143.279C206.162 143.526 206.315 143.741 206.5 143.924C206.685 144.107 206.909 144.245 207.167 144.338C207.429 144.43 207.718 144.447 208.039 144.389C208.306 144.341 208.537 144.23 208.731 144.059C208.925 143.887 209.086 143.705 209.208 143.512C209.355 143.296 209.483 143.052 209.591 142.784C209.978 144.753 210.368 146.733 210.76 148.724C210.539 148.384 210.309 148.127 210.067 147.953C209.827 147.78 209.601 147.66 209.393 147.596C209.182 147.532 209 147.503 208.843 147.509C208.686 147.515 208.579 147.525 208.524 147.536C207.923 147.658 207.512 147.946 207.29 148.409C207.069 148.871 207.016 149.422 207.134 150.059C207.219 150.525 207.341 150.91 207.499 151.213C207.656 151.516 207.837 151.751 208.038 151.915C208.239 152.081 208.457 152.183 208.693 152.223C208.929 152.262 209.17 152.252 209.411 152.194C209.783 152.105 210.167 151.918 210.559 151.636C210.952 151.353 211.316 151.016 211.651 150.627C211.986 150.237 212.279 149.816 212.532 149.364C212.783 148.913 212.967 148.473 213.082 148.044C213.878 150.683 214.68 153.324 215.488 155.968Z" fill="#FC8A77"/>
<path d="M42.7173 132.604C46.346 130.189 50.4754 129.6 52.2189 129.454C55.1788 129.212 65.7608 131.654 65.7608 131.654C65.7608 131.654 65.6799 133.141 65.3437 133.648C64.7974 134.47 62.9984 134.861 61.0064 134.696C62.3516 135.063 64.748 135.975 64.748 135.975C64.748 135.975 64.2109 137.641 63.7351 138.025C63.0985 138.538 61.4824 138.739 60.2302 138.593C61.1543 138.954 62.7522 139.473 62.7522 139.473C62.7522 139.473 61.9406 141.279 61.4118 141.588C60.4066 142.175 58.4131 142.016 56.7004 141.775C57.9132 142.123 59.8332 143.196 59.8332 143.196C59.8332 143.196 58.7868 144.661 58.3141 144.953C56.4769 146.09 49.957 144.985 49.957 144.985C49.1408 146.864 46.773 150.788 42.6046 150.786C41.9277 150.786 36.2656 138.995 36.2656 138.995C36.2656 138.995 40.0047 134.4 42.7173 132.604Z" fill="#EDA69A"/>
<path d="M53.7085 133.656C53.7115 133.716 54.1238 133.737 54.784 133.803C55.4446 133.871 56.3544 133.982 57.3565 134.145C59.3612 134.465 60.9789 134.802 61.0062 134.696C61.0342 134.593 59.4462 134.083 57.4177 133.759C56.4047 133.595 55.4727 133.525 54.7973 133.527C54.1207 133.531 53.7053 133.608 53.7085 133.656ZM53.2992 137.456C53.2971 137.513 53.6855 137.575 54.31 137.678C54.995 137.796 55.8284 137.939 56.7498 138.097C58.6556 138.432 60.2057 138.7 60.23 138.593C60.2542 138.489 58.7357 138.049 56.8171 137.712C55.8582 137.543 54.9804 137.437 54.3403 137.404C53.6995 137.37 53.3009 137.405 53.2992 137.456ZM53.2992 141.197C53.2788 141.303 54.1707 141.564 55.2913 141.779C56.4119 141.995 57.3368 142.084 57.3573 141.978C57.3776 141.872 56.4857 141.611 55.3651 141.396C54.2445 141.18 53.3197 141.091 53.2992 141.197Z" fill="#FF5C40"/>
<path d="M39.5927 136.158C39.5927 136.158 20.6257 153.704 18.8438 155.771C17.0619 157.838 15.2198 172.347 18.0119 173.735C20.8038 175.123 29.8917 174.41 33.4555 172.093C37.0193 169.777 46.6891 147.669 46.6891 147.669L39.5927 136.158Z" fill="#EDA69A"/>
<path d="M42.7218 132.551C42.7218 132.551 26.0869 153.427 24.6167 153.344C23.1466 153.261 39.8707 133.463 42.7218 132.551Z" fill="#FF5C40"/>
<path d="M258.959 132.604C255.331 130.189 251.201 129.6 249.458 129.454C246.498 129.212 235.916 131.654 235.916 131.654C235.916 131.654 235.997 133.141 236.333 133.648C236.879 134.47 238.678 134.861 240.67 134.696C239.325 135.063 236.929 135.975 236.929 135.975C236.929 135.975 237.466 137.641 237.942 138.025C238.578 138.538 240.194 138.739 241.446 138.593C240.522 138.954 238.925 139.473 238.925 139.473C238.925 139.473 239.736 141.279 240.265 141.588C241.27 142.175 243.264 142.016 244.976 141.775C243.764 142.123 241.844 143.196 241.844 143.196C241.844 143.196 242.89 144.661 243.363 144.953C245.2 146.09 251.72 144.985 251.72 144.985C252.536 146.864 254.904 150.788 259.072 150.786C259.749 150.786 265.411 138.995 265.411 138.995C265.411 138.995 261.672 134.4 258.959 132.604Z" fill="#EDA69A"/>
<path d="M247.968 133.656C247.965 133.716 247.553 133.737 246.892 133.803C246.232 133.871 245.322 133.982 244.32 134.145C242.315 134.465 240.698 134.802 240.67 134.696C240.642 134.593 242.23 134.083 244.259 133.759C245.272 133.595 246.204 133.525 246.879 133.527C247.556 133.531 247.971 133.608 247.968 133.656ZM248.377 137.456C248.379 137.513 247.991 137.575 247.366 137.678C246.681 137.796 245.848 137.939 244.927 138.097C243.021 138.432 241.471 138.7 241.446 138.593C241.422 138.489 242.94 138.049 244.859 137.712C245.818 137.543 246.696 137.437 247.336 137.404C247.977 137.37 248.376 137.405 248.377 137.456ZM248.377 141.197C248.398 141.303 247.506 141.564 246.385 141.779C245.264 141.995 244.34 142.084 244.319 141.978C244.299 141.872 245.191 141.611 246.311 141.396C247.432 141.18 248.357 141.091 248.377 141.197Z" fill="#FF5C40"/>
<path d="M262.083 136.158C262.083 136.158 281.05 153.704 282.832 155.771C284.614 157.838 286.456 172.347 283.664 173.735C280.872 175.123 271.784 174.41 268.22 172.093C264.656 169.777 254.986 147.669 254.986 147.669L262.083 136.158Z" fill="#EDA69A"/>
<path d="M258.953 132.551C258.953 132.551 275.588 153.427 277.058 153.344C278.528 153.261 261.804 133.463 258.953 132.551Z" fill="#FF5C40"/>
<path d="M265.586 242.494C265.586 242.494 258.014 225.255 282.226 216.135C282.226 216.135 287.861 240.425 265.586 242.494Z" fill="#FED2CA"/>
<g opacity="0.52">
<path d="M281.683 217.418L278.057 224.183C276.839 226.429 275.618 228.672 274.342 230.881C273.711 231.989 273.066 233.09 272.399 234.175C271.74 235.265 271.056 236.34 270.347 237.397C269.633 238.449 268.898 239.489 268.091 240.469C267.291 241.454 266.416 242.39 265.33 243.075C265.907 242.8 266.462 242.455 266.948 242.031C267.45 241.624 267.914 241.173 268.363 240.71C269.248 239.772 270.056 238.765 270.819 237.73C272.347 235.658 273.699 233.47 274.983 231.249C276.254 229.02 277.453 226.752 278.569 224.445C279.694 222.143 280.738 219.8 281.683 217.418Z" fill="#FA4323"/>
</g>
<path d="M200.633 283.397C200.633 283.397 175.242 281.19 180.139 246.511C180.139 246.511 212.647 255.599 200.633 283.397Z" fill="#FED2CA"/>
<g opacity="0.52">
<path d="M181.311 247.989L186.989 256.69C188.866 259.596 190.736 262.503 192.531 265.454C193.436 266.923 194.325 268.404 195.18 269.901C196.047 271.393 196.879 272.903 197.674 274.431C198.459 275.963 199.217 277.511 199.857 279.107C200.506 280.696 201.05 282.344 201.158 284.078C201.206 283.215 201.156 282.33 200.969 281.478C200.812 280.618 200.578 279.774 200.319 278.94C199.78 277.279 199.109 275.666 198.376 274.086C196.908 270.926 195.187 267.899 193.385 264.931C191.562 261.974 189.648 259.077 187.634 256.252C185.629 253.421 183.526 250.659 181.311 247.989Z" fill="#FA4323"/>
</g>
<path d="M287.492 251.348C288.563 255.201 280.445 258.437 280.445 258.437C280.68 254.428 286.42 247.496 287.492 251.348Z" fill="#FC8A77"/>
<path d="M121.502 252.44C122.952 257.655 111.963 262.035 111.963 262.035C112.28 256.608 120.051 247.225 121.502 252.44Z" fill="#FED2CA"/>
<path d="M113.594 282.913C113.594 282.913 106.972 273.703 120.098 265.295C120.098 265.295 126.461 278.903 113.594 282.913Z" fill="#FC8A77"/>
<g opacity="0.52">
<path d="M119.937 266.12L118.647 270.561C118.211 272.037 117.772 273.512 117.297 274.974C117.064 275.705 116.822 276.435 116.564 277.158C116.312 277.883 116.044 278.602 115.759 279.314C115.47 280.024 115.167 280.728 114.814 281.407C114.466 282.087 114.068 282.749 113.514 283.289C113.819 283.054 114.103 282.781 114.336 282.47C114.581 282.168 114.798 281.844 115.004 281.515C115.409 280.851 115.759 280.157 116.079 279.451C116.72 278.038 117.242 276.579 117.721 275.11C118.191 273.637 118.613 272.151 118.982 270.651C119.356 269.153 119.678 267.642 119.937 266.12Z" fill="#FA4323"/>
</g>
<path d="M33.2592 271.162C31.0446 270.656 35.012 278.648 35.5568 279.728C34.1663 278.687 32.2568 277.246 30.0869 275.578C30.1544 273.781 30.293 266.658 28.2264 266.897C26.2542 267.126 28.8528 273.293 29.7696 275.333C28.0609 274.017 26.2 272.565 24.3049 271.058C24.3898 270.148 24.9868 263.137 23.2041 263.449C21.4545 263.755 23.8307 269.98 24.2334 271.002C22.6828 269.768 21.1139 268.5 19.5848 267.235C19.84 265.871 20.8982 259.63 18.9878 259.174C17.125 258.729 18.9066 265.339 19.4084 267.089C17.8544 265.801 16.3492 264.523 14.9587 263.298C14.9769 263.204 16.3122 256.381 14.4932 256.144C12.6986 255.91 14.8649 263.006 14.9528 263.292C13.7861 262.264 12.7054 261.275 11.7427 260.349C11.9374 259.502 13.4016 252.889 11.6308 253.094C9.89413 253.294 11.42 259.306 11.6816 260.29C11.467 260.083 11.2533 259.876 11.0516 259.676C11.099 259.668 11.1248 259.663 11.1248 259.663C11.1248 259.663 11.0786 259.651 11.0085 259.633C10.0789 258.709 9.30027 257.866 8.70233 257.127C8.06854 255.49 5.42094 249.115 3.03985 250.228C0.819017 251.266 6.0634 255.437 8.08785 256.951L8.08129 256.956C8.62733 257.679 9.39051 258.526 10.3025 259.455C8.37158 258.982 3.71292 257.96 4.19618 259.226C4.69677 260.538 9.06842 259.986 10.5949 259.75C11.6073 260.764 12.7924 261.871 14.0961 263.034C12.2987 262.496 8.25152 261.453 7.80018 262.839C7.3055 264.358 12.8184 263.633 14.4857 263.381C15.9538 264.681 17.5528 266.041 19.2074 267.411C17.7091 266.964 11.4223 265.205 10.9712 267.094C10.4997 269.069 18.1458 267.762 19.3641 267.541C20.8274 268.751 22.3269 269.964 23.8096 271.145C21.4872 270.563 13.6462 268.752 13.5745 270.826C13.4997 272.997 22.2167 271.681 24.0949 271.372C26.1452 273.003 28.1557 274.57 29.9763 275.969C28.858 275.777 16.9846 273.785 17.0843 275.574C17.1852 277.377 29.0831 276.094 30.0063 275.992C32.2366 277.706 34.1735 279.166 35.5503 280.196C34.1629 280.061 22.6971 279.014 22.5101 281.287C22.3205 283.595 34.49 280.518 35.5995 280.232C36.8841 281.192 37.675 281.774 37.7176 281.805L37.9419 281.5C37.8968 281.467 37.0297 280.83 35.6191 279.775C35.6141 279.008 35.5088 271.676 33.2592 271.162ZM43.0504 263.795C43.0504 263.795 37.479 241.755 27.1782 243.202C16.8771 244.65 32.7908 261.822 43.0504 263.795Z" fill="#FA4323"/>
<path d="M259.787 263.673C259.787 263.673 257.701 252.152 273.663 250.139C273.663 250.139 273.557 265.644 259.787 263.673Z" fill="#FC8A77"/>
<g opacity="0.52">
<path d="M273.15 250.837L269.979 254.403C268.917 255.586 267.854 256.766 266.763 257.917C266.221 258.496 265.672 259.068 265.111 259.628C264.555 260.192 263.986 260.743 263.405 261.28C262.82 261.813 262.225 262.335 261.595 262.812C260.969 263.291 260.305 263.731 259.549 263.988C259.937 263.905 260.323 263.777 260.679 263.591C261.041 263.417 261.387 263.212 261.725 262.997C262.396 262.557 263.03 262.065 263.642 261.549C264.865 260.517 265.999 259.389 267.098 258.233C268.189 257.068 269.242 255.87 270.251 254.636C271.264 253.406 272.234 252.141 273.15 250.837Z" fill="#FA4323"/>
</g>
<path d="M4.64723 285.048C13.7879 284.938 288.684 279.928 293.804 285.048C298.924 290.169 299.577 295.313 293.804 297.707C288.03 300.1 4.64723 301.784 1.76043 296.612C-1.12625 291.44 -0.662954 285.113 4.64723 285.048Z" fill="#FED2CA"/>
<path d="M107.098 7.38758L114.713 10.6111C117.369 11.6268 120.023 12.5345 122.659 13.3439L122.645 13.2998L129.212 15.1734C136.985 17.1301 144.485 18.2896 151.306 18.9347C167.51 20.4672 181.977 19.3826 191.419 18.1703L192.703 18.8576C190.721 19.1261 188.521 19.3935 186.067 19.6339C183.089 19.9258 179.789 20.1756 176.24 20.3391C176.24 20.3391 172.524 36.3712 169.287 36.4508C165.883 36.5345 159.054 20.336 159.054 20.336C158.532 20.311 151.856 35.3587 148.677 35.2149C144.04 35.0051 140.746 18.4282 140.746 18.4282C140.245 18.3459 131.8 32.4977 128.196 31.7864C123.725 30.9038 122.953 14.3261 122.953 14.3261C121.868 13.9983 111.435 26.4901 107.373 25.1556C103.932 24.025 104.934 10.8736 104.934 10.8736L104.934 10.8735L104.268 6.97526C100.582 5.14967 96.9292 3.08056 93.3457 0.755953L93.7505 0C98.1173 2.83742 102.59 5.28851 107.098 7.38758Z" fill="#FED2CA"/>
<path d="M45.0616 21.2666C46.1159 19.2941 47.3873 17.3856 49.1455 16.4163C49.3559 16.3005 50.0407 16.0418 49.2294 16.3216C48.4135 16.6026 49.0646 16.3907 49.2753 16.3541C49.5509 16.3058 49.8342 16.2856 50.1215 16.2957C50.9251 16.3232 51.7505 16.5922 52.546 17.0491C54.2124 18.0057 55.6382 19.664 57.2089 20.907C58.8937 22.2402 60.4191 22.5681 62.0465 22.0127C63.0249 21.679 63.9264 21.3047 64.6933 20.5057C65.5689 19.5925 66.2223 18.3805 66.775 17.0984C66.6111 17.479 65.656 17.1536 65.4863 17.5473C65.0021 18.6714 64.4421 19.7365 63.7205 20.6C63.3364 21.06 62.9079 21.4613 62.429 21.7626C62.3328 21.8228 62.2359 21.8808 62.1358 21.9325C62.5586 21.7136 62.2737 21.8826 62.1234 21.8731C61.8703 21.8571 61.6264 21.8937 61.3696 21.8623C59.6499 21.6526 58.0894 20.1485 56.604 18.7855C55.0547 17.3639 53.4284 16.025 51.656 15.8625C50.452 15.7524 49.2935 16.2012 48.2486 16.6697C46.2896 17.5479 44.9014 19.6047 43.7734 21.7155C43.9745 21.3385 44.8545 21.6545 45.0616 21.2666Z" fill="#FED2CA"/>
<path d="M213.594 11.1226C211.987 12.6789 210.194 14.1079 208.223 14.4938C207.988 14.5399 207.257 14.5771 208.115 14.5584C208.977 14.5401 208.293 14.5431 208.081 14.5135C207.804 14.4753 207.528 14.408 207.257 14.3106C206.5 14.0391 205.797 13.5307 205.179 12.8527C203.884 11.4327 203.033 9.41836 201.917 7.755C200.72 5.97093 199.367 5.19278 197.648 5.22457C196.615 5.24361 195.642 5.32466 194.667 5.85126C193.555 6.4534 192.562 7.40796 191.645 8.45986C191.917 8.14762 192.727 8.7491 193.009 8.42597C193.813 7.50346 194.672 6.66028 195.623 6.05841C196.129 5.73777 196.659 5.48649 197.207 5.34594C197.317 5.31796 197.427 5.29235 197.538 5.27369C197.069 5.3529 197.392 5.27908 197.532 5.33398C197.768 5.42659 198.012 5.46626 198.247 5.5745C199.82 6.29945 200.847 8.20818 201.845 9.95994C202.886 11.7868 204.026 13.5584 205.664 14.2544C206.777 14.727 208.017 14.6535 209.155 14.5265C211.289 14.2885 213.239 12.754 214.957 11.0887C214.651 11.3862 213.909 10.8165 213.594 11.1226Z" fill="#FED2CA"/>
<path d="M250.034 32.3989C252.267 32.5281 254.533 32.881 256.15 34.07C256.344 34.2124 256.866 34.7254 256.272 34.1066C255.674 33.4838 256.14 33.986 256.261 34.1617C256.421 34.3917 256.558 34.6403 256.669 34.9053C256.982 35.6462 257.084 36.5084 257.003 37.4222C256.834 39.3362 255.927 41.3263 255.458 43.2736C254.955 45.3623 255.298 46.8847 256.485 48.1287C257.199 48.8767 257.917 49.538 258.964 49.8987C260.16 50.3101 261.535 50.3945 262.93 50.3582C262.516 50.3691 262.41 49.3656 261.982 49.3768C260.758 49.4092 259.557 49.3479 258.47 49.0552C257.891 48.8996 257.347 48.6792 256.873 48.3709C256.778 48.3089 256.684 48.2452 256.595 48.1761C256.972 48.4679 256.699 48.2804 256.644 48.1399C256.552 47.9036 256.417 47.6974 256.338 47.4511C255.806 45.8021 256.516 43.7546 257.13 41.8341C257.77 39.8312 258.303 37.7932 257.707 36.1163C257.301 34.9772 256.408 34.114 255.544 33.3623C253.925 31.9527 251.475 31.556 249.086 31.418C249.512 31.4424 249.595 32.3737 250.034 32.3989Z" fill="#888888"/>
<path d="M245.465 180.573C245.865 182.774 246.055 185.059 245.279 186.911C245.186 187.132 244.81 187.761 245.272 187.037C245.737 186.31 245.358 186.881 245.216 187.04C245.03 187.249 244.821 187.441 244.589 187.612C243.943 188.09 243.129 188.392 242.221 188.528C240.321 188.814 238.174 188.401 236.171 188.403C234.022 188.405 232.623 189.096 231.693 190.542C231.134 191.412 230.66 192.265 230.556 193.368C230.437 194.627 230.678 195.983 231.042 197.331C230.934 196.931 231.885 196.592 231.773 196.178C231.454 194.997 231.231 193.814 231.26 192.689C231.275 192.09 231.361 191.51 231.549 190.976C231.587 190.869 231.627 190.763 231.673 190.66C231.478 191.095 231.596 190.785 231.72 190.699C231.928 190.555 232.096 190.375 232.317 190.239C233.795 189.335 235.952 189.544 237.963 189.689C240.06 189.84 242.166 189.879 243.656 188.905C244.668 188.243 245.297 187.171 245.824 186.155C246.814 184.25 246.623 181.776 246.196 179.421C246.272 179.841 245.386 180.14 245.465 180.573Z" fill="#FA4323"/>
<path d="M164.636 203.884C165.995 204.404 167.323 205.09 168.328 206.165C168.447 206.293 168.558 206.516 168.702 206.603C168.599 206.463 168.496 206.323 168.393 206.182C168.467 206.297 168.537 206.415 168.603 206.535C168.719 206.743 168.824 206.958 168.919 207.176C169.168 207.749 169.378 208.367 169.487 208.983C169.684 210.1 169.446 211.3 168.959 212.315C168.588 213.088 167.903 214.108 166.933 214.115C166.461 214.119 166.002 213.881 165.644 213.588C165.541 213.504 165.451 213.379 165.344 213.303C165.855 213.661 165.756 213.997 165.578 213.562C165.468 213.293 165.419 212.999 165.48 212.712C165.698 211.675 167.02 211.031 168.002 211.111C168.581 211.159 169.114 211.447 169.544 211.825C169.619 211.891 169.691 211.961 169.761 212.032C169.796 212.069 169.83 212.106 169.865 212.142C170.149 212.487 170.116 212.429 169.765 211.971C169.919 212.343 170.164 212.681 170.318 213.059C170.777 214.185 170.955 215.38 170.581 216.56C169.562 219.777 166.09 220.886 163.145 221.579C163.279 221.548 163.663 222.544 163.813 222.509C166.891 221.783 170.75 220.497 171.394 216.904C171.64 215.534 171.168 214.094 170.452 212.932C169.838 211.933 169.047 210.702 167.886 210.303C166.755 209.913 164.873 210.603 164.788 211.968C164.754 212.515 165.071 212.958 165.372 213.381C165.712 213.858 166.035 214.351 166.532 214.68C167.659 215.427 168.67 214.817 169.323 213.793C170.058 212.642 170.412 211.118 170.128 209.771C169.826 208.339 169.126 207.15 168.271 205.988C167.183 204.509 165.664 203.603 163.967 202.955C164.261 203.067 164.334 203.769 164.636 203.884Z" fill="#FED2CA"/>
<path d="M135.354 251.627C134.897 253.576 134.654 255.617 135.104 257.592C135.157 257.826 135.325 258.124 135.314 258.356C135.234 258.13 135.153 257.905 135.073 257.679C135.147 257.852 135.227 258.022 135.312 258.19C135.46 258.483 135.623 258.768 135.799 259.045C136.26 259.77 136.801 260.487 137.418 261.086C138.538 262.172 140.089 262.827 141.62 263.055C142.787 263.229 144.477 263.236 145.233 262.138C145.602 261.602 145.686 260.896 145.628 260.262C145.612 260.079 145.538 259.881 145.535 259.701C145.549 260.559 146.008 260.706 145.65 260.167C145.428 259.833 145.131 259.552 144.757 259.399C143.408 258.848 141.654 259.857 140.988 261.036C140.595 261.732 140.512 262.562 140.611 263.344C140.629 263.48 140.652 263.616 140.679 263.75C140.694 263.818 140.71 263.886 140.725 263.953C140.897 264.543 140.858 264.46 140.606 263.707C140.911 264.169 141.107 264.709 141.419 265.176C142.348 266.568 143.57 267.692 145.202 268.178C149.653 269.5 153.595 266.4 156.657 263.582C156.517 263.71 157.355 264.916 157.199 265.06C153.998 268.006 149.556 271.408 144.967 269.369C143.218 268.592 141.941 266.944 141.17 265.231C140.507 263.761 139.715 261.91 140.155 260.281C140.585 258.692 142.823 257.08 144.443 258.037C145.092 258.42 145.352 259.124 145.601 259.793C145.883 260.547 146.194 261.296 146.186 262.116C146.167 263.976 144.692 264.656 143.022 264.61C141.144 264.559 139.136 263.786 137.82 262.423C136.422 260.975 135.609 259.26 134.945 257.389C134.1 255.009 134.241 252.58 134.812 250.148C134.713 250.569 135.456 251.193 135.354 251.627Z" fill="#FED2CA"/>
<path d="M32.857 70.8137C32.7326 71.4428 32.6227 72.0741 32.5419 72.7102C32.4833 73.1711 32.4548 73.631 32.4111 74.0935C32.4029 74.1807 32.391 74.6719 32.3955 74.1716C32.4014 73.4882 32.4748 74.9686 32.4555 74.7888C32.6019 76.1548 32.9651 77.508 33.6569 78.7027C35.0354 81.0834 37.414 82.1421 39.9636 82.8216C42.3736 83.4639 44.9746 83.961 46.735 85.8869C47.9971 87.2672 48.5829 89.079 48.7345 90.9171C48.9661 93.7331 48.6909 96.5668 48.0012 99.3004C48.1528 98.6999 47.8483 97.9801 48.0012 97.3734C48.2041 96.5692 48.3858 95.7612 48.5192 94.9423C48.5864 94.5308 48.6429 94.1166 48.6851 93.7018C48.7039 93.5145 48.7185 93.3278 48.7318 93.1401C48.7468 92.9595 48.757 92.7784 48.7632 92.5971C48.7642 92.8693 48.7655 93.1412 48.7666 93.4132C48.907 92.4179 48.5098 91.0799 48.1575 90.1507C47.4092 88.1761 45.8825 86.7324 43.9425 85.9262C41.6089 84.9561 39.0058 84.7762 36.7538 83.586C34.2378 82.2565 32.8461 79.7685 32.4887 77.0006C32.1454 74.3396 32.3392 71.5075 32.857 68.8867C32.7357 69.5019 32.98 70.1929 32.857 70.8137Z" fill="#FED2CA"/>
<path d="M121.187 40.418C119.842 43.5005 116.387 45.9247 112.257 46.6842C112.209 46.6931 112.246 47.4202 112.246 47.4869C112.246 47.5502 112.29 48.2838 112.257 48.2897C116.387 47.5302 119.842 45.1058 121.187 42.0233C121.283 41.8051 121.198 41.4502 121.198 41.2207C121.198 41.0313 121.198 40.8424 121.195 40.6531C121.193 40.5889 121.162 40.4762 121.187 40.418Z" fill="#FA4323"/>
<path d="M127.444 175.682C126.208 179.381 123.035 182.291 119.243 183.202C119.199 183.213 119.233 184.085 119.233 184.166C119.233 184.241 119.273 185.122 119.243 185.129C123.035 184.218 126.208 181.308 127.444 177.608C127.531 177.346 127.453 176.921 127.453 176.645C127.453 176.418 127.453 176.191 127.45 175.964C127.449 175.887 127.42 175.752 127.444 175.682Z" fill="#FA4323"/>
<path d="M272.373 103.099C271.138 106.798 267.965 109.708 264.173 110.619C264.129 110.63 264.163 111.502 264.163 111.582C264.163 111.658 264.203 112.539 264.173 112.546C267.965 111.634 271.138 108.725 272.373 105.025C272.461 104.763 272.383 104.337 272.383 104.062C272.383 103.835 272.383 103.608 272.38 103.381C272.379 103.304 272.35 103.168 272.373 103.099Z" fill="#FA4323"/>
<path d="M197.242 33.2969C193.357 33.6371 189.424 31.8858 187.078 28.77C187.051 28.7339 186.264 29.1128 186.19 29.1449C186.121 29.175 185.329 29.5621 185.311 29.5375C187.657 32.6531 191.589 34.4046 195.475 34.0644C195.75 34.0401 196.11 33.7991 196.363 33.6893C196.571 33.5989 196.779 33.5084 196.986 33.4157C197.056 33.3839 197.169 33.3031 197.242 33.2969Z" fill="#FA4323"/>
<path d="M21.9751 221.194C23.3071 224.86 22.6302 229.111 20.2256 232.183C20.198 232.218 20.7672 232.881 20.8169 232.943C20.8642 233.003 21.4423 233.668 21.4235 233.692C23.8277 230.621 24.5045 226.369 23.1727 222.704C23.078 222.444 22.7526 222.159 22.5813 221.943C22.44 221.765 22.2985 221.587 22.1555 221.411C22.1073 221.351 21.9999 221.264 21.9751 221.194Z" fill="#FED2CA"/>
<defs>
<linearGradient id="paint0_linear_11045_32730" x1="71.2098" y1="53.4254" x2="172.567" y2="216.366" gradientUnits="userSpaceOnUse">
<stop stop-color="#888888"/>
<stop offset="1" stop-color="#6E6E6E"/>
</linearGradient>
<linearGradient id="paint1_linear_11045_32730" x1="186.701" y1="185.403" x2="265.491" y2="293.125" gradientUnits="userSpaceOnUse">
<stop stop-color="#636363"/>
<stop offset="1" stop-color="#444444"/>
</linearGradient>
<linearGradient id="paint2_linear_11045_32730" x1="232.857" y1="188.255" x2="419.318" y2="698.346" gradientUnits="userSpaceOnUse">
<stop stop-color="#636363"/>
<stop offset="1" stop-color="#444444"/>
</linearGradient>
<linearGradient id="paint3_linear_11045_32730" x1="251.731" y1="219.057" x2="168.177" y2="36.8934" gradientUnits="userSpaceOnUse">
<stop stop-color="#888888"/>
<stop offset="1" stop-color="#6E6E6E"/>
</linearGradient>
<linearGradient id="paint4_linear_11045_32730" x1="257.354" y1="216.479" x2="173.799" y2="34.3147" gradientUnits="userSpaceOnUse">
<stop stop-color="#888888"/>
<stop offset="1" stop-color="#6E6E6E"/>
</linearGradient>
<linearGradient id="paint5_linear_11045_32730" x1="298.252" y1="197.721" x2="214.697" y2="15.5569" gradientUnits="userSpaceOnUse">
<stop stop-color="#888888"/>
<stop offset="1" stop-color="#6E6E6E"/>
</linearGradient>
<linearGradient id="paint6_linear_11045_32730" x1="117.006" y1="214.451" x2="14.1915" y2="263.534" gradientUnits="userSpaceOnUse">
<stop stop-color="#636363"/>
<stop offset="1" stop-color="#444444"/>
</linearGradient>
<linearGradient id="paint7_linear_11045_32730" x1="68.8178" y1="188.255" x2="-117.644" y2="698.346" gradientUnits="userSpaceOnUse">
<stop stop-color="#636363"/>
<stop offset="1" stop-color="#444444"/>
</linearGradient>
<linearGradient id="paint8_linear_11045_32730" x1="26.1424" y1="81.4588" x2="127.5" y2="244.4" gradientUnits="userSpaceOnUse">
<stop stop-color="#888888"/>
<stop offset="1" stop-color="#6E6E6E"/>
</linearGradient>
<linearGradient id="paint9_linear_11045_32730" x1="25.6586" y1="81.7589" x2="127.016" y2="244.7" gradientUnits="userSpaceOnUse">
<stop stop-color="#888888"/>
<stop offset="1" stop-color="#6E6E6E"/>
</linearGradient>
</defs>
</svg>
