<svg xmlns="http://www.w3.org/2000/svg" enable-background="new 0 0 3000 3000" viewBox="0 0 3000 3000" id="Welcomebanner"><g fill="#2c2c2c" class="color000000 svgShape"><path fill="#fed2ca" d="M1386.799 695.725H927.506c-15.883 0-28.758 12.875-28.758 28.759v243.682c0 15.883 12.875 28.758 28.758 28.758h459.292c15.884 0 28.759-12.875 28.759-28.758V724.484C1415.558 708.6 1402.683 695.725 1386.799 695.725zM1135.736 948.992H946.68V743.658h189.057V948.992zM1253.665 948.992h-77.211c-6.066 0-10.984-4.918-10.984-10.984 0-6.066 4.917-10.984 10.984-10.984h77.211c6.066 0 10.986 4.918 10.986 10.984C1264.651 944.074 1259.732 948.992 1253.665 948.992zM1356.644 903.151l-180.19-.001c-6.066 0-10.984-4.918-10.984-10.984s4.917-10.984 10.984-10.984h180.19c6.066 0 10.984 4.918 10.984 10.984S1362.71 903.151 1356.644 903.151zM1356.644 857.309h-180.19c-6.066 0-10.984-4.917-10.984-10.984 0-6.067 4.917-10.985 10.984-10.985h180.19c6.066 0 10.984 4.918 10.984 10.985C1367.627 852.392 1362.71 857.309 1356.644 857.309zM1165.47 800.484c0-6.066 4.917-10.985 10.984-10.985h77.211c6.066 0 10.986 4.919 10.986 10.985s-4.919 10.984-10.986 10.984h-77.211C1170.388 811.468 1165.47 806.55 1165.47 800.484zM1356.644 765.627h-180.19c-6.066 0-10.984-4.918-10.984-10.984 0-6.066 4.917-10.984 10.984-10.984h180.19c6.066 0 10.984 4.918 10.984 10.984C1367.627 760.709 1362.71 765.627 1356.644 765.627zM2099.716 695.725h-459.292c-15.883 0-28.758 12.875-28.758 28.759v243.682c0 15.883 12.875 28.758 28.758 28.758h459.292c15.884 0 28.759-12.875 28.759-28.758V724.484C2128.476 708.6 2115.6 695.725 2099.716 695.725zM1848.654 948.992h-189.057V743.658h189.057V948.992zM1966.583 948.992h-77.211c-6.066 0-10.984-4.918-10.984-10.984 0-6.066 4.917-10.984 10.984-10.984h77.211c6.066 0 10.986 4.918 10.986 10.984C1977.568 944.074 1972.649 948.992 1966.583 948.992zM2069.561 903.151l-180.19-.001c-6.066 0-10.984-4.918-10.984-10.984s4.917-10.984 10.984-10.984h180.19c6.066 0 10.984 4.918 10.984 10.984S2075.628 903.151 2069.561 903.151zM2069.561 857.309h-180.19c-6.066 0-10.984-4.917-10.984-10.984 0-6.067 4.917-10.985 10.984-10.985h180.19c6.066 0 10.984 4.918 10.984 10.985C2080.545 852.392 2075.628 857.309 2069.561 857.309zM1878.388 800.484c0-6.066 4.917-10.985 10.984-10.985h77.211c6.066 0 10.986 4.919 10.986 10.985s-4.919 10.984-10.986 10.984h-77.211C1883.305 811.468 1878.388 806.55 1878.388 800.484zM2069.561 765.627h-180.19c-6.066 0-10.984-4.918-10.984-10.984 0-6.066 4.917-10.984 10.984-10.984h180.19c6.066 0 10.984 4.918 10.984 10.984C2080.545 760.709 2075.628 765.627 2069.561 765.627z" class="colorfef0ca svgShape"></path></g><g fill="#2c2c2c" class="color000000 svgShape"><path fill="#444444" d="M600.973,847.891c96.385-47.802,14.17-78.646,63.044-120.462c48.891-41.753,127.806-8.761,150.267-34.143
		c22.461-25.383,56.719-92.195,155.44-86.467c32.384,1.879,98.903,34.969,90.778,92.696c-4.711,33.464,4.343,53.692,9.5,69.321
		c9.029,27.554,19.812,42.146,9.052,96.597c-16.894,85.364-108.055,37.705-170.542,118.286
		c-68.728,88.741-139.934,131.262-203.271,140.969c-74.448,11.431-138.159-22.578-174.578-80.344
		C463.25,937.288,504.529,895.701,600.973,847.891z" class="color123a76 svgShape"></path><g fill="#2c2c2c" class="color000000 svgShape"><path fill="#eda69a" d="M1149.709,1288.071l61.28-166.143l134.596,59.75l436.721-112.204l19.801,91.022
			c0,0-280.098,137.748-461.751,179.578C1293.417,1350.882,1149.709,1288.071,1149.709,1288.071z" class="coloreda49a svgShape"></path><path fill="#ff5c40" d="M1394.396,1325.688c-18.649,5.612-36.856,10.434-54.052,14.359
			c-46.934,10.786-190.67-51.97-190.67-51.97l61.284-166.107l97.928,43.417c3.138,25.6,10.102,92.666,1.225,117.092
			C1310.111,1282.478,1342.446,1321.016,1394.396,1325.688z" opacity=".2" class="colord8776a svgShape"></path><path fill="#ff5c40" d="M1348.352,1246.387c-17.399-25.655-8.503-58.921-3.723-59.079
			c4.781-0.159,22.56,20.115,16.551,19.645c-6.009-0.47-13.518-11.969-13.518-11.969S1354.18,1254.98,1348.352,1246.387z" opacity=".2" class="colord8776a svgShape"></path><g fill="#2c2c2c" class="color000000 svgShape"><path fill="#eda69a" d="M1874.156,991.277c6.151,2.901,7.128,8.959,3.219,16.028c-8.325,15.059-18.123,29.191-27.486,44.281
				c32.96-7.779,68.604-15.462,101.563-23.241c1.849,3.993,0.072,8.373-2.374,11.044c-2.446,2.67-5.71,4.423-8.933,6.073
				c-12.633,6.466-25.674,12.132-39.021,16.955c23.602-2.446,40.486-4.76,62.759-6.142c0.785,3.342-0.494,8.26-3.132,10.457
				c-2.639,2.197-8.667,4.246-11.92,5.343c-14.779,4.984-26.864,9.059-41.643,14.042c16.482-0.588,33.777,0.549,50.259-0.04
				c1.189,2.376-0.227,6.885-2.065,8.804c-1.838,1.919-4.321,3.135-6.853,3.94c-12.863,4.087-30.217,7.7-40.623,10.55
				c11.092,0.703,22.515,2.588,33.606,3.29c0.732,10.439-12.596,8.411-20.667,10.929c-33.502,10.455-68.62,21.575-102.122,32.029
				c0,0-25.312,7.825-44.886,12.118c-0.246-1.097-21.754-77.232-24.039-83.517c9.315-2.63,28.871-8.561,28.871-8.561
				C1798.253,1034.139,1822.592,1033.103,1874.156,991.277z" class="coloreda49a svgShape"></path><path fill="#ff5c40" d="M1891.61 1064.103c.168.826 4.136.713 8.862-.251 4.725-.964 8.419-2.416 8.251-3.242-.169-.826-4.136-.714-8.862.251C1895.136 1061.825 1891.441 1063.277 1891.61 1064.103zM1895.156 1088.757c.169.827 4.136.714 8.862-.25 4.725-.964 8.419-2.416 8.251-3.242-.169-.826-4.136-.714-8.862.251C1898.682 1086.48 1894.988 1087.931 1895.156 1088.757zM1896.544 1112.073c.168.826 4.136.713 8.862-.251 4.726-.964 8.42-2.416 8.251-3.242-.168-.827-4.136-.714-8.862.25C1900.069 1109.795 1896.375 1111.247 1896.544 1112.073zM1882.248 1114.782c.823-.182-.739-10.444-3.489-22.922-2.749-12.478-5.646-22.446-6.47-22.264-.823.182.739 10.443 3.489 22.922C1878.527 1104.995 1881.424 1114.964 1882.248 1114.782zM1823.24 1092.485c.045.206.855.18 2.31-.051 1.436-.287 3.609-.491 6.039-1.601 4.978-1.701 11.599-6.063 15.781-13.262 4.289-7.12 5.156-14.722 5.265-19.922-.005-5.286-.876-8.474-1.284-8.407-.423.056-.334 3.24-.871 8.282-.643 4.972-1.818 12.021-5.738 18.492-3.809 6.538-9.513 10.719-14.028 12.843-2.171 1.299-4.179 1.801-5.477 2.428C1823.919 1091.86 1823.196 1092.278 1823.24 1092.485zM1780.745 1081.071c-.21-.02-.459.914-.733 2.635-.271 1.721-.639 4.23-.609 7.353-.166 6.23.703 14.939 3.47 24.085 5.417 18.473 15.719 30.626 16.317 30.007.702-.456-8.168-13.015-13.391-30.879C1780.229 1096.469 1781.784 1081.11 1780.745 1081.071z" class="colord8776a svgShape"></path></g><linearGradient id="a" x1="908.209" x2="1679.832" y1="764.784" y2="2005.24" gradientUnits="userSpaceOnUse"><stop offset="0" stop-color="#888888" class="stopColor1c8ef4 svgShape"></stop><stop offset="1" stop-color="#6e6e6e" class="stopColor00cfdd svgShape"></stop></linearGradient><path fill="url(#a)" d="M1069.464,1018.979c0,0,181.914,109.318,232.593,126.378c17.7,5.958-45.95,193.638-58.556,199.201
			c-12.607,5.563-148.514-60.893-180.432-88.041c-31.918-27.147-69.788-108.779-73.448-130.657
			c-3.109-18.579,5.058-95.529,27.527-116.081C1022.713,1009.017,1065.222,1019.147,1069.464,1018.979z"></path><path fill="#6e6e6e" d="M1116.587,1081.944c-21.499-38.877,156.657,57.39,153.177,76.619
			C1266.285,1177.793,1135.306,1115.794,1116.587,1081.944z" opacity=".5" class="color00cfdd svgShape"></path><path fill="#888888" d="M1271.942,1281.481c-11.971,33.734-23.727,61.059-28.415,63.115
			c-12.645,5.551-148.579-60.906-180.441-88.091c-31.977-27.163-69.779-108.795-73.51-130.627
			c-3.403-20.713-1.94-46.649,24.325-55.692C1047.403,1144.6,1161.857,1263.032,1271.942,1281.481z" opacity=".5" class="color1c8ef4 svgShape"></path></g><g fill="#2c2c2c" class="color000000 svgShape"><g fill="#2c2c2c" class="color000000 svgShape"><linearGradient id="b" x1="1787.436" x2="2387.257" y1="1769.518" y2="2589.6" gradientUnits="userSpaceOnUse"><stop offset="0" stop-color="#636363" class="stopColor235da3 svgShape"></stop><stop offset="1" stop-color="#444444" class="stopColor123a76 svgShape"></stop></linearGradient><path fill="url(#b)" d="M2226.044,1841.828
				c-24.875,36.411-37.555,619.461-40.943,718.534h-316.272c-7.304-236.781-6.902-827.77,1.99-845.128
				c8.786-17.359,334.162-34.719,348.874-34.295C2232.29,1724.019,2250.917,1805.415,2226.044,1841.828z"></path><path fill="#444444" d="M2226.014,1841.8c-24.844,36.448-37.497,619.488-40.906,718.541h-316.299
				c-2.36-77.944-3.933-194.237-4.72-315.841c106.526,62.211,123.045,193.123,146.185,200.268
				c25.895,8.063-2.228-35.53-10.487-47.33c-8.325-11.8,22.026-7.866,51.197-31.138c29.237-23.272-19.339-25.894-34.613-41.627
				c-15.34-15.733-6.359-11.8,34.613-39.333c41.036-27.533-40.972-420.859-68.504-448.391
				c-22.944-22.944-73.093-19.732-117.21,10.095c1.179-75.977,3.08-126.913,5.571-131.83c8.785-17.372,334.131-34.678,348.88-34.285
				C2232.308,1723.999,2250.924,1805.417,2226.014,1841.8z" class="color123a76 svgShape"></path><linearGradient id="c" x1="2990.096" x2="4409.613" y1="1791.233" y2="5674.51" gradientTransform="translate(-851.277)" gradientUnits="userSpaceOnUse"><stop offset="0" stop-color="#636363" class="stopColor235da3 svgShape"></stop><stop offset="1" stop-color="#444444" class="stopColor123a76 svgShape"></stop></linearGradient><path fill="url(#c)" d="M2114.625,2560.385h297.375
				c7.284-236.789,13.187-827.853,4.367-845.164c-25.165-49.401-416.597-32.308-416.597-32.308l84.973,177.584L2114.625,2560.385z"></path><path fill="#444444" d="M2197.301,2430.346c27.271,16.389,128.29,25.435,217.247,29.172
				c-0.787,37.825-1.704,71.979-2.557,100.888h-297.354l-29.893-699.923l-84.958-177.587c0,0,391.424-17.11,416.597,32.318
				c1.704,3.409,2.885,28.91,3.539,69.488c-62.865,32.712-177.979,86.401-215.739,96.562
				c-51.132,13.701-96.823,321.937-68.832,364.744c28.057,42.807,101.15,24.124,74.928,49.69s-84.958,35.792-65.948,57.229
				c19.076,21.436,193.254-37.628,162.968,0C2276.949,2390.555,2145.71,2399.405,2197.301,2430.346z" opacity=".5" class="color123a76 svgShape"></path></g><path fill="#444444" d="M1723.792,1227.968c-1.237,15.241,14.202,61.243,61.001,98.409c46.8,37.165,103.858,37.15,103.858,37.15
			s5.44-64.93-40.613-108.865C1801.986,1210.727,1743.893,1240.402,1723.792,1227.968z" class="color123a76 svgShape"></path><path fill="#eda69a" d="M1775.72,1231.889c0,0-179.796,142.16-174.782,150.755c5.014,8.596,8.925,11.01,49.755,26.032
			c40.831,15.021,138.967,14.617,138.967,14.617l111.991-76.242C1901.651,1347.051,1897.476,1209.682,1775.72,1231.889z" class="coloreda49a svgShape"></path><linearGradient id="d" x1="3133.793" x2="2497.699" y1="2025.727" y2="638.93" gradientTransform="translate(-851.277)" gradientUnits="userSpaceOnUse"><stop offset="0" stop-color="#888888" class="stopColor1c8ef4 svgShape"></stop><stop offset="1" stop-color="#6e6e6e" class="stopColor00cfdd svgShape"></stop></linearGradient><path fill="url(#d)" d="M2010.212,1010.715
			c0,0-29.294,10.409-32.876,11.842c-3.582,1.432-133.784,131.819-251.758,203.451c-19.88,12.071,132.133,42.964,163.073,137.518
			c52.152-22.922,107.951-66.14,121.635-113.895C2023.971,1201.877,2010.212,1010.715,2010.212,1010.715z"></path><path fill="#6e6e6e" d="M1950.503,1076.772c27.166,2.845-102.465,155.117-155.396,142.983
			C1776.469,1215.482,1934.889,1075.136,1950.503,1076.772z" opacity=".5" class="color00cfdd svgShape"></path><path fill="#888888" d="M2014.972,1215.565c-0.892,14.265-2.42,26.107-4.711,34.002
			c-13.626,47.754-69.404,91.052-121.616,113.975c-9.806-30.182-31.964-53.867-56.924-72.46
			C1885.843,1293.12,1956.011,1279.748,2014.972,1215.565z" opacity=".5" class="color1c8ef4 svgShape"></path><linearGradient id="e" x1="3176.596" x2="2540.5" y1="2006.096" y2="619.294" gradientTransform="translate(-851.277)" gradientUnits="userSpaceOnUse"><stop offset="0" stop-color="#888888" class="stopColor1c8ef4 svgShape"></stop><stop offset="1" stop-color="#6e6e6e" class="stopColor00cfdd svgShape"></stop></linearGradient><path fill="url(#e)" d="M1854.552,1758.623
			c10.23,7.878,375.761,24.076,421.884,24.061c46.123-0.015,168.213-60.569,168.213-60.569s-166.042-624.987-218.745-711.992
			c-35.27-10.299-203.936-4.017-215.693,0.593C1998.456,1015.324,1811.143,1725.198,1854.552,1758.623z"></path><path fill="#636363" d="M2294.979,1197.744c-11.395,42.814-28.569,98.651-41.104,103.779
			c-20.675,8.384-273.08-3.419-289.766-5.779c-7.732-1.058-16.93-17.988-24.582-36.057
			c-52.744,209.591-111.266,478.683-84.976,498.95c10.256,7.895,375.8,24.093,421.871,24.012c46.15,0,168.242-60.558,168.242-60.558
			S2362.13,1411.569,2294.979,1197.744z M2350.49,1690.753c-23.604,1.953-144.476-35.243-116.069-10.662
			c28.408,24.5,101.175,34.593,88.151,44.686c-13.023,10.093-3.011,21.976-43.302,24.744c-40.29,2.686-332.986,2.361-346.416-18.07
			c-13.43-20.43,133.977-69.836,133.977-69.836c83.348-18.314,193.232-89.779,219.766-74.232
			c26.616,15.628,86.44,76.023,63.894,74.232c-22.627-1.872-69.347-19.291-47.372-4.639
			C2325.096,1671.626,2374.014,1688.718,2350.49,1690.753z" opacity=".2" class="color235da3 svgShape"></path><path fill="#636363" d="M2217.498,1273.535c-58.924,23.982-203.894-3.549-207.159-15.115
			c-3.265-11.567,166.11-50.409,142.532-33.989c-23.579,16.42-88.683,30.819-85.968,30.637
			C2069.62,1254.886,2268.667,1252.709,2217.498,1273.535z" opacity=".2" class="color235da3 svgShape"></path><path fill="#eda69a" d="M2450.075,1301.235c0,0,116.567,277.689,115.938,311.473c-0.63,33.785-18.99,71.768-57.968,70.412
			c-38.978-1.357-89.23-17.635-89.23-17.635l-103.409-352.441L2450.075,1301.235z" class="coloreda49a svgShape"></path><linearGradient id="f" x1="3487.949" x2="2851.854" y1="1863.288" y2="476.488" gradientTransform="translate(-851.277)" gradientUnits="userSpaceOnUse"><stop offset="0" stop-color="#888888" class="stopColor1c8ef4 svgShape"></stop><stop offset="1" stop-color="#6e6e6e" class="stopColor00cfdd svgShape"></stop></linearGradient><path fill="url(#f)" d="M2225.904,1010.364
			c0,0,78.341,20.252,86.48,29.07c8.139,8.818,109.507,200.885,160.309,261.802c24.131,28.935-147.675,80.02-159.506,61.194
			c-6.719-10.69-45.474-99.823-67.758-194.692C2228.472,1095.538,2225.904,1010.364,2225.904,1010.364z"></path><path fill="#888888" d="M2287.198,1045.951c27.166,2.845,76.521,104.89,64.018,119.357
			C2338.713,1179.776,2271.584,1044.316,2287.198,1045.951z" opacity=".5" class="color1c8ef4 svgShape"></path><path fill="#636363" d="M2254.46 1196.05c0 0 50.391 154.158 64.572 162.806 14.181 8.647 73.026-6.911 72.036-6.649-.99.262-67.878 36.046-83.25 24.963C2292.446 1366.088 2249.579 1216.155 2254.46 1196.05zM1963.622 1166.39c6.367 6.671-53.081 257.385-61.139 245.292C1894.425 1399.588 1947.097 1187.133 1963.622 1166.39z" class="color235da3 svgShape"></path><g fill="#2c2c2c" class="color000000 svgShape"><path fill="#636363" d="M2064.364,1006.188c0,0-3.446,47.533,50.122,53.869
				c53.568,6.337,77.608-53.869,77.608-53.869H2064.364z" opacity=".2" class="color235da3 svgShape"></path><path fill="#444444" d="M2224.752,789.123c3.674-12.433-2.02-25.655-8.911-36.637c-6.891-10.983-15.304-21.56-17.856-34.272
				c-2.11-10.507,0.04-21.337,0.409-32.049c0.368-10.71-1.609-22.531-9.781-29.467c-4.506-3.823-10.386-5.673-16.234-6.522
				c-8.298-1.204-16.86-0.557-24.883,1.882c-8.52,2.589-17.286,7.22-25.835,4.728c-7.088-2.066-11.844-8.464-16.984-13.766
				c-9.686-9.99-22.663-17.116-36.526-18.315c-13.864-1.196-28.477,4.01-37.326,14.748c-3.791,4.601-6.471,10.048-10.37,14.558
				c-11.409,13.196-30.413,15.833-47.415,19.736c-17.003,3.902-35.951,12.47-39.786,29.488c-2.93,12.999,4.141,27.404-1.328,39.553
				c-3.834,8.519-12.797,13.412-18.638,20.703c-8.018,10.004-9.176,25.531-1.271,35.625c9.135,11.663,27.219,14.086,34.938,26.73
				c5.989,9.808,3.667,22.286,4.566,33.742c1.315,16.733,10.365,32.702,24.046,42.427l-4.059-4.083
				c23.61,18.761,51.553,32.032,81.013,38.477c14.621,3.199,29.929,4.719,44.51,1.335c20.908-4.853,38.285-19.211,58.343-26.852
				c15.257-5.815,33.779-9.048,41.741-23.303c10.204-18.27-4.205-42.13,3.136-61.726
				C2205.452,811.978,2220.549,803.342,2224.752,789.123z" class="color123a76 svgShape"></path><path fill="#eda69a" d="M2179.051,991.677l-43.807-136.966l-58.664,74.221l11.201,63.68
				c-12.448,3.349-7.487,41.012,35.309,41.012C2184.521,1033.624,2185.101,992.019,2179.051,991.677z" class="coloreda49a svgShape"></path><path fill="#636363" d="M2086.621,985.883l-22.257,18.185c0,0,13.259,37.941,60.195,38.977
				c46.937,1.035,68.818-39.401,68.818-39.401l-17.993-23.428c0,0-8.262,35.455-49.994,35.455
				C2091.568,1015.67,2086.621,985.883,2086.621,985.883z" class="color235da3 svgShape"></path><path fill="#e39082" d="M2085.61,980.215l-9-51.261l31.536-39.881l27.733,9.693
				C2135.879,898.765,2145.738,961.44,2085.61,980.215z" class="colore38e82 svgShape"></path><path fill="#eda69a" d="M2175.291,857.538c-4.151,16.267-20.351,5.854-20.351,5.854s1.269,22.034-1.391,26.89
				c-12.174,22.229-48.483,82.384-121.382,75.345c-88.823-8.576-73.168-195.684-73.168-195.684c0-0.613,61.393,19.467,98.693,0
				c29.676-15.519,48.714,40.624,79.071,4.243c0,0-10.553,42.19,5.22,46.835c4.34,1.278,12.413-13.17,12.413-13.17
				c0.612-1.499,7.351-17.152,25.796-6.467C2199.522,812.684,2179.511,841.203,2175.291,857.538z" class="coloreda49a svgShape"></path><path fill="#444444" d="M2162.701,818.281c0,0-3.52,10.568-1.853,15.385l10.56-3.335l-9.818,8.078l2.269,12.299
				C2163.858,850.708,2145.472,833.647,2162.701,818.281z" class="color123a76 svgShape"></path><g fill="#2c2c2c" class="color000000 svgShape"><path fill="#e39082" d="M2110.292 869.658c.941 6.234-5.942 12.44-15.372 13.863-9.43 1.422-17.837-2.478-18.778-8.712-.94-6.234 5.943-12.44 15.373-13.862C2100.945 859.525 2109.352 863.425 2110.292 869.658zM2003.762 868.397c.94 6.233-5.943 12.44-15.373 13.862-9.43 1.423-17.837-2.477-18.777-8.711-.94-6.234 5.943-12.44 15.373-13.862C1994.415 858.263 2002.822 862.164 2003.762 868.397z" class="colore38e82 svgShape"></path><path fill="#444444" d="M2000.93 831.701c-.142 8.189-4.799 14.748-10.401 14.651-5.603-.097-10.029-6.814-9.887-15.003.142-8.188 4.798-14.748 10.401-14.651C1996.645 816.796 2001.072 823.512 2000.93 831.701zM2092.234 833.285c-.142 8.188-4.799 14.748-10.402 14.651-5.603-.098-10.03-6.815-9.888-15.003.142-8.189 4.799-14.748 10.402-14.651C2087.948 818.379 2092.375 825.096 2092.234 833.285zM2038.078 865.169c-.966-1.088-2.629-1.189-3.71-.218-2.848 2.526-6.846 2.194-9.475 1.577 8.892-15.488 5.29-37.519 3.832-37.339-1.443.169-.118 22.705-9.8 37.014-.328.486-.427 1.042-.403 1.585-.117 1.093.429 2.184 1.486 2.667.257.115 3.987 1.78 8.47 1.78 3.063 0 6.481-.776 9.381-3.356C2038.945 867.916 2039.043 866.254 2038.078 865.169z" class="color123a76 svgShape"></path><g fill="#2c2c2c" class="color000000 svgShape"><path fill="#444444" d="M2069.477,893.657c0,0-0.494,10.51-4.201,21.253c-4.478,13.092-13.167,23.232-31.684,23.314
						c-19.441,0.086-29.744-34-29.744-34C2040.662,912.642,2069.477,893.657,2069.477,893.657z" class="color123a76 svgShape"></path><path fill="#ffffff" d="M2017.914,925.193c4.176,4.802,9.531,8.5,16.722,9.673c14.737,2.454,22.511-10.223,26.583-22.33
						C2046.824,907.508,2027.53,911.181,2017.914,925.193z" class="colorffffff svgShape"></path></g><g fill="#2c2c2c" class="color000000 svgShape"><path fill="#444444" d="M1966.096,808.015c1.158,3.063,16.703,0.794,24.388-2.11c7.684-2.907,16.394-4.428,15.236-7.494
						c-1.158-3.064-11.747-6.509-19.43-3.604C1978.604,797.714,1964.938,804.949,1966.096,808.015z" class="color123a76 svgShape"></path></g><g fill="#2c2c2c" class="color000000 svgShape"><path fill="#444444" d="M2101.252,812.733c-1.158,3.063-16.636-1.089-24.321-3.994c-7.684-2.907-16.394-4.428-15.236-7.494
						c1.158-3.064,11.747-6.509,19.43-3.604C2088.811,800.548,2102.41,809.667,2101.252,812.733z" class="color123a76 svgShape"></path></g></g></g></g><g fill="#2c2c2c" class="color000000 svgShape"><linearGradient id="g" x1="1256.855" x2="474.135" y1="1990.66" y2="2364.321" gradientUnits="userSpaceOnUse"><stop offset="0" stop-color="#636363" class="stopColor235da3 svgShape"></stop><stop offset="1" stop-color="#444444" class="stopColor123a76 svgShape"></stop></linearGradient><path fill="url(#g)" d="M802.777,1841.828
			c24.875,36.411,37.555,619.461,40.943,718.534h316.273c7.305-236.781,6.902-827.77-1.99-845.128
			c-8.786-17.359-334.162-34.719-348.874-34.295C796.531,1724.019,777.904,1805.415,802.777,1841.828z"></path><path fill="#444444" d="M1162.068,2470.531c-0.59,33.433-1.311,63.719-2.098,89.809H843.736
			c-3.409-99.052-16.061-682.092-40.971-718.541c-24.845-36.383-6.228-117.801,6.359-160.87
			c14.75-0.393,340.096,16.913,348.879,34.285c2.426,4.786,4.262,52.837,5.442,124.947c-8.522-8.391-20.387-13.439-36.251-11.079
			c-53.296,7.866-146.448,119.964-146.448,119.964s-28.188,373.135,0,403.88c28.254,30.745,70.34,4.523,48.314,36.317
			c-22.026,31.794-74.601,50.739-51.264,78.665C996.477,2490.198,1115.524,2476.759,1162.068,2470.531z" class="color123a76 svgShape"></path><linearGradient id="h" x1="3147.702" x2="4567.219" y1="1791.233" y2="5674.51" gradientTransform="matrix(-1 0 0 1 4037.704 0)" gradientUnits="userSpaceOnUse"><stop offset="0" stop-color="#636363" class="stopColor235da3 svgShape"></stop><stop offset="1" stop-color="#444444" class="stopColor123a76 svgShape"></stop></linearGradient><path fill="url(#h)" d="M914.196,2560.385H616.822
			c-7.284-236.789-13.187-827.853-4.367-845.164c25.164-49.401,416.596-32.308,416.596-32.308l-84.973,177.584L914.196,2560.385z"></path><path fill="#444444" d="M1029.058,1682.896L944.1,1860.483l-4.917,114.917
			c-10.752-61.949-28.648-139.631-56.704-144.351c-46.544-7.866-199.745-70.799-217.575-11.8
			c-17.765,58.999-26.091,350.06,13.439,379.559c39.595,29.5,90.727,10.882,61.228,35.924
			c-29.499,25.042-78.73-12.324-48.248,42.741c30.548,55.066,227.211,122.521,156.413,136.025
			c-70.799,13.438-242.944-28.057-167.688,30.089c48.051,37.104,161.656,40.513,237.503,38.153l-3.343,78.665H616.853
			c-7.342-236.782-13.242-827.885-4.392-845.192C637.633,1665.787,1029.058,1682.896,1029.058,1682.896z" opacity=".5" class="color123a76 svgShape"></path></g><path fill="#eda69a" d="M578.746,1301.235c0,0-116.567,277.689-115.937,311.473c0.63,33.785,18.99,71.768,57.968,70.412
		c38.978-1.357,89.23-17.635,89.23-17.635l103.409-352.441L578.746,1301.235z" class="coloreda49a svgShape"></path><linearGradient id="i" x1="565.121" x2="1336.744" y1="978.201" y2="2218.656" gradientUnits="userSpaceOnUse"><stop offset="0" stop-color="#888888" class="stopColor1c8ef4 svgShape"></stop><stop offset="1" stop-color="#6e6e6e" class="stopColor00cfdd svgShape"></stop></linearGradient><path fill="url(#i)" d="M802.917,1010.364
		c0,0-78.341,20.252-86.481,29.07c-8.139,8.818-109.506,200.885-160.309,261.802c-24.131,28.935,147.675,80.02,159.506,61.194
		C727.464,1343.604,802.917,1010.364,802.917,1010.364z"></path><path fill="#888888" d="M741.623,1045.951c-27.166,2.845-76.521,104.89-64.018,119.357
		C690.108,1179.776,757.237,1044.316,741.623,1045.951z" opacity=".5" class="color1c8ef4 svgShape"></path><linearGradient id="j" x1="561.44" x2="1333.065" y1="980.49" y2="2220.948" gradientUnits="userSpaceOnUse"><stop offset="0" stop-color="#888888" class="stopColor1c8ef4 svgShape"></stop><stop offset="1" stop-color="#6e6e6e" class="stopColor00cfdd svgShape"></stop></linearGradient><path fill="url(#j)" d="M1174.269,1758.623
		c-10.23,7.878-375.761,24.076-421.884,24.061c-46.123-0.015-168.213-60.569-168.213-60.569s166.042-624.987,218.745-711.992
		c35.27-10.299,203.936-4.017,215.693,0.593C1030.365,1015.324,1217.679,1725.198,1174.269,1758.623z"></path><path fill="#6e6e6e" d="M743.965 1585.186c44.332 10.116 257.882 95.638 269.365 115.783 11.483 20.146-178.668 53.11-238.345 38.459-59.676-14.651-139.068-36.628-99.372-40.29 39.696-3.663 83.649-7.326 48.853-18.314-34.797-10.989-58.926-5.921-33.126-16.696 25.8-10.775 25.676-27.665 22.075-44.859C709.814 1602.074 734.161 1582.949 743.965 1585.186zM991.673 1166.39c-110.702 57.008-140.196 6.284-156.06-3.657-15.864-9.942-70.654 146.044-37.361 138.502 33.293-7.542 38.174-59.601 78.845-32.758 40.671 26.843 156.177 44.902 165.938 19.198S1018.997 1152.319 991.673 1166.39z" opacity=".5" class="color00cfdd svgShape"></path><path fill="#636363" d="M1065.199 1166.39c-6.367 6.671 53.081 257.385 61.139 245.292C1134.396 1399.588 1081.724 1187.133 1065.199 1166.39zM774.361 1196.05c0 0-50.391 154.158-64.572 162.806-14.181 8.647-73.026-6.911-72.036-6.649.99.262 67.878 36.046 83.25 24.963C736.376 1366.088 779.242 1216.155 774.361 1196.05z" class="color235da3 svgShape"></path><g fill="#2c2c2c" class="color000000 svgShape"><g fill="#2c2c2c" class="color000000 svgShape"><path fill="#eda69a" d="M999.906,1008.186c0,0-26.52-4.766-37.386-6.512c-0.981-2.523-12.778-98.868-12.778-98.868
				l-71.929-24.613c0,0-7.254,111.775-16.146,125.711c-0.496,0.771-43.39,3.21-43.39,3.21
				c-9.679,34.556,34.208,106.981,100.493,111.221C979.229,1108.862,999.934,1036.087,999.906,1008.186z" class="coloreda49a svgShape"></path><path fill="#ff5c40" d="M960.571,988.507c-3.594-26.953-10.782-85.654-10.782-85.654l-57.901-19.866
				C884.701,915.233,881.106,975.429,960.571,988.507z" class="colord8776a svgShape"></path><path fill="#ff5c40" d="M918.747,1118.336c-66.235-4.286-112.29-75.606-102.56-110.155
				c0,0,4.018-0.359,9.731-0.805c6.169,87.088,79.578,102.28,95.465,91.568c14.108-9.639,77.723-47.425,66.818-92.818
				c6.609,1.164,11.699,2.054,11.699,2.054C1000.739,1040.39,975.166,1110.175,918.747,1118.336z" opacity=".2" class="colord8776a svgShape"></path><g fill="#2c2c2c" class="color000000 svgShape"><path fill="#eda69a" d="M1017.623,952.739c-96.972,50.51-148.01-86.529-151.838-86.747c-3.829-0.217-7.545,1.289-11.368,1.587
					c-14.831,1.161-21.253-23.641-23.516-38.345c-7.277-47.288,27.042-34.582,32.206-23.896
					c5.632,0.121-21.437-88.231,91.052-105.234c55.334,0.17,70.253,28.742,83.327,56.849
					c21.711,46.669,28.601,114.174,9.412,161.934C1040.848,933.95,1032.146,945.174,1017.623,952.739z" class="coloreda49a svgShape"></path><path fill="#fed2ca" d="M861.202,866.562c-0.427,2.823-3.063,4.765-5.88,4.338c-2.83-0.427-4.772-3.063-4.345-5.886
					c0.434-2.816,3.063-4.758,5.886-4.338C859.687,861.11,861.628,863.739,861.202,866.562z" class="colorfef0ca svgShape"></path><g fill="#2c2c2c" class="color000000 svgShape"><path fill="#444444" d="M1027.829,877.479c0,0-5.703,21.323-21.172,32.929c-5.682,4.298-12.503,7.33-20.929,7.564
						c-17.287,0.553-23.714-13.214-26.035-25.929c-1.936-10.437-0.935-20.215-0.935-20.215S990.462,885.895,1027.829,877.479z" class="color123a76 svgShape"></path><path fill="#ffffff" d="M1002.016,908.108c-4.523,3.857-9.983,6.531-16.787,6.616c-13.953,0.224-19.376-12.564-21.459-24.312
						C977.764,887.765,995.076,893.832,1002.016,908.108z" class="colorffffff svgShape"></path></g><path fill="#444444" d="M849.212 807.535l1.277 14.341-10.144-2.402 8.506 7.659c2.534 5.762.156 13.178.156 13.178C859.212 831.376 853.483 813.578 849.212 807.535zM1028.413 734.715c0 0-48.551 6.39-88.115-19.084-5.856 14.936-19.582 43.647-52.279 52.479 3.536 27.106-20.091 48.136-31.174 30.969-16.695-25.861-12.544-78.657 47.036-103.578C963.461 670.581 1023.384 698.39 1028.413 734.715z" class="color123a76 svgShape"></path><g fill="#2c2c2c" class="color000000 svgShape"><g fill="#2c2c2c" class="color000000 svgShape"><path fill="#444444" d="M910.762,771.276c2.458,4.016,16.956-0.384,27.031-6.551c10.073-6.171,11.91-11.771,9.45-15.789
							c-2.46-4.017-8.285-4.928-18.357,1.24C918.809,756.347,908.302,767.258,910.762,771.276z" class="color123a76 svgShape"></path></g><g fill="#2c2c2c" class="color000000 svgShape"><path fill="#444444" d="M1035.218,769.278c-2.161,4.182-16.939,0.841-27.432-4.583c-10.492-5.428-12.728-10.88-10.565-15.066
							c2.165-4.184,7.909-5.512,18.4-0.088C1026.115,754.968,1037.383,765.091,1035.218,769.278z" class="color123a76 svgShape"></path></g><g fill="#2c2c2c" class="color000000 svgShape"><path fill="#ff5c40" d="M929.988,819.693c-0.532,5.214,6.017,10.145,14.623,11.02
							c8.605,0.875,16.01-2.642,16.539-7.855c0.528-5.212-6.018-10.145-14.624-11.018
							C937.924,810.967,930.519,814.482,929.988,819.693z" opacity=".5" class="colord8776a svgShape"></path></g><g fill="#2c2c2c" class="color000000 svgShape"><path fill="#ff5c40" d="M1012.832,822.121c-0.53,5.214,6.019,10.146,14.624,11.021
							c8.606,0.875,16.011-2.643,16.539-7.854c0.528-5.212-6.018-10.146-14.624-11.018
							C1020.768,813.395,1013.363,816.91,1012.832,822.121z" opacity=".5" class="colord8776a svgShape"></path></g></g><path fill="#444444" d="M988.036 850.056c.526.125 1.084.157 1.653.087 7.5-.953 10.426-4.513 11.56-7.335 2.104-5.236-.111-11.785-6.773-20.022-8.134-10.056-8.186-27.827-10.674-28.142-2.535-.321-3.202 20.422 7.488 33.639 5.122 6.334 1.731 10.122 1.352 11.066-.167.419-1.226 1.225-4.119 1.59-2.541.325-4.34 2.644-4.018 5.185C984.756 848.097 986.209 849.623 988.036 850.056zM1013.151 804.64c1.038 8.083 6.46 14.048 12.109 13.323 5.649-.726 9.386-7.867 8.348-15.951-1.038-8.084-6.459-14.049-12.109-13.323C1015.85 789.415 1012.113 796.556 1013.151 804.64zM935.341 801.409c1.038 8.083 6.46 14.049 12.109 13.323 5.649-.726 9.386-7.867 8.348-15.951-1.038-8.084-6.459-14.049-12.108-13.323C938.04 786.184 934.302 793.326 935.341 801.409z" class="color123a76 svgShape"></path></g></g><path fill="#fed2ca" d="M913.66 807.235c.629 21.63 16.581 39.153 35.701 39.089 19.21-.064 34.141-17.689 33.513-39.319-.629-21.63-16.581-39.153-35.792-39.089C927.963 767.979 913.031 785.605 913.66 807.235zM922.208 807.206c-.474-16.313 10.817-29.51 25.156-29.558 14.431-.048 26.487 13.071 26.961 29.384.475 16.313-10.814 29.6-25.245 29.648C934.741 836.729 922.682 823.52 922.208 807.206zM987.217 800.211c.629 21.63 16.581 39.153 35.7 39.089 19.211-.064 34.142-17.689 33.513-39.319s-16.581-39.153-35.792-39.089C1001.52 760.955 986.589 778.581 987.217 800.211zM995.766 800.182c-.474-16.313 10.817-29.51 25.156-29.558 14.431-.048 26.487 13.071 26.96 29.384.474 16.313-10.814 29.6-25.245 29.648C1008.298 829.705 996.24 816.495 995.766 800.182z" class="colorfef0ca svgShape"></path></g><path fill="#636363" d="M996.848,1004.322c0,0-16.179,107.803-90.959,103.557c-18.698-1.062-65.69-0.626-80.434-103.557
		c0,0-14.268,0.588-15.865,5.271c-6.673,19.557,24.976,130.106,94.428,130.106s117.806-71.829,108.064-131.689
		C1012.081,1008.01,1000.238,1000.717,996.848,1004.322z" class="color235da3 svgShape"></path><g fill="#2c2c2c" class="color000000 svgShape"><path fill="#fed2ca" d="M814.069,1313.658c36.188,4.616,380.554,7.128,700.954,6.1c320.145-3.521,706.217,0.041,724.404,1.988
			c38.238,5.817,39.138,193.733,30.421,217.881c0.323,5.976-369.824,201.444-772.04,190.496
			c-402.728,19.26-738.794-174.175-737.909-188.128C751.386,1502.879,743.484,1307.976,814.069,1313.658z" class="colorfef0ca svgShape"></path><path fill="#fc8a77" d="M2161.983 1517.743c-2.95-14.61-110.623 69.263-100.298 72.244C2072.01 1592.966 2165.594 1535.626 2161.983 1517.743zM2119.729 1401.541c9.402-12.67-97.917-5.101-82.184.015C2053.278 1406.672 2110.388 1414.13 2119.729 1401.541zM861.01 1453.211c2.95-14.61 110.623 69.263 100.298 72.243C950.983 1528.434 857.399 1471.094 861.01 1453.211zM909.192 1374.597c-9.402-12.67 85.548 24.87 69.815 29.986S918.533 1387.187 909.192 1374.597z" class="colorfcd777 svgShape"></path><path fill="#fa4323" d="M1239.138,1525.727c181.019,106.234,449.79,136.687,381.611,115.614
			c-68.179-21.073-155.577-62.905-114.248-56.236c41.329,6.669,145.878,16.135,92.791-2.081
			c-53.088-18.216-133.747-58.398-92.42-49.117c41.326,9.281,298.334,73.172,331.656,46.589
			c27.293-21.773-380.093-298.174-376.235-165.69c1.036,35.591-108.043-17.745-85.668-2.278
			c22.374,15.467,83.255,35.403,33.854,36.195c-49.402,0.792-290.242-63.92-226.383-37.186
			c63.859,26.733,130.006,52.499,110.491,57.723s-77.267-8-54.065,6.079c23.203,14.078,53.244,10.036,48.392,23.895
			C1284.062,1513.093,1199.009,1502.177,1239.138,1525.727z" opacity=".2" class="colorfabd23 svgShape"></path><path fill="#fa4323" d="M2239.452,1321.758c-18.224-1.967-404.273-5.507-724.441-1.967
			c-320.364,0.983-664.786-1.508-700.972-6.162c-70.536-5.638-62.67,189.255-54.148,228.391
			c-0.852,13.897,335.18,207.348,737.945,188.075c402.176,10.948,772.361-184.47,772.033-190.501
			C2278.588,1515.471,2277.671,1327.592,2239.452,1321.758z M1487.872,1688.469c-311.826-2.956-697.356-80.934-685.108-163.034
			c7.513-50.359,43.91-1.079,92.169,6.687c51.132,8.228-94.398-88.367-35.399-92.825c58.999-4.523,151.607,25.092,100.298-0.024
			c-77.355-37.864-75.781-101.979-43.594-97.98c264.839,32.974,1186.008-16.782,1204.823,0
			c18.748,16.782-60.901,34.154-29.893,38.021c30.941,3.802,63.653,5.769,53.164,32.843
			c-10.423,27.008-159.362,46.478-116.621,48.576c42.741,2.032,134.256-30.089,125.34,0
			c-8.784,30.089-242.354,84.368-170.572,88.957c71.782,4.523,172.408-72.634,199.547-43.659
			C2203.659,1529.237,2089.374,1694.17,1487.872,1688.469z" opacity=".2" class="colorfabd23 svgShape"></path><g fill="#2c2c2c" class="color000000 svgShape"><path fill="#fc8a77" d="M1069.628 1392.828c-5.033 14.01-9.161 27.228-12.358 39.748-3.221 12.579-5.966 24.768-8.225 36.612 5.316-8.136 10.635-16.673 15.927-25.616 5.285-8.913 10.544-18.302 15.824-28.16 1.482 11.773 3.126 22.885 4.94 33.306 1.826 10.46 4.043 20.658 6.696 30.594.631-3.668 1.261-7.332 1.889-10.99 2.124-12.372 3.701-24.563 4.732-36.544 1.026-11.925 1.271-23.272.755-33.999.244.259 1.017.628 2.332 1.115 1.326.484 3.08.973 5.284 1.466 2.196.496 4.766 1.004 7.706 1.529 2.928.524 6.163.954 9.695 1.289 5.4.513 11.292.703 17.674.546 6.38-.157 12.862-.894 19.44-2.237-2.054 3.433-4.213 8.1-6.504 13.995-2.296 5.908-4.652 12.652-7.029 20.237-2.392 7.61-4.796 15.924-7.168 24.957-2.395 9.066-4.696 18.471-6.929 28.219-2.235 9.787-4.338 19.719-6.296 29.812-1.965 10.134-3.707 20.073-5.219 29.838-.964 6.246-1.8 12.291-2.523 18.133-.716 5.855-1.308 11.513-1.769 16.968-7.104-3.02-13.443-5.438-19.047-7.256-5.594-1.816-10.537-3.23-14.828-4.225-2.758-.641-5.212-1.126-7.342-1.463-2.133-.329-3.941-.594-5.41-.776-1.716-.155-3.191-.257-4.475-.313.415-7.486.751-14.786 1.044-21.894.275-7.092.362-13.882.26-20.368-.113-6.466-.455-12.581-1.046-18.343-.584-5.745-1.558-11.07-2.942-15.969-2.564 4.802-4.926 9.792-7.098 14.974-2.174 5.196-4.226 10.738-6.133 16.642-1.913 5.915-3.681 12.234-5.318 18.967-1.632 6.755-3.164 13.997-4.614 21.747-6.944-3.244-13.204-5.89-18.793-7.942-5.591-2.051-10.403-3.654-14.474-4.791-2.777-.779-5.216-1.381-7.304-1.818-2.104-.433-3.86-.781-5.321-1.04-1.683-.243-3.067-.406-4.191-.491 2.172-8.28 4.225-17.016 6.132-26.202 1.779-8.555 3.404-17.277 4.882-26.151 1.468-8.85 2.752-17.605 3.828-26.26 1.072-8.628 1.954-17.039 2.623-25.231.672-8.168 1.097-15.818 1.289-22.96.18-7.124.079-13.656-.319-19.597-.392-5.927-1.079-11.035-2.055-15.333 1.862.806 4.104 1.552 6.697 2.234 2.189.632 4.852 1.27 8 1.907 3.141.641 6.694 1.198 10.689 1.675 4.953.591 10.489.91 16.656.935C1056.047 1394.324 1062.62 1393.846 1069.628 1392.828zM1263.719 1607.535c-3.808-1.423-7.737-2.661-11.774-3.714-4.031-1.051-8.292-2.033-12.785-2.944-4.498-.907-9.298-1.761-14.4-2.569-5.099-.802-10.643-1.67-16.59-2.611-2.824-.448-6.199-.943-10.107-1.493-3.909-.551-8.132-1.025-12.662-1.443-4.537-.414-9.212-.713-14.033-.906-4.815-.192-9.572-.191-14.215.002 2.164-3.638 4.257-8.353 6.247-14.149 2.001-5.778 3.834-11.966 5.508-18.554 1.67-6.574 3.185-13.297 4.563-20.166 1.365-6.848 2.557-13.228 3.564-19.141 1.013-5.899 1.82-11.009 2.437-15.327.609-4.313 1.028-7.279 1.246-8.898.05-.342.197-1.666.477-3.969.268-2.303.616-5.286 1.038-8.948.406-3.654.868-7.843 1.356-12.547.476-4.703.941-9.588 1.371-14.658.433-5.063.793-10.16 1.09-15.293.306-5.123.496-9.971.582-14.544.088-4.564.046-8.668-.125-12.313-.18-3.64-.569-6.557-1.175-8.765 6.641 1.674 13.23 3.029 19.767 4.053 6.534 1.023 12.912 1.752 19.099 2.177 7.587.521 14.719.734 21.393.642 6.673-.094 12.521-.35 17.539-.752 5.859-.44 11.212-1.055 16.046-1.839-1.952 20.298-3.922 40.75-5.899 61.356-3.677-5.079-7.262-9.015-10.767-11.843-3.505-2.821-6.644-4.949-9.408-6.386-3.247-1.654-6.341-2.677-9.298-3.092-3.529-.281-6.473.028-8.814.917-2.349.89-4.243 2.114-5.67 3.682-1.432 1.569-2.484 3.383-3.158 5.452-.667 2.07-1.134 4.18-1.381 6.333-.256 2.245-.258 4.512.015 6.808.277 2.3.882 4.417 1.807 6.348.936 1.934 2.238 3.581 3.931 4.938 1.698 1.357 3.796 2.165 6.301 2.409 2.073.203 4.041-.206 5.884-1.225 1.855-1.018 3.469-2.216 4.833-3.598 1.617-1.533 3.136-3.346 4.58-5.43-1.877 17.892-3.758 35.901-5.665 54.029-.811-3.524-1.885-6.346-3.245-8.472-1.349-2.125-2.721-3.737-4.1-4.829-1.379-1.092-2.667-1.812-3.831-2.167-1.169-.35-1.969-.55-2.407-.599-4.71-.523-8.403.836-11.134 4.079-2.728 3.247-4.407 7.634-5.065 13.185-.479 4.063-.498 7.558-.062 10.491.438 2.942 1.19 5.385 2.272 7.333 1.067 1.952 2.43 3.441 4.058 4.473 1.638 1.032 3.414 1.674 5.318 1.922 2.935.381 6.187-.022 9.737-1.22 3.562-1.201 7.035-2.97 10.43-5.311 3.396-2.34 6.578-5.105 9.516-8.3 2.94-3.188 5.352-6.511 7.239-9.962C1264.679 1555.675 1264.185 1581.458 1263.719 1607.535zM1393.27 1619.268c-2.626-.916-5.727-1.76-9.301-2.55-3.573-.791-7.313-1.452-11.197-1.994-3.892-.542-7.734-1.019-11.552-1.438-3.819-.414-7.254-.769-10.317-1.053-3.056-.281-5.571-.505-7.532-.665-1.963-.16-3.025-.249-3.18-.261-4.688-.294-9.756-.446-15.235-.475-4.713.05-10.104.222-16.172.514-6.062.288-12.44.863-19.131 1.718 2.113-7.044 4.104-14.974 5.954-23.772 1.856-8.766 3.556-18.069 5.097-27.899 1.546-9.794 2.912-19.898 4.125-30.306 1.208-10.364 2.226-20.713 3.054-31.031.69-8.48 1.236-16.832 1.638-25.054.42-8.197.652-16.042.724-23.533.075-7.475.016-14.533-.186-21.179-.193-6.625-.594-12.674-1.19-18.14 7.116 1.994 13.615 3.378 19.477 4.148 5.868.775 11.083 1.247 15.626 1.419 2.868.109 5.421.134 7.672.084 2.242-.055 4.142-.142 5.693-.267 1.838-.204 3.422-.418 4.771-.642-1.925 6.354-3.792 13.255-5.59 20.701-1.807 7.469-3.446 15.161-4.906 23.081-1.469 7.943-2.73 15.934-3.796 23.979-1.059 8.073-1.828 15.81-2.305 23.217-.611 9.454-.663 17.607-.147 24.454.518 6.864 1.58 12.525 3.188 16.981 1.62 4.458 3.718 7.809 6.3 10.042 2.576 2.238 5.612 3.467 9.107 3.68 4.674.285 9.415-1.584 14.189-5.62 4.764-4.03 9.003-10.057 12.683-18.064C1391.601 1565.71 1392.417 1592.349 1393.27 1619.268zM1536.528 1469.356c.07 4.683-.495 9.455-1.728 14.317-1.228 4.871-3.03 9.296-5.404 13.271-2.384 3.985-5.307 7.255-8.772 9.815-3.465 2.557-7.441 3.857-11.871 3.891-3.93.029-7.295-.819-10.102-2.536-2.798-1.717-5.076-4.019-6.85-6.904-1.768-2.881-3.079-6.133-3.917-9.753-.842-3.615-1.255-7.362-1.235-11.243.02-3.872.422-7.627 1.2-11.26.768-3.628 1.951-6.865 3.526-9.707.419 1.927.981 3.417 1.691 4.468.717 1.058 1.472 1.816 2.249 2.27.853.55 1.776.873 2.787.962 2.29-.006 3.917-.792 4.873-2.359.966-1.562 1.445-3.352 1.436-5.371.003-.913-.151-1.851-.424-2.814-.292-.959-.748-1.847-1.34-2.669-.602-.822-1.411-1.503-2.4-2.049-1-.547-2.195-.817-3.623-.815-.787.001-1.89.143-3.353.418-1.462.276-3.078.983-4.861 2.123-1.781 1.146-3.605 2.858-5.477 5.141-1.872 2.285-3.585 5.398-5.167 9.341-1.578 3.95-2.879 8.871-3.918 14.767-1.042 5.917-1.62 13.142-1.721 21.695-.062 5.872.321 10.993 1.188 15.351.861 4.364 2.015 8.101 3.451 11.211 1.44 3.113 3.105 5.664 5.01 7.654 1.897 1.986 3.841 3.55 5.827 4.687 1.99 1.133 3.919 1.913 5.807 2.338 1.891.421 3.563.628 5.037.623 1.919-.007 4.34-.465 7.263-1.387 2.914-.917 5.804-2.569 8.664-4.962 2.854-2.387 5.432-5.665 7.709-9.836 2.271-4.163 3.812-9.527 4.617-16.083 2.61 4.543 4.625 9.985 6.063 16.333 1.442 6.371 2.229 13.09 2.321 20.17.144 9.663-1.093 19.08-3.705 28.248-2.625 9.195-6.451 17.417-11.488 24.625-5.06 7.23-11.243 13.054-18.546 17.414-7.308 4.371-15.49 6.548-24.499 6.481-6.635-.049-12.767-1.468-18.364-4.241-5.583-2.771-10.65-6.59-15.178-11.45-4.496-4.846-8.417-10.528-11.698-17.026-3.291-6.479-6.011-13.483-8.164-20.993-2.147-7.493-3.682-15.343-4.592-23.556-.914-8.181-1.22-16.436-.931-24.768.314-9.142 1.398-18.296 3.228-27.481 1.819-9.15 4.284-17.916 7.374-26.31 3.08-8.365 6.726-16.177 10.933-23.451 4.18-7.256 8.882-13.548 14.055-18.888 5.166-5.325 10.777-9.528 16.84-12.611 6.05-3.076 12.444-4.613 19.227-4.61 6.143.002 11.552.913 16.242 2.743 4.692 1.831 8.742 4.285 12.162 7.377 3.427 3.091 6.319 6.616 8.694 10.578 2.369 3.968 4.276 8.078 5.715 12.331 1.432 4.265 2.477 8.512 3.107 12.752C1536.128 1461.863 1536.476 1465.777 1536.528 1469.356zM1684.908 1515.913c1.061 13.798.791 26.926-.787 39.415-1.604 12.541-4.633 23.714-9.141 33.502-4.515 9.816-10.588 17.855-18.221 24.043-7.656 6.201-16.963 9.8-27.91 10.666-10.877.861-20.453-1.25-28.689-6.29-8.228-5.03-15.115-12.219-20.656-21.504-5.527-9.258-9.718-20.204-12.584-32.778-2.864-12.522-4.449-25.913-4.815-40.14-.262-10.439.253-20.486 1.512-30.152 1.257-9.622 3.105-18.589 5.512-26.89 2.397-8.277 5.351-15.81 8.801-22.608 3.454-6.783 7.277-12.581 11.501-17.412 4.205-4.822 8.712-8.585 13.521-11.311 4.812-2.721 9.826-4.154 15.058-4.315 8.787-.273 16.937 2.178 24.501 7.32 7.58 5.156 14.287 12.412 20.132 21.778 5.873 9.404 10.734 20.578 14.61 33.566C1681.138 1485.859 1683.704 1500.199 1684.908 1515.913zM1639.545 1507.338c-.393-6.85-1.188-13.136-2.384-18.868-1.19-5.716-2.65-10.643-4.352-14.779-1.704-4.13-3.604-7.344-5.735-9.648-2.133-2.3-4.294-3.406-6.496-3.312-2.141.091-4.112 1.602-5.889 4.532-1.788 2.938-3.309 6.705-4.574 11.319-1.267 4.617-2.196 9.785-2.811 15.499-.616 5.726-.808 11.403-.555 17.018.247 5.451.846 10.497 1.827 15.137.977 4.647 2.239 8.655 3.794 12.021 1.546 3.37 3.389 5.998 5.515 7.884 2.112 1.888 4.474 2.749 7.06 2.587 2.511-.156 4.749-1.303 6.755-3.438 1.99-2.134 3.599-4.96 4.848-8.479 1.237-3.514 2.132-7.623 2.66-12.325C1639.756 1517.792 1639.857 1512.744 1639.545 1507.338zM1781.829 1595.172c-1.287.028-2.867.107-4.747.222-1.59.075-3.532.248-5.8.514-2.279.269-4.842.623-7.679 1.059-5.527.846-12.052 2.143-19.627 3.872-7.566 1.729-15.964 4.129-25.196 7.2 2.176-21.12 3.109-41.434 2.869-61.03-.243-19.453-1.183-37.945-2.784-55.539-1.449-15.894-3.314-30.712-5.556-44.5-2.232-13.713-4.678-26.298-7.311-37.781 7.105 1.181 13.458 1.849 19.05 2.029 5.588.184 10.407.14 14.448-.118 2.785-.176 5.233-.422 7.343-.73 2.105-.308 3.844-.59 5.218-.855 1.652-.365 3.042-.709 4.199-1.042 4.194 16.379 9.034 32.558 14.503 48.486 5.498 16.025 11.926 32.027 19.302 47.91 2.512-17.321 4.024-34.318 4.589-51.06.558-16.645.209-33.38-1.023-50.272.37.721.739 1.441 1.11 2.16-.374-.72-.741-1.44-1.11-2.16 7.125.959 13.567 1.434 19.333 1.45 5.752.022 10.818-.166 15.19-.543 2.919-.252 5.474-.559 7.665-.914 2.196-.356 4.074-.682 5.649-.989 1.767-.4 3.293-.776 4.571-1.132-.262 8.075.032 17.622.895 28.655.86 11.075 2.239 22.963 4.111 35.645 1.339 9.062 2.943 18.391 4.802 27.973 1.858 9.624 3.965 19.188 6.31 28.685 2.353 9.53 4.951 18.881 7.829 28.032 2.882 9.179 6.001 17.837 9.357 25.953-1.484.157-3.194.362-5.125.606-1.707.202-3.701.502-5.985.906-2.284.402-4.92.923-7.933 1.555-5.725 1.202-12.424 2.886-20.107 5.036-7.696 2.151-16.048 4.963-25.079 8.445 1.291-4.749 2.109-10.649 2.449-17.696.335-7.028.397-14.418.184-22.178-.214-7.736-.616-15.388-1.192-22.966-.582-7.551-1.174-14.28-1.8-20.174-1.41 5.581-2.736 11.264-3.981 17.051-1.253 5.798-2.519 12-3.814 18.614-1.287 6.632-2.629 13.813-3.997 21.554-1.377 7.762-2.88 16.449-4.532 26.079-3.923-8.662-7.438-16.552-10.593-23.644-3.15-7.073-6.09-13.655-8.827-19.73-2.738-6.061-5.391-11.806-7.95-17.232-2.555-5.419-5.161-10.814-7.798-16.191 2.17 13.816 4.761 27.438 7.798 40.833C1774.113 1570.679 1777.693 1583.347 1781.829 1595.172zM2006.605 1545.437c-3.832.378-7.727.926-11.682 1.655-3.952.727-8.1 1.589-12.455 2.592-4.361 1.009-8.978 2.167-13.889 3.481-4.907 1.321-10.234 2.749-15.974 4.281-2.726.728-5.968 1.624-9.737 2.688-3.769 1.066-7.806 2.315-12.112 3.739-4.323 1.432-8.738 3.023-13.272 4.775-4.531 1.753-8.951 3.657-13.218 5.708.994-4.094 1.601-9.088 1.836-14.971.234-5.868.21-12.009-.073-18.431-.279-6.405-.745-12.87-1.39-19.405-.644-6.514-1.322-12.544-2.033-18.101-.702-5.547-1.382-10.325-2.019-14.345-.646-4.014-1.075-6.774-1.331-8.276-.052-.317-.276-1.541-.67-3.67-.384-2.129-.907-4.884-1.544-8.266-.641-3.373-1.402-7.237-2.262-11.576-.865-4.334-1.83-8.83-2.852-13.491-1.03-4.656-2.135-9.33-3.308-14.033-1.175-4.694-2.367-9.127-3.594-13.296-1.219-4.164-2.444-7.895-3.654-11.191-1.216-3.292-2.43-5.897-3.662-7.821 6.95.422 13.746.528 20.394.333 6.645-.194 13.041-.64 19.181-1.318 7.517-.831 14.504-1.855 20.962-3.044 6.458-1.193 12.061-2.372 16.834-3.523 5.57-1.32 10.615-2.686 15.104-4.087 3.407 16.548 6.825 33.197 10.27 49.95-4.808-3.162-9.261-5.508-13.365-7.013-4.093-1.503-7.663-2.56-10.7-3.143-3.552-.658-6.805-.85-9.751-.568-3.463.513-6.205 1.394-8.217 2.646-2.012 1.251-3.505 2.698-4.442 4.339-.947 1.643-1.461 3.417-1.539 5.325-.078 1.91.064 3.806.408 5.691.366 1.965.977 3.888 1.875 5.763.882 1.879 2.043 3.517 3.454 4.911 1.405 1.394 3.11 2.445 5.08 3.148 1.988.7 4.191.833 6.639.391 2.026-.365 3.788-1.208 5.262-2.512 1.479-1.306 2.707-2.692 3.636-4.161 1.116-1.651 2.088-3.505 2.914-5.547 2.949 14.99 5.913 30.062 8.899 45.219-1.679-2.587-3.436-4.542-5.274-5.863-1.83-1.322-3.547-2.233-5.134-2.723-1.605-.486-2.992-.707-4.184-.661-1.199.05-2.011.119-2.428.204-4.579.93-7.703 3.126-9.393 6.645-1.687 3.519-2.089 7.715-1.194 12.567.653 3.549 1.58 6.477 2.781 8.782 1.192 2.311 2.571 4.093 4.102 5.349 1.534 1.26 3.193 2.035 4.989 2.338 1.796.301 3.627.225 5.468-.215 2.833-.677 5.755-2.102 8.738-4.251 2.988-2.152 5.765-4.719 8.312-7.685 2.554-2.966 4.783-6.17 6.705-9.611 1.917-3.434 3.315-6.781 4.19-10.049C1994.345 1505.198 2000.453 1525.308 2006.605 1545.437z" class="colorfcd777 svgShape"></path></g></g><g fill="#2c2c2c" class="color000000 svgShape"><g fill="#2c2c2c" class="color000000 svgShape"><g fill="#2c2c2c" class="color000000 svgShape"><path fill="#eda69a" d="M691.308,1367.566c27.625-18.381,59.062-22.868,72.335-23.976
					c22.533-1.845,103.093,16.745,103.093,16.745s-0.616,11.324-3.175,15.178c-4.159,6.264-17.855,9.239-33.02,7.98
					c10.241,2.797,28.485,9.738,28.485,9.738s-4.089,12.684-7.711,15.603c-4.847,3.908-17.15,5.441-26.683,4.329
					c7.035,2.746,19.2,6.696,19.2,6.696s-6.179,13.751-10.204,16.1c-7.653,4.469-22.829,3.261-35.868,1.427
					c9.233,2.647,23.85,10.819,23.85,10.819s-7.966,11.153-11.565,13.378c-13.986,8.651-63.622,0.238-63.622,0.238
					c-6.213,14.308-24.239,44.176-55.973,44.164c-5.153-0.002-48.258-89.765-48.258-89.765S670.657,1381.244,691.308,1367.566z" class="coloreda49a svgShape"></path><path fill="#ff5c40" d="M774.985 1375.577c.023.456 3.162.616 8.188 1.122 5.029.516 11.955 1.364 19.584 2.599 15.262 2.439 27.577 5.002 27.785 4.197.213-.783-11.876-4.665-27.319-7.134-7.712-1.248-14.807-1.78-19.949-1.762C778.123 1374.625 774.961 1375.213 774.985 1375.577zM771.869 1404.506c-.016.432 2.941.91 7.695 1.694 5.215.895 11.56 1.983 18.574 3.187 14.509 2.547 26.31 4.589 26.495 3.778.184-.791-11.376-4.142-25.982-6.708-7.3-1.286-13.983-2.091-18.856-2.348C774.917 1403.853 771.882 1404.117 771.869 1404.506zM771.869 1432.989c-.155.807 6.635 2.791 15.166 4.432 8.531 1.641 15.572 2.319 15.728 1.512.155-.807-6.635-2.791-15.166-4.432C779.066 1432.859 772.025 1432.182 771.869 1432.989z" class="colord8776a svgShape"></path></g><path fill="#eda69a" d="M667.521,1394.625c0,0-144.394,133.575-157.96,149.312c-13.565,15.736-27.589,126.189-6.333,136.755
				c21.255,10.567,90.44,5.14,117.571-12.495c27.131-17.635,100.746-185.938,100.746-185.938L667.521,1394.625z" class="coloreda49a svgShape"></path></g><path fill="#ff5c40" d="M691.34,1367.157c0,0-126.64,158.928-137.832,158.295C542.316,1524.82,669.635,1374.098,691.34,1367.157z" class="colord8776a svgShape"></path></g><g fill="#2c2c2c" class="color000000 svgShape"><g fill="#2c2c2c" class="color000000 svgShape"><g fill="#2c2c2c" class="color000000 svgShape"><path fill="#eda69a" d="M2337.512,1367.566c-27.625-18.381-59.062-22.868-72.334-23.976
					c-22.534-1.845-103.094,16.745-103.094,16.745s0.616,11.324,3.175,15.178c4.159,6.264,17.855,9.239,33.02,7.98
					c-10.241,2.797-28.485,9.738-28.485,9.738s4.089,12.684,7.71,15.603c4.847,3.908,17.15,5.441,26.683,4.329
					c-7.035,2.746-19.199,6.696-19.199,6.696s6.179,13.751,10.204,16.1c7.653,4.469,22.829,3.261,35.868,1.427
					c-9.233,2.647-23.85,10.819-23.85,10.819s7.966,11.153,11.565,13.378c13.986,8.651,63.622,0.238,63.622,0.238
					c6.213,14.308,24.24,44.176,55.973,44.164c5.153-0.002,48.258-89.765,48.258-89.765S2358.164,1381.244,2337.512,1367.566z" class="coloreda49a svgShape"></path><path fill="#ff5c40" d="M2253.836 1375.577c-.023.456-3.162.616-8.188 1.122-5.029.516-11.955 1.364-19.584 2.599-15.262 2.439-27.577 5.002-27.785 4.197-.213-.783 11.876-4.665 27.319-7.134 7.712-1.248 14.807-1.78 19.949-1.762C2250.698 1374.625 2253.86 1375.213 2253.836 1375.577zM2256.951 1404.506c.016.432-2.941.91-7.695 1.694-5.215.895-11.56 1.983-18.574 3.187-14.509 2.547-26.31 4.589-26.495 3.778-.183-.791 11.375-4.142 25.982-6.708 7.3-1.286 13.983-2.091 18.857-2.348C2253.904 1403.853 2256.939 1404.117 2256.951 1404.506zM2256.951 1432.989c.156.807-6.635 2.791-15.166 4.432-8.531 1.641-15.572 2.319-15.728 1.512-.155-.807 6.635-2.791 15.166-4.432S2256.796 1432.182 2256.951 1432.989z" class="colord8776a svgShape"></path></g><path fill="#eda69a" d="M2361.3,1394.625c0,0,144.394,133.575,157.96,149.312c13.566,15.736,27.589,126.189,6.333,136.755
				c-21.255,10.567-90.44,5.14-117.571-12.495c-27.131-17.635-100.746-185.938-100.746-185.938L2361.3,1394.625z" class="coloreda49a svgShape"></path></g><path fill="#ff5c40" d="M2337.481,1367.157c0,0,126.64,158.928,137.832,158.295
			C2486.505,1524.82,2359.186,1374.098,2337.481,1367.157z" class="colord8776a svgShape"></path></g></g><g fill="#2c2c2c" class="color000000 svgShape"><g fill="#2c2c2c" class="color000000 svgShape"><path fill="#fed2ca" d="M2387.967,2204.151c0,0-57.642-131.235,126.678-200.67
			C2514.645,2003.481,2557.543,2188.398,2387.967,2204.151z" class="colorfef0ca svgShape"></path><g fill="#2c2c2c" class="color000000 svgShape"><g opacity=".52" fill="#2c2c2c" class="color000000 svgShape"><path fill="#fa4323" d="M2510.51,2013.25l-27.603,51.499c-9.272,17.102-18.568,34.175-28.281,50.994
					c-4.808,8.435-9.714,16.814-14.796,25.075c-5.017,8.303-10.225,16.484-15.616,24.532c-5.44,8.009-11.033,15.923-17.177,23.389
					c-6.092,7.492-12.753,14.623-21.02,19.838c4.391-2.093,8.621-4.725,12.321-7.952c3.819-3.097,7.349-6.527,10.767-10.054
					c6.738-7.145,12.888-14.809,18.702-22.688c11.63-15.774,21.922-32.433,31.7-49.337c9.671-16.973,18.798-34.237,27.297-51.799
					C2495.368,2049.218,2503.314,2031.385,2510.51,2013.25z" class="colorfabd23 svgShape"></path></g></g></g><g fill="#2c2c2c" class="color000000 svgShape"><path fill="#fed2ca" d="M1893.495,2515.544c0,0-193.303-16.801-156.022-280.811
			C1737.473,2234.734,1984.952,2303.918,1893.495,2515.544z" class="colorfef0ca svgShape"></path><g fill="#2c2c2c" class="color000000 svgShape"><g opacity=".52" fill="#2c2c2c" class="color000000 svgShape"><path fill="#fa4323" d="M1746.388,2245.99l43.229,66.238c14.287,22.123,28.524,44.254,42.189,66.716
					c6.894,11.189,13.658,22.46,20.167,33.861c6.601,11.353,12.934,22.852,18.99,34.484c5.977,11.663,11.743,23.448,16.617,35.594
					c4.94,12.102,9.082,24.646,9.905,37.851c0.367-6.574-0.012-13.308-1.439-19.799c-1.197-6.548-2.977-12.968-4.945-19.318
					c-4.108-12.645-9.214-24.927-14.794-36.951c-11.178-24.061-24.276-47.105-38-69.7c-13.875-22.513-28.447-44.566-43.783-66.07
					C1779.266,2287.339,1763.251,2266.317,1746.388,2245.99z" class="colorfabd23 svgShape"></path></g></g></g><path fill="#fc8a77" d="M2554.744,2271.561c8.159,29.329-53.644,53.965-53.644,53.965
		C2502.883,2295.002,2546.585,2242.232,2554.744,2271.561z" class="colorfcd777 svgShape"></path><path fill="#fed2ca" d="M1291.074,2279.868c11.045,39.702-72.618,73.05-72.618,73.05
		C1220.87,2311.6,1280.031,2240.165,1291.074,2279.868z" class="colorfef0ca svgShape"></path><g fill="#2c2c2c" class="color000000 svgShape"><path fill="#fc8a77" d="M1230.879,2511.859c0,0-50.41-70.119,49.516-134.126
			C1280.394,2377.733,1328.838,2481.332,1230.879,2511.859z" class="colorfcd777 svgShape"></path><g fill="#2c2c2c" class="color000000 svgShape"><g opacity=".52" fill="#2c2c2c" class="color000000 svgShape"><path fill="#fa4323" d="M1279.182,2384.007l-9.814,33.806c-3.326,11.238-6.664,22.465-10.28,33.595
					c-1.778,5.571-3.619,11.125-5.579,16.63c-1.917,5.52-3.96,10.994-6.129,16.411c-2.203,5.404-4.508,10.768-7.193,15.938
					c-2.652,5.176-5.684,10.213-9.902,14.324c2.324-1.786,4.49-3.868,6.263-6.231c1.866-2.303,3.516-4.767,5.086-7.273
					c3.079-5.057,5.741-10.341,8.18-15.714c4.88-10.753,8.856-21.86,12.502-33.046c3.575-11.212,6.79-22.53,9.599-33.945
					C1274.764,2407.099,1277.21,2395.594,1279.182,2384.007z" class="colorfabd23 svgShape"></path></g></g></g><path fill="#fa4323" d="M619.286 2422.396c-16.859-3.85 13.344 56.994 17.492 65.216-10.586-7.925-25.123-18.896-41.642-31.6.514-13.676 1.569-67.905-14.164-66.081-15.014 1.741 4.769 48.688 11.748 64.222-13.008-10.019-27.175-21.072-41.602-32.545.646-6.928 5.191-60.307-8.38-57.931-13.32 2.334 4.77 49.718 7.836 57.499-11.805-9.392-23.749-19.048-35.39-28.675 1.943-10.387 9.999-57.894-4.545-61.365-14.181-3.387-.618 46.934 3.202 60.251-11.83-9.8-23.289-19.53-33.875-28.861.139-.709 10.304-52.655-3.544-54.46-13.662-1.78 2.83 52.243 3.499 54.42-8.882-7.831-17.109-15.355-24.438-22.407 1.482-6.449 12.629-56.796-.852-55.236-13.221 1.529-1.605 47.296.387 54.785-1.634-1.575-3.261-3.147-4.796-4.671.361-.062.557-.098.557-.098s-.352-.094-.885-.233c-7.077-7.036-13.005-13.448-17.557-19.079-4.825-12.459-24.981-60.99-43.108-52.519-16.907 7.902 23.018 39.657 38.43 51.179l-.05.037c4.157 5.508 9.967 11.958 16.91 19.026-14.7-3.596-50.166-11.382-46.487-1.741 3.811 9.991 37.092 5.785 48.713 3.992 7.707 7.718 16.729 16.142 26.654 25.001-13.683-4.1-44.494-12.039-47.93-1.489-3.766 11.562 38.203 6.043 50.896 4.124 11.177 9.897 23.35 20.252 35.946 30.686-11.406-3.409-59.267-16.796-62.701-2.415-3.59 15.037 54.619 5.082 63.894 3.405 11.14 9.212 22.556 18.442 33.843 27.438-17.68-4.432-77.373-18.219-77.919-2.432-.569 16.531 65.793 6.509 80.091 4.159 15.609 12.417 30.915 24.34 44.775 34.994-8.514-1.458-98.905-16.623-98.146-3.01.768 13.728 91.346 3.964 98.374 3.185 16.979 13.049 31.725 24.166 42.206 32.001-10.562-1.027-97.85-8.994-99.274 8.306-1.443 17.575 91.202-5.853 99.649-8.026 9.779 7.309 15.8 11.734 16.125 11.972l1.707-2.322c-.343-.251-6.944-5.099-17.683-13.135C637.214 2482.131 636.412 2426.306 619.286 2422.396zM693.826 2366.316c0 0-42.415-167.793-120.834-156.776C494.571 2220.562 615.72 2351.293 693.826 2366.316z" class="colorfabd23 svgShape"></path><g fill="#2c2c2c" class="color000000 svgShape"><path fill="#fc8a77" d="M2343.821,2365.379c0,0-15.877-87.706,105.639-103.034
			C2449.459,2262.345,2448.654,2380.382,2343.821,2365.379z" class="colorfcd777 svgShape"></path><g fill="#2c2c2c" class="color000000 svgShape"><g opacity=".52" fill="#2c2c2c" class="color000000 svgShape"><path fill="#fa4323" d="M2445.546,2267.655l-24.143,27.15c-8.082,9.003-16.173,17.984-24.481,26.75
					c-4.128,4.405-8.307,8.764-12.576,13.024c-4.234,4.296-8.568,8.491-12.992,12.577c-4.449,4.059-8.977,8.035-13.772,11.662
					c-4.767,3.65-9.828,6.998-15.581,8.957c2.958-0.632,5.897-1.61,8.603-3.027c2.757-1.321,5.388-2.885,7.965-4.523
					c5.109-3.347,9.936-7.091,14.592-11.016c9.315-7.858,17.948-16.444,26.31-25.252c8.304-8.866,16.32-17.986,24.001-27.378
					C2431.185,2287.215,2438.57,2277.58,2445.546,2267.655z" class="colorfabd23 svgShape"></path></g></g></g></g><path fill="#fed2ca" d="M401.463,2528.107c69.587-0.842,2162.345-38.979,2201.324,0c38.98,38.98,43.953,78.144,0,96.365
	c-43.953,18.221-2201.324,31.043-2223.301-8.333C357.51,2576.764,361.037,2528.596,401.463,2528.107z" class="colorfef0ca svgShape"></path><g fill="#2c2c2c" class="color000000 svgShape"><path fill="#fed2ca" d="M1181.399,414.304l57.97,24.54c20.224,7.733,40.425,14.643,60.492,20.805l-0.101-0.336l49.99,14.264
		c59.177,14.896,116.274,23.723,168.2,28.634c123.361,11.667,233.499,3.41,305.381-5.819l9.77,5.232
		c-15.084,2.044-31.839,4.08-50.519,5.91c-22.671,2.222-47.791,4.124-74.814,5.369c0,0-28.283,122.051-52.932,122.657
		c-25.914,0.637-77.903-122.681-77.903-122.681c-3.969-0.19-54.797,114.367-78.998,113.272
		c-35.3-1.597-60.375-127.796-60.375-127.796c-3.817-0.626-68.11,107.11-95.542,101.695c-34.04-6.719-39.913-132.924-39.913-132.924
		c-8.26-2.495-87.685,92.604-118.609,82.444c-26.198-8.607-18.57-108.727-18.57-108.727l-0.001-0.001l-5.067-29.677
		c-28.064-13.898-55.873-29.65-83.154-47.347l3.082-5.755C1113.03,379.664,1147.077,398.324,1181.399,414.304z" class="colorfef0ca svgShape"></path><g fill="#2c2c2c" class="color000000 svgShape"><g fill="#2c2c2c" class="color000000 svgShape"><path fill="#fed2ca" d="M709.12,519.963c8.026-15.017,17.705-29.546,31.09-36.925c1.602-0.882,6.815-2.851,0.639-0.721
				c-6.212,2.139-1.255,0.526,0.349,0.247c2.098-0.367,4.255-0.521,6.442-0.444c6.118,0.209,12.402,2.257,18.458,5.735
				c12.686,7.283,23.54,19.907,35.498,29.37c12.826,10.15,24.439,12.646,36.828,8.418c7.449-2.541,14.312-5.39,20.15-11.473
				c6.666-6.952,11.64-16.179,15.848-25.939c-1.248,2.897-8.519,0.42-9.811,3.417c-3.686,8.558-7.949,16.666-13.443,23.24
				c-2.924,3.502-6.186,6.557-9.832,8.851c-0.732,0.458-1.47,0.9-2.232,1.293c3.219-1.666,1.05-0.38-0.094-0.452
				c-1.927-0.122-3.784,0.157-5.739-0.082c-13.092-1.597-24.972-13.047-36.28-23.424c-11.795-10.822-24.176-21.015-37.669-22.252
				c-9.166-0.838-17.985,2.578-25.94,6.145c-14.914,6.686-25.482,22.344-34.069,38.413
				C700.844,520.51,707.543,522.916,709.12,519.963L709.12,519.963z" class="colorfef0ca svgShape"></path></g><g fill="#2c2c2c" class="color000000 svgShape"><path fill="#fed2ca" d="M1992.134,442.739c-12.229,11.848-25.883,22.727-40.882,25.665c-1.795,0.351-7.36,0.634-0.829,0.492
				c6.569-0.14,1.355-0.117-0.256-0.342c-2.11-0.291-4.211-0.803-6.27-1.545c-5.762-2.067-11.119-5.937-15.826-11.099
				c-9.855-10.81-16.334-26.145-24.831-38.808c-9.113-13.582-19.409-19.506-32.497-19.264c-7.869,0.145-15.274,0.762-22.692,4.771
				c-8.47,4.584-16.026,11.851-23.013,19.859c2.073-2.377,8.241,2.202,10.386-0.258c6.123-7.023,12.66-13.442,19.898-18.024
				c3.855-2.441,7.893-4.354,12.065-5.424c0.837-0.213,1.676-0.408,2.521-0.55c-3.574,0.603-1.116,0.041-0.049,0.459
				c1.797,0.705,3.651,1.007,5.44,1.831c11.979,5.519,19.793,20.05,27.393,33.386c7.926,13.908,16.602,27.395,29.073,32.693
				c8.472,3.598,17.913,3.039,26.577,2.072c16.244-1.812,31.089-13.494,44.174-26.172
				C2000.182,444.746,1994.538,440.409,1992.134,442.739L1992.134,442.739z" class="colorfef0ca svgShape"></path></g><g fill="#2c2c2c" class="color000000 svgShape"><path fill="#888888" d="M2269.544,604.71c16.998,0.983,34.248,3.67,46.563,12.722c1.473,1.084,5.448,4.989,0.923,0.278
				c-4.548-4.741-1.004-0.918-0.077,0.42c1.213,1.751,2.258,3.643,3.106,5.661c2.378,5.64,3.156,12.204,2.541,19.161
				c-1.286,14.571-8.189,29.721-11.76,44.546c-3.83,15.901-1.221,27.491,7.816,36.961c5.433,5.695,10.899,10.729,18.871,13.475
				c9.107,3.132,19.571,3.775,30.195,3.498c-3.153,0.083-3.957-7.556-7.219-7.471c-9.315,0.247-18.464-0.22-26.736-2.448
				c-4.406-1.185-8.547-2.863-12.16-5.21c-0.723-0.472-1.434-0.957-2.111-1.483c2.863,2.222,0.786,0.794,0.371-0.275
				c-0.698-1.799-1.729-3.369-2.334-5.244c-4.045-12.554,1.362-28.141,6.034-42.762c4.873-15.248,8.928-30.763,4.388-43.529
				c-3.086-8.672-9.888-15.243-16.464-20.966c-12.328-10.731-30.976-13.751-49.164-14.802
				C2265.574,597.428,2266.202,604.518,2269.544,604.71L2269.544,604.71z" class="color1c8ef4 svgShape"></path></g><g fill="#2c2c2c" class="color000000 svgShape"><path fill="#fa4323" d="M2234.771,1732.75c3.042,16.753,4.487,34.151-1.417,48.25c-0.707,1.686-3.568,6.468-0.052,0.962
				c3.538-5.535,0.656-1.191-0.427,0.023c-1.416,1.591-3.01,3.052-4.772,4.351c-4.923,3.638-11.119,5.937-18.027,6.976
				c-14.465,2.176-30.812-0.971-46.062-0.956c-16.356,0.016-27.007,5.277-34.087,16.288c-4.258,6.62-7.865,13.117-8.66,21.51
				c-0.903,9.589,0.932,19.91,3.7,30.171c-0.822-3.045,6.415-5.623,5.564-8.773c-2.429-8.996-4.127-17.998-3.907-26.562
				c0.115-4.561,0.773-8.981,2.205-13.044c0.288-0.814,0.593-1.619,0.945-2.401c-1.488,3.305-0.587,0.951,0.354,0.296
				c1.585-1.101,2.867-2.473,4.547-3.502c11.251-6.883,27.673-5.293,42.982-4.19c15.967,1.151,32,1.445,43.341-5.971
				c7.703-5.038,12.491-13.195,16.507-20.932c7.531-14.506,6.083-33.341,2.827-51.267
				C2240.915,1727.179,2234.171,1729.456,2234.771,1732.75L2234.771,1732.75z" class="colorfabd23 svgShape"></path></g><g fill="#2c2c2c" class="color000000 svgShape"><path fill="#fed2ca" d="M1619.42,1910.213c10.351,3.957,20.457,9.179,28.109,17.369c0.907,0.969,1.751,2.667,2.848,3.335
				c-0.784-1.068-1.569-2.138-2.353-3.206c0.562,0.876,1.095,1.77,1.599,2.681c0.882,1.587,1.68,3.222,2.403,4.886
				c1.895,4.362,3.497,9.065,4.327,13.755c1.5,8.504-0.317,17.641-4.023,25.363c-2.825,5.887-8.04,13.652-15.418,13.707
				c-3.599,0.028-7.094-1.784-9.819-4.014c-0.785-0.641-1.467-1.594-2.281-2.166c3.887,2.726,3.137,5.282,1.78,1.97
				c-0.839-2.051-1.207-4.285-0.747-6.475c1.662-7.889,11.728-12.792,19.2-12.183c4.407,0.36,8.468,2.558,11.742,5.436
				c0.57,0.501,1.12,1.031,1.651,1.575c0.264,0.279,0.528,0.56,0.79,0.839c2.164,2.62,1.91,2.183-0.763-1.308
				c1.172,2.831,3.038,5.408,4.211,8.285c3.493,8.575,4.848,17.666,2.005,26.65c-7.755,24.496-34.194,32.935-56.614,38.216
				c1.022-0.241,3.948,7.341,5.088,7.073c23.436-5.52,52.815-15.313,57.717-42.666c1.87-10.428-1.721-21.392-7.171-30.243
				c-4.681-7.599-10.702-16.977-19.534-20.014c-8.613-2.963-22.945,2.285-23.59,12.676c-0.26,4.166,2.159,7.541,4.451,10.76
				c2.583,3.631,5.046,7.384,8.828,9.89c8.583,5.688,16.274,1.041,21.247-6.754c5.595-8.764,8.287-20.361,6.129-30.619
				c-2.296-10.902-7.629-19.954-14.138-28.801c-8.283-11.258-19.849-18.152-32.762-23.088
				C1616.564,1903.992,1617.12,1909.335,1619.42,1910.213L1619.42,1910.213z" class="colorfef0ca svgShape"></path></g><g fill="#2c2c2c" class="color000000 svgShape"><path fill="#fed2ca" d="M1396.513,2273.679c-3.48,14.842-5.332,30.38-1.908,45.414c0.404,1.78,1.687,4.052,1.6,5.817
				c-0.612-1.718-1.224-3.436-1.836-5.154c0.564,1.316,1.171,2.614,1.819,3.889c1.127,2.229,2.373,4.399,3.71,6.508
				c3.506,5.523,7.627,10.977,12.327,15.54c8.527,8.27,20.335,13.251,31.988,14.988c8.885,1.324,21.752,1.377,27.507-6.983
				c2.809-4.077,3.443-9.455,3.006-14.28c-0.125-1.388-0.685-2.901-0.707-4.27c0.105,6.531,3.595,7.648,0.87,3.547
				c-1.688-2.538-3.948-4.681-6.798-5.847c-10.268-4.193-23.617,3.485-28.69,12.465c-2.991,5.297-3.621,11.617-2.869,17.567
				c0.132,1.036,0.31,2.071,0.518,3.095c0.115,0.516,0.231,1.033,0.346,1.547c1.314,4.486,1.013,3.859-0.901-1.879
				c2.32,3.52,3.815,7.634,6.186,11.189c7.071,10.595,16.377,19.152,28.803,22.848c33.88,10.068,63.892-13.53,87.204-34.988
				c-1.063,0.977,5.314,10.159,4.129,11.252c-24.369,22.431-58.191,48.333-93.124,32.809c-13.319-5.917-23.034-18.466-28.909-31.502
				c-5.042-11.194-11.077-25.287-7.722-37.688c3.271-12.095,20.307-24.369,32.638-17.085c4.945,2.918,6.922,8.276,8.82,13.371
				c2.142,5.742,4.515,11.445,4.451,17.685c-0.146,14.163-11.372,19.337-24.087,18.985c-14.298-0.39-29.582-6.273-39.598-16.645
				c-10.643-11.027-16.838-24.085-21.891-38.324c-6.43-18.12-5.357-36.609-1.014-55.124
				C1391.632,2265.627,1397.287,2270.382,1396.513,2273.679L1396.513,2273.679z" class="colorfef0ca svgShape"></path></g><g fill="#2c2c2c" class="color000000 svgShape"><path fill="#fed2ca" d="M616.202,897.167c-0.947,4.789-1.784,9.595-2.399,14.438c-0.446,3.509-0.663,7.01-0.996,10.531
				c-0.062,0.664-0.153,4.403-0.119,0.594c0.045-5.202,0.604,6.068,0.457,4.699c1.115,10.399,3.88,20.701,9.146,29.796
				c10.495,18.124,28.603,26.184,48.013,31.357c18.347,4.89,38.148,8.674,51.55,23.336c9.608,10.508,14.068,24.301,15.222,38.294
				c1.763,21.438-0.332,43.011-5.583,63.822c1.154-4.572-1.164-10.052,0-14.67c1.545-6.123,2.928-12.274,3.944-18.508
				c0.511-3.133,0.941-6.286,1.263-9.444c0.143-1.426,0.254-2.847,0.355-4.276c0.114-1.375,0.192-2.754,0.239-4.134
				c0.008,2.072,0.018,4.142,0.026,6.213c1.069-7.577-1.955-17.763-4.637-24.837c-5.697-15.033-17.319-26.023-32.088-32.161
				c-17.766-7.385-37.583-8.755-54.727-17.816c-19.154-10.121-29.749-29.062-32.47-50.134c-2.614-20.258-1.138-41.818,2.804-61.77
				C615.278,887.18,617.138,892.441,616.202,897.167L616.202,897.167z" class="colorfef0ca svgShape"></path></g><g fill="#2c2c2c" class="color000000 svgShape"><path fill="#fa4323" d="M1288.647,665.761c-10.243,23.467-36.546,41.922-67.986,47.704c-0.364,0.068-0.081,5.603-0.081,6.111
				c0,0.482,0.33,6.067,0.081,6.112c31.441-5.782,57.744-24.239,67.986-47.706c0.726-1.661,0.079-4.363,0.079-6.11
				c0-1.442,0-2.88-0.023-4.321C1288.695,667.062,1288.455,666.204,1288.647,665.761L1288.647,665.761z" class="colorfabd23 svgShape"></path></g><g fill="#2c2c2c" class="color000000 svgShape"><path fill="#fa4323" d="M1336.285,1695.508c-9.406,28.165-33.559,50.313-62.429,57.253c-0.334,0.08-0.075,6.724-0.075,7.334
				c0,0.578,0.303,7.281,0.075,7.336c28.87-6.94,53.023-29.091,62.429-57.256c0.667-1.994,0.073-5.235,0.073-7.334
				c0-1.729,0-3.457-0.021-5.186C1336.329,1697.07,1336.108,1696.04,1336.285,1695.508L1336.285,1695.508z" class="colorfabd23 svgShape"></path></g><g fill="#2c2c2c" class="color000000 svgShape"><path fill="#fa4323" d="M2439.616,1142.943c-9.405,28.165-33.559,50.313-62.429,57.252c-0.334,0.081-0.075,6.725-0.075,7.334
				c0,0.578,0.304,7.282,0.075,7.336c28.87-6.94,53.024-29.09,62.429-57.255c0.667-1.994,0.073-5.236,0.073-7.334
				c0-1.73,0-3.457-0.02-5.187C2439.661,1144.504,2439.44,1143.474,2439.616,1142.943L2439.616,1142.943z" class="colorfabd23 svgShape"></path></g><g fill="#2c2c2c" class="color000000 svgShape"><path fill="#fa4323" d="M1867.657,611.553c-29.581,2.59-59.518-10.743-77.379-34.463c-0.207-0.275-6.199,2.61-6.759,2.854
				c-0.528,0.229-6.556,3.176-6.698,2.989c17.864,23.719,47.799,37.053,77.382,34.463c2.095-0.185,4.831-2.02,6.756-2.856
				c1.584-0.688,3.172-1.377,4.748-2.083C1866.241,612.215,1867.097,611.6,1867.657,611.553L1867.657,611.553z" class="colorfabd23 svgShape"></path></g><g fill="#2c2c2c" class="color000000 svgShape"><path fill="#fed2ca" d="M533.359,2042.004c10.14,27.908,4.987,60.271-13.319,83.654c-0.21,0.27,4.123,5.313,4.502,5.79
				c0.36,0.454,4.761,5.516,4.618,5.7c18.303-23.38,23.455-55.746,13.316-83.654c-0.721-1.979-3.198-4.149-4.502-5.791
				c-1.076-1.353-2.153-2.707-3.242-4.051C534.365,2043.199,533.548,2042.531,533.359,2042.004L533.359,2042.004z" class="colorfef0ca svgShape"></path></g></g></g></svg>