<svg xmlns="http://www.w3.org/2000/svg" viewBox="0 0 1080 1080" id="Welcome"><path fill="#f9d2cb" d="M1038.64 929.44c0 11.83-98 22.73-255.81 28.45s-350.6 5.37-503.3-.92-241.24-17.53-231.16-29.35l494.74 1.82zM664.83 369.19a43.28 43.28 0 00-8.14.76l3 75.6L661 547.62c1.35-5.3 2.51-9.72 2.73-11.75.67-6.3 1.07-13.93 12.59-11.12.57.14 1.09.29 1.59.46 0-.06 0-.13.08-.19 1.32-2.75 4.06-5.08 7.18-5.12 4-.06 8.65 3.68 11.66 15.17l4.44 12.59h.21c-3-8.85-7.1-24.07-7.79-30.35-.95-8.52 5.48-3.88 8.23-1.42s20.46 6.82 25 8 8.53 5.4 8.53 5.4 4.92-5.69 7.76-8.81c2.59-2.85 24.48-11.9 28.57-13.57-.49-22.83-.37-72-.37-72S692.34 373 679.07 373c-5.07 0-9.66-3.79-14.24-3.79zM708.44 557a38.67 38.67 0 01-10.36 4s.13 22.1-.26 28.26 1 22.24-8.11 28.26c-6.42 4.23-12.13 1.33-15.24-6.87a5.08 5.08 0 01-4.36 1.52c-3.59-.56-6.47-4.32-8.73-9.4L660 727.58V880s-2.77 29.55 11.47 33.15a63.53 63.53 0 009.5 1.26c6.86-4 31.94-18.47 35.19-19.51 3.75-1.21 13.93-6.57 12.86-11.39a8.79 8.79 0 012.54-8s-12.72-6.43-17.41-12.73 2.57-36.78 2.57-36.78l40.58-112.4s9.35-32.54 15.12-53.24c.06-8.2.12-14.91.24-17.45.2-4.37.31-15.27.36-28.66-1.78-3.43-3.36-6.54-3.44-7-.19-1 .95-20.36.95-20.83s-3.79.66-8.52.57-7.86 1.7-9.47 4 2.18 8.8-5 7.8-15.27-10.14-20.54-19.52-4.83-17.89-7.39-18.75c-1.72-.52-7.12-1.85-11.17-3.52z" class="colorf9f1cb svgShape"></path><path fill="#9a3d2d" d="M315.49 286.45c.95-1 2.94-8-5.4-3s-12.88 13.35-24.52 14.3-17.05.75-16.67.57 1.8 7 9.56 8.23 9.76 2.56 9.66 4.45.48 29 .48 29 3.3 35.34 1 50.07-7.23 32.94-14.47 38.44-17-8.31-25.71-14.6-15.94 3.35-17.28 8.3-.13 20.22-6.83 21-17.41-12.32-15.67-23.71 13.53-23.84 18-34.28 7.23-12.19 6.56-25.45 6.16-26.52 10.45-31.47 14.33-22 14.6-26.52-6.83-7.37-7-9.78 6.16-18.21 16.61-31.61 18.48-21 26.38-19.68 22.5 2.94 22.9 2.94 4.69 14.19 11.25 13.4 17.42-5.09 20 2.27 3.35 9.38 8.84 11.92 4.69 18.62-.67 30.81-9 14.73 3.21 33.34 16.07 20.23 18.48 27.32 3.62 12.06 3.62 12.06-24.82 11.23-32.72 11.63-5.22-9.78-5.22-9.78-9.38-2-11.25-2a41.1 41.1 0 0 1-6-.93s14.06-7.64 14.06-19.56-.94-45.53-.94-45.53 5.36-7.78 3.62-13.94-.54-22.36-4.82-16.87-6.16 25.58-6.16 25.58l-9.91-5.76s-5.76 5.09-13.13 5.23-7.9.53-6.29-.94 11.41-15.44 11.41-15.44Z" class="color9a702d svgShape"></path><path fill="#fe6a51" d="M289.21 389.21s-8.17 42.46-18.88 48.08-28-5.89-30.27-7.89-11.65 45.67-15.4 56.64-13.26 29.87-14.06 33.08 1.47 15.94 1.47 15.94l-10.31-7s-6.83 10.18-2.41 17.14 19.42 13.53 27.59 12.59 9-7.77 9-12.31S243 519.8 243 519.8s12.72-40.18 14.47-45.94 7.23-6.69 5.62 6-9.91 34.28-8.57 40.71 18.21 14.6 29.46 17.81a82 82 0 0019.16 3.35s16.6-2.68 19.42-18.88 7.23-48.21 3.75-55-15.14-27.19-18.08-43.13 2.41-17.14 3.48-24.77 6.69-10.81-5.76-13.26-15.67-7-15.67-7zM324 383.59s19-3.88 18.89-.54-4.69 18.75 1.07 15.81.67-4.42 14.6-6.83 25.44-8.84 38.57-13.79 21.29-10.45 25.31-14.07 8.71-6.29 14.2 7.1 7 26.52 1.87 28.13-9.91-2.95-11.38-1.21-39.78 21.16-42.46 26.52-4.95 19.15-2.27 33.62 11.25 45.53 7.36 58.12-5.35 18.48-15.4 22.64-19.82-.54-19.82-.54S350 514.18 359 491s10.05-44.2.27-57.46S325 392.16 324 383.59z" class="colorfed251 svgShape"></path><path fill="#d18072" d="m355.45 583.05-20.87 12.68c2.71 9.21 6.31 21.76 6.67 25.21.42 4.08-12.43-12.34-19.46-23.92-8.55.47-19.58.77-26.08-.28-11.59-1.88-14.33-2.35-14.6-.4s-7 14.53-7.23 15.8-2.81-5.29-1.27-12.12 1.27-8.7 1.27-8.7-6.43 8.9-10.72 25.24-30.06 76.92-45.78 99.08-53.6 61.75-55.5 66.1 18.75 38.46 40.16 55.5 35.23 26 35.23 26 29.64 11.17 36.74 8.62 7.19 1.13 9.75-13.17 4.93-35.42 7.39-46.31 8.9-12.6 7.39-4.92-6.63 40.15-2.09 49.72 12.79 8.24 23.68 6.34 36.08-9.47 43.66-14.2 10.89-3.32 9.94-12.79.85-17.33-7.48-33.62-10.89-50.47-11.18-57.2-3.07-65.58-3.07-65.58l1.27-68.13Z" class="color72ccd1 svgShape"></path><path fill="#9a3d2d" d="M863.72 318.46c-5.3-4.36-11.36-10.7-11.46-17.81s6-2.93 9.94-10.41 4.83-16.95 13.26-21.78 16.67-4.36 18.66-3.42 6.15 12.79 14.87 11.65 22.82-4.73 31.91-.47 12.69 17.33 12.88 25.19a135.35 135.35 0 0 0 1.51 16.19c.1.57 2.37 2.94 7.39 2.84s2.85 7.48.57 11.56-4.35 13.26-4.73 19.79-20.52 20.46-20.65 21.59-.76 7.2-2.37 7.67-6.43-.85-7.48-3.22.57-15 1.42-17.9 1.71-8.14 8-8.52 12.41-10 9.75-14.11-2.74-6.72-7.19-4.64-9.28 10.52-12.69 11.84-8.43-.29-8-5a92.17 92.17 0 0 1 2.56-12.12s-13.07-6.73-16.19-14.11-4.74-12.69-9.85-11.46-5.59-4.64-12.79-2.94-24 4.36-24 4.36 7.48 5.39 7.48 8.71-2.8 6.52-2.8 6.52Z" class="color9a702d svgShape"></path><path fill="#ff5c40" d="M851.12 415.43s-62.69-10.61-79.93-17.23-18.94 10.22-18.94 10.22-.38-15.05-1.13-15.24-14.78-5.31-34.76-11.84S678.1 359 672 355.11s-7.39-1.8-8-1.61-13.64-1.61-19.32 9.38-5.39 20.64-.94 23.86 11.27 0 20.83 5.87 36.18 22.16 40.72 25.29 52.15 23.81 70.36 32.52 32.6 14.58 32.6 14.58l4.8-20.92s8.34 15-3.4 37.88-21 28.6-35 34.66a160.25 160.25 0 0 0-21.6 11l32.39 2.09s22.07-18 25.57-23.39 39.87-45.94 45.65-56.16 9.37-16.57 8.81-17.52-2.75-7.39-2.75-7.39-16.29 2.18-16.29 1.8 4.73-11.55 4.73-11.55Z" class="colorf37a81 svgShape"></path><path fill="#f9d2cb" d="M769.9 239.1c-12.76 9.09-94 53.6-94 53.6s-9 27.95-6.6 36.66 105.5 51.87 105.5 51.87 3.24-43.64 2.13-62.39-.74-84.1-7-79.74Z" class="colorf9f1cb svgShape"></path><path fill="#ff5c40" d="M894.57 434.15l.6 58.12s16.85-17.84 17.89-18.41 6.34 3.6-4.26 14.78-33.72 30.21-33 31.34 4.07 13.83 4.07 13.83l-16.19-7.67s2.46 2.08-35.14 6.34a558.49 558.49 0 01-67.54 3.61s-5.59 2.64-4.27 14.1 8.62 18.19 9 18.09 17.17-3.35 32-.94 69.11 5.76 74.33 5 35.36-20.09 37.9-21.84 13-9.24 13-9.24-.54 12.46-4.42 15.81S891 569.35 886 577.92s-19.68 35.36-20.22 40.85 20.76 18.89 40.45 20.63 30.8-5.5 34.95-11.65 3.75-25.85 1.54-28.73-23.5-21-23.5-30.4 2.34-25.18 6.23-30.07 31.34-29 32.47-34.42 16.7-21.83 4.2-42.67S931 415.53 931 415.53s-28.31 28.79-28.31 28.41-.76-11.74-.76-11.74zM732.38 561.58c-2.55 1.61 0 12.73 3.75 21.7s11.39 15.53 11.39 15.53l12.59-24.51a12.48 12.48 0 01-8.64-7.36c-2.41-6.16-1.41-6.5-2.88-6.5s-16.21 1.14-16.21 1.14z" class="colorf37a81 svgShape"></path><path fill="#dab1aa" d="M859.55 607.39c-8.52 2.27-15.34 13.45-39.11 13.92s-26.52-2.18-28.79-.57-14 43.85-19.51 66.58-19.79 66.95-27.14 85.61-17.42 53.7-22.16 65.72-5 20.27.86 24.06 26.23 9.75 31.15 10.6 20.46 3.32 20.46 3.32 7.57-1.9 8.52-6.91 22.59-99.06 26.38-105.72S836 709.86 836 709.86s-5.2-36.18-5.87-41.57-2.56-16.58-.94-18.76 7.57 11.46 10.7 31.73 21.5 101.3 23.1 112 8.71 29.46 8.31 50.35 5.09 27.46 25.05 28.4 37.5-7.5 37.36-14.47-20.49-76.2-20.76-79-6-52.63-7.1-64.28-3.75-33.48-3.75-33.48l-1.34-33.49s-32-11.38-39.64-19.95-4.82-12.44-1.54-20Z" class="coloraac3da svgShape"></path><path fill="#f9d2cb" d="M531.79 334.37c-4.69 0-10.42.75-14.59 3.78-10.41 8.53-73.1 49.63-73.1 49.63s-.67 14.2-6.25 14.11-10.9-4.07-13.07-2.27-9.47 6.91-9.47 6.91.18 99.43-.76 110.42-1.33 110-.57 126 0 164 .19 176.9-1.7 67.43 6.25 81.82 90 15.15 104.55 11.55S536.71 880 536.71 880V727.57l-1.51-136.19 1.89-145.84 3-110.42a45.25 45.25 0 00-8.33-.76zM511 519.89c3.2 0 6 2.37 7.36 5.13 3.08 6.29 4.28 33.35 4.28 33.35s2.55 21.43 1.74 39.1-8.7 26.12-18.08 20.09-7.9-22.1-8.3-28.26-.27-28.26-.27-28.26-10.05-2.14-14.2-7 11-6.43 11-6.43l4.56-12.59c3.08-11.49 7.82-15.22 11.93-15.17zM424.21 239.1c13.07 9.09 96.21 53.6 96.21 53.6s2.09-1.52-.38 7.19-12.59 16.58-12.59 16.58l-73 27.18s-1.9-5.12-7-5.12a15.34 15.34 0 00-8.24 2.18s-3.32-3.12-2.18-21.87.76-84.1 7.2-79.74zM777.11 879.06c-.26 4.15 2 27.86-1.94 34.75a47.22 47.22 0 01-9.44 11.85c-.46.27-11.65.07-11.65-.33s.27-15.6.54-16.27 8.84-19.62 9.17-21.1 1.94-7.63 3.15-8.37 10.18-.53 10.17-.53z" class="colorf9f1cb svgShape"></path><path fill="#e8aba1" d="M315.27 334.94a7.55 7.55 0 01-7.55 7.54 7.55 7.55 0 117.55-7.54zM909.24 357.29a7.55 7.55 0 01-7.55 7.54 7.55 7.55 0 117.55-7.54z" class="colore8a1a4 svgShape"></path><path fill="#ef9687" d="M533.94 118.05c-10.44 0-19.54 5.87-21 13.51-1.05 5.59.73 14.63 4.69 23.84 4.56 10.61 8.31 12.53 17.88 9.15a33.12 33.12 0 015.12-1.5c.48 0 .88 2.22.88 4.93 0 3.15.56 5.5 1.57 6.5 1.81 1.82 7.25 2 12.76.5 5.22-1.45 6.66-5.18 6.88-17.83s-1-15.12-8-15.09a40.13 40.13 0 00-9.64 1.5c-2.7.82-5.18 1.23-5.5.9s-.47-5.54-.34-11.58c.32-12.88-.37-14.83-5.3-14.83zm-104.82 1.09c-.95 0-2.11.06-3.62.15-7.51.48-11.06 3-12.11 8.57-.91 4.87 3.56 17.77 9.67 27.94 2.72 4.52 4.94 8.7 4.94 9.3s1 1.51 2.25 2c5.35 2.27 16.94-1.48 17.56-5.68.17-1.14-1.47-7.19-3.63-13.47s-4.49-14.06-5.16-17.32c-.87-4.16-2.11-6.8-4.16-8.85s-2.9-2.66-5.74-2.68zM531.37 124c2.4-.06 2.26 1.88 1.73 8-.78 9 .37 14.81 3.48 17.63 2 1.79 2.32 1.8 8.76.15 11.51-2.95 11.19-3.15 11.19 7.22 0 4.91-.28 9.63-.61 10.5-.41 1.07-1.87 1.58-4.5 1.58-3.86 0-3.89 0-3.89-4 0-7.48-4.87-9.63-14.42-6.37-4.56 1.55-4.88 1.53-7.42-.35-1.91-1.41-3.28-4.07-4.85-9.37-4.22-14.26-2.52-21.65 5.48-23.87a25.69 25.69 0 015-1.12zm168.8 1.14c-3 0-5.42 1-10.12 4.25-11.43 7.86-11.28 7.81-22.61 8.71-8 .64-11.37 1.34-13.32 2.78-5.81 4.28-10.83 18.59-11.43 31.15-.25 5.28 1.87 6.35 3.81 7.72s5.81 1.83 8 2.29c8.36 1.73 11.32-.24 15.09-10.12 3.15-8.24 4.22-8.88 17.91-10.67 10.06-1.32 17.32-4.4 19.26-8.17 1.56-3 .65-19.83-1.33-24.69-1.18-2.89-1.76-3.25-5.26-3.25zm-274.24.17h1l4.43.3 3.64 12.5c2 6.88 4.39 14.48 5.37 16.9 1.1 2.71 1.42 4.76.85 5.33s-2.76 1.18-5 1.48l-4.05.54-5.61-11.57c-3.08-6.36-6.14-14.11-6.79-17.22-1.1-5.23-1-5.76.79-7.1a9.8 9.8 0 015.4-1.19zm273.16 6.13a.57.57 0 01.32 0c.6.2 1.44 4.37 1.86 9.28.7 8.23.6 9.05-1.25 10.58-1.11.91-5.28 2.15-9.27 2.75-17.92 2.7-19 3-21.89 5.72-1.55 1.48-4 5.77-5.42 9.53-2.36 6.15-2.88 6.83-5.28 6.74-2.59-.11-10.27-1.68-10.81-2.23-.15-.14.79-4.56 2.09-9.81 2.39-9.65 5.51-17.1 7.75-18.48.67-.42 5.79-1.08 11.37-1.48 11-.78 14.83-2.25 24.85-9.45a20.76 20.76 0 015.68-3.16zm76.85 6.21h-.77a11.26 11.26 0 00-3 .59c-4.75 1.56-16 13-23.71 24.15-1.85 2.66-3.68 5.06-5.06 6.66-1.08 1.26-3.53 5-.21 8.16a35.34 35.34 0 007.71 5.46 21.6 21.6 0 007.06 2.41c2.8 0 26.74-16 31.25-21s3.89-10.21-1.8-17.94c-4.24-5.76-7.69-8.4-11.51-8.53zm-.47 6.66c1.72-.07 3.13.89 4.69 2.58 9.24 10 8.7 11.25-10.93 24.59-6.2 4.22-11.38 7.64-11.5 7.61s-2.83-1.39-6-3l-5.79-3 9.06-10.43c11.48-13.1 16.7-18.22 20.47-18.38zM336 156.11c-3.28 0-10.64 5.16-12.18 8.54-.62 1.35-1.57 2.46-2.1 2.46-2.91 0 2.05 14.18 7 20.11 4.4 5.22 7.44 6.17 17.23 5.4 8.24-.66 8.85-.57 11.48 1.7 2.08 1.79 3 3.76 3.65 7.84.51 3.25 1.57 6 2.63 6.77 4 3 19-2.4 21.79-7.85 1.9-3.68 1.92-14 0-18.51-2.85-6.82-8.54-14.23-12.28-16-3.09-1.47-5.4-1.65-14.61-1.12l-10.94.63-4.52-5c-3.28-3.62-5.26-5-7.21-5zm-.9 6.81l4.87 4.56c5.91 5.53 8.43 6.26 16.09 4.63 7.45-1.58 13.45-.82 16.57 2.12 3.34 3.14 8.4 13.56 8.37 17.3 0 5.6-1.08 7.45-5.41 9.55-5.87 2.84-7.29 2.63-8.12-1.21-1.15-5.35-3.29-8.61-7.47-11.37-3.81-2.53-4.3-2.6-13.48-1.91l-9.53.72-2.74-2.94a49.13 49.13 0 01-5.59-8.15c-2.77-5.11-2.8-5.27-1-7.27a33.92 33.92 0 014.64-4zm512.29 29.45a4.52 4.52 0 00-2.68 1c-1.3.85-4 4.73-6.08 8.63s-4.48 7.49-5.42 8a40.29 40.29 0 01-7.6 2c-8.31 1.53-11.62 3.8-14.87 10.15-4.3 8.42-4.54 12-1.09 16a52 52 0 006.83 6.16c2.94 2.15 4.87 2.83 7.47 2.61 3.69-.32 3.61-.22 7.87-9.91l2-4.6 7.62.49 7.61.48 4-4.23c6.92-7.28 11.15-14.52 11.68-20 .46-4.76.33-5.05-4.16-9.41a33.22 33.22 0 00-9.1-6.21 14.08 14.08 0 00-4.13-1.19zm.71 5.79c2.73.2 10.91 7.72 10.91 10.45 0 2.45-4.22 9.41-9 14.89l-3.35 3.81-7.27-.68c-6.84-.65-7.42-.53-9.72 1.77a24.43 24.43 0 00-4.27 7.58c-1 2.82-2.15 5.14-2.56 5.14s-3-2-5.71-4.43l-5-4.43 2.67-5.26c3.38-6.6 6.31-8.75 13-9.54 7.3-.87 11-3.69 15.43-11.81 2.08-3.79 4-7.07 4.17-7.29a.79.79 0 01.65-.19zm-396.62 1.63c-25.58-.09-28.47 1.69-35.34 8.44-7.32 7.19-8.07 13.56-9.14 30.89-.92 14.81-3.64 75.31-4.77 105.89l-.71 21.45 7.84-3.32c-1.68-.06-1.45-14.71 1.18-70 .77-16.23 1.71-37.6 2.07-47.5.94-25.24 3.91-32.39 15.64-37.57 3.65-1.6 7.09-2.35 17.85-2.36 8.36 0 21.16.43 41.91 1.23 40.4 1.56 85.19 1.64 113 .22 13.34-.69 41.65-.79 81-.29l60.5.77c20.11 1.6 27.65 28.46 28.3 33.47 1 7.78 1.29 19.18 1.09 40.53-.18 17.6-.32 48.32-.35 68.25s-.1 38.9-.18 38.9l-.41-.12.68.82 6.67 1.15-.55-10.82c-.23-4.5-.34-19.65-.09-33.68.9-50.07.7-101.4-.4-107-3.28-16.64-15.14-38.32-35.37-38.41l-63.19-.27c-34.75-.15-77.14.24-94.19.87-24.73.91-41 .85-80.5-.27-24.31-.7-40.91-1.19-52.53-1.23zm290.89 33.57a16.52 16.52 0 00-7 2.09c-6.63 3.37-21 12.92-34.54 22.92-6.25 4.63-16.96 12.43-23.83 17.42-11 8-31.18 23.28-34.75 26.33-.73.62-1.25 3.44-1.25 6.76v5.7l5.54 15.32c1.37 3.77-.46-10.22-.49-16v-8.72l7.75-5.22c9.69-6.54 44.14-31.23 54.52-39.09 4.28-3.24 14.18-10.15 22-15.37s14.23-10 14.23-10.69c0-.94-.82-1.42-2.14-1.44zm-302.3.57c-1 0-1.06.68-1.06 1.68 0 2 9.27 7.86 40.5 25.61 41.13 23.36 42 24 46 27.12l6.91 5.47s4.15-.83 6-4.12c-.82-.11-4.73-2.89-7.23-4.93-6.31-5.18-11.77-8.4-50.68-29.88-29.27-16.16-37.9-20.89-40.44-20.95zm96.25 102.87l-.63 34.91c-.36 19.19-1.09 43.9-1.65 54.9-2 40.33-2.88 80.52-2.11 101 .43 11.55.56 72.52.28 135.5-.34 76.52-.13 124.12.63 143.5.62 15.95 1.4 48.69 1.73 72.75l.6 43.75h7.13l-.65-19.75c-2.47-74.11-3.09-132.8-3-283.75.1-134.4.41-170 1.72-197.41.88-18.37 1.6-44.72 1.6-58.55v-25.14zm105.09 50.94c0-3.13 1.5 10.59 2.44 42.37 2.94 100.61 3.17 280.38.43 339-1.17 25-1.38 45-.88 86.5.35 29.7.92 57 1.26 60.75l.63 6.75h6l-.63-11.25c-1.54-27.68-1.81-83.45-.55-113.25.72-17.05 1.35-53.5 1.4-81s.47-68.9.91-92c.61-31.11.49-47.45-.47-63-.83-13.54-1.2-38.42-1-70 .24-45-.7-76.62-2.82-94.36l-.76-7.84s-5.92.81-5.92-2.68zm-234 25.14L402.5 416l.32 3.71c.18 2-.39 27.38-1.25 56.32s-1.61 72-1.66 95.63-.63 59.42-1.29 79.5c-1.08 32.43-1.27 221.17-.25 241 .47 9 4.06 19.72 8.72 25.86l3.89 5.14c3.58.61 9.73 0 15.1-.84-.48 0-1.08 0-1.28-.08-9.1-1.27-16.17-9.89-19.34-23.58-1.43-6.14-1.65-18.39-1.9-100-.15-51.15.13-105.82.62-121.5s1.07-50.55 1.31-77.5c.47-54 1-83.09 2.57-133.5.59-19.11.67-37.73.19-43.37zm362.09 37.79l.09 27.71c.08 25-1.18 28.29-1.18 28.29l7.37-4.36c-.15-.37 0-11.54.23-24.82l.5-24.13zm-257.88 65.62c-3.47-.07-7.21 1-9.35 3-3.75 3.45-6.31 10-7 17.86-.57 6.69-.69 7-3.19 7a21.4 21.4 0 00-7.11 2.26c-3.93 2-4.53 2.7-4.8 5.83-.35 4.26.63 5.24 8.53 8.47 4.76 2 5.75 2.77 5.64 4.65-.07 1.26.23 8.86.66 16.9.91 16.65 2.8 22.77 8.63 27.89 4.45 3.9 9.34 4.08 12.19.45s3.93-9.86 4.74-28.36c.6-13.81 1-16.69 2.51-18.19 2.73-2.73 3.28-7.81 1.41-12.94-1.06-2.89-1.72-8.35-1.87-15.46-.28-12.52-1.69-16.45-6.61-18.5a12.45 12.45 0 00-4.41-.83zm160.76 3a12.39 12.39 0 00-4.4.83c-4.93 2-6.34 6-6.62 18.5-.15 7.11-.82 12.57-1.87 15.46-1.87 5.12-1.31 10.21 1.41 12.94 1.51 1.5 1.91 4.39 2.52 18.19.81 18.5 1.84 24.69 4.73 28.36 4.55 5.79 13.48 1.48 17.81-8.59 1.77-4.09 2.39-8.17 3-20 .46-8.15.58-15.76.28-16.92-.42-1.6 0-2.25 1.77-2.71a59.21 59.21 0 007.74-3.34c3.15-1.59 8.17-3 9.54-2.92-1.22-1-2.09-8.94-9.13-10.83l-2.07-.55a36 36 0 00-5.74-.62c-1.88 0-2.17-.76-2.69-7-.66-7.85-3.22-14.41-7-17.86-2.15-2-5.88-3.06-9.36-3zm-161.36 3c4.38-.12 5.33 2.13 5.8 11.94l.43 8.92h-16.53l.64-6.14a32.33 32.33 0 012.91-10.25c1.91-3.48 2.81-4.16 5.83-4.42l.92-.06zm162 3h.93c3 .26 3.92.94 5.83 4.42a32.75 32.75 0 012.87 10.29l.64 6.14h-16.53l.42-8.91c.47-9.82 1.43-12.06 5.8-12zm-161.56 24c6.44 0 7.58 1.58 7.58 6.9v3.93l-6.25-.06c-5.51 0-16.6-2.64-25-5.85-6.24-2.38-2.86-3.25 18.31-4.69 2.1-.14 3.87-.23 5.36-.23zm161.15 3c1.49 0 3.26.09 5.38.23 16.4 1.12 21.15 1.8 20.77 3-.2.6-4.39 2.4-9.29 4a77.15 77.15 0 01-16.68 3.4l-7.75.5v-4.06c0-5.43 1.11-7 7.57-7zM500 564.33l3.75.84c2.07.47 5.82 1.11 8.35 1.44l4.6.59-.74 4.71c-.41 2.59-1 9.21-1.41 14.71s-1.12 12.35-1.67 15.25-1.55 5.25-2.19 5.22c-6.56-.17-10.68-13.27-10.68-33.94v-8.82zm184 3v8.82c0 17.42-3.11 30.35-7.93 32.93a8.7 8.7 0 01-2.93 1c-1.36 0-2.88-8.48-3.68-20.51-.37-5.5-1-12.12-1.41-14.71l-.74-4.71 4.6-.59c2.52-.32 6.28-1 8.34-1.43zm328.79 285.78c-3.66-.05-8 5.59-12.3 16.31-3.75 9.37-8.45 27.09-8.53 32.19-.05 2.77-.27 2.57-2.92-2.56-3.4-6.59-5.12-8.21-8.23-7.76-3.79.53-5.08 6.31-4.49 20.07l.5 11.75 8.35 1.52c.46.09-.71-.39-.93-.64-1.28-1.55-3.12-24.88-2-24.88.31 0 1.93 2.14 3.62 4.75 4.39 6.79 4.76 7.43 6 10.64 1.79 4.51 3 2.07 5.1-10.14a166 166 0 0111.13-37.05c1.8-4 2.55-5.54 3.09-5.59.33 0 .58.49.92 1.38 1.44 3.7-.09 48.53-1.79 52.61-1.12 2.68-1.12 3.38 0 4.33s2.58-.33 7.36-6.15c3.29-4 7.16-8.38 8.59-9.71 2.4-2.23 2.63-2.27 2.6-.5a86 86 0 01-2.28 10.42l-3.06 10 7.42-.12a55.79 55.79 0 012-11.09c2.67-9.63 2.66-15.34 0-16.78s-5.52-.42-10.59 4.25l-4.34 4 .23-22.9c.21-20.48.05-23.19-1.54-25.61-1.17-1.8-2.5-2.7-3.94-2.71zm-962.64 1.68a5.23 5.23 0 00-3.23 1.21c-1.9 1.54-2.32 2.76-2.17 6.29.25 4.71 4.87 23.54 8.25 33.23 1.13 3.25 2 6.07 2 6.27s-1.13.08-2.51-.27a6.39 6.39 0 00-5 1c-2.14 1.39-2.5 2.38-2.5 6.89a21.28 21.28 0 002 9.19c1.1 2.16 2 4 2 4.21s-.06 0-.13 0h.07l7.09.19-2.52-5c-2.24-4.43-3.42-11-2-11 2.32 0 6.4 3.55 7.9 6.87 1.82 4 4.2 5.88 5.69 4.39.45-.45-1.18-7.17-3.61-15-7.66-24.52-12.12-42.3-10.59-42.3 1.43 0 6.94 4.72 11.08 9.5 6.09 7 11.35 15.36 17.13 27.14 4.21 8.59 4.93 10.88 4.66 14.9-.49 7.46 1.7 6.79 5.58-1.7 1.85-4 4.36-8.24 5.58-9.33 2.18-2 2.23-2 3.62-.06s1.17 17.39 0 21.84a3.2 3.2 0 01-.4 1h5.41a1.43 1.43 0 01.13-.49 68.82 68.82 0 002-11.56c1.14-16.06-6.19-23-15-14.24-4.39 4.39-4.77 4.61-4.77 2.73 0-3.49-11.44-24-17.67-31.62-7.93-9.76-13.88-14.5-18.18-14.43zM779.41 877.88h-4.24c-.13 4.62-.69 25.29-.94 31.68-.21 5.16-5.44 11.57-8.4 14.24l6.14.07a27.41 27.41 0 005.94-10.61c2-7 1.57-31.85 1.5-35.4z" class="colorefca87 svgShape"></path><path fill="#f2c1b9" d="M910.51 385.2s-3.48 15-12.72 18.34-11.25 1.75-11.25 1.75l7.77-13.4zM302.33 370.7s9 12.14 14.39 14 5.59 1.9 5.59 1.9l-2.84-13.74zM441 352.65s6.16 13 23.58 11.65 21.56-3.21 21.56-3.21l-42 26.69-10-31zM188.77 551.8s9.37 5.36 9.24 14.6a88 88 0 01-2.28 17.81l27.05-25.58L194 543.9z" class="colorf2d0b9 svgShape"></path><path fill="#2c2c2c" d="M293.75 230.91a32.11 32.11 0 0 0-13.27 2.58c-11 5-21.34 18.63-30.59 40.1-4.5 10.44-4.91 12-3.94 14.8a17.88 17.88 0 0 0 3.08 5.26c3.07 3.26 1.72 7-7.7 21.23C227.6 335.65 224 344.93 224 359.66c0 11.26-1.59 15.6-10.4 28.32a166.16 166.16 0 0 0-10.88 17.84c-3 6.3-3.21 7.54-3.21 17.29s.17 10.81 3.1 16c3.37 5.95 10.93 12 14.95 12 1.28 0 2.56.38 2.85.84.71 1.15-5.64 25.84-9.31 36.23-1.65 4.64-5.45 14.25-8.46 21.37-4.84 11.42-5.87 13.12-8.81 14.5a11.92 11.92 0 0 0-5.18 5.36c-1.71 3.51-1.74 4.13-.33 8.39l1.51 4.61-10.66 16.18c-5.86 8.91-13.35 20.69-16.64 26.17l-6 10-4-8.06c-3.78-7.59-4.17-8-7.33-8.13-1.07.82-3.52 1.34-3.69 5.91.21.82-.15 6.84 0 7.42-1.1.17-13.69-5.31-17.63-7.5l-5.41-3.06a22.15 22.15 0 0 1-4.08-1.67c-6.85-3.2-10.88-3.77-14.9-2.1-3.87 1.62-5.36 5.32-3.65 9.07.6 1.3 3.46 4 6.38 5.91s9.57 6.92 14.79 11c16 12.67 30.12 18.2 39.76 15.6 8.82-2.37 24.65-15.51 51-42.36 11.37-11.57 16.12-15.74 18.5-16.26a31.3 31.3 0 0 0 7.39-3.12c4.52-2.63 5.25-4.6 6.84-18.32.83-7.23 2.34-13 3.39-13 .47 0 1.59 1.12 2.49 2.5s2.11 2.5 2.69 2.5 2.94 1.51 5.23 3.35a72.16 72.16 0 0 0 7.42 5.21c1.79 1 3.25 2.19 3.25 2.57a70.91 70.91 0 0 1-3.5 8c-4.3 9-4.62 14.38-1.09 18.57 1.87 2.22 2.18 3.27 1.39 4.67-.57 1-.73 4-.37 7 .53 4.3 0 7.41-3.4 18.66-5.29 17.69-11.17 32.72-23.16 59.23-19.74 43.62-23 49.13-41.49 69.44-6.9 7.61-16.64 19.23-21.64 25.83s-11.7 14.77-14.91 18.16c-5.06 5.35-5.83 6.68-5.83 10.07 0 5 6.94 19.41 15.11 31.35 3.34 4.88 5.92 9.22 5.73 9.65-.42 1-15.66 27.94-17.52 31a4.6 4.6 0 0 1-3.23 2.25c-2.45 0-9.41 7-14.5 14.6-2.25 3.37-6.45 8.9-9.34 12.31s-5.23 5.45-5.23 7.39c0 2.82 3.89 8.46 12.27 22l6.74 10.71H56.05l-7.05-.19h-.07a65.67 65.67 0 0 1-7.25.24c-8.11 0-11.07 1.55-8.62 4.5 1.1 1.33 58.72 1.5 507.51 1.5 449.1 0 506.34-.17 506.85-1.5 1.39-3.6-.31-4.5-8.47-4.5-3.85 0-14.46-.5-14.46-.5l-19.58.27c-13.61.19-28 .23-28 .23h-12.66l-2.65-5.42c-3.12-6.39-12-15-22.85-22.31a95.34 95.34 0 0 0-8.85-5.48c-1-.34-1-1.08.1-3.74a28 28 0 0 0 1.21-9.18c-.09-3.23.2-5.87.64-5.87s1.79-1.75 3-3.89c4.19-7.46 3-15.12-6.82-45.69-8.32-25.79-11.21-37.63-15.92-65.28a323.87 323.87 0 0 1-5.11-46.69c-.62-12.65-1.25-24.8-1.39-27s-.58-9-1-15-.93-12.24-1.21-13.75l-.53-2.75h7.9a56.91 56.91 0 0 0 13-1.52c7.2-2.14 14.46-8.19 17.63-14.67 5.37-11 8.23-28.76 5.5-34.13-.61-1.2-5.08-6.23-9.94-11.18s-10.39-11.78-12.31-15.23l-3.49-6.21 1-9.78c.55-5.38 1.12-11 1.28-12.46.2-2 3.09-5.22 10.81-12.19 14-12.6 23.42-24.51 30.32-38.13 6-11.94 6.63-15.25 4.6-25.43-1.47-7.38-4.85-13.85-13.12-25.08-3.85-5.22-9.22-12.87-11.93-17s-6.1-8.94-7.54-10.68c-2.46-3-2.58-3.61-1.94-9.9.82-7.94-.32-9.42-7.21-9.42h-4.21l1.94-7.75c2.82-11.28 2.44-10.78 5.94-7.84s4.19 3.05 7 1.55c1.47-.79 1.94-2.11 1.94-5.48 0-4.19.21-4.55 3.69-6 11.92-5 20.24-18.79 18.39-30.51-.69-4.37-.55-5.19 1-6 3.23-1.73 6.88-8.14 6.88-12.1 0-4.71-3.61-7.84-9-7.84h-3.75l1.5-4.25c2.27-6.5 1.31-26.82-1.53-32.38-4.86-9.49-14.2-15.16-26.46-16.05-7.79-.56-19.33 1.53-23.51 4.28-2.18 1.42-2.56 1.28-6.93-2.57-8.74-7.69-18.6-8.67-30.78-3.06-7.59 3.49-10.81 6.93-14.09 15.07s-6.05 11.28-9.19 10.49c-1.94-.49-2.56 0-3.78 2.91-3 7.16-.9 22.22 4.14 29.87 2.6 3.95 10.57 9.69 13.44 9.69 1.42 0 1.74 1.82 2.28 12.75.76 15.52 3.19 30.23 6 36.2a32.71 32.71 0 0 0 14 14l4.23 2.09H883c-7.94 0-24.72 6-27 9.73-1.15 1.85-1.66 1.79-16.81-1.79-8.59-2-22.12-5.11-30.06-6.84s-18.11-4.3-22.61-5.7c0 0-18.33-5.33-21.61-6.32a97.18 97.18 0 0 0-10.91-2.66c-13.66-2.08-28.27-7.86-53-20.94-9.63-5.09-20.08-10.34-23.23-11.66s-5.75-2.89-5.75-3.5-1.12-2.29-2.47-3.75c-1.93-2.08-3.38-2.63-6.75-2.63-2.37 0-5 .44-5.8 1-1.21.77-2.41-.84-6.2-8.27-1.39-2.72-2.33-4.64-3-6.28l-6.8-10.98-2.54-2.75c-2.68-2.88-6.25-3.55-8.26-1.54-.66.67-1.2 3.54-1.2 6.4v5.19l-10.52-6.31a139.59 139.59 0 0 0-15-8c-4.22-1.6-4.62-1.6-7.11 0-2.27 1.49-2.55 2.21-2 5.31a23.16 23.16 0 0 0 3.64 7.86c4.42 6.14 7 12.27 7 16.86.06 5.78 2.61 15.77 5.49 21.45 3.76 7.44 10.84 11.91 21.91 13.87 3.39.61 3.92 1.07 4.2 3.69a23.74 23.74 0 0 0 3.83 11c3.29 5.7 11.71 4.73 11.71 4.73 6.84.66 21.93 8.49 43.87 22.78 21.52 14 37.5 22.19 58.47 30l35.43 14.08c7.37 3.21 13.86 6.29 14.43 6.86.71.72 0 3.75-2.39 9.74-2.66 6.73-4.72 10.09-9.08 14.77-5.21 5.6-25.1 16.14-25.27 16.19-1.88.59-10.29 4.35-21.11 9.44a36.59 36.59 0 0 0-8.4 6.36l-4.38 4.44-4.15-3.4c-6.11-5-12.16-7.43-18.6-7.46-5 0-5.88-.36-8.94-3.52-4-4.17-8.08-4.66-10.45-1.28-2 2.81-2 7 0 13.56.85 2.84 2.57 9.25 3.82 14.26l2.3 9.1c2.63 9.36 8.75 12 9.93 12.46a20.83 20.83 0 0 0 6.64 1.42c4.57 0 5.18.7 6.51 7.22 3.73 18.37 20 35.77 30.07 32.13 1.92-.69 2.63-1.6 2.47-3.1-.29-2.78 4.59-6.88 9.88-8.31 2.23-.6 4.25-.89 4.49-.66s-.06 2.59-.65 5.24c-1.71 7.64 2.49 22.18 9.09 31.46.8 1.12 0 5.17-3 16-2.27 8-6.16 23-8.66 33.5-8.33 34.88-22.59 79.8-34.58 109-15.26 37.14-19.21 51.31-19.26 69-.16 10.74 2.23 10.85 4 13.68a65 65 0 0 0 8.58 6.45c4.33 2.62 4.58 3 4.58 7.19s-.21 4.55-5.35 7.84c-3 1.88-13.94 7.89-24.43 13.34-11.45 6-21.82 12.14-25.93 15.46-6.83 5.51-6.87 5.54-13.77 5.54H535.16l-52.83-.12c-26.76-.06-50.59-.37-56.26-.7-5.37.81-11.52 1.44-15.1.84h-13.24c-11.88 0-14.16-.35-22.32-3-19.29-6.27-34-20.23-42-39.91-2.19-5.39-2.31-6.46-1.28-10.94l1.15-5 9-3.14c16.26-5.68 27.05-10.77 30.36-14.34 6.26-6.77 5.46-17.92-3.28-45.4-6.36-19.9-7.36-25.41-10.45-56.8-1.81-18.14-2.23-29.53-2.44-65-.27-46 .86-88.77 2.57-97.14.58-2.82 1.92-5.92 3-6.88 3.19-2.88 3.35-7.21.59-16-1.38-4.4-2.95-10-3.49-12.38l-1-4.38 5.44.64c10.49 1.23 19.36-3.32 24.91-12.79 4.58-7.82 4.76-12.17 1.51-36.83-5.3-40.25-6.86-59-5.39-64.48.36-1.36 3.92-4.38 9.23-7.82l8.66-5.55 4.91-3.08 3.58-2.26c2-1.25 6.41-3.69 9.87-5.44 6.23-3.15 6.33-3.17 10.5-1.57 3.2 1.22 4.87 1.36 6.92.58 3.4-1.29 6.71-6.58 6.71-10.73 0-2.94.85-3.69 12.26-11s46.58-32 54.58-38.28c4.35-3.43 11.61-6 19.07-6.81l5.41-.57 5.68 1.71 6.32.4c6.62.42 9.68-1 9.68-4.5 0-1.68-6.63-8.72-8.92-9.46-1.18-.38-1-1.86.86-8.9 1.64-6.11 2.41-12.36 2.79-22.62l.52-14.17s-1-5.15-6.06-5.15c-2.24 0-6 4.3-7.66 8.7a28.29 28.29 0 0 1-2.72 5.57c-1.87 3.29-10.12 4-11.49 4.73-7.39 4.16-10 7.52-13.71 24.16-.51 2.25-1.66 3-7.28 4.9-7 2.31-41.08 17.06-59.4 25.67l-10.57 5-3.2-2.85c-6.16-5.51-13.27-2.93-18 6.55a13.08 13.08 0 0 1-3.13 4.3c-.24.16-8.47 3.58-8.47 3.58l-7.85 3.35c-4.32 1.84-8 3.35-8.12 3.35a16.14 16.14 0 0 1-.81-4c-.8-6-4.05-11.87-11.08-20.1-8.15-9.54-10.79-13.82-15-24.39l-3.58-8.67 3-7.54a149.52 149.52 0 0 0 5.06-15.6c3.19-12.63 1.3-19.54-6.16-22.47-3.59-1.41-3.79-1.74-4.33-6.92-1-10.13-7-16.35-15.72-16.35a25.5 25.5 0 0 0-8.16 1.43c-3.37 1.4-3.47 1.37-6.05-1.85-3.39-4.26-11.93-9.9-18.27-12a34.71 34.71 0 0 0-10.74-1.73Zm-.27 6.3c8.24.11 16.95 4.17 24.67 11.89 3.3 3.31 6.37 6 6.81 6a3.74 3.74 0 0 0 2-1.4c.63-.76 3.16-1.89 5.62-2.51 9-2.25 14 2.42 15.29 14.2.67 6 .74 6.13 4.16 6.83a8.27 8.27 0 0 1 7 8.39c0 1.82-1.64 8.86-3.63 15.65-5.71 19.41-5.77 19.71-4.54 22.14.61 1.2 2.27 5.34 3.68 9.19 2.92 8 6.89 14.34 14.35 23 6.35 7.41 10.11 14.73 10.11 19.7 0 3.36-.41 4-3.75 5.68-5.05 2.57-22.67 8.15-25.72 8.15-2.33 0-2.41-.22-1.85-4.9.67-5.67-.4-6.69-8.11-7.75l-4.5-.61 4.34-5.12c3.14-3.7 4.66-6.6 5.47-10.42 1.48-7 1.33-28.57-.27-39.2-1.22-8.12-1.19-8.63.8-11.34 1.79-2.42 2.08-4.17 2-12-.13-10.22-1.94-16.95-4.68-17.48-1.68-.33-1.75.43-1.11 11.19.6 10 .47 11.89-1 14.19s-2.25 2.55-4.73 2.05a18.56 18.56 0 0 1-5.92-2.68L327 298l1.9-2.67c2.43-3.41 4.57-10.56 3.79-12.6-1.05-2.73-2.5-1.73-4.67 3.17-3.54 8-10.78 14.25-16.52 14.25h-2.63l3-2.5c6.35-5.34 11.86-17.49 7.93-17.49-.69 0-3.13 2.44-5.44 5.43-4.9 6.34-13 13.07-19.06 15.76-5.69 2.55-17.29 2.66-21.06.21a17.45 17.45 0 0 1-4-3.59c-1.63-2.28-3.19-1.48-3.19 1.64 0 4.53 9.49 10.51 16.7 10.54 2.07 0 2.17.34 1.61 5.08-.33 2.79.22 15.58 1.22 28.41 1.57 20 1.66 25.24.63 36.88-2 22.5-7.24 39.17-14.18 45-6.37 5.35-18.27 2.83-24.76-5.25-2.34-2.91-4.06-4-7.09-4.48-6.64-1.07-10.42 6.91-12 10.25a90 90 0 0 0-4.68 13.1c-1.29 4.95-2.28 7-3.38 7-3-.08-24.64-12.27-12.32-38.3a145.17 145.17 0 0 1 9.8-16.25c9.57-13.72 10.41-16 10.44-28 0-15.89 3.05-24.13 16.07-43.85 11.81-17.89 13.07-22.31 8.36-29.21-3.59-5.26-2.85-9.11 4.07-21.33 7.18-12.7 15.92-23.71 22-27.73a24.51 24.51 0 0 1 14-4.13Zm585.08 26.92c4.84 0 11.49 1 14.06 2.29a49.91 49.91 0 0 1 7.19 5l4.15 3.47 7.27-2.57c10.5-3.72 22.06-3.73 30 0A21.8 21.8 0 0 1 953.64 289c1.32 8.34.87 18.47-1.1 25-2.27 7.5-1.81 8.09 6.21 8.12 4.84 0 5.25.19 5.25 2.37 0 1.32-1.73 4.32-3.92 6.81-3.84 4.36-3.9 4.57-3.77 11.89.16 8.47-1.09 11.58-7.38 18.4-3.45 3.75-7.29 6.05-13.31 8-1.56.5-1.79 1.29-1.35 4.58.61 4.55.23 4.81-2.85 1.92-2.11-2-2.15-2.3-.83-7.25.65-2.41 2.67-11 3.28-14.49 4.88 1 13.06-3.23 15.55-8.06 2.08-4 2-7-.38-10.82-4.75-7.8-9.92-4.43-10.37-4.39s-3.38 2.45-6.5 5.36c-9.59 8.93-9.17 8.82-9.17 2.34 0-4.75.27-5.62 1.79-5.62a4.74 4.74 0 0 1 2.92 1.11 1.91 1.91 0 0 0 3.29-1.57c0-2.62-4.23-5-12-6.65-10.13-2.2-16.24-5.74-19.37-11.22-2.9-5.1-4-9.38-2.65-10.23 1.53-.94 1.2-4.21-.49-4.86-.83-.32-4.89.78-9 2.44-13.94 5.58-24.5 4.88-29.56-2-1.75-2.36-2.58-2.82-3.6-2-2.31 1.92-1.45 5 2.44 8.73a45.75 45.75 0 0 0 5.44 4.63c1.39.84 1.55 2 1 6.92-.38 3.26-1.22 6.1-1.87 6.32s-3.42-1.77-6.15-4.42c-4-3.9-5.36-6.11-7.06-11.67-2.76-9-2.82-14.64-.18-14.64 3.6 0 8.33-5.28 12.15-13.53 3.92-8.5 9.66-14.87 14.49-16.08a18 18 0 0 1 4-.37Zm-332.35 19.28c.87 0 1.3 1.7 1.3 1.7-.24 2.48-.68 8.1-1 12.5a129.16 129.16 0 0 1-3 18c-1.64 6.77-2.07 10.13-1.33 10.39a26.81 26.81 0 0 1 4.68 3.83l3.58 3.45-4-.79c-6.4-1.25-19.52-1-25.67.51a32.51 32.51 0 0 0-10.5 5c-8.8 6.63-42.65 30.64-53.83 38.17-6.05 4.07-11.33 7.56-11.75 7.74s-.75-.81-.75-2.19-1.49-7.45-3.31-13.48l-3.32-10.94 9.57-4.29c5.26-2.37 22.84-10 39.06-17l29.5-12.74.7-3.83c.88-4.83 4.21-13.77 6.33-17 2-3 7.15-5.32 11.94-5.32 4.35 0 7-2.5 8.49-7.85a21.94 21.94 0 0 1 1.78-4.37c.58-1.08 1.07-1.47 1.47-1.48Zm-222 17.7 3.88 3.5c2.14 1.93 4.52 3.5 5.31 3.5 3 0 4.35 3.07 5.53 12.74a183.14 183.14 0 0 1 .86 22.3c-.33 11.79-.51 12.72-3.31 17.17a21 21 0 0 1-7.62 7.25c-6.88 3.75-11.2 3.56-24-1.65-3.94 0-5.93 1.46-2.57 4.78a46.63 46.63 0 0 0 10.9 4.45c4.43 1.11 4.51 1.22 5.75 6.8 1.38 6.22 4.15 12.3 6.83 15a54 54 0 0 1 4.23 5.15c1.35 1.91 6.48 8 11.37 13.49C351.6 427.08 357 434.91 360.19 443c1.91 4.79 2.24 7.45 2.2 17.64-.06 11.34-.29 12.7-4.25 24.67-5.14 15.55-8.08 28.56-8.11 35.83 0 6.61 2.52 24.12 4.2 29a26.79 26.79 0 0 1 1.32 5.49 48.86 48.86 0 0 0 2 7.82c3.05 9.46 2 10.07-20 11.69-7.7.57-17.6 1.45-22 2-8 .93-18.82 1.1-23.5.38-13.85-2.15-28-10.15-28-15.82 0-2.25 5-15.85 6.29-17.15.34-.34 2.06-.1 3.83.52a48.4 48.4 0 0 0 35.38-1.77c11.83-5.53 14.22-9.26 17-26.71 1.93-11.88 3.9-42.28 3-46.86-.39-2.06-3.41-8.92-6.72-15.23C316 441.4 315 438.8 311 423.92l-1.69-10.52 2.19-7c4.39-8.73 5.29-13.51 3.16-16.76-2-3-8.43-6.84-15.37-9.08l-5.29-1.67V365l-.18-10.51c-1.21-10.76-2.71-29.22-2.76-36.39l-.06-8.51 6.25-2.16c4.45-1.54 7.59-2 10.9-1.63 3.67.42 5.86 0 10.38-2.08Zm565.38 7.49c.81.07 1.43 1.22 2.24 4 2.54 8.58 11.07 16 21.41 18.59l4.55 1.15-.55 5.36c-1 9.73 3 14.41 9.47 11.06 1.64-.84 5.52-4.36 8.62-7.83l5.65-6.29 2 2.36c2.73 3.23 2.5 5.59-.75 8.16-2.17 1.72-3.47 4.28-6.88 3.9-3-.33-4.78.19-5.1 1.32a.17.17 0 0 0-.06.06c-1.76 2.12-8 25.82-9.8 37.43L918.63 399l-7.3 3.6c-8.6 4.26-16.39 10.84-22.33 23.27-2.06 4.31-5.1 8-4.5 14v58.23l-11.24 11.27L862 520.61l-7.09.19c-3.9.11-15 1.09-24.76 2.19s-21.86 2.22-27 2.5l-9.33.5 16.83-16.69c21.68-21.49 48.57-54.9 58.07-72.16a276.51 276.51 0 0 1 17.84-26.67A52.37 52.37 0 0 0 892 401c2.07-5 2.69-5.57 8.63-8.25 8.31-3.75 14.37-8.95 12.6-10.75-1-1.07-3-.44-10.76 3.41-5.23 2.6-10.18 4.72-11 4.72-3.07 0-11.15-4.94-15.11-9.24-3.42-3.71-4.27-5.5-5.23-11.05-1.81-10.36-3-34.4-2.4-46.6l.59-11.11H874a43.94 43.94 0 0 0 15-3.4 1.24 1.24 0 0 1 .6-.11Zm-288.48 4.52c2 0 26.85 14.87 26.85 16.08a9.54 9.54 0 0 1-1.13 3.16c-2.44 4.55-.43 19.75 2.61 19.75 1 0 1.42-2.43 1.67-9.39.27-7.35.75-9.84 2.17-11.41 1.56-1.72 1.72-3.06 1.15-9.35-.66-7.3-.66-7.33 1.16-4.85 1 1.38 4.8 8 8.43 14.76l6.59 12.25-4.14 4.32a30.16 30.16 0 0 0-6.41 10.74c-3.65 10.31-3.14 9.69-7.35 8.77-4.74-1-12.72-5-15-7.52-3.23-3.58-5.82-11.19-7.23-21.28-1.4-9.9-2-11.57-8.49-22.29-1.63-2.69-1.89-3.75-.92-3.75Zm-280.29 11.35a1.31 1.31 0 0 0-.75.1c-2.09 1.29-1.12 6.28 1.83 9.44 3.22 3.45 6.5 4 9.27 1.45 2.35-2.12 2.39-6.24.08-6.93a56.65 56.65 0 0 1-5.93-2.57 14.51 14.51 0 0 0-4.51-1.48Zm561.92 18.91c-1 .06-2 .82-3.12 2.29a32 32 0 0 1-3.86 4.38c-2 1.75-2.27 4.15-.56 5.86s6.37 1.49 8.23-.37a9.92 9.92 0 0 0 2.15-9c-.58-2.15-1.58-3.23-2.84-3.16Zm-219.64 1.31a4.6 4.6 0 0 1 2 .51c2.13 1.13 2.08 1.24-2 4.64-4.63 3.86-7.73 8.78-6.13 9.78.55.33 3.58-1.36 6.75-3.78s6.28-4.69 6.93-5.07 5.15 1.7 10 4.64c29.61 17.92 48.07 26.83 60.11 29 8.81 1.6 9.39 2.7 9 17.19-.31 11.9.56 14 3.5 8.41 1.45-2.76 1.74-5.32 1.5-13.41l-.29-10 15.5 5.14c8.52 2.83 20.45 6.3 26.5 7.7 22 5.12 42.09 9.54 46 10.15 9.06 1.39 8.6.63 4.84 8.1-3.64 7.23-4.29 12.1-1.75 13.07 1.42.55 9.17-1.23 13.6-3.12 1.35-.57 1.91.1 2.79 3.36 1.06 4 1 4.27-3.81 11.33-15.64 23.15-40 51.85-58.79 69.22-14.94 13.82-17 14.82-28.72 14.18-5-.28-11.29-.8-13.89-1.17-4.37-.61-5-.43-7.83 2.44a28.92 28.92 0 0 1-3.27 3c-.22-.11-2.78-1-4.54-1.52-.89-.29 0-1.5 2.5-3.52 4.86-3.88 8.08-5.51 22.26-11.31 13.42-5.44 23.57-11.25 29.14-16.65 7.14-6.93 18.12-32.14 19.59-45 1-9.13-2.71-14.83-4.06-6.16-.32 2-1.28 6.49-2.13 9.88l-1.58 6.28-5.16-3.05c-6.06-3.57-19.15-9.43-32-14.31-5-1.91-10.28-4.11-11.65-4.88s-8.12-3.74-15-6.6c-16-6.69-22.22-9.83-34.51-17.51-35.3-22.08-48.29-28.48-57.73-28.48-3.8 0-5-.44-6.18-2.25-3.37-5.24-2.8-15.44 1.41-25.27 3.46-8.06 11.82-15 17.1-14.91Zm-238 8.42c2.64 0 6.58 5.35 8.29 11.24 8.45 29.14 7.25 38.75-3.89 31.19-3-2-4-2.28-4.62-1.25a5.49 5.49 0 0 0-.85 1.94c0 .34-4.28 2.77-9.47 5.38s-15.22 9.08-22.26 14.39l-8.59 6.46c-3.09 2-5.68 4.48-5.06 10.17.85 7.83.66 26.48 5 57.5 3.48 25.1 3.46 30.26-.16 36.91-3.33 6.11-6.47 8.62-12.55 10-5.46 1.26-12.61 1.36-13.33.19-.3-.48-.83-4.65-1.18-9.25-.74-9.67.68-17.93 6.61-38.37 10.6-36.6 7.35-51.35-17.2-78-14.63-15.89-17.39-19.61-19.65-26.4-1.18-3.54-2-6.59-1.77-6.79a66.45 66.45 0 0 1 9-1c6.23-.44 8.63-.29 8.63.55a75.14 75.14 0 0 1-2 8.38 58.25 58.25 0 0 0-2 9.49c0 3.71 2.88 2.63 4.62-1.73 1.46-3.64 1.94-4 5.25-4 8.85 0 25.64-6 49-17.46 8.44-4.14 15.94-7.52 16.68-7.52s2.33-1.69 3.56-3.75c3.22-5.38 6-8.25 8-8.25Zm-131.6 31.1 6.82 2.9c11.28 4.77 11.2 4.54 6.55 18.08-3 8.72-3.08 9.41-2 16 1.86 11.25 5.95 22.68 13 36.3 6.48 12.55 6.65 13 6.65 20.5 0 13.36-4.89 47.53-7.69 53.68-2.08 4.57-16.22 9.47-27.31 9.47-11.4 0-23.84-4.66-35.08-13.15-8.88-6.7-8.87-6.26 0-34.15 4.21-13.31 7.65-25 7.65-25.94a1.68 1.68 0 0 0-1.58-1.75c-2.22 0-6.69 10.35-13.53 31.35-3.2 9.81-6.23 18.36-6.73 19-1.96 2.37-4.25 11.5-5.88 23.5l-1.16 8.31c-.51 2.65-1.7 4.57-3.85 5.44-4.18 1.72-5.56 1.69-12.56-.55-9-2.9-17.7-8.81-22.12-15.12-2.32-3.31-2.1-5.62.79-8.51l2.46-2.46 4.29 4.28c4.6 4.61 9.82 7.32 12.26 6.38 2.23-.85 1.87-2-1.23-3.88a70.78 70.78 0 0 1-7.23-5.58l-4.48-3.92 6.16-12.88c8.13-17 11.08-25.78 17.7-52.52 3-12.31 7-25.89 8.73-30.19 3-7.37 3.32-7.78 5.75-7.17 1.41.36 4.43 2.37 6.73 4.49 7.57 7 16.17 9.95 23.25 8 11.41-3.07 17.75-15.64 22.84-45.23Zm591.39 16c.34 0 .57 0 .65.12.49.48-2.26 4.75-10.92 17-7.32 10.33-7.45 10.48-8 8.73-1.77-5.91-5-14.58-5.75-15.37-2-2.12-.54-3.46 6.36-5.88s15.24-4.58 17.66-4.61Zm44.11 3v11.66l-7.1 6.32a137.47 137.47 0 0 0-11.9 12.07l-4.84 5.82-.64-4.73a165.68 165.68 0 0 0-3-16.83c-.49-1.71.35-2.71 4.52-5.39 5.61-3.6 14.67-7.43 19.78-8.37Zm-72.93 10.95c.55 0 3.93 8.22 3.93 9.59a29.14 29.14 0 0 1-5 .57c-2.75.18-5 .17-5 0 0-1.07 5.43-10.14 6.07-10.14Zm76.34 6.15 3.32 6c1.82 3.29 7.36 11.47 12.31 18.18 11.7 15.86 14.87 22.24 15.64 31.44.57 6.71.39 7.57-3 14.63a126.49 126.49 0 0 1-7.84 13.81c-5.74 8.47-20.14 23.24-32.38 33.24-27.45 22.44-38.59 29.61-48.41 31.17-4 .64-29-.46-66.09-2.88-10.17-.67-23.6-1.22-29.83-1.22-11.21 0-11.35 0-13.33 2.75-2.12 2.92-5.85 3.66-7.61 1.5-2.94-3.6-8-26.85-6.68-31 1.4-4.5 4.48-7.79 7.28-7.79s2.68 0 2.75 7.75c.08 8.17 2.41 15.24 5 15.24 1.1 0 1.23-1.27.65-6.25-.4-3.43-.73-8.12-.73-10.41v-4.17l25-.55c23.56-.52 37-1.77 61.73-5.73l7.72-1.24 8.28 4.28a90.59 90.59 0 0 1 12.59 7.8c3 2.47 4.64 3.21 5.38 2.47 2.61-2.61-8.17-13.18-15.91-15.61-2-.64-1.61-1.23 4.79-6.89 3.85-3.41 8.67-7.55 10.71-9.21 8.3-6.73 29.21-30.12 29.21-32.67 0-2.29-3.35-1.86-6.21.8-2.5 2.32-3 2.49-2.37.88a41.13 41.13 0 0 0 1.27-4.75c.46-2.27.21-2.75-1.44-2.75-2.19 0-5.51 6.47-6.75 13.14a14.34 14.34 0 0 1-4.09 6.95l-3.37 3.29v-27.64c0-15.2.34-27.83.75-28.07a25 25 0 0 1 4.4-1.08l3.64-.66 1 5.74a31.51 31.51 0 0 1 .49 7c0 3.19 5.55 1.46 7.86-2a87.26 87.26 0 0 1 17.71-19.93Zm-35.54 3.5.66 2.63c.9 3.58.38 4.46-2.27 3.79l-2.23-.57 1.92-2.92Zm-201.14 90.8 3.11 2.92c2.39 2.23 4.54 3.1 9.32 3.76 6.69.91 14.81 4.23 18.84 7.68 2.27 1.94 2.34 2.24.8 3.17a20.76 20.76 0 0 0-3.26 2.57c-1.4 1.4-2.22 1.11-8.53-3.08-5.39-3.59-7.71-4.57-10.24-4.33-2.86.27-3.31.72-3.58 3.49-.36 3.73 2.95 10.8 5.75 12.3s3.47-.29 1.6-3.9c-3-5.8-2-6.19 5.2-2 7.71 4.5 8.54 4.64 11.91 2s12-5.37 14.85-4.65c2.22.57 2.36 1 1.87 5.36a44.57 44.57 0 0 0 .88 11.49l1.41 6.75h-3.25a25.5 25.5 0 0 0-4.58.35c-1.47.4-23.83-1.88-27.47-2.8-1.29-.32-3.35-2.41-4.74-4.81-3.27-5.66-8.52-22.78-9.28-30.24Zm-500.91 32.86c1.51 0 4.52 1.82 8.47 5.18a36.32 36.32 0 0 0 8.56 5.1l4.77 1.86-25.81 25c-14.19 13.75-27.26 25.79-29 26.75-3.43 1.86-13 2.27-17.91.78s-14.38-7.08-26.36-15.66C102.83 586 100.66 584.06 102 582.76c1.46-1.45 8.44.92 16.11 5.46 4 2.36 23.54 9.67 26.17 9.39 2.07-.23 2.3-1.24 2-2.46.1-.75-.18-8.54-.18-8.54l3.69 7.22c2 4 4.35 7.47 5.14 7.78s2.34-.25 3.44-1.22 9.42-13 18.48-26.78 16.82-25.38 17.24-25.84a1.06 1.06 0 0 1 .81-.3Zm722.06 1.28c.53 0 .49 1.33-.11 4.64-1.63 8.9-.38 34 2.17 43.72 2.84 10.85 7.52 19.83 10.76 20.64 2.92.73 4-.12 2.46-2-3.31-4-10.15-25.81-10.15-32.38 0-.83 1.43.21 3.25 2.36s6.28 6.79 10 10.39l6.74 6.58v5.76c0 8.33-2.63 18.63-6.31 24.69a21.06 21.06 0 0 1-8.7 8.36c-5 2.83-6.35 3.1-16 3.33-10.9.26-17-.87-25.74-4.73-6.77-3-17.2-10.29-22.62-15.82l-4.85-5 2.77-4.86c1.53-2.67 8.7-16.17 12.87-24.41s7.58-15.57 7.58-16.33 2.07-2.4 4.61-3.63a65 65 0 0 0 8.75-5.35c4.5-3.4 20.45-14.77 22.24-15.86a.6.6 0 0 1 .27-.1Zm-187 14.43c1.57 0 3.52 0 5.95.1l10.51.51c3.62 12.82 7.46 11.08 11.25 12.82l-3.31 5.5a71.51 71.51 0 0 0-5 10.25c-.93 2.62-2 4.75-2.31 4.75a26.74 26.74 0 0 1-4.75-3c-5.77-4.18-10.59-11.12-14.27-20.51-1.72-4.4-3.36-8.59-3.65-9.32s.83-1.1 5.53-1.1Zm41.86 5.71c1.14-.1 1 2.59-.36 8.08-1.66 6.92-1.81 7.16-4.77 7.16a25.39 25.39 0 0 0-5.48.66c-2.14.57-1.82-.2 3-7.14 4-5.73 6.47-8.65 7.61-8.76Zm6.68.22c.21 0 6.86.68 14.8 1.52 13.16 1.38 57.08 3.66 74.49 3.87l7.16.08-7.16 14-7.16 14-5 .62c-2.75.35-10.89 2.26-18.1 4.25-11.56 3.2-14.37 3.62-24 3.53-17-.14-30.93-3.76-41.17-10.69-1-.67-.51-3.63 2.25-13.71 1.94-7.06 3.52-13.89 3.52-15.17s.17-2.33.37-2.33Zm-511.69 6a72.66 72.66 0 0 1 7 3.1c11.75 5.61 26 7 44.51 4.48 5.66-.79 15.86-1.71 22.69-2 11.81-.58 12.33-.52 11 1.18-3.59 4.57-9 7.24-19.93 9.75-8.77 2-28.92 2.83-37.48 1.5-15.62-2.43-25.52-7.73-27.46-14.71-.49-1.79-.66-3.26-.36-3.26Zm.38 14 3.71 2.53c2 1.38 4.15 2.52 4.71 2.52 3.57.06 3.49 1.77-.46 10.2-2.21 4.72-4 8.86-4 9.19 0 1.32 3.78.49 5.25-1.15a72.16 72.16 0 0 0 5.27-8.56c2.44-4.45 4.19-6.63 5.08-6.29 6.47 2.48 33.83 3.1 43.51 1 2.41-.53 2.65-.27 3.27 3.63.81 5.05 6.34 19.68 7.77 20.57 2.62 1.62 2.42-2-.69-12.6-1.85-6.32-3.39-11.8-3.41-12.17s1.64-1.21 3.7-1.85a57.91 57.91 0 0 0 8.13-3.58l4.38-2.4-.61 5.75c-3.42 32.58-3.29 118.92.22 150.25 3.47 30.88 4.07 34 11.82 60 4.62 15.55 6.43 28.37 4.89 34.53-.74 3-8.84 7.13-26.85 13.87-17.29 6.45-40.21 10.45-51.3 9.11l-5-.63.77-9.21c1.74-21 2.87-28.05 6.22-39.08 1.93-6.38 3.51-12.06 3.51-12.62 0-2.07-2.09-.9-4 2.24-5.71 9.31-9.66 25.11-10.83 43.25-1 15.21-2.08 18.9-6.29 21.08a12.89 12.89 0 0 1-5.06 1.38c-4.29-.07-24.37-5.8-34.53-9.85-21-8.35-28.18-12.41-39.78-22.35-12.46-10.65-16.08-14.48-24.51-25.87-7.78-10.49-16.45-27.76-15.61-31.1.34-1.34 3.88-6 7.89-10.35s10.92-12.41 15.37-17.91 12.27-14.5 17.37-20c17.9-19.31 23.67-28.77 42-69 13.23-29 21-49.27 26.46-68.77Zm507 19.7c.83-.14 7.4 2.7 8.71 3.82a20.82 20.82 0 0 1-1.72 4.87 22 22 0 0 1-2.34 4.64c-.41 0-4.76-12.15-4.73-13.27 0 0 0-.05.08-.06Zm82.23.4a.34.34 0 0 1 .14 0c.28.28-.69 2.8-2 5.61-2.18 4.87-2.78 7.83-.42 9.68s6.93 6.2 9.45 8.41l4.56 4 .21 8.89c.19 8 .57 9.62 3.9 16.34 3.71 7.47 8.83 13.65 13.69 16.55 2.15 1.27 3 3.13 4.76 10.33a167.68 167.68 0 0 0 6.6 19.67c4.12 10 4.64 12.33 6.68 29.39 4.21 35.25 7.67 51.58 17 80.17 7.49 23.06 8.81 27.67 10.53 36.7.79 4.17 1.13 8.13-1.6 10.71a51.72 51.72 0 0 1-10.43 7.08c-6.81 3.37-8.31 3.71-18.08 4.15-14.26.63-29.78-1.34-32.36-4.1-1.8-1.94-3.66-8.08-3.07-10.15.52-1.84-1.93-34.21-3.45-45.56A432 432 0 0 0 852 766.61c-7.48-28.71-22-105.07-22-115.61 0-5-1.19-6.27-4.25-4.7-2.44 1.26-2.33 8.84.37 26.34l2.16 14-3.58 5.6c-6.63 10.36-25.37 51.92-35.13 77.88-5.46 14.53-21.21 66-27.64 90.25l-4.43 16.74-5-.06c-9.09-.12-20.72-4.3-31-11.14-4.58-2-5.59-5.73-6.46-9.48-1.58-6.84 3.49-24.71 7.18-36.23 1.65-5.18 5.94-16.43 9.52-25 9.27-22.2 15.59-39 19.24-51.08 1.75-5.77 4.46-14.32 6-19s7.14-25.19 12.37-45.6 11.6-43.51 14.15-51.34c4.32-13.2 4.82-14.2 6.82-13.66 14.35 3.9 29.65 3.29 50.51-2 7.77-2 14.43-3.4 15.46-3.34Zm17.24 32.23a24.26 24.26 0 0 1 5.61 2.3 97 97 0 0 0 12.1 4.9l6.75 2.16.54 13.67c.3 7.52.41 13.64.25 13.59-4.83-1.42-6.67-2.25-9.88-4.48-4.55-3.15-7.68-7.07-11.19-14-2.41-4.76-5.4-17.09-4.39-18.1 0 0 .11-.05.21 0Zm23 41.35a5.35 5.35 0 0 1 1 .11c2.42.46 2.5.75 2.5 8.35 0 4.34-.16 7.89-.35 7.89-.45 0-4.65-14.12-4.65-15.61 0-.48.59-.75 1.5-.74ZM830 696.14c.52 0 1.23 2.38 1.6 5.28.72 5.78.52 6.37-12.75 37.22-11.73 27.3-15.54 39.74-25.25 82.5-6.45 28.41-12.79 50.92-14.69 52.15A22.37 22.37 0 0 1 774 875c-6.81 1.79-10 2.23-10 1.4 0-2.19 8.49-33.76 13.52-50.32 12.23-40.19 19.31-59.78 32-88.5 9-20.38 19.38-41.5 20.42-41.5Zm4.67 20 3.27 13.74c15.77 66.2 19.1 84.59 21.17 116.73 1.93 30.09 3.75 33.13 21 35.08 5.06.57 6 1 6 2.64 0 2.24 5.46 7.78 7.67 7.78 1.19 0 1.33 1.21.81 6.75a67.22 67.22 0 0 0 2 21.5l.7 2.75h-70.68c-22.1 0-60.79-.29-60.79-.29-6.08-.08-9.82-.18-9.82-.28 0-1.27 11.19-37.93 12.1-39.61.53-1 5-2.41 7.07-3.23l4.24-1.82c4.05-1.91 5.22-3.08 6.56-6.21 2.23-5.21 9.69-33.8 15-57.56 2.28-10.18 5.51-23.45 7.16-29.5 4.18-15.3 14.7-43.82 21.09-57.24Zm-657.9 111 2.4 2.58c1.33 1.42 5.9 5.53 10.16 9.14S197 845.69 197 846s-2.14 1.94-4.75 3.59c-6.21 3.93-17.84 13.25-22.25 17.84-1.92 2-3.8 3.65-4.17 3.65-1.56 0-6.67-5.18-7.82-8s-1-3.45 3.82-10.77c2.79-4.26 7.28-11.68 10-16.48Zm25.53 23.14 10.14 5.31c19.14 10 39.3 16.79 57.37 19.2a13.4 13.4 0 0 0 12.61-4.79c2.15-2.55 2.71-2.73 5.73-1.87a43.83 43.83 0 0 0 9.49 1h6.15l.45 4.25c.24 2.34-1.1 9.51-.71 13.21s.13 13.18-.6 21.54l-1.3 15H189.5l-3.71-3.45a21.52 21.52 0 0 0-8.16-4.57c-4.37-1.09-4.54-1.3-9-10.6a59 59 0 0 1-4.23-11.82c-.23-1.23.39-5.42 1.47-9.48l2-7.42 10.13-8.51c6-5 14.33-10.3 17.83-12.67Zm-51.4 11.84c.33 0 1.43 2 2.44 4.47a13.94 13.94 0 0 0 5.28 6.61c2.24 1.38 3.29 2.7 3 3.76-.25.91-.72 2.89-1.06 4.4-.44 2-1.22 2.75-2.87 2.75-5.17 0-10.62 5.93-10.67 11.6-.05 6.5 5.58 9.68 10.53 5.94 2.42-1.84 3.44-1.91 3.44-.23 0 .72 1.52 3.84 3.38 6.92l3.38 5.62-2.38.59c-1.31.33-2.38 1.26-2.38 2.06 0 1.55.51 1.7 11.38 3.33 3.79.57 7.36 1.52 8 2.11.76.75-3.58 1-14.88.93-8.77-.07-16.85-.33-17.95-.56-1.31-.28-5.37-5.89-11.67-16.12l-8-13c-1.09-2.79-.05-4.63 1.62-6.19a58.34 58.34 0 0 0 6.6-8.5c4.38-6.6 12.1-16.5 12.86-16.5Zm175 4.36a2.86 2.86 0 0 1 .84.07c.25.26.15 2.55-.23 5.1-.61 4.05-1.12 4.81-4.09 6.05a14.93 14.93 0 0 1-11.27.36c-2-.79-2.26-1.52-2-5.15l.31-4.22 8.41-1.3a77.79 77.79 0 0 1 8-.91Zm600.1 9.59v3.31a19.46 19.46 0 0 1-2 7.23c-1.1 2.16-2 4-2 4.16s4.61 3.41 10.25 7.28c12.33 8.47 16.19 11.56 13.25 10.59-10.23-3.36-27-3.26-34.73.22a29.42 29.42 0 0 0-7.22 4.61l-2.48 2.49-.48-3.17c-.27-1.75-.72-6.66-1-10.93l-.54-7.75h7.23a57.05 57.05 0 0 0 9.49-.61c2.36-.63 3.17-3.38 1-3.38-5 0-18.19-2.15-21.15-3.39-5.55-2.32-4.43-3.59 3.15-3.62 7.85 0 17.63-2.12 23.28-5Zm-193 3a21.22 21.22 0 0 1 4.8 1.31 66.9 66.9 0 0 0 14.75 2.46l9 .49-4.25 13c-2.33 7.15-4.84 16-5.58 19.63l-1.34 6.63-14.41.25-14.42.25-3.17-3.83c-1.77-2.15-6.27-5.47-10.25-7.57s-7.08-3.91-7.08-4.14 2.26-1.58 5-3c4.44-2.26 5.49-2.43 9-1.48 2.19.59 4.43.81 5 .48 1.74-1.08 1-3.23-1.27-3.89-2.11-.59-2.14-.7-.42-1.71 1.44-.85 3.14-.5 7.78 1.58 3.27 1.47 6.68 2.53 7.58 2.36 3.23-.63 2.39-2.82-2.12-5.55-2.51-1.52-4.57-3-4.57-3.4s1.1-1.37 2.45-2.25a4.76 4.76 0 0 1 5.07-.62c3.92 1.5 15 1.26 16.35-.35 1.54-1.86.41-2.66-3.79-2.66-7.55 0-15.08-3.68-15.08-7.34 0-.39.17-.62.63-.67h.34Zm-405.49 2.29h.16a30.52 30.52 0 0 1 1.81 3.89c1.4 3.36 1.37 3.69-.57 5.45-5.14 4.66-6.55 13.94-2.83 18.68 4.21 5.35 8.81 4.33 11.41-2.55l1.62-4.26 7.25 7a75.79 75.79 0 0 0 13.22 10.22l6 3.23h-28.64c-25.9 0-28.7-.13-29.29-1.64-.35-.92-.13-6.09.5-11.48a142.29 142.29 0 0 0 .79-18.34c-.26-6.25 0-8.41.82-8.07a15.67 15.67 0 0 0 12.87-.35 27.37 27.37 0 0 1 4.91-1.82Zm-169.29 8.19c.38 0 .54.32.67 1 .19 1-.68 2.83-1.92 4.15s-2.87 2.41-3.59 2.41c-2.36 0-1.41-2.75 1.92-5.56 1.59-1.33 2.43-2 2.92-2Zm175.52 4.94c.34 0 .64.33.86.89.38 1-.07 3.8-1 6.25-2.1 5.5-3.54 5.73-3.54.57 0-3.85 2.23-7.92 3.69-7.71ZM922.21 896c-5.38 0-12.29 1.25-15 3.36-1 .75-1 1.31-.09 2.39a4 4 0 0 0 3.76.91c1.42-.28 5.29-.81 8.59-1.18 8.46-.95 11.06-2 9.48-3.92-.84-1.02-3.51-1.5-6.74-1.56Zm-228.64 15.86c3 0 16.54 6.61 18.87 9.19l1.87 2.06h-20.37c-17.69 0-20.18-.19-18.9-1.43 2.65-2.59 16.29-9.82 18.53-9.82Zm231.61.33c1.27 0 2.63 0 4.07.07 9.22.35 11.08.74 16.88 3.6 3.58 1.76 7.34 4.11 8.35 5.23l1.83 2h-25.65c-27.91 0-28.3-.09-23.07-5.32 4-4 8.7-5.56 17.59-5.6Z" class="color483613 svgShape"></path></svg>