<svg xmlns="http://www.w3.org/2000/svg" data-name="Layer 1" viewBox="0 0 700 550" id="Witnesstakingoathtospeaktruth"><rect width="41.04" height="5.85" x="393.863" y="188.888" fill="#3e53a4" transform="rotate(-180 414.383 191.813)" class="colora44f3e svgShape"></rect><path fill="#6cb1f6" d="M506.80468,200.14488s-43.84223.82483-60.09917-.30069-5.39593-12.33164-3.83184-12.27079,21.9668-6.94491,47.703-6.57795l18.08392,2.52448Z" class="colorf6a96c svgShape"></path><path fill="#6cb1f6" d="M445.1318,201.58894c-4.83925-2.30385-12.643-1.266-14.82851-.8206S407.978,196.213,407.82212,195.448s-1.08083-2.51126,1.93847-2.21606,18.81578,2.08381,20.30719.07268,1.2019-3.43172-1.94688-3.24528-8.0439,1.29783-7.59488-1.52519,25.126-3.95358,30.842,1.81354" class="colorf6a96c svgShape"></path><path fill="#3f4043" d="M445.12841,203.67238s-7.03923-17.82856-5.23569-21.00358,40.10226-7.473,40.10226-7.473l18.46437,32.0011Z" class="color433f43 svgShape"></path><path fill="#6cb1f6" d="M314.50017,156.60817s41.78222,13.30648,56.81537,19.59608a25.6541,25.6541,0,0,1,2.59245,1.2477,34.04684,34.04684,0,0,0,11.4302,1.24119c2.22423-.16562,21.5708,7.33959,21.62879,8.11805.058.7787.75493,2.62767-2.203,1.95363-2.95777-.67451-18.40165-4.44455-20.13521-2.63786-1.73358,1.80643-1.62584,3.25229,1.52124,3.46508,3.14711.21305,8.1434-.27115,7.34132,2.47274-.70265,2.40339-19.68305,1.169-27.70138-3.50505a165.84577,165.84577,0,0,1-42.07565-8.60323l-16.31368-8.20157Z" class="colorf6a96c svgShape"></path><path fill="#021b79" d="M331.92638,468s-.652-5.70516-8.47624-8.80225-10.43229-8.80225-10.43229-8.80225l-23.98963,1.01336-.78707,12.679h.22639a.90558.90558,0,0,0-.90558.90558v2.101a.90558.90558,0,0,0,.90558.90558Z" class="color302e30 svgShape"></path><path fill="#6cb1f6" d="M314.03127,430.1929s-5.57755,15.80148-1.01342,20.2026c0,0-3.239.61573-4.86907,12.84107l-19.90763.85132s-.38638-3.86381.78707-12.679c.34586-2.59817.58408-5.20954.68937-7.82852l1.67327-12.00334Z" class="colorf6a96c svgShape"></path><path fill="#5570d8" d="M289.60451,445.67617l-.00044-.00406c.04643-.69668.08556-1.39391.11364-2.09178l.47954-11.93036h19.23454S293.99556,436.97026,289.60451,445.67617Z" class="colord88a55 svgShape"></path><path fill="#021b79" d="M309.06765,458.07609s-19.47784-2.61212-19.665-9.9239c0,0-.68759.29518-1.29222,1.8433a8.408,8.408,0,0,0-.54844,3.06127V468h22.4985Z" class="color302e30 svgShape"></path><polygon fill="#6cb1f6" points="335.83 199.029 335.83 204.322 284.588 204.322 284.588 198.992 335.83 199.029" class="colorf6a96c svgShape"></polygon><path fill="#0575e6" d="M335.82978,204.32162s10.68447,91.31015,4.37047,129.67984c0,0-8.25677,80.13924-12.14231,106.36662H276.57456s7.28538-102.96677,5.34261-124.33723-8.74246-50.02631-8.25677-65.08277,10.92808-46.62646,10.92808-46.62646Z" class="color6354b1 svgShape"></path><path fill="#5570d8" d="M259.92008,262.54407s-.8539,6.48777-.12536,7.21631,10.36143,8.33772,13.43748,8.49962.60917-3.32685-1.78087-5.26167-3.36136-6.03216-3.36136-6.03216,2.92258-5.74551,2.65628-7.58727S259.92008,262.54407,259.92008,262.54407Z" class="colord88a55 svgShape"></path><path fill="#4168fd" d="M325.26521,132.37844s8.6733,11.89451,10.56457,34.48827c1.15909,13.847,3.76411,37.21206,0,37.45491s-51.2413,0-51.2413,0l-4.61408-25.7417-16.5273-.3935s3.51907-59.78514,31.58376-64.325Z" class="colorfdb441 svgShape"></path><path fill="#6cb1f6" d="M316.887,67.35638s10.84713,3.39985,8.74246,17.97062c0,0,4.43194,5.70688,4.97835,6.25329s.12142,2.00348-2.79273,2.97486a5.58335,5.58335,0,0,1,.97138,2.42846c0,1.0321-.66783,3.6427-.66783,4.67479s.18214,6.67827-3.88554,6.98183-6.43542.66783-7.34609,1.5785a9.1492,9.1492,0,0,0-1.45708,8.98531c1.5785,4.49265,9.83527,13.1744,9.83527,13.1744s-16.27069-2.61059-30.23435-18.517c0,0,6.43543-4.54925,6.07116-18.63432,0,0-5.04136-12.74943.78694-15.05647a10.24957,10.24957,0,0,1,4.79852,6.61345l-3.7034-14.06073A61.41191,61.41191,0,0,1,316.887,67.35638Z" class="colorf6a96c svgShape"></path><path fill="#5570d8" d="M259.8407,262.54254s-.8539,6.48777-.12536,7.21631,10.36143,8.33772,13.43749,8.49962.60916-3.32685-1.78088-5.26167-3.36136-6.03216-3.36136-6.03216,2.92258-5.74551,2.65628-7.58728S259.8407,262.54254,259.8407,262.54254Z" class="colord88a55 svgShape"></path><path fill="#6cb1f6" d="M270.82468,251.00716l2.176,2.74039c.02024.07758.04722.17877.07421.31031.715,3.2683,4.62066,14.48829,1.81781,15.54063-2.22946.83647-2.68142-2.162-2.98835-5.14025-.09444-.91742-.17539-1.83146-.29007-2.63083a4.08043,4.08043,0,0,0-.94778-2.4487c-.742-.6712-1.791-.199-2.93776,1.07594-.65433.72854-.38451,3.329.28332,6.50963a.13231.13231,0,0,0,.01012.04722c.62735,3.00185,1.59874,6.51637,2.46894,9.44739.09781.34066.199.6712.29343.995.64085,2.12154,1.18388,3.83495,1.43684,4.65118.97139,3.157-1.0928,2.54989-1.94276,2.54989-.10119,0-.33055-.29344-.65434-.81286-1.09955-1.75726-3.28854-6.115-5.32912-10.51322a91.6707,91.6707,0,0,1-4.45556-10.783v-.00337a3.16058,3.16058,0,0,1-.12479-.71505c0-1.85845.36043.22,1.35543-10.617Z" class="colorf6a96c svgShape"></path><polygon fill="#f7f8fa" points="280.076 268.768 269.821 260.684 269.821 267.057 275.441 275.718 280.076 268.768" class="colorfaf7f7 svgShape"></polygon><path fill="#3f4043" d="M321.28079 87.48447a1.51869 1.51869 0 000-3.03557 1.51869 1.51869 0 000 3.03557zM324.59973 82.43188a13.96281 13.96281 0 00-2.875-.35253 8.36225 8.36225 0 00-1.37927.09765c-.47461.0564-.944.179-1.49317.25488a3.18062 3.18062 0 011.26185-1.00988 3.7472 3.7472 0 011.61377-.35388 3.882 3.882 0 011.61.35131A2.98955 2.98955 0 01324.59973 82.43188z" class="color433f43 svgShape"></path><ellipse cx="302.984" cy="88.865" fill="#5570d8" rx="1.882" ry="2.898" class="colord88a55 svgShape"></ellipse><path fill="#5570d8" d="M315.79129,120.07175c-3.14468-1.388-7.88958-7.42456-7.88958-7.42456,2.87368-.60711,8.98527-2.42847,8.98527-2.42847a9.40183,9.40183,0,0,0-1.09569,9.853Z" class="colord88a55 svgShape"></path><path fill="#3f4043" d="M322.79253,71.76377s-12.58878-1.44912-11.92537.87282,3.64877,4.80973,1.65853,7.62923a17.313,17.313,0,0,0-2.48779,6.8H306.615s-1.05514-5.639-4.3722-3.98047S299.01,92.27958,301.332,94.104c0,0-.01977,10.71556-1.41523,11.476,0,0-11.20079-18.17463-11.78906-21.44281-.72854-4.04744.18349-14.98345,11.21271-17.80295S318.895,66.12477,322.79253,71.76377Z" class="color433f43 svgShape"></path><path fill="#4c63bb" d="M328.78648,96.98361s-2.36775.18214-2.67131,1.5785h2.67131S329.45431,97.65144,328.78648,96.98361Z" class="colorbb5d4c svgShape"></path><path fill="#3e53a4" d="M326.11517,98.56211a2.51907,2.51907,0,0,0,1.36119,2.19042,1.285,1.285,0,0,0,1.62245-1.807,1.80647,1.80647,0,0,0-.31233-.3834Z" class="colora44f3e svgShape"></path><path fill="#3f4043" d="M327.8151,94.55515s-3.50893-.59387-5.48893.36613a2.45168,2.45168,0,0,0-1.68,2.52l8.14031-.45767A3.44464,3.44464,0,0,0,327.8151,94.55515Z" class="color433f43 svgShape"></path><path fill="#6cb1f6" d="M269.02285,178.26614s-5.34259,35.47773-6.07113,53.2055-3.157,27.92731-3.157,30.35577,9.71384,22.82754,10.5638,22.82754,2.91416.60711,1.94277-2.54989-6.314-19.62075-4.49265-21.64912,3.39985-2.02838,3.88554,1.37147.36427,8.86388,3.27842,7.77108-.12142-18.942,0-20.64193a134.02014,134.02014,0,0,1,12.82653-44.63494l-.5628-26.07327Z" class="colorf6a96c svgShape"></path><path fill="#021b79" d="M483.83649,480s.652-5.70516,8.47623-8.80225,10.4323-8.80225,10.4323-8.80225l23.98963,1.01336.78707,12.679h-.2264a.90558.90558,0,0,1,.90558.90558v2.101a.90558.90558,0,0,1-.90558.90558Z" class="color302e30 svgShape"></path><path fill="#6cb1f6" d="M501.73159,442.1929s5.57756,15.80148,1.01343,20.2026c0,0,3.239.61573,4.86907,12.84107l19.90763.85132s.38638-3.86381-.78707-12.679c-.34586-2.59817-.58409-5.20954-.68937-7.82852L524.372,443.577Z" class="colorf6a96c svgShape"></path><path fill="#5570d8" d="M526.15835,457.67617l.00045-.00406c-.04643-.69668-.08557-1.39391-.11364-2.09178L525.56561,443.65H506.33108S521.7673,448.97026,526.15835,457.67617Z" class="colord88a55 svgShape"></path><path fill="#021b79" d="M506.69522,470.07609s19.47783-2.61212,19.665-9.9239c0,0,.68759.29518,1.29222,1.8433a8.40818,8.40818,0,0,1,.54843,3.06127V480H505.7024Z" class="color302e30 svgShape"></path><polygon fill="#6cb1f6" points="479.933 211.029 479.933 216.322 531.174 216.322 531.174 210.992 479.933 211.029" class="colorf6a96c svgShape"></polygon><path fill="#021b79" d="M479.93309,216.32162s-10.68447,91.31015-4.37047,129.67984c0,0,8.25677,80.13924,12.1423,106.36662h51.48339s-7.28539-102.96677-5.34262-124.33723,8.74247-50.02631,8.25677-65.08277-10.92807-46.62646-10.92807-46.62646Z" class="color302e30 svgShape"></path><path fill="#5570d8" d="M555.84278,274.54407s.85391,6.48777.12537,7.21631-10.36144,8.33772-13.43749,8.49962-.60917-3.32685,1.78087-5.26167,3.36137-6.03216,3.36137-6.03216-2.92258-5.74551-2.65628-7.58727S555.84278,274.54407,555.84278,274.54407Z" class="colord88a55 svgShape"></path><path fill="#6cb1f6" d="M546.74,190.26614s5.34259,35.47773,6.07113,53.2055,3.157,27.92731,3.157,30.35577S546.2543,296.655,545.40434,296.655s-2.91415.60711-1.94277-2.54989,6.314-19.62075,4.49266-21.64912-3.39985-2.02838-3.88554,1.37147-.36427,8.86388-3.27843,7.77108.12143-18.942,0-20.64193-1.98324-28.81774-12.83037-50.83579l.56664-19.87242Z" class="colorf6a96c svgShape"></path><path fill="#dde6ef" d="M490.49765,144.37844s-8.6733,11.89451-10.56456,34.48827c-1.1591,13.847-3.76412,37.21206,0,37.45491s51.2413,0,51.2413,0l4.61407-25.7417,16.5273-.3935s-5.59922-43.31881-31.58376-64.325Z" class="colorefe2dd svgShape"></path><path fill="#6cb1f6" d="M498.87585,79.35638s-10.84713,3.39985-8.74246,17.97062c0,0-4.432,5.70688-4.97835,6.25329s-.12142,2.00348,2.79273,2.97486a5.58335,5.58335,0,0,0-.97138,2.42846c0,1.0321.66782,3.6427.66782,4.67479s-.18213,6.67827,3.88554,6.98183,6.43542.66783,7.3461,1.5785a9.14921,9.14921,0,0,1,1.45707,8.98531c-1.5785,4.49265-9.83527,13.1744-9.83527,13.1744s16.2707-2.61059,30.23435-18.517c0,0-6.43542-4.54925-6.07115-18.63432,0,0,5.04136-12.74943-.78695-15.05647a10.24957,10.24957,0,0,0-4.79851,6.61345l3.7034-14.06073A61.41191,61.41191,0,0,0,498.87585,79.35638Z" class="colorf6a96c svgShape"></path><path fill="#3f4043" d="M495.77913,142.92638s15.1176-5.04407,24.95287-17.065c0,0,24.31213,15.87719,31.58376,61.68293s7.27163,75.768,7.27163,75.768l-17.48493-.36427.02476,108.55223s-45.92268,2.42921-49.56537,1.761S493.25517,150.95049,495.77913,142.92638Z" class="color433f43 svgShape"></path><path fill="#021b79" d="M542.10246,262.94808s-7.28538-77.4666-10.92807-82.80988c0,0,12.02088,25.61961,16.02784,82.80988Z" class="color302e30 svgShape"></path><path fill="#5570d8" d="M555.92216,274.54254s.85391,6.48777.12537,7.21631-10.36144,8.33772-13.43749,8.49962-.60917-3.32685,1.78087-5.26167,3.36137-6.03216,3.36137-6.03216-2.92259-5.74551-2.65628-7.58728S555.92216,274.54254,555.92216,274.54254Z" class="colord88a55 svgShape"></path><polygon fill="#f7f8fa" points="563.635 258.739 584.52 288.204 537.934 323.683 517.008 295.489 563.635 258.739" class="colorfaf7f7 svgShape"></polygon><line x1="527.96" x2="539.87" y1="296.702" y2="312.974" fill="none" stroke="#2e2e30" stroke-miterlimit="10" stroke-width=".675" class="colorStroke302e30 svgStroke"></line><line x1="539.157" x2="551.068" y1="293.636" y2="309.908" fill="none" stroke="#2e2e30" stroke-miterlimit="10" stroke-width=".675" class="colorStroke302e30 svgStroke"></line><line x1="542.802" x2="554.713" y1="291.211" y2="307.483" fill="none" stroke="#2e2e30" stroke-miterlimit="10" stroke-width=".675" class="colorStroke302e30 svgStroke"></line><line x1="545.942" x2="557.852" y1="288.565" y2="304.838" fill="none" stroke="#2e2e30" stroke-miterlimit="10" stroke-width=".675" class="colorStroke302e30 svgStroke"></line><line x1="549.399" x2="561.309" y1="286.032" y2="302.304" fill="none" stroke="#2e2e30" stroke-miterlimit="10" stroke-width=".675" class="colorStroke302e30 svgStroke"></line><line x1="550.013" x2="561.923" y1="272.579" y2="288.851" fill="none" stroke="#2e2e30" stroke-miterlimit="10" stroke-width=".675" class="colorStroke302e30 svgStroke"></line><line x1="553.632" x2="565.543" y1="270.025" y2="286.298" fill="none" stroke="#2e2e30" stroke-miterlimit="10" stroke-width=".675" class="colorStroke302e30 svgStroke"></line><path fill="#6cb1f6" d="M544.93818,263.00716l-2.17595,2.74039c-.02024.07758-.04722.17877-.0742.31031-.71505,3.2683-4.62067,14.48829-1.81782,15.54063,2.22947.83647,2.68143-2.162,2.98836-5.14025.09444-.91742.17539-1.83146.29007-2.63083a4.08049,4.08049,0,0,1,.94777-2.4487c.742-.6712,1.791-.199,2.93776,1.07594.65434.72854.38451,3.329-.28332,6.50963a.13249.13249,0,0,1-.01011.04722c-.62736,3.00185-1.59874,6.51637-2.46894,9.44739-.09781.34066-.199.6712-.29344.995-.64084,2.12154-1.18387,3.83495-1.43684,4.65118-.97138,3.157,1.09281,2.54989,1.94277,2.54989.10119,0,.33054-.29344.65434-.81286,1.09955-1.75726,3.28854-6.115,5.32912-10.51322a91.672,91.672,0,0,0,4.45555-10.783v-.00337a3.16072,3.16072,0,0,0,.1248-.71505c0-1.85845-.36044.22-1.35543-10.617Z" class="colorf6a96c svgShape"></path><polygon fill="#f7f8fa" points="535.686 280.768 545.942 272.684 545.942 279.057 540.322 287.718 535.686 280.768" class="colorfaf7f7 svgShape"></polygon><path fill="#f7f8fa" d="M520.732,125.86143a9.784,9.784,0,0,1-1.61034-1.42678c-6.58878,8.89422-25.92724,16.95883-25.92732,16.95883-1.53508,1.76357-2.69665,2.985-2.69665,2.985S506.76835,141.76784,520.732,125.86143Z" class="colorfaf7f7 svgShape"></path><path fill="#f7f8fa" d="M492.07615,143.71061s-.54342,30.04169-3.94251,43.23567a63.49743,63.49743,0,0,0-6.36641-3.15766l8.73043-39.41018Z" class="colorfaf7f7 svgShape"></path><path fill="#3f4043" d="M494.48207 99.48447a1.51869 1.51869 0 000-3.03557 1.51869 1.51869 0 000 3.03557zM491.16321 94.43188a2.98848 2.98848 0 011.26172-1.01245 3.88235 3.88235 0 011.61-.35131 3.74726 3.74726 0 011.61377.35388 3.17969 3.17969 0 011.26184 1.00988c-.54907-.07592-1.01843-.19848-1.49316-.25488a8.36225 8.36225 0 00-1.37927-.09765A13.96075 13.96075 0 00491.16321 94.43188z" class="color433f43 svgShape"></path><ellipse cx="512.779" cy="100.865" fill="#5570d8" rx="1.882" ry="2.898" class="colord88a55 svgShape"></ellipse><path fill="#5570d8" d="M499.97157,132.07175c3.14469-1.388,7.88959-7.42456,7.88959-7.42456-2.87369-.60711-8.98527-2.42847-8.98527-2.42847a9.40185,9.40185,0,0,1,1.09568,9.853Z" class="colord88a55 svgShape"></path><path fill="#3f4043" d="M492.97033,83.76377s12.58878-1.44912,11.92537.87282-3.64876,4.80973-1.65853,7.62923a17.31287,17.31287,0,0,1,2.4878,6.8h3.42288s1.05514-5.639,4.3722-3.98047,3.23279,9.19426.91085,11.01864c0,0,.01976,10.71556,1.41522,11.476,0,0,11.20079-18.17463,11.78906-21.44281.72854-4.04744-.18348-14.98345-11.2127-17.80295S496.86788,78.12477,492.97033,83.76377Z" class="color433f43 svgShape"></path><path fill="#3f4043" d="M509.07539,98.78408l-1.44-1.40552L505.797,98.54123s-9.55288,11.454-13.49693,10.03607c-1.96794-1.55517-5.54259-.8538-5.54259-.8538s-1.59854,6.6772,0,10.25089c1.09347,2.44419,6.61645,3.16315,9.99847,3.37346a8.20746,8.20746,0,0,0,5.35374-1.55307C505.9336,117.00184,512.16129,110.45715,509.07539,98.78408Z" class="color433f43 svgShape"></path><path fill="#4c63bb" d="M486.97639,108.98361s2.36775.18214,2.6713,1.5785h-2.6713S486.30856,109.65144,486.97639,108.98361Z" class="colorbb5d4c svgShape"></path><path fill="#3e53a4" d="M489.64769,110.56211a2.519,2.519,0,0,1-1.36119,2.19042,1.285,1.285,0,0,1-1.62244-1.807,1.80647,1.80647,0,0,1,.31233-.3834Z" class="colora44f3e svgShape"></path><ellipse cx="365.159" cy="277.377" fill="#5d6dab" rx="22.8" ry="25.714" class="colorab695d svgShape"></ellipse><path fill="#5d6dab" d="M342.35832,351.43235c0-9.72733,4.79164-18.18931,11.85619-22.55785V282.52008h21.88835V328.8745c7.06455,4.36854,11.85619,12.83052,11.85619,22.55785a28.98654,28.98654,0,0,1-.48876,5.3195c-6.49886,34.82189-11.36741,70.0052-11.36742,105.59005v9.42977H354.21451v-9.4298c0-35.58483-4.86855-70.76813-11.36742-105.59A28.98675,28.98675,0,0,1,342.35832,351.43235Z" class="colorab695d svgShape"></path><ellipse cx="289.558" cy="277.377" fill="#5d6dab" rx="22.8" ry="25.714" class="colorab695d svgShape"></ellipse><path fill="#5d6dab" d="M266.7576,351.43235c0-9.72733,4.79164-18.18931,11.85619-22.55785V282.52008h21.88835V328.8745c7.06455,4.36854,11.85618,12.83052,11.85618,22.55785a28.98654,28.98654,0,0,1-.48876,5.3195c-6.49886,34.82189-11.36741,70.0052-11.36742,105.59005v9.42977H278.61379v-9.4298c0-35.58483-4.86856-70.76813-11.36743-105.59A28.98675,28.98675,0,0,1,266.7576,351.43235Z" class="colorab695d svgShape"></path><ellipse cx="214.114" cy="277.377" fill="#5d6dab" rx="22.8" ry="25.714" class="colorab695d svgShape"></ellipse><path fill="#5d6dab" d="M191.31316,351.43235c0-9.72733,4.79164-18.18931,11.85619-22.55785V282.52008H225.0577V328.8745c7.06455,4.36854,11.85619,12.83052,11.85619,22.55785a28.98741,28.98741,0,0,1-.48876,5.3195c-6.49886,34.82189-11.36742,70.0052-11.36743,105.59005v9.42977H203.16935v-9.4298c0-35.58483-4.86855-70.76813-11.36743-105.59A28.98763,28.98763,0,0,1,191.31316,351.43235Z" class="colorab695d svgShape"></path><ellipse cx="138.965" cy="277.377" fill="#5d6dab" rx="22.8" ry="25.714" class="colorab695d svgShape"></ellipse><path fill="#5d6dab" d="M116.1649,351.43235c0-9.72733,4.79164-18.18931,11.85619-22.55785V282.52008h21.88835V328.8745c7.06455,4.36854,11.85619,12.83052,11.85619,22.55785a28.98653,28.98653,0,0,1-.48877,5.3195c-6.49886,34.82189-11.36741,70.0052-11.36742,105.59005v9.42977H128.02109v-9.4298c0-35.58483-4.86855-70.76813-11.36743-105.59A28.98675,28.98675,0,0,1,116.1649,351.43235Z" class="colorab695d svgShape"></path><ellipse cx="136.165" cy="227.766" fill="#5d6dab" rx="20.684" ry="23.327" class="colorab695d svgShape"></ellipse><ellipse cx="367.275" cy="227.766" fill="#5d6dab" rx="20.684" ry="23.327" class="colorab695d svgShape"></ellipse><rect width="272.479" height="34.97" x="115.48" y="231.093" fill="#86a4c3" transform="rotate(-180 251.72 248.578)" class="colorc38f86 svgShape"></rect><rect width="272.479" height="34.97" x="115.48" y="445.03" fill="#86a4c3" transform="rotate(-180 251.72 462.515)" class="colorc38f86 svgShape"></rect></svg>