<svg xmlns="http://www.w3.org/2000/svg" data-name="Layer 1" viewBox="0 0 250 250" id="Womanworkingonnetworkmaintenance"><rect width="189.8" height="1.44" x="26.78" y="230.91" fill="#021b79" class="color1e3d50 svgShape"></rect><path fill="#e6eaef" d="M21,128.05c7.52-48.8,49.92-138.89,112.1-102.67,53.38,31.1,16.65,68.82,60.54,84.35,74.93,26.5,9.81,138.24-81.08,118.94S14,173.45,21,128.05Z" class="colore6ebef svgShape"></path><path fill="#e6eaef" d="M171.73,41.43c-3.52,17.79,2.66,50.95,37.43,62.3s22.7-15.94,0-38.16S177.05,14.62,171.73,41.43Z" class="colore6ebef svgShape"></path><path fill="#aab6c2" d="M189.3,176.79H171.48V167H189.3Zm-16.8-1h15.78v-7.72H172.5Z" class="coloraab6c2 svgShape"></path><path fill="#aab6c2" d="M201.51 185.54H183.68v-9.77h17.83zm-16.8-1h15.78v-7.72H184.71zM145.35 92.86H127.52V83.09h17.83zm-16.81-1h15.78V84.11H128.54zM114 200.68H96.19v-9.77H114zm-16.8-1H113v-7.73H97.22z" class="coloraab6c2 svgShape"></path><path fill="#aab6c2" d="M130.84,200.68H113v-9.77h17.83Zm-16.8-1h15.78v-7.73H114Z" class="coloraab6c2 svgShape"></path><path fill="#aab6c2" d="M122.42 209.42H104.59v-9.76h17.83zm-16.8-1H121.4v-7.72H105.62zM88.17 144.5H70.34v-9.76H88.17zm-16.8-1H87.15v-7.72H71.37z" class="coloraab6c2 svgShape"></path><path fill="#aab6c2" d="M76 153.25H58.14v-9.77H76zm-16.8-1H74.94V144.5H59.16zM58.38 104.33H40.56V94.56H58.38zm-16.8-1H57.36V95.58H41.58z" class="coloraab6c2 svgShape"></path><path fill="#aab6c2" d="M75.21,104.33H57.38V94.56H75.21Zm-16.81-1H74.18V95.58H58.4Z" class="coloraab6c2 svgShape"></path><path fill="#aab6c2" d="M66.78,113.07H49v-9.76H66.78Zm-16.8-1H65.76v-7.72H50Z" class="coloraab6c2 svgShape"></path><rect width="22.92" height="177.2" x="183.81" y="54.18" fill="#021b79" class="color1e3d50 svgShape"></rect><path fill="#ffffff" d="M117.37,231.17V54.4h70.9V231.17ZM184,199.42H121.61v24.39H184Zm0-27.62H121.61v24.39H184Zm0-27.63H121.61v24.4H184Zm0-27.62H121.61v24.39H184Zm0-27.62H121.61v24.39H184Zm0-27.63H121.61V85.7H184Z" class="colorffffff svgShape"></path><path fill="#021b79" d="M117.59,54.62h70.46V231H117.59V54.62Zm66.65,31.3V61.08H121.39V85.92h62.85Zm0,27.62V88.71H121.39v24.83h62.85Zm0,27.62V116.33H121.39v24.83h62.85Zm0,27.63V144H121.39v24.83h62.85Zm0,27.62V171.58H121.39v24.83h62.85Zm0,27.62V199.2H121.39V224h62.85ZM117.15,54.18V231.39h71.34V54.18Zm66.66,31.3h-62v-24h62v24Zm0,27.62h-62V89.15h62V113.1Zm0,27.62h-62v-24h62v24Zm0,27.63h-62v-24h62v24Zm0,27.62h-62V172h62V196Zm0,27.63h-62v-24h62v24Z" class="color1e3d50 svgShape"></path><rect width="61.98" height="23.95" x="121.83" y="61.52" fill="#aab6c2" class="coloraab6c2 svgShape"></rect><rect width="22.21" height="19.6" x="124.86" y="63.7" fill="#021b79" rx=".91" class="color1e3d50 svgShape"></rect><rect width="2.72" height="19.6" x="177.93" y="63.7" fill="#62a9f0" rx=".32" class="colorf0c562 svgShape"></rect><rect width="18.37" height="3.67" x="126.91" y="65.67" fill="#ffffff" rx="1.6" class="colorffffff svgShape"></rect><rect width="18.37" height="3.67" x="126.91" y="65.67" fill="#ffffff" rx="1.6" class="colorffffff svgShape"></rect><rect width="10.61" height="1.29" x="130.79" y="66.86" fill="#021b79" class="color1e3d50 svgShape"></rect><rect width="8.16" height="4.21" x="149.61" y="65.3" fill="#021b79" class="color1e3d50 svgShape"></rect><rect width="8.16" height="4.21" x="161.39" y="65.3" fill="#021b79" class="color1e3d50 svgShape"></rect><rect width="11.99" height="4.21" x="163.28" y="72.17" fill="#021b79" class="color1e3d50 svgShape"></rect><rect width="10.16" height="1.55" x="164.19" y="73.5" fill="#ffffff" class="colorffffff svgShape"></rect><rect width="11.99" height="4.21" x="163.28" y="78.61" fill="#021b79" class="color1e3d50 svgShape"></rect><rect width="10.16" height="1.55" x="164.19" y="79.94" fill="#ffffff" class="colorffffff svgShape"></rect><rect width="18.37" height="3.67" x="126.91" y="71.66" fill="#ffffff" rx="1.6" class="colorffffff svgShape"></rect><rect width="18.37" height="3.67" x="126.91" y="77.66" fill="#ffffff" rx="1.6" class="colorffffff svgShape"></rect><rect width="10.61" height="1.29" x="130.79" y="72.86" fill="#021b79" class="color1e3d50 svgShape"></rect><rect width="10.61" height="1.29" x="130.79" y="78.85" fill="#021b79" class="color1e3d50 svgShape"></rect><path fill="#62a9f0" d="M149.89,74.61A1.3,1.3,0,1,1,151.18,76,1.33,1.33,0,0,1,149.89,74.61Z" class="colorf0c562 svgShape"></path><path fill="#ffffff" d="M154.2,74.61A1.3,1.3,0,1,1,155.49,76,1.33,1.33,0,0,1,154.2,74.61Z" class="colorffffff svgShape"></path><path fill="#62a9f0" d="M158.51,74.61a1.3,1.3,0,1,1,1.3,1.35A1.33,1.33,0,0,1,158.51,74.61Z" class="colorf0c562 svgShape"></path><path fill="#ffffff" d="M172.21 67.4a1.72 1.72 0 111.72 1.8A1.76 1.76 0 01172.21 67.4zM149.89 79.8a1.3 1.3 0 111.29 1.35A1.32 1.32 0 01149.89 79.8z" class="colorffffff svgShape"></path><path fill="#62a9f0" d="M154.2,79.8a1.3,1.3,0,1,1,1.29,1.35A1.32,1.32,0,0,1,154.2,79.8Z" class="colorf0c562 svgShape"></path><path fill="#ffffff" d="M158.51,79.8a1.3,1.3,0,1,1,1.3,1.35A1.32,1.32,0,0,1,158.51,79.8Z" class="colorffffff svgShape"></path><rect width="61.98" height="23.95" x="121.83" y="89.15" fill="#aab6c2" class="coloraab6c2 svgShape"></rect><rect width="22.21" height="19.6" x="124.86" y="91.32" fill="#021b79" rx=".91" class="color1e3d50 svgShape"></rect><rect width="2.72" height="19.6" x="177.93" y="91.32" fill="#62a9f0" rx=".32" class="colorf0c562 svgShape"></rect><rect width="18.37" height="3.67" x="126.91" y="93.29" fill="#ffffff" rx="1.6" class="colorffffff svgShape"></rect><rect width="18.37" height="3.67" x="126.91" y="93.29" fill="#ffffff" rx="1.6" class="colorffffff svgShape"></rect><rect width="10.61" height="1.29" x="130.79" y="94.48" fill="#021b79" class="color1e3d50 svgShape"></rect><rect width="8.16" height="4.21" x="149.61" y="92.92" fill="#021b79" class="color1e3d50 svgShape"></rect><rect width="8.16" height="4.21" x="161.39" y="92.92" fill="#021b79" class="color1e3d50 svgShape"></rect><rect width="11.99" height="4.21" x="163.28" y="99.79" fill="#021b79" class="color1e3d50 svgShape"></rect><rect width="10.16" height="1.55" x="164.19" y="101.12" fill="#ffffff" class="colorffffff svgShape"></rect><rect width="11.99" height="4.21" x="163.28" y="106.24" fill="#021b79" class="color1e3d50 svgShape"></rect><rect width="10.16" height="1.55" x="164.19" y="107.57" fill="#ffffff" class="colorffffff svgShape"></rect><rect width="18.37" height="3.67" x="126.91" y="99.29" fill="#ffffff" rx="1.6" class="colorffffff svgShape"></rect><rect width="18.37" height="3.67" x="126.91" y="105.28" fill="#ffffff" rx="1.6" class="colorffffff svgShape"></rect><rect width="10.61" height="1.29" x="130.79" y="100.48" fill="#021b79" class="color1e3d50 svgShape"></rect><rect width="10.61" height="1.29" x="130.79" y="106.48" fill="#021b79" class="color1e3d50 svgShape"></rect><path fill="#62a9f0" d="M149.89,102.23a1.3,1.3,0,1,1,1.29,1.35A1.32,1.32,0,0,1,149.89,102.23Z" class="colorf0c562 svgShape"></path><path fill="#ffffff" d="M154.2,102.23a1.3,1.3,0,1,1,1.29,1.35A1.32,1.32,0,0,1,154.2,102.23Z" class="colorffffff svgShape"></path><path fill="#62a9f0" d="M158.51,102.23a1.3,1.3,0,1,1,1.3,1.35A1.32,1.32,0,0,1,158.51,102.23Z" class="colorf0c562 svgShape"></path><path fill="#ffffff" d="M172.21 95a1.72 1.72 0 111.72 1.8A1.76 1.76 0 01172.21 95zM149.89 107.42a1.3 1.3 0 111.29 1.36A1.33 1.33 0 01149.89 107.42z" class="colorffffff svgShape"></path><path fill="#62a9f0" d="M154.2,107.42a1.3,1.3,0,1,1,1.29,1.36A1.33,1.33,0,0,1,154.2,107.42Z" class="colorf0c562 svgShape"></path><path fill="#ffffff" d="M158.51,107.42a1.3,1.3,0,1,1,1.3,1.36A1.33,1.33,0,0,1,158.51,107.42Z" class="colorffffff svgShape"></path><rect width="61.98" height="23.95" x="121.83" y="116.77" fill="#aab6c2" class="coloraab6c2 svgShape"></rect><rect width="22.21" height="19.6" x="124.86" y="118.95" fill="#021b79" rx=".91" class="color1e3d50 svgShape"></rect><rect width="2.72" height="19.6" x="177.93" y="118.95" fill="#62a9f0" rx=".32" class="colorf0c562 svgShape"></rect><rect width="18.37" height="3.67" x="126.91" y="120.91" fill="#ffffff" rx="1.6" class="colorffffff svgShape"></rect><rect width="18.37" height="3.67" x="126.91" y="120.91" fill="#ffffff" rx="1.6" class="colorffffff svgShape"></rect><rect width="10.61" height="1.29" x="130.79" y="122.11" fill="#021b79" class="color1e3d50 svgShape"></rect><rect width="8.16" height="4.21" x="149.61" y="120.55" fill="#021b79" class="color1e3d50 svgShape"></rect><rect width="8.16" height="4.21" x="161.39" y="120.55" fill="#021b79" class="color1e3d50 svgShape"></rect><rect width="11.99" height="4.21" x="163.28" y="127.42" fill="#021b79" class="color1e3d50 svgShape"></rect><rect width="10.16" height="1.55" x="164.19" y="128.75" fill="#ffffff" class="colorffffff svgShape"></rect><rect width="11.99" height="4.21" x="163.28" y="133.86" fill="#021b79" class="color1e3d50 svgShape"></rect><rect width="10.16" height="1.55" x="164.19" y="135.19" fill="#ffffff" class="colorffffff svgShape"></rect><rect width="18.37" height="3.67" x="126.91" y="126.91" fill="#ffffff" rx="1.6" class="colorffffff svgShape"></rect><rect width="18.37" height="3.67" x="126.91" y="132.91" fill="#ffffff" rx="1.6" class="colorffffff svgShape"></rect><rect width="10.61" height="1.29" x="130.79" y="128.1" fill="#021b79" class="color1e3d50 svgShape"></rect><rect width="10.61" height="1.29" x="130.79" y="134.1" fill="#021b79" class="color1e3d50 svgShape"></rect><path fill="#62a9f0" d="M149.89,129.85a1.3,1.3,0,1,1,1.29,1.36A1.33,1.33,0,0,1,149.89,129.85Z" class="colorf0c562 svgShape"></path><path fill="#ffffff" d="M154.2,129.85a1.3,1.3,0,1,1,1.29,1.36A1.33,1.33,0,0,1,154.2,129.85Z" class="colorffffff svgShape"></path><path fill="#62a9f0" d="M158.51,129.85a1.3,1.3,0,1,1,1.3,1.36A1.33,1.33,0,0,1,158.51,129.85Z" class="colorf0c562 svgShape"></path><path fill="#ffffff" d="M172.21 122.65a1.72 1.72 0 111.72 1.8A1.76 1.76 0 01172.21 122.65zM149.89 135.05a1.3 1.3 0 111.29 1.35A1.33 1.33 0 01149.89 135.05z" class="colorffffff svgShape"></path><path fill="#62a9f0" d="M154.2,135.05a1.3,1.3,0,1,1,1.29,1.35A1.33,1.33,0,0,1,154.2,135.05Z" class="colorf0c562 svgShape"></path><path fill="#ffffff" d="M158.51,135.05a1.3,1.3,0,1,1,1.3,1.35A1.33,1.33,0,0,1,158.51,135.05Z" class="colorffffff svgShape"></path><rect width="61.98" height="23.95" x="121.83" y="144.39" fill="#aab6c2" class="coloraab6c2 svgShape"></rect><rect width="22.21" height="19.6" x="124.86" y="146.57" fill="#021b79" rx=".91" class="color1e3d50 svgShape"></rect><rect width="2.72" height="19.6" x="177.93" y="146.57" fill="#62a9f0" rx=".32" class="colorf0c562 svgShape"></rect><rect width="18.37" height="3.67" x="126.91" y="148.54" fill="#ffffff" rx="1.6" class="colorffffff svgShape"></rect><rect width="18.37" height="3.67" x="126.91" y="148.54" fill="#ffffff" rx="1.6" class="colorffffff svgShape"></rect><rect width="10.61" height="1.29" x="130.79" y="149.73" fill="#021b79" class="color1e3d50 svgShape"></rect><rect width="8.16" height="4.21" x="149.61" y="148.17" fill="#021b79" class="color1e3d50 svgShape"></rect><rect width="8.16" height="4.21" x="161.39" y="148.17" fill="#021b79" class="color1e3d50 svgShape"></rect><rect width="11.99" height="4.21" x="163.28" y="155.04" fill="#021b79" class="color1e3d50 svgShape"></rect><rect width="10.16" height="1.55" x="164.19" y="156.37" fill="#ffffff" class="colorffffff svgShape"></rect><rect width="11.99" height="4.21" x="163.28" y="161.48" fill="#021b79" class="color1e3d50 svgShape"></rect><rect width="10.16" height="1.54" x="164.19" y="162.81" fill="#ffffff" class="colorffffff svgShape"></rect><rect width="18.37" height="3.67" x="126.91" y="154.53" fill="#ffffff" rx="1.6" class="colorffffff svgShape"></rect><rect width="18.37" height="3.67" x="126.91" y="160.53" fill="#ffffff" rx="1.6" class="colorffffff svgShape"></rect><rect width="10.61" height="1.29" x="130.79" y="155.73" fill="#021b79" class="color1e3d50 svgShape"></rect><rect width="10.61" height="1.29" x="130.79" y="161.72" fill="#021b79" class="color1e3d50 svgShape"></rect><path fill="#62a9f0" d="M149.89,157.48a1.3,1.3,0,1,1,1.29,1.35A1.33,1.33,0,0,1,149.89,157.48Z" class="colorf0c562 svgShape"></path><path fill="#ffffff" d="M154.2,157.48a1.3,1.3,0,1,1,1.29,1.35A1.33,1.33,0,0,1,154.2,157.48Z" class="colorffffff svgShape"></path><path fill="#62a9f0" d="M158.51,157.48a1.3,1.3,0,1,1,1.3,1.35A1.33,1.33,0,0,1,158.51,157.48Z" class="colorf0c562 svgShape"></path><path fill="#ffffff" d="M172.21 150.28a1.72 1.72 0 111.72 1.79A1.76 1.76 0 01172.21 150.28zM149.89 162.67a1.3 1.3 0 111.29 1.35A1.32 1.32 0 01149.89 162.67z" class="colorffffff svgShape"></path><path fill="#62a9f0" d="M154.2,162.67a1.3,1.3,0,1,1,1.29,1.35A1.32,1.32,0,0,1,154.2,162.67Z" class="colorf0c562 svgShape"></path><path fill="#ffffff" d="M158.51,162.67a1.3,1.3,0,1,1,1.3,1.35A1.32,1.32,0,0,1,158.51,162.67Z" class="colorffffff svgShape"></path><rect width="61.98" height="23.95" x="121.83" y="172.02" fill="#aab6c2" class="coloraab6c2 svgShape"></rect><rect width="22.21" height="19.6" x="124.86" y="174.19" fill="#021b79" rx=".91" class="color1e3d50 svgShape"></rect><rect width="2.72" height="19.6" x="177.93" y="174.19" fill="#62a9f0" rx=".32" class="colorf0c562 svgShape"></rect><rect width="18.37" height="3.67" x="126.91" y="176.16" fill="#ffffff" rx="1.6" class="colorffffff svgShape"></rect><rect width="18.37" height="3.67" x="126.91" y="176.16" fill="#ffffff" rx="1.6" class="colorffffff svgShape"></rect><rect width="10.61" height="1.29" x="130.79" y="177.35" fill="#021b79" class="color1e3d50 svgShape"></rect><rect width="8.16" height="4.21" x="149.61" y="175.8" fill="#021b79" class="color1e3d50 svgShape"></rect><rect width="8.16" height="4.21" x="161.39" y="175.8" fill="#021b79" class="color1e3d50 svgShape"></rect><rect width="11.99" height="4.21" x="163.28" y="182.66" fill="#021b79" class="color1e3d50 svgShape"></rect><rect width="10.16" height="1.54" x="164.19" y="183.99" fill="#ffffff" class="colorffffff svgShape"></rect><rect width="11.99" height="4.21" x="163.28" y="189.11" fill="#021b79" class="color1e3d50 svgShape"></rect><rect width="10.16" height="1.55" x="164.19" y="190.44" fill="#ffffff" class="colorffffff svgShape"></rect><rect width="18.37" height="3.67" x="126.91" y="182.16" fill="#ffffff" rx="1.6" class="colorffffff svgShape"></rect><rect width="18.37" height="3.67" x="126.91" y="188.16" fill="#ffffff" rx="1.6" class="colorffffff svgShape"></rect><rect width="10.61" height="1.29" x="130.79" y="183.35" fill="#021b79" class="color1e3d50 svgShape"></rect><rect width="10.61" height="1.29" x="130.79" y="189.35" fill="#021b79" class="color1e3d50 svgShape"></rect><path fill="#62a9f0" d="M149.89,185.1a1.3,1.3,0,1,1,1.29,1.36A1.32,1.32,0,0,1,149.89,185.1Z" class="colorf0c562 svgShape"></path><path fill="#ffffff" d="M154.2,185.1a1.3,1.3,0,1,1,1.29,1.36A1.32,1.32,0,0,1,154.2,185.1Z" class="colorffffff svgShape"></path><path fill="#62a9f0" d="M158.51,185.1a1.3,1.3,0,1,1,1.3,1.36A1.32,1.32,0,0,1,158.51,185.1Z" class="colorf0c562 svgShape"></path><path fill="#ffffff" d="M172.21 177.9a1.72 1.72 0 111.72 1.8A1.76 1.76 0 01172.21 177.9zM149.89 190.29a1.3 1.3 0 111.29 1.36A1.33 1.33 0 01149.89 190.29z" class="colorffffff svgShape"></path><path fill="#62a9f0" d="M154.2,190.29a1.3,1.3,0,1,1,1.29,1.36A1.33,1.33,0,0,1,154.2,190.29Z" class="colorf0c562 svgShape"></path><path fill="#ffffff" d="M158.51,190.29a1.3,1.3,0,1,1,1.3,1.36A1.33,1.33,0,0,1,158.51,190.29Z" class="colorffffff svgShape"></path><rect width="61.98" height="23.95" x="121.83" y="199.64" fill="#aab6c2" class="coloraab6c2 svgShape"></rect><rect width="22.21" height="19.6" x="124.86" y="201.82" fill="#021b79" rx=".91" class="color1e3d50 svgShape"></rect><rect width="2.72" height="19.6" x="177.93" y="201.82" fill="#62a9f0" rx=".32" class="colorf0c562 svgShape"></rect><rect width="18.37" height="3.67" x="126.91" y="203.78" fill="#ffffff" rx="1.6" class="colorffffff svgShape"></rect><rect width="18.37" height="3.67" x="126.91" y="203.78" fill="#ffffff" rx="1.6" class="colorffffff svgShape"></rect><rect width="10.61" height="1.29" x="130.79" y="204.98" fill="#021b79" class="color1e3d50 svgShape"></rect><rect width="8.16" height="4.21" x="149.61" y="203.42" fill="#021b79" class="color1e3d50 svgShape"></rect><rect width="8.16" height="4.21" x="161.39" y="203.42" fill="#021b79" class="color1e3d50 svgShape"></rect><rect width="11.99" height="4.21" x="163.28" y="210.29" fill="#021b79" class="color1e3d50 svgShape"></rect><rect width="10.16" height="1.55" x="164.19" y="211.62" fill="#ffffff" class="colorffffff svgShape"></rect><rect width="11.99" height="4.21" x="163.28" y="216.73" fill="#021b79" class="color1e3d50 svgShape"></rect><rect width="10.16" height="1.55" x="164.19" y="218.06" fill="#ffffff" class="colorffffff svgShape"></rect><rect width="18.37" height="3.67" x="126.91" y="209.78" fill="#ffffff" rx="1.6" class="colorffffff svgShape"></rect><rect width="18.37" height="3.67" x="126.91" y="215.78" fill="#ffffff" rx="1.6" class="colorffffff svgShape"></rect><rect width="10.61" height="1.29" x="130.79" y="210.97" fill="#021b79" class="color1e3d50 svgShape"></rect><rect width="10.61" height="1.29" x="130.79" y="216.97" fill="#021b79" class="color1e3d50 svgShape"></rect><path fill="#62a9f0" d="M149.89,212.73a1.3,1.3,0,1,1,1.29,1.35A1.33,1.33,0,0,1,149.89,212.73Z" class="colorf0c562 svgShape"></path><path fill="#ffffff" d="M154.2,212.73a1.3,1.3,0,1,1,1.29,1.35A1.33,1.33,0,0,1,154.2,212.73Z" class="colorffffff svgShape"></path><path fill="#62a9f0" d="M158.51,212.73a1.3,1.3,0,1,1,1.3,1.35A1.33,1.33,0,0,1,158.51,212.73Z" class="colorf0c562 svgShape"></path><path fill="#ffffff" d="M172.21 205.52a1.72 1.72 0 111.72 1.8A1.76 1.76 0 01172.21 205.52zM149.89 217.92a1.3 1.3 0 111.29 1.35A1.33 1.33 0 01149.89 217.92z" class="colorffffff svgShape"></path><path fill="#62a9f0" d="M154.2,217.92a1.3,1.3,0,1,1,1.29,1.35A1.33,1.33,0,0,1,154.2,217.92Z" class="colorf0c562 svgShape"></path><path fill="#ffffff" d="M158.51 217.92a1.3 1.3 0 111.3 1.35A1.33 1.33 0 01158.51 217.92zM85.31 98.74a1.88 1.88 0 01-1.88-1.88V38.71a2.45 2.45 0 012.44-2.45h77a2.45 2.45 0 012.44 2.44V96.86a1.89 1.89 0 01-1.89 1.88z" class="colorffffff svgShape"></path><path fill="#021b79" d="M162.89,36.39a2.32,2.32,0,0,1,2.31,2.31V96.86a1.76,1.76,0,0,1-1.76,1.76H85.31a1.76,1.76,0,0,1-1.76-1.76V38.71a2.32,2.32,0,0,1,2.32-2.32Zm0-.25h-77a2.57,2.57,0,0,0-2.56,2.57V96.86a2,2,0,0,0,2,2h78.13a2,2,0,0,0,2-2V38.7a2.56,2.56,0,0,0-2.56-2.56Z" class="color1e3d50 svgShape"></path><path fill="#021b79" d="M165.45,45H83.31V38.7a2.56,2.56,0,0,1,2.56-2.56h77a2.56,2.56,0,0,1,2.56,2.56Z" class="color1e3d50 svgShape"></path><path fill="#aab6c2" d="M97.43,40.56a1.36,1.36,0,1,1,1.36,1.35A1.36,1.36,0,0,1,97.43,40.56Z" class="coloraab6c2 svgShape"></path><path fill="#62a9f0" d="M92.22,40.56a1.36,1.36,0,1,1,1.35,1.35A1.35,1.35,0,0,1,92.22,40.56Z" class="colorf0c562 svgShape"></path><path fill="#ffffff" d="M87,40.56a1.36,1.36,0,1,1,1.35,1.35A1.35,1.35,0,0,1,87,40.56Z" class="colorffffff svgShape"></path><polygon fill="#ffffff" points="158.99 39.56 159.66 38.89 160.62 39.85 161.58 38.89 162.25 39.56 161.29 40.52 162.25 41.48 161.58 42.16 160.62 41.2 159.66 42.16 158.99 41.48 159.95 40.52 158.99 39.56" class="colorffffff svgShape"></polygon><polygon fill="#aab6c2" points="110.64 48.63 110.71 49.76 129.68 49.76 129.62 48.63 110.64 48.63" class="coloraab6c2 svgShape"></polygon><polygon fill="#aab6c2" points="119.94 52.04 120.02 53.18 150.88 53.18 150.81 52.04 119.94 52.04" class="coloraab6c2 svgShape"></polygon><polygon fill="#021b79" points="110.69 52.04 110.75 53.18 118.61 53.18 118.54 52.04 110.69 52.04" class="color1e3d50 svgShape"></polygon><polygon fill="#aab6c2" points="110.6 55.46 110.67 56.59 126.38 56.59 126.27 55.46 110.6 55.46" class="coloraab6c2 svgShape"></polygon><polygon fill="#021b79" points="127.36 55.46 127.47 56.59 142.86 56.59 142.79 55.46 127.36 55.46" class="color1e3d50 svgShape"></polygon><polygon fill="#aab6c2" points="96.86 55.46 96.85 56.59 104.57 56.59 104.58 55.46 96.86 55.46" class="coloraab6c2 svgShape"></polygon><polygon fill="#aab6c2" points="87.47 52.04 87.47 53.18 100.03 53.18 100.03 52.04 87.47 52.04" class="coloraab6c2 svgShape"></polygon><polygon fill="#aab6c2" points="101.47 52.04 101.46 53.18 104.66 53.18 104.66 52.04 101.47 52.04" class="coloraab6c2 svgShape"></polygon><polygon fill="#62a9f0" points="98.41 48.63 98.42 49.76 104.8 49.76 104.81 48.63 98.41 48.63" class="colorf0c562 svgShape"></polygon><polygon fill="#62a9f0" points="90.86 48.63 90.86 49.76 97.13 49.76 97.12 48.63 90.86 48.63" class="colorf0c562 svgShape"></polygon><polygon fill="#aab6c2" points="96.76 68.25 96.75 69.38 104.47 69.38 104.48 68.25 96.76 68.25" class="coloraab6c2 svgShape"></polygon><polygon fill="#aab6c2" points="87.38 64.83 87.37 65.97 99.93 65.97 99.93 64.83 87.38 64.83" class="coloraab6c2 svgShape"></polygon><polygon fill="#aab6c2" points="101.37 64.83 101.37 65.97 104.56 65.97 104.57 64.83 101.37 64.83" class="coloraab6c2 svgShape"></polygon><polygon fill="#aab6c2" points="96.64 75.44 96.63 76.58 104.35 76.58 104.36 75.44 96.64 75.44" class="coloraab6c2 svgShape"></polygon><polygon fill="#62a9f0" points="87.25 72.03 87.25 73.16 99.81 73.16 99.81 72.03 87.25 72.03" class="colorf0c562 svgShape"></polygon><polygon fill="#62a9f0" points="101.25 72.03 101.25 73.16 104.44 73.16 104.44 72.03 101.25 72.03" class="colorf0c562 svgShape"></polygon><polygon fill="#62a9f0" points="98.32 61.42 98.33 62.55 104.7 62.55 104.71 61.42 98.32 61.42" class="colorf0c562 svgShape"></polygon><polygon fill="#62a9f0" points="90.77 61.42 90.76 62.55 97.04 62.55 97.03 61.42 90.77 61.42" class="colorf0c562 svgShape"></polygon><polygon fill="#021b79" points="131.57 48.63 131.63 49.76 137.39 49.76 137.33 48.63 131.57 48.63" class="color1e3d50 svgShape"></polygon><polygon fill="#aab6c2" points="152.8 52.04 152.87 53.18 162.09 53.18 162.02 52.04 152.8 52.04" class="coloraab6c2 svgShape"></polygon><polygon fill="#aab6c2" points="144.56 55.46 144.63 56.59 153.97 56.59 153.9 55.46 144.56 55.46" class="coloraab6c2 svgShape"></polygon><polygon fill="#aab6c2" points="139.91 48.63 140.04 49.76 156.32 49.76 156.18 48.63 139.91 48.63" class="coloraab6c2 svgShape"></polygon><polygon fill="#aab6c2" points="110.54 61.42 110.61 62.55 129.59 62.55 129.52 61.42 110.54 61.42" class="coloraab6c2 svgShape"></polygon><polygon fill="#aab6c2" points="119.85 64.83 119.92 65.97 150.79 65.97 150.72 64.83 119.85 64.83" class="coloraab6c2 svgShape"></polygon><polygon fill="#aab6c2" points="110.59 64.83 110.66 65.97 118.52 65.97 118.44 64.83 110.59 64.83" class="coloraab6c2 svgShape"></polygon><polygon fill="#aab6c2" points="110.5 68.25 110.57 69.38 126.28 69.38 126.17 68.25 110.5 68.25" class="coloraab6c2 svgShape"></polygon><polygon fill="#aab6c2" points="127.27 68.25 127.38 69.38 142.77 69.38 142.7 68.25 127.27 68.25" class="coloraab6c2 svgShape"></polygon><polygon fill="#aab6c2" points="131.47 61.42 131.54 62.55 137.3 62.55 137.23 61.42 131.47 61.42" class="coloraab6c2 svgShape"></polygon><polygon fill="#aab6c2" points="152.71 64.83 152.77 65.97 161.99 65.97 161.92 64.83 152.71 64.83" class="coloraab6c2 svgShape"></polygon><polygon fill="#021b79" points="144.46 68.25 144.53 69.38 153.87 69.38 153.81 68.25 144.46 68.25" class="color1e3d50 svgShape"></polygon><polygon fill="#aab6c2" points="120.11 72.03 120.18 73.16 151.04 73.16 150.97 72.03 120.11 72.03" class="coloraab6c2 svgShape"></polygon><polygon fill="#aab6c2" points="110.85 72.03 110.92 73.16 118.77 73.16 118.7 72.03 110.85 72.03" class="coloraab6c2 svgShape"></polygon><polygon fill="#aab6c2" points="110.76 75.44 110.83 76.58 126.54 76.58 126.43 75.44 110.76 75.44" class="coloraab6c2 svgShape"></polygon><polygon fill="#021b79" points="127.52 75.44 127.64 76.58 143.03 76.58 142.96 75.44 127.52 75.44" class="color1e3d50 svgShape"></polygon><polygon fill="#021b79" points="152.96 72.03 153.03 73.16 162.25 73.16 162.18 72.03 152.96 72.03" class="color1e3d50 svgShape"></polygon><polygon fill="#aab6c2" points="144.72 75.44 144.79 76.58 154.13 76.58 154.06 75.44 144.72 75.44" class="coloraab6c2 svgShape"></polygon><polygon fill="#021b79" points="139.81 61.42 139.95 62.55 156.22 62.55 156.09 61.42 139.81 61.42" class="color1e3d50 svgShape"></polygon><polygon fill="#aab6c2" points="96.51 87.21 96.5 88.35 104.22 88.35 104.23 87.21 96.51 87.21" class="coloraab6c2 svgShape"></polygon><polygon fill="#aab6c2" points="87.12 83.79 87.12 84.93 99.68 84.93 99.68 83.79 87.12 83.79" class="coloraab6c2 svgShape"></polygon><polygon fill="#aab6c2" points="101.12 83.79 101.11 84.93 104.31 84.93 104.31 83.79 101.12 83.79" class="coloraab6c2 svgShape"></polygon><polygon fill="#aab6c2" points="96.39 94.4 96.38 95.54 104.1 95.54 104.11 94.4 96.39 94.4" class="coloraab6c2 svgShape"></polygon><polygon fill="#62a9f0" points="87 90.99 87 92.12 99.55 92.12 99.56 90.99 87 90.99" class="colorf0c562 svgShape"></polygon><polygon fill="#62a9f0" points="101 90.99 100.99 92.12 104.18 92.12 104.19 90.99 101 90.99" class="colorf0c562 svgShape"></polygon><polygon fill="#62a9f0" points="98.06 80.38 98.08 81.51 104.45 81.51 104.46 80.38 98.06 80.38" class="colorf0c562 svgShape"></polygon><polygon fill="#62a9f0" points="90.51 80.38 90.51 81.51 96.78 81.51 96.78 80.38 90.51 80.38" class="colorf0c562 svgShape"></polygon><polygon fill="#aab6c2" points="110.29 80.38 110.36 81.51 129.34 81.51 129.27 80.38 110.29 80.38" class="coloraab6c2 svgShape"></polygon><polygon fill="#aab6c2" points="119.59 83.79 119.67 84.93 150.53 84.93 150.46 83.79 119.59 83.79" class="coloraab6c2 svgShape"></polygon><polygon fill="#aab6c2" points="110.34 83.79 110.41 84.93 118.26 84.93 118.19 83.79 110.34 83.79" class="coloraab6c2 svgShape"></polygon><polygon fill="#aab6c2" points="110.25 87.21 110.32 88.35 126.03 88.35 125.92 87.21 110.25 87.21" class="coloraab6c2 svgShape"></polygon><polygon fill="#aab6c2" points="127.01 87.21 127.13 88.35 142.51 88.35 142.45 87.21 127.01 87.21" class="coloraab6c2 svgShape"></polygon><polygon fill="#aab6c2" points="131.22 80.38 131.29 81.51 137.05 81.51 136.98 80.38 131.22 80.38" class="coloraab6c2 svgShape"></polygon><polygon fill="#aab6c2" points="152.45 83.79 152.52 84.93 161.74 84.93 161.67 83.79 152.45 83.79" class="coloraab6c2 svgShape"></polygon><polygon fill="#021b79" points="144.21 87.21 144.28 88.35 153.62 88.35 153.55 87.21 144.21 87.21" class="color1e3d50 svgShape"></polygon><polygon fill="#aab6c2" points="119.85 90.99 119.93 92.12 150.79 92.12 150.72 90.99 119.85 90.99" class="coloraab6c2 svgShape"></polygon><polygon fill="#aab6c2" points="110.6 90.99 110.66 92.12 118.52 92.12 118.44 90.99 110.6 90.99" class="coloraab6c2 svgShape"></polygon><polygon fill="#aab6c2" points="110.51 94.4 110.58 95.54 126.29 95.54 126.17 94.4 110.51 94.4" class="coloraab6c2 svgShape"></polygon><polygon fill="#021b79" points="127.27 94.4 127.38 95.54 142.77 95.54 142.7 94.4 127.27 94.4" class="color1e3d50 svgShape"></polygon><polygon fill="#021b79" points="152.71 90.99 152.78 92.12 162 92.12 161.93 90.99 152.71 90.99" class="color1e3d50 svgShape"></polygon><polygon fill="#aab6c2" points="144.47 94.4 144.53 95.54 153.88 95.54 153.81 94.4 144.47 94.4" class="coloraab6c2 svgShape"></polygon><polygon fill="#021b79" points="139.56 80.38 139.69 81.51 155.97 81.51 155.83 80.38 139.56 80.38" class="color1e3d50 svgShape"></polygon><path fill="#0575e6" d="M199.25,99.84l1.31-8.26-5.14-1.28a21.1,21.1,0,0,0-1.71-7.14l4-3.46-4.91-6.77-4.54,2.73A21.14,21.14,0,0,0,182,71.82l.38-5.28-8.27-1.31-1.28,5.14a21,21,0,0,0-7.13,1.71l-3.47-4L155.47,73l2.73,4.53a21.32,21.32,0,0,0-3.84,6.26l-5.28-.38-1.31,8.26L152.91,93a21,21,0,0,0,1.71,7.13l-4,3.47,4.91,6.76,4.53-2.73a21,21,0,0,0,6.26,3.84l-.38,5.29,8.27,1.31,1.28-5.14a21,21,0,0,0,7.13-1.71l3.47,4,6.76-4.91-2.72-4.54A21,21,0,0,0,194,99.47Zm-27.45,6.7A15.1,15.1,0,1,1,189.08,94,15.11,15.11,0,0,1,171.8,106.54Z" class="color609a8b svgShape"></path><polygon fill="#1e284c" points="148.92 85.63 148.55 85.57 147.56 91.8 151.22 92.72 151.31 92.36 147.98 91.53 148.92 85.63" class="color351e4c svgShape"></polygon><path fill="#1e284c" d="M161.51,108.52l-.24.28a17.45,17.45,0,0,0,4.85,2.75l-.36,5.14.37,0,.38-5.43-.13,0A16.85,16.85,0,0,1,161.51,108.52Z" class="color351e4c svgShape"></path><path fill="#021b79" d="M187.42,84.79c.05.1,5.36,9.85-3.32,18l.25.27c8.89-8.3,3.45-18.31,3.39-18.41Z" class="color1e3d50 svgShape"></path><path fill="#1e284c" d="M195,81.84l-1.48,1.27.06.13a34.2,34.2,0,0,1,1.3,3.85l.36-.09a33.12,33.12,0,0,0-1.27-3.78l1.27-1.1Z" class="color351e4c svgShape"></path><path fill="#021b79" d="M196,82.3l4-3.48-5.11-7-4.57,2.74a19.69,19.69,0,0,0-6.09-3.73l.38-5.32-8.6-1.36-1.29,5.17a17.36,17.36,0,0,0-7,1.66l-3.48-4-7,5.11L160,76.58a20.17,20.17,0,0,0-3.73,6.1L151,82.3l-1.36,8.6,5.17,1.29a21.64,21.64,0,0,0,1.66,7l-4,3.48,5.11,7,4.56-2.74a20.33,20.33,0,0,0,6.09,3.73l-.38,5.32,8.6,1.37,1.29-5.17a16.38,16.38,0,0,0,6.95-1.66l3.48,4,7-5.11-2.74-4.57a19.23,19.23,0,0,0,3.74-6.09l5.31.38,1.37-8.6-5.17-1.29A18.71,18.71,0,0,0,196,82.3Zm5.16,16.45-5.26-.37,0,.13a18.5,18.5,0,0,1-3.8,6.19l-.1.1,2.72,4.52L188.2,114l-3.46-4-.13.08a15.84,15.84,0,0,1-7.05,1.68h-.14l-1.27,5.11-7.94-1.26.37-5.25-.13,0a20.05,20.05,0,0,1-6.19-3.8l-.1-.1-4.52,2.72-4.71-6.5,4-3.45-.06-.13A20.59,20.59,0,0,1,155.16,92V91.9L150,90.63l1.26-7.94,5.25.37,0-.12s1.65-4.22,3.8-6.19l.11-.1-2.73-4.53,6.5-4.71,3.46,4,.13-.07a16.76,16.76,0,0,1,7.06-1.69h.13l1.28-5.11,7.93,1.26L183.9,71l.13,0a19.44,19.44,0,0,1,6.19,3.8l.1.1,4.52-2.71,4.71,6.49-4,3.46.07.12a17.72,17.72,0,0,1,1.69,7.07v.13l5.11,1.28Z" class="color1e3d50 svgShape"></path><path fill="#021b79" d="M174.12,75.58a15.29,15.29,0,1,0,17.27,13A15.3,15.3,0,0,0,174.12,75.58Zm4.19,29.92A14.92,14.92,0,1,1,191,88.65,14.93,14.93,0,0,1,178.31,105.5Z" class="color1e3d50 svgShape"></path><path fill="#7fa0c1" d="M60.37,199.45l3.06-2.65-3.76-5.18-3.47,2.09a16.18,16.18,0,0,0-4.79-2.94l.29-4-6.32-1-1,3.94A16.12,16.12,0,0,0,38.93,191l-2.65-3.07-5.18,3.76,2.09,3.47a16.31,16.31,0,0,0-2.94,4.79l-4-.29-1,6.33,3.94,1a16.06,16.06,0,0,0,1.31,5.46l-3.07,2.66,3.76,5.18,3.47-2.09a16.28,16.28,0,0,0,4.79,2.93l-.29,4,6.33,1,1-3.93a16.3,16.3,0,0,0,5.46-1.31L54.54,224l5.18-3.76-2.09-3.47a16.28,16.28,0,0,0,2.93-4.79l4,.29,1-6.32-3.93-1A16.3,16.3,0,0,0,60.37,199.45Zm-3.55,8.29a11.56,11.56,0,1,1-9.6-13.23A11.55,11.55,0,0,1,56.82,207.74Z" class="colora1c17f svgShape"></path><polygon fill="#1e284c" points="26.08 201.34 25.8 201.3 25.04 206.07 27.84 206.76 27.91 206.49 25.36 205.85 26.08 201.34" class="color351e4c svgShape"></polygon><path fill="#1e284c" d="M35.72,218.86l-.18.22a13.26,13.26,0,0,0,3.71,2.1L39,225.12l.29,0,.29-4.15-.1,0A12.74,12.74,0,0,1,35.72,218.86Z" class="color351e4c svgShape"></path><path fill="#021b79" d="M55.55,200.7A11.46,11.46,0,0,1,53,214.44l.19.21a11.77,11.77,0,0,0,2.6-14.09Z" class="color1e3d50 svgShape"></path><path fill="#1e284c" d="M61.32,198.44l-1.12,1,0,.1a27.12,27.12,0,0,1,1,3l.27-.07a29.23,29.23,0,0,0-1-2.9l1-.84Z" class="color351e4c svgShape"></path><path fill="#021b79" d="M62.14,198.79l3.08-2.66-3.91-5.39-3.49,2.1A15,15,0,0,0,53.15,190l.29-4.07-6.58-1-1,4a13.44,13.44,0,0,0-5.32,1.27L37.89,187l-5.39,3.92,2.1,3.48a15.26,15.26,0,0,0-2.86,4.67l-4.07-.29-1.05,6.58,4,1a16.07,16.07,0,0,0,1.28,5.32l-3.09,2.67,3.92,5.39,3.49-2.1a15.84,15.84,0,0,0,4.66,2.86l-.29,4.07,6.59,1,1-4a12.52,12.52,0,0,0,5.32-1.28l2.67,3.08,5.39-3.91-2.1-3.5a14.55,14.55,0,0,0,2.86-4.66l4.07.29,1-6.58-4-1A14.32,14.32,0,0,0,62.14,198.79Zm4,12.6-4-.29,0,.1a14.19,14.19,0,0,1-2.91,4.74l-.07.08,2.08,3.45-5,3.61L53.5,220l-.1.05a11.78,11.78,0,0,1-5.39,1.3H47.9l-1,3.91-6.08-1,.29-4-.1,0a15.35,15.35,0,0,1-4.74-2.91l-.08-.07-3.46,2.08-3.61-5,3.05-2.64-.05-.1a15.92,15.92,0,0,1-1.29-5.41v-.1l-3.91-1,1-6.07,4,.29,0-.1a15.77,15.77,0,0,1,2.91-4.74l.08-.08L32.87,191l5-3.61,2.65,3.06.1-.06A12.9,12.9,0,0,1,46,189.1h.11l1-3.91,6.08,1-.29,4,.1,0a15.19,15.19,0,0,1,4.74,2.91l.07.08,3.46-2.08,3.61,5-3.05,2.65.05.09a13.86,13.86,0,0,1,1.3,5.41v.11l3.91,1Z" class="color1e3d50 svgShape"></path><path fill="#021b79" d="M45.37,193.64a11.71,11.71,0,1,0,13.22,10A11.73,11.73,0,0,0,45.37,193.64Zm3.21,22.91a11.43,11.43,0,1,1,9.73-12.9A11.43,11.43,0,0,1,48.58,216.55Z" class="color1e3d50 svgShape"></path><path fill="#ffffff" d="M104.37,93a1.94,1.94,0,0,0-.88.39l-.69.47c.68-.47,1.75-1.25,1.67-1.53a.89.89,0,0,0-.88-.47,1.86,1.86,0,0,0-.87.39l-2.26,1.52c-.15.1-.5.28-.85.49h0c.5-.78.85-1.47.21-1.42-.43,0-1,.61-1.52.87-1.94.94-3.69,2-4.44,3.12a2.12,2.12,0,0,0-.24.51l-8.46,11.44-4.38-7.57a3,3,0,0,0-.26-.77v0h0c-.82-1.64-1.25-2.55-4.85-3.89-.89-.34-3.62-1.19-3.62-1.19l-.69,10.12,8.28,9c2,3.44,4.14,6,5.91,5.28,4.82-2.08,9.87-14.6,11.46-18.84a5.59,5.59,0,0,0,2.09-.64A14,14,0,0,0,101,99.16c.29-.21,2.28-1.5,2.17-1.87a.76.76,0,0,0-.36-.37c.68-.47,1.75-1.25,1.67-1.52a.88.88,0,0,0-.8-.48c.68-.47,1.65-1.2,1.57-1.46A.87.87,0,0,0,104.37,93Z" class="colorffffff svgShape"></path><path fill="#021b79" d="M105.33 93.43a1 1 0 00-1-.53l-.23 0c.48-.43.44-.57.42-.65a1 1 0 00-1-.53 2 2 0 00-.91.4l-2.26 1.53-.37.21-.19.11c.35-.58.45-.92.34-1.11a.37.37 0 00-.4-.15 2.15 2.15 0 00-.91.47 4.58 4.58 0 01-.64.41c-1.66.8-3.66 1.88-4.47 3.16a2.59 2.59 0 00-.25.5l-8.36 11.3-4.31-7.4a3 3 0 00-.27-.78l-.08-.25 0 0c-.94-1.64-1.46-2.52-4.82-3.78-.88-.33-3.59-1.18-3.62-1.19l-.11 0-.7 10.23v0l8.45 9.33c2 3.45 3.77 5.19 5.2 5.19a1.71 1.71 0 00.67-.14C90.41 117.76 95.54 105 97 101a5.48 5.48 0 002-.64 14.06 14.06 0 002-1.14l.11-.08c2-1.31 2.16-1.69 2.09-1.9a.76.76 0 00-.28-.34c1.7-1.18 1.62-1.43 1.59-1.55a.91.91 0 00-.64-.49c1.52-1.09 1.45-1.33 1.42-1.43zm-1.71 1.42l-.23.16h.28a.79.79 0 01.71.41s0 .28-1.63 1.43l-.12.08.13.07a.62.62 0 01.32.32c0 .06-.07.37-2 1.68l-.11.09A14.25 14.25 0 0199 100.21a5.36 5.36 0 01-2.05.63h0l0 .06c-1.46 3.88-6.6 16.71-11.42 18.78-1.47.64-3.42-1.12-5.8-5.23l-.15-.27v.31l-8.1-9.07.68-10c.52.16 2.73.86 3.51 1.15 4.05 1.51 4.08 2.41 4.8 3.85l0 .07a3.21 3.21 0 01.24.72L85.11 109l8.56-11.58v0a2.68 2.68 0 01.24-.48c.78-1.24 2.76-2.3 4.4-3.09a6.15 6.15 0 00.67-.42 2 2 0 01.81-.44c.09 0 .2 0 .24.06s-.09.55-.53 1.22l-.14.21.24-.08 0 0 .46-.26.39-.23 2.26-1.52a1.75 1.75 0 01.83-.37.78.78 0 01.78.41s0 .28-1.63 1.43l.1.14.69-.47a1.83 1.83 0 01.84-.37.8.8 0 01.78.41S105.14 93.79 103.62 94.85zM76.15 86.3a6.28 6.28 0 01-2-1.76 5.42 5.42 0 01-.36-2.81c0-2.24-.2-5.57-1.62-7.45s-4.74-.78-6.43-.19A8 8 0 0062 76.38c-1.74 2.16-1.33 5.3-2.13 8s-2.69 4.83-2.54 7.49a2.4 2.4 0 001 2 3.11 3.11 0 002.29.06l14-3.23A6.07 6.07 0 0076.46 90a2.07 2.07 0 001.06-1.51A2.69 2.69 0 0076.15 86.3z" class="color1e3d50 svgShape"></path><path fill="#ffffff" d="M58.94,115.43l7-12.08c-4.21.23-4.54-7.19-7.85-4.26,0,0-14.18,19.76-9.68,23,5.81,4.26,23.33-3.22,23.33-3.22l-9.16-2.08Z" class="colorffffff svgShape"></path><path fill="#021b79" d="M59.12 115.37l6.91-12 .11-.2h-.23c-1.94.11-3.52-2-4.35-3.24-.59-.88-1.1-1.64-1.86-1.75A2.32 2.32 0 0058 99c-.49.63-11.3 16.12-10.52 21.66a2.21 2.21 0 00.86 1.58c1.65 1.2 4.19 1.49 7 1.28 7.1-.54 16-4.28 16.46-4.5l.36-.15-9.53-2.16zM48.45 122a2 2 0 01-.76-1.4C46.92 115.2 58 99.32 58.14 99.18a2.44 2.44 0 011.32-.7h.21c.65.08 1.12.8 1.68 1.64.79 1.19 2.41 3.34 4.34 3.35l-6.94 12L62.52 117l8.77 2C68.74 120 53.68 125.87 48.45 122zM59.6 217.44c-1.44.48-1 3.43-1.24 4.81-.21 1.07-.41 2.15-.62 3.22a15 15 0 00-.4 2.25c0 .19.17.27.33.37.4-.93 1.14-3.16 1.53-4.09a17.68 17.68 0 001.13-3.23 6.71 6.71 0 00.14-2.19C60.38 217.86 60.5 217.13 59.6 217.44z" class="color1e3d50 svgShape"></path><path fill="#021b79" d="M66.2,230.11a10.7,10.7,0,0,1-1.65-7.39c.14-1,.69-2.05.2-3a4,4,0,0,0-2.82-2,1.8,1.8,0,0,0-1.61.37,2.27,2.27,0,0,0-.48,1.16,41.14,41.14,0,0,0-.87,7.66,4.84,4.84,0,0,0,.74,3.22,5.08,5.08,0,0,0,2,1.27l2.86,1.28c.71.32,1.64.6,2.18,0a1.34,1.34,0,0,0,.2-1.34A5,5,0,0,0,66.2,230.11Z" class="color1e3d50 svgShape"></path><path fill="#ffffff" d="M61.09,208.35l-1,8.22c0,.27-.08.53-.1.8a9.41,9.41,0,0,0,0,1.29,5.85,5.85,0,0,0,.25,1.44,3.16,3.16,0,0,0,.16.43,3.73,3.73,0,0,0,2.23,2c1.45.54,1.81.11,2.18-.94.14-.4.29-.89.49-1.46l4.73-11A14.3,14.3,0,0,0,61.09,208.35Z" class="colorffffff svgShape"></path><path fill="#021b79" d="M61.06 208.22l-.09 0v.1l-1 8.21c0 .24-.08.5-.11.8a10 10 0 000 1.32 6 6 0 00.26 1.47 2.63 2.63 0 00.17.45 3.87 3.87 0 002.3 2.1 3.28 3.28 0 001.07.24 1.15 1.15 0 00.5-.1 1.8 1.8 0 00.79-1.17c.06-.15.11-.32.17-.5s.19-.61.32-.95L70.19 209l-.12 0A14.49 14.49 0 0061.06 208.22zm4.09 11.89c-.13.35-.23.67-.32 1s-.11.35-.17.5c-.18.52-.35.87-.65 1a1.82 1.82 0 01-1.36-.15 3.6 3.6 0 01-2.14-2c-.06-.14-.11-.27-.16-.42a5.06 5.06 0 01-.24-1.4 9.29 9.29 0 010-1.28c0-.3.07-.55.11-.79h0l1-8.11a14.16 14.16 0 018.61.72zM94 223.29a6.57 6.57 0 00-1.06-1.92c-.45-.56-.74-1.25-1.34-.5-1 1.18 1 3.42 1.53 4.72l1.2 3.06a14.24 14.24 0 00.86 2.12.61.61 0 00.48.13c-.16-1-.74-3.28-.9-4.28A17.3 17.3 0 0094 223.29z" class="color1e3d50 svgShape"></path><path fill="#021b79" d="M103.92,228a10.65,10.65,0,0,1-5.35-5.35c-.42-.94-.51-2.11-1.45-2.67a4.06,4.06,0,0,0-3.47-.2A1.8,1.8,0,0,0,92.49,221a2.33,2.33,0,0,0,.21,1.24,42.69,42.69,0,0,0,3.36,6.94,4.9,4.9,0,0,0,2.35,2.32,5.13,5.13,0,0,0,2.34,0l3.1-.45c.77-.12,1.7-.37,1.86-1.13a1.32,1.32,0,0,0-.54-1.24A5.34,5.34,0,0,0,103.92,228Z" class="color1e3d50 svgShape"></path><path fill="#ffffff" d="M97.82,220.13l-1.91-11.86a14.3,14.3,0,0,0-8,4.12l3.57,7.47c.1.25.22.49.34.73a7.93,7.93,0,0,0,.66,1.11,5.36,5.36,0,0,0,1,1.08,2.4,2.4,0,0,0,.37.28,3.76,3.76,0,0,0,3,.53c1.52-.32,1.59-.88,1.34-2C98.09,221.21,98,220.72,97.82,220.13Z" class="colorffffff svgShape"></path><path fill="#021b79" d="M98.19,221.09c-.07-.3-.16-.62-.24-1l-1.93-12-.14,0a14.53,14.53,0,0,0-8,4.17l-.06.07,0,.08,3.56,7.46c.1.23.21.48.34.74a9.39,9.39,0,0,0,.68,1.13,5.4,5.4,0,0,0,1,1.11,3,3,0,0,0,.38.29,3.73,3.73,0,0,0,2.13.64,4.42,4.42,0,0,0,.94-.1,2.1,2.1,0,0,0,1.4-.71,1.82,1.82,0,0,0,0-1.42C98.28,221.43,98.24,221.27,98.19,221.09ZM98,222.86a1.89,1.89,0,0,1-1.23.59A3.58,3.58,0,0,1,94,223c-.11-.08-.23-.16-.36-.27a5.73,5.73,0,0,1-1-1.05,10.62,10.62,0,0,1-.65-1.1c-.13-.26-.24-.5-.34-.73l-3.52-7.38a14.21,14.21,0,0,1,7.66-4l1.89,11.73c.08.37.17.7.25,1s.08.34.12.49A1.69,1.69,0,0,1,98,222.86Z" class="color1e3d50 svgShape"></path><path fill="#021b79" d="M77.31,159.3c-2.69-6.19-4.28-13.17-2.59-19.71a29.64,29.64,0,0,0,1.07-4.42A5.15,5.15,0,0,0,74.54,131a4.88,4.88,0,0,0-5.06-.71c-1.68.63-1.88,1.53-3.53,2.24-5.31,2.29-8.94,7.6-10.13,13.25s-.15,11.6,1.92,17S62.91,173.05,66,178a74.25,74.25,0,0,0,6.41,8.4c7.51,8.85,11.79,20.9,17.46,31,2.62.77,5.33-.12,8-.38-2.44-13.58-5.17-27.36-11.19-39.78C83.75,171.16,80,165.49,77.31,159.3Z" class="color1e3d50 svgShape"></path><path fill="#021b79" d="M74,135.75a11.9,11.9,0,0,0-6.11,6.31,35.42,35.42,0,0,0-2.3,8.68c-1.28,7.36,2.24,12.31,1,19.67C64,185,61.89,199.67,59.35,214.21a23.2,23.2,0,0,0,8.75,3.08c9.74-26,11.9-50.58,15.94-78C81.82,136.06,77.62,134.31,74,135.75Z" class="color1e3d50 svgShape"></path><path fill="#ffffff" d="M77.46 159.23a41.22 41.22 0 01-2.75-8.7.17.17 0 00-.2-.13.17.17 0 00-.13.2 41.47 41.47 0 002.77 8.77c1.53 3.52 3.46 7 5.16 10a.18.18 0 00.15.09l.08 0a.16.16 0 00.07-.23C80.91 166.18 79 162.74 77.46 159.23zM72.5 186.24a73.88 73.88 0 01-6.38-8.38l-.48-.76a.17.17 0 00-.23-.06.18.18 0 000 .24l.47.76a74.65 74.65 0 006.42 8.42 69.57 69.57 0 014.4 5.82.16.16 0 00.14.07.19.19 0 00.1 0 .17.17 0 000-.23A66.19 66.19 0 0072.5 186.24z" class="colorffffff svgShape"></path><path fill="#62a9f0" d="M84.2,106.27c-.84-2.13-4.29-9.58-8.38-11.69-.77-.4-1.5-.74-2.16-1C71.1,92.45,69,91.76,69,91.76s-2.07.74-4.6,1.91c-.46.21-.94.45-1.43.69-3.71,1.84-7.69,5.55-7.67,7.91,0,0,6.19,11.42,8,22,1.32,7.91-5.26,14.78-4.49,14.77,2.55,0,15.25.46,19.26.81a34.28,34.28,0,0,0,6-.27l-2.67-22.78C81.84,113.1,85.75,110.19,84.2,106.27Z" class="colorf0c562 svgShape"></path><path fill="#021b79" d="M77.51,108.6h0a.19.19,0,0,0-.18.19,4.71,4.71,0,0,1-1.93,3.69,7.45,7.45,0,0,1-4.08,1.38,18.31,18.31,0,0,1-4.42-.37.19.19,0,0,0-.22.15.19.19,0,0,0,.15.22,21.9,21.9,0,0,0,3.75.4l.76,0a7.87,7.87,0,0,0,4.29-1.47,5,5,0,0,0,2.07-4A.18.18,0,0,0,77.51,108.6Z" class="color1e3d50 svgShape"></path><path fill="#ffffff" d="M75.05,79.47a2.06,2.06,0,0,0-1.83,2.19c0,1.24-.06,3,.9,3s2.54-1.66,2.59-2.9A2.05,2.05,0,0,0,75.05,79.47Z" class="colorffffff svgShape"></path><path fill="#021b79" d="M75.05,79.34a2.17,2.17,0,0,0-2,2.31,9.34,9.34,0,0,0,.08,2c.14.76.46,1.16,1,1.17h0c1.08,0,2.65-1.76,2.7-3a2.8,2.8,0,0,0-.48-1.7A1.68,1.68,0,0,0,75.05,79.34Zm-.9,5.2h0c-.35,0-.58-.32-.69-1a9.24,9.24,0,0,1-.07-1.93,1.93,1.93,0,0,1,1.64-2h0a1.44,1.44,0,0,1,1.1.65,2.43,2.43,0,0,1,.43,1.52C76.53,83,75,84.54,74.15,84.54Z" class="color1e3d50 svgShape"></path><path fill="#021b79" d="M75.69,80.08c-.67.1-1.41.49-1.85,2.66A.2.2,0,0,0,74,83h0a.18.18,0,0,0,.17-.11,2.63,2.63,0,0,0,.17-.52,1.07,1.07,0,0,1,.34-.67,1.19,1.19,0,0,1,.82,0,.19.19,0,0,0,.23-.13.2.2,0,0,0-.13-.23,1.86,1.86,0,0,0-.92,0,1.38,1.38,0,0,1,1-.82.19.19,0,0,0,.16-.21A.19.19,0,0,0,75.69,80.08Z" class="color1e3d50 svgShape"></path><path fill="#ffffff" d="M73.66,93.55l-2-.84L71.35,91,71,88.79,66,89l-.12,2.18-.1,1.93c-.43.19-.88.38-1.35.6s-.94.45-1.43.69c0,3.66,8.1,4.35,8.1,4.35s5.1,1.55,5.07-2.11a6.12,6.12,0,0,0-.34-2C75.05,94.18,74.32,93.84,73.66,93.55Z" class="colorffffff svgShape"></path><path fill="#021b79" d="M75.93,94.48l-.05,0c-.69-.37-1.42-.71-2.17-1s-1.28-.54-2-.82l-.6-4-5.28.18L65.64,93c-.41.17-.83.36-1.28.57l-1.43.68-.08,0v.09c0,3.74,7.88,4.45,8.22,4.48a8.2,8.2,0,0,0,2.24.34,3.55,3.55,0,0,0,2.11-.57,2.34,2.34,0,0,0,.87-2A6.21,6.21,0,0,0,76,94.53Zm-.66,3.91c-1.36,1-4.11.19-4.14.18s-7.84-.71-8-4.13c.46-.23.91-.44,1.35-.64h0l1.34-.59.08,0,.22-4.06,4.77-.17.6,3.88.07,0c.72.28,1.39.56,2,.84s1.42.64,2.1,1A6.5,6.5,0,0,1,76,96.6,2.09,2.09,0,0,1,75.27,98.39Z" class="color1e3d50 svgShape"></path><path fill="#021b79" d="M66 89l-.12 2.18a4.66 4.66 0 002 .29A6 6 0 0071.19 90L71 88.79zM68.12 72.94a6.16 6.16 0 106.78 5.91A6.37 6.37 0 0068.12 72.94z" class="color1e3d50 svgShape"></path><path fill="#ffffff" d="M68.09,74.42c-3.51.12-6.22,3.88-6.06,8.4s3.12,8.08,6.63,8,6.22-3.88,6.06-8.4S71.59,74.3,68.09,74.42Z" class="colorffffff svgShape"></path><path fill="#021b79" d="M68.08,74.28c-3.57.12-6.35,4-6.19,8.54s3.1,8.09,6.59,8.09h.18a5.83,5.83,0,0,0,4.51-2.61,9.65,9.65,0,0,0,1.69-5.93,9.53,9.53,0,0,0-2.1-5.8A5.82,5.82,0,0,0,68.08,74.28ZM73,88.14a5.59,5.59,0,0,1-4.3,2.5h-.17c-3.35,0-6.16-3.47-6.32-7.83s2.51-8.14,5.93-8.26h.17a5.62,5.62,0,0,1,4.29,2.19,9.36,9.36,0,0,1,2,5.64A9.26,9.26,0,0,1,73,88.14Z" class="color1e3d50 svgShape"></path><path fill="#021b79" d="M71.13 80.54c-.24 0-.42.34-.41.73s.22.71.46.71.42-.34.41-.74S71.37 80.53 71.13 80.54zM66.48 80.8c-.24 0-.42.34-.41.73s.22.71.46.71.42-.34.41-.74S66.72 80.79 66.48 80.8zM66.87 79.5a1.65 1.65 0 00-1.36.37 1.76 1.76 0 00-.45.87c0 .19.15.4.23.24a1.54 1.54 0 01.51-.63A1.19 1.19 0 0167 80.26c.09 0 .15-.07.12-.2s0-.25-.07-.37S66.93 79.51 66.87 79.5zM72 79.65a1.59 1.59 0 00-1.37-.28.24.24 0 00-.14.2c0 .12 0 .25 0 .38s0 .22.13.18a1.19 1.19 0 011.17 0 1.53 1.53 0 01.55.6c.09.15.27-.07.22-.26A1.7 1.7 0 0072 79.65zM69.17 81.81a.19.19 0 00-.23-.13.17.17 0 00-.13.22l.43 1.83c0 .18.07.37 0 .47s-.28.08-.43 0l-.13 0a1.38 1.38 0 00-.59-.1.19.19 0 10.05.37 1 1 0 01.42.08l.14 0a1.06 1.06 0 00.34.06.63.63 0 00.47-.19.87.87 0 00.11-.81zM66.41 85.09A2.09 2.09 0 0066.59 87a2.13 2.13 0 001.74.87A2 2 0 0070 87 3.65 3.65 0 0166.41 85.09zM67.88 72.25a1.43 1.43 0 00-.89.63 1.63 1.63 0 00.18 1.38c.75 1.62 1.64 3.38 3.29 4.07a7.13 7.13 0 011.92.82c.37.33.59.8.94 1.15 1.49 1.5 2.1-1 2.18-2a5.8 5.8 0 00-7.62-6z" class="color1e3d50 svgShape"></path><path fill="#021b79" d="M69.74,72.2a2.83,2.83,0,0,0-1.86-.42,7.71,7.71,0,0,0-6.31,3.93,7.37,7.37,0,0,0,.24,7.3,1.61,1.61,0,0,0,1.66-1.09,12.53,12.53,0,0,1,.75-2,4.05,4.05,0,0,1,2.68-1.42,8.63,8.63,0,0,0,3-.88A2.11,2.11,0,0,0,70.74,75C70.52,74.05,70.6,72.86,69.74,72.2Z" class="color1e3d50 svgShape"></path><path fill="#ffffff" d="M60.89,80a2,2,0,0,0-1.5,2.42c.13,1.23,1.83,2.81,2.79,2.7s.81-1.84.68-3.07S61.85,79.86,60.89,80Z" class="colorffffff svgShape"></path><path fill="#021b79" d="M60.87,79.83a2.17,2.17,0,0,0-1.61,2.57,3.42,3.42,0,0,0,1.12,1.94,2.76,2.76,0,0,0,1.7.9h.11c.49,0,.79-.47.87-1.24A9.53,9.53,0,0,0,63,82,2.17,2.17,0,0,0,60.87,79.83ZM62.79,84c-.07.63-.28,1-.63,1a2.4,2.4,0,0,1-1.59-.82,3.23,3.23,0,0,1-1-1.77A1.92,1.92,0,0,1,60.9,80.1H61A2,2,0,0,1,62.72,82,9,9,0,0,1,62.79,84Z" class="color1e3d50 svgShape"></path><path fill="#021b79" d="M60.29 80.61a.2.2 0 00-.2.17.19.19 0 00.17.2 1.35 1.35 0 011.1.75 1.72 1.72 0 00-.91.11.18.18 0 00-.12.23.19.19 0 00.24.12 1.1 1.1 0 01.82-.06c.2.1.28.35.38.64a3.66 3.66 0 00.21.51.18.18 0 00.16.1l.07 0a.2.2 0 00.11-.22C61.73 81 61 80.67 60.29 80.61zM87.26 99.6l-26.78 1.94A1.67 1.67 0 0059 102.81L56.19 118a.89.89 0 001 1.09L84 117.1a1.66 1.66 0 001.44-1.27l2.84-15.14A.89.89 0 0087.26 99.6z" class="color1e3d50 svgShape"></path><path fill="#021b79" d="M64.93,116.14l-17.29,1.31a1.12,1.12,0,1,0,.17,2.23l17.29-1.31a1.12,1.12,0,1,0-.17-2.23Z" class="color1e3d50 svgShape"></path><path fill="#ffffff" d="M74.38,113.74a4.88,4.88,0,0,0-.83,1.08s.83-1.43.7-1.7-.38-.55-.68-.37a2.75,2.75,0,0,0-.87,1,10.38,10.38,0,0,1-.62.91l.83-1.5s.49-.7.27-.94a.55.55,0,0,0-.78-.13,8.22,8.22,0,0,0-.93,1.34,10.16,10.16,0,0,1-.85,1.24c-.26.28.17-.46.3-1s.45-1.33,0-1.44-.55.15-.83.65a6.21,6.21,0,0,1-.88,1.94,3.53,3.53,0,0,1-2.12,1.47c-.78.25-1.37-.38-1.76-.28s-.72.37-.67.59.63.4.62.68-8.25,1.37-8.84,1.51l4.48,3.48s8.06-1.84,10.6-3.45a7.31,7.31,0,0,0,2.71-2.69c.65-1.29,1-1.89.78-2.19S74.63,113.63,74.38,113.74Z" class="colorffffff svgShape"></path><path fill="#021b79" d="M74.33,113.63l-.06,0a.89.89,0,0,0,.09-.6.87.87,0,0,0-.47-.48.54.54,0,0,0-.39.06,2.47,2.47,0,0,0-.27.21c.12-.25.21-.55,0-.73a.68.68,0,0,0-1-.14,4.87,4.87,0,0,0-.77,1.08l-.19.29-.18.29L71,114a1.8,1.8,0,0,0,.09-.28c0-.08,0-.17.07-.26a1.75,1.75,0,0,0,.11-1.16.41.41,0,0,0-.24-.19c-.47-.12-.73.27-1,.71a2.42,2.42,0,0,0-.2.57,3.57,3.57,0,0,1-.67,1.37,3.4,3.4,0,0,1-2.06,1.42A1.59,1.59,0,0,1,66,116a1.13,1.13,0,0,0-.64-.14c-.42.1-.83.42-.77.74,0,.15.18.25.33.36a1,1,0,0,1,.28.25c-.53.22-4.41.79-6.52,1.1-1.18.17-2,.3-2.21.34l.06.25c.17,0,1.06-.17,2.18-.34,6.48-1,6.75-1.08,6.76-1.29s-.21-.38-.4-.51-.22-.16-.23-.21.21-.35.58-.44a1,1,0,0,1,.49.12,1.74,1.74,0,0,0,1.28.16,4.17,4.17,0,0,0,2.89-3,2.15,2.15,0,0,1,.19-.5c.28-.52.44-.66.68-.59a.15.15,0,0,1,.09.06,2,2,0,0,1-.13,1c0,.09-.05.18-.07.26a5.74,5.74,0,0,1-.26.69c-.14.32-.18.41-.07.49s.2,0,.24-.08a6.92,6.92,0,0,0,.69-1l.18-.28.19-.3a4.83,4.83,0,0,1,.71-1,.43.43,0,0,1,.61.11c.08.1-.08.5-.29.8l-.83,1.5.21.14a9.83,9.83,0,0,0,.63-.93,2.88,2.88,0,0,1,.82-.94.22.22,0,0,1,.19,0,.63.63,0,0,1,.32.34,4.89,4.89,0,0,1-.7,1.59l.22.13a4,4,0,0,1,.78-1c.19-.09.3-.09.49.16s-.13.74-.57,1.63l-.22.43a7,7,0,0,1-2.67,2.64C69,120.31,61,122.29,60.93,122.31l0,.28c.33-.08,8.11-2,10.63-3.65a7.25,7.25,0,0,0,2.76-2.74l.22-.44c.55-1.07.79-1.56.55-1.89A.58.58,0,0,0,74.33,113.63Z" class="color1e3d50 svgShape"></path></svg>