<svg xmlns="http://www.w3.org/2000/svg" data-name="Layer 1" viewBox="0 0 75 75" id="Addmoney"><path fill="#3a63fb" d="M29.71,29.07a22.58,22.58,0,0,0-6.09,0c-3.4.54-7.53,2.4-9.39,5.25C9.12,42.18,9.78,55.75,9.5,64.54H41.74C41.5,54.47,41,45.23,37.81,37.09,36.54,33.85,34.1,30.2,29.71,29.07Z" class="colorfbb03a svgShape"></path><path fill="#020203" d="M41.74,64.64H9.5a.09.09,0,0,1-.07,0,.11.11,0,0,1,0-.07c0-1.31.06-2.71.08-4.2.13-8.63.3-19.36,4.67-26.09,1.89-2.92,6.11-4.77,9.46-5.3a22.81,22.81,0,0,1,6.12,0h0c4.58,1.18,7,5.05,8.16,8.08,3.23,8.2,3.71,17.68,3.94,27.49a.11.11,0,0,1,0,.07A.09.09,0,0,1,41.74,64.64Zm-32.13-.2h32c-.24-9.75-.72-19.18-3.92-27.31-1.18-3-3.53-6.8-8-8a22.3,22.3,0,0,0-6.05,0c-3.3.53-7.46,2.35-9.32,5.21C10,41,9.82,51.74,9.69,60.34,9.67,61.79,9.65,63.16,9.61,64.44Z" class="color020302 svgShape"></path><path fill="#020203" d="M30.23,64.64h0a.1.1,0,0,1-.09-.11,140.93,140.93,0,0,0-.81-22.14.1.1,0,0,1,.08-.11.12.12,0,0,1,.12.09,141.35,141.35,0,0,1,.81,22.17A.11.11,0,0,1,30.23,64.64Z" class="color020302 svgShape"></path><path fill="#ffffff" d="M23.62,29.05s4.73,11.28,5.8,13.33c0,0,.88-11.13.29-13.31C29.71,29.07,25.85,28.31,23.62,29.05Z" class="colorffffff svgShape"></path><path fill="#020203" d="M29.42,42.48a.09.09,0,0,1-.09,0c-1.06-2-5.75-13.23-5.8-13.34a.11.11,0,0,1,0-.08.12.12,0,0,1,.06-.06c2.23-.74,6,0,6.14,0a.11.11,0,0,1,.08.08c.58,2.17-.26,12.88-.29,13.34a.12.12,0,0,1-.08.09ZM23.76,29.11c.45,1.07,4.35,10.37,5.58,12.9.15-1.91.78-10.81.29-12.85C29.14,29.07,25.8,28.49,23.76,29.11Z" class="color020302 svgShape"></path><path fill="#ffffff" d="M27.54,14.57c-.89.2-5.34,1-5.5,5.31,0,.57,1.4,3.35,1.5,4.06a21.2,21.2,0,0,1,.08,5.11,6.37,6.37,0,0,0,6.09,0,15.84,15.84,0,0,1,.1-2.38,3.16,3.16,0,0,0,3.81-2.11c.86-2.35-.22-5.75-.45-7.25C32.69,14.34,29.62,14.11,27.54,14.57Z" class="colorffffff svgShape"></path><path fill="#020203" d="M26.75,29.92a7.1,7.1,0,0,1-3.17-.78.11.11,0,0,1-.06-.11A21,21,0,0,0,23.44,24a12.19,12.19,0,0,0-.71-1.87,9.18,9.18,0,0,1-.79-2.21c.1-2.81,1.95-4.62,5.47-5.38l.11,0a5.74,5.74,0,0,1,4.35.53,3.3,3.3,0,0,1,1.39,2.32c.05.29.13.66.22,1.09.37,1.71.93,4.3.24,6.21a3.3,3.3,0,0,1-3.82,2.2,14,14,0,0,0-.09,2.23.12.12,0,0,1,0,.11A6.1,6.1,0,0,1,26.75,29.92Zm-3-.93a6.34,6.34,0,0,0,5.87,0,17.66,17.66,0,0,1,.11-2.34.12.12,0,0,1,0-.08.14.14,0,0,1,.09,0,3.08,3.08,0,0,0,3.69-2c.68-1.86.12-4.41-.24-6.1-.1-.43-.18-.8-.22-1.1a3.13,3.13,0,0,0-1.32-2.19,5.54,5.54,0,0,0-4.18-.49h0l-.12,0c-3.42.74-5.21,2.49-5.31,5.19A10,10,0,0,0,22.91,22a11.93,11.93,0,0,1,.73,1.92A21.44,21.44,0,0,1,23.73,29Zm3.81-14.42h0Z" class="color020302 svgShape"></path><path d="M29.85,10.48a6.82,6.82,0,0,0-2.22,1,10.33,10.33,0,0,0-3.1.12,4.31,4.31,0,0,0-3.63,4.28c-3.33,4.71,2.85,9.89,2.92,9.94a.19.19,0,0,0,.1,0h0a.11.11,0,0,0,.09-.08,5.91,5.91,0,0,0,.18-2.22,2.14,2.14,0,0,0-.25-.39c-.43-.6-1.22-1.72-1-2.63a1.33,1.33,0,0,1,.66-.87,1.46,1.46,0,0,1,1.68,0,.12.12,0,0,0,.13,0,.11.11,0,0,0,.07-.11,14.58,14.58,0,0,0-.15-2.34,9.39,9.39,0,0,0,5.28.08,22.63,22.63,0,0,0,5.08-1.86.13.13,0,0,0,.06-.14C34.36,10.54,31.77,10.06,29.85,10.48Z" fill="#000000" class="color000000 svgShape"></path><path d="M27.63 18.1h0a1.88 1.88 0 00-1.25 2.29 2.2 2.2 0 00.75 1.29A1.57 1.57 0 0028.4 22h0a1.88 1.88 0 001.25-2.29 2.2 2.2 0 00-.75-1.29A1.57 1.57 0 0027.63 18.1zm.76 3.69h0a1.34 1.34 0 01-1.1-.31 1.86 1.86 0 01-.66-1.15 1.63 1.63 0 011.05-2h0a1.34 1.34 0 011.1.31 1.92 1.92 0 01.67 1.15A1.64 1.64 0 0128.39 21.79zM32.25 17.22h0A1.86 1.86 0 0031 19.51a2.27 2.27 0 00.76 1.3 1.58 1.58 0 001.3.36h.05a1.87 1.87 0 001.25-2.29A1.89 1.89 0 0032.25 17.22zm.75 3.7h0a1.33 1.33 0 01-1.11-.3 2 2 0 01-.66-1.16 1.64 1.64 0 011.06-2h0a1.65 1.65 0 011.77 1.46A1.65 1.65 0 0133 20.92z" fill="#000000" class="color000000 svgShape"></path><path d="M29.36 19.22a.12.12 0 000 .17.11.11 0 00.17 0A1 1 0 0131 19.1a.12.12 0 00.1 0 .08.08 0 00.07-.05.12.12 0 000-.17A1.3 1.3 0 0029.36 19.22zM32.23 23.3s-.58.8-2.53.47a.12.12 0 00-.14.1.12.12 0 00.1.14 4.47 4.47 0 001.72 0 1.74 1.74 0 001.06-.58.13.13 0 00-.21-.14zM28.51 19.05a1.64 1.64 0 00-1.42.56.12.12 0 000 .17.12.12 0 00.17 0 1.45 1.45 0 011.19-.46.12.12 0 00.14-.11A.11.11 0 0028.51 19.05zM31.45 18.39a.12.12 0 10.13.21 1.46 1.46 0 011.27-.09.1.1 0 00.09 0s.06 0 .08-.06A.11.11 0 0033 18.3 1.65 1.65 0 0031.45 18.39zM32.11 19.16a.32.32 0 00-.18.41c0 .19.2.32.34.29a.32.32 0 00.19-.41A.33.33 0 0032.11 19.16z" fill="#000000" class="color000000 svgShape"></path><path d="M32.09 19a.49.49 0 10.5.38A.45.45 0 0032.09 19zm.16.7c-.07 0-.17-.06-.2-.2s0-.24.09-.26.17.06.2.2S32.32 19.72 32.25 19.74zM27.87 20.1a.34.34 0 00-.19.42c.05.19.2.32.35.28a.31.31 0 00.19-.41A.33.33 0 0027.87 20.1z" fill="#000000" class="color000000 svgShape"></path><path d="M27.85 20a.49.49 0 00.21.94.43.43 0 00.28-.55A.46.46 0 0027.85 20zm.15.7c-.07 0-.17-.06-.2-.19s0-.25.1-.26.17.06.2.19S28.07 20.67 28 20.68zM31 21c-.26 0-.51.19-.74.56a.12.12 0 000 .17.13.13 0 00.09 0 .1.1 0 00.08-.05c.18-.29.36-.44.52-.44a.39.39 0 01.3.2.13.13 0 00.18 0 .13.13 0 000-.17A.69.69 0 0031 21zM29.82 26.6s-3.58-.65-4-2.47a.12.12 0 00-.15-.09.13.13 0 00-.1.15c.45 2 4.11 2.6 4.26 2.63S29.89 26.61 29.82 26.6z" fill="#000000" class="color000000 svgShape"></path><path fill="#021b79" d="M29.17,56.8a.66.66,0,1,0,.66.65A.66.66,0,0,0,29.17,56.8Z" class="color6053a3 svgShape"></path><path d="M29.17 57.94a.49.49 0 01-.49-.49.5.5 0 011 0A.49.49 0 0129.17 57.94zM24.45 19.82a1 1 0 00-1 .49A1.37 1.37 0 0023.88 22a.1.1 0 00.1 0l.07 0a.12.12 0 000-.17s-.81-.68-.39-1.41a.71.71 0 01.76-.36 1 1 0 01.8.71.13.13 0 00.15.1h0a.13.13 0 00.09-.15A1.22 1.22 0 0024.45 19.82z" fill="#000000" class="color000000 svgShape"></path><path d="M24.53,19.9a.83.83,0,0,0-.41.57.87.87,0,0,0,.24.66.11.11,0,0,0,.11,0,.09.09,0,0,0,.06,0,.12.12,0,0,0,0-.17.67.67,0,0,1-.17-.46.58.58,0,0,1,.3-.39.13.13,0,0,0,0-.17A.14.14,0,0,0,24.53,19.9Z" fill="#000000" class="color000000 svgShape"></path><rect width="30" height="20" x="35.5" y="38.54" fill="#0575e6" transform="rotate(180 50.5 48.54)" class="color467cbf svgShape"></rect><path fill="#020203" d="M65.5,58.64h-30a.1.1,0,0,1-.1-.1v-20a.09.09,0,0,1,.1-.1h30a.09.09,0,0,1,.1.1v20A.1.1,0,0,1,65.5,58.64Zm-29.9-.2H65.4V38.64H35.6Z" class="color020302 svgShape"></path><path fill="#9ac4ef" d="M40,40.54H61A2.5,2.5,0,0,0,63.5,43V54a2.5,2.5,0,0,0-2.5,2.5H40A2.5,2.5,0,0,0,37.5,54V43A2.5,2.5,0,0,0,40,40.54Z" class="color9acdef svgShape"></path><circle cx="50.5" cy="48.54" r="5" fill="#ffffff" class="colorffffff svgShape"></circle><circle cx="41.5" cy="48.54" r="1.5" fill="#ffffff" class="colorffffff svgShape"></circle><circle cx="59.5" cy="48.54" r="1.5" fill="#ffffff" class="colorffffff svgShape"></circle><path fill="#ffffff" d="M43.69,48.91c-.67-.15-7.88.37-7.88.37a1.52,1.52,0,0,1,.37-1.83c.9-1,.43-2.35-.14-1.83a23.26,23.26,0,0,0-2.72,2.72,15.33,15.33,0,0,1-1.83,2.37c-.69.72-7.38,0-7.38,0l-.78,6.47c.13-.16,11-1.76,12.89-1.46,1.11.18,1.87-.34,3.07-.93s.83-1.31.83-1.31a1.41,1.41,0,0,0,.77-1.4c1.13-1.3.34-1.51.34-1.51a8.33,8.33,0,0,0,2.53-.65C44.46,49.5,44.1,49,43.69,48.91Z" class="colorffffff svgShape"></path><path fill="#020203" d="M23.33,57.26h0a.08.08,0,0,1-.06-.1L24,50.68a.11.11,0,0,1,.11-.09c2.67.3,6.82.55,7.3,0a14.2,14.2,0,0,0,1.73-2.22l.09-.13a20,20,0,0,1,2.46-2.5l.28-.25a.4.4,0,0,1,.58,0,1.6,1.6,0,0,1-.31,2,1.44,1.44,0,0,0-.38,1.66c.75-.05,7.19-.5,7.84-.36h0a.68.68,0,0,1,.54.51c0,.14,0,.41-.44.66a8.14,8.14,0,0,1-2.31.64.35.35,0,0,1,.07.15c.1.31-.1.76-.58,1.32a1.53,1.53,0,0,1-.75,1.42.81.81,0,0,1,0,.49,1.68,1.68,0,0,1-.9.86l-.5.25a4.06,4.06,0,0,1-2.63.69c-1.77-.27-12.37,1.26-12.82,1.44Zm.87-6.46L23.44,57c.91-.22,4.66-.73,5.67-.86a46.59,46.59,0,0,1,7.12-.56,3.82,3.82,0,0,0,2.51-.67l.5-.25c1.08-.54.8-1.15.79-1.18a.09.09,0,0,1,0-.07.06.06,0,0,1,0-.06,1.33,1.33,0,0,0,.71-1.3.24.24,0,0,1,0-.08c.6-.68.62-1,.57-1.16a.26.26,0,0,0-.18-.19.11.11,0,0,1-.07-.1s0-.09.09-.09a8.14,8.14,0,0,0,2.49-.64c.25-.14.37-.3.34-.46a.45.45,0,0,0-.38-.34h0c-.52-.11-5.36.19-7.85.37a.12.12,0,0,1-.09-.05,1.58,1.58,0,0,1,.37-1.95,1.44,1.44,0,0,0,.32-1.72c-.09-.09-.19-.07-.31,0l-.27.25a18.76,18.76,0,0,0-2.43,2.46l-.09.14a14.68,14.68,0,0,1-1.76,2.24C30.89,51.49,25.23,50.91,24.2,50.8Z" class="color020302 svgShape"></path><path d="M40.92 51.87s-.8.51-2.79 0a.11.11 0 00-.15.09.12.12 0 00.08.15 6.06 6.06 0 001.66.25A2.08 2.08 0 0041.05 52c.05 0 .11-.1.07-.15S41 51.83 40.92 51.87zM41.27 50.45a20.33 20.33 0 01-2.93 0c-.06 0-.12 0-.13.12a.12.12 0 00.13.12c.4 0 .75 0 1.06 0a10.67 10.67 0 001.91-.1.11.11 0 00.09-.14C41.39 50.45 41.34 50.43 41.27 50.45zM40.3 53.23a6.49 6.49 0 01-2.85.38c-.07 0-.13 0-.13.12a.12.12 0 00.12.13h.45a5.18 5.18 0 002.49-.49c.06 0 .13-.07.09-.13S40.36 53.2 40.3 53.23z" fill="#000000" class="color000000 svgShape"></path><path fill="#3a63fb" d="M20.81,48.94a34.4,34.4,0,0,0,.38-12.49l-8.14,5a37.71,37.71,0,0,0-1,8.81c.07,3.44.73,7.37,8.28,7.4a57,57,0,0,0,8.46-1.17l.27-6.11Z" class="colorfbb03a svgShape"></path><path fill="#020203" d="M20.41,57.76h0c-7.23,0-8.3-3.62-8.38-7.5a38.12,38.12,0,0,1,1-8.83.1.1,0,0,1,.12-.08.1.1,0,0,1,.07.13,38,38,0,0,0-1,8.78c.07,3.51.77,7.27,8.18,7.31h0a56.87,56.87,0,0,0,8.33-1.16L29,50.45,20.8,49a.08.08,0,0,1-.07,0,.08.08,0,0,1,0-.08,34.62,34.62,0,0,0,.37-12.44.1.1,0,0,1,.09-.12.1.1,0,0,1,.11.08,35.36,35.36,0,0,1-.35,12.43l8.17,1.41a.11.11,0,0,1,.09.1l-.27,6.12a.1.1,0,0,1-.07.09A59.17,59.17,0,0,1,20.41,57.76Z" class="color020302 svgShape"></path><path fill="#ffffff" d="M31.2,50,26.42,48.5c-1.85,3.12-.42,9.06-.42,9.06l1.09,0-.83.69a8.58,8.58,0,0,0,.47,1.55l4.73-3.17A26.29,26.29,0,0,1,31.2,50Z" class="colorffffff svgShape"></path><path fill="#020203" d="M26.73,59.88h0a.11.11,0,0,1-.07-.06,8.91,8.91,0,0,1-.48-1.58s0-.06,0-.09l.62-.5H26a.11.11,0,0,1-.1-.08c0-.24-1.42-6,.43-9.13a.11.11,0,0,1,.12-.05l4.78,1.49a.1.1,0,0,1,.07.11,26.71,26.71,0,0,0,.26,6.6.1.1,0,0,1,0,.1l-4.73,3.17Zm-.36-1.61a7.23,7.23,0,0,0,.41,1.36l4.57-3.06a26.35,26.35,0,0,1-.25-6.51l-4.64-1.44c-1.63,2.87-.54,8.13-.38,8.84l1,0h0a.1.1,0,0,1,.09.07.09.09,0,0,1,0,.11Z" class="color020302 svgShape"></path><path d="M29.18,56.5a.53.53,0,0,0-.65-.35.51.51,0,0,0-.31.26.48.48,0,0,0,0,.39.52.52,0,0,0,.5.37.39.39,0,0,0,.15,0A.51.51,0,0,0,29.18,56.5Z" fill="#000000" class="color000000 svgShape"></path><path fill="#3a63fb" d="M54.5,21.54a7,7,0,0,0-6,10.56l-1,3.44,3.44-1a7,7,0,1,0,3.56-13Z" class="colorfbb03a svgShape"></path><path fill="#020203" d="M47.5,35.64a.09.09,0,0,1-.07,0,.1.1,0,0,1,0-.1l1-3.4a7.08,7.08,0,1,1,2.55,2.56l-3.39,1Zm3.44-1.18H51a6.92,6.92,0,1,0-2.42-2.42.11.11,0,0,1,0,.08l-.93,3.26,3.26-.93Z" class="color020302 svgShape"></path><rect width="7.64" height="2" x="50.68" y="27.54" fill="#ffffff" class="colorffffff svgShape"></rect><rect width="2" height="7.64" x="53.5" y="24.72" fill="#ffffff" class="colorffffff svgShape"></rect></svg>