<svg xmlns="http://www.w3.org/2000/svg" data-name="Layer 1" viewBox="0 0 2000 2000" id="AddtoFavorite"><g data-name="Add to Favorite" fill="#000000" class="color000000 svgShape"><path fill="#ecf5ff" d="M251.67,488c-9.93-4-19.85-8-32.64-8a69.07,69.07,0,0,0-14.95,1.71c-20.63,4.56-48.43,19.09-23.16,27.69,15.77,5.36,52.24,8.41,85.45,8.41,20,0,38.78-1.1,51.2-3.47,33.05-6.31,20.81-21.58,5.27-32.63-13.92-9.9-30.48-16.43-42.7-16.43a29.78,29.78,0,0,0-4.09.27C263.64,467.35,257.65,477.68,251.67,488Z" class="colorecf5ff svgShape"></path><path fill="#ddeeff" d="M333.56,499.43c-18.27-6.58-36.54-13.16-52.1-13.16A40.23,40.23,0,0,0,266.24,489c-18,7.3-29.34,30.78-27.52,48.74s16.79,30.42,42.66,37.72c21,5.91,49.1,8.44,85.83,8.44q12.89,0,27.18-.41c50.37-1.39,114.34-6.33,131.76-23.16s-11.71-45.54-35-55.4a50.66,50.66,0,0,0-20-4.29c-13.94,0-25.93,6.22-37.93,12.45-11.55-27.73-23.09-55.46-39.94-64.45a31,31,0,0,0-14.69-3.52c-13.44,0-27.28,7.44-35.14,15.86C332.61,472.54,333.09,486,333.56,499.43Z" class="colorddedff svgShape"></path><path fill="#ecf5ff" d="M474 568c12.39-5 24.77-10 40.73-10a85.85 85.85 0 0118.65 2.13c25.75 5.69 60.44 23.83 28.91 34.55-19.69 6.7-65.18 10.51-106.62 10.51-24.93 0-48.4-1.38-63.89-4.34-41.24-7.87-26-26.92-6.58-40.72 17.36-12.35 38-20.49 53.28-20.49a36.29 36.29 0 015.1.34C459.05 542.17 466.52 555.06 474 568zM961.28 389.36c-5.81-25.75-11.63-51.49 80.57-56.62 13.06-.73 28.08-1 44.52-1 99.62 0 251.1 11.49 331.16 12.08l8 0c7 0 13.37-.05 19.19-.05 65.06 0 60.32 6.74 43.69 170.72-18.67 184.12-52.34 566.48-86 948.83-85.92 19.59-171.85 39.19-247.26 39.19-94.23 0-172-30.6-212.88-130C868.77 1193.48 915 791.42 961.28 389.36z" class="colorecf5ff svgShape"></path><path fill="#ffffff" d="M1055 493.76h182.4V676.16H1055zM1290.62 527.06h107.85V657.6H1290.62zM983 818.77H1184.1V973.29H983zM1284 782.81h98.53v223.77H1284zM983 1150.45h215.71v119.48H983zM1288 1166.43h91.87v148.47H1288zM1068.64 381.76h134.6v77.87h-134.6zM1286 408.53h107v73.81H1286zM1078.37 733h117.57v56H1078.37zM1267.18 729H1377.5V693.32H1267.18z" class="colorffffff svgShape"></path><path fill="#ecf5ff" d="M401.81,810.7c-4.12-18.23-8.24-36.47,57.05-40.1,9.25-.52,19.89-.74,31.53-.74,70.55,0,177.83,8.14,234.52,8.56l5.68,0c4.95,0,9.48,0,13.61,0,46.06,0,42.71,4.78,30.93,120.91-13.22,130.39-37.06,401.17-60.91,672-60.85,13.88-121.7,27.75-175.1,27.75-66.74,0-121.84-21.67-150.76-92.08C336.29,1380.17,369.05,1095.43,401.81,810.7Z" class="colorecf5ff svgShape"></path><path fill="#ffffff" d="M468.14 884.63H597.31v129.17H468.14zM635 908.21h76.38v92.44H635zM417.22 1114.8H559.6v109.42H417.22zM630.32 1089.33H700.1v158.47H630.32zM417.22 1349.69H570v84.62H417.22zM633.15 1361h65.07v105.14H633.15zM477.83 805.32h95.33v55.14H477.83zM631.73 824.28h75.8v52.26h-75.8zM484.72 1054.06H568v39.63H484.72zM618.44 1051.21h78.12V1026H618.44z" class="colorffffff svgShape"></path><path fill="#0071e3" d="M684.07,1437.3l-412.88,67.36c29.35-87.72,58.69-175.43,81.56-203.4,6.19-7.57,11.9-10.76,17.27-10.76,14.47,0,26.43,23.19,38.38,46.37,1.63-21.25,3.26-42.51,7.13-45.81a1.86,1.86,0,0,1,1.23-.48c3.88,0,9.52,12.2,16.42,15.64a9.7,9.7,0,0,0,4.35,1c6.36,0,12.17-6.45,10.58-16.16-2-11.94-15.09-28.81-13.2-36.33.79-3.12,4.17-4.64,8.82-4.64,6.56,0,15.65,3,23.62,8.74,13.62,9.8,23.93,27.57,33.21,50.38s17.51,50.66,25.74,78.51c-4-27-8-54,4.15-64.09,4.4-3.64,10.92-5.06,18.8-5.06,13.87,0,31.94,4.4,50,8.81-.78-12-1.55-24,4.21-24a7.11,7.11,0,0,1,3.09.86c9.08,4.5,28.15,27.32,42.73,52.54S674,1409.67,684.07,1437.3Z" class="color00e3b1 svgShape"></path><path fill-opacity=".11" d="M434.71 1255.88q8.31-.11 16.07 8.8a72.48 72.48 0 0111.36 25.48 30.64 30.64 0 011 8.7 37.64 37.64 0 01-2.14 10.21q-4.94 12.65-11.47 14.77l-.09 0q-5.48.9-12.64-10.74-2.37-3.75-4.54-7.48h0a6.08 6.08 0 002.93 1.33 15.47 15.47 0 004.27-.07q6.17-1 8.29-7.87a19.35 19.35 0 00-.36-11q.25-1.58-10.38-23.19-2.73-7.21-2.28-8a7.57 7.57 0 010-.95zM411.93 1301.93q1.27 1.11 2.64 2.46a15.08 15.08 0 014.31 8.75 31 31 0 01-.11 7.24 96.9 96.9 0 01-2 10.79q-2.61 10-4.32 10.25a.6.6 0 01-.37-.06q-1.33-.33-3.51-6.09 1.58-22.3 3.4-33.34zM528.91 1324.82a100.72 100.72 0 00-2.28 10.59c-.33 2.14-.57 4.31-.7 6.52l-.12 3.36a60.93 60.93 0 00.34 6.94q.39 3.55 1.17 7.26l.88 3.74c.65 2.53 1.39 5.09 2.24 7.7q3.12 9.77 11.07 28.37-8.25-2.79-11.93-6.78a20.37 20.37 0 01-2.77-3.63l-1.21-2.28a33.67 33.67 0 01-2-5.63 61.08 61.08 0 01-1.41-7.21l-.09-.73h0q2.08 7.13 4.19 14.73-9-52.65 2.6-63zM602.84 1303.47a6.56 6.56 0 014 1 14.13 14.13 0 00-3.6 1.22 6.82 6.82 0 00-2.06 1.58l-.73 1.1-.49 1.36-.22 1.66a16.22 16.22 0 00.53 4.37l.83 2.78a72.26 72.26 0 002.77 6.77q2.7 5.91 9.54 19.09c1.19 2.34 2.17 4.39 2.94 6.13a16 16 0 011.33 3.88l-.18.8-.12.06q-1.67 0-6.83-5.28a178.45 178.45 0 01-14-16.31q-3.4-4.44-5.93-8.42h0c2.79.67 5.67 1.41 8.65 2.2q-1.35-16.65.83-21.51A3.68 3.68 0 01602.84 1303.47z" fill="#000000" class="color000000 svgShape"></path><path fill-opacity=".11" d="M624.81,1380q7.55-.8,43.93,16.36,8,18.88,15.33,40.9l-404.27,66q-3-32.1,19.78-48.51a74.84,74.84,0,0,1,27.29-12.14c2.58-.57,5.09-1,7.53-1.43a90.1,90.1,0,0,1,18.71-1.19q4.63-.48,19.38,3.32,3.27.27,35,16.45,3.74,1.86,15.8,4.29,19.86,3.48,46.78-.74c2-.31,4-.65,6-1q19.13-4,26.1-12.27,2.4-1.39,2.24-10.6-5.64-18.54-4-20,3-4.44,6.33-5a5.78,5.78,0,0,1,1.38-.05,82.36,82.36,0,0,1,17,.12q7,.4,64,8.15,11.05,1.26,20.43,1.67a85.17,85.17,0,0,0,16-.57c4-.63,6.77-1.69,8.33-3.19l2.26-3.07a12.42,12.42,0,0,0,0-7.92q-1.3-5.6-12.63-25C622.3,1382.73,622.73,1381.23,624.81,1380Z" fill="#000000" class="color000000 svgShape"></path><path fill="#ddeeff" d="M685.76,280.8,662.8,1396l394.08,22.79,19.91-817.13c-17.7-32.86-35.4-65.72-70.94-102.25s-88.91-76.73-145.23-113.77S745,314.69,685.76,280.8Z" class="colorddedff svgShape"></path><path fill="#ffffff" d="M719.47 681H858.3V787.82H719.47zM909.81 681.85h138.84V788.63H909.81zM714.61 849.58H853.44V956.36H714.61zM905 855.25h138.84V962H905zM719.47 1008.4H858.3v106.77H719.47zM900.9 1011.64h138.84v106.77H900.9zM724.33 1159.93H863.16v106.77H724.33zM894.42 1179.37h138.84v106.78H894.42z" class="colorffffff svgShape"></path><path fill="#0071e3" d="M1437.92,1387.32,1025,1454.68c29.34-87.72,58.69-175.44,81.56-203.4,6.18-7.57,11.9-10.76,17.27-10.76,14.47,0,26.42,23.18,38.38,46.37,1.63-21.26,3.26-42.51,7.14-45.81a1.82,1.82,0,0,1,1.22-.48c3.89,0,9.52,12.2,16.42,15.64a9.77,9.77,0,0,0,4.36,1c6.35,0,12.16-6.45,10.57-16.16-2-11.94-15.09-28.81-13.2-36.33.79-3.13,4.16-4.64,8.82-4.64,6.55,0,15.65,3,23.62,8.74,13.62,9.79,23.94,27.57,33.21,50.38s17.51,50.66,25.74,78.51c-4-27-8-54,4.15-64.09,4.4-3.64,10.92-5.06,18.8-5.06,13.87,0,31.94,4.4,50,8.81-.78-12-1.55-24,4.21-24a7.18,7.18,0,0,1,3.09.87c9.08,4.5,28.15,27.31,42.73,52.54S1427.82,1359.69,1437.92,1387.32Z" class="color00e3b1 svgShape"></path><path fill-opacity=".11" d="M1188.56 1205.9q8.31-.12 16.06 8.79a72.63 72.63 0 0111.37 25.49 30.51 30.51 0 011 8.69 37.35 37.35 0 01-2.14 10.22q-4.92 12.65-11.46 14.77l-.09 0q-5.48.9-12.63-10.74-2.39-3.75-4.55-7.48h0A6.13 6.13 0 001189 1257a15.86 15.86 0 004.27-.07q6.17-1 8.29-7.88a19.32 19.32 0 00-.36-11q.26-1.58-10.39-23.2-2.71-7.2-2.27-8a7.41 7.41 0 010-.94zM1165.77 1252c.86.73 1.74 1.55 2.65 2.46a15.08 15.08 0 014.31 8.75 31.55 31.55 0 01-.11 7.24 94.54 94.54 0 01-2.06 10.79q-2.6 10-4.31 10.24a.49.49 0 01-.37-.06q-1.34-.31-3.51-6.08 1.58-22.3 3.4-33.34zM1282.76 1274.84a98.23 98.23 0 00-2.28 10.59c-.33 2.14-.57 4.31-.7 6.52l-.12 3.36a60.65 60.65 0 00.34 6.93 69.82 69.82 0 001.17 7.27l.88 3.74q1 3.8 2.24 7.69 3.11 9.78 11.08 28.37-8.26-2.77-11.94-6.77a19.91 19.91 0 01-2.77-3.63l-1.21-2.28a34.9 34.9 0 01-2-5.63 63.48 63.48 0 01-1.4-7.22l-.09-.72h0q2.08 7.13 4.19 14.73-9-52.65 2.6-63zM1356.69 1253.49a6.57 6.57 0 014 1 14.24 14.24 0 00-3.59 1.23 6.55 6.55 0 00-2 1.58l-.74 1.1-.49 1.36-.22 1.66a15.83 15.83 0 00.53 4.37l.82 2.78q1.07 3 2.77 6.77 2.7 5.91 9.54 19.09c1.19 2.34 2.17 4.39 3 6.13a16.93 16.93 0 011.33 3.88l-.18.8-.12.06q-1.67 0-6.83-5.28a178.45 178.45 0 01-14-16.31q-3.41-4.44-5.93-8.42h0q4.18 1 8.65 2.2-1.35-16.65.83-21.51A3.66 3.66 0 011356.69 1253.49z" fill="#000000" class="color000000 svgShape"></path><path fill-opacity=".11" d="M1378.66,1330.06q7.54-.8,43.93,16.36,8,18.87,15.33,40.9l-404.26,66q-3.06-32.08,19.77-48.5a74.6,74.6,0,0,1,27.29-12.14c2.58-.57,5.08-1.05,7.53-1.43A90.06,90.06,0,0,1,1107,1390q4.63-.49,19.38,3.32,3.29.26,35,16.45,3.72,1.85,15.8,4.28,19.86,3.48,46.78-.74c2-.3,4-.64,6-1q19.13-4,26.1-12.27,2.4-1.39,2.24-10.61-5.64-18.53-4-20,3-4.44,6.33-5a5.76,5.76,0,0,1,1.38,0,82.35,82.35,0,0,1,17,.12q7,.4,64,8.15,11.05,1.26,20.43,1.67a85.21,85.21,0,0,0,16-.57q6-.95,8.32-3.19l2.27-3.07a12.43,12.43,0,0,0,0-7.92q-1.29-5.6-12.62-25Q1375.55,1331.84,1378.66,1330.06Z" fill="#000000" class="color000000 svgShape"></path><path fill="#ecf5ff" d="M964.68,1592.6c-44.63,23.12-89.26,46.23-134.7,70.25s-91.7,48.94-55.49,59.69c14.92,4.43,43.85,6.46,78.81,6.46a1273,1273,0,0,0,163.34-11.26c87.26-12.14,143.07-33,189.18-61.76s82.53-65.4,159.55-90.71S1560,1526,1587.73,1495.13s-34.53-78.61-132.92-102.45-232.94-23.78-303.63-23.81-77.51-.16-140.77-1.68c-18.22-.44-41.12-1-68.39-1a1903,1903,0,0,0-277.54,20.34c-163,23.79-369.35,74.31-425.17,118.16s38.88,81,133.91,99.77c54.45,10.73,109,15.4,163.86,15.4a1107.69,1107.69,0,0,0,123.22-7.21C757,1601.85,855.07,1580,906,1574.76a220.9,220.9,0,0,1,22.11-1.28C958.29,1573.48,961.48,1583,964.68,1592.6Z" class="colorecf6ff svgShape"></path><path fill-opacity=".1" d="M767.07,1414.23h-1.54l-17.52.24q-98.76,46.65-91.86,48-1.36.84-17.74,4.74l-59.6,3.7H556.9q-34.92-5.25-44.88-5.28a446.31,446.31,0,0,0-52.34,2.08q-66.45,5.8-100.45,25.26l30.14,19.1q5.7,8.78,8.67,10.59a178.88,178.88,0,0,0,25.83,8.6l11.92,9.33a41.48,41.48,0,0,0,9.6.66q11-1.48,34-1l23.48,1.42q8.1-.18,18,9.36,5.3-1,17.38,2.79l26.28.83q28.32-.21,36.37-2.85h26.42a131.55,131.55,0,0,0,21.35,2.15q12.19.28,21.54-.23,6.71-1.15,20.28-11.61c2-1,5.24-1.6,9.68-1.79q29.78-.43,41.15.78,19,6,21.43,5.41l66.59-.17a8.69,8.69,0,0,0,3.94-1.3,100.3,100.3,0,0,1,22.3-35.41q3-5.67,49.54-26.88l19.63-24.08q20.88-11.67,24.06-15.4,6.38-6.66,5-10.38,1.49-4.26-26.37-2.55l-27.29,9.07a23.34,23.34,0,0,1-2.78.22q-8.8.29-36.41-2.24l-26.79-.13a65.11,65.11,0,0,1-12.19-2.91q-21.35-11.07-35.61-16.09l-12.13-3.78A58.16,58.16,0,0,0,767.07,1414.23Z" fill="#000000" class="color000000 svgShape"></path><path fill="#021b79" d="M1213.63,433l183.54,424.23c8.46-6.52,16.91-13,25.07-21.14s16-17.74,23.89-27.39L1538.62,664,1685.06,732a58.47,58.47,0,0,0,14.66-9.39,160.91,160.91,0,0,0,17.6-18.29c3.73-4.71,3.38-5.77,3-6.84l-165.19-408c-4.24-9.27-8.48-18.53-29.69-18.53-8.36,0-19.36,1.44-34,4.89-51.91,12.2-149.83,49.51-203.79,79.88S1223.66,409.58,1213.63,433Z" class="color4245a2 svgShape"></path><path d="M1406.24 622.26l16.77-6.9zM1441 583.23l5.59-2.3z" fill="#000000" class="color000000 svgShape"></path><path fill="#0575e6" d="M1214.29,444.74,1393,853.34c.57,2.2,1.14,4.4,2.92,4.4,2.57,0,7.66-4.6,18.92-20.44,19.06-26.81,55.78-85.79,92.49-144.78,60.47,15.83,120.93,31.66,151.22,37.25,9.89,1.83,16.57,2.56,21.07,2.56,9.29,0,9.37-3.12,9.45-6.25l-165.19-408c-3.7-9.46-7.4-18.92-28.46-18.92-8.52,0-19.9,1.55-35.27,5.28-53.33,13-154.79,52.13-203.79,79.89S1210.83,428.42,1214.29,444.74Z" class="color6669fb svgShape"></path><path d="M1406.24 622.26l16.77-6.9zM1441 583.23l5.59-2.3z" fill="#000000" class="color000000 svgShape"></path><path fill-opacity=".11" d="M1327.29,350.73q-71.34,29.5-98.64,52.47-21.21,18.65-15.25,38.89c1.14-1.14,2.36-2.29,3.65-3.42q35.57-26.61,89.47-48.78c3-1.24,6.08-2.48,9.18-3.69q110.46-44.55,153.83-50.77,32.9-5.58,41.45,14.83l154.11,380.66h0q16.53,2.57,21.53.51c1.5-.62,2.22-1.55,2.17-2.79l.26-2.55L1522.57,314.79q-9.63-23-50-13Q1426.24,310.54,1327.29,350.73Z" fill="#000000" class="color000000 svgShape"></path><path d="M1406.24 622.26l16.77-6.9zM1441 583.23l5.59-2.3z" fill="#000000" class="color000000 svgShape"></path><path fill="#ffffff" d="M1530,462.86a110.82,110.82,0,1,1-144.66-60.33A110.82,110.82,0,0,1,1530,462.86Z" class="colorffffff svgShape"></path><path fill="#6686ff" d="M1388.83 458.57l17 41-41.18 15.59c-1.23.64-2.45 1.29-1 6.39a111 111 0 008.31 19.23c1.9 3.25 3.06 4 4 4a3.21 3.21 0 001.07-.24l42.56-18.11 17.93 46.09c.33 1 .67 1.89 2.68 1.89a15.09 15.09 0 003.77-.63 106 106 0 0020.91-8.65c4.89-2.95 4.18-4.6 3.47-6.24l-17.8-43.2 39.71-17.11c1.46-.51 2.92-1 1.48-6.14A90.41 90.41 0 001483 473c-2.07-3.12-3.55-3.88-4.83-3.88a6 6 0 00-1.74.34l-39.08 16.76-17-40.92c-.46-1.22-.92-2.44-3.23-2.44a13.45 13.45 0 00-3.44.57 103.27 103.27 0 00-20.51 9.16C1388.17 455.65 1388.5 457.11 1388.83 458.57zM381.06 1024.1c-4.09-13.11-8.19-26.21-20.81-26.21-3.44 0-7.52 1-12.41 3.2-22.8 10.35-63.19 47.74-66.38 61.48-1.13 4.85 2.37 6.76 8.87 6.76 11.92 0 33.92-6.41 55.93-12.82 79.23 93.39 158.47 186.79 208.92 200.18a49.08 49.08 0 0012.6 1.73c41.64 0 61.42-60.79 81.19-121.59 7.48 47.77 15 95.54 12.84 154.14S648 1419 636.29 1488.43c-10.65 13.4-21.29 26.81 3.14 33.88 13.33 3.85 37.09 5.82 57.94 5.82 17.38 0 32.74-1.37 38.36-4.16 12.34-6.13-22.49-19.13-57.31-32.14 32.86-84.46 65.72-168.92 82.28-267.68s16.83-211.82-21.16-263.59c-17.13-23.35-42-34.23-67.21-34.23-30.63 0-61.62 16.12-79.41 45.49-32.4 53.5-21 151-49 167a19.75 19.75 0 01-10 2.45C502 1141.3 441.5 1082.7 381.06 1024.1z" class="colorff6669 svgShape"></path><path fill="#90c7ff" d="M648.93 1411.7q-5.29 35.34-12.64 76.73c-1.14 1.35-2.19 2.65-3.17 3.9l.23 3.42c1.2 2.33 2.43 3.64 3.67 3.92q9.13 4 35 4.82c2.81.08 5.43.11 7.86.11q18 0 21.82-2.65a1.35 1.35 0 00.06-1.64q-10.2-3.94-23.33-8.48 14.52-36 26.6-68.86h0q-7.56 1.3-13.17 1.92a96.44 96.44 0 01-10.45.62 58.26 58.26 0 01-9.13-.66q-7-.72-16-6.74a77.41 77.41 0 01-7.24-6.42zM380.39 1022.09q-10.87.2-15.7 1.44-9.26 2.31-12.87 4.86a54.79 54.79 0 00-14.48 13.06 49 49 0 00-6.11 9.71c-1.38 3.56-2 5.54-1.74 5.92a7.49 7.49 0 00.37 3 2.41 2.41 0 00.54 1.21q7.38-2.1 15.86-4.79 18 21.6 35.45 41.87 9.06-18.77 17.31-24.24 6.92-5.76 24.63-9.07-19.08-17.92-42.59-41l-.63-2z" class="colorffc290 svgShape"></path><path fill-opacity=".11" d="M674.39,926.06q-24.67,0-53.34,16.16Q602.33,952.38,585.69,986a192.34,192.34,0,0,0-10.15,32.19l-16.67,95.27q-5.83,25.56-23,27.74h-.15a44.58,44.58,0,0,1-19.94-4.55q-4.05-.09-34.54-21.67-31.43-23.52-100.14-90.92l-.63-2-.39-1.26q-5.44-23-20-22.94a28.64,28.64,0,0,0-12.17,3.2q-15.6,6.25-47,35.65-20.4,19.58-19.05,29.74,1.94,2.67,9.05,2.67a78.33,78.33,0,0,0,13.53-1.5l2.2-12.47a37.74,37.74,0,0,1,8.62-13.65q26.73-21.16,42.93-21.16a20.91,20.91,0,0,1,6.19.88,24,24,0,0,1,10.18,9.71q23.14,51.27,27.78,54.66,10.43,15.87,28.88,30.82,41.93,33.07,109,44.78a67,67,0,0,0,9.06.67q18.9,0,26.78-13.16a42.62,42.62,0,0,0,4-11.76q3.78-35.46,6.95-42.53,3.35-10.49,13.18-19.46,14.86-11.74,28-11.75a28.83,28.83,0,0,1,12.38,2.8q16,7.41,12.45,44,.32,7.38-4,26.75,16.32,87,12.13,169-4.49,68.29-24.8,182.59-12.87,15.24-11.67,22.2-.43,8.56,22.28,13.45a294.34,294.34,0,0,0,49.23,4q10.54,0,21.36-.69,26.78-2.28,19.39-9.23a16.53,16.53,0,0,0-2-1.74q-19.54,1.69-32.6,1.69-12.06,0-18.65-1.44-29.68-4.32-27.86-21.19-.52-8.21,2.9-23.52,21.76-81.23,22.41-90.06,6.25-35.91,6.36-44,1.5-7.38,1.13-46.81.39-9.13-7.9-108.82-.78-14.65-.48-28.28-.81-22.21,10-58.38,8.73-28.42,29.35-40.76a8.78,8.78,0,0,1,3.72-.79,16.24,16.24,0,0,1,7.66,2.33q22.27,21.87,31.35,22.24a22.91,22.91,0,0,0,4.93.52,28.83,28.83,0,0,0,3.18-.19q-2.07-41.48-4.8-49a227.08,227.08,0,0,0-10.14-38.76q-14.52-42.88-52.34-59.09A70,70,0,0,0,674.39,926.06Z" fill="#000000" class="color000000 svgShape"></path><path fill="#0071e3" d="M643.19,817.63c25-67.16,50.1-134.32,96.39-192.32S853.4,518.47,920.93,469.64l31.76,20c-57.25,65.56-114.5,131.11-145.05,181.88s-34.4,86.76-38.25,122.75Z" class="color00e3b1 svgShape"></path><path fill-opacity=".11" d="M874.83,580.36q-44.34,30.18-74.46,57.31-49,43.47-74.34,96.44a203.2,203.2,0,0,0-10.2,27.13q-3.52,8.07-7.19,40c0,1.49-.06,2.93-.08,4.33l60.83-11.26q5-70.46,38.25-122.75,17-30,67.24-91.16Z" fill="#000000" class="color000000 svgShape"></path><path fill="#2b57fc" d="M868.53,444.33l-.19.1A11,11,0,0,0,862.79,455l7,78.91-74,45.7a11,11,0,0,0,4.81,20.3L891.49,608l18.81,91.89a11,11,0,0,0,21,1.76l33.19-85.86,92.54,23.38a11,11,0,0,0,10.28-18.61L995.4,551.86l40-81.16a11,11,0,0,0-14.51-14.82l-77.12,36.05-63.52-46.77A11,11,0,0,0,868.53,444.33Z" class="colorfc8a2b svgShape"></path><path fill-opacity=".11" d="M1016.08 458.13a11 11 0 011.26 11.72l-40 81.16 71.94 68.68a11 11 0 01-1.54 17.13l9.32 2.33a11 11 0 0010.28-18.61L995.4 551.86l40-81.16a11 11 0 00-14.51-14.82l-4.78 2.24zM945 618.79h0l-31.7 82a10.85 10.85 0 01-1.54 2.74 11.3 11.3 0 004.68 4.11 11 11 0 0014.92-6l33.1-86.09-16-5.25-1.94 4.63zM868.53 444.33h0l-.06 0 0 0-.09 0a11 11 0 00-2.87 2.33l69 50.14 9.72-4.76-64-47a11 11 0 00-11.72-.83h0zM865.47 446.76l60.24 44.31L865.5 446.74z" fill="#000000" class="color000000 svgShape"></path><path fill="#90c7ff" d="M916.21,471.93c7.13-3.44,14.26-6.89,20.27-7h.22c5.91,0,10.77,3.27,17.59,8.66s15.83,13.12,10.42,19.74c-4.81,5.9-21,11-30,11a15.87,15.87,0,0,1-3-.25c-7.79-1.5-3.64-10.12-4.23-16.67S921.57,476.41,916.21,471.93Z" class="colorffc290 svgShape"></path><path fill="#0071e3" d="M980.71,619.4l-16.52-4.16-8.29,18.4c-2.4-5.52-4.8-11-8.1-14.26a8.77,8.77,0,0,0-5.67-2.83,3.44,3.44,0,0,0-3.33,2.32c-1.51,3.6-.34,11.67,2.53,18.15s7.44,11.38,12,16.27c21,37.72,42,75.44,33.25,113.89s-47.17,77.64-85.13,79.32c-.86,0-1.71.06-2.57.06-37.08,0-73.71-35-110.33-70-21.36-14.1-42.71-28.21-65.88-28.21-16.08,0-33,6.79-51.46,25.08-45,44.66-98.85,157.86-84.17,213.51,8.85,33.55,42.61,46.18,77.47,46.18,23,0,46.39-5.48,63.51-14.07,43.08-21.62,46.05-63,49-104.3,36.7,17.75,73.39,35.49,116.79,35.49,4.63,0,9.33-.2,14.11-.63,49.69-4.4,108.45-32.86,131.61-76.63s10.7-102.87-3.32-141.74-29.58-57.5-45.15-76.14Z" class="color00e3b1 svgShape"></path><path fill="#90c7ff" d="M964.19,615.24l-8.29,18.4q-6.84-16.5-12.39-16.9a6.76,6.76,0,0,0-1.42-.17q-5.36,0-3.39,12,1.8,7.88,4.2,11.61,2.39,4.65,10.43,13.15l15.28,28.3,1.1,2.31a49.06,49.06,0,0,1,13-10q6-3.33,19.37-5.72-5.25-6.85-11-13.12L980.71,619.4Z" class="colorffc290 svgShape"></path><path fill-opacity=".11" d="M967.94,616.2a46.57,46.57,0,0,0,.67,17.37l6.6,19.93q32.41,66.07,38,84.44,10.35,35.17,8,48.44.66,43.3-46.52,83.17-47,31.55-84.93,31.54a87.46,87.46,0,0,1-9.76-.54q-40.08-.22-116.35-49.62h0q8.86,53-17.56,91.76-26.81,40.57-69.86,44.09-3.4.3-6.74.3-24.6,0-45.38-16.42a57.23,57.23,0,0,1-13-19.73q-10.27-36.82-14.85-46.86a241.84,241.84,0,0,0-11.14,50.8q-6.15,57.36,45.85,73.69a169.57,169.57,0,0,0,36.54,4.18,129.06,129.06,0,0,0,79-26.09q27-18.82,30.64-91.94,71.7,36.16,115.34,36.17a88.14,88.14,0,0,0,15.56-1.31q68.58-6.77,117.27-56.06,33.57-34.26,25.27-105.76-6.17-38.26-17.78-65.86-16.11-39.28-41.62-66.83L980.71,619.4,968,616.2Z" fill="#000000" class="color000000 svgShape"></path><path fill="#90c7ff" d="M741.15,763.25c6.69-8.29,13.37-16.57,18.67-26.18a104.69,104.69,0,0,0,11.26-31.68c2-11.15,2.14-22.55,2.25-33.95,9.94-4.15,19.88-8.29,28.43-8.29,6.62,0,12.41,2.49,16.73,9.39,9.88,15.8,12,54.78,7.84,68.6-1.51,5-3.85,6.71-6.57,6.71-4.78,0-10.74-5.28-15.42-7.12a10,10,0,0,0-3.74-.78c-5.07,0-8.14,4.85-9.61,11.08-1.8,7.64-1.2,17.36-.6,27.08-.31,1.32-.62,2.65-3.73,4s-8.76,2.59-15.6,2.59h-.5c-7.07-.07-15.28-1.52-20.69-4.82a21.44,21.44,0,0,1-9-11.49C739.88,765.28,740.51,764.27,741.15,763.25Z" class="colorffc290 svgShape"></path><path fill-opacity=".11" d="M801.76,663.06a29.75,29.75,0,0,0-6.66.8q-8,1.6-21.77,7.58.06,25.2-3.34,39.8a23,23,0,0,1,4.2,1.17q6,2.85,7.67,5.69,3.45,5.45,3.89,8.34,4.28,16.5-3.26,36a48.29,48.29,0,0,1-4.68,8.46l-2.94,3.76a65.39,65.39,0,0,1-6.56,6.55l-3.77,3.1a54.23,54.23,0,0,0,5.75.3,68.74,68.74,0,0,0,11.29-1q7.33-1.47,8.53-4.51l.28-1q-.52-7.35-.6-14.32a70.15,70.15,0,0,1,.49-8.77,22.69,22.69,0,0,1,5-12.8,7.27,7.27,0,0,1,5.35-2.26,9.09,9.09,0,0,1,1.15.07,12.66,12.66,0,0,1,3.75,1.22c1.55.93,3,1.75,4.2,2.48q-1.56-4.61-3.42-9.18l-13.6-31.7q-2-5.42-1.07-7.11a2,2,0,0,1,2-1,7.44,7.44,0,0,1,1.33.13s0-.06.06-.06q.93,0,14.22,5.31a37.43,37.43,0,0,0,7,1.74h.1a15.85,15.85,0,0,0,2.24.16,11.49,11.49,0,0,0,6.56-1.91q.74-.64,1.41-1.35a123.41,123.41,0,0,0-3.76-16.65Q817,663.06,801.76,663.06Z" fill="#000000" class="color000000 svgShape"></path><path d="M805,682.77c7.17,4.46,14.33,8.91,19.57,8.91h.37c5.26-.22,8.46-5.22,11.34-13s5.43-18.34.73-25.45c-3.7-5.61-11.92-9.07-19.08-9.07a18.47,18.47,0,0,0-5.41.76c-7.86,2.47-11.63,11.06-19.83,15.39s-20.82,4.41-26.4,10.67-4.09,18.7.37,23.47,11.91,1.88,18.25,9.09,11.58,24.54,17.19,34.26c5.09,8.84,10.5,11.41,15.38,11.41.49,0,1,0,1.46-.07a14.9,14.9,0,0,0,12-8.57c2.3-4.84,2.39-11.34-1.66-12.58a6.45,6.45,0,0,0-1.88-.24c-3.52,0-8.57,1.85-12.61,1.85a9,9,0,0,1-2.65-.36c-4.91-1.53-6.54-8.61-7.19-17.28S804.64,693,805,682.77Z" fill="#000000" class="color000000 svgShape"></path><path fill="#2b57fc" d="M1217,985.6h-.09a4.68,4.68,0,0,0-4.14,2.91l-12.63,31.14-36.79,2.92a4.66,4.66,0,0,0-2.11,8.59l32.73,20.65-10.7,38.32a4.66,4.66,0,0,0,7.59,4.74l29.16-26,30.39,26.74a4.66,4.66,0,0,0,7.49-5l-13.85-39.86,30.82-22.87a4.67,4.67,0,0,0-2.61-8.41l-36.09-1.33-14.91-29.95A4.66,4.66,0,0,0,1217,985.6Z" class="colorfc8a2b svgShape"></path><path fill-opacity=".11" d="M1270 1019.39a4.68 4.68 0 01-1.79 4.67l-30.82 22.88 13.85 39.85a4.67 4.67 0 01-3.9 6.17l3.06 2.68a4.66 4.66 0 007.49-5l-13.85-39.86 30.82-22.87a4.67 4.67 0 00-2.61-8.41l-2.24-.08zM1212.07 1066.25h0l-27.85 24.8a4.27 4.27 0 01-1.11.73 4.85 4.85 0 001 2.46 4.66 4.66 0 006.79.63l29.17-26.08-5-5.09-1.63 1.38zM1217 985.6h-.09a4.86 4.86 0 00-1.53.33l16.33 32.29 4.58.08-15-30.11a4.66 4.66 0 00-4.26-2.59z" fill="#000000" class="color000000 svgShape"></path><path fill-opacity=".11" d="M1215.39,985.93l14.15,28.39-14.14-28.39Z" fill="#000000" class="color000000 svgShape"></path><path fill="#2b57fc" d="M1350.44,981h-.09a4.68,4.68,0,0,0-4.14,2.91L1333.58,1015,1296.8,1018a4.66,4.66,0,0,0-2.12,8.59l32.73,20.65-10.7,38.32a4.66,4.66,0,0,0,7.59,4.74l29.16-26,30.39,26.75a4.67,4.67,0,0,0,7.49-5l-13.85-39.85,30.82-22.88a4.67,4.67,0,0,0-2.61-8.41l-36.08-1.33-14.92-29.95A4.66,4.66,0,0,0,1350.44,981Z" class="colorfc8a2b svgShape"></path><path fill-opacity=".11" d="M1403.45 1014.77a4.66 4.66 0 01-1.79 4.67l-30.82 22.88 13.85 39.85a4.67 4.67 0 01-3.9 6.17l3.06 2.68a4.67 4.67 0 007.49-5l-13.85-39.85 30.82-22.88a4.67 4.67 0 00-2.61-8.41l-2.23-.08zM1345.5 1061.63h0l-27.85 24.8a4.27 4.27 0 01-1.11.73 4.85 4.85 0 001 2.46 4.66 4.66 0 006.79.63l29.17-26.08-5-5.09-1.63 1.38zM1350.44 981h-.09a4.65 4.65 0 00-1.53.33l16.33 32.29 4.59.08-15-30.11a4.66 4.66 0 00-4.26-2.59z" fill="#000000" class="color000000 svgShape"></path><path fill-opacity=".11" d="M1348.82,981.31,1363,1009.7l-14.14-28.39Z" fill="#000000" class="color000000 svgShape"></path><path fill="#2b57fc" d="M1490.05,979.5H1490a4.65,4.65,0,0,0-4.14,2.9l-12.63,31.15-36.78,2.91a4.66,4.66,0,0,0-2.12,8.59l32.73,20.65-10.7,38.32a4.66,4.66,0,0,0,7.59,4.74l29.16-26,30.39,26.74a4.66,4.66,0,0,0,7.49-5l-13.85-39.85,30.82-22.88a4.67,4.67,0,0,0-2.61-8.41l-36.08-1.33-14.92-29.95A4.66,4.66,0,0,0,1490.05,979.5Z" class="colorfc8a2b svgShape"></path><path fill-opacity=".11" d="M1543.06 1013.29a4.66 4.66 0 01-1.79 4.67l-30.82 22.88 13.85 39.85a4.67 4.67 0 01-3.9 6.17l3.06 2.68a4.66 4.66 0 007.49-5l-13.85-39.85 30.82-22.88a4.67 4.67 0 00-2.61-8.41l-2.24-.08zM1485.11 1060.15h0l-27.85 24.8a4.58 4.58 0 01-1.11.74 4.85 4.85 0 001 2.45 4.66 4.66 0 006.79.63l29.17-26.08-5-5.08-1.63 1.37zM1490.05 979.5H1490a4.64 4.64 0 00-1.53.32l16.33 32.29 4.59.08-15-30.11a4.66 4.66 0 00-4.26-2.59h0zM1488.43 979.83l14.15 28.39-14.14-28.39z" fill="#000000" class="color000000 svgShape"></path><path fill="#2b57fc" d="M1631.88,975.07h-.09a4.68,4.68,0,0,0-4.15,2.91L1615,1009.12l-36.79,2.92a4.66,4.66,0,0,0-2.12,8.59l32.74,20.65-10.7,38.32a4.66,4.66,0,0,0,7.59,4.74l29.16-26,30.39,26.75a4.67,4.67,0,0,0,7.49-5l-13.85-39.86,30.81-22.88a4.66,4.66,0,0,0-2.6-8.4l-36.09-1.34-14.91-30A4.66,4.66,0,0,0,1631.88,975.07Z" class="colorfc8a2b svgShape"></path><path d="M1684.89,1008.86a4.67,4.67,0,0,1-1.79,4.66l-30.82,22.88,13.85,39.86a4.66,4.66,0,0,1-3.9,6.16l3.06,2.69a4.67,4.67,0,0,0,7.49-5l-13.85-39.86,30.81-22.88a4.66,4.66,0,0,0-2.6-8.4l-2.24-.08Z" opacity=".11" fill="#000000" class="color000000 svgShape"></path><path fill-opacity=".11" d="M1626.93 1055.71h0l-27.84 24.81a4.73 4.73 0 01-1.11.73 4.76 4.76 0 001 2.46 4.66 4.66 0 006.79.63l29.17-26.08-5-5.09-1.62 1.37zM1631.88 975.07h-.09a4.7 4.7 0 00-1.54.32l16.34 32.29 4.58.09-15-30.12a4.66 4.66 0 00-4.26-2.58z" fill="#000000" class="color000000 svgShape"></path><path fill="#e5e5e6" d="M1630.25 975.39l14.15 28.4-14.13-28.4zM1769.4 973.71h-.09a4.66 4.66 0 00-4.14 2.91l-12.63 31.14-36.78 2.91a4.66 4.66 0 00-2.12 8.59l32.73 20.65-10.7 38.33a4.66 4.66 0 007.59 4.73l29.16-26 30.39 26.75a4.74 4.74 0 003.17 1.16 4.67 4.67 0 004.32-6.19l-13.85-39.86 30.82-22.88a4.66 4.66 0 00-2.61-8.4l-36.08-1.34-14.92-30A4.65 4.65 0 001769.4 973.71z" class="colore5e6e6 svgShape"></path><path fill-opacity=".11" d="M1822.41,1007.5a4.65,4.65,0,0,1-1.79,4.66L1789.8,1035l13.85,39.86a4.66,4.66,0,0,1-3.9,6.16l3.06,2.69a4.74,4.74,0,0,0,3.17,1.16,4.67,4.67,0,0,0,4.32-6.19l-13.85-39.86,30.82-22.88a4.66,4.66,0,0,0-2.61-8.4l-2.23-.08Z" fill="#000000" class="color000000 svgShape"></path><path d="M1764.46,1054.35h0l-27.85,24.8a4.3,4.3,0,0,1-1.11.74,4.88,4.88,0,0,0,1,2.46,4.67,4.67,0,0,0,6.79.62l29.17-26.07-5-5.09-1.63,1.37Z" opacity=".11" fill="#000000" class="color000000 svgShape"></path><g opacity=".1" fill="#000000" class="color000000 svgShape"><path d="M1769.4,973.71h-.09a4.64,4.64,0,0,0-1.53.32l16.33,32.29,4.59.09-15-30.12a4.65,4.65,0,0,0-4.26-2.58Z" fill="#000000" class="color000000 svgShape"></path></g><path fill="#e5e5e6" d="M1767.78,974l14.15,28.39L1767.79,974Z" class="colore5e6e6 svgShape"></path></g></svg>