<svg xmlns="http://www.w3.org/2000/svg" viewBox="0 0 1364 960" id="AttorneyandLawyer"><path fill="#e6edf5" d="M288.824 671.214H715.19v14H288.824z" class="colore6e6f5 svgShape"></path><path fill="#ced7e0" d="M267.334 685.214H736.68v23.059H267.334z" class="colorcecee0 svgShape"></path><path fill="#e6edf5" d="M288.824 432.524H715.19v21.64H288.824z" class="colore6e6f5 svgShape"></path><path fill="#dce3eb" d="M288.824 414.898H715.19v17.627H288.824z" class="colordcdceb svgShape"></path><path fill="#e6edf5" d="M548.711 475.963h40.5v173.452h-40.5z" class="colore6e6f5 svgShape"></path><path fill="#ced7e0" d="M568.906 454.164h-29.067l8.76 21.799h40.613l8.76-21.799zM568.962 671.214h29.066l-8.76-21.799h-40.613l-8.759 21.799z" class="colorcecee0 svgShape"></path><path fill="#e6edf5" d="M655.805 475.963h40.5v173.452h-40.5z" class="colore6e6f5 svgShape"></path><path fill="#ced7e0" d="M675.999 454.164h-29.066l8.76 21.799h40.612l8.76-21.799zM676.055 671.214h29.066l-8.759-21.799h-40.613l-8.76 21.799z" class="colorcecee0 svgShape"></path><path fill="#e6edf5" d="M425.507 475.963h40.5v173.452h-40.5z" class="colore6e6f5 svgShape"></path><path fill="#ced7e0" d="M445.702 454.164h-29.067l8.76 21.799h40.613l8.76-21.799zM445.758 671.214h29.066l-8.76-21.799h-40.613l-8.759 21.799z" class="colorcecee0 svgShape"></path><path fill="#e6edf5" d="M314.952 475.963h40.5v173.452h-40.5z" class="colore6e6f5 svgShape"></path><path fill="#ced7e0" d="M335.146 454.164H306.08l8.759 21.799h40.613l8.76-21.799zM335.202 671.214h29.066l-8.76-21.799h-40.613l-8.759 21.799z" class="colorcecee0 svgShape"></path><path fill="#e6edf5" d="m504.124 282.079 177.661 132.819h-354.27z" class="colore6e6f5 svgShape"></path><path fill="#ced7e0" d="m504.885 306.918 127.524 93.722H376.89z" class="colorcecee0 svgShape"></path><ellipse cx="504.65" cy="361.668" fill="#e6edf5" rx="26.731" ry="20.795" class="colore6e6f5 svgShape"></ellipse><path fill="#96b7d9" d="M1045.661 630.818c1.968-3.186 1.574-7.488-.448-10.633-2.023-3.145-5.446-5.206-9.053-6.192-3.608-.986-7.414-.99-11.146-.723-6.177.442-12.488 1.702-17.823 4.744a177.38 177.38 0 0 1 9.695-25.47c.353-.749.719-1.491 1.082-2.234l16.966 9.512c3.773 2.115 7.666 4.272 11.957 4.826 4.292.554 9.136-.87 11.412-4.555 1.968-3.186 1.574-7.488-.449-10.633-2.022-3.145-5.445-5.206-9.053-6.192-3.608-.986-7.414-.99-11.146-.723-6.371.456-12.887 1.78-18.325 5.036a180.91 180.91 0 0 1 15.942-25.724l17.56 8.978c3.852 1.969 7.824 3.974 12.135 4.363 4.311.389 9.096-1.219 11.229-4.989 1.845-3.259 1.286-7.543-.856-10.608s-5.641-4.993-9.284-5.84c-3.643-.847-7.446-.705-11.167-.296-5.956.656-12.01 2.079-17.121 5.109a177.798 177.798 0 0 1 14.489-16.432 171.05 171.05 0 0 1 4.682-4.493l18.364 8.638c3.915 1.841 7.951 3.715 12.272 3.962 4.321.247 9.051-1.517 11.06-5.355 1.736-3.318 1.037-7.58-1.204-10.573-2.241-2.993-5.803-4.805-9.471-5.531-3.669-.727-7.466-.46-11.171.072-5.293.76-10.642 2.137-15.292 4.695a170.52 170.52 0 0 1 17.541-13.277l19.755-1.12c4.322-.245 8.766-.52 12.687-2.359 3.921-1.84 7.245-5.642 7.187-9.97-.05-3.742-2.693-7.155-6.091-8.719-3.397-1.563-7.393-1.46-10.969-.352-3.576 1.108-6.79 3.149-9.798 5.38-5.543 4.11-10.686 9.164-13.408 15.462-.021.012-.042.019-.062.033a172.175 172.175 0 0 0-18.64 14.167c2.699-4.867 4.044-10.518 4.716-16.09.448-3.716.629-7.519-.18-11.171-.809-3.653-2.7-7.172-5.742-9.346-3.043-2.174-7.319-2.777-10.596-.966-3.791 2.095-5.448 6.865-5.104 11.18.344 4.315 2.308 8.309 4.237 12.181l8.813 17.693a177.918 177.918 0 0 0-19.371 21.103c1.655-5.621 1.589-11.749.818-17.608-.488-3.71-1.256-7.437-2.947-10.773-1.69-3.336-4.396-6.275-7.884-7.624-3.488-1.35-7.782-.872-10.508 1.696-3.154 2.97-3.576 8-2.172 12.092 1.405 4.093 4.299 7.473 7.129 10.744l12.926 14.938c-.179.242-.364.479-.542.722a183.387 183.387 0 0 0-15.495 25.164c1.036-6.483-.341-13.234-2.513-19.476-1.229-3.533-2.736-7.026-5.067-9.949-2.332-2.924-5.577-5.253-9.267-5.868-3.69-.615-7.8.723-9.951 3.788-2.488 3.546-1.883 8.555.321 12.278 2.205 3.722 5.724 6.445 9.159 9.074l16.191 12.393c-.061.123-.12.248-.18.371l-.191.025.141.079a180.31 180.31 0 0 0-10.543 26.751c-1.435-5.72-4.59-11.019-8.22-15.734-2.325-3.02-4.905-5.912-8.1-7.991s-7.083-3.289-10.848-2.701c-3.765.587-7.309 3.196-8.402 6.847-1.265 4.223.931 8.871 4.26 11.761 3.329 2.891 7.608 4.394 11.775 5.834l17.754 6.137.497.279a171.741 171.741 0 0 0-5.573 31.172c-.094 1.113 1.627 1.472 1.721.345a171.44 171.44 0 0 1 5.432-30.63l16.096 9.025c3.773 2.115 7.665 4.272 11.957 4.826 4.296.554 9.139-.869 11.415-4.555zM246.549 747.022c-2.08-3.194-.285-7.764 2.945-9.796 3.23-2.033 7.354-2.073 11.149-1.504 6.139.921 11.526 3.056 17.055 5.534a253.514 253.514 0 0 1-10.942-13.24 258.555 258.555 0 0 1-6.734-9.131c-7.271 4.594-15.946 6.981-24.564 6.73-3.267-.096-6.941-.809-8.707-3.537-2.064-3.187-.269-7.756 2.95-9.794 3.219-2.038 7.323-2.085 11.098-1.524 6.34.942 11.871 3.195 17.591 5.779-6.606-9.607-12.534-19.681-17.537-30.19-7.827 3.272-16.633 4.218-24.978 2.637-3.21-.608-6.724-1.89-8.033-4.862-1.528-3.471.975-7.701 4.478-9.205 3.503-1.506 7.563-.908 11.202.241 5.895 1.861 10.852 4.807 15.896 8.113-5.097-11.159-9.354-23.198-9.963-35.471-.013-.255-.014-.512-.025-.767-8.294 2.209-17.256 1.917-25.378-.86-3.09-1.056-6.384-2.824-7.251-5.949-1.013-3.652 2.073-7.484 5.757-8.477 3.684-.994 7.616.173 11.052 1.825 6.054 2.91 10.825 6.935 15.752 11.334-.314-14.196 2.009-28.511 1.204-42.674-8.413 2.335-17.542 2.085-25.803-.74-3.09-1.056-6.384-2.823-7.251-5.95-1.013-3.652 2.073-7.483 5.757-8.477 3.684-.994 7.616.173 11.052 1.825 6.217 2.989 11.081 7.152 16.15 11.69-.265-3.536-.736-7.061-1.514-10.572-1.574-7.109-4.667-13.815-8.816-19.891-7.632 4.617-16.725 6.823-25.642 6.19-3.259-.231-6.901-1.098-8.551-3.897-1.927-3.27.06-7.761 3.362-9.662 3.302-1.902 7.405-1.779 11.153-1.061 6.874 1.317 12.719 4.154 18.885 7.294-6.9-9.666-16.479-17.645-26.846-22.953-7.387 3.321-15.722 4.556-23.761 3.474-3.239-.437-6.817-1.531-8.284-4.428-1.714-3.385.558-7.742 3.975-9.431 3.417-1.689 7.504-1.308 11.199-.354 5.894 1.521 10.937 4.141 16.068 7.115.221-.003.455.043.698.16 8.925 4.321 16.914 10.45 23.6 17.722a89.498 89.498 0 0 1 4.256 4.985c-2.17-7.526-2.252-15.644-.175-23.198.86-3.128 2.423-6.505 5.51-7.569 3.607-1.242 7.661 1.563 8.901 5.145 1.241 3.583.324 7.552-1.113 11.063-2.68 6.546-6.708 11.752-11.093 17.248 2.69 3.725 5.028 7.693 6.761 11.934 2.625 6.422 3.898 13.075 4.424 19.83 1.441-7.947 5.164-15.483 10.655-21.445 2.204-2.394 5.148-4.691 8.384-4.239 3.78.528 6.097 4.86 5.554 8.61-.544 3.749-3.186 6.866-6.078 9.339-5.543 4.737-11.702 7.571-18.333 10.561.542 11.165-.724 22.56-1.126 33.612-.126 3.479-.153 6.935.008 10.376 1.123-8.697 4.988-17.03 10.941-23.511 2.201-2.396 5.142-4.698 8.378-4.25 3.781.523 6.104 4.853 5.565 8.602-.539 3.75-3.177 6.871-6.066 9.346-5.663 4.853-11.972 7.715-18.773 10.791.212 3.665.658 7.312 1.469 10.947 1.483 6.648 3.727 13.121 6.351 19.405.698 1.671 1.427 3.33 2.179 4.979.257-7.947 2.761-15.821 7.192-22.449 1.806-2.702 4.358-5.421 7.625-5.469 3.818-.056 6.78 3.87 6.824 7.658.044 3.788-2.082 7.272-4.557 10.156-4.572 5.331-9.984 8.999-15.822 12.812 4.888 10.266 10.762 20.094 17.226 29.462-1.793-8.105-1.186-16.727 1.777-24.489 1.158-3.032 3.038-6.246 6.213-7.011 3.71-.894 7.476 2.282 8.365 5.966.89 3.684-.405 7.548-2.173 10.906-3.356 6.371-7.967 11.228-12.961 16.381a284.937 284.937 0 0 0 2.626 3.684c4.862 6.69 10.049 13.187 15.581 19.376-1.625-7.92-.971-16.297 1.916-23.858 1.158-3.032 3.038-6.245 6.213-7.011 3.71-.894 7.476 2.283 8.366 5.966.889 3.684-.406 7.548-2.174 10.906-3.263 6.197-7.714 10.96-12.548 15.957 6.392 6.981 13.238 13.545 20.582 19.513 1.53 1.244-.519 3.512-2.046 2.271-7.416-6.027-14.316-12.67-20.765-19.723-7.31 4.608-16.045 6.994-24.729 6.724-3.283-.1-6.977-.822-8.758-3.555z" class="colorb4d996 svgShape"></path><path fill="#6291c0" d="m291.458 770.997-1.01 44.887c-4.037-3.308-8.443-6.232-12.69-9.204-4.178-2.924-8.32-5.97-11.942-9.588-3.684-3.678-6.411-7.896-8.726-12.518-2.24-4.471-4.271-9.097-7.416-13.051-2.467-3.113-5.601-5.626-8.971-7.723-6.983-4.359-14.866-7.014-21.958-11.167-3.576-2.083-6.911-4.565-9.613-7.705-3.263-3.783-5.521-8.287-7.612-12.776-2.09-4.48-4.041-9.05-6.703-13.237a44.128 44.128 0 0 0-8.258-9.569c-6.39-5.591-14.193-9.435-22.345-11.759-19.953-5.704-40.909-1.737-60.597 3.112-1.162.289-2.325.577-3.495.877-.838-11.731 16.729-19.865 27.55-21.202 7.402-.913 14.74 2.028 22.189 2.244 37.751 1.125 63.06-10.156 78.109 33.886 1.68 4.931 3.068 10.169 6.51 14.096 15.723 15.498 58.189 8.106 56.978 40.397z" class="color62c0a6 svgShape"></path><path fill="#5279a1" d="M256.683 860.499c-31.239 9.184-60.672-19.013-38.782-51.806 14.851-16.682-2.277-28.671-17.965-33.594-7.785-2.453-17.424-3.437-21.195-10.63-6.334-16.224 15.688-35.224-17.966-45.355-18.989-5.726-55.877 8.939-60.49-16.257-.02-.118-.043-.244-.054-.364 18.701-4.727 38.264-9.168 57.504-5.504 8.447 1.609 16.699 4.71 23.787 9.6 3.462 2.385 6.627 5.211 9.323 8.437 2.997 3.594 5.232 7.67 7.234 11.879 2.112 4.455 4.007 9.031 6.55 13.275 2.235 3.736 5.011 7.055 8.457 9.755 6.229 4.876 13.737 7.699 20.789 11.165 3.583 1.77 7.125 3.72 10.264 6.213 3.583 2.864 6.294 6.416 8.482 10.419 2.387 4.377 4.253 9.026 6.982 13.215 2.628 4.053 6.057 7.512 9.779 10.587 6.705 5.56 14.361 9.912 21.037 15.507-.002.001 1.405 33.126-33.736 43.458z" class="color52a18b svgShape"></path><path fill="#ffffff" d="m290.448 815.884-.031 1.158c-6.676-5.595-14.332-9.947-21.037-15.507-3.722-3.075-7.151-6.534-9.779-10.587-2.729-4.189-4.595-8.837-6.982-13.215-2.187-4.003-4.898-7.555-8.482-10.419-3.138-2.493-6.681-4.443-10.264-6.213-7.052-3.465-14.56-6.288-20.789-11.165-3.446-2.7-6.222-6.019-8.457-9.755-2.543-4.244-4.438-8.82-6.55-13.275-2.002-4.209-4.237-8.285-7.234-11.879-2.695-3.226-5.86-6.052-9.323-8.437-7.088-4.889-15.34-7.99-23.787-9.6-19.239-3.665-38.802.776-57.504 5.504a10.29 10.29 0 0 1-.108-.916c1.17-.3 2.333-.588 3.495-.877 19.688-4.849 40.643-8.816 60.597-3.112 8.152 2.324 15.955 6.168 22.345 11.759a44.128 44.128 0 0 1 8.258 9.569c2.662 4.187 4.613 8.758 6.703 13.237 2.092 4.488 4.349 8.993 7.612 12.776 2.702 3.139 6.037 5.622 9.613 7.705 7.092 4.153 14.976 6.808 21.958 11.167 3.37 2.096 6.504 4.61 8.971 7.723 3.145 3.954 5.176 8.58 7.416 13.051 2.315 4.621 5.042 8.84 8.726 12.518 3.622 3.618 7.763 6.665 11.942 9.588 4.248 2.97 8.654 5.894 12.691 9.202z" class="colorffffff svgShape"></path><path fill="#e3f1ff" d="M272.228 816.644v56.044h162.906c15.456 0 28.034-12.556 28.034-28.012 0-15.456-12.578-28.033-28.034-28.033H272.228z" class="colorfff4e3 svgShape"></path><path fill="#476eff" d="M744.893 814.281v60.766c0 4.814-3.901 8.715-8.707 8.715H272.232v-11.074h176.231c28.376-24.555 11.131-56.041-13.328-56.041H272.232v-11.074h463.954c4.806 0 8.707 3.901 8.707 8.708z" class="colorffbc47 svgShape"></path><path fill="#94c9ff" d="M508.625 883.76h-10.489v-78.188h10.49zM534.852 883.76h-10.49v-78.188h10.49z" class="colorffd894 svgShape"></path><path fill="#9dc4eb" d="M744.893 872.704v2.342c0 4.814-3.901 8.715-8.707 8.715H392.528l-2.811-11.074h45.419c15.452 0 28.036-12.552 28.036-28.012 0-15.452-12.585-28.028-28.036-28.028h-50.128l9.442-11.074h83.269c6.979 5.896 11.385 28.545 5.02 47.446-8.917 26.494 5.375 18.505 38.557 19.668 30.872 1.091 200.076.154 223.597.017z" class="colorebcf9d svgShape"></path><path fill="#2e5aff" d="M442.74 817.695c-5.147-6.096-12.838-9.977-21.421-9.977H272.228v8.927h162.906a27.92 27.92 0 0 1 7.606 1.05z" class="colorffb32e svgShape"></path><path fill="#94c9ff" d="M474.238 844.676c0 21.542-17.536 39.086-39.102 39.086H272.232v-11.074h162.904c15.452 0 28.036-12.552 28.036-28.012 0-15.452-12.585-28.028-28.036-28.028H272.232v-11.074h162.904c21.566-.001 39.102 17.535 39.102 39.102z" class="colorffd894 svgShape"></path><path fill="#c2dbf5" d="M375.563 827.37h-95.954a2.104 2.104 0 1 1 0-4.21h95.954a2.104 2.104 0 1 1 0 4.21zM444.168 867.328H335.349a2.106 2.106 0 0 1 0-4.21h108.819a2.104 2.104 0 1 1 0 4.21zM375.563 847.779h-59.927a2.105 2.105 0 0 1 0-4.209h59.927c1.163 0 2.105.942 2.105 2.105a2.103 2.103 0 0 1-2.105 2.104zM304.431 847.779h-25.896a2.105 2.105 0 0 1 0-4.21h25.896a2.105 2.105 0 0 1 0 4.21zM433.862 847.779h-25.896a2.104 2.104 0 1 1 0-4.21h25.896a2.105 2.105 0 0 1 0 4.21zM418.808 827.37h-8.535a2.104 2.104 0 1 1 0-4.21h8.535a2.104 2.104 0 1 1 0 4.21zM323.45 867.328h-8.535a2.105 2.105 0 0 1 0-4.21h8.535a2.104 2.104 0 1 1 0 4.21zM456.913 847.779h-8.535a2.105 2.105 0 0 1 0-4.21h8.535a2.106 2.106 0 0 1 0 4.21z" class="colorf5dac2 svgShape"></path><path fill="#4e66c2" d="M403.581 832.416v24.5l-10.966-8.659-10.967 8.659v-24.5z" class="colorc24e4e svgShape"></path><path fill="#254ee6" d="M572.569 859.407h16.336v4.954h-22.429v-46.666h6.093v41.712zM595.4 836.006c1.517-2.834 3.604-5.032 6.26-6.595 2.655-1.562 5.613-2.343 8.872-2.343 3.214 0 6.003.693 8.369 2.076 2.365 1.384 4.128 3.124 5.289 5.222v-6.695h6.16v36.69h-6.16v-6.829c-1.205 2.142-3.002 3.917-5.389 5.322-2.389 1.407-5.167 2.109-8.336 2.109-3.258 0-6.204-.803-8.838-2.41-2.634-1.606-4.71-3.86-6.227-6.762-1.518-2.901-2.276-6.204-2.276-9.909 0-3.75.758-7.041 2.276-9.876zm27.116 2.712c-1.116-2.053-2.623-3.626-4.519-4.72-1.898-1.093-3.984-1.641-6.26-1.641s-4.353.536-6.227 1.607c-1.875 1.072-3.371 2.634-4.486 4.687-1.117 2.053-1.674 4.464-1.674 7.231 0 2.812.557 5.255 1.674 7.331 1.115 2.076 2.611 3.66 4.486 4.754 1.874 1.094 3.95 1.64 6.227 1.64 2.276 0 4.362-.546 6.26-1.64 1.896-1.093 3.403-2.678 4.519-4.754 1.115-2.075 1.674-4.496 1.674-7.265 0-2.766-.559-5.177-1.674-7.23zM689.535 827.671l-11.448 36.69h-6.294l-8.838-29.124-8.838 29.124h-6.293l-11.516-36.69h6.227l8.436 30.798 9.106-30.798h6.227l8.905 30.865 8.302-30.865h6.024z" class="colore68925 svgShape"></path><path fill="#e3f1ff" d="M703.57 803.229c-2.418-.865-404.39 1.643-406.122-.855-9.772-4.551-18.035-12.24-23.331-21.617h-.065v-51.369h.039c5.625-9.971 14.588-18.011 25.146-22.458h403.606c-9.534 31.198-5.825 64.854.727 96.299z" class="colorfff4e3 svgShape"></path><path fill="#4d5573" d="M709.736 792.626a7.719 7.719 0 0 1 2.285 5.505 7.787 7.787 0 0 1-7.79 7.788H312.257c-7.179 0-14.02-1.441-20.239-4.063a43.591 43.591 0 0 1-1.908-.857 37.567 37.567 0 0 1-1.921-.948c-.519-.273-1.039-.545-1.558-.844a40.88 40.88 0 0 1-1.623-.96 45.813 45.813 0 0 1-1.35-.844c-.467-.312-.935-.623-1.389-.947-.403-.287-.805-.572-1.195-.857a45.141 45.141 0 0 1-1.22-.948 39.147 39.147 0 0 1-1.051-.856 41.715 41.715 0 0 1-2.026-1.792 35.853 35.853 0 0 1-1.026-.961l-.428-.428c-.143-.143-.273-.272-.402-.416-.312-.311-.61-.623-.896-.947a16.638 16.638 0 0 1-.792-.856c-.273-.311-.559-.623-.818-.949a13.85 13.85 0 0 1-.701-.843 28.753 28.753 0 0 1-.766-.96c-.221-.272-.428-.559-.636-.844-.233-.312-.468-.623-.688-.947a18.266 18.266 0 0 1-.598-.857c-.221-.312-.428-.637-.636-.948-.182-.286-.364-.558-.532-.843-.195-.312-.39-.636-.585-.96-.168-.285-.338-.572-.493-.857a.486.486 0 0 1-.065-.117c-4.257-7.568-6.686-16.292-6.686-25.587s2.428-18.019 6.686-25.587l.039-.078c.156-.286.325-.572.493-.844.182-.325.377-.649.585-.961.169-.285.35-.558.532-.844.194-.311.402-.635.623-.947.195-.285.389-.571.598-.857.221-.324.454-.635.688-.947.208-.285.415-.571.636-.844.247-.324.506-.649.753-.96.233-.286.468-.571.701-.844.272-.325.545-.636.831-.948.246-.299.506-.584.779-.856.285-.325.584-.636.895-.947.273-.286.559-.572.844-.857.325-.312.662-.636 1-.947.298-.286.61-.572.935-.844.363-.325.74-.649 1.117-.961.338-.285.675-.572 1.026-.844a43.623 43.623 0 0 1 2.401-1.805c.455-.325.922-.636 1.389-.948.441-.285.883-.57 1.337-.843a41.405 41.405 0 0 1 1.623-.961 50.667 50.667 0 0 1 3.453-1.791 42.435 42.435 0 0 1 1.908-.857 52.119 52.119 0 0 1 20.355-4.116H704.23c2.155 0 4.102.87 5.504 2.285a7.716 7.716 0 0 1 2.285 5.504 7.779 7.779 0 0 1-7.79 7.79H313.62c-1.31 0-2.609.065-3.881.195a38.833 38.833 0 0 0-5.543.947c-.987.246-1.974.532-2.934.856-.87.286-1.727.597-2.57.948-.624.26-1.26.546-1.87.844-.636.299-1.259.61-1.883.96-.493.26-.973.532-1.454.844a26.78 26.78 0 0 0-1.506.947c-.415.272-.83.558-1.233.857-.428.312-.83.623-1.246.947-.351.273-.688.559-1.026.844-.363.312-.727.623-1.077.961-.298.272-.597.558-.896.844-.325.311-.636.623-.935.948a23.24 23.24 0 0 0-.779.857 13.51 13.51 0 0 0-.805.947c-.246.273-.48.558-.688.844-.259.312-.493.636-.727.961-.221.285-.428.571-.623.856-.208.312-.416.623-.61.935-.195.285-.376.571-.532.856-.208.312-.39.636-.572.961a9.056 9.056 0 0 0-.455.844 12.89 12.89 0 0 0-.493.947c-.143.286-.286.57-.403.857-.156.311-.299.623-.428.947-.129.285-.233.558-.338.844-.143.325-.26.636-.363.961-.117.272-.208.558-.299.844a7.764 7.764 0 0 0-.298.947c-.104.285-.182.571-.26.856-.091.312-.169.636-.247.948a9.511 9.511 0 0 0-.195.844c-.078.311-.143.636-.195.96a9.462 9.462 0 0 0-.156.844c-.065.312-.104.623-.142.947a9.353 9.353 0 0 0-.117.856c-.039.312-.065.623-.091.948a9.502 9.502 0 0 0-.065.857c-.025.311-.039.623-.039.948-.026.272-.039.559-.026.843-.013.156-.013.298-.013.455 0 .169 0 .338.013.506 0 .285 0 .571.026.844 0 .324.014.636.039.947.013.286.039.571.078.857.013.325.039.636.092.948.025.285.065.571.116.844.026.324.078.649.142.96.039.286.091.572.156.857.052.312.116.623.195.935.052.285.116.571.195.856.078.325.155.636.246.961a16 16 0 0 0 .26.844c.091.325.181.636.311.947.078.285.169.572.286.843.104.325.233.636.363.961.104.285.221.558.35.844.131.325.273.636.429.947.116.286.26.572.402.857.156.325.312.636.493.948.143.285.299.558.455.844.182.324.363.649.571.96.169.286.338.571.532.844.195.325.403.636.623.948.194.285.402.572.623.856.221.325.467.636.713.948.221.285.441.571.689.844.259.325.532.649.83.96.247.299.506.572.779.857.299.312.61.636.922.935.298.299.61.585.909.857.35.336.714.649 1.09.96.338.286.676.572 1.026.843.416.325.83.649 1.259.948.402.298.818.584 1.234.857.493.337.986.649 1.505.947.481.299.973.584 1.48.844.61.35 1.246.662 1.883.96.61.299 1.246.584 1.882.843a36.91 36.91 0 0 0 2.609.949c.986.337 1.986.623 3.012.856a36.55 36.55 0 0 0 6.009.947 32.2 32.2 0 0 0 3.181.144h390.612a7.751 7.751 0 0 1 5.509 2.289z" class="color4d4d73 svgShape"></path><path fill="#c2dbf5" d="M509.937 736.774H308.696a2.105 2.105 0 0 1 0-4.21h201.241a2.104 2.104 0 1 1 0 4.21zM650.655 776.733H423.027a2.105 2.105 0 0 1 0-4.21h227.628a2.105 2.105 0 0 1 0 4.21zM509.937 757.184H382.592a2.106 2.106 0 0 1 0-4.21h127.345a2.104 2.104 0 1 1 0 4.21zM364.035 757.184h-57.542a2.105 2.105 0 0 1 0-4.21h57.542a2.105 2.105 0 0 1 0 4.21zM629.514 757.184h-57.541a2.104 2.104 0 1 1 0-4.21h57.541a2.105 2.105 0 0 1 0 4.21zM593.904 738.879h-21.932a2.105 2.105 0 1 1 0-4.209h21.932a2.104 2.104 0 1 1 0 4.209zM403.045 776.733h-21.932a2.105 2.105 0 0 1 0-4.21h21.932a2.105 2.105 0 0 1 0 4.21zM676.796 757.184h-21.932a2.105 2.105 0 0 1 0-4.21h21.932a2.105 2.105 0 0 1 0 4.21z" class="colorf5dac2 svgShape"></path><path fill="#516dd4" d="m549.916 764.405-13.134-7.466-13.136 7.466v-31.841h26.27z" class="colord45151 svgShape"></path><path fill="#ced7e0" d="M841.533 117.261c-6.906 14.289 1.614 17.354.532 31.357-1.555 20.121-14.578 25.443-10.899 47.69-3.933 18.678-41.042 24.232-13.165 51.165 29.701 17.4 65.36-7.488 96.629-.227 12.771 4.556 28.929.961 23.518-15.465-4.48-11.121-16.277-17.368-22.068-27.718-10.525-15.834-.992-14.386-3.295-27.212-2.05-11.414-9.353-19.233-11.478-24.805-1.94-5.09.803-11.511 2.551-16.67 8.555-34.866-48.498-46.727-62.325-18.115z" class="colorcecee0 svgShape"></path><path fill="#e6edf5" d="m1053.797 129.364-48.28 93.189-94.008 16.749 12.408 51.741s93.284-29.824 104.944-37.112c11.66-7.287 38.978-123.563 38.978-123.563l-14.042-1.004zM807.7 236.514c-27.686 23.446-66.955 69.662-69.404 103.549-2.231 30.87-3.703 127.804-3.703 127.804L757.3 480.54l18.666-144.528s25.957-40.846 57.265-64.816c-8.602-6.046-17.242-41.702-25.531-34.682zM886.256 176.851s-7.576 31.198 11.424 48.651c0 0-24.411 41.016-43.53-3.273 0 0 12.987-14.617 7.455-44.07l24.651-1.308z" class="colore6e6f5 svgShape"></path><path fill="#ced7e0" d="M779.211 882.547c52.263-87.282 36.219-183.423 20.647-263.38-4.464-22.908-8.882-44.489-11.65-64.144-1.5-10.646-2.284-20.347-2.503-29.275-.173-7.428.058-14.315.6-20.728.358-4.164.854-8.143 1.465-11.938 7.186-44.87 30.601-66.37 36.945-103.5 5.721-33.45-3.218-70.996-11.027-100.859-4.095-15.618-7.878-29.125-9.078-38.837-.854-6.805.715-10.969 4.049-13.991l.012-.011c.115-.104.231-.197.346-.288 3.483-2.953 8.743-4.799 15.168-7.071a66.078 66.078 0 0 1 3.518-1.142c12.354-3.818 24.257-4.695 24.257-4.695 2.272 3.218 4.441 5.871 6.517 8.017 5.756 5.986 10.739 8.074 14.938 7.889a.034.034 0 0 0 .046 0 12.162 12.162 0 0 0 3.241-.277c3.218-.727 6.817-2.768 10.808-6.679.346-.346.715-.715 1.073-1.084 2.03-2.122 4.153-4.717 6.356-7.855.012 0 .012-.012.012-.012s14.268 1.062 27.787 5.837c5.802 2.053 10.669 3.761 14.118 6.263a14.278 14.278 0 0 1 2.33 2.042c2.699 2.93 3.887 6.909 3.114 13.057-1.188 9.562-4.868 22.793-8.882 38.087-7.844 29.967-16.99 67.87-11.212 101.608 8.709 50.959 49.564 72.483 36.496 165.44-12.411 88.274-58.227 215.235 9.009 327.525h-188.5z" class="colorcecee0 svgShape"></path><path fill="#e6edf5" d="M766.349 495.039s146.595 228.01 163.426 305.285c16.831 77.275-189.681-283.308-189.681-283.308l26.255-21.977z" class="colore6e6f5 svgShape"></path><path fill="#ced7e0" d="M793.579 514.777c-10.965 1.27-20.901 5.063-29.553 9.885l-17.333-26.654c5.093-7.176 4.602-17.177-1.663-23.829-7.141-7.582-19.077-7.939-26.658-.798-7.582 7.141-7.939 19.076-.798 26.658 4.413 4.685 10.656 6.603 16.572 5.705l17.558 27c-15.336 11.625-24.287 24.453-24.287 24.453l10.132 15.607c20.208-41.345 66.706-39.759 66.706-39.759l-10.676-18.268z" class="colorcecee0 svgShape"></path><path fill="#e6edf5" d="M873.426 200.674c-17.231 0-34.834-20.461-33.489-43.801.247-4.567.814-9.554 1.703-14.987l.333-1.97c6.021-34.472 53.004-36.637 59.285-.209.123.74.247 1.466.37 2.179.888 5.517 1.468 10.489 1.764 14.987 1.567 23.828-15.221 43.801-29.966 43.801z" class="colore6e6f5 svgShape"></path><path fill="#ced7e0" d="M860.273 115.579s.251 26.01-20.409 37.661c1.777.611-1.476-45.119 28.836-45.738 24.572-.502 31.7 18.526 33.792 40.415 0-.001-40.941-14.696-42.219-32.338z" class="colorcecee0 svgShape"></path><path fill="#ffffff" d="M903.392 156.872h-63.455c.247-4.567.814-9.554 1.703-14.987h59.988c.888 5.517 1.468 10.489 1.764 14.987z" class="colorffffff svgShape"></path><path fill="#e6edf5" d="M922.735 228.526c-5.336 12.389-17.99 31.469-45.283 31.469-27.53 0-42.811-19.918-49.753-32.614 12.361-3.813 24.262-4.694 24.262-4.694 8.604 12.208 15.742 16.161 21.454 15.909.014.014.028.014.042 0 1.034.056 2.109-.042 3.241-.279 3.226-.726 6.816-2.766 10.811-6.677.349-.349.713-.712 1.076-1.089 2.026-2.123 4.149-4.722 6.369-7.864-.001 0 14.26 1.062 27.781 5.839z" class="colore6e6f5 svgShape"></path><path fill="#ced7e0" d="m1124.084 305.183-20.877-80.142a6.305 6.305 0 0 0 4.026-5.709 6.277 6.277 0 0 0-6.125-6.425 6.229 6.229 0 0 0-4.556 1.811c-10.831-2.676-32.32-8.628-45.135-16.472V98.992c3.933-1.234 6.794-4.914 6.794-9.251 0-5.363-4.349-9.701-9.701-9.701a9.693 9.693 0 0 0-9.701 9.701 9.694 9.694 0 0 0 6.794 9.251v99.255c-9.401 5.756-23.461 10.485-34.569 13.669a330.804 330.804 0 0 1-8.178 2.215 6.257 6.257 0 0 0-3.553-1.223 6.279 6.279 0 0 0-3.749 11.42 6.16 6.16 0 0 0 2.111.957l-14.384 46.092-10.773 34.546-1.534.023s3.126 23.427 28.202 23.185c25.076-.242 25.999-23.98 25.999-23.98l-2.895.034-11.362-43.624-9.516-36.507a6.292 6.292 0 0 0 2.895-2.284 6.102 6.102 0 0 0 1.13-3.38c.623-.104 1.257-.208 1.903-.335 16.16-3.091 36.576-13.172 38.272-14.014v.358h.415l1.534 2.145.957 1.338 2.492-3.483h.415v-.358c1.88.934 26.714 13.184 43.312 14.742a6.245 6.245 0 0 0 4.741 5.49l-25.157 80.65-1.534.023s3.126 23.416 28.202 23.173c25.065-.242 25.987-23.98 25.987-23.98l-2.882.044zm-124.931.347-25.619.381 10.9-34.927 14.21-45.562c.115.012.231.046.358.046.081 0 .15-.011.219-.023l-.034 40.383-.034 39.702zm10.842-43.636 11.281 43.312-21.155.311.035-40.036.035-40.106c.092-.011.184-.046.277-.057l9.527 36.576zm90.962 43.624-25.63.381 25.111-80.488c.127.011.242.046.369.046.069 0 .15-.012.219-.012l-.069 80.073zm.969-.011.069-80.142c.092-.012.184-.035.277-.058l20.808 79.889-21.154.311z" class="colorcecee0 svgShape"></path><path fill="#e6edf5" d="M1068.753 117.901c-1.018-3.267-7.391-12.859-18.904-12.859-6.715 0-12.706 7.222-11.776 17.802.93 10.58 24.148 19.79 28.236 11.157 3.065-6.474 3.856-11.57 2.444-16.1zM748.864 499.086s-14.307.168-13.128 12.635c1.179 12.467 6.739 24.091 21.564 17.521 10.33-4.578 12.561-18.436 12.561-18.436l-20.997-11.72z" class="colore6e6f5 svgShape"></path><path fill="#d9ecff" d="M870.041 616.108s-3.765-.393-7.985 0l.352-13.22s6.05 1.523 7.633.452c2.599-1.757 9.418-.626 13.682.368 4.379 1.02-1.449 4.182-1.449 4.182s5.418.369 13.372-1.987c7.955-2.365 7.005 14.979-25.605 10.205z" class="colorffd9d9 svgShape"></path><path fill="#516dd4" d="M861.007 579.457v17.605c-17.304 1.624-63.165 2.661-78.82-2.643-19.785-6.712-60.846-67.087-60.846-67.087l9.702-42.099c13.847 5.677 22.437 10.689 27.093 18.953 14.759 26.189 20.951 38.689 37.432 64.186l65.439 11.085z" class="colord45151 svgShape"></path><path fill="#3f5bc4" d="M795.215 608.161c-16.624-5.057-58.605-54.085-58.605-54.085s37.97 55.83 56.265 62.037c14.476 4.905 56.885 3.946 72.886 2.444v-5.85c-16.631 1.977-56.209-.191-70.546-4.546z" class="colorc43f3f svgShape"></path><path fill="#d9ecff" d="M761.542 766.974c-.334 31.176 4.294 59.358 14.116 87.313 1.825 5.25 3.321 12.68 5.532 17.931l-2.009 14.716h48.814l-31.51-14.815c-.72-4.49-1.311-13.114-1.826-17.831-3.317-31.937-1.903-67.222-.951-83.127a40.763 40.763 0 0 0-2.623-16.894c-8.485-22.12-31.292-83.482-38.645-121.431h-53.583c-9.18 60.727 15.555 86.905 62.685 134.138z" class="colorffd9d9 svgShape"></path><path fill="#363c54" d="M722.588 725.043c10.259 13.014 23.372 26.331 38.953 41.932-.334 31.176 1.806 66.57 11.628 94.524l24.406-1.269c-3.316-31.937 2.287-85.286-2.705-105.479-5.685-23-35.078-83.968-42.431-121.916h-53.583c-6.145 40.663 2.906 65.852 23.732 92.208z" class="color363654 svgShape"></path><path fill="#4d5573" d="M796.484 871.565c11.744 6.014 32.233 4.349 33.439 18.797H779.18c-.573-6.801-.239-13.182 1.752-18.797 4.878.868 10.067.856 15.552 0z" class="color4d4d73 svgShape"></path><path fill="#d9ecff" d="M652.909 865.916c-2.111 4.577-4.102 8.822-6.154 13.276 13.63 3.253 27.256 6.521 40.883 9.785-8.246-6.848-16.549-13.564-24.757-20.5 3.142-6.373 6.969-15.363 10.379-21.134 13.658-23.113 29.107-43.584 44.743-65.161 3.719-5.132 6.12-10.093 7.268-16.786 7.289-42.494 6.369-86.326 14.028-128.903-12.098-1.883-24.168-3.703-36.257-5.551-33.689 52.623-26.562 80.686-12.436 137.165-16.769 22.696-26.013 48.335-32.739 75.753-1.386 5.649-3.742 15.759-4.958 22.056z" class="colorffd9d9 svgShape"></path><path fill="#434a63" d="M725.232 765.452c-1.183 6.705-3.125 11.027-7.339 16.925-17.723 24.805-31.608 53.031-47.204 79.344-6.736-1.532-13.368-3.132-20.062-4.692 7.745-30.699 20.742-63.198 39.973-88.897-14.107-56.514-21.251-84.522 12.42-137.154a.115.115 0 0 1 .023-.042l41.225 6.297c-.193 1.043-.38 2.086-.574 3.13-.004.022.002.07-.002.093-7.324 41.488-11.142 83.541-18.46 124.996z" class="color434363 svgShape"></path><path fill="#4d5573" d="M665.012 864.362c11.471 8.028 27.367 10.425 28.419 26.001-15.817-3.787-31.631-7.584-47.451-11.358 1.355-6.422 4.119-11.818 7.741-17.302 3.484 3.001 6.789 3.646 11.291 2.659z" class="color4d4d73 svgShape"></path><path fill="#d9ecff" d="m767.301 567.322-14.86 65.569h-53.586s-8.869-63.032 4.731-96.052c6.121-14.876 26.224-21.298 27.484-21.696l.057-.024 14.943.861 21.231 51.342z" class="colorffd9d9 svgShape"></path><path fill="#ffffff" d="m766.683 570.009-12.526 55.276c-1.01 4.455-4.916 7.611-9.418 7.611-7.77 3.578-18.821 2.35-30.64 0-8.832 0-16.175-6.867-16.902-15.803-1.698-20.869-2.931-57.617 6.402-80.264 4.794-11.633 18.148-18.108 24.322-20.557a16.51 16.51 0 0 1 6.104-1.153l11.556.027c1.774 0 21.462 49.441 21.462 49.441a17.453 17.453 0 0 1-.36 5.422z" class="colorffffff svgShape"></path><path fill="#4d5573" d="M708.18 627.884h56.862v8.438H708.18z" class="color4d4d73 svgShape"></path><path fill="#516dd4" d="M742.644 665.387c.72 2.662 2.854 4.699 5.502 5.456 3.291.965 6.762 1.07 10.413.548.155-.026.283-.052.437-.078 2.674-.417 5.451-1.2 8.28-2.219l.025-81.75s.245-15.021 0-20.02c-1.068-21.882-17.359-50.784-21.752-52.204 15.987 67.661-10.491 122.181-2.905 150.267zM682.987 673.461c11.244 2.448 23.825 1.329 33.498-.04 8.132-1.15 13.91-8.517 13.308-16.83-3.367-46.518 10.013-92.087 1.331-141.472l-.051.026c-1.26.392-25.25 2.195-31.277 17.111-11.335 28.047-11.972 94.745-20.617 135.114-.586 2.741 1.108 5.502 3.808 6.091z" class="colord45151 svgShape"></path><path fill="#667dd4" d="M691.721 635.116c8.11 1.574 16.558 1.643 25.39 0v-3.883c-7.664 1.185-16.161 1.136-25.39 0v3.883z" class="colord46666 svgShape"></path><path fill="#4d5573" d="M736.863 504.69s-12.796-.042-15.866-14.929c-3.069-14.887 9.133-20.18 17.148-20.077 4.236.054 7.689-1.094 10.342-2.537 4.659-2.534 10.355.481 10.756 5.769.171 2.261-.115 4.652-1.223 6.955-3.547 7.374-21.157 24.819-21.157 24.819z" class="color4d4d73 svgShape"></path><path fill="#d9ecff" d="m746.734 497.657-.285 4.297-.755 11.527-.115 1.756c-.231 9.148-13.753 5.359-14.453-.116l2.225-9.102 1.633-6.668.57-2.341.97-3.973 10.21 4.62z" class="colorffd9d9 svgShape"></path><path fill="#b4d2f0" d="m746.449 501.953-.755 11.527c-3.404-.701-8.563-2.287-11.181-5.837a50.715 50.715 0 0 1-1.163-1.625l1.633-6.668.57-2.341 10.896 4.944z" class="colorf0b4b4 svgShape"></path><path fill="#d9ecff" d="M751.618 478.096c2.219-1.32 5.04.243 5.169 2.851.463 9.384.036 24.623-7.311 27.109-10.742 3.635-18.416-10.559-18.416-10.559s-4.604-6.573-1.364-8.824c3.24-2.25 6.309 3.284 6.309 3.284.948-15.887 7.487-9.026 15.613-13.861zM661.834 645.168s-.303-4.001-.542-5.312c4.103-.451 7.353.627 11.231.213 0 0-.758 5.139-.036 5.974 2.381 2.751 7.37 6.464 6.794 9.825-.585 3.413-6.939-2.298-6.939-2.298s-1.061 8.124 1.074 14.136c5.681 15.981-15.304 2.518-11.582-22.538z" class="colorffd9d9 svgShape"></path><path fill="#516dd4" d="M660.426 643.174c-1.776-9.582-6.732-49.809-3.623-62.486 3.418-13.935 40.641-52.856 50.948-58.021l21.131 32.922c-1.841 6.963-51.957 33.293-51.957 33.293l-2.355 53.836c-3.876.414-10.04.005-14.144.456z" class="colord45151 svgShape"></path><path fill="#4d5573" d="M959.264 481.123c.27-.784.208-1.652.474-2.437.779-2.297 3.787-2.802 6.208-2.642 2.421.16 5.22.461 6.914-1.275.525-.538.88-1.227 1.427-1.743 1.714-1.615 4.556-.943 6.535.331 1.98 1.275 3.714 3.077 6 3.64.986.243 2.025.237 2.996.534 3.56 1.088 4.732 5.568 4.589 9.288-.068 1.766-.263 3.679.693 5.165.485.755 1.23 1.322 1.676 2.101 1.111 1.941.013 4.407-1.388 6.151-1.401 1.744-3.181 3.368-3.613 5.562-.178.906-.109 1.854-.352 2.745-.516 1.89-2.393 3.175-4.324 3.502-1.932.328-3.908-.137-5.77-.747l-20.807-19.203c-.311-2.559-4.223-3.693-4.123-6.269.073-1.863 2.256-2.938 2.865-4.703z" class="color4d4d73 svgShape"></path><path fill="#cbe2f9" d="M872.106 528.215s9.742 54.858 23.97 58.646c6.441 1.713 14.714.276 22.612-2.399 13.358-4.52 25.635-12.558 26.06-14.751l13.551-41.135c-7.8 3.362-52.237 28.693-55.867 31.12-5.879-8.826-18.63-31.79-19.047-33.476 0 0 2.751-12.376.32-15.859-2.16-3.083-2.954 7.027-3.865 5.801-.994-1.349-6.88-15.66-10.795-11.479-8.693 9.318 3.061 23.532 3.061 23.532z" class="colorf9cbcb svgShape"></path><path fill="#4d5573" d="M903.009 558.029c.302 3.185-13.186-22.835-15.759-26.051l-14.312 4.181c.896 3.074 6.352 46.956 22.996 52.584 14.911 5.042 54.572-17.318 54.997-19.511l7.37-40.656c-7.801 3.362-39.788 20.254-55.292 29.453z" class="color4d4d73 svgShape"></path><path fill="#ccdef1" d="M959.935 762.48c9.145 33.704 10.276 73.186 5.024 106.818l-11.423-1.121c-23.832-99.328-35.707-120.109-11.825-225.832l39.666-6.421c24.419 58.109-2.788 72.725-21.442 126.556z" class="colorf1cccd svgShape"></path><path fill="#363c54" d="M983.55 714.733c-6.486 13.345-14.778 27.864-21.673 47.747 2.544 9.466 13.495 33.385 7.92 91.919l-22.942.429c-1.959-7.604-20.567-89.62-21.358-94.744-4.608-29.244 12.46-112.094 13.555-117.457l.046-.206.014-.076 45.967-6.421c15.417 36.657 9.568 55.996-1.529 78.809z" class="color363654 svgShape"></path><path fill="#ccdef1" d="m1010.001 882.676 28.006-32.463c.138-.01-33.198-51.307-48.067-66.36-22.786-23.601-34.686-142.546-34.686-142.546h33.841c29.535 27.15 24.215 64.454 25.086 101.384.02 15.628 8.721 29.741 16.988 42.619 11.37 16.541 14.936 52.434 23.75 80.346l-44.918 17.02z" class="colorf1cccd svgShape"></path><path fill="#434a63" d="m1049.345 834.674-19.297 6.861c-3.95-5.11-36.923-54.373-40.107-57.681-22.787-23.601-37.5-143.015-37.5-143.015l38.883.444 1.604.025c28.547 26.242 22.553 62.042 22.907 97.754.143 14.573 4.934 28.739 13.744 40.348 5.775 7.611 15.022 29.883 19.766 55.264z" class="color434363 svgShape"></path><path fill="#ffffff" d="M1012.061 564.528c-.321 23.75-6.172 64.929-8.394 79.742a7.636 7.636 0 0 1-3.185 5.16c-.913.641-2 1.086-3.16 1.259-10.64 1.58-17.256-10.398-27.402-10.423-9.134 0-18.328.43-26.993-1.076-3.383-.592-9.496 8.413-9.867 5.007-1.21-11.208 2.306-35.797 1.738-59.719-.37-15.133 8.128-49.949 32.638-59.964l16.554-.15c18.565 4.815 26.342 19.01 27.626 28.934.395 2.935.519 6.786.445 11.23z" class="colorffffff svgShape"></path><path fill="#4d5573" d="M952.194 864.907c-17.582 6.75-37.09 6.055-38.306 21.922l55.316-.324c1.682-6.548-.467-14.995-3.353-21.598h-13.657zM1038.007 850.214c-14.072 12.515-35.125 21.338-30.669 36.615l52.379-18.198c-1.762-6.522-4.539-16.226-9.568-21.388l-12.142 2.971z" class="color4d4d73 svgShape"></path><path fill="#cbe2f9" d="M984.226 524.405c-6.024 6.024-11.706 7.177-16.79.107l1.431-11.62.598-4.892h13.329l.256 3.033 1.176 13.372z" class="colorf9cbcb svgShape"></path><path fill="#b4d2f0" d="M983.241 513.195c-3.294 3.964-12.37 5.111-14.831 3.412l1.055-8.607 13.405-5.626.371 10.821z" class="colorf0b4b4 svgShape"></path><path fill="#cbe2f9" d="M962.635 484.702c-2.453 6.914-4.857 22.2 1.01 27.884 3.714 3.598 17.193 2.207 19.945-7.689 3.251-2.355 5.637-8.094 2.642-10.698-2.136-1.856-4.863 3.049-8.588 2.237-1.414-.307.743-8.31-3.96-8.198-6.754.16-11.049-3.536-11.049-3.536z" class="colorf9cbcb svgShape"></path><path fill="#4d5573" d="m998.973 646.8-56.726-3.924.582-8.418 56.726 3.923z" class="color4d4d73 svgShape"></path><path fill="#4d5573" d="M952.863 669.494c-1.076 7.411-5.685 10.286-9.292 9.513-.153-.037-.279-.071-.43-.108-2.639-.601-9.593-3.018-12.344-4.229l3.105-78.372s.653-19.705 1.242-24.675c2.576-21.756 9.605-38.42 32.195-47.616-23.253 64.589-10.295 116.697-14.476 145.487zM1013.391 677.277c-10.888 3.726-15.658 5.263-25.213 3.229-8.033-1.709-14.943-12.333-14.035-20.618 3.089-28.199-8.694-77.751 10.318-135.632l.049.029c1.23.478 21.164 6.205 26.148 21.502 9.371 28.763-3.478 83.961 4.306 124.7.526 2.753 1.042 5.895-1.573 6.79z" class="color4d4d73 svgShape"></path><path fill="#4d5573" d="M1005.798 637.248c-8.199 1.01-16.632.496-25.33-1.753l.268-3.874c7.564 1.712 16.044 2.249 25.33 1.753l-.268 3.874z" class="color4d4d73 svgShape"></path><path fill="#cbe2f9" d="M1001.432 581.298s-14.152 18.676-27.589 28.482c-3.216 2.325-6.329 4.189-9.157 5.266-19.582 7.433-64.772 1.579-64.772 1.579-14.236 7.262-32.225 2.957-35.776-2.407-6.285-9.592 15.428-2.165 17.681-7.901 0 0-9.115-4.22-6.107-8.481 2.987-4.287 21.686 7.135 21.686 7.135 18.901-7.782 37.934-12.071 55.931-13.297a343.547 343.547 0 0 1 4.374-6.047c10.785-14.324 21.868-24.552 38.879-33.214 8.239 10.778 8.77 17.995 4.85 28.885z" class="colorf9cbcb svgShape"></path><path fill="#4d5573" d="M967.34 616.462c-16.568 7.722-61.965 1.93-61.965 1.93l-2.573-16.939c20.584-7.504 49.1-11.149 49.1-11.149 14.291-13.755 34.205-51.892 48.609-39.364 19.179 16.68-7.87 53.729-33.171 65.522z" class="color4d4d73 svgShape"></path><path fill="#4d5573" d="m902.803 601.456.12.781c20.573-7.474 49.605-10.409 49.605-10.409 11.761-11.317 28.279-40.399 41.779-43.376-13.556-.042-30.067 29.983-42.405 41.849 0-.001-28.519 3.645-49.099 11.155z" class="color4d4d73 svgShape"></path><path fill="#4d5573" d="m902.803 601.456 2.569 16.934s45.403 5.792 61.971-1.929c20.699-9.649 42.574-36.204 39.329-54.68 1.45 18.341-19.608 43.383-39.583 52.695-16.568 7.721-61.964 1.928-61.964 1.928l-2.266-14.97c-.02.008-.035.015-.056.022z" class="color4d4d73 svgShape"></path><path fill="#d9ecff" d="M876.498 602.528s13.226.54 12.13 5.196c-.869 3.695-11.779-1.221-11.779-1.221l-.351-3.975z" class="colorffd9d9 svgShape"></path><path fill="#c8d5e3" d="M1323.623 890.462H40.377a3.202 3.202 0 1 1 0-6.404h1283.246a3.202 3.202 0 1 1 0 6.404z" class="colorc8cbe3 svgShape"></path><path fill="#1f3894" d="M1132.033 726.135c-14.472 5.01-27.269 9.024-40.513 6.491-10.29-1.967-18.698-15.386-18.698-15.386 14.195-3.34 18.021-10.864 18.021-10.864-5.796 3.255-16.703 2.541-16.703 2.541-8.918-3.567-9.364-24.97-9.364-24.97 8.472-.892 12.568-7.242 12.568-7.242-10.583.423-14.902-7.35-14.902-7.35-3.283-28.995 7.928-38.152 7.928-38.152 13.077-1.461 33.863 1.15 37.97 9.32 0 0 3.734 13.725-2.667 20.683 0 0 9.346-3.984 11.016-10.107 0 0 13.359 5.566 13.081 14.751 0 0 1.444 14.632-9.967 20.417 0 0 13.029-4.275 17.482-14.294 0 0 9.334 13.751 7.056 29.686-1.767 12.362-12.308 24.476-12.308 24.476z" class="color1f5794 svgShape"></path><path fill="#021b79" d="M1082.395 656.231c2.772 11.554 7.506 22.617 14.02 32.559 6.584 10.05 15.158 18.016 23.574 26.468 4.382 4.401 8.51 9.04 11.748 14.363 3.219 5.291 5.6 11.042 7.285 16.994 2.919 10.312 3.495 21.073 3.977 31.725.518 11.447.962 23.22-.579 34.61-.225 1.666 2.325 2.388 2.553.704 1.356-10.023 1.194-20.265.867-30.351-.34-10.475-.695-21.202-2.825-31.491-2.469-11.925-7.49-23.07-15.456-32.333-8.128-9.451-18.034-17.14-25.495-27.203-8.127-10.961-13.934-23.486-17.116-36.749-.397-1.656-2.951-.954-2.553.704z" class="color0d3663 svgShape"></path><path fill="#1f3894" d="M1179.289 721.332c14.472 5.01 27.269 9.023 40.513 6.492 10.29-1.967 18.698-15.387 18.698-15.387-14.194-3.34-18.021-10.864-18.021-10.864 5.796 3.255 16.703 2.542 16.703 2.542 8.918-3.567 9.364-24.97 9.364-24.97-8.472-.892-12.568-7.242-12.568-7.242 10.583.423 14.902-7.35 14.902-7.35 3.283-28.995-7.928-38.152-7.928-38.152-13.077-1.462-33.863 1.151-37.969 9.32 0 0-3.736 13.725 2.666 20.683 0 0-9.346-3.984-11.016-10.107 0 0-13.36 5.567-13.081 14.751 0 0-1.444 14.632 9.967 20.417 0 0-13.029-4.275-17.481-14.294 0 0-9.334 13.751-7.056 29.685 1.766 12.361 12.307 24.476 12.307 24.476z" class="color1f5794 svgShape"></path><path fill="#021b79" d="M1219.167 664.643c-2.724 11.352-7.354 22.159-13.753 31.927-6.46 9.862-14.904 17.641-23.161 25.932-8.321 8.357-14.815 17.659-18.595 28.906-3.448 10.258-4.483 20.983-4.741 31.743-.314 13.087.129 26.179.177 39.267.007 1.704 2.655 1.707 2.648 0-.043-11.561-.374-23.122-.254-34.684.114-11.042.682-22.071 3.815-32.732 3.443-11.719 9.753-21.444 18.288-30.089 8.028-8.132 16.372-15.695 22.881-25.176 7.144-10.406 12.304-22.121 15.248-34.39.397-1.656-2.156-2.363-2.553-.704z" class="color0d3663 svgShape"></path><path fill="#0575e6" d="M1189.302 765.888c11.839 9.715 22.452 17.915 35.752 20.131 10.333 1.721 22.871-7.953 22.871-7.953-12.156-8.052-13.139-16.436-13.139-16.436 4.309 5.062 14.787 8.173 14.787 8.173 9.602-.255 17.438-20.177 17.438-20.177-7.638-3.773-9.28-11.15-9.28-11.15 9.781 4.065 16.526-1.729 16.526-1.729 13.128-26.06 5.786-38.535 5.786-38.535-11.76-5.903-32.163-10.657-38.846-4.417 0 0-8.261 11.58-4.668 20.325 0 0-7.385-6.976-6.83-13.299 0 0-14.461.592-17.383 9.303 0 0-6.425 13.225 2.273 22.606 0 0-10.739-8.525-11.444-19.467 0 0-13.521 9.664-16.907 25.4-2.626 12.208 3.064 27.225 3.064 27.225z" class="color3173b8 svgShape"></path><path fill="#021b79" d="M1265.556 707.044c-6.489 9.704-14.578 18.236-23.966 25.181-9.478 7.012-20.094 11.382-30.713 16.298-10.701 4.955-20.017 11.43-27.461 20.669-6.789 8.428-11.478 18.129-15.449 28.132-4.83 12.167-8.952 24.602-13.443 36.896-.584 1.6 1.898 2.521 2.483.918 3.967-10.86 7.664-21.819 11.782-32.622 3.935-10.319 8.29-20.467 14.923-29.381 7.291-9.8 16.581-16.735 27.583-21.886 10.349-4.845 20.796-9.048 30.189-15.686 10.308-7.285 19.208-16.486 26.221-26.974.949-1.415-1.201-2.963-2.149-1.545z" class="color0d3663 svgShape"></path><path fill="#0575e6" d="M1125.686 767.867c-13.43 7.361-25.374 13.46-38.855 13.179-10.474-.218-21.009-12.04-21.009-12.04 13.435-5.668 15.949-13.726 15.949-13.726-5.17 4.179-16.042 5.301-16.042 5.301-9.389-2.025-13.411-23.052-13.411-23.052 8.203-2.296 11.179-9.243 11.179-9.243-10.362 2.188-15.922-4.752-15.922-4.752-8.088-28.037 1.433-38.941 1.433-38.941 12.648-3.629 33.578-4.532 38.994 2.835 0 0 5.979 12.907.832 20.838 0 0 8.547-5.492 9.169-11.808 0 0 14.102 3.252 15.364 12.354 0 0 3.872 14.184-6.41 21.797 0 0 12.13-6.395 14.843-17.018 0 0 11.503 11.995 11.924 28.086.328 12.483-8.038 26.19-8.038 26.19z" class="color3173b8 svgShape"></path><path fill="#021b79" d="M1065.052 707.255c4.666 10.927 11.185 21.041 19.27 29.754 8.173 8.807 17.959 15.226 27.671 22.15 5.057 3.606 9.902 7.489 13.986 12.195 4.058 4.678 7.369 9.95 10.026 15.536 4.603 9.678 6.972 20.191 9.23 30.612 2.425 11.199 4.833 22.732 5.22 34.219.057 1.68 2.692 1.965 2.635.267-.341-10.109-2.214-20.179-4.225-30.069-2.088-10.271-4.232-20.787-8.055-30.574-4.43-11.343-11.245-21.492-20.648-29.291-9.594-7.958-20.648-13.881-29.687-22.553-9.846-9.447-17.667-20.824-23.024-33.367-.669-1.567-3.069-.448-2.399 1.121z" class="color0d3663 svgShape"></path><path fill="#4e94db" d="M1158.789 748.688c15.287.932 28.692 1.355 40.766-4.646 9.381-4.663 13.869-19.85 13.869-19.85-14.569.602-20.28-5.615-20.28-5.615 6.459 1.575 16.771-2.046 16.771-2.046 7.63-5.835 2.301-26.569 2.301-26.569-8.4 1.42-14.053-3.594-14.053-3.594 10.307-2.44 12.375-11.088 12.375-11.088-4.638-28.809-17.899-34.613-17.899-34.613-12.988 2.11-32.305 10.218-34.063 19.192 0 0 .095 14.224 8.132 19.203 0 0-10.073-1.323-13.328-6.771 0 0-11.369 8.955-8.63 17.726 0 0 2.546 14.481 15.092 16.983 0 0-13.698-.612-20.682-9.064 0 0-5.291 15.755 1.19 30.489 5.028 11.431 18.439 20.263 18.439 20.263z" class="color4e93db svgShape"></path><path fill="#021b79" d="M1191.383 666.448c-.765 11.649-3.5 23.083-8.155 33.793-4.699 10.812-11.705 19.906-18.441 29.476-6.788 9.644-11.615 19.911-13.439 31.634-1.663 10.693-.869 21.439.696 32.088 1.904 12.952 4.555 25.781 6.816 38.672.294 1.677 2.905 1.233 2.609-.448-1.997-11.388-4.279-22.726-6.116-34.141-1.755-10.903-3.06-21.869-1.776-32.906 1.411-12.133 5.986-22.784 12.935-32.749 6.538-9.372 13.482-18.238 18.295-28.684 5.281-11.464 8.385-23.883 9.212-36.473.111-1.699-2.525-1.964-2.636-.262z" class="color0d3663 svgShape"></path><path fill="#516dd4" d="m1190.283 826.019-.958 7.596-1.273 10.076-.141 1.099-1.57 12.365-.166 1.289-1.528 12.109-.182 1.463-1.529 12.043h-56.238l-1.826-13.076-1.1-7.869-.686-4.893-1.116-8.01-.652-4.677-1.141-8.15-.529-3.769-1.059-7.596z" class="colord45151 svgShape"></path><path fill="#516dd4" d="M1188.876 826.024h-68.879c-4.622 0-8.37-3.055-8.37-6.825 0-3.769 3.748-6.825 8.37-6.825h68.879c4.623 0 8.37 3.055 8.37 6.825 0 3.769-3.747 6.825-8.37 6.825z" class="colord45151 svgShape"></path><path fill="#e6e7e8" d="m1118.592 826.021 1.437 10.309c32.786-2.635 59.854 18.714 62.907 47.729l7.345-58.038h-71.689z" class="colore6e7e8 svgShape"></path><path fill="#3a76b3" d="M223.845 504.723a.49.49 0 0 1-.201-.008c-.068-.017-1.694-.42-4.506-1.349a.501.501 0 0 1 .314-.95c2.771.916 4.415 1.324 4.431 1.328a.5.5 0 0 1-.038.979zM210.696 500.122a.502.502 0 0 1-.274-.032c-2.84-1.189-5.688-2.5-8.465-3.897a.5.5 0 1 1 .449-.893 133.59 133.59 0 0 0 8.402 3.868.5.5 0 0 1-.112.954zm-16.576-8.337a.497.497 0 0 1-.336-.063 129.72 129.72 0 0 1-7.838-5.035.5.5 0 1 1 .571-.821 128.996 128.996 0 0 0 7.777 4.996.5.5 0 0 1-.174.923zm-15.219-10.595a.497.497 0 0 1-.398-.106 115.97 115.97 0 0 1-6.981-6.169.5.5 0 0 1 .692-.722 114.966 114.966 0 0 0 6.921 6.115.501.501 0 0 1-.234.882zm-13.365-12.842a.503.503 0 0 1-.458-.163 104.83 104.83 0 0 1-5.831-7.268.5.5 0 0 1 .808-.59 103.584 103.584 0 0 0 5.775 7.198.5.5 0 0 1-.294.823zm-10.924-14.961a.5.5 0 0 1-.511-.237 100.447 100.447 0 0 1-4.4-8.213.5.5 0 0 1 .903-.431 99.365 99.365 0 0 0 4.356 8.13.5.5 0 0 1-.348.751zm-7.974-16.715a.5.5 0 0 1-.55-.321 103.695 103.695 0 0 1-2.812-8.879.5.5 0 0 1 .965-.259 103.084 103.084 0 0 0 2.785 8.792.5.5 0 0 1-.388.667zm-4.809-17.883a.5.5 0 0 1-.574-.405 116.856 116.856 0 0 1-1.256-9.23.5.5 0 1 1 .996-.095 115.513 115.513 0 0 0 1.245 9.149.5.5 0 0 1-.404.58l-.007.001zm-1.832-18.444a.5.5 0 0 1-.582-.476 155.349 155.349 0 0 1-.06-9.301.5.5 0 1 1 .999.024c-.072 2.959-.053 6.068.061 9.241a.5.5 0 0 1-.418.512zm.496-18.524a.5.5 0 0 1-.58-.543 99.706 99.706 0 0 1 1.335-9.219.5.5 0 0 1 .982.192 98.372 98.372 0 0 0-1.322 9.126.497.497 0 0 1-.415.444zm39.683-20.313a9.745 9.745 0 0 1-3.893-.156.5.5 0 1 1 .234-.972c2.937.708 5.945-.12 8.092-2.212a.5.5 0 1 1 .698.716c-1.436 1.399-3.209 2.306-5.131 2.624zm-36.047 2.169a.5.5 0 0 1-.556-.649c1.016-3.102 2.226-6.002 3.596-8.621a.499.499 0 1 1 .885.464c-1.344 2.57-2.532 5.42-3.531 8.469a.502.502 0 0 1-.394.337zm24.94-7.58a.499.499 0 0 1-.479-.189c-1.714-2.238-3.144-5.057-4.251-8.379a.5.5 0 0 1 .948-.317c1.072 3.216 2.451 5.937 4.098 8.087a.501.501 0 0 1-.316.798zm19.323-5.475a.5.5 0 0 1-.582-.504 16.614 16.614 0 0 0-.227-3.053 19.08 19.08 0 0 0-.234-1.181c-.332-1.437-1.077-2.779-2.215-3.988a.5.5 0 0 1 .729-.686c1.26 1.34 2.088 2.836 2.46 4.448.097.42.179.834.247 1.243.182 1.101.263 2.19.24 3.237a.5.5 0 0 1-.418.484zm-35.561-3.182a.5.5 0 0 1-.462-.818c2.126-2.488 4.496-4.573 7.044-6.198a.5.5 0 1 1 .538.843c-2.465 1.571-4.76 3.591-6.822 6.004a.487.487 0 0 1-.298.169zm24.665-9.655a.492.492 0 0 1-.187-.005c-2.839-.613-5.939-.609-9 .035a.52.52 0 0 1-.592-.386.5.5 0 0 1 .386-.593c.345-.073.689-.137 1.031-.194 2.832-.468 5.732-.413 8.385.161a.499.499 0 0 1-.023.982zm-14.637 1.044-.013.002a.5.5 0 0 1-.564-.426l-.059-.436a76.078 76.078 0 0 1-.614-8.885.5.5 0 0 1 1-.012c.036 3.016.239 5.961.604 8.752l.06.443a.5.5 0 0 1-.414.562zm-.267-18.528a.5.5 0 0 1-.58-.542c.3-3.079.77-6.183 1.395-9.225a.5.5 0 1 1 .979.202 87.385 87.385 0 0 0-1.379 9.12.5.5 0 0 1-.415.445zm3.737-18.144a.5.5 0 0 1-.557-.646 86.667 86.667 0 0 1 3.317-8.715.5.5 0 0 1 .914.406 85.653 85.653 0 0 0-3.28 8.615.498.498 0 0 1-.394.34zm7.521-16.918a.5.5 0 0 1-.513-.744 86.337 86.337 0 0 1 5.123-7.787.5.5 0 0 1 .804.594 85.032 85.032 0 0 0-5.063 7.696.499.499 0 0 1-.351.241zm10.985-14.891a.5.5 0 0 1-.451-.831 93.33 93.33 0 0 1 6.631-6.54.5.5 0 1 1 .666.746 91.958 91.958 0 0 0-6.56 6.469.486.486 0 0 1-.286.156zm216.011-45.429c-1.265.209-2.553.413-3.865.611a.5.5 0 0 1-.156-.988l.007-.001c1.331-.201 2.62-.406 3.923-.621 1.762-.291 3.514-.598 5.207-.913a.5.5 0 1 1 .182.984c-1.699.315-3.458.624-5.227.916l-.071.012zm-13.048 1.861a.501.501 0 0 1 0 0zm-189.172 31.232a.499.499 0 0 1-.379-.896 108.55 108.55 0 0 1 7.726-5.187.5.5 0 0 1 .523.852 107.218 107.218 0 0 0-7.654 5.14.53.53 0 0 1-.216.091zM415.22 222.13a.5.5 0 0 1-.191-.981 203.302 203.302 0 0 0 8.976-2.237.5.5 0 1 1 .265.964 204.59 204.59 0 0 1-9.02 2.248l-.03.006zm-45.889 6.424-.046.006c-3.013.219-6.131.412-9.269.575a.5.5 0 0 1-.052-.998 443.17 443.17 0 0 0 9.248-.574.5.5 0 0 1 .119.991zm63.762-11.357a.5.5 0 0 1-.24-.968 135.678 135.678 0 0 0 8.661-3.218.5.5 0 1 1 .381.924 136.437 136.437 0 0 1-8.724 3.242.407.407 0 0 1-.078.02zm-82.288 12.324a.46.46 0 0 1-.066.007c-3.03.1-6.152.177-9.282.227a.5.5 0 0 1-.016-1c3.124-.05 6.241-.126 9.265-.227a.5.5 0 0 1 .099.993zm-18.549.301a.555.555 0 0 1-.082.007c-3.025.002-6.149-.02-9.284-.064a.5.5 0 0 1 .014-1c3.129.044 6.249.066 9.269.064a.5.5 0 0 1 .083.993zm117.943-19.752a.5.5 0 0 1-.313-.936c2.884-1.503 5.543-3.09 7.905-4.719a.5.5 0 1 1 .567.824c-2.396 1.652-5.091 3.261-8.011 4.783a.503.503 0 0 1-.148.048zm-235.797 38.263a.5.5 0 0 1-.308-.939 133.17 133.17 0 0 1 8.432-3.92.5.5 0 1 1 .39.92 132.523 132.523 0 0 0-8.368 3.89.493.493 0 0 1-.146.049zm99.302-18.723a.494.494 0 0 1-.087.007 374.53 374.53 0 0 0-9.263.036.5.5 0 1 1-.016-.999c3.035-.051 6.159-.063 9.288-.037a.5.5 0 0 1 .078.993zm-82.261 11.479a.5.5 0 0 1-.246-.966 165.08 165.08 0 0 1 8.853-2.826.5.5 0 0 1 .277.96c-2.999.867-5.96 1.812-8.799 2.81a.532.532 0 0 1-.085.022zm63.712-11.16c-.02.003-.039.006-.06.006a302.79 302.79 0 0 0-9.245.55.5.5 0 1 1-.075-.997c3.031-.227 6.151-.413 9.275-.551a.5.5 0 0 1 .105.992zm-45.921 5.998a.5.5 0 0 1-.195-.98 205.929 205.929 0 0 1 9.092-1.918l.011-.002a.5.5 0 0 1 .174.985 203.591 203.591 0 0 0-9.047 1.909l-.035.006zm27.424-4.603a.5.5 0 0 1-9.78.746.513.513 0 0 1 .423-.567c3-.438 6.102-.831 9.221-1.17a.5.5 0 0 1 .136.991zM465.484 199.186a.498.498 0 0 1-.445-.837c2.048-2.165 2.761-3.546 2.768-3.56a.5.5 0 0 1 .893.451c-.03.061-.771 1.51-2.935 3.797a.5.5 0 0 1-.281.149z" class="color3a67b3 svgShape"></path><path fill="#2b3e85" d="m472.72 191.317 11.871-9.619-8.814-2.806z" class="color2b4c85 svgShape"></path><path fill="#3a76b3" d="m485.432 184.37 10.505-17.918-18.907 15.819zM495.937 166.452l-32.507 9.864 8.191 2.46z" class="color3a67b3 svgShape"></path><path fill="#324899" d="m495.937 166.452-18.899 15.905-4.318 8.96-1.182-12.659z" class="color325899 svgShape"></path><path fill="#516dd4" d="M141.247 603.535c.5.807.659 1.78.425 2.738a3.567 3.567 0 0 1-2.489 2.602l-12.063 3.518a3.566 3.566 0 0 1-3.498-.855 3.567 3.567 0 0 1-1.008-3.456l2.984-12.205a3.562 3.562 0 0 1 2.489-2.601 3.564 3.564 0 0 1 3.497.856l9.078 8.687c.23.217.425.458.585.716zm-15.787 5.796a.79.79 0 0 0 .126.156.75.75 0 0 0 .74.181l12.062-3.518a.75.75 0 0 0 .527-.551.746.746 0 0 0-.213-.731l-9.078-8.687a.747.747 0 0 0-.74-.181.75.75 0 0 0-.527.55l-2.984 12.205a.726.726 0 0 0 .087.576zM1217.155 424.413c.5.807.659 1.78.425 2.738a3.567 3.567 0 0 1-2.489 2.602l-12.063 3.518a3.566 3.566 0 0 1-3.498-.855 3.567 3.567 0 0 1-1.008-3.456l2.984-12.205a3.562 3.562 0 0 1 2.489-2.601 3.564 3.564 0 0 1 3.497.856l9.078 8.687c.23.216.425.457.585.716zm-15.787 5.795a.79.79 0 0 0 .126.156.75.75 0 0 0 .74.181l12.062-3.518a.75.75 0 0 0 .527-.551.746.746 0 0 0-.213-.731l-9.078-8.687a.747.747 0 0 0-.74-.181.75.75 0 0 0-.527.55l-2.984 12.205a.734.734 0 0 0 .087.576z" class="colord45151 svgShape"></path><path fill="#6bb5ff" d="m1162.452 567.462 4.437-4.437a2.579 2.579 0 0 0-3.647-3.647l-4.437 4.437-4.437-4.437a2.579 2.579 0 0 0-3.647 3.647l4.437 4.437-4.429 4.429a2.577 2.577 0 0 0 1.823 4.403c.66 0 1.32-.252 1.823-.756l4.429-4.429 4.429 4.429c.503.504 1.164.756 1.823.756s1.32-.252 1.823-.756a2.577 2.577 0 0 0 0-3.647l-4.427-4.429z" class="colorffb86b svgShape"></path><path fill="#3a76b3" d="M285.313 355.976c-5.588 0-10.134-4.546-10.134-10.134s4.546-10.134 10.134-10.134 10.134 4.546 10.134 10.134c0 5.587-4.546 10.134-10.134 10.134zm0-17.097a6.971 6.971 0 0 0-6.963 6.963 6.971 6.971 0 0 0 6.963 6.963 6.971 6.971 0 0 0 6.963-6.963 6.97 6.97 0 0 0-6.963-6.963z" class="color3a67b3 svgShape"></path></svg>