<svg xmlns="http://www.w3.org/2000/svg" data-name="8" viewBox="0 0 4680 3120" id="Bankingapplicationundermaintenance"><ellipse cx="2258.83" cy="1540.678" fill="#f1f1f1" rx="1204.878" ry="1200" class="colorf1f1f1 svgShape"></ellipse><path fill="#020923" d="M1791.864 2382.391c5.64 6.032 10.85 12.55 16.206 18.835 56.117 65.827 134 110.369 215.816 138.45 73.836 25.343 149.125 32.688 225.056 47.68 67.378 13.304 131.843 5.653 200.654-.897l192.808-18.351c58.228-5.543 120.228-22.622 178.066-23.039 64.182-.462 132.688 13.482 196.871 19.44 32.647 3.032 76.14-1.352 82.936-33.426 5.736-27.07-21.204-48.858-44.766-63.368l-58.24-35.864c-22.456-13.829-48.053-34.094-43.653-60.097 2.923-17.27 18.403-29.169 32.708-39.276l65.573-46.332c18.074-12.77 39.58-26.192 60.832-20.02 9.545 2.772 17.576 9.246 26.8 12.949 29.288 11.756 63.745-8.308 78.265-36.33s13.896-61.251 11.301-92.704c-12.708-154.012-63.959-311.413-19.893-459.533 67.174-2.771 131.583-43 163.547-102.145 39.299-72.72 36.374-201.041-56.59-221.538l-184.47-40.67c-16.675-3.677-34.503-8.005-45.864-20.753-9.733-10.92-12.888-26.046-15.43-40.452a1280.208 1280.208 0 0 1-19.133-251.958c1.744-75.35 9.91-152.656-12.525-224.61-46.136-147.972-225-232.097-374.6-191.552-40.546 10.988-78.665 29.352-118.3 43.272-87.408 30.696-181.165 39.386-273.805 38.776-68.61-.452-140.772-5.146-202.106 25.607-152.108 76.264-140.82 254.467-163.616 395.884-7.972 49.452-37.68 112.27-86.598 101.494-31.027-6.835-46.39-40.567-61.818-68.341s-45.535-56.331-74.769-43.89c-14.839 6.315-23.643 21.41-31.414 35.542l-88.72 161.326c-16.904 30.739-34.025 62.05-41.244 96.38-6.81 32.388-4.477 65.905-6.483 98.94-4.638 76.371-32.355 149.199-59.76 220.635q-53.325 139.037-106.67 278.066c-15.798 41.178-36.163 82.464-50.347 123.732-15.238 44.332-22.999 88.677-43.846 131.495-2.766 5.682-5.699 11.552-5.85 17.87-.266 11.204 8.063 20.535 15.863 28.582 21.9 22.598 44.703 45.815 73.89 57.58 20.014 8.067 41.853 10.232 63.375 11.79 96.903 7.016 194.213 3.403 291.345 1.247 28.398-.63 58.832-.566 82.376 15.325a95.881 95.881 0 0 1 16.222 14.25Z" opacity=".11" class="color021d23 svgShape"></path><path fill="#8fc7ff" d="M2367.548 860.096h-41.456a431.493 431.493 0 0 0-53.98-169.506l50.137-42.633a47.902 47.902 0 0 0 5.462-67.524l-38.29-45.028a47.903 47.903 0 0 0-67.523-5.462l-48.929 41.605a432.366 432.366 0 0 0-232.233-98.923V433.58a47.902 47.902 0 0 0-47.902-47.902h-59.107a47.902 47.902 0 0 0-47.903 47.902v50.145a433.502 433.502 0 0 0-189.241 104.273l-43.09-39.303a47.902 47.902 0 0 0-67.672 3.11l-39.833 43.669a47.903 47.903 0 0 0 3.11 67.672l54.899 50.077a431.433 431.433 0 0 0-42.02 146.873h-54.798a47.902 47.902 0 0 0-47.902 47.902v59.107a47.902 47.902 0 0 0 47.902 47.902h66.775a431.728 431.728 0 0 0 46.654 111.267l-44.764 38.064a47.902 47.902 0 0 0-5.461 67.523l38.29 45.029a47.902 47.902 0 0 0 67.523 5.462l46.059-39.166a432.85 432.85 0 0 0 163.57 81.944v47.645a47.902 47.902 0 0 0 47.902 47.903h59.107a47.902 47.902 0 0 0 47.902-47.903v-36.545a431.573 431.573 0 0 0 179.439-60.965l40.812 37.226a47.902 47.902 0 0 0 67.672-3.11l39.833-43.669a47.902 47.902 0 0 0-3.11-67.672l-28.96-26.417a432.769 432.769 0 0 0 77.693-156.615h53.433a47.902 47.902 0 0 0 47.902-47.903v-59.107a47.902 47.902 0 0 0-47.902-47.902Zm-480.184 287.053c-135.078 0-244.579-109.502-244.579-244.579s109.501-244.578 244.578-244.578 244.58 109.501 244.58 244.578-109.503 244.579-244.58 244.579Z" class="colorffaf8f svgShape"></path><circle cx="1887.364" cy="902.571" r="272.374" fill="none" stroke="#70b4f9" stroke-miterlimit="10" stroke-width="9" class="colorStrokef99770 svgStroke"></circle><circle cx="1895.362" cy="903.178" r="401.523" fill="none" stroke="#70b4f9" stroke-miterlimit="10" stroke-width="9" class="colorStrokef99770 svgStroke"></circle><path fill="#8fc7ff" d="M2480.298 2217.958h-29.56a307.674 307.674 0 0 0-38.49-120.864l35.75-30.4a34.156 34.156 0 0 0 3.895-48.147l-27.302-32.107a34.156 34.156 0 0 0-48.148-3.895l-34.888 29.667a308.296 308.296 0 0 0-165.592-70.537v-27.84a34.157 34.157 0 0 0-34.157-34.157h-42.146a34.157 34.157 0 0 0-34.156 34.156v35.756a309.106 309.106 0 0 0-134.938 74.351l-30.724-28.025a34.156 34.156 0 0 0-48.254 2.217l-28.402 31.138a34.157 34.157 0 0 0 2.217 48.254l39.146 35.707a307.631 307.631 0 0 0-29.962 104.726h-39.074a34.157 34.157 0 0 0-34.156 34.157v42.146a34.157 34.157 0 0 0 34.156 34.156h47.614a307.837 307.837 0 0 0 33.266 79.338l-31.918 27.141a34.156 34.156 0 0 0-3.895 48.147l27.302 32.108a34.156 34.156 0 0 0 48.148 3.894l32.842-27.927a308.641 308.641 0 0 0 116.632 58.43v33.973a34.157 34.157 0 0 0 34.156 34.157h42.147a34.157 34.157 0 0 0 34.156-34.157v-26.058a307.73 307.73 0 0 0 127.947-43.47l29.1 26.543a34.156 34.156 0 0 0 48.255-2.217l28.402-31.138a34.156 34.156 0 0 0-2.217-48.254l-20.65-18.836a308.583 308.583 0 0 0 55.398-111.674h38.1a34.157 34.157 0 0 0 34.157-34.156v-42.146a34.156 34.156 0 0 0-34.157-34.157Zm-342.392 204.682a174.395 174.395 0 1 1 174.395-174.395 174.395 174.395 0 0 1-174.395 174.395Z" class="colorffaf8f svgShape"></path><path fill="#70b4f9" d="M1777.346 1718.084h-30.38a308.113 308.113 0 0 0-39.559-122.339l36.742-30.77a34.212 34.212 0 0 0 4.003-48.734l-28.06-32.5a35.479 35.479 0 0 0-49.483-3.941l-35.857 30.028a319.34 319.34 0 0 0-170.188-71.397v-28.18c0-19.094-15.717-34.573-35.105-34.573h-43.315c-19.388 0-35.105 15.479-35.105 34.573v36.191a319.099 319.099 0 0 0-138.683 75.258l-31.577-28.366a35.484 35.484 0 0 0-49.593 2.244l-29.19 31.518a34.207 34.207 0 0 0 2.278 48.842l40.232 36.142a307.816 307.816 0 0 0-30.793 106.004h-40.158c-19.388 0-35.105 15.478-35.105 34.573v42.66c0 19.094 15.717 34.573 35.105 34.573h48.935a309.047 309.047 0 0 0 34.19 80.305l-32.805 27.472a34.212 34.212 0 0 0-4.002 48.734l28.06 32.5a35.479 35.479 0 0 0 49.483 3.941l33.754-28.267a319.101 319.101 0 0 0 119.87 59.142v34.388c0 19.094 15.716 34.573 35.104 34.573h43.315c19.388 0 35.105-15.48 35.105-34.573v-26.376a319.536 319.536 0 0 0 131.498-44.001l29.909 26.867a35.484 35.484 0 0 0 49.593-2.244l29.19-31.518a34.207 34.207 0 0 0-2.278-48.842l-21.224-19.066a310.509 310.509 0 0 0 56.937-113.035h39.157c19.388 0 35.104-15.48 35.104-34.573v-42.66c0-19.094-15.716-34.573-35.104-34.573ZM1425.45 1925.26c-98.989 0-179.235-79.031-179.235-176.522 0-97.49 80.246-176.521 179.235-176.521s179.236 79.031 179.236 176.521c0 97.49-80.247 176.522-179.236 176.522Z" class="colorf99770 svgShape"></path><path fill="#0a143a" stroke="#0a143a" stroke-miterlimit="10" stroke-width="14" d="M2013.382 400.9h847.49a135.296 135.296 0 0 1 135.296 135.297v1621.78a135.296 135.296 0 0 1-135.296 135.297h-847.49a135.296 135.296 0 0 1-135.296-135.296V536.197A135.296 135.296 0 0 1 2013.382 400.9Z" transform="rotate(7.763 2437.128 1347.088)" class="color0a303a svgShape colorStroke0a303a svgStroke"></path><path fill="#ced0d3" stroke="#0a143a" stroke-miterlimit="10" stroke-width="12" d="m1887.242 2227.064 755.537 102.995a168.833 168.833 0 0 0 190.091-144.481l209.997-1540.459a168.833 168.833 0 0 0-144.482-190.09l-755.538-102.996a168.833 168.833 0 0 0-190.09 144.482L1742.76 2036.973a168.833 168.833 0 0 0 144.482 190.09Z" class="colorced1d3 svgShape colorStroke0a303a svgStroke"></path><path fill="#eff0f1" stroke="#0a143a" stroke-miterlimit="10" stroke-width="5" d="m1962.449 2018 672.69 91.702a152.5 152.5 0 0 0 171.7-130.504l172.828-1267.797a152.5 152.5 0 0 0-130.504-171.7l-672.69-91.703a152.5 152.5 0 0 0-171.701 130.504L1831.945 1846.3A152.5 152.5 0 0 0 1962.449 2018Z" class="coloreff0f1 svgShape colorStroke0a303a svgStroke"></path><path fill="#a9d4ff" d="m2047.693 1768.321 553.072 75.396a152.5 152.5 0 0 0 171.701-130.505l107.523-788.749a152.5 152.5 0 0 0-130.504-171.7l-553.072-75.396a152.5 152.5 0 0 0-171.7 130.504l-107.524 788.75a152.5 152.5 0 0 0 130.504 171.7Z" class="colorffdca9 svgShape"></path><path fill="#6cadef" d="M2221.385 904.085c65.233 13.23 130.64 21.456 196.514 30.605l277.563 38.547 109.13 15.156c10.49 0 21.83 4.596 32.154 6.376 10.808 1.863 21.942 2.586 32.854 3.386a.66.66 0 0 0 .857-.612c6.436-24.08 6.184-48.522 9.532-73.08a152.5 152.5 0 0 0-130.504-171.7s-553.048-75.392-553.072-75.396c-56.04-7.64-112.974 17.248-145.483 63.528-27.097 38.575-32.916 89.471-35.26 135.308a7.977 7.977 0 0 0 .278 3.216 6.192 6.192 0 0 0 2.896 3c6.365 3.625 12.299-.706 18.75.254 7.495 1.115 14.903 2.604 22.44 3.519 12.074 1.465 24.38 1.936 36.367 4.035 39.35 6.887 79.382 4.426 119.642 12.763q2.671.553 5.342 1.095Z" class="colorefb36c svgShape"></path><path fill="#aaafb5" stroke="#0a143a" stroke-miterlimit="10" stroke-width="5" d="m2357.41 2225.676-163.699-22.315a32.995 32.995 0 0 1-28.152-37.04l5.719-41.952a32.994 32.994 0 0 1 37.04-28.153l163.698 22.316a32.994 32.994 0 0 1 28.153 37.04l-5.719 41.952a32.995 32.995 0 0 1-37.04 28.152ZM2604.508 478.934 2410.74 452.52a18.554 18.554 0 0 1-15.832-20.829l1.117-8.196a18.554 18.554 0 0 1 20.83-15.832l193.768 26.415a18.554 18.554 0 0 1 15.832 20.83l-1.117 8.196a18.554 18.554 0 0 1-20.83 15.831Z" class="coloraab2b5 svgShape colorStroke0a303a svgStroke"></path><path fill="none" stroke="#6cadef" stroke-miterlimit="10" stroke-width="8" d="m2017.72 878.31 856.73 121.154" class="colorStrokeefb36c svgStroke"></path><path fill="#2548ce" stroke="#2548ce" stroke-miterlimit="10" stroke-width="8" d="M2108.482 1028.922c1.613-16.416 3.555-36.15 5.684-50.725l-.377-.051c-4.778 13.326-10.304 27.435-16.799 43.003l-22.768 54.752-8.302-1.14-6.053-57.647c-1.759-17.056-3.08-32.636-3.56-46.862l-.252-.035c-2.255 14.558-5.58 34.102-8.744 51.544l-9.159 49.894-10.44-1.434 21.991-116.274 13.962 1.917 6.688 58.618c1.541 14.903 2.67 28.156 3.138 40.61l.377.051c3.76-11.519 8.545-23.96 14.346-38.208l22.87-54.559 13.963 1.918-10.796 117.811-10.692-1.468ZM2148.618 1049.302l-13.862 35.619-11.32-1.554 44.883-113.13 13.206 1.813 12.852 121.059-11.698-1.607-3.999-38.072Zm29.42-7.995-3.673-34.841c-.837-7.904-1.141-15.025-1.469-21.972l-.251-.035c-2.212 6.775-4.574 13.708-7.187 20.606l-12.953 32.735ZM2233.854 979.236l-16.079 117.086-10.943-1.503 16.079-117.086ZM2236.895 1098.947l16.079-117.085 11.95 1.64 19.033 62.969a387.426 387.426 0 0 1 9.996 40.134l.275-.138c1.14-15.774 2.845-30.052 5.35-48.294l6.727-48.988 10.315 1.417-16.079 117.086-11.07-1.52-18.758-63.108c-4.123-13.842-7.945-27.994-10.481-41.264l-.4.122c-1.4 14.852-3.08 28.96-5.752 48.415l-6.87 50.03ZM2350.075 1008.294l-25.786-3.541 1.766-12.856 62.766 8.62-1.766 12.855-25.911-3.558-14.314 104.23-11.069-1.52ZM2433.613 1070.031l-32.955-4.525-5.797 42.214 36.728 5.044-1.741 12.68-47.671-6.546 16.079-117.085 45.784 6.287-1.741 12.681-34.842-4.785-5.081 37.003 32.954 4.526ZM2444.063 1127.397l16.079-117.086 11.95 1.641 19.034 62.969a387.388 387.388 0 0 1 9.995 40.134l.275-.139c1.14-15.773 2.845-30.052 5.35-48.293l6.728-48.988 10.314 1.416-16.079 117.086-11.07-1.52-18.758-63.108c-4.122-13.841-7.945-27.994-10.48-41.263l-.401.122c-1.4 14.852-3.08 28.959-5.752 48.415l-6.87 50.03ZM2545.597 1103.817l-13.862 35.62-11.32-1.555 44.883-113.13 13.207 1.814 12.851 121.058-11.698-1.606-3.998-38.072Zm29.42-7.995-3.673-34.84c-.837-7.904-1.14-15.025-1.468-21.973l-.252-.034c-2.212 6.775-4.574 13.708-7.187 20.606l-12.953 32.735ZM2603.811 1149.335l16.08-117.086 11.949 1.64 19.034 62.97a387.413 387.413 0 0 1 9.995 40.133l.275-.138c1.141-15.774 2.846-30.052 5.35-48.293l6.728-48.988 10.314 1.416-16.079 117.086-11.069-1.52-18.759-63.108c-4.122-13.841-7.945-27.994-10.48-41.264l-.401.123c-1.399 14.852-3.08 28.958-5.752 48.414l-6.87 50.031ZM2746.346 1165.015c-4.406 2.226-12.838 3.9-23.153 2.484-23.898-3.282-39.023-26.598-33.75-64.99 5.033-36.655 26.432-59.026 52.72-55.416 10.566 1.45 16.803 5.493 19.41 7.975l-4.335 11.971a31.163 31.163 0 0 0-16.439-7.212c-19.874-2.73-35.49 13.002-39.713 43.75-3.936 28.664 5.484 48.719 26.113 51.552 6.666.915 13.72-.063 18.529-2.412ZM2810.97 1121.852l-32.955-4.525-5.797 42.214 36.728 5.044-1.742 12.68-47.671-6.546 16.079-117.085 45.784 6.287-1.741 12.68-34.841-4.784-5.082 37.003 32.955 4.525Z" class="colorce7125 svgShape colorStrokece7125 svgStroke"></path><g opacity=".83" fill="#000000" class="color000000 svgShape"><path fill="#31343f" d="M3626.283 1416.187a299.798 299.798 0 0 0 68.962-265.105c-5.762-25.87-14.225-68.104-41.044-80.258l-1.706-.73c-8.973 10.12-14.217 22.923-19.279 35.465-8.39 20.777-14.576 47.148-27.725 65.003-13.71 18.615-31.511 35.293-46.92 52.552l-54.52 61.067-168.625-150.546 133.877-149.956c11.13-12.466 25.151-24.771 34.5-38.643 7.414-11-.96-16.543-12.48-23.17-15.573-8.958-34.28-11.688-51.967-12.465-48.843-2.146-97.93 9.564-143.407 26.828a300.196 300.196 0 0 0-116.99 80.596c-81.16 90.907-96.773 217.565-50.125 322.074l-574.621 643.632a193.74 193.74 0 0 0-150.086 64.777c-71.42 79.997-64.466 202.745 15.531 274.165s202.745 64.467 274.165-15.53a193.918 193.918 0 0 0 44.637-171.766l566.214-634.215c110.825 38.243 238.645 9.153 321.61-83.775Zm-1145.337 836.637a103.166 103.166 0 1 1 145.666-8.251 103.166 103.166 0 0 1-145.666 8.251Z" class="color31373f svgShape"></path><path fill="#31343f" d="M2551.464 1676.444h771.247v105.444h-771.247z" transform="rotate(-48.736 2937.087 1729.166)" class="color31373f svgShape"></path><path fill="#31343f" d="M3626.283 1416.187c81.675-91.483 96.968-219.173 49.23-324.06l-171.461 192.054c1.255-1.408-71.366-58.624-76.514-64.59l-126.927 126.926c-21.342 21.342-52.071 43.483-68.723 68.723-4.428 6.712-9.627 6.33-8.226 15.629 1.462 9.706 27.562 27.568 35.019 33.777 23.202 19.317 49.495 35.897 78.618 44.556 101.272 30.111 221.088-16.965 288.984-93.015Z" opacity=".39" class="color31373f svgShape"></path></g><path fill="#686b75" d="M3599.283 1398.187c81.675-91.483 96.968-219.173 49.23-324.06l-171.461 192.054-168.627-150.546 175.645-196.74c-113.166-43.872-246.513-15.95-332.111 79.93-81.16 90.907-96.773 217.565-50.125 322.074l-574.621 643.632a193.74 193.74 0 0 0-150.086 64.777c-71.42 79.997-64.466 202.745 15.531 274.165s202.745 64.467 274.165-15.53a193.918 193.918 0 0 0 44.637-171.766l566.214-634.214c110.825 38.242 238.645 9.152 321.61-83.776Zm-1145.337 836.637a103.166 103.166 0 1 1 145.666-8.251 103.166 103.166 0 0 1-145.666 8.251Z" class="color686e75 svgShape"></path><path fill="#585b66" d="M2524.464 1658.444h771.247v105.444h-771.247z" transform="rotate(-48.736 2910.087 1711.166)" class="color585e66 svgShape"></path><path fill="#a7abaf" d="M3599.283 1398.187c81.675-91.483 96.968-219.173 49.23-324.06l-171.461 192.054c1.255-1.408-71.366-58.624-76.514-64.59l-126.927 126.926c-21.342 21.342-52.071 43.483-68.723 68.723-4.428 6.712-9.627 6.33-8.226 15.629 1.462 9.706 27.562 27.568 35.019 33.777 23.202 19.317 49.495 35.897 78.618 44.556 101.272 30.111 221.088-16.965 288.984-93.015Z" opacity=".39" class="colora7abaf svgShape"></path><rect width="173.322" height="753.951" x="3040.32" y="1519.602" fill="#010a2d" rx="44.5" class="color2d0d01 svgShape"></rect><path fill="#020e3d" d="M3187.644 1519.602a43.33 43.33 0 0 1 43.33 43.33v667.29a43.33 43.33 0 0 1-43.33 43.331 43.33 43.33 0 0 1-43.33-43.33v-667.29a43.33 43.33 0 0 1 43.33-43.331Z" class="color3d1302 svgShape"></path><rect width="173.322" height="753.951" x="1532.418" y="1467.605" fill="#010a2d" rx="44.5" class="color2d0d01 svgShape"></rect><path fill="#020e3d" d="M1645.078 1467.605a43.33 43.33 0 0 1 43.33 43.33v667.291a43.33 43.33 0 0 1-43.33 43.33 43.33 43.33 0 0 1-43.33-43.33v-667.29a43.33 43.33 0 0 1 43.33-43.33Z" class="color3d1302 svgShape"></path><path fill="#7ebdfc" d="m3341.126 1504.873 14.78-13.02 4.48.283 2.473-39.076a67.601 67.601 0 0 0-63.013-71.525L1410.56 1262.013a67.601 67.601 0 0 0-71.524 63.013l-13.724 216.932 28.548-25.127c85.229-75.086 171.681-148.98 255.42-225.72l14.78-13.022 269.718 17.064-17.364 15.297-109.412 96.392-144.822 127.589-103.23 90.945c-5.02 4.423-7.715 7.71-15.092 7.244l1579.624 99.932 2.224-1.958c85.229-75.086 171.681-148.98 255.42-225.72Z" class="colorfcc67e svgShape"></path><path fill="#6cadef" d="M3356.404 1452.982c1.42-4.692 3.67-8.186 7.187-9.681.31-7.027.774-14.055 1.219-21.08 1.267-20.037-27.967-38.345-64.964-40.686L1410.56 1262.013c-36.998-2.34-68.305 12.138-69.573 32.174-2.73 43.163-27.234 123.465 15.965 148.87 69.476 40.86 190.75 25.14 268.43 30.055l304.756 19.28 766.552 48.494c177.155 11.207 351.9 21.723 529.042 21.723h103.543l-.841 20.086c.907-21.663 21.624-50.227 25.325-73.837 2.077-13.246-1.93-40.771 2.645-55.876Z" class="colorefb36c svgShape"></path><path fill="#0a143a" d="m3348.39 1681.773 11.997-189.637-4.482-.284-14.78 13.021c-83.738 76.742-170.19 150.635-255.419 225.721l-2.224 1.957 193.383 12.235a67.601 67.601 0 0 0 71.525-63.013ZM2801.995 1366.495l-109.435 96.764-144.854 128.08-103.251 91.297c-5.022 4.44-7.717 7.74-15.094 7.273l-261.386-16.537c7.405-6.547 14.122-13.681 21.592-20.283q14.968-13.228 29.938-26.453 29.94-26.451 59.882-52.898c85.247-75.376 171.717-149.555 255.475-226.592l14.782-13.07 269.719 17.062-17.368 15.357ZM2329.19 1336.524l-109.411 96.393-144.823 127.589-103.23 90.945c-5.02 4.423-7.714 7.71-15.091 7.243l-261.387-16.536c7.404-6.522 14.12-13.63 21.588-20.206q14.964-13.177 29.931-26.351 29.933-26.35 59.87-52.695c85.228-75.086 171.68-148.98 255.42-225.721l14.779-13.021 269.718 17.063-17.363 15.297ZM3269.035 1395.982l-109.412 96.392-144.822 127.589-103.23 90.945c-5.02 4.423-7.715 7.71-15.092 7.244l-261.386-16.536c7.403-6.523 14.119-13.63 21.587-20.206q14.965-13.177 29.932-26.352 29.933-26.349 59.87-52.694c85.228-75.087 171.68-148.98 255.419-225.722l14.78-13.02 269.718 17.063-17.364 15.297ZM1518.95 1625.376q51.618-45.47 103.23-90.945l144.822-127.59 109.412-96.391 17.364-15.297-269.718-17.064-14.78 13.021c-83.739 76.742-170.191 150.635-255.42 225.721l-28.548 25.127-.745 11.781a67.601 67.601 0 0 0 63.013 71.525l116.278 7.356c7.378.466 10.072-2.821 15.092-7.244Z" class="color0a303a svgShape"></path><path fill="#121d44" d="m2801.983 1366.691-109.514 98.003-144.957 129.72-103.326 92.465c-5.025 4.496-7.723 7.837-15.1 7.37l-261.386-16.536c7.41-6.63 14.133-13.855 21.609-20.542q14.978-13.397 29.959-26.792 29.96-26.789 59.925-53.574c85.308-76.341 171.839-151.471 255.658-229.491l14.793-13.239 269.719 17.064ZM2329.178 1336.72l-109.49 97.626-144.926 129.223-103.303 92.11c-5.024 4.479-7.72 7.807-15.098 7.34l-261.386-16.536c7.408-6.605 14.13-13.802 21.604-20.463q14.975-13.346 29.952-26.69 29.955-26.685 59.912-53.368c85.29-76.048 171.802-150.889 255.603-228.61l14.79-13.188 269.718 17.063-17.376 15.493ZM3269.023 1396.178l-109.49 97.626-144.926 129.222-103.303 92.11c-5.025 4.48-7.721 7.808-15.098 7.341l-261.387-16.536c7.409-6.606 14.13-13.803 21.604-20.464q14.975-13.346 29.953-26.689 29.954-26.686 59.912-53.369c85.29-76.048 171.802-150.889 255.602-228.61l14.79-13.188 269.719 17.064-17.376 15.493ZM1518.68 1629.634q51.655-46.051 103.304-92.11l144.926-129.222 109.49-97.625 17.376-15.494-269.718-17.063-14.79 13.188c-83.801 77.721-170.314 152.562-255.603 228.61l-28.568 25.448-.755 11.923c-2.368 37.441 25.965 69.99 62.962 72.33l116.279 7.357c7.377.466 10.073-2.862 15.098-7.342Z" class="color123b44 svgShape"></path><path fill="#0a143a" d="m2683.258 1470.268 109.514-98.002 17.38-15.553-269.719-17.063-14.793 13.239c-55.378 51.546-111.94 101.83-168.55 152.037l263.046 21.83 63.122-56.488ZM2210.477 1439.921l109.49-97.626 17.376-15.493-269.718-17.063-14.79 13.187c-52.435 48.631-105.931 96.134-159.525 143.51l262.955 21.823 54.212-48.338ZM3259.811 1401.753l17.376-15.494-269.718-17.063-14.79 13.188c-58.688 54.43-118.707 107.45-178.704 160.458l263.112 21.836 73.235-65.3 109.49-97.625ZM1757.699 1413.877l109.49-97.626 17.375-15.493-269.718-17.063-14.79 13.188c-48.547 45.024-98.004 89.081-147.606 132.967l262.868 21.815 42.38-37.788Z" class="color0a303a svgShape"></path><path fill="#3556d3" d="M1577.292 1606.491c-15.972 2.21-30.158 20.02-37.257 33.425-24.473 46.221-41.434 97.991-61.954 146.176l-131.986 309.928-66.624 156.445h601.222l-34.109-80.094c-71.939-166.898-142.761-334.303-214.03-501.45-9.7-22.72-16.462-44.257-36.897-59.34-6.187-4.566-12.4-5.915-18.365-5.09Z" class="colord35335 svgShape"></path><path fill="#2c4fd1" d="M1578.977 1608.742c-16.965 10.905-14.654 72.21-11.784 85.88v522.267c9.676 0 17.956 4.979 22.116 13.729 21.124 44.433 142.78 21.847 187.95 21.847 7.81 0 100.764-6.27 103.433-.002l-34.108-80.092c-71.939-166.898-142.761-334.303-214.03-501.45-9.7-22.72-16.462-44.257-36.897-59.34l-.048-.035c-6.944-5.106-12.39-5.53-16.632-2.804Z" class="colord1472c svgShape"></path><path fill="#2444bc" d="M1742.34 1928.715q-5.08-12.381-10.397-24.662-2.948-6.77-6.005-13.494c-1.323-2.906-2.51-8.58-6.025-9.436-3.013-.734-6.173-.112-9.218-.112h-263.26c-1.96 0-4.96-.578-6.836 0-6.243 1.922-7.008 9.755-9.464 16.105q-13.753 35.565-28.9 70.57c-2.027 4.691-4.245 9.3-6.293 13.984-2.061 4.712-10.78 16.43-8.922 21.308l383.92-.001c-.046-2.15-.09-4.3-.11-6.45-3.809-1.07-4.615-8.242-6.036-11.773-7.26-18.042-14.327-36.162-21.687-54.164q-.383-.938-.768-1.875ZM1575.662 2093.46h-189.445c-8.692 0-32.128-4.4-39.866.209-8.004 4.768-13.098 27.577-16.781 36.227l-16.777 39.395-34.952 82.074h601.222l-34.11-80.094q-8.918-20.693-17.816-41.395c-3.623-8.43-8.153-29.05-15.723-34.445-8.723-6.218-32.704-1.971-43.94-1.971h-191.812Z" class="colorbc3d24 svgShape"></path><path fill="#203eaf" d="M1577.246 2096.34c-11.188 5.38-6.796 18.374-6.796 39.713v109.625c9.473 16.53 85.105 5.687 103.296 5.687h104.561c7.596 0 98.154-6.11 100.756 0l-34.11-80.094q-8.918-20.693-17.816-41.395c-3.623-8.43-8.153-29.05-15.723-34.445-8.723-6.218-32.704-1.971-43.94-1.971h-43.328c-42.854 0-85.716-.241-128.57 0-8.59.048-14.414.998-18.33 2.88Z" class="coloraf3120 svgShape"></path><path fill="#1c38a3" d="M1292.685 2212.824h574.794a46.248 46.248 0 0 1 46.248 46.247 46.248 46.248 0 0 1-46.248 46.248h-574.794a46.248 46.248 0 0 1-46.248-46.247 46.248 46.248 0 0 1 46.248-46.248Z" class="colora32c1c svgShape"></path><path fill="#122a84" d="M1534.698 2212.824h332.781a46.248 46.248 0 0 1 46.248 46.247 46.248 46.248 0 0 1-46.248 46.248H1534.7a46.248 46.248 0 0 1-46.249-46.247 46.248 46.248 0 0 1 46.248-46.248Z" opacity=".46" class="color841c12 svgShape"></path><path fill="#203eaf" d="M1742.34 1928.715q-5.08-12.381-10.397-24.662-2.948-6.77-6.005-13.494c-1.323-2.906-2.51-8.58-6.025-9.436-3.013-.734-6.173-.112-9.218-.112h-49.33c-30.301 0-60.634-.333-90.915-.333v121.016c17.348 0 34.416 1.284 51.865 1.284h74.903c4.012 0 73.717-.245 73.722-.001-.046-2.15-.09-4.3-.11-6.45-3.809-1.07-4.615-8.241-6.036-11.773-7.26-18.042-14.327-36.162-21.687-54.164q-.383-.938-.768-1.875Z" class="coloraf3120 svgShape"></path><path fill="#31343f" d="m2715.912 1172.837-.13.1c8.012-6.235-27.4-28.985-33.246-30.283-16.843-3.738-33.792 3.456-43.677 18.157-16.375-13.57-38.521-19.435-59.525-14.617-7.03 1.612-14.394 4.816-19.428 10.245-6.614 7.134-4.149 14.67-7.657 22.87-2.784 6.509-9.874 9.773-13.464 15.923a35.888 35.888 0 0 0-4.87 21.593c1.982 19.285 22.707 32.514 39.404 38.29 6.096 2.108 12.906 1.306 18.607 3.11 6.79 2.15 11.062 8.27 16.358 12.514 2.484 1.99 5.098 4.044 8.292 4.754 5.637 1.254 11.236-1.968 15.914-5.188 6.425-4.423 12.695-9.183 19.962-12.269 12.597-5.351 30.723-6.432 33.88 8.522 2.18 10.333 2.98 21.036 7.133 30.822a36.104 36.104 0 0 0 12.262 15.653c3.003 2.075 6.774 2.527 9.704 4.299 8.477 5.126 9.472 7.733 20.408 4.458 28.072-8.407 39.082-27.196 40.282-55.582.323-7.627-1.305-17.736-8.79-18.572 6.66.744 13.407-22.689 14.437-27.444 3.013-13.91 1.77-28.674-7.459-39.786-16.804-20.229-38.528-22.828-58.397-7.57Z" class="color31373f svgShape"></path><path fill="#20232d" d="M2676.57 1198.674a34.57 34.57 0 0 0-8.862-9.77c-5.713-4.025-12.864-5.346-19.803-6.175-10.988-1.312-23.155-1.324-31.837 5.537-4.2 3.319-7.185 7.976-11.378 11.303a24.642 24.642 0 0 1-29.88-.14c-3.599-2.91-6.272-6.794-9.593-10.016s-7.725-5.877-12.319-5.319c-13.509 1.644-20.139 21.49-18.983 32.731 1.982 19.285 22.707 32.514 39.404 38.29 6.096 2.108 12.906 1.306 18.607 3.11 6.79 2.15 11.062 8.27 16.358 12.514 2.484 1.99 5.098 4.044 8.292 4.754 5.637 1.254 11.236-1.968 15.914-5.188 6.425-4.423 12.695-9.183 19.962-12.269 12.597-5.351 30.723-6.432 33.88 8.522 2.18 10.333 2.98 21.036 7.133 30.822a36.104 36.104 0 0 0 12.262 15.653c3.003 2.075 6.774 2.527 9.704 4.299 8.477 5.126 9.472 7.733 20.408 4.458 18.951-5.675 47.184-26.592 30.993-48.8-3.3-4.526-7.705-8.21-10.641-12.98-5.763-9.364-5.705-22.5-14.44-29.177-11.907-9.098-30.045 1.002-43.79-4.967-10.774-4.679-14.883-17.149-21.391-27.192Z" class="color20262d svgShape"></path><path fill="#94c9ff" d="M2760.692 1357.513c.323-.548.7-1.115 1.137-1.71 2.3-3.138 5.368-6.023 7.196-9.277 4.384-7.803 8.578-15.912 9.626-24.633 1.047-8.722-1.554-18.276-8.898-24.1-7.413-5.88-18.527-6.92-27.811-4.093s-16.889 9.021-22.756 16.082c-2.338-.125-3.323-2.722-3.715-4.806l-10.67-56.735c-17.196-5.762-36.054-.511-53.99 2.57-24.221 4.16-49.761 3.55-74.143 2.32-1.574-.079 9.29 142.175 11.64 154.014 1.866 9.404 4.8 19.543 13.265 25.328 7.599 5.195 17.923 5.6 27.333 4.544 9.24-1.037 19.172-3.761 28.223-2.5-5.487 17.852-6.738 38.383-11.007 56.796-4.079 17.588-17.574 101.318 16.2 105.697a17.293 17.293 0 0 0 6.214-.71l16.45-3.955c9.588-2.306 19.207-4.622 28.374-8.027 24.905-9.255 45.879-26.716 58.088-48.363 10.312-18.284 18.145-46.355 9.77-66.565-9.064-21.869-11.61-45.34-15.784-68.5l-5.841-32.421c-.814-4.534-1.047-7.314 1.1-10.956Z" class="colorffc894 svgShape"></path><path fill="#6eb6ff" d="M2760.692 1357.513c.323-.548.7-1.115 1.137-1.71 2.3-3.138 5.368-6.023 7.196-9.277 4.384-7.803 8.578-15.912 9.626-24.633 1.047-8.722-1.554-18.276-8.898-24.1-7.413-5.88-18.527-6.92-27.811-4.093s-16.889 9.021-22.756 16.082c-2.338-.125-3.323-2.722-3.715-4.806l-10.67-56.735c-17.193-5.761-36.048-.513-53.98 2.568-24.393 4.19-49.217 3.464-73.83 2.34-4.807 14.221 6.85 25.842 18.097 33.245 25.102 16.524 54.93 25.292 78.75 43.614 26.683 20.522 43.61 51.478 54.152 83.447a477.514 477.514 0 0 1 23.656 139.303 5.137 5.137 0 0 0 .718 3.06c1.512 1.985 4.672.816 6.701-.635 23.188-16.58 32.936-59.773 22.153-85.793-9.064-21.869-11.61-45.34-15.784-68.5l-5.841-32.421c-.814-4.534-1.047-7.314 1.1-10.956Z" class="colorffac6e svgShape"></path><path fill="none" stroke="#31343f" stroke-miterlimit="10" stroke-width="5" d="M2766.798 1309.04c-4.302.273-8.837.618-12.37 2.85-5.997 3.787-6.932 11.535-5.951 18.134.569 3.828 2.435 8.363 6.64 8.944 4.349.602 8.81-2.582 10.826-5.914a7.247 7.247 0 0 0 1.057-5.95c-.818-2.412-3.88-3.194-6.366-3.84-4.285-1.114-9.459-.256-12.08 2.998" class="colorStroke31373f svgStroke"></path><path fill="#31343f" d="M2594.268 1334.992c1.173 9.254 1.154 18.425 1.769 27.576M2639.15 1320.02a8.523 8.523 0 0 0-8.85-1.278c-3.81 1.553-5.415 5.602-4.626 9.492.739 3.644 3.282 6.504 7.148 6.738 8.595.522 13.174-9.239 6.328-14.953ZM2587.133 1326.56a8.523 8.523 0 0 0-8.85-1.276c-3.809 1.553-5.414 5.601-4.626 9.492.74 3.643 3.282 6.503 7.149 6.738 8.594.521 13.173-9.24 6.327-14.953ZM2666.892 1303.535c-1.601-5.715-6.32-7.634-11.785-8.591-7.62-1.335-16.35-2.304-23.946-.814-5.698 1.117-13.112 2.391-16.38 7.824a6.751 6.751 0 0 0-.367 6.754c1.288 2.181 4.024 3.131 6.556 3.092s4.973-.878 7.433-1.48c8.98-2.195 18.38-1.228 27.624-1.208 3.515.007 7.325-.232 10.01-2.5a2.904 2.904 0 0 0 .961-1.264 3.182 3.182 0 0 0-.106-1.813ZM2594.19 1311.784c.358-1.828-.475-3.781-3.193-5.25a26.51 26.51 0 0 0-7.158-2.162 31.709 31.709 0 0 0-15.699.909c-3.3 1.09-10.545 6.163-7.641 10.366a5.536 5.536 0 0 0 4.109 2.132c3.566.32 7.499-.526 11.133-.473a76.095 76.095 0 0 0 12.006-.273c3.205-.462 5.95-2.737 6.442-5.249Z" class="color31373f svgShape"></path><path fill="#67b0f9" d="M2613.038 1371.265c1.614-.81 3.374-1.733 5.135-1.33a.804.804 0 0 1 .519.29.857.857 0 0 1 .074.561c-.85 8.026-10.016 10.961-16.864 11.416a17.867 17.867 0 0 1-5.896-.4c-1.755-.48-8.432-4.638-5.956-7.056 1.455-1.42 6.044.373 7.823.415a32.617 32.617 0 0 0 15.165-3.896Z" class="colorf9a267 svgShape"></path><path fill="#1c38a3" d="m2720.581 1298.19-46.058 1.146c-6.662-10.646-17.717-17.492-30.062-17.185-19.665.489-35.15 18.938-34.585 41.207.038 1.515.156 3.007.337 4.475l-9.126.227c-.501-19.795-12.864-35.545-27.613-35.178s-26.3 16.71-25.798 36.506 12.865 35.544 27.614 35.177c12.444-.309 22.61-11.992 25.183-27.524l11.778-.293c5.285 15.538 18.752 26.432 34.254 26.047 19.665-.49 35.15-18.938 34.586-41.207a45.08 45.08 0 0 0-2.375-13.39l42.092-1.047a4.482 4.482 0 0 0-.227-8.96Zm-145.518 57.415c-9.833.244-18.109-11.593-18.485-26.439s7.29-27.08 17.123-27.323 18.108 11.592 18.485 26.438-7.29 27.08-17.123 27.324Zm71.215-1.77c-14.75.366-27.061-13.378-27.5-30.698s11.162-31.659 25.91-32.025 27.062 13.376 27.5 30.697-11.161 31.659-25.91 32.025Z" class="colora32c1c svgShape"></path><path fill="#3556d3" d="M2972.56 2146.787c-11.31-15.054-13.178-34.993-14.034-53.803-4.471-98.2 12.93-195.281 23.565-292.52 9.374-85.708 26.81-187.953-32.03-260.28-29.15-35.83-120.42-96.642-167.82-61.853-8.968 6.582-15.119 16.188-21.9 25.006-18.203 23.672-53.5 58.015-85.313 60.567-36.72 2.947-29.483-76.693-31.777-76.689-45.616.08-87.59 27.96-115.818 63.792s-44.98 79.136-61.331 121.72c-21.185 55.174-33.698 118.865-72.357 165.44-26.028 31.359-59.34 60.004-46.519 105.194 18.941 66.765 72.913 22.941 112.312 4.36 22.367-10.547 44.09-21.838 64.975-34.274-.072.369-.141.737-.214 1.104-6.748 34.351-14.233 68.565-23.748 102.264-5.608 19.864-11.215 39.587-20.868 57.56-19.532 36.364-52.335 69.306-77.407 102.141l287.293 113.557c14.673 5.8 29.6 11.661 45.316 13.051 29.425 2.603 57.682-10.614 84.263-23.5l155.874-75.564c7.764-3.764 16.235-8.292 19.086-16.436 5.352-15.284-11.822-27.89-21.548-40.837Z" class="colord35335 svgShape"></path><path fill="#516fe0" d="M2826.207 2110.348c30.287-80.725 45.507-166.788 60.46-251.963 6.74-38.39 13.5-76.875 16.6-115.765 2.484-31.144 6.898-68.863-3.244-98.655-17.556-51.569-47.687-109.218-98.76-134.26-58.41-28.64-65.981 49.353-126.235 54.2-36.72 2.946-29.483-76.694-31.777-76.69-45.616.08-87.59 27.96-115.818 63.792s-44.98 79.136-61.331 121.72c-21.185 55.174-33.698 118.865-72.357 165.44-26.028 31.359-59.34 60.004-46.519 105.194 18.941 66.765 72.913 22.941 112.312 4.36 22.367-10.547 44.09-21.838 64.975-34.274-.072.369-.141.737-.214 1.104-6.748 34.351-14.233 68.565-23.748 102.264-5.608 19.864-11.215 39.587-20.868 57.56-19.532 36.364-52.335 69.306-77.407 102.141l197.956 78.246c27.81 10.992 58.38 31.392 88.241 22.527 26.214-7.783 49.557-23.832 68.281-43.532 23.137-24.344 39.752-54.156 53.553-84.775q8.6-19.082 15.9-38.634Z" opacity=".69" class="colore06951 svgShape"></path><path fill="#ffffff" stroke="#000000" stroke-miterlimit="10" stroke-width=".75" d="M2653.868 1972.956q.354-.213.702-.425c15.502-9.464 29.464-22.385 36.934-38.94 11.868-26.299 2.552-59.527-24.144-72.542a52.833 52.833 0 0 0-47.596 1.069c-14.52 7.904-26.735 21.293-40.316 30.87-28.467 20.077-63.4 38.448-43.478 77.817 20.622 40.754 87.595 20.336 117.898 2.15Z" class="colorffffff svgShape colorStroke000000 svgStroke"></path><path fill="#021b79" d="M2955.141 2527.45c10.662 4.611 22.212 7.544 33.707 10.373q22.908 5.64 45.367 13.244c13.818 4.68 26.622 12.953 40.633 16.74 9.802 2.57 20.382 2.77 29.795-1.472 22.323-10.061 35.767-42.31 36.992-67.77.743-15.444-3.402-31.463-12.875-42.505-9.52-11.097-23.37-16.234-37.025-18.175s-27.53-1.078-41.268-2.179c-20.269-1.624-39.496-9.025-59.52-11.025l-1.814-.182c-19.354-1.958-36.215 1.535-53.979 10.73-6.218 3.22-12.266 7.368-16.472 13.463-8.977 13.007-7.372 32.224.026 46.211 8.847 16.727 21.803 26.218 36.433 32.546Z" class="color144651 svgShape"></path><path fill="#070f2b" d="M3036.713 2520.986c4.11 31.416 27.159 39.938 51.144 47.73 7.707 2.424 16.063 2.468 23.562-1.908 17.784-10.378 28.879-42.79 30.22-68.242.814-15.44-2.226-31.381-9.548-42.273-7.36-10.946-18.226-15.874-28.985-17.614-27.364-4.423-52.684-4.989-63.377 33.83-3.659 13.28-4.124 27.508-3.6 41.387q.14 3.728.584 7.09Z" opacity=".47" class="color07242b svgShape"></path><path fill="#070f2b" d="M2767.723 2494.98c33.471 11.895 66.297 25.76 100.265 35.384 18.383 5.207 33.436 7.175 51.14 16.535 16.24 8.587 37.915 22.278 55.763 10.17 21.439-14.546 28.827-68.208 33.023-92.815 8.788-51.537-23.137-54.298-59.642-69.336l-131.466-54.154c-79.77-32.86-159.62-65.756-237.033-104.976-66.079-33.478-134.383-65.696-206.176-80.408-34.127-6.993-74.273-12.278-107.267 4.294-49.758 24.992-55.679 101.339-23.036 142.376 37.61 47.283 93.894 69.687 145.9 89.803 36.83 14.246 73.7 28.506 111.409 39.581 71.84 21.099 146.103 30.462 218.619 48.552 16.443 4.102 32.545 9.324 48.501 14.995Z" class="color07242b svgShape"></path><path fill="#02071c" d="M2788.317 2434.654q26.085 10.456 52.097 21.096c37.974 15.546 153.79 88.9 167.5 8.504 8.788-51.537-23.137-54.298-59.642-69.336l-131.466-54.154c-79.77-32.86-159.62-65.756-237.033-104.976-66.079-33.478-134.383-65.696-206.176-80.408-34.127-6.993-74.273-12.278-107.269 4.295-16.793 8.435-33.263 24.969-21.223 44.629 12.54 20.477 45.693 31.198 66.242 41.277 29.138 14.29 59.45 26.03 89.674 37.783l216.12 84.045c57.135 22.218 114.274 44.435 171.176 67.245Z" class="color02181c svgShape"></path><path fill="#021b79" d="M2368.326 2557.69c-11.268 3.283-23.224 4.768-35.11 6.157q-23.69 2.768-47.169 7.567c-14.446 2.953-28.312 9.64-42.842 11.673-10.156 1.342-20.803.206-29.734-5.242-21.182-12.92-30.736-46.996-28.852-72.713 1.143-15.6 7.264-31.16 18.126-41.049 10.916-9.94 25.449-13.347 39.395-13.571s27.773 2.396 41.7 3.026c20.55.93 40.758-4.072 61.107-3.55l1.843.046c19.67.48 36.172 6.115 52.883 17.592 5.849 4.017 11.414 8.946 14.891 15.597 7.422 14.193 3.46 33.284-5.678 46.393-10.928 15.677-25.097 23.568-40.56 28.074Z" class="color144651 svgShape"></path><path fill="#070f2b" d="M2293.122 2535.792a95.543 95.543 0 0 1-14.399 29.227c-8.625 11.9-21.347 16.086-35.518 18.068-10.156 1.342-20.803.206-29.734-5.242-21.182-12.92-30.735-46.996-28.852-72.713 1.143-15.6 7.264-31.16 18.126-41.05 32.413-29.513 82.362-6.377 91.793 33.038a75.635 75.635 0 0 1-1.416 38.672Z" opacity=".36" class="color07242b svgShape"></path><path fill="none" stroke="#000000" stroke-miterlimit="10" stroke-width="3" d="M2741.089 1945.84a101.663 101.663 0 0 1-14.73 15.145M2743.593 2003.957c-.24 12.78 8.475 26.975 15.809 36.162 3.528 4.42 6.164 9.475 8.777 14.495l10.746 20.643c.161.31.44.673.772.569s-.117-.732-.199-.392" class="colorStroke000000 svgStroke"></path><path fill="#0a143a" d="M2556.65 2523.813c-33.914 11.23-67.258 24.443-101.581 33.393-18.576 4.844-33.698 6.514-51.753 15.522-16.563 8.263-38.754 21.521-56.132 9.066-20.874-14.963-26.206-68.75-29.46-93.43-6.813-51.692 25.206-53.822 62.273-68.134l133.488-51.543c80.997-31.275 162.075-62.584 240.96-100.264 67.334-32.162 136.846-63.021 209.174-76.312 34.382-6.318 74.715-10.81 107.062 6.406 48.783 25.964 51.781 102.399 17.581 142.777-39.405 46.524-96.525 67.81-149.282 86.893-37.359 13.514-74.761 27.042-112.88 37.37-72.62 19.675-147.213 27.57-220.394 44.223-16.594 3.777-32.89 8.68-49.057 14.033Z" class="color0a303a svgShape"></path><path fill="#070f2b" d="M2528.638 2460.5a833.381 833.381 0 0 1-85.718 26.25c-28.712 6.964-58.037 10.765-87.039 15.486-19.862 3.233-35.196 1.093-39-22.107-6.573-40.077 35.01-49.047 63.116-59.9l133.488-51.542c80.997-31.275 162.075-62.584 240.96-100.264 67.334-32.162 136.845-63.021 209.173-76.312 21.9-4.024 94.961-9.334 106.687 16.255 15.185 33.137-133.533 86.621-157.075 96.261l-288.85 118.275c-31.688 12.976-63.48 25.985-95.742 37.598Z" class="color07242b svgShape"></path><path fill="#94c9ff" d="M2873.431 2118.6c-6.825-1.633-13.592-3.508-19.368-7.145a111.313 111.313 0 0 0-49.307-16.613c-6.537-.577-13.432-.501-19.25 2.535-4.6 2.4-8.113 6.443-11.202 10.614a107.274 107.274 0 0 0-18.1 38.919c-.707 2.974-1.268 6.192-.086 9.01 1.603 3.823 5.834 5.704 9.688 7.23 11.344 4.49 22.81 9.015 34.875 10.831 18.615 2.803 29.19-7.833 46.941-8.246q18.538-.43 37.082.001c8.77.204 19.208-.283 23.862-7.718 2.66-4.249 2.531-9.726 1.183-14.553-5.229-18.715-20.918-21.177-36.318-24.864Z" class="colorffc894 svgShape"></path><path fill="#0575e6" d="M3065.749 2148.505c-36.733 7.677-72.167 18.863-109.413 24.78-31.733 5.042-83.013 19.234-110.155-5.146-13.35-11.991-19.435-31.876-26.8-47.808-9.873-21.356-18.447-43.381-26.86-65.348-16.66-43.495-31.825-87.56-49.097-130.819-18.469-46.259-35.124-94.205-58.13-138.427-26.678-51.28-79.417-78.362-136.952-75.488-52.583 2.627-99.592 66.003-87.552 117.257 3.59 15.283 11.7 29.065 19.862 42.475 71.476 117.423 156.615 228.07 263.23 314.847 19.193 15.623 39.946 30.861 64.206 35.753 13.957 2.815 28.368 2.037 42.56.888a844.135 844.135 0 0 0 200.783-41.257c7.42-2.496 15.263-5.422 19.903-11.728s1.547-16.749-5.585-19.98Z" class="color798189 svgShape"></path><path fill="#686b75" d="M3066.45 2151.536c11.541 6.896 15.521 17.623 10.7 30.574-4.127 11.088-12.985 21.06-22.447 27.914-13.724 9.943-30.216 15.455-46.424 19.75a603.853 603.853 0 0 1-60.397 12.668c-40.335 6.375-81.212 8.91-122.024 8.706-103.434-.517-205.919-18.198-307.07-38.452q-84.477-16.916-167.402-40.688c-43.815-12.57-87.801-22.234-121.592-55.472-41.404-40.728-61.278-96.492-77.694-150.976-16.938-56.214-36.134-111.795-47.58-169.424-4.172-21.004-7.516-43.986 2.54-62.872 16.86-31.666 60.075-34.731 95.815-33.705l309.25 8.88c29.493.846 60.394 2.079 85.885 17 25.558 14.96 41.918 41.519 56.002 67.646 34.626 64.231 61.783 132.14 87.594 200.319 15.425 40.743 29.347 82.095 46.456 122.178 11.597 27.168 25.54 74.61 56.016 85.844 13.002 4.793 27.226 4.79 41.06 4.098 55.922-2.799 110.604-15.28 163.199-33.953 6.536-2.32 26.859-9.21 19.08-18.606-6.813-8.229-26.869-9.081-36.39-9.924-27.278-2.414-54.567-4.83-81.873-6.962" class="color686e75 svgShape"></path><path fill="#5d5f66" d="M3066.45 2151.536c11.541 6.896 15.521 17.623 10.7 30.574-4.127 11.088-12.985 21.06-22.447 27.914-13.724 9.943-30.216 15.455-46.424 19.75a603.853 603.853 0 0 1-60.397 12.668c-40.335 6.375-81.212 8.91-122.024 8.706-100.243-.501-199.533-17.099-297.597-36.564-40.775-8.094-58.481-23.67-73.805-63.996-13.629-35.868-14.709-75.634-15.19-113.536-.77-60.72-1.109-121.941 8.409-182.088 4.826-30.5 24.823-147.663 64.45-146.526 29.493.847 60.394 2.08 85.885 17 25.558 14.96 41.918 41.52 56.003 67.647 34.625 64.231 61.782 132.14 87.593 200.319 15.425 40.743 29.347 82.095 46.456 122.178 11.597 27.168 25.54 74.61 56.016 85.844 13.002 4.793 27.226 4.79 41.06 4.098 55.922-2.799 110.604-15.28 163.199-33.953 6.536-2.32 26.859-9.21 19.08-18.606-6.813-8.229-26.869-9.081-36.39-9.924-27.278-2.414-54.567-4.83-81.873-6.962" class="color5d6266 svgShape"></path><path fill="none" stroke="#ffffff" stroke-miterlimit="10" stroke-width="3" d="M2878.09 2205.13c-170.406 9.945-336.116-24.849-500.741-64.334-62.56-15.006-121.663-31.914-178.615-63.001M2471.215 1729.187c31.267 0 66.222 1.9 93.778 18.269 37.348 22.187 60.879 66.878 74.819 106.727M2222.164 1720.964c-13.167-.063-26.321.086-39.392.76-15.107.78-32.78 1.547-44.528 12.418-12.786 11.832-13.757 31.885-10.212 48.98 3.878 18.694 8.283 37.205 12.07 55.884M2700.115 2047.932a423.914 423.914 0 0 1 34.361 75.608c1.93 5.684 3.727 11.975 1.517 17.559-7.703 19.45-35.611 16.705-51.922 14.314l-124.271-18.224" class="colorStrokeffffff svgStroke"></path><path fill="#1c38a3" d="M2891.136 2153.605c11.857 5.95 24.84 16.492 38.857 11.536 38.765-13.714 81.197-63.705 111.626-90.957 63.629-56.985 136.145-134.81 127.115-227.209-7.405-75.78-55.697-143.55-101.82-201.284-35.287-44.17-94.314-129.705-158.016-129.196-46.62.373-77.846 43.576-69.671 88.834 5.469 30.279 23.557 56.563 41.554 81.52q54.979 76.24 114.468 149.107c14.39 17.627 24.562 35.245 15.81 58.236-4.408 11.582-11.933 21.669-19.363 31.587l-122.904 164.063c-7.189 9.596-14.779 21.254-11.194 32.695 1.889 6.03 6.607 10.693 11.295 14.928 6.8 6.143 14.111 12.059 22.243 16.14Z" class="colora32c1c svgShape"></path><path fill="#19328e" d="M2891.95 2148.972c26.201 3.052 50.242-26.134 73.238-46.512a625.557 625.557 0 0 0 90.065-98.89c14.167-19.38 27.338-39.823 35.29-62.473 15.07-42.931 10.145-90.855-4.74-133.851s-39.134-82.03-63.185-120.653l-52.918-84.983c-17.514-28.127-46.216-71.665-83.99-72.33-37.01-.65-52.4 43.292-46.483 76.05 5.47 30.28 23.557 56.563 41.554 81.52q54.979 76.239 114.468 149.106c14.39 17.627 24.562 35.245 15.81 58.236-4.408 11.582-11.933 21.669-19.363 31.587l-122.904 164.063c-7.189 9.596-14.779 21.254-11.194 32.695 1.889 6.03 6.607 10.693 11.295 14.928 7.88 7.119 15.557 10.633 23.057 11.507Z" class="color8e2419 svgShape"></path><path fill="#3556d3" d="M3076.18 1766.707c-10.388 7.58-15.149 21.139-14.964 36.972.15 12.931 2.95 25.686 3.824 38.588.944 13.934-.364 27.948.6 41.88.966 13.933 4.516 28.293 13.718 38.798 18.23 20.81 44.02 12.086 58.5-7.615 9.458-12.868 14.299-28.672 16.16-44.533 4.419-37.661-4.855-108.853-54.018-110.523-9.912-.337-17.808 2.047-23.82 6.433Z" class="colord35335 svgShape"></path><path fill="#4c4f59" d="M2318.439 1944.506c5.34 23.447 43.667 51.82 61.857 23.54 13.625-21.184-11.894-54.992-34.691-54.995-23.756-.002-30.801 15.491-27.166 31.455Z" class="color4c5359 svgShape"></path><path fill="#67b0f9" d="M2592.738 1355.82c-1.437 3.804-2.468 7.787 1.54 10.262 4.135 2.554 11.28 2.313 11.783-3.511.469-5.417 1.028-17.87-2.938-22.33-2.896-3.259-3.985 1.325-5.307 4-1.812 3.668-3.498 7.45-4.962 11.273l-.116.306Z" class="colorf9a267 svgShape"></path></svg>