<svg xmlns="http://www.w3.org/2000/svg" data-name="Layer 1" viewBox="0 0 1000 700" id="BusinessLawyer"><path fill="#e1f0ff" d="m177.613 143.105 45.536 475.111c2.041 21.298 18.97 37.502 39.179 37.502h477.308c19.224 0 35.638-14.703 38.833-34.783l68.878-432.964c3.872-24.34-12.942-46.898-36.19-48.553L219.433 97.27c-24.33-1.733-44.283 20.136-41.82 45.835Z" class="colorfff2e1 svgShape"></path><path fill="#2d59ff" d="m750.735 146.514-267.773-.102a26.557 26.557 0 0 0-26.558 26.557v72.466a26 26 0 0 0 26 26h46.745l18.951 40.15 18.95-40.15h183.675a26 26 0 0 0 26-26v-72.92a26 26 0 0 0-25.99-26Z" class="colorffcf2d svgShape"></path><path fill="#24305b" d="m485.067 414.258-33.583 237.748c-.277 1.962 1.607 3.682 4.032 3.682h.326c2.064 0 3.8-1.261 4.033-2.93l33.257-237.749c.274-1.96-1.609-3.678-4.032-3.678-2.063 0-3.797 1.259-4.033 2.927Z" class="color5b2448 svgShape"></path><path fill="#24305b" d="m485.067 414.258-33.583 237.748c-.277 1.962 1.607 3.682 4.032 3.682h.326c2.064 0 3.8-1.261 4.033-2.93l33.257-237.749c.274-1.96-1.609-3.678-4.032-3.678-2.063 0-3.797 1.259-4.033 2.927Z" class="color5b2448 svgShape"></path><path fill="#355ef9" d="M486.58 433.549c-3.314-.23-5.771-2.604-5.489-5.301l1.362-13.002c.282-2.698 3.198-4.699 6.511-4.469 3.314.23 5.771 2.604 5.49 5.301l-1.362 13.002c-.283 2.698-3.198 4.699-6.512 4.469Z" class="colorf9b435 svgShape"></path><path fill="#24305b" d="m593.549 414.186-33.584 237.748c-.277 1.961 1.607 3.682 4.032 3.682h.326c2.064 0 3.8-1.261 4.033-2.93l33.257-237.749c.274-1.96-1.609-3.678-4.032-3.678-2.063 0-3.797 1.259-4.032 2.927Z" class="color5b2448 svgShape"></path><path fill="#355ef9" d="M595.15 433.549c-3.314-.23-5.771-2.604-5.489-5.301l1.362-13.002c.282-2.698 3.198-4.699 6.511-4.469 3.314.23 5.771 2.604 5.489 5.301l-1.361 13.002c-.283 2.698-3.198 4.699-6.512 4.469Z" class="colorf9b435 svgShape"></path><path fill="#24305b" d="m776.7 414.186 33.584 237.748c.277 1.961-1.607 3.682-4.032 3.682h-.327c-2.064 0-3.799-1.261-4.032-2.93l-33.258-237.749c-.274-1.96 1.609-3.678 4.032-3.678 2.063 0 3.797 1.259 4.033 2.927Z" class="color5b2448 svgShape"></path><path fill="#355ef9" d="M775.187 433.549c3.313-.23 5.77-2.604 5.488-5.301l-1.361-13.002c-.283-2.698-3.198-4.699-6.512-4.469-3.314.23-5.77 2.604-5.488 5.301l1.361 13.002c.283 2.698 3.198 4.699 6.512 4.469Z" class="colorf9b435 svgShape"></path><path fill="#24305b" d="m699.303 414.192 33.584 237.748c.277 1.962-1.607 3.682-4.032 3.682h-.327c-2.064 0-3.799-1.261-4.033-2.93l-33.257-237.749c-.274-1.96 1.61-3.678 4.033-3.678 2.062 0 3.796 1.259 4.032 2.927Z" class="color5b2448 svgShape"></path><path fill="#355ef9" d="M697.79 433.549c3.314-.23 5.771-2.604 5.489-5.301l-1.362-13.002c-.282-2.698-3.198-4.699-6.511-4.469-3.314.23-5.771 2.604-5.49 5.301l1.362 13.002c.283 2.698 3.198 4.699 6.512 4.469Z" class="colorf9b435 svgShape"></path><rect width="371.226" height="7.503" x="437.326" y="407.58" fill="#2d59ff" rx="3.751" class="colorffcf2d svgShape"></rect><path fill="#3d59c1" d="M472.088 395.2h66.507a5.186 5.186 0 0 1 5.186 5.186v2.008a5.186 5.186 0 0 1-5.186 5.186h-66.507V395.2Z" transform="rotate(-180 507.934 401.39)" class="color7ec13d svgShape"></path><path fill="#293d89" d="M519.019 407.58h85.392a6.232 6.232 0 0 0 5.68-4.338l22.239-59.93c1.757-4.735-1.236-10.01-5.68-10.01h-76a6.232 6.232 0 0 0-5.68 4.337Z" class="color5d8929 svgShape"></path><path fill="#3d59c1" d="M524.686 407.58h85.393a6.232 6.232 0 0 0 5.68-4.338l22.238-59.93c1.757-4.735-1.237-10.01-5.68-10.01h-75.999a6.232 6.232 0 0 0-5.68 4.337Z" class="color7ec13d svgShape"></path><path fill="#f0f6fc" d="M579.517 369.199c1.305-4.703 5.649-8.514 9.702-8.514a5.504 5.504 0 0 1 2.184.43 12.229 12.229 0 0 0-7.28 8.084c-1.046 3.768.179 6.963 2.793 8.084a7.415 7.415 0 0 1-2.422.43c-4.053 0-6.282-3.813-4.977-8.514Z" class="colorfcfbf0 svgShape"></path><path fill="#92b7dc" d="M190.832 624.371s-40.014.261-40.165-12.5c-.088-7.474 77.538-6.155 78.182 0 1.033 9.869-38.017 12.5-38.017 12.5Z" class="color92b2dc svgShape"></path><path fill="#354da8" d="M192.628 625.226s-99.896-77.693-52.651-182.724c0 0 74.061 37.844 52.651 182.724Z" class="color70a835 svgShape"></path><path fill="#293d89" d="M174.707 577.566h-.017a1 1 0 0 1-.984-1.016c.27-16.725 3.162-23.294 3.285-23.565a1 1 0 0 1 1.823.823c-.034.076-2.847 6.566-3.108 22.775a1 1 0 0 1-1 .983Z" class="color5d8929 svgShape"></path><path fill="#3d59c1" d="M192.748 618.803s2.136-36.112-10.473-65.286 5.495-20.487 11.103-6.617c0 0-4.454-31.383-11.327-52.19s10.47-14.335 17.268 6.85a183.017 183.017 0 0 0-6.231-47.752c-6.96-26.32 13.982-14.453 18.737.712 0 0 2.316-23.599 13.553-20.126s3.182 27.924 3.182 27.924 14.452-11.474 26.328-6.71-17.947 23.85-24.527 32.798c0 0 22.714-10.373 30.641-3.999s-20.636 25.29-32.456 36.252c0 0 17.996-4.111 22.615-.397s-6.8 24.423-20.99 30.962-20.982 62.622-29.178 68.847-7.638 3.388-8.245-1.268Z" class="color7ec13d svgShape"></path><path fill="#354da8" d="M217.704 485.377a1 1 0 0 1-.128-1.991c1.599-.209 10.342-4.965 15.476-7.914a1 1 0 1 1 .996 1.735c-2.275 1.306-13.75 7.84-16.213 8.162a.98.98 0 0 1-.13.008Z" class="color70a835 svgShape"></path><path fill="#354da8" d="M198.886 600.67c-.034 0-.068-.002-.102-.005a1 1 0 0 1-.895-1.096c6.696-66.29 22.482-131.503 22.64-132.154a1 1 0 0 1 1.944.474c-.16.65-15.912 65.734-22.594 131.881a1 1 0 0 1-.993.9Z" class="color70a835 svgShape"></path><path fill="#354da8" d="M207.566 537.784a.996.996 0 0 1-.764-.354c-5-5.913-11.06-24.865-11.316-25.67a1 1 0 0 1 1.906-.605c.061.193 6.193 19.374 10.937 24.984a1 1 0 0 1-.763 1.645ZM200.75 584.018a.998.998 0 0 1-.802-.402c-2.495-3.34-6.453-18.235-6.62-18.867a1 1 0 0 1 1.933-.512c1.112 4.204 4.41 15.666 6.29 18.183a1 1 0 0 1-.8 1.598ZM204.539 558.068a1 1 0 0 1-.792-1.61c2.95-3.836 20.622-18.596 21.373-19.222a1 1 0 0 1 1.281 1.536c-.182.152-18.252 15.242-21.07 18.906a.998.998 0 0 1-.792.39ZM211.24 517.303a1 1 0 0 1-.128-1.992c2.343-.305 13.06-5.717 19.692-9.28a1 1 0 0 1 .946 1.762c-1.721.926-16.922 9.051-20.38 9.502a.98.98 0 0 1-.13.008ZM215.524 494.365a1 1 0 0 1-.893-.548c-2.238-4.424-7.47-27.602-7.692-28.586a1 1 0 1 1 1.951-.44c.054.239 5.399 23.918 7.526 28.122a1 1 0 0 1-.892 1.452Z" class="color70a835 svgShape"></path><path fill="#24305b" d="M150.667 611.87s-2.75 40.526 38.49 42.986 39.692-42.985 39.692-42.985a238.765 238.765 0 0 1-78.182 0Z" class="color5b2448 svgShape"></path><path fill="#293d89" d="M187.414 611.292a1.002 1.002 0 0 1-.924-.616c-26.051-62.538-43.995-149.81-44.173-150.684a1 1 0 1 1 1.96-.4c.178.873 18.084 87.958 44.06 150.315a1 1 0 0 1-.923 1.385Z" class="color5d8929 svgShape"></path><path fill="#293d89" d="M155.713 512.822a1.004 1.004 0 0 1-.307-.05 81.513 81.513 0 0 1-24.414-13.298 1 1 0 0 1 1.28-1.538 81.039 81.039 0 0 0 23.749 12.934 1 1 0 0 1-.308 1.952ZM150.61 491.332a1.001 1.001 0 0 1-.943-1.334c1.8-5.092 7.05-21.942 7.103-22.112a1 1 0 1 1 1.909.594c-.053.17-5.313 17.058-7.126 22.185a1.001 1.001 0 0 1-.943.667ZM159.113 525.968a1 1 0 0 1-.993-.897c-.41-3.956 6.822-24.92 7.648-27.298a1 1 0 1 1 1.89.657c-3.186 9.168-7.825 23.774-7.549 26.435a1 1 0 0 1-.891 1.098.941.941 0 0 1-.105.005ZM169.454 563.752a.997.997 0 0 1-.63-.224c-1.804-1.464-11.446-6.688-16.292-9.246a1 1 0 1 1 .934-1.769c.579.306 14.213 7.51 16.618 9.463a1 1 0 0 1-.63 1.776Z" class="color5d8929 svgShape"></path><path fill="#24305b" d="M277.624 404.964s-11.023.9-11.961 12.219 62.568 10.193 62.568 10.193-5.794-28.75-50.607-22.412ZM422.932 585.648s-10.412 7.435-9.337 13.551 46.708 22.78 71.28-16.078c0 0-43.702-11.913-61.943 2.527Z" class="color5b2448 svgShape"></path><path fill="#a2cbf4" d="m460.948 570.004 23.927 13.117 8.664 47.311s-18.502 13.24-28.687 10.015l-14.258-57.882Z" class="colorf4ada2 svgShape"></path><path fill="#3d519c" d="m451.407 585.867 4.007 16.264a42.121 42.121 0 0 0 29.46-19.01s-22.037-2.119-33.467 2.746Z" class="color9c3d82 svgShape"></path><path fill="#24305b" d="M454.992 622.652s-.388 14.44-1.68 20.056-.906 9.787 10.604 9.787h72.812c1.81 0-2.587-15.563-12.804-22.142s-20.822-9.145-27.547-12.996-4.526 14.761-18.364 14.761-15.002-13.317-23.02-9.466Z" class="color5b2448 svgShape"></path><path fill="#6aacef" d="m406.528 397.795 25.711 30.424s42.58 96.07 52.636 154.902c0 0-19.138 16.214-38.753 9.913a34.51 34.51 0 0 0-32.527 6.165s-35.996-120.015-83.74-181.974c0 0-10.44-84.197 76.673-19.43Z" class="color6a74ef svgShape"></path><path fill="#0575e6" d="m432.24 428.219-25.712-30.424c-87.113-64.767-76.673 19.43-76.673 19.43a269.169 269.169 0 0 1 16.27 23.91c29.132 4.035 67.4 2.862 87.653-9.392-.986-2.277-1.539-3.524-1.539-3.524Z" class="color5263dd svgShape"></path><path fill="#24305b" d="M264.563 584.95s-12.996 1.387-16.304 5.084 21.463 28.746 63.871 14.781c0 0-19.444-27.769-47.567-19.865Z" class="color5b2448 svgShape"></path><path fill="#a2cbf4" d="m309.027 594.838 3.103 9.977-13.118 31.049-26.65-6.738 12.731-40.738 23.934 6.45z" class="colorf4ada2 svgShape"></path><path fill="#3d519c" d="m285.093 588.388-4.425 14.16c6.123 3.884 16.429 7.263 31.462 2.267l-3.103-9.977Z" class="color9c3d82 svgShape"></path><path fill="#6aacef" d="M280.531 406.582s-.908 135.814-32.272 183.451c0 0 20.115-7.901 32.931.456 11.207 7.308 12.538 17.667 30.94 14.326 0 0 57.385-101.723 55.652-190.369 0 0 9.529-51.189-30.212-38.109s-54.988 9.957-57.039 30.245Z" class="color6a74ef svgShape"></path><path fill="#0575e6" d="M337.57 376.337c-39.741 13.08-54.988 9.957-57.038 30.245 0 0-.521 6.969-.477 18.038a60.48 60.48 0 0 1 33.28 7.674c9.818 5.42 30.697 9.67 53.134 10.69a229.872 229.872 0 0 0 1.314-28.538s9.528-51.189-30.213-38.109Z" class="color5263dd svgShape"></path><path fill="#8dc6ff" d="M365.077 454.57a.497.497 0 0 1-.102-.01c-.16-.033-3.925-.88-5.75-6.778-1.771-5.718 1.385-32.678 1.52-33.823a.5.5 0 0 1 .993.117c-.033.278-3.267 27.893-1.559 33.41 1.64 5.297 4.865 6.065 5.002 6.095a.5.5 0 0 1-.104.989Z" class="color8d9bff svgShape"></path><path fill="#8dc6ff" d="M355.688 414.518a.5.5 0 0 1-.025-1l11.619-.578a.5.5 0 1 1 .05.999l-11.619.578ZM358.805 404.093a.5.5 0 0 1-.035-.999l5.727-.41a.5.5 0 1 1 .07.997l-5.726.41ZM316.08 597.933a.5.5 0 0 1-.434-.747c.534-.941 53.347-95.24 51.636-182.73a.5.5 0 0 1 .49-.51.475.475 0 0 1 .51.49c1.716 87.768-51.23 182.299-51.766 183.243a.5.5 0 0 1-.435.254Z" class="color8d9bff svgShape"></path><path fill="#6aacef" d="M405.846 319.734s-52.056-78.505-33.898-82.233 71.985 63.715 82.867 94.411-37.698 68.978-37.698 68.978Z" class="color6a74ef svgShape"></path><path fill="#a2cbf4" d="M336.44 229.885s10.552-10.973 12.975-19.93l14.27 5.518s-1.628 19.63 5.166 33.417a37.45 37.45 0 0 1-32.411-19.005Z" class="colorf4ada2 svgShape"></path><path fill="#3d519c" d="M352.238 215.18a47.733 47.733 0 0 1 10.579-.043l.868.336s-.232 2.805-.154 7.037c-3.065-.617-8.516-2.384-11.293-7.33Z" class="color9c3d82 svgShape"></path><path fill="#24305b" d="M385.222 166.022c3.544 7.507-4.752 14.335-4.752 14.335s6.107 12.178-10.238 14.637-23.617 9.052-23.617 9.052-14.252 7.667-5.31-16.222c0 0-14.725-6.452-8.732-18.277s15.802-1.222 15.802-1.222-1.131-6.987 2.565-7.263 4.507 4.9 4.507 4.9 23.809-12.575 29.775.06Z" class="color5b2448 svgShape"></path><path fill="#24305b" d="M340.097 191.313c1.49-1.985 5.81.296 8.017-1.332 5.487-4.05 10.021-10.974 14.158-11.904 7.605-1.709 18.137 2.295 18.137 2.295l.08.025c.36.754 5.55 12.22-10.257 14.597-16.345 2.458-23.617 9.051-23.617 9.051s-12.781 6.865-6.518-12.732Z" class="color5b2448 svgShape"></path><path fill="#a2cbf4" d="M378.454 195.89c-1.733-1.712-2.4-5.859-2.642-8.14 4.028-10.71-3.756-14.542-13.597-13.222-10.369 1.392-14.888 14.52-14.888 14.52s-4.05-7.173-8.116-2.112.772 17.507 7.472 12.211c0 0-5.967 18.31 15.215 18.883 20.878.563 15.793-8.354 13.25-17.74 2.407.076 5.506-2.228 3.306-4.4Z" class="colorf4ada2 svgShape"></path><path fill="#3d519c" d="M368.588 210.947c-.197 0-.403-.01-.618-.03a3.405 3.405 0 0 1-2.56-1.299 4.286 4.286 0 0 1-.587-3.12.5.5 0 0 1 .979.204 3.311 3.311 0 0 0 .416 2.328 2.463 2.463 0 0 0 1.846.892c2.97.279 3.695-1.868 3.725-1.959a.5.5 0 0 1 .955.296 4.206 4.206 0 0 1-4.156 2.688Z" class="color9c3d82 svgShape"></path><circle cx="356.651" cy="201.888" r="3.707" fill="#8ebeef" class="coloref978e svgShape"></circle><path fill="#24305b" d="M380.41 180.373s-3.554 1.84-10.89-2.122c0 0-.307 6.128-7.259 6.522s-7.576-2.697-7.576-2.697-3.132 9.903-6.052 9.56-.881-10.372-.881-10.372 2.327-13.507 17.59-11.72 15.067 10.828 15.067 10.828Z" class="color5b2448 svgShape"></path><path fill="#f0f6fc" d="m332.169 247.78 3.847-17.087 15.801 6.832 12.201-6.832 6.174 15.843-7.922 110.22-30.101-108.976z" class="colorfcfbf0 svgShape"></path><path fill="#466cf9" d="m345.409 243.084 6.478-5.234 6.694 4.534-2.987 8.961h-6.338l-3.847-8.261z" class="colorf94f46 svgShape"></path><path fill="#466cf9" d="M355.594 251.345h-6.338l-2.206 55.846 16.968 45.661 6.174-47.019-14.598-54.488z" class="colorf94f46 svgShape"></path><path fill="#d9e1e9" d="M335.253 251.845a.5.5 0 0 1-.315-.888l16.635-13.495a.5.5 0 0 1 .602-.02l16.804 11.796a.5.5 0 1 1-.574.819l-16.495-11.58-16.343 13.256a.498.498 0 0 1-.314.112Z" class="colore9e6d9 svgShape"></path><path fill="#6aacef" d="M364.019 230.693s74.523 48.32 69.77 201.09c-11.728 6.003-25.747 4.352-40.381 1.946a35.298 35.298 0 0 1-29.532-32.412l-3.077-45.24Z" class="color6a74ef svgShape"></path><path fill="#8dc6ff" d="M363.877 401.818a.5.5 0 0 1-.5-.466l-3.077-45.24.832-32.473a.511.511 0 0 1 .513-.488.5.5 0 0 1 .487.513l-.833 32.426 3.077 45.194a.5.5 0 0 1-.465.533ZM433.904 427.905h-.01a.5.5 0 0 1-.49-.511c2.342-108.894-35.281-163.374-57.916-186.157a.5.5 0 0 1 .709-.705c10.477 10.546 25.53 29.427 37.741 59.493 14.624 36.004 21.51 78.864 20.466 127.39a.5.5 0 0 1-.5.49Z" class="color8d9bff svgShape"></path><path fill="#6aacef" d="m362.29 349.762-26.366-118.978c-2.695 2.655-70.261 70.398-70.261 186.399 0 0 17.697-12.57 54.666 7.332q.342.184.69.364a26.2 26.2 0 0 0 37.932-19.49l4.294-29.241a72.964 72.964 0 0 0-.955-26.386Z" class="color6a74ef svgShape"></path><path fill="#8dc6ff" d="M360.201 397.378a.46.46 0 0 1-.073-.005.5.5 0 0 1-.422-.567l3.044-20.731a72.19 72.19 0 0 0-.948-26.204l-13.423-60.572a.5.5 0 0 1 .976-.217l13.423 60.572a73.194 73.194 0 0 1 .961 26.566l-3.044 20.731a.5.5 0 0 1-.494.427ZM265.707 412.578h-.01a.5.5 0 0 1-.49-.51 283.313 283.313 0 0 1 26.876-116.47c13.954-29.68 29.768-49.826 37.953-59.194a.5.5 0 0 1 .753.659c-14.736 16.864-62.94 79.326-64.583 175.023a.5.5 0 0 1-.5.492Z" class="color8d9bff svgShape"></path><path fill="#8dc6ff" d="M359.61 339.942a.498.498 0 0 1-.374-.17l-29.605-33.594a9.104 9.104 0 0 1-.71-11.118l3.21-4.745a8.093 8.093 0 0 0-.279-9.467l-9.298-12.138a9.054 9.054 0 0 1-.959-9.517l11.345-23.32a.5.5 0 1 1 .9.437l-11.346 23.32a8.06 8.06 0 0 0 .854 8.472l9.297 12.138a9.092 9.092 0 0 1 .313 10.636l-3.21 4.745a8.104 8.104 0 0 0 .633 9.897l29.604 33.594a.5.5 0 0 1-.375.83ZM361.201 340.897a.5.5 0 0 1-.455-.704l17.168-38.321a8.084 8.084 0 0 0-1.01-8.302l-4.613-5.9a9.121 9.121 0 0 1-.513-10.485l7.464-11.754a8.054 8.054 0 0 0 .086-8.547l-14.316-23.59a.5.5 0 1 1 .855-.518l14.316 23.59a9.046 9.046 0 0 1-.098 9.601l-7.462 11.754a8.118 8.118 0 0 0 .457 9.333l4.611 5.9a9.081 9.081 0 0 1 1.135 9.327l-17.168 38.321a.5.5 0 0 1-.457.296Z" class="color8d9bff svgShape"></path><rect width="50.536" height="87.071" x="293.658" y="285.127" fill="#f0f6fc" rx="5.391" transform="rotate(30 318.926 328.662)" class="colorfcfbf0 svgShape"></rect><path fill="#a2cbf4" d="m311.096 316.179 4.648-3.786s20.253-5.647 30.723 5.271-3.682 3.879-3.682 3.879 8.212 7.475 6.733 14.495-5.205 3.45-5.205 3.45-1.034 3.283-2.64 2.945c0 0-2.783 8.364-11.564 2.456a36.482 36.482 0 0 0-17.687-6.113Z" class="colorf4ada2 svgShape"></path><path fill="#f0f6fc" d="m305.389 312.607 10.271-.38-.692 28.535-8.982 1.461-.597-29.616z" class="colorfcfbf0 svgShape"></path><path fill="#6aacef" d="m308.623 312.525.308 33.172s-99.624 39.611-109.476-16.815c-9.85-56.434 111.179-97.44 129.79-96.81 16.084.543-2.68 54.132-46.96 81.864 9.738-.643 19.675-1.219 26.338-1.41Z" class="color6a74ef svgShape"></path><path fill="#8dc6ff" d="M283.057 314.436a.5.5 0 0 1-.267-.924c35.482-22.222 52.223-59.332 51.626-73.863a.5.5 0 0 1 .48-.52.486.486 0 0 1 .52.48c.704 17.148-18.773 53.882-52.094 74.75a.497.497 0 0 1-.265.077Z" class="color8d9bff svgShape"></path><path fill="#8dc6ff" d="m251.333 316.702-.068-.998s33.907-2.316 49.663-3.368a.512.512 0 0 1 .532.466.5.5 0 0 1-.465.532 46471.952 46471.952 0 0 0-49.662 3.368Z" class="color8d9bff svgShape"></path><path fill="#8dc6ff" d="M281.529 314.436a.5.5 0 0 1-.426-.237c-5.833-9.424-17.537-11.587-17.654-11.608a.5.5 0 0 1 .173-.985c.122.021 12.258 2.254 18.332 12.067a.5.5 0 0 1-.425.763Z" class="color8d9bff svgShape"></path><circle cx="357.107" cy="365.032" r="3.692" fill="#021b79" class="color49529a svgShape"></circle><path fill="#24305b" d="M268.274 622.652s-.388 14.44-1.682 20.056-.905 9.787 10.605 9.787h72.812c1.81 0-2.587-15.563-12.803-22.142s-20.822-9.145-27.547-12.996-4.527 14.761-18.365 14.761-15.002-13.317-23.02-9.466Z" class="color5b2448 svgShape"></path><path fill="#8dc6ff" d="M288.148 439.122a.5.5 0 0 1-.118-.986c.16-.04 16.13-3.976 25.272-11.123a.5.5 0 1 1 .617.788c-9.314 7.281-25.49 11.267-25.652 11.306a.497.497 0 0 1-.12.015Z" class="color8d9bff svgShape"></path><path fill="#24305b" d="M672.808 384.683h78.132a7.085 7.085 0 0 1 7.085 7.085v15.812h-92.303v-15.811a7.085 7.085 0 0 1 7.086-7.086Z" class="color5b2448 svgShape"></path><rect width="76.298" height="8.082" x="673.725" y="372.363" fill="#24305b" rx="2.601" class="color5b2448 svgShape"></rect><path fill="#010f42" d="M683.042 380.445h57.663v4.238h-57.663z" class="color420132 svgShape"></path><path fill="#24305b" d="M756.193 325.911h4.923v66.934h-4.923z" transform="rotate(-61.983 758.654 359.378)" class="color5b2448 svgShape"></path><rect width="11.173" height="29.803" x="704.456" y="346.575" fill="#466cf9" rx="2.994" transform="rotate(-61.983 710.042 361.476)" class="colorf94f46 svgShape"></rect><rect width="11.173" height="29.803" x="727.648" y="302.987" fill="#466cf9" rx="2.994" transform="rotate(-61.983 733.234 317.889)" class="colorf94f46 svgShape"></rect><path fill="#2b4bc1" d="m723.178 362.138-9.764-5.196a2.994 2.994 0 0 1 1.237 4.05l-2.436 4.577a2.994 2.994 0 0 1-4.05 1.237L717.93 372a2.994 2.994 0 0 0 4.05-1.236l2.435-4.578a2.994 2.994 0 0 0-1.237-4.05Z" class="colorc12f2b svgShape"></path><path fill="#506acc" d="m720.098 317.227.932.496-.932-.496z" class="colorcc505a svgShape"></path><path fill="#2b4bc1" d="m746.37 318.55-9.764-5.195a2.994 2.994 0 0 1 1.237 4.049l-2.436 4.577a2.994 2.994 0 0 1-4.05 1.237l9.765 5.196a2.994 2.994 0 0 0 4.05-1.237l2.436-4.577a2.994 2.994 0 0 0-1.237-4.05Z" class="colorc12f2b svgShape"></path><path fill="#24305b" d="M702.538 328.234h38.201v22.897h-38.201z" transform="rotate(-61.983 721.638 339.682)" class="color5b2448 svgShape"></path><rect width="10.538" height="5.848" x="781.182" y="371.244" fill="#466cf9" rx="1.527" transform="rotate(-61.983 786.45 374.168)" class="colorf94f46 svgShape"></rect><rect width="29.604" height="29.803" x="706.836" y="324.781" fill="#466cf9" rx="2.994" transform="rotate(-61.983 721.638 339.682)" class="colorf94f46 svgShape"></rect><path fill="#2b4bc1" d="m739.103 332.208-9.764-5.196a2.994 2.994 0 0 1 1.236 4.05l-11.093 20.849a2.994 2.994 0 0 1-4.05 1.237l9.765 5.195a2.994 2.994 0 0 0 4.05-1.237l11.093-20.849a2.994 2.994 0 0 0-1.237-4.049Z" class="colorc12f2b svgShape"></path><path fill="#354da8" d="M615.48 561.861h223.96a45.213 45.213 0 0 1 45.212 45.213 45.213 45.213 0 0 1-45.213 45.213H615.48V561.86Z" class="color70a835 svgShape"></path><path fill="#ffffff" d="M566.12 647.654v-81.16H773.4a40.58 40.58 0 0 1 0 81.16Z" class="colorffffff svgShape"></path><path fill="#f0f3f7" d="M767.375 584.018a40.626 40.626 0 0 1 40.58 40.58c0 1.362-.07 2.708-.201 4.036a40.55 40.55 0 0 0-34.355-62.14H566.12v17.524Z" class="colorf0f7f7 svgShape"></path><path fill="#3d59c1" d="M773.4 561.861H555.616a6.177 6.177 0 0 0-6.177 6.177 6.177 6.177 0 0 0 6.177 6.177h217.2c18.386 0 33.751 15.046 33.436 33.43a32.897 32.897 0 0 1-32.853 32.288H555.617a6.177 6.177 0 0 0-6.177 6.177 6.177 6.177 0 0 0 6.177 6.177h217.782a45.213 45.213 0 0 0 45.213-45.213 45.213 45.213 0 0 0-45.213-45.213Z" class="color7ec13d svgShape"></path><path fill="#2b4bc1" d="M615.48 471.435h223.96a45.213 45.213 0 0 1 45.212 45.213 45.213 45.213 0 0 1-45.213 45.213H615.48v-90.426Z" class="colorc12f2b svgShape"></path><path fill="#ffffff" d="M566.12 557.228v-81.16H773.4a40.58 40.58 0 1 1 0 81.16Z" class="colorffffff svgShape"></path><path fill="#f0f3f7" d="M767.375 493.592a40.626 40.626 0 0 1 40.58 40.58c0 1.362-.07 2.708-.201 4.036a40.55 40.55 0 0 0-34.355-62.14H566.12v17.524Z" class="colorf0f7f7 svgShape"></path><path fill="#466cf9" d="M773.4 471.435H555.616a6.177 6.177 0 0 0-6.177 6.177 6.177 6.177 0 0 0 6.177 6.177h217.2c18.386 0 33.751 15.047 33.436 33.43a32.897 32.897 0 0 1-32.853 32.288H555.617a6.177 6.177 0 0 0-6.177 6.177 6.177 6.177 0 0 0 6.177 6.177h217.782a45.213 45.213 0 0 0 45.213-45.213 45.213 45.213 0 0 0-45.213-45.213Z" class="colorf94f46 svgShape"></path><path fill="#466cf9" d="m620.422 547.028-11.864-9.167-11.865 9.167v-29.299h23.729v29.299z" class="colorf94f46 svgShape"></path><path fill="#3d59c1" d="m646.41 634.46-11.864-9.167-11.864 9.167v-29.298h23.728v29.298z" class="color7ec13d svgShape"></path><path fill="#bcbec0" d="M630.588 518.23h-46.044a.5.5 0 0 1 0-1h46.044a.5.5 0 0 1 0 1ZM656.867 605.662h-46.045a.5.5 0 0 1 0-1h46.045a.5.5 0 0 1 0 1Z" class="colorbcbec0 svgShape"></path><path fill="#f0f6fc" d="M241.724 151.272a25.294 25.294 0 0 1 25.293 25.293v25.294H216.43v-25.294a25.294 25.294 0 0 1 25.294-25.293Z" transform="rotate(-20.996 241.724 176.566)" class="colorfcfbf0 svgShape"></path><path fill="#2d59ff" d="M224.722 180.728h44.92v20.119h-44.92z" transform="rotate(-20.996 247.182 190.788)" class="colorffcf2d svgShape"></path><path fill="#f0f6fc" d="M225.377 108.68a25.294 25.294 0 0 1 25.294 25.293v25.294h-50.587v-25.294a25.294 25.294 0 0 1 25.293-25.294Z" transform="rotate(159.004 225.377 133.973)" class="colorfcfbf0 svgShape"></path><path fill="#2d59ff" d="M233.425 154.942a22.486 22.486 0 0 1-29.017-12.922l41.938-16.095a22.486 22.486 0 0 1-12.921 29.017Z" class="colorffcf2d svgShape"></path><rect width="58.759" height="4.966" x="222.297" y="200.015" fill="#24305b" rx="2.483" transform="rotate(-20.996 251.677 202.498)" class="color5b2448 svgShape"></rect><rect width="58.759" height="4.966" x="186.045" y="105.558" fill="#24305b" rx="2.483" transform="rotate(-20.996 215.425 108.04)" class="color5b2448 svgShape"></rect><path fill="#2d59ff" d="M237.017 151.841h3.264v33.425h-3.264z" transform="rotate(-20.997 238.649 168.56)" class="colorffcf2d svgShape"></path><rect width="8.557" height="103.2" x="684.356" y="133.579" fill="#ffffff" rx="4.279" transform="rotate(90 688.634 185.18)" class="colorffffff svgShape"></rect><rect width="8.557" height="49.559" x="596.51" y="160.399" fill="#0134f3" rx="4.279" transform="rotate(90 600.788 185.18)" class="colorf39201 svgShape"></rect><rect width="8.557" height="103.2" x="623.33" y="149.329" fill="#ffffff" rx="4.279" transform="rotate(-90 627.609 200.93)" class="colorffffff svgShape"></rect><rect width="8.557" height="49.559" x="711.176" y="176.15" fill="#0134f3" rx="4.279" transform="rotate(-90 715.455 200.93)" class="colorf39201 svgShape"></rect><rect width="8.557" height="164.226" x="653.843" y="86.914" fill="#ffffff" rx="4.279" transform="rotate(90 658.121 169.027)" class="colorffffff svgShape"></rect><rect width="8.557" height="103.2" x="684.356" y="181.47" fill="#ffffff" rx="4.279" transform="rotate(90 688.634 233.07)" class="colorffffff svgShape"></rect><rect width="8.557" height="49.559" x="596.51" y="208.29" fill="#0134f3" rx="4.279" transform="rotate(90 600.788 233.07)" class="colorf39201 svgShape"></rect><rect width="8.557" height="103.2" x="623.33" y="197.22" fill="#ffffff" rx="4.279" transform="rotate(-90 627.609 248.82)" class="colorffffff svgShape"></rect><rect width="8.557" height="49.559" x="711.176" y="224.04" fill="#0134f3" rx="4.279" transform="rotate(-90 715.455 248.82)" class="colorf39201 svgShape"></rect><rect width="8.557" height="164.226" x="653.843" y="134.805" fill="#ffffff" rx="4.279" transform="rotate(90 658.121 216.918)" class="colorffffff svgShape"></rect><path fill="#466cf9" d="M483.957 209.806H548.1v6.261h-64.143z" transform="rotate(90 516.028 212.936)" class="colorf94f46 svgShape"></path><path fill="#6aacef" d="M471.185 204.945h27.63a2.22 2.22 0 0 1 2.22 2.22 4.04 4.04 0 0 1-4.04 4.04h-23.99a4.04 4.04 0 0 1-4.04-4.04 2.22 2.22 0 0 1 2.22-2.22Z" class="color6a74ef svgShape"></path><path fill="#ffffff" d="M472.347 208.575a.5.5 0 0 1-.45-.718l12.653-26.17a.5.5 0 0 1 .45-.282.5.5 0 0 1 .45.282l12.391 25.565a.5.5 0 0 1-.9.436l-11.94-24.635-12.203 25.24a.5.5 0 0 1-.45.282Z" class="colorffffff svgShape"></path><path fill="#6aacef" d="M487.087 246.212h57.883a3.13 3.13 0 0 1 3.13 3.13v3.13h-64.144v-3.13a3.13 3.13 0 0 1 3.131-3.13ZM501.665 239.95h28.726a3.13 3.13 0 0 1 3.13 3.13v3.13h-34.987v-3.13a3.13 3.13 0 0 1 3.131-3.13ZM553.334 181.794a1.54 1.54 0 0 1-1.54 1.54h-20.4a12.861 12.861 0 0 0-9.2 3.88 1.543 1.543 0 0 1-1.11.47h-10.18a1.543 1.543 0 0 1-1.11-.47 12.861 12.861 0 0 0-9.2-3.88h-20.4a1.545 1.545 0 1 1 0-3.09h10.54a10.086 10.086 0 0 0 6.32-2.23 9.981 9.981 0 0 1 6.31-2.23 8.464 8.464 0 0 0 8.33-7l.37-2.13a1.544 1.544 0 0 1 1.52-1.28h4.82a1.544 1.544 0 0 1 1.52 1.28l.37 2.13a8.464 8.464 0 0 0 8.33 7 10.022 10.022 0 0 1 6.31 2.23 10.08 10.08 0 0 0 6.31 2.23h10.55a1.543 1.543 0 0 1 1.54 1.55Z" class="color6a74ef svgShape"></path><circle cx="485" cy="181.905" r="3.913" fill="#ffffff" class="colorffffff svgShape"></circle><path fill="#6aacef" d="M533.304 204.945h27.631a2.22 2.22 0 0 1 2.22 2.22 4.04 4.04 0 0 1-4.04 4.04h-23.99a4.04 4.04 0 0 1-4.04-4.04 2.22 2.22 0 0 1 2.22-2.22Z" class="color6a74ef svgShape"></path><path fill="#ffffff" d="M534.467 208.575a.5.5 0 0 1-.45-.718l12.652-26.17a.5.5 0 0 1 .45-.282.5.5 0 0 1 .45.282l12.391 25.565a.5.5 0 0 1-.9.436l-11.94-24.635-12.203 25.24a.5.5 0 0 1-.45.282Z" class="colorffffff svgShape"></path><circle cx="547.12" cy="181.905" r="3.913" fill="#ffffff" class="colorffffff svgShape"></circle><ellipse cx="500" cy="655.717" fill="#24305b" rx="447.957" ry="4.14" class="color5b2448 svgShape"></ellipse></svg>