<svg xmlns="http://www.w3.org/2000/svg" viewBox="0 0 2580 2584" id="BusinessAchievement"><g fill="none" fill-rule="evenodd"><g transform="translate(4)" fill="#021b79" class="color000000 svgShape"><circle cx="1999.94" cy="1598.96" r="5.331" stroke="#000000" stroke-width="8" class="colorStroke000000 svgStroke"></circle><circle cx="1271.67" cy="78.185" r="5.331" stroke="#000000" stroke-width="8" class="colorStroke000000 svgStroke"></circle><circle cx="192.217" cy="1044.38" r="5.331" stroke="#000000" stroke-width="8" class="colorStroke000000 svgStroke"></circle><circle cx="528.135" cy="2420.28" r="5.331" stroke="#000000" stroke-width="8" class="colorStroke000000 svgStroke"></circle><circle cx="576.165" cy="326.522" r="5.331" stroke="#000000" stroke-width="8" class="colorStroke000000 svgStroke"></circle><line x1="2542.42" x2="2571.78" y1="1701.54" y2="1722.9" stroke="#000000" stroke-linecap="round" stroke-width="8" class="colorStroke000000 svgStroke"></line><line x1="679.243" x2="708.603" y1="1369.65" y2="1391" stroke="#000000" stroke-linecap="round" stroke-width="8" class="colorStroke000000 svgStroke"></line><line x1="452.888" x2="482.248" y1="22.484" y2="43.838" stroke="#000000" stroke-linecap="round" stroke-width="8" class="colorStroke000000 svgStroke"></line><line x1="207.112" x2="177.323" y1="1857.64" y2="1878.39" stroke="#000000" stroke-linecap="round" stroke-width="8" class="colorStroke000000 svgStroke"></line><line x1="2151.47" x2="2121.68" y1="2101.76" y2="2122.51" stroke="#000000" stroke-linecap="round" stroke-width="8" class="colorStroke000000 svgStroke"></line><line x1="141.51" x2="111.721" y1="453.953" y2="474.703" stroke="#000000" stroke-linecap="round" stroke-width="8" class="colorStroke000000 svgStroke"></line><line x1="1620.26" x2="1654.05" y1="151.639" y2="138.363" stroke="#000000" stroke-linecap="round" stroke-width="8" class="colorStroke000000 svgStroke"></line><line x1="2361.82" x2="2381.57" y1="78.184" y2="108.646" stroke="#000000" stroke-linecap="round" stroke-width="8" class="colorStroke000000 svgStroke"></line><line x1=".5" x2="20.249" y1="2429.62" y2="2460.08" stroke="#000000" stroke-linecap="round" stroke-width="8" class="colorStroke000000 svgStroke"></line><path stroke="#000000" stroke-linecap="round" stroke-width="8" d="M2040.14 1174.87C2030.8 1223.32 2025.21 1299.83 2045.1 1349.32M2453.13 1491.49C2439.39 1498.88 2426.13 1504.76 2413.36 1509.3M2051.85 1363.29C2054.8 1368.38 2058.13 1373.03 2061.87 1377.15M2068.53 1383.53C2073.52 1387.66 2079.12 1390.98 2085.39 1393.33M2091.42 1395.24C2100.3 1397.55 2110.38 1398.08 2121.81 1396.48 2224.08 1382.16 2248.14 1260.86 2247.39 1202 2245.32 1157.27 2218.05 1099.9 2171.64 1164.85 2125.23 1229.81 2159.35 1356.71 2182.21 1412.03 2201.01 1453.02 2250.04 1512.54 2326.89 1520.82M2342.31 1521.77C2345.84 1521.83 2349.42 1521.78 2353.06 1521.62M2361.05 1521.08C2367.2 1520.53 2373.48 1519.66 2379.92 1518.44M2387.57 1516.84C2393.83 1515.41 2400.21 1513.66 2406.72 1511.55M223.713 1488.58C219.226 1511.85 216.539 1548.61 226.096 1572.38M422.106 1640.68C415.507 1644.23 409.139 1647.05 403.005 1649.23M229.336 1579.09C230.753 1581.54 232.352 1583.78 234.15 1585.75M237.349 1588.82C239.747 1590.8 242.437 1592.4 245.447 1593.53M248.347 1594.45C252.611 1595.55 257.455 1595.81 262.942 1595.04 312.072 1588.16 323.635 1529.89 323.275 1501.61 322.277 1480.12 309.179 1452.56 286.883 1483.77 264.586 1514.97 280.978 1575.93 291.962 1602.51 300.992 1622.2 324.544 1650.79 361.464 1654.77M368.873 1655.23C370.568 1655.26 372.288 1655.23 374.033 1655.15M377.875 1654.89C380.826 1654.63 383.847 1654.21 386.937 1653.63M390.616 1652.86C393.619 1652.17 396.684 1651.33 399.813 1650.32" class="colorStroke000000 svgStroke"></path><polygon fill="#021b79" fill-rule="nonzero" points="827.44 2196.67 588.005 2578.4 2079.19 2578.4 1916.49 2406.58 1799.87 2315.08 1762.2 2385.05 1708.37 2259.46 1674.28 2345.58 1633.02 2280.99 1504.91 2406.58 1450.01 2460.41 1270.6 2196.67 1220.36 2150.02 1202.42 2228.96 1053.5 2074.67 1008.65 2196.67 974.56 2015.46" class="color000000 svgShape"></polygon><path stroke="#000000" stroke-width="8" d="M827.44,2196.67 L588.005,2578.4 L2079.19,2578.4 L1916.49,2406.58 M827.44,2196.67 L974.56,2015.46 L1008.65,2196.67 L1053.5,2074.67 L1202.42,2228.96 L1220.36,2150.02 L1270.6,2196.67 M827.44,2196.67 L1012.74,1875.39 M1270.6,2196.67 L1450.01,2460.41 L1504.91,2406.58 M1270.6,2196.67 L1053.5,1874.98 M1916.49,2406.58 L1799.87,2315.08 L1762.2,2385.05 L1708.37,2259.46 L1674.28,2345.58 L1633.02,2280.99 L1504.91,2406.58 M1916.49,2406.58 L1727.97,2196.67 M1504.91,2406.58 L1649.88,2228.96" class="colorStroke000000 svgStroke"></path><line x1="351.343" x2="2420.45" y1="2579.37" y2="2579.37" stroke="#000000" stroke-linecap="round" stroke-width="8" class="colorStroke000000 svgStroke"></line><path stroke="#000000" stroke-linecap="round" stroke-width="8" d="M1300.74,411.314 C1291.84,434.94 1280.85,493.832 1308.01,540.398 C1308.89,541.757 1309.81,543.029 1310.76,544.217 M1389.67,533.661 C1392.81,529.209 1399.98,517.968 1403.47,508.62 M1389.67,533.661 C1385.06,540 1376.7,548.69 1370.22,553.026 C1346.99,568.566 1324.93,556.595 1317.93,551.253 C1315.4,549.325 1312.99,546.998 1310.76,544.217 M1389.67,533.661 L1396.86,572.389 L1425.65,572.389 M1310.76,544.217 L1314.59,574.537 L1288.81,577.115" class="colorStroke000000 svgStroke"></path><path fill="#021b79" fill-rule="nonzero" d="M1383.32,543.357 C1357.37,567.563 1323.43,556.042 1310.95,546.787 L1314.39,570.494 C1346.33,588.211 1374.48,559.473 1383.32,543.357 Z" class="color000000 svgShape"></path><path stroke="#000000" stroke-linecap="round" stroke-width="8" d="M1391.78 507.206C1399.7 508.576 1416.49 508.183 1420.29 495.649 1425.04 479.983 1410.53 473.177 1397.31 478.698M1293.36 445.93C1299.68 445.93 1315.43 449.274 1320.12 460.651 1324.82 472.027 1319.32 501.462 1310.29 516.812 1315.03 515.458 1322.03 514.781 1332.41 501.462M1346.75 455.176C1351.97 450.622 1365.47 444.501 1377.72 456.452M1336.6 525.945C1340.46 526.432 1349.44 525.414 1354.46 517.441M1392.92 494.499C1394.98 491.195 1401.42 484.865 1410.78 485.988M1401.87 488.133C1404.39 488.96 1408.34 492.425 1403.97 499.67" class="colorStroke000000 svgStroke"></path><path fill="#021b79" fill-rule="nonzero" d="M1284.73 430.4C1248.99 452.225 1275.06 474.741 1291.89 482.115 1290.38 470.516 1293.32 449.303 1293.32 448.229 1300.2 444.964 1300.34 439.565 1299.55 437.274L1317.84 418.99 1379.87 421.45C1376.61 441.556 1394.57 462.478 1402.66 469.495 1398.79 472.717 1400.08 477.873 1400.08 476.799 1415.03 472.159 1420.63 481.023 1421.56 486.036 1426.86 480.665 1437.25 466.917 1436.39 454.888 1435.53 442.859 1420.56 433.55 1413.19 430.4 1427.62 380.564 1398.01 373.117 1381.39 375.623 1382.68 369.394 1380.54 350.705 1365.07 346.409 1316.52 336.957 1312.66 387.867 1312.66 386.793 1282.58 383.699 1281.51 414.575 1284.73 430.4zM1396.22 522.553C1390.55 516.022 1390.85 510.237 1391.71 508.16L1403.95 508.16 1396.22 522.553z" class="color000000 svgShape"></path><polygon fill="#021b79" fill-rule="nonzero" points="1391.78 464.441 1333.36 469.381 1346.46 497.307 1382.12 499.67" class="color000000 svgShape"></polygon><polygon fill="#ffffff" fill-rule="nonzero" points="1351.95 467.805 1346.38 468.281 1356.63 497.98 1361.75 498.365" class="colorffffff svgShape"></polygon><polygon fill="#ffffff" fill-rule="nonzero" points="1361.11 467.027 1355.8 467.484 1366.53 498.64 1370.88 498.953" class="colorffffff svgShape"></polygon><polygon fill="#021b79" fill-rule="nonzero" points="1262.33 464.441 1320.76 469.381 1307.66 497.307 1272 499.67" class="color000000 svgShape"></polygon><polygon fill="#ffffff" fill-rule="nonzero" points="1284.92 466.381 1279.06 465.779 1290.19 498.456 1295.13 498.126" class="colorffffff svgShape"></polygon><polygon fill="#ffffff" fill-rule="nonzero" points="1294.69 467.171 1288.81 466.695 1299.62 497.847 1303.91 497.557" class="colorffffff svgShape"></polygon><line x1="1313.73" x2="1341.44" y1="478.732" y2="478.732" stroke="#000000" stroke-width="8" class="colorStroke000000 svgStroke"></line><line x1="1384.4" x2="1406.74" y1="476.154" y2="470.139" stroke="#000000" stroke-width="8" class="colorStroke000000 svgStroke"></line><path stroke="#000000" stroke-linecap="round" stroke-width="8" d="M1684.71 927.96L1822.45 1053.02C1878.57 1094.19 1935.63 1109.82 1987.42 1053.02 2039.21 996.22 2098.79 767.618 2122.11 660.42L2220.56 596.474 2220.18 608.657C2218.52 635.938 2250.22 646.746 2256.87 614.983 2258.44 597.6 2259.08 548.652 2258.81 506.409 2257.24 488.808 2236.42 482.369 2225.34 494.173M2225.34 494.173L2225.34 478.426C2225.34 462.41 2213.46 447.388 2198.34 457.474M2225.34 494.173L2225.34 574.742M2198.34 457.474C2198.34 446.099 2191.53 428.821 2169.89 435.154 2158.81 438.849 2153.37 445.027 2149.52 450.719M2198.34 457.474L2198.34 555.611M2149.52 450.719C2151.48 440.824 2138.94 417.42 2114.56 438.589 2090.53 459.446 2020.22 564.846 1985.92 614.983L1897.18 872.193 1787.15 774.07M2149.52 450.719L2114.56 526.584C2125.55 538.459 2140.94 572.763 2114.56 614.983M2163.64 482.209L2163.64 560.54M1126.77 885.743L1027.41 965.1M607.252 423.329C596.772 410.985 575.658 416.371 573.205 433.872 570.821 476.049 569.004 524.966 569.703 542.407 574.756 574.463 606.952 565.258 606.659 537.928L606.899 525.741 702.012 594.542C719.927 702.775 767.98 934.07 816.85 993.4 827.93 1006.85 839.47 1016.59 851.36 1023.17M607.252 423.329L608.041 407.602C608.844 391.607 621.46 377.198 636.059 388.03M607.252 423.329L603.212 503.797M636.059 388.03C636.629 376.67 644.292 359.755 665.585 367.165 695.618 378.879 733.077 412.614 756.793 433.872L774.9 448.626M636.059 388.03L631.139 486.043M1033.16 725.784L916.04 817.325 822.13 525.741C822.13 525.741 851.78 386.928 828.83 364.892 822.76 359.063 806.54 362.288 792.34 403.072 789.97 409.89 774.9 448.626 774.9 448.626M774.9 448.626C762.543 452.867 719.03 475.583 731.532 537.928M673.73 417.113L668.605 493.188M1240.13 976.6C1143.3 968.96 981.48 963.82 981.48 963.82L1033.13 1170.55M1362.29 1312.84L1066.87 1301.48 1033.13 1170.55M1362.29 1312.84L1347.52 1732.1 1549.2 1719.04M1362.29 1312.84L1362.29 1211.75M1646.52 1066.36L1750.88 1705.97 1549.2 1719.04M1549.2 1719.04L1605.14 1180.38M1521.46 1084.89C1544.76 1119.02 1603.96 1192.59 1654.36 1213.86M1033.13 1170.55L1362.29 1275.88" class="colorStroke000000 svgStroke"></path><path fill="#0575e6" fill-rule="nonzero" d="M1229.36,581.334 L1288.41,573.078 C1299.24,586.256 1329.62,615.716 1366.88,611.059 C1404.14,606.402 1419.97,579.407 1424.39,568.338 C1452.3,569.002 1519.34,575.486 1554.96,581.334 C1590.58,587.181 1622.96,610.793 1634.7,621.868 L1793.14,775.071 L1684.79,934.48 L1614.76,863.08 L1651.31,1068.41 L1229.36,980.03 L1217.4,836.5 L1113.74,912.92 L1003.43,742.806 C1034.66,716.891 1104.7,657.618 1135,627.849 C1171.15,591.169 1211.98,583.585 1229.36,581.334 Z" class="color4fce5c svgShape"></path><path stroke="#000000" stroke-linecap="round" stroke-width="8" d="M1211.82,781.055 L1215.53,823.426 M1603.75,795.355 L1612.76,852.555" class="colorStroke000000 svgStroke"></path><polygon fill="#021b79" fill-rule="nonzero" points="1333.51 2276.66 1550.04 2040.62 1787.93 2040.62 1834.9 2223.42" class="color000000 svgShape"></polygon><path stroke="#000000" stroke-width="8" d="M1510.11,1720.26 L1550.04,2040.62 M1550.04,2040.62 L1333.51,2276.66 L1834.9,2223.42 L1787.93,2040.62 M1550.04,2040.62 L1787.93,2040.62 M1702.67,1708.72 L1787.93,2040.62" class="colorStroke000000 svgStroke"></path><path stroke="#000000" stroke-width="8" d="M1553.27,2056.27 C1534.22,2029.66 1491.67,1979.98 1473.84,1994.07 C1456.02,2008.17 1519.37,2041.41 1553.27,2056.27 Z" class="colorStroke000000 svgStroke"></path><path stroke="#000000" stroke-width="8" d="M1552.29,2056.74 C1524.72,2039.11 1466.76,2008.77 1455.45,2028.48 C1444.13,2048.18 1515.29,2055.53 1552.29,2056.74 Z" class="colorStroke000000 svgStroke"></path><path stroke="#000000" stroke-linecap="round" stroke-width="8" d="M1549.87,2057.65 C1539.8,2045.2 1511.37,2027.88 1478.26,2058.2 C1445.16,2088.52 1416.34,2071.25 1406.07,2058.83" class="colorStroke000000 svgStroke"></path><polygon fill="#021b79" fill-rule="nonzero" points="730.966 1912.1 947.49 1676.05 1185.39 1676.05 1232.35 1858.86" class="color000000 svgShape"></polygon><path stroke="#000000" stroke-width="8" d="M947.49,1676.05 L854.19,1344.16 L813.8,1166.02 C802.72,1114.72 834.24,961.12 981.21,964.06 M947.49,1676.05 L730.966,1912.1 L1232.35,1858.86 L1185.39,1676.05 M947.49,1676.05 L1185.39,1676.05 M1066.33,1299.43 L1185.39,1676.05" class="colorStroke000000 svgStroke"></path><path stroke="#000000" stroke-width="8" d="M955.32,1689.19 C935.69,1663.01 892.06,1614.27 874.55,1628.75 C857.04,1643.23 921.1,1675.08 955.32,1689.19 Z" class="colorStroke000000 svgStroke"></path><path stroke="#000000" stroke-width="8" d="M954.35,1689.69 C926.4,1672.67 867.8,1643.6 856.91,1663.55 C846.03,1683.49 917.33,1689.29 954.35,1689.69 Z" class="colorStroke000000 svgStroke"></path><path stroke="#000000" stroke-linecap="round" stroke-width="8" d="M951.95 1690.65C941.61 1678.42 912.81 1661.73 880.37 1692.77 847.94 1723.8 818.75 1707.17 808.21 1694.97M1845.76 143.318L2100.65 452.6M2437.5 861.322L2248.57 632.082" class="colorStroke000000 svgStroke"></path><path fill="#0575e6" fill-rule="nonzero" d="M2013.27,138.61 C1970.12,187.987 1885.19,160.896 1847.29,141.942 L2014.35,344.923 C2041.08,355.291 2102.5,357.787 2152.27,287.806 C2217.97,191.775 2283,189.151 2307.3,199.843 L2142.55,0.104 C2059.44,27.805 2067.22,76.889 2013.27,138.61 Z" class="color4fce5c svgShape"></path><path stroke="#000000" stroke-linecap="round" stroke-width="8" d="M2154.86,49.557 C2145.73,53.434 2119.95,76.793 2089.84,139.207 C2059.73,201.621 2011.14,216.312 1990.61,215.855 M2120.64,211.749 C2127.25,198.29 2145.14,164.938 2163.75,139.207" class="colorStroke000000 svgStroke"></path></g></g></svg>