<svg xmlns="http://www.w3.org/2000/svg" data-name="Layer 1" viewBox="0 0 3989.93 2507.65" id="Businessnetworkinreferralmarketing"><circle cx="697.93" cy="957.8" r="418.07" fill="#ffffff" opacity=".1" class="colorffffff svgShape"></circle><circle cx="2966.66" cy="1958.64" r="329.06" fill="#ffffff" opacity=".1" class="colorffffff svgShape"></circle><circle cx="1661.87" cy="1782.79" r="231.36" fill="#ffffff" opacity=".1" transform="rotate(-45 1661.875 1782.789)" class="colorffffff svgShape"></circle><circle cx="2947.12" cy="1057.66" r="387.68" fill="#ffffff" opacity=".1" class="colorffffff svgShape"></circle><circle cx="775.59" cy="1661.19" r="294.32" fill="#ffffff" opacity=".1" class="colorffffff svgShape"></circle><circle cx="1420.39" cy="1281.26" r="222.68" fill="#ffffff" opacity=".1" class="colorffffff svgShape"></circle><circle cx="714.8" cy="2203.95" r="107.61" fill="#ffffff" opacity=".1" class="colorffffff svgShape"></circle><circle cx="2093.41" cy="2132.31" r="153.21" fill="#ffffff" opacity=".1" transform="rotate(-45 2093.403 2132.314)" class="colorffffff svgShape"></circle><circle cx="3432.94" cy="1721.98" r="90.25" fill="#ffffff" opacity=".1" class="colorffffff svgShape"></circle><circle cx="832.04" cy="415.02" r="72.88" fill="#ffffff" opacity=".1" transform="rotate(-45 832.028 415.023)" class="colorffffff svgShape"></circle><circle cx="3111.62" cy="575.68" r="72.88" fill="#ffffff" opacity=".1" class="colorffffff svgShape"></circle><circle cx="1858.94" cy="569.16" r="109.79" fill="#ffffff" opacity=".1" class="colorffffff svgShape"></circle><circle cx="2310.28" cy="782.67" r="190.84" fill="#ffffff" opacity=".1" class="colorffffff svgShape"></circle><path fill="#ffffff" d="M1363.16 2075a8.66 8.66 0 0 1-6.85-14L2593 463.94a8.67 8.67 0 1 1 13.71 10.61L1370 2071.64a8.59 8.59 0 0 1-6.84 3.36Z" class="colorffffff svgShape"></path><path fill="#ffffff" d="M2599.84 2075a8.62 8.62 0 0 1-6.86-3.37L1356.31 474.55a8.66 8.66 0 1 1 13.7-10.61L2606.69 2061a8.66 8.66 0 0 1-6.85 14ZM3479.68 1252a4.35 4.35 0 0 1-3-1.19l-854.86-803.95a4.34 4.34 0 0 1 6-6.31l854.88 803.92a4.35 4.35 0 0 1-3 7.5ZM510.21 1252a4.35 4.35 0 0 1-3-7.5l854.88-803.92a4.28 4.28 0 0 1 6.14.18 4.33 4.33 0 0 1-.17 6.13L513.2 1250.78a4.36 4.36 0 0 1-2.99 1.22ZM2624.8 2068.28a4.35 4.35 0 0 1-3-7.5l854.88-803.92a4.34 4.34 0 0 1 6 6.31l-854.88 803.92a4.37 4.37 0 0 1-3 1.19ZM1365.09 2068.28a4.35 4.35 0 0 1-3-1.19l-854.86-803.92a4.34 4.34 0 0 1 6-6.31l854.88 803.92a4.35 4.35 0 0 1-3 7.5Z" class="colorffffff svgShape"></path><path fill="#ffffff" d="M1685.29 1862.77v339.13a131.77 131.77 0 0 1-40.79 95.16 63.1 63.1 0 0 1-7.52 6.55 131.31 131.31 0 0 1-84.23 30.59h-364.37a130.48 130.48 0 0 1-83.75-30.1c-2.67-2.19-5.34-4.62-7.77-7a130.83 130.83 0 0 1-40.78-95.16v-339.17c0-72.82 59.47-132.3 132.3-132.3h364.37c72.82 0 132.54 59.53 132.54 132.3Z" class="colorffffff svgShape"></path><path fill="#021b79" d="M1426.89 2089.6c25.95 9.79 55.31-5.87 58.74-28.88a55.64 55.64 0 0 0-8.81-39.16s32.8-25.45 24.47-64.12-41.6-36.22-41.6-36.22 17.13-62.17-33.78-81.26-73.91 29.37-73.91 29.37-13-32.72-50.91-18.11c-53.35 20.56-28.88 87.13-28.88 87.13s-35.24 2.45-43.07 40.63 27.9 50.91 27.9 50.91-27.9 34.26 3.42 58.73 77.34-9.79 77.34-9.79Z" class="color243770 svgShape"></path><path fill="#a3cefa" d="M1445.25 1998.49c4.18-4.87 10.45-7 15-2.78s-5.92 52.93-18.46 52.93 3.46-50.15 3.46-50.15ZM1296.67 1998.49c-4.18-4.87-10.45-7-15-2.78s5.92 52.93 18.46 52.93-3.46-50.15-3.46-50.15ZM1379 2246.4a55.32 55.32 0 0 1-13.37.45 12.67 12.67 0 0 1-2.9-.45c-36.77-4.9-87.81-36.1-61.29-48.36 21-9.58 25.19-29.42 26.52-54.61.45-10.92.23-22.73.67-35.43 0 0 27.19-1.34 42.13.67a26 26 0 0 1 7.35 1.56c2.9 1.11 6.69 11.58 10 26.3 8.5 37.66 13.89 103.19-9.11 109.87Z" class="colorfab2a3 svgShape"></path><path fill="#a3cefa" d="M1379 2246.4a55.32 55.32 0 0 1-13.37.45 12.67 12.67 0 0 1-2.9-.45c-21-6.46-18-62.4-10.92-100.51 3.79-19.39 8.47-34.33 11.81-35.66a26.17 26.17 0 0 1 7.14-1.56c14.93-2 42.57-.67 42.57-.67.89 41.67-2.68 76.22 27.19 90 26.74 12.52-24.74 43.72-61.52 48.4Z" class="colorfab2a3 svgShape"></path><path fill="#83b4e6" d="M1413.33 2108a57.29 57.29 0 0 1-25.19 28.53 71.65 71.65 0 0 1-36.33 9.36 81.29 81.29 0 0 1-23.85-2.46c.45-10.92.23-22.73.67-35.43 0 0 27.19-1.34 42.13.67 14.93-2.01 42.57-.67 42.57-.67ZM1444.91 2011.15c2.11-3.52 9.32-7.39 10.2-5.8s-6.51 31.84-10.9 26c-1.98-2.57.7-20.2.7-20.2ZM1297 2011.15c-2.11-3.52-9.32-7.39-10.2-5.8s6.51 31.84 10.91 26c1.98-2.57-.71-20.2-.71-20.2Z" class="colore69283 svgShape"></path><path fill="#a3cefa" d="M1447.16 2019.74c0 64.06-39.52 111-76.27 111-34.75 0-76.26-46.91-76.26-111s-5.81-116 76.26-116c84.63 0 76.27 51.94 76.27 116Z" class="colorfab2a3 svgShape"></path><path fill="#021b79" d="M1362.51 2067a.68.68 0 0 0 .64-.62.78.78 0 0 0-.52-.89c-9.32-2.07-9.57-9.43-9.46-11.34a30.87 30.87 0 0 0 15.77-15.92c2.88-7 2.91-15.18.06-24.26a.67.67 0 0 0-.83-.45.82.82 0 0 0-.38 1c2.72 8.67 2.71 16.42 0 23-4.54 11.07-15.3 15.28-15.41 15.31l-.38.16v.46c0 .11-1.27 10.9 10.46 13.51ZM1349.27 2018.66c.27 6.94-1.9 12.65-4.83 12.77s-5.53-5.42-5.79-12.36 1.9-12.66 4.83-12.77 5.52 5.42 5.79 12.36ZM1392.65 2018.66c-.26 6.94 1.9 12.65 4.83 12.77s5.53-5.42 5.79-12.36-1.89-12.66-4.83-12.77-5.52 5.42-5.79 12.36ZM1420.27 1985.91c2.07 4.13-23.48-2.15-24.57-4.78s2-3.93 6.9-4 17.15 7.73 17.67 8.78ZM1321.65 1985.91c-2.06 4.13 23.49-2.15 24.57-4.78s-2-3.93-6.9-4-17.15 7.73-17.67 8.78Z" class="color243770 svgShape"></path><path fill="#5578fa" d="M1387 2091.88c0 4.7-6.29 8.52-14.08 8.53s-14.11-3.78-14.12-8.48 6.3-8.53 14.08-8.54 14.12 3.78 14.12 8.49Z" class="colorfa6855 svgShape"></path><path fill="#021b79" d="M1381.22 2094c-8.92 1.35-18.6 1.25-24.56-1-.48-.19-.65-.63-.37-1a1.22 1.22 0 0 1 1.37-.35c11 4.08 36.32.42 41.72-6a1.41 1.41 0 0 1 1.4-.31.62.62 0 0 1 .31 1c-2.98 3.53-11.09 6.28-19.87 7.66Z" class="color243770 svgShape"></path><ellipse cx="1418.15" cy="2045.33" fill="#6987fa" rx="14.39" ry="7.68" transform="rotate(-11.55 1417.508 2044.59)" class="colorfa7369 svgShape"></ellipse><ellipse cx="1323.77" cy="2045.33" fill="#6987fa" rx="7.68" ry="14.39" transform="rotate(-78.45 1323.921 2045.38)" class="colorfa7369 svgShape"></ellipse><path fill="#021b79" d="M1293.33 1995.07c14.74 19.16 34.09-38.83 34.09-38.83s15.48 21.63 53.56 21.14 47.67-27.52 47.67-27.52-4.85 51.29 18.24 46.86 12-92.57-32.49-93.06-92.88-18.18-105.41 2-30.22 56.51-26.54 67.81a95.34 95.34 0 0 0 10.88 21.6Z" class="color243770 svgShape"></path><path fill="#91bfed" d="M1378.45 2334.2h-190.07a130.48 130.48 0 0 1-83.75-30.1c-3.16-28.65 10.92-59 36.65-70.16 52.19-22.33 121.14-15.05 162.89-37.63v.25c.24 2.67 2.18 22.82 19.66 35.68 10.44 7.28 22.82 10.68 34.47 11.65a49.65 49.65 0 0 0 6.07.49h.49a49.19 49.19 0 0 0 5.82.24 53.4 53.4 0 0 0 6.07-.24.34.34 0 0 0 .49 0 2.93 2.93 0 0 1 2.42 1.45.24.24 0 0 1 .25.25c8.49 9.71 1.94 61.92-1.46 88.12Z" class="color91a9ed svgShape"></path><path fill="#91bfed" d="M1637 2303.61a131.31 131.31 0 0 1-84.23 30.59H1363.4c-3.16-26.22-10-78.65-1.7-88.12l.24-.25a3 3 0 0 1 2.43-1.45h.49a49.19 49.19 0 0 0 5.82.24 53.4 53.4 0 0 0 6.07-.24.34.34 0 0 0 .49 0 58.06 58.06 0 0 0 6.31-.49c11.65-1 24.27-4.37 34.47-11.65 18.69-13.84 19.42-35.93 19.42-35.93a.24.24 0 0 1 .24.25c42.24 22.33 110.94 15.05 163.13 37.38 25 10.92 38.84 42 36.19 69.67Z" class="color91a9ed svgShape"></path><path fill="#ffffff" d="M2933.85 1862.77v339.13a129 129 0 0 1-15.54 61.66 126.76 126.76 0 0 1-25.24 33.5 128.4 128.4 0 0 1-20.15 16 130.7 130.7 0 0 1-67.24 20.87 25.69 25.69 0 0 1-4.37.25h-364.37a25.63 25.63 0 0 1-4.37-.25 129.77 129.77 0 0 1-77.92-28.64l-.25-.24a93.28 93.28 0 0 1-9-8 131.73 131.73 0 0 1-22.82-28.89 130.21 130.21 0 0 1-18-66.27v-339.12c0-72.82 59.47-132.3 132.3-132.3h364.37c72.88 0 132.6 59.53 132.6 132.3Z" class="colorffffff svgShape"></path><path fill="#021b79" d="M2918.31 2263.56a126.76 126.76 0 0 1-25.24 33.5 128.4 128.4 0 0 1-20.15 16 130.7 130.7 0 0 1-67.24 20.87h-373.11a129.77 129.77 0 0 1-77.92-28.64l-.25-.24a93.28 93.28 0 0 1-9-8 131.73 131.73 0 0 1-22.82-28.89c18.45-35.44 60.69-63.36 105.36-91.52 77.92-49 35.92-191.53 71.12-280.62 30.35-76.47 137.4-81.56 162.4-15.29 0 0 9.47-10.44 29.13-10.44 21.37 0 54.86 24.76 51.71 120.89-3.64 96.13 2.43 127.69 90.06 186.92 45.64 31.08 73.57 57.54 85.95 85.46Z" class="color243770 svgShape"></path><path fill="#a3cefa" d="M2686.89 2006.67c4.07-4.76 10.19-6.8 14.61-2.72s-5.78 51.64-18 51.64 3.39-48.92 3.39-48.92ZM2541.92 2006.67c-4.08-4.76-10.2-6.8-14.61-2.72s5.77 51.64 18 51.64-3.39-48.92-3.39-48.92ZM2622.25 2248.54a54.19 54.19 0 0 1-13.05.44 12.62 12.62 0 0 1-2.83-.44c-35.87-4.78-85.67-35.23-59.8-47.18 20.45-9.36 24.58-28.71 25.88-53.28.44-10.66.22-22.18.65-34.58 0 0 26.53-1.3 41.1.66a25.34 25.34 0 0 1 7.18 1.52c2.83 1.09 6.52 11.31 9.78 25.66 8.27 36.75 13.49 100.66-8.91 107.2Z" class="colorfab2a3 svgShape"></path><path fill="#a3cefa" d="M2622.25 2248.54a54.19 54.19 0 0 1-13.05.44 12.62 12.62 0 0 1-2.83-.44c-20.44-6.3-17.61-60.88-10.65-98.07 3.7-18.92 8.26-33.49 11.52-34.79a25.48 25.48 0 0 1 7-1.52c14.57-2 41.54-.66 41.54-.66.87 40.67-2.61 74.37 26.52 87.86 26.06 12.17-24.17 42.64-60.05 47.18Z" class="colorfab2a3 svgShape"></path><path fill="#83b4e6" d="M2655.74 2113.5a55.92 55.92 0 0 1-24.58 27.84 69.85 69.85 0 0 1-35.44 9.13 79 79 0 0 1-23.27-2.39c.44-10.66.22-22.18.65-34.58 0 0 26.53-1.3 41.1.66 14.57-1.96 41.54-.66 41.54-.66ZM2686.55 2019c2.06-3.44 9.1-7.21 10-5.67s-6.36 31.07-10.65 25.41c-1.96-2.53.65-19.74.65-19.74ZM2542.25 2019c-2.06-3.44-9.09-7.21-9.95-5.67s6.35 31.07 10.64 25.41c1.93-2.53-.69-19.74-.69-19.74Z" class="colore69283 svgShape"></path><path fill="#a3cefa" d="M2688.74 2027.39c0 62.51-38.55 108.28-74.41 108.28-33.91 0-74.41-45.77-74.41-108.28s-5.66-113.17 74.41-113.17c82.57 0 74.41 50.67 74.41 113.17Z" class="colorfab2a3 svgShape"></path><path fill="#021b79" d="M2606.16 2073.46a.67.67 0 0 0 .62-.61.74.74 0 0 0-.5-.86c-9.1-2-9.34-9.21-9.23-11.07a30.15 30.15 0 0 0 15.38-15.53c2.81-6.85 2.84-14.81.06-23.68a.65.65 0 0 0-.81-.43.8.8 0 0 0-.37 1c2.66 8.46 2.64 16 0 22.48-4.43 10.81-14.93 14.91-15 14.94l-.37.15v.45c0 .11-1.24 10.64 10.2 13.18a.25.25 0 0 0 .02-.02ZM2590.64 2026.32c.29 7.6-2.08 13.86-5.29 14s-6.06-5.94-6.35-13.54 2.08-13.86 5.29-14 6.06 5.94 6.35 13.54ZM2638.17 2026.32c-.29 7.6 2.07 13.86 5.29 14s6.05-5.94 6.34-13.54-2.07-13.86-5.29-14-6.05 5.94-6.34 13.54ZM2665.57 2002.17c2.27 4.55-25.83-2.36-27-5.25s2.16-4.33 7.59-4.41 18.84 8.49 19.41 9.66ZM2563.23 2002.17c-2.27 4.55 25.84-2.36 27-5.25s-2.17-4.33-7.59-4.41-18.83 8.49-19.41 9.66Z" class="color243770 svgShape"></path><ellipse cx="2615.03" cy="2097.8" fill="#5578fa" rx="16.78" ry="10.13" transform="rotate(-.09 2583.05 2071.044)" class="colorfa6855 svgShape"></ellipse><path fill="#021b79" d="M2625 2100.25c-10.62 1.61-22.14 1.49-29.24-1.15-.58-.22-.77-.74-.44-1.16a1.48 1.48 0 0 1 1.64-.42c13.07 4.87 43.22.5 49.64-7.16a1.7 1.7 0 0 1 1.67-.37.74.74 0 0 1 .37 1.2c-3.59 4.2-13.19 7.47-23.64 9.06Z" class="color243770 svgShape"></path><ellipse cx="2660.44" cy="2052.37" fill="#6987fa" rx="14.04" ry="7.49" transform="rotate(-11.55 2659.258 2051.658)" class="colorfa7369 svgShape"></ellipse><path fill="#6987fa" d="M2554.61 2049.56c-.83 4.05 4.66 8.6 12.25 10.15s14.43-.48 15.26-4.53-4.66-8.6-12.26-10.16-14.42.48-15.25 4.54Z" class="colorfa7369 svgShape"></path><path fill="#91bfed" d="M2621.67 2334v.25h-184.73a25.63 25.63 0 0 1-4.37-.25 129.77 129.77 0 0 1-77.92-28.64l-.25-.24c-2.91-28.16 10.93-57.78 35.93-68.7 50.73-21.85 118-14.57 159-36.66v.25c.25 2.67 1.94 22.33 19.18 34.71 10.19 7.28 22.33 10.68 33.74 11.65 1.94 0 3.64.24 5.58.24h.73a41.76 41.76 0 0 0 5.59.25 45.34 45.34 0 0 0 5.82-.25.33.33 0 0 0 .49 0 2.94 2.94 0 0 1 2.42 1.46.24.24 0 0 1 .25.24c8.25 9.18 1.7 60.15-1.46 85.69Z" class="color91a9ed svgShape"></path><path fill="#91bfed" d="M2872.92 2313.08a130.7 130.7 0 0 1-67.24 20.87 25.69 25.69 0 0 1-4.37.25h-194.2v-.2c-3.16-25.49-9.47-75.73-2-85.69a.24.24 0 0 1 .25-.24 3 3 0 0 1 2.42-1.46h.73a41.76 41.76 0 0 0 5.59.25 45.34 45.34 0 0 0 5.82-.25.33.33 0 0 0 .49 0c1.94 0 3.88-.24 6.07-.24 11.65-1 23.54-4.37 33.74-11.65 18.45-13.35 18.93-35 18.93-35 1 .49 2 1 3.16 1.7 41.51 20.15 106.57 13.6 156.09 35 26.99 11.84 40.83 47.58 34.52 76.66Z" class="color91a9ed svgShape"></path><path fill="#021b79" d="M2530.52 1996.13c62.93 2.59 113.57-44.28 113.57-44.28s13.25 39 48.49 45.14 10-78.12-22-86.85-103.12-23.59-119.93-.64-20.13 86.63-20.13 86.63Z" class="color243770 svgShape"></path><path fill="#ffffff" d="M2933.85 305.75v339.13a131.76 131.76 0 0 1-40.78 95.12c-.73.73-1.46 1.22-2.19 2a131.91 131.91 0 0 1-89.57 35.19h-364.37a130.77 130.77 0 0 1-88.85-34.71c-1-.73-1.7-1.7-2.67-2.43a130.83 130.83 0 0 1-40.78-95.15V305.75c0-72.82 59.47-132.3 132.3-132.3h364.37c72.82 0 132.54 59.48 132.54 132.3Z" class="colorffffff svgShape"></path><path fill="#021b79" d="M2705.46 406.94c14.55-29.11 12.64-78.15 8.81-89.26s-18.77-7.27-18.77-7.27 6.13-28.35-51.72-31.8-111.47 2.3-122.58 21.84-1.92 107.64 5 114.15 179.26-7.66 179.26-7.66Z" class="color243770 svgShape"></path><path fill="#a3cefa" d="M2701.11 408.09c4.6-5.36 11.49-7.66 16.47-3.07s-6.51 58.23-20.3 58.23 3.83-55.16 3.83-55.16ZM2537.66 408.09c-4.59-5.36-11.49-7.66-16.47-3.07s6.51 58.23 20.3 58.23-3.83-55.16-3.83-55.16ZM2628.23 680.79a60.39 60.39 0 0 1-14.71.49 14 14 0 0 1-3.18-.49c-40.46-5.39-96.6-39.72-67.43-53.2 23.05-10.54 27.71-32.36 29.18-60.07.49-12 .25-25 .74-39 0 0 29.91-1.47 46.33.74a28.82 28.82 0 0 1 8.09 1.71c3.19 1.23 7.36 12.75 11 28.93 9.35 41.46 15.24 113.54-10.02 120.89Z" class="colorfab2a3 svgShape"></path><path fill="#a3cefa" d="M2628.23 680.79a60.39 60.39 0 0 1-14.71.49 14 14 0 0 1-3.18-.49c-23.05-7.11-19.86-68.65-12-110.57 4.17-21.33 9.32-37.75 13-39.23a28.9 28.9 0 0 1 7.84-1.71c16.43-2.21 46.83-.74 46.83-.74 1 45.85-2.94 83.85 29.91 99.05 29.4 13.73-27.23 48.05-67.69 53.2Z" class="colorfab2a3 svgShape"></path><path fill="#83b4e6" d="M2666 528.54a63 63 0 0 1-27.7 31.38c-11.28 6.62-25 10.3-40 10.3a89.22 89.22 0 0 1-26.23-2.7c.49-12 .25-25 .74-39 0 0 29.91-1.47 46.33.74 16.45-2.19 46.86-.72 46.86-.72ZM2700.73 422c2.32-3.87 10.26-8.12 11.22-6.38s-7.16 35-12 28.64c-2.17-2.86.78-22.26.78-22.26ZM2538 422c-2.32-3.87-10.25-8.12-11.22-6.38s7.16 35 12 28.64C2541 441.4 2538 422 2538 422Z" class="colore69283 svgShape"></path><path fill="#a3cefa" d="M2703.2 431.46c0 70.47-43.46 122.07-83.89 122.07-38.23 0-83.89-51.6-83.89-122.07s-6.39-127.6 83.89-127.6c93.09 0 83.89 57.14 83.89 127.6Z" class="colorfab2a3 svgShape"></path><path fill="#021b79" d="M2610.09 483.4a.75.75 0 0 0 .7-.69.85.85 0 0 0-.56-1c-10.26-2.27-10.53-10.38-10.41-12.48 2.29-1 12.56-5.92 17.34-17.5 3.18-7.72 3.21-16.7.07-26.7a.75.75 0 0 0-.92-.49.91.91 0 0 0-.41 1.09c3 9.54 3 18.06 0 25.34-5 12.19-16.83 16.81-17 16.84l-.42.18-.06.51c0 .12-1.39 12 11.51 14.86a.3.3 0 0 0 .16.04Z" class="color243770 svgShape"></path><ellipse cx="2589.69" cy="430.5" fill="#021b79" rx="5.85" ry="13.83" transform="rotate(-2.19 2594.773 431.137)" class="color243770 svgShape"></ellipse><ellipse cx="2649.09" cy="430.5" fill="#021b79" rx="13.83" ry="5.85" transform="rotate(-87.81 2648.97 430.579)" class="color243770 svgShape"></ellipse><path fill="#021b79" d="M2673.63 394.24c2.27 4.55-25.84-2.36-27-5.26s2.17-4.32 7.6-4.4 18.83 8.51 19.4 9.66ZM2565.14 394.24c-2.27 4.55 25.84-2.36 27-5.26s-2.17-4.32-7.59-4.4-18.83 8.51-19.41 9.66Z" class="color243770 svgShape"></path><ellipse cx="2621.5" cy="510.84" fill="#5578fa" rx="15.51" ry="9.37" transform="rotate(-.09 2584.28 504.96)" class="colorfa6855 svgShape"></ellipse><path fill="#021b79" d="M2630.68 513.1c-9.82 1.49-20.46 1.38-27-1.06-.54-.21-.72-.69-.41-1.08a1.36 1.36 0 0 1 1.51-.38c12.08 4.5 39.95.46 45.89-6.62a1.55 1.55 0 0 1 1.54-.34.69.69 0 0 1 .34 1.11c-3.3 3.88-12.18 6.9-21.87 8.37Z" class="color243770 svgShape"></path><path fill="#6987fa" d="M2686.8 456.45c.93 4.57-5.25 9.69-13.82 11.44s-16.26-.54-17.19-5.11 5.25-9.7 13.81-11.44 16.27.53 17.2 5.11ZM2552 456.45c-.93 4.57 5.26 9.69 13.82 11.44s16.26-.54 17.2-5.11-5.25-9.7-13.82-11.44-16.29.53-17.2 5.11Z" class="colorfa7369 svgShape"></path><path fill="#021b79" d="M2702.9 405.79c-.48-5.63-7.78-42-22.21-52.35s-19.61-49 6.06-33.75 16.15 86.1 16.15 86.1ZM2534.85 405.79c.48-5.63 7.79-42 22.21-52.35s19.61-49-6.06-33.75-16.15 86.1-16.15 86.1Z" class="color243770 svgShape"></path><path fill="#021b79" d="M2690.55 352.86c-34.9 17.88-136.14 6.92-137.87-.58s-30.87-31.15 3.75-43 72.68-27.12 102.68-13 41.82 35.76 39.8 44.7-8.36 11.88-8.36 11.88Z" class="color243770 svgShape"></path><path fill="#91bfed" d="M2624.1 751.44c0 3.4 0 6.56-.24 10 0 3.39-.25 6.79-.25 10 0 1.94-1 3.88-1.7 5.82h-185a130.77 130.77 0 0 1-88.85-34.71c1.22-77.19 78.65-82.53 135.94-97.34 6.56-1.7 12.87-3.64 18.45-5.58 1.46-.73 2.67-1.22 3.88-1.7a112.33 112.33 0 0 0 15.3-7.53s5.58 1.46 14.08 3.64c16 4.37 41.75 11.17 58.26 16.27 6.55 1.94 11.41 3.64 14.08 4.61 1.7.48 3.4 2.43 4.85 5.34.25.48.49.73.49 1.21 2.43 4.86 4.37 11.66 5.58 20.15 0 .49.24 1.21.24 1.7a53.25 53.25 0 0 1 1.22 6.55 4.76 4.76 0 0 0 .24 1.7c0 1.46.24 2.92.24 4.62a.86.86 0 0 1 .25.72c.24 2.43.48 4.86.72 7.53 1.73 14.48 2.22 30.98 2.22 47Z" class="color91a9ed svgShape"></path><path fill="#91bfed" d="M2890.88 742a131.91 131.91 0 0 1-89.57 35.19h-184.25a13.32 13.32 0 0 1-1.7-5.82c-.24-3.16-.24-6.56-.24-10-.24-3.16-.24-6.56-.24-10-.25-16 .48-32.77 1.69-47.33q.38-3.65.73-7.29a.86.86 0 0 1 .25-.72c.24-1.7.48-3.16.72-4.62a3 3 0 0 1 .25-1.45c.24-2.43.48-4.61.72-6.8 0-.49.25-1.21.25-1.7 1.7-8.25 3.64-15 5.82-19.66a12.66 12.66 0 0 1 .73-1.7c1.46-2.91 3.16-4.86 4.61-5.34a22.46 22.46 0 0 1 3.89-1.46c2.67-1 6.07-1.94 10.19-3.15 16.75-5.1 42.73-12.14 58.51-16.27 8.25-2.18 13.59-3.64 13.59-3.64a115.74 115.74 0 0 0 15.54 7.53c1.21.48 2.67 1 4.12 1.7 5.83 1.94 11.9 3.88 18.45 5.58 56.56 14.63 134.49 20.22 135.94 96.95Z" class="color91a9ed svgShape"></path><path fill="#91bfed" d="M2631.33 673.47c-3.62 12.27-10.32 23.14-19.24 12a30.13 30.13 0 0 1-5.58-10.6c-4.46-14.22 3.63-27.05 11.71-29.56V645a3.14 3.14 0 0 1 2.23-.28 1 1 0 0 1 .84-.28s11.44.84 13.11 6.42c.84 2.53-.28 13.14-3.07 22.61Z" class="color91a9ed svgShape"></path><path fill="#5489bf" d="M2620.45 644.74a10.6 10.6 0 0 1-1.11 3.63v.28a.94.94 0 0 0-.28.55c-1.39 3.35-3.35 7.53-5.58 12.27-1.95 4.19-4.46 8.93-7 13.39-9.2 16.46-20.08 32.91-25.1 34.3-8.37 2.51-64.15-53.26-78.93-69.72 1.4-.56 2.79-1.11 3.91-1.67l-.28-.28c0-3.35 44.06-26.22 47.69-26.77 3.35 0 53 24.54 64.7 30.67a.87.87 0 0 1-.56.28c-.27.28-.27.28 0 .84-.27.28-.27 1.11.28 2.51a3.14 3.14 0 0 1 2.26-.28Z" class="color546fbf svgShape"></path><path fill="#5489bf" d="M2736.47 639.44c-14.78 16.46-70.56 72.23-79.2 69.72-5-1.39-16.46-19-25.94-35.69-2.23-4.19-4.18-8.09-6.14-11.72-2.5-5-4.46-9.48-5.85-13.1v-.28a21.63 21.63 0 0 1-1.12-3.07v-.3a3.14 3.14 0 0 1 2.23-.28 3.74 3.74 0 0 0 .56-2.23v-.84a.87.87 0 0 1-.56-.28c11.72-6.13 61.08-30.67 64.71-30.67 3.34.55 47.41 23.42 47.41 26.77l-.28.28Z" class="color546fbf svgShape"></path><path fill="#91bfed" d="M2621 642.51c.56.56-.28 2.79-1.39 5.86h-.28v.28a.94.94 0 0 0-.28.55 120.11 120.11 0 0 1-6.14 10.88c-9.2 14.5-23.42 32.91-29 34.3-8.93 2.23-74.74-52.71-77.53-56.61l-.28-.28c0-3.35 44.06-26.22 47.69-26.77 3.35 0 53 24.54 64.7 30.67a2.12 2.12 0 0 1 1.12.56 12 12 0 0 1 1.39.56Z" class="color91a9ed svgShape"></path><path fill="#91bfed" d="m2732.57 637.49-.28.28c-2.51 3.9-68.33 58.84-77.25 56.61-5.58-1.39-19.8-19.8-29-34.3a105.76 105.76 0 0 1-6.41-11.71h-.28c-1.12-3.07-2-5.3-1.4-5.86a11.77 11.77 0 0 1 1.4-.56h.28c.28-.28.56-.56.83-.56 11.72-6.13 61.08-30.67 64.71-30.67 3.33.55 47.4 23.42 47.4 26.77Z" class="color91a9ed svgShape"></path><circle cx="2619.44" cy="698.09" r="6.75" fill="#5489bf" class="color546fbf svgShape"></circle><path fill="#5489bf" d="M2626.2 756.39a6.76 6.76 0 1 1-6.76-6.75 6.76 6.76 0 0 1 6.76 6.75Z" class="color546fbf svgShape"></path><path fill="#ffffff" d="M1685.29 305.75v339.13a131.75 131.75 0 0 1-38.84 93.21l-2 1.94a132.08 132.08 0 0 1-91.75 37.14h-364.32a131.07 131.07 0 0 1-91.52-37.17 11.25 11.25 0 0 1-1.7-1.69 130.13 130.13 0 0 1-39.08-93.46v-339.1c0-72.82 59.47-132.3 132.3-132.3h364.37c72.82 0 132.54 59.48 132.54 132.3Z" class="colorffffff svgShape"></path><path fill="#021b79" d="M1398 306.49c-38.52-51.83-111-26.79-134.83 39.75S1197.34 576 1197.34 576s55.33 37.12 141.49 38.52S1398 306.49 1398 306.49Z" class="color243770 svgShape"></path><path fill="#021b79" d="M1358.09 332.23c38.52-51.83 96.85-34.49 116.62 15.76 25.88 65.77 74.59 228 74.59 228s-55.34 37.12-141.49 38.52-49.72-282.28-49.72-282.28Z" class="color243770 svgShape"></path><path fill="#a3cefa" d="M1447.73 430.31c4.32-5 10.79-7.2 15.47-2.88s-6.12 54.71-19.07 54.71 3.6-51.83 3.6-51.83ZM1294.16 430.31c-4.32-5-10.8-7.2-15.48-2.88s6.12 54.71 19.08 54.71-3.6-51.83-3.6-51.83ZM1379.26 686.53a57.11 57.11 0 0 1-13.83.46 13.46 13.46 0 0 1-3-.46c-38-5.07-90.76-37.32-63.34-50 21.65-9.9 26-30.41 27.41-56.43.46-11.29.23-23.5.69-36.63 0 0 28.1-1.38 43.53.69a27 27 0 0 1 7.6 1.61c3 1.16 6.91 12 10.37 27.19 8.76 38.93 14.31 106.65-9.43 113.57Z" class="colorfab2a3 svgShape"></path><path fill="#a3cefa" d="M1379.26 686.53a57.11 57.11 0 0 1-13.83.46 13.46 13.46 0 0 1-3-.46c-21.65-6.68-18.66-64.5-11.29-103.89 3.92-20 8.76-35.47 12.21-36.86a27.15 27.15 0 0 1 7.37-1.61c15.44-2.07 44-.69 44-.69.92 43.07-2.77 78.78 28.1 93.06 27.65 12.9-25.56 45.15-63.56 49.99Z" class="colorfab2a3 svgShape"></path><path fill="#83b4e6" d="M1414.73 543.48a59.17 59.17 0 0 1-26 29.49c-10.6 6.21-23.5 9.67-37.55 9.67a84 84 0 0 1-24.64-2.53c.46-11.29.23-23.5.69-36.63 0 0 28.1-1.38 43.53.69 15.41-2.07 43.97-.69 43.97-.69ZM1447.37 443.39c2.18-3.63 9.64-7.63 10.55-6s-6.73 32.91-11.28 26.91c-2.04-2.7.73-20.91.73-20.91ZM1294.52 443.39c-2.18-3.63-9.64-7.63-10.55-6s6.73 32.91 11.27 26.91c2.05-2.7-.72-20.91-.72-20.91Z" class="colore69283 svgShape"></path><path fill="#a3cefa" d="M1449.69 452.26c0 66.21-40.83 114.7-78.82 114.7-35.92 0-78.82-48.49-78.82-114.7s-6-119.88 78.82-119.88c87.46 0 78.82 53.68 78.82 119.88Z" class="colorfab2a3 svgShape"></path><path fill="#021b79" d="M1362.21 501.06a.7.7 0 0 0 .66-.64.79.79 0 0 0-.53-.92c-9.64-2.14-9.89-9.75-9.78-11.73 2.15-.92 11.8-5.55 16.29-16.44 3-7.25 3-15.69.07-25.08a.7.7 0 0 0-.86-.46.84.84 0 0 0-.39 1c2.81 9 2.8 17 0 23.81-4.7 11.45-15.82 15.79-15.93 15.82l-.39.17v.47c0 .12-1.31 11.27 10.81 14ZM1345.77 451.13c.31 8.05-2.2 14.68-5.6 14.81s-6.42-6.29-6.73-14.34 2.2-14.69 5.61-14.82 6.41 6.29 6.72 14.35ZM1396.12 451.13c-.31 8.05 2.2 14.68 5.6 14.81s6.42-6.29 6.72-14.34-2.2-14.69-5.6-14.82-6.41 6.29-6.72 14.35ZM1425.15 425.55c2.4 4.82-27.37-2.5-28.63-5.57s2.29-4.58 8-4.67 20.02 9.02 20.63 10.24ZM1316.74 425.55c-2.4 4.82 27.37-2.5 28.63-5.57s-2.3-4.58-8-4.67-20.02 9.02-20.63 10.24Z" class="color243770 svgShape"></path><ellipse cx="1371.61" cy="526.85" fill="#5578fa" rx="17.77" ry="10.73" transform="rotate(-.09 1355.59 523.093)" class="colorfa6855 svgShape"></ellipse><path fill="#021b79" d="M1382.12 529.44c-11.24 1.7-23.45 1.58-31-1.21-.62-.24-.82-.8-.47-1.24a1.55 1.55 0 0 1 1.73-.44c13.85 5.15 45.79.53 52.59-7.59a1.78 1.78 0 0 1 1.77-.38.77.77 0 0 1 .39 1.26c-3.72 4.45-13.89 7.92-25.01 9.6Z" class="color243770 svgShape"></path><ellipse cx="1419.71" cy="478.72" fill="#6987fa" rx="14.87" ry="7.94" transform="rotate(-11.5 1421.44 477.594)" class="colorfa7369 svgShape"></ellipse><path fill="#6987fa" d="M1307.61 475.74c-.88 4.3 4.93 9.11 13 10.76s15.28-.51 16.16-4.81-4.94-9.1-13-10.75-15.29.51-16.16 4.8Z" class="colorfa7369 svgShape"></path><path fill="#a3cefa" d="M1299 636.54s-23.55 10.56-39.31 12.46 93.65 110 113.39 103.64 8.86-76.18-5.82-88.58-68.26-27.52-68.26-27.52Z" class="colorfab2a3 svgShape"></path><path fill="#a3cefa" d="M1443 636.54s23.55 10.56 39.31 12.46-93.65 110-113.39 103.64-8.86-76.18 5.82-88.58 68.26-27.52 68.26-27.52Z" class="colorfab2a3 svgShape"></path><path fill="#a3cefa" d="M1260.85 649c-51.56 8-61.72 8-76 11.46s80.7 91.5 146.75 90.71 51.82-61.31 31.65-76.74-102.4-25.43-102.4-25.43Z" class="colorfab2a3 svgShape"></path><path fill="#a3cefa" d="M1481.14 649c51.56 8 61.72 8 76 11.46s-80.7 91.5-146.75 90.71-51.82-61.31-31.65-76.74 102.4-25.43 102.4-25.43Z" class="colorfab2a3 svgShape"></path><path fill="#91bfed" d="M1397.87 777.17h-209.49a131.07 131.07 0 0 1-91.52-37.17 11.25 11.25 0 0 1-1.7-1.69c-.24-27.19 13.84-54.14 38.35-64.58 17.48-7.52 36.66-11.89 56.57-14.8v.24h.24c24.76 33.5 75.74 59 137.88 67 9.71 1.45 19.91 2.18 30.1 2.67 2.43 0 4.61.24 7 .24h10.7c0 .24.25.73.25 1 1.45 5.34 2.91 10.92 4.36 14.32v.49a8.61 8.61 0 0 0 1.46 2.18 6.56 6.56 0 0 1 1.46 1.22c8.47 6.55 13.13 17.96 14.34 28.88Z" class="color91a9ed svgShape"></path><path fill="#91bfed" d="m1646.45 738.09-2 1.94a132.08 132.08 0 0 1-91.75 37.14h-209c1.45-10.92 6.06-22.08 14.56-29.13.49-.48 1.22-1 1.7-1.45a12.15 12.15 0 0 1 1.21-1.7.76.76 0 0 1 .25-.49c1.21-2.91 2.91-8.49 4.85-13.35.24-.73.49-1.21.73-1.94h9.71c2.19 0 4.61-.24 6.8-.24 10.19-.49 20.39-1.22 30.1-2.43 62.39-8 113.61-33.5 137.88-67.24h.24v-.2c19.91 2.91 39.09 7.28 56.57 14.8 23.82 10.2 37.7 37.83 38.15 64.29Z" class="color91a9ed svgShape"></path><path fill="#021b79" d="M1288.44 424.38c1.58-20 41.33-20.11 63.55-29 27.16-10.87 34.55-29.79 34.55-29.79s-.79 18.19 19.77 32.17 43 16.61 46.15 24.26 4.48-31.12 2.37-51.95-15.29-32.44-36.91-38.5-85.71-27.69-110.76 7.91-18.72 84.9-18.72 84.9Z" class="color243770 svgShape"></path><path fill="#ffffff" d="M3454.72 1281.86H511.57a8.69 8.69 0 0 1 0-17.37h2943.15a8.69 8.69 0 0 1 0 17.37Z" class="colorffffff svgShape"></path><path fill="#ffffff" d="M2308.69 1085.86V1425a133 133 0 0 1-132.54 132.29h-364.37a133 133 0 0 1-132.3-132.29v-339.14c0-72.82 59.47-132.3 132.3-132.3h364.37c72.85 0 132.54 59.44 132.54 132.3Z" class="colorffffff svgShape"></path><path fill="#021b79" d="M1903.08 1186.44c-14.41-28.82-12.52-77.37-8.72-88.37s18.58-7.21 18.58-7.21-6.07-28.07 51.21-31.48 110.37 2.27 121.37 21.62 1.9 106.58-4.93 113-177.51-7.56-177.51-7.56Z" class="color243770 svgShape"></path><path fill="#a3cefa" d="M2074.9 1187.58c4.56-5.31 11.38-7.58 16.31-3s-6.44 57.65-20.1 57.65 3.79-54.65 3.79-54.65ZM1913.07 1187.58c-4.55-5.31-11.38-7.58-16.31-3s6.45 57.65 20.1 57.65-3.79-54.65-3.79-54.65ZM2002.75 1457.6a60.24 60.24 0 0 1-14.57.48 14.49 14.49 0 0 1-3.16-.48c-40-5.34-95.64-39.33-66.75-52.68 22.82-10.44 27.43-32 28.88-59.47.49-11.9.25-24.77.73-38.6 0 0 29.62-1.46 45.88.73a28.29 28.29 0 0 1 8 1.7c3.16 1.21 7.29 12.62 10.93 28.64 9.23 41.02 15.06 112.39-9.94 119.68Z" class="colorfab2a3 svgShape"></path><path fill="#a3cefa" d="M2002.75 1457.6a60.24 60.24 0 0 1-14.57.48 14.49 14.49 0 0 1-3.16-.48c-22.82-7-19.66-68-11.89-109.49 4.13-21.11 9.22-37.38 12.87-38.83a28.37 28.37 0 0 1 7.76-1.7c16.27-2.19 46.37-.73 46.37-.73 1 45.39-2.91 83 29.61 98.07 29.13 13.59-26.94 47.58-66.99 52.68Z" class="colorfab2a3 svgShape"></path><path fill="#83b4e6" d="M2040.13 1306.85a62.34 62.34 0 0 1-27.43 31.07c-11.17 6.55-24.76 10.19-39.57 10.19a88.5 88.5 0 0 1-26-2.66c.49-11.9.25-24.77.73-38.6 0 0 29.62-1.46 45.88.73 16.26-2.19 46.39-.73 46.39-.73ZM2074 1202.58c2.28-3.81 10.09-8 11-6.28s-7 34.46-11.8 28.17c-2.08-2.82.8-21.89.8-21.89ZM1914 1202.58c-2.28-3.81-10.09-8-11-6.28s7 34.46 11.8 28.17c2.05-2.82-.8-21.89-.8-21.89Z" class="colore69283 svgShape"></path><path fill="#a3cefa" d="M2077 1210.72c0 69.77-43 120.87-83.07 120.87-37.85 0-83.07-51.1-83.07-120.87s-6.32-126.34 83.07-126.34c92.15 0 83.07 56.56 83.07 126.34Z" class="colorfab2a3 svgShape"></path><path fill="#021b79" d="M1984.78 1262.15a.73.73 0 0 0 .69-.68.82.82 0 0 0-.55-1c-10.16-2.25-10.43-10.28-10.31-12.36 2.26-1 12.44-5.86 17.17-17.33 3.15-7.65 3.17-16.54.07-26.43a.74.74 0 0 0-.91-.49.91.91 0 0 0-.41 1.08c3 9.44 3 17.88 0 25.09-5 12.07-16.67 16.64-16.79 16.68l-.41.17-.06.5c0 .12-1.38 11.88 11.39 14.72a.3.3 0 0 0 .12.05ZM1970.36 1209.55c.29 7.55-2.06 13.78-5.26 13.9s-6-5.91-6.31-13.46 2.07-13.78 5.26-13.9 6.02 5.91 6.31 13.46ZM2017.61 1209.55c-.29 7.55 2.07 13.78 5.26 13.9s6-5.91 6.31-13.46-2.07-13.78-5.26-13.9-6.02 5.91-6.31 13.46ZM2047.7 1173.87c2.24 4.5-25.59-2.34-26.76-5.21s2.14-4.28 7.51-4.36 18.68 8.43 19.25 9.57ZM1940.27 1173.87c-2.24 4.5 25.59-2.34 26.77-5.21s-2.15-4.28-7.52-4.36-18.68 8.43-19.25 9.57Z" class="color243770 svgShape"></path><path fill="#5578fa" d="M2011.43 1289.29c0 5.12-6.85 9.28-15.33 9.3s-15.37-4.13-15.38-9.25 6.86-9.28 15.34-9.3 15.36 4.13 15.37 9.25Z" class="colorfa6855 svgShape"></path><path fill="#021b79" d="M2005.16 1291.56c-9.71 1.47-20.25 1.36-26.75-1-.53-.21-.71-.69-.4-1.07a1.34 1.34 0 0 1 1.49-.38c12 4.45 39.56.46 45.44-6.56a1.55 1.55 0 0 1 1.53-.33.68.68 0 0 1 .33 1.1c-3.25 3.79-12.03 6.78-21.64 8.24Z" class="color243770 svgShape"></path><path fill="#6987fa" d="M2060.73 1235.46c.93 4.53-5.2 9.6-13.68 11.33s-16.1-.53-17-5.06 5.2-9.6 13.68-11.33 16.08.53 17 5.06Z" class="colorfa7369 svgShape"></path><ellipse cx="1942.59" cy="1238.6" fill="#6987fa" rx="8.37" ry="15.67" transform="rotate(-78.45 1942.741 1238.58)" class="colorfa7369 svgShape"></ellipse><path fill="#021b79" d="M1910.79 1185.3c.47-5.57 7.71-41.55 22-51.83s19.42-48.55-6-33.42-16 85.25-16 85.25ZM2077.18 1185.3c-.47-5.57-7.71-41.55-22-51.83s-19.42-48.55 6-33.42 16 85.25 16 85.25Z" class="color243770 svgShape"></path><path fill="#021b79" d="M1923 1132.9c34.56 17.7 134.8 6.85 136.51-.58s30.56-30.84-3.71-42.55-72-26.84-101.67-12.85-41.41 35.41-39.41 44.27 8.28 11.71 8.28 11.71ZM2032.12 1238.94a28.39 28.39 0 1 1 28.38-28.38 28.42 28.42 0 0 1-28.38 28.38Zm0-51.91a23.53 23.53 0 1 0 23.54 23.53 23.57 23.57 0 0 0-23.54-23.56ZM1955.86 1238.94a28.39 28.39 0 1 1 28.38-28.38 28.42 28.42 0 0 1-28.38 28.38Zm0-51.91a23.53 23.53 0 1 0 23.54 23.53 23.56 23.56 0 0 0-23.54-23.56Z" class="color243770 svgShape"></path><path fill="#021b79" d="m1983.36 1212.43-3.08-3.75c11.19-9.17 22.85-3.94 27.45 0l-3.18 3.67c-.42-.35-10.43-8.78-21.19.08ZM2060.12 1211.87l-4.08-2.63 22.88-35.58 4.07 2.63-22.87 35.58zM1927.58 1211.87l-22.88-35.58 4.08-2.63 22.87 35.58-4.07 2.63z" class="color243770 svgShape"></path><path fill="#91bfed" d="M1998.21 1551.46a13.32 13.32 0 0 1-1.7 5.82h-184.73a131 131 0 0 1-91.52-37.14c2.67-74.28 80.35-79.38 137.16-94.18 6.07-1.7 11.89-3.4 17.23-5.1 1.95-.73 3.64-1.22 5.34-1.94a103.14 103.14 0 0 0 15.54-7.53s6.07 1.46 14.81 3.89c16.26 4.12 42.48 11.16 59 16.26a74.57 74.57 0 0 1 10 2.91h.24c1.46.49 2.43 1 3.16 1.22 1.7.48 3.15 2.42 4.61 5.09.24.25.24.49.48.73a4.21 4.21 0 0 0 .49 1.22c1.94 3.88 3.4 9.22 4.86 15.53.24 1.7.72 3.64 1 5.59.72 3.88 1.21 8.25 1.7 12.86a.9.9 0 0 1 .24.73 30.3 30.3 0 0 1 .48 4.85 11.58 11.58 0 0 1 .25 2.92 40.28 40.28 0 0 1 .48 5.58 460.51 460.51 0 0 1 .88 60.69Z" class="color91a9ed svgShape"></path><path fill="#91bfed" d="M2267.91 1520.14a132.06 132.06 0 0 1-91.76 37.14h-184.49a13.32 13.32 0 0 1-1.7-5.82 460.51 460.51 0 0 1 1-60.69 38.75 38.75 0 0 1 .49-5.58v-.25a6.8 6.8 0 0 1 .24-2.18 36.79 36.79 0 0 1 .48-5.34.88.88 0 0 1 .25-.73c.48-4.61 1-9 1.7-12.86a36.72 36.72 0 0 1 1.21-5.59 87.12 87.12 0 0 1 4.13-14.8 5.78 5.78 0 0 1 1-1.7 1.87 1.87 0 0 1 .48-1c1.46-2.67 2.92-4.37 4.62-5.09.72-.25 1.7-.73 3.15-1.22 2.43-.73 6.07-1.94 10.2-3.15 16.5-4.86 42.72-11.9 59-16 8.73-2.43 14.8-3.89 14.8-3.89a84.36 84.36 0 0 0 15.54 7.53c1.46.48 3.15 1.21 4.61 1.7 5.58 1.94 11.65 3.64 18 5.34 56.7 14.8 134.38 19.9 137.05 94.18Z" class="color91a9ed svgShape"></path><path fill="#5489bf" d="M2005.17 1557.37h-37.87c2.43-24 5.59-52.19 9-72.34 0 0 9-7.77 16-8.26a2.14 2.14 0 0 1 1.21.25h1a3.49 3.49 0 0 1 1.46.48.24.24 0 0 0 .24.24c3.86 2.43 7.02 45.16 8.96 79.63Z" class="color546fbf svgShape"></path><path fill="#5489bf" d="M2020.71 1557.37h-37.87c1.94-34.47 5.1-77.2 9-79.63a.24.24 0 0 0 .24-.24 3.49 3.49 0 0 1 1.46-.48h1a2.14 2.14 0 0 1 1.21-.25c7 .49 16 8.26 16 8.26 3.37 20.15 6.53 48.3 8.96 72.34ZM1988.18 1442.79c-9.71 17.72-26.22 42-32.53 43.69-8.74 2.19-70.4-54.37-81.08-65.54a110.65 110.65 0 0 0 20.88-9.47s74.52 19.18 87.15 24.28c1.94.73 3.88 3.15 5.58 7.04ZM1995.22 1425.07c.48.73-.24 3.4-1.46 6.79-1.45-3.39-2.18-6.06-1.7-6.79 0 0 .49-.24 1.7-1a10.53 10.53 0 0 0 1.46 1Z" class="color546fbf svgShape"></path><path fill="#5489bf" d="M1993.76 1424.1a10.53 10.53 0 0 0 1.46 1c.48.73-.24 3.4-1.46 6.79-1.45-3.39-2.18-6.06-1.7-6.79 0-.03.49-.27 1.7-1ZM2112.71 1420.7c-9.95 10.68-72.34 68-81.32 65.78-6.07-1.7-22.09-25.49-32-43 1.94-4.13 3.88-6.8 6.07-7.77 12.62-5.1 87.14-24.28 87.14-24.28a103.41 103.41 0 0 0 20.11 9.27Z" class="color546fbf svgShape"></path><path fill="#0575e6" d="M1976.09 1484.79c10.3 10.57 35.65 5.85 35.7-.14s-35.7.14-35.7.14Z" class="color3f5ab0 svgShape"></path><path fill="#5489bf" d="M1962 1454.75c2.85 9.71 11.71 29.42 14.28 30.28s23.7 0 23.7 0 5.43-55.41-6-57.69-31.98 27.41-31.98 27.41Z" class="color546fbf svgShape"></path><path fill="#5489bf" d="M2026.07 1454.75c-2.86 9.71-11.71 29.42-14.28 30.28s-23.71 0-23.71 0-5.42-55.41 6-57.69 31.99 27.41 31.99 27.41Z" class="color546fbf svgShape"></path><path fill="#91bfed" d="M1995.46 1423.63s-64.23-31.86-67.77-31.35-49.06 23.77-48 26.29 69.28 58.67 78.38 56.65 39.93-48.05 37.39-51.59Z" class="color91a9ed svgShape"></path><path fill="#91bfed" d="M1992.55 1423.63s64.23-31.86 67.77-31.35 49.06 23.77 48 26.29-69.29 58.67-78.39 56.65-39.93-48.05-37.38-51.59Z" class="color91a9ed svgShape"></path><path fill="#5489bf" d="M1944.81 1557.31h-133a131.05 131.05 0 0 1-91.52-37.15c2.67-74.29 80.35-79.39 137.16-94.2 14.29 25.73 57.98 89.34 87.36 131.35ZM2267.91 1520.16a132.06 132.06 0 0 1-91.76 37.15h-132.79c29.38-42 73.07-105.62 87.39-131.35 56.81 14.81 134.49 19.91 137.16 94.2Z" class="color546fbf svgShape"></path><path fill="#ffffff" d="M845.23 1085.94v339.13a131.8 131.8 0 0 1-40.78 95.16 49.06 49.06 0 0 1-3.89 3.39 131.19 131.19 0 0 1-87.87 33.75H348.32a130.08 130.08 0 0 1-87.15-33.26c-1.46-1.21-2.91-2.43-4.37-3.88a130.83 130.83 0 0 1-40.8-95.16v-339.13c0-72.82 59.47-132.3 132.3-132.3h364.39c72.82 0 132.54 59.48 132.54 132.3Z" class="colorffffff svgShape"></path><path fill="#021b79" d="M461 1102.12c52.36-73.1 160.38-50.71 185.08 33.26s8.56 286.84 44.13 342.16-300.37 45.46-289.5-19.76-12-281.43 8.89-331c17.12-40.46 51.4-24.66 51.4-24.66Z" class="color243770 svgShape"></path><path fill="#a3cefa" d="M606.07 1217.56c4.23-4.94 10.57-7.06 15.16-2.82s-6 53.59-18.69 53.59 3.53-50.77 3.53-50.77ZM455.62 1217.56c-4.24-4.94-10.58-7.06-15.17-2.82s6 53.59 18.69 53.59-3.52-50.77-3.52-50.77ZM539 1468.57a55.69 55.69 0 0 1-13.54.45 12.93 12.93 0 0 1-2.93-.45c-37.24-5-88.91-36.56-62.06-49 21.21-9.7 25.5-29.79 26.86-55.29.45-11.06.22-23 .67-35.88 0 0 27.53-1.35 42.65.68a26.16 26.16 0 0 1 7.45 1.58c2.93 1.13 6.77 11.73 10.16 26.63 8.55 38.16 13.97 104.51-9.26 111.28Z" class="colorfab2a3 svgShape"></path><path fill="#a3cefa" d="M539 1468.57a55.69 55.69 0 0 1-13.54.45 12.93 12.93 0 0 1-2.93-.45c-21.21-6.54-18.28-63.19-11.06-101.78 3.84-19.63 8.58-34.75 12-36.1a26.3 26.3 0 0 1 7.22-1.58c15.12-2 43.11-.68 43.11-.68.9 42.2-2.71 77.18 27.53 91.17 27.02 12.64-25.11 44.23-62.33 48.97Z" class="colorfab2a3 svgShape"></path><path fill="#83b4e6" d="M573.74 1328.43a58 58 0 0 1-25.5 28.89c-10.38 6.09-23 9.47-36.79 9.47a81.89 81.89 0 0 1-24.14-2.48c.45-11.06.22-23 .67-35.88 0 0 27.53-1.35 42.65.68 15.12-2.03 43.11-.68 43.11-.68ZM605.72 1230.37c2.13-3.56 9.44-7.48 10.33-5.88s-6.59 32.24-11 26.37c-2.05-2.64.67-20.49.67-20.49ZM456 1230.37c-2.14-3.56-9.45-7.48-10.34-5.88s6.59 32.24 11.05 26.37c1.97-2.64-.71-20.49-.71-20.49Z" class="colore69283 svgShape"></path><path fill="#a3cefa" d="M608 1239.07c0 64.86-40 112.36-77.22 112.36-35.19 0-77.22-47.5-77.22-112.36s-5.88-117.45 77.22-117.45c85.68 0 77.22 52.58 77.22 117.45Z" class="colorfab2a3 svgShape"></path><path fill="#021b79" d="M522.29 1286.87a.68.68 0 0 0 .64-.63.78.78 0 0 0-.52-.9c-9.44-2.09-9.69-9.55-9.58-11.49 2.1-.9 11.56-5.44 16-16.11 2.92-7.1 3-15.37.07-24.57a.69.69 0 0 0-.85-.45.83.83 0 0 0-.38 1c2.76 8.78 2.75 16.63 0 23.33-4.61 11.21-15.5 15.47-15.61 15.5l-.38.16-.06.47c0 .11-1.28 11 10.59 13.68ZM506.18 1238c.3 7.89-2.16 14.39-5.49 14.51s-6.29-6.16-6.59-14 2.16-14.38 5.49-14.51 6.29 6.06 6.59 14Z" class="color243770 svgShape"></path><ellipse cx="561.54" cy="1238.18" fill="#021b79" rx="14.29" ry="6.04" transform="rotate(-87.7 563.363 1238.059)" class="color243770 svgShape"></ellipse><path fill="#021b79" d="M583.94 1212.89c2.36 4.72-26.81-2.45-28-5.45s2.25-4.49 7.87-4.58 19.54 8.84 20.13 10.03ZM477.74 1212.89c-2.36 4.72 26.81-2.45 28-5.45s-2.24-4.49-7.87-4.58-19.54 8.84-20.13 10.03Z" class="color243770 svgShape"></path><ellipse cx="531.49" cy="1312.13" fill="#5578fa" rx="17.41" ry="10.52" transform="rotate(-.09 527.38 1292.753)" class="colorfa6855 svgShape"></ellipse><path fill="#021b79" d="M541.79 1314.67c-11 1.67-23 1.55-30.34-1.19-.6-.23-.8-.77-.45-1.2a1.49 1.49 0 0 1 1.69-.43c13.57 5 44.86.51 51.53-7.44a1.74 1.74 0 0 1 1.78-.41c.58.26.76.8.39 1.24-3.74 4.39-13.71 7.76-24.6 9.43Z" class="color243770 svgShape"></path><path fill="#6987fa" d="M592.89 1262.07c.86 4.2-4.83 8.92-12.71 10.53s-15-.49-15.83-4.7 4.83-8.93 12.71-10.54 14.94.5 15.83 4.71ZM468.79 1262.07c-.86 4.2 4.83 8.92 12.72 10.53s15-.49 15.83-4.7-4.84-8.93-12.72-10.54-14.97.5-15.83 4.71Z" class="colorfa7369 svgShape"></path><path fill="#021b79" d="M444.26 1207.16c48-.37 61.37-46.86 61.37-46.86s40.17 56.16 104.51 35.7-27.52-100.79-85.54-92.24-83.32 40.17-85.18 53.93 4.84 49.47 4.84 49.47Z" class="color243770 svgShape"></path><path fill="#a3cefa" d="M460.39 1419.6s-23.07 10.35-38.5 12.2 91.74 107.74 111.11 101.54 8.68-74.63-5.7-86.78-66.91-26.96-66.91-26.96Z" class="colorfab2a3 svgShape"></path><path fill="#a3cefa" d="M601.39 1419.6s23.07 10.35 38.5 12.2-91.74 107.74-111.08 101.54-8.68-74.63 5.7-86.78 66.88-26.96 66.88-26.96Z" class="colorfab2a3 svgShape"></path><path fill="#91bfed" d="M557.08 1557.37H348.32a130.08 130.08 0 0 1-87.15-33.26c-2.18-28.16 11.89-57.29 37.14-68.21 32-13.6 70.4-16.27 104.87-21.37 11.16-1.7 21.6-3.39 31.56-6.06 0 .24 0 .24.24.48 6.07 25 33.74 59.23 64.81 78.65a106.59 106.59 0 0 0 18.7 10 1.41 1.41 0 0 0 1 .25 67.07 67.07 0 0 0 10.43 3.64c.49 0 .73.24 1 .24a21.67 21.67 0 0 1 9 4.86 7.66 7.66 0 0 1 1.7 1.21 4.09 4.09 0 0 1 1.45 1.46c8.19 6.26 12.8 17.42 14.01 28.11Z" class="color91a9ed svgShape"></path><path fill="#91bfed" d="M800.56 1523.62a131.19 131.19 0 0 1-87.87 33.75H504.16c1.46-10.69 6.07-21.85 14.33-28.41a5.16 5.16 0 0 1 1.45-1.69 5.3 5.3 0 0 1 1.94-1.22 20.82 20.82 0 0 1 9-4.37c.48-.24.48-.24.72-.24 3.4-1 7.29-2.19 10.93-3.64.24 0 .24-.25.48-.25a75.08 75.08 0 0 0 10-4.85c34.22-18.21 67-56.8 73.31-84 .24-.24.24-.24.24-.49 15.29 4.13 32.29 6.31 49.52 8.74 29.86 3.89 60.93 7.53 87.63 18.94 24.47 10.69 38.07 40.3 36.85 67.73Z" class="color91a9ed svgShape"></path><path fill="#ffffff" d="M3773.91 1083.32v341a132.53 132.53 0 0 1-41 95.69c-.73.73-1.47 1.22-2.2 2-.49.25-.73.73-1.22 1a84.26 84.26 0 0 1-10.25 8.3 131.25 131.25 0 0 1-53.22 23.67 125.94 125.94 0 0 1-25.38 2.45h-366.4a125.29 125.29 0 0 1-19.28-1.47 59.25 59.25 0 0 1-7.08-1.22 130.8 130.8 0 0 1-62-31.49c-.24-.24-.73-.49-1-.73-1-.73-1.71-1.71-2.69-2.44a12.78 12.78 0 0 1-2.44-2.69 130.78 130.78 0 0 1-38.57-93v-341c0-73.23 59.81-133 133-133h366.4c73.28-.11 133.33 59.7 133.33 132.93Z" class="colorffffff svgShape"></path><path fill="#021b79" d="M3495.11 1338.23c39.06 4 68.19-56.27 80.77-133.73 7.85-48.37-49-133.73-95.34-143.66s-83.41 40.38-83.41 40.38-35.09-17.21-59.59 5.3 11.92 200.6 32.44 218.47 53.63 16.55 64.22 13.9 60.91-.66 60.91-.66Z" class="color243770 svgShape"></path><path fill="#a3cefa" d="M3527.35 1222.19c4.18-4.88 10.46-7 15-2.79s-5.93 53-18.48 53 3.48-50.21 3.48-50.21ZM3378.59 1222.19c-4.18-4.88-10.46-7-15-2.79s5.92 53 18.48 53-3.48-50.21-3.48-50.21ZM3461 1470.39a54.94 54.94 0 0 1-13.39.44 13.32 13.32 0 0 1-2.9-.44c-36.81-4.91-87.91-36.15-61.36-48.42 21-9.6 25.21-29.46 26.55-54.67.45-10.94.23-22.76.67-35.48 0 0 27.22-1.34 42.17.67a26.11 26.11 0 0 1 7.37 1.56c2.9 1.12 6.69 11.6 10 26.33 8.54 37.71 13.89 103.31-9.11 110.01Z" class="colorfab2a3 svgShape"></path><path fill="#a3cefa" d="M3461 1470.39a54.94 54.94 0 0 1-13.39.44 13.32 13.32 0 0 1-2.9-.44c-21-6.47-18.07-62.48-10.93-100.64 3.79-19.41 8.48-34.36 11.83-35.7a26 26 0 0 1 7.13-1.56c15-2 42.62-.67 42.62-.67.9 41.72-2.67 76.31 27.23 90.15 26.79 12.49-24.75 43.73-61.59 48.42Z" class="colorfab2a3 svgShape"></path><path fill="#83b4e6" d="M3495.38 1331.82a57.3 57.3 0 0 1-25.21 28.56 71.74 71.74 0 0 1-36.37 9.37 81.13 81.13 0 0 1-23.88-2.45c.45-10.94.23-22.76.67-35.48 0 0 27.22-1.34 42.17.67 14.96-2.01 42.62-.67 42.62-.67ZM3527 1234.86c2.12-3.52 9.34-7.4 10.22-5.81s-6.52 31.88-10.92 26.07c-1.98-2.62.7-20.26.7-20.26ZM3378.93 1234.86c-2.11-3.52-9.33-7.4-10.21-5.81s6.52 31.88 10.92 26.07c1.98-2.62-.71-20.26-.71-20.26Z" class="colore69283 svgShape"></path><path fill="#a3cefa" d="M3529.25 1243.46c0 64.13-39.56 111.1-76.35 111.1-34.8 0-76.35-47-76.35-111.1s-5.81-116.13 76.35-116.13c84.72 0 76.35 51.99 76.35 116.13Z" class="colorfab2a3 svgShape"></path><path fill="#021b79" d="M3444.51 1290.73a.69.69 0 0 0 .64-.62.78.78 0 0 0-.52-.9c-9.33-2.07-9.58-9.44-9.47-11.36a30.87 30.87 0 0 0 15.78-15.93c2.89-7 2.92-15.2.07-24.29a.69.69 0 0 0-.84-.45.84.84 0 0 0-.38 1c2.73 8.68 2.72 16.44 0 23.07-4.55 11.09-15.32 15.29-15.43 15.32l-.38.16v.47c0 .11-1.27 10.91 10.47 13.52ZM3431.25 1242.38c.27 6.94-1.89 12.67-4.83 12.78s-5.53-5.43-5.8-12.37 1.9-12.67 4.84-12.78 5.54 5.42 5.79 12.37Z" class="color243770 svgShape"></path><ellipse cx="3480" cy="1242.58" fill="#021b79" rx="12.59" ry="5.32" transform="rotate(-87.81 3479.823 1242.665)" class="color243770 svgShape"></ellipse><path fill="#021b79" d="M3502.34 1209.59c2.06 4.14-23.52-2.15-24.6-4.79s2-3.94 6.91-4 17.17 7.74 17.69 8.79ZM3403.6 1209.59c-2.07 4.14 23.51-2.15 24.6-4.79s-2-3.94-6.91-4-17.17 7.74-17.69 8.79Z" class="color243770 svgShape"></path><path fill="#5578fa" d="M3469 1315.68c0 4.71-6.3 8.53-14.1 8.55s-14.12-3.79-14.13-8.5 6.3-8.54 14.09-8.55 14.14 3.82 14.14 8.5Z" class="colorfa6855 svgShape"></path><path fill="#021b79" d="M3463.24 1317.76c-8.93 1.36-18.62 1.26-24.59-1-.48-.19-.65-.63-.37-1a1.23 1.23 0 0 1 1.38-.35c11 4.09 36.35.42 41.76-6a1.4 1.4 0 0 1 1.41-.3.62.62 0 0 1 .31 1c-2.99 3.56-11.07 6.32-19.9 7.65Z" class="color243770 svgShape"></path><path fill="#6987fa" d="M3514.33 1266.2c.85 4.16-4.78 8.82-12.58 10.42s-14.8-.49-15.65-4.65 4.78-8.83 12.57-10.42 14.81.45 15.66 4.65ZM3391.61 1266.2c-.85 4.16 4.78 8.82 12.58 10.42s14.8-.49 15.65-4.65-4.78-8.83-12.57-10.42-14.81.45-15.66 4.65Z" class="colorfa7369 svgShape"></path><path fill="#91bfed" d="M3465.85 1488.28c1 20-2.93 50.78-5.13 69.09h-186.49a125.29 125.29 0 0 1-19.28-1.47 59.25 59.25 0 0 1-7.08-1.22 130.8 130.8 0 0 1-62-31.49c-.73-20.5 6.84-41 21.24-54.43a.24.24 0 0 1 .25-.25A48.85 48.85 0 0 1 3223 1458c52.24-22.46 121.32-15.14 163.06-37.84v.24c.24 2.69 2.19 22.95 19.77 35.89 10.5 7.32 22.95 10.74 34.42 11.71 2.2 0 4.15.25 6.1.25h.49a74.59 74.59 0 0 0 12 0 .34.34 0 0 0 .49 0 3.67 3.67 0 0 1 2.68 1.71c.25 0 .25 0 .25.24 2.37 2.95 3.35 9.54 3.59 18.08Z" class="color91a9ed svgShape"></path><path fill="#91bfed" d="M3719.23 1531.25a131.25 131.25 0 0 1-53.22 23.67 125.94 125.94 0 0 1-25.38 2.45h-195.28c-2.2-18.07-6.11-48.09-5.62-68.35.24-8.79 1.22-15.87 3.66-18.8l.25-.24a3.69 3.69 0 0 1 2.68-1.71h.49a74.59 74.59 0 0 0 12 0 .34.34 0 0 0 .49 0c2.2 0 3.9-.25 6.1-.25h.25c11.71-1.22 24.16-4.39 34.41-11.71 18.8-13.92 19.53-36.13 19.53-36.13a.24.24 0 0 1 .25.24l2.93 1.47c42.23 20.75 109.35 14.16 160.37 36.13a40.06 40.06 0 0 1 7.08 3.9h.24a30 30 0 0 1 5.37 4.39A51.07 51.07 0 0 1 3707 1479v.24a76.75 76.75 0 0 1 12.23 52.01Z" class="color91a9ed svgShape"></path><path fill="#021b79" d="M3372.2 1214.46c37.56 1 39.55-55.17 39.55-55.17s55.16 50.85 119.63 37.89-12.29-74.11-41.87-82.09-113 6.32-123.29 25.59 5.98 73.78 5.98 73.78Z" class="color243770 svgShape"></path><path fill="#91bfed" d="M3666 1554.92a125.94 125.94 0 0 1-25.38 2.45h-366.4a125.29 125.29 0 0 1-19.28-1.47 59.25 59.25 0 0 1-7.08-1.22c-.49-7.08-.74-13.67-1-20-1-15.13-1.95-28.56-2.68-39.78 0 0 95.68-3.18 195.52-5.86l26.12-.74c99.11-2.44 194.79-3.9 198-1 .24.24.24.73.48 1.46.98 6.36 1.7 30.77 1.7 66.16Z" class="color91a9ed svgShape"></path><path fill="#91bfed" d="M3255 1555.9a59.25 59.25 0 0 1-7.08-1.22 130.8 130.8 0 0 1-62-31.49c-.24-.24-.73-.49-1-.73-1-.73-1.71-1.71-2.69-2.44a12.78 12.78 0 0 1-2.44-2.69c7.81-23.43 16.84-40.52 27.34-48.57a.24.24 0 0 1 .25-.25 17.27 17.27 0 0 1 3.41-2.44s18.8 28.07 36.13 68.59q3.99 10.26 8.08 21.24ZM3707 1479.25c8.06 11.23 15.63 25.88 22.46 43.7a84.26 84.26 0 0 1-10.25 8.3 131.25 131.25 0 0 1-53.22 23.67 125.94 125.94 0 0 1-25.38 2.45H3634c5.85-30.27 18.3-53 30.26-68.6 12.21-16.35 23.68-25.14 25.88-26.85h.24a30 30 0 0 1 5.37 4.39A83.06 83.06 0 0 1 3707 1479Z" class="color91a9ed svgShape"></path><path fill="#e8f3ff" d="M2706.34 1273.18a151.56 151.56 0 0 1-118.73 148 147.23 147.23 0 0 1-32.89 3.64 151.62 151.62 0 1 1 147-188.75 153.31 153.31 0 0 1 4.62 37.11Z" class="colore8f1ff svgShape"></path><path fill="#dae7f5" d="M2706.34 1273.18a151.56 151.56 0 0 1-118.73 148l-63.55-52.5-.54-.47c-2.62-6.13-15.5-34.84-41.44-69.34-2.42.14-4.65.34-6.6.54v-.67a86.54 86.54 0 0 0-12 2.15s-7.81-11.52-7.81-32.14v-1.42c-.41-21.63 7.81-33.55 7.81-33.55a96.74 96.74 0 0 0 12 2.09v-.68c10.64 1.21 28.1 1.69 51.14-2.49v.74c1.62-.4 3.24-.74 5.06-1.08 41.44-8.49 95.08-52.15 98.78-55.19l.34.27 71 58.63a153.31 153.31 0 0 1 4.54 37.11Z" class="colordae4f5 svgShape"></path><ellipse cx="2622.62" cy="1267.29" fill="#5489bf" rx="31.16" ry="44.58" class="color546fbf svgShape"></ellipse><path fill="#91bfed" d="M2643.33 1267.31v.81c-.06 1.62-.13 3.31-.26 4.92-.75 14.76-19.88 20.08-45.56 20.49-21.29.4-47.1-2.56-70.89-6.4-19.81-3.17-38.14-7.08-51.14-9.84-12.13-2.7-19.61-4.58-19.61-4.58a49.92 49.92 0 0 1-.2-5.4c-.41-21.63 7.81-33.55 7.81-33.55a96.74 96.74 0 0 0 12 2.09c10.64 1.21 28.1 1.61 51.14-2.43 1.62-.4 3.24-.74 5.06-1.08 41.44-8.49 95.08-52.15 98.78-55.19l.21-.2a2.84 2.84 0 0 1 .13.47 332 332 0 0 1 10.85 54.58 273.17 273.17 0 0 1 1.68 35.31Z" class="color91a9ed svgShape"></path><path fill="#91bfed" d="M2643.33 1267.31v.81a247.75 247.75 0 0 1-1.68 34.37 323.79 323.79 0 0 1-11 55.12s-56.07-46.56-99-55.39c-1.82-.34-3.44-.67-5.06-1-2.36-.4-4.71-.81-6.94-1.15a190.34 190.34 0 0 0-38.07-1.88c-2.22.13-4.31.33-6.13.54a86.54 86.54 0 0 0-12 2.15s-7.81-11.52-7.81-32.14v-1.42a49.19 49.19 0 0 1 .2-5.39s7.48-1.88 19.61-4.58c13-2.83 31.33-6.74 51.14-9.9 23.72-3.84 49.6-6.81 70.89-6.41 25.68.41 44.81 5.87 45.56 20.49.16 1.88.29 3.9.29 5.78Z" class="color91a9ed svgShape"></path><path fill="#91bfed" d="M2524.06 1368.66a5.59 5.59 0 0 0-.07.74s-.13-.4-.47-1.21c-2.62-6.13-15.5-34.84-41.44-69.34-.13-.2-.27-.4-.47-.67s-.61-.74-.88-1.15c0 0 25.95-17.92 37.2-.2a23.65 23.65 0 0 1 1.75 3.23 4 4 0 0 0 .34.81c7.82 19.21 4.58 61.73 4.04 67.79Z" class="color91a9ed svgShape"></path><path fill="#5489bf" d="M2526.62 1232.68V1302c-2.29-.4-4.44-.81-6.6-1.08a177.2 177.2 0 0 0-37.94-2c-2.42.14-4.65.34-6.6.54v-64.22c10.64 1.14 28.1 1.62 51.14-2.56Z" class="color546fbf svgShape"></path><path fill="#e8f3ff" d="M1758.52 862.48a81.45 81.45 0 1 1-.79-11.29 77.85 77.85 0 0 1 .79 11.29Z" class="colore8f1ff svgShape"></path><path fill="#dae7f5" d="M1758.52 862.48a81.43 81.43 0 0 1-57.36 77.8l-53.91-44.54v-.08l-6.92-37-15.33-12.79 1.6-1.92a411 411 0 0 0 44.33-2.46c1.59-.18 3.18-.4 4.77-.61s3.19-.44 4.78-.69c9.55-1.45 19.07-3.33 27.25-5.1 2.46-.55 4.81-1.09 7-1.6s4-.94 5.72-1.37c.51-.11 1-.25 1.52-.36s.94-.26 1.41-.36c.83-.22 1.63-.4 2.35-.62 2.14-.54 3.77-1 4.82-1.27l.39-.1.37-.11.07.07 26.42 21.82a77.85 77.85 0 0 1 .72 11.29Z" class="colordae4f5 svgShape"></path><path fill="#5489bf" d="M1647.25 895.74s14.25-16.47 23.34-22.94c20-14.23-3.94-13.74-11.51-9.6s-12.64 6.77-12.64 12.53.81 20.01.81 20.01Z" class="color546fbf svgShape"></path><path fill="#91bfed" d="m1731.6 829.22-.29.15-.15.11a1.5 1.5 0 0 0-.32.18l-.36.22c-4.2 2.35-18.31 11.11-34.53 27.79-17.8 18.2-21.82 29.27-21.82 29.27l-10.24-8.54-11.07-9.26-1.56-1.3-10.85-9.12a.12.12 0 0 0-.08 0L1625 845.87l-2.35-2h4a411 411 0 0 0 44.33-2.46c1.59-.18 3.18-.4 4.77-.61s3.19-.44 4.78-.69c9.55-1.45 19.07-3.33 27.25-5.1 2.46-.55 4.81-1.09 7-1.6s4-.94 5.72-1.37c.51-.11 1-.25 1.52-.36s.94-.26 1.41-.36c.83-.22 1.63-.4 2.35-.62 2.14-.54 3.77-1 4.82-1.27l.39-.1.37-.11Z" class="color91a9ed svgShape"></path><path fill="#c2dffc" d="m1730.48 829.51-90.15 29.17-15.33-12.81-2.35-2h4a411 411 0 0 0 44.33-2.46c1.59-.18 3.18-.4 4.77-.61s3.19-.44 4.78-.69c9.55-1.45 19.07-3.33 27.25-5.1 2.46-.55 4.81-1.09 7-1.6s4-.94 5.72-1.37c.51-.11 1-.25 1.52-.36s.94-.26 1.41-.36c.83-.22 1.63-.4 2.35-.62 2.02-.46 3.65-.9 4.7-1.19ZM1731.16 829.47c-3 1.65-17.67 12.16-33.74 28.07a103.82 103.82 0 0 0-21.73 31l-22.86-19.38Z" class="colorc2d2fc svgShape"></path><path fill="#91bfed" d="m1652.82 869.14-5.57 26.56-6.92-37a.12.12 0 0 1 .08 0 92.77 92.77 0 0 1 10.49 2.75c1.56.65 1.92 3.29 2 5.28a17 17 0 0 1-.08 2.41Z" class="color91a9ed svgShape"></path><path fill="#e8f3ff" d="M1026.24 854.4v.35a97.32 97.32 0 0 1-78.69 95.18 94.52 94.52 0 0 1-18.65 1.81 97.34 97.34 0 1 1 97.34-97.34Z" class="colore8f1ff svgShape"></path><path fill="#dae7f5" d="M1026.24 854.75a97.32 97.32 0 0 1-78.69 95.18L890.79 903a19.23 19.23 0 0 1-2.08-1.69 55.91 55.91 0 0 1-5.37-5.19l-2.16-2.12a61.66 61.66 0 0 1-14.06-38.12 5.3 5.3 0 0 1-.13-1.43 6 6 0 0 1 .13-1.51 61.61 61.61 0 0 1 14.06-38.11l2.16-2.12a60.92 60.92 0 0 1 42-19.91 3.25 3.25 0 0 1 .83-.08 2 2 0 0 1 .82-.13h.47a5.33 5.33 0 0 1 1.43-.13 6 6 0 0 1 1.52.13h.34a2 2 0 0 1 .87.13 3 3 0 0 1 .82.08 60.73 60.73 0 0 1 33 11.77l5.23 4.29Z" class="colordae4f5 svgShape"></path><path fill="#91bfed" d="M990.77 854.44a5.3 5.3 0 0 1-.13 1.43 61.2 61.2 0 0 1-14.06 38 29.53 29.53 0 0 1-2.12 2.25 60.42 60.42 0 0 1-42 19.9 3 3 0 0 1-.82.08 2 2 0 0 1-.87.13.41.41 0 0 1-.34-.13 6 6 0 0 1-1.52.13 5.33 5.33 0 0 1-1.43-.13.65.65 0 0 1-.47.13 2 2 0 0 1-.82-.13 3.25 3.25 0 0 1-.83-.08 60.27 60.27 0 0 1-34.56-13 19.23 19.23 0 0 1-2.08-1.69 55.91 55.91 0 0 1-5.37-5.19l-2.17-2.14a61.66 61.66 0 0 1-14.06-38.12 5.3 5.3 0 0 1-.13-1.43 6 6 0 0 1 .13-1.51 61.61 61.61 0 0 1 14.06-38.11l2.16-2.12a60.92 60.92 0 0 1 42-19.91 3.25 3.25 0 0 1 .83-.08 2 2 0 0 1 .82-.13.65.65 0 0 0 .47.13 5.33 5.33 0 0 1 1.43-.13 6 6 0 0 1 1.52.13.36.36 0 0 0 .34-.13 2 2 0 0 1 .87.13 3 3 0 0 1 .82.08 60.73 60.73 0 0 1 33 11.77 53.71 53.71 0 0 1 5.23 4.29c1.3 1.25 2.56 2.5 3.77 3.85a26.21 26.21 0 0 1 2.12 2.25 61.24 61.24 0 0 1 14.06 38 6 6 0 0 1 .15 1.48Z" class="color91a9ed svgShape"></path><path fill="#5489bf" d="M958.45 822c-.35-.95-.69-1.77-1-2.72-5.58-14.54-14.58-24.62-25-26.53a3 3 0 0 0-.82-.08 2 2 0 0 0-.87-.13h-.34a6 6 0 0 0-1.52-.13 5.33 5.33 0 0 0-1.43.13H927a2 2 0 0 0-.82.13 3.25 3.25 0 0 0-.83.08c-10.29 1.91-19.29 12-24.87 26.53-.35.95-.7 1.9-1 2.85a99.58 99.58 0 0 0-5.11 30.76v2.94a99.58 99.58 0 0 0 5.11 30.76c.34 1 .69 1.91 1 2.86 5.58 14.55 14.58 24.65 24.87 26.55a3.25 3.25 0 0 0 .83.08 2 2 0 0 0 .82.13h.47a5.33 5.33 0 0 0 1.43.13 6 6 0 0 0 1.52-.13h.34a2 2 0 0 0 .87-.13 3 3 0 0 0 .82-.08c10.38-1.91 19.38-12 25-26.52.35-.82.69-1.78 1-2.73a99.26 99.26 0 0 0 5.1-30.89v-2.94a99.26 99.26 0 0 0-5.1-30.92Zm-2.81 64a15 15 0 0 1-1.08 2.73c-5.33 14.19-14.06 23.66-24.14 24.48a8.62 8.62 0 0 1-1.52.09 7.64 7.64 0 0 1-1.43-.09c-10-.82-18.82-10.29-24.14-24.48a15 15 0 0 1-1.08-2.73 95.6 95.6 0 0 1-5-30.2v-2.94a94.81 94.81 0 0 1 5-30.07 15.8 15.8 0 0 1 1.08-2.85c5.45-14.19 14.19-23.67 24.14-24.49a7.64 7.64 0 0 1 1.43-.09 8.62 8.62 0 0 1 1.52.09c10 .82 18.68 10.3 24.14 24.49a13.4 13.4 0 0 1 1.08 2.72 99.48 99.48 0 0 1 5 30.2v2.94a95.6 95.6 0 0 1-5 30.27Z" class="color546fbf svgShape"></path><path fill="#5489bf" d="M990.77 854.44a5.3 5.3 0 0 1-.13 1.43H867.12a5.3 5.3 0 0 1-.13-1.43 6 6 0 0 1 .13-1.51h123.52a6 6 0 0 1 .13 1.51ZM974.46 812.7a65 65 0 0 1-17.05 6.62c-.95.25-1.9.47-2.85.69a113.31 113.31 0 0 1-24.14 2.72h-2.95a111.68 111.68 0 0 1-24.14-2.73c-1.08-.22-1.9-.44-2.85-.69a67 67 0 0 1-17.14-6.62l-2.16 2.12a72.09 72.09 0 0 0 18.26 7.35c.95.22 1.77.48 2.81.69a118.45 118.45 0 0 0 25.22 2.86h2.95a110.45 110.45 0 0 0 25.22-3 10.32 10.32 0 0 0 2.81-.69 69.19 69.19 0 0 0 18.13-7.02 26.21 26.21 0 0 0-2.12-2.3ZM958.45 886.76a11.11 11.11 0 0 0-2.81-.69 118.86 118.86 0 0 0-25.22-3h-2.95a118.79 118.79 0 0 0-25.22 3 20.25 20.25 0 0 0-2.81.56 74 74 0 0 0-18.26 7.37l2.16 2.12a66.26 66.26 0 0 1 17.14-6.62c.95-.22 1.77-.48 2.85-.69a111.66 111.66 0 0 1 24.14-2.73h2.95a113.29 113.29 0 0 1 24.14 2.73c1 .21 1.9.47 2.85.69a64.32 64.32 0 0 1 17.05 6.62 29.53 29.53 0 0 0 2.12-2.25 69.54 69.54 0 0 0-18.13-7.11Z" class="color546fbf svgShape"></path><path fill="#5489bf" d="M930.42 792.58v123.64a6 6 0 0 1-1.52.13 5.33 5.33 0 0 1-1.43-.13V792.58a5.33 5.33 0 0 1 1.43-.13 6 6 0 0 1 1.52.13Z" class="color546fbf svgShape"></path><path fill="#e8f3ff" d="M3009.18 1273.18v.26a97.32 97.32 0 0 1-76.71 94.83 95.49 95.49 0 0 1-20.64 2.25 97.34 97.34 0 1 1 97.35-97.34Z" class="colore8f1ff svgShape"></path><path fill="#dae7f5" d="M3009.18 1273.44a97.32 97.32 0 0 1-76.71 94.83l-54.08-44.69-8.22-6.79a61.1 61.1 0 0 1 81.68-90.73Z" class="colordae4f5 svgShape"></path><path fill="#5489bf" d="M2974.09 1273.18a61.11 61.11 0 0 1-95.7 50.4 65.45 65.45 0 0 1-8.22-6.79 61.1 61.1 0 1 1 103.92-43.61Z" class="color546fbf svgShape"></path><circle cx="2913" cy="1273.18" r="53.29" fill="#c2dffc" class="colorc2d2fc svgShape"></circle><path fill="#5489bf" d="M2932.77 1276.42a13.5 13.5 0 0 0-5.88-4.71 109.86 109.86 0 0 0-13.24-4.16c-4.37-1.16-7-1.94-7.92-2.25a8 8 0 0 1-3.41-2.38 5 5 0 0 1-1.09-3.15 5.86 5.86 0 0 1 2.64-4.76c1.73-1.34 4.68-2 8.79-2 3.46 0 6.14.78 8 2.3a9.46 9.46 0 0 1 3.46 6.36l8.74-1.21a19.1 19.1 0 0 0-3.07-8.18 14.91 14.91 0 0 0-6.92-4.85 28.91 28.91 0 0 0-7.79-1.64c-1-.09-2-.13-3.11-.13a10.3 10.3 0 0 0-1.13 0 23.81 23.81 0 0 0-6.62 1 17.57 17.57 0 0 0-5.66 2.6 14.07 14.07 0 0 0-4.37 5 13.62 13.62 0 0 0-1.65 6.53 12.94 12.94 0 0 0 7.75 12.12q3.77 1.82 13.62 4.28c4.85 1.21 7.92 2.25 9.13 3a5.53 5.53 0 0 1 2.64 4.76 7.44 7.44 0 0 1-3 5.88c-2 1.69-5 2.51-9.13 2.51s-7.27-1-9.52-2.81a12.46 12.46 0 0 1-4.15-8.13l-8.83 1.38c1 5.58 3.29 9.82 6.88 12.63 3.07 2.47 7.35 3.85 12.89 4.2.91 0 1.82.09 2.77.09a13.67 13.67 0 0 0 1.43 0 26.6 26.6 0 0 0 9.69-2.12 16.56 16.56 0 0 0 7.53-6.1 15.11 15.11 0 0 0 2.59-8.43 13 13 0 0 0-2.06-7.63Z" class="color546fbf svgShape"></path><path fill="#5489bf" d="m2909.99 1250.12 3.01-14.83 3 14.83h-6.01zM2909.99 1296.24l3.01 14.83 3-14.83h-6.01z" class="color546fbf svgShape"></path><path fill="#e8f3ff" d="M1553.81 1273.18a97.79 97.79 0 1 1-.65-10.82 90.19 90.19 0 0 1 .65 10.82Z" class="colore8f1ff svgShape"></path><path fill="#dae7f5" d="M1553.81 1273.18a97.29 97.29 0 0 1-55.07 87.69l-87.61-72.38-4-3.33a17.6 17.6 0 0 1-4.63-12 17.84 17.84 0 0 1 33.57-8.4 168 168 0 0 0 40.71-21 17.87 17.87 0 0 1 15.75-26.22 18.14 18.14 0 0 1 11.29 4c0 .09.13.13.22.18l49.1 40.62a90.19 90.19 0 0 1 .67 10.84Z" class="colordae4f5 svgShape"></path><path fill="#5489bf" d="M1489.82 1241.38a59.75 59.75 0 0 1-8.82 7.62c-10.78 7.92-27.56 17.18-42.88 22.19-2.46.83-4.84 1.52-7.18 2.08a53.84 53.84 0 0 1-12.2 1.64v-6.66c5 0 11-1.3 17.39-3.42a168 168 0 0 0 40.71-21 51.39 51.39 0 0 0 8.09-6.88Z" class="color546fbf svgShape"></path><path fill="#5489bf" d="M1484.9 1309.43c-9-10-46.15-31.27-66.21-31.27v-6.64c22.45 0 61 22.16 71.15 33.47Z" class="color546fbf svgShape"></path><path fill="#91bfed" d="M1438.21 1273.18a16 16 0 0 1-.13 2.07 17.93 17.93 0 0 1-17.74 15.8 18 18 0 0 1-9.21-2.56 17.24 17.24 0 0 1-4-3.33 17.6 17.6 0 0 1-4.63-12 17.84 17.84 0 0 1 33.57-8.4 17.41 17.41 0 0 1 2 6.36 15.1 15.1 0 0 1 .14 2.06ZM1510.42 1235.41a17.88 17.88 0 0 1-17.87 17.87A17.4 17.4 0 0 1 1481 1249a17.83 17.83 0 0 1 11.59-31.37 18.14 18.14 0 0 1 11.29 4c0 .09.13.13.22.18a17.82 17.82 0 0 1 6.32 13.6Z" class="color91a9ed svgShape"></path><circle cx="1492.56" cy="1310.95" r="17.85" fill="#91bfed" class="color91a9ed svgShape"></circle><path fill="#e8f3ff" d="M2375.17 859.77a81.35 81.35 0 0 1-74.17 81.06 69.59 69.59 0 0 1-7.23.36 81.42 81.42 0 1 1 80.58-92.93 79.45 79.45 0 0 1 .82 11.51Z" class="colore8f1ff svgShape"></path><path fill="#dae7f5" d="M2375.17 859.77a81.35 81.35 0 0 1-74.17 81.06l-58.51-48.39-.5-.4c.14-.76 1.33-6.91 9.51-16 8.94-9.92 17.37-13.39 17.37-13.39s-1.59 5.93.69 10.6c2.46 5 11 10.13 30.11-8.54l.07-.07c17.48-18.35 12.38-26.67 7.53-29.1-4.71-2.28-10.64-.69-10.64-.69s3.37-8.45 13.37-17.35c8.32-7.49 14.18-9.15 15.67-9.48l.94.76 47.76 39.48a79.45 79.45 0 0 1 .8 11.51Z" class="colordae4f5 svgShape"></path><path fill="#91bfed" d="M2330.11 858.65a71.34 71.34 0 0 1-7.66 13.55c-.5.71-1 1.44-1.64 2.22 0 0-.07 0 0 .08a64.43 64.43 0 0 1-5.11 5.86s-.07 0-.07.07c-.83.87-1.63 1.67-2.46 2.39a67.21 67.21 0 0 1-6.87 5.61 43.47 43.47 0 0 1-6.92 4.12l-1.59-26c.65-.65 1.27-1.27 1.85-1.88l.07-.07c17.48-18.35 12.38-26.67 7.53-29.1-4.71-2.28-10.64-.69-10.64-.69s3.4-8.41 13.4-17.31c8.32-7.49 14.18-9.15 15.67-9.48a1.62 1.62 0 0 1 .39-.07s.22.29.55.83c2.78 4.27 14.39 24.32 3.5 49.87Z" class="color91a9ed svgShape"></path><path fill="#91bfed" d="M2326.53 865.38a49.41 49.41 0 0 1-5.72 9s-.07 0 0 .08c-1.45 1.81-3.11 3.8-5.11 5.86 0 0-.07 0-.07.07-.79.8-1.59 1.59-2.46 2.39a67.21 67.21 0 0 1-6.87 5.61 70.1 70.1 0 0 1-13.65 7.71c-26.23 11.21-46.68-1.31-50.15-3.7a3.64 3.64 0 0 1-.5-.33V892c.14-.76 1.33-6.91 9.51-16 8.94-9.92 17.37-13.39 17.37-13.39s-1.59 5.93.69 10.6c2.46 5 11 10.13 30.11-8.54l.07-.07c.29-.26.58-.55.87-.84Z" class="color91a9ed svgShape"></path><path fill="#e8f3ff" d="M3153.58 846.6a95.46 95.46 0 0 1-1 13.71 97.26 97.26 0 0 1-89.73 83.37q-3.3.26-6.62.26a97.35 97.35 0 1 1 97.35-97.34Z" class="colore8f1ff svgShape"></path><path fill="#dae7f5" d="M3152.58 860.31a97.26 97.26 0 0 1-89.73 83.37L3008 898.3l-.21-.18c.73-1.42 5.45-11.89 5.62-36.16a136.51 136.51 0 0 0-.74-14.45h-.56a131.27 131.27 0 0 0-5.28-26.14h35.65c-11.72-8.73-24.35-32.57-24.35-32.57s11.5 6.27 22.41 7.27 17.3-1.52 17.3-1.52-4 13.28-2.72 20.72a112.49 112.49 0 0 0 17.88-20.76l18.3 15.14c-4.89 3.89-12 9-19.43 11.72l33.18.09h.57Z" class="colordae4f5 svgShape"></path><path fill="#5489bf" d="M3097.68 804.11s-2.47 2.43-6.4 5.54c-4.89 3.89-12 9-19.43 11.72a29.23 29.23 0 0 1-7.1 2l-1 .13c-.77.13-1.51.21-2.2.3-2.25.26-4.2.35-5.89.39s-3.28 0-4.54-.17c-.86-.09-1.6-.22-2.25-.35a9 9 0 0 1-3.68-1.3c.61-.34 1.22-.69 1.78-1s1.25-.82 1.9-1.21a1.15 1.15 0 0 1 .26-.17 68.54 68.54 0 0 0 6-4.72 112.49 112.49 0 0 0 17.87-20.76 135.57 135.57 0 0 0 7.87-12.81s2.94 8.65 7.57 14.19c4.96 5.93 9.24 8.22 9.24 8.22Z" class="color546fbf svgShape"></path><path fill="#5489bf" d="M3057.75 821.37c.21 1.13-.18 2.25-2.17 2.86a12.19 12.19 0 0 1-4.58.39 9.15 9.15 0 0 1-1.47 0 4.67 4.67 0 0 1-.74-.09 15.49 15.49 0 0 1-6.36-3.12c-11.72-8.73-24.35-32.57-24.35-32.57s11.5 6.27 22.41 7.27 17.3-1.52 17.3-1.52-4 13.28-2.72 20.72a7.56 7.56 0 0 0 1.25 3.38 8.84 8.84 0 0 1 .91 1.34 4.86 4.86 0 0 1 .52 1.34Z" class="color546fbf svgShape"></path><path fill="#91bfed" d="M3066.66 898.3h-59a.74.74 0 0 0 .09-.18c.73-1.42 5.45-11.89 5.62-36.16a136.51 136.51 0 0 0-.74-14.45 131.24 131.24 0 0 0-5.19-26.14h53.87l.17 2.47 1.64 23.67.56 7.91Z" class="color91a9ed svgShape"></path><path fill="#91bfed" d="M3099.11 862c.13 26.26 5.75 36.34 5.75 36.34h-59.1l3-41.93.61-8.86 1.6-22.89v-.56l.18-2.69h20.63l33.18.09a131.69 131.69 0 0 0-5.23 26 137 137 0 0 0-.62 14.5Z" class="color91a9ed svgShape"></path><path fill="#c2dffc" d="M3105.64 821.46a128.19 128.19 0 0 0-5.28 26h-88.3a131.27 131.27 0 0 0-5.28-26.14h65.07l33.18.09Z" class="colorc2d2fc svgShape"></path><path fill="#5489bf" d="M3048.78 819.99h14.87v78.53h-14.87z" class="color546fbf svgShape"></path><path fill="#e8f3ff" d="M3159.51 1662.61a97.35 97.35 0 0 1-71.82 93.93 95.62 95.62 0 0 1-25.53 3.41 97.34 97.34 0 1 1 96.31-111.44 94.83 94.83 0 0 1 1.04 14.1Z" class="colore8f1ff svgShape"></path><path fill="#dae7f5" d="M3159.51 1662.61a97.35 97.35 0 0 1-71.82 93.93l-62-51.23-6.75-5.58c-10.08-9.64-16.26-22.62-16.31-36.9v-.22c0-30 27-54.29 60.31-54.29h46.9l.3.26 48.33 39.93a94.83 94.83 0 0 1 1.04 14.1Z" class="colordae4f5 svgShape"></path><path fill="#5489bf" d="M3062.94 1608.32c-33.31 0-60.31 24.31-60.31 54.29v.22c0 14.28 6.23 27.26 16.31 36.9a61.38 61.38 0 0 0 6.75 5.58 64.33 64.33 0 0 0 37.25 11.6h47.2v-29.64h-47.2c-14.92 0-27.3-11-27.38-24.44v-.22a23.36 23.36 0 0 1 8-17.39 29.1 29.1 0 0 1 19.38-7.22h47.2v-29.68Z" class="color546fbf svgShape"></path><path fill="#91bfed" d="M3110.14 1608.32V1638h-47.2a29.1 29.1 0 0 0-19.38 7.22 23.36 23.36 0 0 0-8 17.39v.22h-32.93v-.22c0-30 27-54.29 60.31-54.29Z" class="color91a9ed svgShape"></path><path fill="#e8f3ff" d="M1242 1273.18a145 145 0 0 1-141.68 145c-1.16.06-2.26.06-3.42.06a145.11 145.11 0 1 1 142.91-169.93 137.57 137.57 0 0 1 2.19 24.87Z" class="colore8f1ff svgShape"></path><path fill="#dae7f5" d="M1242 1273.18a145 145 0 0 1-141.68 145l-92-76.1-.52-.39a8.5 8.5 0 0 0 .71-1.61.52.52 0 0 1 .26-.52c2.71-6.45 9-25.41 9.29-62.62a233.05 233.05 0 0 0-1.36-25.92 256.23 256.23 0 0 0-9.29-46c-.06-.2-.12-.33-.19-.52s-.19-.13-.19-.32h104.6l75 .13h.07v.06h.06l53.08 43.92a137.57 137.57 0 0 1 2.16 24.89Z" class="colordae4f5 svgShape"></path><path fill="#91bfed" d="M1116.22 1342.12h-108.6l.19-.39a8.5 8.5 0 0 0 .71-1.61.52.52 0 0 1 .26-.52c2.71-6.45 9-25.41 9.29-62.62a233.05 233.05 0 0 0-1.36-25.92 256.23 256.23 0 0 0-9.29-46c-.06-.2-.12-.33-.19-.52s-.19-.13-.19-.32h99.25l2.32 31.73.32 4.83.71 10.26 1 14.18.39 5.23.64 8.77.32 4.77Z" class="color91a9ed svgShape"></path><path fill="#91bfed" d="m1186.84 1204.37-.07.06c.07.06 0 .13-.06.19v.13c-.07.2-.13.33-.19.52a240.43 240.43 0 0 0-9.29 45.79 217.31 217.31 0 0 0-1.36 25.92c.26 41.21 8.26 60.24 10.26 64.24a1.49 1.49 0 0 1 .45.9h-108.86l4.26-58 .38-5 .65-8.51.32-3.61 1-15.93.71-9.68.39-4.9 2.26-32.24h23.92l75 .13Z" class="color91a9ed svgShape"></path><path fill="#c2dffc" d="M1112.22 1342.12h-104.6l.19-.39a8.5 8.5 0 0 0 .71-1.61.52.52 0 0 1 .26-.52c15.41-25.6 48.24-46.69 69.26-58.17 1.55-.84 3-1.61 4.32-2.32 3.87-2.06 7.16-3.68 9.61-4.9 2.84-1.35 4.58-2.13 4.9-2.26l.07-.06.06.06c.13.58 1.36 4.13 3.1 9.48.77 2.45 1.61 5.29 2.58 8.45 4.58 15.67 10.19 38.05 9.54 52.24Z" class="colorc2d2fc svgShape"></path><path fill="#c2dffc" d="M1186.56 1342.13H1081.7c-1.07-23.67 15.25-70.21 15.25-70.21s5.88 2.67 14.71 7.35c21 11.1 58.45 33.84 74.5 61.93a2 2 0 0 1 .4.93Z" class="colorc2d2fc svgShape"></path><path fill="#5489bf" d="M1108.93 1240.8c-.13.65-.19 1.29-.32 1.94-2 11.28-4.58 22.44-6.77 31.47-.65 2.64-1.23 5-1.74 7.22-1.87 7.23-3.16 11.8-3.16 11.8s-2.13-1.22-5.74-3.35c-2.19-1.35-5-3.1-8.19-5.09-.32-.2-.65-.46-1-.65-1.23-.84-2.58-1.74-3.94-2.71-21.92-14.9-56.94-42.69-70.62-76.35-.06-.2-.12-.33-.19-.52s-.19-.13-.19-.32h104.6c1 9.48-.42 22.89-2.74 36.56Z" class="color546fbf svgShape"></path><path fill="#5489bf" d="M1186.71 1204.43v.32c-.07.2-.13.33-.19.52-13.74 33.6-48.76 61.46-70.75 76.23-1.36.9-2.58 1.74-3.81 2.51a9 9 0 0 1-1 .65c-3.29 2.12-6.07 3.87-8.32 5.22-3.61 2.19-5.74 3.35-5.74 3.35s-1.36-4.51-3.16-11.67c-.52-2.26-1.16-4.71-1.81-7.35-2.19-8.84-4.58-19.8-6.51-30.83-.13-.64-.26-1.35-.39-2-2.32-13.8-3.87-27.53-2.84-37.14h29.41Z" class="color546fbf svgShape"></path><path fill="#e8f3ff" d="M2357.58 1656.24a77.5 77.5 0 0 1-5.66 29.24 78.41 78.41 0 0 1-62.08 48.52 73.88 73.88 0 0 1-10.79.76 78.53 78.53 0 1 1 78.53-78.52Z" class="colore8f1ff svgShape"></path><path fill="#dae7f5" d="M2239.23 1647.86a9.88 9.88 0 1 1 9.88 9.88 9.85 9.85 0 0 1-9.88-9.88ZM2265.82 1637a13.22 13.22 0 0 1 11.59-13.09l14.83 12.29a5.36 5.36 0 0 1 0 .8 13.23 13.23 0 1 1-26.46 0ZM2299.12 1647.86a9.68 9.68 0 0 1 1.33-4.92l15 12.43a9.9 9.9 0 0 1-16.33-7.51Z" class="colordae4f5 svgShape"></path><path fill="#dae7f5" d="M2351.92 1685.48a78.41 78.41 0 0 1-62.08 48.52l-65.37-54-.32-.28a20.39 20.39 0 0 1 20.39-19.82h9.14a6.91 6.91 0 0 1 1.22.07 27.14 27.14 0 0 1 18-6.84h12.22a27.19 27.19 0 0 1 18.08 6.84 6.91 6.91 0 0 1 1.22-.07h9.11a20.36 20.36 0 0 1 12.74 4.46 1.6 1.6 0 0 1 .35.28Z" class="colordae4f5 svgShape"></path><path fill="#5489bf" d="M2334 1680h-50a20.4 20.4 0 0 1 19.23-20 6.91 6.91 0 0 1 1.22-.07h9.11a20.36 20.36 0 0 1 12.74 4.46 1.6 1.6 0 0 1 .35.28A20.31 20.31 0 0 1 2334 1680ZM2318.91 1647.86a9.9 9.9 0 0 1-19.79 0 9.68 9.68 0 0 1 1.33-4.92 9.89 9.89 0 0 1 18.46 4.92ZM2274.1 1680h-50a.92.92 0 0 1 0-.28 20.39 20.39 0 0 1 20.39-19.82h9.14a6.91 6.91 0 0 1 1.22.07 20.38 20.38 0 0 1 19.25 20.03ZM2259 1647.86a9.88 9.88 0 1 1-9.87-9.88 9.89 9.89 0 0 1 9.87 9.88Z" class="color546fbf svgShape"></path><path fill="#91bfed" d="M2312.49 1680h-66.87a27.4 27.4 0 0 1 27.32-26.87h12.22a27.35 27.35 0 0 1 27.33 26.87ZM2292.28 1637a13.23 13.23 0 1 1-14.87-13.09 12.89 12.89 0 0 1 1.64-.1 13.21 13.21 0 0 1 13.19 12.39 5.36 5.36 0 0 1 .04.8Z" class="color91a9ed svgShape"></path><path fill="#e8f3ff" d="M1022 1670.06a97.29 97.29 0 0 1-86 96.65 88.42 88.42 0 0 1-11.34.7 97.35 97.35 0 1 1 95.79-114.52 94.62 94.62 0 0 1 1.55 17.17Z" class="colore8f1ff svgShape"></path><path fill="#dae7f5" d="m1020.42 1652.89-37.47-31c-.09 0-.13-.13-.22-.21l-.26-.22-2-1.64h-.08l-2.38-2a.14.14 0 0 0-.09 0 7.06 7.06 0 0 0-2.85-1s-2.34 3.76-5 5.19a24.57 24.57 0 0 0-6.19-2.55c-.86-2.86.18-7.19.18-7.19s-1.73-1.6-6.62-1.86h-.26a3.77 3.77 0 0 0-.69 0h-.35a1 1 0 0 0-.35 0h-.26c-4.88.26-6.61 1.86-6.61 1.86s1 4.33.17 7.19a22.45 22.45 0 0 0-6.14 2.59c-2.64-1.43-5-5.23-5-5.23s-2.43.08-6.1 3.42c-.13.12-.26.21-.39.34a9.44 9.44 0 0 0-.82.87c-3.34 3.67-3.42 6.1-3.42 6.1s3.8 2.33 5.23 5a22.76 22.76 0 0 0-2.59 6.19 11.59 11.59 0 0 1-4.07.22 33.58 33.58 0 0 0-4.72-1.6c-1.21-4.24.3-10.65.3-10.65s-1.81-1.68-6.66-2.46l-1.12 1.34-6.28 7.61-2.46 2.94-2 2.38-4.55 5.49-22.75 27.52-4.72 5.71-1.77 2.17-6.84 8.26c2.25-.3 5.67-.61 8.27.17a39.66 39.66 0 0 0 3.85 9.22c-2.17 3.89-7.75 7.35-7.75 7.35s.13 3.59 5.11 9a.23.23 0 0 0 .13.18s0 .13.13.17a1.92 1.92 0 0 0 .13.17l.08.09a.65.65 0 0 0 .22.17l1.64 1.34 3.12 2.56a.92.92 0 0 0 .17.13l58.68 48.49a97.29 97.29 0 0 0 86-96.65 94.62 94.62 0 0 0-1.58-17.17Zm-66.89-3.64s-.08-3.59-5.1-9.08a40 40 0 0 0-1.17-1.26 5.82 5.82 0 0 0-.56-.47c-.05-.09-.09-.13-.13-.13a12.57 12.57 0 1 1 .77 16.18 31 31 0 0 1 6.19-5.24Zm-43.43 8.92a18.65 18.65 0 1 1-18.69 18.6 18.61 18.61 0 0 1 18.69-18.6Z" class="colordae4f5 svgShape"></path><path fill="#91bfed" d="M948.78 1671.71c1.41 2.76.15 8.08.15 8.08s2 1.93 7.92 1.93c4.51 0 1.37-8.55-.55-9.28s-7.52-.73-7.52-.73Z" class="color91a9ed svgShape"></path><path fill="#91bfed" d="M964.26 1671.71c-1.41 2.76-.16 8.08-.16 8.08s-2 1.93-7.92 1.93c-4.51 0-1.37-8.55.55-9.28s7.53-.73 7.53-.73ZM957.47 1618.32a3.8 3.8 0 0 1-1 1 .51.51 0 0 1-.22.13c-1.9.73-7.53.73-7.53.73a4.45 4.45 0 0 0 .35-.9c.86-2.86-.17-7.19-.17-7.19s1.73-1.6 6.61-1.86h.26a3.88 3.88 0 0 1 .7 0h.34a1 1 0 0 1 .35 0h.26c2.9.69 1.58 5.71.05 8.09Z" class="color91a9ed svgShape"></path><path fill="#91bfed" d="M964.26 1620.22s-5.62 0-7.53-.73a.48.48 0 0 1-.21-.13 3.66 3.66 0 0 1-1-1c-1.55-2.38-2.85-7.4 0-8h.26a1 1 0 0 1 .35 0h.35a3.77 3.77 0 0 1 .69 0h.26c4.89.26 6.62 1.86 6.62 1.86s-1 4.33-.18 7.19a4.45 4.45 0 0 0 .39.81Z" class="color91a9ed svgShape"></path><path fill="#5489bf" d="M956.56 1622.43a23.56 23.56 0 0 0-21.89 14.84 20.16 20.16 0 0 0-1.47 5.58 16 16 0 0 0-.18 2.51 1.87 1.87 0 0 0 0 .47 23.55 23.55 0 0 0 .52 5 23.42 23.42 0 0 0 9.48 14.28 22.07 22.07 0 0 0 5.32 2.77 9.61 9.61 0 0 0 2.08.65 22.21 22.21 0 0 0 6.14.86 22 22 0 0 0 5.41-.65 23.54 23.54 0 0 0-5.45-46.42Zm0 36.08a12.58 12.58 0 0 1-9.22-4 12.43 12.43 0 0 1-3.28-7.14 13.72 13.72 0 0 1-.09-1.43 12.21 12.21 0 0 1 2.6-7.57 12.55 12.55 0 1 1 10 20.2Z" class="color546fbf svgShape"></path><path fill="#91bfed" d="M984.16 1645a24.3 24.3 0 0 0-1-6.4 23.1 23.1 0 0 0-2.6-6.19 25.37 25.37 0 0 0-3.85-5.23 7 7 0 0 0-1.38-1.39 26 26 0 0 0-5.24-3.89 24.57 24.57 0 0 0-6.19-2.55 24.07 24.07 0 0 0-6.44-1 6.93 6.93 0 0 0-.91 0 8.36 8.36 0 0 0-1 0 24.45 24.45 0 0 0-6.44 1 22.45 22.45 0 0 0-6.14 2.59 22.82 22.82 0 0 0-5.28 3.85 7 7 0 0 0-1.39 1.39 25.37 25.37 0 0 0-3.85 5.23 22.76 22.76 0 0 0-2.59 6.19 15.63 15.63 0 0 0-.52 2 6.71 6.71 0 0 0-.13 1 .39.39 0 0 0-.05.31 15.65 15.65 0 0 0-.3 3.15 7 7 0 0 0 0 .91 8.36 8.36 0 0 0 0 1 2.32 2.32 0 0 0 0 .52 22.25 22.25 0 0 0 1 5.88 22.76 22.76 0 0 0 2.59 6.19 25.43 25.43 0 0 0 3.85 5.24 7 7 0 0 0 1.39 1.38A22.25 22.25 0 0 0 943 1670a6.73 6.73 0 0 0 1.51.82 21.62 21.62 0 0 0 4.15 1.65 1.12 1.12 0 0 0 .48.13 14.26 14.26 0 0 0 1.9.47 25 25 0 0 0 4.07.48 1.6 1.6 0 0 0 .43 0 8.36 8.36 0 0 0 1 0 6.93 6.93 0 0 0 .91 0 17.49 17.49 0 0 0 3.68-.39 7.92 7.92 0 0 0 1.69-.34 4.86 4.86 0 0 0 1-.26 25 25 0 0 0 6.19-2.56 26 26 0 0 0 5.24-3.89 6.94 6.94 0 0 0 1.38-1.38 25.43 25.43 0 0 0 3.85-5.24 23.1 23.1 0 0 0 2.6-6.19 24.23 24.23 0 0 0 1-6.4 6.7 6.7 0 0 0 .05-1 5.62 5.62 0 0 0 .03-.9Zm-27.6 15.75a14.73 14.73 0 0 1-10.6-4.5c-.3-.3-.56-.6-.82-.91a2.51 2.51 0 0 0-.26-.34 9.6 9.6 0 0 1-1.21-1.82 1.12 1.12 0 0 0-.13-.21 14.48 14.48 0 0 1-1.6-4.72 9.84 9.84 0 0 1-.22-2.34 14.42 14.42 0 0 1 2.34-7.91 11.64 11.64 0 0 1 .82-1.13 14.77 14.77 0 0 1 26.43 9 14.84 14.84 0 0 1-14.75 14.89Z" class="color91a9ed svgShape"></path><path fill="#91bfed" d="M930.78 1638.22s0 1.17-.09 2.6v.47c0 .61-.09 1.3-.17 1.91a9 9 0 0 1-.48 2.55.51.51 0 0 1-.13.22 3.8 3.8 0 0 1-1 1c-.13.08-.26.13-.39.21-2.46 1.48-7.05 2.51-7.66-.21v-.26a1 1 0 0 1 0-.35v-.36a3.88 3.88 0 0 1 0-.7v-.3a7.35 7.35 0 0 1 .13-1.38c.44-3.85 1.73-5.23 1.73-5.23a17.8 17.8 0 0 0 3.08.43 11.59 11.59 0 0 0 4.07-.22 4.8 4.8 0 0 0 .91-.38Z" class="color91a9ed svgShape"></path><path fill="#91bfed" d="M930.77 1653.71c-2.76-1.41-8.08-.16-8.08-.16s-1.92-2-1.92-7.92c0-4.5 8.54-1.36 9.27.56s.73 7.52.73 7.52ZM982.26 1638.23c2.76 1.41 8.08.15 8.08.15s1.92 2 1.92 7.92c0 4.51-8.54 1.37-9.27-.55s-.73-7.52-.73-7.52Z" class="color91a9ed svgShape"></path><path fill="#91bfed" d="M982.26 1653.71c2.76-1.41 8.08-.16 8.08-.16s1.92-2 1.92-7.92c0-4.5-8.54-1.36-9.27.56s-.73 7.52-.73 7.52ZM932.84 1658.7c-1 3-5.6 5.82-5.6 5.82s.08 2.8 4.23 7c3.19 3.19 7-5.07 6.17-7s-4.8-5.82-4.8-5.82Z" class="color91a9ed svgShape"></path><path fill="#91bfed" d="M943.79 1669.64c-2.95 1-5.83 5.6-5.83 5.6s-2.8-.07-7-4.23c-3.19-3.19 5.08-7 7-6.17s5.83 4.8 5.83 4.8ZM976.72 1627.15a5.93 5.93 0 0 1-1.43 0c-.08 0-.17 0-.21-.09-1.86-.86-5.84-4.8-5.84-4.8a2.32 2.32 0 0 0 .86-.43c2.64-1.43 5-5.19 5-5.19a7.06 7.06 0 0 1 2.85 1 .14.14 0 0 1 .09 0 16 16 0 0 1 3.16 2.34c.13.12.26.21.39.34.3.3.56.56.82.87a.33.33 0 0 0 .08.17c1.41 2.54-3 5.18-5.77 5.79Z" class="color91a9ed svgShape"></path><path fill="#91bfed" d="M980.19 1633.24c1-3 5.6-5.83 5.6-5.83s-.07-2.8-4.23-7c-3.19-3.18-7 5.08-6.17 7s4.8 5.83 4.8 5.83ZM980.19 1658.7c1 3 5.6 5.82 5.6 5.82s-.07 2.8-4.23 7c-3.19 3.19-7-5.07-6.17-7s4.8-5.82 4.8-5.82Z" class="color91a9ed svgShape"></path><path fill="#91bfed" d="M969.25 1669.64c3 1 5.82 5.6 5.82 5.6s2.8-.07 7-4.23c3.19-3.19-5.08-7-6.95-6.17s-5.87 4.8-5.87 4.8ZM943.8 1622.3s-4 3.94-5.84 4.8c-.05.05-.13.05-.22.09a5.93 5.93 0 0 1-1.43 0c-2.81-.61-7.4-3.38-5.66-5.84a9.44 9.44 0 0 1 .82-.87c.13-.13.26-.22.39-.34 3.67-3.34 6.1-3.42 6.1-3.42s2.38 3.8 5 5.23a3.23 3.23 0 0 0 .84.35Z" class="color91a9ed svgShape"></path><path fill="#91bfed" d="M937.74 1627.19c0 .09 0 .17-.09.22-.86 1.86-4.8 5.84-4.8 5.84a3.19 3.19 0 0 0-.39-.87c-1.43-2.64-5.23-5-5.23-5s.08-2.43 3.42-6.1a9.44 9.44 0 0 1 .82-.87c.13-.13.26-.22.39-.34 2.46-1.74 5.23 2.85 5.84 5.66a5.93 5.93 0 0 1 .04 1.46Z" class="color91a9ed svgShape"></path><path fill="#5489bf" d="M944.49 1670.84a30.55 30.55 0 0 0-1.47-5.62 35.59 35.59 0 0 0-9.48-14.28 32.48 32.48 0 0 0-3-2.42 12.23 12.23 0 0 0-1.61-1.08 2.45 2.45 0 0 0-.43-.31 35.34 35.34 0 0 0-6.88-3.28c-.21-.09-.43-.13-.65-.22a34.68 34.68 0 0 0-10.85-1.73 35.69 35.69 0 0 0-11.82 2 35.2 35.2 0 0 0-22.75 27.52 35.68 35.68 0 0 0-.39 5.28 34.94 34.94 0 1 0 69.87 0 33.28 33.28 0 0 0-.54-5.86Zm-53.08 5.93a18.67 18.67 0 1 1 18.69 18.69 18.62 18.62 0 0 1-18.69-18.69Z" class="color546fbf svgShape"></path><path fill="#c2dffc" d="M898.57 1715.05c2.09 4.1.23 12 .23 12s3 2.86 11.77 2.86c6.69 0 2-12.69-.83-13.78s-11.17-1.08-11.17-1.08Z" class="colorc2d2fc svgShape"></path><path fill="#c2dffc" d="M921.56 1715.05c-2.09 4.1-.23 12-.23 12s-3 2.86-11.76 2.86c-6.7 0-2-12.69.82-13.78s11.17-1.08 11.17-1.08ZM898.57 1638.58c2.09-4.1.23-12 .23-12s3-2.87 11.77-2.87c6.69 0 2 12.7-.83 13.78s-11.17 1.09-11.17 1.09Z" class="colorc2d2fc svgShape"></path><path fill="#c2dffc" d="M921.56 1638.57s-8.31 0-11.16-1.08a1 1 0 0 1-.3-.18h-.05a5.52 5.52 0 0 1-1.38-1.55 15.84 15.84 0 0 1-1.34-2.64c-1.55-3.85-2-8.82 1.73-9.3h.18a1.29 1.29 0 0 1 .39 0h.52a5.91 5.91 0 0 1 .86 0h.17a28.42 28.42 0 0 1 3.55.35c4.85.78 6.66 2.46 6.66 2.46s-1.51 6.41-.3 10.65a7 7 0 0 0 .47 1.29Z" class="colorc2d2fc svgShape"></path><path fill="#c2dffc" d="M951.15 1675.39a19.7 19.7 0 0 0-.13-2.3c0-.43-.08-.91-.13-1.34-.13-1-.3-2.08-.47-3.11s-.48-1.91-.74-2.82a40 40 0 0 0-3.85-9.25c-.22-.44-.48-.83-.69-1.22a2.51 2.51 0 0 0-.26-.34 9.6 9.6 0 0 1-1.21-1.82 1.12 1.12 0 0 0-.13-.21 40.22 40.22 0 0 0-3.46-4.2 17.41 17.41 0 0 0-2-2 36 36 0 0 0-4.89-3.94 26.76 26.76 0 0 0-2.51-1.6 1.86 1.86 0 0 0-.39-.21 4 4 0 0 0-.95-.52 34.25 34.25 0 0 0-3.55-1.73 33.58 33.58 0 0 0-4.72-1.6 37.85 37.85 0 0 0-9.52-1.47 12.09 12.09 0 0 0-1.34 0 14.44 14.44 0 0 0-1.47 0 36.51 36.51 0 0 0-3.8.3 41.57 41.57 0 0 0-5.71 1.17 40.4 40.4 0 0 0-9.26 3.85 41.12 41.12 0 0 0-7.83 5.75c-.65.61-1.34 1.26-1.95 2a40.69 40.69 0 0 0-5.75 7.83 38.88 38.88 0 0 0-3.85 9.21 38.24 38.24 0 0 0-1.47 9.57 12.64 12.64 0 0 0 0 1.38v1.51a9.93 9.93 0 0 0 0 1.09 38.4 38.4 0 0 0 1.43 8.43 39.66 39.66 0 0 0 3.85 9.22 41 41 0 0 0 5.75 7.83 27.42 27.42 0 0 0 1.95 1.94 41.21 41.21 0 0 0 17.09 9.61 38.7 38.7 0 0 0 9.51 1.47h2.81a40.79 40.79 0 0 0 26.57-11.08 17.31 17.31 0 0 0 2-1.94 40.85 40.85 0 0 0 9.6-17 37.5 37.5 0 0 0 1.3-7 23.75 23.75 0 0 0 .17-2.56c.05-.52.05-1 .05-1.51a12.64 12.64 0 0 0-.05-1.39Zm-41-20.55a21.76 21.76 0 0 1 17.78 9.21 19.57 19.57 0 0 1 2.55 4.63 18.54 18.54 0 0 1 .87 2.64 20.63 20.63 0 0 1 .69 5.41 22 22 0 1 1-21.89-21.93Z" class="colorc2d2fc svgShape"></path><path fill="#c2dffc" d="M871.83 1665.32c-4.1 2.1-12 .24-12 .24s-2.86 3-2.86 11.76c0 6.69 12.69 2 13.78-.83s1.08-11.17 1.08-11.17Z" class="colorc2d2fc svgShape"></path><path fill="#c2dffc" d="M871.85 1688.32a6.27 6.27 0 0 0-1.38-.52c-2.6-.78-6-.47-8.27-.17-1.42.22-2.38.43-2.38.43s-2.51-2.64-2.81-10.17v-.17a5.91 5.91 0 0 1 0-.86v-.52a1.29 1.29 0 0 1 0-.39v-.18c.56-4.67 8.31-2.76 12-.38a5.46 5.46 0 0 1 1.6 1.42 1 1 0 0 1 .17.3c1.07 2.95 1.07 11.21 1.07 11.21ZM948.3 1665.32c4.1 2.1 12 .24 12 .24s2.86 3 2.86 11.76c0 6.69-12.69 2-13.78-.83s-1.08-11.17-1.08-11.17Z" class="colorc2d2fc svgShape"></path><path fill="#c2dffc" d="M948.3 1688.31c4.1-2.09 12-.23 12-.23s2.86-3 2.86-11.76c0-6.69-12.69-2-13.78.82s-1.08 11.17-1.08 11.17ZM882.15 1704.72a6.13 6.13 0 0 1-.13 2.07c-.78 4-4.46 10.34-8 8.74a3.22 3.22 0 0 1-1.12-.82 2.83 2.83 0 0 1-.52-.52c-.22-.21-.39-.43-.56-.6a.23.23 0 0 1-.13-.18c-5-5.45-5.11-9-5.11-9s5.58-3.46 7.75-7.35a6 6 0 0 0 .6-1.3s5.89 5.88 7.1 8.65c.03.05.07.18.12.31Z" class="colorc2d2fc svgShape"></path><path fill="#c2dffc" d="M891.15 1712a7.73 7.73 0 0 0-1.3.56c-3.9 2.16-7.36 7.74-7.36 7.74s-1.94 0-5.19-2.07a.92.92 0 0 1-.17-.13 24.87 24.87 0 0 1-4.24-3.38 2.83 2.83 0 0 1-.52-.52.65.65 0 0 1-.22-.17l-.08-.09c-.09-.13-.22-.21-.26-.34a.23.23 0 0 1-.13-.18c-2.6-3.72 4.24-7.74 8.39-8.56a5.75 5.75 0 0 1 2.08-.13 1.62 1.62 0 0 1 .34.13c2.77 1.24 8.66 7.14 8.66 7.14ZM944.06 1647.35a15.37 15.37 0 0 1-2.12.91 8.92 8.92 0 0 1-1.86.52 5.42 5.42 0 0 1-2.12.09.71.71 0 0 1-.31-.09 26.28 26.28 0 0 1-4.63-3.33c-.9-.77-1.77-1.6-2.5-2.2a17.48 17.48 0 0 0-1.35-1.34l-.21-.22c.08 0 .17 0 .26-.09.34-.13.73-.3 1.08-.47a1.54 1.54 0 0 1 .39-.22 18.12 18.12 0 0 0 4-3.51 32.82 32.82 0 0 0 2.94-3.94s2.81.09 7.27 3.55c.52.43 1.08.87 1.69 1.43 0 0 .08 0 .13.13a5.82 5.82 0 0 1 .56.47 40 40 0 0 1 1.17 1.26c1.88 2.51-1.06 5.36-4.39 7.05Z" class="colorc2d2fc svgShape"></path><path fill="#c2dffc" d="M953.53 1649.25a31 31 0 0 0-6.19 5.24 14.1 14.1 0 0 0-1.38 1.77c0 .09-.09.18-.13.31a5.47 5.47 0 0 0-.6 1.34s-5.89-5.89-7.14-8.66c-.05-.13-.09-.26-.13-.38a5.45 5.45 0 0 1 .13-2c.6-3.2 3.15-8 6-8.82a2.79 2.79 0 0 1 2.51.34c0 .05.08.05.13.09a5.82 5.82 0 0 1 .56.47 40 40 0 0 1 1.17 1.26c4.99 5.45 5.07 9.04 5.07 9.04ZM945.23 1695.72c1.42 4.39 8.32 8.65 8.32 8.65s-.12 4.17-6.29 10.35c-4.74 4.73-10.41-7.55-9.16-10.33s7.13-8.67 7.13-8.67Z" class="colorc2d2fc svgShape"></path><path fill="#c2dffc" d="M929 1712c4.38 1.42 8.65 8.32 8.65 8.32s4.16-.11 10.34-6.29c4.73-4.73-7.54-10.41-10.32-9.16S929 1712 929 1712ZM891.16 1641.65c-4.38-1.42-8.65-8.31-8.65-8.31s-4.16.11-10.34 6.29c-4.73 4.73 7.54 10.41 10.32 9.16s8.67-7.14 8.67-7.14Z" class="colorc2d2fc svgShape"></path><path fill="#c2dffc" d="M874.9 1657.91c-1.42-4.38-8.32-8.65-8.32-8.65s.12-4.16 6.29-10.34c4.74-4.73 10.41 7.54 9.16 10.33s-7.13 8.66-7.13 8.66Z" class="colorc2d2fc svgShape"></path><path fill="#e8f3ff" d="M1765.76 1650.53v.07a78.5 78.5 0 1 1 0-.07Z" class="colore8f1ff svgShape"></path><path fill="#dae7f5" d="M1765.76 1650.53v.07a78.48 78.48 0 0 1-63.1 77l-48.13-39.79a49.78 49.78 0 1 1 63.31-76.85Z" class="colordae4f5 svgShape"></path><path fill="#5489bf" d="M1736 1649.37a49.6 49.6 0 0 1-13.65 34.21c-.73.8-1.5 1.57-2.3 2.3a49.75 49.75 0 1 1 16-36.51Z" class="color546fbf svgShape"></path><circle cx="1686.18" cy="1649.37" r="44.88" fill="#91bfed" class="color91a9ed svgShape"></circle><circle cx="1686.18" cy="1649.37" r="30.02" fill="#5489bf" class="color546fbf svgShape"></circle><circle cx="1686.18" cy="1649.37" r="25.07" fill="#91bfed" class="color91a9ed svgShape"></circle><circle cx="1686.18" cy="1649.37" r="10.21" fill="#5489bf" transform="rotate(-22.36 1686.206 1649.4)" class="color546fbf svgShape"></circle><path fill="#91bfed" d="M1722.76 1686.21c8 7.6 6.54 15.45 6.54 15.45l2.41-4.12 4.93 2.64Z" class="color91a9ed svgShape"></path><path fill="#91bfed" d="M1722.68 1686.3c7.59 8 15.44 6.53 15.44 6.53l-4.11 2.42 2.63 4.92Z" class="color91a9ed svgShape"></path><path fill="#c2dffc" d="M1707.91 1668.05c11.29 11.3 19.49 21 18.55 22s-10.65-7.26-22-18.56a176.3 176.3 0 0 1-18.76-22.15 183.73 183.73 0 0 1 22.21 18.71Z" class="colorc2d2fc svgShape"></path></svg>