<svg xmlns="http://www.w3.org/2000/svg" enable-background="new 0 0 2500 2500" viewBox="0 0 2500 2500" id="Businessseminarspeakerdoingpresentationandprofessionaltrainingaboutmarketing"><g fill="#000000" class="color000000 svgShape"><path fill="#f0f4f8" fill-rule="evenodd" d="M1245.09,430.51c-221.99,0-196.34,392.68-357.16,513.05c-213.11,157.86-579.16,79.92-579.16,352.23
		c0,477.53,474.57,650.2,992.56,650.2c517,0,958.03-264.42,804.11-740.97S1763.08,430.51,1245.09,430.51L1245.09,430.51z" clip-rule="evenodd" class="colorf0f3f8 svgShape"></path></g><g fill="#000000" class="color000000 svgShape"><path fill="#f6f8fb" fill-rule="evenodd" d="M335.41,1189.24v287.11c-16.77-55.25-26.64-115.44-26.64-181.54C308.77,1251.4,318.63,1216.87,335.41,1189.24
		L335.41,1189.24z" clip-rule="evenodd" class="colorf6f8fb svgShape"></path></g><g fill="#000000" class="color000000 svgShape"><path fill="#f6f8fb" fill-rule="evenodd" d="M649.16,1042.23v777.47c-101.62-50.32-186.48-117.41-245.67-203.25v-493.32
		C467.62,1084.66,557.4,1065.91,649.16,1042.23L649.16,1042.23z" clip-rule="evenodd" class="colorf6f8fb svgShape"></path></g><g fill="#000000" class="color000000 svgShape"><path fill="#f0f4f8" fill-rule="evenodd" d="M608.71,1053.08V1798c-15.79-8.88-31.57-17.76-46.37-27.63v-705.45
		C578.12,1060.98,592.92,1057.03,608.71,1053.08L608.71,1053.08z" clip-rule="evenodd" class="colorf0f3f8 svgShape"></path></g><g fill="#000000" class="color000000 svgShape"><path fill="#f6f8fb" fill-rule="evenodd" d="M962.91,847.86v1070.5c-87.81-15.79-170.69-38.48-245.67-68.08v-826.8c61.17-18.75,120.37-43.41,170.69-80.9
		C918.51,919.89,942.19,886.34,962.91,847.86L962.91,847.86z" clip-rule="evenodd" class="colorf6f8fb svgShape"></path></g><g fill="#000000" class="color000000 svgShape"><path fill="#f0f4f8" fill-rule="evenodd" d="M922.46,910.02v1000.45c-15.79-2.96-30.59-6.91-46.37-9.87V950.47c3.95-1.97,7.89-4.93,11.84-7.89
		C900.75,933.7,911.61,921.86,922.46,910.02L922.46,910.02z" clip-rule="evenodd" class="colorf0f3f8 svgShape"></path></g><g fill="#000000" class="color000000 svgShape"><path fill="#f6f8fb" fill-rule="evenodd" d="M1276.66,430.51v1515.48c-83.86-0.99-165.76-6.91-245.67-16.77V676.19c44.4-127.28,91.76-246.66,214.1-246.66
		C1255.94,429.53,1266.8,430.51,1276.66,430.51L1276.66,430.51z" clip-rule="evenodd" class="colorf6f8fb svgShape"></path></g><g fill="#000000" class="color000000 svgShape"><path fill="#f0f4f8" fill-rule="evenodd" d="M1236.21,430.51v1514.49c-14.8,0-30.59-0.99-45.39-1.97V439.39C1204.64,434.46,1219.44,431.5,1236.21,430.51
		L1236.21,430.51z" clip-rule="evenodd" class="colorf0f3f8 svgShape"></path></g><g fill="#000000" class="color000000 svgShape"><path fill="#f6f8fb" fill-rule="evenodd" d="M1590.41,489.71v1426.68c-77.94,16.77-159.84,26.64-245.67,28.61V434.46
		C1437.48,441.37,1519.38,460.11,1590.41,489.71L1590.41,489.71z" clip-rule="evenodd" class="colorf6f8fb svgShape"></path></g><g fill="#000000" class="color000000 svgShape"><path fill="#f0f4f8" fill-rule="evenodd" d="M1549.96,474.91v1449.37c-14.8,2.96-30.59,4.93-45.39,6.91V461.1
		C1520.36,465.04,1535.16,469.98,1549.96,474.91L1549.96,474.91z" clip-rule="evenodd" class="colorf0f3f8 svgShape"></path></g><g fill="#000000" class="color000000 svgShape"><path fill="#f6f8fb" fill-rule="evenodd" d="M1904.17,754.13V1790.1c-70.05,47.36-153.92,82.88-245.67,109.52V522.27
		C1759.13,576.54,1838.06,655.47,1904.17,754.13L1904.17,754.13z" clip-rule="evenodd" class="colorf6f8fb svgShape"></path></g><g fill="#000000" class="color000000 svgShape"><path fill="#f0f4f8" fill-rule="evenodd" d="M1863.71,698.88v1115.89c-14.8,8.88-29.6,16.77-45.39,24.67V645.6
		C1834.11,662.37,1849.9,680.13,1863.71,698.88L1863.71,698.88z" clip-rule="evenodd" class="colorf0f3f8 svgShape"></path></g><g fill="#000000" class="color000000 svgShape"><path fill="#f6f8fb" fill-rule="evenodd" d="M1972.24,1738.8V870.55c50.32,97.68,92.74,210.16,133.2,333.48C2179.44,1432.94,2116.29,1613.5,1972.24,1738.8
		L1972.24,1738.8z" clip-rule="evenodd" class="colorf6f8fb svgShape"></path></g><g fill="#000000" class="color000000 svgShape"><path fill="#f0f4f8" fill-rule="evenodd" d="M2132.08,1453.66v-131.22C2138,1368.81,2138,1412.22,2132.08,1453.66L2132.08,1453.66z" clip-rule="evenodd" class="colorf0f3f8 svgShape"></path></g><g fill="#000000" class="color000000 svgShape"><path fill="#e5ecf4" fill-rule="evenodd" d="M2043.28,1898.63c74,0,134.18,5.92,134.18,12.83s-60.18,11.84-134.18,11.84c-73.01,0-133.2-4.94-133.2-11.84
		S1970.27,1898.63,2043.28,1898.63L2043.28,1898.63z" clip-rule="evenodd" class="colore5eaf4 svgShape"></path></g><g fill="#000000" class="color000000 svgShape"><path fill="#e5ecf4" fill-rule="evenodd" d="M1798.6,1947.97c189.43,0,343.35,10.85,343.35,24.67c0,14.8-153.92,25.65-343.35,25.65
		c-190.42,0-344.34-10.85-344.34-25.65C1454.26,1958.82,1608.17,1947.97,1798.6,1947.97L1798.6,1947.97z" clip-rule="evenodd" class="colore5eaf4 svgShape"></path></g><g fill="#000000" class="color000000 svgShape"><path fill="#e5ecf4" fill-rule="evenodd" d="M439.99,1663.81c176.61,202.26,520.95,282.18,860.35,282.18c340.39,0,588.04-83.86,722.22-283.17
		c-201.27-28.61-437.08-46.37-745.9-46.37C967.84,1616.45,664.94,1595.74,439.99,1663.81L439.99,1663.81z" clip-rule="evenodd" class="colore5eaf4 svgShape"></path></g><g fill="#000000" class="color000000 svgShape"><path fill="#e5ecf4" fill-rule="evenodd" d="M1404.93,2021.96c230.87,0,419.32,17.76,419.32,40.45c0,21.71-188.45,39.47-419.32,39.47
		c-231.86,0-419.32-17.76-419.32-39.47C985.6,2039.72,1173.06,2021.96,1404.93,2021.96L1404.93,2021.96z" clip-rule="evenodd" class="colore5eaf4 svgShape"></path></g><g fill="#000000" class="color000000 svgShape"><path fill="#dce6f0" fill-rule="evenodd" d="M2026.51,1442.81l-874.16,5.92c-9.87,0-17.76-7.89-17.76-17.76l-3.95-539.69c0-9.87,7.89-17.76,17.76-17.76
		l874.16-4.93c9.87,0,17.76,7.89,17.76,16.77l3.95,539.69C2044.27,1434.91,2036.38,1442.81,2026.51,1442.81L2026.51,1442.81z
		 M2073.87,885.35c-0.99-27.63-23.68-50.32-51.31-50.32l-874.16,5.92c-27.63,0-50.32,22.69-50.32,50.32l3.95,539.69
		c0,28.61,22.69,50.32,50.32,50.32l874.16-4.94c27.63-0.99,50.32-23.68,50.32-51.3L2073.87,885.35z" clip-rule="evenodd" class="colordce2f0 svgShape"></path></g><g fill="#000000" class="color000000 svgShape"><path fill="#ffffff" fill-rule="evenodd" d="M2044.27,1425.05c0,9.87-7.89,17.76-17.76,17.76l-874.16,5.92c-9.87,0-17.76-7.89-17.76-17.76l-3.95-539.69
		c0-9.87,7.89-17.76,17.76-17.76l874.16-4.93c9.87,0,17.76,7.89,17.76,16.77L2044.27,1425.05z" clip-rule="evenodd" class="colorffffff svgShape"></path></g><g fill="#000000" class="color000000 svgShape"><path fill="#ccdae9" fill-rule="evenodd" d="M2074.85,877.46h-974.8c-16.77,0-30.59-12.83-30.59-29.6c0-16.77,13.81-30.59,30.59-30.59h974.8
		c16.77,0,30.59,13.81,30.59,30.59c0,8.88-4.93,17.76-11.84,23.68C2088.67,875.49,2081.76,877.46,2074.85,877.46L2074.85,877.46z" clip-rule="evenodd" class="colorccd5e9 svgShape"></path></g><g fill="#000000" class="color000000 svgShape"><rect width="5.92" height="393.67" x="1202.66" y="985" fill="#b6cadf" fill-rule="evenodd" clip-rule="evenodd" class="colorb6c4df svgShape"></rect></g><g fill="#000000" class="color000000 svgShape"><rect width="32.56" height="108.53" x="1229.3" y="1268.17" fill="#c1d3e5" fill-rule="evenodd" clip-rule="evenodd" class="colorc1cde5 svgShape"></rect></g><g fill="#000000" class="color000000 svgShape"><rect width="33.55" height="144.05" x="1293.44" y="1232.65" fill="#ccdae9" fill-rule="evenodd" clip-rule="evenodd" class="colorccd5e9 svgShape"></rect></g><g fill="#000000" class="color000000 svgShape"><rect width="32.56" height="218.05" x="1358.55" y="1158.65" fill="#dce6f0" fill-rule="evenodd" clip-rule="evenodd" class="colordce2f0 svgShape"></rect></g><g fill="#000000" class="color000000 svgShape"><rect width="32.56" height="279.22" x="1422.68" y="1097.48" fill="#e5ecf4" fill-rule="evenodd" clip-rule="evenodd" class="colore5eaf4 svgShape"></rect></g><g fill="#000000" class="color000000 svgShape"><rect width="290.07" height="5.92" x="1202.66" y="1372.75" fill="#b6cadf" fill-rule="evenodd" clip-rule="evenodd" class="colorb6c4df svgShape"></rect></g><g fill="#000000" class="color000000 svgShape"><polygon fill="#b6cadf" fill-rule="evenodd" points="1197.73 996.84 1205.62 977.11 1213.52 996.84" clip-rule="evenodd" class="colorb6c4df svgShape"></polygon></g><g fill="#000000" class="color000000 svgShape"><polygon fill="#b6cadf" fill-rule="evenodd" points="1484.84 1367.82 1503.59 1375.72 1484.84 1383.61" clip-rule="evenodd" class="colorb6c4df svgShape"></polygon></g><g fill="#000000" class="color000000 svgShape"><polygon fill="#c1d3e5" fill-rule="evenodd" points="1455.24 996.84 1501.62 1025.46 1504.58 973.17" clip-rule="evenodd" class="colorc1cde5 svgShape"></polygon></g><g fill="#000000" class="color000000 svgShape"><path fill="#b6cadf" fill-rule="evenodd" d="M1179.97,1010.66c1.97-0.99,2.96-1.97,2.96-3.95v-0.99l-0.99-0.99l-0.99-0.99h-0.99V1010.66z M1177.01,991.91
		c-1.97,0.99-1.97,1.97-1.97,2.96c0,0.99,0,1.97,0,1.97c0.99,0.99,0.99,0.99,1.97,0.99V991.91z M1179.97,998.82
		c1.97,0,2.96,0.99,3.95,0.99c0.99,0.99,0.99,0.99,1.97,1.97c0.99,0.99,1.97,2.96,1.97,4.94c0,0.99-0.99,1.97-0.99,2.96
		c0,0.99-0.99,0.99-0.99,1.97c-0.99,0.99-1.97,1.97-2.96,1.97c0,0.99-1.97,0.99-2.96,0.99v2.96h-2.96v-2.96
		c-0.99,0-1.97,0-2.96-0.99c-0.99,0-1.97-0.99-2.96-1.97c0,0-0.99-0.99-0.99-1.97c0-0.99-0.99-2.96-0.99-3.95h4.93
		c0,0.99,0.99,1.97,0.99,2.96c0,0.99,0.99,0.99,1.97,1.97v-7.89c-4.93-0.99-6.91-3.95-6.91-7.89c0-0.99,0-1.97,0-2.96
		c0.99,0,0.99-0.99,1.97-1.97c0,0,0.99-0.99,1.97-0.99c0.99-0.99,1.97-0.99,2.96-0.99V985h2.96v2.96c3.95,0,6.91,2.96,6.91,6.91
		h-4.93c0-0.99-0.99-2.96-1.97-2.96V998.82z" clip-rule="evenodd" class="colorb6c4df svgShape"></path></g><g fill="#000000" class="color000000 svgShape"><path fill="#b6cadf" fill-rule="evenodd" d="M1230.29,1397.42c0,0.99,0,1.97,0,1.97c-0.99,0.99-0.99,1.97-0.99,1.97c-0.99,0-0.99,0.99-1.97,0.99h-0.99
		c-0.99,0-1.97,0-1.97,0c-0.99,0-0.99-0.99-0.99-0.99c-0.99,0-0.99-0.99-0.99-0.99c0-0.99,0-0.99,0-1.97v-0.99h1.97
		c0,1.97,0.99,2.96,1.97,2.96l0,0l0.99-0.99l0,0c0-0.99,0-0.99,0-1.97v-8.88h2.96V1397.42z M1258.9,1402.35h-2.96l-5.92-9.87v9.87
		h-2.96v-13.81h2.96l5.92,8.88v-8.88h2.96V1402.35z M1240.16,1396.43l-1.97-4.93l-0.99,4.93H1240.16z M1245.09,1402.35h-2.96
		l-0.99-3.94h-4.93l-1.97,3.94h-1.97l4.93-13.81h2.96L1245.09,1402.35z" clip-rule="evenodd" class="colorb6c4df svgShape"></path></g><g fill="#000000" class="color000000 svgShape"><path fill="#b6cadf" fill-rule="evenodd" d="M1292.45,1390.51h-6.91v2.96h5.92v2.96h-5.92v5.92h-2.96v-13.81h9.87V1390.51z M1311.19,1399.39h2.96
		c1.97,0,2.96,0,2.96-0.99v-0.99l-0.99-0.99h-0.99c0,0,0,0-0.99,0h-2.96V1399.39z M1311.19,1393.48h2.96c0.99,0,0.99,0,1.97,0v-0.99
		v-0.99v-0.99h-0.99h-0.99h-2.96V1393.48z M1320.07,1398.41c0,0.99-0.99,1.97-1.97,2.96c-0.99,0.99-1.97,0.99-3.95,0.99h-4.93
		v-13.81h4.93c0.99,0,0.99,0,1.97,0c0.99,0,0.99,0,1.97,0.99l0.99,0.99c0,0,0,0.99,0,1.97v0.99l-0.99,0.99l0.99,0.99v0.99l0.99,0.99
		V1398.41z M1306.26,1402.35h-10.85v-13.81h10.85v1.97h-7.89v2.96h6.91v2.96h-6.91v2.96h7.89V1402.35z" clip-rule="evenodd" class="colorb6c4df svgShape"></path></g><g fill="#000000" class="color000000 svgShape"><path fill="#b6cadf" fill-rule="evenodd" d="M1350.66,1402.35h-2.96v-8.88l-2.96,8.88h-1.97l-2.96-8.88v8.88h-2.96v-13.81h3.95l2.96,9.87l2.96-9.87h3.95
		V1402.35z M1370.39,1394.46h2.96h0.99l0.99-0.99h0.99v-0.99c0-0.99,0-0.99-0.99-1.97h-0.99h-3.95V1394.46z M1375.33,1398.41v-0.99
		h-0.99l-0.99-0.99l0,0h-2.96v5.92h-2.96v-13.81h5.92h1.97l0,0h0.99l0.99,0.99c0.99,0,0.99,0.99,0.99,0.99
		c0.99,0.99,0.99,0.99,0.99,1.97c0,0.99-0.99,0.99-0.99,1.97s-0.99,0.99-1.97,0.99l0.99,0.99c0,0.99,0.99,0.99,0.99,1.97l0.99,3.94
		h-2.96L1375.33,1398.41z M1360.53,1396.43l-1.97-4.93l-0.99,4.93H1360.53z M1365.46,1402.35h-2.96l-0.99-3.94h-4.93l-1.97,3.94
		h-2.96l5.92-13.81h1.97L1365.46,1402.35z" clip-rule="evenodd" class="colorb6c4df svgShape"></path></g><g fill="#000000" class="color000000 svgShape"><path fill="#b6cadf" fill-rule="evenodd" d="M1406.9,1396.43l-1.97-4.93l-1.97,4.93H1406.9z M1429.59,1394.46h3.95h0.99l0.99-0.99l0,0v-0.99
		c0-0.99,0-0.99,0-1.97c-0.99,0-0.99,0-1.97,0h-3.95V1394.46z M1434.52,1398.41v-0.99h-0.99v-0.99h-0.99h-2.96v5.92h-2.96v-13.81
		h6.91h0.99h0.99h0.99l0.99,0.99c0,0,0,0.99,0.99,0.99c0,0.99,0,0.99,0,1.97c0,0.99,0,0.99-0.99,1.97c0,0.99-0.99,0.99-0.99,0.99
		v0.99c0.99,0.99,0.99,0.99,0.99,1.97l1.97,3.94h-2.96L1434.52,1398.41z M1415.78,1394.46h2.96c0.99,0,0.99,0,1.97,0l0,0l0.99-0.99
		v-0.99v-0.99l-0.99-0.99h-0.99h-0.99h-2.96V1394.46z M1413.81,1388.54h4.93c0.99,0,1.97,0,1.97,0c0.99,0,0.99,0,1.97,0.99
		c0,0,0.99,0,0.99,0.99c0.99,0,0.99,0.99,0.99,1.97c0,1.97-0.99,2.96-1.97,2.96c-0.99,0.99-1.97,1.97-3.95,1.97h-2.96v4.93h-1.97
		V1388.54z M1411.83,1402.35h-2.96l-1.97-3.94h-4.93l-0.99,3.94h-2.96l5.92-13.81h1.97L1411.83,1402.35z" clip-rule="evenodd" class="colorb6c4df svgShape"></path></g><g fill="#000000" class="color000000 svgShape"><polygon fill="#c1d3e5" fill-rule="evenodd" points="1232.26 1256.33 1225.36 1245.48 1302.31 1198.12 1370.39 1123.13 1430.58 1068.87 1473.99 986.98 1501.62 1006.71 1440.44 1077.75 1379.27 1132.01 1310.21 1207.99" clip-rule="evenodd" class="colorc1cde5 svgShape"></polygon></g><g fill="#000000" class="color000000 svgShape"><path fill="#c1d3e5" fill-rule="evenodd" d="M1316.13,1199.11c0,3.95-1.97,6.91-5.92,6.91c-3.95,0-6.91-2.96-6.91-6.91s2.96-5.92,6.91-5.92
		C1314.15,1193.19,1316.13,1195.16,1316.13,1199.11L1316.13,1199.11z" clip-rule="evenodd" class="colorc1cde5 svgShape"></path></g><g fill="#000000" class="color000000 svgShape"><path fill="#c1d3e5" fill-rule="evenodd" d="M1252,1242.52c0,2.96-2.96,5.92-6.91,5.92c-2.96,0-5.92-2.96-5.92-5.92c0-3.95,2.96-6.91,5.92-6.91
		C1249.04,1235.61,1252,1238.57,1252,1242.52L1252,1242.52z" clip-rule="evenodd" class="colorc1cde5 svgShape"></path></g><g fill="#000000" class="color000000 svgShape"><path fill="#c1d3e5" fill-rule="evenodd" d="M1381.25,1127.08c0,3.95-2.96,6.91-6.91,6.91c-2.96,0-5.92-2.96-5.92-6.91c0-2.96,2.96-5.92,5.92-5.92
		C1378.29,1121.16,1381.25,1124.12,1381.25,1127.08L1381.25,1127.08z" clip-rule="evenodd" class="colorc1cde5 svgShape"></path></g><g fill="#000000" class="color000000 svgShape"><path fill="#c1d3e5" fill-rule="evenodd" d="M1443.4,1072.82c0,3.95-2.96,6.91-6.91,6.91s-6.91-2.96-6.91-6.91c0-2.96,2.96-5.92,6.91-5.92
		S1443.4,1069.86,1443.4,1072.82L1443.4,1072.82z" clip-rule="evenodd" class="colorc1cde5 svgShape"></path></g><g fill="#000000" class="color000000 svgShape"><path fill="#dce6f0" fill-rule="evenodd" d="M1226.34,960.34h-12.83v-28.61h12.83V960.34z M1475.96,960.34h-12.83l-0.99-28.61h13.81V960.34z
		 M1459.19,960.34h-12.83v-28.61h12.83V960.34z M1442.42,960.34h-12.83v-28.61h12.83V960.34z M1408.87,960.34h-12.83v-28.61h12.83
		V960.34z M1392.1,960.34h-12.83v-28.61h12.83V960.34z M1376.31,960.34h-12.83v-28.61h12.83V960.34z M1359.54,960.34h-12.83v-28.61
		h12.83V960.34z M1357.57,1006.71h-8.88v-19.73h8.88V1006.71z M1346.71,1006.71h-8.88v-19.73h8.88V1006.71z M1415.78,1006.71h-8.88
		v-19.73h8.88V1006.71z M1404.93,1006.71h-8.88v-19.73h8.88V1006.71z M1393.09,1006.71h-8.88v-19.73h8.88V1006.71z M1382.23,1006.71
		h-8.88v-19.73h8.88V1006.71z M1370.39,1006.71h-8.88v-19.73h8.88V1006.71z M1323.03,1006.71h-8.88v-19.73h8.88V1006.71z
		 M1312.18,1006.71h-8.88v-19.73h8.88V1006.71z M1300.34,1006.71h-8.88v-19.73h8.88V1006.71z M1289.49,1006.71h-8.88v-19.73h8.88
		V1006.71z M1277.65,1006.71h-8.88v-19.73h8.88V1006.71z M1342.77,960.34h-12.83v-28.61h12.83V960.34z M1325.99,960.34h-12.83
		v-28.61h12.83V960.34z M1293.44,960.34h-13.81v-28.61h12.83L1293.44,960.34z M1276.66,960.34h-12.83v-28.61h12.83V960.34z
		 M1259.89,960.34h-12.83v-28.61h12.83V960.34z M1243.12,960.34h-12.83v-28.61h12.83V960.34z" clip-rule="evenodd" class="colordce2f0 svgShape"></path></g><g fill="#000000" class="color000000 svgShape"><path fill="#fefefe" fill-rule="evenodd" d="M1753.21,1022.5c0,23.68-9.87,44.4-24.67,60.19c-15.79,16.77-37.49,26.64-62.16,26.64
		c-48.35,0-86.82-38.48-86.82-86.83c0-29.6,14.8-56.24,36.51-72.02c14.8-9.87,31.57-14.8,50.32-14.8
		C1713.74,935.67,1753.21,974.15,1753.21,1022.5L1753.21,1022.5z" clip-rule="evenodd" class="colorfefefe svgShape"></path></g><g fill="#000000" class="color000000 svgShape"><path fill="#e5ecf4" fill-rule="evenodd" d="M1748.28,1022.5c0,21.71-8.88,41.44-23.68,56.24c-14.8,15.79-35.52,25.65-58.21,25.65
		c-45.39,0-81.89-36.51-81.89-81.89c0-27.63,13.81-52.29,34.53-67.09c13.81-8.88,29.6-14.8,47.36-14.8
		C1710.78,940.61,1748.28,977.11,1748.28,1022.5L1748.28,1022.5z" clip-rule="evenodd" class="colore5eaf4 svgShape"></path></g><g fill="#000000" class="color000000 svgShape"><path fill="#dce6f0" fill-rule="evenodd" d="M1666.39,940.61v81.89l-47.36-67.09C1632.84,946.53,1648.63,940.61,1666.39,940.61L1666.39,940.61z" clip-rule="evenodd" class="colordce2f0 svgShape"></path></g><g fill="#000000" class="color000000 svgShape"><path fill="#ccdae9" fill-rule="evenodd" d="M1748.28,1022.5h-81.89v-81.89C1710.78,940.61,1748.28,977.11,1748.28,1022.5L1748.28,1022.5z" clip-rule="evenodd" class="colorccd5e9 svgShape"></path></g><g fill="#000000" class="color000000 svgShape"><path fill="#b6cadf" fill-rule="evenodd" d="M1748.28,1022.5c0,21.71-8.88,41.44-23.68,56.24l-58.21-56.24H1748.28z" clip-rule="evenodd" class="colorb6c4df svgShape"></path></g><g fill="#000000" class="color000000 svgShape"><path fill="#ccdae9" fill-rule="evenodd" d="M2012.7,950.47h-194.37v-32.56h194.37V950.47z M2012.7,1033.35h-194.37v-7.89h194.37V1033.35z M2012.7,1004.74
		h-194.37v-7.89h194.37V1004.74z M2012.7,976.12h-194.37v-8.88h194.37V976.12z" clip-rule="evenodd" class="colorccd5e9 svgShape"></path></g><g fill="#000000" class="color000000 svgShape"><rect width="64.13" height="87.81" x="1576.6" y="1293.82" fill="#dce6f0" fill-rule="evenodd" clip-rule="evenodd" class="colordce2f0 svgShape"></rect></g><g fill="#000000" class="color000000 svgShape"><rect width="63.15" height="110.5" x="1640.73" y="1271.13" fill="#c1d3e5" fill-rule="evenodd" clip-rule="evenodd" class="colorc1cde5 svgShape"></rect></g><g fill="#000000" class="color000000 svgShape"><rect width="63.14" height="95.7" x="1703.88" y="1285.93" fill="#dce6f0" fill-rule="evenodd" clip-rule="evenodd" class="colordce2f0 svgShape"></rect></g><g fill="#000000" class="color000000 svgShape"><rect width="63.15" height="140.1" x="1767.02" y="1241.53" fill="#c1d3e5" fill-rule="evenodd" clip-rule="evenodd" class="colorc1cde5 svgShape"></rect></g><g fill="#000000" class="color000000 svgShape"><rect width="64.13" height="117.41" x="1830.17" y="1264.22" fill="#dce6f0" fill-rule="evenodd" clip-rule="evenodd" class="colordce2f0 svgShape"></rect></g><g fill="#000000" class="color000000 svgShape"><rect width="63.15" height="162.79" x="1894.3" y="1218.84" fill="#c1d3e5" fill-rule="evenodd" clip-rule="evenodd" class="colorc1cde5 svgShape"></rect></g><g fill="#000000" class="color000000 svgShape"><polygon fill="#b6cadf" fill-rule="evenodd" points="1559.83 1262.25 1552.92 1249.42 1883.45 1183.32 1867.66 1169.51 1921.93 1171.48 1891.34 1216.87 1889.37 1196.15" clip-rule="evenodd" class="colorb6c4df svgShape"></polygon></g><g fill="#000000" class="color000000 svgShape"><path fill="#dce6f0" fill-rule="evenodd" d="M1207.6,515.36c70.05-1.97,127.28,53.28,128.26,123.33c1.97,69.06-53.28,126.29-122.34,127.28
		c-70.05,1.97-127.28-53.28-128.26-122.34C1083.28,573.57,1138.53,516.35,1207.6,515.36L1207.6,515.36z" clip-rule="evenodd" class="colordce2f0 svgShape"></path></g><g fill="#000000" class="color000000 svgShape"><path fill="#c1d3e5" fill-rule="evenodd" d="M1208.58,533.12c59.2-0.99,108.53,46.37,109.52,105.57c0.99,59.2-46.37,108.53-105.57,109.52
		c-59.2,0.99-108.53-46.37-109.52-105.57C1102.03,583.44,1149.39,535.1,1208.58,533.12L1208.58,533.12z" clip-rule="evenodd" class="colorc1cde5 svgShape"></path></g><g fill="#000000" class="color000000 svgShape"><path fill="#e5ecf4" fill-rule="evenodd" d="M1208.58,542c54.27-0.99,99.65,42.42,100.64,96.69c1.97,55.25-41.44,99.65-96.69,101.62
		c-54.27,0.99-99.65-42.43-100.64-97.68C1109.92,588.38,1154.32,542.99,1208.58,542L1208.58,542z" clip-rule="evenodd" class="colore5eaf4 svgShape"></path></g><g fill="#000000" class="color000000 svgShape"><path fill="#f6f8fb" fill-rule="evenodd" d="M1110.91,642.64c-0.99-55.25,42.43-100.64,97.68-101.62c55.25-0.99,100.64,42.43,101.62,97.68
		c0.99,55.25-42.43,100.64-97.68,101.62C1157.28,741.3,1111.89,697.89,1110.91,642.64L1110.91,642.64z" clip-rule="evenodd" class="colorf6f8fb svgShape"></path></g><g fill="#000000" class="color000000 svgShape"><path fill="#b6cadf" fill-rule="evenodd" d="M1217.46,631.79l26.64-10.85l10.85,0.99l-6.91,9.87l-25.65,10.85c0-0.99,0-0.99,0-1.97
		C1222.4,636.72,1220.42,633.76,1217.46,631.79L1217.46,631.79z" clip-rule="evenodd" class="colorb6c4df svgShape"></path></g><g fill="#000000" class="color000000 svgShape"><path fill="#b6cadf" fill-rule="evenodd" d="M1206.61,618.96l-0.99-31.57l2.96-13.81l3.95,12.83l0.99,29.6h-2.96
		C1208.58,615.01,1206.61,616.99,1206.61,618.96L1206.61,618.96z" clip-rule="evenodd" class="colorb6c4df svgShape"></path></g><g fill="#000000" class="color000000 svgShape"><path fill="#b6cadf" fill-rule="evenodd" d="M1201.68,640.67c0-4.94,3.95-8.88,8.88-8.88c4.93,0,8.88,3.95,8.88,8.88c0,4.93-3.95,8.88-8.88,8.88
		C1205.62,649.55,1201.68,645.6,1201.68,640.67L1201.68,640.67z" clip-rule="evenodd" class="colorb6c4df svgShape"></path></g><g fill="#000000" class="color000000 svgShape"><polygon fill="#b6cadf" fill-rule="evenodd" points="1282.58 642.64 1282.58 636.72 1299.35 635.73 1299.35 641.65" clip-rule="evenodd" class="colorb6c4df svgShape"></polygon></g><g fill="#000000" class="color000000 svgShape"><polygon fill="#b6cadf" fill-rule="evenodd" points="1272.72 678.16 1275.68 673.23 1289.49 681.12 1286.53 686.05" clip-rule="evenodd" class="colorb6c4df svgShape"></polygon></g><g fill="#000000" class="color000000 svgShape"><polygon fill="#b6cadf" fill-rule="evenodd" points="1245.09 703.81 1250.02 700.85 1258.9 714.67 1253.97 718.61" clip-rule="evenodd" class="colorb6c4df svgShape"></polygon></g><g fill="#000000" class="color000000 svgShape"><polygon fill="#b6cadf" fill-rule="evenodd" points="1208.58 712.69 1215.49 712.69 1215.49 729.46 1209.57 729.46" clip-rule="evenodd" class="colorb6c4df svgShape"></polygon></g><g fill="#000000" class="color000000 svgShape"><polygon fill="#b6cadf" fill-rule="evenodd" points="1173.06 702.83 1178 705.79 1170.11 719.6 1165.17 716.64" clip-rule="evenodd" class="colorb6c4df svgShape"></polygon></g><g fill="#000000" class="color000000 svgShape"><polygon fill="#b6cadf" fill-rule="evenodd" points="1147.41 675.2 1150.37 681.12 1136.56 689.01 1133.6 684.08" clip-rule="evenodd" class="colorb6c4df svgShape"></polygon></g><g fill="#000000" class="color000000 svgShape"><polygon fill="#b6cadf" fill-rule="evenodd" points="1212.53 568.64 1205.62 568.64 1205.62 551.87 1211.54 551.87" clip-rule="evenodd" class="colorb6c4df svgShape"></polygon></g><g fill="#000000" class="color000000 svgShape"><polygon fill="#b6cadf" fill-rule="evenodd" points="1248.05 579.5 1243.12 576.54 1251.01 561.74 1255.94 564.7" clip-rule="evenodd" class="colorb6c4df svgShape"></polygon></g><g fill="#000000" class="color000000 svgShape"><polygon fill="#b6cadf" fill-rule="evenodd" points="1273.7 606.14 1270.74 601.2 1284.56 592.32 1287.52 597.26" clip-rule="evenodd" class="colorb6c4df svgShape"></polygon></g><g fill="#000000" class="color000000 svgShape"><rect width="16.77" height="5.92" x="1121.76" y="639.68" fill="#b6cadf" fill-rule="evenodd" clip-rule="evenodd" class="colorb6c4df svgShape"></rect></g><g fill="#000000" class="color000000 svgShape"><polygon fill="#b6cadf" fill-rule="evenodd" points="1148.4 603.17 1145.44 609.1 1131.63 600.22 1134.59 595.28" clip-rule="evenodd" class="colorb6c4df svgShape"></polygon></g><g fill="#000000" class="color000000 svgShape"><polygon fill="#b6cadf" fill-rule="evenodd" points="1176.02 577.52 1171.09 580.48 1162.21 566.67 1167.15 563.71" clip-rule="evenodd" class="colorb6c4df svgShape"></polygon></g><g fill="#000000" class="color000000 svgShape"><path fill="#ffffff" fill-rule="evenodd" d="M1122.75,659.41c-3.95-50.32,34.53-94.72,84.85-98.66c44.4-2.96,82.88,24.67,95.7,64.13
		c-9.87-44.4-51.31-75.97-97.68-73.01c-51.31,3.95-89.78,48.35-85.84,99.65c0.99,6.91,1.97,13.81,3.95,20.72
		C1123.73,668.29,1122.75,664.35,1122.75,659.41L1122.75,659.41z" clip-rule="evenodd" class="colorffffff svgShape"></path></g><g fill="#000000" class="color000000 svgShape"><path fill="#ffffff" fill-rule="evenodd" d="M1094.13,646.59c-0.99-68.08,52.29-123.33,120.37-124.32c17.76-0.99,35.52,2.96,51.31,9.87
		c-17.76-8.88-37.49-13.81-58.21-13.81c-68.08,1.97-121.36,57.22-120.37,124.31c0.99,49.33,31.57,91.76,74,110.5
		C1121.76,732.42,1095.12,692.96,1094.13,646.59L1094.13,646.59z" clip-rule="evenodd" class="colorffffff svgShape"></path></g><g fill="#000000" class="color000000 svgShape"><path fill="#ccdae9" fill-rule="evenodd" d="M1327.97,635.73c1.97,67.09-52.29,123.33-119.38,124.32c-17.76,0.99-35.52-2.96-51.31-9.87
		c17.76,8.88,37.49,13.81,58.21,13.81c67.09-1.97,121.36-57.23,119.38-125.3c-0.99-49.33-30.59-90.77-73.01-109.52
		C1300.34,548.91,1326.98,589.36,1327.97,635.73L1327.97,635.73z" clip-rule="evenodd" class="colorccd5e9 svgShape"></path></g><g fill="#000000" class="color000000 svgShape"><path fill="#e5ecf4" fill-rule="evenodd" d="M1205.62,560.75v-8.88h5.92v8.88c-0.99,0-1.97,0-3.95,0H1205.62z" clip-rule="evenodd" class="colore5eaf4 svgShape"></path></g><g fill="#000000" class="color000000 svgShape"><path fill="#e5ecf4" fill-rule="evenodd" d="M1248.05,566.67l2.96-4.93l4.93,2.96l-1.97,3.95C1252,567.66,1250.02,567.66,1248.05,566.67L1248.05,566.67z" clip-rule="evenodd" class="colore5eaf4 svgShape"></path></g><g fill="#000000" class="color000000 svgShape"><polygon fill="#e5ecf4" fill-rule="evenodd" points="1284.56 592.32 1284.56 592.32 1285.54 593.31" clip-rule="evenodd" class="colore5eaf4 svgShape"></polygon></g><g fill="#000000" class="color000000 svgShape"><path fill="#e5ecf4" fill-rule="evenodd" d="M1122.75,645.6h-0.99v-5.92h0.99C1122.75,641.65,1122.75,643.63,1122.75,645.6L1122.75,645.6z" clip-rule="evenodd" class="colore5eaf4 svgShape"></path></g><g fill="#000000" class="color000000 svgShape"><path fill="#e5ecf4" fill-rule="evenodd" d="M1136.56,603.17l-4.93-2.96l2.96-4.93l4.93,2.96C1138.53,600.22,1137.55,602.19,1136.56,603.17L1136.56,603.17
		z" clip-rule="evenodd" class="colore5eaf4 svgShape"></path></g><g fill="#000000" class="color000000 svgShape"><path fill="#e5ecf4" fill-rule="evenodd" d="M1166.16,573.57l-3.95-6.91l1.97-0.99l0.99-0.99l1.97-0.99l4.93,6.91
		C1170.11,571.6,1168.13,572.59,1166.16,573.57L1166.16,573.57z" clip-rule="evenodd" class="colore5eaf4 svgShape"></path></g><g fill="#000000" class="color000000 svgShape"><path fill="#c1d3e5" fill-rule="evenodd" d="M1210.56,616h4.93c1.97,0,3.95,1.97,3.95,3.95l-0.99,3.95c1.97,0.99,3.95,1.97,5.92,3.95l2.96-1.97
		c1.97,0,3.95,0,4.93,1.97l1.97,4.93c0.99,1.97,0,3.95-0.99,4.93l-3.95,0.99c0,1.97,0,2.96,0,3.95c0,0.99,0,2.96,0,3.95l1.97,1.97
		c1.97,0.99,1.97,2.96,0.99,4.93l-2.96,3.95c-0.99,1.97-2.96,1.97-4.93,0.99l-2.96-1.97c-1.97,0.99-3.95,1.97-6.91,2.96v2.96
		c0,1.97-1.97,3.95-3.95,3.95l-4.93-0.99c-1.97,0-3.95-1.97-3.95-3.95l0.99-2.96c-1.97-0.99-3.95-2.96-5.92-4.93l-2.96,1.97
		c-1.97,0.99-3.95,0-4.93-1.97l-1.97-4.93c-0.99-1.97,0-3.95,1.97-4.93l2.96-0.99c0-0.99,0-2.96,0-3.95c0-0.99,0-1.97,0-2.96
		l-1.97-1.97c-1.97-1.97-1.97-3.95-0.99-5.92l2.96-3.95c0.99-1.97,2.96-1.97,4.93-0.99l2.96,1.97c1.97-0.99,3.95-1.97,6.91-2.96
		v-2.96C1206.61,616.99,1208.58,615.01,1210.56,616L1210.56,616z M1210.56,628.83c5.92,0,11.84,5.92,11.84,11.84
		c0,6.91-5.92,11.84-11.84,11.84s-11.84-4.93-11.84-11.84C1198.72,634.75,1204.64,628.83,1210.56,628.83L1210.56,628.83z" clip-rule="evenodd" class="colorc1cde5 svgShape"></path></g><g fill="#000000" class="color000000 svgShape"><path fill="#dce6f0" fill-rule="evenodd" d="M2131.09,1812.8l-7.89,70.05c-1.97,14.8-14.8,26.64-29.6,26.64h-11.84c0,0,0,0-0.99,0l0,0l0,0
		c-0.99,0-0.99,0-0.99,0l0,0c-0.99,0-0.99,0-0.99,0h-0.99c-13.81-1.97-24.67-12.83-25.65-26.64l-7.89-70.05
		c-0.99-6.91,0.99-8.88,3.95-9.87c1.97-0.99,10.85-5.92,38.48-5.92c14.8,0,22.69,0.99,28.61,1.97c5.92,1.97,8.88,2.96,10.85,3.95
		C2130.11,1804.9,2131.09,1808.85,2131.09,1812.8L2131.09,1812.8z" clip-rule="evenodd" class="colordce2f0 svgShape"></path></g><g fill="#000000" class="color000000 svgShape"><path fill="#ccdae9" fill-rule="evenodd" d="M2113.33,1817.73c0,0-3.95,0.99-21.71,1.97c-0.99,21.71-1.97,42.43-4.93,57.23c0,0.99,0,1.97-0.99,2.96
		c0,2.96,0,4.93-0.99,6.91c-2.96,12.83-15.79,17.76-24.67,13.81c2.96,2.96,5.92,4.93,8.88,5.92l0,0l0,0c0,0,0.99,0,0.99,0.99
		c0,0,0,0,0.99,0l0,0c0.99,0,0.99,0,0.99,0.99h0.99l0,0c2.96,0.99,5.92,0.99,8.88,0.99h11.84c14.8,0,27.63-11.84,29.6-26.64
		l7.89-70.05C2124.19,1819.7,2113.33,1817.73,2113.33,1817.73L2113.33,1817.73z" clip-rule="evenodd" class="colorccd5e9 svgShape"></path></g><g fill="#000000" class="color000000 svgShape"><path fill="#c1d3e5" fill-rule="evenodd" d="M2131.09,1812.8l-7.89,70.05c-1.97,14.8-14.8,26.64-29.6,26.64h-11.84c0,0,0,0-0.99,0l0,0l0,0
		c-0.99,0-0.99,0-0.99,0l0,0c-0.99,0-0.99,0-0.99,0h-0.99c-2.96-0.99-5.92-0.99-8.88-2.96h4.93c15.79,0,33.55-8.88,34.53-30.59
		l4.93-58.21c0,0,14.8-0.99,16.77-8.88C2130.11,1808.85,2131.09,1808.85,2131.09,1812.8L2131.09,1812.8z" clip-rule="evenodd" class="colorc1cde5 svgShape"></path></g><g fill="#000000" class="color000000 svgShape"><path fill="#c1d3e5" fill-rule="evenodd" d="M2128.13,1808.85c0,4.93-18.75,7.89-41.44,7.89c-22.69,0-40.45-2.96-40.45-7.89c0-4.93,17.76-8.88,40.45-8.88
		C2109.39,1799.97,2128.13,1803.92,2128.13,1808.85L2128.13,1808.85z" clip-rule="evenodd" class="colorc1cde5 svgShape"></path></g><g fill="#000000" class="color000000 svgShape"><path fill="#c1d3e5" fill-rule="evenodd" d="M2074.85,1617.44c-6.91,6.91-14.8-0.99-24.67-12.83h-0.99v-0.99c0,0,0,0-0.99,0c0-0.99,0-0.99-0.99-0.99
		c0-0.99,0-0.99-0.99-1.97c0,0-0.99,0-0.99-0.99s-0.99-0.99-1.97-1.97c0-0.99-0.99-0.99-1.97-1.97c0,0,0,0,0-0.99
		c-0.99-0.99-2.96-1.97-3.95-3.95c-17.76-16.77-29.6-33.54-25.65-36.51c0-0.99,0-0.99,0-0.99c0.99,0,1.97,0,1.97,0
		c6.91,0.99,20.72,11.84,35.52,26.64C2065.98,1596.72,2084.72,1607.57,2074.85,1617.44L2074.85,1617.44z" clip-rule="evenodd" class="colorc1cde5 svgShape"></path></g><g fill="#000000" class="color000000 svgShape"><path fill="#344482" fill-rule="evenodd" d="M2077.81,1612.51c0-5.92-6.91-12.83-16.77-21.71C2069.92,1599.68,2077.81,1606.59,2077.81,1612.51
		L2077.81,1612.51z" clip-rule="evenodd" class="color4a8234 svgShape"></path></g><g fill="#000000" class="color000000 svgShape"><path fill="#e5ecf4" fill-rule="evenodd" d="M2050.19,1604.62h-0.99v-0.99c0,0,0,0-0.99,0c0-0.99,0-0.99-0.99-0.99c0-0.99,0-0.99-0.99-1.97
		c0,0-0.99,0-0.99-0.99s-0.99-0.99-1.97-1.97c0-0.99-0.99-0.99-1.97-1.97c0,0,0,0,0-0.99c-0.99-0.99-2.96-1.97-3.95-3.95
		c-17.76-16.77-29.6-33.54-25.65-36.51c0-0.99,0-0.99,0-0.99c0.99,0,1.97,0,1.97,0c-0.99,4.93,8.88,20.72,24.67,37.49
		C2043.28,1595.74,2046.24,1600.67,2050.19,1604.62L2050.19,1604.62z" clip-rule="evenodd" class="colore5eaf4 svgShape"></path></g><g fill="#000000" class="color000000 svgShape"><path fill="#c1d3e5" fill-rule="evenodd" d="M2123.2,1605.6c-12.83,22.69-16.77,45.38-34.53,34.53c-17.76-9.87,0-24.67,12.83-47.36
		c13.81-22.69,27.63-39.47,35.52-35.52C2143.92,1561.2,2137.01,1581.92,2123.2,1605.6L2123.2,1605.6z" clip-rule="evenodd" class="colorc1cde5 svgShape"></path></g><g fill="#000000" class="color000000 svgShape"><path fill="#c1d3e5" fill-rule="evenodd" d="M2111.36,1658.88c0.99,0.99,0.99,2.96,0.99,4.93c0,0,0,0.99,0,1.97l-0.99,2.96v8.88l-0.99,9.87l-0.99,9.87
		c-0.99,12.83-2.96,25.65-4.93,38.48l-0.99,9.87l-0.99,8.88l-0.99,4.93l-0.99,4.94c0,2.96-0.99,6.91-0.99,9.87l-1.97,9.87
		c-0.99,2.96-0.99,5.92-1.97,8.88c0,2.96-0.99,6.91-1.97,9.87c0,2.96-0.99,5.92-0.99,9.87l-5.92-1.97c0.99-0.99,1.97-2.96,1.97-3.95
		c0.99-0.99,0.99-1.97,0.99-1.97c0-0.99,0.99-1.97,0.99-2.96c0-0.99,0.99-2.96,0.99-4.93c0-0.99,0.99-2.96,0.99-3.95
		c0.99-3.95,0.99-6.91,1.97-9.87c0-2.96,0.99-5.92,0.99-9.87c1.97-12.83,3.95-25.65,5.92-38.48l3.95-37.49
		c0.99-6.91,1.97-12.83,2.96-19.73l0.99-9.87v-1.97c0-0.99,0.99-1.97,0.99-2.96C2110.37,1661.84,2110.37,1659.87,2111.36,1658.88
		L2111.36,1658.88z" clip-rule="evenodd" class="colorc1cde5 svgShape"></path></g><g fill="#000000" class="color000000 svgShape"><path fill="#c1d3e5" fill-rule="evenodd" d="M2100.51,1646.05c0.99,1.97,0.99,3.95,0.99,5.92c0,0.99,0,2.96,0,4.93l-0.99,9.87v9.87v10.85
		c-0.99,12.83-1.97,26.64-2.96,40.45c0,6.91-0.99,13.81-0.99,19.73c-0.99,6.91-1.97,13.81-1.97,20.72
		c-0.99,6.91-1.97,13.81-2.96,20.72c0,0.99,0,2.96,0,4.93c-0.99,0.99-0.99,2.96-0.99,4.94c0,0.99,0,1.97-0.99,1.97
		c0,0.99,0,1.97,0,2.96c-0.99,1.97-0.99,2.96-1.97,4.93l0,0c0-1.97,0-3.95,0-4.93c0-0.99,0-1.97,0-2.96c0-0.99,0-1.97,0-2.96
		c0.99-2.96,0.99-5.92,1.97-9.87v-4.93c0-1.97,0-2.96,0.99-4.93l0.99-9.87c0-6.91,0.99-13.81,0.99-20.72
		c0.99-6.91,0.99-13.81,1.97-19.73c0.99-13.81,1.97-27.63,2.96-41.44c0-5.92,0.99-12.83,0.99-19.73l0.99-9.87
		C2099.52,1652.96,2099.52,1650,2100.51,1646.05L2100.51,1646.05z" clip-rule="evenodd" class="colorc1cde5 svgShape"></path></g><g fill="#000000" class="color000000 svgShape"><path fill="#c1d3e5" fill-rule="evenodd" d="M2064.99,1657.89c1.97,5.92,2.96,12.83,3.95,18.75l0.99,9.87l0.99,9.87l4.93,37.49
		c0.99,6.91,1.97,12.83,2.96,19.73c0.99,5.92,1.97,12.83,2.96,18.75c0.99,6.91,1.97,12.83,2.96,19.73c0,0.99,0,2.96,0.99,4.93
		c0,0.99,0,2.96,0,3.95c0.99,1.97,0.99,2.96,1.97,4.94c0,1.97,0.99,2.96,1.97,4.93l-5.92,0.99c0-6.91-0.99-12.83-1.97-19.73
		l-2.96-18.75c-0.99-6.91-1.97-12.83-2.96-19.73l-2.96-18.75c-1.97-12.83-2.96-25.65-4.93-38.48l-0.99-9.87l-0.99-9.87l-0.99-8.88
		c0-1.97,0-3.95,0-4.94C2064.99,1660.85,2064.99,1658.88,2064.99,1657.89L2064.99,1657.89z" clip-rule="evenodd" class="colorc1cde5 svgShape"></path></g><g fill="#000000" class="color000000 svgShape"><path fill="#dce6f0" fill-rule="evenodd" d="M2052.16,1724.98c11.84,14.8,18.75,29.6,25.65,21.71c6.91-7.89-5.92-16.77-17.76-31.57
		c-11.84-13.81-23.68-23.68-25.65-20.72C2031.44,1697.36,2039.34,1710.19,2052.16,1724.98L2052.16,1724.98z" clip-rule="evenodd" class="colordce2f0 svgShape"></path></g><g fill="#000000" class="color000000 svgShape"><path fill="#ccdae9" fill-rule="evenodd" d="M2117.28,1765.44c-9.87,11.84-15.79,23.68-20.72,17.76c-5.92-6.91,4.93-13.81,13.81-25.65
		c9.87-11.84,19.73-19.73,21.71-16.77C2134.05,1742.74,2127.15,1753.6,2117.28,1765.44L2117.28,1765.44z" clip-rule="evenodd" class="colorccd5e9 svgShape"></path></g><g fill="#000000" class="color000000 svgShape"><path fill="#c1d3e5" fill-rule="evenodd" d="M2104.45,1690.45c-6.91,24.67-5.92,46.37-22.69,40.45c-16.77-4.93-3.95-22.69,2.96-47.36
		c6.91-24.66,16.77-43.41,22.69-40.45C2114.32,1645.07,2112.35,1665.79,2104.45,1690.45L2104.45,1690.45z" clip-rule="evenodd" class="colorc1cde5 svgShape"></path></g><g fill="#000000" class="color000000 svgShape"><path fill="#dce6f0" fill-rule="evenodd" d="M2131.09,1667.76c-6.91,25.65-3.95,48.35-26.64,41.44c-21.71-7.89-6.91-24.67,0-50.32
		c7.89-24.67,17.76-43.41,26.64-40.45C2139.97,1621.39,2138.99,1643.09,2131.09,1667.76L2131.09,1667.76z" clip-rule="evenodd" class="colordce2f0 svgShape"></path></g><g fill="#000000" class="color000000 svgShape"><path fill="#ccdae9" fill-rule="evenodd" d="M2131.09,1618.43L2131.09,1618.43c-7.89,27.63-20.72,70.05-27.63,89.78c0.99,0,0.99,0.99,0.99,0.99
		c22.69,6.91,19.73-15.79,26.64-41.44C2138.99,1643.09,2139.97,1621.39,2131.09,1618.43L2131.09,1618.43z" clip-rule="evenodd" class="colorccd5e9 svgShape"></path></g><g fill="#000000" class="color000000 svgShape"><path fill="#c1d3e5" fill-rule="evenodd" d="M2081.76,1599.68c0,2.96,0,4.93,0,6.91c0,0.99,0,1.97,0,2.96v3.95l0.99,12.83v12.83v13.81l0.99,26.64v25.65
		c0.99,8.88,0.99,17.76,0.99,26.64c0,8.88,0.99,17.76,0.99,26.64c0.99,8.88,0.99,17.76,1.97,26.64c0,3.95,0.99,7.89,0.99,12.83
		c0,0.99,0.99,1.97,0.99,2.96c0,0.99,0,1.97,0,2.96c0.99,0.99,0.99,1.97,0.99,3.95c0.99,0.99,0.99,1.97,1.97,2.96l-5.92,0.99
		c0-0.99,0-1.97,0-3.95c0-0.99,0-1.97-0.99-2.96c0-0.99,0-0.99,0-1.97v-0.99c0-1.97,0-2.96,0-3.95c0-1.97,0-3.95-0.99-6.91v-5.92
		c0-4.94-0.99-8.88-0.99-13.81l-0.99-12.83c0-8.88,0-17.76-0.99-26.64c0-8.88,0-17.76-0.99-26.64c0-7.89,0-16.77,0-25.65
		c0-4.93,0-8.88-0.99-13.81v-12.83v-12.83v-13.81v-12.83c0-1.97,0.99-4.93,0.99-6.91c0-1.97,0-3.95,0-6.91H2081.76z" clip-rule="evenodd" class="colorc1cde5 svgShape"></path></g><g fill="#000000" class="color000000 svgShape"><path fill="#dce6f0" fill-rule="evenodd" d="M2042.3,1665.79c12.83,22.69,15.79,46.37,33.55,35.52c17.76-10.85,0-25.65-11.84-49.33
		c-12.83-22.69-26.64-39.47-33.55-35.52C2023.55,1621.39,2029.47,1642.11,2042.3,1665.79L2042.3,1665.79z" clip-rule="evenodd" class="colordce2f0 svgShape"></path></g><g fill="#000000" class="color000000 svgShape"><path fill="#ccdae9" fill-rule="evenodd" d="M2081.76,1741.76c7.89,15.79,9.87,30.59,19.73,23.68c9.87-6.91,0-16.77-7.89-32.56
		c-6.91-14.8-14.8-25.65-18.75-22.69C2070.91,1712.16,2073.87,1725.97,2081.76,1741.76L2081.76,1741.76z" clip-rule="evenodd" class="colorccd5e9 svgShape"></path></g><g fill="#000000" class="color000000 svgShape"><path fill="#dce6f0" fill-rule="evenodd" d="M2087.68,1585.87c6.91,28.61,22.69,50.32-4.93,56.24c-26.64,5.92-21.71-19.73-27.63-49.33
		c-6.91-28.61-6.91-54.27,3.95-56.24C2069.92,1533.58,2080.77,1556.27,2087.68,1585.87L2087.68,1585.87z" clip-rule="evenodd" class="colordce2f0 svgShape"></path></g><g fill="#000000" class="color000000 svgShape"><path fill="#ccdae9" fill-rule="evenodd" d="M2087.68,1585.87c-6.91-29.6-17.76-52.29-28.61-49.33h-0.99c11.84,44.4,20.72,81.89,23.68,105.57
		c0.99,0,0.99,0,0.99,0C2110.37,1636.19,2094.59,1614.48,2087.68,1585.87L2087.68,1585.87z" clip-rule="evenodd" class="colorccd5e9 svgShape"></path></g><g fill="#000000" class="color000000 svgShape"><path fill="#e5ecf4" fill-rule="evenodd" d="M2060.05,1594.75c-6.91-30.59-8.88-55.25,1.97-58.21c0,0,0.99,0,1.97,0c-1.97,0-2.96,0-4.93,0
		c-10.85,1.97-10.85,27.63-3.95,56.24c4.93,20.72,2.96,40.45,11.84,47.36C2064,1631.26,2064,1613.5,2060.05,1594.75L2060.05,1594.75
		z" clip-rule="evenodd" class="colore5eaf4 svgShape"></path></g><g fill="#000000" class="color000000 svgShape"><path fill="#ccdae9" fill-rule="evenodd" d="M2064,1651.97c-12.83-22.69-26.64-39.47-33.55-35.52c-0.99,0.99-0.99,0.99-1.97,1.97
		c20.72,31.57,36.51,60.18,47.36,82.88l0,0C2093.6,1690.45,2075.84,1675.65,2064,1651.97L2064,1651.97z" clip-rule="evenodd" class="colorccd5e9 svgShape"></path></g><g fill="#000000" class="color000000 svgShape"><path fill="#e5ecf4" fill-rule="evenodd" d="M2044.27,1664.8c-10.85-21.71-17.76-40.45-11.84-48.35c-0.99,0-1.97,0-1.97,0
		c-6.91,4.93-0.99,25.65,11.84,49.33c2.96,3.95,4.93,8.88,6.91,13.81C2049.2,1676.64,2046.24,1669.73,2044.27,1664.8L2044.27,1664.8
		z" clip-rule="evenodd" class="colore5eaf4 svgShape"></path></g><g fill="#000000" class="color000000 svgShape"><path fill="#ccdae9" fill-rule="evenodd" d="M2060.05,1715.12c-11.84-13.81-23.68-23.68-25.65-20.72c-0.99,0-0.99,0-0.99,0
		c13.81,13.81,36.51,40.45,44.4,52.29l0,0C2084.72,1738.8,2071.89,1729.92,2060.05,1715.12L2060.05,1715.12z" clip-rule="evenodd" class="colorccd5e9 svgShape"></path></g><g fill="#000000" class="color000000 svgShape"><path fill="#dce6f0" fill-rule="evenodd" d="M2072.88,1713.15c-0.99,4.93,2.96,16.77,8.88,28.61c6.91,14.8,9.87,30.59,19.73,23.68
		C2094.59,1747.68,2081.76,1724.98,2072.88,1713.15L2072.88,1713.15z" clip-rule="evenodd" class="colordce2f0 svgShape"></path></g><g fill="#000000" class="color000000 svgShape"><path fill="#dce6f0" fill-rule="evenodd" d="M2132.08,1740.77v-0.99c-10.85,11.84-23.68,26.64-36.51,41.44c0,0.99,0,0.99,0.99,1.97
		c4.93,5.92,10.85-5.92,20.72-17.76C2127.15,1753.6,2134.05,1742.74,2132.08,1740.77L2132.08,1740.77z" clip-rule="evenodd" class="colordce2f0 svgShape"></path></g><g fill="#000000" class="color000000 svgShape"><path fill="#ccdae9" fill-rule="evenodd" d="M2080.77,1810.82h2.96h3.95c0,0,4.93-0.99,5.92-0.99l5.92,1.97l-8.88,1.97L2080.77,1810.82z" clip-rule="evenodd" class="colorccd5e9 svgShape"></path></g><g fill="#000000" class="color000000 svgShape"><path fill="#7dbeff" fill-rule="evenodd" d="M1085.25,1310.6c1.97,0,8.88-1.97,15.79-3.95c7.89,2.96,17.76,1.97,30.59-2.96
		c4.93-7.89,4.93-15.78,0.99-23.68c-9.87,4.93-18.75,6.91-25.65,5.92c8.88-6.91,10.85-9.87,3.95-10.85c0,0.99-1.97,1.97-3.95,2.96
		c-5.92,0.99-10.85,5.92-13.81,13.81c-3.95,0.99-6.91,0.99-8.88,1.97C1086.24,1298.76,1086.24,1303.69,1085.25,1310.6
		L1085.25,1310.6z" clip-rule="evenodd" class="colorffb27d svgShape"></path></g><g fill="#000000" class="color000000 svgShape"><path fill="#22347a" fill-rule="evenodd" d="M907.66,1115.24c-23.68-2.96-42.43-0.99-49.33,9.87c0.99,7.89,2.96,16.77,5.92,27.63
		c-0.99,2.96-3.95,3.95-5.92,4.93c-3.95-6.91-6.91-10.85-8.88-12.83c-11.84,5.92-9.87,13.81,5.92,24.66
		c0.99,2.96,1.97,5.92,2.96,8.88c-13.81-2.96-25.65-15.79-27.63-21.71c-16.77-32.56,1.97-46.37,11.84-51.31
		c3.95-32.56,51.31-3.94,74.98-19.73C926.4,1099.46,915.55,1115.24,907.66,1115.24L907.66,1115.24z" clip-rule="evenodd" class="color22407a svgShape"></path></g><g fill="#000000" class="color000000 svgShape"><path fill="#0e257c" fill-rule="evenodd" d="M833.66,1262.25c14.8,17.76,27.63,31.57,38.48,39.47c-9.87-33.55-19.73-69.06-30.59-107.54
		c-3.95,2.96-6.91,5.92-8.88,8.88c-0.99,15.79-0.99,27.63-0.99,36.51c5.92,3.95,9.87,6.91,13.81,7.89
		C840.57,1252.38,836.62,1257.32,833.66,1262.25L833.66,1262.25z" clip-rule="evenodd" class="color0e397c svgShape"></path></g><g fill="#000000" class="color000000 svgShape"><path fill="#0e257c" fill-rule="evenodd" d="M928.38,1253.37c-6.91,15.79-15.79,30.59-24.67,44.4c2.96-40.45,3.95-74.99,3.95-102.61
		c3.95,1.97,6.91,3.95,9.87,6.91c0,0,0,0.99,0.99,0.99c3.95,15.79,6.91,27.63,7.89,36.51c-3.95,1.97-6.91,3.95-9.87,4.93
		C920.48,1247.45,924.43,1250.41,928.38,1253.37L928.38,1253.37z" clip-rule="evenodd" class="color0e397c svgShape"></path></g><g fill="#000000" class="color000000 svgShape"><path fill="#1332a8" fill-rule="evenodd" d="M832.67,1203.05c-23.68,13.81-42.43,25.65-57.23,36.51c-9.87,38.48-15.79,78.93-16.77,123.33
		c1.97,51.3,6.91,87.81,12.83,107.54c8.88,0.99,17.76,0,21.71-3.95c1.97-44.4,1.97-80.9,0.99-108.53
		c6.91-14.8,11.84-25.65,16.77-32.56c1.97,14.8,4.93,27.63,5.92,41.44c-1.97,27.63-3.95,61.17-10.85,99.65
		c8.88,8.88,29.6,13.81,61.17,15.79c5.92-73.01,6.91-133.2,4.93-180.55c-10.85-7.89-23.68-21.71-38.48-39.47
		c2.96-4.93,6.91-9.87,11.84-14.8c-3.95-0.99-7.89-3.95-13.81-7.89C831.69,1230.68,831.69,1218.84,832.67,1203.05L832.67,1203.05z" clip-rule="evenodd" class="color134da8 svgShape"></path></g><g fill="#000000" class="color000000 svgShape"><path fill="#1332a8" fill-rule="evenodd" d="M903.71,1297.77c8.88,96.69,12.83,159.83,17.76,181.54c15.79-1.97,26.64-8.88,34.53-15.79
		c-1.97-55.25-8.88-90.77-11.84-122.34c4.93-53.28,15.79-101.62,4.93-124.32c-11.84-7.89-21.71-11.84-30.59-13.81
		c3.95,15.79,6.91,27.63,7.89,36.51c-3.95,1.97-6.91,3.95-9.87,4.93c3.95,2.96,7.89,5.92,11.84,8.88
		C921.47,1269.16,912.59,1283.96,903.71,1297.77L903.71,1297.77z" clip-rule="evenodd" class="color134da8 svgShape"></path></g><g fill="#000000" class="color000000 svgShape"><path fill="#1332a8" fill-rule="evenodd" d="M961.92,1232.65c-3.95-4.93-8.88-10.85-12.83-15.79c6.91,15.79,4.93,43.41,0.99,76.96
		c6.91,9.87,23.68,26.64,37.49,36.51c28.61,1.97,59.2-4.93,106.56-18.75c1.97-4.93,0.99-12.83-0.99-19.73
		c-46.37,1.97-74,1.97-92.74,6.91C988.56,1269.16,973.76,1251.4,961.92,1232.65L961.92,1232.65z" clip-rule="evenodd" class="color134da8 svgShape"></path></g><g fill="#000000" class="color000000 svgShape"><path fill="#85bbf1" fill-rule="evenodd" d="M871.15,1218.84c-7.89-10.85-14.8-20.72-22.69-26.64c0.99-3.95,1.97-5.92,1.97-8.88
		c0.99-0.99,3.95-2.96,6.91-2.96c0,0-0.99,2.96,0,2.96l0,0c7.89,6.91,16.77,12.83,26.64,17.76
		C879.05,1207,876.09,1212.92,871.15,1218.84L871.15,1218.84z" clip-rule="evenodd" class="color85aff1 svgShape"></path></g><g fill="#000000" class="color000000 svgShape"><path fill="#85bbf1" fill-rule="evenodd" d="M903.71,1194.17c0.99,7.89,0,13.81,0,17.76c-1.97-4.94-4.93-8.88-9.87-12.83c0-5.92-0.99-11.84-0.99-16.77
		C897.79,1184.31,901.74,1188.25,903.71,1194.17L903.71,1194.17z" clip-rule="evenodd" class="color85aff1 svgShape"></path></g><g fill="#000000" class="color000000 svgShape"><path fill="#ffffff" fill-rule="evenodd" d="M913.58,1416.17c-1.97-30.59-5.92-70.05-9.87-118.4c2.96-40.45,3.95-74,3.95-101.62
		c-0.99,0-1.97-0.99-3.95-0.99c0.99,6.91,0,12.83,0,16.77c-1.97-4.94-4.93-8.88-9.87-12.83c-0.99,2.96-1.97,5.92-3.95,8.88
		c-1.97-1.97-4.93-4.93-5.92-6.91c-4.93,5.92-7.89,11.84-12.83,17.76c-7.89-10.85-14.8-20.72-22.69-26.64
		c-1.97,0.99-3.95,1.97-6.91,3.95c10.85,37.49,20.72,73.01,30.59,105.57c1.97,32.56,0.99,71.04-0.99,115.44
		c3.95,0.99,7.89,0.99,11.84,1.97v-0.99c0-0.99,0.99-0.99,0.99-1.97h16.77c0.99,0,0.99,0.99,0.99,1.97l0,0
		C905.68,1417.15,909.63,1417.15,913.58,1416.17L913.58,1416.17z" clip-rule="evenodd" class="colorffffff svgShape"></path></g><g fill="#000000" class="color000000 svgShape"><path fill="#67a9ec" fill-rule="evenodd" d="M899.77,1216.87c-2.96-4.93-5.92-7.89-9.87-8.88c-2.96,1.97-5.92,4.93-8.88,8.88
		c2.96,3.95,4.93,6.91,7.89,8.88c-4.93,33.54-7.89,78.93-6.91,138.13c3.95,7.89,7.89,14.8,10.85,18.75
		c4.93-6.91,7.89-13.81,8.88-20.72c-3.95-62.16-5.92-107.54-5.92-135.17C897.79,1222.78,899.77,1219.83,899.77,1216.87
		L899.77,1216.87z" clip-rule="evenodd" class="color679bec svgShape"></path></g><g fill="#000000" class="color000000 svgShape"><path fill="#0575e6" fill-rule="evenodd" d="M881.02,1205.03c-1.97,1.97-3.95,4.93-4.93,6.91c0.99,0.99,2.96,2.96,5.92,3.95
		c1.97-2.96,3.95-4.93,5.92-5.92C885.95,1207.99,882.99,1206.01,881.02,1205.03L881.02,1205.03z M895.82,1201.08
		c-0.99,2.96-1.97,5.92-2.96,7.89c1.97,0.99,3.95,2.96,5.92,5.92c0.99-1.97,0.99-4.93,1.97-8.88
		C899.77,1204.04,897.79,1202.07,895.82,1201.08L895.82,1201.08z" clip-rule="evenodd" class="color3b7fe7 svgShape"></path></g><g fill="#000000" class="color000000 svgShape"><path fill="#0e257c" fill-rule="evenodd" d="M951.07,1650c0-49.33-1.97-107.54-4.93-174.64c-6.91,3.95-15.79,6.91-26.64,8.88
		c-1.97-6.91-4.93-22.69-7.89-53.28c-2.96,0.99-6.91,1.97-9.87,1.97v1.97c0,0.99,0,1.97-0.99,1.97h-16.77l-0.99-0.99v-1.97
		c-2.96,0-5.92,0-8.88,0c-1.97,24.67-1.97,41.44-3.95,54.27c-25.65-2.96-41.44-5.92-54.27-11.84
		c-6.91,50.32-9.87,103.6-10.85,161.81c-10.85,22.69-13.81,78.93-8.88,168.72c8.88,1.97,19.73,1.97,31.57,0
		c8.88-40.45,16.77-93.73,23.68-158.85c8.88-31.57,18.75-75.97,29.6-133.2c1.97,39.47,6.91,82.88,15.79,131.22
		c-2.96,36.51,2.96,88.8,15.79,158.85c7.89,0.99,18.75,0,34.53-2.96C945.15,1744.72,946.14,1694.4,951.07,1650L951.07,1650z" clip-rule="evenodd" class="color0e397c svgShape"></path></g><g fill="#000000" class="color000000 svgShape"><path fill="#0e257c" fill-rule="evenodd" d="M870.17,1488.19c1.97-12.83,1.97-29.6,3.95-54.27c-0.99-0.99-1.97-0.99-3.95-0.99
		c0,15.78-1.97,31.57-2.96,49.33c-22.69-1.97-39.47-4.93-51.31-9.87c0,1.97,0,2.96,0,3.95
		C828.73,1482.27,844.51,1485.23,870.17,1488.19L870.17,1488.19z M919.5,1484.25c10.85-1.97,19.73-4.93,26.64-8.88
		c0-1.97,0-2.96,0-4.93c-6.91,3.95-14.8,7.89-24.67,8.88c-1.97-9.87-3.95-25.65-5.92-49.33c-1.97,0.99-2.96,0.99-3.95,0.99
		C914.57,1461.55,917.52,1477.34,919.5,1484.25L919.5,1484.25z" clip-rule="evenodd" class="color0e397c svgShape"></path></g><g fill="#000000" class="color000000 svgShape"><path fill="#162660" fill-rule="evenodd" d="M795.18,1821.68c1.97,0.99,1.97,0.99,2.96,0c1.97-8.88,18.75-9.87,23.68-0.99c0.99,0,1.97-0.99,2.96-1.97
		c2.96,5.92,9.87,11.84,7.89,21.71c-4.93,6.9-28.61,10.85-40.45-2.96C789.26,1831.54,793.21,1825.62,795.18,1821.68L795.18,1821.68z
		 M915.55,1811.81c-2.96,7.89-3.95,13.81,0,16.77c8.88,1.97,26.64,0.99,54.27,4.93c19.73-0.99,27.63-6.9,22.69-12.83
		c-16.77,0.99-31.57-3.95-45.39-13.81C944.16,1817.73,933.31,1818.72,915.55,1811.81L915.55,1811.81z" clip-rule="evenodd" class="color163560 svgShape"></path></g><g fill="#000000" class="color000000 svgShape"><path fill="#7dbeff" fill-rule="evenodd" d="M797.15,1806.88c-0.99,4.93-0.99,10.85-1.97,14.8c1.97,0.99,1.97,0.99,2.96,0
		c1.97-8.88,18.75-9.87,23.68-0.99l0,0l0,0l0,0l0,0l0,0l0,0l0,0l0,0l0,0l0,0l0,0l0,0l0,0l0,0l0,0l0,0l0,0l0,0l0,0l0,0l0,0l0,0l0,0
		l0,0l0,0l0,0l0,0l0,0l0,0l0,0l0,0l0,0l0,0l0,0l0,0h0.99l0,0l0,0l0,0l0,0l0,0l0,0l0,0l0,0l0,0l0,0l0,0l0,0l0,0l0,0l0,0l0,0l0,0l0,0
		l0,0l0,0l0,0l0,0l0,0l0,0l0,0l0,0l0,0l0,0l0,0l0,0l0,0l0,0l0,0l0,0l0,0l0,0l0,0l0,0l0,0l0,0v-0.99l0,0l0,0l0,0l0,0l0,0l0,0l0,0l0,0
		l0,0l0,0l0,0l0,0l0,0c0-2.96-0.99-7.89-1.97-11.84C811.95,1808.85,804.06,1807.86,797.15,1806.88L797.15,1806.88z M943.18,1801.94
		c0.99,2.96,1.97,4.93,2.96,6.91c0,0,0,0,0,0.99c-0.99,0.99-0.99,1.97-1.97,2.96l0,0c0,0-0.99,0-0.99,0.99l0,0l0,0l0,0
		c-0.99,0.99-1.97,0.99-3.95,1.97l0,0l0,0l0,0c0,0,0,0-0.99,0l0,0l0,0l0,0l0,0l0,0h-0.99l0,0c-0.99,0-2.96,0-3.95,0l0,0h-0.99l0,0
		l0,0h-0.99l0,0l0,0h-0.99l0,0l0,0l0,0c-1.97,0-2.96,0-3.95-0.99h-0.99l0,0l0,0h-0.99l0,0h-0.99l0,0v-0.99l0,0h-0.99l0,0h-0.99l0,0
		l0,0h-0.99v-0.99l0,0h-0.99h-0.99c0,0-0.99,0-0.99-0.99l0,0h-0.99c0-1.97,0-4.93,0-6.91
		C922.46,1804.9,932.32,1803.92,943.18,1801.94L943.18,1801.94z" clip-rule="evenodd" class="colorffb27d svgShape"></path></g><g fill="#000000" class="color000000 svgShape"><path fill="#0e257c" fill-rule="evenodd" d="M953.04,1240.54c0.99,14.8-0.99,33.55-2.96,53.28c6.91,9.87,23.68,26.64,37.49,36.51
		c28.61,1.97,59.2-4.93,106.56-18.75c-34.53,7.89-70.05,11.84-105.57,13.81c-6.91-5.92-18.75-16.77-33.55-33.55
		C956,1279.02,955.02,1262.25,953.04,1240.54L953.04,1240.54z" clip-rule="evenodd" class="color0e397c svgShape"></path></g><g fill="#000000" class="color000000 svgShape"><path fill="#0e257c" fill-rule="evenodd" d="M820.83,1365.85c-1.97-20.72-2.96-38.48-4.93-53.28c-0.99,3.95-2.96,7.89-4.93,12.83
		c1.97,14.8,4.93,27.63,5.92,41.44c-1.97,27.63-3.95,61.17-10.85,99.65c0.99,0,1.97,0.99,2.96,1.97
		C814.91,1444.78,818.86,1410.25,820.83,1365.85L820.83,1365.85z" clip-rule="evenodd" class="color0e397c svgShape"></path></g><g fill="#000000" class="color000000 svgShape"><path fill="#8eafd0" fill-rule="evenodd" d="M870.17,1432.94c16.77,2.96,31.57,1.97,45.39-2.96c-0.99-3.95-0.99-8.88-1.97-13.81
		c-14.8,2.96-28.61,2.96-42.43,0.99C871.15,1423.07,871.15,1428.01,870.17,1432.94L870.17,1432.94z" clip-rule="evenodd" class="color8ea4d0 svgShape"></path></g><g fill="#000000" class="color000000 svgShape"><path fill="#ffffff" fill-rule="evenodd" d="M883.98,1416.17h16.77c0.99,0,0.99,0.99,0.99,1.97v16.77c0,0.99,0,1.97-0.99,1.97h-16.77l-0.99-0.99v-17.76
		C882.99,1417.15,883.98,1417.15,883.98,1416.17L883.98,1416.17z" clip-rule="evenodd" class="colorffffff svgShape"></path></g><g fill="#000000" class="color000000 svgShape"><polygon fill="#b6cadf" fill-rule="evenodd" points="885.95 1420.11 885.95 1433.93 898.78 1433.93 898.78 1419.13" clip-rule="evenodd" class="colorb6c4df svgShape"></polygon></g><g fill="#000000" class="color000000 svgShape"><path fill="#7dbeff" fill-rule="evenodd" d="M838.59,1195.16c0,0,0.99,0,1.97,0l-0.99,0.99L838.59,1195.16z M841.55,1195.16c0.99,0,0.99,0,0.99,0
		s0,0-0.99,0.99V1195.16z M856.35,1183.32c0.99-1.97,1.97-3.95,1.97-4.93c-0.99-2.96-1.97-5.92-2.96-8.88
		c-15.79-10.85-17.76-18.75-5.92-24.66c1.97,1.97,4.93,5.92,8.88,12.83c1.97-0.99,4.93-1.97,5.92-4.93
		c-2.96-10.85-4.93-19.73-5.92-27.63c6.91-10.85,25.65-12.83,49.33-9.87c0.99,6.91,1.97,13.81,2.96,20.72
		c3.95,3.95,3.95,18.75,0,35.52c1.97,7.89-2.96,12.83-11.84,14.8l0,0c-1.97,0-2.96,0-3.95,0c0,0-0.99,0-1.97,0
		c0,1.97,0.99,7.89,0.99,8.88c0,1.97,0,2.96,0,3.95c-0.99,2.96-0.99,4.93-2.96,7.89c-0.99,0-0.99,0-1.97,0
		c-1.97-1.97-3.95-3.95-4.93-5.92l0,0c0-0.99-0.99-0.99-1.97-0.99C872.14,1195.16,864.25,1189.24,856.35,1183.32L856.35,1183.32z" clip-rule="evenodd" class="colorffb27d svgShape"></path></g><g fill="#000000" class="color000000 svgShape"><path fill="#617ff0" fill-rule="evenodd" d="M892.86,1186.28c-3.95,0.99-8.88,0.99-14.8,0c4.93,2.96,10.85,5.92,15.79,6.9c0-0.99-0.99-1.97-0.99-2.96
		C892.86,1189.24,892.86,1187.27,892.86,1186.28L892.86,1186.28z" clip-rule="evenodd" class="colorf08261 svgShape"></path></g><g fill="#000000" class="color000000 svgShape"><path fill="#7dbeff" fill-rule="evenodd" d="M799.13,1490.16c0,3.95,1.97,8.88-0.99,11.84c-5.92,6.91-20.72,6.91-26.64,2.96
		c-2.96-1.97-3.95-7.89-3.95-11.84c3.95-8.88,4.93-16.77,5.92-23.68c5.92-3.94,15.79-4.93,19.73-2.96L799.13,1490.16z" clip-rule="evenodd" class="colorffb27d svgShape"></path></g><g fill="#000000" class="color000000 svgShape"><path fill="#617ff0" d="M886.94,1167.53c7.89,0,11.84-0.99,19.73-2.96c2.96-0.99-3.95,21.71-19.73,3.95
		C886.94,1167.53,886.94,1167.53,886.94,1167.53L886.94,1167.53z" class="colorf08261 svgShape"></path></g><g fill="#000000" class="color000000 svgShape"><path fill="#22347a" d="M880.03,1126.09c3.95,0.99,3.95,3.95,0.99,3.95C852.41,1136.95,871.15,1126.09,880.03,1126.09L880.03,1126.09
		z" class="color22407a svgShape"></path></g><g fill="#000000" class="color000000 svgShape"><path fill="#22347a" d="M897.79,1124.12c-3.95,0.99-2.96,3.95,0,3.95C927.39,1127.08,905.68,1121.16,897.79,1124.12L897.79,1124.12z" class="color22407a svgShape"></path></g><g fill="#000000" class="color000000 svgShape"><path fill="#617ff0" d="M894.83,1155.69L894.83,1155.69c2.96,0,4.93-0.99,5.92-1.97c0-0.99,0-1.97-0.99-4.93
		c-0.99-1.97-2.96-5.92-4.93-11.84c0-0.99,0-0.99-0.99-0.99v0.99c0.99,6.91,2.96,9.87,3.95,12.83c0.99,1.97,0.99,2.96,0.99,2.96
		c0,0.99-1.97,0.99-3.95,1.97c-0.99,0-0.99,0-0.99,0.99H894.83L894.83,1155.69z" class="colorf08261 svgShape"></path></g><g fill="#000000" class="color000000 svgShape"><path fill="#22347a" d="M906.67,1141.88c1.97,0,2.96-7.89-1.97-7.89C901.74,1134.97,903.71,1142.87,906.67,1141.88L906.67,1141.88z" class="color22407a svgShape"></path></g><g fill="#000000" class="color000000 svgShape"><path fill="#22347a" d="M879.05,1144.84c1.97,0,2.96-7.89-1.97-7.89C874.11,1137.94,876.09,1145.83,879.05,1144.84L879.05,1144.84z" class="color22407a svgShape"></path></g><g fill="#000000" class="color000000 svgShape"><path fill="#ffffff" d="M887.93,1167.53c-2.96,2.96,14.8,2.96,17.76,0l0.99-1.97c-0.99-0.99-2.96,0-2.96,0
		C898.78,1167.53,893.85,1167.53,887.93,1167.53L887.93,1167.53z" class="colorffffff svgShape"></path></g><g fill="#000000" class="color000000 svgShape"><path fill="#0575e6" fill-rule="evenodd" d="M899.77,1329.34l-16.77-30.59c-0.99,19.73-1.97,41.44-0.99,65.12c3.95,7.89,7.89,14.8,10.85,18.75
		c4.93-6.91,7.89-13.81,8.88-20.72C900.75,1350.06,900.75,1339.21,899.77,1329.34L899.77,1329.34z" clip-rule="evenodd" class="color3b7fe7 svgShape"></path></g><g fill="#000000" class="color000000 svgShape"><path fill="#c1d3e5" fill-rule="evenodd" d="M703.42,1844.37h170.69h181.54l11.84,37.49c-64.13,0-129.25,0-193.38,0h-64.13
		C772.49,1871.01,737.96,1858.18,703.42,1844.37L703.42,1844.37z" clip-rule="evenodd" class="colorc1cde5 svgShape"></path></g><g fill="#000000" class="color000000 svgShape"><path fill="#ccdae9" fill-rule="evenodd" d="M809.98,1881.86h257.51v19.73H882.01C857.34,1895.68,832.67,1888.77,809.98,1881.86L809.98,1881.86z" clip-rule="evenodd" class="colorccd5e9 svgShape"></path></g><g fill="#000000" class="color000000 svgShape"><path fill="#dce6f0" fill-rule="evenodd" d="M707.37,1460.57h334.47v410.44H773.48c-22.69-7.89-45.39-15.79-66.11-24.67V1460.57z" clip-rule="evenodd" class="colordce2f0 svgShape"></path></g><g fill="#000000" class="color000000 svgShape"><path fill="#e5ecf4" fill-rule="evenodd" d="M707.37,1709.2c22.69-41.44,58.21-84.85,104.58-123.33c78.93-66.11,166.74-100.64,229.89-95.71v-6.91H707.37
		V1709.2z" clip-rule="evenodd" class="colore5eaf4 svgShape"></path></g><g fill="#000000" class="color000000 svgShape"><polygon fill="#dce6f0" fill-rule="evenodd" points="707.37 1460.57 1041.84 1460.57 1041.84 1472.41 874.11 1472.41 707.37 1472.41" clip-rule="evenodd" class="colordce2f0 svgShape"></polygon></g><g fill="#000000" class="color000000 svgShape"><rect width="334.47" height="21.71" x="707.37" y="1472.41" fill="#dce6f0" fill-rule="evenodd" clip-rule="evenodd" class="colordce2f0 svgShape"></rect></g><g fill="#000000" class="color000000 svgShape"><path fill="#ccdae9" fill-rule="evenodd" d="M985.6,1494.11c20.72-3.95,39.47-4.93,56.24-3.95v-6.91H707.37v10.85H985.6z" clip-rule="evenodd" class="colorccd5e9 svgShape"></path></g><g fill="#000000" class="color000000 svgShape"><path fill="#ccdae9" fill-rule="evenodd" d="M989.55,1797.01c-21.71,18.75-44.4,34.53-67.09,47.36c-16.77,10.85-34.53,18.75-51.31,26.64h170.69v-26.64
		v-97.68C1026.06,1764.45,1008.3,1781.22,989.55,1797.01L989.55,1797.01z" clip-rule="evenodd" class="colorccd5e9 svgShape"></path></g><g fill="#000000" class="color000000 svgShape"><path fill="#dce6f0" fill-rule="evenodd" d="M700.46,1434.91c58.21,0,116.42,0,173.65,0c58.21,0,115.44,0,173.65,0c2.96,4.93,5.92,8.88,8.88,13.81
		c3.95,3.95,6.91,7.89,9.87,12.83c-64.13,0-128.26,0-192.39,0c-64.13,0-128.26,0-192.4,0c2.96-4.93,6.91-8.88,9.87-12.83
		C694.54,1443.79,697.5,1439.85,700.46,1434.91L700.46,1434.91z" clip-rule="evenodd" class="colordce2f0 svgShape"></path></g><g fill="#000000" class="color000000 svgShape"><rect width="383.8" height="21.71" x="681.72" y="1461.55" fill="#c1d3e5" fill-rule="evenodd" clip-rule="evenodd" class="colorc1cde5 svgShape"></rect></g><g fill="#000000" class="color000000 svgShape"><path fill="#ffffff" fill-rule="evenodd" d="M941.2,1616.45l6.91,0.99c2.96,0,4.93,2.96,4.93,4.93l-0.99,4.93c2.96,1.97,5.92,3.95,7.89,5.92l4.93-1.97
		c1.97-0.99,4.93,0,5.92,2.96l2.96,5.92c0.99,2.96,0,5.92-1.97,6.91l-4.93,1.97c0.99,1.97,0.99,2.96,0,4.94c0,1.97,0,2.96-0.99,4.93
		l3.95,2.96c2.96,0.99,2.96,3.95,0.99,6.91l-3.95,5.92c-1.97,1.97-4.93,1.97-6.91,0.99l-3.95-2.96c-1.97,1.97-5.92,2.96-8.88,3.95
		v4.94c-0.99,2.96-2.96,4.93-5.92,3.94l-6.91-0.99c-2.96,0-4.93-1.97-4.93-4.93l0.99-4.93c-2.96-0.99-5.92-2.96-7.89-5.92
		l-4.93,1.97c-1.97,1.97-4.93,0-5.92-1.97l-2.96-6.91c-0.99-1.97,0-4.93,1.97-5.92l4.93-1.97c-0.99-1.97-0.99-3.95,0-4.94
		c0-1.97,0-3.95,0.99-4.93l-3.95-2.96c-2.96-1.97-2.96-4.93-0.99-6.91l3.95-5.92c1.97-1.97,4.93-2.96,6.91-0.99l3.95,1.97
		c1.97-0.99,5.92-2.96,8.88-3.95v-3.95C936.27,1618.43,938.24,1616.45,941.2,1616.45L941.2,1616.45z M923.44,1620.4l-18.75-0.99
		l-18.75-1.97l4.93-8.88c-1.97-0.99-2.96-1.97-4.93-1.97c-9.87-4.93-21.71-6.91-34.53-6.91c-11.84,0-23.68,1.97-33.55,6.91
		c-10.85,3.95-20.72,10.85-29.6,18.75c-7.89,8.88-14.8,18.75-19.73,29.6c-3.95,10.85-5.92,21.71-5.92,34.53
		c0,11.84,1.97,23.68,5.92,33.55c4.93,11.84,11.84,21.71,19.73,29.6c0.99,0.99,0.99,0.99,1.97,1.97l-7.89,5.92l-0.99-0.99
		c-8.88-8.88-16.77-19.73-21.71-32.56c-4.93-11.84-6.91-24.66-6.91-37.49c0-13.81,1.97-26.64,6.91-38.48
		c4.93-11.84,12.83-22.69,21.71-32.56c8.88-8.88,19.73-15.79,32.56-21.71c11.84-3.95,24.67-6.91,37.49-6.91
		c13.81,0,26.64,2.96,38.48,6.91c1.97,0.99,3.95,1.97,4.93,2.96l4.93-8.88l11.84,14.8L923.44,1620.4z M792.22,1763.46l18.75,0.99
		l18.75,0.99l-3.95,9.87c7.89,1.97,16.77,3.95,25.65,3.95c12.83,0,23.68-2.96,34.53-6.91c9.87-3.95,18.75-9.87,26.64-17.76
		l5.92,7.89c-7.89,7.89-17.76,13.81-28.61,18.75c-11.84,4.93-24.67,7.89-38.48,7.89c-10.85,0-20.72-1.97-30.59-4.93l-4.93,7.89
		l-11.84-14.8L792.22,1763.46z M873.13,1668.75c-5.92-5.92-12.83-8.88-21.71-8.88c-7.89,0-14.8,2.96-20.72,8.88
		c-4.93,4.93-8.88,11.84-8.88,20.72c0,7.89,3.95,14.8,8.88,20.72c5.92,4.93,12.83,8.88,20.72,8.88c8.88,0,15.79-3.95,21.71-8.88
		c4.93-5.92,7.89-12.83,7.89-20.72C881.02,1680.59,878.06,1673.68,873.13,1668.75L873.13,1668.75z M821.82,1642.11
		c4.93-3.95,11.84-6.91,17.76-7.89v-8.88c0-1.97,2.96-4.93,4.93-4.93h3.95h6.91h3.95c1.97,0,4.93,2.96,4.93,4.93v8.88
		c5.92,0.99,11.84,3.95,17.76,7.89l5.92-5.92c1.97-1.97,4.93-1.97,6.91,0l2.96,1.97l4.93,4.93l2.96,2.96c0.99,1.97,0.99,4.93,0,6.91
		l-6.91,5.92c3.95,5.92,6.91,11.84,7.89,18.75h8.88c2.96,0,4.93,1.97,4.93,4.93v2.96v6.91v3.95c0,2.96-1.97,4.93-4.93,4.93h-8.88
		c-0.99,5.92-3.95,12.83-7.89,18.75l6.91,5.92c0.99,1.97,0.99,4.93,0,6.91l-2.96,1.97l-4.93,4.93l-2.96,2.96
		c-1.97,1.97-4.93,1.97-6.91,0l-5.92-5.92c-5.92,2.96-11.84,5.92-17.76,6.91v8.88c0,2.96-2.96,4.94-4.93,4.94h-3.95h-6.91h-3.95
		c-1.97,0-4.93-1.97-4.93-4.94v-8.88c-5.92-0.99-12.83-3.95-17.76-6.91l-6.91,5.92c-0.99,1.97-4.93,1.97-6.91,0l-1.97-2.96
		l-4.93-4.93l-2.96-1.97c-1.97-1.97-1.97-4.93,0-6.91l5.92-5.92c-2.96-5.92-5.92-12.83-6.91-18.75h-8.88
		c-2.96,0-4.93-1.97-4.93-4.93v-3.95v-6.91v-2.96c0-2.96,1.97-4.93,4.93-4.93h8.88c0.99-6.91,3.95-12.83,6.91-18.75l-5.92-5.92
		c-1.97-1.97-1.97-4.93,0-6.91l2.96-2.96l4.93-4.93l1.97-1.97c1.97-1.97,5.92-1.97,6.91,0L821.82,1642.11z M851.42,1648.03
		c11.84,0,21.71,4.93,29.6,12.83c6.91,6.91,11.84,16.77,11.84,28.61c0,10.85-4.93,20.72-11.84,28.61
		c-7.89,6.91-17.76,11.84-29.6,11.84c-10.85,0-20.72-4.93-28.61-11.84c-6.91-7.89-11.84-17.76-11.84-28.61
		c0-11.84,4.93-21.71,11.84-28.61C830.7,1652.96,840.57,1648.03,851.42,1648.03L851.42,1648.03z M946.14,1688.48l8.88-1.97
		c3.95,0,6.91,1.97,6.91,5.92l0.99,4.93c3.95,0.99,7.89,2.96,10.85,4.94l3.95-3.95c2.96-1.97,6.91-0.99,8.88,0.99l4.93,7.89
		c1.97,1.97,1.97,5.92-0.99,7.89l-3.95,3.95c0,0.99,0.99,2.96,0.99,4.93c0,1.97,0,3.95,0,5.92l5.92,2.96
		c2.96,0.99,3.95,3.95,2.96,6.91l-3.95,8.88c-0.99,2.96-3.95,3.94-6.91,2.96l-5.92-1.97c-1.97,2.96-5.92,4.93-8.88,6.91l0.99,5.92
		c0,2.96-1.97,5.92-5.92,6.91l-8.88,0.99c-2.96,0-5.92-1.97-5.92-4.93l-0.99-5.92c-3.95-0.99-7.89-1.97-10.85-4.93l-4.93,3.95
		c-1.97,1.97-5.92,0.99-7.89-0.99l-5.92-6.91c-1.97-2.96-0.99-6.91,0.99-8.88l4.93-2.96c-0.99-1.97-0.99-3.94-0.99-5.92
		c-0.99-1.97-0.99-3.95-0.99-5.92l-4.93-1.97c-2.96-1.97-3.95-4.93-2.96-7.89l2.96-7.89c1.97-3.95,4.93-4.93,7.89-3.95l4.93,1.97
		c2.96-2.96,5.92-4.93,9.87-6.91l-0.99-5.92C941.2,1691.44,943.18,1688.48,946.14,1688.48L946.14,1688.48z M956,1714.13
		c7.89,0,14.8,6.91,14.8,14.8c0,7.89-6.91,13.81-14.8,13.81c-7.89,0-13.81-5.92-13.81-13.81
		C942.19,1721.04,948.11,1714.13,956,1714.13L956,1714.13z M941.2,1639.15c6.91,0,11.84,5.92,11.84,11.84
		c0,6.91-4.93,11.84-11.84,11.84s-11.84-4.93-11.84-11.84C929.36,1645.07,934.3,1639.15,941.2,1639.15L941.2,1639.15z" clip-rule="evenodd" class="colorffffff svgShape"></path></g><g fill="#000000" class="color000000 svgShape"><path fill="#dce6f0" fill-rule="evenodd" d="M625.48,828.13h135.17c67.09,0,121.36,52.29,121.36,119.38v8.88c0,67.09-54.27,119.38-121.36,119.38h-43.41
		l26.64,72.02l-103.6-72.02h-14.8c-67.09,0-120.37-52.29-120.37-119.38v-8.88C505.11,880.42,558.39,828.13,625.48,828.13
		L625.48,828.13z" clip-rule="evenodd" class="colordce2f0 svgShape"></path></g><g fill="#000000" class="color000000 svgShape"><path fill="#ccdae9" fill-rule="evenodd" d="M760.65,1075.78h-43.41l26.64,72.02l-103.6-72.02h-14.8c-66.11,0-119.38-49.33-120.37-115.44h376.9
		C881.02,1026.44,826.75,1075.78,760.65,1075.78L760.65,1075.78z" clip-rule="evenodd" class="colorccd5e9 svgShape"></path></g><g fill="#000000" class="color000000 svgShape"><path fill="#ffffff" fill-rule="evenodd" d="M725.13,985c-0.99,11.84,3.95,20.72,11.84,20.72c7.89,0,11.84-7.89,11.84-20.72
		c0-12.83-2.96-21.71-11.84-21.71C728.09,963.3,725.13,973.17,725.13,985L725.13,985z M769.53,983.03
		c0,25.65-15.79,38.48-33.55,38.48s-32.56-13.81-32.56-36.51c0-20.72,13.81-37.49,33.55-37.49
		C757.69,947.51,769.53,963.3,769.53,983.03L769.53,983.03z M652.12,1021.51l68.08-123.33H735l-68.08,123.33H652.12z M638.31,934.69
		c0,12.83,3.95,21.71,12.83,21.71c7.89,0,11.84-7.89,11.84-21.71c0-11.84-3.95-20.72-12.83-20.72
		C642.25,913.97,638.31,922.85,638.31,934.69L638.31,934.69z M683.69,933.7c0,24.67-15.79,38.48-33.55,38.48
		c-17.76,0-32.56-13.81-32.56-36.51c0-20.72,12.83-37.49,33.55-37.49S683.69,912.98,683.69,933.7L683.69,933.7z" clip-rule="evenodd" class="colorffffff svgShape"></path></g><g fill="#000000" class="color000000 svgShape"><path fill="#c3d7eb" d="M1813.39,1767.41c0,22.69,6.91,40.45,14.8,40.45c7.89,0,13.81-17.76,13.81-40.45
		c0-21.71-5.92-39.47-13.81-39.47C1820.3,1727.95,1813.39,1745.7,1813.39,1767.41L1813.39,1767.41z" class="colorc3d1eb svgShape"></path></g><g fill="#000000" class="color000000 svgShape"><path fill="#7dbeff" fill-rule="evenodd" d="M1915.02,1545.42c-1.97-3.95-1.97-6.91-2.96-9.87c-33.55-1.97-30.59-9.87-29.6-13.81
		c4.93-17.76,7.89-29.6,2.96-33.54c-2.96,0.99-7.89,3.95-8.88,11.84c-1.97-0.99-4.93-1.97-5.92-4.93
		c-0.99-6.91-1.97-20.72-9.87-21.71c-0.99,6.91-1.97,13.81-2.96,20.72c-3.95,3.95-2.96,18.75,0.99,35.52
		c-0.99,9.87,4.93,14.8,18.75,15.78v2.96C1889.37,1545.42,1904.17,1544.43,1915.02,1545.42L1915.02,1545.42z" clip-rule="evenodd" class="colorffb27d svgShape"></path></g><g fill="#000000" class="color000000 svgShape"><path fill="#22347a" fill-rule="evenodd" d="M1879.5,1517.79c-0.99,2.96-5.92,17.76,32.56,17.76c1.97,0.99,10.85-7.89,17.76-15.79
		c14.8-15.79,18.75-33.54,7.89-40.45c2.96,0,6.91-0.99,11.84-0.99c-5.92-2.96-7.89-1.97-13.81-1.97c3.95-7.89,3.95-16.77,0.99-25.65
		c-0.99,5.92-1.97,10.85-3.95,14.8c-0.99-5.92-3.95-9.87-7.89-12.83c-33.55-48.35-116.42,19.73-64.13,20.72
		c7.89,0.99,8.88,14.8,9.87,21.71c0.99,2.96,3.95,3.95,5.92,4.93c0.99-7.89,5.92-10.85,8.88-11.84c3.95,3.95,0,9.87-3.95,23.68
		C1880.49,1513.85,1880.49,1515.82,1879.5,1517.79L1879.5,1517.79z" clip-rule="evenodd" class="color22407a svgShape"></path></g><g fill="#000000" class="color000000 svgShape"><path fill="#67a9ec" fill-rule="evenodd" d="M1849.9,1565.15c32.56-5.92,59.2-7.89,80.9-2.96c15.79,0.99,24.67,9.87,26.64,24.66
		c10.85,62.16,5.92,126.29-16.77,200.29c-1.97,5.92-20.72,10.85-48.35,6.91c-51.31-3.95-67.09-7.89-82.88-26.64
		c-28.61-35.52,74.98-51.3,34.53-136.16C1860.75,1617.44,1875.55,1576,1849.9,1565.15L1849.9,1565.15z" clip-rule="evenodd" class="color679bec svgShape"></path></g><g fill="#000000" class="color000000 svgShape"><path fill="#0575e6" fill-rule="evenodd" d="M1930.81,1562.19c-18.75-3.95-41.44-2.96-68.08,0.99c2.96-4.93,5.92-8.88,7.89-13.81
		c21.71-5.92,55.25-4.93,59.2,0.99C1930.81,1555.28,1930.81,1559.23,1930.81,1562.19L1930.81,1562.19z" clip-rule="evenodd" class="color3b7fe7 svgShape"></path></g><g fill="#000000" class="color000000 svgShape"><path fill="#0e257c" fill-rule="evenodd" d="M1699.93,1757.55c26.64-4.94,60.18-11.84,104.58-2.96c1.97,2.96,2.96,9.87,4.93,12.83
		c15.79,18.75,31.57,22.69,82.88,26.64h0.99l0,0h0.99v0.99h0.99l0,0h0.99l0,0h0.99l0,0h0.99l0,0h0.99h0.99l0,0l0,0h0.99l0,0l0,0
		h0.99l0,0h0.99l0,0l0,0h0.99h0.99l0,0l0,0h0.99l0,0l0,0h0.99l0,0h0.99v0.99l0,0h0.99l0,0l0,0h0.99l0,0l0,0h0.99l0,0h0.99l0,0l0,0
		h0.99l0,0l0,0h0.99v-0.99l0,0h0.99l0,0l0,0h0.99l0,0l0,0h0.99l0,0l0,0h0.99l0,0l0,0h0.99l0,0l0,0h0.99l0,0l0,0h0.99l0,0l0,0h0.99
		l0,0h0.99l0,0l0,0h0.99l0,0h0.99l0,0l0,0l0,0l0,0h0.99v-0.99l0,0l0,0h0.99l0,0l0,0h0.99c-19.73,36.51-73.01,44.4-185.49,20.72
		c-8.88,33.55-15.79,30.59-40.45,119.38c-10.85,8.88-46.37,7.89-39.47-11.84c11.84-39.47,5.92-76.96,14.8-118.4
		C1681.18,1785.17,1685.13,1760.51,1699.93,1757.55L1699.93,1757.55z" clip-rule="evenodd" class="color0e397c svgShape"></path></g><g fill="#000000" class="color000000 svgShape"><path fill="#021b79" fill-rule="evenodd" d="M1828.19,1826.61c1.97,35.52-6.91,49.33-7.89,108.53c-8.88,4.93-21.71,7.89-34.53-7.89
		c-0.99-47.36-7.89-79.92-8.88-105.57C1791.69,1823.65,1815.37,1825.62,1828.19,1826.61L1828.19,1826.61z" clip-rule="evenodd" class="color0c326d svgShape"></path></g><g fill="#000000" class="color000000 svgShape"><path fill="#0575e6" fill-rule="evenodd" d="M1826.22,1678.61c3.95-64.13,0.99-99.65,9.87-109.52c24.67-22.69,42.43,42.42,36.51,63.14
		c-1.97,22.69,0.99,44.4-13.81,73.01c-7.89,11.84-33.55,48.35-80.9,74c-7.89-4.93-10.85-9.87-8.88-16.77
		C1804.51,1729.92,1818.33,1686.51,1826.22,1678.61L1826.22,1678.61z" clip-rule="evenodd" class="color3b7fe7 svgShape"></path></g><g fill="#000000" class="color000000 svgShape"><path fill="#7dbeff" fill-rule="evenodd" d="M1780.84,1777.28c-1.97,3.95-3.95,7.89-6.91,10.85c-11.84,6.91-16.77,16.77-22.69,19.73
		c-2.96,3.95-5.92,8.88-7.89,12.83c-6.91,5.92-11.84-15.79-3.95-37.49c8.88-9.87,19.73-16.77,29.6-20.72
		C1769.98,1769.39,1772.94,1774.32,1780.84,1777.28L1780.84,1777.28z" clip-rule="evenodd" class="colorffb27d svgShape"></path></g><g fill="#000000" class="color000000 svgShape"><path fill="#021b79" fill-rule="evenodd" d="M1672.31,1960.79c-35.52,1.97-53.28,0.99-53.28-2.96c0-9.87,20.72-5.92,37.49-21.71
		c0.99,9.87,12.83,12.83,20.72,9.87c3.95-2.96,7.89-3.95,9.87-1.97c1.97,2.96,2.96,6.91,1.97,11.84
		C1687.1,1959.81,1681.18,1960.79,1672.31,1960.79L1672.31,1960.79z M1807.48,1957.83c-35.52,1.97-40.45-4.93-40.45-8.88
		c0.99-5.92,10.85-0.99,25.65-13.81c0.99,10.85,7.89,12.83,15.79,8.88c3.95-2.96,6.91-4.93,12.83,0c1.97,2.96,2.96,5.92,1.97,10.85
		C1821.29,1958.82,1816.35,1957.83,1807.48,1957.83L1807.48,1957.83z" clip-rule="evenodd" class="color0c326d svgShape"></path></g><g fill="#000000" class="color000000 svgShape"><path fill="#7dbeff" fill-rule="evenodd" d="M1686.12,1939.09c0,0.99,0,2.96,0,3.95c-2.96-0.99-4.93,0-8.88,2.96c-6.91,2.96-17.76,0-19.73-7.89
		c1.97-1.97,2.96-3.95,4.93-6.91C1665.4,1937.11,1676.25,1940.07,1686.12,1939.09L1686.12,1939.09z M1817.34,1936.13
		c0,1.97,0.99,3.95,0.99,5.92c-3.95-1.97-5.92,0-9.87,1.97c-6.91,2.96-13.81,1.97-15.79-5.92c0.99-0.99,1.97-1.97,1.97-2.96
		C1800.57,1940.07,1810.43,1939.09,1817.34,1936.13L1817.34,1936.13z" clip-rule="evenodd" class="colorffb27d svgShape"></path></g><g fill="#000000" class="color000000 svgShape"><path fill="#22347a" fill-rule="evenodd" d="M1754.2,1817.73c1.97-7.89,8.88-12.83,16.77-12.83h148.98c-0.99,0-1.97,0.99-2.96,1.97h-145.04
		c-6.91,0-11.84,4.93-12.83,11.84C1758.14,1817.73,1756.17,1817.73,1754.2,1817.73L1754.2,1817.73z" clip-rule="evenodd" class="color22407a svgShape"></path></g><g fill="#000000" class="color000000 svgShape"><path fill="#c1d3e5" fill-rule="evenodd" d="M1947.58,1623.36h-14.8c-12.83,0-24.67,10.85-26.64,24.67c-8.88,79.92,23.68,159.83-20.72,158.85h-113.46
		c-6.91,0-12.83,5.92-12.83,12.83l0,0c0,6.91,5.92,12.83,12.83,12.83c111.49-2.96,163.78,22.69,180.55-39.47
		C1961.39,1758.53,2006.78,1623.36,1947.58,1623.36L1947.58,1623.36z" clip-rule="evenodd" class="colorc1cde5 svgShape"></path></g><g fill="#000000" class="color000000 svgShape"><polygon fill="#c1d3e5" points="1749.26 1976.58 1754.2 1976.58 1789.72 1814.77 1776.89 1814.77" class="colorc1cde5 svgShape"></polygon></g><g fill="#000000" class="color000000 svgShape"><polygon fill="#c1d3e5" points="1917.98 1976.58 1912.06 1976.58 1871.61 1808.85 1883.45 1808.85" class="colorc1cde5 svgShape"></polygon></g><g fill="#000000" class="color000000 svgShape"><polygon fill="#c1d3e5" points="1973.23 1976.58 1968.3 1976.58 1926.86 1808.85 1939.68 1808.85" class="colorc1cde5 svgShape"></polygon></g><g fill="#000000" class="color000000 svgShape"><path fill="#9ec1e5" fill-rule="evenodd" d="M1390.13,1565.15v-15.79c0,0-3.95,5.92-6.91,1.97c-1.97-2.96-8.88-16.77-7.89-22.69
		c1.97-5.92,7.89-0.99,7.89-0.99s-2.96-36.51,8.88-50.32c11.84-13.81,20.72-14.8,31.57-15.79c9.87,0,30.59,1.97,35.52,8.88
		c5.92,6.91,12.83,33.54,10.85,48.35l-0.99,6.91c16.77,3.95-4.93,26.64-5.92,27.63c-3.95,0.99-1.97,13.81-1.97,13.81
		S1433.54,1554.3,1390.13,1565.15L1390.13,1565.15z" clip-rule="evenodd" class="colore5bd9e svgShape"></path></g><g fill="#000000" class="color000000 svgShape"><path fill="#93bde8" fill-rule="evenodd" d="M1472.02,1526.67c8.88,5.92-3.95,20.72-7.89,25.65c0-3.95,0-6.91,0.99-7.89c2.96-1.97-0.99-6.91,0.99-9.87
		c1.97-3.95,2.96-1.97,4.93-5.92C1472.02,1528.64,1472.02,1527.66,1472.02,1526.67L1472.02,1526.67z" clip-rule="evenodd" class="colore8b493 svgShape"></path></g><g fill="#000000" class="color000000 svgShape"><path fill="#93bde8" fill-rule="evenodd" d="M1386.18,1552.32c-0.99,0-1.97,0-2.96-0.99c-1.97-2.96-8.88-16.77-7.89-22.69c0.99-1.97,0.99-2.96,1.97-2.96
		c0.99,2.96,1.97,7.89,2.96,8.88c1.97,2.96,2.96,1.97,3.95,3.95c1.97,2.96-0.99,6.91,0.99,7.89
		C1386.18,1547.39,1386.18,1550.35,1386.18,1552.32L1386.18,1552.32z" clip-rule="evenodd" class="colore8b493 svgShape"></path></g><g fill="#000000" class="color000000 svgShape"><path fill="#9ec1e5" fill-rule="evenodd" d="M1394.07,1912.45c0,0-11.84,31.57-18.75,39.47c-5.92,7.89-9.87,39.47-7.89,52.29
		c0.99,12.83,0.99,28.61-3.95,34.53c-3.95,5.92-13.81,0.99-29.6-2.96c-14.8-3.94-17.76-2.96-18.75-8.88
		c-1.97-5.92,1.97-10.85,6.91-9.87c4.93,0.99,12.83,0.99,16.77-6.91c7.89-19.73-14.8-86.82,6.91-108.53
		C1362.5,1885.81,1386.18,1896.66,1394.07,1912.45L1394.07,1912.45z" clip-rule="evenodd" class="colore5bd9e svgShape"></path></g><g fill="#000000" class="color000000 svgShape"><path fill="#021b79" fill-rule="evenodd" d="M1370.39,2018.02c0,8.88,3.95,16.77,0,21.71c-3.95,4.93-22.69,1.97-38.48-1.97
		c-0.99-0.99-10.85-2.96-16.77-7.89c-7.89-4.93-5.92-13.81,1.97-13.81c1.97,0,3.95,0.99,4.93,0.99c9.87,0,13.81-2.96,15.79-9.87
		C1346.71,2012.1,1361.51,2018.02,1370.39,2018.02L1370.39,2018.02z" clip-rule="evenodd" class="color0c326d svgShape"></path></g><g fill="#000000" class="color000000 svgShape"><path fill="#9ec1e5" fill-rule="evenodd" d="M1492.74,1859.17c0,0-7.89,61.17,12.83,81.89c20.72,21.71,3.95,35.52,2.96,42.43
		c-1.97,7.89-1.97,21.71,4.93,35.52c5.92,13.81,7.89,14.8,3.95,18.75c-10.85,16.77,46.37,8.88,19.73,11.84
		c-8.88,0.99,30.59-3.95,20.72-14.8c-9.87-10.85-3.95-29.6-6.91-41.44c-2.96-10.85-1.97-37.49-0.99-60.18
		c0.99-22.69,4.93-68.08,0-78.93C1544.04,1842.4,1509.51,1843.38,1492.74,1859.17L1492.74,1859.17z" clip-rule="evenodd" class="colore5bd9e svgShape"></path></g><g fill="#000000" class="color000000 svgShape"><path fill="#021b79" fill-rule="evenodd" d="M1515.43,2023.94c4.93,8.88,4.93,9.87,1.97,13.81c-10.85,16.77,46.37,8.88,19.73,11.84
		c-8.88,0.99,30.59-3.95,20.72-14.8c-2.96-2.96-3.95-6.91-4.93-10.85H1515.43z" clip-rule="evenodd" class="color0c326d svgShape"></path></g><g fill="#000000" class="color000000 svgShape"><path fill="#0575e6" fill-rule="evenodd" d="M1264.82,1731.89c2.96,5.92,14.8,50.32,66.1,13.81c0,0-3.95-131.22,9.87-148.98
		C1340.79,1596.72,1293.44,1597.71,1264.82,1731.89L1264.82,1731.89z" clip-rule="evenodd" class="color3b7fe7 svgShape"></path></g><g fill="#000000" class="color000000 svgShape"><path fill="#9ec1e5" fill-rule="evenodd" d="M1276.66,1747.68c0,0-6.91,13.81,4.93,20.72c11.84,6.91,42.43-1.97,50.32-8.88
		C1339.81,1752.61,1340.79,1735.84,1276.66,1747.68L1276.66,1747.68z" clip-rule="evenodd" class="colore5bd9e svgShape"></path></g><g fill="#000000" class="color000000 svgShape"><path fill="#9ec1e5" fill-rule="evenodd" d="M1570.68,1745.7c0,0,5.92,12.83-5.92,20.72c-11.84,6.91-41.44-1.97-49.33-8.88
		C1507.54,1750.64,1506.55,1732.88,1570.68,1745.7L1570.68,1745.7z" clip-rule="evenodd" class="colore5bd9e svgShape"></path></g><g fill="#000000" class="color000000 svgShape"><path fill="#0575e6" fill-rule="evenodd" d="M1467.08,1576.99c0,0,75.97,12.83,92.74,79.92c16.77,67.09,22.69,66.11,20.72,79.92
		c-1.97,14.8-13.81,20.72-13.81,20.72s-29.6,1.97-33.55-3.95C1529.24,1748.67,1531.22,1666.77,1467.08,1576.99L1467.08,1576.99z" clip-rule="evenodd" class="color3b7fe7 svgShape"></path></g><g fill="#000000" class="color000000 svgShape"><path fill="#67a9ec" fill-rule="evenodd" d="M1461.16,1564.16c5.92,7.89,10.85,16.77,25.65,23.68c24.67,11.84,52.29,87.81,54.27,160.82
		c2.96,74,18.75,78.93,20.72,86.82c1.97,7.89-9.87,28.61-27.63,32.56c-17.76,2.96-190.42,41.44-221.99-33.55
		c0,0-0.99-16.77,6.91-32.56c7.89-15.79,0.99-27.63,6.91-41.44c5.92-13.81-29.6-124.32-0.99-158.85
		c25.65-30.59,48.35-24.67,65.12-39.47C1407.89,1547.39,1446.36,1544.43,1461.16,1564.16L1461.16,1564.16z" clip-rule="evenodd" class="color679bec svgShape"></path></g><g fill="#000000" class="color000000 svgShape"><path fill="#0e257c" fill-rule="evenodd" d="M1315.14,1831.54c0,0-4.93,10.85,0,22.69c3.95,10.85,14.8,17.76,20.72,29.6c4.93,11.84,2.96,22.69,15.79,29.6
		c11.84,7.89,32.56,7.89,39.47,3.95c7.89-2.96,19.73-9.87,18.75-44.4l105.57-6.91c0,0,9.87,18.75,18.75,16.77
		c8.88-1.97,26.64-20.72,27.63-30.59c1.97-9.87,4.93-17.76-5.92-33.55C1545.03,1802.93,1477.94,1856.21,1315.14,1831.54
		L1315.14,1831.54z" clip-rule="evenodd" class="color0e397c svgShape"></path></g><g fill="#000000" class="color000000 svgShape"><path fill="#021b79" fill-rule="evenodd" d="M1382.23,1519.76c0-10.85,0.99-32.56,9.87-42.42c11.84-13.81,20.72-14.8,31.57-15.79
		c9.87,0,30.59,1.97,35.52,8.88c5.92,6.91,12.83,33.54,10.85,48.35l-0.99,3.95c-13.81,12.83-6.91,13.81-16.77,20.72
		c-10.85,7.89-53.28,0.99-53.28,0.99C1396.05,1539.5,1389.14,1528.64,1382.23,1519.76L1382.23,1519.76z" clip-rule="evenodd" class="color0c326d svgShape"></path></g><g fill="#000000" class="color000000 svgShape"><path fill="#384987" fill-rule="evenodd" d="M1454.26,1541.47c-0.99,0.99-0.99,1.97-1.97,1.97c-10.85,7.89-53.28,0.99-53.28,0.99
		c-0.99-1.97-2.96-4.93-4.93-7.89c1.97-0.99,4.93-2.96,6.91-7.89c2.96-9.87,0.99-10.85,12.83-12.83
		c12.83-1.97,26.64-2.96,31.57,3.95c4.93,6.91,0,12.83,0,12.83S1449.32,1540.48,1454.26,1541.47L1454.26,1541.47z" clip-rule="evenodd" class="color385387 svgShape"></path></g><g fill="#000000" class="color000000 svgShape"><path fill="#021b79" fill-rule="evenodd" d="M1396.05,1535.55c1.97-0.99,2.96-2.96,4.93-6.91c0-0.99,0-1.97,0.99-2.96h45.39
		c0.99,3.95-1.97,6.91-1.97,6.91s0.99,0.99,1.97,2.96H1396.05z" clip-rule="evenodd" class="color0c326d svgShape"></path></g><g fill="#000000" class="color000000 svgShape"><path fill="#8eafd0" fill-rule="evenodd" d="M1360.53,1710.19l156.88-1.97c5.92,0,9.87,4.93,9.87,10.85l6.91,163.78c0,5.92-4.93,9.87-9.87,9.87
		l-171.68,9.87c-5.92,0-10.85-4.93-10.85-9.87l7.89-172.66C1350.66,1714.13,1354.61,1710.19,1360.53,1710.19L1360.53,1710.19z" clip-rule="evenodd" class="color8ea4d0 svgShape"></path></g><g fill="#000000" class="color000000 svgShape"><path fill="#8eafd0" d="M1303.3,2066.36c-0.99,2.96-2.96,4.93-5.92,3.95c-1.97,0-3.95-1.97-3.95-4.93l21.71-166.74
		c0.99-3.95,2.96-6.91,5.92-9.87c2.96-1.97,6.91-3.95,10.85-3.95l173.65-5.92c4.93,0,8.88,0.99,11.84,3.95
		c2.96,1.97,4.93,5.92,4.93,9.87l21.71,164.77c0.99,1.97-0.99,4.93-3.95,4.93s-4.93-1.97-4.93-3.95l-21.71-164.77
		c0-0.99-0.99-2.96-2.96-3.95c-0.99-0.99-1.97-1.97-3.95-1.97l-174.64,5.92c-1.97,0.99-3.95,0.99-4.93,1.97
		c-0.99,0.99-1.97,2.96-1.97,3.95L1303.3,2066.36z" class="color8ea4d0 svgShape"></path></g><g fill="#000000" class="color000000 svgShape"><path fill="#7e97b0" d="M1324.02,2079.19c-0.99,1.97-2.96,3.95-5.92,3.95c-1.97-0.99-3.95-2.96-3.95-5.92l21.71-166.74
		c0.99-3.95,2.96-6.91,5.92-9.87c2.96-1.97,6.91-3.95,10.85-3.95l173.65-5.92c4.93,0,8.88,0.99,11.84,3.95
		c2.96,2.96,4.93,5.92,4.93,9.87l21.71,164.77c0,1.97-0.99,4.93-3.95,4.93c-2.96,0.99-4.93-0.99-4.93-3.95l-21.71-163.78
		c0-1.97-0.99-3.95-2.96-4.93c-0.99-0.99-1.97-0.99-3.95-0.99l-174.64,5.92c-1.97,0-3.95,0-4.93,1.97
		c-0.99,0.99-1.97,1.97-1.97,3.95L1324.02,2079.19z" class="color7e8eb0 svgShape"></path></g><g fill="#000000" class="color000000 svgShape"><path fill="#f0f4f8" fill-rule="evenodd" d="M908.65,398.94c74.98,0,136.16,61.17,136.16,136.16c0,75.97-61.17,136.16-136.16,136.16
		c-74.99,0-136.16-60.18-136.16-136.16C772.49,460.11,833.66,398.94,908.65,398.94L908.65,398.94z" clip-rule="evenodd" class="colorf0f3f8 svgShape"></path></g><g fill="#000000" class="color000000 svgShape"><path fill="#f0f4f8" fill-rule="evenodd" d="M805.05,705.79c33.55,0,60.18,26.64,60.18,59.2c0,33.54-26.64,60.18-60.18,60.18
		c-32.56,0-59.2-26.64-59.2-60.18C745.85,732.42,772.49,705.79,805.05,705.79L805.05,705.79z" clip-rule="evenodd" class="colorf0f3f8 svgShape"></path></g><g fill="#000000" class="color000000 svgShape"><path fill="#fcfcfc" fill-rule="evenodd" d="M893.85,424.59c18.75-2.96,55.25-5.92,90.77,19.73c43.41,44.4,38.48,65.12,41.44,109.52
		c-4.93-36.51-15.79-71.04-39.47-86.83c-44.4-31.57-86.82-5.92-98.66-5.92C865.23,462.09,867.21,432.49,893.85,424.59L893.85,424.59
		z" clip-rule="evenodd" class="colorfcfcfc svgShape"></path></g><g fill="#000000" class="color000000 svgShape"><path fill="#fcfcfc" fill-rule="evenodd" d="M795.18,715.65c7.89-1.97,25.65-2.96,43.41,8.88c20.72,21.71,18.75,31.57,19.73,53.28
		c-1.97-17.76-7.89-34.53-18.75-42.42c-21.71-14.8-42.43-2.96-48.35-2.96C780.38,733.41,782.35,718.61,795.18,715.65L795.18,715.65z
		" clip-rule="evenodd" class="colorfcfcfc svgShape"></path></g></svg>