<svg xmlns="http://www.w3.org/2000/svg" enable-background="new 0 0 3000 3000" viewBox="0 0 3000 3000" id="Businessmanmovetowardssuccess"><g fill="#000000" class="color000000 svgShape"><g fill="#000000" class="color000000 svgShape"><g fill="#000000" class="color000000 svgShape"><g fill="#000000" class="color000000 svgShape"><g fill="#000000" class="color000000 svgShape"><polygon fill="#96c2ef" points="1566.74 1746.13 1563.45 1715.86 1516.52 1720.6 1519.9 1751.6" class="colorefbb96 svgShape"></polygon><path fill="#111111" d="M1525.18 1715.38c0 0 3.9-1.58 4.96 1.06.35.86.25 1.84-.17 2.67l-2.51 4.65c-.68 1.35-1.38 2.69-2.12 4.01-1.12 2-3.2 6.68-2.51 10.62 0 0-6.59-6.86-6.7-7.47s1.95-11.34 1.95-11.34L1525.18 1715.38zM1528.05 1749.07c0 0 10.29-1.01 10.95 3.02.07.42 0 .85-.16 1.25-.4 1.02-1.55 3.28-4.11 4.18l-5.05-5.49L1528.05 1749.07z" class="color111111 svgShape"></path><path fill="#021b79" d="M1515.44,1807.37c-3.17,0.55-6.32-1.03-7.72-3.95c-0.22-0.42-0.44-0.88-0.63-1.35
						c-1.19-2.78-2.02-5.72-2.54-8.69l-12.34-71.11c-0.59-3.38,1.84-6.61,5.26-6.95l23.19-2.5c0.45-0.04,0.91-0.05,1.38-0.03
						c1.87,0.14,3.17,0.66,4.12,2.06c0.48,0.7,0.52,1.58,0.11,2.29c-2.42,4.29-10.57,21.59,5.57,34.31
						c1.23,0.96,2.36,2.11,3.16,3.47c0.93,1.47,1.67,3.3,1.03,4.69c-6,12.91-12.74,27.29-14.75,41.67c-0.26,1.79-1.13,3.5-2.57,4.64
						C1517.77,1806.65,1516.65,1807.16,1515.44,1807.37z" class="color212121 svgShape"></path><path fill="#111111" d="M1515.44,1807.37c-3.17,0.55-6.32-1.03-7.72-3.95c-0.22-0.42-0.44-0.88-0.63-1.35
						c-1.19-2.78-2.02-5.72-2.54-8.69l-12.34-71.11c-0.59-3.38,1.84-6.61,5.26-6.95
						C1502.92,1751.48,1510.37,1797.69,1515.44,1807.37z" class="color111111 svgShape"></path></g><g fill="#000000" class="color000000 svgShape"><polygon fill="#96c2ef" points="2123.77 1718.53 2099.41 1736.79 2127.4 1774.75 2152.35 1756.04" class="colorefbb96 svgShape"></polygon><path fill="#111111" d="M2117.02 1769.46c0 0-3.18-2.76-1.31-4.91.61-.7 1.53-1.06 2.46-1.06l5.29.13c1.51-.01 3.03 0 4.54.07 2.29.09 7.4-.18 10.6-2.58 0 0-3.12 8.99-3.61 9.36s-10.99 3.41-10.99 3.41L2117.02 1769.46zM2145.74 1751.61c0 0-5.57-8.71-2.28-11.13.34-.25.76-.38 1.18-.42 1.09-.11 3.63-.11 5.59 1.77l-2.6 6.99L2145.74 1751.61z" class="color111111 svgShape"></path><path fill="#021b79" d="M2203.41,1736.36c1.93,2.58,1.95,6.1-0.02,8.67c-0.28,0.39-0.59,0.79-0.92,1.17
						c-1.93,2.32-4.18,4.4-6.59,6.21l-57.75,43.29c-2.74,2.06-6.72,1.36-8.58-1.53l-12.76-19.53c-0.24-0.39-0.46-0.79-0.65-1.22
						c-0.73-1.73-0.85-3.12-0.04-4.61c0.41-0.74,1.17-1.18,1.99-1.14c4.92,0.2,24.03-0.39,28.04-20.54
						c0.29-1.53,0.81-3.06,1.65-4.39c0.89-1.5,2.18-2.99,3.71-3.04c14.22-0.51,30.1-1.04,43.83-5.78c1.71-0.58,3.63-0.58,5.3,0.18
						C2201.71,1734.62,2202.67,1735.38,2203.41,1736.36z" class="color212121 svgShape"></path><path fill="#111111" d="M2203.41,1736.36c1.93,2.58,1.95,6.1-0.02,8.67c-0.28,0.39-0.59,0.79-0.92,1.17
						c-1.93,2.32-4.18,4.4-6.59,6.21l-57.75,43.29c-2.74,2.06-6.72,1.36-8.58-1.53C2159.3,1772.9,2197.09,1745.28,2203.41,1736.36z" class="color111111 svgShape"></path></g><path fill="#021b79" d="M2022.38,1526.45l115.63,199.21l-37.29,31.88l-129.97-176.84c-2.96-4.53-7.14-8.14-12.05-10.41
					l-124.91-62.46l-77.27,220.3c-2.93,6.07-8.82,10.17-15.54,10.8l-188.07,19.84l-3.11-52.02l145.37-29.45
					c5.36-0.87,9.6-5,10.6-10.34l27.06-143.54c0,0-14.26-64.34,6.41-92.04l124.63-11l23.65,18.97l122.72,74.66
					C2015.27,1517.07,2019.44,1521.35,2022.38,1526.45z" class="color212121 svgShape"></path><path fill="#96c2ef" d="M2138.81,1134.67c-0.16,1.29-0.95,2.39-2.06,2.96l-1.42-7.32
					C2137.48,1130.49,2139.11,1132.43,2138.81,1134.67z" class="colorefbb96 svgShape"></path><path fill="#96c2ef" d="M2149.47,1124.04c-1.43,0.49-3.15,0.86-5.2,1.05c-2.27,0.23-4.56,0.17-6.83-0.03
					c-0.8-0.07-1.89-0.14-3.14-0.07c-2.67,0.12-6.08,0.78-9.15,2.89c-1.36,0.94-2.67,2.15-3.81,3.75l4.45-0.45l1.54,7.92
					c-9.23,1.4-22.06,4.02-29.87,8.38l-4.53-24.2c0,0,13.28-10.2,28.26-15.8c3.03-1.13,6.12-2.09,9.18-2.7
					c7.97-1.68,15.77-1.24,21.69,3.47C2157.72,1112.73,2156.31,1121.77,2149.47,1124.04z" class="colorefbb96 svgShape"></path><polygon fill="#96c2ef" points="1842.96 1155.24 1819.87 1169.26 1789.48 1149.84 1785.6 1113.07 1776.99 1090.02 1790.1 1061.16 1838.35 1108.41 1840.13 1124.4 1840.52 1128.04 1840.85 1131.06 1841.01 1132.5 1841.94 1138.46" class="colorefbb96 svgShape"></polygon><path fill="#ffffff" d="M1789.64,1428.46c0,0,34.27,26.36,92.67-9.83l-34.3-255.22l-14.87-4.34l-7.82,0.27l-24.26,8.72
					l-29.81,195.04L1789.64,1428.46z" class="colorffffff svgShape"></path><path fill="#0575e6" d="M1801.06,1168.05l11.76,222.77c1.58,26.35-11.19,52.02-34.11,65.14c-16.26,9.31-25.46,12.9-57.7,3.36
					c0,0,4.86-126.86,3.97-159.32c-0.16-5.71-0.22-11.43-0.22-17.08c0.01-0.34-0.01-0.71-0.01-1.11c0-5.23,0.09-10.4,0.27-15.58
					c0.04-1.45,0.08-2.86,0.14-4.31c0.4-12.82,1.27-25.63,2.53-38.41c1.45-14.85,6.02-29.36,12.65-42.95
					c6.63-13.56,24.96-24.86,34.77-36.09L1801.06,1168.05z" class="color0071bc svgShape"></path><polygon fill="#0575e6" points="1991.53 1184.56 1874.89 1191.54 1841.96 1138.44 1985.82 1142.11 2098.63 1115.06 2100.93 1153.51" class="color0071bc svgShape"></polygon><path fill="#0575e6" d="M1874.89,1191.54l25.74,255.47c0,0-0.67,0.3-1.87,0.7c-18.09,6.05-36.85-7.37-37.58-26.43l-6.46-167.61
					c-1.16-30.19-6.96-60.02-17.18-88.44l0,0l4.43-26.8L1874.89,1191.54z" class="color0071bc svgShape"></path><polygon fill="#f2f2f2" points="1775.09 1144.45 1819.88 1184.72 1825.33 1159.34 1787.8 1133.9" class="colorf2f2f2 svgShape"></polygon><polygon fill="#f2f2f2" points="1841.96 1138.44 1833.15 1159.07 1853.26 1169.32" class="colorf2f2f2 svgShape"></polygon><polygon fill="#0036ff" points="1825.33 1159.34 1822.21 1173.86 1837.09 1177.83 1846.97 1166.11 1833.15 1159.07" class="colorff0000 svgShape"></polygon><path fill="#0036ff" d="M1834.8,1173.44c0,0,9.55,78.62-0.04,143.51l-15.93,93.14l17.09,26.69l14.25-20.73
					c12.16-83.66,10.38-166.96-3.19-249.95l-13.26,2.32L1834.8,1173.44z" class="colorff0000 svgShape"></path><path fill="#0050a0" d="M1744.51,1242.44l-19.75,40.48c0.01-0.34-0.01-0.71-0.01-1.11c0-5.23,0.09-10.4,0.27-15.58
					c0.04-1.45,0.08-2.86,0.14-4.31L1744.51,1242.44z" class="color0067a0 svgShape"></path><path fill="#96c2ef" d="M1636.34,1390.46c-5.51,10.5-7.67,29.98-8.28,37.38c0,0.07-0.02,0.18-0.05,0.25
					c-1.55-1.35-3.44-2.32-5.57-2.82l-1.82-0.45l0.81-10.57c-3.56,2.7-5.13,6.2-5.79,9.36c-0.44,2.06-0.43,3.99-0.34,5.42l-20-4.87
					c0.28-1.74,0.7-3.48,1.19-5.23c4.49-16.4,16.05-32.31,16.05-32.31L1636.34,1390.46z" class="colorefbb96 svgShape"></path><path fill="#0575e6" d="M1775.09,1144.45c-41.8,28.55-85.15,74.02-119.4,127.55c-40.92,63.95-51.91,116.61-51.91,116.61
					l39.23,12.69l43.1-94.43l96.84-111.51c4.01-4.59,6.79-10.28,7.16-16.37c0.58-9.51-3.71-19.03-12.03-24.8l-1.97-1.37" class="color0071bc svgShape"></path><path fill="#85b2e0" d="M1840.85,1131.06c-17.16,0.07-21.93-7.08-21.93-7.08c8.55,2.69,19.71,0.69,21.22,0.42l0.39,3.64
					L1840.85,1131.06z" class="colore0aa85 svgShape"></path><g fill="#000000" class="color000000 svgShape"><path fill="#96c2ef" d="M1841.85,1034.73c0,0,40.72,73.79-2.95,90.2c-10.5,3.95-20.13,1.62-25.78-7.03
						c-4.24-6.49-8.09-16.46-8.56-31.47l-5.24-32.67l24.98-25.66L1841.85,1034.73z" class="colorefbb96 svgShape"></path><path fill="#021b79" d="M1786.12,1103.05c1.12,4.26,1.05,8.75-0.2,12.97l0,0c-13.35-19.12-25.65-38.94-31.34-60.86
						c-0.63-2.44-1.61-6.34-1.38-8.85c0.43-4.66,2.79-10.22,11.51-10.71l-5.25-3.34l6.42-0.46l-4.43-6.08l6.48,3.85l1.46-7.59
						l2.4,7.27c0.19-1.17,7.66-16.5,51.36-20.76l-0.25,3.2c7.4-2.24,14.11-5.01,20.11-8.3c0,0,13.21,35.52-14.75,38.47
						c-6.39,0.67-11.65,5.82-11.33,12.24c0.03,0.59,0.09,1.2,0.19,1.83c0.35,2.33,0.39,4.69-0.16,6.98
						c-0.83,3.41-2.54,8.17-6.01,11.61l2.11,10.32l-8.57,1.61c0,0-3.32-14.2-15.57-11.52c0,0-10.24,1.73-5.46,18L1786.12,1103.05z" class="color212121 svgShape"></path></g><path fill="#132360" d="M1628,1428.09c-0.25,1.63-1.51,2.89-3.18,3.17c-2.43,0.39-4.55-1.62-4.38-4.05l0.17-2.39l-4.98-1.21
					l-19.14-4.67l-10.07-2.45c-7.44-1.8-14.95,2.75-16.75,10.19l-3.09,12.77l62.94,15.31l3.09-12.74
					C1633.92,1436.71,1631.95,1431.36,1628,1428.09z M1627.43,1440.75l-1.86,7.54l-52.52-12.81l1.86-7.55
					c1.09-4.55,5.7-7.35,10.25-6.22l10.14,2.44l20,4.87l5.87,1.44C1625.72,1431.6,1628.52,1436.2,1627.43,1440.75z" class="color603813 svgShape"></path><path fill="#96c2ef" d="M1628,1428.09c-0.25,1.63-1.51,2.89-3.18,3.17c-2.43,0.39-4.55-1.62-4.38-4.05l0.17-2.39l1.82,0.45
					C1624.57,1425.77,1626.45,1426.75,1628,1428.09z" class="colorefbb96 svgShape"></path><path fill="#132360" d="M1637.8,1566.31l-130.2-31.72c-3.82-0.93-6.16-4.78-5.23-8.59l14.14-58.05l144.02,35.09l-14.14,58.05
					C1645.46,1564.9,1641.61,1567.24,1637.8,1566.31z" class="color603813 svgShape"></path><path fill="#243575" d="M1641.4,1519.45l-115.14-28.05c-10.74-2.62-17.32-13.44-14.71-24.18l8.55-35.11
					c1.3-5.34,6.69-8.62,12.03-7.32l134.67,32.81c5.34,1.3,8.62,6.69,7.32,12.03l-8.55,35.11
					C1662.96,1515.48,1652.14,1522.07,1641.4,1519.45z" class="color754c24 svgShape"></path><g fill="#000000" class="color000000 svgShape"><g fill="#000000" class="color000000 svgShape"><rect width="112.48" height="15.36" x="1485.28" y="1477.29" fill="#1e4cf7" transform="rotate(-76.308 1541.521 1484.941)" class="colorf7931e svgShape"></rect><rect width="112.48" height="15.36" x="1574.69" y="1499.05" fill="#1e4cf7" transform="rotate(-76.308 1630.932 1506.7)" class="colorf7931e svgShape"></rect></g><g fill="#000000" class="color000000 svgShape"><path fill="#3b63fb" d="M1628.42,1516.74L1628.42,1516.74c-1.25-0.3-2.01-1.56-1.71-2.81l1.82-7.46
							c0.3-1.25,1.56-2.01,2.81-1.71l0,0c1.25,0.3,2.01,1.56,1.71,2.81l-1.82,7.46C1630.92,1516.28,1629.67,1517.05,1628.42,1516.74
							z" class="colorfbb03b svgShape"></path><g fill="#000000" class="color000000 svgShape"><path fill="#3b63fb" d="M1635.02,1527.4l-17.36-4.23c-1.98-0.48-3.2-2.49-2.72-4.48l3.25-13.33c0.48-1.98,2.49-3.21,4.48-2.72
								l17.36,4.23c1.98,0.48,3.21,2.49,2.72,4.48l-3.25,13.33C1639.01,1526.66,1637,1527.89,1635.02,1527.4z M1621.97,1505.48
								c-0.42-0.1-0.85,0.16-0.95,0.58l-3.25,13.33c-0.1,0.42,0.16,0.85,0.58,0.95l17.36,4.23c0.42,0.1,0.85-0.16,0.95-0.58
								l3.25-13.33c0.1-0.42-0.16-0.85-0.58-0.95L1621.97,1505.48z" class="colorfbb03b svgShape"></path></g></g><path fill="#3b63fb" d="M1539.04,1494.97L1539.04,1494.97c-1.25-0.3-2.01-1.56-1.71-2.81l1.82-7.46c0.3-1.25,1.56-2.01,2.81-1.71
						l0,0c1.25,0.3,2.01,1.56,1.71,2.81l-1.82,7.46C1541.54,1494.51,1540.29,1495.27,1539.04,1494.97z" class="colorfbb03b svgShape"></path><g fill="#000000" class="color000000 svgShape"><path fill="#3b63fb" d="M1545.64,1505.63l-17.36-4.23c-1.98-0.48-3.21-2.49-2.72-4.48l3.25-13.33c0.48-1.98,2.49-3.21,4.48-2.72
							l17.36,4.23c1.98,0.48,3.2,2.49,2.72,4.48l-3.25,13.33C1549.63,1504.89,1547.62,1506.11,1545.64,1505.63z M1532.59,1483.7
							c-0.42-0.1-0.85,0.16-0.95,0.58l-3.25,13.33c-0.1,0.42,0.16,0.85,0.58,0.95l17.36,4.23c0.42,0.1,0.85-0.16,0.95-0.58
							l3.25-13.33c0.1-0.42-0.16-0.85-0.58-0.95L1532.59,1483.7z" class="colorfbb03b svgShape"></path></g></g><path fill="#96c2ef" d="M1615.59,1436.83c-0.13,2.01-0.44,3.71-0.89,5.1c-2.05,6.75-10.89,8.37-15.39,2.95
					c-4.65-5.58-5.34-13.04-4.01-20.73l20,4.87c0.03,0.42,0.05,0.77,0.1,1.12C1615.63,1432.37,1615.77,1434.61,1615.59,1436.83z" class="colorefbb96 svgShape"></path></g><g fill="#000000" class="color000000 svgShape"><g fill="#000000" class="color000000 svgShape"><path fill="#96c2ef" d="M2135.33,1130.31l1.42,7.32c-0.34,0.18-0.69,0.3-1.07,0.38c-0.09,0.02-0.19,0.02-0.28,0.04
						c-1.97,0.21-4.8,0.56-8.07,1.06l-1.54-7.92l8.78-0.88C2134.84,1130.27,2135.08,1130.28,2135.33,1130.31z" class="colorefbb96 svgShape"></path></g></g></g><g fill="#000000" class="color000000 svgShape"><g fill="#000000" class="color000000 svgShape"><path fill="#f2f2f2" d="M2974.79,1895.59c1.9,28.65-8.95,54.79-27.46,73.3c-17.12,17.12-40.75,27.71-66.89,27.71H119.56
					c-52.23,0-94.56-42.34-94.56-94.56l0,0c0-52.23,42.34-94.56,94.56-94.56h2758.86
					C2928.51,1807.48,2971.47,1845.61,2974.79,1895.59z" class="colorf2f2f2 svgShape"></path></g><g fill="#000000" class="color000000 svgShape"><rect width="50.64" height="152.69" x="125.91" y="1825.7" fill="#0575e6" class="color0071bc svgShape"></rect><rect width="50.64" height="152.69" x="218.75" y="1825.7" fill="#0575e6" class="color0071bc svgShape"></rect><rect width="50.64" height="152.69" x="311.59" y="1825.7" fill="#0575e6" class="color0071bc svgShape"></rect><rect width="50.64" height="152.69" x="404.43" y="1825.7" fill="#0575e6" class="color0071bc svgShape"></rect><rect width="50.64" height="152.69" x="497.27" y="1825.7" fill="#0575e6" class="color0071bc svgShape"></rect><rect width="50.64" height="152.69" x="590.11" y="1825.7" fill="#0575e6" class="color0071bc svgShape"></rect><rect width="50.64" height="152.69" x="682.95" y="1825.7" fill="#0575e6" class="color0071bc svgShape"></rect><rect width="50.64" height="152.69" x="775.79" y="1825.7" fill="#0575e6" class="color0071bc svgShape"></rect><rect width="50.64" height="152.69" x="868.63" y="1825.7" fill="#0575e6" class="color0071bc svgShape"></rect><rect width="50.64" height="152.69" x="961.47" y="1825.7" fill="#0575e6" class="color0071bc svgShape"></rect><rect width="50.64" height="152.69" x="1054.31" y="1825.7" fill="#0575e6" class="color0071bc svgShape"></rect><rect width="50.64" height="152.69" x="1147.15" y="1825.7" fill="#0575e6" class="color0071bc svgShape"></rect><rect width="50.64" height="152.69" x="1239.99" y="1825.7" fill="#0575e6" class="color0071bc svgShape"></rect><rect width="50.64" height="152.69" x="1332.83" y="1825.7" fill="#0575e6" class="color0071bc svgShape"></rect><rect width="50.64" height="152.69" x="1425.67" y="1825.7" fill="#0575e6" class="color0071bc svgShape"></rect></g></g></g><g fill="#000000" class="color000000 svgShape"><path fill="#0036ff" d="M2429.56 1773.43c-3.81-1.79-6.83-4.38-9.04-7.76-2.22-3.38-3.36-7.36-3.42-11.96h14.66c.19 3.09 1.19 5.53 2.98 7.33 1.79 1.8 4.25 2.69 7.38 2.69 3.19 0 5.7-.84 7.53-2.53 1.82-1.69 2.74-3.9 2.74-6.63 0-2.22-.62-4.06-1.86-5.49-1.24-1.44-2.78-2.57-4.64-3.39-1.86-.82-4.41-1.74-7.67-2.75-4.43-1.44-8.03-2.85-10.8-4.26-2.77-1.4-5.15-3.52-7.14-6.36s-2.98-6.63-2.98-11.37c0-4.45 1.01-8.33 3.03-11.63s4.85-5.83 8.5-7.59 7.82-2.64 12.51-2.64c7.04 0 12.75 1.89 17.15 5.66s6.82 9.03 7.28 15.78h-15.05c-.13-2.59-1.12-4.72-2.98-6.41-1.86-1.69-4.32-2.53-7.38-2.53-2.67 0-4.81.75-6.4 2.26-1.6 1.51-2.4 3.7-2.4 6.57 0 2.01.6 3.68 1.81 5.01s2.7 2.41 4.5 3.23c1.79.83 4.32 1.78 7.57 2.86 4.43 1.44 8.05 2.87 10.85 4.31 2.8 1.44 5.21 3.59 7.23 6.46s3.03 6.64 3.03 11.31c0 4.02-.95 7.76-2.84 11.2-1.89 3.45-4.66 6.19-8.31 8.24-3.65 2.05-7.98 3.07-13 3.07C2437.65 1776.13 2433.37 1775.23 2429.56 1773.43zM2491.87 1700.17v46.54c0 5.1 1.2 9 3.62 11.69 2.41 2.69 5.8 4.04 10.16 4.04 4.43 0 7.85-1.35 10.26-4.04 2.41-2.69 3.62-6.59 3.62-11.69v-46.54h13.78v46.43c0 6.39-1.25 11.8-3.76 16.21-2.51 4.42-5.86 7.74-10.07 9.97-4.2 2.23-8.88 3.34-14.03 3.34-5.08 0-9.69-1.11-13.83-3.34-4.14-2.23-7.41-5.55-9.82-9.97-2.41-4.42-3.62-9.82-3.62-16.21v-46.43H2491.87zM2547.73 1717.79c3.03-5.85 7.17-10.41 12.41-13.68s11.13-4.9 17.64-4.9c7.62 0 14.3 2.15 20.04 6.46 5.73 4.31 9.74 10.27 12.02 17.88h-15.74c-1.56-3.59-3.76-6.28-6.6-8.08-2.84-1.79-6.11-2.69-9.82-2.69-3.98 0-7.51 1.02-10.6 3.07-3.1 2.05-5.51 4.94-7.23 8.67-1.73 3.74-2.59 8.12-2.59 13.14 0 4.96.86 9.32 2.59 13.09 1.72 3.77 4.14 6.68 7.23 8.73 3.09 2.05 6.63 3.07 10.6 3.07 3.71 0 6.99-.92 9.82-2.75s5.03-4.54 6.6-8.13h15.74c-2.28 7.69-6.27 13.66-11.97 17.94-5.7 4.27-12.4 6.41-20.09 6.41-6.52 0-12.4-1.63-17.64-4.9s-9.38-7.81-12.41-13.63-4.55-12.42-4.55-19.82S2544.7 1723.64 2547.73 1717.79zM2622.79 1717.79c3.03-5.85 7.17-10.41 12.41-13.68s11.13-4.9 17.64-4.9c7.62 0 14.3 2.15 20.04 6.46 5.73 4.31 9.74 10.27 12.02 17.88h-15.74c-1.56-3.59-3.76-6.28-6.6-8.08-2.84-1.79-6.11-2.69-9.82-2.69-3.98 0-7.51 1.02-10.6 3.07-3.1 2.05-5.51 4.94-7.23 8.67-1.73 3.74-2.59 8.12-2.59 13.14 0 4.96.86 9.32 2.59 13.09 1.72 3.77 4.14 6.68 7.23 8.73 3.09 2.05 6.63 3.07 10.6 3.07 3.71 0 6.99-.92 9.82-2.75s5.03-4.54 6.6-8.13h15.74c-2.28 7.69-6.27 13.66-11.97 17.94-5.7 4.27-12.4 6.41-20.09 6.41-6.52 0-12.4-1.63-17.64-4.9s-9.38-7.81-12.41-13.63-4.55-12.42-4.55-19.82C2618.25 1730.27 2619.76 1723.64 2622.79 1717.79zM2710.32 1712.35v18.85h22.97v11.96h-22.97v19.93h25.9v12.28h-39.58v-75.3h39.58v12.28H2710.32zM2759.34 1773.43c-3.81-1.79-6.83-4.38-9.04-7.76-2.22-3.38-3.36-7.36-3.42-11.96h14.66c.19 3.09 1.19 5.53 2.98 7.33 1.79 1.8 4.25 2.69 7.38 2.69 3.19 0 5.7-.84 7.53-2.53 1.82-1.69 2.74-3.9 2.74-6.63 0-2.22-.62-4.06-1.86-5.49-1.24-1.44-2.78-2.57-4.64-3.39-1.86-.82-4.42-1.74-7.67-2.75-4.43-1.44-8.03-2.85-10.8-4.26-2.77-1.4-5.15-3.52-7.14-6.36s-2.98-6.63-2.98-11.37c0-4.45 1.01-8.33 3.03-11.63s4.85-5.83 8.5-7.59 7.82-2.64 12.51-2.64c7.04 0 12.75 1.89 17.15 5.66s6.82 9.03 7.28 15.78h-15.05c-.13-2.59-1.12-4.72-2.98-6.41-1.86-1.69-4.32-2.53-7.38-2.53-2.67 0-4.81.75-6.4 2.26-1.6 1.51-2.4 3.7-2.4 6.57 0 2.01.6 3.68 1.81 5.01s2.7 2.41 4.5 3.23c1.79.83 4.32 1.78 7.57 2.86 4.43 1.44 8.05 2.87 10.85 4.31 2.8 1.44 5.21 3.59 7.23 6.46s3.03 6.64 3.03 11.31c0 4.02-.95 7.76-2.84 11.2-1.89 3.45-4.66 6.19-8.31 8.24-3.65 2.05-7.98 3.07-13 3.07C2767.43 1776.13 2763.15 1775.23 2759.34 1773.43zM2818.86 1773.43c-3.81-1.79-6.83-4.38-9.04-7.76-2.22-3.38-3.36-7.36-3.42-11.96h14.66c.19 3.09 1.19 5.53 2.98 7.33 1.79 1.8 4.25 2.69 7.38 2.69 3.19 0 5.7-.84 7.53-2.53 1.82-1.69 2.74-3.9 2.74-6.63 0-2.22-.62-4.06-1.86-5.49-1.24-1.44-2.78-2.57-4.64-3.39-1.86-.82-4.42-1.74-7.67-2.75-4.43-1.44-8.03-2.85-10.8-4.26-2.77-1.4-5.15-3.52-7.14-6.36s-2.98-6.63-2.98-11.37c0-4.45 1.01-8.33 3.03-11.63s4.85-5.83 8.5-7.59 7.82-2.64 12.51-2.64c7.04 0 12.76 1.89 17.15 5.66 4.4 3.77 6.82 9.03 7.28 15.78h-15.05c-.13-2.59-1.12-4.72-2.98-6.41-1.86-1.69-4.32-2.53-7.38-2.53-2.67 0-4.81.75-6.4 2.26-1.6 1.51-2.4 3.7-2.4 6.57 0 2.01.6 3.68 1.81 5.01s2.7 2.41 4.5 3.23c1.79.83 4.32 1.78 7.57 2.86 4.43 1.44 8.05 2.87 10.85 4.31 2.8 1.44 5.21 3.59 7.23 6.46s3.03 6.64 3.03 11.31c0 4.02-.95 7.76-2.84 11.2-1.89 3.45-4.66 6.19-8.31 8.24-3.65 2.05-7.98 3.07-13 3.07C2826.96 1776.13 2822.67 1775.23 2818.86 1773.43z" class="colorff0000 svgShape"></path></g></g></svg>