<svg xmlns="http://www.w3.org/2000/svg" fill="none" viewBox="359.351 345.762 1336.907 1112.642" id="Businessmansendingmarketingemail"><path fill="#e7f3ff" fill-rule="evenodd" d="M1058.19 396.337 420.12 806.195l86.934 601.625H1510.41l125.08-517.264-577.3-494.219Z" clip-rule="evenodd" class="colore7ecff svgShape"></path><path fill="#3d66ff" fill-rule="evenodd" d="M867.875 828.405c0-4.588-1.771-8.926-5.002-12.18a17.271 17.271 0 0 0-12.175-5.006H551.305c-4.56 0-8.942 1.794-12.174 5.006-3.232 3.254-5.046 7.592-5.046 12.18v189.055c0 4.54 1.814 8.92 5.046 12.14a17.141 17.141 0 0 0 12.174 5.04h299.393c4.56 0 8.943-1.79 12.175-5.04 3.231-3.22 5.002-7.6 5.002-12.14V828.405Z" clip-rule="evenodd" class="colorff7a3d svgShape"></path><path fill="#000e45" fill-rule="evenodd" d="M836.682 698.962c0-7.885-6.384-14.279-14.286-14.279H596.358c-7.903 0-14.319 6.394-14.319 14.279v150.832s72.373 54.572 104.22 78.613c8.713 6.587 20.737 6.587 29.484 0 35.123-26.493 120.939-91.211 120.939-91.211V698.962Z" clip-rule="evenodd" class="color000045 svgShape"></path><path fill="#ffffff" fill-rule="evenodd" d="M828.321 690.206c0-7.886-6.383-14.28-14.286-14.28H587.997c-7.902 0-14.318 6.394-14.318 14.28v150.831l112.596 84.912a24.413 24.413 0 0 0 29.449 0l112.597-84.912V690.206Z" clip-rule="evenodd" class="colorffffff svgShape"></path><path fill="#ffffff" fill-rule="evenodd" d="M538.257 816.9s106.692 80.477 146.659 110.563c9.497 7.185 22.658 7.185 32.156 0C756.99 897.377 863.729 816.9 863.729 816.9c.868-.699 1.061-1.996.386-2.894a2.064 2.064 0 0 0-2.893-.4s-106.691 80.479-146.61 110.564c-8.051 6.087-19.188 6.087-27.239 0-39.918-30.085-146.608-110.564-146.608-110.564a2.063 2.063 0 0 0-2.892.4c-.675.898-.532 2.195.384 2.894Z" clip-rule="evenodd" class="colorffffff svgShape"></path><path fill="#000e45" fill-rule="evenodd" d="M614.178 727.885h90.266c1.151 0 2.08-.93 2.08-2.081 0-1.107-.929-2.036-2.08-2.036h-90.266a2.059 2.059 0 0 0-2.036 2.036c0 1.151.929 2.081 2.036 2.081ZM614.05 764.201h173.641a2.108 2.108 0 0 0 2.129-2.129c0-1.107-.937-2.044-2.129-2.044H614.05c-1.107 0-2.042.937-2.042 2.044 0 1.193.935 2.129 2.042 2.129ZM614.05 800.512h173.641a2.108 2.108 0 0 0 2.129-2.128c0-1.108-.937-2.045-2.129-2.045H614.05c-1.107 0-2.042.937-2.042 2.045 0 1.192.935 2.128 2.042 2.128ZM614.05 836.773h173.641a2.109 2.109 0 0 0 2.129-2.129c0-1.107-.937-2.044-2.129-2.044H614.05c-1.107 0-2.042.937-2.042 2.044 0 1.192.935 2.129 2.042 2.129Z" clip-rule="evenodd" class="color000045 svgShape"></path><path fill="#0575e6" fill-rule="evenodd" d="m564.288 662.368-56.433-56.434a2.062 2.062 0 0 0-2.915 2.915l56.433 56.434a2.062 2.062 0 0 0 2.915-2.915ZM588.653 637.417l-11.161-41.655a2.062 2.062 0 0 0-3.982 1.067l11.161 41.655a2.059 2.059 0 0 0 2.524 1.455 2.059 2.059 0 0 0 1.458-2.522ZM537.488 685.665l-45.014-12.061a2.06 2.06 0 0 0-1.067 3.982l45.014 12.062a2.066 2.066 0 0 0 2.526-1.458 2.064 2.064 0 0 0-1.459-2.525Z" clip-rule="evenodd" class="color3d61ff svgShape"></path><path fill="#3d9eff" fill-rule="evenodd" d="M1157.68 776.339c4.16.531 8.33.885 12.44 1.107a2.016 2.016 0 0 0 2.17-1.948c.05-1.151-.79-2.08-1.94-2.169-4.03-.177-8.06-.576-12.18-1.062-1.11-.178-2.17.619-2.3 1.77-.13 1.107.66 2.169 1.81 2.302Zm37.46.532c4.2-.443 8.36-1.018 12.39-1.771 1.15-.221 1.91-1.284 1.68-2.391-.22-1.107-1.28-1.859-2.39-1.682-3.98.752-8.01 1.328-12.08 1.726-1.15.089-1.95 1.107-1.86 2.258.13 1.107 1.15 1.948 2.26 1.86Zm-73.93-9.209c3.98 1.417 7.96 2.657 11.95 3.763 1.06.266 2.21-.354 2.52-1.461.31-1.107-.35-2.213-1.46-2.523a174.595 174.595 0 0 1-11.64-3.675c-1.06-.354-2.26.222-2.61 1.284a2.014 2.014 0 0 0 1.24 2.612Zm110.54 1.063c3.98-1.372 7.88-2.922 11.68-4.56 1.02-.487 1.51-1.682 1.07-2.744-.49-1.019-1.69-1.506-2.75-1.063a139.592 139.592 0 0 1-11.33 4.471c-1.11.398-1.64 1.549-1.28 2.656.39 1.063 1.54 1.638 2.61 1.24Zm-144.54-16.69c3.67 2.125 7.35 4.073 11.02 5.888 1.02.531 2.21.133 2.75-.885a2.133 2.133 0 0 0-.93-2.79c-3.59-1.77-7.18-3.718-10.81-5.755a2.033 2.033 0 0 0-2.79.754c-.57.973-.22 2.257.76 2.788Zm178.27.266a158.67 158.67 0 0 0 10.23-7.26c.88-.664 1.06-1.948.39-2.878a2.094 2.094 0 0 0-2.92-.354 144.53 144.53 0 0 1-9.96 6.995c-.93.62-1.24 1.903-.62 2.877.62.93 1.91 1.24 2.88.62Zm-209.26-20.851c2.88 1.903 5.75 3.94 8.63 6.065.49.31.93.664 1.42.974.93.664 2.21.487 2.87-.443.67-.93.45-2.213-.48-2.877-.44-.355-.89-.664-1.33-1.018a203.257 203.257 0 0 0-8.85-6.11c-.98-.664-2.26-.398-2.88.576-.62.93-.36 2.213.62 2.833Zm237.99-3.275c2.88-3.099 5.58-6.287 8.15-9.563.66-.886.48-2.214-.4-2.878-.89-.708-2.22-.531-2.88.355a141.13 141.13 0 0 1-7.88 9.296c-.75.841-.71 2.125.13 2.922.8.752 2.13.709 2.88-.132Zm-410.996-1.639s3.718-2.567 10.491-6.02c.974-.487 1.417-1.727.886-2.745a2.117 2.117 0 0 0-2.788-.93c-7.039 3.63-10.936 6.331-10.936 6.331-.929.619-1.195 1.903-.531 2.833.664.974 1.948 1.195 2.878.531Zm140.556-12.13c3.72 1.461 7.44 3.144 11.2 4.959 1.02.487 2.26.043 2.74-.975.49-1.018.09-2.257-.92-2.744a184.494 184.494 0 0 0-11.47-5.047 2.011 2.011 0 0 0-2.66 1.151c-.44 1.018.09 2.258 1.11 2.656Zm-107.531-3.187a163.225 163.225 0 0 1 11.732-3.364c1.107-.266 1.77-1.417 1.504-2.524-.265-1.107-1.415-1.77-2.478-1.505-4.294 1.063-8.279 2.258-12.042 3.453a2.066 2.066 0 0 0-1.328 2.612c.354 1.107 1.506 1.682 2.612 1.328Zm72.293-6.419c3.939.575 7.923 1.328 11.998 2.302 1.1.265 2.21-.443 2.48-1.55.22-1.107-.45-2.213-1.55-2.479-4.163-.974-8.281-1.726-12.309-2.345-1.151-.178-2.17.619-2.347 1.725-.177 1.151.621 2.17 1.728 2.347Zm-36.523-1.019c3.94-.354 8.012-.574 12.218-.619 1.106-.044 2.037-.974 2.037-2.081-.045-1.151-.974-2.08-2.081-2.036-4.294.044-8.5.266-12.528.62a2.022 2.022 0 0 0-1.859 2.257c.088 1.107 1.107 1.948 2.213 1.859Z" clip-rule="evenodd" class="colorab3dff svgShape"></path><path fill="#0575e6" fill-rule="evenodd" d="M898.731 1370.38c4.029.22 8.189.36 12.439.4 1.151 0 2.082-.88 2.082-2.04 0-1.15-.93-2.08-2.037-2.08-4.206-.04-8.278-.17-12.262-.4-1.151-.04-2.126.85-2.17 1.95a2.015 2.015 0 0 0 1.948 2.17Zm37.32-.44c4.073-.31 8.19-.71 12.395-1.2a2.052 2.052 0 0 0 1.814-2.3c-.133-1.1-1.15-1.95-2.301-1.81-4.118.48-8.191.88-12.219 1.19a2.048 2.048 0 0 0-1.903 2.22c.089 1.1 1.107 1.99 2.214 1.9Zm-74.418-4.34c3.985.84 8.102 1.6 12.308 2.26 1.106.18 2.169-.62 2.346-1.73a2.05 2.05 0 0 0-1.727-2.34c-4.162-.67-8.146-1.38-12.086-2.22-1.107-.22-2.214.49-2.435 1.6-.221 1.15.488 2.21 1.594 2.43Zm111.426-.57c3.984-.76 8.057-1.6 12.174-2.53a2.003 2.003 0 0 0 1.549-2.43c-.221-1.11-1.328-1.82-2.434-1.6-4.073.93-8.102 1.73-12.086 2.48-1.107.22-1.859 1.29-1.638 2.39.221 1.15 1.284 1.86 2.435 1.69Zm-147.284-10.1c3.807 1.51 7.704 2.92 11.777 4.25 1.062.36 2.212-.22 2.566-1.33a2.022 2.022 0 0 0-1.283-2.56c-3.984-1.33-7.836-2.7-11.51-4.21-1.063-.4-2.259.13-2.701 1.2-.399 1.06.089 2.25 1.151 2.65Zm183.545 1.64c3.94-1.06 7.92-2.12 11.95-3.23 1.11-.31 1.77-1.42 1.46-2.52-.31-1.11-1.46-1.78-2.52-1.47-4.03 1.11-8.02 2.17-11.96 3.19-1.1.31-1.77 1.46-1.46 2.53.31 1.1 1.42 1.77 2.53 1.5Zm35.81-9.92c3.9-1.1 7.88-2.25 11.86-3.41 1.11-.35 1.73-1.46 1.42-2.56-.31-1.11-1.46-1.73-2.57-1.42-3.98 1.15-7.92 2.3-11.86 3.45a2.027 2.027 0 0 0-1.42 2.53c.31 1.1 1.46 1.72 2.57 1.41Zm-252.733-8.58c3.409 2.16 6.993 4.25 10.756 6.33a2.09 2.09 0 0 0 2.789-.84 2.032 2.032 0 0 0-.797-2.79 202.073 202.073 0 0 1-10.579-6.2c-.974-.58-2.258-.31-2.833.66-.62.98-.31 2.26.664 2.84Zm288.373-1.82c3.89-1.15 7.88-2.35 11.82-3.54 1.1-.31 1.72-1.46 1.41-2.57-.35-1.06-1.5-1.68-2.56-1.37-3.99 1.19-7.93 2.35-11.87 3.54-1.11.31-1.73 1.46-1.37 2.52.31 1.11 1.46 1.73 2.57 1.42Zm35.54-10.58c3.94-1.2 7.89-2.35 11.87-3.54 1.06-.31 1.68-1.46 1.37-2.57-.31-1.06-1.46-1.68-2.57-1.37-3.94 1.19-7.92 2.34-11.86 3.54-1.06.31-1.68 1.46-1.37 2.52a2.063 2.063 0 0 0 2.56 1.42Zm-353.618-10.45c2.877 2.7 5.976 5.49 9.384 8.28.886.71 2.215.58 2.923-.31.708-.88.575-2.17-.266-2.88a177.21 177.21 0 0 1-9.209-8.05 2.034 2.034 0 0 0-2.921.09c-.796.79-.752 2.12.089 2.87Zm389.218-.04c3.94-1.15 7.88-2.3 11.86-3.45 1.06-.31 1.73-1.47 1.42-2.53-.31-1.1-1.46-1.72-2.57-1.41-3.98 1.15-7.92 2.25-11.86 3.4-1.11.36-1.73 1.51-1.42 2.57.31 1.11 1.46 1.73 2.57 1.42Zm35.63-10.18c3.99-1.11 7.93-2.17 11.91-3.28 1.11-.31 1.77-1.42 1.46-2.52a2.095 2.095 0 0 0-2.52-1.46c-3.98 1.1-7.97 2.21-11.95 3.32-1.11.26-1.73 1.41-1.42 2.52a2.021 2.021 0 0 0 2.52 1.42Zm-449.152-18.42s2.347 4.03 7.305 10.32c.708.88 2.035 1.01 2.921.3.885-.7 1.017-1.99.309-2.87-4.737-6.02-6.993-9.83-6.993-9.83-.575-.97-1.815-1.33-2.789-.75-1.018.57-1.328 1.86-.753 2.83Zm484.972 8.81c3.98-1.02 7.97-2.04 11.95-3.05a2.055 2.055 0 0 0 1.51-2.48c-.27-1.11-1.42-1.77-2.53-1.51-3.98.97-7.97 1.99-12 3.06-1.1.26-1.77 1.41-1.46 2.52.27 1.06 1.42 1.73 2.53 1.46Zm35.94-8.81c4.03-.93 8.06-1.86 12.05-2.74 1.15-.23 1.81-1.33 1.59-2.44a2.113 2.113 0 0 0-2.48-1.59c-3.98.88-8.01 1.81-12.09 2.74-1.1.27-1.77 1.37-1.5 2.48.22 1.11 1.33 1.77 2.43 1.55Zm218.78-9.16c3.9 1.28 7.71 2.74 11.42 4.29 1.07.44 2.26-.04 2.7-1.06.45-1.06-.04-2.26-1.1-2.7-3.77-1.64-7.7-3.1-11.69-4.43a2.02 2.02 0 0 0-2.61 1.28c-.35 1.07.22 2.26 1.28 2.62Zm-182.56 1.41c4.07-.79 8.1-1.55 12.13-2.25a2.093 2.093 0 0 0 1.68-2.4 2.091 2.091 0 0 0-2.39-1.68c-4.08.76-8.1 1.51-12.18 2.3-1.15.23-1.86 1.29-1.63 2.4.22 1.1 1.28 1.85 2.39 1.63Zm36.47-6.24c4.12-.62 8.19-1.15 12.22-1.68 1.15-.13 1.95-1.2 1.77-2.3-.13-1.15-1.15-1.95-2.3-1.77-4.07.48-8.14 1.06-12.26 1.68-1.15.13-1.9 1.19-1.77 2.3.17 1.15 1.24 1.95 2.34 1.77Zm110.32-3.27c4.12.57 8.15 1.23 12.13 1.99 1.11.22 2.17-.53 2.39-1.64.23-1.11-.53-2.21-1.63-2.44-4.03-.75-8.15-1.41-12.31-1.99-1.11-.17-2.17.62-2.3 1.77-.18 1.11.62 2.17 1.72 2.31Zm-73.57-.98c4.12-.35 8.23-.62 12.26-.84 1.15-.09 2.04-1.06 1.95-2.17a2.029 2.029 0 0 0-2.17-1.95c-4.07.23-8.24.49-12.4.84a2.074 2.074 0 0 0-1.9 2.22c.13 1.15 1.11 1.99 2.26 1.9Zm36.87-1.46c4.12 0 8.24.13 12.27.31 1.15.04 2.12-.84 2.17-1.99.04-1.11-.85-2.08-2-2.13-4.07-.17-8.23-.31-12.44-.31-1.1-.04-2.03.89-2.03 2.04-.05 1.11.88 2.04 2.03 2.08Z" clip-rule="evenodd" class="color3d61ff svgShape"></path><path fill="#3d66ff" fill-rule="evenodd" d="M871.034 1270.49c-6.419 0-11.643 5.22-11.643 11.64 0 6.47 5.224 11.69 11.643 11.69 6.464 0 11.689-5.22 11.689-11.69 0-6.42-5.225-11.64-11.689-11.64Zm0 4.12c4.206 0 7.571 3.36 7.571 7.52 0 4.21-3.365 7.57-7.571 7.57-4.161 0-7.525-3.36-7.525-7.57 0-4.16 3.364-7.52 7.525-7.52ZM1390.57 952.478c-5.04 0-9.08 4.084-9.08 9.075 0 4.992 4.04 9.076 9.08 9.076 4.99 0 9.08-4.084 9.08-9.076 0-4.991-4.09-9.075-9.08-9.075Zm0 4.135a4.95 4.95 0 0 1 4.94 4.94 4.95 4.95 0 0 1-4.94 4.942c-2.77 0-4.99-2.219-4.99-4.942 0-2.722 2.22-4.94 4.99-4.94Z" clip-rule="evenodd" class="colorff3d3d svgShape"></path><path fill="#0575e6" fill-rule="evenodd" d="m1325.57 862.717 54.54-25.233c1.02-.487 1.46-1.727 1.02-2.746-.49-1.062-1.73-1.504-2.75-1.017l-54.54 25.277c-1.02.487-1.46 1.682-.97 2.745.44 1.018 1.68 1.461 2.7.974ZM670.37 1166.61c-.692-.38-1.577-.35-2.231.15-.653.5-.922 1.35-.73 2.12l26.227 108.91c.154.61.614 1.15 1.191 1.38.615.27 1.308.23 1.846-.11l46.801-27 45.185-16.84c.731-.27 1.27-.97 1.309-1.77a2.027 2.027 0 0 0-1.038-1.96l-118.56-64.88Zm2.115 5.85 110.484 60.49-41.11 15.3c-.116.04-.193.08-.308.16l-44.531 25.72-24.535-101.67Z" clip-rule="evenodd" class="color3d61ff svgShape"></path><path fill="#3d9eff" fill-rule="evenodd" d="M1357.25 617.507c.2-.808-.09-1.617-.74-2.135a2.066 2.066 0 0 0-2.23-.161l-99.74 54.577c-.68.388-1.1 1.164-1.07 1.973.07.776.59 1.488 1.36 1.779l37.98 14.137 39.34 22.711c.55.324 1.23.388 1.84.129a1.993 1.993 0 0 0 1.17-1.423l22.09-91.587Zm-5.07 3.559s-16.83 69.717-20.39 84.372l-37.07-21.416c-.1-.065-.19-.129-.32-.162l-33.91-12.617 91.69-50.177Z" clip-rule="evenodd" class="colorab3dff svgShape"></path><path fill="#0575e6" fill-rule="evenodd" d="m743.09 1248.56-70.375-79.49c-.73-.84-2.038-.96-2.884-.19-.846.77-.961 2.08-.192 2.92l70.374 79.49c.731.85 2.038.92 2.884.15.885-.73.962-2.03.193-2.88Z" clip-rule="evenodd" class="color3d61ff svgShape"></path><path fill="#3d9eff" fill-rule="evenodd" d="m1296.11 686.934 59.17-66.87c.78-.841.68-2.135-.16-2.912-.84-.744-2.17-.647-2.91.194l-59.2 66.871c-.75.841-.68 2.167.19 2.911.84.744 2.13.68 2.91-.194Z" clip-rule="evenodd" class="colorab3dff svgShape"></path><path fill="#0575e6" fill-rule="evenodd" d="m738.938 1250.37-12.037 24.61-8.922-10.81a2.11 2.11 0 0 0-2.923-.3c-.885.73-1 2.03-.269 2.92l10.96 13.27c.461.53 1.154.8 1.846.73.692-.08 1.307-.5 1.615-1.12l13.42-27.5c.5-1 .078-2.23-.922-2.73a2.082 2.082 0 0 0-2.768.93Z" clip-rule="evenodd" class="color3d61ff svgShape"></path><path fill="#3d9eff" fill-rule="evenodd" d="m1293.33 687.646 11.32 23.099c.33.614.94 1.067 1.62 1.132.71.097 1.39-.195 1.84-.745l9.22-11.161c.72-.873.59-2.167-.29-2.879a2.02 2.02 0 0 0-2.88.259l-7.21 8.703-9.9-20.22c-.52-1.035-1.75-1.456-2.75-.97a2.103 2.103 0 0 0-.97 2.782Z" clip-rule="evenodd" class="colorab3dff svgShape"></path><path fill="#3d66ff" fill-rule="evenodd" d="M1496.29 1042.24c-1.73-6.46-8.35-10.28-14.82-8.55-24.24 6.49-79.71 21.36-103.97 27.86-6.45 1.72-10.28 8.35-8.55 14.81 4.36 16.28 12.21 45.59 16.58 61.87 1.72 6.45 8.36 10.28 14.81 8.55l103.97-27.86c6.47-1.73 10.28-8.36 8.56-14.81-4.37-16.28-12.22-45.59-16.58-61.87Z" clip-rule="evenodd" class="colorff7a3d svgShape"></path><path fill="#ffffff" fill-rule="evenodd" d="M1368.73 1068.03s45.08 18.24 64.33 26.01c5.91 2.4 12.7.58 16.61-4.45 12.74-16.31 42.5-54.43 42.5-54.43.71-.89.54-2.19-.35-2.88-.9-.7-2.2-.54-2.91.34l-42.48 54.43a10.141 10.141 0 0 1-11.83 3.17l-64.33-26.01c-1.04-.41-2.24.09-2.67 1.15-.43 1.05.08 2.26 1.13 2.67Z" clip-rule="evenodd" class="colorffffff svgShape"></path><path fill="#a3d1ff" fill-rule="evenodd" d="M1003.97 809.028s5.44 31.299 11.6 45.199c0 0-10.05 30.767 11.15 24.392 0 0 17.21 49.051 63.11 26.075l8.13 24.26 87.46-15.627-19.55-47.944-44.21-77.869-117.69 21.514Z" clip-rule="evenodd" class="colorffc8a3 svgShape"></path><path fill="#000e45" fill-rule="evenodd" d="M1118.07 813.166s-10.79 5.637-20.79 18.011c-.71.883-.59 2.18.29 2.892.92.725 2.2.582 2.91-.306 9.36-11.623 19.53-16.94 19.53-16.94 1-.529 1.41-1.772.86-2.783-.54-1.011-1.75-1.397-2.8-.874Z" clip-rule="evenodd" class="color000045 svgShape"></path><path fill="#000e45" fill-rule="evenodd" d="M1117.84 828.934s-6.61-4.079-11.56-5.669c-1.12-.351-2.27.248-2.61 1.331-.34 1.084.28 2.249 1.35 2.594 4.58 1.466 10.64 5.247 10.64 5.247.99.601 2.25.299 2.86-.664.57-.975.31-2.238-.68-2.839Z" clip-rule="evenodd" class="color000045 svgShape"></path><path fill="#000e45" fill-rule="evenodd" d="M1088.78 814.074s1.9 8.677 1.5 23.684c0 .354-.26.709-.62.886-.35.177-.75.088-1.06-.178-2.92-2.789-9.52-9.738-16.07-21.558 0 0-44.45 6.374-68-5.667l1.51 7.437s-19.171-10.049-14.745-33.113l-8.897 9.384s7.082-86.236 90.132-102.97c66.76-13.413 94.43 27.669 94.43 27.669s52.28 25.189 35.94 78.135c-13.99 45.376-20.58 52.282-32.14 78.224l-11.06 2.125-36.66-36.876s15.19-11.909 3.94-30.015c-6.15-9.872-24.75-13.856-38.2 2.833Z" clip-rule="evenodd" class="color000045 svgShape"></path><path fill="#000e45" fill-rule="evenodd" d="M1022.81 827.32s5.16-6.342 16.52-8.385c1.11-.217 1.82-1.305 1.62-2.405-.2-1.145-1.29-1.859-2.41-1.686-13.05 2.414-18.92 9.887-18.92 9.887-.72.912-.57 2.191.31 2.912.88.722 2.16.544 2.88-.323ZM1066.28 866.863s-1.72 15.442-18.53 16.334c-1.1.106-1.97 1.098-1.93 2.168.05 1.145 1.04 2.057 2.2 1.939 20.39-1.106 22.37-19.975 22.37-19.975.08-1.168-.71-2.189-1.84-2.307-1.13-.118-2.17.748-2.27 1.841Z" clip-rule="evenodd" class="color000045 svgShape"></path><path fill="#000e45" d="M1034.01 844.792a5.841 5.841 0 0 0 5-6.568 5.836 5.836 0 0 0-6.57-5.003 5.842 5.842 0 0 0-5 6.569 5.835 5.835 0 0 0 6.57 5.002Z" class="color000045 svgShape"></path><path fill="#68a8e8" fill-rule="evenodd" d="M1089.85 904.697s12.75-5.932 22.84-24.083l-3.19 40.507-14.83-1.904-4.82-14.52Z" clip-rule="evenodd" class="colore89b68 svgShape"></path><path fill="#0575e6" fill-rule="evenodd" d="m1066.16 1407.83-21.83-282.26V994.537l145.43-19.479 92.43 39.092c16.69 1.68 70.79 211.47 89.78 393.68h-305.81Z" clip-rule="evenodd" class="color3d61ff svgShape"></path><path fill="#3d66ff" fill-rule="evenodd" d="M1054.6 961.467s-1.54-21.427 16.78-33.911c18.37-12.44 131.57-44.446 182.75-25.145 19.17 7.216 23.5 25.765 30.67 52.725 3.77 14.21 1.33 18.682 12.4 38.913 11.02 20.231-6.55 38.031-29.57 37.941-23.02-.14-82.21-3.5-140.78-25.55-58.57-22.086-71.09-11.285-84.15-4.56 0 0-9.52-28.151 11.9-40.413Z" clip-rule="evenodd" class="colorff7a3d svgShape"></path><path fill="#021b79" fill-rule="evenodd" d="M1118.67 1037.86s12.17 32.89-5.32 99.29c-13.37 50.82-59.14 116.03-59.14 116.03l1.02 13.24s22.53-24.57 46.04-70.3c23.9-46.48 25.5-73.66 26.6-84.16 4.74-44.4-9.2-74.1-9.2-74.1Z" clip-rule="evenodd" class="color001c8c svgShape"></path><path stroke="#000e45" stroke-linecap="round" stroke-linejoin="round" stroke-miterlimit="1.5" stroke-width=".005" d="M475.049 1407.83H1549.95" class="colorStroke000045 svgStroke"></path><path fill="#a3d1ff" fill-rule="evenodd" d="M876.187 1001.46s-7.741-16.688-9.363-26.701c-1.623-10.059-7.881-21.046-12.516-25.681-4.45-4.45-11.868 0-11.868 0s-22.576-30.595-32.033-43.435c-2.271-3.06-6.628-3.709-9.687-1.484-3.152 2.318-3.987 6.676-1.994 10.013 7.463 12.47 24.245 40.33 24.245 40.33s-9.921 3.476-12.888 11.913c0 0-10.059 5.285-10.569 14.741 0 0-6.675 6.536-4.357 16.641 2.318 10.103 14.927 18.773 22.019 22.993 7.093 4.27 13.767 12.56 13.767 12.56l21.648-6.49 23.596-25.4Z" clip-rule="evenodd" class="colorffc8a3 svgShape"></path><path fill="#0575e6" fill-rule="evenodd" d="M899.35 1019.19c6.153.14 10.137 2 14.697 6.34 12.705 12.17 38.205 39.4 79.597 95.31 0 0 28.066-95.58 48.476-118.02 20.41-22.405 100.53 9.96 80.61 97.34-19.87 87.44-52.63 168.05-107.66 169.33-55.07 1.29-93.63-49.98-133.87-106.69-40.285-56.7-46.661-90.53-42.632-102.17 0 0 .134-.49.533-1.33-1.107-2.25-4.916-8.32-8.059-14.25-2.877-5.49-1.902-12.22 2.392-16.69 7.348-7.57 20.894-19.35 40.594-27.63a10.404 10.404 0 0 1 11.908 2.88c5.401 6.24 13.414 15.58 13.414 15.58Z" clip-rule="evenodd" class="color3d61ff svgShape"></path><path fill="#021b79" fill-rule="evenodd" d="M993.651 1120.86c8.189 11.07 15.979 31.88 23.199 63.4 0 0 5.22-45.51-19.082-76.9l-4.117 13.5Z" clip-rule="evenodd" class="color001c8c svgShape"></path><path fill="#68a8e8" fill-rule="evenodd" d="m843.065 951.775 7.745 13.993c.281.476.916.67 1.409.419.496-.294.7-.937.42-1.412l-7.794-13.99c-.28-.475-.869-.674-1.365-.38-.493.251-.696.894-.415 1.37Z" clip-rule="evenodd" class="colore89b68 svgShape"></path></svg>