<svg xmlns="http://www.w3.org/2000/svg" data-name="Layer 1" viewBox="0 0 41.87 46" id="Businesswomanholdingcheckmarkboard"><path fill="#021b79" d="M29.14,20.82c-1.07,3.22,4.21,7.35,5.35,6.59.42-.29,1-1.15-.49-3.75S29.4,20,29.14,20.82Z" class="color000100 svgShape"></path><path fill="#021b79" d="M34.12,27.61a4.36,4.36,0,0,1-2.17-1c-1.92-1.45-3.56-3.81-2.9-5.79h0c0-.13.17-.3.52-.33,1-.11,3.23.95,4.52,3.15,1.52,2.62.94,3.56.45,3.88A.7.7,0,0,1,34.12,27.61Zm-4.89-6.76h0c-.62,1.88,1,4.21,2.84,5.57,1,.78,2,1.15,2.36.91s.93-1.14-.52-3.62c-1.28-2.2-3.47-3.15-4.32-3.05C29.45,20.67,29.28,20.72,29.23,20.85Z" class="color000100 svgShape"></path><path fill="#0575e6" d="M29.14,20.82l-2.43,7.31c-1.5-3.74-2.65-5.84-5.38-7.37-5.1-2.88-6.64,4.39-4,8.69,2,3.26,4.33,9.73,8.82,9.73,4.16,0,8.32-11.77,8.32-11.77C28.16,24.75,29.14,20.82,29.14,20.82Z" class="color3577c9 svgShape"></path><path fill="#021b79" d="M26.17,39.28c-3.65,0-5.87-4.17-7.65-7.51-.44-.83-.86-1.62-1.26-2.27-1.71-2.77-1.72-6.89,0-8.66,1-1.05,2.48-1.11,4.15-.17,2.65,1.49,3.81,3.44,5.32,7.17l2.35-7a.09.09,0,0,1,.12-.06.1.1,0,0,1,.07.12s-.88,3.88,5.28,6.47a.09.09,0,0,1,.06.12C34.41,27.93,30.35,39.28,26.17,39.28Zm-7-19.08a2.42,2.42,0,0,0-1.8.78c-1.64,1.71-1.62,5.72.05,8.42.41.65.83,1.44,1.27,2.27,1.75,3.3,3.94,7.41,7.47,7.41,3.85,0,7.8-10.53,8.19-11.61-4.57-1.95-5.3-4.6-5.36-5.89l-2.19,6.59a.12.12,0,0,1-.1.06.09.09,0,0,1-.09-.06c-1.55-3.86-2.68-5.83-5.34-7.33A4.31,4.31,0,0,0,19.18,20.2Z" class="color000100 svgShape"></path><path fill="#0575e6" d="M17.62,19.52c-1.68-.11-3.87.23-3.87,5.73,0,5.14-3,17.88-.58,20.64H25.4c0-2.17-.06-18.45-1.1-21.42A7.62,7.62,0,0,0,17.62,19.52Z" class="color3577c9 svgShape"></path><path fill="#021b79" d="M17.63,19.41l-.43,0c-1.53,0-3.55.61-3.55,5.86A65.35,65.35,0,0,1,13,32.13c-.74,5.6-1.56,11.94.11,13.83l0,0H25.51v-.11c0-2.77-.08-18.52-1.11-21.45A7.74,7.74,0,0,0,17.63,19.41Zm7.66,26.37H13.22c-1.57-1.86-.76-8.11,0-13.62a63.21,63.21,0,0,0,.68-6.91c0-5.46,2.13-5.72,3.76-5.62a7.53,7.53,0,0,1,6.58,4.88C25.2,27.37,25.31,42.73,25.29,45.78Z" class="color000100 svgShape"></path><path fill="#021b79" d="M20.94,21.37l0,0a3.74,3.74,0,0,0-2.71-1.73v.22a3.5,3.5,0,0,1,2.5,1.59l-1.25,5.46,1.31,1.58a33.3,33.3,0,0,0-2.48,5.76l.21,0A34.13,34.13,0,0,1,21,28.49l0-.06-1.35-1.62Z" class="color000100 svgShape"></path><path fill="#ffffff" d="M16.8,15.72l-5-2.08a13.74,13.74,0,0,1-.57,5.73c4.76,3.06,6,.62,6,.62A8.48,8.48,0,0,1,16.8,15.72Z" class="colorffffff svgShape"></path><path fill="#021b79" d="M15.33,21a8.09,8.09,0,0,1-4.11-1.57.1.1,0,0,1,0-.12,13.56,13.56,0,0,0,.56-5.68.1.1,0,0,1,.14-.1l5,2.07a.13.13,0,0,1,.06.11A8.45,8.45,0,0,0,17.37,20a.07.07,0,0,1,0,.09,2,2,0,0,1-1.24.87A3,3,0,0,1,15.33,21Zm-3.94-1.7c2.41,1.54,3.88,1.62,4.68,1.4a1.89,1.89,0,0,0,1.1-.73,8.4,8.4,0,0,1-.48-4.21L12,13.8A13.91,13.91,0,0,1,11.39,19.32Z" class="color000100 svgShape"></path><path fill="#021b79" d="M17.62,19.52a3.62,3.62,0,0,1-.4-1.52,9.14,9.14,0,0,1-6-.65,11.23,11.23,0,0,1-.66,2.75C8,24.43,6.19,43.79,5.87,45.89H17.6c0-1,.71-10.52.64-11.72C18,30,20.25,25.55,17.62,19.52Z" class="color000100 svgShape"></path><path fill="#021b79" d="M17.6,46H5.87a.11.11,0,0,1-.08,0,.1.1,0,0,1,0-.09c.05-.34.15-1.16.27-2.29.69-6,2.28-19.9,4.46-23.53a11.35,11.35,0,0,0,.64-2.72.13.13,0,0,1,0-.07.09.09,0,0,1,.1,0,9,9,0,0,0,5.91.64.15.15,0,0,1,.09,0,.12.12,0,0,1,0,.09,3.59,3.59,0,0,0,.4,1.47C19.5,23.58,19,27,18.64,30a22.49,22.49,0,0,0-.3,4.18c0,.72-.2,4.49-.4,7.51-.13,2-.24,3.82-.24,4.21a.1.1,0,0,1-.1.1ZM6,45.79H17.5c0-.54.12-2.21.25-4.12.19-3,.43-6.78.39-7.49a22.85,22.85,0,0,1,.3-4.22c.4-3,.85-6.36-.91-10.4h0a4.33,4.33,0,0,1-.4-1.43,9.33,9.33,0,0,1-5.81-.63,10.55,10.55,0,0,1-.65,2.65C8.51,23.75,6.92,37.66,6.24,43.6,6.13,44.62,6,45.39,6,45.79Z" class="color000100 svgShape"></path><path fill="#0575e6" d="M18.62,35.39c.14-3.35-5.16-10.82-7.9-15.69a21,21,0,0,0-4.81,1.82c-1.61,1.15-1.49,5.26-1.49,7.35,0,5.48.16,14.84.42,17H18.71S18.46,39.35,18.62,35.39Z" class="color3577c9 svgShape"></path><path fill="#021b79" d="M18.73,35.39c.11-2.55-2.89-7.45-5.54-11.77-.88-1.43-1.7-2.77-2.38-4l0-.07-.08,0a20.35,20.35,0,0,0-4.84,1.83c-1.56,1.11-1.55,4.8-1.54,7v.43c0,6.3.19,14.93.45,17V46H18.83v-.11C18.82,45.82,18.57,39.31,18.73,35.39ZM5,45.78c-.24-2.25-.43-10.71-.43-16.91v-.43c0-2.16,0-5.79,1.44-6.83a20.12,20.12,0,0,1,4.69-1.78c.67,1.18,1.48,2.5,2.34,3.9,2.63,4.3,5.62,9.16,5.51,11.65-.15,3.64.06,9.51.09,10.4Z" class="color000100 svgShape"></path><path fill="#ffffff" d="M11,44.14a4.87,4.87,0,0,1-1.81-1c-1.09-.89-3.75.42-3.47,1.24a13.72,13.72,0,0,0,.64,1.55H13A4.57,4.57,0,0,0,11,44.14Z" class="colorffffff svgShape"></path><path fill="#021b79" d="M11,44a4.61,4.61,0,0,1-1.78-1,1.61,1.61,0,0,0-1-.32,3.51,3.51,0,0,0-2.47,1.1.64.64,0,0,0-.13.59,14.09,14.09,0,0,0,.64,1.56.11.11,0,0,0,.1.06H13a.1.1,0,0,0,.09-.06.11.11,0,0,0,0-.11A4.63,4.63,0,0,0,11,44ZM6.43,45.78a14.61,14.61,0,0,1-.61-1.47.46.46,0,0,1,.11-.39,3.2,3.2,0,0,1,2.29-1,1.39,1.39,0,0,1,.89.26A4.92,4.92,0,0,0,11,44.25a4.1,4.1,0,0,1,1.81,1.53Z" class="color000100 svgShape"></path><path fill="#0575e6" d="M10,26.18c0-5.86-3.47-6.65-6.46-2.57-1.9,2.6-3,8.51-3.41,13-.4,4.71,4.57,9.29,4.57,9.29,2.85,0,6.17-3.11,6.17-3.11l-4.15-6.5A18.89,18.89,0,0,0,10,26.18Z" class="color3577c9 svgShape"></path><path fill="#021b79" d="M6.86,36.28A15.84,15.84,0,0,0,8.32,33c.21-.57.41-1.12.58-1.5a.1.1,0,0,0-.05-.14.11.11,0,0,0-.15.05c-.17.39-.37.94-.59,1.52a15.16,15.16,0,0,1-1.47,3.27.11.11,0,0,0,0,.12l4.1,6.43c-.47.44-3.42,3-6,3h0C4.33,45.39-.13,41,.24,36.61S1.72,26.29,3.63,23.68C4.82,22,6.17,21.13,7.31,21.17a.09.09,0,0,0,.11-.1A.11.11,0,0,0,7.31,21c-1.23,0-2.6.87-3.86,2.59C1.51,26.2.39,32.23,0,36.59-.38,41.3,4.58,45.92,4.63,46a.11.11,0,0,0,.07,0h.07c2.84,0,6-3,6.18-3.14a.11.11,0,0,0,0-.14Z" class="color000100 svgShape"></path><path fill="#021b79" d="M5.56,35.43v.22a1.2,1.2,0,0,1,1,.49s0,.09,0,.11-.08,0-.2,0a3.53,3.53,0,0,0-1.8.54l.12.18a3.56,3.56,0,0,1,1.65-.51.41.41,0,0,0,.41-.12.3.3,0,0,0,0-.34A1.42,1.42,0,0,0,5.56,35.43Z" class="color000100 svgShape"></path><path fill="#ffffff" d="M19.54,8.16c-.12-1.32-.92-3.79-4.74-2.36-4.68,1.75-3.05,5.27-3.05,5.27-.94.37-1.09,1.34-.61,2.29a1.41,1.41,0,0,0,1.24.76c1.45,3.51,5.14,3.66,6.12,2.34a9.87,9.87,0,0,0,1.81-4.82C20.25,10.55,19.65,9.38,19.54,8.16Z" class="colorffffff svgShape"></path><path fill="#021b79" d="M20,9.9a9.61,9.61,0,0,1-.39-1.75,2.82,2.82,0,0,0-2.8-2.89,6.12,6.12,0,0,0-2.09.44,5,5,0,0,0-3.14,2.61,3.72,3.72,0,0,0,0,2.7,1.4,1.4,0,0,0-.75.78,2,2,0,0,0,.19,1.62,1.5,1.5,0,0,0,1.26.82,4.7,4.7,0,0,0,4.28,3.1,2.47,2.47,0,0,0,2-.81,10.09,10.09,0,0,0,1.83-4.89A8.18,8.18,0,0,0,20,9.9Zm-1.63,6.49a2.25,2.25,0,0,1-1.82.72,4.52,4.52,0,0,1-4.11-3l0-.06h-.08a1.3,1.3,0,0,1-1.13-.7,1.85,1.85,0,0,1-.17-1.46,1.17,1.17,0,0,1,.72-.69l.11-.05-.05-.1a3.53,3.53,0,0,1,0-2.63,4.85,4.85,0,0,1,3-2.49,5.88,5.88,0,0,1,2-.42,2.61,2.61,0,0,1,2.58,2.69,9.68,9.68,0,0,0,.4,1.79,8,8,0,0,1,.37,1.68A9.79,9.79,0,0,1,18.41,16.39Z" class="color000100 svgShape"></path><path fill="#021b79" d="M16.43 9.68a2.73 2.73 0 00-1.59 1.18.11.11 0 000 .15l.06 0A.12.12 0 0015 11 2.44 2.44 0 0116.48 9.9a.1.1 0 00.08-.13A.11.11 0 0016.43 9.68zM18 9.33a.12.12 0 00-.1.12.11.11 0 00.12.1 2.23 2.23 0 011.35.33.11.11 0 00.07 0 .12.12 0 00.09 0 .11.11 0 000-.15A2.45 2.45 0 0018 9.33zM16.09 13.62s-.11 1.45 1.23 1.43 1.37-1.61 1.37-1.61A6.14 6.14 0 0116.09 13.62zM18.11 11.66c-.19 0-.38.13-.56.4a.11.11 0 000 .16l.06 0a.12.12 0 00.09-.05c.13-.2.27-.32.37-.31s.2.14.2.14a.1.1 0 00.15 0 .11.11 0 000-.15A.5.5 0 0018.11 11.66zM12.34 12.1a.92.92 0 00-.68.34l.16.14s.25-.28.5-.26a.42.42 0 01.32.26l.19-.11A.65.65 0 0012.34 12.1z" class="color000100 svgShape"></path><path fill="#021b79" d="M16.54,3.14s-3.18-3-7.4,1.43c-3.57,3.74-.81,8.59,1,9.53a2.48,2.48,0,0,0,2.25,0c-.9-.12-2.59-1.78-.63-3,0,0-.14-1.43-.11-1.45s.3,1.32.35,1.29c1.77-1.11,2.37-1,2.37-1a8,8,0,0,1,.84-1.68,9.67,9.67,0,0,1-.26,1.4l1-.41a6.76,6.76,0,0,0,.77-2.91,3.33,3.33,0,0,1,.92,2.34c1.25-1,1.94-.45,1.94-.45s1.08,1.09,1.15-.5S19.83,2.41,16.54,3.14Z" class="color000100 svgShape"></path><path fill="#021b79" d="M15.69 11a.28.28 0 00-.11.37.26.26 0 00.37.05.25.25 0 00.11-.36A.26.26 0 0015.69 11zM18.64 10.32a.26.26 0 00-.1.36.26.26 0 00.37.06.29.29 0 00.11-.37A.28.28 0 0018.64 10.32zM7.55.06c-3.19.6-4.46 5.08-1.29 5.2s1.9-2.78 4.87-1.34C11.13 3.92 10.75-.54 7.55.06zM26.7 28c-.5 0-.57 2.27-.57 3.6h.21a8.9 8.9 0 01.37-3.38.06.06 0 010 0A4.8 4.8 0 0127 30.35h.22c0-.2.05-1.91-.31-2.26A.27.27 0 0026.7 28zM17 32.9c-1.38-1.24-3.5-3.62-3.83-4l.54-1.56L8.56 21.61c0-.18 0-1.15 1.94-1.74l-.06-.21c-2.31.71-2.1 2-2.09 2v0l5.08 5.69L12.89 29l0 .05s2.38 2.7 3.89 4.05a4.46 4.46 0 011.32 3.35l.22 0A4.56 4.56 0 0017 32.9zM17.32 36.19a.58.58 0 10.58.58A.58.58 0 0017.32 36.19zM17.32 41.74a.57.57 0 10.58.57A.57.57 0 0017.32 41.74z" class="color000100 svgShape"></path><path fill="#0575e6" d="M11.12,5a23.6,23.6,0,0,0-.89,3.78C11.86,3,16.55,3.07,16.55,3.07,15.06,1.17,12.05,2.23,11.12,5Z" class="color3577c9 svgShape"></path><path fill="#021b79" d="M10.23,8.85h0a.09.09,0,0,1-.08-.11,23.23,23.23,0,0,1,.9-3.8,4.18,4.18,0,0,1,3.08-2.89,2.56,2.56,0,0,1,2.52,1,.14.14,0,0,1,0,.11.11.11,0,0,1-.09,0h0s-4.63,0-6.23,5.61A.09.09,0,0,1,10.23,8.85ZM11.12,5l.1,0a19.89,19.89,0,0,0-.67,2.51A7,7,0,0,1,16.34,3a2.31,2.31,0,0,0-2.19-.73A4,4,0,0,0,11.22,5Z" class="color000100 svgShape"></path><path fill="#ffffff" d="M36.65,18.59c-.16-.39-.33-.47-1.37-.47a4.21,4.21,0,0,0-1.28.2s.45-.86,1.13-.91c1-.07,1.67-1.23.47-1a5.59,5.59,0,0,0-3,1.87c-.66.76-.9,3.73-2.13,5.55a3.93,3.93,0,0,0,.68,1.1,3.68,3.68,0,0,0,1.21.79c.5-.84,1.27-1.61,2-2.65.32-.47.18-.61.63-.4a1.42,1.42,0,0,0,1.43-.29,2.11,2.11,0,0,0,.32-.88,1.37,1.37,0,0,0,.1-.31,2.29,2.29,0,0,0,0-1.29C36.61,19.23,36.81,19,36.65,18.59Z" class="colorffffff svgShape"></path><path fill="#021b79" d="M32.38,25.78h0A3.68,3.68,0,0,1,31.1,25a4.2,4.2,0,0,1-.71-1.13.11.11,0,0,1,0-.1,12.06,12.06,0,0,0,1.38-3.52,6.05,6.05,0,0,1,.77-2,5.82,5.82,0,0,1,3-1.9c.34-.05.57,0,.69.14a.38.38,0,0,1,0,.39,1.43,1.43,0,0,1-1.16.71,1.39,1.39,0,0,0-.9.64A4.37,4.37,0,0,1,35.28,18c1.06,0,1.28.08,1.46.53a1.34,1.34,0,0,1,.08.54,1.83,1.83,0,0,0,.1.74,1.79,1.79,0,0,1,0,1.06,1.27,1.27,0,0,0,0,.26,1.41,1.41,0,0,1-.1.34,2.18,2.18,0,0,1-.34.91,1.52,1.52,0,0,1-1.56.32.68.68,0,0,0-.23-.08.48.48,0,0,0-.08.12,3,3,0,0,1-.18.33c-.33.48-.67.91-1,1.32a12,12,0,0,0-1,1.32A.11.11,0,0,1,32.38,25.78Zm-1.78-2a3.53,3.53,0,0,0,.65,1,3.41,3.41,0,0,0,1.09.73c.27-.42.6-.84.94-1.27a16,16,0,0,0,1-1.31,1.8,1.8,0,0,0,.18-.3c.13-.27.22-.29.57-.13a1.34,1.34,0,0,0,1.31-.26,2,2,0,0,0,.3-.83,0,0,0,0,0,0,0,1.52,1.52,0,0,0,.09-.28,1.45,1.45,0,0,1,0-.29,1.53,1.53,0,0,0,0-1,2,2,0,0,1-.11-.8,1.19,1.19,0,0,0-.06-.46c-.13-.32-.21-.41-1.28-.41a4.41,4.41,0,0,0-1.25.19.08.08,0,0,1-.1,0,.11.11,0,0,1,0-.12s.49-.9,1.21-1a1.23,1.23,0,0,0,1-.59s0-.14,0-.19-.13-.12-.5-.06a5.56,5.56,0,0,0-2.92,1.84,5.92,5.92,0,0,0-.73,2A12.79,12.79,0,0,1,30.6,23.8Z" class="color000100 svgShape"></path><path fill="#021b79" d="M35.13,19.79c-.58,0-.64-.12-.64-.15s.57-.6,1.15-.91l-.07-.15c-.32.16-1.34.72-1.25,1.1,0,.19.3.28.81.28,1.5,0,1.66-1,1.66-1l-.16,0S36.48,19.79,35.13,19.79Z" class="color000100 svgShape"></path><path fill="#021b79" d="M35.34,21.12c-.53,0-.85-.1-.94-.3s.21-.69.35-.83l-.13-.12s-.56.59-.37,1,.48.41,1.09.41c1.5,0,1.67-1,1.67-1l-.17,0S36.7,21.12,35.34,21.12Z" class="color000100 svgShape"></path><path fill="#021b79" d="M35.24,22.08c-.6,0-.72-.14-.74-.2s.19-.39.28-.47l-.11-.13s-.43.37-.33.66.37.31.9.31a1.81,1.81,0,0,0,1.65-.95l-.15-.08A1.66,1.66,0,0,1,35.24,22.08Z" class="color000100 svgShape"></path><path fill="#50a7fe" d="M35.18,21.39h0a.76.76,0,0,1-.76-.76V14a.77.77,0,0,1,.76-.77h0A.77.77,0,0,1,36,14v6.64A.76.76,0,0,1,35.18,21.39Z" class="colorfeb850 svgShape"></path><path fill="#021b79" d="M35.18,21.44a.81.81,0,0,1-.81-.81V14a.82.82,0,0,1,.81-.82A.82.82,0,0,1,36,14v6.64A.82.82,0,0,1,35.18,21.44Zm0-8.16a.71.71,0,0,0-.71.71v6.64a.72.72,0,0,0,1.43,0V14A.71.71,0,0,0,35.18,13.28Z" class="color000100 svgShape"></path><path fill="#ffffff" d="M35.18,3.52a5.11,5.11,0,1,0,5.11,5.11A5.1,5.1,0,0,0,35.18,3.52Z" class="colorffffff svgShape"></path><path fill="#021b79" d="M35.18,13.79a5.16,5.16,0,1,1,5.16-5.16A5.16,5.16,0,0,1,35.18,13.79Zm0-10.21a5.05,5.05,0,1,0,5.06,5.05A5.06,5.06,0,0,0,35.18,3.58Z" class="color000100 svgShape"></path><polygon fill="#456cfd" points="34.25 12.11 31.24 9.1 32.5 7.84 34.25 9.59 37.87 5.97 39.13 7.23 34.25 12.11" class="colorfd6445 svgShape"></polygon><path fill="#50a7fe" d="M35.18,2a6.64,6.64,0,1,0,6.64,6.64A6.63,6.63,0,0,0,35.18,2Zm0,11.75a5.11,5.11,0,1,1,5.11-5.11A5.1,5.1,0,0,1,35.18,13.74Z" class="colorfeb850 svgShape"></path><path fill="#021b79" d="M35.18,15.32a6.69,6.69,0,1,1,6.69-6.69A6.69,6.69,0,0,1,35.18,15.32ZM35.18,2a6.59,6.59,0,1,0,6.59,6.59A6.59,6.59,0,0,0,35.18,2Zm0,11.75a5.16,5.16,0,1,1,5.16-5.16A5.16,5.16,0,0,1,35.18,13.79Zm0-10.21a5.05,5.05,0,1,0,5.06,5.05A5.06,5.06,0,0,0,35.18,3.58Z" class="color000100 svgShape"></path><path fill="#ffffff" d="M35,16.49c-.22,0-.16,1-.41,1.3s-1.27,1.77-1.27,1.77l.17,3.2c2.09-1.44.84-3,2-4.57A1.25,1.25,0,0,0,35,16.49Z" class="colorffffff svgShape"></path><path fill="#021b79" d="M35,16.41c-.18,0-.22.27-.28.63a1.84,1.84,0,0,1-.19.7c-.25.27-1.23,1.71-1.28,1.78l.14.09s1-1.49,1.27-1.76a1.8,1.8,0,0,0,.23-.78,1.48,1.48,0,0,1,.12-.49,1,1,0,0,1,.41.48,1,1,0,0,1,0,1.08,3.69,3.69,0,0,0-.6,2,2.94,2.94,0,0,1-1.35,2.58l.1.13A3.08,3.08,0,0,0,35,20.14a3.41,3.41,0,0,1,.57-1.9,1.24,1.24,0,0,0,0-1.34C35.41,16.64,35.19,16.4,35,16.41Z" class="color000100 svgShape"></path></svg>