<svg xmlns="http://www.w3.org/2000/svg" enable-background="new 0 0 600 600" viewBox="0 0 600 600" id="CardPayment"><g fill="#000000" class="color000000 svgShape"><path fill="#e9f4ff" d="M173.5 474.6c0 4.4-.7 8.6-2 12.5h-60.6c-.2-.2-.4-.4-.6-.5-1.2-3.8-1.9-7.8-1.9-12 0-19.9 14.6-36.1 32.6-36.1s32.5 16.2 32.5 36.1zM506 181.9c0-6.7 1.6-12.9 4.5-18.2 15.2 12.8 27.2 32.1 34.7 53.6-2.1.5-4.3.8-6.6.8-18-.1-32.6-16.3-32.6-36.2z" class="colorfff6e9 svgShape"></path><path fill="#e9f4ff" d="M547.3 367c-4.2 24.9-9.1 50.1-19.2 72.4-11.9 26.5-23 39.2-40.1 48H180.7c1-4 1.6-8.2 1.6-12.5 0-25.1-18.4-45.5-41-45.5s-41 20.4-41 45.5c0 1 0 1.9.1 2.9-20.4-19.9-36.6-46.5-46.1-76.5-11.7-36.9-13.2-78.5-4.3-116.6 9.8-41.9 35.3-81.3 70-89.3 24.9-5.8 50.1 5 74.8 11.9 49 13.6 100.6 11.7 148.9-4.9 22.4-7.7 44.8-17.4 65-31 22-14.7 46.9-27.4 72.5-22.3 8 1.6 15.6 4.9 22.6 9.6-3.8 6.9-5.9 14.9-5.9 23.5 0 25.1 18.4 45.5 41 45.5 3.2 0 6.4-.4 9.4-1.2 1 3.7 2 7.4 2.7 11.1 9 42.1 3.6 86.8-3.7 129.4z" class="colorfff6e9 svgShape"></path><path fill="#e9f4ff" d="M202 134.4c-6.1 3.5-12.2 7.6-16.7 13.8-4.6 6.1-7.4 14.7-6 22.7 2.1 12 12.5 18.6 22.1 21.8 27.5 9.3 58.2 4.1 83-14 9.6-7 18.7-16.4 22.5-29.3 3.2-10.8 1.7-26.2-6.1-33.5-6.4-5.9-18.6-3.5-26.1-3.2-25 1.1-49.9 8.4-72.7 21.7z" class="colorfff6e9 svgShape"></path><path fill="#c8e3ff" d="m348.1 227.5-10.7-11.3-22.9-23.1-10.4 1.2s-.1 0-.2.1c-.8.5-3.5 2.4-3.1 7 .1.8.2 1.7.5 2.6 0 0-1 6.2 2 12.9 2.5 5.8 7.9 11.9 19.1 15 .1 0 .2.1.3.1 0 0 8.4 11.2 18 21.6l7.4-26.1z" class="colorffd8c8 svgShape"></path><path fill="#7cbdfe" d="M304.4 218c-.4-.3-.8-.7-1.1-1.1 2.5 5.8 7.9 11.9 19.1 15 .3-.6.6-1.3.9-1.9.3-.6.5-1.2.6-1.8.1-.6 0-1.3-.4-1.8-.6-.6-1.5-.8-2.3-.9-6.2-.9-12.1-3.5-16.8-7.5z" class="colorfe8d7c svgShape"></path><path d="M340.8 253.9c-.1 0-.1 0-.2-.1-9.1-9.9-17.3-20.6-18-21.6-23.9-6.5-21.7-27-21.5-28.2-.3-.9-.4-1.8-.5-2.6-.4-4.6 2.4-6.7 3.2-7.2l.2-.1h.1l10.3-1.2c.1 0 .2 0 .2.1l22.9 23.1.1.1 10.6 11.2c.1.1.1.2.1.2l-7.3 26.1c0 .1-.1.2-.2.2zm-36.6-59.3s-.1 0-.2.1c-.8.5-3.3 2.4-3 6.7.1.8.2 1.7.5 2.6v.1c0 .2-3 21.2 21.3 27.7.1 0 .1 0 .1.1.1.1 8.3 11 17.7 21.3l7.2-25.6-10.6-11.2s0-.1-.1-.1l-22.8-22.9-10.1 1.2z" fill="#000000" class="color000000 svgShape"></path><path fill="#214ffd" d="m307 212.2 21.3.9c2.4.1 4.4-1.7 4.5-4.1l1.5-34.6c.1-2.4-1.7-4.4-4.1-4.5l-21.3-.9c-2.4-.1-4.4 1.7-4.5 4.1l-1.5 34.6c-.1 2.3 1.7 4.3 4.1 4.5z" class="colorfdd621 svgShape"></path><g opacity=".3" fill="#000000" class="color000000 svgShape"><path fill="#ffffff" d="M306.4 178.2c.3 0 .6-.2.6-.5l.1-3c.1-1.5 1.3-2.6 2.8-2.6l2.2.1c.3 0 .6-.2.6-.5s-.2-.6-.5-.6l-2.2-.1c-2.1-.1-3.9 1.5-4 3.7l-.1 3c-.1.2.2.5.5.5z" class="colorffffff svgShape"></path></g><path d="M321.9 169.6h6.5v43.3h-6.5z" transform="matrix(-.9991 -.04296 .04296 -.9991 641.84 396.356)" fill="#000000" class="color000000 svgShape"></path><path d="M328.4 213.3h-.2l-21-.9c-2.6-.1-4.6-2.3-4.5-4.9l1.5-34.3c.1-2.6 2.3-4.6 4.9-4.5l21 .9c1.3.1 2.4.6 3.3 1.5.9.9 1.3 2.1 1.2 3.4l-1.5 34.3c-.1 2.5-2.2 4.5-4.7 4.5zm-21.2-1.4 21 .9c2.3.1 4.3-1.7 4.4-4l1.5-34.3c0-1.1-.3-2.2-1.1-3s-1.8-1.3-2.9-1.4l-21-.9c-2.3-.1-4.3 1.7-4.4 4l-1.5 34.3c0 1.1.3 2.2 1.1 3s1.7 1.4 2.9 1.4z" fill="#000000" class="color000000 svgShape"></path><path fill="#ffffff" d="M326.1 188.7c-.3 0-.5-.2-.5-.5l.4-9.6c0-.3.3-.5.5-.5.3 0 .5.2.5.5l-.4 9.6c0 .3-.2.5-.5.5zM326.6 176.9c-.3 0-.5-.2-.5-.5l.1-2.9c0-.3.3-.5.5-.5.3 0 .5.2.5.5l-.1 2.9c0 .3-.2.5-.5.5z" class="colorffffff svgShape"></path><path fill="#ffffff" d="M306.6 199.3h6.2v8.5h-6.2z" transform="matrix(-.9991 -.04296 .04296 -.9991 610.419 420.328)" class="colorffffff svgShape"></path><path fill="#c8e3ff" d="M326.4 220.4s-2.5-11.4-2.3-15.2c.2-4 2.5-15.9 6.9-14.6 4.2 1.2 2.8 8.5 3.1 11.2 1.2 8.6 3.3 14.4 3.3 14.4" class="colorffd8c8 svgShape"></path><path d="M326.4 220.7c-.1 0-.2-.1-.2-.2-.1-.5-2.5-11.5-2.3-15.3.1-2.9 1.6-12.1 4.9-14.4.7-.5 1.5-.7 2.3-.4 3.4 1 3.3 5.5 3.3 8.9 0 1 0 1.9.1 2.6 1.2 8.5 3.3 14.3 3.3 14.4 0 .1 0 .3-.2.3-.1 0-.3 0-.3-.2 0-.1-2.1-5.9-3.3-14.5-.1-.7-.1-1.6-.1-2.6 0-3.2.1-7.5-2.9-8.4-.6-.2-1.2-.1-1.8.4-2.9 2.1-4.5 10.8-4.7 14-.2 3.8 2.3 15 2.3 15.2-.1 0-.2.1-.4.2z" fill="#000000" class="color000000 svgShape"></path><path fill="#c8e3ff" d="M301.3 204c.9-.2 7.4 1.8 7.4 1.8s3.7 1.5 4.4-1c1.7-5.4-8.9-10.3-9.2-10.4-.9.6-4.5 3.2-2.6 9.6z" class="colorffd8c8 svgShape"></path><path d="M310.8 206.5c-1.1 0-2.2-.4-2.3-.5-2.5-.8-6.6-1.9-7.2-1.8-.1 0-.3-.1-.3-.2-1.9-6.7 2-9.4 2.7-9.9H304c.5.2 11 5.2 9.3 10.7-.2.6-.6 1.1-1.1 1.3-.4.4-.9.4-1.4.4zm-9.3-2.7c1.4.1 6.6 1.7 7.2 1.8 0 0 2 .8 3.3.2.4-.2.7-.5.9-1 1.5-4.9-7.7-9.5-8.9-10.1-1.1.7-4.1 3.2-2.5 9.1z" fill="#000000" class="color000000 svgShape"></path><path fill="#c8e3ff" d="M304 213.6s6.8 3.3 9.2 1.7-2.3-9.7-5.8-11.4c-2.5-1.2-6.1.1-6.1.1.6 3.9.5 7.5 2.7 9.6z" class="colorffd8c8 svgShape"></path><path d="M311.3 216c-3 0-7.3-2-7.5-2.2-.1-.1-.2-.2-.1-.3.1-.1.2-.2.3-.1.1 0 6.7 3.2 8.9 1.7.4-.3.6-.8.5-1.5-.2-3-3.6-8.2-6.3-9.5-2.4-1.2-5.8.1-5.9.1-.1.1-.3 0-.3-.1s0-.3.1-.3c.1-.1 3.7-1.4 6.3-.1 2.7 1.3 6.3 6.8 6.5 9.9.1.9-.2 1.6-.7 2-.3.3-1 .4-1.8.4zM473.7 487.6c-.1 0-.2-.1-.2-.2l-4.9-19.3c0-.1 0-.3.2-.3.1 0 .3 0 .3.2l4.9 19.3c0 .1-.1.2-.3.3.1 0 .1 0 0 0zM464.9 452.7c-.1 0-.2-.1-.2-.2l-20.6-80.6c0-.1 0-.3.2-.3.1 0 .3 0 .3.2l20.6 80.6c-.1.1-.1.3-.3.3zM370.5 447.2c-.2 0-.3-.2-.2-.3l19.2-75.1c0-.1.2-.2.3-.2.1 0 .2.2.2.3L370.8 447c-.1.2-.2.2-.3.2z" fill="#000000" class="color000000 svgShape"></path><path fill="#ffffff" d="M489 235.7 472.9 366h-18.3l16.1-130.3c0-5.1 4.1-9.2 9.2-9.2 5 0 9.1 4.1 9.1 9.2z" class="colorffffff svgShape"></path><path fill="#ffffff" d="M479.8 226.5c-5.1 0-9.2 4.1-9.2 9.2l-16 130.3h-64.2l13.3-125.7c.3-3.3 1.7-6.2 3.7-8.5 2.8-3.3 7.1-5.3 11.7-5.3h60.7z" class="colorffffff svgShape"></path><g opacity=".3" fill="#000000" class="color000000 svgShape"><path fill="#ffffff" d="M451.2 236.5h-20.1c-.9 0-1.5-.7-1.5-1.5 0-.9.7-1.5 1.5-1.5h20.1c.9 0 1.5.7 1.5 1.5 0 .9-.7 1.5-1.5 1.5z" class="colorffffff svgShape"></path></g><g opacity=".3" fill="#000000" class="color000000 svgShape"><path fill="#ffffff" d="M463.6 236.5H457c-.9 0-1.5-.7-1.5-1.5 0-.9.7-1.5 1.5-1.5h6.6c.9 0 1.5.7 1.5 1.5 0 .9-.7 1.5-1.5 1.5z" class="colorffffff svgShape"></path></g><path d="M472.9 366.3h-18.3c-.1 0-.1 0-.2-.1 0-.1-.1-.1-.1-.2l16.1-130.3c0-5.2 4.2-9.4 9.4-9.4s9.4 4.2 9.4 9.4L473.1 366c0 .2-.1.3-.2.3zm-18.1-.5h17.8l16.1-130.1c0-4.9-4-8.9-8.9-8.9s-8.9 4-8.9 8.9l-16.1 130.1zM489 235.7z" fill="#000000" class="color000000 svgShape"></path><path d="M454.6 366.3h-64.2c-.1 0-.1 0-.2-.1 0-.1-.1-.1-.1-.2l13.3-125.7c.8-8 7.6-14.1 15.6-14.1h60.8c.1 0 .3.1.3.3s-.1.3-.3.3c-4.9 0-8.9 4-8.9 8.9l-16.1 130.4c0 .1-.1.2-.2.2zm-63.9-.5h63.7l16.1-130.1c0-4.1 2.7-7.6 6.4-8.9h-57.7c-7.8 0-14.3 5.9-15.1 13.6l-13.4 125.4z" fill="#000000" class="color000000 svgShape"></path><path fill="#ffffff" d="M369.6 366h108v5.8h-108z" class="colorffffff svgShape"></path><path d="M466.5 372.1h-96.9c-.1 0-.3-.1-.3-.3V366c0-.1.1-.3.3-.3H483c.1 0 .3.1.3.3s-.1.3-.3.3H369.8v5.3h96.7c.1 0 .3.1.3.3s-.1.2-.3.2z" fill="#000000" class="color000000 svgShape"></path><path fill="#c8e3ff" d="m325.6 434-.5 5-.3 2.7-.9 8.6-2.1 20-29.8-2.7-3.3-9-4.2-10.9 2.6-13.7z" class="colorffd8c8 svgShape"></path><path fill="#040819" d="m325.6 434-.5 5.1-.3 2.7c-5.7 1.9-12 2.2-17.9 1-4.9-1-9.6-2.8-13.9-5.3-1.4-.8-4.1-2-5.9-3.5h38.5zM321.9 470.3l-29.8-2.7-3.4-9c10.4 1.2 21.1-.5 30.7-4.7 1.8-.8 3.7-1.8 4.5-3.6h.1l-2.1 20z" class="color19040f svgShape"></path><path fill="#040819" d="M321.7 470.6h-.2c-3.6-.6-7.4-.8-11.1-1-6.2-.4-12.6-.8-18.6-2.7h-.1v-.1c-.9-2.8-2.1-5.4-3.3-8-1.6-3.6-3.3-7.4-4.2-11.3 0-1.8.5-3.6 1-5.3.3-1.2.7-2.4.9-3.6 0-.1.1-.2.3-.2.1 0 .2.1.2.3-.2 1.2-.5 2.5-.9 3.7-.5 1.7-1 3.4-1 5.1.9 3.8 2.4 7.4 4.1 11.2 1.1 2.6 2.3 5.2 3.2 7.9 6 1.8 12.3 2.2 18.4 2.6 3.6.2 7.4.5 10.9 1 1.3-7.3 2-15.1 2.7-22.6l.2-2.4c0-.1.1-.2.3-.2.1 0 .2.1.2.3l-.2 2.4c-.7 7.6-1.4 15.5-2.8 22.9z" class="color19040f svgShape"></path><path fill="#486bee" d="M326.5 480.4c.5 3.8.9 6.8.9 6.8l-84.5.3s-.5-3 .6-6.8c.8-2.7 2.4-5.7 5.6-8.4 1.4-1.2 3.1-2.2 5.1-3.2 11.8-5.5 20-4.2 23.1-10.4.4-.8.7-1.7.9-2.8 1.9-9.4 4.8-14.7 11.2-13.6 6.2 1 6.6 7.6 6.3 11.1-.2 2.5 1 4.9 3 6.4 2.7 1.9 7.6 3.8 16.3 3.6 2.4-.1 4.6-1.3 5.9-3.2 1.4-2.1 3.6-4.4 5.7-3.7 3.7 1.3-.3 7.1-.9 11.4-.3 2.5.3 8 .8 12.5z" class="coloree4857 svgShape"></path><path fill="#ffffff" d="M283.3 467.3c-2.4 2.6-28.1 9.5-30.8 8.4-1.9-.8-3.2-1.8-3.4-3.4 1.4-1.2 3.1-2.2 5.1-3.2 11.8-5.5 20-4.2 23.1-10.4 0 .1 8.4 6 6 8.6z" class="colorffffff svgShape"></path><path fill="#040819" d="M273.5 480.8c-.1 0-.2-.1-.2-.2s.1-.3.2-.3c19.7-4.1 22.3-24.3 22.3-24.5 0-.1.1-.2.3-.2.1 0 .2.1.2.3 0 .2-2.7 20.8-22.8 24.9zM305.6 480.7c-.1 0-.1 0-.2-.1-7.2-6.5-3.3-18.8-3.3-19 0-.1.2-.2.3-.2.1 0 .2.2.2.3 0 .1-3.8 12.1 3.1 18.4.1.1.1.3 0 .4 0 .2-.1.2-.1.2z" class="color19040f svgShape"></path><path fill="#040819" d="M242.7 487.8v-.2c0-.1-.5-3.1.6-6.9l.1-.2c1-3.2 2.9-6 5.6-8.3 1.5-1.2 3.2-2.3 5.1-3.2 4.7-2.2 8.9-3.3 12.2-4.2 5.2-1.4 8.9-2.4 10.8-6.1.4-.8.7-1.7.9-2.7 1.6-7.9 4.1-15 11.5-13.8 6.3 1.1 6.8 7.6 6.6 11.4-.2 2.4.9 4.8 2.9 6.2 2.4 1.7 7.2 3.7 16.1 3.6 2.3 0 4.4-1.2 5.7-3.1 2.1-3.1 4.2-4.4 6-3.8.7.2 1.2.6 1.4 1.2.7 1.5-.1 3.8-.9 6.2-.5 1.5-1 3-1.2 4.3-.3 2.4.2 8 .7 12.3h-.2.2c.5 3.7.9 6.8.9 6.8v.3h-.3l-84.7.2zm1-6.8c-.9 3.1-.7 5.6-.6 6.3l84-.3c-.1-.8-.5-3.5-.9-6.5-.5-4.3-1.1-10-.7-12.4.2-1.4.7-2.9 1.2-4.4.8-2.3 1.6-4.5 1-5.8-.2-.4-.6-.7-1.1-.9-2-.7-4 1.6-5.4 3.6-1.4 2-3.7 3.3-6.1 3.3-7.3.2-12.8-1.1-16.4-3.6-2.1-1.5-3.3-4-3.1-6.6.3-3.6-.2-9.9-6.1-10.9-5.7-.9-8.8 2.8-10.9 13.4-.2 1.1-.5 2-.9 2.8-1.9 3.9-5.8 4.9-11.1 6.3-3.4.9-7.5 2-12.2 4.2-1.9.9-3.6 1.9-5 3.1-2.7 2.2-4.5 5-5.5 8.2l-.2.2z" class="color19040f svgShape"></path><path fill="#040819" d="M253.4 476.1c-.5 0-.8 0-1-.1-2.2-.9-3.3-2.1-3.5-3.6v-.1l.1-.1c1.5-1.2 3.2-2.3 5.1-3.2 4.7-2.2 8.9-3.3 12.2-4.2 5.2-1.4 8.9-2.4 10.8-6.1l.1-.3.2.2c.3.2 6.1 4.4 6.5 7.4.1.6-.1 1.1-.5 1.5-2.1 2.4-24.4 8.6-30 8.6zm-4-3.6c.2 1.3 1.2 2.3 3.2 3.1 2.7 1.1 28.3-6 30.5-8.4.3-.3.4-.7.3-1.2-.3-2.4-4.9-6-6-6.8-2 3.6-5.7 4.7-10.9 6.1-3.4.9-7.5 2-12.2 4.2-1.8.8-3.5 1.8-4.9 3zm33.9-5.2z" class="color19040f svgShape"></path><path fill="#ffffff" d="m327.4 487.2-84.5.3s-.5-3 .6-6.8l83-.3c.5 3.7.9 6.8.9 6.8z" class="colorffffff svgShape"></path><path fill="#040819" d="M242.7 487.8v-.2c0-.1-.5-3.1.6-6.9l.1-.2h.2l83.2-.3v.3c.4 3.7.9 6.8.9 6.8v.3h-.3l-84.7.2zm1-6.8c-.9 3.1-.7 5.6-.6 6.3l84-.3c-.1-.8-.5-3.4-.9-6.3l-82.5.3zM278.3 469.7c-.1 0-.2-.1-.2-.2-1.2-3.9-5.1-6.5-5.2-6.5-.1-.1-.1-.2-.1-.3s.2-.1.3-.1c.2.1 4.1 2.7 5.4 6.8.1.1 0 .3-.2.3zM271.9 472.1c-.1 0-.2-.1-.2-.2-.5-4.4-4.5-6.9-4.5-6.9-.1-.1-.2-.2-.1-.3.1-.1.2-.2.3-.1.2.1 4.2 2.6 4.8 7.2 0 .2-.1.3-.3.3zM262 474.7c-.1 0-.2-.1-.2-.2-1.6-4.7-4.9-6.3-5-6.3-.1-.1-.2-.2-.1-.3.1-.1.2-.2.3-.1.1.1 3.5 1.6 5.2 6.6.1.1 0 .3-.2.3.1 0 0 0 0 0z" class="color19040f svgShape"></path><path fill="#479ff8" d="m343.1 329-.5 6.3-8.6 99.1h-50.4l16.1-87.6c1.9-10.4 10.9-17.9 21.5-17.9h21.9z" class="color4776f8 svgShape"></path><path fill="#0575e6" d="m342.5 335.3-8.6 99.1h-24.6l.3-1.2c6.2-22 8.8-45 7.9-67.9-.3-8.2-1.1-16.6 1.5-24.4 1.7-4.9 5.1-9.5 9.5-12h9.3c1.8 2 3.4 4.1 4.7 6.4z" class="color335cff svgShape"></path><path d="M333.9 434.7h-50.4c-.1 0-.1 0-.2-.1 0-.1-.1-.1-.1-.2l16.1-87.6c1.9-10.5 11.1-18.1 21.7-18.1h20.7c.1 0 .3.1.3.3s-.1.3-.3.3H321c-10.4 0-19.3 7.4-21.2 17.7l-16.1 87.3h49.9l9.1-105.3c0-.1.1-.2.3-.2.1 0 .2.1.2.3L334 434.6c.2 0 .1.1-.1.1z" fill="#000000" class="color000000 svgShape"></path><path fill="#c8e3ff" d="m368.3 434-.5 5-.8 8.1-.4 3.2-2 20-29.8-2.7-3.4-8.9-4.1-11 2.2-12.1.3-1.6z" class="colorffd8c8 svgShape"></path><path fill="#040819" d="m368.3 434-.5 5.1-.8 8.1c-1.8 0-3.5-.1-5.3-.3-9.7-.9-19.2-3.8-27.7-8.5-1.6-.9-3.1-1.8-4.6-2.8l.3-1.6h38.6zM364.6 470.3l-29.8-2.7-3.4-9c10.4 1.2 21.1-.5 30.7-4.7 1.8-.8 3.7-1.8 4.5-3.6h.1l-2.1 20z" class="color19040f svgShape"></path><path fill="#040819" d="M364.4 470.6h-.2c-3.6-.6-7.4-.8-11.1-1-6.2-.4-12.6-.8-18.6-2.7h-.1v-.1c-.9-2.8-2.1-5.4-3.3-8-1.6-3.6-3.3-7.4-4.2-11.3 0-1.8.5-3.6 1-5.3.3-1.2.7-2.4.9-3.6 0-.1.1-.2.3-.2.1 0 .2.1.2.3-.2 1.2-.5 2.5-.9 3.7-.5 1.7-1 3.4-1 5.1.9 3.8 2.4 7.4 4.1 11.2 1.1 2.6 2.3 5.2 3.2 7.9 6 1.8 12.3 2.2 18.4 2.6 3.6.2 7.4.5 10.9 1 1.3-7.3 2-15.1 2.7-22.6l.2-2.4c0-.1.1-.2.3-.2.1 0 .2.1.2.3l-.2 2.4c-.7 7.6-1.4 15.5-2.8 22.9z" class="color19040f svgShape"></path><path fill="#486bee" d="M369.2 480.4c.5 3.8.9 6.8.9 6.8l-84.5.3s-.5-3 .6-6.8c.8-2.7 2.4-5.7 5.6-8.4 1.4-1.2 3.1-2.2 5.1-3.2 11.8-5.5 20-4.2 23.1-10.4.4-.8.7-1.7.9-2.8 1.9-9.4 4.8-14.7 11.2-13.6 6.2 1 6.6 7.6 6.3 11.1-.2 2.5 1 4.9 3 6.4 2.7 1.9 7.6 3.8 16.3 3.6 2.4-.1 4.6-1.3 5.9-3.2 1.4-2.1 3.6-4.4 5.7-3.7 3.7 1.3-.3 7.1-.9 11.4-.3 2.5.3 8 .8 12.5z" class="coloree4857 svgShape"></path><path fill="#ffffff" d="M326 467.3c-2.4 2.6-28.1 9.5-30.8 8.4-1.9-.8-3.2-1.8-3.4-3.4 1.4-1.2 3.1-2.2 5.1-3.2 11.8-5.5 20-4.2 23.1-10.4 0 .1 8.4 6 6 8.6z" class="colorffffff svgShape"></path><path fill="#040819" d="M316.2 480.8c-.1 0-.2-.1-.2-.2s.1-.3.2-.3c19.7-4.1 22.3-24.3 22.3-24.5 0-.1.1-.2.3-.2.1 0 .2.1.2.3 0 .2-2.7 20.8-22.8 24.9zM348.3 480.7c-.1 0-.1 0-.2-.1-7.2-6.5-3.3-18.8-3.3-19 0-.1.2-.2.3-.2.1 0 .2.2.2.3 0 .1-3.8 12.1 3.1 18.4.1.1.1.3 0 .4 0 .2 0 .2-.1.2z" class="color19040f svgShape"></path><path fill="#040819" d="M285.4 487.8v-.2c0-.1-.5-3.1.6-6.9l.1-.2c1-3.2 2.9-6 5.6-8.3 1.5-1.2 3.2-2.3 5.1-3.2 4.7-2.2 8.9-3.3 12.2-4.2 5.2-1.4 8.9-2.4 10.8-6.1.4-.8.7-1.7.9-2.7 1.6-7.9 4.1-15 11.5-13.8 6.3 1.1 6.8 7.6 6.6 11.4-.2 2.4.9 4.8 2.9 6.2 2.4 1.7 7.2 3.7 16.1 3.6 2.3 0 4.4-1.2 5.7-3.1 2.1-3.1 4.2-4.4 6-3.8.7.2 1.2.6 1.4 1.2.7 1.5-.1 3.8-.9 6.2-.5 1.5-1 3-1.2 4.3-.3 2.4.2 8 .7 12.3h-.2.2c.5 3.7.9 6.8.9 6.8v.3h-.3l-84.7.2zm1-6.8c-.9 3.1-.7 5.6-.6 6.3l84-.3c-.1-.8-.5-3.5-.9-6.5-.5-4.3-1.1-10-.7-12.4.2-1.4.7-2.9 1.2-4.4.8-2.3 1.6-4.5 1-5.8-.2-.4-.6-.7-1.1-.9-1.9-.7-4 1.6-5.4 3.6-1.4 2-3.7 3.3-6.1 3.3-7.3.2-12.8-1.1-16.4-3.6-2.1-1.5-3.3-4-3.1-6.6.3-3.6-.2-9.9-6.1-10.9-5.7-.9-8.8 2.8-10.9 13.4-.2 1.1-.5 2-.9 2.8-1.9 3.9-5.8 4.9-11.1 6.3-3.4.9-7.5 2-12.2 4.2-1.9.9-3.6 1.9-5 3.1-2.7 2.2-4.5 5-5.5 8.2l-.2.2z" class="color19040f svgShape"></path><path fill="#040819" d="M296.1 476.1c-.5 0-.8 0-1-.1-2.2-.9-3.3-2.1-3.5-3.6v-.1l.1-.1c1.5-1.2 3.2-2.3 5.1-3.2 4.7-2.2 8.9-3.3 12.2-4.2 5.2-1.4 8.9-2.4 10.8-6.1l.1-.3.2.2c.3.2 6.1 4.4 6.5 7.4.1.6-.1 1.1-.5 1.5-2.1 2.4-24.3 8.6-30 8.6zm-4-3.6c.2 1.3 1.2 2.3 3.2 3.1 2.7 1.1 28.3-6 30.5-8.4.3-.3.4-.7.3-1.2-.3-2.4-4.9-6-6-6.8-2 3.6-5.7 4.7-10.9 6.1-3.4.9-7.5 2-12.2 4.2-1.8.8-3.5 1.8-4.9 3zm33.9-5.2z" class="color19040f svgShape"></path><path fill="#ffffff" d="m370.1 487.2-84.5.3s-.5-3 .6-6.8l83-.3c.5 3.7.9 6.8.9 6.8z" class="colorffffff svgShape"></path><path fill="#040819" d="M285.4 487.8v-.2c0-.1-.5-3.1.6-6.9l.1-.2h.2l83.2-.3v.3c.4 3.7.9 6.8.9 6.8v.3h-.3l-84.7.2zm1-6.8c-.9 3.1-.7 5.6-.6 6.3l84-.3c-.1-.8-.5-3.4-.9-6.3l-82.5.3zM321 469.7c-.1 0-.2-.1-.2-.2-1.2-3.9-5.1-6.5-5.2-6.5-.1-.1-.1-.2-.1-.3.1-.1.2-.1.3-.1.2.1 4.1 2.7 5.4 6.8.1.1 0 .3-.2.3zM314.6 472.1c-.1 0-.2-.1-.2-.2-.5-4.4-4.5-6.9-4.5-6.9-.1-.1-.2-.2-.1-.3.1-.1.2-.2.3-.1.2.1 4.2 2.6 4.8 7.2 0 .2-.1.3-.3.3zM304.7 474.7c-.1 0-.2-.1-.2-.2-1.6-4.7-4.9-6.3-5-6.3-.1-.1-.2-.2-.1-.3.1-.1.2-.2.3-.1.1.1 3.5 1.6 5.2 6.6.1.1 0 .3-.2.3.1 0 .1 0 0 0z" class="color19040f svgShape"></path><path fill="#479ff8" d="M446 327v18.9c0 11.1-9 20.1-20.1 20.1H371l2.1 29.1 3 41.3h-54.3l2.6-90.2c.3-9.4 7.9-16.9 17.3-17.1l22.6-.4L446 327z" class="color4776f8 svgShape"></path><path fill="#0575e6" d="M376.2 436.3h-52.3l1.2-.3c2.1-.3 4.2-.1 6.1-.9 1.9-.8 3.3-3.4 2-5 1.1-3.7 0-7.7-.5-11.5s-.4-8.2 2.5-10.9c2-1.9 5-2.4 7.8-2.2 2.8.1 5.5.9 8.3 1 9.1.5 18.2-5.4 21.3-13.9l.5 2.5 3.1 41.2zM446 327v18.9c0 11.1-9 20.1-20.1 20.1h-44.4c1.3-3.9 4.3-7.3 7.9-9.4 13.7-8.2 32.9.1 46.3-8.3 1.8-1.1 3.6-3.1 2.8-5.1-.9-2.1-3.8-2.1-6-1.8-23.3 3-47.5-1.6-68.1-12.8L446 327z" class="color335cff svgShape"></path><path d="M376.2 436.6h-54.3c-.1 0-.1 0-.2-.1 0 0-.1-.1-.1-.2l2.6-90.2c.3-9.6 8-17.2 17.5-17.4l104.3-1.9c.1 0 .1 0 .2.1s.1.1.1.2V346c0 11.2-9.1 20.3-20.3 20.3h-54.6l5.1 70.1c0 .1 0 .1-.1.2 0-.1-.1 0-.2 0zm-54-.5H376l-5.1-70.1c0-.1 0-.1.1-.2 0-.1.1-.1.2-.1H426c10.9 0 19.8-8.9 19.8-19.8v-18.6l-104 1.9c-9.3.2-16.8 7.6-17 16.9l-2.6 90z" fill="#000000" class="color000000 svgShape"></path><path fill="#486bee" d="m390.6 258.1-5.9 15.7-3.9 10.6-1.2 3.2-.8 2-.4 1.2v.1l-.3.9-1.5 4-1.1-1.1-1.8-1.9-4.6-4.8h-.1l-2.1-2.1-35-35.9-3.4-3.5s10.5-18.6 14.6-25.4c.9-1.5 1.5-2.4 1.6-2.4.5-.3 36 31.9 44.3 38.5.8.4 1.4.8 1.6.9z" class="coloree4857 svgShape"></path><path d="M379.1 288.6c-.1.4-.2.7-.3 1.1l-.4 1.2v.1c-.1.3-.3.6-.5.9-.6 1.1-1.5 2-2.4 2.9l-1.8-1.9-4.6-4.8-.1-.1c.9-3.7 1.1-7.7 2.4-11.4.3-.8.7-1.7 1.5-1.9 1.8-.5 3 2.1 4 3.2 1.3 1.5 2 3.5 2.3 5.5.3 1.7.3 3.5-.1 5.2z" fill="#000000" class="color000000 svgShape"></path><path d="M376.6 296.1c-.1 0-.1 0-.2-.1l-48.1-49.4c-.1-.1-.1-.2 0-.3 4.7-8.3 15.7-27.6 16.3-27.9.3-.2 1.1.4 18.7 16 4.3 3.8 8.8 7.8 13 11.4.1.1.1.2 0 .4-.1.1-.2.1-.4 0-4.1-3.6-8.7-7.6-13-11.4-8.3-7.4-17-15-18.2-15.8-1 1.3-10 16.9-15.9 27.5l47.7 49 13.9-37.3c0-.1.2-.2.3-.1.1 0 .2.2.1.3l-14 37.7c0-.1-.1-.1-.2 0z" fill="#000000" class="color000000 svgShape"></path><path fill="#486bee" d="M461.8 274.6c-2.4 23.2-9.6 48.3-11.7 55.6-.4 1.3-.6 2-.6 2-.1 1.1-3.5 1.8-8.9 2.2-9.1.8-23.8.8-37.6.2-18.4-.8-35.3-2.6-35-4.9 0 0 6.7-74.9 26.2-94.9 13.4-13.7 49-13.6 61.9 0 6.8 7.4 7.5 23.1 5.7 39.8z" class="coloree4857 svgShape"></path><path d="M455.8 282c-1.7 2.3-4.6 3.3-7.3 4-15.8 4-33.3 10.2-47.8 2.8 6.6-4.5 33.4-13.6 34.7-15.2 1.9-2.5 1.1-6.1.9-9.2-.4-6.2 2.4-12.6 7.2-16.6l.9 6c4 4.7 7.5 9.9 10.3 15.3 1 2 2 4.1 2.4 6.3.3 2.3 0 4.7-1.3 6.6z" fill="#000000" class="color000000 svgShape"></path><path d="M422.1 335.3c-13.5 0-29.1-.7-39.1-1.7-15.5-1.6-15.4-3.3-15.3-3.9 0-.3 2.8-30.5 9.6-57.3 0-.1.2-.2.3-.2.1 0 .2.2.2.3-6.9 26.8-9.6 56.9-9.6 57.2 0 .3.5 1.9 14.8 3.3 24.9 2.5 65.8 2.4 66.2-.9.3-.8 24.3-78.4 6.6-97.1-5.9-6.3-17.2-10.1-30.2-10.2h-.5c-13.1 0-24.6 3.8-30.8 10.2-3.7 3.8-7.3 10-10.5 18.3-.1.1-.2.2-.3.1-.1 0-.2-.2-.1-.3 3.3-8.4 6.8-14.6 10.6-18.5 6.4-6.6 18.3-10.4 31.7-10.3 13.1.1 24.5 4 30.5 10.3 7.5 7.9 8.7 26.8 3.5 56-3.9 21.7-10 41.3-10 41.5-.2 2.4-12.7 3.2-27.6 3.2z" fill="#000000" class="color000000 svgShape"></path><path fill="#021b79" d="M411.9 181.7s-2.9 10.6-17.1 1.7c-14.2-8.9-2.4-23.1-2.4-23.1l12.3 2.7 7.2 18.7z" class="color043844 svgShape"></path><path d="M394.7 183.7h-.1c-4-2.5-6.4-5.7-7-9.4-1.1-7.1 4.5-14 4.5-14 .1-.1.2-.1.4 0 .1.1.1.2 0 .4-.1.1-5.5 6.7-4.4 13.6.6 3.6 2.8 6.7 6.7 9.1.1.1.2.2.1.3h-.2z" fill="#000000" class="color000000 svgShape"></path><path fill="#c8e3ff" d="m434.4 193.6-3.4 31.5s-2.5 1.2-5.9 2.4c-6 2.2-14.8 4.8-17.2 1.9-.8-1 .7-8 2.3-14.6 1.5-6.1 3-11.7 3-11.7l20-8.9 1.2-.6z" class="colorffd8c8 svgShape"></path><path fill="#7bbdff" d="m434.4 193.6-3.4 31.5s-2.5 1.2-5.9 2.4c2.3-2.1 4.1-4.6 5.2-7.6 1.8-5 1.2-10.5 1.2-15.8 0-2.6.3-5.2 1-7.7 1.1-1.7 1.8-2.7 1.9-2.8z" class="colorff8e7b svgShape"></path><path d="M411.9 230.9c-1.9 0-3.4-.4-4.2-1.4-1.5-1.9 4.6-24 5.3-26.5v-.1h.1l21.5-9.6-2.7 25.5h-.2.2l-.7 6.6-.1.1c-.6.1-12.4 5.4-19.2 5.4zm1.5-27.7c-2.7 9.8-6.3 24.7-5.3 26 3.3 4.2 21-3.5 22.7-4.3l3.3-30.9-20.7 9.2zm17.6 21.9z" fill="#000000" class="color000000 svgShape"></path><path fill="#c8e3ff" d="M434.4 193.6c-.1.1-.9 1.1-2.3 2.5-4.4 4.7-14.7 14.5-24.2 15.7-1.5.2-3 .1-4.4-.1-13.6-2.7-12-21.7-10.1-33.2.3-1.6.5-3 .8-4.2.5-2.6.9-4.2.9-4.2l32-2.9 6.6 13.6s11.1-5.1 11.9 3.2c.8 8.1-11.2 9.6-11.2 9.6z" class="colorffd8c8 svgShape"></path><path fill="#7bbdff" d="M434.4 193.6c-.1.1-.9 1.1-2.3 2.5.3-.8.7-1.5 1.1-2.2 1-1.6 2.3-3.1 3.9-4.1 1.5-.9 3.2-1.5 4.5-2.6 1.3-1.1 2.1-3.2 1.1-4.6-1.1-1.6-4.9-2.3-6.4-1-1.5 1.3-2.9 2.3-4.3 3.8s-1.4 6-3.1 5l-4.1-8.4c-1.4-1.5-3.6-1.6-5.7-1.6-5 .1-10 .1-14.9.1-2.5 0-5 0-7.4-.6-1.2-.3-2.4-.8-3.4-1.5.3-1.6.5-3 .8-4.2.5-2.6.9-4.2.9-4.2l32-2.9 6.6 13.6s11.1-5.1 11.9 3.2c.8 8.2-11.2 9.7-11.2 9.7z" class="colorff8e7b svgShape"></path><path d="M406.1 212.1c-.9 0-1.8-.1-2.6-.3-16-3.2-11.3-28.3-9.5-37.7.5-2.6.9-4.2.9-4.2v-.2l32.3-2.9 6.5 13.5c1.2-.5 6.4-2.6 9.7-.7 1.4.8 2.2 2.2 2.4 4.2.8 8.4-11.3 10-11.4 10-.1 0-.3-.1-.3-.2s.1-.3.2-.3 11.8-1.6 11-9.4c-.2-1.8-.9-3.1-2.1-3.8-3.3-1.9-9.4.8-9.4.8l-.2.1-6.6-13.6-31.6 2.9c-.1.5-.5 1.9-.9 4-1.8 9.3-6.5 34 9.1 37.1 4 .8 8.8-.4 14.1-3.6.1-.1.3 0 .3.1.1.1 0 .3-.1.3-4.3 2.6-8.3 3.9-11.8 3.9z" fill="#000000" class="color000000 svgShape"></path><path fill="#021b79" d="M429.7 188.3c.1.2.1.3.2.4-.1-.1-.2-.2-.2-.4zM445.6 183.8c-.8-8.3-11.9-3.2-11.9-3.2s-5 4.3-4 7.6c-.7-1.9-3.2-8.3-3.2-8.5.4-4.4-27.4 1.4-34.2-3.8-.9-.7-1.9-3.5-2.3-6.9-.9-8.1 1.7-20.2 16.6-19 .1-.3.7-1.7 2.1-2.9 1.9-1.7 5.2-3 10.6-.3 5.9 3 15.6 9.7 21.9 14.6 6.4 4.9 2.4 11.8 2.4 11.8s2.9 2.2 3.4 5.5c.3 1.6 0 3.3-1.4 5.1z" class="color043844 svgShape"></path><path d="M430.4 185h-.1c-.1-.1-.2-.2-.1-.3 1.2-2.2 3.3-4 3.4-4.1h.1c.3-.1 6.3-2.9 9.9-.8 1.2.7 2 1.9 2.3 3.6 3.4-5.2-2.1-9.5-2.3-9.7l-.2-.1.1-.2c.2-.3 3.8-6.8-2.3-11.5l-.9-.7c-6.1-4.8-11.9-9.3-21-13.9-3.1-1.6-5.8-1.9-8.1-1.1-3 1.2-4.2 4.2-4.2 4.2l-.1.2h-.2c-6.1-.5-10.6 1.2-13.4 4.9-4.1 5.5-3.5 14.5-1.8 18.8.1.1 0 .3-.1.3s-.3 0-.3-.1c-1.7-4.4-2.3-13.6 1.9-19.2 2.9-3.9 7.5-5.6 13.7-5.2.3-.7 1.6-3.2 4.5-4.3 2.4-.9 5.3-.6 8.5 1.1 9.1 4.7 14.9 9.2 21.1 14l.9.7c5.9 4.5 3.1 10.8 2.5 12 1 .8 5.9 5.5 1.9 10.8l-.4.5-.1-.6c-.2-1.8-.9-3.1-2.1-3.8-3.2-1.8-8.9.6-9.4.8-.2.2-2.1 1.9-3.2 3.9-.4-.3-.5-.2-.5-.2z" fill="#000000" class="color000000 svgShape"></path><path d="M429.9 189.1c-.1 0-.2 0-.2-.1s-3.4-8.8-3.4-9.2c0-.2 0-.4-.2-.5-1.2-1.2-6.8-1-12.7-.8-6.8.2-14.4.5-18.9-1.1-.1 0-.2-.2-.2-.3 0-.1.2-.2.3-.2 4.4 1.5 12 1.3 18.7 1 6.6-.2 11.8-.4 13.1 1 .3.3.4.6.3.9.1.4 3.2 8.5 3.3 8.9.1.1 0 .3-.1.3.1.1 0 .1 0 .1z" fill="#000000" class="color000000 svgShape"></path><path fill="#021b79" d="M429.7 188.3c.1.2.1.3.2.4-.1-.1-.2-.2-.2-.4z" class="color043844 svgShape"></path><path fill="#040508" d="M445.6 183.8c-.8-8.3-11.9-3.2-11.9-3.2s-5 4.3-4 7.6c-.7-1.9-3.2-8.3-3.2-8.5.4-4.4-27.4 1.4-34.2-3.8-.9-.7-1.9-3.5-2.3-6.9 2.5 4.5 7.4 7.6 12.6 7.7 3.1 0 6-.9 9-1.7 2.9-.8 6-1.6 9-1.3 3 .3 6.1 2 7.3 4.8.3.6.5 1.4 1 1.9 1.1 1.1 3 .7 4.2-.3 1.2-1 2-2.4 3.3-3.4 2.8-2.2 7.3-1.4 9.9 1.2.3.3.5.5.7.8.3 1.6 0 3.3-1.4 5.1z" class="color040608 svgShape"></path><path fill="#ffffff" d="M394.5 168c-.2 0-.4-.2-.4-.5-.3-2.9.4-5.9 1.9-8.4s3.8-4.5 6.4-5.7c.3-.1.6 0 .7.3.1.3 0 .6-.3.7-2.5 1.1-4.6 3-6 5.3-1.4 2.3-2 5.1-1.7 7.8 0 .3-.2.5-.5.5h-.1z" class="colorffffff svgShape"></path><path d="M404.5 200.1c-.2 0-.4 0-.6-.1-.6-.2-1.1-.6-1.3-1.1-.2-.5-.1-1 0-1.5l1.7-11.1c0-.1.1-.2.3-.2.1 0 .2.1.2.3l-1.7 11.1c-.1.4-.1.9 0 1.3s.5.7.9.8.9 0 1.3-.2c.1-.1.3-.1.4 0 .1.1.1.3 0 .4-.3.2-.7.3-1.2.3zM408.6 205.5c-.1 0-.2-.1-.2-.2s.1-.3.2-.3c2-.2 3.7-1.5 4.5-3.3.1-.1.2-.2.3-.1.1.1.2.2.1.3-.8 2-2.7 3.4-4.9 3.6zM400.8 188.5c-.1 1.1-1.1 1.8-2.2 1.7-1.1-.1-1.9-1.1-1.8-2.2.1-1.1 1.1-1.8 2.2-1.7 1.1.2 1.9 1.1 1.8 2.2zM412.4 189.9c-.1 1.1-1.1 1.8-2.2 1.7-1.1-.1-1.9-1.1-1.8-2.2.1-1.1 1.1-1.8 2.2-1.7 1.2.1 2 1.1 1.8 2.2zM413.4 182.7c0 .7-.8 1.2-1.7 1.2l-2.3-.1c-.9 0-1.6-.6-1.6-1.3 0-.7.8-1.2 1.7-1.2l2.3.1c.9 0 1.7.6 1.6 1.3zM400.5 182.8c.1.6-.5 1.2-1.4 1.4l-2.3.4c-.9.1-1.7-.2-1.8-.9-.1-.6.5-1.2 1.4-1.4l2.3-.4c.9-.1 1.7.3 1.8.9z" fill="#000000" class="color000000 svgShape"></path><path fill="#c8e3ff" d="M404 291.4s-8.9-1.8-11.6-3.1c-5.2-2.3-16.9-11.1-19.8-7s5.1 9.3 5.1 9.3-18.4-4.8-18.8 1.6c-.2 3.5 4.6 3.3 4.6 3.3s-9.7 3.8-7.6 7.4c2.1 3.6 9.6-1.1 9.6-1.1s-9 5.1-6.5 8.4c2.4 3.3 9.6-1 9.6-1s-9.1 5.3-6.1 7.8 35.1-5 44.5-.2l-3-25.4z" class="colorffd8c8 svgShape"></path><path d="M365.7 317.8c-1.7 0-2.9-.2-3.3-.6-.5-.4-.7-.9-.7-1.6.1-1.6 2.2-3.4 4-4.8-2.3.9-5.4 1.5-6.9-.5-.4-.6-.6-1.2-.4-1.9.3-1.6 2.2-3.4 3.9-4.7-1.5.6-3.3 1-4.7.7-.8-.2-1.5-.6-1.9-1.3-.4-.6-.4-1.3-.2-2 .8-2.3 4.9-4.4 6.9-5.3-.9-.1-2.2-.4-3-1.2-.6-.6-.8-1.4-.8-2.3.1-1 .5-1.8 1.3-2.3 3.5-2.5 13.1-.6 16.6.2-1.5-1.2-4.2-3.5-4.7-6-.2-1 0-2 .6-2.9 2.3-3.3 9.4.9 15.1 4.2 1.9 1.1 3.7 2.1 5 2.7 2.7 1.2 11.5 3 11.6 3 .1 0 .2.1.2.2l3.1 25.4c0 .1 0 .2-.1.2-.1.1-.2.1-.3 0-5.5-2.8-18.9-1.3-29.6-.2-4.7.5-8.9 1-11.7 1zm3-8.4c-.4.2-6.3 3.8-6.5 6.2 0 .4.1.8.5 1.1 1.2 1 7.4.3 14.7-.5 10.5-1.1 23.6-2.5 29.4 0l-3-24.8c-1.3-.3-8.9-1.9-11.5-3-1.3-.6-3.1-1.6-5-2.8-5.5-3.2-12.4-7.2-14.4-4.3-.5.7-.7 1.6-.5 2.5.6 3.3 5.5 6.4 5.6 6.5.1.1.1.2.1.3 0 .1-.2.2-.3.1-.1 0-13.4-3.5-17.4-.6-.7.5-1.1 1.1-1.1 2 0 .8.2 1.4.6 1.9 1.2 1.2 3.7 1.1 3.7 1.1.1 0 .2.1.3.2 0 .1 0 .2-.2.3-.1 0-6.6 2.6-7.6 5.4-.2.6-.1 1.1.2 1.6.3.6.9.9 1.6 1.1 2.4.6 6.1-1.4 7.3-2.1.2-.1.3-.2.4-.2.1-.1.3 0 .3.1.1.1 0 .3-.1.3l-.4.2c-1.4.8-5.9 3.8-6.4 6.3-.1.6 0 1.1.3 1.5 2.2 3 8.9-.9 9.3-1.1.1-.1.3 0 .3.1 0 .4 0 .5-.2.6.1 0 .1 0 0 0z" fill="#000000" class="color000000 svgShape"></path><path fill="#486bee" d="m471.3 318.2-47.3-1.6-24.5-.8 1.7-28.6 42.8-7.4c-3.4-4.9-5.1-10.6-5.1-16.3 0-5.1 1.4-10.2 4.1-14.8l10.4-12.6 1.3-1.5.5-.6c.1.1.3.2.4.3 7.9 6.9 33.2 45.6 34.5 59.6 1 12.9-5.9 24.8-18.8 24.3z" class="coloree4857 svgShape"></path><path d="m471.3 318.2-47.3-1.6c6.1-2.6 12.7-4 19.3-4.3 6.6-.3 13.2.6 19.8.1 6.6-.5 13.4-2.8 17.4-8 4.5-5.8 4.5-14.1 1.8-20.9-2.7-6.8-7.6-12.4-12.6-17.8s-10.2-10.7-13.5-17.2c-1.9-3.8-2.8-8-2.8-12.2 0-2.4 2.1-1.8 2.1-1.8 7.9 6.9 33.2 45.6 34.5 59.6 1.1 12.7-5.8 24.6-18.7 24.1z" opacity=".1" fill="#000000" class="color000000 svgShape"></path><path d="M472 318.5h-.7l-71.8-2.5c-.1 0-.1 0-.2-.1 0 0-.1-.1-.1-.2l1.7-28.6c0-.1.1-.2.2-.2l42.4-7.3c-6.2-9.3-6.6-21.4-.8-31 .1-.1.2-.2.3-.1.1.1.2.2.1.3-5.7 9.6-5.3 21.6 1 30.8 0 .1.1.2 0 .2 0 .1-.1.1-.2.1l-42.6 7.3-1.6 28.2 71.5 2.5c5 .2 9.5-1.6 12.7-5 4.2-4.4 6.3-11.5 5.7-18.9-1.2-13.9-27.2-53.7-34.8-59.8-.1-.1-.1-.2 0-.4.1-.1.2-.1.4 0 7.6 6.1 33.7 46.1 34.9 60.1.7 7.7-1.4 14.7-5.8 19.3-3.1 3.5-7.4 5.3-12.3 5.3z" fill="#000000" class="color000000 svgShape"></path><path fill="#ffffff" d="M332.3 357.1c-.5 0-.9-.4-1-.9-.2-1.5-.4-3-.5-4.5 0-.6.4-1 .9-1.1.5 0 1 .4 1.1.9.1 1.5.3 3 .4 4.4.1.5-.3 1-.9 1.1v.1zM331.9 348.2h-.1c-.5-.1-.9-.6-.9-1.1.5-3.6 2-6.6 4.4-8.4 3.3-2.6 7.9-2.7 11.9-2.6.6 0 1 .5 1 1s-.5 1-1 1c-3.8-.1-7.8-.1-10.6 2.2-1.9 1.5-3.2 4-3.6 7.1-.2.4-.6.8-1.1.8z" class="colorffffff svgShape"></path><g opacity=".6" fill="#000000" class="color000000 svgShape"><path fill="#ffffff" d="M329.6 413.4c-.7 0-1.2-.5-1.2-1.2 0 0 0-1.8-.1-4.6 0-.7.5-1.2 1.2-1.2s1.2.5 1.2 1.2c0 2.8.1 4.6.1 4.6 0 .7-.5 1.2-1.2 1.2z" class="colorffffff svgShape"></path></g><g opacity=".6" fill="#000000" class="color000000 svgShape"><path fill="#ffffff" d="M329.5 402.9c-.7 0-1.2-.5-1.2-1.2-.2-23.1.1-23.7.2-24.1.3-.6 1-.9 1.6-.6.6.3.8.9.6 1.4-.1.6-.3 4-.1 23.2.1.7-.5 1.3-1.1 1.3zm1.2-24.3z" class="colorffffff svgShape"></path></g><g opacity=".6" fill="#000000" class="color000000 svgShape"><path fill="#ffffff" d="M290.5 427c-.6-.1-1.1-.7-1-1.4 0 0 .3-1.8.8-4.5.1-.6.7-1.1 1.4-1 .6.1 1.1.7 1 1.4-.5 2.7-.8 4.5-.8 4.5-.2.7-.8 1.1-1.4 1z" class="colorffffff svgShape"></path></g><g opacity=".6" fill="#000000" class="color000000 svgShape"><path fill="#ffffff" d="M292.2 416.5c-.6-.1-1.1-.7-1-1.4 3.9-22.8 4.3-23.3 4.5-23.7.4-.5 1.1-.7 1.7-.3.5.4.6 1 .4 1.5-.2.5-1 3.9-4.2 22.9-.1.7-.7 1.2-1.4 1 0 .1 0 0 0 0zm5.5-23.7s0 .1 0 0c0 .1 0 0 0 0z" class="colorffffff svgShape"></path></g><path fill="#8aa2bb" d="M330.8 319.1h-45.6V311h39.5c3.4 0 6.2 2.8 6.2 6.2v1.9z" class="color8aa7bb svgShape"></path><path d="M330.8 319.4h-45.6c-.1 0-.3-.1-.3-.3V311c0-.1.1-.3.3-.3h39.5c3.5 0 6.4 2.9 6.4 6.4v1.9c-.1.3-.2.4-.3.4zm-45.4-.5h45.1v-1.6c0-3.3-2.7-5.9-5.9-5.9h-39.2v7.5z" fill="#000000" class="color000000 svgShape"></path><path fill="#ffffff" d="M278.5 264.3h-68.7c-4.1 0-7.1 4-5.9 8l14 46.8h81.6l-15.1-50.4c-.7-2.6-3.1-4.4-5.9-4.4z" class="colorffffff svgShape"></path><path d="M299.5 319.4h-81.6c-.1 0-.2-.1-.2-.2l-14-46.8c-.6-2-.2-4 1-5.7 1.2-1.6 3.1-2.6 5.2-2.6h68.7c2.9 0 5.3 1.8 6.2 4.6l15.1 50.4v.2c-.2 0-.3.1-.4.1zm-81.4-.5h81.1l-15-50c-.8-2.5-3-4.2-5.7-4.2h-68.7c-1.9 0-3.6.9-4.8 2.4-1.1 1.5-1.5 3.4-.9 5.3l14 46.5z" fill="#000000" class="color000000 svgShape"></path><ellipse cx="248.6" cy="294.9" rx="5" ry="6.5" transform="rotate(-38.512 248.615 294.932)" fill="#000000" class="color000000 svgShape"></ellipse><g opacity=".3" fill="#000000" class="color000000 svgShape"><path fill="#ffffff" d="M384 268.3h-.2c-.7-.1-1.1-.8-1-1.5l.9-3.9c1.5-6 3.5-11.4 6.1-16.2.3-.6 1.1-.8 1.7-.5.6.3.8 1.1.5 1.7-2.5 4.6-4.4 9.9-5.8 15.6-.3 1.2-.6 2.5-.8 3.8-.3.6-.8 1-1.4 1zM394 243.3c-.2 0-.5-.1-.7-.2-.6-.4-.7-1.2-.3-1.8 1.7-2.4 3.5-4.6 5.5-6.6.5-.5 1.3-.5 1.8 0s.5 1.3 0 1.8c-1.9 1.9-3.6 4-5.2 6.3-.3.3-.7.5-1.1.5z" class="colorffffff svgShape"></path></g><path fill="#ffffff" d="M422.4 303.9c-1.3.4-2.7.4-4.1.3-2.1-.3-4.2-.9-6.1-2-1.1-.6-2.2-1.4-2.8-2.4s-.8-2.5 0-3.5c1-1.3 2.9-1.4 4.6-1.2 3.4.4 6.8 1.4 10 2.7 3.4 1.3.9 5.3-1.6 6.1z" class="colorffffff svgShape"></path><g opacity=".3" fill="#000000" class="color000000 svgShape"><path fill="#ffffff" d="M449.5 264.7c-1.1-1.1-1.8-2.5-2.3-3.9-.8-2.3-1.1-4.7-1-7.1.1-1.4.3-2.8 1.1-4 .8-1.2 2.1-2 3.5-1.7 1.8.3 2.8 2.3 3.4 4 1.3 3.6 1.9 7.5 2.2 11.3.3 4.1-4.8 3.5-6.9 1.4z" class="colorffffff svgShape"></path></g><path d="M363.4 295.8c-.1 0-.2 0-.2-.1-.1-.1 0-.3.1-.3 3.8-2.1 8.4-2.9 12.7-2.4.1 0 .2.1.2.3 0 .1-.1.2-.3.2-4.2-.5-8.6.3-12.4 2.4 0-.1-.1-.1-.1-.1zM365.5 302.1c-.1 0-.2-.1-.2-.2-.1-.1 0-.3.1-.3.3-.1 8.1-3.5 12-2.8.1 0 .2.2.2.3 0 .1-.2.2-.3.2-3.7-.6-11.6 2.7-11.8 2.8.1 0 .1 0 0 0zM368.6 309.4c-.1 0-.2 0-.2-.1-.1-.1 0-.3.1-.3.2-.1 4.9-2.7 8.9-2.1.1 0 .2.1.2.3s-.2.2-.3.2c-3.8-.6-8.5 2-8.6 2h-.1z" fill="#000000" class="color000000 svgShape"></path><path fill="#ffffff" d="M485.6 230.8c-1.7 1.4-3.7 2.3-5.8 2.9-1.4.4-.8 2.5.6 2.2 2.5-.6 4.8-1.8 6.8-3.5 1.2-.9-.5-2.5-1.6-1.6z" class="colorffffff svgShape"></path><g opacity=".6" fill="#000000" class="color000000 svgShape"><path fill="#ffffff" d="M347.5 228.7c.5-.5 1.3-.5 1.8 0 0 0 1.4 1.3 3.5 3.4.5.5.5 1.3 0 1.8s-1.3.5-1.8 0c-2.1-2-3.5-3.4-3.5-3.4-.5-.5-.5-1.3 0-1.8-.1 0 0 0 0 0z" class="colorffffff svgShape"></path></g><g opacity=".6" fill="#000000" class="color000000 svgShape"><path fill="#ffffff" d="M355.4 236.5c.5-.5 1.3-.5 1.8 0 17.4 17.1 17.7 17.7 17.8 18.2.2.7-.1 1.4-.8 1.6-.6.2-1.3-.1-1.5-.6-.4-.5-2.8-3.2-17.3-17.4-.4-.5-.4-1.3 0-1.8zm17.3 19.1z" class="colorffffff svgShape"></path></g><path fill="#ffffff" d="M515.1 486.9h-17.2L474.3 332h11.9z" class="colorffffff svgShape"></path><path d="M493.2 456c-.1 0-.2-.1-.2-.2l-19-124.1h12.4l9.2 49.3c0 .1-.1.3-.2.3s-.3-.1-.3-.2l-9.1-48.9h-11.4l18.8 123.5c0 .1-.1.3-.2.3zM515.4 487.7h-17.8l-2.2-14.6c0-.1.1-.3.2-.3s.3.1.3.2l2.2 14.2h16.7l-4.1-22c0-.1.1-.3.2-.3s.3.1.3.2l4.2 22.6z" fill="#000000" class="color000000 svgShape"></path><path fill="#ffffff" d="M164.4 487.4h17.2l23.6-154.9h-11.9z" class="colorffffff svgShape"></path><path d="M186.3 456.5c-.2 0-.3-.2-.2-.3l18.8-123.5-12.4.4-21.1 117.8c0 .1-.2.2-.3.2-.1 0-.2-.2-.2-.3l21.2-118.2 13.4-.4v.3l-18.8 123.8c-.1.1-.2.2-.4.2zM181.8 487.7H164l4.2-22.6c0-.1.2-.2.3-.2.1 0 .2.2.2.3l-4.1 22h16.7l2.2-14.2c0-.1.2-.2.3-.2.1 0 .2.1.2.3l-2.2 14.6z" fill="#000000" class="color000000 svgShape"></path><path fill="#ffffff" d="M173.9 319.1h331.8v18.4H173.9z" class="colorffffff svgShape"></path><path d="M288.4 326.4h-45.5c-.1 0-.3-.1-.3-.3s.1-.3.3-.3h45.5c.1 0 .3.1.3.3s-.1.3-.3.3zM307 329h-23.5c-.1 0-.3-.1-.3-.3s.1-.3.3-.3H307c.1 0 .3.1.3.3s-.2.3-.3.3zM428.3 325.1h-24.4c-.1 0-.3-.1-.3-.3s.1-.3.3-.3h24.4c.1 0 .3.1.3.3s-.1.3-.3.3z" fill="#000000" class="color000000 svgShape"></path><path d="M510.4 334.7c-.1 0-.3-.1-.3-.3v-15.1H183.6c-.1 0-.3-.1-.3-.3s.1-.3.3-.3h326.9c.1 0 .3.1.3.3v15.3c-.1.3-.2.4-.4.4zM498.2 337.8h-329c-.1 0-.3-.1-.3-.3v-9.2c0-.1.1-.3.3-.3s.3.1.3.3v9h328.8c.1 0 .3.1.3.3s-.2.2-.4.2z" fill="#000000" class="color000000 svgShape"></path><path fill="#509eec" d="M138.4 420.1s-9.8 1.4-13 9.6c-1.7 4.5-5.2 9.2-9.2 12.3-5.1 3.9-11 5.3-15.5 1-3.1-3-4.5-15 6.9-20.7 12.8-6.4 21.4-5.8 26.2-4.4 3.1 1 4.6 2.2 4.6 2.2z" class="color50ece5 svgShape"></path><path fill="#4582bf" d="M133.9 418c-.6.6-1.4.6-2.6.7-4.2.2-8.3.9-12.3 2.1-2.2.7-4.5 1.5-6.6 2.5-1.8.8-3.6 1.8-5.1 3.2-1.4 1.4-2.5 3.3-2.6 5.3-.1 2.4 1.4 4.7 3.1 6.3 2.3 2.1 5.2 3.5 8.3 3.9-5.1 3.9-11 5.3-15.5 1-3.1-3-4.5-15 6.9-20.7 13-6.4 21.6-5.8 26.4-4.3z" class="color45b2bf svgShape"></path><path fill="#4582bf" d="M143 430.1c-2.4 5.1-14.4-3.2-17.5-.4 3.2-8.3 13-9.6 13-9.6s6.9 4.9 4.5 10z" class="color45b2bf svgShape"></path><path d="M107.1 446c-2.5 0-4.7-.9-6.6-2.7-1.6-1.5-2.8-5.2-2.2-9.4.4-3 2.2-8.4 9.1-11.9 20.8-10.4 30.7-2.5 31.1-2.2l.7.5-.8.1c-.1 0-9.6 1.4-12.7 9.4-2.9 7.6-9.9 14.5-16.3 15.9-.7.2-1.5.3-2.3.3zm20-28.6c-4.8 0-11.2 1.2-19.2 5.2-6.6 3.3-8.3 8.5-8.7 11.3-.6 4 .5 7.4 1.9 8.8 2.3 2.2 5.1 3 8.3 2.2 6-1.3 12.9-8.1 15.7-15.4 2.6-6.9 9.8-9.1 12.3-9.7-1.3-.7-4.8-2.4-10.3-2.4z" fill="#000000" class="color000000 svgShape"></path><path d="M139.8 432.2c-1.9 0-4.3-.7-6.6-1.4-3.1-.9-6.3-1.9-7.5-.8l-1.2 1.1.6-1.5c3.2-8.4 13.1-9.9 13.2-9.9h.1l.1.1c.3.2 7.2 5.2 4.7 10.5-.5 1.4-1.8 1.9-3.4 1.9zm-12.3-3.5c1.7 0 3.8.6 6 1.3 3.9 1.2 8 2.4 9.2-.1 2.1-4.4-3.4-8.8-4.3-9.5-1.2.2-8.9 1.8-12.1 8.4.3 0 .7-.1 1.2-.1z" fill="#000000" class="color000000 svgShape"></path><path fill="#5377ff" d="M116.8 408.9c-4 13.8-13.1 18.1-17.9 16.1-.8-.3-1.5-.8-2.1-1.3-5.7-5.1.6-17.7.3-23.4-.5-7.5-8.6-27.7 2.8-30.8.6-.2 1.2-.3 1.8-.3 14.1-1.5 19.9 22.9 15.1 39.7z" class="colorff7e53 svgShape"></path><path fill="#415fd0" d="M116.8 408.9c-4 13.8-13.1 18.1-17.9 16.1-.8-.3-1.5-.8-2.1-1.3l.1-.1c1.3-.9 2.8-1.5 4.2-2.2 6.5-3.2 10.5-10.3 11.5-17.5 1-7.2-.5-14.5-2.6-21.4-1-3.1-2.2-6.3-4.3-8.8-1.2-1.5-2.8-2.6-4.6-3.4-.6-.3-1.1-.6-1.3-.9.6-.2 1.2-.3 1.8-.3 14.2-1.4 20 23 15.2 39.8z" class="colord04e41 svgShape"></path><path d="M101.3 425.9c-.9 0-1.8-.2-2.5-.5-6.7-2.8-4.8-11.1-3.2-17.8.6-2.8 1.3-5.4 1.1-7.2-.1-1.7-.6-4.2-1.2-7-1.6-7.3-3.5-16.4 0-21.3 1.4-1.9 3.4-3 6.2-3.3 4-.4 7.7 1.2 10.6 4.7 6.3 7.6 8.5 23.2 4.9 35.5-2.2 7.6-6.4 13.3-11.4 15.7-1.6.8-3.1 1.2-4.5 1.2zm-2.3-1.2c1.7.7 4.1.5 6.4-.6 4.8-2.3 8.8-7.9 11-15.3 3.5-12.1 1.4-27.4-4.8-34.8-2.8-3.3-6.1-4.8-9.9-4.4-2.6.3-4.4 1.2-5.7 3-3.3 4.6-1.4 13.5.1 20.7.6 2.9 1.1 5.3 1.3 7.1.1 1.9-.5 4.6-1.2 7.4-1.5 6.7-3.3 14.4 2.8 16.9z" fill="#000000" class="color000000 svgShape"></path><path fill="#214ffd" d="M89.2 423.5s-1.2 1-3.2 1.1c-1.8.1-4.1-.5-6.9-3-1.7-1.5-3.4-3.5-5.3-5.4-4.5-4.8-9.7-9-16.6-4.2 0 0 1.4-3.3 5-6.2 2.5-2 6.1-3.7 11-4 14.2-1.1 26 13.8 16 21.7z" class="colorfdd621 svgShape"></path><path fill="#0438fc" d="M89.2 423.5s-1.2 1-3.2 1.1c0-1.3.5-2.7 1.1-3.9 1-1.9 2.2-3.8 2-5.9-.1-1.9-1.4-3.5-2.7-4.9-3.3-3.2-7.7-5.4-12.3-5.9-4-.5-8.2.2-11.9 1.9 2.5-2 6.1-3.7 11-4 14.2-1.2 26 13.7 16 21.6z" class="colorfc9c04 svgShape"></path><path fill="#0438fc" d="M73.8 416.1s-7.7 11.5-14.5 8.2c-6.8-3.4-2.1-12.4-2.1-12.4 6.9-4.8 12.1-.5 16.6 4.2z" class="colorfc9c04 svgShape"></path><path d="M85.7 424.9c-1.8 0-4.2-.7-6.8-3-1.2-1.1-2.4-2.4-3.7-3.8-.5-.6-1-1.1-1.6-1.7-4.5-4.7-9.4-8.9-16.1-4.2l-1 .7.5-1.2c0-.1 4.1-9.6 16.3-10.4 9.2-.6 17.1 5.2 19.4 11.2 1.7 4.3.5 8.4-3.1 11.2-.3.1-1.7 1.2-3.9 1.2zm-22.5-15.5c4.3 0 7.8 3.2 10.9 6.4.5.6 1.1 1.1 1.6 1.7 1.3 1.4 2.5 2.7 3.7 3.7 5.6 5 9.5 2 9.6 1.9 3.4-2.7 4.4-6.4 2.9-10.4-2.2-5.7-9.8-11.3-18.6-10.7-9.2.6-13.5 6.3-15 8.8 1.7-1 3.3-1.4 4.9-1.4z" fill="#000000" class="color000000 svgShape"></path><path d="M62 425.3c-.9 0-1.9-.2-2.8-.7-1.8-.9-3-2.2-3.5-3.9-1.3-4 1.2-8.7 1.3-8.9l.1-.1c7.3-5 12.6-.4 17.1 4.2l.2.2-.2.2c-.3.4-6.1 9-12.2 9zm-4.5-13.1c-.3.6-2.3 4.8-1.2 8.3.5 1.5 1.6 2.7 3.1 3.5 5.9 2.9 12.7-6.2 13.9-7.8-4.3-4.6-9.2-8.6-15.8-4zM90.9 453.9c0-.3-1.3-31.6-5.2-38.5-5-8.9-12.2-9-12.3-9v-.8c.3 0 7.8.1 13 9.3 4 7.1 5.3 37.6 5.3 38.9l-.8.1zM92.9 453.9c-1.1-5.9 4.4-25.2 7.9-31.9 3.5-6.6 3.2-26 3.2-26.2h.8c0 .8.3 19.9-3.3 26.6-3.5 6.6-8.9 25.6-7.8 31.4l-.8.1zM97.5 453.9l-.7-.1c3.6-23.9 26.7-33.5 27-33.6l.3.7c-.4.1-23.2 9.6-26.6 33z" fill="#000000" class="color000000 svgShape"></path><path fill="#ffffff" d="M73.9 450.9h40v11.8h-40zM111 462.7H76.8l4.9 24.8h24.4z" class="colorffffff svgShape"></path><path d="m111 462.7-32.6 8-1.6-8z" fill="#000000" class="color000000 svgShape"></path><path d="M114.3 463.1H73.6v-12.6h40.7v12.6zm-40-.7h39.2v-11.1H74.3v11.1z" fill="#000000" class="color000000 svgShape"></path><path d="M106.4 487.9h-25l-5-25.6h35.1l-5.1 25.6zm-24.4-.7h23.8l4.7-24.1H77.3l4.7 24.1z" fill="#000000" class="color000000 svgShape"></path><path d="m78.1 471.2-1.7-8.8h37.7l-36 8.8zm-.8-8.1 1.4 7.2 29.2-7.2H77.3z" fill="#000000" class="color000000 svgShape"></path><g opacity=".3" fill="#000000" class="color000000 svgShape"><path fill="#ffffff" d="M115.9 430.6c.8 0 1.5-.3 2.1-.8.9-.6 2.3-2 1.7-3.3-.4-.8-1.3-.7-2.1-.5-1 .3-2.1 1-2.7 1.8-1 1.2-.7 2.8 1 2.8z" class="colorffffff svgShape"></path></g><path fill="#ffffff" d="M223.5 247.4c-.5-.4-15.9-11.6-22.6-14-.3-.1-.5-.2-.7-.2-12.3-3.6-44.4-1.4-56.5-.4-2.5.2-5-1.8-5.3-4.3l-7.5-52.7c-.3-2.4 1.3-4.3 3.7-4.3h66.5c2.5 0 4.7 2 5 4.5 1.1 9.4 3.6 31.3 5.8 39.8 2 7.8 11.3 31 11.6 31.6z" class="colorffffff svgShape"></path><path fill="#f2f7fc" d="M223.5 247.4c-.5-.4-15.9-11.6-22.6-14 .8-.8 1.5-1.7 2.2-2.7 3.5-5.4 3.9-12.4 3.8-19.2-.2-7.2-1-14.5-2.3-21.8-1.1-6.2-2.7-12.3-4.6-18.3h1.3c2.5 0 4.7 2 5 4.5 1.1 9.4 3.6 31.3 5.8 39.8 1.8 7.9 11.1 31.1 11.4 31.7z" class="colorf2f6fc svgShape"></path><path d="M229.8 252.6s-.1-.1-.1-.3c-.1-.2-.2-.5-.4-.9-.3-.8-.8-2.1-1.5-3.7-1.3-3.3-3.3-8.3-5.8-15-1.2-3.4-2.6-7.1-4-11.4-1.4-4.3-2.1-9.2-3-14.5-.8-5.3-1.6-11.1-2.4-17.3-.4-3.1-.8-6.3-1.2-9.7-.1-.8-.2-1.7-.3-2.5-.1-.9-.2-1.7-.4-2.5-.5-1.6-1.4-3.1-2.7-4.3-.5-.5-1.1-.9-1.8-1.1-.6-.2-1.4-.1-2.2-.1h-69.6c-.3 0-.6.1-.9.3-.6.3-1 .9-1.4 1.6-.7 1.3-1 2.8-1 4.2.3 2.9.8 6 1.2 9l2.6 18.1 2.6 18.1 1.3 9 .3 2.3c.1.8.3 1.4.6 2.1.7 1.3 1.9 2.2 3.3 2.6.8.2 1.6.1 2.5.1.9-.1 1.8-.1 2.6-.2 1.7-.1 3.4-.2 5.1-.4 3.4-.2 6.6-.4 9.7-.5 6.3-.3 12.1-.4 17.5-.4s10.3.2 14.8.6c1.1.1 2.2.2 3.3.4 1.1.1 2.1.3 3.1.5 2 .4 3.9.8 5.5 1.6 3.3 1.5 5.9 3.2 8.2 4.6 2.3 1.4 4.1 2.7 5.6 3.7s2.6 1.8 3.3 2.3c.4.3.6.5.8.6.2.1.3.2.3.2s-.1 0-.3-.2c-.2-.1-.5-.3-.8-.5-.7-.5-1.9-1.2-3.3-2.2-1.5-1-3.4-2.2-5.6-3.6-2.3-1.4-5-3-8.2-4.5-1.6-.8-3.5-1.1-5.4-1.5-1-.1-2-.3-3.1-.5-1.1-.1-2.1-.2-3.2-.3-4.4-.4-9.4-.5-14.7-.5-5.4 0-11.2.2-17.4.5-3.1.2-6.4.3-9.7.6-1.7.1-3.4.2-5.1.4-.9.1-1.7.1-2.6.2-.8.1-1.8.2-2.8-.1-1.6-.4-2.9-1.5-3.7-2.9-.4-.7-.6-1.5-.7-2.3l-.3-2.3-1.3-9-2.6-18.1-2.6-18.1c-.4-3-.9-6-1.2-9.1 0-1.6.3-3.2 1.1-4.6.4-.7.9-1.4 1.6-1.8.4-.2.8-.4 1.2-.4H205.4c.4 0 .8 0 1.2.1.8.2 1.5.7 2 1.3 1.3 1.3 2.2 2.9 2.8 4.6.1.4.3.9.3 1.3.1.4.1.9.2 1.3.1.8.2 1.7.3 2.5.4 3.3.8 6.6 1.2 9.7.8 6.2 1.5 12 2.3 17.3.8 5.3 1.6 10.2 2.9 14.4 1.3 4.3 2.7 8 3.9 11.4 2.4 6.7 4.4 11.7 5.6 15 .6 1.7 1.1 2.9 1.4 3.7.2.4.3.7.3.9v.2z" fill="#000000" class="color000000 svgShape"></path><ellipse cx="135.8" cy="172.8" fill="#486bee" rx="10.6" ry="11.9" transform="rotate(-57.189 135.781 172.816)" class="coloree4857 svgShape"></ellipse><path d="M137 184.1c-6.5 0-12.3-5-12.9-11.2-.3-2.9.6-5.7 2.5-7.8 2-2.2 4.9-3.5 8.1-3.5 5.3 0 10.3 3.4 12.2 8.3 0 .1 0 .3-.1.3s-.3 0-.3-.1c-1.8-4.7-6.7-8-11.8-8-3.1 0-5.8 1.2-7.7 3.3-1.8 2-2.6 4.7-2.3 7.5.6 6 6.2 10.8 12.4 10.8 3.1 0 6-1.2 7.8-3.4.1-.1.3-.1.4 0 .1.1.1.2 0 .4-2.1 2.1-5.1 3.4-8.3 3.4z" fill="#000000" class="color000000 svgShape"></path><path fill="#ffffff" d="m141.5 170.6.4 4.4h-3.6l.4 3.5h-4.6l-.4-3.5h-3.6l-.5-4.4h3.7l-.4-3.4h4.6l.3 3.4z" class="colorffffff svgShape"></path><path fill="#71afee" d="M194.4 224.3h-39.1c-1.2 0-2.3-1.1-2.2-2.3l1.9-33.1c.1-.9.8-1.6 1.7-1.6h25.9c.9 0 1.8.7 2.1 1.6L196 222c.4 1.2-.3 2.3-1.6 2.3z" class="color71e9ee svgShape"></path><ellipse cx="178.9" cy="192.2" fill="#ffffff" rx="1.8" ry="2.1" transform="rotate(-47.026 178.915 192.176)" class="colorffffff svgShape"></ellipse><ellipse cx="161.6" cy="192.2" fill="#ffffff" rx="1.8" ry="2.1" transform="rotate(-47.026 161.558 192.176)" class="colorffffff svgShape"></ellipse><path d="M179 192.7c-.3 0-.5-.2-.6-.5l-1-7.1c-.3-2.2-1.4-4.2-3.2-5.8-1.8-1.5-3.9-2.4-6.1-2.4-4.5 0-7.7 3.7-7 8.2l1 7.1c0 .3-.2.5-.4.5s-.5-.2-.6-.5l-1-7.1c-.7-5.1 2.8-9.2 7.9-9.2 2.4 0 4.9 1 6.9 2.7 2 1.7 3.3 4 3.6 6.5l1 7.1c0 .3-.2.5-.5.5z" fill="#000000" class="color000000 svgShape"></path><path fill="#ffffff" d="M163.9 206.5c-.8-.6-1.3-1.4-1.5-2.5-.1-.3-.1-.7-.2-1.2s-.1-.9-.2-1.3c-.1-1.1.2-1.9.7-2.6.6-.6 1.5-.9 2.7-.9 1.2 0 2.2.3 3 .9.8.6 1.3 1.5 1.5 2.6.1.6.2 1.1.2 1.3 0 .2.1.6.1 1.2.1 1.1-.2 1.9-.8 2.5-.6.6-1.5.9-2.7.9-1 0-2-.3-2.8-.9zm3.7-1.5c.2-.3.3-.7.3-1.1 0-.6-.1-1-.1-1.1 0-.2-.1-.6-.2-1.1-.1-.5-.3-.8-.6-1.1-.3-.3-.7-.5-1.2-.5s-.8.2-1 .5c-.2.3-.3.7-.3 1.1 0 .3.1.6.1 1.1.1.4.1.8.2 1.1.1.4.3.8.6 1.1.3.3.7.5 1.2.5.4-.1.8-.2 1-.5zm-2.1 11.4c-.1-.1-.2-.2-.2-.4 0-.1 0-.2.1-.3l10.5-17.1c.1-.2.2-.3.3-.4.1-.1.3-.1.5-.1h1.4c.2 0 .3 0 .4.1.1.1.2.2.2.4 0 .1 0 .2-.1.3L168.2 216c-.1.2-.2.3-.3.4-.1.1-.3.1-.5.1H166c-.2 0-.3 0-.5-.1zm10.2-.7c-.8-.6-1.3-1.5-1.5-2.6-.1-.3-.1-.7-.2-1.2s-.1-.9-.1-1.2c-.1-1.1.2-1.9.7-2.6.6-.6 1.5-.9 2.7-.9 1.2 0 2.2.3 3 .9.8.6 1.2 1.5 1.5 2.6.1.6.2 1 .2 1.2 0 .2.1.6.1 1.2.1 1.1-.2 1.9-.8 2.6-.6.6-1.5 1-2.7 1-1.1 0-2.1-.3-2.9-1zm3.7-1.5c.2-.3.3-.7.2-1.1 0-.6-.1-1-.1-1.1 0-.2-.1-.5-.2-1s-.3-.8-.6-1.1c-.3-.3-.7-.5-1.2-.5s-.8.2-1 .5c-.2.3-.3.7-.3 1.1 0 .3.1.6.1 1 .1.5.1.8.2 1.1.1.4.3.8.6 1.1.3.3.7.5 1.2.5.6-.1.9-.2 1.1-.5z" class="colorffffff svgShape"></path></g></svg>