<svg width="119" height="17" viewBox="0 0 119 17" fill="none" xmlns="http://www.w3.org/2000/svg">
<path d="M67.5475 16.244H63.7119L67.6458 1.39355H71.383L67.5475 16.244Z" fill="#1B1A8E"/>
<path d="M63.7118 16.244H67.5474L63.6135 1.39355H59.9746L63.7118 16.244Z" fill="#2369E4"/>
<path d="M57.418 10.6382L59.975 1.39355H63.6139L61.2535 10.6382H57.418Z" fill="#1B1A8E"/>
<path d="M54.0742 1.39355C54.9593 1.39355 56.1395 1.39355 57.9098 1.39355L60.3685 10.6382H56.5329L54.0742 1.39355Z" fill="#2369E4"/>
<path d="M3.81892 1.39355L4.90074 5.52415C4.90074 5.52415 3.72057 6.40927 3.72057 8.57292C3.72057 10.7366 5.78586 12.4085 7.26108 12.4085C8.73629 12.4085 12.6702 12.4085 12.6702 12.4085L13.752 16.3424C13.752 16.3424 7.85116 16.3424 7.45777 16.3424C6.76934 16.3424 3.81892 16.244 1.55692 13.2936C-1.09846 9.85143 0.278408 5.81919 1.06519 4.44232C2.04866 2.67207 3.32718 1.78694 3.81892 1.39355Z" fill="#2369E4"/>
<path d="M10.3105 11.5233L13.9494 1.39355H17.1949L22.7023 16.244H20.0469L15.523 3.06546L12.6709 11.5233H10.3105Z" fill="black" stroke="black" stroke-width="0.5" stroke-miterlimit="10"/>
<path d="M34.208 12.605C34.208 13.7852 33.0278 14.7686 30.3724 14.7686C27.6187 14.7686 26.9302 11.8182 26.9302 11.8182H24.7666C24.7666 11.8182 24.8649 16.5389 30.3724 16.6372C33.4212 16.7356 36.4699 15.162 36.3716 12.3099C36.3716 11.2281 35.7815 10.048 34.1096 9.16283C32.6344 8.37605 29.8807 7.78596 29.3889 7.58927C28.2088 7.19588 27.0286 6.2124 27.0286 5.03223C27.0286 3.85206 28.2088 2.96694 30.8641 2.96694C33.6179 2.96694 34.208 5.81901 34.208 5.81901H36.3716C36.3716 5.81901 36.3716 1.29503 30.7658 1.19668C25.0616 1.09834 24.9633 4.93389 24.9633 4.93389C24.9633 8.081 28.2088 8.76944 28.2088 8.76944C28.2088 8.76944 30.8641 9.35952 32.7327 10.1463C33.9129 10.7364 34.208 11.1298 34.208 12.605Z" fill="black" stroke="black" stroke-width="0.5" stroke-miterlimit="10"/>
<path d="M49.6479 1.4917H39.0264V3.55699H49.6479V1.4917Z" fill="black" stroke="black" stroke-width="0.5" stroke-miterlimit="10"/>
<path d="M49.6479 7.88428H39.0264V9.94957H49.6479V7.88428Z" fill="black" stroke="black" stroke-width="0.5" stroke-miterlimit="10"/>
<path d="M49.6479 14.0801H39.0264V16.1454H49.6479V14.0801Z" fill="black" stroke="black" stroke-width="0.5" stroke-miterlimit="10"/>
<path d="M107.378 1.39355H105.116V16.3424H107.378V1.39355Z" fill="black" stroke="black" stroke-width="0.5" stroke-miterlimit="10"/>
<path d="M114.754 1.39355L117.606 1.4919L111.116 8.08118L118 16.244H115.049L109.542 9.3597V7.2944L114.754 1.39355Z" fill="black" stroke="black" stroke-width="0.5" stroke-miterlimit="10"/>
<path d="M91.5449 1.39355C91.5449 1.39355 97.5441 1.39355 98.0359 1.39355C98.5276 1.39355 102.265 1.88529 102.363 5.91754C102.363 9.45804 99.7078 10.5399 99.7078 10.5399L102.953 16.244H100.691L97.6425 10.8349H93.8069V16.1457H91.5449L91.6433 9.06465C91.6433 9.06465 95.6755 9.06465 97.1507 9.06465C98.6259 9.06465 100.396 8.37622 100.396 6.21258C100.396 4.34398 99.3144 3.3605 98.0359 3.3605C96.7573 3.3605 91.5449 3.3605 91.5449 3.3605V1.39355Z" fill="black" stroke="black" stroke-width="0.5" stroke-miterlimit="10"/>
<path d="M75.7115 9.16284C75.7115 12.2116 77.9735 14.4736 81.2189 14.4736C84.1694 14.4736 86.6281 12.0149 86.5297 8.86779C86.4314 5.13059 84.1694 3.26199 81.2189 3.26199V1C81.2189 1 88.6933 1 88.595 8.57275C88.4967 16.1455 82.3008 16.2439 81.3173 16.2439C80.2355 16.2439 74.0396 16.3422 73.5479 8.96614L75.7115 9.16284Z" fill="black" stroke="black" stroke-width="0.5" stroke-miterlimit="10"/>
</svg>
