<svg xmlns="http://www.w3.org/2000/svg" enable-background="new 0 0 3000 3000" viewBox="0 0 3000 3000" id="Challengeachievementtarget"><polygon fill="#3d4b80" points="968.28 2124.94 832.5 1854.48 105.41 1854.48 105.41 1831.17 846.9 1831.17 961.63 2059.73 1072.01 1648.18 1118.11 1834.73 1189 1834.73 1223.29 1952.49 1277.7 1824.04 1369.33 1824.04 1410.13 1683.27 1491.74 1824.04 1588.04 1824.04 1643.42 1952.55 1672.52 1816.02 1769.02 1816.02 1852.32 1471.76 2002.23 1799.98 2903.04 1799.98 2903.04 1823.3 1987.25 1823.3 1859.13 1542.78 1787.38 1839.34 1691.4 1839.34 1650.98 2028.96 1572.69 1847.36 1478.31 1847.36 1417.33 1742.18 1386.84 1847.36 1293.14 1847.36 1219.21 2021.89 1171.52 1858.05 1099.85 1858.05 1071.07 1741.63" class="color3d5a80 svgShape"></polygon><circle cx="105.42" cy="1838.14" r="55.42" fill="#2888e8" class="color2896e8 svgShape"></circle><circle cx="105.42" cy="1838.14" r="34.98" fill="#fafbfc" class="colorfafafc svgShape"></circle><circle cx="2894.58" cy="1810.51" r="55.42" fill="#2888e8" class="color2896e8 svgShape"></circle><circle cx="2894.58" cy="1810.51" r="34.98" fill="#fafbfc" class="colorfafafc svgShape"></circle><path fill="#3660ff" d="M2881.64,1242.87c0,0-66.84-8.33-99.21,20.59c-3.89,3.47-7.85,6.81-12.41,9.35
			c-13.3,7.42-41.09,17.95-81.26,8.05c-9.86-2.43-19.15-6.72-27.87-11.92c-20.31-12.09-71.3-34.36-116.45,12.14
			c0,0,66.38,34.25,88.65,78.48c0,0,17.93,37.7,77.13,51.43c13.79,3.2,28.04,3.74,42.15,2.62c30.61-2.43,102.59-2.22,133.4,48.53
			L2881.64,1242.87z" class="colorff3f36 svgShape"></path><path fill="#2b54ed" d="M2885.75,1462.11c-1.06-1.75-2.19-3.5-3.39-5.15l-3.65-195.19c0,0-66.83-8.31-99.22,20.61
			c-3.83,3.47-7.82,6.78-12.39,9.31c-13.31,7.46-41.09,17.95-81.26,8.1c-9.82-2.46-19.11-6.74-27.88-11.95
			c-18.18-10.78-60.88-29.76-102.03-0.28c-7.03-4.12-11.49-6.46-11.49-6.46c45.17-46.53,96.1-24.26,116.43-12.2
			c8.77,5.21,18.06,9.49,27.88,11.95c40.17,9.91,67.95-0.65,81.25-8.04c4.57-2.53,8.57-5.91,12.4-9.37
			c32.39-28.92,99.22-20.61,99.22-20.61L2885.75,1462.11z" class="colored2b2b svgShape"></path><polygon fill="#021b79" points="2885.89 1810.51 2873.25 1242.63 2873.18 1238.84 2873.14 1236.93 2873.07 1233.09 2873.08 1233.08 2872.98 1228.25 2888.44 1227.96 2888.67 1239.85 2888.74 1243.71 2888.77 1245.1 2888.84 1248.88 2901.35 1810.23" class="color293241 svgShape"></polygon><path fill="#021b79" d="M2867.06,1229.02c0.14,7.47,6.31,13.41,13.78,13.27s13.41-6.31,13.27-13.78s-6.31-13.41-13.78-13.27
			S2866.92,1221.55,2867.06,1229.02z" class="color293241 svgShape"></path><path fill="#1f2333" d="M2886.5,1240.85c1.75-2.33,2.76-5.21,2.75-8.39c-0.13-7.43-6.31-13.39-13.8-13.27
			c-2.04,0.07-3.95,0.53-5.68,1.47c2.4-3.24,6.2-5.32,10.59-5.41c7.44-0.19,13.62,5.77,13.74,13.26
			C2894.22,1233.93,2891.08,1238.7,2886.5,1240.85z" class="color1f2733 svgShape"></path><g fill="#000000" class="color000000 svgShape"><rect width="36.49" height="47.24" x="386.85" y="1759.5" fill="#82c0fe" transform="rotate(-2.04 405.084 1783.064)" class="colorfeb582 svgShape"></rect><path fill="#021b79" d="M425.8,1785.84c0,0,46.31,29.5,48.95,31.84c2.88,2.56,2.58,4.21,2.44,5.59
								c-0.43,4.22-4.02,7.84-8.7,7.91l-84.71,0.02c-0.62,0-1.15-0.45-1.25-1.07c-0.4-2.44-0.71-4.73-0.95-6.87
								c-1.73-15.75,0.76-31.79,3.08-36.96c0.25-0.55,1.02-0.54,1.27,0.01c7.18,15.87,30.15,14.51,37.24,0.48
								C423.66,1785.83,424.81,1785.4,425.8,1785.84z" class="color293241 svgShape"></path><path fill="#1c202d" d="M477.19,1823.27c-0.43,4.22-4.02,7.84-8.7,7.91l-84.71,0.02c-0.62,0-1.15-0.45-1.25-1.07
								c-0.4-2.44-0.71-4.73-0.95-6.87L477.19,1823.27L477.19,1823.27z" class="color1c232d svgShape"></path><rect width="47.25" height="36.49" x="244.26" y="1764.72" fill="#82c0fe" transform="rotate(-88.206 267.881 1782.977)" class="colorfeb582 svgShape"></rect><path fill="#021b79" d="M288.41,1785.84c0,0,46.31,29.5,48.95,31.84c2.88,2.56,2.58,4.21,2.44,5.59
								c-0.43,4.22-4.02,7.84-8.7,7.91l-84.71,0.02c-0.62,0-1.15-0.45-1.25-1.07c-0.4-2.44-0.71-4.73-0.95-6.87
								c-1.73-15.75,0.76-31.79,3.08-36.96c0.25-0.55,1.02-0.54,1.27,0.01c7.18,15.87,30.15,14.51,37.24,0.48
								C286.27,1785.83,287.42,1785.4,288.41,1785.84z" class="color293241 svgShape"></path><path fill="#1c202d" d="M339.8,1823.27c-0.43,4.22-4.02,7.84-8.7,7.91l-84.71,0.02c-0.62,0-1.15-0.45-1.25-1.07
								c-0.4-2.44-0.71-4.73-0.95-6.87L339.8,1823.27L339.8,1823.27z" class="color1c232d svgShape"></path><path fill="#021b79" d="M431.83,1768.62l-53.54,1.22l-45.83-399.5c-0.34-2.2-3.49-2.23-3.88-0.04l-32.03,398.93l-57.8,0.61
					l7.15-483.41l166.9-11.82L431.83,1768.62z" class="color293241 svgShape"></path><path fill="#2888e8" d="M533.5,1162.32l-25.28,31.26l-58.94,65.97l-25.08-34.75c0.06-1.37,0.11-2.74,0.17-4.08l48.35-68.82
				l-44.38-41.11c-0.53,17.29-1.9,59.21-3.97,109.94l-1.54,2.18l1.37,1.9c-1.2,28.77-2.6,60.22-4.22,91.53
				c-67.87,12.79-119.91,7.18-185.71-10.84c0,0,12.77-67.31,5.53-178.06c-0.56-8.21-0.7-16.45-0.53-24.72l-50.11,38.71l43.35,75.19
				l-29.63,34.13l-52.79-70.95l-22.4-33.41c-8.63-12.93-6.09-30.33,5.92-40.19l100.36-82.54c1.73-1.28,3.49-2.49,5.31-3.6
				c6.79-4.13,14.25-7.09,22.01-8.74l30.31-6.37l9.27-1.96c2.96-0.47,5.89-0.89,8.85-1.26c16.17-1.96,32.51-1.68,48.6,0.64
				c4.92,0.75,9.83,1.68,14.72,2.79l0.2,0.08l38.96,10.81c7.63,2.15,14.83,5.64,21.17,10.31c1.73,1.29,3.66,2.79,5.25,4.22
				l92.56,91.17C542.27,1132.65,543.28,1150.19,533.5,1162.32z" class="color2896e8 svgShape"></path><path fill="#2888e8" d="M424.38,1220.72c-0.06,1.34-0.11,2.71-0.17,4.08l-1.37-1.9L424.38,1220.72z" class="color2896e8 svgShape"></path><g fill="#000000" class="color000000 svgShape"><path fill="#222328" d="M297.4,960.76c0,0,1.27,11.56,5.82,17.19l0.23-14.3l-4.23-7.09L297.4,960.76z" class="color222824 svgShape"></path><path fill="#82c0fe" d="M300.88,946.89c0,0-3.66,22.09,6.15,40.16c6.02,11.09,17.89,17.34,30.5,16.99
					c26.18-0.71,40.22-24.11,33.42-82.69L326.8,898.6l-30.83,16.36L300.88,946.89z" class="colorfeb582 svgShape"></path><path fill="#82c0fe" d="M308.93,980.53l1.22,28.87c0.55,12.89,11.09,23.11,23.99,23.24l0,0c14.29,0.15,25.62-12.03,24.44-26.27
					L356.89,986L308.93,980.53z" class="colorfeb582 svgShape"></path><path fill="#222328" d="M300.46,949.34c0,0,5.58-3.96,3.87-13.06c9.79-4.2,14.45-11.97,9.25-26.59c0,0,44.03,26.1,66.51,15.34
					c0,0,10.6-6.08,3.6-17.17c-0.64-13.2-4.54-22.51-15.02-24.05l-13.24,2.03c0,0-17.7-15.28-33.8-9.46c0,0-22.63,5.7-26.66,16.64
					c0,0-17.24,0.43-13.29,20.94l9.34,28.73l1.11,7.93L300.46,949.34z" class="color222824 svgShape"></path><path fill="#82c0fe" d="M304.99,950.87c0.92,6-1.98,11.42-6.49,12.11c-4.5,0.69-8.9-3.61-9.82-9.6c-0.92-6,1.98-11.42,6.49-12.11
					C299.67,940.57,304.07,944.87,304.99,950.87z" class="colorfeb582 svgShape"></path></g><g fill="#000000" class="color000000 svgShape"><path fill="#0575e6" d="M373.23 1005.24l-4.19 6.61-13.94 21.93-2.15-.34-12.7-1.96 17.99-29.1h.04c2.49.38 4.98.79 7.47 1.26 2.43.47 4.85.98 7.27 1.53L373.23 1005.24zM329.09 1032.27l-13.24 4.02-1.15.35-14.75-20.23-8.35-11.45 9.27-1.95c.79-.13 1.59-.26 2.39-.39 2.19-.34 4.43-.63 6.59-.89l.04.07L329.09 1032.27z" class="color1d8bce svgShape"></path><polygon fill="#ffffff" points="345.9 1030.01 336.19 1038.8 325.33 1031.47 335.05 1022.68" class="colorffffff svgShape"></polygon><path fill="#ffffff" d="M328.01,1032.15c0,0,2.39,113.5-16.91,157.28l20.37,31.92l24.61-29.38c0,0-11.14-154.91-13.26-160.43
					L328.01,1032.15z" class="colorffffff svgShape"></path></g><path fill="#82c0fe" d="M263.55,1249.15c1.82,1.64,1.99,4.44,0.35,6.28c-0.87,0.97-2.09,1.47-3.32,1.47c-1.04,0-2.09-0.35-2.94-1.12
				l0.31,0.29c2.07,1.85,2.24,5,0.41,7.05c-0.97,1.1-2.34,1.68-3.73,1.68c-1.16,0-2.34-0.41-3.3-1.26l-1.8-1.6
				c1.68,1.87,1.72,4.75,0.02,6.66c-0.99,1.12-2.36,1.68-3.73,1.68c-1.18,0-2.36-0.41-3.32-1.26l-1.22-1.08
				c1.95,1.72,2.12,4.71,0.39,6.64c-0.93,1.06-2.24,1.6-3.52,1.6h-0.02c-1.12,0-2.22-0.39-3.11-1.2l-19.53-17.39l-8.48-11.57
				l23.26-26.79c2.63,1.45,6.86,2.65,11.3,3.56c6.18,1.27,12.75,1.97,15.94,2.03c3.23,0.23,6.28,0.21,7.63,2.3
				c0.46,0.68,0.73,1.43,0.85,2.2c0.48,3.01-1.87,5.74-4.89,6.18l-12.75,0.15L263.55,1249.15z" class="colorfeb582 svgShape"></path><path fill="#2888e8" d="M424.38,1220.72c-0.06,1.34-0.11,2.71-0.17,4.08l-1.37-1.9L424.38,1220.72z" class="color2896e8 svgShape"></path><path fill="#82c0fe" d="M389.02,1252.53c-1.96,1.47-2.38,4.24-0.91,6.22c0.78,1.05,1.96,1.65,3.17,1.76
				c1.03,0.09,2.12-0.17,3.03-0.85l-0.34,0.26c-2.23,1.65-2.68,4.78-1.04,6.99c0.87,1.18,2.18,1.88,3.57,2.01
				c1.15,0.1,2.37-0.2,3.4-0.97l1.94-1.43c-1.84,1.71-2.14,4.58-0.62,6.63c0.89,1.2,2.21,1.88,3.57,2.01
				c1.18,0.1,2.39-0.2,3.42-0.96l1.31-0.96c-2.09,1.54-2.53,4.5-0.98,6.57c0.84,1.14,2.09,1.79,3.37,1.91h0.02
				c1.12,0.1,2.24-0.19,3.21-0.92l21-15.58l9.48-10.77l-20.78-28.76c-2.75,1.21-7.07,2.03-11.57,2.54
				c-6.27,0.71-12.88,0.82-16.06,0.6c-3.24-0.06-6.27-0.35-7.8,1.61c-0.52,0.64-0.85,1.36-1.04,2.11c-0.74,2.95,1.35,5.89,4.32,6.59
				l12.69,1.28L389.02,1252.53z" class="colorfeb582 svgShape"></path></g></svg>