<svg xmlns="http://www.w3.org/2000/svg" enable-background="new 0 0 3000 3000" viewBox="0 0 3000 3000" id="Challengestoachieveasuccessmilestone"><path fill="#344583" d="M2975,2418.1H648.1l216.7-473.9l43-94c103.6-138.4,232.8-183.4,389-130.5
						c128.6,13.3,230.2-221.5,289.4-379.6l0.1-0.1c11.2-29.8,21.4-62,30.6-96.5l13.9-160.2l232.2-34.9h0.2l72.9-1.3
						c0.2,0.1,0.4,0,0.6,0l188.2-3.2c6.8,18.1,13.6,36.1,20.5,54.2c113.3,298.1,221.6,730.8,355.6,1005.2
						c9.1,18.5,18.2,37,27.3,55.5c0,0,212.5-141,370.2,104.1c0.4,0.6,0.8,1.3,1.2,1.9L2975,2418.1z" class="color834e34 svgShape"></path><path fill="#253368" d="M860.2 2067.2L773 2309.7l-54.2 108.5c0 0 143.8-119.2 141.4-122.5-2.5-3.3 92.9-197.2 92.9-197.2l60.8-85.5-90.4 67.4L860.2 2067.2zM859.4 2418.1c40.2-53.1 88.7-118.1 92.6-126.5l-39.8 126.5H859.4zM1192.7 2418.1c20.6-27.8 36.5-50 38.7-54.8l-17.2 54.8H1192.7zM1536.2 2418.1c36.6-48.5 74.8-99.9 78.2-107.4l-33.8 107.4H1536.2zM1225.1 2040.9c-.9 4.5-102.2 275.4-140.3 377.2H957.9C1033.3 2310.6 1225.9 2036.5 1225.1 2040.9zM1508.1 1994v424.1h-206.4C1383.6 2247.7 1508 1989.6 1508.1 1994zM2309.7 2418.1h-433.8c15.1-187.3 46.3-531.7 47.8-539.9 0 9.8 157.8 448.7 161.1 442.1 3.3-6.6 97-210.4 97-200.5C2181.6 2126 2255.1 2294.3 2309.7 2418.1zM2392 2409.1c-8.2-11.5-330.4-685.4-330.4-685.4h82.2c0 0-120.2-454.7-115.2-444.9 4.9 9.9 80.5 46 80.5 46l8.2-87.1 238.5 756.2L2180 1797.7 2392 2409.1z" class="color683725 svgShape"></path><g fill="#000000" class="color000000 svgShape"><path fill="#eeeeee" d="M2117.4,979.3l54.2,117.9c0,0-31.2,12.3-94.5-27.9l13.1,203l-58.3-71.5l-78.1-83l-31.2,124.9l-52.6-59.2
								v-72.3c0,0-38.6,78.1-40.3,75.6c-1.6-2.5-23.8-61-23.8-61s-41.1,42.9-41.1,39.7c0-3.3-13.1-44.4-13.1-44.4l-51,185.7
								l-20.5-137.2l-23.8-46c0,0-35.3,120.8-39.4,120c-4.1-0.8-15.2-23-15.2-25.5c0-2.5-2.9-176.7,54.7-238.7l224.4-24.2
								c0,0,59.2,0,64.9,0C1951.4,955.1,2117.4,979.3,2117.4,979.3z" class="coloreeeeee svgShape"></path><ellipse cx="1886.8" cy="979.3" fill="#e0e0e0" rx="230.5" ry="69.4" class="colore0e0e0 svgShape"></ellipse></g><path fill="#eeeeee" d="M2887.6,2264.4c-44.1-9.3-92.8-65.1-96.7-73.9c1.7,9.2,9.6,72.3,9.6,72.3s-63.3-72.3-64.1-78.8
							c-0.8-6.6,0.9,49.3,0.9,49.3l-89.6-61.6c-51,41-71.5,4.1-71.5,4.1l6.6,57.5c0,0-21.4-9.8-46.9-21.9
							c-13.1-38.4-34.3-102.3-34.7-108.1c70.5-59.4,172.8-50,172.8-50c119-1.3,202.9,135,231.1,188.4
							C2911.4,2253.6,2900.8,2267.2,2887.6,2264.4z" class="coloreeeeee svgShape"></path><polygon fill="#253368" points="2535.8 2211.4 2623.8 2418.1 2582.7 2233.3" class="color683725 svgShape"></polygon><path fill="#253368" d="M1586.2,1340.2L1465,1842l-168.2-122.3C1425.4,1733,1527.1,1498.2,1586.2,1340.2z" class="color683725 svgShape"></path><g fill="#000000" class="color000000 svgShape"><path fill="#344583" d="M1878.9,2418.1H25l172.7-377.6l34.3-74.9c82.5-110.3,185.5-146.2,310-104
						c102.4,10.6,177.9-24.4,225.1-150.3l0.1-0.1c8.9-23.7,17-49.4,24.4-76.9l11.1-127.7l185-27.8h0.2l58.1-1c0.2,0.1,0.3,0,0.5,0
						l150-2.6c5.4,14.4,10.8,28.8,16.3,43.2c90.2,237.5,182.1,430.2,288.8,648.8c7.2,14.8,14.5,29.5,21.8,44.2
						c0,0,169.3-112.4,295,82.9c0.3,0.5,0.6,1,1,1.5L1878.9,2418.1z" class="color834e34 svgShape"></path><path fill="#253368" d="M193.9 2138.6l-69.4 193.2-43.2 86.4c0 0 114.6-94.9 112.6-97.6-2-2.6 74-157.1 74-157.1l48.5-68.1-72 53.7L193.9 2138.6zM193.3 2418.1c32-42.3 70.7-94.1 73.7-100.8l-31.7 100.8H193.3zM458.9 2418.1c16.4-22.2 29.1-39.8 30.9-43.6l-13.7 43.6H458.9zM732.6 2418.1c29.1-38.6 59.6-79.6 62.3-85.6l-27 85.6H732.6zM484.7 2117.6c-.7 3.6-81.4 219.4-111.8 300.5H271.8C331.9 2332.5 485.4 2114.1 484.7 2117.6zM710.2 2080.2v337.9H545.7C611 2282.4 710.1 2076.7 710.2 2080.2zM1348.8 2418.1h-345.7c12.1-149.3 36.9-423.7 38-430.1 0 7.8 125.7 357.5 128.3 352.3 2.6-5.2 77.2-167.7 77.2-159.8C1246.8 2185.4 1305.4 2319.5 1348.8 2418.1zM1414.5 2411c-6.5-9.2-263.2-546.1-263.2-546.1h65.5c0 0-101.2-210.2-97.3-202.3 3.9 7.9 64.2 36.7 64.2 36.7l6.5-69.4 195.5 450.4-140.1-156.4L1414.5 2411z" class="color683725 svgShape"></path><path fill="#eeeeee" d="M302.6,1933c-0.6,1.7-54.6,104.6-91.6,112.2c-9.1,1.9-17.5-5.9-17.4-15.2c0.3-28.9,10-117.6,110.5-206.3
							c29.4-25.9,70.1-35.2,107.9-24.9c31.6,8.7,74.3,26.8,129.9,62.9c11.1,7.2,12.4,22.8,3,32c-7.2,7-16.9,12.9-28.8,11.7
							l22.9,28.2c0,0-26.2,31.4-108.7-46.5l-15.1,57c0,0-9.2-48.5-35.4-56.3c0,0-6.5,70.1-33.4,73.3l-18.3-26.2l-22.3,49.8
							L302.6,1933z" class="coloreeeeee svgShape"></path><g fill="#000000" class="color000000 svgShape"><path fill="#eeeeee" d="M1190.1,1423.9l43.2,94c0,0-24.9,9.8-75.3-22.3l10.5,161.7l-46.5-57l-62.2-66.1l-24.9,99.5l-41.9-47.1
								V1529c0,0-30.8,62.2-32.1,60.2c-1.3-2-19-48.6-19-48.6s-32.7,34.2-32.7,31.6s-10.5-35.4-10.5-35.4l-40.6,148l-16.4-109.3
								l-19-36.7c0,0-28.2,96.3-31.4,95.6c-3.3-0.7-12.1-18.3-12.1-20.3c0-2-2.3-140.8,43.5-190.2l178.8-19.3c0,0,47.1,0,51.7,0
								C1057.8,1404.6,1190.1,1423.9,1190.1,1423.9z" class="coloreeeeee svgShape"></path><ellipse cx="1006.4" cy="1423.9" fill="#e0e0e0" rx="183.7" ry="55.3" class="colore0e0e0 svgShape"></ellipse></g><path fill="#eeeeee" d="M1809.3,2295.7c-35.1-7.4-73.9-51.9-77-58.9c1.3,7.4,7.6,57.6,7.6,57.6s-50.4-57.6-51.1-62.8
							c-0.6-5.3,0.7,39.3,0.7,39.3l-71.4-49.1c-40.6,32.7-57,3.3-57,3.3l5.2,45.8c0,0-17.1-7.8-37.4-17.4
							c-10.4-30.6-27.4-81.5-27.6-86.2c56.2-47.3,137.7-39.8,137.7-39.8c94.8-1,161.6,107.5,184.1,150.1
							C1828.2,2287,1819.8,2297.9,1809.3,2295.7z" class="coloreeeeee svgShape"></path><polygon fill="#253368" points="1529 2253.4 1599.1 2418.1 1566.4 2270.8" class="color683725 svgShape"></polygon><path fill="#253368" d="M766.9,1711.4l-91.1,247.7l-134-97.4C644.3,1872.3,719.8,1837.3,766.9,1711.4z" class="color683725 svgShape"></path></g><g fill="#000000" class="color000000 svgShape"><path fill="#9bc9f7" d="M1117.2,845.3l7.1-4.5c1.4-0.7,2.4-2,2.8-3.5l1.8-6.5c0.3-1.2,1.6-1.9,2.9-1.6l0,0c1,0.3,1.7,1.2,1.8,2.3
			l0.1,6c0,1.6,1.5,2.8,3.1,2.6l16-2.2c1.2-0.2,2.4,0.7,2.7,1.9l0,0c0.2,1.2-0.5,2.4-1.7,2.7l-8.8,2l10-2.2c1.4-0.3,2.9,0.7,3.1,2.1
			h0c0.2,1.3-0.7,2.6-2,2.8l-14.8,2.9l11.8-2.4c1.4-0.3,2.7,0.6,3,2l0,0c0.3,1.4-0.6,2.7-2,2.9l-15.9,2.9l12-2.2
			c1.3-0.3,2.6,0.6,2.9,2l0,0c0.3,1.3-0.5,2.6-1.8,2.9c-9.6,2.6-20.4,4.1-32,5L1117.2,845.3z" class="colorf7c19b svgShape"></path><path fill="#5071ef" d="M871.1,983.8c-10.7,8.6-22.3,16-34.4,22.6c-103.5,57-159.4,194.8-159.4,194.8l-16.3-2.5
				c-3.7-0.6-7.2-1.4-10.6-2.5c-29.7-9.4-50.3-37.4-49.6-69.3c0.8-34.4-23.2-64.4-56.9-71.2l-54-10.9c-41.7-8.5-66.6-51.4-53.3-91.8
				l12.1-36.6c8.8-26.5,1.1-55.8-19.5-74.6l-6.7-6.1c-24.7-22.6-30.3-59.5-13.2-88.4l31.7-53.8c171.1,107.5,473.2,76.1,473.2,76.1
				l45.7,80.3C950.7,911.2,900.9,959.7,871.1,983.8z" class="coloref5350 svgShape"></path><path fill="#3e5fdd" d="M795.1 842.1c0 0-168.9 83.7-346.5 74.3 8.8-26.5 1.1-55.8-19.5-74.6l-6.7-6.1C422.4 835.6 564.5 885.2 795.1 842.1zM753.5 973.8c0 0-65 113.9-152.8 153.1.8-34.4-23.2-64.4-56.9-71.2C543.9 1055.7 651.1 1053.6 753.5 973.8z" class="colordd3e3e svgShape"></path><path fill="#9bc9f7" d="M967,813c-20-0.5-22.8-9.2-9.4-25.8l17.2-10.1l11,23.7l-6.1,4l-3.7,2.4L967,813z" class="colorf7c19b svgShape"></path><path fill="#9bc9f7" d="M1027.3,779.6c0,0-11.3,25.8-28,31.2c-8.6,2.8-17.9-1.4-21.6-9.6c-2.8-6.2-6.1-16.3-5.2-28
			c0.1-1,17.8-17.5,17.8-17.5l9.8-2.2l18.1,12.4L1027.3,779.6z" class="colorf7c19b svgShape"></path><path fill="#021b79" d="M1017,777.2l-1,0.8c-1.6,1.3-3.5,2-5.4,2.1c-2.9,0.1-5.8-1-7.7-3.4c-2.2-2.7-3.5-5.5-3.5-5.5l-3.9,9.1
			c-0.1,0.3-0.3,0.5-0.5,0.7c-0.5,0.5-1.2,0.8-1.9,0.7c-1.2-0.1-2.1-1.2-2-2.4l0.5-5.1c0.3-3.4-3-6.1-6.3-5
			c-1.8,0.6-3.7,1.8-5.6,3.3c-3.6,2.8-7,6.6-8.8,8.8c-0.5,0.6-1.6,0.3-1.7-0.5c-0.6-6.3-0.2-11.6,0.9-15.9c1.3-5.2,3.5-9.1,6.1-12
			c5.4-6.1,12.3-8,15.3-8.5c2-0.3,3.9-1,5.7-1.9c10.2-5.5,14.4-1.9,16.2,1.6c1.6,3.2,4.2,6.2,7.7,6.9c12.2,2.5,17.7,8.3,20.1,12.3
			c1.4,2.3,1.7,5.2,0.7,7.7C1034.2,791.2,1017,777.2,1017,777.2z" class="color333333 svgShape"></path><polygon fill="#9bc9f7" points="483.8 906.8 486.8 883.1 523.2 887.2 520.2 910.8" class="colorf7c19b svgShape"></polygon><path fill="#021b79" d="M480,885.4l-4.5-3.7l-1.5-1c-0.9-0.6-1.9-0.9-2.9-0.9l-4.1-0.1c-1,0-1.9,0.8-1.9,1.8l-0.2,4.5l1.2,0
					l-0.1,2.4l-1.2,0l-0.3,5.4l0.9,0l-0.1,2.5l-1,0l-0.2,6.1l3.9,3.2c-1.6,4.8-3.5,9.1-5.8,12.8c-0.1,0.2-0.4,6.3-0.3,6.3l0.9,0
					l-0.1,2.4l-0.9,0c-0.2,2-0.3,3.9-0.2,5.8l1,0l-0.1,2.3l-0.8,0c-0.1,2,0.1,3.9,0.5,5.4l0.8,0l0.2,2.3l-0.7,0
					c0.1,1.4,0.5,2.7,0.9,3.9l0.8-0.1l0.8,2.1l-0.8,0.4c0.8,2.3,1.7,4.4,2.7,6.2c0,0,3.1,0.5,3.4-1.5l3.7-24.6l5.6-31.5L480,885.4z" class="color333333 svgShape"></path><path fill="#58595b" d="M482.4,880.8c-1.5,0-3.1,0.1-4.6,0.4l-2.4,0.4c-0.2,9.5-1.3,18.3-3.6,26.1c-0.5,1.6-1,3.2-1.6,4.8
					c-5.2,13.2-5,27-0.1,41.4l2.2,0.1c1.7,0,3.1-1.1,3.5-2.7l2.6-10.5c0.5-1.9,0.9-3.7,1.3-5.6c1.2-5.3,3.5-10.1,6.8-14.6
					c0.2-0.2,0.4-0.5,0.6-0.7c0.1-0.1,0.2-0.3,0.3-0.4c-2.3-0.3-5.1-2.6-5.2-2.8c-0.1-0.1-0.1-0.2-0.1-0.3c0,0,0-0.1,0.1-0.1
					c0.1-0.1,0.3-0.1,0.4,0c1,0.8,3.5,2.6,5.3,2.7c0.1-0.1,0.2-0.2,0.2-0.3c0.6-1.8,0-5-0.4-6.3c0-0.2,0-0.3,0.2-0.4
					c0.2,0,0.3,0,0.4,0.2c0,0.2,0.9,3.1,0.6,5.5c0.3-0.4,0.6-0.7,1-1.1c0.2-0.2,0.4-0.4,0.6-0.7c0.4-0.5,0.9-1,1.4-1.4
					c0.2-0.2,0.4-0.4,0.6-0.6c0.7-0.7,1.5-1.4,2.2-2c-0.1-1.5-1-3.4-1.5-4.2c-0.1-0.1,0-0.3,0.1-0.4c0.1-0.1,0.3,0,0.4,0.1
					c0.1,0.1,1.3,2.2,1.6,4.1c0.3-0.3,0.6-0.5,0.9-0.8c0.5-0.4,0.9-1.1,0.9-1.7l1.9-24.6c0.1-0.9-0.6-1.7-1.6-1.7l-2.9,0
					c-2.2,0-4.3-0.3-6.4-0.9C486.3,881.2,484.4,880.9,482.4,880.8z" class="color58595b svgShape"></path><path fill="#1f2023" d="M482.2 916.2c0 0-.1.1-.1.1 0 .1 0 .2.1.3.1.1 2.9 2.4 5.2 2.8.1-.2.3-.4.4-.6-1.8-.1-4.3-1.8-5.3-2.7C482.5 916.1 482.3 916.1 482.2 916.2zM488 911.9c-.2 0-.3.2-.2.4.4 1.3 1 4.4.4 6.3.3-.3.5-.6.8-.9.3-2.4-.6-5.3-.6-5.5C488.3 912 488.1 911.9 488 911.9z" class="color231f20 svgShape"></path><path fill="#303030" d="M493.3,907.2c-0.1,0.1-0.2,0.3-0.1,0.4c0.5,0.8,1.5,2.7,1.5,4.2c0.2-0.2,0.4-0.3,0.6-0.5
					c-0.2-1.9-1.5-3.9-1.6-4.1C493.6,907.2,493.4,907.1,493.3,907.2z" class="color303030 svgShape"></path><path fill="#404042" d="M482.4,880.8c-1.5,0-3.1,0.1-4.6,0.4l-2.4,0.4c-0.2,9.5-1.3,18.3-3.6,26.1l8,12.4c0.5,0.7,1.4,0.9,2.1,0.3
					l15.1-11.6l1.9-24.6c0.1-0.9-0.6-1.7-1.6-1.7l-2.9,0c-2.2,0-4.3-0.3-6.4-0.9C486.3,881.2,484.4,880.9,482.4,880.8z" class="color414042 svgShape"></path><polygon fill="#58595b" points="496 908.4 496.2 908.6 496.4 908.4 496.4 908.2 496.1 908.2 496.1 908.3" class="color58595b svgShape"></polygon><path fill="#58595b" d="M477.2,882.3l0,0.3l-0.4,0.1l0-0.3L477.2,882.3z M477.9,882.2l0,0.3l-0.4,0.1l0-0.3L477.9,882.2z
								 M478.6,882l0,0.3c-0.1,0-0.2,0-0.4,0.1l0-0.3C478.3,882.1,478.5,882,478.6,882z M479.3,881.9l0,0.3c-0.1,0-0.2,0-0.4,0
								l0-0.3C479,882,479.2,881.9,479.3,881.9z M480,881.8l0,0.3c-0.1,0-0.2,0-0.4,0l0-0.3C479.8,881.9,479.9,881.9,480,881.8z
								 M480.7,881.8l0,0.3c-0.1,0-0.2,0-0.4,0l0-0.3C480.5,881.8,480.6,881.8,480.7,881.8z M481.4,881.8l0,0.3c-0.1,0-0.2,0-0.4,0
								l0-0.3C481.2,881.8,481.3,881.8,481.4,881.8z M482.2,881.8l0,0.3c-0.1,0-0.2,0-0.4,0l0-0.3
								C481.9,881.8,482.1,881.8,482.2,881.8z M482.5,881.8c0.1,0,0.2,0,0.4,0l0,0.3c-0.1,0-0.2,0-0.4,0L482.5,881.8z M483.3,881.8
								c0.1,0,0.2,0,0.4,0l0,0.3c-0.1,0-0.2,0-0.4,0L483.3,881.8z M484,881.9c0.1,0,0.2,0,0.4,0l0,0.3c-0.1,0-0.2,0-0.4,0L484,881.9
								z M484.7,881.9c0.1,0,0.2,0,0.4,0.1l0,0.3c-0.1,0-0.2,0-0.4,0L484.7,881.9z M485.4,882c0.1,0,0.2,0,0.4,0.1l-0.1,0.3
								c-0.1,0-0.2,0-0.4-0.1L485.4,882z M486.1,882.2c0.1,0,0.2,0,0.4,0.1l-0.1,0.3c-0.1,0-0.2-0.1-0.3-0.1L486.1,882.2z
								 M486.8,882.3c0.1,0,0.2,0.1,0.3,0.1l-0.1,0.3c-0.1,0-0.2-0.1-0.3-0.1L486.8,882.3z M487.5,882.5c0.1,0,0.2,0.1,0.3,0.1
								l-0.1,0.3c-0.1,0-0.2-0.1-0.3-0.1L487.5,882.5z M488.2,882.7c0.1,0,0.2,0.1,0.3,0.1l-0.1,0.3c-0.1,0-0.2-0.1-0.3-0.1
								L488.2,882.7z M488.9,882.9c0.1,0,0.2,0.1,0.3,0.1l-0.1,0.3c-0.1,0-0.2-0.1-0.3-0.1L488.9,882.9z M489.6,883.1
								c0.1,0,0.2,0,0.3,0.1l-0.1,0.3c-0.1,0-0.2,0-0.4-0.1L489.6,883.1z M490.3,883.2c0.1,0,0.2,0,0.4,0.1l0,0.3
								c-0.1,0-0.2,0-0.4-0.1L490.3,883.2z M491,883.3c0.1,0,0.2,0,0.4,0.1l0,0.3c-0.1,0-0.2,0-0.4-0.1L491,883.3z M491.7,883.4
								c0.1,0,0.2,0,0.4,0l0,0.3c-0.1,0-0.2,0-0.4,0L491.7,883.4z M492.4,883.5c0.1,0,0.2,0,0.4,0l0,0.3c-0.1,0-0.2,0-0.4,0
								L492.4,883.5z M493.1,883.5c0.1,0,0.2,0,0.4,0l0,0.3c-0.1,0-0.2,0-0.4,0L493.1,883.5z M494.2,883.6l0,0.3c-0.1,0-0.2,0-0.4,0
								l0-0.3C493.9,883.6,494,883.6,494.2,883.6z M494.9,883.6l0,0.3l-0.4,0l0-0.3L494.9,883.6z M495.6,883.5l0,0.3l-0.4,0l0-0.3
								L495.6,883.5z M496.3,883.5l0,0.3l-0.4,0l0-0.3L496.3,883.5z M497,883.5l0,0.3l-0.4,0l0-0.3L497,883.5z M496.2,907.5l0.3,0
								l0,0.4l-0.3,0L496.2,907.5z M496.2,906.8l0.3,0l0,0.4l-0.3,0L496.2,906.8z M496.3,906l0.3,0l0,0.4l-0.3,0L496.3,906z
								 M496.3,905.3l0.3,0l0,0.4l-0.3,0L496.3,905.3z M496.4,904.6l0.3,0l0,0.4l-0.3,0L496.4,904.6z M496.5,903.9l0.3,0l0,0.4
								l-0.3,0L496.5,903.9z M496.5,903.2l0.3,0l0,0.4l-0.3,0L496.5,903.2z M496.6,902.5l0.3,0l0,0.4l-0.3,0L496.6,902.5z
								 M496.6,901.8l0.3,0l0,0.4l-0.3,0L496.6,901.8z M496.7,901.1l0.3,0l0,0.4l-0.3,0L496.7,901.1z M497.4,883.6
								c0.1,0,0.3,0.1,0.4,0.1l-0.2,0.2c-0.1-0.1-0.2-0.1-0.3-0.1L497.4,883.6z M496.7,900.4l0.3,0l0,0.4l-0.3,0L496.7,900.4z
								 M496.8,899.7l0.3,0l0,0.4l-0.3,0L496.8,899.7z M496.8,898.9l0.3,0l0,0.4l-0.3,0L496.8,898.9z M496.9,898.2l0.3,0l0,0.4
								l-0.3,0L496.9,898.2z M497,897.5l0.3,0l0,0.4l-0.3,0L497,897.5z M497,896.8l0.3,0l0,0.4l-0.3,0L497,896.8z M497.1,896.1
								l0.3,0l0,0.4l-0.3,0L497.1,896.1z M497.1,895.4l0.3,0l0,0.4l-0.3,0L497.1,895.4z M497.2,894.7l0.3,0l0,0.4l-0.3,0
								L497.2,894.7z M497.2,894l0.3,0l0,0.4l-0.3,0L497.2,894z M497.3,893.3l0.3,0l0,0.4l-0.3,0L497.3,893.3z M497.3,892.6l0.3,0
								l0,0.4l-0.3,0L497.3,892.6z M497.4,891.9l0.3,0l0,0.4l-0.3,0L497.4,891.9z M497.4,891.1l0.3,0l0,0.4l-0.3,0L497.4,891.1z
								 M497.5,890.4l0.3,0l0,0.4l-0.3,0L497.5,890.4z M497.6,889.7l0.3,0l0,0.4l-0.3,0L497.6,889.7z M497.6,889l0.3,0l0,0.4l-0.3,0
								L497.6,889z M497.7,888.3l0.3,0l0,0.4l-0.3,0L497.7,888.3z M497.7,887.6l0.3,0l0,0.4l-0.3,0L497.7,887.6z M498.1,884
								c0.1,0.1,0.1,0.2,0.1,0.4l-0.3,0c0-0.1,0-0.2-0.1-0.3L498.1,884z M497.8,886.9l0.3,0l0,0.4l-0.3,0L497.8,886.9z M497.8,886.2
								l0.3,0l0,0.4l-0.3,0L497.8,886.2z M497.9,885.5l0.3,0l0,0.4l-0.3,0L497.9,885.5z M497.9,884.7l0.3,0l0,0.4l-0.3,0
								L497.9,884.7z" class="color58595b svgShape"></path><polygon fill="#58595b" points="476.2 882.5 476.2 882.8 476.5 882.8 476.5 882.7 476.5 882.7 476.5 882.4" class="color58595b svgShape"></polygon><path fill="#58595b" d="M473,906.7l0.3,0.1l-0.1,0.3l-0.3-0.1L473,906.7z M473.2,906l0.3,0.1l-0.1,0.3l-0.3-0.1L473.2,906z
								 M473.3,905.3l0.3,0.1l-0.1,0.3l-0.3-0.1L473.3,905.3z M473.5,904.6l0.3,0.1l-0.1,0.3l-0.3-0.1L473.5,904.6z M473.7,904
								l0.3,0.1l-0.1,0.3l-0.3-0.1L473.7,904z M473.8,903.3l0.3,0.1l-0.1,0.3l-0.3-0.1L473.8,903.3z M474,902.6l0.3,0.1l-0.1,0.3
								l-0.3-0.1L474,902.6z M474.1,901.9l0.3,0l-0.1,0.3l-0.3-0.1L474.1,901.9z M474.3,901.2l0.3,0l-0.1,0.3l-0.3,0L474.3,901.2z
								 M474.4,900.5l0.3,0l-0.1,0.3l-0.3,0L474.4,900.5z M474.5,899.8l0.3,0l-0.1,0.3l-0.3,0L474.5,899.8z M474.7,899.1l0.3,0
								l-0.1,0.3l-0.3,0L474.7,899.1z M474.8,898.4l0.3,0l-0.1,0.3l-0.3,0L474.8,898.4z M474.9,897.8l0.3,0l-0.1,0.3l-0.3,0
								L474.9,897.8z M475,897.1l0.3,0l-0.1,0.3l-0.3,0L475,897.1z M475.1,896.4l0.3,0l-0.1,0.3l-0.3,0L475.1,896.4z M475.2,895.7
								l0.3,0l0,0.3l-0.3,0L475.2,895.7z M475.3,895l0.3,0l0,0.3l-0.3,0L475.3,895z M475.4,894.3l0.3,0l0,0.3l-0.3,0L475.4,894.3z
								 M475.5,893.6l0.3,0l0,0.3l-0.3,0L475.5,893.6z M475.5,892.9l0.3,0l0,0.3l-0.3,0L475.5,892.9z M475.6,892.2l0.3,0l0,0.3
								l-0.3,0L475.6,892.2z M475.7,891.5l0.3,0l0,0.3l-0.3,0L475.7,891.5z M475.7,890.8l0.3,0l0,0.4l-0.3,0L475.7,890.8z
								 M475.8,890.1l0.3,0l0,0.4l-0.3,0L475.8,890.1z M475.9,889.4l0.3,0l0,0.4l-0.3,0L475.9,889.4z M475.9,888.7l0.3,0l0,0.4
								l-0.3,0L475.9,888.7z M476,888l0.3,0l0,0.4l-0.3,0L476,888z M476,887.3l0.3,0l0,0.4l-0.3,0L476,887.3z M476,886.6l0.3,0
								l0,0.4l-0.3,0L476,886.6z M476.1,885.9l0.3,0l0,0.4l-0.3,0L476.1,885.9z M476.4,883.1l0,0.3l-0.3,0l0-0.4L476.4,883.1z
								 M476.1,885.2l0.3,0l0,0.4l-0.3,0L476.1,885.2z M476.4,883.8l0,0.4l-0.3,0l0-0.4L476.4,883.8z M476.1,884.5l0.3,0l0,0.4
								l-0.3,0L476.1,884.5z" class="color58595b svgShape"></path><polygon fill="#58595b" points="472.7 907.6 472.9 907.8 473.1 907.6 473 907.5 473 907.4 472.8 907.3" class="color58595b svgShape"></polygon><path fill="#58595b" d="M473.3,907.9l0.2,0.3l-0.2,0.1l-0.2-0.3L473.3,907.9z M473.6,908.5l0.2,0.3l-0.2,0.1l-0.2-0.3
								L473.6,908.5z M474,909.1l0.2,0.3l-0.2,0.1l-0.2-0.3L474,909.1z M474.4,909.7l0.2,0.3l-0.2,0.1l-0.2-0.3L474.4,909.7z
								 M474.8,910.3l0.2,0.3l-0.2,0.1l-0.2-0.3L474.8,910.3z M475.2,910.9l0.2,0.3l-0.2,0.1l-0.2-0.3L475.2,910.9z M475.5,911.4
								l0.2,0.3l-0.2,0.1l-0.2-0.3L475.5,911.4z M475.9,912l0.2,0.3l-0.2,0.1l-0.2-0.3L475.9,912z M476.3,912.6l0.2,0.3l-0.2,0.1
								l-0.2-0.3L476.3,912.6z M476.7,913.2l0.2,0.3l-0.2,0.1l-0.2-0.3L476.7,913.2z M477.1,913.8l0.2,0.3l-0.2,0.1l-0.2-0.3
								L477.1,913.8z M477.4,914.4l0.2,0.3l-0.2,0.1l-0.2-0.3L477.4,914.4z M477.8,915l0.2,0.3l-0.2,0.1l-0.2-0.3L477.8,915z
								 M478.2,915.5l0.2,0.3l-0.2,0.1l-0.2-0.3L478.2,915.5z M478.6,916.1l0.2,0.3l-0.2,0.1l-0.2-0.3L478.6,916.1z M479,916.7
								l0.2,0.3l-0.2,0.1l-0.2-0.3L479,916.7z M479.3,917.3l0.2,0.3l-0.2,0.1l-0.2-0.3L479.3,917.3z M479.7,917.9l0.2,0.3l-0.2,0.1
								l-0.2-0.3L479.7,917.9z M480.1,918.5l0.2,0.3l-0.2,0.1l-0.2-0.3L480.1,918.5z M480.5,919.1l0.2,0.3l-0.2,0.1l-0.2-0.3
								L480.5,919.1z M480.9,919.6c0.1,0,0.1,0.1,0.2,0.1c0,0,0,0,0.1,0l0,0.3c0,0-0.1,0-0.1,0c-0.1,0-0.2-0.1-0.3-0.1L480.9,919.6z
								 M481.5,919.5l0.1-0.1l0.2,0.2l-0.1,0.1c-0.1,0-0.1,0.1-0.2,0.1l-0.1-0.2C481.5,919.6,481.5,919.5,481.5,919.5z M482.2,919
								l0.2,0.2l-0.3,0.2l-0.2-0.2L482.2,919z M482.8,918.5l0.2,0.2l-0.3,0.2l-0.2-0.2L482.8,918.5z M483.4,918.1l0.2,0.2l-0.3,0.2
								l-0.2-0.2L483.4,918.1z M483.9,917.7l0.2,0.2l-0.3,0.2l-0.2-0.2L483.9,917.7z M484.5,917.2l0.2,0.2l-0.3,0.2l-0.2-0.2
								L484.5,917.2z M485.1,916.8l0.2,0.2l-0.3,0.2l-0.2-0.2L485.1,916.8z M485.6,916.4l0.2,0.2l-0.3,0.2l-0.2-0.2L485.6,916.4z
								 M486.2,915.9l0.2,0.2l-0.3,0.2l-0.2-0.2L486.2,915.9z M486.7,915.5l0.2,0.2l-0.3,0.2l-0.2-0.2L486.7,915.5z M487.3,915.1
								l0.2,0.2l-0.3,0.2l-0.2-0.2L487.3,915.1z M487.9,914.6l0.2,0.2l-0.3,0.2l-0.2-0.2L487.9,914.6z M488.4,914.2l0.2,0.2
								l-0.3,0.2l-0.2-0.2L488.4,914.2z M489,913.8l0.2,0.2l-0.3,0.2l-0.2-0.2L489,913.8z M489.6,913.3l0.2,0.2l-0.3,0.2l-0.2-0.2
								L489.6,913.3z M490.1,912.9l0.2,0.2l-0.3,0.2l-0.2-0.2L490.1,912.9z M490.7,912.5l0.2,0.2l-0.3,0.2l-0.2-0.2L490.7,912.5z
								 M491.2,912l0.2,0.2l-0.3,0.2l-0.2-0.2L491.2,912z M491.8,911.6l0.2,0.2l-0.3,0.2l-0.2-0.2L491.8,911.6z M492.4,911.2
								l0.2,0.2l-0.3,0.2l-0.2-0.2L492.4,911.2z M492.9,910.8l0.2,0.2l-0.3,0.2l-0.2-0.2L492.9,910.8z M493.5,910.3l0.2,0.2
								l-0.3,0.2l-0.2-0.2L493.5,910.3z M494.1,909.9l0.2,0.2l-0.3,0.2l-0.2-0.2L494.1,909.9z M494.6,909.5l0.2,0.2l-0.3,0.2
								l-0.2-0.2L494.6,909.5z M495.2,909l0.2,0.2l-0.3,0.2l-0.2-0.2L495.2,909z M495.7,908.6l0.2,0.2l-0.3,0.2l-0.2-0.2
								L495.7,908.6z" class="color58595b svgShape"></path><g fill="#000000" class="color000000 svgShape"><path fill="#e6e7e8" d="M482.7 915c.7.1 1.3.8 1.1 1.5-.1.7-.8 1.3-1.6 1.1-.7-.1-1.3-.8-1.1-1.5C481.2 915.4 481.9 914.9 482.7 915zM482.6 915.4c-.5-.1-1 .3-1.1.8-.1.5.3 1 .8 1.1.5.1 1-.3 1.1-.8C483.5 916 483.1 915.5 482.6 915.4zM488.1 910.6c.7.1 1.3.8 1.1 1.5-.1.7-.8 1.3-1.6 1.1-.7-.1-1.3-.8-1.1-1.5C486.6 911 487.3 910.4 488.1 910.6zM488 911c-.5-.1-1 .3-1.1.8-.1.5.3 1 .8 1.1.5.1 1-.3 1.1-.8C488.9 911.5 488.5 911.1 488 911z" class="colore6e7e8 svgShape"></path><g fill="#000000" class="color000000 svgShape"><path fill="#1f2023" d="M482.6,916.2c-0.1-0.1-0.3-0.1-0.4,0c0,0-0.1,0.1-0.1,0.1c0,0.1,0,0.2,0.1,0.3c0.1,0.1,2.9,2.4,5.2,2.8
								c0.1,0,0.1,0,0.2,0c0.3,0,0.5,0,0.7,0c0.3,0,0.5-0.1,0.7-0.2c0.9-0.5,1.4-1.6,1.4-3.3c-0.2,0.2-0.4,0.4-0.6,0.7
								c-0.1,1.1-0.4,1.8-1,2.1c-0.1,0-0.1,0.1-0.2,0.1c-0.2,0.1-0.4,0.1-0.7,0.1c0,0-0.1,0-0.1,0
								C486.2,918.8,483.6,917,482.6,916.2z" class="color231f20 svgShape"></path><path fill="#1f2023" d="M488,911.9c-0.2,0-0.3,0.2-0.2,0.4c0.4,1.3,1,4.4,0.4,6.3c0,0.1-0.1,0.2-0.1,0.3
								c-0.1,0.2-0.2,0.4-0.4,0.6c-0.1,0.1-0.1,0.1-0.2,0.2c-0.1,0.1-0.2,0.2-0.4,0.2c-0.2,0.2-0.4,0.5-0.6,0.7
								c0.5,0,0.9-0.2,1.3-0.5c0.2-0.2,0.4-0.4,0.6-0.7c0.1-0.2,0.2-0.4,0.3-0.7c0.1-0.3,0.2-0.7,0.2-1.1c0.3-2.4-0.6-5.3-0.6-5.5
								C488.3,912,488.1,911.9,488,911.9z" class="color231f20 svgShape"></path></g></g><g fill="#000000" class="color000000 svgShape"><path fill="#e6e7e8" d="M493.5,906.1c0.8,0,1.3,0.6,1.3,1.4c0,0.8-0.7,1.3-1.4,1.3c-0.8,0-1.3-0.6-1.3-1.4
							C492.1,906.7,492.8,906.1,493.5,906.1z M493.5,906.5c-0.5,0-1,0.4-1,0.9c0,0.5,0.4,0.9,0.9,1c0.5,0,1-0.4,1-0.9
							C494.4,907,494,906.6,493.5,906.5z" class="colore6e7e8 svgShape"></path><path fill="#1f2023" d="M493.3,907.2c-0.1,0.1-0.2,0.3-0.1,0.4c0.5,0.8,1.5,2.7,1.5,4.2c0,0.5-0.1,1-0.3,1.3
							c-0.3,0.5-1,0.7-1.9,0.7c-0.2,0.2-0.4,0.4-0.6,0.6c1.5,0.1,2.5-0.2,3-1c0.4-0.6,0.5-1.3,0.4-2.1c-0.2-1.9-1.5-3.9-1.6-4.1
							C493.6,907.2,493.4,907.1,493.3,907.2z" class="color231f20 svgShape"></path></g><g fill="#000000" class="color000000 svgShape"><polygon fill="#9bc9f7" points="560.9 1079.4 551.6 1057.8 585.4 1043.1 594.7 1064.7" class="colorf7c19b svgShape"></polygon><path fill="#021b79" d="M546.7,1061.9l-5.8-1.2l-1.8-0.2c-1-0.1-2.1,0.1-3.1,0.5l-3.7,1.8c-0.9,0.4-1.3,1.5-0.9,2.4l2,4l1.1-0.5
					l1.1,2.2l-1,0.5l2.2,4.9l0.9-0.4l1.1,2.3l-0.9,0.5l2.7,5.4l5,1c0.8,4.9,1.2,9.6,0.8,13.9c0,0.2,2.6,5.7,2.8,5.7l0.8-0.4l1,2.1
					l-0.8,0.4c0.7,1.8,1.6,3.6,2.5,5.2l0.9-0.4l1,2.1l-0.7,0.3c0.9,1.8,1.9,3.4,3,4.6l0.7-0.3l1.3,2l-0.6,0.3c0.8,1.2,1.7,2.1,2.6,3
					l0.6-0.4l1.7,1.5l-0.5,0.7c1.8,1.6,3.6,3,5.3,4.2c0,0,3-1,2.3-2.8l-8.2-23.3l-9.8-30.3L546.7,1061.9z" class="color333333 svgShape"></path><path fill="#58595b" d="M546.7,1056.8c-1.4,0.7-2.7,1.5-3.9,2.4l-1.9,1.5c4.3,8.4,7.5,16.7,9.1,24.6c0.3,1.7,0.6,3.3,0.8,4.9
					c1.6,14,8.3,26,19.4,36.4l2-1c1.5-0.7,2.3-2.4,1.9-4l-2.6-10.4c-0.5-1.9-1-3.7-1.5-5.5c-1.4-5.2-1.6-10.5-0.8-16
					c0-0.3,0.1-0.6,0.1-0.9c0-0.2,0.1-0.4,0.1-0.5c-2.2,0.8-5.8,0-6,0c-0.1,0-0.2-0.1-0.2-0.2c0,0,0-0.1,0-0.2
					c0-0.2,0.2-0.3,0.4-0.2c1.3,0.3,4.3,0.6,6-0.1c0-0.1,0-0.3,0.1-0.4c-0.3-1.9-2.4-4.4-3.3-5.3c-0.1-0.1-0.1-0.3,0-0.4
					c0.1-0.1,0.3-0.1,0.4,0c0.1,0.1,2.2,2.3,3.1,4.5c0.1-0.5,0.2-0.9,0.3-1.4c0.1-0.3,0.2-0.6,0.2-0.9c0.2-0.6,0.4-1.3,0.6-1.9
					c0.1-0.3,0.2-0.5,0.2-0.8c0.3-0.9,0.7-1.9,1-2.8c-0.8-1.3-2.5-2.5-3.3-3c-0.1-0.1-0.2-0.3-0.1-0.4c0.1-0.1,0.3-0.2,0.4-0.1
					c0.1,0.1,2.2,1.3,3.3,2.8c0.2-0.4,0.3-0.8,0.5-1.1c0.3-0.6,0.3-1.3,0-1.9l-9.9-22.4c-0.4-0.8-1.4-1.2-2.2-0.7l-2.6,1.4
					c-1.9,1-4,1.7-6.1,2.1C550.3,1055.3,548.5,1055.9,546.7,1056.8z" class="color58595b svgShape"></path><path fill="#1f2023" d="M563.2 1088c0 .1 0 .1 0 .2 0 .1.1.2.2.2.2 0 3.7.8 6 0 0-.2.1-.5.1-.7-1.6.7-4.7.4-6 .1C563.4 1087.7 563.2 1087.8 563.2 1088zM566.3 1081.5c-.1.1-.1.3 0 .4.9 1 3 3.4 3.3 5.3.1-.4.2-.8.3-1.2-.9-2.2-3-4.4-3.1-4.5C566.6 1081.4 566.4 1081.4 566.3 1081.5z" class="color231f20 svgShape"></path><path fill="#303030" d="M568.8,1074.9c-0.1,0.1,0,0.3,0.1,0.4c0.8,0.5,2.6,1.7,3.3,3c0.1-0.2,0.2-0.5,0.3-0.7
					c-1.1-1.5-3.2-2.8-3.3-2.8C569.1,1074.7,568.9,1074.8,568.8,1074.9z" class="color303030 svgShape"></path><path fill="#404042" d="M546.7,1056.8c-1.4,0.7-2.7,1.5-3.9,2.4l-1.9,1.5c4.3,8.4,7.5,16.7,9.1,24.6l12.9,7.2
					c0.7,0.4,1.7,0.1,2.1-0.7l8-17.2l-9.9-22.4c-0.4-0.8-1.4-1.2-2.2-0.7l-2.6,1.4c-1.9,1-4,1.7-6.1,2.1
					C550.3,1055.3,548.5,1055.9,546.7,1056.8z" class="color414042 svgShape"></path><polygon fill="#58595b" points="571.8 1074.7 572 1074.8 572.1 1074.6 572 1074.4 571.8 1074.5 571.8 1074.6" class="color58595b svgShape"></polygon><path fill="#58595b" d="M542.7,1060.5l0.2,0.2l-0.3,0.2l-0.2-0.2L542.7,1060.5z M543.3,1060l0.2,0.2l-0.3,0.2l-0.2-0.2
								L543.3,1060z M543.8,1059.6l0.2,0.2c-0.1,0.1-0.2,0.1-0.3,0.2l-0.2-0.2C543.6,1059.7,543.7,1059.7,543.8,1059.6z
								 M544.4,1059.2l0.2,0.2c-0.1,0.1-0.2,0.1-0.3,0.2l-0.2-0.2C544.2,1059.3,544.3,1059.2,544.4,1059.2z M545,1058.8l0.1,0.2
								c-0.1,0.1-0.2,0.1-0.3,0.2l-0.1-0.2C544.8,1058.9,544.9,1058.8,545,1058.8z M545.6,1058.4l0.1,0.2c-0.1,0.1-0.2,0.1-0.3,0.2
								l-0.1-0.2C545.4,1058.5,545.5,1058.5,545.6,1058.4z M546.3,1058l0.1,0.2c-0.1,0.1-0.2,0.1-0.3,0.2l-0.1-0.2
								C546.1,1058.1,546.2,1058.1,546.3,1058z M546.9,1057.7l0.1,0.2c-0.1,0.1-0.2,0.1-0.3,0.2l-0.1-0.2
								C546.7,1057.8,546.8,1057.8,546.9,1057.7z M547.2,1057.5c0.1-0.1,0.2-0.1,0.3-0.2l0.1,0.2c-0.1,0.1-0.2,0.1-0.3,0.2
								L547.2,1057.5z M547.9,1057.2c0.1,0,0.2-0.1,0.3-0.1l0.1,0.2c-0.1,0-0.2,0.1-0.3,0.1L547.9,1057.2z M548.6,1057
								c0.1,0,0.2-0.1,0.3-0.1l0.1,0.2c-0.1,0-0.2,0.1-0.3,0.1L548.6,1057z M549.2,1056.7c0.1,0,0.2-0.1,0.3-0.1l0.1,0.2
								c-0.1,0-0.2,0.1-0.3,0.1L549.2,1056.7z M549.9,1056.5c0.1,0,0.2-0.1,0.3-0.1l0.1,0.3c-0.1,0-0.2,0.1-0.3,0.1L549.9,1056.5z
								 M550.6,1056.2c0.1,0,0.2-0.1,0.3-0.1l0.1,0.3c-0.1,0-0.2,0.1-0.3,0.1L550.6,1056.2z M551.3,1056.1c0.1,0,0.2-0.1,0.4-0.1
								l0.1,0.3c-0.1,0-0.2,0.1-0.3,0.1L551.3,1056.1z M552,1055.9c0.1,0,0.2,0,0.4-0.1l0,0.3c-0.1,0-0.2,0-0.4,0.1L552,1055.9z
								 M552.7,1055.8c0.1,0,0.2,0,0.4-0.1l0.1,0.3c-0.1,0-0.2,0.1-0.4,0.1L552.7,1055.8z M553.4,1055.6c0.1,0,0.2-0.1,0.3-0.1
								l0.1,0.3c-0.1,0-0.2,0.1-0.4,0.1L553.4,1055.6z M554.1,1055.4c0.1,0,0.2-0.1,0.3-0.1l0.1,0.3c-0.1,0-0.2,0.1-0.3,0.1
								L554.1,1055.4z M554.8,1055.2c0.1,0,0.2-0.1,0.3-0.1l0.1,0.3c-0.1,0-0.2,0.1-0.3,0.1L554.8,1055.2z M555.5,1055
								c0.1,0,0.2-0.1,0.3-0.1l0.1,0.2c-0.1,0-0.2,0.1-0.3,0.1L555.5,1055z M556.2,1054.8c0.1,0,0.2-0.1,0.3-0.1l0.1,0.2
								c-0.1,0-0.2,0.1-0.3,0.1L556.2,1054.8z M556.8,1054.5c0.1,0,0.2-0.1,0.3-0.1l0.1,0.2c-0.1,0-0.2,0.1-0.3,0.1L556.8,1054.5z
								 M557.5,1054.2c0.1,0,0.2-0.1,0.3-0.2l0.1,0.2c-0.1,0.1-0.2,0.1-0.3,0.2L557.5,1054.2z M558.5,1053.7l0.1,0.2
								c-0.1,0.1-0.2,0.1-0.3,0.2l-0.1-0.2C558.2,1053.9,558.4,1053.8,558.5,1053.7z M559.1,1053.4l0.1,0.2l-0.3,0.2l-0.1-0.2
								L559.1,1053.4z M559.7,1053.1l0.1,0.2l-0.3,0.2l-0.1-0.2L559.7,1053.1z M560.4,1052.7l0.1,0.2l-0.3,0.2l-0.1-0.2
								L560.4,1052.7z M561,1052.4l0.1,0.2l-0.3,0.2l-0.1-0.2L561,1052.4z M571.5,1073.8l0.2-0.1l0.1,0.3l-0.2,0.1L571.5,1073.8z
								 M571.2,1073.2l0.2-0.1l0.1,0.3l-0.2,0.1L571.2,1073.2z M570.9,1072.5l0.2-0.1l0.1,0.3l-0.2,0.1L570.9,1072.5z M570.7,1071.9
								l0.2-0.1l0.1,0.3l-0.2,0.1L570.7,1071.9z M570.4,1071.2l0.2-0.1l0.1,0.3l-0.2,0.1L570.4,1071.2z M570.1,1070.6l0.2-0.1
								l0.1,0.3l-0.2,0.1L570.1,1070.6z M569.8,1069.9l0.2-0.1l0.1,0.3l-0.2,0.1L569.8,1069.9z M569.5,1069.3l0.2-0.1l0.1,0.3
								l-0.2,0.1L569.5,1069.3z M569.2,1068.6l0.2-0.1l0.1,0.3l-0.2,0.1L569.2,1068.6z M568.9,1068l0.2-0.1l0.1,0.3l-0.3,0.1
								L568.9,1068z M561.4,1052.2c0.1,0,0.3-0.1,0.4,0l0,0.3c-0.1,0-0.2,0-0.3,0L561.4,1052.2z M568.7,1067.3l0.2-0.1l0.1,0.3
								l-0.2,0.1L568.7,1067.3z M568.4,1066.7l0.2-0.1l0.1,0.3l-0.2,0.1L568.4,1066.7z M568.1,1066l0.2-0.1l0.1,0.3l-0.3,0.1
								L568.1,1066z M567.8,1065.4l0.2-0.1l0.1,0.3l-0.3,0.1L567.8,1065.4z M567.5,1064.7l0.2-0.1l0.1,0.3l-0.3,0.1L567.5,1064.7z
								 M567.2,1064.1l0.2-0.1l0.1,0.3l-0.2,0.1L567.2,1064.1z M566.9,1063.4l0.2-0.1l0.1,0.3l-0.2,0.1L566.9,1063.4z M566.7,1062.8
								l0.2-0.1l0.1,0.3l-0.2,0.1L566.7,1062.8z M566.4,1062.1l0.2-0.1l0.1,0.3l-0.2,0.1L566.4,1062.1z M566.1,1061.5l0.2-0.1
								l0.1,0.3l-0.2,0.1L566.1,1061.5z M565.8,1060.8l0.2-0.1l0.1,0.3l-0.2,0.1L565.8,1060.8z M565.5,1060.2l0.2-0.1l0.1,0.3
								l-0.2,0.1L565.5,1060.2z M565.2,1059.5l0.2-0.1l0.1,0.3l-0.2,0.1L565.2,1059.5z M565,1058.9l0.2-0.1l0.1,0.3l-0.2,0.1
								L565,1058.9z M564.7,1058.2l0.2-0.1l0.1,0.3l-0.2,0.1L564.7,1058.2z M564.4,1057.6l0.2-0.1l0.1,0.3l-0.2,0.1L564.4,1057.6z
								 M564.1,1056.9l0.2-0.1l0.1,0.3l-0.2,0.1L564.1,1056.9z M563.8,1056.3l0.2-0.1l0.1,0.3l-0.2,0.1L563.8,1056.3z M563.5,1055.7
								l0.2-0.1l0.1,0.3l-0.2,0.1L563.5,1055.7z M562.2,1052.3c0.1,0.1,0.2,0.2,0.3,0.3l-0.2,0.2c-0.1-0.1-0.1-0.2-0.2-0.2
								L562.2,1052.3z M563.2,1055l0.2-0.1l0.1,0.3l-0.2,0.1L563.2,1055z M563,1054.4l0.2-0.1l0.1,0.3l-0.2,0.1L563,1054.4z
								 M562.7,1053.7l0.2-0.1l0.1,0.3l-0.2,0.1L562.7,1053.7z M562.4,1053.1l0.2-0.1l0.1,0.3l-0.2,0.1L562.4,1053.1z" class="color58595b svgShape"></path><polygon fill="#58595b" points="541.9 1061.1 542.1 1061.3 542.3 1061.2 542.3 1061.1 542.3 1061.1 542.2 1060.9" class="color58595b svgShape"></polygon><path fill="#58595b" d="M550.4,1083.8l0.3-0.1l0.1,0.3l-0.3,0.1L550.4,1083.8z M550.3,1083.1l0.3-0.1l0.1,0.3l-0.3,0.1
								L550.3,1083.1z M550.1,1082.5l0.3-0.1l0.1,0.3l-0.3,0.1L550.1,1082.5z M550,1081.8l0.3-0.1l0.1,0.3l-0.3,0.1L550,1081.8z
								 M549.8,1081.1l0.3-0.1l0.1,0.3l-0.3,0.1L549.8,1081.1z M549.6,1080.4l0.3-0.1l0.1,0.3l-0.3,0.1L549.6,1080.4z M549.4,1079.8
								l0.3-0.1l0.1,0.3l-0.3,0.1L549.4,1079.8z M549.2,1079.1l0.3-0.1l0.1,0.3l-0.3,0.1L549.2,1079.1z M549,1078.4l0.3-0.1l0.1,0.3
								l-0.3,0.1L549,1078.4z M548.8,1077.7l0.3-0.1l0.1,0.3l-0.3,0.1L548.8,1077.7z M548.6,1077.1l0.3-0.1l0.1,0.3l-0.3,0.1
								L548.6,1077.1z M548.4,1076.4l0.3-0.1l0.1,0.3l-0.3,0.1L548.4,1076.4z M548.2,1075.8l0.3-0.1l0.1,0.3l-0.3,0.1L548.2,1075.8z
								 M548,1075.1l0.3-0.1l0.1,0.3l-0.3,0.1L548,1075.1z M547.7,1074.4l0.3-0.1l0.1,0.3l-0.3,0.1L547.7,1074.4z M547.5,1073.8
								l0.3-0.1l0.1,0.3l-0.3,0.1L547.5,1073.8z M547.2,1073.1l0.3-0.1l0.1,0.3l-0.3,0.1L547.2,1073.1z M547,1072.5l0.3-0.1l0.1,0.3
								l-0.3,0.1L547,1072.5z M546.8,1071.8l0.3-0.1l0.1,0.3l-0.3,0.1L546.8,1071.8z M546.5,1071.2l0.2-0.1l0.1,0.3l-0.2,0.1
								L546.5,1071.2z M546.2,1070.5l0.2-0.1l0.1,0.3l-0.2,0.1L546.2,1070.5z M546,1069.9l0.2-0.1l0.1,0.3l-0.2,0.1L546,1069.9z
								 M545.7,1069.2l0.2-0.1l0.1,0.3l-0.2,0.1L545.7,1069.2z M545.4,1068.6l0.2-0.1l0.1,0.3l-0.2,0.1L545.4,1068.6z M545.2,1068
								l0.2-0.1l0.1,0.3l-0.2,0.1L545.2,1068z M544.9,1067.3l0.2-0.1l0.1,0.3l-0.2,0.1L544.9,1067.3z M544.6,1066.7l0.2-0.1l0.1,0.3
								l-0.2,0.1L544.6,1066.7z M544.3,1066l0.2-0.1l0.1,0.3l-0.2,0.1L544.3,1066z M544,1065.4l0.2-0.1l0.1,0.3l-0.2,0.1L544,1065.4
								z M543.7,1064.8l0.2-0.1l0.1,0.3l-0.2,0.1L543.7,1064.8z M543.4,1064.1l0.2-0.1l0.1,0.3l-0.2,0.1L543.4,1064.1z
								 M542.4,1061.5l0.2,0.3l-0.2,0.1l-0.2-0.3L542.4,1061.5z M543.1,1063.5l0.2-0.1l0.2,0.3l-0.2,0.1L543.1,1063.5z
								 M542.8,1062.1l0.2,0.3l-0.2,0.1l-0.2-0.3L542.8,1062.1z M542.8,1062.9l0.2-0.1l0.2,0.3l-0.2,0.1L542.8,1062.9z" class="color58595b svgShape"></path><polygon fill="#58595b" points="550.6 1084.7 550.9 1084.8 551 1084.6 550.9 1084.6 550.9 1084.4 550.6 1084.5" class="color58595b svgShape"></polygon><path fill="#58595b" d="M551.3,1084.8l0.3,0.2l-0.1,0.2l-0.3-0.2L551.3,1084.8z M551.9,1085.1l0.3,0.2l-0.1,0.2l-0.3-0.2
								L551.9,1085.1z M552.5,1085.5l0.3,0.2l-0.1,0.2l-0.3-0.2L552.5,1085.5z M553.1,1085.8l0.3,0.2l-0.1,0.2l-0.3-0.2
								L553.1,1085.8z M553.7,1086.1l0.3,0.2l-0.1,0.2l-0.3-0.2L553.7,1086.1z M554.4,1086.5l0.3,0.2l-0.1,0.2l-0.3-0.2
								L554.4,1086.5z M555,1086.8l0.3,0.2l-0.1,0.2l-0.3-0.2L555,1086.8z M555.6,1087.2l0.3,0.2l-0.1,0.2l-0.3-0.2L555.6,1087.2z
								 M556.2,1087.5l0.3,0.2l-0.1,0.2l-0.3-0.2L556.2,1087.5z M556.8,1087.8l0.3,0.2l-0.1,0.2l-0.3-0.2L556.8,1087.8z
								 M557.4,1088.2l0.3,0.2l-0.1,0.2l-0.3-0.2L557.4,1088.2z M558,1088.5l0.3,0.2l-0.1,0.2l-0.3-0.2L558,1088.5z M558.7,1088.9
								l0.3,0.2l-0.1,0.2l-0.3-0.2L558.7,1088.9z M559.3,1089.2l0.3,0.2l-0.1,0.2l-0.3-0.2L559.3,1089.2z M559.9,1089.5l0.3,0.2
								l-0.1,0.2l-0.3-0.2L559.9,1089.5z M560.5,1089.9l0.3,0.2l-0.1,0.2l-0.3-0.2L560.5,1089.9z M561.1,1090.2l0.3,0.2l-0.1,0.2
								l-0.3-0.2L561.1,1090.2z M561.7,1090.6l0.3,0.2l-0.1,0.2l-0.3-0.2L561.7,1090.6z M562.3,1090.9l0.3,0.2l-0.1,0.2l-0.3-0.2
								L562.3,1090.9z M563,1091.2l0.3,0.2l-0.1,0.2l-0.3-0.2L563,1091.2z M563.5,1091.5c0.1,0,0.2,0,0.2,0c0,0,0,0,0.1,0l0.1,0.2
								c0,0-0.1,0-0.1,0c-0.1,0-0.2,0-0.3,0L563.5,1091.5z M564.1,1091.1l0.1-0.2l0.2,0.1l-0.1,0.2c0,0.1-0.1,0.1-0.1,0.2l-0.2-0.2
								C564.1,1091.2,564.1,1091.2,564.1,1091.1z M564.5,1090.3l0.2,0.1l-0.1,0.3l-0.2-0.1L564.5,1090.3z M564.8,1089.7l0.2,0.1
								l-0.1,0.3l-0.2-0.1L564.8,1089.7z M565.1,1089.1l0.2,0.1l-0.1,0.3l-0.2-0.1L565.1,1089.1z M565.4,1088.4l0.2,0.1l-0.1,0.3
								l-0.2-0.1L565.4,1088.4z M565.7,1087.8l0.2,0.1l-0.1,0.3l-0.2-0.1L565.7,1087.8z M566,1087.1l0.2,0.1l-0.1,0.3l-0.2-0.1
								L566,1087.1z M566.3,1086.5l0.2,0.1l-0.1,0.3l-0.2-0.1L566.3,1086.5z M566.6,1085.9l0.2,0.1l-0.1,0.3l-0.2-0.1L566.6,1085.9z
								 M566.9,1085.2l0.2,0.1l-0.1,0.3l-0.2-0.1L566.9,1085.2z M567.2,1084.6l0.2,0.1l-0.1,0.3l-0.2-0.1L567.2,1084.6z M567.5,1084
								l0.2,0.1l-0.1,0.3l-0.2-0.1L567.5,1084z M567.8,1083.3l0.2,0.1l-0.1,0.3l-0.2-0.1L567.8,1083.3z M568.1,1082.7l0.2,0.1
								l-0.1,0.3l-0.2-0.1L568.1,1082.7z M568.4,1082l0.2,0.1l-0.1,0.3l-0.2-0.1L568.4,1082z M568.7,1081.4l0.2,0.1l-0.1,0.3
								l-0.2-0.1L568.7,1081.4z M569,1080.8l0.2,0.1l-0.1,0.3l-0.2-0.1L569,1080.8z M569.3,1080.1l0.2,0.1l-0.1,0.3l-0.2-0.1
								L569.3,1080.1z M569.6,1079.5l0.2,0.1l-0.1,0.3l-0.2-0.1L569.6,1079.5z M569.9,1078.8l0.2,0.1l-0.1,0.3l-0.2-0.1
								L569.9,1078.8z M570.2,1078.2l0.2,0.1l-0.1,0.3l-0.2-0.1L570.2,1078.2z M570.5,1077.6l0.2,0.1l-0.1,0.3l-0.2-0.1
								L570.5,1077.6z M570.8,1076.9l0.2,0.1l-0.1,0.3l-0.2-0.1L570.8,1076.9z M571,1076.3l0.2,0.1l-0.1,0.3l-0.2-0.1L571,1076.3z
								 M571.3,1075.6l0.2,0.1l-0.1,0.3l-0.2-0.1L571.3,1075.6z M571.6,1075l0.2,0.1l-0.1,0.3l-0.2-0.1L571.6,1075z" class="color58595b svgShape"></path><g fill="#000000" class="color000000 svgShape"><path fill="#e6e7e8" d="M563 1086.6c.7-.2 1.5.1 1.7.8.2.7-.1 1.5-.9 1.7-.7.2-1.5-.1-1.7-.8C561.9 1087.7 562.3 1086.9 563 1086.6zM563.1 1087c-.5.2-.8.7-.6 1.2.2.5.7.7 1.2.6.5-.2.8-.7.6-1.2C564.2 1087.1 563.6 1086.9 563.1 1087zM565.7 1080.3c.7-.2 1.5.1 1.7.8.2.7-.1 1.5-.9 1.7-.7.2-1.5-.1-1.7-.8C564.6 1081.3 565 1080.5 565.7 1080.3zM565.9 1080.7c-.5.2-.8.7-.6 1.2.2.5.7.7 1.2.6.5-.2.8-.7.6-1.2C566.9 1080.8 566.4 1080.5 565.9 1080.7z" class="colore6e7e8 svgShape"></path><g fill="#000000" class="color000000 svgShape"><path fill="#1f2023" d="M563.5,1087.7c-0.2,0-0.3,0.1-0.4,0.2c0,0.1,0,0.1,0,0.2c0,0.1,0.1,0.2,0.2,0.2c0.2,0,3.7,0.8,6,0
								c0.1,0,0.1,0,0.2-0.1c0.2-0.1,0.5-0.2,0.6-0.3c0.2-0.2,0.4-0.3,0.6-0.5c0.6-0.8,0.5-2-0.3-3.6c-0.1,0.3-0.2,0.6-0.2,0.9
								c0.4,1,0.5,1.8,0.1,2.3c0,0-0.1,0.1-0.1,0.1c-0.1,0.2-0.3,0.3-0.5,0.4c0,0-0.1,0-0.1,0.1
								C567.9,1088.4,564.8,1088,563.5,1087.7z" class="color231f20 svgShape"></path><path fill="#1f2023" d="M566.3,1081.5c-0.1,0.1-0.1,0.3,0,0.4c0.9,1,3,3.4,3.3,5.3c0,0.1,0,0.2,0,0.3c0,0.2,0,0.5,0,0.7
								c0,0.1-0.1,0.2-0.1,0.3c-0.1,0.1-0.1,0.2-0.2,0.3c-0.1,0.3-0.1,0.6-0.1,0.9c0.4-0.3,0.7-0.6,0.9-1c0.1-0.3,0.2-0.5,0.2-0.8
								c0-0.2,0-0.5,0-0.7c-0.1-0.4-0.2-0.7-0.3-1.1c-0.9-2.2-3-4.4-3.1-4.5C566.6,1081.4,566.4,1081.4,566.3,1081.5z" class="color231f20 svgShape"></path></g></g><g fill="#000000" class="color000000 svgShape"><path fill="#e6e7e8" d="M568.5,1073.9c0.7-0.3,1.5-0.1,1.8,0.6c0.3,0.7,0,1.5-0.7,1.8c-0.7,0.3-1.5,0.1-1.8-0.6
							C567.5,1075,567.8,1074.2,568.5,1073.9z M568.7,1074.2c-0.5,0.2-0.7,0.8-0.5,1.3c0.2,0.5,0.8,0.7,1.3,0.4
							c0.5-0.2,0.7-0.8,0.5-1.3C569.7,1074.2,569.2,1074,568.7,1074.2z" class="colore6e7e8 svgShape"></path><path fill="#1f2023" d="M568.8,1074.9c-0.1,0.1,0,0.3,0.1,0.4c0.8,0.5,2.6,1.7,3.3,3c0.3,0.4,0.4,0.9,0.3,1.3
							c-0.1,0.6-0.5,1.1-1.4,1.5c-0.1,0.3-0.2,0.5-0.2,0.8c1.4-0.6,2.1-1.3,2.2-2.2c0.1-0.7-0.2-1.4-0.7-2c-1.1-1.5-3.2-2.8-3.3-2.8
							C569.1,1074.7,568.9,1074.8,568.8,1074.9z" class="color231f20 svgShape"></path></g></g><path fill="#021b79" d="M778.7,843.3l-116.8,44.8c-9.2,3.5-19.1,4.9-28.8,3.9l-126.3-13l-2.8,35.7L626.8,941
			c16,3.7,32.8,3.4,48.8-0.7l75.2-19.5L701,981c-7.9,9.5-18.1,16.9-29.6,21.5L567.6,1044l12.7,32.7l114.3-34.3
			c19.4-5.2,37.3-14.8,52.4-28l98.6-86.1l-19.3-55.7L778.7,843.3z" class="color333333 svgShape"></path><path fill="#f1f1f2" d="M945.3,787.5l12.3-0.3c-5.9,11.9-3.2,20.7,9.4,25.8l-26.4,46.8l-22.9,1.6l-66.5,34.2l-35.4,9.1
			c-11.1-1-16.9-9.2-19.7-21.4l1.9-16.4l56.7-51.9l27.6-15.1c0,0,22.3-5.1,23.8-4.8C907.6,795.5,945.3,787.5,945.3,787.5z" class="colorf1f2f2 svgShape"></path><path fill="#0575e6" d="M1125.6,865.1l-67.1,16.6c-20.3,5-41.4,6.2-62,3.5l-52.1-7c-6.6-1.4-25.3,8.4-45.4,19.4
			c-3.2,1.7-6.5,3.5-9.7,5.2c-5.5,3-10.9,5.9-16.1,8.6c-10.8,5.6-19.6,13.1-29.2,20.2c-1.7,1.3-3.5,2.6-5.3,3.8
			c-1,0.7-2.3,0.9-3.4,0.6c-0.7-0.2-1.4-0.4-2.1-0.7c-10.3-3.5-19.6-10.5-26.2-19.7c-1.8-2.4-0.9-5.9,1.8-7.3c1-0.5,2-1,3.1-1.6
			c3.2-1.7,6.5-3.3,9.7-4.9c15.1-7.5,30.4-15,44.1-24.8c1-0.7,1.9-1.4,2.9-2.1c2.9-2.1,5.7-4.3,8.6-6.5c5.4-4.1,10.8-8.1,16.9-11.4
			c8.8-4.7,18.2-8.2,27.4-12.2c17.1-7.5,30.5-18.3,44.7-32.3c0.5,0.1,0.6,0.1,1.1,0.1l12.4,21.4c5.8,10,16.2,16.4,27.8,17.2
			c9.4,0.7,20.6,1.1,32.1-0.4c38.9-5,80.3-9.7,80.3-9.7L1125.6,865.1z" class="color1e88e5 svgShape"></path><path fill="#96c0ea" d="M975.9,807.1c-7.7-12.3-3.7-23.7-3.7-23.7c-1.2,11.1,6.4,20,7.5,21.2L975.9,807.1z" class="coloreab896 svgShape"></path><path fill="#0575e6" d="M809.8,848.8l25.5,4.3l9.3-54.5l12.6-0.1l-97.9,50.5c-1.2,0.7-1.6,2.1-0.9,3.3c4.2,7,19.6,32.2,37.9,31.1
			c1.7-0.1,3.2-1.8,4.4-2.8c2-1.7,4.1-3.3,6.3-4.9c25.4-18.5,56.4-26.8,83.5-42.3c21.7-12.4,41.4-28.3,62-42.4
			c0.3-0.2,5.2-3.6,5.2-3.6c-15.5-21.9-54.1-32.8-121.1-25.4c-11.7,1.3-21,10.8-21.8,22.4L809.8,848.8z" class="color1e88e5 svgShape"></path><g fill="#000000" class="color000000 svgShape"><path fill="#404042" d="M429.6 1065.2c-51.9 32.2-105.2 62.8-159.1 91.4C322.4 1124.3 375.7 1093.7 429.6 1065.2L429.6 1065.2zM347 1129.7c-9.4 7.4-19.8 12.9-31.2 16.5C325.1 1138.8 335.6 1133.3 347 1129.7L347 1129.7zM353 1089.3c-23.6 15.5-48.6 29.4-74.3 41.2C302.4 1114.9 327.3 1101.1 353 1089.3L353 1089.3z" class="color414042 svgShape"></path></g><g fill="#000000" class="color000000 svgShape"><path fill="#404042" d="M1056.9 927.3c-51.9 32.2-105.2 62.8-159.1 91.4C949.6 986.5 1002.9 955.9 1056.9 927.3L1056.9 927.3zM974.2 991.8c-9.4 7.4-19.8 12.9-31.2 16.5C952.4 1001 962.8 995.5 974.2 991.8L974.2 991.8zM980.3 951.4c-23.6 15.5-48.6 29.4-74.3 41.2C929.6 977.1 954.6 963.2 980.3 951.4L980.3 951.4z" class="color414042 svgShape"></path></g><path fill="#9bc9f7" d="M831.9,848.5l2.8,8c0.4,1.5,1.3,2.8,2.7,3.6l5.9,3.3c1.1,0.6,1.5,2,0.9,3.1l0,0c-0.5,0.9-1.6,1.4-2.6,1.2
			l-5.9-1.2c-1.6-0.3-3.1,0.8-3.2,2.4l-1.5,16c-0.1,1.3-1.2,2.2-2.5,2.1l0,0c-1.2-0.1-2.2-1.1-2.2-2.3l0.1-9l-0.1,10.2
			c0,1.5-1.3,2.6-2.8,2.5l0,0c-1.3-0.1-2.4-1.2-2.3-2.6l0.5-15.1l-0.3,12c0,1.4-1.2,2.5-2.6,2.5l0,0c-1.4,0-2.5-1.2-2.4-2.6
			l0.8-16.1l-0.6,12.2c-0.1,1.4-1.2,2.4-2.6,2.4l0,0c-1.3,0-2.4-1.1-2.5-2.4c-0.4-9.9,0.7-20.8,2.5-32.3L831.9,848.5z" class="colorf7c19b svgShape"></path></g><g fill="#000000" class="color000000 svgShape"><path fill="#6690bb" d="M1888.1,591.8l47.1,5.8c23.8,2.9,46.7,10.9,67.1,23.5l15.5,9.5c8.3,5.1,17.1,9.5,26.2,13.1l50.9,20.1
				l-58.8,12.1c-8.9,1.8-17.7,4-26.4,6.4l-29.8,8.4c-25,7-50.6,11.5-76.4,13.3l-17,1.2L1888.1,591.8z" class="color66bb6a svgShape"></path><path fill="#344583" d="M1887.4,972c-2.7,0-4.8-0.7-4.9-1.6l-0.1-386.8c0-0.9,2.2-1.7,4.8-1.7c2.7,0,4.8,0.7,4.8,1.6l0.1,386.8
				C1892.3,971.2,1890.1,972,1887.4,972z" class="color834e34 svgShape"></path></g><g fill="#000000" class="color000000 svgShape"><path fill="#6690bb" d="M997.8,1105.2l38.7,4.7c19.6,2.4,38.4,9,55.2,19.3l12.8,7.8c6.8,4.2,14,7.8,21.5,10.7l41.9,16.5l-48.3,9.9
				c-7.3,1.5-14.5,3.3-21.7,5.3l-24.5,6.9c-20.5,5.8-41.6,9.5-62.8,10.9l-14,1L997.8,1105.2z" class="color66bb6a svgShape"></path><path fill="#344583" d="M997.3,1417.6c-2.2,0-4-0.6-4-1.4l-0.1-317.9c0-0.8,1.8-1.4,4-1.4c2.2,0,4,0.6,4,1.4l0.1,317.9
				C1001.2,1417,999.5,1417.6,997.3,1417.6z" class="color834e34 svgShape"></path></g><g fill="#000000" class="color000000 svgShape"><path fill="#6690bb" d="M365.1,1498.9l38.7,4.7c19.6,2.4,38.4,9,55.2,19.3l12.8,7.8c6.8,4.2,14,7.8,21.5,10.7l41.9,16.5l-48.3,9.9
				c-7.3,1.5-14.5,3.3-21.7,5.3l-24.5,6.9c-20.5,5.8-41.6,9.5-62.8,10.9l-14,1L365.1,1498.9z" class="color66bb6a svgShape"></path><path fill="#344583" d="M364.5,1811.4c-2.2,0-4-0.6-4-1.4l-0.1-317.9c0-0.8,1.8-1.4,4-1.4c2.2,0,4,0.6,4,1.4l0.1,317.9
				C368.5,1810.7,366.7,1811.4,364.5,1811.4z" class="color834e34 svgShape"></path></g></svg>