<svg xmlns="http://www.w3.org/2000/svg" enable-background="new 0 0 2800 2000" viewBox="0 0 2800 2000" id="CopyrightClaim"><path fill="#d5eaff" fill-rule="evenodd" d="M2279.7 493.4c-174.4-230.9-620.9-360-1117.5-299.8C553.5 267.7 100 598.4 149.4 932.3c23.9 163 163.6 296.6 370.9 382.1 174.4 230.9 620.9 360 1117.5 299.8 608.8-74 1062.3-404.7 1012.9-738.3-24.3-163.4-163.7-296.7-371-382.5z" clip-rule="evenodd" class="colord5f0ff svgShape"></path><path fill="#dfefff" fill-rule="evenodd" d="M2171.5 1911.4c1.4.8 2.1 1.2 2.1 2 0 13.8-396.6 24.7-886.3 24.7s-886.7-10.9-886.7-24.7c0-2.4 12.4-4.9 35.4-6.9-147.7-4.1-234.9-9.3-234.9-14.6 0-5.7 91.7-10.9 245.9-15-38.8-2-59.8-4.1-59.8-6.1 0-10.1 477-18.2 1065.6-18.2s1065.9 8.1 1065.9 18.2c0 2.4-28.5 4.9-79.7 6.9 135.6 4.1 215.3 8.9 215.3 14.2 0 8.1-189.6 15-482.8 19.5z" clip-rule="evenodd" class="colordfe6ff svgShape"></path><path fill="#0575e6" fill-rule="evenodd" d="M1635.8 61.9C1344.7 80 1138.6 346.3 863.7 455.7c38.6 449.3 406.6 937.3 772.1 1135C2001 1393 2369.3 905 2407.9 455.7 2133 346.3 1927 80 1635.8 61.9z" clip-rule="evenodd" class="color2c7efe svgShape"></path><path fill="#0627a3" fill-rule="evenodd" d="M1635.8 161.4C1382.6 177 1203 408.6 963.9 503.9c33.8 391 354 815.5 671.9 987.7 318-172.2 638.1-596.7 671.6-987.7-238.8-95.4-418.4-326.9-671.6-342.5z" clip-rule="evenodd" class="color0643a3 svgShape"></path><path fill="#ffffff" fill-rule="evenodd" d="M1855.9 1102.1c0 4.5-15.9 11.8-47.8 22.6-32.2 10.5-71.4 16.3-117.4 17.2-108.1 0-183.1-27.4-225.8-81.6-42.7-54.9-64.1-140-64.1-256.1 2.2-62.2 11.8-114.8 29-157.5 16.9-42.4 45-75.6 83.9-99.2 38.9-23.9 91.2-36 156.9-37 39.5 0 74.9 2.9 106.2 8.9 31.3 6.1 53.9 11.2 67.3 15l26.5 105.2c-11.5-8-31.9-17.9-61.9-29.7-29.7-12.1-65.4-18.2-107.5-18.2-57.4 0-96.3 20.4-116.1 60.6-19.5 40.5-29.3 91.2-29.3 151.8 0 46.9 2.6 88 8 123.4 5.4 35.7 16.9 66.3 35.1 91.8 18.2 25.2 45 39.2 79.7 41.5 41.1 0 75.3-4.1 102.7-11.8 27.4-7.7 48.2-16.3 63.1-26.2 13.4-8.6 20.1-13.7 20.1-14.4h-.3l-8.3 93.7z" clip-rule="evenodd" class="colorffffff svgShape"></path><path fill="#6686ff" fill-rule="evenodd" d="M729.5 1401.4c7 .6 16.9-13.7 19.8-9.2 2.6 4.8-8.3 10.8-7.3 12.4 2.2 8 24.6 4.1 25.8 10.5 2.9 16.6-24.6 20.7-46.2 1.6l1-12.4c.2-1.6-1.1-3.2 6.9-2.9z" clip-rule="evenodd" class="colorff9866 svgShape"></path><path fill="#0627a3" d="M1177 1740.5h38.6c.1 1 .1 2.1.2 3.3 0 1.2.1 2.9.1 5.2 0 20.5-4.5 35.7-13.5 45.6-9 9.9-22.7 14.9-41.2 14.9-10.9 0-20.2-1.8-28-5.4-7.8-3.6-14.1-9.1-18.8-16.4-3.3-5.2-5.7-12.5-7.2-21.8s-2.2-24-2.2-44.2c0-20.2.7-34.9 2.2-44.2 1.5-9.3 3.8-16.6 7.2-21.8 4.7-7.3 10.9-12.7 18.6-16.4 7.7-3.7 16.9-5.5 27.6-5.5 18.4 0 32.2 5.1 41.3 15.3 9.2 10.2 13.8 25.5 13.8 45.8v1.6l-38.1-.1c-.1-11.4-1.5-19.4-3.9-24-2.5-4.6-6.6-6.9-12.4-6.9-6.3 0-10.6 2.8-13 8.4-2.3 5.6-3.5 20.5-3.5 44.6v3.2c0 25.9 1.2 41.8 3.5 47.7 2.3 5.8 6.6 8.8 13 8.8 5.9 0 10-2.1 12.4-6.4 2.4-4.2 3.5-12.1 3.5-23.7v-7.6zM1237.9 1721.5c0-20.2.7-34.9 2.2-44.2 1.5-9.3 3.8-16.6 7.2-21.8 4.8-7.4 11.1-12.9 18.8-16.5 7.8-3.6 17.1-5.4 28-5.4 11 0 20.3 1.8 27.9 5.4 7.7 3.6 13.9 9.1 18.7 16.5 3.5 5.3 6 12.6 7.4 21.9 1.5 9.3 2.2 24 2.2 44.1 0 20-.7 34.7-2.2 44.1-1.5 9.3-3.9 16.6-7.4 21.9-4.7 7.3-10.9 12.8-18.7 16.4-7.7 3.6-17 5.4-27.9 5.4s-20.2-1.8-28-5.4c-7.8-3.6-14.1-9.1-18.8-16.4-3.3-5.2-5.7-12.5-7.2-21.8-1.5-9.2-2.2-24-2.2-44.2zm72.3 15.2v-30.3c0-18.6-1.2-30.1-3.5-34.5-2.4-4.4-6.6-6.6-12.8-6.6-6 0-10.2 2.3-12.5 6.8-2.3 4.5-3.5 15.9-3.5 34.3v30.3c0 18.2 1.2 29.5 3.5 34.1 2.3 4.6 6.6 6.9 12.7 6.9s10.3-2.3 12.6-6.8c2.4-4.4 3.5-15.8 3.5-34.2zM1374.3 1805.4v-167.7h38.6c14.2 0 24.7.6 31.5 1.9 6.8 1.2 12.5 3.3 17.2 6.2 6.2 3.8 10.9 9.4 14.1 16.8 3.2 7.4 4.8 16.3 4.8 26.6 0 17-4.5 29.9-13.5 38.7-9 8.8-22.1 13.2-39.5 13.2h-13.8v64.3h-39.4zm39.4-95.5c.6.1 1.3.1 2 .2.8.1 1.8.1 3.2.1 7.8 0 13.5-1.8 17-5.5s5.2-9.6 5.2-17.7c0-6.8-1.9-11.6-5.6-14.6-3.7-3-9.9-4.5-18.5-4.5h-3.4v42zM1520.9 1805.4v-71.1l-38.6-96.6h42.2l16.2 53 16.3-53h42.6l-38.6 96.6v71.1h-40.1zM1612 1805.4v-167.7h44.1c14.5 0 24.9.7 31.5 2 6.5 1.3 11.8 3.6 15.9 6.9 4.8 3.9 8.4 8.8 10.7 14.5 2.4 5.7 3.5 12.6 3.5 20.5 0 9.7-1.7 17.8-5.1 24.3-3.4 6.5-8.6 11.9-15.7 16.1 12.1 5.4 18.5 18.1 19.2 38.2v.5c.1 2.1.1 5.2.2 9.2.3 18.9 3.4 30.7 9.4 35.5h-45.9c-1-3.5-1.8-7.1-2.2-10.9-.5-3.8-.7-7.9-.7-12.3 0-2.7.1-5.9.2-9.7.1-3.8.2-6.3.2-7.5 0-10.2-1.3-17.2-4-21-2.7-3.8-7.5-5.7-14.5-5.7h-8.1v67.1H1612zm38.7-97.9c.7 0 1.5 0 2.6.1s1.8.1 2.3.1c8.1 0 13.9-1.6 17.3-4.9 3.4-3.3 5.1-8.8 5.1-16.6 0-7.2-1.7-12.3-5.1-15.3-3.4-3-9.1-4.5-17.3-4.5-.5 0-1.3 0-2.3.1-1.1.1-1.9.1-2.6.1v40.9zM1742.7 1805.4v-167.7h39.2v167.7h-39.2zM1912.2 1713.5v91.9h-27l-1.7-10.5c-3.9 4.5-8.3 7.9-13 10.1-4.8 2.2-10.1 3.3-16.2 3.3-6.8 0-13.1-1.3-18.9-3.8s-10.8-6.2-15.1-11c-5.3-5.9-9-13.8-11.2-23.7-2.2-9.9-3.3-26.8-3.3-50.5 0-16.9.8-30.5 2.3-40.6 1.5-10.2 3.9-17.8 7.1-22.9 4.6-7.3 10.8-12.9 18.5-16.6 7.7-3.7 16.8-5.6 27.3-5.6 16.5 0 28.9 4.5 37.3 13.5 8.3 9 12.5 22.3 12.5 40.1 0 .7 0 1.7-.1 3s-.1 2.4-.1 3.2h-37.3v-2.1c0-9.7-1-16.6-3.1-20.7-2.1-4.1-5.4-6.2-10.1-6.2-5.5 0-9.3 2.5-11.4 7.6-2.1 5.1-3.1 17-3.1 35.6v28.1c0 18.7 1 30.4 2.9 35.3 2 4.9 5.6 7.3 10.9 7.3 5.3 0 9.1-2.1 11.5-6.4 2.4-4.3 3.6-11.2 3.6-20.8 0-2.2 0-3.8-.1-5 0-1.2-.1-2.3-.2-3.4h-15.4v-29.3h53.4zM1937.7 1805.4v-167.7h39.2v63.4h31.5v-63.4h38.3v167.7h-38.3v-69.6h-31.5v69.6h-39.2zM2094.4 1805.4v-135.2H2063v-32.6h103.7v32.6h-33v135.2h-39.3z" class="color0643a3 svgShape"></path><path fill="#71adea" d="M1324.7 1519.2c-4.6 0-9.1-.1-13.7-.2-56.2-1.6-109.8-13.1-159.5-34.1-51.7-21.8-96-52.7-131.6-91.8l14.8-13.5c66.2 72.7 167.2 116.2 276.9 119.4 116.3 3.4 227.9-38.5 306.3-115l14 14.3c-79.2 77.3-190.5 120.9-307.2 120.9zM1941.5 1519.2c-4.6 0-9.2-.1-13.8-.2-56.1-1.7-109.7-13.1-159.3-34.1-51.6-21.8-95.9-52.7-131.5-91.8l14.8-13.5c66.2 72.6 167 116.1 276.6 119.4 116.3 3.5 228-38.5 306.5-115l14 14.3c-79.3 77.3-190.6 120.9-307.3 120.9z" class="colorea718b svgShape"></path><path fill="#0575e6" fill-rule="evenodd" d="M2228 1364.1h47V1885h-47z" clip-rule="evenodd" class="color2c7efe svgShape"></path><path fill="#0575e6" fill-rule="evenodd" d="M2251.6 1391.2c32.6 0 59.2-26.5 59.2-59.2s-26.5-59.2-59.2-59.2c-32.6 0-59.4 26.5-59.4 59.2s26.8 59.2 59.4 59.2z" clip-rule="evenodd" class="color2c7efe svgShape"></path><path fill="#ffffff" d="M2251.6 1396.2c-35.5 0-64.4-28.8-64.4-64.2 0-35.4 28.9-64.2 64.4-64.2 35.4 0 64.2 28.8 64.2 64.2 0 35.4-28.8 64.2-64.2 64.2zm0-118.4c-30 0-54.4 24.3-54.4 54.2 0 29.9 24.4 54.2 54.4 54.2 29.9 0 54.2-24.3 54.2-54.2 0-29.9-24.3-54.2-54.2-54.2z" class="colorffffff svgShape"></path><path fill="#0627a3" fill-rule="evenodd" d="M2224.3 1857.9h54.4c5.3 0 9.3 4.2 9.3 9.3v8.5c0 5.3-4 9.3-9.3 9.3h-54.4c-5.3 0-9.3-4-9.3-9.3v-8.5c0-5.1 4-9.3 9.3-9.3z" clip-rule="evenodd" class="color0643a3 svgShape"></path><path fill="#0575e6" fill-rule="evenodd" d="M1607.1 1364.1h46.7V1885h-46.7z" clip-rule="evenodd" class="color2c7efe svgShape"></path><path fill="#0575e6" fill-rule="evenodd" d="M1630.5 1391.2c32.6 0 59.2-26.5 59.2-59.2s-26.5-59.2-59.2-59.2-59.2 26.5-59.2 59.2 26.5 59.2 59.2 59.2z" clip-rule="evenodd" class="color2c7efe svgShape"></path><path fill="#ffffff" d="M1630.5 1396.2c-35.4 0-64.2-28.8-64.2-64.2 0-35.4 28.8-64.2 64.2-64.2s64.2 28.8 64.2 64.2c-.1 35.4-28.8 64.2-64.2 64.2zm0-118.4c-29.9 0-54.2 24.3-54.2 54.2 0 29.9 24.3 54.2 54.2 54.2s54.2-24.3 54.2-54.2c-.1-29.9-24.4-54.2-54.2-54.2z" class="colorffffff svgShape"></path><path fill="#0627a3" fill-rule="evenodd" d="M1603.1 1857.9h54.7c5 0 9.3 4.2 9.3 9.3v8.5c0 5.3-4.2 9.3-9.3 9.3h-54.7c-5 0-9.3-4-9.3-9.3v-8.5c.1-5.1 4.3-9.3 9.3-9.3z" clip-rule="evenodd" class="color0643a3 svgShape"></path><path fill="#0575e6" fill-rule="evenodd" d="M994.5 1364.1h46.7V1885h-46.7z" clip-rule="evenodd" class="color2c7efe svgShape"></path><path fill="#0575e6" fill-rule="evenodd" d="M1017.8 1391.2c32.6 0 59.2-26.5 59.2-59.2s-26.5-59.2-59.2-59.2c-32.6 0-59.2 26.5-59.2 59.2s26.6 59.2 59.2 59.2z" clip-rule="evenodd" class="color2c7efe svgShape"></path><path fill="#ffffff" d="M1017.8 1396.2c-35.4 0-64.2-28.8-64.2-64.2 0-35.4 28.8-64.2 64.2-64.2s64.2 28.8 64.2 64.2c0 35.4-28.8 64.2-64.2 64.2zm0-118.4c-29.9 0-54.2 24.3-54.2 54.2 0 29.9 24.3 54.2 54.2 54.2s54.2-24.3 54.2-54.2c0-29.9-24.3-54.2-54.2-54.2z" class="colorffffff svgShape"></path><path fill="#0627a3" fill-rule="evenodd" d="M990.5 1857.9h54.7c5 0 9.3 4.2 9.3 9.3v8.5c0 5.3-4.2 9.3-9.3 9.3h-54.7c-5 0-9.3-4-9.3-9.3v-8.5c0-5.1 4.2-9.3 9.3-9.3z" clip-rule="evenodd" class="color0643a3 svgShape"></path><path fill="#6686ff" fill-rule="evenodd" d="m553.8 1388.8 23.9-30.3 47.5 38.3 101.4 23.3-2.5 18.5-110.7-11.8z" clip-rule="evenodd" class="colorff9866 svgShape"></path><path fill="#48a3fe" fill-rule="evenodd" d="m528.6 1300.5-35.7 45.6 65.7 51.3 22.9-34.7z" clip-rule="evenodd" class="color4884fe svgShape"></path><path fill="#2a70b7" fill-rule="evenodd" d="m529.9 1297-35.8 45.6 65.7 51 23.3-34.5z" clip-rule="evenodd" class="color2ab78b svgShape"></path><path fill="#ffffff" fill-rule="evenodd" d="M625.5 1036.1c60.6-29.3 134.3-3.8 163.6 57.1l50.1 103.3c29.3 60.6 3.5 134.3-57.4 163.6-60.6 29.3-134.3 3.8-163.6-57.1l-49.7-103.3c-29.4-60.6-3.9-134.3 57-163.6zm20.1 41.8c38.3-18.2 84.2-2.2 102.7 36l49.1 101.7c18.5 38 2.2 84.2-35.7 102.7-38 18.2-84.2 2.2-102.7-36l-49.1-101.7c-18.5-38-2.2-84.2 35.7-102.7z" clip-rule="evenodd" class="colorffffff svgShape"></path><path fill="#81b9f1" fill-rule="evenodd" d="m578 1267.3 258-124.7c8.3-3.8 18.2-.3 22.3 8L963.6 1369c4.1 8 .6 18.2-7.7 22l-258 124.7c-8.3 3.8-18.2.3-22-7.7l-105.6-218.8c-4.1-7.9-.6-17.8 7.7-21.9z" clip-rule="evenodd" class="color8183f1 svgShape"></path><path fill="#0627a3" fill-rule="evenodd" d="M740 1273c17.9-8.6 39.2-1 47.8 16.9 4.8 9.9 4.8 20.7.6 30 2.2 3.5 4.1 7 6.1 10.8 11.8 24.2 11.5 48.8-.3 54.5-12.1 5.7-31.6-9.2-43.4-33.5-1.6-3.8-3.2-7.7-4.5-11.5-9.9-2.6-18.5-9.2-23.3-19.1-8.5-17.8-1.2-39.4 17-48.1z" clip-rule="evenodd" class="color0643a3 svgShape"></path><path fill="#6686ff" fill-rule="evenodd" d="m518.3 1266.2-31.6 5.4 5.4 27.4c16.3 9.2 29 7 35.4-1.3l-9.2-31.5z" clip-rule="evenodd" class="colorff9866 svgShape"></path><path fill="#9bcdff" fill-rule="evenodd" d="M458.4 1219.6c20.4-8.9 40.8-17.5 61.5-26.2 10.5 10.2 26.8 63.5 19.8 79.7-8.9 20.7-38.3 18.2-50.4 5.1-11.8-11.7-31.2-44.5-30.9-58.6z" clip-rule="evenodd" class="colorffbb9b svgShape"></path><path fill="#021b79" fill-rule="evenodd" d="M483.3 1227c8.3-20.7 34.1-6.7 44.6-13.1 7-8.9 41.5-49.7 27.1-67.9-9.6-10.5-46.2 2.9-59 10.2-10.8 5.4-22 13.7-30 21.4-8.3 8.9-10.8 20.1-7.3 31.6-7.7-2.2-20.7 14.7-20.1 20.7-1 19.1 26.8 18.2 39.5 34.4 8.7-3.5 2.6-34.8 5.2-37.3z" clip-rule="evenodd" class="color060352 svgShape"></path><path fill="#9bcdff" fill-rule="evenodd" d="M482.6 1254.7c11.5-7 9.6-12.1 0-17.9-3.2-3.2-9.2-5.1-11.2.3-.9 5.2 7.1 13.8 11.2 17.6z" clip-rule="evenodd" class="colorffbb9b svgShape"></path><path fill="#96c7f8" fill-rule="evenodd" d="m377.1 1818.4 11.8 13.7c11.8 21.7 59 42.7 36 64.7l-85.1-51c6.1-10.5 11.8-22.3 23.6-29l13.7 1.6z" clip-rule="evenodd" class="colorbe96f8 svgShape"></path><path fill="#6686ff" fill-rule="evenodd" d="m371.4 1802.1 25.8 15.6-8.3 14.4c-10.5-2.2-19.1-8-25.5-15.3l8-14.7z" clip-rule="evenodd" class="colorff9866 svgShape"></path><path fill="#81b9f1" fill-rule="evenodd" d="m589.5 1843.9 17.5 4.8c22 11.2 72.7 2.6 65.7 33.5l-98.9 5.1c-1-12.1-2.6-25.2 3.2-37.3l12.5-6.1z" clip-rule="evenodd" class="color8183f1 svgShape"></path><path fill="#6686ff" fill-rule="evenodd" d="m575.8 1833.4 30.3-1.3 1 16.6c-9.9 3.8-20.4 3.8-30 1.3l-1.3-16.6z" clip-rule="evenodd" class="colorff9866 svgShape"></path><path fill="#81b9f1" fill-rule="evenodd" d="m488.1 1580.5 60.9-47.9 52.6 128.9 7.3 178.2-42.1-.6-15.6-165.5z" clip-rule="evenodd" class="color8183f1 svgShape"></path><path fill="#96c7f8" fill-rule="evenodd" d="m521.9 1445.3-60.6 58c-4.5 12.4-9.2 20.1 1.6 68.9l-98.5 234.7 41.1 22.3c74.9-123.7 142.9-263.4 150.2-316.4l-33.8-67.5z" clip-rule="evenodd" class="colorbe96f8 svgShape"></path><path fill="#4283c5" fill-rule="evenodd" d="M441.2 1330.4c5.4-21 26.2-25.5 47.5-45.3 13.4 16.3 32.8 6.1 48.2 15.3 52.3 45 20.7 150.5 18.8 212.4-31.3-2.9-62.8-6.1-94.1-9.2-2.2-58-28.1-153.4-20.4-173.2z" clip-rule="evenodd" class="color42c5a0 svgShape"></path><path fill="#6686ff" fill-rule="evenodd" d="m532.1 1399.6 32.8-20.4 31.9 52 87.7 55.8-8.6 16.6-100.1-48.1z" clip-rule="evenodd" class="colorff9866 svgShape"></path><path fill="#2a70b7" fill-rule="evenodd" d="m537.8 1307.8-48.8 31.3 44.7 70.1 33.5-24.9z" clip-rule="evenodd" class="color2ab78b svgShape"></path><path fill="#4283c5" fill-rule="evenodd" d="m540.7 1304.9-49.1 31.3 44.6 70.1 33.5-24.8z" clip-rule="evenodd" class="color42c5a0 svgShape"></path><path fill="#6686ff" fill-rule="evenodd" d="M687.1 1488.3c6.4 2.9 20.7-7.3 22-1.9.6 5.4-11.8 7-11.5 9.2-.3 8 22 11.8 21 18.5-2.9 16.6-30.3 11.2-44-14l5.1-11.5c.7-1.2 0-3.2 7.4-.3z" clip-rule="evenodd" class="colorff9866 svgShape"></path><path fill="#67b2fd" fill-rule="evenodd" d="M673.4 872.3c24.8 0 45.1-20.2 45.1-45 0-24.9-20.3-45.1-45.1-45.1s-45 20.2-45 45.1c0 24.8 20.2 45 45 45z" clip-rule="evenodd" class="color6767fd svgShape"></path><path fill="#cce5fe" fill-rule="evenodd" d="M611.2 705.9h124.6c14.9 0 27.1 12.1 27.1 27.1v80.6c0 14.9-12.1 27.2-27.1 27.2H611.2c-14.9 0-27.2-12.3-27.2-27.2V733c-.1-14.9 12.3-27.1 27.2-27.1z" clip-rule="evenodd" class="colorccccfe svgShape"></path><path fill="#4269fe" fill-rule="evenodd" d="M550.5 656h-.2.2c.5.7 1.1 1.1 1.6 1.8 7.2 7.7 21.5 31.8 35.1 62.9h172.3c13.3-30.5 27.4-54.3 34.6-62.5 32.5-31.5 52.8-75.7 52.8-124.6 0-95.8-77.8-173.5-173.6-173.5s-173.5 77.6-173.5 173.5c.1 47.8 19.3 91.1 50.7 122.4z" clip-rule="evenodd" class="colorfeb542 svgShape"></path><path fill="#67b2fd" fill-rule="evenodd" d="M590.7 771.9h165.4c13.3 0 24.3 10.8 24.3 24.1s-11 24.3-24.3 24.3H590.7c-13.3 0-24.1-11-24.1-24.3s10.8-24.1 24.1-24.1z" clip-rule="evenodd" class="color6767fd svgShape"></path><path fill="#ffffff" d="M624.5 737.9h-5.6V560.1h107.8l1.4 175h-5.7l-1.3-169.3h-96.6z" class="colorffffff svgShape"></path><path fill="#67b2fd" fill-rule="evenodd" d="M590.7 705.9h165.4c13.3 0 24.3 10.8 24.3 24.3 0 13.3-11 24.1-24.3 24.1H590.7c-13.3 0-24.1-10.8-24.1-24.1 0-13.5 10.8-24.3 24.1-24.3z" clip-rule="evenodd" class="color6767fd svgShape"></path><path fill="#ffffff" fill-rule="evenodd" d="M620.9 576.1c7.2 0 13.1-5.9 13.1-13.1 0-7.2-5.9-13.1-13.1-13.1-7.2 0-13.1 5.9-13.1 13.1-.1 7.2 5.9 13.1 13.1 13.1zM647.1 576.1c7.2 0 13.1-5.9 13.1-13.1 0-7.2-5.9-13.1-13.1-13.1-7.2 0-13.1 5.9-13.1 13.1 0 7.2 5.9 13.1 13.1 13.1zM673.6 576.1c7.2 0 13.1-5.9 13.1-13.1 0-7.2-5.9-13.1-13.1-13.1-7.2 0-13.1 5.9-13.1 13.1-.1 7.2 5.8 13.1 13.1 13.1z" clip-rule="evenodd" class="colorffffff svgShape"></path><path fill="#ffffff" fill-rule="evenodd" d="M699.8 576.1c7.2 0 13.1-5.9 13.1-13.1 0-7.2-5.9-13.1-13.1-13.1-7.2 0-13.1 5.9-13.1 13.1 0 7.2 5.9 13.1 13.1 13.1z" clip-rule="evenodd" class="colorffffff svgShape"></path><path fill="#ffffff" fill-rule="evenodd" d="M725.9 576.1c7.2 0 13.1-5.9 13.1-13.1 0-7.2-5.9-13.1-13.1-13.1-7.2 0-13.1 5.9-13.1 13.1 0 7.2 5.9 13.1 13.1 13.1zM824 568.1c4.3-14.4 6.6-29.9 6.4-46-1-78.4-60.2-141.5-132.1-140.5-17.4.2-34 4.1-49.1 11 3.8-.3 7.4-.5 11.2-.5 89.1-1.1 162.5 77 163.6 174.3v1.7z" clip-rule="evenodd" class="colorffffff svgShape"></path><path fill="#2855ff" fill-rule="evenodd" d="M673.4 186.2c3.8 0 6.9 3.1 6.9 6.9v71.7c0 3.8-3.1 6.9-6.9 6.9-3.8 0-6.9-3.1-6.9-6.9v-71.7c0-3.8 3.1-6.9 6.9-6.9zM451.5 274.5c2.6-2.6 7.1-2.6 9.7 0l50.7 50.7c2.6 2.6 2.6 7.1 0 9.7-2.6 2.8-7.1 2.8-9.8 0l-50.5-50.5c-2.9-2.9-2.9-7.3-.1-9.9zM356.8 451.2c0-3.9 3.1-7.1 7.1-7.1h71.6c3.8 0 6.9 3.1 6.9 7.1 0 3.8-3.1 6.9-6.9 6.9h-71.6c-4 0-7.1-3.1-7.1-6.9zM895.4 274.5c-2.8-2.6-7.1-2.6-9.8 0l-50.7 50.7c-2.6 2.6-2.6 7.1 0 9.7 2.8 2.8 7.2 2.8 9.8 0l50.7-50.5c2.7-2.9 2.7-7.3 0-9.9zM990 451.2c0-3.9-3.1-7.1-6.9-7.1h-71.7c-3.8 0-6.9 3.1-6.9 7.1 0 3.8 3.1 6.9 6.9 6.9h71.7c3.7 0 6.9-3.1 6.9-6.9z" clip-rule="evenodd" class="colorffc328 svgShape"></path></svg>