<svg xmlns="http://www.w3.org/2000/svg" id="Creditcardpaymentofshoppingbill" x="0" y="0" enable-background="new 0 0 530 530" version="1.1" viewBox="0 0 530 530" xml:space="preserve"><g fill="#000000" class="color000000 svgShape"><g fill="#000000" class="color000000 svgShape"><g fill="#000000" class="color000000 svgShape"><g fill="#000000" class="color000000 svgShape"><path fill="#4a516b" d="M521,433.1c0,0.9-0.4,1.6-0.9,2.2c-0.6,0.6-1.3,0.9-2.2,0.9H12.1c-1.7,0-3.1-1.4-3.1-3.1
					c0-0.9,0.4-1.6,0.9-2.2c0.6-0.6,1.3-0.9,2.2-0.9h505.8C519.6,430,521,431.4,521,433.1z" class="color4a5b6b svgShape"></path></g></g><g fill="#000000" class="color000000 svgShape"><g fill="#000000" class="color000000 svgShape"><g fill="#000000" class="color000000 svgShape"><g fill="#000000" class="color000000 svgShape"><path fill="#5b658b" d="M473.5,407.6H111.8V167.8c0-4.6,3.8-8.4,8.4-8.4h344.9c4.6,0,8.4,3.8,8.4,8.4V407.6z" class="color5b6f8b svgShape"></path></g><g fill="#000000" class="color000000 svgShape"><rect width="337.7" height="224.1" x="123.8" y="171.4" fill="#ffffff" class="colorffffff svgShape"></rect></g><g fill="#000000" class="color000000 svgShape"><g fill="#000000" class="color000000 svgShape"><path fill="#a3c8ed" d="M417.5,252.6v7.3c0,6.5-5.3,11.7-11.7,11.7H227.4c-3.2,0-6.2-1.3-8.3-3.4c-2.1-2.1-3.4-5.1-3.4-8.3
								c0-6.5,5.2-11.7,11.7-11.7h178.4c3.2,0,6.2,1.3,8.3,3.4c0.3,0.3,0.6,0.7,0.9,1H417.5z" class="colora3caed svgShape"></path></g></g><g fill="#000000" class="color000000 svgShape"><g fill="#000000" class="color000000 svgShape"><path fill="#c8e3ff" d="M215.6,253.6c0,3.2,1.3,6.2,3.4,8.3c2.1,2.1,5.1,3.4,8.3,3.4h178.4c6.5,0,11.7-5.2,11.7-11.7
								c0-3.2-1.3-6.2-3.4-8.3s-5-3.4-8.3-3.4H227.4C220.9,241.8,215.6,247.1,215.6,253.6z" class="colorc8e1ff svgShape"></path></g></g><g fill="#000000" class="color000000 svgShape"><g fill="#000000" class="color000000 svgShape"><path fill="#5b658b" d="M224.2,253.6c0,1,0.4,2,1.1,2.7c0.7,0.7,1.7,1.1,2.7,1.1h177.2c2.1,0,3.8-1.7,3.8-3.8c0-1-0.4-2-1.1-2.7
								c-0.7-0.7-1.7-1.1-2.7-1.1H228C225.9,249.8,224.2,251.5,224.2,253.6z" class="color5b6f8b svgShape"></path></g></g></g><g fill="#000000" class="color000000 svgShape"><g fill="#000000" class="color000000 svgShape"><path fill="#cedff0" d="M464.7,430h-349c-12.2,0-22-9.9-22-22l0,0h393.1l0,0C486.7,420.1,476.9,430,464.7,430z" class="colorceddf0 svgShape"></path></g></g><g fill="#000000" class="color000000 svgShape"><g fill="#000000" class="color000000 svgShape"><path fill="#d9ebfd" d="M483.7,419c1.9-3.2,3-7,3-11H93.6c0,4,1.1,7.8,3,11H483.7z" class="colord9e9fd svgShape"></path></g></g></g><g fill="#000000" class="color000000 svgShape"><g fill="#000000" class="color000000 svgShape"><path fill="#f0f4f9" d="M182,152.4v230.3h158.2c13.1,0,23.7-10.6,23.7-23.7V148.4c0-4.8,1.9-9.2,5.1-12.3
						c3.1-3.2,7.5-5.1,12.3-5.1H203.4C191.5,131,182,140.6,182,152.4z" class="colorf0f4f9 svgShape"></path></g><g fill="#000000" class="color000000 svgShape"><g fill="#000000" class="color000000 svgShape"><path fill="#dde3ea" d="M363.9,148.4v108.9h34.9V148.4c0-9.6-7.8-17.4-17.4-17.4c-4.8,0-9.2,1.9-12.3,5.1
							C365.8,139.3,363.9,143.6,363.9,148.4z" class="colordde3ea svgShape"></path></g></g><g fill="#000000" class="color000000 svgShape"><path fill="#dde3ea" d="M165.9,347.7c56.3,0,112.7,0,169,0c-20.9,0-18.5,35,7.3,35c-56.3,0-112.7,0-169,0
						C147.4,382.7,144.9,347.7,165.9,347.7z" class="colordde3ea svgShape"></path></g><g fill="#000000" class="color000000 svgShape"><path fill="#1444fa" d="M255.8,177.3c0,1.3,0.5,2.5,1.4,3.3c0.9,0.9,2,1.4,3.3,1.4h69.8c2.6,0,4.7-2.1,4.7-4.7
						c0-1.3-0.5-2.5-1.4-3.3c-0.8-0.9-2-1.4-3.3-1.4h-69.8C257.9,172.6,255.8,174.7,255.8,177.3z" class="colorfa5814 svgShape"></path></g><g fill="#000000" class="color000000 svgShape"><path fill="#d8dbdf" d="M296.9,197.1c0,1.3,0.5,2.5,1.4,3.3c0.9,0.9,2,1.4,3.3,1.4h28.7c2.6,0,4.7-2.1,4.7-4.7
						c0-1.3-0.5-2.5-1.4-3.3c-0.8-0.9-2-1.4-3.3-1.4h-28.7C299.1,192.4,296.9,194.5,296.9,197.1z" class="colord8dadf svgShape"></path></g><g fill="#000000" class="color000000 svgShape"><path fill="#335dfd" d="M271.8,216.9c0,1.3,0.5,2.5,1.4,3.3c0.9,0.9,2,1.4,3.3,1.4h53.9c2.6,0,4.7-2.1,4.7-4.7
						c0-1.3-0.5-2.5-1.4-3.3c-0.8-0.9-2-1.4-3.3-1.4h-53.9C273.9,212.1,271.8,214.3,271.8,216.9z" class="colorfdd333 svgShape"></path></g><g fill="#000000" class="color000000 svgShape"><path fill="#d8dbdf" d="M271.8,235.2c0,1.3,0.5,2.5,1.4,3.3c0.9,0.9,2,1.4,3.3,1.4h53.9c2.6,0,4.7-2.1,4.7-4.7
						c0-1.3-0.5-2.5-1.4-3.3c-0.8-0.9-2-1.4-3.3-1.4h-53.9C273.9,230.5,271.8,232.6,271.8,235.2z" class="colord8dadf svgShape"></path></g><g fill="#000000" class="color000000 svgShape"><path fill="#d8dbdf" d="M271.8,253.6c0,1.3,0.5,2.5,1.4,3.3s2,1.4,3.3,1.4h53.9c2.6,0,4.7-2.1,4.7-4.7c0-1.3-0.5-2.5-1.4-3.3
						c-0.8-0.9-2-1.4-3.3-1.4h-53.9C273.9,248.9,271.8,251,271.8,253.6z" class="colord8dadf svgShape"></path></g><g fill="#000000" class="color000000 svgShape"><path fill="#d8dbdf" d="M271.8,272c0,1.3,0.5,2.5,1.4,3.3s2,1.4,3.3,1.4h53.9c2.6,0,4.7-2.1,4.7-4.7c0-1.3-0.5-2.5-1.4-3.3
						c-0.8-0.9-2-1.4-3.3-1.4h-53.9C273.9,267.3,271.8,269.4,271.8,272z" class="colord8dadf svgShape"></path></g><g fill="#000000" class="color000000 svgShape"><path fill="#d8dbdf" d="M255.8,197.1c0,1.3,0.5,2.5,1.4,3.3c0.9,0.9,2,1.4,3.3,1.4h28.7c2.6,0,4.7-2.1,4.7-4.7
						c0-1.3-0.5-2.5-1.4-3.3c-0.8-0.9-2-1.4-3.3-1.4h-28.7C257.9,192.4,255.8,194.5,255.8,197.1z" class="colord8dadf svgShape"></path></g><g fill="#000000" class="color000000 svgShape"><g fill="#000000" class="color000000 svgShape"><path fill="#d8dbdf" d="M199.6,234.9c-0.1,1.4,0.4,2.7,1.4,3.7c0.9,0.9,2,1.4,3.3,1.4h11.8c1.3,0,2.5-0.5,3.3-1.4
							c0.9-0.9,1.4-2,1.4-3.3c0-2.6-2.1-4.7-4.7-4.7h-11.6C202.1,230.5,199.8,232.4,199.6,234.9z" class="colord8dadf svgShape"></path></g><g fill="#000000" class="color000000 svgShape"><path fill="#d8dbdf" d="M199.6,196.7c-0.1,1.4,0.4,2.7,1.4,3.7c0.9,0.9,2,1.4,3.3,1.4h11.8c1.3,0,2.5-0.5,3.3-1.4
							c0.9-0.8,1.4-2,1.4-3.3c0-2.6-2.1-4.7-4.7-4.7h-11.6C202.1,192.4,199.8,194.2,199.6,196.7z" class="colord8dadf svgShape"></path></g><g fill="#000000" class="color000000 svgShape"><path fill="#d8dbdf" d="M199.6,271.6c-0.1,1.4,0.4,2.7,1.4,3.7c0.9,0.9,2,1.4,3.3,1.4h11.8c1.3,0,2.5-0.5,3.3-1.4
							c0.9-0.9,1.4-2,1.4-3.3c0-2.6-2.1-4.7-4.7-4.7h-11.6C202.1,267.3,199.8,269.1,199.6,271.6z" class="colord8dadf svgShape"></path></g><g fill="#000000" class="color000000 svgShape"><path fill="#1444fa" d="M219.5,180.6c0.9-0.9,1.4-2,1.4-3.3c0-2.6-2.1-4.7-4.7-4.7h-11.6c-2.5,0-4.8,1.9-5,4.4
							c-0.1,1.4,0.4,2.7,1.4,3.7c0.9,0.9,2,1.4,3.3,1.4h11.8C217.5,182,218.6,181.5,219.5,180.6z" class="colorfa5814 svgShape"></path></g><g fill="#000000" class="color000000 svgShape"><path fill="#d8dbdf" d="M199.6,216.5c-0.1,1.4,0.4,2.7,1.4,3.7c0.9,0.9,2,1.4,3.3,1.4h11.8c1.3,0,2.5-0.5,3.3-1.4
							c0.9-0.9,1.4-2,1.4-3.3c0-2.6-2.1-4.7-4.7-4.7h-11.6C202.1,212.1,199.8,214,199.6,216.5z" class="colord8dadf svgShape"></path></g><g fill="#000000" class="color000000 svgShape"><path fill="#0575e6" d="M199.6,253.3c-0.1,1.4,0.4,2.7,1.4,3.7c0.9,0.9,2,1.4,3.3,1.4h11.8c1.3,0,2.5-0.5,3.3-1.4
							c0.9-0.9,1.4-2,1.4-3.3c0-2.6-2.1-4.7-4.7-4.7h-11.6C202.1,248.9,199.8,250.8,199.6,253.3z" class="color3d84f2 svgShape"></path></g></g><g fill="#000000" class="color000000 svgShape"><path fill="#d8dbdf" d="M198.3,290.9L198.3,290.9c0,1.4,1.1,2.5,2.5,2.5h134.5c1.4,0,2.5-1.1,2.5-2.5v0c0-1.4-1.1-2.5-2.5-2.5
						H200.8C199.5,288.4,198.3,289.5,198.3,290.9z" class="colord8dadf svgShape"></path></g></g><g fill="#000000" class="color000000 svgShape"><g fill="#000000" class="color000000 svgShape"><path fill="#d8dbdf" d="M301.6,336.3c-0.2-0.2-0.3-0.4-0.3-0.6v-2.5c-1.8-0.2-3.3-0.7-4.6-1.3c-1.3-0.7-2.2-1.5-2.8-2.5
						c-0.6-1-1-2.1-1-3.2c0-0.2,0.1-0.4,0.2-0.5c0.2-0.1,0.3-0.2,0.6-0.2h4.8c0.3,0,0.5,0,0.7,0.1c0.2,0.1,0.4,0.3,0.6,0.5
						c0.7,1.3,2.1,2,4.1,2c1.3,0,2.3-0.2,3-0.6c0.7-0.4,1.1-0.9,1.1-1.6c0-0.5-0.2-0.9-0.6-1.2c-0.4-0.3-0.9-0.6-1.7-0.9
						c-0.8-0.3-1.9-0.5-3.4-0.8c-2.9-0.6-5-1.4-6.5-2.6c-1.4-1.2-2.1-2.8-2.1-5c0-1.9,0.7-3.6,2.1-4.9c1.4-1.3,3.3-2.2,5.7-2.5v-2.5
						c0-0.3,0.1-0.5,0.3-0.6c0.2-0.2,0.4-0.3,0.6-0.3h3.1c0.3,0,0.5,0.1,0.6,0.3c0.2,0.2,0.3,0.4,0.3,0.6v2.6
						c1.6,0.3,2.9,0.8,4.1,1.5c1.1,0.7,2,1.6,2.6,2.5c0.6,0.9,0.9,1.9,1,2.7c0,0.2-0.1,0.4-0.2,0.6c-0.1,0.2-0.3,0.2-0.5,0.2h-5
						c-0.5,0-1-0.2-1.2-0.6c-0.1-0.5-0.5-0.9-1.1-1.3c-0.6-0.3-1.3-0.5-2.2-0.5c-1,0-1.8,0.2-2.3,0.5c-0.5,0.4-0.8,0.9-0.8,1.6
						c0,0.7,0.4,1.2,1.1,1.6c0.7,0.4,2,0.8,4,1.2c2.2,0.4,4,0.9,5.4,1.5c1.3,0.6,2.3,1.4,2.9,2.4c0.6,1,0.9,2.2,0.9,3.7
						c0,2.1-0.8,3.8-2.3,5.2c-1.5,1.4-3.6,2.2-6.2,2.5v2.5c0,0.3-0.1,0.5-0.3,0.6c-0.2,0.2-0.4,0.3-0.6,0.3h-3.1
						C302,336.5,301.8,336.4,301.6,336.3z" class="colord8dadf svgShape"></path></g></g><g fill="#000000" class="color000000 svgShape"><g fill="#000000" class="color000000 svgShape"><path fill="#d8dbdf" d="M271.8,311.1c0,0.8-0.7,1.5-1.5,1.5h-53.6c-0.8,0-1.5-0.7-1.5-1.5c0-0.8,0.7-1.5,1.5-1.5h53.6
						C271.1,309.6,271.8,310.3,271.8,311.1z" class="colord8dadf svgShape"></path></g><g fill="#000000" class="color000000 svgShape"><path fill="#d8dbdf" d="M271.8,320.4c0,0.8-0.7,1.5-1.5,1.5h-53.6c-0.8,0-1.5-0.7-1.5-1.5s0.7-1.5,1.5-1.5h53.6
						C271.1,319,271.8,319.6,271.8,320.4z" class="colord8dadf svgShape"></path></g><g fill="#000000" class="color000000 svgShape"><path fill="#d8dbdf" d="M271.8,329.8c0,0.8-0.7,1.5-1.5,1.5h-53.6c-0.8,0-1.5-0.7-1.5-1.5c0-0.8,0.7-1.5,1.5-1.5h53.6
						C271.1,328.3,271.8,329,271.8,329.8z" class="colord8dadf svgShape"></path></g></g><g fill="#000000" class="color000000 svgShape"><g fill="#000000" class="color000000 svgShape"><path fill="#0575e6" d="M472.6,100.1v62.7c0,3.4-2.8,6.3-6.3,6.3H359.8c-3.4,0-6.2-2.8-6.2-6.3v-62.7c0-3.4,2.8-6.3,6.2-6.3h106.5
						C469.8,93.8,472.6,96.6,472.6,100.1z" class="color3d84f2 svgShape"></path></g><g fill="#000000" class="color000000 svgShape"><g fill="#000000" class="color000000 svgShape"><path fill="#ffffff" d="M385.8,131.4c0,1.1-0.8,1.9-1.9,1.9H366c-1.1,0-1.9-0.8-1.9-1.9c0-1,0.8-1.9,1.9-1.9h17.9
							C384.9,129.5,385.8,130.4,385.8,131.4z" class="colorffffff svgShape"></path></g><g fill="#000000" class="color000000 svgShape"><path fill="#ffffff" d="M411.2,131.4c0,1.1-0.8,1.9-1.9,1.9h-17.9c-1.1,0-1.9-0.8-1.9-1.9c0-1,0.8-1.9,1.9-1.9h17.9
							C410.4,129.5,411.2,130.4,411.2,131.4z" class="colorffffff svgShape"></path></g><g fill="#000000" class="color000000 svgShape"><path fill="#ffffff" d="M436.7,131.4c0,1.1-0.8,1.9-1.9,1.9h-17.9c-1.1,0-1.9-0.8-1.9-1.9c0-1,0.8-1.9,1.9-1.9h17.9
							C435.8,129.5,436.7,130.4,436.7,131.4z" class="colorffffff svgShape"></path></g><g fill="#000000" class="color000000 svgShape"><path fill="#ffffff" d="M462.1,131.4c0,1.1-0.8,1.9-1.9,1.9h-17.9c-1.1,0-1.9-0.8-1.9-1.9c0-1,0.8-1.9,1.9-1.9h17.9
							C461.3,129.5,462.1,130.4,462.1,131.4z" class="colorffffff svgShape"></path></g></g><g fill="#000000" class="color000000 svgShape"><path fill="#ffffff" d="M381.6,150.8c0,4.3-3.5,7.8-7.8,7.8c-4.3,0-7.8-3.5-7.8-7.8c0-4.3,3.5-7.8,7.8-7.8
						C378.1,142.9,381.6,146.4,381.6,150.8z" class="colorffffff svgShape"></path></g><g fill="#000000" class="color000000 svgShape"><path fill="#0575e6" d="M394.6,150.8c0,5.4-4.3,9.7-9.7,9.7c-5.3,0-9.7-4.3-9.7-9.7c0-5.4,4.3-9.7,9.7-9.7
						C390.3,141.1,394.6,145.4,394.6,150.8z" class="color3d84f2 svgShape"></path></g><g fill="#000000" class="color000000 svgShape"><path fill="#1444fa" d="M392.8,150.8c0,4.3-3.5,7.8-7.8,7.8c-4.3,0-7.8-3.5-7.8-7.8c0-4.3,3.5-7.8,7.8-7.8
						C389.3,142.9,392.8,146.4,392.8,150.8z" class="colorfa5814 svgShape"></path></g><g fill="#000000" class="color000000 svgShape"><path fill="#335dfd" d="M387.2,106.5v13c0,1.7-1.4,3.1-3.1,3.1H369c-1.7,0-3.1-1.4-3.1-3.1v-13c0-1.7,1.4-3.1,3.1-3.1h15.1
						C385.8,103.4,387.2,104.8,387.2,106.5z" class="colorfdd333 svgShape"></path></g></g><g fill="#000000" class="color000000 svgShape"><g fill="#000000" class="color000000 svgShape"><path fill="#172d7f" d="M479.7,400.4c0,0,5.1-41.9-16.6-50.6c-21.7-8.7-28-13.5-28-13.5s3.3,18.8,19.2,29.4
						C470.4,376.4,479.7,400.4,479.7,400.4z" class="color327f17 svgShape"></path></g><g fill="#000000" class="color000000 svgShape"><path fill="#172d7f" d="M479.7,400.4c6.3-7.4,12.5-13.4,17.4-16.1c11.8-6.6,18.8-16.2,23.9-25.8c0,0-15.8-4.6-27,5.5
						C482.8,374.2,479.7,400.4,479.7,400.4z" class="color327f17 svgShape"></path></g><g fill="#000000" class="color000000 svgShape"><g fill="#000000" class="color000000 svgShape"><g fill="#000000" class="color000000 svgShape"><path fill="#2b4192" d="M500.7,365.5c-15.2,15.6-21,35-21,35s-14.5-53.7,34-63.5C513.7,336.9,515.9,349.9,500.7,365.5z" class="color44922b svgShape"></path></g><g fill="#000000" class="color000000 svgShape"><path fill="#2b4192" d="M479.7,400.4c-0.6-0.6-12.5-13.7-26.2-21.5c-14-8-14.9-16.4-14.9-16.4s1.2,3.6,16.6,6.9
								C470.4,372.7,479.4,399.6,479.7,400.4z" class="color44922b svgShape"></path></g></g><g fill="#000000" class="color000000 svgShape"><path fill="#3958cb" d="M506.6,399.2c0,0.6-0.3,1.2-0.7,1.7c-0.4,0.4-1,0.7-1.7,0.7h-49c-1.3,0-2.4-1.1-2.4-2.4
							c0-0.7,0.3-1.3,0.7-1.7c0.4-0.4,1-0.7,1.7-0.7h49C505.5,396.8,506.6,397.9,506.6,399.2z" class="colorcb6e39 svgShape"></path></g><g fill="#000000" class="color000000 svgShape"><path fill="#5c79e5" d="M501.3,401.6l-7.4,27.4c-0.2,0.6-0.7,1-1.3,1H467c-0.6,0-1.2-0.4-1.3-1l-7.4-27.4H501.3z" class="colore58c5c svgShape"></path></g></g></g><g fill="#000000" class="color000000 svgShape"><g fill="#000000" class="color000000 svgShape"><path fill="#021b79" d="M117.7,427.9c0,0.6-0.1,1-0.2,1.4c-0.1,0.4-0.5,0.7-0.9,0.7H87.6c-0.4,0-0.7-0.4-0.6-0.8l1.1-4.7
						l3.4-14.4c0.1-0.4,0.5-0.7,1-0.7l9.9,1c0.5,0,0.8,0.4,0.8,0.9c0.1,1.9,1,6.6,8.2,8.7C117.1,421.5,117.8,425.4,117.7,427.9z" class="color292561 svgShape"></path></g><g fill="#000000" class="color000000 svgShape"><path fill="#191f37" d="M107.7,418.3c-3.8-2.3-4.4-5.6-4.5-7c0-0.5-0.4-0.8-0.8-0.9l-9.9-1c-0.5,0-0.9,0.3-1,0.7l-1.9,8.3H107.7z
						" class="color191937 svgShape"></path></g></g><g fill="#000000" class="color000000 svgShape"><g fill="#000000" class="color000000 svgShape"><path fill="#021b79" d="M55.2,427.9c0,0.6-0.1,1-0.2,1.4c-0.1,0.4-0.5,0.7-0.9,0.7H25.1c-0.4,0-0.7-0.4-0.6-0.8l1.1-4.7l3.4-14.4
						c0.1-0.4,0.5-0.7,1-0.7l9.9,1c0.5,0,0.8,0.4,0.8,0.9c0.1,1.9,1,6.6,8.2,8.7C54.6,421.5,55.3,425.4,55.2,427.9z" class="color292561 svgShape"></path></g><g fill="#000000" class="color000000 svgShape"><path fill="#191f37" d="M45.2,418.3c-3.8-2.3-4.4-5.6-4.5-7c0-0.5-0.4-0.8-0.8-0.9l-9.9-1c-0.5,0-0.9,0.3-1,0.7l-1.9,8.3H45.2z" class="color191937 svgShape"></path></g></g><g fill="#000000" class="color000000 svgShape"><path fill="#c4e1ff" d="M38.2,282.3c0,0-4.8,21.6-10.8,14s4-17.1,4-17.1L38.2,282.3z" class="colorffd1c4 svgShape"></path></g><g fill="#000000" class="color000000 svgShape"><path fill="#335dfd" d="M72.9,339.4l-2.4,11.3l-12.3,64.9H11.4c-11-30.5,19.1-57.6,27-74c8.8-18.3,11.2-74,25.6-90.6l16.5-9
					c0,0,0.2,1,0.6,2.7c1.6,6.5,5.5,23.9,6.9,37.3C89.8,298.8,72.9,339.4,72.9,339.4z" class="colorfdd333 svgShape"></path></g><g fill="#000000" class="color000000 svgShape"><path fill="#0030e3" d="M72.9,339.4l-2.4,11.3c-1.9-1.7-3-4.2-3.4-6.7c-0.6-3.7,0.4-7.4,1.7-10.9c1.3-3.5,2.9-6.9,3.9-10.5
					c2.1-7.8,0.8-16.2-1.2-24.1c-2-7.9-4.7-15.6-5.3-23.7c-0.5-5.9,0.3-12.2,3-17.6c1.2-2.4,2.6-3.7,4.6-5.2c2.7-2,4.9-4.9,7.3-7.3
					c1.6,6.5,5.5,23.9,6.9,37.3C89.8,298.8,72.9,339.4,72.9,339.4z" class="colore3b400 svgShape"></path></g><g fill="#000000" class="color000000 svgShape"><path fill="#335dfd" d="M103.7,250.2c0,0,12.4,48.1,15.6,74.9c3.2,26.8-2.6,61.9,6.6,90.4l-47.1,0c-13.5-23.9,2.5-45.7,5.8-69.5
					c2.1-15.1-27.4-91.5-8.3-95.8C88.9,245,103.7,250.2,103.7,250.2z" class="colorfdd333 svgShape"></path></g><g fill="#000000" class="color000000 svgShape"><g fill="#000000" class="color000000 svgShape"><path fill="#1444fa" d="M105,253.4c-0.1,1.6-7.8,2.3-16.5,2.3c-11.8-0.1-25.6-1.5-25.4-3.7c1.1-14.2-14-44.9-9.7-56.7
						c3.5-9.5,33.1-14,44.4-11.7c1.3,0.3,2.3,1.1,3.1,2.4c5.2,8.2,1.7,34.5,0.2,42.5C99.7,236,105,253.4,105,253.4z" class="colorfa5814 svgShape"></path></g><g fill="#000000" class="color000000 svgShape"><path fill="#1444fa" d="M54.6,193.3c0,0-12.5,23.1-13.7,47.3l-14.1,41.3l13.2,2c0,0,14.9-34.5,16-41.9c1.2-7.4,6.6-33.9,6.6-33.9
						L54.6,193.3z" class="colorfa5814 svgShape"></path></g><g fill="#000000" class="color000000 svgShape"><path fill="#c4e1ff" d="M79.8,183.8v-5.4c0,0,6.2-1.4,6.3-3.9c0.1-2.5,2.9-20.1-9.7-19.2S64.8,170.4,65,172.5
						c0.3,2.2,4.1,13.4,4.1,13.4L79.8,183.8z" class="colorffd1c4 svgShape"></path></g><g fill="#000000" class="color000000 svgShape"><path fill="#191f37" d="M50.1,226c0,0,24.2,5.9,26.1-14.2c5.5-29.7,0.5-29.1-4.5-35.5c-1.4-1.8-4.1-6.4-2.8-7.7
						c0.7-0.7,3.1,0.3,4.1,0.5c1,0.2,1.8-1.8,0.9-4.1s22.1-4.4,14.2-13.5s-26.8-4.2-29.7,9.3s-1.5,23-9.4,31.5
						C41.1,200.7,28,223.3,50.1,226z" class="color191937 svgShape"></path></g></g><g fill="#000000" class="color000000 svgShape"><path fill="#0030e4" d="M105,253.4c-0.1,1.6-7.8,2.3-16.5,2.3c-1.3-1.2-2.2-2.8-2.1-4.6c0.1-2.3,2-4.2,3.5-5.9
					c4.3-5,7-11.4,7.6-18c0.6-6.6-1-13.4-4.4-19.1c-1.4-2.3-3.1-4.5-4.2-7c-2.8-6.5-0.9-15.5,7.5-15.8c1.6-0.1,3.1,0.2,4.6,0.8
					c5.2,8.2,1.7,34.5,0.2,42.5C99.7,236,105,253.4,105,253.4z" class="colore44000 svgShape"></path></g><g fill="#000000" class="color000000 svgShape"><g fill="#000000" class="color000000 svgShape"><path fill="#c4e1ff" d="M161.4,163.1c0,0,5.8-15,14.5-8.8c8.7,6.2-9.6,14.3-9.6,14.3L161.4,163.1z" class="colorffd1c4 svgShape"></path></g><g fill="#000000" class="color000000 svgShape"><path fill="#1444fa" d="M87.8,183.1c1.7-0.7,22.2,2,41.4,5.5l31.7-27.1l7.9,8.2c0,0-30.1,33.5-35.4,35.1c-6.5,2-39.7-4-43-6.6
						C85.5,194.3,86.6,182.9,87.8,183.1z" class="colorfa5814 svgShape"></path></g></g><g fill="#000000" class="color000000 svgShape"><path fill="#bad5f1" d="M79.8,178.4c0,0-2.3,0.8-5.7-0.1c0,0,2.6,2.4,5.7,3.1V178.4z" class="colorf1c0ba svgShape"></path></g></g></g></g></svg>