<svg width="54" height="54" viewBox="0 0 54 54" fill="none" xmlns="http://www.w3.org/2000/svg">
<rect width="54" height="54" rx="12" fill="url(#paint0_linear_13372_150833)"/>
<path d="M21.6429 32.3555H19.5V30.2126C19.5009 29.3604 19.8398 28.5433 20.4424 27.9407C21.045 27.3381 21.8621 26.9992 22.7143 26.9983H29.1429V29.1412H22.7143C22.4302 29.1415 22.1579 29.2544 21.957 29.4553C21.7561 29.6562 21.6431 29.9285 21.6429 30.2126V32.3555ZM25.9286 25.9269C25.0809 25.9269 24.2523 25.6755 23.5476 25.2046C22.8428 24.7337 22.2935 24.0644 21.9691 23.2813C21.6447 22.4981 21.5598 21.6364 21.7252 20.8051C21.8906 19.9737 22.2987 19.2101 22.8981 18.6107C23.4975 18.0114 24.2611 17.6032 25.0925 17.4378C25.9238 17.2725 26.7855 17.3573 27.5686 17.6817C28.3518 18.0061 29.0211 18.5554 29.492 19.2602C29.9629 19.965 30.2143 20.7936 30.2143 21.6412C30.2129 22.7774 29.7609 23.8667 28.9575 24.6701C28.154 25.4735 27.0648 25.9255 25.9286 25.9269ZM25.9286 19.4983C25.5048 19.4983 25.0905 19.624 24.7381 19.8595C24.3857 20.0949 24.111 20.4296 23.9488 20.8211C23.7866 21.2127 23.7442 21.6436 23.8269 22.0592C23.9096 22.4749 24.1137 22.8567 24.4133 23.1564C24.713 23.4561 25.0948 23.6602 25.5105 23.7429C25.9262 23.8256 26.3571 23.7831 26.7486 23.6209C27.1402 23.4587 27.4748 23.1841 27.7103 22.8317C27.9458 22.4793 28.0714 22.065 28.0714 21.6412C28.0709 21.073 27.8449 20.5283 27.4432 20.1266C27.0414 19.7248 26.4967 19.4989 25.9286 19.4983ZM35.5714 33.4269C34.7238 33.4269 33.8952 33.1755 33.1904 32.7046C32.4856 32.2337 31.9363 31.5644 31.6119 30.7813C31.2876 29.9981 31.2027 29.1364 31.3681 28.3051C31.5334 27.4737 31.9416 26.7101 32.541 26.1107C33.1403 25.5114 33.904 25.1032 34.7353 24.9378C35.5667 24.7725 36.4284 24.8573 37.2115 25.1817C37.9946 25.5061 38.6639 26.0554 39.1349 26.7602C39.6058 27.465 39.8571 28.2936 39.8571 29.1412C39.8557 30.2774 39.4037 31.3667 38.6003 32.1701C37.7969 32.9735 36.7076 33.4255 35.5714 33.4269ZM35.5714 26.9983C35.1476 26.9983 34.7333 27.124 34.3809 27.3595C34.0285 27.5949 33.7539 27.9296 33.5917 28.3211C33.4295 28.7127 33.3871 29.1436 33.4697 29.5592C33.5524 29.9749 33.7565 30.3567 34.0562 30.6564C34.3559 30.9561 34.7377 31.1602 35.1534 31.2429C35.5691 31.3256 35.9999 31.2831 36.3915 31.1209C36.783 30.9587 37.1177 30.6841 37.3531 30.3317C37.5886 29.9793 37.7143 29.565 37.7143 29.1412C37.7137 28.573 37.4878 28.0283 37.086 27.6266C36.6843 27.2248 36.1396 26.9989 35.5714 26.9983ZM42 39.8555H39.8571V37.7126C39.8569 37.4285 39.7439 37.1562 39.543 36.9553C39.3421 36.7544 39.0698 36.6415 38.7857 36.6412H32.3571C32.0731 36.6415 31.8007 36.7544 31.5998 36.9553C31.399 37.1562 31.286 37.4285 31.2857 37.7126V39.8555H29.1429V37.7126C29.1437 36.8604 29.4826 36.0433 30.0852 35.4407C30.6879 34.8381 31.5049 34.4992 32.3571 34.4983H38.7857C39.6379 34.4992 40.455 34.8381 41.0576 35.4407C41.6602 36.0433 41.9991 36.8604 42 37.7126V39.8555Z" fill="white"/>
<path d="M24.8571 39.5711L19.2493 36.5818C17.7056 35.7606 16.4146 34.5346 15.515 33.0353C14.6154 31.536 14.141 29.8199 14.1429 28.0714V14.1429H35.5714V20.5714H37.7143V14.1429C37.7137 13.5747 37.4878 13.03 37.086 12.6283C36.6843 12.2265 36.1396 12.0006 35.5714 12H14.1429C13.5747 12.0006 13.03 12.2265 12.6283 12.6283C12.2265 13.03 12.0006 13.5747 12 14.1429V28.0714C11.9976 30.2082 12.5772 32.3053 13.6766 34.1376C14.7759 35.97 16.3535 37.4683 18.24 38.4718L24.8571 42V39.5711Z" fill="white"/>
<defs>
<linearGradient id="paint0_linear_13372_150833" x1="-3.27015e-07" y1="42.12" x2="54" y2="17.28" gradientUnits="userSpaceOnUse">
<stop stop-color="#0575E6"/>
<stop offset="1" stop-color="#021B79"/>
</linearGradient>
</defs>
</svg>
