<svg xmlns="http://www.w3.org/2000/svg" enable-background="new 0 0 2000 2000" viewBox="28.101 429.875 1916.869 1419.979" id="DataRetrieval"><g opacity=".41" fill="#000000" class="color000000 svgShape"><path fill="#abd5ff" d="M142.16 932.37L142.16 932.37c0-101.28 88.06-183.38 196.68-183.38h41.03c-19.19-15.49-31.35-38.35-31.35-63.87v0c0-46.65 40.56-84.47 90.59-84.47h136.55c-13.81-11.08-22.59-27.47-22.59-45.79 0-33.38 29.02-60.44 64.82-60.44h342.87c35.8 0 64.82 27.06 64.82 60.44 0 33.38-29.02 60.44-64.82 60.44H832.38c-23.91 15.21-39.6 40.8-39.6 69.82v0c0 25.52 12.16 48.38 31.35 63.87h211.14c108.62 0 196.68 82.1 196.68 183.38l0 0c0 101.28-88.06 183.38-196.68 183.38h279.71c50.03 0 90.59 37.82 90.59 84.47 0 46.65-40.56 84.47-90.59 84.47h113.97c124.52 0 227.89 84.17 248.4 194.8h39.91c77.64 0 140.58 58.68 140.58 131.07v13.28c0 72.39-62.94 131.07-140.58 131.07h-288.31H485.4h-91.07c-139.27 0-252.17-105.26-252.17-235.11l0 0c0-129.85 112.9-235.11 252.17-235.11h441.46c-50.03 0-90.59-37.82-90.59-84.47 0-46.65 40.56-84.47 90.59-84.47H338.84C230.22 1115.75 142.16 1033.65 142.16 932.37zM1144.48 615.3c-32.52 0-58.89-27.06-58.89-60.44 0-33.38 26.37-60.44 58.89-60.44 32.52 0 58.89 27.06 58.89 60.44C1203.37 588.24 1177 615.3 1144.48 615.3z" class="colorabe9ff svgShape"></path></g><path fill="#1f2023" d="M1857.84,1758.35c0,22.45-392.68,26.96-866.46,26.96s-849.22-4.51-849.22-26.96   c0-22.45,383.91-21.75,857.68-21.75C1473.61,1736.6,1857.84,1735.9,1857.84,1758.35z" opacity=".15" class="color231f20 svgShape"></path><path fill="#a9c9ea" d="M1554.41,607.23c0.2-9.25-1.21-18.6-4.35-27.61l20.19-17.9l-13.23-21.33l-24.88,10.1     c-6.69-6.93-14.47-12.44-22.9-16.44l1.61-26.82l-24.43-5.73l-10.51,24.88c-9.24-0.09-18.56,1.44-27.53,4.69l-18.04-20.36     l-21.32,13.23l10.35,25.51c-6.61,6.57-11.88,14.16-15.74,22.34l-27.76-1.67l-5.72,24.44l25.92,10.96     c-0.02,8.84,1.45,17.75,4.48,26.35l-21.19,18.79l13.23,21.33l26.36-10.7c6.34,6.43,13.64,11.6,21.51,15.45l-1.71,28.42     l24.43,5.73l11.02-26.09c8.85,0.13,17.78-1.23,26.42-4.16l18.65,21.04l21.32-13.23l-10.45-25.76     c6.73-6.46,12.14-13.96,16.13-22.08l27.46,1.66l5.72-24.44L1554.41,607.23z M1496.15,639.28c-18.6,11.54-43.04,5.82-54.58-12.79     c-11.54-18.61-5.82-43.05,12.78-54.59c18.6-11.54,43.04-5.82,54.58,12.79C1520.47,603.29,1514.75,627.73,1496.15,639.28z" class="colora9ceea svgShape"></path><path fill="#c9def4" d="M1544.89,612.18c0.2-9.25-1.22-18.6-4.35-27.61l20.19-17.9l-13.23-21.33l-24.88,10.1     c-6.69-6.93-14.47-12.44-22.9-16.44l1.61-26.82l-24.43-5.72l-10.51,24.88c-9.24-0.09-18.56,1.44-27.53,4.69l-18.04-20.36     l-21.32,13.23l10.35,25.51c-6.61,6.57-11.88,14.16-15.74,22.34l-27.76-1.67l-5.72,24.44l25.92,10.96     c-0.02,8.84,1.45,17.75,4.48,26.35l-21.19,18.79l13.23,21.33l26.36-10.7c6.34,6.43,13.64,11.6,21.51,15.45l-1.71,28.42     l24.43,5.72l11.02-26.09c8.85,0.13,17.78-1.23,26.42-4.16l18.65,21.04l21.32-13.23l-10.45-25.76     c6.74-6.47,12.14-13.96,16.13-22.08l27.46,1.66l5.72-24.44L1544.89,612.18z M1486.62,644.22c-18.6,11.54-43.04,5.82-54.58-12.79     c-11.54-18.61-5.82-43.05,12.78-54.59c18.6-11.54,43.04-5.82,54.58,12.79C1510.94,608.24,1505.22,632.68,1486.62,644.22z" class="colorc9e2f4 svgShape"></path><polygon fill="#a9c9ea" points="1366.34 575.06 1374.6 575.56 1375.87 570.11" class="colora9ceea svgShape"></polygon><polygon fill="#a9c9ea" points="1476.9 506.45 1486.43 501.5 1483.67 508.03" class="colora9ceea svgShape"></polygon><polygon fill="#a9c9ea" points="1420.81 515.65 1430.34 510.7 1421.37 516.27" class="colora9ceea svgShape"></polygon><polygon fill="#a9c9ea" points="1453.65 715.82 1463.18 710.88 1456.41 709.29" class="colora9ceea svgShape"></polygon><polygon fill="#a9c9ea" points="1564.21 647.21 1573.74 642.27 1565.48 641.77" class="colora9ceea svgShape"></polygon><polygon fill="#a9c9ea" points="1509.74 706.62 1519.27 701.67 1518.71 701.05" class="colora9ceea svgShape"></polygon><g fill="#000000" class="color000000 svgShape"><path fill="#a9c9ea" d="M1735.22,583.43c0.14-6.31-0.83-12.7-2.97-18.85l13.78-12.22L1737,537.8l-16.99,6.89     c-4.57-4.73-9.88-8.49-15.63-11.22l1.1-18.31l-16.68-3.91l-7.18,16.98c-6.31-0.06-12.67,0.98-18.79,3.2l-12.32-13.9l-14.55,9.03     l7.06,17.41c-4.51,4.49-8.11,9.66-10.74,15.25l-18.95-1.14l-3.91,16.68l17.69,7.48c-0.01,6.04,0.99,12.12,3.06,17.99     l-14.47,12.83l9.03,14.56l18-7.3c4.33,4.39,9.31,7.92,14.69,10.54l-1.17,19.4l16.68,3.91l7.53-17.81     c6.04,0.09,12.14-0.84,18.03-2.84l12.73,14.37l14.55-9.03l-7.13-17.58c4.6-4.41,8.29-9.53,11.01-15.07l18.75,1.13l3.91-16.68     L1735.22,583.43z M1695.45,605.3c-12.7,7.88-29.38,3.97-37.26-8.73c-7.88-12.7-3.97-29.39,8.72-37.27     c12.7-7.88,29.38-3.97,37.26,8.73C1712.05,580.74,1708.14,597.42,1695.45,605.3z" class="colora9ceea svgShape"></path><path fill="#c9def4" d="M1728.72,586.8c0.14-6.31-0.83-12.7-2.97-18.85l13.78-12.22l-9.03-14.56l-16.99,6.89     c-4.57-4.73-9.88-8.49-15.63-11.22l1.1-18.31l-16.68-3.91l-7.18,16.98c-6.31-0.06-12.67,0.98-18.79,3.2l-12.32-13.9l-14.55,9.03     l7.06,17.41c-4.51,4.49-8.11,9.66-10.74,15.25l-18.95-1.14l-3.91,16.68l17.69,7.48c-0.01,6.04,0.99,12.12,3.06,17.99     l-14.47,12.83l9.03,14.56l18-7.3c4.33,4.39,9.31,7.92,14.69,10.55l-1.17,19.4l16.68,3.91l7.53-17.81     c6.04,0.09,12.14-0.84,18.03-2.84l12.73,14.37l14.55-9.03l-7.13-17.58c4.6-4.41,8.29-9.53,11.01-15.07l18.75,1.13l3.91-16.68     L1728.72,586.8z M1688.94,608.68c-12.7,7.88-29.38,3.97-37.26-8.73c-7.88-12.7-3.97-29.39,8.72-37.27     c12.7-7.88,29.38-3.97,37.26,8.73C1705.55,584.11,1701.64,600.8,1688.94,608.68z" class="colorc9e2f4 svgShape"></path><polygon fill="#a9c9ea" points="1606.84 561.46 1612.47 561.8 1613.34 558.09" class="colora9ceea svgShape"></polygon><polygon fill="#a9c9ea" points="1682.31 514.63 1688.81 511.25 1686.93 515.71" class="colora9ceea svgShape"></polygon><polygon fill="#a9c9ea" points="1644.02 520.91 1650.53 517.53 1644.4 521.34" class="colora9ceea svgShape"></polygon><polygon fill="#a9c9ea" points="1666.44 657.55 1672.94 654.18 1668.32 653.09" class="colora9ceea svgShape"></polygon><polygon fill="#a9c9ea" points="1741.91 610.72 1748.41 607.34 1742.78 607" class="colora9ceea svgShape"></polygon><polygon fill="#a9c9ea" points="1704.72 651.27 1711.23 647.9 1710.85 647.47" class="colora9ceea svgShape"></polygon></g><g fill="#000000" class="color000000 svgShape"><path fill="#92c4f7" d="M921.89 1265.67c.02-.04.97-2.01 2.46-5.58l5.8 2.42c-1.59 3.81-2.6 5.89-2.6 5.89L921.89 1265.67zM928.87 1248.37c1.39-3.9 2.73-7.93 3.97-11.98l6 1.84c-1.27 4.14-2.63 8.26-4.06 12.25L928.87 1248.37zM936.28 1224.26c1.05-4.06 2.02-8.19 2.89-12.28l6.15 1.3c-.88 4.18-1.87 8.4-2.95 12.56L936.28 1224.26zM941.47 1199.58c.68-4.18 1.25-8.38 1.7-12.48l6.25.69c-.46 4.2-1.05 8.51-1.74 12.79L941.47 1199.58zM944.22 1174.57c.24-4.22.35-8.44.34-12.56l6.28-.02c.01 4.24-.1 8.59-.35 12.93L944.22 1174.57zM944.13 1149.48c-.27-4.2-.69-8.4-1.23-12.47l6.23-.83c.56 4.21.99 8.55 1.27 12.89L944.13 1149.48zM940.8 1124.68c-.85-4.11-1.86-8.18-3.01-12.12l6.03-1.75c1.19 4.09 2.24 8.33 3.12 12.59L940.8 1124.68zM933.85 1100.72c-1.47-3.89-3.12-7.74-4.9-11.46l5.67-2.71c1.85 3.87 3.57 7.89 5.1 11.94L933.85 1100.72zM923.11 1078.27c-2.09-3.56-4.36-7.08-6.75-10.46l5.13-3.63c2.49 3.52 4.86 7.19 7.04 10.91L923.11 1078.27zM744.12 972.57l-1.51-.79 2.94-5.55 1.47.77c3.15 1.64 6.45 3.24 9.8 4.78l-2.61 5.71C750.75 975.91 747.36 974.26 744.12 972.57zM908.75 1057.95c-2.64-3.15-5.47-6.25-8.39-9.21l4.47-4.41c3.04 3.08 5.98 6.31 8.73 9.58L908.75 1057.95zM731.37 965.37c-3.72-2.29-7.35-4.7-10.78-7.17l3.67-5.1c3.32 2.38 6.82 4.71 10.41 6.92L731.37 965.37zM766.07 982.53l2.31-5.84c3.81 1.51 7.79 2.96 11.82 4.33l-2.02 5.95C774.05 985.57 769.98 984.08 766.07 982.53zM710.35 950.22c-3.35-2.83-6.56-5.79-9.56-8.81l4.46-4.43c2.87 2.89 5.95 5.73 9.16 8.44L710.35 950.22zM790.44 990.85l1.77-6.03c1.58.46 3.18.92 4.8 1.36 2.53.7 5.01 1.41 7.46 2.14l-1.8 6.02c-2.4-.72-4.85-1.42-7.33-2.1C793.69 991.79 792.06 991.33 790.44 990.85zM891.26 1040.19c-3.09-2.69-6.36-5.34-9.71-7.86l3.78-5.02c3.47 2.61 6.85 5.35 10.05 8.14L891.26 1040.19zM814.7 998.18l2.02-5.95c4.1 1.39 8.17 2.87 12.1 4.39l-2.27 5.86C822.7 1000.99 818.71 999.54 814.7 998.18zM871.32 1025.14c-3.43-2.25-7.02-4.45-10.69-6.55l3.12-5.45c3.77 2.16 7.47 4.43 11.01 6.74L871.32 1025.14zM692.06 931.76c-2.78-3.39-5.39-6.92-7.76-10.49l5.24-3.47c2.25 3.39 4.73 6.75 7.37 9.97L692.06 931.76zM838.19 1007.29l2.53-5.75c3.99 1.76 7.91 3.61 11.67 5.49l-2.82 5.61C845.91 1010.81 842.08 1009.01 838.19 1007.29zM677.69 910c-2-3.89-3.79-7.91-5.32-11.95l5.88-2.22c1.44 3.82 3.13 7.62 5.03 11.3L677.69 910zM668.47 885.55c-1.05-4.23-1.86-8.56-2.4-12.88l6.23-.78c.51 4.07 1.27 8.16 2.26 12.15L668.47 885.55zM665.21 859.6c-.03-4.33.19-8.73.66-13.07l6.24.68c-.44 4.11-.65 8.26-.62 12.35L665.21 859.6zM668.01 833.63c.94-4.22 2.12-8.45 3.52-12.58l5.95 2.01c-1.32 3.91-2.45 7.93-3.34 11.93L668.01 833.63zM676.35 808.93c.9-1.97 1.85-3.92 2.86-5.86 1-1.92 2.05-3.83 3.15-5.72l5.43 3.16c-1.05 1.8-2.05 3.61-3 5.45-.96 1.84-1.87 3.7-2.72 5.58L676.35 808.93zM694.55 790.09l-5.1-3.67c2.51-3.49 5.23-6.93 8.09-10.21l4.74 4.12C699.55 783.47 696.95 786.76 694.55 790.09zM710.87 771.31l-4.35-4.53c3.11-2.99 6.39-5.88 9.77-8.59l3.94 4.89C716.99 765.69 713.84 768.46 710.87 771.31zM730.25 755.69l-3.51-5.21c3.57-2.4 7.3-4.69 11.07-6.8l3.06 5.49C737.25 751.19 733.68 753.38 730.25 755.69zM752.01 743.54l-2.6-5.72c3.91-1.78 7.95-3.43 12.02-4.9l2.14 5.91C759.66 740.24 755.77 741.83 752.01 743.54zM775.47 735.04l-1.67-6.06c4.12-1.14 8.37-2.14 12.62-2.97l1.21 6.16C783.53 732.98 779.44 733.94 775.47 735.04zM799.98 730.23l-.75-6.24c4.24-.51 8.59-.87 12.91-1.08l.31 6.27C808.27 729.39 804.07 729.74 799.98 730.23zM824.96 729.01l.13-6.28c4.26.08 8.61.32 12.92.68l-.54 6.26C833.29 729.32 829.08 729.09 824.96 729.01zM849.91 731.14l.93-6.21c4.2.63 8.47 1.39 12.71 2.28l-1.29 6.15C858.14 732.49 853.99 731.74 849.91 731.14zM874.94 736.42l1.65-6.06c2.04.56 4.08 1.14 6.13 1.76l-1.81 6.01C878.91 737.53 876.92 736.96 874.94 736.42z" class="color92bff7 svgShape"></path><polygon fill="#d5e0eb" points="903.47 766.86 970.79 749.35 876.82 694.99 892.73 717.24 897.96 734.49" class="colord5dbeb svgShape"></polygon><polygon fill="#a0b5cb" points="953.9 744.75 892.73 717.24 872.71 738.21 897.96 734.49" class="colora0a3cb svgShape"></polygon><path fill="#a4ccf4" d="M1508.13,913.77l-35.88,25.94l-36.77-22.68l-2.68-49.75c-42.18,41.49-34.15,75.6-3.21,109.13     c30.93,33.52,31.39,143.97,33.25,230.76c1.86,86.79-14.64,70.87-38.82,122.72c-24.18,51.85,28.53,86.58,28.53,86.58l-0.51-52.4     l34-26.13l37.53,24.66l0.79,49.57c69.13-54.05,11.6-107.34-6.69-124.38c-18.3-17.05-15.78-176.68-14.97-232.75     c0.8-56.07,3.72-56.73,34.31-106.04c30.59-49.31-29.56-85.73-29.56-85.73L1508.13,913.77z" class="colora4caf4 svgShape"></path><path fill="#83b8ed" d="M1507.43,863.27l0.7,50.51l-35.88,25.94l-36.77-22.68c85.02,58.64,44.34,254.7,49.87,333.29     c3.73,53.09-28.76,61.12-50.12,58.81c-3.5,5.61-7.25,12.26-11.22,20.76c-24.18,51.85,28.53,86.58,28.53,86.58l-0.51-52.4     l34-26.13l37.52,24.66l0.79,49.57c69.13-54.05,11.6-107.34-6.69-124.38c-18.3-17.04-15.78-176.68-14.97-232.75     c0.8-56.07,3.72-56.73,34.31-106.04C1567.58,899.69,1507.43,863.27,1507.43,863.27z" class="color83b6ed svgShape"></path><path fill="#5f9edd" d="M1486.54,1328.01l-41.91,33.91l1.31,49.42c3.89,3.35,6.6,5.14,6.6,5.14l-0.51-52.4l34-26.13l37.52,24.66     l0.79,49.57c1.62-1.27,3.11-2.53,4.59-3.8l-0.86-52.94L1486.54,1328.01z" class="color5f9bdd svgShape"></path><polygon fill="#4788c9" points="1523.55 1362.61 1528.07 1355.44 1486.54 1328.01 1486.03 1337.95" class="color478cc9 svgShape"></polygon><path fill="#5f9edd" d="M1514.94,868.6c-4.41-3.46-7.51-5.34-7.51-5.34l0.7,50.51l-35.88,25.94l-36.77-22.68l-2.68-49.75     c-1.27,1.25-2.48,2.49-3.66,3.72l0.64,50.7l43.84,28.15l40.31-32.17L1514.94,868.6z" class="color5f9bdd svgShape"></path><polygon fill="#4788c9" points="1473.62 949.85 1472.25 939.72 1435.48 917.03 1429.78 921.7" class="color478cc9 svgShape"></polygon><g fill="#000000" class="color000000 svgShape"><path fill="#5c7fa2" d="M1356.51,1725.67V1222.1c0-12.86,10.42-23.28,23.28-23.28H1352c-12.86,0-23.28,10.42-23.28,23.28v503.56     c0,12.86,10.42,23.28,23.28,23.28h27.8C1366.93,1748.95,1356.51,1738.53,1356.51,1725.67z" class="color5c6ba2 svgShape"></path><path fill="#97bce2" d="M1692.76,1748.95h-312.97c-12.86,0-23.28-10.42-23.28-23.28V1222.1c0-12.86,10.42-23.28,23.28-23.28h312.97     c12.86,0,23.28,10.42,23.28,23.28v503.56C1716.04,1738.53,1705.62,1748.95,1692.76,1748.95z" class="color97b3e2 svgShape"></path><path fill="#cadbec" d="M1715.27,1216.25c-2.6-10.02-11.68-17.43-22.51-17.43h-97.38l-234.06,540.98     c4.26,5.55,10.94,9.15,18.47,9.15h105L1715.27,1216.25z" class="colorcaddec svgShape"></path><polygon fill="#cadbec" points="1356.51 1685.32 1567 1198.82 1519.69 1198.82 1356.51 1497.73" class="colorcaddec svgShape"></polygon><path fill="#2c3b74" d="M1668.76,1507.82c0.24,0,0.48,0.03,0.72,0.04v-69.94c0.34-3.85,0.54-7.74,0.54-11.68     c0-3.94-0.21-7.83-0.54-11.68v-3.76c0-1.92-0.39-3.75-1.1-5.41c-10-63.36-64.84-111.82-131.02-111.82     c-66.17,0-121.02,48.46-131.02,111.82c-0.71,1.66-1.1,3.49-1.1,5.41v3.76c-0.34,3.85-0.54,7.74-0.54,11.68     c0,3.94,0.21,7.83,0.54,11.68v69.9c13.96,0,25.27,11.31,25.27,25.27c0,13.96-11.31,25.27-25.27,25.27v77.61     c13.59,0,24.64,10.74,25.21,24.19h213.09c0.57-13.45,11.62-24.19,25.21-24.19c0.24,0,0.48,0.03,0.72,0.04v-77.68     c-0.24,0.01-0.48,0.04-0.72,0.04c-13.96,0-25.27-11.31-25.27-25.27C1643.49,1519.13,1654.8,1507.82,1668.76,1507.82z" class="color2c3874 svgShape"></path><path fill="#97bce2" d="M1548.12,1615.78h-31.94v-32.13c0-5.59-4.59-10.13-10.24-10.13h-73.13c-5.66,0-10.24,4.54-10.24,10.13     v39.34v6.1v2.92c0,3.98,3.26,7.21,7.29,7.21h2.95h73.13h42.19c4.02,0,7.29-3.23,7.29-7.21v-9.02     C1555.41,1619,1552.15,1615.78,1548.12,1615.78z" class="color97b3e2 svgShape"></path><circle cx="1537.36" cy="1426.23" r="118.04" fill="#e0e8f0" transform="rotate(-7.022 1537.071 1426.119)" class="colorf0e0e3 svgShape"></circle><path fill="#ffffff" d="M1527.1 1543.8l90.57-204.05c-5.71-5.3-11.93-10.05-18.6-14.15l-94.94 213.89C1511.51 1541.66 1519.19 1543.12 1527.1 1543.8zM1487.89 1533.4l95.78-215.77c-2.61-1.11-5.28-2.11-7.98-3.04l-95.41 214.96C1482.76 1530.93 1485.3 1532.21 1487.89 1533.4z" class="colorffffff svgShape"></path><circle cx="1537.36" cy="1426.23" r="40.07" fill="none" stroke="#4c6be0" stroke-miterlimit="10" stroke-width=".693" transform="rotate(-76.714 1537.515 1426.295)" class="colorStrokee04c5a svgStroke"></circle><circle cx="1537.36" cy="1426.23" r="40.07" fill="#3d64f9" transform="rotate(-76.714 1537.515 1426.295)" class="colorf9c33d svgShape"></circle><path fill="#31417b" d="M1559.02,1426.23c0,11.96-9.7,21.66-21.66,21.66c-11.96,0-21.66-9.7-21.66-21.66     c0-11.96,9.7-21.66,21.66-21.66C1549.32,1404.58,1559.02,1414.27,1559.02,1426.23z" class="color31407b svgShape"></path><path fill="#5eaefe" d="M1480.28,1618.49c-7.77,10.47-22.56,12.65-33.03,4.88c-10.47-7.77-12.65-22.56-4.88-33.03      c7.77-10.47,89.16-101.91,99.63-94.14C1552.47,1503.98,1488.05,1608.02,1480.28,1618.49z" class="colorfee05e svgShape"></path><path fill="#3d5ccf" d="M1450.52,1623.54c-10.47-7.77-12.65-22.56-4.88-33.03c7.21-9.71,77.83-89.17,96.31-94.33      c-10.63-7.51-91.82,83.71-99.58,94.16c-7.77,10.47-5.59,25.25,4.88,33.03c4.34,3.22,9.42,4.71,14.43,4.63      C1457.77,1627.51,1453.92,1626.06,1450.52,1623.54z" class="colorcf963d svgShape"></path><path fill="#89b3dd" d="M1468.99,1612.37c-3.59,4.83-10.41,5.84-15.24,2.25c-4.83-3.59-5.84-10.41-2.25-15.24      c3.59-4.83,10.41-5.84,15.24-2.25C1471.57,1600.72,1472.58,1607.54,1468.99,1612.37z" class="color8989dd svgShape"></path><path fill="#567a9e" d="M1462.55 1607.59c-.95 1.27-2.75 1.54-4.02.59-1.27-.95-1.54-2.75-.59-4.02.95-1.27 2.75-1.54 4.02-.59C1463.23 1604.51 1463.5 1606.31 1462.55 1607.59zM1471.07 1591.3L1471.07 1591.3c-.81-.6-.97-1.74-.38-2.54l22.01-29.64c.6-.8 1.73-.97 2.54-.38l0 0c.81.6.97 1.74.38 2.54l-22.01 29.64C1473.01 1591.73 1471.87 1591.9 1471.07 1591.3zM1502.51 1553.34c-.86 1.16-2.49 1.4-3.65.54-1.16-.86-1.4-2.49-.54-3.65.86-1.16 2.49-1.4 3.65-.54C1503.12 1550.55 1503.37 1552.18 1502.51 1553.34z" class="color56629e svgShape"></path><g fill="#000000" class="color000000 svgShape"><path fill="#567a9e" d="M1403.44,1235.28c0,5.78-4.69,10.47-10.47,10.47s-10.47-4.69-10.47-10.47c0-5.78,4.69-10.47,10.47-10.47       S1403.44,1229.5,1403.44,1235.28z" class="color56629e svgShape"></path><path fill="#97bce2" d="M1398.56,1235.28c0,3.09-2.5,5.59-5.6,5.59c-3.09,0-5.6-2.5-5.6-5.59c0-3.09,2.51-5.6,5.6-5.6       C1396.06,1229.68,1398.56,1232.19,1398.56,1235.28z" class="color97b3e2 svgShape"></path><g fill="#000000" class="color000000 svgShape"><path fill="#567a9e" d="M1689.33,1235.28c0,5.78-4.69,10.47-10.47,10.47c-5.78,0-10.47-4.69-10.47-10.47       c0-5.78,4.69-10.47,10.47-10.47C1684.65,1224.81,1689.33,1229.5,1689.33,1235.28z" class="color56629e svgShape"></path><path fill="#97bce2" d="M1684.46,1235.28c0,3.09-2.5,5.59-5.59,5.59c-3.09,0-5.6-2.5-5.6-5.59c0-3.09,2.51-5.6,5.6-5.6       C1681.95,1229.68,1684.46,1232.19,1684.46,1235.28z" class="color97b3e2 svgShape"></path></g></g><g fill="#000000" class="color000000 svgShape"><path fill="#567a9e" d="M1403.44,1715.38c0,5.78-4.69,10.47-10.47,10.47s-10.47-4.69-10.47-10.47s4.69-10.47,10.47-10.47       S1403.44,1709.6,1403.44,1715.38z" class="color56629e svgShape"></path><path fill="#97bce2" d="M1398.56,1715.38c0,3.09-2.5,5.59-5.6,5.59c-3.09,0-5.6-2.5-5.6-5.59c0-3.09,2.51-5.59,5.6-5.59       C1396.06,1709.78,1398.56,1712.29,1398.56,1715.38z" class="color97b3e2 svgShape"></path><g fill="#000000" class="color000000 svgShape"><path fill="#567a9e" d="M1689.33,1715.38c0,5.78-4.69,10.47-10.47,10.47c-5.78,0-10.47-4.69-10.47-10.47s4.69-10.47,10.47-10.47       C1684.65,1704.91,1689.33,1709.6,1689.33,1715.38z" class="color56629e svgShape"></path><path fill="#97bce2" d="M1684.46,1715.38c0,3.09-2.5,5.59-5.59,5.59c-3.09,0-5.6-2.5-5.6-5.59c0-3.09,2.51-5.59,5.6-5.59       C1681.95,1709.78,1684.46,1712.29,1684.46,1715.38z" class="color97b3e2 svgShape"></path></g></g></g><g fill="#000000" class="color000000 svgShape"><path fill="#92c4f7" d="M1378.64,1061.48H411.15c-29.27,0-53,23.73-53,53v566.67c0,1.75,1.42,3.17,3.17,3.17h1059.92      c1.75,0,3.17-1.42,3.17-3.17v-573.91C1424.4,1081.97,1403.91,1061.48,1378.64,1061.48z" class="color92bff7 svgShape"></path><rect width="937.75" height="554.68" x="422.39" y="1110.33" fill="#293e8c" class="color29478c svgShape"></rect><path fill="#ffffff" d="M1360.14,1110.33h-22.34c1.42,98.02-12.23,227.2-78.8,323.49c-106.19,153.59-683.5,200.48-836.61,210.3      v20.9h937.75V1110.33z" opacity=".06" class="colorffffff svgShape"></path><path fill="#425188" d="M364.47,1114.56c0-25.94,21.78-46.97,48.64-46.97h974.37c11.82,0,22.65,4.08,31.08,10.85      c-8.92-10.36-22.36-16.96-37.4-16.96H406.78c-26.86,0-48.64,21.03-48.64,46.97v575.86h6.32V1114.56z" class="color426388 svgShape"></path><path fill="#8cb2d9" d="M290.6,1684.77v15.51c0,26.88,21.79,48.67,48.67,48.67h1103.55c27.14,0,49.14-22,49.14-49.14v-15.4      c0-0.05-0.04-0.1-0.1-0.1H291.05C290.8,1684.32,290.6,1684.52,290.6,1684.77z" class="color8caed9 svgShape"></path><path fill="#30448f" d="M1054.08,1690.12H728.46l0,0c0,6.57,10.16,11.89,22.69,11.89h280.24      C1043.92,1702.01,1054.08,1696.68,1054.08,1690.12L1054.08,1690.12z" class="color305c8f svgShape"></path><path fill="#5e96cf" d="M292.21,1716.63c5.05,16.87,21.8,29.73,42.5,31.94c0.68,0.06,1.36,0.14,2.05,0.19      c0.55,0.04,1.09,0.05,1.64,0.07c1.22,0.06,2.44,0.11,3.67,0.11h1098.38c1.23,0,2.45-0.06,3.67-0.11      c0.54-0.02,1.1-0.03,1.64-0.07c0.69-0.05,1.36-0.13,2.05-0.19c20.7-2.21,37.45-15.07,42.51-31.94H292.21z" class="color5e8ccf svgShape"></path><g fill="#000000" class="color000000 svgShape"><path fill="#9ac6f3" d="M997.28,1325.41c0,16.34-13.25,29.59-29.59,29.59c-16.34,0-29.59-13.25-29.59-29.59      c0-16.34,13.25-29.59,29.59-29.59C984.03,1295.82,997.28,1309.07,997.28,1325.41z" class="color9b9af3 svgShape"></path><path fill="#c4def9" d="M836.16,1321.03c0,16.34-13.25,29.59-29.59,29.59c-16.34,0-29.59-13.25-29.59-29.59      s13.25-29.59,29.59-29.59C822.92,1291.43,836.16,1304.68,836.16,1321.03z" class="colorc6c4f9 svgShape"></path><path fill="#e6f1fc" d="M913.8,1519.41c0,16.34-13.25,29.59-29.59,29.59s-29.59-13.25-29.59-29.59      c0-16.34,13.25-29.59,29.59-29.59S913.8,1503.06,913.8,1519.41z" class="colore6e9fc svgShape"></path><path fill="#ffffff" d="M994.17,1489.81c0,16.34-13.25,29.59-29.59,29.59c-16.34,0-29.59-13.25-29.59-29.59      c0-16.34,13.25-29.59,29.59-29.59C980.93,1460.22,994.17,1473.47,994.17,1489.81z" class="colorffffff svgShape"></path><circle cx="800.54" cy="1486.16" r="29.59" fill="#d3e7fc" class="colord3d6fc svgShape"></circle><circle cx="889.87" cy="1291.43" r="29.59" fill="#b6d6f7" transform="rotate(-82.969 889.87 1291.41)" class="colorbcb6f7 svgShape"></circle><path fill="#c4def9" d="M798.54,1403.59c0,16.34-13.25,29.59-29.59,29.59c-16.34,0-29.59-13.25-29.59-29.59      c0-16.34,13.25-29.59,29.59-29.59C785.29,1374,798.54,1387.25,798.54,1403.59z" class="colorc6c4f9 svgShape"></path></g><g fill="#000000" class="color000000 svgShape"><path fill="#e8f0f9" d="M1089.02,1597.52h-395.5c-7.28,0-13.18,5.9-13.18,13.18l0,0c0,7.28,5.9,13.18,13.18,13.18h395.5      c7.28,0,13.18-5.9,13.18-13.18C1102.2,1603.42,1096.3,1597.52,1089.02,1597.52z" class="colore8eaf9 svgShape"></path><path fill="#3c64fc" d="M924.72,1597.52h-231.2c-7.28,0-13.18,5.9-13.18,13.18s5.9,13.18,13.18,13.18h231.2V1597.52z" class="colorfc6e3c svgShape"></path></g><g fill="#000000" class="color000000 svgShape"><path fill="#e6f1fc" d="M754.57 1166.62c2.96-.52 7.4-.9 11.96-.9 6.24 0 10.48 1.03 13.38 3.47 2.38 1.99 3.73 5.02 3.73 8.68 0 5.59-3.8 9.39-7.85 10.87v.19c3.09 1.16 4.95 4.18 6.04 8.36 1.35 5.4 2.51 10.42 3.41 12.09h-8.17c-.64-1.29-1.67-4.82-2.89-10.22-1.22-5.66-3.28-7.46-7.78-7.59h-3.99v17.81h-7.85V1166.62zM762.41 1185.79h4.69c5.34 0 8.68-2.83 8.68-7.14 0-4.76-3.34-6.95-8.49-6.95-2.51 0-4.12.19-4.89.39V1185.79zM815.38 1190.16h-16.33v12.73h18.27v6.49h-26.17v-43.34h25.21v6.49h-17.3v11.19h16.33V1190.16zM855.3 1208.1c-1.86.97-5.98 1.93-11.19 1.93-13.76 0-22.12-8.62-22.12-21.8 0-14.28 9.9-22.89 23.15-22.89 5.21 0 8.94 1.09 10.55 1.93l-1.74 6.3c-2.06-.9-4.89-1.67-8.49-1.67-8.81 0-15.18 5.53-15.18 15.95 0 9.52 5.6 15.63 15.11 15.63 3.21 0 6.56-.64 8.62-1.61L855.3 1208.1zM898.82 1187.27c0 14.53-8.81 22.83-20.77 22.83-12.22 0-19.94-9.33-19.94-22.06 0-13.31 8.36-22.7 20.58-22.7C891.36 1165.34 898.82 1174.92 898.82 1187.27zM866.47 1187.91c0 8.81 4.44 15.82 12.03 15.82 7.65 0 11.96-7.07 11.96-16.14 0-8.17-4.05-15.89-11.96-15.89C870.65 1171.7 866.47 1178.97 866.47 1187.91zM915.32 1209.39l-14.02-43.34h8.62l5.92 19.68c1.67 5.47 3.09 10.55 4.25 15.82h.13c1.16-5.14 2.7-10.42 4.44-15.69l6.3-19.81h8.42l-14.98 43.34H915.32zM968.29 1190.16h-16.34v12.73h18.27v6.49h-26.17v-43.34h25.21v6.49h-17.3v11.19h16.34V1190.16zM977.15 1166.62c2.96-.52 7.4-.9 11.96-.9 6.24 0 10.48 1.03 13.38 3.47 2.38 1.99 3.73 5.02 3.73 8.68 0 5.59-3.8 9.39-7.85 10.87v.19c3.09 1.16 4.95 4.18 6.04 8.36 1.35 5.4 2.51 10.42 3.41 12.09h-8.17c-.64-1.29-1.67-4.82-2.89-10.22-1.22-5.66-3.28-7.46-7.78-7.59h-3.99v17.81h-7.85V1166.62zM984.99 1185.79h4.69c5.34 0 8.68-2.83 8.68-7.14 0-4.76-3.34-6.95-8.49-6.95-2.51 0-4.12.19-4.89.39V1185.79zM1022.59 1209.39v-18.07l-13.7-25.27h9l5.21 11.13c1.48 3.21 2.57 5.66 3.73 8.62h.13c1.09-2.77 2.31-5.47 3.79-8.62l5.21-11.13h8.94l-14.41 25.08v18.26H1022.59z" class="colore6e9fc svgShape"></path></g><g fill="#000000" class="color000000 svgShape"><path fill="#e6f1fc" d="M864.43 1386.01c-.98-.06-2.23 0-3.59.22-7.51 1.25-11.48 6.75-12.3 12.57h.17c1.69-2.23 4.63-4.08 8.54-4.08 6.26 0 10.67 4.52 10.67 11.43 0 6.48-4.41 12.46-11.76 12.46-7.56 0-12.52-5.88-12.52-15.08 0-6.97 2.5-12.47 5.99-15.95 2.94-2.88 6.86-4.68 11.32-5.23 1.41-.22 2.61-.27 3.48-.27V1386.01zM863.07 1406.42c0-5.06-2.88-8.11-7.29-8.11-2.88 0-5.55 1.79-6.86 4.35-.32.54-.54 1.25-.54 2.12.11 5.82 2.77 10.12 7.78 10.12C860.3 1414.91 863.07 1411.48 863.07 1406.42zM895.66 1399.95c0 12.03-4.46 18.67-12.3 18.67-6.91 0-11.59-6.48-11.7-18.18 0-11.87 5.12-18.4 12.3-18.4C891.42 1382.04 895.66 1388.68 895.66 1399.95zM876.45 1400.49c0 9.2 2.83 14.42 7.19 14.42 4.9 0 7.24-5.72 7.24-14.75 0-8.71-2.23-14.42-7.18-14.42C879.5 1385.74 876.45 1390.86 876.45 1400.49zM916.01 1392.6c0 7.46-3.92 11.16-8.49 11.16-4.41 0-8.22-3.54-8.27-10.67 0-7.08 3.86-11.05 8.55-11.05C912.75 1382.04 916.01 1385.85 916.01 1392.6zM903.06 1392.92c-.11 4.52 1.58 7.95 4.57 7.95 3.16 0 4.57-3.37 4.57-8.06 0-4.3-1.25-7.89-4.57-7.89C904.63 1384.93 903.06 1388.46 903.06 1392.92zM907.19 1418.62l20.79-36.57h3.05l-20.79 36.57H907.19zM939.03 1407.24c0 7.46-3.92 11.16-8.44 11.16-4.41 0-8.22-3.54-8.27-10.61 0-7.13 3.86-11.1 8.54-11.1C935.82 1396.68 939.03 1400.49 939.03 1407.24zM926.08 1407.57c-.06 4.52 1.69 7.95 4.63 7.95 3.16 0 4.57-3.37 4.57-8.06 0-4.3-1.25-7.89-4.57-7.89C927.71 1399.57 926.08 1403.1 926.08 1407.57z" class="colore6e9fc svgShape"></path></g></g><g fill="#000000" class="color000000 svgShape"><polygon fill="#4469f3" points="1433.64 1741.18 1207.46 1742.09 1206.74 1562.82 1206.68 1547.58 1251.65 1547.4 1272.51 1562.55 1432.92 1561.91" class="colorf3b344 svgShape"></polygon><rect width="210.91" height="10.66" x="1214.72" y="1579.2" fill="#f1f1f2" transform="matrix(1 -.00402 .00402 1 -6.362 5.322)" class="colorf1f2f2 svgShape"></rect><path fill="#0034f9" d="M1438.22,1748.05l-239.98,0.97c-3.79,0.02-6.87-3.18-6.89-7.14l-0.58-144.32c-0.02-3.96,3.04-7.18,6.83-7.2     l239.97-0.96c3.79-0.02,6.87,3.18,6.89,7.14l0.58,144.32C1445.06,1744.81,1442.01,1748.03,1438.22,1748.05z" class="colorf9a300 svgShape"></path><path fill="#0036ff" d="M1430.45,1732.31l-232.58,0.94c-3.62,0.01-6.56-2.91-6.57-6.52l-0.52-129.79     c-0.02-3.62,2.91-6.56,6.52-6.58l232.58-0.94c3.62-0.01,6.56,2.91,6.58,6.52l0.52,129.79     C1436.99,1729.35,1434.07,1732.3,1430.45,1732.31z" class="colorffc300 svgShape"></path><path fill="#81bffd" d="M1286.74,1634.87c14.85-13.1,20.97-30.5,30.27-44.99l-119.71,0.48c-3.62,0.01-6.54,2.96-6.52,6.58     l0.38,93.61C1210.68,1681.41,1252.79,1664.81,1286.74,1634.87z" class="colorfddb81 svgShape"></path></g><g fill="#000000" class="color000000 svgShape"><path fill="#7fb9f4" d="M1290.09,916.33l-3.27-11.5l-26.03,0.93l-1.49,14.82C1259.3,920.57,1272.89,938.55,1290.09,916.33z" class="colorf4a37f svgShape"></path><path fill="#a2cffc" d="M1246.01,872.1c0,0,0.26,12.8,0.9,19.45c0.64,6.64,2.19,21.54,15.69,22.46       c13.5,0.93,20.46-6.34,25.07-9.64c0,0,14.61-15.45,11.97-19.66c-2.64-4.22-6.15-17.29-19.43-16       C1266.92,869.99,1246.01,872.1,1246.01,872.1z" class="colorfcbea2 svgShape"></path><path fill="#021b79" d="M1305.14,860.7l-4.86-4c0,0-4.47-10.06-11.88-14.33c-3.76-2.17-8.4-2.17-12.25-0.17l-26.53,13.71       c-3.34,1.73-6.85,3.13-10.5,4.04c-1.72,0.43-3.6,0.79-5.5,0.98c0,0,3.29,10.86,21.44,13.57c18.15,2.71,31.22-0.79,31.22-0.79       s-2.93,15.93-0.07,22.36c0,0,3.57-9.29,8-9.72c4.43-0.43,0.64,6.64-1.36,9.07c-2,2.43-8,9.72-5.79,9.5c0,0,16.43-15,20-24.29       C1310.64,871.34,1310,864.7,1305.14,860.7z" class="color221e52 svgShape"></path><polygon fill="#bfddfb" points="1235.6 1172.02 1236.89 1179.15 1245.69 1179.54 1245.21 1171.39" class="colorfbcebf svgShape"></polygon><path fill="#191d2d" d="M1248.41,1189.44c0.01,0.44-0.32,0.78-0.73,0.79l-27.43,0.35c0,0-0.36-5.52,2.86-5.81       c4.03-0.36,8.59-3.1,11.57-5.86c2.24-2.08,11.3-1.83,12.43-0.16C1248.04,1180.14,1248.33,1187.09,1248.41,1189.44z" class="color19232d svgShape"></path><polygon fill="#bfddfb" points="1168.85 1174.6 1167.61 1181.9 1176.38 1182.9 1178.48 1174.62" class="colorfbcebf svgShape"></polygon><path fill="#191d2d" d="M1178.47,1192.95c-0.01,0.44-0.37,0.76-0.78,0.73l-27.4-1.51c0,0-0.01-5.54,3.21-5.6       c4.04-0.08,8.77-2.51,11.92-5.06c2.37-1.92,11.39-1.06,12.42,0.68C1178.69,1183.65,1178.55,1190.61,1178.47,1192.95z" class="color19232d svgShape"></path><path fill="#1a2038" d="M1238.08,1023.27c26.88-6.41,41.02-1.99,43.11,35.27l-102.47,5.5c0,0-0.16-18.97,7.72-25.69       C1190.49,1034.91,1219.87,1027.3,1238.08,1023.27z" class="color1a3438 svgShape"></path><path fill="#191e30" d="M1248.85,1040.93c0,0-10.26,4.62-26.03,8.02c-15.77,3.4-22.89,3.98-24.39,6.94       c-1.51,2.96,1.95,30.6,0.1,43.2c-1.6,10.87-21.02,65.58-25.36,81.3l5.16-0.26c0,0,28.17-65.65,29.78-85.65       c0.64-13.09,0.7-24.33,0.7-24.33l33.69-1.7C1248.9,1066.43,1248.85,1040.93,1248.85,1040.93z" class="color192d30 svgShape"></path><path fill="#22283f" d="M1319.84,1027.85c1.16,8.92-0.56,21.96-5.25,29.25l-96.58,4.94c0,0-4.85-17.88,2.32-25.41       c7.74-8.14,60.88-14.91,92.6-17.74C1317.81,1018.45,1319.2,1022.97,1319.84,1027.85z" class="color223a3f svgShape"></path><path fill="#191e30" d="M1253.84,1088.58c-0.83-10.79-1.32-13.45-3.82-20.51l58.59-2.96c8.04-4.43,12.66-23.9,11.51-31.84       l-23.04-4.77c0,0-1.95,14.39-6.29,17.22c-4.34,2.82-53.91,5.38-55.79,7.57c-1.88,2.19,7.6,22.28,9.84,37.01       c2.24,14.73-2.84,86.61-2.84,86.61l0.01,0l5.48-0.28C1247.48,1176.64,1255.36,1108.42,1253.84,1088.58z" class="color192d30 svgShape"></path><path fill="#1a2038" d="M1178.95,1062.33c0,0-7.57,72.41-13.29,118.45l12.83-0.65c0,0,28.17-65.65,29.78-85.65       c1.61-20-2.16-41.7-2.16-41.7L1178.95,1062.33z" class="color1a3438 svgShape"></path><path fill="#22283f" d="M1218.01,1062.05c0,0,11.25,69.76,16.64,115.24l12.83-0.65c0,0,7.87-68.22,6.36-88.05       c-1.52-19.84-10.14-37.7-10.14-37.7L1218.01,1062.05z" class="color223a3f svgShape"></path><path fill="#191e30" d="M1253.84 1088.58c0-.01 0-.02 0-.03-1.36-17.72-8.37-33.81-9.85-37.04-.85.1-1.67.2-2.43.3l-6.77 2.94c.44 5.32 8.07 22.51 10.05 35.54 2.24 14.73-2.84 86.61-2.84 86.61l.01 0 5.48-.28c0 0 .49-4.26 1.21-10.97C1250.83 1145.55 1254.98 1103.46 1253.84 1088.58zM1206.12 1052.78c-2.9.35-5.57.92-7.12 2.59-1.51 2.96 1.55 31.12-.31 43.72-1.6 10.87-21.02 65.58-25.35 81.3l5.16-.26c5.83-16.53 28.38-68.31 29.78-85.65C1209.29 1081.82 1209.24 1062.63 1206.12 1052.78z" class="color192d30 svgShape"></path><g fill="#000000" class="color000000 svgShape"><path fill="#4492e0" d="M1326.17,940.07c-2.17-23.9-35.78-24.46-35.78-24.46c-22.92,17.49-30.92,2.61-30.92,2.61l-1.56,0.05      c-4.33,0.14-8.63,0.85-12.73,2.25c-4.5,1.53-9.79,3.97-12.63,7.59c-4.8,6.1-38.03,98.41-38.03,98.41l18.12-0.66      c19.55-14.97,29.87-51.96,29.87-51.96c4.29,7.6,7.39,37.12,8.34,47.18c0,0.02,0,0.04,0.01,0.06c0.18,1.86,9.03,2.96,10.91,2.89      l56.38-2.01l0.28-10.06C1328.32,1008.37,1328.33,963.97,1326.17,940.07z" class="color4484e0 svgShape"></path></g><path fill="#1a70c6" d="M1266.94,1023.88c0.66-0.2,1.31-0.4,2.07-0.63c13.31-4.1,41.48-13.15,45.93-17.56     c4.46-4.41,9.28-44.97,11.34-64.22c2.04,24.18,1.86,66.96-7.87,70.49c-7.79,3.71-34.17,9.13-47.88,11.79L1266.94,1023.88z" class="color1a69c6 svgShape"></path><path fill="#1a70c6" d="M1297.66 944.83c0 0 .69 39.1 1.89 51.94 0 0-31.44 11.59-37.99 14.99 0 0 29.04-15.88 30.64-21.04C1293.79 985.56 1294.75 951.74 1297.66 944.83zM1242.49 973.9c0 0-10.32 36.99-29.87 51.96l-1.52.06c20.83-25.96 27.23-61.43 27.23-61.43C1241.44 969.48 1242.49 973.9 1242.49 973.9z" class="color1a69c6 svgShape"></path><g fill="#000000" class="color000000 svgShape"><path fill="#8cc5fe" d="M1265.86,1012.45c-11.05-1.28-21.85-0.76-28.62,3.96c-0.92,0.64-5.9,3.83-5,5.87      c0.69,1.56,4.86-1.71,6.74-2.77c2.55-1.43,5.91-2.66,6.14-2.35c0.33,0.45-11.47,5.56-9.91,7.77c1.91,2.71,10.84-5.5,11.46-4.62      c0.62,0.89-9.1,5.17-7.6,6.84c1.38,1.53,9.28-4.11,9.93-3.7c0.65,0.41-6.18,3.11-4.49,4.42c0.9,0.7,2.03,0.83,7.06-1.1      c1.54-0.59,10.66-0.55,14.33-4.39C1269.66,1017.64,1265.86,1012.45,1265.86,1012.45z" class="colorfeb48c svgShape"></path></g><g fill="#000000" class="color000000 svgShape"><polygon fill="#839bb4" points="1171.72 1028.64 1251.07 1027.68 1233.65 966.35 1154.29 967.31" class="color8394b4 svgShape"></polygon><rect width="110.76" height="4.77" x="1172.18" y="1028.87" fill="#a5bed7" transform="rotate(-.636 1233.106 1035.862)" class="colora5c0d7 svgShape"></rect><polygon fill="#a5bed7" points="1171.67 1028.57 1249.19 1027.7 1232.11 967.57 1154.58 968.43" class="colora5c0d7 svgShape"></polygon><path fill="#839bb4" d="M1194.46,997.49c1.01,2.92,4.46,5.27,7.7,5.23s5.05-2.44,4.04-5.36c-1.01-2.92-4.46-5.26-7.7-5.23      C1195.26,992.17,1193.45,994.57,1194.46,997.49z" class="color8394b4 svgShape"></path><polygon fill="#a5bed7" points="1249.19 1027.7 1232.11 967.57 1154.58 968.43" opacity=".2" class="colora5c0d7 svgShape"></polygon><rect width="31.61" height="4.77" x="1251.34" y="1028.43" fill="#839bb4" transform="rotate(-.642 1262.062 1026.738)" class="color8394b4 svgShape"></rect><rect width="14.55" height="2.1" x="1226.8" y="1027.88" fill="#839bb4" transform="rotate(-.636 1238.27 1032.395)" class="color8394b4 svgShape"></rect><rect width="12.45" height="2.1" x="1177.01" y="1028.45" fill="#839bb4" transform="rotate(-.642 1178.01 1025)" class="color8394b4 svgShape"></rect><polygon fill="#bad6f2" points="1231.6 968.34 1154.8 969.2 1154.58 968.43 1232.11 967.57 1249.19 1027.7 1248.47 1027.71" class="colorbad6f2 svgShape"></polygon></g></g><g fill="#000000" class="color000000 svgShape"><path fill="#95bee8" d="M352.82 1612.2c0 0-5.16 97.95-8.6 118.94 0 0 2.06 5.55 14.22 9.11 12.16 3.55 19.27 7.11 14.45 12.88 0 0-45.87 1.11-49.54-1.55-3.67-2.67-2.29-6.89 2.98-16.88 0 0-7.57-112.61-3.21-122.5H352.82zM315.09 1612.2c0 0-.69 28.76-9.63 48.53-8.94 19.77-25.92 59.53-25.92 65.97 0 6.44 0 15.99 0 15.99s-10.09 6.66-15.37-4.66c0 0 2.29-17.1 4.36-30.43 2.06-13.33 10.09-54.19 13.07-66.86 2.98-12.66 3.67-28.54 3.67-28.54H315.09z" class="colore8b795 svgShape"></path><path fill="#2d303d" d="M359.47 1740.55c11.51 3.45 18.1 6.97 13.42 12.57 0 0-45.87 1.11-49.54-1.55-3.41-2.48-2.46-6.3 1.92-14.84C325.28 1736.74 348.34 1747.08 359.47 1740.55zM279.54 1742.69c0 0 6.88 5.94 3.27 12.27s-20.3 1.79-22.36-1.6c-2.06-3.39 3.73-15.33 3.73-15.33L279.54 1742.69z" class="color2d313d svgShape"></path><path fill="#15161c" d="M309.61,1313.56c0,0-8.53-4.41-15.02,12.79c-6.5,17.21-6.83,44.03-4.49,53.16c0,0-18.86,20.31-3.45,33.58     c0,0,21.24,22.34,22.64,28.09c0.55-1.35,9.66-17.76,24.43-18.67c14.77-0.91,51.16-39.14,31.75-45.08c0,0,1.45,6.18-5.18,4.7     c-6.62-1.49-2.45-24.29-2.52-32.35c-0.07-8.06-4.93-27.94-19.05-36.37C324.61,1304.98,308.35,1305.57,309.61,1313.56z" class="color1c1715 svgShape"></path><path fill="#7ab2eb" d="M333.72,1366.63c0,0,3.05,11.36,5.06,12.88c0,0,2.01,5.24-3.91,20.05c-5.92,14.81-20.92,6.54-23.31,2.5     c-2.4-4.04-7.69-11.78-2.86-19.47c0,0,6.62-4.8,3.16-15.24C311.85,1367.34,332.67,1363.14,333.72,1366.63z" class="coloreba97a svgShape"></path><path fill="#96c9fd" d="M309.26,1367.61c0,0,10.04,7.79,18.24,4.78c8.2-3,15.48-10.94,17.73-18.89c2.25-7.94-1.4-23.88-6.92-29.56     c-5.52-5.67-26.03-9.4-31.79-2.01C300.76,1329.33,298.52,1359.12,309.26,1367.61z" class="colorfdc596 svgShape"></path><path fill="#022abf" d="M290.76,1508.18c0,0-21.83,11.76-23.03,17.68l24.06-7.7L290.76,1508.18z" class="colorbf027c svgShape"></path><path fill="#475791" d="M354.97,1514.59c0,0,8.77,63.98,0.26,104.76c0,0-61.69,4.88-73.28-1.61c0,0-3.87-70.21,0.91-102.79     L354.97,1514.59z" class="color476291 svgShape"></path><path fill="#3e4d87" d="M281.94,1617.74c0,0,0.11-6.06-0.56-12.15c5.2,2.7,16.73,9.81,34.31,6.98     c23.88-3.85,29.37-53.47,26.56-76.8c-1.05-8.72-3.99-16.58-7.27-23.01l19.98,1.83c0,0,8.77,63.98,0.26,104.76     C355.22,1619.35,293.53,1624.23,281.94,1617.74z" class="color3e5c87 svgShape"></path><path fill="#f6f6f6" d="M312.06,1378.78c0,0,17.95,7.86,26.64-1.1c0,0,37.63,37.69,16.27,136.57c0,0-71.76,3.7-73.18,3.95     c-1.42,0.25,5.15-21.44,13.54-27.46c8.33-5.98,56.49-33.72,16.54-110.37C311.6,1379.84,311.64,1379.54,312.06,1378.78z" class="colorf6f6f6 svgShape"></path><path fill="#dce3ea" d="M305.32,1516.79c56.79-12.89,39.24-70.97,41.18-82.61c1.61-9.68-14.42-41.7-19.87-52.22     c4.37,0.04,8.85-0.97,12.07-4.29c0,0,37.63,37.69,16.27,136.57c0,0-28.51,1.47-49.95,2.62     C305.12,1516.84,305.22,1516.81,305.32,1516.79z" class="colordce2ea svgShape"></path><path fill="#77bbff" d="M394.55,1454c6.18,11.76,21.39,10.34,21.39,10.34l0,0l-7.46,17.42c-21.69,7.53-35.38-11.2-35.38-11.2     c-14.18-13.85-19.27-88.68-19.27-88.68C376.38,1388.06,388.37,1442.24,394.55,1454z" class="colorff77c4 svgShape"></path><path fill="#77bbff" d="M367.6 1407.83c0 0-1.13-7.19-3.56-16.64-.7-2.72-2.51-5.95-5.03-7.5-5.45-3.36-14.19-5.03-20.93-6.01 0 0 18.71 71.3 17.44 125.62-.91 4.78-1.31 8.91-.55 10.94 0 0 4.46 1.76 12.11 6.88 7.02 4.7-2.72-35.56-4.37-42.22C367.23 1452.99 370.25 1434.79 367.6 1407.83zM311.53 1378.56c0 0-4.71.49-11.18 2.44-2.6.79-20.16 7.21-18.97 35.13 1.29 30.15 4.03 55.57-.31 65.93-4.34 10.36-14.23 27.57-14.77 46.15 22.39-18.05 49.45-37.43 64.27-68.58C351.19 1416.31 311.53 1378.56 311.53 1378.56z" class="colorff77c4 svgShape"></path><path fill="#5297dd" d="M295.4,1383.33c-6,3.73-14.88,12.68-14.01,32.8c1.29,30.15,4.03,55.57-0.31,65.93     c-4.34,10.36-14.23,27.57-14.77,46.15c0,0,9.69-30.99,25.48-47.21C291.79,1481,279.11,1415.79,295.4,1383.33z" class="colordd52a8 svgShape"></path><path fill="#171c2e" d="M329.66,1480.03c0,0-4.26,5.35,5.54,6.66l40.39,12.92l3.6-5.87L329.66,1480.03z" class="color24172e svgShape"></path><path fill="#282b37" d="M330.67,1479.2l60.57-25.84L376,1498.12l-45.15-14.73C328.89,1482.74,328.77,1480.01,330.67,1479.2z" class="color283037 svgShape"></path><path fill="#353948" d="M334.95,1478.84l54.53-23.26l-13.72,40.3l-40.65-13.27C333.34,1482.03,333.23,1479.57,334.95,1478.84z" class="color354048 svgShape"></path><path fill="#171c2e" d="M396.18,1434.99l51.01-26.18c2.81-1.44,6.01,1.08,5.27,4.15l-11.94,49.08l-66.01,36.94l18.07-59.68      C393.15,1437.44,394.44,1435.88,396.18,1434.99z" class="color24172e svgShape"></path><path fill="#585e76" d="M397.26,1435.61l51.01-26.18c2.81-1.44,6.01,1.08,5.27,4.15l-11.94,49.08l-66.01,36.94l18.07-59.69      C394.23,1438.06,395.53,1436.5,397.26,1435.61z" class="color586976 svgShape"></path><path fill="#84bcf4" d="M360.01,1466.69c4.63,2.46,10.74,4.61,10.67,6.75c-0.13,4.66-7.86,5.72-11.18,3.85        c-3.18-2.06-5-7.52-5-7.52S355.42,1464.25,360.01,1466.69z" class="colorf4be84 svgShape"></path><path fill="#84bcf4" d="M378.57 1481.81c.72-.26-1.3-5.22-2.12-6.11-.66-.71-1.29-1.65-8.48-5.07l1.71 4.55c0 0 4.64 1.49 5.22 1.91C375.48 1477.52 376.07 1481.28 378.57 1481.81zM370.99 1488.71c1.1.14.93-4.87.64-6.03-.38-1.46-.04-2.03-3.04-9.41l-1.87 4.38c0 0 2.58 4.95 2.72 5.65C369.58 1484 369.52 1487.6 370.99 1488.71zM367.17 1488.59c1.05.13.9-4.68.61-5.79-.36-1.4-.04-1.95-2.92-9.03l-1.79 4.2c0 0 2.47 4.76 2.61 5.43C365.82 1484.06 365.76 1487.52 367.17 1488.59zM362.9 1485.66c.89.11.76-3.96.52-4.9-.31-1.19-.03-1.65-2.47-7.65l-1.52 3.55c0 0 2.09 4.03 2.21 4.59C361.76 1481.84 361.71 1484.76 362.9 1485.66zM355.17 1470.23l-7.83-1.07 1.6-7.16c0 0 4.56 1.48 11.06 4.68L355.17 1470.23z" class="colorf4be84 svgShape"></path><path fill="#77bbff" d="M288.89,1386.65c-15.23,1.05-28.44,72.53-18.12,81.96c13.43,13.8,55.4,3.33,78.86,2.71      c0,0,3.97-3.94,4.46-8.04c-17.03-7.93-60.56-6.97-64.41-8.45C285.82,1453.34,304.07,1385.61,288.89,1386.65z" class="colorff77c4 svgShape"></path><path fill="#5297dd" d="M272.67,1465.21c-8.1-7.4-1.36-52.36,9.37-73.51c-11.78,18.72-19.85,69.08-11.28,76.91      c13.43,13.8,55.4,3.33,78.86,2.71c0,0,1.34-1.42,2.57-3.36C328.57,1468.76,285.97,1478.88,272.67,1465.21z" class="colordd52a8 svgShape"></path><polygon fill="#9cbfe2" points="309.68 1378.54 325.6 1391.7 328.14 1382.33 315.37 1378.74" class="color9cd6e2 svgShape"></polygon><path fill="#9cbfe2" d="M338.08,1377.68l-9.34,4.28l8.83,10.15C337.57,1392.11,341.86,1381.72,338.08,1377.68z" class="color9cd6e2 svgShape"></path><path fill="#192244" d="M297.86,1393.1c0,0-8.23,3.19-12.91-3.17c-4.68-6.35,3.17-10.17,3.17-10.17s-5.1,6.43,2.34,7.23     c7.44,0.81,7.49-11.69,4.87-18.58c-7.55-19.9-3.17-32.99,0.32-40.13c3.49-7.13,9.71-12.35,9.71-12.35l4.25-2.37l2.95,7.23     c0,0-5.36,8.19-8.07,15.73c-2.71,7.55-3.87,17.25,2.49,29.75C313.33,1378.77,314.93,1391.06,297.86,1393.1z" class="color442b19 svgShape"></path><path fill="#262f51" d="M312.56,1320.79l-2.95-7.23l0,0l0,0c0,0-8.52-4.41-15.02,12.79c-2.23,5.91-3.4,13-3.87,20.14     c2.92,10.7,11.18,23.03,15.68,33.5c5.68,13.22-11.7,9.69-11.7,9.69s5.79,9.8,14.5,2.25c9.57-8.3,1.22-22-2.43-29.17     c-3.65-7.17-3.04-20.76,0.46-28.48C310.74,1326.57,312.56,1320.79,312.56,1320.79z" class="color513826 svgShape"></path><path fill="#192244" d="M312.56,1320.79c0,0,19.45-5.16,29.22,18.39c9.77,23.55-4.25,34.4-1.79,41.66     c2.47,7.26,9.09,8.3,14.78,0.83c0,0-6.99,4.51-8.03-0.58c-1.04-5.09,10.58-12.55,9.52-31.97c-0.37-6.82-1.48-12.69-2.76-17.44     c-2.99-7.02-7.73-14.07-14.77-18.28c-14.12-8.43-30.38-7.84-29.12,0.16L312.56,1320.79z" class="color442b19 svgShape"></path><path fill="#96c9fd" d="M411.5,1458.7c-0.85-0.78-2.22-0.26-2.32,0.89c-0.08,0.93,0.04,2.09,0.7,3.34     c1.62,3.09,1.77,6.62,1.03,6.62c-0.74,0-2.79-6.62-5.29-6.1s2.65,8.31,1.91,9.34c-0.74,1.03-3.53-5.44-4.85-4.27     c-1.32,1.18,3.09,7.94,2.65,8.82c-0.44,0.88-3.38-2.79-3.68-1.47c-0.29,1.32,0.42,3.97,4.85,6.77c0,0,6.63,4.71,9.86,1.18     C419.41,1480.47,420.76,1467.21,411.5,1458.7z" class="colorfdc596 svgShape"></path></g></g><g fill="#000000" class="color000000 svgShape"><path fill="#66a7e8" d="M211.24,1690.21c2.7-1.97,8.19,0.39,26.02-7.03c26-10.83,36.16-66.79,36.16-66.79     c-39.57-4.95-37.07,52.06-52.38,61.81c-6.91,4.4-10.16,8.66-11.65,12.02H211.24z" class="color66e8c4 svgShape"></path><path fill="#3f88d2" d="M261.14,1633.05c-8.14,16.58-17.74,41.04-33.95,48.85c-4.52,2.18-7.83,4.64-10.3,7.06     c3.91-0.48,10.07-1.5,20.36-5.79c26-10.83,36.16-66.79,36.16-66.79S269.28,1616.47,261.14,1633.05z" class="color3fd2c5 svgShape"></path><path fill="#358de6" d="M194.55,1690.21h4.29c2.79-5.93,3.68-17.06-5.64-37.52c-17.25-37.85-25.95-86.94-13.93-101.38     c0,0-41.16,29.33-31.8,59.85C156.25,1639.8,200.47,1658.88,194.55,1690.21z" class="color35bfe6 svgShape"></path><path fill="#0575e6" d="M196.3,1690.21h2.54c2.79-5.92,3.68-17.06-5.64-37.52c-17.25-37.85-25.95-86.94-13.93-101.38     c0,0-27.17,30.21-16.86,59.14C172.59,1639.01,203.94,1653.88,196.3,1690.21z" class="color0a88d2 svgShape"></path><path fill="#498fd5" d="M153.91,1674.21c15.66,6.38,22.36,10.63,26.73,16h5.5c-4.11-12.43-6.56-25.72-16.21-35.77     c-10.95-11.41-53.17-30.2-54.62-32.38C113.86,1619.89,132.75,1665.59,153.91,1674.21z" class="color49d3d5 svgShape"></path><path fill="#0f63b8" d="M181.31,1686.7c0.33,1,0.8,2.2,1.37,3.51h3.46c-4.11-12.43-6.56-25.72-16.21-35.77     c-10.95-11.41-53.17-30.2-54.62-32.38c0,0,20.49,25.7,43.28,37.44C174.91,1667.92,179.22,1680.35,181.31,1686.7z" class="color0fa1b8 svgShape"></path><path fill="#66a7e8" d="M206.44,1672.26c-0.53,7.49-2.22,13.48-4.02,17.94h3c10.28-13.27,26.09-39.04,23.13-69.12     c-4.33-43.96-9.03-99.07-9.03-99.07s-57.86,43.87-29.39,92.54C204.32,1638.82,207.43,1658.17,206.44,1672.26z" class="color66e8c7 svgShape"></path><path fill="#3f88d2" d="M209.37,1591.17c5.87,36.43,5.94,77.22-3.41,94.48c1.7-1.21,3.53-2.48,5.39-3.76      c9.42-14.36,19.62-36.12,17.19-60.79c-4.33-43.96-9.03-99.07-9.03-99.07S201.73,1543.75,209.37,1591.17z" class="color3fd2c5 svgShape"></path><path fill="#cae1f9" d="M240.45,1687.54h-65.86c-5.84,0-10.27,5.26-9.27,11.02l8.42,48.47c1.31,6.88,7.33,11.86,14.33,11.86h38.9    c7.01,0,13.02-4.98,14.33-11.86l8.42-48.47C250.72,1692.8,246.29,1687.54,240.45,1687.54z" class="colorcadbf9 svgShape"></path><path fill="#a1c6eb" d="M249.85,1697.27c0.19-5.23-3.99-9.73-9.39-9.73h-65.86c-5.4,0-9.58,4.5-9.39,9.73H249.85z" class="colora1b7eb svgShape"></path><path fill="#a1c6eb" d="M240.45,1687.54h-18.31c5.84,0,10.27,5.26,9.27,11.02l-8.42,48.47c-1.31,6.88-7.32,11.86-14.33,11.86h18.31    c7.01,0,13.02-4.98,14.33-11.86l8.42-48.47C250.72,1692.8,246.29,1687.54,240.45,1687.54z" class="colora1b7eb svgShape"></path></g><g fill="#000000" class="color000000 svgShape"><path fill="#66a7e8" d="M1792.04,1690.21c2.7-1.97,8.19,0.39,26.02-7.03c26-10.83,36.16-66.79,36.16-66.79     c-39.57-4.95-37.07,52.06-52.38,61.81c-6.91,4.4-10.16,8.66-11.65,12.02H1792.04z" class="color66e8c4 svgShape"></path><path fill="#3f88d2" d="M1841.95,1633.05c-8.14,16.58-17.74,41.04-33.95,48.85c-4.52,2.18-7.83,4.64-10.3,7.06     c3.91-0.48,10.07-1.5,20.36-5.79c26-10.83,36.16-66.79,36.16-66.79S1850.08,1616.47,1841.95,1633.05z" class="color3fd2c5 svgShape"></path><path fill="#358de6" d="M1775.35,1690.21h4.29c2.79-5.93,3.68-17.06-5.64-37.52c-17.25-37.85-25.95-86.94-13.93-101.38     c0,0-41.16,29.33-31.8,59.85C1737.06,1639.8,1781.27,1658.88,1775.35,1690.21z" class="color35bfe6 svgShape"></path><path fill="#0575e6" d="M1777.1,1690.21h2.54c2.79-5.92,3.68-17.06-5.64-37.52c-17.25-37.85-25.95-86.94-13.93-101.38     c0,0-27.17,30.21-16.86,59.14C1753.39,1639.01,1784.75,1653.88,1777.1,1690.21z" class="color0a88d2 svgShape"></path><path fill="#498fd5" d="M1734.71,1674.21c15.66,6.38,22.36,10.63,26.73,16h5.5c-4.11-12.43-6.56-25.72-16.21-35.77     c-10.95-11.41-53.17-30.2-54.62-32.38C1694.66,1619.89,1713.56,1665.59,1734.71,1674.21z" class="color49d3d5 svgShape"></path><path fill="#0f63b8" d="M1762.11,1686.7c0.33,1,0.8,2.2,1.37,3.51h3.46c-4.11-12.43-6.56-25.72-16.21-35.77     c-10.95-11.41-53.17-30.2-54.62-32.38c0,0,20.49,25.7,43.28,37.44C1755.71,1667.92,1760.03,1680.35,1762.11,1686.7z" class="color0fa1b8 svgShape"></path><path fill="#66a7e8" d="M1787.24,1672.26c-0.53,7.49-2.22,13.48-4.02,17.94h3c10.28-13.27,26.09-39.04,23.13-69.12     c-4.33-43.96-9.03-99.07-9.03-99.07s-57.86,43.87-29.39,92.54C1785.12,1638.82,1788.23,1658.17,1787.24,1672.26z" class="color66e8c7 svgShape"></path><path fill="#3f88d2" d="M1790.17,1591.17c5.87,36.43,5.94,77.22-3.41,94.48c1.7-1.21,3.53-2.48,5.39-3.76      c9.42-14.36,19.62-36.12,17.19-60.79c-4.33-43.96-9.03-99.07-9.03-99.07S1782.54,1543.75,1790.17,1591.17z" class="color3fd2c5 svgShape"></path><path fill="#cae1f9" d="M1821.26,1687.54h-65.86c-5.84,0-10.27,5.26-9.27,11.02l8.42,48.47c1.31,6.88,7.33,11.86,14.33,11.86h38.9    c7.01,0,13.02-4.98,14.33-11.86l8.42-48.47C1831.52,1692.8,1827.09,1687.54,1821.26,1687.54z" class="colorcadbf9 svgShape"></path><path fill="#a1c6eb" d="M1830.65,1697.27c0.19-5.23-3.99-9.73-9.39-9.73h-65.86c-5.4,0-9.58,4.5-9.39,9.73H1830.65z" class="colora1b7eb svgShape"></path><path fill="#a1c6eb" d="M1821.26,1687.54h-18.31c5.84,0,10.27,5.26,9.27,11.02l-8.42,48.47c-1.31,6.88-7.32,11.86-14.33,11.86h18.31    c7.01,0,13.02-4.98,14.33-11.86l8.42-48.47C1831.52,1692.8,1827.09,1687.54,1821.26,1687.54z" class="colora1b7eb svgShape"></path></g></svg>