<svg xmlns="http://www.w3.org/2000/svg" data-name="Delete Account" viewBox="0 0 2500 2500" id="Deleteuser"><path fill="#4687c8" d="M943.39 372.1s-39.19 63.12-120.9 52.28-191.84-29.72-230.92 63.21 27.89 191.29 141.25 171.13 236-17.85 259.37-219.14ZM1777.69 932.81l-33.44-4.81c-9.21-1.31-9.16-14.64.07-15.88l33.33-4.5a8 8 0 0 0 6.87-6.84l4.63-33.32c1.28-9.22 14.6-9.22 15.88 0l4.65 33.46a8 8 0 0 0 6.81 6.83l33.44 4.78c9.21 1.32 9.16 14.64-.06 15.89l-33.34 4.49a8 8 0 0 0-6.87 6.85L1805 973.1c-1.28 9.22-14.6 9.22-15.88 0l-4.65-33.45a8 8 0 0 0-6.78-6.84Z" class="color46c869 svgShape"></path><path fill="#0575e6" d="m1864.83 866.93-17-2.43a4.07 4.07 0 0 1 0-8.06l16.92-2.29a4.06 4.06 0 0 0 3.49-3.47l2.35-16.91a4.07 4.07 0 0 1 8.07 0l2.36 17a4.06 4.06 0 0 0 3.45 3.47l17 2.43a4.07 4.07 0 0 1 0 8.06l-16.92 2.27a4.05 4.05 0 0 0-3.48 3.47l-2.35 16.91a4.07 4.07 0 0 1-8.07 0l-2.36-17a4.07 4.07 0 0 0-3.46-3.45Z" class="color567aff svgShape"></path><path fill="#dce4ec" d="m1728.75 776.16-14.86-2.16a3.56 3.56 0 0 1 0-7.06l14.81-2a3.54 3.54 0 0 0 3-3l2.06-14.8a3.56 3.56 0 0 1 7.06 0L1743 762a3.56 3.56 0 0 0 3 3l14.86 2.13a3.56 3.56 0 0 1 0 7.05l-14.81 2a3.57 3.57 0 0 0-3.06 3l-2 14.81a3.56 3.56 0 0 1-7.06 0l-2.07-14.87a3.56 3.56 0 0 0-3.11-2.96Z" class="colordce0ec svgShape"></path><path fill="#0575e6" d="m400.73 1300.15-33.44-4.78c-9.22-1.31-9.16-14.64.06-15.88l33.34-4.5a8 8 0 0 0 6.87-6.84l4.62-33.32c1.28-9.22 14.61-9.22 15.89 0l4.65 33.46a8 8 0 0 0 6.8 6.83l33.48 4.78c9.22 1.32 9.17 14.64-.06 15.89l-33.33 4.49a8 8 0 0 0-6.87 6.85l-4.63 33.31c-1.28 9.23-14.61 9.23-15.89 0l-4.68-33.44a8 8 0 0 0-6.81-6.85Z" class="color567aff svgShape"></path><path fill="#dce4ec" d="m269.69 1286-17-2.43a4.07 4.07 0 0 1 0-8.06l16.92-2.29a4.06 4.06 0 0 0 3.49-3.47l2.35-16.92a4.07 4.07 0 0 1 8.07 0l2.35 17a4.07 4.07 0 0 0 3.46 3.47l17 2.43a4.07 4.07 0 0 1 0 8.06l-16.93 2.28a4.09 4.09 0 0 0-3.49 3.48l-2.34 16.91a4.07 4.07 0 0 1-8.07 0l-2.36-17a4.06 4.06 0 0 0-3.45-3.46Z" class="colordce0ec svgShape"></path><path fill="#4687c8" d="m299.16 1126.36 21-3c5.78-.82 5.75-9.19 0-10l-20.94-2.82a5 5 0 0 1-4.32-4.3l-2.9-20.92c-.81-5.8-9.18-5.8-10 0l-2.92 21a5 5 0 0 1-4.27 4.29l-21 3c-5.79.83-5.75 9.2 0 10l20.94 2.83a5 5 0 0 1 4.31 4.3l2.91 20.92c.8 5.79 9.17 5.79 10 0l2.92-21a5 5 0 0 1 4.27-4.3ZM719.69 925.09l228.92 572.16-12.78 544.9h220.31L1159 1433a101.76 101.76 0 0 0-1.86-35.77L956.59 925.09Z" class="color46c869 svgShape"></path><path fill="#021b79" d="M973.33 2042.15v109.77h160.85a10 10 0 0 0 7.78-16.19l-31-38.7v-54.88ZM411.05 1959.67l-43.51 100.78 147.68 63.75a10 10 0 0 0 13.56-11.78l-13.09-47.8 21.76-50.39Z" class="color142448 svgShape"></path><path fill="#4687c8" d="m898.39 954.78-80.51 520.73-215.65 566.64-229.24-80.84 229.24-540.71 58.34-505.78 237.82 39.96z" class="color46c869 svgShape"></path><path fill="#0575e6" d="m1056.67 652.66-70.62 12.26c-31.25 26.36-59.38 83.7-42.66 121L1086.87 1052a114.87 114.87 0 0 0 85.71 66.27l311.78 28.61 18.34-142.11-277.64-52.17Z" class="color567aff svgShape"></path><path fill="#a9d3fd" d="m1500.22 1024 67.59 15.6 45 78.49s12.25 27.13-20.69 17.88c0 0 3.4 35.57-22.45 19.4 2.15 10.14-.16 28.9-20.57 16.55l-22.21-36.72-40.22-5.79Z" class="colorfdd8a9 svgShape"></path><path fill="#021b79" d="M1569.62 1158.14a2.8 2.8 0 0 1-2.44-1.41l-26.18-45.35a2.81 2.81 0 1 1 4.87-2.81l26.22 45.35a2.81 2.81 0 0 1-1 3.84 2.73 2.73 0 0 1-1.47.38Z" class="color142448 svgShape"></path><path fill="#0575e6" d="m871 571.11-5-1.46c-53.22-15.47-108 10.64-123.47 58.84l-89.8 279.92 337.83 98.23-.41-98 74.32-194.17c12.9-44.37-16-91.78-64.58-105.9Z" class="color567aff svgShape"></path><path fill="#a9d3fd" d="m931.66 479.9-29.18 100.37a57.41 57.41 0 0 0 39.1 71.16 57.41 57.41 0 0 0 71.17-39.1l20.25-69.51Z" class="colorfdd8a9 svgShape"></path><path fill="#4687c8" d="m921 431.62 15.57-50.53c23.27-29.77 38-37.67 55.6-35.47l71.17 20.69-10.77 37Z" class="color46c869 svgShape"></path><circle cx="1082.32" cy="439.58" r="37.4" fill="#4687c8" class="color46c869 svgShape"></circle><path fill="#a9d3fd" d="M979.59 564.27a79.44 79.44 0 0 1-54.11-98.46l22.06-75.87 152.57 44.36-22.06 75.87a79.44 79.44 0 0 1-98.46 54.1Z" class="colorfdd8a9 svgShape"></path><ellipse cx="954.46" cy="424.38" fill="#4687c8" rx="41.62" ry="22.45" transform="rotate(-73.79 954.42 424.397)" class="color46c869 svgShape"></ellipse><circle cx="985.68" cy="393.61" r="42.28" fill="#4687c8" class="color46c869 svgShape"></circle><ellipse cx="936.59" cy="452.38" fill="#a9d3fd" rx="27.8" ry="27.88" transform="rotate(-73.79 936.551 452.39)" class="colorfdd8a9 svgShape"></ellipse><ellipse cx="1010.48" cy="472.14" fill="#021b79" rx="6.74" ry="6.75" transform="rotate(-73.7 1011.23 471.985)" class="color142448 svgShape"></ellipse><ellipse cx="1063.61" cy="487.59" fill="#021b79" rx="6.74" ry="6.75" transform="rotate(-73.79 1063.558 487.601)" class="color142448 svgShape"></ellipse><path fill="#021b79" d="M944.38 466.36a2.82 2.82 0 0 1-2.25-1.12L927.65 446a2.81 2.81 0 0 1 4.5-3.38l14.48 19.27a2.81 2.81 0 0 1-2.25 4.5ZM1021.53 531.11c-6.74 0-12-2-15.64-5.9-6.55-7-5.17-17.56-5.11-18a2.81 2.81 0 0 1 5.57.76c0 .08-1.05 8.39 3.67 13.43 2.88 3.07 7.47 4.42 13.64 4a2.81 2.81 0 0 1 .34 5.6c-.82.08-1.65.11-2.47.11ZM1027 563.32s-34.43 10.47-65.49-6.82c0 0 22.29 23.65 61.54 20.41ZM1446.28 2154.73c-392.44-.27-790.45-.27-1182.95 0a2.82 2.82 0 0 1 0-5.63c392.5-.27 790.51-.27 1183 0a2.82 2.82 0 0 1 0 5.63Z" class="color142448 svgShape"></path><path fill="#a9d3fd" d="m1558.74 1037.84 52.54 9.93a14.1 14.1 0 0 1 11.38 15.49 14.1 14.1 0 0 1-15.64 12.37l-52-6.09Z" class="colorfdd8a9 svgShape"></path><path fill="#021b79" d="M1525 1123.88a2.82 2.82 0 0 1-1-5.45c25.19-9.46 43-48 43.21-48.34a2.81 2.81 0 0 1 2.89-1.62l18.29 2.14a2.81 2.81 0 1 1-.65 5.59l-16.3-1.91c-4 8.19-21.13 40.27-45.46 49.41a2.84 2.84 0 0 1-.98.18ZM990.15 911.48a2.6 2.6 0 0 1-.94-.17 2.82 2.82 0 0 1-1.71-3.59l55.5-156.06a2.81 2.81 0 0 1 5.3 1.89l-55.5 156.06a2.81 2.81 0 0 1-2.65 1.87ZM852.81 1260.62a2.8 2.8 0 0 1-2.13-1L689.35 1073.1a2.81 2.81 0 1 1 4.26-3.68L854.93 1256a2.82 2.82 0 0 1-2.12 4.66Z" class="color142448 svgShape"></path><path fill="#ffffff" d="M1111 2045a2.81 2.81 0 0 1-2.81-2.81l-1-628.94L964.43 1087a2.81 2.81 0 1 1 5.15-2.25l143 326.77a2.88 2.88 0 0 1 .23 1.12l1 629.53a2.81 2.81 0 0 1-2.81 2.83ZM464.07 1985.37a2.75 2.75 0 0 1-1.08-.22 2.82 2.82 0 0 1-1.51-3.68l232.75-555.9-9.82-134.75a2.82 2.82 0 0 1 5.62-.41l9.86 135.42a2.75 2.75 0 0 1-.21 1.3l-233 556.51a2.82 2.82 0 0 1-2.61 1.73Z" class="colorffffff svgShape"></path><path fill="#0575e6" d="m907 622.2-45.1-50.49a91.63 91.63 0 0 0-109.71 11.2L527.5 791.2a114.84 114.84 0 0 0-35.33 102.4l72.74 304.54 142.21-16.06-41.19-291.81Z" class="color567aff svgShape"></path><path fill="#a9d3fd" d="m687.51 1184.48 5.81 58.33-60 67.72s-21.78 20.3-23.57-13.87c0 0-32.61 14.62-25.56-15.06-8.92 5.29-27.44 9.11-22.27-14.18l27.67-32.8-7.13-38.49Z" class="colorfdd8a9 svgShape"></path><path fill="#021b79" d="M584.22 1284.41a2.81 2.81 0 0 1-2.11-4.66l30.36-34.58a2.81 2.81 0 1 1 4.23 3.71l-30.36 34.58a2.81 2.81 0 0 1-2.12.95ZM609.79 1299.47a2.82 2.82 0 0 1-2.07-4.72l31.32-34a2.82 2.82 0 1 1 4.14 3.82l-31.32 34a2.81 2.81 0 0 1-2.07.9ZM669.17 916a2.74 2.74 0 0 1-1-.19l-40-15.38a2.81 2.81 0 1 1 2-5.25l38.39 14.75 166-156.82a2.81 2.81 0 1 1 3.86 4.09l-167.33 158a2.83 2.83 0 0 1-1.92.8Z" class="color142448 svgShape"></path><circle cx="1054.32" cy="395.15" r="43.83" fill="#4687c8" class="color46c869 svgShape"></circle><circle cx="1106.25" cy="410.81" r="38.7" fill="#4687c8" class="color46c869 svgShape"></circle><path fill="#021b79" d="M990.15 911.48a2.73 2.73 0 0 1-1.45-.41l-50.39-30.35a2.81 2.81 0 1 1 2.9-4.82l50.39 30.36a2.81 2.81 0 0 1-1.45 5.22Z" class="color142448 svgShape"></path><circle cx="1691.35" cy="1316.52" r="238.9" fill="#0575e6" class="color567aff svgShape"></circle><path fill="#ffffff" d="M1683.25 1355.86a208.65 208.65 0 0 1 146.55 114.81 208 208 0 0 0 66.83-114.94c23.26-113-49.52-223.54-162.56-246.8s-223.54 49.52-246.8 162.56a208 208 0 0 0 16 132 208.63 208.63 0 0 1 179.98-47.63Z" class="colorffffff svgShape"></path><circle cx="1705.54" cy="1247.58" r="82.38" fill="#0575e6" class="color567aff svgShape"></circle><path fill="#ffffff" d="M1013.15 1099a3.37 3.37 0 0 1-.62-.07l-139.73-31.28a2.81 2.81 0 0 1 1.23-5.49l139.73 31.26a2.81 2.81 0 0 1-.61 5.56Z" class="colorffffff svgShape"></path><path fill="#021b79" d="m691.48 919.67 313.01 118.17-13.93-31.2-299.08-86.97z" class="color142448 svgShape"></path><rect width="613.52" height="61.94" x="1398.78" y="1517.09" fill="#ffffff" rx="25.11" class="colorffffff svgShape"></rect><path fill="#021b79" d="M1987.19 1581.84h-563.31a28 28 0 0 1-27.92-27.92v-11.73a28 28 0 0 1 27.92-27.92h563.31a28 28 0 0 1 27.92 27.92v11.73a28 28 0 0 1-27.92 27.92Zm-563.31-61.94a22.32 22.32 0 0 0-22.29 22.29v11.73a22.32 22.32 0 0 0 22.29 22.29h563.31a22.32 22.32 0 0 0 22.3-22.29v-11.73a22.32 22.32 0 0 0-22.3-22.29Z" class="color142448 svgShape"></path><rect width="503.46" height="61.94" x="1860.03" y="1265.26" fill="#ffffff" rx="25.11" transform="rotate(-62.14 2111.806 1296.236)" class="colorffffff svgShape"></rect><path fill="#021b79" d="M2011 1527.27a27.84 27.84 0 0 1-13-3.25l-10.37-5.48a28 28 0 0 1-11.64-37.73l2.49 1.31-2.49-1.31 211.8-400.72a27.93 27.93 0 0 1 37.73-11.64l10.37 5.48a27.93 27.93 0 0 1 11.64 37.73l-211.8 400.72a28.05 28.05 0 0 1-24.72 14.89Zm201.49-456.44a22.35 22.35 0 0 0-19.73 11.89L1981 1483.44a22.32 22.32 0 0 0 9.29 30.13l10.37 5.48a22.29 22.29 0 0 0 30.12-9.3L2242.56 1109a22.3 22.3 0 0 0-9.3-30.13l-10.37-5.48a22.15 22.15 0 0 0-10.39-2.56ZM2091.17 1469.17a18 18 0 0 1-8.43-2.09l-6.31-3.34a2.81 2.81 0 1 1 2.63-5l6.31 3.33a12.49 12.49 0 0 0 16.86-5.2l128.95-244a12.48 12.48 0 0 0-5.2-16.85 2.82 2.82 0 0 1 2.63-5 18.12 18.12 0 0 1 7.54 24.46l-129 244a18.1 18.1 0 0 1-15.98 9.69Z" class="color142448 svgShape"></path><path fill="#ffffff" d="M1930.3 2151.71h-431.23l-47.44-572.68h507.82l-29.15 572.68z" class="colorffffff svgShape"></path><path fill="#021b79" d="M1930.3 2154.52h-431.23a2.81 2.81 0 0 1-2.8-2.58l-47.45-572.68a2.83 2.83 0 0 1 2.81-3h507.82a2.82 2.82 0 0 1 2.8 3l-29.14 572.68a2.81 2.81 0 0 1-2.81 2.58Zm-428.64-5.62h426l28.86-567.06h-501.84Z" class="color142448 svgShape"></path><path fill="#021b79" d="M2045.89 2154.52h-297.78a2.81 2.81 0 1 1 0-5.62h297.78a2.81 2.81 0 0 1 0 5.62ZM1567.89 2154.52a2.81 2.81 0 0 1-2.81-2.81v-428.6a24.25 24.25 0 1 0-48.5 0v428.6a2.81 2.81 0 0 1-5.62 0v-428.6a29.87 29.87 0 0 1 59.74 0v428.6a2.81 2.81 0 0 1-2.81 2.81ZM1678.78 2154.52a2.81 2.81 0 0 1-2.81-2.81v-428.6a24.25 24.25 0 0 0-48.5 0v428.6a2.82 2.82 0 0 1-5.63 0v-428.6a29.88 29.88 0 0 1 59.75 0v428.6a2.81 2.81 0 0 1-2.81 2.81Z" class="color142448 svgShape"></path><path fill="#021b79" d="M1789.67 2154.73a2.81 2.81 0 0 1-2.82-2.81v-428.81a24.25 24.25 0 0 0-48.5 0v428.6a2.81 2.81 0 0 1-5.62 0v-428.6a29.88 29.88 0 0 1 59.75 0v428.81a2.81 2.81 0 0 1-2.81 2.81ZM1897.3 2154.73a2.81 2.81 0 0 1-2.81-2.81v-428.81a24.25 24.25 0 0 0-48.5 0v428.81a2.81 2.81 0 1 1-5.62 0v-428.81a29.88 29.88 0 0 1 59.75 0v428.81a2.81 2.81 0 0 1-2.82 2.81ZM1956.87 1632.55H1489.6a2.82 2.82 0 1 1 0-5.63h467.27a2.82 2.82 0 0 1 0 5.63ZM1212.09 981.57a2.75 2.75 0 0 1-1.24-.29 2.82 2.82 0 0 1-1.27-3.77l13-26.16a2.81 2.81 0 1 1 5 2.5l-13 26.16a2.81 2.81 0 0 1-2.49 1.56Z" class="color142448 svgShape"></path></svg>