<svg xmlns="http://www.w3.org/2000/svg" viewBox="0 0 2000 2000" id="DistanceLearning"><path fill="#0575e6" d="m939.155 1442.051-523.183-304.04 378.531-218.545 523.183 304.04z" class="color3765c7 svgShape"></path><path fill="#e7eff7" d="m925.255 1441.113 377.106-217.723-.301-106.023-376.805 217.549z" class="colore7f1f7 svgShape"></path><path fill="#cfdbe8" d="m925.095 1384.67 377.106-217.723-.141-49.58-376.805 217.549z" class="colorcfdee8 svgShape"></path><path fill="#256eb8" d="m932.005 1454.461-523.183-304.04-.3-106.024 523.182 304.04z" class="color255bb8 svgShape"></path><path fill="#0575e6" d="m931.704 1348.437-523.182-304.04L794.226 821.71l523.182 304.041z" class="color3765c7 svgShape"></path><path fill="#135fab" d="m1317.408 1125.751.024 8.243-378.531 218.545.254 89.512 378.531-218.545.023 8.269-385.704 222.686-.301-106.024zM855.22 1409.868l-32.093-18.65-.3-106.024 32.092 18.65zM805.909 1381.18l-32.093-18.651-.301-106.023 32.093 18.65z" class="color1352ab svgShape"></path><g fill="#5598db" class="color5576db svgShape"><path d="m612.287 1100.853 12.016 6.983 273.61-157.969-12.015-6.983zM515.832 1044.8l52.481 30.498 273.61-157.969-52.481-30.498zM584.292 1084.584l12.016 6.983 273.61-157.969-12.016-6.983z" fill="#000000" class="color000000 svgShape"></path></g><path fill="#2950e2" d="m954.916 1368.201 23.184-13.473c5.956 3.542 11.723 9.738 15.85 17.042 4.127 7.286 6.433 15.369 6.323 22.143l-23.184 13.473c.109-6.774-2.197-14.857-6.323-22.143-4.128-7.304-9.895-13.5-15.85-17.042z" class="colore22951 svgShape"></path><path fill="#5477fd" d="m962.311 1241.847-386.654-224.699 279.75-161.515 386.655 224.7z" class="colorfd546b svgShape"></path><path fill="#e7eff7" d="m952.039 1241.153 278.697-160.906-.222-78.356-278.475 160.778z" class="colore7f1f7 svgShape"></path><path fill="#cfdbe8" d="m951.92 1199.439 278.698-160.906-.104-36.642-278.475 160.778z" class="colorcfdee8 svgShape"></path><path fill="#2950e2" d="m957.027 1251.018-386.655-224.699-.222-78.356 386.655 224.699z" class="colore22951 svgShape"></path><path fill="#5477fd" d="M956.805 1172.662 570.15 947.963l285.053-164.575 386.654 224.699z" class="colorfd546b svgShape"></path><path fill="#3d61ea" d="m1241.857 1008.087.017 6.092-279.751 161.514.188 66.154 279.751-161.514.017 6.11-285.052 164.575-.222-78.356z" class="colorea3d5b svgShape"></path><path fill="#1d42cc" d="m900.28 1218.062-23.718-13.783-.222-78.356 23.718 13.783zM863.836 1196.86l-23.718-13.783-.222-78.357 23.718 13.784z" class="colorcc1d4b svgShape"></path><g fill="#3d61ea" class="colorea3d5b svgShape"><path d="m720.742 989.687 8.88 5.16 202.21-116.746-8.88-5.16zM649.457 948.26l38.786 22.54 202.21-116.746-38.786-22.539zM700.052 977.663l8.88 5.161 202.21-116.746-8.88-5.161z" fill="#000000" class="color000000 svgShape"></path></g><path fill="#3963ff" d="m973.959 1187.268 17.134-9.957c4.401 2.618 8.664 7.197 11.714 12.594 3.05 5.385 4.754 11.358 4.673 16.365l-17.134 9.957c.081-5.006-1.624-10.98-4.673-16.365-3.05-5.397-7.313-9.976-11.714-12.594z" class="colorffb839 svgShape"></path><path fill="#cfdbe8" d="m1088.77 969.198-164.878-95.816c4.673-2.698 8.516-9.297 8.5-14.667l164.878 95.816c.016 5.37-3.826 11.969-8.5 14.667zM1097.27 954.53l-164.877-95.816-.242-85.259 164.878 95.816z" class="colorcfdee8 svgShape"></path><path fill="#cfdbe8" d="m1097.029 869.271-164.878-95.816 5.348-3.088 164.878 95.817z" class="colorcfdee8 svgShape"></path><path fill="#e7eff7" d="m986.916 1028.004-164.878-95.817 101.855-58.806 164.877 95.817z" class="colore7f1f7 svgShape"></path><path fill="#c5d1dd" d="m986.933 1034.149-164.877-95.816-.018-6.146 164.878 95.817zM1102.377 866.184l.242 85.259c.025 8.75-6.17 19.478-13.831 23.901l-101.854 58.806-.017-6.146 101.854-58.806c4.673-2.698 8.516-9.297 8.5-14.667l-.242-85.259 5.348-3.088z" class="colorc5d4dd svgShape"></path><path fill="#dce6f1" d="m753.667 271.216 21.599-12.552-1.026 391.759-21.599 12.552z" class="colordce8f1 svgShape"></path><path fill="#c5d1dd" d="m1346.311 975.404-.07 62.693c0 4.285-1.595 7.325-4.036 8.77l-26.316 15.268c2.491-1.445 3.987-4.484 4.036-8.77l.161-62.702 26.225-15.259z" class="colorc5d4dd svgShape"></path><path fill="#dce6f1" d="m752.641 662.975 21.599-12.552 551.172 318.219-21.599 12.552z" class="colordce8f1 svgShape"></path><path fill="#e7eff7" d="m1304.839 589.435 21.599-12.552-1.026 391.759-21.599 12.552z" class="colore7f1f7 svgShape"></path><path fill="#e7eff7" d="m753.667 271.215 21.599-12.551 551.172 318.219-21.599 12.552z" class="colore7f1f7 svgShape"></path><path fill="#616573" d="M1347.29 580.622c0-8.731-6.129-19.303-13.79-23.747L777.136 235.714c-3.678-2.147-7.201-2.454-9.653-.92l-26.625 15.63c2.451-1.534 6.307-1.576 10.137.564l556.211 321.161c7.662 4.444 13.789 15.016 13.789 23.755l-.91 394.761 26.225-15.259.98-394.784z" class="color616173 svgShape"></path><path fill="#cfdbe8" d="M1014.726 837.098c8.047 4.646 14.516 15.85 14.49 25.099-.026 9.172-6.537 12.882-14.584 8.235-7.983-4.609-14.451-15.812-14.425-24.984.025-9.249 6.536-12.959 14.519-8.35z" class="colorcfdee8 svgShape"></path><path fill="none" d="m753.668 271.215-1.027 391.76 551.173 318.219 1.025-391.759z"></path><path fill="none" d="m752.641 662.975 551.173 318.219-551.173-318.219z"></path><path fill="#e7eff7" d="M1303.814 981.194 752.641 662.975l-16.25-9.383-.167 62.733c-.024 8.654 6.118 19.294 13.651 23.643l556.259 321.156c7.631 4.406 13.815.883 13.839-7.771l.112-62.689-16.271-9.47z" class="colore7f1f7 svgShape"></path><path fill="#cfdbe8" d="M1005.563 829.912c9.131 5.272 16.5 18.036 16.47 28.506-.03 10.492-7.447 14.719-16.578 9.447-9.112-5.261-16.481-18.025-16.451-28.516.03-10.47 7.447-14.697 16.559-9.437z" class="colorcfdee8 svgShape"></path><path fill="#4c505e" d="m1303.814 981.194 16.271 9.47 1.1-394.834c.024-8.654-6.119-19.294-13.75-23.699L751.177 250.975c-7.533-4.349-13.715-.826-13.74 7.828l-1.046 394.79 16.25 9.383 551.173 318.218z" class="color4c4c5e svgShape"></path><path fill="#85c1fd" d="m1304.839 589.435-1.026 361.258-551.171-318.22 1.025-361.258z" class="color85cdfd svgShape"></path><path fill="#b5d9fe" d="m422.086 926.089-33.674 41.82s-11.587 4.164-13.578 10.5c-1.991 6.337-5.25 7.604-2.535 8.871 2.716 1.267 6.518-3.621 6.518-3.621s-11.587 13.397-10.138 15.388c1.448 1.992 10.319 6.518 17.38 0 7.061-6.518 15.026-17.742 16.294-22.811 1.267-5.069 37.838-22.087 42.545-31.32 4.707-9.232-12.854-24.439-22.812-18.827z" class="colorfed0b5 svgShape"></path><path fill="#75a3d1" d="M468.049 845.272s-14.894 3.157-19.036 13.81c-4.143 10.653-15.585 46.559-15.98 49.913-.395 3.354-12.793 19.388-12.793 19.388s23.051 16.517 22.46 19.476c0 0 12.232-11.837 15.388-26.633 3.156-14.796 34.324-63.328 9.961-75.954z" class="color75d178 svgShape"></path><path fill="#b5d9fe" d="M358.064 1171.403s-4.894 12.376-1.625 14.78 17.692 3.365 18.75 0c1.058-3.365 3.269-13.31 2.981-14.78-.289-1.47-20.02-1.896-20.106 0z" class="colorfed0b5 svgShape"></path><path fill="#021b79" d="M354.04 1171.744s4.152-48.045 1.483-65.543-10.968-45.672-.294-56.349 120.406-53.68 120.406-53.68 15.956 58.811 8.246 60.887c-7.711 2.076-46.207 5.545-46.207 5.545s-48.638 3.262-48.934 10.38c-.297 7.118-.576 67.89-5.618 86.871 0 0-1.963 12.678-3.559 14.532-2.573 2.989-25.787.516-25.523-2.643z" class="color474756 svgShape"></path><path fill="#2950e2" d="M355.703 1177.945c-3.166 1.727-4.491 4.894-6.678 7.657-2.188 2.763-11.284 10.132-13.184 11.226-1.9 1.094-9.96 5.757-10.247 7.139-.288 1.382-1.151 6.102.518 7.196 1.669 1.094 20.034 1.669 25.503-1.497 5.469-3.166 12.838-6.045 16.062-6.045s13.356-3.339 13.644-7.139c.288-3.8-.518-16.046-1.209-17.234-.691-1.188-2.776-1.963-2.949-1.79-.173.173-1.685 7.662-8.651 6.741-6.966-.921-11.37-5.793-11.601-6.484-.23-.691-1.208.23-1.208.23z" class="colore22951 svgShape"></path><path fill="#b5d9fe" d="M430.256 1195.216s-2.699 13.032.934 14.84 18.007.282 18.472-3.215c.465-3.497.938-13.674.402-15.072s-20.048 1.565-19.808 3.447z" class="colorfed0b5 svgShape"></path><path fill="#2950e2" d="M429.052 1202.067c-2.823 2.244-3.585 5.591-5.266 8.688-1.681 3.098-9.379 11.917-11.063 13.32-1.684 1.403-8.825 7.38-8.871 8.79-.047 1.411-.088 6.21 1.744 7.001 1.832.791 20.024-1.79 24.869-5.848 4.845-4.057 11.611-8.157 14.788-8.709 3.176-.553 12.586-5.58 12.218-9.372-.368-3.793-3.262-15.72-4.146-16.772-.884-1.052-3.072-1.458-3.212-1.258-.141.2-.346 7.838-7.367 8.125s-12.195-3.758-12.541-4.399c-.347-.642-1.153.434-1.153.434z" class="colore22951 svgShape"></path><path fill="#4c505e" d="M480.434 1017.89c-.164.692-33.63 39.129-49.329 49.907-15.698 10.778-22.962 18.979-19.213 34.677 3.749 15.698 17.807 73.756 14.761 92.877 0 0 29.777 8.04 31.183-.487 1.406-8.527-14.547-90.281-8.221-91.453 6.326-1.172 88.099-26.242 92.55-49.204 4.452-22.962 5.858-44.752 3.983-50.376-1.874-5.623-60.2-9.137-65.714 14.059z" class="color4c4c5e svgShape"></path><path fill="#94c0ed" d="M474.674 845.013s57.604 13.293 78.874 23.928c21.269 10.635-.886 74.443-3.249 92.167-2.363 17.724-2.954 43.72-8.271 51.696-5.317 7.976-29.245 16.838-41.062 12.998-11.816-3.84-38.994-12.998-38.994-20.974s0-40.175-2.954-61.149c-2.954-20.974-14.475-60.558-7.976-76.215 6.498-15.657 13.811-24.815 23.632-22.451z" class="color94ed96 svgShape"></path><path fill="#a7ccf2" d="M486.049 848.651s-.375 14.073 3.753 17.826 9.382 6.192 12.572 6.192 26.834-7.13 27.397-12.009c.563-4.879-3.19-10.883-4.128-15.199-.938-4.316-1.689-17.826-1.689-17.826s-37.968 17.07-37.905 21.016z" class="colorf2c0a7 svgShape"></path><path fill="#b5d9fe" d="M476.457 855.308c-1.729-3.207-2.196-6.922-2.607-10.542a761.63 761.63 0 0 1-3.213-35.825c-.165-2.498-.309-5.064.446-7.451.884-2.793 3.031-5.16 5.725-6.311 1.89-.807 3.97-1.026 6.014-1.236l15.531-1.594c1.999-.205 4.016-.41 6.012-.18 1.691.195 3.33.698 4.939 1.253a76.252 76.252 0 0 1 8.62 3.576c1.868.912 3.731 1.925 5.181 3.416 2.599 2.673 3.543 6.518 4.134 10.199 1.244 7.747 1.323 16.006-2.069 23.081-.653 1.363-1.427 2.664-2.2 3.963-2.721 4.572-5.496 9.214-9.407 12.821-5.555 5.124-12.861 7.662-20.079 9.408-6.599 1.595-13.213 2.497-17.027-4.578z" class="colorfed0b5 svgShape"></path><path fill="#021b79" d="M463.753 795.852s-2.492 14.625 14.018 16.644 29.86-2.789 29.86-2.789-.967 19.824 2.116 22.652c0 0 8.236-11.898 11.112-6.528 2.876 5.37-1.858 16.643-1.858 16.643s12.837-11.882 13.396-18.611c.558-6.729 2.622-21.166-4.311-28.679 0 0-5.801-25.572-28.037-17.412s-32.063 20.504-36.296 18.08z" class="color474756 svgShape"></path><path fill="#94c0ed" d="m311.342 1027.152 93.967-54.608c.172-.1.409-.088.677.067l-93.967 54.608c-.268-.155-.506-.167-.677-.067z" class="color94ed96 svgShape"></path><path fill="#e7eff7" d="m459.182 1005.255-93.967 54.608a.375.375 0 0 0 .036-.024l93.967-54.608a.225.225 0 0 1-.036.024z" class="colore7f1f7 svgShape"></path><path fill="#2950e2" d="m312.019 1027.218 93.967-54.607 51.745 29.875-93.967 54.608zM365.993 1058.417l93.967-54.608c-.267.155-.445.408-.446.805-.001.286-.085.498-.252.595l-93.967 54.608c.167-.097.251-.31.252-.595.001-.397.179-.65.446-.805z" class="colore22951 svgShape"></path><path fill="#2950e2" d="m364.602 1056.068 93.967-54.608c.544-.316 1.362-.455 2.573-.272 1.772.277 4.225 1.293 6.718 2.733l-93.967 54.608c-2.493-1.44-4.946-2.456-6.718-2.733-1.211-.183-2.029-.044-2.573.272z" class="colore22951 svgShape"></path><path fill="#2950e2" d="m373.892 1058.529 93.967-54.608c4.574 2.641 9.285 6.711 10.179 10.289l-93.967 54.608c-.894-3.578-5.605-7.648-10.179-10.289zM384.071 1068.818l93.967-54.608 52.713 30.581-93.967 54.608z" class="colore22951 svgShape"></path><path fill="#2950e2" d="M373.892 1058.529c4.574 2.641 9.285 6.711 10.179 10.289l52.712 30.581c.538.311.977 1.071.976 1.662-.002.619-.444.87-.982.559l-53.52-31.047c-.245-.141-.489-.394-.684-.733a1.921 1.921 0 0 1-.267-.942c.005-1.827-3.758-5.493-8.382-8.162-2.3-1.328-4.527-2.22-6.095-2.477-.857-.128-2.279-.161-2.282.964-.001.31-.099.534-.296.618-.172.127-.417.097-.686-.058l-52.553-30.341c-.538-.311-.953-1.056-.951-1.675.002-.59.419-.856.957-.546l51.746 29.875c.321-.913 1.23-1.627 3.41-1.298 1.772.275 4.225 1.291 6.718 2.731z" class="colore22951 svgShape"></path><path fill="#2950e2" d="m531.44 1047.079-93.967 54.608c.176-.102.285-.319.286-.626.002-.59-.437-1.351-.976-1.662l93.967-54.608c.538.311.977 1.071.976 1.662-.001.307-.11.524-.286.626z" class="colore22951 svgShape"></path><path fill="#e7eff7" d="m367.08 1054.015 98.804-57.419c-.319.186-.5.484-.502.919l-98.804 57.419c.002-.435.183-.734.502-.919z" class="colore7f1f7 svgShape"></path><path fill="#e7eff7" d="m316.005 1018.551 88.675-51.532c15.307 6.094 31.962 8.649 47.522 17.632 4.587 2.648 13.967 8.373 18.301 12.393l-88.675 51.532c-4.334-4.02-13.714-9.746-18.301-12.394-15.561-8.982-32.215-11.536-47.522-17.631zm210.447 18.792-88.677 51.527c-15.268-11.589-31.88-28.25-47.447-37.201-4.576-2.637-4.178-2.091-8.504-3.084L470.5 997.06c4.327.945 3.929.447 8.505 3.082 15.567 8.953 32.179 25.612 47.447 37.201z" class="colore7f1f7 svgShape"></path><path fill="#c5d1dd" d="m437.78 1088.858 88.674-51.532-.02 7.172-88.675 51.532z" class="colorc5d4dd svgShape"></path><path fill="#c5d1dd" d="M390.338 1051.663c15.545 8.973 32.167 25.633 47.442 37.195l-.02 7.172-50.594-29.211c.007-2.571-6.254-7.623-10.258-10.151-4.028-2.109-10.321-4.306-10.329-1.735l-50.594-29.211.02-7.172c15.307 6.094 31.962 8.649 47.522 17.632 4.586 2.648 13.967 8.373 18.301 12.394 4.33.983 3.93.443 8.51 3.087z" class="colorc5d4dd svgShape"></path><path fill="#dce6f1" d="m381.827 1048.578 88.675-51.532M381.827 1048.579c14.511-9.051 29.358-17.524 44.026-26.302 14.889-8.4 29.6-17.106 44.649-25.232-14.51 9.053-29.357 17.526-44.026 26.302-14.891 8.398-29.602 17.104-44.649 25.232z" class="colordce8f1 svgShape"></path><path fill="#e7eff7" d="m461.711 997.862-1.467 1.596c-3.278-3.018-10.481-7.59-15.657-10.611-8.411-4.831-17.339-7.548-25.966-10.179-5.004-1.51-10.18-3.062-15.14-5.046l2.348-1.387c4.831 1.94 8.22 2.808 13.439 4.405 8.713 2.633 17.771 5.349 26.398 10.354 1.898 1.079 11.646 6.814 16.045 10.868zm54.25 39.9-2.016 1.191c-4.874-3.73-9.947-8.106-14.92-12.332-8.654-7.363-17.656-14.971-26.161-19.845-2.984-1.79-3.282-1.841-5.172-2.239-.547-.048-1.094-.199-1.84-.347l2.437-1.69c1.989.396 2.586.595 5.67 2.336 8.654 5.025 17.755 12.684 26.459 20.144 5.172 4.424 10.769 9.1 15.543 12.782zm-61.697-35.601-1.467 1.596c-3.278-3.018-10.481-7.59-15.657-10.611-8.411-4.831-17.339-7.548-25.966-10.179-5.004-1.51-10.18-3.062-15.14-5.046l2.348-1.387c4.831 1.94 8.22 2.808 13.439 4.405 8.713 2.633 17.771 5.35 26.397 10.354 1.898 1.079 11.646 6.814 16.046 10.868zm54.249 39.899-2.016 1.191c-4.874-3.73-9.947-8.106-14.92-12.332-8.654-7.363-17.656-14.971-26.16-19.845-2.984-1.79-3.282-1.841-5.172-2.239-.547-.049-1.094-.199-1.84-.347l2.437-1.69c1.989.396 2.586.595 5.67 2.336 8.654 5.025 17.755 12.684 26.458 20.144 5.172 4.425 10.769 9.101 15.543 12.782zm-61.697-35.6-1.467 1.596c-3.278-3.018-10.481-7.59-15.657-10.611-8.411-4.831-17.339-7.548-25.966-10.179-5.004-1.51-10.18-3.062-15.14-5.046l2.348-1.387c4.831 1.94 8.22 2.808 13.439 4.405 8.713 2.633 17.771 5.349 26.397 10.354 1.898 1.078 11.646 6.813 16.046 10.868zm54.25 39.899-2.016 1.191c-4.874-3.73-9.947-8.106-14.92-12.332-8.654-7.363-17.656-14.971-26.16-19.845-2.984-1.79-3.282-1.841-5.172-2.239-.547-.049-1.094-.199-1.84-.347l2.437-1.69c1.989.396 2.586.595 5.67 2.336 8.654 5.024 17.755 12.684 26.458 20.144 5.172 4.424 10.768 9.1 15.543 12.782zm-61.698-35.601-1.467 1.596c-3.278-3.018-10.481-7.59-15.657-10.611-8.411-4.831-17.339-7.548-25.966-10.179-5.004-1.51-10.18-3.062-15.14-5.046l2.348-1.387c4.831 1.94 8.22 2.808 13.439 4.405 8.713 2.633 17.771 5.35 26.397 10.354 1.898 1.079 11.647 6.814 16.046 10.868zm54.25 39.9-2.016 1.191c-4.874-3.73-9.947-8.106-14.92-12.332-8.654-7.363-17.656-14.971-26.16-19.845-2.984-1.79-3.282-1.841-5.172-2.239-.547-.049-1.094-.199-1.84-.347l2.437-1.69c1.989.396 2.586.595 5.67 2.336 8.654 5.024 17.755 12.684 26.459 20.144 5.171 4.424 10.767 9.1 15.542 12.782zm-61.698-35.601-1.467 1.596c-3.278-3.018-10.481-7.591-15.657-10.611-8.411-4.832-17.339-7.548-25.966-10.179-5.004-1.51-10.18-3.062-15.14-5.046l2.348-1.387c4.831 1.94 8.22 2.808 13.439 4.405 8.713 2.633 17.771 5.35 26.398 10.354 1.897 1.079 11.646 6.814 16.045 10.868zm54.25 39.899-2.016 1.191c-4.874-3.73-9.947-8.106-14.92-12.332-8.654-7.363-17.656-14.971-26.16-19.845-2.984-1.79-3.282-1.841-5.172-2.239-.547-.049-1.094-.199-1.84-.347l2.437-1.69c1.989.396 2.586.595 5.67 2.336 8.654 5.024 17.755 12.684 26.458 20.144 5.172 4.424 10.769 9.101 15.543 12.782zm-61.697-35.601-1.467 1.596c-3.278-3.018-10.481-7.59-15.657-10.611-8.411-4.831-17.339-7.548-25.966-10.179-5.004-1.51-10.18-3.062-15.14-5.046l2.348-1.387c4.831 1.94 8.22 2.808 13.439 4.405 8.713 2.633 17.771 5.349 26.398 10.354 1.897 1.079 11.645 6.814 16.045 10.868zm54.249 39.9-2.016 1.191c-4.874-3.73-9.947-8.106-14.92-12.332-8.654-7.363-17.656-14.971-26.16-19.845-2.984-1.79-3.282-1.841-5.172-2.239-.547-.049-1.094-.199-1.84-.347l2.437-1.69c1.989.396 2.586.595 5.67 2.336 8.654 5.025 17.755 12.684 26.458 20.144 5.172 4.424 10.769 9.1 15.543 12.782zM417.025 1023.654l-1.467 1.596c-3.278-3.018-10.481-7.59-15.657-10.611-8.411-4.831-17.339-7.548-25.966-10.179-5.004-1.51-10.18-3.062-15.14-5.046l2.348-1.387c4.831 1.94 8.22 2.808 13.439 4.405 8.713 2.633 17.771 5.349 26.397 10.354 1.898 1.079 11.646 6.814 16.046 10.868zm54.25 39.899-2.016 1.191c-4.874-3.73-9.947-8.106-14.92-12.332-8.654-7.363-17.656-14.971-26.16-19.845-2.984-1.79-3.282-1.841-5.172-2.239-.547-.049-1.094-.199-1.84-.347l2.437-1.69c1.989.396 2.586.595 5.67 2.336 8.654 5.024 17.755 12.684 26.458 20.144 5.172 4.425 10.768 9.101 15.543 12.782zM409.577 1027.953l-1.467 1.596c-3.278-3.018-10.481-7.59-15.657-10.611-8.411-4.831-17.339-7.548-25.966-10.179-5.004-1.51-10.18-3.062-15.14-5.046l2.348-1.387c4.831 1.94 8.22 2.808 13.439 4.405 8.713 2.633 17.771 5.349 26.398 10.354 1.897 1.078 11.645 6.813 16.045 10.868zm54.25 39.899-2.016 1.191c-4.874-3.73-9.947-8.106-14.92-12.332-8.654-7.363-17.656-14.971-26.161-19.845-2.984-1.79-3.282-1.841-5.172-2.239-.547-.049-1.094-.199-1.84-.347l2.437-1.69c1.989.396 2.586.595 5.67 2.336 8.654 5.024 17.755 12.684 26.458 20.144 5.173 4.424 10.769 9.1 15.544 12.782zM402.129 1032.251l-1.467 1.597c-3.278-3.018-10.481-7.591-15.657-10.611-8.411-4.831-17.339-7.548-25.966-10.179-5.004-1.51-10.18-3.062-15.14-5.046l2.348-1.387c4.831 1.94 8.22 2.808 13.439 4.405 8.713 2.633 17.771 5.35 26.397 10.354 1.899 1.078 11.647 6.813 16.046 10.867zm54.25 39.9-2.016 1.191c-4.874-3.73-9.947-8.106-14.92-12.332-8.654-7.363-17.656-14.971-26.16-19.845-2.984-1.79-3.282-1.841-5.172-2.239-.547-.049-1.094-.199-1.84-.347l2.437-1.69c1.989.396 2.586.595 5.67 2.336 8.654 5.025 17.755 12.684 26.458 20.144 5.172 4.424 10.768 9.1 15.543 12.782zM394.681 1036.55l-1.467 1.596c-3.278-3.018-10.481-7.59-15.657-10.611-8.411-4.831-17.339-7.548-25.966-10.179-5.004-1.51-10.18-3.062-15.14-5.046l2.348-1.387c4.831 1.94 8.22 2.808 13.439 4.405 8.713 2.633 17.771 5.349 26.397 10.354 1.899 1.078 11.647 6.813 16.046 10.868zm54.25 39.899-2.016 1.191c-4.874-3.73-9.947-8.106-14.92-12.332-8.654-7.363-17.656-14.971-26.16-19.845-2.984-1.79-3.282-1.841-5.172-2.239-.547-.048-1.094-.199-1.84-.347l2.437-1.69c1.989.396 2.586.595 5.67 2.336 8.654 5.025 17.755 12.684 26.458 20.144 5.172 4.424 10.769 9.1 15.543 12.782zM387.234 1040.848l-1.467 1.596c-3.278-3.018-10.481-7.59-15.657-10.611-8.411-4.831-17.339-7.548-25.966-10.179-5.004-1.51-10.18-3.062-15.14-5.046l2.348-1.387c4.831 1.94 8.22 2.808 13.439 4.405 8.713 2.633 17.771 5.349 26.397 10.354 1.898 1.079 11.646 6.814 16.046 10.868zm54.249 39.9-2.016 1.191c-4.874-3.73-9.947-8.106-14.92-12.332-8.654-7.363-17.656-14.971-26.16-19.845-2.984-1.79-3.282-1.841-5.172-2.239-.547-.049-1.094-.199-1.84-.347l2.437-1.69c1.989.396 2.586.595 5.67 2.336 8.654 5.025 17.755 12.684 26.459 20.144 5.171 4.424 10.768 9.1 15.542 12.782z" class="colore7f1f7 svgShape"></path><path fill="#e7eff7" d="m329.494 1001.752 92.619-53.824c.034.017.596.32 1.592.895 6.693 3.864 33.009 20.05 50.782 45.042l-92.619 53.824c-17.773-24.992-44.089-41.178-50.782-45.042a60.737 60.737 0 0 0-1.592-.895zm197.466 6.719-92.62 53.826c-.038-.038-.583-.376-1.58-.96-6.698-3.857-33.037-18.061-50.891-13.64l92.62-53.826c17.854-4.421 44.193 9.783 50.891 13.64.997.584 1.543.922 1.58.96z" class="colore7f1f7 svgShape"></path><path fill="#dce6f1" d="m381.869 1047.698 92.62-53.827M381.869 1047.698c7.523-4.821 15.15-9.464 22.793-14.08 7.641-4.619 15.366-9.093 23.045-13.646 7.755-4.422 15.47-8.914 23.264-13.27l11.709-6.502c3.938-2.107 7.843-4.271 11.809-6.33-3.752 2.427-7.565 4.749-11.346 7.127l-11.446 6.955c-7.643 4.615-15.365 9.094-23.046 13.643-7.758 4.418-15.469 8.915-23.265 13.267-7.794 4.357-15.604 8.686-23.517 12.836z" class="colordce8f1 svgShape"></path><path fill="#c5d1dd" d="m434.345 1062.288 92.619-53.824-.041.767-92.619 53.825z" class="colorc5d4dd svgShape"></path><path fill="#cfdbe8" d="M432.752 1061.344c.998.576 1.559.922 1.593.943l-.041.768c-.034-.021-.599-.37-1.6-.948-6.716-3.878-33.097-18.106-50.838-13.464-17.656-25.077-44.03-41.308-50.748-45.187a65.8 65.8 0 0 0-1.6-.9l-.024-.805c.034.017.596.32 1.592.895 6.693 3.864 33.009 20.05 50.782 45.042 17.855-4.42 44.186 9.79 50.884 13.656z" class="colorcfdee8 svgShape"></path><path fill="#b5d9fe" d="m549.618 954.99-18.474 61.931s-22.253 13.646-19.314 16.795 13.226-2.519 13.226-2.519-15.745 24.143-5.878 26.242c9.867 2.099 24.143-1.05 27.712-17.425 3.569-16.375-.63-17.005 2.729-23.303 3.359-6.298 27.292-46.606 26.872-53.953-.421-7.349-19.526-18.055-26.873-7.768z" class="colorfed0b5 svgShape"></path><path fill="#75a3d1" d="M548.26 866.541s-11.243 7.998-11.243 21.611 14.007 61.355 14.007 61.355l-4.083 14.458s26.018 9.942 28.977 3.235c2.959-6.708 4.896-11.379 3.91-20.06-.986-8.68-11.64-63.525-18.15-70.233-4.311-10.959-13.418-10.366-13.418-10.366z" class="color75d178 svgShape"></path><path fill="#2950e2" d="m1417.597 1333.44-.068 31.286v3.869l-.34 108.724c0-12.148-8.008-24.365-24.025-33.594-31.83-18.392-83.477-18.392-115.103 0-14.659 8.483-22.464 19.409-23.482 30.54v.068l-.068.204c-.068.746-.068 1.493-.068 2.239l.407-143.811c.068-12.013 7.873-23.957 23.618-33.12 31.626-18.392 83.273-18.324 115.103 0 16.018 9.298 24.026 21.447 24.026 33.595z" class="colore22951 svgShape"></path><path fill="#98bde2" d="M1417.529 1368.391V1368.595l-.34 108.724c0-12.148-8.008-24.365-24.025-33.594-31.83-18.392-83.477-18.392-115.103 0-14.659 8.483-22.464 19.409-23.482 30.54l.271-103.905c.068-12.013 7.873-23.957 23.618-33.119 31.626-18.326 83.273-18.326 115.103 0 14.932 8.686 22.94 19.749 23.958 31.15z" class="colore2af98 svgShape"></path><path fill="#2950e2" d="m1422.661 1333.47-.408 143.84c-.036 12.745-8.397 25.47-25.099 35.177-33.579 19.514-88.474 19.54-122.315.001-17.024-9.829-25.518-22.76-25.482-35.669l.408-143.84c-.037 12.909 8.458 25.84 25.482 35.669 33.842 19.538 88.737 19.513 122.315-.001 16.702-9.706 25.063-22.432 25.099-35.177z" class="colore22951 svgShape"></path><path fill="#5477fd" d="M1397.163 1297.798c33.842 19.538 34.021 51.31.399 70.849-33.579 19.514-88.474 19.54-122.315.001-33.842-19.538-33.976-51.336-.398-70.85 33.621-19.538 88.472-19.538 122.314 0zm-115.413 67.071c30.246 17.462 79.302 17.462 109.31.023 30.049-17.462 29.888-45.877-.357-63.339-30.246-17.462-79.301-17.463-109.35 0-30.009 17.438-29.849 45.853.397 63.316" class="colorfd546b svgShape"></path><path fill="#e7eff7" d="m1434.88 1484.132-15.167 8.814c-7.326 4.257-17.463 3.67-28.63-2.777l15.167-8.814c11.167 6.447 21.304 7.034 28.63 2.777z" class="colore7f1f7 svgShape"></path><path fill="#e7eff7" d="m1440.286 1493.434-15.167 8.814c8.599-4.997 13.936-15.614 13.979-30.693.086-30.353-21.312-67.417-47.727-82.667l15.167-8.814c26.415 15.25 47.813 52.314 47.727 82.667-.043 15.08-5.38 25.696-13.979 30.693z" class="colore7f1f7 svgShape"></path><path fill="#cfdbe8" d="M1391.37 1388.889c26.415 15.251 47.813 52.314 47.727 82.667-.086 30.352-21.624 42.626-48.039 27.376l.025-8.763c22.19 12.811 40.317 2.482 40.389-23.016.072-25.498-17.937-56.691-40.126-69.502l.024-8.762z" class="colorcfdee8 svgShape"></path><path fill="#616573" d="m1560.978 887.32-149.78-86.479c-12.995-7.503-23.579-1.54-23.646 13.263l-1.072 383.492c-.067 14.938 10.517 33.156 23.512 40.659l149.78 86.479c12.794 7.434 23.378 1.406 23.445-13.531l1.072-383.492c.067-14.804-10.45-32.957-23.311-40.391zm14.603 419.461c-.067 10.048-7.234 14.133-16.009 9.044l-149.713-86.411c-8.574-4.958-15.741-17.352-15.741-27.399l1.139-383.492c0-9.979 7.1-13.999 15.808-8.975l21.837 12.593c1.675.939 2.947 3.15 3.282 5.292 1.407 7.235 6.431 14.938 12.46 18.421l74.622 43.073c6.029 3.483 11.12 1.606 12.526-4.02.402-1.675 1.675-2.411 3.349-1.472l21.837 12.658c8.641 4.958 15.675 17.149 15.675 27.197l-1.072 383.491z" class="color616173 svgShape"></path><path fill="#616573" d="m1560.996 887.313-149.78-86.479c-12.995-7.5-23.579-1.54-23.646 13.263l-1.072 383.492c-.067 14.938 10.517 33.159 23.512 40.662l149.78 86.476c12.794 7.438 23.378 1.41 23.445-13.531l1.072-383.492c.067-14.804-10.45-32.957-23.311-40.391zm14.603 419.464c-.067 10.048-7.235 14.133-16.01 9.044l-149.713-86.414c-8.574-4.955-15.741-17.348-15.741-27.396l1.139-383.492c0-9.982 7.1-13.999 15.809-8.975l21.837 12.593c1.675.939 2.947 3.146 3.283 5.292 1.406 7.235 6.43 14.938 12.459 18.421l74.622 43.07c6.028 3.487 11.119 1.609 12.526-4.017.402-1.675 1.675-2.414 3.349-1.475l21.837 12.661c8.641 4.955 15.674 17.149 15.674 27.197l-1.071 383.491z" class="color616173 svgShape"></path><path fill="#b0d7ff" d="m1576.671 923.285-1.072 383.492c-.067 10.048-7.235 14.133-16.01 9.044l-149.713-86.414c-8.574-4.955-15.741-17.348-15.741-27.396l1.139-383.492c0-9.982 7.1-13.999 15.809-8.975l21.837 12.593c1.675.939 2.947 3.146 3.283 5.292 1.406 7.235 6.43 14.938 12.459 18.421l74.622 43.07c6.028 3.487 11.119 1.609 12.526-4.017.402-1.675 1.675-2.414 3.349-1.475l21.837 12.661c8.641 4.954 15.675 17.148 15.675 27.196z" class="colorb0e3ff svgShape"></path><path fill="#85c1fd" d="M1519.01 1263.605c3.998 0 6.911-3.158 6.923-7.509l.068-23.981c.012-4.138-2.589-8.648-6.184-10.723l-71.537-41.302c-1.339-.773-2.72-1.165-4.106-1.165-4 0-6.911 3.15-6.923 7.488l-.066 23.982c-.012 4.151 2.588 8.669 6.182 10.744l71.54 41.302c1.338.773 2.717 1.164 4.103 1.164z" class="color85cdfd svgShape"></path><path fill="#4c505e" d="M1501.687 861.647c1.497.864 2.733 2.956 2.728 4.726-.003.885-.304 1.499-.819 1.792-.472.318-1.2.242-1.927-.178l-31.349-18.099c-1.54-.889-2.733-3.004-2.728-4.775.003-.885.304-1.499.776-1.766.515-.296 1.2-.245 1.97.2l31.349 18.1zm9.152 5.284c1.497.864 2.733 3.007 2.729 4.727-.005 1.77-1.25 2.478-2.746 1.614-1.54-.889-2.776-3.029-2.771-4.799.005-1.721 1.249-2.431 2.788-1.542zM1519.308 871.82c1.539.889 2.776 3.031 2.771 4.751-.005 1.77-1.249 2.478-2.789 1.589-1.497-.864-2.733-3.004-2.728-4.775.004-1.719 1.249-2.429 2.746-1.565z" class="color4c4c5e svgShape"></path><path fill="#4c505e" d="m1612.624 911.232-1.072 383.492c0 7.434-2.679 12.661-6.899 15.137l-28.335 16.478c4.22-2.476 6.899-7.703 6.899-15.137l1.072-383.492c.067-14.804-10.45-32.956-23.311-40.391l-149.78-86.479c-6.565-3.751-12.526-4.154-16.814-1.609l28.335-16.478c4.287-2.479 10.249-2.142 16.813 1.609l149.78 86.476c12.862 7.438 23.379 25.591 23.312 40.394z" class="color4c4c5e svgShape"></path><path fill="#85c1fd" d="m1409.418 1127.828.726-256.024 155.307 89.666-.726 256.025z" class="color85cdfd svgShape"></path><path fill="#ffffff" d="m1401.448 1114.739.726-256.025 155.306 89.666-.726 256.025z" class="colorffffff svgShape"></path><path fill="#c5d1dd" d="M1413.191 1105.168v-4.454l132.545 76.526v4.452zM1413.191 1041.403l65.014 37.538-.012 4.433-65.002-37.53zM1413.191 1056.226l40.789 23.55-.013 4.445-40.776-23.543zM1413.191 1085.892l33.992 19.627-.013 4.433-33.979-19.618zM1501.32 1111.559l.013-4.444-43.154-24.915-.012 4.445zM1413.191 1071.06l110.938 64.05-.012 4.445-110.926-64.043zM1545.736 1152.036l-18.092-10.445.013-4.445 18.079 10.438zM1545.736 1137.202l-39.544-22.83.013-4.445 39.531 22.823zM1527.105 1156.103l.013-4.434-74.898-43.243-.012 4.434zM1519.67 1107.32l.013-4.433-30.897-17.838-.012 4.433z" class="colorc5d4dd svgShape"></path><g fill="#c5d1dd" class="colorc5d4dd svgShape"><path d="M1413.191 1022.396v-4.455l132.545 76.526v4.453zM1413.191 958.631l65.014 37.537-.012 4.433-65.002-37.53zM1413.191 973.453l40.789 23.55-.013 4.445-40.776-23.543zM1413.191 1003.119l33.992 19.627-.013 4.434-33.979-19.618zM1501.32 1028.787l.013-4.445-43.154-24.915-.012 4.445zM1413.191 988.287l110.938 64.05-.012 4.445-110.926-64.043zM1545.736 1069.264l-18.092-10.446.013-4.445 18.079 10.439zM1545.736 1054.43l-39.544-22.831.013-4.444 39.531 22.823zM1527.105 1073.33l.013-4.434-74.898-43.242-.012 4.434zM1519.67 1024.548l.013-4.434-30.897-17.838-.012 4.434z" fill="#000000" class="color000000 svgShape"></path></g><g fill="#c5d1dd" class="colorc5d4dd svgShape"><path d="M1413.191 939.623v-4.454l132.545 76.526v4.452zM1413.191 875.858l65.014 37.537-.012 4.433-65.002-37.53zM1413.191 890.68l40.789 23.551-.013 4.444-40.776-23.542zM1413.191 920.346l33.992 19.628-.013 4.433-33.979-19.618zM1501.32 946.014l.013-4.445-43.154-24.915-.012 4.445zM1413.191 905.515l110.938 64.049-.012 4.445-110.926-64.042zM1545.736 986.491l-18.092-10.446.013-4.445 18.079 10.439zM1545.736 971.657l-39.544-22.83.013-4.445 39.531 22.823zM1527.105 990.557l.013-4.434-74.898-43.242-.012 4.434zM1519.67 941.775l.013-4.433-30.897-17.838-.012 4.433z" fill="#000000" class="color000000 svgShape"></path></g><path fill="#66abf1" d="M1432.797 1190.53c.701-.409 1.665-.351 2.716.262l71.535 41.303c2.074 1.198 3.768 4.148 3.768 6.542l-.059 23.981c0 1.198-.438 2.045-1.11 2.425l10.282-5.959c.672-.408 1.11-1.255 1.11-2.453l.058-23.981c.029-2.395-1.665-5.346-3.768-6.544l-71.535-41.302c-1.052-.613-2.016-.672-2.687-.262l-10.31 5.988z" class="colorbf66f1 svgShape"></path><path fill="#85b2df" d="M1435.502 1190.791c-2.089-1.206-3.792-.236-3.798 2.164l-.068 23.981c-.007 2.422 1.685 5.351 3.774 6.557l71.54 41.304c2.089 1.206 3.791.236 3.798-2.186l.068-23.981c.007-2.4-1.685-5.329-3.773-6.535l-71.541-41.304z" class="colordf85de svgShape"></path><path fill="#ffffff" d="M1457.204 1213.681c.566 1.338.838 2.685.834 4.051-.004 1.366-.283 2.375-.854 3.057-.572.701-1.384 1.006-2.436.934-1.053-.072-2.294-.531-3.707-1.347l-3.239-1.87-.015 5.108-3.722-2.149.052-18.493 6.961 4.019a15.183 15.183 0 0 1 3.702 2.971c1.051 1.141 1.858 2.381 2.424 3.719zm-3.808 3.732c.587-.216.865-.829.868-1.859a5.151 5.151 0 0 0-.855-2.893c-.584-.892-1.428-1.657-2.548-2.304l-3.033-1.751-.018 6.415 3.033 1.751c1.121.646 1.966.857 2.553.641m14.713 3.496-.011 3.802a16.49 16.49 0 0 0-.81-.527c-1.017-.587-1.828-.718-2.415-.403-.57.325-.866 1.146-.87 2.473l-.019 6.712-3.584-2.069.04-14.216 3.412 1.97-.005 1.881c.433-.444 1.02-.621 1.745-.559.724.08 1.569.389 2.517.936zM1470.204 1236.557l.041-14.217 3.584 2.07-.041 14.216zM1472.042 1221.395a4.495 4.495 0 0 1-1.601-1.578c-.412-.674-.618-1.348-.616-2.002.002-.633.21-1.068.625-1.266.415-.197.95-.126 1.604.252s1.188.904 1.601 1.559c.412.674.618 1.308.616 1.942-.002.693-.21 1.148-.625 1.345-.414.217-.949.126-1.604-.252zm12.625 9.074c1.534.885 2.773 2.116 3.717 3.733.927 1.587 1.406 3.429 1.4 5.509l-.023 8.138-3.584-2.069.021-7.504c.003-1.128-.219-2.09-.648-2.893a4.705 4.705 0 0 0-1.859-1.906c-.896-.517-1.621-.618-2.156-.293-.536.345-.814 1.136-.818 2.404l-.02 7.029-3.584-2.069.04-14.216 3.429 1.98-.005 1.663c.484-.315 1.071-.433 1.779-.361.708.089 1.484.378 2.311.855zm12.398 4.223-.01 3.445 3.084 1.781-.009 3.168-3.084-1.781-.016 5.781a3.262 3.262 0 0 0 .392 1.615c.275.496.653.873 1.136 1.151.569.328 1.052.429 1.449.301l.957 3.468c-.345.098-.777.087-1.294-.073-.517-.14-1.052-.389-1.62-.717-1.465-.846-2.601-1.918-3.408-3.257-.807-1.319-1.2-2.815-1.195-4.498l.016-5.841-1.913-1.104.009-3.168 1.913 1.104.01-3.445 3.583 2.07zM1036.248 449.07c-32.794 8.759-103.106-10.591-128.074-25.007l-114.367-66.03 42.242-24.548 200.199 115.585z" class="colorffffff svgShape"></path><path fill="#cfdbe8" d="m1236.503 564.688-.902 318.059-42.242 24.549.902-318.06z" class="colorcfdee8 svgShape"></path><path fill="#ffffff" d="m1236.503 564.688-42.242 24.548-114.424-66.063c-24.968-14.415-58.605-55.08-43.589-74.103l200.255 115.618z" class="colorffffff svgShape"></path><path fill="#e7eff7" d="m1194.271 589.198-.888 318.086-114.481-66.066c-20.662-11.972-47.354-41.944-47.266-62.698l.887-317.995c0 20.753 26.603 50.725 47.353 62.607l114.395 66.066z" class="colore7f1f7 svgShape"></path><path fill="#e7eff7" d="m1036.248 449.085-.888 318.086c-32.81 8.69-103.13-10.639-128.049-25.005L792.918 676.1l.885-318.086 114.395 66.066c24.919 14.367 95.24 33.786 128.05 25.005z" class="colore7f1f7 svgShape"></path><g fill="#cfdbe8" class="colorcfdee8 svgShape"><path d="m847.992 423.186-43.482-25.111v4.703l43.482 25.11zM881.945 442.795l-24.312-14.04v4.703l24.312 14.04zM906.734 457.112l-10.539-6.087v4.706l13.431 7.755c12.134 6.997 37.415 15.996 63.681 21.577h.434v.089c14.47 3.052 29.213 5.072 42.213 5.106v-5.555c-34.712-.077-87.143-14.861-109.22-27.591zm191.92 110.743-20.234-11.685c-12.178-6.974-27.224-20.636-37.371-35.42 8.568 15.959 25.437 35.64 40.172 44.176l17.434 10.061v-7.132zM1107.037 572.695v7.129l75.852 43.776v-7.095zM906.734 483.23l-11.377-6.571v4.703l14.269 8.241c11.033 6.362 32.943 14.377 56.57 19.978v-5.464c-23.771-5.494-46.695-13.524-59.462-20.887zM889.07 473.029l-84.56-48.836v4.702l84.56 48.837zM973.742 505.768v5.501c14.47 3.052 29.213 5.075 42.213 5.106v-5.555c-12.518-.026-27.341-1.985-42.213-5.052zm209.147 136.856-104.469-60.336c-12.178-6.974-27.224-20.636-37.371-35.42 8.568 15.959 25.437 35.64 40.172 44.176l101.669 58.674v-7.094zM844.639 473.489l-40.129-23.176v4.703l40.129 23.176zM906.734 509.35l-54.55-31.504v4.703l57.442 33.174c18.883 10.887 69.593 26.678 106.328 26.772v-5.555c-34.712-.077-87.143-14.86-109.22-27.59zm176.411 101.786-4.725-2.729c-12.178-6.974-27.224-20.636-37.371-35.42 8.568 15.959 25.437 35.64 40.172 44.176l1.925 1.11v-7.137zM1140.57 644.302l-49.462-28.566v7.134l49.462 28.543zM1151.888 650.838v7.109l31.001 17.89v-7.094zM893.263 527.689l-88.753-51.256v4.703l88.753 51.253zM911.705 538.108v4.849c20.254 10.819 68.738 25.568 104.25 25.66v-5.555c-32.337-.076-80.023-12.908-104.25-24.954zm166.715 96.419c-9.516-5.45-20.754-15.004-30.066-25.963v2.214c6.554 9.308 14.871 18.646 23.224 25.602h1.089v.93c2.879 2.323 5.754 4.351 8.555 5.973l79.89 46.104v-7.106l-82.692-47.754zM852.184 530.084 804.51 502.55v4.703l47.674 27.533zM906.734 561.588l-45.329-26.177v4.703l48.221 27.848c5.409 3.121 13.482 6.637 23.037 10.078v-5.206c-10.416-3.649-19.486-7.531-25.929-11.246zM944.4 576.66v5.309c22.26 6.945 49.425 12.707 71.555 12.764v-5.555c-20.932-.046-48.278-5.452-71.555-12.518zm117.786 72.067c-7.682-6.742-15.24-14.909-21.137-23.503 4.942 9.208 12.674 19.598 21.137 28.429v-4.926zm16.234 11.917c-1.857-1.061-3.792-2.326-5.754-3.682v6.376c2.88 2.323 5.757 4.443 8.555 6.062l101.669 58.674v-7.094l-104.47-60.336zM831.225 544.101 804.51 528.67v4.703l26.715 15.43zM886.556 576.054l-48.204-27.84v4.703l48.204 27.839zM982.545 611.92c-29.101-5.106-60.118-15.164-75.81-24.212l-10.539-6.087v4.703l13.431 7.758c13.555 7.815 43.505 18.128 72.918 23.377v-5.539zM1096.977 697.483v7.132l85.912 49.58v-7.094zM1091.528 694.334l-13.109-7.569c-12.178-6.974-27.224-20.636-37.371-35.42 8.568 15.959 25.437 35.64 40.172 44.176l10.308 5.947v-7.134zM847.573 579.658l-43.063-24.867v4.703l43.063 24.87zM906.734 613.828l-50.779-29.327v4.703l53.671 30.998c18.883 10.887 69.593 26.678 106.328 26.772v-5.555c-34.712-.078-87.143-14.862-109.22-27.591zm207.01 119.456-35.324-20.399c-12.178-6.974-27.224-20.636-37.371-35.42 8.568 15.959 25.437 35.64 40.172 44.176l32.524 18.768v-7.125zM1121.288 737.643v7.12l61.601 35.552v-7.094zM891.166 630.954l-86.656-50.046v4.703l86.656 50.046zM906.734 639.945l-8.862-5.118v4.703l11.754 6.788c13.426 7.741 42.938 17.933 72.079 23.228v-5.532c-28.855-5.149-59.429-15.107-74.971-24.069zm175.991 101.546-4.305-2.489c-12.178-6.974-27.224-20.636-37.371-35.42 8.568 15.959 25.437 35.64 40.172 44.176l1.505.87v-7.137zM1091.108 746.331v7.134l91.781 52.967v-7.094zM839.19 627.055l-34.68-20.027v4.703l34.68 20.03zM895.777 659.738l-50.719-29.293v4.703l50.719 29.292zM906.734 666.065l-5.927-3.424v4.703l8.819 5.095c6.484 3.739 16.769 8.05 28.905 12.112v-5.261c-12.885-4.197-24.172-8.828-31.797-13.225zm36.828 14.818v5.304c22.411 7.063 49.986 12.967 72.393 13.024v-5.555c-21.182-.049-48.939-5.581-72.393-12.773zm188.625 115.291-53.767-31.052c-12.178-6.974-27.224-20.636-37.371-35.42 8.568 15.959 25.437 35.64 40.172 44.176l50.967 29.413v-7.117zM1138.474 799.807v7.115l44.415 25.631v-7.095zM929.31 702.238c-9.007-3.295-16.832-6.742-22.576-10.052L804.51 633.148v4.703l105.117 60.708c4.771 2.749 11.586 5.816 19.684 8.859v-5.18zm49.043 13.384c-14.393-2.743-29.044-6.599-41.916-10.899v5.244c12.487 4.285 27.167 8.304 41.916 11.171v-5.516zm116.109 84.886-16.042-9.266c-12.178-6.974-27.224-20.636-37.371-35.42 8.568 15.959 25.437 35.64 40.172 44.176l13.242 7.641v-7.131zM1100.33 803.895v7.131l82.559 47.647v-7.095zM859.729 691.156l-55.219-31.89v4.703l55.219 31.89zM906.734 718.303l-34.85-20.127v4.703l37.742 21.798c13.748 7.927 44.362 18.428 74.176 23.603v-5.547c-29.461-5.032-61.148-15.251-77.068-24.43zm161.32 92.005c-9.6-7.432-19.604-17.584-27.006-28.369 6.069 11.305 16.315 24.41 27.006 34.164v-5.795zm10.366 7.052a80.207 80.207 0 0 1-4.497-2.801v6.502c2.458 1.908 4.907 3.67 7.297 5.055l44.26 25.545v-7.12l-47.06-27.181zM1133.445 849.141v7.115l49.444 28.534v-7.094z" fill="#000000" class="color000000 svgShape"></path></g></svg>