<svg xmlns="http://www.w3.org/2000/svg" enable-background="new 0 0 3000 3000" viewBox="0 0 3000 3000" id="Donatingmoneybyonlinepayments"><g fill="#000000" class="color000000 svgShape"><ellipse cx="1568.2" cy="2698.2" fill="#ededed" rx="1372.2" ry="134.2" class="colorededed svgShape"></ellipse><g fill="#000000" class="color000000 svgShape"><g fill="#000000" class="color000000 svgShape"><g fill="#000000" class="color000000 svgShape"><g fill="#000000" class="color000000 svgShape"><path fill="#323336" d="M26.6,432.5l342.7,2216.4c12.7,82.1,96.7,139.7,176.3,117l526.4-156.6c66.7-19.1,108.7-85,98.1-153.8
						L846.3,360.7c-10.8-70.2-74.1-124.7-144.8-120.9l-545.5,29.5C74.8,273.7,14.2,351.8,26.6,432.5z" class="color363233 svgShape"></path><path fill="#58595e" d="M102.5,423.9l341.4,2208.5c12.6,81.8,94.2,134,173.8,111.3l529-151.2c66.7-19.1,108.8-84.8,98.2-153.3
						L922.1,351.9c-10.8-69.9-72.9-120.2-143.5-116.4l-547.7,29.9C149.7,269.9,90,343.5,102.5,423.9z" class="color585a5e svgShape"></path><path fill="#ededed" d="M1140.2,2570l-529,151.2c-4.7,1.3-9.4,2.3-14.2,3.1c-62.1,9.6-120.4-33.2-130-95.4l-39.1-253l-104.3-674.2
						l-12.1-78.1l-29.4-190.3l-36.8-238.6L125.6,420.3c-9.6-62.2,33.1-120.6,95.2-130.2c3.7-0.6,7.5-1,11.4-1.2L779.9,259
						c58.9-3.2,110.1,38.3,119.1,96.6l129.8,839.2l15.2,98.7l7.1,45.8l14.5,94.1l29.4,190.3l6.2,40.2l110.1,712.1l10.3,67
						C1230.4,2499.6,1195.4,2554.2,1140.2,2570z" class="colorededed svgShape"></path></g><path fill="#58595e" d="M141.8,941.6L141.8,941.6c-11.3,1.7-21.8-6-23.6-17.3L92.5,758.3c-1.7-11.3,6-21.8,17.3-23.6l0,0
					c11.3-1.7,21.8,6,23.6,17.3L159.1,918C160.8,929.3,153.1,939.9,141.8,941.6z" class="color585a5e svgShape"></path></g><g fill="#000000" class="color000000 svgShape"><path fill="#323336" d="M536.9,328.8c3.8,24.8-7.8,47.1-26,49.9c-18.2,2.8-36.1-15-39.9-39.7c-3.8-24.8,7.8-47.1,26-49.9
					C515.2,286.3,533.1,304,536.9,328.8z" class="color363233 svgShape"></path><path fill="#58595e" d="M522.5,331c2.2,14-4.4,26.5-14.7,28.1c-10.3,1.6-20.3-8.4-22.5-22.4c-2.2-14,4.4-26.5,14.7-28.1
					C510.3,307,520.3,317.1,522.5,331z" class="color585a5e svgShape"></path></g></g><g fill="#000000" class="color000000 svgShape"><g fill="#000000" class="color000000 svgShape"><polygon fill="#3f8bd7" points="1647.7 1194.7 1606.4 1417.2 1565.2 1498.2 1544.5 1538.7 1443.5 1567.2 1443.4 1567.2 1243.7 1623.6 1101.2 1663.7 1097.3 1664.9 333.6 1708.4 323.7 1701.6 311.6 1623.6 282.2 1433.2 245.3 1194.7" class="color3f98d7 svgShape"></polygon><path fill="#589add" d="M1647.7,2061.6l-82.6,314.2c-303.5-289.4-363.2-598.7,0-942.6l82.6-238.5V2061.6z" class="color58abdd svgShape"></path><polygon fill="#3f8bd7" points="1565.2 1433.2 1565.2 2375.8 427.9 2375.8 323.7 1701.6 311.6 1623.6 282.2 1433.2" class="color3f98d7 svgShape"></polygon><polygon fill="#0575e6" points="1565.2 1433.2 1565.2 1623.6 311.6 1623.6 282.2 1433.2" class="color2a84b5 svgShape"></polygon></g><path fill="#58595e" d="M1293.4,1316.3c0,6.3-2.6,12.1-6.7,16.2c-4.2,4.2-9.9,6.7-16.2,6.7H538.8c-12.7,0-22.9-10.3-22.9-22.9
				c0-6.3,2.6-12.1,6.7-16.2c4.2-4.2,9.9-6.7,16.2-6.7h731.6C1283.1,1293.3,1293.4,1303.6,1293.4,1316.3z" class="color585a5e svgShape"></path></g></g><g fill="#000000" class="color000000 svgShape"><g fill="#000000" class="color000000 svgShape"><g fill="#000000" class="color000000 svgShape"><rect width="107" height="105.2" x="1865.6" y="2481.5" fill="#b3d8fd" transform="rotate(-90 1919.102 2534.049)" class="colorfdbab3 svgShape"></rect></g><g fill="#000000" class="color000000 svgShape"><path fill="#021b79" d="M1634.1,2659.5c0,0-13.8,73.3,137.9,58.8c14.9-1.4,29.5-4.2,43.9-8.3c20.6-5.8,54.5-12.9,78.4-15l1,24.6
					l90.5-5c9.6-0.9,16.9-9.2,16.4-18.8l-4.6-55c0,0-152.1,4.5-154.7,5.6c-2.6,1.1-131.7,28.9-131.7,28.9L1634.1,2659.5z" class="color2a2a2c svgShape"></path><path fill="#414143" d="M1708.2,2707.9l5,0.3c15.5,0.7,34,0.2,56-1.9c14.8-1.4,29.5-4.2,43.9-8.2c20.6-5.7,54.6-14.5,78.5-16.5
					c0,0,18-0.4,39.3-1.5c1.6-0.1,3-0.2,4.6-0.3c3.6-0.2,7.3-0.4,11-0.6c1.6-0.1,3.1-0.2,4.7-0.3c2.9-0.2,5.6-0.4,8.4-0.6
					c1.6-0.2,3.1-0.3,4.7-0.5c19.4-1.7,35.2-4.3,35-7.9c1.4-14.4,1.8-28.8,1.1-43.2c-0.7-17.2-3-34.2-7-51.3
					c-2.6-11.3-13.3-19-24.9-17.6l-82.5,9.5c-6.4,0.7-12.5-1.5-17-5.8c-0.5-0.5-0.9-1-1.4-1.6l-0.3-0.3l-1.2-1.5l-0.1-0.2l-0.2-0.2
					l-2.9-3.5l-0.1-0.1l-2.9-3.5l-0.2-0.3c-3.8-4.5-10.7-4.5-14.4-0.1c-16,18.3-33.1,34.9-51.4,49.7c-23.5,19.1-51.5,32-81.1,37.2
					c-1.7,0.3-3.4,0.5-5.2,0.8c-6.4,0.9-13,1.6-19.6,1.7c-54.5,1.7-53.7,19.6-53.7,19.6S1622.4,2702.6,1708.2,2707.9z" class="color414143 svgShape"></path></g><g fill="#000000" class="color000000 svgShape"><g fill="#000000" class="color000000 svgShape"><path fill="#c6c9cd" d="M1871.4,2568.5c0.2,2.7-1.8,5-4.5,5.2c-2.7,0.2-5.1-1.8-5.3-4.5c-0.2-2.7,1.8-5,4.5-5.2
						C1868.8,2563.8,1871.2,2565.8,1871.4,2568.5z" class="colorc6c7cd svgShape"></path><g fill="#000000" class="color000000 svgShape"><path fill="#021b79" d="M1866.7,2571.3c-0.7,0.1-1.3-0.2-1.9-0.7l-19.8-19.4c-1-0.9-1-2.4-0.1-3.4c0.9-0.9,2.4-1,3.4-0.1
							l19.8,19.4c1,0.9,1,2.4,0.1,3.4C1867.8,2571,1867.3,2571.2,1866.7,2571.3z" class="color2a2a2c svgShape"></path></g></g><g fill="#000000" class="color000000 svgShape"><path fill="#c6c9cd" d="M1859.6,2577.8c0.2,2.7-1.8,5-4.5,5.2c-2.7,0.2-5.1-1.8-5.3-4.5c-0.2-2.7,1.8-5,4.5-5.2
						C1857,2573.1,1859.4,2575.1,1859.6,2577.8z" class="colorc6c7cd svgShape"></path><g fill="#000000" class="color000000 svgShape"><path fill="#021b79" d="M1854.9,2580.6c-0.7,0.1-1.3-0.2-1.9-0.7l-18.4-18.3c-1-0.9-1-2.4-0.1-3.4c0.9-0.9,2.4-1,3.4-0.1
							l18.4,18.3c1,0.9,1,2.4,0.1,3.4C1856,2580.3,1855.4,2580.5,1854.9,2580.6z" class="color2a2a2c svgShape"></path></g></g><g fill="#000000" class="color000000 svgShape"><path fill="#c6c9cd" d="M1847.8,2587.8c0.2,2.7-1.8,5-4.5,5.2c-2.7,0.2-5.1-1.8-5.3-4.5c-0.2-2.7,1.8-5,4.5-5.2
						C1845.2,2583.1,1847.5,2585.1,1847.8,2587.8z" class="colorc6c7cd svgShape"></path><g fill="#000000" class="color000000 svgShape"><path fill="#021b79" d="M1843,2590.5c-0.7,0.1-1.3-0.2-1.9-0.7l-17.6-17.7c-1-0.9-1-2.4-0.1-3.4c0.9-0.9,2.4-1,3.4-0.1
							l17.6,17.7c1,0.9,1,2.4,0.1,3.4C1844.2,2590.3,1843.6,2590.5,1843,2590.5z" class="color2a2a2c svgShape"></path></g></g></g><g fill="#000000" class="color000000 svgShape"><g fill="#000000" class="color000000 svgShape"><path fill="#c6c9cd" d="M1836.7,2597.9c0.1,2.7-2,4.9-4.7,5c-2.7,0.1-5-2-5.1-4.7c-0.1-2.7,2-4.9,4.7-5
						C1834.4,2593.1,1836.6,2595.2,1836.7,2597.9z" class="colorc6c7cd svgShape"></path><g fill="#000000" class="color000000 svgShape"><path fill="#021b79" d="M1831.9,2600.5c-0.7,0-1.3-0.2-1.8-0.7l-16.5-17.6c-0.9-1-0.9-2.5,0.1-3.4c1-0.9,2.5-0.9,3.4,0.1
							l16.5,17.6c0.9,1,0.9,2.5-0.1,3.4C1833,2600.2,1832.5,2600.4,1831.9,2600.5z" class="color2a2a2c svgShape"></path></g></g><g fill="#000000" class="color000000 svgShape"><path fill="#c6c9cd" d="M1824.5,2606.7c0.1,2.7-2,4.9-4.7,5c-2.7,0.1-5-2-5.1-4.7c-0.1-2.7,2-4.9,4.7-5S1824.4,2604,1824.5,2606.7
						z" class="colorc6c7cd svgShape"></path><g fill="#000000" class="color000000 svgShape"><path fill="#021b79" d="M1819.7,2609.2c-0.7,0-1.3-0.2-1.8-0.7l-15.9-16.9c-0.9-1-0.9-2.5,0.1-3.4c1-0.9,2.5-0.9,3.4,0.1
							l15.9,16.9c0.9,1,0.9,2.5-0.1,3.4C1820.8,2609,1820.2,2609.2,1819.7,2609.2z" class="color2a2a2c svgShape"></path></g></g><g fill="#000000" class="color000000 svgShape"><path fill="#c6c9cd" d="M1812.2,2616.1c0.1,2.7-2,4.9-4.7,5c-2.7,0.1-5-2-5.1-4.7s2-4.9,4.7-5
						C1809.9,2611.3,1812.1,2613.4,1812.2,2616.1z" class="colorc6c7cd svgShape"></path><g fill="#000000" class="color000000 svgShape"><path fill="#021b79" d="M1807.4,2618.7c-0.7,0-1.3-0.2-1.8-0.7l-15.3-15.8c-0.9-1-0.9-2.5,0.1-3.4c1-0.9,2.5-0.9,3.4,0.1
							l15.3,15.8c0.9,1,0.9,2.5-0.1,3.4C1808.5,2618.4,1808,2618.7,1807.4,2618.7z" class="color2a2a2c svgShape"></path></g></g></g><g fill="#000000" class="color000000 svgShape"><path fill="#021b79" d="M1786.8,2628c-0.1,8.3,3.5,16.2,9.8,21.6c6.6,5.7,15.4,7.9,23.9,6.2l80-15.9c6.5-1.3,13.3,0.2,18.6,4.1
					c5.3,3.8,8.8,9.9,9.6,16.3l2.1,19.6c1.6-0.1,3-0.2,4.6-0.3l-2.1-19.8c-0.9-7.8-5.1-15-11.4-19.6c-6.3-4.6-14.5-6.4-22.3-4.8
					l-80,15.9c-7.2,1.5-14.4-0.5-20.1-5.2c-5.3-4.5-8.3-11.1-8.2-18.1c0.1-7,3.3-13.5,8.8-17.9l65.4-52.4l-2.9-3.5l-65.4,52.3
					C1790.8,2611.9,1786.9,2619.7,1786.8,2628z" class="color2a2a2c svgShape"></path></g></g><g fill="#000000" class="color000000 svgShape"><g fill="#000000" class="color000000 svgShape"><rect width="107" height="105.2" x="2257.1" y="2481.5" fill="#b3d8fd" transform="rotate(-90 2310.589 2534.049)" class="colorfdbab3 svgShape"></rect></g><g fill="#000000" class="color000000 svgShape"><path fill="#021b79" d="M2025.6,2659.5c0,0-13.8,73.3,137.9,58.8c14.9-1.4,29.5-4.2,43.9-8.3c20.6-5.8,54.5-12.9,78.4-15l1,24.6
					l90.6-5c9.6-0.9,16.9-9.2,16.4-18.8l-4.6-55c0,0-152.1,4.5-154.7,5.6c-2.6,1.1-131.7,28.9-131.7,28.9L2025.6,2659.5z" class="color2a2a2c svgShape"></path><path fill="#414143" d="M2099.7,2707.9l5,0.3c15.5,0.7,34,0.2,56-1.9c14.8-1.4,29.5-4.2,43.9-8.2c20.6-5.7,54.6-14.5,78.5-16.5
					c0,0,18-0.4,39.3-1.5c1.6-0.1,3-0.2,4.6-0.3c3.6-0.2,7.3-0.4,11-0.6c1.6-0.1,3.1-0.2,4.7-0.3c2.9-0.2,5.6-0.4,8.4-0.6
					c1.6-0.2,3.1-0.3,4.7-0.5c19.4-1.7,35.2-4.3,35-7.9c1.4-14.4,1.8-28.8,1.1-43.2c-0.7-17.2-3-34.2-7-51.3
					c-2.6-11.3-13.3-19-24.9-17.6l-82.5,9.5c-6.4,0.7-12.5-1.5-17-5.8c-0.5-0.5-0.9-1-1.4-1.6l-0.3-0.3l-1.2-1.5l-0.1-0.2l-0.2-0.2
					l-2.9-3.5l-0.1-0.1l-2.9-3.5l-0.2-0.3c-3.8-4.5-10.7-4.5-14.4-0.1c-16,18.3-33.1,34.9-51.4,49.7c-23.5,19.1-51.4,32-81.1,37.2
					c-1.7,0.3-3.4,0.5-5.2,0.8c-6.4,0.9-13,1.6-19.6,1.7c-54.5,1.7-53.7,19.6-53.7,19.6S2013.9,2702.6,2099.7,2707.9z" class="color414143 svgShape"></path></g><g fill="#000000" class="color000000 svgShape"><g fill="#000000" class="color000000 svgShape"><path fill="#c6c9cd" d="M2262.9,2568.5c0.2,2.7-1.8,5-4.5,5.2c-2.7,0.2-5.1-1.8-5.3-4.5c-0.2-2.7,1.8-5,4.5-5.2
						C2260.3,2563.8,2262.7,2565.8,2262.9,2568.5z" class="colorc6c7cd svgShape"></path><g fill="#000000" class="color000000 svgShape"><path fill="#021b79" d="M2258.2,2571.3c-0.7,0.1-1.3-0.2-1.9-0.7l-19.8-19.4c-1-0.9-1-2.4-0.1-3.4c0.9-0.9,2.4-1,3.4-0.1
							l19.8,19.4c1,0.9,1,2.4,0.1,3.4C2259.3,2571,2258.8,2571.2,2258.2,2571.3z" class="color2a2a2c svgShape"></path></g></g><g fill="#000000" class="color000000 svgShape"><path fill="#c6c9cd" d="M2251.1,2577.8c0.2,2.7-1.8,5-4.5,5.2c-2.7,0.2-5.1-1.8-5.3-4.5c-0.2-2.7,1.8-5,4.5-5.2
						C2248.5,2573.1,2250.9,2575.1,2251.1,2577.8z" class="colorc6c7cd svgShape"></path><g fill="#000000" class="color000000 svgShape"><path fill="#021b79" d="M2246.4,2580.6c-0.7,0.1-1.3-0.2-1.9-0.7l-18.4-18.3c-1-0.9-1-2.4-0.1-3.4c0.9-0.9,2.4-1,3.4-0.1
							l18.4,18.3c1,0.9,1,2.4,0.1,3.4C2247.5,2580.3,2246.9,2580.5,2246.4,2580.6z" class="color2a2a2c svgShape"></path></g></g><g fill="#000000" class="color000000 svgShape"><path fill="#c6c9cd" d="M2239.2,2587.8c0.2,2.7-1.8,5-4.5,5.2c-2.7,0.2-5.1-1.8-5.3-4.5c-0.2-2.7,1.8-5,4.5-5.2
						C2236.7,2583.1,2239,2585.1,2239.2,2587.8z" class="colorc6c7cd svgShape"></path><g fill="#000000" class="color000000 svgShape"><path fill="#021b79" d="M2234.5,2590.5c-0.7,0.1-1.3-0.2-1.9-0.7l-17.6-17.7c-1-0.9-1-2.4-0.1-3.4c0.9-0.9,2.4-1,3.4-0.1
							l17.6,17.7c1,0.9,1,2.4,0.1,3.4C2235.6,2590.3,2235.1,2590.5,2234.5,2590.5z" class="color2a2a2c svgShape"></path></g></g></g><g fill="#000000" class="color000000 svgShape"><g fill="#000000" class="color000000 svgShape"><path fill="#c6c9cd" d="M2228.2,2597.9c0.1,2.7-2,4.9-4.7,5c-2.7,0.1-5-2-5.1-4.7c-0.1-2.7,2-4.9,4.7-5
						C2225.9,2593.1,2228.1,2595.2,2228.2,2597.9z" class="colorc6c7cd svgShape"></path><g fill="#000000" class="color000000 svgShape"><path fill="#021b79" d="M2223.4,2600.5c-0.7,0-1.3-0.2-1.8-0.7l-16.5-17.6c-0.9-1-0.9-2.5,0.1-3.4c1-0.9,2.5-0.9,3.4,0.1
							l16.5,17.6c0.9,1,0.9,2.5-0.1,3.4C2224.5,2600.2,2224,2600.4,2223.4,2600.5z" class="color2a2a2c svgShape"></path></g></g><g fill="#000000" class="color000000 svgShape"><path fill="#c6c9cd" d="M2216,2606.7c0.1,2.7-2,4.9-4.7,5c-2.7,0.1-5-2-5.1-4.7c-0.1-2.7,2-4.9,4.7-5
						C2213.6,2601.9,2215.9,2604,2216,2606.7z" class="colorc6c7cd svgShape"></path><g fill="#000000" class="color000000 svgShape"><path fill="#021b79" d="M2211.1,2609.2c-0.7,0-1.3-0.2-1.8-0.7l-15.9-16.9c-0.9-1-0.9-2.5,0.1-3.4c1-0.9,2.5-0.9,3.4,0.1
							l15.9,16.9c0.9,1,0.9,2.5-0.1,3.4C2212.3,2609,2211.7,2609.2,2211.1,2609.2z" class="color2a2a2c svgShape"></path></g></g><g fill="#000000" class="color000000 svgShape"><path fill="#c6c9cd" d="M2203.7,2616.1c0.1,2.7-2,4.9-4.7,5c-2.7,0.1-5-2-5.1-4.7c-0.1-2.7,2-4.9,4.7-5
						C2201.4,2611.3,2203.6,2613.4,2203.7,2616.1z" class="colorc6c7cd svgShape"></path><g fill="#000000" class="color000000 svgShape"><path fill="#021b79" d="M2198.9,2618.7c-0.7,0-1.3-0.2-1.8-0.7l-15.3-15.8c-0.9-1-0.9-2.5,0.1-3.4c1-0.9,2.5-0.9,3.4,0.1
							l15.3,15.8c0.9,1,0.9,2.5-0.1,3.4C2200,2618.4,2199.5,2618.7,2198.9,2618.7z" class="color2a2a2c svgShape"></path></g></g></g><g fill="#000000" class="color000000 svgShape"><path fill="#021b79" d="M2178.3,2628c-0.1,8.3,3.5,16.2,9.8,21.6c6.6,5.7,15.4,7.9,23.9,6.2l80-15.9c6.5-1.3,13.3,0.2,18.6,4.1
					c5.3,3.8,8.8,9.9,9.6,16.3l2.1,19.6c1.6-0.1,3-0.2,4.6-0.3l-2.1-19.8c-0.9-7.8-5.1-15-11.4-19.6c-6.3-4.6-14.5-6.4-22.3-4.8
					l-80,15.9c-7.2,1.5-14.4-0.5-20.1-5.2c-5.3-4.5-8.3-11.1-8.2-18.1c0.1-7,3.3-13.5,8.8-17.9l65.4-52.4l-2.9-3.5l-65.4,52.3
					C2182.3,2611.9,2178.4,2619.7,2178.3,2628z" class="color2a2a2c svgShape"></path></g></g><g fill="#000000" class="color000000 svgShape"><path fill="#414143" d="M2372.7,1127c34.9,207.5-1,411.1-19.1,695.1l35.2,697.1h-157.9l-86.5-661l-33.2-272.1l-64.9,236l-52.7,697.1
				h-156.3l-3.8-724c26.4-236.3,61.8-462,111.8-670.3L2372.7,1127z" class="color414143 svgShape"></path></g><path fill="#b3d8fd" d="M1434.8,857.7l-90.3,14.5c-9.8,1.6-19.4,4-28.9,7.1c-28.7,9.4-104.1,24.6-139.6-57.5
			c-5.4-12.6,5.4-26.2,18.8-23.4c24,5.1,65.6,11.1,79.7-1.7l-28.3-27.4c-5.3-5.1-5.1-13.6,0.3-18.6l0,0c4.3-3.8,10.6-4.4,15.5-1.4
			l39.9,24.9c9.8,6.1,21.2,8.9,32.7,8.1l84.4-5.8" class="colorfdbab3 svgShape"></path><path fill="#58595e" d="M2096.9,755l-279.8,92.9c-12.9,4.3-26.3,7.2-39.9,8.6l-434.5,27.7l-16.1-111.5l420.6-61.8
			c19-3.7,37.1-10.8,53.5-20.9l251.2-173.1l26.3,22.4l61.7,139.6L2096.9,755z" class="color585a5e svgShape"></path><rect width="117.4" height="207.9" x="2114.6" y="369.7" fill="#b3d8fd" transform="rotate(-180 2173.24 473.635)" class="colorfdbab3 svgShape"></rect><path fill="#b3d8fd" d="M2029.5,337.7c-13.4,87.6,49.2,141.7,110.4,141.7c61.2,0,111.3-62.1,111.3-141.7
			c0-79.6-49.6-144.1-110.8-144.1C2079.1,193.6,2041.6,259.1,2029.5,337.7z" class="colorfdbab3 svgShape"></path><path fill="#414143" d="M2086.9,186.1c49.4-39.4,91.7-3.8,91.7-3.8c72.7-20,84.3,59.4,84.3,59.4c83.2-2.2-30.9,198.4-30.9,198.4
			l-7.7-26.8c-3.9-13.8-3.3-28.6,2.5-41.7c11.1-25.3,13.9-56.2-12.6-60.4c-22.9-3.7-35.3,30.6-39.8,47.1c-1.3,4.8-6.2,7.6-11,6.4
			l0,0c-4.6-1.1-7.5-5.5-6.8-10.1l10.3-66.5c-32.7,9.8-97.4-2.1-111.5-7.2c0,0-59.9-18.3-49.8-81.2c0,0,7.8,15.9,40.4,17
			c0,0-26.8-6.1-23.5-44.2C2022.4,172.6,2057.9,209.2,2086.9,186.1z" class="color414143 svgShape"></path><path fill="#e5e5e5" d="M2016.1,882.7c0,3.8,0,419.6,0,419.6c129.5,61.4,247.8,15.8,247.6,16.8l-6.2-706.8l-25.6-120.8l-91.9,60.8
			l-57.7-47.9l-37,32.3l-7.6,165C2037.6,701.6,2016.1,878.9,2016.1,882.7z" class="colore5e5e5 svgShape"></path><path fill="#58595e" d="M2416.1 1348.3c3.7 15.7.2 31.7-15.5 35.8 0 0-300.6 35.5-265.6-327.6l16.8-368c0-67.9 21.6-138.6 71.8-184.8l8.3-12.3 62.2 25.9c68.5 33 110.3 103.4 106.1 178.8l-.7 141C2393.8 953.2 2408 1313.8 2416.1 1348.3zM2114.6 495.7l-32.3 8.6c-50 14.5-89.8 53.8-89.8 104.4v86.6c0 52.5-3.5 104.9-10.3 156.9l-86.7 409.8c-2.4 18.2 6.1 25.5 27.4 38l127.5 52.9c13.5 3.2 24.5-10.9 18-23.1l0 0c-24.1-44.6-34.3-140.6-29.3-190.9l28.7-292.9c2.5-26 4.1-52 4.7-78.1L2114.6 495.7z" class="color585a5e svgShape"></path><polygon fill="#c6c9cd" points="2114.6 495.7 2102.5 573.3 2172.3 579.5 2231.8 491.4 2140 552.2" class="colorc6c7cd svgShape"></polygon><path fill="#414143" d="M2028.6,377.1L2028.6,377.1l122.6-6.6l7.6-31.1l19.8,5.7l-16.9,88.5c-5.4,28.3-32.4,47.2-61,42.8l0,0
			C2053.4,469.3,2023.4,424.3,2028.6,377.1z" class="color414143 svgShape"></path><path fill="#516fe2" d="M2140,552.2l-14.8,18.1l5.4,21.9l-5.4,44.5c-15.1,124-87,234.3-194.9,298.8l-19.7,11.8
			c-59.4,35.5-108.4,85.9-142.2,146l-41.9,74.6l31.1,56.7l63.4-25.7l50.7-90.6c22.9-40.8,53.6-76.8,90.4-106l38.3-30.3
			c97.1-76.8,153.7-193.2,154-316.4l0.1-61.4l2.3-25.2L2140,552.2z" class="colore25651 svgShape"></path><g fill="#000000" class="color000000 svgShape"><g fill="#000000" class="color000000 svgShape"><g fill="#000000" class="color000000 svgShape"><path fill="#414143" d="M2727.2,1481.1l-26,6.2l-15.5-64.3c-0.1-0.3-0.4-0.5-0.7-0.4l-133.1,31.6c-0.3,0.1-0.5,0.4-0.4,0.7
						l15.5,64.3l-26,6.2l-15.5-64.3c-3.5-14.5,5.6-29.1,20.2-32.6l133.1-31.6c14.6-3.5,29.4,5.5,32.8,20L2727.2,1481.1z" class="color414143 svgShape"></path></g><g fill="#000000" class="color000000 svgShape"><g fill="#000000" class="color000000 svgShape"><path fill="#e2e2e2" d="M2579.3,1532.8l-42.9,10.2l-6.6-27.4c-0.6-2.3,0.9-4.6,3.2-5.1l34.6-8.2c2.3-0.5,4.6,0.9,5.2,3.2
							L2579.3,1532.8z" class="colore2e2e2 svgShape"></path><path fill="#c6c9cd" d="M2572.7,1505.4l6.6,27.4l-6.5,1.5l-6.6-27.4c-0.6-2.3-2.9-3.7-5.2-3.1l6.5-1.5
							C2569.9,1501.7,2572.2,1503.1,2572.7,1505.4z" class="colorc6c7cd svgShape"></path></g><g fill="#000000" class="color000000 svgShape"><path fill="#e2e2e2" d="M2739.5,1494.8l-42.9,10.2l-6.6-27.4c-0.6-2.3,0.9-4.6,3.2-5.1l34.6-8.2c2.3-0.5,4.6,0.9,5.2,3.2
							L2739.5,1494.8z" class="colore2e2e2 svgShape"></path><path fill="#c6c9cd" d="M2732.9,1467.4l6.6,27.4l-6.5,1.5l-6.6-27.4c-0.6-2.3-2.9-3.7-5.2-3.1l6.5-1.5
							C2730,1463.7,2732.3,1465.1,2732.9,1467.4z" class="colorc6c7cd svgShape"></path></g></g></g><g fill="#000000" class="color000000 svgShape"><path fill="#58595e" d="M2930.9,1579.9l43.6,180.9c2.2,9.2-3.5,18.5-12.8,20.7l-492.8,116.9c-9.3,2.2-18.6-3.5-20.8-12.7
					l-43.6-180.9L2930.9,1579.9z" class="color585a5e svgShape"></path><g fill="#000000" class="color000000 svgShape"><path fill="#58595e" d="M2908.7,1446.5l35.2,146c1.5,6.3-2.4,12.6-8.7,14.1l-522.2,123.9c-6.3,1.5-12.7-2.4-14.2-8.7l-35.2-146
						c-1.1-4.6,1.8-9.2,6.4-10.3l528.4-125.4C2902.9,1439,2907.6,1441.9,2908.7,1446.5z" class="color585a5e svgShape"></path></g><polygon fill="#414143" points="2937.2 1606.1 2940.4 1619.2 2414 1744.1 2410.8 1731" class="color414143 svgShape"></polygon></g></g><g fill="#000000" class="color000000 svgShape"><g fill="#000000" class="color000000 svgShape"><path fill="#e0e0e0" d="M2543.9,1743l-34.7,8.2c-2.9,0.7-5.9-1.1-6.6-4l-12.8-53.3c-0.7-2.9,1.1-5.8,4-6.5l34.7-8.2
					c2.9-0.7,5.9,1.1,6.6,4l12.8,53.3C2548.7,1739.4,2546.8,1742.3,2543.9,1743z" class="colore0e0e0 svgShape"></path><path fill="#414143" d="M2531.4,1725.5c1.3,5.2-2,10.4-7.2,11.7c-5.2,1.2-10.5-2-11.8-7.2c-1.3-5.2,2-10.4,7.2-11.7
					C2524.9,1717.1,2530.2,1720.3,2531.4,1725.5z" class="color414143 svgShape"></path></g><g fill="#000000" class="color000000 svgShape"><path fill="#e0e0e0" d="M2858.7,1668.3l-34.7,8.2c-2.9,0.7-5.9-1.1-6.6-4l-12.8-53.3c-0.7-2.9,1.1-5.8,4-6.5l34.7-8.2
					c2.9-0.7,5.9,1.1,6.6,4l12.8,53.3C2863.4,1664.7,2861.6,1667.6,2858.7,1668.3z" class="colore0e0e0 svgShape"></path><path fill="#414143" d="M2846.1,1650.8c1.3,5.2-2,10.4-7.2,11.7c-5.2,1.2-10.5-2-11.8-7.2c-1.3-5.2,2-10.4,7.2-11.7
					C2839.6,1642.4,2844.9,1645.6,2846.1,1650.8z" class="color414143 svgShape"></path></g></g><path fill="#b3d8fd" d="M2620.5,1254.5l21,88.3c2.3,9.6,5.4,19,9.2,28.1c11.4,27.8,33.8,76-46.1,117c-12.2,6.3-26.7-3.4-24.8-17
			c3.4-24.1,4.7-40.5-9.2-53.4l-25.6,29.9c-4.8,5.6-13.4,6-18.7,1l0,0c-4.2-4-5.2-10.2-2.5-15.2l22.2-41.3
			c5.4-10.1,7.5-21.6,5.9-32.9l-11.8-83.1" class="colorfdbab3 svgShape"></path><path fill="#58595e" d="M2651.4,1335.2c0,0-90.5-462-97.9-476.5c-84-164.1-204.6-299.6-204.6-299.6l-124.3,75.3l-17.7,86.4
			l207.6,211.8c9.3,7.5,121.1,443.5,121.1,443.5L2651.4,1335.2z" class="color585a5e svgShape"></path></g><g fill="#000000" class="color000000 svgShape"><path fill="#375ff4" d="M1023.1,684.4c-189.9,3.7-340.9,160.6-337.2,350.5c2,104.3,50.2,196.8,124.8,258.4c21.9,18.2,46,33.6,72,45.9
			h294.1c26-12.3,50.1-27.8,72-45.9c78-64.5,126.9-162.7,124.8-271.7C1369.9,831.7,1213,680.7,1023.1,684.4z M1115.3,1293.3
			c-25.3,8.2-52.2,12.8-80.2,13.4c-31.8,0.6-62.4-4.2-91-13.4c-110-35.5-190.5-137.6-192.8-259.7c-2.9-153.8,119.3-280.8,273-283.8
			c153.8-2.9,280.8,119.3,283.8,273.1C1310.6,1148.7,1229.2,1256.5,1115.3,1293.3z" class="colorf4b037 svgShape"></path><path fill="#375ff4" d="M1308.1,1022.9c3,153.8-119.2,280.8-273,283.8c-71.1,1.4-136.5-24-186.5-66.9
			c-58.2-49.9-95.6-123.4-97.3-206.1c-3-153.8,119.3-280.8,273-283.8c83.4-1.6,159,33.6,211.1,90.8
			C1279.5,888.8,1306.8,952.6,1308.1,1022.9z" class="colorf4b037 svgShape"></path><path fill="#2f56ea" d="M1240.2,846c-51.8-53.3-124.8-85.8-204.9-84.2c-153.8,3-276,130-273,283.8c1.3,67.2,26.3,128.3,66.8,175.6
			c-46.9-48.7-76.2-114.6-77.7-187.5c-3-153.8,119.3-280.8,273-283.8c83.4-1.6,159,33.6,211.1,90.8
			C1237.1,842.4,1238.7,844.2,1240.2,846z" class="coloreaa22f svgShape"></path><path fill="#63b1ff" d="M1308.1,1022.9c3,153.8-119.2,280.8-273,283.8c-67.2,1.3-129.3-21.3-178.2-60
			c46.6,32.6,103.6,51.3,164.8,50.1c153.8-3,276-130,273-283.8c-1.3-70.4-28.7-134.1-72.6-182.3c-2.9-2.5-5.8-4.9-8.8-7.3
			c7.7,5.4,15.1,11.1,22.2,17.2C1279.5,888.8,1306.8,952.6,1308.1,1022.9z" class="colorffca63 svgShape"></path><path fill="#2f56ea" d="M1059.6,1014.2l-3.2-1.2c-13.7-5.3-23.7-9.9-31.6-14.5c-17.9-10.4-24.8-20.9-24.8-37.3
			c0-5.5,1.7-24.1,23.6-33.1c7.3-3,16.1-4.5,26.1-4.5c2.1,0,4,0,5.9,0.1c22.1,1.1,39,8,49.2,13.6l9.9,5.4l17.3-51.3l-6.8-3.9
			c-9.3-5.3-28.9-14-59.7-16.1v-28.3c0-6.1-4.9-11.1-11.1-11.1h-33c-6.1,0-11.1,4.9-11.1,11.1v33.5c-43.1,12.9-70.6,47.2-70.6,89.2
			c0,41.6,25,72,76.5,93.1c4.1,1.7,8.4,3.3,12.7,4.9c8.8,3.4,16.1,6.7,22.4,10c22,11.8,30.6,24,30.6,43.6
			c0,19.1-10.4,33.3-29.3,39.9c-7.8,2.8-16.9,4.2-27,4.2c-1.8,0-3.6,0-5.5-0.1c-21.6-1-44.3-7.9-62.3-19l-10.5-6.5l-15.9,52.6
			l5.9,3.9c16.4,10.9,45.3,19.2,72.9,21.2v23.5c0,6.1,4.9,11.1,11.1,11.1h33c6.1,0,11.1-4.9,11.1-11.1V1209
			c47.8-12.6,77.1-48.4,77.1-94.9C1142.7,1067.2,1117.9,1037.3,1059.6,1014.2z" class="coloreaa22f svgShape"></path><path fill="#63b1ff" d="M1051,1004.3l-3.2-1.2c-13.7-5.3-23.7-9.9-31.6-14.5c-17.9-10.4-24.8-20.9-24.8-37.3
			c0-5.5,1.7-24.1,23.6-33.1c7.3-3,16.1-4.5,26.1-4.5c2.1,0,4,0,5.9,0.2c22.1,1.1,39,8,49.2,13.6l9.9,5.4l17.3-51.3l-6.8-3.9
			c-9.3-5.3-28.9-14-59.7-16.1v-28.3c0-6.1-4.9-11.1-11.1-11.1h-33c-6.1,0-11.1,4.9-11.1,11.1v33.5c-43.1,12.9-70.6,47.2-70.6,89.2
			c0,41.6,25,72,76.5,93.1c4.1,1.7,8.4,3.3,12.7,4.9c8.8,3.4,16.1,6.7,22.4,10c22,11.8,30.6,24,30.6,43.6
			c0,19.1-10.4,33.3-29.3,39.9c-7.8,2.8-16.9,4.2-27,4.2c-1.8,0-3.6,0-5.5-0.1c-21.6-1-44.3-7.9-62.3-19l-10.5-6.5l-15.9,52.6
			l5.9,3.9c16.4,10.9,45.3,19.2,72.9,21.2v23.5c0,6.1,4.9,11.1,11.1,11.1h33c6.1,0,11.1-4.9,11.1-11.1v-28.1
			c47.8-12.6,77.1-48.4,77.1-94.9C1134.2,1057.4,1109.3,1027.5,1051,1004.3z" class="colorffca63 svgShape"></path></g></g></svg>