<svg xmlns="http://www.w3.org/2000/svg" data-name="&amp;lt;Layer&amp;gt;" viewBox="0 0 2742 1828" id="Emailmessagesinhandsofwomanlookingoutoflaptopandholdinglargeenvelope"><g data-name="Ñëîé 6" fill="#021b79" class="color000000 svgShape"><path fill="#cccfd3" fill-rule="evenodd" d="M570.34,545.85c6.54-7.11,21-11.63,21-11.63l1554.7.55s22.23-1.58,32.35,10.3,9.18,27.88,9.18,27.88l.26,1039,219,.44,9.93,6.59.22,24.52-9.62,12.29L2316.7,1680l-1887.22-.27-85.66-24.19-7.74-4.93-3.63-10,1.08-21.38,11.26-7.42,216.51-.45V572.78A33.62,33.62,0,0,1,570.34,545.85Z" class="colord3cfcc svgShape"></path><path fill="#ffffff" fill-rule="evenodd" d="M594.47,586.29H2157.21v985.1H594.47Z" class="colorffffff svgShape"></path><path fill="#c9dff6" fill-rule="evenodd" d="M917.46,1486.38h877.05v85h-877Z" class="colorf6d1c9 svgShape"></path><path fill="#cfdeed" fill-rule="evenodd" d="M917.46,730.5h877.05v688.89h-877Z" class="colorecedcf svgShape"></path></g><g data-name="Ñëîé 5" fill="#021b79" class="color000000 svgShape"><path fill="#152357" d="M562,1613.18a4.57,4.57,0,0,1-4.57-4.57V569c0-21.13,16.6-38.31,37-38.31H2155.17c20.4,0,37,17.18,37,38.31V1606.8a4.57,4.57,0,0,1-9.14,0V569c0-16.08-12.5-29.17-27.86-29.17H594.42c-15.36,0-27.86,13.09-27.86,29.17V1608.61A4.56,4.56,0,0,1,562,1613.18Z" class="color571519 svgShape"></path><path fill="#152357" d="M2404,1659.66H346.17a17.52,17.52,0,0,1-17.46-17.54v-16.47a17.52,17.52,0,0,1,17.46-17.54H2404a17.52,17.52,0,0,1,17.46,17.54v16.47A17.52,17.52,0,0,1,2404,1659.66ZM346.17,1617.25a8.37,8.37,0,0,0-8.32,8.4v16.47a8.37,8.37,0,0,0,8.32,8.4H2404a8.37,8.37,0,0,0,8.32-8.4v-16.47a8.37,8.37,0,0,0-8.32-8.4Z" class="color571519 svgShape"></path><path fill="#152357" d="M2317.6 1683.83h-1885c-6.63 0-71.24-18-90.88-23.5a4.57 4.57 0 012.47-8.81c31.45 8.83 83.28 22.93 88.46 23.17h1885c5.13-.25 55.71-14.44 86.37-23.33a4.57 4.57 0 012.54 8.79C2387.34 1665.7 2324.26 1683.83 2317.6 1683.83zM2157 1576.53H594.49a4.58 4.58 0 01-4.57-4.57V586.68a4.58 4.58 0 014.57-4.57H2157a4.57 4.57 0 014.57 4.57V1572A4.57 4.57 0 012157 1576.53zm-1557.94-9.15H2152.43V591.25H599.06z" class="color571519 svgShape"></path></g><g data-name="Ñëîé 4" fill="#021b79" class="color000000 svgShape"><path fill="#152357" d="M774 976.39H698.19a4.57 4.57 0 010-9.14H774a4.57 4.57 0 010 9.14zM877.53 924.4H698.19a4.57 4.57 0 010-9.14H877.53a4.57 4.57 0 010 9.14zM877.53 1082.72H698.19a4.57 4.57 0 110-9.14H877.53a4.57 4.57 0 010 9.14zM829.07 1030.73H698.19a4.57 4.57 0 010-9.14H829.07a4.57 4.57 0 010 9.14zM861.54 1132.76H698.19a4.57 4.57 0 110-9.14H861.54a4.57 4.57 0 110 9.14zM883.79 1239.09H704.44a4.57 4.57 0 010-9.14H883.79a4.57 4.57 0 110 9.14zM776.67 1187.1H700.83a4.57 4.57 0 010-9.14h75.84a4.57 4.57 0 110 9.14zM861.72 1345.42H704.44a4.57 4.57 0 110-9.14H861.72a4.57 4.57 0 110 9.14zM833.63 1293.43H702.76a4.57 4.57 0 110-9.14H833.63a4.57 4.57 0 110 9.14zM883.79 1395.46H704.44a4.57 4.57 0 010-9.14H883.79a4.57 4.57 0 010 9.14zM883.79 1501.79H704.44a4.57 4.57 0 010-9.14H883.79a4.57 4.57 0 110 9.14zM830.94 1551.83H704.44a4.57 4.57 0 010-9.14h126.5a4.57 4.57 0 010 9.14z" class="color571519 svgShape"></path></g><g fill="#021b79" class="color000000 svgShape"><path fill="#0575e6" fill-rule="evenodd" d="M1579.54,1060.27l-13.26-8.53-19.38-6.64-22.12-6.17-11.46-8.59-2.82-8.86,13.81-81.15,74.81-128.82s18.25-1.58,39.09-4.93c16.64-2.67,33.79-7.1,53-8.09,25.48-1.32,41.56.63,62,2.44,9.54.84,24.68,2.21,33.76,2.21,58.66,0,257.41,42.07,257.41,42.07s30.32,19.89,68.3,44.86c15.82,10.4,31.57,18.86,47.83,30.59a273.77,273.77,0,0,1,38,33.37c20.31,21.88,24.87,56,24.87,70,0,13.76-4.88,39.72-19.15,66.44-23.74,44.46-61.89,91.51-61.89,91.51a266.69,266.69,0,0,1-12.88,32.87c-3.24,7-14.6,27.05-27.66,54-12.19,25.13-26,56.79-31.94,74.33-6.08,18-13,44.34-12.79,68,.36,36.39,6.75,67.13,15.78,102.64,8.21,32.28,14.84,57.39,14.84,57.39l-527.76.57,7.32-47.43,10.67-49.19,8.89-48.1,4.14-42.42-1.18-36.12-3.31-38.28-6.58-42-7.77-45.13-4.65-48.09-2.5-38.25,4.3-34.6Z" class="color92b4d9 svgShape"></path><path fill="#4e6bd7" fill-rule="evenodd" d="M1671.12,605c3.35-12.66,6.51-48.24,12-86.06,4.49-31.13,10.54-66.91,25.39-94.79,29.78-55.52,85.82-88.86,121.82-94.54,7.26-1.14,20.45-.76,30.28,2.45,15.08,4.91,27.49,13.55,39.45,10.68,23.74-5.39,48.27-10.24,89.63,14.17,20.44,10.3,42.08,35.3,54.62,62.83,13.53,24.78,45.69,97.39,59.49,117.35,4.53,6.54,21.73,18.64,38.82,30.66,16.53,11.63,32.79,23,47.05,38.06,15.94,16.82,21.89,39.56,22.49,52.63.72,9.32,2.23,21-3.16,36.77-6.3,18.46-17.73,39.69-21.64,57.29-2,9-1.65,15.95.71,22.82,2.71,7.91,7.94,15,15.91,19.07,6.94,3.58,16.42,1.86,20.68-1.65,3.68-3,9.45-10.74,9.42-18.45,0-8.61-6-17.07-3.84-16.29a30,30,0,0,1,16.11,13.78c6.7,12.85,5.56,30,2.71,39.06-2.46,7.86-9.89,17.87-16.55,21.88-8.24,5-13.72,5.63-19.94,4.62-4.09-.67,7.12,3.49,22.53,10,11.94,5,26.55,10.64,37.56,21.62,23.45,23.39,29.87,63.78,29,78.28-.1,1.73-.95,18.26-5.43,31.25-7.22,20.9-19.69,43.3-22.18,60.13-1.2,8.11.4,17.65,2.36,24.15.8,2.65,7.71,12,13.83,17.36s11.41,6.53,17.17,4.27c4.57-1.79,11.5-7.63,14.15-13.93,3.69-8.76,2.36-18,3.74-15.19,13.63,28.08-18.11,66.53-45.6,74.55a131.69,131.69,0,0,1-16.1,3.62,102,102,0,0,1-22.74.37s-14.5,9.27-30.32,9.16-33-9.57-33-9.57,44.2-61.36,45.45-112.44c.48-20-7.15-40.36-16.12-54.62a115.62,115.62,0,0,0-26.81-29.5c-19.55-18.13-91.36-62.66-106.85-72-17.49-10.59-40.52-28.81-56.36-40.74-66.94-50.43-161.43-39.9-199.83-26.67-6,2.08-17.54,5.3-34.76,5.51s-36.65-1.62-52.66-2.7c-15.74-1.06-28.26-1.37-28.26-1.37s14.3-13,8.08-25.14-18.63-21.45-29.76-32.7C1669.8,731,1660.9,718.65,1660,716a97.66,97.66,0,0,1-5.32-32C1655.25,649.23,1665,628,1671.12,605Z" class="colord7624e svgShape"></path><path fill="#cee6ff" fill-rule="evenodd" d="M1830,766.93s-21.67-17.9-34.55-37.18c-12.21-20.22-24.2-49.48-24.2-49.48s-14.06-1.32-24.9-8-18.45-18.65-18.45-18.65,17.09-20.23,32-38c15.92-19.3,21.83-28,33.2-49.48,15.71-30.35,14.88-68.73,40.31-84.22,37.35-23.1,73-9.87,78.23-8.23s20,2.15,33.86,17.18c19.91,22.28,37,58.29,55.18,80,3.68,4.59,16,15.94,27,22.48a161,161,0,0,0,25.4,12.16,45.74,45.74,0,0,1-10.47,18.78c-7.9,8.18-20.75,12.58-20.75,12.58s0,26.83-5.9,51.54-23.26,55.32-23.26,55.32-41.78,49-73.3,52.32C1882.72,799.92,1830,766.93,1830,766.93Z" class="colorffe4ce svgShape"></path><path fill="#cee6ff" fill-rule="evenodd" d="M1786.75 803.22a155.74 155.74 0 0016-1.59c5.46-1.06 15.15-3.61 15.15-3.61s-.71-18-1.09-22.85-2.63-26.38-2.63-26.38l195-36.34s-.76 15.65-1.32 23-1 22.8-1.13 31.47 1.32 23.94 2.45 32.61.94 16.39 5.46 21.3 6.42 6.4 12.44 10.93 17.34 13.57 17.34 13.57-22.32 40.39-60.21 66.33c-17 11.65-33.94 20.24-54.1 24.44-18.09 3.77-39.52 3.89-53.53 1.6-29.66-4.84-61-29.29-75.44-59.06C1784.18 843.75 1786.75 803.22 1786.75 803.22zM1012.71 889.58l469.7-.35 42.65 54.3s1.14 14.51 2.32 21.47 1.54 18.5 1.8 27a86.75 86.75 0 01-1.36 20.07c-1.25 7.54-4.11 11.1-4.11 11.1s-9.84-2.41-21.31-4.58-70.7-8.18-80.29-9.23-67.69-6.38-80.71-6.65-61.33-3.92-69.14-4.49-33.63-5.41-40-7.11-45.89-14.47-60.7-21.88-74.43-32.36-90.84-41.39-34.14-17.93-45.13-23.86A263.22 263.22 0 011012.71 889.58z" class="colorffe4ce svgShape"></path><path fill="#a6cdf5" fill-rule="evenodd" d="M667.55,355.43h846.69v534H667.55Z" class="colorf5d5a6 svgShape"></path><path fill="#cee6ff" fill-rule="evenodd" d="M624.49 623.82s-8.72-12.23-8.84-20.74S624 589.82 624 589.82s-4.46-10.48-2.59-19.05 10.06-15.25 10.06-15.25-4.59-9.2-2.58-14.64c3.15-8.49 14.15-13.93 22.09-18.35 9.65-5.37 16.16-8.78 16.16-8.78l.46 37S692.34 561 700.31 569s-.76 13.84-.76 13.84 10.65 6.58 12 12.32S705 605.79 705 605.79s10 4 8.21 9.89S698 629.22 698 629.22s6.91 6.51 6.09 9.81c-1.2 4.77-8 10-16.38 14.58C677.32 659.36 664.47 664 657 663.9c-8.52-.15-26.54-10.31-33.27-19.47C617.32 635.77 624.49 623.82 624.49 623.82zM1721.79 1231.5a764.71 764.71 0 01-56.55-80.78c-22.21-36.58-49.65-76.56-62.86-100.24-3.73-6.69-51.72-78.19-68.84-100.61-2.08-2.71-9.28-8-9.28-8a64.66 64.66 0 01-24.33-18.61c-10.52-13.25-17.75-34.37-17.75-34.37l29.87-.26 1.34-41.28s-14.94-.3-25.76-6.07c-9.68-5.16-15.25-15.42-16.8-22s-4-17-2.74-24.42c.88-5.29 5.5-7.79 4.89-12.49-.41-3.06-.46-20.6 9.41-27.86 8.14-6 26.55-1.87 26.19-4.22s-10.21-7.12-20.45-4.22c-4.92 1.4-13.67 7.41-19.72 11.95-12.42 9.34-23.54 19.84-37.31 23.12-13.13 3.13-13.49-6.45-13.13-9.16.65-4.8 9.08-11.53 20.89-23.64 9.42-9.66 21.26-24.55 31-31.55 6.93-5 19.85-9.55 22.31-10 10.21-2 18 3.48 28.81 10 9.91 6 23.56 12.91 23.46 11.72-.49-5.74-8.15-21.29-16.49-29.55-10.87-10.77-32-15.39-43.41-23.36-11.67-8.14-13.55-19.55-11.9-22.67 1.19-2.25 15.84.7 34.72 6.08 5.66 1.61 14.42 3.34 19.89 5.34 12.24 4.46 24.42 12.17 27.56 14.74 6.36 5.22 14.66 19.91 19.56 27.62 11.16 17.58 22.66 35.46 26.64 52.49a87.12 87.12 0 01-.09 37.76c-3.31 12.53-6.13 46.85-5.36 71.94.59 19.31 4.28 31.48 5.5 34.3 5.13 11.85 36.31 54.88 66.39 87.22 40.17 43.19 81.26 76.6 85.64 80.4 12.67 11 38 29 65.39 47.91 39 26.89 80.31 54.62 80.31 54.62a358.09 358.09 0 0032.54-32.27c17.23-19.34 36.88-45.57 36.88-45.57s6.74 15.62 20.43 35c8.44 12 20.39 25.52 32.46 37.19 14.88 14.39 33.48 27.8 47.51 36.44 15.83 9.75 26.63 15 26.63 15s-6.8 9.91-27.75 32.1c-13 13.73-35.53 35.91-53.45 49.75-21.5 16.59-40.77 31.33-62.81 42.17-26.49 13-54.79 20.53-66.57 20.74-22.31.41-61.79-24.26-93.43-53.06S1735.62 1248.89 1721.79 1231.5z" class="colorffe4ce svgShape"></path></g><g data-name="Ñëîé 2" fill="#021b79" class="color000000 svgShape"><path fill="#152357" d="M1914.56 801.11c-10.08 0-34.55-2.2-68.66-19.85-30.59-15.63-43.21-35.37-50.75-47.16-14.11-21.13-25.58-51.24-33-72a4.58 4.58 0 018.62-3.07c7.23 20.35 18.41 49.75 32 70.11 7.54 11.8 18.87 29.52 47.27 44 41.72 21.57 68.15 18.7 68.42 18.67a4.57 4.57 0 011.14 9.06A41.81 41.81 0 011914.56 801.11zM1891.73 669.12a4.57 4.57 0 01-2.88-8.11c3.22-2.64 11.24-10.94 9.67-17.69-.54-2.22-2-3.2-5.09-5.2-4.4-2.8-10.42-6.63-13.18-17.21-1.61-5.23-1.85-13.33-.72-26.06a4.57 4.57 0 119.11.81c-1 11.19-.87 18.63.4 22.75 1.91 7.3 5.33 9.47 9.29 12 3.58 2.27 7.64 4.85 9.09 10.79 3.13 13.52-11.17 25.57-12.81 26.9A4.53 4.53 0 011891.73 669.12z" class="color571519 svgShape"></path><path fill="#152357" fill-rule="evenodd" d="M1814.23,620.2c-1.39-8.8,2.28-16.75,8.55-18.56,6.4-1,13,4.51,14.52,14.1,1.39,8.81-2.28,16.76-8.55,18.57C1822.35,635.32,1815.62,629,1814.23,620.2Z" class="color571519 svgShape"></path><path fill="#152357" d="M1703.29,800.4a4.56,4.56,0,0,1-3.42-7.59c12.66-14.35,3.67-23.59-14.67-40-11.47-10.27-24.48-21.91-29.39-37.23-10.2-31.75-1.81-62.83,5.6-90.25,1.1-4.09,2.19-8.11,3.18-12.05,4.91-20.62,7.59-42.43,10.44-65.52,3.66-29.74,7.45-60.5,16.41-92.14,14-48.53,50.14-91.92,96.76-116.08,59-30.6,87.81-4.59,89-3.47a4.57,4.57,0,0,1-6.23,6.69c-1.08-1-25.74-22.48-78.58,4.89-44.43,23-78.89,64.33-92.17,110.48-8.76,30.95-12.51,61.35-16.13,90.75-2.88,23.35-5.59,45.4-10.63,66.59-1,4-2.12,8.1-3.24,12.24-7.08,26.2-15.09,55.89-5.72,85.08,4.16,13,15.66,23.25,26.79,33.21,16.25,14.55,34.67,31,15.42,52.87A4.56,4.56,0,0,1,1703.29,800.4Z" class="color571519 svgShape"></path><path fill="#152357" d="M1792.31 574.11a4.57 4.57 0 01-3.07-8c1-.92 25.33-22.53 57-11.66a4.57 4.57 0 01-3 8.65c-26.49-9.1-47 9-47.88 9.79A4.58 4.58 0 011792.31 574.11zM1804.17 618.16a4.57 4.57 0 01-3.33-7.7c7.43-7.92 28.28-14.93 41.87-8.39a4.57 4.57 0 01-4 8.23c-9.42-4.53-25.88.71-31.22 6.41A4.57 4.57 0 011804.17 618.16zM1919.86 800.78a4.57 4.57 0 01-.58-9.1c.38 0 22.63-3.52 55.32-36.52 23.37-23.35 32.07-46.74 35.17-58.6 6.7-23.64 8.3-55.06 8.93-76.65a4.68 4.68 0 014.7-4.44 4.56 4.56 0 014.43 4.7c-.64 22.08-2.29 54.26-9.24 78.79-3.31 12.67-12.64 37.79-37.51 62.65-35.36 35.68-59.64 39-60.66 39.14z" class="color571519 svgShape"></path><path fill="#152357" fill-rule="evenodd" d="M1956.5,597c-1.39-8.79-7.32-15.24-13.85-15-6.4,1-11,8.29-9.48,17.89,1.39,8.8,7.33,15.24,13.85,15C1953.42,613.83,1958,606.55,1956.5,597Z" class="color571519 svgShape"></path><path fill="#152357" d="M1906.33 553.68a4.57 4.57 0 01-2.75-8.23c26.79-20.07 56.55-7 57.81-6.42a4.57 4.57 0 11-3.77 8.32c-1-.46-26.17-11.36-48.56 5.42A4.57 4.57 0 011906.33 553.68zM1927.11 597.14a4.56 4.56 0 01-3.31-7.71c10.68-11.28 32.7-10.52 42.57-5.07a4.57 4.57 0 01-4.42 8c-6.37-3.53-24.06-4.54-31.52 3.34A4.56 4.56 0 011927.11 597.14zM1711.18 730.38a4.58 4.58 0 01-4.28-3c-14.66-38.83 13.78-71.62 25.93-85.61 1.56-1.8 2.89-3.34 3.88-4.59 6-7.71 11.76-14.52 17.28-21.1 21.27-25.34 38.07-45.35 47.8-89.12 7.52-33.81 21.76-75.4 46.9-81.47 13.17-3.16 27 3.89 41.22 21a4.57 4.57 0 01-7 5.83c-11.78-14.2-22.56-20.25-32-17.95-15.81 3.81-30.43 31-40.12 74.57-10.22 46-27.66 66.71-49.73 93-5.47 6.53-11.14 13.27-17.1 20.89-1.07 1.35-2.49 3-4.16 4.92-12 13.84-37 42.66-24.27 76.39a4.59 4.59 0 01-4.28 6.19z" class="color571519 svgShape"></path><path fill="#152357" d="M2074.12 613c-11.93 0-51.68-4-88.18-52.93-6.2-8.36-11.92-17.94-17.46-27.2-16.42-27.5-31.93-53.48-60.13-54.09a4.55 4.55 0 01-4.47-4.66 4.66 4.66 0 014.67-4.48c33.25.73 50.8 30.12 67.78 58.54 5.42 9.07 11 18.45 16.94 26.44 39.34 52.75 81.64 49.33 83.44 49.14a4.61 4.61 0 015 4.09 4.56 4.56 0 01-4.06 5A34.76 34.76 0 012074.12 613zM1901.13 432.34a4.56 4.56 0 01-4.55-4.2c-1.26-15.72-7.3-27.46-18-34.89-12.45-8.66-30.23-10.62-48.8-5.39a4.57 4.57 0 11-2.48-8.79c21.21-6 41.81-3.55 56.5 6.68 12.85 8.94 20.41 23.35 21.87 41.66a4.57 4.57 0 01-4.19 4.92zM1769.13 684.19a37.74 37.74 0 01-6.22-.67c-14.63-3-26.64-10.68-34.89-22.24a4.58 4.58 0 017.45-5.32 46.39 46.39 0 0029.1 18.57 20.09 20.09 0 005.83.43 4.57 4.57 0 011.41 9A17.45 17.45 0 011769.13 684.19zM1754.53 646.48a4.57 4.57 0 01-3.72-1.91 43.49 43.49 0 00-4.48-5.14 4.58 4.58 0 016.37-6.57 52.39 52.39 0 015.55 6.4 4.57 4.57 0 01-3.72 7.22z" class="color571519 svgShape"></path><path fill="#152357" d="M2022.59,641.12a4.57,4.57,0,0,1-.71-9.09,20.34,20.34,0,0,0,5.5-2.25c10.34-5.11,18.07-14.52,21.89-26.56A4.57,4.57,0,1,1,2058,606c-4.58,14.43-14,25.77-26.42,31.93a27.36,27.36,0,0,1-8.26,3.15A4.34,4.34,0,0,1,2022.59,641.12Z" class="color571519 svgShape"></path><path fill="#152357" d="M2059.73 611.49a4.53 4.53 0 01-2.29-.62c-27.77-16.1-37.08-38.11-47.86-63.59-8.66-20.48-18.47-43.68-39.83-69.78a4.57 4.57 0 017.07-5.79c22.2 27.12 32.28 51 41.18 72 10.55 25 18.89 44.69 44 59.25a4.57 4.57 0 01-2.29 8.53zM1803.13 849.88a4.56 4.56 0 01-2.63-8.3c13.44-9.49 15.47-64.28 8.36-85.61a4.57 4.57 0 018.67-2.9c7.59 22.77 6.9 82.81-11.77 96A4.58 4.58 0 011803.13 849.88zM2028 855.18a4.53 4.53 0 01-3.08-1.2c-18.61-17-27.58-75.59-20.87-136.33a4.57 4.57 0 119.08 1c-7 63.8 3.59 115.48 17.95 128.59a4.57 4.57 0 01-3.08 7.94z" class="color571519 svgShape"></path><path fill="#152357" d="M1601.21 816a4.57 4.57 0 01-.67-9.09c9.06-1.34 17.48-2.68 25.49-4 31.64-5 56.68-9 89.79-8.16 7.53.19 16.33 1 25.64 1.79 25.64 2.26 54.67 4.82 73.34-2.74a4.57 4.57 0 113.44 8.47c-20.72 8.39-50.92 5.73-77.58 3.38-9.17-.81-17.83-1.58-25.07-1.76-32.32-.8-56.95 3.09-88.13 8-8 1.28-16.49 2.63-25.58 4A3.85 3.85 0 011601.21 816zM1884.25 1368.11a31.58 31.58 0 01-7.89-.85c-53.51-14.08-98.54-61.06-135.53-105.16-46-54.89-82.94-114-118.64-171.17-27.93-44.73-56.8-91-90.08-135.35a4.57 4.57 0 017.32-5.47c33.5 44.67 62.48 91.09 90.52 136 35.52 56.9 72.26 115.74 117.89 170.14 34 40.48 79.51 88.68 130.85 102.2 12.38 3.26 71-7.06 140.14-67.65 22.15-19.4 48.44-46 72.15-73.08a4.57 4.57 0 016.87 6c-23.95 27.34-50.56 54.29-73 73.94C1965.05 1350.06 1909.05 1368.11 1884.25 1368.11zM2112.71 1228.37a4.58 4.58 0 01-4.06-6.68c4.15-8 13.58-20.29 25.52-35.88 33.28-43.47 89-116.21 84.3-171.87-4.62-54.77-50.18-83.36-98.43-113.63-6.59-4.14-13.22-8.3-19.81-12.56-6.3-4.08-12.6-8-18.82-12-25.16-15.85-48.93-30.81-68-49.85a4.57 4.57 0 016.46-6.46c18.31 18.31 41.65 33 66.37 48.57 6.25 3.94 12.58 7.93 18.91 12 6.56 4.23 13.16 8.37 19.71 12.48 50.23 31.52 97.68 61.29 102.67 120.61s-49.85 130.8-86.14 178.19c-11.67 15.24-20.89 27.27-24.66 34.54A4.58 4.58 0 012112.71 1228.37z" class="color571519 svgShape"></path><path fill="#152357" d="M1923.8,1283.46a4.73,4.73,0,0,1-1.11-.13,4.57,4.57,0,0,1-3.32-5.54c7.89-31.59-6.47-71.27-15.73-92.12-2.59-5.82-23.58-19.91-47.88-36.22-64.34-43.2-184.12-123.6-258.6-242.18a4.57,4.57,0,0,1,7.74-4.86c73.45,116.94,192.18,196.63,256,239.45,32.06,21.52,47.62,32.21,51.13,40.1,11.9,26.77,24.38,65.51,16.24,98A4.56,4.56,0,0,1,1923.8,1283.46Z" class="color571519 svgShape"></path><path fill="#152357" d="M1902.3 1175.2a4.57 4.57 0 01-3-8c21.19-18.53 47.49-50 65-73.37a4.57 4.57 0 017.3 5.5c-17.82 23.69-44.59 55.76-66.31 74.75A4.55 4.55 0 011902.3 1175.2zM1962.52 1084.2a4.57 4.57 0 01-3.19-7.85c16.26-15.82 31.4-32.64 46-48.9 23.93-26.57 46.53-51.67 68.52-65.74a4.57 4.57 0 014.92 7.7c-20.94 13.4-43.14 38.06-66.64 64.16-14.75 16.37-30 33.3-46.47 49.33A4.52 4.52 0 011962.52 1084.2zM1529.33 926a4.55 4.55 0 01-3.63-1.79c-15.63-20.31-13.5-49.17-11.63-74.64 1.22-16.47 2.36-32-2.43-39.21a4.57 4.57 0 017.6-5.07c6.54 9.78 5.34 26.08 4 45-1.75 23.83-3.75 50.84 9.76 68.39a4.58 4.58 0 01-3.62 7.36z" class="color571519 svgShape"></path><path fill="#152357" d="M1515,831.75c-7.91,0-17.52-7.25-26.82-15.23l-.89-.76a4.57,4.57,0,0,1,5.93-7l.91.77c10.81,9.28,18,13.61,21.37,13a4.57,4.57,0,1,1,1.72,9A11.61,11.61,0,0,1,1515,831.75Z" class="color571519 svgShape"></path><path fill="#152357" d="M1509.76,852.14c-10.47,0-24.42-6.14-29-9.84-9.72-7.77-17.33-25.66-17.33-40.72,0-10.29,3.37-18.42,9.75-23.53,8.54-6.83,21.58-5.29,31.1-4.18l3.16.36a338.47,338.47,0,0,0,35.5,2.19,4.57,4.57,0,0,1,0,9.14,345.56,345.56,0,0,1-36.46-2.24l-3.27-.37c-7.93-.93-18.77-2.21-24.32,2.24-5.23,4.18-6.32,11.22-6.32,16.39,0,12.39,6.24,27.45,13.9,33.58,6.77,5.42,23.92,9.65,26.65,7.34-.07,0,.16-2-3.33-7.23a4.57,4.57,0,1,1,7.6-5.07c5.71,8.56,6.35,15,1.92,19C1517,851.31,1513.62,852.14,1509.76,852.14Z" class="color571519 svgShape"></path><path fill="#152357" d="M1472.63,785.48a4.56,4.56,0,0,1-4.57-4.57c0-13,3.24-22.11,9.91-27.86,11.26-9.72,29.42-7,47-4.43,7.78,1.15,15.81,2.34,22.76,2.34a4.57,4.57,0,0,1,0,9.14c-7.62,0-16-1.24-24.1-2.44-15.51-2.3-31.56-4.67-39.65,2.31-4.54,3.91-6.74,10.76-6.74,20.94A4.57,4.57,0,0,1,1472.63,785.48Z" class="color571519 svgShape"></path><path fill="#152357" d="M1425.74,786a14.94,14.94,0,0,1-7.43-1.64,9,9,0,0,1-4.57-7.67c-.42-9.65,6.32-16,14.86-24.1,2.92-2.77,6.23-5.9,9.58-9.47,2-2.08,3.87-4.26,5.86-6.52a177.3,177.3,0,0,1,19.91-20c11.33-9.44,23.71-14.31,33.89-13.37,9.3.87,25.46,9.59,42.55,18.82,12.32,6.65,25.06,13.52,32.92,16a4.57,4.57,0,1,1-2.72,8.73c-8.7-2.71-21.25-9.48-34.54-16.65-14.82-8-31.61-17.06-39-17.76-7.66-.7-17.86,3.51-27.19,11.29-7.91,6.6-13.5,12.94-18.92,19.07-2.05,2.33-4,4.58-6,6.72-3.54,3.77-7,7-10,9.85-8.05,7.62-12.24,11.84-12,17.07,1.9,1.72,12.94-.71,17-2.86,8.39-4.42,14.18-9.29,20.32-14.44,6.6-5.54,13.42-11.27,23.44-16.15,4.62-2.26,15.61-3.64,22.32-.69a10.4,10.4,0,0,1,6.18,6.58,4.57,4.57,0,0,1-8.77,2.6c-.06-.23-.5-.55-1.09-.81-4-1.78-12.13-.69-14.64.53-9,4.39-15.1,9.51-21.56,14.94-6.24,5.23-12.68,10.64-21.94,15.53C1442.58,782.37,1433.56,786,1425.74,786Z" class="color571519 svgShape"></path><path fill="#152357" d="M1601.17 909.24a4.58 4.58 0 01-4.32-3.09c-10.18-29.58-6.11-62.85-2.84-89.58.45-3.71.89-7.32 1.28-10.79.29-2.59.64-5.29 1-8 1.8-13.87 3.84-29.59-.74-41.67-7.15-18.81-36.19-68.12-40.85-72-8.36-6.69-24.49-13.65-34.31-15.94-6.28-1.46-12.87-3.45-19.25-5.37-8-2.4-19.83-5.93-23.78-5.57.85 12.69 15.66 18.75 30 24.62 7 2.86 13.59 5.56 18.7 9.05 10.79 7.38 18.16 18.75 22.55 34.76a4.57 4.57 0 01-8.82 2.41c-3.84-14-9.84-23.44-18.89-29.62-4.31-3-10.48-5.47-17-8.15-15.84-6.48-35.57-14.56-35.71-34a7.54 7.54 0 013-6.28c5.25-3.93 14.79-1.31 32.61 4.05 6.24 1.88 12.69 3.82 18.69 5.22 10.75 2.51 28.31 10 37.94 17.71 7.32 5.85 37.18 58.79 43.68 75.9 5.4 14.23 3.21 31.16 1.27 46.09-.36 2.71-.7 5.35-1 7.89-.39 3.51-.84 7.14-1.3 10.89-3.16 25.8-7.08 57.91 2.41 85.5a4.58 4.58 0 01-2.83 5.81A4.9 4.9 0 011601.17 909.24zM1534.52 955.6a4.58 4.58 0 01-3.63-1.79c-3.41-4.45-8.92-8-14.74-11.69-5.17-3.3-10.52-6.72-14.78-11.09-8-8.26-12.78-17.94-17.39-27.31-1.44-2.94-2.89-5.89-4.45-8.82a4.57 4.57 0 018.07-4.3c1.6 3 3.1 6.06 4.59 9.09 4.48 9.13 8.72 17.75 15.73 25 3.52 3.62 8.2 6.61 13.15 9.77 6.23 4 12.68 8.1 17.07 13.83a4.57 4.57 0 01-3.62 7.35zM1516.8 1026a4 4 0 01-.75-.07c-50.92-8.4-118.47-13.62-172.74-17.81-42.61-3.3-79.41-6.14-98.25-9.64-39.17-7.29-170.93-66.23-230.67-100.68a4.57 4.57 0 114.57-7.92c57.86 33.37 190.11 92.61 227.78 99.61 18.35 3.41 54.92 6.24 97.28 9.51 54.45 4.21 122.21 9.45 173.52 17.92a4.57 4.57 0 01-.74 9.08zM1560.73 1570.66a4 4 0 01-.6 0 4.56 4.56 0 01-3.93-5.13 777 777 0 0115.5-83.77c5-21.76 9.8-42.32 13.69-77.35 4.35-39.09-3.67-91.81-11.42-142.8-7.2-47.35-14.64-96.32-12-133.88 2.16-30.15 11.74-60.39 19.44-84.68 1.3-4.12 2.56-8.1 3.74-11.93a4.57 4.57 0 018.74 2.69q-1.79 5.77-3.77 12c-7.55 23.83-17 53.5-19 82.57-2.61 36.54 4.76 85 11.88 131.86 7.85 51.57 16 104.9 11.48 145.18-4 35.56-8.77 56.37-13.88 78.41a771.06 771.06 0 00-15.34 82.9A4.58 4.58 0 011560.73 1570.66zM2086.42 1573a4.56 4.56 0 01-4.48-3.68c-3.67-18.35-7.22-31-10.65-43.28-6.44-23-12.52-44.78-18.61-99.63-6.48-58.35 29.28-128.76 63.88-196.85 7.77-15.3 15.11-29.75 22-44a4.57 4.57 0 018.24 4c-6.89 14.37-14.26 28.87-22.05 44.21-34 66.89-69.13 136.06-62.95 191.7 6 54.12 12 75.52 18.34 98.17 3.47 12.43 7.07 25.27 10.8 44a4.57 4.57 0 01-3.58 5.38A4.73 4.73 0 012086.42 1573zM694.67 588.27a35.2 35.2 0 01-3.8-.22c-17.73-1.92-40.12-6.16-56-22-5-5-10.85-12.73-10.58-21.47.16-5.32 2.55-10.07 7.11-14.09 5.74-5.07 12.89-8.73 19.8-12.27 3.8-2 7.4-3.8 10.67-5.82a4.57 4.57 0 014.8 7.78c-3.57 2.2-7.5 4.22-11.3 6.17-6.41 3.28-13 6.68-17.92 11-2.63 2.32-3.94 4.78-4 7.53-.13 4.26 2.68 9.49 7.91 14.71 13.81 13.77 33.3 17.54 50.55 19.4 5.21.56 7-.4 7.24-.69.68-1.47-3.19-8.27-10.24-12.08a106.31 106.31 0 00-14.8-6.79c-5-1.8-8.78-4.49-12.44-7.08a50 50 0 00-8.08-5 4.57 4.57 0 113.8-8.31 57.56 57.56 0 019.57 5.87c3.31 2.35 6.43 4.56 10.26 5.94a116.08 116.08 0 0116.05 7.35c8.93 4.84 17.06 14.94 14.61 22.83C706.93 583.84 704 588.27 694.67 588.27z" class="color571519 svgShape"></path><path fill="#152357" d="M672.31,614.46c-9.55,0-19.1-.91-26.84-3.81-14.35-5.37-25.67-17.19-28.17-29.42-1.32-6.51-.88-16.19,8.8-25.4a4.57,4.57,0,0,1,6.3,6.62c-5.34,5.08-7.4,10.78-6.14,16.95,1.86,9.12,11.08,18.45,22.41,22.69,11.76,4.4,30.12,3.38,42.92,2.23,8.84-.8,14.86-4.72,15.28-7.18.18-1-1.26-3.64-7.82-6.64a4.57,4.57,0,0,1,3.8-8.31c12.15,5.56,13.79,12,13,16.5-1.51,8.8-13.23,13.81-23.48,14.73C686.17,614,679.24,614.46,672.31,614.46Z" class="color571519 svgShape"></path><path fill="#152357" d="M656.06,642.38c-7.24,0-13.11-1.28-17.57-3.83-9.74-5.59-25.61-19.71-26.72-33.85-.53-6.7,2.25-12.69,8-17.34a4.57,4.57,0,1,1,5.73,7.11c-3.46,2.79-4.94,5.81-4.65,9.51.75,9.53,13.35,21.59,22.15,26.64,7.71,4.4,23.74,3.22,45.16-3.34,8.12-2.48,20.34-9.81,20.56-13.1,0-.15-.61-1.25-3.61-2.62a4.57,4.57,0,1,1,3.81-8.31c7.77,3.56,9.14,8.24,8.92,11.54-.83,12.46-26.74,21.15-27,21.23C677,640.25,665.41,642.37,656.06,642.38Z" class="color571519 svgShape"></path><path fill="#152357" d="M659.4 668.45c-10.35 0-19.87-4.29-29.83-13-4.51-3.94-11.24-9.81-12.13-17.07a22.31 22.31 0 011.23-9.39 24.34 24.34 0 00.94-4.07 4.57 4.57 0 019.09 1 31.55 31.55 0 01-1.26 5.64 14.81 14.81 0 00-.93 5.72c.47 3.79 6 8.64 9 11.25 15.15 13.23 27.33 14.19 46.58 3.73 11.23-6.1 17-10.89 17.16-14.24.08-1.61-1.86-3.27-3.5-4.38a4.57 4.57 0 015.12-7.57c5.21 3.52 7.74 7.69 7.51 12.39-.43 8.95-10.8 15.78-21.92 21.83C676.48 665.71 667.67 668.45 659.4 668.45zM1901.28 944.65a121.18 121.18 0 01-33.41-4.67c-53.27-15.22-86.68-66.89-85.12-131.64a4.57 4.57 0 014.57-4.46h.11a4.58 4.58 0 014.46 4.68c-1.46 60.45 29.35 108.59 78.49 122.63 59.44 17 125.86-17.1 169.32-86.81a4.57 4.57 0 017.75 4.83C2009.69 909.8 1955 944.65 1901.28 944.65zM2213.66 800.93a23.72 23.72 0 01-4.78-.49c-10-2.06-19.83-10.7-24-21-7.51-18.77 2.12-40.7 9.85-58.31 1.68-3.83 3.29-7.5 4.64-10.93 8.86-22.55 10.84-44.4 5.86-64.93-8.13-33.52-34.18-51.54-61.76-70.62-13.7-9.47-27.87-19.27-39.77-31.17-8.68-8.68-21.94-36.41-37.3-68.52-11.27-23.55-22.91-47.91-34.15-67.83-16.85-29.87-50.88-55.35-82.76-62-20.88-4.35-39.87-.6-54.93 10.79a4.57 4.57 0 11-5.52-7.29c17.23-13 38.77-17.35 62.31-12.46 34.82 7.24 70.53 33.94 88.86 66.44 11.39 20.19 23.11 44.68 34.44 68.38 14.37 30 27.94 58.43 35.52 66 11.31 11.31 25.13 20.87 38.5 30.12 27.77 19.21 56.5 39.07 65.44 76 5.43 22.39 3.33 46.09-6.23 70.42-1.39 3.54-3.05 7.32-4.78 11.26-7.42 16.89-15.82 36-9.73 51.25 3 7.52 10.29 14 17.31 15.47 4.93 1 9.4-.44 13.29-4.32 4.38-4.38 6.55-11.24 5.26-16.68a9.39 9.39 0 00-6.51-7.17 4.57 4.57 0 112.9-8.67 18.48 18.48 0 0112.51 13.74c2 8.48-1.09 18.63-7.7 25.24A23.55 23.55 0 012213.66 800.93z" class="color571519 svgShape"></path><path fill="#152357" d="M2216.5,842a30.67,30.67,0,0,1-5.06-.42,4.57,4.57,0,1,1,1.5-9c6.3,1,13-.76,18.92-5.08a34.89,34.89,0,0,0,13.81-22.67c3.26-22.81-2.76-36.68-18.42-42.42a4.57,4.57,0,0,1,3.15-8.58c13.78,5,29.19,18.22,24.32,52.29a44.2,44.2,0,0,1-17.46,28.75A35.23,35.23,0,0,1,2216.5,842Z" class="color571519 svgShape"></path><path fill="#152357" d="M2302.61,1089.62a23.58,23.58,0,0,1-11.46-3.14c-12.56-6.94-21.52-24.38-22-36.32-.79-18.93,6.36-34.46,13.28-49.48,2.87-6.24,5.84-12.69,8.24-19.36,13.58-37.7,3.5-85.61-23.44-111.42-10.14-9.72-22.72-14.16-36-18.86-13.72-4.85-27.91-9.86-39.12-21.08a4.57,4.57,0,0,1,6.46-6.46c9.75,9.75,22.36,14.2,35.7,18.92,13.65,4.82,27.76,9.8,39.31,20.87,29.87,28.63,40.68,79.57,25.72,121.13-2.53,7-5.59,13.67-8.54,20.09-6.76,14.68-13.15,28.54-12.45,45.27.38,9.25,7.86,23.48,17.3,28.7,4.74,2.62,9.24,2.65,13.74.08,4.88-2.79,10.69-10,10.86-15a4.8,4.8,0,0,0-2.49-4.47,4.57,4.57,0,1,1,5.07-7.6,14,14,0,0,1,6.56,12.38c-.33,9.6-9.43,19.17-15.47,22.63A22.57,22.57,0,0,1,2302.61,1089.62Z" class="color571519 svgShape"></path><path fill="#152357" d="M2253.47,1139.15a62.4,62.4,0,0,1-6.44-.33,54.14,54.14,0,0,1-39.5-23.07,4.57,4.57,0,1,1,7.43-5.31,45.32,45.32,0,0,0,33,19.29c18.56,1.9,40-6,55.85-20.66,9.92-9.15,20-24.34,20.31-37.64a21.26,21.26,0,0,0-6.49-16.23,4.57,4.57,0,0,1,6.46-6.46,30.32,30.32,0,0,1,9.17,22.88c-.34,17.08-12.74,34.46-23.25,44.17C2294.06,1130.52,2272.92,1139.14,2253.47,1139.15Z" class="color571519 svgShape"></path><path fill="#152357" d="M2208.33 1147.68a56.47 56.47 0 01-27.66-6.93 4.57 4.57 0 014.46-8c14.26 8 33.92 7.52 51.31-1.18a4.57 4.57 0 114.09 8.18A72.25 72.25 0 012208.33 1147.68zM1577.48 1063.28a4.56 4.56 0 01-2.58-.8c-12.36-8.47-24.71-11.79-35.61-14.73-6.22-1.67-12.09-3.25-17.28-5.6-15.06-6.81-16.19-13.92-16.17-15.94a5.26 5.26 0 012.87-4.55 4.79 4.79 0 015 .85c1.66 1.51 2.71 1.8 3 1.7 1.8-.81 6.85-9.84 6.53-39.71-.12-11.42-1.14-24-3.33-40.9a4.57 4.57 0 019.07-1.17c2.23 17.24 3.28 30.19 3.4 42 .29 26.68-3.27 42.6-10.58 47.41 1.13.65 2.45 1.32 4 2 4.52 2 10 3.53 15.9 5.11 11.6 3.12 24.75 6.66 38.39 16a4.57 4.57 0 01-2.58 8.34zM2111.87 1228.41a4.22 4.22 0 01-1.11-.14c-65.73-16.43-140.3-95.92-153-147.06a4.57 4.57 0 018.88-2.2c12 48.33 85.07 125.09 146.3 140.4a4.57 4.57 0 01-1.1 9z" class="color571519 svgShape"></path><path fill="#ffffff" fill-rule="evenodd" d="M1863.15,708.16a250.11,250.11,0,0,1,39.13-10.94c19.68-3.64,40.1-6.08,40.1-6.08s-2.19,41.08-29.9,47.16C1883.28,744.7,1863.15,708.16,1863.15,708.16Z" class="colorffffff svgShape"></path><path fill="#152357" d="M1905.49 743.64c-27.67 0-45.54-31.8-46.35-33.28a4.57 4.57 0 012.37-6.47 252.22 252.22 0 0139.94-11.16c19.59-3.63 40.18-6.1 40.38-6.13a4.64 4.64 0 013.67 1.21 4.55 4.55 0 011.44 3.58c-.1 1.82-2.73 44.63-33.48 51.37A37.19 37.19 0 011905.49 743.64zm-35.41-33.1c6.23 9 21.79 27.57 41.42 23.3 18.31-4 24-26.76 25.66-37.43-7.44 1-21 2.88-34.05 5.31A244.35 244.35 0 001870.08 710.54zM1514.28 894H667.43a4.58 4.58 0 01-4.57-4.58V669.87a4.57 4.57 0 019.14 0v215h837.71V854.29a4.57 4.57 0 019.14 0V889.4A4.57 4.57 0 011514.28 894zM1514.28 712.41a4.58 4.58 0 01-4.57-4.57V695.55a4.57 4.57 0 019.14 0v12.29A4.57 4.57 0 011514.28 712.41zM1514.28 658.89a4.57 4.57 0 01-4.57-4.57V360.6H672V544.36a4.57 4.57 0 11-9.14 0V356a4.57 4.57 0 014.57-4.57h846.85a4.56 4.56 0 014.57 4.57V654.32A4.56 4.56 0 011514.28 658.89z" class="color571519 svgShape"></path><path fill="#152357" d="M1095.52,604.93a4.54,4.54,0,0,1-2.25-.6L668,363.23a4.57,4.57,0,0,1,4.5-8l423,239.82,414.15-240.75a4.58,4.58,0,0,1,4.6,7.91L1097.82,604.31A4.59,4.59,0,0,1,1095.52,604.93Z" class="color571519 svgShape"></path><path fill="#ffffff" fill-rule="evenodd" d="M1355.3,394.48c0-59.78,49-108.25,109.47-108.25s109.47,48.47,109.47,108.25-49,108.25-109.47,108.25S1355.3,454.26,1355.3,394.48Z" class="colorffffff svgShape"></path><path fill="#152357" d="M1464.77 507.3c-62.89 0-114-50.61-114-112.82s51.15-112.82 114-112.82 114 50.61 114 112.82S1527.65 507.3 1464.77 507.3zm0-216.5c-57.84 0-104.9 46.51-104.9 103.68s47.06 103.68 104.9 103.68 104.9-46.51 104.9-103.68S1522.61 290.8 1464.77 290.8zM2187.6 1611.37a4.58 4.58 0 01-4.57-4.57V1144.92a4.57 4.57 0 019.14 0V1606.8A4.57 4.57 0 012187.6 1611.37zM2187.6 602.08a4.57 4.57 0 01-4.57-4.57V569c0-16.08-12.5-29.17-27.86-29.17h-45.42a4.57 4.57 0 010-9.14h45.42c20.4 0 37 17.18 37 38.31v28.54A4.56 4.56 0 012187.6 602.08zM1678.51 539.8H1518.78a4.57 4.57 0 110-9.14h159.73a4.57 4.57 0 010 9.14zM562 1613.18a4.57 4.57 0 01-4.57-4.57V569c0-21.13 16.6-38.31 37-38.31h34a4.57 4.57 0 010 9.14h-34c-15.36 0-27.86 13.09-27.86 29.17V1608.61A4.56 4.56 0 01562 1613.18z" class="color571519 svgShape"></path><path fill="#152357" d="M2404,1659.66H346.17a17.52,17.52,0,0,1-17.46-17.54v-16.47a17.52,17.52,0,0,1,17.46-17.54H2404a17.52,17.52,0,0,1,17.46,17.54v16.47A17.52,17.52,0,0,1,2404,1659.66ZM346.17,1617.25a8.37,8.37,0,0,0-8.32,8.4v16.47a8.37,8.37,0,0,0,8.32,8.4H2404a8.37,8.37,0,0,0,8.32-8.4v-16.47a8.37,8.37,0,0,0-8.32-8.4Z" class="color571519 svgShape"></path><path fill="#152357" d="M2317.6 1683.83h-1885c-6.63 0-71.24-18-90.88-23.5a4.57 4.57 0 012.47-8.81c31.45 8.83 83.28 22.93 88.46 23.17h1885c5.13-.25 55.71-14.44 86.37-23.33a4.57 4.57 0 012.54 8.79C2387.34 1665.7 2324.26 1683.83 2317.6 1683.83zM2157 1576.53H594.49a4.58 4.58 0 01-4.57-4.57V586.68a4.58 4.58 0 014.57-4.57h24a4.57 4.57 0 010 9.14H599.06v976.13H2152.43v-398a4.57 4.57 0 019.14 0V1572A4.57 4.57 0 012157 1576.53zM1669.62 591.25H1518.38a4.57 4.57 0 010-9.14h151.24a4.57 4.57 0 110 9.14z" class="color571519 svgShape"></path><path fill="#152357" fill-rule="evenodd" d="M1482.42,433.48q4.36,1.14,6.27,3.52a8,8,0,0,1,1.89,5,7.12,7.12,0,0,1-2.09,4.93,13.1,13.1,0,0,1-6.64,3.42h-29.24q-4.93-.37-7.21-2.94a8,8,0,0,1-2.28-5.41,8.55,8.55,0,0,1,2.47-5.79c1.64-1.84,4.24-2.76,7.78-2.76H1457V359.25a10.94,10.94,0,0,1-3.8.57,8.79,8.79,0,0,1-6.36-2.28,7.37,7.37,0,0,1-2.37-5.51,8.14,8.14,0,0,1,.85-3.51,10.56,10.56,0,0,1,2.56-3.32l13.86-9.12a16.11,16.11,0,0,1,4.94-.95q7.21,0,9.12,7v91.32Z" class="color571519 svgShape"></path></g></svg>