<svg xmlns="http://www.w3.org/2000/svg" viewBox="0 0 2000 2000" id="Emailmarketing"><g fill="#021b79" class="color000000 svgShape"><path fill="#d2d2d2" d="M496,828.68c-3.24-.74-6.52-1.6-9.74-2.55l.7-2.4c3.18.94,6.41,1.78,9.6,2.52ZM476.67,823c-3.14-1.13-6.3-2.36-9.38-3.67l1-2.3c3,1.29,6.15,2.51,9.24,3.61Zm-18.54-7.85c-3-1.48-6-3.06-8.91-4.7l1.23-2.18c2.87,1.62,5.83,3.18,8.79,4.63Zm-17.54-9.87c-2.82-1.79-5.62-3.69-8.35-5.63l1.46-2c2.69,1.93,5.46,3.8,8.23,5.56Zm-16.37-11.7c-2.62-2.09-5.2-4.28-7.69-6.5l1.66-1.87c2.46,2.2,5,4.35,7.59,6.41Zm-15-13.39c-2.37-2.36-4.71-4.81-6.95-7.28l1.85-1.68c2.21,2.44,4.52,4.86,6.86,7.18Zm-13.5-14.92c-2.11-2.6-4.17-5.29-6.13-8l2-1.47c1.93,2.67,4,5.32,6.05,7.88ZM383.88,749c-1.81-2.82-3.57-5.72-5.21-8.62l2.18-1.23c1.62,2.86,3.35,5.72,5.13,8.49ZM374,731.47c-1.49-3-2.9-6.09-4.19-9.16l2.3-1c1.28,3,2.67,6.06,4.13,9Zm-24-1.37a70.4,70.4,0,0,1-10.07-1.45l.53-2.44a68.56,68.56,0,0,0,9.72,1.4Zm10.18,0-.2-2.49a61.87,61.87,0,0,0,9.67-1.54l.59,2.43A64.5,64.5,0,0,1,360.1,730.06Zm-30-4.28a70.38,70.38,0,0,1-9.24-4.26l1.21-2.19a67.22,67.22,0,0,0,8.91,4.1Zm49.74-.54-1-2.3q1.32-.57,2.61-1.2a51.63,51.63,0,0,0,6-3.47l1.39,2.08a53.46,53.46,0,0,1-6.25,3.63C381.65,724.42,380.75,724.84,379.83,725.24Zm-67.49-9.31a62.27,62.27,0,0,1-7.53-6.86l1.83-1.7a60.57,60.57,0,0,0,7.23,6.59Zm84.36-2.08-1.77-1.77a43.63,43.63,0,0,0,6.07-7.57l2.12,1.33A46.52,46.52,0,0,1,396.7,713.85Zm-30.57-.93q-.76-2.14-1.47-4.32c-.57-1.76-1.07-3.56-1.51-5.36l2.44-.59c.41,1.74.9,3.49,1.45,5.18q.69,2.13,1.44,4.26ZM298.53,701a60,60,0,0,1-4.8-9l2.3-1a57.34,57.34,0,0,0,4.59,8.63Zm108.86-4.58-2.4-.7a29.67,29.67,0,0,0,1.2-8.25c0-.41,0-.82,0-1.22l2.5-.11c0,.44,0,.89,0,1.33A32,32,0,0,1,407.39,696.45Zm-45.89-3.26c-.13-1.62-.2-3.23-.2-4.76a45.89,45.89,0,0,1,.31-5.47l2.48.29a43.21,43.21,0,0,0-.29,5.17c0,1.47.06,3,.19,4.56Zm-71-10.82a68.22,68.22,0,0,1-1.71-10l2.49-.24a64.67,64.67,0,0,0,1.65,9.67Zm113.24-5.17a27.06,27.06,0,0,0-5.71-7.59l1.7-1.83a29.58,29.58,0,0,1,6.25,8.3ZM366.59,674,364.32,673a22.18,22.18,0,0,1,6.49-8.24l1.53,2A19.55,19.55,0,0,0,366.59,674ZM390,664.49A19.58,19.58,0,0,0,382.8,663h0a16,16,0,0,0-2,.12l-.3-2.49a21.21,21.21,0,0,1,2.25-.13h0a22.24,22.24,0,0,1,8.15,1.62Zm-99-2.2-2.5-.12a71.62,71.62,0,0,1,1.24-10.1l2.46.48A68.19,68.19,0,0,0,291.05,662.29Zm3.78-19.2-2.35-.83a66.87,66.87,0,0,1,4.1-9.31l2.21,1.18A64.8,64.8,0,0,0,294.83,643.09Zm9.26-17.19-2-1.52a59.5,59.5,0,0,1,6.87-7.54l1.7,1.84A56.59,56.59,0,0,0,304.09,625.9Z" class="colord2d2d2 svgShape"></path><rect width="167.5" height="75" x="222.91" y="557.75" fill="#ededed" rx="28.85" class="colorededed svgShape"></rect><circle cx="267.48" cy="595.25" r="11.4" fill="#ffffff" transform="rotate(-1.36 268.051 596.417)" class="colorffffff svgShape"></circle><circle cx="306.66" cy="595.25" r="11.4" fill="#ffffff" transform="rotate(-2.6 306.37 594.656)" class="colorffffff svgShape"></circle><circle cx="345.84" cy="595.25" r="11.4" fill="#ffffff" transform="rotate(-2.6 345.388 594.66)" class="colorffffff svgShape"></circle><path fill="#ffffff" d="M477.88,427.5V973.41a63.3,63.3,0,0,0,63.3,63.3h917.64a63.3,63.3,0,0,0,63.3-63.3V427.5Z" class="colorffffff svgShape"></path><path fill="#d2d2d2" d="M1458.82,1039.21H541.18a65.88,65.88,0,0,1-65.8-65.8V425H1524.62V973.41A65.88,65.88,0,0,1,1458.82,1039.21ZM480.38,430V973.41a60.87,60.87,0,0,0,60.8,60.8h917.64a60.87,60.87,0,0,0,60.8-60.8V430Z" class="colord2d2d2 svgShape"></path><path fill="#d2d2d2" d="M1522.12,396.32a63.3,63.3,0,0,0-63.3-63.3H541.18a63.3,63.3,0,0,0-63.3,63.3V427.5H1522.12Z" class="colord2d2d2 svgShape"></path><path fill="#d2d2d2" d="M1524.62,430H475.38V396.32a65.88,65.88,0,0,1,65.8-65.8h917.64a65.88,65.88,0,0,1,65.8,65.8ZM480.38,425H1519.62V396.32a60.87,60.87,0,0,0-60.8-60.8H541.18a60.87,60.87,0,0,0-60.8,60.8Z" class="colord2d2d2 svgShape"></path><circle cx="592.1" cy="380.26" r="22.72" fill="#ffffff" transform="rotate(-80.1 592.084 380.26)" class="colorffffff svgShape"></circle><circle cx="670.22" cy="380.26" r="22.72" fill="#ffffff" transform="rotate(-80.72 670.185 380.268)" class="colorffffff svgShape"></circle><circle cx="748.35" cy="380.26" r="22.72" fill="#ffffff" transform="rotate(-81.05 748.324 380.266)" class="colorffffff svgShape"></circle><rect width="156.67" height="41.67" x="1239.17" y="359.43" fill="#ffffff" rx="20.83" class="colorffffff svgShape"></rect><rect width="278.75" height="30" x="860.63" y="498.75" fill="#0575e6" class="color599bff svgShape"></rect><rect width="666.67" height="41.67" x="666.67" y="880.83" fill="#ffffff" class="colorffffff svgShape"></rect><path fill="#d2d2d2" d="M1334.58,923.75H665.42V879.58h669.16Zm-666.66-2.5h664.16V882.08H667.92Z" class="colord2d2d2 svgShape"></path><rect width="354.33" height="19.77" x="666.67" y="891.78" fill="#d2d2d2" class="colord2d2d2 svgShape"></rect><polygon fill="#66b2ff" points="798.04 702.58 798.04 663.21 817.73 682.89 798.04 702.58" class="colorffd966 svgShape"></polygon><polygon fill="#66b2ff" points="835.52 702.58 835.52 663.21 855.21 682.89 835.52 702.58" class="colorffd966 svgShape"></polygon><polygon fill="#66b2ff" points="1159.16 699.54 1159.16 660.16 1178.84 679.85 1159.16 699.54" class="colorffd966 svgShape"></polygon><polygon fill="#66b2ff" points="1196.64 699.54 1196.64 660.16 1216.32 679.85 1196.64 699.54" class="colorffd966 svgShape"></polygon><rect width="140.67" height="172.74" x="597.5" y="598.63" fill="#ffffff" rx="11.29" class="colorffffff svgShape"></rect><path d="M726.88,772.62H608.8a12.56,12.56,0,0,1-12.55-12.54V609.92a12.56,12.56,0,0,1,12.55-12.54H726.88a12.55,12.55,0,0,1,12.54,12.54V760.08A12.55,12.55,0,0,1,726.88,772.62ZM608.8,599.88a10.05,10.05,0,0,0-10,10V760.08a10.05,10.05,0,0,0,10,10H726.88a10,10,0,0,0,10-10V609.92a10,10,0,0,0-10-10Z" fill="#021b79" class="color000000 svgShape"></path><rect width="22.27" height="9.8" x="618.9" y="618.23" fill="#0575e6" class="color599bff svgShape"></rect><rect width="37.41" height="1.88" x="653.48" y="622.19" fill="#021b79" class="color000000 svgShape"></rect><rect width="23.93" height="1.88" x="618.9" y="650.49" fill="#021b79" class="color000000 svgShape"></rect><rect width="47.77" height="1.88" x="618.9" y="664.1" fill="#021b79" class="color000000 svgShape"></rect><rect width="97.88" height="1.88" x="618.9" y="677.71" fill="#021b79" class="color000000 svgShape"></rect><rect width="82.94" height="1.88" x="618.9" y="691.32" fill="#021b79" class="color000000 svgShape"></rect><rect width="41.52" height="1.88" x="618.9" y="704.93" fill="#021b79" class="color000000 svgShape"></rect><rect width="97.88" height="1.88" x="618.9" y="718.54" fill="#021b79" class="color000000 svgShape"></rect><rect width="26.28" height="1.88" x="690.5" y="732.15" fill="#021b79" class="color000000 svgShape"></rect><rect width="186.14" height="117.72" x="914.28" y="649.11" fill="#021b79" class="color000000 svgShape"></rect><rect width="141.62" height="156.58" x="936.54" y="600.04" fill="#ffffff" rx="10.79" class="colorffffff svgShape"></rect><path d="M1067.38,757.87H947.32a12.05,12.05,0,0,1-12-12v-135a12.05,12.05,0,0,1,12-12h120.06a12.05,12.05,0,0,1,12,12v135A12.05,12.05,0,0,1,1067.38,757.87ZM947.32,601.29a9.54,9.54,0,0,0-9.53,9.54v135a9.54,9.54,0,0,0,9.53,9.54h120.06a9.55,9.55,0,0,0,9.53-9.54v-135a9.55,9.55,0,0,0-9.53-9.54Z" fill="#021b79" class="color000000 svgShape"></path><rect width="82.31" height="1.88" x="965.5" y="633.97" fill="#021b79" class="color000000 svgShape"></rect><rect width="65.29" height="1.88" x="965.5" y="648.72" fill="#021b79" class="color000000 svgShape"></rect><rect width="83.7" height="1.88" x="965.5" y="663.48" fill="#021b79" class="color000000 svgShape"></rect><polyline fill="#597cff" points="914.28 649.11 989.48 702.39 914.28 766.82" class="colorff5970 svgShape"></polyline><polyline fill="#597cff" points="1100.42 649.11 1024.69 702.92 1100.42 766.82" class="colorff5970 svgShape"></polyline><polygon points="1100.42 750.01 1100.42 766.83 1074.34 766.83 1038.89 692.67 1100.42 750.01" opacity=".2" fill="#021b79" class="color000000 svgShape"></polygon><polygon points="914.28 750.01 914.28 766.83 940.36 766.83 975.81 692.67 914.28 750.01" opacity=".2" fill="#021b79" class="color000000 svgShape"></polygon><path fill="#597cff" d="M973.86,694.75l-59.58,72.07h186.14l-59.58-72.07c-5.61-6.79-13.36-10.62-21.46-10.62H995.32C987.22,684.13,979.47,688,973.86,694.75Z" class="colorff5970 svgShape"></path><circle cx="1339.51" cy="679.85" r="64.12" fill="#ffffff" transform="rotate(-45 1339.512 679.846)" class="colorffffff svgShape"></circle><path d="M1339.51,745.21a65.37,65.37,0,1,1,65.37-65.36A65.43,65.43,0,0,1,1339.51,745.21Zm0-128.23a62.87,62.87,0,1,0,62.87,62.87A62.94,62.94,0,0,0,1339.51,617Z" fill="#021b79" class="color000000 svgShape"></path><ellipse cx="1339.51" cy="664.14" rx="12.8" ry="15.2" fill="#021b79" class="color000000 svgShape"></ellipse><path d="M1367.26,710.76h-55.5v-.14a28.65,28.65,0,0,1,20.82-27.55l6.6-1.87,7.09,2a28.65,28.65,0,0,1,21,27.6Z" fill="#021b79" class="color000000 svgShape"></path><rect width="14.89" height="14.52" x="1332.06" y="672.9" fill="#021b79" class="color000000 svgShape"></rect><circle cx="1389.84" cy="619.12" r="38.17" fill="#597cff" class="colorff5970 svgShape"></circle><path fill="#ffffff" d="M1370.06 628a13.52 13.52 0 002.72 0 10.67 10.67 0 005.26-1.64 8.28 8.28 0 003.38-4.94l-.13 0a7.06 7.06 0 01-5.34 1.93 8.06 8.06 0 01-8.36-8.35 9.73 9.73 0 0110.08-9.63c6.87 0 10.13 5.27 10.13 11.53 0 5.55-1.78 9.62-4.7 12.3a15.79 15.79 0 01-10.2 3.74 22.21 22.21 0 01-2.84 0zm3.79-13.41c0 2.31 1.23 4.28 3.78 4.28a3.94 3.94 0 003.46-1.77 3 3 0 00.33-1.56c0-2.84-1.07-5.64-3.91-5.64C1375.37 609.88 1373.81 611.77 1373.85 614.57zM1403.49 610.62v9h8.59v3.87h-8.59v9h-4v-9h-8.6v-3.87h8.6v-9z" class="colorffffff svgShape"></path><path d="M1384.45 1777a2.57 2.57 0 01-.72-.11 2.5 2.5 0 01-1.67-3.11l114.83-382.16a2.5 2.5 0 014.79 1.44l-114.83 382.16A2.51 2.51 0 011384.45 1777zM1713.89 1777a2.51 2.51 0 01-2.39-1.78l-114.83-382.16a2.5 2.5 0 014.79-1.44l114.83 382.16a2.5 2.5 0 01-1.68 3.11A2.57 2.57 0 011713.89 1777z" fill="#021b79" class="color000000 svgShape"></path><path fill="#ededed" d="M1348.31,1409.14l258.61-1.3a109.35,109.35,0,0,0,103.61-76.09l52.67-218-192.93-73.42Z" class="colorededed svgShape"></path><path d="M1343.87,1411.66l225.33-374.39,2,.75,195,74.2L1713,1332.34a111.6,111.6,0,0,1-106,78Zm227.46-368.23-218.58,363.19,254.16-1.28A106.59,106.59,0,0,0,1708.15,1331l52.1-215.67Z" fill="#021b79" class="color000000 svgShape"></path><path fill="#d2d2d2" d="M829.39,1451.86H657.8v-78.14H829.39Zm-166.59-5H824.39v-68.14H662.8Z" class="colord2d2d2 svgShape"></path><path fill="#d2d2d2" d="M740,1525H568.4v-78.14H740Zm-166.6-5H735v-68.14H573.4Z" class="colord2d2d2 svgShape"></path><path fill="#ededed" d="M1745,607.22c-39.75,0-72.28,32.22-72,72,.12,16.23,4.5,30.39,15.12,43.1-4.37,9.79-16.41,17.46-29.12,22.87,17.88,4.22,34.54.67,45.56-6.42A72,72,0,1,0,1745,607.22Z" class="colorededed svgShape"></path><path d="M1745.3,706.47l-24.7-30a1.5,1.5,0,1,1,2.32-1.9L1744.7,701,1770,651.25a1.5,1.5,0,1,1,2.68,1.36Z" fill="#021b79" class="color000000 svgShape"></path><path fill="#929292" d="M1211.1,1656.5l-37.32,116.92-148.52-64.89c23.75-31.15,65-38.65,98.13-28.65l13.75-54.38Z" class="color929292 svgShape"></path><path fill="#597cff" d="M1622.94,1189.06l.76,82.87-285.63,103.32-113.34,298.81-125-50,64.93-290.54a140.3,140.3,0,0,1,29.41-59.27h0a140.24,140.24,0,0,1,88.44-48.74L1528.88,1192Z" class="colorff5970 svgShape"></path><path fill="#d2d2d2" d="M1262.48,1649.66,1222.8,1774,1056,1705c29-27.14,62.43-34.31,100.15-22.45l23.5-66.41Z" class="colord2d2d2 svgShape"></path><path fill="#597cff" d="M1680.56,1264.43a94,94,0,0,1-89.87,94.75l-195.78,8.57-124.57,323.83-15.93-6.38-78.87-31.55-30.2-12.07,83.7-348.75a95,95,0,0,1,74.57-68.18l175.93-32,22-4,178.2-7.1.5,52.63Z" class="colorff5970 svgShape"></path><polygon points="1680.29 1234.18 1479.54 1192.65 1501.59 1188.65 1679.79 1181.55 1680.29 1234.18" opacity=".2" fill="#021b79" class="color000000 svgShape"></polygon><path d="M1145.34 1643.07a2 2 0 01-.34 0 1.5 1.5 0 01-1.12-1.8l81.35-350.92a87.08 87.08 0 0169.35-66l46.67-8.41a1.5 1.5 0 11.53 2.95l-46.67 8.42a84 84 0 00-66.95 63.72L1146.8 1641.9A1.5 1.5 0 011145.34 1643.07zM1172.77 1714.88a2.5 2.5 0 01-2.2-1.31l-16.25-30a2.5 2.5 0 114.39-2.39l16.25 30a2.5 2.5 0 01-1 3.39A2.46 2.46 0 011172.77 1714.88z" fill="#021b79" class="color000000 svgShape"></path><path fill="#ffffff" d="M1257.58,1625.88c-17.18-8.7-31.36-22.08-47.29-32.71a130.33,130.33,0,0,0-48.6-19.72l-.64,2.66a133.18,133.18,0,0,1,52.08,22c16.12,11.35,31,25.08,49.38,32.74a74.11,74.11,0,0,0,29,5.57l1-2.67A72.5,72.5,0,0,1,1257.58,1625.88Z" class="colorffffff svgShape"></path><rect width="62.82" height="85" x="1512.26" y="789.5" fill="#78bbff" class="colorff8f78 svgShape"></rect><path d="M1562.76,822.68c-7.2,15.12-31.15,34-50.5,42.17V816Z" fill="#021b79" class="color000000 svgShape"></path><path fill="#78bbff" d="M1571.92,789.6l-2,8.15-6.84,27.75c-.93.62-1.91,1.25-3,1.85-12,7-32.32,12.57-47.85,12.12-7.75-.22-14.29-1.92-18.1-5.72-5.17-5.18-8.52-14.82-10.65-25.75-1-5-1.69-10.2-2.25-15.43-1.17-11.32-1.44-22.55-1.44-30.6,0-7.17.19-11.82.19-11.82l42.71-20.75,41.87,12.2,3.73,24.45,1.92,12.57,1.65,10.88Z" class="colorff8f78 svgShape"></path><path d="M1579.05,778.41c16.77-56.73,1.22-97.9-76.86-68.62-67.1-34.46-79.91,97.6,40,36a57.53,57.53,0,0,1,24.1,32.94Z" fill="#021b79" class="color000000 svgShape"></path><ellipse cx="1573.15" cy="781.46" fill="#78bbff" rx="16.67" ry="15.45" transform="rotate(-67.61 1573.128 781.462)" class="colorff8f78 svgShape"></ellipse><path d="M1504.38 801.67a1.24 1.24 0 01-.64-.18l-1.07-.6c-2.16-1.18-5.12-2.81-3.4-6.65a10.08 10.08 0 012.14-2.91 6.75 6.75 0 002.34-4.77 1.25 1.25 0 012.5.21 9.23 9.23 0 01-3 6.3 7.47 7.47 0 00-1.66 2.19c-.71 1.58-.19 2.06 2.32 3.44.38.21.77.42 1.14.64a1.25 1.25 0 01-.63 2.33zM1512.91 770.32c-.58 1.82 3.4 2.41 8.73 2.91s10.91 1.87 11 .61-4.78-5.47-10.11-6S1513.88 767.32 1512.91 770.32zM1499.32 772.49c.36 1.84-3.06 2.28-7.61 2.57s-9.38 1.46-9.39.2 4.46-5.27 9-5.56S1498.73 769.47 1499.32 772.49zM1508.78 813.83a14.31 14.31 0 01-6.42-1.46 1.25 1.25 0 111.12-2.24c6.12 3.06 14.09-.35 17.26-3.88a1.25 1.25 0 111.86 1.67A19.82 19.82 0 011508.78 813.83z" fill="#021b79" class="color000000 svgShape"></path><ellipse cx="1519.17" cy="783.23" rx="3.12" ry="4.06" fill="#021b79" class="color000000 svgShape"></ellipse><ellipse cx="1493.54" cy="783.23" rx="3.12" ry="4.06" fill="#021b79" class="color000000 svgShape"></ellipse><circle cx="1536.25" cy="793.75" r="7.81" fill="#597cff" opacity=".4" class="colorff5970 svgShape"></circle><path fill="#597cff" d="M1490,800.3a7.79,7.79,0,0,1-6.48,7.7c-1-5-1.69-10.2-2.25-15.43a5.91,5.91,0,0,1,.93-.07A7.81,7.81,0,0,1,1490,800.3Z" opacity=".4" class="colorff5970 svgShape"></path><path d="M1569.69,790.94a1.25,1.25,0,0,1-1.22-1c-1.17-5.06-.53-9.71,1.76-12.74a8.57,8.57,0,0,1,6.58-3.48,1.27,1.27,0,0,1,1.31,1.18,1.25,1.25,0,0,1-1.18,1.32,6.12,6.12,0,0,0-4.71,2.48c-1.84,2.45-2.33,6.34-1.32,10.68a1.26,1.26,0,0,1-.94,1.5Z" fill="#021b79" class="color000000 svgShape"></path><path fill="#66b2ff" d="M1808.26,1086.6l-108.35-.45v90a25.63,25.63,0,0,1-25.8,25.65l-236.35-1.78a22.76,22.76,0,0,1-22.47-25l8.8-86.35-57.5-83.75,13.47-48a105.68,105.68,0,0,1,69.08-72l63.73-20.68L1545,874.38l22.43-14.45,73.88,9.45a116.8,116.8,0,0,1,88,60.32l67.28,124.45A116.31,116.31,0,0,1,1808.26,1086.6Z" class="colorffd966 svgShape"></path><path d="M1478.92,1044.45l14.55-.35,125-58.27a5.83,5.83,0,1,0-4.93-10.57l-125,58.27Z" fill="#021b79" class="color000000 svgShape"></path><polygon fill="#66b2ff" points="1512.35 855.29 1544.57 874.67 1519.58 897.5 1484.85 874.04 1512.35 855.29" class="colorffd966 svgShape"></polygon><polygon fill="#66b2ff" points="1544.57 874.67 1570.83 894.58 1594.85 863.21 1575.27 849.88 1544.57 874.67" class="colorffd966 svgShape"></polygon><path d="M1519.72,898.54,1484,875.3a1.5,1.5,0,1,1,1.64-2.51l33.78,22,25-22L1571,892.09l22.7-29.79a1.5,1.5,0,0,1,2.39,1.82l-24.49,32.12-26.89-19.64Z" fill="#021b79" class="color000000 svgShape"></path><path d="M1699.91,1094.15v82a25.89,25.89,0,0,1-.85,6.57c-40.91-20.13-79.42-51.92-116.65-89.92Z" opacity=".2" fill="#021b79" class="color000000 svgShape"></path><path fill="#78bbff" d="M1614.09,1021.15l-44.26-36.6a8.25,8.25,0,0,0-9.49-.73l-34.85,20.51a6.21,6.21,0,0,0-2.75,3.42l-4.28,13.08c-2.6,5-3.51,10.53-3.65,16.33a4.34,4.34,0,0,0,3.65,5.24h0l-.64,13.72a6.62,6.62,0,0,0,6,6.9h0l1.9,8.15a5.46,5.46,0,0,0,7.62,3.71l16.1-7.48,33,25.42,33.87-28.24Z" class="colorff8f78 svgShape"></path><path d="M1517.81 1022.63a1.5 1.5 0 01-.55-2.9l30.45-12.06a1.5 1.5 0 011.1 2.79l-30.45 12.06A1.5 1.5 0 011517.81 1022.63zM1518.46 1043.9a1.5 1.5 0 01-.57-2.89l22.5-9.37a1.5 1.5 0 111.15 2.77l-22.5 9.37A1.47 1.47 0 011518.46 1043.9zM1523.78 1064.52a1.49 1.49 0 01-1.28-.71 1.5 1.5 0 01.49-2.06l18.65-11.46a1.5 1.5 0 111.57 2.55l-18.65 11.46A1.46 1.46 0 011523.78 1064.52z" fill="#021b79" class="color000000 svgShape"></path><path fill="#66b2ff" d="M1810.49,1113.62a52.73,52.73,0,0,1-73.78,46.5l-154.3-67.3,31.68-71.67,194.17,65.45A115.25,115.25,0,0,1,1810.49,1113.62Z" class="colorffd966 svgShape"></path><path d="M1759.43 1074.29a1.45 1.45 0 01-.5-.08l-145.34-51.65a1.5 1.5 0 011-2.83l145.34 51.65a1.5 1.5 0 01-.5 2.91zM1432.05 1067.7a1.5 1.5 0 01-1.5-1.4l-6.71-106.15a1.5 1.5 0 013-.19l6.72 106.15a1.5 1.5 0 01-1.4 1.59z" fill="#021b79" class="color000000 svgShape"></path><path d="M1694.33,1050.19a1.5,1.5,0,0,1-1.43-1L1666,963.81a1.5,1.5,0,1,1,2.86-.9l26.87,85.33a1.5,1.5,0,0,1-1,1.88A1.41,1.41,0,0,1,1694.33,1050.19Z" fill="#021b79" class="color000000 svgShape"></path><polygon fill="#0575e6" points="1284.09 992.4 1429.09 994.9 1526.59 1163.65 1377.84 1161.15 1284.09 992.4" class="color599bff svgShape"></polygon><path d="M1335.41,991.14l5.52,10.46a3.28,3.28,0,0,0,2.83,1.76l29.82.76a3.29,3.29,0,0,0,3.11-4.59l-4.35-10.22a3.3,3.3,0,0,0-2.93-2l-31-1A3.29,3.29,0,0,0,1335.41,991.14Z" fill="#021b79" class="color000000 svgShape"></path><path fill="#78bbff" d="M1304.72,1068c37.21-24.2,78.87-47.18,69.81-19.56,10.7-1.89,15.23,4.09,7.9,14.24,11.16-1,14,5.32-.18,21.52,21.84-2.67,3.6,18.89-32.85,44a36.44,36.44,0,0,1-19.23,6.45l-4.12.17a36.37,36.37,0,0,1-32.13-16.77h0a36.35,36.35,0,0,1-2-35.49l0-.07A36.32,36.32,0,0,1,1304.72,1068Z" class="colorff8f78 svgShape"></path><path d="M1334.28 1074.8a1.5 1.5 0 01-.79-2.77l40.25-24.87a1.51 1.51 0 012.06.49 1.49 1.49 0 01-.49 2.06l-40.24 24.87A1.52 1.52 0 011334.28 1074.8zM1344.31 1087a1.5 1.5 0 01-.77-2.79l38.12-22.83a1.5 1.5 0 111.54 2.57l-38.12 22.83A1.46 1.46 0 011344.31 1087zM1348.53 1108.87a1.51 1.51 0 01-1.24-.65 1.49 1.49 0 01.39-2.08l33.73-23.18a1.5 1.5 0 011.7 2.47l-33.73 23.18A1.57 1.57 0 011348.53 1108.87z" fill="#021b79" class="color000000 svgShape"></path><circle cx="1547.19" cy="910.94" r="5.94" fill="#021b79" class="color000000 svgShape"></circle><path d="M994.16,1165a2.49,2.49,0,0,1-2.12-3.81l121.81-196.71,31.25-2.61a2.5,2.5,0,0,1,.42,5l-28.75,2.39L996.29,1163.81A2.5,2.5,0,0,1,994.16,1165Z" fill="#021b79" class="color000000 svgShape"></path><polygon fill="#d2d2d2" points="1123.08 865.4 1156.2 841.41 1195.35 1089.86 1157.19 1081.86 1123.08 865.4" class="colord2d2d2 svgShape"></polygon><path d="M818.24 1772.18a2.46 2.46 0 01-1-.22 2.5 2.5 0 01-1.27-3.3l267.4-603.91a2.5 2.5 0 114.57 2l-267.4 603.91A2.51 2.51 0 01818.24 1772.18zM1585.37 1772.18a2.49 2.49 0 01-2.28-1.49l-267.4-603.91a2.5 2.5 0 014.57-2l267.4 603.91a2.5 2.5 0 01-1.28 3.3A2.42 2.42 0 011585.37 1772.18z" fill="#021b79" class="color000000 svgShape"></path><rect width="744.38" height="17.91" x="829.62" y="1161.82" fill="#021b79" class="color000000 svgShape"></rect><rect width="9.36" height="548.09" x="373.47" y="1227" transform="rotate(180 378.15 1501.045)" fill="#021b79" class="color000000 svgShape"></rect><path fill="#597cff" d="M258.52,1121.89H532.91a0,0,0,0,1,0,0v110.63a45.7,45.7,0,0,1-45.7,45.7h-183a45.7,45.7,0,0,1-45.7-45.7V1121.89A0,0,0,0,1,258.52,1121.89Z" transform="rotate(180 395.715 1200.055)" class="colorff5970 svgShape"></path><path fill="#597cff" d="M441.51,1121.89h91.39a0,0,0,0,1,0,0v110.63a45.7,45.7,0,0,1-45.7,45.7h0a45.7,45.7,0,0,1-45.7-45.7V1121.89a0,0,0,0,1,0,0Z" transform="rotate(180 487.21 1200.055)" class="colorff5970 svgShape"></path><path fill="#ffffff" d="M443.85,1278.65h-4.68V1167.59a48,48,0,0,1,96.08,0v110.63h-4.68V1167.59a43.36,43.36,0,0,0-86.72,0Z" class="colorffffff svgShape"></path><rect width="13.04" height="143.53" x="357.69" y="1031.62" transform="rotate(180 364.21 1103.39)" fill="#021b79" class="color000000 svgShape"></rect><path fill="#597cff" d="M327.12,1031.62h32.53a11.08,11.08,0,0,1,11.08,11.08v44.93a11.08,11.08,0,0,1-11.08,11.08H327.12a0,0,0,0,1,0,0v-67.09A0,0,0,0,1,327.12,1031.62Z" transform="rotate(180 348.925 1065.17)" class="colorff5970 svgShape"></path><rect width="33.69" height="35.86" x="347.38" y="1156.01" rx="4.26" transform="rotate(180 364.22 1173.94)" fill="#021b79" class="color000000 svgShape"></rect><rect width="68.01" height="5" x="328.5" y="950.83" fill="#d2d2d2" transform="rotate(-72.9 362.52 953.35)" class="colord2d2d2 svgShape"></rect><rect width="5" height="92.27" x="307.5" y="899.7" fill="#d2d2d2" transform="rotate(-20.07 310.048 945.916)" class="colord2d2d2 svgShape"></rect><rect width="5" height="67.68" x="271.67" y="944.49" fill="#d2d2d2" transform="rotate(-52 274.192 978.366)" class="colord2d2d2 svgShape"></rect><rect width="2000" height="5" y="1771.15" fill="#021b79" class="color000000 svgShape"></rect></g></svg>