<svg xmlns="http://www.w3.org/2000/svg" enable-background="new 0 0 2950 2950" viewBox="0 0 2950 2950" id="Employeeschallengethemanager"><polygon fill="#99c6f4" points="681.07 830.71 167.54 849.48 187.06 1135.21 649.85 1142.62" class="colorf4c999 svgShape"></polygon><path fill="#3a5ee6" d="M444.72,810.91c0.03,3.53,76.97-27.28,81.12-29.67c50.49-29.14,83.92-77.02,123.73-118.27
					c26.4-27.37,59.21-55.58,94.9-69.66c44.62-17.6,84.29,12.9,68.91,62.92c-5.36,17.44-32.25,51.61-5.94,66.01
					c6.7,3.66,14.95,2.73,22.3,0.7c37.72-10.47,56.81-47.45,84.38-71.94c28.47-25.3,61.49-46.05,100.78-33.41
					c86.59,27.85,127.79,125.34,136,209.07c10.45,106.71-21.61,224.39-91.96,307.38c-70.11,82.72-177.86,95.9-279.7,83.09
					c-51.93-6.52-102.91-18.89-153.56-31.82c-19.85-5.06-178.71-26.71-178.72-27.59C446.96,1157.7,444.72,810.99,444.72,810.91z" class="colore63a48 svgShape"></path><path fill="#ffffff" d="M998.63 1146.38c-2.85.14-5.75-.82-7.99-2.93-4.38-4.13-4.65-11.02-.51-15.41 17.52-18.78 33.13-39.09 46.43-60.48 3.16-5.1 9.85-6.72 15-3.48 5.1 3.16 6.68 9.9 3.48 15-14.01 22.53-30.5 43.99-48.99 63.85C1004.06 1145.08 1001.35 1146.24 998.63 1146.38zM1065.47 1049.83c-1.79.09-3.64-.24-5.34-1.1-5.42-2.63-7.62-9.17-4.99-14.59 49.84-101.5 38.9-193.98 38.81-194.92-.77-6.02 3.48-11.43 9.45-12.24 5.49-.27 11.43 3.52 12.16 9.46.55 4.07 11.98 99.68-40.83 207.3C1072.89 1047.41 1069.3 1049.64 1065.47 1049.83z" class="colorffffff svgShape"></path><rect width="276.45" height="329.57" x="114.07" y="821.88" fill="#f4f5f6" class="colorf4f6f6 svgShape"></rect><rect width="276.45" height="369.56" y="801.89" fill="#021b79" class="color353434 svgShape"></rect><path fill="#021b79" d="M372.47,1112.45c0,9.97-8.08,18.05-18.05,18.05s-18.05-8.08-18.05-18.05c0-9.97,8.08-18.05,18.05-18.05
			S372.47,1102.47,372.47,1112.45z" class="color353434 svgShape"></path><polygon fill="#0035fc" points="1200.87 1219.35 1149.64 1111.85 1092.99 1216.6 1100.74 1073.91 1020.17 1079.15 1082.36 984.87 1025.06 887.53 1105.26 896.88 1104.8 753.98 1156.03 861.49 1212.68 756.74 1204.93 899.42 1285.51 894.18 1223.31 988.47 1280.61 1085.8 1200.41 1076.46" class="colorfcd600 svgShape"></polygon><g fill="#000000" class="color000000 svgShape"><polygon fill="#99c6f4" points="1255.96 1048.35 1360.95 1096.45 1327.84 1151.07 1214.65 1110.04" class="colorf4c999 svgShape"></polygon><path fill="#3a5ee6" d="M1324.27,1064.87c-0.48,0.83-14.5-16.66-15.15-17.77c-8.01-13.58-9.52-29.29-13.4-44.3
					c-2.58-9.95-6.55-20.96-13.08-29.02c-8.16-10.08-21.56-8.17-24.59,5.65c-1.06,4.82,0.73,16.44-7.38,16.33
					c-2.06-0.03-3.88-1.34-5.34-2.8c-7.49-7.48-7.06-18.73-10.3-28.16c-3.34-9.74-8.35-19.02-19.29-21.27
					c-24.09-4.96-46.75,12.52-59.82,31.14c-16.65,23.74-24.75,55.71-19.22,84.6c5.51,28.8,29.12,46.23,54.8,56.76
					c13.09,5.37,26.74,9.24,40.39,12.93c5.34,1.45,45.63,17.47,45.75,17.27C1277.63,1146.22,1324.26,1064.89,1324.27,1064.87z" class="colore63a48 svgShape"></path><rect width="97.24" height="85.09" x="1771.79" y="2217.26" fill="#98c5f3" transform="rotate(-82.958 1820.418 2259.722)" class="colorf3c898 svgShape"></rect><path fill="#021b79" d="M1864.31,2361.72l-202.08-4.79c-3.04-0.07-4.74-2.77-5.63-6.63c-3.35-14.61,6.62-28.99,20.08-30.77
				c24.8-3.29,62.36-20.97,98.45-48.23c0.86-0.65,1.87-0.99,2.91-0.97l83.01,1.97c2.6,0.06,4.72,2.31,4.91,5.21l4.96,76.51
				C1871.17,2358.24,1868.11,2361.81,1864.31,2361.72z" class="color353434 svgShape"></path><rect width="97.24" height="85.09" x="2798.43" y="2140" fill="#98c5f3" transform="rotate(-130.698 2846.89 2182.408)" class="colorf3c898 svgShape"></rect><path fill="#021b79" d="M2947.91,2228.8l-153.25,131.81c-2.31,1.98-5.38,1.12-8.62-1.15c-12.27-8.61-14.5-25.96-5.71-36.3
				c16.21-19.05,32.26-57.35,40.79-101.76c0.2-1.05,0.73-1.99,1.51-2.67l62.95-54.14c1.97-1.7,5.06-1.45,7.14,0.57l54.93,53.49
				C2950.67,2221.63,2950.79,2226.33,2947.91,2228.8z" class="color353434 svgShape"></path><path fill="#69a2db" d="M2400.53,1369.44c0,0-156.53-402.97-256.67-425.61c-100.14-22.64-292.69,71.97-282.6,154.6
			c10.1,82.63,205.59,264.48,211.07,321.95c4.57,47.91,22.3,65.74,22.3,65.74S2280.19,1646.77,2400.53,1369.44z" class="color69a8db svgShape"></path><path fill="#69a2db" d="M1883.67,1040.81c0,0-211.29,66.03-255.42,80.74c-44.13,14.72-282.83-40.37-282.83-40.37l-38.24,72.57
			c0,0,194.7,88.78,250.86,88.85c56.17,0.07,364.78-50.22,364.78-50.22" class="color69a8db svgShape"></path><path fill="#98c6f4" d="M1903.09,1011.07c10.78,1.02,42.01-19.53,56.02-13.49c2.51,1.08,5.08,3.68,7.59,7.22
					c16.37,23.03,42.73,30.57,64.85,13c0.39-0.31,0.78-0.62,1.16-0.93c19.57-15.52,24.71-42.86,12.49-64.64
					c-2.82-5.02-5.44-10.02-7.53-14.6c-9.73-21.27-4.71-25.65-4.68-52.94c0.02-27.29-10.33-60.89-25.52-87.53
					c-15.19-26.63-41.87-23.49-41.87-23.49c-41.51-23.87-67.46-10.18-99.41,10.59c-31.95,20.77-30.36,58.41-30.36,58.41
					C1840.38,857.29,1849.19,1005.95,1903.09,1011.07z" class="colorf4c998 svgShape"></path><path fill="#021b79" d="M1844.49 847.9c7.49-.61 40.34-10.47 40.34-10.47s25.35 42.14 35.13 57.42c4.87 7.61 11.52 14.09 18.23 20.07 4.28 3.83 9.18 8.97 14.31 11.56-.01-9.78-2.91-19.29-2.22-29.15.54-7.6 2.87-16.19 10.14-19.94 4.38-2.26 9.79-2.37 14.25-.3 5.39 2.51 9 7.78 11.35 13.23 2.74 6.37 4.27 13.77 8.33 19.64 4.63 6.66 12.67 9.99 19.85 13.13 8.31 3.67 23.46 14.56 23.46 14.56-9.73-21.27-4.71-25.65-4.68-52.94.02-27.29-10.33-60.89-25.52-87.53-15.19-26.63-41.87-23.49-41.87-23.49-41.51-23.87-67.46-10.18-99.41 10.59-31.95 20.77-50.17 7.19-50.17 7.19.45 9.71 8.17 19 8.17 19l-8.26-4.03c1.66 3.55 5.98 7.21 6.25 7.43-3.64-1.12-12.17-11.99-12.17-11.99-.83 11.84 3.72 18.12 4 18.51l-6.04-4.96C1808.89 840.84 1836.19 848.43 1844.49 847.9zM2877.08 2136.43l-261.47-347.54c0 0-100.74-251.85-215.08-419.44 0 0-157.47 177.47-305.9 112.17 0 0-266.79 220.83-276.82 288.3-10.03 67.47-47.1 473.68-47.1 473.68l98.9 2.89c0 0 77.58-347.07 72.57-379.72 0 0 288.83-174.58 320.92-226.82l200.35 231.59 330.03 333.43L2877.08 2136.43z" class="color353434 svgShape"></path><g fill="#000000" class="color000000 svgShape"><polygon fill="#99c6f4" points="2162.51 1202.55 2277.3 1189.93 2276.94 1253.79 2158.73 1276.7" class="colorf4c999 svgShape"></polygon><path fill="#3a5ee6" d="M2222.35,1181.35c0.02,0.95-13.73-6.54-14.87-7.16c-13.85-7.54-23.21-20.26-34.25-31.13
					c-7.32-7.22-16.38-14.62-26.13-18.18c-12.18-4.46-22.7,4.06-18.2,17.47c1.57,4.68,9.07,13.73,2.05,17.8
					c-1.78,1.04-4.02,0.84-6.02,0.34c-10.27-2.58-15.68-12.44-23.3-18.88c-7.87-6.64-16.93-12.03-27.47-8.35
					c-23.22,8.12-33.69,34.75-35.34,57.44c-2.1,28.92,7.36,60.51,26.94,82.47c19.51,21.88,48.73,24.72,76.17,20.57
					c14-2.12,27.69-5.81,41.3-9.64c5.33-1.5,48.13-8.44,48.12-8.67C2231.36,1275.42,2222.35,1181.37,2222.35,1181.35z" class="colore63a48 svgShape"></path></g><path fill="#69a2db" d="M2094.63,943.84c0,0,140.91-24.9,226.67,49.81c85.75,74.71,195.58,176.58,165.49,220.73
			c-30.09,44.14-227.17,52.64-227.17,52.64l-13.54-89.42l102.3-9.06l-200.09-75.9L2094.63,943.84z" class="color69a8db svgShape"></path><path fill="#0575e6" d="M2348.37,1168.53c-34.04,3.72-68.13,6.79-102.22,10c6.84,23.18,9.3,60.4,14.36,88.34
			c0,0-0.95-0.77-0.95-0.77l47.13-3.07c15.68-1.36,31.44-2.08,46.99-4.64c-31.05,5.55-62.6,7.16-94.01,9.52
			c-6.92-28.1-9.63-61.33-14.68-91.19C2279.44,1173.88,2313.88,1170.87,2348.37,1168.53L2348.37,1168.53z" class="color4e9fd7 svgShape"></path></g></svg>