<svg xmlns="http://www.w3.org/2000/svg" enable-background="new 0 0 1364 960" viewBox="0 0 1364 960" id="Femalelawyergivelegaladvice"><path fill="#4c84bd" d="M1170.87,561.21c2.61-2.17,3.52-5.98,2.69-9.26c-0.83-3.29-3.17-6.05-5.98-7.94c-2.81-1.89-6.08-3-9.37-3.85
		c-5.43-1.41-11.22-2.16-16.69-1.09c4.73-6.75,9.99-13.13,15.71-19.07c0.52-0.54,1.05-1.07,1.58-1.61
		c3.94,4.36,7.88,8.72,11.82,13.09c2.63,2.91,5.35,5.89,8.87,7.61c3.53,1.72,8.1,1.9,11.12-0.61c2.61-2.17,3.52-5.98,2.69-9.27
		c-0.83-3.29-3.17-6.05-5.98-7.94s-6.08-3-9.37-3.85c-5.61-1.45-11.59-2.2-17.2-0.98c6.55-6.4,13.63-12.26,21.15-17.48
		c4.16,4.27,8.32,8.53,12.49,12.8c2.74,2.81,5.57,5.68,9.16,7.26c3.59,1.58,8.17,1.59,11.09-1.03c2.53-2.27,3.29-6.11,2.34-9.36
		s-3.4-5.92-6.28-7.71c-2.88-1.78-6.19-2.76-9.51-3.49c-5.31-1.16-10.92-1.69-16.19-0.57c5.53-3.65,11.27-6.97,17.21-9.92
		c1.76-0.87,3.54-1.7,5.32-2.5c4.42,4.25,8.85,8.49,13.27,12.74c2.83,2.72,5.75,5.49,9.4,6.96c3.64,1.46,8.22,1.32,11.05-1.4
		c2.45-2.35,3.09-6.21,2.03-9.43c-1.06-3.22-3.59-5.81-6.53-7.5c-2.94-1.69-6.28-2.56-9.62-3.17c-4.77-0.88-9.76-1.25-14.5-0.4
		c6.16-2.51,12.48-4.63,18.91-6.33c5.77,1.59,11.53,3.17,17.3,4.76c3.78,1.04,7.68,2.09,11.58,1.65c3.9-0.45,7.86-2.75,9.06-6.48
		c1.04-3.23-0.24-6.93-2.71-9.25c-2.47-2.33-5.93-3.4-9.32-3.48c-3.39-0.08-6.75,0.74-9.98,1.78c-5.95,1.93-11.83,4.78-16,9.4
		c-0.02,0-0.04,0-0.06,0.01c-6.85,1.8-13.58,4.06-20.12,6.77c3.73-3.4,6.52-7.87,8.71-12.46c1.46-3.06,2.72-6.28,3.08-9.65
		c0.36-3.37-0.24-6.94-2.23-9.69c-1.98-2.75-5.48-4.51-8.82-3.9c-3.86,0.7-6.67,4.32-7.62,8.13c-0.95,3.81-0.42,7.81,0.11,11.69
		c0.82,5.92,1.63,11.84,2.45,17.75c-7.9,3.55-15.52,7.74-22.75,12.52c3.05-4.35,4.77-9.63,5.8-14.89c0.66-3.33,1.07-6.75,0.59-10.11
		c-0.49-3.36-1.96-6.66-4.57-8.83c-2.61-2.17-6.43-3-9.52-1.59c-3.57,1.64-5.39,5.84-5.37,9.76c0.02,3.92,1.53,7.66,3.01,11.3
		c2.26,5.53,4.52,11.05,6.78,16.58c-0.22,0.16-0.45,0.31-0.67,0.46c-7.32,5.14-14.21,10.88-20.6,17.13
		c2.77-5.27,3.54-11.47,3.48-17.46c-0.03-3.39-0.32-6.83-1.47-10.01c-1.16-3.19-3.27-6.13-6.26-7.73c-2.99-1.6-6.91-1.64-9.65,0.37
		c-3.16,2.33-4.1,6.8-3.28,10.64c0.82,3.84,3.05,7.19,5.24,10.45c3.44,5.11,6.88,10.22,10.32,15.34c-0.09,0.09-0.17,0.18-0.26,0.27
		l-0.17-0.03c0.03,0.04,0.07,0.07,0.1,0.11c-6.12,6.18-11.75,12.85-16.81,19.93c0.42-5.33-0.75-10.8-2.5-15.9
		c-1.12-3.27-2.5-6.5-4.64-9.21c-2.14-2.71-5.13-4.88-8.54-5.46c-3.41-0.59-7.2,0.63-9.2,3.45c-2.31,3.26-1.77,7.89,0.25,11.34
		c2.02,3.45,5.26,5.98,8.43,8.42c4.49,3.47,8.98,6.94,13.48,10.41c0.12,0.13,0.23,0.26,0.35,0.38c-5.36,7.95-10,16.37-13.82,25.17
		c-0.4,0.93,0.97,1.74,1.38,0.79c3.75-8.65,8.3-16.93,13.54-24.74c3.74,4.14,7.48,8.28,11.21,12.42c2.63,2.91,5.35,5.89,8.87,7.61
		C1163.27,563.54,1167.84,563.72,1170.87,561.21z" class="colorb0bd4c svgShape"></path><path fill="#315e8c" d="M1137.59,387.03c-9.78,20.63-39.96,27.32-51.11,47.95c-5.94,12.12-0.45,23.51,2.22,34.62
					c3.03,20.4,5.23,43.46-2.5,65.72c-4.24,10.14-11.94,19.71-14.36,29.96c9.41-0.78,20.64-3.28,31.58-7.39
					c0.2-0.24,0.4-0.5,0.6-0.74c7.61-9.76,12.78-21.7,11.49-34.28c-1.17-11.45-6.96-22.86-4.14-34.49
					c1.54-6.37,5.66-11.63,9.54-16.74c4-5.28,7.53-10.6,9.17-17.1c2.74-10.84,1.47-23.38,8.12-32.95
					c4.07-5.83,10.56-8.97,16.37-12.73c3.25-2.1,6.33-4.48,8.65-7.62c1.97-2.68,3.38-5.71,4.46-8.84
					c2.14-6.18,3.14-12.68,5.18-18.88c2.06-6.3,5.47-11.97,9.81-16.96c9.49-10.91,22.23-18.07,33.91-26.29
					c10.57-7.44,21.27-16.42,26.53-28.57c0.18-0.41,0.35-0.83,0.51-1.25c-1.36-1.45-3.19-2.61-5.54-3.38
					c-20.57-3.95-34.8,25.34-52.59,34.35c-21.31,8.34-39.27,6.86-42.94,34.21C1141.41,372.75,1141.02,380.03,1137.59,387.03z" class="color318c85 svgShape"></path><path fill="#253678" d="M1216.58,330.25c-11.68,8.22-24.42,15.39-33.91,26.29c-4.34,5-7.75,10.66-9.81,16.96
					c-2.04,6.21-3.04,12.71-5.18,18.88c-1.08,3.13-2.49,6.16-4.46,8.84c-2.31,3.14-5.39,5.53-8.65,7.62
					c-5.81,3.76-12.31,6.89-16.37,12.73c-6.65,9.57-5.38,22.11-8.12,32.95c-1.64,6.5-5.17,11.82-9.17,17.1
					c-3.88,5.11-8,10.38-9.54,16.74c-2.82,11.63,2.97,23.04,4.14,34.49c1.29,12.58-3.89,24.52-11.49,34.28
					c-0.19,0.25-0.4,0.5-0.6,0.74c0.56-0.2,1.11-0.41,1.66-0.64c25.19-9.85,48.32-28.27,43.65-53.97
					c-5.18-11.86-10.6-21.13,5.82-32.5c24.99-21.75,58.23-35.71,50.31-69.21c-2.49-15.13-13.08-36.56,2.17-52.16
					c6.89-5.34,15.49-7.02,22.5-12.16c13.06-8.22,21.89-26.89,14.77-36.03c-0.2-0.27-0.42-0.54-0.68-0.79
					c-0.16,0.42-0.33,0.84-0.51,1.25C1237.86,313.83,1227.15,322.81,1216.58,330.25z" class="color257872 svgShape"></path><path fill="#8baac9" d="M1216.58,330.25c-11.68,8.22-24.42,15.39-33.91,26.29c-4.34,5-7.75,10.66-9.81,16.96
					c-2.04,6.21-3.04,12.71-5.18,18.88c-1.08,3.13-2.49,6.16-4.46,8.84c-2.31,3.14-5.39,5.53-8.65,7.62
					c-5.81,3.76-12.31,6.89-16.37,12.73c-6.65,9.57-5.38,22.11-8.12,32.95c-1.64,6.5-5.17,11.82-9.17,17.1
					c-3.88,5.11-8,10.38-9.54,16.74c-2.82,11.63,2.97,23.04,4.14,34.49c1.29,12.58-3.89,24.52-11.49,34.28
					c-0.19,0.25-0.4,0.5-0.6,0.74c0.56-0.2,1.11-0.41,1.66-0.64c1.79-2.33,3.45-4.81,4.97-7.45c2.78-4.87,4.89-10.14,5.89-15.66
					c1.06-5.87,0.66-11.72-0.53-17.54c-1.22-5.94-3.06-11.78-3.69-17.83c-0.73-6.92,0.78-13.21,4.5-19.1
					c3.64-5.76,8.43-10.73,11.65-16.78c2.7-5.09,3.8-10.74,4.58-16.39c0.81-5.91,1.27-11.94,3.17-17.63
					c2.3-6.91,7.04-11.53,13.1-15.35c5.87-3.7,12.12-6.99,16.04-12.95c3.47-5.27,4.97-11.53,6.45-17.58
					c1.63-6.67,3.42-13.19,7.08-19.08c3.9-6.26,9.21-11.52,14.91-16.13c17.15-13.91,42.6-24.92,51.09-46.55
					c-0.2-0.27-0.42-0.54-0.68-0.79c-0.16,0.42-0.33,0.84-0.51,1.25C1237.86,313.83,1227.15,322.81,1216.58,330.25z" class="color8bc9c4 svgShape"></path><path fill="#4c84bd" d="M205.56,534.7c-2.61-2.17-3.52-5.98-2.69-9.26c0.83-3.29,3.17-6.05,5.98-7.94c2.81-1.89,6.08-3,9.37-3.85
		c5.43-1.41,11.22-2.16,16.69-1.09c-4.73-6.75-9.99-13.13-15.71-19.07c-0.52-0.54-1.05-1.07-1.58-1.61
		c-3.94,4.36-7.88,8.72-11.82,13.09c-2.63,2.91-5.35,5.89-8.87,7.61c-3.53,1.72-8.1,1.9-11.12-0.61c-2.61-2.17-3.52-5.98-2.69-9.27
		c0.83-3.29,3.17-6.05,5.98-7.94c2.81-1.89,6.08-3,9.37-3.85c5.61-1.45,11.59-2.2,17.2-0.98c-6.55-6.4-13.63-12.26-21.15-17.48
		c-4.16,4.27-8.32,8.53-12.49,12.8c-2.74,2.81-5.57,5.68-9.16,7.26c-3.59,1.58-8.17,1.59-11.09-1.03c-2.53-2.27-3.29-6.11-2.34-9.36
		s3.4-5.92,6.28-7.71c2.88-1.78,6.19-2.76,9.51-3.49c5.31-1.16,10.92-1.69,16.19-0.57c-5.53-3.65-11.27-6.97-17.21-9.92
		c-1.76-0.87-3.54-1.7-5.32-2.5c-4.42,4.25-8.85,8.49-13.27,12.74c-2.83,2.72-5.75,5.49-9.4,6.96c-3.64,1.46-8.21,1.32-11.05-1.4
		c-2.45-2.35-3.09-6.21-2.03-9.43c1.06-3.22,3.59-5.81,6.53-7.5c2.94-1.69,6.28-2.56,9.62-3.17c4.77-0.88,9.76-1.25,14.5-0.4
		c-6.16-2.51-12.48-4.63-18.91-6.33c-5.77,1.59-11.53,3.17-17.3,4.76c-3.78,1.04-7.68,2.09-11.58,1.65
		c-3.9-0.45-7.86-2.75-9.06-6.48c-1.04-3.23,0.24-6.93,2.71-9.25c2.47-2.33,5.93-3.4,9.32-3.48c3.39-0.08,6.75,0.74,9.98,1.78
		c5.95,1.93,11.83,4.78,16,9.4c0.02,0,0.04,0,0.06,0.01c6.85,1.8,13.58,4.06,20.12,6.77c-3.73-3.4-6.52-7.86-8.71-12.46
		c-1.46-3.06-2.72-6.28-3.08-9.65c-0.36-3.37,0.24-6.94,2.23-9.69c1.98-2.75,5.48-4.51,8.82-3.9c3.86,0.7,6.67,4.32,7.62,8.13
		s0.42,7.81-0.11,11.69c-0.82,5.92-1.63,11.84-2.45,17.75c7.9,3.55,15.52,7.74,22.75,12.52c-3.05-4.35-4.77-9.63-5.8-14.89
		c-0.66-3.33-1.07-6.75-0.59-10.11c0.49-3.36,1.96-6.66,4.57-8.83c2.61-2.17,6.43-3,9.52-1.59c3.57,1.64,5.39,5.84,5.37,9.76
		c-0.02,3.92-1.53,7.66-3.01,11.3c-2.26,5.53-4.52,11.05-6.78,16.58c0.22,0.16,0.45,0.31,0.67,0.46
		c7.32,5.14,14.21,10.88,20.6,17.13c-2.77-5.27-3.54-11.47-3.48-17.46c0.03-3.39,0.32-6.83,1.47-10.01
		c1.16-3.19,3.27-6.13,6.26-7.73c2.99-1.6,6.91-1.64,9.65,0.37c3.16,2.33,4.1,6.8,3.28,10.64c-0.82,3.84-3.05,7.19-5.24,10.45
		c-3.44,5.11-6.88,10.22-10.32,15.34c0.09,0.09,0.17,0.18,0.26,0.27l0.17-0.03c-0.03,0.04-0.07,0.07-0.1,0.11
		c6.12,6.18,11.75,12.85,16.81,19.93c-0.42-5.33,0.75-10.8,2.5-15.9c1.12-3.27,2.5-6.5,4.64-9.21c2.14-2.71,5.13-4.88,8.54-5.46
		c3.41-0.59,7.2,0.63,9.2,3.45c2.31,3.26,1.77,7.89-0.25,11.34c-2.02,3.45-5.26,5.98-8.43,8.42c-4.49,3.47-8.98,6.94-13.48,10.41
		c-0.12,0.13-0.23,0.26-0.35,0.38c5.36,7.95,10,16.37,13.82,25.17c0.4,0.93-0.97,1.74-1.38,0.79c-3.75-8.65-8.3-16.93-13.54-24.74
		c-3.74,4.14-7.48,8.28-11.21,12.42c-2.63,2.91-5.35,5.89-8.87,7.61C213.16,537.03,208.58,537.21,205.56,534.7z" class="colorb0bd4c svgShape"></path><path fill="#315e8c" d="M250.32,356.57c9.78,20.63,39.96,27.32,51.11,47.95c5.94,12.12,0.45,23.51-2.22,34.62
					c-3.03,20.4-5.23,43.46,2.5,65.72c4.24,10.14,11.94,19.71,14.36,29.96c-9.41-0.78-20.64-3.28-31.58-7.39
					c-0.2-0.24-0.4-0.5-0.6-0.74c-7.61-9.76-12.78-21.7-11.49-34.28c1.17-11.45,6.96-22.86,4.14-34.49
					c-1.54-6.36-5.66-11.63-9.54-16.74c-4-5.28-7.53-10.6-9.17-17.1c-2.74-10.84-1.47-23.38-8.12-32.95
					c-4.07-5.83-10.56-8.97-16.37-12.73c-3.25-2.1-6.33-4.48-8.65-7.62c-1.97-2.68-3.38-5.71-4.46-8.84
					c-2.14-6.18-3.14-12.68-5.18-18.88c-2.06-6.3-5.47-11.97-9.81-16.96c-9.49-10.91-22.23-18.07-33.91-26.29
					c-10.57-7.44-21.27-16.42-26.52-28.57c-0.18-0.41-0.35-0.83-0.51-1.25c1.36-1.45,3.19-2.61,5.54-3.38
					c20.57-3.95,34.8,25.34,52.59,34.35c21.31,8.34,39.27,6.86,42.94,34.21C246.5,342.29,246.88,349.57,250.32,356.57z" class="color318c85 svgShape"></path><path fill="#253678" d="M171.32,299.79c11.68,8.22,24.42,15.39,33.91,26.29c4.34,5,7.75,10.66,9.81,16.96
					c2.04,6.21,3.04,12.71,5.18,18.88c1.08,3.13,2.49,6.16,4.46,8.84c2.31,3.14,5.39,5.53,8.65,7.62
					c5.81,3.76,12.31,6.89,16.37,12.73c6.65,9.57,5.38,22.11,8.12,32.95c1.64,6.5,5.17,11.82,9.17,17.1
					c3.88,5.11,8,10.38,9.54,16.74c2.82,11.63-2.97,23.04-4.14,34.49c-1.29,12.58,3.89,24.52,11.49,34.28
					c0.19,0.25,0.4,0.5,0.6,0.74c-0.56-0.2-1.11-0.41-1.66-0.64c-25.19-9.85-48.32-28.27-43.65-53.97
					c5.18-11.86,10.6-21.13-5.82-32.5c-24.99-21.75-58.23-35.71-50.31-69.21c2.49-15.13,13.08-36.56-2.17-52.16
					c-6.89-5.34-15.49-7.02-22.5-12.16c-13.06-8.22-21.89-26.89-14.77-36.03c0.2-0.27,0.42-0.54,0.68-0.79
					c0.16,0.42,0.33,0.84,0.51,1.25C150.05,283.37,160.76,292.35,171.32,299.79z" class="color257872 svgShape"></path><path fill="#8baac9" d="M171.32,299.79c11.68,8.22,24.42,15.39,33.91,26.29c4.34,5,7.75,10.66,9.81,16.96
					c2.04,6.21,3.04,12.71,5.18,18.88c1.08,3.13,2.49,6.16,4.46,8.84c2.31,3.14,5.39,5.53,8.65,7.62
					c5.81,3.76,12.31,6.89,16.37,12.73c6.65,9.57,5.38,22.11,8.12,32.95c1.64,6.5,5.17,11.82,9.17,17.1
					c3.88,5.11,8,10.38,9.54,16.74c2.82,11.63-2.97,23.04-4.14,34.49c-1.29,12.58,3.89,24.52,11.49,34.28
					c0.19,0.25,0.4,0.5,0.6,0.74c-0.56-0.2-1.11-0.41-1.66-0.64c-1.79-2.33-3.45-4.81-4.97-7.45c-2.78-4.87-4.89-10.14-5.89-15.66
					c-1.06-5.87-0.66-11.72,0.53-17.54c1.22-5.94,3.06-11.78,3.69-17.83c0.73-6.92-0.78-13.21-4.5-19.1
					c-3.64-5.76-8.43-10.73-11.65-16.78c-2.7-5.09-3.8-10.74-4.58-16.39c-0.81-5.91-1.27-11.94-3.17-17.63
					c-2.3-6.91-7.04-11.53-13.1-15.35c-5.87-3.7-12.12-6.99-16.04-12.95c-3.47-5.27-4.97-11.53-6.45-17.58
					c-1.63-6.67-3.42-13.19-7.08-19.08c-3.9-6.26-9.21-11.52-14.91-16.13c-17.15-13.91-42.6-24.92-51.09-46.55
					c0.2-0.27,0.42-0.54,0.68-0.79c0.16,0.42,0.33,0.84,0.51,1.25C150.05,283.37,160.76,292.35,171.32,299.79z" class="color8bc9c4 svgShape"></path><path fill="#292c39" d="M1096.7,176.73H280.96c-16.28,0-29.48,13.2-29.48,29.48V744.8c0,16.28,13.2,29.48,29.48,29.48h815.73
					c16.28,0,29.48-13.2,29.48-29.48V206.22C1126.18,189.93,1112.98,176.73,1096.7,176.73z" class="color293239 svgShape"></path><path fill="#ffffff" d="M1081.73,192.17H295.93c-15.69,0-28.4,12.52-28.4,27.96v510.74c0,15.44,12.72,27.96,28.4,27.96h785.79
					c15.69,0,28.4-12.52,28.4-27.96V220.13C1110.13,204.69,1097.41,192.17,1081.73,192.17z" class="colorffffff svgShape"></path><path fill="#373c4d" d="M1134.25,785.92H241.17c-3.37,0-6.11,2.74-6.11,6.11v25.96c0,3.38,2.74,6.11,6.11,6.11h893.08
				c3.37,0,6.11-2.74,6.11-6.11v-25.96C1140.36,788.66,1137.63,785.92,1134.25,785.92z" class="color37434d svgShape"></path><path fill="#4d536b" d="M1110.28,785.92H273.97c-3.56,0-6.44-2.88-6.44-6.44v-2c0-3.56,2.88-6.44,6.44-6.44h836.31
				c3.56,0,6.44,2.88,6.44,6.44v2C1116.72,783.04,1113.84,785.92,1110.28,785.92z" class="color4d5d6b svgShape"></path><path fill="#c2d9f0" d="M1064.2 233.69h-54.28c-1.6 0-2.89-1.3-2.89-2.89v-.9c0-1.6 1.3-2.89 2.89-2.89h54.28c1.6 0 2.89 1.3 2.89 2.89v.9C1067.09 232.39 1065.8 233.69 1064.2 233.69zM1064.2 251.25h-54.28c-1.6 0-2.89-1.3-2.89-2.89v-.9c0-1.6 1.3-2.89 2.89-2.89h54.28c1.6 0 2.89 1.3 2.89 2.89v.9C1067.09 249.96 1065.8 251.25 1064.2 251.25zM1064.2 268.81h-54.28c-1.6 0-2.89-1.3-2.89-2.89v-.9c0-1.6 1.29-2.89 2.89-2.89h54.28c1.6 0 2.89 1.29 2.89 2.89v.9C1067.09 267.52 1065.8 268.81 1064.2 268.81zM989.74 268.81H326.2c-3.12 0-5.64-2.53-5.64-5.64v-30.33c0-3.12 2.53-5.64 5.64-5.64h663.54c3.12 0 5.64 2.53 5.64 5.64v30.33C995.39 266.29 992.86 268.81 989.74 268.81z" class="colorc2dcf0 svgShape"></path><path fill="#ffffff" d="M973.85,255.86l-8.37-4.33l-2.11-1.48c-0.1-0.07-0.21-0.12-0.31-0.18c0.93-1.76,1.4-3.8,1.25-5.96
					c-0.39-5.57-4.91-10.04-10.48-10.37c-6.71-0.39-12.25,5.17-11.82,11.89c0.35,5.48,4.72,9.94,10.19,10.4
					c3.05,0.26,5.86-0.73,8.01-2.49l10.2,8.13c1.55,0.95,3.59,0.46,4.54-1.09l0,0C975.89,258.84,975.41,256.81,973.85,255.86z
					 M953.15,252.69c-4.4,0-7.98-3.58-7.98-7.98c0-4.4,3.58-7.98,7.98-7.98s7.98,3.58,7.98,7.98
					C961.14,249.11,957.55,252.69,953.15,252.69z" class="colorffffff svgShape"></path><circle cx="339.48" cy="256.69" r="4.78" fill="#ffffff" class="colorffffff svgShape"></circle><circle cx="359.65" cy="256.69" r="4.78" fill="#ffffff" class="colorffffff svgShape"></circle><circle cx="379.82" cy="256.69" r="4.78" fill="#ffffff" class="colorffffff svgShape"></circle><g fill="#000000" class="color000000 svgShape"><path fill="#c0d8f0" d="M896.25,313.76c-4.02,8.31,0.94,10.09,0.31,18.24c-0.9,11.7-8.48,14.8-6.34,27.74
			c-2.29,10.86-23.87,14.09-7.66,29.76c17.27,10.12,38.01-4.36,56.2-0.13c7.43,2.65,16.82,0.56,13.68-8.99
			c-2.61-6.47-9.47-10.1-12.83-16.12c-6.12-9.21-0.58-8.37-1.92-15.83c-1.19-6.64-5.44-11.19-6.68-14.43
			c-1.13-2.96,0.47-6.69,1.48-9.7C937.48,304.02,904.3,297.12,896.25,313.76z" class="colorc0e0f0 svgShape"></path><path fill="#e1edfa" d="M1019.7 320.8l-28.08 54.2-54.67 9.74 7.22 30.09c0 0 54.25-17.35 61.03-21.58 6.78-4.24 22.67-71.86 22.67-71.86L1019.7 320.8zM876.58 383.11c-16.1 13.64-38.94 40.51-40.36 60.22-1.3 17.95-2.15 74.33-2.15 74.33l13.21 7.37 10.86-84.06c0 0 15.1-23.76 33.3-37.7C886.42 399.77 881.4 379.03 876.58 383.11zM922.26 348.41c0 0-4.41 18.14 6.64 28.3 0 0-14.2 23.85-25.32-1.9 0 0 7.55-8.5 4.34-25.63L922.26 348.41z" class="colore1f1fa svgShape"></path><path fill="#c0d8f0" d="M860.01,758.84c30.4-50.76,21.06-106.68,12.01-153.18c-2.6-13.32-5.17-25.87-6.78-37.31
			c-0.87-6.19-1.33-11.83-1.46-17.03c-0.1-4.32,0.03-8.33,0.35-12.06c0.21-2.42,0.5-4.74,0.85-6.94c4.18-26.1,17.8-38.6,21.49-60.19
			c3.33-19.45-1.87-41.29-6.41-58.66c-2.38-9.08-4.58-16.94-5.28-22.59c-0.5-3.96,0.42-6.38,2.35-8.14l0.01-0.01
			c0.07-0.06,0.13-0.11,0.2-0.17c2.03-1.72,5.09-2.79,8.82-4.11c0.68-0.24,1.36-0.46,2.05-0.66c7.18-2.22,14.11-2.73,14.11-2.73
			c1.32,1.87,2.58,3.41,3.79,4.66c3.35,3.48,6.25,4.7,8.69,4.59c0.01,0.01,0.02,0.01,0.03,0c0.6,0.03,1.23-0.02,1.88-0.16
			c1.87-0.42,3.96-1.61,6.29-3.88c0.2-0.2,0.42-0.42,0.62-0.63c1.18-1.23,2.42-2.74,3.7-4.57c0.01,0,0.01-0.01,0.01-0.01
			s8.3,0.62,16.16,3.39c3.37,1.19,6.21,2.19,8.21,3.64c0.51,0.36,0.96,0.75,1.36,1.19c1.57,1.7,2.26,4.02,1.81,7.59
			c-0.69,5.56-2.83,13.26-5.17,22.15c-4.56,17.43-9.88,39.47-6.52,59.09c5.06,29.64,28.83,42.16,21.23,96.22
			c-7.22,51.34-33.86,125.18,5.24,190.48H860.01z" class="colorc0e0f0 svgShape"></path><path fill="#e1edfa" d="M852.53,533.47c0,0,85.26,132.61,95.05,177.55c9.79,44.94-110.32-164.77-110.32-164.77L852.53,533.47z" class="colore1f1fa svgShape"></path><path fill="#c0d8f0" d="M862.18,527.53c-6.9,0.8-13.15,3.18-18.59,6.22l-10.9-16.76c3.2-4.51,2.89-10.8-1.05-14.99
				c-4.49-4.77-12-4.99-16.77-0.5c-4.77,4.49-4.99,12-0.5,16.77c2.78,2.95,6.7,4.15,10.42,3.59l11.04,16.98
				c-9.65,7.31-15.27,15.38-15.27,15.38l6.37,9.82c12.71-26,41.95-25.01,41.95-25.01L862.18,527.53z" class="colorc0e0f0 svgShape"></path><path fill="#e1edfa" d="M914.8,362.27c-10.02,0-20.26-11.9-19.48-25.47c0.14-2.66,0.47-5.56,0.99-8.72
				c0.06-0.38,0.13-0.76,0.19-1.15c3.5-20.05,30.83-21.31,34.48-0.12c0.07,0.43,0.14,0.85,0.22,1.27c0.52,3.21,0.85,6.1,1.03,8.72
				C933.14,350.65,923.38,362.27,914.8,362.27z" class="colore1f1fa svgShape"></path><path fill="#c0d8f0" d="M907.15,312.78c0,0,0.15,15.13-11.87,21.9c1.03,0.36-0.86-26.24,16.77-26.6
			c14.29-0.29,18.44,10.77,19.65,23.5C931.71,331.59,907.9,323.04,907.15,312.78z" class="colorc0e0f0 svgShape"></path><path fill="#ffffff" d="M932.23,336.8h-36.9c0.14-2.66,0.47-5.56,0.99-8.72h34.89C931.72,331.29,932.06,334.18,932.23,336.8z" class="colorffffff svgShape"></path><path fill="#e1edfa" d="M943.48,378.47c-3.1,7.21-10.46,18.3-26.34,18.3c-16.01,0-24.9-11.58-28.94-18.97
			c7.19-2.22,14.11-2.73,14.11-2.73c5,7.1,9.16,9.4,12.48,9.25c0.01,0.01,0.02,0.01,0.02,0c0.6,0.03,1.23-0.02,1.88-0.16
			c1.88-0.42,3.96-1.61,6.29-3.88c0.2-0.2,0.41-0.41,0.63-0.63c1.18-1.23,2.41-2.75,3.7-4.57
			C927.32,375.07,935.62,375.69,943.48,378.47z" class="colore1f1fa svgShape"></path><path fill="#c0d8f0" d="M1060.58,423.05l-12.14-46.61c1.33-0.52,2.3-1.8,2.34-3.32c0.05-2.02-1.55-3.69-3.56-3.74
			c-1.03-0.03-1.97,0.38-2.65,1.05c-6.3-1.56-18.8-5.02-26.25-9.58v-57.73c2.29-0.72,3.95-2.86,3.95-5.38
			c0-3.12-2.53-5.64-5.64-5.64c-3.12,0-5.64,2.52-5.64,5.64c0,2.52,1.66,4.66,3.95,5.38v57.73c-5.47,3.35-13.64,6.1-20.1,7.95
			c-1.74,0.5-3.35,0.93-4.76,1.29c-0.58-0.43-1.29-0.69-2.07-0.71c-2.02-0.05-3.69,1.55-3.74,3.57c-0.03,1.27,0.59,2.39,1.56,3.07
			c0.36,0.25,0.78,0.45,1.23,0.56l-8.37,26.81l-6.27,20.09l-0.89,0.01c0,0,1.82,13.62,16.4,13.48
			c14.58-0.14,15.12-13.95,15.12-13.95l-1.68,0.02l-6.61-25.37l-5.53-21.23c0.68-0.27,1.27-0.73,1.68-1.33
			c0.4-0.56,0.64-1.23,0.66-1.97c0.36-0.06,0.73-0.12,1.11-0.19c9.4-1.8,21.27-7.66,22.26-8.15v0.21h0.24l0.89,1.25l0.56,0.78
			l1.45-2.03h0.24v-0.21c1.09,0.54,15.54,7.67,25.19,8.57c0.15,1.56,1.26,2.83,2.76,3.19l-14.63,46.9l-0.89,0.01
			c0,0,1.82,13.62,16.4,13.48c14.58-0.14,15.11-13.95,15.11-13.95L1060.58,423.05z M987.92,423.25l-14.9,0.22l6.34-20.31l8.26-26.5
			c0.07,0.01,0.13,0.03,0.21,0.03c0.05,0,0.09-0.01,0.13-0.01l-0.02,23.49L987.92,423.25z M994.23,397.87l6.56,25.19l-12.3,0.18
			l0.02-23.28l0.02-23.32c0.05-0.01,0.11-0.03,0.16-0.03L994.23,397.87z M1047.13,423.25l-14.91,0.22l14.6-46.81
			c0.07,0.01,0.14,0.03,0.21,0.03c0.04,0,0.09-0.01,0.13-0.01L1047.13,423.25z M1047.7,423.24l0.04-46.61
			c0.05-0.01,0.11-0.02,0.16-0.03l12.1,46.46L1047.7,423.24z" class="colorc0e0f0 svgShape"></path><path fill="#e1edfa" d="M1028.4 314.13c-.59-1.9-4.3-7.48-10.99-7.48-3.91 0-7.39 4.2-6.85 10.35.54 6.15 14.04 11.51 16.42 6.49C1028.76 319.73 1029.22 316.76 1028.4 314.13zM834.06 517.67c0 0-9 .11-8.26 7.95.74 7.84 4.24 15.15 13.56 11.02 6.5-2.88 7.9-11.6 7.9-11.6L834.06 517.67z" class="colore1f1fa svgShape"></path></g><rect width="309.62" height="309.62" x="394.28" y="307.13" fill="#daeafa" class="colordaebfa svgShape"></rect><g fill="#000000" class="color000000 svgShape"><polygon fill="#2140b5" points="365.42 823.89 346.6 825.06 139.86 803.28 123.19 521.53 140.93 500.55 365.41 501.34" class="colorb52121 svgShape"></polygon><polygon fill="#cce5ff" points="357.95 824.35 346.6 825.06 132.39 810.85 129.47 522.55 141.55 508.15 357.95 508.91" class="colorfff4cc svgShape"></polygon><rect width="302.74" height="224.49" x="83.53" y="561.05" fill="#3a59cf" transform="rotate(-89.797 234.895 673.29)" class="colorcf3a3a svgShape"></rect><path fill="#5270e3" d="M308.75,585.36v0.76l-0.58,139.57l-0.89-0.01h-0.06c-4.25,0-8.25,1.41-11.27,3.98
						c-3.03,2.57-4.71,6.01-4.73,9.67v0.76l-0.89,0l-112.46-0.34l0.01-0.76c0.01-3.66-1.64-7.1-4.65-9.7
						c-3.01-2.6-7.03-4.03-11.3-4.04h-0.89l0.01-0.76l0.57-139.57h0.95c4.25,0,8.25-1.41,11.27-3.97c3.03-2.58,4.71-6.01,4.73-9.67
						l0.01-0.76h0.89l112.45,0.34v0.76c-0.02,3.66,1.63,7.1,4.64,9.7c3.02,2.59,7.03,4.03,11.3,4.04H308.75z" class="colore35252 svgShape"></path><path fill="#cce5ff" d="M284.71,733.71l-100.28-0.3l-0.2-0.53c-1.13-3.05-3.05-5.77-5.72-8.07c-2.67-2.3-5.83-3.97-9.38-4.95
							l-0.62-0.17l0.53-129.16l0.62-0.17c3.57-0.96,6.74-2.61,9.43-4.89c2.69-2.29,4.64-4.99,5.79-8.04l0.2-0.53l100.27,0.3
							l0.2,0.53c1.11,3.01,3.09,5.8,5.72,8.07c2.68,2.3,5.84,3.97,9.39,4.95l0.62,0.17l-0.53,129.15l-0.62,0.17
							c-3.57,0.96-6.74,2.61-9.43,4.9c-2.65,2.25-4.65,5.02-5.79,8.03L284.71,733.71z M185.73,731.88l97.69,0.29
							c1.25-3.03,3.32-5.82,6.02-8.11c2.69-2.29,5.98-4.05,9.52-5.1l0.53-126.94c-3.54-1.07-6.8-2.84-9.49-5.15
							c-2.68-2.31-4.73-5.12-5.95-8.15l-97.68-0.3c-1.25,3.03-3.33,5.82-6.02,8.12c-2.69,2.29-5.98,4.04-9.52,5.09l-0.52,126.94
							c3.54,1.07,6.81,2.85,9.48,5.15C182.5,726.08,184.5,728.81,185.73,731.88z" class="colorfff4cc svgShape"></path><g fill="#000000" class="color000000 svgShape"><path fill="#1c379c" d="M338.76 816.39C338.76 816.39 338.76 816.39 338.76 816.39l-3.71-.01c-.51 0-.93-.42-.92-.93 0-.51.42-.92.93-.92 0 0 0 0 0 0l2.78.01.01-2.78c0-.51.42-.92.93-.92 0 0 0 0 0 0 .51 0 .93.42.92.93l-.01 3.71C339.68 815.98 339.27 816.39 338.76 816.39zM327.59 816.35C327.59 816.35 327.59 816.35 327.59 816.35l-7.46-.03c-.51 0-.93-.42-.92-.93 0-.51.42-.92.93-.92 0 0 0 0 0 0l7.46.03c.51 0 .93.42.92.93C328.52 815.94 328.1 816.35 327.59 816.35zM312.68 816.3C312.68 816.3 312.68 816.3 312.68 816.3l-7.46-.03c-.51 0-.93-.42-.92-.93 0-.51.42-.92.93-.92 0 0 0 0 0 0l7.46.03c.51 0 .93.42.92.93C313.61 815.89 313.19 816.3 312.68 816.3zM297.77 816.25C297.77 816.25 297.77 816.25 297.77 816.25l-7.46-.03c-.51 0-.93-.42-.92-.93 0-.51.42-.92.93-.92 0 0 0 0 0 0l7.46.03c.51 0 .93.42.92.93C298.7 815.84 298.28 816.25 297.77 816.25zM282.86 816.2C282.86 816.2 282.86 816.2 282.86 816.2l-7.46-.03c-.51 0-.93-.42-.92-.93 0-.51.42-.92.93-.92 0 0 0 0 0 0l7.46.03c.51 0 .93.42.92.93C283.78 815.78 283.37 816.2 282.86 816.2zM267.95 816.14C267.94 816.14 267.94 816.14 267.95 816.14l-7.46-.03c-.51 0-.93-.42-.92-.93 0-.51.42-.92.93-.92 0 0 0 0 0 0l7.46.03c.51 0 .93.42.92.93C268.87 815.73 268.46 816.14 267.95 816.14zM253.03 816.09C253.03 816.09 253.03 816.09 253.03 816.09l-7.46-.03c-.51 0-.93-.42-.92-.93 0-.51.42-.92.93-.92 0 0 0 0 0 0l7.46.03c.51 0 .93.42.92.93C253.96 815.68 253.54 816.09 253.03 816.09zM238.12 816.04C238.12 816.04 238.12 816.04 238.12 816.04l-7.46-.03c-.51 0-.93-.42-.92-.93 0-.51.42-.92.93-.92 0 0 0 0 0 0l7.46.03c.51 0 .93.42.92.93C239.05 815.62 238.63 816.04 238.12 816.04zM223.21 815.98C223.21 815.98 223.21 815.98 223.21 815.98l-7.46-.03c-.51 0-.93-.42-.92-.93 0-.51.42-.92.93-.92 0 0 0 0 0 0l7.46.03c.51 0 .93.42.92.93C224.14 815.57 223.72 815.98 223.21 815.98zM208.3 815.93C208.3 815.93 208.3 815.93 208.3 815.93l-7.46-.03c-.51 0-.93-.42-.92-.93 0-.51.42-.92.93-.92 0 0 0 0 0 0l7.46.03c.51 0 .93.42.92.93C209.22 815.52 208.81 815.93 208.3 815.93zM193.39 815.88C193.39 815.88 193.38 815.88 193.39 815.88l-7.46-.03c-.51 0-.93-.42-.92-.93 0-.51.42-.92.93-.92 0 0 0 0 0 0l7.46.03c.51 0 .93.42.92.93C194.31 815.47 193.9 815.88 193.39 815.88zM178.47 815.83C178.47 815.83 178.47 815.83 178.47 815.83l-7.46-.03c-.51 0-.93-.42-.92-.93 0-.51.42-.92.93-.92 0 0 0 0 0 0l7.46.03c.51 0 .93.42.92.93C179.4 815.41 178.99 815.83 178.47 815.83zM163.56 815.77C163.56 815.77 163.56 815.77 163.56 815.77l-7.46-.03c-.51 0-.93-.42-.92-.93 0-.51.42-.92.93-.92 0 0 0 0 0 0l7.46.03c.51 0 .93.42.92.93C164.49 815.36 164.07 815.77 163.56 815.77zM148.65 815.72C148.65 815.72 148.65 815.72 148.65 815.72l-7.46-.03c-.51 0-.93-.42-.92-.93 0-.51.42-.92.93-.92 0 0 0 0 0 0l7.46.03c.51 0 .93.42.92.93C149.58 815.31 149.16 815.72 148.65 815.72zM133.74 815.67C133.74 815.67 133.74 815.67 133.74 815.67l-3.71-.01c-.25 0-.48-.1-.65-.27-.17-.17-.27-.41-.27-.66l.01-3.71c0-.51.42-.93.93-.92.51 0 .93.42.92.93l-.01 2.78 2.78.01c.51 0 .93.42.92.93C134.66 815.25 134.25 815.67 133.74 815.67zM130.07 804.48C130.07 804.48 130.07 804.48 130.07 804.48c-.52 0-.93-.42-.93-.93l.03-7.46c0-.51.42-.92.93-.92 0 0 0 0 0 0 .51 0 .93.42.92.93l-.03 7.46C130.99 804.07 130.58 804.48 130.07 804.48zM130.12 789.55C130.12 789.55 130.12 789.55 130.12 789.55c-.52 0-.93-.42-.93-.93l.03-7.46c0-.51.42-.92.93-.92 0 0 0 0 0 0 .51 0 .93.42.92.93l-.03 7.46C131.05 789.14 130.63 789.55 130.12 789.55zM130.18 774.62C130.17 774.62 130.17 774.62 130.18 774.62c-.52 0-.93-.42-.93-.93l.03-7.46c0-.51.42-.92.93-.92 0 0 0 0 0 0 .51 0 .93.42.92.93l-.03 7.46C131.1 774.21 130.69 774.62 130.18 774.62zM130.23 759.69C130.23 759.69 130.23 759.69 130.23 759.69c-.52 0-.93-.42-.93-.93l.03-7.46c0-.51.42-.92.93-.92 0 0 0 0 0 0 .51 0 .93.42.92.93l-.03 7.46C131.15 759.28 130.74 759.69 130.23 759.69zM130.28 744.77C130.28 744.77 130.28 744.77 130.28 744.77c-.52 0-.93-.42-.93-.93l.03-7.46c0-.51.42-.92.93-.92 0 0 0 0 0 0 .51 0 .93.42.92.93l-.03 7.46C131.21 744.35 130.79 744.77 130.28 744.77zM130.33 729.84C130.33 729.84 130.33 729.84 130.33 729.84c-.52 0-.93-.42-.93-.93l.03-7.46c0-.51.42-.92.93-.92 0 0 0 0 0 0 .51 0 .93.42.92.93l-.03 7.46C131.26 729.42 130.84 729.84 130.33 729.84zM130.39 714.91C130.39 714.91 130.38 714.91 130.39 714.91c-.52 0-.93-.42-.93-.93l.03-7.46c0-.51.42-.92.93-.92 0 0 0 0 0 0 .51 0 .93.42.92.93l-.03 7.46C131.31 714.49 130.9 714.91 130.39 714.91zM130.44 699.98C130.44 699.98 130.44 699.98 130.44 699.98c-.52 0-.93-.42-.93-.93l.03-7.46c0-.51.42-.92.93-.92 0 0 0 0 0 0 .51 0 .93.42.92.93l-.03 7.46C131.36 699.56 130.95 699.98 130.44 699.98zM130.49 685.05C130.49 685.05 130.49 685.05 130.49 685.05c-.52 0-.93-.42-.93-.93l.03-7.46c0-.51.42-.92.93-.92 0 0 0 0 0 0 .51 0 .93.42.92.93l-.03 7.46C131.42 684.64 131 685.05 130.49 685.05zM130.54 670.12C130.54 670.12 130.54 670.12 130.54 670.12c-.52 0-.93-.42-.93-.93l.03-7.46c0-.51.42-.92.93-.92 0 0 0 0 0 0 .51 0 .93.42.92.93l-.03 7.46C131.47 669.71 131.06 670.12 130.54 670.12zM130.6 655.19C130.6 655.19 130.6 655.19 130.6 655.19c-.52 0-.93-.42-.93-.93l.03-7.46c0-.51.42-.92.93-.92 0 0 0 0 0 0 .51 0 .93.42.92.93l-.03 7.46C131.52 654.78 131.11 655.19 130.6 655.19zM130.65 640.26C130.65 640.26 130.65 640.26 130.65 640.26c-.52 0-.93-.42-.93-.93l.03-7.46c0-.51.42-.92.93-.92 0 0 0 0 0 0 .51 0 .93.42.92.93l-.03 7.46C131.58 639.85 131.16 640.26 130.65 640.26zM130.7 625.33C130.7 625.33 130.7 625.33 130.7 625.33c-.52 0-.93-.42-.93-.93l.03-7.46c0-.51.42-.92.93-.92 0 0 0 0 0 0 .51 0 .93.42.92.93l-.03 7.46C131.63 624.92 131.21 625.33 130.7 625.33zM130.76 610.4C130.75 610.4 130.75 610.4 130.76 610.4c-.52 0-.93-.42-.93-.93l.03-7.46c0-.51.42-.92.93-.92 0 0 0 0 0 0 .51 0 .93.42.92.93l-.03 7.46C131.68 609.99 131.27 610.4 130.76 610.4zM130.81 595.47C130.81 595.47 130.81 595.47 130.81 595.47c-.52 0-.93-.42-.93-.93l.03-7.46c0-.51.42-.92.93-.92 0 0 0 0 0 0 .51 0 .93.42.92.93l-.03 7.46C131.73 595.06 131.32 595.47 130.81 595.47zM130.86 580.54C130.86 580.54 130.86 580.54 130.86 580.54c-.52 0-.93-.42-.93-.93l.03-7.46c0-.51.42-.92.93-.92 0 0 0 0 0 0 .51 0 .93.42.92.93l-.03 7.46C131.79 580.13 131.37 580.54 130.86 580.54zM130.91 565.61C130.91 565.61 130.91 565.61 130.91 565.61c-.52 0-.93-.42-.93-.93l.03-7.46c0-.51.42-.92.93-.92 0 0 0 0 0 0 .51 0 .93.42.92.93l-.03 7.46C131.84 565.2 131.43 565.61 130.91 565.61zM130.97 550.69C130.97 550.69 130.96 550.69 130.97 550.69c-.52 0-.93-.42-.93-.93l.03-7.46c0-.51.42-.92.93-.92 0 0 0 0 0 0 .51 0 .93.42.92.93l-.03 7.46C131.89 550.27 131.48 550.69 130.97 550.69zM131.02 535.76C131.02 535.76 131.02 535.76 131.02 535.76c-.52 0-.93-.42-.93-.93l.01-3.71c0-.51.42-.92.93-.92 0 0 0 0 0 0l3.71.01c.51 0 .93.42.92.93 0 .51-.42.92-.93.92 0 0 0 0 0 0l-2.78-.01-.01 2.78C131.95 535.34 131.53 535.76 131.02 535.76zM328.6 532.75C328.6 532.75 328.59 532.75 328.6 532.75l-7.46-.03c-.51 0-.93-.42-.92-.93 0-.51.42-.92.93-.92 0 0 0 0 0 0l7.46.03c.51 0 .93.42.92.93C329.52 532.33 329.11 532.75 328.6 532.75zM313.69 532.69C313.68 532.69 313.68 532.69 313.69 532.69l-7.46-.03c-.51 0-.93-.42-.92-.93 0-.51.42-.92.93-.92 0 0 0 0 0 0l7.46.03c.51 0 .93.42.92.93C314.61 532.28 314.2 532.69 313.69 532.69zM298.77 532.64C298.77 532.64 298.77 532.64 298.77 532.64l-7.46-.03c-.51 0-.93-.42-.92-.93 0-.51.42-.92.93-.92 0 0 0 0 0 0l7.46.03c.51 0 .93.42.92.93C299.7 532.23 299.28 532.64 298.77 532.64zM283.86 532.59C283.86 532.59 283.86 532.59 283.86 532.59l-7.46-.03c-.51 0-.93-.42-.92-.93 0-.51.42-.92.93-.92 0 0 0 0 0 0l7.46.03c.51 0 .93.42.92.93C284.79 532.18 284.37 532.59 283.86 532.59zM268.95 532.54C268.95 532.54 268.95 532.54 268.95 532.54l-7.46-.03c-.51 0-.93-.42-.92-.93 0-.51.42-.92.93-.92 0 0 0 0 0 0l7.46.03c.51 0 .93.42.92.93C269.87 532.12 269.46 532.54 268.95 532.54zM254.04 532.48C254.04 532.48 254.03 532.48 254.04 532.48l-7.46-.03c-.51 0-.93-.42-.92-.93 0-.51.42-.92.93-.92 0 0 0 0 0 0l7.46.03c.51 0 .93.42.92.93C254.96 532.07 254.55 532.48 254.04 532.48zM239.13 532.43C239.12 532.43 239.12 532.43 239.13 532.43l-7.46-.03c-.51 0-.93-.42-.92-.93 0-.51.42-.92.93-.92 0 0 0 0 0 0l7.46.03c.51 0 .93.42.92.93C240.05 532.02 239.64 532.43 239.13 532.43zM224.21 532.38C224.21 532.38 224.21 532.38 224.21 532.38l-7.46-.03c-.51 0-.93-.42-.92-.93 0-.51.42-.92.93-.92 0 0 0 0 0 0l7.46.03c.51 0 .93.42.92.93C225.14 531.97 224.72 532.38 224.21 532.38zM209.3 532.33C209.3 532.33 209.3 532.33 209.3 532.33l-7.46-.03c-.51 0-.93-.42-.92-.93 0-.51.42-.92.93-.92 0 0 0 0 0 0l7.46.03c.51 0 .93.42.92.93C210.23 531.91 209.81 532.33 209.3 532.33zM194.39 532.27C194.39 532.27 194.39 532.27 194.39 532.27l-7.46-.03c-.51 0-.93-.42-.92-.93 0-.51.42-.92.93-.92 0 0 0 0 0 0l7.46.03c.51 0 .93.42.92.93C195.31 531.86 194.9 532.27 194.39 532.27zM179.48 532.22C179.48 532.22 179.48 532.22 179.48 532.22l-7.46-.03c-.51 0-.93-.42-.92-.93 0-.51.42-.92.93-.92 0 0 0 0 0 0l7.46.03c.51 0 .93.42.92.93C180.4 531.81 179.99 532.22 179.48 532.22zM164.57 532.17C164.56 532.17 164.56 532.17 164.57 532.17l-7.46-.03c-.51 0-.93-.42-.92-.93 0-.51.42-.92.93-.92 0 0 0 0 0 0l7.46.03c.51 0 .93.42.92.93C165.49 531.75 165.08 532.17 164.57 532.17zM149.65 532.11C149.65 532.11 149.65 532.11 149.65 532.11l-7.46-.03c-.51 0-.93-.42-.92-.93 0-.51.42-.92.93-.92 0 0 0 0 0 0l7.46.03c.51 0 .93.42.92.93C150.58 531.7 150.16 532.11 149.65 532.11zM339.75 536.49C339.75 536.49 339.75 536.49 339.75 536.49c-.52 0-.93-.42-.93-.93l.01-2.78-2.78-.01c-.51 0-.93-.42-.92-.93 0-.51.42-.92.93-.92 0 0 0 0 0 0l3.71.01c.25 0 .48.1.65.27.17.17.27.41.27.66l-.01 3.71C340.67 536.08 340.26 536.49 339.75 536.49zM338.8 805.22C338.8 805.22 338.8 805.22 338.8 805.22c-.52 0-.93-.42-.93-.93l.03-7.46c0-.51.42-.92.93-.92 0 0 0 0 0 0 .51 0 .93.42.92.93l-.03 7.46C339.72 804.81 339.31 805.22 338.8 805.22zM338.85 790.29C338.85 790.29 338.85 790.29 338.85 790.29c-.52 0-.93-.42-.93-.93l.03-7.46c0-.51.42-.92.93-.92 0 0 0 0 0 0 .51 0 .93.42.92.93l-.03 7.46C339.78 789.88 339.36 790.29 338.85 790.29zM338.9 775.36C338.9 775.36 338.9 775.36 338.9 775.36c-.52 0-.93-.42-.93-.93l.03-7.46c0-.51.42-.92.93-.92 0 0 0 0 0 0 .51 0 .93.42.92.93l-.03 7.46C339.83 774.95 339.41 775.36 338.9 775.36zM338.96 760.43C338.95 760.43 338.95 760.43 338.96 760.43c-.52 0-.93-.42-.93-.93l.03-7.46c0-.51.42-.92.93-.92 0 0 0 0 0 0 .51 0 .93.42.92.93l-.03 7.46C339.88 760.02 339.47 760.43 338.96 760.43zM339.01 745.5C339.01 745.5 339.01 745.5 339.01 745.5c-.52 0-.93-.42-.93-.93l.03-7.46c0-.51.42-.92.93-.92 0 0 0 0 0 0 .51 0 .93.42.92.93l-.03 7.46C339.93 745.09 339.52 745.5 339.01 745.5zM339.06 730.57C339.06 730.57 339.06 730.57 339.06 730.57c-.52 0-.93-.42-.93-.93l.03-7.46c0-.51.42-.92.93-.92 0 0 0 0 0 0 .51 0 .93.42.92.93l-.03 7.46C339.99 730.16 339.57 730.57 339.06 730.57zM339.11 715.64C339.11 715.64 339.11 715.64 339.11 715.64c-.52 0-.93-.42-.93-.93l.03-7.46c0-.51.42-.92.93-.92 0 0 0 0 0 0 .51 0 .93.42.92.93l-.03 7.46C340.04 715.23 339.62 715.64 339.11 715.64zM339.17 700.72C339.17 700.72 339.16 700.72 339.17 700.72c-.52 0-.93-.42-.93-.93l.03-7.46c0-.51.42-.92.93-.92 0 0 0 0 0 0 .51 0 .93.42.92.93l-.03 7.46C340.09 700.3 339.68 700.72 339.17 700.72zM339.22 685.79C339.22 685.79 339.22 685.79 339.22 685.79c-.52 0-.93-.42-.93-.93l.03-7.46c0-.51.42-.92.93-.92 0 0 0 0 0 0 .51 0 .93.42.92.93l-.03 7.46C340.14 685.37 339.73 685.79 339.22 685.79zM339.27 670.86C339.27 670.86 339.27 670.86 339.27 670.86c-.52 0-.93-.42-.93-.93l.03-7.46c0-.51.42-.92.93-.92 0 0 0 0 0 0 .51 0 .93.42.92.93l-.03 7.46C340.2 670.44 339.78 670.86 339.27 670.86zM339.33 655.93C339.32 655.93 339.32 655.93 339.33 655.93c-.52 0-.93-.42-.93-.93l.03-7.46c0-.51.42-.92.93-.92 0 0 0 0 0 0 .51 0 .93.42.92.93l-.03 7.46C340.25 655.52 339.84 655.93 339.33 655.93zM339.38 641C339.38 641 339.38 641 339.38 641c-.52 0-.93-.42-.93-.93l.03-7.46c0-.51.42-.92.93-.92 0 0 0 0 0 0 .51 0 .93.42.92.93l-.03 7.46C340.3 640.59 339.89 641 339.38 641zM339.43 626.07C339.43 626.07 339.43 626.07 339.43 626.07c-.52 0-.93-.42-.93-.93l.03-7.46c0-.51.42-.92.93-.92 0 0 0 0 0 0 .51 0 .93.42.92.93l-.03 7.46C340.36 625.66 339.94 626.07 339.43 626.07zM339.48 611.14C339.48 611.14 339.48 611.14 339.48 611.14c-.52 0-.93-.42-.93-.93l.03-7.46c0-.51.42-.92.93-.92 0 0 0 0 0 0 .51 0 .93.42.92.93l-.03 7.46C340.41 610.73 339.99 611.14 339.48 611.14zM339.54 596.21C339.54 596.21 339.53 596.21 339.54 596.21c-.52 0-.93-.42-.93-.93l.03-7.46c0-.51.42-.92.93-.92 0 0 0 0 0 0 .51 0 .93.42.92.93l-.03 7.46C340.46 595.8 340.05 596.21 339.54 596.21zM339.59 581.28C339.59 581.28 339.59 581.28 339.59 581.28c-.52 0-.93-.42-.93-.93l.03-7.46c0-.51.42-.92.93-.92 0 0 0 0 0 0 .51 0 .93.42.92.93l-.03 7.46C340.51 580.87 340.1 581.28 339.59 581.28zM339.64 566.35C339.64 566.35 339.64 566.35 339.64 566.35c-.52 0-.93-.42-.93-.93l.03-7.46c0-.51.42-.92.93-.92 0 0 0 0 0 0 .51 0 .93.42.92.93l-.03 7.46C340.57 565.94 340.15 566.35 339.64 566.35zM339.69 551.42C339.69 551.42 339.69 551.42 339.69 551.42c-.52 0-.93-.42-.93-.93l.03-7.46c0-.51.42-.92.93-.92 0 0 0 0 0 0 .51 0 .93.42.92.93l-.03 7.46C340.62 551.01 340.21 551.42 339.69 551.42z" class="color9c1c1c svgShape"></path></g><g fill="#000000" class="color000000 svgShape"><path fill="#ffffff" d="M212.22 644.91h-22.3v-1.35c1.2 0 2.09-.1 2.67-.31.58-.21.97-.61 1.15-1.21.18-.6.27-1.48.27-2.65v-18.3c0-1.17-.09-2.07-.27-2.7s-.56-1.06-1.15-1.3c-.58-.24-1.48-.36-2.67-.36v-1.35h12.63v1.35c-1.2 0-2.12.13-2.76.38-.64.25-1.08.7-1.3 1.33-.22.63-.34 1.53-.34 2.7v19.51c0 .99.24 1.63.72 1.93.48.3 1.38.45 2.7.45h2.07c1.5 0 2.71-.11 3.64-.34.93-.22 1.67-.61 2.23-1.15.55-.54 1.02-1.25 1.39-2.14.37-.88.79-1.97 1.24-3.26h1.44L212.22 644.91zM226.15 644.91h-9.44v-1.35c.84 0 1.51-.13 2.02-.4.51-.27 1-.82 1.48-1.64.48-.82 1.08-2.09 1.8-3.8l9.53-22.57h1.84l10.65 24.41c.66 1.47 1.3 2.5 1.91 3.1.61.6 1.52.9 2.72.9v1.35h-12.09v-1.35c.45 0 .91-.03 1.39-.09.48-.06.88-.21 1.21-.45.33-.24.49-.61.49-1.12 0-.33-.05-.71-.16-1.15-.11-.43-.31-.98-.61-1.64l-1.93-4.5-.31-.9-5.12-13.04h-.13l-5.26 13.04-.31.9-2.2 5.21c-.12.36-.23.71-.34 1.06-.11.34-.16.73-.16 1.15 0 .63.24 1.04.72 1.24.48.2 1.24.29 2.29.29V644.91zM237.66 635.06h-12.5l.67-1.8h11.15L237.66 635.06zM261.57 645.18h-1.12l-9.35-23.56c-.69-1.89-1.39-3.17-2.11-3.84-.72-.67-1.66-1.03-2.83-1.06v-1.35h11.6v1.35c-1.14 0-1.92.13-2.34.38-.42.25-.63.62-.63 1.1 0 .57.21 1.39.63 2.47l5.21 13.13 1.39 3.78h.22l5.3-13.71 2.11 3.46h-1.3L261.57 645.18zM276.5 645.18h-1.21l-7.01-18.52-.72-1.53-1.48-4.14c-.48-1.32-.91-2.28-1.3-2.88-.39-.6-.84-.98-1.35-1.15-.51-.16-1.2-.25-2.07-.25v-1.35h11.73v1.35c-2.28 0-3.42.51-3.42 1.53 0 .36.09.78.27 1.26.18.48.34.93.49 1.35l4.68 12.14 1.48 4.45h.22l5.12-14.92c.15-.48.28-.94.4-1.39.12-.45.22-.89.29-1.33.07-.43.11-.83.11-1.19 0-.69-.24-1.18-.72-1.46-.48-.28-1.24-.43-2.29-.43v-1.35H289v1.35c-1.05.03-1.84.27-2.38.72-.54.45-1.02 1.24-1.44 2.38L276.5 645.18z" class="colorffffff svgShape"></path></g></g><g fill="#000000" class="color000000 svgShape"><path fill="#e3f1ff" d="M328.35,783.62v34.6h100.57c9.54,0,17.31-7.75,17.31-17.29c0-9.54-7.77-17.31-17.31-17.31H328.35z" class="colorfff4e3 svgShape"></path><path fill="#476eff" d="M620.15,782.16v37.51c0,2.97-2.41,5.38-5.38,5.38H328.35v-6.84h108.8c17.52-15.16,6.87-34.6-8.23-34.6
						H328.35v-6.84h286.42C617.74,776.79,620.15,779.2,620.15,782.16z" class="colorffbc47 svgShape"></path><rect width="6.48" height="48.27" x="467.81" y="776.79" fill="#94c9ff" transform="rotate(-180 471.05 800.922)" class="colorffd894 svgShape"></rect><rect width="6.48" height="48.27" x="484" y="776.79" fill="#94c9ff" transform="rotate(-180 487.24 800.922)" class="colorffd894 svgShape"></rect><path fill="#9dc4eb" d="M620.15,818.23v1.45c0,2.97-2.41,5.38-5.38,5.38H402.61l-1.74-6.84h28.04c9.54,0,17.31-7.75,17.31-17.29
				c0-9.54-7.77-17.3-17.31-17.3h-30.95l5.83-6.84h51.41c4.31,3.64,7.03,17.62,3.1,29.29c-5.51,16.36,3.32,11.42,23.8,12.14
				C501.17,818.89,605.62,818.32,620.15,818.23z" class="colorebcf9d svgShape"></path><path fill="#2e5aff" d="M433.61,784.27c-3.18-3.76-7.93-6.16-13.22-6.16h-92.04v5.51h100.57
						C430.54,783.62,432.12,783.85,433.61,784.27z" class="colorffb32e svgShape"></path><path fill="#94c9ff" d="M453.06,800.93c0,13.3-10.83,24.13-24.14,24.13H328.35v-6.84h100.57c9.54,0,17.31-7.75,17.31-17.29
							c0-9.54-7.77-17.3-17.31-17.3H328.35v-6.84h100.57C442.23,776.79,453.06,787.61,453.06,800.93z" class="colorffd894 svgShape"></path><path fill="#c2dbf5" d="M392.14 790.24h-59.24c-.72 0-1.3-.58-1.3-1.3l0 0c0-.72.58-1.3 1.3-1.3h59.24c.72 0 1.3.58 1.3 1.3l0 0C393.44 789.66 392.86 790.24 392.14 790.24zM434.49 814.91h-67.18c-.72 0-1.3-.58-1.3-1.3l0 0c0-.72.58-1.3 1.3-1.3h67.18c.72 0 1.3.58 1.3 1.3l0 0C435.79 814.33 435.21 814.91 434.49 814.91zM392.14 802.84h-37c-.72 0-1.3-.58-1.3-1.3l0 0c0-.72.58-1.3 1.3-1.3h37c.72 0 1.3.58 1.3 1.3l0 0C393.44 802.26 392.86 802.84 392.14 802.84zM348.23 802.84h-15.99c-.72 0-1.3-.58-1.3-1.3l0 0c0-.72.58-1.3 1.3-1.3h15.99c.72 0 1.3.58 1.3 1.3l0 0C349.53 802.26 348.95 802.84 348.23 802.84zM428.13 802.84h-15.99c-.72 0-1.3-.58-1.3-1.3l0 0c0-.72.58-1.3 1.3-1.3h15.99c.72 0 1.3.58 1.3 1.3l0 0C429.43 802.26 428.85 802.84 428.13 802.84zM418.84 790.24h-5.27c-.72 0-1.3-.58-1.3-1.3l0 0c0-.72.58-1.3 1.3-1.3h5.27c.72 0 1.3.58 1.3 1.3l0 0C420.14 789.66 419.56 790.24 418.84 790.24zM359.97 814.91h-5.27c-.72 0-1.3-.58-1.3-1.3l0 0c0-.72.58-1.3 1.3-1.3h5.27c.72 0 1.3.58 1.3 1.3l0 0C361.27 814.33 360.69 814.91 359.97 814.91zM442.36 802.84h-5.27c-.72 0-1.3-.58-1.3-1.3l0 0c0-.72.58-1.3 1.3-1.3h5.27c.72 0 1.3.58 1.3 1.3l0 0C443.66 802.26 443.08 802.84 442.36 802.84z" class="colorf5dac2 svgShape"></path><g fill="#000000" class="color000000 svgShape"><polygon fill="#4e66c2" points="409.44 793.36 409.44 808.48 402.67 803.14 395.9 808.48 395.9 793.36" class="colorc24e4e svgShape"></polygon></g><g fill="#000000" class="color000000 svgShape"><path fill="#254ee6" d="M513.76 810.02h10.09v3.06H510v-28.81h3.76V810.02zM527.86 795.58c.94-1.75 2.22-3.11 3.86-4.07 1.64-.96 3.47-1.45 5.48-1.45 1.98 0 3.71.43 5.17 1.28 1.46.85 2.55 1.93 3.27 3.22v-4.13h3.8v22.65h-3.8v-4.22c-.74 1.32-1.85 2.42-3.33 3.29-1.47.87-3.19 1.3-5.15 1.3-2.01 0-3.83-.5-5.46-1.49-1.63-.99-2.91-2.38-3.84-4.17-.94-1.79-1.41-3.83-1.41-6.12C526.45 799.36 526.92 797.33 527.86 795.58zM544.6 797.25c-.69-1.27-1.62-2.24-2.79-2.91-1.17-.68-2.46-1.01-3.86-1.01-1.41 0-2.69.33-3.84.99-1.16.66-2.08 1.63-2.77 2.89-.69 1.27-1.03 2.76-1.03 4.46 0 1.74.34 3.24 1.03 4.53.69 1.28 1.61 2.26 2.77 2.93 1.16.68 2.44 1.01 3.84 1.01 1.4 0 2.69-.34 3.86-1.01 1.17-.68 2.1-1.65 2.79-2.93.69-1.28 1.03-2.78 1.03-4.48C545.63 800.01 545.29 798.52 544.6 797.25zM585.97 790.43l-7.07 22.65h-3.89l-5.46-17.98-5.46 17.98h-3.89l-7.11-22.65h3.84l5.21 19.01 5.62-19.01h3.84l5.5 19.05 5.13-19.05H585.97z" class="colore68925 svgShape"></path></g><g fill="#000000" class="color000000 svgShape"><path fill="#e3f1ff" d="M594.63,775.34c-1.49-0.53-249.65,1.01-250.72-0.53c-6.03-2.81-11.13-7.56-14.4-13.35h-0.04v-31.71h0.02
							c3.47-6.16,9.01-11.12,15.52-13.86h249.16C588.3,735.15,590.59,755.93,594.63,775.34z" class="colorfff4e3 svgShape"></path><path fill="#283873" d="M598.44,768.8c0.87,0.87,1.41,2.07,1.41,3.4c0,2.65-2.15,4.81-4.81,4.81H353.06
						c-4.43,0-8.66-0.89-12.49-2.51c-0.4-0.17-0.79-0.34-1.18-0.53c-0.4-0.18-0.79-0.38-1.19-0.59c-0.32-0.17-0.64-0.34-0.96-0.52
						c-0.34-0.19-0.67-0.38-1-0.59c-0.28-0.17-0.56-0.35-0.83-0.52c-0.29-0.19-0.58-0.38-0.86-0.58c-0.25-0.18-0.5-0.35-0.74-0.53
						c-0.26-0.19-0.5-0.38-0.75-0.59c-0.22-0.18-0.44-0.35-0.65-0.53c-0.23-0.19-0.46-0.39-0.68-0.59
						c-0.19-0.17-0.38-0.34-0.57-0.52c-0.22-0.19-0.42-0.39-0.63-0.59c-0.09-0.09-0.18-0.18-0.26-0.26
						c-0.09-0.09-0.17-0.17-0.25-0.26c-0.19-0.19-0.38-0.38-0.55-0.58c-0.17-0.17-0.33-0.34-0.49-0.53
						c-0.17-0.19-0.34-0.38-0.51-0.59c-0.15-0.17-0.3-0.34-0.43-0.52c-0.16-0.19-0.32-0.39-0.47-0.59
						c-0.14-0.17-0.26-0.34-0.39-0.52c-0.14-0.19-0.29-0.38-0.42-0.58c-0.13-0.18-0.26-0.35-0.37-0.53
						c-0.14-0.19-0.26-0.39-0.39-0.59c-0.11-0.18-0.22-0.34-0.33-0.52c-0.12-0.19-0.24-0.39-0.36-0.59c-0.1-0.18-0.21-0.35-0.3-0.53
						c-0.02-0.02-0.03-0.05-0.04-0.07c-2.63-4.67-4.13-10.06-4.13-15.8s1.5-11.12,4.13-15.8c0.01-0.02,0.02-0.03,0.02-0.05
						c0.1-0.18,0.2-0.35,0.3-0.52c0.11-0.2,0.23-0.4,0.36-0.59c0.1-0.18,0.22-0.34,0.33-0.52c0.12-0.19,0.25-0.39,0.38-0.58
						c0.12-0.18,0.24-0.35,0.37-0.53c0.14-0.2,0.28-0.39,0.42-0.58c0.13-0.18,0.26-0.35,0.39-0.52c0.15-0.2,0.31-0.4,0.46-0.59
						c0.14-0.18,0.29-0.35,0.43-0.52c0.17-0.2,0.34-0.39,0.51-0.59c0.15-0.18,0.31-0.36,0.48-0.53c0.18-0.2,0.36-0.39,0.55-0.58
						c0.17-0.18,0.34-0.35,0.52-0.53c0.2-0.19,0.41-0.39,0.62-0.58c0.18-0.18,0.38-0.35,0.58-0.52c0.22-0.2,0.46-0.4,0.69-0.59
						c0.21-0.18,0.42-0.35,0.63-0.52c0.25-0.2,0.5-0.39,0.75-0.58c0.24-0.18,0.48-0.35,0.73-0.53c0.28-0.2,0.57-0.39,0.86-0.59
						c0.27-0.18,0.54-0.35,0.83-0.52c0.33-0.21,0.66-0.4,1-0.59c0.32-0.18,0.64-0.36,0.97-0.53c0.39-0.2,0.77-0.39,1.16-0.58
						c0.38-0.18,0.78-0.36,1.18-0.53c3.86-1.63,8.11-2.54,12.57-2.54h241.98c1.33,0,2.53,0.54,3.4,1.41
						c0.87,0.87,1.41,2.07,1.41,3.4c0,2.66-2.15,4.81-4.81,4.81H353.9c-0.81,0-1.61,0.04-2.4,0.12c-1.17,0.11-2.31,0.31-3.42,0.58
						c-0.61,0.15-1.22,0.33-1.81,0.53c-0.54,0.18-1.07,0.37-1.59,0.59c-0.39,0.16-0.78,0.34-1.15,0.52
						c-0.39,0.18-0.78,0.38-1.16,0.59c-0.3,0.16-0.6,0.33-0.9,0.52c-0.31,0.18-0.62,0.38-0.93,0.58c-0.26,0.17-0.51,0.34-0.76,0.53
						c-0.26,0.19-0.51,0.38-0.77,0.58c-0.22,0.17-0.42,0.35-0.63,0.52c-0.22,0.19-0.45,0.38-0.67,0.59
						c-0.18,0.17-0.37,0.34-0.55,0.52c-0.2,0.19-0.39,0.38-0.58,0.58c-0.17,0.18-0.33,0.35-0.48,0.53c-0.18,0.19-0.34,0.38-0.5,0.58
						c-0.15,0.17-0.3,0.34-0.42,0.52c-0.16,0.19-0.3,0.39-0.45,0.59c-0.14,0.18-0.26,0.35-0.38,0.53c-0.13,0.19-0.26,0.38-0.38,0.58
						c-0.12,0.18-0.23,0.35-0.33,0.53c-0.13,0.19-0.24,0.39-0.35,0.59c-0.1,0.18-0.2,0.34-0.28,0.52c-0.11,0.19-0.21,0.38-0.3,0.58
						c-0.09,0.18-0.18,0.35-0.25,0.53c-0.1,0.19-0.18,0.38-0.26,0.58c-0.08,0.18-0.14,0.34-0.21,0.52c-0.09,0.2-0.16,0.39-0.22,0.59
						c-0.07,0.17-0.13,0.34-0.18,0.52c-0.07,0.19-0.14,0.38-0.18,0.58c-0.06,0.18-0.11,0.35-0.16,0.53
						c-0.06,0.19-0.1,0.39-0.15,0.59c-0.05,0.17-0.09,0.34-0.12,0.52c-0.05,0.19-0.09,0.39-0.12,0.59c-0.04,0.17-0.07,0.34-0.1,0.52
						c-0.04,0.19-0.06,0.38-0.09,0.58c-0.03,0.18-0.06,0.35-0.07,0.53c-0.02,0.19-0.04,0.38-0.06,0.59
						c-0.02,0.18-0.03,0.35-0.04,0.53c-0.02,0.19-0.02,0.38-0.02,0.59c-0.02,0.17-0.02,0.34-0.02,0.52
						c-0.01,0.1-0.01,0.18-0.01,0.28c0,0.1,0,0.21,0.01,0.31c0,0.18,0,0.35,0.02,0.52c0,0.2,0.01,0.39,0.02,0.58
						c0.01,0.18,0.02,0.35,0.05,0.53c0.01,0.2,0.02,0.39,0.06,0.59c0.02,0.18,0.04,0.35,0.07,0.52c0.02,0.2,0.05,0.4,0.09,0.59
						c0.02,0.18,0.06,0.35,0.1,0.53c0.03,0.19,0.07,0.38,0.12,0.58c0.03,0.18,0.07,0.35,0.12,0.53c0.05,0.2,0.1,0.39,0.15,0.59
						c0.05,0.18,0.1,0.35,0.16,0.52c0.06,0.2,0.11,0.39,0.19,0.58c0.05,0.18,0.1,0.35,0.18,0.52c0.06,0.2,0.14,0.39,0.22,0.59
						c0.06,0.18,0.14,0.34,0.22,0.52c0.08,0.2,0.17,0.39,0.26,0.58c0.07,0.18,0.16,0.35,0.25,0.53c0.1,0.2,0.19,0.39,0.3,0.59
						c0.09,0.18,0.18,0.34,0.28,0.52c0.11,0.2,0.22,0.4,0.35,0.59c0.1,0.18,0.21,0.35,0.33,0.52c0.12,0.2,0.25,0.39,0.38,0.58
						c0.12,0.18,0.25,0.35,0.38,0.53c0.14,0.2,0.29,0.39,0.44,0.59c0.14,0.18,0.27,0.35,0.43,0.52c0.16,0.2,0.33,0.4,0.51,0.59
						c0.15,0.18,0.31,0.35,0.48,0.53c0.18,0.19,0.38,0.39,0.57,0.58c0.18,0.18,0.38,0.36,0.56,0.53c0.22,0.21,0.44,0.4,0.67,0.59
						c0.21,0.18,0.42,0.35,0.63,0.52c0.26,0.2,0.51,0.4,0.78,0.59c0.25,0.18,0.5,0.36,0.76,0.53c0.3,0.21,0.61,0.4,0.93,0.58
						c0.3,0.18,0.6,0.36,0.91,0.52c0.38,0.22,0.77,0.41,1.16,0.59c0.38,0.18,0.77,0.36,1.16,0.52c0.53,0.22,1.07,0.41,1.61,0.59
						c0.61,0.21,1.23,0.38,1.86,0.53c1.2,0.3,2.44,0.49,3.71,0.58c0.65,0.06,1.3,0.09,1.96,0.09h241.14
						C596.37,767.39,597.58,767.92,598.44,768.8z" class="color28736d svgShape"></path><path fill="#c2dbf5" d="M475.1 734.32H350.86c-.72 0-1.3-.58-1.3-1.3l0 0c0-.72.58-1.3 1.3-1.3H475.1c.72 0 1.3.58 1.3 1.3l0 0C476.4 733.73 475.81 734.32 475.1 734.32zM561.97 758.98H421.44c-.72 0-1.3-.58-1.3-1.3l0 0c0-.72.58-1.3 1.3-1.3h140.52c.72 0 1.3.58 1.3 1.3l0 0C563.27 758.4 562.69 758.98 561.97 758.98zM475.1 746.92h-78.62c-.72 0-1.3-.58-1.3-1.3l0 0c0-.72.58-1.3 1.3-1.3h78.62c.72 0 1.3.58 1.3 1.3l0 0C476.4 746.33 475.81 746.92 475.1 746.92zM385.03 746.92H349.5c-.72 0-1.3-.58-1.3-1.3l0 0c0-.72.58-1.3 1.3-1.3h35.52c.72 0 1.3.58 1.3 1.3l0 0C386.32 746.33 385.74 746.92 385.03 746.92zM548.92 746.92h-35.52c-.72 0-1.3-.58-1.3-1.3l0 0c0-.72.58-1.3 1.3-1.3h35.52c.72 0 1.3.58 1.3 1.3l0 0C550.22 746.33 549.63 746.92 548.92 746.92zM526.93 735.62h-13.54c-.72 0-1.3-.58-1.3-1.3l0 0c0-.72.58-1.3 1.3-1.3h13.54c.72 0 1.3.58 1.3 1.3l0 0C528.23 735.03 527.65 735.62 526.93 735.62zM409.11 758.98h-13.54c-.72 0-1.3-.58-1.3-1.3l0 0c0-.72.58-1.3 1.3-1.3h13.54c.72 0 1.3.58 1.3 1.3l0 0C410.41 758.4 409.83 758.98 409.11 758.98zM578.11 746.92h-13.54c-.72 0-1.3-.58-1.3-1.3l0 0c0-.72.58-1.3 1.3-1.3h13.54c.72 0 1.3.58 1.3 1.3l0 0C579.41 746.33 578.82 746.92 578.11 746.92z" class="colorf5dac2 svgShape"></path><polygon fill="#3a59cf" points="499.78 751.37 491.67 746.76 483.56 751.37 483.56 731.72 499.78 731.72" class="colorcf3a3a svgShape"></polygon></g></g><g fill="#000000" class="color000000 svgShape"><path fill="#deeeff" d="M1156.52,782.2c-0.07,1.12-0.18,2.2-0.29,3.27c-0.35,3.44-0.82,6.58-1.29,9.21
				c-0.84,4.72-5.56,8.21-11.1,8.21h-94.57c-5.54,0-10.26-3.47-11.1-8.19c-0.55-3.07-1.1-6.82-1.47-10.92
				c-0.02-0.21-0.04-0.44-0.05-0.66c-1.08-13.09-0.18-29.61,8.87-39.48c16.38-17.85,41.86-38.17,42.98-54.12
				c0.03-0.35,0.04-0.72,0.04-1.06c0-16.11-26.26-36.93-43.01-55.19c-4.11-4.47-6.53-10.33-7.85-16.59
				c-2.2-10.37-1.39-21.91-0.17-30.37c1.02-7.03,7.95-12.3,16.17-12.3h82.93c7.75,0,14.42,4.7,15.96,11.22
				c1.88,7.9,3.68,18.81,2.6,28.96c-0.76,7.2-2.95,14.01-7.6,19.07c-16.75,18.26-43.01,39.07-43.01,55.19
				c0,0.25,0.01,0.49,0.02,0.75c0.79,16.01,26.51,36.47,42.99,54.44C1156.42,753.28,1157.49,769.26,1156.52,782.2z" class="colordef1ff svgShape"></path><path fill="#476eff" d="M1140.36 622.71c-15.6-4.96-33.25 10.24-51.27 10.88-18.02.64-37.38-8.72-37.38-8.72 1.01 4.77 2.85 9.22 5.98 12.63 12.74 13.89 35.25 32.38 35.68 45.43l3.57 66.65 2.24-66.65c1.1-12.83 23.35-31.34 36.21-45.43 3.54-3.85 5.21-9.05 5.79-14.53C1140.89 622.89 1140.63 622.8 1140.36 622.71zM1097.14 762.63c-9.82-.13-34.26 6.18-49.95 9.84-2.9.68-4.81 3.06-4.51 5.63.41 3.43 1.04 6.68 1.58 9.13.55 2.5 3.09 4.3 6.04 4.3h92.48c2.98 0 5.54-1.84 6.05-4.36.39-1.9.84-4.34 1.23-7.13.35-2.49-1.36-4.85-4.12-5.66C1130.39 769.78 1106.17 762.75 1097.14 762.63z" class="colorffbc47 svgShape"></path><path fill="#e8e8e8" d="M1156.52,782.2c-0.07,1.12-0.18,2.2-0.29,3.27c-0.35,3.44-0.82,6.58-1.29,9.21
				c-0.84,4.72-5.56,8.21-11.1,8.21h-43.2c33.46-5.7,30.04-27.59,29.7-42.13c-0.36-15.81-29.22-45.93-31.44-70.04
				c-2.22-24.12,34.73-45.81,32.9-85.86c-0.82-17.89-21.03-27.34-32.36-30.87h37.17c7.75,0,14.42,4.7,15.96,11.22
				c1.88,7.9,3.68,18.81,2.6,28.96c-0.76,7.2-2.95,14.01-7.6,19.07c-16.75,18.26-43.01,39.07-43.01,55.19
				c0,0.25,0.01,0.49,0.02,0.75c0.79,16.01,26.51,36.47,42.99,54.44C1156.42,753.28,1157.49,769.26,1156.52,782.2z" class="colore8e8e8 svgShape"></path><path fill="#cccccc" d="M1053.11 623.83c7.58 14.11 17.51 23.45 22.18 20.86 4.67-2.58 2.31-16.12-5.26-30.22-7.58-14.11-17.51-23.45-22.18-20.86C1043.17 596.19 1045.53 609.72 1053.11 623.83zM1049.65 753.09c-7.32 13.71-9.2 26.88-4.19 29.42 5.01 2.54 15-6.52 22.32-20.23 7.32-13.71 9.2-26.88 4.19-29.42C1066.96 730.33 1056.97 739.38 1049.65 753.09zM1085.14 719.68c-2.55 4.77-3.2 9.35-1.46 10.23 1.74.88 5.21-2.27 7.76-7.03 2.55-4.77 3.2-9.35 1.46-10.23C1091.16 711.77 1087.68 714.92 1085.14 719.68z" class="colorcccccc svgShape"></path><g fill="#000000" class="color000000 svgShape"><rect width="4.39" height="252.24" x="1019.93" y="550.66" fill="#273d8f" class="color8f4827 svgShape"></rect><rect width="4.39" height="252.24" x="1166.46" y="550.66" fill="#273d8f" class="color8f4827 svgShape"></rect><ellipse cx="1022.13" cy="589.55" fill="#273d8f" rx="5.51" ry="5.37" class="color8f4827 svgShape"></ellipse><ellipse cx="1168.66" cy="589.55" fill="#273d8f" rx="5.51" ry="5.37" class="color8f4827 svgShape"></ellipse><path fill="#273d8f" d="M1016.61 787.21c0-2.97 2.47-5.37 5.51-5.37 3.04 0 5.51 2.41 5.51 5.37 0 2.97-2.47 5.37-5.51 5.37C1019.08 792.58 1016.61 790.17 1016.61 787.21zM1163.14 787.21c0-2.97 2.47-5.37 5.51-5.37 3.04 0 5.51 2.41 5.51 5.37 0 2.97-2.47 5.37-5.51 5.37C1165.61 792.58 1163.14 790.17 1163.14 787.21zM1182.13 549.2h-175.9c-2.71 0-4.91 2.18-4.91 4.87v15.78c0 2.69 2.2 4.87 4.91 4.87h175.9c2.71 0 4.91-2.18 4.91-4.87v-15.78C1187.04 551.38 1184.84 549.2 1182.13 549.2zM1182.13 798.07h-175.9c-2.71 0-4.91 2.18-4.91 4.87v15.78c0 2.69 2.2 4.87 4.91 4.87h175.9c2.71 0 4.91-2.18 4.91-4.87v-15.78C1187.04 800.25 1184.84 798.07 1182.13 798.07z" class="color8f4827 svgShape"></path></g></g><g fill="#000000" class="color000000 svgShape"><path fill="#293d87" d="M617.12,334.74c-3.21-13.26-8.8-24.41-11.69-29.61c-1.12-2.04-1.84-3.18-1.84-3.18l-27.23-11.77l-13.63-5.9
			l-0.86-0.37l-0.99-0.43l-40.32-17.43l-6.19-2.68c-3.29,2.61-6.06,6.5-8.35,11.31c0,0.01,0,0.02-0.01,0.03
			c-4.3,9.09-6.83,21.49-7.8,34.89c-1.19,6.53-2.15,13.12-2.91,19.69c-1.71,14.99-1.81,30.99,5.23,44.75
			c3.24,6.35,8.15,12.64,14.5,16.13c0.71,0.71,1.44,1.35,2.18,1.91c3.16,2.36,12.73,3.51,24.67,3.58h0.01c2.45,0.02,4.98,0,7.6-0.08
			c2.08-0.07,4.21-0.15,6.36-0.27c10.39-0.56,21.34-1.77,30.84-3.59c12.67-2.44,22.77-5.94,25.54-10.4
			C621.32,366.64,620.67,349.4,617.12,334.74z M508.56,382.69c-2.17-2.36-4.03-4.98-5.61-7.77c-3.38-5.98-5.35-12.64-6.31-19.41
			c-1.1-7.87-0.85-15.89-0.18-23.78c0.35-4.11,0.77-8.2,1.3-12.29c-0.38,25.11,4.39,51.68,13.22,65.58
			C510.14,384.28,509.34,383.52,508.56,382.69z" class="color873c29 svgShape"></path><path fill="#bddeff" d="M815.27,422.83c2.08,7.34-12.02,13.43-11.64,15.03c0.86,3.66,10.47,2.16,17.26,0.98
			c11.95-4.44,21.64-15.52,28.54-15.52c4.9,0-9.71,14.74-15.52,19.17c-9.3,7.1-16.25,10.31-20.89,13.31
			c-6.35,4.1-16.27,1.47-29.38-0.55l-7.54-8.74c2.85-18.33,25.01-15.14,33.1-22.66C811.29,421.92,814.61,420.48,815.27,422.83z" class="colorffd0bd svgShape"></path><path fill="#1e2f70" d="M683.12,563.3c-6.36-0.99-13.37-5.74-20.39-12.43c-22.48-21.42-44.89-62.53-44.89-62.53l-0.05-0.91
			l-4.6-83.45c10.46,1.66,36.19,9.98,41.73,14.97c18.64,16.83,34.89,87.71,42.25,99.62C697.17,518.57,692.94,564.84,683.12,563.3z" class="color1e5170 svgShape"></path><path fill="#aabccf" d="M662.73,550.87c-22.48-21.42-44.89-62.53-44.89-62.53l-0.05-0.91l28.96-42.79c0,0,8.96,27.93-0.15,57.42
			C641.11,519.84,654.44,540.36,662.73,550.87z" class="colorcfaaaa svgShape"></path><path fill="#1e2f70" d="M690.03,514.66l-6.91,48.65c37.09,9.4,96.13-85.83,108.47-104.05l-17.3-17.7L690.03,514.66z" class="color1e5170 svgShape"></path><path fill="#19275c" d="M517.12,615.37h-15.46c0.04-0.04,0.07-0.09,0.09-0.12c0.07-0.08,0.11-0.13,0.13-0.17
			c0.02-0.01,0.02-0.01,0.02-0.02l1.83,0.03L517.12,615.37z" class="color19425c svgShape"></path><path fill="#bddeff" d="M643.37,449.64c-1.74,14.91-7.07,30.31-11.58,40.67c-1.92,4.4-3.78,8.51-5.57,12.37
			c-8.55,18.57-15.25,31.49-17.89,44.82c-0.27,1.34-0.49,2.67-0.66,4.02c-0.34,2.45-0.53,4.94-0.55,7.48
			c-0.04,2.68,0.09,5.42,0.42,8.29c0.08,0.72,0.17,1.45,0.27,2.18c0.22,1.62,0.5,3.25,0.83,4.92c0.03,0.2,0.07,0.4,0.11,0.61
			c0.34,1.71,0.72,3.42,1.14,5.14c0.91,3.77,1.99,7.52,3.09,11.06c3.69,11.78,7.78,21.25,7.78,21.25c-0.68,1-1.37,1.97-2.06,2.93
			H503.92c-0.07-0.09-0.12-0.18-0.18-0.28c-0.35-0.49-0.67-1-1-1.51c-0.04-0.07-0.09-0.13-0.13-0.2c0,0,0.65-0.99,1.69-2.75
			c1.34-2.24,3.32-5.76,5.41-10.04c1-2.05,2.03-4.28,3.01-6.62c0.4-0.95,0.8-1.92,1.18-2.91c1.96-5.04,3.66-10.51,4.59-15.97
			c0.01-0.01,0.01-0.03,0.01-0.04c0.06-0.31,0.1-0.64,0.16-0.95c0.03-0.25,0.08-0.5,0.11-0.76c0.17-1.18,0.29-2.36,0.37-3.52
			c0.11-1.38,0.17-2.76,0.17-4.13c0.01-5.89-0.9-11.73-2.48-17.71c-0.09-0.38-0.2-0.77-0.31-1.16c-0.42-1.55-0.89-3.1-1.4-4.67
			c-1.9-5.81-4.32-11.82-7.08-18.18c-0.33-0.76-0.66-1.52-1-2.29c-0.21-0.49-0.44-0.99-0.65-1.49c-3.84-8.69-8.17-18.09-12.49-28.63
			c-0.24-0.56-0.46-1.13-0.7-1.71c-0.2-0.49-0.39-0.99-0.59-1.48c-9.92-24.8-3.33-69.18,14.7-80.66c2.04-1.31,4.23-2.19,6.56-2.57
			c0.72-0.12,1.71-0.31,2.86-0.57c6.23-1.38,17.72-4.45,23-5.88c0.22-0.06,0.45-0.11,0.65-0.17l0.01-0.01
			c1.32-0.36,2.12-0.57,2.12-0.57s4.44-0.3,6.96-2.35c0.59-0.49,1.09-1.08,1.38-1.78l4.98,1.52l10.29,3.14l23.61,0.19
			c0.26,0.19,0.55,0.37,0.88,0.55c0.17,0.09,0.35,0.19,0.54,0.28c0.08,0.03,0.17,0.08,0.25,0.11c4.81,2.18,14.9,3.66,21.83,4.71
			c0.5,0.07,0.99,0.13,1.45,0.21c1.63,0.25,3.01,0.46,4.01,0.66C641.32,409.59,645.75,429.17,643.37,449.64z" class="colorffd0bd svgShape"></path><path fill="#bddeff" d="M533.92,404.15c20.91,5.82,40.71,4.89,59.56-2.03c-6.71-4.93-11.81-21.19-8.53-35.13l-19.56-0.69
			l-17.22-0.6c2.28,18.84-6.53,33.15-13.72,38.1C534.28,403.92,534.09,404.03,533.92,404.15z" class="colorffd0bd svgShape"></path><path fill="#c1d6eb" d="M558.06,387.21c16.71,4.41,24.9-6.64,24.9-6.64l-17.57-14.28l-17.22-0.6c1.37,11.3-1.26,20.98-5.13,27.98
			C540.46,398.33,550.71,385.27,558.06,387.21z" class="colorebcdc1 svgShape"></path><path fill="#1e2f70" d="M638.87,490.37c-3.03,6.68-5.96,12.82-8.72,18.56c-7.68,15.98-13.98,28.88-17.19,41.46
			c-0.34,1.29-0.63,2.58-0.89,3.87c-0.48,2.38-0.85,4.76-1.08,7.15c-0.02,0.13-0.03,0.27-0.04,0.42c-0.3,3.23-0.37,6.51-0.16,9.86
			c0.04,0.72,0.1,1.44,0.17,2.15c0.1,1.13,0.25,2.28,0.42,3.43c0.02,0.12,0.03,0.24,0.06,0.36c0.65,4.28,1.93,8.69,3.55,12.98
			c3.71,9.92,9.17,19.22,12.69,24.74H501.73c0.02-0.03,0.04-0.07,0.06-0.1c0.04-0.07,0.08-0.12,0.1-0.19
			c0.02-0.01,0.02-0.01,0.02-0.02c0.27-0.47,0.55-0.98,0.83-1.48c0.5-0.93,1.02-1.92,1.56-2.95c1.5-2.92,3.09-6.23,4.54-9.75
			c0.79-1.89,1.55-3.84,2.23-5.82c0.22-0.64,0.44-1.28,0.65-1.93c0.01-0.03,0.02-0.06,0.02-0.08c0.26-0.77,0.49-1.55,0.71-2.32
			c0.16-0.52,0.3-1.02,0.44-1.54c0.08-0.24,0.13-0.47,0.19-0.71c0.1-0.39,0.2-0.76,0.29-1.16c0.02-0.06,0.03-0.11,0.04-0.18
			c0.13-0.55,0.26-1.1,0.38-1.65c0.18-0.81,0.34-1.63,0.48-2.45c0.61-3.39,0.88-6.72,0.86-10.04c0-0.19,0-0.39-0.01-0.58
			c0-0.22,0-0.45-0.01-0.67c0.01-0.08,0-0.17-0.01-0.25c-0.01-0.53-0.03-1.04-0.07-1.57c0-0.13,0-0.26-0.02-0.38
			c-0.01-0.26-0.02-0.52-0.06-0.77c-0.08-1.23-0.21-2.47-0.38-3.69c-0.08-0.59-0.16-1.18-0.26-1.77c-0.09-0.57-0.19-1.14-0.3-1.71
			c-0.33-1.82-0.74-3.64-1.22-5.47c-0.1-0.42-0.21-0.83-0.33-1.25c-0.1-0.38-0.21-0.76-0.33-1.14v-0.01
			c-0.18-0.63-0.37-1.25-0.56-1.89c-0.27-0.91-0.56-1.82-0.88-2.73c-0.21-0.64-0.43-1.28-0.66-1.92c-0.15-0.43-0.29-0.84-0.45-1.27
			c-0.12-0.33-0.24-0.64-0.36-0.97c-0.48-1.34-1.01-2.67-1.56-4.03c-0.28-0.71-0.57-1.41-0.86-2.13c-0.91-2.22-1.89-4.48-2.92-6.78
			l-0.06-0.12c-0.09-0.21-0.18-0.42-0.28-0.63c-0.02-0.07-0.06-0.13-0.09-0.2c-0.13-0.34-0.29-0.67-0.45-1.01
			c-0.08-0.18-0.16-0.37-0.26-0.56c-0.02-0.08-0.06-0.16-0.11-0.25c-0.2-0.47-0.43-0.95-0.65-1.44c-0.06-0.13-0.11-0.27-0.18-0.4
			c-0.63-1.38-1.27-2.78-1.93-4.2c-1.44-3.11-2.93-6.31-4.47-9.61c-1.5-3.25-3.04-6.61-4.59-10.08c-0.02-0.06-0.06-0.11-0.08-0.17
			c-1.56-3.49-3.13-7.11-4.7-10.87c-12-28.84-19.75-65.4,3.99-81.14c4.12-2.73,10.6-4.74,17.57-6.33c0.08-0.01,0.12-0.02,0.12-0.02
			c2.96-0.67,6.01-1.27,9-1.82c10.58-1.94,20.47-3.25,23.35-5h0.01c0.04-0.02,0.08-0.06,0.12-0.08l0.02-0.01l0.11,0.43l2.01,7.64
			l10.09,38.39l11.93,45.4v0.02l0.28,1.03l25.65-87.8l0.93-3.19l0.12-0.43l0.2-0.66l0.01-0.06c0.04,0.03,0.09,0.07,0.13,0.09
			c3.5,2.37,13.39,4.01,21.47,5.22c0.27,0.03,0.53,0.07,0.8,0.11h0.01c1.03,0.16,2.04,0.3,2.98,0.44c0.01,0,0.01,0,0.02,0
			c2.5,0.37,4.62,0.7,6.05,0.98c2.73,0.55,5.21,1.47,7.41,2.72c0.01,0,0.01,0.01,0.02,0.01c11.47,6.42,16.18,21.38,16.65,37.61v0.01
			C647.61,461.86,644.07,478.85,638.87,490.37z" class="color1e5170 svgShape"></path><path fill="#aabccf" d="M514.28,583.04c4.46-24.94-8.96-47.1-23.52-79.68l0.14-0.19l8.94-34.86c0,0,2.79,43.32,22.41,59.93
			c19.62,16.63,71.52,44.14,71.52,44.14l-84.92,28.48C511.17,595.3,513.21,589.16,514.28,583.04z" class="colorcfaaaa svgShape"></path><path fill="#0575e6" d="M591.32,398.86l23.35,5.59c0,0-0.03,13.33-0.58,15.29c-0.55,1.97-13.97,0.91-13.97,0.91l16.04,9.72
			l-47.73,78.66L564.1,491L591.32,398.86z" class="color337399 svgShape"></path><path fill="#0575e6" d="M540.27,398.09l-23.51,4.88c0,0-0.38,13.32,0.11,15.3c0.49,1.98,13.93,1.33,13.93,1.33l-16.33,9.23
			l68.6,150.52l-18.41-88.35L540.27,398.09z" class="color337399 svgShape"></path><path fill="#021b79" d="M614.97,590.63c-31.71,9.25-66.38,8.78-103.63-0.17l3.71-18.07c31.97,8.36,63.95,8.9,95.92,1.46
			L614.97,590.63z" class="color113d57 svgShape"></path><path fill="#0030e6" d="M624.05,557.36l-12.3,19.76l-0.33,0.53l-1.54,2.48l-8.63,13.86l-13.3,21.39H456.15l3.59-6.61
						l23.36-43.02l1.14-2.11l0.03-0.06c0.02-0.03,0.04-0.08,0.06-0.12l1.52-2.78l1.29-2.38l0.88-1.59l1.35-2.5l1.8-3.3l11.61-21.39
						l4.25-7.83l4.33-7.97l5.98-11.02l12.89-4.16l22.41,14.05l19.01,11.92l36.68,23l4.62,2.91L624.05,557.36z" class="colore69200 svgShape"></path><path fill="#cce5ff" d="M618.95,558.58l-8.16,13.12l-1.59,2.56l-0.45,0.73l-12.39,19.91l-12.74,20.48H452.43l5.13-8.44
						l14.98-24.64l1.82-2.97l2.15-3.56l1.6-2.63l2.28-3.75l1.5-2.48l0.9-1.46l1.45-2.39l1.46-2.41l1.44-2.36l0.94-1.55l1.45-2.38
						l2.38-3.92l1.46-2.38l2.36-3.89l1.48-2.44l2.32-3.82l1.54-2.52l2.24-3.69l0.26-0.43l1.39-2.29l2.02-3.33
						c0.01-0.01,0.02-0.03,0.03-0.04l1.01-1.65l4.69-7.72l6.99-11.49l0.61-0.2l8.2-2.68l26.94,16.9h0.01l17.24,10.82l34.97,21.93
						l4.4,2.76L618.95,558.58z" class="colorfff4cc svgShape"></path><polygon fill="#476eff" points="611.15 561.52 610.95 561.83 607.54 567.29 602.27 575.68 589.6 595.89 577.38 615.37 446.67 615.37 453.93 603.8 474.84 570.46 474.84 570.45 479.42 563.16 481.06 560.54 501.83 527.42 506.37 520.18 510.95 512.88 510.95 512.87 517.34 502.68 520.31 504.55 560.46 529.73 574.58 538.58 607.12 558.99 610.99 561.42" class="colorffbc47 svgShape"></polygon><path fill="#476eff" d="M578.43,577.78l-0.2,0.31l-0.38,0.62l-11.73,18.66l-11.3,18h-60.23l-11.22-7.02l0.2-0.33
							c0.96-1.53,1.17-3.4,0.58-5.26c-0.58-1.87-1.9-3.52-3.68-4.65l-0.37-0.22l0.2-0.33l13.54-21.58l16.87-26.86l4.39-6.98
							l1.81-2.88l0.4,0.25c1.77,1.11,3.82,1.56,5.76,1.27c1.94-0.28,3.53-1.29,4.5-2.82l0.2-0.31l0.37,0.24l47.01,29.45l-0.19,0.31
							c-0.96,1.53-1.17,3.4-0.58,5.27c0.58,1.87,1.89,3.51,3.67,4.63l0.12,0.08L578.43,577.78z" class="colorffbc47 svgShape"></path><path fill="#cce5ff" d="M573.64,577.94c-1.23-1.35-2.13-2.86-2.65-4.52c-0.52-1.64-0.62-3.32-0.29-4.87l0.06-0.28l-41.92-26.25
								l-0.22,0.17c-1.27,0.97-2.79,1.59-4.52,1.85c-1.72,0.26-3.47,0.12-5.22-0.4l-0.3-0.09l-2.05,3.27l-4.35,6.92v0.01
								l-15.59,24.82l-11.88,18.93l0.21,0.24c1.23,1.34,2.12,2.86,2.65,4.52c0.52,1.66,0.61,3.3,0.29,4.87l-0.06,0.27l12.74,7.98
								h1.43l-0.16-0.1l-0.03-0.02l-13.03-8.16c0.28-1.6,0.16-3.28-0.37-4.96c-0.52-1.66-1.43-3.25-2.63-4.62l11.49-18.31
								l15.26-24.31l4.34-6.92l2.2-3.49c1.75,0.48,3.59,0.61,5.31,0.35c1.73-0.26,3.33-0.89,4.65-1.83l40.84,25.57
								c-0.28,1.59-0.16,3.3,0.37,4.96c0.52,1.67,1.43,3.27,2.63,4.63l-0.5,0.81l-0.49,0.79l-11.01,17.54l-11.36,18.08h1.04
								l11.33-18.04l11.3-18.01l0.25-0.38l0.48-0.77L573.64,577.94z" class="colorfff4cc svgShape"></path><path fill="#0030e6" d="M452.83 612.86c-.21-.13-.49-.07-.63.15l-1.48 2.37h1.08l1.18-1.87c.04-.08.07-.17.07-.25C453.05 613.09 452.97 612.95 452.83 612.86zM456.75 606.62c-.21-.13-.49-.07-.63.15l-1.95 3.12c-.13.21-.08.49.13.63.22.13.51.08.64-.13l1.95-3.12c.04-.08.07-.17.07-.25C456.96 606.85 456.89 606.71 456.75 606.62zM460.67 600.38c-.22-.13-.5-.07-.64.15l-1.95 3.12c-.13.21-.07.49.15.63.21.13.49.08.63-.15l1.96-3.12c.04-.08.07-.16.07-.24C460.88 600.62 460.8 600.47 460.67 600.38zM464.57 594.14c-.21-.13-.49-.07-.63.15l-1.95 3.12c-.13.21-.07.49.15.63.21.13.49.08.63-.15l1.95-3.12c.04-.08.07-.16.07-.24C464.79 594.38 464.71 594.23 464.57 594.14zM468.49 587.9c-.21-.13-.49-.07-.63.15l-1.96 3.12c-.13.21-.07.49.15.63.21.13.51.07.63-.15l1.96-3.12c.04-.08.07-.16.07-.24C468.7 588.14 468.62 587.99 468.49 587.9zM472.41 581.66h-.01c-.21-.13-.49-.07-.63.15l-1.95 3.12c-.13.21-.07.49.15.63.21.13.49.07.63-.15l1.95-3.12C472.67 582.08 472.62 581.8 472.41 581.66zM476.51 575.76c-.01-.13-.08-.26-.2-.34-.21-.13-.49-.07-.63.15l-1.95 3.12c-.13.21-.08.49.15.63.16.1.34.09.48 0 .06-.03.1-.09.15-.15l1.95-3.12c.04-.08.07-.16.07-.24C476.52 575.79 476.52 575.78 476.51 575.76zM480.4 569.39c-.03-.08-.09-.15-.17-.2-.21-.13-.49-.07-.63.15l-.07.11-.3.47-1.59 2.54c-.13.21-.07.49.15.63.1.07.22.08.34.06.12-.02.22-.1.29-.2l1.96-3.12c.04-.08.07-.16.07-.24C480.44 569.51 480.43 569.44 480.4 569.39zM484.24 563.06c-.02-.04-.07-.08-.11-.11-.21-.13-.49-.07-.63.15l-1.19 1.9-.76 1.22c-.13.21-.07.49.15.63.07.03.13.06.2.07.17.01.34-.07.43-.21l.66-1.07 1.26-2 .03-.06c.02-.03.04-.08.06-.12 0-.03.01-.08.01-.12C484.35 563.23 484.31 563.14 484.24 563.06zM488.08 556.74l-.03-.03c-.01-.01-.02-.01-.03-.01-.2-.11-.47-.04-.59.16l-1.95 3.12c-.13.21-.08.49.13.63.01 0 .01 0 .01 0 .03.02.07.03.09.04.06.01.1.02.15.02.16 0 .3-.08.39-.21l1.95-3.12c.04-.08.07-.16.07-.24C488.26 556.95 488.19 556.82 488.08 556.74zM491.96 550.47c-.02-.01-.03-.02-.06-.02-.2-.1-.46-.02-.57.17l-.18.28-1.78 2.84c-.09.15-.09.31-.01.46.03.07.09.12.16.17h.01c.21.13.48.07.62-.15l1.96-3.12c.04-.08.07-.16.07-.24C492.18 550.7 492.1 550.56 491.96 550.47zM495.87 544.23c-.04-.03-.1-.04-.15-.06-.19-.04-.38.03-.48.2l-1.95 3.12c-.12.19-.08.43.08.57.02.02.04.04.07.06.21.13.49.07.63-.15l1.95-3.12c.04-.08.07-.16.07-.24C496.08 544.46 496 544.32 495.87 544.23zM499.79 537.99c-.08-.06-.17-.08-.26-.07-.15.01-.28.09-.37.21l-1.95 3.12c-.1.16-.09.35 0 .48.03.06.08.11.13.15 0 0 0 0 .01 0 .21.13.49.07.63-.15l1.95-3.12c.04-.08.07-.16.07-.24C500 538.22 499.92 538.08 499.79 537.99zM503.9 532.03l-.06-.12c-.03-.06-.08-.11-.15-.16-.12-.08-.27-.09-.39-.04-.1.03-.19.1-.25.19l-1.95 3.12c-.08.12-.09.26-.04.38.03.1.1.19.19.25.21.13.49.07.63-.15l1.96-3.12c.04-.08.07-.16.07-.24C503.92 532.11 503.92 532.06 503.9 532.03zM507.61 525.51c-.19-.12-.45-.08-.59.1-.01.01-.02.03-.03.04l-1.95 3.12c-.04.07-.07.15-.07.21-.01.16.07.33.21.42.21.13.49.07.63-.15l1.95-3.12c.04-.08.07-.16.07-.24C507.82 525.74 507.74 525.6 507.61 525.51zM511.52 519.27c-.21-.13-.49-.07-.63.15l-1.96 3.12c-.13.21-.07.49.15.63.22.13.5.07.63-.15l1.96-3.12c.04-.08.07-.16.07-.24C511.74 519.51 511.66 519.36 511.52 519.27zM515.44 513.03h-.01c-.21-.13-.49-.07-.63.15l-1.95 3.12c-.02.03-.03.07-.04.1-.07.19.01.42.19.53.06.03.1.06.15.06h.01c.18.03.37-.04.47-.2l1.95-3.12C515.71 513.45 515.65 513.17 515.44 513.03zM516.91 510.69C516.91 510.69 516.91 510.69 516.91 510.69c-.22-.14-.28-.42-.15-.63l.97-1.55c.13-.21.42-.28.63-.15 0 0 0 0 0 0l1.55.97c.21.13.28.42.14.63-.13.21-.42.28-.63.15 0 0 0 0 0 0l-1.16-.73-.73 1.16C517.4 510.76 517.12 510.82 516.91 510.69zM600.93 560.14l-3.11-1.95c0-.01 0-.01 0-.01-.21-.12-.49-.07-.63.15-.13.21-.08.5.15.64l3.11 1.95c.21.13.49.07.63-.15C601.21 560.55 601.15 560.27 600.93 560.14zM594.7 556.22l-3.12-1.95c-.21-.13-.49-.07-.63.15-.13.21-.07.49.15.63l3.12 1.95c0 0 0 0 0 .01.21.12.49.07.63-.15C594.98 556.65 594.91 556.36 594.7 556.22zM588.47 552.32l-3.12-1.95c-.21-.13-.49-.07-.63.15-.13.21-.07.49.15.63l3.11 1.95h.01c.21.13.49.07.63-.15C588.75 552.73 588.68 552.45 588.47 552.32zM582.23 548.41l-3.11-1.95c-.22-.13-.5-.07-.63.15-.13.21-.08.49.13.63l3.12 1.95c.21.13.49.07.63-.15C582.51 548.83 582.44 548.55 582.23 548.41zM576 544.51l-.21-.13-2.91-1.82c0 0 0 0 0-.01-.21-.12-.49-.07-.63.15-.13.22-.07.51.15.64l3.12 1.95c.15.09.31.09.46.01.07-.03.12-.09.17-.16C576.28 544.92 576.22 544.64 576 544.51zM569.78 540.59l-3.12-1.95c-.21-.13-.49-.07-.63.15-.13.21-.07.49.15.63l3.11 1.96c.22.12.51.07.63-.15C570.04 541.02 569.99 540.73 569.78 540.59zM563.54 536.69l-3.11-1.95h-.01c-.21-.13-.49-.07-.63.15-.13.21-.07.49.15.63l3.12 1.95c.21.13.49.07.63-.15C563.82 537.1 563.75 536.82 563.54 536.69zM557.31 532.78l-3.12-1.95c-.21-.13-.49-.07-.63.15-.13.21-.07.49.15.63l3.12 1.95c.21.13.49.07.63-.15C557.59 533.2 557.52 532.92 557.31 532.78zM551.07 528.88l-3.11-1.95c-.21-.13-.49-.08-.63.13-.13.22-.08.5.15.64l3.11 1.95c.21.13.49.07.63-.15C551.35 529.29 551.29 529.01 551.07 528.88zM544.84 524.96l-3.12-1.95c-.21-.13-.49-.07-.63.15-.13.21-.07.49.15.63l3.12 1.96c.21.12.49.07.63-.15C545.12 525.39 545.05 525.09 544.84 524.96zM538.61 521.05l-3.12-1.95c-.21-.13-.49-.07-.63.15-.13.21-.07.49.15.63l3.11 1.95h.01c.21.13.49.07.63-.15C538.89 521.47 538.83 521.19 538.61 521.05zM532.37 517.15l-3.11-1.95c-.22-.13-.5-.07-.64.15-.12.21-.07.49.15.63l3.12 1.95c.21.13.49.07.63-.15C532.65 517.56 532.59 517.28 532.37 517.15zM526.15 513.24l-3.12-1.95c-.21-.13-.49-.07-.63.15-.13.21-.07.49.15.63l3.12 1.95c.21.13.49.07.63-.15C526.43 513.66 526.36 513.38 526.15 513.24zM604.14 565.39C604.14 565.39 604.14 565.39 604.14 565.39c-.22-.14-.28-.42-.15-.63l.73-1.16-1.16-.73c-.21-.13-.28-.42-.14-.63.13-.21.42-.28.63-.15 0 0 0 0 0 0l1.55.97c.1.06.18.17.2.29.03.12.01.24-.06.35l-.97 1.55C604.64 565.45 604.36 565.52 604.14 565.39zM575.29 611.41c-.21-.13-.49-.08-.63.13l-1.96 3.12c-.13.22-.07.5.15.64.08.04.16.07.25.07.15 0 .3-.08.38-.21l1.96-3.12c.04-.08.07-.16.07-.24C575.5 611.65 575.42 611.5 575.29 611.41zM579.2 605.17c-.01 0-.01 0-.01-.01-.21-.12-.49-.07-.63.15l-1.95 3.12c-.13.22-.07.5.15.64.21.13.49.07.63-.15l1.95-3.12C579.47 605.59 579.41 605.31 579.2 605.17zM583.11 598.93v-.01c-.21-.12-.49-.07-.63.15l-1.95 3.12c-.13.21-.08.51.15.64.21.13.49.07.63-.15l1.95-3.12C583.39 599.35 583.32 599.07 583.11 598.93zM587.02 592.69c0-.01 0-.01 0-.01-.21-.12-.49-.07-.63.15l-1.96 3.12c-.11.17-.09.39.03.54.03.04.07.08.11.1.21.13.49.07.63-.15l.02-.03 1.94-3.09C587.3 593.11 587.24 592.82 587.02 592.69zM590.93 586.45c0-.01 0-.01 0-.01-.21-.12-.49-.07-.63.15l-1.95 3.12c-.13.21-.07.5.15.64.21.12.49.07.63-.15l1.95-3.12C591.21 586.87 591.15 586.58 590.93 586.45zM594.84 580.2c-.21-.12-.49-.07-.63.15l-1.95 3.12c-.13.21-.08.5.13.64h.01c.21.12.49.07.63-.15l1.95-3.12c.04-.08.07-.16.07-.25C595.06 580.44 594.98 580.29 594.84 580.2zM598.76 573.96c-.21-.12-.5-.07-.63.15l-1.62 2.57-.35.55c-.13.21-.07.5.15.64.21.12.49.07.63-.15l.79-1.25 1.18-1.87c.04-.08.07-.16.07-.25C598.97 574.2 598.9 574.05 598.76 573.96zM602.67 567.72c-.21-.12-.49-.07-.63.15l-1.95 3.12c-.13.21-.07.5.15.64.21.12.49.07.63-.15l1.95-3.12c.04-.08.07-.16.07-.25C602.88 567.96 602.8 567.81 602.67 567.72z" class="colore69200 svgShape"></path><g fill="#000000" class="color000000 svgShape"><path fill="#ffffff" d="M519.13 569.8l3.65-5.87c.3-.48.58-.83.84-1.03.26-.21.56-.28.9-.22.34.07.75.25 1.26.56l.35-.56-5.3-3.29-.35.56c.5.31.84.59 1.03.84.18.26.22.54.13.85-.09.3-.28.71-.58 1.2l-1.76 2.83-3.01 4.84c-.3.48-.57.83-.81 1.03-.11.1-.24.17-.36.2-.13.04-.28.04-.44.01-.3-.07-.7-.26-1.2-.56l-.35.56 1.82 1.13.19.11 3.33 2.09 3.99 2.48 2.45-2.85.4-.47-.61-.38c-.29.24-.56.45-.81.64-.2.15-.38.28-.56.4-.38.28-.76.45-1.13.54-.38.08-.79.04-1.23-.1-.45-.15-.99-.42-1.62-.81l-.72-.45L518.5 574c-.55-.35-.89-.64-1.01-.9-.02-.03-.03-.07-.03-.1-.07-.24.01-.53.24-.89L519.13 569.8zM538.15 577.06l.94-6.44-.77-.48-7.99 5.64-1.87 1.32c-.75.53-1.34.9-1.75 1.12-.42.21-.76.31-1.04.3-.28-.02-.61-.15-.95-.36l-.35.56 3.95 2.46.35-.56c-.44-.27-.73-.52-.88-.72-.16-.21-.15-.45.01-.71.11-.18.24-.33.37-.44.13-.12.27-.24.42-.36l2.09-1.47.19-.13.37-.29.2-.15.43-.31 4.97-3.64.06.03-.79 4.3-.42 2.27-.04.24-.11.46-.03.24-.33 2.14c-.04.36-.1.64-.17.85-.07.2-.15.38-.24.52-.13.21-.3.33-.51.35-.19.01-.4-.03-.62-.13-.22-.1-.43-.2-.61-.33l-.36.56 5.07 3.15.35-.56c-.5-.31-.81-.67-.91-1.09-.1-.4-.09-1.01.01-1.8L538.15 577.06zM535.68 579.01l-4.25-2.65-.21-.13-.75.58.2.12 4.83 3.01.2.12.19-.93L535.68 579.01zM550.88 583.36l-5.53 4.17-.1-.06.4-1.94 1.23-6.87c.03-.2.08-.37.12-.53.08-.29.17-.5.26-.66.12-.2.3-.3.55-.3.25 0 .61.16 1.08.45l.35-.56-4.85-3.03-.36.57c.48.31.79.71.91 1.18.13.46.09 1.17-.11 2.12v.03l-2.09 11.57-.13.74.47.29 2.68-2.04.01-.01 4.8-3.66.07.04.47.3.02-2.01L550.88 583.36zM559.97 583.73l-1.52-.94-.35.57c.42.26.68.49.81.73.02.01.02.03.03.04.13.24.1.5-.08.8-.09.15-.21.3-.36.47-.15.16-.29.33-.46.48-.17.16-.35.31-.54.47l-6.04 4.91-.09-.06.54-2.26.52-2.7.68-3.59c.04-.21.1-.45.15-.7.06-.25.12-.45.21-.59.27-.43.88-.35 1.83.25l.36-.56-4.05-2.52-.86-.54-.28.45-.08.12c.37.22.64.44.81.64.17.2.26.48.27.83 0 .35-.07.86-.21 1.55l-.38 1.77-.07.34-.1.83-.07.35-.42 2.12-1.4 7.11.51.33 10.25-8.36c.47-.37.88-.58 1.22-.63.34-.04.73.06 1.18.33l.36-.57L559.97 583.73z" class="colorffffff svgShape"></path></g><g fill="#000000" class="color000000 svgShape"><path fill="#1e2f70" d="M507.75,405l-28.3,164.9l-47.67,5.85c-7.28-31.11,12.09-118.28,22.13-139.92
				C465.11,411.67,507.75,405,507.75,405z" class="color1e5170 svgShape"></path><path fill="#1e2f70" d="M535.18,615.37h-67.27c-2.86-2.26-5.59-4.45-8.17-6.61c-0.74-0.62-1.46-1.22-2.18-1.83
				c-1.25-1.05-2.46-2.1-3.62-3.13c-11.42-10.1-19.36-19.23-22.14-28.05l47.62-12.59l0.76-0.2l0.39,0.38l1.74,1.65l0.48,0.46
				l0.19,0.18l0.11,0.11l10.75,10.25l2.72,2.58l0.65,0.63l14.53,13.85l0.97,0.92l4.35,4.15L535.18,615.37z" class="color1e5170 svgShape"></path></g><g fill="#000000" class="color000000 svgShape"><path fill="#badcff" d="M500.33,315.58c2.65-3.83,7.54-3.01,11.63-1.34c3.79,1.55,6.02,4.61,5.51,7.8
				c-1.23,7.67,4.72,15.5,6.54,23.35C496.45,345.47,495.24,322.94,500.33,315.58z" class="colorffd0ba svgShape"></path><path fill="#c7daed" d="M504.9,321.42c1.93-0.81,4.84-0.63,5.99,0.87c0.51,0.66-0.71,1.34-1.35,0.71
				c-0.49-0.49-1.36-0.69-2.15-0.47c-0.7,0.2-1.28,0.83-1.57,1.32c-0.89,1.5,0.2,3.23,1.08,4.58c0.87,1.34,1.99,2.61,3.28,3.75
				c1.37,1.22,3.19,2.09,4.56,3.28c1.3,1.14-0.81,2.96-2.57,2.26c-1.35-0.54-2.4-1.45-3.41-2.29c-0.93-0.78-1.78-1.62-2.55-2.49
				c-1.57-1.79-2.93-3.8-3.58-5.89C502.08,325.19,502.31,322.5,504.9,321.42z" class="coloredd6c7 svgShape"></path></g><path fill="#c9e4ff" d="M510.35,310.71c2.34,37.97,25.51,73.82,58.97,72.93c31.84-0.84,52.16-37.4,51.02-80.23
			c-1.14-42.84-25.57-60.06-59.03-59.18C527.86,245.12,507.99,272.36,510.35,310.71z" class="colorffd6c9 svgShape"></path><g fill="#000000" class="color000000 svgShape"><path fill="#c7daed" d="M576.05,332.31c-1.37-3.56-4.47-4.83-5.6-14.39c-1.22,5.78,1.94,12.97,3.15,15.99
				c2.45,6.13-8.46,5.49-5.22,6.06C572.3,340.65,578.75,339.37,576.05,332.31z" class="coloredd6c7 svgShape"></path><path fill="#293d87" d="M588,306.24c7.78-4.68,17.59,1.79,18.26,5.12c0.17,0.88-0.63,0.05-4.28-2.21
				c-2.69-1.6-7.76-1.81-10.69-0.8C588.25,309.4,584.29,308.72,588,306.24z" class="color873c29 svgShape"></path><path fill="#253c94" d="M560.47,351.51c0.07,2.61,1.24,4.97,3.11,6.68c2.01,1.85,4.81,2.97,7.89,2.88
						c3.31-0.09,6.22-1.53,8.13-3.73c1.53-1.75,2.41-3.99,2.35-6.39c-0.14-5.44-6.93-1.16-10.95-1.06
						C567.66,349.97,560.32,346.07,560.47,351.51z" class="color942525 svgShape"></path><path fill="#7894ff" d="M563.58,358.18c2.01,1.85,4.81,2.97,7.89,2.88c3.31-0.09,6.22-1.53,8.13-3.73
						c-1.66-1.58-4.59-2.58-7.9-2.49C568.11,354.94,565.04,356.29,563.58,358.18z" class="colorff7878 svgShape"></path><path fill="#293d87" d="M583.54,321.31c1.44,6.06,18.08,5.7,20.56,3.74c0.13-0.11,0.27-0.22,0.39-0.33
					c0.01,0,0.01-0.01,0.01-0.01c1.14-1.95,2.08-5.31,2.08-5.31s-3.16-3.06-4.85-3.92c-0.02,0-0.04-0.02-0.07-0.03
					c-0.42-0.2-2.08-0.98-4.3-1.48c-3.04-0.66-7.14-0.79-10.45,1.86c-0.38,0.3-2.65,2.1-3.46,4.56
					C583.44,320.69,583.47,321,583.54,321.31z" class="color873c29 svgShape"></path><path fill="#ffffff" d="M583.17,322.81c0.51,4.36,6.53,6.83,10.82,7c0.43,0.02,1.64,0.04,3.18-0.31c1.43-0.3,3.13-0.93,4.76-2.17
					c0.21-0.15,1.02-0.77,1.89-1.68c0.23-0.24,0.46-0.56,0.68-0.94c0.01,0,0.01-0.01,0.01-0.01c1.14-1.95,2.08-5.31,2.08-5.31
					s-3.16-3.06-4.85-3.92c-0.02,0-0.04-0.02-0.07-0.03c-0.42-0.2-2.08-0.98-4.3-1.48c-3.04-0.66-7.14-0.79-10.45,1.86
					c-0.38,0.3-2.65,2.1-3.46,4.56C583.19,321.14,583.07,321.96,583.17,322.81z" class="colorffffff svgShape"></path><circle cx="594.49" cy="321.55" r="8.35" fill="#5368b5" class="colorb56953 svgShape"></circle><circle cx="594.66" cy="321.26" r="5.16" fill="#0c132e" class="color2e130c svgShape"></circle><circle cx="590.95" cy="318.43" r="1.29" fill="#ffffff" class="colorffffff svgShape"></circle><circle cx="589.68" cy="322.74" r=".72" fill="#ffffff" class="colorffffff svgShape"></circle><path fill="#293d87" d="M583.45,320.39c0.82-2.46,3.08-4.25,3.46-4.56c3.32-2.65,7.41-2.51,10.45-1.86
					c2.21,0.49,3.87,1.27,4.3,1.48c0.04,0.01,0.05,0.03,0.07,0.03c1.7,0.86,4.85,3.92,4.85,3.92s-0.95,3.36-2.08,5.31
					c0.85-0.76,1.28-1.45,1.28-1.45c0.2-0.32,0.56-0.97,0.91-1.8c0.43-1.04,0.5-1.52,0.84-1.61c0.29-0.08,1.4,2.4,4.52,1.79
					c0.26-0.06,0.55-0.37,0.55-0.37c-1.24,0.31-3.32-1.1-5.71-4.03c-6.46-7.97-18.79-7.5-22.61,0.32
					C583.95,318.26,583.45,319.28,583.45,320.39z" class="color873c29 svgShape"></path><g fill="#000000" class="color000000 svgShape"><path fill="#293d87" d="M555.89,322.16c-0.98,6.15-17.59,7.06-20.21,5.3c-0.14-0.1-0.28-0.2-0.42-0.3
					c-0.01,0-0.01-0.01-0.01-0.01c-1.28-1.86-2.48-5.14-2.48-5.14s2.91-3.29,4.54-4.27c0.02,0,0.03-0.02,0.07-0.04
					c0.41-0.23,2-1.14,4.17-1.8c2.98-0.89,7.05-1.33,10.56,1.05c0.4,0.27,2.8,1.89,3.8,4.28
					C555.95,321.53,555.93,321.84,555.89,322.16z" class="color873c29 svgShape"></path><path fill="#ffffff" d="M556.37,323.63c-0.18,4.39-5.99,7.31-10.25,7.81c-0.43,0.05-1.63,0.17-3.19-0.06
					c-1.45-0.19-3.19-0.69-4.91-1.8c-0.22-0.13-1.08-0.69-2.01-1.53c-0.25-0.22-0.51-0.52-0.75-0.88c-0.01,0-0.01-0.01-0.01-0.01
					c-1.28-1.86-2.48-5.14-2.48-5.14s2.91-3.29,4.54-4.27c0.02,0,0.03-0.02,0.07-0.04c0.41-0.23,2-1.14,4.17-1.8
					c2.98-0.89,7.05-1.33,10.56,1.05c0.4,0.27,2.8,1.89,3.8,4.28C556.23,321.96,556.41,322.77,556.37,323.63z" class="colorffffff svgShape"></path><circle cx="544.99" cy="323.24" r="8.35" fill="#5368b5" class="colorb56953 svgShape"></circle><circle cx="544.8" cy="322.96" r="5.16" fill="#0c132e" class="color2e130c svgShape"></circle><circle cx="548.28" cy="319.85" r="1.29" fill="#ffffff" class="colorffffff svgShape"></circle><circle cx="549.88" cy="324.05" r=".72" fill="#ffffff" class="colorffffff svgShape"></circle><path fill="#293d87" d="M555.91,321.23c-1-2.39-3.4-4.01-3.8-4.28c-3.51-2.38-7.58-1.94-10.56-1.05
					c-2.17,0.66-3.76,1.56-4.17,1.8c-0.03,0.01-0.04,0.04-0.07,0.04c-1.63,0.99-4.54,4.27-4.54,4.27s1.2,3.28,2.48,5.14
					c-0.9-0.69-1.39-1.34-1.39-1.34c-0.22-0.3-0.64-0.92-1.05-1.73c-0.51-1.01-0.61-1.48-0.96-1.55c-0.29-0.06-1.21,2.5-4.37,2.13
					c-0.27-0.04-0.58-0.32-0.58-0.32c1.26,0.22,3.23-1.35,5.39-4.46c5.83-8.44,18.17-8.91,22.57-1.41
					C555.25,319.14,555.82,320.13,555.91,321.23z" class="color873c29 svgShape"></path></g><path fill="#293d87" d="M551.34,307.11c-8.12-4.07-17.41,3.13-17.81,6.5c-0.11,0.89,0.63,0,4.09-2.53c2.56-1.8,7.6-2.4,10.59-1.62
				C551.33,310.28,555.23,309.3,551.34,307.11z" class="color873c29 svgShape"></path><ellipse cx="543.38" cy="342.3" fill="#add6ff" rx="9.83" ry="4.78" transform="rotate(-2.189 543.376 342.303)" class="colorffbbad svgShape"></ellipse><ellipse cx="601.69" cy="340.07" fill="#add6ff" rx="9.83" ry="4.78" transform="rotate(-2.189 601.696 340.075)" class="colorffbbad svgShape"></ellipse></g><path fill="#293d87" d="M609.77,261.42c-8.66-12.93-25.9-23.04-44.42-17.4c-26.24-6.5-41.33,4.75-50.56,15.36
			c-3.87,4.44-6.81,9.61-8.79,15.31c0,0.01,0,0.02-0.01,0.03c-3.78,11.01-3.98,24.07-0.34,38.14c0.7,2.67,1.53,5.39,2.51,8.12
			c0.18,0.52,0.37,1.04,0.56,1.56c1.55,4.14,3.41,8.35,5.61,12.59c0.25,0.48,0.51,0.97,0.76,1.45v0.01c0.15,0.27,0.3,0.54,0.45,0.82
			c0,0.01,0.01,0.01,0.01,0.02c1.41,2.58,2.93,5.18,4.58,7.78c-2.18-5.3-2.57-10.16-1.68-14.68c2.37-12.24,14.08-22.02,25.26-31.16
			c0.47-0.16,0.95-0.31,1.43-0.48c2.77-0.94,5.49-2.08,7.99-3.6c4.38-2.68,7.51-6.45,9.58-11.01c0.35-0.75,0.66-1.53,0.94-2.31
			c1.05-2.94,1.58-6.03,2.31-9.06c2.22,8.46,5.91,13.66,10.38,17.27c8.51,6.89,19.82,8.02,29.08,14.95
			c5.55,4.15,10.38,10.38,13.41,21.18v0.02c0.31,1.11,0.61,2.28,0.88,3.49C626.89,311.64,625.98,285.6,609.77,261.42z
			 M563.41,280.07c-0.47,1.3-0.98,2.59-1.56,3.84c-0.67,1.44-1.44,2.81-2.37,4.1c-3.1,4.3-7.74,6.96-12.61,8.79
			c5.42-4.47,10.48-8.83,13.99-13.31c1.12-1.41,2.08-2.84,2.84-4.29C563.6,279.49,563.51,279.78,563.41,280.07z" class="color873c29 svgShape"></path></g><g fill="#000000" class="color000000 svgShape"><path fill="#c0d8f0" d="M1199.75 823.6H107.26c-1.24 0-2.24.91-2.24 2.03v0c0 1.12 1 2.03 2.24 2.03h1092.5c1.24 0 2.24-.91 2.24-2.03v0C1201.99 824.51 1200.99 823.6 1199.75 823.6zM938.08 852.22H700.25c-1.34 0-2.42.98-2.42 2.19v0c0 1.21 1.08 2.19 2.42 2.19h237.83c1.33 0 2.42-.98 2.42-2.19v0C940.5 853.2 939.41 852.22 938.08 852.22zM1046.05 852.22h-72.52c-1.34 0-2.42.98-2.42 2.19v0c0 1.21 1.08 2.19 2.42 2.19h72.52c1.34 0 2.42-.98 2.42-2.19v0C1048.47 853.2 1047.39 852.22 1046.05 852.22z" class="colorc0e0f0 svgShape"></path></g><g fill="#000000" class="color000000 svgShape"><path fill="#3d5ed9" d="M767.03,148.85c-29.88-52.1-138.66-46.67-148.9,22.02c-4.96,24.89,16.35,45.98,35.83,57.51
				c30.12,17.84,2.71,35.37-25.74,31.33C691.04,291.89,807.17,218.83,767.03,148.85z" class="colord93d3d svgShape"></path><path fill="#3d5ed9" d="M793.18 173.98c-.13-3.49-.53-6.98-1.21-10.41-1.34-6.85-3.74-13.5-7.05-19.64-6.29-11.68-16.11-21.25-27.81-27.46-6.47-3.43-13.43-5.73-20.72-6.49-.8-.08-.93 1.17-.19 1.37 11.97 3.27 23.27 8.75 32.32 17.37 9.35 8.9 15.8 20.38 18.6 32.98.81 3.63 1.31 7.33 1.51 11.04.2 3.71-.41 7.44-.17 11.11.15 2.29 3.4 2.88 4.09.55C793.5 181.16 793.3 177.33 793.18 173.98zM790.54 197.6c-.03-.29-.07-.58-.11-.87-.05-.32-.24-.48-.34-.77-.11-.32-.59-.55-.85-.22-.15.2-.37.29-.53.5-.15.2-.26.44-.39.66-.26.45-.51.91-.75 1.36-.55 1.03-.93 2.14-1.38 3.21.09-.22-.18.4-.21.47-.11.25-.23.49-.35.73-.24.49-.49.97-.76 1.44-.27.47-.54.94-.84 1.4-.15.23-.31.45-.45.68-.28.47-.36.87-.42 1.4-.19 1.56 1.84 2.47 3.04 1.74 1.09-.66 1.67-2.15 2.21-3.28.52-1.1.99-2.23 1.4-3.39.38-1.1.7-2.24.78-3.41C790.62 198.73 790.6 198.15 790.54 197.6zM645.54 237.64c-1.5-.87-3.32-1.26-4.91-1.98-1.61-.73-3.18-1.54-4.69-2.45-2.99-1.78-5.76-3.88-8.28-6.27-2.54-2.41-4.85-5.02-6.82-7.92-1.96-2.87-3.85-5.95-5.24-9.14-.26-.6-1.23-.17-1.05.44 1.05 3.6 2.31 6.92 4.29 10.12 1.94 3.15 4.25 6.14 6.87 8.76 2.59 2.58 5.48 4.89 8.57 6.86 1.61 1.02 3.29 1.95 5.01 2.77 1.69.8 3.52 1.75 5.39 1.99C646.43 241.06 646.9 238.43 645.54 237.64z" class="colord93d3d svgShape"></path></g><path fill="#ffffff" d="M738.75,184.52c1.88-2.31,2.9-5.28,2.92-8.26h0c0-0.01,0-0.02,0-0.03l-1.37,0l-10.89-30.7
		c8.9-3.82-25.82-6.81-28.46-6.23c-0.25-1.1-0.91-2.04-1.81-2.66c-0.39-1.67,1.12-7.38-1.41-7.65c-1.78-0.12-3.86-0.04-3.55,2.46
		c0,0,0,5.19,0,5.19c-0.9,0.61-1.56,1.56-1.81,2.65c-2.13-1.09-40.69,3.33-28.89,6.06l-11.28,30.87l-1.17,0
		c-0.01,6.15,4.18,11.32,9.87,12.79c0,0,0,0.01,0.01,0c2.1,0.56,4.53,0.55,6.62-0.03c-0.01,0.01-0.02,0.02-0.03,0.03
		c5.7-1.41,9.93-6.89,9.87-12.76h0c0-0.01,0-0.02,0-0.03l-1.37,0l-11.1-31.29c8.77-2.46,18.45-3.14,27.61-3.18
		c0.32,0.9,0.9,1.67,1.67,2.19v84.74c-1.58,0.32-2.75,1.59-2.73,3.09c-1.98,0.95-2.79,2.9-2.58,4.93h15.57
		c0.22-2.03-0.6-3.98-2.58-4.93c0.03-1.51-1.15-2.77-2.73-3.09v-84.74c0.77-0.52,1.35-1.29,1.67-2.19
		c9.02,0.08,18.5,0.83,27.07,3.31l-11.38,31.16l-1.17,0c-0.01,6.15,4.18,11.32,9.87,12.79c0,0,0,0.01,0.01,0
		c2.1,0.56,4.53,0.55,6.62-0.03c-0.01,0.01-0.02,0.02-0.03,0.03C734.52,188.3,736.98,186.72,738.75,184.52z M673.9,176.24
		c0,0.01,0,0.01,0,0.02l-19.42-0.02l-0.92,0l10.4-30.43l-0.46,30.43h1.39l-0.25-30.33l9.99,30.34L673.9,176.24z M718.78,176.24
		l-0.92,0l10.4-30.43l-0.46,30.43h1.39l-0.25-30.33l9.99,30.34l-0.73,0c0,0.01,0,0.01,0,0.02L718.78,176.24z" class="colorffffff svgShape"></path><g fill="#000000" class="color000000 svgShape"><path fill="#315e8c" d="M161.04 410.73c-.08-.01-.16-.03-.23-.08-.07-.04-1.81-1.05-4.74-3.07-.27-.19-.34-.56-.15-.84.19-.27.56-.34.84-.15 2.89 1.99 4.64 3.01 4.66 3.02.29.17.38.53.22.82C161.51 410.65 161.28 410.76 161.04 410.73zM147.43 401c-.11-.01-.21-.06-.3-.13-2.87-2.33-5.72-4.8-8.45-7.34-.24-.23-.26-.61-.03-.85.23-.24.61-.26.85-.03 2.71 2.53 5.53 4.98 8.38 7.29.26.21.3.59.09.84C147.84 400.95 147.63 401.02 147.43 401zM131.13 385.8c-.14-.02-.27-.08-.37-.19-2.55-2.73-5.02-5.58-7.34-8.44-.21-.26-.17-.64.09-.84.26-.21.64-.17.84.09 2.3 2.85 4.75 5.67 7.28 8.38.23.24.21.62-.03.85C131.48 385.77 131.3 385.82 131.13 385.8zM117.15 368.46c-.16-.02-.32-.11-.42-.26-2.13-3.09-4.13-6.27-5.97-9.46-.17-.29-.07-.65.22-.82.29-.16.65-.07.82.22 1.82 3.16 3.81 6.32 5.92 9.38.19.27.12.65-.15.84C117.44 368.45 117.29 368.48 117.15 368.46zM106.07 349.16c-.2-.02-.38-.15-.47-.34-1.58-3.39-3.02-6.87-4.28-10.34-.11-.31.05-.66.36-.77.31-.11.66.05.77.36 1.24 3.44 2.67 6.88 4.23 10.24.14.3.01.66-.29.8C106.29 349.15 106.17 349.17 106.07 349.16zM98.51 328.23c-.24-.03-.45-.2-.51-.45-.93-3.6-1.71-7.28-2.31-10.95-.05-.33.17-.64.5-.69.33-.05.64.17.69.5.59 3.63 1.36 7.28 2.28 10.84.08.32-.11.65-.43.73C98.66 328.23 98.58 328.24 98.51 328.23zM94.95 306.27c-.28-.03-.51-.26-.53-.56-.25-3.68-.34-7.45-.25-11.18.01-.33.28-.59.61-.59.33.01.59.28.59.61-.08 3.7 0 7.43.25 11.07.02.33-.23.62-.56.64C95.02 306.28 94.98 306.28 94.95 306.27zM95.42 284.04c-.33-.04-.56-.33-.53-.66.06-.55.12-1.09.19-1.64.38-3.11.87-6.28 1.47-9.42.06-.33.39-.54.7-.48.33.06.54.38.48.7-.59 3.11-1.08 6.25-1.46 9.34-.07.54-.13 1.09-.19 1.63C96.06 283.83 95.76 284.07 95.42 284.04 95.43 284.04 95.43 284.04 95.42 284.04zM99.52 262.15c-.03 0-.05-.01-.08-.01-.32-.08-.52-.41-.43-.73.94-3.72 1.97-7.33 3.06-10.74.1-.32.44-.49.75-.39.32.1.49.44.39.75-1.08 3.39-2.1 6.98-3.04 10.67C100.1 262 99.82 262.19 99.52 262.15zM106.33 240.96c-.05-.01-.1-.02-.15-.04-.31-.12-.46-.47-.33-.78 1.45-3.59 3.01-7.02 4.64-10.18.15-.29.52-.41.81-.26.3.15.41.51.26.81-1.62 3.13-3.16 6.52-4.6 10.08C106.86 240.85 106.6 241 106.33 240.96zM158.93 230.91c-1.55-.19-3.04-.69-4.44-1.49-.29-.17-.39-.53-.22-.82.17-.29.53-.39.82-.22 3.15 1.81 6.89 1.86 10.07.18.29-.16.66-.04.81.25.16.29.04.66-.25.81C163.6 230.74 161.25 231.19 158.93 230.91zM116.63 221.27c-.09-.01-.18-.04-.27-.1-.27-.19-.34-.56-.16-.83 2.22-3.23 4.59-6.17 7.05-8.73.23-.24.61-.25.85-.02.24.23.25.61.02.85-2.42 2.51-4.74 5.4-6.92 8.58C117.07 221.2 116.85 221.3 116.63 221.27zM147.94 220.93c-.21-.03-.41-.17-.49-.38-1.22-3.16-1.92-6.89-2.08-11.09-.01-.33.25-.61.58-.62.33-.01.61.25.62.58.15 4.07.83 7.67 2 10.7.12.31-.03.66-.34.78C148.13 220.93 148.03 220.94 147.94 220.93zM172.06 221.12c-.04 0-.07-.01-.11-.02-.32-.1-.49-.44-.39-.75.36-1.13.61-2.34.77-3.6.06-.47.1-.95.13-1.44.1-1.77-.31-3.57-1.21-5.34-.15-.3-.03-.66.26-.81.3-.15.66-.03.81.26 1 1.97 1.45 3.97 1.34 5.96-.03.52-.07 1.02-.13 1.52-.16 1.33-.43 2.61-.81 3.81C172.62 220.99 172.34 221.16 172.06 221.12zM132.14 205.48c-.17-.02-.33-.11-.43-.27-.18-.28-.1-.65.17-.83 3.29-2.15 6.72-3.76 10.21-4.77.32-.09.65.09.74.41.09.32-.09.65-.41.74-3.37.98-6.7 2.54-9.89 4.62C132.41 205.47 132.27 205.5 132.14 205.48zM163.82 202.65c-.07-.01-.15-.03-.21-.07-3.07-1.66-6.64-2.7-10.39-2.99-.29-.02-.58-.31-.55-.64.03-.33.31-.58.64-.55.42.03.84.07 1.25.12 3.42.41 6.75 1.45 9.61 3.01.29.16.4.52.24.81C164.3 202.57 164.06 202.68 163.82 202.65zM146.6 198.93c0 0-.01 0-.02 0-.33-.05-.56-.35-.51-.68l.08-.52c.53-3.41 1.3-6.92 2.28-10.45.09-.32.43-.5.74-.42.32.09.51.42.42.74-.97 3.49-1.73 6.95-2.25 10.29l-.08.53C147.22 198.74 146.92 198.97 146.6 198.93zM152.53 177.48c-.05-.01-.1-.02-.15-.04-.31-.12-.46-.47-.33-.78 1.38-3.45 2.97-6.87 4.71-10.17.16-.29.52-.4.81-.25.29.16.41.52.25.81-1.73 3.26-3.29 6.64-4.66 10.05C153.05 177.36 152.79 177.51 152.53 177.48zM162.95 157.82c-.09-.01-.18-.04-.26-.1-.28-.19-.35-.56-.16-.83 2.09-3.09 4.36-6.09 6.76-8.93.21-.25.59-.28.85-.07.25.21.29.59.07.85-2.37 2.8-4.62 5.77-6.68 8.83C163.39 157.75 163.16 157.84 162.95 157.82zM177.31 140.85c-.13-.02-.26-.08-.36-.18-.23-.24-.22-.62.02-.85 2.69-2.55 5.56-4.99 8.53-7.25.26-.2.64-.15.84.11.2.26.15.64-.11.84-2.93 2.23-5.77 4.64-8.43 7.17C177.67 140.81 177.49 140.87 177.31 140.85zM194.99 127.38c-.18-.02-.34-.12-.44-.29-.17-.28-.08-.65.2-.82 3.15-1.91 6.46-3.69 9.85-5.31.3-.14.66-.02.8.28.14.3.01.66-.28.8-3.35 1.6-6.63 3.36-9.74 5.25C195.26 127.37 195.12 127.39 194.99 127.38zM459.34 147.74c-1.53-.18-3.08-.38-4.66-.6-.33-.04-.56-.35-.51-.68.04-.33.34-.56.67-.52 0 0 .01 0 .01 0 1.6.22 3.16.41 4.73.61 2.13.26 4.25.49 6.31.7.32.04.57.33.54.66-.03.33-.33.57-.66.54-2.07-.21-4.2-.45-6.33-.7C459.4 147.75 459.37 147.75 459.34 147.74zM443.67 145.49c-.01 0-.02 0-.03 0-3.58-.59-7.28-1.25-10.98-1.96-.33-.06-.54-.38-.48-.7.06-.33.39-.55.7-.48 3.7.71 7.38 1.36 10.95 1.95.33.05.55.36.49.69C444.28 145.31 443.98 145.53 443.67 145.49zM215.05 117.8c-.22-.03-.41-.17-.49-.39-.11-.31.05-.66.36-.77 3.43-1.26 7.01-2.39 10.65-3.38.32-.09.65.1.74.42.09.32-.1.65-.42.74-3.61.98-7.16 2.1-10.56 3.35C215.23 117.8 215.14 117.81 215.05 117.8zM476.85 149.37c-.31-.04-.55-.31-.53-.63.02-.33.31-.58.64-.56 3.79.24 7.53.39 11.1.44.33.01.6.28.59.61-.01.33-.28.6-.61.59-3.59-.06-7.35-.21-11.16-.45C476.87 149.37 476.86 149.37 476.85 149.37zM421.78 141.32c-.02 0-.04-.01-.05-.01-3.55-.76-7.21-1.59-10.88-2.46-.32-.08-.52-.4-.45-.72.08-.32.41-.52.72-.45 3.66.87 7.32 1.69 10.86 2.45.32.07.53.39.46.71C422.37 141.16 422.08 141.36 421.78 141.32zM499.12 149.7c-.29-.03-.52-.27-.53-.57-.01-.33.25-.61.58-.62 3.83-.15 7.55-.42 11.07-.79.32-.04.63.2.66.53.04.33-.2.63-.53.66-3.55.38-7.3.65-11.15.8C499.18 149.7 499.15 149.7 499.12 149.7zM400.09 136.2c-.03 0-.05-.01-.08-.01-3.53-.9-7.15-1.87-10.78-2.86-.32-.09-.51-.42-.42-.74.09-.32.42-.51.74-.42 3.62.99 7.24 1.96 10.76 2.86.32.08.52.41.43.73C400.67 136.04 400.39 136.23 400.09 136.2zM378.61 130.3c-.03 0-.06-.01-.1-.02-3.49-1.02-7.08-2.09-10.68-3.2-.32-.1-.5-.43-.4-.75.1-.32.43-.49.75-.4 3.59 1.1 7.18 2.18 10.67 3.2.32.09.5.43.41.74C379.17 130.16 378.89 130.33 378.61 130.3zM521.24 147.24c-.25-.03-.47-.22-.52-.48-.06-.33.15-.64.47-.71 3.83-.76 7.43-1.7 10.7-2.78.31-.1.65.07.76.38.1.31-.07.65-.38.76-3.32 1.1-6.97 2.05-10.85 2.82C521.36 147.25 521.3 147.25 521.24 147.24zM236.5 111.95c-.25-.03-.47-.22-.52-.48-.06-.33.15-.64.48-.7 3.58-.68 7.29-1.24 11.04-1.68.32-.04.63.2.67.53.04.33-.2.63-.53.67-3.72.44-7.41 1-10.96 1.67C236.62 111.96 236.56 111.96 236.5 111.95zM357.29 123.8c-.03 0-.07-.01-.1-.02-3.59-1.08-7.19-2.12-10.69-3.08-.32-.09-.51-.42-.42-.74.09-.32.42-.51.74-.42 3.52.96 7.12 2 10.72 3.09.32.1.5.43.4.75C357.85 123.67 357.57 123.84 357.29 123.8zM258.58 109.34c-.28-.03-.51-.27-.53-.56-.02-.33.24-.61.57-.63 3.63-.19 7.39-.29 11.16-.28.33-.01.6.27.6.6 0 .33-.27.6-.6.6-3.75-.01-7.48.08-11.09.28C258.65 109.34 258.62 109.34 258.58 109.34zM335.8 117.93c-.02 0-.05-.01-.07-.01-3.64-.89-7.29-1.72-10.84-2.48-.32-.07-.53-.39-.46-.71.07-.32.39-.53.71-.46 3.57.76 7.23 1.6 10.88 2.49.32.08.52.4.44.73C336.38 117.77 336.09 117.96 335.8 117.93zM280.83 109.38c-.31-.04-.54-.31-.53-.63.02-.33.3-.59.63-.57 3.64.19 7.38.48 11.13.85 0 0 .01 0 .01 0 .32.04.56.33.53.66-.03.33-.33.57-.66.54-3.73-.37-7.46-.65-11.07-.85C280.86 109.38 280.85 109.38 280.83 109.38zM314 113.31c-.01 0-.02 0-.03 0-3.7-.66-7.39-1.25-10.98-1.75-.33-.05-.56-.35-.51-.68.05-.33.38-.56.68-.51 3.61.51 7.32 1.1 11.03 1.76.33.06.54.37.49.7C314.61 113.13 314.32 113.34 314 113.31zM542.53 139.84c-.18-.02-.35-.12-.45-.29-.17-.29-.07-.65.22-.82 3.09-1.81 4.38-3.16 4.39-3.17.23-.24.61-.25.85-.03.24.23.26.61.03.85-.06.06-1.4 1.48-4.66 3.39C542.78 139.83 542.65 139.86 542.53 139.84z" class="color318c85 svgShape"></path><g fill="#000000" class="color000000 svgShape"><polygon fill="#17265e" points="553.52 133.21 570.44 126.11 561.23 119.91" class="color175e58 svgShape"></polygon><polygon fill="#315e8c" points="570.51 129.48 588.66 112.36 561.53 124.23" class="color318c85 svgShape"></polygon><polygon fill="#315e8c" points="588.67 112.32 547.87 112.74 556.48 118.34" class="color318c85 svgShape"></polygon><polygon fill="#243573" points="588.66 112.36 561.51 124.33 553.52 133.21 556.42 118.21" class="color24736d svgShape"></polygon></g></g><g fill="#000000" class="color000000 svgShape"><path fill="#3a59cf" d="M1174.46,266.09c0.44,0.71,0.58,1.56,0.37,2.41c-0.27,1.11-1.09,1.97-2.19,2.29l-10.6,3.09
			c-1.1,0.32-2.25,0.04-3.07-0.75c-0.83-0.79-1.16-1.93-0.89-3.04l2.62-10.73c0.27-1.11,1.09-1.97,2.19-2.29
			c1.1-0.32,2.25-0.04,3.07,0.75l7.98,7.63C1174.15,265.65,1174.32,265.86,1174.46,266.09z M1160.59,271.18
			c0.04,0.06,0.08,0.11,0.11,0.14c0.08,0.08,0.32,0.26,0.65,0.16l10.6-3.09c0.33-0.1,0.44-0.37,0.46-0.48
			c0.03-0.11,0.06-0.4-0.19-0.64l-7.98-7.63c-0.25-0.24-0.54-0.19-0.65-0.16c-0.11,0.03-0.38,0.14-0.46,0.48l-2.62,10.73
			C1160.46,270.9,1160.52,271.07,1160.59,271.18z" class="colorcf3a3a svgShape"></path></g><g fill="#000000" class="color000000 svgShape"><path fill="#6bb5ff" d="M242.33,155.64l5.31-5.31c1.21-1.21,1.21-3.16,0-4.37c-1.21-1.21-3.16-1.21-4.37,0l-5.31,5.31l-5.31-5.31
			c-1.21-1.21-3.16-1.21-4.37,0c-1.21,1.21-1.21,3.16,0,4.37l5.31,5.31l-5.3,5.3c-1.21,1.21-1.21,3.16,0,4.37
			c0.6,0.6,1.39,0.9,2.18,0.9c0.79,0,1.58-0.3,2.18-0.9l5.3-5.3l5.3,5.3c0.6,0.6,1.39,0.9,2.18,0.9c0.79,0,1.58-0.3,2.18-0.9
			c1.21-1.21,1.21-3.16,0-4.37L242.33,155.64z" class="colorffb86b svgShape"></path></g><g fill="#000000" class="color000000 svgShape"><path fill="#6bb5ff" d="M1076.21,113.98l5.31-5.31c1.21-1.21,1.21-3.16,0-4.37c-1.21-1.21-3.16-1.21-4.37,0l-5.31,5.31l-5.31-5.31
			c-1.21-1.21-3.16-1.21-4.37,0c-1.21,1.21-1.21,3.16,0,4.37l5.31,5.31l-5.3,5.3c-1.21,1.21-1.21,3.16,0,4.37
			c0.6,0.6,1.39,0.9,2.18,0.9s1.58-0.3,2.18-0.9l5.3-5.3l5.3,5.3c0.6,0.6,1.39,0.9,2.18,0.9c0.79,0,1.58-0.3,2.18-0.9
			c1.21-1.21,1.21-3.16,0-4.37L1076.21,113.98z" class="colorffb86b svgShape"></path></g><g fill="#000000" class="color000000 svgShape"><path fill="#253678" d="M860.01,138.38c-4.91,0-8.91-4-8.91-8.91c0-4.91,4-8.91,8.91-8.91c4.91,0,8.91,4,8.91,8.91
				C868.91,134.39,864.92,138.38,860.01,138.38z M860.01,123.36c-3.37,0-6.12,2.75-6.12,6.12c0,3.37,2.75,6.12,6.12,6.12
				c3.37,0,6.12-2.75,6.12-6.12C866.13,126.1,863.38,123.36,860.01,123.36z" class="color257872 svgShape"></path></g></svg>