<svg xmlns="http://www.w3.org/2000/svg" enable-background="new 0 0 631.8 851.3" viewBox="0 0 631.8 851.3" id="Gift"><g fill="#021b79" class="color000000 svgShape"><path fill="#0575e6" d="m215.6 385 5.6 137 221.8-5.4-5.5-134.8" class="colorffffff svgShape"></path><path d="m213.7 386.5.6 13.7 1.3 32.7 1.6 39.6 1.4 34.3.5 11.2c.1 1.8.1 3.6.2 5.3v.2c0 .7.6 1.3 1.3 1.3l86.8-2.1 86.3-2.1 48.6-1.2c1.9 0 2.7-2.9 2.6-4.4l-.5-13.4-1.3-32.3-1.6-38.8-1.4-33.7-.5-11.1c-.1-1.7-.1-3.5-.2-5.2v-.2c0-.7-.6-1.3-1.4-1.3-.4 0-.7.1-.9.4-1.1 1-1.7 2.4-1.6 3.9l.6 13.4 1.3 32.3 1.6 38.8 1.4 33.8c.2 5.4.3 10.9.7 16.3v.2l2.6-4.4-86.8 2.1-86.3 2.1-48.6 1.2 1.3 1.3-.6-13.7-1.3-32.7-1.6-39.6-1.4-34.3-.5-11.2c-.1-1.8-.1-3.6-.2-5.3v-.2c0-1.3-1.4-1.6-2.3-.9-1.3 1.1-1.9 2.5-1.7 4z" fill="#021b79" class="color000000 svgShape"></path><path fill="#0575e6" d="M219.3 379.6c71.5-.4 153.2-1.5 223.7-1.8l-3.6-36.8c-73.9.4-157.4 3.6-231.3 4l.8 34.7 10.4-.1" class="colorffffff svgShape"></path><path d="m218.6 382.4 42.9-.3c14.7-.1 29.4-.2 44.1-.4l44.7-.4 44.2-.4 42.7-.3h5.1c1.9 0 2.7-2.9 2.6-4.4l-3.2-32.3-.4-4.5c0-.7-.6-1.3-1.3-1.3-14.7.1-29.4.2-44.1.5l-45.7.9c-15.2.3-30.6.7-46 1-15.3.3-30.5.7-45.8.9-14.8.3-29.6.4-44.3.6h-5.4c-1.5 0-2.6 2.5-2.6 3.7l.7 30.4.1 4.3c0 .9.2 2 1.3 2h10.4c2.2-.1 3.8-5.8 1.2-5.8l-10.4.1 1.3 2-.7-30.4V344l-2.6 3.7c14.7-.1 29.4-.2 44.1-.5 15.2-.2 30.5-.5 45.7-.9 15.2-.4 30.5-.7 45.9-1 15.3-.3 30.5-.7 45.8-.9 14.8-.3 29.6-.4 44.3-.6h5.4l-1.3-1.3 3.1 32.2.4 4.5 2.6-4.4-42.4.3c-14.6.1-29.2.2-43.8.4l-44.7.4-44.4.4-43.2.3h-5.2c-2.1 0-3.8 5.8-1.1 5.8z" fill="#021b79" class="color000000 svgShape"></path><path d="m217.2 382.4 40.7-.3 42.2-.4 42.5-.4 42.2-.4 41.2-.3h4.9c2.2 0 3.9-5.7 1.3-5.7l-40.8.3c-14.1.1-28.2.2-42.2.4l-42.5.4-42.1.4-41.1.3h-4.9c-2.4 0-4 5.7-1.4 5.7zM440.1 446.2l-86.5 2.2-86 2.1-48.5 1.2c-2.2.1-3.9 5.8-1.3 5.7l86.4-2.2 86-2.1 48.5-1.2c2.3 0 3.9-5.7 1.4-5.7zM333.2 339.8h-.3l-.6-.1-1.2-.2c-.8-.1-1.6-.3-2.3-.5-1.6-.3-3.1-.7-4.7-1.1-3.1-.8-6.1-1.8-9.1-3-6-2.3-11.7-5.2-17.1-8.7-.7-.4-1.3-.9-2-1.3s-1.1-.7-1.7-1.2c-1.3-.9-2.6-1.9-3.8-2.9-2.5-2-4.9-4.1-7.2-6.3-4.6-4.5-8.6-9.4-12.2-14.7-.2-.3-.4-.6-.6-1-.1-.2-.2-.3-.3-.5l-.2-.2c.1.2 0 0 0-.1-.4-.7-.8-1.4-1.2-2.2-.8-1.5-1.5-3-2.1-4.7-.1-.4-.2-.8-.4-1.2l-.1-.3s.1.3 0 .1-.1-.4-.2-.7c-.2-.8-.3-1.6-.4-2.4v-.6c0-.4 0-.8.1-1.2v-.3.3c0-.2.1-.4.1-.5 0-.2.1-.4.1-.5 0-.1 0-.2.1-.3.1-.4-.2.6-.1.2.1-.2.1-.3.2-.5s.3-.7.1-.2.1-.1.1-.2.3-.4.4-.7-.2.2-.2.2l.2-.2.3-.4.3-.4c.4-.4-.3.2 0-.1s.5-.4.8-.6l.4-.3c.1-.1.6-.4.3-.2s.2-.1.3-.1l.4-.2c.3-.2.7-.3 1-.4l1-.3.5-.2H272.2c.7-.2 1.4-.3 2.2-.3 1.5-.1 2.9-.1 4.4 0 .3 0 .7.1 1 .1h.2l.6.1c.8.2 1.5.3 2.3.6 1.5.4 3 .9 4.4 1.6 1.4.6 2.8 1.3 4.2 2.1.7.4 1.3.8 2 1.2l.5.3.2.2s-.2-.1 0 0c.3.2.7.5 1 .7 5.1 3.9 9.5 8.7 13.1 14 .5.7.9 1.3 1.3 2 .1.2.2.3.3.5l.2.2s-.1-.2 0 0l.7 1.1c.9 1.5 1.8 3 2.6 4.6 1.8 3.4 3.4 6.9 5 10.4 3.1 6.9 6 14 9.6 20.7.9 1.6 1.8 3.3 2.7 4.9 1.1 1.9 2.9-.2 3.4-1.4.8-1.9 1.6-3.8 2.5-5.6.4-.9.8-1.8 1.3-2.7l.7-1.4.2-.3c.2-.3-.1.2-.1.2.1-.3.3-.6.4-.8 1.8-3.6 3.8-7.2 5.9-10.7 1-1.8 2.1-3.5 3.2-5.2.5-.8 1.1-1.7 1.7-2.5.2-.3.5-.7.7-1 .1-.1.4-.6.2-.2s0 .1 0 0 .2-.2.3-.4c.5-.7 1-1.3 1.6-1.9l.4-.4c.2-.3-.3.3-.1.1l.2-.2c.3-.3.7-.6 1-.8l.5-.3c.4-.2-.3.1.1-.1s.7-.4 1.1-.5l.5-.2.2-.1c.3-.1-.3 0 0 0 .4-.1.8-.1 1.2-.2.4 0 .8 0 1.1.1.2 0 0 0 0 0h.2c.2 0 .5.1.7.2.3.1.7.2 1 .4.2.1.4.2.5.3l.2.1s.3.2.2.1l.1.1.2.2c.2.1.3.3.5.4.6.5 1.1 1.1 1.5 1.7.1.1.3.5.1.2l.3.6c.2.3.3.7.5 1.1.1.2.1.3.2.5l.1.3c-.1-.2-.1-.3 0 0 .1.4.2.8.2 1.3 0 .2 0 .4.1.7s0-.1 0-.1v.5c0 .4-.1.9-.1 1.3v-.2c0 .1 0 .3-.1.4 0 .3-.1.5-.2.8 0 .2-.1.4-.2.6l-.1.4c-.1.3.1-.2.1-.2-.2.4-.3.9-.5 1.3s-.4.9-.6 1.3l-.2.3c-.1.3.1-.2.1-.2-.2.2-.3.5-.4.8-.4.7-.8 1.4-1.3 2.1-.1.1-.5.7-.2.2s-.1.1-.1.2c-.2.3-.5.6-.7.9-.5.6-1 1.1-1.5 1.7-.3.3-.5.6-.8.8 0 0 .4-.3.2-.2l-.2.2-.5.4-1.8 1.5c-1.3 1-2.6 1.9-4 2.8l-.3.2-.3.2-1.1.7c-.7.4-1.4.8-2.2 1.1-1.5.7-3 1.4-4.5 2s-3 1.1-4.6 1.6l-1.1.3-.5.1s-.3.1-.1 0-.1 0-.2 0c-.8.2-1.5.3-2.3.5s-1.4.2-2.1.3c-1.3.2-2.3 1.7-2.5 3-.2.8-.2 2.9 1.2 2.7 6.8-1 13.4-3.3 19.4-6.7 6.5-3.7 12.1-8.7 15.5-15.4 2-4 3.5-8.9 2.4-13.4-.8-3.5-3.1-6.9-6.6-8.2-3.7-1.4-7.5.1-10.2 2.7-3.1 2.9-5.3 6.5-7.5 10.1-4.7 7.5-8.8 15.3-12.4 23.4-.4 1-.9 2-1.3 3l3.4-1.4c-3.8-6.8-7.3-13.9-10.3-21.1-2.9-7-6.3-13.9-10.2-20.5-3.4-5.8-7.8-11-12.8-15.5-5-4.5-10.9-7.7-17.4-9.3-6.2-1.5-13.3-.8-18 4-2.7 3-4.1 6.8-4 10.8.1 3.7 1.1 7.4 2.8 10.7 1.6 3.1 3.4 6 5.5 8.8 1.9 2.7 4 5.2 6.2 7.7 4.4 4.9 9.3 9.3 14.6 13.2 5.4 3.9 11.2 7.3 17.3 10 6 2.7 12.3 4.8 18.8 6.2 1.7.3 3.3.6 5 .9.5.1 1.2-.6 1.5-.9.5-.6.8-1.3 1-2.1.2-.7.2-1.4-.1-2-.3-.8-.7-1.1-1.2-1.1z" fill="#021b79" class="color000000 svgShape"></path><path d="M334.1 96.9c-.8 31.7-1.6 63.3-2.2 95-.7 33.6-1.3 67.2-1.8 100.8-.5 31.6-1 63.3-1.3 94.9-.3 25.9-.6 51.8-.8 77.7-.1 16.5-.3 32.9-.2 49.4v3.4c0 3.9 4 .8 3.9-1.7-.2-15 0-30 .1-44.9.2-25 .4-50 .8-75.1.4-31.1.8-62.2 1.3-93.3.5-33.5 1.1-67 1.8-100.4.7-32.2 1.4-64.4 2.2-96.7l.3-10.8c0-1.1-.5-2.3-1.8-1.9s-2.2 2.4-2.3 3.6z" fill="#021b79" class="color000000 svgShape"></path></g><g fill="#021b79" class="color000000 svgShape"><path d="M213.9 119.9c-9.7-3.5-17.3 4.9-20.8 12.9-3 7-2.5 14.5-1.2 21.9 1.6 8.2 3.7 16.4 6.3 24.3 2.4 7.5 4.3 17.1 11.5 21.5 4.2 2.6 9.5 3.5 14.3 4.5 5.6 1.2 11.2 2.1 16.8 2.8 1.2.2 2.5.3 3.8.5 1.5 0 3 .2 4.5.5 1.4.4 2.7 1.6 4 2.4 2.8 1.9 5.7 3.7 8.5 5.5 13.4 8.6 27.1 16.8 41.3 24.1 31.6 16.2 67.8 29.6 103.8 25.8 2.2-.2 4.3-.5 6.4-.9 1-.2 1.9-.4 2.9-.5.3 0 0 0-.2-.1.7.2 1.4.5 2.1.8 2.8 1.4 5.5 3 8.2 4.6 9 5.3 17.7 10.8 26.5 16.4 15.5 9.9 31 19.9 46.3 30l.8.5c.9.6 2-.9 2.4-1.4l8.8-13.6 21.2-32.7 25.5-39.4 22.2-34.2c3.6-5.5 7.4-11 10.8-16.6l.2-.2c.7-1.1 1.2-3.3-.1-4.1l-29.7-19-47.1-30.2-10.8-6.9.7.7c-6.3-17.9-13.2-35.9-23.7-51.8-9.7-14.8-23.1-26.7-38.9-34.5-10.6-5.2-22-8.5-33.2-11.8-12.7-3.8-25.6-7.1-38.6-9.9-25.9-5.7-52.2-9.5-78.7-11.5-10.5-.8-22.3-.8-30.5 7-7.6 7.4-9.2 18.5-9.1 28.6 0 2.6.2 5.3.3 7.9l2.6-4.4c-9.1 1.9-16.9 7.9-20.8 16.4-4.5 9.2-5 19.9-2.7 29.8l2.6-4.4c-18.5 3.1-30.5 26.7-22 43.5 1.3 2.7 4.5-2.2 3.6-4.1-6.7-13.4 2.3-31.1 17.2-33.6 1.7-.3 3-2.8 2.6-4.4-1.9-8-2-16.8 1.5-24.4 3.2-6.8 9.5-11.6 16.8-13 1.9-.4 2.7-2.6 2.6-4.4-.5-8-1-17.3 2.8-24.7 4.4-8.3 13.9-10.4 22.6-10.5 10.5-.1 21.2 1.3 31.7 2.5 11.3 1.3 22.6 3 33.8 4.9 22.2 4 44.2 9.3 65.7 16 16.5 5.1 32.5 10.9 45.9 22 11.4 9.5 20 21.6 26.8 34.6 3.6 7.2 6.9 14.5 9.8 22 1.6 4 3 8 4.5 12.1.6 1.7.9 4 2.4 5.1 13.8 9.1 27.9 17.9 41.8 26.8l44.7 28.6.8.5-.1-4.1-8.8 13.6-21.3 32.8-25.5 39.4-22.2 34.2-7.3 11.3c-1.2 1.7-2.4 3.5-3.5 5.3l-.2.2 2.4-1.4c-12.6-8.3-25.3-16.6-38-24.8-9.4-6-18.8-12-28.3-17.9-3.5-2.1-7-4.3-10.5-6.3-2-1.3-4.2-2.4-6.4-3.3-1.5-.5-2.8 0-4.3.3-4.3.7-8.6 1.2-13 1.4-8.6.4-17.3-.1-25.9-1.4-17.6-2.7-34.7-8.4-51-15.5-15.4-6.8-30.3-14.5-44.6-23.2-6.2-3.7-12.4-7.6-18.5-11.6-2.7-1.7-5.3-3.4-7.9-5.2-.5-.4-1.1-.8-1.7-1.1-1-.3-2-.5-3-.5-3-.3-6-.7-9-1.1-5.5-.7-10.9-1.7-16.2-2.9-4.5-1-9.8-2-13.4-5.2-3.4-3-4.7-7.5-6.1-11.6-1.2-3.4-2.3-6.9-3.4-10.3-2.5-7.8-4.4-15.7-5.6-23.8-.5-3.1-.6-6.2-.3-9.4.6-3.8 2.3-7.3 4.9-10.2 3-3.3 7.6-4.5 11.8-3.1 2.2 1 4.4-4.6 2.1-5.4z" fill="#021b79" class="color000000 svgShape"></path><path d="M251.4 45.4c.4 14.9 2.2 29.7 5.2 44.2.7 3.6 1.6 7.1 2.5 10.7.7 3.2 1.8 6.4 3.4 9.3 1.7 2.7 4.1 5 7 6.5 2.9 1.5 5.9 2.7 9 3.6 13.7 4.5 27.9 7.2 42 9.7 2.2.5 4.4.8 6.7 1 1.8.1 3.6.1 5.4 0 4.4-.2 8.7-1.5 12.4-3.9 4.9-3.4 7-9.5 6.6-15.3-.4-4.7-2.7-9-6.4-12-.6-.5-1.3-.9-2-1.3-.5-.1-1.1 0-1.5.4-.6.5-1 1.1-1.3 1.8-.4 1-.7 2.8.5 3.4.3.1.5.3.8.5s.6.3.1.1c.2.1.3.2.5.4.7.6 1.3 1.2 1.9 1.8l.9 1.2c.2.2.3.4.4.6s.2.2.2.4c-.2-.3-.1-.1 0 .1.6 1 1 2 1.4 3.1.1.2.1.3.1.5-.1-.5 0-.2 0-.1.1.3.1.6.2 1s.1.6.1.9v.7-.1.9c0 .3 0 .7-.1 1s.1.5 0-.1c0 .2 0 .4-.1.6l-.3 1.2c-.1.2-.3.9 0 0l-.1.3c-.1.2-.2.5-.3.7-.1.1-.1.2-.1.3.4-.9.2-.5.1-.2-.1.2-.3.5-.4.7l-.2.3c-.2.3.5-.6.2-.2-.1.2-.3.3-.4.5l-.5.6c-.1.1-.3.2.2-.2-.1.1-.3.2-.4.3-.3.3-.7.5-1 .8s-.5.3-.7.4c0 0 .5-.3.2-.1l-.5.3c-.9.5-1.8.9-2.7 1.2-.4.1-.9.3-1.3.4-.2 0-.8.2-.3.1l-.9.2c-1 .2-1.9.4-2.9.5-1.8.2-3.7.3-5.5.2-.8 0-1.5-.1-2.3-.1l-1-.1h-.2c-.3 0 .5.1.2 0s-.7-.1-1.1-.2c-13.8-2.5-27.6-5-41-9-3.1-1-6.2-2-9.3-3.2-1.3-.5-2.6-1.2-3.9-1.9-1.2-.7-2.3-1.5-3.2-2.5-1-1-1.8-2.1-2.5-3.4-.7-1.4-1.3-2.8-1.7-4.3-.1-.4-.2-.7-.3-1.1 0-.2-.1-.3-.1-.5s-.2-.7-.1-.2l-.6-2.4c-.4-1.7-.8-3.5-1.2-5.2-3.1-13.8-5.1-27.9-5.8-42.1 0-.8-.1-1.7-.1-2.5v-2.3c.1-.6-.1-1.2-.5-1.7-.4-.4-.9-.4-1.4-.2-1.1.3-1.9 1.6-2 3z" fill="#021b79" class="color000000 svgShape"></path><path d="M231.7 88.5c2.2 15.8 5.8 31.4 10.8 46.5 1.1 3.5 2.3 7 3.8 10.4 1.4 3.2 3.7 6 6.6 8.1 2.9 1.8 6.1 3.1 9.4 3.9 3.8 1 7.7 1.8 11.6 2.6 7.9 1.5 15.9 2.5 23.9 3.4 4 .4 8 .8 12.1 1.1 2.4.3 4.9.5 7.3.5 3.9-.1 7.7-.8 11.3-2.1 4.6-1.6 8.6-4.5 11.5-8.5 1.6-2.3 2.7-4.9 3.2-7.7s.3-5.6-.5-8.2c-.8-2.7-2-5.2-3.5-7.5-1.3-2.1-3-3.9-5-5.3-.8-.5-1.7-.8-2.7-.9-.5 0-1.2.5-1.5.9-.5.6-.8 1.3-1 2.1-.2 1.1-.2 2.6 1.2 2.8h-.1l.3.1c.2.1.4.1.6.2.4.2.8.4 1.2.7.2.1-.3-.3 0 0l.3.2c.2.2.4.3.6.5.4.4.9.8 1.2 1.3.3.4.7.8 1 1.3.2.2.4.5.5.8l.3.4.2.3c-.1-.2-.1-.2 0 0 .7 1.1 1.3 2.3 1.8 3.4.2.5.5 1.1.7 1.6l.3.9c.1.3.1.3.1.5l.1.3v-.1c.2.5.3 1 .3 1.6 0 .3.1.5.1.8v.4c0 .1 0 .8 0 0 0 .5-.1.9-.1 1.4 0-.7.1-.5 0-.2l-.1.5c-.1.3-.1.7-.2 1l-.1.4c-.2.6.2-.8.1-.2l-.3.3c-.1.3-.2.5-.3.8l-.2.4c.4-1 .2-.3 0-.1-.2.4-.5.9-.8 1.3-.1.2-.5.6.1-.2l-.2.3c-.2.2-.4.5-.6.7s-.7.7-1 1.1c.6-.7 0 0-.2.2l-.7.6-1.2.9-.6.4c-.1.1-.5.3 0 0l-.5.3c-.9.5-1.8 1-2.8 1.4-.9.4-1.9.7-2.9 1l-1.4.4c-.4.1.5-.1 0 0l-.2.1-.8.2c-1.7.4-3.4.6-5.1.7-1.7.1-3.4 0-5.1-.2-3.9-.3-7.7-.7-11.6-1-7.7-.8-15.4-1.6-23-2.9-3.8-.7-7.6-1.4-11.4-2.3-3.4-.7-6.7-1.7-9.9-2.9-2.9-1.2-5.5-3.2-7.3-5.8l-.3-.5-.2-.3c-.2-.3-.3-.6-.5-.9-.4-.8-.8-1.6-1.1-2.4-.7-1.6-1.2-3.2-1.8-4.8-5-14.3-8.7-29-11.1-44-.3-1.9-.6-3.8-.8-5.7 0-.7-.6-1.3-1.3-1.3-.4 0-.7.1-.9.4-1.1 1-1.7 2.4-1.6 3.9v-.3z" fill="#021b79" class="color000000 svgShape"></path><path d="M211.4 128.1c1.4 6.8 3.1 13.5 5 20.2.9 3.2 1.9 6.5 3 9.6 1 2.9 1.9 5.9 3.2 8.8 1.1 2.7 2.8 5.2 5 7.2 2.3 1.9 4.8 3.3 7.6 4.1 2.9 1 6 1.7 9 2.4 3.3.8 6.6 1.6 9.9 2.3 6.6 1.5 13.2 2.8 19.9 3.8 3.3.5 6.6 1 9.9 1.3 2.3.3 4.7.6 7.1.6 3.7.1 7.4-.3 11-1 4-.8 8.3-2.1 11.4-4.9 4-3.5 5.5-9.1 3.8-14.1-1.2-3.4-3.8-5.9-6.2-8.5-.2-.1-.3-.3-.4-.5s-.1 0 .1.2c0-.1-.1-.1-.1-.2-.2-.5-.6-.8-1.1-.8-.6.1-1.1.4-1.5.9-1 1.1-1.3 2.6-1 4 .3 1 1.4 1.8 2.1 2.5 1.2 1.2 2.3 2.5 3.3 3.9.1.1.1.2.2.3.2.2-.2-.4 0 0l.3.6c.2.4.4.9.6 1.3.1.2.2.4.2.7 0 .1.1.3.1.3-.1-.1-.1-.5 0-.2.1.5.2 1 .2 1.6v-.2.4c0 .2-.1.5-.1.8 0 0 .1-.7 0-.3 0 .1-.1.3-.1.5 0 .1 0 .2-.1.3-.1.6.2-.6 0-.1-.1.2-.2.5-.3.7-.2.5.4-.7.2-.3l-.1.2c-.1.2-.2.3-.3.5-.2.4.4-.5.2-.3-.1.1-.2.2-.2.3-.1.2-.3.3-.4.5l-.2.2c-.3.4.5-.4.1-.1s-.6.5-1 .8l-.5.4-.2.1c-.4.2-.8.5-1.3.7-.8.4-1.7.8-2.6 1.1-.5.2-.9.3-1.4.5l-.7.2-.3.1-.3.1h-.2l-.4.1-.6.1c-.5.1-1.1.2-1.6.3-1 .2-1.9.3-2.9.4-1.7.2-3.5.3-5.2.3-1.7 0-3.4-.1-5.1-.3-3.3-.3-6.5-.7-9.8-1.1-6.3-.9-12.6-2-18.9-3.4-6.3-1.3-12.7-2.8-19-4.5-2.7-.6-5.3-1.6-7.7-2.8-2.3-1.3-4.3-3.1-5.7-5.4l-.2-.3-.2-.4c-.2-.3-.3-.6-.5-.9-.3-.7-.7-1.4-.9-2l-1.5-3.9c-1.1-3.1-2.1-6.2-3.1-9.4-2-6.4-3.5-12.2-5-18.7-.4-1.6-.7-3.1-1-4.7 0-.5-.3-1-.8-1.3-.5-.1-1.1 0-1.5.4-1.2 1-1.7 2.4-1.6 3.9l.4.1z" fill="#021b79" class="color000000 svgShape"></path><path d="M248.5 208.7c2.8.3 5.7.6 8.6.8 2.5.2 5.1.5 7.6.7 3.4.1 6.7-.4 10-1.3s6.8-2.2 9.2-4.8c1.5-1.9 2.6-4.2 2.9-6.7.5-2.3.4-4.7-.2-7-.8-2.9-2.7-5.4-5.2-7-.4-.3-1.2.1-1.5.4-.6.5-1 1.1-1.3 1.8-.4 1.2-.7 2.7.5 3.4.3.2-.4-.3-.2-.1l.2.2.5.4c.4.3.7.7 1.1 1.1.4.5.8.9 1.1 1.4.2.3-.1-.1-.1-.1 0 .1.1.1.1.2l.2.4c.2.3.3.7.4 1 .1.2.2.9.3 1 0 0-.1-.5 0-.2 0 .1 0 .2.1.3s.1.4.1.6 0 .4.1.6v.3c-.1-.2 0-.5 0-.2 0 .5 0 1-.1 1.4-.1.6.1-.4 0 .1 0 .2-.1.5-.2.7-.1.3-.2.5-.2.8 0-.1.2-.7 0-.2l-.2.5c-.1.2-.2.5-.3.7-.3.8.3-.5.1-.2-.1.1-.2.2-.2.3 0 0 .5-.6.2-.3l-.2.2-.3.3c.2-.4.4-.4.2-.2l-.2.2c-.3.2-.5.4-.8.6l-.4.2c-.3.2.1-.1.2-.1l-.2.1c-.3.2-.7.4-1 .5-1.5.7-3 1.2-4.5 1.6l-.3.1c-.3.1.3-.1 0 0l-.5.1-1.3.3c-.8.2-1.6.3-2.4.4-1.4.2-2.8.3-4.2.3-2.5 0-5.1-.4-7.6-.6-3-.3-6-.5-9-.9-.5 0-1.2.6-1.5.9-.5.6-.8 1.3-1 2.1-.2 1.1-.2 2.6 1.2 2.7l.2.2zM339 23.1c-.1 4.9-.3 9.8-.4 14.7 0 1 .5 2.5 1.8 1.9 1.3-.7 2.1-2.1 2.1-3.6.1-4.9.3-9.8.4-14.7 0-1-.5-2.5-1.8-1.9-1.2.7-2 2.1-2.1 3.6zM338.9 135.3c-5.7-1.8-11.7-2.8-17.7-2.9-3 0-5.9.3-8.5 1.9-2.4 1.7-4.2 4-5.3 6.8-1.3 3.3-1.9 6.9-1.8 10.5 0 1 .5 2.5 1.8 1.9 1.3-.7 2.1-2.1 2.1-3.6 0-1.3.1-2.7.2-4l.1-.5c0-.4-.1.5 0 .1s.1-.7.2-1 .1-.6.2-.9c0-.1.1-.4.1-.4s-.2.6 0 0l.3-.9c0-.1.1-.2.2-.3 0 .1-.4.7-.1.2.1-.2.2-.5.4-.7s.1-.2.2-.3l.2-.2-.2.2c0-.2.8-1.1 1-1.1-.3.2-.2.2-.1.1l.3-.2c.2-.2.5-.4.8-.6.1-.1.2-.1.3-.2-.4.2-.1.1 0 0l.7-.3c.5-.2 1-.4 1.6-.5 1.3-.2 2.6-.3 3.9-.2 2.7 0 5.4.2 8.1.6 3 .5 5.9 1.1 8.7 2.1 1.3.4 2.4-1.1 2.7-2.1.5-.9 1-3.1-.4-3.5zM345.1 106.1c-4.9-1.3-9.8-2.5-14.7-3.4-2.5-.5-5.1-1.2-7.6-.6-2.4.7-4.4 2.3-5.6 4.4-1.5 2.5-2.4 5.3-2.8 8.2-.2.7-.2 1.4.1 2 .2.5.6.8 1.1.8 1.3-.1 2.3-1.8 2.5-3 .2-1 .4-2 .7-3l.1-.4c0-.1.1-.4 0 0s.1-.3.2-.4.2-.4.2-.6.3-.4-.1.1c.1-.1.1-.2.2-.3l.3-.6c.1-.2-.2.2-.2.2.1-.1.1-.2.2-.3l.4-.4c.3-.4 0 .1-.1.1s.2-.2.3-.2.3-.2.5-.4-.1 0-.1.1l.3-.2c.3-.2.7-.3 1-.4 2.1-.3 4.2.3 6.3.7 2.2.4 4.5.9 6.7 1.4 2.5.6 5.1 1.2 7.6 1.9 1.3.3 2.3-1.1 2.7-2.1.3-.7.4-1.4.3-2.2-.1-.5-.3-1.1-.8-1.3l.3-.1zM311.6 166.9c-4.1.2-8.1-1.1-12.2-.9-1.9.1-3.7.6-5.3 1.4-1.9 1.1-3.5 2.7-4.6 4.6-1.2 2.3-2 4.7-2.3 7.3-.1 1 .6 2.5 1.8 1.9 1.3-.8 2-2.1 2.1-3.6-.1.8 0-.1 0-.2s.1-.5.2-.8.1-.5.2-.8.1-.2-.1.2c0-.1.1-.2.1-.4s.2-.5.3-.7l.2-.4c-.2.4-.2.5-.1.2s.2-.3.3-.5l.2-.3c-.2.3-.3.4-.1.1s.3-.4.5-.6.2-.2-.1 0c.1-.1.2-.2.3-.2.2-.2.4-.3.6-.5s.2-.1 0 0l.3-.2c.4-.2.8-.4 1.3-.5.2-.1.5-.2.8-.2-.3.1.4-.1.5-.1 4.6-.8 9.2 1 13.8.7 1.3-.1 2.3-1.8 2.5-3 .1-.6.1-2.6-1.2-2.5z" fill="#021b79" class="color000000 svgShape"></path><path d="M281.6 191.2c-4.2-.8-8.7-1.6-12.6.7-4.2 2.6-6.4 7.5-5.7 12.3 0 .7.6 1.3 1.3 1.3.4 0 .7-.1.9-.4 1.1-1 1.7-2.4 1.6-3.9 0-.2 0-.4-.1-.6-.1-.6 0 .5 0-.1 0-.4 0-.8.1-1.2v.3c0-.1 0-.2.1-.4s.1-.3.1-.5-.2.7 0 0c0-.1.2-.4.2-.4-.2.4-.2.5-.1.2l.1-.2.2-.2c.1-.2.1-.1-.2.2l.4-.4.2-.2-.1.1c.1-.3.6-.5.8-.7s.1-.1-.1 0l.2-.1.5-.3c.3-.1.7-.3 1-.4l.3-.1c.2 0 .4-.1.6-.1.8-.1 1.6-.2 2.5-.2 1.8.1 3.7.3 5.4.7 1.3.2 2.3-1 2.7-2.1.3-.7.4-1.4.3-2.2.2-.3 0-1.1-.6-1.1zM416.6 27l-57.1 6.7c-9.3 1.1-18.6 2-27.9 3.3-8.3 1.1-16.8 3-23.9 7.7-6.5 4.3-11.8 11.3-13.2 19-.7 3.9-.4 8 1 11.8 1.4 3.4 3.5 6.6 6.2 9.1 6 5.8 14 8.7 22 10.6 9 2.2 18 4 27.1 6l13.8 3c3.7.8 7.7 1.4 11.4 0s6.2-4.8 6.4-8.7c.3-2.8-.6-6.1-3.1-7.7-1.1-.6-2.5-.8-3.8-.3-.6.3-1.1.8-1.4 1.4-.4.7-.7 1.4-.7 2.2-.4 14.5 4.7 28.6 14.3 39.5 15.8 17.4 40.7 23.2 62.5 14.4 1.3-.7 2.1-2.1 2.1-3.6 0-1.1-.5-2.4-1.8-1.9-13.2 5.2-27.9 5.1-41-.4-12.6-5.4-22.7-15.4-28-28.1-.8-1.7-1.4-3.5-2-5.3-.1-.5-.3-.9-.4-1.4-.1-.2-.1-.5-.2-.7.1.3-.1-.4-.1-.4-.2-.9-.4-1.9-.6-2.8-.4-1.9-.6-3.7-.8-5.6 0-.5-.1-1-.1-1.4v-.7c0-.2 0-.3 0 0v-3.4l-2.1 3.6c-.5.1 0 0 .1 0h.7c.4 0-.3-.1.1 0s.4.1.6.2l.3.2c-.4-.2 0 0 .1.1.2.2.4.4.5.6l.2.3c.2.2-.2-.4 0 0 .1.2.2.5.3.7s.1.2.1.4c0 .1.1.2.1.3-.1-.3-.1-.4 0-.1s.1.5.1.8c.1.7 0-.4 0 .3v.5c0 .6.2-.7 0-.1 0 .1 0 .2-.1.3-.2.8.2-.5 0 0-.3.8.4-.6 0 .1-.2.4-.3.2.1-.1-.1.1-.2.2-.2.3-.2.3.5-.4.1-.1-.2.1-.4.3-.5.4-.1.1-.2.2-.4.2.3-.2-.4.2-.5.2-2.8 1.3-6.5.9-9.6.2-4.3-.9-8.6-1.9-12.9-2.8-8.7-1.9-17.3-3.7-26-5.7-7.5-1.7-15.4-3.9-21.5-8.8-2.6-2.1-4.8-4.6-6.5-7.5-.4-.7-.8-1.5-1.1-2.3-.2-.4-.3-.7-.4-1.1l-.2-.7c-.1-.4 0 .2-.1-.3-.2-.8-.3-1.7-.4-2.5V64.8c0-.5.1-.9.1-1.4 0-.1.1-.5 0 .1l.1-.7c.1-.4.2-.7.2-1.1s.1-.4.2-.7c.2-.6-.2.6.1-.2s.6-1.5.9-2.2-.3.6 0-.1c.1-.1.1-.3.2-.4.2-.5.5-.9.8-1.4l.6-1c-.4.6.3-.4.4-.5l1.8-2.1.3-.3.2-.2c.3-.3.6-.5.9-.8.7-.6 1.4-1.2 2.2-1.8 1.3-1 2.8-1.8 4.3-2.6 1.8-.9 3.6-1.6 5.5-2.2 3.8-1.2 7.6-2.1 11.5-2.6 8.6-1.3 17.3-2.1 26-3.2l54-6.4 6.7-.8c1.3-.2 2.3-1.8 2.5-3 .3-.3.3-2.4-1.1-2.2z" fill="#021b79" class="color000000 svgShape"></path><path d="M339.1 40.8c-.3 4.5.9 8.7 1.6 13.1.1.9.2 1.8.3 2.6v.3-.2.7c0 .5 0 .9-.1 1.3V59.5v-.3c-.1.4-.2.9-.3 1.3 0 .1-.1.2-.1.4l.1-.3c-.1.3-.1.4-.2.5s-.2.4-.2.6c-.2.5.3-.6 0 0-.1.2-.2.4-.3.5-.3.5.3-.4 0 0-.1.2-.3.3-.4.5l-.2.2c-.3.3.1 0 .1 0 0 .2-.8.7-1 .8s-.6.4-.2.2l-.6.3c-.8.4-1.6.7-2.5 1l-.6.2-.4.1s-.3.1-.1 0-.3.1-.4.1l-.8.2c-4.2.9-8.4 1.5-12.7 2-4.9.6-9.9 1-14.9 1.2-1.3 0-2.3 1.8-2.5 3-.2.9-.2 2.8 1.2 2.7 9.1-.3 18.2-1.3 27.2-3.1 4-.8 8-2.1 10.5-5.5 2.7-3.7 3.5-8.2 3.2-12.7-.2-2.4-.6-4.7-1.2-7l-.6-3.6c0-.3-.1-.6-.1-.9v-1.4c0-.4 0-.7.1-1.1.1-1-.5-2.5-1.8-1.9-1.2.6-2 1.9-2.1 3.3zM616.6 193.2c-15.4-10.3-30.3-21.9-46-31.4-29.2 46.6-59.8 96.3-89.1 142.8 9.4 8.2 27.4 24.7 39 35.4 5.1 4.7 13 4.3 17.6-.8.5-.5.9-1.1 1.3-1.7l81-125.9c3.9-6 2.3-14.2-3.8-18.4z" fill="#021b79" class="color000000 svgShape"></path><path d="M617.6 190.9c-12-8.1-23.6-16.8-35.7-24.8-3.4-2.3-6.8-4.5-10.3-6.6-.7-.5-1.7.7-2 1.2-11.6 18.5-23.2 37-34.7 55.6-11.7 18.7-23.3 37.5-35 56.2-6.5 10.4-12.9 20.7-19.4 31-.5.7-1 2.5-.2 3.2 10.4 9.2 20.6 18.5 30.8 27.9l7.7 7c2.3 2.3 5.3 3.7 8.5 4 5.4.5 10.3-2.5 13.2-7 1.5-2.3 3-4.6 4.4-6.9l10.2-15.9 13.9-21.5 15.5-24 15-23.3 12.5-19.4 7.9-12.2 1.6-2.4c2.8-4.3 3.5-9.6 2-14.5-1.2-3.2-3.3-5.9-5.9-7.6-.4-.3-1.1 0-1.3.2-.5.4-.8.9-1 1.5-.4 1-.5 2.2.4 2.9 2.5 1.7 4.3 4.3 5 7.3.1.4.2.8.2 1.2 0 .2 0 .3.1.5v1.5c0 .3 0 .6-.1.9l-.3 1.2c-.1.4 0 .2 0 .1-.1.2-.2.5-.2.7s-.1.3-.2.5c0 0-.3.7-.2.4s-.2.4-.2.4l-.4.7-.9 1.5-6.7 10.4-11.6 18-14.4 22.4-15.3 23.8-14.2 22-11.3 17-6.1 9.5-.5.8s0 .1-.1.1c-.6.9-1.3 1.6-2.1 2.3-3.6 2.7-8.4 3-12.3.8-1.3-.8-2.5-1.7-3.6-2.8-10.4-9.6-20.9-19.1-31.5-28.6-2-1.8-4.1-3.7-6.2-5.5l-.2 3.2c11.6-18.5 23.2-37 34.7-55.6 11.7-18.7 23.3-37.5 35-56.2 6.5-10.4 12.9-20.7 19.4-31.1l-2 1.2c12.4 7.5 24 16.1 35.8 24.4 3.4 2.4 6.8 4.7 10.2 7 .3.2 1-.1 1.2-.3.5-.4.8-.9 1.1-1.5.5-.9.7-2.1-.2-2.8z" fill="#021b79" class="color000000 svgShape"></path><path fill="#0575e6" d="M580.4 180.8c.7.7 1.4 1.5 2 2.3.6.7 1.1 1.5 1.5 2.3.5.9 1 1.9 1.3 2.8.2.5.3.9.5 1.4.1.2.1.4.2.5s.1.2.1.4c.1.4 0-.2 0 .1.2.9.4 1.8.5 2.7.1.4.1.9.1 1.3v.7-.2.5c0 .9 0 1.8-.1 2.7 0 .2-.1.4-.1.7 0 .4.1-.5 0-.2v.3c-.1.5-.2.9-.3 1.4s-.2.8-.3 1.3.2-.6.1-.2l-.1.3c-.1.2-.2.5-.3.7-.2.4-.3.8-.5 1.2-.1.1-.1.2-.2.3 0 0 .3-.7.1-.2-.1.2-.2.4-.3.7s-.4.7-.7 1.1l-.2.2c-.2.3.2-.2.2-.2-.2.2-.3.5-.5.7s-.6.7-.8 1c-.2.1-.3.3-.4.5l.2-.2-.3.3c-.6.6-1.3 1.1-2 1.5l-.2.1c.4-.3.2-.1 0 0l-.5.3-1.2.6c-.8.3-1.6.6-2.4.8-.1 0-.4.1-.2 0s-.1 0-.1 0l-.6.1c-.4.1-.8.2-1.3.2-.9.1-1.9.1-2.8.1-.5 0-.9-.1-1.4-.1h-.4l-.7-.2c-1.4-.3-2.6-.8-3.8-1.6l-.6-.4-.4-.3c-1-.8-2.2.2-2.8 1.1-.4.7-.7 1.4-.7 2.2 0 .5 0 1.3.5 1.7 6.2 4.8 15.3 4 21.3-.8 7.1-5.5 9.8-15.5 8.2-24.1-.9-5-3.3-9.7-6.8-13.3-1.9-1.8-4.6 3.4-3 5l.2-.1z" class="colorffffff svgShape"></path><path fill="#0575e6" d="M560.9 214.1c.7.7 1.4 1.5 2 2.3.6.7 1.1 1.5 1.5 2.3.5.9 1 1.9 1.3 2.8.2.5.3.9.5 1.4.1.2.1.4.2.5s.1.2.1.4c.1.4 0-.2 0 .1.2.9.4 1.8.5 2.7.1.4.1.9.1 1.3v.7-.2.5c0 .9 0 1.8-.1 2.7 0 .2 0 .4-.1.7 0 .4.1-.5 0-.2v.3c-.1.5-.2.9-.3 1.4s-.2.8-.3 1.3.2-.6.1-.2l-.1.3c-.1.2-.2.5-.2.7-.2.4-.3.8-.5 1.2-.1.1-.1.2-.2.3 0 0 .3-.7.1-.2-.1.2-.2.4-.4.7s-.4.7-.7 1.1l-.2.2c-.2.3.2-.2.2-.2-.2.2-.3.5-.5.7s-.6.7-.9 1c-.2.1-.3.3-.4.5l.2-.2-.3.3c-.6.6-1.3 1.1-2 1.5l-.2.1h.1l-.5.3-1.2.6c-.8.3-1.6.6-2.4.8 0 0-.4.1-.2 0h-.1l-.6.1c-.4.1-.8.2-1.3.2-.9.1-1.9.1-2.8.1-.5 0-.9-.1-1.4-.1h-.5l-.7-.2c-.9-.2-1.7-.5-2.5-.9-.4-.2-.9-.4-1.3-.7-.2-.1-.4-.2-.6-.4-.1-.1-.3-.2-.4-.3-1.1-.8-2.2.2-2.8 1.1-.4.7-.6 1.4-.7 2.1 0 .5 0 1.3.5 1.7 6.3 4.8 15.3 4 21.3-.8 7.1-5.5 9.8-15.5 8.2-24.1-.9-5-3.3-9.7-6.8-13.3-1.5-1.8-4.3 3.5-2.7 5z" class="colorffffff svgShape"></path><path fill="#0575e6" d="M541.1 247.1c.7.7 1.4 1.5 2 2.3.6.7 1.1 1.5 1.5 2.3.5.9 1 1.9 1.3 2.8.2.5.3.9.5 1.4.1.2.1.4.2.5s.1.2.1.4c.1.4 0-.2 0 .1.2.9.4 1.8.5 2.7.1.4.1.9.1 1.3v.7-.2.5c0 .9 0 1.8-.1 2.7 0 .2 0 .4-.1.7 0 .4.1-.5 0-.2v.3c-.1.5-.2.9-.3 1.4s-.2.8-.3 1.3.2-.6.1-.2l-.1.3c-.1.2-.2.5-.3.7-.2.4-.3.8-.5 1.2-.1.1-.1.2-.2.3 0 0 .3-.7.1-.2l-.4.7c-.2.4-.4.8-.7 1.1l-.2.2c-.2.3.2-.2.2-.2-.2.2-.3.5-.5.7s-.5.7-.8 1c-.2.1-.3.3-.4.5l.2-.2-.3.3c-.6.6-1.3 1.1-2 1.5l-.2.1c.4-.3.2-.1.1 0l-.5.3-1.2.6c-.8.3-1.6.6-2.4.8 0 0-.4.1-.2 0s-.1 0-.1 0l-.6.1c-.4.1-.8.2-1.3.2-.9.1-1.9.2-2.8.1-.5 0-.9 0-1.3-.1h-.5l-.7-.2c-.9-.2-1.7-.5-2.5-.9-.4-.2-.9-.4-1.3-.7l-.6-.4c-.2-.1 0 0 0 0l-.4-.3c-1-.8-2.2.2-2.8 1.1-.4.7-.7 1.4-.7 2.2 0 .5 0 1.3.5 1.7 6.2 4.8 15.3 4 21.3-.8 7.1-5.5 9.8-15.5 8.2-24.1-.9-5-3.3-9.7-6.8-13.3-1.8-2-4.6 3.3-2.8 4.9z" class="colorffffff svgShape"></path><path fill="#0575e6" d="M520.8 279.6c.7.7 1.4 1.5 2 2.3.6.7 1.1 1.5 1.5 2.3.5.9 1 1.9 1.3 2.8.2.5.3.9.5 1.4.1.2.1.4.2.5s.1.2.1.4c.1.4 0-.2 0 .1.2.9.4 1.8.5 2.7.1.4.1.9.1 1.3v.7-.2.5c0 .9 0 1.8-.1 2.7 0 .2 0 .4-.1.7 0 .4.1-.5 0-.2v.3c-.1.5-.2.9-.3 1.4s-.2.8-.3 1.3.2-.6.1-.2l-.1.3c-.1.2-.2.5-.3.7-.2.4-.3.8-.5 1.2-.1.1-.1.2-.2.3 0 0 .3-.7.1-.2l-.4.7c-.2.4-.4.7-.7 1.1l-.2.2c-.2.3.2-.2.2-.2-.2.2-.3.4-.5.7s-.6.7-.9 1c-.2.1-.3.3-.4.5l.2-.2-.3.3c-.6.6-1.3 1.1-2 1.5l-.2.1h.1l-.5.3-1.2.6c-.8.3-1.6.6-2.4.8 0 0-.4.1-.2 0s-.1 0-.1 0l-.6.1c-.4.1-.8.2-1.3.2-.9.1-1.9.1-2.8.1-.5 0-.9 0-1.3-.1 0 0-.4-.1-.2 0s-.3-.1-.3-.1l-.7-.1c-.9-.2-1.7-.5-2.5-.9-.4-.2-.9-.4-1.3-.7l-.6-.4c-.2-.1 0 0 0 0l-.4-.3c-1-.8-2.2.2-2.8 1.1-.4.7-.7 1.4-.7 2.2 0 .5 0 1.3.5 1.7 6.2 4.8 15.3 4 21.3-.8 7.1-5.5 9.8-15.5 8.2-24.1-.8-5-3.2-9.7-6.7-13.3-1.6-1.9-4.4 3.4-2.8 4.9z" class="colorffffff svgShape"></path></g><g fill="#021b79" class="color000000 svgShape"><path d="M120.5 820.9c5.3 4.6 13 5 18.8 1 3.1-2.1 5.4-5.3 7.8-8.1 2.6-3 5.2-6.1 7.8-9.1 10.6-12.5 21-25.3 33.2-36.4s25.7-20 41.8-23.8c18.4-4.3 37.6-2.6 56.2-.4 17.9 2.1 35.8 4.3 53.8 4.8 17.5.5 35-.1 52.4-1.8 34.7-3.3 68.8-11.6 101.1-24.7 16-6.5 31.4-14.3 46.1-23.4 13.2-8.1 30.5-18.4 29.9-36.2-.1-3.6-1.2-7.1-3.3-10l-1.2 4.9c10.7-6.7 17.5-23.5 8.7-34.3-4.6-5.6-12.4-7.6-19.4-8-8.6-.5-17.4 1.8-25.8 3.6l1.3 1.3c-.6-9.8-9.2-16.1-18.1-17.9-11.2-2.4-21.5 1.5-32.2 4.6l1.8 1.2c-3.8-14.4-21.1-18.2-34-15.3-7.9 1.8-15.7 4.5-23.4 6.8s-15.6 4.7-23.5 7c-8.2 2.4-16.5 4.8-24.7 7-3.9 1-7.9 2.4-11.9 3.1-2.2.4-5.2-1.2-7.4-1.7-10.4-2.3-21.2-2.5-31.8-2.2-7.1.2-14.2.6-21.2 1.5l1.1.8c-2.6-6.7-7.4-12.3-13.6-15.8-7.2-4.4-15.4-7.3-23.5-9.4-18.6-4.8-39.1-6.2-57.9-2.1-22.8 5-44.8 15.5-64.7 27.6-20.2 12.3-38.6 27.7-56.8 42.7-17.8 14.5-34.8 30-50.9 46.4-6.9 7-17.2 14.9-14.6 26 .9 3.6 3.1 6.2 5.7 8.6l47 41.7c14.8 13.2 29.5 26.5 44.5 39.5l.9.5c2 1.8 4.7-3.4 3-4.9l-36-31.9-51.6-45.8c-4.7-4.2-13.5-10.3-8.7-17.6 1.6-2.4 4-4.4 5.9-6.4s4.2-4.3 6.3-6.5c4.2-4.3 8.5-8.5 12.9-12.7 7.9-7.6 16-14.9 24.4-22 17-14.5 34.5-29 52.6-42 19.1-13.8 40.1-24.8 62.3-32.6 9.7-3.3 19.4-6 29.6-6.8 9.7-.7 19.4-.4 29 .9 9.1 1.2 18.1 3.4 26.7 6.6 6.7 2.6 14.2 5.9 19 11.4 2.1 2.6 3.8 5.5 5 8.6.2.5.6.8 1.1.8 15.5-1.9 31.9-2.6 47.4-.3 2.4.3 4.7.8 7 1.4 1 .2 1.9.5 2.8.8 1.9.6 2.6.5 4.6 0 8-2 15.9-4.2 23.8-6.4 15.3-4.4 30.6-9 45.9-13.5 8.5-2.5 16.7-5.4 25.7-4.1 7.6 1.1 16 5.1 18.1 13.2.2 1 .7 1.5 1.8 1.2 9.5-2.8 19-6.5 29.1-4.8 8.2 1.4 17.2 6.3 17.7 15.6 0 .6.5 1.5 1.3 1.3 12.5-2.6 28.3-7.2 39.9.6 10.8 7.2 6.7 21.6-2.8 27.7-1.5 1.2-2 3.2-1.2 4.9 4.9 7.1 1.6 15.8-3.8 21.5-5.7 6.1-13.4 10.5-20.5 14.8-14.2 8.7-29.2 16.3-44.6 22.6-31.1 12.6-63.9 20.8-97.3 24.3-33.9 3.7-67.6 2.4-101.4-1.7-18-2.2-36.4-4.6-54.6-2.2-15.5 2-30.1 7.9-42.6 17.3-12.3 9.1-22.9 20.5-32.9 32-5.2 6-10.3 12.2-15.5 18.3l-7.5 8.7c-2.5 2.9-5 5.1-9 5.5-3.6.4-7.1-.7-9.9-3-2-1.6-4.7 3.7-3 5.2z" fill="#021b79" class="color000000 svgShape"></path><path d="M367.6 625.4c5.8 2.7 11.4 5.9 16.7 9.5 2.3 1.6 4.6 3.4 6.6 5.4 1 1 2 2.1 2.9 3.2.4.5.8 1.1 1.2 1.6l.6.9c.2.3.2.3.4.7.7 1.2 1.3 2.4 1.8 3.7.2.6.4 1.3.6 1.9 0 .1.1.4 0 0 0 .2.1.3.1.5.1.4.2.7.2 1.1.1.7.2 1.3.3 2v1.5c0 .6-.1 1.3-.1 1.9 0 .2-.2.6 0 0 0 .1-.1.3-.1.4-.1.4-.2.8-.2 1.2 0 .1-.1.2-.1.4l-.1.2c-.1.3-.1.2.1-.2-.1.1-.2.5-.3.7s-.2.6-.4.9c0 .1-.3.7-.1.2s-.1.2-.2.3c-.1.3-.3.5-.5.8-.1.1-.2.3-.3.4.4-.3.2-.3.1-.1-.4.5-.8 1-1.3 1.5-.2.2-.3.1 0 0-.1.1-.2.2-.3.2-.2.2-.5.4-.7.6-.5.4-1 .8-1.6 1.1-.1.1-.5.3 0 0l-.3.2c-.3.2-.5.3-.8.4-.6.3-1.1.5-1.7.8-1.2.5-2.4.9-3.6 1.2l-.2.1-.4.1-1 .2c-.6.1-1.3.2-1.9.3-2.6.4-5.2.6-7.8.7-6.8.3-13.7.6-20.5.7-13.8.2-27.6-.1-41.3-.9s-27.6-2-41.3-3.8c-1.7-.2-3.3-.4-5-.7-.5-.1-1.2.6-1.5.9-.5.6-.8 1.3-1 2.1-.2 1.1-.2 2.6 1.2 2.7 14.1 1.9 28.2 3.3 42.4 4.2 14.2.9 28.3 1.3 42.4 1.1 7.1-.1 14.2-.3 21.3-.6 5.5-.2 11.1-.6 16.4-2.3 5.7-1.7 10.3-5.8 12.8-11.2 2.4-5.7 2.5-12.1.2-17.8-2.1-5.5-6.2-10.1-10.7-13.8-5.1-4-10.6-7.6-16.4-10.5-1.5-.8-3-1.5-4.5-2.2-1.2-.6-2.4 1.2-2.7 2.1s-.7 3 .6 3.5zM561.3 648.4c-4.5-2.7-10-3.3-15.2-3.2-5.1.3-10.1 1-15 2.2-8.9 1.9-17.8 4-26.7 5.9-10.3 2.3-20.6 4.4-30.9 6.4-10.6 2-21.3 3.7-32 5-9.9 1.3-19.9 1.9-29.9 1.8-1.1 0-2.2 0-3.3-.1-1.3 0-2.3 1.9-2.5 3s-.2 2.7 1.2 2.7c9.8.2 19.6-.2 29.3-1.3 10.7-1.1 21.2-2.8 31.8-4.7s20.8-4 31.2-6.3l27.3-6c4.5-1.1 9.2-2 13.8-2.6 5.1-.6 10.6-.7 15.5 1.1 1.1.4 2.2.9 3.2 1.5.4.3 1.2-.1 1.5-.3.6-.5 1-1.1 1.3-1.8.3-.9.6-2.5-.6-3.3zM406.3 653.4c15.1-2.4 30-5.8 44.8-9.6s29.5-7.9 44.4-11.7c8.3-2.2 16.7-4.2 25.2-6.1 1.3-.4 2.3-1.6 2.5-3 .2-.7.2-1.4-.1-2-.2-.4-.6-.9-1.1-.8-15.2 3.4-30.2 7.4-45.3 11.5-14.7 3.9-29.2 7.8-44 11.1-8.3 1.8-16.7 3.5-25.1 4.8-1.3.2-2.3 1.7-2.5 3-.2.8-.3 3.1 1.2 2.8zM471.5 609.3c-9.5 2.8-19 5.7-28.5 8.4s-19.1 5.4-28.7 7.9c-5.3 1.3-10.7 2.7-16 3.9-1.3.4-2.3 1.6-2.5 3-.2.7-.2 1.4.1 2 .2.4.6.9 1.1.8 9.8-2.2 19.6-4.7 29.3-7.4s19.3-5.4 28.9-8.3l16.2-4.8c.6-.3 1.1-.8 1.4-1.4.4-.7.6-1.4.7-2.2-.1-1.2-.6-2.3-2-1.9z" fill="#021b79" class="color000000 svgShape"></path><path d="M389.2 649.9c-6-.8-12.2-1.4-18 1-2.6 1.1-4.8 2.8-6.6 4.9-2.1 2.7-3.4 5.9-3.7 9.3-.3 3.2-.1 6.4.6 9.5 0 .5.3 1 .8 1.3.5.1 1.1 0 1.5-.4 1.2-.9 1.8-2.4 1.6-3.9-.3-1.2-.5-2.4-.6-3.7 0-.3-.1-.7-.1-1v-.4c0-.1-.1-.4 0 0-.1-.6-.1-1.3 0-1.9 0-.3 0-.6.1-.9s.2-.4 0 .1c0-.1.1-.3.1-.4 0-.3.1-.6.2-.9 0-.1.1-.3.1-.4s0-.2.1-.3l-.1.2c0-.1.1-.2.1-.4l.2-.4c0-.1.3-.7.3-.7l-.1.2.2-.4c.1-.1.2-.3.3-.4.3-.5-.3.3 0 0s.7-.8 1-1.2-.3.2 0 0l.3-.2c.3-.2.5-.4.8-.7l.6-.4.3-.2c-.4.2 0 0 .1 0 .5-.3 1.1-.6 1.6-.8l1.5-.6.8-.2s.4-.1.1 0l.6-.1c1.3-.3 2.7-.4 4-.5 3.3-.1 6.6.2 9.9.7.5.1 1.2-.6 1.5-.9.5-.6.8-1.3 1-2.1.2-1.1.2-2.6-1.1-2.8zM53.9 679.8c-3.8-.4-7.6.6-10.6 3-3.3 2.9-5.2 7-5.3 11.3-.1 7.7 4.8 14.7 9.8 20.2 11.4 12.4 23.3 24.4 35.6 35.8 12.3 11.4 25.2 22.1 38.7 32 6.8 5 13.8 9.7 21 14.2 3.5 2.2 7.1 4.3 10.7 6.3 3.7 2.2 7.5 4.1 11.5 5.7 3.7 1.4 7.7 1.9 11.6 1.3 3.7-.6 7.1-2.4 9.6-5.1 2.8-3 4.2-7.1 3.9-11.2-.3-3.7-2.1-7.2-4.2-10.2-1.2-1.7-2.5-3.3-4-4.7-1.8-1.8-4.6 3.4-3 5 2.8 2.6 5 5.7 6.5 9.2.2.3.3.7.4 1.1.1.2.1.4.2.6-.1-.5 0 .1 0 .2.1.3.1.6.2.9s.1.4.1.6.2 1 0 .3v1.5c0 .4.2-.7 0-.1 0 .2-.1.3-.1.5-.1.3-.3.5 0-.1-.1.2-.1.3-.2.5-.1.1-.1.2-.1.3-.1.3-.1.2.1-.2-.2.3-.4.6-.5.9l-.1.2.1-.1c0 .2-.3.3-.4.5-.1.2-.3.3-.4.4l-.1.1c-.3.3-.6.5-.9.8-.3.2-.7.5-1 .7-.5.4.4-.2-.2.1l-.4.2c-2.1 1.1-4.4 1.7-6.8 1.8-1.9 0-3.7-.2-5.5-.7-4-1.2-7.8-2.9-11.3-5-3.5-1.9-6.9-3.9-10.3-6-6.7-4.1-13.3-8.4-19.8-13-13-9.3-25.5-19.3-37.3-30-12-10.8-23.5-22.2-34.6-34-5.1-5.4-10.6-10.7-13.5-17.5-.3-.8-.6-1.5-.8-2.3 0 0-.2-.7-.1-.3 0-.2-.1-.4-.1-.6-.1-.4-.2-.8-.2-1.2s-.1-.8-.1-1.2v-1.3.1c.1-.5.2-.9.3-1.4l-.1.4c0-.1.1-.3.1-.4s.1-.3.2-.5c.2-.4-.4.7 0 .1l.3-.5c.1-.2.2-.4.4-.5-.5.6 0 0 .1-.1s.3-.3.4-.5.6-.5.1-.2c.3-.3.6-.5 1-.8 0 0 .6-.4.2-.1l.5-.3c.3-.2.6-.3.9-.4l.6-.2c.2 0 .3-.1.5-.2 1.6-.4 3.3-.5 5-.3.5 0 1.2-.5 1.5-.9.5-.6.8-1.3 1-2.1.2-1.1.2-2.6-1.2-2.7l.1.1z" fill="#021b79" class="color000000 svgShape"></path><path d="M99.5 760.8c.1-.2.3-.3.4-.4l-.1.1.2-.2c.3-.3.7-.5 1-.8-.1.1-.4.2-.1.1l.3-.2.5-.2c.4-.2.8-.3 1.3-.4l-.5.1c.4-.1.8-.2 1.2-.1l-.5-.1c.2 0 .4.1.6.2l-.4-.3c.1.1.3.2.4.4l-.3-.4.1.2s-.1-.5 0-.2v-.5c.1-.7-.2.4.1-.3s-.2.3.1-.3c.2-.5 0-.1 0 0-.1.2-.3.4-.4.6.1-.1.4-.5.1-.2l-.2.3-.5.6c-.3.4-.6.7-.9 1.1l-.9 1-.3.3c-.2.2.4-.3.1-.1l-.5.4c-.3.3-.7.6-1 .9-.1.1-.2.1-.3.2.1-.2.4-.2 0 0-.2.1-.4.2-.6.2l.5-.1c-.3.1-.6.1-.9 0l.5.1c-.3-.1-.6-.2-.9-.4l.4.3c-.2-.1-.3-.3-.4-.4l.3.4c0-.1-.1-.2-.1-.2l.1.3v.3l-.1.5c.1-.5-.3.8-.1.2-.3.8-.2.5-.1.2-.3.6-.3.3-.1.1s.5-.3-.1 0c.2-.2.4-.4.6-.5 1.5-1.2 2.6-2.8 3.1-4.7.2-.7.2-1.4-.1-2-.2-.5-.6-.8-1.1-.8-1.4.1-2.2 1.8-2.5 3v.1c.1-.4.2-.7.4-1-.1.1-.3.5 0 0s0-.1 0 0-.5.4.1-.1c-.4.3-.8.7-1.2 1-1.5 1.3-2.5 3-2.8 4.9-.2 1.6.2 3.4 1.8 4 1.4.4 2.8.1 3.9-.8 1-.8 2-1.6 2.9-2.6.8-.9 1.6-1.8 2.3-2.7 1.3-1.5 2.1-3.3 2.4-5.2.1-1.4-.4-3.3-2-3.6-1.4-.2-2.8.1-4 .9-1.4.7-2.6 1.7-3.7 2.9-.5.6-.8 1.3-1 2.1-.2.7-.2 1.4.1 2 .6 1.2 1.9.7 2.6-.1l.3-.1zM87.5 751.2c.1-.2.3-.3.4-.4l-.1.1.2-.2c.3-.3.7-.5 1-.8-.1.1-.4.2-.1.1l.3-.1.5-.3c.4-.2.8-.3 1.3-.4l-.5.1c.4-.1.8-.1 1.2-.1l-.5-.1c.2 0 .4.1.6.2l-.4-.3c.1.1.3.2.4.4l-.3-.4c0 .1.1.2.1.2-.1 0-.1-.5 0-.2v-.5c.1-.7-.2.4.1-.3s-.2.3.1-.3c.2-.5 0-.1 0 0-.1.2-.3.4-.4.6.1-.1.4-.5.1-.2-.1.1-.1.2-.2.3-.1.2-.3.4-.5.6-.3.4-.6.7-.9 1.1s-.6.6-.9 1l-.3.3c-.2.2.4-.3.1-.1l-.5.4c-.3.3-.7.6-1 .8-.1 0-.2.1-.3.2.1-.2.4-.2 0 0-.2.1-.4.2-.6.2l.5-.1H86l.5.1-.9-.3.4.3c-.2-.1-.3-.3-.4-.4l.3.4-.1-.2.1.3v.3l-.1.5c.1-.5-.3.7-.1.2-.3.8-.2.4-.1.2-.3.6-.3.3-.1.1s.5-.3-.1.1c.2-.2.4-.4.6-.5 1.5-1.2 2.6-2.8 3.1-4.6.2-.7.2-1.4-.1-2-.2-.5-.6-.8-1.1-.8-1.4.2-2.2 1.8-2.5 3v.1c.1-.4.2-.7.4-1-.1.1-.3.5 0 0s0-.1 0 0-.5.4.1-.1c-.4.3-.8.7-1.2 1-1.5 1.3-2.5 3-2.8 4.9-.2 1.6.2 3.4 1.8 4 1.4.4 2.8.1 3.9-.8 1-.8 2-1.6 2.9-2.6.8-.8 1.6-1.8 2.3-2.7 1.3-1.5 2.1-3.3 2.4-5.2.1-1.4-.4-3.3-2-3.6-1.4-.2-2.8.1-4 .9-1.4.7-2.6 1.7-3.7 2.9-.5.6-.8 1.3-1 2.1-.2.7-.2 1.4.1 2 .6 1.2 1.9.8 2.6-.1l.3-.3zM111.2 770.6c.1-.2.3-.3.4-.4l-.1.1.2-.2c.3-.3.7-.5 1-.8-.1.1-.4.2-.1.1l.3-.2.5-.2c.4-.2.8-.3 1.3-.4l-.5.1c.4-.1.8-.2 1.2-.1l-.5-.1c.2 0 .4.1.6.2l-.4-.3c.1.1.3.2.4.4l-.3-.4.1.2s-.1-.5 0-.2v-.5c.1-.7-.2.4.1-.3s-.2.3.1-.3c.2-.5 0-.1 0 0-.1.2-.3.4-.4.6.1-.1.4-.5.1-.2l-.2.3-.5.6c-.3.4-.6.7-.9 1.1s-.6.7-.9 1l-.3.3.1-.1-.5.4c-.3.3-.7.6-1 .9-.1 0-.2.1-.2.2.1-.2.4-.2 0 0-.2.1-.4.2-.6.2l.5-.1h-.9l.5.1c-.3 0-.6-.2-.9-.3l.4.3c-.2-.1-.3-.3-.4-.4l.3.4c0-.1-.1-.2-.1-.2l.1.3v.3l-.1.5c.1-.5-.3.8-.1.2-.3.8-.2.5-.1.2-.3.6-.3.3-.1.1s.5-.3-.1 0c.2-.2.4-.4.6-.5 1.5-1.2 2.6-2.8 3.1-4.7.2-.7.2-1.4-.1-2-.2-.5-.6-.8-1.1-.8-1.4.1-2.2 1.8-2.5 3v.1c.1-.4.2-.7.4-1-.1.1-.3.5 0 0s0-.1 0 0-.5.4.1-.1l-1.1 1c-1.5 1.3-2.5 3-2.8 4.9-.2 1.6.2 3.4 1.8 4 1.4.4 2.8.1 3.9-.8 1-.8 2-1.6 2.9-2.6l2.4-2.7c1.3-1.5 2.1-3.3 2.4-5.2.1-1.4-.4-3.3-2-3.6-1.4-.1-2.8.2-4 .9-1.4.7-2.6 1.7-3.7 2.9-.5.6-.8 1.3-1 2.1-.2.7-.2 1.4.1 2 .7 1.1 2 .6 2.6-.3zM123 781c.1-.2.3-.3.4-.4l-.1.1.2-.2c.3-.3.7-.5 1-.8-.1.1-.4.2-.1.1l.3-.1.5-.3c.4-.2.8-.3 1.3-.4h-.5c.4-.1.8-.2 1.2-.1l-.5-.1c.2 0 .4.1.6.2l-.4-.3c.1.1.3.2.4.4l-.3-.4.1.2s-.1-.5 0-.2v-.5c.1-.7-.2.4.1-.3s-.2.3.1-.3c.2-.5 0-.1 0 0-.1.2-.3.4-.4.6.1-.1.4-.5.1-.2l-.2.3-.5.6c-.3.4-.6.7-.9 1.1s-.6.6-.9 1l-.3.3c-.2.2.4-.3.1-.1l-.5.4c-.3.3-.7.6-1 .9-.1 0-.2.1-.2.2.1-.2.4-.2 0 0-.2.1-.4.2-.6.2l.5-.1h-.9l.5.1c-.3 0-.6-.2-.9-.3l.4.3c-.2-.1-.3-.3-.4-.4l.3.4c0-.1-.1-.2-.1-.2l.1.3v.3l-.1.5c.1-.5-.3.8-.1.2-.3.8-.2.5-.1.2-.3.6-.3.3-.1.1s.5-.3-.1 0c.2-.2.4-.4.6-.5 1.5-1.2 2.6-2.8 3.1-4.7.2-.7.2-1.4-.1-2-.2-.5-.6-.8-1.1-.8-1.4.1-2.2 1.8-2.5 3v.1c.1-.4.2-.7.4-1-.1.1-.3.5 0 0s0-.1 0 0-.5.4.1-.1c-.4.3-.8.7-1.2 1-1.5 1.3-2.5 3-2.8 4.9-.2 1.6.2 3.4 1.8 4 1.4.4 2.8.1 3.9-.8 1-.8 2-1.6 2.9-2.6l2.4-2.7c1.3-1.5 2.1-3.3 2.4-5.2.1-1.4-.4-3.3-2-3.6-1.4-.2-2.8.2-4 .9-1.4.7-2.6 1.7-3.7 2.9-.5.6-.8 1.3-1 2.1-.2.7-.2 1.4.1 2 .8 1.1 2 .6 2.7-.2z" fill="#021b79" class="color000000 svgShape"></path></g><g fill="#021b79" class="color000000 svgShape"><path d="M102 18.3C93.7 12 83.9 8.2 73.6 7.4c-10.2-.9-20.4 1.2-29.4 6.1-8.8 4.8-15.7 12.7-20.3 21.5-4.8 8.9-6.8 19-5.7 29 1.4 10.2 6.2 19.6 13.7 26.6 8 7.4 18.5 11.7 29.4 12 10 .4 20-2.1 28.7-7.2 8.9-5.2 16.1-13.1 20.4-22.5 3.6-8.5 5.1-17.7 4.2-26.9-.7-8.4-3.1-17.2-8.5-23.8-1.3-1.4-2.6-2.8-4.1-3.9-.3-.3-.8-.1-1.1.1-.5.3-.9.8-1.2 1.3-.4.6-1.1 2.1-.3 2.7 6.2 4.8 9.5 12.7 11 20.2.4 2.1.7 4.3.9 6.4.1 1.1.1 2.2.2 3.3s0 1.9 0 3c-.1 2.2-.3 4.3-.6 6.4-.2 1-.3 2.1-.6 3.1.1-.5-.1.3-.1.4l-.2.8c-.1.5-.3 1-.4 1.6-.3 1-.6 1.9-.9 2.9l-.1.4c-.1.2 0 .4 0 0-.1.2-.1.4-.2.6-.2.5-.5 1.1-.7 1.6s-.5 1.1-.8 1.6c-.1.3-.3.5-.4.8-.2.4 0 0 0-.1-.1.2-.2.3-.3.5-.6 1.1-1.2 2.1-1.9 3.1-.2.2-.3.4-.5.7.1-.4.2-.3.1-.1l-.3.4c-.4.5-.7 1-1.1 1.5-.4.5-.7.9-1.1 1.3-.2.2-.3.4-.5.5s-.2.2-.3.3l-.2.2.1-.1c-.8.8-1.6 1.6-2.5 2.4-.4.4-.9.8-1.3 1.1l-.7.5-.4.3-.2.2c.2-.1.2-.1 0 0-1.8 1.4-3.7 2.7-5.7 3.8-1 .6-1.9 1-2.8 1.5s-2.1.9-3.1 1.4c-4.2 1.7-8.6 2.8-13 3.3C60 99.1 49 96.9 40 90.8 31.9 85.3 26 77.3 23 68c-1.4-4.5-2-9.1-1.8-13.8.1-2.4.4-4.7.9-7 0-.1.1-.5 0-.1 0-.1.1-.2.1-.4.1-.3.1-.5.2-.8.1-.6.3-1.2.5-1.8.3-1.1.7-2.2 1.1-3.3.1-.1.1-.3.2-.4 0 .1-.2.5 0 .1s.2-.6.3-.9c.2-.5.5-1.1.7-1.6.5-1.1 1-2.2 1.6-3.2 0 .1-.3.5 0 .1l.2-.3c.1-.3.3-.5.5-.8.3-.5.6-1 1-1.6l.9-1.4.5-.7c.1-.1.3-.5 0 0 .1-.1.2-.3.3-.4l2.1-2.7c.4-.4.7-.8 1.1-1.2l.2-.3.2-.2.2-.2c.1-.1.2-.3.4-.4.8-.8 1.6-1.6 2.5-2.3.4-.4.8-.7 1.2-1l.7-.6c-.1 0-.3.2 0 0l.4-.3c1.8-1.3 3.6-2.5 5.6-3.5l.4-.2c.1 0 .4-.2.1-.1l.6-.3c.6-.3 1.2-.5 1.8-.8 1.1-.5 2.3-.9 3.5-1.3 4.6-1.6 9.4-2.5 14.3-2.6C77.9 11.2 90 15 99.9 22.6c.3.2.8 0 1.1-.2.5-.3.9-.8 1.2-1.3-.2-.7.5-2.2-.2-2.8zM622.9 9.3c-4.9-3.6-11.4-4.1-16.7-1.1-2.8 1.7-5 4.2-6.4 7.1-1.5 2.8-2.1 5.9-1.8 9 .8 6.2 6 10.9 12.3 11 6.4 0 12.3-3.7 14.9-9.6 1.3-2.9 1.7-6.1 1.3-9.3-.3-2.7-1.6-5.3-3.6-7.1-.3-.2-.9 0-1.1.2-.5.3-.9.8-1.2 1.3-.4.6-1.1 2.1-.3 2.7 1.5 1.3 2.4 3.1 2.8 5 .1.6.2 1.1.2 1.7V21.6c0 .6-.1 1.1-.1 1.7 0 .2-.1.5-.1.7s.1-.5 0 0l-.1.5c-.1.3-.2.5-.2.8-.1.4 0-.1 0-.1 0 .1-.1.3-.2.4-.1.1-.1.3-.2.4-.2.4 0 0 .1-.1-.1.3-.3.7-.6 1 .4-.3.2-.2.1-.1l-.3.4-.2.3c-.4.5.2-.2 0 0l-.6.6-.4.4c-.3.3.2-.2-.2.1-.9.7-1.9 1.2-2.9 1.6-1.1.4-2.2.7-3.4.8-2.8.3-5.6-.5-7.9-2.1-2-1.4-3.5-3.5-4.2-5.8-.2-.5-.3-1.1-.4-1.6 0-.3-.1-.6-.1-.9v-.8c0-.6.1-1.2.2-1.7.1-.4 0-.1 0 0 0-.2.1-.4.1-.5s.2-.6.3-.9c.2-.6-.2.5 0-.1l.2-.3c.1-.3.2-.6.4-.8l.2-.4c.1-.1.1-.2.2-.3.3-.5-.3.4 0 0 .2-.2.4-.5.6-.7 0 0 .4-.5.2-.2s.2-.1.2-.2c.2-.2.4-.4.7-.6l.3-.2.1-.1.9-.6.3-.2c.3-.2-.1 0 .2-.1.7-.3 1.4-.6 2.1-.8 1.3-.4 2.7-.5 4.1-.5 2.9.1 5.6 1.1 7.9 2.9.3.2.8 0 1.1-.2.5-.3.9-.8 1.2-1.3 0-.6.8-2.1 0-2.7zM28.8 821c-4.2-3.2-9.9-3.9-14.8-1.7-5.1 2.6-8 8.2-7.1 13.8.6 3.2 2.5 6 5.3 7.7 2.6 1.6 5.6 2.2 8.6 1.8 4.6-.6 8.5-3.5 10.4-7.7 1.9-4.4 1.1-11.2-2.4-13.9z" fill="#021b79" class="color000000 svgShape"></path><path d="M30.1 818.8c-4.9-3.6-11.4-4.1-16.7-1.1-2.8 1.7-5 4.2-6.4 7.1-1.5 2.8-2.1 5.9-1.8 9 .4 2.9 1.7 5.6 3.9 7.6 2.3 2.2 5.3 3.4 8.5 3.4 6.4 0 12.3-3.7 14.9-9.6 1.3-2.9 1.7-6.1 1.3-9.3-.5-2.6-1.5-5.3-3.7-7.1-.3-.2-.9 0-1.1.2-.5.3-.9.8-1.2 1.3-.4.7-1.1 2.1-.3 2.8 1.5 1.3 2.4 3.1 2.8 5 .1.6.2 1.1.2 1.7V831.2c0 .6-.1 1.1-.1 1.7 0 .2-.1.5-.1.7s.1-.5 0 0l-.1.5c-.1.3-.2.5-.2.8-.1.4 0-.1 0-.1 0 .1-.1.3-.2.4-.1.2-.1.3-.2.4-.2.4 0 0 0-.1-.1.4-.3.7-.6 1 .4-.3.2-.2.1-.1s-.2.3-.3.4l-.2.3c-.4.4.2-.2 0 0l-.6.6-.4.3-.1.1c-.9.7-1.9 1.2-2.9 1.6-1.1.4-2.2.7-3.4.8-2.8.2-5.6-.5-7.9-2.1-2-1.4-3.5-3.5-4.2-5.8-.2-.5-.3-1.1-.4-1.6 0-.3-.1-.6-.1-.9v-.8c0-.6.1-1.2.2-1.7.1-.4 0-.1 0 0 0-.2.1-.4.1-.5s.2-.6.3-.9c.2-.6-.2.4 0-.1l.1-.3c.1-.3.2-.6.4-.8-.4.6.1-.2.2-.4l.2-.3c.3-.5-.3.4 0-.1.2-.2.4-.5.6-.7 0 0 .4-.5.1-.2s.1-.2.2-.2l.6-.6.3-.2c-.4.3 0 0 .1-.1l.9-.6.3-.2c.4-.2-.1 0 .2-.1.7-.3 1.4-.6 2.1-.8 1.3-.4 2.7-.5 4.1-.4 2.9.1 5.6 1.1 7.9 2.9.3.2.8 0 1.1-.2.5-.3.9-.8 1.2-1.3.4-.6 1.2-2 .3-2.7zM625.9 47.1c-7.7-5.8-18.1-6.5-26.5-1.8-4.4 2.7-7.9 6.5-10.2 11.1-2.3 4.3-3.3 9.3-2.8 14.1 1.3 9.9 9.6 17.4 19.6 17.5 10.1.4 19.3-6 23.4-15 1.8-4.1 2.6-8.7 2.2-13.1-.3-3.8-1.4-7.9-3.8-10.9-.5-.6-1.2-1.3-1.9-1.9-.5-.3-1.2 0-1.6.2-.7.5-1.3 1.1-1.7 1.8-.6.9-1.6 3-.5 3.8.5.4 1 .8 1.4 1.3l-.3-.3c.9 1.1 1.7 2.3 2.3 3.6.3.7.6 1.4.8 2.1 0 0 .1.3 0 .1s0 .1 0 .1.1.4.1.6c.1.4.2.8.2 1.2l.3 2.4c0 .4.1.8.1 1.1V66v-.1c-.1.8-.1 1.6-.2 2.4 0 .4-.1.7-.1 1.1 0 .2-.1.4-.1.6v.2c-.1.5 0 0 0-.2-.2.7-.4 1.5-.6 2.2 0 .1-.1.1-.1.2-.1.4.3-.7.1-.4-.1.1-.1.3-.2.5-.2.4-.4.9-.6 1.3s.4-.8 0-.1l-.3.5-.4.6-.2.2c-.4.6.1-.2.2-.2-.3.3-.5.6-.7 1l-.4.5-.2.2c-.3.3.6-.6.2-.1s-.6.6-.9.8-.3.3-.5.4-.5.3-.6.5c0 0 .5-.4.2-.2l-.2.2-.5.4c-.4.3-.8.5-1.1.7s-.7.4-1 .6l-.2.1c-.4.2 0 0 .1 0-.2 0-.5.2-.7.3-.8.3-1.5.6-2.3.9-.9.3-1.8.5-2.7.7h.1l-.4.1-.8.1c-.5 0-1 .1-1.6.1-2.3.1-4.5-.2-6.7-.8l.4.1c-3.4-1-6.5-2.9-8.9-5.5l.3.3c-1.8-1.9-3.1-4.2-4-6.6-.1-.2-.1-.4-.2-.6s-.1-.2-.1-.3c.1.3 0 0 0-.1-.1-.5-.2-.9-.3-1.3-.2-.8-.2-1.7-.3-2.5V64v.1c0-.5 0-.9.1-1.3s.1-.7.2-1.1c0-.2.1-.4.1-.6.1-.7-.1.4 0-.1.2-.8.4-1.6.7-2.4.1-.3-.2.4-.1.4s.1-.2.1-.3.1-.3.2-.5c.2-.4.3-.8.5-1.2 0-.1.1-.2.1-.2.2-.4-.4.7-.2.3l.3-.5c.2-.4.4-.7.7-1.1.1-.2.3-.3.4-.5 0 0-.5.7-.3.4l.2-.2c.3-.3.5-.7.8-1l.3-.4.2-.3-.3.3.9-.9c.3-.3.6-.5.9-.8s-.5.3 0 0l.6-.4c.6-.4 1.3-.8 2-1.2l-.2.1c.1 0 .2-.1.2-.1l.6-.3c.4-.2.8-.4 1.3-.5.8-.3 1.6-.5 2.4-.7l.8-.2.3-.1h.1c.5-.1 1-.1 1.4-.2 1-.1 1.9-.1 2.9-.1 2 .1 3.9.4 5.8.9l-.4-.1c2.8.8 5.4 2.1 7.7 3.9.4.3 1.2 0 1.5-.2.7-.5 1.3-1.1 1.7-1.9 1-1 2.1-3 .9-3.9zM81.3 81c-6.8-5.2-15.9-6.3-23.7-2.7-7.6 3.6-13.1 13.1-11.4 22.2 1 5.1 4.1 9.6 8.5 12.4 4.1 2.5 9 3.5 13.9 2.8 7.3-.9 13.6-5.6 16.6-12.3 2.9-7 1.7-18.1-3.9-22.4z" fill="#021b79" class="color000000 svgShape"></path><path d="M82.6 78.9c-7.5-5.7-17.7-6.4-26-1.9-4.1 2.5-7.4 6.1-9.5 10.4-2.2 4.1-3.2 8.9-2.6 13.5 1.3 9.8 9.5 17.1 19.3 17.3 9.7.2 18.5-5.4 22.5-14.1 1.7-3.9 2.4-8.2 2.1-12.5-.3-3.8-1.4-7.8-3.8-10.7-.7-.9-1.3-1.5-2-2-.3-.2-.8 0-1.1.2-.5.3-.9.8-1.2 1.3-.4.6-1.1 2.1-.3 2.8 2.6 2 4 5.4 4.6 8.4.2.9.3 1.8.4 2.8 0 .4.1.9.1 1.3v1.2c0 .9-.1 1.9-.2 2.8-.1.4-.1.8-.2 1.2-.1.4 0 0 0 0 0 .1 0 .2-.1.3s-.1.5-.2.8-.2.8-.4 1.1c-.2.6.2-.4-.1.2-.1.2-.2.5-.3.7s-.2.5-.3.7l-.2.3s.3-.5 0-.1-.5.9-.8 1.3c-.1.1-.1.2-.2.3l.1-.1c-.1.1-.3.4-.5.6s-.3.4-.5.6l-.2.3c-.4.5.2-.2 0 0l-1 1c-.2.2-.4.3-.5.5l-.3.2c-.3.2.4-.3-.1.1-.8.6-1.6 1.1-2.4 1.6l-.6.3c-.3.2-.1.1-.1 0l-.3.1c-.5.2-.9.4-1.4.6-1.8.7-3.6 1.2-5.5 1.4-4.6.5-9.2-.6-13.1-3.1-3.4-2.3-6-5.7-7.3-9.6-.3-.9-.5-1.9-.6-2.9-.1-.5-.1-1-.1-1.5v-1.3c0-1 .2-2 .4-3 0 0 .1-.3 0-.1s0-.1 0-.2l.2-.7c.1-.5.3-1 .5-1.5l.1-.3c.1-.2.2-.5.3-.7l.3-.7.2-.3c0-.1.3-.5.1-.2s.1-.2.2-.4.2-.4.4-.6l.4-.6.2-.3c.3-.5-.2.3 0 0s.6-.8.9-1.1c.2-.2.3-.4.5-.5s.3-.3.1-.1l.2-.2 1-1 .5-.5c.1-.1.3-.2 0 0l.3-.2c.8-.6 1.6-1.1 2.4-1.5.3-.1-.2.1 0 0l.3-.1.7-.3 1.5-.6c1.9-.6 4-1 6-1.1 4.2-.2 8.4.9 12.1 2.9.9.5 1.8 1.1 2.6 1.8.3.2.8 0 1.1-.2.5-.3.9-.8 1.2-1.3.3-.7 1-2.2.2-2.8zM538.4 776.3c-1-3.7-3.2-7-6.4-9.2-3.2-2.2-6.8-3.7-10.5-4.4-7.4-1.5-15.2.2-21.3 4.8-6.2 4.9-10.3 12.1-11.1 20-.7 7.6 2.4 15.1 8.3 20 6.5 5.3 15.8 6.3 23.6 3.7 1.1-.4 2.1-.8 3.1-1.3 1.1-.6 1.9-1.5 2.2-2.7.2-.6.2-2.1-.9-1.6-7.1 3.5-15.9 3.6-22.8-.6-6-3.6-9.9-10-10.3-17-.1-.8-.1-1.5 0-2.3.1-.8.2-1.6.3-2.5 0-.1.2-.7.1-.3 0-.2.1-.3.1-.5.1-.4.2-.9.4-1.3s.2-.8.4-1.1c0 0 .1-.3 0-.1s0-.1.1-.1l.2-.6c.2-.4.3-.8.5-1.2.1-.2.2-.3.2-.5s.1-.2.2-.3c-.1.2-.2.4 0 .1s.4-.7.6-1c.3-.4.5-.7.8-1.1 0 0-.3.4-.1.2l.2-.2c.1-.2.2-.3.4-.5.3-.3.5-.7.8-1l.4-.5.1-.1c.3-.3.6-.6 1-.9s.6-.5.9-.8l.5-.4-.1.1.3-.2c.6-.5 1.3-.9 2-1.3l.5-.3c.1-.1.2-.1.3-.2-.2.1.1 0 .1 0l.3-.2.7-.3c.8-.3 1.6-.6 2.5-.9 6.8-2 14.2-1.2 20.4 2.3 1.6.8 3 1.9 4.3 3.1 1.2 1.3 2.1 2.7 2.8 4.3.4.9.7 1.8 1 2.7.1.4.6.3.9.3.5-.2.9-.6 1.2-1 .6-.8 1-2 .8-3.1zM539.1 837.6c.5.6 1 1.1 1.6 1.6 7.4 6.9 17.1 10.8 27.2 11.1 9.3.4 18.6-2 26.6-6.7 1.7-1.1 3.4-2.2 5-3.5l-36.7-1.5-23.7-1z" fill="#021b79" class="color000000 svgShape"></path><path d="M538.5 838.5c5.8 6.1 13.4 10.2 21.7 11.9 8.6 1.7 17.5 1 25.8-2 4.9-1.8 9.4-4.3 13.5-7.4.2-.2 1.3-1.6.5-1.7l-47.2-2-13.4-.6c-.6 0-1.5 1.7-.8 1.8l47.1 2 13.4.6.5-1.7c-7.1 5.5-15.7 9-24.7 9.9-8.3.9-16.7-.6-24.2-4.2-4.2-2.1-8-4.9-11.2-8.3-.3-.4-1.5 1.1-1 1.7zM592.2 777.2l19.5.7c-.6-.9-1.2-1.8-1.9-2.6-1.1-1.4-2.4-2.7-3.9-3.8-7.6-5.8-16.8-9.3-26.4-10.1-9.5-.8-19 1.2-27.4 5.8-3.9 2.2-7.4 5-10.5 8.3l6.6.2 44 1.5z" fill="#021b79" class="color000000 svgShape"></path><path d="m591.7 778 19.5.7c.5 0 1.3-1.2 1-1.6-1.4-2.2-3.1-4.3-5.1-6-2-1.6-4.1-3.1-6.4-4.3a52.1 52.1 0 0 0-14.4-5.4c-10.3-2.2-21.1-1-30.7 3.3-5.3 2.4-10.1 5.9-14.1 10.2-.2.2-1 1.5-.3 1.5l39.2 1.4 11.3.2c.6 0 1.5-1.7.8-1.7l-39.3-1.4-11.1-.4-.3 1.5c3.5-3.7 7.6-6.8 12.2-9.2 4.6-2.3 9.6-3.8 14.7-4.4 10.1-1.3 20.4.4 29.4 5.1 2.5 1.3 4.8 2.7 7 4.4 2.4 1.8 4.4 4.1 6 6.6l1-1.6-19.5-.7c-.7 0-1.5 1.8-.9 1.8zM592.1 796.3l25.6 1.1v-.1c-.3-4.8-1.4-9.5-3.2-14l-5.7-.2-43.8-1.5-27.6-1c-1.5 2.1-2.9 4.4-4.2 6.7-1.1 2.1-2 4.2-2.8 6.4l13.7.6 48 2z" fill="#021b79" class="color000000 svgShape"></path><path d="m591.7 797.2 25.6 1.1c.6 0 1.1-1 1.1-1.5-.3-4.9-1.4-9.7-3.2-14.3 0-.1-.1-.1-.2-.1l-37-1.3-36.8-1.3-2.7-.1c-.3-.1-.7 0-1 .2-.3.3-.5.6-.7 1-.9 1.3-1.8 2.7-2.6 4.1-1.7 2.8-3.1 5.8-4.2 8.9-.1.2-.1.7.2.7l48 2 13.5.6c.6 0 1.5-1.7.8-1.7l-48-2-13.7-.6.2.7c1.6-4.4 3.9-8.6 6.7-12.5l-.7.4 30 1 30.1 1 16.9.6-.2-.1c1.8 4.5 2.8 9.2 3.1 14l1.1-1.5-25.6-1.1c-.5 0-1.4 1.8-.7 1.8zM592.1 815.4l23.8 1c1.3-4.4 1.9-9 2-13.6l-6.9-.3-48-2-34-1.4c-1.1 4.5-1.4 9.1-1.1 13.6l16.3.7 47.9 2z" fill="#021b79" class="color000000 svgShape"></path><path d="m591.7 816.3 23.8 1c.5 0 .9-.7 1-1.1 1.3-4.5 1.9-9.1 2-13.8 0-.2 0-.4-.2-.5l-34.8-1.4-34.5-1.4-19.6-.8c-.5 0-.9.7-1 1.1-1.1 4.6-1.5 9.3-1.1 14 0 .1.1.3.2.3l25 1 25.1 1 14.1.6c.6-.1 1.5-1.8.8-1.8l-25.1-1.1-25.1-1-14.1-.6.3.3c-.3-4.4 0-8.9 1-13.2l-1 1.1 34.7 1.4 34.6 1.4 19.6.8-.2-.5c-.1 4.5-.7 9-1.9 13.4l1-1.1-23.8-1c-.6.1-1.5 1.9-.8 1.9zM613.9 821.7l-3.1-.1-48-2-34.2-1.4c1.1 5 3.2 9.7 6 13.9l9.5.4 48 2 13.1.5c3.4-3.7 6.3-7.9 8.4-12.5.1-.3.2-.5.3-.8z" fill="#021b79" class="color000000 svgShape"></path><path d="m614.4 820.8-33.2-1.4-33.4-1.4-18.7-.8c-.5 0-1.2 1-1.1 1.5.7 3.1 1.7 6.1 3.1 8.9.7 1.4 1.4 2.7 2.2 4.1l.6.9c.2.3.4.3.8.3l2.7.1 21.2.9 42.1 1.8 2.8.1c.5.1.9.1 1.4 0 .4-.1.7-.6.9-.9 1.2-1.3 2.3-2.7 3.3-4.1 2.1-2.9 3.9-5.9 5.2-9.2.3-.2.5-.8.1-.8-.4-.1-.8.6-.9.8-2 4.7-4.9 9.1-8.4 12.9l.7-.4-27.6-1.2-27.5-1.2-15.6-.6.2.1c-2.8-4.2-4.9-8.9-6-13.8l-1.1 1.5 33.2 1.4 33.5 1.4 18.6.8c.7.1 1.5-1.7.9-1.7zM44.7 495.3c8.9-9.6 14.5-21.7 16.1-34.7 1.4-11.5-.7-23.2-5.9-33.6-2.9-5.7-6.7-10.8-11.4-15.2-.4-.3-1.2 0-1.5.2-.6.4-1.1.9-1.5 1.5-.4.6-.8 1.3-1 2-.1.5-.4 1.4 0 1.9 3.6 4.9 8.1 9.2 13.7 11.7 4.8 2.1 10 2.8 15.2 2.1 5.4-.7 10.7-2.4 15.5-4.8 5.2-2.6 10.3-5.6 15-9 4.7-3.3 9.2-6.9 13.6-10.6l1.5-1.2c1.2-1 1.9-2.5 2-4 .1-.4-.1-.9-.4-1.2-.5-.3-1.1 0-1.5.3-6 3.4-11.2 8.2-15 14-3.2 5-5.1 10.7-5.4 16.6-.2 5.6.8 11.2 2.8 16.4 2.1 5.5 4.9 10.6 8.3 15.3 3.6 5.1 7.8 9.7 12.3 14l1.7 1.5 3.7-5.9c-3.6-3-7.6-5.5-11.9-7.5-4.6-2.1-9.4-3.6-14.4-4.4-5.1-.8-10.3-.7-15.3.3-5.4 1.1-10.6 3.2-15.2 6.3-5.8 4-10.7 8.9-14.7 14.7-.5.7-1 1.5-1.5 2.2-.5.7-.8 1.5-.9 2.3 0 .5 0 1.2.4 1.5 1.2.7 2.8-1.4 3.2-2.1.3-.5.7-1 1-1.5l.5-.7c-.7 1 0 0 .2-.2l2.1-2.7 1-1.1.5-.6c.1-.1.2-.2.2-.3l-.1.1c.7-.8 1.5-1.5 2.2-2.2s1.5-1.4 2.3-2l.3-.2c.4-.3-.2.1-.2.2l.6-.5 1.2-.9c1.5-1.1 3.2-2.1 4.8-2.9.4-.2-.1.1-.2.1.1-.1.2-.1.4-.2l.6-.3c.4-.2.9-.4 1.3-.6.8-.3 1.6-.7 2.5-1 1.7-.6 3.3-1 5-1.4l.6-.1.4-.1c.3-.1-.4 0-.1 0l1.4-.2c.8-.1 1.7-.2 2.5-.3 1.7-.1 3.4-.2 5.1-.1 3.8.2 7.5.8 11.1 1.8l-.4-.1c5.6 1.6 11 4.2 15.8 7.5 1.3.9 2.6 1.9 3.8 2.9.4.3 1.2 0 1.5-.3.7-.5 1.3-1.1 1.7-1.8.6-1 1.5-2.9.5-3.8-2.6-2.3-5-4.7-7.3-7.3l.3.3c-6.8-7.5-12.7-16.2-15.6-25.9 0-.1-.3-.9-.1-.3l-.2-.9c-.2-.6-.3-1.2-.4-1.7l-.6-3.3c-.2-1.1-.2-2.3-.3-3.4v-1.1.1c0-.5 0-1.1.1-1.7.1-1.1.2-2.2.4-3.3 0-.1 0-.2.1-.3.1-.5-.2.7 0 .2.1-.3.1-.5.2-.8.1-.5.3-1.1.5-1.6l.3-.8c.1-.3.5-1.1 0 0 .2-.5.4-1.1.7-1.6.1-.3.2-.5.4-.8s.7-1.3 0-.1l.9-1.5c.2-.3.3-.5.5-.8s.2-.2.3-.4c.5-.7-.5.6-.1.1s.8-1.1 1.2-1.6l.6-.7c.2-.2 1.1-1.2.3-.3l1.5-1.5c.5-.5 1.1-1 1.7-1.5l.4-.3c.2-.1.8-.6.1-.1.3-.2.6-.5.9-.7 1.4-1 2.8-2 4.3-2.8v-5c-1.5 1.3-3 2.5-4.6 3.8l-2.4 1.9-.5.4c-.1 0-.5.4-.1.1s0 0-.1.1l-1.3 1c-3.4 2.6-6.9 5.1-10.5 7.4-1.8 1.1-3.6 2.2-5.4 3.2l-1.4.8-.7.3c-.4.2.1 0 .1-.1-.1.1-.3.2-.5.2-.9.5-1.9.9-2.8 1.3-1.8.8-3.7 1.5-5.7 2.1-1 .3-1.9.6-2.9.8l-1.4.3-.7.1c.5-.1-.2 0-.4.1-4.2.7-8.5.5-12.6-.7l.4.1c-5.4-1.7-10.1-4.8-13.8-9.1l.3.3c-1-1.1-1.9-2.3-2.8-3.5l-4 5.6c1 1 2 2 2.9 3l-.3-.3c3.5 3.9 6.4 8.2 8.6 12.9 1.1 2.3 2.1 4.7 2.9 7.2.1.3.2.5.2.8l.1.5c.2.5-.1-.4 0 .2s.4 1.3.5 2c.3 1.3.6 2.5.8 3.8.4 2.6.7 5.2.8 7.8v2.4c0 .6 0-.4 0 0v1.1c0 1.3-.1 2.6-.3 3.9s-.3 2.6-.6 3.9c-.1.3-.1.7-.2 1s-.3 1.2 0 .3c-.2.7-.3 1.4-.5 2-.3 1.3-.7 2.6-1.1 3.9l-.6 1.8c.4-1.1 0 .1-.1.4l-.4 1c-.6 1.4-1.3 2.8-2 4.2-.1.2-.5.8.1-.2l-.3.6c-.2.3-.4.7-.6 1-.4.7-.8 1.4-1.2 2s-.9 1.3-1.4 2 .5-.7.1-.1l-.3.5c-.3.3-.5.7-.8 1-1 1.3-2.1 2.6-3.2 3.8-.6.7-1 1.5-1.3 2.4-.2.6-.2 1.3 0 1.9 1.1 1.3 2.8-.4 3.3-.9zM76.7 369.2c5.5-6 9-13.5 10.1-21.6.9-7-.3-14.1-3.5-20.3-1.7-3.4-4.1-6.5-6.9-9.2-.4-.3-1.2.1-1.5.2-.6.4-1.1.9-1.5 1.5-.5.6-.8 1.3-1 2-.1.5-.4 1.4 0 1.9 2.1 3 4.9 5.5 8.2 7.1 2.9 1.2 6 1.7 9.1 1.3 6.8-.8 13-4.4 18.4-8.3 3.2-2.2 6.2-4.7 9.1-7.2 1.2-1 1.9-2.5 2-4 .1-.4-.1-.9-.5-1.2-.5-.3-1.1 0-1.5.3-7 4.2-12.7 11.3-13.1 19.7-.4 7 2.6 13.7 6.6 19.3 2.5 3.4 5.3 6.5 8.4 9.3l3.7-5.9c-4.5-3.7-9.9-6.1-15.7-7-6.5-1-13.1.5-18.5 4.1-4 2.8-7.5 6.5-10.1 10.6-.5.7-.8 1.5-.9 2.3 0 .5 0 1.2.5 1.5 1.2.7 2.8-1.4 3.3-2.1.2-.3.4-.6.6-.8s.6-.8-.1.1l.2-.3c.4-.6.9-1.1 1.3-1.7l.6-.7c.2-.2 1-.9.2-.2.5-.4.9-.9 1.4-1.4s.9-.8 1.3-1.1c.2-.1.4-.3-.2.2.1-.1.3-.2.4-.3l.7-.5c.4-.3.9-.6 1.4-.9.5-.2 1-.5 1.4-.8-.4.4-.2.1 0 0l.3-.1.7-.3 1.5-.6c1-.3 2-.6 3-.8l.3-.1c.5-.1-.4.1 0 0l.7-.1c.5-.1 1-.1 1.4-.1 1-.1 2-.1 3 0 2.2.1 4.4.5 6.5 1.1l-.4-.1c4.2 1.2 8.1 3.3 11.5 6.1.4.3 1.2 0 1.5-.2.7-.5 1.3-1.1 1.7-1.8.6-1 1.5-2.9.5-3.8-1.5-1.3-2.9-2.8-4.3-4.3l.3.3c-4.1-4.3-7.2-9.4-9.1-15l-.2-.5c-.1-.2 0 .1 0 .1s-.1-.2-.1-.3c-.1-.3-.2-.7-.2-1-.1-.6-.3-1.3-.3-1.9s-.2-1.3-.2-1.9v-.9.2-.8c0-.6.1-1.3.2-1.9 0-.1 0-.3.1-.4.1-.3-.2.7-.1.3v-.2c.1-.3.2-.6.3-1s.2-.6.3-.9-.2.5-.2.5l.1-.3c.1-.2.1-.3.2-.5.1-.3.3-.6.5-.9s-.5.8-.2.3c.1-.2.2-.3.3-.5l.3-.5c.1-.1.3-.4.3-.5s-.5.7-.3.5l.2-.3c.1-.2.2-.3.3-.4l.4-.5c.1-.1.6-.7.2-.2s.1-.1.2-.2l.5-.5c.3-.3.6-.6 1-.9.1-.1.7-.5.3-.3s.2-.1.3-.2c.8-.6 1.7-1.2 2.5-1.7l.1-5c-.9.7-1.8 1.5-2.7 2.2l-1.4 1.2c-.2.1-1 .7-.2.1-.3.2-.5.4-.8.6-2 1.5-4 3-6.1 4.3-1.1.7-2.1 1.3-3.2 1.9l-.9.5-.3.2c-.5.3-1.1.5-1.7.8-1.1.5-2.2.9-3.3 1.2-.5.2-1.1.3-1.7.5l-.8.2-.5.1c.5-.1 0 0-.1 0-2.5.4-5 .3-7.4-.4l.4.1c-3.2-1-6-2.8-8.1-5.3l.3.3c-.6-.7-1.1-1.3-1.6-2l-4 5.6 1.8 1.8-.3-.3c2 2.3 3.7 4.8 5 7.5.7 1.4 1.2 2.8 1.7 4.2l.3 1c-.1-.4 0 .1 0 .2s.1.4.2.6c.2.7.3 1.5.5 2.2.3 1.5.4 3 .5 4.6v1.6c-.1-.7 0 0 0 .2 0 .8-.1 1.5-.2 2.3s-.2 1.5-.3 2.3l-.1.5c0 .1-.2.8-.1.3s0 .1 0 .2-.1.5-.2.7c-.2.8-.4 1.5-.7 2.3-.1.3-.2.7-.3 1-.2.5.3-.7 0 0-.1.2-.2.4-.2.6-.4.8-.8 1.7-1.2 2.5-.3.7.3-.6 0-.1l-.4.6c-.2.4-.5.8-.7 1.2-.2.4-.5.8-.8 1.2 0 0 .5-.7.3-.4l-.2.3-.5.6c-.6.8-1.3 1.5-1.9 2.3-.6.7-1 1.5-1.3 2.4-.2.6-.2 1.3 0 1.9.8 1.3 2.5-.4 3-1l.4-.3zM4.2 392.8c4.4-4.8 7.3-10.9 8.2-17.4.7-5.5-.2-11.1-2.7-16.1-1.4-2.7-3.2-5.2-5.5-7.3-.4-.3-1.2 0-1.5.2-.6.4-1.1.9-1.5 1.5-.4.6-.8 1.3-1 2-.1.5-.4 1.4 0 1.9 1.6 2.4 3.9 4.3 6.5 5.6 2.3 1 4.8 1.3 7.2 1 5.4-.7 10.2-3.5 14.6-6.5 2.5-1.8 4.9-3.7 7.3-5.7 1.2-1 1.9-2.5 2-4 .1-.4-.1-.9-.5-1.2-.5-.3-1.1 0-1.5.2-5.7 3.4-10.4 9.3-10.8 16.1-.3 5.6 1.9 10.9 5.1 15.4 1.9 2.7 4.2 5.2 6.6 7.4l3.7-5.9c-3.6-2.9-7.9-4.8-12.5-5.5-5.1-.7-10.3.5-14.6 3.4-3.3 2.3-6.1 5.3-8.2 8.7-.5.7-.8 1.5-.9 2.3 0 .5 0 1.2.5 1.5 1.2.7 2.8-1.4 3.2-2.1l.5-.7c.1-.1.1-.2.2-.3s-.5.7-.2.3.6-.8 1-1.2l.5-.6c.2-.2.8-.7 0 0 .4-.3.7-.7 1-1s.7-.6 1-.9c.2-.1.4-.2-.2.2l.3-.2.5-.4c.4-.2.7-.5 1.1-.7l.5-.3c.1-.1.7-.4.4-.2s.2-.1.3-.1l.6-.2c.4-.2.8-.3 1.2-.5.7-.3 1.5-.5 2.3-.6.2 0 .5-.1.1 0l.6-.1c.4-.1.8-.1 1.2-.1h2.3c1.7.1 3.4.4 5.1.8l-.4-.1c3.3 1 6.3 2.6 9 4.8.4.3 1.2 0 1.5-.2.7-.5 1.3-1.1 1.7-1.8.6-1 1.5-2.9.5-3.8-1.2-1.1-2.3-2.2-3.4-3.3l.3.3c-3.2-3.3-5.6-7.3-7.1-11.7l-.1-.3c-.2-.5.1.4 0-.1-.1-.2-.1-.5-.2-.7-.1-.5-.2-1-.3-1.6s-.1-1-.1-1.4v-.7.1-.4c0-.5.1-.9.1-1.4 0-.3.3-1 0-.1.1-.3.1-.5.2-.8s.2-.4.2-.7c-.3 1.1-.1.3 0 0s.2-.4.3-.7c.3-.6-.5.8-.2.3l.2-.4c.2-.3.3-.5.5-.8-.7 1.1-.1.2.1-.1s.4-.5.6-.7c-.8.9 0 0 .2-.2l.8-.7.3-.2-.2.1c.1-.1.2-.2.3-.2.6-.5 1.3-.9 1.9-1.3l.1-5-2 1.7-1.1.9-.3.2c-.3.2.5-.4.2-.2l-.7.5c-1.5 1.2-3.1 2.3-4.8 3.4-.8.5-1.6 1-2.5 1.5l-.6.3-.3.2s.5-.2.1-.1l-1.4.6c-.8.4-1.7.7-2.6 1l-1.2.3-.7.2-.3.1c-.2 0 .4 0 0 0-1.9.3-3.9.2-5.8-.3l.4.1c-2.5-.8-4.7-2.2-6.4-4.2l.3.3c-.4-.5-.9-1-1.3-1.6l-4 5.6 1.3 1.3-.3-.3c1.6 1.7 2.9 3.7 3.9 5.8.5 1.1 1 2.1 1.3 3.3.1.3.2.5.2.8-.1-.5 0 .1 0 .2l.1.3c.1.6.3 1.2.4 1.8.2 1.2.4 2.4.4 3.5V376.1c0 .4 0-.6 0 0s0 1.3-.1 1.9-.1 1.2-.2 1.7c0 .3-.1.6-.2.8-.1.5 0-.2 0-.2-.1.2-.1.4-.2.7-.1.6-.3 1.1-.5 1.7-.1.3-.2.6-.3.8-.2.5.1-.3.1-.3-.1.2-.2.5-.3.7-.2.6-.5 1.2-.8 1.8-.1.2-.5.8.1-.2-.1.2-.2.3-.3.5l-.6.9-.6.9c.7-1 0 .1-.2.3l-1.5 1.8c-.6.7-1 1.5-1.3 2.4-.2.6-.2 1.3 0 1.9.8 1.3 2.5-.4 3-1l.8-.4zM527.4 589.2c8.9-6.2 16.2-14.6 21.1-24.3 4.9-9.3 7.5-19.6 7.6-30.1.1-5.7-.6-11.3-2.2-16.8-.1-.5-.3-.9-.9-1-.6.1-1.2.4-1.7.8-.7.6-1.2 1.4-1.6 2.2-.4.7-.5 1.4-.5 2.2 1.3 4.7 2.1 9.5 2.1 14.4v3.2c0 1.2-.1 2.4-.2 3.6s-.3 2.4-.5 3.6c-.1.6-.2 1.1-.3 1.7l-.2.8c0 .2-.1.4-.1.5-.1.5.1-.6 0 0-.5 2.3-1.2 4.6-1.9 6.9-.2.6-.4 1.1-.6 1.7-.1.2-.2.6.1-.3l-.2.4c-.1.3-.2.6-.4.9-.5 1.1-.9 2.2-1.4 3.3-.3.5-.5 1.1-.8 1.6l-.4.8c0 .1-.1.2-.2.3-.3.6.4-.7.1-.2-.6 1-1.2 2.1-1.8 3.1-.3.5-.6 1-1 1.5l-.5.7c-.1.1-.1.2-.2.3l-.1.2c.4-.6-.2.2-.3.3l-.5.7-1.2 1.5c-.8 1-1.7 2-2.6 3l.2-.2-.3.5-.6.6c-.5.5-1 1-1.5 1.4-1 .9-2 1.8-3 2.6l-.3.3.2-.2-.3.2c-.2.2-.5.4-.7.5-.6.4-1.2.8-1.8 1.3-1.4 1-2.4 2.5-2.6 4.2 0 .5 0 1.2.4 1.5.6.3 1.2.2 1.6-.2zM545.7 602.4c10.8-.5 21.3-4.1 30-10.5 9.4-7 16.5-16.6 20.5-27.6 2.1-5.7 3.2-11.8 3.3-17.9 0-.5.1-1.2-.4-1.5-.5-.2-1.1-.1-1.5.2-.7.5-1.3 1.1-1.7 1.8-.5.7-.8 1.5-.9 2.3 0 2.5-.3 5.1-.7 7.6-.1.6-.2 1.1-.3 1.7 0 .2-.1.3-.1.5-.1.4.2-.7 0 0-.1.3-.2.7-.2 1-.3 1.2-.6 2.4-1 3.6-.2.6-.4 1.2-.6 1.7-.1.2-.5 1.2-.1.3-.2.3-.2.6-.4 1-.5 1.2-1 2.4-1.6 3.5-.2.5-.5 1-.8 1.5s.5-.8.1-.2l-.2.4-.5.9c-.7 1.1-1.3 2.2-2.1 3.3l-.2.3c-.3.5.2-.2.2-.3-.2.3-.4.5-.6.8-.4.5-.7 1-1.1 1.4s-.8 1-1.2 1.4c-.2.3-.5.5-.7.8s-1 1-.2.3c-.9.9-1.8 1.8-2.7 2.6-.5.4-.9.8-1.4 1.2l-.7.6-.3.2c-.1.1-.7.4 0 0-1 .7-2 1.5-3 2.2s-2.1 1.3-3.2 2c-.5.3-1.1.6-1.6.9l-.4.2c-.6.3.3-.2-.1 0l-1 .5c-1.1.5-2.2 1-3.4 1.4-2.6 1-5.4 1.8-8.2 2.4l-1 .2-.4.1h-.3c-.7.1-1.5.2-2.2.3-1.4.2-2.8.3-4.2.3s-2.7 1.8-3.3 3c-.3.7-1.1 3.2.4 3.1v.5z" fill="#021b79" class="color000000 svgShape"></path></g></svg>