<svg xmlns="http://www.w3.org/2000/svg" xmlns:xlink="http://www.w3.org/1999/xlink" enable-background="new 0 0 850 850" viewBox="0 0 850 850" id="Girlisexplainingtheconceptofcreditcard"><g fill="#000000" class="color000000 svgShape"><g fill="#000000" class="color000000 svgShape"><g fill="#000000" class="color000000 svgShape"><g fill="#000000" class="color000000 svgShape"><g fill="#000000" class="color000000 svgShape"><g fill="#000000" class="color000000 svgShape"><path fill="#7bbdff" d="M460.3,272.18c-28.62,0-51.9-23.28-51.9-51.9c0-28.62,23.28-51.9,51.9-51.9s51.9,23.28,51.9,51.9
							C512.2,248.89,488.92,272.18,460.3,272.18z M460.3,195.3c-13.77,0-24.98,11.21-24.98,24.98c0,13.77,11.21,24.98,24.98,24.98
							c13.77,0,24.98-11.21,24.98-24.98C485.29,206.5,474.08,195.3,460.3,195.3z" class="colorffdc7b svgShape"></path></g></g><g fill="#000000" class="color000000 svgShape"><g fill="#000000" class="color000000 svgShape"><g fill="#000000" class="color000000 svgShape"><path fill="#7bbdff" d="M475.43,181.84h-28.54v-27.19c0-2.11,1.71-3.82,3.82-3.82h20.91c2.11,0,3.82,1.71,3.82,3.82V181.84z" class="colorffdc7b svgShape"></path></g></g><g fill="#000000" class="color000000 svgShape"><g fill="#000000" class="color000000 svgShape"><path fill="#ffffff" d="M471.61,289.72H450.7c-2.11,0-3.82-1.71-3.82-3.82v-27.19h28.54v27.19
								C475.43,288.01,473.72,289.72,471.61,289.72z" class="colorffffff svgShape"></path></g></g></g><g fill="#000000" class="color000000 svgShape"><g fill="#000000" class="color000000 svgShape"><g fill="#000000" class="color000000 svgShape"><path fill="#7bbdff" d="M422.72,206.01v28.54h-27.19c-2.11,0-3.82-1.71-3.82-3.82v-20.91c0-2.11,1.71-3.82,3.82-3.82H422.72z" class="colorffdc7b svgShape"></path></g></g><g fill="#000000" class="color000000 svgShape"><g fill="#000000" class="color000000 svgShape"><path fill="#7bbdff" d="M530.6,209.82v20.91c0,2.11-1.71,3.82-3.82,3.82H499.6v-28.54h27.19
								C528.89,206.01,530.6,207.72,530.6,209.82z" class="colorffdc7b svgShape"></path></g></g></g><g fill="#000000" class="color000000 svgShape"><g fill="#000000" class="color000000 svgShape"><g fill="#000000" class="color000000 svgShape"><path fill="#7bbdff" d="M444.07,183.01l-20.18,20.18l-19.22-19.22c-1.49-1.49-1.49-3.91,0-5.4l14.78-14.78
								c1.49-1.49,3.91-1.49,5.4,0L444.07,183.01z" class="colorffdc7b svgShape"></path></g></g><g fill="#000000" class="color000000 svgShape"><g fill="#000000" class="color000000 svgShape"><path fill="#ffffff" d="M517.65,261.99l-14.78,14.78c-1.49,1.49-3.91,1.49-5.4,0l-19.22-19.22l20.18-20.18l19.22,19.22
								C519.14,258.08,519.14,260.5,517.65,261.99z" class="colorffffff svgShape"></path></g></g></g><g fill="#000000" class="color000000 svgShape"><g fill="#000000" class="color000000 svgShape"><g fill="#000000" class="color000000 svgShape"><path fill="#7bbdff" d="M498.43,203.19l-20.18-20.18l19.22-19.22c1.49-1.49,3.91-1.49,5.4,0l14.78,14.78
								c1.49,1.49,1.49,3.91,0,5.4L498.43,203.19z" class="colorffdc7b svgShape"></path></g></g><g fill="#000000" class="color000000 svgShape"><g fill="#000000" class="color000000 svgShape"><path fill="#ffffff" d="M419.45,276.77l-14.78-14.78c-1.49-1.49-1.49-3.91,0-5.4l19.22-19.22l20.18,20.18l-19.22,19.22
								C423.35,278.26,420.94,278.26,419.45,276.77z" class="colorffffff svgShape"></path></g></g></g></g><g fill="#000000" class="color000000 svgShape"><g fill="#000000" class="color000000 svgShape"><g fill="#000000" class="color000000 svgShape"><g fill="#000000" class="color000000 svgShape"><g fill="#000000" class="color000000 svgShape"><g fill="#000000" class="color000000 svgShape"><path fill="#88c2fc" d="M375.43,696.08H527.9c19.46,0,35.24-15.78,35.24-35.24V255.06c0-19.46-15.78-35.24-35.24-35.24H375.43
										c-19.46,0-35.24,15.78-35.24,35.24v405.78C340.2,680.31,355.97,696.08,375.43,696.08z" class="color8891fc svgShape"></path></g></g><g fill="#000000" class="color000000 svgShape"><g fill="#000000" class="color000000 svgShape"><path fill="#ffffff" d="M375.22,685.41h152.89c13.4,0,24.26-10.86,24.26-24.26V256.99c0-13.4-10.86-24.26-24.26-24.26H375.22
										c-13.4,0-24.26,10.86-24.26,24.26v404.16C350.97,674.55,361.83,685.41,375.22,685.41z" class="colorffffff svgShape"></path></g></g><g fill="#000000" class="color000000 svgShape"><g fill="#000000" class="color000000 svgShape"><path fill="#88c2fc" d="M399.68,244.65h95.69c3.62,0,6.55-2.93,6.55-6.55v-10.69H393.12v10.69
										C393.12,241.71,396.06,244.65,399.68,244.65z" class="color8891fc svgShape"></path></g></g><g fill="#000000" class="color000000 svgShape"><g fill="#000000" class="color000000 svgShape"><path fill="#ffffff" d="M473.83,232.95h-58.48c-0.13,0-0.23-0.1-0.23-0.23s0.1-0.23,0.23-0.23h58.48
										c0.13,0,0.23,0.1,0.23,0.23S473.96,232.95,473.83,232.95z" class="colorffffff svgShape"></path></g></g></g></g></g></g><g fill="#000000" class="color000000 svgShape"><g fill="#000000" class="color000000 svgShape"><g fill="#000000" class="color000000 svgShape"><g fill="#000000" class="color000000 svgShape"><path fill="#b8dbff" d="M508.39,297.56H384.34c-1.5,0-2.72-1.22-2.72-2.72l0,0c0-1.5,1.22-2.72,2.72-2.72h124.05
								c1.5,0,2.72,1.22,2.72,2.72l0,0C511.11,296.34,509.89,297.56,508.39,297.56z" class="colorb8bdff svgShape"></path></g></g><g fill="#000000" class="color000000 svgShape"><g fill="#000000" class="color000000 svgShape"><path fill="#b8dbff" d="M436.47,315.1h-52.13c-1.5,0-2.72-1.22-2.72-2.72l0,0c0-1.5,1.22-2.72,2.72-2.72h52.13
								c1.5,0,2.72,1.22,2.72,2.72l0,0C439.19,313.88,437.97,315.1,436.47,315.1z" class="colorb8bdff svgShape"></path></g></g></g><g fill="#000000" class="color000000 svgShape"><g fill="#000000" class="color000000 svgShape"><g fill="#000000" class="color000000 svgShape"><path fill="#b8dbff" d="M508.39,607.28H384.34c-1.5,0-2.72-1.22-2.72-2.72l0,0c0-1.5,1.22-2.72,2.72-2.72h124.05
								c1.5,0,2.72,1.22,2.72,2.72l0,0C511.11,606.06,509.89,607.28,508.39,607.28z" class="colorb8bdff svgShape"></path></g></g></g></g></g><g fill="#000000" class="color000000 svgShape"><g fill="#000000" class="color000000 svgShape"><g fill="#000000" class="color000000 svgShape"><g fill="#000000" class="color000000 svgShape"><path fill="#204bef" d="M552.58,539.91H285.36c-8.85,0-16.03-7.18-16.03-16.03V371.1c0-8.85,7.18-16.03,16.03-16.03h267.22
							V539.91z" class="colorefb920 svgShape"></path></g></g><g fill="#000000" class="color000000 svgShape"><g fill="#000000" class="color000000 svgShape"><g fill="#000000" class="color000000 svgShape"><g fill="#000000" class="color000000 svgShape"><rect width="168.26" height="8.68" x="295.62" y="390.31" fill="#ffffff" class="colorffffff svgShape"></rect></g></g></g><g fill="#000000" class="color000000 svgShape"><g fill="#000000" class="color000000 svgShape"><g fill="#000000" class="color000000 svgShape"><rect width="56.15" height="8.68" x="295.62" y="476.73" fill="#ffffff" class="colorffffff svgShape"></rect></g></g><g fill="#000000" class="color000000 svgShape"><g fill="#000000" class="color000000 svgShape"><rect width="56.15" height="8.68" x="360.93" y="476.73" fill="#ffffff" class="colorffffff svgShape"></rect></g></g><g fill="#000000" class="color000000 svgShape"><g fill="#000000" class="color000000 svgShape"><rect width="101.26" height="8.68" x="426.76" y="476.73" fill="#ffffff" class="colorffffff svgShape"></rect></g></g><g fill="#000000" class="color000000 svgShape"><g fill="#000000" class="color000000 svgShape"><rect width="99.81" height="8.68" x="295.62" y="501.12" fill="#ffffff" class="colorffffff svgShape"></rect></g></g><g fill="#000000" class="color000000 svgShape"><g fill="#000000" class="color000000 svgShape"><rect width="30.73" height="8.68" x="404.02" y="501.12" fill="#ffffff" class="colorffffff svgShape"></rect></g></g></g><g fill="#000000" class="color000000 svgShape"><g fill="#000000" class="color000000 svgShape"><g fill="#000000" class="color000000 svgShape"><path fill="#ffffff" d="M342.18,454.43H301.1c-3.02,0-5.47-2.45-5.47-5.47v-22.89c0-3.02,2.45-5.47,5.47-5.47h41.08
									c3.02,0,5.47,2.45,5.47,5.47v22.89C347.65,451.98,345.2,454.43,342.18,454.43z" class="colorffffff svgShape"></path></g></g><g fill="#000000" class="color000000 svgShape"><g fill="#000000" class="color000000 svgShape"><path fill="#7bbdff" d="M321.75,446.48h-31.99v-17.92h31.99c4.94,0,8.96,4.02,8.96,8.96S326.69,446.48,321.75,446.48z
									 M291.93,444.31h29.82c3.75,0,6.79-3.05,6.79-6.8s-3.05-6.8-6.79-6.8h-29.82V444.31z" class="colorffdc7b svgShape"></path></g></g><g fill="#000000" class="color000000 svgShape"><g fill="#000000" class="color000000 svgShape"><rect width="22.09" height="2.17" x="329.63" y="436.43" fill="#7bbdff" class="colorffdc7b svgShape"></rect></g></g></g></g></g></g></g><g fill="#000000" class="color000000 svgShape"><g fill="#000000" class="color000000 svgShape"><g fill="#000000" class="color000000 svgShape"><g fill="#000000" class="color000000 svgShape"><path fill="#7bbdff" d="M325.47,260.68h-77.22v-39.07c0-3.24,2.63-5.86,5.86-5.86h71.35c3.24,0,5.86,2.63,5.86,5.86v33.2
						C331.33,258.05,328.71,260.68,325.47,260.68z" class="colorffdc7b svgShape"></path></g></g><g fill="#000000" class="color000000 svgShape"><g fill="#000000" class="color000000 svgShape"><polygon fill="#7bbdff" points="248.25 251.38 248.19 271.23 265.14 251.43" class="colorffdc7b svgShape"></polygon></g></g><g fill="#000000" class="color000000 svgShape"><g fill="#000000" class="color000000 svgShape"><g fill="#000000" class="color000000 svgShape"><path fill="#ffffff" d="M300.82,237.7c-0.01,1.89,1.52,3.43,3.41,3.43c1.89,0.01,3.43-1.52,3.43-3.41
							c0.01-1.89-1.52-3.43-3.41-3.43C302.36,234.28,300.83,235.81,300.82,237.7z" class="colorffffff svgShape"></path></g></g><g fill="#000000" class="color000000 svgShape"><g fill="#000000" class="color000000 svgShape"><path fill="#ffffff" d="M286.14,237.65c-0.01,1.89,1.52,3.43,3.41,3.43c1.89,0.01,3.43-1.52,3.43-3.41
							c0.01-1.89-1.52-3.43-3.41-3.43C287.69,234.23,286.15,235.76,286.14,237.65z" class="colorffffff svgShape"></path></g></g><g fill="#000000" class="color000000 svgShape"><g fill="#000000" class="color000000 svgShape"><path fill="#ffffff" d="M271.47,237.61c-0.01,1.89,1.52,3.43,3.41,3.43c1.89,0.01,3.43-1.52,3.43-3.41
							c0.01-1.89-1.52-3.43-3.41-3.43C273.01,234.19,271.47,235.72,271.47,237.61z" class="colorffffff svgShape"></path></g></g></g></g></g><g fill="#000000" class="color000000 svgShape"><g fill="#000000" class="color000000 svgShape"><g fill="#000000" class="color000000 svgShape"><circle cx="668.31" cy="209.18" r="42.85" fill="#345efa" transform="rotate(-80.846 668.299 209.17)" class="colorfacc34 svgShape"></circle></g></g><g fill="#000000" class="color000000 svgShape"><g fill="#000000" class="color000000 svgShape"><path fill="#ffffff" d="M673.01,207.82l-7.32-2.8c-1.29-0.5-2.15-1.72-2.15-3.08c0-0.86,0.36-1.72,0.93-2.3
					c0.65-0.65,1.43-0.93,2.37-0.93h2.87c1.51,0,2.73,0.93,3.16,2.37c0.43,1.58,2.08,2.44,3.66,2.01c1.58-0.43,2.51-2.08,2.01-3.66
					c-0.93-3.44-3.87-5.95-7.32-6.53v-2.44c0-1.65-1.29-2.94-2.94-2.94c-1.65,0-2.94,1.29-2.94,2.94v2.51
					c-1.86,0.29-3.59,1.22-4.95,2.51c-1.72,1.72-2.65,4.09-2.65,6.46c0,3.73,2.37,7.17,5.88,8.54l7.32,2.8
					c1.29,0.5,2.15,1.72,2.15,3.08c0,1.79-1.51,3.3-3.3,3.3h-2.87c-1.51,0-2.73-0.93-3.16-2.37c-0.43-1.58-2.08-2.51-3.66-2.01
					c-1.58,0.43-2.51,2.08-2.01,3.66c0.93,3.44,3.87,5.95,7.24,6.53v2.44c0,1.65,1.29,2.94,2.94,2.94c1.65,0,2.94-1.29,2.94-2.94
					v-2.44c4.3-0.72,7.68-4.45,7.68-9.04C678.89,212.63,676.59,209.26,673.01,207.82z" class="colorffffff svgShape"></path></g></g></g><g fill="#000000" class="color000000 svgShape"><g fill="#000000" class="color000000 svgShape"><g fill="#000000" class="color000000 svgShape"><path fill="#79b8f7" d="M605.38,418.22h-86.19c-6.32,0-11.44-5.12-11.44-11.44v-86.19c0-6.32,5.12-11.44,11.44-11.44h86.19
					c6.32,0,11.44,5.12,11.44,11.44v86.19C616.83,413.1,611.7,418.22,605.38,418.22z" class="color7989f7 svgShape"></path></g></g><g fill="#000000" class="color000000 svgShape"><g fill="#000000" class="color000000 svgShape"><g fill="#000000" class="color000000 svgShape"><g fill="#000000" class="color000000 svgShape"><path fill="#ffffff" d="M562.29,396.55c-0.05,0-0.1,0-0.15-0.01c-0.48-0.08-11.86-2.2-21.69-13.76
							c-8.6-10.1-10.23-31.7-10.53-40.52c-0.03-0.88,0.28-1.71,0.88-2.35c0.6-0.64,1.41-1.01,2.29-1.03
							c3.04-0.09,8.99-0.51,14.61-2.38c6.15-2.04,10.4-5.29,12.38-7.04c1.26-1.11,3.16-1.11,4.42,0c1.98,1.75,6.22,4.99,12.38,7.04
							c5.63,1.87,11.57,2.29,14.62,2.38c0.88,0.02,1.69,0.39,2.29,1.03c0.6,0.64,0.91,1.47,0.88,2.35
							c-0.3,8.82-1.94,30.43-10.53,40.53c-9.83,11.56-21.21,13.68-21.69,13.76C562.39,396.54,562.34,396.55,562.29,396.55z
							 M562.29,330.38c-0.37,0-0.74,0.13-1.04,0.4c-2.08,1.84-6.54,5.25-12.99,7.39c-5.84,1.94-11.98,2.38-15.12,2.47
							c-0.41,0.01-0.79,0.18-1.06,0.48c-0.28,0.29-0.42,0.68-0.41,1.08c0.23,6.74,1.64,29.5,10.11,39.45
							c8.8,10.34,19.13,12.84,20.51,13.14c1.38-0.29,11.7-2.8,20.51-13.14c8.47-9.95,9.88-32.71,10.11-39.45
							c0.01-0.4-0.13-0.79-0.4-1.08c-0.28-0.3-0.65-0.46-1.06-0.48c-3.14-0.09-9.28-0.53-15.12-2.47l0,0
							c-6.45-2.14-10.9-5.55-12.99-7.39C563.03,330.51,562.66,330.38,562.29,330.38z" class="colorffffff svgShape"></path></g></g></g><g fill="#000000" class="color000000 svgShape"><g fill="#000000" class="color000000 svgShape"><path fill="#ffffff" d="M558.57,373.95c-0.24,0-0.46-0.1-0.63-0.26l-9.01-9.21c-0.34-0.35-0.33-0.9,0.01-1.24
						c0.35-0.34,0.9-0.33,1.24,0.01l8.34,8.53l17-19.9c0.31-0.37,0.87-0.41,1.24-0.1c0.37,0.32,0.41,0.87,0.1,1.24l-17.62,20.63
						c-0.16,0.19-0.39,0.3-0.64,0.31C558.59,373.95,558.58,373.95,558.57,373.95z" class="colorffffff svgShape"></path></g></g></g></g><g fill="#000000" class="color000000 svgShape"><g fill="#000000" class="color000000 svgShape"><g fill="#000000" class="color000000 svgShape"><g fill="#000000" class="color000000 svgShape"><circle cx="693.2" cy="489.91" r="38.57" fill="#7bbdff" class="colorffdc7b svgShape"></circle></g></g></g><g fill="#000000" class="color000000 svgShape"><g fill="#000000" class="color000000 svgShape"><path fill="#ffffff" d="M706.31,479.98c-3.16-3.09-8.22-3.04-11.31,0.12l-2.04,2.08l-2.1-2.07c-3.15-3.1-8.21-3.06-11.31,0.09
					c-3.1,3.15-3.06,8.21,0.09,11.31l7.78,7.66c0.02,0.02,0.03,0.04,0.04,0.05c1.24,1.22,2.78,1.94,4.37,2.19
					c2.46,0.38,5.06-0.39,6.94-2.31l7.65-7.82C709.52,488.14,709.47,483.08,706.31,479.98z" class="colorffffff svgShape"></path></g></g></g><g fill="#000000" class="color000000 svgShape"><g fill="#000000" class="color000000 svgShape"><g fill="#000000" class="color000000 svgShape"><g fill="#000000" class="color000000 svgShape"><path fill="#b8dbff" d="M721.75,380.47h-57.54c-5.55,0-10.05-4.5-10.05-10.05v-47.99c0-5.55,4.5-10.05,10.05-10.05h57.54
						c5.55,0,10.05,4.5,10.05,10.05v47.99C731.81,375.97,727.3,380.47,721.75,380.47z" class="colorb8bdff svgShape"></path></g></g></g><g fill="#000000" class="color000000 svgShape"><g fill="#000000" class="color000000 svgShape"><path fill="#ffffff" d="M707.15,343.64l-2.35-0.41c-0.27-1.02-0.68-2.01-1.21-2.93l1.37-1.95c0.5-0.72,0.42-1.69-0.2-2.31
					l-1.41-1.41c-0.63-0.61-1.6-0.68-2.31-0.16l-1.95,1.37c-0.92-0.53-1.9-0.94-2.92-1.21l-0.4-2.4c-0.15-0.85-0.88-1.48-1.74-1.5
					h-2.03c-0.88,0-1.63,0.63-1.78,1.5l-0.41,2.34c-1.02,0.27-2.01,0.68-2.93,1.21l-1.94-1.31c-0.72-0.5-1.69-0.42-2.31,0.2
					l-1.41,1.41c-0.62,0.62-0.71,1.59-0.2,2.31l1.37,1.95c-0.53,0.92-0.94,1.9-1.21,2.93l-2.34,0.41c-0.87,0.15-1.5,0.9-1.5,1.78
					v1.99c0,0.88,0.63,1.63,1.5,1.78l2.34,0.41c0.27,1.02,0.68,2.01,1.21,2.93l-1.37,1.95c-0.5,0.72-0.42,1.69,0.2,2.31l1.41,1.41
					c0.62,0.62,1.59,0.71,2.31,0.2l1.95-1.37c0.92,0.53,1.9,0.94,2.92,1.21l0.41,2.34c0.15,0.87,0.9,1.5,1.78,1.5h2.02
					c0.88,0,1.63-0.63,1.78-1.5l0.41-2.34c1.02-0.27,2.01-0.68,2.93-1.21l1.91,1.34c0.72,0.5,1.69,0.42,2.31-0.2l1.41-1.41
					c0.62-0.62,0.71-1.59,0.2-2.31l-1.37-1.97c0.53-0.92,0.94-1.9,1.21-2.93l2.35-0.41c0.87-0.15,1.5-0.9,1.5-1.78v-1.99
					C708.64,344.54,708.01,343.79,707.15,343.64z M692.98,351.78c-2.97,0-5.37-2.4-5.37-5.37c0-2.97,2.4-5.37,5.37-5.37
					s5.37,2.4,5.37,5.37c0,0.01,0,0.02,0,0.03C698.33,349.39,695.93,351.78,692.98,351.78z" class="colorffffff svgShape"></path></g></g></g><g fill="#000000" class="color000000 svgShape"><g fill="#000000" class="color000000 svgShape"><g fill="#000000" class="color000000 svgShape"><path fill="#83c1ff" d="M197.62,291.37c0,0,19.71,57.21,31.82,58.49c12.1,1.29,53.41-18.71,53.41-18.71l3.28,12.63
					c0,0-44.06,31.64-61.42,25.82c-17.36-5.82-34.36-23.21-34.36-23.21L197.62,291.37z" class="colorffa283 svgShape"></path></g></g><g fill="#000000" class="color000000 svgShape"><g fill="#000000" class="color000000 svgShape"><path fill="#83c1ff" d="M269.65,346.39c5.99-0.22,18.52-0.67,21.16-0.67c3.5,0,11.79-17.76,11.79-17.76l-12.6,6.75
					c-0.42,0.22-0.84-0.29-0.54-0.66c2.36-2.83,6.28-8.07,3.01-8.07c-3.3,0-6.64,4.16-10.46,5.59" class="colorffa283 svgShape"></path></g></g><g fill="#000000" class="color000000 svgShape"><g fill="#000000" class="color000000 svgShape"><defs><path id="a" d="M179.29,208.4l1,0.19l15.96,2.97c0,0-0.89,3.46,2.52,6.87c3.41,3.41,21.85,68.37,11.66,78.56
						c-10.19,10.19-51.3,6.44-52.52,6.44c-1.22,0-7.71-47.2-7.71-47.2L179.29,208.4z" fill="#000000" class="color000000 svgShape"></path></defs><clipPath id="b"><use overflow="visible" xlink:href="#a"></use></clipPath><g clip-path="url(#b)" fill="#000000" class="color000000 svgShape"><rect width="2.43" height="98.77" x="150.2" y="208.4" fill="#202a51" class="color512027 svgShape"></rect></g><g clip-path="url(#b)" fill="#000000" class="color000000 svgShape"><rect width="2.43" height="98.77" x="152.63" y="208.4" fill="#202a50" class="color502027 svgShape"></rect></g><g clip-path="url(#b)" fill="#000000" class="color000000 svgShape"><rect width="2.43" height="98.77" x="155.07" y="208.4" fill="#202a4f" class="color4f2027 svgShape"></rect></g><g clip-path="url(#b)" fill="#000000" class="color000000 svgShape"><rect width="2.43" height="98.77" x="157.5" y="208.4" fill="#202a4e" class="color4e2027 svgShape"></rect></g><g clip-path="url(#b)" fill="#000000" class="color000000 svgShape"><rect width="2.43" height="98.77" x="159.93" y="208.4" fill="#20294d" class="color4d2027 svgShape"></rect></g><g clip-path="url(#b)" fill="#000000" class="color000000 svgShape"><rect width="2.43" height="98.77" x="162.37" y="208.4" fill="#212a4c" class="color4c2127 svgShape"></rect></g><g clip-path="url(#b)" fill="#000000" class="color000000 svgShape"><rect width="2.43" height="98.77" x="164.8" y="208.4" fill="#212a4b" class="color4b2127 svgShape"></rect></g><g clip-path="url(#b)" fill="#000000" class="color000000 svgShape"><rect width="2.43" height="98.77" x="167.23" y="208.4" fill="#212a4a" class="color4a2126 svgShape"></rect></g><g clip-path="url(#b)" fill="#000000" class="color000000 svgShape"><rect width="2.43" height="98.77" x="169.67" y="208.4" fill="#212949" class="color492126 svgShape"></rect></g><g clip-path="url(#b)" fill="#000000" class="color000000 svgShape"><rect width="2.43" height="98.77" x="172.1" y="208.4" fill="#212948" class="color482126 svgShape"></rect></g><g clip-path="url(#b)" fill="#000000" class="color000000 svgShape"><rect width="2.43" height="98.77" x="174.53" y="208.4" fill="#212947" class="color472126 svgShape"></rect></g><g clip-path="url(#b)" fill="#000000" class="color000000 svgShape"><rect width="2.43" height="98.77" x="176.96" y="208.4" fill="#212946" class="color462126 svgShape"></rect></g><g clip-path="url(#b)" fill="#000000" class="color000000 svgShape"><rect width="2.43" height="98.77" x="179.4" y="208.4" fill="#212945" class="color452126 svgShape"></rect></g><g clip-path="url(#b)" fill="#000000" class="color000000 svgShape"><rect width="2.43" height="98.77" x="181.83" y="208.4" fill="#222943" class="color432226 svgShape"></rect></g><g clip-path="url(#b)" fill="#000000" class="color000000 svgShape"><rect width="2.43" height="98.77" x="184.26" y="208.4" fill="#222942" class="color422226 svgShape"></rect></g><g clip-path="url(#b)" fill="#000000" class="color000000 svgShape"><rect width="2.43" height="98.77" x="186.7" y="208.4" fill="#222941" class="color412226 svgShape"></rect></g><g clip-path="url(#b)" fill="#000000" class="color000000 svgShape"><rect width="2.43" height="98.77" x="189.13" y="208.4" fill="#222840" class="color402226 svgShape"></rect></g><g clip-path="url(#b)" fill="#000000" class="color000000 svgShape"><rect width="2.43" height="98.77" x="191.56" y="208.4" fill="#22283f" class="color3f2226 svgShape"></rect></g><g clip-path="url(#b)" fill="#000000" class="color000000 svgShape"><rect width="2.43" height="98.77" x="194" y="208.4" fill="#22283e" class="color3e2226 svgShape"></rect></g><g clip-path="url(#b)" fill="#000000" class="color000000 svgShape"><rect width="2.43" height="98.77" x="196.43" y="208.4" fill="#22283d" class="color3d2225 svgShape"></rect></g><g clip-path="url(#b)" fill="#000000" class="color000000 svgShape"><rect width="2.43" height="98.77" x="198.86" y="208.4" fill="#22273c" class="color3c2225 svgShape"></rect></g><g clip-path="url(#b)" fill="#000000" class="color000000 svgShape"><rect width="2.43" height="98.77" x="201.3" y="208.4" fill="#23283b" class="color3b2325 svgShape"></rect></g><g clip-path="url(#b)" fill="#000000" class="color000000 svgShape"><rect width="2.43" height="98.77" x="203.73" y="208.4" fill="#23283a" class="color3a2325 svgShape"></rect></g><g clip-path="url(#b)" fill="#000000" class="color000000 svgShape"><rect width="2.43" height="98.77" x="206.16" y="208.4" fill="#232839" class="color392325 svgShape"></rect></g><g clip-path="url(#b)" fill="#000000" class="color000000 svgShape"><rect width="2.43" height="98.77" x="208.6" y="208.4" fill="#232738" class="color382325 svgShape"></rect></g><g clip-path="url(#b)" fill="#000000" class="color000000 svgShape"><rect width="2.43" height="98.77" x="211.03" y="208.4" fill="#021b79" class="color372325 svgShape"></rect></g><g clip-path="url(#b)" fill="#000000" class="color000000 svgShape"><rect width="7.15" height="98.77" x="213.46" y="208.4" fill="#021b79" class="color372325 svgShape"></rect></g></g></g><g fill="#000000" class="color000000 svgShape"><g fill="#000000" class="color000000 svgShape"><path fill="#5372e7" d="M199.98,521.13c0,0-11.33,117.87-5.63,132.49c5.71,14.62,15.02,39.75,15.02,39.75h-10.48l-21.42-28.45
					c0,0,0.51-1.31-1.27-7.02c-1.78-5.71-14.62-67.04-9.98-95.92c1.32-8.19,2.95-47.67,6.98-54.35
					C183.38,490.75,199.98,512.6,199.98,521.13z" class="colore76a53 svgShape"></path></g></g><g fill="#000000" class="color000000 svgShape"><g fill="#000000" class="color000000 svgShape"><path fill="#0575e6" d="M176.66,659.44c0,0-2.64-1.08-4.99,4.45c-2.35,5.53,4.29,32.92,4.29,32.92l5.4,0.17
					c0,0-3.67-20.32-2.43-20.32s7.26,20.68,10.3,21.51c3.04,0.83,23.02,2.14,26.13-0.97c3.11-3.11-8.08-9.48-8.08-9.48
					s-10.04,1.34-11.35,0.03C194.6,686.43,176.66,659.44,176.66,659.44z" class="color5858c6 svgShape"></path></g></g><g fill="#000000" class="color000000 svgShape"><g fill="#000000" class="color000000 svgShape"><path fill="#83c1ff" d="M169.66,521.13c0,0-11.33,117.87-5.63,132.49c5.7,14.62,15.02,39.75,15.02,39.75h-10.48l-21.42-28.45
					c0,0,0.51-1.31-1.27-7.02c-1.78-5.71-14.62-67.04-9.98-95.92c1.31-8.19,2.95-47.67,6.98-54.35
					C153.06,490.75,169.66,512.6,169.66,521.13z" class="colorffa283 svgShape"></path></g></g><g opacity=".68" fill="#000000" class="color000000 svgShape"><g fill="#000000" class="color000000 svgShape"><path fill="#4c72ff" d="M138.45,533.48c5.64-0.99,17.38-3.05,30.56-5.27c-0.53,5.83-1.33,14.84-2.18,25.43
					c-6.23,0.93-20.18,2.62-30.13,0.88C137.18,548.8,137.74,541.06,138.45,533.48z" class="colorff7f4c svgShape"></path></g></g><g opacity=".68" fill="#000000" class="color000000 svgShape"><g fill="#000000" class="color000000 svgShape"><path fill="#4c72ff" d="M169.48,526.36c10.81-1.79,21.74-3.53,30.45-4.78c-0.24,2.5-1.41,15-2.75,31.43
					c-2.99,0.85-6.77,1.7-11.45,2.38c-7.53,1.09-14.1,0.52-18.78-0.33C167.61,547.53,168.39,536.18,169.48,526.36z" class="colorff7f4c svgShape"></path></g></g><g fill="#000000" class="color000000 svgShape"><g fill="#000000" class="color000000 svgShape"><path fill="#111216" d="M128.06,545.65c0-24.29,0-59.96,0-70.43c0-18.54,7.13-67.28,18.54-91.53c11.41-24.25,58.48,0,58.48,0
					s10.74,23.58,13.6,57.81l2.74,106.11C187.5,552.88,160.97,553.29,128.06,545.65z" class="color161111 svgShape"></path></g></g><g fill="#000000" class="color000000 svgShape"><g fill="#000000" class="color000000 svgShape"><path fill="#2d55ea" d="M193.58,283.14c1.62,1.62,23.68,23.81,21.91,41.7c-2.65,26.73-10.05,53.81-7.48,64.49
					c4.28,17.83-59.94,20.51-62.94-2.03c-1.07-8.02,1.02-28.07-0.87-46.21c-3-28.81-9.85-57.17-8.58-57.95
					C163.73,265.9,189.14,278.71,193.58,283.14z" class="coloreab82d svgShape"></path></g></g><g fill="#000000" class="color000000 svgShape"><g fill="#000000" class="color000000 svgShape"><path fill="#6aaff4" d="M126.09,302.12c4.9-19.25,9.52-18.98,9.52-18.98s4.01,19.72,7.29,37.57c-2.04-0.56-4.04-1.4-5.99-2.56
					C130.94,314.6,127.77,308.05,126.09,302.12z" class="color6adaf4 svgShape"></path></g></g><g fill="#000000" class="color000000 svgShape"><g fill="#000000" class="color000000 svgShape"><path fill="#73ade8" d="M146.35,659.44c0,0-2.64-1.08-4.99,4.45c-2.35,5.53,4.29,32.92,4.29,32.92l5.4,0.17
					c0,0-3.67-20.32-2.43-20.32c1.24,0,7.26,20.68,10.3,21.51c3.04,0.83,23.02,2.14,26.13-0.97c3.11-3.11-8.08-9.48-8.08-9.48
					s-10.04,1.34-11.35,0.03C164.29,686.43,146.35,659.44,146.35,659.44z" class="color7473e8 svgShape"></path></g></g><g fill="#000000" class="color000000 svgShape"><g fill="#000000" class="color000000 svgShape"><path fill="#83c1ff" d="M188.82,244.77l2.45,29.04c0,0,9.78,34.47,1.93,37.34c-7.85,2.87-19.17-36.01-19.17-36.01v-37.17
					L188.82,244.77z" class="colorffa283 svgShape"></path></g></g><g opacity=".68" fill="#000000" class="color000000 svgShape"><g fill="#000000" class="color000000 svgShape"><path fill="#4c72ff" d="M190.33,262.72c-5.37-0.38-11.58-5.24-16.31-11.98v-12.76l14.8,6.8L190.33,262.72z" class="colorff7f4c svgShape"></path></g></g><g fill="#000000" class="color000000 svgShape"><g fill="#000000" class="color000000 svgShape"><path fill="#83c1ff" d="M188.82,211.18c0,0,8.61-3.83,11.48,13.4c2.87,17.23,0.69,33.33-7.82,34.6
					c-8.51,1.28-20.25-12.91-24.4-24.39C163.94,223.3,182.01,209.36,188.82,211.18z" class="colorffa283 svgShape"></path></g></g><g fill="#000000" class="color000000 svgShape"><g fill="#000000" class="color000000 svgShape"><path fill="#83c1ff" d="M261.42,380.66c-0.42,0.22-0.84-0.29-0.54-0.66c2.36-2.83,6.28-8.07,3.01-8.07
					c-3.3,0-6.64,4.16-10.46,5.59c-1.35,0.51-70.85,2.83-76.66-9.01c-2.03-4.13-8.01-18.1-10.84-32.71
					c-13.03,0.39-19.97,2-31.44,8.22c4.22,21.82,10.32,40.4,18.35,48.44c10.09,10.09,68.39,2.4,82.13,0.43
					c2.02-0.29,4.06-0.47,6.1-0.55c5.99-0.22,18.52-0.67,21.16-0.67c3.5,0,11.79-17.76,11.79-17.76L261.42,380.66z" class="colorffa283 svgShape"></path></g></g><g fill="#000000" class="color000000 svgShape"><g fill="#000000" class="color000000 svgShape"><path fill="#2d55ea" d="M139.34,279.96c0,0-9.86-1.23-9.86,35.64c0,11.02,1.07,21.28,2.87,30.58c5.96,0.51,29.45,1.02,37.6-9.16
					C169.95,337.01,156.4,275.91,139.34,279.96z" class="coloreab82d svgShape"></path></g></g><g fill="#000000" class="color000000 svgShape"><g fill="#000000" class="color000000 svgShape"><defs><path id="c" d="M180.44,200.14c1.46,0.55,2.96,0.97,4.5,1.21c3.31,0.53,8.84,2.48,12.21,9.46
						c5.05,10.47-32.51,45.04-23.12,57.44c9.39,12.41-1.16,28-14.93,36.69c-13.77,8.69,4.69,6.13-11.98,14.37
						c-16.67,8.24-37.81-22.36-24.96-44.68c12.85-22.32,24.23-65.26,40.04-71.77C172.62,198.57,177.99,199.21,180.44,200.14z" fill="#000000" class="color000000 svgShape"></path></defs><clipPath id="d"><use overflow="visible" xlink:href="#c"></use></clipPath><g clip-path="url(#d)" fill="#000000" class="color000000 svgShape"><rect width="8.89" height="128.99" x="109.3" y="198.57" fill="#202a51" class="color512027 svgShape"></rect></g><g clip-path="url(#d)" fill="#000000" class="color000000 svgShape"><rect width="3.05" height="128.99" x="118.19" y="198.57" fill="#202a51" class="color512027 svgShape"></rect></g><g clip-path="url(#d)" fill="#000000" class="color000000 svgShape"><rect width="3.05" height="128.99" x="121.25" y="198.57" fill="#202a50" class="color502027 svgShape"></rect></g><g clip-path="url(#d)" fill="#000000" class="color000000 svgShape"><rect width="3.05" height="128.99" x="124.3" y="198.57" fill="#202a4f" class="color4f2027 svgShape"></rect></g><g clip-path="url(#d)" fill="#000000" class="color000000 svgShape"><rect width="3.05" height="128.99" x="127.36" y="198.57" fill="#202a4e" class="color4e2027 svgShape"></rect></g><g clip-path="url(#d)" fill="#000000" class="color000000 svgShape"><rect width="3.05" height="128.99" x="130.41" y="198.57" fill="#20294d" class="color4d2027 svgShape"></rect></g><g clip-path="url(#d)" fill="#000000" class="color000000 svgShape"><rect width="3.05" height="128.99" x="133.47" y="198.57" fill="#212a4c" class="color4c2127 svgShape"></rect></g><g clip-path="url(#d)" fill="#000000" class="color000000 svgShape"><rect width="3.05" height="128.99" x="136.52" y="198.57" fill="#212a4b" class="color4b2127 svgShape"></rect></g><g clip-path="url(#d)" fill="#000000" class="color000000 svgShape"><rect width="3.05" height="128.99" x="139.58" y="198.57" fill="#212a4a" class="color4a2126 svgShape"></rect></g><g clip-path="url(#d)" fill="#000000" class="color000000 svgShape"><rect width="3.05" height="128.99" x="142.63" y="198.57" fill="#212949" class="color492126 svgShape"></rect></g><g clip-path="url(#d)" fill="#000000" class="color000000 svgShape"><rect width="3.05" height="128.99" x="145.69" y="198.57" fill="#212948" class="color482126 svgShape"></rect></g><g clip-path="url(#d)" fill="#000000" class="color000000 svgShape"><rect width="3.05" height="128.99" x="148.74" y="198.57" fill="#212947" class="color472126 svgShape"></rect></g><g clip-path="url(#d)" fill="#000000" class="color000000 svgShape"><rect width="3.05" height="128.99" x="151.8" y="198.57" fill="#212946" class="color462126 svgShape"></rect></g><g clip-path="url(#d)" fill="#000000" class="color000000 svgShape"><rect width="3.05" height="128.99" x="154.85" y="198.57" fill="#212945" class="color452126 svgShape"></rect></g><g clip-path="url(#d)" fill="#000000" class="color000000 svgShape"><rect width="3.05" height="128.99" x="157.91" y="198.57" fill="#222943" class="color432226 svgShape"></rect></g><g clip-path="url(#d)" fill="#000000" class="color000000 svgShape"><rect width="3.05" height="128.99" x="160.96" y="198.57" fill="#222942" class="color422226 svgShape"></rect></g><g clip-path="url(#d)" fill="#000000" class="color000000 svgShape"><rect width="3.05" height="128.99" x="164.02" y="198.57" fill="#222941" class="color412226 svgShape"></rect></g><g clip-path="url(#d)" fill="#000000" class="color000000 svgShape"><rect width="3.05" height="128.99" x="167.07" y="198.57" fill="#222840" class="color402226 svgShape"></rect></g><g clip-path="url(#d)" fill="#000000" class="color000000 svgShape"><rect width="3.05" height="128.99" x="170.12" y="198.57" fill="#22283f" class="color3f2226 svgShape"></rect></g><g clip-path="url(#d)" fill="#000000" class="color000000 svgShape"><rect width="3.05" height="128.99" x="173.18" y="198.57" fill="#22283e" class="color3e2226 svgShape"></rect></g><g clip-path="url(#d)" fill="#000000" class="color000000 svgShape"><rect width="3.05" height="128.99" x="176.23" y="198.57" fill="#22283d" class="color3d2225 svgShape"></rect></g><g clip-path="url(#d)" fill="#000000" class="color000000 svgShape"><rect width="3.05" height="128.99" x="179.29" y="198.57" fill="#22273c" class="color3c2225 svgShape"></rect></g><g clip-path="url(#d)" fill="#000000" class="color000000 svgShape"><rect width="3.05" height="128.99" x="182.34" y="198.57" fill="#23283b" class="color3b2325 svgShape"></rect></g><g clip-path="url(#d)" fill="#000000" class="color000000 svgShape"><rect width="3.05" height="128.99" x="185.4" y="198.57" fill="#23283a" class="color3a2325 svgShape"></rect></g><g clip-path="url(#d)" fill="#000000" class="color000000 svgShape"><rect width="3.05" height="128.99" x="188.45" y="198.57" fill="#232839" class="color392325 svgShape"></rect></g><g clip-path="url(#d)" fill="#000000" class="color000000 svgShape"><rect width="3.05" height="128.99" x="191.51" y="198.57" fill="#232738" class="color382325 svgShape"></rect></g><g clip-path="url(#d)" fill="#000000" class="color000000 svgShape"><rect width="3.05" height="128.99" x="194.56" y="198.57" fill="#021b79" class="color372325 svgShape"></rect></g><g clip-path="url(#d)" fill="#000000" class="color000000 svgShape"><rect width="4.58" height="128.99" x="197.62" y="198.57" fill="#021b79" class="color372325 svgShape"></rect></g></g></g></g></g></svg>