<svg xmlns="http://www.w3.org/2000/svg" data-name="&amp;lt;Layer&amp;gt;" viewBox="0 0 2745 1830" id="Girlandboyaregivinginvitationcardtoeachother"><path fill="#ffffff" d="M1292.79 1100a4.72 4.72 0 00-6.83 6.53L1300.8 1122a4.67 4.67 0 003.41 1.47 4.73 4.73 0 003.42-8zM1357.27 1077.13a4.73 4.73 0 10-9.21 2.13l4.17 18.07a4.74 4.74 0 004.61 3.67 4.79 4.79 0 001.06-.12 4.74 4.74 0 003.55-5.67zM1422 1074.61a4.74 4.74 0 00-5.94 3.06l-5.8 18.09a4.73 4.73 0 003.07 5.94 4.81 4.81 0 001.44.23 4.73 4.73 0 004.5-3.29l5.79-18.08A4.73 4.73 0 001422 1074.61zM1472 1102.94l-15.54 11.83a4.73 4.73 0 002.87 8.49 4.64 4.64 0 002.86-1l15.54-11.83a4.73 4.73 0 00-5.73-7.52zM1300.8 1412.48L1286 1428a4.72 4.72 0 003.42 8 4.66 4.66 0 003.41-1.46l14.84-15.53a4.72 4.72 0 10-6.83-6.53zM1357.9 1433.63a4.75 4.75 0 00-5.67 3.54l-4.17 18.08a4.73 4.73 0 003.54 5.67 4.94 4.94 0 001.07.12 4.73 4.73 0 004.6-3.66l4.18-18.08A4.74 4.74 0 001357.9 1433.63zM1419.3 1435.87a4.73 4.73 0 10-9 2.88l5.8 18.08a4.73 4.73 0 004.5 3.29 4.81 4.81 0 001.44-.23 4.72 4.72 0 003.06-5.94zM1477.71 1424l-15.54-11.83a4.73 4.73 0 00-5.73 7.53l15.54 11.82a4.64 4.64 0 002.86 1 4.73 4.73 0 002.87-8.49z" class="colorffffff svgShape"></path><path fill="#596592" fill-rule="evenodd" d="M2264.83,1092.33c-6.08-7.59-15-53-10.78-89.62,2.56-19.39,6.33-22.07,12.81-34,8.08-14.73,11.73-40.57,12.41-65.13,2.95-76.53-15.53-120.27-24.67-137.44-32.55-63.37-76.16-34.76-76.16-34.76l-16.65,12.8s-17-19.07-38-31.85c-18.21-10.45-43.84-17.71-62.43-21.67-39.29-8.76-87.3-4.28-121.78,3.87-19.8,4.66-29,13.54-44.9,13.35-8.7.22-19.56.32-26.13,1.39-9.5,1.63-17.84,8.39-23.1,11.7-13.56,9.36-37.3,44.9-22,67.48,3.32,5.26,10.34,21.58,11.93,31.8,1.46,12.38,2.55,5.93-.32,18.07s18.24-2.57,28.9-24.39c23.85-50,169.08,117.51,169.08,117.51l27.43,13.87s4.13,41.48,36.63,42.62c10.81.62,32-27.84,45.91-43.68s30.78-44.54,30.78-44.54-7.57,43.7-12.32,76c-3.74,27.28-1.71,80.22,7.62,106.8,9.42,25.14,26.05,25.37,26.05,25.37s-1.75,30.29-11.1,42.05c-8.55,10.37-25.45,2.16-23.53,6.61,1.27,3,14.52,11.69,29.15,8.91,10.26-2.31,24-14.54,24-14.54a80.2,80.2,0,0,1,3.48,27.69c-.83,14.43-6.83,30.72-11.45,35.52-9.23,9.6,29.68-12.76,40.58-38.91,10.19-26.19,1.6-65.75,1.6-65.75s9.81,5.62,19.1,7.6c7.85,1.9,15.95-.53,16.08-2.69C2283.44,1108.59,2270.19,1099.87,2264.83,1092.33Z" class="color926359 svgShape"></path><path fill="#021b79" d="M2208.14 721.12c-24.34-2.26-41.61 11.41-49.74 19.76a4.73 4.73 0 106.78 6.59c7-7.14 21.64-18.85 42.11-16.94 35.88 3.19 58.47 53.11 65.32 144.35 5.67 76.36-16.85 114.17-34.35 131.72a222.9 222.9 0 0021.48-59.27 4.73 4.73 0 10-9.25-2c-10.46 48.84-32.93 76-33.15 76.3a4.73 4.73 0 003.62 7.77 4.65 4.65 0 001.6-.28c2.82-1 69-26.42 59.48-155C2272.89 752.28 2236.79 723.66 2208.14 721.12zM2219 1100.91a4.73 4.73 0 00-4.46 5c.63 11.65-1.24 43.64-17.23 51.53a26.47 26.47 0 01-21.06 1.2c.43-.14.87-.29 1.31-.46 7.81-3 13.74-10 17.66-20.77 7.68-22 2.72-47.94-7.1-80.05a4.73 4.73 0 10-9 2.77c9.27 30.33 14 54.55 7.23 74.11-2.9 8-7 13.07-12.09 15.09-6.66 2.63-13.32-.68-13.36-.7a4.73 4.73 0 00-5.66 7.41c5.25 5.67 16.77 13.64 30.47 13.64a35.4 35.4 0 0015.82-3.77c24.86-12.26 22.6-58.56 22.49-60.52A4.67 4.67 0 002219 1100.91z" class="color571519 svgShape"></path><path fill="#021b79" d="M2245.46,1070.36a4.73,4.73,0,0,0-9.43.65,255.46,255.46,0,0,0,5.39,36.44c3.37,16.41,6,29.37,2.38,54.9-3.24,22.46-16.7,35.66-27.48,42.81,5.83-12.81,10.72-33.49,2.2-60.72a4.73,4.73,0,1,0-9,2.82c13,41.55-8.6,65.39-9.51,66.37a4.72,4.72,0,0,0,3.43,8,4.87,4.87,0,0,0,1.41-.21c1.72-.54,42-13.63,48.33-57.7,3.88-27.17.93-41.52-2.48-58.14A244.15,244.15,0,0,1,2245.46,1070.36Z" class="color571519 svgShape"></path><path fill="#021b79" d="M2292.38,1106.57c-.74.06-18.38.62-27.42-27.47-10.56-33.95-4.34-83.86-4.28-84.36a4.73,4.73,0,1,0-9.38-1.2c-.27,2.12-6.54,52.43,4.65,88.41,5.75,17.88,14.83,26.41,22.57,30.46a24.66,24.66,0,0,1-12.64.14c-6.85-1.91-12.43-7.56-16.58-16.79a4.73,4.73,0,0,0-8.62,3.88c5.37,11.94,13,19.35,22.73,22a30.77,30.77,0,0,0,8.21,1.09c12.69,0,23.24-7.23,23.77-7.6a4.71,4.71,0,0,0,1.74-5.41A4.83,4.83,0,0,0,2292.38,1106.57Z" class="color571519 svgShape"></path><path fill="#cee6ff" d="M1637.51,1307.65c-26.74-24-21.91-76.47-29.51-90.1-9.22-16.53-35-21.49-35-21.49v141.1s16.07,17.58,31.07,23.62a20.8,20.8,0,0,1,6.93,4.64c13.9,13.89,80.74,80.27,132.2,116l-2.71-112.86S1664.25,1331.63,1637.51,1307.65Z" class="colorffe4ce svgShape"></path><path fill="#d2e6fb" d="M2287.64,1211.74c-26.74-31.35-103.28-71.93-131.87-86.68s-46.86-21.59-52.39-36.35-7.11-72.62-4.77-100.7L1950.9,1094.92c-49,27.67-109.94,11.62-154.86,46.53C1768.35,1163,1733,1292.88,1715.18,1332c0,0,10.39,10,32.14,13l444.32,41.27c13.83,25.82,22.94,126.67,22.94,126.67,10.14-29.5,105.28-49.83,154.21-31.53,0,0-16.3-90.89-30.24-136.41C2323.16,1294.75,2314.38,1243.1,2287.64,1211.74Z" class="colorfbd4d2 svgShape"></path><path fill="#d2e6fb" d="M2223.11,1345.05,1801.66,1238c-16.52,59-64.05,90.6-65,162.62-.72,55.33,7.82,76.92,13.35,133s16.29,192.21,18.68,296.42h445c-17-43-31.27-134-33.36-179.92C2178,1598.79,2223.11,1345.05,2223.11,1345.05Z" class="colorfbd4d2 svgShape"></path><path fill="#cee6ff" d="M899.27,1354c-4.35,1.94,41.07,162.11,41.07,162.11l94.11-59s-23.88-109.24-31.15-128.51C1003.3,1328.57,903.62,1352.06,899.27,1354Z" class="colorffe4ce svgShape"></path><path fill="#cee6ff" d="M1129.44,1248.54l-3.92,91.38c-10,19.37-39.47,32.28-99.41,69.17-30.79,19-54.71,35.47-54.71,35.47l12.77,129.68c36-13.84,132.31-125.5,171-148.55,27.51-16.38,48.48-16.6,61.13-35l-39.92-199.76Z" class="colorffe4ce svgShape"></path><path fill="#e1f0ff" d="M940.34,1267,460.2,1381.42s36.88,127.26,43,229.32c4.53,75.15,6.63,165.16,7.92,219.26H992.8c-4.09-67.83-3-214.15-14-323.16C965.86,1379.58,940.34,1267,940.34,1267Z" class="colore1f6ff svgShape"></path><path fill="#e1f0ff" d="M940.34,1090.63c-47-36.89-183.13-10.09-220.72-19.22H562c-31.35,35.13-181.47,104-204.51,140-16.44,25.66-20.26,87.61-14.76,140.54,7.83,75.29-3.69,206.57-3.69,206.57s-2.41,21.28,66.4,24.9c46.11,2.42,87.76-19.37,87.76-19.37l471.08-182.59c59.29-20.2,90.52-64.1,90.52-64.1S965.73,1110.54,940.34,1090.63Z" class="colore1f6ff svgShape"></path><path fill="#cee6ff" d="M567.15 1037.34l-2.47 29.71-57.37 48.17s128.72 63.1 187.74 49.84 40.83-92.56 40.83-92.56zM494.63 1720.17c2.45-16-1.39-156.15-1.39-156.15-43.72 21.27-88.47 22.7-133.85 11.91 0 0 16.89 118.18 15.66 151.38-.71 19.07 2.75 66.1 5.81 102.69H490.18C497.32 1768 492.38 1734.79 494.63 1720.17z" class="colorffe4ce svgShape"></path><rect width="396.54" height="231.69" x="1176.42" y="1158.95" fill="#ffffff" class="colorffffff svgShape"></rect><polygon fill="#78b4f1" points="1176.42 1221.1 1176.42 1266.99 1289.3 1158.95 1253.66 1149.07 1176.42 1221.1" class="colorf18878 svgShape"></polygon><path fill="#cee6ff" fill-rule="evenodd" d="M2100.79,1088.71c-4.48-48-1.42-101.38-1.42-101.38a53,53,0,0,1-21.49-16.43c-9.43-12.11-15.57-31.28-15.57-31.28s7.59-6.08,11.89-18.13c5.16-14.17,7.08-35-3.29-43.6-19.32-16.3-42.57,10.58-67.52,4.09-12.14-2.87-17.49-10.41-26.21-22.49C1970.47,850.42,1960,844,1960,844s-31-14.8-44.11-25.68c-21.41-17.87-39.06-50.72-39.06-50.72-7.54,5.36-17.27,23.61-20.26,37.91-4.68,18.55,1.12,43.48-2.69,72.2-2.11,11.46-26.11,13.7-27.58,26.64-1.63,15.83,10,15.77,13.8,37,.59,2.21,2.71,28.37,5.16,48.77,1.89,17.48,2.51,32,16.11,47.23,12.19,14.45,73.8-.1,80.75,17.66,4.38,11.83,8.56,27.26,9.34,38.88.55,8.87-33,17.1-33,17.1s6.26,35.57,26.33,60.67c39.23,49.06,195.05-55.33,195.05-55.33S2102.26,1098.43,2100.79,1088.71Z" class="colorffe4ce svgShape"></path><path fill="#021b79" d="M2071.65,873.29c-9.48-7.33-22.17-6.55-31.14-4.6a4.73,4.73,0,1,0,2,9.24c5.74-1.25,16.4-2.53,23.34,2.83,4.77,3.7,7.37,10.24,7.74,19.34.22,14.23-4.39,26.51-13,34.56-7.54,7.05-17.49,10.29-28.8,9.33a4.73,4.73,0,1,0-.78,9.42c1.5.13,3,.19,4.45.19a45.67,45.67,0,0,0,31.59-12c10.59-9.9,16.27-24.68,16-41.74C2082.57,887.7,2078.73,878.77,2071.65,873.29Z" class="color571519 svgShape"></path><path fill="#021b79" d="M2049.31,900.38c-.88.24-8.82,2.67-14.51,14.09a4.73,4.73,0,1,0,8.46,4.22c3.71-7.45,8.28-9.1,8.62-9.21a4.73,4.73,0,0,0-2.57-9.1Z" class="color571519 svgShape"></path><path fill="#021b79" fill-rule="evenodd" d="M1888,863.06c-4.32-.25-8.26,5.31-8.68,12.52s3.59,13.23,8.68,12.8c4.32.25,8.26-5.31,8.67-12.53C1896.35,868.6,1893,863.35,1888,863.06Z" class="color571519 svgShape"></path><path fill="#021b79" d="M1893 815.94c-4.88-.45-12.33.79-20.21 9.21a4.73 4.73 0 006.91 6.46c4.22-4.52 8.4-6.64 12.43-6.25 5.75.53 10.32 5.92 13.14 10.34a4.73 4.73 0 108-5.08C1907.55 821.72 1900.55 816.65 1893 815.94zM2180.28 839.67a4.73 4.73 0 00-4.35 5.08c3.77 49-17.47 72.89-34.53 92.08a176.71 176.71 0 00-12.91 15.62c-2.25 3.12-4.22 5.9-6 8.38-10.88 15.31-12.84 18.07-20.94 20.78-2 .68-4.66.25-7.61-1.25-3.91-2-17.42-10.83-27.18-41.45a4.73 4.73 0 00-9 2.87c7.45 23.37 19.08 40.5 31.91 47a22 22 0 009.87 2.58 15.89 15.89 0 005-.8c11-3.69 14.41-8.47 25.65-24.27 1.75-2.47 3.71-5.23 6-8.39a174.11 174.11 0 0112.27-14.81c18.25-20.52 41-46.07 36.89-99.09A4.74 4.74 0 002180.28 839.67z" class="color571519 svgShape"></path><path fill="#021b79" d="M1979.84 841.59c-8.54-1-17.37-2.05-27.24-6.08s-59.67-26.9-74-83a4.73 4.73 0 00-9.16 2.34c12 46.83 49 76.87 79.61 89.38 11.06 4.51 21 5.68 29.72 6.71 11.69 1.38 20.93 2.47 30.18 10.46a4.66 4.66 0 003.08 1.16 4.73 4.73 0 003.1-8.31C2003.66 844.4 1992.09 843 1979.84 841.59zM2021.21 877a16.07 16.07 0 01-12.72 1.9c-7.81-1.88-15.7-8.66-21.65-18.59a4.73 4.73 0 10-8.1 4.87c7.35 12.26 17.13 20.4 27.53 22.91a27.28 27.28 0 006.51.8 25.1 25.1 0 0013.43-3.87 4.73 4.73 0 10-5-8z" class="color571519 svgShape"></path><path fill="#021b79" d="M1890 707.55c-10.78-5-23.06-4.51-35.5 1.55-18 8.75-34.67 28.95-38.84 47-4.47 19.52 2.94 30.95 9.48 41 7.25 11.16 13 20 4.26 39.16a4.73 4.73 0 008.62 3.9c10.83-23.9 2.45-36.81-4.94-48.21-6.06-9.33-11.78-18.15-8.2-33.76 3.53-15.28 18.36-33.12 33.75-40.62 6.83-3.32 17.13-6.27 27.36-1.49a4.73 4.73 0 004-8.56zM2118.93 705.57c-59.55-31.23-150.57-32.64-211.72-3.29a4.73 4.73 0 004.09 8.52c57.75-27.72 147-26.34 203.25 3.15 23.12 12.07 61.48 40 58.52 91.65a4.72 4.72 0 004.45 5h.27a4.73 4.73 0 004.72-4.46C2184.93 763.94 2162.35 728.22 2118.93 705.57zM1935.63 1043.65c-9.3-3.86-18.79-4-30.81-4.26-7.79-.15-16.61-.31-27.4-1.51-14.57-1.39-20.2-9-24.1-32.44-2.87-16.75-3.73-29-4.73-43.09l-.38-5.23a4.73 4.73 0 00-9.43.68l.37 5.22c1 14.38 1.9 26.81 4.84 44 3.88 23.32 10.68 38.19 32.45 40.28 11.16 1.23 20.22 1.4 28.21 1.55 11.44.21 19.7.37 27.3 3.52 12.33 5.31 15.29 32.25 13.94 55.69a4.74 4.74 0 004.45 5h.28a4.73 4.73 0 004.72-4.45C1956.52 1088 1955.53 1052.21 1935.63 1043.65z" class="color571519 svgShape"></path><path fill="#021b79" d="M1854.79,854.27a4.73,4.73,0,0,0-4.59,4.86c.49,16.65-2.15,20-6.32,23.23a52.91,52.91,0,0,1-8.18,5.19c-6.32,3.46-13.49,7.39-13.46,17.48-.37,7.53,3.88,13.9,7.63,19.52a55.45,55.45,0,0,1,5,8.49c2.84,6.6,3.78,20,3.9,24.54a4.73,4.73,0,0,0,4.72,4.61h.13a4.73,4.73,0,0,0,4.6-4.85c0-.75-.52-18.41-4.66-28a63.58,63.58,0,0,0-5.83-10c-3.24-4.86-6.3-9.45-6-13.89,0-.1,0-.21,0-.31,0-4.2,2.06-5.7,8.55-9.26a61,61,0,0,0,9.53-6.08c7.89-6.15,10.38-14,9.89-30.91A4.69,4.69,0,0,0,1854.79,854.27Z" class="color571519 svgShape"></path><path fill="#021b79" d="M1870.11 775.49a4.72 4.72 0 00-6.56 1.24 70.53 70.53 0 00-11.62 27.8c-4.13 18.83-2.85 37.93-1.72 54.78a4.73 4.73 0 004.71 4.41h.33a4.74 4.74 0 004.4-5c-1.09-16.21-2.32-34.6 1.56-52.34a61.68 61.68 0 0110.15-24.28A4.72 4.72 0 001870.11 775.49zM1878.31 855.07a4.73 4.73 0 103.33 8.85c4.34-1.63 14.94-.51 19.81 7.46a4.71 4.71 0 004 2.26 4.65 4.65 0 002.46-.69 4.72 4.72 0 001.57-6.5C1902.11 854.33 1886.36 852 1878.31 855.07zM2192.68 1102.33c-5.32-1.2-10-5-14-11.38-18.72-30-18.4-113.58.74-194.44a4.73 4.73 0 10-9.21-2.17c-17.13 72.39-22.48 164.89.45 201.62 5.34 8.57 12 13.81 19.93 15.6a4.66 4.66 0 001 .11 4.73 4.73 0 001-9.34zM2247.54 819a4.73 4.73 0 00-3.79 5.51c7.47 40.32 5.22 108.38-31.62 130.63a4.73 4.73 0 002.46 8.77 4.65 4.65 0 002.44-.68c44.14-26.66 42.86-103.53 36-140.44A4.74 4.74 0 002247.54 819zM1573 1154.23H1176.42a4.72 4.72 0 00-4.73 4.72v231.7a4.72 4.72 0 004.73 4.72H1573a4.72 4.72 0 004.72-4.72V1159A4.72 4.72 0 001573 1154.23zm-4.73 231.69H1181.15V1163.68h387.08z" class="color571519 svgShape"></path><path fill="#78b4f1" fill-rule="evenodd" d="M1913.57,958.62c-7.16-.54-17.79-1.16-29.14-1.16a57.38,57.38,0,0,0-13.91,1.55,7.16,7.16,0,0,0-5.14,8.69c2.44,9.86,8.8,28,23,30.17,16.49,2.78,26.8-17.35,31.47-29.55A7.18,7.18,0,0,0,1913.57,958.62Z" class="colorf18878 svgShape"></path><path fill="#021b79" d="M1261.07 1135.43l-87.92 84.15a4.73 4.73 0 006.54 6.83l87.91-84.15a4.72 4.72 0 00-6.53-6.83zM1286 1155.54l-112.88 108a4.73 4.73 0 006.54 6.83l112.88-108a4.73 4.73 0 10-6.54-6.83z" class="color571519 svgShape"></path><path fill="#78b4f1" d="M1322.86,1177.09l-10.62,8.61A65.89,65.89,0,0,0,1322.86,1177.09Z" class="colorf18878 svgShape"></path><path fill="#78b4f1" d="M1332.56 1152.83c-1.42-14.13-45.38-6.17-45.38-6.17L1277 1170.42s1.94 40.84 20.36 40.95c17.56.1 25.52-34.33 25.52-34.33l-.06 0a65.89 65.89 0 01-10.62 8.61l10.62-8.61C1329.38 1170.42 1333.52 1162.41 1332.56 1152.83zM1217.51 1144.59l-.61-13.49A63.4 63.4 0 001217.51 1144.59z" class="colorf18878 svgShape"></path><path fill="#78b4f1" d="M1228.77,1107.79c-7.91,5.73-11.19,14.11-11.87,23.31l.61,13.49a63.4,63.4,0,0,1-.61-13.49V1131s-20.74,28.88-8.87,41.55c12.44,13.29,44.68-12.72,44.68-12.72l11.2-23.3S1240.43,1099.33,1228.77,1107.79Z" class="colorf18878 svgShape"></path><path fill="#021b79" d="M1234.76,1103.28a11.53,11.53,0,0,0-9.2,1.9c-11.48,8.33-15.91,22.22-13.16,41.3a4.73,4.73,0,0,0,4.67,4.06,5.19,5.19,0,0,0,.68,0,4.73,4.73,0,0,0,4-5.36c-2.24-15.54.82-26.1,9.35-32.29a2.16,2.16,0,0,1,1.86-.28c7.07,1.36,19.76,17,26.51,27.74a4.73,4.73,0,1,0,8-5C1264.4,1130.38,1248.36,1105.9,1234.76,1103.28Z" class="color571519 svgShape"></path><path fill="#021b79" d="M1249.32 1157.41c-9.41 7.58-31.14 20.78-38.27 13.16-7.5-8 4.48-28.88 9.27-35.56a4.73 4.73 0 10-7.68-5.51c-2.36 3.27-22.61 32.46-8.49 47.54a17 17 0 0013 5.27c15.78 0 35.33-15.29 38.11-17.54a4.73 4.73 0 10-5.93-7.36zM1332.64 1144.41c-11-8.29-40.5-3.46-46.3-2.41a4.73 4.73 0 001.68 9.31c12.75-2.31 33.26-3.63 38.93.65a1.82 1.82 0 01.91 1.34c1 10.32-4.93 19.63-18.23 28.46a4.73 4.73 0 105.23 7.88c16.27-10.8 23.81-23.34 22.4-37.28A11.17 11.17 0 001332.64 1144.41z" class="color571519 svgShape"></path><path fill="#021b79" d="M1324,1172.44a4.73,4.73,0,0,0-5.68,3.53c-1.85,8-9.65,30.67-20.84,30.67h0c-10.5-.06-15.09-24.58-15.66-36.44a4.73,4.73,0,0,0-9.45.45c.22,4.64,2.8,45.32,25.06,45.44h.11c20.67,0,29.14-34.09,30-38A4.71,4.71,0,0,0,1324,1172.44Z" class="color571519 svgShape"></path><path fill="#78b4f1" d="M1263,1139c-5.12,6.23-13.54,21.44-9.78,27.09,4.76,7.15,20.66,11.5,24.53,3,3.41-7.54,6.59-12.63,7.56-21.51S1269.39,1131.11,1263,1139Z" class="colorf18878 svgShape"></path><path fill="#021b79" d="M1278.86 1132.66c-7.62-3.2-15.3-1.91-19.57 3.3-3.71 4.52-16.3 23.33-10.06 32.71 3.79 5.68 12.22 9.78 19.77 9.78.55 0 1.09 0 1.62-.07 5.37-.43 9.41-3.07 11.38-7.41.63-1.39 1.26-2.7 1.86-4 2.69-5.65 5.23-11 6.1-19C1290.63 1141.92 1286.17 1135.74 1278.86 1132.66zM1263 1139h0zm12.34 24c-.63 1.31-1.27 2.68-1.93 4.13-.19.41-.76 1.66-3.54 1.89-4.42.34-10.61-2.33-12.74-5.52-1.33-2.39 3.45-14.12 9.49-21.48a5 5 0 014-1.57 12.09 12.09 0 014.58 1c3.21 1.35 5.57 3.82 5.37 5.62C1279.87 1153.41 1277.86 1157.61 1275.32 1162.94zM558.51 1068.26c-14.3 16-56 40.74-96.31 64.63-48.93 29-95.14 56.38-108.56 75.79-26.47 38.28-22 92.6-18.12 140.53.72 8.78 1.4 17.07 1.89 25.18 4.5 74.37-3 182.68-3 183.56s-.36 5.43 4.17 10.77c9.33 11 31.76 17.54 66.67 19.38 2.55.13 5.07.2 7.58.2 43.68 0 81-19.23 82.62-20.1a4.73 4.73 0 10-4.38-8.38c-.4.22-41.12 21.17-85.32 18.84-60-3.15-61.93-19.75-61.93-19.85.08-1.09 7.59-110 3.05-185-.5-8.2-1.18-16.54-1.9-25.37-3.79-46.35-8.08-98.88 16.47-134.38 12.24-17.71 59.7-45.83 105.59-73 42.83-25.38 83.28-49.35 98.56-66.47a4.73 4.73 0 10-7.06-6.3zM943.26 1086.91c-32.17-25.24-101.62-22.06-157.43-19.51-28.32 1.29-52.77 2.41-65.09-.58a4.72 4.72 0 10-2.23 9.18c13.63 3.32 38.71 2.17 67.75.84 54.24-2.48 121.75-5.56 151.17 17.51 19.75 15.5 86.45 163.27 112 222.3-7 8.79-36.71 43.29-86.62 60.3a4.73 4.73 0 003.05 9c60.05-20.47 91.54-64 92.86-65.84a4.75 4.75 0 00.49-4.61C1055.53 1307 969.3 1107.33 943.26 1086.91z" class="color571519 svgShape"></path><path fill="#021b79" d="M983.48 1506.36C970.69 1380.27 945.21 1267.08 945 1266a4.73 4.73 0 00-9.23 2.09c.26 1.12 25.61 113.79 38.34 239.28 7.16 70.55 9.22 157.49 10.87 227.34.91 38.55 1.7 71.62 3.12 95.34h9.48c-1.45-24-2.26-58-3.15-95.57C992.73 1664.42 990.67 1577.28 983.48 1506.36zM508 1610.45c-6.11-101.4-42.84-229.07-43.21-230.34a4.73 4.73 0 10-9.08 2.63c.36 1.27 36.81 127.92 42.85 228.28 4.45 73.9 6.58 163.2 7.85 216.56 0 .83 0 1.61.06 2.42h9.46c0-.88 0-1.74-.07-2.64C514.54 1773.93 512.41 1684.52 508 1610.45z" class="color571519 svgShape"></path><path fill="#cee6ff" d="M1582.14,1232.28c-11.66-9.47-46.9-17.65-61.56-20.74-4.49-.94-9.12,2-9.53,6.59s1.37,10.59,10.2,15.93c6.9,4.16,35.54,11.2,41.12,24,8.69,20,15.67,34.79,15.67,34.79l40.91-15.42C1605.77,1251.41,1597,1244.35,1582.14,1232.28Z" class="colorffe4ce svgShape"></path><path fill="#021b79" d="M734.83 1067.89a4.73 4.73 0 00-3.56 5.66c.09.4 9 40.63-7.37 66.58-6.64 10.52-16.69 17.35-29.89 20.32-56.72 12.78-183.35-48.85-184.62-49.47a4.73 4.73 0 10-4.16 8.49c4.79 2.35 107.19 52.14 171.27 52.14a89.58 89.58 0 0019.58-1.94c15.76-3.54 27.81-11.79 35.84-24.53 18.46-29.3 9-71.9 8.57-73.7A4.73 4.73 0 00734.83 1067.89zM379.77 1727.49c1.24-33.24-15-147.39-15.7-152.23a4.73 4.73 0 10-9.36 1.34c.17 1.18 16.82 118.14 15.62 150.54-.72 19.35 2.71 66.24 5.78 102.86h9.5C382.55 1793.44 379.08 1746.32 379.77 1727.49zM498.82 1743.24c-.15-10.18-.26-17.54.48-22.35 2.49-16.22-1.17-151.27-1.33-157a4.73 4.73 0 00-9.45.26c1.32 48.34 3.33 143 1.43 155.31-.86 5.6-.74 13.29-.59 23.93a609.6 609.6 0 01-3.94 86.62h9.52A621.2 621.2 0 00498.82 1743.24zM1173 1187.63c-1.25 1.32-30.86 32.43-44.75 52.81-9.18 13.45-8.5 43-7.79 74.37.45 19.4.86 37.73-1.26 50.14a4.73 4.73 0 003.86 5.46 5.49 5.49 0 00.8.06 4.73 4.73 0 004.66-3.92c2.28-13.31 1.85-32.08 1.4-52-.62-27.13-1.32-57.88 6.14-68.83 13.45-19.73 43.48-51.29 43.78-51.6a4.73 4.73 0 10-6.84-6.53zM1585.12 1228.61c-12-9.75-45-17.78-63.57-21.69a12.9 12.9 0 00-10.36 2.25 11.86 11.86 0 00-4.85 8.54c-.5 5.57 1.26 13.62 12.46 20.39a75.22 75.22 0 0010.35 4.48c9.58 3.7 25.61 9.88 28.89 17.4 8.62 19.79 15.65 34.76 15.72 34.91a4.74 4.74 0 004.28 2.72 4.81 4.81 0 002-.45 4.74 4.74 0 002.27-6.29c-.07-.15-7-15-15.61-34.66-4.85-11.15-21.79-17.68-34.16-22.45a79.6 79.6 0 01-8.86-3.75c-5.64-3.41-8.3-7.26-7.93-11.46a2.51 2.51 0 011.06-1.78 3.54 3.54 0 012.79-.6c29.75 6.27 52 13.66 59.69 19.89 14.67 11.91 22.75 18.47 35.43 43.54a4.73 4.73 0 008.44-4.27C1609.58 1248.46 1600.42 1241 1585.12 1228.61z" class="color571519 svgShape"></path><path fill="#021b79" d="M1127.69 1335.71a4.72 4.72 0 00-6.37 2c-6.85 13.31-25.07 24.07-58.15 43.59-11.48 6.78-24.5 14.46-39.54 23.72-30.81 19-42.17 29.15-42.64 29.57a4.73 4.73 0 006.35 7c.1-.11 11.34-10.13 41.24-28.53 15-9.22 28-16.88 39.4-23.64 34.6-20.41 53.65-31.66 61.75-47.4A4.74 4.74 0 001127.69 1335.71zM1219 1386.75a4.72 4.72 0 00-6.57 1.22c-7 10.18-16.76 14.16-30.29 19.66-8.66 3.53-18.48 7.52-29.36 14-18.06 10.76-47.26 39.25-78.18 69.42-36.07 35.19-73.37 71.58-92.14 78.79a4.73 4.73 0 001.7 9.14 4.8 4.8 0 001.69-.31c20.59-7.91 58.6-45 95.35-80.85 29.16-28.46 59.32-57.88 76.42-68.06 10.27-6.11 19.73-10 28.08-13.36 13.92-5.66 25.93-10.55 34.52-23.07A4.72 4.72 0 001219 1386.75z" class="color571519 svgShape"></path><path fill="#021b79" d="M1016.83,1358.89a4.73,4.73,0,0,0-9.14,2.43c.09.35,9.27,34.89,11.24,49.93a4.72,4.72,0,0,0,4.68,4.11,4.4,4.4,0,0,0,.62,0,4.72,4.72,0,0,0,4.07-5.3C1026.26,1394.38,1017.21,1360.33,1016.83,1358.89Z" class="color571519 svgShape"></path><path fill="#0575e6" fill-rule="evenodd" d="M897.49,692.18c0-5.47-20.33-29.71-50-37.53C802.1,642.14,738,646.05,738,646.05s-91.48-50-154.81.78c-11.73,9.38-46.91,14.07-59.42,43.79s-35.19,34.4-40.66,58.64c-4.69,21.11-3.91,79.75,3.12,100.08,11.73,32.06,34.41,46.13,49.26,71.93,3.13,6.26,10.95,26.59,10.17,37.53-.78,23.46-10.17,40.66,10.16,35.19,29.71-8.6,40.66,9.38,40.66,9.38l48.48-46.91s180.62-111,232.22-143.87C910,792.26,898.27,775.84,892,755.51,888.11,743.78,898.27,715.63,897.49,692.18Z" class="colore7b890 svgShape"></path><path fill="#cee6ff" fill-rule="evenodd" d="M566.75 990.08l1.53-.34C567.68 988.35 566.75 990.08 566.75 990.08zM845.88 857.16c-2.34-32.06 5.48-58.64 1.57-80.54-2.35-14.07-16.42-44.56-27.37-35.18s2.35 50.82-15.64 72.71c-7 8.6-55.78 24.42-84.88 27.26-4.69 1.57-15.5 2.52-19.41 3.3-8.6 3.13-20.81 10.1-26.28 14.79-6.26 5.48-5.47 16.42-11.73 14.08-11.73-4.69-22.68-34.41-22.68-34.41s-25.8-2.34-35.18 4.69c-11.73 8.6-10.95 32.06-6.26 47.7 3.91 14.07 25.81 33.62 25.81 33.62s-7.82 33.62-17.2 46.13c-8.13 10.83-32.07 17-38.35 18.43.85 2 1 10.21-3.09 38.65-4.7 35.19 157.16 94.61 159.5 74.28 1.56-12.51 5.47-42.22 10.95-54.73 9.38-19.55 76.62.78 90.7-14.08 15.63-16.41 18-32 21.11-50.82 3.91-22.67 8.6-50.82 8.6-53.95 6.25-22.67 18-22.67 18-40.66C873.25 874.36 846.67 869.67 845.88 857.16z" class="colorffe4ce svgShape"></path><path fill="#021b79" d="M644.82,920.46c-12.78.37-23.81-4-31.9-12.48-9.21-9.64-13.66-23.68-12.52-39.55.72-10.38,3.81-17.61,9.19-21.46,5.95-4.27,15.08-4.83,27.11-1.66a4.72,4.72,0,0,0,2.4-9.14c-14.88-3.92-26.66-2.87-35,3.11-7.77,5.58-12.19,15.16-13.12,28.49-1.32,18.55,4,35.15,15.12,46.74,9.52,10,22.78,15.42,37.48,15.42l1.5,0a4.72,4.72,0,0,0,4.6-4.85A4.79,4.79,0,0,0,644.82,920.46Z" class="color571519 svgShape"></path><path fill="#78b4f1" fill-rule="evenodd" d="M773.17,943.57S784.11,986,807.57,982c19.55-3,24.24-36.47,24.24-36.47s-6.26-3.94-20.33-3.94C791.15,941.6,773.17,943.57,773.17,943.57Z" class="colorf18878 svgShape"></path><path fill="#021b79" d="M626.89,870.65a4.68,4.68,0,0,0-5.88,2.9,4.78,4.78,0,0,0,2.78,6c.21.08,5.24,2.14,8.94,11.38a4.72,4.72,0,0,0,4.39,3,4.78,4.78,0,0,0,1.76-.34,4.72,4.72,0,0,0,2.63-6.14C636.16,874.08,627.82,871,626.89,870.65Z" class="color571519 svgShape"></path><path fill="#021b79" fill-rule="evenodd" d="M816.17,838.88c-5.46-.38-10.57,5.53-11.12,13.34s2.87,15.09,7.55,15.41c5.46.39,10.58-5.53,11.12-13.33S820.85,839.21,816.17,838.88Z" class="color571519 svgShape"></path><path fill="#021b79" d="M828.74 784.12c-13.09-6.54-29-5.21-41.56 3.47a4.73 4.73 0 005.39 7.78c9.7-6.72 21.94-7.79 31.94-2.79a4.73 4.73 0 004.23-8.46zM853.53 940.82a4.74 4.74 0 00-5.3 4.08A513.17 513.17 0 01839 998.28c-6.72 26-13.73 34.17-30.07 34.77-12 .62-21.87.25-30.58-.08-13.32-.5-23.85-.89-34.06 2.68-21.6 7.52-22.74 46.54-23.5 72.35a4.72 4.72 0 004.58 4.87h.15a4.73 4.73 0 004.72-4.59c.64-21.81 1.71-58.32 17.16-63.7 8.53-3 17.79-2.64 30.6-2.16 8.9.33 19 .71 31.35.08 26.11-1 33.26-20.35 38.83-42a523.55 523.55 0 009.47-54.4A4.74 4.74 0 00853.53 940.82z" class="color571519 svgShape"></path><path fill="#021b79" d="M865.56,870.11a61.58,61.58,0,0,1-8.72-6.32c-5.6-5-7.71-9.77-6.25-26.55a4.73,4.73,0,0,0-9.42-.82c-1.59,18.33.69,26.7,9.34,34.39a70.33,70.33,0,0,0,10,7.27c7.24,4.62,9.95,6.82,9.63,11.6,0,.11,0,.21,0,.32,0,4.69-3.55,9.55-7.31,14.7-2.65,3.64-5.39,7.39-7.12,11.48-5,10.13-6.6,29.69-6.67,30.52a4.73,4.73,0,0,0,4.33,5.09h.39a4.71,4.71,0,0,0,4.7-4.35c.42-5.18,2.27-20.18,5.78-27.19l.13-.3c1.3-3.1,3.63-6.3,6.1-9.69,4.25-5.81,9.06-12.4,9.12-20.11C880.18,879.45,872.41,874.49,865.56,870.11Z" class="color571519 svgShape"></path><path fill="#021b79" d="M841.4 744.59a4.73 4.73 0 00-8.24 4.64c7.41 13.17 9 22.21 9.62 28.11 3.13 20.38.51 41.31-1.59 58.12a4.74 4.74 0 004.11 5.28 5.85 5.85 0 00.59 0 4.72 4.72 0 004.68-4.15c2.18-17.39 4.89-39 1.58-60.48C851.12 765.82 847.7 755.79 841.4 744.59zM834.33 941.54c-.76-.47-7.84-4.67-22.85-4.67-20.35 0-38.08 1.92-38.83 2a4.74 4.74 0 00-4.06 5.89c.47 1.8 11.21 42.26 35.79 42.26a23 23 0 003.9-.34c22.77-3.44 28-39 28.21-40.48A4.74 4.74 0 00834.33 941.54zm-27.54 35.81c-14.3 2.4-23.69-19.24-27.34-29.62 6.86-.57 19-1.4 32-1.4a47.87 47.87 0 0115 2.07C824.42 958.22 818.42 975.59 806.79 977.35zM795.34 836.64a4.73 4.73 0 005.67 7.57c8-6 19.41-3.31 24.28.81a4.73 4.73 0 006.11-7.22C822.9 830.62 806.7 828.12 795.34 836.64zM896.6 755.15c-1.51-6.06.12-12.4 2.2-20.43 2.5-9.68 5.61-21.73 3.37-36.94-4.58-33-47.66-53.31-109.57-51.77a4.73 4.73 0 10.23 9.45c55.94-1.42 96.16 16.13 100 43.66 2 13.36-.76 23.92-3.17 33.24-2.22 8.58-4.31 16.69-2.21 25.08a80.12 80.12 0 004.44 12c5.37 12.44 10 23.18-5.08 34.75a4.73 4.73 0 002.88 8.48 4.66 4.66 0 002.87-1c21-16 13.47-33.36 8-46A72.3 72.3 0 01896.6 755.15zM783.2 625.91a4.72 4.72 0 00-5.94 3.07c-4.22 13.26-22.34 11.67-23.16 11.58a4.73 4.73 0 00-1 9.41 34.31 34.31 0 003.52.17c9.79 0 25-3.69 29.62-18.3A4.71 4.71 0 00783.2 625.91zM781.61 775c-10.74 6.71-14 18-16.83 28-1 3.39-1.89 6.59-3.13 9.73-2.27 6.78-8.17 15.84-23.46 20.42a102.78 102.78 0 01-12.78 2.18c-23.13 3.15-66.2 9-64.08 48a4.73 4.73 0 004.72 4.47h.26a4.73 4.73 0 004.46-5c-1.52-27.9 26.79-34.1 55.92-38.07 6-.82 10.8-1.47 14.21-2.49 19.18-5.75 26.75-17.58 29.62-26.23a109 109 0 003.35-10.37c2.62-9.14 5.09-17.77 12.75-22.56a4.73 4.73 0 00-5-8zM649.13 823.38a4.73 4.73 0 10-8.38-4.38c-9.84 18.78-2.33 38.39 8.8 48.67a4.73 4.73 0 106.41-6.95C647.39 852.81 641.6 837.75 649.13 823.38zM739.5 640.35c-43.93-24.4-121.37-29.41-159.24.41-23.87 18.64-34.81 22-50.88 15.74a4.73 4.73 0 00-3.45 8.81 46.22 46.22 0 0017 3.6c12.37 0 24.77-6.34 43.16-20.71 35.07-27.6 107.49-22.54 148.81.42a4.73 4.73 0 004.6-8.27zM621.49 915.83a4.72 4.72 0 00-3.89 5.44c2.35 14.07-4.11 34.55-14.69 46.63-4 4.53-10.35 9.89-18 9.64a4.72 4.72 0 10-.31 9.44c.28 0 .57 0 .85 0 8.72 0 17.2-4.44 24.59-12.87 12.44-14.2 19.71-37.6 16.91-54.42A4.72 4.72 0 00621.49 915.83zM572.94 959.62a4.74 4.74 0 00-3.81 5.5c1.29 7.08.34 12.83-2.81 17.1-3.47 4.71-9.57 7.61-18.12 8.64a4.73 4.73 0 00.56 9.42l.57 0c11.08-1.34 19.59-5.63 24.6-12.42 4.69-6.36 6.25-14.8 4.51-24.4A4.75 4.75 0 00572.94 959.62zM520.33 892.45c-11.86-14-21.23-25.06-28.86-48.56-3.86-11.19-15.31-51.07-.77-94.7a4.73 4.73 0 10-9-3c-15.48 46.45-3.3 88.87.77 100.69 8.19 25.19 18.58 37.46 30.62 51.67 3.46 4.09 7 8.31 10.72 13 8.18 11.15 23.16 46.69 13.85 62a4.73 4.73 0 008.08 4.91c12.38-20.34-5.22-60.1-14.4-72.62C527.48 900.89 523.85 896.6 520.33 892.45zM534.09 672.81c-15.91 4.89-20.09 15.41-23.78 24.69-1.72 4.34-3.35 8.43-6.08 12.3s-10.81 12.93-24.57 9.1a4.73 4.73 0 10-2.53 9.11 33.68 33.68 0 009 1.26c10.16 0 19.42-4.92 25.8-14A65.31 65.31 0 00519.1 701c3.59-9 6.19-15.59 17.76-19.15a4.72 4.72 0 10-2.77-9z" class="color571519 svgShape"></path><path fill="#021b79" d="M834.24 723c-7.51.45-13.5 4.62-16.82 11.64C811 747.57 810.11 762 809.29 776c-.54 9.44-1.06 18.36-3.14 26.67-2.59 9.08-7.17 14.9-22.88 17.76a4.73 4.73 0 00.84 9.38 5 5 0 00.85-.08c17.22-3.13 26.28-10.45 30.33-24.61 2.32-9.33 2.89-19.11 3.44-28.58.79-13.62 1.54-26.5 7.19-37.79 1.87-4 4.87-6.1 8.89-6.34 6.53-.38 14.27 4.35 18.8 11.53a4.73 4.73 0 008-5.05C855.21 728.78 844.17 722.35 834.24 723zM874.67 788.41A4.73 4.73 0 00871 794a21 21 0 01-4.74 17.4 21.71 21.71 0 01-16.43 8.22 4.73 4.73 0 000 9.45 30.81 30.81 0 0023.74-11.68 30.43 30.43 0 006.7-25.25A4.72 4.72 0 00874.67 788.41zM747.38 773a4.72 4.72 0 00-6 2.87c-5.24 14.75-15.41 27.18-26.57 32.46-6.12 2.9-12 3.38-17.42 1.42a4.73 4.73 0 00-3.2 8.9 29.23 29.23 0 009.93 1.73 34.38 34.38 0 0014.74-3.5c13.34-6.32 25.38-20.82 31.43-37.84A4.74 4.74 0 00747.38 773zM570.16 983.79a4.76 4.76 0 00-5 4.44c-.31 5.13-.54 10.45-.78 16-1 22.72-2.07 48.47-9.51 82.57a4.72 4.72 0 003.61 5.62 4.4 4.4 0 001 .11 4.73 4.73 0 004.61-3.72c7.62-34.89 8.79-62.22 9.73-84.17.23-5.51.46-10.77.77-15.85A4.74 4.74 0 00570.16 983.79z" class="color571519 svgShape"></path><path fill="#cee6ff" d="M1987.94,1665.46c7.06-8.77,0-26.44,0-26.44,7.37-10.45-2.46-23.36-4.92-26.76,4.45-10.9-2.46-31-11.07-32.88s-75.77-7.76-92.83,0c-12.06,5.49-20.29,27.06-22.75,40.58s.62,18.44,3.69,22.75,11.07,4.3,11.07,4.3c5.94,25.36,17,49.23,37,70.55l87.27,4.14C2003.62,1711.86,1984.82,1669.31,1987.94,1665.46Z" class="colorffe4ce svgShape"></path><path fill="#021b79" d="M1897.19,1610.72a4.74,4.74,0,0,0-6.11,2.71c-1,2.73-6.33,16.43-6.8,17.84a4.73,4.73,0,0,0,9,3c.33-1,4.25-11.21,6.65-17.43A4.72,4.72,0,0,0,1897.19,1610.72Z" class="color571519 svgShape"></path><path fill="#021b79" d="M1929.93 1612.34c-40.38-4.75-42.53-3.89-43.81-3.38a4.73 4.73 0 002.81 9c3.31-.2 22.67 1.75 39.9 3.77a3.39 3.39 0 00.55 0 4.73 4.73 0 00.55-9.43zm-40.3 5.4h0zM1748 1482c-3.81-25-7.1-46.57-6.64-81.35.55-41.83 17-69.13 34.45-98 11.59-19.2 23.57-39.06 30.37-63.38a4.73 4.73 0 10-9.11-2.55c-6.45 23.09-18.09 42.38-29.35 61-17.32 28.71-35.23 58.39-35.81 102.79-.47 35.55 2.87 57.49 6.74 82.89 2.17 14.21 4.62 30.31 6.63 50.62 5.66 57.39 16.29 192.28 18.66 296h9.45c-2.37-104-13-239.33-18.7-296.88C1752.69 1512.56 1750.22 1496.33 1748 1482zM2209.62 1438.92a4.73 4.73 0 00-9.33-1.56c-1.1 6.58-27 161.73-24.65 212.94 2 44 15.51 134.3 33 179.7h10.21c-16.27-39.89-31.5-130.28-33.76-180.13C2182.81 1599.66 2209.35 1440.52 2209.62 1438.92z" class="color571519 svgShape"></path><path fill="#021b79" d="M1948.57,1090.8c-21.75,12.3-46.71,15.75-70.85,19.09-29.17,4-59.34,8.21-84.58,27.83-20.06,15.59-41.86,78.91-61.1,134.78-8.39,24.36-15.63,45.4-21.16,57.56a4.73,4.73,0,0,0,1,5.36c.47.45,11.76,11.12,34.77,14.31a4.89,4.89,0,0,0,.66,0,4.73,4.73,0,0,0,.64-9.41c-14-1.95-22.93-7-27-9.81,5.47-12.81,12.25-32.49,20-55,16.93-49.18,40.13-116.53,58-130.4,23.24-18.06,50.85-21.88,80.08-25.92,25-3.46,50.88-7,74.21-20.22a4.73,4.73,0,0,0-4.66-8.24Z" class="color571519 svgShape"></path><path fill="#021b79" d="M1742.51 1364.34c-.75-.36-75.91-36.95-101.84-60.21-16.57-14.85-20.24-42.83-22.92-63.25-1.48-11.35-2.66-20.32-5.62-25.63-10.18-18.24-37.14-23.61-38.28-23.83a4.73 4.73 0 10-1.78 9.29c.23 0 23.75 4.71 31.8 19.14 2.08 3.74 3.26 12.73 4.51 22.25 2.87 21.9 6.8 51.88 26 69.07 26.93 24.14 100.9 60.16 104 61.68a4.71 4.71 0 006.32-2.19A4.73 4.73 0 001742.51 1364.34zM1745.86 1477.58c-47.27-32.86-107.75-91.72-131.56-115.5a25.33 25.33 0 00-8.5-5.68c-13.81-5.56-29.2-22.26-29.35-22.43a4.73 4.73 0 00-7 6.38c.68.75 17 18.45 32.8 24.82a16.09 16.09 0 015.35 3.6c24 24 85 83.28 132.85 116.57a4.72 4.72 0 005.39-7.76zM2137.22 1112.41c-36.63 24.54-137.86 84.81-166 69.16-34.59-19.24-48-74.34-48.09-74.9a4.73 4.73 0 00-9.2 2.17c.57 2.43 14.43 59.71 52.7 81 4.4 2.45 9.92 3.54 16.27 3.54 49 0 147.27-64.82 159.64-73.11a4.73 4.73 0 00-5.27-7.85zM1913.93 953.91c-7.07-.54-17.92-1.18-29.5-1.18a61.82 61.82 0 00-15.06 1.7 11.92 11.92 0 00-8.58 14.4c2.85 11.51 10.11 31.19 26.77 33.71a23.11 23.11 0 003.86.32c13.09 0 24.63-11.48 32.8-32.85a11.74 11.74 0 00-1-10.57A11.88 11.88 0 001913.93 953.91zm1.46 12.72c-3.35 8.76-12.6 28.86-26.34 26.57-11.72-1.77-17.24-19.21-19.08-26.63a2.44 2.44 0 011.71-3 52.47 52.47 0 0112.75-1.41c11.28 0 21.88.62 28.78 1.15a2.5 2.5 0 012 1.16A2.32 2.32 0 011915.39 966.63z" class="color571519 svgShape"></path><path fill="#cee6ff" d="M1244.53,1234.53c-15-.51-51.14-1-64.74,5.38-17.33,8.16-27.53,12.92-46.56,35.06l36,24.76s10.32-12.73,23.54-30c8.5-11.12,38-11.09,45.69-13.48,9.84-3.06,13-8.43,13.71-13S1249.11,1234.69,1244.53,1234.53Z" class="colorffe4ce svgShape"></path><path fill="#021b79" d="M1244.69 1229.81c-19-.65-52.91-.76-67.07 5.9-17.68 8.32-28.34 13.34-48 36.17a4.73 4.73 0 107.16 6.17c18.32-21.3 27.74-25.74 45-33.86 8.78-4.13 32.16-6 62.56-4.93a3.51 3.51 0 012.56 1.25 2.5 2.5 0 01.6 2c-.64 4.16-4.15 7.27-10.45 9.22a75.81 75.81 0 01-9.5 1.52c-13.15 1.67-31.16 4-38.54 13.61-13 17-23.35 29.78-23.45 29.91a4.73 4.73 0 107.34 6c.1-.13 10.52-13 23.63-30.12 5-6.52 22-8.68 32.21-10a75.1 75.1 0 0011.12-1.87c12.5-3.89 16.14-11.29 17-16.81a11.79 11.79 0 00-2.66-9.45A13 13 0 001244.69 1229.81zM2229.88 1510.88c-6.94 2.77-9.56 2-10.19 1.69-.32-.15-.43-.31-.46-.42a1.24 1.24 0 01.05.3l-9.4 1.08a10 10 0 004.83 7.09 13.24 13.24 0 006.92 1.73 32.59 32.59 0 0011.77-2.69 4.73 4.73 0 00-3.52-8.78zM2367.93 1476.81a4.73 4.73 0 00-3.79 5.5 3.15 3.15 0 01-.41 2.77c-.57.73-2.57 2.5-8.92 3a5 5 0 00-3.82 1.85l3.72 2.91.82 4.67c7.45-.57 12.73-2.8 15.69-6.64a12.48 12.48 0 002.22-10.25A4.73 4.73 0 002367.93 1476.81zm-9.47 18.9h0z" class="color571519 svgShape"></path><path fill="#cee6ff" d="M2227.77,1501.79s17.24,63,24.82,100.45c-20.87,1.53-75.61,27.28-104.81,32.47-24.12,4.29-121.87,18.57-129.11,12.3-16.44-14.24-40.25-62.55-40.25-62.55l-35.67,139.09s12.6,12.6,42.42,14.76c21.92,1.58,24-4.61,34.12-5.54s191.81-10.14,248.06-15.67,97.45-35.68,101.44-48c10.26-31.55-16.61-192.15-16.61-192.15Q2278.8,1468.08,2227.77,1501.79Z" class="colorffe4ce svgShape"></path><path fill="#021b79" d="M2351.39,1472.33a4.73,4.73,0,0,0-3.88,5.44c7.42,44.36,24.9,164.93,16.78,189.91-3,9.33-41.22,39.19-97.4,44.71-40.47,4-148,10-205.83,13.22-23.66,1.32-39.29,2.19-42.2,2.45a36.24,36.24,0,0,0-10.19,2.66c-4.92,1.88-10,3.82-23.16,2.87-27.4-2-39.32-13.29-39.42-13.38a4.72,4.72,0,0,0-6.68,6.68c.56.57,14.2,13.88,45.42,16.13,2.55.19,4.86.27,7,.27a49.7,49.7,0,0,0,20.24-3.73,26.94,26.94,0,0,1,7.68-2.08c2.74-.25,19.15-1.17,41.87-2.44,57.86-3.23,165.56-9.24,206.22-13.24,56.94-5.6,100.65-36.33,105.48-51.2,10.49-32.28-15.35-187.78-16.45-194.39A4.72,4.72,0,0,0,2351.39,1472.33Z" class="color571519 svgShape"></path><path fill="#021b79" d="M1992.41,1667.36c6-8.89,2.58-22.31.74-27.81,4.17-7.79,2.52-17.21-4.89-28.07,2.31-8.66-.21-19.42-3.85-26.32-3.1-5.86-7.06-9.45-11.47-10.4-8.34-1.79-76.82-8.31-95.78.32-15,6.84-23.21,31.8-25.44,44-2.68,14.75.59,20.88,4.49,26.34,4.36,6.1,13.85,6.28,14.92,6.28a4.73,4.73,0,0,0,0-9.46c-2.36,0-6.18-.83-7.24-2.32-2.5-3.49-5.08-7.1-2.89-19.15,2.31-12.68,10-32.57,20.06-37.12,15.14-6.89,80.91-1.61,89.88.32,1.12.24,3.12,1.84,5.08,5.56,3.53,6.67,4.67,15.85,2.6,20.9a4.72,4.72,0,0,0,.55,4.56l.24.33c6.63,9.12,8.15,16,4.64,20.93a4.77,4.77,0,0,0-.53,4.48c1.56,3.93,5,16.36.72,21.72-3.14,3.89-.72,8.51,1.24,12.23,3.21,6.1,4.13,9.15,1.51,12.29a4.73,4.73,0,0,0,7.25,6.07c7.11-8.51,2.41-17.43-.39-22.76C1993.37,1669.37,1992.73,1668.16,1992.41,1667.36Z" class="color571519 svgShape"></path><path fill="#021b79" d="M2334.7 1616.76c-30.22-22.08-53.17-22.44-72.3-21-11.44.84-34.12 8.64-58.12 16.89-21.45 7.38-43.64 15-57.33 17.45-31.72 5.64-115.57 16.9-125.44 13.15-15.54-13.76-38.61-60.36-38.85-60.84a4.73 4.73 0 10-8.48 4.18c1 2 24.43 49.33 41.4 64 1.32 1.15 3.15 2.73 14.42 2.73 8.75 0 23.17-1 47.45-3.79 28.47-3.34 58.75-8 71.16-10.15 14.41-2.56 36.95-10.32 58.75-17.82 22.37-7.69 45.51-15.65 55.73-16.4 17.46-1.27 38.41-.94 66 19.25a4.73 4.73 0 005.58-7.64zM1965 1717c-3.16-1.18-9.39-1-22.83-.47-8 .35-17 .74-21.62.21-7-.82-17.19-6-19.51-11.22-.51-1.15-.83-2.6.67-4.72 6.82-9.59 41-9.25 53.9-9.13h.35a4.59 4.59 0 004.57-4.68 4.86 4.86 0 00-4.83-4.78c-27-.26-53.19 1.14-61.7 13.11a13.8 13.8 0 00-1.6 14c4.15 9.35 18.37 15.75 27 16.76a64.84 64.84 0 007.49.33c4.7 0 10.23-.24 15.65-.47 7.19-.31 17-.74 19.09-.12A4.73 4.73 0 001965 1717z" class="color571519 svgShape"></path><path fill="#021b79" d="M2225.51,1494.09a4.73,4.73,0,0,0-3.2,5.87c.25.84,24.66,83.88,25.56,102.51a4.73,4.73,0,0,0,4.72,4.5h.23a4.73,4.73,0,0,0,4.49-4.94c-.95-19.75-24.91-101.27-25.93-104.73A4.72,4.72,0,0,0,2225.51,1494.09Z" class="color571519 svgShape"></path><path fill="#021b79" d="M2343.08 1343.67c-3.51-11.46-6.71-23.11-9.8-34.38-10.66-38.9-20.74-75.64-42-100.61-24-28.1-85.71-63.26-133.3-87.82-4.63-2.39-9-4.58-13.08-6.62-19.92-10-33.07-16.56-37.05-27.19-5-13.37-6.93-69.34-4.49-98.65a4.73 4.73 0 10-9.42-.78c-2.29 27.53-.88 86.94 5 102.75 5.29 14.11 19.77 21.36 41.67 32.32 4.05 2 8.38 4.2 13 6.57 66.2 34.16 112.53 64.54 130.44 85.55 19.94 23.37 29.75 59.13 40.13 97 3.1 11.33 6.32 23.06 9.86 34.64 11.33 37 24.41 105.17 28.68 128.11-37.59-10.36-93.3-2.53-125.1 12.47-8.32 3.93-14.87 8.19-19.59 12.74-3-28.28-11-94.67-22.21-115.66a4.73 4.73 0 00-8.34 4.46c13.22 24.69 22.31 123.87 22.4 124.87a4.74 4.74 0 004.14 4.27l.57 0a4.72 4.72 0 004.47-3.19c2.2-6.39 10.22-13.13 22.59-19 32.33-15.25 90.47-22.78 125.5-9.67a4.73 4.73 0 006.31-5.27C2373.28 1479.71 2356.93 1388.93 2343.08 1343.67zM1944.74 1608.46c-6.35.44-65 19.57-72.94 29.07-5.13 6.16-7.12 16.31-4.82 24.7a21.52 21.52 0 0013.79 15.06 4.81 4.81 0 001.58.27 4.73 4.73 0 001.58-9.19 12 12 0 01-7.83-8.64c-1.48-5.41-.21-12.35 3-16.15 5.11-6.13 58-24.46 66-25.64a4.73 4.73 0 003.63-8.2A5.08 5.08 0 001944.74 1608.46z" class="color571519 svgShape"></path><path fill="#021b79" d="M1950.35,1645.41c-5.14.77-50.47,7.71-60.75,14.2-8.72,5.51-16.68,13.4-9.61,30.12,3.57,8.44,11.37,10.7,17.46,10.7a22.29,22.29,0,0,0,5.22-.59,4.73,4.73,0,0,0-2.22-9.19c-.37.1-8.93,2.08-11.75-4.6-4.22-10-1.7-13.61,6-18.44,6.48-4.09,38.46-10.06,57.1-12.85a4.73,4.73,0,1,0-1.4-9.35Z" class="color571519 svgShape"></path></svg>