<svg width="510" height="300" viewBox="0 0 510 300" fill="none" xmlns="http://www.w3.org/2000/svg">
<path fill-rule="evenodd" clip-rule="evenodd" d="M251.024 0C301.569 0 322.862 36.1633 359.348 64.2761C407.643 101.484 455.931 77.2629 463.665 202.977C470.545 314.867 384.67 215.091 263.589 255.172C142.508 295.253 19.1861 311.392 55.7802 181.713C92.3743 52.0344 133.587 0 251.024 0Z" fill="#E0EAF5"/>
<path fill-rule="evenodd" clip-rule="evenodd" d="M249.738 105.233C237.773 116.157 242.974 127.086 251.816 147.375C260.658 167.664 262.221 242.59 262.221 242.59L254.942 241.551C254.942 241.551 255.987 164.547 246.1 143.734C236.213 122.921 232.045 112.518 223.203 119.283C214.36 126.047 249.738 105.233 249.738 105.233Z" fill="#C4D7EB"/>
<path fill-rule="evenodd" clip-rule="evenodd" d="M256.307 91.0846C254.861 84.6087 246.225 77.606 234.685 71.6569C236.408 81.2092 241.897 96.8242 236.213 100.029C228.532 104.345 235.468 82.5422 232.505 70.5625C221.666 65.2682 208.621 60.9432 196.621 58.7923C196.644 58.8389 196.656 58.8796 196.667 58.9262C203.431 76.0954 212.274 82.8595 208.633 85.4586C205.9 87.4174 196.979 67.585 185.185 57.4185C176.343 56.947 168.857 58.1433 164.436 61.6504C157.594 67.0669 152.998 71.8722 159.878 88.3662C163.805 91.1749 168.904 93.189 174.818 93.7827C190.424 95.3457 197.715 95.8608 186.783 101.068C181.431 103.617 172.475 100.925 165.196 99.2836C167.551 103.629 170.455 108.548 173.98 114.153C176.218 117.707 178.677 120.789 181.294 123.461C186.323 124.425 190.71 124.433 193.029 123.441C200.308 120.321 219.038 110.431 223.724 114.596C228.305 118.668 189.033 121.249 191.754 131.602C210.792 142.569 232.578 137.35 236.422 127.28C241.597 113.761 260.682 110.576 256.307 91.0846Z" fill="white"/>
<path fill-rule="evenodd" clip-rule="evenodd" d="M216.954 165.067C237.773 149.455 259.095 164.022 270.027 180.674C280.947 197.322 273.15 234.78 273.15 234.78C273.15 234.78 268.982 234.78 268.982 233.223C268.982 231.66 280.429 189.001 253.376 169.745C236.451 157.704 224.244 163.504 222.682 169.226C221.119 174.949 229.446 185.357 229.446 185.357L216.954 165.067Z" fill="#C4D7EB"/>
<path fill-rule="evenodd" clip-rule="evenodd" d="M264.826 132.982C244.007 132.982 237.243 165.243 242.974 183.969C248.693 202.701 256.502 237.558 256.502 237.558L261.703 232.357C261.703 232.357 241.929 183.451 246.615 161.596C251.301 139.744 262.736 136.1 264.826 136.1C266.904 136.102 264.826 132.982 264.826 132.982Z" fill="#C4D7EB"/>
<path fill-rule="evenodd" clip-rule="evenodd" d="M247.375 184.117C245.905 182.176 244.1 180.575 241.897 179.51C242.185 181.064 242.54 182.554 242.977 183.969C245.585 192.505 248.614 204.386 251.164 214.791C251.382 213.461 251.749 211.406 252.29 208.24C252.427 207.489 252.52 206.677 252.602 205.818C250.553 198.885 248.626 191.329 247.375 184.117Z" fill="#C4D7EB"/>
<path fill-rule="evenodd" clip-rule="evenodd" d="M241.679 184.272C202.142 167.621 222.973 144.773 188.11 159.864C185.654 160.926 182.668 163.607 179.67 167.301C182.77 168.182 186.524 168.817 190.715 168.188C201.118 166.625 197.479 174.952 180.301 177.033C177.074 177.423 174.445 177.968 172.263 178.73C164.075 194.441 160.391 215.112 177.705 222.295C181.116 223.715 185.331 224.522 190.026 224.827C195.366 220.581 188.716 196.013 196.961 199.404C204.86 202.663 194.47 220.464 195.893 224.949C203.702 224.81 212.349 223.535 220.592 221.486C223.866 219.655 226.369 217.199 227.126 213.974C229.734 203.045 212.565 196.281 212.038 186.915C211.566 178.308 218.342 205.856 236.268 209.914C252.494 202.338 260.166 192.055 241.679 184.272ZM269.856 154.835C265.688 145.99 276.62 143.906 276.09 150.67C275.642 156.668 275.583 171.236 281.728 175.203C292.328 174.053 306.749 169.78 317.658 163.269C317.795 162.39 317.658 161.485 317.198 160.557C312.512 151.191 282.336 143.388 291.705 140.268C299.156 137.779 312.236 152.454 322.766 159.847C329.094 155.044 333.331 149.325 333.331 142.942C333.331 134.295 322.824 124.513 309.241 119.836C303.132 120.456 297.447 123.794 288.582 128.823C275.479 136.248 278.511 124.242 290.902 117.12C280.2 117.673 269.544 122.24 261.677 133.157C261.677 133.157 262.425 137.823 257.486 145.041C244.016 164.728 259.564 176.221 278.145 175.476C277.091 170.287 272.728 160.944 269.856 154.835Z" fill="white"/>
<path fill-rule="evenodd" clip-rule="evenodd" d="M218.206 164.183C208.033 172.048 196.732 181.239 182.863 187.482C168.98 193.728 171.759 214.076 171.759 214.076C171.759 214.076 169.681 196.502 181.245 190.489C192.808 184.478 200.434 177.307 209.218 175.921C218.013 174.53 222.871 173.145 222.871 173.145C222.871 173.145 220.092 167.594 221.71 165.513C223.328 163.432 218.206 164.183 218.206 164.183ZM168.06 71.8584C205.289 81.8008 232.572 105.621 237.668 111.404C242.756 117.181 242.756 118.802 242.756 118.802L238.818 126.201L236.97 125.275C236.97 125.275 239.979 119.035 232.112 110.941C218.552 96.9792 202.049 85.9628 190.716 81.1081C179.382 76.2504 168.06 71.8584 168.06 71.8584Z" fill="#C4D7EB"/>
<path fill-rule="evenodd" clip-rule="evenodd" d="M270.834 277.941H256.607C246.49 277.941 238.291 269.742 238.291 259.625V226.945H289.15V259.625C289.147 269.739 280.951 277.941 270.834 277.941Z" fill="#B0CAE4"/>
<path d="M289.147 232.784H238.291V236.364H289.147V232.784Z" fill="white"/>
<path d="M289.147 239.312H238.291V241.417H289.147V239.312Z" fill="white"/>
<path d="M73.4443 300C105.035 300 130.645 296.36 130.645 291.868C130.645 287.377 105.035 283.736 73.4443 283.736C41.8532 283.736 16.2437 287.377 16.2437 291.868C16.2437 296.36 41.8532 300 73.4443 300Z" fill="#C4D7EB"/>
<path d="M452.066 300C483.657 300 509.267 296.36 509.267 291.868C509.267 287.377 483.657 283.736 452.066 283.736C420.475 283.736 394.866 287.377 394.866 291.868C394.866 296.36 420.475 300 452.066 300Z" fill="#C4D7EB"/>
<path fill-rule="evenodd" clip-rule="evenodd" d="M109.779 194.906C109.576 195.852 109.366 196.798 109.148 197.744L103.196 223.619H87.5692L74.0557 162.134H91.0299L95.7275 188.576C95.9894 190.057 96.2484 191.542 96.4958 193.029C96.8218 191.466 97.1536 189.903 97.4854 188.343L103.045 162.131H118.034L123.2 188.678C123.409 189.761 123.616 190.846 123.817 191.929C124.024 190.727 124.233 189.525 124.443 188.32L129.458 162.131H145.87L131.32 223.616H115.598L110.35 197.698C110.149 196.766 109.96 195.838 109.779 194.906ZM162.492 209.27H183.102V223.616H146.394V162.131H181.934V176.477H162.495V184.787H180.837V198.914H162.495V209.27H162.492ZM202.25 209.197H222.347V223.616H186.149V162.131H202.25V209.197ZM266.378 164.739L264.599 163.767C261.136 161.878 255.568 161.325 251.714 161.325C245.928 161.325 240.197 162.719 235.255 165.775C225.479 171.823 221.521 182.449 221.521 193.565C221.521 211.473 231.853 224.344 250.399 224.344C254.476 224.344 260.245 223.761 263.973 221.96L265.772 221.09L263.31 207.128L260.239 208.458C257.978 209.439 254.631 209.849 252.154 209.849C241.982 209.849 238.134 202.337 238.134 192.98C238.134 183.742 242.115 175.671 252.227 175.671C255.009 175.671 257.614 176.174 260.167 177.28L263.048 178.529L266.378 164.739ZM291.909 161.255C309.421 161.255 317.719 176.291 317.719 192.179C317.719 203.108 314.62 214.896 304.666 220.889C300.576 223.351 295.928 224.419 291.178 224.419C273.514 224.419 265.298 209.055 265.298 193.055C265.298 182.673 268.796 171.654 277.694 165.528C281.917 162.62 286.801 161.255 291.909 161.255ZM363.543 194.874C363.217 195.986 362.888 197.098 362.553 198.204L355.117 222.81H342.962L336.222 198.536C336 197.762 335.782 196.987 335.57 196.21C335.517 197.299 335.462 198.387 335.407 199.476L334.184 223.616H318.98L323.139 162.131H340.972L347.599 185.209C348.399 188.183 349.17 191.166 349.898 194.161C350.658 191.146 351.464 188.137 352.311 185.133L359.235 162.131H376.995L380.514 223.616H364.89L363.749 199.246C363.674 197.794 363.607 196.335 363.543 194.874ZM400.666 209.27H421.276V223.616H384.565V162.131H420.106V176.477H400.666V184.787H419.009V198.914H400.666V209.27ZM291.618 175.38C283.663 175.38 281.908 186.926 281.908 192.834C281.908 198.644 283.669 210.291 291.545 210.291C299.54 210.291 301.109 198.466 301.109 192.616C301.109 186.862 299.409 175.38 291.618 175.38Z" fill="#9DBBD9"/>
<path fill-rule="evenodd" clip-rule="evenodd" d="M127.036 188.817C125.866 195.541 124.772 201.897 123.893 208.548H123.675C122.944 201.97 121.847 195.759 120.607 189.181L115.857 164.771H105.187L100.07 188.887C98.609 195.905 97.2207 202.41 96.4145 208.693H96.1962C95.3929 202.701 94.2956 195.759 93.1256 189.036L88.8151 164.771H77.3418L89.6941 220.97H101.095L106.575 197.144C107.963 191.224 108.988 185.598 109.937 179.239H110.082C110.813 185.598 111.692 191.297 112.932 197.144L117.755 220.97H129.228L142.529 164.771H131.641L127.036 188.817ZM159.849 211.91V196.271H178.192V187.429H159.849V173.837H179.289V164.774H149.034V220.973H180.459V211.91H159.849ZM199.607 211.837V164.771H188.792V220.97H219.705V211.834H199.607V211.837ZM263.333 166.089C261.727 165.213 257.78 163.97 251.715 163.97C236.807 163.97 224.163 173.91 224.163 193.567C224.163 210.23 233.518 221.703 250.399 221.703C256.173 221.703 260.702 220.606 262.824 219.585L261.29 210.888C259.099 211.84 255.516 212.497 252.154 212.497C241.996 212.497 235.491 205.701 235.491 192.985C235.491 179.39 242.945 173.034 252.227 173.034C256.101 173.034 259.023 173.91 261.214 174.861L263.333 166.089ZM291.909 163.895C277.219 163.895 267.938 176.247 267.938 193.055C267.938 209.354 276.343 221.776 291.178 221.776C305.137 221.776 315.077 211.764 315.077 192.179C315.077 177.196 307.477 163.895 291.909 163.895ZM291.618 172.74C299.875 172.74 303.749 182.312 303.749 192.619C303.749 203.946 299.584 212.937 291.545 212.937C283.579 212.937 279.269 203.874 279.269 192.84C279.266 182.531 283.139 172.74 291.618 172.74ZM361.191 164.774L354.832 185.895C352.931 192.619 351.252 199.415 349.936 205.701H349.718C348.475 199.269 346.868 192.691 345.041 185.895L338.975 164.774H325.601L321.8 220.973H331.667L332.764 199.342C333.128 192.397 333.495 184.067 333.64 176.977H333.858C335.174 183.846 336.929 191.449 338.754 197.808L344.965 220.17H353.149L360.018 197.441C361.919 191.157 363.965 183.704 365.572 176.977H365.79C365.717 182.679 366.081 191.74 366.375 199.124L367.396 220.976H377.7L374.484 164.776H361.191V164.774ZM398.024 211.91V196.271H416.366V187.429H398.024V173.837H417.463V164.774H387.208V220.973H418.633V211.91H398.024Z" fill="white"/>
<path fill-rule="evenodd" clip-rule="evenodd" d="M253.737 19.6953L211.098 37.176L222.804 52.1303L253.737 19.6953Z" fill="#C4D7EB"/>
<path fill-rule="evenodd" clip-rule="evenodd" d="M205.082 30.1302L252.433 19.792L193.486 24.0996L205.082 30.1302Z" fill="#C4D7EB"/>
<path fill-rule="evenodd" clip-rule="evenodd" d="M205.082 30.1296L206.19 49.7611L211.098 37.176L253.737 19.6953L252.433 19.7914L205.082 30.1296Z" fill="#9DBBD9"/>
<path fill-rule="evenodd" clip-rule="evenodd" d="M206.19 49.7619L216.284 43.804L211.098 37.1768L206.19 49.7619Z" fill="#85A5C6"/>
<path fill-rule="evenodd" clip-rule="evenodd" d="M198.466 40.3255C199.465 40.2004 199.697 41.7575 198.635 41.8885L197.081 42.0718C196.065 42.1999 195.856 40.6399 196.895 40.5118L198.466 40.3255ZM109.521 141.044C108.583 140.509 109.264 139.225 110.202 139.627C110.667 139.845 111.127 140.058 111.596 140.264C112.553 140.675 111.933 142.118 110.982 141.711L109.521 141.044ZM115.513 143.341C114.567 143.105 114.876 141.562 115.941 141.827C116.439 141.961 116.925 142.095 117.426 142.214C118.462 142.473 118.045 143.99 117.07 143.745C116.547 143.626 116.034 143.483 115.513 143.341ZM121.858 144.482C120.825 144.354 120.901 142.913 121.96 142.913C122.469 142.945 122.973 142.968 123.485 142.974C124.513 142.974 124.521 144.549 123.477 144.549C122.944 144.517 122.4 144.517 121.858 144.482ZM128.32 144.147C127.278 144.278 127.013 142.855 128.032 142.602C128.532 142.514 129.027 142.401 129.522 142.278C130.529 142.028 130.907 143.553 129.903 143.804C129.382 143.935 128.849 144.054 128.32 144.147ZM134.481 142.121C133.681 142.578 132.781 141.283 133.786 140.71C134.243 140.491 134.682 140.244 135.122 139.994C136.041 139.47 136.795 140.849 135.916 141.35C135.45 141.624 134.967 141.888 134.481 142.121ZM139.851 138.483C138.998 139.193 138.061 137.93 138.8 137.313C139.164 136.987 139.569 136.617 139.898 136.262C140.652 135.509 141.74 136.647 141.027 137.36C140.64 137.747 140.259 138.119 139.851 138.483ZM144.092 133.599C143.513 134.408 142.244 133.672 142.788 132.72C143.073 132.295 143.347 131.87 143.612 131.431C144.103 130.569 145.495 131.303 144.959 132.24C144.686 132.703 144.395 133.154 144.092 133.599ZM147.098 127.895C146.746 128.832 145.259 128.322 145.634 127.318C145.824 126.841 146.004 126.361 146.173 125.875C146.554 124.856 148.006 125.464 147.66 126.387C147.483 126.893 147.296 127.397 147.098 127.895ZM149.011 121.794C148.757 122.81 147.235 122.417 147.483 121.422L147.841 119.908C148.103 118.852 149.616 119.294 149.374 120.249L149.011 121.794ZM150.315 115.595C150.201 116.512 148.626 116.45 148.769 115.309L149.048 113.767C149.165 112.838 150.739 112.914 150.597 114.043L150.315 115.595ZM151.421 109.398C151.304 110.318 149.73 110.254 149.872 109.116L150.163 107.562C150.411 106.572 151.84 106.793 151.706 107.859L151.421 109.398ZM152.69 103.289C152.436 104.299 150.914 103.912 151.164 102.911C151.29 102.395 151.418 101.874 151.563 101.365C151.802 100.41 153.344 100.731 153.08 101.784C152.928 102.256 152.806 102.806 152.69 103.289ZM154.255 97.7386C153.699 98.149 152.756 97.6193 153.065 96.8014C153.196 96.4696 153.336 96.1378 153.478 95.8118C153.408 95.4247 153.656 95.1104 153.973 94.9824C154.509 94.6302 155.414 95.1075 155.161 95.8875C155.283 96.2222 155.405 96.5569 155.539 96.8858C155.859 97.7444 154.791 98.2945 154.255 97.7386ZM157.41 92.0456C156.715 92.8809 155.562 91.9234 156.144 91.1084C156.464 90.6689 156.808 90.2382 157.169 89.8307C157.8 89.074 159.046 90.0345 158.351 90.8698C158.019 91.2452 157.707 91.6411 157.41 92.0456ZM161.718 87.901C160.723 88.4686 160.056 87.0424 160.862 86.5797C161.325 86.277 161.782 86.0005 162.268 85.7356C163.121 85.2495 163.959 86.5826 163.01 87.1239C162.565 87.3626 162.137 87.6245 161.718 87.901ZM167.213 85.4533C166.177 85.7123 165.836 84.1756 166.811 83.934C167.335 83.7914 167.856 83.6691 168.389 83.5556C169.306 83.3257 169.795 84.8246 168.697 85.0982C168.2 85.2001 167.705 85.3194 167.213 85.4533ZM173.27 84.487C172.347 84.6034 172.024 83.0579 173.159 82.9182C173.695 82.8804 174.225 82.8542 174.76 82.8367C175.857 82.8367 175.785 84.4084 174.807 84.4084C174.294 84.4229 173.785 84.4491 173.27 84.487ZM179.391 84.6063C178.384 84.4812 178.552 82.9153 179.6 83.0463C180.139 83.1161 180.666 83.2005 181.198 83.2995C182.188 83.5469 181.967 84.9759 180.901 84.8421C180.398 84.7489 179.897 84.6703 179.391 84.6063ZM185.223 86.1809C184.31 85.7909 184.88 84.324 185.872 84.7489C186.388 84.9818 186.853 85.2321 187.348 85.4998C188.227 86.0005 187.473 87.3829 186.554 86.8561C186.114 86.6087 185.68 86.3876 185.223 86.1809ZM190 89.6473C189.316 88.8266 190.547 87.8486 191.19 88.6199C191.554 89.0303 191.9 89.4931 192.206 89.95C192.779 90.9571 191.347 91.609 190.89 90.8145C190.62 90.4099 190.323 90.0112 190 89.6473ZM192.57 94.8601C192.439 93.8094 193.862 93.562 194.115 94.569C194.223 95.1191 194.293 95.6663 194.333 96.2251C194.333 97.2729 192.893 97.3632 192.765 96.3212C192.727 95.8264 192.666 95.3462 192.57 94.8601ZM192.247 100.699C192.471 99.8051 194.028 100.052 193.748 101.17C193.582 101.703 193.396 102.212 193.175 102.724C192.77 103.667 191.321 103.059 191.734 102.099C191.929 101.63 192.098 101.179 192.247 100.699ZM189.339 105.85C189.965 105.099 191.216 106.051 190.518 106.892C190.16 107.3 189.77 107.71 189.371 108.08C188.553 108.761 187.575 107.655 188.3 106.927C188.664 106.59 189.013 106.223 189.339 105.85ZM184.641 109.555C185.5 109.063 186.329 110.402 185.389 110.941C184.909 111.2 184.42 111.444 183.922 111.663C182.95 112.079 182.357 110.624 183.288 110.222C183.751 110.018 184.196 109.797 184.641 109.555ZM178.98 111.677C179.909 111.444 180.383 112.946 179.3 113.217C178.768 113.333 178.238 113.435 177.697 113.514C176.658 113.645 176.477 112.082 177.493 111.954C177.997 111.866 178.477 111.785 178.98 111.677ZM172.973 112.067C174.041 112.201 173.8 113.755 172.81 113.63C172.277 113.584 171.701 113.493 171.177 113.389C170.092 113.118 170.569 111.616 171.494 111.849C171.969 111.942 172.487 112.026 172.973 112.067ZM167.21 110.431C168.142 110.964 167.466 112.251 166.526 111.846C166.034 111.613 165.548 111.348 165.077 111.075C164.209 110.58 164.954 109.192 165.886 109.724C166.308 109.977 166.765 110.222 167.21 110.431ZM162.248 107.006C163.025 107.783 161.861 108.842 161.171 108.152C160.775 107.783 160.382 107.396 160.015 107C159.294 106.133 160.568 105.213 161.177 105.938C161.514 106.307 161.881 106.665 162.248 107.006ZM158.348 102.334C158.915 103.33 157.489 103.996 157.026 103.19C156.732 102.739 156.453 102.282 156.182 101.816C155.661 100.905 157.035 100.14 157.544 101.028C157.803 101.47 158.068 101.904 158.348 102.334ZM153.781 91.0036C154.008 91.9176 152.512 92.4094 152.238 91.3122C152.131 90.7854 152.035 90.2615 151.944 89.7317C151.811 88.649 153.376 88.5181 153.499 89.4931C153.595 89.9966 153.679 90.5001 153.781 91.0036ZM153.03 84.8974C153.03 85.9946 151.458 85.9219 151.458 84.9468C151.438 84.4113 151.426 83.8816 151.426 83.346C151.426 82.3157 152.998 82.3099 152.998 83.349C153.001 83.867 153.01 84.3793 153.03 84.8974ZM153.272 78.7387C153.144 79.7661 151.584 79.5711 151.712 78.5437C151.776 78.014 151.848 77.4784 151.936 76.9516C152.055 76.0115 153.627 76.0988 153.487 77.2194C153.388 77.6967 153.33 78.2497 153.272 78.7387ZM154.497 72.7052C154.264 73.6307 152.716 73.3455 152.989 72.2598C153.138 71.7476 153.298 71.2383 153.464 70.7318C153.851 69.6986 155.294 70.3243 154.954 71.2324C154.794 71.7214 154.64 72.2075 154.497 72.7052ZM156.683 66.9569C156.109 67.961 154.817 67.0587 155.271 66.2613C155.504 65.7781 155.74 65.3037 155.993 64.8293C156.531 63.8862 157.867 64.7187 157.375 65.5744C157.134 66.0313 156.907 66.4912 156.683 66.9569ZM159.785 61.6393C159.186 62.4776 157.902 61.5695 158.505 60.7254C158.813 60.2888 159.125 59.8552 159.451 59.4302C160.158 58.5804 161.313 59.6514 160.693 60.3936C160.382 60.804 160.082 61.2173 159.785 61.6393ZM163.712 56.8893C162.964 57.6373 161.869 56.5081 162.588 55.7892C162.961 55.405 163.342 55.0324 163.726 54.6628C164.422 53.9672 165.577 55.0353 164.806 55.8066C164.436 56.1588 164.07 56.5197 163.712 56.8893ZM168.331 52.8029C167.612 53.4025 166.515 52.2732 167.388 51.5456C167.813 51.2225 168.243 50.9053 168.68 50.5997C169.501 50.0147 170.441 51.2749 169.576 51.892C169.154 52.1859 168.741 52.4915 168.331 52.8029ZM173.494 49.4093C172.612 49.9128 171.812 48.5594 172.729 48.0355C173.191 47.7736 173.663 47.5174 174.134 47.2671C174.955 46.7985 175.828 48.1083 174.85 48.6671C174.396 48.8999 173.939 49.1561 173.494 49.4093ZM179.062 46.6908C178.133 47.0896 177.484 45.6547 178.462 45.2385C178.954 45.0318 179.449 44.8339 179.947 44.6418C180.919 44.278 181.469 45.7507 180.5 46.1146C180.016 46.2921 179.536 46.49 179.062 46.6908ZM184.903 44.604C183.826 44.8718 183.532 43.3263 184.464 43.0934L185.992 42.6539C187.034 42.3949 187.368 43.9317 186.399 44.1732L184.903 44.604ZM190.94 43.0847C190.017 43.3146 189.537 41.8157 190.625 41.5421C191.143 41.4344 191.664 41.3384 192.182 41.2394C193.323 41.0968 193.385 42.6714 192.468 42.7849C191.961 42.8839 191.449 42.9799 190.94 43.0847Z" fill="#85A5C6"/>
<path fill-rule="evenodd" clip-rule="evenodd" d="M329.478 2.35156L365.816 31.1774L350.314 42.3626L329.478 2.35156Z" fill="#C4D7EB"/>
<path fill-rule="evenodd" clip-rule="evenodd" d="M373.604 26.0463L330.712 2.80859L386.501 23.4559L373.604 26.0463Z" fill="#C4D7EB"/>
<path fill-rule="evenodd" clip-rule="evenodd" d="M373.605 26.0462L367.044 44.7172L365.816 31.1774L329.478 2.35156L330.712 2.80851L373.605 26.0462Z" fill="#9DBBD9"/>
<path fill-rule="evenodd" clip-rule="evenodd" d="M367.044 44.7175L358.95 36.1344L365.816 31.1777L367.044 44.7175Z" fill="#85A5C6"/>
<path fill-rule="evenodd" clip-rule="evenodd" d="M373.241 40.4183C372.26 39.8595 373.136 38.5498 373.957 39.0183C374.437 39.2657 374.902 39.519 375.371 39.7896C376.267 40.3019 375.493 41.6698 374.588 41.1547C374.143 40.8956 373.698 40.6541 373.241 40.4183ZM497.375 63.3213C498.096 62.4539 499.234 63.5454 498.629 64.2701L497.66 65.5333C496.964 66.3657 495.794 65.315 496.426 64.5582L497.375 63.3213ZM493.399 68.08C494.17 67.3087 495.235 68.4671 494.54 69.1598C494.176 69.5498 493.803 69.9311 493.428 70.3095C492.703 71.0342 491.583 69.9282 492.322 69.1918C492.686 68.828 493.044 68.4555 493.399 68.08ZM488.899 72.3352C489.691 71.6745 490.701 72.8824 489.903 73.546C489.496 73.8865 489.08 74.2241 488.66 74.553C487.918 75.173 486.847 74.0175 487.697 73.3102C488.105 72.99 488.503 72.667 488.899 72.3352ZM483.916 76.0112C484.906 75.4465 485.578 76.8698 484.766 77.3326C484.321 77.6236 483.867 77.903 483.41 78.1795C482.479 78.7121 481.736 77.3238 482.601 76.829C483.043 76.5613 483.483 76.2935 483.916 76.0112ZM478.52 79.0381C479.545 78.5986 480.077 80.0801 479.195 80.4585C478.715 80.6884 478.232 80.9125 477.746 81.1308C476.774 81.547 476.177 80.0917 477.114 79.6901C477.586 79.4776 478.055 79.2622 478.52 79.0381ZM472.789 81.384C473.695 81.0464 474.323 82.4871 473.287 82.8742C472.784 83.043 472.277 83.2089 471.771 83.3661C470.671 83.6397 470.403 82.0884 471.317 81.8613C471.809 81.71 472.3 81.5499 472.789 81.384ZM466.814 83.0343C467.748 82.8014 468.214 84.3033 467.14 84.574C466.619 84.6846 466.098 84.7864 465.577 84.8854C464.439 85.028 464.375 83.4534 465.295 83.337C465.801 83.2438 466.311 83.142 466.814 83.0343ZM460.687 83.9977C461.668 83.8754 461.921 85.4296 460.845 85.5635C460.315 85.6159 459.782 85.6625 459.253 85.7032C458.336 85.8168 458.007 84.2771 459.148 84.1345L460.687 83.9977ZM454.491 84.2916C455.51 84.2916 455.53 85.8633 454.476 85.8633C453.947 85.8633 453.414 85.8517 452.884 85.8342C451.912 85.8342 451.836 84.2625 452.937 84.2625C453.455 84.28 453.973 84.2916 454.491 84.2916ZM448.291 83.9453C449.345 84.0762 449.121 85.6334 448.117 85.5082C447.59 85.4529 447.063 85.3889 446.536 85.3191C445.532 85.1939 445.698 83.6309 446.749 83.7619C447.264 83.8259 447.776 83.89 448.291 83.9453ZM442.162 82.9703C443.227 83.238 442.776 84.7457 441.83 84.507C441.312 84.3964 440.794 84.28 440.279 84.1578C439.257 83.9016 439.659 82.3823 440.645 82.6297C441.149 82.7461 441.653 82.8626 442.162 82.9703ZM436.166 81.3724C437.205 81.7624 436.571 83.2031 435.671 82.8655C435.168 82.6996 434.664 82.5337 434.167 82.3561C433.168 81.9807 433.753 80.5225 434.696 80.8747C435.182 81.0464 435.671 81.2123 436.166 81.3724ZM430.383 79.14C431.282 79.5271 430.726 80.9969 429.722 80.5662C429.239 80.345 428.762 80.1179 428.282 79.8851C427.83 79.629 427.766 79.2273 427.9 78.9013L427.647 78.9537C426.503 79.0963 426.445 77.5217 427.359 77.4082C427.86 77.3064 428.351 77.1958 428.849 77.0706C429.847 76.8203 430.237 78.3425 429.227 78.5986L430.383 79.14ZM424.929 76.2295C425.749 76.6981 425.065 78.1155 424.085 77.5567C423.633 77.2714 423.179 76.9833 422.74 76.6806C421.873 76.0607 422.816 74.8004 423.633 75.3883C424.061 75.6765 424.492 75.9559 424.929 76.2295ZM419.987 72.5593C420.729 73.1792 419.786 74.4395 418.936 73.7322C418.534 73.3772 418.144 73.0075 417.76 72.632C417.018 71.8899 418.141 70.7897 418.863 71.5144C419.233 71.8695 419.602 72.2217 419.987 72.5593ZM415.918 68.0305C416.497 68.8425 415.245 69.7943 414.62 68.9182C414.308 68.4729 414.02 68.0043 413.743 67.5357C413.228 66.6334 414.596 65.8563 415.109 66.7528C415.362 67.1865 415.63 67.6201 415.918 68.0305ZM413.435 62.6198C413.671 63.5687 412.163 64.0169 411.898 62.9545C411.773 62.4074 411.683 61.8776 411.616 61.3217C411.491 60.3292 413.048 60.0906 413.179 61.1558C413.24 61.6564 413.321 62.1309 413.435 62.6198ZM413.516 56.7871C413.287 57.7098 411.735 57.4274 412.009 56.3389C412.16 55.8034 412.329 55.2795 412.544 54.7643C412.955 53.8068 414.398 54.4325 413.991 55.3814C413.799 55.8296 413.65 56.3185 413.516 56.7871ZM416.261 51.4667C415.563 52.3049 414.416 51.3444 414.995 50.5353C415.312 50.0987 415.635 49.6738 415.976 49.2547C416.651 48.4455 417.844 49.4672 417.192 50.2501C416.869 50.6488 416.564 51.0534 416.261 51.4667ZM420.394 47.0427C419.652 47.6626 418.581 46.5071 419.431 45.7999C419.864 45.4593 420.295 45.1479 420.755 44.8423C421.756 44.2689 422.414 45.7009 421.616 46.1579C421.194 46.4402 420.793 46.7283 420.394 47.0427ZM425.665 44.3184C424.635 44.5775 424.285 43.0407 425.263 42.7962C425.799 42.6507 426.349 42.543 426.896 42.4615C427.95 42.3305 428.113 43.8935 427.109 44.0215C426.631 44.0885 426.131 44.1904 425.665 44.3184ZM431.533 44.1525C430.462 43.8848 430.921 42.38 431.859 42.6129C432.394 42.7206 432.941 42.8603 433.459 43.0291C434.402 43.3812 434.024 44.787 432.973 44.5251C432.511 44.3737 432.013 44.2486 431.533 44.1525ZM437.01 46.4751C436.128 45.8464 437.089 44.5978 437.892 45.1741C438.349 45.4797 438.786 45.797 439.216 46.1404C440.031 46.8215 439.001 48.009 438.224 47.3628C437.843 47.0485 437.421 46.7516 437.01 46.4751ZM441.411 50.5819C440.794 49.8397 441.947 48.7686 442.657 49.6214C442.991 50.0551 443.309 50.4946 443.611 50.9486C444.182 51.9469 442.75 52.6105 442.293 51.8072C442.016 51.3881 441.717 50.9777 441.411 50.5819ZM444.321 55.8441C443.972 54.9098 445.427 54.3132 445.806 55.3231C445.992 55.8383 446.149 56.3651 446.289 56.8919C446.542 57.9077 445.014 58.2744 444.764 57.2819C444.636 56.7988 444.49 56.3156 444.321 55.8441ZM445.256 61.7205C445.256 60.7833 446.827 60.664 446.827 61.7991C446.804 62.3521 446.755 62.9051 446.667 63.4493C446.548 64.4069 444.976 64.2963 445.113 63.1961C445.189 62.713 445.235 62.2124 445.256 61.7205ZM443.713 67.4047C444.249 66.4676 445.588 67.2941 445.096 68.1528C444.84 68.6359 444.54 69.1278 444.225 69.576C443.62 70.4259 442.345 69.5032 442.942 68.665C443.218 68.2663 443.483 67.8326 443.713 67.4047ZM439.877 71.9277C440.628 71.3019 441.687 72.4632 440.846 73.1647C440.416 73.5052 439.988 73.8254 439.534 74.1339C438.588 74.6752 437.843 73.4092 438.658 72.8271C439.083 72.5389 439.478 72.242 439.877 71.9277ZM434.638 75.0129C435.619 74.5937 436.198 76.0548 435.276 76.4507C434.787 76.669 434.298 76.8785 433.803 77.0823C432.831 77.4461 432.26 76.0316 433.218 75.6212C433.698 75.4262 434.17 75.2224 434.638 75.0129ZM422.819 77.8914C422.312 77.8914 421.803 77.8885 421.299 77.8535C420.379 77.7371 420.054 79.2797 421.192 79.4223C421.73 79.4572 422.274 79.466 422.816 79.4631C423.855 79.466 423.849 77.8914 422.819 77.8914ZM416.811 77.1084C417.763 77.3471 417.446 78.8868 416.389 78.6248C415.883 78.4968 415.333 78.3105 414.838 78.1359C413.84 77.7604 414.425 76.3022 415.368 76.6544C415.827 76.8145 416.337 76.9891 416.811 77.1084ZM411.22 74.7305C412.108 75.237 411.342 76.6137 410.431 76.0898C409.971 75.8278 409.494 75.5426 409.052 75.2457C408.257 74.7917 408.909 73.3568 409.916 73.9331C410.338 74.2125 410.781 74.4802 411.22 74.7305ZM406.208 71.1739C406.994 71.8287 406.001 73.0454 405.192 72.373C404.785 72.0296 404.386 71.6803 403.987 71.3252C403.245 70.7082 404.185 69.445 405.038 70.1552C405.425 70.5015 405.812 70.8421 406.208 71.1739ZM401.708 66.9041C402.41 67.6056 401.336 68.7552 400.57 67.9898L399.485 66.8343C398.757 65.964 400.041 65.0443 400.643 65.769C400.995 66.1503 401.348 66.5316 401.708 66.9041ZM397.541 62.2531C398.216 63.0622 396.993 64.0518 396.341 63.2689L395.326 62.0668C394.656 61.2635 395.867 60.2623 396.531 61.054L397.541 62.2531ZM393.527 57.4245C394.185 58.2133 392.983 59.2291 392.313 58.4258L391.315 57.2121C390.657 56.4233 391.859 55.4075 392.529 56.2108L393.527 57.4245ZM389.487 52.5814C390.168 53.3964 388.94 54.3801 388.291 53.603L387.269 52.4213C386.577 51.5889 387.819 50.6255 388.454 51.3852L389.487 52.5814ZM385.246 47.8722C385.954 48.5794 384.874 49.7233 384.114 48.9636L383.026 47.8547C382.284 47.1125 383.407 46.0124 384.132 46.7342L385.246 47.8722ZM380.607 43.5035C381.402 44.1671 380.395 45.3749 379.6 44.7113C379.213 44.3854 378.805 44.0477 378.401 43.7421C377.542 43.0261 378.622 41.8794 379.358 42.4935C379.781 42.8195 380.2 43.16 380.607 43.5035Z" fill="#85A5C6"/>
<path fill-rule="evenodd" clip-rule="evenodd" d="M64.3954 260.304C64.3954 260.304 57.1249 265.551 55.9811 267.109C54.3337 269.364 68.2926 273.573 66.7733 270.936C66.4241 270.333 65.4199 268.284 65.3734 268.092C65.1434 267.012 68.1034 264.131 68.1034 264.131L64.3954 260.304Z" fill="#79B9F9"/>
<path fill-rule="evenodd" clip-rule="evenodd" d="M70.5485 275.348L65.6123 268.365C65.6123 268.365 62.5358 267.655 59.3663 264.09C59.3663 264.09 56.5227 265.17 54.7764 267.533C54.7764 267.533 58.0827 271.087 63.1732 275.103C63.1732 275.103 66.1915 277.766 70.3593 279.19C74.533 280.595 70.5485 275.348 70.5485 275.348Z" fill="#0E1C52"/>
<path fill-rule="evenodd" clip-rule="evenodd" d="M3.64408 164.789C3.64408 164.789 4.53761 165.581 4.85486 165.828C5.2245 166.102 6.40035 166.867 6.40035 166.867C6.40035 166.867 10.6439 169.271 10.7865 168.957C10.9291 168.642 10.9262 167.726 10.7167 167.481C10.5071 167.248 9.8959 166.989 9.68634 166.756C9.47678 166.512 9.40402 166.032 9.6747 165.758C9.94538 165.484 11.3948 166.276 11.3948 166.276C11.3948 166.276 12.5678 166.931 13.0596 167.726C14.7623 170.444 14.2471 170.61 14.4712 170.95C14.7419 171.361 20.6911 174.068 20.6911 174.068C20.6911 174.068 38.4831 181.46 39.4407 181.871H39.4552C39.5862 182.692 39.1438 183.442 38.9168 184.182C38.4919 186.723 37.7351 186.886 37.1588 189.333C34.4287 187.954 15.5423 177.554 13.6185 176.46C13.6185 176.46 10.7429 175.968 8.94707 175.613C7.14836 175.244 5.58249 174.097 5.09061 173.919C5.01494 173.893 3.40833 173.209 1.63873 171.829C0.116519 170.654 2.08404 171.09 2.08404 171.09C2.08404 171.09 5.28271 172.799 5.37003 172.525C5.43406 172.321 3.63244 171.486 1.93269 170.202C1.49611 169.874 1.06535 169.548 0.67243 169.233C-0.357897 168.442 -0.177443 167.595 1.03043 168.264C1.45827 168.511 2.1568 168.919 2.61666 169.274C3.11145 169.67 3.68774 169.877 4.15633 170.136C5.08188 170.668 5.74839 171.064 5.74839 171.023C5.74839 170.953 6.00161 170.927 5.54757 170.558C5.00621 170.121 3.64699 169.437 2.89608 168.727C2.46823 168.331 1.52522 167.539 1.52522 167.539C1.52522 167.539 0.317347 166.104 0.375557 166.008C0.695716 165.49 1.79298 166.256 2.30233 166.87C2.82622 167.103 3.79543 167.964 3.79543 167.964C3.79543 167.964 6.12967 169.262 6.31013 168.933C6.3858 168.797 5.04405 167.839 3.87692 166.692C2.78839 165.627 1.85993 164.384 2.03165 164.137C2.31397 163.738 3.64408 164.789 3.64408 164.789ZM91.0385 103.601C91.0385 103.601 91.2801 104.721 91.3325 105.103C91.3907 105.554 91.4664 106.919 91.4664 106.919C91.4664 106.919 91.4344 111.689 91.0793 111.675C90.7271 111.66 89.918 111.25 89.8132 110.964C89.7084 110.676 89.8016 110.021 89.6968 109.733C89.592 109.448 89.1962 109.175 88.8207 109.282C88.4453 109.404 88.4074 111.017 88.4074 111.017C88.4074 111.017 88.3841 112.33 88.8294 113.107C90.372 115.799 90.7766 115.429 90.96 115.773C91.1841 116.195 90.535 122.592 90.535 122.592C90.535 122.592 87.9941 141.409 87.8661 142.419L87.8573 142.433C88.518 142.91 89.4116 142.858 90.1683 142.98C92.6248 143.731 93.1603 143.143 95.6139 143.731C95.7856 140.725 96.2309 119.626 96.2542 117.467C96.2542 117.467 97.2845 114.734 97.8754 112.999C98.4691 111.264 98.2625 109.393 98.3556 108.886C98.3702 108.805 98.5797 107.096 98.2683 104.951C98.0034 103.094 97.3922 105.007 97.3922 105.007C97.3922 105.007 97.2583 108.56 96.9789 108.52C96.7606 108.479 96.9498 106.538 96.6762 104.489C96.6093 103.956 96.5394 103.438 96.4725 102.958C96.2862 101.7 95.4538 101.482 95.4334 102.835C95.4247 103.313 95.4276 104.107 95.5178 104.666C95.6081 105.28 95.4917 105.868 95.4917 106.401C95.4887 107.44 95.5004 108.191 95.4538 108.176C95.3985 108.147 95.253 108.354 95.1599 107.807C95.0493 107.123 95.1337 105.635 94.8921 104.663C94.7582 104.116 94.5428 102.94 94.5428 102.94C94.5428 102.94 93.8821 101.246 93.7686 101.258C93.1516 101.313 93.2622 102.611 93.5474 103.321C93.4892 103.88 93.7482 105.111 93.7482 105.111C93.7482 105.111 93.7104 107.722 93.3379 107.748C93.1778 107.748 93.009 106.15 92.5928 104.62C92.2057 103.199 91.5799 101.831 91.2801 101.887C90.7824 101.959 91.0385 103.601 91.0385 103.601Z" fill="#79B9F9"/>
<path fill-rule="evenodd" clip-rule="evenodd" d="M53.2773 206.438L54.4241 212.122L83.3315 238.413L62.6434 259.36L68.2258 265.059C68.2258 265.059 98.7864 242.622 99.8866 239.685C101.586 235.162 77.9819 205.169 77.9819 205.169L53.2773 206.438Z" fill="#0E1C52"/>
<path fill-rule="evenodd" clip-rule="evenodd" d="M33.0199 275.432C33.0199 275.432 25.7494 280.679 24.6056 282.236C22.9553 284.492 36.9171 288.701 35.3949 286.064C35.0456 285.461 34.0415 283.427 33.9949 283.223C33.765 282.143 36.725 279.259 36.725 279.259L33.0199 275.432Z" fill="#79B9F9"/>
<path fill-rule="evenodd" clip-rule="evenodd" d="M39.1818 290.503L34.2456 283.521C34.2456 283.521 30.9654 282.933 27.8046 279.379C27.8046 279.379 25.1589 280.337 23.4097 282.685C23.4097 282.685 26.7131 286.251 31.8036 290.256C31.8036 290.256 34.8248 292.933 38.9926 294.342C43.1634 295.751 39.1818 290.503 39.1818 290.503Z" fill="#0E1C52"/>
<path fill-rule="evenodd" clip-rule="evenodd" d="M54.2671 209.075L55.5652 244.959L31.1255 274.926L36.8534 280.2C36.8534 280.2 65.2282 255.85 68.3424 249.072C70.275 244.848 76.7771 206.834 76.7771 206.834L54.2671 209.075Z" fill="#021B79"/>
<path fill-rule="evenodd" clip-rule="evenodd" d="M77.5831 206.138C75.2314 200.824 75.5021 162.795 66.3514 153.886C63.1353 154.418 60.8389 154.733 60.3004 154.87C59.826 158.79 59.2992 173.165 58.9761 186.338C58.7607 195.125 58.9849 204.334 57.905 209.186C57.2298 212.192 79.7282 210.976 77.5831 206.138Z" fill="white"/>
<path fill-rule="evenodd" clip-rule="evenodd" d="M52.8148 156.837C50.2448 157.411 48.3587 158.613 44.9942 163.587C41.7693 168.357 34.6123 178.864 34.6123 178.864L15.7608 170.488L14.8818 180.04C14.8818 180.04 36.2044 191.123 39.211 190.125C42.2234 189.127 49.9101 178.102 50.5358 177.266C50.6784 177.074 49.9974 190.591 49.9974 192.736C49.9974 194.866 46.5076 212.059 46.5076 212.059C46.5076 212.059 56.8779 214.614 58.9036 209.969C65.1088 195.757 60.3443 154.858 60.3443 154.858C60.3443 154.858 54.6659 156.412 52.8148 156.837ZM68.4734 156.098C68.4734 156.098 72.6791 167.344 75.7352 165.828C78.7912 164.297 95.4686 146.124 95.6432 145.277C95.812 144.43 97.0024 122.95 97.0024 122.95L90.2122 121.585L85.6572 139.022C85.6572 139.022 73.7415 151.197 71.1918 152.387C68.6422 153.572 68.4734 156.098 68.4734 156.098Z" fill="#0575E6"/>
<path fill-rule="evenodd" clip-rule="evenodd" d="M78.4972 208.679C80.5549 208.679 81.3175 208.391 82.6825 207.981C82.6825 207.981 78.7679 185.913 76.4918 164.023C75.5925 155.373 74.7543 151.834 71.1889 152.462C70.1585 152.64 67.3673 153.705 66.3516 153.883C75.3131 179.23 75.3422 198.757 76.6112 204.415C77.2515 207.259 77.8045 208.694 78.4972 208.679Z" fill="#0575E6"/>
<path fill-rule="evenodd" clip-rule="evenodd" d="M65.4084 150.044L66.3456 153.883C66.3456 153.883 66.561 157.219 65.0126 157.518C63.1469 157.873 60.3703 155.085 60.3703 155.085L58.7637 144.275L65.4084 150.044Z" fill="#90C3F7"/>
<path fill-rule="evenodd" clip-rule="evenodd" d="M65.4084 150.044L66.3456 153.883C66.3456 153.883 66.561 157.219 65.0126 157.518C63.1469 157.873 60.3703 155.085 60.3703 155.085L58.7637 144.275L65.4084 150.044Z" fill="#79B9F9"/>
<path fill-rule="evenodd" clip-rule="evenodd" d="M58.7783 144.318L65.4085 150.043L66.107 152.913C63.5749 152.299 59.9629 149.511 58.7783 144.318Z" fill="#5878F2"/>
<path fill-rule="evenodd" clip-rule="evenodd" d="M65.4289 134.385C67.0326 134.385 68.4733 135.491 69.0379 137.092C69.5036 138.416 70.1061 140.386 70.4844 142.639C71.1859 146.792 68.8196 150.591 66.7648 150.905C64.7041 151.205 59.7999 149.84 58.7172 143.949C58.2486 141.434 57.6403 138.113 59.7126 136.378C61.325 135.028 63.5894 134.385 65.4289 134.385Z" fill="#79B9F9"/>
<path fill-rule="evenodd" clip-rule="evenodd" d="M59.3837 148.445C59.3837 148.445 52.1249 141.969 51.8105 136.911C51.4904 131.87 56.1589 129.163 60.1492 129.012C61.9537 128.956 63.1732 129.038 65.0302 129.271C69.0292 129.777 71.6196 131.538 70.7057 134.818C69.4833 139.219 61.1853 135.502 59.4914 136.867C58.0915 138.002 60.3588 140.706 58.9995 141.731C57.7218 142.715 58.3738 142.386 58.7929 144.231C59.2178 146.082 59.3837 148.445 59.3837 148.445Z" fill="#021B79"/>
<path fill-rule="evenodd" clip-rule="evenodd" d="M56.5808 142.584C56.7613 143.786 57.5006 144.689 58.2369 144.578C58.9675 144.467 59.4186 143.402 59.2382 142.186C59.0577 140.969 58.3184 140.081 57.585 140.192C56.8515 140.303 56.4062 141.368 56.5808 142.584Z" fill="#79B9F9"/>
<path fill-rule="evenodd" clip-rule="evenodd" d="M427.726 148.315C428.273 144.665 428.838 141.006 432.205 138.046C434.929 135.66 438.32 134.981 441.629 135.811C450.998 138.171 448.731 146.475 455.9 153.242C458.964 156.126 462.862 157.122 465.368 160.303C469.902 166.034 469.274 177.033 461.892 184.679C443.812 203.411 426.94 180.182 425.732 174.675C424.833 170.58 427.374 150.666 427.726 148.315Z" fill="#021B79"/>
<path fill-rule="evenodd" clip-rule="evenodd" d="M424.376 267.245C424.998 272.082 426.241 276.375 426.413 276.891C426.5 277.132 427.365 278.052 427.458 278.293C426.692 284.106 422.97 287.369 419.509 289.645C420.374 286.746 422.149 283.46 421.971 282.793C421.686 281.737 420.624 276.899 418.156 270.767C420.95 270.598 422.027 268.892 424.376 267.245Z" fill="#79B9F9"/>
<path fill-rule="evenodd" clip-rule="evenodd" d="M432.618 196.539L450.864 209.165C450.864 209.165 442.843 218.362 439.831 221.782C436.821 225.202 421.328 237.871 421.104 238.637C421.055 238.785 422.044 240.459 422.475 242.616C423.639 248.44 425.313 259.811 426.291 269.585C424.588 271.666 420.612 272.428 418.266 273.22C411.465 261.63 407.594 238.675 407.404 235.887C407.11 231.361 432.618 196.539 432.618 196.539Z" fill="#0E1C52"/>
<path fill-rule="evenodd" clip-rule="evenodd" d="M485.06 223.048C484.42 223.517 479.623 230.516 477.632 234.367C475.743 232.664 474.713 230.831 472.519 229.544C474.736 227.067 479.245 220.97 479.763 219.424C480.985 215.78 481.885 215.364 481.885 215.364C481.885 215.364 493.372 221.538 494.01 222.871C494.644 224.192 487.642 221.092 485.06 223.048Z" fill="#79B9F9"/>
<path fill-rule="evenodd" clip-rule="evenodd" d="M479.504 220.243C478.567 220.1 480.203 215.836 480.564 214.858C480.962 213.752 481.646 213.502 481.812 213.484C482.258 213.452 495.026 220.324 497.052 222.379C497.194 222.519 497.416 222.929 497.448 223.014C498.353 225.636 487.214 224.341 485.771 223.022C484.487 221.87 483.724 220.912 479.504 220.243Z" fill="#0E1C52"/>
<path fill-rule="evenodd" clip-rule="evenodd" d="M429.175 200.844L443.894 193.451C443.836 193.492 444.028 194.094 444.042 194.138C445.844 199.814 453.274 197.098 457.064 206.93C459.733 213.863 460.327 237.802 460.327 237.802C460.327 237.802 467.018 232.091 474.038 226.02C474.681 225.473 480.447 230.985 480.447 230.985C471.605 248.708 456.447 256.435 454.404 255.789C447.436 253.629 433.949 208.894 433.963 208.892C432.455 206.275 429.175 200.844 429.175 200.844Z" fill="#021B79"/>
<path fill-rule="evenodd" clip-rule="evenodd" d="M450.893 160.711C450.893 160.711 469.233 155.58 473.331 154.683C477.432 153.802 491.539 148.082 492.077 147.847C492.619 147.596 494.304 139.883 495.139 140.399C495.975 140.914 494.077 144.302 495.11 144.697C496.146 145.108 504.601 140.882 504.695 141.609C504.872 142.963 499.621 144.403 499.816 145.021C500.014 145.638 505.151 142.998 505.838 143.909C506.525 144.837 500.736 145.946 500.661 146.482C500.576 147.003 506.255 146.176 505.996 147.314C505.853 147.922 500.928 147.922 501.164 148.621C501.403 149.319 505.186 149.925 504.962 150.629C504.732 151.319 501.851 149.686 499.933 150.236C498.021 150.786 496.338 150.172 493.568 151.985C490.794 153.799 481.777 161.352 475.193 163.022C468.613 164.707 454.069 168.442 454.069 168.442L450.893 160.711ZM429.289 160.333C429.289 160.333 420.906 143.219 418.846 139.581C416.776 135.931 411.659 121.591 411.479 121.017C411.299 120.459 415.926 114.058 414.989 113.782C414.049 113.502 412.792 117.17 411.799 116.675C410.807 116.177 408.333 107.05 407.73 107.466C406.601 108.234 409.023 113.109 408.429 113.371C407.832 113.633 406.388 108.051 405.245 108.15C404.104 108.249 407.128 113.304 406.784 113.712C406.444 114.134 403.277 109.337 402.608 110.286C402.241 110.804 405.527 114.477 404.843 114.757C404.156 115.051 401.187 112.644 400.824 113.267C400.457 113.892 403.6 114.952 404.459 116.759C405.315 118.552 406.898 119.402 407.393 122.673C407.887 125.948 408.251 137.698 411.383 143.725C414.515 149.768 421.398 163.098 421.398 163.098L429.289 160.333Z" fill="#79B9F9"/>
<path fill-rule="evenodd" clip-rule="evenodd" d="M425.269 181.913C424.795 178.651 423.779 169.864 423.849 168.764C422.676 165.417 418.886 160.611 418.068 159.223C418.068 159.223 422.39 153.361 425.877 153.189C425.877 153.189 429.894 157.826 432.74 159.144C432.778 159.121 433.744 159.517 434.149 159.479C436.801 159.296 446.044 158.388 447.811 158.815L447.814 173.834C447.374 174.733 447.898 191.966 446.967 193.46C446.036 194.935 431.547 202.357 428.965 200.858C428.861 200.8 426.224 188.5 425.269 181.913Z" fill="#6D9DCE"/>
<path fill-rule="evenodd" clip-rule="evenodd" d="M443.096 159.363C443.498 159.113 444.461 158.819 445.882 158.708C450.079 158.356 457.142 157.716 457.142 157.716C457.142 157.716 459.459 166.602 458.208 168.86C458.208 168.86 447.264 171.296 447.64 172.228L443.096 159.363Z" fill="#6D9DCE"/>
<path fill-rule="evenodd" clip-rule="evenodd" d="M439.828 153.58C439.828 153.58 439.208 158.828 439.534 160.868C439.863 162.909 439.374 169.565 435.226 169.859C431.085 170.153 433.887 161.52 434.144 159.48C434.405 157.454 434.091 151.24 434.091 151.24L439.828 153.58Z" fill="#79B9F9"/>
<path fill-rule="evenodd" clip-rule="evenodd" d="M434.204 154.349C434.161 152.646 434.091 151.24 434.091 151.24L439.827 153.58C439.827 153.58 439.702 154.646 439.589 156.014C437.193 156.692 435.366 155.865 434.204 154.349Z" fill="#5878F2"/>
<path fill-rule="evenodd" clip-rule="evenodd" d="M440.919 139.115C440.919 139.115 443.143 140.227 444.103 142.87C445.061 145.498 444.627 152.509 439.202 154.549C433.78 156.59 431.017 151.252 431.876 146.872C432.735 142.494 434.859 136.888 440.919 139.115Z" fill="#79B9F9"/>
<path fill-rule="evenodd" clip-rule="evenodd" d="M431.078 145.25C431.259 146.388 431.928 147.244 432.569 147.125C433.212 147.023 433.576 145.998 433.395 144.86C433.209 143.708 432.539 142.869 431.899 142.971C431.259 143.073 430.889 144.098 431.078 145.25Z" fill="#79B9F9"/>
<path fill-rule="evenodd" clip-rule="evenodd" d="M426.454 277.033C426.844 276.128 430.237 279.257 431.044 279.9C431.952 280.628 431.987 281.384 431.952 281.545C431.867 281.99 422.329 293.044 419.62 294.476C419.367 294.622 418.843 294.592 418.694 294.531C417.259 293.85 420.088 284.525 422.094 282.764C423.392 281.641 424.678 281.07 426.454 277.033Z" fill="#0E1C52"/>
<path fill-rule="evenodd" clip-rule="evenodd" d="M440.244 138.812C440.244 138.812 441.76 146.505 444.251 147.745C446.743 148.985 445.963 152.477 445.963 152.477C445.963 152.477 447.613 144.357 445.55 141.915C443.483 139.485 440.244 138.812 440.244 138.812Z" fill="#021B79"/>
<path fill-rule="evenodd" clip-rule="evenodd" d="M442.901 148.941C442.319 149.991 442.397 151.185 443.084 151.607C443.765 152.014 444.796 151.496 445.375 150.446C445.96 149.392 445.878 148.201 445.197 147.794C444.516 147.384 443.486 147.887 442.901 148.941Z" fill="#79B9F9"/>
</svg>
