<svg width="1750" height="1031" viewBox="0 0 1750 1031" fill="none" xmlns="http://www.w3.org/2000/svg">
<path fill-rule="evenodd" clip-rule="evenodd" d="M862.47 0C1036.13 0 1109.29 124.25 1234.65 220.84C1400.58 348.68 1566.49 265.46 1593.06 697.39C1616.7 1081.82 1321.65 739.01 905.64 876.72C489.63 1014.43 65.9201 1069.88 191.65 624.33C317.38 178.78 458.98 0 862.47 0Z" fill="#E0EAF5"/>
<path fill-rule="evenodd" clip-rule="evenodd" d="M858.05 361.561C816.94 399.091 834.81 436.641 865.19 506.351C895.57 576.061 900.94 833.491 900.94 833.491L875.93 829.921C875.93 829.921 879.52 565.351 845.55 493.841C811.58 422.331 797.26 386.591 766.88 409.831C736.5 433.071 858.05 361.561 858.05 361.561Z" fill="#C4D7EB"/>
<path fill-rule="evenodd" clip-rule="evenodd" d="M880.62 312.95C875.65 290.7 845.98 266.64 806.33 246.2C812.25 279.02 831.11 332.67 811.58 343.68C785.19 358.51 809.02 283.6 798.84 242.44C761.6 224.25 716.78 209.39 675.55 202C675.63 202.16 675.67 202.3 675.71 202.46C698.95 261.45 729.33 284.69 716.82 293.62C707.43 300.35 676.78 232.21 636.26 197.28C605.88 195.66 580.16 199.77 564.97 211.82C541.46 230.43 525.67 246.94 549.31 303.61C562.8 313.26 580.32 320.18 600.64 322.22C654.26 327.59 679.31 329.36 641.75 347.25C623.36 356.01 592.59 346.76 567.58 341.12C575.67 356.05 585.65 372.95 597.76 392.21C605.45 404.42 613.9 415.01 622.89 424.19C640.17 427.5 655.24 427.53 663.21 424.12C688.22 413.4 752.57 379.42 768.67 393.73C784.41 407.72 649.48 416.59 658.83 452.16C724.24 489.84 799.09 471.91 812.3 437.31C830.08 390.86 895.65 379.92 880.62 312.95Z" fill="white"/>
<path fill-rule="evenodd" clip-rule="evenodd" d="M745.41 567.14C816.94 513.5 890.2 563.55 927.76 620.76C965.28 677.96 938.49 806.66 938.49 806.66C938.49 806.66 924.17 806.66 924.17 801.31C924.17 795.94 963.5 649.37 870.55 583.21C812.4 541.84 770.46 561.77 765.09 581.43C759.72 601.09 788.33 636.85 788.33 636.85L745.41 567.14Z" fill="#C4D7EB"/>
<path fill-rule="evenodd" clip-rule="evenodd" d="M909.89 456.9C838.36 456.9 815.12 567.74 834.81 632.08C854.46 696.44 881.29 816.2 881.29 816.2L899.16 798.33C899.16 798.33 831.22 630.3 847.32 555.21C863.42 480.13 902.71 467.61 909.89 467.61C917.03 467.62 909.89 456.9 909.89 456.9Z" fill="#C4D7EB"/>
<path fill-rule="evenodd" clip-rule="evenodd" d="M849.93 632.59C844.88 625.92 838.68 620.42 831.11 616.76C832.1 622.1 833.32 627.22 834.82 632.08C843.78 661.41 854.19 702.23 862.95 737.98C863.7 733.41 864.96 726.35 866.82 715.47C867.29 712.89 867.61 710.1 867.89 707.15C860.85 683.33 854.23 657.37 849.93 632.59Z" fill="#C4D7EB"/>
<path fill-rule="evenodd" clip-rule="evenodd" d="M830.36 633.12C694.52 575.91 766.09 497.41 646.31 549.26C637.87 552.91 627.61 562.12 617.31 574.81C627.96 577.84 640.86 580.02 655.26 577.86C691 572.49 678.5 601.1 619.48 608.25C608.39 609.59 599.36 611.46 591.86 614.08C563.73 668.06 551.07 739.08 610.56 763.76C622.28 768.64 636.76 771.41 652.89 772.46C671.24 757.87 648.39 673.46 676.72 685.11C703.86 696.31 668.16 757.47 673.05 772.88C699.88 772.4 729.59 768.02 757.91 760.98C769.16 754.69 777.76 746.25 780.36 735.17C789.32 697.62 730.33 674.38 728.52 642.2C726.9 612.63 750.18 707.28 811.77 721.22C867.52 695.19 893.88 659.86 830.36 633.12ZM927.17 531.98C912.85 501.59 950.41 494.43 948.59 517.67C947.05 538.28 946.85 588.33 967.96 601.96C1004.38 598.01 1053.93 583.33 1091.41 560.96C1091.88 557.94 1091.41 554.83 1089.83 551.64C1073.73 519.46 970.05 492.65 1002.24 481.93C1027.84 473.38 1072.78 523.8 1108.96 549.2C1130.7 532.7 1145.26 513.05 1145.26 491.12C1145.26 461.41 1109.16 427.8 1062.49 411.73C1041.5 413.86 1021.97 425.33 991.51 442.61C946.49 468.12 956.91 426.87 999.48 402.4C962.71 404.3 926.1 419.99 899.07 457.5C899.07 457.5 901.64 473.53 884.67 498.33C838.39 565.97 891.81 605.46 955.65 602.9C952.03 585.07 937.04 552.97 927.17 531.98Z" fill="white"/>
<path fill-rule="evenodd" clip-rule="evenodd" d="M749.71 564.101C714.76 591.121 675.93 622.701 628.28 644.151C580.58 665.611 590.13 735.521 590.13 735.521C590.13 735.521 582.99 675.141 622.72 654.481C662.45 633.831 688.65 609.191 718.83 604.431C749.05 599.651 765.74 594.891 765.74 594.891C765.74 594.891 756.19 575.821 761.75 568.671C767.31 561.521 749.71 564.101 749.71 564.101ZM577.42 246.891C705.33 281.051 799.07 362.891 816.58 382.761C834.06 402.611 834.06 408.181 834.06 408.181L820.53 433.601L814.18 430.421C814.18 430.421 824.52 408.981 797.49 381.171C750.9 333.201 694.2 295.351 655.26 278.671C616.32 261.981 577.42 246.891 577.42 246.891Z" fill="#C4D7EB"/>
<path fill-rule="evenodd" clip-rule="evenodd" d="M930.53 954.95H881.65C846.89 954.95 818.72 926.78 818.72 892.02V779.74H993.46V892.02C993.45 926.77 965.29 954.95 930.53 954.95Z" fill="#B0CAE4"/>
<path d="M993.45 799.801H818.72V812.101H993.45V799.801Z" fill="white"/>
<path d="M993.45 822.23H818.72V829.46H993.45V822.23Z" fill="white"/>
<path d="M252.34 1030.74C360.881 1030.74 448.87 1018.23 448.87 1002.8C448.87 987.369 360.881 974.86 252.34 974.86C143.8 974.86 55.8101 987.369 55.8101 1002.8C55.8101 1018.23 143.8 1030.74 252.34 1030.74Z" fill="#C4D7EB"/>
<path d="M1553.21 1030.74C1661.75 1030.74 1749.74 1018.23 1749.74 1002.8C1749.74 987.369 1661.75 974.86 1553.21 974.86C1444.67 974.86 1356.68 987.369 1356.68 1002.8C1356.68 1018.23 1444.67 1030.74 1553.21 1030.74Z" fill="#C4D7EB"/>
<path fill-rule="evenodd" clip-rule="evenodd" d="M377.18 669.66C376.48 672.91 375.76 676.16 375.01 679.41L354.56 768.31H300.87L254.44 557.06H312.76L328.9 647.91C329.8 653 330.69 658.1 331.54 663.21C332.66 657.84 333.8 652.47 334.94 647.11L354.04 557.05H405.54L423.29 648.26C424.01 651.98 424.72 655.71 425.41 659.43C426.12 655.3 426.84 651.17 427.56 647.03L444.79 557.05H501.18L451.19 768.3H397.17L379.14 679.25C378.45 676.05 377.8 672.86 377.18 669.66ZM558.29 719.01H629.1V768.3H502.98V557.05H625.09V606.34H558.3V634.89H621.32V683.43H558.3V719.01H558.29ZM694.89 718.76H763.94V768.3H639.57V557.05H694.89V718.76ZM915.22 566.01L909.11 562.67C897.21 556.18 878.08 554.28 864.84 554.28C844.96 554.28 825.27 559.07 808.29 569.57C774.7 590.35 761.1 626.86 761.1 665.05C761.1 726.58 796.6 770.8 860.32 770.8C874.33 770.8 894.15 768.8 906.96 762.61L913.14 759.62L904.68 711.65L894.13 716.22C886.36 719.59 874.86 721 866.35 721C831.4 721 818.18 695.19 818.18 663.04C818.18 631.3 831.86 603.57 866.6 603.57C876.16 603.57 885.11 605.3 893.88 609.1L903.78 613.39L915.22 566.01ZM1002.94 554.04C1063.11 554.04 1091.62 605.7 1091.62 660.29C1091.62 697.84 1080.97 738.34 1046.77 758.93C1032.72 767.39 1016.75 771.06 1000.43 771.06C939.74 771.06 911.51 718.27 911.51 663.3C911.51 627.63 923.53 589.77 954.1 568.72C968.61 558.73 985.39 554.04 1002.94 554.04ZM1249.06 669.55C1247.94 673.37 1246.81 677.19 1245.66 680.99L1220.11 765.53H1178.35L1155.19 682.13C1154.43 679.47 1153.68 676.81 1152.95 674.14C1152.77 677.88 1152.58 681.62 1152.39 685.36L1148.19 768.3H1095.95L1110.24 557.05H1171.51L1194.28 636.34C1197.03 646.56 1199.68 656.81 1202.18 667.1C1204.79 656.74 1207.56 646.4 1210.47 636.08L1234.26 557.05H1295.28L1307.37 768.3H1253.69L1249.77 684.57C1249.51 679.58 1249.28 674.57 1249.06 669.55ZM1376.61 719.01H1447.42V768.3H1321.29V557.05H1443.4V606.34H1376.61V634.89H1439.63V683.43H1376.61V719.01ZM1001.94 602.57C974.61 602.57 968.58 642.24 968.58 662.54C968.58 682.5 974.63 722.52 1001.69 722.52C1029.16 722.52 1034.55 681.89 1034.55 661.79C1034.55 642.02 1028.71 602.57 1001.94 602.57Z" fill="#9DBBD9"/>
<path fill-rule="evenodd" clip-rule="evenodd" d="M436.47 648.74C432.45 671.84 428.69 693.68 425.67 716.53H424.92C422.41 693.93 418.64 672.59 414.38 649.99L398.06 566.12H361.4L343.82 648.98C338.8 673.09 334.03 695.44 331.26 717.03H330.51C327.75 696.44 323.98 672.59 319.96 649.49L305.15 566.12H265.73L308.17 759.21H347.34L366.17 677.35C370.94 657.01 374.46 637.68 377.72 615.83H378.22C380.73 637.68 383.75 657.26 388.01 677.35L404.581 759.21H444L489.701 566.12H452.29L436.47 648.74ZM549.21 728.08V674.35H612.23V643.97H549.21V597.27H616V566.13H512.05V759.22H620.021V728.08H549.21ZM685.81 727.83V566.12H648.65V759.21H754.86V727.82H685.81V727.83ZM904.76 570.65C899.24 567.64 885.68 563.37 864.84 563.37C813.62 563.37 770.18 597.52 770.18 665.06C770.18 722.31 802.32 761.73 860.32 761.73C880.16 761.73 895.72 757.96 903.01 754.45L897.74 724.57C890.21 727.84 877.9 730.1 866.35 730.1C831.45 730.1 809.1 706.75 809.1 663.06C809.1 616.35 834.71 594.51 866.6 594.51C879.91 594.51 889.95 597.52 897.48 600.79L904.76 570.65ZM1002.94 563.11C952.47 563.11 920.58 605.55 920.58 663.3C920.58 719.3 949.46 761.98 1000.43 761.98C1048.39 761.98 1082.54 727.58 1082.54 660.29C1082.54 608.81 1056.43 563.11 1002.94 563.11ZM1001.94 593.5C1030.31 593.5 1043.62 626.39 1043.62 661.8C1043.62 700.72 1029.31 731.61 1001.69 731.61C974.32 731.61 959.51 700.47 959.51 662.56C959.5 627.14 972.81 593.5 1001.94 593.5ZM1240.98 566.13L1219.13 638.7C1212.6 661.8 1206.83 685.15 1202.31 706.75H1201.56C1197.29 684.65 1191.77 662.05 1185.49 638.7L1164.65 566.13H1118.7L1105.64 759.22H1139.54L1143.31 684.9C1144.56 661.04 1145.82 632.42 1146.32 608.06H1147.07C1151.59 631.66 1157.62 657.78 1163.89 679.63L1185.23 756.46H1213.35L1236.95 678.37C1243.48 656.78 1250.51 631.17 1256.03 608.06H1256.78C1256.53 627.65 1257.78 658.78 1258.79 684.15L1262.3 759.23H1297.7L1286.65 566.14H1240.98V566.13ZM1367.53 728.08V674.35H1430.55V643.97H1367.53V597.27H1434.32V566.13H1330.37V759.22H1438.34V728.08H1367.53Z" fill="white"/>
<path fill-rule="evenodd" clip-rule="evenodd" d="M871.79 67.6699L725.29 127.73L765.51 179.11L871.79 67.6699Z" fill="#C4D7EB"/>
<path fill-rule="evenodd" clip-rule="evenodd" d="M704.62 103.52L867.31 68L664.78 82.8L704.62 103.52Z" fill="#C4D7EB"/>
<path fill-rule="evenodd" clip-rule="evenodd" d="M704.62 103.52L708.43 170.97L725.29 127.73L871.79 67.6699L867.31 67.9999L704.62 103.52Z" fill="#9DBBD9"/>
<path fill-rule="evenodd" clip-rule="evenodd" d="M708.43 170.971L743.11 150.5L725.29 127.73L708.43 170.971Z" fill="#85A5C6"/>
<path fill-rule="evenodd" clip-rule="evenodd" d="M681.89 138.55C685.32 138.12 686.12 143.47 682.47 143.92L677.13 144.55C673.64 144.99 672.92 139.63 676.49 139.19L681.89 138.55ZM376.29 484.6C373.07 482.76 375.41 478.35 378.63 479.73C380.23 480.48 381.81 481.21 383.42 481.92C386.71 483.33 384.58 488.29 381.31 486.89L376.29 484.6ZM396.88 492.49C393.63 491.68 394.69 486.38 398.35 487.29C400.06 487.75 401.73 488.21 403.45 488.62C407.01 489.51 405.58 494.72 402.23 493.88C400.43 493.47 398.67 492.98 396.88 492.49ZM418.68 496.41C415.13 495.97 415.39 491.02 419.03 491.02C420.78 491.13 422.51 491.21 424.27 491.23C427.8 491.23 427.83 496.64 424.24 496.64C422.41 496.53 420.54 496.53 418.68 496.41ZM440.88 495.26C437.3 495.71 436.39 490.82 439.89 489.95C441.61 489.65 443.31 489.26 445.01 488.84C448.47 487.98 449.77 493.22 446.32 494.08C444.53 494.53 442.7 494.94 440.88 495.26ZM462.05 488.3C459.3 489.87 456.21 485.42 459.66 483.45C461.23 482.7 462.74 481.85 464.25 480.99C467.41 479.19 470 483.93 466.98 485.65C465.38 486.59 463.72 487.5 462.05 488.3ZM480.5 475.8C477.57 478.24 474.35 473.9 476.89 471.78C478.14 470.66 479.53 469.39 480.66 468.17C483.25 465.58 486.99 469.49 484.54 471.94C483.21 473.27 481.9 474.55 480.5 475.8ZM495.07 459.02C493.08 461.8 488.72 459.27 490.59 456C491.57 454.54 492.51 453.08 493.42 451.57C495.11 448.61 499.89 451.13 498.05 454.35C497.11 455.94 496.11 457.49 495.07 459.02ZM505.4 439.42C504.19 442.64 499.08 440.89 500.37 437.44C501.02 435.8 501.64 434.15 502.22 432.48C503.53 428.98 508.52 431.07 507.33 434.24C506.72 435.98 506.08 437.71 505.4 439.42ZM511.97 418.46C511.1 421.95 505.87 420.6 506.72 417.18L507.95 411.98C508.85 408.35 514.05 409.87 513.22 413.15L511.97 418.46ZM516.45 397.16C516.06 400.31 510.65 400.1 511.14 396.18L512.1 390.88C512.5 387.69 517.91 387.95 517.42 391.83L516.45 397.16ZM520.25 375.87C519.85 379.03 514.44 378.81 514.93 374.9L515.93 369.56C516.78 366.16 521.69 366.92 521.23 370.58L520.25 375.87ZM524.61 354.88C523.74 358.35 518.51 357.02 519.37 353.58C519.8 351.81 520.24 350.02 520.74 348.27C521.56 344.99 526.86 346.09 525.95 349.71C525.43 351.33 525.01 353.22 524.61 354.88ZM529.99 335.81C528.08 337.22 524.84 335.4 525.9 332.59C526.35 331.45 526.83 330.31 527.32 329.19C527.08 327.86 527.93 326.78 529.02 326.34C530.86 325.13 533.97 326.77 533.1 329.45C533.52 330.6 533.94 331.75 534.4 332.88C535.5 335.83 531.83 337.72 529.99 335.81ZM540.83 316.25C538.44 319.12 534.48 315.83 536.48 313.03C537.58 311.52 538.76 310.04 540 308.64C542.17 306.04 546.45 309.34 544.06 312.21C542.92 313.5 541.85 314.86 540.83 316.25ZM555.63 302.01C552.21 303.96 549.92 299.06 552.69 297.47C554.28 296.43 555.85 295.48 557.52 294.57C560.45 292.9 563.33 297.48 560.07 299.34C558.54 300.16 557.07 301.06 555.63 302.01ZM574.51 293.6C570.95 294.49 569.78 289.21 573.13 288.38C574.93 287.89 576.72 287.47 578.55 287.08C581.7 286.29 583.38 291.44 579.61 292.38C577.9 292.73 576.2 293.14 574.51 293.6ZM595.32 290.28C592.15 290.68 591.04 285.37 594.94 284.89C596.78 284.76 598.6 284.67 600.44 284.61C604.21 284.61 603.96 290.01 600.6 290.01C598.84 290.06 597.09 290.15 595.32 290.28ZM616.35 290.69C612.89 290.26 613.47 284.88 617.07 285.33C618.92 285.57 620.73 285.86 622.56 286.2C625.96 287.05 625.2 291.96 621.54 291.5C619.81 291.18 618.09 290.91 616.35 290.69ZM636.39 296.1C633.25 294.76 635.21 289.72 638.62 291.18C640.39 291.98 641.99 292.84 643.69 293.76C646.71 295.48 644.12 300.23 640.96 298.42C639.45 297.57 637.96 296.81 636.39 296.1ZM652.8 308.01C650.45 305.19 654.68 301.83 656.89 304.48C658.14 305.89 659.33 307.48 660.38 309.05C662.35 312.51 657.43 314.75 655.86 312.02C654.93 310.63 653.91 309.26 652.8 308.01ZM661.63 325.92C661.18 322.31 666.07 321.46 666.94 324.92C667.31 326.81 667.55 328.69 667.69 330.61C667.69 334.21 662.74 334.52 662.3 330.94C662.17 329.24 661.96 327.59 661.63 325.92ZM660.52 345.98C661.29 342.91 666.64 343.76 665.68 347.6C665.11 349.43 664.47 351.18 663.71 352.94C662.32 356.18 657.34 354.09 658.76 350.79C659.43 349.18 660.01 347.63 660.52 345.98ZM650.53 363.68C652.68 361.1 656.98 364.37 654.58 367.26C653.35 368.66 652.01 370.07 650.64 371.34C647.83 373.68 644.47 369.88 646.96 367.38C648.21 366.22 649.41 364.96 650.53 363.68ZM634.39 376.41C637.34 374.72 640.19 379.32 636.96 381.17C635.31 382.06 633.63 382.9 631.92 383.65C628.58 385.08 626.54 380.08 629.74 378.7C631.33 378 632.86 377.24 634.39 376.41ZM614.94 383.7C618.13 382.9 619.76 388.06 616.04 388.99C614.21 389.39 612.39 389.74 610.53 390.01C606.96 390.46 606.34 385.09 609.83 384.65C611.56 384.35 613.21 384.07 614.94 383.7ZM594.3 385.04C597.97 385.5 597.14 390.84 593.74 390.41C591.91 390.25 589.93 389.94 588.13 389.58C584.4 388.65 586.04 383.49 589.22 384.29C590.85 384.61 592.63 384.9 594.3 385.04ZM574.5 379.42C577.7 381.25 575.38 385.67 572.15 384.28C570.46 383.48 568.79 382.57 567.17 381.63C564.19 379.93 566.75 375.16 569.95 376.99C571.4 377.86 572.97 378.7 574.5 379.42ZM557.45 367.65C560.12 370.32 556.12 373.96 553.75 371.59C552.39 370.32 551.04 368.99 549.78 367.63C547.3 364.65 551.68 361.49 553.77 363.98C554.93 365.25 556.19 366.48 557.45 367.65ZM544.05 351.6C546 355.02 541.1 357.31 539.51 354.54C538.5 352.99 537.54 351.42 536.61 349.82C534.82 346.69 539.54 344.06 541.29 347.11C542.18 348.63 543.09 350.12 544.05 351.6ZM528.36 312.67C529.14 315.81 524 317.5 523.06 313.73C522.69 311.92 522.36 310.12 522.05 308.3C521.59 304.58 526.97 304.13 527.39 307.48C527.72 309.21 528.01 310.94 528.36 312.67ZM525.78 291.69C525.78 295.46 520.38 295.21 520.38 291.86C520.31 290.02 520.27 288.2 520.27 286.36C520.27 282.82 525.67 282.8 525.67 286.37C525.68 288.15 525.71 289.91 525.78 291.69ZM526.61 270.53C526.17 274.06 520.81 273.39 521.25 269.86C521.47 268.04 521.72 266.2 522.02 264.39C522.43 261.16 527.83 261.46 527.35 265.31C527.01 266.95 526.81 268.85 526.61 270.53ZM530.82 249.8C530.02 252.98 524.7 252 525.64 248.27C526.15 246.51 526.7 244.76 527.27 243.02C528.6 239.47 533.56 241.62 532.39 244.74C531.84 246.42 531.31 248.09 530.82 249.8ZM538.33 230.05C536.36 233.5 531.92 230.4 533.48 227.66C534.28 226 535.09 224.37 535.96 222.74C537.81 219.5 542.4 222.36 540.71 225.3C539.88 226.87 539.1 228.45 538.33 230.05ZM548.99 211.78C546.93 214.66 542.52 211.54 544.59 208.64C545.65 207.14 546.72 205.65 547.84 204.19C550.27 201.27 554.24 204.95 552.11 207.5C551.04 208.91 550.01 210.33 548.99 211.78ZM562.48 195.46C559.91 198.03 556.15 194.15 558.62 191.68C559.9 190.36 561.21 189.08 562.53 187.81C564.92 185.42 568.89 189.09 566.24 191.74C564.97 192.95 563.71 194.19 562.48 195.46ZM578.35 181.42C575.88 183.48 572.11 179.6 575.11 177.1C576.57 175.99 578.05 174.9 579.55 173.85C582.37 171.84 585.6 176.17 582.63 178.29C581.18 179.3 579.76 180.35 578.35 181.42ZM596.09 169.76C593.06 171.49 590.31 166.84 593.46 165.04C595.05 164.14 596.67 163.26 598.29 162.4C601.11 160.79 604.11 165.29 600.75 167.21C599.19 168.01 597.62 168.89 596.09 169.76ZM615.22 160.42C612.03 161.79 609.8 156.86 613.16 155.43C614.85 154.72 616.55 154.04 618.26 153.38C621.6 152.13 623.49 157.19 620.16 158.44C618.5 159.05 616.85 159.73 615.22 160.42ZM635.29 153.25C631.59 154.17 630.58 148.86 633.78 148.06L639.03 146.55C642.61 145.66 643.76 150.94 640.43 151.77L635.29 153.25ZM656.03 148.03C652.86 148.82 651.21 143.67 654.95 142.73C656.73 142.36 658.52 142.03 660.3 141.69C664.22 141.2 664.43 146.61 661.28 147C659.54 147.34 657.78 147.67 656.03 148.03Z" fill="#85A5C6"/>
<path fill-rule="evenodd" clip-rule="evenodd" d="M1132.02 8.08008L1256.87 107.12L1203.61 145.55L1132.02 8.08008Z" fill="#C4D7EB"/>
<path fill-rule="evenodd" clip-rule="evenodd" d="M1283.63 89.4904L1136.26 9.65039L1327.94 80.5904L1283.63 89.4904Z" fill="#C4D7EB"/>
<path fill-rule="evenodd" clip-rule="evenodd" d="M1283.63 89.4901L1261.09 153.64L1256.87 107.12L1132.02 8.08008L1136.26 9.65005L1283.63 89.4901Z" fill="#9DBBD9"/>
<path fill-rule="evenodd" clip-rule="evenodd" d="M1261.09 153.64L1233.28 124.15L1256.87 107.12L1261.09 153.64Z" fill="#85A5C6"/>
<path fill-rule="evenodd" clip-rule="evenodd" d="M1282.38 138.87C1279.01 136.95 1282.02 132.45 1284.84 134.06C1286.49 134.91 1288.09 135.78 1289.7 136.71C1292.78 138.47 1290.12 143.17 1287.01 141.4C1285.48 140.51 1283.95 139.68 1282.38 138.87ZM1708.88 217.56C1711.36 214.58 1715.27 218.33 1713.19 220.82L1709.86 225.16C1707.47 228.02 1703.45 224.41 1705.62 221.81L1708.88 217.56ZM1695.22 233.91C1697.87 231.26 1701.53 235.24 1699.14 237.62C1697.89 238.96 1696.61 240.27 1695.32 241.57C1692.83 244.06 1688.98 240.26 1691.52 237.73C1692.77 236.48 1694 235.2 1695.22 233.91ZM1679.76 248.53C1682.48 246.26 1685.95 250.41 1683.21 252.69C1681.81 253.86 1680.38 255.02 1678.94 256.15C1676.39 258.28 1672.71 254.31 1675.63 251.88C1677.03 250.78 1678.4 249.67 1679.76 248.53ZM1662.64 261.16C1666.04 259.22 1668.35 264.11 1665.56 265.7C1664.03 266.7 1662.47 267.66 1660.9 268.61C1657.7 270.44 1655.15 265.67 1658.12 263.97C1659.64 263.05 1661.15 262.13 1662.64 261.16ZM1644.1 271.56C1647.62 270.05 1649.45 275.14 1646.42 276.44C1644.77 277.23 1643.11 278 1641.44 278.75C1638.1 280.18 1636.05 275.18 1639.27 273.8C1640.89 273.07 1642.5 272.33 1644.1 271.56ZM1624.41 279.62C1627.52 278.46 1629.68 283.41 1626.12 284.74C1624.39 285.32 1622.65 285.89 1620.91 286.43C1617.13 287.37 1616.21 282.04 1619.35 281.26C1621.04 280.74 1622.73 280.19 1624.41 279.62ZM1603.88 285.29C1607.09 284.49 1608.69 289.65 1605 290.58C1603.21 290.96 1601.42 291.31 1599.63 291.65C1595.72 292.14 1595.5 286.73 1598.66 286.33C1600.4 286.01 1602.15 285.66 1603.88 285.29ZM1582.83 288.6C1586.2 288.18 1587.07 293.52 1583.37 293.98C1581.55 294.16 1579.72 294.32 1577.9 294.46C1574.75 294.85 1573.62 289.56 1577.54 289.07L1582.83 288.6ZM1561.54 289.61C1565.04 289.61 1565.11 295.01 1561.49 295.01C1559.67 295.01 1557.84 294.97 1556.02 294.91C1552.68 294.91 1552.42 289.51 1556.2 289.51C1557.98 289.57 1559.76 289.61 1561.54 289.61ZM1540.24 288.42C1543.86 288.87 1543.09 294.22 1539.64 293.79C1537.83 293.6 1536.02 293.38 1534.21 293.14C1530.76 292.71 1531.33 287.34 1534.94 287.79C1536.71 288.01 1538.47 288.23 1540.24 288.42ZM1519.18 285.07C1522.84 285.99 1521.29 291.17 1518.04 290.35C1516.26 289.97 1514.48 289.57 1512.71 289.15C1509.2 288.27 1510.58 283.05 1513.97 283.9C1515.7 284.3 1517.43 284.7 1519.18 285.07ZM1498.58 279.58C1502.15 280.92 1499.97 285.87 1496.88 284.71C1495.15 284.14 1493.42 283.57 1491.71 282.96C1488.28 281.67 1490.29 276.66 1493.53 277.87C1495.2 278.46 1496.88 279.03 1498.58 279.58ZM1478.71 271.91C1481.8 273.24 1479.89 278.29 1476.44 276.81C1474.78 276.05 1473.14 275.27 1471.49 274.47C1469.94 273.59 1469.72 272.21 1470.18 271.09L1469.31 271.27C1465.38 271.76 1465.18 266.35 1468.32 265.96C1470.04 265.61 1471.73 265.23 1473.44 264.8C1476.87 263.94 1478.21 269.17 1474.74 270.05L1478.71 271.91ZM1459.97 261.91C1462.79 263.52 1460.44 268.39 1457.07 266.47C1455.52 265.49 1453.96 264.5 1452.45 263.46C1449.47 261.33 1452.71 257 1455.52 259.02C1456.99 260.01 1458.47 260.97 1459.97 261.91ZM1442.99 249.3C1445.54 251.43 1442.3 255.76 1439.38 253.33C1438 252.11 1436.66 250.84 1435.34 249.55C1432.79 247 1436.65 243.22 1439.13 245.71C1440.4 246.93 1441.67 248.14 1442.99 249.3ZM1429.01 233.74C1431 236.53 1426.7 239.8 1424.55 236.79C1423.48 235.26 1422.49 233.65 1421.54 232.04C1419.77 228.94 1424.47 226.27 1426.23 229.35C1427.1 230.84 1428.02 232.33 1429.01 233.74ZM1420.48 215.15C1421.29 218.41 1416.11 219.95 1415.2 216.3C1414.77 214.42 1414.46 212.6 1414.23 210.69C1413.8 207.28 1419.15 206.46 1419.6 210.12C1419.81 211.84 1420.09 213.47 1420.48 215.15ZM1420.76 195.11C1419.97 198.28 1414.64 197.31 1415.58 193.57C1416.1 191.73 1416.68 189.93 1417.42 188.16C1418.83 184.87 1423.79 187.02 1422.39 190.28C1421.73 191.82 1421.22 193.5 1420.76 195.11ZM1430.19 176.83C1427.79 179.71 1423.85 176.41 1425.84 173.63C1426.93 172.13 1428.04 170.67 1429.21 169.23C1431.53 166.45 1435.63 169.96 1433.39 172.65C1432.28 174.02 1431.23 175.41 1430.19 176.83ZM1444.39 161.63C1441.84 163.76 1438.16 159.79 1441.08 157.36C1442.57 156.19 1444.05 155.12 1445.63 154.07C1449.07 152.1 1451.33 157.02 1448.59 158.59C1447.14 159.56 1445.76 160.55 1444.39 161.63ZM1462.5 152.27C1458.96 153.16 1457.76 147.88 1461.12 147.04C1462.96 146.54 1464.85 146.17 1466.73 145.89C1470.35 145.44 1470.91 150.81 1467.46 151.25C1465.82 151.48 1464.1 151.83 1462.5 152.27ZM1482.66 151.7C1478.98 150.78 1480.56 145.61 1483.78 146.41C1485.62 146.78 1487.5 147.26 1489.28 147.84C1492.52 149.05 1491.22 153.88 1487.61 152.98C1486.02 152.46 1484.31 152.03 1482.66 151.7ZM1501.48 159.68C1498.45 157.52 1501.75 153.23 1504.51 155.21C1506.08 156.26 1507.58 157.35 1509.06 158.53C1511.86 160.87 1508.32 164.95 1505.65 162.73C1504.34 161.65 1502.89 160.63 1501.48 159.68ZM1516.6 173.79C1514.48 171.24 1518.44 167.56 1520.88 170.49C1522.03 171.98 1523.12 173.49 1524.16 175.05C1526.12 178.48 1521.2 180.76 1519.63 178C1518.68 176.56 1517.65 175.15 1516.6 173.79ZM1526.6 191.87C1525.4 188.66 1530.4 186.61 1531.7 190.08C1532.34 191.85 1532.88 193.66 1533.36 195.47C1534.23 198.96 1528.98 200.22 1528.12 196.81C1527.68 195.15 1527.18 193.49 1526.6 191.87ZM1529.81 212.06C1529.81 208.84 1535.21 208.43 1535.21 212.33C1535.13 214.23 1534.96 216.13 1534.66 218C1534.25 221.29 1528.85 220.91 1529.32 217.13C1529.58 215.47 1529.74 213.75 1529.81 212.06ZM1524.51 231.59C1526.35 228.37 1530.95 231.21 1529.26 234.16C1528.38 235.82 1527.35 237.51 1526.27 239.05C1524.19 241.97 1519.81 238.8 1521.86 235.92C1522.81 234.55 1523.72 233.06 1524.51 231.59ZM1511.33 247.13C1513.91 244.98 1517.55 248.97 1514.66 251.38C1513.18 252.55 1511.71 253.65 1510.15 254.71C1506.9 256.57 1504.34 252.22 1507.14 250.22C1508.6 249.23 1509.96 248.21 1511.33 247.13ZM1493.33 257.73C1496.7 256.29 1498.69 261.31 1495.52 262.67C1493.84 263.42 1492.16 264.14 1490.46 264.84C1487.12 266.09 1485.16 261.23 1488.45 259.82C1490.1 259.15 1491.72 258.45 1493.33 257.73ZM1452.72 267.62C1450.98 267.62 1449.23 267.61 1447.5 267.49C1444.34 267.09 1443.22 272.39 1447.13 272.88C1448.98 273 1450.85 273.03 1452.71 273.02C1456.28 273.03 1456.26 267.62 1452.72 267.62ZM1432.08 264.93C1435.35 265.75 1434.26 271.04 1430.63 270.14C1428.89 269.7 1427 269.06 1425.3 268.46C1421.87 267.17 1423.88 262.16 1427.12 263.37C1428.7 263.92 1430.45 264.52 1432.08 264.93ZM1412.87 256.76C1415.92 258.5 1413.29 263.23 1410.16 261.43C1408.58 260.53 1406.94 259.55 1405.42 258.53C1402.69 256.97 1404.93 252.04 1408.39 254.02C1409.84 254.98 1411.36 255.9 1412.87 256.76ZM1395.65 244.54C1398.35 246.79 1394.94 250.97 1392.16 248.66C1390.76 247.48 1389.39 246.28 1388.02 245.06C1385.47 242.94 1388.7 238.6 1391.63 241.04C1392.96 242.23 1394.29 243.4 1395.65 244.54ZM1380.19 229.87C1382.6 232.28 1378.91 236.23 1376.28 233.6L1372.55 229.63C1370.05 226.64 1374.46 223.48 1376.53 225.97C1377.74 227.28 1378.95 228.59 1380.19 229.87ZM1365.87 213.89C1368.19 216.67 1363.99 220.07 1361.75 217.38L1358.26 213.25C1355.96 210.49 1360.12 207.05 1362.4 209.77L1365.87 213.89ZM1352.08 197.3C1354.34 200.01 1350.21 203.5 1347.91 200.74L1344.48 196.57C1342.22 193.86 1346.35 190.37 1348.65 193.13L1352.08 197.3ZM1338.2 180.66C1340.54 183.46 1336.32 186.84 1334.09 184.17L1330.58 180.11C1328.2 177.25 1332.47 173.94 1334.65 176.55L1338.2 180.66ZM1323.63 164.48C1326.06 166.91 1322.35 170.84 1319.74 168.23L1316 164.42C1313.45 161.87 1317.31 158.09 1319.8 160.57L1323.63 164.48ZM1307.69 149.47C1310.42 151.75 1306.96 155.9 1304.23 153.62C1302.9 152.5 1301.5 151.34 1300.11 150.29C1297.16 147.83 1300.87 143.89 1303.4 146C1304.85 147.12 1306.29 148.29 1307.69 149.47Z" fill="#85A5C6"/>
<path fill-rule="evenodd" clip-rule="evenodd" d="M221.25 894.351C221.25 894.351 196.27 912.381 192.34 917.731C186.68 925.481 234.64 939.941 229.42 930.881C228.22 928.811 224.77 921.771 224.61 921.111C223.82 917.401 233.99 907.501 233.99 907.501L221.25 894.351Z" fill="#79B9F9"/>
<path fill-rule="evenodd" clip-rule="evenodd" d="M242.39 946.04L225.43 922.05C225.43 922.05 214.86 919.61 203.97 907.36C203.97 907.36 194.2 911.07 188.2 919.19C188.2 919.19 199.56 931.4 217.05 945.2C217.05 945.2 227.42 954.35 241.74 959.24C256.08 964.07 242.39 946.04 242.39 946.04Z" fill="#0E1C52"/>
<path fill-rule="evenodd" clip-rule="evenodd" d="M12.5203 566.181C12.5203 566.181 15.5903 568.901 16.6803 569.751C17.9503 570.691 21.9903 573.321 21.9903 573.321C21.9903 573.321 36.5703 581.581 37.0603 580.501C37.5503 579.421 37.5403 576.271 36.8203 575.431C36.1003 574.631 34.0003 573.741 33.2803 572.941C32.5603 572.101 32.3103 570.451 33.2403 569.511C34.1703 568.571 39.1503 571.291 39.1503 571.291C39.1503 571.291 43.1803 573.541 44.8703 576.271C50.7203 585.611 48.9503 586.181 49.7203 587.351C50.6503 588.761 71.0903 598.061 71.0903 598.061C71.0903 598.061 132.22 623.461 135.51 624.871H135.56C136.01 627.691 134.49 630.271 133.71 632.811C132.25 641.541 129.65 642.101 127.67 650.511C118.29 645.771 53.4003 610.041 46.7903 606.281C46.7903 606.281 36.9103 604.591 30.7403 603.371C24.5603 602.101 19.1803 598.161 17.4903 597.551C17.2303 597.461 11.7103 595.111 5.63034 590.371C0.400336 586.331 7.16034 587.831 7.16034 587.831C7.16034 587.831 18.1503 593.701 18.4503 592.761C18.6703 592.061 12.4803 589.191 6.64033 584.781C5.14033 583.651 3.66034 582.531 2.31034 581.451C-1.22966 578.731 -0.60966 575.821 3.54034 578.121C5.01034 578.971 7.41034 580.371 8.99034 581.591C10.6903 582.951 12.6703 583.661 14.2803 584.551C17.4603 586.381 19.7503 587.741 19.7503 587.601C19.7503 587.361 20.6203 587.271 19.0603 586.001C17.2003 584.501 12.5303 582.151 9.95034 579.711C8.48034 578.351 5.24034 575.631 5.24034 575.631C5.24034 575.631 1.09034 570.701 1.29034 570.371C2.39034 568.591 6.16034 571.221 7.91034 573.331C9.71034 574.131 13.0403 577.091 13.0403 577.091C13.0403 577.091 21.0603 581.551 21.6803 580.421C21.9403 579.951 17.3303 576.661 13.3203 572.721C9.58034 569.061 6.39034 564.791 6.98034 563.941C7.95034 562.571 12.5203 566.181 12.5203 566.181ZM312.79 355.951C312.79 355.951 313.62 359.801 313.8 361.111C314 362.661 314.26 367.351 314.26 367.351C314.26 367.351 314.15 383.741 312.93 383.691C311.72 383.641 308.94 382.231 308.58 381.251C308.22 380.261 308.54 378.011 308.18 377.021C307.82 376.041 306.46 375.101 305.17 375.471C303.88 375.891 303.75 381.431 303.75 381.431C303.75 381.431 303.67 385.941 305.2 388.611C310.5 397.861 311.89 396.591 312.52 397.771C313.29 399.221 311.06 421.201 311.06 421.201C311.06 421.201 302.33 485.851 301.89 489.321L301.86 489.371C304.13 491.011 307.2 490.831 309.8 491.251C318.24 493.831 320.08 491.811 328.51 493.831C329.1 483.501 330.63 411.011 330.71 403.591C330.71 403.591 334.25 394.201 336.28 388.241C338.32 382.281 337.61 375.851 337.93 374.111C337.98 373.831 338.7 367.961 337.63 360.591C336.72 354.211 334.62 360.781 334.62 360.781C334.62 360.781 334.16 372.991 333.2 372.851C332.45 372.711 333.1 366.041 332.16 359.001C331.93 357.171 331.69 355.391 331.46 353.741C330.82 349.421 327.96 348.671 327.89 353.321C327.86 354.961 327.87 357.691 328.18 359.611C328.49 361.721 328.09 363.741 328.09 365.571C328.08 369.141 328.12 371.721 327.96 371.671C327.77 371.571 327.27 372.281 326.95 370.401C326.57 368.051 326.86 362.941 326.03 359.601C325.57 357.721 324.83 353.681 324.83 353.681C324.83 353.681 322.56 347.861 322.17 347.901C320.05 348.091 320.43 352.551 321.41 354.991C321.21 356.911 322.1 361.141 322.1 361.141C322.1 361.141 321.97 370.111 320.69 370.201C320.14 370.201 319.56 364.711 318.13 359.451C316.8 354.571 314.65 349.871 313.62 350.061C311.91 350.311 312.79 355.951 312.79 355.951Z" fill="#79B9F9"/>
<path fill-rule="evenodd" clip-rule="evenodd" d="M183.05 709.28L186.99 728.81L286.31 819.14L215.23 891.11L234.41 910.69C234.41 910.69 339.41 833.6 343.19 823.51C349.03 807.97 267.93 704.92 267.93 704.92L183.05 709.28Z" fill="#0E1C52"/>
<path fill-rule="evenodd" clip-rule="evenodd" d="M113.45 946.33C113.45 946.33 88.4704 964.36 84.5404 969.71C78.8704 977.46 126.84 991.92 121.61 982.86C120.41 980.79 116.96 973.8 116.8 973.1C116.01 969.39 126.18 959.48 126.18 959.48L113.45 946.33Z" fill="#79B9F9"/>
<path fill-rule="evenodd" clip-rule="evenodd" d="M134.62 998.111L117.66 974.121C117.66 974.121 106.39 972.101 95.5302 959.891C95.5302 959.891 86.4402 963.181 80.4302 971.251C80.4302 971.251 91.7802 983.501 109.27 997.261C109.27 997.261 119.65 1006.46 133.97 1011.3C148.3 1016.14 134.62 998.111 134.62 998.111Z" fill="#0E1C52"/>
<path fill-rule="evenodd" clip-rule="evenodd" d="M186.45 718.341L190.91 841.631L106.94 944.591L126.62 962.711C126.62 962.711 224.11 879.051 234.81 855.761C241.45 841.251 263.79 710.641 263.79 710.641L186.45 718.341Z" fill="#021B79"/>
<path fill-rule="evenodd" clip-rule="evenodd" d="M266.56 708.251C258.48 689.991 259.41 559.331 227.97 528.721C216.92 530.551 209.03 531.631 207.18 532.101C205.55 545.571 203.74 594.961 202.63 640.221C201.89 670.411 202.66 702.051 198.95 718.721C196.63 729.051 273.93 724.871 266.56 708.251Z" fill="white"/>
<path fill-rule="evenodd" clip-rule="evenodd" d="M181.46 538.86C172.63 540.83 166.15 544.96 154.59 562.05C143.51 578.44 118.92 614.54 118.92 614.54L54.1504 585.76L51.1304 618.58C51.1304 618.58 124.39 656.66 134.72 653.23C145.07 649.8 171.48 611.92 173.63 609.05C174.12 608.39 171.78 654.83 171.78 662.2C171.78 669.52 159.79 728.59 159.79 728.59C159.79 728.59 195.42 737.37 202.38 721.41C223.7 672.58 207.33 532.06 207.33 532.06C207.33 532.06 187.82 537.4 181.46 538.86ZM235.26 536.32C235.26 536.32 249.71 574.96 260.21 569.75C270.71 564.49 328.01 502.05 328.61 499.14C329.19 496.23 333.28 422.43 333.28 422.43L309.95 417.74L294.3 477.65C294.3 477.65 253.36 519.48 244.6 523.57C235.84 527.64 235.26 536.32 235.26 536.32Z" fill="#0575E6"/>
<path fill-rule="evenodd" clip-rule="evenodd" d="M269.7 716.98C276.77 716.98 279.39 715.99 284.08 714.58C284.08 714.58 270.63 638.76 262.81 563.55C259.72 533.83 256.84 521.67 244.59 523.83C241.05 524.44 231.46 528.1 227.97 528.71C258.76 615.8 258.86 682.89 263.22 702.33C265.42 712.1 267.32 717.03 269.7 716.98Z" fill="#0575E6"/>
<path fill-rule="evenodd" clip-rule="evenodd" d="M224.73 515.52L227.95 528.71C227.95 528.71 228.69 540.17 223.37 541.2C216.96 542.42 207.42 532.84 207.42 532.84L201.9 495.7L224.73 515.52Z" fill="#90C3F7"/>
<path fill-rule="evenodd" clip-rule="evenodd" d="M224.73 515.52L227.95 528.71C227.95 528.71 228.69 540.17 223.37 541.2C216.96 542.42 207.42 532.84 207.42 532.84L201.9 495.7L224.73 515.52Z" fill="#79B9F9"/>
<path fill-rule="evenodd" clip-rule="evenodd" d="M201.95 495.851L224.73 515.521L227.13 525.381C218.43 523.271 206.02 513.691 201.95 495.851Z" fill="#5878F2"/>
<path fill-rule="evenodd" clip-rule="evenodd" d="M224.8 461.721C230.31 461.721 235.26 465.521 237.2 471.021C238.8 475.571 240.87 482.341 242.17 490.081C244.58 504.351 236.45 517.401 229.39 518.481C222.31 519.511 205.46 514.821 201.74 494.581C200.13 485.941 198.04 474.531 205.16 468.571C210.7 463.931 218.48 461.721 224.8 461.721Z" fill="#79B9F9"/>
<path fill-rule="evenodd" clip-rule="evenodd" d="M204.03 510.03C204.03 510.03 179.09 487.78 178.01 470.4C176.91 453.08 192.95 443.78 206.66 443.26C212.86 443.07 217.05 443.35 223.43 444.15C237.17 445.89 246.07 451.94 242.93 463.21C238.73 478.33 210.22 465.56 204.4 470.25C199.59 474.15 207.38 483.44 202.71 486.96C198.32 490.34 200.56 489.21 202 495.55C203.46 501.91 204.03 510.03 204.03 510.03Z" fill="#021B79"/>
<path fill-rule="evenodd" clip-rule="evenodd" d="M194.4 489.891C195.02 494.021 197.56 497.121 200.09 496.741C202.6 496.361 204.15 492.701 203.53 488.521C202.91 484.341 200.37 481.291 197.85 481.671C195.33 482.051 193.8 485.711 194.4 489.891Z" fill="#79B9F9"/>
<path fill-rule="evenodd" clip-rule="evenodd" d="M1469.58 509.58C1471.46 497.04 1473.4 484.47 1484.97 474.3C1494.33 466.1 1505.98 463.77 1517.35 466.62C1549.54 474.73 1541.75 503.26 1566.38 526.51C1576.91 536.42 1590.3 539.84 1598.91 550.77C1614.49 570.46 1612.33 608.25 1586.97 634.52C1524.85 698.88 1466.88 619.07 1462.73 600.15C1459.64 586.08 1468.37 517.66 1469.58 509.58Z" fill="#021B79"/>
<path fill-rule="evenodd" clip-rule="evenodd" d="M1458.07 918.2C1460.21 934.82 1464.48 949.57 1465.07 951.34C1465.37 952.17 1468.34 955.33 1468.66 956.16C1466.03 976.13 1453.24 987.34 1441.35 995.16C1444.32 985.2 1450.42 973.91 1449.81 971.62C1448.83 967.99 1445.18 951.37 1436.7 930.3C1446.3 929.72 1450 923.86 1458.07 918.2Z" fill="#79B9F9"/>
<path fill-rule="evenodd" clip-rule="evenodd" d="M1486.39 675.271L1549.08 718.651C1549.08 718.651 1521.52 750.251 1511.17 762.001C1500.83 773.751 1447.6 817.281 1446.83 819.911C1446.66 820.421 1450.06 826.171 1451.54 833.581C1455.54 853.591 1461.29 892.661 1464.65 926.241C1458.8 933.391 1445.14 936.011 1437.08 938.731C1413.71 898.911 1400.41 820.041 1399.76 810.461C1398.75 794.911 1486.39 675.271 1486.39 675.271Z" fill="#0E1C52"/>
<path fill-rule="evenodd" clip-rule="evenodd" d="M1666.57 766.35C1664.37 767.96 1647.89 792.01 1641.05 805.24C1634.56 799.39 1631.02 793.09 1623.48 788.67C1631.1 780.16 1646.59 759.21 1648.37 753.9C1652.57 741.38 1655.66 739.95 1655.66 739.95C1655.66 739.95 1695.13 761.16 1697.32 765.74C1699.5 770.28 1675.44 759.63 1666.57 766.35Z" fill="#79B9F9"/>
<path fill-rule="evenodd" clip-rule="evenodd" d="M1647.48 756.711C1644.26 756.221 1649.88 741.571 1651.12 738.211C1652.49 734.411 1654.84 733.551 1655.41 733.491C1656.94 733.381 1700.81 756.991 1707.77 764.051C1708.26 764.531 1709.02 765.941 1709.13 766.231C1712.24 775.241 1673.97 770.791 1669.01 766.261C1664.6 762.301 1661.98 759.011 1647.48 756.711Z" fill="#0E1C52"/>
<path fill-rule="evenodd" clip-rule="evenodd" d="M1474.56 690.06L1525.13 664.66C1524.93 664.8 1525.59 666.87 1525.64 667.02C1531.83 686.52 1557.36 677.19 1570.38 710.97C1579.55 734.79 1581.59 817.04 1581.59 817.04C1581.59 817.04 1604.58 797.42 1628.7 776.56C1630.91 774.68 1650.72 793.62 1650.72 793.62C1620.34 854.51 1568.26 881.06 1561.24 878.84C1537.3 871.42 1490.96 717.72 1491.01 717.71C1485.83 708.72 1474.56 690.06 1474.56 690.06Z" fill="#021B79"/>
<path fill-rule="evenodd" clip-rule="evenodd" d="M1549.18 552.17C1549.18 552.17 1612.19 534.54 1626.27 531.46C1640.36 528.43 1688.83 508.78 1690.68 507.97C1692.54 507.11 1698.33 480.61 1701.2 482.38C1704.07 484.15 1697.55 495.79 1701.1 497.15C1704.66 498.56 1733.71 484.04 1734.03 486.54C1734.64 491.19 1716.6 496.14 1717.27 498.26C1717.95 500.38 1735.6 491.31 1737.96 494.44C1740.32 497.63 1720.43 501.44 1720.17 503.28C1719.88 505.07 1739.39 502.23 1738.5 506.14C1738.01 508.23 1721.09 508.23 1721.9 510.63C1722.72 513.03 1735.72 515.11 1734.95 517.53C1734.16 519.9 1724.26 514.29 1717.67 516.18C1711.1 518.07 1705.32 515.96 1695.8 522.19C1686.27 528.42 1655.29 554.37 1632.67 560.11C1610.06 565.9 1560.09 578.73 1560.09 578.73L1549.18 552.17ZM1474.95 550.87C1474.95 550.87 1446.15 492.07 1439.07 479.57C1431.96 467.03 1414.38 417.76 1413.76 415.79C1413.14 413.87 1429.04 391.88 1425.82 390.93C1422.59 389.97 1418.27 402.57 1414.86 400.87C1411.45 399.16 1402.95 367.8 1400.88 369.23C1397 371.87 1405.32 388.62 1403.28 389.52C1401.23 390.42 1396.27 371.24 1392.34 371.58C1388.42 371.92 1398.81 389.29 1397.63 390.69C1396.46 392.14 1385.58 375.66 1383.28 378.92C1382.02 380.7 1393.31 393.32 1390.96 394.28C1388.6 395.29 1378.4 387.02 1377.15 389.16C1375.89 391.31 1386.69 394.95 1389.64 401.16C1392.58 407.32 1398.02 410.24 1399.72 421.48C1401.42 432.73 1402.67 473.1 1413.43 493.81C1424.19 514.57 1447.84 560.37 1447.84 560.37L1474.95 550.87Z" fill="#79B9F9"/>
<path fill-rule="evenodd" clip-rule="evenodd" d="M1461.14 625.02C1459.51 613.81 1456.02 583.62 1456.26 579.84C1452.23 568.34 1439.21 551.83 1436.4 547.06C1436.4 547.06 1451.25 526.92 1463.23 526.33C1463.23 526.33 1477.03 542.26 1486.81 546.79C1486.94 546.71 1490.26 548.07 1491.65 547.94C1500.76 547.31 1532.52 544.19 1538.59 545.66L1538.6 597.26C1537.09 600.35 1538.89 659.56 1535.69 664.69C1532.49 669.76 1482.71 695.26 1473.84 690.11C1473.48 689.91 1464.42 647.65 1461.14 625.02Z" fill="#6D9DCE"/>
<path fill-rule="evenodd" clip-rule="evenodd" d="M1522.39 547.54C1523.77 546.68 1527.08 545.67 1531.96 545.29C1546.38 544.08 1570.65 541.88 1570.65 541.88C1570.65 541.88 1578.61 572.41 1574.31 580.17C1574.31 580.17 1536.71 588.54 1538 591.74L1522.39 547.54Z" fill="#6D9DCE"/>
<path fill-rule="evenodd" clip-rule="evenodd" d="M1511.16 527.67C1511.16 527.67 1509.03 545.7 1510.15 552.71C1511.28 559.72 1509.6 582.59 1495.35 583.6C1481.12 584.61 1490.75 554.95 1491.63 547.94C1492.53 540.98 1491.45 519.63 1491.45 519.63L1511.16 527.67Z" fill="#79B9F9"/>
<path fill-rule="evenodd" clip-rule="evenodd" d="M1491.84 530.31C1491.69 524.46 1491.45 519.63 1491.45 519.63L1511.16 527.67C1511.16 527.67 1510.73 531.33 1510.34 536.03C1502.11 538.36 1495.83 535.52 1491.84 530.31Z" fill="#5878F2"/>
<path fill-rule="evenodd" clip-rule="evenodd" d="M1514.91 477.97C1514.91 477.97 1522.55 481.79 1525.85 490.87C1529.14 499.9 1527.65 523.99 1509.01 531C1490.38 538.01 1480.89 519.67 1483.84 504.62C1486.79 489.58 1494.09 470.32 1514.91 477.97Z" fill="#79B9F9"/>
<path fill-rule="evenodd" clip-rule="evenodd" d="M1481.1 499.05C1481.72 502.96 1484.02 505.9 1486.22 505.49C1488.43 505.14 1489.68 501.62 1489.06 497.71C1488.42 493.75 1486.12 490.87 1483.92 491.22C1481.72 491.57 1480.45 495.09 1481.1 499.05Z" fill="#79B9F9"/>
<path fill-rule="evenodd" clip-rule="evenodd" d="M1465.21 951.83C1466.55 948.72 1478.21 959.47 1480.98 961.68C1484.1 964.18 1484.22 966.78 1484.1 967.33C1483.81 968.86 1451.04 1006.84 1441.73 1011.76C1440.86 1012.26 1439.06 1012.16 1438.55 1011.95C1433.62 1009.61 1443.34 977.57 1450.23 971.52C1454.69 967.66 1459.11 965.7 1465.21 951.83Z" fill="#0E1C52"/>
<path fill-rule="evenodd" clip-rule="evenodd" d="M1512.59 476.931C1512.59 476.931 1517.8 503.361 1526.36 507.621C1534.92 511.881 1532.24 523.881 1532.24 523.881C1532.24 523.881 1537.91 495.981 1530.82 487.591C1523.72 479.241 1512.59 476.931 1512.59 476.931Z" fill="#021B79"/>
<path fill-rule="evenodd" clip-rule="evenodd" d="M1521.72 511.73C1519.72 515.34 1519.99 519.44 1522.35 520.89C1524.69 522.29 1528.23 520.51 1530.22 516.9C1532.23 513.28 1531.95 509.19 1529.61 507.79C1527.27 506.38 1523.73 508.11 1521.72 511.73Z" fill="#79B9F9"/>
</svg>
