<svg xmlns="http://www.w3.org/2000/svg" enable-background="new 0 0 850 850" viewBox="0 0 850 850" id="Guyisdoingemailmarketing"><g fill="#000000" class="color000000 svgShape"><g fill="#000000" class="color000000 svgShape"><g fill="#000000" class="color000000 svgShape"><path fill="#adcdee" d="M108.2,322.49l-2-0.01c0.01-1.34,0.02-2.68,0.04-4.01l2,0.03C108.23,319.82,108.21,321.15,108.2,322.49z" class="coloreecead svgShape"></path></g><g fill="#000000" class="color000000 svgShape"><path fill="#adcdee" d="M208,405.03c-1.08,0-2.17-0.03-3.24-0.09c-1-0.05-2-0.14-2.98-0.25l0.22-1.99c0.94,0.1,1.91,0.18,2.87,0.24
				c1.63,0.09,3.3,0.11,4.96,0.06l0.06,2C209.26,405.02,208.63,405.03,208,405.03z M217.96,404.25l-0.31-1.98
				c2.53-0.39,5.12-0.95,7.69-1.65l0.53,1.93C223.23,403.27,220.57,403.84,217.96,404.25z M193.79,403.15
				c-2.7-0.76-5.26-1.75-7.62-2.94l0.9-1.79c2.24,1.13,4.69,2.07,7.26,2.8L193.79,403.15z M233.55,400.04l-0.71-1.87
				c2.41-0.92,4.84-1.98,7.24-3.15l0.88,1.8C238.5,398.02,236.01,399.1,233.55,400.04z M179.31,395.72
				c-1.98-1.67-3.72-3.54-5.17-5.57c-1.7,0.07-3.4,0.08-5.1,0.03l0.05-2c2.64,0.06,5.29,0,7.88-0.2l0.15,1.99
				c-0.19,0.01-0.38,0.03-0.57,0.04c1.18,1.5,2.54,2.9,4.05,4.17L179.31,395.72z M248.05,393l-1.02-1.72c1-0.59,2-1.2,2.98-1.83
				c1.22-0.78,2.46-1.6,3.68-2.44l1.14,1.65c-1.25,0.86-2.51,1.7-3.74,2.48C250.08,391.77,249.07,392.4,248.05,393z M160.98,389.59
				c-2.68-0.33-5.36-0.8-7.96-1.39l0.44-1.95c2.54,0.58,5.15,1.04,7.76,1.36L160.98,389.59z M185.16,388.65l-0.5-1.94
				c2.63-0.68,5.08-1.58,7.29-2.68l0.89,1.79C190.5,386.98,187.92,387.93,185.16,388.65z M145.23,385.99
				c-2.59-0.89-5.11-1.91-7.5-3.05l0.86-1.81c2.32,1.1,4.77,2.1,7.29,2.96L145.23,385.99z M261.3,383.89l-1.23-1.58
				c2-1.56,4.06-3.25,6.14-5.03l1.3,1.52C265.42,380.6,263.33,382.31,261.3,383.89z M170.37,382.08c-0.61-2.28-0.93-4.63-0.93-6.98
				c0-0.41,0.01-0.82,0.03-1.23l2,0.09c-0.02,0.38-0.03,0.75-0.03,1.13c0,2.18,0.29,4.35,0.86,6.47L170.37,382.08z M199.66,381.17
				l-1.38-1.44c1.96-1.88,3.31-3.97,4.01-6.21l1.91,0.6C203.39,376.68,201.86,379.06,199.66,381.17z M130.65,379.01
				c-2.31-1.49-4.5-3.12-6.5-4.86l1.31-1.51c1.93,1.67,4.04,3.25,6.27,4.69L130.65,379.01z M273.5,373.46l-1.36-1.47
				c1.83-1.69,3.72-3.48,5.77-5.48l1.39,1.43C277.25,369.95,275.35,371.76,273.5,373.46z M118.44,368.36
				c-1.76-2.1-3.33-4.34-4.69-6.66l1.73-1c1.29,2.22,2.8,4.37,4.49,6.38L118.44,368.36z M173.09,366.54l-1.84-0.77
				c1.13-2.69,2.72-5,4.75-6.86l1.35,1.47C175.54,362.05,174.11,364.13,173.09,366.54z M202.37,366.27
				c-0.71-2.23-2.18-4.28-4.24-5.92l1.24-1.57c2.38,1.89,4.07,4.26,4.91,6.88L202.37,366.27z M191.36,357.13
				c-1.37-0.33-2.77-0.45-4.13-0.49c-1.15,0-2.28,0.12-3.35,0.35l-0.42-1.96c1.21-0.26,2.48-0.39,3.77-0.39c0,0,0,0,0.01,0
				c1.52,0,3.06,0.18,4.58,0.54L191.36,357.13z M110.29,354.33c-0.9-2.43-1.65-5.06-2.24-7.8l1.96-0.42
				c0.57,2.65,1.29,5.19,2.16,7.53L110.29,354.33z M106.81,338.54c-0.26-2.49-0.43-5.12-0.52-8.04l2-0.06
				c0.09,2.87,0.26,5.46,0.51,7.9L106.81,338.54z" class="coloreecead svgShape"></path></g><g fill="#000000" class="color000000 svgShape"><path fill="#adcdee" d="M285.09,362.24l-1.42-1.41c0.94-0.94,1.88-1.89,2.82-2.83l1.42,1.41
				C286.98,360.35,286.04,361.29,285.09,362.24z" class="coloreecead svgShape"></path></g></g><g fill="#000000" class="color000000 svgShape"><g fill="#000000" class="color000000 svgShape"><polygon fill="#d8dfe7" points="92.45 276.78 102.76 330.91 124.85 287.27 165 248.11 161.54 234.4 129.53 248.6" class="colord8d8e7 svgShape"></polygon></g><g fill="#000000" class="color000000 svgShape"><polygon fill="#c8d1db" points="57.22 262.04 189.79 216.33 150.82 305.8 115.87 290.41 156.68 242.33 95.76 283.53" class="colorc8c9db svgShape"></polygon></g></g><g fill="#000000" class="color000000 svgShape"><path fill="#c8d1db" d="M209.4,609.96l204.27,93.59c2.6,1.19,5.57,1.27,8.22,0.22l359.8-142.24c7.33-2.9,8.96-12.54,2.99-17.69
			l-5.67-4.88L476.9,575.89l-261.6,10.42l-7.73,5.66C201.11,596.7,202.12,606.63,209.4,609.96z" class="colorc8c9db svgShape"></path></g><g fill="#000000" class="color000000 svgShape"><path fill="#ffffff" d="M213.86,594.36l204.27,93.59c2.6,1.19,5.57,1.27,8.22,0.22l359.8-142.24c7.33-2.9,8.96-12.54,2.99-17.69
			l-5.67-4.88l-302.11,36.93l-261.6,10.42l-7.73,5.66C205.57,581.1,206.58,591.03,213.86,594.36z" class="colorffffff svgShape"></path></g><g fill="#000000" class="color000000 svgShape"><polygon fill="#d8dfe7" points="219.14 571.29 565.64 457.39 782.85 523.94 424.89 659.18" class="colord8d8e7 svgShape"></polygon></g><g fill="#000000" class="color000000 svgShape"><path fill="#adcdee" d="M263.74,328.11l172.31-154.3c9.33-8.36,23.47-8.33,32.77,0.07l172.37,155.65l-83.42,49.71l-158.64,1.42
			L263.74,328.11z" class="coloreecead svgShape"></path></g><g fill="#000000" class="color000000 svgShape"><polygon fill="#adcdee" points="641.19 332.06 641.19 328.77 263.68 328.77 263.68 329.81 452.73 451.19" class="coloreecead svgShape"></polygon></g><g fill="#000000" class="color000000 svgShape"><rect width="302.84" height="306.98" x="303.09" y="189.8" fill="#e9edf2" class="colore9e9f2 svgShape"></rect></g><g fill="#000000" class="color000000 svgShape"><path fill="#ffffff" d="M570.09,243.95H334.78c-1.46,0-2.65-1.19-2.65-2.65v-11.51c0-1.46,1.19-2.65,2.65-2.65h235.31
			c1.46,0,2.65,1.19,2.65,2.65v11.51C572.74,242.76,571.56,243.95,570.09,243.95z" class="colorffffff svgShape"></path></g><g fill="#000000" class="color000000 svgShape"><path fill="#ffffff" d="M570.09,271.96H334.78c-1.46,0-2.65-1.19-2.65-2.65V257.8c0-1.46,1.19-2.65,2.65-2.65l235.31,0
			c1.46,0,2.65,1.19,2.65,2.65v11.51C572.74,270.77,571.56,271.96,570.09,271.96z" class="colorffffff svgShape"></path></g><g fill="#000000" class="color000000 svgShape"><path fill="#ffffff" d="M570.09,299.97H334.78c-1.46,0-2.65-1.19-2.65-2.65v-11.51c0-1.46,1.19-2.65,2.65-2.65h235.31
			c1.46,0,2.65,1.19,2.65,2.65v11.51C572.74,298.79,571.56,299.97,570.09,299.97z" class="colorffffff svgShape"></path></g><g fill="#000000" class="color000000 svgShape"><rect width="6" height="32" x="336.73" y="199.38" fill="#6d83d6" class="colord6786d svgShape"></rect></g><g fill="#000000" class="color000000 svgShape"><g fill="#000000" class="color000000 svgShape"><path fill="#82b5e8" d="M436.43,200.33l5.92,20.12c9.78,3.16,18.36,2.29,25.95-1.89c0,0-8.37-16.05-6.04-23.07L436.43,200.33z" class="colore89082 svgShape"></path></g><g fill="#000000" class="color000000 svgShape"><path fill="#96c8fb" d="M447.15,180.57c-0.6,0.32-1.3-0.16-1.23-0.83c1.2-11.46-0.55-19.16-11.07-14.09c0.06,0.1,0.11,0.2,0.17,0.31
				c0,0-4.95,4.51-5.21,12.52l-5.85,5.86l2.97,2.56l-0.92,3l0.95,1.21l-0.58,1.76l1.31,1.26c-3.46,7.25,2.93,5.85,9.19,8.45
				l19.29-3.52C458.41,186.61,462.27,172.51,447.15,180.57z" class="colorfba996 svgShape"></path></g><g fill="#000000" class="color000000 svgShape"><path fill="#021459" d="M468.95,162.97c-0.27-0.25-0.53-0.5-0.79-0.77c-10.86-11.41-41.23-10.51-33.31,3.45
				c10.52-5.06,12.27,2.64,11.07,14.09c-0.07,0.67,0.64,1.15,1.23,0.83c15.13-8.06,11.26,6.04,9.03,18.48l5.78-1.05
				C471.38,183.7,477.41,170.66,468.95,162.97z" class="color100259 svgShape"></path></g><g fill="#000000" class="color000000 svgShape"><polygon fill="#021b79" points="505.59 357.88 502.45 496.24 436.77 496.24 436.77 449.88 463.59 369.88" class="color18217d svgShape"></polygon></g><g fill="#000000" class="color000000 svgShape"><path fill="#96c8fb" d="M346.59,239.88c0,0,7-22-3-14c0,0-21-4-17,8l11.65,12.77L346.59,239.88z" class="colorfba996 svgShape"></path></g><g fill="#000000" class="color000000 svgShape"><path fill="#96c8fb" d="M287.59,244.88c0,0-9.72-9.72-11.81-5.44c-1.28,2.63-4.29,3.96-7.2,3.62l-6.31-0.74
				c-1.96-0.23-1.68,1.3-1.68,3.27l0,0c0,1.82-0.52,3.29,1.29,3.29h6.37c2.46,0,4.52,1.86,4.77,4.31l0.32,3.19
				c0.14,1.4,1.35,2.43,2.75,2.36l16.83-0.92L287.59,244.88z" class="colorfba996 svgShape"></path></g><g fill="#000000" class="color000000 svgShape"><path fill="#0575e6" d="M434.8,363.56c0,0-57.53,89.35-64.37,133.33h75.53c0,0,73.63-93.02,59.63-135.02L434.8,363.56z" class="color2698ef svgShape"></path></g><g fill="#000000" class="color000000 svgShape"><path fill="#4e71f3" d="M442.59,220.88l-67,22h-91v16c0,0,99,14,128,9L442.59,220.88z" class="colorf3b34e svgShape"></path></g><g fill="#000000" class="color000000 svgShape"><path fill="#4060d7" d="M442.59,216.88c0,0-29,30-52,62l-44-45l-13,9l49.04,69.92c2.67,3.8,8.02,4.5,11.58,1.51l44.39-42.43
				c0,0,11.5,52.5-5,95c0,0,31,26,76-3c0,0-7-125-41-146C468.59,217.88,453.59,222.88,442.59,216.88z" class="colord79840 svgShape"></path></g><g fill="#000000" class="color000000 svgShape"><path fill="#6d83d6" d="M353.2,190.85c0,0-45.36,0-76.28-32.99c0,0-30.92,20.62-8.25,59.79c0,0,57.73-18.55,84.53-12.37V190.85z" class="colord6786d svgShape"></path></g><g fill="#000000" class="color000000 svgShape"><path fill="#6d83d6" d="M249.65,226.62c-10.87-28.25-7.97-49.13-3.63-61.67c4.75-13.71,12.07-20.62,12.38-20.91l2.72,2.93
				l-1.36-1.47l1.36,1.46c-0.28,0.26-27.59,26.63-7.74,78.22L249.65,226.62z" class="colord6786d svgShape"></path></g></g><g fill="#000000" class="color000000 svgShape"><polygon fill="#c8d1db" points="636.83 569.38 641.19 569.38 641.19 332.06 452.73 451.19" class="colorc8c9db svgShape"></polygon></g><g fill="#000000" class="color000000 svgShape"><polygon fill="#adcdee" points="452.73 451.19 265.73 569.38 636.83 569.38" class="coloreecead svgShape"></polygon></g><g fill="#000000" class="color000000 svgShape"><polygon fill="#c8d1db" points="263.68 329.81 263.68 569.38 265.73 569.38 452.73 451.19" class="colorc8c9db svgShape"></polygon></g></g></svg>