<svg xmlns="http://www.w3.org/2000/svg" viewBox="0 0 1364 960" id="Handwithgiftbox"><path fill="#deedfc" d="M1320.143 387.395c-2.999-1.512-6.513-1.617-9.796-1.381a54.01 54.01 0 0 0-10.208 1.734c-5.023 1.357-9.789 3.462-14.195 6.175 5.509-8.827 9.715-18.549 12.173-28.653a84.648 84.648 0 0 0 1.269-6.27c.091-.146.168-.31.212-.51 1.719-7.779 3.435-15.635 3.341-23.646-.076-6.4-1.184-14.022-6.854-17.971-4.899-3.412-12.424-2.67-14.879 3.317-1.359 3.312-.989 6.982-.3 10.404a51.826 51.826 0 0 0 3.008 9.785 54.762 54.762 0 0 0 12.394 18.183c-1.807 10.653-5.626 20.903-10.953 30.301a101.894 101.894 0 0 1-3.457 5.665c.899-6.166 1.586-12.377 1.163-18.609-.436-6.422-1.878-13.977-7.653-17.797-4.968-3.286-12.526-2.336-14.863 3.65-1.335 3.42-.736 7.248.189 10.694.886 3.299 2.115 6.496 3.608 9.567 3.3 6.788 8.073 12.855 13.857 17.7-3.107 4.047-6.591 7.796-10.557 10.989-5.52 4.446-11.577 7.848-17.939 10.629 2.75-6.343 5.327-12.794 6.548-19.623 1.133-6.34 1.498-14.385-3.752-19.119-4.498-4.056-11.696-4.269-15.065 1.291-1.68 2.773-2.016 6.207-2.024 9.379-.009 3.46.354 6.909 1.009 10.304 1.364 7.075 4.204 13.854 8.227 19.829-13.104 4.991-27.21 7.864-40.476 11.9a150.97 150.97 0 0 0-6.026 1.968c2.685-6.214 5.181-12.536 6.376-19.223 1.133-6.34 1.498-14.386-3.752-19.119-4.498-4.056-11.695-4.269-15.064 1.291-1.68 2.773-2.016 6.206-2.024 9.379-.009 3.459.354 6.909 1.009 10.304 1.335 6.924 4.082 13.567 7.969 19.449-4.305 1.756-8.489 3.78-12.527 6.226-7.321 4.434-14.123 9.711-20.553 15.347-.561.491-1.1 1.006-1.655 1.503 1.438-5.594 2.613-11.246 2.855-17.045.264-6.321-.432-14.139-5.932-18.262-4.865-3.646-12.523-3.274-15.143 2.885-1.36 3.196-1.201 6.762-.681 10.126a53.915 53.915 0 0 0 2.485 9.924 54.707 54.707 0 0 0 10.551 17.826c-9.194 8.864-17.641 18.513-25.452 28.625.562-5.707.892-11.439.28-17.157-.683-6.389-2.355-13.917-8.218-17.582-5.022-3.14-12.534-2.089-14.8 3.892-1.299 3.43-.589 7.28.461 10.679a53.822 53.822 0 0 0 3.955 9.43c3.426 6.413 8.186 12.106 13.862 16.647-.731.993-1.473 1.978-2.193 2.977-5.094 7.074-9.923 14.37-14.403 21.875.466-5.207.692-10.43.139-15.644-.685-6.468-2.395-14.292-8.494-17.842-5.192-3.022-12.522-1.695-14.636 4.396-1.188 3.421-.411 7.262.634 10.613a54.383 54.383 0 0 0 3.93 9.359 54.155 54.155 0 0 0 14.002 16.813c-4.213 7.613-8.051 15.428-11.416 23.439a215.908 215.908 0 0 0-2.676 6.702c-.302.791.414 1.69 1.153 1.873.904.225 1.575-.372 1.873-1.154 3.854-10.113 8.536-19.917 13.804-29.401 6.88 3.27 13.865 6.468 21.355 8.042 6.259 1.315 14.048 1.876 19.004-3.006 4.404-4.339 4.83-11.726-.701-15.297-2.727-1.761-6.152-2.179-9.325-2.284a52.242 52.242 0 0 0-10.055.664 54.75 54.75 0 0 0-16.638 5.531 308.156 308.156 0 0 1 11.241-17.586 316.128 316.128 0 0 1 6.135-8.585c7.153 3.405 14.4 6.802 22.195 8.44 6.258 1.315 14.049 1.876 19.003-3.006 4.404-4.338 4.831-11.725-.701-15.296-2.727-1.761-6.152-2.179-9.325-2.284a52.146 52.146 0 0 0-10.054.664 54.748 54.748 0 0 0-16.603 5.514c7.479-9.636 15.563-18.817 24.299-27.308 5.598 4.414 11.283 8.802 17.701 11.967 5.999 2.958 13.875 5.804 20.231 2.197 5.135-2.914 7.754-9.768 3.681-14.655-1.931-2.318-4.797-3.625-7.62-4.508-3.442-1.076-7.052-1.655-10.639-1.957-5.861-.493-11.797.019-17.502 1.444 5.896-5.335 12.108-10.339 18.759-14.704a92.372 92.372 0 0 1 14.647-7.821c.068.209.182.415.361.607 4.966 5.338 9.964 10.675 15.89 14.969 5.439 3.942 12.874 8.242 19.819 5.865 5.637-1.929 9.628-8.246 6.449-13.884-1.426-2.529-3.973-4.306-6.511-5.592-3.244-1.643-6.779-2.838-10.303-3.705-5.715-1.405-11.616-1.826-17.455-1.34 14.373-4.701 29.574-7.639 43.776-12.944.041.055.075.112.125.165 4.958 5.344 9.948 10.69 15.87 14.99 5.436 3.948 12.861 8.257 19.811 5.889 5.641-1.922 9.635-8.235 6.465-13.876-1.422-2.531-3.969-4.311-6.505-5.6-3.241-1.647-6.775-2.846-10.298-3.717-5.557-1.374-11.291-1.813-16.975-1.397 3.961-1.86 7.809-3.984 11.495-6.483 6.245-4.234 11.487-9.48 16.009-15.4 7.612 2.765 15.279 5.461 23.389 6.266 6.261.622 13.989.253 18.165-5.212 3.609-4.722 3.381-11.895-2.385-14.803zm-31.78-44.749a50.386 50.386 0 0 1-3.338-8.384c-.875-2.922-1.642-5.995-1.633-9.062.007-2.742.908-5.781 3.682-6.875 2.164-.853 4.695-.378 6.668.741 5.109 2.898 5.938 9.888 6.072 15.158.174 6.879-1.089 13.628-2.536 20.32a1.144 1.144 0 0 0-.284.299 51.58 51.58 0 0 1-8.631-12.197zm-200.6 169.65c-1.157-2.794-2.282-5.794-2.593-8.821-.285-2.776.19-5.925 2.855-7.4 2.046-1.132 4.702-.94 6.784-.012 5.521 2.461 7.051 9.598 7.691 14.982.819 6.883.247 13.787-.497 20.648-3.9-3.308-7.311-7.159-10.076-11.478-1.608-2.514-3.021-5.161-4.164-7.919zm50.412 15.124c2.557.534 5.337 1.765 6.164 4.473.698 2.283-.185 4.837-1.641 6.634-3.822 4.717-10.974 4.085-16.273 3.023-7.006-1.405-13.523-4.28-19.948-7.313a51.545 51.545 0 0 1 14.055-5.793c5.554-1.375 11.978-2.205 17.643-1.024zm7.587-75.017c-2.32-5.341-4.292-11.65-3.996-17.537.135-2.691 1.149-5.666 3.893-6.675 2.252-.828 4.828-.207 6.797 1.046 4.966 3.161 5.384 10.275 5.235 15.537-.198 7.011-1.902 13.829-3.753 20.564-3.351-3.87-6.135-8.239-8.176-12.935zm-36.777 27.665c-1.189-2.842-2.344-5.904-2.638-8.989-.269-2.821.34-6.011 3.146-7.338 2.053-.971 4.641-.747 6.656.207 5.39 2.553 6.902 9.473 7.546 14.825.823 6.841.254 13.704-.486 20.525-3.852-3.25-7.232-7.028-9.983-11.266-1.638-2.523-3.079-5.187-4.241-7.964zm51.046 15.229c2.557.533 5.337 1.765 6.165 4.473.697 2.283-.185 4.836-1.642 6.634-3.822 4.717-10.974 4.085-16.273 3.022-7.005-1.405-13.523-4.28-19.948-7.313a51.545 51.545 0 0 1 14.055-5.793c5.555-1.374 11.98-2.204 17.643-1.023zm22.194-27.793c2.795.539 5.68 1.202 8.18 2.616 2.113 1.195 3.936 3.123 3.862 5.698-.069 2.418-1.71 4.675-3.677 5.968-5.209 3.424-12.249.723-17.277-1.705-5.982-2.888-11.298-6.855-16.504-10.936a51.648 51.648 0 0 1 15.926-2.54 49.958 49.958 0 0 1 9.49.899zm6.385-44.454a50.476 50.476 0 0 1-1.609-8.782c-.26-2.841-.423-5.821.077-8.644.452-2.555 1.564-5.365 4.209-6.314 2.246-.806 4.816-.025 6.675 1.341 4.912 3.609 4.516 10.872 3.615 16.199-1.195 7.061-3.872 13.68-6.715 20.21a51.435 51.435 0 0 1-6.252-14.01zm34.978 22.57c2.573.958 5.275 2.098 7.358 3.931 1.849 1.628 3.09 3.898 2.369 6.396-.662 2.294-2.686 4.138-4.865 4.992-5.973 2.343-12.707-1.87-17.386-5.231-5.047-3.624-9.393-8.103-13.626-12.633a50.91 50.91 0 0 1 16.935.064 51.91 51.91 0 0 1 9.215 2.481zm16.753-38.899a50.363 50.363 0 0 1-1.608-8.782c-.259-2.841-.423-5.82.076-8.644.453-2.555 1.564-5.365 4.209-6.314 2.246-.806 4.816-.025 6.675 1.341 4.912 3.609 4.516 10.873 3.615 16.199-1.195 7.061-3.872 13.681-6.715 20.211a51.485 51.485 0 0 1-6.252-14.011zm35.034 22.473c2.572.962 5.271 2.106 7.352 3.942 1.847 1.63 3.084 3.903 2.359 6.399-.666 2.293-2.693 4.134-4.873 4.985-5.976 2.332-12.705-1.887-17.38-5.256-5.04-3.633-9.38-8.114-13.608-12.651a50.948 50.948 0 0 1 16.937.087c3.137.55 6.23 1.379 9.213 2.494zm-10.234-53.141c-1.073-2.898-2.081-5.99-2.241-9.094-.144-2.806.614-5.925 3.437-7.127 2.13-.906 4.71-.543 6.714.513 5.209 2.742 6.417 9.675 6.846 14.973.56 6.913-.305 13.776-1.339 20.6a51.405 51.405 0 0 1-9.529-11.722 50.416 50.416 0 0 1-3.888-8.143zm55.194 23.904c-3.346 4.821-10.349 4.903-15.577 4.395-7.174-.697-14.037-2.976-20.789-5.408a50.936 50.936 0 0 1 13.897-7.253c2.819-.954 5.726-1.693 8.671-2.133 2.851-.427 5.877-.782 8.751-.387 2.61.358 5.452 1.487 6.325 4.214.709 2.219.017 4.705-1.278 6.572zM1205.816 717.769c-17.589-4.911-35.529-22.544-37.926-36.805-1.596-9.375 30.056 37.993 44.034 33.336 13.942-4.647 31.815-23.364 31.815-23.364-16.171 3.445-62.905-23.583-61.347-37.256 1.579-13.854 54.465 39.959 64.561 31.876 10.144-8.058 31.522-37.994 31.522-37.994-21.153 10.157-58.324.599-60.549-6.179-3.69-11.238 52.092 13.012 61.742 1.405 9.649-11.607 17.052-34.136 17.052-34.136s-35.339 16.185-47.47 8.138c-12.157-7.999 38.199-.883 46.623-11.581 7.766-9.89 12.104-29.711 12.092-30.623-7.816 8.232-50.29 24.013-58.899 19.266-14.01-7.686 44.433-2.018 54.556-33.504 6.621-20.724 10.907-29.027 17.477-39.293-18.35 3.71-39.762 3.615-54.982 3.43-28.861-.352-32.649 70.654-37.762 54.625-5.029-15.764 9.445-55.435 24.401-55.903 0 0-28.1-5.504-38.708 2.224-6.764 4.908-1.214 61.286-11.367 60.819-10.189-.457-12.487-53.888 2.004-56.437 0 0-37.612-2.588-39.013 16.51-1.437 19.11 15.94 69.459 7.5 67.489-8.452-2.007-24.594-69.849-8.84-78.062 0 0-32.776 8.702-32.185 27.046.591 18.344 24.388 43.595 18.999 45.314-5.353 1.708-21.539-11.597-24.307-44.319 0 0-24.22 10.762-29.103 28.289-7.159 25.694-10.128 55.84-4.845 92.919 31.163 29.831 48.365 47.041 78.866 48.596 13.533.689 34.059-15.826 34.059-15.826zm55.868-167.2c-2.392-.752-3.252-4.822-1.912-9.116 1.341-4.293 4.368-7.173 6.76-6.42 2.392.751 3.252 4.821 1.911 9.115-1.339 4.293-4.367 7.172-6.759 6.421zm-37.206-7.94c-1.607-.165-2.661-2.22-2.426-4.607.235-2.387 1.735-4.18 3.306-4.004 1.607.165 2.661 2.22 2.426 4.606-.272 2.399-1.736 4.181-3.306 4.005zm-108.884 67.973c-1.943-7.591-.075-14.603 4.166-15.677 4.241-1.073 9.228 4.19 11.159 11.744 1.907 7.603.075 14.604-4.166 15.677-4.241 1.074-9.228-4.19-11.159-11.744zm66.964-5.101c-.698-4.44.768-8.336 3.271-8.735 2.478-.353 5.041 2.935 5.704 7.386.663 4.452-.805 8.348-3.283 8.7-2.466.388-5.029-2.899-5.692-7.351zm57.686 20.538c.858-1.31 3.366-1.193 5.508.276 2.179 1.457 3.243 3.668 2.349 4.99-.882 1.357-3.354 1.229-5.533-.228-2.178-1.458-3.218-3.717-2.324-5.038zm-84.715 77.52c-3.713-5.391-4.247-11.439-1.242-13.514 3.005-2.074 8.446.614 12.159 6.006 3.677 5.404 4.247 11.44 1.242 13.513-3.005 2.076-8.446-.613-12.159-6.005zM423.271 344.606c3.491 5.926 11.12 7.218 17.41 7.349 8.148.171 16.082-1.587 23.971-3.422 3.782 6.419 8.357 12.255 14.051 17.206 3.361 2.922 6.927 5.491 10.637 7.812-5.593-1.094-11.339-1.344-17.02-.645-3.603.443-7.254 1.211-10.669 2.458-2.672.976-5.414 2.439-7.129 4.781-3.823 5.221-.613 11.968 4.757 14.551 6.617 3.183 14.504-.207 20.374-3.475 6.394-3.561 11.988-8.271 17.55-12.983.056-.047.097-.099.144-.149 13.465 6.967 28.205 11.703 41.912 18.09-5.739-1.182-11.648-1.47-17.49-.759-3.603.439-7.256 1.202-10.673 2.445-2.674.973-5.415 2.432-7.134 4.772-3.831 5.216-.624 11.966 4.741 14.556 6.611 3.19 14.507-.189 20.379-3.451 6.397-3.554 11.998-8.255 17.567-12.96.2-.169.339-.36.431-.559a92.37 92.37 0 0 1 13.605 9.518c6.08 5.13 11.649 10.841 16.864 16.844-5.494-2.098-11.326-3.316-17.204-3.528-3.597-.13-7.251.013-10.797.669-2.908.538-5.91 1.494-8.105 3.564-4.628 4.365-2.848 11.482 1.901 14.99 5.878 4.342 14.039 2.46 20.349.24 6.75-2.374 12.919-6.05 19.005-9.762 7.657 9.476 14.583 19.558 20.856 30.02a54.73 54.73 0 0 0-15.824-7.461 52.168 52.168 0 0 0-9.902-1.862c-3.163-.276-6.613-.271-9.532 1.151-5.92 2.883-6.379 10.268-2.526 15.103 4.335 5.44 12.137 5.816 18.507 5.259 7.935-.693 15.537-3.198 23.046-5.723a314.852 314.852 0 0 1 5.063 9.257 308.38 308.38 0 0 1 9.056 18.805 54.737 54.737 0 0 0-15.856-7.483 52.336 52.336 0 0 0-9.903-1.862c-3.163-.276-6.613-.27-9.531 1.152-5.92 2.883-6.38 10.268-2.527 15.103 4.336 5.44 12.137 5.816 18.508 5.259 7.625-.666 14.942-3.006 22.164-5.428 4.094 10.046 7.569 20.34 10.186 30.842.202.812.798 1.485 1.722 1.369.756-.094 1.574-.9 1.369-1.722a214.903 214.903 0 0 0-1.854-6.974c-2.382-8.356-5.256-16.574-8.528-24.637a54.142 54.142 0 0 0 15.914-15.016 54.357 54.357 0 0 0 5.022-8.821c1.439-3.202 2.669-6.923 1.899-10.461-1.37-6.301-8.489-8.496-14.005-6.117-6.48 2.795-9.114 10.358-10.568 16.697-1.173 5.11-1.574 10.323-1.734 15.548-3.55-7.987-7.471-15.809-11.682-23.441-.595-1.078-1.215-2.145-1.821-3.218 6.179-3.829 11.586-8.911 15.755-14.868a53.73 53.73 0 0 0 5.055-8.889c1.449-3.248 2.615-6.986 1.736-10.547-1.533-6.21-8.866-8.152-14.227-5.636-6.259 2.937-8.82 10.21-10.263 16.472-1.292 5.604-1.65 11.334-1.775 17.067-6.544-10.974-13.776-21.564-21.843-31.465a54.754 54.754 0 0 0 12.609-16.435c1.528-3.061 2.733-6.262 3.655-9.555.919-3.278 1.503-6.799.536-10.135-1.864-6.428-9.423-7.715-14.689-4.677-5.954 3.436-7.581 11.114-8.075 17.421-.454 5.786.037 11.539.795 17.265-.492-.56-.965-1.135-1.463-1.69-5.709-6.365-11.83-12.419-18.568-17.697-3.716-2.911-7.628-5.422-11.692-7.681 4.563-5.375 8.085-11.641 10.24-18.355 1.057-3.293 1.83-6.674 2.235-10.109.371-3.151.449-6.6-.887-9.554-2.68-5.924-9.85-6.574-14.801-3.085-5.779 4.071-6.38 12.102-6.013 18.533.386 6.781 2.108 13.357 4.029 19.848a151.393 151.393 0 0 0-5.747-2.675c-12.688-5.595-26.349-10.135-38.761-16.658 4.709-5.451 8.34-11.841 10.541-18.702 1.056-3.293 1.83-6.674 2.235-10.11.371-3.15.449-6.599-.887-9.554-2.679-5.923-9.85-6.573-14.802-3.085-5.779 4.072-6.379 12.103-6.013 18.533.395 6.927 2.181 13.64 4.152 20.266-5.983-3.523-11.59-7.625-16.538-12.7-3.555-3.645-6.566-7.783-9.166-12.173 6.323-4.118 11.787-9.57 15.876-15.914 1.85-2.871 3.452-5.897 4.727-9.067 1.331-3.31 2.384-7.039 1.467-10.594-1.604-6.223-8.994-8.071-14.319-5.403-6.191 3.102-8.527 10.429-9.728 16.754-1.165 6.137-1.227 12.385-1.072 18.614a102.19 102.19 0 0 1-2.754-6.039c-4.164-9.968-6.729-20.601-7.248-31.394a54.79 54.79 0 0 0 14.481-16.569 51.865 51.865 0 0 0 4.158-9.354c1.094-3.315 1.9-6.915.948-10.366-1.721-6.238-9.103-7.875-14.375-5.074-6.102 3.241-8.114 10.677-8.956 17.021-1.053 7.942-.289 15.947.487 23.876.02.204.076.377.149.532.092 2.131.257 4.258.51 6.376 1.231 10.325 4.243 20.481 8.656 29.904-4.05-3.221-8.529-5.881-13.353-7.83a54.007 54.007 0 0 0-9.927-2.943c-3.232-.627-6.733-.943-9.891.199-6.077 2.195-7.162 9.289-4.145 14.41zm31.018-43.959a1.157 1.157 0 0 0-.246-.331c-.637-6.817-1.083-13.669-.086-20.478.763-5.216 2.423-12.056 7.842-14.322 2.093-.875 4.663-1.044 6.709.062 2.624 1.418 3.154 4.543 2.833 7.266-.359 3.046-1.488 6.005-2.706 8.802a50.27 50.27 0 0 1-4.317 7.924 51.604 51.604 0 0 1-10.029 11.077zM638.09 489.372c-3.262 3.956-7.109 7.372-11.377 10.189.083-6.901.342-13.823 1.978-20.559 1.28-5.269 3.653-12.172 9.429-13.954 2.179-.672 4.838-.545 6.734.824 2.47 1.783 2.564 4.966 1.949 7.689-.67 2.968-2.146 5.812-3.63 8.448-1.465 2.601-3.185 5.06-5.083 7.363zm-29.383 4.746a51.509 51.509 0 0 1 13.26 7.434c-6.742 2.243-13.557 4.317-20.68 4.873-5.388.421-12.564.192-15.794-4.949-1.231-1.959-1.801-4.6-.836-6.783 1.145-2.589 4.053-3.479 6.655-3.703 5.766-.494 12.045 1.099 17.395 3.128zm-25.614-66.65c-1.032-6.908-1.907-13.881-1.265-20.865.482-5.241 1.748-12.255 7.057-14.799 2.105-1.009 4.736-1.317 6.873-.225 2.604 1.33 3.254 4.405 3.066 7.093-.411 5.88-3.123 11.908-6.066 16.932-2.588 4.419-5.875 8.423-9.665 11.864zm37.702 27.405c-3.239 3.878-7.046 7.224-11.26 9.99.081-6.86.337-13.743 1.973-20.436 1.28-5.236 3.61-11.926 9.266-13.816 2.115-.706 4.711-.62 6.633.591 2.628 1.653 2.85 4.893 2.245 7.662-.661 3.028-2.174 5.93-3.695 8.609-1.483 2.617-3.232 5.09-5.162 7.4zm-29.943 4.736a51.509 51.509 0 0 1 13.26 7.434c-6.742 2.243-13.557 4.317-20.68 4.873-5.388.421-12.565.193-15.795-4.948-1.231-1.959-1.801-4.6-.836-6.783 1.146-2.589 4.053-3.479 6.656-3.703 5.765-.494 12.045 1.1 17.395 3.127zm-26.571-33.133a51.62 51.62 0 0 1 15.507 4.428c-5.657 3.428-11.41 6.731-17.695 8.882-5.283 1.809-12.595 3.648-17.357-.375-1.798-1.518-3.157-3.956-2.936-6.365.235-2.566 2.275-4.262 4.516-5.195 2.65-1.104 5.594-1.418 8.434-1.618a50.018 50.018 0 0 1 9.531.243zm-18.434-31.981c-2.041-6.823-3.907-13.715-4.248-20.868-.257-5.396.219-12.655 5.527-15.65 2.01-1.134 4.654-1.602 6.788-.533 2.512 1.259 3.28 4.182 3.423 6.773.159 2.863-.361 5.802-.958 8.591a50.366 50.366 0 0 1-2.648 8.526 51.34 51.34 0 0 1-7.884 13.161zm-20.097 3.701a50.92 50.92 0 0 1 16.821 1.964c-4.745 3.992-9.596 7.918-15.04 10.912-5.048 2.777-12.238 6.154-17.887 3.113-2.06-1.109-3.85-3.182-4.232-5.539-.417-2.567 1.087-4.671 3.118-6.067 2.287-1.571 5.106-2.379 7.775-3.022a51.89 51.89 0 0 1 9.445-1.361zm-29.308-26.104c-2.041-6.823-3.906-13.716-4.247-20.869-.257-5.395.219-12.654 5.527-15.649 2.01-1.134 4.654-1.602 6.788-.533 2.512 1.259 3.279 4.182 3.423 6.773.158 2.863-.361 5.801-.959 8.591a50.258 50.258 0 0 1-2.648 8.527 51.425 51.425 0 0 1-7.884 13.16zm-20.143 3.586a50.97 50.97 0 0 1 16.826 1.94c-4.741 3.998-9.586 7.928-15.025 10.931-5.044 2.786-12.23 6.168-17.884 3.138-2.062-1.105-3.855-3.176-4.241-5.532-.421-2.565 1.078-4.674 3.107-6.071 2.286-1.574 5.103-2.387 7.771-3.034a51.944 51.944 0 0 1 9.446-1.372zm2.242-42.544a51.443 51.443 0 0 1-10.864 10.497c-.21-6.898-.247-13.815 1.136-20.612 1.06-5.209 3.089-11.948 8.589-14.047 2.116-.808 4.721-.859 6.727.295 2.659 1.531 3.038 4.718 2.559 7.487-.53 3.063-1.902 6.012-3.313 8.761a50.271 50.271 0 0 1-4.834 7.619zm-53.306 2.83c1.193-2.603 4.15-3.383 6.784-3.427 2.9-.048 5.862.667 8.641 1.432 2.871.79 5.669 1.871 8.353 3.155a50.932 50.932 0 0 1 12.929 8.864c-6.994 1.606-14.081 3.048-21.286 2.881-5.251-.122-12.194-1.041-14.939-6.228-1.062-2.008-1.452-4.558-.482-6.677zM543.898 709.817c30.082 5.275 50.683-7.673 87.706-29.816 13.407-34.972 17.224-65.023 15.966-91.666-.858-18.174-22.074-34.058-22.074-34.058-9.985 31.283-28.726 40.651-33.565 37.794-4.872-2.876 23.951-22.194 28.611-39.947 4.66-17.752-25.355-33.533-25.355-33.533 13.529 11.514-17.313 74.059-25.999 74.134-8.667.041 19.484-45.174 22.339-64.125 2.887-18.931-34.357-24.782-34.357-24.782 13.56 5.712-.577 57.29-10.612 55.467-10.002-1.805 7.961-55.532 2.46-61.824-8.621-9.896-37.241-10.787-37.241-10.787 14.477 3.786 19.754 45.683 11.342 59.932-8.554 14.488 3.564-55.578-24.651-61.662-14.879-3.208-35.775-7.884-52.838-15.586 4.119 11.471 6.449 20.519 8.289 42.198 2.858 32.95 61.096 40.437 45.726 44.811-9.45 2.712-47.343-22.13-53.13-31.896-.215.887-.399 21.176 4.97 32.547 5.831 12.305 56.508 16.58 42.875 21.671-13.619 5.143-44.467-18.504-44.467-18.504s2.201 23.611 9.024 37.075c6.823 13.464 66.604 2.243 60.504 12.378-3.679 6.113-42.044 7.154-60.405-7.457 0 0 14.176 33.945 22.271 44.059 8.043 10.128 71.583-30.558 70.037-16.701-1.525 13.677-53.104 29.621-68.102 22.662 0 0 13.257 22.227 25.814 29.861 12.59 7.653 53.994-31.479 50.351-22.694-5.512 13.369-26.928 26.565-45.169 27.437-.001 0 16.333 20.671 29.68 23.012zm-52.079-206.22c-.351-4.484 1.394-8.26 3.893-8.46 2.5-.201 4.809 3.281 5.161 7.764.351 4.485-1.394 8.261-3.893 8.461-2.499.2-4.81-3.28-5.161-7.765zm40.87 3.67c.302-2.379 1.788-4.148 3.391-3.951 1.571.178 2.634 2.26 2.332 4.64-.302 2.38-1.787 4.148-3.391 3.951-1.571-.178-2.602-2.242-2.332-4.64zm79.853 104.114c-3.895-1.991-4.122-9.224-.57-16.211 3.565-6.934 9.599-10.955 13.494-8.964 3.895 1.991 4.155 9.243.571 16.211-3.566 6.934-9.599 10.956-13.495 8.964zm-57.84-22.948c-2.337-.896-2.901-5.02-1.263-9.213 1.637-4.192 4.868-6.826 7.206-5.931 2.351.947 2.914 5.072 1.244 9.244-1.638 4.194-4.868 6.828-7.187 5.9zm-57.012 5.673c-2.448.936-4.887.51-5.444-1.01-.577-1.487.952-3.406 3.401-4.341 2.416-.955 4.887-.51 5.431.958.577 1.486-.939 3.457-3.388 4.393zm55.525 93.19c-2.468-2.691-.568-8.448 4.219-12.897 4.82-4.429 10.723-5.839 13.191-3.148 2.468 2.692.6 8.468-4.22 12.898-4.819 4.429-10.722 5.839-13.19 3.147z" class="colordedefc svgShape"></path><path fill="#bddbf9" d="M794.121 753.31c22.907 7.474 149.899-2.197 155.353-4.804 21.728-10.39 85.16-55.648 120.457-79.106 18.654-12.398 57.32 5.685 31.116 28.2-10.756 9.241-178.835 134.826-177.31 136.889l-112.943 2.67c.001.001-39.58-91.323-16.673-83.849z" class="colorf9bdbd svgShape"></path><path fill="#bddbf9" d="M1016.841 723.164s31.696-29.587 32.471-43.927c1.34-24.807-39.828.71-49.724 13.63-14.695 19.187-81.749 82.738-81.749 82.738l99.002-52.441z" class="colorf9bdbd svgShape"></path><path fill="#c2ddf9" d="M945.77 796.574s118.492-82.87 151.138-110.587c50.581-42.946 88.043-18.347 71.818 15.893-11.48 24.223-164.037 173.412-215.829 183.611-45.576 8.977-192.681 25.581-192.681 25.581l60.751-149.156 124.803 34.658z" class="colorf9c2c2 svgShape"></path><path fill="#021b79" d="M658.998 224.736c.673-12.862 6.182-26.238 9.41-38.828C773.09 277.66 712.152 292.232 858.4 325.714c146.279-33.482 85.318-48.054 190.001-139.806 3.229 12.59 8.737 25.966 9.41 38.828 13.681-.411 27.355.091 41.051.24-58.991 33.025-123.464 95.194-193.994 120.044h-92.914c-70.542-24.85-135.005-87.019-193.996-120.044 13.685-.149 27.357-.651 41.04-.24z" class="color2e2b8f svgShape"></path><path fill="#91b6db" d="M1099.572 795.45H630.895V390.632h468.677z" class="color9191db svgShape"></path><path fill="#e6e6e6" d="M1099.572 390.633v86.452H857.996c-101.551 0-183.874 82.323-183.874 183.874V795.45h-43.226V390.633h468.676z" class="colore6e6e6 svgShape"></path><path fill="#b4d1ef" d="M1122.379 435.106H608.086v-96.928h514.293z" class="colorb4b4ef svgShape"></path><path fill="#0575e6" d="M706.133 309.052c22.042 46.597 109.413 42.306 147.566 34.523 2.903 2.996 6.961 4.865 11.46 4.865 4.513 0 8.581-1.881 11.485-4.89 38.089 7.798 125.621 12.148 147.685-34.498 14.092-29.787-37.697-22.602-85.275-9.477 25.611-19.183 46.477-44.081 43.497-71.667-4.408-40.812-66.041 20.695-100.675 62.599 10.428-30.325 17.392-72.562-5.611-92.117-26.316-22.37-25.602 61.713-21.573 99.646-32.886-41.425-102.095-113.466-106.777-70.128-2.98 27.587 17.886 52.484 43.497 71.667-47.579-13.125-99.368-20.31-85.279 9.477zm152.901 8.681a15.988 15.988 0 0 0-5.168 3.461c-7.279-3.388-18.972-7.914-32.722-12.531-26.67-16.242-56.337-41.606-53.592-65.554 3.795-33.113 73.752 45.303 91.482 74.624zm9.704-11.376a123.071 123.071 0 0 1-1.754 3.175.05.05 0 0 0 .017.002c-.027.037-.054.071-.078.108l.061-.11c-.724-.169-1.568.8-2.189 1.856a202.086 202.086 0 0 0-2.07-2.869c-5.984-21.533-9.428-108.398 10.675-91.535 20.572 17.258 4.175 72.868-4.662 89.373zm40.583 2.306c-13.814 4.638-25.555 9.185-32.822 12.576a16.007 16.007 0 0 0-5.096-3.461c17.686-29.282 87.713-107.801 91.51-74.669 2.743 23.948-26.923 49.312-53.592 65.554zm-28.507 26.949a16.12 16.12 0 0 0 .31-3.136c0-.173-.019-.34-.025-.511 10.822-4.361 24.008-10.673 37.259-18.584 40.144-13.353 91.605-23.803 81.288-1.621-14.968 32.184-91.474 30.288-115.539 24.655a172.463 172.463 0 0 1-3.293-.803zm-68.704-22.231c13.192 7.877 26.321 14.17 37.115 18.527-.009.19-.029.377-.029.568 0 1.086.11 2.146.318 3.173-.951.24-1.991.492-3.155.766-24.065 5.633-100.571 7.529-115.541-24.655-10.314-22.182 41.146-11.732 81.292 1.621z" class="color4b4bb2 svgShape"></path><path fill="#ffffff" d="M849.266 435.106h42.687v360.345h-42.687z" class="colorffffff svgShape"></path><path fill="#ffffff" d="M630.895 593.936h468.677v42.685H630.895z" class="colorffffff svgShape"></path><path fill="#cbe2f9" d="M191.469 856.272c168.679-35.901 299.09-25.867 347.148-13.538 48.059 12.328 175.847 63.642 235.021 72.16 36.529 5.268 202.811-48.792 202.811-48.792s76.133-44.873 134.596-77.051c35.481-19.54 63.791-36.74 63.209-41.567-2.871-23.465-12.403-40.015-45.723-36.286-43.132 4.841-162.144 70.87-162.144 70.87s-96.141-7.143-122.196-10.547c-24.065-3.135-117.932-27.201-202.916-90.421-36.717-27.314-115.971-36.717-171.932-18.918-70.081 22.289-281.862 6.649-281.862 6.649l3.988 187.441z" class="colorf9cbcb svgShape"></path><path fill="#cbe2f9" d="M544.499 677.707c1.497-.9 3-1.707 4.508-2.455.149-.074.303-.136.452-.209a62.939 62.939 0 0 1 4.242-1.877c.186-.073.375-.139.561-.212a62.656 62.656 0 0 1 4.162-1.447c.288-.091.577-.174.866-.26a61.962 61.962 0 0 1 3.854-.994c.246-.057.486-.137.734-.19.16-.036.325-.05.486-.086a66.35 66.35 0 0 1 3.058-.537 62.985 62.985 0 0 1 4.644-.562c.51-.044 1.021-.11 1.532-.142.894-.057 1.788-.076 2.685-.099.687-.019 1.374-.041 2.06-.041.909-.001 1.816.014 2.724.044a65.32 65.32 0 0 1 1.594.066c.678.032 1.359.038 2.036.085 13.964 1.009 27.43 5.155 40.71 9.314 6.657 2.069 13.31 4.199 20.121 5.675 6.781 1.471 13.899 2.127 20.644.119 13.61-3.055 27.2-6.201 40.758-9.477 13.541-3.323 27.124-6.566 40.448-10.648 13.278-4.276 26.696-8.181 40.329-11.2 13.617-3.047 27.494-5.152 41.478-5.487 6.988-.106 14.01.332 20.889 1.682 6.87 1.318 13.608 3.793 19.39 7.85 5.695 4.126 10.159 10.098 11.991 16.946 1.843 6.805 1.707 14.11-.456 20.835-2.516 6.77-8.442 11.416-14.445 14.831-6.103 3.454-12.616 6.045-19.103 8.596-12.901 5.112-26.337 9.778-37.182 18.62-2.719 2.174-4.893 4.892-7.618 7.162a61.494 61.494 0 0 1-8.878 5.581c-6.178 3.265-12.589 6.057-19.077 8.622-26.007 10.164-52.813 18.053-79.651 25.641-21.418 5.972-42.936 11.58-64.529 16.873a1574.19 1574.19 0 0 1-16.464 3.983l-.057.014c.015-.004.029-.007.043-.012l-.043.012-69.496-126.616z" class="colorf9cbcb svgShape"></path><path fill="#bddbf9" d="M748.383 663.704c-17.276 3.296-34.516 6.256-51.687 9.694-8.609 1.596-17.154 3.466-25.74 5.148-4.214.752-8.841 2.106-12.207 2.239-3.744.194-7.781-.368-11.832-1.256-8.165-1.666-16.453-4.468-24.898-6.923-8.485-2.364-17.128-4.785-26.089-5.933-4.472-.576-8.983-1.035-13.525-.986-4.541.063-9.079.446-13.539 1.252-4.445.917-8.785 2.239-12.899 4.017-4.111 1.803-7.933 4.133-11.468 6.751 4.057-1.743 8.115-3.309 12.298-4.355 4.189-1.005 8.398-1.731 12.643-1.959 8.484-.52 16.936.504 25.247 2.307 16.724 3.59 32.517 10.624 50.357 14.774 4.508.9 9.236 1.548 14.247 1.221l1.879-.148 1.905-.325c1.362-.215 2.263-.481 3.378-.723 2.138-.494 4.276-.981 6.401-1.53 8.504-2.171 17.03-4.23 25.472-6.651 8.468-2.311 16.884-4.844 25.265-7.498 8.342-2.775 16.728-5.516 24.792-9.116zM613.998 804.323c24.569-2.78 48.912-7.154 73.051-12.532 24.138-5.415 48.085-11.884 71.46-20.759 5.82-2.289 11.59-4.767 17.271-7.567 5.657-2.853 11.301-5.883 16.549-10.017l3.571-3.008a56.137 56.137 0 0 1 3.443-2.614c2.376-1.684 4.9-3.247 7.487-4.742 5.196-2.96 10.626-5.7 16.119-8.39 11.023-5.313 22.342-10.39 33.217-16.54 5.382-3.158 10.733-6.508 15.456-10.717 2.339-2.118 4.547-4.418 6.324-7.042 1.752-2.622 3.102-5.566 3.505-8.646-.926 2.958-2.573 5.572-4.598 7.799-1.995 2.257-4.342 4.174-6.81 5.901-4.959 3.437-10.382 6.207-15.93 8.709-11.081 5.072-22.658 9.203-34.094 14.029-5.74 2.373-11.467 4.891-17.065 7.881-2.801 1.493-5.581 3.079-8.297 4.864a65.39 65.39 0 0 0-4.02 2.836l-3.599 2.823c-4.546 3.371-9.797 6.249-15.177 8.842-5.401 2.593-10.996 4.906-16.66 7.082-11.293 4.469-22.921 8.276-34.605 11.93-11.662 3.747-23.487 7.031-35.288 10.455-23.663 6.646-47.468 12.929-71.31 19.423z" class="colorf9bdbd svgShape"></path><path fill="#bbd5f0" d="M613.899 803.965a8870.18 8870.18 0 0 1 23.708-6.414c15.628-4.213 31.787-8.57 47.596-13.011 2.597-.753 5.196-1.501 7.794-2.245 9.043-2.598 18.394-5.285 27.487-8.207 10.494-3.282 22.809-7.265 34.582-11.918 6.521-2.508 11.806-4.757 16.633-7.072 6.315-3.045 11.118-5.842 15.108-8.8l3.601-2.824a64.095 64.095 0 0 1 4.042-2.853c2.432-1.6 5.078-3.15 8.328-4.882 6.102-3.258 12.343-5.932 17.095-7.895 4.553-1.921 9.194-3.758 13.682-5.536 6.754-2.674 13.738-5.439 20.404-8.49 6.547-2.952 11.59-5.708 15.87-8.675 2.783-1.945 4.988-3.857 6.747-5.845 2.145-2.359 3.665-4.938 4.518-7.659l.727.16c-.374 2.861-1.574 5.822-3.567 8.806-1.592 2.351-3.62 4.61-6.385 7.113-4.784 4.263-10.283 7.691-15.52 10.759-8.437 4.773-17.24 8.949-25.753 12.984a1455.36 1455.36 0 0 0-7.484 3.568c-4.915 2.408-10.672 5.287-16.096 8.379-2.898 1.676-5.338 3.221-7.459 4.724a56 56 0 0 0-3.418 2.593l-3.58 3.016c-5.474 4.31-11.444 7.451-16.615 10.059-5.25 2.587-10.909 5.066-17.303 7.583-20.77 7.886-43.492 14.488-71.511 20.774-26.197 5.837-50.105 9.939-73.091 12.538l-.14-.73zm263.233-104.169c-1.795 2.029-4.044 3.979-6.876 5.959-4.32 2.995-9.401 5.772-15.988 8.741-6.682 3.06-13.675 5.828-20.439 8.506-4.484 1.775-9.12 3.612-13.668 5.53-4.74 1.959-10.958 4.622-17.032 7.866-3.229 1.72-5.856 3.258-8.269 4.846a63.147 63.147 0 0 0-3.994 2.817l-3.607 2.83c-4.036 2.993-8.878 5.813-15.237 8.876-4.845 2.327-10.148 4.581-16.685 7.095-11.791 4.666-24.123 8.652-34.627 11.937-9.101 2.925-18.458 5.615-27.507 8.213a2805.51 2805.51 0 0 0-7.795 2.245c-15.816 4.444-31.977 8.8-47.607 13.014-6.281 1.693-12.567 3.387-18.856 5.095 21.431-2.614 43.742-6.529 68.021-11.939 27.983-6.277 50.674-12.87 71.405-20.742 6.371-2.505 12.011-4.978 17.24-7.553 5.134-2.59 11.066-5.711 16.476-9.971l3.573-3.01a56.702 56.702 0 0 1 3.466-2.627c2.139-1.519 4.597-3.075 7.518-4.763 5.444-3.103 11.213-5.988 16.141-8.403 2.484-1.197 4.984-2.382 7.49-3.571 8.502-4.032 17.292-8.198 25.701-12.955 5.198-3.049 10.661-6.453 15.393-10.672 2.717-2.458 4.708-4.674 6.264-6.972a24.346 24.346 0 0 0 2.144-3.898 23.179 23.179 0 0 1-2.645 3.506z" class="colorf0bbbb svgShape"></path><path fill="#d6e7f9" d="M807.739 724.511c-13.76-1.317-28.347-42.585-16.141-56.734 2.725-.672 64.814-33.658 78.884 4.383 13.175 35.62-62.743 52.351-62.743 52.351zM1113.365 789.146c33.286-19.501 59.993-36.399 59.92-40.357 0 0-20.649-1.906-46.668 9.729-21.298 9.527-18.441 19.151-13.252 30.628z" class="colorf9d6d6 svgShape"></path><path fill="#ffffff" d="m289.072 637.392 60.822 1.886-6.779 218.568-60.822-1.886z" class="colorffffff svgShape"></path><path fill="#b4d1ef" d="m421.6 850.65-60.856-.414 1.301-194.654.034-6.242 60.856.414c6.979 38.05 5.349 98.641 1.043 166.168a4341.197 4341.197 0 0 1-2.378 34.728z" class="colorb4b4ef svgShape"></path><path fill="#e6e6e6" d="m421.6 850.65-60.856-.414 1.301-194.654c8.202 3.025 12.436-6.242 12.436-6.242 10.657 18.881 19.36 124.634 15.514 158.642-1.631 14.421 22.291 11.356 33.982 7.939a4291.819 4291.819 0 0 1-2.377 34.729z" class="colore6e6e6 svgShape"></path><path fill="#42528c" d="M374.327 818.18a1789.494 1789.494 0 0 1-3.51 46.359L0 883.744V632.212l373.522 3.825c5.655 59.28 4.808 112.25.805 182.143z" class="color52428c svgShape"></path><path fill="#cccccc" d="M374.327 818.18a1789.494 1789.494 0 0 1-3.51 46.359L0 883.744v-13.659c95.818-8.332 320.101-20.461 344.059-33.396v-.014c1.161-1.584 2.199-3.77 3.032-5.805 15.585-45.43 22.319-123.437 28.138-174.495 3.716 51.412 2.637 99.984-.902 161.805z" class="colorcccccc svgShape"></path><path fill="#b4d1ef" d="M570.563 184.347c-2.656-4.854-9.371-8.285-15.862-6.514-6.955 1.898-9.621 9-9.913 9.819l.003.932-.02-.932c-.292-.819-2.957-7.921-9.913-9.819-6.49-1.77-13.206 1.661-15.861 6.514-4.866 8.894 5.358 19.903 6.515 21.149 6.919 7.45 16.064 8.682 19.372 8.936l.202.015.269-.025c3.306-.329 12.021-1.728 18.695-8.926 1.179-1.273 11.373-12.268 6.513-21.149zM887.556 96.07c-2.656-4.854-9.371-8.285-15.861-6.515-6.955 1.898-9.621 9-9.913 9.819l.003.932-.02-.932c-.292-.819-2.957-7.921-9.913-9.819-6.49-1.77-13.206 1.661-15.861 6.515-4.866 8.894 5.358 19.903 6.515 21.148 6.92 7.45 16.064 8.682 19.372 8.936l.202.015.269-.025c3.306-.329 12.021-1.728 18.695-8.926 1.178-1.272 11.373-12.266 6.512-21.148zM712.484 48.745c-1.521-2.78-5.367-4.744-9.083-3.731-3.983 1.087-5.509 5.154-5.677 5.623l.002.534a95.113 95.113 0 0 1-.011-.534c-.167-.469-1.693-4.536-5.677-5.623-3.716-1.014-7.562.951-9.083 3.731-2.786 5.093 3.068 11.397 3.73 12.111 3.962 4.266 9.199 4.972 11.093 5.117l.116.009.154-.015c1.893-.189 6.883-.989 10.705-5.111.676-.729 6.514-7.025 3.731-12.111zM1159.901 184.347c2.656-4.854 9.371-8.285 15.861-6.514 6.955 1.898 9.621 9 9.913 9.819l-.003.932.02-.932c.292-.819 2.957-7.921 9.913-9.819 6.49-1.77 13.206 1.661 15.861 6.514 4.866 8.894-5.358 19.903-6.515 21.149-6.92 7.45-16.064 8.682-19.372 8.936l-.202.015-.269-.025c-3.306-.329-12.021-1.728-18.695-8.926-1.178-1.273-11.373-12.268-6.512-21.149zM1017.98 48.745c1.521-2.78 5.367-4.744 9.083-3.731 3.983 1.087 5.509 5.154 5.677 5.623l-.002.534.011-.534c.167-.469 1.693-4.536 5.677-5.623 3.716-1.014 7.562.951 9.083 3.731 2.786 5.093-3.068 11.397-3.73 12.111-3.962 4.266-9.199 4.972-11.093 5.117l-.116.009a5.296 5.296 0 0 1-.154-.015c-1.893-.189-6.884-.989-10.705-5.111-.676-.729-6.514-7.025-3.731-12.111z" class="colorb4b4ef svgShape"></path></svg>