<svg width="256" height="256" viewBox="0 0 256 256" fill="none" xmlns="http://www.w3.org/2000/svg">
<rect width="256" height="256" rx="60" fill="url(#paint0_linear_10855_116117)"/>
<path d="M108.5 118.25C108.5 116.958 109.014 115.718 109.928 114.803C110.842 113.889 112.082 113.375 113.375 113.375H142.625C143.918 113.375 145.158 113.889 146.072 114.803C146.986 115.718 147.5 116.958 147.5 118.25C147.5 119.543 146.986 120.783 146.072 121.698C145.158 122.612 143.918 123.125 142.625 123.125H113.375C112.082 123.125 110.842 122.612 109.928 121.698C109.014 120.783 108.5 119.543 108.5 118.25ZM113.375 132.875C112.082 132.875 110.842 133.389 109.928 134.303C109.014 135.218 108.5 136.458 108.5 137.75C108.5 139.043 109.014 140.283 109.928 141.198C110.842 142.112 112.082 142.625 113.375 142.625H132.875C134.168 142.625 135.408 142.112 136.322 141.198C137.236 140.283 137.75 139.043 137.75 137.75C137.75 136.458 137.236 135.218 136.322 134.303C135.408 133.389 134.168 132.875 132.875 132.875H113.375ZM69.4999 128C69.5024 115.121 73.7551 102.603 81.5982 92.3869C89.4414 82.1711 100.437 74.8292 112.878 71.5C125.32 68.1708 138.512 69.0404 150.409 73.974C162.306 78.9075 172.242 87.6292 178.677 98.7861C185.111 109.943 187.683 122.911 185.995 135.68C184.307 148.448 178.453 160.302 169.34 169.403C160.227 178.505 148.366 184.344 135.595 186.017C122.825 187.689 109.86 185.1 98.7109 178.652L75.9154 186.257C75.0733 186.538 74.1703 186.584 73.304 186.389C72.4376 186.195 71.6408 185.767 70.9996 185.153C70.3584 184.539 69.8971 183.762 69.6654 182.904C69.4338 182.047 69.4406 181.143 69.6852 180.29L76.6272 156.002C71.9376 147.415 69.4865 137.785 69.4999 128ZM128 79.2504C119.392 79.2499 110.938 81.5283 103.497 85.8542C96.0553 90.18 89.8918 96.399 85.6328 103.879C81.3738 111.359 79.1712 119.833 79.2489 128.44C79.3265 137.047 81.6817 145.481 86.0749 152.882C86.413 153.454 86.6306 154.089 86.7144 154.748C86.7982 155.407 86.7465 156.076 86.5624 156.714L81.5997 174.069L97.7652 168.687C98.4517 168.458 99.1807 168.385 99.8991 168.472C100.618 168.56 101.307 168.807 101.919 169.194C108.308 173.237 115.549 175.739 123.072 176.502C130.594 177.264 138.19 176.267 145.261 173.588C152.331 170.909 158.681 166.623 163.81 161.067C168.938 155.511 172.704 148.839 174.81 141.577C176.915 134.316 177.303 126.664 175.942 119.226C174.582 111.789 171.51 104.77 166.969 98.7245C162.429 92.6789 156.544 87.7723 149.781 84.3924C143.018 81.0126 135.561 79.2522 128 79.2504Z" fill="#F3F5F9"/>
<defs>
<linearGradient id="paint0_linear_10855_116117" x1="-1.55029e-06" y1="199.68" x2="256" y2="81.92" gradientUnits="userSpaceOnUse">
<stop stop-color="#0575E6"/>
<stop offset="1" stop-color="#021B79"/>
</linearGradient>
</defs>
</svg>
