<svg width="256" height="256" viewBox="0 0 256 256" fill="none" xmlns="http://www.w3.org/2000/svg">
<rect width="256" height="256" rx="60" fill="url(#paint0_linear_10855_116275)"/>
<path d="M76 186.5V187H76.5H115V195.75H76.5015C74.0501 195.743 71.7012 194.766 69.9678 193.032C68.2346 191.299 67.2575 188.95 67.25 186.499V69.5008C67.2575 67.0496 68.2346 64.701 69.9678 62.9678C71.701 61.2346 74.0496 60.2575 76.5008 60.25H164.249C166.7 60.2575 169.049 61.2346 170.782 62.9678C172.516 64.7012 173.493 67.0501 173.5 69.5015V122.625H164.75V69.5V69H164.25H76.5H76V69.5V186.5ZM138.513 169.102L138.601 168.526H138.019H124.809V168.526L124.795 168.526C124.453 168.535 124.113 168.466 123.802 168.323C123.491 168.18 123.217 167.968 123.001 167.702C122.785 167.436 122.633 167.125 122.556 166.791C122.48 166.457 122.481 166.11 122.56 165.777L122.561 165.774L130.765 130.222C130.765 130.221 130.765 130.221 130.765 130.221C130.883 129.721 131.17 129.277 131.577 128.964C131.984 128.651 132.487 128.487 133 128.501V128.501H133.014L160.364 128.501L160.365 128.501C160.699 128.5 161.029 128.574 161.331 128.717C161.632 128.86 161.898 129.069 162.109 129.328L162.109 129.328C162.322 129.591 162.473 129.898 162.551 130.227C162.628 130.556 162.63 130.898 162.556 131.228L162.556 131.229L157.824 152.507L157.689 153.116H158.312H171.304H171.305C171.723 153.115 172.134 153.232 172.49 153.453C172.843 153.673 173.127 153.987 173.312 154.359C173.469 154.718 173.529 155.112 173.487 155.501C173.444 155.892 173.298 156.265 173.065 156.582C173.064 156.583 173.063 156.584 173.062 156.585L137.512 203.074L137.503 203.086L137.495 203.098C137.298 203.389 137.036 203.63 136.729 203.801C136.427 203.969 136.089 204.065 135.743 204.081C135.445 204.073 135.15 204.012 134.874 203.9C134.417 203.707 134.038 203.368 133.796 202.936C133.553 202.503 133.462 202.001 133.535 201.51L138.513 169.102ZM152.098 157.586L157.433 133.579L157.568 132.971H156.945H135.202H134.804L134.714 133.358L127.767 163.443L127.626 164.056H128.255H143.835L139.576 191.595L140.467 191.976L166.23 158.39L166.847 157.586H165.834H152.098ZM91.625 133.375H115V142.125H91.625V133.375ZM91.625 109H149.125V117.75H91.625V109ZM91.625 84.625H149.125V93.375H91.625V84.625Z" fill="#F3F5F9" stroke="#F3F5F9"/>
<defs>
<linearGradient id="paint0_linear_10855_116275" x1="-1.55029e-06" y1="199.68" x2="256" y2="81.92" gradientUnits="userSpaceOnUse">
<stop stop-color="#0575E6"/>
<stop offset="1" stop-color="#021B79"/>
</linearGradient>
</defs>
</svg>
