<svg width="256" height="256" viewBox="0 0 256 256" fill="none" xmlns="http://www.w3.org/2000/svg">
<rect width="256" height="256" rx="60" fill="url(#paint0_linear_10855_116171)"/>
<path d="M133.752 131.413L136.58 128.585L139.409 131.413L145.745 137.75L141.195 142.365C140.578 142.965 140.087 143.682 139.752 144.475C139.417 145.267 139.245 146.119 139.245 146.98C139.245 147.84 139.417 148.692 139.752 149.485C140.087 150.278 140.578 150.995 141.195 151.595L145.745 156.145C148.28 158.68 152.44 158.68 154.975 156.145L191.7 119.42C194.235 116.885 194.235 112.725 191.7 110.19L187.15 105.575C184.615 103.04 180.455 103.04 177.92 105.575L176.134 107.361L173.305 110.19L170.477 107.361L166.969 103.853L164.14 101.025L133.752 131.413ZM133.752 131.413L74.1151 191.05C73.5137 191.652 72.7995 192.131 72.0131 192.457C71.2268 192.783 70.3839 192.951 69.5326 192.951C68.6813 192.951 67.8383 192.783 67.052 192.457C66.2657 192.131 65.5514 191.652 64.9501 191.05C62.4151 188.515 62.4151 184.355 64.9501 181.82L127.35 119.42L127.35 119.419L121.058 113.038L121.059 113.038L118.25 110.19L115.402 112.998L115.402 112.998L113.57 114.805L133.752 131.413ZM130.179 122.248L132.987 119.44L130.198 116.612L121.098 107.382L118.29 104.533L115.442 107.342L110.761 111.957L110.75 111.968L110.739 111.979C110.509 112.21 110.236 112.392 109.936 112.517C109.635 112.642 109.313 112.706 108.988 112.706C108.662 112.706 108.34 112.642 108.04 112.517C107.739 112.392 107.466 112.21 107.236 111.979L107.234 111.976L102.619 107.361L102.616 107.359C102.385 107.129 102.203 106.856 102.078 106.555C101.953 106.255 101.889 105.933 101.889 105.607C101.889 105.282 101.953 104.96 102.078 104.659C102.203 104.359 102.385 104.086 102.616 103.856L102.619 103.853L139.409 67.0633L139.411 67.0604C139.641 66.8301 139.914 66.6474 140.215 66.5228C140.515 66.3981 140.837 66.334 141.163 66.334C141.488 66.334 141.81 66.3981 142.111 66.5228C142.411 66.6474 142.684 66.8301 142.914 67.0604L142.917 67.0633L147.532 71.6783C148.499 72.646 148.505 74.197 147.547 75.1709L142.957 79.6313L140.058 82.4493L142.907 85.3184L152.137 94.6134L154.968 97.4646L157.806 94.6204C158.036 94.3901 158.309 94.2074 158.61 94.0828C158.91 93.9581 159.232 93.894 159.558 93.894C159.883 93.894 160.205 93.9581 160.506 94.0828C160.806 94.2074 161.079 94.3901 161.309 94.6204L161.312 94.6233C162.285 95.5962 162.285 97.2235 161.312 98.1964L158.483 101.025L161.312 103.853L170.477 113.018L173.305 115.847L176.133 113.018L180.749 108.403C181.719 107.433 183.34 107.43 184.314 108.396C184.317 108.398 184.319 108.401 184.322 108.403L188.852 112.998L188.862 113.008L188.872 113.018C189.845 113.991 189.845 115.619 188.872 116.591L152.147 153.316C151.174 154.289 149.546 154.289 148.574 153.316L144.024 148.766L144.003 148.746L143.983 148.726C143.749 148.499 143.563 148.228 143.437 147.928C143.31 147.628 143.245 147.306 143.245 146.98C143.245 146.654 143.31 146.332 143.437 146.032C143.563 145.732 143.749 145.46 143.983 145.234L144.013 145.204L144.043 145.173L148.593 140.558L151.382 137.73L148.574 134.921L139.409 125.756L136.58 122.928L133.752 125.756L71.2866 188.221L71.2838 188.224C71.054 188.455 70.781 188.637 70.4805 188.762C70.1801 188.887 69.8579 188.951 69.5326 188.951C69.2072 188.951 68.8851 188.887 68.5846 188.762C68.2842 188.637 68.0112 188.455 67.7814 188.224L67.7785 188.221C66.8056 187.249 66.8056 185.621 67.7785 184.648L130.179 122.248ZM180 177.5C182.387 177.5 184.676 178.448 186.364 180.136C188.052 181.824 189 184.113 189 186.5V189H132V186.5C132 184.113 132.948 181.824 134.636 180.136C136.324 178.448 138.613 177.5 141 177.5H180Z" stroke="#F3F5F9" stroke-width="8"/>
<defs>
<linearGradient id="paint0_linear_10855_116171" x1="-1.55029e-06" y1="199.68" x2="256" y2="81.92" gradientUnits="userSpaceOnUse">
<stop stop-color="#0575E6"/>
<stop offset="1" stop-color="#021B79"/>
</linearGradient>
</defs>
</svg>
