<svg xmlns="http://www.w3.org/2000/svg" fill="none" viewBox="0 0 3000 3000" id="InvestingForMoreProfit"><path fill="#ffffff" stroke="#000000" stroke-linecap="round" stroke-linejoin="round" stroke-width="2" d="M2536.11 2330.06C2496.64 2339 2455.78 2338.72 2415.56 2342.72 2375.33 2346.72 2333.97 2355.72 2301.67 2380.22 2272.22 2402.78 2252.78 2436.56 2241.94 2472.06 2231.11 2507.56 2228.06 2544.92 2226.17 2582 2287.56 2573.67 2341.5 2560.44 2395.89 2530.78 2432.31 2510.92 2466.86 2486.08 2491.78 2453 2518.97 2416.67 2523.11 2373.5 2536.11 2330.06zM2155 2647.75C2154.33 2596.03 2124.72 2546.42 2081.39 2518.19 2038.06 2489.97 1982.56 2482.61 1932.33 2494.92 1897.22 2503.53 1864.33 2521.19 1828.39 2525.08 1852.5 2573.78 1905.22 2601.08 1957.14 2617.14 2018.5 2636.11 2091.44 2638.42 2155 2647.75z" class="colorffffff svgShape colorStroke000000 svgStroke"></path><path fill="#021b79" d="M881.861 2519.44C885.511 2535.1 892.654 2549.73 902.756 2562.24 912.857 2574.74 925.656 2584.8 940.194 2591.67 955.25 2598.94 971.361 2603.56 987.417 2608.33 1003.47 2613.11 1020 2617.97 1034.64 2626.56 1049.28 2635.14 1064.33 2650.14 1061.53 2668.42L1063.47 2666.47 1024.94 2673.14 932.111 2689.22 820.111 2708.67 723.306 2725.33 691.417 2730.89 681.472 2732.61C679.71 2732.77 677.964 2733.06 676.25 2733.5 676.029 2733.53 675.805 2733.53 675.583 2733.5L679.111 2736.28 687.805 2662.67 701.694 2545.39 704.889 2518.53 702.111 2521.31H884.778C885.514 2521.31 886.221 2521.01 886.742 2520.49 887.263 2519.97 887.555 2519.26 887.555 2518.53 887.555 2517.79 887.263 2517.08 886.742 2516.56 886.221 2516.04 885.514 2515.75 884.778 2515.75H701.889C701.152 2515.75 700.446 2516.04 699.925 2516.56 699.404 2517.08 699.111 2517.79 699.111 2518.53L690.417 2592.14 676.528 2709.42 673.361 2736.28C673.139 2738.22 675.305 2739.22 676.861 2739.06L715.389 2732.39 808.333 2716.31 920.305 2696.86 1017.11 2680.19 1049.03 2674.64C1054.03 2673.78 1059.22 2673.19 1064.17 2672.03H1064.83C1065.3 2671.9 1065.72 2671.65 1066.06 2671.31 1066.4 2670.97 1066.65 2670.55 1066.78 2670.08 1069.17 2654.53 1060.94 2640.72 1049.56 2630.78 1037.06 2619.89 1021.33 2613.64 1005.81 2608.56 973.833 2597.89 938.583 2591.69 913.861 2566.89 900.605 2553.49 891.392 2536.62 887.278 2518.22 886.444 2514.42 881.083 2515.89 881.861 2519.44zM1524.39 2140.36C1531.19 2153.64 1536.61 2167.61 1543.14 2181.03 1549.22 2193.53 1556.08 2208.5 1567.44 2217.14 1584.11 2229.81 1606.14 2232.92 1626.03 2237.19 1648.92 2241.67 1671.42 2247.93 1693.33 2255.92 1714.36 2264.25 1736.5 2280.33 1736.86 2305.14L1738.92 2302.36 1698.33 2308.33 1600.5 2322.06 1482.5 2338.72 1380.28 2352.78 1346.72 2357.47C1341.4 2357.86 1336.11 2358.6 1330.89 2359.69H1330.22L1333.72 2362.47V2166.36L1331.69 2169.14 1397.86 2159.86 1503.42 2145.11 1527.61 2141.72C1531.14 2141.22 1529.64 2135.89 1526.14 2136.36L1459.94 2145.64 1354.39 2160.39 1330.22 2163.78C1329.62 2163.94 1329.08 2164.3 1328.71 2164.81 1328.34 2165.31 1328.15 2165.93 1328.17 2166.56V2362.5C1328.15 2362.94 1328.24 2363.37 1328.42 2363.77 1328.61 2364.17 1328.88 2364.52 1329.22 2364.79 1329.57 2365.06 1329.97 2365.24 1330.4 2365.33 1330.83 2365.41 1331.27 2365.4 1331.69 2365.28L1372.22 2359.47 1470.03 2345.78 1588.06 2329.11 1690.28 2314.78 1723.81 2310.06C1729.06 2309.33 1734.47 2308.92 1739.67 2307.83H1740.33C1740.93 2307.67 1741.46 2307.3 1741.83 2306.8 1742.2 2306.29 1742.38 2305.68 1742.36 2305.06 1742.06 2284.92 1728.22 2268.31 1711.56 2258.47 1702.29 2253.27 1692.47 2249.14 1682.28 2246.14 1670.72 2242.47 1659 2239.28 1647.22 2236.36 1635.94 2233.58 1624.56 2231.22 1613.19 2228.75 1602.6 2226.83 1592.25 2223.7 1582.36 2219.44 1574.99 2216.32 1568.52 2211.4 1563.53 2205.14 1558.9 2198.78 1554.82 2192.05 1551.33 2185 1543.31 2169.47 1537.17 2153.08 1529.11 2137.53 1527.56 2134.39 1522.78 2137.19 1524.39 2140.36z" class="color000000 svgShape"></path><path fill="#021b79" stroke="#000000" stroke-linecap="round" stroke-linejoin="round" stroke-width="2" d="M735.861 1434.92L659.556 2548.81C659.556 2548.81 733.056 2588.39 962.028 2548.81L1024.22 1720.56 1318.19 1771.75 1298.42 2215.17C1298.42 2215.17 1462.31 2240.69 1600.89 2164.36L1607.83 1709.11C1608.31 1678.96 1599.92 1649.33 1583.72 1623.89 1567.51 1598.46 1544.2 1578.34 1516.67 1566.03L1134.44 1395.33 1086.39 1290.75 735.861 1434.92zM1017.36 575C1017.36 575 1081.42 556.861 1078.22 502.417 1075.03 447.972 990.694 473.583 990.694 473.583 990.694 473.583 774.028 374.305 751.556 546.167 751.556 546.167 634.889 590.028 698.195 714.833 736.611 790.611 857.028 824.555 857.028 824.555L1017.36 575z" class="color000000 svgShape colorStroke000000 svgStroke"></path><path fill="#ffffff" stroke="#000000" stroke-linecap="round" stroke-linejoin="round" stroke-width="2" d="M1017.36 575C1017.36 575 1115.11 753.389 985.111 802.778L1001.25 860.667L873.139 867.306L857.028 824.611L876 754.389C876 754.389 815.278 753.444 817.167 708.833C819.056 664.222 878.833 681.333 878.833 681.333L909.194 592.139C909.194 592.139 975.611 594.944 1017.36 575Z" class="colorffffff svgShape colorStroke000000 svgStroke"></path><path fill="#021b79" d="M933.695 801.75C950.722 807.139 969 810.944 986.639 806.111 987.35 805.916 987.954 805.446 988.319 804.805 988.683 804.165 988.779 803.405 988.583 802.694 988.388 801.983 987.919 801.379 987.278 801.015 986.637 800.65 985.878 800.555 985.167 800.75 968.5 805.333 951.25 801.5 935.167 796.389 931.75 795.306 930.278 800.667 933.695 801.75zM955.75 735.695C962.187 740.547 969.552 744.024 977.388 745.912 985.225 747.799 993.366 748.056 1001.31 746.667 1004.83 746.083 1003.33 740.722 999.833 741.333 992.605 742.507 985.212 742.186 978.112 740.39 971.012 738.593 964.356 735.36 958.556 730.889 958.24 730.704 957.891 730.583 957.529 730.534 957.167 730.484 956.799 730.506 956.445 730.599 956.092 730.692 955.76 730.854 955.469 731.075 955.178 731.296 954.934 731.573 954.75 731.889 954.565 732.204 954.445 732.553 954.395 732.915 954.345 733.277 954.367 733.646 954.46 733.999 954.553 734.353 954.715 734.685 954.936 734.975 955.157 735.266 955.434 735.511 955.75 735.695zM858 707.25C866.333 713.472 868.972 724.889 871.195 734.5L875.833 731.722C871.291 727.403 865.844 724.149 859.889 722.194 856.472 721.055 855.028 726.416 858.417 727.555 863.453 729.228 868.054 731.998 871.889 735.666 872.321 736.131 872.9 736.434 873.529 736.524 874.157 736.614 874.798 736.486 875.344 736.161 875.889 735.837 876.307 735.335 876.528 734.739 876.748 734.144 876.758 733.49 876.556 732.889 873.944 721.555 870.611 709.555 860.806 702.333 860.491 702.104 860.132 701.944 859.752 701.863 859.372 701.782 858.979 701.781 858.599 701.861 858.219 701.942 857.859 702.101 857.544 702.328 857.229 702.556 856.966 702.847 856.77 703.183 856.575 703.519 856.452 703.893 856.41 704.279 856.368 704.665 856.408 705.056 856.526 705.427 856.645 705.797 856.84 706.138 857.098 706.428 857.357 706.718 857.674 706.951 858.028 707.111L858 707.25zM1011.33 642.944C1018.55 654.259 1025.19 665.931 1031.22 677.917 1032.75 680.684 1034.13 683.531 1035.36 686.444 1036.03 688.222 1036.17 689.528 1034.67 690.778 1033.46 691.684 1032.2 692.519 1030.89 693.278 1025.06 696.881 1018.86 699.842 1012.39 702.111 1009.03 703.278 1010.47 708.639 1013.86 707.444 1021.16 704.923 1028.14 701.568 1034.67 697.444 1037.11 695.889 1040.08 694.278 1041.06 691.333 1041.76 688.338 1041.26 685.188 1039.67 682.556 1032.77 667.907 1024.9 653.737 1016.11 640.139 1014.22 637.139 1009.39 639.917 1011.33 642.917V642.944zM960.167 663.084C965.337 663.084 969.528 658.892 969.528 653.722 969.528 648.552 965.337 644.361 960.167 644.361 954.997 644.361 950.806 648.552 950.806 653.722 950.806 658.892 954.997 663.084 960.167 663.084zM1001.25 860.639C1048.75 888.416 1069.72 968.972 1080.42 1023.08 1096.53 1104.31 1112.63 1185.52 1128.72 1266.72 1137.22 1309.56 1178.86 1385.36 1178.86 1385.36 1143.78 1450.11 1007.14 1493.36 1007.14 1493.36L978.861 1385.36 950.806 1523.06C829.889 1592.97 686.528 1607.44 686.528 1607.44 716.445 1486.5 714.945 1360.22 727.639 1236.36 740.333 1112.5 792.389 962.139 873.139 867.278L1001.25 860.639z" class="color000000 svgShape"></path><path fill="#021b79" d="M998.444 865.417C1026.89 882.361 1042.89 915.417 1053.86 945.306C1066.81 980.667 1073.69 1017.53 1081 1054.47C1090.91 1104.47 1100.83 1154.56 1110.78 1204.72L1118.17 1241.94C1120.31 1252.72 1122.08 1263.64 1124.75 1274.31C1128.93 1289.86 1134.33 1305.07 1140.89 1319.78C1147.06 1334.33 1153.81 1348.67 1160.89 1362.81C1164.92 1370.89 1168.83 1379.17 1173.39 1386.94C1173.64 1387.33 1173.83 1387.75 1174.06 1388.17V1382.61C1158.64 1410.81 1129.31 1430.19 1102.08 1445.69C1076.61 1460 1050.01 1472.2 1022.56 1482.17C1017 1484.22 1011.44 1486.25 1005.67 1488.06L1012.5 1491.94L987.722 1397.22L984.222 1383.83C982.889 1378.72 974.611 1378.28 973.5 1383.83L964.028 1430.56L948.944 1504.5L945.444 1521.67L948 1518.36C903.805 1543.83 856.055 1562.61 807.139 1576.69C773.415 1586.54 739.082 1594.15 704.361 1599.5L696.5 1600.64L695.278 1600.81L694.25 1600.94L691.611 1601.28C689.944 1601.5 688.278 1601.69 686.583 1601.86L691.944 1608.89C705.361 1554.47 712.555 1498.78 717.472 1443C722.389 1387.22 725 1330.92 729.666 1275C731.694 1250.42 733.916 1225.86 737.75 1201.5C741.278 1179.03 745.861 1156.72 751.361 1134.67C762.68 1088.72 778.151 1043.9 797.583 1000.75C816.305 959.417 838.861 919.306 867.028 883.611C870.305 879.444 873.666 875.333 877.111 871.278L873.166 872.917L916.333 870.667L985.278 867.083L1001.28 866.278C1008.39 865.889 1008.42 854.778 1001.28 855.167L908.055 860C896.5 860.583 884.805 860.75 873.278 861.778C872.013 861.973 870.807 862.446 869.746 863.161C868.684 863.877 867.794 864.818 867.139 865.917C864.555 869.028 862 872.139 859.5 875.306C854.574 881.528 849.815 887.861 845.222 894.306C835.639 907.722 826.75 921.639 818.444 935.972C784.333 994.556 759.583 1058.75 742.583 1124.28C734.323 1155.99 728.097 1188.19 723.944 1220.69C719.055 1259.14 716.666 1297.94 714.083 1336.61C708.694 1416.97 704.166 1497.72 687.833 1576.86C685.796 1586.66 683.583 1596.42 681.194 1606.14C680.968 1606.96 680.934 1607.83 681.097 1608.67C681.26 1609.51 681.615 1610.3 682.134 1610.98C682.653 1611.66 683.322 1612.21 684.089 1612.59C684.856 1612.97 685.7 1613.17 686.555 1613.17C703.778 1611.42 720.944 1608.39 737.916 1605.06C777.962 1597.34 817.355 1586.56 855.75 1572.81C879.004 1564.49 901.764 1554.86 923.916 1543.94C929.694 1541.09 935.435 1538.12 941.139 1535.03C943.916 1533.58 946.472 1532.25 949.111 1530.61C951.75 1528.97 955.139 1527.83 956.194 1524.69C956.585 1523.23 956.891 1521.75 957.111 1520.25L971.389 1450L979.472 1410.31C980.972 1402.94 983 1395.53 984 1388.08C984.047 1387.71 984.121 1387.34 984.222 1386.97H973.5L998.278 1481.58L1001.81 1494.97C1002 1495.68 1002.33 1496.34 1002.78 1496.91C1003.22 1497.49 1003.78 1497.97 1004.42 1498.33C1005.05 1498.69 1005.75 1498.93 1006.47 1499.02C1007.2 1499.11 1007.93 1499.06 1008.64 1498.86C1037.35 1489.59 1065.23 1477.91 1091.97 1463.94C1113.67 1453.1 1134.07 1439.83 1152.78 1424.39C1161.42 1417.16 1169.23 1409 1176.08 1400.06C1178.86 1396.33 1183.19 1391.42 1184.42 1386.83C1184.57 1385.67 1184.48 1384.49 1184.16 1383.36C1183.85 1382.23 1183.31 1381.17 1182.58 1380.25C1173.32 1363.18 1164.72 1345.79 1156.78 1328.08C1151.36 1316.08 1146.25 1303.94 1141.86 1291.53C1137.51 1278.65 1134.1 1265.48 1131.67 1252.11C1116.06 1173.39 1100.94 1094.53 1084.83 1016C1079.58 988.549 1071.99 961.599 1062.14 935.444C1052.31 910.444 1039.36 884.861 1018.97 866.694C1014.43 862.602 1009.5 858.964 1004.25 855.833C997.889 852.167 992.305 861.778 998.444 865.417Z" class="color000000 svgShape"></path><path fill="#ffffff" d="M871.583 1645C901.43 1676.71 937.74 1701.63 978.056 1718.08 989.664 1722.81 1001.56 1726.81 1013.67 1730.06 1014.38 1730.25 1015.14 1730.16 1015.78 1729.8 1016.43 1729.44 1016.9 1728.84 1017.1 1728.12 1017.3 1727.41 1017.2 1726.65 1016.84 1726.01 1016.48 1725.37 1015.88 1724.89 1015.17 1724.69 973.65 1713.57 935.041 1693.57 902 1666.08 892.669 1658.29 883.82 1649.94 875.5 1641.08 873.055 1638.47 869.139 1642.42 871.583 1645.03V1645zM1331.33 1772.83C1372.34 1764.21 1412.18 1750.72 1450 1732.67 1453.22 1731.11 1450.39 1726.33 1447.22 1727.86 1409.87 1745.68 1370.53 1758.98 1330.03 1767.47 1326.53 1768.22 1328 1773.58 1331.5 1772.83H1331.33zM700 2041.28C725.886 2045.11 752.086 2046.39 778.222 2045.11 781.778 2044.94 781.806 2039.39 778.222 2039.56 752.582 2040.86 726.875 2039.64 701.472 2035.92 697.972 2035.39 696.472 2040.75 700 2041.28z" class="colorffffff svgShape"></path><path fill="#0575e6" d="M604.861 759.473C640.778 780.695 697.25 810.028 733.167 831.25C766.5 850.945 800.472 871.223 825.028 901.111C854.334 936.806 867.445 983 875.528 1028.47C889.167 1104.94 890.472 1184.75 869.056 1259.42C847.639 1334.08 802 1403.36 736.111 1444.44C691.167 1472.22 638.889 1486.11 586.722 1495.06C522.195 1505.97 455.556 1509.64 391.583 1495.89C358.25 1488.75 324.611 1476.03 301.722 1450.78C288.306 1435.97 279.5 1417.72 270.667 1399.78L228.833 1313.67C217.111 1289.56 205.25 1265.03 200.722 1238.67C195.333 1207.28 200.722 1174.97 209.056 1144.22C248.139 1002.75 369.778 871.278 479.583 773.945C479.583 773.945 371.695 619.306 427.278 583.334C482.861 547.361 528.639 729.389 528.639 729.389C528.639 729.389 498.083 548.445 570.056 549.556C642.028 550.667 575.611 719.556 575.611 719.556C575.611 719.556 626.528 611.556 658.445 634.556C718.361 677.778 604.861 759.473 604.861 759.473Z" class="color4d66af svgShape"></path><path fill="#021b79" d="M480.028 776.528C521.644 782.281 564.032 778.014 603.667 764.084C607 762.917 605.556 757.528 602.194 758.722C563.528 772.422 522.148 776.689 481.5 771.167C478.028 770.695 476.5 776.028 480.028 776.528Z" class="color000000 svgShape"></path><path fill="#021b79" d="M473.445 785.472C515.986 796.079 560.767 793.256 601.639 777.389C604.917 776.111 603.5 770.75 600.167 772.056C560.249 787.606 516.497 790.42 474.917 780.111C474.206 779.916 473.446 780.011 472.806 780.376C472.165 780.741 471.695 781.345 471.5 782.056C471.305 782.767 471.4 783.526 471.765 784.167C472.129 784.808 472.734 785.277 473.445 785.472Z" class="color000000 svgShape"></path><path fill="#1947f6" d="M575.722 1083.86C566.535 1080.74 556.924 1079.04 547.222 1078.83C539.114 1078.29 531.051 1080.43 524.278 1084.92C521.311 1086.99 518.927 1089.79 517.356 1093.05C515.784 1096.31 515.078 1099.92 515.306 1103.53C516.056 1111.36 520.861 1118.11 526.417 1123.33C538.861 1134.94 556.778 1141.03 565.083 1156.67C568.806 1163.72 570.222 1172.53 565.917 1179.67C562.111 1185.97 554.806 1189.28 547.917 1190.78C527.306 1194.94 506.25 1184.14 488.445 1175.28C485.25 1173.69 482.417 1178.47 485.667 1180.06C502.028 1188.19 519.222 1196.72 537.861 1197.08C551.75 1197.44 568.417 1192.03 573.083 1177.31C578 1161.47 566.75 1146.39 554.945 1137.25C548.111 1131.94 540.528 1127.64 533.722 1122.31C527.361 1117.28 520.167 1109.69 520.695 1100.94C521.306 1090.61 532.056 1085.5 541.139 1084.61C552.386 1083.81 563.676 1085.38 574.278 1089.22C577.667 1090.36 579.139 1085 575.75 1083.86H575.722Z" class="colorf6b519 svgShape"></path><path fill="#1947f6" d="M547.695 1063.67C531.21 1115.77 512.026 1166.98 490.222 1217.08 488.806 1220.33 493.584 1223.17 495.028 1219.86 517.041 1169.32 536.41 1117.67 553.056 1065.11 554.111 1061.69 548.75 1060.25 547.695 1063.64V1063.67zM563.889 1066.67C551.994 1111.13 536.45 1154.54 517.417 1196.44 512.065 1208.26 506.426 1219.93 500.5 1231.44 498.861 1234.61 503.667 1237.44 505.305 1234.22 526.369 1193.01 544.021 1150.15 558.083 1106.06 562.083 1093.5 565.787 1080.85 569.194 1068.11 569.276 1067.45 569.116 1066.78 568.744 1066.22 568.371 1065.67 567.812 1065.27 567.167 1065.09 566.523 1064.92 565.836 1064.98 565.234 1065.27 564.632 1065.56 564.155 1066.05 563.889 1066.67z" class="colorf6b519 svgShape"></path><path fill="#1947f6" d="M512.5 1260.14C487.477 1255.82 464.334 1244.07 446.083 1226.42C426.833 1207.19 415.083 1180.28 409.806 1153.83C406.678 1139.6 406.878 1124.84 410.389 1110.69C413.684 1099.06 419.151 1088.16 426.5 1078.56C441.75 1058.19 463.5 1042.83 486.667 1032.67C510.779 1022.09 537.007 1017.24 563.306 1018.47C574.419 1018.71 585.466 1020.25 596.222 1023.06C607.517 1026.33 618.27 1031.24 628.139 1037.64C648.75 1050.97 667.861 1072 674.278 1096.14C678 1110.19 676.195 1125.22 673.917 1139.39C671.827 1152.64 668.478 1165.66 663.917 1178.28C654.861 1203.03 639.75 1228.03 617.083 1242.42C604.973 1249.65 591.747 1254.82 577.945 1257.72C563.647 1261.13 548.971 1262.68 534.278 1262.33C526.974 1262.12 519.696 1261.38 512.5 1260.11C509 1259.5 507.5 1264.83 511.028 1265.47C541.307 1270.63 572.417 1267.53 601.083 1256.5C614.316 1251.54 626.341 1243.82 636.361 1233.86C646.018 1223.9 654.109 1212.53 660.361 1200.14C673.369 1174.51 680.693 1146.38 681.833 1117.67C682.497 1102.78 678.872 1088.02 671.389 1075.14C665.024 1064.05 656.943 1054.03 647.445 1045.47C629.5 1029.25 605.389 1016.53 581.028 1014.25C568.792 1012.88 556.466 1012.48 544.167 1013.06C530.385 1013.94 516.755 1016.44 503.556 1020.5C454.5 1035.56 402.639 1075.72 402.028 1131.44C402.191 1146.86 405.011 1162.13 410.361 1176.58C414.826 1190.05 421.106 1202.84 429.028 1214.61C444.345 1235.99 466.04 1251.97 491 1260.25C497.539 1262.48 504.233 1264.22 511.028 1265.47C514.528 1266.14 516.028 1260.78 512.5 1260.14Z" class="colorf6b519 svgShape"></path><path fill="#1947f6" d="M508.028 1278.25C479.406 1273.3 452.918 1259.9 431.972 1239.78C409.75 1217.69 396.056 1186.67 389.917 1156.19C386.339 1141.26 386.182 1125.7 389.457 1110.7C392.733 1095.69 399.356 1081.62 408.833 1069.53C426.222 1046.11 451.111 1028.47 477.583 1016.75C505.407 1004.43 535.71 998.72 566.111 1000.08C579.073 1000.36 591.958 1002.16 604.5 1005.44C617.547 1009.19 629.968 1014.84 641.361 1022.22C664.833 1037.44 686.5 1061.36 694.139 1088.89C698.639 1105.19 696.583 1122.64 693.944 1139.11C691.547 1154.48 687.677 1169.57 682.389 1184.19C671.917 1212.75 654.444 1241.61 628.194 1258.14C614.17 1266.44 598.872 1272.36 582.917 1275.67C566.543 1279.54 549.737 1281.28 532.917 1280.83C524.533 1280.59 516.177 1279.73 507.917 1278.28C504.417 1277.67 502.917 1283 506.444 1283.64C540.917 1289.49 576.327 1286.01 609 1273.56C624.383 1267.9 638.367 1258.99 650 1247.44C661.225 1235.84 670.594 1222.57 677.778 1208.11C685.012 1193.69 690.603 1178.5 694.444 1162.83C698.69 1146.63 701.195 1130.02 701.917 1113.28C702.469 1096.4 698.2 1079.71 689.611 1065.17C682.298 1052.56 673.046 1041.18 662.194 1031.44C651.475 1021.8 639.379 1013.81 626.306 1007.72C613.671 1001.53 600.064 997.569 586.083 996C571.813 994.473 557.446 994.055 543.111 994.75C527.304 995.869 511.68 998.824 496.556 1003.56C440.722 1021.11 381.944 1067.08 381.528 1130.64C381.786 1148.19 385.026 1165.57 391.111 1182.03C396.371 1197.82 403.854 1212.79 413.333 1226.47C431.027 1250.64 455.876 1268.63 484.361 1277.89C491.574 1280.25 498.944 1282.11 506.417 1283.44C510.056 1284.25 511.556 1278.89 508.028 1278.25Z" class="colorf6b519 svgShape"></path><path fill="#021b79" d="M410.056 930.056C414.611 948.178 421.669 965.577 431.028 981.75 431.412 982.355 432.015 982.787 432.711 982.958 433.407 983.128 434.142 983.023 434.762 982.665 435.383 982.306 435.84 981.722 436.04 981.034 436.24 980.346 436.166 979.607 435.834 978.972 426.716 963.218 419.844 946.267 415.417 928.611 415.222 927.9 414.752 927.296 414.111 926.931 413.471 926.567 412.711 926.471 412 926.667 411.289 926.862 410.685 927.332 410.32 927.972 409.956 928.613 409.861 929.372 410.056 930.083V930.056zM468.306 967.945L456.917 914.862 452.278 917.639 490.556 960.889C492.278 962.834 495.111 961.112 495.306 958.917 496.887 940.166 496.14 921.291 493.083 902.723 492.5 899.223 487.139 900.695 487.722 904.223 490.66 922.3 491.341 940.672 489.75 958.917L494.472 956.945 456.195 913.723C454.25 911.5 451 913.889 451.556 916.5L462.972 969.445C463.722 972.945 469.056 971.473 468.306 967.973V967.945zM518.333 902.778C522.357 919.769 527.697 936.421 534.306 952.583 535 954.333 537.445 955.583 538.945 953.806 544.889 946.778 547.445 937.528 550.583 929.028L561.111 900.361C562.361 897 557 895.556 555.75 898.889L545.833 925.611C542.833 933.667 540.556 943.167 534.917 949.861L539.556 951.083C532.947 934.921 527.607 918.269 523.583 901.278 522.778 897.806 517.417 899.278 518.222 902.75L518.333 902.778zM619.667 894.639L604.139 893.889 596.389 893.5C594.29 893.108 592.129 893.222 590.083 893.833 586.417 895.5 586.917 901.75 586.583 904.944 586.083 909.833 585.694 914.722 585.417 919.639 585.139 924.555 585 929.444 584.944 934.361 584.944 936.916 584.944 939.444 584.944 942 584.726 944.02 584.934 946.065 585.555 948 587.25 951.555 593.583 951.444 596.917 952.083L612.111 954.861C615.611 955.528 617.111 950.166 613.583 949.5L601.111 947.139 595.139 946.028 591.889 945.389C591.411 945.328 590.938 945.235 590.472 945.111 589.991 945 589.991 945 590.472 945.111 590.152 943.124 590.152 941.098 590.472 939.111 590.472 937.111 590.472 935.111 590.472 933.111 590.472 928.916 590.667 924.778 590.889 920.555 591.111 916.333 591.389 912.583 591.75 908.583 591.917 906.583 592.111 904.611 592.333 902.611 592.333 901.528 592.5 900.416 592.694 899.361 592.889 898.305 592.694 898.472 594.139 898.666 598.139 899.166 602.305 899.055 606.333 899.278L619.639 899.916C623.222 900.111 623.194 894.528 619.639 894.361L619.667 894.639z" class="color000000 svgShape"></path><path fill="#021b79" d="M589.75 923.416C598.049 922.554 606.432 923.776 614.139 926.972 614.493 927.073 614.863 927.103 615.229 927.059 615.594 927.016 615.947 926.901 616.268 926.72 616.588 926.539 616.87 926.296 617.095 926.006 617.321 925.715 617.487 925.383 617.583 925.027 617.68 924.675 617.707 924.308 617.662 923.945 617.616 923.583 617.5 923.233 617.319 922.916 617.139 922.599 616.897 922.32 616.609 922.096 616.321 921.872 615.991 921.707 615.639 921.611 607.447 918.257 598.557 916.969 589.75 917.861 589.013 917.861 588.307 918.153 587.786 918.674 587.265 919.195 586.972 919.902 586.972 920.638 586.972 921.375 587.265 922.082 587.786 922.603 588.307 923.124 589.013 923.416 589.75 923.416zM677.055 913.333C672.19 910.782 666.916 909.099 661.472 908.361 656.889 907.777 651.5 907.5 647.944 911.138 641.028 918.111 645.166 931.638 649.333 938.916 653.5 946.194 664.972 959.527 654.889 966.694 645.833 973.138 635.222 965.083 628.666 958.972 626.055 956.527 622.139 960.444 624.75 962.888 630.444 968.222 636.972 973.444 645 974.333 648.284 974.827 651.641 974.383 654.683 973.051 657.726 971.719 660.33 969.553 662.194 966.805 666.416 959.722 663.555 951.083 659.639 944.583 655 936.944 649.75 930.222 650.139 920.805 650.056 919.698 650.209 918.586 650.587 917.542 650.965 916.498 651.56 915.547 652.333 914.75 654.306 913.61 656.629 913.235 658.861 913.694 664.258 914.145 669.51 915.676 674.305 918.194 677.472 919.833 680.305 915.027 677.083 913.388L677.055 913.333zM685.139 998.416L703.222 971.5C709.028 962.805 714.667 953.944 720.917 945.555 723.056 942.778 718.139 940 716.111 942.778 709.861 951.111 704.25 960.028 698.417 968.722L680.333 995.639C678.333 998.639 683.111 1001.42 685.139 998.416z" class="color000000 svgShape"></path><path fill="#021b79" d="M704.444 932.278C708.583 939.25 715.25 943.889 721.972 948.111 728.694 952.333 735.5 956.111 740.028 962.472 740.403 963.098 741.01 963.551 741.717 963.733 742.424 963.915 743.174 963.811 743.805 963.444 744.436 963.073 744.895 962.468 745.082 961.761 745.269 961.054 745.17 960.301 744.805 959.667 740.083 953 733.278 948.555 726.444 944.361 719.611 940.167 713.222 936.028 709.25 929.472 708.866 928.867 708.262 928.435 707.567 928.264 706.871 928.094 706.136 928.199 705.516 928.557 704.895 928.916 704.438 929.5 704.238 930.188 704.038 930.876 704.112 931.615 704.444 932.25V932.278zM293.25 1262.81C289.173 1265.03 285.867 1268.43 283.767 1272.58 281.668 1276.72 280.874 1281.4 281.491 1286 282.108 1290.6 284.107 1294.91 287.223 1298.35 290.339 1301.79 294.426 1304.21 298.944 1305.28 304.5 1306.61 310.972 1305.89 315.611 1309.39 316.72 1310.03 317.602 1311 318.135 1312.16 318.667 1313.33 318.824 1314.63 318.583 1315.89 317.387 1318.54 315.846 1321.03 314 1323.28 309.083 1331.31 306.305 1342.42 311.444 1351.06 316.166 1358.97 327.305 1363.39 335.416 1357.94 338.361 1355.94 335.583 1351.14 332.639 1353.14 330.568 1354.39 328.146 1354.93 325.739 1354.68 323.332 1354.43 321.073 1353.4 319.305 1351.75 317.314 1349.97 315.822 1347.7 314.979 1345.17 314.136 1342.63 313.971 1339.92 314.5 1337.31 315.444 1330.94 319 1326.33 322.278 1321.03 323.599 1319.15 324.308 1316.92 324.308 1314.63 324.308 1312.33 323.599 1310.1 322.278 1308.22 315.055 1298.19 300.833 1303.64 292.389 1295.61 290.41 1293.71 288.906 1291.36 287.998 1288.77 287.09 1286.18 286.803 1283.41 287.159 1280.69 287.516 1277.96 288.507 1275.36 290.052 1273.09 291.597 1270.82 293.653 1268.94 296.055 1267.61 296.612 1267.21 296.998 1266.61 297.14 1265.94 297.281 1265.26 297.169 1264.56 296.823 1263.97 296.477 1263.37 295.923 1262.93 295.269 1262.72 294.614 1262.51 293.904 1262.55 293.278 1262.83L293.25 1262.81zM422.972 1414.56C426.356 1417.81 430.383 1420.32 434.793 1421.92 439.204 1423.52 443.902 1424.18 448.583 1423.86 449.32 1423.86 450.027 1423.57 450.548 1423.05 451.069 1422.53 451.361 1421.82 451.361 1421.08 451.361 1420.35 451.069 1419.64 450.548 1419.12 450.027 1418.6 449.32 1418.31 448.583 1418.31 444.634 1418.62 440.661 1418.1 436.927 1416.78 433.193 1415.45 429.782 1413.35 426.917 1410.61 424.333 1408.14 420.417 1412.06 422.972 1414.56zM289.778 1093.78C284.222 1100.94 278.194 1109.61 280.028 1119.14 281.528 1127 289.028 1134.17 297.361 1132.06 298.072 1131.86 298.676 1131.39 299.041 1130.75 299.405 1130.11 299.501 1129.35 299.305 1128.64 299.11 1127.93 298.641 1127.32 298 1126.96 297.359 1126.59 296.6 1126.5 295.889 1126.69 290.167 1128.17 285.5 1121.64 285.25 1116.53 284.889 1108.97 290.25 1102.25 294.583 1096.58 294.784 1096.27 294.919 1095.91 294.98 1095.54 295.041 1095.17 295.026 1094.8 294.937 1094.43 294.848 1094.07 294.686 1093.73 294.461 1093.43 294.237 1093.13 293.953 1092.88 293.629 1092.69 293.305 1092.5 292.946 1092.38 292.574 1092.34 292.202 1092.29 291.825 1092.32 291.465 1092.43 291.105 1092.53 290.77 1092.71 290.48 1092.94 290.19 1093.18 289.951 1093.47 289.778 1093.81V1093.78zM500.555 1317.5C499.133 1319.69 498.475 1322.28 498.687 1324.88 498.898 1327.48 499.965 1329.93 501.722 1331.86 503.58 1333.81 506.102 1335 508.792 1335.19 511.481 1335.37 514.142 1334.54 516.25 1332.86 517.589 1331.9 518.7 1330.65 519.506 1329.21 520.313 1327.77 520.794 1326.17 520.917 1324.53 520.917 1323.79 520.624 1323.08 520.103 1322.56 519.582 1322.04 518.876 1321.75 518.139 1321.75 517.402 1321.75 516.696 1322.04 516.175 1322.56 515.654 1323.08 515.361 1323.79 515.361 1324.53 515.361 1324.53 515.361 1324.86 515.361 1324.92 515.361 1324.97 515.5 1324.33 515.361 1324.67 515.222 1325 515.361 1325.08 515.222 1325.31 515.083 1325.53 515.083 1325.94 514.972 1326.03 514.861 1326.11 515.222 1325.53 514.972 1325.81L514.75 1326.22 514.417 1326.81C514.334 1326.9 514.259 1327 514.194 1327.11 514.028 1327.39 514.333 1326.92 514.333 1326.94 514.333 1326.97 513.556 1327.81 513.278 1328.06 513.191 1328.11 513.116 1328.17 513.055 1328.25 513.472 1327.97 512.805 1328.53 513.055 1328.25L512.5 1328.64 511.917 1328.97 511.583 1329.17C511.333 1329.17 511.25 1329.47 511.583 1329.17 511.192 1329.4 510.756 1329.54 510.306 1329.58L509.639 1329.72H509.917 509.444 508.389C507.944 1329.72 508.556 1329.72 508.556 1329.72 508.556 1329.72 507.306 1329.36 507.167 1329.33 507.028 1329.31 507.639 1329.58 507.333 1329.33L507.083 1329.19 506.528 1328.89 506.25 1328.67C505.972 1328.53 506.472 1328.83 506.444 1328.83 506.417 1328.83 505.889 1328.33 505.833 1328.31L505.556 1327.78C505.833 1328.22 505.222 1327.44 505.556 1327.78 505.293 1327.4 505.051 1327.01 504.833 1326.61V1326.28C504.639 1325.89 504.833 1326.44 504.833 1326.44 504.752 1326.25 504.687 1326.04 504.639 1325.83 504.495 1325.4 504.384 1324.95 504.306 1324.5 504.306 1324 504.306 1324.69 504.306 1324.69 504.317 1324.55 504.317 1324.4 504.306 1324.25 504.292 1324.01 504.292 1323.77 504.306 1323.53 504.306 1323.28 504.306 1323.06 504.306 1322.81 504.306 1322.56 504.167 1323.36 504.306 1323V1322.56C504.306 1322.33 504.305 1322.11 504.5 1321.86 504.694 1321.61 504.5 1321.64 504.5 1321.53 504.5 1321.42 504.5 1321.69 504.5 1321.69 504.749 1321.21 505.037 1320.74 505.361 1320.31 505.546 1319.99 505.667 1319.64 505.716 1319.28 505.766 1318.92 505.744 1318.55 505.651 1318.2 505.558 1317.84 505.396 1317.51 505.175 1317.22 504.954 1316.93 504.677 1316.68 504.361 1316.5 504.046 1316.32 503.697 1316.19 503.335 1316.14 502.973 1316.1 502.604 1316.12 502.251 1316.21 501.897 1316.3 501.565 1316.47 501.275 1316.69 500.984 1316.91 500.739 1317.18 500.555 1317.5zM520.944 704.195L531.583 756.973C532.278 760.473 537.639 758.973 536.944 755.5L526.305 702.722C525.611 699.222 520.25 700.695 520.944 704.195zM574.139 740.083C577.472 716.277 593.806 697.444 603.778 676.194 605.306 672.972 600.5 670.138 598.972 673.416 588.806 695 572.195 714.222 568.778 738.527 568.278 742.027 573.639 743.527 574.139 740V740.083zM556.278 689.111C555.806 671.667 554.917 654.195 555.056 636.75 554.987 628.256 555.788 619.776 557.445 611.445 558.472 606.639 561.195 592.25 568.556 593.445L566.611 591.5C571.284 610.343 571.55 630.01 567.389 648.972 566.639 652.472 572 653.945 572.75 650.445 577.118 630.511 576.851 609.842 571.972 590.028 571.845 589.563 571.599 589.139 571.258 588.798 570.917 588.457 570.493 588.211 570.028 588.083 562.584 586.889 557.667 592.945 555.139 599.195 551.796 608.333 549.921 617.942 549.584 627.667 548.417 648.028 549.972 668.667 550.528 689.028 550.528 689.765 550.821 690.471 551.342 690.992 551.862 691.513 552.569 691.806 553.306 691.806 554.042 691.806 554.749 691.513 555.27 690.992 555.791 690.471 556.084 689.765 556.084 689.028L556.278 689.111zM492.111 681.972C487.389 671.898 482.491 661.898 477.417 651.972 474.833 646.944 472.195 641.916 469.5 636.944 467.506 632.832 465.145 628.909 462.445 625.222 458.806 620.611 447.945 613.638 444.25 622.055 440.556 630.472 445.083 642.444 448.528 650.555 453.417 662.083 458.833 673.361 464.611 684.472 466.278 687.638 471.056 684.833 469.417 681.694 463.861 671.027 458.667 660.194 453.917 649.138 451.614 644.231 449.943 639.05 448.945 633.722 448.714 632.14 448.621 630.542 448.667 628.944 448.667 627.916 448.528 625.194 449.278 624.388 450.75 622.833 453.889 624.722 455.139 625.666 458.627 628.866 461.4 632.766 463.278 637.111 466.056 642.083 468.639 647.083 471.222 652.111 476.778 662.888 482.139 673.787 487.306 684.805 488.806 688.055 493.611 685.222 492.111 682.027V681.972zM600.639 723.695C605.191 713.953 611.394 705.073 618.972 697.445 622.816 693.566 627.01 690.052 631.5 686.945 632.449 686.194 633.473 685.543 634.555 685 634.805 685 635.5 684.528 635.778 684.639 635.739 684.971 635.739 685.307 635.778 685.639 635.604 688.194 634.944 690.693 633.833 693 630.96 698.417 627.205 703.317 622.722 707.5 620.194 710.028 624.139 713.972 626.639 711.417 631.391 706.976 635.396 701.799 638.5 696.084 640.583 691.75 644.444 680.945 637.194 679.25 634.083 678.5 631.167 680.473 628.861 682.028 626.555 683.584 623.611 685.861 621.139 687.945 616.125 692.185 611.564 696.932 607.528 702.111 603.001 707.879 599.143 714.141 596.028 720.778 594.5 724 599.305 726.834 600.805 723.556L600.639 723.695zM804.084 969.917C806.535 973.084 808.058 976.87 808.482 980.853 808.906 984.835 808.216 988.858 806.487 992.47 804.758 996.083 802.06 999.145 798.692 1001.31 795.325 1003.48 791.421 1004.67 787.417 1004.75 783.861 1004.75 783.834 1010.31 787.417 1010.31 792.398 1010.24 797.265 1008.8 801.483 1006.15 805.701 1003.5 809.109 999.739 811.332 995.281 813.556 990.823 814.509 985.839 814.088 980.875 813.667 975.911 811.887 971.159 808.945 967.139 806.861 964.361 802.028 967.139 804.139 969.917H804.084z" class="color000000 svgShape"></path><path fill="#ffffff" stroke="#000000" stroke-linecap="round" stroke-linejoin="round" stroke-width="2" d="M526.111 1478.97L491.945 1517.86C491.945 1517.86 429.861 1534.94 473.333 1570.64C473.333 1570.64 453.195 1610.28 504.389 1607.53C504.389 1607.53 499.722 1645.14 554.028 1620.31C554.028 1620.31 575.778 1671.53 644.056 1562.86L526.111 1478.97Z" class="colorffffff svgShape colorStroke000000 svgStroke"></path><path fill="#021b79" stroke="#000000" stroke-linecap="round" stroke-linejoin="round" stroke-width="2" d="M504.389 1476.08L679.389 1190.72C679.389 1190.72 891.666 811.945 1025.92 911.667C1178.86 1025.28 859.25 1286.89 859.25 1286.89L652.778 1590.78C652.778 1590.78 546.361 1542.75 504.389 1476.08Z" class="color000000 svgShape colorStroke000000 svgStroke"></path><path fill="#ffffff" d="M784.528 1243.11C803.048 1266.72 829.012 1283.36 858.194 1290.33 861.666 1291.14 863.166 1285.78 859.666 1284.97 831.429 1278.23 806.317 1262.1 788.444 1239.22 786.25 1236.44 782.333 1240.36 784.528 1243.17V1243.11zM1031.08 500C1041.25 507.528 1034.31 521.612 1027.78 528.778 1019.89 537.207 1010.91 544.55 1001.08 550.612 981.59 562.925 959.498 570.533 936.556 572.834 933.028 573.195 932.972 578.75 936.556 578.389 967.208 575.416 996.25 563.266 1019.89 543.528 1027.5 537.195 1035.67 530 1039.56 520.667 1043.25 511.75 1041.75 501.028 1033.75 495.084 1030.97 492.945 1028.19 497.862 1030.97 499.889L1031.08 500zM964.361 524.75C963.361 543.111 943.528 551.139 928.5 555.306 927.789 555.501 927.185 555.971 926.82 556.611 926.456 557.252 926.36 558.011 926.556 558.722 926.751 559.433 927.22 560.038 927.861 560.402 928.502 560.767 929.261 560.862 929.972 560.667 939.639 557.889 949.417 554.5 957.25 548.056 960.866 545.24 963.858 541.706 966.038 537.675 968.218 533.645 969.539 529.206 969.917 524.639 970.111 521.056 964.556 521.083 964.361 524.639V524.75zM775.583 563.028C803.979 576.759 833.927 587.019 864.778 593.584 868.278 594.306 869.75 588.972 866.25 588.222 835.857 581.833 806.348 571.798 778.361 558.334 775.167 556.806 772.361 561.584 775.583 563.139V563.028zM1383.06 1190.25C1383.79 1190.25 1384.5 1189.96 1385.02 1189.44 1385.54 1188.92 1385.83 1188.21 1385.83 1187.47 1385.83 1186.74 1385.54 1186.03 1385.02 1185.51 1384.5 1184.99 1383.79 1184.69 1383.06 1184.69 1382.32 1184.69 1381.61 1184.99 1381.09 1185.51 1380.57 1186.03 1380.28 1186.74 1380.28 1187.47 1380.28 1188.21 1380.57 1188.92 1381.09 1189.44 1381.61 1189.96 1382.32 1190.25 1383.06 1190.25zM882.25 936.111C897.378 920.122 916.829 908.878 938.234 903.748 959.639 898.619 982.074 899.826 1002.81 907.222 1006.17 908.472 1007.61 903.083 1004.28 901.861 987.41 895.885 969.414 893.78 951.623 895.704 933.831 897.627 916.701 903.529 901.5 912.972 892.955 918.307 885.155 924.752 878.306 932.139 875.889 934.778 879.806 938.694 882.25 936.083V936.111z" class="colorffffff svgShape"></path><path fill="#ffffff" d="M716.472 1496.83C737.662 1458.8 761.392 1422.23 787.5 1387.39 813.5 1353.06 842.222 1320.89 871 1288.89 899.778 1256.89 928.528 1225.22 955.028 1191.5 979.631 1160.76 1001.27 1127.76 1019.67 1092.94 1038.05 1058.31 1050.9 1021 1057.72 982.389 1058.5 977.694 1059.17 972.972 1059.75 968.25 1060.17 964.694 1054.61 964.722 1054.19 968.25 1044.61 1046.78 1004.53 1117.78 957.166 1179.72 905.555 1247.22 843.778 1306.36 791.361 1373.31 761.83 1411.51 735.192 1451.86 711.667 1494.03 709.917 1497.17 714.722 1499.97 716.472 1496.81V1496.83zM723.944 1614.81C761.194 1606.64 797.028 1592.58 832.111 1577.89 867.861 1562.89 903 1546.47 938.639 1531.19 942.778 1529.42 946.972 1527.78 951.083 1525.94 951.664 1525.77 952.194 1525.46 952.625 1525.03 953.056 1524.6 953.376 1524.08 953.556 1523.5 954 1522.06 954.167 1520.47 954.472 1519.03L958.889 1497.22 972.472 1430.56 978.333 1401.75C979.708 1396.83 980.729 1391.82 981.389 1386.75 981.419 1386.51 981.466 1386.27 981.528 1386.03H976.194L1001 1480.75 1004.47 1494.03C1004.64 1494.63 1005.01 1495.16 1005.51 1495.52 1006.01 1495.89 1006.63 1496.08 1007.25 1496.06 1017.73 1494.59 1028.03 1492.07 1038 1488.53 1064.31 1479.64 1089.3 1467.23 1112.28 1451.64 1130.8 1439.17 1148.2 1425.11 1164.28 1409.61 1166.86 1407.14 1162.94 1403.22 1160.36 1405.69 1120.44 1443.89 1070.97 1476.58 1016.67 1488.89 1014.22 1489.44 1011.75 1489.94 1009.28 1490.36 1008.63 1490.42 1007.99 1490.52 1007.36 1490.67 1008.11 1490.67 1006.72 1490.86 1007.36 1490.67L1010.14 1492.69 985.333 1397.97 981.833 1384.69C981.665 1384.12 981.314 1383.61 980.833 1383.25 980.353 1382.89 979.768 1382.69 979.167 1382.69 978.566 1382.69 977.981 1382.89 977.5 1383.25 977.019 1383.61 976.668 1384.12 976.5 1384.69L966.667 1431.08 951.556 1505.22 948.139 1522.22 950.083 1520.28C890.389 1545.06 832.528 1574.36 771.306 1595.28 755.301 1600.85 738.987 1605.49 722.444 1609.17 718.972 1609.94 720.444 1615.31 723.944 1614.53V1614.81zM1076 1239.03L1023.47 1345.61C1021.89 1348.81 1026.69 1351.64 1028.28 1348.39L1080.81 1241.81C1082.39 1238.61 1077.58 1235.81 1076 1239.03zM968 1195.72L971 1288.33C971 1291.89 976.556 1291.92 976.556 1288.33L973.556 1195.72C973.556 1192.14 968 1192.14 968 1195.72zM976.083 1322.53V1350.69C976.083 1351.43 976.376 1352.14 976.897 1352.66 977.418 1353.18 978.125 1353.47 978.861 1353.47 979.598 1353.47 980.304 1353.18 980.825 1352.66 981.346 1352.14 981.639 1351.43 981.639 1350.69V1322.53C981.639 1321.79 981.346 1321.08 980.825 1320.56 980.304 1320.04 979.598 1319.75 978.861 1319.75 978.125 1319.75 977.418 1320.04 976.897 1320.56 976.376 1321.08 976.083 1321.79 976.083 1322.53z" class="colorffffff svgShape"></path><path fill="#021b79" d="M919.695 2573.33C893.472 2578.03 880.806 2604.25 873.25 2627 872.111 2630.39 877.472 2631.83 878.611 2628.47 885.639 2607.47 896.917 2583.06 921.195 2578.7 924.695 2578.06 923.222 2572.7 919.695 2573.33zM684.861 2705.56C733.694 2697.67 782.805 2691.67 831.917 2686.11 882.222 2680.33 932.583 2675 982.833 2668.5 1009.83 2665.05 1036.78 2661.31 1063.64 2656.97 1067.14 2656.42 1065.67 2651.06 1062.17 2651.61 1013.33 2659.5 964.222 2665.5 915.111 2671.06 864.805 2676.83 814.417 2682.17 764.194 2688.64 737.194 2692.11 710.25 2695.83 683.389 2700.19 679.861 2700.75 681.361 2706.11 684.861 2705.56zM1568.17 2212.17C1560.9 2216.22 1554.86 2222.14 1550.65 2229.31 1546.44 2236.49 1544.22 2244.65 1544.22 2252.97 1544.22 2253.71 1544.51 2254.42 1545.04 2254.94 1545.56 2255.46 1546.26 2255.75 1547 2255.75 1547.74 2255.75 1548.44 2255.46 1548.96 2254.94 1549.49 2254.42 1549.78 2253.71 1549.78 2252.97 1549.75 2245.61 1551.71 2238.37 1555.44 2232.02 1559.17 2225.67 1564.53 2220.43 1570.97 2216.86 1574.11 2215.14 1571.31 2210.33 1568.19 2212.06L1568.17 2212.17zM1330.94 2335.03L1360.11 2332.25C1384.85 2329.82 1409.56 2327.41 1434.25 2325 1467.47 2321.63 1500.67 2318.18 1533.83 2314.64 1568.56 2310.94 1603.26 2307.05 1637.94 2302.97 1667.69 2299.44 1697.44 2295.75 1727.11 2291.47L1736.19 2290.14C1739.69 2289.61 1738.19 2284.25 1734.69 2284.78 1706.22 2289.06 1677.64 2292.64 1649.06 2296.08 1614.61 2300.23 1580.13 2304.15 1545.61 2307.83 1512.17 2311.54 1478.71 2315.04 1445.25 2318.33 1419.19 2321 1393.13 2323.6 1367.06 2326.14 1355.22 2327.28 1343.22 2327.97 1331.44 2329.56H1330.94C1327.42 2329.89 1327.39 2335.44 1330.94 2335.11V2335.03z" class="color000000 svgShape"></path><path fill="#021b79" d="M565.639 2792.28C579.917 2780.17 598.028 2771.31 615.472 2764.94C632.74 2758.52 651.022 2755.26 669.445 2755.31C688.195 2755.31 706.945 2757.5 725.667 2755.58C760.278 2752.03 790.195 2732.47 825.528 2732.06C842.195 2731.83 859 2733.14 875.361 2729.11C894.25 2724.47 911.278 2714.83 930.917 2712.78C949.333 2710.86 967.945 2713.14 986.472 2711.11C1003.67 2709.22 1019.58 2703.03 1035.75 2697.22C1070.25 2684.83 1107.17 2684.14 1142.64 2675.47C1160.44 2671.14 1178.03 2665.97 1195.72 2661.22C1212.39 2656.72 1229.58 2653.83 1246.28 2649.42C1265.28 2644.39 1268.5 2631.36 1272.08 2613.5C1275.39 2597.03 1277.17 2580.17 1281.78 2564.03C1286.14 2548.89 1296.31 2535.39 1297.72 2519.58C1299.08 2504.22 1298.72 2489.03 1300.86 2473.64C1302.79 2458.82 1305.57 2444.13 1309.19 2429.64C1311.78 2419.5 1314.42 2406.58 1322.11 2398.86C1328.61 2392.36 1338.5 2392.08 1347.11 2391.53C1360.63 2391.1 1374.08 2389.4 1387.28 2386.44C1403.94 2382.19 1419.89 2375.61 1436.17 2370.19C1453.74 2364.21 1472.09 2360.78 1490.64 2360C1509.44 2359.25 1528.31 2360.19 1547.03 2358.11C1583.42 2354.08 1617.58 2339.56 1654.17 2335.56C1691.31 2331.5 1728.69 2330 1765.86 2325.78C1783.92 2323.75 1801.97 2321.36 1819.83 2318.33C1836.86 2315.56 1855.06 2313.11 1871.36 2307.22C1922.64 2288.86 1907 2219.28 1928.28 2179.94C1935.89 2165.89 1950.5 2157.22 1957.31 2142.67C1963.36 2129.61 1962.64 2114.89 1962.53 2101C1961.97 2082.5 1966.91 2064.25 1976.72 2048.56C1985.06 2034.67 1992.06 2021.33 1995.89 2005.39C2000.06 1988.03 2003.08 1970.64 2009.11 1953.78C2015.1 1937.06 2022.95 1921.06 2032.5 1906.08C2041.5 1891.97 2052.22 1878.83 2055.64 1862.06C2058.61 1847.53 2057.22 1832.56 2058.78 1817.92C2061.43 1792.29 2068.74 1767.37 2080.33 1744.36C2086.06 1733.25 2093.28 1721.97 2103.64 1714.69C2115.31 1706.53 2130.78 1705.61 2144.53 1704.86C2217.69 1700.83 2290.39 1689.17 2363.25 1681.31C2396.75 1677.69 2430.42 1673.69 2464.14 1672.78C2485 1672.19 2507.22 1672.78 2527.03 1665.08C2535.85 1661.77 2543.7 1656.3 2549.88 1649.19C2556.06 1642.07 2560.37 1633.53 2562.42 1624.33C2566.33 1608.61 2565.61 1592.25 2567.06 1576.25C2568.92 1555.81 2576.61 1539.22 2585.33 1521.03C2591.96 1507.95 2596.15 1493.77 2597.69 1479.19C2599.33 1461.31 2597.33 1443.31 2598.58 1425.39C2599.92 1406.44 2606.31 1390.81 2615.75 1374.53C2623.61 1361 2631.39 1347.58 2634.03 1331.94C2636.81 1315.28 2635.25 1298.28 2635.83 1281.47C2636.77 1261.18 2639.56 1241.01 2644.17 1221.22C2649.03 1199 2655.75 1177.33 2660.44 1155.11C2668.22 1118.36 2673.92 1081.14 2679.89 1044C2693.78 955.778 2705.69 867.084 2722.31 779.306C2724.64 766.889 2727.06 754.445 2730.28 742.25C2730.42 741.563 2730.29 740.849 2729.93 740.251C2729.56 739.652 2728.98 739.214 2728.31 739.025C2727.63 738.835 2726.91 738.907 2726.29 739.227C2725.66 739.547 2725.18 740.091 2724.94 740.75C2716.83 771.306 2712.22 803.139 2707.08 834.361C2699.56 880.195 2692.58 926.028 2685.5 972.028C2678.67 1016.47 2671.89 1060.92 2664.22 1105.19C2657.53 1144.08 2647.31 1181.31 2638.89 1219.69C2634.79 1237.28 2632 1255.14 2630.56 1273.14C2629.36 1291.64 2631.53 1310.39 2628.78 1328.69C2623.89 1361.17 2597.5 1384.56 2593.61 1417.58C2591.58 1434.78 2593.17 1452.14 2592.58 1469.39C2591.92 1489 2586.61 1505.5 2578.06 1522.83C2570.67 1537.89 2564.17 1552.39 2562.11 1569.19C2559.94 1586.44 2561.22 1604.19 2557.28 1621.19C2544.81 1674.94 2481.83 1664.81 2439.83 1668.17C2362.58 1674.31 2285.64 1684.42 2208.69 1693.67C2192.03 1695.67 2175.69 1697.83 2159 1698.44C2145.53 1698.94 2131.81 1699.14 2118.61 1702.17C2096.89 1707.19 2083.64 1724.61 2074.17 1743.83C2063.86 1765.18 2057.01 1788.03 2053.86 1811.53C2051.92 1825.42 2052.78 1839.61 2051.08 1853.61C2048.78 1873.72 2036.83 1888.17 2026.47 1904.69C2008.25 1933.72 1998.83 1964.81 1991.58 1998.03C1987.58 2016.28 1980.22 2031.19 1970.75 2047.14C1962.97 2060.19 1957.72 2073.14 1956.86 2088.47C1956.03 2104.69 1959.08 2122.11 1953.11 2137.67C1946.89 2153.89 1930.25 2163.19 1922.39 2178.61C1910.33 2202.22 1909.28 2229.94 1903.69 2255.42C1900.92 2267.56 1897.22 2280.06 1888.69 2289.42C1878.14 2301.03 1863.06 2303.97 1848.36 2307.11C1810.18 2314.87 1771.56 2320.3 1732.72 2323.39C1696.97 2326.61 1660.5 2327.25 1625.28 2334.08C1607.72 2337.47 1590.72 2343.08 1573.39 2347.39C1554.4 2351.85 1534.95 2354.04 1515.44 2353.92C1497.22 2354.11 1478.89 2353.92 1460.92 2357.47C1444.64 2360.64 1429.11 2366.56 1413.53 2372.08C1396.44 2378.14 1379.22 2383.67 1361.03 2385.06C1351.53 2385.78 1341.81 2385.47 1332.44 2387.47C1315.08 2391.14 1309.5 2406.92 1305.11 2422.42C1297.49 2448.94 1293.15 2476.29 1292.17 2503.86C1291.92 2513.06 1292.47 2522.06 1289.19 2530.86C1286.42 2538.67 1281.86 2545.81 1278.97 2553.67C1273.14 2569.47 1271.06 2586.31 1268.14 2602.81C1266.36 2612.81 1265.36 2627.06 1259.33 2635.69C1252.86 2644.94 1237.47 2645.47 1227.53 2647.58C1191 2655.33 1155.64 2667.81 1118.97 2674.92C1101.36 2678.33 1083.42 2679.58 1065.78 2682.83C1048.14 2686.08 1032.44 2692.72 1015.78 2698.36C996.5 2704.92 977.667 2706.5 957.445 2706.39C940.111 2706.39 923.361 2706.89 906.75 2712.36C888 2718.53 871.278 2725.86 851.195 2726.44C834.528 2726.94 817.861 2725.44 801.528 2728.56C785.195 2731.67 769.861 2738.33 754.111 2743.44C735.812 2749.11 716.661 2751.53 697.528 2750.58C680.056 2750.06 662.5 2748.64 645.111 2751.22C630.424 2753.64 616.117 2757.97 602.556 2764.11C587.848 2770.15 574.101 2778.3 561.75 2788.31C558.972 2790.61 562.972 2794.53 565.667 2792.22L565.639 2792.28Z" class="color000000 svgShape"></path><path fill="#021b79" d="M2617.81 837.889L2704.33 762.278 2714.75 753.167C2717.94 750.389 2721.47 746.195 2725.5 744.667 2729.53 743.139 2731.39 747.667 2732.67 750.917 2734.47 755.5 2736.19 760.139 2737.92 764.806 2743.92 780.972 2749.47 797.278 2755.03 813.584 2761.53 832.667 2768.14 851.722 2775.36 870.556 2776.64 873.861 2782 872.445 2780.72 869.084 2767.14 833.75 2756.03 797.556 2742.83 762.084 2741.08 757.445 2739.36 752.778 2737.5 748.195 2736.6 745.116 2734.81 742.372 2732.36 740.306 2725 735.222 2717.5 743.472 2712.39 747.917L2666 788.472 2613.89 833.972C2611.11 836.334 2615.11 840.25 2617.81 837.889zM272.472 2812.08C348.417 2836.58 427.417 2816.47 503.278 2802.39 544.945 2794.64 587.389 2788.25 629.861 2791.56 674.445 2795 717.722 2809.72 762.695 2809.19 806.945 2808.67 848.528 2790.75 893.111 2792.89 935.889 2794.94 977.806 2805.14 1020.11 2793.47 1041 2787.72 1061.44 2778.86 1083.36 2777.89 1105.28 2776.92 1125.33 2785.14 1145.58 2791.36 1163.67 2796.92 1181.69 2800.53 1200.64 2797.78 1218.61 2795.17 1235.53 2788.33 1252.67 2782.58 1273.08 2775.75 1293.58 2771.28 1315.14 2775.08 1334.97 2778.61 1353.61 2786.69 1372.75 2792.64 1406.89 2803.19 1436.14 2799.75 1468.75 2786.08 1499.86 2773.08 1536.11 2750.61 1570.81 2763.39 1588.22 2769.81 1601.36 2784.28 1619.42 2789.28 1631.85 2792.38 1644.86 2792.23 1657.22 2788.86 1687.64 2781.39 1713.75 2762.61 1743.33 2752.58 1759.72 2747.03 1776.81 2744.53 1793.78 2749.14 1813.22 2754.47 1830.69 2763.42 1851.08 2766.08 1873.03 2768.86 1895.31 2767.94 1917.36 2767.53L1988.28 2766.14 2129.94 2763.36 2416.06 2757.81C2438.58 2757.39 2461.25 2756.36 2483.75 2758.17 2507.36 2760.08 2528.19 2768.36 2551.17 2773.33 2592 2782.25 2628.47 2760 2668.53 2757.75 2688.36 2756.64 2708.19 2760.53 2722.64 2774.92 2723.16 2775.44 2723.86 2775.73 2724.6 2775.74 2725.34 2775.74 2726.05 2775.45 2726.57 2774.93 2727.09 2774.41 2727.39 2773.71 2727.39 2772.97 2727.39 2772.23 2727.1 2771.52 2726.58 2771 2703.19 2747.61 2668.03 2749.78 2638.25 2757.11 2616.36 2762.53 2594.47 2770.5 2571.58 2770.25 2548.69 2770 2527.31 2759.31 2504.92 2755.31 2460.89 2747.42 2414.08 2752.31 2369.61 2753.17L2227.94 2755.94 1941.83 2761.5C1918.33 2761.94 1894.61 2763.11 1871.25 2762.17 1847.89 2761.22 1827.47 2755.19 1805.44 2747.14 1775.53 2736.22 1748.28 2743.22 1720.19 2756.06 1692.11 2768.89 1660.56 2790.17 1627.86 2785.33 1607.81 2782.36 1594.19 2767.33 1576.22 2759.56 1563.39 2754.26 1549.29 2752.79 1535.64 2755.33 1501.78 2760.89 1472.69 2781.78 1439.75 2790.58 1397.69 2801.69 1362.44 2779.81 1322.56 2770.92 1284.56 2762.58 1253.11 2778.53 1217.25 2788.5 1196.28 2794.45 1174.04 2794.22 1153.19 2787.83 1134.25 2782.28 1115.75 2774.67 1096 2772.75 1076.25 2770.83 1057.72 2776.03 1039.25 2781.86 1017.42 2788.72 996.361 2794.14 973.25 2793.94 929.111 2793.56 886.834 2782.83 842.695 2790.81 819.945 2794.94 797.528 2801.44 774.389 2803.17 750.75 2804.92 727.167 2801.72 703.945 2797.61 661.667 2790.14 621.056 2782.94 577.917 2786.25 496.667 2792.47 417.5 2822.08 335.417 2817.89 314.573 2816.9 293.951 2813.16 274.084 2806.78 270.667 2805.69 269.195 2811.06 272.611 2812.14L272.472 2812.08z" class="color000000 svgShape"></path><path fill="#021b79" d="M2416.25 2428.22C2363.25 2432.92 2315.89 2461.95 2280.58 2500.75C2240.89 2544.39 2217.58 2599.56 2202.19 2655.86C2192.86 2690.03 2186.22 2724.86 2179.97 2759.67C2179.31 2763.17 2184.67 2764.67 2185.31 2761.14C2196.42 2701.08 2208.08 2640.14 2233.44 2584.17C2255.67 2535.19 2289.31 2490.64 2335.39 2461.94C2359.81 2446.36 2387.56 2436.74 2416.39 2433.86C2419.94 2433.56 2419.97 2428 2416.39 2428.31L2416.25 2428.22Z" class="color000000 svgShape"></path><path fill="#021b79" d="M2035.19 2576.67C2066.25 2586.42 2098.5 2596.94 2124.28 2617.56 2150.06 2638.17 2164.69 2668.03 2171.5 2699.97 2175.26 2718.27 2177.37 2736.88 2177.78 2755.56 2177.92 2759.14 2183.47 2759.14 2183.33 2755.56 2182.19 2721.92 2177.78 2687.28 2162.61 2656.78 2155.21 2641.76 2144.94 2628.34 2132.36 2617.28 2119.83 2606.68 2105.86 2597.93 2090.86 2591.28 2073.22 2583.53 2055.11 2576.91 2036.64 2571.44 2033.22 2570.36 2031.75 2575.72 2035.14 2576.81L2035.19 2576.67zM924.5 2775.72H953.528C954.264 2775.72 954.971 2775.43 955.492 2774.91 956.013 2774.39 956.305 2773.68 956.305 2772.94 956.305 2772.21 956.013 2771.5 955.492 2770.98 954.971 2770.46 954.264 2770.17 953.528 2770.17H924.5C923.763 2770.17 923.057 2770.46 922.536 2770.98 922.015 2771.5 921.722 2772.21 921.722 2772.94 921.722 2773.68 922.015 2774.39 922.536 2774.91 923.057 2775.43 923.763 2775.72 924.5 2775.72zM882.306 2762.53H892.861C893.598 2762.53 894.304 2762.24 894.825 2761.71 895.346 2761.19 895.639 2760.49 895.639 2759.75 895.639 2759.01 895.346 2758.31 894.825 2757.79 894.304 2757.27 893.598 2756.97 892.861 2756.97H882.306C881.569 2756.97 880.862 2757.27 880.341 2757.79 879.82 2758.31 879.528 2759.01 879.528 2759.75 879.528 2760.49 879.82 2761.19 880.341 2761.71 880.862 2762.24 881.569 2762.53 882.306 2762.53zM811.111 2773.08H816.361C816.729 2773.08 817.092 2773.01 817.431 2772.86 817.769 2772.72 818.076 2772.51 818.333 2772.25 818.851 2771.73 819.141 2771.03 819.141 2770.29 819.141 2769.56 818.851 2768.85 818.333 2768.33 818.074 2768.08 817.766 2767.87 817.427 2767.73 817.089 2767.6 816.727 2767.53 816.361 2767.53H811.111C810.746 2767.53 810.383 2767.6 810.045 2767.73 809.706 2767.87 809.398 2768.08 809.139 2768.33 808.881 2768.59 808.678 2768.9 808.539 2769.24 808.401 2769.58 808.331 2769.94 808.333 2770.31 808.336 2771.03 808.626 2771.73 809.139 2772.25 809.396 2772.51 809.703 2772.72 810.041 2772.86 810.38 2773.01 810.744 2773.08 811.111 2773.08zM935.056 2759.89H972C972.737 2759.89 973.443 2759.6 973.964 2759.07 974.485 2758.55 974.778 2757.85 974.778 2757.11 974.778 2756.37 974.485 2755.67 973.964 2755.15 973.443 2754.63 972.737 2754.33 972 2754.33H935.056C934.319 2754.33 933.612 2754.63 933.091 2755.15 932.571 2755.67 932.278 2756.37 932.278 2757.11 932.278 2757.85 932.571 2758.55 933.091 2759.07 933.612 2759.6 934.319 2759.89 935.056 2759.89zM1056.39 2733.5H1072.22C1072.96 2733.5 1073.67 2733.21 1074.19 2732.69 1074.71 2732.17 1075 2731.46 1075 2730.72 1075 2729.99 1074.71 2729.28 1074.19 2728.76 1073.67 2728.24 1072.96 2727.94 1072.22 2727.94H1056.39C1055.65 2727.94 1054.95 2728.24 1054.42 2728.76 1053.9 2729.28 1053.61 2729.99 1053.61 2730.72 1053.61 2731.46 1053.9 2732.17 1054.42 2732.69 1054.95 2733.21 1055.65 2733.5 1056.39 2733.5zM1030.03 2767.81H1035.28C1035.65 2767.8 1036.01 2767.73 1036.35 2767.59 1036.69 2767.44 1036.99 2767.23 1037.25 2766.97 1037.76 2766.45 1038.05 2765.76 1038.06 2765.03 1038.06 2764.66 1037.99 2764.3 1037.85 2763.96 1037.71 2763.62 1037.51 2763.32 1037.25 2763.06 1036.99 2762.8 1036.68 2762.59 1036.34 2762.46 1036.01 2762.32 1035.64 2762.25 1035.28 2762.25H1030.03C1029.66 2762.25 1029.3 2762.32 1028.96 2762.46 1028.62 2762.59 1028.32 2762.8 1028.06 2763.06 1027.8 2763.32 1027.59 2763.62 1027.46 2763.96 1027.32 2764.3 1027.25 2764.66 1027.25 2765.03 1027.25 2765.76 1027.54 2766.45 1028.06 2766.97 1028.31 2767.23 1028.62 2767.44 1028.96 2767.59 1029.3 2767.73 1029.66 2767.8 1030.03 2767.81zM1138.17 2762.53H1177.78C1178.51 2762.53 1179.22 2762.24 1179.74 2761.71 1180.26 2761.19 1180.56 2760.49 1180.56 2759.75 1180.56 2759.01 1180.26 2758.31 1179.74 2757.79 1179.22 2757.27 1178.51 2756.97 1177.78 2756.97H1138.17C1137.43 2756.97 1136.72 2757.27 1136.2 2757.79 1135.68 2758.31 1135.39 2759.01 1135.39 2759.75 1135.39 2760.49 1135.68 2761.19 1136.2 2761.71 1136.72 2762.24 1137.43 2762.53 1138.17 2762.53zM1145.36 2725.39C1152.36 2726.81 1159.62 2725.9 1166.06 2722.81 1166.61 2722.4 1167 2721.8 1167.14 2721.13 1167.28 2720.46 1167.17 2719.76 1166.82 2719.16 1166.48 2718.57 1165.92 2718.12 1165.27 2717.91 1164.61 2717.7 1163.9 2717.74 1163.28 2718.03 1162.03 2718.61 1160.74 2719.09 1159.42 2719.47 1158.69 2719.67 1157.97 2719.86 1157.22 2720L1156.11 2720.22H1155.42C1153.92 2720.39 1152.42 2720.44 1150.92 2720.39L1148.67 2720.22C1148.06 2720.15 1147.46 2720.05 1146.86 2719.92 1146.51 2719.82 1146.14 2719.79 1145.78 2719.84 1145.42 2719.88 1145.07 2720 1144.75 2720.18 1144.43 2720.36 1144.15 2720.6 1143.93 2720.89 1143.71 2721.18 1143.54 2721.51 1143.44 2721.86 1143.35 2722.21 1143.32 2722.58 1143.37 2722.94 1143.41 2723.31 1143.53 2723.66 1143.71 2723.97 1143.89 2724.29 1144.13 2724.57 1144.42 2724.79 1144.71 2725.02 1145.04 2725.18 1145.39 2725.28L1145.36 2725.39zM1225.17 2688.36L1314.89 2683.64C1318.44 2683.44 1318.47 2677.89 1314.89 2678.08L1225.17 2682.81C1221.61 2682.97 1221.58 2688.53 1225.17 2688.36zM1238.39 2717.5C1251.88 2718.82 1265.49 2718.07 1278.75 2715.28 1282.25 2714.56 1280.78 2709.19 1277.28 2709.94 1264.49 2712.57 1251.38 2713.24 1238.39 2711.94 1234.83 2711.61 1234.86 2717.17 1238.39 2717.5zM1222.61 2750L1243.75 2747.53C1244.49 2747.53 1245.19 2747.24 1245.71 2746.71 1246.24 2746.19 1246.53 2745.49 1246.53 2744.75 1246.53 2744.01 1246.24 2743.31 1245.71 2742.79 1245.19 2742.27 1244.49 2741.97 1243.75 2741.97L1222.61 2744.44C1221.87 2744.44 1221.17 2744.74 1220.65 2745.26 1220.13 2745.78 1219.83 2746.49 1219.83 2747.22 1219.83 2747.96 1220.13 2748.67 1220.65 2749.19 1221.17 2749.71 1221.87 2750 1222.61 2750zM1333.33 2751.97H1357.08C1357.82 2751.97 1358.53 2751.68 1359.05 2751.16 1359.57 2750.64 1359.86 2749.93 1359.86 2749.19 1359.86 2748.46 1359.57 2747.75 1359.05 2747.23 1358.53 2746.71 1357.82 2746.42 1357.08 2746.42H1333.33C1332.6 2746.42 1331.89 2746.71 1331.37 2747.23 1330.85 2747.75 1330.56 2748.46 1330.56 2749.19 1330.56 2749.93 1330.85 2750.64 1331.37 2751.16 1331.89 2751.68 1332.6 2751.97 1333.33 2751.97zM1351.81 2722.94H1359.69C1360.43 2722.94 1361.14 2722.65 1361.66 2722.13 1362.18 2721.61 1362.47 2720.9 1362.47 2720.17 1362.47 2719.43 1362.18 2718.72 1361.66 2718.2 1361.14 2717.68 1360.43 2717.39 1359.69 2717.39H1351.81C1351.07 2717.39 1350.36 2717.68 1349.84 2718.2 1349.32 2718.72 1349.03 2719.43 1349.03 2720.17 1349.03 2720.9 1349.32 2721.61 1349.84 2722.13 1350.36 2722.65 1351.07 2722.94 1351.81 2722.94zM1363.17 2673.11L1384.25 2667.75C1384.96 2667.55 1385.57 2667.08 1385.93 2666.44 1386.29 2665.8 1386.39 2665.04 1386.19 2664.33 1386 2663.62 1385.53 2663.02 1384.89 2662.65 1384.25 2662.29 1383.49 2662.19 1382.78 2662.39L1361.69 2667.75C1360.98 2667.94 1360.38 2668.41 1360.01 2669.06 1359.65 2669.7 1359.55 2670.46 1359.75 2671.17 1359.95 2671.88 1360.41 2672.48 1361.06 2672.85 1361.7 2673.21 1362.46 2673.31 1363.17 2673.11zM1346.53 2641.19H1370.25C1370.99 2641.19 1371.69 2640.9 1372.21 2640.38 1372.74 2639.86 1373.03 2639.15 1373.03 2638.42 1373.03 2637.68 1372.74 2636.97 1372.21 2636.45 1371.69 2635.93 1370.99 2635.64 1370.25 2635.64H1346.53C1345.79 2635.64 1345.08 2635.93 1344.56 2636.45 1344.04 2636.97 1343.75 2637.68 1343.75 2638.42 1343.75 2639.15 1344.04 2639.86 1344.56 2640.38 1345.08 2640.9 1345.79 2641.19 1346.53 2641.19zM992.361 2730.56C1000.84 2731.83 1009.51 2730.98 1017.58 2728.08 1017.94 2727.99 1018.27 2727.82 1018.55 2727.6 1018.84 2727.37 1019.08 2727.1 1019.26 2726.78 1019.44 2726.46 1019.56 2726.11 1019.61 2725.75 1019.65 2725.39 1019.62 2725.02 1019.53 2724.67 1019.43 2724.31 1019.27 2723.99 1019.04 2723.7 1018.82 2723.41 1018.54 2723.17 1018.22 2722.99 1017.91 2722.81 1017.56 2722.69 1017.19 2722.64 1016.83 2722.6 1016.46 2722.63 1016.11 2722.72 1009.02 2725.36 1001.39 2726.21 993.889 2725.19 993.179 2725.03 992.436 2725.15 991.804 2725.51 991.172 2725.86 990.697 2726.45 990.472 2727.14 990.375 2727.49 990.349 2727.86 990.394 2728.22 990.439 2728.58 990.556 2728.93 990.736 2729.25 990.917 2729.57 991.158 2729.85 991.446 2730.07 991.735 2730.29 992.064 2730.46 992.417 2730.56H992.361zM1425.64 2754.61H1467.86C1468.6 2754.61 1469.3 2754.32 1469.83 2753.8 1470.35 2753.28 1470.64 2752.57 1470.64 2751.83 1470.64 2751.1 1470.35 2750.39 1469.83 2749.87 1469.3 2749.35 1468.6 2749.06 1467.86 2749.06H1425.64C1424.9 2749.06 1424.2 2749.35 1423.67 2749.87 1423.15 2750.39 1422.86 2751.1 1422.86 2751.83 1422.86 2752.57 1423.15 2753.28 1423.67 2753.8 1424.2 2754.32 1424.9 2754.61 1425.64 2754.61zM1462.58 2717.69H1488.89C1489.63 2717.69 1490.33 2717.4 1490.85 2716.88 1491.37 2716.36 1491.67 2715.65 1491.67 2714.92 1491.67 2714.18 1491.37 2713.47 1490.85 2712.95 1490.33 2712.43 1489.63 2712.14 1488.89 2712.14H1462.53C1461.79 2712.14 1461.08 2712.43 1460.56 2712.95 1460.04 2713.47 1459.75 2714.18 1459.75 2714.92 1459.75 2715.65 1460.04 2716.36 1460.56 2716.88 1461.08 2717.4 1461.79 2717.69 1462.53 2717.69H1462.58zM1492.44 2683.67L1500.39 2681.11C1501.07 2680.89 1501.65 2680.44 1502.03 2679.83 1502.22 2679.52 1502.34 2679.16 1502.4 2678.79 1502.45 2678.43 1502.43 2678.05 1502.33 2677.69 1502.24 2677.34 1502.07 2677.01 1501.85 2676.72 1501.62 2676.44 1501.35 2676.19 1501.03 2676.01 1500.71 2675.83 1500.36 2675.72 1500 2675.67 1499.64 2675.63 1499.27 2675.65 1498.92 2675.75L1490.97 2678.31C1490.28 2678.51 1489.69 2678.97 1489.31 2679.58 1489.12 2679.9 1489 2680.26 1488.95 2680.62 1488.9 2680.99 1488.93 2681.37 1489.03 2681.72 1489.12 2682.07 1489.29 2682.4 1489.51 2682.69 1489.74 2682.98 1490.02 2683.22 1490.33 2683.4 1490.65 2683.58 1491 2683.7 1491.36 2683.75 1491.72 2683.79 1492.09 2683.76 1492.44 2683.67zM1399.28 2709.78H1409.83C1410.57 2709.78 1411.28 2709.49 1411.8 2708.96 1412.32 2708.44 1412.61 2707.74 1412.61 2707 1412.61 2706.26 1412.32 2705.56 1411.8 2705.04 1411.28 2704.52 1410.57 2704.22 1409.83 2704.22H1399.28C1398.54 2704.22 1397.83 2704.52 1397.31 2705.04 1396.79 2705.56 1396.5 2706.26 1396.5 2707 1396.5 2707.74 1396.79 2708.44 1397.31 2708.96 1397.83 2709.49 1398.54 2709.78 1399.28 2709.78zM1457.89 2650.58L1492.22 2645.72C1492.57 2645.63 1492.9 2645.46 1493.19 2645.24 1493.48 2645.01 1493.72 2644.73 1493.9 2644.42 1494.08 2644.1 1494.2 2643.75 1494.24 2643.39 1494.29 2643.03 1494.26 2642.66 1494.17 2642.31 1494.07 2641.95 1493.91 2641.62 1493.68 2641.34 1493.46 2641.05 1493.18 2640.81 1492.86 2640.63 1492.54 2640.44 1492.19 2640.33 1491.83 2640.28 1491.47 2640.24 1491.1 2640.26 1490.75 2640.36L1456.42 2645.22C1456.06 2645.32 1455.73 2645.48 1455.45 2645.71 1455.16 2645.93 1454.92 2646.21 1454.74 2646.53 1454.56 2646.85 1454.44 2647.19 1454.39 2647.56 1454.35 2647.92 1454.38 2648.29 1454.47 2648.64 1454.57 2648.99 1454.73 2649.32 1454.96 2649.61 1455.18 2649.9 1455.46 2650.14 1455.78 2650.32 1456.09 2650.5 1456.44 2650.62 1456.81 2650.66 1457.17 2650.71 1457.54 2650.68 1457.89 2650.58zM1541.67 2717.36L1565.39 2714.58C1566.13 2714.58 1566.83 2714.29 1567.35 2713.77 1567.87 2713.25 1568.17 2712.54 1568.17 2711.81 1568.17 2711.07 1567.87 2710.36 1567.35 2709.84 1566.83 2709.32 1566.13 2709.03 1565.39 2709.03L1541.67 2711.81C1540.93 2711.81 1540.22 2712.1 1539.7 2712.62 1539.18 2713.14 1538.89 2713.85 1538.89 2714.58 1538.89 2715.32 1539.18 2716.03 1539.7 2716.55 1540.22 2717.07 1540.93 2717.36 1541.67 2717.36zM1555.75 2662.58L1563.69 2660C1564.39 2659.8 1564.97 2659.34 1565.33 2658.72 1565.52 2658.4 1565.64 2658.05 1565.69 2657.68 1565.74 2657.31 1565.71 2656.94 1565.61 2656.58 1565.51 2656.23 1565.35 2655.9 1565.13 2655.61 1564.9 2655.32 1564.62 2655.08 1564.31 2654.9 1563.99 2654.72 1563.64 2654.61 1563.28 2654.56 1562.91 2654.52 1562.55 2654.54 1562.19 2654.64L1554.28 2657.22C1553.58 2657.41 1552.98 2657.87 1552.61 2658.5 1552.42 2658.82 1552.3 2659.17 1552.26 2659.54 1552.21 2659.91 1552.23 2660.28 1552.33 2660.64 1552.43 2660.99 1552.59 2661.32 1552.82 2661.61 1553.04 2661.9 1553.32 2662.14 1553.64 2662.32 1553.96 2662.5 1554.31 2662.62 1554.67 2662.66 1555.03 2662.71 1555.4 2662.68 1555.75 2662.58zM1407.19 2609.56H1438.89C1439.63 2609.56 1440.33 2609.26 1440.85 2608.74 1441.37 2608.22 1441.67 2607.51 1441.67 2606.78 1441.67 2606.04 1441.37 2605.33 1440.85 2604.81 1440.33 2604.29 1439.63 2604 1438.89 2604H1407.19C1406.46 2604 1405.75 2604.29 1405.23 2604.81 1404.71 2605.33 1404.42 2606.04 1404.42 2606.78 1404.42 2607.51 1404.71 2608.22 1405.23 2608.74 1405.75 2609.26 1406.46 2609.56 1407.19 2609.56zM1313 2614.86L1334.03 2609.31C1334.74 2609.11 1335.34 2608.64 1335.71 2608 1336.07 2607.36 1336.17 2606.6 1335.97 2605.89 1335.78 2605.18 1335.31 2604.57 1334.67 2604.21 1334.03 2603.84 1333.27 2603.75 1332.56 2603.94L1311.53 2609.5C1310.82 2609.7 1310.21 2610.17 1309.85 2610.81 1309.48 2611.45 1309.39 2612.21 1309.58 2612.92 1309.78 2613.63 1310.25 2614.23 1310.89 2614.6 1311.53 2614.96 1312.29 2615.06 1313 2614.86zM2533.33 2725.58H2562.33C2563.07 2725.58 2563.78 2725.29 2564.3 2724.77 2564.82 2724.25 2565.11 2723.54 2565.11 2722.81 2565.11 2722.07 2564.82 2721.36 2564.3 2720.84 2563.78 2720.32 2563.07 2720.03 2562.33 2720.03H2533.33C2532.6 2720.03 2531.89 2720.32 2531.37 2720.84 2530.85 2721.36 2530.56 2722.07 2530.56 2722.81 2530.56 2723.54 2530.85 2724.25 2531.37 2724.77 2531.89 2725.29 2532.6 2725.58 2533.33 2725.58zM2446.36 2725.33L2475.36 2722.56C2476.1 2722.56 2476.8 2722.26 2477.33 2721.74 2477.85 2721.22 2478.14 2720.51 2478.14 2719.78 2478.14 2719.04 2477.85 2718.33 2477.33 2717.81 2476.8 2717.29 2476.1 2717 2475.36 2717L2446.36 2719.78C2445.62 2719.78 2444.92 2720.07 2444.4 2720.59 2443.88 2721.11 2443.58 2721.82 2443.58 2722.56 2443.58 2723.29 2443.88 2724 2444.4 2724.52 2444.92 2725.04 2445.62 2725.33 2446.36 2725.33zM2571.19 2699.5L2579.14 2696.92C2579.83 2696.71 2580.43 2696.26 2580.81 2695.64 2580.99 2695.32 2581.11 2694.97 2581.16 2694.6 2581.21 2694.23 2581.18 2693.86 2581.08 2693.5 2580.87 2692.83 2580.4 2692.27 2579.79 2691.93 2579.18 2691.59 2578.46 2691.5 2577.78 2691.67L2569.83 2694.22C2569.48 2694.32 2569.15 2694.48 2568.86 2694.71 2568.57 2694.93 2568.33 2695.21 2568.15 2695.53 2567.97 2695.84 2567.86 2696.19 2567.81 2696.56 2567.77 2696.92 2567.79 2697.29 2567.89 2697.64 2567.99 2697.99 2568.15 2698.32 2568.37 2698.61 2568.6 2698.9 2568.88 2699.14 2569.19 2699.32 2569.51 2699.5 2569.86 2699.62 2570.22 2699.66 2570.59 2699.71 2570.95 2699.68 2571.31 2699.58L2571.19 2699.5zM2470.06 2690.83L2493.81 2688.06C2494.54 2688.06 2495.25 2687.76 2495.77 2687.24 2496.29 2686.72 2496.58 2686.01 2496.58 2685.28 2496.58 2684.54 2496.29 2683.83 2495.77 2683.31 2495.25 2682.79 2494.54 2682.5 2493.81 2682.5L2470.06 2685.28C2469.32 2685.28 2468.61 2685.57 2468.09 2686.09 2467.57 2686.61 2467.28 2687.32 2467.28 2688.06 2467.28 2688.79 2467.57 2689.5 2468.09 2690.02 2468.61 2690.54 2469.32 2690.83 2470.06 2690.83zM2514.94 2662.31H2541.33C2542.07 2662.31 2542.78 2662.01 2543.3 2661.49 2543.82 2660.97 2544.11 2660.26 2544.11 2659.53 2544.11 2658.79 2543.82 2658.08 2543.3 2657.56 2542.78 2657.04 2542.07 2656.75 2541.33 2656.75H2514.94C2514.21 2656.75 2513.5 2657.04 2512.98 2657.56 2512.46 2658.08 2512.17 2658.79 2512.17 2659.53 2512.17 2660.26 2512.46 2660.97 2512.98 2661.49 2513.5 2662.01 2514.21 2662.31 2514.94 2662.31zM2601.97 2670.11L2625.69 2667.33C2626.43 2667.33 2627.14 2667.04 2627.66 2666.52 2628.18 2666 2628.47 2665.29 2628.47 2664.56 2628.47 2663.82 2628.18 2663.11 2627.66 2662.59 2627.14 2662.07 2626.43 2661.78 2625.69 2661.78L2601.97 2664.56C2601.24 2664.56 2600.53 2664.85 2600.01 2665.37 2599.49 2665.89 2599.19 2666.6 2599.19 2667.33 2599.19 2668.07 2599.49 2668.78 2600.01 2669.3 2600.53 2669.82 2601.24 2670.11 2601.97 2670.11zM2609.92 2736.11H2636.28C2637.01 2736.11 2637.72 2735.82 2638.24 2735.3 2638.76 2734.78 2639.06 2734.07 2639.06 2733.33 2639.06 2732.6 2638.76 2731.89 2638.24 2731.37 2637.72 2730.85 2637.01 2730.56 2636.28 2730.56H2609.92C2609.18 2730.56 2608.47 2730.85 2607.95 2731.37 2607.43 2731.89 2607.14 2732.6 2607.14 2733.33 2607.14 2734.07 2607.43 2734.78 2607.95 2735.3 2608.47 2735.82 2609.18 2736.11 2609.92 2736.11zM2718.06 2725.5C2728.05 2726.57 2738.16 2725.7 2747.83 2722.94 2748.54 2722.75 2749.15 2722.27 2749.51 2721.63 2749.87 2720.99 2749.96 2720.22 2749.76 2719.51 2749.56 2718.8 2749.09 2718.2 2748.45 2717.84 2747.81 2717.48 2747.04 2717.38 2746.33 2717.58 2737.15 2720.18 2727.55 2720.99 2718.06 2719.94 2717.32 2719.94 2716.61 2720.24 2716.09 2720.76 2715.57 2721.28 2715.28 2721.99 2715.28 2722.72 2715.28 2723.46 2715.57 2724.17 2716.09 2724.69 2716.61 2725.21 2717.32 2725.5 2718.06 2725.5zM2686.39 2688.67H2707.5C2708.24 2688.67 2708.94 2688.37 2709.46 2687.85 2709.99 2687.33 2710.28 2686.63 2710.28 2685.89 2710.28 2685.15 2709.99 2684.45 2709.46 2683.92 2708.94 2683.4 2708.24 2683.11 2707.5 2683.11H2686.39C2685.65 2683.11 2684.95 2683.4 2684.42 2683.92 2683.9 2684.45 2683.61 2685.15 2683.61 2685.89 2683.61 2686.63 2683.9 2687.33 2684.42 2687.85 2684.95 2688.37 2685.65 2688.67 2686.39 2688.67zM2649.47 2704.5H2660.03C2660.76 2704.5 2661.47 2704.21 2661.99 2703.69 2662.51 2703.17 2662.81 2702.46 2662.81 2701.72 2662.81 2700.99 2662.51 2700.28 2661.99 2699.76 2661.47 2699.24 2660.76 2698.94 2660.03 2698.94H2649.47C2648.74 2698.94 2648.03 2699.24 2647.51 2699.76 2646.99 2700.28 2646.69 2700.99 2646.69 2701.72 2646.69 2702.46 2646.99 2703.17 2647.51 2703.69 2648.03 2704.21 2648.74 2704.5 2649.47 2704.5zM2668.67 2646.25L2687.11 2643.47C2687.46 2643.38 2687.79 2643.21 2688.08 2642.99 2688.37 2642.76 2688.61 2642.48 2688.79 2642.17 2688.97 2641.85 2689.09 2641.5 2689.13 2641.14 2689.18 2640.78 2689.15 2640.41 2689.06 2640.06 2688.96 2639.7 2688.79 2639.37 2688.57 2639.09 2688.35 2638.8 2688.07 2638.56 2687.75 2638.38 2687.43 2638.19 2687.08 2638.08 2686.72 2638.03 2686.36 2637.99 2685.99 2638.01 2685.64 2638.11L2667.17 2640.89C2666.81 2640.99 2666.48 2641.15 2666.2 2641.37 2665.91 2641.6 2665.67 2641.88 2665.49 2642.19 2665.31 2642.51 2665.19 2642.86 2665.14 2643.22 2665.1 2643.59 2665.13 2643.95 2665.22 2644.31 2665.32 2644.66 2665.48 2644.99 2665.71 2645.28 2665.94 2645.57 2666.22 2645.82 2666.54 2646 2666.86 2646.18 2667.21 2646.29 2667.58 2646.34 2667.94 2646.38 2668.31 2646.35 2668.67 2646.25zM2372.53 2717.67C2388.65 2718.42 2404.8 2717.49 2420.72 2714.89 2424.25 2714.33 2422.75 2708.97 2419.25 2709.56 2403.81 2712.1 2388.16 2713.03 2372.53 2712.33 2368.94 2712.17 2368.97 2717.72 2372.53 2717.89V2717.67zM2422.61 2667.31L2451.61 2664.53C2452.35 2664.53 2453.05 2664.24 2453.58 2663.71 2454.1 2663.19 2454.39 2662.49 2454.39 2661.75 2454.39 2661.01 2454.1 2660.31 2453.58 2659.79 2453.05 2659.27 2452.35 2658.97 2451.61 2658.97L2422.61 2661.75C2421.87 2661.75 2421.17 2662.04 2420.65 2662.56 2420.13 2663.09 2419.83 2663.79 2419.83 2664.53 2419.83 2665.26 2420.13 2665.97 2420.65 2666.49 2421.17 2667.01 2421.87 2667.31 2422.61 2667.31zM2541.44 2636.92L2617.81 2627.78C2621.31 2627.36 2621.36 2621.81 2617.81 2622.22L2541.44 2631.31C2537.94 2631.72 2537.89 2637.28 2541.44 2636.86V2636.92zM2120.31 1854.33H2151.08C2151.82 1854.33 2152.53 1854.04 2153.05 1853.52 2153.57 1853 2153.86 1852.29 2153.86 1851.56 2153.86 1850.82 2153.57 1850.11 2153.05 1849.59 2152.53 1849.07 2151.82 1848.78 2151.08 1848.78H2120.31C2119.57 1848.78 2118.86 1849.07 2118.34 1849.59 2117.82 1850.11 2117.53 1850.82 2117.53 1851.56 2117.53 1852.29 2117.82 1853 2118.34 1853.52 2118.86 1854.04 2119.57 1854.33 2120.31 1854.33zM2156.67 1829.14H2201.42C2202.15 1829.14 2202.86 1828.85 2203.38 1828.32 2203.9 1827.8 2204.19 1827.1 2204.19 1826.36 2204.19 1825.62 2203.9 1824.92 2203.38 1824.4 2202.86 1823.88 2202.15 1823.58 2201.42 1823.58H2156.67C2155.93 1823.58 2155.22 1823.88 2154.7 1824.4 2154.18 1824.92 2153.89 1825.62 2153.89 1826.36 2153.89 1827.1 2154.18 1827.8 2154.7 1828.32 2155.22 1828.85 2155.93 1829.14 2156.67 1829.14zM2207.03 1859.92H2223.69C2224.43 1859.92 2225.14 1859.62 2225.66 1859.1 2226.18 1858.58 2226.47 1857.88 2226.47 1857.14 2226.47 1856.4 2226.18 1855.7 2225.66 1855.17 2225.14 1854.65 2224.43 1854.36 2223.69 1854.36H2207.03C2206.29 1854.36 2205.58 1854.65 2205.06 1855.17 2204.54 1855.7 2204.25 1856.4 2204.25 1857.14 2204.25 1857.88 2204.54 1858.58 2205.06 1859.1 2205.58 1859.62 2206.29 1859.92 2207.03 1859.92zM2282.56 1845.94H2299.22C2299.96 1845.94 2300.67 1845.65 2301.19 1845.13 2301.71 1844.61 2302 1843.9 2302 1843.17 2302 1842.43 2301.71 1841.72 2301.19 1841.2 2300.67 1840.68 2299.96 1840.39 2299.22 1840.39H2282.56C2281.82 1840.39 2281.11 1840.68 2280.59 1841.2 2280.07 1841.72 2279.78 1842.43 2279.78 1843.17 2279.78 1843.9 2280.07 1844.61 2280.59 1845.13 2281.11 1845.65 2281.82 1845.94 2282.56 1845.94zM2276.97 1815.17C2277.71 1815.17 2278.42 1814.87 2278.94 1814.35 2279.46 1813.83 2279.75 1813.13 2279.75 1812.39 2279.75 1811.65 2279.46 1810.95 2278.94 1810.42 2278.42 1809.9 2277.71 1809.61 2276.97 1809.61 2276.24 1809.61 2275.53 1809.9 2275.01 1810.42 2274.49 1810.95 2274.19 1811.65 2274.19 1812.39 2274.19 1813.13 2274.49 1813.83 2275.01 1814.35 2275.53 1814.87 2276.24 1815.17 2276.97 1815.17zM2227.78 1814.17L2236.44 1809C2237.05 1808.62 2237.48 1808.01 2237.65 1807.32 2237.82 1806.62 2237.72 1805.89 2237.36 1805.27 2237 1804.65 2236.42 1804.19 2235.73 1803.99 2235.04 1803.79 2234.3 1803.86 2233.67 1804.19L2225 1809.36C2224.4 1809.75 2223.96 1810.35 2223.79 1811.04 2223.62 1811.74 2223.73 1812.48 2224.09 1813.1 2224.44 1813.72 2225.03 1814.17 2225.72 1814.37 2226.4 1814.57 2227.14 1814.5 2227.78 1814.17zM2120.31 1787.69L2223.81 1784C2227.36 1784 2227.39 1778.44 2223.81 1778.44L2120.31 1782.14C2116.75 1782.14 2116.72 1787.69 2120.31 1787.69zM2101.44 1820.64L2123.67 1817.44C2124.02 1817.35 2124.35 1817.18 2124.64 1816.96 2124.93 1816.73 2125.17 1816.46 2125.35 1816.14 2125.53 1815.82 2125.64 1815.47 2125.69 1815.11 2125.73 1814.75 2125.71 1814.38 2125.61 1814.03 2125.51 1813.68 2125.35 1813.35 2125.13 1813.06 2124.9 1812.77 2124.62 1812.53 2124.31 1812.35 2123.99 1812.17 2123.64 1812.05 2123.28 1812 2122.91 1811.96 2122.55 1811.99 2122.19 1812.08L2099.97 1815.31C2099.62 1815.4 2099.29 1815.57 2099 1815.79 2098.71 1816.01 2098.47 1816.29 2098.29 1816.61 2098.11 1816.93 2097.99 1817.28 2097.95 1817.64 2097.9 1818 2097.93 1818.37 2098.03 1818.72 2098.23 1819.43 2098.7 1820.03 2099.34 1820.39 2099.98 1820.74 2100.74 1820.84 2101.44 1820.64zM2243.39 1759.19H2271.36C2272.1 1759.19 2272.8 1758.9 2273.33 1758.38 2273.85 1757.86 2274.14 1757.15 2274.14 1756.42 2274.14 1755.68 2273.85 1754.97 2273.33 1754.45 2272.8 1753.93 2272.1 1753.64 2271.36 1753.64H2243.39C2242.65 1753.64 2241.95 1753.93 2241.42 1754.45 2240.9 1754.97 2240.61 1755.68 2240.61 1756.42 2240.61 1757.15 2240.9 1757.86 2241.42 1758.38 2241.95 1758.9 2242.65 1759.19 2243.39 1759.19zM2167.86 1750.81H2198.64C2199.38 1750.81 2200.08 1750.51 2200.6 1749.99 2201.12 1749.47 2201.42 1748.76 2201.42 1748.03 2201.42 1747.29 2201.12 1746.58 2200.6 1746.06 2200.08 1745.54 2199.38 1745.25 2198.64 1745.25H2167.86C2167.12 1745.25 2166.42 1745.54 2165.9 1746.06 2165.38 1746.58 2165.08 1747.29 2165.08 1748.03 2165.08 1748.76 2165.38 1749.47 2165.9 1749.99 2166.42 1750.51 2167.12 1750.81 2167.86 1750.81zM2325.22 1744.83L2344.67 1741.89C2345.02 1741.79 2345.35 1741.63 2345.64 1741.4 2345.93 1741.18 2346.17 1740.9 2346.35 1740.58 2346.53 1740.27 2346.64 1739.92 2346.69 1739.55 2346.73 1739.19 2346.71 1738.82 2346.61 1738.47 2346.51 1738.12 2346.35 1737.79 2346.13 1737.5 2345.9 1737.21 2345.62 1736.97 2345.31 1736.79 2344.99 1736.61 2344.64 1736.49 2344.28 1736.45 2343.91 1736.4 2343.55 1736.43 2343.19 1736.53L2323.75 1739.47C2323.4 1739.57 2323.07 1739.73 2322.78 1739.96 2322.49 1740.18 2322.25 1740.46 2322.07 1740.78 2321.89 1741.09 2321.77 1741.44 2321.73 1741.81 2321.68 1742.17 2321.71 1742.54 2321.81 1742.89 2321.9 1743.24 2322.07 1743.57 2322.29 1743.86 2322.51 1744.15 2322.79 1744.39 2323.11 1744.57 2323.43 1744.75 2323.78 1744.87 2324.14 1744.91 2324.5 1744.96 2324.87 1744.93 2325.22 1744.83zM2330.11 1792.78H2352.5C2353.24 1792.78 2353.94 1792.49 2354.46 1791.96 2354.99 1791.44 2355.28 1790.74 2355.28 1790 2355.28 1789.26 2354.99 1788.56 2354.46 1788.04 2353.94 1787.52 2353.24 1787.22 2352.5 1787.22H2330.11C2329.37 1787.22 2328.67 1787.52 2328.15 1788.04 2327.63 1788.56 2327.33 1789.26 2327.33 1790 2327.33 1790.74 2327.63 1791.44 2328.15 1791.96 2328.67 1792.49 2329.37 1792.78 2330.11 1792.78zM2363.69 1840.19C2377.06 1841.48 2390.54 1840.63 2403.64 1837.67 2407.14 1836.86 2405.67 1831.5 2402.17 1832.31 2389.55 1835.14 2376.56 1835.92 2363.69 1834.64 2360.14 1834.31 2360.17 1839.86 2363.69 1840.19zM2401.61 1803.25C2404.14 1804.39 2406.96 1804.74 2409.69 1804.25 2412.24 1803.81 2414.59 1802.61 2416.44 1800.81 2416.9 1800.27 2417.14 1799.59 2417.11 1798.89 2417.08 1798.19 2416.79 1797.53 2416.3 1797.03 2415.8 1796.54 2415.14 1796.25 2414.44 1796.22 2413.74 1796.2 2413.06 1796.43 2412.53 1796.89L2412.03 1797.33C2411.64 1797.6 2411.23 1797.84 2410.81 1798.06H2410.5C2410.17 1798.22 2410.5 1798.06 2410.69 1798.06L2409.97 1798.31 2408.58 1798.67H2408.25C2408.25 1798.67 2408.89 1798.67 2408.5 1798.67H2407.81C2407.33 1798.69 2406.86 1798.69 2406.39 1798.67 2406.17 1798.67 2405.81 1798.5 2406.39 1798.67H2406.06L2405.39 1798.5 2404.67 1798.31 2404.36 1798.17C2405 1798.47 2404.03 1798.17 2404.36 1798.17 2403.7 1797.83 2402.95 1797.73 2402.22 1797.89 2401.53 1798.1 2400.94 1798.56 2400.56 1799.17 2400.37 1799.48 2400.25 1799.83 2400.2 1800.19 2400.15 1800.55 2400.17 1800.92 2400.27 1801.28 2400.36 1801.63 2400.52 1801.96 2400.74 1802.25 2400.96 1802.54 2401.24 1802.79 2401.56 1802.97L2401.61 1803.25zM2388.89 1753.61H2394.44C2395.17 1753.61 2395.87 1753.32 2396.39 1752.81 2396.65 1752.55 2396.86 1752.24 2397 1751.9 2397.15 1751.56 2397.22 1751.2 2397.22 1750.83 2397.22 1750.1 2396.93 1749.39 2396.41 1748.87 2395.89 1748.35 2395.18 1748.06 2394.44 1748.06H2388.89C2388.16 1748.06 2387.46 1748.35 2386.94 1748.86 2386.68 1749.12 2386.47 1749.43 2386.33 1749.76 2386.19 1750.1 2386.11 1750.47 2386.11 1750.83 2386.11 1751.57 2386.4 1752.28 2386.92 1752.8 2387.45 1753.32 2388.15 1753.61 2388.89 1753.61zM2243.39 1901.78L2274.14 1898.75C2274.88 1898.75 2275.58 1898.46 2276.1 1897.94 2276.62 1897.42 2276.92 1896.71 2276.92 1895.97 2276.92 1895.24 2276.62 1894.53 2276.1 1894.01 2275.58 1893.49 2274.88 1893.19 2274.14 1893.19L2243.39 1896.22C2242.65 1896.22 2241.95 1896.51 2241.42 1897.04 2240.9 1897.56 2240.61 1898.26 2240.61 1899 2240.61 1899.74 2240.9 1900.44 2241.42 1900.96 2241.95 1901.49 2242.65 1901.78 2243.39 1901.78zM2187.44 1915.86H2198.56C2199.29 1915.86 2200 1915.57 2200.52 1915.05 2201.04 1914.53 2201.33 1913.82 2201.33 1913.08 2201.33 1912.35 2201.04 1911.64 2200.52 1911.12 2200 1910.6 2199.29 1910.31 2198.56 1910.31H2187.44C2186.71 1910.31 2186 1910.6 2185.48 1911.12 2184.96 1911.64 2184.67 1912.35 2184.67 1913.08 2184.67 1913.82 2184.96 1914.53 2185.48 1915.05 2186 1915.57 2186.71 1915.86 2187.44 1915.86zM2121.03 1904.44L2140.47 1901.67C2141.18 1901.47 2141.79 1901 2142.15 1900.35 2142.51 1899.71 2142.6 1898.95 2142.4 1898.24 2142.2 1897.53 2141.73 1896.92 2141.09 1896.56 2140.44 1896.2 2139.68 1896.11 2138.97 1896.31L2119.39 1899.08C2118.68 1899.28 2118.08 1899.76 2117.71 1900.4 2117.35 1901.04 2117.26 1901.8 2117.46 1902.51 2117.66 1903.23 2118.13 1903.83 2118.77 1904.19 2119.42 1904.55 2120.18 1904.64 2120.89 1904.44H2121.03zM2123.08 1983.03H2139.89C2140.63 1983.03 2141.33 1982.74 2141.85 1982.21 2142.37 1981.69 2142.67 1980.99 2142.67 1980.25 2142.67 1979.51 2142.37 1978.81 2141.85 1978.29 2141.33 1977.77 2140.63 1977.47 2139.89 1977.47H2123.08C2122.35 1977.47 2121.64 1977.77 2121.12 1978.29 2120.6 1978.81 2120.31 1979.51 2120.31 1980.25 2120.31 1980.99 2120.6 1981.69 2121.12 1982.21 2121.64 1982.74 2122.35 1983.03 2123.08 1983.03zM1351.11 1123.25C1406.91 1069.03 1474.06 1027.89 1547.69 1002.78 1582.89 990.806 1620.75 980.556 1658.08 979.334 1689.06 978.25 1730.67 986 1742.53 1019.28 1751.17 1043.42 1743.17 1083.17 1711.97 1084.39L1714.75 1086.44C1701.11 1041.36 1725.86 996 1753.64 961.778 1781.64 927.664 1813.89 897.278 1849.61 871.362 1885.13 845.258 1923.69 823.563 1964.44 806.75 2004.19 790.417 2054.44 772.278 2095.94 792.862 2126.22 807.945 2146.42 860.362 2113.58 883.5L2117.64 885.167C2098.42 820.862 2147.17 758.612 2187.83 714.223 2230.1 668.172 2279.32 629.022 2333.69 598.195 2364.3 580.836 2396.39 566.241 2429.58 554.584 2432.92 553.417 2431.47 548.056 2428.08 549.223 2336.96 581.293 2254.87 634.763 2188.69 705.139 2166.47 728.834 2145.14 754.25 2129.42 782.917 2112.06 814.473 2101.64 851.195 2112.31 886.723 2112.42 887.134 2112.62 887.514 2112.91 887.833 2113.19 888.153 2113.54 888.403 2113.94 888.564 2114.33 888.725 2114.76 888.793 2115.18 888.763 2115.61 888.733 2116.02 888.605 2116.39 888.389 2145.31 868 2138.11 825.473 2117 802.084 2086.14 767.834 2031.69 777.084 1993.11 790.056 1902.96 820.804 1822.45 874.638 1759.58 946.195 1726.25 983.973 1693.58 1035.56 1709.42 1087.86 1709.58 1088.46 1709.95 1088.99 1710.45 1089.36 1710.96 1089.72 1711.57 1089.91 1712.19 1089.89 1739.97 1088.81 1753.14 1060.28 1751.69 1035.53 1751.18 1022.37 1746.23 1009.77 1737.64 999.778 1725.94 986.806 1708.69 979.306 1691.81 976.056 1653.17 968.584 1611.69 978.334 1574.5 988.695 1488.99 1012.56 1410.84 1057.52 1347.22 1119.44 1344.67 1121.94 1348.58 1125.89 1351.14 1123.39L1351.11 1123.25zM445.778 2073.28C432.306 2066.86 422.278 2052.83 423.556 2037.56 424.695 2023.11 435.333 2010.86 448.028 2004.81 451.081 2003.37 454.286 2002.29 457.583 2001.58 460.892 2001 464.301 2001.53 467.278 2003.08 473.883 2005.86 479.634 2010.33 483.945 2016.06 488.164 2021.37 490.93 2027.69 491.972 2034.39 493.014 2041.1 492.297 2047.96 489.889 2054.31 482.722 2071.39 463.417 2080.97 445.945 2073.28 442.695 2071.83 439.889 2076.64 443.167 2078.06 451.409 2081.72 460.681 2082.37 469.353 2079.88 478.025 2077.39 485.542 2071.93 490.583 2064.44 495.139 2057.76 497.716 2049.92 498.021 2041.83 498.325 2033.74 496.345 2025.73 492.306 2018.72 488.443 2011.73 482.919 2005.8 476.222 2001.44 472.827 1999.3 469.154 1997.62 465.306 1996.47 461.382 1995.38 457.214 1995.54 453.389 1996.94 445.373 1999.19 438.054 2003.42 432.11 2009.25 426.166 2015.07 421.79 2022.31 419.389 2030.28 414.139 2049.72 425.5 2069.78 443.167 2078.17 446.195 2079.58 449 2074.81 445.778 2073.28zM1741.17 585.084C1731.61 580.5 1724.5 570.723 1725.19 559.861 1725.89 549.695 1733.28 541.028 1742.11 536.584 1744.35 535.45 1746.72 534.601 1749.17 534.056 1751.34 533.554 1753.61 533.819 1755.61 534.806 1760.27 536.673 1764.37 539.716 1767.5 543.639 1770.69 547.429 1772.81 551.997 1773.66 556.876 1774.51 561.755 1774.05 566.773 1772.33 571.417 1767.36 583.639 1753.58 590.584 1741.17 585.167 1737.92 583.723 1735.08 588.528 1738.39 589.945 1744.64 592.739 1751.69 593.217 1758.26 591.293 1764.84 589.369 1770.52 585.17 1774.28 579.445 1777.65 574.353 1779.51 568.412 1779.65 562.307 1779.79 556.202 1778.19 550.183 1775.06 544.945 1772.08 539.784 1767.88 535.434 1762.83 532.278 1760.33 530.752 1757.63 529.575 1754.81 528.778 1751.66 528.017 1748.35 528.24 1745.33 529.417 1739.44 531.179 1734.08 534.39 1729.75 538.757 1725.41 543.125 1722.24 548.509 1720.53 554.417 1716.86 568.861 1725.28 583.667 1738.39 589.945 1741.67 591.417 1744.44 586.611 1741.17 585.084zM2027.47 1529.42C2022.62 1527.27 2018.51 1523.72 2015.67 1519.24 2012.82 1514.76 2011.37 1509.53 2011.5 1504.22 2012.19 1494.06 2019.58 1485.39 2028.39 1480.94 2030.64 1479.82 2033.02 1478.97 2035.47 1478.42 2037.64 1477.91 2039.92 1478.18 2041.92 1479.17 2046.58 1481.02 2050.68 1484.07 2053.81 1488 2056.99 1491.79 2059.12 1496.36 2059.97 1501.24 2060.82 1506.12 2060.36 1511.13 2058.64 1515.78 2053.67 1528 2039.89 1534.94 2027.47 1529.5 2024.22 1528.08 2021.39 1532.89 2024.69 1534.31 2030.95 1537.09 2037.99 1537.57 2044.57 1535.65 2051.14 1533.72 2056.82 1529.53 2060.58 1523.81 2063.96 1518.71 2065.82 1512.77 2065.95 1506.66 2066.08 1500.56 2064.48 1494.54 2061.33 1489.31 2058.39 1484.13 2054.19 1479.78 2049.14 1476.64 2046.64 1475.1 2043.93 1473.92 2041.11 1473.11 2037.96 1472.37 2034.66 1472.6 2031.64 1473.78 2025.74 1475.54 2020.39 1478.75 2016.05 1483.12 2011.72 1487.49 2008.55 1492.87 2006.83 1498.78 2003.17 1513.22 2011.58 1528.03 2024.69 1534.31 2027.78 1535.75 2030.69 1530.97 2027.47 1529.42zM2331.94 1022.72C2318.47 1016.31 2308.44 1002.28 2309.72 987 2310.89 972.555 2321.53 960.305 2334.22 954.25 2337.27 952.817 2340.46 951.736 2343.75 951.028 2347.06 950.442 2350.47 950.97 2353.44 952.528 2360.05 955.293 2365.81 959.771 2370.11 965.5 2378.28 976.278 2381.42 991 2376.06 1003.75 2368.89 1020.83 2349.58 1030.42 2332.14 1022.72 2328.89 1021.28 2326.06 1026.08 2329.36 1027.5 2337.6 1031.17 2346.87 1031.81 2355.53 1029.32 2364.2 1026.83 2371.71 1021.37 2376.75 1013.89 2381.31 1007.2 2383.88 999.362 2384.19 991.275 2384.49 983.188 2382.51 975.179 2378.47 968.166 2374.62 961.169 2369.09 955.234 2362.39 950.889 2359 948.736 2355.32 947.063 2351.47 945.916 2347.55 944.822 2343.38 944.987 2339.56 946.389 2331.54 948.636 2324.22 952.869 2318.28 958.696 2312.34 964.523 2307.96 971.754 2305.56 979.722 2300.33 999.167 2311.69 1019.22 2329.36 1027.61 2332.33 1029.06 2335.17 1024.25 2331.94 1022.72zM1512.19 1413.06C1509.42 1411.89 1507.15 1409.77 1505.8 1407.08 1504.45 1404.39 1504.11 1401.31 1504.83 1398.39 1505.81 1395.62 1507.55 1393.17 1509.85 1391.34 1512.14 1389.51 1514.91 1388.36 1517.83 1388.03H1516.36C1519.7 1388.75 1522.67 1390.62 1524.76 1393.32 1526.85 1396.02 1527.92 1399.37 1527.78 1402.78 1527.44 1410.28 1519.44 1416.36 1512.25 1413.19 1511.93 1413.01 1511.59 1412.89 1511.22 1412.84 1510.86 1412.79 1510.49 1412.81 1510.14 1412.9 1509.79 1413 1509.45 1413.16 1509.16 1413.38 1508.87 1413.6 1508.63 1413.88 1508.44 1414.19 1508.26 1414.51 1508.14 1414.86 1508.09 1415.22 1508.04 1415.58 1508.06 1415.95 1508.15 1416.3 1508.25 1416.66 1508.41 1416.99 1508.63 1417.28 1508.85 1417.57 1509.13 1417.82 1509.44 1418 1513.29 1419.85 1517.72 1420.1 1521.75 1418.69 1524.24 1417.75 1526.48 1416.26 1528.33 1414.34 1530.18 1412.43 1531.58 1410.12 1532.43 1407.6 1533.28 1405.08 1533.57 1402.41 1533.27 1399.76 1532.97 1397.12 1532.09 1394.57 1530.69 1392.31 1529.01 1389.36 1526.61 1386.89 1523.72 1385.11 1522.3 1384.25 1520.77 1383.58 1519.17 1383.11 1517.27 1382.65 1515.27 1382.77 1513.44 1383.47 1510.1 1384.47 1507.05 1386.3 1504.59 1388.77 1502.13 1391.25 1500.33 1394.31 1499.36 1397.67 1498.48 1401.7 1499 1405.91 1500.83 1409.61 1502.66 1413.3 1505.7 1416.26 1509.44 1418 1509.76 1418.18 1510.11 1418.31 1510.47 1418.36 1510.83 1418.41 1511.2 1418.38 1511.55 1418.29 1511.91 1418.2 1512.24 1418.04 1512.53 1417.81 1512.82 1417.59 1513.07 1417.32 1513.25 1417 1513.46 1416.68 1513.59 1416.31 1513.65 1415.93 1513.71 1415.55 1513.69 1415.17 1513.59 1414.8 1513.49 1414.43 1513.31 1414.08 1513.07 1413.78 1512.83 1413.48 1512.53 1413.23 1512.19 1413.06z" class="color000000 svgShape"></path></svg>