<svg xmlns="http://www.w3.org/2000/svg" enable-background="new 0 0 1364 960" viewBox="0 0 1364 960" id="JoinUS"><path fill="#dbdbdb" d="M1146.166,282.323H283.428c-33.963,0-60.418,29.465-56.775,63.231l36.45,337.752
	c3.129,28.998,27.608,50.977,56.774,50.977h119.916l9.42,112.813l112.813-112.813h547.689c29.167,0,53.646-21.979,56.775-50.977
	l36.449-337.752C1206.584,311.787,1180.128,282.323,1146.166,282.323z" class="colordbdbdb svgShape"></path><circle cx="1124.623" cy="765.093" r="98.105" fill="#9eceff" transform="rotate(-45.001 1124.62 765.11)" class="colorffec9e svgShape"></circle><path d="M1185.696,895.402c-55.14,0-99.999-44.859-99.999-99.998c0-55.139,44.859-99.998,99.999-99.998
	c55.139,0,99.998,44.859,99.998,99.998C1285.694,850.543,1240.835,895.402,1185.696,895.402z M1185.696,704.607
	c-50.065,0-90.797,40.731-90.797,90.797c0,50.065,40.732,90.797,90.797,90.797c50.065,0,90.796-40.731,90.796-90.797
	C1276.492,745.338,1235.761,704.607,1185.696,704.607z" fill="#021b79" class="color000000 svgShape"></path><path fill="#0575e6" d="M170.827 132.5c0 5.634-4.563 10.196-10.184 10.196-5.633 0-10.196-4.562-10.196-10.196 0-.391.026-.769.063-1.147 4.94-2.76 10.007-5.331 15.162-7.713C168.749 125.392 170.827 128.706 170.827 132.5zM191.22 132.503c0-5.63 4.564-10.194 10.194-10.194 5.63 0 10.194 4.564 10.194 10.194 0 5.63-4.564 10.194-10.194 10.194C195.785 142.697 191.22 138.132 191.22 132.503zM231.996 132.503c0-5.63 4.564-10.194 10.194-10.194 5.63 0 10.194 4.564 10.194 10.194 0 5.63-4.564 10.194-10.194 10.194C236.56 142.697 231.996 138.132 231.996 132.503z" class="colorc9c1fe svgShape"></path><circle cx="119.863" cy="176.214" r="10.194" fill="#0575e6" transform="rotate(-13.286 119.833 176.18)" class="colorc9c1fe svgShape"></circle><path fill="#0575e6" d="M150.445 176.214c0-5.63 4.564-10.194 10.194-10.194 5.63 0 10.194 4.564 10.194 10.194 0 5.63-4.564 10.194-10.194 10.194C155.009 186.408 150.445 181.844 150.445 176.214zM191.22 176.214c0-5.63 4.564-10.194 10.194-10.194 5.63 0 10.194 4.564 10.194 10.194 0 5.63-4.564 10.194-10.194 10.194C195.785 186.408 191.22 181.844 191.22 176.214zM231.996 176.214c0-5.63 4.564-10.194 10.194-10.194 5.63 0 10.194 4.564 10.194 10.194 0 5.63-4.564 10.194-10.194 10.194C236.56 186.408 231.996 181.844 231.996 176.214zM68.894 219.925c0-5.63 4.564-10.194 10.194-10.194s10.194 4.564 10.194 10.194c0 5.63-4.564 10.194-10.194 10.194S68.894 225.555 68.894 219.925z" class="colorc9c1fe svgShape"></path><circle cx="119.863" cy="219.925" r="10.194" fill="#0575e6" transform="rotate(-45.001 119.861 219.927)" class="colorc9c1fe svgShape"></circle><path fill="#0575e6" d="M150.445 219.925c0-5.63 4.564-10.194 10.194-10.194 5.63 0 10.194 4.564 10.194 10.194 0 5.63-4.564 10.194-10.194 10.194C155.009 230.119 150.445 225.555 150.445 219.925zM191.22 219.925c0-5.63 4.564-10.194 10.194-10.194 5.63 0 10.194 4.564 10.194 10.194 0 5.63-4.564 10.194-10.194 10.194C195.785 230.119 191.22 225.555 191.22 219.925zM231.996 219.925c0-5.63 4.564-10.194 10.194-10.194 5.63 0 10.194 4.564 10.194 10.194 0 5.63-4.564 10.194-10.194 10.194C236.56 230.119 231.996 225.555 231.996 219.925zM48.5 263.638c0 4.865-3.403 8.923-7.94 9.944 1.487-5.76 3.188-11.431 5.104-17.002C47.428 258.407 48.5 260.903 48.5 263.638zM68.894 263.636c0-5.63 4.564-10.194 10.194-10.194s10.194 4.564 10.194 10.194c0 5.63-4.564 10.194-10.194 10.194S68.894 269.266 68.894 263.636z" class="colorc9c1fe svgShape"></path><circle cx="119.863" cy="263.636" r="10.194" fill="#0575e6" transform="rotate(-82.981 119.866 263.639)" class="colorc9c1fe svgShape"></circle><path fill="#0575e6" d="M150.445 263.636c0-5.63 4.564-10.194 10.194-10.194 5.63 0 10.194 4.564 10.194 10.194 0 5.63-4.564 10.194-10.194 10.194C155.009 273.83 150.445 269.266 150.445 263.636zM191.22 263.636c0-5.63 4.564-10.194 10.194-10.194 5.63 0 10.194 4.564 10.194 10.194 0 5.63-4.564 10.194-10.194 10.194C195.785 273.83 191.22 269.266 191.22 263.636zM231.996 263.636c0-5.63 4.564-10.194 10.194-10.194 5.63 0 10.194 4.564 10.194 10.194 0 5.63-4.564 10.194-10.194 10.194C236.56 273.83 231.996 269.266 231.996 263.636zM48.5 307.346c0 5.634-4.563 10.196-10.184 10.196-1.614 0-3.151-.378-4.5-1.046.391-6.415 1.046-12.767 1.953-19.031.82-.202 1.664-.315 2.547-.315C43.937 297.15 48.5 301.712 48.5 307.346zM68.894 307.347c0-5.63 4.564-10.194 10.194-10.194s10.194 4.564 10.194 10.194c0 5.63-4.564 10.194-10.194 10.194S68.894 312.977 68.894 307.347zM109.669 307.347c0-5.63 4.564-10.194 10.194-10.194s10.194 4.564 10.194 10.194c0 5.63-4.564 10.194-10.194 10.194S109.669 312.977 109.669 307.347zM150.445 307.347c0-5.63 4.564-10.194 10.194-10.194 5.63 0 10.194 4.564 10.194 10.194 0 5.63-4.564 10.194-10.194 10.194C155.009 317.541 150.445 312.977 150.445 307.347zM191.22 307.347c0-5.63 4.564-10.194 10.194-10.194 5.63 0 10.194 4.564 10.194 10.194 0 5.63-4.564 10.194-10.194 10.194C195.785 317.541 191.22 312.977 191.22 307.347zM231.996 307.347c0-5.63 4.564-10.194 10.194-10.194 5.63 0 10.194 4.564 10.194 10.194 0 5.63-4.564 10.194-10.194 10.194C236.56 317.541 231.996 312.977 231.996 307.347z" class="colorc9c1fe svgShape"></path><circle cx="280.29" cy="132.503" r="10.194" fill="#0575e6" class="colorc9c1fe svgShape"></circle><path fill="#0575e6" d="M310.871 132.503c0-5.63 4.564-10.194 10.194-10.194 5.63 0 10.194 4.564 10.194 10.194 0 5.63-4.564 10.194-10.194 10.194C315.435 142.697 310.871 138.132 310.871 132.503zM351.647 132.503c0-5.63 4.564-10.194 10.194-10.194 5.63 0 10.194 4.564 10.194 10.194 0 5.63-4.564 10.194-10.194 10.194C356.211 142.697 351.647 138.132 351.647 132.503z" class="colorc9c1fe svgShape"></path><circle cx="280.29" cy="176.214" r="10.194" fill="#0575e6" transform="rotate(-13.286 280.225 176.185)" class="colorc9c1fe svgShape"></circle><path fill="#0575e6" d="M310.871 176.214c0-5.63 4.564-10.194 10.194-10.194 5.63 0 10.194 4.564 10.194 10.194 0 5.63-4.564 10.194-10.194 10.194C315.435 186.408 310.871 181.844 310.871 176.214zM351.647 176.214c0-5.63 4.564-10.194 10.194-10.194 5.63 0 10.194 4.564 10.194 10.194 0 5.63-4.564 10.194-10.194 10.194C356.211 186.408 351.647 181.844 351.647 176.214zM392.422 176.214c0-5.63 4.564-10.194 10.194-10.194s10.194 4.564 10.194 10.194c0 5.63-4.564 10.194-10.194 10.194S392.422 181.844 392.422 176.214z" class="colorc9c1fe svgShape"></path><circle cx="280.29" cy="219.925" r="10.194" fill="#0575e6" transform="rotate(-45.001 280.289 219.93)" class="colorc9c1fe svgShape"></circle><path fill="#0575e6" d="M310.871 219.925c0-5.63 4.564-10.194 10.194-10.194 5.63 0 10.194 4.564 10.194 10.194 0 5.63-4.564 10.194-10.194 10.194C315.435 230.119 310.871 225.555 310.871 219.925zM351.647 219.925c0-5.63 4.564-10.194 10.194-10.194 5.63 0 10.194 4.564 10.194 10.194 0 5.63-4.564 10.194-10.194 10.194C356.211 230.119 351.647 225.555 351.647 219.925zM392.422 219.925c0-5.63 4.564-10.194 10.194-10.194s10.194 4.564 10.194 10.194c0 5.63-4.564 10.194-10.194 10.194S392.422 225.555 392.422 219.925z" class="colorc9c1fe svgShape"></path><circle cx="443.392" cy="219.925" r="10.194" fill="#0575e6" transform="rotate(-22.5 443.373 219.917)" class="colorc9c1fe svgShape"></circle><circle cx="280.29" cy="263.636" r="10.194" fill="#0575e6" transform="rotate(-82.981 280.295 263.638)" class="colorc9c1fe svgShape"></circle><path fill="#0575e6" d="M310.871 263.636c0-5.63 4.564-10.194 10.194-10.194 5.63 0 10.194 4.564 10.194 10.194 0 5.63-4.564 10.194-10.194 10.194C315.435 273.83 310.871 269.266 310.871 263.636zM351.647 263.636c0-5.63 4.564-10.194 10.194-10.194 5.63 0 10.194 4.564 10.194 10.194 0 5.63-4.564 10.194-10.194 10.194C356.211 273.83 351.647 269.266 351.647 263.636zM392.422 263.636c0-5.63 4.564-10.194 10.194-10.194s10.194 4.564 10.194 10.194c0 5.63-4.564 10.194-10.194 10.194S392.422 269.266 392.422 263.636z" class="colorc9c1fe svgShape"></path><circle cx="443.392" cy="263.636" r="10.194" fill="#0575e6" transform="rotate(-80.781 443.397 263.629)" class="colorc9c1fe svgShape"></circle><path fill="#0575e6" d="M481.916 273.582c-4.549-1.021-7.94-5.079-7.94-9.944 0-2.735 1.084-5.23 2.836-7.058C478.727 262.15 480.429 267.822 481.916 273.582zM270.096 307.347c0-5.63 4.564-10.194 10.194-10.194 5.63 0 10.194 4.564 10.194 10.194 0 5.63-4.564 10.194-10.194 10.194C274.66 317.541 270.096 312.977 270.096 307.347zM310.871 307.347c0-5.63 4.564-10.194 10.194-10.194 5.63 0 10.194 4.564 10.194 10.194 0 5.63-4.564 10.194-10.194 10.194C315.435 317.541 310.871 312.977 310.871 307.347zM351.647 307.347c0-5.63 4.564-10.194 10.194-10.194 5.63 0 10.194 4.564 10.194 10.194 0 5.63-4.564 10.194-10.194 10.194C356.211 317.541 351.647 312.977 351.647 307.347zM392.422 307.347c0-5.63 4.564-10.194 10.194-10.194s10.194 4.564 10.194 10.194c0 5.63-4.564 10.194-10.194 10.194S392.422 312.977 392.422 307.347zM433.198 307.347c0-5.63 4.564-10.194 10.194-10.194s10.194 4.564 10.194 10.194c0 5.63-4.564 10.194-10.194 10.194S433.198 312.977 433.198 307.347zM488.66 316.496c-1.349.668-2.874 1.046-4.488 1.046-5.633 0-10.196-4.562-10.196-10.196 0-5.634 4.563-10.196 10.196-10.196.87 0 1.727.113 2.533.315C487.613 303.729 488.268 310.081 488.66 316.496zM48.5 353.701c0 5.634-4.563 10.196-10.184 10.196-.882 0-1.727-.113-2.547-.315-.907-6.264-1.562-12.616-1.953-19.031 1.349-.668 2.886-1.046 4.5-1.046C43.937 343.505 48.5 348.068 48.5 353.701zM68.894 353.704c0-5.63 4.564-10.194 10.194-10.194s10.194 4.564 10.194 10.194c0 5.63-4.564 10.194-10.194 10.194S68.894 359.333 68.894 353.704z" class="colorc9c1fe svgShape"></path><circle cx="119.863" cy="353.704" r="10.194" fill="#0575e6" class="colorc9c1fe svgShape"></circle><path fill="#0575e6" d="M150.445 353.704c0-5.63 4.564-10.194 10.194-10.194 5.63 0 10.194 4.564 10.194 10.194 0 5.63-4.564 10.194-10.194 10.194C155.009 363.897 150.445 359.333 150.445 353.704zM191.22 353.704c0-5.63 4.564-10.194 10.194-10.194 5.63 0 10.194 4.564 10.194 10.194 0 5.63-4.564 10.194-10.194 10.194C195.785 363.897 191.22 359.333 191.22 353.704zM231.996 353.704c0-5.63 4.564-10.194 10.194-10.194 5.63 0 10.194 4.564 10.194 10.194 0 5.63-4.564 10.194-10.194 10.194C236.56 363.897 231.996 359.333 231.996 353.704zM48.5 397.41c0 2.735-1.072 5.23-2.836 7.058-1.916-5.558-3.617-11.23-5.104-16.977C45.097 388.499 48.5 392.557 48.5 397.41zM68.894 397.415c0-5.63 4.564-10.194 10.194-10.194s10.194 4.564 10.194 10.194c0 5.63-4.564 10.194-10.194 10.194S68.894 403.045 68.894 397.415z" class="colorc9c1fe svgShape"></path><circle cx="119.863" cy="397.415" r="10.194" fill="#0575e6" class="colorc9c1fe svgShape"></circle><path fill="#0575e6" d="M150.445 397.415c0-5.63 4.564-10.194 10.194-10.194 5.63 0 10.194 4.564 10.194 10.194 0 5.63-4.564 10.194-10.194 10.194C155.009 407.609 150.445 403.045 150.445 397.415zM191.22 397.415c0-5.63 4.564-10.194 10.194-10.194 5.63 0 10.194 4.564 10.194 10.194 0 5.63-4.564 10.194-10.194 10.194C195.785 407.609 191.22 403.045 191.22 397.415zM231.996 397.415c0-5.63 4.564-10.194 10.194-10.194 5.63 0 10.194 4.564 10.194 10.194 0 5.63-4.564 10.194-10.194 10.194C236.56 407.609 231.996 403.045 231.996 397.415zM68.894 441.126c0-5.63 4.564-10.194 10.194-10.194s10.194 4.564 10.194 10.194c0 5.63-4.564 10.194-10.194 10.194S68.894 446.756 68.894 441.126z" class="colorc9c1fe svgShape"></path><circle cx="119.863" cy="441.126" r="10.194" fill="#0575e6" class="colorc9c1fe svgShape"></circle><path fill="#0575e6" d="M150.445 441.126c0-5.63 4.564-10.194 10.194-10.194 5.63 0 10.194 4.564 10.194 10.194 0 5.63-4.564 10.194-10.194 10.194C155.009 451.32 150.445 446.756 150.445 441.126zM191.22 441.126c0-5.63 4.564-10.194 10.194-10.194 5.63 0 10.194 4.564 10.194 10.194 0 5.63-4.564 10.194-10.194 10.194C195.785 451.32 191.22 446.756 191.22 441.126zM231.996 441.126c0-5.63 4.564-10.194 10.194-10.194 5.63 0 10.194 4.564 10.194 10.194 0 5.63-4.564 10.194-10.194 10.194C236.56 451.32 231.996 446.756 231.996 441.126z" class="colorc9c1fe svgShape"></path><circle cx="119.863" cy="484.837" r="10.194" fill="#0575e6" transform="rotate(-45.001 119.858 484.84)" class="colorc9c1fe svgShape"></circle><path fill="#0575e6" d="M150.445 484.837c0-5.63 4.564-10.194 10.194-10.194 5.63 0 10.194 4.564 10.194 10.194 0 5.63-4.564 10.194-10.194 10.194C155.009 495.031 150.445 490.467 150.445 484.837zM191.22 484.837c0-5.63 4.564-10.194 10.194-10.194 5.63 0 10.194 4.564 10.194 10.194 0 5.63-4.564 10.194-10.194 10.194C195.785 495.031 191.22 490.467 191.22 484.837zM231.996 484.837c0-5.63 4.564-10.194 10.194-10.194 5.63 0 10.194 4.564 10.194 10.194 0 5.63-4.564 10.194-10.194 10.194C236.56 495.031 231.996 490.467 231.996 484.837zM170.827 528.547c0 3.806-2.079 7.108-5.154 8.86-5.155-2.382-10.222-4.953-15.162-7.713-.037-.378-.063-.756-.063-1.147 0-5.634 4.562-10.196 10.196-10.196C166.265 518.351 170.827 522.914 170.827 528.547zM191.22 528.548c0-5.63 4.564-10.194 10.194-10.194 5.63 0 10.194 4.564 10.194 10.194 0 5.63-4.564 10.194-10.194 10.194C195.785 538.742 191.22 534.178 191.22 528.548zM231.996 528.548c0-5.63 4.564-10.194 10.194-10.194 5.63 0 10.194 4.564 10.194 10.194 0 5.63-4.564 10.194-10.194 10.194C236.56 538.742 231.996 534.178 231.996 528.548z" class="colorc9c1fe svgShape"></path><circle cx="280.29" cy="353.704" r="10.194" fill="#0575e6" class="colorc9c1fe svgShape"></circle><path fill="#0575e6" d="M310.871 353.704c0-5.63 4.564-10.194 10.194-10.194 5.63 0 10.194 4.564 10.194 10.194 0 5.63-4.564 10.194-10.194 10.194C315.435 363.897 310.871 359.333 310.871 353.704zM351.647 353.704c0-5.63 4.564-10.194 10.194-10.194 5.63 0 10.194 4.564 10.194 10.194 0 5.63-4.564 10.194-10.194 10.194C356.211 363.897 351.647 359.333 351.647 353.704zM392.422 353.704c0-5.63 4.564-10.194 10.194-10.194s10.194 4.564 10.194 10.194c0 5.63-4.564 10.194-10.194 10.194S392.422 359.333 392.422 353.704z" class="colorc9c1fe svgShape"></path><circle cx="443.392" cy="353.704" r="10.194" fill="#0575e6" class="colorc9c1fe svgShape"></circle><path fill="#0575e6" d="M488.66,344.551c-0.391,6.415-1.046,12.767-1.955,19.031c-0.806,0.202-1.663,0.315-2.533,0.315
	c-5.633,0-10.196-4.562-10.196-10.196c0-5.634,4.563-10.196,10.196-10.196C485.786,343.505,487.311,343.883,488.66,344.551z" class="colorc9c1fe svgShape"></path><circle cx="280.29" cy="397.415" r="10.194" fill="#0575e6" class="colorc9c1fe svgShape"></circle><path fill="#0575e6" d="M310.871 397.415c0-5.63 4.564-10.194 10.194-10.194 5.63 0 10.194 4.564 10.194 10.194 0 5.63-4.564 10.194-10.194 10.194C315.435 407.609 310.871 403.045 310.871 397.415zM351.647 397.415c0-5.63 4.564-10.194 10.194-10.194 5.63 0 10.194 4.564 10.194 10.194 0 5.63-4.564 10.194-10.194 10.194C356.211 407.609 351.647 403.045 351.647 397.415zM392.422 397.415c0-5.63 4.564-10.194 10.194-10.194s10.194 4.564 10.194 10.194c0 5.63-4.564 10.194-10.194 10.194S392.422 403.045 392.422 397.415z" class="colorc9c1fe svgShape"></path><circle cx="443.392" cy="397.415" r="10.194" fill="#0575e6" class="colorc9c1fe svgShape"></circle><path fill="#0575e6" d="M481.916,387.491c-1.487,5.747-3.189,11.419-5.104,16.977c-1.752-1.828-2.836-4.323-2.836-7.058
	C473.976,392.557,477.367,388.499,481.916,387.491z" class="colorc9c1fe svgShape"></path><circle cx="280.29" cy="441.126" r="10.194" fill="#0575e6" class="colorc9c1fe svgShape"></circle><path fill="#0575e6" d="M310.871 441.126c0-5.63 4.564-10.194 10.194-10.194 5.63 0 10.194 4.564 10.194 10.194 0 5.63-4.564 10.194-10.194 10.194C315.435 451.32 310.871 446.756 310.871 441.126zM351.647 441.126c0-5.63 4.564-10.194 10.194-10.194 5.63 0 10.194 4.564 10.194 10.194 0 5.63-4.564 10.194-10.194 10.194C356.211 451.32 351.647 446.756 351.647 441.126zM392.422 441.126c0-5.63 4.564-10.194 10.194-10.194s10.194 4.564 10.194 10.194c0 5.63-4.564 10.194-10.194 10.194S392.422 446.756 392.422 441.126z" class="colorc9c1fe svgShape"></path><circle cx="443.392" cy="441.126" r="10.194" fill="#0575e6" class="colorc9c1fe svgShape"></circle><circle cx="280.29" cy="484.837" r="10.194" fill="#0575e6" transform="rotate(-45.001 280.285 484.842)" class="colorc9c1fe svgShape"></circle><path fill="#0575e6" d="M310.871 484.837c0-5.63 4.564-10.194 10.194-10.194 5.63 0 10.194 4.564 10.194 10.194 0 5.63-4.564 10.194-10.194 10.194C315.435 495.031 310.871 490.467 310.871 484.837zM351.647 484.837c0-5.63 4.564-10.194 10.194-10.194 5.63 0 10.194 4.564 10.194 10.194 0 5.63-4.564 10.194-10.194 10.194C356.211 495.031 351.647 490.467 351.647 484.837zM392.422 484.837c0-5.63 4.564-10.194 10.194-10.194s10.194 4.564 10.194 10.194c0 5.63-4.564 10.194-10.194 10.194S392.422 490.467 392.422 484.837z" class="colorc9c1fe svgShape"></path><circle cx="280.29" cy="528.548" r="10.194" fill="#0575e6" transform="rotate(-82.981 280.296 528.553)" class="colorc9c1fe svgShape"></circle><path fill="#0575e6" d="M310.871 528.548c0-5.63 4.564-10.194 10.194-10.194 5.63 0 10.194 4.564 10.194 10.194 0 5.63-4.564 10.194-10.194 10.194C315.435 538.742 310.871 534.178 310.871 528.548zM372.04 528.547c0 .391-.026.769-.063 1.147-4.954 2.76-10.008 5.331-15.174 7.713-3.076-1.752-5.155-5.054-5.155-8.86 0-5.634 4.561-10.196 10.196-10.196C367.466 518.351 372.04 522.914 372.04 528.547z" class="colorc9c1fe svgShape"></path><circle cx="340.295" cy="219.925" r="119.277" fill="#9eceff" class="colorffec9e svgShape"></circle><path d="M252.384,384.975c-81.355,0-147.542-66.187-147.542-147.542c0-81.355,66.187-147.542,147.542-147.542
	s147.542,66.187,147.542,147.542C399.926,318.788,333.739,384.975,252.384,384.975z M252.384,99.093
	c-76.281,0-138.34,62.059-138.34,138.34c0,76.281,62.06,138.34,138.34,138.34s138.34-62.059,138.34-138.34
	C390.724,161.152,328.664,99.093,252.384,99.093z" fill="#021b79" class="color000000 svgShape"></path><path fill="#6eb6ff" d="M1193.394 198.277c3.763-63.642 52.247-109.122 98.054-114.951 20.618-2.624 51.24 6.095 51.858 35.004C1344.53 175.6 1263.225 144.292 1193.394 198.277zM1137.984 166.971c-23.054-30.724-18.475-70.513.314-91.031 8.457-9.235 25.93-17.152 37.472-4.102C1198.635 97.69 1149.065 114.959 1137.984 166.971zM1221.62 257.398c26.799-27.517 66.819-29.132 89.99-13.733 10.429 6.931 20.947 22.974 9.834 36.391C1299.428 306.635 1274.719 260.322 1221.62 257.398z" class="colorff6ed1 svgShape"></path><path fill="#0575e6" d="M610.979 819.733c-1.299 0-2.599-.496-3.591-1.487l-25.287-25.286 25.715-25.714c1.984-1.982 5.198-1.982 7.182 0 1.984 1.984 1.984 5.2 0 7.183l-18.53 18.531 18.102 18.103c1.984 1.984 1.984 5.199 0 7.183C613.578 819.237 612.279 819.733 610.979 819.733zM647.09 819.733c-1.3 0-2.599-.496-3.591-1.487l-25.287-25.286 25.715-25.714c1.984-1.982 5.198-1.982 7.182 0 1.984 1.984 1.984 5.2 0 7.183l-18.53 18.531 18.102 18.103c1.984 1.984 1.984 5.199 0 7.183C649.689 819.237 648.39 819.733 647.09 819.733zM683.203 819.733c-1.3 0-2.599-.496-3.591-1.487l-25.289-25.286 25.715-25.714c1.984-1.982 5.198-1.982 7.182 0 1.984 1.984 1.984 5.2 0 7.183l-18.53 18.531 18.104 18.103c1.984 1.983 1.984 5.199 0 7.183C685.803 819.237 684.502 819.733 683.203 819.733zM719.314 819.733c-1.299 0-2.599-.496-3.591-1.487l-25.287-25.286 25.715-25.714c1.984-1.982 5.198-1.982 7.182 0 1.984 1.984 1.984 5.2 0 7.183l-18.53 18.531 18.102 18.103c1.984 1.984 1.984 5.199 0 7.183C721.913 819.237 720.613 819.733 719.314 819.733zM755.425 819.733c-1.299 0-2.599-.496-3.591-1.487l-25.287-25.286 25.715-25.714c1.984-1.982 5.198-1.982 7.182 0 1.984 1.984 1.984 5.2 0 7.183l-18.53 18.531 18.102 18.103c1.984 1.984 1.984 5.199 0 7.183C758.024 819.237 756.724 819.733 755.425 819.733zM791.536 819.733c-1.3 0-2.599-.496-3.591-1.487l-25.287-25.286 25.715-25.714c1.984-1.982 5.198-1.982 7.182 0 1.984 1.984 1.984 5.2 0 7.183l-18.53 18.531 18.102 18.103c1.984 1.984 1.984 5.199 0 7.183C794.135 819.237 792.835 819.733 791.536 819.733zM827.649 819.733c-1.3 0-2.599-.496-3.591-1.487l-25.289-25.286 25.715-25.714c1.984-1.982 5.198-1.982 7.182 0 1.984 1.984 1.984 5.2 0 7.183l-18.53 18.531 18.104 18.103c1.984 1.983 1.984 5.199 0 7.183C830.249 819.237 828.948 819.733 827.649 819.733zM863.76 819.733c-1.299 0-2.599-.496-3.591-1.487l-25.289-25.286 25.716-25.714c1.984-1.982 5.198-1.983 7.182.001 1.984 1.983 1.984 5.199 0 7.183l-18.532 18.531 18.104 18.103c1.984 1.983 1.984 5.199 0 7.183C866.36 819.237 865.059 819.733 863.76 819.733zM899.871 819.733c-1.299 0-2.599-.496-3.591-1.487l-25.287-25.286 25.715-25.714c1.984-1.982 5.198-1.982 7.182 0 1.984 1.984 1.984 5.2 0 7.183l-18.53 18.531 18.102 18.103c1.984 1.984 1.984 5.199 0 7.183C902.47 819.237 901.17 819.733 899.871 819.733zM935.982 819.733c-1.3 0-2.599-.496-3.591-1.487l-25.287-25.286 25.715-25.714c1.984-1.982 5.198-1.982 7.182 0 1.984 1.984 1.984 5.2 0 7.183l-18.53 18.531 18.102 18.103c1.984 1.984 1.984 5.199 0 7.183C938.581 819.237 937.281 819.733 935.982 819.733zM972.763 819.733c-1.299 0-2.599-.496-3.591-1.487l-25.287-25.286 25.715-25.714c1.984-1.982 5.198-1.982 7.182 0 1.984 1.984 1.984 5.2 0 7.183l-18.53 18.531 18.102 18.103c1.984 1.984 1.984 5.199 0 7.183C975.362 819.237 974.063 819.733 972.763 819.733zM1008.874 819.733c-1.299 0-2.599-.496-3.591-1.487l-25.287-25.286 25.715-25.714c1.984-1.982 5.198-1.982 7.182 0 1.984 1.984 1.984 5.2 0 7.183l-18.53 18.531 18.102 18.103c1.984 1.984 1.984 5.199 0 7.183C1011.473 819.237 1010.174 819.733 1008.874 819.733z" class="colorc9c1fe svgShape"></path><path fill="#6eb6ff" d="M1109.506,252.404H246.769c-33.963,0-60.418,29.465-56.775,63.231l36.45,337.752
	c3.129,28.998,27.608,50.977,56.774,50.977h119.916l9.42,112.813l112.813-112.813h547.689c29.167,0,53.645-21.979,56.775-50.977
	l36.449-337.752C1169.925,281.868,1143.469,252.404,1109.506,252.404z" class="colorff6ed1 svgShape"></path><path d="M445.841,803.011l-9.893-118.479H320.263c-31.585,0-57.959-23.681-61.348-55.085l-36.449-337.752
	c-1.877-17.391,3.748-34.83,15.435-47.845c11.686-13.015,28.421-20.48,45.913-20.48h862.738c17.093,0,32.699,6.898,43.946,19.424
	c13.056,14.541,18.896,35.062,16.443,57.782l-36.449,337.752c-1.211,11.225-8.314,22.778-19.489,31.695
	c-11.725,9.356-26.25,14.509-40.902,14.509H564.32L445.841,803.011z M283.814,232.572c-14.884,0-29.123,6.352-39.066,17.426
	c-9.944,11.075-14.73,25.913-13.134,40.71l36.449,337.752c2.884,26.721,25.325,46.87,52.2,46.87h124.149l8.947,107.148
	l107.148-107.148h549.594c26.982,0,49.307-20.057,51.242-37.99l36.449-337.752c2.168-20.088-2.854-38.075-14.142-50.646
	c-9.478-10.557-22.654-16.37-37.099-16.37H283.814z" fill="#021b79" class="color000000 svgShape"></path><path fill="#ffffff" d="M368.317 390.751h37.04v64.983c0 13.643-1.211 24.025-3.63 31.147-2.421 7.121-7.29 13.154-14.604 18.1-7.317 4.946-16.685 7.419-28.107 7.419-12.075 0-21.431-1.632-28.066-4.895-6.637-3.263-11.763-8.036-15.379-14.319-3.618-6.282-5.752-14.046-6.405-23.294l35.328-4.814c.053 5.276.516 9.193 1.387 11.749.87 2.557 2.338 4.624 4.406 6.201 1.413 1.034 3.427 1.55 6.037 1.55 4.134 0 7.166-1.535 9.098-4.606 1.93-3.07 2.897-8.247 2.897-15.529V390.751zM425.347 450.637c0-19.527 5.438-34.729 16.318-45.608 10.878-10.878 26.027-16.318 45.444-16.318 19.907 0 35.246 5.344 46.016 16.032 10.77 10.688 16.155 25.66 16.155 44.915 0 13.98-2.353 25.443-7.057 34.39-4.706 8.948-11.504 15.91-20.397 20.887-8.893 4.977-19.977 7.465-33.247 7.465-13.49 0-24.654-2.148-33.492-6.445-8.84-4.296-16.006-11.096-21.499-20.397C428.093 476.255 425.347 464.616 425.347 450.637zM462.307 450.8c0 12.075 2.244 20.751 6.731 26.027 4.487 5.276 10.593 7.914 18.317 7.914 7.941 0 14.087-2.583 18.439-7.751 4.35-5.167 6.527-14.441 6.527-27.822 0-11.259-2.271-19.486-6.812-24.681-4.543-5.193-10.702-7.791-18.48-7.791-7.452 0-13.435 2.639-17.949 7.914C464.563 429.886 462.307 438.616 462.307 450.8zM570.656 390.751h37.041v119.609h-37.041V390.751zM634.458 390.751h34.512l45.037 66.173v-66.173h34.838v119.609h-34.838l-44.792-65.674v65.674h-34.757V390.751zM906.965 390.751h36.878v71.261c0 7.066-1.101 13.739-3.305 20.016-2.203 6.278-5.657 11.769-10.361 16.47-4.706 4.702-9.642 8.004-14.809 9.906-7.18 2.663-15.802 3.995-25.863 3.995-5.821 0-12.171-.408-19.051-1.223-6.881-.817-12.633-2.432-17.256-4.852-4.624-2.418-8.852-5.856-12.686-10.313-3.835-4.457-6.46-9.05-7.874-13.78-2.284-7.609-3.427-14.349-3.427-20.22v-71.261h36.878v72.958c0 6.522 1.808 11.617 5.426 15.285 3.617 3.669 8.635 5.502 15.054 5.502 6.364 0 11.353-1.807 14.972-5.421 3.616-3.614 5.426-8.737 5.426-15.367V390.751zM961.874 470.789l35.164-2.203c.761 5.711 2.311 10.063 4.651 13.054 3.806 4.842 9.246 7.262 16.318 7.262 5.275 0 9.341-1.237 12.197-3.712 2.856-2.475 4.283-5.344 4.283-8.608 0-3.101-1.36-5.874-4.079-8.322-2.721-2.448-9.03-4.759-18.929-6.935-16.21-3.643-27.769-8.485-34.675-14.522-6.963-6.038-10.444-13.734-10.444-23.09 0-6.146 1.781-11.953 5.344-17.419 3.563-5.466 8.92-9.762 16.073-12.891 7.152-3.127 16.957-4.691 29.413-4.691 15.283 0 26.937 2.843 34.961 8.526 8.023 5.684 12.795 14.727 14.319 27.128l-34.839 2.04c-.926-5.385-2.87-9.301-5.833-11.749-2.965-2.448-7.058-3.671-12.279-3.671-4.298 0-7.534.912-9.71 2.733-2.176 1.823-3.263 4.038-3.263 6.649 0 1.905.898 3.618 2.692 5.14 1.74 1.579 5.875 3.047 12.402 4.406 16.155 3.481 27.726 7.004 34.716 10.566 6.988 3.563 12.075 7.983 15.257 13.258 3.182 5.277 4.772 11.178 4.772 17.705 0 7.669-2.122 14.741-6.364 21.213-4.242 6.474-10.171 11.381-17.786 14.727-7.615 3.345-17.215 5.018-28.8 5.018-20.343 0-34.431-3.916-42.263-11.749C967.341 492.818 962.906 482.864 961.874 470.789z" class="colorffffff svgShape"></path><path fill="#6eb6ff" d="M177.268 658.462c-9.879-37.119-43.973-58.135-71.718-56.066-12.488.932-29.517 9.763-26.403 26.904C85.315 663.258 129.548 634.993 177.268 658.462zM48.744 697.206c-16.707 12.363-32.797 39.838-13.251 61.147 38.721 42.214 75.799-36.627 163.573-45.924C152.336 669.061 85.864 669.739 48.744 697.206z" class="colorff6ed1 svgShape"></path><path fill="#91c8ff" d="M526.606 198.219c-2.163 0-4.24-.859-5.814-2.461-2.078-2.115-2.846-5.085-2.054-7.943l7.657-27.59c.793-2.858 2.981-5.008 5.853-5.75 2.87-.74 5.828.08 7.904 2.194l20.065 20.425c2.079 2.116 2.846 5.086 2.053 7.944-.793 2.858-2.981 5.007-5.853 5.748l-27.72 7.164C527.999 198.13 527.298 198.219 526.606 198.219zM534.318 160.681c-.191 0-.35.03-.452.057-.292.075-.997.345-1.238 1.217l-7.657 27.589c-.241.872.224 1.466.435 1.681.21.215.793.689 1.671.464l27.722-7.164c.877-.226 1.158-.926 1.238-1.216.081-.291.2-1.035-.433-1.681l-20.065-20.425C535.127 160.784 534.669 160.681 534.318 160.681zM612.88 104.399c-.862 1.984-2.477 3.546-4.574 4.352-2.768 1.063-5.798.584-8.104-1.281L577.95 89.453c-2.305-1.867-3.405-4.73-2.941-7.659.465-2.927 2.395-5.313 5.162-6.375l26.729-10.264c2.769-1.064 5.799-.584 8.104 1.283 2.305 1.866 3.404 4.729 2.94 7.659l-4.476 28.279C613.354 103.086 613.156 103.764 612.88 104.399zM581.525 82.368c-.076.175-.112.333-.128.437-.047.298-.081 1.052.622 1.62l22.253 18.016c.703.569 1.434.379 1.715.271.281-.107.948-.453 1.091-1.348l4.476-28.281c.142-.894-.388-1.431-.622-1.62-.234-.19-.87-.596-1.714-.272L582.49 81.456C581.942 81.667 581.665 82.045 581.525 82.368zM1262.282 673.065c-.862 1.984-2.477 3.546-4.574 4.351-2.768 1.063-5.798.584-8.104-1.281l-22.253-18.017c-2.305-1.867-3.405-4.73-2.941-7.659.465-2.927 2.395-5.313 5.162-6.375l26.729-10.264c2.769-1.064 5.799-.584 8.104 1.283 2.305 1.866 3.404 4.729 2.94 7.659l-4.476 28.279C1262.757 671.751 1262.558 672.43 1262.282 673.065zM1230.927 651.033c-.076.175-.112.333-.128.438-.047.297-.081 1.052.623 1.62l22.253 18.017c.703.569 1.434.379 1.715.271.281-.107.948-.453 1.091-1.348l4.476-28.281c.142-.894-.388-1.431-.622-1.62-.234-.19-.87-.596-1.714-.272l-26.729 10.264C1231.344 650.332 1231.067 650.711 1230.927 651.033zM207.625 809.478c-.862 1.984-2.477 3.546-4.574 4.351-2.768 1.063-5.798.584-8.104-1.281l-22.253-18.017c-2.305-1.867-3.405-4.73-2.941-7.659.465-2.927 2.395-5.313 5.162-6.375l26.729-10.264c2.769-1.064 5.799-.584 8.104 1.283 2.305 1.866 3.404 4.729 2.94 7.659l-4.476 28.279C208.099 808.165 207.901 808.843 207.625 809.478zM176.27 787.446c-.076.175-.112.333-.128.437-.047.298-.081 1.052.623 1.62l22.253 18.017c.703.569 1.434.379 1.715.271.281-.107.948-.453 1.091-1.348l4.476-28.28c.142-.894-.388-1.431-.622-1.62-.234-.19-.87-.596-1.714-.273l-26.729 10.264C176.687 786.746 176.41 787.124 176.27 787.446z" class="colorff91da svgShape"></path><path fill="#9eceff" d="M709.657,115.969c0-7.255,5.882-13.136,13.137-13.136c7.255,0,13.137,5.881,13.137,13.136
	c0,7.255-5.882,13.137-13.137,13.137C715.538,129.105,709.657,123.224,709.657,115.969z" class="colorffec9e svgShape"></path><circle cx="1301.616" cy="627.523" r="13.137" fill="#9eceff" transform="rotate(-76.714 1301.73 627.532)" class="colorffec9e svgShape"></circle><path fill="#9eceff" d="M256.959,778.894c0-7.255,5.881-13.137,13.136-13.137c7.255,0,13.137,5.882,13.137,13.137
	c0,7.255-5.881,13.137-13.137,13.137C262.841,792.031,256.959,786.15,256.959,778.894z" class="colorffec9e svgShape"></path><circle cx="33.817" cy="573.353" r="13.137" fill="#9eceff" class="colorffec9e svgShape"></circle><path fill="#0575e6" d="M794.768,133.757c0-5.05,4.094-9.144,9.143-9.144c5.05,0,9.144,4.094,9.144,9.144
	c0,5.05-4.094,9.144-9.144,9.144C798.862,142.901,794.768,138.807,794.768,133.757z" class="colorc9c1fe svgShape"></path><circle cx="840.487" cy="133.757" r="9.144" fill="#0575e6" class="colorc9c1fe svgShape"></circle><circle cx="877.062" cy="133.757" r="9.144" fill="#0575e6" class="colorc9c1fe svgShape"></circle><path fill="#0575e6" d="M904.493 133.757c0-5.05 4.094-9.144 9.144-9.144 5.05 0 9.144 4.094 9.144 9.144 0 5.05-4.094 9.144-9.144 9.144C908.587 142.901 904.493 138.807 904.493 133.757zM941.068 133.757c0-5.05 4.094-9.144 9.144-9.144s9.144 4.094 9.144 9.144c0 5.05-4.094 9.144-9.144 9.144S941.068 138.807 941.068 133.757zM977.643 133.757c0-5.05 4.094-9.144 9.144-9.144 5.05 0 9.144 4.094 9.144 9.144 0 5.05-4.094 9.144-9.144 9.144C981.737 142.901 977.643 138.807 977.643 133.757z" class="colorc9c1fe svgShape"></path><circle cx="1023.362" cy="133.757" r="9.144" fill="#0575e6" class="colorc9c1fe svgShape"></circle><path fill="#0575e6" d="M794.768,172.966c0-5.05,4.094-9.144,9.143-9.144c5.05,0,9.144,4.094,9.144,9.144
	c0,5.05-4.094,9.144-9.144,9.144C798.862,182.109,794.768,178.015,794.768,172.966z" class="colorc9c1fe svgShape"></path><circle cx="840.487" cy="172.966" r="9.144" fill="#0575e6" class="colorc9c1fe svgShape"></circle><circle cx="877.062" cy="172.966" r="9.144" fill="#0575e6" class="colorc9c1fe svgShape"></circle><path fill="#0575e6" d="M904.493 172.966c0-5.05 4.094-9.144 9.144-9.144 5.05 0 9.144 4.094 9.144 9.144 0 5.05-4.094 9.144-9.144 9.144C908.587 182.109 904.493 178.015 904.493 172.966zM941.068 172.966c0-5.05 4.094-9.144 9.144-9.144s9.144 4.094 9.144 9.144c0 5.05-4.094 9.144-9.144 9.144S941.068 178.015 941.068 172.966zM977.643 172.966c0-5.05 4.094-9.144 9.144-9.144 5.05 0 9.144 4.094 9.144 9.144 0 5.05-4.094 9.144-9.144 9.144C981.737 182.109 977.643 178.015 977.643 172.966z" class="colorc9c1fe svgShape"></path><circle cx="1023.362" cy="172.966" r="9.144" fill="#0575e6" class="colorc9c1fe svgShape"></circle><circle cx="1294.23" cy="341.595" r="9.144" fill="#0575e6" class="colorc9c1fe svgShape"></circle><circle cx="1294.23" cy="378.17" r="9.144" fill="#0575e6" class="colorc9c1fe svgShape"></circle><circle cx="1294.23" cy="414.745" r="9.144" fill="#0575e6" class="colorc9c1fe svgShape"></circle><circle cx="1294.23" cy="451.32" r="9.144" fill="#0575e6" class="colorc9c1fe svgShape"></circle><circle cx="1294.23" cy="487.895" r="9.144" fill="#0575e6" class="colorc9c1fe svgShape"></circle><circle cx="1294.23" cy="524.47" r="9.144" fill="#0575e6" class="colorc9c1fe svgShape"></circle><circle cx="1294.23" cy="561.045" r="9.144" fill="#0575e6" class="colorc9c1fe svgShape"></circle><circle cx="1255.021" cy="341.595" r="9.144" fill="#0575e6" class="colorc9c1fe svgShape"></circle><circle cx="1255.021" cy="378.17" r="9.144" fill="#0575e6" class="colorc9c1fe svgShape"></circle><circle cx="1255.021" cy="414.745" r="9.144" fill="#0575e6" class="colorc9c1fe svgShape"></circle><circle cx="1255.021" cy="451.32" r="9.144" fill="#0575e6" class="colorc9c1fe svgShape"></circle><circle cx="1255.021" cy="487.895" r="9.144" fill="#0575e6" class="colorc9c1fe svgShape"></circle><circle cx="1255.021" cy="524.47" r="9.144" fill="#0575e6" class="colorc9c1fe svgShape"></circle><circle cx="1255.021" cy="561.045" r="9.144" fill="#0575e6" class="colorc9c1fe svgShape"></circle></svg>