<svg xmlns="http://www.w3.org/2000/svg" enable-background="new 0 0 1364 960" viewBox="0 0 1364 960" id="JoinUS"><circle cx="342.009" cy="234.017" r="116.232" fill="#9eceff" class="colorffec9e svgShape"></circle><path d="M442.635,244.809c-1.44,0-2.882-0.041-4.331-0.123c-19.993-1.131-38.347-9.98-51.684-24.917
	c-13.338-14.936-20.059-34.172-18.929-54.165c1.132-19.993,9.981-38.348,24.917-51.684c14.936-13.338,34.169-20.061,54.165-18.928
	c19.992,1.131,38.347,9.98,51.684,24.916c27.532,30.834,24.845,78.317-5.988,105.849
	C478.616,238.129,461.061,244.808,442.635,244.809z M442.451,101.179c-16.875,0-32.951,6.117-45.64,17.447l0,0
	c-13.68,12.214-21.784,29.025-22.819,47.335c-1.036,18.31,5.12,35.927,17.334,49.607c12.215,13.679,29.025,21.784,47.335,22.819
	c18.318,1.035,35.928-5.121,49.608-17.335c28.238-25.215,30.698-68.702,5.484-96.941c-12.215-13.68-29.026-21.783-47.335-22.819
	C445.092,101.216,443.768,101.179,442.451,101.179z" fill="#021b79" class="color000000 svgShape"></path><circle cx="1138.6" cy="620.934" r="116.232" fill="#9eceff" transform="rotate(-45.001 1138.599 620.95)" class="colorffec9e svgShape"></circle><path d="M1078.129,801.665c-15.334,0-30.266-4.706-43.053-13.727c-16.363-11.543-27.251-28.766-30.659-48.498
	c-3.409-19.732,1.071-39.61,12.614-55.973c11.542-16.363,28.766-27.252,48.497-30.66c40.734-7.04,79.597,20.379,86.633,61.112l0,0
	c7.036,40.734-20.378,79.597-61.112,86.633C1086.737,801.297,1082.416,801.665,1078.129,801.665z M1078.323,658.016
	c-3.869,0-7.782,0.328-11.721,1.008c-18.071,3.122-33.846,13.094-44.417,28.08c-10.571,14.986-14.674,33.191-11.552,51.262
	c3.122,18.072,13.093,33.846,28.08,44.417c14.986,10.571,33.193,14.675,51.262,11.552c37.305-6.444,62.413-42.037,55.97-79.342l0,0
	C1140.18,681.627,1111.092,658.016,1078.323,658.016z" fill="#021b79" class="color000000 svgShape"></path><circle cx="711.234" cy="527.675" r="371.324" fill="#64b1ff" class="colorff64ca svgShape"></circle><rect width="4.879" height="266.477" x="793.94" y="58.423" fill="#ffffff" transform="rotate(-75.783 796.323 191.672)" class="colorffffff svgShape"></rect><rect width="4.879" height="383.216" x="786.864" y="27.672" fill="#ffffff" transform="rotate(-75.776 789.353 219.283)" class="colorffffff svgShape"></rect><rect width="4.879" height="464.917" x="779.898" y="14.451" fill="#ffffff" transform="rotate(-75.776 782.379 246.919)" class="colorffffff svgShape"></rect><rect width="4.88" height="528.165" x="772.945" y="10.477" fill="#ffffff" transform="rotate(-75.778 775.348 274.543)" class="colorffffff svgShape"></rect><rect width="4.879" height="578.992" x="765.986" y="12.7" fill="#ffffff" transform="rotate(-75.778 768.398 302.176)" class="colorffffff svgShape"></rect><rect width="4.879" height="620.487" x="759.002" y="19.577" fill="#ffffff" transform="rotate(-75.776 761.487 329.832)" class="colorffffff svgShape"></rect><rect width="4.879" height="654.426" x="751.981" y="30.244" fill="#ffffff" transform="rotate(-75.776 754.472 357.469)" class="colorffffff svgShape"></rect><rect width="4.88" height="681.937" x="744.954" y="44.106" fill="#ffffff" transform="rotate(-75.778 747.358 385.054)" class="colorffffff svgShape"></rect><rect width="4.879" height="703.792" x="737.922" y="60.804" fill="#ffffff" transform="rotate(-75.778 740.34 412.676)" class="colorffffff svgShape"></rect><rect width="4.879" height="720.509" x="730.907" y="80.064" fill="#ffffff" transform="rotate(-75.776 733.397 440.335)" class="colorffffff svgShape"></rect><rect width="4.879" height="732.465" x="723.893" y="101.722" fill="#ffffff" transform="rotate(-75.776 726.38 467.974)" class="colorffffff svgShape"></rect><rect width="4.879" height="739.838" x="716.903" y="125.666" fill="#ffffff" transform="rotate(-75.778 719.31 495.56)" class="colorffffff svgShape"></rect><rect width="4.879" height="742.746" x="709.919" y="151.849" fill="#ffffff" transform="rotate(-75.776 712.408 523.245)" class="colorffffff svgShape"></rect><rect width="4.879" height="741.258" x="702.941" y="180.229" fill="#ffffff" transform="rotate(-75.778 705.357 550.83)" class="colorffffff svgShape"></rect><rect width="4.879" height="735.332" x="695.958" y="210.817" fill="#ffffff" transform="rotate(-75.778 698.368 578.453)" class="colorffffff svgShape"></rect><rect width="4.88" height="724.87" x="688.961" y="243.678" fill="#ffffff" transform="rotate(-75.778 691.389 606.083)" class="colorffffff svgShape"></rect><polygon fill="#ffffff" points="1028.372 723.376 1028.055 723.376 1027.761 723.301 339.791 548.93 340.989 544.199 1028.959 718.571 1028.366 720.913" class="colorffffff svgShape"></polygon><rect width="4.879" height="689.587" x="674.908" y="316.575" fill="#ffffff" transform="rotate(-75.778 677.317 661.334)" class="colorffffff svgShape"></rect><rect width="4.879" height="663.98" x="667.876" y="357.003" fill="#ffffff" transform="rotate(-75.776 670.358 689.025)" class="colorffffff svgShape"></rect><rect width="4.879" height="632.192" x="660.849" y="400.527" fill="#ffffff" transform="rotate(-75.776 663.328 716.657)" class="colorffffff svgShape"></rect><polygon fill="#ffffff" points="943.857 819.564 943.542 819.564 943.246 819.489 368.14 673.737 369.338 669.007 944.445 814.759 943.852 817.101" class="colorffffff svgShape"></polygon><polygon fill="#ffffff" points="913.837 841.351 913.519 841.351 913.224 841.276 384.231 707.211 385.429 702.481 914.423 836.547 913.83 838.886" class="colorffffff svgShape"></polygon><rect width="4.879" height="486.938" x="639.928" y="556.058" fill="#ffffff" transform="rotate(-75.776 642.415 799.567)" class="colorffffff svgShape"></rect><rect width="4.879" height="412.211" x="632.975" y="621.058" fill="#ffffff" transform="rotate(-75.776 635.462 827.206)" class="colorffffff svgShape"></rect><polygon fill="#ffffff" points="778.709 895.319 778.393 895.319 778.098 895.244 477.492 819.062 478.69 814.332 779.296 890.515 778.703 892.856" class="colorffffff svgShape"></polygon><polygon fill="#ffffff" points="682.484 900.345 682.167 900.345 681.873 900.27 559.176 869.163 560.374 864.434 683.071 895.541 682.478 897.882" class="colorffffff svgShape"></polygon><path d="M711.233,903.269c-100.324,0-194.644-39.069-265.585-110.009C374.709,722.32,335.64,628,335.64,527.675
	s39.069-194.645,110.008-265.585c70.941-70.94,165.261-110.009,265.585-110.009c100.325,0,194.645,39.069,265.586,110.009
	c70.94,70.94,110.008,165.26,110.008,265.585S1047.759,722.32,976.82,793.26C905.879,864.201,811.559,903.269,711.233,903.269z
	 M711.233,160.621c-202.395,0-367.054,164.66-367.054,367.055S508.839,894.73,711.233,894.73s367.055-164.66,367.055-367.055
	S913.628,160.621,711.233,160.621z" fill="#021b79" class="color000000 svgShape"></path><path fill="#0575e6" d="M1016.544 215.663c-3.471-60.02 36.939-107.945 79.201-118.44 19.022-4.724 48.661.077 52.417 27.084C1155.603 177.812 1076.012 157.426 1016.544 215.663zM958.749 190.114c-24.969-26.241-25.054-64.01-9.712-85.293 6.905-9.579 22.401-18.914 34.645-7.961C1007.938 118.56 963.41 140.183 958.749 190.114zM1049.478 267.933c22.075-28.718 59.379-34.629 82.774-22.754 10.53 5.345 22.144 19.214 13.21 33.002C1127.764 305.494 1099.531 264.835 1049.478 267.933z" class="colorf660c3 svgShape"></path><path fill="#a6d2ff" d="M546.519,111.454c0-4.762,3.861-8.623,8.623-8.623c4.762,0,8.623,3.861,8.623,8.623
	c0,4.762-3.861,8.623-8.623,8.623C550.38,120.077,546.519,116.216,546.519,111.454z" class="colorffa6e1 svgShape"></path><circle cx="589.633" cy="111.454" r="8.623" fill="#a6d2ff" class="colorffa6e1 svgShape"></circle><circle cx="624.123" cy="111.454" r="8.623" fill="#a6d2ff" class="colorffa6e1 svgShape"></circle><path fill="#a6d2ff" d="M649.991 111.454c0-4.762 3.861-8.623 8.623-8.623 4.762 0 8.623 3.861 8.623 8.623 0 4.762-3.861 8.623-8.623 8.623C653.852 120.077 649.991 116.216 649.991 111.454zM684.482 111.454c0-4.762 3.861-8.623 8.623-8.623 4.762 0 8.623 3.861 8.623 8.623 0 4.762-3.861 8.623-8.623 8.623C688.343 120.077 684.482 116.216 684.482 111.454zM718.973 111.454c0-4.762 3.861-8.623 8.623-8.623s8.623 3.861 8.623 8.623c0 4.762-3.86 8.623-8.623 8.623S718.973 116.216 718.973 111.454z" class="colorffa6e1 svgShape"></path><circle cx="762.086" cy="111.454" r="8.623" fill="#a6d2ff" class="colorffa6e1 svgShape"></circle><path fill="#a6d2ff" d="M546.519,148.428c0-4.762,3.861-8.623,8.623-8.623c4.762,0,8.623,3.861,8.623,8.623
	c0,4.762-3.861,8.623-8.623,8.623C550.38,157.051,546.519,153.19,546.519,148.428z" class="colorffa6e1 svgShape"></path><circle cx="589.633" cy="148.428" r="8.623" fill="#a6d2ff" class="colorffa6e1 svgShape"></circle><circle cx="624.123" cy="148.428" r="8.623" fill="#a6d2ff" class="colorffa6e1 svgShape"></circle><path fill="#a6d2ff" d="M649.991 148.428c0-4.762 3.861-8.623 8.623-8.623 4.762 0 8.623 3.861 8.623 8.623 0 4.762-3.861 8.623-8.623 8.623C653.852 157.051 649.991 153.19 649.991 148.428zM684.482 148.428c0-4.762 3.861-8.623 8.623-8.623 4.762 0 8.623 3.861 8.623 8.623 0 4.762-3.861 8.623-8.623 8.623C688.343 157.051 684.482 153.19 684.482 148.428zM718.973 148.428c0-4.762 3.861-8.623 8.623-8.623s8.623 3.861 8.623 8.623c0 4.762-3.86 8.623-8.623 8.623S718.973 153.19 718.973 148.428z" class="colorffa6e1 svgShape"></path><circle cx="762.086" cy="148.428" r="8.623" fill="#a6d2ff" class="colorffa6e1 svgShape"></circle><path fill="#a6d2ff" d="M546.519,37.897c0-4.762,3.861-8.623,8.623-8.623c4.762,0,8.623,3.861,8.623,8.623
	c0,4.762-3.861,8.623-8.623,8.623C550.38,46.52,546.519,42.66,546.519,37.897z" class="colorffa6e1 svgShape"></path><circle cx="589.633" cy="37.897" r="8.623" fill="#a6d2ff" class="colorffa6e1 svgShape"></circle><circle cx="624.123" cy="37.897" r="8.623" fill="#a6d2ff" class="colorffa6e1 svgShape"></circle><path fill="#a6d2ff" d="M649.991 37.897c0-4.762 3.861-8.623 8.623-8.623 4.762 0 8.623 3.861 8.623 8.623 0 4.762-3.861 8.623-8.623 8.623C653.852 46.52 649.991 42.66 649.991 37.897zM684.482 37.897c0-4.762 3.861-8.623 8.623-8.623 4.762 0 8.623 3.861 8.623 8.623 0 4.762-3.861 8.623-8.623 8.623C688.343 46.52 684.482 42.66 684.482 37.897zM718.973 37.897c0-4.762 3.861-8.623 8.623-8.623s8.623 3.861 8.623 8.623c0 4.762-3.86 8.623-8.623 8.623S718.973 42.66 718.973 37.897z" class="colorffa6e1 svgShape"></path><circle cx="762.086" cy="37.897" r="8.623" fill="#a6d2ff" class="colorffa6e1 svgShape"></circle><path fill="#a6d2ff" d="M546.519,74.871c0-4.762,3.861-8.623,8.623-8.623c4.762,0,8.623,3.86,8.623,8.623
	c0,4.762-3.861,8.623-8.623,8.623C550.38,83.494,546.519,79.633,546.519,74.871z" class="colorffa6e1 svgShape"></path><circle cx="589.633" cy="74.871" r="8.623" fill="#a6d2ff" class="colorffa6e1 svgShape"></circle><circle cx="624.123" cy="74.871" r="8.623" fill="#a6d2ff" class="colorffa6e1 svgShape"></circle><path fill="#a6d2ff" d="M649.991 74.871c0-4.762 3.861-8.623 8.623-8.623 4.762 0 8.623 3.86 8.623 8.623 0 4.762-3.861 8.623-8.623 8.623C653.852 83.494 649.991 79.633 649.991 74.871zM684.482 74.871c0-4.762 3.861-8.623 8.623-8.623 4.762 0 8.623 3.86 8.623 8.623 0 4.762-3.861 8.623-8.623 8.623C688.343 83.494 684.482 79.633 684.482 74.871zM718.973 74.871c0-4.762 3.861-8.623 8.623-8.623s8.623 3.86 8.623 8.623c0 4.762-3.86 8.623-8.623 8.623S718.973 79.633 718.973 74.871z" class="colorffa6e1 svgShape"></path><circle cx="762.086" cy="74.871" r="8.623" fill="#a6d2ff" class="colorffa6e1 svgShape"></circle><path fill="#a6d2ff" d="M143.951,693.858c0-4.762,3.86-8.623,8.623-8.623c4.762,0,8.623,3.861,8.623,8.623
	c0,4.762-3.861,8.623-8.623,8.623C147.811,702.481,143.951,698.62,143.951,693.858z" class="colorffa6e1 svgShape"></path><circle cx="187.064" cy="693.858" r="8.623" fill="#a6d2ff" transform="rotate(-22.5 187.054 693.83)" class="colorffa6e1 svgShape"></circle><circle cx="221.555" cy="693.858" r="8.623" fill="#a6d2ff" transform="rotate(-22.5 221.543 693.83)" class="colorffa6e1 svgShape"></circle><path fill="#a6d2ff" d="M247.422 693.858c0-4.762 3.861-8.623 8.623-8.623 4.762 0 8.623 3.861 8.623 8.623 0 4.762-3.861 8.623-8.623 8.623C251.283 702.481 247.422 698.62 247.422 693.858zM281.913 693.858c0-4.762 3.861-8.623 8.623-8.623s8.623 3.861 8.623 8.623c0 4.762-3.86 8.623-8.623 8.623S281.913 698.62 281.913 693.858zM316.404 693.858c0-4.762 3.861-8.623 8.623-8.623 4.762 0 8.623 3.861 8.623 8.623 0 4.762-3.861 8.623-8.623 8.623C320.264 702.481 316.404 698.62 316.404 693.858z" class="colorffa6e1 svgShape"></path><circle cx="359.517" cy="693.858" r="8.623" fill="#a6d2ff" transform="rotate(-22.5 359.5 693.83)" class="colorffa6e1 svgShape"></circle><path fill="#a6d2ff" d="M143.951,730.832c0-4.762,3.86-8.623,8.623-8.623c4.762,0,8.623,3.86,8.623,8.623
	c0,4.762-3.861,8.623-8.623,8.623C147.811,739.455,143.951,735.594,143.951,730.832z" class="colorffa6e1 svgShape"></path><circle cx="187.064" cy="730.832" r="8.623" fill="#a6d2ff" class="colorffa6e1 svgShape"></circle><circle cx="221.555" cy="730.832" r="8.623" fill="#a6d2ff" class="colorffa6e1 svgShape"></circle><path fill="#a6d2ff" d="M247.422 730.832c0-4.762 3.861-8.623 8.623-8.623 4.762 0 8.623 3.86 8.623 8.623 0 4.762-3.861 8.623-8.623 8.623C251.283 739.455 247.422 735.594 247.422 730.832zM281.913 730.832c0-4.762 3.861-8.623 8.623-8.623s8.623 3.86 8.623 8.623c0 4.762-3.86 8.623-8.623 8.623S281.913 735.594 281.913 730.832zM316.404 730.832c0-4.762 3.861-8.623 8.623-8.623 4.762 0 8.623 3.86 8.623 8.623 0 4.762-3.861 8.623-8.623 8.623C320.264 739.455 316.404 735.594 316.404 730.832z" class="colorffa6e1 svgShape"></path><circle cx="359.517" cy="730.832" r="8.623" fill="#a6d2ff" class="colorffa6e1 svgShape"></circle><path fill="#a6d2ff" d="M143.951,620.301c0-4.762,3.86-8.623,8.623-8.623c4.762,0,8.623,3.861,8.623,8.623
	c0,4.762-3.861,8.623-8.623,8.623C147.811,628.924,143.951,625.064,143.951,620.301z" class="colorffa6e1 svgShape"></path><circle cx="187.064" cy="620.301" r="8.623" fill="#a6d2ff" class="colorffa6e1 svgShape"></circle><circle cx="221.555" cy="620.301" r="8.623" fill="#a6d2ff" class="colorffa6e1 svgShape"></circle><path fill="#a6d2ff" d="M247.422 620.301c0-4.762 3.861-8.623 8.623-8.623 4.762 0 8.623 3.861 8.623 8.623 0 4.762-3.861 8.623-8.623 8.623C251.283 628.924 247.422 625.064 247.422 620.301zM281.913 620.301c0-4.762 3.861-8.623 8.623-8.623s8.623 3.861 8.623 8.623c0 4.762-3.86 8.623-8.623 8.623S281.913 625.064 281.913 620.301zM316.404 620.301c0-4.762 3.861-8.623 8.623-8.623 4.762 0 8.623 3.861 8.623 8.623 0 4.762-3.861 8.623-8.623 8.623C320.264 628.924 316.404 625.064 316.404 620.301z" class="colorffa6e1 svgShape"></path><circle cx="359.517" cy="620.301" r="8.623" fill="#a6d2ff" class="colorffa6e1 svgShape"></circle><path fill="#a6d2ff" d="M143.951,657.275c0-4.762,3.86-8.623,8.623-8.623c4.762,0,8.623,3.86,8.623,8.623
	c0,4.762-3.861,8.623-8.623,8.623C147.811,665.898,143.951,662.037,143.951,657.275z" class="colorffa6e1 svgShape"></path><circle cx="187.064" cy="657.275" r="8.623" fill="#a6d2ff" class="colorffa6e1 svgShape"></circle><circle cx="221.555" cy="657.275" r="8.623" fill="#a6d2ff" class="colorffa6e1 svgShape"></circle><path fill="#a6d2ff" d="M247.422 657.275c0-4.762 3.861-8.623 8.623-8.623 4.762 0 8.623 3.86 8.623 8.623 0 4.762-3.861 8.623-8.623 8.623C251.283 665.898 247.422 662.037 247.422 657.275zM281.913 657.275c0-4.762 3.861-8.623 8.623-8.623s8.623 3.86 8.623 8.623c0 4.762-3.86 8.623-8.623 8.623S281.913 662.037 281.913 657.275zM316.404 657.275c0-4.762 3.861-8.623 8.623-8.623 4.762 0 8.623 3.86 8.623 8.623 0 4.762-3.861 8.623-8.623 8.623C320.264 665.898 316.404 662.037 316.404 657.275z" class="colorffa6e1 svgShape"></path><circle cx="359.517" cy="657.275" r="8.623" fill="#a6d2ff" class="colorffa6e1 svgShape"></circle><circle cx="651.026" cy="507.996" r="371.324" fill="#64b1ff" class="colorff64ca svgShape"></circle><path fill="#ffffff" d="M487.894 350.804h41.035v71.99c0 15.115-1.341 26.616-4.022 34.505-2.682 7.889-8.075 14.572-16.179 20.052-8.105 5.48-18.484 8.219-31.138 8.219-13.378 0-23.742-1.808-31.094-5.423-7.352-3.615-13.031-8.903-17.037-15.863-4.009-6.96-6.372-15.561-7.095-25.805l39.137-5.333c.06 5.846.572 10.184 1.537 13.016.963 2.833 2.59 5.122 4.881 6.87 1.566 1.145 3.796 1.717 6.689 1.717 4.579 0 7.938-1.7 10.077-5.103 2.139-3.401 3.209-9.136 3.209-17.203V350.804zM551.074 417.148c0-21.632 6.026-38.473 18.078-50.526 12.051-12.051 28.833-18.077 50.346-18.077 22.053 0 39.047 5.92 50.977 17.761 11.931 11.84 17.897 28.426 17.897 49.757 0 15.487-2.607 28.187-7.818 38.098-5.213 9.913-12.745 17.626-22.597 23.139-9.852 5.514-22.13 8.27-36.833 8.27-14.945 0-27.312-2.38-37.104-7.141-9.793-4.759-17.731-12.292-23.816-22.597C554.117 445.529 551.074 432.635 551.074 417.148zM592.02 417.329c0 13.377 2.486 22.989 7.457 28.833 4.971 5.846 11.735 8.768 20.292 8.768 8.797 0 15.605-2.861 20.427-8.587 4.82-5.724 7.231-15.998 7.231-30.822 0-12.474-2.517-21.587-7.547-27.342-5.033-5.753-11.856-8.632-20.473-8.632-8.256 0-14.884 2.923-19.885 8.767C594.52 394.16 592.02 403.831 592.02 417.329zM712.053 350.804h41.035V483.31h-41.035V350.804zM782.735 350.804h38.233l49.893 73.309v-73.309h38.596V483.31h-38.596l-49.622-72.755v72.755h-38.504V350.804zM627 572.937h40.855v78.946c0 7.828-1.221 15.22-3.661 22.174-2.441 6.956-6.268 13.038-11.479 18.247-5.213 5.209-10.681 8.866-16.406 10.973-7.954 2.951-17.505 4.426-28.653 4.426-6.448 0-13.482-.452-21.105-1.354-7.623-.905-13.996-2.694-19.117-5.375-5.123-2.679-9.807-6.488-14.055-11.426-4.248-4.937-7.156-10.026-8.722-15.266-2.531-8.43-3.796-15.897-3.796-22.4v-78.946h40.855v80.825c0 7.225 2.002 12.87 6.01 16.933 4.007 4.065 9.566 6.096 16.677 6.096 7.049 0 12.578-2.001 16.585-6.005 4.007-4.004 6.011-9.678 6.011-17.023V572.937zM687.83 661.607l38.956-2.441c.843 6.327 2.561 11.149 5.152 14.462 4.217 5.364 10.244 8.044 18.078 8.044 5.845 0 10.349-1.37 13.513-4.112 3.164-2.741 4.745-5.92 4.745-9.536 0-3.435-1.506-6.508-4.519-9.219-3.014-2.711-10.003-5.272-20.97-7.683-17.957-4.036-30.762-9.4-38.414-16.089-7.714-6.688-11.569-15.214-11.569-25.579 0-6.809 1.973-13.241 5.921-19.298 3.945-6.056 9.881-10.815 17.805-14.281 7.923-3.465 18.785-5.197 32.585-5.197 16.932 0 29.842 3.149 38.73 9.445 8.888 6.298 14.175 16.315 15.864 30.053l-38.596 2.26c-1.025-5.965-3.179-10.304-6.462-13.016-3.286-2.711-7.818-4.067-13.604-4.067-4.76 0-8.346 1.01-10.756 3.028-2.411 2.019-3.616 4.474-3.616 7.367 0 2.11.994 4.008 2.983 5.694 1.927 1.748 6.508 3.375 13.739 4.881 17.896 3.857 30.716 7.759 38.459 11.706 7.742 3.947 13.377 8.844 16.902 14.688 3.525 5.845 5.288 12.383 5.288 19.614 0 8.497-2.35 16.33-7.05 23.501-4.7 7.171-11.268 12.609-19.704 16.314-8.438 3.706-19.071 5.559-31.907 5.559-22.537 0-38.143-4.338-46.82-13.016C693.885 686.011 688.974 674.984 687.83 661.607z" class="colorffffff svgShape"></path><path d="M632.427,882.442c-0.854,0-1.709-0.003-2.564-0.008c-53.271-0.32-104.892-10.599-153.43-30.551
	c-46.89-19.275-88.944-46.721-124.991-81.573c-36.059-34.865-64.293-75.385-83.917-120.437
	c-20.323-46.657-30.472-96.15-30.166-147.104c0.306-50.954,11.05-100.321,31.932-146.731c20.164-44.813,48.883-84.991,85.357-119.42
	c36.464-34.417,78.844-61.356,125.962-80.066c48.774-19.367,100.52-29.023,153.787-28.706c53.271,0.32,104.892,10.599,153.43,30.552
	c46.891,19.275,88.944,46.72,124.991,81.573c36.058,34.864,64.292,75.385,83.916,120.437
	c20.323,46.657,30.472,96.149,30.166,147.104l-3.68-0.022l3.68,0.022c-0.306,50.954-11.05,100.321-31.932,146.731
	c-20.163,44.813-48.881,84.992-85.357,119.421c-36.463,34.417-78.843,61.356-125.961,80.066
	C735.659,872.786,684.794,882.442,632.427,882.442z M631.845,135.199c-102.582,0-199.14,37.862-272.146,106.771
	c-73.553,69.427-114.388,162.062-114.981,260.843c-1.225,203.983,171.57,370.978,385.188,372.261
	c0.835,0.005,1.674,0.008,2.508,0.008c102.582,0.002,199.139-37.861,272.145-106.772c73.552-69.426,114.387-162.062,114.98-260.843
	c1.225-203.983-171.569-370.978-385.188-372.261C633.517,135.201,632.678,135.199,631.845,135.199z" fill="#021b79" class="color000000 svgShape"></path><path fill="#64b1ff" d="M213.708 467.139c-44.067-40.897-106.752-40.258-141.756-14.356-15.755 11.659-30.928 37.568-12.496 57.662C95.971 550.254 130.936 475.906 213.708 467.139zM205.406 412.643c-9.316-35.004-41.467-54.823-67.63-52.871-11.776.878-27.835 9.207-24.899 25.371C118.694 417.166 160.405 390.512 205.406 412.643z" class="colorff64ca svgShape"></path><path fill="#91c8ff" d="M1164.421,457.426c-0.578,0-1.156-0.221-1.597-0.661c-0.882-0.882-0.882-2.312,0-3.194l11.783-11.784
	c3.209-3.208,8.431-3.21,11.64,0l9.821,9.82c1.448,1.448,3.803,1.447,5.251,0l9.967-9.967c3.21-3.21,8.432-3.209,11.64,0
	l10.016,10.017c1.448,1.448,3.803,1.447,5.252,0l9.526-9.526c3.209-3.21,8.431-3.209,11.639,0l8.053,8.052
	c1.448,1.448,3.803,1.447,5.251,0l6.069-6.217c5.284-5.284,12.281-5.092,17.845,0.472l0.178,0.201l7.07,8.985
	c0.771,0.98,0.602,2.4-0.378,3.172c-0.981,0.77-2.401,0.601-3.172-0.379l-6.984-8.876c-2.257-2.218-6.651-5.097-11.347-0.4
	l-6.069,6.216c-3.227,3.228-8.448,3.229-11.658,0.019l-8.053-8.052c-1.448-1.448-3.802-1.447-5.251,0l-9.526,9.526
	c-3.209,3.21-8.431,3.209-11.639,0l-10.016-10.016c-1.449-1.448-3.804-1.448-5.252,0l-9.968,9.967
	c-3.209,3.208-8.431,3.209-11.639,0l-9.821-9.82c-1.448-1.447-3.803-1.448-5.252,0l-11.784,11.784
	C1165.576,457.205,1164.999,457.426,1164.421,457.426z" class="colorff91da svgShape"></path><path d="M1106.622,419.999c-0.578,0-1.156-0.22-1.597-0.662c-0.882-0.882-0.882-2.312,0-3.194l11.784-11.784
	c1.554-1.554,3.621-2.41,5.819-2.41c2.199,0,4.266,0.856,5.82,2.411l9.82,9.82c1.448,1.448,3.803,1.449,5.252,0l9.967-9.967
	c3.208-3.208,8.431-3.21,11.639,0l10.017,10.016c1.448,1.448,3.803,1.447,5.251,0l9.526-9.526c3.209-3.209,8.432-3.209,11.64,0
	l8.052,8.052c1.448,1.448,3.803,1.447,5.252,0l6.069-6.216c2.683-2.683,5.805-4.005,9.042-3.85c3.082,0.15,6.127,1.644,8.803,4.321
	l0.178,0.2l7.071,8.986c0.771,0.98,0.602,2.4-0.378,3.171c-0.981,0.771-2.401,0.602-3.172-0.378l-6.985-8.876
	c-1.844-1.813-3.825-2.819-5.737-2.913c-1.944-0.091-3.846,0.75-5.609,2.513l-6.069,6.216c-3.227,3.23-8.449,3.229-11.659,0.019
	l-8.052-8.052c-0.701-0.701-1.634-1.087-2.626-1.087c-0.993,0-1.925,0.386-2.626,1.087l-9.526,9.526
	c-3.209,3.208-8.431,3.209-11.639,0l-10.017-10.016c-0.701-0.701-1.634-1.088-2.626-1.088c-0.992,0-1.924,0.386-2.625,1.087
	l-9.967,9.967c-1.554,1.555-3.621,2.411-5.82,2.411c-2.198,0-4.265-0.856-5.819-2.411l-9.821-9.82
	c-0.701-0.702-1.634-1.088-2.626-1.088c-0.992,0-1.924,0.386-2.625,1.087l-11.784,11.784
	C1107.777,419.778,1107.199,419.999,1106.622,419.999z" fill="#021b79" class="color000000 svgShape"></path><path fill="#91c8ff" d="M306.824,905.757c-0.638,0-1.276-0.244-1.763-0.73c-0.974-0.974-0.974-2.553,0-3.527l13.01-13.011
	c3.543-3.542,9.309-3.544,12.851,0l10.843,10.842c1.599,1.598,4.199,1.598,5.798,0l11.005-11.005c3.544-3.544,9.31-3.543,12.851,0
	l11.059,11.06c1.599,1.599,4.199,1.597,5.799,0l10.518-10.518c3.543-3.544,9.309-3.543,12.851,0l8.891,8.891
	c1.599,1.598,4.199,1.598,5.798,0l6.701-6.864c5.834-5.834,13.56-5.622,19.704,0.521l0.197,0.222l7.806,9.921
	c0.852,1.082,0.665,2.65-0.417,3.502c-1.083,0.85-2.651,0.664-3.502-0.418l-7.711-9.8c-2.492-2.449-7.343-5.627-12.528-0.442
	l-6.701,6.864c-3.563,3.564-9.328,3.565-12.872,0.021l-8.892-8.891c-1.599-1.598-4.199-1.598-5.798,0l-10.518,10.518
	c-3.543,3.544-9.309,3.543-12.851,0l-11.059-11.059c-1.6-1.599-4.2-1.598-5.799,0l-11.005,11.006c-3.543,3.542-9.309,3.543-12.851,0
	l-10.843-10.842c-1.598-1.598-4.199-1.599-5.799,0l-13.011,13.011C308.1,905.513,307.462,905.757,306.824,905.757z" class="colorff91da svgShape"></path><path d="M243.006 864.433c-.638 0-1.276-.244-1.763-.731-.974-.974-.974-2.553 0-3.527l13.011-13.011c1.716-1.716 3.998-2.661 6.425-2.661 2.428 0 4.71.945 6.426 2.662l10.842 10.842c1.599 1.599 4.2 1.6 5.799 0l11.005-11.005c3.543-3.543 9.309-3.544 12.852 0l11.06 11.059c1.599 1.599 4.199 1.598 5.798 0l10.518-10.518c3.544-3.543 9.31-3.543 12.852 0l8.891 8.891c1.599 1.599 4.199 1.597 5.799 0l6.701-6.864c2.962-2.962 6.41-4.423 9.983-4.25 3.403.166 6.765 1.816 9.72 4.771l.196.221 7.807 9.921c.852 1.082.665 2.65-.417 3.502-1.083.852-2.651.664-3.502-.418l-7.712-9.8c-2.036-2.002-4.224-3.113-6.334-3.216-2.146-.1-4.247.829-6.193 2.774l-6.701 6.864c-3.563 3.566-9.329 3.565-12.873.021l-8.891-8.891c-.775-.774-1.804-1.201-2.899-1.201-1.096 0-2.125.427-2.9 1.201l-10.518 10.518c-3.543 3.542-9.309 3.543-12.851 0l-11.06-11.059c-.775-.774-1.804-1.201-2.9-1.201-1.095 0-2.125.427-2.899 1.201l-11.005 11.005c-1.716 1.717-3.998 2.662-6.426 2.662-2.427 0-4.709-.945-6.425-2.662l-10.843-10.842c-.775-.775-1.804-1.201-2.899-1.201-1.095 0-2.124.427-2.899 1.201l-13.011 13.011C244.282 864.19 243.644 864.433 243.006 864.433zM298.574 163.666c-5.263 10.528-14.922 18.596-26.341 21.602-6.146 1.618-12.689 1.729-18.9.393-6.497-1.398-12.219-4.318-17.499-8.306-5.249-3.964-10.404-8.114-17.111-9.147-1.045-.161-2.101-.237-3.16-.273-5.393-10.819-16.874-17.236-28.913-17.618-1.275-.04-2.56.01-3.84.124-3.865-3.801-8.947-6.429-14.032-8.078-6.303-2.043-13.452-2.521-19.71-.056-5.623 2.214-10.195 6.788-12.207 12.513-.974 2.774-1.11 5.684-.611 8.564.224 1.299 1.819 2.029 3.001 1.704 1.374-.377 1.93-1.698 1.704-3.001-.823-4.755 1.71-9.393 5.204-12.449 4.104-3.588 9.759-4.507 15.035-3.97 5.04.513 11.005 2.567 15.641 5.973-2.529.816-4.921 2.013-7.011 3.708-4.307 3.497-6.302 8.963-5.423 14.418.882 5.471 5.282 9.672 10.888 9.861 5.858.198 11.12-3.729 13.141-9.099 1.916-5.09.826-10.74-1.868-15.332.596.017 1.189.049 1.777.098 8.837.731 17.349 5.451 21.901 13.006-3.605.623-7.067 1.997-10.012 4.232-4.864 3.692-8.376 9.641-7.225 15.907 1.009 5.49 5.786 10.425 11.532 10.594 6.328.186 10.949-5.318 12.833-10.826 1.65-4.827 1.526-10.268.137-15.21 2.97.454 5.839 1.544 8.468 3.185 4.889 3.05 9.057 7.096 14.167 9.818 10.052 5.355 22.103 6.877 33.148 4.036 10.24-2.634 19.28-8.99 25.552-17.452 1.507-2.032 2.816-4.194 3.947-6.456C304.187 163.328 299.979 160.854 298.574 163.666zM177.219 174.59c-4.061.878-7.373-1.791-8.051-5.751-.723-4.224 1.353-8.255 4.86-10.568 2.122-1.4 4.508-2.245 6.982-2.69 2.05 2.548 3.368 5.546 3.477 8.962C184.642 169.277 182.005 173.556 177.219 174.59zM212.297 187.87c-1.631 3.77-5.618 7.867-10.038 5.693-4.216-2.074-5.549-7.253-3.797-11.393 2.018-4.766 6.837-7.806 11.718-8.93.734-.169 1.468-.287 2.2-.369.013.037.03.072.042.108C214.001 177.705 214.312 183.215 212.297 187.87zM1164.066 619.905c.034-11.77 5.099-23.291 13.991-31.06 4.786-4.182 10.597-7.19 16.755-8.755 6.442-1.636 12.865-1.565 19.367-.34 6.464 1.217 12.926 2.642 19.393.586 1.007-.32 1.988-.722 2.952-1.161 9.641 7.293 22.777 7.938 33.731 2.926 1.16-.531 2.289-1.147 3.384-1.818 5.151 1.687 10.872 1.781 16.161.997 6.554-.972 13.17-3.723 17.68-8.713 4.052-4.483 6.114-10.613 5.372-16.635-.36-2.918-1.533-5.585-3.26-7.943-.778-1.064-2.531-1.008-3.446-.192-1.063.949-.974 2.379-.192 3.446 2.851 3.893 2.645 9.174.873 13.464-2.081 5.039-6.738 8.376-11.703 10.241-4.743 1.782-10.999 2.594-16.665 1.604 1.903-1.855 3.513-3.991 4.631-6.438 2.303-5.047 1.66-10.831-1.553-15.326-3.222-4.509-9.031-6.315-14.137-3.992-5.335 2.427-8.302 8.284-7.726 13.993.547 5.411 4.035 9.987 8.489 12.903-.541.249-1.087.484-1.635.702-8.241 3.274-17.964 2.83-25.4-1.913 2.952-2.16 5.442-4.93 7.087-8.242 2.716-5.47 3.217-12.359-.6-17.46-3.345-4.469-9.818-6.766-15.039-4.362-5.751 2.647-7.443 9.632-6.682 15.402.668 5.058 3.198 9.876 6.639 13.685-2.862.914-5.916 1.212-9.001.912-5.735-.559-11.268-2.329-17.055-2.496-11.385-.327-22.856 3.667-31.486 11.121-8.002 6.912-13.273 16.624-15.129 26.993-.446 2.491-.658 5.009-.665 7.538C1159.188 622.703 1164.057 623.049 1164.066 619.905zM1267.911 556.168c3.248-2.592 7.4-1.674 9.768 1.572 2.525 3.462 2.458 7.996.345 11.628-1.278 2.197-3.04 4.015-5.058 5.513-2.969-1.371-5.483-3.471-7.099-6.482C1263.624 564.227 1264.084 559.222 1267.911 556.168zM1230.586 559.868c-.215-4.102 1.535-9.545 6.46-9.562 4.698-.017 8.195 4.03 8.466 8.517.311 5.166-2.654 10.031-6.526 13.208-.582.478-1.187.909-1.807 1.308-.028-.027-.058-.051-.086-.079C1233.579 569.731 1230.851 564.933 1230.586 559.868z" fill="#021b79" class="color000000 svgShape"></path><path fill="#91c8ff" d="M1013.824 839.84c1.074 1.734 1.416 3.826.914 5.883-.664 2.716-2.663 4.807-5.348 5.591l-25.921 7.56c-2.685.783-5.495.096-7.516-1.838-2.018-1.934-2.83-4.712-2.165-7.427l6.413-26.228c.664-2.718 2.664-4.807 5.349-5.59 2.685-.783 5.494-.095 7.514 1.839l19.507 18.667C1013.061 838.766 1013.48 839.284 1013.824 839.84zM979.9 852.294c.095.153.198.266.27.334.205.197.771.628 1.59.389l25.92-7.559c.819-.239 1.064-.907 1.132-1.183.068-.275.159-.978-.458-1.57l-19.508-18.668c-.617-.591-1.317-.469-1.589-.389-.273.08-.929.354-1.132 1.182l-6.413 26.227C979.581 851.595 979.726 852.012 979.9 852.294zM964.689 886.81c.896 1.832 1.028 3.948.323 5.945-.932 2.637-3.129 4.517-5.879 5.03l-26.545 4.939c-2.75.512-5.477-.452-7.295-2.577-1.815-2.125-2.346-4.97-1.415-7.605l8.994-25.458c.932-2.638 3.13-4.518 5.88-5.029 2.749-.511 5.476.452 7.294 2.578l17.55 20.518C964.037 885.667 964.402 886.224 964.689 886.81zM929.693 895.823c.079.162.171.284.236.36.185.216.705.702 1.543.545l26.545-4.939c.838-.157 1.149-.797 1.244-1.064.095-.267.255-.958-.299-1.608l-17.55-20.519c-.555-.649-1.264-.598-1.543-.545-.28.052-.96.26-1.245 1.063l-8.994 25.458C929.445 895.095 929.547 895.525 929.693 895.823zM898.299 920.973c.54 1.967.277 4.07-.786 5.901-1.405 2.418-3.914 3.858-6.71 3.851l-27.001-.076c-2.797-.008-5.298-1.461-6.69-3.887-1.389-2.425-1.382-5.319.022-7.736l13.565-23.345c1.405-2.419 3.915-3.858 6.711-3.85 2.797.008 5.297 1.461 6.688 3.888l13.435 23.42C897.87 919.728 898.126 920.344 898.299 920.973zM862.238 923.33c.048.174.115.311.165.397.141.247.562.82 1.415.822l27 .076c.853.002 1.277-.569 1.42-.815.143-.244.429-.893.005-1.636l-13.435-23.421c-.424-.741-1.131-.822-1.415-.822-.284-.001-.991.077-1.42.814l-13.565 23.345C862.13 922.569 862.15 923.011 862.238 923.33z" class="colorff91da svgShape"></path><path fill="#9eceff" d="M269.054,784.869c0-10.766,8.728-19.494,19.495-19.494c10.766,0,19.495,8.728,19.495,19.494
	c0,10.767-8.728,19.495-19.495,19.495C277.782,804.364,269.054,795.636,269.054,784.869z" class="colorffec9e svgShape"></path><circle cx="871.202" cy="120.077" r="19.495" fill="#9eceff" transform="rotate(-80.781 871.205 120.063)" class="colorffec9e svgShape"></circle><circle cx="1142.667" cy="349.444" r="19.495" fill="#9eceff" transform="rotate(-80.781 1142.675 349.425)" class="colorffec9e svgShape"></circle><ellipse cx="425.701" cy="63.999" fill="#9eceff" rx="19.494" ry="19.495" transform="rotate(-80.781 425.702 63.992)" class="colorffec9e svgShape"></ellipse><path fill="#9eceff" d="M164.349,560.299c0-7.783,6.31-14.092,14.093-14.092c7.783,0,14.093,6.309,14.093,14.092
	c0,7.783-6.31,14.093-14.093,14.093C170.658,574.391,164.349,568.082,164.349,560.299z" class="colorffec9e svgShape"></path></svg>