<svg xmlns="http://www.w3.org/2000/svg" viewBox="0 0 1364 960" id="Lawandorder"><path fill="#96b7d9" d="M224.54 670.937c-2.422-3.748-.332-9.11 3.429-11.495 3.76-2.386 8.562-2.432 12.981-1.764 7.148 1.08 13.42 3.586 19.858 6.494a296.782 296.782 0 0 1-12.74-15.536 304.23 304.23 0 0 1-7.841-10.714c-8.466 5.391-18.567 8.192-28.601 7.897-3.803-.112-8.082-.95-10.139-4.15-2.404-3.74-.313-9.102 3.434-11.493 3.748-2.391 8.526-2.447 12.923-1.789 7.381 1.106 13.822 3.75 20.482 6.782-7.692-11.274-14.594-23.095-20.419-35.426-9.114 3.84-19.367 4.949-29.083 3.094-3.738-.713-7.829-2.218-9.353-5.705-1.779-4.073 1.135-9.036 5.215-10.802 4.079-1.767 8.806-1.065 13.043.283 6.864 2.183 12.636 5.641 18.509 9.52-5.935-13.095-10.891-27.221-11.6-41.624-.015-.299-.016-.6-.029-.9-9.657 2.593-20.092 2.25-29.549-1.009-3.598-1.24-7.433-3.314-8.443-6.981-1.18-4.286 2.414-8.782 6.703-9.948 4.289-1.166 8.867.203 12.868 2.142 7.049 3.415 12.604 8.138 18.341 13.3-.365-16.659 2.34-33.456 1.402-50.076-9.796 2.74-20.424 2.447-30.044-.868-3.598-1.239-7.433-3.313-8.443-6.982-1.18-4.285 2.414-8.781 6.703-9.947 4.289-1.166 8.868.203 12.868 2.142 7.238 3.507 12.902 8.393 18.804 13.718-.308-4.149-.857-8.286-1.762-12.406-1.832-8.343-5.434-16.212-10.265-23.341-8.886 5.418-19.473 8.006-29.856 7.264-3.795-.272-8.035-1.288-9.956-4.572-2.244-3.837.07-9.107 3.915-11.338 3.845-2.232 8.622-2.087 12.986-1.245 8.004 1.545 14.809 4.874 21.989 8.559-8.035-11.343-19.188-20.706-31.258-26.934-8.601 3.896-18.306 5.347-27.666 4.076-3.771-.512-7.937-1.796-9.645-5.196-1.996-3.973.649-9.084 4.628-11.067 3.979-1.982 8.737-1.534 13.039-.415 6.863 1.785 12.734 4.859 18.709 8.35.257-.003.53.05.813.188 10.392 5.071 19.694 12.263 27.478 20.796a103.708 103.708 0 0 1 4.955 5.85c-2.526-8.832-2.622-18.357-.203-27.222 1.001-3.671 2.821-7.634 6.415-8.881 4.2-1.458 8.92 1.834 10.364 6.038 1.445 4.204.377 8.862-1.296 12.982-3.12 7.682-7.81 13.79-12.917 20.24 3.132 4.371 5.854 9.028 7.872 14.004 3.057 7.536 4.538 15.343 5.151 23.27 1.678-9.325 6.013-18.168 12.407-25.165 2.567-2.809 5.994-5.505 9.761-4.975 4.401.62 7.1 5.703 6.466 10.103-.633 4.4-3.71 8.057-7.077 10.958-6.454 5.559-13.625 8.884-21.347 12.393.631 13.102-.843 26.474-1.311 39.443-.147 4.083-.179 8.138.009 12.175 1.308-10.206 5.807-19.984 12.739-27.589 2.563-2.812 5.987-5.513 9.755-4.987 4.403.614 7.108 5.694 6.479 10.094-.628 4.4-3.699 8.062-7.063 10.968-6.593 5.695-13.94 9.053-21.858 12.662.247 4.301.766 8.58 1.71 12.846 1.727 7.802 4.339 15.397 7.395 22.771a198.446 198.446 0 0 0 2.537 5.842c.299-9.326 3.215-18.565 8.374-26.343 2.103-3.171 5.074-6.362 8.878-6.418 4.445-.066 7.894 4.542 7.946 8.986.051 4.445-2.424 8.533-5.306 11.918-5.323 6.255-11.624 10.56-18.423 15.034 5.692 12.047 12.53 23.579 20.057 34.573-2.088-9.511-1.381-19.628 2.069-28.737 1.348-3.558 3.537-7.329 7.234-8.227 4.319-1.049 8.704 2.678 9.74 7.001 1.036 4.323-.471 8.857-2.53 12.798-3.907 7.477-9.277 13.176-15.091 19.223a323.046 323.046 0 0 0 3.058 4.323c5.662 7.85 11.7 15.474 18.141 22.737-1.892-9.294-1.131-19.124 2.231-27.997 1.348-3.558 3.537-7.329 7.234-8.228 4.319-1.049 8.705 2.679 9.741 7.001 1.036 4.323-.472 8.857-2.531 12.797-3.8 7.271-8.981 12.861-14.61 18.725 7.442 8.191 15.413 15.895 23.965 22.898 1.781 1.459-.604 4.121-2.382 2.665-8.635-7.072-16.669-14.868-24.177-23.144-8.511 5.407-18.682 8.207-28.794 7.891-3.82-.123-8.121-.97-10.195-4.178zM1094.95 806.27c2.397-3.287 7.645-3.263 10.905-.842 3.26 2.42 4.871 6.491 5.748 10.47 1.419 6.436 1.337 12.594.969 19.024a270.748 270.748 0 0 1 9.055-15.924 277.232 277.232 0 0 1 6.554-10.178c-7.357-5.442-13.045-13.122-16.077-21.758-1.149-3.274-1.835-7.189.216-9.986 2.396-3.269 7.644-3.243 10.904-.837 3.261 2.407 4.872 6.456 5.749 10.413 1.473 6.644 1.33 12.99.928 19.649 7.078-10.234 14.881-19.975 23.47-28.966-6.249-6.5-10.547-14.863-12.146-23.739-.616-3.414-.673-7.389 1.796-9.826 2.885-2.847 8.062-1.99 10.899.904 2.838 2.893 3.787 7.146 4.026 11.192.387 6.556-.667 12.599-2.048 18.866 9.203-9.334 19.604-18.173 31.63-23.487.25-.111.506-.21.757-.319-5.365-7.371-8.487-16.363-8.807-25.477-.122-3.467.389-7.409 3.18-9.469 3.262-2.406 8.263-.819 10.659 2.451 2.396 3.269 2.727 7.613 2.386 11.652-.601 7.116-2.803 13.389-5.32 19.96 14.058-5.76 29.238-8.953 43.076-15.187-5.536-7.441-8.763-16.582-9.088-25.853-.122-3.467.388-7.409 3.18-9.469 3.261-2.406 8.263-.818 10.658 2.451 2.396 3.269 2.728 7.613 2.386 11.652-.617 7.307-2.922 13.725-5.524 20.49 3.431-1.619 6.771-3.44 9.982-5.558 6.5-4.288 12.019-9.927 16.507-16.371-7.517-5.79-13.183-13.954-15.948-23.033-1.01-3.318-1.532-7.26.635-9.969 2.532-3.165 7.774-2.919 10.93-.377 3.157 2.542 4.596 6.655 5.307 10.644 1.303 7.317.696 14.198-.091 21.513 7.025-10.548 11.345-23.103 12.698-35.413-6.13-6.045-10.538-13.83-12.519-22.212-.797-3.377-1.068-7.343 1.267-9.908 2.728-2.998 7.944-2.419 10.932.319 2.988 2.738 4.164 6.934 4.619 10.961.726 6.424.03 12.427-.986 18.653.087.218.131.467.106.754-.916 10.503-3.995 20.772-8.71 30.188a95.58 95.58 0 0 1-3.357 6.131c6.69-5.039 14.765-8.236 23.101-9.077 3.452-.349 7.419-.096 9.657 2.554 2.615 3.097 1.357 8.191-1.748 10.796-3.105 2.605-7.419 3.22-11.472 3.144-7.558-.143-14.291-2.136-21.45-4.372-2.695 4.095-5.768 7.935-9.343 11.28-5.413 5.066-11.573 8.881-18.119 11.995 8.485-1.623 17.429-.826 25.475 2.327 3.23 1.266 6.646 3.3 7.427 6.68.912 3.948-2.531 7.908-6.483 8.808-3.952.9-8.07-.522-11.641-2.439-6.842-3.675-12.018-8.69-17.53-14.113-10.944 4.823-22.806 7.943-33.996 11.786-3.523 1.21-6.984 2.51-10.359 3.99 9.113-2.226 18.907-1.594 27.647 1.817 3.232 1.261 6.65 3.292 7.435 6.67.917 3.948-2.521 7.911-6.471 8.816-3.95.905-8.071-.511-11.645-2.424-7.003-3.749-12.264-8.902-17.926-14.46-3.579 1.617-7.052 3.459-10.373 5.657-6.075 4.022-11.684 8.729-16.96 13.742a182.716 182.716 0 0 0-4.142 4.07c8.034-2.796 16.851-3.337 25.159-1.49 3.386.753 7.074 2.237 8.366 5.456 1.51 3.761-1.283 8.204-5.049 9.701-3.766 1.498-8.055.728-11.878-.617-7.065-2.484-12.789-6.439-18.821-10.761-8.391 8.784-15.968 18.377-22.862 28.378 7.412-4.888 16.253-7.596 25.134-7.639 3.469-.017 7.395.613 9.368 3.466 2.306 3.333.568 8.284-2.772 10.579-3.34 2.296-7.692 2.496-11.719 2.033-7.641-.879-14.248-3.585-21.296-6.555a294.947 294.947 0 0 0-2.679 4.017c-4.829 7.386-9.342 15.019-13.417 22.877 7.291-4.65 15.905-7.218 24.556-7.259 3.469-.017 7.394.613 9.369 3.465 2.306 3.333.568 8.284-2.772 10.58-3.34 2.295-7.693 2.495-11.719 2.032-7.431-.855-13.884-3.437-20.715-6.309-4.537 9.013-8.485 18.317-11.648 27.885-.659 1.993-3.705.834-3.047-1.155 3.194-9.662 7.201-19.05 11.788-28.146-7.385-5.475-13.095-13.214-16.134-21.924-1.155-3.289-1.841-7.226.211-10.04z" class="colorb4d996 svgShape"></path><path fill="#6291c0" d="m270.214 710.765-1.176 52.673c-4.7-3.882-9.831-7.313-14.776-10.801-4.865-3.431-9.687-7.005-13.904-11.252-4.289-4.316-7.464-9.266-10.16-14.689-2.608-5.246-4.973-10.675-8.634-15.315-2.873-3.652-6.521-6.602-10.445-9.062-8.13-5.115-17.309-8.23-25.567-13.104-4.164-2.444-8.047-5.357-11.193-9.041-3.8-4.439-6.428-9.725-8.863-14.992-2.433-5.257-4.705-10.62-7.804-15.533-2.641-4.186-5.899-7.964-9.615-11.229-7.441-6.56-16.526-11.071-26.017-13.799-23.233-6.693-47.632-2.039-70.556 3.652-1.353.339-2.707.678-4.069 1.029-.976-13.766 19.478-23.31 32.078-24.88 8.618-1.072 17.162 2.38 25.836 2.633 43.956 1.32 73.424-11.917 90.946 39.763 1.956 5.786 3.572 11.933 7.58 16.541 18.304 18.188 67.75 9.514 66.339 47.406z" class="color62c0a6 svgShape"></path><path fill="#5279a1" d="M229.724 815.792C193.351 826.57 159.08 793.481 184.568 755c17.292-19.576-2.651-33.644-20.918-39.421-9.064-2.879-20.287-4.033-24.678-12.474-7.375-19.038 18.266-41.334-20.918-53.222-22.11-6.719-65.06 10.489-70.432-19.077-.023-.138-.05-.287-.063-.427 21.775-5.547 44.553-10.759 66.954-6.458 9.835 1.889 19.444 5.527 27.696 11.265 4.031 2.798 7.717 6.115 10.855 9.901 3.489 4.217 6.092 9 8.423 13.94 2.459 5.228 4.665 10.597 7.627 15.577 2.602 4.385 5.834 8.279 9.847 11.448 7.253 5.722 15.994 9.035 24.205 13.101 4.171 2.077 8.296 4.365 11.95 7.291 4.172 3.361 7.329 7.529 9.875 12.226 2.78 5.137 4.952 10.592 8.13 15.507 3.06 4.757 7.053 8.815 11.386 12.424 7.807 6.524 16.721 11.631 24.494 18.197.001-.001 1.64 38.87-39.277 50.994z" class="color52a18b svgShape"></path><path fill="#ffffff" d="m269.038 763.438-.036 1.359c-7.773-6.565-16.688-11.672-24.494-18.197-4.334-3.608-8.326-7.667-11.386-12.424-3.178-4.915-5.35-10.37-8.13-15.507-2.547-4.697-5.703-8.865-9.875-12.226-3.654-2.926-7.779-5.214-11.95-7.291-8.211-4.066-16.953-7.379-24.205-13.101-4.013-3.168-7.245-7.063-9.847-11.448-2.961-4.98-5.168-10.349-7.627-15.577-2.331-4.94-4.933-9.722-8.423-13.94-3.138-3.786-6.823-7.102-10.855-9.901-8.252-5.738-17.861-9.376-27.696-11.265-22.401-4.3-45.179.911-66.954 6.458a11.686 11.686 0 0 1-.125-1.075c1.362-.352 2.716-.69 4.069-1.029 22.924-5.69 47.323-10.345 70.556-3.652 9.491 2.727 18.577 7.238 26.017 13.799 3.716 3.264 6.975 7.042 9.615 11.229 3.1 4.913 5.371 10.277 7.804 15.533 2.435 5.267 5.063 10.553 8.863 14.992 3.146 3.684 7.029 6.597 11.193 9.041 8.258 4.873 17.437 7.988 25.567 13.104 3.924 2.46 7.573 5.41 10.445 9.062 3.662 4.639 6.027 10.068 8.634 15.315 2.696 5.423 5.871 10.373 10.16 14.689 4.217 4.246 9.039 7.821 13.904 11.252 4.946 3.487 10.076 6.918 14.776 10.8z" class="colorffffff svgShape"></path><path fill="#e6edf5" d="M311.337 819.344h829.574v27.24H311.337z" class="colore6e6f5 svgShape"></path><path fill="#ced7e0" d="M269.525 846.584h913.2v44.866h-913.2z" class="colorcecee0 svgShape"></path><path fill="#e6edf5" d="M311.337 354.929h829.574v42.105H311.337z" class="colore6e6f5 svgShape"></path><path fill="#dce3eb" d="M311.337 320.633h829.574v34.296H311.337z" class="colordcdceb svgShape"></path><path fill="#e6edf5" d="M816.997 439.447h78.801V776.93h-78.801z" class="colore6e6f5 svgShape"></path><path fill="#ced7e0" d="M856.288 397.034h-56.553l17.043 42.413h79.02l17.044-42.413zM856.398 819.344h56.553l-17.044-42.414h-79.019l-17.044 42.414z" class="colorcecee0 svgShape"></path><path fill="#e6edf5" d="M1025.367 439.447h78.801V776.93h-78.801z" class="colore6e6f5 svgShape"></path><path fill="#ced7e0" d="M1064.659 397.034h-56.554l17.044 42.413h79.019l17.044-42.413zM1064.768 819.344h56.553l-17.043-42.414h-79.02l-17.044 42.414z" class="colorcecee0 svgShape"></path><path fill="#e6edf5" d="M577.281 439.447h78.801V776.93h-78.801z" class="colore6e6f5 svgShape"></path><path fill="#ced7e0" d="M616.572 397.034h-56.553l17.043 42.413h79.02l17.043-42.413zM616.681 819.344h56.554l-17.044-42.414h-79.02l-17.043 42.414z" class="colorcecee0 svgShape"></path><path fill="#e6edf5" d="M362.174 439.447h78.801V776.93h-78.801z" class="colore6e6f5 svgShape"></path><path fill="#ced7e0" d="M401.465 397.034h-56.553l17.043 42.413h79.02l17.043-42.413zM401.574 819.344h56.554l-17.044-42.414h-79.02l-17.043 42.414z" class="colorcecee0 svgShape"></path><path fill="#e6edf5" d="m730.244 62.21 345.672 258.423H386.617z" class="colore6e6f5 svgShape"></path><path fill="#ced7e0" d="m731.724 110.538 248.122 182.353H482.687z" class="colorcecee0 svgShape"></path><ellipse cx="731.266" cy="217.065" fill="#e6edf5" rx="52.01" ry="40.46" class="colore6e6f5 svgShape"></ellipse><path fill="#e3f1ff" d="M651.253 823.726v56.55H486.878c-15.595 0-28.286-12.668-28.286-28.264 0-15.595 12.691-28.286 28.286-28.286h164.375z" class="colorfff4e3 svgShape"></path><path fill="#0575e6" d="M473.43 880.276h177.821v11.174H186.357c-6.642 0-12.03-5.387-12.03-12.038v-54.826c0-6.642 5.387-12.03 12.03-12.03h464.894v11.166H486.878c-24.679 0-42.079 31.778-13.448 56.554z" class="color3a67b3 svgShape"></path><path fill="#6ca1d6" d="M412.789 812.554h10.583v78.893h-10.583zM379.398 812.554h10.583v78.893h-10.583z" class="color6c93d6 svgShape"></path><path fill="#b6cade" d="M473.43 880.276h62.976l-1.255 11.174H186.357c-6.642 0-12.03-5.387-12.03-12.038v-1.247c56.432 5.705 249.649 9.108 256.069-2.713 5.311-9.779-.213-14.103-.268-28.086-.069-17.575 11.272-28.607 21.158-34.809h92.716l-1.255 11.166h-55.869c-24.679-.001-42.079 31.777-13.448 56.553z" class="colorb6d1de svgShape"></path><path fill="#6ca1d6" d="M458.592 852.011c0 15.596 12.691 28.264 28.286 28.264h164.375v11.171H486.878c-21.761 0-39.457-17.696-39.457-39.435 0-21.761 17.695-39.457 39.457-39.457h164.375v11.172H486.878c-15.595 0-28.286 12.691-28.286 28.285z" class="color6c93d6 svgShape"></path><path fill="#c2dbf5" d="M572.178 835.133H485.72a2.124 2.124 0 0 1 0-4.248h86.458c1.174 0 2.124.951 2.124 2.124a2.123 2.123 0 0 1-2.124 2.124zM634.306 875.452h-98.109a2.124 2.124 0 0 1 0-4.248h98.109a2.124 2.124 0 0 1 0 4.248zM572.178 855.727h-53.834a2.124 2.124 0 0 1 0-4.248h53.834c1.174 0 2.124.951 2.124 2.124a2.122 2.122 0 0 1-2.124 2.124zM507.763 855.727h-23.015a2.124 2.124 0 0 1 0-4.248h23.015a2.124 2.124 0 0 1 0 4.248zM624.972 855.727h-23.016a2.124 2.124 0 0 1 0-4.248h23.016a2.124 2.124 0 0 1 0 4.248zM609.251 837.257h-7.294a2.124 2.124 0 0 1 0-4.248h7.294a2.125 2.125 0 0 1 0 4.248zM524.986 875.452h-7.294a2.124 2.124 0 0 1 0-4.248h7.294a2.124 2.124 0 0 1 0 4.248zM645.847 855.727h-7.294a2.124 2.124 0 0 1 0-4.248h7.294a2.124 2.124 0 0 1 0 4.248z" class="colorf5dac2 svgShape"></path><path fill="#4e66c2" d="M578.462 843.958v24.555l12.488-8.679 12.488 8.679v-24.555z" class="colorc24e4e svgShape"></path><path fill="#6ca1d6" d="M213.662 830.182v26.245c0 2.923-.9 5.258-2.701 7.007-1.801 1.75-4.179 2.625-7.135 2.625-2.99 0-5.385-.892-7.185-2.675-1.801-1.784-2.701-4.221-2.701-7.313h4.638c.034 1.733.484 3.143 1.35 4.229.867 1.088 2.166 1.631 3.899 1.631s3.024-.518 3.873-1.554c.849-1.036 1.274-2.352 1.274-3.95v-26.245h4.688zM247.552 837.776v27.927h-4.638v-4.128c-.884 1.427-2.115 2.54-3.695 3.338-1.58.798-3.322 1.197-5.223 1.197-2.175 0-4.128-.45-5.861-1.35-1.733-.9-3.101-2.25-4.103-4.051-1.002-1.8-1.503-3.992-1.503-6.574v-16.358h4.587v15.747c0 2.752.696 4.867 2.089 6.345 1.393 1.478 3.295 2.216 5.708 2.216 2.48 0 4.434-.764 5.861-2.293 1.427-1.529 2.14-3.754 2.14-6.676v-15.339h4.638zM259.528 865.066c-1.699-.73-3.041-1.75-4.026-3.058-.986-1.307-1.529-2.811-1.631-4.51h4.79c.136 1.394.79 2.532 1.963 3.414 1.172.884 2.709 1.325 4.612 1.325 1.766 0 3.16-.39 4.179-1.172 1.019-.781 1.529-1.766 1.529-2.956 0-1.223-.544-2.132-1.631-2.727-1.088-.594-2.77-1.18-5.045-1.758-2.073-.543-3.763-1.096-5.071-1.656a8.98 8.98 0 0 1-3.363-2.497c-.935-1.104-1.401-2.556-1.401-4.357 0-1.427.424-2.735 1.274-3.924.848-1.189 2.055-2.132 3.618-2.829 1.563-.696 3.346-1.045 5.351-1.045 3.091 0 5.588.782 7.491 2.344 1.902 1.563 2.922 3.704 3.058 6.421h-4.638c-.102-1.461-.688-2.633-1.758-3.516s-2.506-1.325-4.306-1.325c-1.665 0-2.99.357-3.975 1.07-.986.714-1.478 1.648-1.478 2.803 0 .917.297 1.674.892 2.268.594.595 1.342 1.071 2.242 1.427.9.357 2.148.757 3.746 1.197 2.004.544 3.635 1.079 4.892 1.605a8.568 8.568 0 0 1 3.236 2.37c.9 1.053 1.367 2.43 1.401 4.128 0 1.529-.425 2.905-1.274 4.128-.849 1.223-2.047 2.183-3.593 2.88-1.546.696-3.321 1.044-5.325 1.044-2.141.001-4.061-.364-5.759-1.094zM287.658 841.598v16.461c0 1.359.288 2.319.867 2.88.577.561 1.58.841 3.007.841h3.414v3.924h-4.179c-2.582 0-4.519-.594-5.81-1.784-1.291-1.189-1.937-3.142-1.937-5.861v-16.461h-3.618v-3.822h3.618v-7.033h4.638v7.033h7.288v3.822h-7.288zM300.704 832.323c-.612-.612-.918-1.358-.918-2.242 0-.883.306-1.631.918-2.242.612-.612 1.358-.917 2.242-.917.849 0 1.571.305 2.166.917.594.612.892 1.359.892 2.242 0 .884-.298 1.631-.892 2.242a2.908 2.908 0 0 1-2.166.918c-.883-.001-1.63-.307-2.242-.918zm4.485 5.453v27.927h-4.638v-27.927h4.638zM313.087 844.12c1.154-2.157 2.76-3.83 4.816-5.02 2.055-1.189 4.408-1.784 7.058-1.784 3.432 0 6.26.833 8.485 2.497 2.225 1.665 3.695 3.975 4.408 6.931h-4.994c-.476-1.698-1.401-3.04-2.778-4.026-1.376-.985-3.083-1.478-5.122-1.478-2.65 0-4.79.909-6.421 2.726-1.631 1.818-2.446 4.392-2.446 7.721 0 3.364.816 5.963 2.446 7.797 1.631 1.835 3.771 2.752 6.421 2.752 2.039 0 3.737-.475 5.097-1.427 1.358-.951 2.293-2.31 2.803-4.077h4.994c-.748 2.854-2.242 5.139-4.485 6.854-2.242 1.716-5.045 2.574-8.409 2.574-2.65 0-5.003-.594-7.058-1.784-2.056-1.189-3.661-2.87-4.816-5.045-1.155-2.174-1.733-4.722-1.733-7.644.001-2.886.579-5.409 1.734-7.567zM369.348 853.472h-22.321c.17 2.752 1.113 4.901 2.829 6.447 1.715 1.546 3.796 2.319 6.242 2.319 2.004 0 3.678-.467 5.02-1.401 1.342-.934 2.285-2.183 2.828-3.746h4.995c-.748 2.684-2.242 4.867-4.485 6.549-2.243 1.682-5.029 2.523-8.358 2.523-2.65 0-5.02-.594-7.109-1.784-2.089-1.189-3.729-2.879-4.918-5.07-1.19-2.192-1.784-4.731-1.784-7.619 0-2.887.577-5.418 1.733-7.593 1.154-2.174 2.778-3.848 4.867-5.02 2.09-1.172 4.493-1.758 7.211-1.758 2.65 0 4.994.578 7.033 1.733 2.038 1.156 3.609 2.744 4.714 4.765 1.104 2.022 1.656 4.306 1.656 6.854 0 .882-.051 1.816-.153 2.801zm-5.809-8.332a7.63 7.63 0 0 0-3.185-2.905c-1.342-.662-2.828-.993-4.459-.993-2.344 0-4.34.747-5.988 2.242-1.648 1.495-2.591 3.567-2.828 6.217h17.633c-.001-1.766-.392-3.287-1.173-4.561z" class="color6c93d6 svgShape"></path><path fill="#e3f1ff" d="M219.475 744.834v56.55H383.85c15.595 0 28.287-12.669 28.287-28.264 0-15.595-12.692-28.286-28.287-28.286H219.475z" class="colorfff4e3 svgShape"></path><path fill="#476eff" d="M696.403 742.449v61.314c0 4.858-3.936 8.794-8.786 8.794H219.479v-11.174H397.3c28.632-24.777 11.231-56.546-13.448-56.546H219.479v-11.174h468.138c4.849 0 8.786 3.936 8.786 8.786z" class="colorffbc47 svgShape"></path><path fill="#94c9ff" d="M458.005 812.554h-10.583v-78.892h10.583zM484.467 812.554h-10.584v-78.892h10.584z" class="colorffd894 svgShape"></path><path fill="#9dc4eb" d="M696.403 801.399v2.364c0 4.858-3.936 8.794-8.786 8.794H340.86l-2.836-11.174h45.828c15.591 0 28.289-12.665 28.289-28.265 0-15.591-12.698-28.281-28.289-28.281h-50.58l9.528-11.174h84.02c7.042 5.95 11.488 28.803 5.065 47.874-8.998 26.733 5.424 18.672 38.905 19.846 31.15 1.1 201.88.155 225.613.016z" class="colorebcf9d svgShape"></path><path fill="#2e5aff" d="M391.525 745.893c-5.193-6.151-12.954-10.067-21.614-10.067H219.475v9.008H383.85c2.66 0 5.233.371 7.675 1.059z" class="colorffb32e svgShape"></path><path fill="#94c9ff" d="M423.307 773.118c0 21.737-17.694 39.439-39.455 39.439H219.479v-11.174h164.373c15.591 0 28.289-12.665 28.289-28.265 0-15.591-12.698-28.281-28.289-28.281H219.479v-11.174h164.373c21.761 0 39.455 17.694 39.455 39.455z" class="colorffd894 svgShape"></path><path fill="#c2dbf5" d="M323.742 755.656h-96.819a2.124 2.124 0 0 1 0-4.248h96.819a2.123 2.123 0 1 1 0 4.248zM392.966 795.975H283.165a2.124 2.124 0 0 1 0-4.248h109.801a2.124 2.124 0 0 1 0 4.248zM323.742 776.25h-60.467a2.124 2.124 0 0 1 0-4.247h60.467a2.123 2.123 0 1 1 0 4.247zM251.969 776.25h-26.13a2.124 2.124 0 0 1 0-4.248h26.13a2.125 2.125 0 0 1 0 4.248zM382.567 776.25h-26.13a2.124 2.124 0 0 1 0-4.248h26.13a2.124 2.124 0 0 1 0 4.248zM367.377 755.656h-8.612a2.124 2.124 0 0 1 0-4.248h8.612a2.123 2.123 0 1 1 0 4.248zM271.159 795.975h-8.612a2.124 2.124 0 0 1 0-4.248h8.612a2.124 2.124 0 0 1 0 4.248zM405.826 776.25h-8.612a2.124 2.124 0 0 1 0-4.248h8.612c1.173 0 2.124.951 2.124 2.124a2.125 2.125 0 0 1-2.124 2.124z" class="colorf5dac2 svgShape"></path><path fill="#4e66c2" d="M352.012 760.748v24.72l-11.065-8.737-11.065 8.737v-24.72z" class="colorc24e4e svgShape"></path><path fill="#254ee6" d="M522.525 787.982h16.484v4.999h-22.631v-47.087h6.148v42.088zM545.561 764.37c1.53-2.859 3.637-5.077 6.316-6.655 2.679-1.576 5.664-2.365 8.952-2.365 3.243 0 6.057.699 8.445 2.095 2.387 1.397 4.165 3.153 5.337 5.269v-6.756h6.215v37.021h-6.215v-6.891c-1.216 2.162-3.029 3.952-5.438 5.37-2.41 1.419-5.214 2.128-8.411 2.128-3.288 0-6.26-.811-8.917-2.432-2.658-1.621-4.753-3.895-6.283-6.823-1.532-2.927-2.297-6.26-2.297-9.998-.001-3.782.765-7.102 2.296-9.963zm27.361 2.736c-1.126-2.071-2.646-3.659-4.56-4.763-1.915-1.103-4.02-1.656-6.316-1.656-2.297 0-4.392.541-6.283 1.621-1.892 1.081-3.401 2.658-4.526 4.729-1.127 2.072-1.689 4.504-1.689 7.297 0 2.837.562 5.303 1.689 7.397 1.125 2.095 2.634 3.693 4.526 4.797 1.891 1.104 3.986 1.655 6.283 1.655 2.296 0 4.402-.551 6.316-1.655 1.913-1.103 3.434-2.702 4.56-4.797 1.125-2.094 1.689-4.537 1.689-7.33 0-2.79-.564-5.223-1.689-7.295zM640.546 755.96l-11.552 37.021h-6.351l-8.917-29.387-8.918 29.387h-6.35l-11.62-37.021h6.283l8.512 31.076 9.188-31.076h6.283l8.985 31.144 8.377-31.144h6.08z" class="colore68925 svgShape"></path><path fill="#e3f1ff" d="M654.707 731.298c-2.44-.872-408.036 1.658-409.784-.862-9.86-4.593-18.197-12.35-23.542-21.812h-.065v-51.832h.039c5.676-10.061 14.719-18.174 25.373-22.66h407.246c-9.621 31.478-5.878 65.437.733 97.166z" class="colorfff4e3 svgShape"></path><path fill="#021b79" d="M660.928 720.599a7.788 7.788 0 0 1 2.306 5.555 7.858 7.858 0 0 1-7.86 7.859H259.866c-7.244 0-14.147-1.454-20.421-4.1a42.689 42.689 0 0 1-1.925-.865 37.452 37.452 0 0 1-1.939-.957c-.524-.275-1.048-.55-1.572-.852-.551-.314-1.1-.629-1.637-.968a46.643 46.643 0 0 1-1.362-.852c-.471-.315-.943-.628-1.401-.956-.406-.29-.812-.577-1.206-.865a44.428 44.428 0 0 1-1.231-.957c-.366-.288-.72-.576-1.06-.864-.38-.315-.747-.63-1.114-.957a28.777 28.777 0 0 1-.93-.852 36.504 36.504 0 0 1-1.035-.97l-.432-.432c-.144-.144-.275-.274-.406-.42a19.29 19.29 0 0 1-.904-.956 16.944 16.944 0 0 1-.799-.864c-.275-.314-.564-.629-.825-.957a13.737 13.737 0 0 1-.707-.851 28.037 28.037 0 0 1-.773-.969c-.223-.275-.432-.564-.641-.852-.236-.315-.472-.628-.694-.955-.209-.289-.419-.577-.603-.865-.223-.315-.432-.643-.641-.957-.183-.288-.367-.563-.537-.851-.197-.315-.393-.642-.59-.969-.17-.288-.341-.577-.497-.865a.558.558 0 0 1-.066-.118 52.477 52.477 0 0 1-6.746-25.818c0-9.379 2.45-18.181 6.746-25.818l.04-.078c.157-.288.328-.577.497-.852.183-.328.38-.655.59-.97.17-.287.353-.563.537-.852.196-.314.405-.641.628-.956.197-.288.393-.576.603-.865.223-.327.458-.641.694-.956.209-.288.418-.576.641-.852.249-.327.511-.655.76-.969.236-.288.472-.576.707-.852.275-.328.55-.641.839-.957.249-.301.511-.589.786-.864.288-.328.589-.642.903-.956.275-.288.564-.577.852-.865.328-.315.668-.642 1.009-.956.301-.288.616-.577.943-.852.367-.328.747-.655 1.127-.97.341-.288.681-.577 1.035-.852.405-.328.812-.641 1.231-.956a97.53 97.53 0 0 1 1.192-.865c.459-.328.93-.641 1.402-.957.445-.287.891-.576 1.349-.851.537-.34 1.087-.655 1.637-.97a50.035 50.035 0 0 1 3.484-1.807 44.417 44.417 0 0 1 1.926-.865 52.584 52.584 0 0 1 20.539-4.153h395.509c2.175 0 4.139.878 5.554 2.306a7.787 7.787 0 0 1 2.306 5.553 7.85 7.85 0 0 1-7.86 7.86H261.241c-1.322 0-2.632.066-3.916.197-1.913.183-3.772.51-5.593.956-.996.249-1.992.536-2.961.864a34.23 34.23 0 0 0-4.479 1.809c-.642.301-1.271.615-1.9.969-.497.263-.982.537-1.468.852-.511.301-1.021.616-1.519.956-.419.275-.838.563-1.244.865-.432.315-.838.629-1.257.956-.354.275-.694.564-1.035.852-.367.315-.733.628-1.087.97-.301.275-.602.563-.904.852-.328.314-.641.628-.943.956-.275.288-.537.576-.786.865-.288.314-.563.629-.812.956-.249.275-.485.563-.694.852-.262.315-.498.642-.733.97-.223.287-.432.576-.628.864-.21.315-.42.628-.616.944-.196.288-.38.576-.536.864-.21.315-.393.642-.577.97-.17.288-.328.564-.459.852-.183.315-.341.628-.497.956-.145.288-.288.576-.406.865-.157.314-.301.629-.432.956-.131.288-.236.563-.341.852a9.835 9.835 0 0 0-.367.97c-.118.275-.209.563-.301.852a7.913 7.913 0 0 0-.301.956 10.52 10.52 0 0 0-.262.864c-.092.315-.17.642-.249.957a8.952 8.952 0 0 0-.196.852c-.078.314-.144.642-.196.969a9.29 9.29 0 0 0-.157.852c-.065.315-.104.628-.144.956a9.48 9.48 0 0 0-.118.864c-.039.315-.066.629-.092.957a9.651 9.651 0 0 0-.065.865c-.026.314-.039.629-.039.957-.026.275-.039.564-.026.851-.013.157-.013.301-.013.459 0 .17 0 .341.013.511 0 .287 0 .576.026.852 0 .327.014.641.039.956.013.288.039.576.078.865.013.328.04.642.093.957.025.288.065.576.117.852.026.327.078.655.144.969.04.288.092.577.158.865.052.315.117.628.196.944.052.288.118.576.196.864.079.328.157.642.249.97.078.288.171.576.262.852.091.328.183.641.314.956.079.288.17.577.288.851.105.328.236.642.367.97.104.288.223.563.353.852.132.328.276.642.433.956.118.288.262.577.406.865.158.328.315.642.498.957.145.288.301.563.459.852.183.327.367.655.576.969.17.288.341.576.537.852.196.328.406.641.629.956.196.288.406.577.629.864.223.328.471.642.72.957.223.288.445.576.695.852.262.328.536.655.838.969.249.301.511.577.786.865.301.315.615.641.93.943.301.301.615.59.917.865.353.339.72.655 1.1.969.341.288.682.577 1.036.851.42.328.838.655 1.271.957.406.301.825.589 1.245.865.497.34.995.655 1.519.955.485.302.982.589 1.494.852a25.31 25.31 0 0 0 1.9.969c.615.301 1.257.589 1.899.851.865.354 1.742.669 2.633.957.995.34 2.004.628 3.04.864 1.964.485 3.994.799 6.064.956 1.062.105 2.123.145 3.209.145h394.134a7.747 7.747 0 0 1 5.546 2.297z" class="color4d4d73 svgShape"></path><path fill="#c2dbf5" d="M459.328 664.244H256.272a2.124 2.124 0 0 1 0-4.248h203.055c1.173 0 2.124.951 2.124 2.124a2.123 2.123 0 0 1-2.123 2.124zM601.315 704.562H371.634a2.124 2.124 0 0 1 0-4.248h229.681a2.123 2.123 0 0 1 0 4.248zM459.328 684.837H330.834a2.124 2.124 0 0 1 0-4.248h128.493c1.173 0 2.124.951 2.124 2.124a2.122 2.122 0 0 1-2.123 2.124zM312.111 684.837H254.05a2.124 2.124 0 0 1 0-4.248h58.061c1.173 0 2.124.951 2.124 2.124a2.125 2.125 0 0 1-2.124 2.124zM579.983 684.837h-58.06a2.124 2.124 0 0 1 0-4.248h58.06a2.124 2.124 0 0 1 0 4.248zM544.052 666.367h-22.129a2.123 2.123 0 1 1 0-4.247h22.129a2.123 2.123 0 1 1 0 4.247zM351.472 704.562h-22.129a2.124 2.124 0 0 1 0-4.248h22.129a2.123 2.123 0 1 1 0 4.248zM627.691 684.837h-22.129a2.124 2.124 0 0 1 0-4.248h22.129a2.123 2.123 0 1 1 0 4.248z" class="colorf5dac2 svgShape"></path><path fill="#516dd4" d="m499.667 692.123-13.253-7.533-13.253 7.533v-32.128h26.506z" class="colord45151 svgShape"></path><path fill="#e3f1ff" d="M776.058 821.731v56.55h164.375c15.595 0 28.287-12.669 28.287-28.264 0-15.595-12.692-28.286-28.287-28.286H776.058z" class="colorfff4e3 svgShape"></path><path fill="#021b79" d="M1252.986 819.346v61.314c0 4.858-3.937 8.794-8.786 8.794H776.062V878.28h177.821c28.632-24.777 11.231-56.546-13.448-56.546H776.062V810.56H1244.2c4.849.001 8.786 3.937 8.786 8.786z" class="color4d4d73 svgShape"></path><path fill="#94c9ff" d="M1014.587 889.451h-10.583V810.56h10.583zM1041.05 889.451h-10.584V810.56h10.584z" class="colorffd894 svgShape"></path><path fill="#c5d8eb" d="M1252.986 878.297v2.364c0 4.858-3.937 8.794-8.786 8.794H897.442l-2.836-11.174h45.828c15.591 0 28.289-12.665 28.289-28.265 0-15.591-12.698-28.281-28.289-28.281h-50.58l9.528-11.174h84.02c7.042 5.95 11.488 28.803 5.065 47.874-8.998 26.733 5.424 18.672 38.905 19.846 31.15 1.1 201.88.154 225.614.016z" class="colorc5d4eb svgShape"></path><path fill="#2e5aff" d="M948.107 822.791c-5.193-6.151-12.954-10.067-21.614-10.067H776.058v9.008h164.375c2.659-.001 5.233.37 7.674 1.059z" class="colorffb32e svgShape"></path><path fill="#7d8fa1" d="M979.889 850.016c0 21.737-17.694 39.439-39.455 39.439H776.062V878.28h164.373c15.591 0 28.289-12.665 28.289-28.265 0-15.591-12.698-28.281-28.289-28.281H776.062V810.56h164.373c21.76.001 39.454 17.695 39.454 39.456z" class="color7d7da1 svgShape"></path><path fill="#c2dbf5" d="M880.325 832.554h-96.819a2.124 2.124 0 0 1 0-4.248h96.819a2.125 2.125 0 0 1 0 4.248zM949.548 872.873h-109.8a2.124 2.124 0 0 1 0-4.248h109.801c1.173 0 2.124.951 2.124 2.124a2.126 2.126 0 0 1-2.125 2.124zM880.325 853.147h-60.467a2.124 2.124 0 0 1 0-4.247h60.467a2.123 2.123 0 1 1 0 4.247zM808.551 853.147h-26.13a2.124 2.124 0 0 1 0-4.248h26.13a2.123 2.123 0 1 1 0 4.248zM939.149 853.147h-26.13a2.124 2.124 0 0 1 0-4.248h26.13a2.123 2.123 0 0 1 0 4.248zM923.96 832.554h-8.612a2.124 2.124 0 0 1 0-4.248h8.612a2.125 2.125 0 0 1 0 4.248zM827.742 872.873h-8.612a2.124 2.124 0 0 1 0-4.248h8.612a2.124 2.124 0 0 1 0 4.248zM962.408 853.147h-8.612a2.124 2.124 0 0 1 0-4.248h8.612a2.124 2.124 0 0 1 0 4.248z" class="colorf5dac2 svgShape"></path><path fill="#4e66c2" d="M908.595 837.646v24.72l-11.065-8.737-11.065 8.737v-24.72z" class="colorc24e4e svgShape"></path><path fill="#7d8fa1" d="M1079.108 864.879h16.484v4.999h-22.631v-47.087h6.148v42.088zM1102.144 841.268c1.53-2.859 3.636-5.077 6.316-6.655 2.679-1.576 5.664-2.365 8.952-2.365 3.243 0 6.057.699 8.445 2.095 2.387 1.397 4.165 3.153 5.337 5.269v-6.756h6.215v37.021h-6.215v-6.891c-1.216 2.162-3.029 3.952-5.438 5.37-2.41 1.419-5.214 2.128-8.411 2.128-3.288 0-6.26-.811-8.917-2.432-2.658-1.621-4.753-3.895-6.283-6.823-1.532-2.927-2.297-6.26-2.297-9.998-.001-3.782.764-7.102 2.296-9.963zm27.361 2.736c-1.126-2.071-2.646-3.659-4.56-4.763-1.915-1.103-4.02-1.656-6.316-1.656-2.297 0-4.392.541-6.283 1.621-1.892 1.081-3.401 2.658-4.526 4.729-1.127 2.072-1.689 4.504-1.689 7.297 0 2.837.562 5.303 1.689 7.397 1.125 2.095 2.634 3.693 4.526 4.797 1.891 1.104 3.986 1.655 6.283 1.655 2.296 0 4.402-.551 6.316-1.655 1.913-1.103 3.434-2.702 4.56-4.797 1.125-2.094 1.689-4.537 1.689-7.33 0-2.791-.564-5.223-1.689-7.295zM1197.128 832.857l-11.552 37.021h-6.351l-8.917-29.387-8.918 29.387h-6.35l-11.62-37.021h6.283l8.512 31.076 9.188-31.076h6.283l8.985 31.144 8.377-31.144h6.08z" class="color7d7da1 svgShape"></path><path fill="#43538f" d="m445.283 579.394 8.198-31.08a.488.488 0 0 1 .597-.348l176.105 46.451c8.844 2.332 14.122 11.393 11.789 20.236-2.333 8.844-11.393 14.121-20.236 11.789l-176.106-46.45a.489.489 0 0 1-.347-.598z" class="color8f5343 svgShape"></path><path fill="#cad5e0" d="m447.352 571.55 167.179 44.096c8.843 2.333 17.904-2.945 20.236-11.789.65-2.463.69-4.937.247-7.284 5.809 3.795 8.825 11.003 6.959 18.08-2.333 8.844-11.393 14.121-20.236 11.789l-176.107-46.45a.488.488 0 0 1-.348-.597l2.07-7.845z" class="colore0cfca svgShape"></path><path fill="#476eff" d="M454.731 542.818a5.448 5.448 0 0 0-6.656 3.877l-8.061 30.562a5.446 5.446 0 1 0 10.533 2.778l8.061-30.562a5.448 5.448 0 0 0-3.877-6.655z" class="colorffbc47 svgShape"></path><path fill="#43538f" d="m440.45 575.952-25.214-6.649 7.174-27.2 25.213 6.649z" class="color8f5343 svgShape"></path><path fill="#cad5e0" d="M430.653 568.99a6.624 6.624 0 0 0 8.095-4.716l4.415-16.739 4.474 1.18-7.175 27.201-25.214-6.651 1.07-4.058 14.335 3.783z" class="colore0cfca svgShape"></path><path fill="#43538f" d="M413.449 581.246c-.947 14.307 7.647 32.688-1.921 44.959-10.034 12.87-37.329-4.842-50.407-6.737-14.503-2.102-41.871.613-45.119-18.035-1.943-11.155 12.766-22.704 17.891-40.863.001-.001 52.685 13.788 79.556 20.676zM345.844 510.176c.947-14.307-7.03-33.341 2.537-45.612 10.034-12.87 37.329 4.842 50.407 6.737 14.503 2.102 41.871-.613 45.119 18.035 1.943 11.155-12.766 22.704-17.891 40.863 0 .001-53.301-13.135-80.172-20.023z" class="color8f5343 svgShape"></path><path fill="#324280" d="m426.395 529.438-12.545 52.55-80.564-19.232 12.545-52.55z" class="color804232 svgShape"></path><path fill="#476eff" d="m422.639 545.138-4.285 17.952-80.553-19.23 4.286-17.95z" class="colorffbc47 svgShape"></path><path fill="#cad5e0" d="M361.12 619.459c13.07 1.899 40.368 19.615 50.406 6.739 9.442-12.094 1.23-30.134 1.91-44.341l.428.101 12.536-52.551-.119-.03c4.243-14.058 14.098-24.139 16.98-33.21.502-1.851 1.729-4.626-.247-10.076-1.214-3.348-3.07-4.95-3.07-4.95-8.141 12.346-31.319 50.066-35.905 86.058-5.452 42.573-51.43 39.124-82.637 17.817-3.637 5.986-6.301 11.229-5.393 16.406 3.242 18.661 30.616 15.943 45.111 18.037z" class="colore0cfca svgShape"></path><path fill="#43538f" d="M1028.207 232.607v553.999h-33.633V232.607c0-8.334 1.674-15.401 9.575-16.462l14.506-.207c8.461 1.164 9.552 7.439 9.552 16.669z" class="color8f5343 svgShape"></path><path fill="#43538f" d="M1238.571 312.353c-72.052-22.988-154.964-27.839-230.599-26.296-75.635-1.543-158.547 3.308-230.599 26.296-10.143 3.197-5.788 19.184 4.41 15.932 70.288-22.437 150.829-26.627 224.314-25.69h3.748c73.485-.937 154.026 3.253 224.314 25.69 10.2 3.253 14.554-12.734 4.412-15.932z" class="color8f5343 svgShape"></path><path fill="#43538f" d="M786.589 536.201h9.421l-1.823-222.254h-4.214z" class="color8f5343 svgShape"></path><path fill="#43538f" d="m863.545 540.75 7.975-3.901-78.706-221.944-3.2 1.331z" class="color8f5343 svgShape"></path><path fill="#43538f" d="m717.63 540.884-7.964-3.903 80.831-221.284 3.556 1.526zM1046.688 781.736v-4.969c0-11.689-10.676-21.19-23.811-21.19h-23.001c-13.135 0-23.782 9.501-23.782 21.19v4.969h70.594z" class="color8f5343 svgShape"></path><path fill="#43538f" d="M1064.163 810.56v-7.165c0-16.855-15.962-30.554-35.6-30.554h-34.389c-19.638 0-35.557 13.699-35.557 30.554v7.165h105.546z" class="color8f5343 svgShape"></path><circle cx="1011.391" cy="292.602" r="29.952" fill="#476eff" class="colorffbc47 svgShape"></circle><path fill="#476eff" d="M701.991 536.2c-.049 41.683 28.364 76.755 66.939 86.719 0 0 0 .049.049 0a89.268 89.268 0 0 0 22.247 2.812c49.377.049 89.333-39.956 89.382-89.334l-155.138-.148-23.479-.049z" class="colorffbc47 svgShape"></path><path fill="#e6e6e6" d="M880.609 536.2c.049 41.683-28.364 76.755-66.939 86.719 9.324-7.054 17.808-14.996 24.517-24.615 12.727-18.4 18.942-39.956 18.942-62.055l23.48-.049z" class="colore6e6e6 svgShape"></path><ellipse cx="734.913" cy="574.471" fill="#999999" rx="9.565" ry="25.257" transform="rotate(-32.814 734.937 574.49)" class="color999999 svgShape"></ellipse><path fill="#43538f" d="M1222.58 536.201h9.422l-1.824-222.254h-4.214z" class="color8f5343 svgShape"></path><path fill="#43538f" d="m1299.536 540.75 7.975-3.901-78.705-221.944-3.201 1.331z" class="color8f5343 svgShape"></path><path fill="#43538f" d="m1153.622 540.884-7.965-3.903 80.831-221.284 3.556 1.526z" class="color8f5343 svgShape"></path><path fill="#476eff" d="M1137.982 536.2c-.049 41.683 28.364 76.755 66.939 86.719 0 0 0 .049.049 0a89.268 89.268 0 0 0 22.247 2.812c49.377.049 89.333-39.956 89.382-89.334l-155.138-.148-23.479-.049z" class="colorffbc47 svgShape"></path><path fill="#e6e6e6" d="M1316.6 536.2c.049 41.683-28.364 76.755-66.939 86.719 9.324-7.054 17.808-14.996 24.517-24.615 12.727-18.4 18.942-39.956 18.942-62.055l23.48-.049z" class="colore6e6e6 svgShape"></path><ellipse cx="1170.904" cy="574.471" fill="#999999" rx="9.565" ry="25.257" transform="rotate(-32.814 1170.943 574.49)" class="color999999 svgShape"></ellipse><path fill="#e6edf5" d="M1312.431 897.79H110.903a4.169 4.169 0 1 1 0-8.338h1201.528a4.17 4.17 0 0 1 0 8.338z" class="colore6e6f5 svgShape"></path><path fill="#516dd4" d="M1161.782 670.225c.504.814.665 1.796.429 2.762a3.597 3.597 0 0 1-2.511 2.625l-12.171 3.55a3.596 3.596 0 0 1-3.529-.863 3.597 3.597 0 0 1-1.017-3.487l3.011-12.315a3.597 3.597 0 0 1 2.512-2.625 3.595 3.595 0 0 1 3.528.863l9.16 8.765c.23.221.427.464.588.725zm-15.929 5.848a.77.77 0 0 0 .127.157.754.754 0 0 0 .747.182l12.171-3.55a.754.754 0 0 0 .531-.556.752.752 0 0 0-.215-.737l-9.16-8.766a.756.756 0 0 0-.746-.183.756.756 0 0 0-.532.555l-3.011 12.315a.74.74 0 0 0 .088.583zM285.24 428.999c.504.814.665 1.796.429 2.762a3.599 3.599 0 0 1-2.511 2.625l-12.171 3.55a3.596 3.596 0 0 1-3.529-.863 3.597 3.597 0 0 1-1.017-3.487l3.011-12.315a3.597 3.597 0 0 1 2.512-2.625 3.595 3.595 0 0 1 3.528.863l9.16 8.765c.23.221.426.464.588.725zm-15.929 5.848a.77.77 0 0 0 .127.157.754.754 0 0 0 .747.182l12.171-3.55a.754.754 0 0 0 .531-.556.752.752 0 0 0-.215-.737l-9.16-8.766a.756.756 0 0 0-.746-.183.756.756 0 0 0-.532.555l-3.011 12.315a.741.741 0 0 0 .088.583z" class="colord45151 svgShape"></path><path fill="#6bb5ff" d="m1134.874 229.748 4.477-4.477a2.603 2.603 0 0 0-3.68-3.68l-4.477 4.477-4.477-4.477a2.603 2.603 0 0 0-3.68 3.68l4.477 4.477-4.469 4.469a2.6 2.6 0 0 0 1.84 4.442c.666 0 1.332-.254 1.84-.762l4.469-4.469 4.469 4.469c.508.508 1.174.762 1.84.762s1.332-.254 1.84-.762a2.6 2.6 0 0 0 0-3.68l-4.469-4.469zM228.479 256.494l4.477-4.477a2.603 2.603 0 0 0-3.68-3.68l-4.477 4.477-4.477-4.477a2.603 2.603 0 0 0-3.68 3.68l4.477 4.477-4.469 4.469a2.6 2.6 0 0 0 1.84 4.442c.666 0 1.332-.254 1.84-.762l4.469-4.469 4.469 4.469a2.594 2.594 0 0 0 1.84.762 2.6 2.6 0 0 0 1.84-4.442l-4.469-4.469z" class="colorffb86b svgShape"></path><path fill="#0575e6" d="M1137.409 480.363c-5.638 0-10.226-4.587-10.226-10.225s4.587-10.226 10.226-10.226 10.226 4.587 10.226 10.226c0 5.637-4.588 10.225-10.226 10.225zm0-17.252a7.034 7.034 0 0 0-7.026 7.026 7.034 7.034 0 0 0 7.026 7.026 7.034 7.034 0 0 0 7.026-7.026 7.034 7.034 0 0 0-7.026-7.026zM133.844 785.987c-5.638 0-10.226-4.587-10.226-10.225s4.587-10.226 10.226-10.226c5.638 0 10.226 4.587 10.226 10.226-.001 5.638-4.588 10.225-10.226 10.225zm0-17.251a7.034 7.034 0 0 0-7.026 7.026 7.034 7.034 0 0 0 7.026 7.026 7.034 7.034 0 0 0 7.026-7.026 7.034 7.034 0 0 0-7.026-7.026z" class="color3a67b3 svgShape"></path></svg>