<svg xmlns="http://www.w3.org/2000/svg" enable-background="new 0 0 2500 2500" viewBox="0 0 2500 2500" id="Lawandjustice"><path fill="#ffffff" d="M402.28,348.7L255.31,910.23c-5.8,22.21,7.5,44.9,29.68,50.69l430.48,112.34
				c22.17,5.79,44.87-7.51,50.66-29.72l146.96-561.53c5.79-22.17-7.51-44.87-29.69-50.65L452.93,319.01
				C430.75,313.23,408.06,326.53,402.28,348.7z" class="colorffffff svgShape"></path><path d="M726.01,1078.4c-3.84,0-7.69-0.49-11.5-1.48L284.03,964.57c-24.16-6.31-38.68-31.11-32.37-55.29l146.96-561.53
				c3.05-11.7,10.49-21.51,20.92-27.63c10.44-6.12,22.64-7.81,34.33-4.75l430.48,112.34c24.16,6.31,38.69,31.09,32.38,55.26
				l-146.96,561.53c-3.06,11.71-10.49,21.54-20.93,27.66C741.81,1076.28,733.96,1078.4,726.01,1078.4z M442.39,321.43
				c-6.62,0-13.16,1.76-19.03,5.2c-8.7,5.1-14.9,13.28-17.44,23.03c0,0,0,0,0,0L258.96,911.18c-5.26,20.15,6.84,40.83,26.98,46.08
				l430.48,112.34c9.74,2.54,19.91,1.14,28.61-3.97c8.71-5.1,14.9-13.29,17.45-23.06l146.96-561.53
				c5.25-20.13-6.85-40.79-26.99-46.05L451.97,322.66C448.8,321.84,445.59,321.43,442.39,321.43z M402.28,348.7h0.04H402.28z" fill="#021b79" class="color000000 svgShape"></path><path fill="#0575e6" d="M417.1,555.99l380.99,99.43c13.75,3.59,27.81-4.65,31.4-18.4l34.96-132.35c3.59-13.75-4.65-27.81-18.4-31.4
				l-380.99-99.43c-13.75-3.59-27.81,4.65-31.4,18.4L398.7,524.59C395.11,538.34,403.35,552.4,417.1,555.99z" class="color71ffcc svgShape"></path><path d="M804.57,660.03c-2.46,0-4.96-0.31-7.45-0.96l-380.98-99.43l0,0c-7.62-1.99-14.02-6.83-18-13.63
				c-3.98-6.8-5.08-14.74-3.09-22.37l34.96-132.36c4.1-15.73,20.23-25.2,36-21.09l380.98,99.43c7.63,1.99,14.02,6.83,18,13.63
				c3.99,6.8,5.08,14.74,3.09,22.37l-34.96,132.36C829.67,651.22,817.67,660.03,804.57,660.03z M418.05,552.34l380.98,99.43
				c11.69,3.05,23.73-3.99,26.79-15.7l34.96-132.36c1.48-5.66,0.66-11.58-2.31-16.64s-7.73-8.66-13.4-10.14L464.1,377.49
				c-11.69-3.06-23.73,3.99-26.79,15.7l-34.96,132.36c-1.48,5.66-0.66,11.58,2.3,16.64C407.61,547.25,412.37,550.86,418.05,552.34
				L418.05,552.34z" fill="#021b79" class="color000000 svgShape"></path><line x1="438.05" x2="398.99" y1="636.46" y2="626.27" fill="#71ffcc"></line><path d="M438.05,640.23c-0.32,0-0.64-0.04-0.96-0.12l-39.06-10.2c-2.02-0.53-3.22-2.59-2.7-4.6c0.53-2.02,2.59-3.22,4.61-2.7
				l39.06,10.2c2.02,0.53,3.22,2.59,2.7,4.6C441.26,639.11,439.73,640.23,438.05,640.23z" fill="#021b79" class="color000000 svgShape"></path><line x1="531.25" x2="462.05" y1="660.78" y2="642.72" fill="#71ffcc"></line><path d="M531.25,664.56c-0.32,0-0.64-0.04-0.96-0.12l-69.2-18.06c-2.02-0.53-3.22-2.59-2.7-4.6c0.53-2.02,2.59-3.22,4.61-2.7
				l69.2,18.06c2.02,0.53,3.22,2.59,2.7,4.6C534.46,663.43,532.92,664.56,531.25,664.56z" fill="#021b79" class="color000000 svgShape"></path><line x1="700.62" x2="573.94" y1="704.99" y2="671.93" fill="#71ffcc"></line><path d="M700.63,708.76c-0.32,0-0.64-0.04-0.96-0.12l-126.68-33.06c-2.02-0.53-3.22-2.59-2.7-4.6c0.52-2.02,2.6-3.22,4.61-2.7
				l126.68,33.06c2.02,0.53,3.22,2.59,2.7,4.6C703.83,707.64,702.3,708.76,700.63,708.76z" fill="#021b79" class="color000000 svgShape"></path><line x1="779.54" x2="728.5" y1="725.58" y2="712.26" fill="#71ffcc"></line><path d="M779.55,729.36c-0.32,0-0.64-0.04-0.96-0.12l-51.04-13.32c-2.02-0.53-3.22-2.59-2.7-4.6c0.53-2.02,2.59-3.22,4.61-2.7
				l51.04,13.32c2.02,0.53,3.22,2.59,2.7,4.6C782.75,728.23,781.22,729.36,779.55,729.36z" fill="#021b79" class="color000000 svgShape"></path><line x1="635.03" x2="388.72" y1="729.89" y2="665.61" fill="#71ffcc"></line><path d="M635.04,733.67c-0.32,0-0.64-0.04-0.96-0.12l-246.32-64.28c-2.02-0.53-3.22-2.59-2.7-4.6c0.53-2.02,2.59-3.22,4.61-2.7
				l246.32,64.28c2.02,0.53,3.22,2.59,2.7,4.6C638.24,732.54,636.71,733.67,635.04,733.67z" fill="#021b79" class="color000000 svgShape"></path><line x1="769.27" x2="667.19" y1="764.93" y2="738.29" fill="#71ffcc"></line><path d="M769.28,768.7c-0.32,0-0.64-0.04-0.96-0.12l-102.08-26.64c-2.02-0.53-3.22-2.59-2.7-4.6c0.53-2.02,2.59-3.22,4.61-2.7
				l102.08,26.64c2.02,0.53,3.22,2.59,2.7,4.6C772.48,767.58,770.95,768.7,769.28,768.7z" fill="#021b79" class="color000000 svgShape"></path><line x1="447.3" x2="378.45" y1="722.92" y2="704.95" fill="#71ffcc"></line><path d="M447.3,726.7c-0.32,0-0.64-0.04-0.96-0.12L377.5,708.6c-2.02-0.53-3.22-2.59-2.7-4.6c0.53-2.02,2.59-3.22,4.61-2.7
				l68.85,17.97c2.02,0.53,3.22,2.59,2.7,4.6C450.51,725.57,448.98,726.7,447.3,726.7z" fill="#021b79" class="color000000 svgShape"></path><g fill="#021b79" class="color000000 svgShape"><line x1="571.26" x2="488.11" y1="755.27" y2="733.57" fill="#71ffcc"></line><path d="M571.26,759.05c-0.32,0-0.64-0.04-0.96-0.12l-83.15-21.7c-2.02-0.53-3.22-2.59-2.7-4.6c0.52-2.02,2.6-3.22,4.61-2.7
				l83.15,21.7c2.02,0.53,3.22,2.59,2.7,4.6C574.47,757.92,572.94,759.05,571.26,759.05z" fill="#021b79" class="color000000 svgShape"></path></g><g fill="#021b79" class="color000000 svgShape"><line x1="759.01" x2="594.14" y1="804.27" y2="761.24" fill="#71ffcc"></line><path d="M759.01,808.04c-0.32,0-0.64-0.04-0.96-0.12L593.19,764.9c-2.02-0.53-3.22-2.59-2.7-4.6c0.53-2.02,2.59-3.22,4.61-2.7
				l164.86,43.03c2.02,0.53,3.22,2.59,2.7,4.6C762.22,806.92,760.68,808.04,759.01,808.04z" fill="#021b79" class="color000000 svgShape"></path></g><g fill="#021b79" class="color000000 svgShape"><line x1="614.5" x2="368.18" y1="808.58" y2="744.3" fill="#71ffcc"></line><path d="M614.5,812.35c-0.32,0-0.64-0.04-0.96-0.12l-246.32-64.28c-2.02-0.53-3.22-2.59-2.7-4.6c0.53-2.02,2.58-3.22,4.61-2.7
				l246.32,64.28c2.02,0.53,3.22,2.59,2.7,4.6C617.71,811.23,616.18,812.35,614.5,812.35z" fill="#021b79" class="color000000 svgShape"></path></g><g fill="#021b79" class="color000000 svgShape"><line x1="748.74" x2="681.05" y1="843.61" y2="825.95" fill="#71ffcc"></line><path d="M748.74,847.39c-0.32,0-0.64-0.04-0.96-0.12l-67.69-17.67c-2.02-0.53-3.22-2.59-2.7-4.6c0.52-2.02,2.6-3.22,4.61-2.7
				l67.69,17.67c2.02,0.53,3.22,2.59,2.7,4.6C751.95,846.26,750.42,847.39,748.74,847.39z" fill="#021b79" class="color000000 svgShape"></path></g><g fill="#021b79" class="color000000 svgShape"><line x1="480.13" x2="357.91" y1="815.54" y2="783.64" fill="#71ffcc"></line><path d="M480.13,819.31c-0.32,0-0.64-0.04-0.96-0.12l-122.22-31.9c-2.02-0.53-3.22-2.59-2.7-4.6c0.53-2.02,2.6-3.22,4.61-2.7
				l122.22,31.9c2.02,0.53,3.22,2.59,2.7,4.6C483.34,818.19,481.81,819.31,480.13,819.31z" fill="#021b79" class="color000000 svgShape"></path></g><g fill="#021b79" class="color000000 svgShape"><line x1="738.47" x2="559.03" y1="882.96" y2="836.13" fill="#71ffcc"></line><path d="M738.47,886.73c-0.32,0-0.64-0.04-0.96-0.12l-179.44-46.83c-2.02-0.53-3.22-2.59-2.7-4.6c0.53-2.02,2.59-3.22,4.61-2.7
				l179.44,46.83c2.02,0.53,3.22,2.59,2.7,4.6C741.68,885.61,740.15,886.73,738.47,886.73z" fill="#021b79" class="color000000 svgShape"></path></g><g fill="#021b79" class="color000000 svgShape"><circle cx="369.25" cy="881.23" r="60.7" fill="#2452fe" class="colorfec524 svgShape"></circle><path d="M369.24,945.71c-5.38,0-10.84-0.68-16.27-2.1c-34.4-8.98-55.08-44.27-46.1-78.67v0c8.98-34.4,44.27-55.08,78.67-46.11
				c16.66,4.35,30.63,14.93,39.34,29.79c8.71,14.86,11.11,32.22,6.76,48.88C424.08,926.47,397.87,945.71,369.24,945.71z
				 M314.17,866.85c-7.92,30.38,10.34,61.54,40.71,69.46c30.36,7.93,61.53-10.33,69.46-40.71c3.84-14.71,1.72-30.04-5.97-43.16
				c-7.69-13.12-20.03-22.46-34.74-26.3C353.27,818.22,322.1,836.48,314.17,866.85L314.17,866.85z" fill="#021b79" class="color000000 svgShape"></path></g><g fill="#021b79" class="color000000 svgShape"><circle cx="369.25" cy="881.23" r="23.5" fill="#ffffff" class="colorffffff svgShape"></circle><path d="M369.25,908.51c-2.28,0-4.58-0.29-6.89-0.89c-14.55-3.8-23.3-18.73-19.5-33.28c0,0,0,0,0,0
				c3.8-14.56,18.74-23.3,33.28-19.5c14.55,3.8,23.3,18.73,19.5,33.28C392.45,900.37,381.36,908.51,369.25,908.51z M350.16,876.25
				c-2.74,10.53,3.58,21.33,14.11,24.07c10.52,2.75,21.32-3.58,24.07-14.11c2.74-10.53-3.58-21.33-14.11-24.07
				C363.72,859.39,352.91,865.72,350.16,876.25L350.16,876.25z" fill="#021b79" class="color000000 svgShape"></path></g><g fill="#021b79" class="color000000 svgShape"><path fill="#92c6fb" d="M1093.82 1839.03c5.21 101.9 89.48 182.93 192.67 182.93 103.2 0 187.47-81.02 192.67-182.93H1093.82zM405.51 1839.03c5.21 101.9 89.48 182.93 192.67 182.93 103.2 0 187.47-81.02 192.67-182.93H405.51z" class="colorbf92fb svgShape"></path><path fill="#ffffff" d="M1058.67,1134.86l-66.36,117.26c0,0-37.72-20.84-80.59-39.85c-18.3-8.11-65.26-38.83-84.03-60.59
							c-18.84-21.76,1.94-27.44,1.94-27.44c-19.17-25.46,12.07-30.83,12.07-30.83c-9.92-7.48-14.44-24.1-0.26-29.35
							c13.97-5.17,66.55,20.75,68.2,21.56c-1.48-1.32-55.56-42.44-35.71-58.66c23.78-19.44,109.18,61.69,109.18,61.69" class="colorffffff svgShape"></path><path d="M992.31,1255.89c-0.62,0-1.24-0.15-1.82-0.47c-0.38-0.21-38.08-20.99-80.29-39.7c-18.33-8.12-65.86-38.97-85.36-61.58
							c-7.41-8.55-10.17-16.17-8.2-22.63c1.34-4.41,4.58-7.19,7.36-8.84c-4.37-7.11-5.46-13.55-3.23-19.17
							c2.53-6.39,8.82-9.99,13.74-11.9c-4.27-5.35-6.49-12.08-5.63-17.97c0.9-6.09,4.9-10.75,11.28-13.11
							c9.16-3.39,30.45,3.86,47.65,11.01c-12.07-11.8-21.94-24.72-22-35.4c-0.03-4.81,1.96-9,5.76-12.1
							c25.6-20.93,105.18,53.34,114.17,61.87c1.51,1.43,1.57,3.82,0.14,5.33c-1.43,1.51-3.82,1.57-5.33,0.14
							c-32.1-30.48-88.79-74.11-104.2-61.5c-2.05,1.68-3,3.65-2.99,6.21c0.06,9.85,14.2,27.01,37.83,45.9
							c0.55,0.44,0.89,0.72,1,0.81c1.41,1.26,1.67,3.36,0.61,4.93c-1.06,1.56-3.11,2.11-4.8,1.27
							c-20.34-10.08-56.02-24.8-65.21-21.4c-3.78,1.4-5.94,3.79-6.43,7.13c-0.75,5.09,2.54,11.82,7.64,15.67
							c1.2,0.91,1.75,2.44,1.4,3.9s-1.54,2.57-3.02,2.83c-3.28,0.58-12.29,3.35-14.59,9.16c-1.58,4,0.07,9.28,4.89,15.68
							c0.75,1,0.96,2.31,0.56,3.49c-0.41,1.18-1.37,2.09-2.58,2.42c-0.03,0.01-5.53,1.63-6.79,5.86c-1.12,3.76,1.2,9.11,6.7,15.47
							c18.54,21.49,65.38,51.94,82.71,59.61c35.31,15.65,67.48,32.74,77.61,38.21l64.53-114.03c1.02-1.81,3.33-2.45,5.14-1.43
							c1.82,1.03,2.45,3.33,1.43,5.14l-66.36,117.26C994.9,1255.2,993.62,1255.89,992.31,1255.89z" fill="#021b79" class="color000000 svgShape"></path><path d="M892.61 1122.7c-.57 0-1.15-.13-1.69-.4l-50.9-25.54c-1.86-.93-2.62-3.2-1.68-5.06.93-1.86 3.2-2.62 5.06-1.68l50.9 25.54c1.86.93 2.62 3.2 1.68 5.06C895.32 1121.94 893.99 1122.7 892.61 1122.7zM881.47 1152.32c-.53 0-1.08-.12-1.6-.36l-51.84-24.32c-1.89-.89-2.7-3.13-1.81-5.02.88-1.88 3.12-2.7 5.02-1.81l51.84 24.32c1.89.89 2.7 3.13 1.81 5.02C884.25 1151.52 882.89 1152.32 881.47 1152.32z" fill="#021b79" class="color000000 svgShape"></path><path fill="#2452fe" d="M1000.84,1271.01l57.27,51.02l109.02-134.28l-73.82-63.43C1038.86,1089.2,946.39,1235.89,1000.84,1271.01z" class="colorfec524 svgShape"></path><path d="M1058.11 1325.8c-.92 0-1.82-.34-2.51-.96l-57.05-50.83c-12.69-8.32-18.9-22.74-17.97-41.71 1.97-40.02 35.58-92.8 70.52-110.74 16.36-8.4 31.66-8.54 44.26-.42.14.09.28.2.41.31l73.82 63.43c1.55 1.33 1.76 3.65.47 5.24l-109.02 134.28c-.65.8-1.6 1.3-2.63 1.38C1058.31 1325.8 1058.2 1325.8 1058.11 1325.8zM1074.98 1122.67c-6.33 0-13.16 1.87-20.44 5.6-32.32 16.59-64.6 67.33-66.43 104.4-.56 11.33 1.55 26.64 14.77 35.16.16.11.32.22.46.35l54.32 48.39 104.22-128.36-70.83-60.87C1086.13 1124.23 1080.76 1122.67 1074.98 1122.67zM2245.42 2186.12H447.39c-2.09 0-3.77-1.69-3.77-3.77 0-2.08 1.69-3.77 3.77-3.77h1798.04c2.09 0 3.77 1.69 3.77 3.77C2249.19 2184.43 2247.51 2186.12 2245.42 2186.12zM1714.2 1194.51c0 0-304.13 14.33-231.67-147.03 0 0-38.72-24.46-36.39-68.93 2.33-44.47 26.55-72.72 26.55-72.72s-34.35-15.29-30.72-59.35c3.63-44.07 43.54-71.3 43.54-71.3s-21.72-80.38 17.41-130.55 84.54-34.72 84.54-34.72 33.38-81.73 123.12-83.59c89.74-1.86 134.41 48.92 134.41 48.92s72.41-16.67 119.77 2.1c47.36 18.77 60.79 89.79 60.79 89.79s61.9-4.16 101.93 49.14c40.02 53.3 20.26 104.26 20.26 104.26s38.22 17.9 51.56 64.04c13.34 46.14-30.02 79.84-30.02 79.84s75.2 204.7-84.59 234.42-225.93-26.8-225.93-26.8S1800.43 1231.47 1714.2 1194.51z" fill="#021b79" class="color000000 svgShape"></path><path d="M1996.19,1211.31c-84,0-126.52-26.54-137.22-34.36c-12.2,10.73-68.25,54-145.46,21.36
									c-15.39,0.64-185.65,6.05-233.56-64.29c-15.72-23.08-16.43-51.74-2.13-85.22c-9.09-6.66-37.54-30.8-35.46-70.46
									c1.92-36.6,18.05-62.29,24.67-71.38c-9.49-5.97-31.85-24.09-28.83-60.8c3.29-39.85,34.4-66.01,43.03-72.54
									c-3.44-14.43-17.65-84.69,18.71-131.32c34.17-43.82,73.81-39.31,85.39-36.83c7.27-15.02,43.93-81.25,125.16-82.94
									c82.29-1.72,127.02,39.54,135.78,48.55c12.61-2.66,75.97-14.66,119.87,2.74c43.49,17.23,59.16,75.05,62.44,89.43
									c13.8-0.09,65.96,2.86,101.91,50.74c35.53,47.32,25.56,92.38,21.84,104.68c9.56,5.36,38.98,24.68,50.59,64.84
									c12.12,41.94-20.46,74.3-29.23,82.08c5.88,17.12,36.26,113.72-1.34,179.8c-17.3,30.4-46.56,49.62-86.97,57.14
									C2051.57,1208.82,2021.93,1211.31,1996.19,1211.31z M1858.76,1168.25c0.87,0,1.74,0.3,2.45,0.9
									c0.65,0.55,66.99,54.94,222.79,25.97c38.12-7.09,65.63-25.07,81.78-53.43c38.79-68.12,0.34-174.91-0.05-175.98
									c-0.57-1.54-0.07-3.27,1.22-4.28c0.41-0.32,41.17-32.74,28.71-75.82c-12.68-43.85-49.18-61.5-49.55-61.68
									c-1.79-0.84-2.62-2.93-1.91-4.77c0.19-0.49,18.45-49.76-19.75-100.64c-38.26-50.96-98.06-47.68-98.66-47.64
									c-1.89,0.12-3.6-1.19-3.96-3.06c-0.13-0.69-13.62-69.21-58.47-86.98c-45.75-18.13-116.82-2.1-117.53-1.93
									c-1.34,0.31-2.76-0.15-3.68-1.18c-0.44-0.49-44.73-49.45-131.5-47.65c-86.12,1.79-119.38,80.46-119.71,81.25
									c-0.76,1.85-2.83,2.78-4.71,2.14c-1.75-0.58-43.45-13.84-80.35,33.47c-37.49,48.07-16.95,126.46-16.74,127.25
									c0.42,1.55-0.19,3.19-1.51,4.1c-0.38,0.26-38.48,26.81-41.91,68.5c-3.36,40.73,27.2,55.01,28.5,55.6
									c1.08,0.49,1.87,1.46,2.13,2.62c0.26,1.16-0.04,2.37-0.81,3.28c-0.23,0.27-23.42,27.91-25.65,70.47
									c-2.18,41.65,34.27,65.31,34.64,65.55c1.58,1.01,2.19,3.02,1.42,4.73c-14.44,32.16-14.37,59.33,0.22,80.76
									c46.75,68.65,226.01,61.05,227.83,60.96c0.57-0.03,1.14,0.08,1.66,0.3c82.76,35.47,138.07-19.32,140.38-21.67
									C1856.81,1168.63,1857.78,1168.25,1858.76,1168.25z" fill="#021b79" class="color000000 svgShape"></path><path fill="#ffffff" d="M1583.66,1097.13c0,0-57.7,17.11-113.29,62.83c-55.59,45.73-152.61,145.76-152.61,145.76
									l-180.04-169.34c-47.08-13.09-152.13,137.42-115.66,175.1c0,0,188.34,196.49,299.45,210.54
									c147.37,18.63,299.5-277.49,299.5-277.49" class="colorffffff svgShape"></path><path d="M1335.13,1526.66c-4.7,0-9.39-0.29-14.1-0.88c-111.15-14.05-293.97-203.61-301.7-211.67
									c-15.78-16.3-9.51-52.43,16.77-96.64c28.01-47.1,73.5-92.81,102.62-84.71c0.59,0.16,1.13,0.47,1.58,0.89l177.33,166.8
									c15.84-16.22,100.29-102.22,150.33-143.39c55.54-45.69,114.03-63.36,114.62-63.54c2-0.6,4.1,0.55,4.69,2.54
									c0.59,2-0.55,4.1-2.55,4.69c-0.57,0.17-57.66,17.46-111.96,62.13c-54.79,45.07-151.33,144.48-152.3,145.48
									c-1.44,1.48-3.79,1.53-5.29,0.12l-179.32-168.67c-24.49-5.51-67.2,37.69-93.26,81.51c-23.71,39.87-30.7,74.24-17.82,87.55
									c1.89,1.97,188.7,195.7,297.2,209.42c143.09,18.09,294.17-272.53,295.67-275.47c0.95-1.85,3.22-2.59,5.08-1.63
									c1.85,0.95,2.58,3.23,1.63,5.08C1618.3,1258.07,1478.6,1526.64,1335.13,1526.66z" fill="#021b79" class="color000000 svgShape"></path><path fill="#ffffff" d="M1573.18,1101.38c43.64-18.81,91.92-25.73,109.97-27.94c53.55-6.57,122-6.95,187.35,2.98
									c0,0,0.04,0,0.11,0.04c24.62,3.79,48.81,9.03,71.6,15.94c36.98,11.24,70.31,26.94,95.8,48.08
									c62.55,51.9-23.63,466.61-22.79,486.84c0.04,0.6,0.04,1.3,0,2.11c-0.07,7.13-0.95,23,6.85,42.53
									c3.13,7.83,6.18,15.84,9.13,24.06c28.87,80.42,47.58,350.86,29.6,486.34h-567.05c0,0,49.62-347.17,72.27-460.42
									c2.11-10.64,4-20.68,5.58-29.96c2.56-15.28,4.35-29.74,5.06-42.84c0.42-7.76,0.46-15.07,0.03-21.81
									c-0.42-6.99-1.33-13.38-2.77-18.96c-21.95-84.35-63.22-85.26-75.96-162.88c-9.15-55.71,48.61-113.81,48.61-113.81
									s4.98-81.29,11.66-124.21" class="colorffffff svgShape"></path><path fill="#2452fe" d="M2031.2,1696.01c-126.46,36.7-381.2,29.5-465.17,25.92c2.11-10.64,4-20.68,5.58-29.96
									c2.56-15.28,4.35-29.74,5.06-42.84c145.84,17.38,377.52-11.41,438.55-19.7c-0.07,7.13-0.95,23,6.85,42.53
									C2025.2,1679.78,2028.25,1687.79,2031.2,1696.01z" class="colorfec524 svgShape"></path><path d="M2060.81,2186.12h-567.05c-1.09,0-2.13-0.47-2.85-1.3c-0.71-0.83-1.04-1.92-0.88-3.01
									c0.5-3.47,49.9-348.57,72.31-460.63c2.3-11.64,4.13-21.4,5.57-29.85c2.66-15.88,4.35-30.15,5.01-42.41
									c0.42-7.79,0.43-14.98,0.04-21.37c-0.41-6.87-1.31-13.01-2.66-18.26c-10.5-40.36-25.32-61.05-39.66-81.05
									c-15.26-21.31-29.68-41.43-36.37-82.15c-8.79-53.52,40.66-107.7,48.65-116.05c0.7-10.98,5.45-83.65,11.6-123.16
									c0.32-2.06,2.27-3.47,4.31-3.15c2.06,0.32,3.47,2.25,3.15,4.31c-6.58,42.25-11.56,123.05-11.62,123.86
									c-0.06,0.91-0.44,1.78-1.09,2.43c-0.56,0.57-56.29,57.41-47.56,110.54c6.4,38.98,20.32,58.41,35.06,78.98
									c14.74,20.57,29.98,41.84,40.83,83.56c1.48,5.72,2.45,12.34,2.89,19.69c0.42,6.68,0.41,14.16-0.03,22.24
									c-0.67,12.54-2.39,27.1-5.1,43.26c-1.45,8.52-3.29,18.35-5.61,30.06c-21.01,105.05-65.82,415.6-71.62,455.92h559.39
									c18.12-139.39,21.07-347.68-29.82-481.22c-1.13-2.96-2.23-5.91-3.32-8.84c-1.91-5.13-3.81-10.19-5.79-15.17
									c-7.53-18.84-7.27-34.71-7.14-42.34l0.02-1.62c0.03-0.79,0.03-1.37,0.01-1.86c-0.18-4.21,2.39-19.94,7.77-52.27
									c17.78-107.07,65.03-391.5,16.38-431.87c-23.56-19.54-55.36-35.48-94.49-47.37c-21.63-6.57-45.54-11.89-71.08-15.82
									c-0.12-0.02-0.24-0.04-0.36-0.07c-59.67-9.05-127.47-10.12-186.07-2.93c-23.37,2.86-68.59,10.27-108.94,27.66
									c-1.9,0.82-4.13-0.05-4.96-1.97c-0.83-1.91,0.06-4.13,1.97-4.96c41.21-17.77,87.24-25.31,111-28.22
									c59.34-7.28,128.01-6.18,188.38,3v0c0.11,0.02,0.21,0.04,0.32,0.06c25.81,3.99,50.01,9.38,71.92,16.03
									c40.1,12.19,72.78,28.6,97.12,48.78c45.81,38.02,18.75,243.21-13.76,438.92c-4.37,26.32-7.82,47.1-7.67,50.67
									c0.04,0.65,0.04,1.47,0,2.42l-0.02,1.55c-0.13,7.68-0.36,21.98,6.61,39.42c2,5.03,3.92,10.15,5.85,15.32
									c1.09,2.91,2.18,5.84,3.3,8.79c51.79,135.91,48.43,347.92,29.82,488.18C2064.3,2184.72,2062.7,2186.12,2060.81,2186.12z" fill="#021b79" class="color000000 svgShape"></path><path fill="#2452fe" d="M1747.48,1179.11c0,0,8.97,73.1,85.26,58.14c90.09-17.67,122.3-105.85,109.46-144.85l-180.8,66.32
									L1747.48,1179.11z" class="colorfec524 svgShape"></path><path d="M1813.16,1243.05c-15.48,0-28.87-4.05-40-12.12c-25.09-18.2-29.26-50.01-29.42-51.35
									c-0.11-0.91,0.11-1.83,0.63-2.59l13.91-20.4c0.44-0.65,1.08-1.15,1.82-1.42l180.8-66.32c0.96-0.35,2.02-0.3,2.94,0.15
									c0.92,0.45,1.62,1.24,1.94,2.22c7.1,21.55,1.11,53.54-15.25,81.5c-20.98,35.85-55.46,60.08-97.07,68.24
									C1826.35,1242.35,1819.57,1243.05,1813.16,1243.05z M1751.44,1180c1.06,6.01,6.52,30.62,26.2,44.86
									c13.97,10.1,32.26,13.03,54.37,8.69c53.24-10.44,80.5-44.98,92.01-64.65c14.13-24.15,20.18-52.25,15.65-71.56l-175.84,64.5
									L1751.44,1180z" fill="#021b79" class="color000000 svgShape"></path><path fill="#0575e6" d="M1838.95,1679.11l-51.15,14.62c-5.09,1.46-10.4-1.49-11.86-6.59l-58.39-204.26
												c-1.46-5.09,1.49-10.4,6.59-11.86l51.15-14.62c5.09-1.46,10.4,1.49,11.86,6.59l58.39,204.26
												C1846.99,1672.34,1844.04,1677.65,1838.95,1679.11z" class="color71ffcc svgShape"></path><path d="M1803.44,1691.59c-17.39,0-33.43-11.45-38.45-28.98l-43.77-153.11c-6.05-21.19,6.26-43.35,27.44-49.41
												c10.27-2.93,21.06-1.69,30.39,3.49c9.33,5.18,16.09,13.69,19.02,23.95l43.77,153.11c2.93,10.26,1.69,21.06-3.49,30.39
												c-5.18,9.33-13.69,16.09-23.95,19.02l0,0C1810.75,1691.09,1807.07,1691.59,1803.44,1691.59z M1813.37,1686.42h0.04
												H1813.37z M1759.7,1466.08c-2.99,0-6,0.42-8.96,1.26c-17.18,4.91-27.17,22.89-22.26,40.08l43.77,153.11
												c4.91,17.19,22.89,27.17,40.08,22.26l0,0c8.32-2.38,15.22-7.86,19.43-15.43s5.21-16.32,2.83-24.65l-43.77-153.11
												c-2.38-8.33-7.86-15.23-15.43-19.43C1770.51,1467.46,1765.13,1466.08,1759.7,1466.08z" fill="#021b79" class="color000000 svgShape"></path><path fill="#0575e6" d="M1561.1,1758.54l-51.15,14.62c-5.09,1.46-10.4-1.49-11.86-6.59l-58.39-204.26
												c-1.46-5.09,1.49-10.4,6.59-11.86l51.15-14.62c5.09-1.46,10.4,1.49,11.86,6.59l58.39,204.26
												C1569.14,1751.78,1566.19,1757.09,1561.1,1758.54z" class="color71ffcc svgShape"></path><path d="M1525.52,1771.04c-6.7,0-13.33-1.7-19.35-5.04c-9.33-5.18-16.09-13.69-19.02-23.95l-43.77-153.11
												c-6.05-21.19,6.26-43.35,27.44-49.41c10.26-2.93,21.05-1.7,30.39,3.49c9.33,5.18,16.09,13.69,19.02,23.95l43.77,153.11
												c6.05,21.19-6.26,43.35-27.44,49.41l0,0C1532.92,1770.52,1529.21,1771.04,1525.52,1771.04z M1535.53,1765.85h0.04
												H1535.53z M1481.85,1545.51c-2.99,0-6,0.42-8.96,1.26c-17.19,4.91-27.17,22.89-22.26,40.08l43.77,153.11
												c2.38,8.33,7.86,15.23,15.43,19.43c7.57,4.2,16.32,5.21,24.65,2.83l0,0c17.18-4.91,27.17-22.89,22.26-40.08
												l-43.77-153.11c-2.38-8.33-7.86-15.23-15.43-19.43C1492.66,1546.89,1487.29,1545.51,1481.85,1545.51z" fill="#021b79" class="color000000 svgShape"></path><rect width="216.59" height="169.27" x="1534.32" y="1530.15" fill="#ffffff" transform="rotate(-15.956 1642.451 1614.653)" class="colorffffff svgShape"></rect><path d="M1561.75,1729.7c-1.64,0-3.15-1.08-3.63-2.74l-46.53-162.75c-0.27-0.96-0.15-1.99,0.33-2.87
												c0.49-0.87,1.3-1.52,2.26-1.8l208.25-59.54c0.96-0.27,2-0.16,2.87,0.33c0.88,0.49,1.52,1.3,1.8,2.26l46.52,162.75
												c0.57,2-0.59,4.09-2.59,4.66l-208.25,59.54C1562.44,1729.65,1562.1,1729.7,1561.75,1729.7z M1519.89,1565.77
												l44.45,155.49l200.99-57.46l-44.45-155.49L1519.89,1565.77z" fill="#021b79" class="color000000 svgShape"></path><g fill="#021b79" class="color000000 svgShape"><path fill="#ffffff" d="M1816.13,1767.85c0,0-93.27-17.6-110.74,1.93c-17.47,19.54,40.83,40.43,40.83,40.43" class="colorffffff svgShape"></path><path d="M1746.22,1813.99c-0.42,0-0.85-0.07-1.27-0.22c-4.26-1.53-41.72-15.41-46.14-32.81
												c-0.85-3.36-0.89-8.46,3.78-13.69c18.35-20.53,104.48-4.97,114.24-3.13c2.05,0.39,3.39,2.36,3.01,4.41
												c-0.39,2.05-2.37,3.4-4.41,3.01c-25.36-4.78-94.06-13.98-107.22,0.74c-2.66,2.98-2.46,5.31-2.09,6.8
												c2.59,10.19,26.75,22.32,41.38,27.57c1.96,0.7,2.98,2.86,2.28,4.82C1749.22,1813.03,1747.77,1813.99,1746.22,1813.99z" fill="#021b79" class="color000000 svgShape"></path></g><g fill="#021b79" class="color000000 svgShape"><path fill="#ffffff" d="M1791.5,2032.03l-50.36,14.4c-5.02,1.43-10.24-1.47-11.68-6.49l-95.36-333.54l68.52-19.59
											l95.36,333.54C1799.42,2025.37,1796.51,2030.59,1791.5,2032.03z" class="colorffffff svgShape"></path><path d="M1756.47,2044.39c-6.61,0-13.14-1.68-19.08-4.97c-9.2-5.11-15.86-13.5-18.76-23.62l-88.16-308.36
											c-0.57-2,0.59-4.09,2.59-4.66l68.52-19.59c0.96-0.27,2-0.16,2.87,0.33c0.88,0.49,1.52,1.3,1.8,2.26l88.16,308.36
											c2.89,10.12,1.67,20.76-3.44,29.96c-5.11,9.2-13.5,15.86-23.62,18.76C1763.76,2043.88,1760.1,2044.39,1756.47,2044.39z
											 M1638.77,1708.99l87.12,304.73c2.34,8.18,7.72,14.96,15.16,19.1c7.44,4.13,16.04,5.12,24.23,2.78
											c8.18-2.34,14.97-7.73,19.1-15.17c4.13-7.44,5.12-16.04,2.78-24.23l-87.12-304.73L1638.77,1708.99z" fill="#021b79" class="color000000 svgShape"></path></g><g fill="#021b79" class="color000000 svgShape"><path d="M1726.65,1678.79l7.08,24.76c2.96,10.35-3.04,21.15-13.39,24.1l-84.04,24.03c-10.35,2.96-21.15-3.04-24.1-13.39
												l-7.08-24.76L1726.65,1678.79z" fill="#021b79" class="color000000 svgShape"></path><path d="M1630.91,1756.21c-3.9,0-7.76-0.99-11.27-2.94c-5.43-3.02-9.37-7.97-11.08-13.94l-7.08-24.76
												c-0.57-2,0.59-4.09,2.59-4.66l121.53-34.74c0.97-0.27,2-0.16,2.87,0.33c0.88,0.49,1.52,1.3,1.8,2.26l7.08,24.76
												c3.53,12.34-3.64,25.24-15.97,28.77l-84.05,24.03C1635.21,1755.91,1633.05,1756.21,1630.91,1756.21z M1609.78,1716.12
												l6.04,21.13c1.15,4.04,3.81,7.38,7.48,9.42c3.67,2.04,7.92,2.53,11.95,1.37l84.05-24.03
												c8.33-2.38,13.17-11.1,10.79-19.44l-6.04-21.13L1609.78,1716.12z" fill="#021b79" class="color000000 svgShape"></path></g><g fill="#021b79" class="color000000 svgShape"><path fill="#ffffff" d="M1746.22,1810.22c0,0-111.17,21.91-112.27,41.15c-1.09,19.24,63.37,6.65,63.37,6.65
											s-50.21,24.72-54.33,38.14c-4.13,13.42,10.72,19.49,21.79,16.35c0,0-13.62,26.06,15.93,26.26c0,0-7.52,18.52,19.1,16.9
											c26.63-1.62,77.35-21.12,93.63-30.05c38.12-20.91,67.57-52.66,67.57-52.66c0.36-32.84-8.7-88.75-44.88-105.1" class="colorffffff svgShape"></path><path d="M1696.69,1959.53c-8.76,0-14.86-2.32-18.16-6.92c-2.46-3.43-2.76-7.33-2.45-10.33
											c-7.65-0.83-12.98-3.69-15.88-8.51c-3.25-5.41-2.48-11.95-1.17-16.68c-6.2,0.07-12.4-2.12-16.24-6.05
											c-4.08-4.18-5.29-9.86-3.4-16c2.81-9.13,21.57-21.4,36.96-30.16c-15.5,1.57-34.73,1.87-42.34-4.76
											c-2.69-2.35-4.01-5.45-3.81-8.97c1.16-20.56,88.55-39.37,115.3-44.64c2.04-0.4,4.02,0.93,4.43,2.97
											c0.4,2.04-0.93,4.03-2.97,4.43c-52.09,10.27-108.66,27.58-109.23,37.66c-0.07,1.19,0.31,2.04,1.24,2.86
											c7.59,6.62,39.38,3.44,57.64-0.13c1.85-0.36,3.7,0.71,4.3,2.5c0.6,1.79-0.21,3.75-1.91,4.59
											c-18.84,9.28-49.74,27.23-52.39,35.86c-1.07,3.47-0.53,6.33,1.58,8.5c3.28,3.36,9.97,4.69,15.57,3.11
											c1.45-0.41,3.01,0.08,3.96,1.25c0.95,1.17,1.11,2.79,0.41,4.13c-1.4,2.7-4.39,10.79-1.46,15.64
											c2.01,3.33,6.75,5.05,14.07,5.1c1.25,0.01,2.42,0.64,3.11,1.68c0.7,1.04,0.83,2.36,0.36,3.52
											c-0.01,0.03-1.86,4.86,0.46,8.06c2.08,2.86,7.23,4.13,14.92,3.66c26.68-1.63,77.02-21.35,92.04-29.59
											c33.31-18.27,60.2-45.26,65.62-50.87c0.12-37.59-10.93-85.79-42.68-100.14c-1.9-0.86-2.74-3.09-1.88-4.99
											c0.85-1.9,3.09-2.74,4.99-1.88c35.48,16.04,47.55,68.52,47.1,108.58c-0.01,0.94-0.37,1.84-1.01,2.52
											c-1.22,1.31-30.3,32.43-68.52,53.4c-15.47,8.49-67.49,28.82-95.22,30.51C1698.88,1959.5,1697.76,1959.53,1696.69,1959.53z
											" fill="#021b79" class="color000000 svgShape"></path></g><g fill="#021b79" class="color000000 svgShape"><path d="M1664.78,1916.28c-1.4,0-2.74-0.78-3.39-2.12c-0.91-1.87-0.14-4.13,1.74-5.04l47.48-23.14
										c1.89-0.92,4.14-0.13,5.04,1.74c0.91,1.87,0.14,4.13-1.74,5.04l-47.48,23.14
										C1665.9,1916.15,1665.34,1916.28,1664.78,1916.28z" fill="#021b79" class="color000000 svgShape"></path></g><g fill="#021b79" class="color000000 svgShape"><path d="M1680.72,1942.54c-1.36,0-2.68-0.74-3.35-2.03c-0.96-1.85-0.24-4.13,1.6-5.09l47.11-24.52
										c1.85-0.96,4.13-0.24,5.09,1.6c0.96,1.85,0.24,4.13-1.6,5.09l-47.11,24.52C1681.9,1942.4,1681.3,1942.54,1680.72,1942.54z" fill="#021b79" class="color000000 svgShape"></path></g><g fill="#021b79" class="color000000 svgShape"><path fill="#ffffff" d="M1990.34,1110.73c0,0,104.07,36.57,157.22,128.54c40.77,70.54,127.77,327.9,88.36,438.26
									c-34.07,95.39-348.42,215.79-348.42,215.79c-42.4,22.96-117.18-131.65-74.78-154.61l243.71-147.55
									c0,0-79.53-238.39-85.93-297.12" class="colorffffff svgShape"></path><path d="M1878.33,1899.41c-6.82,0-15.45-2.88-25.82-11.77c-11.19-9.58-22.82-24.98-32.78-43.35
									c-11.56-21.35-19.73-44.56-22.4-63.7c-3.22-23.01,1.48-38.64,13.59-45.2l240.98-145.9
									c-9.45-28.45-79.09-239.38-85.15-295.04c-0.22-2.07,1.27-3.93,3.34-4.16c2.06-0.23,3.93,1.27,4.16,3.34
									c6.27,57.65,84.96,293.95,85.75,296.33c0.56,1.67-0.11,3.51-1.62,4.42l-243.71,147.55c-6.86,3.72-10.42,11.68-10.75,23.74
									c-1.06,38.73,31.35,103.53,60.83,121.64c8.05,4.95,15.11,5.85,20.96,2.68c0.15-0.08,0.29-0.15,0.45-0.21
									c3.13-1.2,313.12-120.86,346.22-213.54c37.54-105.1-44.67-360.01-88.07-435.1c-51.81-89.64-154.18-126.51-155.21-126.87
									c-1.96-0.69-3-2.85-2.31-4.81c0.69-1.97,2.86-3,4.81-2.31c1.06,0.37,106,38.1,159.24,130.21
									c37.89,65.56,129.68,326.52,88.64,441.42c-34.08,95.43-334.61,211.9-350.4,217.96
									C1886.22,1898.27,1882.63,1899.41,1878.33,1899.41z" fill="#021b79" class="color000000 svgShape"></path></g><g fill="#021b79" class="color000000 svgShape"><path fill="#2452fe" d="M1745.5,1178.92c0,0-32.42,67.57-90.3,43.11s-34.47-121.58-20.39-140.01l85.01,66.91L1745.5,1178.92z" class="colorfec524 svgShape"></path><path d="M1679.88,1231.14c-8.08,0-16.8-1.67-26.16-5.63c-18.12-7.65-30.19-22.44-35.9-43.94
								c-10.21-38.45,3.25-87.79,13.98-101.84c0.62-0.8,1.52-1.33,2.52-1.45c0.99-0.13,2.02,0.15,2.81,0.78l85.01,66.91
								c0.2,0.15,0.37,0.32,0.53,0.51l25.68,29.99c0.97,1.14,1.18,2.74,0.53,4.09C1748.61,1181.15,1724.03,1231.14,1679.88,1231.14z
								 M1635.73,1087.55c-8.51,15.33-19.51,58.54-10.61,92.08c5.08,19.13,15.69,32.23,31.55,38.93
								c48.82,20.63,78.29-27.89,84.32-39.11l-23.79-27.79L1635.73,1087.55z" fill="#021b79" class="color000000 svgShape"></path></g><g fill="#021b79" class="color000000 svgShape"><path fill="#ffffff" d="M1942.39,1095.79c0,37.62-108.84,92.55-196.89,83.14c-124.68-13.33-110.69-96.9-110.69-96.9
								c13.95-3.45,30.31-6.35,48.35-8.59c25.61-19.45,13.76-122.05,4.85-144.37c-9.36-23.5,131.02-57.86,131.02-57.86
								s-6.93,173.43,51.48,205.24c0,0,0.03,0,0.1,0.03c24.62,3.77,48.83,9.01,71.6,15.94
								C1942.33,1093.52,1942.39,1094.67,1942.39,1095.79z" class="colorffffff svgShape"></path><path d="M1765.94,1183.75c-7.04,0-14-0.35-20.84-1.08c-46.37-4.96-79.4-20.01-98.17-44.75c-20.49-27-16.04-55.33-15.84-56.52
								c0.25-1.48,1.36-2.68,2.81-3.04c13.87-3.43,29.92-6.3,47.72-8.54c22.03-19.04,11.92-116.71,2.88-139.36
								c-0.79-1.99-1.32-5.16,0.65-8.99c12.26-23.79,120.66-50.92,132.98-53.94c1.14-0.28,2.37-0.01,3.28,0.74
								c0.92,0.75,1.43,1.89,1.38,3.07c-0.07,1.71-6.14,170.39,48.99,201.49c25.63,3.95,49.68,9.32,71.51,15.96
								c1.44,0.44,2.48,1.69,2.65,3.19c0.14,1.26,0.21,2.55,0.21,3.81c0,10.04-6.64,21.31-19.19,32.6
								C1895.31,1156.84,1827.91,1183.75,1765.94,1183.75z M1638.28,1085.06c-0.51,7.06-0.53,28.38,14.74,48.42
								c17.49,22.95,48.74,36.97,92.88,41.69c64.95,6.95,141.97-21.79,176.03-52.4c10.92-9.81,16.69-19.14,16.69-26.98
								c0-0.17,0-0.35,0-0.52c-21-6.25-44.05-11.31-68.58-15.07c-0.22-0.03-0.45-0.09-0.66-0.16c-0.23-0.07-0.45-0.17-0.67-0.28
								c-54.78-29.83-54.28-174.24-53.59-203.69c-47.04,11.84-115.42,33.68-123.25,48.87c-0.72,1.39-0.56,2.2-0.35,2.74
								c8.93,22.39,22.19,127.31-6.08,148.77c-0.53,0.4-1.16,0.66-1.82,0.74C1666.78,1079.26,1651.55,1081.91,1638.28,1085.06z" fill="#021b79" class="color000000 svgShape"></path></g><g fill="#021b79" class="color000000 svgShape"><path fill="#ffffff" d="M1805.86,834.48c0,0,38.66-38.14,51.88,3.88c15.45,49.08-34.9,61.36-34.9,61.36
								s-65.21,161.78-186.24,86.33c-60.69-37.84-84.29-250.39,12.05-300.02c68.69-35.38,128.22,20.59,141.58,68.11
								C1800.27,789.89,1805.86,834.48,1805.86,834.48z" class="colorffffff svgShape"></path><path d="M1699.22,1009.88c-20.96,0-42.58-6.89-64.61-20.62c-33.55-20.91-57.47-94.84-54.46-168.31
								c2.76-67.43,27.1-117.82,66.78-138.27c27.2-14.01,55.61-15.31,82.14-3.76c34.58,15.06,57.46,48.12,64.79,74.2
								c7.66,27.25,12.78,59.93,14.79,73.95c7.42-5.86,21.2-14.68,33.73-11.57c8.72,2.17,15.09,9.48,18.95,21.72
								c4.86,15.45,4.05,29.1-2.42,40.57c-9.31,16.51-27.39,23.24-33.3,25.05c-5.28,12.31-37.84,83.06-96.82,102.29
								C1719.11,1008.3,1709.24,1009.88,1699.22,1009.88z M1692.36,678.69c-14,0-28.14,3.57-41.98,10.7
								c-37.2,19.16-60.06,67.23-62.7,131.87c-2.9,71,19.46,141.98,50.92,161.59c30.58,19.06,60.12,24.15,87.84,15.13
								c59.94-19.52,92.59-98.87,92.91-99.67c0.45-1.12,1.43-1.96,2.6-2.25c0.21-0.05,21.09-5.38,30.43-22.01
								c5.38-9.58,5.97-21.2,1.77-34.56c-3.01-9.57-7.58-15.18-13.57-16.67c-11.47-2.85-27.04,9.38-32.06,14.34
								c-1.02,1.01-2.53,1.35-3.88,0.88c-1.36-0.47-2.33-1.67-2.51-3.1c-0.06-0.44-5.67-44.74-15.51-79.78
								c-6.85-24.37-28.23-55.26-60.54-69.33C1715.1,681.07,1703.78,678.69,1692.36,678.69z" fill="#021b79" class="color000000 svgShape"></path></g><g fill="#021b79" class="color000000 svgShape"><path d="M1805.86,834.48c0,0,0.66,10.32-10.3-0.24c-10.96-10.56-21.6-93.24-21.6-93.24s-66.72-60.23-99.8-43.96
									c-33.08,16.26-93.07,33.7-99.94,1.29s158.24-81.49,220.47-40.63S1805.86,834.48,1805.86,834.48z" fill="#021b79" class="color000000 svgShape"></path><path d="M1803.19,842.78c-3.72,0-7.52-3.18-10.25-5.81c-11-10.6-20.35-77.32-22.54-94.08
									c-18.93-16.79-69.81-54.63-94.57-42.45c-23.04,11.33-68.3,27.45-91.76,16.04c-7.29-3.54-11.84-9.38-13.53-17.36
									c-1.68-7.91,3.67-16.15,15.9-24.51c39.37-26.9,157.94-54.46,210.33-20.06c62.41,40.97,17.17,168.92,12.88,180.59
									c-0.04,1.84-0.57,5.54-3.88,7.08C1804.91,842.6,1804.06,842.77,1803.19,842.78z M1687.07,690.53
									c36.13,0,86.97,45.46,89.42,47.67c0.67,0.6,1.1,1.43,1.22,2.32c4.05,31.46,13.19,83.98,20.47,91
									c1.85,1.78,3.11,2.7,3.92,3.18c-0.03-0.53,0.05-1.06,0.23-1.56c0.5-1.33,49.29-133.57-9.7-172.3
									c-50-32.82-163.96-5.97-201.93,19.98c-9.19,6.28-13.73,12.21-12.77,16.71c1.2,5.66,4.29,9.63,9.45,12.13
									c17.35,8.43,55.96-1.68,85.14-16.02C1676.92,691.48,1681.84,690.53,1687.07,690.53z" fill="#021b79" class="color000000 svgShape"></path></g><g fill="#021b79" class="color000000 svgShape"><path fill="#ffffff" d="M1513.48,734.62c-2.77-21.59,9.52-43.98,29.21-53.23l3.21,6.83c-16.55,7.77-27.27,27.31-24.94,45.44
								L1513.48,734.62z" class="colorffffff svgShape"></path></g><g fill="#021b79" class="color000000 svgShape"><path fill="#ffffff" d="M1512.51,1016.28c-12.99-8.53-22.05-22.81-24.23-38.19c-2.19-15.38,2.53-31.62,12.63-43.43l5.73,4.9
								c-8.71,10.19-12.78,24.19-10.89,37.46c1.88,13.27,9.7,25.58,20.9,32.94L1512.51,1016.28z" class="colorffffff svgShape"></path></g><g fill="#021b79" class="color000000 svgShape"><path fill="#ffffff" d="M2121.85,1135.91l-1.77-7.34c24.08-5.8,37.58-30.89,39.94-51.76c2.74-24.26-5.53-49.13-14-70.25
								l7.01-2.81c8.81,22,17.42,47.98,14.49,73.9C2164.88,1101.06,2149.46,1129.26,2121.85,1135.91z" class="colorffffff svgShape"></path></g><g fill="#021b79" class="color000000 svgShape"><path fill="#ffffff" d="M2008.79,882.75c-2.37,0-4.75-0.2-7.11-0.61l1.3-7.43c16.6,2.91,35.02-7.5,41.11-23.19
								c4.4-11.31,2.71-23.43,0.52-31.61c-2.89-10.78-8.13-21.05-13.2-30.97l6.72-3.43c5.25,10.28,10.68,20.9,13.77,32.46
								c3.56,13.28,3.29,25.83-0.77,36.29C2044.54,871.21,2026.81,882.75,2008.79,882.75z" class="colorffffff svgShape"></path></g><g fill="#021b79" class="color000000 svgShape"><ellipse cx="1710.05" cy="817.39" rx="14.18" ry="10.86" transform="rotate(-84.324 1710.058 817.38)" fill="#021b79" class="color000000 svgShape"></ellipse><ellipse cx="1639.62" cy="801.73" rx="14.18" ry="10.86" transform="rotate(-84.324 1639.63 801.73)" fill="#021b79" class="color000000 svgShape"></ellipse><path fill="#ffffff" d="M1701.98,775.32c0,0,19.54-10.15,39.76,10.57" class="colorffffff svgShape"></path><path d="M1741.75,789.67c-0.98,0-1.96-0.38-2.7-1.14c-17.88-18.33-34.64-10.21-35.34-9.85c-1.85,0.94-4.13,0.2-5.07-1.64
									c-0.94-1.85-0.23-4.11,1.61-5.06c0.89-0.47,22.27-11.19,44.2,11.29c1.46,1.49,1.43,3.88-0.07,5.34
									C1743.65,789.32,1742.7,789.67,1741.75,789.67z" fill="#021b79" class="color000000 svgShape"></path><path fill="#ffffff" d="M1622.92,765.74c0,0,19.54-10.15,39.76,10.57" class="colorffffff svgShape"></path><path d="M1662.68,780.09c-0.98,0-1.96-0.38-2.7-1.14c-17.9-18.34-34.64-10.21-35.34-9.85c-1.85,0.94-4.12,0.2-5.07-1.64
									c-0.94-1.85-0.23-4.11,1.61-5.06c0.89-0.47,22.27-11.19,44.2,11.29c1.46,1.49,1.43,3.88-0.07,5.34
									C1664.58,779.73,1663.63,780.09,1662.68,780.09z" fill="#021b79" class="color000000 svgShape"></path><g fill="#021b79" class="color000000 svgShape"><path fill="#ffffff" d="M1665.79,819.91c-6.33,20.74-12.66,41.48-18.98,62.23c-1.04,3.41-2.09,6.99-1.42,10.5
									c0.87,4.55,4.57,8.15,8.77,10.12c4.2,1.97,8.88,2.56,13.48,3.13" class="colorffffff svgShape"></path><path d="M1667.63,909.66c-0.15,0-0.31-0.01-0.47-0.03c-4.61-0.57-9.84-1.22-14.62-3.46c-5.79-2.71-9.86-7.51-10.87-12.83
									c-0.86-4.5,0.46-8.83,1.53-12.31l18.98-62.22c0.61-1.99,2.72-3.12,4.71-2.51c1.99,0.61,3.11,2.72,2.51,4.71l-18.98,62.23
									c-0.86,2.82-1.84,6.02-1.33,8.69c0.56,2.91,3.11,5.75,6.66,7.41c3.7,1.73,8.09,2.27,12.35,2.8
									c2.07,0.26,3.54,2.14,3.28,4.21C1671.13,908.26,1669.51,909.66,1667.63,909.66z" fill="#021b79" class="color000000 svgShape"></path></g><g fill="#021b79" class="color000000 svgShape"><path fill="#ffffff" d="M1702.97,937.68c-14.14,8.98-32.11,11.66-48.26,7.22" class="colorffffff svgShape"></path><path d="M1670.42,950.76c-5.64,0-11.28-0.73-16.71-2.23c-2.01-0.55-3.19-2.63-2.63-4.64c0.55-2.01,2.62-3.19,4.64-2.64
									c15.11,4.16,32.01,1.63,45.23-6.76c1.75-1.12,4.09-0.6,5.21,1.16c1.12,1.76,0.6,4.09-1.16,5.21
									C1694.76,947.36,1682.57,950.76,1670.42,950.76z" fill="#021b79" class="color000000 svgShape"></path></g></g><g fill="#021b79" class="color000000 svgShape"><path fill="#ffffff" d="M1745.5,1178.92c0,0-21.39,93.28-23.94,221.58" class="colorffffff svgShape"></path><path d="M1721.55,1404.27c-0.03,0-0.05,0-0.07,0c-2.09-0.04-3.74-1.76-3.7-3.85c2.53-127.21,23.83-221.41,24.04-222.34
								c0.46-2.03,2.49-3.3,4.52-2.83c2.03,0.47,3.3,2.49,2.83,4.52c-0.21,0.93-21.33,94.42-23.85,220.81
								C1725.29,1402.63,1723.6,1404.27,1721.55,1404.27z" fill="#021b79" class="color000000 svgShape"></path></g><g fill="#021b79" class="color000000 svgShape"><path fill="#ffffff" d="M1942.32,645.36c-4.03-12.71-12.78-24.13-24.01-31.32c-11.23-7.19-25.26-10.35-38.49-8.69l-0.94-7.49
								c14.95-1.89,30.81,1.69,43.5,9.82c12.69,8.12,22.58,21.02,27.13,35.39L1942.32,645.36z" class="colorffffff svgShape"></path></g><g fill="#021b79" class="color000000 svgShape"><path fill="#ffffff" d="M2107.87,785.23c-0.64-18.91-10.89-37.06-26.76-47.36l4.1-6.33c17.91,11.62,29.48,32.09,30.19,53.43
								L2107.87,785.23z" class="colorffffff svgShape"></path></g><g fill="#021b79" class="color000000 svgShape"><path fill="#ffffff" d="M1648.19,1034.88c0,0,9.82,11.75,34.63,13.84" class="colorffffff svgShape"></path><path d="M1682.82,1052.49c-0.11,0-0.21,0-0.32-0.01c-26.08-2.2-36.77-14.65-37.21-15.18c-1.33-1.6-1.12-3.98,0.48-5.31
					c1.6-1.33,3.96-1.12,5.3,0.46c0.12,0.14,9.41,10.61,32.07,12.52c2.08,0.18,3.62,2,3.44,4.08
					C1686.41,1051,1684.76,1052.49,1682.82,1052.49z" fill="#021b79" class="color000000 svgShape"></path></g><g fill="#021b79" class="color000000 svgShape"><path fill="#ffffff" d="M927.9,1349.17c-1.72,0.11-3.48,0.35-5.23,0.77l-10.85,2.53C916.69,1350.01,922.24,1348.79,927.9,1349.17z" class="colorffffff svgShape"></path><path d="M911.81,1356.24c-1.55,0-2.99-0.97-3.54-2.49c-0.65-1.8,0.14-3.8,1.85-4.65c5.63-2.84,11.84-4.12,18.04-3.69
					c1.98,0.14,3.52,1.79,3.51,3.78c-0.01,1.99-1.55,3.63-3.54,3.75c-1.58,0.1-3.12,0.33-4.58,0.68l-10.88,2.53
					C912.38,1356.21,912.09,1356.24,911.81,1356.24z" fill="#021b79" class="color000000 svgShape"></path></g><g fill="#021b79" class="color000000 svgShape"><path fill="#ffffff" d="M1300.6,1426.72l-372.71-38.28l-372.71,38.28c-9.13,0.81-11.59-12.5-2.46-14.82l359.08-83.83l10.85-2.53
					c1.76-0.42,3.51-0.67,5.23-0.77c1.72,0.11,3.48,0.35,5.23,0.77l10.85,2.53l359.08,83.83
					C1311.98,1414.11,1309.98,1427.53,1300.6,1426.72z" class="colorffffff svgShape"></path><path d="M1301.39,1430.53c-0.37,0-0.74-0.02-1.12-0.05c-0.02,0-0.04,0-0.06-0.01l-372.32-38.24l-372.32,38.24
					c-6.88,0.61-11.31-4.27-12.19-9.4c-1.02-6.04,2.44-11.31,8.42-12.83l370.01-86.37c1.86-0.45,3.84-0.74,5.85-0.86
					c0.15-0.01,0.31-0.01,0.46,0c2.02,0.12,4,0.42,5.88,0.87l369.91,86.35c6.72,1.67,9.34,7.75,8.48,12.9
					C1311.46,1426.79,1307.01,1430.53,1301.39,1430.53z M927.9,1328.55c-1.5,0.1-2.96,0.33-4.35,0.66l-10.88,2.53l-359.07,83.83
					c-3.09,0.79-2.9,3.44-2.77,4.24c0.1,0.58,0.64,3.44,4.03,3.15l372.65-38.27c0.26-0.03,0.52-0.03,0.77,0l372.67,38.27
					c3.23,0.26,3.88-2.29,4-3.07c0.1-0.58,0.42-3.53-2.81-4.33l-369.88-86.34C930.86,1328.88,929.4,1328.66,927.9,1328.55z" fill="#021b79" class="color000000 svgShape"></path></g><g fill="#021b79" class="color000000 svgShape"><path fill="#ffffff" d="M943.98,1352.47l-10.85-2.53c-1.76-0.42-3.51-0.67-5.23-0.77C933.59,1348.82,939.1,1350.01,943.98,1352.47z
					" class="colorffffff svgShape"></path><path d="M943.98,1356.24c-0.28,0-0.57-0.03-0.85-0.1l-10.85-2.53c-1.48-0.36-3.03-0.58-4.61-0.68
					c-1.99-0.12-3.54-1.77-3.54-3.77c0-1.99,1.55-3.64,3.54-3.77c6.19-0.39,12.45,0.89,18.01,3.7c1.71,0.86,2.5,2.86,1.85,4.65
					C946.97,1355.28,945.54,1356.24,943.98,1356.24z" fill="#021b79" class="color000000 svgShape"></path></g><g fill="#021b79" class="color000000 svgShape"><path fill="#ffffff" d="M867.02,854.72l19.06,490.61h83.59l19.06-490.61c1.34-34.54-26.29-63.27-60.86-63.27h0
					C893.32,791.45,865.68,820.18,867.02,854.72z" class="colorffffff svgShape"></path><path d="M969.68,1349.1h-83.59c-2.03,0-3.69-1.6-3.77-3.63l-19.06-490.61c-0.69-17.74,5.71-34.55,18.02-47.35
					c12.31-12.79,28.86-19.84,46.61-19.84c17.75,0,34.31,7.05,46.61,19.84c12.31,12.79,18.7,29.61,18.01,47.35l-19.06,490.61
					C973.37,1347.5,971.7,1349.1,969.68,1349.1z M889.71,1341.56h76.33l18.92-486.99c0.61-15.67-5.04-30.52-15.91-41.82
					c-10.87-11.3-25.49-17.53-41.18-17.53c-15.68,0-30.3,6.22-41.18,17.53c-10.87,11.3-16.52,26.16-15.92,41.82L889.71,1341.56z" fill="#021b79" class="color000000 svgShape"></path></g><g fill="#021b79" class="color000000 svgShape"><circle cx="925.65" cy="1381.34" r="75.62" fill="#021b79" class="color000000 svgShape"></circle><path d="M925.65,1460.73c-43.78,0-79.39-35.61-79.39-79.39c0-43.77,35.61-79.39,79.39-79.39s79.39,35.61,79.39,79.39
						C1005.04,1425.12,969.43,1460.73,925.65,1460.73z M925.65,1309.5c-39.61,0-71.84,32.23-71.84,71.84
						c0,39.61,32.23,71.84,71.84,71.84s71.84-32.23,71.84-71.84C997.5,1341.73,965.27,1309.5,925.65,1309.5z" fill="#021b79" class="color000000 svgShape"></path></g><g fill="#021b79" class="color000000 svgShape"><circle cx="925.65" cy="1381.34" r="31.96" fill="#ffffff" class="colorffffff svgShape"></circle><path d="M925.65,1417.07c-19.7,0-35.73-16.03-35.73-35.73c0-19.7,16.03-35.73,35.73-35.73s35.73,16.03,35.73,35.73
					C961.39,1401.04,945.36,1417.07,925.65,1417.07z M925.65,1353.15c-15.54,0-28.19,12.65-28.19,28.19
					c0,15.54,12.64,28.19,28.19,28.19s28.19-12.65,28.19-28.19C953.84,1365.8,941.2,1353.15,925.65,1353.15z" fill="#021b79" class="color000000 svgShape"></path></g><g fill="#021b79" class="color000000 svgShape"><circle cx="1266.71" cy="1409.98" r="54.8" fill="#021b79" class="color000000 svgShape"></circle><path d="M1266.71,1468.55c-32.3,0-58.57-26.27-58.57-58.57c0-32.29,26.27-58.57,58.57-58.57s58.57,26.27,58.57,58.57
						C1325.28,1442.28,1299,1468.55,1266.71,1468.55z M1266.71,1358.96c-28.13,0-51.02,22.89-51.02,51.02s22.89,51.02,51.02,51.02
						s51.02-22.89,51.02-51.02S1294.84,1358.96,1266.71,1358.96z" fill="#021b79" class="color000000 svgShape"></path></g><g fill="#021b79" class="color000000 svgShape"><circle cx="1266.71" cy="1409.98" r="25.18" fill="#ffffff" class="colorffffff svgShape"></circle><path d="M1266.71,1438.93c-15.96,0-28.95-12.99-28.95-28.95c0-15.96,12.99-28.95,28.95-28.95c15.96,0,28.95,12.99,28.95,28.95
					C1295.65,1425.94,1282.67,1438.93,1266.71,1438.93z M1266.71,1388.58c-11.8,0-21.41,9.6-21.41,21.4s9.6,21.4,21.41,21.4
					c11.8,0,21.4-9.6,21.4-21.4S1278.51,1388.58,1266.71,1388.58z" fill="#021b79" class="color000000 svgShape"></path></g><g fill="#021b79" class="color000000 svgShape"><circle cx="582.11" cy="1409.98" r="54.8" fill="#021b79" class="color000000 svgShape"></circle><path d="M582.11,1468.55c-32.3,0-58.57-26.27-58.57-58.57c0-32.29,26.27-58.57,58.57-58.57c32.3,0,58.57,26.27,58.57,58.57
						C640.68,1442.28,614.4,1468.55,582.11,1468.55z M582.11,1358.96c-28.13,0-51.02,22.89-51.02,51.02s22.89,51.02,51.02,51.02
						s51.02-22.89,51.02-51.02S610.24,1358.96,582.11,1358.96z" fill="#021b79" class="color000000 svgShape"></path></g><g fill="#021b79" class="color000000 svgShape"><circle cx="582.11" cy="1409.98" r="25.18" fill="#ffffff" class="colorffffff svgShape"></circle><path d="M582.11,1438.93c-15.96,0-28.95-12.99-28.95-28.95c0-15.96,12.99-28.95,28.95-28.95c15.96,0,28.95,12.99,28.95,28.95
					C611.06,1425.94,598.07,1438.93,582.11,1438.93z M582.11,1388.58c-11.8,0-21.4,9.6-21.4,21.4s9.6,21.4,21.4,21.4
					c11.8,0,21.41-9.6,21.41-21.4S593.91,1388.58,582.11,1388.58z" fill="#021b79" class="color000000 svgShape"></path></g><g fill="#021b79" class="color000000 svgShape"><path fill="#ffffff" d="M983.12,1088.65c0,0-26.06-57.12,5.92-57.82c28.24-0.61,60.81,93.4,60.81,93.4" class="colorffffff svgShape"></path><path d="M1049.85,1128c-1.56,0-3.02-0.98-3.57-2.54c-12.25-35.34-38.74-91.29-57.16-90.86c-4.74,0.1-7.98,1.64-9.89,4.68
					c-6.88,10.96,2.95,38.22,7.32,47.8c0.86,1.9,0.03,4.13-1.87,5c-1.9,0.86-4.14,0.03-5-1.87c-1.78-3.9-17.09-38.6-6.85-54.94
					c2.28-3.64,6.93-8.02,16.12-8.22c0.11,0,0.23,0,0.34,0c30.01,0,60.71,86.09,64.12,95.94c0.68,1.97-0.36,4.12-2.33,4.8
					C1050.68,1127.94,1050.26,1128,1049.85,1128z" fill="#021b79" class="color000000 svgShape"></path></g><g fill="#021b79" class="color000000 svgShape"><path d="M1266.6,1822c-2.09,0-3.77-1.69-3.77-3.77v-363.85c0-2.08,1.69-3.77,3.77-3.77s3.77,1.69,3.77,3.77v363.85
						C1270.38,1820.31,1268.69,1822,1266.6,1822z" fill="#021b79" class="color000000 svgShape"></path><line x1="1399.39" x2="1267.63" y1="1818.23" y2="1449.96" fill="#fff"></line><path d="M1399.39,1822c-1.55,0-3-0.96-3.55-2.5l-131.76-368.27c-0.7-1.96,0.32-4.12,2.28-4.82c1.94-0.7,4.12,0.32,4.82,2.28
						l131.76,368.27c0.7,1.96-0.32,4.12-2.28,4.82C1400.24,1821.93,1399.81,1822,1399.39,1822z" fill="#021b79" class="color000000 svgShape"></path><g fill="#021b79" class="color000000 svgShape"><line x1="1267.94" x2="1132.83" y1="1449.96" y2="1818.23" fill="#fff"></line><path d="M1132.83,1822c-0.43,0-0.87-0.07-1.3-0.23c-1.96-0.72-2.96-2.89-2.24-4.84l135.11-368.27
						c0.72-1.96,2.88-2.96,4.84-2.24c1.96,0.72,2.96,2.89,2.24,4.84l-135.11,368.27C1135.81,1821.06,1134.37,1822,1132.83,1822z" fill="#021b79" class="color000000 svgShape"></path></g></g><g fill="#021b79" class="color000000 svgShape"><path d="M1264.26,2004.93c-104.81,0-191.1-81.92-196.44-186.51c-0.05-1.03,0.32-2.04,1.04-2.79c0.71-0.75,1.7-1.17,2.73-1.17
					h385.35c1.04,0,2.02,0.42,2.73,1.17c0.71,0.75,1.09,1.76,1.04,2.79C1455.35,1923.01,1369.07,2004.93,1264.26,2004.93z
					 M1075.59,1822c7.08,98.67,89.2,175.38,188.66,175.38c99.46,0,181.57-76.72,188.66-175.38H1075.59z" fill="#021b79" class="color000000 svgShape"></path></g><g fill="#021b79" class="color000000 svgShape"><path d="M578.29,1822c-2.09,0-3.77-1.69-3.77-3.77v-363.85c0-2.08,1.69-3.77,3.77-3.77c2.09,0,3.77,1.69,3.77,3.77v363.85
						C582.07,1820.31,580.38,1822,578.29,1822z" fill="#021b79" class="color000000 svgShape"></path><line x1="711.08" x2="579.32" y1="1818.23" y2="1449.96" fill="#fff"></line><path d="M711.08,1822c-1.55,0-3-0.96-3.55-2.5l-131.76-368.27c-0.7-1.96,0.32-4.12,2.28-4.82c1.95-0.7,4.12,0.32,4.82,2.28
						l131.76,368.27c0.7,1.96-0.32,4.12-2.28,4.82C711.93,1821.93,711.5,1822,711.08,1822z" fill="#021b79" class="color000000 svgShape"></path><g fill="#021b79" class="color000000 svgShape"><line x1="579.63" x2="444.52" y1="1449.96" y2="1818.23" fill="#fff"></line><path d="M444.52,1822c-0.43,0-0.87-0.07-1.3-0.23c-1.96-0.72-2.96-2.89-2.24-4.84l135.11-368.27c0.72-1.96,2.88-2.96,4.84-2.24
						c1.96,0.72,2.96,2.89,2.24,4.84l-135.11,368.27C447.5,1821.06,446.06,1822,444.52,1822z" fill="#021b79" class="color000000 svgShape"></path></g></g><g fill="#021b79" class="color000000 svgShape"><path d="M575.95,2004.93c-104.81,0-191.1-81.92-196.44-186.51c-0.05-1.03,0.32-2.04,1.04-2.79c0.71-0.75,1.7-1.17,2.73-1.17
					h385.35c1.04,0,2.02,0.42,2.73,1.17c0.71,0.75,1.09,1.76,1.04,2.79C767.04,1923.01,680.76,2004.93,575.95,2004.93z M387.28,1822
					c7.08,98.67,89.2,175.38,188.66,175.38c99.46,0,181.57-76.72,188.66-175.38H387.28z" fill="#021b79" class="color000000 svgShape"></path></g></g></svg>