<svg width="118" height="22" viewBox="0 0 118 22" fill="none" xmlns="http://www.w3.org/2000/svg">
<path d="M45.2781 15.3041C45.2455 15.2552 45.1804 15.2389 45.1152 15.2389C45.1152 15.2389 44.5936 15.353 43.7461 15.353C42.8986 15.353 42.4097 15.2389 42.4097 15.2389C42.2956 15.2389 42.1978 15.3367 42.1978 15.4508V20.8128H45.327V15.4345C45.327 15.4019 45.3107 15.353 45.2781 15.3041ZM43.7135 5.83496V10.594V10.7896C43.5017 10.8221 43.355 11.0014 43.355 11.2133C43.355 11.4252 43.518 11.6045 43.7135 11.637V14.4892C43.7135 14.4892 43.2572 14.4729 43.029 14.4403C42.5401 14.3588 42.4423 14.2936 42.4423 14.2936C42.4423 14.2936 42.6053 13.3972 42.3119 12.1749C42.0022 10.9362 41.5459 9.79537 41.5459 9.79537C41.5459 9.79537 42.1163 9.43682 42.6542 8.54043C43.192 7.66034 43.5831 6.27501 43.5831 6.27501C43.5831 6.27501 43.5017 6.19352 43.5017 6.06313C43.4854 5.94905 43.5505 5.83496 43.7135 5.83496ZM45.2455 12.1912C44.9522 13.3972 45.1152 14.3099 45.1152 14.3099C45.1152 14.3099 45.0174 14.3751 44.5284 14.4566C44.3003 14.4892 43.8439 14.5055 43.8439 14.5055V11.6533C44.0558 11.6207 44.2025 11.4415 44.2025 11.2296C44.2025 11.0177 44.0395 10.8384 43.8439 10.8058V10.6103V5.85126C43.9906 5.85126 44.0721 5.96534 44.0721 6.11203C44.0721 6.22611 43.9906 6.3239 43.9906 6.3239C43.9906 6.3239 44.3818 7.70923 44.9196 8.58932C45.4574 9.46942 46.0278 9.84427 46.0278 9.84427C46.0278 9.84427 45.5389 10.9525 45.2455 12.1912ZM45.1152 14.9455L44.6588 15.027C44.0558 15.1411 43.4528 15.1411 42.8497 15.027L42.4097 14.9455C42.3445 14.9455 42.2793 14.8641 42.2793 14.7663C42.2793 14.6685 42.3445 14.587 42.4097 14.587L42.8497 14.6685C43.4528 14.7826 44.0558 14.7826 44.6588 14.6685L45.1152 14.587C45.1804 14.587 45.2455 14.6685 45.2455 14.7663C45.2455 14.8641 45.1966 14.9455 45.1152 14.9455Z" fill="url(#paint0_linear_10887_85149)"/>
<path d="M8.83604 17.7974C8.78715 17.8952 8.70566 17.9278 8.68936 17.9441V18.0908H8.08634V17.9441C8.03745 17.8952 6.99437 16.901 6.70101 16.6566C6.84769 17.0314 7.30403 17.8952 7.33663 17.9441V18.0908H6.7662V17.9441C6.7499 17.9115 6.39134 16.6077 6.22836 16.1187C6.06538 15.6298 5.77202 14.8149 5.75572 14.7497C5.80462 14.8475 6.60322 16.2817 7.20624 16.8358C7.82557 17.4552 8.65677 17.7485 8.83604 17.7974ZM9.24349 1.51571C9.24349 1.79278 9.162 2.05355 9.162 2.08614C9.162 2.13504 9.09681 2.26542 9.04792 2.36321C8.99903 2.4447 8.96643 2.65657 8.83604 2.85215C8.80345 2.90104 8.75455 2.96624 8.70566 3.01513C8.67306 3.04772 8.64047 3.09662 8.60787 3.14551C8.47749 3.30849 8.31451 3.47147 8.20042 3.55296C8.00485 3.68335 7.71148 3.84633 7.36922 4.02561C7.01067 4.20488 6.8151 4.33527 6.61952 4.54714C6.40765 4.75902 6.30985 4.84051 6.30985 4.84051C6.30985 4.84051 6.16317 4.56344 6.03279 4.40046C5.90241 4.23748 5.80462 3.99301 5.80462 3.92782L5.70683 3.91152C5.70683 3.91152 5.67424 4.0745 5.72313 4.22118C5.80462 4.44935 5.9676 4.69382 6.00019 4.72642C6.04909 4.77531 6.24466 5.11757 5.98389 5.42723C5.88611 5.55762 5.73942 5.7206 5.67423 5.80209C5.62534 5.88358 5.51125 6.06286 5.51125 6.30733C5.51125 6.5518 5.39717 6.82886 5.41346 7.00814C5.42976 7.20371 5.49495 7.43189 5.65793 7.82304C5.82091 8.21419 5.9676 8.60534 5.9676 9.20837C5.9676 9.81139 5.88611 10.284 5.77202 10.8219C5.64164 11.3597 5.39717 12.4028 5.36457 12.5495C5.33198 12.6961 5.33197 12.5984 5.33197 13.071C5.33197 13.5436 5.34828 13.9511 5.54385 14.4237C5.54385 14.4237 5.88611 15.7765 6.00019 16.2328C6.11428 16.6891 6.37505 17.9441 6.37505 17.9441V18.0908H5.9513V17.9441L5.33197 15.5157L5.31568 17.9441V18.0908H5.23419V17.9441C5.23419 17.9441 4.87563 14.5704 4.87563 14.4237C4.87563 14.277 4.87563 13.7718 4.69635 13.6088C4.69635 13.6088 4.66376 15.0268 4.76154 15.6624C4.85933 16.298 4.85933 17.9441 4.85933 17.9441V18.0908H2.75689V17.9441C2.75689 17.9441 2.95247 16.6566 2.90357 15.9394C2.80579 15.695 2.62651 15.2223 2.41463 14.6519C1.69752 12.745 0.556664 9.68101 0.556664 9.68101C0.556664 9.68101 0.393683 9.7299 0.295895 9.71361C0.198107 9.69731 0.18181 9.61582 0.312194 9.58322C0.442578 9.55063 0.572963 9.48543 0.572963 9.48543L0.475174 9.14318C0.475174 9.14318 0.361088 9.17577 0.279598 9.14318C0.214406 9.11058 0.084023 8.91501 0.084023 8.83352C0.018831 8.80092 0.035127 8.71943 0.051425 8.65424C0.067723 8.58904 0.198108 8.44236 0.198108 8.44236L0.116618 8.31198C0.116618 8.31198 0.035129 8.32828 0.00253301 8.27938C-0.013765 8.23049 0.0514265 8.1653 0.116618 8.1327C0.165512 8.1164 0.279597 8.08381 0.295895 8.1327C0.312193 8.1653 0.279598 8.21419 0.279598 8.21419C0.279598 8.21419 0.377386 8.19789 0.393684 8.21419C0.491472 8.1001 0.947815 7.23631 0.996709 7.13852C1.0456 7.04073 1.33897 6.4866 1.45305 6.37252C1.56714 6.25843 1.92569 5.60651 1.97459 5.42723C2.02348 5.24795 2.18646 4.54714 2.20276 4.46565C2.21906 4.38416 2.33314 3.99301 2.46353 3.79743C2.59391 3.60186 2.80579 3.48777 2.82208 3.45518C2.85468 3.42258 2.93617 3.2107 3.00136 3.17811L3.03396 3.14551L3.01766 2.78696C3.01766 2.78696 2.87098 2.68917 2.78949 2.60768C2.708 2.52619 2.7243 2.4773 2.85468 2.36321C2.98507 2.24912 3.01766 2.20023 3.01766 1.85797C3.00136 1.51572 3.09915 1.51571 3.11545 1.45052C3.13175 1.38533 3.11545 1.33644 3.11545 1.27124C3.11545 1.20605 3.19694 1.18975 3.19694 1.15716C3.19694 1.12456 3.21324 0.961583 3.22953 0.912689C3.22953 0.863795 3.27843 0.880092 3.32732 0.782304C3.35992 0.684516 3.73477 0 4.37039 0C5.00602 0 5.44606 0.66822 5.44606 0.847498C5.44606 1.02678 5.44606 1.32014 5.51125 1.41793C5.57645 1.51572 5.62534 1.6135 5.62534 1.72759C5.62534 1.84167 5.60904 1.92316 5.60904 1.92316L5.54385 1.84167C5.54385 1.84167 5.49496 2.24912 5.59274 2.34691C5.69053 2.4447 5.80462 2.55879 5.80462 2.65657C5.80462 2.75436 5.75572 2.85215 5.69053 2.90104C5.62534 2.94994 5.54385 3.14551 5.62534 3.2922C5.65794 3.34109 5.67423 3.37369 5.69053 3.38998C5.72313 3.42258 5.72313 3.42258 5.73942 3.42258H6.79879C6.79879 3.42258 7.40182 3.09662 7.71148 2.96624C8.02114 2.83585 8.33081 2.64028 8.47749 2.4121C8.47749 2.39581 8.59158 2.28172 8.64047 2.05355V1.28754C8.64047 1.28754 8.4286 1.17346 8.3797 1.07567C8.33081 0.977881 8.33081 0.945284 8.33081 0.8149C8.33081 0.684516 8.46119 0.570432 8.60787 0.521538L8.64047 0.48894V0.24447H8.73826L8.75455 0.537834C8.75455 0.537834 9.01532 0.619325 9.11311 0.717113C9.162 0.863795 9.22719 1.01048 9.24349 1.51571ZM4.3052 9.69731C3.86516 10.2025 3.4903 11.1967 3.32732 11.6368C3.31102 11.702 3.27843 11.7509 3.27843 11.7835C3.16434 12.0605 2.98506 12.5658 2.98506 12.5658C2.98506 12.5658 2.91987 11.9627 2.87098 11.5227C2.80579 11.0826 2.61021 9.71361 2.62651 9.15947C2.62651 8.60534 2.6917 8.36087 2.80579 7.87193C2.90358 7.38299 3.16434 6.69848 3.21324 6.5355C3.26213 6.38881 3.24583 5.99766 3.18064 5.86728C3.11545 5.7206 2.74059 5.42723 2.74059 5.42723C2.74059 5.42723 2.7243 5.50872 2.59391 5.78579C2.47983 6.06285 2.30055 6.40511 2.07238 6.82886C1.84421 7.25261 0.964114 8.21419 0.964114 8.21419C0.768538 8.45866 0.654453 8.58905 0.654453 8.58905C0.654453 8.58905 0.638154 8.58905 0.638154 8.67054C0.638154 8.75203 0.638154 9.06169 0.638154 9.06169L0.850028 9.45284C0.850028 9.45284 1.0456 9.38765 1.0782 9.32245C1.12709 9.25726 1.17599 9.25726 1.19228 9.28986C1.20858 9.32245 1.20858 9.33875 1.17599 9.40394C1.14339 9.46914 0.980413 9.53433 0.980413 9.53433L2.6754 13.9185L3.05026 14.8964V14.8149C3.00136 14.5215 3.01766 13.6088 3.06655 13.4784C3.11545 13.3318 3.37621 12.3213 3.62068 11.5716C3.86515 10.8056 4.14222 10.1537 4.3052 9.69731ZM8.90124 1.5972V1.38533C8.90124 1.38533 8.78715 1.38533 8.70566 1.28754V1.95576C8.70566 1.97206 8.90124 1.85797 8.90124 1.5972ZM10.7429 7.87193L10.7266 7.96972C10.7266 7.96972 10.531 8.47496 9.89541 8.47496C9.25979 8.47496 9.14571 7.95342 9.14571 7.95342L9.162 7.85564H9.24349L9.89541 5.03608C9.89541 5.03608 9.78133 5.01978 9.78133 4.8894C9.78133 4.75901 9.89541 4.74272 9.89541 4.74272V4.66123C9.89541 4.66123 9.2109 4.41676 9.11311 4.38416C9.03162 4.36786 8.77085 4.36786 8.68936 4.36786C8.67306 4.36786 8.64047 4.36786 8.64047 4.36786C8.55898 4.36786 8.28191 4.36786 8.20042 4.38416C8.10263 4.41676 7.41812 4.66123 7.41812 4.66123V4.74272C7.41812 4.74272 7.5322 4.75901 7.5322 4.8894C7.5322 5.01978 7.41812 5.03608 7.41812 5.03608L8.07004 7.85564H8.16783L8.18412 7.95342C8.18412 7.95342 8.07004 8.47496 7.43442 8.47496C6.7988 8.47496 6.60322 7.96972 6.60322 7.96972L6.58692 7.87193H6.68471L7.32033 5.03608C7.32033 5.03608 7.22254 5.00348 7.22254 4.8894C7.22254 4.75901 7.35293 4.74272 7.35293 4.74272V4.66123H6.99437C6.99437 4.66123 6.94548 4.66123 6.94548 4.62863C6.94548 4.57974 6.96178 4.57974 7.02697 4.56344C7.10846 4.54714 7.23884 4.61233 7.46701 4.54714C7.5811 4.51455 7.71148 4.49825 7.85816 4.43306C8.05374 4.35157 8.18412 4.30267 8.28191 4.25378C8.3634 4.20488 8.65677 4.22118 8.65677 4.22118V3.16181V3.11292C8.65677 3.11292 8.73825 3.03143 8.75455 3.01513V4.20488C8.75455 4.20488 9.01532 4.20488 9.11311 4.23748C9.2109 4.28637 9.32499 4.35157 9.53686 4.41676C9.68354 4.46565 9.81392 4.49825 9.92801 4.53084C10.1562 4.59603 10.3029 4.53084 10.3681 4.54714C10.4333 4.56344 10.4658 4.57974 10.4495 4.61233C10.4495 4.64493 10.4169 4.64493 10.4007 4.64493H10.0421V4.72642C10.0421 4.72642 10.1725 4.74272 10.1725 4.8731C10.1725 4.98719 10.0747 5.01978 10.0747 5.01978L10.7103 7.85564H10.7429V7.87193ZM7.49961 7.87193L7.32033 5.45983L7.30403 5.44353L6.7662 7.87193H7.49961ZM7.40182 5.47613L7.5974 7.87193H7.95595L7.40182 5.47613ZM9.71614 7.87193L9.91171 5.47613H9.89541L9.34128 7.87193H9.71614ZM10.5636 7.87193L10.0258 5.44353L10.0095 5.45983L9.83022 7.87193H10.5636ZM14.8011 17.9441L14.3611 20.8451H2.78949V17.9441H14.8011Z" fill="url(#paint1_linear_10887_85149)"/>
<path d="M84.295 2.15131C85.1425 3.01511 85.5826 4.27005 85.5826 5.89985V15.7601C85.5826 17.3899 85.1588 18.6449 84.295 19.5087C83.4476 20.3725 82.1926 20.8125 80.5628 20.8125H76.2275V0.86377H80.5628C82.1926 0.86377 83.4313 1.28752 84.295 2.15131ZM79.2427 3.65073V18.0256H80.4324C81.1495 18.0256 81.6874 17.83 82.0296 17.4225C82.3719 17.0314 82.5512 16.4121 82.5512 15.5646V6.09543C82.5512 5.26423 82.3882 4.6449 82.0296 4.23745C81.6874 3.83 81.1495 3.63443 80.4324 3.63443H79.2427V3.65073Z" fill="black"/>
<path d="M96.1924 3.65073H90.7163V9.30613H95.1331V12.1094H90.7163V18.0419H96.1924V20.8288H87.7012V0.86377H96.1924V3.65073Z" fill="black"/>
<path d="M104.961 1.74359C105.743 2.52589 106.134 3.63415 106.134 5.05208V5.55732L103.217 5.85068V5.11727C103.217 4.54684 103.087 4.10679 102.809 3.81343C102.549 3.52007 102.158 3.37338 101.669 3.37338C101.18 3.37338 100.789 3.52007 100.528 3.81343C100.267 4.10679 100.137 4.54684 100.137 5.11727V5.37804C100.137 5.98106 100.316 6.58409 100.674 7.15452C101.033 7.74125 101.701 8.42576 102.663 9.25696C104.048 10.4304 105.026 11.5061 105.596 12.4514C106.167 13.3967 106.444 14.4723 106.444 15.6458V16.64C106.444 18.0579 106.036 19.1661 105.238 19.9484C104.423 20.7307 103.282 21.1219 101.766 21.1219C100.267 21.1219 99.1098 20.7307 98.2949 19.9484C97.48 19.1661 97.0889 18.0742 97.0889 16.64V15.3035L100.006 15.0102V16.4281C100.006 17.683 100.577 18.3186 101.718 18.3186C102.858 18.3186 103.429 17.683 103.429 16.4281V15.7762C103.429 15.1242 103.233 14.5212 102.858 13.9345C102.484 13.3478 101.799 12.6469 100.805 11.8157C99.4358 10.6586 98.4742 9.59922 97.9201 8.67023C97.3659 7.72495 97.0889 6.66558 97.0889 5.49212V5.06838C97.0889 3.63415 97.48 2.54219 98.2623 1.75988C99.0446 0.977578 100.153 0.586427 101.603 0.586427C103.054 0.570129 104.178 0.961281 104.961 1.74359Z" fill="black"/>
<path d="M113.811 8.7846L117.999 20.8125H114.772L111.806 12.0931L110.486 14.6682V20.8288H107.471V0.86377H110.486V9.19205H110.551L114.74 0.86377H117.901L113.811 8.7846Z" fill="black"/>
<path d="M11.9658 16.6891L14.818 0.86377H18.8273L22.4128 20.8288H19.2021L18.5176 16.298H15.0461L14.9809 16.7054L11.9658 16.6891ZM16.7411 5.13384L15.4699 13.5436H18.1102L16.8389 5.13384H16.7411Z" fill="black"/>
<path d="M35.1097 20.8288H31.9479L30.1878 8.93128H30.1226L28.3461 20.8288H25.1843L22.0225 0.86377H25.2495L27.0259 14.0977H27.0911L28.8513 0.86377H31.5894L33.3496 14.0977H33.4148L35.1912 0.86377H38.2879L35.1097 20.8288Z" fill="black"/>
<path d="M41.7266 2.37948L41.1562 0.86377H37.8477L37.864 0.896365L38.1899 1.72756L39.7871 5.72057L40.6183 7.82301V7.83931L41.0258 8.84979C41.091 8.80089 41.6288 8.42604 42.1177 7.61114C42.4274 7.1059 42.6882 6.42139 42.8511 5.94874C42.8837 5.88355 42.9 5.81836 42.9163 5.75317L41.7266 2.37948ZM46.3715 0.86377L45.8337 2.37948L45.4914 3.35736L44.8721 5.10125L44.6276 5.80206C44.6439 5.83466 44.6602 5.88355 44.6765 5.93245C44.8395 6.40509 45.1003 7.0896 45.4099 7.59484C45.9478 8.47493 46.5182 8.84979 46.5182 8.84979L46.9093 7.83931L49.0444 2.37948L49.6474 0.86377H46.3715Z" fill="black"/>
<path d="M58.9047 3.65073H53.2493V9.30613H57.8128V12.1094H53.2493V18.0419H63.6312V20.8288H50.1201V0.86377H58.9047V3.65073Z" fill="black"/>
<path d="M60.501 16.6888V0.895996H65.0155C66.7105 0.895996 67.9981 1.33604 68.8781 2.19984C69.7582 3.06363 70.2146 4.31857 70.2146 5.94837V7.3826C70.2146 9.48504 69.4812 10.9519 67.9981 11.7668L70.8665 20.861H67.558L65.0807 12.4187H63.6302V16.6888H60.501ZM63.6302 3.68295V9.61542H64.9014C65.6511 9.61542 66.2053 9.41985 66.5475 9.0124C66.9061 8.60495 67.0854 8.00192 67.0854 7.15443V6.12765C67.0854 5.29646 66.9061 4.67713 66.5475 4.26968C66.189 3.86223 65.6348 3.66666 64.9014 3.66666H63.6302V3.68295Z" fill="black"/>
<defs>
<linearGradient id="paint0_linear_10887_85149" x1="41.541" y1="13.3242" x2="46.0034" y2="13.3242" gradientUnits="userSpaceOnUse">
<stop stop-color="#0575E6"/>
<stop offset="1" stop-color="#021B79"/>
</linearGradient>
<linearGradient id="paint1_linear_10887_85149" x1="0.00944334" y1="10.4402" x2="14.7978" y2="10.4402" gradientUnits="userSpaceOnUse">
<stop stop-color="#0575E6"/>
<stop offset="1" stop-color="#021B79"/>
</linearGradient>
</defs>
</svg>
