<svg xmlns="http://www.w3.org/2000/svg" enable-background="new 0 0 850 850" viewBox="0 0 850 850" id="Lawyerisathisdesk"><path fill="#bbdafa" d="M380.43,282.98c0,0-1.23,38.14-6.12,55.23l-38.64,26.95l145.45,21.77L446.44,339c0,0-10.47-51.14-4.98-70.06
			C446.95,250.02,380.43,282.98,380.43,282.98z" class="colorfac7bb svgShape"></path><path fill="#ffffff" d="M519.82,682.3c0,0-57.79,11.19-110.52,11.19c-23,0-47.98-2.52-67.88-5.19c-21.99-2.92-37.77-6.01-37.77-6.01
			s-11.72,1.02-4.8-56.75c5.26-43.96,3.61-83.66,2.44-124.5c-0.13-4.54-0.04-9.91,0.24-15.89c2.25-47.61,16.65-133.34,27.62-137.94
			c0,0,16.32-6.07,45.15-9.02c0,0.56,16.73,25.02,36.59,27.77c12.34-4.88,22.03-9.04,35.53-26.97c17.1,1.99,35.75,5.38,55.7,10.74
			c0,0,2.07,9.08,9.91,166.63C515.15,578.78,536.46,682.51,519.82,682.3z" class="colorffffff svgShape"></path><path fill="#434651" d="M247.89 534.77c-1.38 1.15 3.43 13.06 10.51 28.58 14.57 31.89 38.78 79 38.78 79-3.5 13.29-7.35 21.51-7.35 21.51-40.72-31.99-66.97-59.21-83.73-80.08-23.56-29.36-28.39-46.19-28.39-46.19 90.66-184.55 154.47-191.35 154.47-191.35l-7.54 121.96C324.64 468.2 252.08 531.28 247.89 534.77zM536.02 657.85c-13.51 27.05-64.48 26.07-64.48 26.07-9.36-71.86-11.43-343.07-11.43-343.07 17.24 2.07 40.15 8.25 40.15 8.25 16.55 32.01 22.41 91.95 23.85 134.18.79 23.65.21 41.75-.66 46.29-1.29 6.74.34 38.89 2.83 75.55C530.14 662.33 536.02 657.85 536.02 657.85z" class="color434351 svgShape"></path><path fill="#434651" d="M360.91,339.91c0,0-3.42,272.15-12.77,344.01c0,0-50.95,0.98-64.47-26.06c0,0,20.93-139.53,17.63-156.8
			c-2.3-12.03,3.67-110.95,25.7-153.45C327,347.61,346.28,341.63,360.91,339.91z" class="color434351 svgShape"></path><path fill="#bbdafa" d="M292.34,644.67c0,0,21.97-20.34,30.92-8.95c8.95,11.39,10.58,29.29,3.66,28.07
			c-6.92-1.22-21.15-7.73-23.19-4.48c-2.03,3.25-11.15,9.48-13.91,4.54C287.05,658.91,292.34,644.67,292.34,644.67z" class="colorfac7bb svgShape"></path><path fill="#bbdafa" d="M297.17,642.35c-3.5,13.29-7.35,21.51-7.35,21.51c-40.72-31.99-66.97-59.21-83.73-80.08
			c12.63-0.94,31.08-5.46,52.3-20.42C272.97,595.25,297.17,642.35,297.17,642.35z" class="colorfac7bb svgShape"></path><path fill="#434651" d="M647.34,537.59c0,0-4.83,16.83-28.39,46.19c-16.76,20.87-43.01,48.09-83.73,80.08c0,0-3.84-8.22-7.35-21.51
			c0,0,24.2-47.1,38.78-79c7.08-15.53,11.89-27.44,10.51-28.58c-3.26-2.71-47.58-41.22-67.35-58.39c-5.74-4.99-9.4-8.18-9.4-8.18
			l-4.53-120.15C495.88,348.04,556.68,353.04,647.34,537.59z" class="color434351 svgShape"></path><path fill="#bbdafa" d="M532.7,644.67c0,0-21.97-20.34-30.92-8.95c-8.95,11.39-10.58,29.29-3.66,28.07
			c6.92-1.22,21.16-7.73,23.19-4.48c2.03,3.25,11.15,9.48,13.91,4.54C537.99,658.91,532.7,644.67,532.7,644.67z" class="colorfac7bb svgShape"></path><path fill="#bbdafa" d="M527.87,642.35c3.5,13.29,7.35,21.51,7.35,21.51c40.72-31.99,66.97-59.21,83.73-80.08
			c-12.63-0.94-31.08-5.46-52.3-20.42C552.07,595.25,527.87,642.35,527.87,642.35z" class="colorfac7bb svgShape"></path><path fill="#9ac8f6" d="M431.12,322.75c0,7.49-9.32,20.41-20.81,20.41c-11.49,0-20.81-12.91-20.81-20.41
			c0-7.49,9.32-13.57,20.81-13.57C421.81,309.18,431.12,315.26,431.12,322.75z" class="colorf6a29a svgShape"></path><path fill="#bbdafa" fill-rule="evenodd" d="M372.35,262.99c0,9.85-6.1,17.84-13.62,17.84c-7.52,0-13.62-7.99-13.62-17.84
						c0-9.85,6.1-17.84,13.62-17.84C366.25,245.15,372.35,253.14,372.35,262.99z" clip-rule="evenodd" class="colorfac7bb svgShape"></path><path fill="#bbdafa" fill-rule="evenodd" d="M367.79,262.99c0,6.55-4.06,11.87-9.06,11.87c-5.01,0-9.06-5.31-9.06-11.87c0-6.55,4.06-11.87,9.06-11.87
						C363.74,251.12,367.79,256.44,367.79,262.99z" clip-rule="evenodd" class="colorfac7bb svgShape"></path><ellipse cx="457.94" cy="262.99" fill="#bbdafa" fill-rule="evenodd" clip-rule="evenodd" rx="13.62" ry="17.84" class="colorfac7bb svgShape"></ellipse><path fill="#bbdafa" fill-rule="evenodd" d="M467,262.99c0,6.55-4.06,11.87-9.06,11.87c-5.01,0-9.06-5.31-9.06-11.87c0-6.55,4.06-11.87,9.06-11.87
						C462.94,251.12,467,256.44,467,262.99z" clip-rule="evenodd" class="colorfac7bb svgShape"></path><ellipse cx="408.33" cy="257.97" fill="#bbdafa" fill-rule="evenodd" clip-rule="evenodd" rx="51.35" ry="70.34" class="colorfac7bb svgShape"></ellipse><path fill="#191d2b" d="M348.77,210.21c-0.7,3.27-1.04,6.66-0.82,10c0.03,0.48,0.69,6.31,1.86,5.27c0.82-0.73,1.07-2.34,1.35-3.33
				c0.43-1.51,0.84-3.02,1.3-4.52c1.04-3.39,2.29-6.71,3.96-9.83c-3.18,7.04-4.8,14.57-4.63,22.29c0.06,0.82,0.56,7.46,1.99,7.07
				c-0.03,4.63,0.2,9.47,1.74,13.87c0.13,0.38,0.59,2.04,1.21,1.92c0.59-0.11,0.69-1.59,0.76-2.02c0.33-2.18,0.47-4.4,0.67-6.59
				c0.88-1.74,1.48-3.62,2.24-5.41c0.88-2.08,1.84-4.13,2.87-6.14c2.31-4.49,4.99-8.77,7.74-13.01c2.8-4.32,5.66-8.62,8.19-13.1
				c2.23-3.95,4.45-8.19,4.79-12.8c2,1.2,4.05,2.25,6.18,3.19c12.54,5.53,25.93,8.88,38.22,15.03c2.71,1.36,5.37,2.83,7.93,4.44
				c2.26,1.41,4.37,3.06,6.66,4.42c0.25,0.15,1.26,0.85,1.54,0.42c0.26-0.39-0.22-1.19-0.39-1.53c-1.31-2.58-3.42-4.84-5.49-6.83
				c2.29,1.55,4.39,3.29,6.46,5.12c-0.01-0.01,0.05,0.05-0.02-0.03c0.43,0.44,0.87,0.87,1.3,1.32c1.43,2.64,3.01,5.17,4.33,7.86
				c1.5,3.06,2.76,6.23,3.8,9.48c1.85,5.79,2.62,11.68,3.74,17.62c-0.08,1.08-0.35,2.49,0.02,3.55c0.31,0.89,1.18-0.87,1.3-1.09
				c0.02-0.01,0.03-0.02,0.05-0.03c0.01,0.55-0.12,2.48,0.66,2.68c0.83,0.2,1.77-1.72,2.08-2.28c1.21-2.19,2.03-4.6,2.7-7
				c1.58-5.71,2.19-11.69,1.89-17.6c0.96,0.81,1.36-2.08,1.43-2.53c0.2-1.38,0.22-2.78,0.21-4.17c-0.25-4.42-1.08-8.71-2.57-12.89
				c1.02,2.09,1.86,4.25,2.66,6.44c0.17,0.46,1.05,3.7,1.92,3.37c0.98-0.37,1-2.93,1.05-3.71c0.12-1.9,0-3.81-0.29-5.69
				c-0.18-1.14-0.41-2.27-0.7-3.39c-0.29-1.13-0.82-2.25-0.87-3.41c-0.09-1.97-0.43-3.92-0.99-5.81c-1.2-4.09-3.34-7.71-6.11-10.92
				c-0.46-0.77-1.04-1.44-1.62-2.12c-3.36-3.66-7.69-6.32-12.22-8.28c2.73,0.49,5.58,1.31,8.37,1.38c0.39,0.01,1.37-0.02,0.94-0.67
				c-0.75-1.14-2.47-1.96-3.64-2.6c-6.07-3.33-13.09-5.17-19.88-6.29c2.12-0.31-1.08-2.16-1.67-2.49
				c-8.87-4.59-19.94-4.78-29.54-2.87c-4.56,0.91-9.12,2.37-13.28,4.47c-3.46,1.74-6.79,3.61-9.53,6.4
				c-1.37,1.48-2.59,3.13-3.22,5.07c-0.87-1.26-2.74-1.8-4.15-2.06c-3.87-0.57-7.8,0.66-11.26,2.28c-3.8,2.3-6.85,5.19-8.69,9.31
				c-0.24,0.65-1.6,4.88,0.28,4.4c0.8-0.2,1.49-0.91,2.12-1.42c0.78-0.62,1.51-1.32,2.34-1.88
				C353.35,197.44,350.21,203.6,348.77,210.21C347.82,214.62,349.25,208,348.77,210.21z" class="color2b2419 svgShape"></path><g fill="#000000" class="color000000 svgShape"><path fill="#609fdf" d="M665.59,270.23l-14.6,258.25c0,0,12.68-14.52,42.39-20.96c26.61-5.77,46.52-21.88,46.52-21.88
				l-50.58-220.37L665.59,270.23z" class="colordfb560 svgShape"></path><path fill="#9ac4ef" d="M689.32,449.09c0,0,0,4.77,22.98,22.95c9.87,7.81,28.64,13.6,28.64,13.6L703.04,307.3L689.32,449.09z" class="colorefd29a svgShape"></path><path fill="#7baee1" d="M700.96,270.23l-11.64,178.86c0,0,15.71-4.34,32.52-10.86c16.8-6.52,20.56-20.89,20.56-20.89l-23.69-98.59
					L700.96,270.23z" class="colore1c27b svgShape"></path><rect width="5.54" height="453.33" x="673.52" y="163.14" fill="#021b79" class="color284386 svgShape"></rect><path fill="#313131" d="M701.59,625.49h-50.6v-1.58c0-4.11,3.33-7.44,7.44-7.44h35.72c4.11,0,7.44,3.33,7.44,7.44V625.49z" class="color313131 svgShape"></path><rect width="16.84" height="5.53" x="668" y="160.02" fill="#021b79" class="color284386 svgShape"></rect><path fill="#021b79" d="M681.24,155.08c0,2.73-2.22,4.95-4.95,4.95c-2.73,0-4.95-2.22-4.95-4.95c0-2.73,2.22-4.95,4.95-4.95
					C679.02,150.13,681.24,152.34,681.24,155.08z" class="color284386 svgShape"></path><path fill="#609fdf" d="M742.4,417.33c0,0-15.41,1.03-29.15-9.88c-13.74-10.93-5.92-20.42-22.68-36.12
				c-2.38-2.22-5.12-4.23-8.07-6.02c-17.91-10.97-43.76-14.59-43.76-14.59l34.78-185.18h5.55l0.02,0.08
				c0.82,3.27,27.53,108.33,35.75,139.39C724.63,342.12,742.4,417.33,742.4,417.33z" class="colordfb560 svgShape"></path><path fill="#9ac4ef" d="M713.25,407.45c-13.74-10.93-5.92-20.42-22.68-36.12c-2.38-2.22-5.12-4.23-8.07-6.02l-8.98-199.76h5.55
				l0.02,0.08L713.25,407.45z" class="colorefd29a svgShape"></path><g fill="#000000" class="color000000 svgShape"><polygon fill="#609fdf" points="232.57 436.88 209.49 379.87 187.98 436.87 187.5 436.69 209.47 378.46 233.05 436.68" class="colordfb560 svgShape"></polygon><rect width=".52" height="70.03" x="209.22" y="368.38" fill="#609fdf" class="colordfb560 svgShape"></rect><path fill="#609fdf" d="M225.31 445.32c-5.69 0-24.39 0-30.07 0-4.14 0-7.5-3.36-7.5-7.5v-1.03h45.07c0 0 0 .4 0 1.03C232.81 441.96 229.46 445.32 225.31 445.32zM143.17 357.97c0 0 64.61 5.4 67.86 3.49 0 0-.33-4.69 3.61-4.05 3.67.59 3.6 7.72-3.34 7.13-9.29-.78-65.04.13-65.04.13L143.17 357.97z" class="colordfb560 svgShape"></path><path fill="#7baee1" d="M209.48,368.38L209.48,368.38c-0.6,0-1.09-0.49-1.09-1.09v-6.15c0-0.6,0.49-1.09,1.09-1.09l0,0
						c0.6,0,1.09,0.49,1.09,1.09v6.15C210.57,367.89,210.09,368.38,209.48,368.38z" class="colore1c27b svgShape"></path><path fill="#9ac4ef" d="M233.75,440.04h-46.74c-0.9,0-1.63-0.73-1.63-1.63v-1.63h49.99v1.63
						C235.38,439.31,234.65,440.04,233.75,440.04z" class="colorefd29a svgShape"></path><polygon fill="#609fdf" points="53.65 436.14 53.17 435.95 76.75 377.73 76.98 378.34 98.72 435.96 98.24 436.14 76.73 379.14" class="colordfb560 svgShape"></polygon><rect width=".52" height="70.03" x="76.48" y="367.48" fill="#609fdf" class="colordfb560 svgShape"></rect><path fill="#609fdf" d="M60.91 444.42c5.69 0 24.39 0 30.07 0 4.14 0 7.5-3.36 7.5-7.5v-1.03H53.41c0 0 0 .4 0 1.03C53.41 441.06 56.77 444.42 60.91 444.42zM143.96 357.97c0 0-65.51 4.5-68.76 2.59 0 0 .33-4.69-3.61-4.05-3.67.59-3.6 7.72 3.34 7.13 9.29-.78 65.94 1.03 65.94 1.03L143.96 357.97z" class="colordfb560 svgShape"></path><path fill="#7baee1" d="M76.74,367.48L76.74,367.48c0.6,0,1.09-0.49,1.09-1.09v-6.15c0-0.6-0.49-1.09-1.09-1.09l0,0
						c-0.6,0-1.09,0.49-1.09,1.09v6.15C75.65,366.99,76.14,367.48,76.74,367.48z" class="colore1c27b svgShape"></path><path fill="#9ac4ef" d="M52.47,439.14h46.74c0.9,0,1.63-0.73,1.63-1.63v-1.63H50.85v1.63C50.85,438.41,51.57,439.14,52.47,439.14z
						" class="colorefd29a svgShape"></path><path fill="#609fdf" d="M152.04,494.35c-0.59,7.85-2.25,7.5-2.25,7.5h-12.31c0,0-1.65,0.35-2.25-7.5
					c-0.2-2.68-0.29-5.13-0.14-6.85c0.29-3.19,1.32-8.63,2.33-13.06c1.07-4.7,2.12-8.27,2.23-6.77V348.39
					c0-0.31-0.05-0.62-0.16-0.91c-0.52-1.47-2.13-6.35-1.63-9.7c0.33-2.16,2.01-5.21,3.47-7.53c1.06-1.69,3.52-1.69,4.59,0
					c1.46,2.33,3.14,5.37,3.47,7.53c0.5,3.34-1.11,8.23-1.63,9.7c-0.1,0.29-0.16,0.59-0.16,0.91v119.28
					c0.12-1.5,1.16,2.06,2.23,6.77c1.02,4.43,2.05,9.87,2.33,13.06C152.32,489.22,152.24,491.67,152.04,494.35z" class="colordfb560 svgShape"></path><path fill="#9ac4ef" d="M150.17,362.99c0,4.87-2.92,8.81-6.53,8.81s-6.53-3.94-6.53-8.81c0-4.87,2.92-8.81,6.53-8.81
					S150.17,358.12,150.17,362.99z" class="colorefd29a svgShape"></path><g fill="#000000" class="color000000 svgShape"><path fill="#609fdf" d="M147.63,356.37h-8c-0.82,0-1.49-0.67-1.49-1.49l0,0c0-0.82,0.67-1.49,1.49-1.49h8
					c0.82,0,1.49,0.67,1.49,1.49l0,0C149.12,355.7,148.46,356.37,147.63,356.37z" class="colordfb560 svgShape"></path></g><g fill="#000000" class="color000000 svgShape"><path fill="#609fdf" d="M147.63,373.34h-8c-0.82,0-1.49-0.67-1.49-1.49l0,0c0-0.82,0.67-1.49,1.49-1.49h8
					c0.82,0,1.49,0.67,1.49,1.49l0,0C149.12,372.68,148.46,373.34,147.63,373.34z" class="colordfb560 svgShape"></path></g><g fill="#000000" class="color000000 svgShape"><path fill="#609fdf" d="M155.03,510.07h-22.78v-9.66c0-1.08,0.87-1.95,1.95-1.95h18.88c1.08,0,1.95,0.87,1.95,1.95V510.07z" class="colordfb560 svgShape"></path></g><g fill="#000000" class="color000000 svgShape"><path fill="#9ac4ef" d="M164.66,518.09h-42.06v-3.86c0-2.96,2.4-5.36,5.36-5.36h31.33c2.96,0,5.36,2.4,5.36,5.36V518.09z" class="colorefd29a svgShape"></path></g><g fill="#000000" class="color000000 svgShape"><path fill="#609fdf" d="M184.16,524h-81.05v-4.31c0-2.71,2.2-4.91,4.91-4.91h71.23c2.71,0,4.91,2.2,4.91,4.91V524z" class="colordfb560 svgShape"></path></g><g fill="#000000" class="color000000 svgShape"><path fill="#9ac4ef" d="M147.76,347.48c-0.1,0.29-0.16,0.59-0.16,0.91c0,0-1.37,0.7-4.36,0.7c-2.13,0-3.58-0.7-3.58-0.7
					c0-0.31-0.05-0.62-0.16-0.91c-0.52-1.47-2.13-6.35-1.63-9.7c0.33-2.16,2.01-5.21,3.47-7.53c1.06-1.69,3.52-1.69,4.59,0
					c1.46,2.33,3.14,5.37,3.47,7.53C149.89,341.13,148.28,346.02,147.76,347.48z" class="colorefd29a svgShape"></path></g></g><g fill="#000000" class="color000000 svgShape"><polygon fill="#47527a" points="785.51 560.2 76.33 560.2 79.64 699.87 782 699.87" class="color7a5647 svgShape"></polygon><rect width="747.51" height="21.86" x="51.25" y="538.75" fill="#5f698e" class="color8e6e5f svgShape"></rect><rect width="763.1" height="23.42" x="43.45" y="523.32" fill="#0575e6" class="colora4897d svgShape"></rect></g></g></svg>