<svg width="677" height="204" viewBox="0 0 677 204" fill="none" xmlns="http://www.w3.org/2000/svg">
<path d="M169.269 72.9898C160.469 72.9898 153.649 76.0898 148.339 82.2698C143.029 88.4598 140.379 96.6998 140.379 106.99V154.55H115.869V106.16C115.869 89.1998 120.829 75.4298 130.739 64.8598C140.659 54.2898 154.069 49.0098 169.429 49.0098L169.269 72.9998V72.9898Z" fill="black"/>
<path d="M277.039 186.4C277.039 186.4 283.049 183.31 287.319 174.79C290.379 168.7 289.679 157.52 289.679 152.21V48.9805H313.339V152C313.339 165.46 314.499 184.53 300.809 198.21C298.769 200.25 293.899 203.44 293.899 203.44L277.039 186.39V186.4Z" fill="black"/>
<path d="M232.769 153.52C232.769 153.52 231.429 153.79 230.829 153.88L222.199 154.7C207.539 154.7 195.139 149.72 184.999 139.76C174.859 129.8 169.789 117.4 169.789 102.56C169.789 87.7203 174.989 74.6703 185.409 64.2303C195.819 53.7903 208.559 48.5703 223.629 48.5703C238.699 48.5703 251.099 53.7903 260.819 64.2303C270.549 74.6703 275.409 88.2803 275.409 105.04V154.86H251.369V105.87C251.369 95.7003 248.769 87.5603 243.559 81.4503C238.349 75.3403 231.439 72.2803 222.799 72.2803C214.989 72.2803 208.279 75.1503 202.659 80.9103C197.039 86.6603 194.239 93.4403 194.239 101.24C194.239 109.59 197.219 116.65 203.179 122.4C209.139 128.15 216.499 131.02 225.269 131.02C228.279 131.02 232.869 130.33 232.869 130.33L232.759 153.54L232.769 153.52Z" fill="black"/>
<path d="M387.441 153.52C387.441 153.52 386.101 153.79 385.501 153.88L376.871 154.7C362.211 154.7 349.811 149.72 339.671 139.76C329.531 129.8 324.461 117.4 324.461 102.56C324.461 87.7203 329.661 74.6703 340.081 64.2303C350.491 53.7903 363.231 48.5703 378.301 48.5703C393.371 48.5703 405.771 53.7903 415.491 64.2303C425.221 74.6703 430.081 88.2803 430.081 105.04V154.86H406.041V105.87C406.041 95.7003 403.441 87.5603 398.231 81.4503C393.021 75.3403 386.111 72.2803 377.471 72.2803C369.661 72.2803 362.951 75.1503 357.331 80.9103C351.711 86.6603 348.911 93.4403 348.911 101.24C348.911 109.59 351.891 116.65 357.851 122.4C363.811 128.15 371.171 131.02 379.941 131.02C382.951 131.02 387.541 130.33 387.541 130.33L387.431 153.54L387.441 153.52Z" fill="black"/>
<path d="M442.4 26.6699L466.06 1.66992V154.75H442.4V26.6699Z" fill="black"/>
<path d="M528.249 49.01C542.719 49.01 554.999 54.08 565.099 64.23C575.199 74.38 580.249 86.85 580.249 101.66C580.249 116.47 575.199 129.18 565.099 139.39C554.999 149.61 542.579 154.71 527.839 154.71C513.099 154.71 501.459 149.54 491.289 139.18C481.119 128.83 476.039 116.32 476.039 101.65C476.039 86.98 481.089 74.37 491.189 64.22C501.289 54.08 513.639 49 528.249 49V49.01ZM500.399 102.27C500.399 110.08 503.159 116.94 508.689 122.83C514.219 128.73 520.739 131.67 528.239 131.67C535.739 131.67 541.889 128.72 547.489 122.83C553.079 116.94 555.879 109.95 555.879 101.86C555.879 93.77 553.149 86.99 547.689 81.09C542.229 75.2 535.739 72.25 528.239 72.25C520.739 72.25 514.039 75.2 508.579 81.09C503.119 86.99 500.389 94.05 500.389 102.27H500.399Z" fill="black"/>
<path d="M589.26 25L612.72 0L612.92 74.64H617.02C625.9 74.64 632.63 72.35 639.4 67.11C646.17 61.88 649.06 55.4 649.88 48.32L650.5 42.92H671.57C671.57 42.92 673.4 59.78 666.12 70.15C661.85 76.24 658.82 80.9 651.47 84.43L656.37 87.08C657.46 87.62 659.63 89.29 662.9 92.08C666.16 94.87 669.22 99.25 672.08 105.24C674.94 111.23 676.36 117.41 676.36 123.8V152.08H652.89L652.49 124.41C652.49 115.84 649.12 108.87 642.39 103.5C635.66 98.13 627 95.44 616.42 95.44H612.92V152.08H589.26V25Z" fill="black"/>
<path d="M55.03 50.6494H0.25V198.069L34.11 198.149C34.11 198.149 34.08 151.769 34.08 148.009C34.08 142.899 34.04 123.369 34.04 123.089C34.05 122.809 34.1 122.739 33.84 122.529C33.59 122.319 31.76 120.589 30.65 119.509C29.54 118.429 28.67 117.479 28.4 116.979C28.12 116.479 28.04 116.229 27.66 115.089C27.29 113.939 26.73 112.199 26.27 110.239C25.81 108.289 25.42 106.609 25.47 105.049C25.52 103.479 25.54 103.339 25.61 103.009C25.67 102.679 25.85 102.979 26.07 103.149C26.29 103.319 32.36 108.399 32.98 108.909C33.6 109.419 33.92 109.659 34.11 109.469C34.3 109.279 37.5 106.879 38.56 106.239C39.63 105.599 40.39 105.029 40.89 104.979C41.38 104.929 45.39 104.299 47.46 104.059C49.54 103.829 49.75 103.819 50.06 103.779C50.36 103.749 50.25 103.769 49.92 103.989C49.6 104.209 47.31 105.609 45.01 108.139C42.71 110.659 40.9 112.659 39.96 115.719C39.01 118.769 39.17 119.759 39.16 120.559C39.15 121.359 39.15 121.459 39.36 121.549C39.57 121.629 38.79 118.709 45.21 110.729C47.8 107.519 49.38 106.449 51.32 105.049C53.26 103.639 54.57 102.779 55.57 102.449C56.57 102.119 58.54 101.549 60.29 101.329C62.04 101.099 63.21 100.919 62.02 100.759C60.82 100.609 59.79 100.519 59.49 100.409C59.19 100.309 58.78 99.9694 58.49 99.5694C58.21 99.1694 58.23 98.7094 58.36 98.3094C58.49 97.9094 59.41 95.6794 59.56 95.2194C59.71 94.7494 59.65 94.6694 59.22 95.0794C58.8 95.4894 56.94 97.2594 56.1 97.6694C55.26 98.0894 54.89 98.3694 52.98 97.9594C51.07 97.5394 49.65 96.9894 48.46 96.4094C47.28 95.8294 46.9 95.7594 46.8 95.1494C46.7 94.5294 46.42 93.0594 46.4 91.3594C46.41 90.8494 46.51 90.6594 46.93 90.5094C47.35 90.3694 61.28 86.2394 62.02 86.0194C62.76 85.7994 63.59 85.6994 64.27 85.9494C64.96 86.1994 65.76 86.4994 66 87.3494C66.25 88.2094 69 96.4494 69.92 99.5694C70.85 102.689 71.17 103.869 71.32 104.269C71.46 104.679 71.65 105.149 71.25 105.609C70.85 106.069 58.24 119.359 57.63 119.929C57.02 120.499 56.93 120.539 57.03 121.269C57.14 121.989 58.54 136.989 58.63 137.549C58.72 138.119 59.23 140.379 59.36 141.379C60.58 150.389 64.63 154.819 65.53 154.819C66.62 154.819 103.36 150.899 103.53 103.739C103.7 54.2394 63.36 50.6494 55.03 50.6494ZM37.96 104.909C37.77 105.259 35.67 107.089 34.77 107.429C33.88 107.779 33.88 107.839 33.25 107.359C32.61 106.889 30.44 105.029 28.26 103.009C26.09 100.989 24.29 99.1394 23.88 98.6594C23.46 98.1694 23.26 97.5094 23.61 96.8994C23.96 96.2994 25.28 94.3394 27.07 92.9694C27.64 92.5594 28.82 91.7494 29.39 92.4094C29.97 93.0694 35.99 101.499 37.76 104.059C38.04 104.489 38.16 104.549 37.96 104.909ZM47.27 101.959C47.53 102.399 47.37 102.249 46.53 102.449C45.7 102.649 40.4 103.529 39.76 103.569C39.11 103.619 39.23 103.589 38.89 103.219C38.35 102.669 37.67 101.849 36.63 100.409C35.6 98.9694 34.05 96.8494 32.98 95.3594C31.91 93.8694 30.55 91.4494 30.32 90.8594C30.1 90.2794 30.18 90.2094 30.46 89.6694C31 88.7094 32.42 87.3394 33.58 86.5794C34.74 85.8194 35.65 85.4694 36.44 85.1794C37.22 84.8894 37.5 85.0994 37.76 85.4594C38.03 85.8094 40.82 90.4694 42.42 93.1794C44.01 95.8894 47 101.519 47.27 101.959ZM50.52 88.0594C49.9 88.2294 46.04 89.4694 45.54 89.6694C45.03 89.8794 44.87 90.0194 44.81 90.6494C44.75 91.2894 44.91 93.2894 44.94 93.8794C45.02 94.5294 45 94.3294 44.67 93.8094C44.35 93.2994 43.08 91.3194 41.42 88.6894C39.76 86.0594 39.27 85.1794 39.03 84.6194C38.78 84.0594 38.67 84.1994 39.96 83.0694C41.24 81.9394 42.62 81.2894 44.14 80.6794C45.67 80.0794 46.25 79.9194 46.93 79.9094C47.61 79.8994 47.66 80.0294 47.86 80.3994C48.07 80.7794 50.58 86.4794 50.92 87.2094C51.26 87.9494 51.14 87.8794 50.52 88.0594ZM61.48 84.8994C61.05 85.0194 53.71 87.0894 53.31 87.2094C52.91 87.3394 52.81 87.4194 52.58 86.9294C52.3 86.2494 49.97 81.7194 49.52 80.6794C49.08 79.6394 48.82 79.1994 49.33 78.9294C49.83 78.6594 51.96 77.8194 53.25 77.4494C54.53 77.0894 56.72 76.3694 57.23 76.1894C57.74 76.0094 58.06 75.9394 58.23 76.3294C58.4 76.7194 61.52 83.7394 61.68 84.1894C61.84 84.6494 61.91 84.7794 61.48 84.8994Z" fill="#03947E"/>
<path d="M55.03 50.6494H0.25V198.069L34.11 198.149C34.11 198.149 34.08 151.769 34.08 148.009C34.08 142.899 34.04 123.369 34.04 123.089C34.05 122.809 34.1 122.739 33.84 122.529C33.59 122.319 31.76 120.589 30.65 119.509C29.54 118.429 28.67 117.479 28.4 116.979C28.12 116.479 28.04 116.229 27.66 115.089C27.29 113.939 26.73 112.199 26.27 110.239C25.81 108.289 25.42 106.609 25.47 105.049C25.5 104.119 25.52 103.689 25.55 103.429C25.55 103.359 25.55 103.309 25.55 103.249C25.58 102.659 25.6 102.519 25.65 102.279C25.71 101.939 25.9 102.249 26.13 102.429C26.35 102.609 32.63 107.859 33.27 108.379C33.91 108.909 34.24 109.159 34.44 108.959C34.64 108.769 37.94 106.289 39.04 105.619C40.15 104.959 40.93 104.369 41.45 104.319C41.96 104.269 46.1 103.619 48.24 103.369C50.39 103.129 50.61 103.119 50.93 103.079C51.24 103.049 51.13 103.079 50.78 103.299C50.69 103.359 50.44 103.519 50.07 103.779C50.35 103.749 50.23 103.769 49.91 103.989C49.75 104.099 49.13 104.489 48.27 105.139C48.25 105.159 48.22 105.189 48.19 105.199C47.43 105.849 46.57 106.639 45.71 107.589C43.33 110.189 41.46 112.259 40.49 115.419C39.66 118.109 39.65 119.249 39.66 120.039C40.11 118.439 41.38 115.479 45.2 110.729C47.71 107.609 49.27 106.519 51.13 105.179C51.49 104.919 51.86 104.659 52.23 104.389C54.24 102.939 55.59 102.049 56.63 101.709C57.55 101.399 59.29 100.899 60.94 100.629C60.23 100.549 59.68 100.489 59.48 100.409C59.18 100.309 58.77 99.9694 58.48 99.5694C58.2 99.1694 58.22 98.7094 58.35 98.3094C58.48 97.9094 59.4 95.6794 59.55 95.2194C59.61 95.0194 59.64 94.8894 59.61 94.8394C59.58 94.7694 59.45 94.8494 59.21 95.0794C59.02 95.2694 58.53 95.7294 57.98 96.2294C57.96 96.2394 57.95 96.2494 57.94 96.2594C57.28 96.8394 56.54 97.4494 56.09 97.6694C55.25 98.0894 54.88 98.3694 52.97 97.9594C51.06 97.5394 49.64 96.9894 48.45 96.4094C47.27 95.8294 46.89 95.7594 46.79 95.1494C46.69 94.5294 46.41 93.0594 46.39 91.3594C46.4 90.8494 46.5 90.6594 46.92 90.5094C46.95 90.5094 47.03 90.4794 47.16 90.4394C47.15 90.3794 47.15 90.3094 47.15 90.2394C47.16 89.7094 47.26 89.5194 47.69 89.3594C48.13 89.2194 62.53 84.9494 63.29 84.7194C64.06 84.4894 64.92 84.3894 65.62 84.6494C66.33 84.9094 67.16 85.2194 67.41 86.0894C67.67 86.9794 70.51 95.4994 71.46 98.7294C72.42 101.949 72.75 103.169 72.91 103.589C73.05 104.009 73.25 104.499 72.84 104.969C72.42 105.449 59.39 119.189 58.76 119.779C58.13 120.369 58.03 120.409 58.14 121.159C58.25 121.909 59.7 137.409 59.79 137.989C59.88 138.579 60.41 140.919 60.55 141.949C61.47 148.719 63.93 152.989 65.55 154.819C67.17 154.759 103.35 150.539 103.52 103.739C103.69 54.2394 63.35 50.6494 55.02 50.6494H55.03ZM38.43 104.249C38.39 104.329 38.25 104.479 38.05 104.669C38.05 104.739 38.02 104.809 37.96 104.909C37.77 105.259 35.67 107.089 34.77 107.429C33.88 107.779 33.88 107.839 33.25 107.359C32.61 106.889 30.44 105.029 28.26 103.009C26.09 100.989 24.29 99.1394 23.88 98.6594C23.52 98.2394 23.32 97.6794 23.5 97.1494C23.36 96.7694 23.37 96.3594 23.59 95.9694C23.96 95.3494 25.32 93.3194 27.17 91.8994C27.76 91.4794 28.98 90.6394 29.57 91.3294C30.17 92.0094 36.39 100.719 38.22 103.369C38.51 103.809 38.64 103.879 38.43 104.249ZM48.06 101.199C48.32 101.649 48.16 101.499 47.29 101.709C47.25 101.719 47.2 101.729 47.14 101.739C47.2 101.849 47.25 101.919 47.27 101.959C47.53 102.399 47.37 102.249 46.53 102.449C45.7 102.649 40.4 103.529 39.76 103.569C39.11 103.619 39.23 103.589 38.89 103.219C38.35 102.669 37.67 101.849 36.63 100.409C35.6 98.9694 34.05 96.8494 32.98 95.3594C31.91 93.8694 30.55 91.4494 30.32 90.8594C30.1 90.2794 30.18 90.2094 30.46 89.6694C30.47 89.6494 30.48 89.6394 30.49 89.6194C30.31 89.1094 30.41 89.0194 30.68 88.4894C31.23 87.4994 32.7 86.0794 33.9 85.2994C35.1 84.5094 36.04 84.1494 36.86 83.8494C37.66 83.5494 37.95 83.7694 38.22 84.1394C38.5 84.4994 41.39 89.3194 43.04 92.1194C44.68 94.9194 47.78 100.739 48.06 101.199ZM51.42 86.8294C51.31 86.8594 51.1 86.9194 50.82 86.9994C50.86 87.0894 50.9 87.1594 50.92 87.2094C51.26 87.9494 51.14 87.8794 50.52 88.0594C49.9 88.2294 46.04 89.4694 45.54 89.6694C45.53 89.6694 45.52 89.6794 45.51 89.6894C45.02 89.8894 44.87 90.0294 44.81 90.6494C44.79 90.9094 44.81 91.3894 44.83 91.9194C44.86 92.6794 44.92 93.5294 44.94 93.8794C45.02 94.5294 45 94.3294 44.67 93.8094C44.35 93.2994 43.08 91.3194 41.42 88.6894C39.76 86.0594 39.27 85.1794 39.03 84.6194C38.81 84.1194 38.7 84.1794 39.59 83.3894C39.57 83.3494 39.56 83.3094 39.54 83.2694C39.28 82.6894 39.16 82.8394 40.5 81.6694C41.82 80.4994 43.25 79.8294 44.82 79.1994C46.4 78.5794 47 78.4094 47.7 78.3994C48.41 78.3894 48.46 78.5294 48.67 78.9094C48.88 79.2994 51.48 85.1994 51.83 85.9494C52.18 86.7094 52.06 86.6394 51.42 86.8294ZM62.75 83.5594C62.65 83.5894 62.2 83.7194 61.56 83.8994C61.62 84.0494 61.67 84.1494 61.68 84.1894C61.84 84.6494 61.91 84.7794 61.48 84.8994C61.05 85.0194 53.71 87.0894 53.31 87.2094C52.91 87.3394 52.81 87.4194 52.58 86.9294C52.3 86.2494 49.97 81.7194 49.52 80.6794C49.08 79.6394 48.82 79.1994 49.33 78.9294C49.48 78.8494 49.76 78.7194 50.12 78.5694C49.85 77.9294 49.78 77.6094 50.18 77.3894C50.7 77.1094 52.9 76.2394 54.24 75.8594C55.56 75.4894 57.82 74.7394 58.35 74.5594C58.88 74.3694 59.21 74.2994 59.39 74.6994C59.56 75.0994 62.79 82.3594 62.95 82.8294C63.12 83.2994 63.19 83.4394 62.75 83.5594Z" fill="url(#paint0_linear_11028_32349)"/>
<path d="M55.03 51.1499C58.49 51.1499 76.43 51.8099 89.44 64.8599C98.52 73.9699 103.09 87.0499 103.03 103.74C102.87 148.88 68.91 153.95 65.77 154.3C63.99 152.18 61.87 147.88 61.06 141.88C60.97 141.24 60.74 140.13 60.56 139.23C60.44 138.64 60.33 138.13 60.3 137.91C60.26 137.64 59.86 133.53 59.52 129.89C59.11 125.56 58.71 121.48 58.66 121.08C58.6133 120.78 58.7333 120.5 59.02 120.24L59.13 120.14C59.65 119.65 72.58 106.05 73.25 105.29C73.83 104.63 73.58 103.92 73.44 103.49L73.41 103.4C73.32 103.17 73.17 102.63 72.88 101.65C72.67 100.92 72.37 99.9199 71.98 98.5799C71.36 96.4799 69.97 92.2299 68.96 89.1199C68.43 87.5099 68.02 86.2399 67.93 85.9399C67.61 84.8199 66.58 84.4399 65.83 84.1699C65.5 84.0499 65.12 83.9799 64.72 83.9799C64.25 83.9799 63.73 84.0599 63.19 84.2299C63.1 84.2599 62.79 84.3499 62.33 84.4899C62.32 84.3999 62.29 84.3099 62.26 84.2199C62.62 84.1199 62.86 84.0499 62.92 84.0299C63.14 83.9699 63.4 83.8699 63.54 83.5999C63.69 83.2999 63.59 83.0099 63.47 82.6999L63.45 82.6599C63.34 82.3299 61.97 79.2399 60.59 76.0999C60.21 75.2299 59.93 74.5999 59.88 74.4799C59.71 74.0999 59.4 73.8899 59 73.8899C58.76 73.8899 58.52 73.9599 58.22 74.0699C57.73 74.2399 55.45 74.9899 54.13 75.3599C52.78 75.7399 50.55 76.6199 49.97 76.9299C49.35 77.2699 49.37 77.8099 49.51 78.2799C49.35 78.3499 49.22 78.4199 49.12 78.4699C49.1 78.4799 49.07 78.4999 49.05 78.5099C48.79 78.0699 48.53 77.8799 47.79 77.8799H47.71C46.89 77.8899 46.2 78.1099 44.65 78.7199C42.92 79.4099 41.5 80.1199 40.19 81.2799L39.99 81.4599C39 82.3199 38.71 82.5799 39 83.2499C38.81 83.4299 38.66 83.5799 38.55 83.7199C38.34 83.4599 38.02 83.1999 37.51 83.1999C37.27 83.1999 37.01 83.2599 36.7 83.3699C35.77 83.7099 34.84 84.0799 33.64 84.8699C32.47 85.6299 30.89 87.0899 30.25 88.2499L30.17 88.3999C29.96 88.8099 29.84 89.0699 29.96 89.5499C29.71 90.0299 29.62 90.2899 29.79 90.8299C29.57 90.6499 29.29 90.5499 28.98 90.5499C28.28 90.5499 27.53 91.0199 26.87 91.4899C25.13 92.8199 23.72 94.7599 23.16 95.7099C22.91 96.1599 22.85 96.6499 22.98 97.1499C22.84 97.7599 23.03 98.4199 23.5 98.9699C23.83 99.3499 25.12 100.7 26.88 102.38C26.64 102.18 26.48 102.05 26.45 102.02C26.41 101.99 26.37 101.95 26.33 101.91C26.19 101.78 26.02 101.61 25.76 101.61C25.68 101.61 25.27 101.64 25.17 102.16C25.11 102.44 25.09 102.61 25.06 103.23C25.06 103.27 25.06 103.3 25.06 103.35C25.03 103.62 25.01 104.02 24.98 105.01C24.93 106.66 25.35 108.44 25.79 110.33C26.25 112.31 26.82 114.06 27.19 115.22L27.22 115.31C27.58 116.38 27.67 116.66 27.96 117.19C28.31 117.84 29.43 118.99 30.3 119.84C31.38 120.89 33.25 122.66 33.52 122.89C33.52 122.89 33.54 122.9 33.54 122.91C33.54 122.91 33.54 122.91 33.54 122.92V123.06V125.07C33.54 130.23 33.58 143.84 33.58 147.98C33.58 151.51 33.61 192.6 33.61 197.62L0.75 197.54V51.1499H55.03ZM52.12 87.1299C52.12 87.1299 52.12 87.1299 52.12 87.1399C52.16 87.2299 52.22 87.3499 52.3 87.4599C52.06 87.5299 51.82 87.5999 51.6 87.6699C51.59 87.5499 51.56 87.4399 51.51 87.3199C51.53 87.3199 51.54 87.3199 51.56 87.3099L51.74 87.2599C51.87 87.2199 52 87.1899 52.12 87.1299ZM46.7 89.7999C46.68 89.8899 46.67 89.9799 46.67 90.0799C46.05 90.3399 45.91 90.7799 45.9 91.3699C45.92 92.9199 46.15 94.2699 46.27 94.9999L46.31 95.2299C46.44 95.9999 46.92 96.2299 47.73 96.6099C47.88 96.6799 48.05 96.7599 48.24 96.8599C49.69 97.5699 51.17 98.0699 52.87 98.4499C53.54 98.5899 54.06 98.6599 54.48 98.6599C55.24 98.6599 55.67 98.4399 56.17 98.1899L56.32 98.1199C56.73 97.9199 57.34 97.4599 58.25 96.6599H58.27L58.32 96.5999C58.41 96.5199 58.49 96.4399 58.58 96.3699C58.54 96.4699 58.5 96.5699 58.46 96.6699C58.19 97.3599 57.95 97.9499 57.88 98.1599C57.67 98.7999 57.74 99.3799 58.08 99.8699C58.28 100.15 58.53 100.4 58.77 100.58C57.87 100.8 57.06 101.05 56.48 101.24C55.37 101.6 53.98 102.52 51.94 103.99C51.73 104.15 51.51 104.3 51.3 104.45L50.84 104.78L50.7 104.88C48.88 106.19 47.3 107.33 44.81 110.42C42.92 112.77 41.63 114.71 40.76 116.28C40.82 116.06 40.89 115.82 40.97 115.57C41.92 112.48 43.76 110.47 46.08 107.93C46.78 107.16 47.56 106.4 48.47 105.62C48.52 105.59 48.56 105.55 48.59 105.52C49.26 105.01 49.79 104.67 50.04 104.5L50.19 104.4C50.27 104.34 50.34 104.3 50.39 104.27C50.46 104.23 50.62 104.12 50.7 103.95C50.83 103.86 50.92 103.8 50.99 103.76L51.06 103.71C51.14 103.66 51.2 103.62 51.25 103.59C51.39 103.51 51.71 103.31 51.6 102.93L51.46 102.56H51.08C51.08 102.56 50.98 102.56 50.87 102.57C50.75 102.58 50.65 102.59 50.46 102.61C50.13 102.64 49.54 102.7 48.19 102.85C46.86 103.01 44.78 103.31 43.25 103.54C42.98 103.58 42.72 103.62 42.49 103.65C44.19 103.37 46.14 103.04 46.65 102.91C46.86 102.86 47.02 102.83 47.15 102.81C47.42 102.77 47.7 102.72 47.84 102.43C47.9 102.3 47.91 102.18 47.88 102.07C47.9 102.07 47.91 102.07 47.92 102.07C48.2 102.02 48.48 101.98 48.62 101.68C48.76 101.38 48.61 101.12 48.49 100.91C48.4 100.77 47.98 99.9799 47.44 98.9899C46.79 97.7799 45.94 96.2299 45.13 94.7599H45.21L45.36 94.5899C45.52 94.3999 45.5 94.2499 45.45 93.8199L45.43 93.4599C45.4 93.0399 45.36 92.4299 45.34 91.8599C45.31 91.3299 45.3 90.8799 45.32 90.6699C45.36 90.2699 45.37 90.2699 45.71 90.1199L45.81 90.0799C45.98 90.0099 46.3 89.8999 46.71 89.7699M41.08 103.87C40.67 104 40.2 104.29 39.61 104.67C39.36 104.83 39.09 104.99 38.8 105.17C38.53 105.33 38.12 105.61 37.66 105.94C38.04 105.6 38.32 105.3 38.4 105.14C38.44 105.07 38.49 104.99 38.52 104.9C38.77 104.65 38.85 104.54 38.88 104.47C38.98 104.29 39.03 104.13 39.04 103.99C39.14 104.03 39.27 104.06 39.43 104.06C39.52 104.06 39.64 104.06 39.8 104.04C39.97 104.03 40.45 103.96 41.08 103.87ZM35.08 107.82C34.71 108.1 34.41 108.33 34.24 108.46C34.14 108.4 33.99 108.29 33.86 108.18C33.88 108.18 33.9 108.18 33.92 108.18C34.18 108.18 34.4 108.09 34.77 107.94L34.95 107.87C34.95 107.87 35.03 107.84 35.08 107.82ZM55.04 50.6299H0.25V198.05L34.11 198.13C34.11 198.13 34.08 151.75 34.08 147.99C34.08 142.88 34.04 123.35 34.04 123.07C34.05 122.79 34.1 122.72 33.84 122.51C33.59 122.3 31.76 120.57 30.65 119.49C29.54 118.41 28.67 117.46 28.4 116.96C28.12 116.46 28.04 116.21 27.66 115.07C27.29 113.92 26.73 112.18 26.27 110.22C25.81 108.27 25.42 106.59 25.47 105.03C25.5 104.1 25.52 103.67 25.55 103.41C25.55 103.34 25.55 103.29 25.55 103.23C25.58 102.64 25.6 102.5 25.65 102.26C25.67 102.15 25.7 102.11 25.75 102.11C25.84 102.11 25.98 102.29 26.13 102.41C26.35 102.59 32.63 107.84 33.27 108.36C33.76 108.77 34.07 109.01 34.28 109.01C34.34 109.01 34.4 108.99 34.44 108.94C34.64 108.75 37.94 106.27 39.04 105.6C40.15 104.94 40.93 104.35 41.45 104.3C41.96 104.25 46.1 103.6 48.24 103.35C50.39 103.11 50.61 103.1 50.93 103.06C51 103.06 51.05 103.05 51.08 103.05C51.18 103.05 51.06 103.1 50.78 103.28C50.69 103.34 50.44 103.5 50.07 103.76C50.13 103.76 50.18 103.75 50.2 103.75C50.29 103.75 50.16 103.8 49.91 103.97C49.75 104.08 49.13 104.47 48.27 105.12C48.25 105.14 48.22 105.17 48.19 105.18C47.43 105.83 46.57 106.62 45.71 107.57C43.33 110.17 41.46 112.24 40.49 115.4C39.66 118.09 39.65 119.23 39.66 120.02C40.11 118.42 41.38 115.46 45.2 110.71C47.71 107.59 49.27 106.5 51.13 105.16C51.49 104.9 51.86 104.64 52.23 104.37C54.24 102.92 55.59 102.03 56.63 101.69C57.55 101.38 59.29 100.88 60.94 100.61C60.23 100.53 59.68 100.47 59.48 100.39C59.18 100.29 58.77 99.9499 58.48 99.5499C58.2 99.1499 58.22 98.6899 58.35 98.2899C58.48 97.8899 59.4 95.6599 59.55 95.1999C59.61 94.9999 59.64 94.8699 59.61 94.8199C59.61 94.8199 59.59 94.7899 59.58 94.7899C59.52 94.7899 59.4 94.8799 59.21 95.0599C59.02 95.2499 58.53 95.7099 57.98 96.2099C57.96 96.2199 57.95 96.2299 57.94 96.2399C57.28 96.8199 56.54 97.4299 56.09 97.6499C55.54 97.9299 55.19 98.1399 54.48 98.1399C54.11 98.1399 53.63 98.0799 52.97 97.9399C51.06 97.5199 49.64 96.9699 48.45 96.3899C47.27 95.8099 46.89 95.7399 46.79 95.1299C46.69 94.5099 46.41 93.0399 46.39 91.3399C46.4 90.8299 46.5 90.6399 46.92 90.4899C46.95 90.4899 47.03 90.4599 47.16 90.4199C47.15 90.3599 47.15 90.2899 47.15 90.2199C47.16 89.6899 47.26 89.4999 47.69 89.3399C48.13 89.1999 62.53 84.9299 63.29 84.6999C63.74 84.5699 64.22 84.4799 64.68 84.4799C65.01 84.4799 65.33 84.5299 65.62 84.6299C66.33 84.8899 67.16 85.1999 67.41 86.0699C67.67 86.9599 70.51 95.4799 71.46 98.7099C72.42 101.93 72.75 103.15 72.91 103.57C73.05 103.99 73.25 104.48 72.84 104.95C72.42 105.43 59.39 119.17 58.76 119.76C58.13 120.35 58.03 120.39 58.14 121.14C58.25 121.89 59.7 137.39 59.79 137.97C59.88 138.56 60.41 140.9 60.55 141.93C61.47 148.7 63.93 152.97 65.55 154.8C67.17 154.74 103.35 150.52 103.52 103.72C103.69 54.2199 63.35 50.6299 55.02 50.6299H55.04ZM52.95 87.2899C52.82 87.2899 52.73 87.1999 52.59 86.9099C52.31 86.2299 49.98 81.6999 49.53 80.6599C49.09 79.6199 48.83 79.1799 49.34 78.9099C49.49 78.8299 49.77 78.6999 50.13 78.5499C49.86 77.9099 49.79 77.5899 50.19 77.3699C50.71 77.0899 52.91 76.2199 54.25 75.8399C55.57 75.4699 57.83 74.7199 58.36 74.5399C58.61 74.4499 58.81 74.3899 58.98 74.3899C59.17 74.3899 59.3 74.4699 59.4 74.6799C59.57 75.0799 62.8 82.3399 62.96 82.8099C63.13 83.2799 63.2 83.4199 62.76 83.5399C62.66 83.5699 62.21 83.6999 61.57 83.8799C61.63 84.0299 61.68 84.1299 61.69 84.1699C61.85 84.6299 61.92 84.7599 61.49 84.8799C61.06 84.9999 53.72 87.0699 53.32 87.1899C53.15 87.2399 53.04 87.2899 52.95 87.2899ZM44.98 94.2699C44.98 94.2699 44.86 94.0799 44.68 93.7899C44.36 93.2799 43.09 91.2999 41.43 88.6699C39.77 86.0399 39.28 85.1599 39.04 84.5999C38.82 84.0999 38.71 84.1599 39.6 83.3699C39.58 83.3299 39.57 83.2899 39.55 83.2499C39.29 82.6699 39.17 82.8199 40.51 81.6499C41.83 80.4799 43.26 79.8099 44.83 79.1799C46.41 78.5599 47.01 78.3899 47.71 78.3799C47.73 78.3799 47.76 78.3799 47.78 78.3799C48.43 78.3799 48.48 78.5199 48.68 78.8899C48.89 79.2799 51.49 85.1799 51.84 85.9299C52.19 86.6899 52.07 86.6199 51.43 86.8099C51.32 86.8399 51.11 86.8999 50.83 86.9799C50.87 87.0699 50.91 87.1399 50.93 87.1899C51.27 87.9299 51.15 87.8599 50.53 88.0399C49.91 88.2099 46.05 89.4499 45.55 89.6499C45.54 89.6499 45.53 89.6599 45.52 89.6699C45.03 89.8699 44.88 90.0099 44.82 90.6299C44.8 90.8899 44.82 91.3699 44.84 91.8999C44.87 92.6599 44.93 93.5099 44.95 93.8599C44.99 94.1499 45 94.2699 44.98 94.2699ZM39.43 103.57C39.15 103.57 39.16 103.49 38.9 103.2C38.36 102.65 37.68 101.83 36.64 100.39C35.61 98.9499 34.06 96.8299 32.99 95.3399C31.92 93.8499 30.56 91.4299 30.33 90.8399C30.11 90.2599 30.19 90.1899 30.47 89.6499C30.48 89.6299 30.49 89.6199 30.5 89.5999C30.32 89.0899 30.42 88.9999 30.69 88.4699C31.24 87.4799 32.71 86.0599 33.91 85.2799C35.11 84.4899 36.05 84.1299 36.87 83.8299C37.13 83.7299 37.34 83.6899 37.51 83.6899C37.86 83.6899 38.05 83.8699 38.23 84.1199C38.51 84.4799 41.4 89.2999 43.05 92.0999C44.69 94.8999 47.79 100.72 48.07 101.18C48.33 101.63 48.17 101.48 47.3 101.69C47.26 101.7 47.21 101.71 47.15 101.72C47.21 101.83 47.26 101.9 47.28 101.94C47.54 102.38 47.38 102.23 46.54 102.43C45.71 102.63 40.41 103.51 39.77 103.55C39.62 103.56 39.51 103.57 39.43 103.57ZM33.92 107.69C33.73 107.69 33.57 107.59 33.25 107.34C32.61 106.87 30.44 105.01 28.26 102.99C26.09 100.97 24.29 99.1199 23.88 98.6399C23.52 98.2199 23.32 97.6599 23.5 97.1299C23.36 96.7499 23.37 96.3399 23.59 95.9499C23.96 95.3299 25.32 93.2999 27.17 91.8799C27.6 91.5699 28.36 91.0499 28.97 91.0499C29.2 91.0499 29.41 91.1199 29.57 91.3099C30.17 91.9899 36.39 100.7 38.22 103.35C38.51 103.79 38.64 103.86 38.43 104.23C38.39 104.31 38.25 104.46 38.05 104.65C38.05 104.72 38.02 104.79 37.96 104.89C37.77 105.24 35.67 107.07 34.77 107.41C34.33 107.58 34.11 107.69 33.92 107.69Z" fill="url(#paint1_linear_11028_32349)"/>
<path d="M48.2008 105.2C47.4408 105.85 46.5808 106.64 45.7208 107.59C43.3408 110.19 41.4708 112.26 40.5008 115.42C39.6708 118.11 39.6608 119.25 39.6708 120.04C39.3708 121.13 39.4408 121.58 39.3608 121.55C39.1508 121.46 39.1508 121.36 39.1608 120.56C39.1708 119.76 39.0108 118.77 39.9608 115.72C40.9008 112.66 42.7108 110.66 45.0108 108.14C46.1608 106.87 47.3008 105.9 48.2008 105.2Z" fill="#EA5300"/>
<path d="M60.2902 101.33C58.5402 101.55 56.5702 102.12 55.5702 102.45C54.7402 102.72 53.6902 103.37 52.2402 104.39C54.2502 102.94 55.6002 102.05 56.6402 101.71C57.5602 101.4 59.3002 100.9 60.9502 100.63C61.2802 100.67 61.6402 100.71 62.0202 100.76C63.2102 100.92 62.0402 101.1 60.2902 101.33Z" fill="#EA5300"/>
<path d="M50.7905 103.3C50.7005 103.36 50.4505 103.52 50.0805 103.78H50.0605C49.7505 103.82 49.5405 103.83 47.4605 104.06C45.3905 104.3 41.3805 104.93 40.8905 104.98C40.3905 105.03 39.6305 105.6 38.5605 106.24C37.5005 106.88 34.3005 109.28 34.1105 109.47C33.9205 109.66 33.6005 109.42 32.9805 108.91C32.3605 108.4 26.2905 103.32 26.0705 103.15C25.8505 102.98 25.6705 102.68 25.6105 103.01C25.5905 103.09 25.5705 103.16 25.5605 103.25C25.5905 102.66 25.6105 102.52 25.6605 102.28C25.7205 101.94 25.9105 102.25 26.1405 102.43C26.3605 102.61 32.6405 107.86 33.2805 108.38C33.9205 108.91 34.2505 109.16 34.4505 108.96C34.6505 108.77 37.9505 106.29 39.0505 105.62C40.1605 104.96 40.9405 104.37 41.4605 104.32C41.9705 104.27 46.1105 103.62 48.2505 103.37C50.4005 103.13 50.6205 103.12 50.9405 103.08C51.2505 103.05 51.1405 103.08 50.7905 103.3Z" fill="#EA5300"/>
<path d="M58.1502 121.16C58.2602 121.91 59.7102 137.41 59.8002 137.99C59.8902 138.58 60.4202 140.92 60.5602 141.95C61.4802 148.72 63.9402 152.99 65.5602 154.82H65.5302C64.6402 154.82 60.5802 150.38 59.3702 141.38C59.2302 140.38 58.7202 138.12 58.6302 137.55C58.5402 136.99 57.1402 121.99 57.0302 121.27C56.9302 120.54 57.0202 120.5 57.6302 119.93C58.2402 119.36 70.8502 106.07 71.2502 105.61C71.6502 105.15 71.4602 104.68 71.3202 104.27C71.1702 103.87 70.8502 102.69 69.9202 99.5702C69.0002 96.4502 66.2502 88.2102 66.0002 87.3502C65.7602 86.5002 64.9602 86.2002 64.2702 85.9502C63.5902 85.7002 62.7602 85.8002 62.0202 86.0202C61.3302 86.2302 49.0802 89.8602 47.1702 90.4402C47.1602 90.3802 47.1602 90.3102 47.1602 90.2402C47.1702 89.7102 47.2702 89.5202 47.7002 89.3602C48.1402 89.2202 62.5402 84.9502 63.3002 84.7202C64.0702 84.4902 64.9302 84.3902 65.6302 84.6502C66.3402 84.9102 67.1702 85.2202 67.4202 86.0902C67.6802 86.9802 70.5202 95.5002 71.4702 98.7302C72.4302 101.95 72.7602 103.17 72.9202 103.59C73.0602 104.01 73.2602 104.5 72.8502 104.97C72.4302 105.45 59.4002 119.19 58.7702 119.78C58.1402 120.37 58.0402 120.41 58.1502 121.16Z" fill="#EA5300"/>
<path d="M38.4308 104.25C38.3908 104.33 38.2508 104.48 38.0508 104.67C38.0808 104.49 37.9608 104.37 37.7608 104.06C35.9908 101.5 29.9708 93.0701 29.3908 92.4101C28.8208 91.7501 27.6408 92.5601 27.0708 92.9701C25.2808 94.3401 23.9608 96.3001 23.6108 96.9001C23.5708 96.9801 23.5308 97.0701 23.5008 97.1501C23.3608 96.7701 23.3708 96.3601 23.5908 95.9701C23.9608 95.3501 25.3208 93.3201 27.1708 91.9001C27.7608 91.4801 28.9808 90.6401 29.5708 91.3301C30.1708 92.0101 36.3908 100.72 38.2208 103.37C38.5108 103.81 38.6408 103.88 38.4308 104.25Z" fill="#EA5300"/>
<path d="M47.2893 101.709C47.2893 101.709 47.1993 101.729 47.1393 101.739C46.4993 100.579 43.8693 95.6594 42.4193 93.1794C40.8193 90.4694 38.0293 85.8094 37.7593 85.4594C37.4993 85.0994 37.2193 84.8894 36.4393 85.1794C35.6493 85.4694 34.7393 85.8194 33.5793 86.5794C32.4393 87.3294 31.0493 88.6594 30.4893 89.6194C30.3093 89.1094 30.4093 89.0194 30.6793 88.4894C31.2293 87.4994 32.6993 86.0794 33.8993 85.2994C35.0993 84.5094 36.0393 84.1494 36.8593 83.8494C37.6593 83.5494 37.9493 83.7694 38.2193 84.1394C38.4993 84.4994 41.3893 89.3194 43.0393 92.1194C44.6793 94.9194 47.7793 100.739 48.0593 101.199C48.3193 101.649 48.1593 101.499 47.2893 101.709Z" fill="#EA5300"/>
<path d="M51.42 86.8299C51.31 86.8599 51.1 86.9199 50.82 86.9999C50.25 85.7399 48.06 80.7499 47.86 80.3999C47.66 80.0299 47.61 79.8999 46.93 79.9099C46.25 79.9199 45.67 80.0799 44.14 80.6799C42.62 81.2899 41.24 81.9399 39.96 83.0699C39.82 83.1899 39.7 83.2999 39.59 83.3899C39.57 83.3499 39.56 83.3099 39.54 83.2699C39.28 82.6899 39.16 82.8399 40.5 81.6699C41.82 80.4999 43.25 79.8299 44.82 79.1999C46.4 78.5799 47 78.4099 47.7 78.3999C48.41 78.3899 48.46 78.5299 48.67 78.9099C48.88 79.2999 51.48 85.1999 51.83 85.9499C52.18 86.7099 52.06 86.6399 51.42 86.8299Z" fill="#EA5300"/>
<path d="M62.7497 83.5602C62.6497 83.5902 62.1997 83.7202 61.5597 83.9002C60.9597 82.4802 58.3797 76.6802 58.2297 76.3302C58.0597 75.9402 57.7397 76.0102 57.2297 76.1902C56.7197 76.3702 54.5297 77.0902 53.2497 77.4502C52.3397 77.7102 50.9997 78.2102 50.1197 78.5702C49.8497 77.9302 49.7797 77.6102 50.1797 77.3902C50.6997 77.1102 52.8997 76.2402 54.2397 75.8602C55.5597 75.4902 57.8197 74.7402 58.3497 74.5602C58.8797 74.3702 59.2097 74.3002 59.3897 74.7002C59.5597 75.1002 62.7897 82.3602 62.9497 82.8302C63.1197 83.3002 63.1897 83.4402 62.7497 83.5602Z" fill="#EA5300"/>
<defs>
<linearGradient id="paint0_linear_11028_32349" x1="51.89" y1="189.059" x2="51.89" y2="85.7794" gradientUnits="userSpaceOnUse">
<stop stop-color="#FF2200"/>
<stop offset="0.11" stop-color="#FE2B00"/>
<stop offset="0.3" stop-color="#FE4400"/>
<stop offset="0.54" stop-color="#FD6E00"/>
<stop offset="0.81" stop-color="#FCA700"/>
<stop offset="1" stop-color="#FCD200"/>
</linearGradient>
<linearGradient id="paint1_linear_11028_32349" x1="0.25" y1="124.4" x2="103.53" y2="124.4" gradientUnits="userSpaceOnUse">
<stop stop-color="#FF2C00" stop-opacity="0"/>
<stop offset="0.59" stop-color="#FDF400" stop-opacity="0"/>
<stop offset="0.62" stop-color="#FCF100" stop-opacity="0.03"/>
<stop offset="0.65" stop-color="#FCEA00" stop-opacity="0.11"/>
<stop offset="0.69" stop-color="#FCDF00" stop-opacity="0.23"/>
<stop offset="0.73" stop-color="#FCD100" stop-opacity="0.4"/>
<stop offset="0.75" stop-color="#FCD600" stop-opacity="0.5"/>
<stop offset="0.79" stop-color="#FCDF00" stop-opacity="0.65"/>
<stop offset="0.83" stop-color="#FCE600" stop-opacity="0.78"/>
<stop offset="0.87" stop-color="#FCEC00" stop-opacity="0.87"/>
<stop offset="0.91" stop-color="#FCF000" stop-opacity="0.94"/>
<stop offset="0.95" stop-color="#FCF300" stop-opacity="0.99"/>
<stop offset="1" stop-color="#FDF400"/>
</linearGradient>
</defs>
</svg>
