<svg xmlns="http://www.w3.org/2000/svg" enable-background="new 0 0 450 450" viewBox="0 0 450 450" id="LegalPaper"><path fill="#021b79" d="M10.692 396.629H440.2v4H10.692z" class="color1a3a49 svgShape"></path><path fill="#d7e5f4" d="M359.015 83.985v266.46a4.868 4.868 0 0 1-4.87 4.871H140.18a4.876 4.876 0 0 1-4.881-4.87V83.985a4.876 4.876 0 0 1 4.881-4.872h213.964a4.868 4.868 0 0 1 4.871 4.871z" class="colord7daf4 svgShape"></path><path fill="#ffffff" d="M123.228 119.529h247.865v195.374H123.228z" transform="rotate(90 247.16 217.216)" class="colorffffff svgShape"></path><path fill="#83bffc" d="M288.529 380.51h101.474v16.296H288.529z" class="colorfcc283 svgShape"></path><path fill="#708efe" d="M377.325 366.75h-76.119a6.5 6.5 0 0 0-6.5 6.5v7.26h89.119v-7.26a6.5 6.5 0 0 0-6.5-6.5z" class="colorfe8b70 svgShape"></path><path fill="#708efe" d="M354.074 327.361h26.278v10.511h-26.278z" transform="rotate(-57.651 367.213 332.616)" class="colorfe8b70 svgShape"></path><path fill="#83bffc" d="M440.603 371.692a8.75 8.75 0 0 1-1.017 6.432c-2.546 4.326-8.488 5.42-12.718 2.741L366.926 342.9l9.46-14.936 60.32 38.205c2.065 1.308 3.388 3.318 3.897 5.524zM351.62 360.58l-3.23 5.098a2.208 2.208 0 0 1-3.047.684l-37.296-23.623a2.208 2.208 0 0 1-.684-3.047l3.229-5.098a2.208 2.208 0 0 1 3.047-.684l37.296 23.623a2.208 2.208 0 0 1 .684 3.047z" class="colorfcc283 svgShape"></path><path fill="#708efe" d="M331.116 323.892h5.04v39.401h-5.04z" transform="rotate(-57.651 333.636 343.592)" class="colorfe8b70 svgShape"></path><path fill="#708efe" d="M333.812 316.885h5.04v44.899h-5.04z" transform="rotate(-57.651 336.332 339.335)" class="colorfe8b70 svgShape"></path><path fill="#83bffc" d="m385.83 306.568 3.229-5.099a2.208 2.208 0 0 0-.684-3.047L351.078 274.8a2.208 2.208 0 0 0-3.047.684l-3.229 5.099a2.208 2.208 0 0 0 .684 3.047l37.296 23.623a2.208 2.208 0 0 0 3.047-.684z" class="colorfcc283 svgShape"></path><path fill="#708efe" d="M360.266 277.868h5.04v39.401h-5.04z" transform="rotate(122.349 362.786 297.57)" class="colorfe8b70 svgShape"></path><path fill="#708efe" d="M357.569 279.377h5.04v44.899h-5.04z" transform="rotate(122.349 360.09 301.827)" class="colorfe8b70 svgShape"></path><path fill="#83bffc" d="M328.531 300.88h39.359v39.401h-39.359z" transform="rotate(-57.651 348.21 320.58)" class="colorfcc283 svgShape"></path><path fill="#a7b6c6" d="M292.076 74.67v25.439a2.778 2.778 0 0 1-2.773 2.773h-84.274a2.78 2.78 0 0 1-2.784-2.773V74.67a2.78 2.78 0 0 1 2.784-2.773h84.274a2.778 2.778 0 0 1 2.773 2.773z" class="colora7abc6 svgShape"></path><path fill="#a7b6c6" d="M259.512 67.16v13.875a4.114 4.114 0 0 1-4.122 4.122h-16.464c-2.27 0-4.11-1.84-4.11-4.122V67.16c0-6.823 5.53-12.341 12.342-12.341 3.406 0 6.495 1.373 8.732 3.61a12.315 12.315 0 0 1 3.622 8.731z" class="colora7abc6 svgShape"></path><circle cx="247.16" cy="66.026" r="4.92" fill="#ffffff" class="colorffffff svgShape"></circle><path fill="#6081fe" d="M169.411 120.405h155.5v22.167h-155.5z" class="colorfe6081 svgShape"></path><path fill="#d7e5f4" d="M281.148 274.905h49.846v2.333h-49.846zM163.327 274.905h49.82v2.333h-49.82zM239.148 274.905h32.5v2.333h-32.5zM163.327 263.572h111.07v2.333h-111.07zM283.898 263.572h47.096v2.333h-47.096zM199.398 252.239h30v2.333h-30zM163.327 252.239h26.07v2.333h-26.07zM250.898 252.239h80.096v2.333h-80.096zM163.327 240.905h50.82v2.333h-50.82zM222.398 240.905h22.25v2.333h-22.25zM250.898 240.905h23.25v2.333h-23.25zM279.398 240.905h51.596v2.333h-51.596zM163.327 229.572h11.82v2.333h-11.82zM189.648 229.572h26.75v2.333h-26.75zM222.648 229.572h36.5v2.333h-36.5zM266.898 229.572h33.25v2.333h-33.25zM307.148 229.572h23.846v2.333h-23.846zM208.648 218.239h29.75v2.333h-29.75zM163.327 218.239h42.82v2.333h-42.82zM249.148 218.239h57.75v2.333h-57.75zM315.648 218.239h15.346v2.333h-15.346zM226.648 206.905h48v2.333h-48zM282.398 206.905h48.596v2.333h-48.596zM163.327 206.905h50.32v2.333h-50.32zM163.327 195.572h18.32v2.333h-18.32zM186.898 195.572h34.75v2.333h-34.75zM233.898 195.572h32.75v2.333h-32.75zM277.398 195.572h53.596v2.333h-53.596zM302.648 184.239h28.346v2.333h-28.346zM163.327 184.239h26.57v2.333h-26.57zM194.398 184.239h16.75v2.333h-16.75zM219.398 184.239h76.25v2.333h-76.25zM262.898 172.905h68.096v2.333h-68.096zM163.327 172.905h15.82v2.333h-15.82zM185.898 172.905h19.25v2.333h-19.25zM215.148 172.905h42v2.333h-42zM255.398 161.572h34.75v2.333h-34.75zM188.398 161.572h17.75v2.333h-17.75zM163.327 161.572h17.32v2.333h-17.32zM216.398 161.572h35.25v2.333h-35.25zM303.898 161.572h27.096v2.333h-27.096z" class="colord7daf4 svgShape"></path><circle cx="191.614" cy="309.705" r="19.133" fill="#377bc0" class="color37c092 svgShape"></circle><path fill="#ffffff" d="m188.528 317.742-5.659-5.66 2.828-2.828 2.831 2.831 9.003-9.002 2.828 2.828z" class="colorffffff svgShape"></path><path fill="#3a81c9" d="m84.398 396.296-.26-1.688-11.423-82.393h43.682l1.661 84.08z" class="color3a6dc9 svgShape"></path><path fill="#0575e6" d="m72.715 312.215 11.424 82.393 5.35-82.393z" class="color1c5ab5 svgShape"></path><path fill="#3a81c9" d="M40.736 396.296v-84.081h48.753l-11.855 84.08z" class="color3a6dc9 svgShape"></path><path fill="#bdddfe" d="M200.218 239.91c2.518-1.418 6.467-3.195 7.612-1.121 1.729 3.108-7.702 6.249-7.702 6.249s8.202-.902 5.755 3.445c-2.455 4.353-24.356 9.998-24.356 9.998l-6.265-17.672s7.283-12.366 9.864-9.546c1.199 1.31-.91 7.967-.91 7.967s12.908-10.443 15.036-7.417c1.135 1.637-1.338 3.873-3.857 5.6 4.347-2.448 10.472-5.549 11.102-4.004.674 1.665-3.561 4.74-6.279 6.5z" class="colorfec3bd svgShape"></path><path fill="#060e2d" d="M100.114 114.022c2.117 1.966 4.286 8.821 4.794 11.666a46.743 46.743 0 0 1-1.528 22.495c-.36 1.11-.798 2.264-1.7 3.007-1.39 1.145-3.472.962-5.127.252-2.69-1.153-4.758-3.482-6.044-6.111s-1.857-5.551-2.173-8.46a53.29 53.29 0 0 1 1.847-20.719M63.359 211.901c-.537.226-1.102.433-1.61.725-1.648.95-2.44 2.665-3.146 4.492l-16.742 7.89-.594-.112a22.842 22.842 0 0 1-1.101-.226c-2.345-.527-4.7-1.375-6.102-3.259-1.516-2.033-1.563-4.85-.876-7.288.697-2.43 2.034-4.624 3.155-6.902 1.11-2.27 2.024-4.765 1.76-7.28-.32-2.975-2.203-5.536-2.928-8.436-1.083-4.389.687-9.087 3.588-12.553 2.89-3.465 7.476-4.454 10.725-7.599a130.144 130.144 0 0 1 2.514-2.392l6.686 1.083s.63 2.712 1.318 5.82c.64 2.91 1.328 6.186 1.545 7.863.546 4.049 1.054 12.43 1.412 19.464.17 3.446.301 6.572.396 8.71z" class="color06112d svgShape"></path><path fill="#3d519c" d="m41.267 224.896.594.113-2.26 1.064.565-1.403c.367.084.734.16 1.101.226z" class="color3d479c svgShape"></path><path fill="#3d519c" d="m41.86 225.009 16.743-7.891c-.584 1.468-1.092 3.004-1.968 4.275-1.572 2.298-4.303 3.616-7.062 4.02-2.562.387-5.16.067-7.712-.404zM61.748 212.626c.509-.292 1.074-.5 1.61-.725.076 1.808.114 2.919.114 2.919l-4.869 2.298c.706-1.827 1.498-3.541 3.145-4.492zM65.345 210.564c-.47.678-1.205 1.026-1.986 1.337-.095-2.138-.226-5.264-.396-8.71.17.376.367.744.593 1.101.612.989 1.385 1.884 1.855 2.938.471 1.064.603 2.383-.066 3.334z" class="color3d479c svgShape"></path><path fill="#6081fe" d="M60.01 175.862c-7.596-.177-10.526-4.508-10.526-4.508 1.483-1.438 2.515-2.391 2.515-2.391l6.687 1.085s.635 2.708 1.324 5.814zM182.863 259.514s-29.968 26.944-49.419 26.002c-1.525-.068-2.904-.282-4.127-.67-11.876-3.71-27.326-26.103-32.862-34.639-1.34-2.059-2.097-3.312-2.097-3.312l-1.204-55.186s18.44 1.884 28.151 20.567c9.711 18.674 16.16 41.095 16.16 41.095l37.797-14.747 7.6 20.89z" class="colorfe6081 svgShape"></path><path fill="#475fb9" d="M133.444 285.516c-1.525-.068-2.904-.282-4.127-.67-11.876-3.71-27.326-26.103-32.862-34.639l12.314-42.66 6.846 16.217s9.225 10.925 9.468 20.879c.214 8.574-2.282 31.58 8.361 40.873z" class="colorb94768 svgShape"></path><path fill="#6081fe" d="M38.176 312.998c.178 3.707.327 6.862.439 9.235h81.797l-2.5-54.989s-.43-3.092.724-5.391c3.41-6.691 5.532-20.568-6.378-33.15 0 0-.77-23.636-8.973-30.672-5.445-4.672-8.28-6.588-15.428-7.26-7.268-.688-19.927-.3-27.196.37-7.854.724-22.166 4.668-26.438 11.29-2.497 3.876-1.843 19.765-.353 36.127 1.309 14.425 3.281 53.359 4.306 74.44z" class="colorfe6081 svgShape"></path><path fill="#475fb9" d="m75.007 277.91-2.49 24.686-34.341 10.402c-1.025-21.082-2.997-60.015-4.306-74.44 3.109-14.614 5.648-31.605 9.42-33.49 0 0 9.307 5.125 10.744 16.915 1.704 13.969-8.437 49.355-8.437 49.355l29.41 6.572z" class="colorb94768 svgShape"></path><path fill="#bdddfe" d="M72.12 282.445s16.212-11.684 18.935-9.95c2.688 1.721-4.411 10.194-4.411 10.194" class="colorfec3bd svgShape"></path><path fill="#060e2d" d="M94.075 263.76h2.64l-7.856 44.333h-2.64c-2.198 0-3.664-1.781-3.274-3.98l6.443-36.365c.391-2.207 2.488-3.988 4.687-3.988z" class="color06112d svgShape"></path><path fill="#0e1738" d="m91.896 267.748-6.444 36.365c-.39 2.199 1.076 3.98 3.275 3.98h20.594c2.198 0 4.295-1.781 4.685-3.98l6.444-36.365c.39-2.207-1.075-3.988-3.274-3.988H96.582c-2.198 0-4.295 1.781-4.686 3.988z" class="color0e1738 svgShape"></path><path fill="#bdddfe" d="M86.644 282.689c1.914-.218 16.15-1.817 15.201 1.747-.343 1.295-3.163 2.782-4.42 3.095 3.882.11 9.389 1.302 9.023 3.075-.509 2.468-5.225 2.215-6.868 2.052 1.67.227 6.461 1.08 5.467 3.39-.605 1.406-6.374 1.823-8.19 1.883 1.322.434 6.338 1.58 4.076 3.896-2.91 2.98-31.59-1.339-31.59-1.339l2.778-18.043" class="colorfec3bd svgShape"></path><path fill="#6081fe" d="M35.198 201.024c-10.507 4.792-29.383 68.738-25.5 85.752 5.519 24.19 62.818 15.82 62.818 15.82l2.491-24.686-35.895-4.005s15.21-32.402 13.644-53.83c-1.276-17.44-17.558-19.051-17.558-19.051z" class="colorfe6081 svgShape"></path><path fill="#bdddfe" d="M83.853 205.19c-15.725 4.521-23.192-14.048-23.192-14.048l1.464-23.312 8.862-1.68 7.647 5.262 7.062 4.857-.905 9.37-.456 4.77s5.176 13.153-.482 14.781z" class="colorfec3bd svgShape"></path><path fill="#89bdf1" d="m85.696 176.269-.905 9.37s-16.87-6.347-19.342-13.59c-1.662-4.891 7.234-2.626 13.185-.637l7.062 4.857z" class="colorf18b89 svgShape"></path><path fill="#bdddfe" d="M92.061 181.738c-17.862 5.08-29.933-13.912-29.933-13.912s-10.265-1.58-10.66-9.341c-.395-7.762 5.788-8.686 7.896-6.451 0 0 2.764-33.164 23.815-32.635 8.275.205 13.858 9.215 16.519 20.308 4.106 17.127 2.85 39.049-7.637 42.031z" class="colorfec3bd svgShape"></path><path fill="#060e2d" d="M103.05 131.276c-1.733 18.673-35.473.782-32.177 6.752 3.296 5.96-1.892 5.288-5.631 12.656-2.785 5.487-2.49 8.195-3.197 8.489-.875.365-1.542-1.4-1.992-3.265-1.098-4.556-7.847-4.33-8.501.31a11.895 11.895 0 0 0-.087 2.263c.396 7.769 10.66 9.341 10.66 9.341l-.395 6.3c-33.075-7.972-28.68-64.66 17.533-66.547 17.817-.727 25.51 5.028 23.786 23.701z" class="color06112d svgShape"></path><ellipse cx="81.703" cy="150.682" fill="#060e2d" rx="1.606" ry="2.409" transform="rotate(-2.623 81.703 150.682)" class="color06112d svgShape"></ellipse><path fill="#060e2d" d="M79.263 147.163a.5.5 0 0 1-.312-.89c3.156-2.517 5.154-.777 5.237-.702a.5.5 0 0 1-.666.746c-.067-.057-1.49-1.222-3.948.737a.497.497 0 0 1-.311.11z" class="color06112d svgShape"></path><ellipse cx="95.279" cy="150.682" fill="#060e2d" rx="1.606" ry="2.409" transform="rotate(-2.623 95.279 150.682)" class="color06112d svgShape"></ellipse><path fill="#060e2d" d="M92.838 147.163a.5.5 0 0 1-.312-.89c3.157-2.517 5.154-.777 5.238-.702a.5.5 0 0 1-.666.746c-.067-.057-1.49-1.222-3.949.737a.497.497 0 0 1-.31.11z" class="color06112d svgShape"></path><path fill="#89bdf1" d="M91.252 163.344a.499.499 0 0 1-.332-.873c.445-.397.7-.922.716-1.479a1.986 1.986 0 0 0-.6-1.468c-.188-.19-.408-.356-.627-.523a11.513 11.513 0 0 1-.455-.361c-1.037-.882-1.736-2.119-2.019-3.577-.246-1.27-.169-2.539-.094-3.765a.5.5 0 1 1 .998.061c-.07 1.164-.144 2.368.078 3.513.24 1.233.822 2.273 1.685 3.006.133.113.274.22.415.328.255.196.509.392.728.612.599.6.915 1.383.89 2.204-.024.835-.397 1.615-1.05 2.196a.498.498 0 0 1-.333.126zM87.246 170.014c-2.09 0-4.16-1.096-5.322-2.835a.5.5 0 1 1 .83-.555c1.017 1.518 2.863 2.457 4.676 2.387a.5.5 0 0 1 .037 1 6.076 6.076 0 0 1-.22.003z" class="colorf18b89 svgShape"></path><circle cx="388.122" cy="214.678" r="15.681" fill="#dae9f9" class="colorf9dae0 svgShape"></circle><circle cx="388.122" cy="214.678" r="9.211" fill="#ffffff" class="colorffffff svgShape"></circle><path fill="#dae9f9" d="m394.348 226.352 13.037 13.037a3.846 3.846 0 0 0 5.44 0 3.856 3.856 0 0 0 .008-5.448l-13.037-13.037-5.448 5.448z" class="colorf9dae0 svgShape"></path><ellipse cx="111.222" cy="87.18" fill="#dae9f9" rx="11.564" ry="11.556" transform="rotate(-30.005 111.222 87.18)" class="colorf9dae0 svgShape"></ellipse><path fill="#ffffff" d="M118.97 85.899c.706 4.28-2.188 8.318-6.47 9.027s-8.32-2.183-9.027-6.464a7.838 7.838 0 0 1 2.51-7.129 7.837 7.837 0 0 1 3.96-1.898 7.832 7.832 0 0 1 4.36.522 7.83 7.83 0 0 1 4.667 5.942z" class="colorffffff svgShape"></path><path fill="#b3d5f7" d="m113.275 73.676 1.037 6.28-.01.001a7.832 7.832 0 0 0-4.358-.522 7.837 7.837 0 0 0-3.96 1.898l-.009.002-1.036-6.28 8.336-1.38z" class="colorf7b3c2 svgShape"></path><ellipse cx="145.178" cy="60.932" fill="#dae9f9" rx="11.564" ry="11.556" transform="rotate(-30.005 145.178 60.932)" class="colorf9dae0 svgShape"></ellipse><path fill="#ffffff" d="M147.796 53.529a7.842 7.842 0 0 1 4.787 10.016 7.854 7.854 0 0 1-10.022 4.79 7.83 7.83 0 0 1-5.035-5.633 7.827 7.827 0 0 1 .248-4.383 7.834 7.834 0 0 1 2.563-3.565 7.842 7.842 0 0 1 7.46-1.225z" class="colorffffff svgShape"></path><path fill="#b3d5f7" d="m134.336 52.627 6.004 2.118-.003.009a7.834 7.834 0 0 0-2.563 3.565 7.827 7.827 0 0 0-.248 4.383l-.003.008-6.003-2.118 2.816-7.965z" class="colorf7b3c2 svgShape"></path><path fill="#b3d5f7" d="M133.66 57.424a.326.326 0 0 1-.078.032c-.925.245-1.912.358-2.935.335a.32.32 0 1 1 .015-.64 9.914 9.914 0 0 0 2.756-.314.32.32 0 0 1 .242.587z" class="colorf7b3c2 svgShape"></path><path fill="#b3d5f7" d="M130.985 58.7c-.266.153-.581.23-.906.214a14.022 14.022 0 0 1-1.015-.075 1.576 1.576 0 0 1-1.096-.588 1.378 1.378 0 0 1-.286-1.068c.058-.38.268-.72.592-.958.319-.222.703-.327 1.084-.293l.01.001c.286.034.567.05.847.063.795.04 1.43.66 1.48 1.446a1.31 1.31 0 0 1-.39 1.01c-.095.097-.202.18-.32.248zm-2.267-2a.822.822 0 0 0-.403.58.745.745 0 0 0 .158.576c.155.199.389.322.658.346.326.039.651.058.978.073a.967.967 0 0 0 .74-.271.679.679 0 0 0 .206-.521.91.91 0 0 0-.87-.848 12.15 12.15 0 0 1-.889-.066.993.993 0 0 0-.578.13z" class="colorf7b3c2 svgShape"></path><path fill="#b3d5f7" d="M128.989 57.624a.32.32 0 0 1-.2.04 46.783 46.783 0 0 1-2.855-.465.32.32 0 1 1 .119-.63c.892.168 1.844.34 2.816.46a.32.32 0 0 1 .12.595z" class="colorf7b3c2 svgShape"></path><path fill="#b3d5f7" d="M126.321 58.044c-.325.188-.719.254-1.099.181l-.909-.169c-.813-.145-1.38-.903-1.264-1.689.06-.39.288-.74.628-.961a1.63 1.63 0 0 1 1.16-.224h.002l.927.173c.844.161 1.393.914 1.251 1.714a1.4 1.4 0 0 1-.696.975zm-2.266-2.12-.032.02a.749.749 0 0 0-.34.518c-.067.446.268.88.745.965l.913.17a.949.949 0 0 0 .718-.144.764.764 0 0 0 .328-.495c.08-.452-.245-.88-.74-.975l-.925-.171a.993.993 0 0 0-.667.112z" class="colorf7b3c2 svgShape"></path><path fill="#b3d5f7" d="M124.353 56.83a.319.319 0 0 1-.215.037c-1.123-.199-1.99-.31-2.813-.36a.32.32 0 1 1 .04-.64c.848.053 1.738.167 2.885.37a.32.32 0 0 1 .103.592z" class="colorf7b3c2 svgShape"></path><path fill="#b3d5f7" d="M121.63 57.413c-.249.143-.539.22-.844.207-.092 0-.2-.002-.31-.005-.17-.004-.342-.009-.509.004-.807.02-1.488-.543-1.603-1.31a1.356 1.356 0 0 1 .353-1.107c.262-.295.664-.474 1.129-.5a7.28 7.28 0 0 1 .693-.007c.112.003.224.005.337.005.476.02.902.218 1.182.546.251.293.366.66.323 1.035a1.51 1.51 0 0 1-.752 1.132zm-2.25-1.934a.745.745 0 0 0-.186.15.715.715 0 0 0-.196.59.914.914 0 0 0 .936.762c.172-.015.365-.01.559-.005.102.002.203.005.304.004.479.02.897-.326.948-.772a.71.71 0 0 0-.173-.546.98.98 0 0 0-.709-.322c-.104 0-.222-.003-.34-.005-.21-.005-.42-.01-.634.005h-.005c-.193.011-.365.06-.503.139z" class="colorf7b3c2 svgShape"></path><path fill="#b3d5f7" d="M119.676 56.457a.318.318 0 0 1-.139.042c-.921.063-1.848.228-2.755.491a.32.32 0 1 1-.179-.615 13.722 13.722 0 0 1 2.891-.514.32.32 0 0 1 .182.596z" class="colorf7b3c2 svgShape"></path><path fill="#b3d5f7" d="M116.948 58.1a1.61 1.61 0 0 1-.266.122c-.198.058-.371.129-.545.199l-.25.1a1.552 1.552 0 0 1-1.945-.68 1.344 1.344 0 0 1-.049-1.165c.18-.399.503-.71.89-.86l.258-.102c.235-.095.47-.19.713-.261.424-.15.897-.114 1.283.101.343.192.585.511.665.876a1.553 1.553 0 0 1-.754 1.67zm-2.06-1.627a1.01 1.01 0 0 0-.409.46.702.702 0 0 0 .027.606c.212.388.726.564 1.143.387l.249-.098c.193-.079.387-.156.587-.214a.915.915 0 0 0 .592-1.046.692.692 0 0 0-.352-.455.946.946 0 0 0-.774-.052c-.238.072-.454.16-.671.246l-.268.107a.882.882 0 0 0-.124.059z" class="colorf7b3c2 svgShape"></path><path fill="#b3d5f7" d="M112.66 59.044a.32.32 0 0 1-.348-.536 13.667 13.667 0 0 1 2.538-1.479.32.32 0 1 1 .257.586 12.999 12.999 0 0 0-2.447 1.429z" class="colorf7b3c2 svgShape"></path><path fill="#b3d5f7" d="M112.1 60.946a1.544 1.544 0 0 1-1.8-.165 1.354 1.354 0 0 1-.442-1.073c.012-.397.202-.79.536-1.107.166-.162.347-.31.527-.455.087-.07.174-.14.26-.213.383-.3.846-.422 1.278-.346.382.067.702.279.903.597a1.55 1.55 0 0 1-.365 2.035c-.068.06-.153.128-.238.197-.132.106-.264.212-.385.331a1.657 1.657 0 0 1-.273.199zm-.387-2.604a1.138 1.138 0 0 0-.129.087c-.078.067-.17.14-.26.214-.166.134-.332.268-.484.417l-.005.004c-.21.2-.33.435-.337.665a.721.721 0 0 0 .23.576c.336.298.857.289 1.208-.023.123-.124.272-.244.422-.365.079-.063.157-.126.234-.193a.91.91 0 0 0 .228-1.198.689.689 0 0 0-.472-.309.95.95 0 0 0-.635.125zm3.683-5.34.007-.003-.007.004z" class="colorf7b3c2 svgShape"></path><path fill="#b3d5f7" d="M109.419 62.418a.32.32 0 0 1-.427-.454 13.8 13.8 0 0 1 1.884-2.252.32.32 0 0 1 .445.46 13.154 13.154 0 0 0-1.796 2.147.32.32 0 0 1-.106.1z" class="colorf7b3c2 svgShape"></path><path fill="#b3d5f7" d="M109.239 64.69c-.387.224-.87.283-1.31.12-.391-.15-.682-.458-.804-.848a1.634 1.634 0 0 1 .113-1.236l.136-.259a7.26 7.26 0 0 1 .373-.659 1.572 1.572 0 0 1 1.047-.751c.387-.075.779.013 1.075.242.611.47.773 1.34.376 2.022-.11.168-.193.328-.276.488l-.13.248c-.134.27-.347.487-.6.633zm-1.438-1.66c-.166.31-.1.624-.064.745.062.198.215.359.417.437a.925.925 0 0 0 1.117-.451c.049-.09.09-.168.13-.246.094-.181.188-.362.302-.532a.917.917 0 0 0-.225-1.177.69.69 0 0 0-.562-.121.947.947 0 0 0-.626.461c-.136.207-.242.412-.348.616l-.14.267z" class="colorf7b3c2 svgShape"></path><path fill="#b3d5f7" d="M107.617 66.735a.32.32 0 0 1-.473-.345 12.9 12.9 0 0 1 .936-2.788.32.32 0 0 1 .578.275 12.25 12.25 0 0 0-.888 2.649.319.319 0 0 1-.153.209z" class="colorf7b3c2 svgShape"></path><path fill="#b3d5f7" d="M107.9 69.222a1.5 1.5 0 0 1-.758.201 1.359 1.359 0 0 1-1.04-.512c-.255-.306-.373-.726-.331-1.18.016-.232.054-.461.092-.69.019-.11.037-.221.053-.332.09-.48.355-.878.73-1.108a1.308 1.308 0 0 1 1.072-.15c.748.22 1.22.994 1.076 1.763-.012.09-.03.197-.048.304-.029.167-.058.334-.068.503-.063.526-.363.96-.778 1.2zm-.902-3.086a.984.984 0 0 0-.45.677c-.014.102-.034.218-.054.334-.035.21-.07.418-.085.63v.008c-.027.286.04.541.187.719a.723.723 0 0 0 .553.28c.45 0 .835-.351.891-.82.01-.173.042-.364.075-.554.017-.099.034-.198.047-.297a.913.913 0 0 0-.625-1.048.684.684 0 0 0-.54.07zm-.908 1.62.005-.004-.005.003z" class="colorf7b3c2 svgShape"></path><path fill="#b3d5f7" d="M107.411 71.41a.32.32 0 0 1-.478-.238 14.618 14.618 0 0 1-.065-2.931.32.32 0 0 1 .638.05c-.073.933-.052 1.876.063 2.802a.32.32 0 0 1-.158.317z" class="colorf7b3c2 svgShape"></path><path fill="#b3d5f7" d="M108.202 73.917a1.339 1.339 0 0 1-1.404-.02 1.637 1.637 0 0 1-.708-1.015l-.065-.295a7.668 7.668 0 0 1-.14-.725c-.078-.44.032-.9.305-1.246.243-.308.597-.497.97-.52.775-.046 1.467.51 1.61 1.292.024.198.064.374.104.55.021.094.043.188.062.282a1.556 1.556 0 0 1-.734 1.697zm-1.486-1.17a.99.99 0 0 0 .43.612.698.698 0 0 0 .602.066.92.92 0 0 0 .563-1.064c-.02-.103-.04-.192-.061-.281a5.813 5.813 0 0 1-.114-.596.911.911 0 0 0-.938-.749.696.696 0 0 0-.506.277.946.946 0 0 0-.174.753c.031.24.081.46.131.68l.067.303z" class="colorf7b3c2 svgShape"></path><path fill="#b3d5f7" d="m108.819 75.869-.01.006a.32.32 0 0 1-.433-.132 12.597 12.597 0 0 1-1.077-2.737.32.32 0 0 1 .619-.162c.23.88.574 1.754 1.023 2.598a.32.32 0 0 1-.122.427z" class="colorf7b3c2 svgShape"></path><path fill="#dae9f9" d="M407.614 90.859s-3.262 18.135-14.351 21.658c-11.09-3.523-14.352-21.658-14.352-21.658 11.481-2.218 14.352-9.524 14.352-9.524s2.87 7.306 14.351 9.524z" class="colorf9dae0 svgShape"></path><path fill="#ffffff" d="m389.857 102.74-3.082-4.738 2.515-1.636 1.446 2.223 8.68-5.645 1.636 2.515z" class="colorffffff svgShape"></path></svg>