<svg xmlns="http://www.w3.org/2000/svg" enable-background="new 0 0 2000 2000" viewBox="0 0 2000 2000" id="Legalresearch"><path fill="#ccd8e5" fill-rule="evenodd" d="M832.62,1504.54H507.65c-47.51,0-86.4,38.87-86.4,86.4c0,47.51,38.88,86.38,86.4,86.38h812.22
		c-40.32,0-73.31-38.87-73.31-86.38c0-47.53,33-86.4,73.31-86.4h-11.07h-1.98H832.62z" clip-rule="evenodd" class="colord7cce5 svgShape"></path><path fill="#30448d" fill-rule="evenodd" d="M421.26,1590.94c0-47.53,38.88-86.4,86.4-86.4h278.69l520.48,0.02c0.66-0.01,1.31-0.02,1.98-0.02h11.07
		c-40.32,0-73.31,38.87-73.31,86.4c0,47.51,33,86.38,73.31,86.38H507.65C460.14,1677.32,421.26,1638.45,421.26,1590.94
		L421.26,1590.94z M832.62,389.15h-46.28H503.55c-63.04,0-114.63,51.57-114.63,114.63v1091.65c0,58.32,47.71,106.03,106.02,106.03
		h811.88c17.87,0,33.56-9.72,42.09-24.13c4.29-7.26,6.76-15.72,6.76-24.72v-196.91V439.12c0-27.49-22.49-49.97-49.98-49.97H832.62z" clip-rule="evenodd" class="color38308d svgShape"></path><polygon fill="#0575e6" fill-rule="evenodd" points="624.74 1594.57 748.16 1594.57 748.16 1802.32 687.46 1742.16 624.74 1802.32" clip-rule="evenodd" class="color9488c0 svgShape"></polygon><path fill="#0575e6" fill-rule="evenodd" d="M1319.87,1504.54c21.76-7.77,33.7-20.95,35.8-39.56v-9.29V439.12c0-27.49-22.49-49.97-49.98-49.97H832.62
		h-46.28H503.55v1115.4h4.11h278.69l520.48,0.02l1.98-0.02H1319.87z" clip-rule="evenodd" class="color9488c0 svgShape"></path><path fill="#5364a2" fill-rule="evenodd" d="M636.53,299.85h707.33c55.22,0,100.4,45.18,100.4,100.4v972.29c0,55.21-45.18,100.39-100.4,100.39H636.53
		c-55.22,0-100.4-45.18-100.4-100.39V400.25C536.13,345.03,581.31,299.85,636.53,299.85z" clip-rule="evenodd" class="color5a53a2 svgShape"></path><path fill="#ccd8e5" fill-rule="evenodd" d="M636.53,328.23h707.33c39.62,0,72.02,32.41,72.02,72.02v972.28c0,39.62-32.41,72.02-72.02,72.02H636.53
		c-39.62,0-72.02-32.41-72.02-72.02V400.25C564.51,360.63,596.92,328.23,636.53,328.23z" clip-rule="evenodd" class="colord7cce5 svgShape"></path><polygon fill="#ffffff" fill-rule="evenodd" points="581.03 377.9 1282.76 322.66 1361.46 1322.6 659.73 1377.83" clip-rule="evenodd" class="colorffffff svgShape"></polygon><polygon fill="#0575e6" fill-rule="evenodd" points="622.18 438.5 1251.59 388.96 1257.98 470.17 628.58 519.72" clip-rule="evenodd" class="color9488c0 svgShape"></polygon><rect width="80.19" height="80.19" x="656.5" y="581.35" fill="#0575e6" fill-rule="evenodd" clip-rule="evenodd" transform="rotate(-4.513 696.69 621.74)" class="color9488c0 svgShape"></rect><path fill="#ccd8e5" fill-rule="evenodd" d="M796.46,576.29l433.98-34.15c7.33-0.58,13.79,4.94,14.37,12.27l0,0c0.58,7.33-4.95,13.79-12.27,14.37
		l-433.98,34.16c-7.33,0.58-13.79-4.95-14.37-12.28l0,0C783.61,583.34,789.13,576.87,796.46,576.29L796.46,576.29z M800.2,623.77
		c-7.33,0.57-12.85,7.04-12.27,14.36v0.01c0.57,7.32,7.04,12.85,14.36,12.27l260.66-20.51c7.33-0.58,12.86-7.04,12.28-14.37l0,0
		c-0.58-7.33-7.04-12.85-14.37-12.28L800.2,623.77z" clip-rule="evenodd" class="colord7cce5 svgShape"></path><rect width="80.19" height="80.19" x="666.72" y="711.15" fill="#0575e6" fill-rule="evenodd" clip-rule="evenodd" transform="rotate(-4.513 706.829 751.523)" class="color9488c0 svgShape"></rect><path fill="#ccd8e5" fill-rule="evenodd" d="M806.68,706.1l434-34.16c7.32-0.58,13.79,4.95,14.36,12.28l0,0c0.58,7.32-4.94,13.79-12.27,14.37
		l-433.98,34.15c-7.33,0.58-13.79-4.94-14.37-12.27l0,0C793.83,713.15,799.36,706.68,806.68,706.1L806.68,706.1z M810.41,753.57
		c-7.32,0.58-12.85,7.04-12.27,14.37l0,0c0.58,7.33,7.04,12.85,14.37,12.27l260.66-20.51c7.33-0.58,12.85-7.04,12.27-14.37l0,0
		c-0.58-7.33-7.04-12.85-14.37-12.27L810.41,753.57z" clip-rule="evenodd" class="colord7cce5 svgShape"></path><rect width="80.19" height="80.19" x="676.94" y="840.96" fill="#0575e6" fill-rule="evenodd" clip-rule="evenodd" transform="rotate(-4.513 716.603 881.052)" class="color9488c0 svgShape"></rect><path fill="#ccd8e5" fill-rule="evenodd" d="M816.9,835.91l433.98-34.16c7.33-0.57,13.79,4.95,14.37,12.28l0,0c0.58,7.33-4.95,13.79-12.27,14.37
		l-434,34.15c-7.32,0.58-13.79-4.94-14.36-12.27l0,0C804.05,842.95,809.57,836.49,816.9,835.91L816.9,835.91z M820.64,883.38
		c-7.33,0.58-12.85,7.04-12.28,14.37l0,0c0.58,7.33,7.05,12.85,14.37,12.28l260.66-20.53c7.33-0.57,12.85-7.04,12.28-14.37l0,0
		c-0.58-7.32-7.05-12.85-14.37-12.27L820.64,883.38z" clip-rule="evenodd" class="colord7cce5 svgShape"></path><polygon fill="#0575e6" fill-rule="evenodd" points="684.12 974.05 764.08 967.75 770.36 1047.69 690.42 1053.99" clip-rule="evenodd" class="color9488c0 svgShape"></polygon><path fill="#ccd8e5" fill-rule="evenodd" d="M827.11,965.71l433.98-34.15c7.33-0.58,13.79,4.94,14.37,12.27l0,0c0.58,7.33-4.94,13.79-12.27,14.37
		l-433.98,34.16c-7.33,0.58-13.79-4.95-14.37-12.28l0,0C814.26,972.77,819.79,966.29,827.11,965.71L827.11,965.71z M830.85,1013.18
		c-7.32,0.58-12.85,7.05-12.27,14.37v0.01c0.58,7.32,7.04,12.85,14.37,12.27l260.66-20.51c7.32-0.58,12.85-7.04,12.27-14.37l0,0
		c-0.58-7.33-7.04-12.86-14.37-12.28L830.85,1013.18z" clip-rule="evenodd" class="colord7cce5 svgShape"></path><rect width="80.19" height="80.19" x="697.37" y="1100.58" fill="#0575e6" fill-rule="evenodd" clip-rule="evenodd" transform="rotate(-4.513 737.488 1141.124)" class="color9488c0 svgShape"></rect><path fill="#ccd8e5" fill-rule="evenodd" d="M837.34,1095.53l433.98-34.16c7.33-0.58,13.79,4.95,14.37,12.27l0,0c0.58,7.33-4.95,13.81-12.28,14.37
		l-433.98,34.16c-7.32,0.58-13.79-4.95-14.37-12.27v-0.01C824.49,1102.57,830,1096.1,837.34,1095.53L837.34,1095.53z M841.07,1143
		c-7.33,0.58-12.86,7.04-12.28,14.37l0,0c0.58,7.33,7.04,12.85,14.37,12.27l260.66-20.51c7.33-0.58,12.85-7.04,12.27-14.37l0,0
		c-0.57-7.33-7.04-12.85-14.36-12.27L841.07,1143z" clip-rule="evenodd" class="colord7cce5 svgShape"></path><polygon fill="#0575e6" fill-rule="evenodd" points="704.56 1233.65 784.52 1227.37 790.8 1307.31 710.86 1313.6" clip-rule="evenodd" class="color9488c0 svgShape"></polygon><path fill="#ccd8e5" fill-rule="evenodd" d="M847.55,1225.33l433.98-34.16c7.33-0.58,13.79,4.95,14.37,12.28l0,0c0.58,7.33-4.94,13.79-12.27,14.37
		l-433.98,34.15c-7.33,0.58-13.79-4.94-14.37-12.27l0,0C834.7,1232.37,840.22,1225.91,847.55,1225.33L847.55,1225.33z
		 M851.29,1272.8c-7.33,0.58-12.85,7.04-12.27,14.37l0,0c0.58,7.33,7.04,12.85,14.37,12.27l260.66-20.51
		c7.32-0.58,12.85-7.04,12.27-14.37l0,0c-0.58-7.33-7.04-12.85-14.37-12.27L851.29,1272.8z" clip-rule="evenodd" class="colord7cce5 svgShape"></path><path fill="#021b79" fill-rule="evenodd" d="M814.5,255.56h124.4v-26.21c0-28.22,23.08-51.31,51.31-51.31l0,0c28.22,0,51.3,23.08,51.3,51.31v26.21h124.4
		c17.05,0,31.01,13.95,31.01,30.99v59.06c0,17.05-13.95,31.01-31.01,31.01H814.5c-17.05,0-31.01-13.95-31.01-31.01v-59.06
		C783.49,269.51,797.44,255.56,814.5,255.56L814.5,255.56z M990.2,208.68c-12.54,0-22.71,10.16-22.71,22.69
		c0,12.54,10.17,22.71,22.71,22.71c12.54,0,22.7-10.17,22.7-22.71C1012.9,218.84,1002.74,208.68,990.2,208.68z" clip-rule="evenodd" class="color2b2870 svgShape"></path><ellipse cx="1286.16" cy="1769.44" fill="#c6d4e2" fill-rule="evenodd" clip-rule="evenodd" rx="471.93" ry="51.13" class="colord1c6e2 svgShape"></ellipse><path fill="#070d23" fill-rule="evenodd" d="M1490.62 664.81c38.1-4.94 66.88-2.33 79.19 15.96-1.56 11.15-4.91 25.65-10.07 43.51 2.24 4.25 5.52 6.46 9.85 6.64 5.43-10.58 9.97-16.9 13.62-18.95 18.14 8.13 14.74 20.68-10.23 37.65-1.47 5.84-2.88 10.68-4.23 14.51 22.47-5.03 41.26-25.12 43.91-33.82 26.21-51.65-3.01-73.46-18.66-81.41-6.91-51.15-81.18-5.94-118.39-30.6C1460.81 638.73 1479.1 664.35 1490.62 664.81zM1649.55 1779.96c22.09-7.78 23.87-19.17 35.78-24.72 11.98-5.6 13.36-15.57 1.64-26.4-8.66 6.92-19.39 15.42-25.09 10.91-3.79-3-16.68-2.8-19.24 1.58-11.21 26.08-26.82 17.81-29.9 29.68C1612.39 1786.82 1639.42 1783.53 1649.55 1779.96zM1459.87 1780.75c40.77-.66 71.25-1.15 85.33-5.6 15.2-4.79 12.05-14.06 3.33-28.88-38.44 17.68-28.19-3.63-46.17-.92-12.63 10.17-31.34 16.99-56.1 20.45C1435.78 1773.52 1440.04 1780.41 1459.87 1780.75z" clip-rule="evenodd" class="color071023 svgShape"></path><path fill="#88c1fa" fill-rule="evenodd" d="M1600.77,791.23c-6.51,0.47-16.78-0.79-18.59-3.09c-6.93-8.8-11.73-17.98-13.51-23.75
		c1.35-3.85,2.77-8.71,4.24-14.58c25.1-17.04,28.52-29.65,10.29-37.82c-3.67,2.06-8.23,8.4-13.68,19.03
		c-4.35-0.18-7.64-2.4-9.89-6.67c5.18-17.93,8.54-32.51,10.11-43.71c-12.36-18.38-41.27-21-79.56-16.04
		c-1.77,10.19-3.23,20.98-4.36,32.38c-6.77,6.23-5.9,29.35,0.33,55.99c-3.12,15.15,6.24,23.43,28.07,24.81
		c0.31,5.37-0.19,11.97-0.53,12.72c-0.55,1.16-2.49,2.28-5.17,3.24l0,0C1507.78,818.73,1538.53,817.9,1600.77,791.23z" clip-rule="evenodd" class="colorfab688 svgShape"></path><path fill="#0575e6" fill-rule="evenodd" d="M1262.1,880.3c34.31,92.86,50.56,146.04,98.18,190.82c17.15-5.22,32.38-16.93,45.67-35.19
		c-0.71,58.68,0.76,117.08,4.38,175.2c34.75,16.48,80.89,15.41,138.42-3.19l23.34-28.74c5.99-1.17,19.6,5.45,26.13,15.54
		c54.62-41.68,91.47-86.5,113.2-131.02c-5.86-95.64-18.86-171.1-38.97-226.39c-10.17-15.63-34.05-31.01-71.67-46.11
		c-62.24,26.68-93,27.5-92.26,2.49c-18.3,6.01-42.59,16.64-72.86,31.89c-25.23,19.17-46.72,71.12-64.47,155.86
		c-25.84-41.05-52.98-81.22-87.08-116.87C1277.19,866.57,1269.11,871.66,1262.1,880.3L1262.1,880.3z M1584.65,1153.28
		c-18.11-59.55-8.11-133.02,29.99-220.42c9.6,43.12,19.96,85.56,31.1,127.31C1632.8,1066.33,1612.44,1097.36,1584.65,1153.28z" clip-rule="evenodd" class="color9488c0 svgShape"></path><path fill="#070d23" fill-rule="evenodd" d="M1591.43,1230.91c-8.83-0.69-23.06-8.34-42.69-22.96c-57.53,18.6-103.66,19.67-138.42,3.19
		c-6.17,97.83,17.87,200.41,48.39,314.73c29.88,50.18,28.61,85.47,44.54,201.27c8.83,6.32,23.45,5.41,43.83-2.75
		c6.47-98.73,2-164.1-23.62-200.96c4.02-33.11-6.47-114.49-6.96-165.57c18.63,41.55,31.44,97.69,55.71,154.37
		c29.58,69.03,50.17,142.9,65.77,210.28c16.5,3.2,31.96,1.31,46.4-5.66c-16.56-110.76-34.93-186.99-55.08-228.68
		c0.77-108.89-9.6-206.7-31.11-293.42C1594.21,1204.99,1591.94,1217.03,1591.43,1230.91z" clip-rule="evenodd" class="color071023 svgShape"></path><path fill="#5162a1" fill-rule="evenodd" d="M1405.94 1035.93c1.89-56.98 6.47-103.69 13.71-140.15-18.43 77.4-36.29 128.76-53.59 154.09-10.92-.34-23.34-7.36-40.1-19.97 10.07 15.24 20.96 29.17 34.32 41.22C1377.43 1065.9 1392.66 1054.19 1405.94 1035.93zM1572.08 1179.21c3.35-8.29 7.53-16.93 12.57-25.93-18.11-59.55-8.11-133.02 29.99-220.42-55.42 78.79-71.13 162.79-47.15 251.99L1572.08 1179.21z" clip-rule="evenodd" class="color6251a1 svgShape"></path><path fill="#5776ed" fill-rule="evenodd" d="M1539.37,772.5c-6.12,3.01-14.5,4.77-25.15,5.27c0.21,3.6,0.06,7.77-0.18,10.32
		C1524.76,786.04,1533.2,780.83,1539.37,772.5z" clip-rule="evenodd" class="colored7d57 svgShape"></path><path fill="#88c1fa" fill-rule="evenodd" d="M1544.68,1747.99c-2.06-6.74-2.83-14.01-2.32-21.79c-15.55,5.6-27.42,6.56-35.61,2.94
		c0.42,5.77-0.23,11.1-1.97,15.99C1518.93,1744.63,1512.47,1761.77,1544.68,1747.99L1544.68,1747.99z M1647.45,1738.43
		c4.89-1.29,11.81-0.74,14.43,1.32c5.09,4.03,14.22-2.35,22.28-8.68c-1.39-3.83-2.54-8.01-3.45-12.57
		c-9.71,4.07-19.88,5.89-30.5,5.45C1650.35,1729.75,1649.44,1734.57,1647.45,1738.43z" clip-rule="evenodd" class="colorfab688 svgShape"></path><path fill="#070d23" fill-rule="evenodd" d="M911.63,323.21c103.1-79.82,251.38-60.96,331.21,42.13c72.04,93.05,63.69,222.9-14.42,306.01l1.11,1.44
		c4.52,5.83,3.44,14.29-2.39,18.81l-37.85,29.3c-5.83,4.52-14.3,3.44-18.81-2.39l-1.11-1.43
		c-100.02,54.81-227.82,30.39-299.86-62.66C789.68,551.32,808.54,403.04,911.63,323.21L911.63,323.21z M931.81,349.28
		c-88.7,68.68-104.93,196.26-36.24,284.96c68.68,88.71,196.27,104.93,284.97,36.26c88.7-68.68,104.93-196.27,36.24-284.97
		C1148.1,296.82,1020.51,280.59,931.81,349.28z" clip-rule="evenodd" class="color071023 svgShape"></path><polygon fill="#5162a1" fill-rule="evenodd" points="1227.14 691.6 1300.9 786.85 1263.05 816.16 1189.3 720.9" clip-rule="evenodd" class="color6251a1 svgShape"></polygon><path fill="#021b79" fill-rule="evenodd" d="M1228.53,771.57l37.85-29.3c5.83-4.52,14.3-3.44,18.81,2.39l67.26,86.86l0.1,0.13l145.27,187.61l0.02,0.03
		l40.24,51.96l145.29,187.64c4.52,5.83,3.44,14.3-2.39,18.81l-37.85,29.3c-5.83,4.52-14.3,3.44-18.81-2.39l-67.27-86.88l-0.09-0.11
		l-145.29-187.64l-40.24-51.96l-0.01-0.01l-145.28-187.63C1221.63,784.56,1222.71,776.09,1228.53,771.57z" clip-rule="evenodd" class="color2b2870 svgShape"></path><path fill="#88c1fa" fill-rule="evenodd" d="M1584.86,1215.78L1584.86,1215.78c6.34-12.34,13.49-22.29,21.46-29.86c-1.65-11.91-11.17-23.67-17.09-25.16
		l-22.67,10.99c-19.85,1.6-35.68,4.44-47.5,8.51c8.42,6.98,16.39,9.28,23.87,6.9c-9.75,6.96-14.84,11.78-15.3,14.47
		c13.12,25.84,24.46,38.26,34.06,37.25C1574.68,1230.24,1582.4,1222.54,1584.86,1215.78z" clip-rule="evenodd" class="colorfab688 svgShape"></path><path fill="#0575e6" fill-rule="evenodd" d="M1691.66,1097.99c-22.05,33.05-52.83,65.77-93.45,96.76c-4.83-8.01-16.95-27.29-23.58-26.91
		c6.78-6.12,4.98-5.56,10.02-14.56c20.2-40.65,36.48-68.15,48.84-82.5C1648.15,1078.95,1667.54,1088.03,1691.66,1097.99z" clip-rule="evenodd" class="color9488c0 svgShape"></path><path fill="#88c1fa" fill-rule="evenodd" d="M1262.11,880.33c-1.16-2.89-5.35-14.4-9.92-25.68c-11.38-5.84-22.63-23.94-21.1-34.41
		c4.07-13.22,1.38-20.07,14.48-23.37c3.83,1.38,9.93,9.92,13.76,23.45c-4.53,8.58,3.55,15.64,8.07,21.53
		c5.28,8.61,1.69,2.19,7.78,11.81c2.38,4.97,6.86,9.27,8.03,11.99C1276.12,867.93,1269.28,871.65,1262.11,880.33z" clip-rule="evenodd" class="colorfab688 svgShape"></path><path fill="#5162a1" fill-rule="evenodd" d="M1447.56,954.35c40.34-0.32,87.89,4.45,142.72,18.27c7.02-13.41,15.14-26.66,24.36-39.76
		c-88.2-17-152.31-20.7-192.34-11.12L1447.56,954.35L1447.56,954.35z M1408.72,1182.66c37.66-3.46,76.84-4.99,117.57-4.64
		l-25.81-33.33c-31.87-0.41-62.94,1.01-93.2,4.27C1407.68,1160.21,1408.16,1171.43,1408.72,1182.66L1408.72,1182.66z
		 M1558.57,1072.63c-7.02-1.3-14.38-2.46-22.12-3.46l1.62,2.09l18.72,24.19C1557.08,1087.8,1557.67,1080.2,1558.57,1072.63
		L1558.57,1072.63z M1478.76,1116.63l-31.63-40.84c-15.82-0.07-29.59,1.18-41.33,3.7c0.09,12.68,0.27,25.35,0.56,38.01
		C1426.4,1114.86,1450.53,1114.59,1478.76,1116.63L1478.76,1116.63z M1497.84,1019.3l12.26,15.84c16.43,2.04,34.29,4.85,53.57,8.42
		c3.44-14.85,8.12-29.54,14.07-44.05c-38.19-10.11-74.61-16.16-109.28-18.16L1497.84,1019.3L1497.84,1019.3z M1465.84,824.96
		c39.52-6.34,84.29-4.52,134.32,5.44c-6.02-10.67-13.58-20.61-22.73-29.84c-43.5,15.96-66.42,15.03-68.73-2.79
		C1492.24,805.76,1477.95,814.83,1465.84,824.96L1465.84,824.96z M1612.76,859.45c-60.35-12.28-119.46-17.15-173.68-6.98
		c-7.44,12.04-16.74,32.44-20.06,46.5c51.98-14.95,102.82-10.35,198.23,7.63C1618.34,891.64,1615.3,872.74,1612.76,859.45z" clip-rule="evenodd" class="color6251a1 svgShape"></path><path fill="#021b79" fill-rule="evenodd" d="M283.85,1587.58l-11.55,11.84c4.95,6.67,5.42,15.03,0.69,19.86c-4.65,4.76-12.83,4.57-19.58-0.01
		c-17.25,22.17-15.47,54.5,5.08,74.58l0,0c20.56,20.07,52.9,21.08,74.68,3.3c-4.75-6.63-5.15-14.81-0.49-19.58
		c4.72-4.83,13.07-4.56,19.87,0.22l11.55-11.83l-11.43-11.16c45.62-32.57,102.69-82.31,160.85-141.85
		c57.63-59.02,105.63-116.74,137.14-162.91L661.9,1361l11.55-11.82c-4.94-6.7-5.41-15.03-0.69-19.87
		c4.65-4.77,12.83-4.57,19.57,0.02c11.5-14.77,14.54-34.04,9.22-51.2l-38.01-37.14c-17.29-4.91-36.46-1.39-50.96,10.45
		c4.75,6.63,5.14,14.81,0.49,19.58c-4.73,4.84-13.08,4.55-19.88-0.23l-11.55,11.83l11.22,10.98
		c-45.41,32.57-101.97,81.96-159.59,140.97c-58.15,59.54-106.52,117.8-138,164.17L283.85,1587.58L283.85,1587.58z" clip-rule="evenodd" class="color2b2870 svgShape"></path><path fill="#5162a1" fill-rule="evenodd" d="M1088.92 1139.74L1088.92 1139.74c-12.99-12.72-34.02-12.46-46.72.56l-161.85 165.73c-12.68 13-12.44 34.03.56 46.72l0 0c13.02 12.7 34.03 12.45 46.72-.56l161.85-165.74C1102.16 1173.45 1101.91 1152.42 1088.92 1139.74L1088.92 1139.74zM797.96 855.65L797.96 855.65c-12.99-12.7-34.03-12.46-46.72.56L589.4 1021.95c-12.69 13-12.44 34.02.56 46.72l0 0c13 12.69 34.03 12.44 46.72-.56l161.84-165.76C811.2 889.37 810.96 868.35 797.96 855.65L797.96 855.65z" clip-rule="evenodd" class="color6251a1 svgShape"></path><polygon fill="#021b79" fill-rule="evenodd" points="1036.04 1146.59 886.5 1299.72 642.83 1061.8 792.36 908.67 1036.04 1146.59" clip-rule="evenodd" class="color2b2870 svgShape"></polygon><polygon fill="#5162a1" fill-rule="evenodd" points="701.56 1278.14 663.53 1241.01 743.02 1159.62 781.03 1196.74" clip-rule="evenodd" class="color6251a1 svgShape"></polygon><path fill="#a9bdd2" fill-rule="evenodd" d="M1062.74,1632.45c119.64,0,216.63,21.86,216.63,48.83c0,26.97-97,48.83-216.63,48.83
		c-119.64,0-216.63-21.86-216.63-48.83C846.11,1654.31,943.1,1632.45,1062.74,1632.45z" clip-rule="evenodd" class="colorb6a9d2 svgShape"></path><path fill="#5162a1" fill-rule="evenodd" d="M1062.74,1785.2c119.64,0,216.63-21.87,216.63-48.83v-55.1c0,26.97-97,48.83-216.63,48.83
		c-119.64,0-216.63-21.86-216.63-48.83v55.1C846.11,1763.33,943.1,1785.2,1062.74,1785.2z" clip-rule="evenodd" class="color6251a1 svgShape"></path></svg>