<svg xmlns="http://www.w3.org/2000/svg" viewBox="0 0 2800 1900" id="LordHanumanstandingindiangreetingpose"><g style="isolation:isolate" fill="#000000" class="color000000 svgShape"><g data-name="Layer 1" fill="#000000" class="color000000 svgShape"><ellipse cx="1251.109" cy="1693.574" opacity=".15" rx="600.181" ry="136.297" fill="#000000" class="color000000 svgShape"></ellipse><path fill="#657bce" d="M993.18907 1239.6611s-25.08507 153.6462 0 363.7339c0 0 3.1356 28.2207-34.492 53.3058s-48.6024 54.8736-12.5426 67.4162 94.06912 3.1356 103.47612-15.6782-6.2713-31.3564 40.7632-50.1702c0 0 22.7334-8.623 1.5678-53.3058 0 0 22.3415-246.1475 65.8484-363.7338S993.18907 1239.6611 993.18907 1239.6611zM1384.2249 1239.6611s25.0851 153.6462 0 363.7339c0 0-3.1356 28.2207 34.492 53.3058s48.6024 54.8736 12.5426 67.4162-94.0691 3.1356-103.476-15.6782 6.2713-31.3564-40.7633-50.1702c0 0-22.7334-8.623-1.5678-53.3058 0 0-22.3414-246.1475-65.8484-363.7338S1384.2249 1239.6611 1384.2249 1239.6611z" class="colorce9065 svgShape"></path><path d="M1157.7919 1241.2146c-43.4816 117.6075-65.8485 363.7346-65.8485 363.7346 21.1962 44.6931-1.5474 53.3059-1.5474 53.3059-47.0347 18.8138-31.3565 31.3564-40.7634 50.1703s-67.43672 28.2208-103.47622 15.6782c-15.1352-5.2679-22.0332-13.5459-22.0751-23.2877a164.49123 164.49123 0 0058.90872 3.7216c43.899-5.5191 89.3862-60.3719 65.8485-68.9842-14.9678-5.519-41.3493-10.3684-59.57722-12.961 4.80759-11.2045 3.92972-19.19 3.92972-19.19q-3.699-31.0434-6.02022-60.3719c34.241 26.4652 62.46182 16.4729 62.46182 16.4729l23.4969-238.3089c-46.4079 8.4873-73.20683 9.9086-88.67582 8.6123 3.302-56.8177 8.73732-90.139 8.73732-90.139S1201.3142 1123.6489 1157.7919 1241.2146zM1352.2017 1351.7562c-34.492-13.3367-88.5513-36.8331-88.5513-36.8331l-8.7792 66.6432c-9.5743-51.7596-21.3227-102.6821-35.2872-140.3517-43.4805-117.5657 164.6427-1.5469 164.6427-1.5469s25.0852 153.6465 0 363.7346c0 0-2.0904 18.8557 17.685 39.4257-32.7783-1.38-90.1396-6.5643-121.5797-25.5037a118.99014 118.99014 0 015.1005-12.3751s-1.5463-16.8072-4.5564-43.6898C1401.4105 1578.1916 1352.2017 1351.7562 1352.2017 1351.7562zM1367.8799 1683.3402c-23.2458 1.5469-36.5416 6.1039-43.899 11.4974-1.6729-12.1659-2.1322-22.6599-36.9591-36.5825 0 0-11.3718-4.3064-10.494-22.6599 17.2665 8.9047 56.316 27.7186 88.2165 33.6556 21.4473 3.9721 47.5358 1.505 68.0226-1.8817 1.7138 1.4637 3.3439 2.9687 4.8494 4.5156C1421.6033 1676.5254 1398.6923 1681.2917 1367.8799 1683.3402zM1431.2614 1724.1036c-30.1439 10.494-75.5484 5.644-95.1564-7.191 29.1405-5.4353 87.0876-15.8456 117.0222-18.772C1454.4235 1709.0108 1447.7755 1718.3758 1431.2614 1724.1036z" style="mix-blend-mode:soft-light" opacity=".37" fill="#000000" class="color000000 svgShape"></path><path fill="#2350f9" d="M1389.7123,1559.4961s-45.4667,44.6828-108.1794,8.623l-2.3518-17.246s-30.1805,19.5977-11.3667,46.2506,112.883,25.477,131.3048.7839-1.9598-47.0345-9.0149-54.0897Z" class="colorf9c023 svgShape"></path><path fill="#3956c4" d="M1397.689,1332.1482c-142.6922-9.4069-199.1338-97.2049-199.1338-97.2049-114.4305,100.3406-226.51952,60.3713-226.51952,60.3713,5.8119-51.8422,11.874-96.619,17.64409-134.6233,17.60123-115.4753,32.90283-168.7394,32.90283-168.7394,6.6061-12.1246,21.3646-23.1618,41.0563-32.1508,58.8658-26.841,162.2593-35.4954,227.229-1.1705,20.152,10.6193,36.5825,25.4194,46.8682,45.0695,20.9451,40.1361,34.6585,98.0412,43.6061,154.0645C1395.5985,1247.3185,1397.689,1332.1482,1397.689,1332.1482Z" class="colorc43939 svgShape"></path><path d="M1397.689,1332.1482c-142.6922-9.4069-199.1338-97.2049-199.1338-97.2049-72.7893,63.8418-144.6162,70.8653-187.2607,67.5628,77.8889-15.8038,102.5565-91.4772,103.3506-94.1111-55.6474,64.176-108.1174,54.7691-108.1174,54.7691,91.8115-27.0082,113.761-95.7833,114.3887-97.9156-46.4497,56.4837-109.6219,69.4437-141.98172,72.2451.7941-5.8952,1.5464-11.6643,2.2568-17.267,131.61432-18.6883,145.24392-91.8951,145.24392-91.8951-46.2823,43.9408-111.6705,55.7311-140.6864,58.8668q2.00712-13.7973,3.93077-26.507c17.60123-115.4753,32.90283-168.7394,32.90283-168.7394,6.6061-12.1246,21.3646-23.1618,41.0563-32.1508,58.8658-26.841,162.2593-35.4954,227.229-1.1705,20.152,10.6193,36.5825,25.4194,46.8682,45.0695,20.9451,40.1361,34.6585,98.0412,43.6061,154.0645q1.8174,11.4138,3.3449,22.6602c-102.3065.5022-148.003-49.6265-150.7201-52.6787,34.4502,79.8542,108.1164,100.4661,156.9485,104.9394.7114,6.8567,1.2963,13.5041,1.8822,19.9009-93.317-.1674-147.8356-77.0948-149.5075-79.5197,38.4218,109.7054,129.3136,116.7713,129.3136,116.7713-57.152.7946-116.4781-34.1996-118.3184-35.2449,38.3391,51.2992,109.9986,64.4272,143.0688,67.7721C1397.6053,1328.6778,1397.689,1332.1482,1397.689,1332.1482Z" style="mix-blend-mode:soft-light" opacity=".37" fill="#000000" class="color000000 svgShape"></path><path fill="#5165af" d="M1330.662,1020.1666s111.707,78.7829,205.7761,1.1759,105.8277-154.0382,114.0588-303.3729,116.4105-301.0211,275.1521-245.7555c0,0,55.2656-7.0552,88.1898,30.5725s81.1346,97.5967,135.2243,81.1346c0,0-23.5173,39.9793-87.0139,39.9793,0,0-128.1692,36.4518-176.3796-112.8829,0,0-141.1036-31.7483-171.6761,112.8829s-14.1103,582.0525-379.8039,450.3558S1330.662,1020.1666,1330.662,1020.1666Z" class="coloraf7351 svgShape"></path><path d="M2149.0725,583.9004s-23.5378,40.0106-87.0029,40.0106c0,0-128.1857,36.4572-176.3911-112.8832,0,0-141.104-31.7744-171.6652,112.8832-30.6042,144.6159-14.1319,582.0593-379.8313,450.362-365.69952-131.697-3.5123-54.1003-3.5123-54.1003s24.4166,17.2251,60.0376,27.6354c19.1486,19.1066,58.1972,41.5996,126.1361,16.2636,105.0236-39.2165,139.5157-178.7316,147.3752-249.3045,7.8187-70.5311,3.1356-217.9063,65.8485-268.0766s131.697-73.7085,155.1939-65.8485c23.5377,7.8182,48.6229,103.4763,155.2347,109.7475,0,0-76.8436-26.6738-95.6575-73.7085,0,0,39.216,42.3521,92.5219,58.0303S2099.2788,610.1979,2149.0725,583.9004Z" style="mix-blend-mode:soft-light" opacity=".37" fill="#000000" class="color000000 svgShape"></path><path fill="#2652f7" d="M1381.3422,1157.7646c-122.6667-4.2643-201.1834-84.7039-201.1834-84.7039-81.4848,78.1818-153.6046,88.1322-190.479,87.6306,17.60123-115.4753,32.90283-168.7394,32.90283-168.7394,6.6061-12.1246,21.3646-23.1618,41.0563-32.1508l25.9629-5.4769,201.2661,4.3064c20.152,10.6193,36.5825,25.4194,46.8682,45.0695C1358.6812,1043.8362,1372.3946,1101.7413,1381.3422,1157.7646Z" class="colorf77f26 svgShape"></path><path d="M1302.1151,1075.4435c4.3473,2.8014,25.6701,14.9257,65.2626,12.2083,1.9231,7.6926,3.6787,15.5527,5.3517,23.4964C1352.2854,1105.253,1327.6178,1094.5501,1302.1151,1075.4435Z" style="mix-blend-mode:soft-light" opacity=".37" fill="#000000" class="color000000 svgShape"></path><path d="M1377.9136,1137.5712c-90.3069-10.5776-109.5801-81.5267-109.5801-81.5267,33.5305,8.2362,65.2626-1.7977,65.2626-1.7977-57.6113,1.7977-76.4252-15.2602-76.4252-15.2602,33.8225,2.1322,68.7749-6.2713,90.7663-13.0861-3.1775-7.8601-6.6061-15.3019-10.2011-22.2004-10.2857-19.6501-26.7162-34.4502-46.8682-45.0695l-201.2661-4.3064-25.9629,5.4769c-19.6917,8.989-34.4502,20.0262-41.0563,32.1508,0,0-2.216,7.6929-5.8947,23.5383,12.6263,6.3965,38.7138,16.7234,82.3209,21.9076,0,0-22.7436,20.4026-79.9385,17.267,0,0,36.0395,17.2251,79.9385,3.1356,0,0-19.608,42.5611-100.8428,50.463q-1.06565,6.45915-2.25783,13.2951c23.78983-2.425,62.33723-11.2465,104.647-40.2198-1.2116,2.0485-39.9274,65.8066-109.20353,68.3569-.544,3.5957-1.0871,7.2746-1.6719,10.9957,36.87443.5016,108.99423-9.4488,190.479-87.6306,0,0,78.5167,80.4396,201.1834,84.7039C1380.2551,1151.0335,1379.1262,1144.3024,1377.9136,1137.5712Zm-115.4329-55.1036s31.1472,48.247,94.6541,62.3364C1357.1348,1144.804,1257.1709,1147.7307,1262.4807,1082.4676Z" style="mix-blend-mode:soft-light" opacity=".37" fill="#000000" class="color000000 svgShape"></path><path fill="#2652f7" d="M1148.4031,1071.9046l-29.3966,261.0417,30.5725,2.3518s-7.0552,37.6276-4.7035,41.1552,85.8381-5.8793,101.1243-5.8793-28.2207-316.3074-28.2207-316.3074Z" class="colorf77f26 svgShape"></path><path d="M1246.0073,1370.5701c-1.0033,0-2.2578.0418-3.8042.1255l-25.5873-222.7559-18.0606-2.3413s11.873,163.1371,16.7643,227.1458c-5.2261.4185-10.7441.9197-16.305,1.38l-10.6195-232.4558-20.4021-11.7482-11.0788,247.2141c-6.9828.2511-11.5403.1256-12.0414-.6691-2.3416-3.5536,4.7249-41.1813,4.7249-41.1813l4.3053-217.1119-30.3949,215.1052-4.5146-.3348,29.3915-261.0525,69.4017-17.6431S1261.2681,1370.5701,1246.0073,1370.5701Z" style="mix-blend-mode:soft-light" opacity=".37" fill="#000000" class="color000000 svgShape"></path><ellipse cx="1182.503" cy="1058.97" fill="#2350f9" rx="72.904" ry="49.386" class="colorf9c023 svgShape"></ellipse><ellipse cx="1182.503" cy="1058.97" fill="#2652f7" rx="42.378" ry="28.708" class="colorf77f26 svgShape"></ellipse><path fill="#2350f9" d="M987.70168,1559.4961s45.46682,44.6828,108.17952,8.623l2.3517-17.246s30.1805,19.5977,11.3667,46.2506-112.88293,25.477-131.30482.7839,1.9598-47.0345,9.015-54.0897Z" class="colorf9c023 svgShape"></path><path d="M1399.1108 1597.9256c-18.3964 24.6667-112.4657 25.8374-131.2795-.7946a35.60131 35.60131 0 01-2.3824-3.8466c16.848 12.2501 51.09 18.229 74.6277 14.4243 26.6326-4.3064 29.0159-29.8096 29.0159-29.8096-66.811 24.2492-93.1077-6.7729-99.9649-17.6431a48.22693 48.22693 0 0110.0337-9.365l2.3833 17.2246c62.7129 36.0813 108.1593-8.6123 108.1593-8.6123l.4175-15.6782C1397.1459 1550.891 1417.548 1573.2166 1399.1108 1597.9256zM1109.5865 1597.131c-18.8139 26.632-112.88323 25.4613-131.27962.7946a41.836 41.836 0 01-4.4727-7.442c24.54109 18.9394 70.61422 21.1548 87.17022 16.4304 19.1905-5.4766 24.6677-25.4612 24.6677-25.4612-81.4022 20.5281-102.01352-14.2987-106.8211-27.6354a72.56331 72.56331 0 018.44538-9.9923l.4175 15.6782s45.44642 44.6936 108.15922 8.6123l2.3416-17.2246S1128.4003 1570.4571 1109.5865 1597.131z" style="mix-blend-mode:soft-light" opacity=".37" fill="#000000" class="color000000 svgShape"></path><path fill="#556ece" d="M1274.6476,1026.1323c-146.224,22.4629-242.1742-32.281-242.1742-32.281s-97.49272-347.3457-28.8748-412.5505c6.7295-6.4082,15.7578-11.551,26.5205-15.6181,75.5462-28.563,237.7392-4.6307,310.491,8.3621,22.6851,4.0562,36.657,7.0275,36.657,7.0275S1420.8402,1003.6346,1274.6476,1026.1323Z" class="colorce9155 svgShape"></path><path d="M1377.2671,581.0723s-13.9719-2.9713-36.657-7.0275c-72.7518-12.9928-234.9448-36.9251-310.491-8.3621-10.7627,4.0671-19.791,9.2099-26.5205,15.6181-68.61792,65.2048,28.8748,412.5505,28.8748,412.5505s95.9502,54.7439,242.1742,32.281C1420.8402,1003.6346,1377.2671,581.0723,1377.2671,581.0723Zm-214.539,435.8766c-47.8033-8.5112-63.366-44.0206-63.366-44.0206,4.4229-15.8935,51.2919-31.9433,75.7762-30.969,24.4852.9742,71.1255,38.6928,71.1255,38.6928S1210.4971,1025.4585,1162.7281,1016.9489Zm90.7347-170.0016c-32.0589-.3364-164.8258-7.4978-164.8258-7.4978l-7.5321-96.5159-.6032-7.6059c133.5542,10.9837,215.2934-75.4046,215.2934-75.4046s-2.1914,39.9022-7.692,82.8598C1281.681,792.8833,1270.7333,847.1312,1253.4628,846.9473Z" style="mix-blend-mode:soft-light" opacity=".43" fill="#000000" class="color000000 svgShape"></path><path fill="#2350f9" d="M1340.6101,574.0448c-11.704,85.0487-49.7394,249.2632-168.4365,229.1082-110.8641-18.8705-136.6122-155.866-142.0545-237.4703C1105.6653,537.1197,1267.8583,561.052,1340.6101,574.0448Z" class="colorf9c023 svgShape"></path><path d="M1288.1031,742.7829c5.5006-42.9576,7.692-82.8598,7.692-82.8598s-81.7392,86.3883-215.2934,75.4046l.6032,7.6059c-36.0075-52.0235-47.536-125.6844-50.9858-177.2509,75.5462-28.563,237.7392-4.6307,310.491,8.3621C1334.1478,620.9565,1319.6823,691.939,1288.1031,742.7829Z" style="mix-blend-mode:soft-light" opacity=".43" fill="#000000" class="color000000 svgShape"></path><path fill="#5d77db" d="M1186.5748,916.6483c-10.8191,10.7641-22.798,10.1643-22.798,10.1643-24.452,17.7976-47.4609,31.2728-68.8676,41.3054-110.33782,51.7424-178.27262,12.1092-182.928.8052-3.8886-9.3868-11.8474-95.8029-1.5321-184.2563a542.70864,542.70864,0,0,1,11.1126-63.8896,339.15721,339.15721,0,0,1,14.7341-46.9008s28.1868-60.8542,59.47529-101.7597l-1.8818,162.3461-.7689,65.6489-.4175,35.104q15.39035,5.29965,30.70623,9.5554c42.9258,11.811,85.2571,16.2788,126.2732,5.8523,10.0715-105.1725,36.4439-133.1061,36.4439-133.1061Z" class="colordb9f5d svgShape"></path><path d="M1186.5748,916.6483c-10.8191,10.7641-22.798,10.1643-22.798,10.1643-24.452,17.7976-47.4609,31.2728-68.8676,41.3054-110.33782,51.7424-178.27262,12.1092-182.928.8052,41.9924.8612,53.3635-89.7535,54.073-182.1768.1573-21.832-.2706-43.7269-1.02418-64.5644-1.35352-36.4676-3.691-69.6296-5.64142-93.1104,10.2608-18.4075,23.0328-39.5072,36.38249-56.9548l-1.8818,162.3461-.7689,65.6489-.4175,35.104s-33.13419,4.0107-26.78529,63.7759c2.798,26.1735,38.80962,28.1444,78.46152,22.078,50.8776-7.7857,107.7191-28.7925,107.7191-28.7925s-4.2022-21.4129-2.5555-39.7484a6.06882,6.06882,0,0,0,.0472-.6686,5.6077,5.6077,0,0,1,.0478-.6686,4.07116,4.07116,0,0,1,.0446-.5681s5.4832,16.3107,11.3827,19.4576c5.3234,2.8162,20.6198-96.4251,18.2826-142.2348,4.048-7.4464,6.7786-10.3289,6.7786-10.3289Z" style="mix-blend-mode:soft-light" opacity=".43" fill="#000000" class="color000000 svgShape"></path><path fill="#2350f9" d="M1163.7768,926.8126c-24.452,17.7976-47.4609,31.2728-68.8676,41.3054-24.5025-14.3442-73.883-52.2098-71.5001-123.3468,42.9258,11.811,85.2571,16.2788,126.2732,5.8523C1149.6823,850.6235,1145.9293,890.056,1163.7768,926.8126Z" class="colorf9c023 svgShape"></path><path d="M1163.7768,926.8126c-24.452,17.7976-47.4609,31.2728-68.8676,41.3054-13.5602-7.9254-34.7321-23.0421-50.5301-47.0483,50.8776-7.7857,107.7191-28.7925,107.7191-28.7925s-4.2929-21.9208-2.5083-40.417C1149.1283,858.8823,1147.8072,893.9074,1163.7768,926.8126Z" style="mix-blend-mode:soft-light" opacity=".43" fill="#000000" class="color000000 svgShape"></path><path fill="#2350f9" d="M993.12037,800.1118c-43.22849-25.8493-68.95659-21.6692-82.67129-15.4449a542.70864,542.70864,0,0,1,11.1126-63.8896c25.2658-8.1285,54.4806,3.9017,72.32759,13.6856Z" class="colorf9c023 svgShape"></path><path d="M993.12037,800.1118a172.06945,172.06945,0,0,0-27.06619-13.3654c.1573-21.832-.2706-43.7269-1.02418-64.5644a147.43789,147.43789,0,0,1,28.85927,12.2809Z" style="mix-blend-mode:soft-light" opacity=".43" fill="#000000" class="color000000 svgShape"></path><path fill="#5d77db" d="M1173.5556,915.9965c10.1051,11.8116,22.0841,12.4114,22.0841,12.4114,23.2509,20.1858,45.3361,35.9187,66.0417,48.0598,106.7216,62.6098,176.9443,29.8935,182.2987,19.0908,4.4691-8.9685,17.8595-94.3157,13.1622-183.5207a551.0616,551.0616,0,0,0-7.0431-64.7986,348.97555,348.97555,0,0,0-11.726-48.2255s-24.2551-63.4798-52.8616-107.384l-8.3756,162.021-3.3789,65.5182-1.8005,35.0347q-15.6762,3.7443-31.2125,6.4554c-43.5359,7.4822-86.0155,7.7038-126.2436-6.7903-3.3984-105.8469-27.9236-136.3287-27.9236-136.3287Z" class="colordb9f5d svgShape"></path><path d="M1173.5556,915.9965c10.1051,11.8116,22.0841,12.4114,22.0841,12.4114,23.2509,20.1858,45.3361,35.9187,66.0417,48.0598,106.7216,62.6098,176.9443,29.8935,182.2987,19.0908-41.9139-3.3398-47.5273-94.8048-42.3984-187.0068,1.2218-21.7788,3.0309-43.5617,5.0978-64.2579,3.6521-36.2171,8.0762-69.0405,11.5031-92.2521-9.066-19.3751-20.4652-41.685-32.671-60.412l-8.3756,162.021-3.3789,65.5182-1.8005,35.0347s32.7763,7.3107,22.6735,66.2522c-4.4419,25.811-40.4641,24.1754-79.6076,14.164-50.225-12.8475-105.5604-39.4706-105.5604-39.4706s5.541-20.9251,5.0574-39.3672a6.06484,6.06484,0,0,1-.0048-.6713,5.65514,5.65514,0,0,0-.0055-.6713,4.0911,4.0911,0,0,0-.0087-.5707s-6.4957,15.7109-12.5753,18.2581c-5.4844,2.2751-14.4658-98.1817-9.2433-143.6129-3.565-7.8276-6.105-10.9739-6.105-10.9739Z" style="mix-blend-mode:soft-light" opacity=".43" fill="#000000" class="color000000 svgShape"></path><path fill="#2350f9" d="M1195.6397,928.4079c23.2509,20.1858,45.3361,35.9187,66.0417,48.0598,25.3307-11.8492,76.9462-44.6583,79.0627-115.8087-43.5359,7.4822-86.0155,7.7038-126.2436-6.7903C1214.5005,853.8687,1215.7518,893.5518,1195.6397,928.4079Z" class="colorf9c023 svgShape"></path><path d="M1195.6397,928.4079c23.2509,20.1858,45.3361,35.9187,66.0417,48.0598,14.0177-6.5447,36.0773-19.497,53.3411-41.8479-50.225-12.8475-105.5604-39.4706-105.5604-39.4706s5.6635-21.4223,5.0526-40.0385C1214.5314,862.1568,1213.6366,897.2033,1195.6397,928.4079Z" style="mix-blend-mode:soft-light" opacity=".43" fill="#000000" class="color000000 svgShape"></path><path fill="#2350f9" d="M1373.7571,819.1689c44.7241-21.4458,70.1069-14.7068,83.3852-7.1311a551.0616,551.0616,0,0,0-7.0431-64.7986c-24.6727-10.6287-54.5548-1.5572-72.9632,6.4115Z" class="colorf9c023 svgShape"></path><path d="M1373.7571,819.1689a165.28162,165.28162,0,0,1,27.8246-10.6172c1.2218-21.7788,3.0309-43.5617,5.0978-64.2579a142.222,142.222,0,0,0-29.5435,9.3569Z" style="mix-blend-mode:soft-light" opacity=".43" fill="#000000" class="color000000 svgShape"></path><path fill="#0036ff" d="M1111.6813,101.4948c-116.38123,42.7956-176.03322,171.832-133.23772,288.2128C1021.2389,506.0883,1150.2877,565.7744,1266.669,522.9788c116.4145-42.8078,176.054-171.8782,133.2586-288.2588C1357.1322,118.3392,1228.0958,58.6869,1111.6813,101.4948ZM1252.166,483.5382a182.53389,182.53389,0,1,1-125.9941-342.6368c94.6169-34.7924,199.5564,13.6924,234.3488,108.3092S1346.7828,448.7458,1252.166,483.5382Z" class="colorffce00 svgShape"></path><path d="M1120.0225,124.1784c-103.8468,38.1864-157.08222,153.3412-118.8957,257.1882,38.1864,103.8468,153.3542,157.1152,257.2011,118.9288,103.8809-38.199,157.1029-153.3876,118.9165-257.2344C1339.0579,139.214,1223.9034,85.9794,1120.0225,124.1784ZM1252.166,483.5382a182.53389,182.53389,0,1,1-125.9941-342.6368c94.6169-34.7924,199.5564,13.6924,234.3488,108.3092S1346.7828,448.7458,1252.166,483.5382Z" style="mix-blend-mode:soft-light" opacity=".37" fill="#000000" class="color000000 svgShape"></path><path fill="#657bce" d="M1407.4753,490.516c-9.4593,22.3421-29.2433,41.6744-62.5443,45.9411,0,0-30.9062-32.3759-12.5639-67.581a79.94675,79.94675,0,0,1,8.5349-29.4227c6.7317-12.7938,18.6298-25.735,39.7226-29.5062C1409.3903,404.797,1423.7179,452.0872,1407.4753,490.516Z" class="colorce9065 svgShape"></path><path fill="#4a5ea8" d="M1345.6337,511.1642a58.59676,58.59676,0,0,1-2.6045-23.9167,62.20139,62.20139,0,0,1,6.6985-23.6917,48.62733,48.62733,0,0,1,16.5848-18.5964c6.7802-4.9391,15.0522-7.0817,22.917-7.8361-6.7673,4.431-13.3105,8.1131-18.4468,13.4519a64.36928,64.36928,0,0,0-12.9133,17.2538,102.60352,102.60352,0,0,0-7.7889,20.6023A215.759,215.759,0,0,0,1345.6337,511.1642Z" class="colora8704a svgShape"></path><path d="M1354.3735,501.3047s6.4281,19.3646,30.0716,8.7104a56.55728,56.55728,0,0,0,23.0302-19.4991c-9.4593,22.3421-29.2433,41.6744-62.5443,45.9411,0,0-30.9062-32.3759-12.5639-67.581a79.94675,79.94675,0,0,1,8.5349-29.4227c-.7631,6.5211-.6516,12.9235,1.9897,15.8585,6.355,7.0358,15.9339-.6745,15.9339-.6745s29.0908-28.5304,42.2806-16.0349C1414.284,451.1392,1384.7922,514.3812,1354.3735,501.3047Z" style="mix-blend-mode:soft-light" opacity=".37" fill="#000000" class="color000000 svgShape"></path><path fill="#657bce" d="M971.45788,490.516c9.4592,22.3421,29.24322,41.6744,62.54422,45.9411,0,0,30.9062-32.3759,12.5639-67.581a79.94444,79.94444,0,0,0-8.5349-29.4227c-6.7316-12.7938-18.6298-25.735-39.72253-29.5062C969.54278,404.797,955.21518,452.0872,971.45788,490.516Z" class="colorce9065 svgShape"></path><path fill="#4a5ea8" d="M1033.2995,511.1642a215.78435,215.78435,0,0,0-4.4469-22.7329,102.60931,102.60931,0,0,0-7.7888-20.6023,64.37138,64.37138,0,0,0-12.9133-17.2538c-5.1364-5.3388-11.67963-9.0209-18.44693-13.4519,7.8649.7544,16.13693,2.897,22.91713,7.8361a48.62789,48.62789,0,0,1,16.5847,18.5964,62.19781,62.19781,0,0,1,6.6985,23.6917A58.59672,58.59672,0,0,1,1033.2995,511.1642Z" class="colora8704a svgShape"></path><path d="M1024.5596,501.3047s-6.428,19.3646-30.0716,8.7104a56.557,56.557,0,0,1-23.03012-19.4991c9.4592,22.3421,29.24322,41.6744,62.54422,45.9411,0,0,30.9062-32.3759,12.5639-67.581a79.94444,79.94444,0,0,0-8.5349-29.4227c.7632,6.5211.6516,12.9235-1.9897,15.8585-6.3549,7.0358-15.9339-.6745-15.9339-.6745s-29.09083-28.5304-42.28062-16.0349C964.64908,451.1392,994.141,514.3812,1024.5596,501.3047Z" style="mix-blend-mode:soft-light" opacity=".37" fill="#000000" class="color000000 svgShape"></path><path fill="#021b79" d="M1033.9821 497.7557a212.412 212.412 0 01-9.0109-36.5282c-.5891-3.9509-1.005-7.7633-1.2823-11.4369-.2771-3.3616-.4159-6.6541-.4506-9.8078a119.34578 119.34578 0 012.8072-27.7254c10.1891-45.6085 44.9847-61.1347 44.9847-61.1347 7.0697 2.3913 10.8823 17.8828 12.0605 38.7463.1384 2.2873.2424 4.6441.3118 7.0354C1085.4823 466.3913 1062.1234 581.4865 1033.9821 497.7557zM1347.7995 437.6262c.0347 4.3666-.1388 8.9066-.5542 13.6893a200.94768 200.94768 0 01-10.1893 46.4402c-38.0189 113.0505-67.2343-136.34-37.0484-146.633 0 0 30.0476 13.4122 42.4546 51.9159a109.97719 109.97719 0 014.8521 23.9479C1347.5914 430.3828 1347.7648 433.9526 1347.7995 437.6262z" class="color2d2828 svgShape"></path><path fill="#3f4042" d="M1058.831 451.9393s-13.2737 10.2238-33.8598 9.2882c-.5891-3.9509-1.005-7.7633-1.2823-11.4369 8.491.8664 21.7299-.5891 35.1421-13.4469C1081.2542 414.8913 1058.831 451.9393 1058.831 451.9393zM1083.4025 396.9044c-2.911 6.9314-9.4612 16.5312-9.4612 16.5312s-22.0764 31.6764-50.703 26.5472a119.34578 119.34578 0 012.8072-27.7254 83.02072 83.02072 0 0044.9847-15.8729c6.3768-4.6786 10.12-6.5155 12.0605-6.5155C1085.5863 389.869 1085.1007 392.9535 1083.4025 396.9044zM1306.4195 413.4356a48.09182 48.09182 0 00-5.0945-3.8122l-.2775-21.5219s11.2288 17.1898 41.4147 14.9371a109.97719 109.97719 0 014.8521 23.9479C1337.1249 428.2341 1322.1534 426.7092 1306.4195 413.4356zM1347.7995 437.6262c.0347 4.3666-.1388 8.9066-.5542 13.6893-16.1159 2.0795-34.6226-2.2526-45.6783-23.2546l-.1036-7.971A57.384 57.384 0 001347.7995 437.6262z" class="color423f3f svgShape"></path><path fill="#2350f9" d="M1165.6543,174.2679s18.8142-102.6133,25.8719-104.1211,22.6727,97.1448,22.6727,97.1448Z" class="colorf9c023 svgShape"></path><path d="M1214.1864,167.2912l-48.5457,6.9862s2.2533-12.2732,5.4905-28.3881a30.53611,30.53611,0,0,0,20.8879-28.3666c.3288-15.5094.4835-33.7001-.1303-47.3551C1199.078,71.7386,1214.1864,167.2912,1214.1864,167.2912Z" style="mix-blend-mode:soft-light" opacity=".37" fill="#000000" class="color000000 svgShape"></path><path fill="#0036ff" d="M1135.3963,198.4437s8.8444-38.0505,52.5993-43.2656,52.9005,40.3569,52.9005,40.3569Z" class="colorffce00 svgShape"></path><path d="M1240.8957,195.5544l-105.5027,2.8759a57.177,57.177,0,0,1,8.1292-17.2181c23.57-12.7656,68.2001-14.5228,76.065-19.0003C1236.561,173.9882,1240.8957,195.5544,1240.8957,195.5544Z" style="mix-blend-mode:soft-light" opacity=".37" fill="#000000" class="color000000 svgShape"></path><path fill="#2350f9" d="M1071.0302,351.1227s-2.2754-171.139,117.2904-171.139,110.7859,171.139,110.7859,171.139Z" class="colorf9c023 svgShape"></path><path d="M1299.1065,351.1227H1071.0302a262.97218,262.97218,0,0,1,1.6635-28.176c161.3966-9.0107,207.2128-65.5359,154.2922-105.9112-29.8395-22.8042-67.1996-24.1559-94.4745-20.8288,14.7638-10.0503,33.097-16.2193,55.7974-16.2193C1307.8748,179.9874,1299.1065,351.1227,1299.1065,351.1227Z" style="mix-blend-mode:soft-light" opacity=".37" fill="#000000" class="color000000 svgShape"></path><path fill="#2350f9" d="M1015.4989,520.7313s20.7598,59.59-5.9054,95.2796c-12.28133,16.4378-36.21442,19.5981-51.44242,5.8455-8.5745-7.7438-16.0632-20.0641-16.96608-39.5985-2.22262-48.0847,41.64418-73.5623,41.64418-73.5623l9.18429,10.2683s-39.87929,42.7475-14.73939,62.4957,34.44492-63.7197,34.44492-63.7197a2.3774,2.3774,0,0,1,2.3011-1.3385Z" class="colorf9c023 svgShape"></path><path d="M1020.9018 542.8513a151.43277 151.43277 0 00-5.4051-22.1271l-1.4788-4.3315a2.41008 2.41008 0 00-2.3115 1.339s-5.5452 49.7818-19.65473 63.3506C1006.8775 591.1369 1016.0235 564.8481 1020.9018 542.8513zM941.18958 582.2569c.90542 19.5553 8.3899 31.8467 16.9666 39.6136a34.04967 34.04967 0 0032.52469 7.2228 33.34488 33.34488 0 01-18.86-8.4176c-8.5912-7.7399-16.0613-20.0584-16.9667-39.6136-1.5839-34.0565 19.96382-56.7589 32.6733-67.1133l-4.705-5.2519S938.95508 534.1658 941.18958 582.2569z" style="mix-blend-mode:soft-light" opacity=".37" fill="#000000" class="color000000 svgShape"></path><path fill="#0036ff" d="M1166.5178,339.15s-63.8671-34.693,20.9619-111.5589c0,0,83.7968,84.4553,30.0268,105.315S1166.5178,339.15,1166.5178,339.15Z" class="colorffce00 svgShape"></path><path fill="#2350f9" d="M1169.6792,328.2251s-47.1632-25.6193,15.4794-82.3814c0,0,61.8804,62.3666,22.1735,77.7706S1169.6792,328.2251,1169.6792,328.2251Z" class="colorf9c023 svgShape"></path><ellipse cx="1184.309" cy="284.966" fill="#2953ef" rx="19.009" ry="12.673" transform="rotate(-87.768 1184.31 284.966)" class="coloref6b29 svgShape"></ellipse><path d="M1185.052,265.9571c-7.0036-.2698-13.0138,8.0183-13.4183,18.5236-.4134,10.4732,4.9257,19.2081,11.9293,19.4779s13.0131-8.0179,13.4273-18.4915C1197.3947,274.9618,1192.0556,266.2269,1185.052,265.9571Zm5.5975,15.5225c-.2872,6.9391-4.2416,12.4037-8.8613,12.2333-4.6293-.2024-8.1327-5.949-7.8769-12.8796.2551-6.9301,4.2417-12.4037,8.8621-12.2333C1187.3931,268.7704,1190.9054,274.5492,1190.6495,281.4796Z" style="mix-blend-mode:soft-light" opacity=".37" fill="#000000" class="color000000 svgShape"></path><path fill="#0036ff" d="M1237.113,339.1077s-26.1949-18.9251,15.5775-48.0058c0,0,32.1583,42.0011,7.2622,48.1471S1237.113,339.1077,1237.113,339.1077Z" class="colorffce00 svgShape"></path><path fill="#2350f9" d="M1239.1273,334.4695s-19.3437-13.9754,11.5034-35.4502c0,0,23.7475,31.0159,5.3628,35.5546S1239.1273,334.4695,1239.1273,334.4695Z" class="colorf9c023 svgShape"></path><path fill="#2953ef" d="M1253.5912,317.16c-.7759,4.6029-3.8925,7.915-6.9611,7.3977s-4.9272-4.668-4.1513-9.2709,3.8924-7.9149,6.961-7.3977S1254.3671,312.5571,1253.5912,317.16Z" class="coloref6b29 svgShape"></path><path d="M1249.4417,307.8829c-3.0731-.5166-6.1941,2.7971-6.9689,7.4069-.7769,4.595,1.0816,8.7501,4.1548,9.2667s6.1938-2.797,6.9711-7.3922C1254.3735,312.5546,1252.5149,308.3995,1249.4417,307.8829Zm1.5872,7.163c-.5207,3.0437-2.5747,5.229-4.6022,4.8916-2.03-.3521-3.2487-3.0851-2.7424-6.1269.5059-3.0416,2.5747-5.229,4.6026-4.8915C1250.3144,309.2565,1251.5352,312.0042,1251.0289,315.0459Z" style="mix-blend-mode:soft-light" opacity=".37" fill="#000000" class="color000000 svgShape"></path><path fill="#0036ff" d="M1139.9432,339.1077s26.1948-18.9251-15.5775-48.0058c0,0-32.1584,42.0011-7.2623,48.1471S1139.9432,339.1077,1139.9432,339.1077Z" class="colorffce00 svgShape"></path><path fill="#2350f9" d="M1137.9289,334.4695s19.3437-13.9754-11.5034-35.4502c0,0-23.7475,31.0159-5.3628,35.5546S1137.9289,334.4695,1137.9289,334.4695Z" class="colorf9c023 svgShape"></path><ellipse cx="1129.021" cy="316.223" fill="#2953ef" rx="5.635" ry="8.452" transform="rotate(-9.568 1129.02 316.223)" class="coloref6b29 svgShape"></ellipse><path d="M1123.4575,317.1643c.7773,4.5952,3.8979,7.9088,6.9711,7.3922s4.9317-4.6717,4.1548-9.2667c-.7748-4.6098-3.8958-7.9235-6.969-7.4069S1122.6827,312.5546,1123.4575,317.1643Zm5.3118-8.2452c2.0279-.3375,4.0967,1.8499,4.6026,4.8915.5063,3.0418-.7124,5.7748-2.7424,6.1269-2.0275.3374-4.0816-1.8479-4.6022-4.8916C1125.521,312.0042,1126.7418,309.2565,1128.7693,308.9191Z" style="mix-blend-mode:soft-light" opacity=".37" fill="#000000" class="color000000 svgShape"></path><path fill="#0036ff" d="M1100.7938,347.7735s22.6795-16.3854-13.4871-41.5634c0,0-27.8427,36.3645-6.2876,41.6858S1100.7938,347.7735,1100.7938,347.7735Z" class="colorffce00 svgShape"></path><path fill="#2350f9" d="M1099.0498,343.7577s16.7478-12.0999-9.9597-30.6928c0,0-20.5606,26.8537-4.6431,30.7832S1099.0498,343.7577,1099.0498,343.7577Z" class="colorf9c023 svgShape"></path><path fill="#2953ef" d="M1086.5269,328.7712c.6718,3.9852,3.3702,6.8528,6.027,6.4049s4.2659-4.0415,3.5942-8.0267-3.3701-6.8528-6.0269-6.4049S1085.8552,324.786,1086.5269,328.7712Z" class="coloref6b29 svgShape"></path><path d="M1086.5204,328.775c.673,3.9785,3.3748,6.8474,6.0356,6.4001s4.2699-4.0448,3.5972-8.0231c-.6708-3.9912-3.3729-6.8602-6.0337-6.4129S1085.8496,324.7838,1086.5204,328.775Zm4.599-7.1388c1.7558-.2922,3.5469,1.6017,3.985,4.2351.4383,2.6336-.6168,4.9998-2.3744,5.3047-1.7554.2921-3.5339-1.5999-3.9846-4.2352C1088.307,324.3073,1089.364,321.9283,1091.1194,321.6362Z" style="mix-blend-mode:soft-light" opacity=".37" fill="#000000" class="color000000 svgShape"></path><path fill="#0036ff" d="M1273.4263,348.2574s-19.8491-14.3405,11.8039-36.3764c0,0,24.368,31.8263,5.503,36.4835S1273.4263,348.2574,1273.4263,348.2574Z" class="colorffce00 svgShape"></path><path fill="#2350f9" d="M1274.9527,344.7428s-14.6577-10.5899,8.7167-26.8624c0,0,17.9947,23.5024,4.0637,26.9415S1274.9527,344.7428,1274.9527,344.7428Z" class="colorf9c023 svgShape"></path><path fill="#2953ef" d="M1285.9127,331.6266c-.5879,3.4878-2.9495,5.9975-5.2748,5.6056s-3.7336-3.5372-3.1456-7.025,2.9495-5.9976,5.2747-5.6057S1286.5006,328.1387,1285.9127,331.6266Z" class="coloref6b29 svgShape"></path><path d="M1282.7685,324.5968c-2.3287-.3914-4.6937,2.1196-5.2808,5.6126-.5887,3.4819.8197,6.6304,3.1484,7.0218s4.6933-2.1194,5.2823-5.6014C1286.5055,328.1368,1285.0971,324.9883,1282.7685,324.5968Zm1.2026,5.4278c-.3945,2.3064-1.951,3.9623-3.4873,3.7066-1.5383-.2668-2.4617-2.3377-2.0781-4.6426.3834-2.3048,1.951-3.9623,3.4876-3.7066C1283.4297,325.6376,1284.3548,327.7198,1283.9711,330.0246Z" style="mix-blend-mode:soft-light" opacity=".37" fill="#000000" class="color000000 svgShape"></path><path fill="#2350f9" d="M1363.4343,520.7313s-20.7599,59.59,5.9053,95.2796c12.2813,16.4378,36.2144,19.5981,51.4425,5.8455,8.5745-7.7438,16.0632-20.0641,16.9661-39.5985,2.2226-48.0847-41.6443-73.5623-41.6443-73.5623l-9.1843,10.2683s39.8793,42.7475,14.7394,62.4957-34.4449-63.7197-34.4449-63.7197a2.37726,2.37726,0,0,0-2.3011-1.3385Z" class="colorf9c023 svgShape"></path><path d="M1358.0314 542.8513a151.4416 151.4416 0 015.405-22.1271l1.4788-4.3315a2.41008 2.41008 0 012.3115 1.339s5.5452 49.7818 19.6547 63.3506C1372.0557 591.1369 1362.9097 564.8481 1358.0314 542.8513zM1437.7436 582.2569c-.9054 19.5553-8.3899 31.8467-16.9667 39.6136a34.04969 34.04969 0 01-32.5247 7.2228 33.34545 33.34545 0 0018.8601-8.4176c8.5912-7.7399 16.0612-20.0584 16.9666-39.6136 1.5839-34.0565-19.9637-56.7589-32.6732-67.1133l4.7049-5.2519S1439.978 534.1658 1437.7436 582.2569z" style="mix-blend-mode:soft-light" opacity=".37" fill="#000000" class="color000000 svgShape"></path><path fill="#657bce" d="M1372.198,564.7821a74.78642,74.78642,0,0,1-1.2827,13.6892c-10.8472,56.6641-87.9586,100.5742-181.4626,100.5742-100.9557,0-182.7802-51.1535-182.7802-114.2634,0-19.9277,8.179-38.6772,22.5269-54.9659l37.5679-142.578,4.2629-16.1155c72.814-39.2662,149.1974-35.038,228.0763,0l44.3262,152.1088C1361.6622,521.0105,1372.198,542.1164,1372.198,564.7821Z" class="colorce9065 svgShape"></path><ellipse cx="1250.461" cy="449.635" rx="17.652" ry="32.17" transform="rotate(-1.089 1250.458 449.634)" style="mix-blend-mode:soft-light" opacity=".37" fill="#000000" class="color000000 svgShape"></ellipse><ellipse cx="1251.125" cy="456.238" fill="#021b79" rx="19.559" ry="10.732" transform="rotate(-88.276 1251.125 456.238)" class="color2d2828 svgShape"></ellipse><path fill="#ffffff" d="M1257.9864 446.8528c-.0786 2.6121-1.4538 4.69-3.0717 4.6413s-2.8656-2.2056-2.7869-4.8176 1.4538-4.69 3.0717-4.6413S1258.0651 444.2408 1257.9864 446.8528zM1252.2291 452.481c-.0544 1.8078-1.0062 3.2459-2.1258 3.2122s-1.9833-1.5265-1.9289-3.3342 1.0062-3.2458 2.1259-3.2121S1252.2835 450.6733 1252.2291 452.481z" class="colorffffff svgShape"></path><path fill="#021b79" d="M1289.9944,418.9731a70.08907,70.08907,0,0,0-14.6821-12.6961c-3.0835-2.0754-6.2656-3.9984-9.4777-5.7945-1.0748-.6101-2.1712-1.1736-3.2335-1.7496-3.6872-1.9305-7.2652-3.6695-10.594-5.1518-9.4782-4.325-16.7293-6.8011-16.7293-6.8011-5.5607-13.2278,9.0646-20.7711,9.0646-20.7711,11.7348,3.4179,20.4777,8.4773,26.9444,14.1804a54.54063,54.54063,0,0,1,7.058,7.4186c1.1,1.4129,2.1185,2.8168,3.023,4.2242a52.14494,52.14494,0,0,1,4.1301,7.7609A51.1323,51.1323,0,0,1,1289.9944,418.9731Z" class="color2d2828 svgShape"></path><path fill="#3f4042" d="M1278.3448 387.6079c-5.9568 3.0412-12.3915 6.9925-15.7437 11.125-3.6872-1.9305-7.2652-3.6695-10.594-5.1518 2.6371-3.8695 8.8336-11.0973 19.2797-13.3918A54.54063 54.54063 0 011278.3448 387.6079zM1285.4979 399.593a45.88634 45.88634 0 00-10.1856 6.684c-3.0835-2.0754-6.2656-3.9984-9.4777-5.7945a29.93621 29.93621 0 0115.5332-8.6504A52.14494 52.14494 0 011285.4979 399.593z" class="color423f3f svgShape"></path><ellipse cx="1124.326" cy="449.635" rx="17.652" ry="32.17" transform="rotate(-1.089 1124.325 449.635)" style="mix-blend-mode:soft-light" opacity=".37" fill="#000000" class="color000000 svgShape"></ellipse><ellipse cx="1124.99" cy="456.238" fill="#021b79" rx="19.559" ry="10.732" transform="rotate(-88.276 1124.99 456.238)" class="color2d2828 svgShape"></ellipse><path fill="#ffffff" d="M1131.8515 446.8528c-.0786 2.6121-1.4538 4.69-3.0717 4.6413s-2.8656-2.2056-2.787-4.8176 1.4539-4.69 3.0717-4.6413S1131.9302 444.2408 1131.8515 446.8528zM1126.0942 452.481c-.0544 1.8078-1.0062 3.2459-2.1259 3.2122s-1.9832-1.5265-1.9288-3.3342 1.0062-3.2458 2.1259-3.2121S1126.1486 450.6733 1126.0942 452.481z" class="colorffffff svgShape"></path><path fill="#021b79" d="M1095.5356,418.9731a70.08973,70.08973,0,0,1,14.6822-12.6961c3.0834-2.0754,6.2656-3.9984,9.4776-5.7945,1.0749-.6101,2.1713-1.1736,3.2336-1.7496,3.6872-1.9305,7.2652-3.6695,10.594-5.1518,9.4781-4.325,16.7292-6.8011,16.7292-6.8011,5.5608-13.2278-9.0645-20.7711-9.0645-20.7711-11.7348,3.4179-20.4777,8.4773-26.9444,14.1804a54.53448,54.53448,0,0,0-7.058,7.4186c-1.1001,1.4129-2.1185,2.8168-3.023,4.2242a52.14494,52.14494,0,0,0-4.1301,7.7609A51.13374,51.13374,0,0,0,1095.5356,418.9731Z" class="color2d2828 svgShape"></path><path fill="#3f4042" d="M1107.1853 387.6079c5.9567 3.0412 12.3915 6.9925 15.7437 11.125 3.6872-1.9305 7.2652-3.6695 10.594-5.1518-2.6371-3.8695-8.8337-11.0973-19.2797-13.3918A54.53448 54.53448 0 001107.1853 387.6079zM1100.0322 399.593a45.88867 45.88867 0 0110.1856 6.684c3.0834-2.0754 6.2656-3.9984 9.4776-5.7945a29.9354 29.9354 0 00-15.5331-8.6504A52.14494 52.14494 0 001100.0322 399.593z" class="color423f3f svgShape"></path><path fill="#2953ef" d="M1173.9645,339.5594a125.92725,125.92725,0,0,1,3.3936,14.6488c.8556,4.8794,1.4725,9.7563,1.9655,14.6312l-.0344-.6993a50.182,50.182,0,0,0,4.561,11.7346,9.28422,9.28422,0,0,0,2.7226,3.2733,1.98654,1.98654,0,0,0,1.4975.4058,5.9072,5.9072,0,0,0,2.7561-1.3331,14.41657,14.41657,0,0,0,3.1161-3.8344,49.65159,49.65159,0,0,0,4.7825-11.6805l-.0303.4368c.6898-4.5092,1.4982-9.0149,2.5268-13.5141.5672-2.2483,1.0044-4.5002,1.6786-6.745.6159-2.2468,1.2786-4.4917,2.0998-6.7325.6875,2.2854,1.2165,4.5658,1.6985,6.8447.5404,2.2809.8437,4.5548,1.2772,6.8322.7609,4.5523,1.3017,9.0981,1.7239,13.6404l-.0305.4383a43.50274,43.50274,0,0,1-3.617,16.6717,25.12053,25.12053,0,0,1-5.562,8.1142,19.44406,19.44406,0,0,1-10.3202,5.204,16.39957,16.39957,0,0,1-12.3999-3.4036,22.51053,22.51053,0,0,1-6.2495-8.3952,44.67894,44.67894,0,0,1-3.5915-16.6967l-.0344-.7009c.6115-4.8613,1.3468-9.7217,2.3209-14.5791A125.90518,125.90518,0,0,1,1173.9645,339.5594Z" class="coloref6b29 svgShape"></path><path fill="#0575e6" d="M1372.198,564.7821c0,63.1099-81.8251,114.2634-182.7453,114.2634-100.9557,0-182.7802-51.1535-182.7802-114.2634,0-19.9277,8.179-38.6772,22.5269-54.9659,0,0,42.6626-19.5118,133.4637-21.8338-.9358,17.5017,3.1881,34.3795,22.4228,35.0727,22.2841.7971,26.062-17.8828,24.9875-34.7262,38.0878,1.4558,82.4833,5.857,133.3593,14.9026C1361.6622,521.0105,1372.198,542.1164,1372.198,564.7821Z" class="colore89191 svgShape"></path><path fill="#021b79" d="M1285.9714,565.9603s-9.7726,47.2719-94.5781,47.2719c-84.7709,0-88.2019-51.1535-88.2019-51.1535s6.0303-1.0396,15.4226-2.426c25.4379-3.7775,75.4132-10.2583,95.6874-6.3422,15.5262,2.9806,36.1125,6.5848,51.2229,9.1841C1277.446,564.5394,1285.9714,565.9603,1285.9714,565.9603Z" class="color2d2828 svgShape"></path><path fill="#ffffff" d="M1265.5243,562.4946c-13.7934,10.2932-36.5978,19.5465-74.131,19.5465-38.8159,0-60.5801-10.7437-72.7793-22.3884,25.4379-3.7775,75.4132-10.2583,95.6874-6.3422C1229.8276,556.2911,1250.4139,559.8953,1265.5243,562.4946Z" class="colorffffff svgShape"></path><path fill="#6579c4" d="M1066.7701,536.6945a26.99325,26.99325,0,0,0,10.1856,13.5597,39.00522,39.00522,0,0,0,15.2577,6.3142c11.0256,2.2223,22.2219,1.1447,33.8494-.4469,11.5506-1.6837,23.0939-3.5829,34.8592-5.6544a282.32442,282.32442,0,0,1,36.2338-3.8244,157.09987,157.09987,0,0,1,36.9165,3.7362,179.68785,179.68785,0,0,1,17.7194,5.2201l4.3032,1.4513,3.9721,1.2705,3.9653,1.3536c1.327.4323,2.6838.6307,4.0288.9633,10.736,2.4418,22.0236,2.8566,32.6545-.5385a57.93154,57.93154,0,0,0,27.9183-19.4255c-4.6932,11.0764-13.9291,20.3493-25.2469,26.0333-11.4431,5.5787-24.8243,6.8888-37.3196,5.0808-1.5659-.2275-3.1776-.3347-4.7143-.6708l-4.5969-1.0786-4.5899-1.1617-4.2085-1.1513a166.5391,166.5391,0,0,0-16.6769-3.8885,153.03036,153.03036,0,0,0-33.8367-2.6902c-11.3902.0832-22.8898,1.4729-34.6069,2.8911-11.7302,1.2705-23.6693,2.9327-35.7699,3.3229-3.0388.0757-6.0221.2305-9.0947.2375-3.119-.1007-6.2083-.0206-9.3196-.3562a84.61766,84.61766,0,0,1-9.2981-1.3666l-4.6024-1.0155-4.5191-1.4844c-5.8978-2.2729-11.6174-5.4695-15.945-10.139C1069.9689,548.6566,1066.9961,542.7302,1066.7701,536.6945Z" class="colorc46565 svgShape"></path><path fill="#7dafe2" d="M1163.9525,505.5405s19.8194-28.9167,44.8372.3249c0,0-.9747,18.5197-22.0937,16.8952S1163.9525,505.5405,1163.9525,505.5405Z" class="colore2a67d svgShape"></path><path fill="#4a5ea8" d="M1205.2214,462.4056a95.6591,95.6591,0,0,1,6.1154,19.7411c1.2371,6.8227,2.0271,13.8763,1.0127,21.1133a32.83949,32.83949,0,0,1-3.1782,10.7392,22.74082,22.74082,0,0,1-7.9227,8.8295,25.48755,25.48755,0,0,1-11.1445,3.7287,34.53765,34.53765,0,0,1-11.4216-.5986,23.4282,23.4282,0,0,1-10.5724-5.6589,25.52138,25.52138,0,0,1-6.3379-9.9247,52.5863,52.5863,0,0,1-2.0904-21.5566,120.042,120.042,0,0,1,11.0907-39.8249c-2.8069,13.3853-5.0784,26.8443-5.1955,40.0723.0756,6.5587.5935,13.162,2.8873,18.7643,2.1895,5.6414,6.3464,9.589,12.0014,10.7853,5.5917,1.3456,12.3806.8882,17.0253-1.8571,4.925-2.6301,7.688-8.3506,9.0702-14.5205a74.04318,74.04318,0,0,0,1.1115-19.6329A164.06223,164.06223,0,0,0,1205.2214,462.4056Z" class="colora8704a svgShape"></path><path d="M1372.198,564.7821a74.78642,74.78642,0,0,1-1.2827,13.6892c-15.5262,36.2165-55.104,89.796-154.6382,96.1727-152.0744,9.7733-195.9498-79.9186-195.9498-79.9186,202.2571,137.9341,315.0995-20.4821,322.1696-35.835s-.9705-43.5984-15.3527-25.0915c-14.3827,18.5413-33.8945,18.5413-33.8945,18.5413s33.1668-10.7435,23.3934-60.4415c-9.7388-49.698-22.3882-144.2764-114.021-155.9557-70.2491-8.9762-117.5908,18.1602-135.8548,31.2952l4.2629-16.1155c72.814-39.2662,149.1974-35.038,228.0763,0l44.3262,152.1088C1361.6622,521.0105,1372.198,542.1164,1372.198,564.7821Z" style="mix-blend-mode:soft-light" opacity=".37" fill="#000000" class="color000000 svgShape"></path></g></g></svg>