<svg width="433" height="260" viewBox="0 0 433 260" fill="none" xmlns="http://www.w3.org/2000/svg">
<path d="M291.753 143.535C291.786 144.029 291.785 144.524 291.751 145.017C291.682 146.113 291.508 147.504 290.904 148.458C290.334 149.36 289.438 149.236 288.485 149.177C281.061 148.687 273.638 148.505 266.197 148.793C265.147 148.833 263.979 149.026 262.931 148.943C262.668 148.924 262.391 148.924 262.178 148.762C261.477 148.24 261.641 146.638 261.622 145.892C261.558 143.219 261.96 139.805 263.451 137.499C264.056 136.569 264.762 136.711 265.754 136.923C267.244 137.235 268.73 137.65 270.158 138.19C271.528 138.708 272.827 139.376 273.991 140.224C274.513 140.599 275.006 141.013 275.466 141.461C277.555 139.787 279.812 138.335 282.237 137.162C283.694 136.46 285.448 135.502 287.068 135.285C288.346 135.113 288.894 135.939 289.529 136.945C290.775 138.913 291.61 141.202 291.753 143.535Z" fill="#D6E9FC"/>
<path d="M291.753 143.535C291.786 144.029 291.785 144.524 291.751 145.017C291.682 146.113 291.508 147.504 290.904 148.458C290.334 149.36 289.438 149.236 288.485 149.177C281.061 148.687 273.638 148.505 266.197 148.793C265.147 148.833 263.979 149.026 262.931 148.943C262.668 148.924 262.391 148.924 262.178 148.762C261.477 148.24 261.641 146.638 261.622 145.892C261.558 143.219 261.96 139.805 263.451 137.499C264.056 136.569 264.762 136.711 265.754 136.923C267.244 137.235 268.73 137.65 270.158 138.19C271.528 138.708 272.827 139.376 273.991 140.224C272.091 139.222 269.966 138.725 267.819 138.78C266.796 138.808 265.615 139.075 265.181 140.003C264.835 140.743 265.131 141.658 265.693 142.251C266.257 142.841 267.033 143.174 267.799 143.462C272.649 145.275 277.935 145.805 283.091 145.307C286.031 145.022 288.929 144.408 291.753 143.535Z" fill="#B5CDE5"/>
<path d="M253.875 150.766H299.518V185.315H253.875V150.766Z" fill="#204CF2"/>
<path d="M272.584 150.764H299.518V185.314H272.584V150.764Z" fill="#3A62F8"/>
<path d="M282.363 150.764H290.45V185.314H282.363V150.764Z" fill="#D6E9FC"/>
<path d="M258.753 150.764H266.84V185.314H258.753V150.764Z" fill="#B5CDE5"/>
<path opacity="0.5" d="M299.518 156.624L253.875 157.694V150.766H299.518V156.624Z" fill="#204CF2"/>
<path d="M251.623 146.655H301.77V154.876H251.623V146.655Z" fill="#3A62F8"/>
<path d="M269.767 146.655H301.771V154.876H269.767V146.655Z" fill="#577AFF"/>
<path d="M283.692 146.655H291.779V154.876H283.692V146.655Z" fill="#D6E9FC"/>
<path d="M256.987 146.655H265.074V154.876H256.987V146.655Z" fill="#B5CDE5"/>
<path d="M237.976 190.465H315.417V243.359H237.976V190.465Z" fill="#0575E6"/>
<path d="M265.483 190.465H315.417V243.359H265.483V190.465Z" fill="#3777B8"/>
<path d="M281.656 190.465H298.536V243.359H281.656V190.465Z" fill="#D6E9FC"/>
<path d="M245.389 190.465H257.858V243.359H245.389V190.465Z" fill="#B5CDE5"/>
<path opacity="0.5" d="M315.417 197.798L237.976 199.138V190.463H315.417V197.798Z" fill="#0575E6"/>
<path d="M235.155 185.314H318.238V195.613H235.155V185.314Z" fill="#3777B8"/>
<path d="M261.955 185.314H318.238V195.613H261.955V185.314Z" fill="#4C8FD3"/>
<path d="M284.89 185.314H301.77V195.613H284.89V185.314Z" fill="#D6E9FC"/>
<path d="M242.834 185.314H255.303V195.613H242.834V185.314Z" fill="#B5CDE5"/>
<path d="M175.646 118.749C175.678 119.242 175.678 119.738 175.644 120.231C175.574 121.327 175.401 122.718 174.796 123.672C174.227 124.574 173.331 124.45 172.377 124.391C164.953 123.901 157.531 123.719 150.09 124.006C149.04 124.047 147.871 124.239 146.823 124.156C146.561 124.138 146.283 124.138 146.071 123.976C145.37 123.454 145.533 121.852 145.515 121.106C145.45 118.433 145.853 115.018 147.343 112.713C147.948 111.783 148.655 111.925 149.647 112.137C151.136 112.449 152.623 112.864 154.051 113.404C155.42 113.922 156.72 114.59 157.884 115.438C158.405 115.813 158.898 116.227 159.358 116.675C161.448 115.001 163.704 113.549 166.13 112.376C167.586 111.674 169.341 110.715 170.96 110.499C172.238 110.327 172.786 111.153 173.422 112.159C174.668 114.127 175.502 116.416 175.646 118.749Z" fill="#D6E9FC"/>
<path d="M175.646 118.749C175.678 119.242 175.678 119.738 175.644 120.231C175.574 121.327 175.401 122.718 174.796 123.672C174.227 124.574 173.331 124.45 172.377 124.391C164.953 123.901 157.531 123.719 150.09 124.006C149.04 124.047 147.871 124.239 146.823 124.156C146.561 124.138 146.283 124.138 146.071 123.976C145.37 123.454 145.533 121.852 145.515 121.106C145.45 118.433 145.853 115.019 147.343 112.713C147.948 111.783 148.655 111.925 149.647 112.137C151.136 112.449 152.623 112.864 154.051 113.404C155.42 113.922 156.72 114.59 157.884 115.438C155.984 114.436 153.859 113.939 151.712 113.994C150.688 114.022 149.507 114.289 149.074 115.216C148.728 115.957 149.023 116.872 149.585 117.465C150.15 118.055 150.926 118.388 151.692 118.676C156.541 120.489 161.828 121.019 166.984 120.521C169.923 120.236 172.822 119.622 175.646 118.749Z" fill="#B5CDE5"/>
<path d="M137.768 125.98H183.41V177.593H137.768V125.98Z" fill="#1C49F2"/>
<path d="M156.476 125.977H183.41V177.592H156.476V125.977Z" fill="#55AAFF"/>
<path d="M166.255 125.977H174.342V177.592H166.255V125.977Z" fill="#D6E9FC"/>
<path d="M142.646 125.977H150.733V177.592H142.646V125.977Z" fill="#B5CDE5"/>
<path opacity="0.5" d="M183.41 131.837L137.768 132.908V125.98H183.41V131.837Z" fill="#1C49F2"/>
<path d="M135.516 121.869H185.663V130.09H135.516V121.869Z" fill="#2350F9"/>
<path d="M153.659 121.869H185.662V130.09H153.659V121.869Z" fill="#55AAFF"/>
<path d="M167.584 121.869H175.671V130.09H167.584V121.869Z" fill="#D6E9FC"/>
<path d="M140.88 121.869H148.966V130.09H140.88V121.869Z" fill="#B5CDE5"/>
<path d="M121.869 182.744H199.309V243.359H121.869V182.744Z" fill="#2747C1"/>
<path d="M149.375 182.744H199.31V243.359H149.375V182.744Z" fill="#3F88D1"/>
<path d="M165.548 182.744H182.429V243.359H165.548V182.744Z" fill="#D6E9FC"/>
<path d="M129.281 182.744H141.75V243.359H129.281V182.744Z" fill="#B5CDE5"/>
<path opacity="0.5" d="M199.309 190.078L121.869 191.417V182.742H199.309V190.078Z" fill="#2747C1"/>
<path d="M119.048 177.593H202.13V187.891H119.048V177.593Z" fill="#3F88D1"/>
<path d="M145.847 177.593H202.13V187.891H145.847V177.593Z" fill="#5598DB"/>
<path d="M168.782 177.593H185.663V187.891H168.782V177.593Z" fill="#D6E9FC"/>
<path d="M126.726 177.593H139.195V187.891H126.726V177.593Z" fill="#B5CDE5"/>
<path d="M245.558 5.40674C240.709 8.85981 237.593 14.3741 237.139 20.3194C237.11 20.7257 237.094 21.1329 237.093 21.5402C234.418 21.5767 232.153 24.1204 230.925 26.2706C229.536 28.704 228.947 31.5269 229.098 34.315C229.221 36.5742 229.44 38.9784 230.012 41.1728C230.724 43.9067 232.825 48.4429 236.281 47.8336C236.39 47.8145 235.762 43.7809 235.81 43.7727C232.728 44.3158 230.725 40.6548 229.874 38.2082C229.777 37.9295 229.689 37.3376 229.561 36.9176C229.572 36.6248 229.584 36.3316 229.611 36.0397C229.738 34.7031 230.048 33.3902 230.533 32.1384C231.528 29.5869 233.453 26.7645 236.166 25.8625C236.554 25.7339 236.958 25.658 237.367 25.6367C237.44 26.2483 237.52 26.8589 237.597 27.4673C237.816 29.1888 238.187 33.0463 240.792 32.5734C243.099 32.1548 242.01 27.989 241.826 26.5037C241.551 24.2796 240.424 22.1244 238.025 21.6223L238.021 21.6218C238.035 21.5548 238.047 21.4873 238.062 21.4207C239.172 16.595 241.999 12.338 246.029 9.46816C246.586 9.07187 245.045 5.77202 245.558 5.40674ZM241.382 27.7518C241.169 28.1303 240.837 28.419 240.321 28.5125C239.252 28.7068 238.38 27.8914 237.93 27.0226C237.727 26.6291 237.635 26.2173 237.552 25.8023L237.555 25.6299C239.126 25.6121 240.516 26.453 241.382 27.7518Z" fill="#435EC4"/>
<path d="M202.088 39.1913C200.762 36.306 198.604 33.5142 196.04 31.6207C194.708 30.6371 192.955 29.928 191.273 29.9398C188.433 25.9245 184.403 22.854 179.766 20.8912C180.004 20.992 180.377 22.5334 180.482 22.8061C180.605 23.1249 180.91 24.5682 181.236 24.7064C183.864 25.8187 186.309 27.2688 188.497 29.1066C188.909 29.4532 189.307 29.8167 189.699 30.1874C189 30.4153 188.367 30.8095 187.855 31.3362C185.984 33.2442 186.486 36.1829 187.273 38.4544C187.933 40.3574 188.59 42.5035 189.643 44.2364C191.455 47.2211 194.456 44.8767 195.18 42.3694C195.928 39.7837 194.918 37.375 193.998 34.9958C193.838 34.5835 193.666 34.1758 193.483 33.7732C195.245 33.952 196.936 34.8955 198.291 36.0593C200.179 37.6814 202.572 40.1531 203.191 42.6184C203.83 45.1576 203.256 48.0379 202.052 50.3039C201.92 50.5511 202.661 51.9433 202.767 52.2188C202.873 52.4924 203.653 53.8705 203.521 54.1191C206.152 49.172 204.258 43.9158 202.088 39.1913ZM193.902 35.4409L193.959 35.9216C194.017 36.6108 193.98 37.3048 193.848 37.9838C193.616 39.1635 193.077 40.3729 192.117 41.1422C191.243 41.8431 190.085 42.1701 189.099 41.5043C188.862 41.3452 188.541 41.015 188.265 40.6502C188.22 40.4494 188.18 40.2472 188.146 40.0441C187.774 37.7033 188.407 35.165 190.779 34.164C191.398 33.903 192.059 33.7601 192.73 33.7427C193.155 34.361 193.613 35.0305 193.902 35.4409Z" fill="#55AAFF"/>
<path d="M121.103 153.318C115.711 153.977 108.846 157.652 107.312 163.361C101.057 164.632 95.7415 170.332 91.6505 174.745C91.816 174.567 93.4144 174.782 93.6944 174.785C94.0218 174.788 95.5085 175.032 95.7388 174.784C99.0847 171.174 102.671 167.536 107.04 165.185C107.029 167.576 108.484 169.643 111.04 169.826L111.033 169.827H111.053C111.071 169.828 111.088 169.832 111.106 169.833C112.861 169.935 115.792 170.38 117.203 169.045C119.451 166.918 116.977 163.765 114.596 163.279C113.646 163.085 112.592 163.009 111.536 163.006C112.012 161.697 112.835 160.489 113.703 159.451C116.595 155.997 120.747 153.899 125.191 153.356C123.855 153.519 122.448 153.154 121.103 153.318ZM113.377 165.159C114.316 166.67 113.995 168.219 112.878 169.106C111.796 168.294 111.17 166.922 111.12 165.444C111.098 164.803 111.189 164.176 111.359 163.566C111.75 163.736 112.232 163.938 112.346 164.025C112.755 164.337 113.105 164.721 113.377 165.159Z" fill="#577AFF"/>
<path d="M366.389 132.559C361.004 133.899 355.791 136.257 351.401 139.682C351.334 139.734 351.274 139.787 351.212 139.839C351.126 139.542 350.981 139.264 350.788 139.023C349.351 137.245 346.168 136.82 344.051 136.522C339.035 135.815 333.839 136.651 329.715 139.713C329.48 139.888 329.424 141.169 329.368 141.464C329.313 141.76 329.295 143.044 329.057 143.222C332.497 140.667 336.697 139.64 340.946 139.809C343.016 139.891 347.595 140.196 349.647 142.031L349.595 142.306C349.381 143.019 349.269 143.802 349.135 144.691C349.123 144.773 349.109 144.864 349.098 144.959L349.051 145.206C349.059 145.184 349.07 145.164 349.079 145.142C349.023 145.762 349.094 146.404 349.919 145.821C350.525 145.393 350.633 144.663 350.773 143.996C350.841 143.67 350.931 143.316 351.019 142.948C351.409 142.665 351.811 142.402 352.192 142.138C353.583 141.175 355.033 140.3 356.534 139.519C359.453 137.997 362.54 136.862 365.732 136.067C366.234 135.942 365.933 132.673 366.389 132.559Z" fill="#4869E5"/>
<path d="M340.262 169.953C336.865 167.243 332.744 165.567 328.419 165.208C329.942 162.144 330.549 158.384 327.628 156.355C325.61 154.953 322.922 154.014 320.566 153.354C318.203 152.692 315.797 152.511 313.452 153.337C312.537 153.66 312.155 155.463 311.261 155.778C315.36 154.333 319.625 155.999 323.38 157.695C325.708 158.746 327.627 160.14 327.479 162.941C327.44 163.676 327.296 164.413 327.102 165.135C325.301 165.067 322.939 165.017 321.622 166.288C320.798 167.084 319.037 168.508 319.067 169.784C319.107 171.531 321.186 172.332 322.615 171.806C324.128 171.25 325.293 169.573 326.31 168.405C326.506 168.179 326.705 167.932 326.901 167.67C327.723 167.792 328.54 167.948 329.349 168.137C332.55 168.88 335.506 170.347 338.07 172.394C338.139 172.448 340.232 169.929 340.262 169.953ZM325.977 168.113C325.862 168.342 325.61 168.722 325.408 169.034C324.529 169.566 323.514 169.802 322.536 169.236C321.946 168.895 321.505 168.359 321.353 167.757C322.836 167.365 324.583 167.389 326.224 167.582C326.144 167.759 326.064 167.939 325.977 168.113Z" fill="#3777B8"/>
<path d="M266.7 8.26099C263.138 11.0004 261.237 14.6737 260.758 18.8769C259.617 19.4999 258.499 20.1858 257.527 21.0563C255.711 22.6844 254.852 24.7041 254.844 27.1138C254.836 29.2152 254.637 31.5601 255.784 33.4061C255.175 32.4256 256.335 30.3256 255.709 29.3187C255.565 29.1151 255.439 28.8995 255.333 28.6743C255.441 28.2767 255.544 27.8293 255.634 27.6469C256.357 26.1812 257.581 25.0484 258.907 24.1304C259.337 23.8322 259.97 23.357 260.645 22.9384C260.667 24.4291 260.807 25.9796 261.792 27.112C262.375 27.7819 263.539 28.491 264.415 27.9055C265.127 27.4298 264.969 26.3841 264.961 25.6426C264.952 24.7921 264.948 23.9521 264.896 23.1212L264.887 22.5676C264.882 22.621 264.874 22.6688 264.866 22.7186C264.774 21.6026 264.58 20.5032 264.14 19.4201C263.574 18.0246 262.93 17.8901 261.986 18.2645C262.173 17.8559 262.375 17.4537 262.597 17.0638C263.656 15.205 265.085 13.6481 266.775 12.3484C267.437 11.8399 266.077 8.73982 266.7 8.26099ZM262.982 22.0842C263.644 22.1563 264.088 22.8499 264.387 23.6922C263.877 24.1268 263.061 24.0638 262.303 23.5599C261.897 23.2904 261.593 22.9338 261.357 22.5329C261.942 22.2329 262.517 22.0331 262.982 22.0842Z" fill="#5598DB"/>
<path d="M204.586 0C204.833 1.35897 204.703 2.69378 204.047 3.92552C203.9 4.20051 203.603 4.66703 203.245 5.10983C202.949 5.0054 202.648 4.94703 202.346 4.95798C201.41 4.99309 201.254 5.51023 201.367 6.13454C201.362 6.13089 201.356 6.12998 201.351 6.12587L201.379 6.20203C201.492 6.74106 201.787 7.34849 201.952 7.79358C202.157 8.34492 202.315 9.35959 202.711 9.79419L202.724 9.80741L202.78 9.95654C202.769 9.91413 202.763 9.87628 202.754 9.8366C203.258 10.3364 203.685 9.85256 204.243 9.34682C204.34 9.25927 204.421 9.16167 204.51 9.06956C205.235 9.345 205.966 9.78051 206.246 10.0145C206.912 10.5717 207.467 11.2444 207.94 11.9708C207.993 12.0511 208.214 12.4843 208.363 12.7529C208.434 13.069 208.58 13.6002 208.582 13.6103C209.268 17.2544 208.778 21.0737 206.39 24.0087C205.939 24.5637 208.238 27.325 207.82 27.8389C210.335 24.7452 210.741 20.6655 209.892 16.8631C209.263 14.0449 208.169 10.8618 206.663 8.39144C206.386 7.94083 206.079 7.50937 205.745 7.09996C206.122 6.0748 206.217 4.94931 206.014 3.8293C205.775 2.50589 204.824 1.31337 204.586 0Z" fill="#3777B8"/>
<path d="M81.8093 152.579C82.7848 152.243 83.7853 152.188 84.7694 152.533C84.9892 152.611 85.3673 152.777 85.7344 152.992C85.6879 153.217 85.6843 153.448 85.7239 153.673C85.8557 154.36 86.2552 154.417 86.7035 154.263C86.7012 154.267 86.7012 154.271 86.6989 154.276L86.7518 154.246C87.1371 154.102 87.5526 153.815 87.8622 153.643C88.2462 153.43 88.9777 153.198 89.254 152.856C89.2572 152.853 89.2591 152.849 89.2622 152.845L89.3662 152.787C89.3361 152.8 89.3088 152.809 89.2805 152.819C89.5929 152.391 89.1875 152.13 88.7506 151.776C88.6749 151.714 88.5942 151.665 88.5157 151.61C88.637 151.043 88.876 150.454 89.0174 150.22C89.3539 149.666 89.7876 149.18 90.271 148.748C90.3243 148.701 90.6194 148.488 90.8009 148.348C91.0262 148.259 91.4019 148.091 91.4092 148.089C94.0228 147.171 96.8985 147.101 99.336 148.532C99.797 148.803 101.576 146.793 102.003 147.044C99.4345 145.535 96.3754 145.697 93.6634 146.753C91.6532 147.536 89.426 148.704 87.7719 150.095C87.4705 150.35 87.1867 150.626 86.9224 150.92C86.1065 150.757 85.262 150.816 84.4767 151.09C83.5258 151.418 82.7524 152.254 81.8093 152.579Z" fill="#4869E5"/>
<path d="M100.573 125.878C98.1065 126.361 95.9983 127.181 94.2731 129.119C93.7218 129.738 91.6368 133.177 91.3012 135.204C91.1739 135.209 91.0472 135.212 90.9199 135.218C89.5682 135.288 88.2462 135.908 86.9027 135.977C87.9019 135.926 88.8901 135.919 89.887 136.024C90.1451 136.051 90.8141 136.069 91.3221 136.168C91.4106 136.437 91.5907 136.621 91.8963 136.679C92.4057 136.775 95.6458 136.291 95.9135 135.92C96.1036 135.658 95.8163 135.509 95.3986 135.421C95.0233 134.162 96.5218 130.973 96.9154 130.283C98.0185 128.348 99.5216 127.058 101.424 126.033C101.726 126.053 102.032 126.062 102.333 126.111C103.304 126.272 104.252 126.587 105.113 127.069C106.602 127.903 109.024 130.073 108.064 131.972C108.427 131.253 111.695 131.976 112.081 131.214C113.309 128.785 109.56 126.293 107.66 125.669C105.815 125.063 104.009 125.243 102.184 125.57C102.385 125.233 100.113 125.612 100.573 125.878Z" fill="#5598DB"/>
<path d="M363.644 172.81C362.344 170.626 360.064 169.201 357.512 169.045C356.704 168.996 355.867 169.082 355.033 169.231C354.596 165.329 352.455 160.896 348.606 159.35C347.199 158.785 345.873 158.914 344.438 159.206C342.99 159.5 341.509 159.692 340.271 160.548C341.097 159.977 342.656 160.448 343.497 159.866C343.588 159.795 343.685 159.732 343.782 159.669C344.323 159.767 344.843 159.819 345.381 160.032C346.521 160.485 347.507 161.256 348.343 162.143C350.377 164.298 351.512 167.084 351.82 170.009C351.841 170 351.862 169.994 351.884 169.99L351.877 169.992L352.849 169.788C355.899 169.447 358.838 170.835 360.419 173.493C360.612 173.816 363.475 172.527 363.644 172.81Z" fill="#55AAFF"/>
<path d="M288.957 92.221C288.828 92.4659 288.582 92.6095 288.302 92.5744C287.425 92.4632 287.224 91.6004 286.893 90.8789C286.381 89.7817 285.878 89.0995 284.548 89.4602C284 89.6107 283.466 89.8218 282.94 90.0421C282.418 90.2592 281.975 89.6982 282.154 89.2167C282.853 87.3266 283.96 85.614 285.397 84.2008C285.656 83.9431 286.003 83.976 286.242 84.1415C287.574 83.3963 287.874 85.4125 288.089 86.3186C288.382 87.5554 288.704 88.7844 288.971 90.0257C289.13 90.7544 289.312 91.5274 288.957 92.221Z" fill="#3757D1"/>
<path d="M321.116 56.2386C324.025 37.4868 313.503 20.2873 297.614 17.8225C281.725 15.3577 266.486 28.5608 263.577 47.3126C260.668 66.0644 271.191 83.2639 287.08 85.7287C302.969 88.1936 318.207 74.9904 321.116 56.2386Z" fill="#4869E5"/>
<path d="M313.721 60.206C318.379 58.9806 320.137 50.3165 317.648 40.8542C315.159 31.3919 309.365 24.7145 304.707 25.9399C300.048 27.1653 298.29 35.8294 300.779 45.2917C303.268 54.7541 309.062 61.4314 313.721 60.206Z" fill="#4869E5"/>
<path d="M325.663 124.534C324.976 125.745 323.395 124.58 322.658 124.042C321.872 123.466 321.077 122.671 320.066 122.542C319.129 122.419 318.54 123.086 317.626 122.855C317.409 122.797 317.295 122.577 317.239 122.387C316.957 121.374 317.991 120.056 318.587 119.32C319.461 118.25 320.545 117.437 321.782 116.833C322.023 116.716 322.24 116.77 322.392 116.895C323.596 116.887 324.191 118.011 324.528 119.128C324.892 120.341 325.256 121.563 325.583 122.789C325.731 123.337 325.97 123.984 325.663 124.534Z" fill="#1C49F2"/>
<path d="M359.049 83.8643C361.011 62.888 349.603 44.6681 333.57 43.1688C317.536 41.6696 302.948 57.4588 300.987 78.4351C299.026 99.4114 310.433 117.631 326.467 119.131C342.5 120.63 357.088 104.841 359.049 83.8643Z" fill="#55AAFF"/>
<path opacity="0.5" d="M350.762 90.6165C355.491 89.5635 357.42 80.1516 355.069 69.5945C352.719 59.0374 346.979 51.3328 342.25 52.3859C337.52 53.4389 335.592 62.8507 337.942 73.4078C340.293 83.9649 346.032 91.6695 350.762 90.6165Z" fill="#55AAFF"/>
<path d="M148.991 83.4556C149.101 83.664 149.31 83.7867 149.549 83.757C150.296 83.6622 150.467 82.9271 150.749 82.3123C151.186 81.3775 151.614 80.796 152.747 81.1034C153.215 81.232 153.669 81.4117 154.118 81.5995C154.563 81.7842 154.94 81.3063 154.788 80.8963C154.192 79.2858 153.248 77.8264 152.024 76.622C151.803 76.4022 151.508 76.4304 151.304 76.5713C150.169 75.9365 149.914 77.6544 149.73 78.4265C149.481 79.4804 149.207 80.5279 148.979 81.5854C148.843 82.2061 148.688 82.8646 148.991 83.4556Z" fill="#204CF2"/>
<path d="M156.313 76.6059C170.427 71.3924 177.302 54.8029 171.668 39.5524C166.035 24.3019 150.027 16.1653 135.913 21.3788C121.799 26.5923 114.925 43.1817 120.558 58.4323C126.192 73.6828 142.2 81.8194 156.313 76.6059Z" fill="#3A62F8"/>
<path opacity="0.5" d="M138.003 44.0036C140.503 35.9837 139.048 28.3972 134.755 27.0586C130.461 25.7201 124.953 31.1364 122.453 39.1562C119.953 47.1761 121.407 54.7626 125.701 56.1012C129.995 57.4397 135.503 52.0234 138.003 44.0036Z" fill="#3A62F8"/>
<path d="M112.462 118.278C113.098 119.4 114.562 118.321 115.245 117.822C115.974 117.289 116.71 116.553 117.646 116.433C118.513 116.32 119.059 116.937 119.906 116.723C120.106 116.669 120.213 116.465 120.264 116.289C120.525 115.351 119.567 114.13 119.016 113.449C118.206 112.457 117.202 111.705 116.057 111.145C115.833 111.037 115.633 111.087 115.492 111.203C114.376 111.195 113.825 112.237 113.514 113.271C113.176 114.395 112.839 115.527 112.536 116.662C112.398 117.17 112.178 117.769 112.462 118.278Z" fill="#2747C1"/>
<path d="M113.099 113.179C129.096 111.043 139.968 93.6158 137.382 74.2548C134.797 54.8937 119.732 40.9304 103.735 43.0669C87.7381 45.2034 76.866 62.6305 79.4517 81.9916C82.0375 101.353 97.1018 115.316 113.099 113.179Z" fill="#3F88D1"/>
<path opacity="0.5" d="M100.396 71.3002C102.855 61.545 101.043 52.6779 96.3497 51.495C91.6562 50.3121 85.8583 57.2613 83.3996 67.0165C80.9409 76.7717 82.7526 85.6388 87.446 86.8217C92.1395 88.0046 97.9374 81.0554 100.396 71.3002Z" fill="#3F88D1"/>
<path d="M185.716 250.922C184.705 250.923 183.703 250.724 182.768 250.337C181.833 249.95 180.984 249.383 180.268 248.668C179.553 247.953 178.985 247.104 178.598 246.169C178.211 245.235 178.011 244.233 178.011 243.221V238.818C178.011 236.77 178.806 234.842 180.251 233.39L180.375 233.265C181.685 231.944 183.428 231.142 185.283 231.006C187.739 230.825 190.154 230.656 192.458 230.497C200.404 199.143 198.67 127.226 197.755 101.72C193.949 103.438 190.282 105.244 186.825 107.106C185.605 107.762 184.242 108.106 182.857 108.108C181.958 108.108 181.069 107.964 180.215 107.679C177.165 106.663 174.942 103.943 174.553 100.752L173.698 93.7309C173.463 91.8393 173.872 89.9238 174.859 88.2928C175.845 86.6619 177.352 85.4104 179.136 84.7398C183.752 82.9969 199.634 76.9672 210.165 72.5656C221.872 67.6669 230.585 63.7929 236.059 61.0522C237.33 60.4175 238.731 60.0863 240.152 60.0845C241.381 60.0847 242.597 60.3327 243.729 60.8136C244.86 61.2945 245.883 61.9984 246.736 62.8834C247.589 63.7684 248.255 64.8163 248.694 65.9644C249.133 67.1126 249.336 68.3374 249.291 69.5658C248.015 104.59 247.369 125.976 247.369 133.125V179.629C247.369 191.051 247.495 201.86 247.743 211.755C248.065 224.889 248.546 227.637 248.65 228.087C248.744 228.413 248.933 228.948 249.204 229.17C249.249 229.207 249.702 229.573 251.196 229.772C252.392 229.936 258.683 230.245 261.369 230.378C265.363 230.575 268.491 233.859 268.491 237.857V243.027C268.491 247.155 265.131 250.513 261.001 250.513H260.912L260.782 250.51C248.974 250.166 237.316 249.943 231.079 249.943C225.887 249.943 208.452 250.246 185.946 250.918C185.869 250.921 185.793 250.922 185.716 250.922Z" fill="white"/>
<path d="M262.359 237.857V243.029C262.359 243.789 261.725 244.402 260.961 244.382C247.948 244.001 236.75 243.81 231.079 243.81C226.934 243.81 216.124 243.985 201.991 244.341C196.95 244.468 191.492 244.619 185.76 244.791C185.529 244.797 185.299 244.752 185.087 244.66C184.875 244.567 184.686 244.429 184.534 244.255C184.282 243.97 184.144 243.602 184.145 243.221V238.818C184.145 238.406 184.309 238.009 184.599 237.715L184.73 237.584C184.996 237.314 185.35 237.15 185.727 237.122C188.273 236.936 190.819 236.756 193.365 236.582C194.507 236.504 195.596 236.068 196.478 235.337C197.359 234.605 197.988 233.615 198.275 232.506C201.181 221.321 202.858 205.155 203.769 187.703C204.186 179.669 204.444 171.362 204.583 163.144C204.779 151.578 204.739 140.189 204.599 129.984C204.448 119.581 204.175 109.179 203.782 98.7823C203.667 95.7447 200.519 93.7865 197.739 95.021C192.87 97.1388 188.267 99.367 183.917 101.71C183.649 101.854 183.355 101.942 183.052 101.968C182.749 101.994 182.443 101.957 182.155 101.861C181.753 101.728 181.397 101.484 181.129 101.156C180.861 100.827 180.692 100.43 180.642 100.009L179.784 92.9894C179.719 92.4616 179.833 91.9273 180.108 91.4722C180.383 91.0171 180.803 90.6674 181.3 90.4794C186.468 88.5294 202.008 82.6256 212.531 78.2267C224.444 73.2391 233.201 69.3428 238.806 66.5382C239.181 66.3506 239.59 66.2432 240.008 66.2228C240.426 66.2024 240.844 66.2694 241.235 66.4196C241.82 66.6463 242.32 67.0495 242.666 67.5733C243.012 68.0971 243.186 68.7155 243.164 69.3428C242.858 77.773 242.584 85.4015 242.351 92.2292C241.819 107.769 241.48 119.159 241.325 126.403C241.263 129.314 241.235 131.555 241.235 133.128V179.629C241.235 188.459 241.308 196.873 241.46 204.874C241.505 207.257 241.554 209.6 241.611 211.91C241.86 221.979 242.237 227.911 242.735 229.714C243.242 231.509 244.092 232.907 245.311 233.909C246.517 234.914 248.209 235.56 250.388 235.85C251.639 236.022 255.752 236.243 261.067 236.504C261.415 236.52 261.743 236.67 261.984 236.922C262.224 237.174 262.359 237.509 262.359 237.857Z" fill="#435EC4"/>
<g opacity="0.5">
<path d="M241.325 126.402C241.481 119.157 241.82 107.768 242.351 92.2278L204.6 129.983C204.739 140.187 204.78 151.578 204.583 163.143L241.325 126.402ZM241.235 150.236L203.769 187.702C202.858 205.154 201.182 221.32 198.275 232.505C197.988 233.614 197.359 234.604 196.478 235.336C195.596 236.067 194.507 236.503 193.365 236.581C190.924 236.749 188.352 236.929 185.727 237.121C185.35 237.149 184.996 237.313 184.73 237.583L184.599 237.714C184.308 238.008 184.145 238.404 184.145 238.817V243.22C184.145 243.601 184.28 243.969 184.534 244.255C184.686 244.428 184.875 244.566 185.087 244.659C185.299 244.751 185.529 244.796 185.76 244.79C191.492 244.618 196.95 244.467 201.991 244.34L241.46 204.872C241.308 196.871 241.235 188.457 241.235 179.627V150.236Z" fill="#435EC4"/>
</g>
<path d="M325.272 200.038C326.782 197.27 329.114 195.3 330.922 192.824C332.44 190.74 333.498 188.332 334.213 185.742C336.034 179.179 336.497 171.837 336.946 164.997C337.382 158.374 337.466 151.734 337.224 145.106C337.215 144.868 337.114 144.643 336.942 144.478C336.77 144.312 336.541 144.22 336.303 144.22H306.701C306.206 144.22 305.797 144.612 305.779 145.106C305.537 151.735 305.62 158.374 306.057 164.997C306.506 171.837 306.969 179.179 308.79 185.742C309.505 188.332 310.563 190.74 312.081 192.824C313.889 195.3 316.221 197.27 317.731 200.038C319.441 203.18 319.712 207.038 319.992 210.646C320.275 214.253 320.421 217.878 320.283 221.499C320.2 223.793 319.992 226.087 319.63 228.344V228.349C319.63 228.353 319.626 228.362 319.626 228.376C319.618 228.417 319.607 228.504 319.583 228.622C319.579 228.65 319.571 228.682 319.567 228.713C319.194 230.574 318.081 238.888 310.925 240C310.19 240.114 309.549 240.525 309.089 241.122C308.629 241.72 308.354 242.504 308.354 243.361H334.65C334.65 242.504 334.375 241.72 333.915 241.122C333.455 240.525 332.814 240.114 332.079 240C324.923 238.888 323.81 230.574 323.437 228.713C323.433 228.682 323.425 228.65 323.421 228.622C323.397 228.504 323.386 228.417 323.378 228.376C323.378 228.362 323.374 228.353 323.374 228.349V228.344C323.012 226.087 322.804 223.793 322.721 221.499C322.583 217.878 322.729 214.253 323.012 210.646C323.291 207.038 323.562 203.18 325.272 200.038Z" fill="#D3E3F4"/>
<path d="M308.287 164.085C308.301 164.34 308.314 164.591 308.332 164.846L308.351 165.102C308.793 171.874 309.254 178.878 310.987 185.135C311.671 187.611 312.66 189.746 313.923 191.479C314.562 192.354 315.287 193.18 316.058 194.051C317.348 195.514 318.689 197.028 319.733 198.948C319.742 198.967 319.752 198.98 319.761 198.999C319.928 199.316 320.179 199.581 320.486 199.766C320.793 199.951 321.145 200.048 321.504 200.048C321.863 200.047 322.214 199.949 322.521 199.763C322.828 199.577 323.078 199.311 323.245 198.994C323.254 198.98 323.263 198.962 323.272 198.948C324.316 197.028 325.653 195.514 326.948 194.046C327.714 193.18 328.439 192.354 329.077 191.483C330.345 189.746 331.33 187.611 332.014 185.131C333.752 178.874 334.212 171.865 334.655 165.088L334.668 164.846C334.687 164.591 334.7 164.34 334.714 164.085H308.287Z" fill="#55AAFF"/>
<path d="M333.14 150.488C333.065 149.617 331.696 149.609 331.772 150.488C332.584 159.91 332.214 169.352 330.63 178.678C330.483 179.539 331.802 179.909 331.949 179.042C333.553 169.596 333.963 160.033 333.14 150.488Z" fill="white"/>
<path d="M321.013 195.451C321.662 195.451 322.188 194.926 322.188 194.277C322.188 193.629 321.662 193.103 321.013 193.103C320.365 193.103 319.839 193.629 319.839 194.277C319.839 194.926 320.365 195.451 321.013 195.451Z" fill="#55AAFF"/>
<path d="M323.008 185.314C323.657 185.314 324.183 184.788 324.183 184.14C324.183 183.491 323.657 182.965 323.008 182.965C322.36 182.965 321.834 183.491 321.834 184.14C321.834 184.788 322.36 185.314 323.008 185.314Z" fill="#55AAFF"/>
<path d="M323.55 192.203C324.498 192.203 325.266 191.434 325.266 190.487C325.266 189.539 324.498 188.771 323.55 188.771C322.603 188.771 321.834 189.539 321.834 190.487C321.834 191.434 322.603 192.203 323.55 192.203Z" fill="#55AAFF"/>
<path d="M319.507 189.632C320.609 189.632 321.502 188.738 321.502 187.636C321.502 186.535 320.609 185.641 319.507 185.641C318.405 185.641 317.512 186.535 317.512 187.636C317.512 188.738 318.405 189.632 319.507 189.632Z" fill="#55AAFF"/>
<path d="M119.172 200.038C120.682 197.27 123.014 195.3 124.823 192.824C126.34 190.74 127.398 188.332 128.114 185.742C129.934 179.179 130.398 171.837 130.846 164.997C131.283 158.374 131.367 151.734 131.125 145.106C131.115 144.868 131.014 144.643 130.843 144.478C130.671 144.312 130.442 144.22 130.203 144.22H100.601C100.106 144.22 99.6976 144.612 99.6794 145.106C99.4372 151.735 99.5207 158.374 99.9576 164.997C100.406 171.837 100.87 179.179 102.69 185.742C103.406 188.332 104.463 190.74 105.981 192.824C107.79 195.3 110.122 197.27 111.632 200.038C113.342 203.18 113.613 207.038 113.893 210.646C114.176 214.253 114.321 217.878 114.183 221.499C114.101 223.793 113.893 226.087 113.531 228.344V228.349C113.531 228.353 113.527 228.362 113.527 228.376C113.519 228.417 113.507 228.504 113.483 228.622C113.479 228.65 113.472 228.682 113.467 228.713C113.094 230.574 111.981 238.888 104.825 240C104.09 240.114 103.449 240.525 102.989 241.122C102.529 241.72 102.254 242.504 102.254 243.361H128.551C128.551 242.504 128.275 241.72 127.816 241.122C127.355 240.525 126.715 240.114 125.98 240C118.824 238.888 117.711 230.574 117.337 228.713C117.333 228.682 117.326 228.65 117.321 228.622C117.298 228.504 117.286 228.417 117.278 228.376C117.278 228.362 117.274 228.353 117.274 228.349V228.344C116.912 226.087 116.704 223.793 116.621 221.499C116.484 217.878 116.629 214.253 116.912 210.646C117.191 207.038 117.462 203.18 119.172 200.038Z" fill="#D3E3F4"/>
<path d="M102.187 164.085C102.201 164.34 102.214 164.591 102.233 164.846L102.251 165.102C102.693 171.874 103.154 178.878 104.887 185.135C105.571 187.611 106.56 189.746 107.824 191.479C108.462 192.354 109.187 193.18 109.958 194.051C111.248 195.514 112.589 197.028 113.633 198.948C113.643 198.967 113.652 198.98 113.661 198.999C113.828 199.316 114.079 199.581 114.386 199.766C114.694 199.951 115.046 200.048 115.404 200.048C115.763 200.047 116.115 199.949 116.421 199.763C116.728 199.577 116.978 199.311 117.145 198.994C117.154 198.98 117.163 198.962 117.172 198.948C118.217 197.028 119.553 195.514 120.848 194.046C121.614 193.18 122.339 192.354 122.978 191.483C124.245 189.746 125.23 187.611 125.914 185.131C127.652 178.874 128.112 171.865 128.555 165.088L128.569 164.846C128.587 164.591 128.6 164.34 128.614 164.085H102.187Z" fill="#55AAFF"/>
<path d="M127.04 150.488C126.965 149.617 125.597 149.609 125.672 150.488C126.484 159.91 126.114 169.352 124.53 178.678C124.384 179.539 125.702 179.909 125.849 179.042C127.453 169.596 127.864 160.033 127.04 150.488Z" fill="white"/>
<path d="M115.401 181.885C116.049 181.885 116.575 181.359 116.575 180.71C116.575 180.062 116.049 179.536 115.401 179.536C114.752 179.536 114.226 180.062 114.226 180.71C114.226 181.359 114.752 181.885 115.401 181.885Z" fill="#55AAFF"/>
<path d="M118.625 187.08C118.625 187.392 118.501 187.69 118.281 187.911C118.061 188.131 117.762 188.254 117.45 188.254C117.139 188.254 116.84 188.131 116.62 187.911C116.4 187.69 116.276 187.392 116.276 187.08C116.276 186.769 116.4 186.47 116.62 186.25C116.84 186.03 117.139 185.906 117.45 185.906C117.762 185.906 118.061 186.03 118.281 186.25C118.501 186.47 118.625 186.769 118.625 187.08Z" fill="#55AAFF"/>
<path d="M115.735 193.791C116.683 193.791 117.451 193.023 117.451 192.075C117.451 191.127 116.683 190.359 115.735 190.359C114.787 190.359 114.019 191.127 114.019 192.075C114.019 193.023 114.787 193.791 115.735 193.791Z" fill="#55AAFF"/>
<path d="M111.868 187.798C112.97 187.798 113.863 186.905 113.863 185.803C113.863 184.701 112.97 183.808 111.868 183.808C110.766 183.808 109.873 184.701 109.873 185.803C109.873 186.905 110.766 187.798 111.868 187.798Z" fill="#55AAFF"/>
<path d="M185.235 142.102C185.235 142.102 183.764 146.39 178.114 145.037L178.126 142.85L178.134 140.937L178.142 139.289L178.155 136.861L178.171 134.048C178.175 133.696 178.625 133.557 178.825 133.848L179.737 135.025L181.164 136.861L182.129 138.099L183.29 139.595L185.235 142.102Z" fill="#4869E5"/>
<path d="M189.524 249.242C200.392 249.242 209.203 248.47 209.203 247.517C209.203 246.564 200.392 245.791 189.524 245.791C178.656 245.791 169.845 246.564 169.845 247.517C169.845 248.47 178.656 249.242 189.524 249.242Z" fill="#BECCDB"/>
<path d="M192.519 239.934C192.693 242.476 192.409 245.029 191.679 247.47C195.243 248.112 198.905 248.222 202.526 248.195C202.864 248.192 203.215 248.187 203.517 248.035C203.819 247.884 204.053 247.54 203.964 247.214C203.878 246.899 203.546 246.727 203.241 246.61C202.189 246.203 201.068 245.988 200.036 245.532C197.754 244.526 196.051 242.301 195.676 239.834C194.735 240.176 193.51 240.071 192.519 239.934ZM176.102 240.466C175.159 242.616 174.586 244.91 174.407 247.25C174.365 247.809 174.353 248.405 174.634 248.89C175.079 249.658 176.078 249.876 176.964 249.928C178.175 249.998 179.39 249.899 180.574 249.635C181.047 249.53 181.582 249.337 181.735 248.878C181.923 248.315 181.424 247.783 181.022 247.347C179.419 245.608 178.79 243.025 179.414 240.743C178.231 240.739 177.223 240.838 176.102 240.466Z" fill="#021B79"/>
<path d="M198.302 170.078L198.298 170.082L198.138 175.597C197.839 175.727 197.516 175.794 197.19 175.794C196.634 175.793 196.096 175.601 195.665 175.25L195.505 175.123C194.415 174.307 193.374 173.425 192.39 172.483C191.437 171.575 190.591 170.622 189.839 169.682C189.523 169.288 189.219 168.885 188.927 168.472C190.453 167.078 191.718 165.423 192.664 163.586C192.681 163.611 192.701 163.64 192.721 163.664C193.285 164.396 193.862 165.193 194.508 166.011C195.15 166.828 195.825 167.695 196.56 168.566C197.024 169.115 197.496 169.657 197.975 170.193C198.085 170.156 198.195 170.115 198.302 170.078Z" fill="#7C96FA"/>
<path d="M174.404 241.501C174.705 241.633 175.027 241.746 175.367 241.839C175.495 241.874 175.626 241.907 175.761 241.936C176.335 242.062 176.952 242.13 177.595 242.13C178.621 242.13 179.584 241.955 180.411 241.652L180.924 235.843L183.788 197.827L190.388 236.577L191.496 242.297C194.955 243.502 197.276 241.431 197.744 240.962C197.602 239.735 197.402 237.986 197.16 235.865C195.721 223.279 192.777 197.522 191.785 188.721C191.479 186.002 191.288 184.312 191.286 184.267C188.396 183.572 187.75 183.193 184.487 183.193C180.31 183.193 178.037 183.813 174.512 184.919C174.514 184.946 174.566 187.949 174.644 192.415C174.809 202.031 174.597 224.372 174.471 235.754C174.443 238.314 174.417 240.319 174.404 241.501Z" fill="#4E556D"/>
<path d="M176.269 195.816C176.231 198.837 176.19 201.859 176.149 204.882C176.039 213.19 175.931 229.328 175.818 237.636L175.76 241.936C175.628 241.907 175.497 241.875 175.366 241.839C175.43 237.107 175.491 232.372 175.557 227.64C175.661 219.712 175.766 203.958 175.873 196.03L175.879 195.532C175.883 195.319 175.885 195.103 175.888 194.89L175.964 189.222C175.968 188.968 176.363 188.966 176.359 189.222L176.278 195.29C177.615 194.387 178.386 192.853 178.297 191.135C178.283 190.852 178.723 190.852 178.739 191.135C178.841 193.107 177.878 194.859 176.269 195.816Z" fill="#3D4359"/>
<path d="M185.949 156.311C185.949 156.311 183.876 154.9 180.267 155.605V157.427L185.071 157.995L186.125 157.367L185.949 156.311Z" fill="#717D89"/>
<path d="M173.208 167.764C173.428 169.403 173.621 171.607 173.785 173.998C174.028 177.609 174.321 185.133 174.422 188.294C174.424 188.375 174.427 188.457 174.428 188.537C174.435 188.681 174.438 188.825 174.443 188.966C174.466 189.683 174.482 190.342 174.496 190.93C178.775 191.546 183.103 191.75 187.421 191.54C187.704 191.527 187.983 191.511 188.267 191.495C189.137 191.438 190.007 191.37 190.876 191.281C190.885 191.281 190.895 191.281 190.906 191.279C191.428 191.226 191.95 191.169 192.47 191.104C192.141 189.54 191.768 185.479 191.496 183.228C191.456 182.895 191.411 182.563 191.361 182.232C191.216 181.328 191.083 180.423 190.963 179.516C190.746 177.902 190.563 176.283 190.415 174.662C190.276 173.171 190.166 171.677 190.084 170.182C194.293 169.234 193.978 165.34 193.978 165.34L190.901 160.607V160.605C190.415 159.847 189.73 159.238 188.919 158.845C188.304 158.547 187.574 158.196 187.116 157.988C186.842 157.863 186.566 157.736 186.289 157.612C185.04 157.041 183.784 156.474 182.664 155.904C181.693 156.293 180.729 156.68 179.761 157.071C179.744 157.076 179.727 157.082 179.711 157.09C179.17 157.306 178.627 157.521 178.089 157.74C176.666 158.309 175.186 158.922 174.206 160.098C172.504 162.138 172.848 165.129 173.208 167.764Z" fill="#A2A9B1"/>
<path d="M190.328 171.336C190.303 169.895 190.165 168.458 189.917 167.038C189.875 166.798 189.509 166.9 189.551 167.139C189.793 168.529 189.924 169.925 189.949 171.336C189.953 171.58 190.332 171.58 190.328 171.336Z" fill="#717D89"/>
<path d="M185.998 195.214C185.469 196.142 184.773 196.964 183.946 197.639C183.963 196.95 183.972 196.26 183.964 195.569C183.959 195.219 183.416 195.219 183.42 195.569C183.448 197.867 183.336 200.153 183.085 202.437C183.047 202.784 183.59 202.78 183.628 202.437C183.778 201.076 183.872 199.714 183.923 198.349C184.962 197.572 185.823 196.619 186.467 195.488C186.64 195.184 186.171 194.911 185.998 195.214Z" fill="#3D4359"/>
<path d="M177.57 171C177.57 171 182.517 178.993 191.496 183.238V183.228C191.456 182.895 191.412 182.563 191.362 182.232C191.217 181.328 191.084 180.423 190.963 179.515C190.746 177.901 190.564 176.283 190.416 174.661C187.642 173.4 180.304 170.26 177.57 171Z" fill="#717D89"/>
<path d="M179.38 143.439C176.394 143.684 177.698 148.631 179.128 151.514C179.837 152.943 182.409 153.631 183.638 153.458C182.26 151.632 180.332 149.872 180.041 147.357C179.497 147.505 179.917 143.703 179.38 143.439Z" fill="#32448A"/>
<path d="M180.524 152.795C180.675 153.953 180.71 155.26 180.585 156.437C182.622 158.475 184.91 157.947 184.91 157.947C185.324 157.985 185.603 157.914 185.727 157.647C185.636 157.301 185.51 156.825 185.486 156.517C185.438 155.917 185.406 155.315 185.391 154.713C185.371 154.055 185.374 153.396 185.398 152.739C184.668 152.47 183.932 152.24 183.195 152.008C182.872 151.909 182.549 151.81 182.227 151.708C181.534 151.498 180.847 151.268 180.168 151.018C180.271 151.369 180.361 151.763 180.433 152.186C180.468 152.383 180.497 152.586 180.524 152.795Z" fill="#9DCEFF"/>
<path d="M185.487 156.517C181.855 155.622 180.784 152.363 180.784 152.363L183.196 152.007C183.932 152.239 184.668 152.47 185.399 152.738C185.355 153.752 185.378 155.205 185.487 156.517Z" fill="#7C96FA"/>
<path d="M186.692 142.665C187.33 143.187 188.042 144.34 187.548 145.92C187.322 146.642 186.874 147.297 186.265 147.747C186.294 146.497 186.282 145.248 186.312 143.998C186.713 143.962 186.33 142.842 186.692 142.665Z" fill="#32448A"/>
<path d="M186.568 154.18C185.507 155.09 183.487 154.858 182.332 154.208C181.443 153.706 180.884 153.073 180.46 152.237C180.443 152.207 180.427 152.175 180.412 152.144C180.219 151.729 180.104 151.022 180.088 150.93V150.927C180.088 150.846 180.091 150.774 180.095 150.727C180.133 150.292 180.124 149.849 180.125 149.411C180.127 148.684 180.16 147.929 180.475 147.258C180.862 146.43 180.176 144.821 181.014 144.437C182.658 143.893 186.055 144.569 186.676 144.468C186.701 144.464 186.726 144.465 186.751 144.471C186.776 144.477 186.799 144.489 186.819 144.505C186.838 144.521 186.854 144.541 186.866 144.564C186.877 144.587 186.883 144.612 186.884 144.637L186.952 146.336L186.95 146.339C186.948 146.584 186.956 146.831 186.98 147.071C187.094 148.317 187.468 149.517 187.537 150.768C187.604 152.018 187.546 153.333 186.568 154.18Z" fill="#9DCEFF"/>
<path d="M184.83 150.064C184.812 150.091 184.885 150.145 185.006 150.161C185.131 150.182 185.312 150.165 185.503 150.056C185.61 149.994 185.7 149.907 185.767 149.803C185.851 149.68 185.877 149.558 185.87 149.494C185.867 149.457 185.857 149.44 185.836 149.439C185.827 149.437 185.819 149.439 185.809 149.444C185.773 149.468 185.717 149.544 185.638 149.628C185.577 149.691 185.506 149.758 185.417 149.815C185.408 149.823 185.398 149.828 185.387 149.835C185.25 149.924 185.107 149.962 184.999 149.99C184.903 150.015 184.838 150.03 184.83 150.064Z" fill="#647DDD"/>
<path d="M184.047 150.952C184.964 151.149 186.082 151.089 186.525 150.956C186.677 150.91 186.825 151.024 186.803 151.159C186.384 153.697 184.155 152.31 183.835 151.218C183.789 151.06 183.868 150.914 184.047 150.952Z" fill="white"/>
<path d="M187.756 142.773C187.588 143.684 187.185 144.55 186.492 145.112C185.725 145.736 184.749 145.901 183.823 145.869C182.823 145.837 180.614 144.964 180.034 146.278C180.015 146.328 179.977 146.369 179.929 146.392C179.881 146.415 179.825 146.419 179.774 146.403C179.681 146.481 179.539 146.486 179.479 146.337C179.091 145.381 178.975 144.261 179.426 143.292C179.839 142.405 180.645 141.873 181.472 141.551C182.639 141.096 183.868 141.005 184.998 140.417C185.427 140.194 185.692 140.459 185.63 140.82C185.939 140.761 186.204 140.61 186.459 140.36C186.55 140.27 186.722 140.289 186.772 140.422C186.824 140.563 186.848 140.677 186.849 140.787C186.992 140.559 187.184 140.203 187.185 140.203C187.254 140.042 187.405 140.009 187.525 140.124C188.089 140.662 187.882 142.08 187.756 142.773Z" fill="#32448A"/>
<path d="M180.124 148.794C181.115 147.788 181.513 146.236 181.128 144.877C180.444 145.104 179.73 145.267 179.021 145.394C179.127 146.566 179.512 147.788 180.124 148.794Z" fill="#32448A"/>
<path d="M180.244 148.813C180.231 148.575 179.89 148.177 179.648 148.069C179.409 147.963 179.123 148.081 178.93 148.239C178.435 148.646 178.546 149.463 178.816 150.023C179.086 150.584 179.769 150.969 180.449 150.945C180.421 150.25 180.281 149.508 180.244 148.813Z" fill="#9DCEFF"/>
<path d="M185.071 157.995L186.557 160.02C186.557 160.02 187.414 159.391 187.117 157.986L185.949 156.311C185.949 156.311 186.126 157.96 185.071 157.995ZM180.267 155.605C180.267 155.605 181.813 157.658 185.071 157.995L183.956 160.291C183.956 160.291 181.196 159.831 179.365 157.226L180.267 155.605Z" fill="white"/>
<path d="M177.891 170.972C178.221 171.458 178.572 171.93 178.941 172.387C179.73 173.375 180.583 174.311 181.494 175.187C182.477 176.131 183.518 177.013 184.609 177.829L184.611 177.83L185.371 178.453C185.517 178.572 185.692 178.649 185.878 178.678C186.064 178.707 186.254 178.687 186.429 178.618L187.162 178.331C187.463 178.215 187.77 178.095 188.077 177.974C188.231 177.914 188.383 177.854 188.538 177.794C188.688 177.729 188.839 177.662 188.993 177.594C190.378 177.006 191.684 176.326 192.91 175.618C193.213 175.437 193.513 175.259 193.812 175.081C194.101 174.895 194.389 174.708 194.678 174.521C194.819 174.43 194.963 174.335 195.102 174.243C195.24 174.148 195.376 174.049 195.508 173.954L196.312 173.383C196.568 173.183 196.822 172.991 197.071 172.797C197.196 172.699 197.319 172.604 197.443 172.508C197.561 172.408 197.681 172.31 197.799 172.211C198.031 172.013 198.263 171.819 198.49 171.628C198.713 171.432 198.926 171.233 199.138 171.039C199.346 170.841 199.559 170.658 199.755 170.462L199.891 170.324C200.897 170.121 202.206 169.377 202.959 168.658C203.337 168.297 203.663 167.884 203.926 167.432C203.937 167.414 203.946 167.396 203.957 167.378C203.992 167.32 204.022 167.26 204.053 167.2C204.22 166.79 203.799 166.766 203.799 166.766L204.024 166.478C204.454 165.706 203.81 165.902 203.81 165.902C204.468 165.086 203.479 165.278 203.479 165.278C204.078 164.721 204.018 164.404 203.737 164.327C203.534 164.271 203.316 164.293 203.116 164.365L201.792 164.979L199.158 165.944L199.406 164.552C199.313 164.542 199.218 164.547 199.127 164.569C198.149 164.797 197.846 166.8 197.768 167.517C197.764 167.544 197.762 167.571 197.759 167.597L197.753 167.662L197.746 167.749C197.744 167.762 197.744 167.769 197.744 167.769C197.717 167.785 197.69 167.804 197.662 167.82C197.452 167.958 197.223 168.087 197 168.226C196.775 168.36 196.552 168.504 196.314 168.64C196.082 168.774 195.841 168.91 195.599 169.048C195.478 169.117 195.356 169.188 195.233 169.259C195.109 169.324 194.984 169.393 194.857 169.46C194.605 169.596 194.351 169.733 194.093 169.872C193.83 170.004 193.565 170.137 193.296 170.273C193.164 170.34 193.03 170.409 192.895 170.478C192.758 170.544 192.62 170.609 192.48 170.673C192.206 170.803 191.926 170.938 191.645 171.07C191.359 171.195 191.072 171.322 190.784 171.449C189.617 171.948 188.403 172.443 187.14 172.875C187.117 172.883 187.098 172.888 187.077 172.897C186.598 172.361 186.127 171.819 185.664 171.27C184.924 170.399 184.254 169.532 183.612 168.711C183.528 168.606 183.445 168.497 183.363 168.394C183.138 168.104 182.916 167.812 182.695 167.519C181.302 168.935 179.677 170.103 177.891 170.972Z" fill="#9CCDFF"/>
<path d="M187.98 172.309C187.175 172.514 186.416 172.87 185.743 173.357C185.547 173.499 185.736 173.827 185.935 173.684C186.579 173.215 187.308 172.872 188.081 172.675C188.317 172.614 188.217 172.248 187.98 172.309Z" fill="#7C96FA"/>
<path d="M179.443 162.205C180.114 163.377 180.882 164.483 181.662 165.585C182.033 166.108 182.399 166.634 182.76 167.164C183.028 167.559 183.397 167.945 183.562 168.397C183.637 168.601 183.325 168.727 183.251 168.524C183.069 168.028 182.626 167.561 182.331 167.127C181.968 166.593 181.592 166.069 181.219 165.542C180.498 164.522 179.795 163.492 179.174 162.407C179.068 162.221 179.336 162.018 179.443 162.205Z" fill="#717D89"/>
<path d="M182.123 166.566C182.23 165.992 182.16 165.408 181.94 164.868C181.859 164.668 182.178 164.561 182.259 164.761C182.501 165.353 182.568 166.002 182.452 166.631C182.413 166.844 182.083 166.779 182.123 166.566ZM175.086 166.874C175.546 167.627 175.956 168.411 176.443 169.147C176.874 169.797 177.348 170.752 178.03 171.17C178.058 171.187 178.081 171.211 178.096 171.24C178.111 171.269 178.118 171.302 178.115 171.334C178.111 171.367 178.099 171.398 178.079 171.423C178.059 171.449 178.031 171.468 178.001 171.479L177.94 171.502C177.826 171.546 177.748 171.463 177.734 171.369C177.207 170.98 176.844 170.333 176.486 169.807C175.877 168.915 175.363 167.973 174.801 167.053C174.688 166.869 174.972 166.69 175.086 166.874Z" fill="#717D89"/>
<path d="M181.164 136.861C181.033 136.914 180.885 136.942 180.734 136.942C180.412 136.941 180.102 136.813 179.874 136.584C179.645 136.356 179.517 136.047 179.516 135.724C179.516 135.466 179.598 135.225 179.737 135.025L181.164 136.861ZM179.434 138.075C179.433 138.398 179.305 138.707 179.076 138.936C178.848 139.164 178.539 139.293 178.216 139.293C178.191 139.293 178.167 139.293 178.142 139.289L178.155 136.861C178.175 136.857 178.196 136.857 178.216 136.857C178.539 136.857 178.849 136.985 179.077 137.214C179.306 137.442 179.434 137.752 179.434 138.075ZM179.287 141.893C179.287 142.433 178.854 142.87 178.314 142.87C178.249 142.87 178.187 142.862 178.126 142.85L178.134 140.936C178.191 140.924 178.253 140.92 178.314 140.92C178.442 140.919 178.568 140.944 178.687 140.993C178.805 141.042 178.912 141.114 179.003 141.204C179.093 141.295 179.165 141.402 179.214 141.52C179.262 141.639 179.287 141.765 179.287 141.893ZM183.289 139.596C183.265 139.955 183.104 140.292 182.841 140.538C182.578 140.784 182.231 140.921 181.87 140.921C181.493 140.92 181.131 140.77 180.865 140.504C180.598 140.237 180.448 139.875 180.448 139.498C180.448 139.12 180.598 138.759 180.865 138.492C181.131 138.225 181.493 138.075 181.87 138.075C181.96 138.075 182.046 138.083 182.128 138.1L183.289 139.596Z" fill="#76B5F4"/>
<path d="M422.813 257.073C422.813 258.689 408.555 260 390.966 260C373.378 260 359.12 258.689 359.12 257.073C359.12 255.456 373.378 254.145 390.966 254.145C408.555 254.145 422.813 255.456 422.813 257.073Z" fill="#BECCDB"/>
<path d="M9.4067 253.325C9.4067 254.942 23.665 256.252 41.2532 256.252C58.8414 256.252 73.0997 254.942 73.0997 253.325C73.0997 251.708 58.8414 250.398 41.2532 250.398C23.665 250.398 9.4067 251.708 9.4067 253.325Z" fill="#BECCDB"/>
<path d="M392.027 131.53C392.027 131.53 392.457 136.044 398.267 136.047L398.765 133.917L399.204 132.054L399.58 130.451L400.135 128.087L400.775 125.348C400.853 125.005 400.448 124.765 400.186 125L399.025 125.932L397.209 127.384L395.982 128.364L394.504 129.548L392.027 131.53Z" fill="#3A62F8"/>
<path d="M40.1929 127.783C40.1929 127.783 39.7624 132.297 33.9526 132.299L33.4541 130.169L33.0159 128.307L32.6392 126.703L32.0847 124.339L31.4444 121.6C31.3664 121.257 31.7714 121.017 32.0336 121.253L33.1947 122.185L35.0106 123.637L36.2378 124.616L37.7158 125.8L40.1929 127.783Z" fill="#3A62F8"/>
<path d="M397.209 127.384C397.324 127.466 397.46 127.529 397.607 127.564C397.922 127.638 398.253 127.586 398.528 127.417C398.803 127.248 399 126.977 399.076 126.663C399.134 126.42 399.116 126.165 399.025 125.932L397.209 127.384ZM398.607 128.968C398.533 129.283 398.585 129.613 398.754 129.889C398.923 130.164 399.194 130.361 399.507 130.437C399.531 130.444 399.555 130.448 399.58 130.451L400.134 128.087C400.115 128.078 400.096 128.072 400.075 128.068C399.92 128.031 399.759 128.025 399.601 128.05C399.443 128.075 399.291 128.131 399.155 128.214C399.018 128.298 398.9 128.407 398.806 128.537C398.712 128.666 398.644 128.813 398.607 128.968ZM397.859 132.716C397.829 132.84 397.823 132.969 397.843 133.096C397.863 133.223 397.907 133.344 397.974 133.453C398.041 133.563 398.128 133.658 398.232 133.733C398.335 133.809 398.453 133.863 398.577 133.893C398.641 133.908 398.702 133.914 398.765 133.917L399.203 132.054C399.148 132.029 399.091 132.01 399.032 131.997C398.908 131.966 398.779 131.961 398.653 131.981C398.526 132.001 398.405 132.045 398.296 132.112C398.187 132.179 398.092 132.267 398.017 132.37C397.942 132.474 397.889 132.591 397.859 132.716ZM394.503 129.548C394.443 129.903 394.52 130.268 394.719 130.568C394.918 130.869 395.223 131.083 395.574 131.167C395.94 131.254 396.327 131.193 396.649 130.996C396.971 130.799 397.201 130.482 397.289 130.115C397.377 129.748 397.316 129.361 397.118 129.04C396.921 128.718 396.604 128.488 396.238 128.399C396.153 128.379 396.068 128.367 395.981 128.363L394.503 129.548Z" fill="#7DBEFF"/>
<path d="M35.0106 123.637C34.8957 123.719 34.7593 123.781 34.612 123.816C34.2979 123.891 33.9669 123.838 33.6917 123.669C33.4164 123.5 33.2192 123.229 33.1431 122.916C33.0851 122.672 33.1031 122.417 33.1947 122.184L35.0106 123.637ZM33.6124 125.221C33.687 125.535 33.6341 125.866 33.4654 126.141C33.2968 126.416 33.0259 126.614 32.7122 126.69C32.6885 126.696 32.6642 126.701 32.6397 126.703L32.0852 124.339C32.1041 124.331 32.1238 124.325 32.144 124.321C32.2995 124.283 32.4609 124.277 32.6188 124.302C32.7768 124.327 32.9283 124.383 33.0647 124.467C33.2011 124.55 33.3196 124.66 33.4136 124.789C33.5076 124.919 33.5751 125.065 33.6124 125.221ZM34.3603 128.968C34.3907 129.093 34.3962 129.222 34.3765 129.348C34.3568 129.475 34.3123 129.596 34.2456 129.706C34.1788 129.815 34.0912 129.91 33.9876 129.986C33.884 130.061 33.7666 130.115 33.642 130.145C33.5786 130.16 33.5171 130.167 33.4546 130.169L33.0164 128.307C33.0713 128.282 33.1286 128.262 33.1874 128.249C33.3116 128.219 33.4406 128.213 33.5669 128.233C33.6932 128.253 33.8144 128.298 33.9234 128.365C34.0324 128.431 34.1271 128.519 34.2021 128.623C34.2771 128.726 34.3309 128.844 34.3603 128.968ZM37.7162 125.8C37.7762 126.155 37.6991 126.52 37.5004 126.821C37.3017 127.121 36.9963 127.335 36.6459 127.419C36.279 127.507 35.8922 127.445 35.5705 127.248C35.2489 127.051 35.0186 126.734 34.9303 126.367C34.8425 126 34.904 125.614 35.1011 125.292C35.2983 124.97 35.6151 124.74 35.982 124.652C36.066 124.631 36.1519 124.619 36.2383 124.616L37.7162 125.8Z" fill="#7DBEFF"/>
<path d="M382.79 257.482C378.289 258.757 373.771 259.097 369.151 258.512C369.05 258.499 368.953 258.465 368.866 258.412C368.779 258.358 368.704 258.287 368.647 258.203C368.589 258.119 368.55 258.024 368.532 257.923C368.514 257.823 368.517 257.72 368.542 257.621C368.595 256.82 371.101 255.601 373.125 254.747C373.962 254.391 374.808 254.058 375.664 253.749L375.668 253.745C376.935 252.846 377.708 251.439 378.047 249.996C378.399 248.479 378.313 246.909 378.145 245.372C379.021 245.532 379.973 245.393 380.75 244.984C381.776 247.641 382.459 250.748 382.704 253.749C382.708 253.778 382.708 253.811 382.712 253.839C382.814 255.082 382.843 256.312 382.79 257.482ZM414.629 244.534C414.67 245.262 414.519 245.986 414.368 246.701C414.139 247.788 413.906 248.888 413.492 249.926C413.079 250.961 412.479 251.946 411.616 252.649C410.745 253.365 409.654 253.761 408.545 253.953C407.438 254.15 406.309 254.154 405.185 254.162C404.572 254.162 403.803 254.056 403.623 253.471C403.451 252.903 403.991 252.392 404.469 252.04C405.463 251.304 406.469 250.515 407.188 249.53C407.453 249.173 407.675 248.786 407.85 248.377C408.435 246.975 408.349 245.36 407.907 243.904C407.47 242.445 406.33 241.488 405.569 240.168C406.472 239.914 408.337 238.25 408.594 237.351C409.408 238.986 410.111 241.046 411.824 241.68C412.155 241.799 412.498 241.901 412.826 242.028C413.177 242.163 413.513 242.326 413.791 242.575C414.335 243.062 414.592 243.806 414.629 244.534Z" fill="#9DCEFF"/>
<path d="M49.4298 253.734C53.9309 255.01 58.4488 255.349 63.0684 254.764C63.1695 254.751 63.2668 254.717 63.3537 254.664C63.4407 254.611 63.5154 254.54 63.573 254.456C63.6305 254.371 63.6696 254.276 63.6876 254.176C63.7057 254.075 63.7023 253.972 63.6776 253.873C63.6243 253.072 61.1184 251.854 59.0945 250.999C58.2577 250.643 57.4111 250.31 56.5558 250.002L56.5517 249.997C55.2844 249.098 54.5119 247.692 54.1721 246.248C53.8205 244.732 53.9063 243.162 54.0741 241.625C53.199 241.784 52.2468 241.645 51.4697 241.236C50.4436 243.893 49.7609 247.001 49.5156 250.002C49.5115 250.03 49.5115 250.063 49.5074 250.091C49.4052 251.334 49.3769 252.565 49.4298 253.734ZM17.5902 240.787C17.5491 241.514 17.7005 242.238 17.8519 242.953C18.0808 244.041 18.3139 245.14 18.7271 246.179C19.1402 247.213 19.7408 248.198 20.6036 248.902C21.4747 249.617 22.5659 250.013 23.6741 250.206C24.7818 250.402 25.9105 250.406 27.0346 250.414C27.648 250.414 28.4164 250.308 28.5965 249.723C28.7684 249.155 28.2285 248.644 27.7501 248.292C26.7564 247.556 25.7509 246.767 25.0312 245.782C24.7665 245.425 24.5443 245.038 24.3691 244.63C23.7844 243.227 23.8702 241.612 24.3121 240.157C24.7494 238.697 25.89 237.741 26.6506 236.42C25.7472 236.167 23.8829 234.503 23.6253 233.603C22.8117 235.238 22.1085 237.299 20.3957 237.933C20.0646 238.051 19.7212 238.153 19.3938 238.28C19.0422 238.415 18.707 238.578 18.4288 238.828C17.8848 239.314 17.6271 240.059 17.5902 240.787Z" fill="#9DCEFF"/>
<path d="M410.744 239.327C409.756 240.342 407.768 242.22 406.62 243.11C399.026 235.938 387.369 213.965 385.091 208.423C384.508 207.009 383.897 205.283 383.287 203.433C380.876 196.132 379.938 194.554 379.938 194.554C379.452 196.841 379.972 197.66 379.504 204.827C379.38 206.747 379.447 210.87 379.359 212.496C379.456 222.33 381.532 243.056 382.873 250.678C382.616 250.719 382.386 250.756 382.336 250.756C380.912 250.756 378.589 250.687 377.207 250.554C377.152 250.416 377.097 250.278 377.042 250.136C376.849 249.645 376.652 249.126 376.445 248.584C376.418 248.511 376.39 248.437 376.362 248.359C371.33 234.645 368.565 213.681 368.565 213.681V213.658C367.862 185.434 375.697 169.253 376.22 168.238C376.234 168.206 376.243 168.188 376.243 168.188L381.808 168.064L384.434 168.008L386.101 167.962C395.463 176.158 394.373 199.685 394.231 206.757C394.231 206.918 394.226 207.069 394.222 207.207C394.217 207.34 394.217 207.459 394.212 207.565C394.203 207.973 394.194 208.189 394.194 208.189C398.428 212.807 407.116 232.715 410.744 239.327Z" fill="#3C53AA"/>
<path d="M21.476 235.58C22.4633 236.594 24.4512 238.472 25.5994 239.363C33.1937 232.191 44.8508 210.217 47.1283 204.676C47.7115 203.262 48.3221 201.535 48.9328 199.685C51.3433 192.384 52.2814 190.807 52.2814 190.807C52.768 193.093 52.2472 193.912 52.7156 201.08C52.8396 202.999 52.773 207.123 52.8601 208.748C52.7639 218.583 50.6876 239.308 49.3468 246.93C49.604 246.972 49.8334 247.008 49.884 247.008C51.3073 247.008 53.6308 246.939 55.0126 246.806C55.0678 246.669 55.1229 246.531 55.1777 246.389C55.3706 245.897 55.568 245.378 55.7746 244.837C55.802 244.763 55.8298 244.69 55.8571 244.612C60.8895 230.897 63.6544 209.933 63.6544 209.933V209.911C64.3571 181.687 56.523 165.505 55.9994 164.491C55.9858 164.458 55.9766 164.44 55.9766 164.44L50.4117 164.316L47.7854 164.261L46.1186 164.215C36.7567 172.411 37.8466 195.938 37.9889 203.009C37.9889 203.17 37.9935 203.321 37.998 203.459C38.0026 203.592 38.0026 203.712 38.0072 203.817C38.0163 204.226 38.0254 204.441 38.0254 204.441C33.7921 209.06 25.1033 228.968 21.476 235.58Z" fill="#3C53AA"/>
<path d="M383.919 142.307C384.294 144.349 385.301 146.182 386.2 148.029C387.135 149.948 388.01 151.918 388.533 153.994C388.691 154.623 388.809 155.256 388.889 155.893C388.844 157.012 388.762 158.132 388.691 159.236C388.437 163.202 388.439 167.48 390.69 170.756C392.765 173.774 396.444 175.371 400.084 175.778C403.656 176.178 407.384 175.541 410.478 173.71C413.571 171.879 415.974 168.812 416.728 165.297C417.481 161.783 416.475 157.874 413.913 155.352C411.758 153.23 408.751 152.205 406.396 150.306C403.994 148.368 402.319 138.791 399.799 134.851C397.306 130.955 393.084 127.032 391.023 132.581C389.589 132.928 388.385 133.699 387.083 134.392C385.468 135.253 384.43 136.435 384.064 137.89C383.621 139.301 383.666 140.933 383.919 142.307Z" fill="#465AA5"/>
<path d="M48.3007 138.56C47.9254 140.602 46.9185 142.435 46.0192 144.282C45.0848 146.201 44.2092 148.17 43.6866 150.247C43.5283 150.875 43.4107 151.509 43.3308 152.145C43.376 153.265 43.4576 154.385 43.5283 155.489C43.7828 159.454 43.78 163.733 41.5291 167.008C39.4546 170.026 35.7753 171.623 32.1357 172.031C28.5632 172.43 24.8356 171.793 21.7419 169.963C18.6481 168.132 16.2458 165.064 15.492 161.55C14.7381 158.035 15.7446 154.126 18.3066 151.604C20.4618 149.482 23.4689 148.458 25.8234 146.558C28.2257 144.62 29.9003 135.044 32.4207 131.104C34.9134 127.208 39.1354 123.284 41.1966 128.834C42.6308 129.18 43.8343 129.951 45.1363 130.644C46.7516 131.505 47.7899 132.687 48.1557 134.142C48.5985 135.553 48.5533 137.186 48.3007 138.56Z" fill="#465AA5"/>
<path d="M386.717 147.081C387.479 147.836 388.471 148.317 389.536 148.448C390.595 148.577 391.567 148.275 392.473 147.721C392.49 146.964 392.543 146.208 392.636 145.458C392.657 145.284 392.678 145.111 392.703 144.94L392.706 144.924C392.736 144.725 392.769 144.526 392.803 144.328C392.958 143.44 393.097 142.989 393.357 142.126C393.372 142.075 393.386 142.021 393.404 141.971C393.478 141.725 393.559 141.482 393.645 141.238L393.645 141.236C393.93 140.416 394.262 139.615 394.641 138.835C393.115 139.115 391.588 139.468 390.276 140.295C390.205 140.549 390.128 140.801 390.046 141.051C389.966 141.302 389.881 141.55 389.791 141.796C389.761 141.876 389.733 141.959 389.701 142.034C389.594 142.322 389.479 142.607 389.357 142.889C389.349 142.912 389.338 142.934 389.329 142.957C389.236 143.17 389.143 143.383 389.043 143.593C388.969 143.751 388.895 143.906 388.817 144.059L388.806 144.081C388.201 145.286 387.552 146.006 386.717 147.081Z" fill="#9DCEFF"/>
<path d="M45.5025 143.333C44.7404 144.089 43.7489 144.57 42.6838 144.701C41.6244 144.83 40.6526 144.527 39.7465 143.973C39.7296 143.216 39.6767 142.46 39.5837 141.711C39.5627 141.537 39.5413 141.363 39.5162 141.193L39.5134 141.176C39.4833 140.977 39.451 140.778 39.4163 140.58C39.2617 139.693 39.1226 139.241 38.8627 138.378C38.8472 138.327 38.8335 138.274 38.8157 138.223C38.7418 137.978 38.6607 137.734 38.5749 137.49L38.5745 137.488C38.29 136.669 37.9575 135.867 37.5785 135.087C39.1048 135.367 40.6312 135.72 41.9436 136.548C42.0145 136.802 42.0913 137.054 42.1739 137.304C42.2533 137.554 42.3383 137.802 42.4289 138.049C42.459 138.129 42.4868 138.211 42.5187 138.287C42.6258 138.574 42.7404 138.859 42.8621 139.141C42.8708 139.164 42.8817 139.186 42.8903 139.21C42.9834 139.423 43.0764 139.636 43.1763 139.845C43.2506 140.003 43.3245 140.159 43.4029 140.311L43.4139 140.333C44.0181 141.538 44.6671 142.258 45.5025 143.333Z" fill="#9DCEFF"/>
<path d="M388.806 144.081C391.685 144.347 393.15 141.711 393.15 141.711L390.046 141.052C389.966 141.302 389.881 141.55 389.791 141.797C389.761 141.877 389.733 141.959 389.701 142.035C389.594 142.322 389.479 142.607 389.357 142.889C389.349 142.912 389.338 142.934 389.329 142.958C389.236 143.171 389.143 143.384 389.043 143.593C388.969 143.751 388.895 143.907 388.817 144.059C388.813 144.067 388.81 144.072 388.806 144.081Z" fill="#77B4F1"/>
<path d="M43.4134 140.333C40.534 140.599 39.0697 137.964 39.0697 137.964L42.1739 137.304C42.2533 137.554 42.3383 137.803 42.4289 138.049C42.4589 138.129 42.4867 138.212 42.5187 138.287C42.6258 138.575 42.7404 138.86 42.8621 139.142C42.8708 139.164 42.8817 139.187 42.8903 139.21C42.9834 139.423 43.0764 139.636 43.1763 139.846C43.2506 140.004 43.3245 140.159 43.4029 140.311C43.4066 140.32 43.4098 140.324 43.4134 140.333Z" fill="#77B4F1"/>
<path d="M387.275 140.855C387.762 141.975 389.514 142.547 390.733 142.462C391.952 142.376 392.805 141.908 393.717 141.093C393.769 141.044 393.823 140.995 393.875 140.943C393.92 140.806 393.969 140.669 394.027 140.534C394.179 140.173 394.372 139.825 394.554 139.478C394.859 138.899 395.147 138.288 395.171 137.636C395.201 136.835 394.825 136.077 394.3 135.459C392.949 134.195 391.111 133.002 391.111 133.002L390.252 134.482L390.251 134.485C390.151 134.681 390.04 134.874 389.92 135.056C389.304 136.002 388.494 136.815 387.913 137.784C387.334 138.751 386.83 139.818 387.275 140.855Z" fill="#9DCEFF"/>
<path d="M44.9443 137.107C44.4577 138.228 42.7052 138.8 41.4862 138.714C40.2677 138.629 39.4145 138.16 38.5024 137.345C38.4509 137.296 38.3962 137.247 38.3442 137.196C38.2999 137.058 38.2502 136.922 38.1928 136.786C38.0409 136.426 37.8476 136.078 37.6656 135.731C37.361 135.152 37.0728 134.54 37.0481 133.889C37.0185 133.087 37.3947 132.33 37.9196 131.711C39.2708 130.447 41.1086 129.254 41.1086 129.254L41.9678 130.734L41.9683 130.737C42.0686 130.934 42.1794 131.126 42.2993 131.309C42.9154 132.255 43.7258 133.068 44.3068 134.036C44.8855 135.004 45.3899 136.07 44.9443 137.107Z" fill="#9DCEFF"/>
<path d="M394.628 139.15C394.743 138.941 394.918 138.719 395.157 138.721C395.393 138.722 395.569 138.944 395.652 139.164C395.867 139.731 395.69 140.424 395.231 140.818C394.771 141.213 394.06 141.284 393.532 140.986C393.859 140.372 394.295 139.76 394.628 139.15Z" fill="#9DCEFF"/>
<path d="M37.5913 135.403C37.4763 135.193 37.3012 134.972 37.0623 134.973C36.8265 134.975 36.6509 135.197 36.5675 135.417C36.3527 135.984 36.5292 136.676 36.9889 137.071C37.4485 137.466 38.1595 137.536 38.6876 137.238C38.3606 136.624 37.9246 136.013 37.5913 135.403Z" fill="#9DCEFF"/>
<path d="M390.269 138.044C390.266 138.079 390.169 138.081 390.053 138.022C389.931 137.965 389.785 137.844 389.69 137.638C389.638 137.522 389.616 137.394 389.626 137.267C389.634 137.113 389.69 136.994 389.738 136.944C389.765 136.914 389.785 136.906 389.803 136.917C389.812 136.92 389.818 136.927 389.824 136.937C389.839 136.979 389.839 137.077 389.852 137.195C389.864 137.284 389.882 137.383 389.922 137.484C389.924 137.497 389.93 137.507 389.935 137.52C389.996 137.676 390.095 137.793 390.171 137.881C390.238 137.959 390.284 138.01 390.269 138.044Z" fill="#647DDD"/>
<path d="M41.9505 134.296C41.9532 134.331 42.0508 134.333 42.1666 134.274C42.2888 134.218 42.4343 134.097 42.5296 133.891C42.5812 133.774 42.6032 133.646 42.5939 133.519C42.5857 133.365 42.5296 133.246 42.4817 133.196C42.4544 133.166 42.4348 133.159 42.4165 133.169C42.4074 133.173 42.4015 133.18 42.396 133.19C42.38 133.232 42.381 133.33 42.3677 133.447C42.3554 133.537 42.3372 133.636 42.2975 133.736C42.2952 133.749 42.2898 133.759 42.2843 133.772C42.2232 133.928 42.1247 134.046 42.049 134.134C41.9819 134.212 41.9354 134.263 41.9505 134.296Z" fill="#647DDD"/>
<path d="M391.213 139.059C390.228 138.846 389.191 138.282 388.838 137.948C388.718 137.834 388.515 137.882 388.463 138.029C387.486 140.797 390.373 140.39 391.271 139.424C391.401 139.285 391.405 139.101 391.213 139.059Z" fill="white"/>
<path d="M41.007 135.311C41.9911 135.098 43.0285 134.534 43.381 134.2C43.5014 134.086 43.7048 134.134 43.7568 134.281C44.7332 137.049 41.8465 136.642 40.9486 135.677C40.8186 135.538 40.8145 135.353 41.007 135.311Z" fill="white"/>
<path d="M375.795 136.368C376.156 138.054 376.73 140.273 377.626 143.046L377.624 143.051C378.734 146.525 380.349 150.873 382.681 156.169L382.692 156.192L388.493 147.189L388.542 147.11C388.542 147.11 388.463 147.061 388.316 146.954L388.31 146.952C387.536 146.383 384.931 144.221 382.578 139.324L382.569 139.314C381.769 137.644 380.996 135.661 380.335 133.312L386.608 117.049L384.627 116.304C384.627 116.304 380.553 123.005 377.017 128.938C375.684 131.171 375.247 133.826 375.795 136.368Z" fill="#9DCEFF"/>
<path d="M56.4249 132.62C56.0637 134.306 55.4896 136.525 54.5935 139.298L54.5958 139.304C53.4853 142.777 51.87 147.125 49.5383 152.421L49.5279 152.445L43.7267 143.441L43.6779 143.363C43.6779 143.363 43.7563 143.314 43.9036 143.207L43.9091 143.204C44.6839 142.635 47.2888 140.474 49.6414 135.577L49.6505 135.567C50.4504 133.896 51.2234 131.913 51.8846 129.565L45.611 113.302L47.5925 112.557C47.5925 112.557 51.6667 119.257 55.2023 125.19C56.5352 127.423 56.9721 130.078 56.4249 132.62Z" fill="#9DCEFF"/>
<path d="M387.423 146.184C387.423 146.184 383.698 141.929 382.579 139.325C382.579 139.325 379.348 140.795 377.845 143.735L380.033 152.623L387.423 146.184Z" fill="#5676EF"/>
<path d="M44.7961 142.437C44.7961 142.437 48.5214 138.181 49.641 135.577C49.641 135.577 52.8715 137.047 54.3741 139.987L52.1861 148.876L44.7961 142.437Z" fill="#5676EF"/>
<path d="M398.255 152.962C396.54 154.203 394.704 155.719 392.975 157.512C390.197 160.404 387.681 164.04 386.37 168.448L386.362 168.44C381.897 170.162 376.27 168.284 376.27 168.284C376.589 163.529 377 160.488 377.872 157.555C378.361 155.946 378.283 153.962 378.8 152.551C379.566 150.453 381.756 149.348 382.719 148.377C384.144 146.967 385.398 146.449 386.036 146.273C386.171 146.23 386.313 146.201 386.454 146.173C386.462 146.173 386.47 146.171 386.476 146.166C386.49 146.173 386.504 146.166 386.518 146.166C386.943 146.159 387.361 146.18 387.794 146.236C389.367 146.442 390.778 146.265 392.322 146.605C392.358 146.612 392.386 146.626 392.414 146.626C392.464 146.641 392.521 146.655 392.563 146.676C392.811 146.74 393.045 146.832 393.272 146.946C393.739 147.167 394.166 147.467 394.533 147.832C395.519 148.781 396.908 150.702 398.255 152.962Z" fill="#5676EF"/>
<path d="M33.9649 149.215C35.68 150.455 37.5156 151.972 39.2448 153.765C42.023 156.656 44.5389 160.292 45.85 164.7L45.8573 164.693C50.3223 166.415 55.9493 164.537 55.9493 164.537C55.6305 159.781 55.2192 156.741 54.3477 153.807C53.8588 152.198 53.9368 150.214 53.4192 148.804C52.6535 146.706 50.4637 145.6 49.5001 144.63C48.0754 143.219 46.8213 142.702 46.1833 142.525C46.0488 142.482 45.907 142.454 45.7652 142.426C45.7574 142.426 45.7497 142.423 45.7437 142.418C45.7296 142.426 45.7155 142.418 45.7013 142.418C45.2763 142.411 44.8581 142.432 44.4258 142.489C42.8525 142.695 41.442 142.517 39.8974 142.857C39.8618 142.865 39.8336 142.879 39.8053 142.879C39.7556 142.893 39.699 142.907 39.6566 142.929C39.4085 142.992 39.1746 143.085 38.948 143.198C38.4803 143.42 38.0537 143.719 37.6866 144.084C36.7002 145.034 35.3111 146.954 33.9649 149.215Z" fill="#5676EF"/>
<path d="M407.993 146.227C406.414 147.384 404.252 148.831 401.4 150.505C401.485 150.324 402.988 146.961 400.027 143.612C401.966 142.8 404.118 141.702 406.451 140.211L413.914 121.801L415.859 122.259C415.859 122.259 414.047 131.311 412.564 139.008C412.01 141.906 410.376 144.487 407.993 146.227Z" fill="#9DCEFF"/>
<path d="M24.2263 142.48C25.8051 143.636 27.9672 145.084 30.8192 146.757C30.7348 146.577 29.2317 143.213 32.1927 139.865C30.2537 139.052 28.1017 137.955 25.7687 136.463L18.3052 118.053L16.3602 118.512C16.3602 118.512 18.173 127.563 19.6551 135.26C20.2099 138.159 21.8435 140.739 24.2263 142.48Z" fill="#9DCEFF"/>
<path d="M402.818 150.107C401.238 150.963 399.714 151.918 398.255 152.965C396.537 154.201 394.704 155.717 392.971 157.514L392.421 146.735L392.563 146.675L392.727 146.604L392.734 146.605L401.274 142.942C402.243 143.824 402.813 145.148 402.98 146.468C403.138 147.676 403.015 148.901 402.818 150.107Z" fill="#5676EF"/>
<path d="M29.4018 146.359C30.9811 147.216 32.505 148.17 33.9644 149.218C35.6823 150.454 37.5151 151.97 39.248 153.767L39.7985 142.987L39.6566 142.927L39.492 142.857L39.4852 142.858L30.9455 139.195C29.9764 140.076 29.4064 141.4 29.2395 142.721C29.0817 143.929 29.2048 145.154 29.4018 146.359Z" fill="#5676EF"/>
<path d="M387.423 146.184C387.423 146.184 382.427 152.72 392.563 146.674C392.563 146.674 392.282 143.78 387.423 146.184ZM419.667 118.831C418.965 121 417.31 122.842 415.23 123.774C414.512 123.445 414.492 123.26 413.774 122.931C413.3 121.682 413.236 120.29 413.572 119C414.13 117.074 414.249 118.8 414.265 118.933L414.264 118.94C414.242 119.387 414.296 119.784 414.282 120.232C415.395 118.926 416.912 118.029 418.593 117.684C418.964 117.607 419.42 117.593 419.648 117.89C419.848 118.15 419.77 118.521 419.667 118.831ZM382.963 111.931C382.299 114.111 382.604 116.569 383.777 118.523C384.555 118.664 384.676 118.524 385.454 118.664C386.557 117.91 387.405 116.805 387.867 115.554C388.511 113.655 387.425 115.003 387.337 115.103L387.333 115.11C387.096 115.489 386.824 115.784 386.58 116.159C386.414 114.451 385.681 112.848 384.499 111.604C384.239 111.328 383.873 111.056 383.516 111.17C383.204 111.269 383.055 111.617 382.963 111.931Z" fill="#9DCEFF"/>
<path d="M44.7961 142.437C44.7961 142.437 49.7928 148.972 39.6566 142.927C39.6562 142.927 39.9375 140.033 44.7961 142.437ZM12.5524 115.084C13.2542 117.252 14.9091 119.094 16.9896 120.027C17.7074 119.698 17.7279 119.513 18.4457 119.184C18.9199 117.934 18.9833 116.543 18.6477 115.253C18.09 113.327 17.9701 115.053 17.955 115.186L17.9555 115.193C17.9773 115.64 17.9231 116.037 17.9377 116.484C16.8249 115.178 15.3073 114.281 13.6263 113.936C13.2551 113.859 12.7996 113.845 12.5715 114.143C12.3718 114.403 12.4493 114.773 12.5524 115.084ZM49.257 108.184C49.9205 110.364 49.6159 112.821 48.4425 114.776C47.665 114.916 47.5433 114.776 46.7657 114.916C45.6621 114.162 44.8148 113.057 44.3524 111.807C43.7089 109.908 44.7943 111.256 44.8828 111.356L44.8869 111.362C45.124 111.742 45.3958 112.036 45.6398 112.411C45.806 110.703 46.5385 109.1 47.7206 107.856C47.981 107.581 48.3468 107.308 48.7039 107.423C49.0158 107.521 49.1644 107.869 49.257 108.184Z" fill="#9DCEFF"/>
<path d="M379.715 188.744C379.676 188.304 378.987 188.336 379.027 188.778C379.209 190.806 379.519 192.821 379.957 194.809C378.877 194.242 378.502 192.872 378.089 191.789C377.933 191.376 377.277 191.589 377.435 192.005C377.991 193.465 378.519 195.119 380.155 195.627C380.865 198.608 381.863 201.513 383.135 204.3C383.317 204.698 383.974 204.488 383.789 204.084C381.559 199.206 380.194 194.088 379.715 188.744ZM389.87 180.938C386.768 180.145 384.498 176.73 384.686 173.55C384.713 173.107 384.024 173.108 383.998 173.55C383.791 177.042 386.283 180.732 389.687 181.602C390.116 181.712 390.3 181.048 389.87 180.938ZM394.486 204.42C394.454 203.981 393.765 203.977 393.798 204.42C393.939 206.345 393.609 208.189 392.779 209.934C392.59 210.332 393.183 210.682 393.374 210.281C394.254 208.43 394.637 206.466 394.486 204.42Z" fill="#253982"/>
<path d="M52.5049 184.997C52.5441 184.556 53.2322 184.588 53.1926 185.031C53.011 187.059 52.7003 189.073 52.2623 191.062C53.3426 190.494 53.7179 189.124 54.1302 188.041C54.287 187.628 54.9424 187.841 54.7841 188.257C54.2282 189.717 53.701 191.371 52.0643 191.88C51.3547 194.86 50.3567 197.765 49.0846 200.552C48.9027 200.95 48.246 200.74 48.4307 200.336C50.6602 195.459 52.0251 190.341 52.5049 184.997ZM42.3495 177.19C45.4519 176.398 47.722 172.983 47.5332 169.802C47.5068 169.359 48.1958 169.361 48.2218 169.802C48.4289 173.295 45.9367 176.985 42.5324 177.855C42.1033 177.964 41.9199 177.3 42.3495 177.19ZM37.7331 200.672C37.7655 200.233 38.4546 200.229 38.4217 200.672C38.2803 202.597 38.6109 204.441 39.4405 206.186C39.6297 206.584 39.0364 206.934 38.8458 206.534C37.9652 204.682 37.5826 202.718 37.7331 200.672Z" fill="#253982"/>
<path d="M382.219 148.568C379.338 150.229 377.804 153.235 378.162 156.547C378.209 156.983 378.899 156.988 378.851 156.547C378.517 153.459 379.871 150.717 382.566 149.163C382.95 148.942 382.604 148.346 382.219 148.568ZM389.601 155.736C388.468 156.847 386.867 158.111 385.252 157.105C384.875 156.869 384.529 157.465 384.905 157.699C386.794 158.877 388.723 157.561 390.088 156.223C390.405 155.912 389.918 155.425 389.601 155.736Z" fill="#405DCC"/>
<path d="M50.0008 144.821C52.882 146.482 54.4156 149.488 54.0572 152.8C54.0102 153.236 53.3207 153.24 53.3686 152.8C53.7029 149.711 52.3484 146.969 49.6533 145.415C49.2693 145.194 49.6159 144.599 50.0008 144.821ZM42.6181 151.988C43.7518 153.099 45.3525 154.363 46.9673 153.357C47.3444 153.122 47.6905 153.718 47.3148 153.952C45.4254 155.129 43.4964 153.813 42.1311 152.475C41.8141 152.164 42.3012 151.678 42.6181 151.988Z" fill="#405DCC"/>
<path d="M414.629 244.534C414.67 245.262 414.519 245.986 414.368 246.701C414.139 247.788 413.906 248.888 413.492 249.926C413.079 250.961 412.479 251.946 411.616 252.649C410.745 253.365 409.654 253.761 408.545 253.954C407.438 254.15 406.309 254.154 405.185 254.162C404.572 254.162 403.803 254.056 403.623 253.471C403.451 252.903 403.991 252.392 404.469 252.04C405.463 251.304 406.469 250.515 407.188 249.53C408.439 250.695 410.708 247.98 411.15 247.302C411.622 246.578 411.991 245.793 412.246 244.967C412.548 244.011 412.663 243.013 412.826 242.028C413.178 242.163 413.513 242.326 413.791 242.576C414.335 243.062 414.592 243.806 414.629 244.534ZM382.79 257.482C378.289 258.757 373.771 259.097 369.151 258.512C369.05 258.499 368.953 258.465 368.866 258.412C368.779 258.358 368.704 258.287 368.647 258.203C368.589 258.119 368.55 258.024 368.532 257.923C368.514 257.823 368.517 257.72 368.542 257.621C368.595 256.82 371.101 255.601 373.125 254.747C375.995 257.028 379.752 255.802 382.712 253.84C382.814 255.082 382.843 256.313 382.79 257.482Z" fill="#253982"/>
<path d="M17.5902 240.787C17.5491 241.514 17.7005 242.238 17.8519 242.953C18.0808 244.041 18.3139 245.14 18.7271 246.179C19.1402 247.213 19.7408 248.199 20.6036 248.902C21.4747 249.617 22.5659 250.014 23.6741 250.206C24.7818 250.402 25.9105 250.406 27.0346 250.414C27.648 250.414 28.4164 250.308 28.5965 249.723C28.7684 249.155 28.2285 248.644 27.7501 248.292C26.7564 247.556 25.7509 246.767 25.0312 245.782C23.7803 246.948 21.5111 244.233 21.0697 243.554C20.5978 242.831 20.229 242.045 19.9739 241.22C19.6715 240.263 19.557 239.266 19.3933 238.28C19.0417 238.415 18.7065 238.579 18.4284 238.828C17.8848 239.315 17.6271 240.059 17.5902 240.787ZM49.4298 253.734C53.9309 255.01 58.4488 255.349 63.0684 254.764C63.1695 254.752 63.2668 254.717 63.3537 254.664C63.4407 254.611 63.5154 254.54 63.573 254.456C63.6305 254.371 63.6696 254.276 63.6876 254.176C63.7057 254.075 63.7023 253.972 63.6776 253.873C63.6243 253.072 61.1184 251.854 59.0945 250.999C56.2247 253.281 52.4675 252.054 49.5074 250.092C49.4052 251.334 49.3769 252.565 49.4298 253.734Z" fill="#253982"/>
<path d="M392.3 74.7791C393.066 76.5162 393.41 78.3271 393.179 80.2205C393.079 81.0783 392.866 83.2677 391.786 83.529C390.676 83.799 388.569 82.4883 387.66 81.9402C386.093 81.0044 384.739 79.7809 383.598 78.3576C383.237 77.9007 383.468 77.2996 384.06 77.2431C386.262 77.0255 388.37 77.7438 389.954 79.2108C390.006 77.6613 390.415 76.1855 391.173 74.7791C391.386 74.3787 392.1 74.3263 392.3 74.7791ZM404.193 83.0588C403.483 87.0683 400.732 91.5739 397.297 93.7984C396.997 93.9899 396.579 93.8549 396.401 93.5631C394.277 90.0065 393.528 86.0536 394.124 81.9616C394.211 81.3825 395.065 81.361 395.321 81.8048C396.336 83.5545 397.272 85.3048 397.737 87.2115C398.835 84.8606 400.828 83.1022 403.392 82.2576C403.906 82.0884 404.276 82.6019 404.193 83.0588ZM422.832 108.349C420.289 110.273 416.389 112.054 413.163 110.992C412.745 110.857 412.645 110.443 412.754 110.121C412.74 110.064 412.732 110.006 412.728 109.947C412.676 107.274 413.329 104.793 414.696 102.499C414.987 102.011 415.732 102.115 415.888 102.655C416.271 103.948 416.267 105.206 416.149 106.513C418.343 106.453 420.535 106.669 422.675 107.157C423.28 107.291 423.241 108.04 422.832 108.349ZM412.562 104.113C412.266 104.335 411.848 104.148 411.67 103.883C408.618 99.3291 408.309 93.9662 409.067 88.6726C409.132 88.1983 409.863 88.0328 410.159 88.3853C412.166 90.7753 413.437 93.4915 413.969 96.4908C415.417 94.9827 417.095 93.7133 418.94 92.7294C419.453 92.4508 420.024 92.9036 419.897 93.465C419.375 95.8159 417.904 97.7531 416.528 99.6816C415.361 101.319 414.186 102.908 412.562 104.113ZM393.079 107.842C392.783 108.329 392.056 108.221 391.886 107.685C391.621 106.823 391.351 105.961 391.081 105.099C391.018 105.123 390.951 105.132 390.885 105.125C386.976 104.681 384.856 101.456 383.118 98.2689C382.827 97.7289 383.305 97.2195 383.854 97.3066C386.215 97.674 388.445 98.6323 390.336 100.093C390.471 100.197 390.55 100.332 390.584 100.476C390.597 100.496 390.609 100.518 390.619 100.541C390.658 100.65 390.693 100.763 390.732 100.872C391.067 98.7258 391.946 96.7015 392.935 94.7031C393.143 94.2809 393.853 94.2722 394.062 94.7031C395.883 98.4823 395.221 104.325 393.079 107.842Z" fill="#394D96"/>
<path d="M39.9193 71.0316C39.1532 72.7686 38.8093 74.5795 39.04 76.4729C39.1404 77.3307 39.3533 79.5201 40.4332 79.7815C41.5432 80.0514 43.6501 78.7408 44.5599 78.1926C46.1268 77.2569 47.4807 76.0333 48.6213 74.6101C48.9825 74.1531 48.7517 73.5521 48.1598 73.4955C45.9572 73.278 43.8498 73.9962 42.2656 75.4633C42.2131 73.9137 41.8041 72.438 41.0466 71.0316C40.8336 70.6312 40.1195 70.5787 39.9193 71.0316ZM28.0264 79.3113C28.736 83.3207 31.4872 87.8263 34.9221 90.0508C35.2226 90.2424 35.6403 90.1074 35.8187 89.8155C37.9429 86.2589 38.6917 82.306 38.0952 78.2141C38.0081 77.6349 37.1548 77.6135 36.8981 78.0572C35.8839 79.807 34.9476 81.5572 34.482 83.4639C33.3848 81.1131 31.391 79.3546 28.8272 78.51C28.3137 78.3408 27.9439 78.8543 28.0264 79.3113ZM9.38798 104.602C11.9304 106.526 15.8308 108.307 19.0568 107.244C19.4745 107.109 19.5748 106.696 19.4658 106.374C19.4793 106.316 19.488 106.258 19.4918 106.199C19.5438 103.527 18.8907 101.045 17.524 98.751C17.2321 98.2635 16.4879 98.3679 16.3315 98.9079C15.9484 100.201 15.9525 101.459 16.0702 102.765C13.8766 102.705 11.6843 102.922 9.54485 103.409C8.93969 103.544 8.97892 104.293 9.38798 104.602ZM19.6574 100.366C19.9533 100.588 20.3715 100.4 20.5498 100.135C23.6015 95.5816 23.9103 90.2186 23.1528 84.925C23.0876 84.4508 22.3561 84.2852 22.0602 84.6377C20.0532 87.0278 18.7822 89.7439 18.2509 92.7432C16.8025 91.2352 15.1247 89.9657 13.2797 88.9819C12.7662 88.7032 12.1957 89.1561 12.3221 89.7175C12.8442 92.0683 14.3159 94.0055 15.6917 95.9341C16.8582 97.5712 18.0339 99.1601 19.6574 100.366ZM39.1404 104.094C39.4364 104.582 40.1633 104.473 40.3334 103.937C40.5988 103.076 40.8687 102.214 41.1387 101.352C41.2012 101.375 41.2683 101.384 41.3348 101.378C45.2439 100.934 47.364 97.708 49.101 94.5213C49.3929 93.9814 48.9141 93.472 48.3655 93.5591C46.0045 93.9264 43.7747 94.8848 41.8834 96.345C41.7484 96.4494 41.67 96.5844 41.6353 96.728C41.622 96.7488 41.6104 96.7706 41.6007 96.7932C41.5614 96.9022 41.5268 97.0153 41.4876 97.1243C41.1524 94.9782 40.2732 92.9539 39.285 90.9556C39.0761 90.5333 38.3665 90.5246 38.1576 90.9556C36.3367 94.7347 36.9984 100.577 39.1404 104.094Z" fill="#394D96"/>
<path d="M385.382 88.4847C385.002 87.7345 383.875 88.3948 384.254 89.1436C388.107 96.7648 391.99 104.716 391.578 113.479C391.539 114.319 392.845 114.317 392.884 113.479C393.307 104.495 389.334 96.302 385.382 88.4847ZM427.912 94.9918C423.827 97.0376 420.524 100.147 417.603 103.618C414.928 106.797 411.628 110.344 410.357 114.359C410.103 115.162 411.363 115.505 411.617 114.706C412.872 110.741 416.307 107.114 418.977 104.012C421.716 100.829 424.792 98.0121 428.571 96.1191C429.322 95.7429 428.662 94.616 427.912 94.9918ZM414.635 79.5784C414.494 78.7516 413.235 79.1023 413.376 79.9254C414.858 88.6023 414.082 97.4266 411.166 105.728C410.887 106.523 412.148 106.864 412.425 106.075C415.422 97.5442 416.157 88.4874 414.635 79.5784ZM401.258 73.4101C397.784 81.8531 396.071 90.8533 396.179 99.9812C396.189 100.821 397.495 100.823 397.485 99.9812C397.378 90.9614 399.086 82.0975 402.518 73.7571C402.837 72.9805 401.574 72.6422 401.258 73.4101ZM393.144 85.1087C390.841 79.4717 386.232 72.0361 382.442 67.2706C381.919 66.613 381.001 67.5423 381.519 68.194C385.159 72.7707 389.673 80.0422 391.885 85.4557C392.198 86.2237 393.462 85.8876 393.144 85.1087Z" fill="#253675"/>
<path d="M46.8377 84.7371C47.2172 83.987 48.344 84.6473 47.9655 85.3961C44.1121 93.0173 40.229 100.968 40.6412 109.731C40.6809 110.571 39.3748 110.569 39.3351 109.731C38.9124 100.747 42.8853 92.5544 46.8377 84.7371ZM4.30779 91.2442C8.39201 93.29 11.6955 96.3992 14.6164 99.8701C17.2915 103.049 20.5913 106.597 21.8623 110.611C22.1163 111.414 20.8563 111.758 20.6027 110.958C19.3477 106.994 15.9129 103.366 13.2428 100.264C10.5034 97.0814 7.42748 94.2645 3.64835 92.3716C2.89727 91.9953 3.55762 90.8685 4.30779 91.2442ZM17.5843 75.8308C17.7256 75.0041 18.9843 75.3547 18.8438 76.1779C17.3612 84.8548 18.1374 93.679 21.0537 101.981C21.3328 102.775 20.0714 103.117 19.7946 102.328C16.7976 93.7967 16.0625 84.7399 17.5843 75.8308ZM30.961 69.6626C34.4355 78.1055 36.1488 87.1058 36.0403 96.2337C36.0303 97.0732 34.7242 97.0755 34.7342 96.2337C34.8414 87.2138 33.1335 78.35 29.7014 70.0096C29.3822 69.233 30.645 68.8946 30.961 69.6626ZM39.0756 81.3611C41.3786 75.7241 45.9873 68.2885 49.7773 63.523C50.3004 62.8654 51.2188 63.7948 50.7008 64.4465C47.0607 69.0232 42.5469 76.2946 40.3347 81.7082C40.021 82.4761 38.7573 82.14 39.0756 81.3611Z" fill="#253675"/>
<path d="M386.346 89.0684C386.285 89.6654 385.851 90.3604 385.639 90.8059C385.435 91.2268 384.793 91.1821 384.576 90.8059C384.446 90.5571 384.299 90.318 384.135 90.0904C384 90.1232 383.865 90.1597 383.73 90.1926C383.362 90.2049 382.875 90.3887 382.507 90.4584C382.151 90.5236 381.759 90.6422 381.419 90.4461C380.549 89.9431 381.558 89.1337 381.219 88.5203C380.822 87.8089 379.653 87.1631 380.348 86.1982C380.573 85.8794 380.835 85.8712 381.166 85.7403C381.812 85.4827 381.787 85.1028 382.086 84.5382C382.18 84.3626 382.413 84.2195 382.613 84.2359C383.279 84.2851 383.537 84.5223 384.26 84.3175C384.624 84.2113 384.886 84.027 385.291 84.1132C386.063 84.2687 386.116 84.841 386.039 85.4909C385.998 85.822 385.916 86.1941 386.162 86.4025C386.288 86.5087 386.538 86.4923 386.689 86.5822C386.951 86.7336 387.106 86.905 387.159 87.2037C387.278 87.8299 386.776 88.549 386.346 89.0684ZM404.969 72.7234C404.671 73.0503 404.674 73.1078 404.597 73.5656C404.552 73.8356 404.511 74.0522 404.347 74.273C404.202 74.4744 403.991 74.6179 403.75 74.6779C403.53 75.5608 402.769 76.2357 401.947 76.0679C401.097 76.0515 399.829 75.9986 399.371 75.2215C398.979 74.5511 399.314 74.0317 399.711 73.5328C399.498 73.2017 399.057 72.8296 398.942 72.4985C398.799 72.0817 398.811 71.7014 398.967 71.2964C399.118 70.9038 399.482 70.7528 399.866 70.9325C400.14 70.7893 400.271 70.5727 400.259 70.2827C400.336 69.8736 400.839 69.7432 401.162 69.9147C401.543 70.119 402.115 70.5686 402.556 70.5727C402.998 70.5768 403.268 70.119 403.619 69.8408C403.934 69.5913 404.564 69.6036 404.645 70.1149C404.743 70.7524 405.443 70.9325 405.549 71.5623C405.639 72.1059 405.292 72.3718 404.969 72.7234Z" fill="#55AAFF"/>
<path d="M45.8732 85.3209C45.9343 85.9178 46.368 86.6128 46.5805 87.0584C46.7848 87.4793 47.4269 87.4346 47.6435 87.0584C47.7733 86.8095 47.9208 86.5704 48.085 86.3429C48.22 86.3757 48.355 86.4122 48.4899 86.445C48.858 86.4573 49.3445 86.6411 49.7126 86.7109C50.0683 86.7761 50.4609 86.8946 50.8002 86.6986C51.6708 86.1956 50.6611 85.3861 51.0004 84.7727C51.3971 84.0613 52.5664 83.4156 51.8714 82.4506C51.6466 82.1319 51.3848 82.1236 51.0537 81.9928C50.4075 81.7351 50.4322 81.3552 50.1339 80.7907C50.04 80.6151 49.807 80.4719 49.6068 80.4883C48.9405 80.5376 48.6828 80.7747 47.9591 80.5699C47.5952 80.4637 47.3334 80.2795 46.9289 80.3656C46.1564 80.5212 46.1031 81.0935 46.1806 81.7433C46.2216 82.0744 46.3033 82.4465 46.0579 82.6549C45.9312 82.7612 45.6817 82.7448 45.5308 82.8346C45.269 82.986 45.1139 83.1575 45.0606 83.4562C44.9411 84.0823 45.4436 84.8015 45.8732 85.3209ZM27.2507 68.9758C27.549 69.3028 27.5453 69.3602 27.6228 69.8181C27.668 70.0881 27.7086 70.3047 27.8723 70.5254C28.017 70.7268 28.2286 70.8703 28.4693 70.9304C28.69 71.8132 29.4506 72.4882 30.2724 72.3203C31.1229 72.3039 32.3902 72.251 32.848 71.4739C33.2407 70.8036 32.905 70.2841 32.5087 69.7853C32.7213 69.4542 33.1627 69.082 33.2772 68.751C33.4204 68.3342 33.408 67.9538 33.2525 67.5489C33.1011 67.1562 32.7372 67.0053 32.3533 67.185C32.0792 67.0418 31.9483 66.8252 31.9606 66.5351C31.8831 66.1261 31.3801 65.9956 31.0572 66.1671C30.6769 66.3714 30.1046 66.821 29.6631 66.8252C29.2217 66.8293 28.9517 66.3714 28.6001 66.0932C28.2855 65.8438 27.6557 65.8561 27.5741 66.3673C27.476 67.0048 26.7769 67.185 26.6706 67.8147C26.5803 68.3583 26.9279 68.6242 27.2507 68.9758Z" fill="#55AAFF"/>
<path d="M384.564 67.7563C384.675 68.2141 384.474 68.5206 384.156 68.7294C384.114 68.8649 384.028 68.9818 383.91 69.0605C383.653 69.232 383.591 70.3114 383.444 70.6306C383.354 70.8308 383.117 70.9211 382.917 70.933C382.569 70.9576 382.467 70.8062 382.206 70.6425C381.686 70.3155 381.781 70.5075 381.241 70.6794C380.243 70.9941 380.149 69.9762 379.417 69.735C378.8 69.5348 377.651 69.678 377.504 68.7988C377.381 68.0668 378.187 67.8174 378.702 67.4416C378.493 66.9268 378.117 66.4766 378.481 65.8802C378.587 65.7041 378.771 65.5737 378.939 65.4593C379.315 65.2016 379.642 64.9932 379.998 64.7031C380.308 64.4496 380.635 64.2781 381.028 64.5071C381.417 64.736 381.216 64.9772 381.846 64.9813C382.324 64.9813 382.953 64.6461 383.391 64.4742C383.62 64.3844 383.98 64.5317 384.082 64.7565C384.307 65.239 384.45 65.705 384.336 66.2404C384.266 66.5756 384.099 66.8086 384.205 67.1643C384.265 67.3718 384.507 67.5273 384.564 67.7563Z" fill="#5676EF"/>
<path d="M47.6554 64.0087C47.545 64.4666 47.7452 64.773 48.064 64.9819C48.105 65.1173 48.1918 65.2343 48.3094 65.313C48.567 65.4844 48.6281 66.5639 48.7754 66.8831C48.8652 67.0833 49.1024 67.1736 49.3026 67.1854C49.6501 67.2101 49.7522 67.0587 50.014 66.8949C50.5334 66.568 50.439 66.76 50.9789 66.9319C51.9767 67.2465 52.0707 66.2287 52.8022 65.9874C53.4196 65.7872 54.5684 65.9304 54.7157 65.0512C54.8383 64.3193 54.033 64.0698 53.5177 63.6941C53.7261 63.1792 54.1023 62.7291 53.7384 62.1326C53.6321 61.9566 53.4483 61.8262 53.2805 61.7117C52.9043 61.454 52.5773 61.2456 52.2216 60.9556C51.9111 60.702 51.5841 60.5306 51.1914 60.7595C50.8029 60.9884 51.0036 61.2297 50.3738 61.2338C49.8954 61.2338 49.2661 60.8986 48.8283 60.7267C48.5994 60.6368 48.2396 60.7841 48.1374 61.0089C47.9126 61.4914 47.7694 61.9575 47.8839 62.4929C47.9532 62.828 48.121 63.0611 48.0147 63.4168C47.9541 63.6243 47.7129 63.7798 47.6554 64.0087Z" fill="#5676EF"/>
<path d="M432.192 96.3006C432.127 96.6563 431.796 96.8648 431.702 97.2369C431.616 97.5556 431.755 97.8379 431.502 98.1198C431.326 98.3117 431.138 98.3569 430.884 98.3774C430.614 98.402 430.336 98.2506 430.075 98.2219C429.6 98.169 429.171 98.2588 428.746 98.3774C427.899 98.6063 426.959 98.1444 426.129 98.6104C425.745 98.823 425.381 98.6063 425.226 98.2424C425.103 97.9483 425.299 97.2898 425.209 97.1343C425.164 97.0526 424.653 96.987 424.527 96.8479C424.007 96.2797 424.653 95.462 424.919 94.9467C424.928 94.9276 424.939 94.9098 424.952 94.8938C424.2 94.4154 423.521 93.8144 424.355 93.0418C424.653 92.7637 424.85 92.8863 425.226 92.5024C425.381 92.3469 425.418 92.1343 425.651 92.0281C425.819 91.9465 425.953 91.9952 426.121 91.967C426.227 91.9916 426.329 92.0281 426.427 92.0773C427.241 92.2857 427.858 92.1143 428.279 91.562C428.594 91.2391 429.199 91.3823 429.305 91.832C429.403 92.2493 429.501 92.9602 430.066 93.0423C429.955 93.0259 431.206 92.8745 431.157 92.8745C431.648 92.8786 431.893 93.3816 431.689 93.7943C431.419 94.3379 431.423 94.6895 431.721 95.1884C431.811 95.3357 432 95.4173 432.085 95.5769C432.225 95.8264 432.246 96.0348 432.192 96.3006Z" fill="#55AAFF"/>
<path d="M0.0270464 92.5531C0.0922589 92.9088 0.423761 93.1172 0.517703 93.4893C0.603437 93.8081 0.464843 94.0904 0.717941 94.3722C0.893513 94.5642 1.08186 94.6093 1.33541 94.6299C1.60538 94.6545 1.88306 94.5031 2.14482 94.4743C2.61909 94.4214 3.04825 94.5113 3.47373 94.6299C4.32012 94.8588 5.26047 94.3968 6.09045 94.8629C6.47489 95.0754 6.83878 94.8588 6.99383 94.4949C7.1165 94.2007 6.92041 93.5422 7.01025 93.3867C7.0554 93.3051 7.56613 93.2394 7.69291 93.1003C8.21233 92.5321 7.56615 91.7144 7.30028 91.1991C7.2919 91.18 7.28083 91.1622 7.26744 91.1462C8.01943 90.6679 8.69845 90.0668 7.86436 89.2943C7.56612 89.0161 7.3696 89.1388 6.99383 88.7548C6.83832 88.5993 6.80184 88.3868 6.56881 88.2805C6.40099 88.1989 6.26645 88.2477 6.09863 88.2194C5.99238 88.244 5.89023 88.2805 5.79218 88.3298C4.97862 88.5382 4.36114 88.3667 3.94022 87.8145C3.62556 87.4916 3.02041 87.6348 2.91415 88.0844C2.8161 88.5017 2.71806 89.2127 2.15395 89.2947C2.26431 89.2783 1.01345 89.1269 1.06225 89.1269C0.571557 89.131 0.326194 89.634 0.530952 90.0467C0.800923 90.5903 0.796809 90.9419 0.498108 91.4408C0.40827 91.5881 0.219941 91.6698 0.134207 91.8294C-0.00579457 92.0788 -0.0263093 92.2872 0.0270464 92.5531Z" fill="#55AAFF"/>
<path d="M418.067 79.2195C417.802 79.9473 417.156 79.9268 416.583 80.1516C416.743 80.7978 417.18 81.6274 416.649 82.114C416.346 82.3962 415.835 82.3716 415.344 82.2818C415.23 82.3716 415.111 82.4619 414.997 82.5517C414.666 82.8053 414.281 82.7807 414.032 82.4332C414.032 82.4783 413.104 82.6498 412.998 82.6334C412.74 82.5882 412.577 82.4902 412.364 82.3388C412.016 82.0934 412.123 81.7747 411.648 81.4801C411.374 81.3086 410.986 81.3122 410.696 81.1326C409.437 80.356 410.074 79.4279 410.769 78.6262C410.569 78.4096 410.27 78.0826 410.266 77.7105C410.258 77.0972 410.568 76.9093 411.034 76.6229C411.476 76.3447 411.848 76.1609 412.171 75.74C412.367 75.4823 412.416 75.1841 412.711 74.9958C413.435 74.542 413.925 75.5029 414.64 75.0774C414.996 74.8608 415.413 75.0733 415.54 75.4413C415.916 76.5371 416.705 75.8499 417.339 75.699C417.833 75.5763 418.34 76.1322 418.034 76.5983C417.364 77.6211 418.419 78.2632 418.067 79.2195Z" fill="#5676EF"/>
<path d="M14.1522 75.472C14.418 76.1998 15.0638 76.1793 15.6361 76.4041C15.4765 77.0503 15.0391 77.8798 15.5709 78.3664C15.8732 78.6487 16.3844 78.624 16.8751 78.5342C16.9896 78.624 17.1081 78.7143 17.2226 78.8042C17.5537 79.0577 17.9381 79.0331 18.1876 78.6856C18.1876 78.7308 19.1156 78.9022 19.2218 78.8858C19.4795 78.8407 19.6428 78.7426 19.8557 78.5912C20.2032 78.3459 20.097 78.0271 20.5712 77.7325C20.8453 77.561 21.2334 77.5647 21.5239 77.385C22.783 76.6084 22.1455 75.6804 21.4505 74.8787C21.6507 74.662 21.9494 74.3351 21.9535 73.963C21.9617 73.3496 21.6512 73.1617 21.1851 72.8753C20.7437 72.5971 20.3715 72.4134 20.0486 71.9924C19.8525 71.7348 19.8033 71.4365 19.5087 71.2482C18.785 70.7944 18.2948 71.7553 17.5793 71.3298C17.2236 71.1132 16.8067 71.3257 16.6799 71.6937C16.3037 72.7896 15.5148 72.1023 14.8809 71.9514C14.3861 71.8287 13.8795 72.3846 14.1859 72.8507C14.8554 73.8736 13.8006 74.5157 14.1522 75.472Z" fill="#5676EF"/>
</svg>
