<svg xmlns="http://www.w3.org/2000/svg" enable-background="new 0 0 2500 2500" viewBox="0 0 2500 2500" id="MailSubscription"><path fill="#021b79" d="M2201.77 1996.65H532.32c-1.87 0-3.38-1.52-3.38-3.38s1.52-3.38 3.38-3.38h1669.44c1.87 0 3.38 1.52 3.38 3.38S2203.63 1996.65 2201.77 1996.65zM559.65 1296.17c-.44 0-.88-.08-1.3-.26-11.11-4.63-22.19-9.82-32.95-15.42-1.66-.86-2.3-2.9-1.44-4.56.86-1.65 2.89-2.3 4.56-1.44 10.58 5.51 21.49 10.61 32.43 15.17 1.72.72 2.54 2.7 1.82 4.43C562.24 1295.39 560.98 1296.17 559.65 1296.17zM495.69 1262.88c-.62 0-1.24-.17-1.81-.52-10.17-6.43-20.23-13.4-29.91-20.7-1.49-1.12-1.79-3.25-.66-4.74 1.12-1.49 3.24-1.79 4.74-.66 9.52 7.19 19.43 14.04 29.45 20.38 1.58 1 2.05 3.09 1.05 4.67C497.91 1262.32 496.82 1262.88 495.69 1262.88zM438.13 1219.44c-.8 0-1.61-.28-2.25-.86-9.02-8.05-17.81-16.56-26.12-25.3-1.29-1.35-1.23-3.49.12-4.79 1.35-1.29 3.49-1.23 4.79.12 8.19 8.61 16.84 16.99 25.72 24.91 1.4 1.24 1.52 3.38.27 4.78C439.99 1219.06 439.06 1219.44 438.13 1219.44zM388.44 1167.19c-.99 0-1.97-.43-2.63-1.26-7.59-9.42-14.86-19.27-21.61-29.26-1.05-1.55-.64-3.65.91-4.7 1.55-1.05 3.65-.64 4.7.91 6.64 9.83 13.8 19.52 21.27 28.8 1.17 1.46.94 3.59-.51 4.76C389.93 1166.94 389.18 1167.19 388.44 1167.19zM348.08 1107.44c-1.19 0-2.34-.63-2.97-1.74l-1.27-2.29c-5.65-10.28-10.63-20.52-14.8-30.43-.72-1.72.08-3.71 1.81-4.43 1.71-.72 3.71.08 4.43 1.81 4.08 9.69 8.95 19.71 14.49 29.78l1.26 2.27c.9 1.63.32 3.7-1.32 4.6C349.2 1107.3 348.64 1107.44 348.08 1107.44zM320.59 1040.9c-1.51 0-2.89-1.02-3.28-2.56-3.15-12.46-5-24.68-5.5-36.31-.08-1.87 1.37-3.45 3.23-3.53.05 0 .1 0 .15 0 1.8 0 3.3 1.42 3.38 3.24.48 11.17 2.26 22.93 5.31 34.95.46 1.81-.64 3.65-2.45 4.11C321.14 1040.87 320.87 1040.9 320.59 1040.9zM1320.45 1019c-1.86 0-3.38-1.51-3.38-3.38 0-1.87 1.51-3.39 3.38-3.39 11.84-.04 23.89-.5 35.83-1.38 1.85-.07 3.49 1.26 3.62 3.13.14 1.86-1.26 3.49-3.13 3.62C1344.66 1018.5 1332.45 1018.97 1320.45 1019 1320.45 1019 1320.45 1019 1320.45 1019zM1284.39 1017.78c-.08 0-.16 0-.24-.01-12.15-.86-24.31-2.2-36.14-3.98-1.85-.28-3.12-2-2.84-3.85.27-1.85 2.01-3.14 3.85-2.84 11.65 1.75 23.64 3.07 35.61 3.92 1.86.13 3.27 1.75 3.14 3.61C1287.63 1016.42 1286.15 1017.78 1284.39 1017.78zM1392.38 1013.71c-1.66 0-3.1-1.22-3.34-2.9-.27-1.85 1.02-3.56 2.87-3.83 11.8-1.7 23.68-3.82 35.3-6.31 1.8-.39 3.63.77 4.02 2.6.39 1.83-.77 3.63-2.6 4.02-11.77 2.52-23.8 4.67-35.76 6.39C1392.71 1013.7 1392.54 1013.71 1392.38 1013.71zM1213.08 1007c-.26 0-.52-.03-.78-.09-11.92-2.82-23.69-6.16-35-9.92-1.77-.59-2.73-2.51-2.14-4.28.59-1.77 2.49-2.71 4.28-2.14 11.12 3.7 22.7 6.98 34.42 9.76 1.82.43 2.94 2.25 2.51 4.07C1216 1005.96 1214.61 1007 1213.08 1007zM1462.93 998.61c-1.47 0-2.83-.96-3.25-2.45-.52-1.8.52-3.67 2.32-4.19 10.87-3.12 22.37-6.83 34.17-11.02 1.77-.63 3.7.3 4.32 2.06.63 1.76-.3 3.7-2.06 4.32-11.93 4.24-23.56 7.99-34.57 11.15C1463.55 998.57 1463.24 998.61 1462.93 998.61zM1144.7 984.17c-.46 0-.93-.09-1.37-.29-11.2-4.96-22.14-10.47-32.52-16.4-1.62-.93-2.19-2.99-1.26-4.62.93-1.62 2.97-2.2 4.62-1.26 10.18 5.81 20.92 11.22 31.91 16.09 1.71.75 2.48 2.75 1.72 4.46C1147.23 983.42 1146 984.17 1144.7 984.17zM425.02 981.79c-.25 0-.51-.03-.76-.09-11.81-2.72-23.32-10.22-31.57-20.56-1.17-1.46-.93-3.59.53-4.75 1.47-1.18 3.6-.93 4.75.53 7.32 9.18 17.45 15.81 27.8 18.19 1.82.42 2.96 2.23 2.54 4.05C427.96 980.73 426.56 981.79 425.02 981.79zM1531.02 974.6c-1.33 0-2.6-.79-3.13-2.1-.7-1.73.12-3.71 1.85-4.42 10.73-4.4 21.84-9.21 33.01-14.32 1.69-.77 3.71-.02 4.49 1.67.78 1.7.03 3.71-1.67 4.49-11.25 5.14-22.44 9.99-33.26 14.42C1531.89 974.52 1531.45 974.6 1531.02 974.6zM458.37 972.88c-.87 0-1.74-.33-2.4-1-1.32-1.33-1.31-3.47.02-4.79 7.02-6.96 11.04-17.16 11.04-28 0-.78-.02-1.57-.07-2.35-.11-1.87 1.32-3.46 3.19-3.57 1.82-.12 3.46 1.32 3.57 3.19.05.91.07 1.82.07 2.74 0 12.63-4.75 24.59-13.04 32.8C460.09 972.55 459.23 972.88 458.37 972.88zM318.25 969.41c-.25 0-.5-.03-.74-.08-1.82-.41-2.97-2.22-2.56-4.04.35-1.57.74-3.14 1.15-4.71 2.71-10.21 7.12-20.14 13.13-29.5 1.01-1.57 3.11-2.03 4.68-1.03 1.58 1.01 2.03 3.1 1.03 4.68-5.62 8.78-9.76 18.06-12.29 27.59-.39 1.48-.76 2.97-1.09 4.46C321.2 968.35 319.8 969.41 318.25 969.41zM1082.14 948.41c-.68 0-1.38-.21-1.98-.64-9.66-6.98-19.01-14.54-27.79-22.47l-.55-.5c-1.37-1.26-1.46-3.41-.19-4.78 1.27-1.37 3.41-1.46 4.78-.19l.45.41c8.63 7.8 17.79 15.2 27.26 22.04 1.51 1.1 1.85 3.21.76 4.73C1084.22 947.93 1083.19 948.41 1082.14 948.41zM1596.75 944.65c-1.24 0-2.44-.68-3.03-1.87-.84-1.67-.16-3.7 1.52-4.54 10.49-5.24 21.24-10.83 31.94-16.62 1.65-.88 3.7-.27 4.59 1.37.89 1.64.27 3.7-1.37 4.59-10.76 5.82-21.58 11.44-32.13 16.72C1597.77 944.53 1597.25 944.65 1596.75 944.65zM383.43 929.01c-1.79 0-3.29-1.41-3.38-3.23-.06-1.19-.08-2.39-.08-3.58 0-8.82 1.49-18.22 4.44-28-9.13 3.23-17.89 8.16-26.12 14.67-1.48 1.16-3.6.9-4.75-.55-1.16-1.47-.91-3.6.55-4.75 10.26-8.12 21.33-13.95 32.91-17.31 1.15-.33 2.34-.04 3.17.7.07.02.14.04.2.07 1.77.61 2.7 2.54 2.08 4.3-3.79 10.91-5.71 21.29-5.71 30.87 0 1.09.03 2.18.07 3.27.09 1.87-1.36 3.45-3.22 3.54C383.54 929.01 383.48 929.01 383.43 929.01zM1660.28 910.3c-1.17 0-2.3-.6-2.93-1.68-.94-1.61-.39-3.69 1.22-4.63 10.38-6.04 20.76-12.29 30.85-18.59 1.58-.99 3.67-.5 4.66 1.08.99 1.59.5 3.67-1.08 4.67-10.14 6.33-20.59 12.62-31.02 18.69C1661.44 910.15 1660.86 910.3 1660.28 910.3zM455.07 908.14c-.85 0-1.71-.32-2.37-.97-6.77-6.62-15.29-11.63-24.64-14.51-1.71-.52-3.44-.97-5.17-1.35-1.82-.4-2.98-2.2-2.58-4.03.4-1.83 2.24-2.97 4.03-2.58 1.9.41 3.81.91 5.7 1.49 10.39 3.19 19.86 8.77 27.39 16.14 1.34 1.31 1.36 3.45.05 4.79C456.83 907.8 455.94 908.14 455.07 908.14zM1028.59 900.21c-.91 0-1.82-.37-2.49-1.09-7.19-7.8-14.76-16.48-23.83-27.32-1.2-1.43-1.01-3.57.42-4.77 1.43-1.2 3.56-1.01 4.77.42 9 10.76 16.51 19.36 23.62 27.08 1.26 1.37 1.18 3.51-.19 4.78C1030.23 899.91 1029.41 900.21 1028.59 900.21zM1721.56 872.09c-1.09 0-2.17-.53-2.82-1.51-1.04-1.55-.62-3.65.94-4.69 10.01-6.68 19.98-13.57 29.62-20.46 1.53-1.09 3.64-.73 4.72.78 1.08 1.52.74 3.64-.78 4.72-9.7 6.94-19.73 13.86-29.8 20.59C1722.85 871.91 1722.2 872.09 1721.56 872.09zM404.79 861.09c-.59 0-1.18-.15-1.72-.47-1.61-.95-2.14-3.03-1.19-4.64 6.14-10.38 12.96-20.57 20.28-30.3 1.12-1.49 3.23-1.79 4.74-.67 1.49 1.12 1.79 3.25.67 4.74-7.17 9.53-13.85 19.51-19.86 29.67C407.07 860.5 405.95 861.09 404.79 861.09zM981.89 845.17c-.97 0-1.94-.42-2.61-1.23-6.8-8.25-14.88-17.96-23.26-27.46-1.23-1.4-1.1-3.54.3-4.78 1.39-1.23 3.53-1.11 4.78.3 8.44 9.56 16.57 19.33 23.41 27.62 1.19 1.45.98 3.58-.46 4.77C983.42 844.91 982.65 845.17 981.89 845.17zM1780.29 830.07c-1.02 0-2.02-.45-2.69-1.32-1.14-1.48-.86-3.61.62-4.75 9.65-7.41 19.11-14.95 28.15-22.44 1.43-1.19 3.57-.99 4.77.45 1.19 1.44.99 3.57-.45 4.76-9.1 7.54-18.64 15.14-28.35 22.6C1781.73 829.84 1781.01 830.07 1780.29 830.07zM448.08 803.5c-.83 0-1.66-.3-2.31-.91-1.37-1.28-1.44-3.42-.16-4.79 8.24-8.79 17.07-17.29 26.27-25.25 1.41-1.22 3.55-1.07 4.78.34 1.22 1.41 1.07 3.55-.34 4.78-9.02 7.81-17.68 16.14-25.75 24.76C449.88 803.14 448.98 803.5 448.08 803.5zM933.78 791.4c-.85 0-1.71-.32-2.36-.96-2.39-2.33-4.81-4.63-7.27-6.9-6.27-5.78-12.86-11.38-19.59-16.65-1.47-1.15-1.73-3.28-.58-4.75 1.15-1.47 3.27-1.74 4.75-.58 6.87 5.39 13.6 11.11 20 17.01 2.5 2.31 4.96 4.65 7.4 7.02 1.34 1.3 1.37 3.45.06 4.79C935.54 791.05 934.66 791.4 933.78 791.4zM1835.89 783.98c-.93 0-1.85-.38-2.52-1.12-1.25-1.39-1.14-3.53.26-4.78 9.09-8.17 17.9-16.46 26.2-24.63 1.33-1.31 3.47-1.3 4.79.04 1.31 1.33 1.3 3.48-.04 4.79-8.37 8.24-17.25 16.6-26.42 24.84C1837.51 783.69 1836.7 783.98 1835.89 783.98zM502.56 756.33c-1.07 0-2.12-.5-2.78-1.45-1.07-1.53-.7-3.64.84-4.71 9.94-6.94 20.33-13.43 30.9-19.29 1.63-.92 3.69-.32 4.6 1.31.9 1.63.32 3.7-1.32 4.6-10.36 5.75-20.56 12.12-30.31 18.93C503.91 756.13 503.23 756.33 502.56 756.33zM877.08 746.94c-.61 0-1.22-.16-1.78-.51-10.04-6.24-20.57-12.04-31.3-17.23-1.68-.81-2.38-2.84-1.57-4.52.81-1.68 2.83-2.38 4.52-1.57 10.94 5.29 21.67 11.21 31.91 17.57 1.59.99 2.08 3.07 1.09 4.66C879.32 746.37 878.21 746.94 877.08 746.94zM1887.27 733.26c-.82 0-1.63-.29-2.28-.89-1.38-1.26-1.48-3.4-.22-4.78 8.29-9.06 16.17-18.22 23.41-27.2 1.18-1.46 3.31-1.67 4.76-.51 1.45 1.18 1.68 3.3.51 4.76-7.34 9.09-15.31 18.35-23.69 27.52C1889.09 732.89 1888.18 733.26 1887.27 733.26zM565.58 721.37c-1.31 0-2.56-.77-3.12-2.06-.73-1.72.07-3.71 1.79-4.44 11.17-4.75 22.68-8.95 34.24-12.48 1.78-.52 3.68.46 4.23 2.25.54 1.78-.46 3.68-2.25 4.23-11.32 3.45-22.61 7.57-33.56 12.23C566.47 721.28 566.02 721.37 565.58 721.37zM812.22 715.54c-.38 0-.77-.07-1.15-.2-11.14-4.04-22.63-7.53-34.17-10.41-1.82-.45-2.92-2.29-2.47-4.1.45-1.82 2.32-2.93 4.1-2.47 11.77 2.93 23.49 6.49 34.85 10.61 1.75.63 2.67 2.58 2.03 4.34C814.9 714.69 813.6 715.54 812.22 715.54zM634.5 700.39c-1.6 0-3.01-1.13-3.32-2.76-.34-1.83.86-3.6 2.7-3.95 4.29-.81 8.6-1.53 12.92-2.17 7.63-1.12 15.44-1.98 23.22-2.56 1.87-.05 3.49 1.26 3.63 3.12.14 1.86-1.26 3.49-3.12 3.63-7.62.57-15.27 1.41-22.74 2.51-4.23.62-8.45 1.33-12.65 2.12C634.92 700.38 634.71 700.39 634.5 700.39zM742.29 698.15c-.16 0-.32-.01-.48-.04-11.8-1.66-23.78-2.71-35.58-3.12-1.87-.07-3.33-1.63-3.27-3.5.07-1.83 1.57-3.27 3.38-3.27.04 0 .07 0 .11 0 12.05.42 24.26 1.49 36.29 3.19 1.85.26 3.14 1.97 2.88 3.82C745.4 696.93 743.95 698.15 742.29 698.15z" class="color030047 svgShape"></path><path fill="#5eadfd" d="M1119.84,1676.86H638.13c-29.9,0-54.15,24.24-54.15,54.15v89.13c0,29.9,24.24,54.15,54.15,54.15h481.71
							c29.9,0,54.15-24.24,54.15-54.15v-89.13C1173.99,1701.1,1149.75,1676.86,1119.84,1676.86z" class="color605efd svgShape"></path><path fill="#021b79" d="M1114.73,1877.67H643.25c-34.54,0-62.64-28.1-62.64-62.64v-78.91c0-34.54,28.1-62.64,62.64-62.64h471.49
							c34.54,0,62.64,28.1,62.64,62.64v78.91C1177.37,1849.57,1149.27,1877.67,1114.73,1877.67z M643.25,1680.25
							c-30.81,0-55.87,25.06-55.87,55.87v78.91c0,30.81,25.06,55.87,55.87,55.87h471.49c30.81,0,55.87-25.06,55.87-55.87v-78.91
							c0-30.81-25.06-55.87-55.87-55.87H643.25z" class="color030047 svgShape"></path><path fill="#ffffff" d="M665.53 1811.43c-6.72 0-12-1.63-15.86-4.88-3.25-2.71-4.88-5.84-4.88-9.38 0-1.82.5-3.32 1.51-4.52 1-1.2 2.39-1.79 4.16-1.79 2.38 0 4.12 1.32 5.23 3.97 1.51 3.55 4.92 5.32 10.23 5.32 4.55 0 8.95-1.08 13.21-3.24 4.42-2.22 6.62-4.65 6.62-7.31 0-3.63-1.37-6.02-4.12-7.17-1.96-.84-5.88-1.33-11.78-1.47-4.57-.11-8.67-1.05-12.29-2.81-4.89-2.39-7.3-5.82-7.22-10.29.08-5.62 2.83-10.77 8.25-15.45 5.42-4.68 11.39-7.02 17.92-7.02 2.59 0 5.79.65 9.6 1.94 4.73 1.62 7.1 3.48 7.1 5.58 0 1.5-.48 2.82-1.43 3.97-1.06 1.3-2.42 1.95-4.08 1.95-1.24 0-3.1-.29-5.57-.86-2.47-.58-4.34-.87-5.61-.87-3.41.03-6.65.93-9.72 2.68-3.17 1.78-4.76 3.73-4.76 5.83 0 1.1.48 2 1.45 2.7.96.71 2.41 1.21 4.34 1.49 3.38.2 6.75.4 10.11.6 5.87.49 10.51 2.29 13.92 5.4 3.75 3.46 5.63 8.24 5.63 14.36 0 7.43-3.89 13.07-11.66 16.9C679.91 1809.97 673.15 1811.43 665.53 1811.43zM744.96 1801.32c-1.93 2.85-4.26 5.23-6.98 7.13-3.33 2.3-6.75 3.45-10.27 3.45-6.74 0-11.75-1.38-15.03-4.16-6.93-5.86-10.39-16.04-10.39-30.53 0-1.39.07-3.45.2-6.2.13-2.75.2-4.82.2-6.2 0-1.1.03-2.75.08-4.94.05-2.19.08-3.85.08-4.95 0-2.26.38-4.4 1.15-6.41 1.03-2.66 2.47-3.99 4.32-3.99 1.45 0 2.74.51 3.85 1.52 1.22 1.08 1.82 2.45 1.82 4.15 0 1.61-.02 4.04-.06 7.3-.04 3.26-.06 5.7-.06 7.34 0 1.36-.07 3.4-.2 6.14-.13 2.74-.2 4.78-.2 6.13 0 4.37.48 8.43 1.43 12.18 1.11 4.49 2.74 7.62 4.88 9.39 1.11.93 3.75 1.42 7.93 1.48 6.98.11 11.69-6.37 14.12-19.45 1.27-6.77 1.9-16.28 1.9-28.53 0-1.61.44-3.17 1.31-4.67 1.19-1.99 2.88-2.98 5.08-2.98 1.8 0 3.15.72 4.04 2.16.69 1.07 1.03 2.25 1.03 3.55 0 11.38-.49 20.26-1.47 26.63C752.25 1786.67 749.33 1794.83 744.96 1801.32zM794.1 1807.11c-6.16 2.51-13.95 3.76-23.36 3.76-1.59 0-3.01-.72-4.26-2.16-1.26-1.44-1.89-2.98-1.89-4.62v-45.83c-.08-1.96-.15-3.92-.2-5.88-.08-2.22-.01-4.09.2-5.62.37-2.71 2.68-4.35 6.94-4.93 2.01-.63 5.34-.95 9.99-.95 5 0 9.78 1.76 14.36 5.27 5.37 4.09 8.05 9.21 8.05 15.35 0 3.31-.56 6.11-1.67 8.39-.87 1.85-2.39 3.82-4.56 5.92 2.56 1.36 4.84 3.4 6.82 6.14 2.25 3.05 3.37 6.09 3.37 9.12 0 3.83-1.92 7.46-5.75 10.89C799.59 1804.24 796.9 1805.96 794.1 1807.11zM781.53 1752.6c-3.41 0-5.46.03-6.15.09l.04 9.17-.04 9.08c2.41.32 4.22.42 5.43.3 8.09-.69 12.13-3.93 12.13-9.73 0-2.04-1.19-4.02-3.57-5.92C786.92 1753.59 784.31 1752.6 781.53 1752.6zM786.17 1783.16c-2.41 0-6-.1-10.79-.3v16.17c4.55-.26 9.48-1.21 14.79-2.86 4.65-1.44 6.95-3 6.9-4.67-.08-2.22-1.57-4.19-4.48-5.92C790.32 1784.2 788.18 1783.39 786.17 1783.16zM832.89 1811.43c-6.72 0-12-1.63-15.86-4.88-3.25-2.71-4.88-5.84-4.88-9.38 0-1.82.5-3.32 1.51-4.52 1-1.2 2.39-1.79 4.16-1.79 2.38 0 4.12 1.32 5.23 3.97 1.51 3.55 4.92 5.32 10.23 5.32 4.55 0 8.95-1.08 13.21-3.24 4.42-2.22 6.62-4.65 6.62-7.31 0-3.63-1.37-6.02-4.12-7.17-1.96-.84-5.88-1.33-11.78-1.47-4.57-.11-8.67-1.05-12.29-2.81-4.89-2.39-7.3-5.82-7.22-10.29.08-5.62 2.83-10.77 8.25-15.45 5.42-4.68 11.39-7.02 17.92-7.02 2.59 0 5.79.65 9.6 1.94 4.73 1.62 7.1 3.48 7.1 5.58 0 1.5-.48 2.82-1.43 3.97-1.06 1.3-2.42 1.95-4.08 1.95-1.24 0-3.1-.29-5.57-.86-2.47-.58-4.34-.87-5.61-.87-3.41.03-6.65.93-9.72 2.68-3.17 1.78-4.76 3.73-4.76 5.83 0 1.1.48 2 1.45 2.7.96.71 2.41 1.21 4.34 1.49 3.38.2 6.75.4 10.11.6 5.87.49 10.51 2.29 13.92 5.4 3.75 3.46 5.63 8.24 5.63 14.36 0 7.43-3.89 13.07-11.66 16.9C847.27 1809.97 840.5 1811.43 832.89 1811.43zM910.34 1762.76c-2.38 0-4.14-1.37-5.27-4.11-.53-1.3-1.06-2.08-1.59-2.34-.4-.2-1.44-.3-3.13-.3-3.33 0-7.18 2.82-11.54 8.47-6.11 7.9-9.16 15.29-9.16 22.18 0 3.14.96 5.83 2.89 8.09 1.93 2.25 4.24 3.37 6.94 3.37 2.62 0 5.27-.75 7.97-2.25.95-.55 2.96-1.96 6.03-4.24 2.06-1.5 3.62-2.25 4.68-2.25 1.59 0 2.93.63 4.04 1.9 1.03 1.18 1.55 2.53 1.55 4.06 0 1.7-.69 3.19-2.06 4.45-7.27 6.69-14.67 10.03-22.21 10.03-5.95 0-10.97-2.36-15.07-7.09-3.91-4.56-5.87-9.91-5.87-16.08 0-9.65 3.87-19.51 11.62-29.57 6.58-8.53 13.31-12.79 20.19-12.79 1.16 0 2.22.04 3.15.13s1.76.22 2.48.39c1.16-1.24 2.56-1.86 4.2-1.86 2.7 0 4.36 1.69 5 5.06.45 2.42.67 5.25.67 8.47 0 1.44-.38 2.75-1.15 3.93C913.7 1761.98 912.24 1762.76 910.34 1762.76zM961.46 1809.31c-1.43 0-2.74-.61-3.93-1.82-8.01-8.19-16.81-13.86-26.41-17.03.29 8.39.44 13.04.44 13.96 0 1.64-.53 3.04-1.59 4.17-1.06 1.14-2.38 1.71-3.97 1.71-1.59 0-2.91-.57-3.97-1.71-1.06-1.14-1.59-2.53-1.59-4.17 0-2.16.03-5.4.08-9.7.05-4.31.08-7.54.08-9.71l.08-34.88c0-1.87.52-3.57 1.55-5.1 1.35-1.96 3.21-2.84 5.59-2.63 6.42.52 9.72.79 9.87.82 3.7.49 6.85 1.46 9.44 2.9 11.29 6.2 16.93 13.88 16.93 23.04 0 3.78-1.18 7.11-3.55 10.01-2.37 2.89-5.92 5.34-10.65 7.33 7.01 4.27 12.28 8.61 15.82 13.06.93 1.15 1.39 2.43 1.39 3.85 0 1.61-.56 3.01-1.67 4.17C964.31 1808.73 962.99 1809.31 961.46 1809.31zM936.04 1754.93c-.21-.03-1.76-.15-4.64-.35v22.96c.66.03 1.24.04 1.74.04 6.48 0 11.28-.88 14.4-2.64 1.35-.75 2.59-1.74 3.71-2.98 1.12-1.24 1.68-2.17 1.68-2.81 0-3.23-1.88-6.34-5.63-9.34C943.73 1756.99 939.98 1755.36 936.04 1754.93zM1005.88 1757.7c-1.27 0-4.75-.41-10.43-1.21-.37 5.31-.56 12.35-.56 21.14l-.04 19.41c3.52-.09 7.1-.13 10.75-.13 1.59 0 2.9.58 3.95 1.73 1.04 1.15 1.56 2.53 1.56 4.15 0 1.62-.53 2.99-1.6 4.13-1.07 1.14-2.41 1.71-4.03 1.71-1.51 0-3.78.04-6.81.11-3.03.07-5.3.11-6.81.11-1.78 0-4.46.25-8.02.75-3.56.51-6.24.76-8.02.76-1.62 0-2.97-.57-4.03-1.71-1.07-1.14-1.6-2.52-1.6-4.13 0-1.61.56-3 1.67-4.15 1.12-1.15 2.52-1.73 4.22-1.73 1.92 0 4.45-.22 7.59-.65-.05-3.4-.08-9.91-.08-19.54 0-7.84.26-15.32.79-22.44l-8.61.26c-1.59 0-2.91-.56-3.98-1.69-1.07-1.12-1.61-2.52-1.61-4.19 0-1.7.51-3.08 1.54-4.15.95-.98 2.11-1.54 3.49-1.69 2.26-.23 6.18-.34 11.76-.34 5.02 0 11.49.6 19.41 1.82 3.15.49 4.72 2.48 4.72 5.97 0 1.84-.61 3.3-1.83 4.37C1008.28 1757.25 1007.14 1757.7 1005.88 1757.7zM1048.23 1807.11c-6.16 2.51-13.95 3.76-23.36 3.76-1.59 0-3.01-.72-4.26-2.16-1.26-1.44-1.89-2.98-1.89-4.62v-45.83c-.08-1.96-.15-3.92-.2-5.88-.08-2.22-.01-4.09.2-5.62.37-2.71 2.68-4.35 6.94-4.93 2.01-.63 5.34-.95 9.99-.95 5 0 9.78 1.76 14.36 5.27 5.37 4.09 8.05 9.21 8.05 15.35 0 3.31-.56 6.11-1.67 8.39-.87 1.85-2.39 3.82-4.56 5.92 2.56 1.36 4.84 3.4 6.82 6.14 2.25 3.05 3.37 6.09 3.37 9.12 0 3.83-1.92 7.46-5.75 10.89C1053.71 1804.24 1051.03 1805.96 1048.23 1807.11zM1035.66 1752.6c-3.41 0-5.46.03-6.15.09l.04 9.17-.04 9.08c2.41.32 4.22.42 5.43.3 8.09-.69 12.13-3.93 12.13-9.73 0-2.04-1.19-4.02-3.57-5.92C1041.05 1753.59 1038.43 1752.6 1035.66 1752.6zM1040.3 1783.16c-2.41 0-6-.1-10.79-.3v16.17c4.55-.26 9.48-1.21 14.79-2.86 4.65-1.44 6.95-3 6.9-4.67-.08-2.22-1.57-4.19-4.48-5.92C1044.45 1784.2 1042.31 1783.39 1040.3 1783.16zM1108.35 1753.38c-.53 0-1.08-.09-1.67-.26-4.28-1.27-8.45-1.9-12.49-1.9-1.98 0-4.11.17-6.38.52-2.27.34-4.69.86-7.26 1.56 0 3.83-.12 9.53-.36 17.07 1.48-.11 6.65-.65 15.51-1.6 5.05-.55 8.25-.82 9.6-.82 1.56 0 2.9.54 4.01 1.62 1.11 1.08 1.67 2.52 1.67 4.3 0 3.43-1.68 5.38-5.04 5.83-2.11.18-5.27.46-9.48.87-3.75.46-9.41 1.02-16.97 1.68-.19 3.66-.28 6.61-.28 8.86 0 5.65.3 8.87.91 9.64.29.37 1.96.56 5 .56 1.64 0 4.11-.04 7.42-.13 3.3-.08 5.78-.13 7.42-.13.53 0 1.31-.09 2.34-.26 1.03-.17 1.8-.26 2.3-.26 1.53 0 2.84.48 3.93 1.43 1.24 1.07 1.86 2.56 1.86 4.49 0 3.23-1.55 5.16-4.64 5.79-2.64.55-8.13.82-16.46.82-8.62 0-14.24-1.27-16.85-3.8-2.88-2.79-4.32-8.85-4.32-18.16 0-3.86.26-9.66.78-17.4s.77-13.52.77-17.36c0-1.01-.13-2.5-.4-4.48-.26-1.97-.4-3.46-.4-4.47 0-4.38 1.85-6.57 5.55-6.57 1.16 0 2.23.36 3.21 1.08 3.07-.84 5.98-1.46 8.75-1.88 2.76-.42 5.37-.63 7.83-.63 6.66 0 11.99.84 15.98 2.51 2.43 1.01 3.65 2.84 3.65 5.49 0 1.5-.48 2.82-1.43 3.97C1111.34 1752.71 1109.99 1753.38 1108.35 1753.38z" class="colorffffff svgShape"></path><g fill="#000000" class="color000000 svgShape"><path fill="#3d9eff" d="M1339.74,1120.62l-786.17,475.14c-39.8-3.83-70.96-37.37-70.96-78.16v-396.98H1339.74z" class="colorffcc3d svgShape"></path><path fill="#021b79" d="M553.57,1599.15c-0.11,0-0.22,0-0.33-0.02c-42.19-4.06-74.02-39.11-74.02-81.53v-396.98
							c0-1.87,1.52-3.38,3.38-3.38h857.13c1.52,0,2.85,1.01,3.26,2.48c0.41,1.46-0.21,3.02-1.51,3.8l-786.17,475.14
							C554.79,1598.98,554.19,1599.15,553.57,1599.15z M486,1124.01v393.6c0,38.55,28.64,70.46,66.79,74.68l774.81-468.28H486z" class="color030047 svgShape"></path></g><g fill="#000000" class="color000000 svgShape"><path fill="#3d9eff" d="M1339.74,1120.62v396.98c0,43.4-35.16,78.52-78.52,78.52H561.14c-2.57,0-5.09-0.14-7.56-0.36
							L1339.74,1120.62z" class="colorffcc3d svgShape"></path><path fill="#021b79" d="M1261.22,1599.51H561.13c-2.54,0-5.12-0.12-7.87-0.37c-1.46-0.13-2.67-1.19-2.99-2.61
							c-0.33-1.43,0.3-2.9,1.55-3.66l786.17-475.14c1.04-0.63,2.35-0.65,3.41-0.05c1.07,0.6,1.72,1.73,1.72,2.95v396.98
							C1343.13,1562.77,1306.38,1599.51,1261.22,1599.51z M565.12,1592.74h696.1c41.43,0,75.14-33.71,75.14-75.14v-390.98
							L565.12,1592.74z" class="color030047 svgShape"></path></g><g fill="#000000" class="color000000 svgShape"><path fill="#021b79" d="M1339.74,1120.62l-96.53,58.35L911.2,1379.69l-428.59-259.07l96.53-92.71l216.34-207.7l62.49-60.02
							c29.72-28.54,76.68-28.54,106.44,0l62.49,60.02l216.3,207.7L1339.74,1120.62z" class="color030047 svgShape"></path><path fill="#021b79" d="M911.2,1383.08c-0.61,0-1.21-0.16-1.75-0.49l-428.58-259.07c-0.9-0.54-1.5-1.48-1.61-2.52
							c-0.12-1.04,0.26-2.09,1.02-2.82l375.37-360.42c31.13-29.9,79.94-29.9,111.13,0l375.32,360.42c0.76,0.73,1.14,1.77,1.02,2.82
							c-0.11,1.04-0.71,1.98-1.61,2.52l-428.54,259.07C912.41,1382.92,911.81,1383.08,911.2,1383.08z M488.14,1120.01l423.06,255.73
							l423.02-255.73L962.08,762.64c-28.55-27.38-73.24-27.38-101.75,0L488.14,1120.01z" class="color030047 svgShape"></path></g><g fill="#000000" class="color000000 svgShape"><path fill="#ffffff" d="M1243.19,878.71v300.25l-332.01,200.72l-332.06-200.72V878.71c0-32.31,26.19-58.51,58.51-58.51h547.06
								C1217,820.2,1243.19,846.4,1243.19,878.71z" class="colorffffff svgShape"></path><path fill="#021b79" d="M911.19,1383.06c-0.61,0-1.21-0.16-1.75-0.49l-332.06-200.72c-1.01-0.61-1.63-1.71-1.63-2.89V878.71
								c0-34.12,27.76-61.89,61.89-61.89h547.06c34.12,0,61.89,27.76,61.89,61.89v300.25c0,1.19-0.62,2.28-1.63,2.89l-332.01,200.72
								C912.4,1382.9,911.79,1383.06,911.19,1383.06z M582.51,1177.05l328.67,198.67l328.62-198.67V878.71
								c0-30.39-24.73-55.12-55.12-55.12H637.63c-30.39,0-55.12,24.73-55.12,55.12V1177.05z M1243.19,1178.96h0.04H1243.19z" class="color030047 svgShape"></path></g><g fill="#000000" class="color000000 svgShape"><path fill="#5eadfd" d="M972.09,1150.53c-11.76,0-21.91-1.77-30.45-5.33c-1.93-0.8-3.78-1.69-5.54-2.67
								c-10.14-5.63-22.31-5.05-32.48,0.52c-0.06,0.03-0.11,0.06-0.17,0.09c-5.72,3.09-11.29,4.64-16.73,4.64
								c-12.31,0-23.94-5.18-34.86-15.55c-10.93-10.36-16.39-21.73-16.39-34.1c0-21.19,8.07-40.54,24.21-58.06
								c16.15-17.52,34.48-26.28,55-26.28c4.66,0,8.54,1.78,11.65,5.32c3.1,3.55,4.66,7.85,4.66,12.88
								c0,6.87-5.55,11.97-16.64,15.29c-14.76,4.36-25.19,9.34-31.28,14.95c-8.99,8.13-13.48,20.1-13.48,35.9
								c0,3.32,1.5,6.53,4.49,9.62c3.44,3.43,7.71,5.04,12.81,4.81c9.65-0.46,18.58-9.73,26.79-27.83
								c7.43-15.8,14.03-23.71,19.8-23.71c4.66,0,8.43,1.78,11.32,5.33c2.88,3.55,4.33,7.9,4.33,13.05c0,2.29-0.36,5.73-1.08,10.31
								c-0.72,4.58-1.08,8.02-1.08,10.31c0,7.45,3.1,12.14,9.32,14.09c2.44,0.8,7.71,1.2,15.81,1.2c15.2,0,25.85-3.84,31.95-11.51
								c5.55-6.87,8.32-18.26,8.32-34.18c0-28.06-10.93-50.96-32.78-68.71c-19.97-16.26-43.82-24.39-71.56-24.39
								c-32.28,0-57.58,12.6-75.88,37.79c-16.53,22.45-24.79,50.67-24.79,84.69c0,31.38,9.7,57.83,29.12,79.36
								c20.19,22.45,46.15,33.67,77.88,33.67c8.64,0,18.36-1.64,29.15-4.92c0.85-0.26,1.72-0.56,2.55-0.88l27.87-10.69
								c4.88-1.83,8.04-2.75,9.48-2.75c4.55,0,8.49,1.86,11.82,5.58c3.33,3.72,4.99,8.05,4.99,12.97c0,10.88-11.81,19.7-35.44,26.45
								c-17.86,5.04-34.56,7.56-50.09,7.56c-15.64,0-31.65-3.12-48.01-9.36c-16.37-6.24-30.37-14.58-42.02-24.99
								c-34.39-30.69-51.59-68.02-51.59-112c0-43.98,11.76-80.74,35.28-110.28c24.96-31.61,58.18-47.41,99.68-47.41
								c37.5,0,69.61,11.63,96.35,34.87c28.07,24.62,42.1,55.77,42.1,93.45c0,25.77-6.1,45.58-18.3,59.44
								C1015.41,1143.38,996.72,1150.53,972.09,1150.53z" class="color605efd svgShape"></path></g><g fill="#000000" class="color000000 svgShape"><path fill="#021b79" d="M2066.18 1258.5c-18.82 59.1 52.4 104.4 72.18 164.93 19.78 60.59 32.09 142.73-99.9 137.45-132.04-5.23-153.55-52.68-140.75-163.44 12.86-110.81 50.02-151.54 50.02-151.54M1787.94 999.16c0 0-64.47 16.82-83.46 59.6-18.99 42.79 21.35 139-43.38 190.63-64.74 51.63-178.2 160.3-67.46 243.34s284.96-98.83 284.96-98.83l1.74-172.42L1787.94 999.16z" class="color030047 svgShape"></path><path fill="#ffffff" d="M1327.93,1407.45l-30.29-27.87l-148.17-165.37c-6.6-7.38-16.65-9.65-25.37-6.76
									c-3.68,1.22-7.07,3.31-9.92,6.32c-7.35,7.84-8.61,19.65-3,28.83l41.25,67.93c0,0-20.65,4.67-21.74,24.74
									c0,0-0.15,0.01-0.49,0.05c-2.87,0.25-17.77,2.82-19.13,26.05c-4.62,1.53-16.01,23.15-2.08,46.52
									c3.16,5.33,3.7,12.74,9.9,18.08c22.34,19.07,68.63,66.27,68.63,66.27l28.24,29.35" class="colorffffff svgShape"></path><path fill="#021b79" d="M1215.76,1524.96c-0.89,0-1.78-0.35-2.44-1.04l-28.24-29.35c-0.44-0.45-46.42-47.29-68.39-66.04
									c-4.72-4.06-6.56-9-8.18-13.36c-0.76-2.05-1.48-3.98-2.42-5.57c-10.84-18.19-6.77-34.23-4.52-40.28
									c1.36-3.66,3.6-7.78,6.25-9.93c1.87-20.66,14.33-25.8,19.76-27.06c1.91-13.26,12.01-20.61,19.73-23.71l-39.02-64.26
									c-6.37-10.43-4.96-23.96,3.43-32.9c3.18-3.36,6.99-5.78,11.32-7.22c10.34-3.41,21.7-0.39,28.95,7.71l148.17,165.38
									l30.06,27.63c1.37,1.26,1.46,3.41,0.2,4.78c-1.26,1.38-3.4,1.47-4.78,0.2l-30.29-27.87l-148.4-165.61
									c-5.46-6.09-14.01-8.38-21.78-5.8c-3.27,1.08-6.13,2.91-8.53,5.44c-6.3,6.72-7.36,16.89-2.57,24.74l41.25,67.94
									c0.57,0.93,0.65,2.08,0.22,3.08c-0.43,1-1.31,1.74-2.37,1.98c-0.73,0.17-18.17,4.42-19.11,21.62
									c-0.09,1.72-1.46,3.09-3.18,3.19c-2.86,0.25-15.23,2.37-16.44,22.91c-0.08,1.38-1,2.58-2.31,3.01
									c-0.64,0.37-3.41,3.64-5.14,9.98c-1.64,5.98-3.18,18.03,4.91,31.6c1.25,2.11,2.11,4.42,2.95,6.66
									c1.47,3.94,2.85,7.67,6.24,10.58c22.18,18.94,68.37,65.99,68.83,66.46l28.26,29.38c1.3,1.34,1.26,3.49-0.09,4.78
									C1217.45,1524.65,1216.6,1524.96,1215.76,1524.96z" class="color030047 svgShape"></path><path fill="#ffffff" d="M1170.5,1402.63c0,0,12.52,33.45-26.11,32.75c0,0-9.42-2.42-22.54-9.96
									c-19.73-11.33-27.65-36.49-16.88-56.53c2.31-4.3,4.71-7.07,6.1-7.53L1170.5,1402.63z" class="colorffffff svgShape"></path><path fill="#021b79" d="M1145.57,1438.77c-0.41,0-0.82,0-1.24-0.01c-0.26,0-0.52-0.04-0.78-0.11
									c-0.4-0.11-10.02-2.62-23.38-10.3c-21.48-12.34-29.63-39.73-18.18-61.06c1.59-2.95,4.73-8.05,8-9.14
									c1.02-0.34,2.13-0.18,3.01,0.43l59.43,41.26c0.56,0.39,1,0.95,1.24,1.6c0.24,0.64,5.81,15.89-1.99,26.93
									C1166.8,1435.28,1158.02,1438.77,1145.57,1438.77z M1144.88,1432.01c10.39-0.07,17.63-2.41,21.26-7.52
									c4.82-6.79,2.42-16.66,1.5-19.73l-56.45-39.19c-0.79,0.94-1.96,2.57-3.23,4.94c-9.74,18.13-2.75,41.46,15.59,51.99
									C1134.64,1428.87,1143.07,1431.48,1144.88,1432.01z" class="color030047 svgShape"></path><path fill="#ffffff" d="M1185.72,1399.53c-18.73,29.13-79.32-27.25-79.32-27.25c-4.28-28.91,20.92-36.71,23.79-36.97
									C1130.2,1335.32,1199.53,1378.06,1185.72,1399.53z" class="colorffffff svgShape"></path><path fill="#021b79" d="M1169.86,1411.26c-26.21,0-64.09-34.95-65.76-36.5c-0.56-0.52-0.93-1.22-1.04-1.98
									c-1.65-11.13,0.56-20.63,6.54-28.21c7.01-8.89,17.34-12.36,20.3-12.62c0.71-0.07,1.46,0.11,2.07,0.49
									c2.16,1.34,53.09,32.97,58.46,56.61c1.05,4.62,0.42,8.76-1.87,12.32l0,0c-3.6,5.61-8.78,8.87-15.37,9.71
									C1172.11,1411.2,1170.99,1411.26,1169.86,1411.26z M1109.6,1370.61c6.05,5.43,41.56,36.41,62.76,33.73
									c4.57-0.57,8.02-2.75,10.52-6.64l0,0c1.29-2,1.6-4.34,0.96-7.16c-3.84-16.89-39.44-42.32-54.28-51.64
									c-2.74,0.77-9.91,3.63-14.92,10.21C1110.26,1354.86,1108.56,1362.09,1109.6,1370.61z" class="color030047 svgShape"></path><path fill="#ffffff" d="M1191.79,1380.21C1191.59,1380.2,1191.95,1380.24,1191.79,1380.21c-18.91-0.65-68.61-40.88-68.61-40.88
									c-1.81-24.14,29.25-28.8,29.25-28.8l51.55,36.96C1216.61,1356.52,1207.35,1380.38,1191.79,1380.21z" class="colorffffff svgShape"></path><path fill="#021b79" d="M1191.77,1383.6c-0.11,0-0.23-0.01-0.34-0.02c-0.05,0-0.1-0.01-0.15-0.02
									c-19.18-0.71-65.06-37.41-70.24-41.6c-0.73-0.59-1.18-1.45-1.25-2.38c-1.62-21.57,20.31-30.63,32.13-32.4
									c0.88-0.14,1.76,0.08,2.47,0.59l51.54,36.96c6.63,4.74,9.02,13.62,6.08,22.6c-2.65,8.12-9.88,16.25-20.07,16.25
									C1191.88,1383.6,1191.83,1383.61,1191.77,1383.6z M1191.86,1376.83c0.03,0,0.06,0,0.09,0c6.81,0,11.75-5.8,13.64-11.59
									c1.59-4.87,1.48-11.37-3.59-15l-50.38-36.12c-5.43,1.11-25.36,6.35-25.14,23.54
									C1140.98,1349.25,1177.66,1376.29,1191.86,1376.83z" class="color030047 svgShape"></path><path fill="#ffffff" d="M1247.82,1408.29l-2.84-5.17c-10.1-18.41-13.27-39.83-8.93-60.37l3.3-15.64l-27.37,3.67
									c-13.78,1.85-27.04-5.97-32.09-18.92l0,0c-2.08-5.32,1.04-11.25,6.6-12.55l54.3-12.69c16.45-3.84,33.01,6,37.48,22.3
									l19.39,70.66l30.29,27.87" class="colorffffff svgShape"></path><path fill="#021b79" d="M1247.82,1411.67c-1.2,0-2.36-0.63-2.97-1.76l-2.84-5.17c-10.48-19.11-13.78-41.37-9.28-62.69
									l2.3-10.95l-22.62,3.03c-15.38,2.07-30.06-6.59-35.69-21.04c-1.35-3.45-1.13-7.31,0.59-10.59c1.73-3.27,4.79-5.64,8.39-6.48
									l54.29-12.69c18.3-4.26,36.54,6.58,41.52,24.7l19.13,69.72l29.57,27.21c1.37,1.26,1.46,3.41,0.2,4.78
									c-1.26,1.38-3.4,1.47-4.78,0.2l-30.29-27.87c-0.47-0.43-0.81-0.98-0.97-1.59l-19.39-70.66
									c-4.01-14.6-18.69-23.34-33.44-19.9l-54.29,12.69c-1.7,0.4-3.13,1.51-3.94,3.04c-0.81,1.54-0.91,3.35-0.28,4.97
									c4.5,11.54,16.22,18.44,28.49,16.79l27.37-3.67c1.07-0.16,2.19,0.25,2.93,1.05c0.75,0.81,1.06,1.93,0.83,3l-3.3,15.64
									c-4.16,19.74-1.11,40.35,8.59,58.05l2.84,5.17c0.9,1.64,0.3,3.69-1.34,4.59
									C1248.93,1411.54,1248.37,1411.67,1247.82,1411.67z" class="color030047 svgShape"></path><path fill="#5eadfd" d="M1721.2,1411.05l-128.32,337.4c-8.23,21.68-22.73,39.64-40.95,52.2
								c-18.26,12.57-40.25,19.75-63.42,19.75c-37.23,0-72-18.53-92.72-49.45l-95.43-117.81l-56.89-70.25l-51.55-63.64
								l143.13-141.77l142.38,196.91l33.46-75.11c20.15-47.04,65.04-78.75,116.1-82.12L1721.2,1411.05z" class="color605efd svgShape"></path><path fill="#ffffff" d="M1315.34,1619.52c0,13.36-5.78,25.36-14.98,33.64l-56.89-70.25c7.49-5.47,16.69-8.67,26.58-8.67
								C1295.06,1574.24,1315.34,1594.51,1315.34,1619.52z" opacity=".4" class="colorffffff svgShape"></path><circle cx="1449.64" cy="1627.46" r="30.37" fill="#ffffff" opacity=".4" class="colorffffff svgShape"></circle><circle cx="1353.52" cy="1541.54" r="15.33" fill="#ffffff" opacity=".4" class="colorffffff svgShape"></circle><circle cx="1528.49" cy="1734.97" r="15.21" fill="#ffffff" opacity=".4" class="colorffffff svgShape"></circle><circle cx="1535.24" cy="1658.97" r="11.89" fill="#ffffff" opacity=".4" class="colorffffff svgShape"></circle><circle cx="1434.46" cy="1750.15" r="15.18" fill="#ffffff" opacity=".4" class="colorffffff svgShape"></circle><path fill="#021b79" d="M1395.79,1774.35c-0.98,0-1.96-0.43-2.63-1.26l-203.89-251.71c-1.09-1.35-0.99-3.31,0.25-4.53
								l143.13-141.76c0.7-0.7,1.66-1.06,2.66-0.96c0.99,0.08,1.89,0.59,2.46,1.39l142.38,196.92c1.1,1.52,0.76,3.63-0.76,4.72
								c-1.52,1.1-3.64,0.76-4.72-0.76l-140.07-193.72l-138.15,136.83l201.96,249.33c1.18,1.45,0.95,3.58-0.5,4.76
								C1397.29,1774.1,1396.54,1774.35,1395.79,1774.35z" class="color030047 svgShape"></path><path fill="#5eadfd" d="M2159.04,1525.68l-27.4,467.59h-595.85l68.09-486.18c8.66-46.81,44.91-83.65,91.55-93.08
								c71.91-14.53,97.27-15.34,140.57-16.14c48.92-0.93,110.74-7.22,189.4,0.42c10.94,1.06,22.22,2.41,33.84,4.06
								C2119.67,1410.97,2163.23,1464.75,2159.04,1525.68z" class="color605efd svgShape"></path><path fill="#021b79" d="M1535.8,1996.65c-0.16,0-0.31-0.01-0.48-0.03c-1.85-0.26-3.14-1.97-2.88-3.82l68.09-486.18
								c0.26-1.85,1.96-3.13,3.82-2.88c1.85,0.26,3.14,1.97,2.88,3.82l-68.09,486.18
								C1538.91,1995.43,1537.46,1996.65,1535.8,1996.65z" class="color030047 svgShape"></path><path fill="#ffffff" d="M1773.53,1402.51l28.35-162.61l147.07-1.37l-27.88,169.23c0,0-44.09,46.46-104.37,30.91
										C1768.24,1426.16,1773.53,1402.51,1773.53,1402.51z" class="colorffffff svgShape"></path><path fill="#021b79" d="M1841.3,1445.2c-8.1,0-16.61-0.98-25.45-3.26c-49.92-12.88-46.07-37.94-45.65-40.07l28.34-162.56
										c0.28-1.61,1.67-2.79,3.3-2.8l147.07-1.37c0.82,0.09,1.95,0.43,2.6,1.18c0.65,0.76,0.93,1.77,0.77,2.75l-27.88,169.23
										c-0.11,0.67-0.42,1.29-0.89,1.78C1923.13,1410.5,1889.56,1445.2,1841.3,1445.2z M1776.84,1403.21
										c-0.07,0.38-3.32,20.82,40.71,32.18c53.53,13.83,94.53-23.57,100.36-29.25l27.05-164.19l-140.22,1.31l-27.87,159.83
										C1776.86,1403.13,1776.85,1403.17,1776.84,1403.21z M1773.53,1402.51h0.04H1773.53z" class="color030047 svgShape"></path><path fill="#ffffff" d="M1947.11,1250.6c57.72-73.81,34.11-184.66,34.11-184.66l-196.74-63.62
										c-3.29,3.19-70.13,67.5-72.64,185.89c-2.07,97.54,95.13,144.26,191.25,99.56" class="colorffffff svgShape"></path><path fill="#021b79" d="M1829.64,1308.25c-26.19,0-50.81-6.74-71.39-20.17c-33.01-21.55-50.69-57.04-49.79-99.94
										c2.46-115.92,66.34-181.15,73.62-188.2c0.89-0.87,2.26-1.22,3.44-0.84l196.74,63.62c1.15,0.37,2.02,1.33,2.27,2.52
										c0.24,1.12,23.27,113.25-34.76,187.45c-1.15,1.47-3.28,1.74-4.75,0.58c-1.47-1.15-1.73-3.28-0.58-4.75
										c52.02-66.51,36.55-165.1,33.84-179.97l-192.88-62.37c-11.64,11.83-67.89,74.46-70.17,182.11
										c-0.86,40.48,15.73,73.91,46.72,94.13c37.69,24.6,89.92,25.45,139.72,2.29c1.69-0.79,3.71-0.06,4.49,1.64
										c0.79,1.7,0.05,3.71-1.64,4.49C1879.54,1302.46,1853.91,1308.25,1829.64,1308.25z" class="color030047 svgShape"></path><path fill="#021b79" d="M1947.74,1245.9l-18.97-72.52c0,0-33.89,12.19-76.69-36.31c-42.8-48.49-73.9-106.15-71.25-138.28
									c2.65-32.13,163.3-48.32,250.28,31.45c86.98,79.82,53.88,169.2,35.06,228.25" class="color030047 svgShape"></path><path fill="#ffffff" d="M1920.76,1180.54c0,0,40.66-39.5,63-31.24s12.73,87.27-14.03,94.31c-26.77,7.04-48.08-3.83-48.08-3.83" class="colorffffff svgShape"></path><path fill="#021b79" d="M1951.21,1249.37c-17.91,0-30.41-6.23-31.1-6.59c-1.66-0.85-2.32-2.88-1.48-4.54
								c0.85-1.67,2.89-2.33,4.55-1.49c0.2,0.11,20.58,10.19,45.68,3.57c13.46-3.54,22.69-29.96,23.83-53.47
								c0.89-18.29-3.08-31.8-10.11-34.4c-16.7-6.14-48.59,19.93-59.48,30.5c-1.34,1.3-3.48,1.27-4.79-0.07
								c-1.3-1.34-1.27-3.48,0.07-4.79c1.72-1.67,42.5-40.9,66.53-31.99c10.17,3.76,15.59,19.11,14.52,41.07
								c-1.27,26.22-11.6,55.14-28.87,59.68C1963.69,1248.69,1957.16,1249.37,1951.21,1249.37z" class="color030047 svgShape"></path><path fill="#ffffff" d="M1950.38,1191.22c1.63-2.88,3.86-5.41,6.51-7.4c1.66-1.24,3.53-2.28,5.57-2.64
								c2.04-0.36,4.29,0.05,5.85,1.41c2.21,1.93,2.59,5.21,2.48,8.14c-0.2,5.35-1.5,10.66-3.8,15.49" class="colorffffff svgShape"></path><path fill="#021b79" d="M1966.99,1209.63c-0.48,0-0.98-0.11-1.45-0.33c-1.69-0.81-2.41-2.82-1.6-4.51
								c2.1-4.41,3.3-9.31,3.47-14.17c0.11-2.77-0.34-4.61-1.32-5.46c-0.69-0.6-1.84-0.86-3.04-0.63c-1.26,0.22-2.61,0.88-4.13,2.01
								c-2.27,1.7-4.2,3.89-5.59,6.34c-0.92,1.64-2.98,2.2-4.61,1.29c-1.63-0.92-2.2-2.98-1.29-4.61c1.85-3.27,4.42-6.19,7.43-8.44
								c2.39-1.79,4.69-2.86,7.02-3.27c3.19-0.55,6.44,0.26,8.66,2.2c2.63,2.29,3.82,5.83,3.63,10.81
								c-0.21,5.77-1.63,11.59-4.12,16.82C1969.47,1208.91,1968.26,1209.63,1966.99,1209.63z" class="color030047 svgShape"></path><path fill="#ffffff" d="M1672.93,1509.22l-80.92,108.39c0,0-49.77-47.88-63.54-71.81c-13.73-23.93-1.65-57.47-1.65-57.47
								s-49.23-34.39-53.35-47.04c-7.49-22.95,14.85-30.24,14.85-30.24c-12.65-26.15,15.12-33.58,15.12-33.58
								c-2.56-5.43-2.5-10.6-1.15-15.12c3.44-11.61,17.95-15.66,27.5-8.2l21.8,17.01l-17.04-29.39c-1.75-3.04-2.6-6.41-2.6-9.79
								c0-4.76,1.72-9.52,5.1-13.19c7.8-8.5,21.19-8.44,28.92,0.14l41.61,46.23l2.7-15.02c1.28-7.26,6.28-13.33,13.16-16.03
								c2.56-1.01,5.16-1.45,7.69-1.45c11.14,0,21.06,8.91,21.19,20.96l0.94,81.9l-0.03-0.03c0.51,8.77-0.94,17.65-4.45,26.05
								l-7.39,17.72L1672.93,1509.22z" class="colorffffff svgShape"></path><path fill="#021b79" d="M1592.01,1620.99c-0.87,0-1.71-0.33-2.34-0.95c-2.05-1.97-50.28-48.49-64.13-72.56
								c-12.3-21.43-5.29-49.39-2.71-57.83c-10.28-7.28-48.59-35.08-52.57-47.32c-4.4-13.47,0.52-22.2,5.42-27.16
								c2.8-2.82,5.9-4.72,8.18-5.88c-2.89-7.43-2.99-14.17-0.28-20.09c3.54-7.74,11-11.88,15.44-13.75
								c-1.41-4.58-1.41-9.31,0.02-14.07c1.9-6.41,6.72-11.28,13.22-13.36c6.74-2.16,14.06-0.86,19.6,3.47l8.03,6.26l-8.28-14.28
								c-2-3.47-3.06-7.44-3.06-11.48c0-5.78,2.13-11.28,5.99-15.48c4.33-4.73,10.48-7.43,16.88-7.43c0.03,0,0.06,0,0.09,0
								c6.45,0.03,12.63,2.79,16.95,7.59l36.99,41.09l1.48-8.21c1.48-8.34,7.32-15.47,15.25-18.58c2.82-1.11,5.83-1.68,8.93-1.68
								c13.4,0,24.42,10.9,24.58,24.3l0.94,81.89c0,0.11,0,0.22-0.01,0.33c0.46,9.31-1.13,18.4-4.73,27.03l-6.49,15.56l29.86,28.36
								c1.24,1.18,1.41,3.11,0.38,4.48l-80.92,108.39c-0.58,0.78-1.47,1.27-2.43,1.35
								C1592.2,1620.99,1592.11,1620.99,1592.01,1620.99z M1518.8,1353.77c-1.49,0-3.01,0.23-4.47,0.7
								c-4.34,1.39-7.54,4.61-8.8,8.85c-1.3,4.34-0.97,8.61,0.96,12.71c0.42,0.9,0.43,1.95,0.01,2.86
								c-0.42,0.91-1.22,1.59-2.19,1.85c-0.11,0.03-10.83,3.04-14.59,11.32c-2.2,4.83-1.65,10.72,1.64,17.51
								c0.43,0.88,0.45,1.9,0.07,2.8c-0.38,0.9-1.14,1.59-2.07,1.89c-1.94,0.65-18.9,6.92-12.68,25.97
								c2.75,8.43,33.4,32.27,52.07,45.31c1.25,0.88,1.76,2.48,1.25,3.92c-0.11,0.32-11.37,32.38,1.41,54.64
								c11.53,20.03,49.61,58,60.2,68.38l76.81-102.89l-29.37-27.89c-1.02-0.96-1.33-2.46-0.79-3.76l7.39-17.72
								c3.27-7.84,4.68-16.1,4.19-24.55c-0.01-0.22,0-0.43,0.03-0.64l-0.94-81.38c-0.11-9.71-8.1-17.61-17.81-17.61
								c-2.24,0-4.42,0.41-6.45,1.21c-5.76,2.26-10,7.42-11.07,13.47l-2.7,15.03c-0.23,1.27-1.16,2.3-2.41,2.66
								c-1.24,0.34-2.58-0.03-3.44-0.99l-41.61-46.23c-3.09-3.43-7.34-5.33-11.95-5.35c-0.02,0-0.04,0-0.07,0
								c-4.57,0-8.79,1.86-11.89,5.24c-2.71,2.96-4.21,6.83-4.21,10.91c0,2.86,0.74,5.66,2.15,8.09l17.03,29.39
								c0.82,1.4,0.52,3.18-0.7,4.25c-1.23,1.07-3.04,1.11-4.3,0.11l-21.8-17.01C1525.14,1354.82,1522,1353.77,1518.8,1353.77z" class="color030047 svgShape"></path><path fill="#5eadfd" d="M2161.7,1591.46l-88.39,175.12l-34.43,68.23l-24.55,48.67c-22.98,45.5-69.63,74.21-120.58,74.21
								c-20.07,0-36.82-4.29-54.52-12.61c-17.74-8.28-36.44-20.57-49.24-35.99l-239.22-279.65l118.68-145.34l221.85,214.92
								l130.63-300.73c10.94,1.06,22.22,2.41,33.84,4.06c5.66,0.8,11.41,2.07,17.24,3.76
								C2151.22,1428.84,2191.48,1515.62,2161.7,1591.46z" class="color605efd svgShape"></path><path fill="#ffffff" d="M2073.31,1766.58l-34.43,68.23c-14.74-5.41-25.26-19.52-25.26-36.12c0-21.25,17.24-38.49,38.49-38.49
								C2059.92,1760.2,2067.23,1762.57,2073.31,1766.58z" opacity=".4" class="colorffffff svgShape"></path><circle cx="2059.12" cy="1613.24" r="23.19" fill="#ffffff" opacity=".4" class="colorffffff svgShape"></circle><circle cx="1920.01" cy="1876.83" r="39.69" fill="#ffffff" opacity=".4" class="colorffffff svgShape"></circle><g opacity=".4" fill="#000000" class="color000000 svgShape"><circle cx="2078.36" cy="1876.83" r="24.59" fill="#ffffff" class="colorffffff svgShape"></circle></g><g opacity=".4" fill="#000000" class="color000000 svgShape"><circle cx="2101.37" cy="1802.27" r="14.74" fill="#ffffff" class="colorffffff svgShape"></circle></g><g opacity=".4" fill="#000000" class="color000000 svgShape"><circle cx="1795.02" cy="1782.48" r="7.91" fill="#ffffff" class="colorffffff svgShape"></circle></g><g opacity=".4" fill="#000000" class="color000000 svgShape"><circle cx="1676.36" cy="1683.97" r="22.29" fill="#ffffff" class="colorffffff svgShape"></circle></g><g opacity=".4" fill="#000000" class="color000000 svgShape"><circle cx="1918.73" cy="1532.97" r="30.22" fill="#ffffff" class="colorffffff svgShape"></circle></g><g opacity=".4" fill="#000000" class="color000000 svgShape"><circle cx="2089.86" cy="1501.31" r="11.51" fill="#ffffff" class="colorffffff svgShape"></circle></g><g opacity=".4" fill="#000000" class="color000000 svgShape"><circle cx="1819.1" cy="1550" r="8.46" fill="#ffffff" class="colorffffff svgShape"></circle></g><g opacity=".4" fill="#000000" class="color000000 svgShape"><circle cx="1848.86" cy="1493.67" r="8.46" fill="#ffffff" class="colorffffff svgShape"></circle></g><g opacity=".4" fill="#000000" class="color000000 svgShape"><circle cx="1733.89" cy="1484.1" r="26.97" fill="#ffffff" class="colorffffff svgShape"></circle></g><g opacity=".4" fill="#000000" class="color000000 svgShape"><circle cx="1612.36" cy="1837.15" r="20.14" fill="#ffffff" class="colorffffff svgShape"></circle></g><g opacity=".4" fill="#000000" class="color000000 svgShape"><circle cx="1587.91" cy="1749.46" r="9.35" fill="#ffffff" class="colorffffff svgShape"></circle></g><g fill="#000000" class="color000000 svgShape"><path fill="#021b79" d="M1893.73,1961.08c-1.87,0-3.38-1.52-3.38-3.38s1.52-3.38,3.38-3.38c49.99,0,95.04-27.73,117.56-72.36
								l147.37-292.03c0.84-1.67,2.87-2.34,4.55-1.5c1.67,0.84,2.34,2.88,1.5,4.55L2017.34,1885
								C1993.66,1931.93,1946.3,1961.08,1893.73,1961.08z" class="color030047 svgShape"></path></g><g fill="#000000" class="color000000 svgShape"><path fill="#021b79" d="M1894.78,1702.39c-0.47,0-0.93-0.1-1.39-0.3c-1.71-0.77-2.46-2.77-1.7-4.48l91.53-203.82
								c0.77-1.7,2.77-2.45,4.48-1.7c1.71,0.77,2.46,2.77,1.7,4.48l-91.53,203.82C1897.3,1701.65,1896.07,1702.39,1894.78,1702.39z" class="color030047 svgShape"></path></g><g fill="#000000" class="color000000 svgShape"><path fill="#021b79" d="M1793.47,1912.49c-0.95,0-1.9-0.4-2.57-1.19l-239.19-279.65c-1.06-1.24-1.08-3.07-0.05-4.34
								l118.65-145.35c0.6-0.74,1.48-1.19,2.43-1.24c1.03-0.06,1.88,0.3,2.56,0.96l252.79,247.57c1.34,1.31,1.36,3.45,0.05,4.79
								c-1.31,1.34-3.45,1.36-4.79,0.05l-250.14-244.98l-114.52,140.3l237.35,277.5c1.21,1.42,1.05,3.56-0.37,4.77
								C1795.03,1912.22,1794.25,1912.49,1793.47,1912.49z" class="color030047 svgShape"></path></g><g fill="#000000" class="color000000 svgShape"><line x1="1551.58" x2="1589.26" y1="1371.17" y2="1404.45" fill="#fff"></line><path fill="#021b79" d="M1589.26,1407.83c-0.8,0-1.59-0.28-2.24-0.85l-37.68-33.28c-1.4-1.24-1.53-3.38-0.3-4.78
									c1.24-1.41,3.38-1.54,4.78-0.3l37.68,33.28c1.4,1.24,1.53,3.38,0.3,4.78C1591.13,1407.44,1590.19,1407.83,1589.26,1407.83z" class="color030047 svgShape"></path><line x1="1503.45" x2="1572.75" y1="1377.49" y2="1435.51" fill="#fff"></line><path fill="#021b79" d="M1572.75,1438.9c-0.77,0-1.54-0.26-2.17-0.79l-69.3-58.02c-1.43-1.2-1.62-3.34-0.42-4.77
									c1.21-1.43,3.34-1.61,4.77-0.42l69.3,58.02c1.43,1.2,1.62,3.34,0.42,4.77C1574.67,1438.48,1573.71,1438.9,1572.75,1438.9z" class="color030047 svgShape"></path><g fill="#000000" class="color000000 svgShape"><line x1="1488.32" x2="1547.74" y1="1411.05" y2="1461.93" fill="#fff"></line><path fill="#021b79" d="M1547.74,1465.31c-0.78,0-1.56-0.27-2.2-0.82l-59.42-50.88c-1.42-1.22-1.58-3.35-0.37-4.77
									c1.22-1.41,3.35-1.58,4.77-0.37l59.42,50.88c1.42,1.22,1.58,3.35,0.37,4.77
									C1549.64,1464.91,1548.69,1465.31,1547.74,1465.31z" class="color030047 svgShape"></path></g></g><g fill="#000000" class="color000000 svgShape"><ellipse cx="1751.81" cy="1140.25" fill="#021b79" rx="12" ry="8.05" transform="rotate(-64.526 1751.692 1140.217)" class="color030047 svgShape"></ellipse><path fill="#ffffff" d="M1753.57,1115.43c8.55-0.21,16.58,5.27,20.38,13.91" class="colorffffff svgShape"></path><path fill="#021b79" d="M1773.94,1132.73c-1.3,0-2.54-0.75-3.1-2.02c-3.25-7.4-9.87-12.09-17.19-11.89
										c-1.69-0.06-3.41-1.43-3.47-3.3c-0.04-1.87,1.43-3.42,3.3-3.47c10.02-0.26,19.19,6.01,23.56,15.93
										c0.75,1.71-0.03,3.71-1.74,4.46C1774.87,1132.64,1774.4,1132.73,1773.94,1132.73z" class="color030047 svgShape"></path><ellipse cx="1815.01" cy="1170.3" fill="#021b79" rx="12" ry="8.05" transform="rotate(-64.526 1814.887 1170.26)" class="color030047 svgShape"></ellipse><g fill="#000000" class="color000000 svgShape"><path fill="#ffffff" d="M1816.77,1145.48c8.55-0.21,16.58,5.27,20.38,13.91" class="colorffffff svgShape"></path><path fill="#021b79" d="M1837.14,1162.77c-1.3,0-2.54-0.75-3.1-2.02c-3.26-7.39-9.94-12.01-17.19-11.89
										c-1.67-0.04-3.41-1.43-3.47-3.3c-0.04-1.87,1.43-3.42,3.3-3.47c10.02-0.31,19.19,6.01,23.56,15.93
										c0.75,1.71-0.03,3.71-1.74,4.46C1838.06,1162.68,1837.6,1162.77,1837.14,1162.77z" class="color030047 svgShape"></path></g><g fill="#000000" class="color000000 svgShape"><path fill="#ffffff" d="M1782.71,1153.26c-4.06,8.67-15.69,32.02-19.76,40.69c-2.45,5.23-4.94,10.67-4.47,16.27
									c0.48,5.59,4.82,11.39,11.51,12.41" class="colorffffff svgShape"></path><path fill="#021b79" d="M1769.99,1226.01c-0.17,0-0.34-0.01-0.52-0.04c-8.68-1.34-13.8-8.79-14.36-15.47
									c-0.56-6.6,2.27-12.65,4.78-17.99c2.03-4.32,5.93-12.28,9.83-20.26c3.93-8.03,7.88-16.08,9.92-20.43
									c0.79-1.69,2.79-2.43,4.5-1.63c1.69,0.79,2.42,2.81,1.63,4.5c-2.04,4.37-6.01,12.47-9.97,20.54
									c-3.89,7.94-7.77,15.85-9.79,20.15c-2.14,4.57-4.56,9.75-4.16,14.55c0.33,3.94,3.48,8.56,8.65,9.35
									c1.85,0.28,3.11,2.01,2.83,3.86C1773.08,1224.81,1771.64,1226.01,1769.99,1226.01z" class="color030047 svgShape"></path></g><g fill="#000000" class="color000000 svgShape"><path fill="#021b79" d="M1796.84,1246.62c-3.38,0-6.75-0.48-10.02-1.45c-1.79-0.53-2.82-2.41-2.28-4.2
									c0.53-1.79,2.42-2.82,4.2-2.28c7.21,2.13,15.13,1.32,21.73-2.24c6.61-3.56,11.66-9.72,13.85-16.9
									c0.55-1.79,2.42-2.78,4.23-2.25c1.79,0.55,2.79,2.44,2.25,4.23c-2.71,8.88-8.95,16.49-17.12,20.88
									C1808.5,1245.19,1802.68,1246.62,1796.84,1246.62z" class="color030047 svgShape"></path></g></g></g><g fill="#000000" class="color000000 svgShape"><circle cx="1224.74" cy="839.45" r="105.96" fill="#021b79" class="color030047 svgShape"></circle><path fill="#021b79" d="M1224.74,948.8c-60.3,0-109.35-49.05-109.35-109.35s49.05-109.35,109.35-109.35
						s109.35,49.05,109.35,109.35S1285.03,948.8,1224.74,948.8z M1224.74,736.87c-56.56,0-102.58,46.01-102.58,102.58
						s46.01,102.58,102.58,102.58c56.56,0,102.58-46.02,102.58-102.58S1281.3,736.87,1224.74,736.87z" class="color030047 svgShape"></path></g><g fill="#000000" class="color000000 svgShape"><path fill="#ffffff" d="M1240.45,881.84l-24.63-0.07c-7.82,0-11.73-2.68-11.73-8.05c0-6.04,4.36-9.06,13.09-9.06
						c0.83,0,1.74,0.02,2.73,0.07v-59.99c-3.6,2.71-5.94,4.06-7.01,4.06c-2.31,0-4.33-0.9-6.05-2.71c-1.72-1.8-2.58-3.9-2.58-6.29
						c0-2.48,1.39-5.03,4.16-7.64l7.01-5.54l7.57-6.63c3.1-2.44,6.1-3.65,8.99-3.65c3.72,0,5.59,2.43,5.59,7.31
						c0,5.36-0.21,12.91-0.62,22.65c-0.41,9.74-0.62,23.65-0.62,41.73v16.36h4.09c2.4,0,4.42,0.84,6.05,2.5
						c1.63,1.67,2.45,3.75,2.45,6.22c0,2.48-0.82,4.56-2.45,6.22C1244.87,881.01,1242.85,881.84,1240.45,881.84z" class="colorffffff svgShape"></path></g><g fill="#000000" class="color000000 svgShape"><polygon fill="#5eadfd" points="1806.27 575.51 2176.65 503.35 2133.95 665.02" class="color605efd svgShape"></polygon><polygon fill="#021b79" points="1905.04 602.49 2101.15 536.73 1946.37 613.78 1932.54 688.19" class="color030047 svgShape"></polygon><polygon fill="#0575e6" points="1932.54 688.19 2012.96 631.97 1946.37 613.78" class="color3d3df4 svgShape"></polygon></g><g fill="#000000" class="color000000 svgShape"><circle cx="520.76" cy="703.3" r="105.38" fill="#3d9eff" class="colorffcc3d svgShape"></circle><circle cx="508.17" cy="670.48" r="24.2" fill="#ffffff" class="colorffffff svgShape"></circle><path fill="#ffffff" d="M577.21,740.76l-73.36,28.15c-9.33,3.59-19.29-3.4-19.24-13.44c0.16-22.49,13.89-43.64,36.15-52.18
						c22.27-8.54,46.6-1.98,61.76,14.62C589.28,725.32,586.56,737.19,577.21,740.76z" class="colorffffff svgShape"></path></g><g fill="#000000" class="color000000 svgShape"><path fill="#e6f1fc" d="M1537.9,779.42c-5.84,3.83-11.46,6.25-16.85,7.26c-1.22,0.23-2.43,0.39-3.62,0.48
					c-6.86,0.5-12.72,4.75-15.96,10.82c-0.02,0.03-0.04,0.07-0.05,0.1c-1.83,3.39-4.1,5.97-6.8,7.74c-6.11,4-13.57,5.21-22.36,3.62
					c-8.8-1.59-15.21-5.46-19.23-11.6c-6.89-10.52-9.18-22.75-6.86-36.7c2.32-13.95,8.57-24.26,18.76-30.94
					c2.31-1.51,4.82-1.9,7.52-1.14c2.7,0.75,4.87,2.38,6.5,4.88c2.24,3.41,1.14,7.75-3.29,13c-5.91,6.96-9.47,12.83-10.67,17.6
					c-1.82,6.96-0.16,14.36,4.98,22.21c1.08,1.65,2.87,2.75,5.36,3.32c2.82,0.59,5.47-0.01,7.93-1.78
					c4.64-3.37,6.06-10.88,4.25-22.53c-1.45-10.26-0.74-16.33,2.12-18.21c2.31-1.52,4.77-1.86,7.35-1.04
					c2.59,0.82,4.72,2.52,6.39,5.07c0.75,1.14,1.68,2.96,2.82,5.47c1.13,2.51,2.07,4.33,2.82,5.47c2.42,3.7,5.49,5.02,9.21,3.96
					c1.47-0.4,4.22-1.91,8.24-4.55c7.55-4.94,11.59-10.31,12.12-16.11c0.52-5.22-1.81-11.78-6.99-19.68
					c-9.13-13.93-22-21.75-38.63-23.45c-15.2-1.58-29.69,2.14-43.46,11.16c-16.03,10.5-24.49,24.98-25.39,43.45
					c-0.91,16.52,4.17,33.23,15.24,50.12c10.21,15.58,23.63,25.56,40.27,29.93c17.33,4.58,33.87,1.71,49.62-8.61
					c4.29-2.81,8.58-6.79,12.87-11.93c0.34-0.41,0.67-0.84,0.98-1.27l10.36-14.37c1.83-2.5,3.1-3.98,3.82-4.45
					c2.26-1.48,4.82-1.84,7.68-1.07c2.86,0.77,5.1,2.37,6.7,4.82c3.54,5.4,0.54,13.62-8.99,24.66c-7.23,8.31-14.7,14.99-22.41,20.05
					c-7.77,5.09-16.73,8.74-26.88,10.97c-10.16,2.22-19.82,2.64-28.99,1.26c-27.06-4.05-47.74-17-62.05-38.83
					c-14.3-21.84-20.42-43.91-18.35-66.23c2.11-23.81,13.47-42.47,34.07-55.96c18.62-12.2,38.35-16.87,59.18-14.02
					c21.94,3.1,39.05,14,51.3,32.71c8.38,12.79,11.8,24.62,10.24,35.47C1557.08,761.77,1550.13,771.41,1537.9,779.42z" class="colore6f3fc svgShape"></path></g><g fill="#000000" class="color000000 svgShape"><path fill="#e6f1fc" d="M362.56,1437.97c-6.88-1.19-12.63-3.26-17.27-6.21c-1.05-0.67-2.04-1.37-2.97-2.12
					c-5.36-4.32-12.53-5.22-19.05-3c-0.04,0.01-0.07,0.02-0.11,0.04c-3.66,1.23-7.07,1.56-10.25,1.01
					c-7.2-1.25-13.47-5.46-18.81-12.63c-5.34-7.17-7.38-14.37-6.12-21.61c2.15-12.39,8.84-22.89,20.06-31.5
					c11.22-8.61,22.83-11.87,34.84-9.78c2.72,0.47,4.81,1.91,6.27,4.3c1.45,2.39,1.93,5.06,1.42,8.01
					c-0.7,4.02-4.46,6.44-11.29,7.25c-9.07,1.05-15.68,2.9-19.81,5.56c-6.08,3.84-9.93,10.38-11.53,19.63
					c-0.34,1.94,0.21,3.97,1.65,6.08c1.66,2.36,4,3.73,7,4.11c5.69,0.71,11.86-3.8,18.5-13.55c5.95-8.49,10.61-12.44,13.99-11.85
					c2.73,0.47,4.75,1.9,6.08,4.27c1.33,2.37,1.73,5.06,1.2,8.07c-0.23,1.34-0.79,3.31-1.68,5.92c-0.89,2.61-1.45,4.58-1.68,5.92
					c-0.76,4.35,0.58,7.42,4.02,9.19c1.35,0.72,4.39,1.49,9.12,2.31c8.89,1.54,15.51,0.38,19.85-3.49
					c3.94-3.45,6.72-9.84,8.34-19.15c2.85-16.41-1.22-30.91-12.19-43.52c-10.03-11.54-23.15-18.72-39.37-21.53
					c-18.88-3.28-34.95,1.52-48.22,14.39c-11.95,11.45-19.65,27.12-23.1,47.01c-3.19,18.35-0.2,34.81,8.97,49.37
					c9.53,15.18,23.57,24.38,42.12,27.6c5.05,0.88,10.9,0.91,17.55,0.08c0.53-0.07,1.06-0.15,1.58-0.26l17.39-3.42
					c3.04-0.57,4.98-0.79,5.83-0.64c2.66,0.46,4.78,1.95,6.34,4.47c1.57,2.51,2.1,5.21,1.6,8.09c-1.11,6.36-8.91,10.32-23.42,11.87
					c-10.96,1.13-20.98,0.91-30.06-0.67c-9.15-1.59-18.19-5.04-27.13-10.35c-8.94-5.31-16.28-11.61-22.03-18.89
					c-17-21.44-23.26-45.02-18.79-70.74c4.47-25.72,15.08-46.02,31.84-60.91c17.81-15.95,38.84-21.82,63.11-17.6
					c21.93,3.81,39.53,13.87,52.81,30.18c13.91,17.25,18.96,36.89,15.13,58.93c-2.62,15.07-8.2,26.04-16.74,32.9
					C388.62,1438.19,376.96,1440.47,362.56,1437.97z" class="colore6f3fc svgShape"></path></g><g fill="#000000" class="color000000 svgShape"><path fill="#3d9eff" d="M2237.6,1296.22l-26.59,16.73c-12.48,7.78-28.88,4.05-36.68-8.34l-16.73-26.58
			c-7.8-12.4-4.07-28.79,8.32-36.59l26.61-16.82c12.39-7.8,28.79-4.07,36.68,8.34l16.71,26.67
			C2253.72,1272.02,2249.99,1288.41,2237.6,1296.22z" class="colorffcc3d svgShape"></path></g><g fill="#000000" class="color000000 svgShape"><path fill="#3d9eff" d="M1490.39,1205.24l-16.68,10.5c-7.83,4.88-18.12,2.54-23.01-5.23l-10.5-16.68
			c-4.89-7.78-2.55-18.06,5.22-22.96l16.69-10.55c7.78-4.89,18.06-2.55,23.01,5.23l10.49,16.74
			C1500.51,1190.06,1498.17,1200.34,1490.39,1205.24z" class="colorffcc3d svgShape"></path></g><g fill="#000000" class="color000000 svgShape"><path fill="#3d9eff" d="M1982.58,924.61l-10.57,6.65c-4.96,3.09-11.48,1.61-14.59-3.32l-6.66-10.57c-3.1-4.93-1.62-11.45,3.31-14.55
			l10.58-6.69c4.93-3.1,11.45-1.62,14.59,3.32l6.65,10.61C1988.99,914.99,1987.51,921.51,1982.58,924.61z" class="colorffcc3d svgShape"></path></g><g fill="#000000" class="color000000 svgShape"><path fill="#3d9eff" d="M1561.99,642.56l-10.57,6.65c-4.96,3.09-11.48,1.61-14.59-3.32l-6.66-10.57c-3.1-4.93-1.62-11.45,3.31-14.55
			l10.58-6.69c4.93-3.1,11.45-1.62,14.59,3.32l6.65,10.61C1568.41,632.94,1566.92,639.46,1561.99,642.56z" class="colorffcc3d svgShape"></path></g><g fill="#000000" class="color000000 svgShape"><path fill="#3d9eff" d="M1100.99,661.9l-10.57,6.65c-4.96,3.09-11.48,1.61-14.59-3.32l-6.66-10.57c-3.1-4.93-1.62-11.45,3.31-14.55
			l10.58-6.69c4.93-3.1,11.45-1.62,14.59,3.32l6.65,10.61C1107.4,652.28,1105.92,658.8,1100.99,661.9z" class="colorffcc3d svgShape"></path></g></svg>