<svg xmlns="http://www.w3.org/2000/svg" enable-background="new 0 0 850 850" viewBox="0 0 850 850" id="Malelawyerisgraduatinginlaw"><path fill="#5f698e" d="M288.43,240.05c0,0,23.54-13.25,77.72-2.73c51.17,9.94,132.57,20.57,125.73-4.86
						c-0.57-2.1-3.26-2.76-4.65-1.08c-5.35,6.46-20.45,17.59-55.79,3.6c-54.19-21.44-96-24.46-143.02-22.36v27.43H288.43z" class="color8e6e5f svgShape"></path><path fill="#5f698e" d="M288.43,240.05c0,0-23.54-13.25-77.72-2.73c-51.17,9.94-132.57,20.57-125.73-4.86
						c0.57-2.1,3.26-2.76,4.65-1.08c5.35,6.46,20.45,17.59,55.79,3.6c54.19-21.44,96-24.46,143.02-22.36v27.43H288.43z" class="color8e6e5f svgShape"></path><path fill="#47527a" d="M287.78,489.21c-11.35,0-20.41-9.48-19.89-20.82l2.46-53.67l0.1-2.05l0.14-3.09l0.27-5.95l0.14-3.09
					l0.1-2.05l7.33-159.81l0.91-19.78l0.2-4.42l0.16-3.37c0.22-4.88,4.25-8.72,9.13-8.72c2.46,0,4.7,0.97,6.34,2.56
					c1.64,1.58,2.7,3.79,2.8,6.24l0.12,3.26l0.15,3.91l0.76,20.18l6.03,159.95l0.07,2.05l0.12,3.09l0.22,5.95l0.11,3.09l0.08,2.05
					l2.03,53.83C308.11,479.83,299.07,489.21,287.78,489.21z" class="color7a5647 svgShape"></path><path fill="#5f698e" d="M288.79,161.78c0,0-15.78,28.52,0,28.52S288.79,161.78,288.79,161.78z" class="color8e6e5f svgShape"></path><path fill="#7baee1" d="M288.76,168.78c0,0-10.28,18.58,0,18.58S288.76,168.78,288.76,168.78z" class="colore1c27b svgShape"></path><circle cx="288.44" cy="202.39" r="15.98" fill="#5f698e" transform="rotate(-80.781 288.443 202.387)" class="color8e6e5f svgShape"></circle><path fill="#7baee1" d="M297.65,202.39c0,5.09-4.12,9.21-9.21,9.21s-9.21-4.12-9.21-9.21c0-5.09,4.12-9.21,9.21-9.21
						S297.65,197.3,297.65,202.39z" class="colore1c27b svgShape"></path><path fill="#5f698e" d="M457.08,263.35c-4.41,0-7.99-3.59-7.99-7.99c0-4.41,3.58-7.99,7.99-7.99s7.99,3.59,7.99,7.99
								C465.07,259.76,461.49,263.35,457.08,263.35z M457.08,249.13c-3.44,0-6.23,2.8-6.23,6.23c0,3.44,2.8,6.23,6.23,6.23
								c3.44,0,6.23-2.8,6.23-6.23C463.32,251.92,460.52,249.13,457.08,249.13z" class="color8e6e5f svgShape"></path><path fill="#5f698e" d="M410.99 397.11c-.09 0-.18-.01-.26-.04-.46-.15-.72-.64-.57-1.1l42.48-134.76c.15-.46.64-.72 1.1-.57s.72.64.57 1.1L411.83 396.5C411.71 396.87 411.36 397.11 410.99 397.11zM502.76 397.57c-.37 0-.72-.24-.84-.62l-42.48-134.76c-.15-.46.11-.96.57-1.1.47-.15.96.11 1.1.57l42.48 134.76c.15.46-.11.96-.57 1.1C502.93 397.56 502.84 397.57 502.76 397.57zM457.08 397.11c-.49 0-.88-.39-.88-.88V262.47c0-.49.39-.88.88-.88s.88.39.88.88v133.76C457.96 396.72 457.57 397.11 457.08 397.11z" class="color8e6e5f svgShape"></path><path fill="#47527a" d="M514.95,391.26c-5.27,27.1-29.12,47.57-57.76,47.57s-52.5-20.47-57.76-47.57H514.95z" class="color7a5647 svgShape"></path><g fill="#000000" class="color000000 svgShape"><path fill="#5f698e" d="M111.88,263.35c-4.41,0-7.99-3.59-7.99-7.99c0-4.41,3.58-7.99,7.99-7.99s7.99,3.59,7.99,7.99
								C119.87,259.76,116.28,263.35,111.88,263.35z M111.88,249.13c-3.44,0-6.23,2.8-6.23,6.23c0,3.44,2.8,6.23,6.23,6.23
								s6.23-2.8,6.23-6.23C118.11,251.92,115.31,249.13,111.88,249.13z" class="color8e6e5f svgShape"></path><path fill="#5f698e" d="M65.78 397.11c-.09 0-.18-.01-.26-.04-.46-.15-.72-.64-.57-1.1l42.48-134.76c.15-.46.64-.72 1.1-.57s.72.64.57 1.1L66.62 396.5C66.5 396.87 66.15 397.11 65.78 397.11zM157.55 397.57c-.37 0-.72-.24-.84-.62l-42.48-134.76c-.15-.46.11-.96.57-1.1.47-.15.96.11 1.1.57l42.48 134.76c.15.46-.11.96-.57 1.1C157.73 397.56 157.64 397.57 157.55 397.57zM111.88 397.11c-.49 0-.88-.39-.88-.88V262.47c0-.49.39-.88.88-.88s.88.39.88.88v133.76C112.75 396.72 112.36 397.11 111.88 397.11z" class="color8e6e5f svgShape"></path><path fill="#47527a" d="M169.74,391.26c-5.27,27.1-29.12,47.57-57.76,47.57s-52.5-20.47-57.76-47.57H169.74z" class="color7a5647 svgShape"></path></g><polygon fill="#7baee1" points="305.46 409.59 270.59 409.59 270.87 403.64 305.24 403.64" class="colore1c27b svgShape"></polygon><polygon fill="#7baee1" points="305.11 400.54 271.01 400.54 271.1 398.49 305.04 398.49" class="colore1c27b svgShape"></polygon><polygon fill="#7baee1" points="305.65 414.72 270.36 414.72 270.45 412.67 305.57 412.67" class="colore1c27b svgShape"></polygon><g fill="#000000" class="color000000 svgShape"><path fill="#47527a" d="M410.99,499.05H166.56c0-1.66,0.13-3.29,0.39-4.87c1.04-6.55,4.15-12.41,8.63-16.9
						c5.57-5.57,13.28-9.02,21.78-9.02h182.83c15.35,0,28.08,11.23,30.41,25.92C410.86,495.76,410.99,497.39,410.99,499.05z" class="color7a5647 svgShape"></path><path fill="#2f3b69" d="M416.06,513.09H161.1c-3.88,0-7.02-3.14-7.02-7.02l0,0c0-3.88,3.14-7.02,7.02-7.02h254.95
						c3.88,0,7.02,3.14,7.02,7.02l0,0C423.07,509.94,419.93,513.09,416.06,513.09z" class="color693f2f svgShape"></path></g><g fill="#000000" class="color000000 svgShape"><path fill="#47527a" d="M288.92,688.22H62.38c-10.15-29.19-10.15-58.38,0-87.57h226.53v87.57H288.92z" class="color7a5647 svgShape"></path><rect width="189.73" height="9.52" x="273.69" y="600.65" fill="#1d4bf6" class="colorf6931d svgShape"></rect><rect width="189.73" height="9.52" x="273.69" y="678.7" fill="#1d4bf6" class="colorf6931d svgShape"></rect><path fill="#f2f7fd" d="M453.72,667.79c0.91,3.65,2.03,7.28,3.37,10.91H284.28c-7.74-22.84-7.74-45.68,0-68.53h172.81
							c-1.34,3.63-2.46,7.28-3.37,10.91c-0.1,0.4-0.2,0.81-0.29,1.2c-0.82,3.4-1.44,6.79-1.87,10.19c-0.06,0.4-0.1,0.79-0.14,1.2
							c-0.4,3.4-0.61,6.8-0.62,10.19c-0.01,0.4-0.01,0.81,0,1.2c0.01,3.4,0.22,6.8,0.62,10.19c0.04,0.4,0.09,0.81,0.14,1.2
							c0.43,3.4,1.05,6.79,1.87,10.19C453.52,667,453.62,667.4,453.72,667.79z" class="colorfdf3f2 svgShape"></path><path fill="#d3dae1" d="M453.72 621.07c-.1.4-.2.81-.29 1.2H299.25c-.33 0-.61-.27-.61-.59 0-.33.27-.61.61-.61H453.72zM451.56 632.46c-.06.4-.1.79-.14 1.2H310.66c-.33 0-.59-.27-.59-.61 0-.32.26-.59.59-.59H451.56zM450.8 643.84c-.01.4-.01.81 0 1.2H295.12c-.32 0-.59-.27-.59-.61 0-.32.27-.59.59-.59H450.8zM451.56 656.42H306.54c-.33 0-.59-.27-.59-.61 0-.33.26-.59.59-.59h144.87C451.46 655.63 451.5 656.03 451.56 656.42zM453.72 667.79H299.25c-.33 0-.61-.26-.61-.59s.27-.59.61-.59h154.18C453.52 667 453.62 667.4 453.72 667.79z" class="colore1d4d3 svgShape"></path><path fill="#f2f7fd" d="M453.72,667.79c0.91,3.65,2.03,7.28,3.37,10.91h-26.87c-48.92-45.63-145.94-68.53-145.94-68.53h172.81
							c-1.34,3.63-2.46,7.28-3.37,10.91c-0.1,0.4-0.2,0.81-0.29,1.2c-0.82,3.4-1.44,6.79-1.87,10.19c-0.06,0.4-0.1,0.79-0.14,1.2
							c-0.4,3.4-0.61,6.8-0.62,10.19c-0.01,0.4-0.01,0.81,0,1.2c0.01,3.4,0.22,6.8,0.62,10.19c0.04,0.4,0.09,0.81,0.14,1.2
							c0.43,3.4,1.05,6.79,1.87,10.19C453.52,667,453.62,667.4,453.72,667.79z" opacity=".55" class="colorfdf3f2 svgShape"></path><g fill="#000000" class="color000000 svgShape"><path fill="#ffffff" d="M100.06 624h9.67v34.51h16.94v8.09h-26.61V624zM142.67 655.67l-3.04 10.93h-9.99l13.02-42.6h12.64l13.21 42.6h-10.37l-3.29-10.93H142.67zM153.47 648.47l-2.66-9.04c-.76-2.53-1.52-5.69-2.15-8.22h-.13c-.63 2.53-1.26 5.75-1.96 8.22l-2.53 9.04H153.47zM177.37 666.61L167.26 624h10.3l3.22 17.57c.95 5.06 1.83 10.56 2.53 14.86h.13c.7-4.62 1.71-9.73 2.78-14.98l3.6-17.45h10.24l3.41 17.95c.95 4.99 1.64 9.55 2.28 14.29h.13c.63-4.74 1.58-9.73 2.47-14.79l3.48-17.45h9.8l-11 42.6H200.2l-3.6-18.33c-.82-4.3-1.52-8.28-2.02-13.15h-.13c-.76 4.8-1.45 8.85-2.47 13.15l-4.05 18.33h-10.56V666.61z" class="colorffffff svgShape"></path></g><path fill="#47527a" d="M463.41,600.65H275.59c0,0-11.55,15.7-12.34,42.51s6.82,45.05,6.82,45.05h193.34v-9.52H284.28
						c0,0-6.44-19.91-5.8-35.77c0.63-15.86,3.67-29.6,5.8-32.76l179.13,0.01V600.65z" class="color7a5647 svgShape"></path><g fill="#000000" class="color000000 svgShape"><path fill="#021b79" d="M339.9,600.65H113.37c-10.15-29.19-10.15-58.38,0-87.57H339.9V600.65z" class="color284386 svgShape"></path><rect width="189.73" height="9.52" x="324.67" y="513.09" fill="#101939" class="color101f39 svgShape"></rect><rect width="189.73" height="9.52" x="324.67" y="591.13" fill="#101939" class="color101f39 svgShape"></rect><path fill="#f2f7fd" d="M504.7,580.22c0.91,3.65,2.03,7.28,3.37,10.91H335.26c-7.74-22.84-7.74-45.68,0-68.53h172.81
							c-1.34,3.63-2.46,7.28-3.37,10.91c-0.1,0.4-0.2,0.81-0.29,1.2c-0.82,3.4-1.44,6.79-1.87,10.19c-0.06,0.4-0.1,0.79-0.14,1.2
							c-0.4,3.4-0.61,6.8-0.62,10.19c-0.01,0.4-0.01,0.81,0,1.2c0.01,3.4,0.22,6.8,0.62,10.19c0.04,0.4,0.09,0.81,0.14,1.2
							c0.43,3.4,1.05,6.79,1.87,10.19C504.5,579.43,504.6,579.83,504.7,580.22z" class="colorfdf3f2 svgShape"></path><path fill="#d3dae1" d="M504.7 533.51c-.1.4-.2.81-.29 1.2H350.23c-.33 0-.6-.27-.6-.59 0-.33.27-.61.6-.61H504.7zM502.54 544.89c-.06.4-.1.79-.14 1.2H361.65c-.33 0-.59-.27-.59-.61 0-.32.26-.59.59-.59H502.54zM501.78 556.27c-.01.4-.01.81 0 1.2H346.1c-.32 0-.59-.27-.59-.61 0-.32.27-.59.59-.59H501.78zM502.54 568.85H357.53c-.33 0-.59-.27-.59-.61 0-.33.26-.59.59-.59H502.4C502.44 568.06 502.48 568.46 502.54 568.85zM504.7 580.22H350.23c-.33 0-.6-.26-.6-.59s.27-.59.6-.59h154.18C504.5 579.43 504.6 579.83 504.7 580.22z" class="colore1d4d3 svgShape"></path><path fill="#f2f7fd" d="M504.7,580.22c0.91,3.65,2.03,7.28,3.37,10.91H481.2c-48.92-45.63-145.94-68.53-145.94-68.53h172.81
							c-1.34,3.63-2.46,7.28-3.37,10.91c-0.1,0.4-0.2,0.81-0.29,1.2c-0.82,3.4-1.44,6.79-1.87,10.19c-0.06,0.4-0.1,0.79-0.14,1.2
							c-0.4,3.4-0.61,6.8-0.62,10.19c-0.01,0.4-0.01,0.81,0,1.2c0.01,3.4,0.22,6.8,0.62,10.19c0.04,0.4,0.09,0.81,0.14,1.2
							c0.43,3.4,1.05,6.79,1.87,10.19C504.5,579.43,504.6,579.83,504.7,580.22z" opacity=".55" class="colorfdf3f2 svgShape"></path><path fill="#021b79" d="M514.4,513.09H326.58c0,0-11.55,15.7-12.34,42.51s6.82,45.05,6.82,45.05H514.4v-9.52H335.26
						c0,0-6.44-19.91-5.8-35.77c0.63-15.86,3.67-29.6,5.8-32.76l179.13,0.01v-9.52H514.4z" class="color284386 svgShape"></path></g></g><g fill="#000000" class="color000000 svgShape"><path fill="#c2defa" d="M607.28,300.98c-7.21-8.48-17.16-25.74-19.89-38.24c-2.71-12.49-14.57-46.09-18.63-60.88
					c-4.04-14.78-13.01,4.26-13.01,4.26s5.22,56.89,7.06,66.14c1.82,9.26,14.28,50.93,27.78,49.33
					C604.1,319.98,607.28,300.98,607.28,300.98z" class="colorfac6c2 svgShape"></path><path fill="#c2defa" d="M569.68,207.78c-1.17-11.18-0.78-11.01-1.49-15.17c-1.52-8.77-2.9-12.49-4.67-15.21
						c-2.06-3.22-8.82-11.72-10.83-10.28c-2.01,1.43,6.24,10.48,7.45,11.92c1.24,1.48-6.36-10.41-9.38-9.85
						c-3.02,0.53,7.3,13.99,7.3,13.99s-8.63-13.7-9.79-11.48c-0.88,1.64,5.74,13.49,6.46,14.52c1.45,2.01-7.02-13.82-7.26-11.14
						c-0.22,2.68,2.08,10.19,2.74,11.85c0.67,1.68-1.68,4.79,5.98,20.92C558.28,212.21,569.68,207.78,569.68,207.78z" class="colorfac6c2 svgShape"></path><path fill="#c2defa" d="M561.95,201.64c-3.75-4.65-3.85-10.14-5.05-13.22c-1.22-3.09-2.93-8.23-2.31-9.13
						c0.62-0.89,2.32-1.24,4.48,3.74c2.2,4.97,7.15,6.88,8.3,9.01c1.17,2.13,2.53,4,2.11,10.79c-0.17,2.99-4.32,1.99-4.32,1.99
						L561.95,201.64z" class="colorfac6c2 svgShape"></path><path fill="#31343d" d="M610.33,305c-3.15-5.82-10.76-20.17-10.76-20.17s-30.04,24.21-30.48,29.58c0,0,18.83,30.5,24.65,30.94
				C599.57,345.8,610.33,305,610.33,305z" class="color31323d svgShape"></path><path fill="#555a6f" d="M693.05,593.77c4.11-1.08,13.18,1.32,17.84,6.64c1.54,7.03-14.29,45.82-14.29,45.82
					s-6.48,16.94-14.05,11.94c-11.33-7.47,0.12-18.63-3.06-29.43c15.62-5.9,4-9.23,11.66-14.21
					C699.84,608.85,693.05,593.77,693.05,593.77z" class="color555b6f svgShape"></path><path fill="#555a6f" d="M706.6,607.28c4.9-9.38,1.54-9.27,1.54-9.27c1.4,0.49,7.67,3.87,6.1,7.09
					c-5.72,11.67-8.37,37.7-23.42,53.66c-5.03,5.35-7.44-1.48-7.86-0.3c1.7,0.36,8.17-6.23,9.26-8.17
					C703.35,630.32,701.58,616.94,706.6,607.28z" class="color555b6f svgShape"></path><path fill="#242b46" d="M628.58,443.74l-46.26-5.36l2.01,44.38c0,0,7.62,50.5,11.47,76.05c-0.04,0.05-0.17,0.16-0.17,0.16
					c0.21,8.51,1.39,14.15,9.61,19.12c8.25,4.94,21.94,12.16,32.56,17.12c10.63,4.95,26.71,12.18,30.09,16.47
					c3.34,4.31,9.87,11.56,9.87,11.56s6.44-7.08,12.36-6.67c5.92,0.43,9.6-4.4,13.03-9c3.44-4.59,0.35-14.06-1.95-15.76
					c-2.29-1.73-11.67-0.37-17.42-7.06c-5.75-6.67-39.68-30.78-45.8-32.96c2.09-2.03,1.52-6.02-2.11-5.16
					c-3.64,0.86,2.83-0.82,1.87-2.71c-0.97-1.91-1.89,1.51-3.71-2.83c-0.7-1.69,1.04,0.36,2.18-1.17c0.91-1.21-0.52-6.45-2.56-8.62
					c1.75-19.41,6.27-38.69,8.58-54.73L628.58,443.74z" class="color242c46 svgShape"></path><path fill="#555a6f" d="M681.36,631.94c-3.06-2.71-5.42-8.95-5.49-10.79c-0.07-3.68,7.24-9.71,10.31-8.24
						c3.04,1.5,7.18,11.2,7.18,11.2L681.36,631.94z" class="color555b6f svgShape"></path><path fill="#555a6f" d="M687.35,632.65c-0.16-0.2-0.47-0.28-0.72-0.15l0,0l-4.85,2.46l5.84-9.09c0.16-0.26,0.1-0.6-0.13-0.78l0,0
						c-0.24-0.19-0.55-0.18-0.78,0.02l0,0l-6.71,6.45l-0.01,0.02c-0.24,0.22-0.25,0.6,0.01,0.83l0,0c0.2,0.22,0.59,0.22,0.79,0.03
						l0,0l3.15-3l-4.31,6.71c-0.18,0.21-0.11,0.52,0.06,0.7l0,0c0.17,0.21,0.46,0.25,0.7,0.13l0,0l4.51-2.26l-4.86,6.49
						c-0.2,0.24-0.12,0.61,0.16,0.81l0,0c0.22,0.19,0.61,0.14,0.79-0.12l0,0l6.4-8.53c0.02-0.01,0.03-0.05,0.05-0.09l0,0
						C687.54,633.08,687.49,632.82,687.35,632.65L687.35,632.65z" class="color555b6f svgShape"></path><g fill="#000000" class="color000000 svgShape"><path fill="#242b46" d="M701.55,592.05c-2.31-1.72-11.67-0.36-17.42-7.03c-5.76-6.67-39.67-30.8-45.8-32.98
						c2.1-2.01,1.52-6.02-2.1-5.15c-3.65,0.86,2.83-0.82,1.87-2.73c-0.97-1.89-1.92,1.53-3.71-2.82c-0.71-1.69,1.05,0.37,2.18-1.16
						c0.91-1.21-0.52-6.45-2.53-8.62c0.62-7.09,1.64-14.17,2.77-21.08c-0.7-1.73-1.32-3.41-1.73-4.86
						c-1.94-6.9-11.49-5.83-11.49-5.83c-4.42,12.52-9.33,41.06-7.05,50.44c2.3,9.36,13.87,15.79,24.03,21.18
						c9.04,4.82,45.94,22.66,59.71,40.46c1.13-1.27,2.18-2.65,3.21-4.04C706.94,603.23,703.86,593.77,701.55,592.05z" class="color242c46 svgShape"></path></g><g fill="#000000" class="color000000 svgShape"><path fill="#555a6f" d="M754.81,601.04c8.84,10.72,14.78,4.78,18.81,1.23c7.13-6.29,9.62-18.32,7.13-24.4
					c-2.49-6.07-5.36-8.65-6.38-11.93c-1.88-5.93-13.96-11.29-13.96-11.29l12.54,29.71L754.81,601.04z" class="color555b6f svgShape"></path><path fill="#555a6f" d="M752.93,552.78c11.08,9.66,3.8,19.42,1.86,21.98c-4.89,6.42-9.07,2.96-10.06,2.22c-1.5-0.68,0,0,0,0
					c4.55,8.38,4.52,13.25,7.69,20.42c7.37,16.63,24.69-0.35,23.38-13.17c-1-9.68-3.98-11.33-8.59-21.59
					C763.98,555.42,759.32,551.09,752.93,552.78z" class="color555b6f svgShape"></path><path fill="#242b46" d="M624.54,417.04l-33.77,44.4l28.65,22.82c0,0,0.55,0.73,1.41,2c11.27,20.83,15.48,36.8,29.04,43.96
					c0,0,24.6,9.41,42.13,17.12s44.5,23.16,44.5,23.16s12.62-10.96,23.24-15.58c10.61-4.6-0.59-4.02-7.49-9.16
					c-6.9-5.13-33.69-28.42-46.04-35.85c-12.36-7.43-16.23-7.26-22.11-6.59c-4.3,0.51-2.02-0.9-2.02-0.9s1.22-1.79,0.06-5.05
					c-1.14-3.24-5.55-2.4-4.13-4.31c1.44-1.92,4.42-0.39,0.97-2.96c-1.05-0.77-0.46-5.64-2.06-6.36l-16.96-32.7
					C650.72,423.94,643.79,421.51,624.54,417.04z" class="color242c46 svgShape"></path><path fill="#242b46" d="M752.47,546.05c-6.91-5.16-33.71-28.43-46.05-35.85c-12.36-7.44-16.24-7.28-22.12-6.6
						c-4.29,0.51-2.01-0.9-2.01-0.9s1.23-1.81,0.07-5.05c-1.16-3.23-5.59-2.42-4.16-4.32c1.44-1.93,4.44-0.37,0.98-2.96
						c-1.04-0.77-0.45-5.63-2.06-6.37l-7.61-20.75c-4.92-21.07-25.52-41.47-44.76-45.93l-0.91,1.2l6.22,11.55
						c8.81,5.76,21.77,24.63,23.78,31.83c1.97,7.22,4.48,36.89,10.4,42.13c5.78,5.11,63.38,32.97,87.3,55.74
						c2.76-1.74,5.64-3.36,8.4-4.56C770.54,550.59,759.35,551.18,752.47,546.05z" class="color242c46 svgShape"></path><path fill="#555a6f" d="M727.91,563.98c2.64,2.86,13.38,13.27,16.73,15.18c0.13-6.18,11.09-20.07,16.59-19.85
					c5.51,0.22,8.76-2.12,8.76-2.12l-5.28-5.72c0,0-13.35-1.31-20.9,3.21C736.27,559.19,727.91,563.98,727.91,563.98z" class="color555b6f svgShape"></path><path fill="#555a6f" d="M753.5,585.13c-2.86-4.27-20.46-11.14-15.66-18.13c4.81-6.98,13.33-14.16,18.75-9.06
						c5.41,5.09,9.13,14.07,9.13,14.07L753.5,585.13z" class="color555b6f svgShape"></path><path fill="#555a6f" d="M767.46,578.62c-2.9,2.76-8.84,6.42-10.18,8.89l0,0c-0.41,0.78-0.41,1.03-0.13,1.39l0,0
						c0.3,0.34,0.26,0.88-0.1,1.19l0,0c-0.35,0.29-0.89,0.25-1.17-0.09l0,0c-0.9-1.02-0.68-2.36-0.06-3.33l0,0
						c1.59-2.66,5.98-5.53,8.95-7.93l0,0c-4.39,0.28-9.76,3.55-12.97,7.25l0,0c-0.19,0.2-0.43,0.29-0.7,0.26l0,0
						c-0.28-0.01-0.52-0.15-0.66-0.41l0,0c-0.59-0.97-0.37-2.12,0.18-3l0,0c2.24-3.71,10.38-8.02,12.97-11.33l0,0
						c-6-1.06-11.43,7.16-14.29,11.42l0,0l0.02-0.01c-0.29,0.39-0.79,0.48-1.17,0.22l0,0c-0.37-0.25-0.48-0.76-0.22-1.16l0,0
						c3.02-4.25,8.92-14.31,17.25-11.78l0,0c0.22,0.07,0.41,0.27,0.55,0.48l0,0c0.06,0.23,0.04,0.49-0.05,0.71l0,0
						c-0.09,0.1-0.11,0.18-0.18,0.28l0,0c-2.17,3.63-9.52,7.66-12.47,10.77l0,0c4.01-3.42,9.36-5.98,14.01-5.26l0,0
						c0.31,0.05,0.58,0.28,0.65,0.58l0,0c0.08,0.22,0.06,0.48-0.07,0.67l0,0C767.57,578.5,767.51,578.57,767.46,578.62
						L767.46,578.62z" class="color555b6f svgShape"></path></g><path fill="#c2defa" d="M628.92,283.04c-0.21,14.99-4,29.2-9.25,33.31c-5.27,4.09-12.24,7.66-12.24,7.66l38.96,12.85l11.51-48.4
			L628.92,283.04z" class="colorfac6c2 svgShape"></path><path fill="#c2defa" d="M725.98,327.42c-24.85,13.14-49.72,25.06-61.3,28.91c-2.16,8.25-35.77,28.22-35.77,28.22
			s8.29-52.29,9.27-58.33c0.97-6.04,16.08-23.39,16.08-23.39l4.47,19.21c36.77-5.38,58.73-16.59,58.73-16.59s34.97-29.58,39-29.58
			c4.05,0,5.82,15.68,5.82,15.68S739.77,320.13,725.98,327.42z" class="colorfac6c2 svgShape"></path><path fill="#31343d" d="M609.54,302.53c8.23,11.16,12.79,5.72,12.79,5.72s-2.8,19.38,20.03,22.15c-7.08,19-11.94,77.67-13.69,98.5
			c-0.93,11.03-9.2,24.16-19.08,25.36c-23.91,2.94-39.16-7.15-39.16-7.15s6.06-49.09,9.87-75.32c3.85-26.24,8.06-33.17,8.06-33.17
			S604.84,296.14,609.54,302.53z" class="color31323d svgShape"></path><path fill="#31343d" d="M626.14,324.95c7.81,6.95,23.08-2.58,33.52-12.33c3.94-3.68,14.45,7.4,30.03,2.69
			c3.94-1.19,6.23,36.44-0.45,37.21c-11.66,1.35-22.51,15.93-31.27,33.73c-9.16,18.59,11.98,60.8,11.98,60.8l-60.36,7.22
			c0,0,0.38-75.82,3.44-90.98C616.75,344.66,626.14,324.95,626.14,324.95z" class="color31323d svgShape"></path><g fill="#000000" class="color000000 svgShape"><polygon fill="#555a6f" points="791.44 280.27 791.21 282.29 757.71 310.42 718.09 267.75 718.33 265.72 752.04 235.58" class="color555b6f svgShape"></polygon><polygon fill="#0575e6" points="791.21 282.29 757.49 312.43 718.09 267.75 751.8 237.6" class="colora0a3ae svgShape"></polygon><path fill="#555a6f" d="M780.65,280.53l-23.52,21.02l-28.97-32.85l23.52-21.01L780.65,280.53z" class="color555b6f svgShape"></path><path fill="#ffffff" d="M754.81,259.55c1.83,2.07-0.25,6.92-4.64,10.83c-4.37,3.91-9.39,5.41-11.22,3.36
							c-1.8-2.05,0.27-6.89,4.65-10.81C747.99,259.01,753.02,257.5,754.81,259.55z" class="colorffffff svgShape"></path><g fill="#000000" class="color000000 svgShape"><polygon fill="#555a6f" points="795.75 278.92 795.78 280.94 766 313.01 721.5 275.52 721.48 273.49 751.26 239.38" class="color555b6f svgShape"></polygon><polygon fill="#555a6f" points="795.78 280.94 766.01 315.05 721.5 275.52 751.26 241.42" class="color555b6f svgShape"></polygon><path fill="#555a6f" d="M727.79,274.85l37.4,33.25l23.76-27.2l-37.41-33.24L727.79,274.85z M785.07,280.5l-20.74,23.78
							l-32.71-29.04l20.76-23.78L785.07,280.5z" class="color555b6f svgShape"></path><path fill="#ffffff" d="M756.92,262.85c2.06,1.83,0.6,6.9-3.28,11.32c-3.87,4.43-8.65,6.55-10.71,4.72
							c-2.04-1.81-0.58-6.87,3.29-11.31C750.08,263.15,754.9,261.04,756.92,262.85z" class="colorffffff svgShape"></path></g><path fill="#c2defa" d="M783.69,261.79c0.31-4.31-11.88-14.57-16.99-13.57c-3.17,0.65-8.49,9.87-7.32,11.46
				c2.46,3.3,9.03-6.72,9.03-6.72s-6.17,9.74-5.11,11.12c1.47,1.86,8.94-5.61,8.94-5.61s-5.78,8.18-3.01,9
				c2.8,0.79,9.5-6.63,9.5-6.63s-6.38,8.6-3.49,8.06C782.81,267.51,783.69,261.79,783.69,261.79z" class="colorfac6c2 svgShape"></path></g><path fill="#9ac8f6" d="M629.94,295.69c0,6.39-4.39,14.25,1.27,14.25c5.65,0,19.2-7.86,19.2-14.25s-4.58-11.58-10.23-11.58
			C634.52,284.11,629.94,289.3,629.94,295.69z" class="colorf6a29a svgShape"></path><g fill="#000000" class="color000000 svgShape"><path fill="#c2defa" d="M669.2,287.28c0.87-3.7-1.36-4.34-1.36-4.34l-3.19-4.05l-4.39-12.92c0,0-2.71-0.52-6.11-1.16l1.01-0.72
				l-3.06-14.57l-14.45-1.77l-9.47,4.19l-5.04,5.5l-0.3,4.53l-0.01,0.42l-1.17,3.31c0,0-0.58,2.02-2.61,4.29
				c-2.03,2.27-2.7,7.93-2.16,13.17c0.54,5.24,1.38,11.8,1.31,13.12s1.81,5.82,8.27,5.99c6.46,0.17,10.07,0.33,15.09-0.98
				s9.05-6.53,9.81-6.38s0.65,1.76,4.18,0.99c0,0,4.29,1.1,7.52-0.99C666.31,292.84,668.33,290.99,669.2,287.28z" class="colorfac6c2 svgShape"></path><path fill="#191d2b" d="M681.57,263.73c-0.29-3.77-2.23-7.26-4.68-10.14l-0.05-0.18l0.1-0.03c1.46,0.53,2.94,1.12,4.15,2.09
				c1.21,0.98,2.15,2.4,2.2,3.96c0.46-2.72-1.37-5.38-3.67-6.88c-2.31-1.5-5.05-2.14-7.66-3.02c0,0-0.01-0.13-0.04-0.32
				c0.71,0.16,1.51,0.07,2.26,0.03c1.7-0.09,3.43,0.13,5.05,0.67c-1.38-0.59-2.2-2.03-3.45-2.88c-1.33-0.91-3.14-1.07-4.61-0.39
				c0.77-2.05,0.28-4.52-1.21-6.12c0.86,1.71,0.66,3.89-0.47,5.43c0.13-1.1-0.19-2.23-0.72-3.21c-0.61-1.12-1.49-2.06-2.36-3
				c-1.47-1.58-2.95-3.17-4.42-4.75c0.51,1.03,1.02,2.08,1.24,3.2c0.22,1.11,0.12,2.32-0.5,3.26c-0.38-2.54-1.77-4.92-3.81-6.47
				c-1.82-1.37-4.1-2.11-5.7-3.73c-1.32-1.33-2.06-3.21-2.01-5.09c-0.77,1.85-0.89,3.97-0.33,5.9c-0.07-0.06-0.14-0.12-0.22-0.18
				c-3.88-2.97-9.11-3.81-13.94-3.07c-4.83,0.73-9.34,2.9-13.5,5.46c3.36-0.9,6.89-1.8,10.29-1.03l0.93,0.18
				c-4.04-0.22-8.19,1.2-11.49,3.61c-4.38,3.21-7.41,7.96-9.52,12.96c2.02-2.1,4.65-3.59,7.48-4.27l-0.04,0.06
				c-1.33,1.45-2.07,3.37-2.41,5.31c-0.34,1.94-0.31,3.92-0.27,5.89c0.02,1.21,0.05,2.46,0.49,3.59c0.46-1.6,1.22-3.12,2.23-4.46
				c-0.29,2.26-0.25,4.58-0.09,6.87c0.27-1.12,0.7-2.2,1.26-3.21l-0.36,0.89c0.27,1.67,0.23,3.38-0.12,5.04
				c0.63-0.98,1.27-1.99,1.57-3.12c0.15-0.58,0.22-1.17,0.28-1.76c0.1-0.91,0.19-1.82,0.29-2.73c0,0,0.04-0.33,0.08-0.74
				c0.37-0.4,0.76-0.78,1.18-1.13c3.39-2.85,8.06-3.79,11.51-6.54c-0.86,2.16-0.99,4.65-0.6,6.97c0.53,3.23,1.95,6.23,3.38,9.18
				c-0.06-3.15,1.84-6.01,4.06-8.24c2.22-2.23,4.83-4.07,6.83-6.5l-1.27,1.6c-0.97,1.83-1.65,3.88-1.49,5.94
				c0.16,2.06,1.26,4.13,3.11,5.06c-0.5-0.49-0.7-1.2-0.8-1.9c-0.19-1.44,0.02-2.93,0.59-4.26l0.13,0.82
				c-0.53,7.17,6.49,13.31,5.82,20.47l-0.45,0.59c-0.35,2.34-1.53,4.54-3.27,6.14c-0.4,0.37-0.85,0.71-1.38,0.82
				c1.59,0.43,3.37,0.05,4.64-0.99l0.01-0.08l0.01,0.01l-0.03,0.07l0.07-0.04l0.03,0.02c-0.04,0.75,0.12,1.51,0.49,2.16
				c0.45-1.29,1.57-2.23,2.77-2.89s2.51-1.1,3.7-1.76c0.46-0.26,0.91-0.56,1.31-0.91c1.25,0.06,2.5,0.37,3.63,0.91
				c0.61-1.12,1.38-2.16,2.26-3.08l0.24-0.53l0.09,0.16c1.57-0.24,2.96-1.22,3.98-2.45c1.01-1.23,1.69-2.69,2.29-4.17
				c0.67-1.65,1.24-3.34,1.73-5.05c0.65,1.98,0.07,4.31-1.44,5.76C680.24,271.57,681.86,267.51,681.57,263.73z" class="color2b2419 svgShape"></path></g></g></svg>