<svg xmlns="http://www.w3.org/2000/svg" enable-background="new 0 0 850 850" viewBox="0 0 850 850" id="Malelawyerissafe"><path fill="#47527a" d="M425,664.37c-266.7-145.6-210.91-372.84-210.91-372.84C359.68,288.81,425,151.37,425,151.37
				s65.32,137.43,210.91,140.16C635.91,291.53,691.7,518.77,425,664.37z" class="color7a5647 svgShape"></path><path fill="#ffffff" d="M425,636.29c-51.84-29.91-93.87-65.27-125.07-105.25c-26.53-34-45.4-71.5-56.07-111.46
				c-12.07-45.18-10.89-83.64-8.64-104.8c58.09-5.94,111.77-32.33,156.28-77.07c13.79-13.86,24.92-27.69,33.5-39.68
				c8.57,11.98,19.7,25.81,33.5,39.68c44.51,44.73,98.19,71.12,156.28,77.07c2.25,21.16,3.43,59.62-8.64,104.8
				c-10.68,39.96-29.54,77.46-56.07,111.46C518.87,571.01,476.84,606.38,425,636.29z" class="colorffffff svgShape"></path><circle cx="425" cy="425.11" r="116.79" fill="#47527a" transform="rotate(-80.892 425.019 425.108)" class="color7a5647 svgShape"></circle><path fill="#ffffff" d="M425,524.99c-26.68,0-51.76-10.39-70.62-29.25c-18.86-18.86-29.25-43.94-29.25-70.62
					c0-26.68,10.39-51.76,29.25-70.62c18.86-18.86,43.94-29.25,70.62-29.25c26.68,0,51.76,10.39,70.62,29.25
					c18.86,18.86,29.25,43.94,29.25,70.62c0,26.68-10.39,51.76-29.25,70.62C476.76,514.6,451.68,524.99,425,524.99z" class="colorffffff svgShape"></path><path fill="#47527a" d="M425.6 361.84c31.97 0 53.69 19.15 58.64 47.7h-40.01c-3.59-8.04-10.77-12.65-19.32-12.65-12.82 0-20.69 10.43-20.69 26.5s7.86 26.5 20.69 26.5c8.55 0 15.73-4.62 19.32-12.65h40.01c-4.96 28.55-26.67 47.7-58.64 47.7-37.1 0-59.84-25.47-59.84-61.55S388.5 361.84 425.6 361.84zM261.01 335.07c0 3.76-3.05 6.8-6.8 6.8-3.76 0-6.8-3.05-6.8-6.8 0-3.76 3.05-6.8 6.8-6.8C257.96 328.27 261.01 331.31 261.01 335.07zM603.91 335.07c0 3.76-3.05 6.8-6.8 6.8-3.76 0-6.8-3.05-6.8-6.8 0-3.76 3.05-6.8 6.8-6.8C600.87 328.27 603.91 331.31 603.91 335.07zM431.78 232.34c0 3.76-3.05 6.8-6.8 6.8-3.76 0-6.8-3.05-6.8-6.8 0-3.76 3.05-6.8 6.8-6.8C428.73 225.53 431.78 228.58 431.78 232.34zM431.78 618.11c0 3.76-3.05 6.8-6.8 6.8-3.76 0-6.8-3.05-6.8-6.8s3.05-6.8 6.8-6.8C428.73 611.3 431.78 614.35 431.78 618.11z" class="color7a5647 svgShape"></path><g fill="#000000" class="color000000 svgShape"><path fill="#0575e6" d="M261.99,219.03l-115.1-0.17c-1.71,0-3.1-1.39-3.1-3.1l0.05-32.59c0-1.71,1.39-3.1,3.1-3.1l115.1,0.17
						c1.71,0,3.1,1.39,3.1,3.1l-0.05,32.59C265.1,217.65,263.71,219.04,261.99,219.03z" class="colore1c27b svgShape"></path><path fill="#ffffff" d="M256.61 195.23l-65.42-.09c-.94 0-1.7-.76-1.7-1.71l0 0c0-.94.77-1.7 1.71-1.7l65.42.09c.94 0 1.7.77 1.7 1.71v0C258.32 194.47 257.55 195.23 256.61 195.23zM256.6 202.73l-65.42-.09c-.94 0-1.7-.76-1.7-1.71v0c0-.94.76-1.7 1.71-1.7l65.42.09c.94 0 1.7.77 1.7 1.71l0 0C258.3 201.97 257.54 202.73 256.6 202.73zM256.59 209.54l-65.42-.09c-.94 0-1.7-.76-1.7-1.71v0c0-.94.76-1.7 1.71-1.7l65.42.09c.94 0 1.7.77 1.7 1.71l0 0C258.29 208.78 257.53 209.54 256.59 209.54z" class="colorffffff svgShape"></path><g fill="#000000" class="color000000 svgShape"><path fill="#ffffff" d="M165.06,212.88L165.06,212.88c-7.73-0.01-13.99-6.29-13.98-14.02l0,0c0.01-7.73,6.29-13.99,14.02-13.98
							l0,0c7.73,0.01,13.99,6.29,13.98,14.02l0,0C179.07,206.63,172.8,212.89,165.06,212.88z" class="colorffffff svgShape"></path></g><g fill="#000000" class="color000000 svgShape"><path fill="#0575e6" d="M166.64,205.24l-0.02,2.12l-2.7-0.03l0.02-2.03c-1.91-0.13-3.76-0.67-4.91-1.39l1.49-3.28
							c1.26,0.76,2.94,1.25,4.41,1.27c1.28,0.01,1.74-0.25,1.75-0.71c0.02-1.68-7.4-0.4-7.35-5.39c0.02-2.16,1.61-3.97,4.75-4.38
							l0.02-2.09l2.7,0.03l-0.02,2.05c1.41,0.15,2.79,0.52,3.87,1.15l-1.39,3.26c-1.31-0.68-2.55-1.02-3.72-1.03
							c-1.32-0.01-1.74,0.37-1.75,0.83c-0.02,1.61,7.4,0.34,7.36,5.28C171.13,202.97,169.62,204.75,166.64,205.24z" class="colore1c27b svgShape"></path></g><g fill="#000000" class="color000000 svgShape"><path fill="#0575e6" d="M261.93,266.7l-115.1-0.17c-1.71,0-3.1-1.39-3.1-3.1l0.05-32.59c0-1.71,1.39-3.1,3.1-3.1l115.1,0.17
						c1.71,0,3.1,1.39,3.1,3.1l-0.05,32.59C265.03,265.31,263.64,266.7,261.93,266.7z" class="colore1c27b svgShape"></path><path fill="#ffffff" d="M256.54 242.89l-65.42-.09c-.94 0-1.7-.77-1.7-1.71l0 0c0-.94.77-1.7 1.71-1.7l65.42.09c.94 0 1.7.77 1.7 1.71l0 0C258.25 242.13 257.48 242.9 256.54 242.89zM256.53 250.39l-65.42-.09c-.94 0-1.7-.77-1.7-1.71v0c0-.94.77-1.7 1.71-1.7l65.42.09c.94 0 1.7.76 1.7 1.71v0C258.24 249.63 257.47 250.39 256.53 250.39zM256.52 257.2l-65.42-.09c-.94 0-1.7-.77-1.7-1.71v0c0-.94.77-1.7 1.71-1.7l65.42.09c.94 0 1.7.77 1.7 1.71l0 0C258.23 256.44 257.46 257.21 256.52 257.2z" class="colorffffff svgShape"></path><g fill="#000000" class="color000000 svgShape"><path fill="#ffffff" d="M165,260.54L165,260.54c-7.73-0.01-13.99-6.29-13.98-14.02l0,0c0.01-7.73,6.29-13.99,14.02-13.98l0,0
							c7.73,0.01,13.99,6.29,13.98,14.02l0,0C179,254.29,172.73,260.55,165,260.54z" class="colorffffff svgShape"></path></g><g fill="#000000" class="color000000 svgShape"><polygon fill="#0575e6" points="160.53 254.64 156.13 248.53 158.77 246.62 160.89 249.56 171.55 238.45 173.91 240.7" class="colore1c27b svgShape"></polygon></g></g></g><g fill="#000000" class="color000000 svgShape"><rect width="68.89" height="86.08" x="597.65" y="180.21" fill="#aacbec" class="colorecd7aa svgShape"></rect><path fill="#e0ebf7" d="M655.52 193.68h-46.97c-.77 0-1.4-.63-1.4-1.4 0-.77.63-1.4 1.4-1.4h46.97c.77 0 1.4.63 1.4 1.4C656.92 193.05 656.29 193.68 655.52 193.68zM655.52 202.33h-46.97c-.77 0-1.4-.63-1.4-1.4 0-.77.63-1.4 1.4-1.4h46.97c.77 0 1.4.63 1.4 1.4C656.92 201.7 656.29 202.33 655.52 202.33zM655.52 210.97h-46.97c-.77 0-1.4-.63-1.4-1.4 0-.77.63-1.4 1.4-1.4h46.97c.77 0 1.4.63 1.4 1.4C656.92 210.35 656.29 210.97 655.52 210.97zM655.52 219.62h-46.97c-.77 0-1.4-.63-1.4-1.4 0-.77.63-1.4 1.4-1.4h46.97c.77 0 1.4.63 1.4 1.4C656.92 218.99 656.29 219.62 655.52 219.62zM655.52 228.27h-46.97c-.77 0-1.4-.63-1.4-1.4s.63-1.4 1.4-1.4h46.97c.77 0 1.4.63 1.4 1.4S656.29 228.27 655.52 228.27zM655.52 236.91h-46.97c-.77 0-1.4-.63-1.4-1.4 0-.77.63-1.4 1.4-1.4h46.97c.77 0 1.4.63 1.4 1.4C656.92 236.29 656.29 236.91 655.52 236.91z" class="colorf7efe0 svgShape"></path><g fill="#000000" class="color000000 svgShape"><path fill="#e0ebf7" d="M625.66,252.93h-17.11c-0.77,0-1.4-0.63-1.4-1.4c0-0.77,0.63-1.4,1.4-1.4h17.11
							c0.77,0,1.4,0.63,1.4,1.4C627.06,252.31,626.43,252.93,625.66,252.93z" class="colorf7efe0 svgShape"></path></g><g fill="#000000" class="color000000 svgShape"><path fill="#e0ebf7" d="M655.52,252.93h-17.11c-0.77,0-1.4-0.63-1.4-1.4c0-0.77,0.63-1.4,1.4-1.4h17.11
							c0.77,0,1.4,0.63,1.4,1.4C656.92,252.31,656.29,252.93,655.52,252.93z" class="colorf7efe0 svgShape"></path></g><g fill="#000000" class="color000000 svgShape"><rect width="68.89" height="86.08" x="558.23" y="153.34" fill="#0575e6" class="colore1c27b svgShape"></rect><path fill="#e0ebf7" d="M616.1 166.8h-46.97c-.77 0-1.4-.63-1.4-1.4 0-.77.63-1.4 1.4-1.4h46.97c.77 0 1.4.63 1.4 1.4C617.5 166.17 616.87 166.8 616.1 166.8zM616.1 175.45h-46.97c-.77 0-1.4-.63-1.4-1.4 0-.77.63-1.4 1.4-1.4h46.97c.77 0 1.4.63 1.4 1.4C617.5 174.82 616.87 175.45 616.1 175.45zM616.1 184.09h-46.97c-.77 0-1.4-.63-1.4-1.4s.63-1.4 1.4-1.4h46.97c.77 0 1.4.63 1.4 1.4S616.87 184.09 616.1 184.09zM616.1 192.74h-46.97c-.77 0-1.4-.63-1.4-1.4 0-.77.63-1.4 1.4-1.4h46.97c.77 0 1.4.63 1.4 1.4C617.5 192.11 616.87 192.74 616.1 192.74zM616.1 201.39h-46.97c-.77 0-1.4-.63-1.4-1.4 0-.77.63-1.4 1.4-1.4h46.97c.77 0 1.4.63 1.4 1.4C617.5 200.76 616.87 201.39 616.1 201.39zM616.1 210.03h-46.97c-.77 0-1.4-.63-1.4-1.4 0-.77.63-1.4 1.4-1.4h46.97c.77 0 1.4.63 1.4 1.4C617.5 209.41 616.87 210.03 616.1 210.03z" class="colorf7efe0 svgShape"></path><g fill="#000000" class="color000000 svgShape"><path fill="#e0ebf7" d="M586.24,226.05h-17.11c-0.77,0-1.4-0.63-1.4-1.4c0-0.77,0.63-1.4,1.4-1.4h17.11
							c0.77,0,1.4,0.63,1.4,1.4C587.64,225.43,587.01,226.05,586.24,226.05z" class="colorf7efe0 svgShape"></path></g><g fill="#000000" class="color000000 svgShape"><path fill="#e0ebf7" d="M616.1,226.05h-17.11c-0.77,0-1.4-0.63-1.4-1.4c0-0.77,0.63-1.4,1.4-1.4h17.11c0.77,0,1.4,0.63,1.4,1.4
							C617.5,225.43,616.87,226.05,616.1,226.05z" class="colorf7efe0 svgShape"></path></g></g></g><g fill="#000000" class="color000000 svgShape"><path fill="#aacbec" d="M752.57,329.04h-10.74c0-0.02,0-0.04,0-0.06c0,0,0,0,0,0c-0.05-2.43-0.44-4.77-1.11-7
										c-3.27-10.83-13.33-18.73-25.21-18.73c-11.88,0-21.94,7.91-25.21,18.73c-0.67,2.22-1.05,4.57-1.11,7c0,0,0,0,0,0
										c0,0.02,0,0.04,0,0.06h-10.75c0-0.02,0-0.04,0-0.06c0,0,0,0,0,0c0.04-2.38,0.3-4.71,0.77-7
										c1.45-7.01,4.91-13.44,10.08-18.62c7-7,16.31-10.86,26.21-10.86s19.21,3.86,26.21,10.86c5.18,5.18,8.63,11.61,10.08,18.62
										c0.47,2.28,0.73,4.62,0.77,7c0,0,0,0,0,0C752.57,329,752.57,329.02,752.57,329.04z" class="colorecd7aa svgShape"></path><rect width="96.61" height="71.65" x="667.21" y="331.12" fill="#0575e6" class="colore1c27b svgShape"></rect><path fill="#0575e6" d="M768.43,398.2v0.13c-0.04,1.21-0.54,2.3-1.34,3.09c-0.83,0.83-1.97,1.34-3.23,1.34H666.9
									c-2.47,0-4.5-1.98-4.57-4.43v-0.13c0-1.25,0.51-2.39,1.34-3.22c0.83-0.83,1.97-1.34,3.23-1.34h96.96
									C766.38,393.64,768.43,395.69,768.43,398.2z" class="colore1c27b svgShape"></path><path fill="#ffffff" d="M709.5,385.65l2.44-18.37l-1.89-1.29c-2.67-1.82-4.27-4.82-4.27-8.03c0-5.33,4.34-9.67,9.67-9.67
								c5.33,0,9.67,4.34,9.67,9.67c0,3.21-1.59,6.21-4.27,8.03l-1.89,1.29l2.44,18.37H709.5z" class="colorffffff svgShape"></path><path fill="#0575e6" d="M676.16 387.38c0 1.3-1.06 2.36-2.36 2.36-1.3 0-2.36-1.06-2.36-2.36 0-1.3 1.06-2.36 2.36-2.36C675.11 385.03 676.16 386.08 676.16 387.38zM676.16 343.87c0 1.3-1.06 2.36-2.36 2.36-1.3 0-2.36-1.05-2.36-2.36 0-1.3 1.06-2.36 2.36-2.36C675.11 341.51 676.16 342.57 676.16 343.87z" class="colore1c27b svgShape"></path><g fill="#000000" class="color000000 svgShape"><path fill="#0575e6" d="M759.18,387.38c0,1.3-1.05,2.36-2.36,2.36c-1.3,0-2.36-1.06-2.36-2.36c0-1.3,1.05-2.36,2.36-2.36
								C758.12,385.03,759.18,386.08,759.18,387.38z" class="colore1c27b svgShape"></path></g><g fill="#000000" class="color000000 svgShape"><path fill="#0575e6" d="M759.18,343.87c0,1.3-1.05,2.36-2.36,2.36c-1.3,0-2.36-1.05-2.36-2.36c0-1.3,1.05-2.36,2.36-2.36
								C758.12,341.51,759.18,342.57,759.18,343.87z" class="colore1c27b svgShape"></path></g><g fill="#000000" class="color000000 svgShape"><path fill="#0575e6" d="M768.56,333.55v0.06c-0.02,1.23-0.53,2.35-1.34,3.16c-0.83,0.82-1.97,1.34-3.23,1.34h-96.96
							c-2.49,0-4.54-2.02-4.57-4.5v-0.06c0-1.26,0.51-2.4,1.34-3.22c0.83-0.83,1.97-1.35,3.23-1.35H764
							C766.51,328.98,768.56,331.03,768.56,333.55z" class="colore1c27b svgShape"></path></g><g fill="#000000" class="color000000 svgShape"><path fill="#0575e6" d="M155.56,313.23l-0.04,57.67c0,2.72-2.2,4.92-4.93,4.92l-37.33-0.03l0.01-0.01h-7.56l-14.36-0.01
									c-2.72,0-4.93-2.21-4.92-4.93l0.04-57.67c0-2.72,2.21-4.92,4.92-4.92l59.25,0.04C153.35,308.31,155.56,310.52,155.56,313.23
									z" class="colore1c27b svgShape"></path><path fill="#0575e6" d="M82.18,348.32c-0.41,0-0.74-0.33-0.74-0.74v-37.85c0-3.51,2.85-6.36,6.36-6.36h31.57
								c0.41,0,0.74,0.33,0.74,0.74c0,0.41-0.33,0.74-0.74,0.74H87.8c-2.69,0-4.88,2.19-4.88,4.88v37.85
								C82.92,347.99,82.59,348.32,82.18,348.32z" class="colore1c27b svgShape"></path><path fill="#ffffff" d="M100.33,342.05c0,11.39,9.27,20.66,20.66,20.66c11.39,0,20.66-9.27,20.66-20.66
								c0-11.39-9.27-20.66-20.66-20.66C109.6,321.38,100.33,330.65,100.33,342.05z M111.92,349.68c-0.67-2.25-1.05-4.68-1.1-7.24
								h9.34v7.24H111.92z M116.79,360.58c-5.25-1.18-9.71-4.51-12.37-9.24h6.29c0.87,2.44,2.07,4.66,3.59,6.59
								C115.07,358.9,115.91,359.79,116.79,360.58z M120.16,351.34l0,9.69c-0.63-0.37-2.61-1.65-4.59-4.18
								c-1.27-1.62-2.31-3.47-3.08-5.51H120.16z M112.94,331.87c2.2-4.88,5.45-7.89,6.48-8.76c0.25-0.02,0.49-0.04,0.74-0.05v8.81
								H112.94z M104.95,331.87c2.65-4.16,6.82-7.15,11.57-8.3c-0.93,0.99-1.81,2.07-2.61,3.22c-1.11,1.59-2.04,3.3-2.78,5.08
								H104.95z M110.83,340.77c0.1-2.47,0.58-4.91,1.43-7.24h7.9v7.24H110.83z M102.03,340.77c0.17-2.54,0.83-4.97,1.97-7.24h6.49
								c-0.79,2.35-1.24,4.78-1.33,7.24H102.03z M109.16,342.44c0.05,2.54,0.4,4.98,1.03,7.24h-6.6c-1.01-2.29-1.54-4.72-1.59-7.24
								H109.16z M132.63,342.44h7.36c-0.05,2.52-0.59,4.95-1.6,7.24h-6.79C132.23,347.41,132.58,344.98,132.63,342.44z
								 M121.82,331.87v-8.81c0.18,0.01,0.35,0.02,0.53,0.03c0.72,0.6,2.46,2.19,4.19,4.69c0.89,1.29,1.67,2.66,2.31,4.09H121.82z
								 M129.53,333.53c0.85,2.34,1.33,4.77,1.43,7.24h-9.14v-7.24H129.53z M130.66,331.87c-0.74-1.78-1.68-3.49-2.78-5.08
								c-0.82-1.17-1.71-2.27-2.67-3.28c4.86,1.11,9.12,4.12,11.82,8.35H130.66z M130.97,342.44c-0.06,2.57-0.43,5-1.1,7.24h-8.05
								v-7.24H130.97z M132.62,340.77c-0.09-2.46-0.54-4.89-1.33-7.24h6.69c1.14,2.27,1.81,4.71,1.97,7.24H132.62z M137.56,351.34
								c-2.67,4.75-7.33,8.17-12.63,9.3c0.91-0.81,1.76-1.71,2.55-2.71c1.52-1.93,2.72-4.14,3.59-6.59H137.56z M129.3,351.34
								c-2.29,5.95-6.22,8.79-7.48,9.57v-9.57H129.3z" class="colorffffff svgShape"></path><g fill="#000000" class="color000000 svgShape"><path fill="#0575e6" d="M86.47,410.91l0.04,57.65c0,2.72,2.2,4.92,4.93,4.92l37.32-0.03l-0.01-0.01h7.56l14.35-0.01
										c2.72,0,4.93-2.21,4.92-4.93l-0.04-57.65c0-2.72-2.2-4.92-4.92-4.92l-59.23,0.04C88.67,405.99,86.47,408.19,86.47,410.91z" class="colore1c27b svgShape"></path><path fill="#0575e6" d="M83.09,447c-0.41,0-0.74-0.33-0.74-0.74V408.4c0-3.51,2.85-6.36,6.36-6.36h31.57
								c0.41,0,0.74,0.33,0.74,0.74c0,0.41-0.33,0.74-0.74,0.74H88.71c-2.69,0-4.88,2.19-4.88,4.88v37.85
								C83.83,446.67,83.5,447,83.09,447z" class="colore1c27b svgShape"></path><polygon fill="#ffffff" points="109.64 459.8 99.59 445.86 105.62 441.51 110.45 448.21 134.8 422.85 140.16 428" class="colorffffff svgShape"></polygon></g></g></g><g fill="#000000" class="color000000 svgShape"><path fill="#021b79" d="M327.84,698.57c-11.44,1.96-7.56-47.68-7.56-47.68s-5.03-84.46-5.59-104.57c0,0,0,0,0,0
					c-0.03-1.2-0.05-2.17-0.05-2.87c0-12.62-1.3-59.05-1.3-59.05c2.6-34.6,2.62-52.01,45.11-54.93l132.39,0.41l23.39,46.52
					l4.57,35.08v0l5.69,43.7c0,0,8.52,99.31,0.24,119.68c-0.35,0.86,0,0-0.57,1.47c-4.23,10.86-9.5,21.05-23.22,22.28" class="color31323d svgShape"></path><path fill="#c2defa" d="M382.82,304.67c0.67-15.98,10.62-29.35,26-33.74l47.93-13.7c20.8-2.85,35.47,22.42,37.43,43.32
									c2.18,23.22,3.82,47.75,1.59,65.2c-4.47,35.08-31.09,40.35-31.09,40.35c0-0.05,0,14.48,0,23.71
									c-27.62,24.84-71.24,15.92-72.3-0.33c1.78-26.23-9.68-124.38-9.68-124.38C382.68,304.5,382.79,305.46,382.82,304.67z" class="colorfac6c2 svgShape"></path><path fill="#9ac8f6" d="M418.02,394.99c0,0,11.79,23.69,46.63,19.35l0.03-8.24C464.68,406.1,441.72,408.26,418.02,394.99z
													" class="colorf6a29a svgShape"></path><path fill="#0c0c0e" d="M389.82,375.58c0,0-23.39-42.1-22.34-80.75c1.04-38.65,25.42-35.52,25.42-35.52s-4.53-16.99,12.19-21.38
					c16.71-4.39,42.83-11.55,82.88,3.52c40.05,15.07,45.04,90.16,7.9,79.43c-37.15-10.73-43.07-16.93-43.07-16.93
					s-15.33,19.77-46.14,18.03C406.65,321.99,405.54,363.36,389.82,375.58z" class="color0e0c0c svgShape"></path><g fill="#000000" class="color000000 svgShape"><path fill="#c2defa" d="M160.64,549.18c0,0,19.49,28.56,26.1,36.09c6.61,7.53,34.47,47.41,48.96,63.42
						c14.68,16.21,30.3,24.79,40.52,24.79c10.5,0,21.12-3.59,29.45-23.16c12.03-28.26,5.29-116.1,5.29-116.1l-30.13-12.34
						l-17.09,85.98l0,0c-4.58-4.58-77.01-72.11-77.01-72.11l-16.59,6.86L160.64,549.18z" class="colorfac6c2 svgShape"></path><path fill="#c2defa" d="M107.54,512.91c6.19,0.88,17.03,7.3,19.47,7.3c2.43,0,29.64,0.88,34.95,2.21
						c5.31,1.33,13.56,2.12,18.43,7.21l7.49,7.2l-25.94,14.26c0,0-2.42-3.89-8.39-4.34c-5.97-0.44-25.11,1.16-33.39,0
						c-14.79-2.07-31.75-11.71-31.75-11.71c-6.58-3.18-6.49-12.58,0.14-15.63C88.55,519.4,101.35,512.02,107.54,512.91z" class="colorfac6c2 svgShape"></path><path fill="#021b79" d="M318.28,568.52c-2.04-13.87-3.52-24.07-3.6-24.62c0.16,5.92,0.72,17.41,1.42,30.69
				c0.06,1.14,0.12,2.29,0.18,3.45l-54.14-19.34c0,0,5.37-27.31,26.06-71.07c15.55-32.9,30.58-45.06,37.08-49.07
				c2.15-1.33,8.54-4.13,8.54-4.13L318.28,568.52z" class="color31323d svgShape"></path><path fill="#021b79" d="M316.28,578.04c0.74,13.9,1.61,29.34,2.35,42.21c-1.77,7.84-3.28,15.14-4.05,20.17
				c-2.67,17.42-20.08,51.06-48.85,40.41c-21-7.78-70.07-67.59-95.01-99.28c-4.86-6.17-8.8-11.28-11.44-14.72
				c-2.15-2.81-1.99-6.74,0.37-9.37l24.52-27.23c0.79-0.88,2.15-0.98,3.06-0.22l11.27,9.43l56.79,47.51l6.85-28.24l53.96,15.89
				C316.16,575.73,316.22,576.88,316.28,578.04z" class="color31323d svgShape"></path></g><g fill="#000000" class="color000000 svgShape"><path fill="#c2defa" d="M568.85,553.14c0,1.68,10.1,46.28,10.1,46.28s21.04-14.31,29.03-21.04c7.99-6.73,46.71-42.5,46.71-42.5
						l23.14,21.41c0,0-76.74,104.43-103.95,110.7c-13.96,3.22-29.45-7.33-32.45-14.78c-6.7-16.62-12.12-91.02-12.12-91.02
						l10.09-3.17L568.85,553.14z" class="colorfac6c2 svgShape"></path><path fill="#c2defa" d="M648.54,541.56c0,0,21.16-23.69,29.69-23.01c8.53,0.68,20.81,2.52,24.22,1.94c3.41-0.58,12.96,0,12.96,0
						s22.17-12.01,26.27-11.07c0,0,13.47,4.82,20.72,8.2c5.25,2.45,5.47,9.83,0.42,12.66l-14.6,8.16
						c-3.09,1.73-6.51,2.78-10.04,3.08c-13.52,1.16-48.23,4.21-50.49,5.19c-2.81,1.22-14.02,15.74-14.02,15.74L648.54,541.56z" class="colorfac6c2 svgShape"></path><path fill="#021b79" d="M686.93,563.2c-1.91,2.44-4.59,5.85-7.9,9.97c-25.17,31.32-86.41,103.68-114.16,102.67
				c-19.42-0.71-30.52-26.48-36.57-49.6c-0.16-12.82-0.74-26.35-1.4-38.25l58.12-22.61l5.31,17.21l55.88-48.35l11.64-10.07
				c1.16-1,2.92-0.86,3.89,0.33l25.09,30.47C688.78,557.35,688.83,560.77,686.93,563.2z" class="color31323d svgShape"></path><path fill="#021b79" d="M520.62,590.3c1.32-41.81-1.79-80.72-1.83-81.23l5.69,43.7c0,0,1.34,15.6,2.44,35.7
				c6.52-2.53,58.09-23.1,58.09-23.1s-25.41-75.13-38.83-97.41c-21.8-36.2-55.35-38.08-55.35-38.08l19.8,163.2L520.62,590.3z" class="color31323d svgShape"></path></g></g></svg>