<svg xmlns="http://www.w3.org/2000/svg" data-name="2" viewBox="0 0 4680 3120" id="Malestudentattendingwebinar"><rect width="4680" height="3120" fill="#ffffff" opacity="0" class="colorffffff svgShape"></rect><g fill="#000000" class="color000000 svgShape"><g fill="#000000" class="color000000 svgShape"><path fill="#4975a1" d="m3550.54,2124.8c-6.17,6.68-12.6,13.18-19.29,19.52-279.05,263.99-1010.73,232.04-1910.9,173.08-429.46-28.12-612.05-232.58-684.59-442.95-68.7-199.23-38.68-403.77-26.18-468.86,2.63-13.7,4.49-21.22,4.49-21.22,257.15-661.42,604.13-689.34,620.22-688.22,0,0,344.84-380.64,1419.74,69.67,226.97,95.08,396.43,197.9,520.05,303.62,461.88,394.95,284.19,830.52,76.45,1055.36Z" class="color496da1 svgShape"></path><path fill="#6599ce" d="m3549.32,2128.47c-6.17,6.68-12.6,13.18-19.29,19.52-143.3,22.82-289.15,29.63-433.95,20.2-356.62-23.24-698.8-143.46-1048.63-216.54-365.12-76.27-740.92-100.79-1112.91-73.53-68.7-199.23-38.68-403.77-26.18-468.86,83.79,7.61,168.39,7.86,252.26,5.52,779.59-21.66,1541.24-222.13,2312.25-341.67,461.88,394.95,284.19,830.52,76.45,1055.36Z" class="color6595ce svgShape"></path><path fill="#4975a1" d="M3192.35 809.58c35.32 14.55 64.74 19.95 77.53 7.15 3.22-3.23 3.61-7.5 3.08-11.66-5.28-41.8-68.82-80.09-121.45-105.69-30.5-14.84-163.17-76.38-167.68-33.5-4.36 41.51 157.6 122.73 208.51 143.7zM3623.44 2156.99c-24.76 29.46-50.54 58.09-78.81 85.16-19.98 19.13-67.63 60.54-69.71 87.81-1.62 21.34 75.99-14.15 81.01-17.91 21.58-16.16 35.96-36.68 58.01-52.56 55.76-40.16 107.72-82 155.02-132.17 45.73-48.51 6.53-158.63-49.8-89.16-32.39 39.95-63.18 80.11-95.72 118.83zM974.19 2171.96c-40.32-15.97-73.44 24.38-68.61 68.75 3.23 29.66 22.17 56.12 46.56 73.29 35.27 24.83 136.23 60.66 131.45-17.28-2.92-47.55-65.07-102.89-104.73-122.66-1.57-.78-3.12-1.48-4.67-2.09z" class="color496da1 svgShape"></path></g><ellipse cx="2564.89" cy="2651.73" fill="#7a95b0" rx="731.24" ry="108.27" class="color7a8db0 svgShape"></ellipse><path fill="#a6cdf5" d="m2271.38,1955.78c-1.77-5.22-3.16-10.59-4.03-16.03-7.99-49.84,29.09-89.52,66.33-116.64,20.86-15.18,43.42-27.94,66.36-39.66,10.2-5.21,20.88-11.8,31.74-15.5,10.03-3.42,29.79-11.52,39.72-8.42,7.29,2.28,14.84,8.14,20.87,12.66,16.56,12.42,29.54,29,38.18,47.78,12.47,27.13,13.75,50.03,10.97,67.56-3.95,24.92-16.15,39.01-16.15,39.01,0,0-26.61,26.22-48.59,49.02-1.02,1.06-2.03,2.11-3.03,3.14-13.43,14.02-24.49,26.18-25.54,29.25,0,0,170.57,359.3,208.7,424.38,5.93,10.11,24.66,13.35,43.44,31.15,24.88,23.59,12.69,59.65-11.27,77.91-24.32,18.53-39.58,41.81-55.59,67.25-13.13,20.87-37.43,31.36-61.01,39.47-14.98,5.15-43.22,18.14-56.67,3.71-19.14-20.54,14.2-29.93,24.49-39.49,46.15-42.82,54.75-116.85,31.73-162.71-19.3-38.45-40.99-75.83-63.01-112.77-42.74-71.72-88.71-141.43-134.06-211.5-28.38-43.85-63.22-84.75-87.2-131.37-6.32-12.29-11.89-24.97-16.38-38.21Z" class="colorf5b0a6 svgShape"></path><path fill="#6daff1" d="m3067.84,1162.57s-399.38-75.24-419.89-40.08c-20.51,35.16-91.75,870.9-91.75,870.9l498.72-37.49s49.74-621.47,12.93-793.33Z" class="colorf19a6d svgShape"></path><path fill="#172456" d="m2617.33,1669.01c-2-1.87-331.04,129.87-355.38,201.33-24.33,71.46-35.94,91.72,110.64,300.76,146.58,209.04,136.6,307.33,136.6,307.33,0,0,134.21-56.7,148.89-83.37s-183.81-467.13-183.81-467.13l184.59-146.06,51.17-122.7-104.92-24.1,12.22,33.94Z" class="color172c56 svgShape"></path><g fill="#000000" class="color000000 svgShape"><g fill="#000000" class="color000000 svgShape"><path fill="#a6cdf5" d="m2495.76,2513.8c1.99,11.78,18.67,21.64,30.13,45.4,11.46,23.76-.42,53.89-26.73,65.77-26.31,11.88-48.8,32.67-58.98,44.55-10.18,11.88-89.34,19.8-102.92,19.37-16.14-.5-47.75,1.65-55.34-16.96-10.81-26.5,24.35-23.39,37.62-28.77,59.47-24.12,94.44-91.54,89.09-143.58-4.48-43.62-11.64-87.08-19.26-130.25-14.79-83.8-33.39-166.86-51.26-250.03-11.18-52.05-29.59-103.63-35.59-156.73-1.58-14-2.3-28.1-1.79-42.34,3.32-93.74,125.51-103.7,194.01-126.34,2.01-.66,3.95-1.31,5.81-1.94,6.08-2.02,11.46-3.78,15.99-5.24,9.15-2.95,14.77-4.7,15.29-4.84,0,0,59.96,29.14,64.99,102.68,2.07,30.36-4.99,52.65-13.98,68.35-12.78,22.32-29.5,31.33-29.5,31.33,0,0-34.84,15.36-64.04,29.14-1.36.64-2.7,1.27-4.02,1.9-17.87,8.5-32.81,16.09-34.91,18.64,0,0,32.59,404.08,45.4,479.89Z" class="colorf5b0a6 svgShape"></path><path fill="#021b79" d="m2922.79,1772.43c-.75,53.6-11.75,116.43-50.27,156.52-19.73,20.54-45.82,34.49-74.75,43.94-48.96,16.01-101.12,18.74-152.22,19.6-45.88.75-79.61,15.4-123.61,27.75-4.49,1.26-9.36,2.79-11.9,6.71-1.69,2.63-1.98,5.79-1.77,8.97.11,1.6.34,3.2.58,4.75,20.09,128.55,40.18,257.11,60.27,385.66-28.08,21.49-64.34,44.42-99.91,49.48-19.52,2.77-74.51,6.48-89.96-7.33-13.02-11.66-91.49-474.47-91.87-537.5-.37-63.03,50-95.02,50-95.02,10.78-7.18,86.42-39.66,156.36-66.52,49.4-18.96,95.96-35.13,114.86-37.62,45.68-6,52.5-52.42,52.5-52.42v21.72s246.36-30.03,250.23-30.03c1.97,0,12.23,45.7,11.44,101.35Z" class="color1a2e6d svgShape"></path><path fill="#182760" d="m2922.79,1772.43c-142.27,18.5-287.06,17.56-429.04-3,49.4-18.96,95.96-35.13,114.86-37.62,45.68-6,52.5-52.42,52.5-52.42v21.72s246.36-30.03,250.23-30.03c1.97,0,12.23,45.7,11.44,101.35Z" class="color182d60 svgShape"></path><path d="m2849.61,708.29c-7.79,1.6-15.55,3.63-23.04,4.68,1.75,2.92,3.5,5.85,5.16,8.81.77,1.39,1.54,2.79,2.28,4.22,21,40.19,28.85,94.3,12.64,138-3.13,8.45-7.17,16.53-12.2,24.02-1.19,1.78-1.77,3.89-2.22,5.98-2.62,12.26-1.92,26.33-10.5,35.47.54-8.71-.62-17.53-3.39-25.8-2.18,6.72-6.99,12.26-12.13,17.11-15.02,14.22-33.95,24.22-54.11,28.82-10.52,2.39-19.38.65-30.04.27-6-.22-12.02-.32-18.02-.27-5.53.02-11.05.16-16.57.41-7.26.33-14.63.83-21.73-.76-7.49-1.67-18.85-6.83-22.92-13.83-2.7-4.67-3.48-12.27-5.06-17.57-4.18-13.92-8.24-27.87-12.27-41.83-7.69-26.61-15.23-53.27-22.7-79.95-.15-.53-.3-1.05-.45-1.58-1.96-7.01-3.92-14.03-5.86-21.05-.06-.23-.75-.65-1.76-1.17-2.86-1.5-8.32-3.74-9.36-4.47-3.7-2.56-6.96-5.67-9.86-9.09-5.71-6.78-9.7-14.89-12.52-23.24-6.03-17.81-7.33-38.66-2.98-56.99,10.83,8.14,32.64-1.09,42.87-6.41,12.31-6.42,20.58-14.33,34.18-17.99,37.98-10.23,78.84-.22,113.58,16.22,19.02,9,55.05,31.76,52.56-8.38,5.56,7.16,8.92,15.97,9.71,25,.39,4.31.18,8.68-.65,12.94,0,.03,0,.05,0,.08.05-.04.09-.07.14-.11,4.31-3.34,9.23-5.86,14.44-7.48,0,0,0-.01,0-.01,5.9-1.82,12.17-2.5,18.31-1.86,11.63,1.21,22.73,7.05,30.28,15.99-8.4-1.21-17.11.05-25.79,1.83Z" fill="#000000" class="color000000 svgShape"></path><path fill="#040b27" d="M2846.64 863.99c-3.13 8.45-7.17 16.53-12.2 24.02-1.19 1.78-1.77 3.89-2.22 5.98-2.62 12.26-1.92 26.33-10.5 35.47.54-8.71-.62-17.53-3.39-25.8-2.18 6.72-6.99 12.26-12.13 17.11-15.02 14.22-33.95 24.22-54.11 28.82-10.52 2.39-19.38.65-30.04.27-6-.22-12.02-.32-18.02-.27-2.54-1.71-4.94-3.6-7.2-5.67-10.52-9.66-17.23-23-20.58-36.89-2.73-11.34-3.36-23.2-1.82-34.76l37.27-75.98c15.1-8.14 29.05-18.42 41.29-30.43-8.6 36.76-19.34 72.38-17.42 110.58 0 .09 4.32-1.37 4.71-1.63 2.32-1.6 1.82-1.75 3.13-4.28 6.36-12.37 7.98-30.1 22.61-35.93 16.56-6.61 36.38-2.64 51.53 5.76 11.01 6.09 20.45 14.44 29.09 23.64zM2609.06 794.28c-2.33.09-4.58.16-6.72.21-1.96-7.01-3.92-14.03-5.86-21.05-.06-.23-.75-.65-1.76-1.17 27.46 3.43 67.96 5.28 92.16-7.54 0 0 6.32 26.16-77.81 29.55z" class="color270a04 svgShape"></path><path fill="#a6cdf5" d="m2759.95,932.74c-5.54,7.39-5.56,17.39-5.35,26.62.5,20.71.99,41.55,5.14,61.85,2.15,10.52,5.13,18.63-3.41,25.93-5.19,4.45-12.19,8.78-18.51,11.61-12.66,5.66-27.55,7.25-41.2,8.44-4.56.4-62.93-.64-58.8-6.01,7.93-10.31,10.7-27.74,12.28-44.08.91-9.32,1.42-18.27,2.3-25.39-.24,1.93-2.89,3.25-6.61,4.07-15.36,3.4-38.16,2.38-48.55-10.79-7.33-9.3-10.4-21.21-12.33-32.9-6.24-37.95-5.19-78.43-2.9-116.63.39-6.53,12.66-63.25,14.47-62.02,21.64,14.7,49.91,13.98,74.86,9.78-11.09,6.57-23.84,10.3-36.72,10.76,24.31,4.14,46.42,3.69,70.49-.85,12.23-2.3,24.23-5.82,35.76-10.49-3.98,1.61-.45,41.46-.58,47.87-.21,10.67-2.38,30.97,4.24,40.23,5.69,7.97,7.35-15.1,9.95-18.78,6.7-9.52,21.91-12.4,32.05-7.59,13.13,6.23,18.33,24.16,13.57,37.4-6.97,19.45-27.91,34.67-40.16,50.96Z" class="colorf5b0a6 svgShape"></path><path fill="#8abdf1" d="m2650.11,1017.1c.91-9.32,1.42-18.27,2.3-25.39,0,0,40.66-8.95,57.62-20.36-.75.64-31.04,26.55-59.92,45.75Z" class="colorf18a8b svgShape"></path><path fill="#ffffff" d="m2710.03,1063.95s58.55-18.7,39.04,58.54c-19.52,77.24-24.97,242.22-90.98,327.76-66.01,85.54-80.86,26.98-87.86-23.94-7-50.92,23.18-267.23,32.88-312.29,9.7-45.06,33.3-57.13,43.81-61.24,10.51-4.11,41.33,12.39,63.12,11.17Z" class="colorffffff svgShape"></path><g fill="#000000" class="color000000 svgShape"><polygon fill="#ffffff" points="2272.15 1517.12 2154.3 1546.56 2163.22 1593.74 2308.56 1593.74 2272.15 1517.12" class="colorffffff svgShape"></polygon><path d="m2311.73,1595.74h-150.16l-9.58-50.67,121.27-30.29,38.48,80.96Zm-146.85-4h140.52l-34.36-72.29-114.43,28.58,8.27,43.7Z" fill="#000000" class="color000000 svgShape"></path></g><path fill="#6f98c1" d="m2519.38,1594.33s-11.32,97.88-10.18,115.97c.29,4.46,3.65,7.96,8.74,10.66,15.61,8.33,47.56,9.37,57.09,8.3,12.66-1.41,43.4-32.54,43.4-32.54l-8.37-209.32v-.02l-.19-4.53s-1.7-9.33-3.38-25.76c-2.66-25.98-5.3-69.74-1.14-122.44,6.79-85.98,28.29-267.02,28.29-267.02v-14.85s-7.15,3.87-18.18,9.93c-34.84,19.11-108.55,59.96-119.3,69.42-14.14,12.44-57.18,305.46-74.15,323.57-16.97,18.11-133.47,44.16-149.89,47.55-16.41,3.39-23.2,91.09-23.2,91.09h270.44Z" class="color6fc183 svgShape"></path><path fill="#6f98c1" d="m2617.33,1669.01c8.08,48.05,16.9,86.8,23.12,87.05,15.84.65,295.32-38.97,291.92-62.73-3.39-23.76-47.52-207.06-47.52-207.06l76.43-321.52s-22.12-31.5-77.56-59.78c-55.43-28.29-98.44-54.31-101.83-52.05-3.39,2.26-39.26,19.23-45.66,38.48-6.38,19.23-8.66,165.19-48.25,250.05-29.96,64.19-63.15,105.08-79.99,128.53-5.41,7.55-9.15,13.29-10.52,17.43-3.45,10.32,7.33,107.13,19.87,181.6Z" class="color6fc183 svgShape"></path><g opacity=".3" fill="#000000" class="color000000 svgShape"><path fill="#2e3a68" d="m2863.3,1214.28s-54.26,139.61-65.57,136.22c-11.31-3.39-33.97-13.58-18.68-35.08,15.29-21.5,7.15-52.72,7.15-52.72l-134.3,196.61s40.6-9.24,58.14,13.39c17.54,22.63,16.41,61.1,59.4,84.86,43,23.76,136.55,17.59,136.55,17.59l-8.78-47.01s-37.25-121.06-16.88-193.48c20.37-72.42-17.02-120.38-17.02-120.38Z" class="color2e6857 svgShape"></path></g><path fill="#a6cdf5" d="m2646.57,1219.28s-64.56-82.95-78.09-100.81c-13.53-17.86-23.45-63.69-20.08-85.88,3.37-22.19-8.97-75.7-24.95-90.59-15.99-14.89-19.64-5.44-17.15,1.62l2.48,7.06s-19.51-13.65-23.77-10.51c-4.26,3.14-5.25,2.32-3.32,13.07,2.09,11.66,1.5,24.23,1.73,36.01.21,10.7.48,21.16,1.38,31.75.41,4.84.94,9.9-.32,14.66-.44,1.68-4.51,8.69-3.56,9.83-10.64-12.83-9.24-34.82-24.79-43.66-2.33-1.33-5.52-1.54-7.55.21-2.3,1.99-2.28,5.53-1.86,8.54,1.09,7.94,3.54,15.61,5.98,23.25,6.91,21.63,12.9,43.64,19.96,65.14,6.39,19.44,30.95,18.95,46.41,47.56,15.46,28.61,48.26,86.57,48.26,86.57,0,0,92.9,22.25,79.25-13.82Z" class="colorf5b0a6 svgShape"></path><path fill="#406a94" d="m2763.78,1231.69c9.04,11.32,29.42,31.69,23.76,46.4-5.45,14.15-71.75,161.55-177.67,204.79-.38.17-.77.32-1.16.47-3.7,1.49-7.46,2.84-11.26,4.05,1.15-3.46,3.96-8.05,8.02-13.89.79-1.13,1.62-2.31,2.5-3.53,16.83-23.46,50.03-64.34,79.99-128.53,39.6-84.86,41.88-230.83,48.26-250.06,6.39-19.25,42.26-36.21,45.65-38.47,0,0,48.65,122.2,39.61,130.13-9.06,7.9-66.77,37.34-57.7,48.64Z" class="color40947e svgShape"></path><circle cx="2624.31" cy="1537.49" r="9.35" fill="#2e3a68" class="color2e6857 svgShape"></circle><path fill="#406a94" d="m2605.36,1334.66c-4.95,62.76-.27,112.84,2.62,135.33,1.08,8.34,1.9,12.87,1.9,12.87v.02c-.38.17-.77.32-1.16.47-.79-2.36-1.89-5.71-3.24-9.83-13.38-40.89-51.01-159.27-45.64-180.73,6.5-26.02,24.05-47.52,31.96-56.58,7.92-9.04-23.76-19.22-21.58-49.21,1.41-19.2,27.02-81.76,45.26-124.29,11.04-6.06,18.18-9.93,18.18-9.93v14.85s-21.5,181.05-28.3,267.03Z" class="color40947e svgShape"></path><path fill="#6c91b7" d="m2509.2,1180.77c-.58,11.88,192.35,261.66,211.02,288.82,11.9,17.31,29.65,43.57,55.47,60.57,14.7,9.67,31.99,16.34,52.31,16.65,29.92.46,52.09-6.6,69.21-24.15,14.95-15.27,26.07-38.54,35.17-71.74,17.02-62.14,33.39-212.64,30.56-270.64-.49-10-4.78-19.44-12.02-26.35-18.95-18.08-38.66-27.13-53.62-10.5-40.73,45.27-56.57,182.18-72.4,221.78-15.85,39.6-107.5-86.56-127.87-105.23-20.37-18.67-115.97-136.92-118.81-137.48-2.82-.56-24.88,14.14-30.55,23.2-5.65,9.05-6.21,15.56-6.21,15.56,0,0-14.71-5.96-19.25-3.68-4.51,2.26-12.44,11.3-13,23.18Z" class="color6cb77c svgShape"></path><path fill="#2e3a68" d="m2775.68,1530.16c14.7,9.67,31.99,16.34,52.31,16.65,29.92.46,52.09-6.6,69.21-24.15-11.3-20.99-33.5-35.25-59.03-35.25-28.46,0-52.78,17.72-62.49,42.75Z" class="color2e6857 svgShape"></path><g fill="#000000" class="color000000 svgShape"><path fill="#2e3a68" d="m2563.22,1195.27c0,4.57,3.13,8.27,7,8.27,3.87,0,7-3.7,7-8.27,0-4.57-3.13-8.27-7-8.27-3.87,0-7,3.7-7,8.27Z" class="color2e6857 svgShape"></path><circle cx="2555.16" cy="1173" r="4.67" fill="#2e3a68" class="color2e6857 svgShape"></circle></g><g opacity=".3" fill="#000000" class="color000000 svgShape"><path fill="#2e3a68" d="m2519.38,1594.33s2.26-259.68,1.13-250.62c-1.13,9.05-21.5,190.66-61.1,220.64-39.6,29.98-101.83,29.98-101.83,29.98h161.81Z" class="color2e6857 svgShape"></path></g><path fill="#f7f7f7" d="M2781.88 1052.92s-9-43.88-17.91-37.09c-8.91 6.79-81.08 36.66-81.51 41.75-.42 5.09 29.65 50.64 34.31 48.09 4.67-2.55 65.11-52.76 65.11-52.76zM2679.91 1056.31s-31.4-31.82-37.34-26.31c-5.94 5.52-16.55 15.7-16.12 18.67.42 2.97 30.75 43 33.29 41.3 2.55-1.7 22.29-31.56 20.17-33.67z" class="colorf7f7f7 svgShape"></path><g opacity=".3" fill="#000000" class="color000000 svgShape"><polygon fill="#2e3a68" points="2512.03 1187 2559.83 1292.79 2570.22 1267.67 2512.03 1187" class="color2e6857 svgShape"></polygon></g><g opacity=".3" fill="#000000" class="color000000 svgShape"><path fill="#2e3a68" d="m2517.94,1720.96c15.61,8.33,47.56,9.37,57.09,8.3,12.66-1.41,43.4-32.54,43.4-32.54l-1.1-27.72c-12.54-74.47-23.32-171.28-19.87-181.6,1.38-4.14,5.11-9.88,10.52-17.43-.46-3.6-.97-7.91-1.48-12.88-14.92-38.63-29.28-75.51-29.28-75.51,0,0,18.57,145.47,19.26,212.17.59,58.88-41.8,122.01-78.55,127.21Z" class="color2e6857 svgShape"></path></g><g fill="#000000" class="color000000 svgShape"><path fill="#7ca6d1" d="m2647.7,847.87s-30.23,45.57-37.24,53.14c-7.01,7.57,14.08,18.71,22.63,13.57,8.55-5.15,14.61-66.71,14.61-66.71Z" class="colord17c84 svgShape"></path><ellipse cx="2683.21" cy="857.29" rx="11.53" ry="7.39" transform="rotate(-82.74 2683.335 857.239)" fill="#000000" class="color000000 svgShape"></ellipse><path d="M2674.52 832.69c-1.42-.31-2.63-1.38-3.04-2.87-.59-2.15.67-4.37 2.82-4.96 5.05-1.39 11.74-2.98 18.61-2.92 7.35.06 13.95 2.02 19.09 5.65 1.82 1.29 2.25 3.8.97 5.63-1.29 1.82-3.81 2.25-5.63.97-4.79-3.38-10.53-4.14-14.51-4.17-5.87-.05-11.84 1.38-16.39 2.63-.65.18-1.31.19-1.93.05zM2621.36 825.92c-.55 0-1.11-.13-1.65-.37-4.34-2.01-9.32-2.62-14.02-1.7-2.19.43-4.31-1-4.73-3.19-.43-2.19 1-4.31 3.19-4.73 6.35-1.24 13.09-.42 18.96 2.3 2.02.94 2.9 3.34 1.97 5.36-.69 1.49-2.17 2.36-3.71 2.34zM2611.7 837.15c-3.73-.47-7.38 4.01-8.14 10-.76 5.99 1.65 11.25 5.37 11.72 3.73.47 7.38-4.01 8.14-10 .76-5.99-1.65-11.25-5.37-11.72zM2644.28 944.36c7.83 1.13 15.77-.08 22.76-3.85 6.18-3.34 11.33-8.6 14.61-14.8.75-1.42.36-3.23-1.07-4.07-1.34-.79-3.31-.36-4.07 1.07-5.84 11.04-18.16 17.73-30.66 15.92-1.59-.23-3.19.39-3.66 2.08-.38 1.4.48 3.43 2.08 3.66h0z" fill="#000000" class="color000000 svgShape"></path></g></g><g fill="#000000" class="color000000 svgShape"><path fill="#0575e6" d="m1882.06,1296.29l103.8,298.04h595.95s-11.72-18.66-11.72-18.66h-203.22s-112.27-291.49-112.27-291.49c-2.61-6.8-9.13-11.27-16.41-11.27h-339.51c-12.11,0-20.6,11.95-16.62,23.38Z" class="color5681bf svgShape"></path><path fill="#99b9da" d="m2348.91,1594.33h-363.06l-17.28-49.61-48.49-139.22-38.03-109.21c-3.98-11.43,4.51-23.37,16.61-23.37h316.45c10.47,9.4,18.83,21.33,24.09,35.06l14.45,37.73,95.24,248.63Z" class="color99b1da svgShape"></path><ellipse cx="2102.06" cy="1440.67" fill="#ffffff" rx="23.99" ry="37.06" transform="rotate(-15.96 2102.542 1440.922)" class="colorffffff svgShape"></ellipse></g><g fill="#000000" class="color000000 svgShape"><polygon fill="#6daff1" points="2945.67 2022.7 2957.62 2096.71 3051.17 2676.4 3080.03 2676.4 3012.85 2096.71 3003.45 2015.6 2945.67 2022.7" class="colorf19a6d svgShape"></polygon><polygon fill="#6daff1" points="2474.27 2676.4 2503.12 2676.4 2596.67 2096.71 2608.62 2022.7 2550.85 2015.6 2541.45 2096.71 2474.27 2676.4" class="colorf19a6d svgShape"></polygon><polygon fill="#5979ef" points="3003.45 2015.6 2945.67 2022.7 2957.62 2096.71 3012.85 2096.71 3003.45 2015.6" class="coloref7c59 svgShape"></polygon><polygon fill="#5979ef" points="2541.45 2096.71 2596.67 2096.71 2608.62 2022.7 2550.85 2015.6 2541.45 2096.71" class="coloref7c59 svgShape"></polygon><path fill="#90c1f3" d="m3073.9,1994.16c-26.55,37.6-443.08,46.37-551.89,48.03-13.01.2-23.86-9.39-25.59-21.91,16.16-12.32,36.8-24.82,59.76-26.88,44.15-3.99,155.47,7.67,241.58-20.49,72.71-4.22,139.44-9.15,174.3-14.38,95.4-14.31,88.01-694.6,86.7-780.33-.1-6.48,3.29-12.65,9.06-15.62,9.47-4.86,15.68,2.81,31.52,42.42,20.37,50.92,5.1,745.89-25.45,789.17Z" class="colorf3ce90 svgShape"></path><path fill="#6daff1" d="m2797.77,1972.89c-86.11,28.16-197.43,16.5-241.58,20.49-22.96,2.07-43.6,14.56-59.76,26.88-.17-1.16-.25-2.33-.25-3.53v-5.66c0-13.7,10.84-24.93,24.52-25.44,50.48-1.86,170.23-6.54,277.07-12.75Z" class="colorf19a6d svgShape"></path></g><g fill="#000000" class="color000000 svgShape"><path fill="#3d4f91" d="m1403.79,1635.07h1937.61c11.25,0,20.37-9.12,20.37-20.37h0c0-11.25-9.12-20.37-20.37-20.37h-1937.61c-11.25,0-20.37,9.12-20.37,20.37h0c0,11.25,9.12,20.37,20.37,20.37Z" class="color3d5891 svgShape"></path><polygon fill="#2f3d71" points="3183.37 1635.07 3207.49 1731.81 3443.03 2676.4 3476.13 2676.4 3275.21 1731.81 3254.64 1635.07 3183.37 1635.07" class="color2f4171 svgShape"></polygon><polygon fill="#2f3d71" points="1268.96 2676.4 1302.06 2676.4 1537.6 1731.81 1561.72 1635.07 1490.44 1635.07 1469.87 1731.81 1268.96 2676.4" class="color2f4171 svgShape"></polygon><polygon fill="#242e54" points="3254.64 1635.07 3183.37 1635.07 3207.49 1731.81 3275.21 1731.81 3254.64 1635.07" class="color243354 svgShape"></polygon><polygon fill="#242e54" points="1469.87 1731.81 1537.6 1731.81 1561.72 1635.07 1490.44 1635.07 1469.87 1731.81" class="color243354 svgShape"></polygon></g><g fill="#000000" class="color000000 svgShape"><g fill="#000000" class="color000000 svgShape"><path fill="#2f3d71" d="m2954.02,1536.56v49.88h-10.96s0,8.31,0,8.31h325.84c15.04,0,27.22-9.85,27.22-22v-22.5c0-12.15-12.19-22-27.22-22h-325.84s0,8.32,0,8.32h10.96Z" class="color2f4171 svgShape"></path><path fill="#ffffff" d="m2954.02,1536.56v49.87s316.69,0,316.69,0c8.02,0,14.52-5.26,14.52-11.73v-26.41c0-1.89-.56-3.68-1.53-5.26-2.39-3.84-7.3-6.48-12.99-6.48h-316.69Z" class="colorffffff svgShape"></path><g fill="#000000" class="color000000 svgShape"><rect width="331.21" height="2.45" x="2954.02" y="1547.56" fill="#efefef" class="colorefefef svgShape"></rect><rect width="331.21" height="2.45" x="2954.02" y="1560.76" fill="#efefef" class="colorefefef svgShape"></rect><rect width="331.21" height="2.45" x="2954.02" y="1569.32" fill="#efefef" class="colorefefef svgShape"></rect></g><g opacity=".5" fill="#000000" class="color000000 svgShape"><path fill="#efefef" d="m2954.02,1578.06v8.37s316.69,0,316.69,0c8.02,0,14.52-5.26,14.52-11.73v-26.41c0-1.89-.56-3.68-1.53-5.26-13.01,17.81-48.97,35.02-139.38,35.02h-190.3Z" class="colorefefef svgShape"></path></g><polygon fill="#0575e6" points="3232.2 1563.2 3232.2 1599.26 3219.05 1589.58 3208.54 1598.62 3208.54 1563.2 3232.2 1563.2" class="color5681bf svgShape"></polygon></g><g fill="#000000" class="color000000 svgShape"><path fill="#99b9da" d="m2979.41,1369.49v36.31h-8.84s0,6.05,0,6.05h262.81c12.13,0,21.96-7.17,21.96-16.02v-16.38c0-8.85-9.83-16.02-21.96-16.02h-262.81s0,6.06,0,6.06h8.84Z" class="color99b1da svgShape"></path><path fill="#ffffff" d="m2979.41,1369.49v36.31s255.43,0,255.43,0c6.47,0,11.71-3.83,11.71-8.54v-19.22c0-1.38-.45-2.68-1.24-3.83-1.93-2.8-5.89-4.72-10.47-4.72h-255.43Z" class="colorffffff svgShape"></path><g fill="#000000" class="color000000 svgShape"><rect width="267.14" height="1.78" x="2979.41" y="1377.5" fill="#efefef" class="colorefefef svgShape"></rect><rect width="267.14" height="1.78" x="2979.41" y="1387.11" fill="#efefef" class="colorefefef svgShape"></rect><rect width="267.14" height="1.78" x="2979.41" y="1393.34" fill="#efefef" class="colorefefef svgShape"></rect></g><g opacity=".5" fill="#000000" class="color000000 svgShape"><path fill="#efefef" d="m2979.41,1399.7v6.09s255.43,0,255.43,0c6.47,0,11.71-3.83,11.71-8.54v-19.22c0-1.38-.45-2.68-1.24-3.83-10.49,12.96-39.49,25.5-112.41,25.5h-153.49Z" class="colorefefef svgShape"></path></g><polygon fill="#3d4f91" points="3203.77 1388.89 3203.77 1415.14 3193.17 1408.09 3184.69 1414.67 3184.69 1388.89 3203.77 1388.89" class="color3d5891 svgShape"></polygon></g><g fill="#000000" class="color000000 svgShape"><path fill="#3d4f91" d="m3224.39,1521.02v-35.39h7.77s0-5.9,0-5.9h-231.05c-10.66,0-19.3,6.99-19.3,15.61v15.96c0,8.62,8.64,15.61,19.3,15.61h231.05s0-5.9,0-5.9h-7.77Z" class="color3d5891 svgShape"></path><path fill="#ffffff" d="m2989.52,1493.95v18.73c0,4.61,4.61,8.33,10.3,8.33h224.57s0-35.38,0-35.38h-224.57c-5.69,0-10.3,3.73-10.3,8.33Z" class="colorffffff svgShape"></path><g fill="#000000" class="color000000 svgShape"><rect width="234.86" height="1.73" x="2989.52" y="1511.48" fill="#efefef" class="colorefefef svgShape"></rect><rect width="234.86" height="1.73" x="2989.52" y="1502.11" fill="#efefef" class="colorefefef svgShape"></rect><rect width="234.86" height="1.73" x="2989.52" y="1496.04" fill="#efefef" class="colorefefef svgShape"></rect></g><g opacity=".5" fill="#000000" class="color000000 svgShape"><path fill="#efefef" d="m2989.52,1512.34v.34c0,4.61,4.61,8.33,10.3,8.33h224.57s0-32.87,0-32.87c-19.15,13.08-54.08,24.2-117.43,24.2h-117.44Z" class="colorefefef svgShape"></path></g></g><g fill="#000000" class="color000000 svgShape"><path fill="#0575e6" d="m3253.41,1470.11v-49.78h9.3s0-8.29,0-8.29h-276.37c-12.75,0-23.09,9.83-23.09,21.96v22.45c0,12.13,10.34,21.96,23.09,21.96h276.37s0-8.3,0-8.3h-9.3Z" class="color5681bf svgShape"></path><path fill="#ffffff" d="m2972.48,1432.04v26.35c0,6.48,5.51,11.71,12.32,11.71h268.61s0-49.77,0-49.77h-268.61c-6.81,0-12.32,5.24-12.32,11.71Z" class="colorffffff svgShape"></path><g fill="#000000" class="color000000 svgShape"><rect width="280.93" height="2.44" x="2972.48" y="1456.69" fill="#efefef" class="colorefefef svgShape"></rect><rect width="280.93" height="2.44" x="2972.48" y="1443.51" fill="#efefef" class="colorefefef svgShape"></rect><rect width="280.93" height="2.44" x="2972.48" y="1434.97" fill="#efefef" class="colorefefef svgShape"></rect></g><g opacity=".5" fill="#000000" class="color000000 svgShape"><path fill="#efefef" d="m2972.48,1457.91v.48c0,6.48,5.51,11.71,12.32,11.71h268.61s0-46.24,0-46.24c-22.91,18.4-64.68,34.04-140.46,34.04h-140.47Z" class="colorefefef svgShape"></path></g></g></g><g fill="#000000" class="color000000 svgShape"><g fill="#000000" class="color000000 svgShape"><path fill="#b5cee8" d="m1547.57,1536.56v49.88h-10.96s0,8.31,0,8.31h325.84c15.04,0,27.22-9.85,27.22-22v-22.5c0-12.15-12.19-22-27.22-22h-325.84s0,8.32,0,8.32h10.96Z" class="colorb5cae8 svgShape"></path><path fill="#ffffff" d="m1547.57,1536.56v49.87s316.69,0,316.69,0c8.02,0,14.52-5.26,14.52-11.73v-26.41c0-1.89-.56-3.68-1.53-5.26-2.39-3.84-7.3-6.48-12.99-6.48h-316.69Z" class="colorffffff svgShape"></path><g fill="#000000" class="color000000 svgShape"><rect width="331.21" height="2.45" x="1547.57" y="1547.56" fill="#efefef" class="colorefefef svgShape"></rect><rect width="331.21" height="2.45" x="1547.57" y="1560.76" fill="#efefef" class="colorefefef svgShape"></rect><rect width="331.21" height="2.45" x="1547.57" y="1569.32" fill="#efefef" class="colorefefef svgShape"></rect></g><g opacity=".5" fill="#000000" class="color000000 svgShape"><path fill="#efefef" d="m1547.57,1578.06v8.37s316.69,0,316.69,0c8.02,0,14.52-5.26,14.52-11.73v-26.41c0-1.89-.56-3.68-1.53-5.26-13.01,17.81-48.97,35.02-139.38,35.02h-190.3Z" class="colorefefef svgShape"></path></g><polygon fill="#99b9da" points="1825.74 1563.2 1825.74 1599.26 1812.6 1589.58 1802.08 1598.62 1802.08 1563.2 1825.74 1563.2" class="color99b1da svgShape"></polygon></g><g fill="#000000" class="color000000 svgShape"><path fill="#d1dfed" d="m1817.93,1521.02v-35.39h7.77s0-5.9,0-5.9h-231.05c-10.66,0-19.3,6.99-19.3,15.61v15.96c0,8.62,8.64,15.61,19.3,15.61h231.05s0-5.9,0-5.9h-7.77Z" class="colord1dbed svgShape"></path><path fill="#ffffff" d="m1583.07,1493.95v18.73c0,4.61,4.61,8.33,10.3,8.33h224.57s0-35.38,0-35.38h-224.57c-5.69,0-10.3,3.73-10.3,8.33Z" class="colorffffff svgShape"></path><g fill="#000000" class="color000000 svgShape"><rect width="234.86" height="1.73" x="1583.07" y="1511.48" fill="#efefef" class="colorefefef svgShape"></rect><rect width="234.86" height="1.73" x="1583.07" y="1502.11" fill="#efefef" class="colorefefef svgShape"></rect><rect width="234.86" height="1.73" x="1583.07" y="1496.04" fill="#efefef" class="colorefefef svgShape"></rect></g><g opacity=".5" fill="#000000" class="color000000 svgShape"><path fill="#efefef" d="m1583.07,1512.34v.34c0,4.61,4.61,8.33,10.3,8.33h224.57s0-32.87,0-32.87c-19.15,13.08-54.08,24.2-117.43,24.2h-117.44Z" class="colorefefef svgShape"></path></g></g></g><g opacity=".15" fill="#000000" class="color000000 svgShape"><polygon fill="#ffffff" points="2073.3 1272.91 1968.58 1544.71 1920.09 1405.49 1971.16 1272.91 2073.3 1272.91" class="colorffffff svgShape"></polygon></g><g opacity=".15" fill="#000000" class="color000000 svgShape"><path fill="#ffffff" d="m2253.67,1345.7l-95.79,248.63h-102.14l123.83-321.42h35.56c10.47,9.4,18.83,21.33,24.09,35.06l14.45,37.73Z" class="colorffffff svgShape"></path></g></g><g fill="#000000" class="color000000 svgShape"><path fill="#2e3a68" d="M1586.47 2293.44c51.15-48.72 167.38-261.36 173.58-328.2-196.47 29.61-198.68 168.57-223.96 318.82 16.79 3.12 33.59 6.25 50.38 9.37zM1350.11 2246.94c-56.71-31.16-158.13-132.94-209.11-196.95 153.44-15.09 333.34 37.34 290.15 221.9-44.14-15.16-24.33 6.22-81.03-24.95z" class="color2e6857 svgShape"></path><g fill="#000000" class="color000000 svgShape"><path fill="#406a94" d="m1502.45,2269.77c.13,0,.28,0,.41.02,3.95.14,7.9.24,11.85.27,5.22.06,10.44.05,15.66,0,.31,0,.61,0,.92,0,1.97-.02,3.93-.04,5.91-.07,5.41-.07,10.83-.16,16.24-.23,7.21-.1,14.43-.16,21.63-.09,65.82-103.49,9.05-335.83,14.16-456.32-47.92,46.31-78.52,70.46-102.33,136.41-2.51,6.95-4.97,14.37-7.34,22.18-7.14,23.49-13.43,50.52-17.61,78.87,0,.03,0,.06-.02.09-11.55,78.34-6.99,166.79,40.5,218.87Z" class="color40947e svgShape"></path><path fill="#242d4f" d="m1531.3,2270.05c1.97-.02,3.93-.04,5.91-.07-11.65-100.09-6.43-192.61.63-255.66,8.7-77.57,22.01-128.48,22.13-128.99.4-1.46-.57-2.95-2.15-3.31-1.57-.36-3.17.53-3.56,2.01-.13.51-13.52,51.7-22.27,129.62-7.1,63.24-12.33,155.99-.7,256.41Z" class="color244f42 svgShape"></path><g opacity=".5" fill="#000000" class="color000000 svgShape"><path fill="#2e3a68" d="m1502.86,2269.79c.08.09.17.18.25.27h50.3c.02-.1.03-.2.04-.31,19.8-129.71-45.72-253.19-73.88-297.82-7.14,23.49-13.43,50.52-17.61,78.87,0,.03,0,.06-.02.09-8,85.11-2.3,171.9,40.91,218.89Z" class="color2e6857 svgShape"></path></g></g><g fill="#000000" class="color000000 svgShape"><path fill="#6f98c1" d="m1444.23,2269.05c-63.56-33.31-181.97-384.11-253.51-484.7,224.03,75.4,391.97,251.08,319.41,485.38-21.97-.22-43.94-.45-65.9-.67Z" class="color6fc183 svgShape"></path><path fill="#242d4f" d="m1479.93,2269.15c.45.14.87.09,1.2-.16,1.72-1.3,3.53-1.59,2.48-4.52-57.11-160.67-74.45-247.87-185.19-383.58-2.02-2.48-3.82-1.91-5.49-.63-1.66,1.27-2.67,2.73-.66,5.2,110.36,135.33,126.92,220.83,183.96,381.12.84,2.37,1.78,1.96,3.68,2.57Z" class="color244f42 svgShape"></path></g><path fill="#90c1f3" d="m1340.85,2256.06c-9.06,0-15.87,10.96-14.11,22.74l5,33.45.87,5.81,1.65,11.05.03.26,3.9,26.11.82,5.53.82,5.52,1.73,11.6,27.44,183.79,1.09,7.3,1.47,9.82.18,1.23,3.94,26.37.61,4.04,1.05,7.01,1.51,10.1,5.49,36.81c1.33,8.92,7.24,15.35,14.11,15.35h177.61c6.87,0,12.78-6.43,14.11-15.35l5.49-36.81,1.51-10.1,1.05-7.01.61-4.04,3.94-26.37.18-1.23,1.47-9.82,1.09-7.3,27.44-183.79,1.73-11.6.82-5.52.82-5.53,3.9-26.11.03-.26,1.65-11.05.87-5.81,5-33.45c1.76-11.77-5.05-22.74-14.11-22.74h-292.83Z" class="colorf3ce90 svgShape"></path><polygon fill="#6daff1" points="1338.19 2355.47 1339.01 2361 1339.84 2366.52 1634.69 2366.52 1635.51 2361 1636.33 2355.47 1338.19 2355.47" class="colorf19a6d svgShape"></polygon><polygon fill="#6daff1" points="1332.6 2299.69 1334.25 2307.47 1640.27 2307.47 1641.93 2299.69 1332.6 2299.69" class="colorf19a6d svgShape"></polygon><polygon fill="#6daff1" points="1375.69 2606.62 1376.3 2610.66 1377.35 2617.67 1597.18 2617.67 1598.23 2610.66 1598.83 2606.62 1375.69 2606.62" class="colorf19a6d svgShape"></polygon><polygon fill="#6daff1" points="1370.1 2569.2 1371.58 2579.02 1371.76 2580.25 1602.77 2580.25 1602.95 2579.02 1604.43 2569.2 1370.1 2569.2" class="colorf19a6d svgShape"></polygon></g><path fill="#a6cdf5" d="m2645.8,995.79c4.02-2.53,6.61-4.07,6.61-4.07-.24,1.93-2.89,3.25-6.61,4.07Z" class="colorf5b0a6 svgShape"></path><g fill="#000000" class="color000000 svgShape"><g fill="#000000" class="color000000 svgShape"><g fill="#000000" class="color000000 svgShape"><path fill="#d1dfed" d="m2307.59,1092.07l-504.97,78.38,5.48-3.82,3.58-128.9.77-27.85s11.95,4.94,29.46,11.81c6.68,2.62,14.17,5.51,22.11,8.51,45.67,17.28,106.43,38.22,115.31,31.02,6.47-5.25,28.36-30.5,54.65-63.7,32.54-41.11,71.8-94.42,96.8-137.04,3.42-5.81,1.96-26.84,1.96-26.84l7.47-14.23-2.07-2.18-37.83-39.84-2.25,2.03-9.91,8.96s-12.5,3.6-15.2,6.78c-22.45,26.63-101.57,106.1-101.57,106.1,0,0-4.18-1.98-11.29-5.32-37.61-17.61-157.15-73.36-176.26-78.21-21.79-5.54-100.5-.79-132.94,1.49-5.91.43-10.3.75-12.51.92-1.05.09-1.61.13-1.61.13l-14.74-4.15-7.65-2.15-30.37-8.57-12.33-3.48s-2.11,1.21-5.88,3.39c-5.91,3.43-15.95,9.25-28.46,16.62-6.8,4-14.35,8.46-22.36,13.23-7.98,4.75-16.43,9.81-25.07,15.04-2.77,1.67-5.57,3.37-8.38,5.08-1.67,1.01-3.35,2.03-5.03,3.05-50.14,30.6-102.85,64.52-110.29,76.22-3.95,5.63-9.54,18.68-15.75,36.74l-29.84-251.99c-2.37-19.91,9.37-38.81,28.27-45.52l78.56-27.91,6.77-2.41,18.07-6.42,30.62-10.89,56.3-20,45.77-16.27,11.13-3.95,617.62-219.43c26.05-9.26,53.94,8.15,57.05,35.63l59.19,521.65,13.73,121.03c2.6,22.9-13.33,43.76-36.1,47.3Z" class="colord1dbed svgShape"></path><path fill="#b5cee8" d="M1477.36 841.42c1.3 4.63 2.68 9.24 4.16 13.84-1.67 1.01-3.35 2.03-5.03 3.05-50.14 30.6-102.85 64.52-110.29 76.22-3.95 5.63-9.54 18.68-15.75 36.74l-29.84-251.99c-2.37-19.91 9.37-38.81 28.27-45.52l78.56-27.91 6.77-2.41 18.07-6.42c.67 10.6 1.34 21.19 2.01 31.79 3.67 58.05 7.42 116.6 23.07 172.61zM2307.59 1092.07l-504.97 78.38 5.48-3.82 3.58-128.9c17.5-2 34.95-4.63 52.35-7.53 9.13-1.53 18.25-3.13 27.35-4.76 47.68-8.53 95.23-17.84 142.6-27.93 99.48-21.18 198.21-45.78 295.97-73.76l13.73 121.03c2.6 22.9-13.33 43.76-36.1 47.3z" class="colorb5cae8 svgShape"></path><path fill="#99b9da" d="m1647.66,1294.7c-1.02,0-2.02-.39-2.78-1.13l-78.34-76.88c-8.88-8.72-21.51-12.69-33.79-10.63l-2.49.42-104.33,17.55c-13.27,2.24-26.89-1.35-37.35-9.84-.04-.03-.08-.06-.11-.1-.03-.03-.06-.06-.1-.09-9.41-7.71-15.37-18.61-16.81-30.73l-25.05-211.55-29.85-251.99c-2.6-21.89,10.1-42.34,30.88-49.72l247.23-87.85,617.6-219.44c13.57-4.82,28.35-3.22,40.56,4.41,12.21,7.63,20.14,20.2,21.76,34.51l72.91,642.67c2.85,25.09-14.46,47.78-39.42,51.65l-504.97,78.38-125.83,19.53c-21.09,3.27-35.45,22.4-32.68,43.57l6.88,52.76c.22,1.68-.65,3.31-2.16,4.06-.56.28-1.17.42-1.77.42Zm692.09-249.48l-56.35-496.69-16.56-145.98c-1.35-11.89-7.94-22.34-18.09-28.67-8.33-5.21-18.11-7.04-27.58-5.3-2.06.37-4.11.92-6.12,1.63l-201.2,71.49-175.5,62.36-240.89,85.59-247.23,87.85c-17.27,6.14-27.83,23.13-25.66,41.32l28.91,244c5-13.68,9.45-23.58,12.75-28.28,7.44-11.7,60.15-45.61,110.29-76.22,4.51-2.74,8.99-5.47,13.41-8.13,8.65-5.23,17.1-10.29,25.07-15.04,8.01-4.77,15.56-9.22,22.36-13.23,12.51-7.37,22.55-13.2,28.46-16.62,3.77-2.18,5.88-3.39,5.88-3.39l12.33,3.48,30.37,8.57,7.65,2.15,14.74,4.15s.56-.04,1.61-.13c2.21-.17,6.6-.5,12.51-.92,8.77-.61,20.91-1.41,34.41-2.13,36.42-1.96,82.64-3.4,98.54.64,6.78,1.72,26.17,9.83,50.06,20.38,43.5,19.2,101.92,46.45,126.2,57.83.92.44,1.79.84,2.61,1.23,5.52,2.59,8.69,4.09,8.69,4.09,0,0,79.12-79.46,101.57-106.1,2.69-3.18,15.2-6.78,15.2-6.78l9.91-8.96,2.25-2.03,37.83,39.84,2.07,2.18-7.47,14.23s1.46,21.03-1.96,26.84c-45.2,77.05-136.97,188.99-151.45,200.75-7.09,5.75-47.3-6.46-86.47-20.41-18.39-6.55-36.56-13.48-50.95-19.12-17.52-6.87-29.46-11.81-29.46-11.81l-4.32,155.7,26.11-4.05,183.87-28.53,288.89-44.84c20.73-3.22,35.12-22.07,32.75-42.93Z" class="color99b1da svgShape"></path></g><g fill="#000000" class="color000000 svgShape"><path fill="#a6cdf5" d="m2183.83,775.08c-8.12,5.71-30.91,16.09-30.91,16.09l-8.58,15.13-14.38,25.34-47.27-22.87,21.83-41.68,5.27-10.07s-3.31-25.02-2.68-29.55c.62-4.54,16.52-39.72,15.87-47.43-.64-7.71-.12-10.98-.12-10.98,0,0,10.87,1.14,11.62,7.58.74,6.44,2.78,28.29,2.78,28.29,0,0,25.09-19.89,27.52-24.54,2.42-4.65,32.36-33.83,34.99-37.95,2.63-4.12,15.3-6.14,17.31-2.66l-1.16,4.76,11.2,3.47-4.08,21.86s6.46,11.5,5.73,14.25c-.73,2.74-2.3,18.68-2.3,18.68,0,0,2.65,2,3.51,10.23.85,8.23-38.03,56.33-46.15,62.05Z" class="colorf5b0a6 svgShape"></path><path fill="#8abdf1" d="M2144.34 806.3l-14.38 25.34-47.27-22.87 21.83-41.68c12 14.37 24.62 28.79 39.82 39.2zM2137.27 704.94c2.26 2.44 4.04 5.28 5.53 8.25 1.51 2.96 2.65 6.11 3.49 9.34.44 1.61.72 3.26 1 4.91.11.83.19 1.66.26 2.49l.11 1.25v1.26c.15 3.33-.34 6.69-1.2 9.87-.36-3.31-.54-6.51-1.1-9.67-.1-.79-.24-1.58-.41-2.36-.16-.78-.27-1.57-.44-2.35-.36-1.55-.67-3.11-1.1-4.65-.79-3.08-1.72-6.14-2.75-9.19-1.05-3.04-2.19-6.06-3.4-9.14zM2215.93 644.54c-1.87 1.45-3.38 3.2-4.8 5.02-1.44 1.79-2.69 3.75-3.97 5.67-1.22 1.97-2.48 3.91-3.65 5.92l-3.59 6c-1.24 1.99-2.44 4-3.81 5.98-1.41 2-3.02 3.8-4.71 5.46-3.37 3.34-7.01 6.35-10.93 8.99 3.09-3.56 6.25-7.01 9.22-10.56 1.45-1.8 2.93-3.55 4.08-5.46 1.23-1.92 2.41-3.94 3.61-5.95 1.23-1.99 2.46-4 3.76-5.96 1.32-1.95 2.66-3.91 4.14-5.76 1.48-1.86 3.02-3.67 4.78-5.3 1.76-1.6 3.66-3.15 5.87-4.04zM2223.04 669.87c-1.81.22-3.59.5-5.17 1.16-1.57.62-2.94 1.58-3.71 2.86-.8 1.26-1.04 2.81-.95 4.39 0 .39.06.8.13 1.2l.09.64c.03.28.08.57.08.85.04 1.13-.19 2.16-.48 3.12-.61 1.92-1.55 3.6-2.59 5.16-1.05 1.55-2.21 3.01-3.46 4.35-2.48 2.71-5.22 5.15-8.27 7.17 2.19-2.92 4.4-5.75 6.47-8.63 1.01-1.46 2.01-2.91 2.88-4.4.44-.74.86-1.49 1.22-2.25.38-.75.69-1.52.92-2.28.24-.75.4-1.51.39-2.19 0-.17-.02-.33-.03-.5 0-.16-.05-.47-.07-.7-.06-.49-.1-.98-.08-1.49 0-1.99.49-4.18 1.89-5.82 1.32-1.7 3.32-2.55 5.18-2.9 1.9-.32 3.78-.19 5.56.24zM2226.47 702.8c-1.17-.93-2.31-1.84-3.51-2.58-1.17-.75-2.47-1.37-3.53-1.41-1.05.01-1.56.46-2.19 1.64-.61 1.1-1.08 2.41-1.53 3.74-.88 2.7-1.72 5.59-3.17 8.3-.73 1.35-1.63 2.65-2.75 3.74-1.16 1.06-2.53 1.87-3.99 2.21 1.17-.95 2.13-1.97 2.87-3.15.74-1.17 1.26-2.46 1.75-3.75.91-2.64 1.54-5.44 2.46-8.3.49-1.43 1.05-2.88 1.95-4.28.42-.66 1.03-1.47 1.93-1.99.9-.53 2.05-.68 2.96-.46 1.86.4 3.07 1.51 4.15 2.58 1.04 1.13 1.93 2.35 2.59 3.7z" class="colorf18a8b svgShape"></path><path fill="#90c1f3" d="m2137.9,834.88c-.58.67-1.15,1.36-1.65,2.12-2.95,4.45-2.13,9.75-3.17,14.72-1.19,5.73-3.87,11.26-6.69,16.35-25.19,45.61-59.53,87.83-91.76,128.6-11.53,14.58-23.24,29.03-35.37,43.12-6.24,7.26-12.46,15.36-19.94,21.43-10.42,8.45-92.35-21.88-137.42-39.53-17.52-6.87-29.46-11.81-29.46-11.81l-4.32,155.7-6.11.95-125.83,19.54c-.08,0-.16.02-.24.04-12.08,1.94-22.76,8.37-30.11,18.17-7.4,9.85-10.59,22-8.99,34.22l3.42,26.2,1.98,15.18-6.13-6.02-64.04-62.82c-8.82-8.66-20.72-13.42-32.91-13.42-2.58,0-5.16.21-7.75.64l-1.9.32-.6.11-31.78,5.34-72.51,12.21c-10.96,1.84-22.2-1.08-30.88-8.03,0,0-.02-.02-.03-.02-.04-.06-.1-.11-.16-.16-7.91-6.41-12.93-15.52-14.12-25.65l-25.06-211.56-.93-7.99c5-13.68,9.45-23.58,12.75-28.28,7.44-11.7,60.15-45.61,110.29-76.22,4.51-2.74,8.99-5.47,13.41-8.13,8.65-5.23,17.1-10.29,25.07-15.04,8.01-4.77,15.56-9.22,22.36-13.23,12.51-7.37,22.55-13.2,28.46-16.62,3.77-2.18,5.88-3.39,5.88-3.39l12.33,3.48,30.37,8.57,7.65,2.15,14.74,4.15s.56-.04,1.61-.13c2.21-.17,6.6-.5,12.51-.92,8.77-.61,20.91-1.41,34.41-2.13,36.42-1.96,82.64-3.4,98.54.64,6.78,1.72,26.17,9.83,50.06,20.38,43.5,19.2,101.92,46.45,126.2,57.83,7.11,3.34,11.29,5.32,11.29,5.32,17.41-17.49,34.76-35.03,51.91-52.78,8.57-8.87,17.09-17.8,25.54-26.79,7.17-7.62,13.01-16.48,20.42-23.85,4.27-4.24,9.74-6.74,14.5-10.31s8.19-8.39,12.82-12.07c7.41,8.45,16.69,15.59,24.59,23.91,5.18,5.46,12.03,9.09,17.05,14.78,2.79,3.16,4.81,8.51,4.41,12.75-.33,3.49-2.65,5.61-4.74,8.01Z" class="colorf3ce90 svgShape"></path><g opacity=".3" fill="#000000" class="color000000 svgShape"><path fill="#5979ef" d="m1645.19,879.41c-12.95,4.94-38.3-10.92-38.3-10.92-10.24,4.6-15,34.09-15,34.09-31.92,9.47-92.69-29.07-115.4-44.27,48.8-29.76,95.19-56.41,95.19-56.41l65.09,18.35s5.39-.43,14.13-1.04c5.63,13.07,7.23,55.28-5.72,60.21Z" class="coloref7c59 svgShape"></path></g><g opacity=".3" fill="#000000" class="color000000 svgShape"><path fill="#6daff1" d="m1653.22,1188.66l-13.21,1.89c-5.25-67.09-22.25-274.83-35.99-336.76,0,0,48.31,127.95,49.2,334.87Z" class="colorf19a6d svgShape"></path></g><path fill="#a6cdf5" d="m1626.59,830.29c-50.16,48.83-112.49,16.43-112.49,16.43,3.27-32.46-.97-55.29-7.37-71.07-1.54-3.77-3.18-7.14-4.89-10.14-9.47-16.7-20.5-22.03-20.5-22.03l26.89,1.95,107.41,7.8c-6.66,8.83-1.4,34.79,3.88,54.16,3.53,12.93,7.06,22.92,7.06,22.92Z" class="colorf5b0a6 svgShape"></path><path fill="#8abdf1" d="m1619.52,807.38c-26.94,2.81-67.86-1.87-112.79-31.73-1.54-3.77-3.18-7.14-4.89-10.14l6.39-20.08,107.41,7.8c-6.66,8.83-1.4,34.79,3.88,54.16Z" class="colorf18a8b svgShape"></path><path fill="#040b27" d="m1550.71,564.02s32.49-10.07,50.11,31.2c17.61,41.27,3.27,79.45,3.27,79.45l-69.51-51.69,16.13-58.96Z" class="color270a04 svgShape"></path><path fill="#a6cdf5" d="m1634.49,758.42c-1.21,37.94-53.82,28.59-92.57,20.43l-45.61-12.77c-46.85-42.08-87.02-115.23-44.69-160.34,3.29-3.52,7.08-6.86,11.41-10,46.72-33.91,84.32-34.02,112.28-13.97,41.25,29.59,61.53,103.08,59.19,176.64Z" class="colorf5b0a6 svgShape"></path><g opacity=".5" fill="#000000" class="color000000 svgShape"><path fill="#8abdf1" d="m1575.3,581.77c-7.88,4.63-16.58,7.65-25.47,9.76-9.86,2.34-21.33,1.84-30.82,5.01-7.5,2.5-18.24,11.07-19.9,19.3-1.75,8.65,7.74,20.73,11.05,28.41,9.72,22.6,8.77,49.53-2.52,71.39-4.49-7.33-12.53-11.52-19.51-16.54-18.7-13.49-31.03-34.85-35.59-57.46-2.38-11.81-2.63-23.99-.93-35.9,3.29-3.52,7.08-6.86,11.41-10,46.72-33.91,84.32-34.02,112.28-13.97Z" class="colorf18a8b svgShape"></path></g><path d="M1539.59 658.46c-.2 0-.4-.03-.6-.09-1.05-.33-1.64-1.45-1.31-2.5 3.91-12.54 23.77-21.19 24.61-21.56 1.01-.44 2.19.03 2.63 1.05.44 1.01-.03 2.19-1.05 2.63-.19.08-19.01 8.29-22.37 19.07-.27.86-1.06 1.4-1.91 1.4zM1595.9 629.81c-.62 0-1.23-.29-1.62-.82-.65-.89-.46-2.14.43-2.79.34-.25 8.47-6.07 17.68-1.59.99.48 1.41 1.68.92 2.67-.48.99-1.68 1.41-2.67.92-7.01-3.41-13.31 1.04-13.58 1.23-.35.26-.76.38-1.17.38zM1572.14 670.08c.89 3.65-.28 7.06-2.61 7.63-2.33.57-4.93-1.93-5.81-5.58-.89-3.65.28-7.06 2.61-7.63 2.33-.56 4.93 1.93 5.82 5.58zM1615.31 652.65c.89 3.65-.28 7.06-2.61 7.63-2.33.56-4.93-1.93-5.82-5.58-.89-3.65.28-7.06 2.61-7.63 2.33-.56 4.93 1.93 5.82 5.58z" fill="#000000" class="color000000 svgShape"></path><path d="m1475.5,621.12c-8.54-5.17,13.14-28.87,24.16-28.42,36.3,1.5,69.96-14.61,70-14.63,2.28-1.15-10.29-13.99-11.13-14.8-14.08-13.66-36.11-10.9-53.18-5.52-19.64,6.2-38.27,16.97-52.99,31.39-22.48,22.02-30.54,55.99-21.18,86.26,9.68,31.31,34.85,85.14,68.27,97.6,0,0,10.56-2.66,3-9.07-35.41-30.04-12.64-99.34.08-46.6l9.83-7.9s.12-2.85-4.29-17.22c-4.41-14.37,7.6-46.76-32.57-71.1Z" fill="#000000" class="color000000 svgShape"></path><path fill="#a6cdf5" d="m1505.37,738.82c-.62,4.2-2.97,7.71-8.05,7.42-6.33-.36-12.22-5.45-16.89-9.28-9.68-7.93-19.86-15.67-23.31-28.33-2.02-7.42-3.63-16.64,5.55-19.27,6.85-1.96,15.63,2.86,21.28,6.2,1.39.82,2.64,1.61,3.71,2.32,2.28,1.51,3.7,2.61,3.76,2.66.15.12.36.14.52.06,2.13,5.3,4.26,10.6,6.39,15.91,1.87,4.66,4.52,8.98,6.19,13.74.88,2.53,1.27,5.72.85,8.58Z" class="colorf5b0a6 svgShape"></path><path fill="#3d4f91" d="M1591.16 669.45c-.25-1.84-.66-3.6-1.19-5.29-.23-.69-.46-1.38-.73-2.04-4.11-10.55-13.32-17.57-23.25-16.67-.35.03-.68.07-1.02.12-12.1 1.74-20.7 14.82-19.37 29.73.12 1.39.33 2.72.61 4.02.37 1.75.88 3.45 1.51 5.05 4.02 10.34 12.91 17.29 22.64 16.72.21-.01.41-.02.62-.05 6.23-.57 11.76-4.05 15.6-9.83 3.74-5.59 5.42-12.71 4.77-20.03-.06-.58-.12-1.16-.21-1.74zm-8.94 18.85c-2.94 4.42-7.11 7.1-11.7 7.49-9.75.88-18.52-8.51-19.65-20.96-1.12-12.43 5.88-23.25 15.59-24.12.15-.02.29-.03.44-.04 2.25-.13 4.44.29 6.48 1.16 2.44 1.03 4.7 2.72 6.61 4.91 3.3 3.76 5.58 9 6.11 14.93.55 6.13-.82 12.03-3.89 16.63zM1605.87 658.17c-.17.13-.36.25-.56.34.24.26.5.52.75.78-.08-.37-.14-.74-.2-1.12zm13.89-29.55c-2.54.22-4.97.97-7.2 2.18-1.1.6-2.14 1.31-3.13 2.13-1.68 1.37-3.21 3.06-4.52 5.03-2.86 4.3-4.45 9.55-4.62 15.1 0 .28-.01.57-.02.86 0 .66.01 1.33.05 1.99.02.35.05.69.08 1.04.08.79.18 1.58.3 2.34.71 4.32 2.26 8.36 4.53 11.79.89 1.35 1.89 2.61 3.01 3.77 4.44 4.59 9.98 6.91 15.69 6.58.21-.01.39-.02.6-.05.86-.07 1.69-.21 2.5-.41.28-.06.55-.13.82-.21.13-.03.26-.07.38-.12.61-.18 1.21-.4 1.79-.65 9.02-3.83 14.97-14.75 13.87-26.95-1.31-14.55-12.14-25.51-24.13-24.43zm8.24 46.52h-.01c-.29.13-.57.24-.87.33-.09.03-.16.06-.25.08-.91.29-1.85.49-2.83.58-.5.05-1 .06-1.49.04-3.78-.09-7.48-1.83-10.51-5-1.8-1.86-3.26-4.1-4.34-6.58-.19-.45-.38-.9-.54-1.37-.48-1.26-.84-2.57-1.1-3.93-.08-.37-.14-.74-.2-1.12-.1-.55-.16-1.12-.22-1.69-.08-.9-.11-1.78-.1-2.66.03-4.78 1.33-9.31 3.77-12.94.09-.14.18-.26.27-.39 1.44-2.06 3.17-3.69 5.1-4.81 1.73-1.01 3.59-1.63 5.55-1.81.13-.02.28-.03.42-.04 8.92-.52 16.92 8.2 17.96 19.69.89 9.86-3.67 18.66-10.62 21.61z" class="color3d5891 svgShape"></path><path fill="#7ca6d1" d="m1595.77,646.34c.53,5.89,36.96,37.02,38.46,44.8,1.49,7.78-27.76,12.39-27.76,12.39l-10.69-57.19Z" class="colord17c84 svgShape"></path><path fill="#3d4f91" d="M1605.87 658.17c-.52.41-1.19.62-1.9.55-.15-.01-1.44-.09-3.25.57-2.69.96-6.54 3.5-9.55 10.16-.05.11-.1.23-.15.34-.41.93-1.31 1.51-2.27 1.57-.4.02-.82-.05-1.21-.22-1.33-.59-1.94-2.14-1.35-3.47.94-2.16 1.98-3.99 3.06-5.55 3.71-5.33 7.95-7.42 11.02-8.21 2.38-.61 4.06-.46 4.23-.44.38.04.74.16 1.04.34-.01.88.02 1.76.1 2.66.05.57.12 1.13.21 1.69zM1550.68 683.51l-10.06 3-51.49 11.05-1.46.32c-1.07-.71-2.32-1.5-3.71-2.32l-.16-.72-.15-.73-.16-.73 55.92-11.99 9.75-2.92 1.51 5.05z" class="color3d5891 svgShape"></path><g fill="#000000" class="color000000 svgShape"><path fill="#a6cdf5" d="m1665.35,1033.73c-5.28,4.45-14.51,12.42-14.51,12.42,0,0,12.64,5.6,5.17,15.54-7.45,9.94-11.64,27.32-11.64,27.32,0,0-34.98,37.44-65.17,55.48-7.33,4.38-14.38,7.62-20.57,8.91l-15.16,12.2c-7.75-10.88-21.05-24.59-39.45-25.83l13.73-16.66,2.61-3.16c-1.55-10.84-6.42-20.63-9.13-31.1-2.97-11.54-7.7-22.22-13.05-32.99-2.61-5.24-11.84-13.34-5.6-19.18,3.43-3.22,9.45-1.53,13.35-.22,5.34,1.78,13.07,9.3,19.61,15.97,4.86,4.95,9.07,9.44,11.16,10.72,4.86,3.01,19.56,4.62,25.99,2.95,10.28-2.65,17.42-14.26,26.86-18.62,2.02-.93,4.04-1.93,6.07-2.97,11.45-5.87,23.09-12.95,35.27-15.72,9.49-2.16,18.88-4.86,28.26-7.49,0,0,11.49,7.98,6.21,12.42Z" class="colorf5b0a6 svgShape"></path><path fill="#8abdf1" d="M1650.84 1046.15c-1.91 1.17-3.86 2.12-5.82 3.03-1.96.89-3.93 1.72-5.89 2.53l-5.91 2.36c-1.98.79-3.93 1.56-5.98 2.47 1.26-1.88 3.06-3.3 4.9-4.54 1.86-1.23 3.84-2.22 5.87-3.04 2.03-.83 4.13-1.49 6.27-1.98 2.14-.47 4.31-.84 6.57-.82zM1621.17 1067.89c1.15 1.96 2.19 3.97 3.25 5.97l1.54 3 .77 1.49.39.72c.07.12.13.22.19.32.04.07.04.06.11.19.09.18.19.46.2.59.08.64-.03.92-.09 1.29-.07.32-.16.63-.25.92-.18.58-.4 1.12-.6 1.66l-1.28 3.15c-.86 2.06-1.73 4.1-2.31 6.14-.31 1.01-.54 2.03-.6 2.96-.03.46-.03.91.06 1.26.01.1.05.17.07.25l.04.12.1.29c.15.4.19.77.25 1.14.1 1.43-.16 2.66-.47 3.82-.32 1.16-.74 2.26-1.21 3.32-1.88 4.23-4.34 8.08-7.2 11.62 1.79-4.17 3.64-8.28 5.03-12.45.33-1.04.62-2.09.85-3.11.22-1.02.32-2.06.21-2.87-.05-.18-.08-.38-.14-.5l-.04-.11-.11-.28c-.07-.19-.14-.38-.18-.56-.2-.74-.22-1.44-.2-2.1.07-1.32.35-2.51.68-3.66.71-2.27 1.63-4.39 2.6-6.44l1.46-3.03c.23-.5.45-1 .65-1.48.1-.24.19-.47.26-.69.06-.17.11-.46.12-.38 0-.01.02.14.08.19.01 0-.06-.13-.08-.19-.07-.15-.14-.3-.2-.43l-.33-.81c-.22-.53-.42-1.06-.6-1.6l-1.11-3.21c-.69-2.16-1.36-4.32-1.91-6.53zM1633.93 1079.02c1.57-1.85 3.29-3.46 5.05-5.02 1.77-1.54 3.6-3 5.46-4.4 1.87-1.4 3.78-2.73 5.72-4.02l2.94-1.9c.49-.31 1.01-.62 1.47-.95l.73-.49.7-.56c-.1.28-.23.56-.36.85l-.49.77c-.33.53-.72.97-1.09 1.46-.78.91-1.59 1.81-2.44 2.62-1.71 1.66-3.52 3.17-5.41 4.58-1.89 1.41-3.85 2.72-5.88 3.91-2.04 1.18-4.14 2.29-6.42 3.13zM1525.54 1052.43c4.86 4.95 9.07 9.44 11.16 10.72 4.86 3.01 19.56 4.62 25.99 2.95 10.28-2.65 17.42-14.26 26.86-18.62 2.02-.93 4.04-1.93 6.07-2.97-9.33 9.63-19.97 17.99-31.54 24.77-6.68 3.91-14.51 7.4-21.95 5.23-9.25-2.69-13.69-12.61-16.57-22.08zM1572.5 1143.53c-13.08-2.43-25.48-7.51-38.24-11.25-5.89-1.73-12.34-3.5-16-8.44l-14.24 15.94c18.4 1.24 31.7 14.95 39.45 25.83l15.16-12.2c6.19-1.29 13.24-4.53 20.57-8.91-2.25-.23-4.49-.55-6.7-.97z" class="colorf18a8b svgShape"></path></g><path fill="#6daff1" d="M1646.5 827.27l-28.29-24.9-14.78 44.79-92.08-35.16-22.58 40.21s79.4 52.57 103.12 50.38c0 0 1.04-38.83 12.15-48.78 0 0 33.69 27.4 41.16 25.62 0 0 7.09-29.25 1.31-52.15zM1552.11 1179.91l-11.41 8.65-11.34 8.43c.06.53.12 1.05.17 1.58l-.6.11c-.11-.6-.22-1.21-.32-1.8-.02-.13.03-.26.12-.33l.02-.02 10.95-9.24 10.31-8.56c-1.37-2.71-2.97-5.41-4.66-7.98-1.85-2.82-3.8-5.58-5.93-8.18-4.28-5.19-9.12-9.91-14.61-13.67-5.53-3.67-11.7-6.39-18.23-7.26-1.62-.28-3.27-.33-4.91-.41-.82-.02-1.64.05-2.48.07l-1.23.05-1.23.15c-3.12.25-6.17 1.05-9.19 1.95-1.6 3.14-3.23 6.27-4.86 9.39l-5.19 9.92-.02.04c-.05.09-.11.17-.17.23-4.05 3.88-8.08 7.77-12.18 11.59l-6.12 5.77c-2.03 1.92-4.07 3.82-6.12 5.74l.13-.22c1.83-2 3.66-4.01 5.53-5.99l1.72-1.85 4-4.29c3.76-4.06 7.61-8.07 11.42-12.1l4.77-9.96c1.6-3.36 3.24-6.72 4.87-10.07.17-.34.46-.56.79-.68h0c6.06-2.1 12.61-3.25 19.09-2.62.59.06 1.2.14 1.78.23 3.52.48 6.99 1.36 10.26 2.71 3.28 1.35 6.38 3.07 9.29 5.05 5.81 3.99 10.8 8.98 15.08 14.45 1.01 1.3 1.98 2.62 2.92 3.96 3.04 4.35 5.69 8.94 7.91 13.81h0c.23.49.07 1.04-.34 1.35z" class="colorf19a6d svgShape"></path><path fill="#6daff1" d="m1452.86,1186.11l3.19-10.63c-4.46-20.57-.81-76.65-.6-78.12-.19.51-3.39,13.05-7.12,28.15-6.8,27.6-21.8,52.51-43,71.45-5.48,4.89-9.8,9.34-12.32,12.04,15.21-14.37,59.85-22.88,59.85-22.88Z" opacity=".3" class="colorf19a6d svgShape"></path><g opacity=".3" fill="#000000" class="color000000 svgShape"><path fill="#6daff1" d="m1812.44,1009.87s2.81-99.13-6.67-131.99c.84,2.24,26.21,69.98,36.14,143.8-17.52-6.87-29.47-11.82-29.47-11.82Z" class="colorf19a6d svgShape"></path></g><g opacity=".3" fill="#000000" class="color000000 svgShape"><path fill="#6daff1" d="m1972.65,978.1s-21.1-28.4-12.55-82.18c7.12,3.34,11.3,5.32,11.3,5.32,0,0-15.06,30.5,1.25,76.87Z" class="colorf19a6d svgShape"></path></g><path d="m1614.84,735.06c-.68,1.61-1.54,3.08-2.54,4.39-.89,1.18-1.9,2.23-3.01,3.14-7.31,6.13-18.64,6.59-26.84.48-1.64-1.22-5.05-4.69-6.92-8.15-1.52-2.81-2.01-5.63.27-7.24.78-.55,1.8-.63,2.75-.68,6.95-.42,13.9-.98,20.85-1.42,5.99-.38,11.83-.27,17.79-.15.33,0-2.02,8.81-2.37,9.64Z" fill="#000000" class="color000000 svgShape"></path><path fill="#7ca6d1" d="m1609.29,742.59c-7.31,6.13-18.64,6.59-26.84.48-1.64-1.22-5.05-4.69-6.92-8.15,11.61-2.62,24.43.26,33.75,7.68Z" class="colord17c84 svgShape"></path></g><g fill="#000000" class="color000000 svgShape"><polygon fill="#6daff1" points="1330.87 593.55 1280.55 465.39 1338.97 416.67 1330.87 593.55" class="colorf19a6d svgShape"></polygon><polygon fill="#6daff1" points="1301.2 609.97 1199.5 525.23 1214.88 600.28 1301.2 609.97" class="colorf19a6d svgShape"></polygon><path fill="#6daff1" d="m1290.72,640.33c-4.59,5.36-124.94,21.36-123.32,28.1,1.62,6.73,34.8,50.71,34.8,50.71l88.52-78.8Z" class="colorf19a6d svgShape"></path></g></g><g fill="#000000" class="color000000 svgShape"><g opacity=".25" fill="#000000" class="color000000 svgShape"><path fill="#ffffff" d="m2013.83,441.7l-179.92,396.39-157.96,348.01c-12.08,1.94-22.76,8.37-30.11,18.17-7.4,9.85-10.59,22-8.99,34.22l3.42,26.2-4.15,9.15-64.04-62.82c-8.82-8.66-20.72-13.42-32.91-13.42-2.58,0-5.16.21-7.75.64l-34.29,5.77c48.18-99.25,117.94-242.82,188.18-386.94,53.91-110.63,108.11-221.57,153.02-313.02l175.5-62.36Z" class="colorffffff svgShape"></path></g><g opacity=".25" fill="#000000" class="color000000 svgShape"><path fill="#ffffff" d="m2283.39,548.53l-265.29,584.46-183.87,28.53c16.99-35.01,36.86-75.94,58.63-120.72,21.73-44.72,45.34-93.29,69.85-143.65,90.59-186.16,193.38-396.87,258.45-528.57,9.47-1.74,19.25.09,27.58,5.3,10.15,6.33,16.74,16.78,18.09,28.67l16.56,145.98Z" class="colorffffff svgShape"></path></g></g></g><g fill="#000000" class="color000000 svgShape"><ellipse cx="1141" cy="1287.09" fill="#b5cee8" rx="87.87" ry="83.08" transform="rotate(-80.72 1140.94 1287.088)" class="colorb5cae8 svgShape"></ellipse><ellipse cx="3576.38" cy="1824.14" fill="#d1dfed" rx="81.17" ry="55.29" transform="rotate(-71.46 3576.12 1824.184)" class="colord1dbed svgShape"></ellipse><path fill="#99b9da" d="M3490.14 1382.41c-.47 6.82-46.86 72.17-46.86 72.17h77.33l-30.46-72.17zM1112.03 1693.67c-11.63 6.44 0 115.72 0 115.72l63.12-53.29-63.12-62.43z" class="color99b1da svgShape"></path><polygon fill="#d1dfed" points="1521.63 1262.93 1553.67 1262.93 1549.6 1311.26 1506.92 1311.26 1521.63 1262.93" class="colord1dbed svgShape"></polygon><circle cx="1310.67" cy="1087.37" r="23.86" fill="#b5cee8" class="colorb5cae8 svgShape"></circle><circle cx="1810.46" cy="458.98" r="21.98" fill="#6daff1" class="colorf19a6d svgShape"></circle><path fill="#90c1f3" d="m2040.18,599.77c-3.55,0-6.42-2.88-6.42-6.42v-57.29c0-3.55,2.88-6.42,6.42-6.42s6.42,2.88,6.42,6.42v57.29c0,3.55-2.88,6.42-6.42,6.42Z" class="colorf3ce90 svgShape"></path><path fill="#90c1f3" d="m2066.24,571.13h-52.12c-3.55,0-6.42-2.88-6.42-6.42s2.88-6.42,6.42-6.42h52.12c3.55,0,6.42,2.88,6.42,6.42s-2.88,6.42-6.42,6.42Z" class="colorf3ce90 svgShape"></path><path fill="#99b9da" d="m1913.45,709.79c3.11,6.26-14.5,49.29-14.5,49.29h43.55l-29.05-49.29Z" class="color99b1da svgShape"></path></g></g></svg>