<svg xmlns="http://www.w3.org/2000/svg" enable-background="new 0 0 850 850" viewBox="0 0 850 850" id="Malelawyerissittingnexttothelawbooks"><polygon fill="#283c86" points="266.6 331.96 148.39 335.99 266.6 340.03" class="color284386 svgShape"></polygon><polygon fill="#283c86" points="266.6 368.54 137.23 371.93 266.6 374.77" class="color284386 svgShape"></polygon><polygon fill="#283c86" points="266.6 389.94 139.02 393.96 266.6 397.98" class="color284386 svgShape"></polygon><polygon fill="#283c86" points="127.86 346.05 248.96 351.86 127.86 355.87" class="color284386 svgShape"></polygon><g fill="#000000" class="color000000 svgShape"><polygon fill="#283c86" points="266.6 340.03 266.6 331.96 688.12 335.34" class="color284386 svgShape"></polygon><polygon fill="#283c86" points="266.6 374.77 266.6 368.54 455.82 375.31" class="color284386 svgShape"></polygon><polygon fill="#283c86" points="266.6 397.98 266.6 389.94 571.7 394.59" class="color284386 svgShape"></polygon></g><path fill="#283c86" d="M735.1,362.8c-0.02,12.36-5.02,23.55-13.13,31.66c-8.12,8.12-19.33,13.13-31.71,13.13H127.48
					c-1.82,0-3.3,1.48-3.3,3.3v3.55c0,1.82,1.48,3.3,3.3,3.3h565.25c15.16,0,28.94-6.16,38.89-16.11
					c10.04-10.04,16.22-23.94,16.11-39.3c-0.22-30.45-25.96-54.59-56.41-54.59l-563.83,0c-1.82,0-3.3,1.48-3.3,3.3v3.55
					c0,1.82,1.48,3.3,3.3,3.3h561.46C713.64,317.9,735.13,338.09,735.1,362.8z" class="color284386 svgShape"></path><polygon fill="#0575e6" points="688.12 350.22 688.12 389.94 673.74 375.56 659.8 389.5 659.8 350.22" class="color5571b5 svgShape"></polygon><g fill="#000000" class="color000000 svgShape"><polygon fill="#9ac4ef" points="171.88 449.18 171.88 441.11 522.32 444.5" class="colorefd29a svgShape"></polygon><polygon fill="#9ac4ef" points="171.88 483.92 171.88 477.69 290.03 484.46" class="colorefd29a svgShape"></polygon><polygon fill="#9ac4ef" points="171.88 507.13 171.88 499.1 405.9 503.75" class="colorefd29a svgShape"></polygon><path fill="#0575e6" d="M569.31,471.95c-0.02,12.36-5.02,23.55-13.13,31.66c-8.12,8.12-19.33,13.13-31.71,13.13H164.77
						c-1.82,0-3.3,1.48-3.3,3.3v3.55c0,1.82,1.48,3.3,3.3,3.3h565.24c15.16,0,28.94-6.16,38.89-16.11
						c10.04-10.04,16.22-23.94,16.11-39.3c-0.22-30.45-25.96-54.59-56.41-54.59H164.77c-1.82,0-3.3,1.48-3.3,3.3v3.55
						c0,1.82,1.48,3.3,3.3,3.3h358.37C547.85,427.05,569.34,447.25,569.31,471.95z" class="color5571b5 svgShape"></path><path fill="#609fdf" d="M569.31,471.95c-0.02,12.36-5.02,23.55-13.13,31.66c-8.12,8.12-19.33,13.13-31.71,13.13H164.77
						c-1.82,0-3.3,1.48-3.3,3.3v3.55c0,1.82,1.48,3.3,3.3,3.3h565.24c15.16,0,28.94-6.16,38.89-16.11
						c10.04-10.04,16.22-23.94,16.11-39.3c-0.22-30.45-25.96-54.59-56.41-54.59H164.77c-1.82,0-3.3,1.48-3.3,3.3v3.55
						c0,1.82,1.48,3.3,3.3,3.3h358.37C547.85,427.05,569.34,447.25,569.31,471.95z" class="colordfb560 svgShape"></path><path fill="#7baee1" d="M569.31,471.95c-0.02,12.36-5.02,23.55-13.13,31.66c-8.12,8.12-19.33,13.13-31.71,13.13H164.77
						c-1.82,0-3.3,1.48-3.3,3.3v3.55c0,1.82,1.48,3.3,3.3,3.3h362.16c15.16,0,28.94-6.16,38.89-16.11
						c10.04-10.04,16.22-23.94,16.11-39.3c-0.22-30.45-25.96-54.59-56.41-54.59H164.77c-1.82,0-3.3,1.48-3.3,3.3v3.55
						c0,1.82,1.48,3.3,3.3,3.3h358.37C547.85,427.05,569.34,447.25,569.31,471.95z" class="colore1c27b svgShape"></path><polygon fill="#609fdf" points="488.18 445.26 488.18 484.99 473.8 470.61 459.87 484.54 459.87 445.26" class="colordfb560 svgShape"></polygon><g fill="#000000" class="color000000 svgShape"><path fill="#ffffff" d="M622.18 449.94h7.72V477h16.72v6.29h-24.44V449.94zM673.2 476.14h-15.48l-2.95 7.15h-7.91l14.87-33.35h7.62l14.91 33.35h-8.1L673.2 476.14zM670.77 470.28l-5.29-12.77-5.29 12.77H670.77zM736.33 449.94l-10.91 33.35h-8.29l-7.34-22.59-7.57 22.59h-8.24l-10.96-33.35h8l7.53 23.44 7.86-23.44h7.15l7.62 23.63 7.77-23.63H736.33z" class="colorffffff svgShape"></path><rect width="116.6" height="8.03" x="619.73" y="493.82" fill="#ffffff" class="colorffffff svgShape"></rect></g></g><g fill="#000000" class="color000000 svgShape"><polygon fill="#283c86" points="72.21 558.34 72.21 550.27 422.65 553.65" class="color284386 svgShape"></polygon><polygon fill="#283c86" points="72.21 593.08 72.21 586.85 190.35 593.62" class="color284386 svgShape"></polygon><polygon fill="#283c86" points="72.21 616.28 72.21 608.25 306.23 612.9" class="color284386 svgShape"></polygon><path fill="#0575e6" d="M469.63,581.11c-0.02,12.36-5.02,23.54-13.13,31.65c-8.12,8.12-19.33,13.13-31.71,13.13H65.09
						c-1.82,0-3.3,1.48-3.3,3.3v3.55c0,1.82,1.48,3.3,3.3,3.3H756.8c15.16,0,28.94-6.16,38.89-16.11
						c10.04-10.04,16.22-23.94,16.11-39.3c-0.22-30.45-25.96-54.59-56.41-54.59H65.09c-1.82,0-3.3,1.48-3.3,3.3v3.55
						c0,1.82,1.48,3.3,3.3,3.3h358.37C448.17,536.2,469.66,556.4,469.63,581.11z" class="color5571b5 svgShape"></path><path fill="#021b79" d="M469.63,581.11c-0.02,12.36-5.02,23.54-13.13,31.65c-8.12,8.12-19.33,13.13-31.71,13.13H65.09
						c-1.82,0-3.3,1.48-3.3,3.3v3.55c0,1.82,1.48,3.3,3.3,3.3H756.8c15.16,0,28.94-6.16,38.89-16.11
						c10.04-10.04,16.22-23.94,16.11-39.3c-0.22-30.45-25.96-54.59-56.41-54.59H65.09c-1.82,0-3.3,1.48-3.3,3.3v3.55
						c0,1.82,1.48,3.3,3.3,3.3h358.37C448.17,536.2,469.66,556.4,469.63,581.11z" class="color223266 svgShape"></path><path fill="#283c86" d="M469.63,581.11c-0.02,12.36-5.02,23.54-13.13,31.65c-8.12,8.12-19.33,13.13-31.71,13.13H65.09
						c-1.82,0-3.3,1.48-3.3,3.3v3.55c0,1.82,1.48,3.3,3.3,3.3h362.16c15.16,0,28.94-6.16,38.89-16.11
						c10.04-10.04,16.22-23.94,16.11-39.3c-0.22-30.45-25.96-54.59-56.41-54.59H65.09c-1.82,0-3.3,1.48-3.3,3.3v3.55
						c0,1.82,1.48,3.3,3.3,3.3h358.37C448.17,536.2,469.66,556.4,469.63,581.11z" class="color284386 svgShape"></path><polygon fill="#283c86" points="422.65 568.53 422.65 608.25 408.27 593.87 394.34 607.8 394.34 568.53" class="color284386 svgShape"></polygon><g fill="#000000" class="color000000 svgShape"><path fill="#ffffff" d="M541.59 594.2c-2.06-.92-3.74-2.22-5.06-3.92l4.67-5.6c1.97 2.66 4.22 3.99 6.74 3.99 3.42 0 5.14-2.01 5.14-6.02v-17.27h-12.76v-6.75h21.11v23.55c0 4.46-1.11 7.81-3.32 10.04-2.21 2.23-5.46 3.34-9.75 3.34C545.9 595.57 543.65 595.11 541.59 594.2zM573.75 591.27c-2.89-2.87-4.33-6.97-4.33-12.3v-20.33h8.4v20.03c0 6.5 2.7 9.75 8.09 9.75 2.63 0 4.63-.79 6.02-2.36 1.38-1.57 2.07-4.04 2.07-7.39v-20.03h8.3v20.33c0 5.33-1.45 9.43-4.33 12.3-2.89 2.87-6.92 4.3-12.11 4.3C580.67 595.57 576.63 594.14 573.75 591.27zM614.21 594.4c-2.68-.78-4.83-1.79-6.46-3.04l2.85-6.33c1.56 1.14 3.4 2.06 5.55 2.75 2.14.69 4.29 1.04 6.43 1.04 2.38 0 4.15-.35 5.29-1.06 1.14-.71 1.71-1.65 1.71-2.83 0-.86-.34-1.58-1.01-2.15-.67-.57-1.54-1.03-2.59-1.37-1.06-.35-2.48-.73-4.28-1.14-2.77-.65-5.03-1.31-6.79-1.97-1.76-.66-3.28-1.71-4.54-3.17-1.26-1.45-1.89-3.39-1.89-5.81 0-2.11.57-4.02 1.71-5.73 1.14-1.71 2.86-3.07 5.16-4.07 2.3-1 5.11-1.5 8.43-1.5 2.32 0 4.58.28 6.8.83 2.21.55 4.15 1.35 5.81 2.38l-2.59 6.38c-3.35-1.9-6.71-2.85-10.06-2.85-2.35 0-4.09.38-5.21 1.14-1.12.76-1.69 1.76-1.69 3.01 0 1.25.65 2.17 1.95 2.78 1.3.6 3.28 1.2 5.94 1.79 2.77.65 5.03 1.31 6.8 1.97 1.76.65 3.28 1.69 4.54 3.11 1.26 1.42 1.89 3.34 1.89 5.76 0 2.07-.58 3.97-1.74 5.68-1.16 1.71-2.9 3.07-5.21 4.07-2.32 1-5.14 1.5-8.46 1.5C619.66 595.57 616.89 595.18 614.21 594.4zM650.7 565.48h-11.62v-6.85h31.64v6.85H659.1v29.47h-8.4V565.48zM675.24 558.64h8.4v36.31h-8.4V558.64zM699.59 593.16c-2.99-1.61-5.34-3.84-7.05-6.69-1.71-2.85-2.57-6.08-2.57-9.68 0-3.6.86-6.82 2.57-9.68 1.71-2.85 4.06-5.08 7.05-6.69 2.99-1.61 6.36-2.41 10.09-2.41 3.15 0 5.99.55 8.53 1.66 2.54 1.11 4.68 2.7 6.41 4.77l-5.39 4.98c-2.45-2.83-5.5-4.25-9.13-4.25-2.25 0-4.25.49-6.02 1.48-1.76.98-3.14 2.36-4.12 4.12-.99 1.76-1.48 3.77-1.48 6.02 0 2.25.49 4.25 1.48 6.02.99 1.76 2.36 3.14 4.12 4.12 1.76.98 3.77 1.48 6.02 1.48 3.63 0 6.67-1.44 9.13-4.31l5.39 4.98c-1.73 2.11-3.87 3.72-6.43 4.82-2.56 1.11-5.41 1.66-8.56 1.66C705.93 595.57 702.58 594.77 699.59 593.16zM758.39 588.21v6.74h-28.11v-36.31h27.44v6.75h-19.09v7.89h16.86v6.53h-16.86v8.4H758.39z" class="colorffffff svgShape"></path><rect width="221.86" height="8.03" x="536.53" y="605.23" fill="#ffffff" class="colorffffff svgShape"></rect></g></g><g fill="#000000" class="color000000 svgShape"><rect width="146.29" height="8.9" x="481.11" y="248.11" fill="#2e313a" class="color2e353a svgShape"></rect><rect width="146.29" height="8.9" x="481.11" y="248.11" fill="#47527a" class="color7a5647 svgShape"></rect><path fill="#2e313a" d="M656.04,290.55H452.46c13.64-6.92,22.38-14.89,22.79-24.65h158
					C632.08,274.11,639.67,282.33,656.04,290.55z" class="color2e353a svgShape"></path><path fill="#47527a" d="M656.04,290.55H452.46c13.64-6.92,22.38-14.89,22.79-24.65h158C632.08,274.11,639.67,282.33,656.04,290.55
					z" class="color7a5647 svgShape"></path><path fill="#2e313a" d="M675.95,308.34h-243.4c0-6.67,3.71-8.9,11.12-8.9h221.17C671.42,299.44,675.95,303.89,675.95,308.34z" class="color2e353a svgShape"></path><path fill="#47527a" d="M675.95,308.34h-243.4c0-6.67,3.71-8.9,11.12-8.9h221.17C671.42,299.44,675.95,303.89,675.95,308.34z" class="color7a5647 svgShape"></path><g fill="#000000" class="color000000 svgShape"><path fill="#2e313a" d="M664.83,299.44H443.67c-0.05-4.45,2.22-8.9,8.79-8.9h203.59C661.97,290.55,664.83,294.99,664.83,299.44z" class="color2e353a svgShape"></path><path fill="#5f698e" d="M664.83,299.44H443.67c-0.05-4.45,2.22-8.9,8.79-8.9h203.59C661.97,290.55,664.83,294.99,664.83,299.44z" class="color8e6e5f svgShape"></path></g><g fill="#000000" class="color000000 svgShape"><path fill="#2e313a" d="M633.25,265.9h-158c0-5.65,2.52-8.9,5.86-8.9h146.29C631.67,257,633.25,261.45,633.25,265.9z" class="color2e353a svgShape"></path><path fill="#5f698e" d="M633.25,265.9h-158c0-5.65,2.52-8.9,5.86-8.9h146.29C631.67,257,633.25,261.45,633.25,265.9z" class="color8e6e5f svgShape"></path></g></g><g fill="#000000" class="color000000 svgShape"><path fill="#2e313a" d="M578.4,209.17c-3.82-15.61-19.16-25.35-34.77-22.46l-0.02-0.09l-12.18,2.98l-7.73,10.49
						c-4.29,6.71-5.95,15.08-3.91,23.42c2.04,8.34,7.39,15,14.29,18.96l10.21,6.1l13.68-3.35l-0.02-0.09
						C573.12,240.51,582.22,224.79,578.4,209.17z" class="color2e353a svgShape"></path><path fill="#47527a" d="M578.4,209.17c-3.82-15.61-19.16-25.35-34.77-22.46l-0.02-0.09l-12.18,2.98l-7.73,10.49
						c-4.29,6.71-5.95,15.08-3.91,23.42c2.04,8.34,7.39,15,14.29,18.96l10.21,6.1l13.68-3.35l-0.02-0.09
						C573.12,240.51,582.22,224.79,578.4,209.17z" class="color7a5647 svgShape"></path><path fill="#2e313a" d="M567.91,211.74c3.96,16.19-5.94,32.52-22.13,36.48c-16.19,3.96-32.52-5.94-36.48-22.13
						c-3.96-16.19,5.94-32.52,22.13-36.48C547.61,185.65,563.94,195.56,567.91,211.74z" class="color2e353a svgShape"></path><path fill="#7d90a4" d="M567.91,211.74c3.96,16.19-5.94,32.52-22.13,36.48c-16.19,3.96-32.52-5.94-36.48-22.13
						c-3.96-16.19,5.94-32.52,22.13-36.48C547.61,185.65,563.94,195.56,567.91,211.74z" class="colora4897d svgShape"></path><path fill="#2e313a" d="M559.64,214.19c-2.85-11.65-13.92-19.01-25.09-16.97l-0.02-0.06l-39.78,9.74l1.83,7.47
						c-3.03,4.96,19.61,3.86,21.14,10.09c1.53,6.23-20.48,13.88-15.5,16.88l3.25,9.3l39.78-9.74l-0.02-0.06
						C556.08,237.48,562.5,225.85,559.64,214.19z" class="color2e353a svgShape"></path><path fill="#47527a" d="M559.64,214.19c-2.85-11.65-13.92-19.01-25.09-16.97l-0.02-0.06l-39.78,9.74l1.83,7.47
							c-3.03,4.96,19.61,3.86,21.14,10.09c1.53,6.23-20.48,13.88-15.5,16.88l3.25,9.3l39.78-9.74l-0.02-0.06
							C556.08,237.48,562.5,225.85,559.64,214.19z" class="color7a5647 svgShape"></path><path fill="#2e313a" d="M374.21,268.27c-24.34,5.18-63.94,23.18-63.94,23.18l0.03,0.09c-1.24,0.51-1.04,4.25,0.46,8.4
						c1.51,4.16,3.75,7.16,5.03,6.75l0.03,0.09c0,0,41.27-11.22,63.94-23.18c22.67-11.96,63.94-23.18,63.94-23.18l-5.56-15.33
						C438.15,245.09,398.55,263.1,374.21,268.27z" class="color2e353a svgShape"></path><path fill="#5f698e" d="M374.21,268.27c-24.34,5.18-63.94,23.18-63.94,23.18l0.03,0.09c-1.24,0.51-1.04,4.25,0.46,8.4
						c1.51,4.16,3.75,7.16,5.03,6.75l0.03,0.09c0,0,41.27-11.22,63.94-23.18c22.67-11.96,63.94-23.18,63.94-23.18l-5.56-15.33
						C438.15,245.09,398.55,263.1,374.21,268.27z" class="color8e6e5f svgShape"></path><path fill="#2e313a" d="M436.38,240.21c-2.09,0.76-1.73,7.07,0.82,14.09c2.55,7.02,6.31,12.1,8.4,11.34l12.2-4.42l-9.22-25.44
						L436.38,240.21z" class="color2e353a svgShape"></path><path fill="#47527a" d="M436.38,240.21c-2.09,0.76-1.73,7.07,0.82,14.09c2.55,7.02,6.31,12.1,8.4,11.34l12.2-4.42l-9.22-25.44
						L436.38,240.21z" class="color7a5647 svgShape"></path><path fill="#2e313a" d="M456.97,247.14c2.55,7.02,2.91,13.33,0.82,14.09c-2.09,0.76-5.85-4.32-8.4-11.34
						c-2.55-7.02-2.91-13.33-0.82-14.09C450.67,235.03,454.43,240.11,456.97,247.14z" class="color2e353a svgShape"></path><path fill="#5f698e" d="M456.97,247.14c2.55,7.02,2.91,13.33,0.82,14.09c-2.09,0.76-5.85-4.32-8.4-11.34
						c-2.55-7.02-2.91-13.33-0.82-14.09C450.67,235.03,454.43,240.11,456.97,247.14z" class="color8e6e5f svgShape"></path><g fill="#000000" class="color000000 svgShape"><path fill="#2e313a" d="M478.76,230.43c-13.58,6.54-28.26,10.26-28.39,10.29c-0.09,0-0.18,0.01-0.26,0.04
						c-1.26,0.46-1.04,4.27,0.5,8.51c1.54,4.24,3.81,7.31,5.08,6.85c0.08-0.03,0.15-0.07,0.22-0.13l0.02,0.05
						c0,0,13.09-6.17,28.4-10.3c15.31-4.12,28.4-10.3,28.4-10.3l-5.56-15.33C507.16,220.13,492.4,223.87,478.76,230.43z" class="color2e353a svgShape"></path><path fill="#47527a" d="M478.76,230.43c-13.58,6.54-28.26,10.26-28.39,10.29c-0.09,0-0.18,0.01-0.26,0.04
						c-1.26,0.46-1.04,4.27,0.5,8.51c1.54,4.24,3.81,7.31,5.08,6.85c0.08-0.03,0.15-0.07,0.22-0.13l0.02,0.05
						c0,0,13.09-6.17,28.4-10.3c15.31-4.12,28.4-10.3,28.4-10.3l-5.56-15.33C507.16,220.13,492.4,223.87,478.76,230.43z" class="color7a5647 svgShape"></path></g><g fill="#000000" class="color000000 svgShape"><path fill="#2e313a" d="M512.18,226.88c1.53,4.21,1.75,8,0.49,8.45c-1.26,0.46-3.51-2.59-5.04-6.8c-1.53-4.21-1.75-8-0.49-8.45
						C508.39,219.62,510.65,222.67,512.18,226.88z" class="color2e353a svgShape"></path><path fill="#ffffff" d="M512.18,226.88c1.53,4.21,1.75,8,0.49,8.45c-1.26,0.46-3.51-2.59-5.04-6.8c-1.53-4.21-1.75-8-0.49-8.45
						C508.39,219.62,510.65,222.67,512.18,226.88z" opacity=".1" class="colorffffff svgShape"></path></g><g fill="#000000" class="color000000 svgShape"><path fill="#2e313a" d="M507.41,220.82l0.02,0.07c-1.13,0.41-0.93,3.8,0.44,7.57c1.37,3.78,3.39,6.51,4.52,6.1l0.01,0.03
						c3.17,0.03,5.95-0.98,8.36-3.03l-4.99-13.76C512.61,217.76,509.82,218.77,507.41,220.82z" class="color2e353a svgShape"></path><path fill="#ffffff" d="M507.41,220.82l0.02,0.07c-1.13,0.41-0.93,3.8,0.44,7.57c1.37,3.78,3.39,6.51,4.52,6.1l0.01,0.03
						c3.17,0.03,5.95-0.98,8.36-3.03l-4.99-13.76C512.61,217.76,509.82,218.77,507.41,220.82z" opacity=".4" class="colorffffff svgShape"></path></g><g fill="#000000" class="color000000 svgShape"><path fill="#2e313a" d="M559.07,214.33c2.96,12.08-4.03,24.17-15.61,27.01c-11.58,2.83-23.36-4.66-26.32-16.74
					c-2.96-12.08,4.03-24.17,15.61-27.01C544.32,194.76,556.11,202.25,559.07,214.33z" class="color2e353a svgShape"></path><path fill="#5f698e" d="M559.07,214.33c2.96,12.08-4.03,24.17-15.61,27.01c-11.58,2.83-23.36-4.66-26.32-16.74
					c-2.96-12.08,4.03-24.17,15.61-27.01C544.32,194.76,556.11,202.25,559.07,214.33z" class="color8e6e5f svgShape"></path></g><g fill="#000000" class="color000000 svgShape"><ellipse cx="500.11" cy="228.77" fill="#2e313a" rx="21.58" ry="22.52" transform="rotate(-13.76 500.062 228.733)" class="color2e353a svgShape"></ellipse><ellipse cx="500.11" cy="228.77" fill="#5f698e" rx="21.58" ry="22.52" transform="rotate(-13.76 500.062 228.733)" class="color8e6e5f svgShape"></ellipse></g><g fill="#000000" class="color000000 svgShape"><path fill="#2e313a" d="M520.43,223.79c-3.82-15.61-19.16-25.35-34.77-22.46l-0.02-0.09l-12.18,2.98l-7.73,10.49
						c-4.29,6.71-5.95,15.08-3.91,23.42c2.04,8.34,7.39,15,14.29,18.96l10.21,6.1l13.68-3.35l-0.02-0.09
						C515.15,255.13,524.26,239.41,520.43,223.79z" class="color2e353a svgShape"></path><path fill="#7d90a4" d="M520.43,223.79c-3.82-15.61-19.16-25.35-34.77-22.46l-0.02-0.09l-12.18,2.98l-7.73,10.49
						c-4.29,6.71-5.95,15.08-3.91,23.42c2.04,8.34,7.39,15,14.29,18.96l10.21,6.1l13.68-3.35l-0.02-0.09
						C515.15,255.13,524.26,239.41,520.43,223.79z" class="colora4897d svgShape"></path><g fill="#000000" class="color000000 svgShape"><circle cx="480.64" cy="233.54" r="30.17" fill="#5f698e" transform="rotate(-69.323 480.61 233.537)" class="color8e6e5f svgShape"></circle><circle cx="481" cy="232.57" r="30.17" fill="#47527a" transform="rotate(-69.323 480.978 232.563)" class="color7a5647 svgShape"></circle></g></g><g fill="#000000" class="color000000 svgShape"><path fill="#2e313a" d="M540.26,205.81c-2.43,0.9-3.16,4.95-1.64,9.04c1.52,4.09,4.71,6.68,7.14,5.78l8.78-3.25l-5.5-14.82
						L540.26,205.81z" class="color2e353a svgShape"></path><path fill="#47527a" d="M540.26,205.81c-2.43,0.9-3.16,4.95-1.64,9.04c1.52,4.09,4.71,6.68,7.14,5.78l8.78-3.25l-5.5-14.82
						L540.26,205.81z" class="color7a5647 svgShape"></path><path fill="#7d90a4" d="M556.17,208.34c1.52,4.09,0.78,8.14-1.64,9.04c-2.42,0.9-5.62-1.69-7.14-5.78
					c-1.52-4.09-0.78-8.14,1.64-9.04C551.46,201.66,554.66,204.25,556.17,208.34z" class="colora4897d svgShape"></path></g></g><g fill="#000000" class="color000000 svgShape"><path fill="#c2defa" d="M306.92,353.2c12.53,16.37,21.18,73.16,31.45,83.43c16.85,16.84,16.7,50.05,16.7,50.05l-21.18,6.42
			c0,0-15.41-13.79-25.99-28.23c-10.6-14.44-24.07-66.42-25.04-79.89C281.9,371.49,306.92,353.2,306.92,353.2z" class="colorfac6c2 svgShape"></path><path fill="#6b829a" d="M156.71,594.97c-13.94,13.28-51.17,1.56-67.88,2.24C72.1,597.9,55.3,608.94,59.82,625.2
				c0,0-5.86,32.37,26.3,31.14c25.67-0.99,60.46-16.2,93.26-17.53C201.17,637.93,156.71,594.97,156.71,594.97z" class="color6b7b9a svgShape"></path><path fill="#434651" d="M295.39,330.73c13.29,2.43,32.71,51.99,42.99,81.51c2.56,7.33-42.99,34.64-42.99,34.64l-20.22-52.29
			L295.39,330.73z" class="color434351 svgShape"></path><path fill="#c2defa" d="M213.61,381.16c13.63-18.98,27.16-47.12,27.16-47.12l-13.65-52.15l-47.74-0.96c0,0-7.77,54.51-9.37,67.78
			C169.68,351.25,213.61,381.16,213.61,381.16z" class="colorfac6c2 svgShape"></path><path fill="#434651" d="M205.89,346.23c33.62,0.52,32.15-16.88,28.99-34.73c24.4,3.84,48.25,12.48,64.37,20.53
				c-1.62,17.81-1.42,47.82-8.77,84.61c0,0-2.96,75.09-2.96,113.77c0,29.72,4.82,53.17,4.82,53.17s-100.29,14.3-100.29-1.82
				C192.05,565.65,205.89,346.23,205.89,346.23z" class="color434351 svgShape"></path><path fill="#434651" d="M174.77,313.65c-2.63,18.91,21.28,32.58,39,32.58c3.23,9.67-4.23,57.3-4.23,79.87
				c0,22.56-2.59,105.12,7.08,163.13c0,0-104.65-0.06-107.97-11.69c-1.21-4.25,4.51-31.73,9.66-79.84
				c4.84-45.12,3.64-64.16,3.23-83.1c0-30.6-20.95-67.82-16.09-74.24C110.28,333.92,174.77,313.65,174.77,313.65z" class="color434351 svgShape"></path><path fill="#1f253d" d="M369.39,499.76c16.88,17.95,16.35,48.99-4.32,71.32c-20.69,22.32-146.71,88.01-181.82,88.85
			c-12-25.05-25.03-45.55-37.22-64.15c4.49-7.7,19.59-24.86,32.71-10.27c5.78,6.42-5.34-6.7,3.1-11.33
			c8.44-4.63,6.54-0.86,29.95-5.47c9.43-1.84,96.37-71.2,111.34-80.75C338.1,478.44,369.39,499.76,369.39,499.76z" class="color1f273d svgShape"></path><path fill="#6b829a" d="M253.04,598.34c15.4,11.54,50.98-4.5,67.65-5.8c16.68-1.3,34.67,7.67,32.12,24.35
					c0,0,9.65,31.45-22.42,34.04c-25.63,2.07-61.96-8.95-94.69-6.38C213.95,646.25,253.04,598.34,253.04,598.34z" class="color6b7b9a svgShape"></path><path fill="#242b46" d="M50.18,503.6c-16.88,17.97-16.36,48.99,4.33,71.33c20.68,22.34,146.7,88.01,181.82,88.86
				c11.99-25.05,25.02-45.55,37.21-64.16c-4.49-7.7-19.58-24.85-32.71-10.26c-5.77,6.42,5.34-6.71-3.1-11.34
				c-8.45-4.63-6.54-0.85-29.95-5.45c-9.44-1.88-96.38-71.22-111.35-80.75C81.46,482.28,50.18,503.6,50.18,503.6z" class="color242c46 svgShape"></path><polygon fill="#555a6f" points="143.53 451.39 151.35 454.32 182.42 513.37 81.96 556.67 75.44 552.69 38.62 490.61" class="color555b6f svgShape"></polygon><polygon fill="#555a6f" points="38.62 490.61 46.75 497.19 83.05 556.22 81.96 556.67 75.44 552.69" class="color555b6f svgShape"></polygon><polygon fill="#ffffff" points="151.35 454.32 186.1 516.19 81.96 556.67 46.75 497.19" class="colorffffff svgShape"></polygon><path fill="#6b829a" d="M141.96,469.19l24.87,41.36l-77.2,31.64l-24.88-41.33L141.96,469.19z" class="color6b7b9a svgShape"></path><path fill="#ffffff" d="M88.34,500.14c4.88-1.98,12.56,2.65,17.17,10.36c4.63,7.7,4.49,15.53-0.35,17.51
						c-4.82,2.02-12.53-2.62-17.15-10.34C83.37,509.98,83.56,502.12,88.34,500.14z" class="colorffffff svgShape"></path><g fill="#000000" class="color000000 svgShape"><polygon fill="#ffffff" points="158.21 454.6 162.54 455.88 193.83 514.43 98.53 559.19 91.53 556.78 52.21 491.68" class="colorffffff svgShape"></polygon><polygon fill="#555a6f" points="52.21 491.68 63.16 493.98 98.53 559.19 91.72 557.5" class="color555b6f svgShape"></polygon><polygon fill="#555a6f" points="160.5 456.32 192.38 519.23 98.53 559.19 59.55 493.25" class="color555b6f svgShape"></polygon></g><path fill="#c2defa" d="M327.15 484.59c2.33 8.86 6.74 14.01 12.68 15.51 5.98 1.51 7.9 3.78 11.85 7.84 4.01 4.05 4.89-1.9 1.73-6.22-3.36-4.59-7.51-9.18-7.51-9.18s7.04-.12 9.86 1.69c2.85 1.76 3.86 4.56 4.34 8.89.43 3.97.48 8.91.48 8.91s2.51 4.13 4.49-.44c1.96-4.58 2.88-9.01 2-12.33-.88-3.34-.93-3.75-.93-3.75s-1.41 20.21.72 19.92c2.1-.27 4.99-7.99 5.38-11.45.35-3.5-2.95-9.11-2.95-9.11s3.07 9.08 2.56 11.72c-.48 2.66-3.58 8.67-.32 7.35 3.28-1.29 6.18-10.71 5.96-12.39-.21-1.71-2.83-8.25-2.83-8.25s2.22 6.89 1.75 9.96c-.25 1.86-.71 4.66-.17 5.05 1.75 1.19 3.79-6.11 4.09-10.31.29-3.93-3.64-12.16-6.75-16.06-3.09-3.9-7.47-13.7-27.69-8.88C337.58 475.03 327.15 484.59 327.15 484.59zM102.62 352.2c19.89 15.59 22.06 49.78 22.06 49.78s-24.71 47.94-32.09 57.75c4.08 5.51 30.17 44.29 30.17 44.29 12.66.93 11.32-3.25 18.57.28 5.95 2.91 21.85 14.34 21.85 14.34s1.04 4.92-7.11 2.94c-4.82-1.15-7.91-3.55-9.53-4.07.97.62 11.66 10.82 13.37 13.97 1.77 3.15-2.44 5.17-2.44 5.17 1.72 7.54-4.43 6.69-4.43 6.69 1.32 6.29-4.27 4.94-4.27 4.94.68 1.39.23 2.92-3.55 3.68-3.84.77-13.92-3.64-19.87-6.3-4.53-1.57-16.74-18.82-20.55-21.09-19.99-11.85-40.17-31.33-52.71-51.19C57.87 431.85 88.95 355.33 102.62 352.2z" class="colorfac6c2 svgShape"></path><path fill="#434651" d="M105.44,340.37c-7.72,5.77-36.6,45.55-46.21,83.41c0,0,39.13,25.67,46.21,25.03
			c7.06-0.64,26.93-41.08,26.93-46.2C132.37,397.48,105.44,340.37,105.44,340.37z" class="color434351 svgShape"></path><ellipse cx="207.25" cy="314.77" fill="#9ac8f6" rx="21.86" ry="17.11" class="colorf6a29a svgShape"></ellipse><g fill="#000000" class="color000000 svgShape"><path fill="#c2defa" d="M177.79 271c-2.81-8.73-9.48-6.71-10.1-6.5-.65.08-7.54 1.1-6.35 10.19 1.2 9.15 6.5 14.11 11.48 12.65C177.94 286.53 180.62 279.78 177.79 271zM233.97 271c2.81-8.73 9.48-6.71 10.1-6.5.65.08 7.54 1.1 6.35 10.19-1.2 9.15-6.5 14.11-11.48 12.65C233.82 286.53 231.14 279.78 233.97 271z" class="colorfac6c2 svgShape"></path><path fill="#c2defa" d="M170.96,257.77c3.49-38.27,32.58-36.12,35.32-35.84c2.74-0.29,31.84-2.43,35.32,35.84
					c3.51,38.5-13.64,63.64-35.32,62.26C184.6,321.41,167.46,296.27,170.96,257.77z" class="colorfac6c2 svgShape"></path><g fill="#000000" class="color000000 svgShape"><path fill="#191d2b" d="M243.12,228.27c-1.96-7.85-6.65-9.83-8.89-10.34c-1.29-20.22-55.33-23.93-56.03-20.06
					c-0.75,4.13,19.14,10.88,19.14,10.88s-35.65-9.38-33.78-1.13c1.52,6.71,15.93,5.98,21.28,5.48
					c-7.53,0.94-33.25,5.07-21.65,16.66c0.95,0.95,1.98,1.76,3.06,2.46c-1.08,14.38,3.18,48.2,3.18,48.2h3l-1.13-23.27
					c5.82-1.16,8.48-14.95,9.38-21.09c9.85,0.14,19.75-3.2,23.41-4.59c-2.21,1.03-5.69,3.38-1.88,6.91
					c3.89,3.61,17.83-0.79,24.82-3.32c1.29,5.48,5.42,20.85,11.58,22.09l-1.13,23.27h3C240.5,280.43,245.75,238.78,243.12,228.27z" class="color2b2419 svgShape"></path></g></g></g></svg>