<svg xmlns="http://www.w3.org/2000/svg" enable-background="new 0 0 850 850" viewBox="0 0 850 850" id="Malelawyerstandingwithalawbook"><path fill="#2a4dd0" d="M149.33,410.48c-0.46,0-0.9-0.18-1.23-0.5c-0.34-0.33-0.53-0.79-0.53-1.26v-185.6
									c0-0.81,0.55-1.52,1.34-1.71c0.79-0.19,1.6,0.18,1.98,0.89l95.9,183.25c0.28,0.54,0.27,1.19-0.04,1.71
									c-0.31,0.52-0.87,0.85-1.47,0.87l-95.9,2.35C149.36,410.48,149.35,410.48,149.33,410.48z M151.09,230.29v176.63l91.26-2.23
									L151.09,230.29z" class="colord0a12a svgShape"></path><path fill="#2a4dd0" d="M149.33,410.48c-0.01,0-0.03,0-0.04,0l-95.9-2.35c-0.61-0.01-1.17-0.34-1.47-0.87
									c-0.31-0.52-0.33-1.17-0.04-1.71l95.9-183.25c0.38-0.72,1.19-1.09,1.98-0.89c0.79,0.19,1.34,0.9,1.34,1.71v185.6
									c0,0.47-0.19,0.93-0.53,1.26C150.23,410.3,149.79,410.48,149.33,410.48z M56.31,404.68l91.26,2.23V230.29L56.31,404.68z" class="colord0a12a svgShape"></path><circle cx="149.33" cy="223.12" r="5.69" fill="#2a4dd0" class="colord0a12a svgShape"></circle><path fill="#2a4dd0" d="M149.33,235.8c-0.97,0-1.76-0.79-1.76-1.76v-30.37c0-0.97,0.79-1.76,1.76-1.76
								c0.97,0,1.76,0.79,1.76,1.76v30.37C151.09,235.01,150.31,235.8,149.33,235.8z" class="colord0a12a svgShape"></path><path fill="#2a4dd0" d="M149.33,410.48c-0.46,0-0.9-0.18-1.23-0.5c-0.34-0.33-0.53-0.79-0.53-1.26v-185.6
									c0-0.81,0.55-1.52,1.34-1.71c0.79-0.19,1.6,0.18,1.98,0.89l95.9,183.25c0.28,0.54,0.27,1.19-0.04,1.71
									c-0.31,0.52-0.87,0.85-1.47,0.87l-95.9,2.35C149.36,410.48,149.35,410.48,149.33,410.48z M151.09,230.29v176.63l91.26-2.23
									L151.09,230.29z" class="colord0a12a svgShape"></path><path fill="#2a4dd0" d="M149.33,410.48c-0.01,0-0.03,0-0.04,0l-95.9-2.35c-0.61-0.01-1.17-0.34-1.47-0.87
									c-0.31-0.52-0.33-1.17-0.04-1.71l95.9-183.25c0.38-0.72,1.19-1.09,1.98-0.89c0.79,0.19,1.34,0.9,1.34,1.71v185.6
									c0,0.47-0.19,0.93-0.53,1.26C150.23,410.3,149.79,410.48,149.33,410.48z M56.31,404.68l91.26,2.23V230.29L56.31,404.68z" class="colord0a12a svgShape"></path><circle cx="149.33" cy="223.12" r="5.69" fill="#2a4dd0" class="colord0a12a svgShape"></circle><path fill="#2a4dd0" d="M149.33,235.8c-0.97,0-1.76-0.79-1.76-1.76v-30.37c0-0.97,0.79-1.76,1.76-1.76
								c0.97,0,1.76,0.79,1.76,1.76v30.37C151.09,235.01,150.31,235.8,149.33,235.8z" class="colord0a12a svgShape"></path><path fill="#7baee1" d="M37.64,400.55c6.36,24.65,53.93,43.8,111.7,43.8s105.34-19.15,111.7-43.8H37.64z" class="colore1c27b svgShape"></path><path fill="#2a4dd0" d="M149.33 433.78c-33.23 0-64.02-3.29-89.35-8.87 20.54 11.81 52.91 19.44 89.35 19.44s68.81-7.63 89.35-19.44C213.35 430.49 182.57 433.78 149.33 433.78zM453.35 410.48c-.46 0-.9-.18-1.23-.5-.34-.33-.53-.79-.53-1.26v-185.6c0-.81.55-1.52 1.34-1.71.78-.19 1.6.18 1.98.89l95.9 183.25c.28.54.27 1.19-.04 1.71-.31.52-.86.85-1.47.87l-95.9 2.35C453.38 410.48 453.37 410.48 453.35 410.48zM455.11 230.29v176.63l91.26-2.23L455.11 230.29z" class="colord0a12a svgShape"></path><path fill="#2a4dd0" d="M453.35,410.48c-0.01,0-0.03,0-0.04,0l-95.9-2.35c-0.61-0.01-1.17-0.34-1.47-0.87
									c-0.31-0.52-0.33-1.17-0.04-1.71l95.9-183.25c0.37-0.72,1.2-1.09,1.98-0.89c0.79,0.19,1.34,0.9,1.34,1.71v185.6
									c0,0.47-0.19,0.93-0.53,1.26C454.25,410.3,453.81,410.48,453.35,410.48z M360.32,404.68l91.27,2.23V230.29L360.32,404.68z" class="colord0a12a svgShape"></path><path fill="#2a4dd0" d="M459.04,223.12c0,3.14-2.55,5.69-5.69,5.69c-3.14,0-5.69-2.55-5.69-5.69c0-3.14,2.55-5.69,5.69-5.69
								C456.49,217.44,459.04,219.98,459.04,223.12z" class="colord0a12a svgShape"></path><path fill="#2a4dd0" d="M453.35,235.8c-0.97,0-1.76-0.79-1.76-1.76v-30.37c0-0.97,0.79-1.76,1.76-1.76
								c0.97,0,1.76,0.79,1.76,1.76v30.37C455.11,235.01,454.33,235.8,453.35,235.8z" class="colord0a12a svgShape"></path><g fill="#000000" class="color000000 svgShape"><path fill="#2a4dd0" d="M453.35,410.48c-0.46,0-0.9-0.18-1.23-0.5c-0.34-0.33-0.53-0.79-0.53-1.26v-185.6
									c0-0.81,0.55-1.52,1.34-1.71c0.78-0.19,1.6,0.18,1.98,0.89l95.9,183.25c0.28,0.54,0.27,1.19-0.04,1.71
									c-0.31,0.52-0.86,0.85-1.47,0.87l-95.9,2.35C453.38,410.48,453.37,410.48,453.35,410.48z M455.11,230.29v176.63l91.26-2.23
									L455.11,230.29z" class="colord0a12a svgShape"></path><path fill="#2a4dd0" d="M453.35,410.48c-0.01,0-0.03,0-0.04,0l-95.9-2.35c-0.61-0.01-1.17-0.34-1.47-0.87
									c-0.31-0.52-0.33-1.17-0.04-1.71l95.9-183.25c0.37-0.72,1.2-1.09,1.98-0.89c0.79,0.19,1.34,0.9,1.34,1.71v185.6
									c0,0.47-0.19,0.93-0.53,1.26C454.25,410.3,453.81,410.48,453.35,410.48z M360.32,404.68l91.27,2.23V230.29L360.32,404.68z" class="colord0a12a svgShape"></path><path fill="#2a4dd0" d="M459.04,223.12c0,3.14-2.55,5.69-5.69,5.69c-3.14,0-5.69-2.55-5.69-5.69c0-3.14,2.55-5.69,5.69-5.69
								C456.49,217.44,459.04,219.98,459.04,223.12z" class="colord0a12a svgShape"></path><g fill="#000000" class="color000000 svgShape"><path fill="#2a4dd0" d="M453.35,235.8c-0.97,0-1.76-0.79-1.76-1.76v-30.37c0-0.97,0.79-1.76,1.76-1.76
								c0.97,0,1.76,0.79,1.76,1.76v30.37C455.11,235.01,454.33,235.8,453.35,235.8z" class="colord0a12a svgShape"></path></g></g><g fill="#000000" class="color000000 svgShape"><path fill="#7baee1" d="M341.65,400.55c6.36,24.65,53.93,43.8,111.7,43.8c57.77,0,105.34-19.15,111.7-43.8H341.65z" class="colore1c27b svgShape"></path></g><g fill="#000000" class="color000000 svgShape"><path fill="#2a4dd0" d="M453.35,433.78c-33.23,0-64.02-3.29-89.35-8.87c20.54,11.81,52.91,19.44,89.35,19.44
							c36.44,0,68.81-7.63,89.35-19.44C517.37,430.49,486.58,433.78,453.35,433.78z" class="colord0a12a svgShape"></path></g><g fill="#000000" class="color000000 svgShape"><path fill="#7baee1" d="M310.85,175.71c0,5.25-4.26,9.51-9.51,9.51c-5.25,0-9.51-4.26-9.51-9.51c0-5.25,4.26-9.51,9.51-9.51
					C306.59,166.2,310.85,170.46,310.85,175.71z" class="colore1c27b svgShape"></path></g><g fill="#000000" class="color000000 svgShape"><path fill="#2a4dd0" d="M306.76,171.79c0,1.97-1.6,3.56-3.56,3.56c-1.97,0-3.56-1.6-3.56-3.56s1.6-3.56,3.56-3.56
					C305.16,168.23,306.76,169.82,306.76,171.79z" class="colord0a12a svgShape"></path></g><g fill="#000000" class="color000000 svgShape"><rect width="7.87" height="345.44" x="297.41" y="175.71" fill="#7baee1" class="colore1c27b svgShape"></rect></g><g fill="#000000" class="color000000 svgShape"><path fill="#2a4dd0" d="M301.34,192.67c0,0-52.48-20.04-100.08,0c-47.6,20.04-85.68-8.91-85.68-8.91s-10.83-6.75-17.41,2.46
						c0,0,8.83-6.95,26.3,10.71c17.47,17.66,55.84,18.08,83.42,6.76c29.31-12.02,93.44,4.32,93.44,4.32V192.67z" class="colord0a12a svgShape"></path><path fill="#2a4dd0" d="M201.26,199.97c-37.96,15.98-69.71-2-81.01-9.94c-2.62-1.84-5.65-2.82-8.67-2.96
						c3.59,1.76,7.89,4.79,12.9,9.86c17.47,17.66,55.84,18.08,83.42,6.76c29.31-12.02,93.44,4.32,93.44,4.32v-8.05
						C301.34,199.97,248.86,179.92,201.26,199.97z" class="colord0a12a svgShape"></path></g><g fill="#000000" class="color000000 svgShape"><path fill="#2a4dd0" d="M301.34,192.67c0,0,52.48-20.04,100.08,0s85.68-8.91,85.68-8.91s10.83-6.75,17.41,2.46
						c0,0-8.83-6.95-26.3,10.71c-17.47,17.66-55.84,18.08-83.42,6.76c-29.31-12.02-93.44,4.32-93.44,4.32V192.67z" class="colord0a12a svgShape"></path><path fill="#2a4dd0" d="M401.42,199.97c37.96,15.98,69.71-2,81.01-9.94c2.62-1.84,5.65-2.82,8.67-2.96
						c-3.59,1.76-7.89,4.79-12.9,9.86c-17.47,17.66-55.84,18.08-83.42,6.76c-29.31-12.02-93.44,4.32-93.44,4.32v-8.05
						C301.34,199.97,353.82,179.92,401.42,199.97z" class="colord0a12a svgShape"></path></g><g fill="#000000" class="color000000 svgShape"><path fill="#2a4dd0" d="M303.13,212.75h-3.57c-2.66,0-4.81-2.15-4.81-4.81v-16.06c0-2.66,2.15-4.81,4.81-4.81h3.57
					c2.66,0,4.81,2.15,4.81,4.81v16.06C307.94,210.59,305.78,212.75,303.13,212.75z" class="colord0a12a svgShape"></path></g><g fill="#000000" class="color000000 svgShape"><path fill="#2a4dd0" d="M305.77,210.9h-8.86c-1.2,0-2.16-0.97-2.16-2.16v1.85c0,1.2,0.97,2.16,2.16,2.16h8.86
					c1.2,0,2.16-0.97,2.16-2.16v-1.85C307.94,209.93,306.97,210.9,305.77,210.9z" class="colord0a12a svgShape"></path></g><g fill="#000000" class="color000000 svgShape"><path fill="#2a4dd0" d="M339.51,522.91c-2.8-13.62-18.82-24.06-38.17-24.06c-19.35,0-35.37,10.44-38.17,24.06H339.51z" class="colord0a12a svgShape"></path></g><g fill="#000000" class="color000000 svgShape"><path fill="#7baee1" d="M464.72,535.83c-11.99-12.96-80.57-22.89-163.38-22.89c-82.81,0-151.39,9.93-163.38,22.89H464.72z" class="colore1c27b svgShape"></path></g><g fill="#000000" class="color000000 svgShape"><path fill="#2a4dd0" d="M337.64,513.59c-11.68-0.43-23.82-0.66-36.3-0.66c-12.47,0-24.61,0.23-36.3,0.66
					c5.37,8.51,19.58,4.92,36.3,4.92C318.06,518.51,332.27,522.11,337.64,513.59z" class="colord0a12a svgShape"></path></g><g fill="#000000" class="color000000 svgShape"><rect width="365.25" height="8.8" x="118.72" y="535.83" fill="#2a4dd0" class="colord0a12a svgShape"></rect></g><g fill="#000000" class="color000000 svgShape"><path fill="#47527a" d="M432.57,679.85h-302.4v-44.94h302.4c5.65,0,10.22,4.58,10.22,10.22v24.5
					C442.79,675.27,438.22,679.85,432.57,679.85z" class="color7a5647 svgShape"></path><path fill="#47527a" d="M270.26,634.91v44.94h165.1c4.1,0,7.43-3.33,7.43-7.43v-30.08c0-4.1-3.33-7.43-7.43-7.43H270.26z" class="color7a5647 svgShape"></path><path fill="#ffffff" d="M251.31 671.36H130.17V643.4h121.14c5.54 0 10.02 4.49 10.02 10.02v7.91C261.34 666.87 256.85 671.36 251.31 671.36zM327.04 647.82h3.04v20.99h10.06v2.55h-13.1V647.82zM347.34 663.96l-2.45 7.41h-3.14l8-23.54h3.67l8.03 23.54h-3.25l-2.52-7.41H347.34zM355.06 661.58l-2.31-6.78c-.52-1.54-.87-2.93-1.22-4.3h-.07c-.35 1.4-.73 2.83-1.19 4.26l-2.31 6.81H355.06zM366.9 671.36l-5.97-23.54h3.21l2.79 11.91c.7 2.93 1.33 5.87 1.75 8.14h.07c.38-2.34 1.12-5.14 1.92-8.17l3.14-11.88h3.18l2.86 11.95c.66 2.79 1.29 5.59 1.64 8.07h.07c.49-2.58 1.15-5.2 1.89-8.14l3.11-11.88h3.11L383 671.36h-3.18l-2.97-12.26c-.73-3-1.22-5.31-1.54-7.69h-.07c-.42 2.34-.94 4.65-1.82 7.69l-3.35 12.26H366.9z" class="colorffffff svgShape"></path><g fill="#000000" class="color000000 svgShape"><rect width="312.62" height="44.94" x="99.08" y="589.97" fill="#021b79" class="color1f2a54 svgShape"></rect><path fill="#021b79" d="M239.17,589.97v44.94h165.1c4.1,0,7.43-3.33,7.43-7.43V597.4c0-4.1-3.33-7.43-7.43-7.43H239.17z" class="color1f2a54 svgShape"></path><path fill="#ffffff" d="M220.22 626.42H99.08v-27.96h121.14c5.54 0 10.03 4.49 10.03 10.03v7.91C230.24 621.93 225.75 626.42 220.22 626.42zM295.95 602.88h3.04v20.99h10.06v2.55h-13.1V602.88zM316.25 619.01l-2.45 7.41h-3.14l8-23.54h3.67l8.03 23.54h-3.25l-2.52-7.41H316.25zM323.97 616.64l-2.31-6.78c-.52-1.54-.87-2.93-1.22-4.3h-.07c-.35 1.4-.73 2.83-1.19 4.26l-2.31 6.81H323.97zM335.81 626.42l-5.97-23.54h3.21l2.79 11.91c.7 2.93 1.33 5.87 1.75 8.14h.07c.38-2.34 1.12-5.14 1.92-8.17l3.14-11.88h3.18l2.86 11.95c.66 2.79 1.29 5.59 1.64 8.07h.07c.49-2.58 1.15-5.2 1.89-8.14l3.11-11.88h3.11l-6.67 23.54h-3.18l-2.97-12.26c-.73-3-1.22-5.31-1.54-7.69h-.07c-.42 2.34-.94 4.65-1.82 7.69l-3.35 12.26H335.81z" class="colorffffff svgShape"></path></g><g fill="#000000" class="color000000 svgShape"><path fill="#47527a" d="M457.65,582.14c0,4.1-3.33,7.43-7.43,7.43H145.03v-44.94h312.62" class="color7a5647 svgShape"></path><path fill="#47527a" d="M285.12,544.63v44.94h165.1c4.1,0,7.43-3.33,7.43-7.43v-30.08c0-4.1-3.33-7.43-7.43-7.43H285.12z" class="color7a5647 svgShape"></path><path fill="#ffffff" d="M266.17 581.08H145.03v-27.96h121.14c5.54 0 10.03 4.49 10.03 10.03v7.91C276.2 576.59 271.71 581.08 266.17 581.08zM341.9 557.54h3.04v20.99H355v2.55h-13.1V557.54zM362.2 573.68l-2.45 7.41h-3.14l8-23.54h3.67l8.03 23.54h-3.25l-2.52-7.41H362.2zM369.92 571.3l-2.31-6.78c-.52-1.54-.87-2.93-1.22-4.3h-.07c-.35 1.4-.73 2.83-1.19 4.26l-2.31 6.81H369.92zM381.76 581.08l-5.97-23.54H379l2.79 11.91c.7 2.93 1.33 5.87 1.75 8.14h.07c.38-2.34 1.12-5.14 1.92-8.17l3.14-11.88h3.18l2.86 11.95c.66 2.79 1.29 5.59 1.64 8.07h.07c.49-2.58 1.15-5.2 1.89-8.14l3.11-11.88h3.11l-6.67 23.54h-3.18l-2.97-12.26c-.73-3-1.22-5.31-1.54-7.69h-.07c-.42 2.34-.94 4.65-1.82 7.69l-3.35 12.26H381.76z" class="colorffffff svgShape"></path></g></g><g fill="#000000" class="color000000 svgShape"><path d="M758.41,638.84c3.41,17.8,3.09,26.8-6.61,26.81c-3.45,0.01-6.75-0.18-12.01,2.21c-11.48,5.21-19.88,5.1-24.11,5.22
						c-16.92,0.47-17.05-11.21-4.92-15.37c12.16-4.2,23.32-24.79,23.32-24.79L758.41,638.84z" fill="#000000" class="color000000 svgShape"></path><path fill="#212123" d="M748,637.18c-3.33,3.07-10.22,11.17-12.95,13.93c-9.7,9.74-23.18,12.27-26.21,11.87
						c-3.01-0.41-4.33-2.11-1.19-3.69c3.12-1.57,6.58-4.22,14.11-9.76c10.75-7.9,12.34-19.02,14.24-19.38
						c1.89-0.38,7.86,2.49,7.86,2.49L748,637.18z" class="color232121 svgShape"></path><path d="M806.23,646.67c3.88,18.7,5.02,26.89-5.32,29.09c-3.57,0.76-9.58-0.3-13.05,1.29c-14.42,6.55-22.35,6.5-26.81,6.72
						c-17.77,0.76-17.39-11.89-4.66-16.47c12.73-4.6,24.15-26.46,24.15-26.46L806.23,646.67z" fill="#000000" class="color000000 svgShape"></path><path fill="#212123" d="M787.51,652.55c-3.48,3.28-5.94,6.4-9.01,9.1c-3.04,2.71-20.87,11.58-24.05,11.22
						c-3.18-0.39-4.59-2.15-1.32-3.87c3.26-1.7,5.78-2.54,12.59-9.66c6.8-7.09,9.39-11.3,11.37-11.71c1.97-0.41,9.88,2.44,9.88,2.44
						L787.51,652.55z" class="color232121 svgShape"></path><path fill="#242b46" d="M771.74,381.91c9.68,22.3,10.76,21.01,16.84,63.32c2.29,15.94,5.43,74.51,8.88,87.28
					c17.42,64.6,14.76,126.5,14.76,126.5l-31.62-9.27c0,0-37.67-247.15-39.65-255.2C738.95,386.47,771.74,381.91,771.74,381.91z" class="color242c46 svgShape"></path><path fill="#242b46" d="M717.33,548.54c13.49,58.19,5.9,94.71,5.9,94.71l38.8,3.53c3.37-65.79-7.63-77.54-9.29-106.69
					c-1.56-27.93-7.59-51.87-7.59-51.87s14.91,58.39,17.08,66.41c14.55,53.77,6.54,97.2,6.54,97.2l29.52,2.95
					c4.35-21.21-7.6-87.11-14.56-118.49C779.7,518,766.31,410.98,749.5,379.22l-49.16,5.08
					C700.34,384.3,708.07,508.59,717.33,548.54z" class="color242c46 svgShape"></path><path fill="#c2defa" d="M751.55,256.23c-0.17-1.04-10.59-24.85-10.59-24.85l-15.86,7.37l-4.32,16.97l-3.01,20.39l17.81,32.91
					c15.58,5.16,25.22-37.26,29.59-41.96C763.45,268.91,758.67,265,751.55,256.23z" class="colorfac6c2 svgShape"></path><path fill="#434651" d="M698.35,278.86c-7.29,0.82-1.86,28.86,0,33.52c0,0,0.47,20.66,0,44.28c-0.9,45.95,0.37,60.72,0,63.25
					c-1.13,7.59,90.46,6.23,87.17-8.71c-8.7-39.43-12.64-93.77-8.89-109.67c3.74-15.88-4.92-25.48-6.77-28.28
					c-1.86-2.81-13.61-12.42-13.61-12.42s-11.68,18-26.47,17.18c-8.38-0.48-10.33-5.5-10.33-11.8L698.35,278.86z" class="color434351 svgShape"></path><path fill="#434651" d="M756.51,260.67c7.47,6.54,15.81,11.45,24.79,14c12.39,3.5-11.25,58.2,9.41,140.82c0,0-10.06,5.23-24.88,5.7
					c-10.34-112.49,2.53-137.48,2.53-137.48l-21.72-12.01L756.51,260.67z" class="color434351 svgShape"></path><path fill="#c2defa" d="M788.89,287.77c0,0-2.18-13.2-14.99,0.32c-12.81,13.51-6.88,54.13-8.26,56.44l-28.14,14.36
						c-2.27-0.91-4.52-1.94-5.25-2.8c-1.5-1.78-4.52-3.66-8.39-4.08c-5.03-0.54-7.12-2.02-6.99-0.75c0.26,2.67,2.36,1.69,3.28,2.52
						c0.4,0.37,0.77,0.66,1.11,0.92c-0.79-0.22-1.82-0.43-3.29-0.51c-8.24-0.47-12.62,1.86-11.32,3.06l7.56-0.24l0.21,0.97
						c0,0-7.77,0.74-8.4,2.06c-0.64,1.36,10.12,3.23,10.12,3.23s-4.66-0.25-8.26-0.11c-2.19,0.1-2.34,1.35-0.79,2.26
						c2.42,1.42,7.99,0.4,7.69,1.93c-0.6-0.03-2.67-0.11-3.49-0.11c-2.84-0.05-4.04-0.63-4.02,0.4c0.02,0.91,5.64,4.5,8.96,4.69
						c0,0.03,12.77,5.04,22.54,0.82c48.18,0.03,52.18-12.52,52.18-12.52C793.8,355.21,794.17,347.1,788.89,287.77z" class="colorfac6c2 svgShape"></path><path fill="#434651" d="M784.43,279.25c6.35,12.06,7.65,46.11,7.12,57.17c-18.97,1.68-27.4,2.11-27.4,2.11
							s-5.31-27.66-1.69-44.49C766.46,275.49,784.43,279.25,784.43,279.25z" class="color434351 svgShape"></path><path fill="#434651" d="M773,279.85c1.63-2.18,9.82-5.89,14.6-0.36c11.33,13.08,12.83,50.42,10.7,56.09
							c-6.21,0.36-11.81,0.96-11.81,0.96c1.26-30.16-0.92-36.44-4.85-44.82C777,281.81,773,279.85,773,279.85z" class="color434351 svgShape"></path><path fill="#c2defa" d="M680.64,338.95c-1.69,10.96-3.79,33.73-0.85,37.1c2.95,3.38,16.45-6.74,20.24-15.6
				c3.8-8.86-0.84-22.35-2.52-25.3C695.82,332.2,680.64,338.95,680.64,338.95z" class="colorfac6c2 svgShape"></path><path fill="#434651" d="M699.62,278.23c-14.97,3.58-11.39,39.21-24.03,57.34c-3.63,5.21,29.67,4.54,29.67,4.54L699.62,278.23z" class="color434351 svgShape"></path><path fill="#c2defa" d="M671.48,339.58c1.58,5.06,15.5,34.15,12.02,37.95c-3.49,3.8-12.35,4.11-14.25,2.21
			c-1.9-1.9-16.13-30.36-14.86-35.42C655.66,339.27,671.48,339.58,671.48,339.58z" class="colorfac6c2 svgShape"></path><g fill="#000000" class="color000000 svgShape"><path fill="#c2defa" d="M654.01,333.88l-6.05-32.25l-15.8-5.69l-2.29-25.98l-24.58-4.69c0,0,3.75,26.01-8.92,32.98
					c-6.16,1.58-16.83,3.32-18.45,6.85c-1.69,3.69,8.36,34.04,8.36,34.04s-0.71,10.28,1.3,10.5
					C589.53,349.88,640.79,338.01,654.01,333.88z" class="colorfac6c2 svgShape"></path></g><path fill="#434651" d="M657.45,303.53c7.38,4.74,12.76,24.34,20.03,43.64c-9.48,4.75-20.87,6.32-20.87,6.32s-4.11-33.85-4.11-41.12
			C652.5,305.11,657.45,303.53,657.45,303.53z" class="color434351 svgShape"></path><g fill="#000000" class="color000000 svgShape"><path fill="#c2defa" d="M679.96,658.21c-1.19-0.71-22.06-8.29-23.9-18.41c-5.09-27.93-9.36-40.35-3.25-56.37
				c3.49-9.17-17.86-35.83-17.71-5.7c-10.49,18.1,0.07,63.69,0.07,63.69c-2.04,8.86-7.05,17.46-2.44,20.83
				c4.61,3.37,10.11,4.12,13.62,1.71c3.51-2.41,23.62,3.66,32.3,2.36C687.37,665.07,684.54,660.85,679.96,658.21z" class="colorfac6c2 svgShape"></path><path fill="#0575e6" d="M632.55,646.1c-2.58,5.34-3.54,15.27-1.53,18.09c2.01,2.8,12.63,3.23,15.48,2.32
				c2.85-0.91,5.69-2.56,10.54-1.03c4.85,1.53,25.13,4.28,28.86-0.33c3.72-4.63-6.74-8.36-10.53-10.32
				c-3.77-1.96-7.13,2.64-11.86,2.95C658.79,658.07,632.55,646.1,632.55,646.1z" class="color6b7b9a svgShape"></path><path fill="#c2defa" d="M621.35,665.55c-1.2-0.72-22.06-8.3-23.91-18.43c-5.09-27.93-5.02-45.32,1.09-61.36
				c3.47-9.16-17.87-35.83-17.71-5.69c-10.49,18.1-4.29,68.68-4.29,68.68c-2.03,8.86-7.03,17.46-2.43,20.82
				c4.61,3.37,10.12,4.13,13.63,1.71c3.49-2.41,23.62,3.66,32.31,2.37C628.75,672.41,625.93,668.19,621.35,665.55z" class="colorfac6c2 svgShape"></path><path fill="#8ea4ba" d="M573.93,653.44c-2.58,5.34-3.53,15.26-1.54,18.09c2.02,2.8,7.78,2.94,10.63,2.03
				c2.86-0.91,6.13-0.84,10.55,1.69c8.85,5.06,22.37,4.87,27.83,2.54c17.71-7.59-0.85-13.64-4.64-15.6
				c-3.78-1.97-14.24,4.75-18.97,5.06C593.05,667.53,573.93,653.44,573.93,653.44z" class="color8ea2ba svgShape"></path><path fill="#242b46" d="M663.48,437.13c0-15.18,1.14-22.7-2.23-32.81l-64.09,1.27c-11.07,2.37-16.65,29.94-13.29,48.49
				c3.38,18.55-6.2,94.63-6.2,94.63c-11.81,28.68-4.43,96.52-4.43,96.52s13.92,6.75,30.36-1.26c0-10.12,2.75-68.69,6.12-78.81
				c3.38-10.11,3.36-7.16,5.69-18.34c1.17-5.59,8.95-42.92,14.02-69.62c1.62,18.9-2,46,0.41,69.75c-11.81,32.68-0.3,91.95-0.3,91.95
				s18.64,7.74,31.7,0.16c1.69-8.02-3.37-75.46,0.01-85.57C664.62,543.37,663.48,452.3,663.48,437.13z" class="color242c46 svgShape"></path><path fill="#242b46" d="M663.35 552.32c5.69-15.17 3.49-101.28 3.49-116.46 0-15.19-2.07-21.43-5.45-31.55l-8.78.17c10.32 45.58 6.24 109.98 6.24 121.59 0 12.65-.25 22.14-5.31 32.58-3.86 7.95-5.48 61.86-1.89 83.42 3.27-.31 6.61-1.2 9.73-3C663.08 631.04 659.61 562.31 663.35 552.32zM632.16 466.72c-1.7 7.17-15.5 84.2-19.61 92.74-2.2 4.59-7.7 12.39-8.96 84.5 0 0-5.73 3.48-11.22 3.48.84-38.37 5.65-80.12 10.71-89.4C608.13 548.76 632.16 466.72 632.16 466.72z" class="color242c46 svgShape"></path></g><path fill="#31343d" d="M639.1,298.26c1.91,6.75,1.69,17.29-11.59,17.92c-11.8,0.57-28.16-16.54-29.41-19.92
			c-8.43,2.95-20,5.8-20.17,8.86c3.19,4.75,13.42,38.27,15.12,45.86c1.68,7.59,2.22,23.82-0.95,33.94
			c-4.22,13.5-5.06,15.61-5.7,22.14c-0.14,1.49,1.33,4.66,1.05,6.12c-0.63,3.16-1.47,6.74-1.47,6.74s46.27,14.23,80.32-1.67
			c-1.04-5.07-1.89-6.54-1.89-6.54s3.79-1.27,0.85-13.92c-2.95-12.65-8.23-58.82-8.65-65.15c-0.42-6.33,0.84-29.1,0.84-29.1
			L639.1,298.26z" class="color31323d svgShape"></path><path fill="#ffffff" d="M600.73,295.31c1.06,1.69,18.53,21.19,29.31,18.97c8.23-1.69,7.81-13.92,6.74-17.51
			c2.97,0.85,4.64,1.48,4.64,1.48s4.36,18.36-10.53,21.08c-17.3,3.17-29.11-14.55-32.79-23.09
			C599.26,295.73,600.73,295.31,600.73,295.31z" class="colorffffff svgShape"></path><g fill="#000000" class="color000000 svgShape"><polygon fill="#555a6f" points="649.52 384.28 638.46 373.23 745.79 342.56 704.07 367.87" class="color555b6f svgShape"></polygon><polygon fill="#ffffff" points="702.24 365.66 739.38 339.83 643.44 371.09 667.53 374.28" class="colorffffff svgShape"></polygon><polygon fill="#c2defa" points="701.26 365 727.48 339.83 639.88 367.52 664.44 373.1" class="colorfac6c2 svgShape"></polygon><polygon fill="#ffffff" points="700.87 367.2 652.81 344.33 628.92 352.25 660.69 371.14" class="colorffffff svgShape"></polygon><polygon fill="#606370" points="700.22 368.17 645.86 347.8 622.41 358.25 656.22 373.42" class="color606270 svgShape"></polygon><polygon fill="#555a6f" points="649.52 384.28 581.76 370.73 631.68 349.68 703.99 368.13" class="color555b6f svgShape"></polygon><g fill="#000000" class="color000000 svgShape"><path fill="#c2defa" d="M698.05,343.27c0,0-0.44-1.38-2.18-1.49c-1.33-0.09-2.73,0.87-2.68,2.5c0.07,3.02,0.75,5.85,1.31,6.88
					c0.58,1.03,2.01,4.7,3.03,4.53c1-0.16,0.84-0.76,0.76-3.77C698.21,348.91,698.05,343.27,698.05,343.27z" class="colorfac6c2 svgShape"></path><path fill="#c2defa" d="M693.35,343.35c-0.92-1.84-4.17-2.97-5.46-0.61c-1.3,2.36,0.84,5.66,1.13,8.06
					c0.31,2.43,2.35,6.31,4.52,7.01c2.19,0.69,2.05-0.72,1.36-3.15C694.19,352.23,693.35,343.35,693.35,343.35z" class="colorfac6c2 svgShape"></path><path fill="#c2defa" d="M687.43,344.04c-1.91-1.52-4.59-0.73-5.08,1.67c-0.5,2.39,2.08,7.25,3.23,8.91
					c1.14,1.65,2.65,3.72,3.67,3.56c1.01-0.17,1.34-3.17,0.82-5.38C689.58,350.55,687.43,344.04,687.43,344.04z" class="colorfac6c2 svgShape"></path><path fill="#c2defa" d="M682.78,346.84c-2-0.09-4.21-0.4-4.28,2.02c-0.12,2.4,4.71,9.63,6.04,9.09c1.8-0.76,0.43-3.25-0.47-5.91
					C683.17,349.42,682.78,346.84,682.78,346.84z" class="colorfac6c2 svgShape"></path></g><path fill="#c2defa" d="M683.02,368.6c-1.97-1.18-3.29-0.97-6.68-2.39c-4.02-1.67-4.9-2.42-3.75-0.49c0.6,1,1.59,1.78,2.41,2.46
				c1.81,1.55,1.32,1.64,1.32,1.64s0.17,0-4.56-0.05c-7.07-0.09-8.46-4.66-8.98-2.61c-0.38,1.55,3.47,3.58,5.6,4.49
				c-3.72-0.96-7.22-4.2-7.09-2.84c0.11,1.03,2.33,4.03,4.51,4.46c-0.3,0.31-4.27-1.6-4.06-0.52c0.32,1.72,3.31,3.09,5.79,4.2
				c-1.3-0.49-2.75-1.06-3.28-1.32c-1.05-0.53-2.05-0.24-1.95,0.39c0.13,0.74,4.62,2.78,6.99,3.77c-0.01,0.01-0.02,0.07-0.02,0.07
				c0.17,0.05,6.22,2.09,12.8,2.25c5.84-0.24,6.73-5.93,6.61-6.23C686.94,371.31,684.74,369.63,683.02,368.6z" class="colorfac6c2 svgShape"></path><g fill="#000000" class="color000000 svgShape"><path fill="#c2defa" d="M652.65,380.22c-0.13,0.08,5-3.32,4.92-5.7c-0.05-1.29-4.48,2.12-4.87,1.78c2.49-0.68,4.8-4.35,4.84-5.56
					c0.03-1.58-3.75,2.48-7.98,3.93c2.4-1.25,6.69-3.95,6.11-5.72c-0.77-2.33-1.99,3.1-10.2,3.82c-5.46,0.49-5.29,0.47-5.29,0.47
					s-0.57-0.05,1.42-2.02c0.87-0.86,1.96-1.86,2.57-3.07c1.18-2.35,0.2-1.4-4.31,0.91c-3.81,1.93-5.53,1.4-6.96,3.24
					c-1.43,1.83-2.88,2.02-4.54,3.51c-0.28,0.25-37.89-8.74-37.89-8.74c0-2.01,4.55-18.46,3.2-26.39
					c-0.44-2.59-12.61-35.5-16.31-32.08c-2.46,0.65-5.29,3.14-7.04,9.72c-2.92,10.88-0.17,56.97,3.24,67.02
					c0,0,14.64,11.22,55.39,2.92c5.35-0.85,13.89-1.96,19.69-3.78l0.02,0.01c1.92-0.21,7.12-3.95,7.67-5.06
					C656.71,378.58,655.89,378.32,652.65,380.22z" class="colorfac6c2 svgShape"></path><path fill="#434651" d="M578.19,303.95c-2.19-0.69-11.82,6.13-12.66,48.93c0,0,25.3,8.53,27.2,8.53c1.89,0,3.78-18.66,3.78-18.66
						S591.22,308.07,578.19,303.95z" class="color434351 svgShape"></path></g></g><path fill="#9ac8f6" d="M722.38,256.04c0,5.1-3.49,11.28,1.61,11.28s16.86-16.27,16.86-21.37c0-5.1-4.14,0.85-9.24,0.85
			C726.51,246.81,722.38,250.94,722.38,256.04z" class="colorf6a29a svgShape"></path><g fill="#000000" class="color000000 svgShape"><path fill="#c2defa" d="M740.9,250.44c0,0,4.14-2.47,7.7-13.97c0,0,9.12-14.24-0.42-27.82c0,0-6.12-11.74-27.55-5.45
				C720.63,203.2,722.95,236.49,740.9,250.44z" class="colorfac6c2 svgShape"></path><path fill="#c2defa" d="M714.8,260.53l-1.96-3.63c0,0-5.87-13.7-5.87-13.7c-0.73-1.72-1.08-4.11-0.99-5.99
				c0.09-2.04,0.05-4.16-0.75-6.2c-3.87-9.9,0.62-16.38,0.62-16.38c4.52-10.39,18.7-12.56,18.7-12.56
				c17.66-1.83,21.73,14.91,21.73,14.91c4.58,10.84-2.96,21.61-2.97,21.64c-0.6,0.86,0.33,4.52,0.28,5.6
				c-0.24,4.64-4.12,8.07-7.64,10.56c-3.87,2.74-8.6,5.74-13.23,6.89C720.98,262.11,715.92,262.61,714.8,260.53z" class="colorfac6c2 svgShape"></path><path fill="#191d2b" d="M755.8,220.54c-3.5,18.08-11.21,25.42-11.21,25.42s0.63-13.5-6.11-10.78l-1.21,0.09
				c0,0,1.4-8.04-4.07-11.22c1.96-3.34-0.74-9.14-1.32-9.94c-2.97-4.04-9.69-1.28-13.91-1.91c-3.26-0.48-11.26-0.8-12.57,3.24
				c-13.71,1.38-8.96-16.08-8.96-16.08c0.99,4.85,5.21,5.43,5.21,5.43c-5.01-4.66-0.43-14.93-0.43-14.93
				c6.52,3.97,22.16,2.93,22.16,2.93c11.11-1.8,14.8,4.99,14.8,4.99S759.46,199.16,755.8,220.54z" class="color2b2419 svgShape"></path><path fill="#c2defa" d="M740.9,240.61c0.69,0.45,1.55,0.67,2.59,0.57c2.82-0.28,4.94-3.11,4.74-6.32
							c-0.2-3.21-2.64-5.59-5.45-5.32c-1.34,0.13-2.52,0.84-3.36,1.89c-1.24,1.53-1.06,4.14-0.6,5.92
							C739.2,238.75,739.86,239.94,740.9,240.61z" class="colorfac6c2 svgShape"></path></g><path fill="#9ac8f6" d="M628.92,285.75c0,3.76,0.76,13.14-3.55,13.14s-15.39-17.24-15.39-21c0-3.76,6.82,1.05,11.13,1.05
			C625.43,278.94,628.92,281.99,628.92,285.75z" class="colorf6a29a svgShape"></path><g fill="#000000" class="color000000 svgShape"><polygon fill="#191d2b" points="640.1 230.94 642.87 262.67 634 234.65" class="color2b2419 svgShape"></polygon><path fill="#c2defa" d="M638.88,262.25c0,0,1.83-10.09,7.77-8.9c5.94,1.19,2.75,17.97-6.36,16.27L638.88,262.25z" class="colorfac6c2 svgShape"></path><path fill="#c2defa" d="M641.94,255.79c3.27,17.14-0.75,31.79-11.19,33.85c-10.44,2.06-23.34-9.26-26.61-26.4
					c-3.27-17.14,2.54-32.7,12.98-34.76c7.04-1.39,15.96,3.78,21,12.53C640.54,245.22,640.87,250.22,641.94,255.79z" class="colorfac6c2 svgShape"></path><path fill="#c2defa" d="M607.67,273.89c-5.55,2.62-10.74-3.33-12-8.38c-0.63-2.54-0.26-4.85,1.55-5.75
						c3.83-1.86,7.16,2.21,8.78,4.77C606.7,265.6,607.67,273.89,607.67,273.89z" class="colorfac6c2 svgShape"></path><g fill="#000000" class="color000000 svgShape"><path fill="#191d2b" d="M605.84,238.19c0,0,23.49,11.24,32.91-2.28s-3.52-17.59-8.12-16.06c0,0,0.53-6.66-5.89-6.38
					s-3.93,7.6-13.37,9.14c-9.44,1.54-14.04,3.07-11.56,12.32c0,0-5.27-2.62-5.8,4.04c-0.53,6.66,8.89,26.76,8.89,26.76l1.18,3.28
					l1.57-0.26l-2.95-18.07C602.71,250.68,609.06,251.96,605.84,238.19z" class="color2b2419 svgShape"></path></g></g></g></svg>