<svg xmlns="http://www.w3.org/2000/svg" data-name="Layer 1" viewBox="0 0 250 250" id="Manworkingonsystemmaintenance"><defs><clipPath id="a"><path fill="none" d="M228.71,105.94C222.42,74.23,200,48.11,169.9,36.32,101.64,9.56,33.31,30.16,20.22,104c-12.47,70.35,45.31,45.33,95.55,99.84,43.74,47.46,131.18,4.61,113.37-95.61C229,107.47,228.86,106.7,228.71,105.94Z"></path></clipPath><clipPath id="b"><rect width="104.3" height="134.51" x="1.74" y="47.74" fill="none" transform="rotate(180 53.895 114.995)"></rect></clipPath><linearGradient id="c" x1="2296.92" x2="2296.92" y1="131.98" y2="54.32" gradientTransform="translate(-2156.54)" gradientUnits="userSpaceOnUse"><stop offset="0" stop-color="#ffffff" stop-opacity="0" class="stopColorffffff svgShape"></stop><stop offset="1" stop-color="#ffffff" class="stopColorffffff svgShape"></stop></linearGradient></defs><path fill="#e6eaef" d="M228.71,105.94C222.42,74.23,200,48.11,169.9,36.32,101.64,9.56,33.31,30.16,20.22,104c-12.47,70.35,45.31,45.33,95.55,99.84,43.74,47.46,131.18,4.61,113.37-95.61C229,107.47,228.86,106.7,228.71,105.94Z" class="colore6ebef svgShape"></path><path fill="#e6eaef" d="M45.2,175.3c21.16,8.54,35.79,2.71,52.94,24S110,225.13,77.37,215C32.7,201,25.45,167.33,45.2,175.3Z" class="colore6ebef svgShape"></path><g clip-path="url(#a)" fill="#000000" class="color000000 svgShape"><rect width="104.21" height="133.6" x="1.85" y="49.23" fill="#e6eaef" class="colore6ebef svgShape"></rect><g clip-path="url(#b)" fill="#000000" class="color000000 svgShape"><path fill="#c7d1db" d="M64.73,152.88c-.3-1.61-1.79-2.06-1.41-3.94.21-1.06.82-1.57.12-2.68a4.62,4.62,0,0,0-1.5-1.38,2.24,2.24,0,0,0,.78-2.56.37.37,0,0,0-.62-.16,10.27,10.27,0,0,0-1.38,1.77,12.13,12.13,0,0,0-.21-1.23.74.74,0,0,0-.67-.65c-.66,0-.67.59-.54,1.17-1.22-.82-2.41-1.69-3.63-2.5-.47-.31-1-.61-1.49-.91a1.47,1.47,0,0,0,.51-.79c.18-.69-.35-1.28-1-.9a3.82,3.82,0,0,0-1.06.87,19.7,19.7,0,0,0-2.43-1,1.64,1.64,0,0,0,.58-.62.7.7,0,0,0-.54-1,1.9,1.9,0,0,0-1.43.63,3.57,3.57,0,0,0-.49.54c-3-.57-5.95-.1-8.13,2.52-.12.16-.24.3-.35.43a2.74,2.74,0,0,0-1-1.45.31.31,0,0,0-.28-.06.4.4,0,0,0-.46.2.41.41,0,0,0-.12.35,6.11,6.11,0,0,0,.63,1.83,2.39,2.39,0,0,1-.62,0,4.15,4.15,0,0,0-1.57,0,3.6,3.6,0,0,0-1.88,1.54,4,4,0,0,0-.35.68c-1.06,2.7,1.21,5.11,3.29,6.48a.32.32,0,0,0,.31,0c2.87,1.72,6,4.15,9.37,4.61.64.09,1.3-.08,1.91,0a10.79,10.79,0,0,1,2.1.7,5.18,5.18,0,0,1,.46.84,4.89,4.89,0,0,0,2.55,2c3.31,1.22,9.93.46,10.64-3.63A4.7,4.7,0,0,0,64.73,152.88Z" class="colorc7d0db svgShape"></path><path fill="#aab6c2" d="M64.63,154.44a.35.35,0,0,0-.35-.1c-2.59,1.06-7.77,3.62-9.65.45-.3-.52-.22-.84-.79-1.17-.36-.22-.88-.21-1.26-.41a3.3,3.3,0,0,1-1.69-2.81.37.37,0,0,0-.47-.35,9.83,9.83,0,0,1-3.56.82c-1.69-.09-3.49-1.12-3.26-3.09,0-.23-.26-.41-.47-.35a6.89,6.89,0,0,1-8.66-4.51,4,4,0,0,0-.35.68c-1.06,2.7,1.21,5.11,3.29,6.48a.32.32,0,0,0,.31,0c2.87,1.72,6,4.15,9.37,4.61.64.09,1.3-.08,1.91,0a10.79,10.79,0,0,1,2.1.7,5.18,5.18,0,0,1,.46.84,4.89,4.89,0,0,0,2.55,2c3.31,1.22,9.93.46,10.64-3.63A.57.57,0,0,0,64.63,154.44Z" class="coloraab6c2 svgShape"></path><path fill="#c7d1db" d="M39.39 146.36a.38.38 0 00-.11-.08l0-.21c.09-.47-.62-.67-.72-.2a4.16 4.16 0 00.76 3.39.38.38 0 00.68-.08A2.91 2.91 0 0039.39 146.36zM48.66 149.84a.29.29 0 00-.3-.05 7.35 7.35 0 01-.4-1.2.37.37 0 00-.72.19A8 8 0 0048.85 152a.37.37 0 00.62-.16A2 2 0 0048.66 149.84zM55.84 153.6c-.78.89-1.73 2.42-.49 3.39a.38.38 0 00.62-.17 5.32 5.32 0 00.11-2.14.31.31 0 00-.06-.13 5.38 5.38 0 01.34-.43C56.68 153.76 56.15 153.24 55.84 153.6z" class="colorc7d0db svgShape"></path><path fill="#aab6c2" d="M45.34 140.69c-1.18-.81-1.47 2.54-1.44 3.13-.24.37.26.86.55.5a5.56 5.56 0 001-2C45.58 141.88 45.82 141 45.34 140.69zM51.49 145.41l0 0a7.85 7.85 0 001.19-3.67.37.37 0 00-.28-.35c-.84-.27-1.21.75-1.43 1.39a6.23 6.23 0 00-.15 3.29c.09.47.81.27.71-.2C51.53 145.71 51.51 145.56 51.49 145.41z" class="coloraab6c2 svgShape"></path><path fill="#c7d1db" d="M53.18,148a.39.39,0,0,0-.64.31.34.34,0,0,0,0,.18,2.32,2.32,0,0,0,.89,1.79.37.37,0,0,0,.58-.07C54.45,149.28,53.83,148.5,53.18,148Z" class="colorc7d0db svgShape"></path><path fill="#aab6c2" d="M61.75,148.79c0-.72-.65-.95-1.23-.72A7,7,0,0,0,59,149a10.56,10.56,0,0,0-1.06.54c-.3.18-.2.74.19.7h.05a.35.35,0,0,0,.47,0h0C59.85,150.16,61.67,150.22,61.75,148.79Z" class="coloraab6c2 svgShape"></path><path fill="#c7d1db" d="M17.77,140.88c-.64-1.4-2.31-3.47-4-3.37a3.53,3.53,0,0,0-.54.08,6.23,6.23,0,0,0-1.83.77,6.21,6.21,0,0,1,.2-.61c.18-.45-.54-.64-.72-.2a7.28,7.28,0,0,0-.41,1.43l-.09.07a2.88,2.88,0,0,0-.48-1.51.66.66,0,0,0-1,0c-.3.41-.09.94.08,1.35s.3.68.46,1a4.65,4.65,0,0,0-.44.61c-.38.65-.45,1.29-.74,1.81-.29-.29-.57-.59-.86-.89a.38.38,0,0,0-.62.37,4.53,4.53,0,0,0,.63,1.31,1.92,1.92,0,0,1-.25.12c-.76.29-1.19.27-1.75.95A7.79,7.79,0,0,0,4,147.3a5.53,5.53,0,0,0,0,2.83A3.08,3.08,0,0,0,5.54,152a4.47,4.47,0,0,0,1,.26,4,4,0,0,1,2.23.7,1.91,1.91,0,0,0,.43.42c3.87,1.29,4.14-5.85,6.88-7.18a.3.3,0,0,0,.18-.36C17.57,144.49,18.67,142.86,17.77,140.88Z" class="colorc7d0db svgShape"></path><path fill="#aab6c2" d="M17.77,140.88c-.64-1.4-2.31-3.47-4-3.37a3.53,3.53,0,0,0-.54.08v0a5.34,5.34,0,0,1,0,7.13c-.69.73-2,1.08-2.28,2.16a3.16,3.16,0,0,0,.12,1.33c.3,1.61-1.42,2-2.72,2.18s-2.9.05-3.67-1.25A11.55,11.55,0,0,1,4,147.3a5.53,5.53,0,0,0,0,2.83A3.08,3.08,0,0,0,5.54,152a4.47,4.47,0,0,0,1,.26,4,4,0,0,1,2.23.7,1.91,1.91,0,0,0,.43.42c3.87,1.29,4.14-5.85,6.88-7.18a.3.3,0,0,0,.18-.36C17.57,144.49,18.67,142.86,17.77,140.88Z" class="coloraab6c2 svgShape"></path><path fill="#c7d1db" d="M9 149.41a.29.29 0 00-.3-.18.4.4 0 00-.54.33 5.44 5.44 0 00.13 2 .38.38 0 00.68.09A2.51 2.51 0 009 149.41zM10.81 148.62a.29.29 0 00-.37 0 .38.38 0 00-.51.51 3.3 3.3 0 001.32 1.3.38.38 0 00.55-.42A2.54 2.54 0 0010.81 148.62zM15.69 142a4.14 4.14 0 00-1.26-.24 6.53 6.53 0 001.24-1 .37.37 0 00-.26-.63 2.22 2.22 0 00-2.1 1.3.4.4 0 00.35.56l.09 0a.38.38 0 00.07.35 1.64 1.64 0 001.19.76.93.93 0 00.94-.7A.38.38 0 0015.69 142z" class="colorc7d0db svgShape"></path><path fill="#aab6c2" d="M8 145.87a1.27 1.27 0 00-.88.08 1.35 1.35 0 00-.9.35.83.83 0 00-.12 1c.6 1 1.63-.41 2.06-.84A.37.37 0 008 145.87zM10.84 140.72a.38.38 0 00-.7.19 7.81 7.81 0 000 2.16c.06.37.49.33.66.08A.36.36 0 0011 143 2.27 2.27 0 0010.84 140.72z" class="coloraab6c2 svgShape"></path><path fill="#c7d1db" d="M10.74 144.87c0-.13-.08-.25-.13-.38-.15-.45-.87-.25-.71.2l.12.37C10.17 145.52 10.89 145.32 10.74 144.87zM71 112.88a1.45 1.45 0 00.55-.37c.89-1-.2-1.85-1-2.4l-3-2.1c-.87-1.08-1.75-2.09-2.54-3a9.07 9.07 0 001.14-5.6 4.5 4.5 0 00.52-3.92 1 1 0 00-1.91.26 13.32 13.32 0 00-1.56-2 4.13 4.13 0 001.08-1.91.37.37 0 00-.26-.45 1.28 1.28 0 00-1.27.56l-.09.12a1.13 1.13 0 00-.22.27c-.11.12-.21.25-.31.38a23.28 23.28 0 00-8.25-4.52l-.4-.13a3.5 3.5 0 00.39-2.58.37.37 0 00-.62-.17 3.7 3.7 0 00-1 1.64 8.15 8.15 0 00-.77-1.9.84.84 0 00-.38-.37 9.35 9.35 0 00-.73-1 .38.38 0 00-.58.07 2.79 2.79 0 00-.57 1.77c0 .17 0 .34-.07.51a19.8 19.8 0 01-3.68-3.13 16.75 16.75 0 00-1.61-1.44c.76-.53-.12-2.29-.37-2.87-.12-.28-.51-.21-.65 0a3.55 3.55 0 00-.59 1.76 13.31 13.31 0 00-2.32-1.1 17.8 17.8 0 00-11.22-.16.79.79 0 00-.22-.77c-.35-.34-.71 0-.89.28L27 79.7q-.66.26-1.32.54a27.81 27.81 0 01-4.5 1.57 6.2 6.2 0 00.28-1c.08-.37.22-1-.18-1.19s-.87.11-1.17.34a4 4 0 00-1.32 2.32 29.14 29.14 0 01-3.09.27 25.53 25.53 0 00-3.27.35 2 2 0 00-.53-2.48c-1-.55-2 .66-2.61 1.28a11.5 11.5 0 00-1.84 2.59 24.05 24.05 0 00-6.16 3.5l-1.13.87a7.74 7.74 0 00-3.61-2.32 1 1 0 00-.71 1.77 8.57 8.57 0 002 2 6.68 6.68 0 01-4.67.2c-7.14-1.76-11.72.32-14.85 4.61a4.16 4.16 0 00-.17-.65c-.1-.27-.53-.4-.68-.09a3.75 3.75 0 00-.34 1.08 4.48 4.48 0 00-.75-.76l-.07-.06-.12-.09a.33.33 0 00-.38 0 1.78 1.78 0 00-1 1.49 5.71 5.71 0 00.57 4.67c-.16.41-.31.84-.45 1.27a4.93 4.93 0 00-2.49-1 .28.28 0 00-.33.23.33.33 0 000 .4A3.38 3.38 0 00-25.52 103l0 0-.27.88a.22.22 0 01-.1 0c-3.67 1.67-5.19 3.72-4.59 7.84.33 2.24.53 4.76 1.54 6.75a16.8 16.8 0 00-3.54 4.58l-.13-.1a.86.86 0 00-.94-.6 1 1 0 00-1 1.53 5.88 5.88 0 00.61 3l-1.87-.18c-.36 0-.46.42-.27.64a3.74 3.74 0 002.77 1.32 11.86 11.86 0 001.54 4.22 15.25 15.25 0 006 5.76c4.28 2.26 8.87 1.48 13.44.64a10.51 10.51 0 008-7 5.57 5.57 0 007.86-2.45 8.45 8.45 0 008.4-2.76c1.66-1.87 1.79-3.6 2.57-5.86s.14-1.51 2.26-1.77c1.11-.15 2.2-.11 3.29-.31 2.8-.49 4.76-1.73 7.29-2.8 1.46-.6 3.54-2 5.29-.74.51.37.95 1.79 1.34 2.34a11.58 11.58 0 004.48 3.61c2.76 1.27 6.1.43 8.44 2.38 3.5 2.91 5.89 6.53 10.93 6.81a7.82 7.82 0 006.34-2.28 19.73 19.73 0 002.12-2.59c2.22-3.17 6.6-3 6.32-7.78A12.28 12.28 0 0071 112.88z" class="colorc7d0db svgShape"></path><path fill="#aab6c2" d="M59.94 130.63a7.64 7.64 0 004.3-2.19 4.15 4.15 0 00-1.09-1.73c-1.22-1.23-3-1.46-4.59-2-5-1.73-5.19-6.32-5-10.87a1 1 0 00-1.22-.95 16.62 16.62 0 01-7.47-.22 4.41 4.41 0 01-.43-.35c-.72-.72-.31-1.49-.37-2.39v0a.15.15 0 000-.08v0a.7.7 0 00-.35-.64c-.58-.5-1.69-.29-1.59.66a.25.25 0 010 .12 1.13 1.13 0 01-1.08 1 4 4 0 01-1.51-1.13 2.28 2.28 0 01-.71-1.47 8.94 8.94 0 00-.12-1.16.34.34 0 00-.22-.22.38.38 0 00-.7-.18 2.18 2.18 0 00-.28 1.86l-.42-.4c-.88-.9-1.52-2.14-2.63-2.8-2.33-1.42-4.78-1.58-6.71-3.91a1 1 0 00-1.36 0 46 46 0 01-4.43 3.87 2.82 2.82 0 01-2.69-1.28 1 1 0 00-1.73.79.79.79 0 00.29.76c1.52 1.27-1.22 2.43-2.14 2.69a.71.71 0 00-.39.21 7.44 7.44 0 01-6.67-2.31 1 1 0 00-1.38 0c-2.63 2.23-2.49 5.32-4.34 7.85-1.44 1.15-6.67-.37-6.07.72a4.35 4.35 0 001.91 1.75 12.41 12.41 0 00-2 .72c-2.8 1.4-3.91 3.74-7.71 1.81a6 6 0 01-1.28-1.79c-.53-1.13-2.22-.13-1.69 1a8.29 8.29 0 001.28 1.91c.27 5.19.14 11-5.25 13.64-4.51 2.21-9.39 1-13.75-.94a15.25 15.25 0 006 5.76c3.17 1.67 6.52 1.68 9.9 1.22a5.35 5.35 0 00-.34.73c-.13.34.24.53.5.42a.36.36 0 00.39 0 3.81 3.81 0 001.67-1.53l1.32-.24a9.9 9.9 0 004.33-1.9.74.74 0 00.82.52.49.49 0 00.25-.12.35.35 0 00.36-.35 12.71 12.71 0 000-1.38 11.5 11.5 0 002.26-3.81 5.57 5.57 0 007.86-2.45 8.87 8.87 0 002.65.18 2.52 2.52 0 00.16.75.4.4 0 00.41.25.31.31 0 00.47 0A3.51 3.51 0 008 129.69 8.72 8.72 0 0012 127.06c1.66-1.87 1.79-3.6 2.57-5.86s.14-1.51 2.26-1.77c1.11-.15 2.2-.11 3.29-.31a15.85 15.85 0 003.77-1.19 5.23 5.23 0 001.31.56.37.37 0 00.47-.36.76.76 0 00-.37-.68l-.19-.08 1-.49a2.53 2.53 0 00.18.37.38.38 0 00.68-.09 3.08 3.08 0 00.16-.73l.24-.11c1.46-.6 3.54-2 5.29-.74.51.37.95 1.79 1.34 2.34a11.71 11.71 0 003.9 3.31 11.1 11.1 0 001.32 2 .37.37 0 00.62-.17 3 3 0 000-1.12 28.59 28.59 0 003.15.49 2 2 0 00.59 1.59.38.38 0 00.63-.17 3.72 3.72 0 000-1.2A6.1 6.1 0 0147 123.91c3.46 2.88 5.84 6.45 10.77 6.79a6.62 6.62 0 002.43 1c.33.06.68-.36.36-.62A5.9 5.9 0 0059.94 130.63zM8.09 96.35A1 1 0 006.2 96a7.68 7.68 0 00-.37 3.12c.07.87 1.35 1.44 1.81.49A5 5 0 008.09 96.35z" class="coloraab6c2 svgShape"></path><path fill="#c7d1db" d="M32.18 103.33a.31.31 0 00-.2-.15v0c.15-.45-.57-.65-.72-.19a3.34 3.34 0 00.17 3.07l0 0a1.69 1.69 0 00.58.46.37.37 0 00.54-.22A5 5 0 0032.18 103.33zM23.86 103.06a.38.38 0 00-.49.52A2.82 2.82 0 0025 105c.29.1.51-.2.46-.46A1.84 1.84 0 0023.86 103.06zM19.44 107.36A9.33 9.33 0 0017 105.08c-.4-.27-.78.38-.38.64a7.16 7.16 0 011 .75l-.13 0h0a.32.32 0 00-.42.34 1.21 1.21 0 000 .19.38.38 0 00-.29.11V107a.38.38 0 00-.74-.1 2.94 2.94 0 00.85 3.61.38.38 0 00.55-.23 8.36 8.36 0 00.41-2.52 1.86 1.86 0 001.41.17A.37.37 0 0019.44 107.36zM2.36 115.88a7 7 0 00-1.38-2 .36.36 0 00-.61.15c-.29-.36-.92 0-.63.38a8.2 8.2 0 002.11 2C2.19 116.6 2.5 116.19 2.36 115.88zM48.21 112.7c-.06-.28-.39-.48-.6-.21-.66.86-1.36 2.1-.4 3a.38.38 0 00.62-.17 10.94 10.94 0 00.58-2.25A.37.37 0 0048.21 112.7zM54.18 118a.3.3 0 00-.29-.14 1.48 1.48 0 00-1.23.7 1.1 1.1 0 00.17 1.27.38.38 0 00.53 0 6.51 6.51 0 001-1.32A.35.35 0 0054.18 118zM58.09 123.45a.33.33 0 00-.35-.16q-.2-.92-.3-1.83c-.06-.47-.8-.48-.75 0a16.33 16.33 0 00.63 3.17A1.88 1.88 0 0058.38 126a.38.38 0 00.47-.36A5 5 0 0058.09 123.45z" class="colorc7d0db svgShape"></path><path fill="#aab6c2" d="M21 91.84c-.08-.54-.37-2.18-1.09-2.28s-.9 1.16-.95 1.61a4.54 4.54 0 00.67 3l0 0c0 .08 0 .17 0 .25a.38.38 0 00.7.18A3.81 3.81 0 0021 91.84zM28.41 88.88a.38.38 0 00-.47-.36 4.12 4.12 0 00-3 2.59l-.1.12a.29.29 0 000 .32.37.37 0 00.58.24A2.89 2.89 0 0028.41 88.88zM38 96.15a.37.37 0 00-.64 0 3.7 3.7 0 00-.63 3.26.28.28 0 00.05.11 1.77 1.77 0 00.65 1.16c.21.16.47 0 .55-.22C38.48 99 38.84 97.51 38 96.15zM48.34 89.31a7.78 7.78 0 00-2.57.38 2 2 0 00-1.21 1.17.87.87 0 00-.32.81c.22 1.59 3.07-.08 3.71-.42A1.85 1.85 0 0049 90.09C49.13 89.56 48.84 89.32 48.34 89.31zM56.36 98.82A6.25 6.25 0 0053 98.05a.8.8 0 00-.67 1.08.58.58 0 00.25.42 3.65 3.65 0 003.65.63A.76.76 0 0056.36 98.82zM59.62 108.84c-.71-.42-1.2.32-1.41.88a5.48 5.48 0 00-.34 1.88.73.73 0 001.28.48.49.49 0 00.25-.17 2.85 2.85 0 00.7-1.46C60.18 109.91 60.17 109.15 59.62 108.84z" class="coloraab6c2 svgShape"></path><path fill="#c7d1db" d="M64.75,115.77a2.38,2.38,0,0,0-1.94-.82.77.77,0,0,0-.74.75.59.59,0,0,0,0,.22l0,0a.77.77,0,0,0,.52.92,3.7,3.7,0,0,0,1.81.12C65,116.92,65.07,116.15,64.75,115.77Z" class="colorc7d0db svgShape"></path><path fill="#aab6c2" d="M56.78 147.09A54.82 54.82 0 0144 148.81c.83-1.05 1.25-5.36.62-4.28a27.51 27.51 0 01-5.3 6.46c.41-1.25-1.72-4.68-1.54-3.46a6.36 6.36 0 01-2.13 5.62 41 41 0 01-5.75 2.61c.13-1.21.17-1.62.27-2.84.56-6.48-.27-12.7-.59-19.14-.37-7.27 1.72-15.11 2.28-23.36.08-1.24-5 18-5.56 25.91a25.07 25.07 0 00-1.46-4A34.18 34.18 0 0020.94 126c0-.11-2.07-10.62-2-9.36.16 2.36.19 4.73.15 7.1-1.67-2-7.48-5.2-6.61-4.29 4.71 4.87 9.69 10 11.78 16.63a34.56 34.56 0 011.32 11 24.61 24.61 0 01-12.81-3.2A19.23 19.23 0 0025.54 149c-.12 2.45-.37 4.89-.63 7.24-1.34 12.09-1.59 32.41-1.51 45a.87.87 0 00.61 1.25 22.51 22.51 0 005.62.52 1 1 0 00.94-1.23c-1.49-11.49-2.28-31.5-.95-43.09a29.32 29.32 0 0012.84-8.06.87.87 0 00.47.13C47.81 150.8 58 146.77 56.78 147.09zM153 188.26a.35.35 0 00-.21-.29 3.82 3.82 0 00-2.27 0 2.91 2.91 0 00-1.58 1.7h0a11.94 11.94 0 00-1.23.65 4.69 4.69 0 00.2-1.4c0-.48-.08-1.87-.9-1.67-.61.14-1.07 1.47-1.23 2a2.87 2.87 0 00.21 2.26 16.42 16.42 0 00-2 1.92 4.5 4.5 0 000-1.27c-.06-.47-.3-1.84-1.09-1.55-.59.22-.89 1.6-1 2.14a2.85 2.85 0 00.6 2.37.34.34 0 000 .28c-.43.63-.84 1.3-1.21 2l-.06.11a4.5 4.5 0 00-.3-1.38c-.17-.45-.71-1.73-1.42-1.26-.52.35-.49 1.75-.46 2.3a2.85 2.85 0 001.12 2.17.38.38 0 000 .21c-.27.54-.52 1.08-.76 1.63a4.11 4.11 0 00-.44-1 3.05 3.05 0 00-.9-1.08c-.1-.71-1.28-.69-1.93-.52a5.32 5.32 0 00-1.67.78q.34-1.57.72-3.15c1.39 0 4.2-.85 4.24-1.93 0-.83-1.25-.82-1.94-.64a5.41 5.41 0 00-1.9 1c.22-.86.46-1.71.71-2.56 1.47.1 3.94-.33 4.13-1.31.15-.81-1.11-1-1.82-.91a5 5 0 00-1.78.53 26.78 26.78 0 011.06-2.66c1.41.41 3.9.56 4.3-.35s-.86-1.22-1.56-1.31a5.32 5.32 0 00-2 .14 17.1 17.1 0 011.78-2.52c1.23.66 4.08 1.27 4.63.34.43-.71-.7-1.31-1.38-1.48a5.1 5.1 0 00-2-.09 11.85 11.85 0 011.63-1.24l.08 0a3.83 3.83 0 002.55-.58 2.13 2.13 0 00.58-2 .34.34 0 00-.25-.25 3.7 3.7 0 00-2.24.38 2.9 2.9 0 00-1.3 1.92v0a12.86 12.86 0 00-1.12.82 4.51 4.51 0 000-1.42c-.08-.47-.37-1.83-1.15-1.51-.58.24-.83 1.63-.9 2.17a2.87 2.87 0 00.55 2.2 16.42 16.42 0 00-1.67 2.21 5 5 0 00-.19-1.26c-.14-.46-.59-1.78-1.33-1.36-.54.31-.62 1.71-.63 2.26a2.82 2.82 0 001 2.25.34.34 0 000 .28c-.33.7-.62 1.41-.89 2.14l0 .13a4.51 4.51 0 00-.51-1.33c-.23-.41-1-1.59-1.59-1-.47.42-.22 1.81-.1 2.34a2.85 2.85 0 001.44 2 .46.46 0 000 .23c-.17.57-.34 1.14-.49 1.72a5 5 0 00-.6-1c-.3-.37-1.21-1.43-1.74-.77-.39.49.06 1.82.26 2.33a2.84 2.84 0 001.5 1.65c-.23 1-.46 2-.67 3a5 5 0 00-.7-1.25l-.14-.16a.94.94 0 00-.15-.61.55.55 0 00-.72-.14.56.56 0 00-.73.14 1 1 0 00-.15.61 1.53 1.53 0 00-.13.16 4.73 4.73 0 00-.71 1.25c-.21-1-.43-2-.67-3a2.89 2.89 0 001.51-1.65c.19-.51.64-1.84.25-2.33-.53-.66-1.44.4-1.74.77a4.55 4.55 0 00-.59 1c-.16-.58-.33-1.15-.5-1.72a.37.37 0 000-.23 2.87 2.87 0 001.45-2c.11-.53.36-1.92-.11-2.34-.62-.57-1.36.61-1.59 1a4.51 4.51 0 00-.51 1.33.65.65 0 000-.13c-.26-.73-.56-1.44-.89-2.14a.34.34 0 000-.28 2.82 2.82 0 001-2.25c0-.55-.08-1.95-.63-2.26-.74-.42-1.19.9-1.33 1.36a5 5 0 00-.19 1.26 15.81 15.81 0 00-1.67-2.21 2.83 2.83 0 00.55-2.2c-.07-.54-.32-1.93-.9-2.17-.78-.32-1.06 1-1.15 1.51a4.83 4.83 0 000 1.42 12.86 12.86 0 00-1.12-.82v0a2.93 2.93 0 00-1.29-1.92 3.73 3.73 0 00-2.25-.38.34.34 0 00-.25.25 2.15 2.15 0 00.58 2 3.86 3.86 0 002.55.58l.08 0a11.85 11.85 0 011.63 1.24 5 5 0 00-2 .09c-.69.17-1.82.77-1.39 1.48.55.93 3.4.32 4.63-.34a17.1 17.1 0 011.78 2.52 5.28 5.28 0 00-1.94-.14c-.71.09-1.9.54-1.57 1.31s2.89.76 4.3.35a26.78 26.78 0 011.06 2.66 5 5 0 00-1.78-.53c-.7-.08-2 .1-1.82.91.19 1 2.67 1.41 4.13 1.31.25.85.49 1.7.71 2.56a5.33 5.33 0 00-1.9-1c-.69-.18-2-.19-1.94.64 0 1.08 2.85 1.92 4.24 1.93q.38 1.58.72 3.15a5.22 5.22 0 00-1.67-.78c-.62-.16-1.72-.19-1.91.43-.55-.1-1.11.81-1.31 1.17a4.48 4.48 0 00-.43 1c-.25-.55-.5-1.09-.77-1.63a.37.37 0 000-.21 2.82 2.82 0 001.12-2.17c0-.55.06-1.95-.46-2.3-.7-.47-1.25.81-1.42 1.26a4.48 4.48 0 00-.29 1.38l-.07-.11a20.93 20.93 0 00-1.21-2 .34.34 0 000-.28 2.85 2.85 0 00.6-2.37c-.09-.54-.38-1.92-1-2.14-.79-.29-1 1.08-1.1 1.55a4.91 4.91 0 000 1.27 16.42 16.42 0 00-2-1.92 2.87 2.87 0 00.21-2.26c-.16-.53-.62-1.86-1.23-2-.82-.2-.89 1.19-.9 1.67a4.7 4.7 0 00.21 1.4c-.4-.24-.81-.45-1.23-.65h0a2.87 2.87 0 00-1.57-1.7 3.85 3.85 0 00-2.28 0 .37.37 0 00-.21.29 2.12 2.12 0 00.88 1.87 3.84 3.84 0 002.61.19l.08 0a13.47 13.47 0 011.8 1 5.19 5.19 0 00-2 .4c-.65.28-1.68 1-1.14 1.68.69.83 3.41-.21 4.52-1a15.57 15.57 0 012.15 2.22 4.91 4.91 0 00-1.94.16c-.68.19-1.8.82-1.34 1.52s3 .32 4.29-.31a25.43 25.43 0 011.46 2.47 5.19 5.19 0 00-1.84-.26c-.71 0-1.93.4-1.65 1.19.33.94 2.85 1 4.28.66.41.85.74 1.6 1.09 2.41a5.45 5.45 0 00-2-.65c-.71-.07-2 .11-1.82.93.21 1.06 3.12 1.46 4.49 1.25.2.26.73 0 .68-.33l-.09-.21a2.87 2.87 0 001.23-1.86 6.7 6.7 0 00.17-1.45 7.62 7.62 0 003.39 1.09l.27 1.32a5.1 5.1 0 00-1.71-.82c-.69-.18-2-.2-1.94.63 0 1 2.62 1.85 4.06 1.93a.38.38 0 00.58-.15 6.82 6.82 0 00.71-.59 5.93 5.93 0 00.7.59.38.38 0 00.58.15c1.44-.08 4-.89 4.06-1.93a.76.76 0 000-.15 2.7 2.7 0 001 1.24l-.09.21c-.05.32.48.59.68.33 1.37.21 4.28-.19 4.49-1.25.16-.82-1.11-1-1.81-.93a5.5 5.5 0 00-2 .65c.35-.81.69-1.56 1.09-2.41 1.43.32 4 .28 4.29-.66.27-.79-1-1.15-1.66-1.19a5.19 5.19 0 00-1.84.26 27.63 27.63 0 011.46-2.47c1.33.63 3.76 1.15 4.3.31s-.66-1.33-1.34-1.52a5 5 0 00-1.95-.16 15.57 15.57 0 012.15-2.22c1.12.83 3.84 1.87 4.53 1 .53-.64-.49-1.4-1.15-1.68a5.19 5.19 0 00-2-.4 14.11 14.11 0 011.8-1l.09 0a3.81 3.81 0 002.6-.19A2.12 2.12 0 00153 188.26zM132 200l.09-.1.08.1-.08.08zm3.49 1.64a5.2 5.2 0 00-1.71.82l.27-1.32a8.28 8.28 0 003-.85 6.48 6.48 0 00.16 1.21 3.81 3.81 0 00.13.45C137.09 201.43 136.08 201.47 135.5 201.62z" class="coloraab6c2 svgShape"></path><path fill="#c7d1db" d="M56.27,112.13c1.54,6.88,5.57,11.69,12,15.44a70.36,70.36,0,0,0,15.14,6.2,21.88,21.88,0,0,0,4,0c17.53-3.27,26.24-18.31,27.37-31.41a40.47,40.47,0,0,0-3-18.92,47.74,47.74,0,0,0-10.59-15.6c-4-3.92-11-10.76-18.35-9.13-3.75.84-6.32,3.64-8.58,5.94a81.82,81.82,0,0,0-7.07,8.18C58.25,84.56,53.21,98.48,56.27,112.13Z" class="colorc7d0db svgShape"></path><path fill="#aab6c2" d="M68.23,127.57a70.36,70.36,0,0,0,15.14,6.2,21.88,21.88,0,0,0,4,0c17.53-3.27,26.24-18.31,27.37-31.41a40.47,40.47,0,0,0-3-18.92c.34,5.2-.6,10.64-1.71,15.71-1.16,5.39-3.19,10.76-7.37,15.2s-10.51,7.15-16.8,9.42A61,61,0,0,1,68.23,127.57Z" class="coloraab6c2 svgShape"></path><path fill="#c7d1db" d="M110.2 101.2a.39.39 0 00.19.19.55.55 0 00.58.25c1.88-.24 3.74-.44 5-1.71 1.51-1.55 1.34-3.73 1.41-5.57a.56.56 0 00-.8-.43C113.37 95.35 108.59 97.76 110.2 101.2zM105.52 84.2a.54.54 0 00.23.15.61.61 0 00.65.14c1.76-.57 3.51-1.1 4.35-2.56 1-1.78.23-3.87-.24-5.68a.61.61 0 00-.9-.28C106.92 77.94 103 81.14 105.52 84.2zM100.69 75.54a.54.54 0 00.23.15.6.6 0 00.65.14c1.76-.57 3.51-1.1 4.35-2.56 1-1.78.23-3.87-.24-5.68a.61.61 0 00-.9-.28C102.09 69.28 98.12 72.48 100.69 75.54zM95.51 71.21a.54.54 0 00.23.15.61.61 0 00.65.14c1.76-.57 3.51-1.1 4.35-2.56 1-1.78.23-3.87-.24-5.68a.61.61 0 00-.9-.28C96.91 65 93 68.15 95.51 71.21zM89.74 65.81a.58.58 0 00.26.13.61.61 0 00.66.07c1.65-.75 3.3-1.45 3.9-3 .72-1.88-.4-3.87-1.16-5.61a.63.63 0 00-.94-.18C90.11 59.46 86.7 63 89.74 65.81zM61.26 76a.61.61 0 00-.9.28c-.47 1.81-1.26 3.9-.23 5.68.83 1.46 2.59 2 4.34 2.56a.6.6 0 00.65-.14.44.44 0 00.23-.15C67.92 81.14 64 77.94 61.26 76z" class="colorc7d0db svgShape"></path><path fill="#aab6c2" d="M66.09,70.55a.61.61,0,0,0-.9.27c-.47,1.81-1.26,3.9-.23,5.68.83,1.46,2.59,2,4.35,2.57a.59.59,0,0,0,.64-.15.39.39,0,0,0,.23-.15C72.75,75.71,68.79,72.51,66.09,70.55Z" class="coloraab6c2 svgShape"></path><path fill="#c7d1db" d="M71.27 63a.61.61 0 00-.9.28c-.47 1.81-1.26 3.9-.24 5.68.84 1.46 2.59 2 4.35 2.56a.6.6 0 00.65-.14.54.54 0 00.23-.15C77.93 68.15 74 65 71.27 63zM78.41 57.24a.63.63 0 00-.94.18c-.76 1.74-1.88 3.73-1.15 5.61.59 1.53 2.24 2.23 3.89 3a.63.63 0 00.67-.07.6.6 0 00.25-.13C84.17 63 80.76 59.46 78.41 57.24zM84.19 61.57a1.42 1.42 0 001 .07c1.45-1 2.91-1.92 3.13-3.51.28-2-1.29-3.74-2.45-5.34a.64.64 0 00-1 0C83.07 55.27 80.55 59.29 84.19 61.57zM109.88 106.25a.34.34 0 00.05.23.41.41 0 00.35.45c1.79.52 3.53 1.07 5.4.44 2.28-.76 3.48-2.73 4.68-4.31a.44.44 0 00-.43-.68C116.27 102.38 110.61 102.62 109.88 106.25z" class="colorc7d0db svgShape"></path><path fill="#aab6c2" d="M99.42,113.9a.29.29,0,0,0,0,.23.44.44,0,0,0,.35.46c1.79.51,3.53,1.06,5.4.43,2.28-.76,3.48-2.72,4.68-4.31a.44.44,0,0,0-.43-.68C105.8,110,100.14,110.27,99.42,113.9Z" class="coloraab6c2 svgShape"></path><path fill="#c7d1db" d="M91.72 116.85a.34.34 0 00-.09.23.35.35 0 00.05.53c1.3 1.1 2.54 2.21 4.56 2.32 2.47.13 4.67-1.18 6.64-2.17a.4.4 0 000-.76C99.63 115.69 94.45 113.88 91.72 116.85zM83.3 121.67a.3.3 0 00-.09.22.35.35 0 00.05.53c1.3 1.1 2.54 2.22 4.56 2.33 2.47.13 4.67-1.19 6.64-2.17a.41.41 0 000-.77C91.21 120.51 86 118.69 83.3 121.67z" class="colorc7d0db svgShape"></path><path fill="#aab6c2" d="M103.26,106.44a.33.33,0,0,0,.11.22.47.47,0,0,0,.46.38c1.89.21,3.74.46,5.39-.47,2-1.12,2.68-3.24,3.44-5,.12-.29-.18-.67-.61-.6C108.48,101.6,103,102.77,103.26,106.44Z" class="coloraab6c2 svgShape"></path><path fill="#c7d1db" d="M91.34 129.64a.35.35 0 00-.13.15.29.29 0 00-.08.41A4.91 4.91 0 0094 132.61c1.81.46 3.76-.2 5.47-.64.29-.07.44-.39.19-.57C97.51 129.94 94.07 127.82 91.34 129.64zM107.91 116.28a.37.37 0 00.12.21.49.49 0 00.49.37c1.89.14 3.76.31 5.36-.67 2-1.2 2.48-3.35 3.13-5.12.11-.3-.21-.66-.64-.57C112.83 111.24 107.44 112.62 107.91 116.28z" class="colorc7d0db svgShape"></path><path fill="#aab6c2" d="M56.22 85.38a.56.56 0 00-.8.43c.07 1.84-.1 4 1.42 5.57 1.23 1.27 3.09 1.47 5 1.72a.58.58 0 00.59-.26.42.42 0 00.18-.19C64.19 89.21 59.41 86.8 56.22 85.38zM49.61 93.1a.45.45 0 00-.43.69c1.2 1.58 2.4 3.54 4.68 4.31 1.86.62 3.61.08 5.39-.44a.42.42 0 00.36-.45.32.32 0 000-.24C58.92 93.34 53.27 93.11 49.61 93.1z" class="coloraab6c2 svgShape"></path><path fill="#c7d1db" d="M51.86 116.7a.42.42 0 00-.25.74c1.56 1.37 3.22 3.11 5.65 3.51 2 .32 3.56-.48 5.18-1.26a.4.4 0 00.24-.5.34.34 0 000-.24C61.06 115.5 55.45 116.14 51.86 116.7zM61 124a.42.42 0 00-.25.74c1.56 1.36 3.23 3.1 5.65 3.5 2 .33 3.56-.47 5.18-1.26a.37.37 0 00.24-.49.3.3 0 000-.24C70.16 122.8 64.55 123.44 61 124z" class="colorc7d0db svgShape"></path><path fill="#aab6c2" d="M67.69,128.91a.42.42,0,0,0-.25.74c1.56,1.37,3.23,3.11,5.65,3.51,2,.33,3.56-.48,5.18-1.26a.38.38,0,0,0,.24-.5.33.33,0,0,0,0-.24C76.89,127.72,71.28,128.35,67.69,128.91Z" class="coloraab6c2 svgShape"></path><path fill="#c7d1db" d="M76 133.59c-.22.13-.1.4.13.47 1.39.39 3 1 4.48.63a4.13 4.13 0 002.42-1.93.22.22 0 000-.33.24.24 0 00-.1-.13C80.72 130.75 77.82 132.43 76 133.59zM92.51 133.59c.18.13.08.4-.12.47-1.17.39-2.52 1-3.79.63a3.72 3.72 0 01-2.06-1.93.24.24 0 010-.33.26.26 0 01.08-.13C88.53 130.75 91 132.43 92.51 133.59z" class="colorc7d0db svgShape"></path><path fill="#aab6c2" d="M53.17,101.22c-.43-.09-.75.28-.64.58.65,1.77,1.18,3.91,3.13,5.11,1.6,1,3.46.81,5.36.67a.47.47,0,0,0,.48-.36.34.34,0,0,0,.12-.22C62.09,103.35,56.7,102,53.17,101.22Z" class="coloraab6c2 svgShape"></path><path fill="#c7d1db" d="M53.17 107.26c-.43-.09-.75.27-.64.57.65 1.77 1.18 3.91 3.13 5.12 1.6 1 3.46.81 5.36.67a.49.49 0 00.48-.37.32.32 0 00.12-.22C62.09 109.38 56.7 108 53.17 107.26zM95.62 125.27a.33.33 0 00-.1.22.36.36 0 000 .53c1.29 1.11 2.52 2.23 4.54 2.35 2.47.15 4.68-1.16 6.66-2.13a.41.41 0 000-.77C103.53 124.15 98.37 122.31 95.62 125.27z" class="colorc7d0db svgShape"></path><path fill="#c7d1db" d="M100.23 122.35a.29.29 0 000 .23.37.37 0 00.18.52c1.52.89 3 1.81 5 1.62 2.46-.22 4.32-1.83 6-3.08a.41.41 0 00-.16-.76C107.73 120.07 102.22 119 100.23 122.35zM78.59 68.59a.3.3 0 00.18 0 .4.4 0 00.42 0c.81-.7 1.64-1.37 1.64-2.38 0-1.23-1.16-2.27-2-3.2a.4.4 0 00-.61 0C77.31 64.71 76.1 67.37 78.59 68.59zM65.05 96.67a.4.4 0 00.19 0 .35.35 0 00.38-.13c.55-.85 1.12-1.67.78-2.64-.43-1.19-1.88-1.94-3-2.66-.19-.12-.54-.06-.57.16C62.5 93.2 62.24 96 65.05 96.67z" class="colorc7d0db svgShape"></path><path fill="#aab6c2" d="M78.22,102.27a.32.32,0,0,0,.17.06.41.41,0,0,0,.43,0c.93-.6,1.87-1.17,2.05-2.17.21-1.23-.74-2.38-1.43-3.4a.41.41,0,0,0-.61,0C77.65,98.29,76,100.78,78.22,102.27Z" class="coloraab6c2 svgShape"></path><path fill="#c7d1db" d="M93.93,88.77a.41.41,0,0,0,.19.18.54.54,0,0,0,.58.26c1.88-.24,3.74-.44,5-1.71,1.51-1.55,1.34-3.73,1.41-5.58a.56.56,0,0,0-.8-.43C97.1,82.92,92.32,85.32,93.93,88.77Z" class="colorc7d0db svgShape"></path><path fill="#aab6c2" d="M79.17,85.58a1,1,0,0,0,.34,0,.89.89,0,0,0,.75-.19c1.3-1.22,2.62-2.41,2.34-3.88-.35-1.79-2.73-3-4.57-4.14-.31-.19-1-.12-1.1.21C75.77,80.27,74.29,84.45,79.17,85.58Z" class="coloraab6c2 svgShape"></path><path fill="#c7d1db" d="M91.49 71.7a.58.58 0 00.19.16.68.68 0 00.55.26c1.61 0 3.22 0 4.13-.93 1.11-1.1.66-2.84.47-4.29a.64.64 0 00-.76-.41C93.46 67.34 89.59 68.83 91.49 71.7zM92.14 106.51a.48.48 0 00.18.17.67.67 0 00.56.25c1.61 0 3.22 0 4.13-.92 1.11-1.1.66-2.84.46-4.3a.65.65 0 00-.76-.41C94.11 102.16 90.24 103.64 92.14 106.51zM90.42 133.8c-1.48 2.27-1.65 4.77-.85 7.74a32.06 32.06 0 002.66 6.32 11 11 0 001.16 1.23 13.57 13.57 0 0016.72.31 14.12 14.12 0 004.4-5.89 18.3 18.3 0 001.29-7.36c0-2.26-.19-6.23-2.77-8.08a7.69 7.69 0 00-4.15-1.12 31.59 31.59 0 00-4.34-.06C98.7 127.22 93.35 129.28 90.42 133.8z" class="colorc7d0db svgShape"></path><path fill="#aab6c2" d="M89.57 141.54a32.06 32.06 0 002.66 6.32 11 11 0 001.16 1.23 13.57 13.57 0 0016.72.31 14.12 14.12 0 004.4-5.89 19.59 19.59 0 01-4.88 3.57 11.4 11.4 0 01-6.39 1.68c-2.47-.15-5-1.41-7.51-2.77A28.21 28.21 0 0189.57 141.54zM110.38 124.39a.32.32 0 00-.44-.28c-.9.55-2 1.07-2.4 2.26a4.63 4.63 0 00.53 3 .31.31 0 00.29.22.18.18 0 00.14 0C110.68 129.45 110.55 126.38 110.38 124.39z" class="coloraab6c2 svgShape"></path><path fill="#c7d1db" d="M100.84 125.59a.32.32 0 00-.44-.28c-.91.54-2.05 1.07-2.4 2.26a4.56 4.56 0 00.52 3 .34.34 0 00.29.22.26.26 0 00.15 0C101.14 130.65 101 127.58 100.84 125.59zM95.39 126.72a.32.32 0 00-.5-.14c-.71.79-1.65 1.62-1.64 2.86a4.63 4.63 0 001.37 2.69.33.33 0 00.35.13.27.27 0 00.15 0C97.16 131.47 96.14 128.57 95.39 126.72zM115.31 127.71a.31.31 0 00-.11-.5c-1-.24-2.22-.66-3.3-.06a4.6 4.6 0 00-1.69 2.5.3.3 0 00.05.36.18.18 0 00.08.13C112 131.55 114.05 129.26 115.31 127.71zM117.68 132.68a.3.3 0 01.21.45c-.67.82-1.34 1.86-2.54 2.1a4.28 4.28 0 01-2.78-.75.29.29 0 01-.17-.3.31.31 0 010-.14C112.86 132 115.79 132.35 117.68 132.68z" class="colorc7d0db svgShape"></path><path fill="#aab6c2" d="M116.78,141a.29.29,0,0,1,.2.44c-.66.82-1.34,1.87-2.54,2.11a4.31,4.31,0,0,1-2.77-.75.28.28,0,0,1-.17-.3.22.22,0,0,1,0-.14C112,140.25,114.89,140.63,116.78,141Z" class="coloraab6c2 svgShape"></path><path fill="#c7d1db" d="M102.06,149.31a.29.29,0,0,1-.28.4c-1-.16-2.28-.21-3.1-1.12a4.32,4.32,0,0,1-.76-2.78.62.62,0,0,1,.29-.38C100.23,144.79,101.39,147.51,102.06,149.31Z" class="colorc7d0db svgShape"></path><path fill="#aab6c2" d="M95.56 149.11a.34.34 0 00-.17.08.36.36 0 00-.3.28c-.16 1-.36 2 .35 2.73.86.92 2.5 1 3.85 1.22.22 0 .52-.16.46-.38C99.29 151.27 98.4 148.58 95.56 149.11zM103.23 150.37a.39.39 0 00-.12.14.36.36 0 00-.14.39c.28 1 .53 1.93 1.5 2.3 1.18.45 2.69-.17 4-.58.22-.07.4-.38.25-.54C107.52 150.68 105.55 148.65 103.23 150.37zM110 147.87a.88.88 0 000 .52c.57.68 1.12 1.37 2 1.32 1.12-.06 2.12-1.11 3-1.9.15-.14.19-.44 0-.53C113.58 146.58 111.26 145.65 110 147.87zM100.54 134.81a.3.3 0 00.15.09.39.39 0 00.38.11c.9-.31 1.81-.6 2.09-1.47.35-1.06-.36-2.36-.85-3.47-.09-.19-.39-.33-.54-.19C100.52 131 98.72 132.88 100.54 134.81zM94.25 139.25a.35.35 0 00.16.06.37.37 0 00.39 0c.84-.47 1.68-.91 1.8-1.82.15-1.11-.78-2.26-1.46-3.26-.12-.17-.44-.26-.57-.09C93.55 135.52 92.11 137.67 94.25 139.25z" class="coloraab6c2 svgShape"></path><path fill="#c7d1db" d="M106.88 134.13a.34.34 0 00.07.16.38.38 0 00.26.3c.92.25 1.83.52 2.55-.05.88-.69 1-2.16 1.23-3.36 0-.2-.14-.48-.34-.45C109 131 106.45 131.51 106.88 134.13zM102.37 141a.32.32 0 00-.06.17.37.37 0 000 .39c.51.81 1 1.64 1.9 1.71 1.12.09 2.22-.89 3.19-1.62.17-.12.23-.45.07-.57C106.06 140.08 103.83 138.75 102.37 141z" class="colorc7d0db svgShape"></path><path fill="#aab6c2" d="M87.11,116.75s-.8,79.47,1.78,109.3H80S86.54,124.11,87.11,116.75Z" class="coloraab6c2 svgShape"></path><path fill="#aab6c2" d="M86 135.86s-7.22-9.66-9-13.58c0 0 7.28 14.43 8.61 19.43zM85.92 153.21s5.15-4.87 10.74-9.81c0 0-7.11 10.67-10.32 15.66zM86.24 131.73s4.21-5.66 5.29-8c0 0-4.24 8.54-5 11.54z" class="coloraab6c2 svgShape"></path><path fill="#c7d1db" d="M118.57,205.87a.49.49,0,0,0-.29-.39,5.16,5.16,0,0,0-3.11,0,4,4,0,0,0-2.16,2.33v0a18,18,0,0,0-1.69.88,6.16,6.16,0,0,0,.28-1.92c0-.65-.1-2.55-1.23-2.28-.83.2-1.46,2-1.68,2.73a3.93,3.93,0,0,0,.29,3.1,22.62,22.62,0,0,0-2.73,2.63,6.33,6.33,0,0,0,0-1.74c-.09-.64-.42-2.52-1.5-2.12-.81.31-1.21,2.19-1.33,2.92a3.9,3.9,0,0,0,.81,3.25.5.5,0,0,0,0,.38,29.73,29.73,0,0,0-1.66,2.71l-.08.15a6.33,6.33,0,0,0-.4-1.89c-.24-.61-1-2.36-2-1.72-.71.48-.68,2.4-.63,3.14a3.92,3.92,0,0,0,1.53,3,.48.48,0,0,0,0,.29c-.36.73-.71,1.47-1,2.22a6.47,6.47,0,0,0-.59-1.42,4.39,4.39,0,0,0-1.24-1.48c-.13-1-1.75-.94-2.64-.71A7.23,7.23,0,0,0,93.21,221c.31-1.44.63-2.88,1-4.32,1.9,0,5.74-1.15,5.8-2.63,0-1.14-1.71-1.12-2.65-.87a7.31,7.31,0,0,0-2.6,1.3c.3-1.17.63-2.33,1-3.49,2,.13,5.39-.45,5.64-1.79.22-1.12-1.52-1.36-2.48-1.26a7.34,7.34,0,0,0-2.44.73,38.37,38.37,0,0,1,1.46-3.64c1.93.57,5.32.76,5.87-.48.46-1-1.17-1.66-2.13-1.78A7.19,7.19,0,0,0,99,203a22.34,22.34,0,0,1,2.43-3.45c1.68.9,5.58,1.73,6.34.46.58-1-1-1.79-1.9-2a7.33,7.33,0,0,0-2.76-.12,17.18,17.18,0,0,1,2.23-1.69.42.42,0,0,0,.12,0,5.24,5.24,0,0,0,3.48-.8,2.93,2.93,0,0,0,.79-2.71.47.47,0,0,0-.34-.34,5.19,5.19,0,0,0-3.07.52,3.94,3.94,0,0,0-1.77,2.62,0,0,0,0,1,0,0c-.53.35-1,.73-1.52,1.12a6.58,6.58,0,0,0,0-1.93c-.11-.64-.5-2.51-1.57-2.07-.8.33-1.14,2.23-1.24,3a3.9,3.9,0,0,0,.76,3,21.45,21.45,0,0,0-2.28,3,6.1,6.1,0,0,0-.27-1.72c-.19-.62-.8-2.42-1.81-1.86-.75.43-.85,2.35-.86,3.09A3.88,3.88,0,0,0,97,204.22a.53.53,0,0,0,0,.39c-.45.95-.86,1.93-1.22,2.93l-.06.17A6.26,6.26,0,0,0,95,205.9c-.32-.57-1.33-2.19-2.18-1.41-.64.59-.3,2.48-.14,3.21a3.89,3.89,0,0,0,2,2.7.59.59,0,0,0,0,.32c-.24.78-.46,1.56-.68,2.35a6,6,0,0,0-.82-1.34c-.4-.51-1.64-2-2.37-1.06-.54.67.08,2.49.35,3.19a3.88,3.88,0,0,0,2.06,2.25q-.5,2-.93,4.08a6.3,6.3,0,0,0-1-1.71l-.18-.22a1.35,1.35,0,0,0-.21-.84,2.81,2.81,0,0,0-2,0,1.35,1.35,0,0,0-.21.84l-.18.22a6.3,6.3,0,0,0-1,1.71c-.29-1.36-.6-2.72-.92-4.08a3.94,3.94,0,0,0,2.06-2.25c.27-.7.88-2.52.34-3.19-.72-.9-2,.55-2.37,1.06a6.43,6.43,0,0,0-.82,1.34c-.21-.79-.44-1.57-.68-2.35a.51.51,0,0,0,0-.32,3.86,3.86,0,0,0,2-2.7c.16-.73.5-2.62-.14-3.21-.85-.78-1.86.84-2.18,1.41a6.56,6.56,0,0,0-.69,1.81l-.06-.17c-.36-1-.77-2-1.22-2.93a.48.48,0,0,0,0-.39,3.84,3.84,0,0,0,1.3-3.08c0-.74-.11-2.66-.86-3.09-1-.56-1.62,1.24-1.81,1.86a6.46,6.46,0,0,0-.26,1.72,22.32,22.32,0,0,0-2.29-3,3.9,3.9,0,0,0,.76-3c-.1-.73-.44-2.63-1.24-3-1.07-.44-1.45,1.43-1.57,2.07a6.58,6.58,0,0,0,0,1.93c-.48-.39-1-.77-1.52-1.12v0a3.94,3.94,0,0,0-1.77-2.62,5.16,5.16,0,0,0-3.07-.52.47.47,0,0,0-.34.34,2.91,2.91,0,0,0,.8,2.71,5.22,5.22,0,0,0,3.48.8l.12,0a17.07,17.07,0,0,1,2.22,1.69,7.35,7.35,0,0,0-2.76.12c-.93.24-2.48,1.06-1.89,2,.75,1.27,4.65.44,6.33-.46A23.11,23.11,0,0,1,81.06,203a7.22,7.22,0,0,0-2.66-.19c-1,.12-2.6.74-2.14,1.78.55,1.24,3.95,1,5.88.48a35.82,35.82,0,0,1,1.45,3.64,7.34,7.34,0,0,0-2.44-.73c-1-.1-2.69.14-2.48,1.26.25,1.34,3.64,1.92,5.64,1.79.34,1.16.67,2.32,1,3.49a7.31,7.31,0,0,0-2.6-1.3c-.93-.25-2.68-.27-2.64.87,0,1.48,3.89,2.62,5.79,2.63.35,1.44.67,2.88,1,4.32A7.28,7.28,0,0,0,84.53,220c-.85-.22-2.36-.26-2.6.58-.76-.13-1.53,1.12-1.8,1.61a6.05,6.05,0,0,0-.6,1.42c-.33-.75-.68-1.49-1-2.22a.48.48,0,0,0,0-.29,3.92,3.92,0,0,0,1.53-3c0-.74.08-2.66-.63-3.14-1-.64-1.71,1.11-2,1.72a7,7,0,0,0-.4,1.89l-.08-.15a29.73,29.73,0,0,0-1.66-2.71.5.5,0,0,0,0-.38,3.9,3.9,0,0,0,.81-3.25c-.12-.73-.52-2.61-1.33-2.92-1.08-.4-1.41,1.48-1.5,2.12a6.33,6.33,0,0,0,0,1.74,23.3,23.3,0,0,0-2.72-2.63,3.93,3.93,0,0,0,.28-3.1c-.21-.71-.84-2.53-1.68-2.73-1.13-.27-1.22,1.63-1.23,2.28a6.16,6.16,0,0,0,.28,1.92c-.54-.32-1.1-.61-1.68-.88a0,0,0,0,1,0,0,4,4,0,0,0-2.16-2.33,5.16,5.16,0,0,0-3.11,0,.49.49,0,0,0-.29.39,3,3,0,0,0,1.21,2.56,5.24,5.24,0,0,0,3.56.25l.11-.05A17.05,17.05,0,0,1,68.26,210a7.2,7.2,0,0,0-2.7.55c-.89.37-2.3,1.42-1.57,2.3.95,1.13,4.67-.29,6.19-1.43a21.59,21.59,0,0,1,2.94,3,7.26,7.26,0,0,0-2.66.22c-.93.26-2.45,1.13-1.83,2.09.73,1.14,4.06.43,5.88-.43a35.57,35.57,0,0,1,2,3.37,7.38,7.38,0,0,0-2.52-.34c-1,0-2.65.55-2.27,1.62.46,1.29,3.91,1.34,5.87.9.55,1.16,1,2.2,1.48,3.31a7.22,7.22,0,0,0-2.76-.89c-1-.1-2.7.14-2.48,1.26.28,1.46,4.26,2,6.14,1.72.27.35,1,0,.92-.45l-.12-.3A3.93,3.93,0,0,0,82.46,224a9.21,9.21,0,0,0,.22-2,10.37,10.37,0,0,0,4.65,1.49c.12.6.25,1.2.37,1.8a7,7,0,0,0-2.35-1.12c-.94-.25-2.69-.27-2.65.87,0,1.42,3.59,2.53,5.56,2.63a.5.5,0,0,0,.78-.2,9,9,0,0,0,1-.81,9,9,0,0,0,1,.81.51.51,0,0,0,.79.2c2-.1,5.5-1.21,5.55-2.63a.68.68,0,0,0,0-.21,3.76,3.76,0,0,0,1.42,1.69l-.12.3c-.07.43.65.8.92.45,1.88.28,5.86-.26,6.14-1.72.22-1.12-1.51-1.36-2.48-1.26a7.22,7.22,0,0,0-2.76.89c.47-1.11.93-2.15,1.49-3.31,2,.44,5.4.39,5.86-.9.38-1.07-1.3-1.58-2.27-1.62a7.38,7.38,0,0,0-2.52.34,35.57,35.57,0,0,1,2-3.37c1.82.86,5.15,1.57,5.88.43.62-1-.9-1.83-1.83-2.09a7.26,7.26,0,0,0-2.66-.22,22.16,22.16,0,0,1,2.94-3c1.52,1.14,5.24,2.56,6.19,1.43.73-.88-.67-1.93-1.57-2.3a7.2,7.2,0,0,0-2.7-.55,17.05,17.05,0,0,1,2.46-1.33l.11.05a5.24,5.24,0,0,0,3.56-.25A3,3,0,0,0,118.57,205.87Zm-28.68,16,.12-.14.12.14L90,222Zm4.78,2.24a6.94,6.94,0,0,0-2.34,1.12c.12-.6.24-1.2.37-1.8a11.26,11.26,0,0,0,4.11-1.16A12.1,12.1,0,0,0,97,224a3.94,3.94,0,0,0,.19.61C96.84,223.88,95.47,223.93,94.67,224.14Z" class="colorc7d0db svgShape"></path></g><rect width="104.3" height="134.51" x="1.74" y="47.74" fill="#ffffff" opacity=".31" transform="rotate(180 53.895 114.995)" class="colorffffff svgShape"></rect><polygon fill="#ffffff" points="69.8 179.82 80.72 179.82 34.32 49.28 23.4 49.28 69.8 179.82" opacity=".6" class="colorffffff svgShape"></polygon><polygon fill="#ffffff" points="89.08 179.82 94.54 179.82 48.14 49.28 42.68 49.28 89.08 179.82" opacity=".6" class="colorffffff svgShape"></polygon><polygon fill="#ffffff" points="36.02 179.82 41.48 179.82 3 63.4 1.84 70.98 36.02 179.82" opacity=".6" class="colorffffff svgShape"></polygon><rect width="3.08" height="137.78" x="104.57" y="46.2" fill="#ffffff" transform="rotate(180 106.11 115.09)" class="colorffffff svgShape"></rect><rect width="3.08" height="136.39" x="69.8" y="46.9" fill="#ffffff" transform="rotate(180 71.34 115.09)" class="colorffffff svgShape"></rect><rect width="3.08" height="107.38" x="52.42" y="-5.95" fill="#ffffff" transform="rotate(-90 53.96 47.74)" class="colorffffff svgShape"></rect><rect width="3.08" height="107.38" x="52.42" y="128.56" fill="#ffffff" transform="rotate(-90 53.955 182.245)" class="colorffffff svgShape"></rect><rect width="3.08" height="136.39" x="35.03" y="46.9" fill="#ffffff" transform="rotate(180 36.575 115.09)" class="colorffffff svgShape"></rect><rect width="3.08" height="137.78" x=".27" y="46.2" fill="#ffffff" transform="rotate(180 1.805 115.09)" class="colorffffff svgShape"></rect><rect width="107.38" height="3.08" x=".27" y="113.55" fill="#ffffff" class="colorffffff svgShape"></rect><rect width="101.19" height="1.09" x="3.36" y="116.63" fill="#aab6c2" class="coloraab6c2 svgShape"></rect><rect width="101.19" height="1.09" x="3.36" y="179.82" fill="#aab6c2" class="coloraab6c2 svgShape"></rect><rect width="101.25" height="1.09" x="3.33" y="49.28" fill="#aab6c2" class="coloraab6c2 svgShape"></rect><rect width="79.33" height="47.83" x="162.84" y="79.82" fill="#aab6c2" class="coloraab6c2 svgShape"></rect><rect width="71.46" height="39.87" x="166.78" y="83.8" fill="#e6eaef" transform="rotate(180 202.505 103.74)" class="colore6ebef svgShape"></rect><rect width="58.75" height="29.05" x="173.13" y="89.21" fill="#c7d1db" class="colorc7d0db svgShape"></rect><path fill="#aab6c2" d="M231.88,118.26l-9.26-13.43a.87.87,0,0,0-1.46,0l-5.09,8.07L212,108.59a.88.88,0,0,0-1.41.18l-5.22,9.49Z" class="coloraab6c2 svgShape"></path><path fill="#ffffff" d="M213.94 96.05a2.9 2.9 0 102.9-2.9A2.9 2.9 0 00213.94 96.05zM192.38 97.06c.15.31.47.35.78.41a21.45 21.45 0 003.5.12h2a5.11 5.11 0 002.15.58c.82 0 1.49-.52 2.31-.59.48 0 1.9.15 1.5-.85s-3.06-.89-4-1.16a7.34 7.34 0 00-1.33-.3c-.63-.09-.51-.11-1.08-.47a2.64 2.64 0 00-.7-.37 2.14 2.14 0 00-1.61.08c-.58.26-.84.87-1.46 1S191.78 95.78 192.38 97.06zM184.77 99.59a8.06 8.06 0 003.13.3 3.26 3.26 0 001.93-.56.76.76 0 00-.05-1.11 1 1 0 00-1-.19 3.68 3.68 0 00-2-.35 4 4 0 01-.83.18 6.29 6.29 0 01-.74-.22 1.44 1.44 0 00-.77 0C183.19 98.14 183.88 99.3 184.77 99.59z" class="colorffffff svgShape"></path><path fill="#aab6c2" d="M198.5,118.26l-5.78-10.33a.53.53,0,0,0-.92,0l-4.38,7.15-1.86-2.89a.54.54,0,0,0-.94.06l-2.86,6L177,107.09a.54.54,0,0,0-1,0l-2.82,7.93v3.2Z" class="coloraab6c2 svgShape"></path><path fill="#c7d1db" d="M141,70.33a18.11,18.11,0,0,1-18.09-18.09h.86a17.24,17.24,0,1,0,34.47,0h.85A18.1,18.1,0,0,1,141,70.33Z" class="colorc7d0db svgShape"></path><polygon fill="#aab6c2" points="140.79 38.09 117.97 56.99 168.28 56.99 140.79 38.09" class="coloraab6c2 svgShape"></polygon><polygon fill="url(#c)" points="129.45 54.32 105.36 131.99 175.42 131.99 152.65 54.32 129.45 54.32" opacity=".22"></polygon><polygon fill="#c7d1db" points="139.74 24.83 139.74 35.75 139.74 38.87 139.74 38.95 139.74 40.43 139.74 40.59 139.74 43.91 141.96 43.91 141.96 40.59 141.96 40.42 141.96 38.97 141.96 38.89 141.96 35.76 141.96 25.82 139.74 24.83" class="colorc7d0db svgShape"></polygon><path fill="#5cacfd" d="M139.76,40.59h2.18a2.62,2.62,0,0,1,2.62,2.62v5.42a0,0,0,0,1,0,0h-7.42a0,0,0,0,1,0,0V43.21A2.62,2.62,0,0,1,139.76,40.59Z" class="colorfdbe5c svgShape"></path><path fill="#c7d1db" d="M145.07,57.63A4.32,4.32,0,1,0,140.75,62,4.31,4.31,0,0,0,145.07,57.63Z" class="colorc7d0db svgShape"></path><path fill="#ffffff" d="M140.81,60.34a3.5,3.5,0,0,1-2.69-2.08.31.31,0,0,0-.6.17,4.06,4.06,0,0,0,3.13,2.5C141,61,141.2,60.41,140.81,60.34Z" class="colorffffff svgShape"></path><polygon fill="#c7d1db" points="140.79 38.09 115.64 56.99 165.94 56.99 140.79 38.09" class="colorc7d0db svgShape"></polygon><rect width="4.67" height="4.67" x="138.45" y="35.75" fill="#c7d1db" rx="1.3" class="colorc7d0db svgShape"></rect></g><path fill="#0575e6" d="M148.91,60.49l2-6.48-4-1.6a17,17,0,0,0-.57-5.91l3.6-2.34-3.18-6-3.94,1.68a16.84,16.84,0,0,0-4.59-3.78l.9-4.2-6.48-2-1.61,4a17,17,0,0,0-5.91.57l-2.33-3.6-6,3.18L118.5,38a17.18,17.18,0,0,0-3.78,4.59l-4.2-.89-2,6.47,4,1.61a17.22,17.22,0,0,0,.57,5.91L109.49,58l3.18,6,4-1.68a17,17,0,0,0,4.58,3.78l-.89,4.2,6.48,2,1.6-4a17.17,17.17,0,0,0,5.91-.57l2.34,3.6,6-3.18-1.68-3.95a17.17,17.17,0,0,0,3.79-4.58Zm-22.77,2.29a12.23,12.23,0,1,1,15.27-8.12A12.23,12.23,0,0,1,126.14,62.78Z" class="color609a8b svgShape"></path><polygon fill="#1e284c" points="110.14 43.44 109.85 43.36 108.36 48.24 111.19 49.38 111.3 49.11 108.73 48.07 110.14 43.44" class="color351e4c svgShape"></polygon><path fill="#1e284c" d="M117.67,63.22l-.22.2A14.23,14.23,0,0,0,121,66.17l-.87,4.08.29.06.92-4.31-.1,0A13.72,13.72,0,0,1,117.67,63.22Z" class="color351e4c svgShape"></path><path fill="#021b79" d="M141.12,47.09a12.16,12.16,0,0,1-4.69,14l.18.25c8.06-5.66,4.82-14.3,4.78-14.39Z" class="color1e3d50 svgShape"></path><path fill="#1e284c" d="M147.49,45.57l-1.32.86,0,.1a28.86,28.86,0,0,1,.61,3.24l.29,0a24.74,24.74,0,0,0-.59-3.18l1.14-.74Z" class="color351e4c svgShape"></path><path fill="#021b79" d="M148.29,46.06l3.62-2.34-3.3-6.22-4,1.69a16.12,16.12,0,0,0-4.47-3.68l.9-4.22-6.74-2.06-1.62,4a14.14,14.14,0,0,0-5.76.55l-2.34-3.61-6.22,3.3,1.69,4a16.32,16.32,0,0,0-3.68,4.48l-4.22-.9-2.06,6.74,4,1.61a17.09,17.09,0,0,0,.56,5.76l-3.63,2.35,3.31,6.22,4-1.69a16.78,16.78,0,0,0,4.47,3.68l-.9,4.22L128.64,72l1.61-4a13.16,13.16,0,0,0,5.76-.55L138.36,71l6.22-3.3-1.69-4a15.39,15.39,0,0,0,3.68-4.47l4.22.9,2.06-6.74-4-1.61A15,15,0,0,0,148.29,46.06Zm4.2,7.55-1.9,6.23-4.18-.9,0,.11a15.14,15.14,0,0,1-3.75,4.54l-.08.07,1.67,3.92-5.74,3L136.13,67l-.11,0a12.66,12.66,0,0,1-5.84.56h-.12l-1.59,4-6.23-1.9.89-4.18-.1,0a16.16,16.16,0,0,1-4.54-3.74l-.07-.09-3.92,1.67-3.06-5.74L115,55.25l0-.11a16.66,16.66,0,0,1-.56-5.86v-.11l-4-1.59,1.9-6.23,4.17.89.06-.09a16.57,16.57,0,0,1,3.73-4.54l.1-.07-1.67-3.93,5.74-3.06,2.32,3.59.12,0a13.56,13.56,0,0,1,5.85-.56h.11l1.59-4,6.22,1.9-.88,4.18.09,0a15.48,15.48,0,0,1,4.54,3.74l.07.09,3.93-1.67,3.05,5.74-3.58,2.32,0,.11a14.64,14.64,0,0,1,.56,5.86V52Z" class="color1e3d50 svgShape"></path><path fill="#021b79" d="M131.48,38.21a12.39,12.39,0,1,0,12.39,12.38A12.39,12.39,0,0,0,131.48,38.21Zm0,24.47a12.09,12.09,0,1,1,12.09-12.09A12.11,12.11,0,0,1,131.48,62.68Z" class="color1e3d50 svgShape"></path><rect width="19.92" height="177.2" x="202.08" y="46.83" fill="#021b79" class="color1e3d50 svgShape"></rect><path fill="#ffffff" d="M135.64,223.81h70.9V47h-70.9ZM139.89,54H202.3V78.34H139.89Zm0,27.62H202.3V106H139.89Zm0,27.62H202.3v24.39H139.89Zm0,27.63H202.3v24.39H139.89Zm0,27.62H202.3v24.39H139.89Zm0,27.62H202.3v24.4H139.89Z" class="colorffffff svgShape"></path><path fill="#021b79" d="M202.08 189.05h.44V164.22H139.67v24.83h62.41zm-62-24.39h62v24h-62zM202.08 78.56h.44V53.73H139.67V78.56h62.41zm-62-24.4h62v24h-62zM202.08 106.18h.44V81.35H139.67v24.83h62.41zm-62-24.39h62v23.95h-62zM202.08 161.43h.44V136.6H139.67v24.83h62.41zm-62-24.39h62v24h-62z" class="color1e3d50 svgShape"></path><path fill="#021b79" d="M135.42,49.47V224h71.34V46.82H135.42Zm.44,166.77v-169h70.46V223.59H135.86Z" class="color1e3d50 svgShape"></path><path fill="#021b79" d="M202.08 216.67h.44V191.84H139.67v24.83h62.41zm-62-24.39h62v24h-62zM202.08 133.8h.44V109H139.67V133.8h62.41zm-62-24.39h62v24h-62z" class="color1e3d50 svgShape"></path><rect width="61.97" height="23.95" x="140.11" y="54.16" fill="#aab6c2" class="coloraab6c2 svgShape"></rect><rect width="22.21" height="19.6" x="143.13" y="56.34" fill="#021b79" rx=".91" class="color1e3d50 svgShape"></rect><rect width="2.72" height="19.6" x="196.21" y="56.34" fill="#62a9f0" rx=".32" class="colorf0c562 svgShape"></rect><rect width="18.37" height="3.67" x="145.19" y="58.31" fill="#ffffff" rx="1.6" class="colorffffff svgShape"></rect><rect width="18.37" height="3.67" x="145.19" y="58.31" fill="#ffffff" rx="1.6" class="colorffffff svgShape"></rect><rect width="10.62" height="1.29" x="149.06" y="59.5" fill="#021b79" class="color1e3d50 svgShape"></rect><rect width="8.16" height="4.21" x="167.88" y="57.94" fill="#021b79" class="color1e3d50 svgShape"></rect><rect width="8.16" height="4.21" x="179.67" y="57.94" fill="#021b79" class="color1e3d50 svgShape"></rect><rect width="11.99" height="4.21" x="181.55" y="64.81" fill="#021b79" class="color1e3d50 svgShape"></rect><rect width="10.16" height="1.55" x="182.46" y="66.14" fill="#ffffff" class="colorffffff svgShape"></rect><rect width="11.99" height="4.21" x="181.55" y="71.25" fill="#021b79" class="color1e3d50 svgShape"></rect><rect width="10.16" height="1.55" x="182.46" y="72.58" fill="#ffffff" class="colorffffff svgShape"></rect><rect width="18.37" height="3.67" x="145.19" y="64.3" fill="#ffffff" rx="1.6" class="colorffffff svgShape"></rect><rect width="18.37" height="3.67" x="145.19" y="70.3" fill="#ffffff" rx="1.6" class="colorffffff svgShape"></rect><rect width="10.62" height="1.29" x="149.06" y="65.5" fill="#021b79" class="color1e3d50 svgShape"></rect><rect width="10.62" height="1.29" x="149.06" y="71.49" fill="#021b79" class="color1e3d50 svgShape"></rect><path fill="#62a9f0" d="M169.46,65.89a1.36,1.36,0,1,0,1.29,1.36A1.33,1.33,0,0,0,169.46,65.89Z" class="colorf0c562 svgShape"></path><path fill="#ffffff" d="M173.77,65.89a1.36,1.36,0,1,0,1.29,1.36A1.33,1.33,0,0,0,173.77,65.89Z" class="colorffffff svgShape"></path><path fill="#62a9f0" d="M178.08,65.89a1.36,1.36,0,1,0,1.3,1.36A1.33,1.33,0,0,0,178.08,65.89Z" class="colorf0c562 svgShape"></path><path fill="#ffffff" d="M192.2 58.25a1.8 1.8 0 101.72 1.8A1.76 1.76 0 00192.2 58.25zM169.46 71.09a1.35 1.35 0 101.29 1.35A1.32 1.32 0 00169.46 71.09z" class="colorffffff svgShape"></path><path fill="#62a9f0" d="M173.77,71.09a1.35,1.35,0,1,0,1.29,1.35A1.32,1.32,0,0,0,173.77,71.09Z" class="colorf0c562 svgShape"></path><path fill="#ffffff" d="M178.08,71.09a1.35,1.35,0,1,0,1.3,1.35A1.32,1.32,0,0,0,178.08,71.09Z" class="colorffffff svgShape"></path><rect width="61.97" height="23.95" x="140.11" y="81.79" fill="#aab6c2" class="coloraab6c2 svgShape"></rect><rect width="22.21" height="19.6" x="143.13" y="83.96" fill="#021b79" rx=".91" class="color1e3d50 svgShape"></rect><rect width="2.72" height="19.6" x="196.21" y="83.96" fill="#62a9f0" rx=".32" class="colorf0c562 svgShape"></rect><rect width="18.37" height="3.67" x="145.19" y="85.93" fill="#ffffff" rx="1.6" class="colorffffff svgShape"></rect><rect width="18.37" height="3.67" x="145.19" y="85.93" fill="#ffffff" rx="1.6" class="colorffffff svgShape"></rect><rect width="10.62" height="1.29" x="149.06" y="87.12" fill="#021b79" class="color1e3d50 svgShape"></rect><rect width="8.16" height="4.21" x="167.88" y="85.57" fill="#021b79" class="color1e3d50 svgShape"></rect><rect width="8.16" height="4.21" x="179.67" y="85.57" fill="#021b79" class="color1e3d50 svgShape"></rect><rect width="11.99" height="4.21" x="181.55" y="92.43" fill="#021b79" class="color1e3d50 svgShape"></rect><rect width="10.16" height="1.54" x="182.46" y="93.76" fill="#ffffff" class="colorffffff svgShape"></rect><rect width="11.99" height="4.21" x="181.55" y="98.88" fill="#021b79" class="color1e3d50 svgShape"></rect><rect width="10.16" height="1.55" x="182.46" y="100.21" fill="#ffffff" class="colorffffff svgShape"></rect><rect width="18.37" height="3.67" x="145.19" y="91.93" fill="#ffffff" rx="1.6" class="colorffffff svgShape"></rect><rect width="18.37" height="3.67" x="145.19" y="97.93" fill="#ffffff" rx="1.6" class="colorffffff svgShape"></rect><rect width="10.62" height="1.29" x="149.06" y="93.12" fill="#021b79" class="color1e3d50 svgShape"></rect><rect width="10.62" height="1.29" x="149.06" y="99.12" fill="#021b79" class="color1e3d50 svgShape"></rect><path fill="#62a9f0" d="M169.46,93.52a1.36,1.36,0,1,0,1.29,1.35A1.32,1.32,0,0,0,169.46,93.52Z" class="colorf0c562 svgShape"></path><path fill="#ffffff" d="M173.77,93.52a1.36,1.36,0,1,0,1.29,1.35A1.32,1.32,0,0,0,173.77,93.52Z" class="colorffffff svgShape"></path><path fill="#62a9f0" d="M178.08,93.52a1.36,1.36,0,1,0,1.3,1.35A1.32,1.32,0,0,0,178.08,93.52Z" class="colorf0c562 svgShape"></path><path fill="#ffffff" d="M192.2 85.87a1.8 1.8 0 101.72 1.8A1.76 1.76 0 00192.2 85.87zM169.46 98.71a1.36 1.36 0 101.29 1.35A1.33 1.33 0 00169.46 98.71z" class="colorffffff svgShape"></path><path fill="#62a9f0" d="M173.77,98.71a1.36,1.36,0,1,0,1.29,1.35A1.33,1.33,0,0,0,173.77,98.71Z" class="colorf0c562 svgShape"></path><path fill="#ffffff" d="M178.08,98.71a1.36,1.36,0,1,0,1.3,1.35A1.33,1.33,0,0,0,178.08,98.71Z" class="colorffffff svgShape"></path><rect width="61.97" height="23.95" x="140.11" y="109.41" fill="#aab6c2" class="coloraab6c2 svgShape"></rect><rect width="22.21" height="19.6" x="143.13" y="111.59" fill="#021b79" rx=".91" class="color1e3d50 svgShape"></rect><rect width="2.72" height="19.6" x="196.21" y="111.59" fill="#62a9f0" rx=".32" class="colorf0c562 svgShape"></rect><rect width="18.37" height="3.67" x="145.19" y="113.55" fill="#ffffff" rx="1.6" class="colorffffff svgShape"></rect><rect width="18.37" height="3.67" x="145.19" y="113.55" fill="#ffffff" rx="1.6" class="colorffffff svgShape"></rect><rect width="10.62" height="1.29" x="149.06" y="114.75" fill="#021b79" class="color1e3d50 svgShape"></rect><rect width="8.16" height="4.21" x="167.88" y="113.19" fill="#021b79" class="color1e3d50 svgShape"></rect><rect width="8.16" height="4.21" x="179.67" y="113.19" fill="#021b79" class="color1e3d50 svgShape"></rect><rect width="11.99" height="4.21" x="181.55" y="120.06" fill="#021b79" class="color1e3d50 svgShape"></rect><rect width="10.16" height="1.55" x="182.46" y="121.39" fill="#ffffff" class="colorffffff svgShape"></rect><rect width="11.99" height="4.21" x="181.55" y="126.5" fill="#021b79" class="color1e3d50 svgShape"></rect><rect width="10.16" height="1.54" x="182.46" y="127.83" fill="#ffffff" class="colorffffff svgShape"></rect><rect width="18.37" height="3.67" x="145.19" y="119.55" fill="#ffffff" rx="1.6" class="colorffffff svgShape"></rect><rect width="18.37" height="3.67" x="145.19" y="125.55" fill="#ffffff" rx="1.6" class="colorffffff svgShape"></rect><rect width="10.62" height="1.29" x="149.06" y="120.74" fill="#021b79" class="color1e3d50 svgShape"></rect><rect width="10.62" height="1.29" x="149.06" y="126.74" fill="#021b79" class="color1e3d50 svgShape"></rect><path fill="#62a9f0" d="M169.46,121.14a1.36,1.36,0,1,0,1.29,1.36A1.33,1.33,0,0,0,169.46,121.14Z" class="colorf0c562 svgShape"></path><path fill="#ffffff" d="M173.77,121.14a1.36,1.36,0,1,0,1.29,1.36A1.33,1.33,0,0,0,173.77,121.14Z" class="colorffffff svgShape"></path><path fill="#62a9f0" d="M178.08,121.14a1.36,1.36,0,1,0,1.3,1.36A1.33,1.33,0,0,0,178.08,121.14Z" class="colorf0c562 svgShape"></path><path fill="#ffffff" d="M192.2 113.49a1.8 1.8 0 101.72 1.8A1.76 1.76 0 00192.2 113.49zM169.46 126.33a1.36 1.36 0 101.29 1.36A1.33 1.33 0 00169.46 126.33z" class="colorffffff svgShape"></path><path fill="#62a9f0" d="M173.77,126.33a1.36,1.36,0,1,0,1.29,1.36A1.33,1.33,0,0,0,173.77,126.33Z" class="colorf0c562 svgShape"></path><path fill="#ffffff" d="M178.08,126.33a1.36,1.36,0,1,0,1.3,1.36A1.33,1.33,0,0,0,178.08,126.33Z" class="colorffffff svgShape"></path><rect width="61.97" height="23.95" x="140.11" y="137.04" fill="#aab6c2" class="coloraab6c2 svgShape"></rect><rect width="22.21" height="19.6" x="143.13" y="139.21" fill="#021b79" rx=".91" class="color1e3d50 svgShape"></rect><rect width="2.72" height="19.6" x="196.21" y="139.21" fill="#62a9f0" rx=".32" class="colorf0c562 svgShape"></rect><rect width="18.37" height="3.67" x="145.19" y="141.18" fill="#ffffff" rx="1.6" class="colorffffff svgShape"></rect><rect width="18.37" height="3.67" x="145.19" y="141.18" fill="#ffffff" rx="1.6" class="colorffffff svgShape"></rect><rect width="10.62" height="1.29" x="149.06" y="142.37" fill="#021b79" class="color1e3d50 svgShape"></rect><rect width="8.16" height="4.21" x="167.88" y="140.81" fill="#021b79" class="color1e3d50 svgShape"></rect><rect width="8.16" height="4.21" x="179.67" y="140.81" fill="#021b79" class="color1e3d50 svgShape"></rect><rect width="11.99" height="4.21" x="181.55" y="147.68" fill="#021b79" class="color1e3d50 svgShape"></rect><rect width="10.16" height="1.54" x="182.46" y="149.01" fill="#ffffff" class="colorffffff svgShape"></rect><rect width="11.99" height="4.21" x="181.55" y="154.12" fill="#021b79" class="color1e3d50 svgShape"></rect><rect width="10.16" height="1.55" x="182.46" y="155.45" fill="#ffffff" class="colorffffff svgShape"></rect><rect width="18.37" height="3.67" x="145.19" y="147.18" fill="#ffffff" rx="1.6" class="colorffffff svgShape"></rect><rect width="18.37" height="3.67" x="145.19" y="153.17" fill="#ffffff" rx="1.6" class="colorffffff svgShape"></rect><rect width="10.62" height="1.29" x="149.06" y="148.37" fill="#021b79" class="color1e3d50 svgShape"></rect><rect width="10.62" height="1.29" x="149.06" y="154.36" fill="#021b79" class="color1e3d50 svgShape"></rect><path fill="#62a9f0" d="M169.46,148.76a1.36,1.36,0,1,0,1.29,1.36A1.33,1.33,0,0,0,169.46,148.76Z" class="colorf0c562 svgShape"></path><path fill="#ffffff" d="M173.77,148.76a1.36,1.36,0,1,0,1.29,1.36A1.33,1.33,0,0,0,173.77,148.76Z" class="colorffffff svgShape"></path><path fill="#62a9f0" d="M178.08,148.76a1.36,1.36,0,1,0,1.3,1.36A1.33,1.33,0,0,0,178.08,148.76Z" class="colorf0c562 svgShape"></path><path fill="#ffffff" d="M192.2 141.12a1.8 1.8 0 101.72 1.8A1.76 1.76 0 00192.2 141.12zM169.46 154a1.35 1.35 0 101.29 1.35A1.32 1.32 0 00169.46 154z" class="colorffffff svgShape"></path><path fill="#62a9f0" d="M173.77,154a1.35,1.35,0,1,0,1.29,1.35A1.32,1.32,0,0,0,173.77,154Z" class="colorf0c562 svgShape"></path><path fill="#ffffff" d="M178.08,154a1.35,1.35,0,1,0,1.3,1.35A1.32,1.32,0,0,0,178.08,154Z" class="colorffffff svgShape"></path><rect width="61.97" height="23.95" x="140.11" y="164.66" fill="#aab6c2" class="coloraab6c2 svgShape"></rect><rect width="22.21" height="19.6" x="143.13" y="166.83" fill="#021b79" rx=".91" class="color1e3d50 svgShape"></rect><rect width="2.72" height="19.6" x="196.21" y="166.83" fill="#62a9f0" rx=".32" class="colorf0c562 svgShape"></rect><rect width="18.37" height="3.67" x="145.19" y="168.8" fill="#ffffff" rx="1.6" class="colorffffff svgShape"></rect><rect width="18.37" height="3.67" x="145.19" y="168.8" fill="#ffffff" rx="1.6" class="colorffffff svgShape"></rect><rect width="10.62" height="1.29" x="149.06" y="169.99" fill="#021b79" class="color1e3d50 svgShape"></rect><rect width="8.16" height="4.21" x="167.88" y="168.44" fill="#021b79" class="color1e3d50 svgShape"></rect><rect width="8.16" height="4.21" x="179.67" y="168.44" fill="#021b79" class="color1e3d50 svgShape"></rect><rect width="11.99" height="4.21" x="181.55" y="175.3" fill="#021b79" class="color1e3d50 svgShape"></rect><rect width="10.16" height="1.55" x="182.46" y="176.63" fill="#ffffff" class="colorffffff svgShape"></rect><rect width="11.99" height="4.21" x="181.55" y="181.75" fill="#021b79" class="color1e3d50 svgShape"></rect><rect width="10.16" height="1.54" x="182.46" y="183.08" fill="#ffffff" class="colorffffff svgShape"></rect><rect width="18.37" height="3.67" x="145.19" y="174.8" fill="#ffffff" rx="1.6" class="colorffffff svgShape"></rect><rect width="18.37" height="3.67" x="145.19" y="180.8" fill="#ffffff" rx="1.6" class="colorffffff svgShape"></rect><rect width="10.62" height="1.29" x="149.06" y="175.99" fill="#021b79" class="color1e3d50 svgShape"></rect><rect width="10.62" height="1.29" x="149.06" y="181.99" fill="#021b79" class="color1e3d50 svgShape"></rect><path fill="#62a9f0" d="M169.46,176.39a1.36,1.36,0,1,0,1.29,1.35A1.33,1.33,0,0,0,169.46,176.39Z" class="colorf0c562 svgShape"></path><path fill="#ffffff" d="M173.77,176.39a1.36,1.36,0,1,0,1.29,1.35A1.33,1.33,0,0,0,173.77,176.39Z" class="colorffffff svgShape"></path><path fill="#62a9f0" d="M178.08,176.39a1.36,1.36,0,1,0,1.3,1.35A1.33,1.33,0,0,0,178.08,176.39Z" class="colorf0c562 svgShape"></path><path fill="#ffffff" d="M192.2 168.74a1.8 1.8 0 101.72 1.8A1.76 1.76 0 00192.2 168.74zM169.46 181.58a1.36 1.36 0 101.29 1.35A1.33 1.33 0 00169.46 181.58z" class="colorffffff svgShape"></path><path fill="#62a9f0" d="M173.77,181.58a1.36,1.36,0,1,0,1.29,1.35A1.33,1.33,0,0,0,173.77,181.58Z" class="colorf0c562 svgShape"></path><path fill="#ffffff" d="M178.08,181.58a1.36,1.36,0,1,0,1.3,1.35A1.33,1.33,0,0,0,178.08,181.58Z" class="colorffffff svgShape"></path><rect width="61.97" height="23.95" x="140.11" y="192.28" fill="#aab6c2" class="coloraab6c2 svgShape"></rect><rect width="22.21" height="19.6" x="143.13" y="194.46" fill="#021b79" rx=".91" class="color1e3d50 svgShape"></rect><rect width="2.72" height="19.6" x="196.21" y="194.46" fill="#62a9f0" rx=".32" class="colorf0c562 svgShape"></rect><rect width="18.37" height="3.67" x="145.19" y="196.43" fill="#ffffff" rx="1.6" class="colorffffff svgShape"></rect><rect width="18.37" height="3.67" x="145.19" y="196.43" fill="#ffffff" rx="1.6" class="colorffffff svgShape"></rect><rect width="10.62" height="1.29" x="149.06" y="197.62" fill="#021b79" class="color1e3d50 svgShape"></rect><rect width="8.16" height="4.21" x="167.88" y="196.06" fill="#021b79" class="color1e3d50 svgShape"></rect><rect width="8.16" height="4.21" x="179.67" y="196.06" fill="#021b79" class="color1e3d50 svgShape"></rect><rect width="11.99" height="4.21" x="181.55" y="202.93" fill="#021b79" class="color1e3d50 svgShape"></rect><rect width="10.16" height="1.54" x="182.46" y="204.26" fill="#ffffff" class="colorffffff svgShape"></rect><rect width="11.99" height="4.21" x="181.55" y="209.37" fill="#021b79" class="color1e3d50 svgShape"></rect><rect width="10.16" height="1.55" x="182.46" y="210.7" fill="#ffffff" class="colorffffff svgShape"></rect><rect width="18.37" height="3.67" x="145.19" y="202.42" fill="#ffffff" rx="1.6" class="colorffffff svgShape"></rect><rect width="18.37" height="3.67" x="145.19" y="208.42" fill="#ffffff" rx="1.6" class="colorffffff svgShape"></rect><rect width="10.62" height="1.29" x="149.06" y="203.61" fill="#021b79" class="color1e3d50 svgShape"></rect><rect width="10.62" height="1.29" x="149.06" y="209.61" fill="#021b79" class="color1e3d50 svgShape"></rect><path fill="#62a9f0" d="M169.46,204a1.36,1.36,0,1,0,1.29,1.36A1.33,1.33,0,0,0,169.46,204Z" class="colorf0c562 svgShape"></path><path fill="#ffffff" d="M173.77,204a1.36,1.36,0,1,0,1.29,1.36A1.33,1.33,0,0,0,173.77,204Z" class="colorffffff svgShape"></path><path fill="#62a9f0" d="M178.08,204a1.36,1.36,0,1,0,1.3,1.36A1.33,1.33,0,0,0,178.08,204Z" class="colorf0c562 svgShape"></path><path fill="#ffffff" d="M192.2 196.36a1.8 1.8 0 101.72 1.8A1.76 1.76 0 00192.2 196.36zM169.46 209.2a1.36 1.36 0 101.29 1.36A1.33 1.33 0 00169.46 209.2z" class="colorffffff svgShape"></path><path fill="#62a9f0" d="M173.77,209.2a1.36,1.36,0,1,0,1.29,1.36A1.33,1.33,0,0,0,173.77,209.2Z" class="colorf0c562 svgShape"></path><path fill="#ffffff" d="M178.08,209.2a1.36,1.36,0,1,0,1.3,1.36A1.33,1.33,0,0,0,178.08,209.2Z" class="colorffffff svgShape"></path><path fill="#62a9f0" d="M195.55,194.08,186,198.16A41.24,41.24,0,0,0,174.86,189L177,178.82,161.32,174l-3.89,9.65A41.78,41.78,0,0,0,143.09,185l-5.65-8.72-14.5,7.7,4.08,9.57a41.24,41.24,0,0,0-9.17,11.12l-10.17-2.17-4.8,15.71,9.64,3.89c0,.44-.06.87-.08,1.3s0,1,0,1.45h12.17c0-.48,0-1,.06-1.45a29.65,29.65,0,0,1,59.17,0c0,.48.06,1,.06,1.45H196c0-.48,0-1,0-1.45a41.26,41.26,0,0,0-1.47-9.21l8.73-5.65Z" class="colorf0c562 svgShape"></path><polygon fill="#1e284c" points="106.75 206.82 106.05 206.61 102.43 218.46 109.3 221.23 109.57 220.56 103.32 218.03 106.75 206.82" class="color351e4c svgShape"></polygon><path fill="#021b79" d="M182.53,215.41l-.68.26a29.42,29.42,0,0,1,1.5,7.77c0,.47.06.95.07,1.45h.73c0-.5,0-1-.06-1.45A30.2,30.2,0,0,0,182.53,215.41Z" class="color1e3d50 svgShape"></path><path fill="#1e284c" d="M197.31,212l-3.21,2.07.07.26a64.64,64.64,0,0,1,1.48,7.85l.72-.09a69.65,69.65,0,0,0-1.43-7.69l2.76-1.79Z" class="color351e4c svgShape"></path><path fill="#021b79" d="M190.39,196.51c-3.74-4.83-9.57-8.22-10.82-8.92l2.18-10.23-16.35-5-3.91,9.7a34.11,34.11,0,0,0-14,1.34l-5.68-8.77-15.08,8,4.09,9.61c-4.33,3.12-8.15,9.52-8.91,10.84l-10.24-2.18-5,16.35,9.7,3.91c-.06.77-.09,1.53-.1,2.26,0,.5,0,1,0,1.45H117c0-.47,0-1,0-1.45,0-.8,0-1.62.13-2.46l0-.27-9.59-3.86,4.61-15.09,10.11,2.16.13-.24c0-.07,4.36-7.76,9.06-11l.25-.16L127.67,183l13.92-7.4,5.64,8.7.27-.11a33.22,33.22,0,0,1,14.18-1.36l.27,0,3.87-9.59,15.09,4.61L178.75,188l.24.13c.07,0,6.92,3.66,11,9.07l.17.22,9.53-4,7.4,13.92-8.7,5.63.1.26a34.32,34.32,0,0,1,1.57,10.29c0,.47,0,.95,0,1.45h.71c0-.49,0-1,0-1.45a35.94,35.94,0,0,0-1.51-10.26L208,207.5l-8-15.08Z" class="color1e3d50 svgShape"></path><path fill="#ffffff" d="M114.63,115a2,2,0,0,0,.29-.93.54.54,0,0,0-.42-.46,1.79,1.79,0,0,0-.73,0,8.69,8.69,0,0,0-3.32,1.4c-.12.09-.22.19-.32.28s0,0,0,0a6.83,6.83,0,0,0-1.33,1.85L90.45,120,75.34,99.49s-7.19,6.26-7.57,6.09S80.31,128,86,129.34c5.54,1.35,22.57-5.07,23.62-5.38.88.65,1.61.25,3.19-.16.94-.24,4-1.42,3.43-2.17-1.4-1.73.29-1.53.12-2.5-.22-1.24.81.18-.27-1.36C115.93,117.5,115.29,115.05,114.63,115Z" class="colorffffff svgShape"></path><path fill="#040507" d="M116,117.1a4.82,4.82,0,0,0-1.17-2.21,2.44,2.44,0,0,0,.23-.88.65.65,0,0,0-.52-.57,2.21,2.21,0,0,0-.77,0,9,9,0,0,0-3.39,1.43,3,3,0,0,0-.33.3l0,0a6.9,6.9,0,0,0-1.32,1.83l-18.17,2.79L75.44,99.42l-.08-.11-.1.08c-2.64,2.3-7,6-7.46,6.07h-.15v.11a106.05,106.05,0,0,0,7,11.6c3.52,5.21,8.35,11.57,11.34,12.3a8.47,8.47,0,0,0,1.89.18c3.94,0,11-1.77,20.87-5.26l.87-.3a1.69,1.69,0,0,0,1,.34,5.49,5.49,0,0,0,1.46-.3l.76-.2c.68-.18,3.31-1.11,3.58-1.94a.44.44,0,0,0-.08-.44c-.81-1-.54-1.26-.23-1.57a.94.94,0,0,0,.37-.88c-.06-.36,0-.42,0-.42h.17l0-.07c0-.1,0-.15-.51-.91A4,4,0,0,1,116,117.1Zm.32,1.42c-.09.11-.1.3,0,.63s-.11.46-.3.65c-.41.42-.66.83.22,1.91a.18.18,0,0,1,0,.2c-.21.64-2.51,1.54-3.4,1.77l-.77.21c-1.06.3-1.68.44-2.32,0l0,0-.06,0c-.12,0-.44.15-.93.32-9.88,3.48-16.88,5.24-20.79,5.24a7.91,7.91,0,0,1-1.83-.18c-2.9-.7-7.63-6.93-11.09-12a130.57,130.57,0,0,1-7-11.51c1-.48,6.09-4.86,7.4-6l15,20.35.05.06,18.38-2.83h.06l0,0a6.83,6.83,0,0,1,1.32-1.83l0,0a3.65,3.65,0,0,1,.3-.27,8.64,8.64,0,0,1,3.27-1.38,1.88,1.88,0,0,1,.67,0,.43.43,0,0,1,.34.35,2,2,0,0,1-.26.84l-.14.17.22,0c.4.06.89,1.45,1.13,2.12a4.39,4.39,0,0,0,.26.65l.42.61A.19.19,0,0,0,116.31,118.52Z" class="color070404 svgShape"></path><path fill="#021b79" d="M191.68,169.62c-22.31,19-40.24,25.49-53.31,19.13-17.1-8.33-26.16-39.18-25.94-87.56-.36,0-.7.09-1,.14-.2,48.71,9,79.83,26.49,88.32A25,25,0,0,0,149,192.12c11.87,0,26.38-7.27,43.32-21.74a.5.5,0,1,0-.65-.76Z" class="color1e3d50 svgShape"></path><path fill="#021b79" d="M192.09,114.26a.48.48,0,0,0-.57.41c-9.64,55-24.76,67.64-35.75,68.52-15.51,1.24-30.94-20.11-35.21-32.42-4-11.39-5.08-29.79-5.38-46.15l-1,.08c.29,16.61,1.42,34.78,5.45,46.39s18.55,33.16,34.78,33.16c.48,0,1,0,1.45-.06,16.5-1.33,28.83-24.66,36.65-69.35A.5.5,0,0,0,192.09,114.26Z" class="color1e3d50 svgShape"></path><path fill="#aab6c2" d="M111.5,96.46a.38.38,0,0,0-.37.41l.35,7.25a.39.39,0,1,0,.78,0l-.35-7.25A.39.39,0,0,0,111.5,96.46Z" class="coloraab6c2 svgShape"></path><path fill="#62a9f0" d="M112.77,99.88l-2.21.11a.43.43,0,0,0-.41.46l.17,3.48a.35.35,0,0,0,.08.22l.42.54a.37.37,0,0,1,.08.22l0,1.06a.43.43,0,0,0,.45.41l1.17-.06a.42.42,0,0,0,.4-.44l0-1.06a.32.32,0,0,1,.06-.23l.36-.58a.32.32,0,0,0,.06-.23l-.17-3.48A.44.44,0,0,0,112.77,99.88Z" class="colorf0c562 svgShape"></path><path fill="#aab6c2" d="M118.43,96.26a.39.39,0,0,0-.52.2l-2.84,6.69a.39.39,0,0,0,.2.51.4.4,0,0,0,.52-.21l2.84-6.68A.38.38,0,0,0,118.43,96.26Z" class="coloraab6c2 svgShape"></path><path fill="#62a9f0" d="M118.08,99.89,116,99a.43.43,0,0,0-.57.23l-1.37,3.21a.36.36,0,0,0,0,.23l.14.67a.4.4,0,0,1,0,.24l-.42,1a.43.43,0,0,0,.23.56l1.08.46a.42.42,0,0,0,.55-.23l.42-1a.34.34,0,0,1,.15-.18l.58-.36a.46.46,0,0,0,.16-.18l1.36-3.21A.44.44,0,0,0,118.08,99.89Z" class="colorf0c562 svgShape"></path><path fill="#ffffff" d="M116,117.18a.93.93,0,0,0,.34-1.07,1.46,1.46,0,0,0-1.07-1,2.49,2.49,0,0,0-1.58.19,5.9,5.9,0,0,0-1.37.9,1.78,1.78,0,0,0-.59.69.62.62,0,0,0,.19.78,1.06,1.06,0,0,0,.68,0,2.42,2.42,0,0,1,.43,0l-.32.18a1.85,1.85,0,0,0-.67.6.61.61,0,0,0,.09.8,1,1,0,0,0,.67.09h0l-.16.1a1.88,1.88,0,0,0-.68.6.62.62,0,0,0,.09.8,1,1,0,0,0,.67.08,5.31,5.31,0,0,1,.75,0c-.09.06-.19.1-.29.16a1.47,1.47,0,0,0-.55.5.54.54,0,0,0,.1.68.89.89,0,0,0,.56.08c.89-.06,3.42.92,3.24-.75a1.25,1.25,0,0,0-.36-.7.91.91,0,0,0,.46-1,1.27,1.27,0,0,0-.27-.68,1,1,0,0,0,.3-.9A1.4,1.4,0,0,0,116,117.18Z" class="colorffffff svgShape"></path><path fill="#101529" d="M116.19,117.17a1.08,1.08,0,0,0,.25-1.09s0,0,0-.07a1.6,1.6,0,0,0-1.14-1.07,2.58,2.58,0,0,0-1.66.19,6.14,6.14,0,0,0-1.41.92,2,2,0,0,0-.63.74.75.75,0,0,0,.25.94.93.93,0,0,0,.57,0,1.49,1.49,0,0,0-.5.5.73.73,0,0,0,.13,1,.65.65,0,0,0,.33.11,1.67,1.67,0,0,0-.49.5.85.85,0,0,0-.09.64.51.51,0,0,0,.22.32,1.08,1.08,0,0,0,.75.11,1.93,1.93,0,0,1,.34,0,1.49,1.49,0,0,0-.55.51.67.67,0,0,0,.13.84,1,1,0,0,0,.65.11,5,5,0,0,1,.92.09c.82.13,1.75.28,2.2-.14a1,1,0,0,0,.23-.84,1.19,1.19,0,0,0-.29-.66,1.09,1.09,0,0,0,.4-1,1.4,1.4,0,0,0-.24-.66,1.11,1.11,0,0,0,.26-.92A1.41,1.41,0,0,0,116.19,117.17Zm.1,2a1.28,1.28,0,0,1,.25.62.79.79,0,0,1-.4.88l-.14.08.11.12a1,1,0,0,1,.32.63.67.67,0,0,1-.16.62c-.35.35-1.26.2-2,.09a4.92,4.92,0,0,0-1-.1.73.73,0,0,1-.47-.07.42.42,0,0,1-.06-.51,1.31,1.31,0,0,1,.51-.45l.18-.1.44-.25-.38,0a4.25,4.25,0,0,0-.78,0,1,1,0,0,1-.59-.06.51.51,0,0,1-.05-.64,2,2,0,0,1,.63-.56l.09,0,.08,0,.37-.23h-.52a.88.88,0,0,1-.57-.06.49.49,0,0,1-.05-.63,1.75,1.75,0,0,1,.63-.57l.18-.1.13-.07.45-.26-.52,0a2.69,2.69,0,0,0-.46,0,.9.9,0,0,1-.58,0,.51.51,0,0,1-.14-.62,1.71,1.71,0,0,1,.56-.64,5.45,5.45,0,0,1,1.35-.89,2.27,2.27,0,0,1,1.49-.17,1.32,1.32,0,0,1,1,.94.81.81,0,0,1-.29.94l-.16.11.17.1a1.25,1.25,0,0,1,.64,1,.87.87,0,0,1-.25.79l-.1.08Z" class="color1e1029 svgShape"></path><path fill="#5072f0" d="M79.08,112.24,73.15,95.8C70.34,99.05,79.08,112.24,79.08,112.24Z" class="colorf05051 svgShape"></path><path fill="#ffffff" d="M120.47,201.92h0a13.64,13.64,0,0,0-2.33-.12c-2.26,0-3.94-1.77-6.06-2.43S108.67,191,108,189.15c-3,0-7.25,2-6.46,2.77,7.18,6.88,1.84,7.52,1.94,10.73,0,1.45,1.52,1.68,2.3,1.64,6-.36,9.53-.37,14.45-.49A1,1,0,0,0,120.47,201.92Z" class="colorffffff svgShape"></path><path fill="#021b79" d="M120.5,201.8h0a11.41,11.41,0,0,0-2.13-.12h-.23a7.67,7.67,0,0,1-3.63-1.3,13.38,13.38,0,0,0-2.39-1.12c-1.5-.47-2.61-4.84-3.34-7.74-.26-1-.49-1.91-.67-2.39l0-.08H108c-2.61,0-6.25,1.51-6.64,2.49a.42.42,0,0,0,.1.49c4.94,4.75,3.86,6.47,2.81,8.14a4.4,4.4,0,0,0-.91,2.5,1.66,1.66,0,0,0,.52,1.21,2.64,2.64,0,0,0,1.73.56h.18c4.62-.27,7.8-.34,11.17-.41l3.27-.08a1.09,1.09,0,0,0,1.06-1A1,1,0,0,0,120.5,201.8Zm-.32,1.87-3.26.08c-3.37.07-6.56.14-11.18.41a2.46,2.46,0,0,1-1.73-.49,1.37,1.37,0,0,1-.44-1,4.14,4.14,0,0,1,.87-2.36c1.1-1.75,2.24-3.56-2.85-8.45a.19.19,0,0,1,0-.22c.33-.8,3.68-2.3,6.33-2.33.17.48.38,1.32.63,2.28.78,3.13,1.87,7.41,3.51,7.92a13.49,13.49,0,0,1,2.34,1.1,8,8,0,0,0,3.75,1.33h.23a12.31,12.31,0,0,1,2.08.11l0-.11,0,.12h0a.77.77,0,0,1,.57.88A.84.84,0,0,1,120.18,203.67Z" class="color1e3d50 svgShape"></path><path fill="#040507" d="M120.83,201.79a7.6,7.6,0,0,0-3.43-.68,10.55,10.55,0,0,1-3.45-1.27.46.46,0,0,0-.62.21,3.1,3.1,0,0,1-2,1.24c-2,.59-6-.7-7.06-1a.34.34,0,0,0-.4.14,5.64,5.64,0,0,0-.84,2,3.6,3.6,0,0,0,.34,1.77.68.68,0,0,0,.64.41l16.62-.57a.8.8,0,0,0,.78-.84A1.49,1.49,0,0,0,120.83,201.79Z" class="color070404 svgShape"></path><path fill="#ffffff" d="M59.23,220.19c-2.25-1.07-1-7.73-1.52-9.84-2.25-.1-5.26.39-5.06,1.61,1.22,7.49.85,7.17-.65,9.42-.92,1.38-.92,3,1.45,2.8a52.59,52.59,0,0,1,6.15-.11C61.07,224.08,63.82,222.37,59.23,220.19Z" class="colorffffff svgShape"></path><path fill="#021b79" d="M59.28,220.07c-1.45-.68-1.39-3.95-1.34-6.58a15.54,15.54,0,0,0-.11-3.17l0-.09h-.1c-1.92-.08-4.25.25-5,1.06a.81.81,0,0,0-.22.7c1.1,6.8.89,7.11-.28,8.8l-.35.53a2.31,2.31,0,0,0-.42,2.35,1.66,1.66,0,0,0,1.56.66,3.1,3.1,0,0,0,.42,0,41.63,41.63,0,0,1,5-.12h1.15c.8,0,2-.49,2.26-1.39C62,222.19,61.67,221.21,59.28,220.07Zm2.34,2.68c-.17.74-1.28,1.19-2,1.19H58.47a40.28,40.28,0,0,0-5,.13c-.88.08-1.49-.1-1.74-.53a2.1,2.1,0,0,1,.4-2.08l.36-.53c1.21-1.76,1.43-2.08.31-9a.62.62,0,0,1,.17-.5c.59-.66,2.49-1,4.19-1h.48a18.31,18.31,0,0,1,.08,3c0,2.69-.11,6,1.48,6.81C60.92,221.13,61.79,222,61.62,222.75Z" class="color1e3d50 svgShape"></path><path fill="#7fa0c1" d="M98,151.55c-8.76-3-16.83-5.67-22.3-7.24-1.57.84-10.16-1.82-11.73-1-3.47,1.76-10.81,12.74-12.47,16.64C61.92,168.13,75,172.63,88.08,175c6.32,11.16,12.44,19.6,14.6,23.2,2.62.53,7.57-.23,10.44-.66-1.57-4.77-5.61-22.2-9.32-39.51A8.86,8.86,0,0,0,98,151.55Z" class="colora1c17f svgShape"></path><path fill="#7fa0c1" d="M49,130.65c-11.93,18.49-3.4,71.16,2.27,87.63,4.72.47,4.89.36,9.61.83.19-7.43-1.07-23.27,3.29-35.7a8.67,8.67,0,0,0,.41-1.67c1.85-14.48,6.4-16.62,9.22-35.33-1.12-1.09-9.47-10-10.55-11.08C60.87,132.87,52.52,130.6,49,130.65Z" class="colora1c17f svgShape"></path><path fill="#021b79" d="M85.84 131.06v0l-.12-.49C82.57 117.73 82 103.9 76.09 97.21c-1.49-1.68-17.08-8-21.83 5-2.74 7.46-8 30.64-8 30.64-.15 3.85 2.73 6 6.11 7.23a28.27 28.27 0 007.39 1.42c3.73.23 4 2.27 6.56 4.78L77.09 150l9.64 2.07c2-1.25 2.93-3.86 2.64-6.58C89.11 143.09 87.37 137.2 85.84 131.06zM69.5 163.49a.16.16 0 00-.21.1L66.74 171a.18.18 0 00.1.22h.06a.17.17 0 00.16-.12l2.55-7.44A.16.16 0 0069.5 163.49z" class="color1e3d50 svgShape"></path><rect width="23.98" height="5.34" x="38.11" y="156.89" fill="#aab6c2" transform="rotate(-24.53 50.08 159.525)" class="coloraab6c2 svgShape"></rect><path fill="#aab6c2" d="M33.51 161.67a1.28 1.28 0 00-1.18.54L30 165.43a.17.17 0 00.21.26l.74-.33 2.78-1.23a.46.46 0 01.26 0l2.17.21a.51.51 0 01.43.3l.83 1.83a.53.53 0 01-.05.53l-1.26 1.77a.51.51 0 01-.21.17l-2.75 1.29-.73.35a.17.17 0 00.06.33l3.94.38a1.3 1.3 0 001.18-.54L40.3 167l-2.22-4.86zM69.88 153.46l-.73.33L66.37 155a.51.51 0 01-.27 0l-2.17-.21a.52.52 0 01-.43-.3l-.83-1.83a.53.53 0 010-.53L64 150.42a.68.68 0 01.21-.17l2.75-1.3.73-.34a.17.17 0 00-.06-.33l-3.93-.38a1.3 1.3 0 00-1.18.54l-2.67 3.74L62.05 157l4.57.44a1.26 1.26 0 001.18-.54l2.3-3.22A.18.18 0 0069.88 153.46z" class="coloraab6c2 svgShape"></path><path fill="#021b79" d="M59.58,154.21l-19.74,9a.92.92,0,0,0,.77,1.68l19.74-9a.93.93,0,0,0,.46-1.22A.94.94,0,0,0,59.58,154.21Z" class="color1e3d50 svgShape"></path><path fill="#040507" d="M59.61,220.2a2.23,2.23,0,0,1-.73-.31,2.71,2.71,0,0,0-1.84-.28c-.76.13-1.47.46-2.22.65a3.11,3.11,0,0,1-2,0,.39.39,0,0,0-.43.06A4.88,4.88,0,0,0,51,223.92a.53.53,0,0,0,.53.51H62.09a.47.47,0,0,0,.47-.49,4,4,0,0,0-.85-2.41A4.11,4.11,0,0,0,59.61,220.2Z" class="color070404 svgShape"></path><path fill="#ffffff" d="M52.63,136.43l.13-2,1.29-13.26.12-2,0-.86a20.55,20.55,0,0,0-.15-2.49l-.6-.06-3.79-.41-.25.16-1.86,1.18-2.68,1.79-1.06.71-.11.38-.21.73L45.39,151l.21,1.41s0,0,0,0v0a15.11,15.11,0,0,0,.93,4.29c.19.55.59,2.56.93,3.37a4.4,4.4,0,0,0,.42,1,11.77,11.77,0,0,0,2.62,3.22c.22.18.5.37.76.28a.58.58,0,0,0,.34-.56,1.1,1.1,0,0,0-.09-.42c.12.12.24.24.37.35s.49.37.76.27a.56.56,0,0,0,.34-.55,1.62,1.62,0,0,0-.17-.66c-.06-.12-.11-.26-.17-.38.05,0,.08.08.13.11.22.18.5.38.76.28a.58.58,0,0,0,.34-.55,1.81,1.81,0,0,0-.18-.66c-.51-1.23-1-2.48-1.55-3.71,0-.87,0-1.62.11-1.94a.51.51,0,0,1,.19-.24c0-.18.08-.36.13-.54l0-.09.25.29.19-.16c.36-.3.94-.41,1.12-.8.11-.21,0-.68-.09-.91l-.09-.39a5.72,5.72,0,0,0-.95-2.17,2.77,2.77,0,0,0-.5-.53h0a2.85,2.85,0,0,0-.49-.34c-.22-.12-.35-.37-.54-.54h0Z" class="colorffffff svgShape"></path><path d="M52.89,134.49l1.29-13.27.17-2.91a21,21,0,0,0-.15-2.51l0-.1-4.53-.48-2.15,1.37-3.78,2.52-.33,1.17L45.27,151l.2,1.35h0v.12h0a15.16,15.16,0,0,0,.93,4.31c.08.21.18.63.3,1.12a18.34,18.34,0,0,0,.63,2.24,4.54,4.54,0,0,0,.43,1,11.94,11.94,0,0,0,2.65,3.26,1.24,1.24,0,0,0,.7.33.58.58,0,0,0,.19,0,.72.72,0,0,0,.42-.68v0l.07.06a1.18,1.18,0,0,0,.69.33.58.58,0,0,0,.19,0,.7.7,0,0,0,.43-.67,1.48,1.48,0,0,0-.16-.64.91.91,0,0,0,.44.14.52.52,0,0,0,.18,0,.71.71,0,0,0,.43-.67,2,2,0,0,0-.19-.71l-1.54-3.68q0-.37,0-.72a7.59,7.59,0,0,1,.08-1.18s0-.08.14-.16l0,0V156a3,3,0,0,1,.09-.38l.09.11.08.09.28-.24a2.82,2.82,0,0,1,.45-.27,1.37,1.37,0,0,0,.7-.57,1.57,1.57,0,0,0-.06-.94l-.11-.44a5.82,5.82,0,0,0-1-2.22,3,3,0,0,0-.48-.52l0,0a2.85,2.85,0,0,0-.51-.35,1.16,1.16,0,0,1-.3-.29l-.17-.19,1.14-13.31Zm-.38,1.93-1.14,13.37v.06l0,0a1.29,1.29,0,0,1,.19.21,1.54,1.54,0,0,0,.37.35,2.69,2.69,0,0,1,.43.29v.07h.08a2.35,2.35,0,0,1,.44.49,5.4,5.4,0,0,1,.93,2.12l.11.44a1.63,1.63,0,0,1,.08.77,1.22,1.22,0,0,1-.59.46,3.15,3.15,0,0,0-.5.3l-.09.08h0l0,0-.14-.17-.17-.17-.07.32-.12.5a.59.59,0,0,0-.2.28,8,8,0,0,0-.08,1.23c0,.23,0,.47,0,.73v.06c.52,1.23,1,2.48,1.55,3.71a1.82,1.82,0,0,1,.17.6.46.46,0,0,1-.26.44c-.19.07-.43-.09-.65-.27l0,0-.09-.08-.37-.22.19.38a1.08,1.08,0,0,1,.08.19l.09.19a1.54,1.54,0,0,1,.16.61.44.44,0,0,1-.26.43c-.21.08-.47-.11-.64-.25s-.24-.22-.36-.34l-.43-.43.23.56a1.18,1.18,0,0,1,.08.38.45.45,0,0,1-.26.44c-.19.07-.45-.11-.64-.26A11.56,11.56,0,0,1,48,161.09a4,4,0,0,1-.41-1,18.43,18.43,0,0,1-.63-2.22c-.12-.49-.22-.92-.3-1.14a15.47,15.47,0,0,1-.93-4.27h0L45.52,151l-1.88-30.7.3-1,3.7-2.48,2.07-1.31,3.75.4.5.05a21.07,21.07,0,0,1,.14,2.37l-.17,2.91-1.29,13.26Z" fill="#000000" class="color000000 svgShape"></path><path fill="#040507" d="M82.18,142c-1.32,1.46-3.58,1.51-5.11,1.11a17,17,0,0,1-3.92-1.77c-.38-.21-.77-.43-1.16-.63A28.67,28.67,0,0,0,64.27,138a.17.17,0,0,0-.06.34,28.38,28.38,0,0,1,7.62,2.7c.39.2.77.42,1.16.63a17.4,17.4,0,0,0,4,1.81,7.31,7.31,0,0,0,1.79.23,4.81,4.81,0,0,0,3.65-1.45.16.16,0,0,0,0-.24A.17.17,0,0,0,82.18,142Z" class="color070404 svgShape"></path><path fill="#ffffff" d="M71,92.38l-.27-2-5.78-.09-.25,2-.26,2.08-1.06.39H63.3v0a1.42,1.42,0,0,0,.21.69,6.1,6.1,0,0,0,2.92,2.15,5.83,5.83,0,0,0,2.56.21A5.89,5.89,0,0,0,71.2,97a3.63,3.63,0,0,0,1.37-1.38l.06-.14h0c-.44-.17-.88-.32-1.3-.45Z" class="colorffffff svgShape"></path><path fill="#021b79" d="M71.44,94.93l-.62-4.72-6-.09-.51,4.09-1,.36h-.08l-.09,0v.1a1.56,1.56,0,0,0,.23.75,6.27,6.27,0,0,0,3,2.21,6,6,0,0,0,1.78.27,5.69,5.69,0,0,0,.83-.06,6,6,0,0,0,2.26-.78,3.74,3.74,0,0,0,1.42-1.43l.07-.15v-.14l-.08,0C72.28,95.21,71.86,95.07,71.44,94.93Zm1,.63a3.3,3.3,0,0,1-1.32,1.33,5.56,5.56,0,0,1-2.16.75,5.69,5.69,0,0,1-2.5-.2,6,6,0,0,1-2.85-2.1,1.25,1.25,0,0,1-.19-.54l1-.38.07,0,.5-4,5.56.08.61,4.67.08,0c.4.12.79.26,1.17.4Z" class="color1e3d50 svgShape"></path><path fill="#021b79" d="M50.58,103.12a47.5,47.5,0,0,0-4.88,10.37l-1.86,5c-.91,2.41-4.17,9.06-1.91,7.85C44.51,125,53.87,129,54.1,128.61c1.69-2.69,9.38-34.08,9.36-34.07C53.92,96.09,52.58,100.18,50.58,103.12Z" class="color1e3d50 svgShape"></path><path fill="#ffffff" d="M74.24,82c-.88-.08-1.67.78-1.77,1.91s-.19,2.72.69,2.79,2.39-1.39,2.49-2.52A1.86,1.86,0,0,0,74.24,82Z" class="colorffffff svgShape"></path><path fill="#021b79" d="M74.25,81.88a2,2,0,0,0-1.9,2,8.57,8.57,0,0,0,0,1.82c.09.69.36,1.07.82,1.11h.07A2.47,2.47,0,0,0,74.78,86a3.07,3.07,0,0,0,1-1.79A2,2,0,0,0,74.25,81.88Zm1.27,2.3a2.92,2.92,0,0,1-.91,1.63,2.18,2.18,0,0,1-1.44.78c-.33,0-.52-.32-.6-.9a9.54,9.54,0,0,1,0-1.76,1.79,1.79,0,0,1,1.53-1.8h.1A1.75,1.75,0,0,1,75.52,84.18Z" class="color1e3d50 svgShape"></path><path fill="#040507" d="M74.79 82.59c-.61.06-1.3.39-1.8 2.34a.17.17 0 00.11.2h.06a.16.16 0 00.15-.09 3.75 3.75 0 00.17-.47c.09-.26.16-.5.34-.59a1 1 0 01.75 0 .17.17 0 00.1-.32 1.48 1.48 0 00-.83-.08 1.23 1.23 0 011-.7.18.18 0 00.15-.19A.17.17 0 0074.79 82.59zM64.93 90.24l-.25 2a6.57 6.57 0 002.26.36 7.74 7.74 0 003.9-1.14l-.13-1.11z" class="color070404 svgShape"></path><path fill="#040507" d="M68.22,75.73a5.63,5.63,0,1,0,5.92,5.71A5.82,5.82,0,0,0,68.22,75.73Z" class="color070404 svgShape"></path><path fill="#ffffff" d="M61.3,81.82A1.87,1.87,0,0,0,59.83,84c.06,1.13,1.54,2.64,2.42,2.59s.83-1.64.76-2.77A1.86,1.86,0,0,0,61.3,81.82Z" class="colorffffff svgShape"></path><path fill="#021b79" d="M62.56,82.27a1.56,1.56,0,0,0-1.26-.58A2,2,0,0,0,59.71,84a3.13,3.13,0,0,0,.93,1.82,2.47,2.47,0,0,0,1.56.9h0c.46,0,.74-.4.86-1.09a9.19,9.19,0,0,0,0-1.82A2.54,2.54,0,0,0,62.56,82.27Zm.3,3.28c-.09.57-.3.86-.62.88a2.19,2.19,0,0,1-1.42-.82A2.93,2.93,0,0,1,60,84a1.75,1.75,0,0,1,1.35-2,1.32,1.32,0,0,1,1.06.5,2.26,2.26,0,0,1,.52,1.34A9.34,9.34,0,0,1,62.86,85.55Z" class="color1e3d50 svgShape"></path><path fill="#040507" d="M60.73,82.38a.17.17,0,0,0-.19.15.18.18,0,0,0,.15.19,1.22,1.22,0,0,1,1,.72,1.67,1.67,0,0,0-.83.07.16.16,0,0,0-.12.2.17.17,0,0,0,.21.12,1,1,0,0,1,.76,0c.17.1.24.33.31.6a3.06,3.06,0,0,0,.17.48.15.15,0,0,0,.15.09h.05a.16.16,0,0,0,.11-.19C62,82.81,61.34,82.46,60.73,82.38Z" class="color070404 svgShape"></path><path fill="#ffffff" d="M68.12,77.08c-3.2,0-5.85,3.26-5.91,7.39S64.7,92,67.9,92s5.85-3.25,5.91-7.38S71.32,77.13,68.12,77.08Z" class="colorffffff svgShape"></path><path fill="#021b79" d="M68.12,77h-.07a5.34,5.34,0,0,0-4.16,2.17,9.21,9.21,0,0,0-.16,10.72,5.32,5.32,0,0,0,4.17,2.3H68A5.34,5.34,0,0,0,72.13,90a9.2,9.2,0,0,0,.16-10.71A5.32,5.32,0,0,0,68.12,77Zm3.81,12.86a5.09,5.09,0,0,1-4,2.08H67.9a5.06,5.06,0,0,1-4-2.2,8.95,8.95,0,0,1,.16-10.41,5.06,5.06,0,0,1,4-2.08h.07a5.06,5.06,0,0,1,4,2.2,8.95,8.95,0,0,1-.16,10.41Z" class="color1e3d50 svgShape"></path><path fill="#040507" d="M69.38 86.05a1.79 1.79 0 01-.85.22.27.27 0 01-.18 0c-.08 0-.08-.23-.06-.35l.18-2a.17.17 0 10-.33 0l-.19 2a.74.74 0 00.2.67.7.7 0 00.38.1 2.06 2.06 0 001-.27.17.17 0 00.07-.23A.17.17 0 0069.38 86.05zM66.08 82.74c-.22 0-.4.29-.4.65s.16.66.38.66.4-.29.41-.65S66.3 82.74 66.08 82.74zM70.62 82.81c-.22 0-.4.28-.41.65s.17.65.39.66.4-.29.4-.65S70.84 82.81 70.62 82.81z" class="color070404 svgShape"></path><path fill="#040507" d="M66.78 81.67a1.46 1.46 0 00-1.26.27 1.58 1.58 0 00-.45.77c0 .18.12.37.2.23a1.47 1.47 0 01.49-.55 1.07 1.07 0 011.07 0c.08 0 .14 0 .12-.18s0-.23 0-.34A.19.19 0 0066.78 81.67zM70.21 81.72c-.06 0-.11.08-.13.17l-.06.34c0 .12 0 .21.11.18a1.07 1.07 0 011.07.06 1.37 1.37 0 01.48.57c.07.14.25-.05.21-.23a1.59 1.59 0 00-.43-.78A1.48 1.48 0 0070.21 81.72zM62.34 82c-.32 2.85-.07 3.53-.07 3.53a3.22 3.22 0 001.9-3c0-2.28.88-4.38.51-4.39S62.56 80 62.34 82zM72.61 78.3c-.26 0 .29 2.12.26 4.4s.87 3.12.87 3.12A13.68 13.68 0 0074 82.71C74.05 80.43 72.87 78.3 72.61 78.3z" class="color070404 svgShape"></path><path fill="#040507" d="M68.21 76.42a4.92 4.92 0 00-4 1.26 2.82 2.82 0 00-.68 1.37c-.26 1.26.56.38 1.2 1a1.5 1.5 0 00.56.42.68.68 0 00.74-.22.69.69 0 000-.78c.12-.23.49-.17.68 0s.27.46.47.63A.73.73 0 1068.1 79c.22-.31.72-.18 1 .1a9.35 9.35 0 01.54 1c.2.32.62.57.94.38l.09-1.11c.77.21.86 1.51 1.65 1.63a.88.88 0 00.9-.69 1.83 1.83 0 00-.2-1.21C72.13 77.35 70.11 76.54 68.21 76.42zM65.93 87.24a3.94 3.94 0 00.5 1.54 1.74 1.74 0 001.87.66 6.75 6.75 0 001.08-.53A3.8 3.8 0 0165.93 87.24z" class="color070404 svgShape"></path><path fill="#021b79" d="M75.77,96.93l-6.06,15.2S79.19,126.33,80,124.2s7.11-7.91,6.07-11.39C82.82,102.08,75.77,96.93,75.77,96.93Z" class="color1e3d50 svgShape"></path><polygon fill="#7fa0c1" points="85.84 131.04 76.19 107.72 62.92 108.26 53.03 132.17 52.41 140.06 52.31 141.38 65.97 146.65 76.97 150.47 86.62 152.45 92.05 153.74 85.84 131.06 85.84 131.04" class="colora1c17f svgShape"></polygon><path fill="#040507" d="M74,73.67c-.93-.57-1-2.14-2.1-2.41-1.31-.34-2.25,1.7-3.58,1.54-.75-.1-1.33-.88-2.07-.8-1.26.13-1.48,2.47-2.74,2.34-.35,0-.66-.28-1-.27-.71,0-.95,1-.85,1.68s.28,1.55-.25,2a1.7,1.7,0,0,0-1.69,1.55,2.81,2.81,0,0,0,1,2.25,5.39,5.39,0,0,0,1.89,1.11c.43-.64.09-2.06.5-2.92a4.6,4.6,0,0,1,2.15-2.16,6,6,0,0,1,5.85.7c1,.7,2,1.71,3.23,1.46,1-.21,1.6-1.24,2.06-2.17a4.86,4.86,0,0,0,.6-1.67,1.7,1.7,0,0,0-.6-1.6C75.73,73.85,74.73,74.11,74,73.67Z" class="color070404 svgShape"></path><path fill="#7fa0c1" d="M73.93,95.66l1.72,12.24,1.81,3.41S74.8,96.09,74.73,96.09A8.28,8.28,0,0,1,73.93,95.66Z" class="colora1c17f svgShape"></path><polygon fill="#7fa0c1" points="59.95 94.89 62.09 111.31 63.46 108.81 61.74 94.54 59.95 94.89" class="colora1c17f svgShape"></polygon><path fill="#7fa0c1" d="M65.62,124.13a41.65,41.65,0,0,0,0,9.54L71,136.5l5.36-2.35a85.24,85.24,0,0,1,0-10A24,24,0,0,1,65.62,124.13Z" class="colora1c17f svgShape"></path><path fill="#021b79" d="M76.57,123.85l-.29.07a24.1,24.1,0,0,1-10.6,0l-.25-.07,0,.25a42.73,42.73,0,0,0,0,9.6l0,.12,5.46,2.88.09.05,5.6-2.46v-.16a87.53,87.53,0,0,1,0-10ZM71,136.25l-5.15-2.72a41.7,41.7,0,0,1,0-9.12,24.82,24.82,0,0,0,10.29,0,84.28,84.28,0,0,0,0,9.6Z" class="color1e3d50 svgShape"></path><rect width="189.8" height="1.45" x="37.62" y="223.44" fill="#021b79" class="color1e3d50 svgShape"></rect></svg>