<svg xmlns="http://www.w3.org/2000/svg" enable-background="new 0 0 500 500" viewBox="0 0 500 500" id="Manwinningreferralprogram"><g fill="#000000" class="color000000 svgShape"><path fill="#3a3d46" d="M323.245 423.69c-13.153 0-23.852-10.711-23.852-23.876V129.186c0-13.153 10.699-23.853 23.852-23.853h118.76c13.153 0 23.854 10.7 23.854 23.853v270.628c0 13.165-10.7 23.875-23.854 23.875h-118.76z" class="color3a4146 svgShape"></path><path fill="#ffffff" d="M441.997 111.85h-15.831a2.667 2.667 0 0 0-2.652 2.66v.902c0 4.155-3.377 7.523-7.531 7.523h-66.728a7.498 7.498 0 0 1-7.505-7.505v-.92a2.669 2.669 0 0 0-2.66-2.66h-15.823c-9.546 0-17.343 7.805-17.343 17.343v270.643c0 9.573 7.744 17.325 17.325 17.325h118.748c9.546 0 17.343-7.805 17.343-17.343V129.193c0-9.538-7.797-17.343-17.343-17.343z" class="colorffffff svgShape"></path><path fill="#f3f8fd" d="M320.195 324.6c0-1.24.5-2.37 1.32-3.18.82-.82 1.94-1.32 3.18-1.32h118.75c2.49 0 4.5 2.01 4.5 4.5 0 1.24-.5 2.36-1.32 3.18a4.44 4.44 0 0 1-3.18 1.32h-118.75c-2.48 0-4.5-2.02-4.5-4.5zM447.945 342.57c0 1.24-.5 2.37-1.32 3.18a4.48 4.48 0 0 1-3.18 1.32h-118.75c-2.48 0-4.5-2.02-4.5-4.5 0-1.25.5-2.37 1.32-3.18.82-.82 1.94-1.32 3.18-1.32h118.75c2.49 0 4.5 2.01 4.5 4.5zM388.45 356.035H324.7a4.5 4.5 0 0 0 0 9h63.75a4.5 4.5 0 0 0 0-9z" class="colorf3f6fd svgShape"></path><path fill="#4068fe" d="M352.394 398.069a9.268 9.268 0 0 0 9.268 9.268h47.907a9.268 9.268 0 1 0 0-18.536h-47.907a9.268 9.268 0 0 0-9.268 9.268z" class="colorfe4c40 svgShape"></path><path fill="#ffffff" d="M371.085 401.008a.6.6 0 0 1-.25-.489c0-.332.27-.592.603-.592a.59.59 0 0 1 .374.114c.603.478 1.247.748 2.037.748.79 0 1.289-.374 1.289-.914v-.02c0-.52-.292-.801-1.642-1.113-1.549-.374-2.422-.831-2.422-2.171v-.021c0-1.247 1.04-2.11 2.484-2.11.914 0 1.652.24 2.307.676.146.083.28.26.28.509 0 .332-.27.592-.602.592a.619.619 0 0 1-.333-.093c-.56-.364-1.1-.551-1.673-.551-.748 0-1.185.384-1.185.862v.021c0 .561.333.81 1.736 1.143 1.538.374 2.328.925 2.328 2.13v.021c0 1.362-1.07 2.172-2.598 2.172a4.53 4.53 0 0 1-2.733-.914zM377.6 398.202v-.02c0-2.068 1.547-3.762 3.75-3.762 1.122 0 1.86.332 2.495.82a.64.64 0 0 1 .249.51c0 .353-.28.623-.634.623a.626.626 0 0 1-.385-.125c-.498-.405-1.04-.654-1.735-.654-1.382 0-2.4 1.143-2.4 2.566v.021c0 1.424 1.008 2.577 2.4 2.577.77 0 1.289-.249 1.819-.696a.58.58 0 0 1 .384-.145c.322 0 .602.27.602.592a.614.614 0 0 1-.207.457c-.686.603-1.466.977-2.64.977-2.12 0-3.699-1.652-3.699-3.741zM385.173 400.987l2.702-6.027c.145-.322.405-.52.768-.52h.063c.363 0 .613.198.759.52l2.7 6.027a.599.599 0 0 1-.53.883c-.3 0-.508-.176-.622-.447l-.592-1.361h-3.533l-.614 1.403a.615.615 0 0 1-.593.405.585.585 0 0 1-.591-.592c0-.094.03-.187.083-.29zm4.758-2.058-1.277-2.94-1.278 2.94h2.555zM393.62 395.147a.64.64 0 0 1 .643-.644h.136c.312 0 .489.155.665.374l3.637 4.707v-4.468c0-.343.28-.624.623-.624.354 0 .634.28.634.624v6.11a.62.62 0 0 1-.623.634h-.052c-.302 0-.488-.156-.665-.385l-3.741-4.842v4.614c0 .343-.28.623-.623.623a.627.627 0 0 1-.634-.623v-6.1z" class="colorffffff svgShape"></path><path fill="#acd5fe" d="M343.668 223.224a19.35 19.35 0 0 0-.866-1.797c-5.348-10.042-16.155-10.242-27.995-12.683-.088.666-10.962 8.444-11.994 8.444 0 0-25.066-15.856-25.887-17.188-.82-1.342.322-11.86-4.028-12.671-1.353.188-1.83 9.254-1.83 9.254s-3.316-4.526-6.803-8.427v7.729c.597.756.978 1.22.978 1.22s-.367-.398-.978-1.034v15.852c2.539.905 4.498 1.561 5.005 1.725.144.045.477.289.977.71 5.858 4.905 34.752 33.188 49.598 30.547 10.807-1.92 18.02-10.518 21.615-15.978.01-.01.01-.022.022-.033 1.742-2.674 2.618-4.583 2.618-4.583a15.831 15.831 0 0 0-.432-1.087z" class="colorfec9ac svgShape"></path><g opacity=".5" fill="#000000" class="color000000 svgShape"><path fill="#90c7ff" d="M270.247 214.359c5.858 4.904 34.752 33.187 49.598 30.546 10.807-1.92 18.02-10.519 21.615-15.978.01-.01.01-.022.022-.033a37.376 37.376 0 0 0 2.186-5.67c.4-1.331.71-2.685.943-4.06a23.471 23.471 0 0 1-1.809 2.263c-7.035 7.966-18.452 11.55-29.17 10.807-11.685-.81-22.636-6.091-32.378-12.572-2.885-1.92-5.759-3.983-9.077-4.926a11.358 11.358 0 0 0-1.93-.377z" class="colorffab90 svgShape"></path></g><path fill="#4068fe" d="m344.235 229.931-5.083 28.056h84.58l-2-20.65-1.164-12.007c8.867-2.792 18.896-30.06 18.896-30.06s-6.257-9.167-17.878-20.257c-9.36-8.942-21.143-15.058-33.931-17.077-11.94-1.888-23.757-.24-34.255 6.303-1.475.918-2.999 2.019-4.553 3.26-16.849 13.461-37.128 43.662-37.128 43.662 14.305 19.844 32.516 18.77 32.516 18.77z" class="colorfe4c40 svgShape"></path><path fill="#1f4aea" d="m344.235 229.931-5.084 28.056h84.58l-1.999-20.65a70.5 70.5 0 0 1-6.57 1.188c-9.667 1.262-19.822.224-28.498-4.233-8.966-4.602-15.85-12.573-20.797-21.359-4.942-8.785-8.126-18.427-11.28-28.005-1.912-5.808-3.829-11.62-5.74-17.428-16.849 13.46-37.128 43.66-37.128 43.66 14.305 19.845 32.516 18.771 32.516 18.771z" class="colorea241f svgShape"></path><path fill="#acd5fe" d="M367.178 158.498c1.2 3.551 5.651 5.993 9.024 6.919 3.2.879 6.588.952 9.798.105 7.23-1.91 7.409-6.388 7.409-6.388-1.22-.394-1.816-3.51-2.094-6.861-.353-4.226-.216-8.825-.216-8.825h-19.201s-.563 5.836-1.173 10.33a6.144 6.144 0 0 1-.937 2.525 5.713 5.713 0 0 1-1.705 1.72c-.52.338-.905.475-.905.475z" class="colorfec9ac svgShape"></path><g opacity=".5" fill="#000000" class="color000000 svgShape"><path fill="#90c7ff" d="M369.788 156.303c6.562 2.373 14.307 1.6 19.864-2.61a18.633 18.633 0 0 0 1.663-1.42c-.353-4.226-.216-8.825-.216-8.825h-19.201s-.563 5.836-1.173 10.33a6.144 6.144 0 0 1-.937 2.525z" class="colorffab90 svgShape"></path></g><path fill="#ffffff" d="M366.015 164.085c.115-.105.698.384 1.88 1.293 1.186.895 3.005 2.22 5.725 3.391 4.561 2.074 9.853 2.443 14.675 1.086 2.884-.728 4.827-1.784 5.866-2.763 1.056-.968 1.32-1.703 1.49-1.633.105.015.11.902-.905 2.18-.993 1.281-3.097 2.633-6.089 3.511-5.118 1.441-10.74 1.05-15.59-1.154-2.836-1.36-4.633-2.916-5.705-4.019-1.069-1.12-1.45-1.8-1.347-1.892zM337.138 222.132c-.047.227-2.381.1-6.611-1.758a37.17 37.17 0 0 1-9.58-6.628c-3.228-3.3-4.17-5.44-3.968-5.567.28-.206 1.624 1.597 4.895 4.593a35.826 35.826 0 0 0 9.237 6.39c3.962 2.007 6.122 2.629 6.027 2.97zM423.134 213.835c-.205-.25 1.074-1.436 3.271-4.085a30.754 30.754 0 0 0 4.766-7.297c1.54-3.074 2.111-4.722 2.43-4.633.248.058.17 1.879-1.212 5.203a32.096 32.096 0 0 1-4.971 7.613c-2.49 2.605-4.126 3.409-4.284 3.2z" class="colorffffff svgShape"></path><path fill="#acd5fe" d="M365.456 136.963c.517 3.677 1.264 7.555 3.775 10.29 2.23 2.425 5.584 3.58 8.876 3.735 1.787.086 3.597-.098 5.286-.69 3.424-1.195 6.073-3.918 8.452-6.647a63.846 63.846 0 0 0 2.573-3.1c.849-1.101 1.91-2.008 3.047-2.807l.016-.01c.908-.639 1.649-1.49 2.35-2.34.563-.677 1.132-1.395 1.275-2.252.132-.775-.109-1.585-.557-2.223a4.452 4.452 0 0 0-.988-.982c.735-3.976.31-8.182-1.27-11.91-2.103-4.964-6.222-9.038-11.215-11.078l-18.598-2.918c-.08 2.78-1.27 5.383-2.114 8.026-2.562 7.975-2.068 16.604-.908 24.906z" class="colorfec9ac svgShape"></path><path fill="#445ec1" d="M359.094 109.374a13.181 13.181 0 0 0 5.74-5.075c.555-.907 1.005-1.885 1.505-2.82.338-.626.696-1.238 1.125-1.8 1.372-1.787 3.398-2.99 5.543-3.658 2.152-.669 4.417-.844 6.668-.873 3.502-.034 7.054.296 10.353 1.47 3.306 1.175 6.359 3.25 8.286 6.176 1.378 2.096 2.131 4.53 2.863 6.928.478 1.583.956 3.172 1.315 4.783.24 1.07.429 2.145.527 3.236.254 2.736-.162 5.54-1.378 8.004-.81 1.643-1.759 3.172-2.209 5.064-.267-.935-1.14-1.61-2.082-1.843-1.203-.302-2.49.014-3.622.45-.851.33-2.8 1.653-2.8 1.653s-1.969-5.795-2.609-7.413c-1.758-4.403-6.633-7.343-11.345-6.844.668.549 1.864.584 2.04 1.428l-1.168.098c-1.33.12-2.659-.091-3.925-.513-1.16-.373-2.455-.506-3.411-.077-1.442.633-2.807 1.526-4.36 1.73-1.872.239-3.764-.584-5.15-1.864-.759-.701-1.374-1.53-1.906-2.416v-5.824z" class="colorc16244 svgShape"></path><g opacity=".5" fill="#000000" class="color000000 svgShape"><path fill="#90c7ff" d="M394.55 136.359c-.041.422.296.844.711.893.204.028.401-.021.591-.099.661-.26 1.168-.809 1.604-1.371.795-1.02 1.498-2.202 1.526-3.496.007-.408-.063-.844-.337-1.146-.387-.43-1.07-.457-1.632-.303-1.133.303-2.068 1.238-2.385 2.364l-.077 3.158z" class="colorffab90 svgShape"></path></g><path fill="#445ec1" d="M367.844 109.708c1.4.872 3.214.57 4.811.155 2.49-.647 5.015-1.512 7.568-1.189 2.532.31 4.875 1.864 6.162 4.059.316.548.577 1.132.956 1.639.929 1.23 2.497 1.835 4.03 1.948 1.541.112 3.067-.211 4.573-.535 1.477-.31 2.947-.626 4.417-.942.71-.155 1.406-.303 2.13-.338-.358-1.61-.836-3.2-1.314-4.783-.732-2.398-1.484-4.832-2.863-6.928-1.927-2.926-4.98-5.001-8.286-6.176-3.299-1.174-6.85-1.505-10.353-1.47-2.251.029-4.516.205-6.668.873-2.145.668-4.171 1.87-5.543 3.657-.429.563-.787 1.175-1.125 1.8-.127 1.042-.338 2.09-.415 3.138-.148 1.906.295 4.086 1.92 5.092z" class="colorc16244 svgShape"></path><path fill="#2a324f" d="M385.062 126.646c.074-.044.086-.209-.032-.482-.12-.268-.377-.65-.869-1.004a3.772 3.772 0 0 0-2.951-.464c-.576.185-.938.47-1.134.689-.196.224-.235.385-.176.452.134.158.58-.152 1.516-.324a2.923 2.923 0 0 1 2.298.362c.838.45 1.168.883 1.348.771zM373.006 124.227c.113-.11-.138-.674-1.148-1.212a5.639 5.639 0 0 0-2.797-.438c-1.124.204-1.536.665-1.46.808.083.185.586.057 1.542.032a4.791 4.791 0 0 1 2.381.372c.904.317 1.344.592 1.482.438zM376.938 138.587c-.071-.065-.309.125-.753.435-.221.148-.51.322-.848.393-.322.07-.782.01-1.018-.253-.429-.387-.122-1.552-.015-2.458.15-.949.35-1.89.594-2.82.517-2.207.846-3.3.658-3.374-.154-.064-.79.924-1.474 3.16a29.97 29.97 0 0 0-.808 4.378 3.17 3.17 0 0 0 .014.84c.05.301.189.629.437.872.626.544 1.326.483 1.805.327.49-.181.783-.464.988-.69.397-.466.485-.753.42-.81zM375.597 144.048c-.021.08.156.229.572.361.413.128 1.075.258 1.957.16 1.48-.224 2.896-.896 3.941-2.027.584-.702.782-1.427.757-1.892-.023-.472-.187-.666-.266-.647-.21.025-.039.882-1.12 1.977-.87.947-2.139 1.566-3.436 1.755-1.536.282-2.357.094-2.405.313z" class="color4f2d2a svgShape"></path><ellipse cx="370.027" cy="129.942" fill="#2a324f" rx=".967" ry="1.737" class="color4f2d2a svgShape"></ellipse><ellipse cx="381.357" cy="130.896" fill="#2a324f" rx=".967" ry="1.737" class="color4f2d2a svgShape"></ellipse><path fill="#acd5fe" d="M407.773 254.598c2.328.138 5.66-.272 9.473-1.142 12.534-2.857 30.34-10.681 35.568-20.406a21.015 21.015 0 0 0 1.75-4.272c3.026-10.588-15.923-31.39-15.923-31.39-4.755 10.156-8.6 20.004-14.095 25.158.485.384 3.838 5.387 4.871 7.256.021.047.032.085.024.123.325 2.377-19.99 13.745-19.99 13.745s-2.24.578-4.615-.969c-2.383-1.546-6.856-4.507-8.136-2.431-1.271 2.084 9.094 8.198 4.853 6.495-3.51-1.406-11.81-2.881-14.953-2.018-.646.17-1.086.446-1.195.844-.694 2.32 12.375 8.395 22.368 9.007z" class="colorfec9ac svgShape"></path><path fill="#3660ff" d="M276.498 172.468v5.41c0 2.095-1.695 3.8-3.8 3.8h-62.662a3.805 3.805 0 0 1-3.8-3.8v-5.41c0-2.095 1.706-3.8 3.8-3.8h62.662c2.105 0 3.8 1.705 3.8 3.8zM271.516 181.682v32.168a5.233 5.233 0 0 1-5.232 5.241h-49.998a5.234 5.234 0 0 1-5.231-5.242v-32.167h60.46z" class="colorffc536 svgShape"></path><path fill="#1244ff" d="M211.052 181.678h60.468v4.135h-60.468z" class="colorffb612 svgShape"></path><g opacity=".1" fill="#000000" class="color000000 svgShape"><path fill="#2a2c33" d="M233.939 168.668h14.695v50.454h-14.695z" class="color2a2e33 svgShape"></path></g><path d="M238.758 169.467c-.562-.232-1.08-.653-1.55-1.035-.208-.168-.403-.326-.58-.449-4.393-3.017-7.722-7.632-9.138-12.66-.347-1.236-1.27-5.428 1.463-7.454.729-.54 1.626-.826 2.596-.826 1.474 0 3.074.675 4.178 1.761 1.696 1.669 2.448 4.015 3.02 6.083a84.642 84.642 0 0 1 1.768 7.847c.34-1.638.78-3.263 1.317-4.86 1.961-5.84 5.201-11.24 9.372-15.62 1.072-1.124 2.051-1.67 2.994-1.67.253 0 .504.04.746.12.891.293 1.559 1.091 1.983 2.373.894 2.7.654 5.894-.676 8.996-1.251 2.911-3.245 5.36-5.032 7.37a74.633 74.633 0 0 1-9.974 9.332c-.039.14-.09.264-.154.378l-.258.459-.282-.16c-.124.08-.265.138-.422.172l-.814.6-.557-.757zm-7.205-21.134c-.701 0-1.317.193-1.83.573-2.071 1.535-1.282 5.032-.99 6.068 1.335 4.743 4.48 9.096 8.625 11.945.207.142.43.32.661.51.466.377 1.045.847 1.47.916.06.01.114.016.166.02l.183-.138c.009-.127.009-.29.008-.46a8.268 8.268 0 0 1 .032-.943l.025-.234c-.064-.35-.137-.687-.198-.968a12.328 12.328 0 0 1-.138-.691 83.181 83.181 0 0 0-2.066-9.7c-.527-1.907-1.213-4.063-2.68-5.506-.872-.859-2.125-1.392-3.268-1.392zm9.654 18.213c.033.195.06.378.081.55a73.287 73.287 0 0 0 8.965-8.512c1.718-1.933 3.633-4.279 4.81-7.02 1.207-2.81 1.434-5.68.639-8.081-.289-.872-.68-1.394-1.162-1.553a1.068 1.068 0 0 0-.341-.055c-.563 0-1.257.427-2.06 1.27-4.042 4.243-7.182 9.479-9.084 15.14a40.51 40.51 0 0 0-1.848 8.261z" fill="#000000" class="color000000 svgShape"></path><path d="M245.035 219.122c-1.884-10.154-3.12-16-3.657-21.915-.453-4.968-.419-10.052-.386-14.968l.095-14.506-1.291-.012-.095 14.51c-.033 4.946-.067 10.062.39 15.094.535 5.87 1.745 11.674 3.585 21.797h1.36z" fill="#000000" class="color000000 svgShape"></path><path fill="#0575e6" d="M192.816 79.916v28.22a3.599 3.599 0 0 1-3.605 3.605h-38.362l-5.75 8.342-5.751-8.342h-5.408a3.599 3.599 0 0 1-3.606-3.605v-28.22a3.599 3.599 0 0 1 3.606-3.605h55.271a3.599 3.599 0 0 1 3.605 3.605z" class="color64d3ff svgShape"></path><path fill="#ffffff" d="M166.334 90.193h-.001c-1.106 0-2.125-.664-2.869-1.87-.537-.871-1.204-1.339-1.89-1.339-.688 0-1.354.468-1.878 1.317-.755 1.223-1.773 1.887-2.88 1.887-1.106 0-2.125-.665-2.87-1.87-.523-.85-1.19-1.317-1.876-1.317h-.001c-.685 0-1.35.465-1.875 1.312-.754 1.218-1.772 1.88-2.875 1.88h-.003c-1.105 0-2.124-.665-2.868-1.87-.527-.854-1.193-1.322-1.88-1.322-.686 0-1.351.465-1.875 1.311-.753 1.22-1.771 1.881-2.876 1.881h-.002c-1.105 0-2.124-.665-2.868-1.87a.583.583 0 0 1 .993-.612c.523.848 1.19 1.316 1.876 1.316h.001c.686 0 1.351-.466 1.874-1.312.754-1.218 1.772-1.88 2.877-1.88h.001c1.106 0 2.124.665 2.868 1.87.527.854 1.194 1.322 1.88 1.322h.002c.684 0 1.35-.466 1.874-1.312.754-1.218 1.772-1.88 2.876-1.88h.002c1.105 0 2.124.665 2.868 1.87.524.849 1.19 1.317 1.877 1.317s1.353-.468 1.877-1.317c.755-1.223 1.774-1.887 2.88-1.887 1.107 0 2.126.664 2.87 1.87.537.871 1.204 1.339 1.89 1.34h.001c.686 0 1.351-.467 1.874-1.313.754-1.218 1.772-1.88 2.876-1.88h.002c1.106 0 2.125.665 2.869 1.87.526.854 1.193 1.322 1.88 1.322.685 0 1.351-.466 1.875-1.312.754-1.219 1.772-1.88 2.876-1.88h.002c1.105 0 2.124.665 2.868 1.87.524.849 1.19 1.317 1.877 1.317s1.353-.468 1.877-1.317a.583.583 0 0 1 .993.612c-.745 1.206-1.763 1.87-2.87 1.87-1.106 0-2.125-.664-2.87-1.87-.523-.848-1.19-1.316-1.876-1.316h-.001c-.685 0-1.35.465-1.875 1.311-.753 1.22-1.771 1.881-2.875 1.881h-.003c-1.105 0-2.124-.665-2.868-1.87-.527-.854-1.193-1.322-1.88-1.322-.686 0-1.351.465-1.874 1.311-.754 1.22-1.772 1.881-2.877 1.881zM137.818 101.837c-1.13.03-2.126-.664-2.87-1.87a.584.584 0 0 1 .992-.612c.523.848 1.19 1.316 1.876 1.316h.001c.686 0 1.351-.466 1.874-1.311.754-1.22 1.772-1.881 2.876-1.881h.002c1.106 0 2.124.665 2.868 1.87.527.854 1.194 1.322 1.88 1.322h.002c.684 0 1.35-.466 1.874-1.312.754-1.218 1.772-1.88 2.876-1.88h.002c1.105 0 2.124.665 2.868 1.87.524.849 1.19 1.317 1.877 1.317s1.353-.468 1.877-1.317c.755-1.223 1.774-1.887 2.88-1.887.75 0 1.46.305 2.07.876.489.457.383 1.265-.179 1.628l-.013-.022c-.524-.848-1.19-1.316-1.878-1.316-.687 0-1.353.468-1.877 1.317-.755 1.223-1.773 1.887-2.88 1.887-1.106 0-2.125-.665-2.87-1.87-.523-.85-1.19-1.317-1.876-1.317h-.001c-.685 0-1.35.465-1.875 1.312-.754 1.218-1.772 1.88-2.875 1.88h-.003c-1.105 0-2.124-.665-2.868-1.87-.527-.854-1.193-1.322-1.88-1.322-.686 0-1.351.465-1.875 1.311-.754 1.22-1.771 1.881-2.875 1.881z" class="colorffffff svgShape"></path><path fill="#719bc6" d="M268.151 101.067v28.22a3.599 3.599 0 0 0 3.606 3.605h38.362l5.75 8.342 5.75-8.342h5.41a3.599 3.599 0 0 0 3.605-3.605v-28.22a3.599 3.599 0 0 0-3.606-3.605h-55.271a3.599 3.599 0 0 0-3.606 3.605z" class="color71c687 svgShape"></path><path fill="#ffffff" d="M294.634 111.345h.001c1.106-.001 2.124-.665 2.868-1.87.538-.872 1.204-1.34 1.891-1.34s1.354.468 1.878 1.317c.754 1.223 1.773 1.887 2.88 1.887 1.106 0 2.125-.664 2.87-1.87.523-.849 1.19-1.317 1.876-1.317h.001c.685 0 1.35.466 1.874 1.312.754 1.219 1.772 1.88 2.876 1.88h.002c1.106 0 2.125-.665 2.869-1.87.526-.854 1.193-1.322 1.88-1.322.686 0 1.351.466 1.874 1.312.754 1.219 1.772 1.88 2.877 1.88h.001c1.106 0 2.125-.664 2.868-1.87a.583.583 0 0 0-.993-.612c-.523.848-1.19 1.316-1.875 1.316h-.001c-.686 0-1.351-.465-1.875-1.311-.753-1.219-1.771-1.881-2.876-1.881h-.001c-1.106 0-2.125.665-2.869 1.87-.526.854-1.193 1.322-1.88 1.322-.686 0-1.351-.465-1.875-1.311-.754-1.219-1.772-1.881-2.876-1.881h-.002c-1.105 0-2.124.665-2.868 1.87-.524.85-1.19 1.317-1.878 1.317-.686 0-1.352-.468-1.876-1.316-.755-1.223-1.774-1.887-2.88-1.887-1.107 0-2.126.664-2.87 1.87-.538.87-1.204 1.338-1.89 1.339h-.001c-.686 0-1.352-.466-1.875-1.312-.753-1.219-1.771-1.881-2.875-1.881h-.003c-1.105 0-2.124.665-2.868 1.87-.527.854-1.193 1.322-1.88 1.322-.686 0-1.351-.465-1.875-1.311-.754-1.22-1.772-1.881-2.876-1.881h-.002c-1.106 0-2.124.665-2.868 1.87-.524.85-1.19 1.317-1.877 1.317s-1.354-.468-1.877-1.317a.583.583 0 0 0-.993.613c.744 1.206 1.763 1.87 2.87 1.87 1.106 0 2.125-.664 2.87-1.87.523-.849 1.19-1.317 1.876-1.317h.001c.685 0 1.35.466 1.874 1.312.754 1.219 1.772 1.88 2.876 1.88h.002c1.106 0 2.125-.665 2.869-1.87.526-.854 1.193-1.322 1.88-1.322.685 0 1.351.466 1.874 1.312.754 1.219 1.772 1.88 2.877 1.88zM323.15 122.989c1.13.03 2.126-.664 2.87-1.87a.584.584 0 0 0-.993-.613c-.523.848-1.19 1.316-1.875 1.316h-.001c-.686 0-1.351-.465-1.875-1.311-.753-1.219-1.771-1.881-2.875-1.881h-.002c-1.106 0-2.125.665-2.869 1.87-.526.854-1.193 1.322-1.88 1.322-.686 0-1.351-.465-1.875-1.311-.754-1.219-1.772-1.881-2.876-1.881h-.002c-1.105 0-2.124.665-2.868 1.87-.524.85-1.19 1.317-1.878 1.317-.686 0-1.352-.468-1.876-1.316-.755-1.223-1.774-1.888-2.88-1.888-.75 0-1.46.305-2.07.877-.489.456-.383 1.264.178 1.628l.014-.022c.524-.849 1.19-1.316 1.877-1.316s1.354.467 1.878 1.316c.754 1.223 1.773 1.887 2.88 1.887 1.106 0 2.125-.664 2.87-1.87.523-.849 1.19-1.317 1.876-1.317h.001c.685 0 1.35.466 1.874 1.312.754 1.219 1.772 1.88 2.876 1.88h.002c1.106 0 2.125-.665 2.869-1.87.526-.854 1.193-1.322 1.88-1.322.686 0 1.351.466 1.874 1.312.755 1.219 1.772 1.88 2.876 1.88z" class="colorffffff svgShape"></path><path fill="#d1e4f8" d="M294.144 287.923c.004-.287.365-.542 1.089-.652l1.836.024c.72.129 1.074.393 1.07.687-.003.294-.364.542-1.087.659l-1.837-.024c-.72-.136-1.075-.393-1.07-.694zM286.15 287.824c.003-.287.364-.542 1.088-.652l1.838.022c.72.128 1.075.392 1.071.686-.003.294-.364.542-1.088.66l-1.837-.023c-.721-.135-1.076-.392-1.072-.693zM278.152 287.73c.003-.287.364-.542 1.088-.653l1.838.022c.722.127 1.076.39 1.073.685s-.364.542-1.088.66l-1.838-.022c-.722-.134-1.077-.39-1.073-.692zM270.147 287.642c.003-.287.363-.543 1.088-.654l1.839.02c.721.127 1.076.39 1.073.685-.003.294-.364.542-1.088.66l-1.838-.02c-.723-.134-1.078-.39-1.074-.691zM262.143 287.559c.003-.287.364-.543 1.089-.655l1.84.02c.721.126 1.076.389 1.073.683s-.363.543-1.088.661l-1.839-.018c-.722-.134-1.078-.39-1.075-.691zM254.138 287.481c.002-.287.363-.543 1.088-.655l1.84.018c.722.125 1.077.388 1.075.682-.003.295-.364.543-1.088.663l-1.84-.018c-.723-.133-1.078-.389-1.075-.69zM246.131 287.41c.003-.288.363-.544 1.088-.657l1.84.017c.722.125 1.078.387 1.075.682-.002.294-.362.543-1.087.663l-1.84-.016c-.723-.133-1.079-.388-1.076-.69zM238.126 287.344c.002-.287.362-.543 1.087-.656l1.84.014c.722.125 1.078.387 1.075.681-.002.294-.362.544-1.086.664l-1.84-.014c-.722-.132-1.078-.387-1.076-.689zM230.13 287.287c.002-.287.362-.544 1.086-.658l1.838.013c.722.124 1.078.386 1.075.68-.001.294-.36.544-1.085.665l-1.837-.013c-.723-.131-1.079-.386-1.077-.687zM222.128 287.238c.002-.287.361-.544 1.085-.66l1.839.012c.722.123 1.078.384 1.076.678s-.36.545-1.084.667l-1.839-.011c-.722-.13-1.078-.385-1.077-.686zM214.128 287.2c.001-.288.36-.545 1.084-.661l1.839.008c.722.122 1.078.383 1.077.677-.001.295-.36.545-1.083.668l-1.839-.008c-.723-.13-1.08-.383-1.078-.685zM206.128 287.173c0-.287.36-.545 1.083-.662l1.838.005c.723.121 1.08.381 1.079.676 0 .294-.36.545-1.083.67l-1.838-.006c-.723-.128-1.08-.382-1.08-.683zM198.127 287.163c0-.287.358-.546 1.082-.665l1.838.001c.723.12 1.08.38 1.08.674s-.358.546-1.08.672l-1.84-.002c-.723-.126-1.08-.379-1.08-.68zM190.125 287.174c0-.287.356-.547 1.08-.668l1.839-.004c.723.118 1.081.376 1.082.67 0 .294-.357.547-1.08.675l-1.838.004c-.724-.125-1.083-.376-1.083-.677zM182.12 287.215c-.002-.287.354-.548 1.077-.672l1.84-.012c.724.115 1.084.372 1.085.666.002.294-.354.549-1.077.68l-1.84.011c-.724-.121-1.084-.371-1.086-.673zM174.115 287.308c-.004-.287.35-.551 1.072-.68l1.84-.025c.725.109 1.085.363 1.089.657.003.295-.352.552-1.072.688l-1.837.025c-.725-.116-1.087-.364-1.092-.665zM166.116 287.519c-.013-.287.335-.558 1.055-.7l1.844-.06c.728.096 1.093.343 1.1.637.007.295-.344.558-1.06.708l-1.833.06c-.725-.104-1.093-.344-1.106-.645zM161.023 291.336c-.284-.019-.525-.393-.578-1.139.063-.63.116-1.237.283-1.927l.07-.153c.035-.082.07-.161.113-.221a1.12 1.12 0 0 1 .27-.304c.303-.184.644-.11.74-.047.122.073.187.169.204.277.062.212-.243.457-.158.603a.178.178 0 0 0 .04.067c.006.01.016.011.026.012l-.003.107c-.124.502-.19 1.12-.246 1.71-.188.694-.458 1.036-.76 1.015zM160.78 299.33c-.287-.002-.54-.363-.646-1.09l.033-1.843c.132-.721.398-1.072.692-1.064.294.008.54.372.653 1.095l-.033 1.832c-.14.72-.398 1.074-.7 1.07zM160.764 307.311c-.287.002-.547-.354-.667-1.076l-.004-1.836c.118-.722.377-1.079.67-1.078.295 0 .548.357.675 1.077l.004 1.832c-.125.722-.377 1.08-.678 1.081zM160.84 315.31c-.286.004-.55-.351-.677-1.074l-.022-1.84c.11-.725.366-1.087.66-1.09s.55.352.685 1.074l.022 1.84c-.118.726-.366 1.087-.667 1.09zM160.972 323.313c-.287.005-.553-.348-.685-1.069l-.033-1.838c.107-.725.36-1.087.654-1.092.294-.006.553.348.691 1.068l.033 1.838c-.113.726-.359 1.088-.66 1.093zM161.142 331.315c-.287.006-.554-.346-.69-1.067l-.04-1.84c.102-.725.354-1.088.648-1.095.294-.007.554.346.697 1.066l.04 1.839c-.11.726-.354 1.09-.655 1.097zM161.344 339.314c-.287.007-.556-.344-.694-1.064l-.048-1.839c.1-.725.35-1.09.644-1.098.295-.007.556.344.701 1.063l.048 1.839c-.107.726-.35 1.09-.651 1.099zM161.816 347.077c0 .135-.079.264-.24.375l-.068.046-.315-.416c-.13-.172-.24-.45-.315-.831l-.055-1.839c.097-.726.346-1.091.64-1.1.294-.008.556.342.704 1.06l.055 1.837c-.055.385-.149.668-.27.848l-.376-.365c.161.112.24.243.24.385zM169.816 347.077c0 .287-.357.546-1.08.665h-1.839c-.723-.119-1.08-.378-1.08-.672 0-.295.357-.547 1.08-.673h1.838c.724.126 1.081.378 1.081.68zM177.816 347.077c0 .287-.357.546-1.08.665h-1.839c-.723-.119-1.08-.378-1.08-.672 0-.295.357-.547 1.08-.673h1.838c.724.126 1.081.378 1.081.68zM185.816 347.077c0 .287-.357.546-1.08.665h-1.839c-.723-.119-1.08-.378-1.08-.672 0-.295.357-.547 1.08-.673h1.838c.724.126 1.081.378 1.081.68zM193.816 347.077c0 .287-.357.546-1.08.665h-1.839c-.723-.119-1.08-.378-1.08-.672 0-.295.357-.547 1.08-.673h1.838c.724.126 1.081.378 1.081.68zM201.816 347.077c0 .287-.357.546-1.08.665h-1.839c-.723-.119-1.08-.378-1.08-.672 0-.295.357-.547 1.08-.673h1.838c.724.126 1.081.378 1.081.68zM209.816 347.077c0 .287-.357.546-1.08.665h-1.839c-.723-.119-1.08-.378-1.08-.672 0-.295.357-.547 1.08-.673h1.838c.724.126 1.081.378 1.081.68zM217.816 347.077c0 .287-.357.546-1.08.665h-1.839c-.723-.119-1.08-.378-1.08-.672 0-.295.357-.547 1.08-.673h1.838c.724.126 1.081.378 1.081.68zM225.816 347.077c0 .287-.357.546-1.08.665h-1.839c-.723-.119-1.08-.378-1.08-.672 0-.295.357-.547 1.08-.673h1.838c.724.126 1.081.378 1.081.68zM233.816 347.077c0 .287-.357.546-1.08.665h-1.839c-.723-.119-1.08-.378-1.08-.672 0-.295.357-.547 1.08-.673h1.838c.724.126 1.081.378 1.081.68zM241.214 346.46c.216 0 .416.202.552.61l.112.334-.671.225a3.038 3.038 0 0 1-.472.113h-1.838c-.723-.119-1.08-.378-1.08-.672 0-.295.357-.547 1.08-.673h1.838c.18.031.337.07.472.116l-.556.557c.138-.408.337-.61.563-.61zM241.214 338.46c.287 0 .547.358.666 1.081v1.839c-.12.722-.379 1.08-.673 1.08s-.546-.358-.673-1.08v-1.839c.127-.723.379-1.08.68-1.08zM241.214 330.46c.287 0 .547.358.666 1.081v1.839c-.12.722-.379 1.08-.673 1.08s-.546-.358-.673-1.08v-1.839c.127-.723.379-1.08.68-1.08zM241.214 322.46c.287 0 .547.358.666 1.081v1.839c-.12.722-.379 1.08-.673 1.08s-.546-.358-.673-1.08v-1.839c.127-.723.379-1.08.68-1.08zM241.214 314.46c.287 0 .547.358.666 1.081v1.839c-.12.722-.379 1.08-.673 1.08s-.546-.358-.673-1.08v-1.839c.127-.723.379-1.08.68-1.08zM241.214 306.46c.287 0 .547.358.666 1.081v1.839c-.12.722-.379 1.08-.673 1.08s-.546-.358-.673-1.08v-1.839c.127-.723.379-1.08.68-1.08zM241.214 298.46c.287 0 .547.358.666 1.081v1.839c-.12.722-.379 1.08-.673 1.08s-.546-.358-.673-1.08v-1.839c.127-.723.379-1.08.68-1.08zM241.214 290.46c.287 0 .547.358.666 1.081v1.839c-.12.722-.379 1.08-.673 1.08s-.546-.358-.673-1.08v-1.839c.127-.723.379-1.08.68-1.08zM241.214 282.46c.287 0 .547.358.666 1.081v1.839c-.12.722-.379 1.08-.673 1.08s-.546-.358-.673-1.08v-1.839c.127-.723.379-1.08.68-1.08zM241.214 274.46c.287 0 .547.358.666 1.081v1.839c-.12.722-.379 1.08-.673 1.08s-.546-.358-.673-1.08v-1.839c.127-.723.379-1.08.68-1.08zM241.214 266.46c.287 0 .547.358.666 1.081v1.839c-.12.722-.379 1.08-.673 1.08s-.546-.358-.673-1.08v-1.839c.127-.723.379-1.08.68-1.08zM241.214 258.46c.287 0 .547.358.666 1.081v1.839c-.12.722-.379 1.08-.673 1.08s-.546-.358-.673-1.08v-1.839c.127-.723.379-1.08.68-1.08zM241.214 250.46c.287 0 .547.358.666 1.081v1.839c-.12.722-.379 1.08-.673 1.08s-.546-.358-.673-1.08v-1.839c.127-.723.379-1.08.68-1.08zM241.214 242.46c.287 0 .547.358.666 1.081v1.839c-.12.722-.379 1.08-.673 1.08s-.546-.358-.673-1.08v-1.839c.127-.723.379-1.08.68-1.08zM241.214 234.46c.287 0 .547.358.666 1.081v1.839c-.12.722-.379 1.08-.673 1.08s-.546-.358-.673-1.08v-1.839c.127-.723.379-1.08.68-1.08zM241.214 226.46c.287 0 .547.358.666 1.081v1.839c-.12.722-.379 1.08-.673 1.08s-.546-.358-.673-1.08v-1.839c.127-.723.379-1.08.68-1.08zM241.214 222.125c.287 0 .547.03.666.09v.155c-.12.06-.379.09-.673.09s-.546-.03-.673-.09v-.154c.127-.06.379-.09.68-.09z" class="colord1dcf8 svgShape"></path><path fill="#acd5fe" d="M70.293 396.215h11.47v18.678h-11.47z" class="colorfec9ac svgShape"></path><path fill="#90c7ff" d="M81.763 398.87v6.605a44.682 44.682 0 0 1-11.47-.8v-5.805h11.47z" class="colorffab90 svgShape"></path><path fill="#021b79" d="M86.169 421.764h-36.42a3.083 3.083 0 0 1-2.237-.97 3.392 3.392 0 0 1-.935-2.343c0-1.384.822-2.62 2.059-3.114 3.832-1.503 10.535-3.174 11.95-4.657 1.898-1.978 5.211-5.29 7.58-5.121 2.37.168 3.786 4.132 7.42 6.446 2.578 1.641 5.363-2.413 6.75-4.904.472-.84 1.652-.85 2.096 0 2.945 5.567 1.737 14.663 1.737 14.663z" class="color2e363a svgShape"></path><path fill="#acd5fe" d="M112.335 396.215h11.47v18.678h-11.47z" class="colorfec9ac svgShape"></path><path fill="#90c7ff" d="M112.335 395.016v10.46c3.833.227 7.694-.04 11.47-.802v-9.658h-11.47z" class="colorffab90 svgShape"></path><path fill="#021b79" d="M107.928 421.764h36.42c.868 0 1.661-.366 2.237-.97a3.392 3.392 0 0 0 .935-2.343c0-1.384-.821-2.62-2.058-3.114-3.833-1.503-10.535-3.174-11.951-4.657-1.898-1.978-5.211-5.29-7.58-5.121-2.37.168-3.786 4.132-7.42 6.446-2.577 1.641-5.362-2.413-6.75-4.904-.472-.84-1.652-.85-2.096 0-2.945 5.567-1.737 14.663-1.737 14.663z" class="color2e363a svgShape"></path><path fill="#3a3d46" d="M62.52 399.943s9.097.723 16.794.38a64.336 64.336 0 0 0 3.117-.208c2.81-.28 5.167-.75 6.432-1.545 4.905-3.062 4.517-104.312 4.517-104.312s11.852 104.159 13.84 105.207c.722.379 3.595.225 7.118-.262 6.188-.868 14.39-2.792 16.45-4.689 2.177-2.005-.442-71.131-2.385-116.029-.713-16.667-1.346-30-1.599-35.313-.072-1.616-.117-2.493-.117-2.493l-4.2.172-62.36 2.601c-.57 1.69-.859 7.878-.94 16.893-.38 40.842 3.333 139.598 3.333 139.598z" class="color3a4146 svgShape"></path><path fill="#021b79" d="M59.187 260.345a315.898 315.898 0 0 1 43.434 7.688c7.75 1.943 15.511 4.21 22.404 8.248a40.89 40.89 0 0 1 3.378 2.204c-.713-16.667-1.346-30-1.599-35.313a58.894 58.894 0 0 0-2.204-1.228c-.695-.37-1.4-.732-2.114-1.093l-62.36 2.601c-.569 1.69-.858 7.878-.939 16.893zM82.43 400.115c2.81-.28 5.168-.75 6.433-1.545 4.905-3.062 4.517-104.312 4.517-104.312s11.852 104.159 13.84 105.207c.722.379 3.595.225 7.118-.262-5.484-36.063-19.368-118.252-23.18-118.342L82.43 400.115z" class="color2e363a svgShape"></path><path fill="#1f4aea" d="M124.372 196.923c.17.49.32.98.47 1.48-.24-.46-.4-.96-.47-1.48z" class="colorea241f svgShape"></path><path fill="#acd5fe" d="M196.613 183.794s.27 4.438-3.039 7.138c-3.31 2.7-6.664 2.382-6.664 2.382s-28.855 35.7-44.052 34.568a41.638 41.638 0 0 1-12.868-3.103c-8.83-3.694-14.843-9.833-14.34-14.453.725-6.64 2.155-11.719 2.155-11.719l22.8-5.775c.31-.008 4.631 7.585 5.62 8.988.377.547.849 1.058 1.432 1.435 2.11 1.361 28.259-10.073 32.821-14.941 4.569-4.877.622-2.734 4.88-6.243 4.257-3.51 6.728-8.451 7.871-7.568 1.14.87-1.777 5.39-1.777 5.39s13.76-1.498 12.803.437c-.97 1.937-7.642 3.464-7.642 3.464z" class="colorfec9ac svgShape"></path><g opacity=".5" fill="#000000" class="color000000 svgShape"><path fill="#90c7ff" d="M134.815 213.708a42.426 42.426 0 0 0-3.666 11.217c-8.83-3.694-14.843-9.833-14.34-14.454.724-6.64 2.155-11.718 2.155-11.718l22.8-5.775c.309-.008 4.631 7.585 5.62 8.988-2.341.58-4.54 1.784-6.375 3.347-2.664 2.265-4.641 5.254-6.194 8.395z" class="colorffab90 svgShape"></path></g><path fill="#67abf0" d="M142.954 195.28c-1.35.49-12.09 11.23-19.06 12.06 0 0 .05.37.13 1.03v.01c.71 5.98 4.17 35.65 2.15 35.08-2.26-.64-31.37 15.82-72.35-.64l7.13-32.91 1.32-6.09s-16.56-.18-22.18-11.06c0 0 1.05-7.89 5.82-16.41 3.86-6.91 10.18-14.22 20.36-18.11 22.75-8.67 51.25-4.24 64.52 10.75 2.93 3.3 5.22 6.41 6.99 9.24 6.31 10.01 6.23 16.67 5.17 17.05z" class="colorf0a667 svgShape"></path><path fill="#4f70ee" d="M142.954 195.28c-1.35.49-12.09 11.23-19.06 12.06 0 0 .05.37.13 1.03a96.35 96.35 0 0 1-6.15-18.33c2.83 1.7 6.51.48 9.34-1.22 4.32-2.6 7.97-6.28 10.57-10.59 6.31 10.01 6.23 16.67 5.17 17.05z" class="coloree984f svgShape"></path><path fill="#acd5fe" d="M80.61 154.82c1.126 3.336 5.305 5.628 8.472 6.497 3.004.825 6.186.895 9.2.099 6.788-1.793 6.956-5.998 6.956-5.998-1.147-.37-1.705-3.295-1.967-6.442-.33-3.967-.202-8.285-.202-8.285H85.04s-.529 5.479-1.102 9.698a5.769 5.769 0 0 1-.88 2.371 5.364 5.364 0 0 1-1.6 1.616 4.58 4.58 0 0 1-.85.445z" class="colorfec9ac svgShape"></path><g opacity=".5" fill="#000000" class="color000000 svgShape"><path fill="#90c7ff" d="M83.06 152.76c6.16 2.229 13.433 1.502 18.65-2.45a17.49 17.49 0 0 0 1.561-1.334c-.33-3.967-.202-8.285-.202-8.285H85.04s-.529 5.479-1.102 9.698a5.769 5.769 0 0 1-.88 2.371z" class="colorffab90 svgShape"></path></g><path fill="#acd5fe" d="M108.355 134.602c-.486 3.452-1.187 7.093-3.545 9.661-2.093 2.277-5.243 3.36-8.334 3.506-1.678.081-3.377-.091-4.963-.647-3.215-1.122-5.702-3.679-7.935-6.241a59.936 59.936 0 0 1-2.416-2.91c-.797-1.035-1.793-1.886-2.86-2.636a5.214 5.214 0 0 1-.016-.01c-.852-.599-1.548-1.398-2.206-2.196-.529-.636-1.063-1.31-1.198-2.115-.124-.728.103-1.488.524-2.087a4.18 4.18 0 0 1 .927-.923c-.69-3.733-.29-7.681 1.193-11.182 1.974-4.66 5.842-8.486 10.53-10.4l17.461-2.741c.076 2.61 1.192 5.055 1.985 7.536 2.406 7.487 1.942 15.59.853 23.385z" class="colorfec9ac svgShape"></path><path fill="#2a324f" d="M89.011 124.54c-.07-.041-.08-.196.03-.453.113-.252.354-.61.816-.943a3.541 3.541 0 0 1 2.771-.435c.54.174.88.441 1.065.646.183.21.22.362.165.425-.126.148-.545-.143-1.424-.304a2.745 2.745 0 0 0-2.157.34c-.787.423-1.097.829-1.266.724zM101.266 122.643c-.106-.102.13-.632 1.077-1.138a5.294 5.294 0 0 1 2.627-.41c1.056.191 1.442.623 1.37.758-.077.173-.55.053-1.447.03a4.499 4.499 0 0 0-2.236.35c-.848.297-1.261.555-1.39.41zM97.574 136.126c.067-.06.29.118.707.409.208.138.479.302.796.37.303.065.734.008.957-.24.402-.362.113-1.456.013-2.307a27.342 27.342 0 0 0-.557-2.647c-.486-2.073-.794-3.099-.618-3.168.144-.06.74.867 1.383 2.966a28.136 28.136 0 0 1 .76 4.111c.022.243.035.506-.014.79-.046.282-.177.59-.41.818-.587.51-1.245.453-1.695.306a2.285 2.285 0 0 1-.928-.646c-.373-.438-.455-.708-.394-.762zM98.834 141.253c.02.076-.147.216-.538.34-.388.12-1.009.242-1.837.15-1.39-.21-2.72-.842-3.7-1.903-.548-.66-.735-1.34-.711-1.777.021-.443.175-.625.25-.607.196.023.036.828 1.051 1.856.817.889 2.008 1.47 3.226 1.648 1.443.265 2.213.088 2.259.293z" class="color4f2d2a svgShape"></path><ellipse cx="104.063" cy="127.642" fill="#2a324f" rx=".908" ry="1.631" class="color4f2d2a svgShape"></ellipse><ellipse cx="92.49" cy="128.53" fill="#2a324f" rx=".908" ry="1.631" class="color4f2d2a svgShape"></ellipse><path fill="#acd5fe" d="m74.82 130.592 1.345 2.584a17.335 17.335 0 0 0 6.478 4.138c.471.166 1.004.314 1.449.079.637-.332.69-1.214.646-1.938-.079-1.66-.166-3.335-.655-4.924-.489-1.59-1.432-3.1-2.863-3.929-1.44-.838-3.414-.847-4.662.245-1.056.916-1.423 2.383-1.737 3.745z" class="colorfec9ac svgShape"></path><g opacity=".5" fill="#000000" class="color000000 svgShape"><path fill="#90c7ff" d="M81.037 134.034c.04.396-.277.793-.667.839a1.072 1.072 0 0 1-.555-.093c-.62-.244-1.096-.76-1.505-1.287-.746-.958-1.407-2.067-1.433-3.283-.007-.383.06-.792.317-1.076.363-.403 1.003-.43 1.532-.284 1.063.284 1.941 1.162 2.239 2.22l.072 2.964z" class="colorffab90 svgShape"></path></g><path fill="#021b79" d="M116.043 112.168c-.74 1.715-1.666 3.388-3.04 4.657-1.373 1.268-3.248 2.084-5.103 1.847-1.54-.202-2.893-1.088-4.322-1.715-.948-.425-2.23-.293-3.381.077-1.255.418-2.572.627-3.89.509l-1.157-.098c.174-.836 1.36-.871 2.021-1.415-4.67-.495-9.501 2.42-11.244 6.783-.635 1.604-2.587 7.348-2.587 7.348s-1.93-1.31-2.774-1.639c-1.123-.432-2.398-.745-3.59-.446-.935.23-1.8.9-2.064 1.827-.446-1.876-1.386-3.391-2.189-5.02-1.205-2.442-1.617-5.221-1.366-7.933.097-1.08.285-2.147.522-3.207.356-1.596.83-3.172 1.304-4.74.725-2.377 1.471-4.79 2.837-6.867 1.91-2.9 4.936-4.957 8.213-6.12 3.27-1.165 6.79-1.492 10.261-1.458 2.231.028 4.476.203 6.61.865 2.125.662 4.133 1.854 5.493 3.625.425.558.78 1.164 1.115 1.785.495.927.941 1.896 1.492 2.795a13.064 13.064 0 0 0 5.751 5.061c.419.188.865.363 1.164.718.628.74.314 1.869-.076 2.76z" class="color2e363a svgShape"></path><path fill="#3a3d46" d="M106.22 108.99c-1.387.863-3.186.563-4.768.152-2.468-.641-4.97-1.498-7.501-1.178-2.51.307-4.831 1.848-6.107 4.023-.314.543-.572 1.122-.948 1.624-.92 1.22-2.475 1.82-3.995 1.931-1.527.111-3.04-.21-4.531-.53a789.98 789.98 0 0 1-4.378-.934c-.704-.153-1.394-.3-2.113-.335.356-1.596.83-3.172 1.304-4.74.725-2.377 1.471-4.79 2.837-6.867 1.91-2.9 4.936-4.957 8.213-6.12 3.27-1.165 6.79-1.492 10.261-1.458 2.231.028 4.476.203 6.61.865 2.125.662 4.133 1.854 5.493 3.625.425.558.78 1.164 1.115 1.785.126 1.031.335 2.07.411 3.109.147 1.889-.292 4.05-1.903 5.047z" class="color3a4146 svgShape"></path><path fill="#4f70ee" d="M126.173 243.464c-2.26-.64-31.37 15.82-72.35-.64l.75-3.47 4.84-22.35c.7.02 2.28.07 4.46.15 6.33.24 17.76.71 27.74 1.14 5.76.23 11.04.45 14.57.6l.02-.02c1.03-1.66 2.13-3.31 3.57-4.62 1.45-1.32 3.66-3.53 5.23-2.37.85.62-.28 2.07-1.02 2.82-.73.74-1.66 1.27-2.44 1.98-.15.14-.3.3-.32.51-.05.53.74.66 1.27.57 4.12-.67 8.25-1.35 12.37-2.03.31 2.86.66 6.17.97 9.49.88 9.25 1.48 18.56.34 18.24z" class="coloree984f svgShape"></path><path fill="#4a4d58" d="M112 236.314h43.546c1.387 0 2.6-.935 2.953-2.276l1.463-5.548 6.821-25.95c.383-1.451-.497-2.625-1.948-2.625h-44.597c-.432 0-.856.098-1.264.286-.97.424-1.784 1.312-2.053 2.339l-7.876 29.942a3.055 3.055 0 0 0 2.954 3.832z" class="color4a5258 svgShape"></path><path fill="#3a3d46" d="M112 236.314h43.546c1.387 0 2.6-.935 2.953-2.276l1.463-5.548a39.49 39.49 0 0 1-4.271.505c-9.006.546-18.183-2.543-25.037-8.427-6.056-5.2-10.229-12.527-11.68-20.367-.97.424-1.784 1.312-2.053 2.339l-7.876 29.942a3.055 3.055 0 0 0 2.954 3.832z" class="color3a4146 svgShape"></path><ellipse cx="138.638" cy="218.581" fill="#3a3d46" rx="3.951" ry="3.331" transform="rotate(-71.665 138.638 218.58)" class="color3a4146 svgShape"></ellipse><path fill="#acd5fe" d="M130.163 218.414c-.49 2.72-2.16 5.06-4.33 6.81-.94.76-1.99 1.41-3.07 1.93-3.52 1.69-7.46 2.25-11.33 2.76-6.19 2.32-16.43 5.47-27.57 7.57-8.65 1.64-17.85 2.65-26.1 2.15-1.08-.07-2.15-.16-3.19-.28-3.61-.41-6.97-1.15-9.98-2.31-6.29-2.41-9.18-7.38-10.1-13.2-1.5-9.37 2.11-20.94 4.85-27.57.43-1.03.83-1.94 1.2-2.71 6 10.09 21.73 10.25 21.73 10.25l-1.56 7.21c-.5.9-.94 1.74-1.3 2.49-.97 2.07-1.27 3.47-.18 3.49h.18c.7.02 2.28.07 4.46.15 6.33.24 17.76.71 27.74 1.14 5.76.23 11.04.45 14.57.6l.02-.02c1.03-1.66 2.13-3.31 3.57-4.62 1.45-1.32 3.021-4.888 4.591-3.728.85.62.359 3.428-.381 4.178-.73.74.016 1.554-.764 2.264-.15.14-.3.3-.32.51-.05.53-.936.376-.406.286 4.12-.67 8.25-1.35 12.37-2.03l1.1-.18c1.52-.25 3.5-.27 4.12 1.14.23.53.19 1.15.08 1.72z" class="colorfec9ac svgShape"></path><g opacity=".5" fill="#000000" class="color000000 svgShape"><path fill="#90c7ff" d="m62.273 203.814-1.56 7.21c-.5.9-.94 1.74-1.3 2.49-.48-.57-1.17-1.04-1.81-1.46-1.12-.72-2.27-1.46-3.59-1.68-2.42-.41-4.74 1-6.74 2.44a92.583 92.583 0 0 0-12.78 11.03c-1.5-9.37 2.11-20.94 4.85-27.57.43-1.03.83-1.94 1.2-2.71 6 10.09 21.73 10.25 21.73 10.25z" class="colorffab90 svgShape"></path></g><path fill="#4f70ee" d="M69.334 189.77c-1.01 4.23-2.02 8.49-3.72 12.49-1.18 2.76-2.7 5.4-4.66 7.65l1.32-6.09s-16.56-.18-22.18-11.06c0 0 1.05-7.89 5.82-16.41l.24.04c.98 3.93 1.98 7.92 4.03 11.42 2.05 3.49 5.34 6.48 9.32 7.2 3.99.72 8.58-1.39 9.83-5.24z" class="coloree984f svgShape"></path><circle cx="225.198" cy="347.07" r="7.314" fill="#d1e4f8" class="colord1dcf8 svgShape"></circle><circle cx="180.881" cy="286.727" r="7.314" fill="#d1e4f8" class="colord1dcf8 svgShape"></circle></g></svg>