<svg xmlns="http://www.w3.org/2000/svg" enable-background="new 0 0 2000 2000" viewBox="0 0 2000 2000" id="Mansendingmarketingemail"><path fill="#c7ddf4" fill-rule="evenodd" d="M695.6 1774.3c77.8 26 163.5 39.9 253.4 39.2 15.2-.1 30.3-.7 45.2-1.6 14.9.7 30 1 45.2.9 89.9-.8 175.3-16.2 252.6-43.5 58.5 25.9 122.6 39.9 189.7 39.3 267-2.3 481.4-233.9 479-517.3-1.5-176.3-86.7-331.2-215-422.4 31.2-68.6 128.9-285.4 128.2-366.7-2.4-283.4-375.4-18.9-568.3-369.3-77.3-140.4-237.3 57.3-324.6 136.9-119.2 108.6-234.4-10.6-326.9-131.3C411.6-177.6 172.6 372.3 175 655.7c.7 81.3 19.1 158.1 51.5 226.1-126.8 93.4-209.3 249.7-207.7 426 2.4 283.4 220.8 511.3 487.8 509 67.2-.5 131-15.6 189-42.5z" clip-rule="evenodd" opacity=".42" class="colorc7e9f4 svgShape"></path><path fill="#0e64ba" fill-rule="evenodd" d="M338.9 1880.7c11-16.7 17.2-58 5.8-86.2-3.5-8.7-15.5-38.5-32.7-31.1-5.1 10 5.2 32.7-15.4 29.8-9.6-4.4 13-22.9 7.9-31.7-8.5-11-32.9-20.9-46.3-12.1-2.8 6.5 16.5 41.2 8.4 45.5-8.6 2.1-8-23.8-11.9-35.7-5.3-11.6-25.4-6.2-37.9-4.2 12.5 10.5 20.5 21.5 16.1 25.1-11.7 7.5-8.1-21.3-16.1-25.1-18.2 2.9-24.1-3.6-31.7 4-2.1 12.7-2.7 18.7 1.9 30 10.6 24.4 50.2 10.4 49.2 19.4-4.3 6.9-33.3-4.3-36.2-.3-7.4 7.3.2 27.3 9 29.5 13 3.4 46.1-9.9 48.7-3.1 3.4 8.6-41.4 7.4-46.6 22.4-3.2 12.8 7.5 28.5 16.4 37.7 9.5 14.9 45.9-36.3 51-32.6 6.3 15.5-49.8 40.4-27.9 55.2 12.5 6.9 26.6 4.3 40.2 1 20.9-5.1 40.6-25.3 48.1-37.5zm-100.3-27.8c1.1-1.9 3.8-2.5 5.9-1.2 2.1 1.3 2.9 3.8 1.8 5.8-1.1 1.9-3.8 2.5-5.9 1.2-2.2-1.3-3-3.9-1.8-5.8zm39.3-35.3c2 6.5 7.1-2 6.8-5.7.5-4.6 0-11.3-4.7-13.6-5.1 2.9-4.4 11.1-2.1 19.3zm25.8 12.1c-8.5-5.1 1.3-22.9 6.7-23.2 4.9 1.3.2 25.1-6.7 23.2zm-12.7 45.5c-2 3.2 3.4 2.2 4.8.8 2.1-1.4 4.7-4.1 4-6.8-3-1.2-6.2 2.1-8.8 6zm-60.9-59.1c2.9-3 8.6-2.5 12.4-1.4.8 3-3.8 3.8-6.6 4.6-3 1-7-.6-5.8-3.2z" clip-rule="evenodd" class="color0ebaa0 svgShape"></path><g fill="#000000" class="color000000 svgShape"><g fill="#000000" class="color000000 svgShape"><path fill="#16518c" d="M380.6 1929.6c-.3-.1-.7-.3-.9-.6-50.7-62.3-108.4-112.1-176.3-152.1-.8-.5-1.1-1.5-.6-2.3.5-.8 1.5-1.1 2.3-.6 35.8 21.1 69.6 45.5 100.4 72.7 27.3 24.1 53.2 51 76.9 80.2.6.7.5 1.8-.2 2.4-.5.3-1.1.4-1.6.3z" class="color16888c svgShape"></path></g><g fill="#000000" class="color000000 svgShape"><path fill="#16518c" d="M252.9 1809c-.8-.2-1.4-1-1.3-1.9 2.7-15.6-1.6-29.2-12.8-40.7-.6-.7-.6-1.7 0-2.4.7-.6 1.7-.6 2.4 0 5.7 5.8 9.8 12.3 12.2 19.3 2.5 7.5 3.1 15.7 1.6 24.2-.2.9-1 1.5-1.9 1.4-.1.1-.1.1-.2.1z" class="color16888c svgShape"></path></g><g fill="#000000" class="color000000 svgShape"><path fill="#16518c" d="M311.4 1856.3c-.2-.1-.5-.2-.7-.3-.7-.6-.8-1.6-.2-2.4 17.8-21.5 21.3-47.2 10.1-74.4-.4-.9.1-1.8.9-2.2.9-.4 1.8.1 2.2.9 11.7 28.5 8 55.4-10.6 77.8-.4.5-1.1.7-1.7.6z" class="color16888c svgShape"></path></g><g fill="#000000" class="color000000 svgShape"><path fill="#16518c" d="M230.6 1871.8c-.7-.2-1.2-.7-1.3-1.4-.1-.9.5-1.8 1.5-1.9 23.3-2.9 38.9-13.6 53.8-37 .5-.8 1.5-1 2.3-.5.8.5 1 1.5.5 2.3-7.5 11.7-14.8 20-22.9 26-9.3 6.8-20.2 10.9-33.3 12.5h-.6z" class="color16888c svgShape"></path></g><g fill="#000000" class="color000000 svgShape"><path fill="#16518c" d="M263.5 1908.8c-.7-.2-1.2-.7-1.3-1.4-.1-.9.5-1.8 1.4-1.9 40-5.2 53.9-22.9 61.5-37.8.4-.8 1.4-1.1 2.3-.7.8.4 1.1 1.4.7 2.3-8 15.6-22.4 34.1-64 39.6-.2 0-.4 0-.6-.1z" class="color16888c svgShape"></path></g></g><path fill="#247ad1" fill-rule="evenodd" d="M381.6 1865.2c19.3-5.2 51.4-31.9 61.5-60.7 3.2-8.8 13.9-39.1-3.8-44.9-10.4 4.1-17.8 28-31.3 12.2-4.2-9.6 24.9-8.5 26.9-18.5.9-13.9-10.8-37.5-26.6-39.7-6.4 3-15 41.8-23.9 39.6-7.8-4.2 9.9-23.1 14.8-34.7 3.7-12.1-14.9-21.5-25.6-28.3 2.3 16.1 1.1 29.7-4.6 29.5-13.7-2.1 8.1-21.3 4.6-29.5-15.6-9.9-15.7-18.6-26.3-18.1-10 8.2-14.4 12.2-18.5 23.7-8.3 25.3 30.7 41 24 47.2-7.8 2.3-22.1-25.3-26.9-24.2-10.3.6-17.9 20.5-12.8 28.1 7.5 11.2 41.1 23.1 38.5 30-3.1 8.7-35.8-21.9-49.8-14.2-10.9 7.5-13.3 26.3-12.8 39.1-2.7 17.5 58.4 3.2 59.8 9.4-5.5 15.7-64.1-2.8-57.5 22.9 4.8 13.5 17 20.9 29.4 27.4 19 9.9 47.2 7.8 60.9 3.7zm-56.7-87.4c2.1-.7 4.5.7 5.2 3 .8 2.4-.4 4.8-2.5 5.5-2.1.7-4.5-.7-5.2-3-.7-2.3.4-4.8 2.5-5.5zm52.9-.2c-2.8 6.2 6.7 3.2 8.9.2 3.4-3.1 7.5-8.5 5.5-13.3-5.8-1.3-10.7 5.4-14.4 13.1zm11.3 26.1c-3-9.4 16.2-16.3 20.4-12.9 2.8 4.2-16.5 18.8-20.4 12.9zm-39.7 25.6c-3.6 1.1 1.1 4 3.1 3.8 2.5.3 6.3.1 7.5-2.5-1.5-2.8-6.1-2.5-10.6-1.3zm-6.4-84.6c4.2-.3 8.1 3.8 10.2 7.2-1.4 2.8-5.4.4-8-.9-2.9-1.3-4.9-5.1-2.2-6.3z" clip-rule="evenodd" class="color24d1b3 svgShape"></path><g fill="#000000" class="color000000 svgShape"><g fill="#000000" class="color000000 svgShape"><path fill="#16518c" d="M381.4 1930.1c-.8-.2-1.3-.9-1.3-1.7 3.4-80.3-6.8-155.8-31.1-230.8-.3-.9.2-1.8 1.1-2.1.9-.3 1.8.2 2.1 1.1 12.8 39.5 21.9 80.2 26.9 121 4.5 36.1 5.9 73.5 4.4 111 0 .9-.8 1.6-1.7 1.6-.2 0-.3-.1-.4-.1z" class="color16888c svgShape"></path></g><g fill="#000000" class="color000000 svgShape"><path fill="#16518c" d="M365.8 1755.2c-.3-.1-.7-.3-.9-.6-.6-.7-.5-1.8.3-2.4 12.3-9.9 18.2-23 17.4-39 0-.9.7-1.7 1.6-1.8.9 0 1.7.7 1.8 1.6.9 17.1-5.4 31.2-18.6 41.8-.6.4-1.1.5-1.6.4z" class="color16888c svgShape"></path></g><g fill="#000000" class="color000000 svgShape"><path fill="#16518c" d="M378.2 1829.4c-.6-.2-1.2-.7-1.3-1.4-.1-.9.5-1.8 1.4-1.9 27.5-4.3 47.2-21.2 56.9-49 .3-.9 1.3-1.3 2.1-1 .9.3 1.3 1.3 1 2.1-10.1 29-30.7 46.7-59.6 51.2h-.5z" class="color16888c svgShape"></path></g><g fill="#000000" class="color000000 svgShape"><path fill="#16518c" d="M331.1 1798.3c-8.3-2-16.3-5.7-24.2-11.2-.8-.5-1-1.6-.4-2.3.5-.8 1.6-1 2.3-.4 19.3 13.3 38.1 15.6 64.8 8 .9-.3 1.8.3 2.1 1.1.3.9-.3 1.8-1.1 2.1-13.4 3.8-24.3 5.2-34.4 4.3-3.1-.4-6.1-.9-9.1-1.6z" class="color16888c svgShape"></path></g><g fill="#000000" class="color000000 svgShape"><path fill="#16518c" d="M340.9 1852.6c-9.9-2.4-21.1-7.3-33.9-16-.8-.5-1-1.6-.4-2.3.5-.8 1.6-1 2.3-.4 33.4 22.6 55.5 18.6 71 12.5.9-.3 1.8.1 2.2.9.3.9-.1 1.8-.9 2.2-10.4 4-23.4 7.2-40.3 3.1z" class="color16888c svgShape"></path></g></g><path fill="#4283c5" fill-rule="evenodd" d="M2000 1917.2v81.9c-2.4.6-4.9.9-7.5.9H0v-83.6h74.5c-12.6-25.6-20.7-52-10.2-81.6 3.3 18.3 6.4 39.3 15.4 57.2-1.8-9.8-1.1-20 3.9-30.5 2.9 12.8 5.9 27.4 13.3 40.2 3.4-38.4-4.6-78.9 18.9-113.7-7.2 41.4-3.9 70.6 1.3 111.3.1-3.5.2-7.2.2-10.8-4.9-17.1-5.8-34.8 1-53.7 1 5.3 1.8 10.8 2.9 16.3 2.5-8.7 6.7-17.1 13.8-25.1-4.9 21.7-4.9 39-2.6 57.7l.3-.5c-.1-7 1.4-14.3 4.9-21.7.6 2.8 1.3 5.8 2 8.7 2.7-5.8 5.2-11.9 7.4-18.4 2.6 14.2 1.6 27-1.2 39.2 1.3 3.3 2.8 6.4 4.4 9.5.3-.4.7-.7 1-1.1 2.8-37.8-4.2-77.3 18.6-111.3-7.2 41.4-3.8 70.6 1.4 111.3.9-25.1-1.9-50.8 17.9-73.3-4.9 21.7-4.9 39-2.6 57.7 5.6-9.3 10.4-19.9 14.6-32 4 22-.6 40.7-6.9 58.7 11.3-9.3 19.6-21.3 26.3-36.1 3.8 15.7-.1 29-5.8 42h402.7c-8.6-21.2-12.4-43.2-3.7-67.3 3.2 18.4 6.3 39.4 15.3 57.2-1.8-9.8-1.1-19.8 4-30.5 2.9 12.9 5.9 27.4 13.4 40.2 3.4-38.4-4.6-78.9 18.8-113.6-7.2 41.3-3.9 70.6 1.4 111.3.1-3.6.1-7.3.2-10.8-4.9-17.1-5.9-34.8 1-53.8.9 5.3 1.7 10.8 2.8 16.4 2.5-8.7 6.7-17.1 13.9-25.1-5 21.6-4.9 38.9-2.7 57.7l.4-.6c-.1-7 1.3-14.2 4.8-21.7.7 2.9 1.3 5.8 2.1 8.8 2.6-5.8 5.1-11.9 7.4-18.4 2.6 14.2 1.5 27-1.2 39.2 1.3 3.1 2.7 6.4 4.5 9.4.3-.4.7-.8.9-1.1 2.9-37.6-4.2-77.3 18.7-111.2-7.2 41.3-3.9 70.6 1.4 111.3.8-25.2-2.1-50.8 17.8-73.3-4.9 21.6-4.9 38.9-2.6 57.7 5.7-9.3 10.4-19.9 14.7-32 3.4 18.4.5 34.6-4.2 50.2h6.1c7-7.8 12.6-17.1 17.4-27.6 2.5 9.9 1.7 18.9-.5 27.6H1436c-.2-6.3.2-12.8 1.5-19.6 2.4 7 5 13.4 7.9 19.6h7.8c.9-14.3 0-28.5-3.8-45.3 12.5 14.2 16.1 29.5 17.2 45.3h4.1c2.8-27.6 3.4-52.1-1.9-83.3 17.3 25.6 17.4 54.5 17.7 83.3h3.6c-.2-6.3.2-12.8 1.5-19.6 2.2 6.5 4.7 12.7 7.4 18.5.7-3 1.3-5.9 1.9-8.8 1.5 3.4 2.7 6.6 3.5 9.9h2.9c.9-14.3 0-28.5-3.8-45.3 7.1 8 11.3 16.4 13.8 25.1 1.1-5.5 2-11 2.9-16.3 4.6 12.7 5.6 24.7 4.3 36.5h.2c2.8-27.6 3.4-52.1-2.1-83.3 17.3 25.6 17.5 54.5 17.8 83.3h12.2c.8-3.4 1.5-6.6 2.3-9.9 1.5 3.4 2.7 6.6 3.5 9.9h8.3c3.6-12.3 5.5-25 7.6-36.5 4.5 12.7 5.5 24.7 4.3 36.5h229.3c-12.1-25-19.4-50.7-9.1-79.4 3.2 18.3 6.3 39.3 15.3 57.2-1.8-9.8-1.1-19.9 3.9-30.6 2.9 12.9 5.9 27.5 13.5 40.3 3.4-38.4-4.6-78.9 18.8-113.7-7.2 41.4-3.9 70.6 1.4 111.3.1-3.5.1-7.2.1-10.8-4.9-17.1-5.8-34.8 1-53.7 1 5.3 1.8 10.8 2.9 16.3 2.5-8.7 6.7-17.1 13.8-25.1-4.9 21.7-4.9 39-2.6 57.7l.3-.5c-.1-7 1.4-14.3 4.9-21.8.7 2.9 1.3 5.8 2.1 8.8 2.6-5.8 5.1-11.9 7.4-18.4 2.6 14.2 1.5 27-1.2 39.2 1.2 3.3 2.7 6.4 4.5 9.5.2-.4.5-.8.9-1.1 2.8-37.8-4.2-77.3 18.6-111.3-7.1 41.4-3.8 70.6 1.4 111.3.9-25.1-1.9-50.8 17.9-73.3-4.9 21.7-4.9 39-2.6 57.7 5.6-9.3 10.4-20 14.6-32 4.1 22-.7 40.6-7 58.7 11.3-9.3 19.5-21.3 26.3-36.1 3.6 14.8.3 27.6-4.9 39.9h42.7c2.3-.2 4.8.1 7.2.7z" clip-rule="evenodd" class="color42c5a0 svgShape"></path><path fill="#66b2ff" fill-rule="evenodd" d="m999.5 1605.7 389.8-288.1 225.7-166c-10.3-13.1-25.2-21.4-42.9-21.4H427c-16.8 0-32.6 8.4-42.9 21.4l225.7 166 389.7 288.1z" clip-rule="evenodd" class="color6666ff svgShape"></path><path fill="#81b9f1" fill-rule="evenodd" d="m999.5 697.5 389.8 288.1 225.7 166c-10.3 13.1-25.2 21.4-42.9 21.4H427c-16.8 0-32.6-8.4-42.9-21.4l225.7-166 389.7-288.1z" clip-rule="evenodd" class="color8183f1 svgShape"></path><path fill="#cfe6fd" d="M593.3 716.1h661.2l151.2 151.2v986.8H593.3z" class="colordfcffd svgShape"></path><path fill="#adcff2" d="M1405.7 867.6h-150.9V716.7l150.9 150.6z" class="colorc1adf2 svgShape"></path><path fill="#81b9f1" fill-rule="evenodd" d="M1615 1151.6c6.5 8.4 11.2 19.6 11.2 31.7v710.6c0 29.8-24.2 53.2-54.1 53.2H427c-28.9 0-53.2-23.3-53.2-53.2v-710.6c0-12.1 3.7-23.3 10.3-31.7l225.7 166 389.8 288.1 389.8-288.1 225.6-166z" clip-rule="evenodd" class="color8183f1 svgShape"></path><path fill="#66b2ff" fill-rule="evenodd" d="m999.5 1471.5-389.8 287.2L384 1925.6c9.3 13.1 25.2 21.4 42.9 21.4H1572c17.7 0 33.6-8.4 42.9-21.4l-225.7-166.9-389.7-287.2z" clip-rule="evenodd" class="color6666ff svgShape"></path><path fill="#ffffff" d="M1346.3 934.1H657.1c-5.5 0-10-4.5-10-10v-11.8c0-5.5 4.5-10 10-10h689.2c5.5 0 10 4.5 10 10v11.8c0 5.5-4.5 10-10 10zM1346.3 1011.5H657.1c-5.5 0-10-4.5-10-10v-11.8c0-5.5 4.5-10 10-10h689.2c5.5 0 10 4.5 10 10v11.8c0 5.6-4.5 10-10 10zM1346.3 1097.2H657.1c-5.5 0-10-4.5-10-10v-11.8c0-5.5 4.5-10 10-10h689.2c5.5 0 10 4.5 10 10v11.8c0 5.5-4.5 10-10 10zM1346.3 1174.6H657.1c-5.5 0-10-4.5-10-10v-11.8c0-5.5 4.5-10 10-10h689.2c5.5 0 10 4.5 10 10v11.8c0 5.6-4.5 10-10 10zM1346.3 1249.3H657.1c-5.5 0-10-4.5-10-10v-11.8c0-5.5 4.5-10 10-10h689.2c5.5 0 10 4.5 10 10v11.8c0 5.5-4.5 10-10 10zM1346.3 1326.8H657.1c-5.5 0-10-4.5-10-10V1305c0-5.5 4.5-10 10-10h689.2c5.5 0 10 4.5 10 10v11.8c0 5.5-4.5 10-10 10z" class="colorffffff svgShape"></path><path fill="#84c1fe" d="M1180.5 424.9c6.9-1.5 13.8 2.4 15.3 9.3 1.8 6.9-2.4 13.8-9 15.3l-18.3 4.8-18.9 4.8-12 3c-6.9 1.8-13.8-2.4-15.6-9-1.8-6.9 2.4-13.8 9.3-15.6l12.3-3 18.6-4.8 18.3-4.8zm-319.1 860.5c6.9.3 12 6.6 11.4 13.5-.3 6.9-6.6 12.3-13.5 11.7l-2.1-.3c-6.9-.6-12.3-6.6-11.7-13.5.6-7.2 6.9-12.3 13.8-11.7l2.1.3zm-126.6-16.8c6.9 1.5 11.4 8.1 10.2 15-1.2 6.9-7.8 11.4-14.7 10.2l-.6-.3-11.4-2.1-11.4-2.1-11.7-2.4-11.7-2.4-3.6-.6c-6.9-1.5-11.1-8.4-9.6-15.3s8.1-11.1 15-9.6l3.3.6 11.7 2.4 11.4 2.4 11.4 2.1 11.1 2.1h.6zm-171.4-41.7a12.6 12.6 0 0 1 8.4 15.9 12.6 12.6 0 0 1-15.9 8.4l-2.4-.6-6-2.1-5.7-1.8-6-1.8-5.7-2.1-6-1.8-5.7-2.1-5.7-2.1-5.4-1.8c-6.6-2.4-10.2-9.6-7.8-16.2 2.4-6.6 9.9-10.2 16.5-7.8l5.1 1.8 5.7 2.1 5.7 1.8 5.7 2.1 5.7 1.8 5.7 2.1 5.7 1.8 5.7 1.8 2.4.6zm-162.7-65.2c6.3 3 8.7 10.8 5.4 17.1-3.3 6-10.8 8.7-17.1 5.4l-3.6-2.1-5.1-2.7-5.4-2.7-5.1-2.7-4.8-2.7-5.1-3-5.1-2.7-4.8-3-4.8-3-1.5-.6c-5.7-3.9-7.8-11.7-3.9-17.7 3.6-5.7 11.4-7.8 17.4-3.9l1.2.6 4.5 2.7 4.8 3 4.8 2.7 4.8 2.7 4.8 2.7 5.1 2.7 4.8 2.7 5.1 2.4 3.6 2.1zm-140.4-100.5c4.8 5.1 4.5 13.2-.6 17.7-5.1 4.8-13.2 4.5-18-.6l-1.2-1.5-3.6-3.6-3.3-3.9-3.3-3.6-3-3.9-3-3.9-3.3-3.9-2.7-3.9-3-3.9-2.7-4.2-2.7-3.9-.9-1.5c-3.9-5.7-2.1-13.8 3.9-17.4 6-3.9 13.8-2.1 17.4 3.9l.6.9 2.7 3.9 2.4 3.6 2.7 3.6 2.7 3.6 2.7 3.6 2.7 3.3 3 3.6 3 3.6 3 3.3 3.3 3.6 1.2 1.5zm-45.4-150.4c-2.1 6.9-9 10.8-15.6 8.7-6.9-2.1-10.8-9-8.7-15.6l.3-2.1 1.2-3.3.9-3.3 1.2-3.3 1.2-3.3 1.5-3.3 1.2-3.3 1.5-3.3 1.5-3.3 1.5-3.3 1.5-3.3 1.8-3.3 1.5-3 1.8-3.3 2.1-3 .9-1.8c3.6-6 11.4-8.1 17.4-4.2 6 3.6 7.8 11.4 4.2 17.4l-.9 1.5-1.5 2.7-1.5 2.7-1.5 3-1.5 2.7-1.5 3-1.2 2.7-1.5 3-1.2 2.7-1.2 3-.9 2.7-1.2 3-.9 3-.9 2.7-.9 3-.6 1.8zm102.4-132c-5.4 4.2-13.5 3.3-17.7-2.1-4.5-5.7-3.3-13.5 2.1-18l.6-.3 3.6-2.7 3.6-2.7 3.6-3 3.6-2.7 3.9-2.7 3.6-2.7 3.9-2.7 3.9-2.7 3.9-2.7 3.9-2.7 3.9-2.4c6-3.9 13.8-2.4 17.7 3.6 3.9 5.7 2.1 13.5-3.6 17.4l-3.9 2.7-3.6 2.4-3.9 2.7-3.6 2.7-3.9 2.4-3.6 2.7-3.6 2.7-3.6 2.4-3.3 2.7-3.6 2.7-3.3 2.7-.6.3zm149.4-91c-6.3 3-14.1.3-17.1-6-3-6.3-.3-13.8 6-16.8l8.4-4.5 9.9-4.5 9.9-4.8 9.9-4.8 8.1-3.6c6.3-2.7 13.8 0 16.8 6.3 2.7 6.6 0 14.1-6.3 16.8l-7.8 3.6-9.9 4.5-9.6 4.8-9.6 4.5-8.7 4.5zm162.1-70.5c-6.6 2.7-14.1-.6-16.5-7.2s.9-13.8 7.2-16.5l.9-.3 10.8-4.2 11.1-3.9 11.1-4.2 11.1-4.2 3-.9c6.6-2.4 13.8.9 16.2 7.5 2.4 6.6-.9 13.8-7.5 16.2l-3 1.2-11.1 3.9-10.8 4.2-11.1 4.2-10.8 3.9-.6.3zM796 558.8c-6.6 2.4-13.8-1.5-15.9-8.1-2.4-6.6 1.5-13.8 8.1-15.9l.3-.3 11.4-3.6 11.4-3.6 11.4-3.6 11.4-3.3 2.7-.9c6.6-2.1 13.8 1.8 15.9 8.4 2.1 6.6-1.8 13.8-8.4 15.9l-2.7.9-11.4 3.3-11.1 3.6-11.4 3.6-11.4 3.6h-.3zM965.9 508c-6.9 1.8-13.8-2.1-15.6-9-1.8-6.6 2.1-13.5 8.7-15.6l20.1-5.4 21.9-6 7.2-2.1c6.6-1.8 13.8 2.1 15.6 9 1.8 6.9-2.4 13.8-9 15.6l-7.2 1.8-21.6 6-20.1 5.7z" class="color84b2fe svgShape"></path><path fill="#67b2fd" fill-rule="evenodd" d="M1318.4 297.4 1266.9 431l136.4-29.2z" clip-rule="evenodd" class="color6767fd svgShape"></path><path fill="#cce5fe" fill-rule="evenodd" d="m1353.1 462.5-72.3-292.2 598.5 188z" clip-rule="evenodd" class="colorccccfe svgShape"></path><path fill="#99cbfe" fill-rule="evenodd" d="M1267.1 431.5c-.6-26.3 13.8-99.5 41-153.2l557.7 79.6-550.6-48.3c-15.1 40-35.5 108.8-48.1 121.9z" clip-rule="evenodd" class="color9999fe svgShape"></path><path fill="#6686ff" fill-rule="evenodd" d="m1727 1477.7 30-2.3 3.1 36 30.6 99.3-17.9 4.7-39.7-101.3z" clip-rule="evenodd" class="colorff9866 svgShape"></path><path fill="#152563" fill-rule="evenodd" d="m1707.2 1905 15.7 15.4c16 12.2 63.5 2.5 52.4 35l-92-2.4c-.5-10.5-.5-23.7 5.3-36.5l18.6-11.5z" clip-rule="evenodd" class="color153663 svgShape"></path><path fill="#0627a3" fill-rule="evenodd" d="m1619.3 1905 15.2 15.4c3.1 12.1 64 2.5 52.8 35-30.7-.8-58.3-2.2-89.1-3-2.7-9.6-.3-19.9 5.5-32.8 7-4.3 8.7-10.4 15.6-14.6z" clip-rule="evenodd" class="color0643a3 svgShape"></path><path fill="#0575e6" fill-rule="evenodd" d="m1649.4 1553 64.9 46.4c14.3 42.3 28.5 84.7 42.8 127 4.9 18.5 3.3 37.6 0 52.7l-34.2 141.3c-18.7 8.6-21.2-.3-34.2-4.4l20.5-157.6-41.9-65.5c-8.9 76.5-24.1 151.1-32.9 227.5-17.2 9.7-19.4 4.1-30.7-.8l.6-319.2 45.1-47.4z" clip-rule="evenodd" class="color2c7efe svgShape"></path><path fill="#0e64ba" fill-rule="evenodd" d="M1714.8 1600c-35.6 21.5-73.5.5-110.4.6l-1.7-133.7c-1.4 10.8-2.8 21.6-4.2 32.3-12.9 6.4-24.5 3.3-31.5-.8l6.3-83.7c.9-6.3 5-17.4 14.7-20.9l75.9-28.9 70.7 31c7.8 4.4 15.2 14 16.8 23.5 3 24.9 5.6 47.4 8.6 72.3-8.6 4.9-20.9 6.7-33.4 1.3l-1.7-22.4-10.1 129.4z" clip-rule="evenodd" class="color0ebaa0 svgShape"></path><path fill="#6686ff" fill-rule="evenodd" d="m1689.8 1358.1-31.4-11.1-8.9 27.3c9.9 16.9 22.4 21.3 32.5 17.1l7.8-33.3z" clip-rule="evenodd" class="colorff9866 svgShape"></path><path fill="#81c0ff" fill-rule="evenodd" d="M1678.7 1279.2c20.9 9.7 41.7 19.4 62.6 29.2-.5 15.5-30.3 64.6-47.8 70.4-22 7.5-40.1-16.9-38.4-35.1.9-17.1 12.5-54.8 23.6-64.5z" clip-rule="evenodd" class="colorffaa81 svgShape"></path><path fill="#021b79" fill-rule="evenodd" d="M1690.3 1303.4c21.5-7.8 28.7 21.8 40.9 25.6 11.8-.9 33.6-13 34.8-38.4 1.7-14.7-20.7-9.6-30.1-15.8-6.6-6.3-5-17.7-19.6-18.5l-19.6 3c-3.4-7.1-19.4 1.6-23.7 6.3-15.4 12.5-11.3 38.7-14.9 59.9 8.5 4 28.3-22.3 32.2-22.1z" clip-rule="evenodd" class="color002c72 svgShape"></path><path fill="#81c0ff" fill-rule="evenodd" d="M1668.5 1322.2c13.2 3.9 15.7-1.1 13.8-12.4.2-4.9-2.5-10.5-8-8.3-4.7 2.6-5.9 14.9-5.8 20.7z" clip-rule="evenodd" class="colorffaa81 svgShape"></path><path fill="#6686ff" fill-rule="evenodd" d="M1773.3 1619.3c.9 7.7-14.6 19.6-9.4 22.6 5.3 2.5 11.4-9.9 13.3-8.9 8.8 2.5 5.5 27.3 12.7 28.4 18.3 2.7 22.1-28.1.2-51.3l-14.1 1.4c-1.6.6-3.4-1-2.7 7.8z" clip-rule="evenodd" class="colorff9866 svgShape"></path><path fill="#ffffff" fill-rule="evenodd" d="M1699.9 1402.5c26 19.3 62.4 18.5 93.4 27.8-5.5 49.4-45.5 89.8-49.7 138.9-41.9 1.4-61.1-28.4-95.8-29.6 7.5-49 37.2-81.8 52.1-137.1z" clip-rule="evenodd" class="colorffffff svgShape"></path><path fill="#6686ff" fill-rule="evenodd" d="m1568.6 1499.4-2.2 27.6c-.5 7.4 3 12.4 12.9 12.4l107.1-4.5v-17.7l-90.5-5.5.9-11.6c-11.1 4.9-21.3 2.7-28.2-.7z" clip-rule="evenodd" class="colorff9866 svgShape"></path><path fill="#6686ff" fill-rule="evenodd" d="M1688.7 1515.8c7.4-1.9 12.7-20.7 17.4-16.9 4.4 3.9-5 14.3-3.3 15.7 5.3 7.2 27.3-4.9 30.9 1.6 9.3 16-18 30.7-47.7 18.7l-3.8-13.6c.1-1.7-1.9-2.8 6.5-5.5z" clip-rule="evenodd" class="colorff9866 svgShape"></path><path fill="#84c1fe" d="M1762.3 908.4c-109.4 0-198.2 60.7-198.2 135.1 0 38.3 23.4 72.8 60.8 97.4l-43.9 88.6 131.6-55.3c15.8 3 32.5 4.4 49.7 4.4 109.4 0 197.9-60.5 197.9-135.1 0-74.3-88.6-135.1-197.9-135.1z" class="color84b2fe svgShape"></path><path fill="#ffffff" d="M1747.2 908.4c-109.4 0-198.2 60.7-198.2 135.1 0 38.3 23.4 72.8 60.8 97.4l-43.9 88.6 131.6-55.3c15.8 3 32.5 4.4 49.7 4.4 109.4 0 197.9-60.5 197.9-135.1 0-74.3-88.6-135.1-197.9-135.1z" class="colorffffff svgShape"></path><path fill="#cfe6fd" d="M340.9 532.3c-119.1 0-215.9-96.9-215.9-215.9 0-119.1 96.9-215.9 215.9-215.9 119.1 0 215.9 96.9 215.9 215.9.1 119.1-96.8 215.9-215.9 215.9zm0-416.3c-110.5 0-200.4 89.9-200.4 200.4s89.9 200.4 200.4 200.4 200.4-89.9 200.4-200.4c.1-110.5-89.8-200.4-200.4-200.4z" class="colordfcffd svgShape"></path><path fill="#cfe6fd" d="M340.9 532.3c-34.4 0-66.4-23.1-90.2-65-23-40.6-35.7-94.1-35.7-150.9 0-56.7 12.7-110.3 35.7-150.9 23.8-41.9 55.8-65 90.2-65 34.4 0 66.4 23.1 90.2 65 23 40.6 35.7 94.1 35.7 150.9 0 56.7-12.7 110.3-35.7 150.9-23.8 41.9-55.8 65-90.2 65zm0-416.3c-28.5 0-55.8 20.3-76.7 57.2-21.7 38.3-33.7 89.1-33.7 143.3 0 54.1 12 105 33.7 143.3 20.9 36.9 48.2 57.2 76.7 57.2s55.8-20.3 76.7-57.2c21.7-38.3 33.7-89.1 33.7-143.3 0-54.1-12-105-33.7-143.3-20.9-36.9-48.1-57.2-76.7-57.2z" class="colordfcffd svgShape"></path><path fill="#cfe6fd" d="M333.2 108.2h15.5v416.4h-15.5z" class="colordfcffd svgShape"></path><path fill="#cfe6fd" d="M132.7 308.7h416.4v15.5H132.7zM340.9 221c-53.9 0-104.5-17.7-146.3-51.1l-7-5.6 6.6-6.1c40-37.2 92.1-57.6 146.8-57.6 54.5 0 106.6 20.5 146.7 57.6l6.6 6.1-7 5.6C446 202.8 394 221 340.9 221zm-129.3-57.7c37.6 27.6 82.1 42.2 129.3 42.2 46.5 0 92.1-14.9 129.3-42.1C434 132.7 388.5 116 340.9 116c-47.6 0-93.2 16.7-129.3 47.3zM340.9 532.3c-54.6 0-106.7-20.4-146.7-57.5l-6.6-6.1 7-5.6c42-33.6 92.6-51.3 146.3-51.3 53 0 104.9 18.2 146.3 51.3l7 5.6-6.6 6.1c-40.1 37.1-92.2 57.5-146.7 57.5zm-129.3-62.7c36.1 30.5 81.7 47.2 129.3 47.2 47.5 0 93-16.7 129.3-47.2-37.4-27.3-82.9-42.3-129.3-42.3-47.1 0-91.6 14.6-129.3 42.3z" class="colordfcffd svgShape"></path></svg>