<svg xmlns="http://www.w3.org/2000/svg" viewBox="0 0 200 200" id="Manthinkingaboutworkschedule"><g style="isolation:isolate" fill="#000000" class="color000000 svgShape"><g data-name="Layer 1" fill="#000000" class="color000000 svgShape"><rect width="22.41" height="22.41" x="122.79" y="59.73" fill="#74879b" rx="2.64" class="color749b8a svgShape"></rect><path d="M142.56,82.47H125.43a3,3,0,0,1-3-3V62.37a3,3,0,0,1,3-3h17.13a3,3,0,0,1,3,3V79.5A3,3,0,0,1,142.56,82.47ZM125.43,60.06a2.31,2.31,0,0,0-2.31,2.31V79.5a2.32,2.32,0,0,0,2.31,2.31h17.13a2.31,2.31,0,0,0,2.31-2.31V62.37a2.3,2.3,0,0,0-2.31-2.31Z" fill="#000000" class="color000000 svgShape"></path><path fill="#ffffff" d="M132.6,73,129,69.36l-2.37,2.37,4.78,4.78a1.64,1.64,0,0,0,1.18.49,1.66,1.66,0,0,0,1.19-.49l8.33-8.33-2.37-2.37Z" class="colorffffff svgShape"></path><path d="M132.61,77.33a2,2,0,0,1-1.42-.58l-5-5L129,68.9l3.6,3.59,7.14-7.14,2.84,2.83L134,76.75A2,2,0,0,1,132.61,77.33Zm-5.5-5.6,4.54,4.55a1.38,1.38,0,0,0,1.91,0l8.09-8.1-1.9-1.9-7.14,7.14L129,69.83Z" fill="#000000" class="color000000 svgShape"></path><rect width="22.9" height="2.25" x="150.76" y="65.76" fill="#08090b" class="color090b08 svgShape"></rect><rect width="14.93" height="2.25" x="175.9" y="65.76" fill="#08090b" class="color090b08 svgShape"></rect><rect width="14.65" height="2.25" x="150.76" y="73.85" fill="#08090b" class="color090b08 svgShape"></rect><rect width="10.39" height="2.25" x="168.06" y="73.85" fill="#08090b" class="color090b08 svgShape"></rect><rect width="22.41" height="22.41" x="122.79" y="27.9" fill="#74879b" rx="2.64" class="color749b8a svgShape"></rect><path d="M142.56,50.64H125.43a3,3,0,0,1-3-3V30.54a3,3,0,0,1,3-3h17.13a3,3,0,0,1,3,3V47.67A3,3,0,0,1,142.56,50.64ZM125.43,28.23a2.32,2.32,0,0,0-2.31,2.31V47.67A2.32,2.32,0,0,0,125.43,50h17.13a2.31,2.31,0,0,0,2.31-2.31V30.54a2.31,2.31,0,0,0-2.31-2.31Z" fill="#000000" class="color000000 svgShape"></path><path fill="#ffffff" d="M132.6,41.13,129,37.54l-2.37,2.36,4.78,4.79a1.68,1.68,0,0,0,1.18.49,1.71,1.71,0,0,0,1.19-.49l8.33-8.33L139.75,34Z" class="colorffffff svgShape"></path><path d="M132.61,45.51a2,2,0,0,1-1.42-.59l-5-5L129,37.07l3.6,3.6,7.14-7.15,2.84,2.84L134,44.92A2,2,0,0,1,132.61,45.51Zm-5.5-5.61,4.54,4.55a1.38,1.38,0,0,0,1.91,0l8.09-8.09-1.9-1.91-7.14,7.15L129,38Z" fill="#000000" class="color000000 svgShape"></path><rect width="22.9" height="2.25" x="150.76" y="33.94" fill="#08090b" class="color090b08 svgShape"></rect><rect width="14.93" height="2.25" x="175.9" y="33.94" fill="#08090b" class="color090b08 svgShape"></rect><rect width="14.65" height="2.25" x="150.76" y="42.02" fill="#08090b" class="color090b08 svgShape"></rect><rect width="10.39" height="2.25" x="168.06" y="42.02" fill="#08090b" class="color090b08 svgShape"></rect><rect width="49.48" height="35.79" x="9.35" y="45.56" fill="#ffffff" class="colorffffff svgShape"></rect><path d="M59,81.52H9.17V45.38H59ZM9.53,81.17H58.65V45.74H9.53Z" fill="#000000" class="color000000 svgShape"></path><rect width="44.21" height="28.79" x="11.98" y="50.32" fill="#ffffff" class="colorffffff svgShape"></rect><path d="M56.37,79.29H11.81V50.14H56.37Zm-44.21-.36H56V50.49H12.16Z" fill="#000000" class="color000000 svgShape"></path><rect width="4.25" height="3.95" x="14.12" y="53.24" fill="#ffffff" rx=".97" class="colorffffff svgShape"></rect><path d="M17.4,57.36H15.09a1.15,1.15,0,0,1-1.15-1.15v-2a1.16,1.16,0,0,1,1.15-1.15H17.4a1.15,1.15,0,0,1,1.15,1.15v2A1.14,1.14,0,0,1,17.4,57.36Zm-2.31-3.94a.79.79,0,0,0-.79.79v2a.79.79,0,0,0,.79.79H17.4a.79.79,0,0,0,.8-.79v-2a.8.8,0,0,0-.8-.79Z" fill="#000000" class="color000000 svgShape"></path><rect width="4.26" height="3.95" x="20.19" y="53.24" fill="#ffffff" rx=".97" class="colorffffff svgShape"></rect><path d="M23.48,57.36H21.17A1.14,1.14,0,0,1,20,56.21v-2a1.15,1.15,0,0,1,1.15-1.15h2.31a1.16,1.16,0,0,1,1.15,1.15v2A1.15,1.15,0,0,1,23.48,57.36Zm-2.31-3.94a.8.8,0,0,0-.8.79v2a.79.79,0,0,0,.8.79h2.31a.79.79,0,0,0,.79-.79v-2a.8.8,0,0,0-.79-.79Z" fill="#000000" class="color000000 svgShape"></path><rect width="4.25" height="3.95" x="26.27" y="53.24" fill="#ffffff" rx=".97" class="colorffffff svgShape"></rect><path d="M29.55,57.36H27.24a1.15,1.15,0,0,1-1.15-1.15v-2a1.16,1.16,0,0,1,1.15-1.15h2.31a1.16,1.16,0,0,1,1.16,1.15v2A1.15,1.15,0,0,1,29.55,57.36Zm-2.31-3.94a.8.8,0,0,0-.79.79v2a.79.79,0,0,0,.79.79h2.31a.79.79,0,0,0,.8-.79v-2a.8.8,0,0,0-.8-.79Z" fill="#000000" class="color000000 svgShape"></path><rect width="4.26" height="3.95" x="32.35" y="53.24" fill="#ffffff" rx=".97" class="colorffffff svgShape"></rect><path d="M35.63,57.36H33.32a1.15,1.15,0,0,1-1.15-1.15v-2a1.16,1.16,0,0,1,1.15-1.15h2.31a1.16,1.16,0,0,1,1.15,1.15v2A1.15,1.15,0,0,1,35.63,57.36Zm-2.31-3.94a.8.8,0,0,0-.8.79v2a.79.79,0,0,0,.8.79h2.31a.79.79,0,0,0,.79-.79v-2a.79.79,0,0,0-.79-.79Z" fill="#000000" class="color000000 svgShape"></path><rect width="4.25" height="3.95" x="38.42" y="53.24" fill="#ffffff" rx=".97" class="colorffffff svgShape"></rect><path d="M41.7,57.36H39.4a1.15,1.15,0,0,1-1.16-1.15v-2a1.16,1.16,0,0,1,1.16-1.15h2.3a1.16,1.16,0,0,1,1.16,1.15v2A1.15,1.15,0,0,1,41.7,57.36Zm-2.3-3.94a.8.8,0,0,0-.8.79v2a.79.79,0,0,0,.8.79h2.3a.79.79,0,0,0,.8-.79v-2a.8.8,0,0,0-.8-.79Z" fill="#000000" class="color000000 svgShape"></path><rect width="4.25" height="3.95" x="44.5" y="53.24" fill="#59a4ef" rx=".97" class="colorefc959 svgShape"></rect><path d="M47.78,57.36H45.47a1.15,1.15,0,0,1-1.15-1.15v-2a1.16,1.16,0,0,1,1.15-1.15h2.31a1.16,1.16,0,0,1,1.15,1.15v2A1.15,1.15,0,0,1,47.78,57.36Zm-2.31-3.94a.79.79,0,0,0-.79.79v2a.79.79,0,0,0,.79.79h2.31a.79.79,0,0,0,.79-.79v-2a.79.79,0,0,0-.79-.79Z" fill="#000000" class="color000000 svgShape"></path><path fill="#59a4ef" d="M51.55,53.24h2.31a1,1,0,0,1,1,1v2a1,1,0,0,1-1,1H51.55a1,1,0,0,1-1-1v-2A1,1,0,0,1,51.55,53.24Z" class="colorefc959 svgShape"></path><path d="M53.85,57.36h-2.3a1.15,1.15,0,0,1-1.16-1.15v-2a1.16,1.16,0,0,1,1.16-1.15h2.3A1.16,1.16,0,0,1,55,54.21v2A1.15,1.15,0,0,1,53.85,57.36Zm-2.3-3.94a.8.8,0,0,0-.8.79v2a.79.79,0,0,0,.8.79h2.3a.79.79,0,0,0,.8-.79v-2a.8.8,0,0,0-.8-.79Z" fill="#000000" class="color000000 svgShape"></path><rect width="4.25" height="3.94" x="14.12" y="59.26" fill="#ffffff" rx=".97" class="colorffffff svgShape"></rect><path d="M17.4,63.38H15.09a1.15,1.15,0,0,1-1.15-1.15v-2a1.15,1.15,0,0,1,1.15-1.15H17.4a1.14,1.14,0,0,1,1.15,1.15v2A1.14,1.14,0,0,1,17.4,63.38Zm-2.31-3.94a.79.79,0,0,0-.79.79v2a.79.79,0,0,0,.79.79H17.4a.79.79,0,0,0,.8-.79v-2a.79.79,0,0,0-.8-.79Z" fill="#000000" class="color000000 svgShape"></path><rect width="4.26" height="3.94" x="20.19" y="59.26" fill="#ffffff" rx=".97" class="colorffffff svgShape"></rect><path d="M23.48,63.38H21.17A1.14,1.14,0,0,1,20,62.23v-2a1.14,1.14,0,0,1,1.15-1.15h2.31a1.15,1.15,0,0,1,1.15,1.15v2A1.15,1.15,0,0,1,23.48,63.38Zm-2.31-3.94a.79.79,0,0,0-.8.79v2a.79.79,0,0,0,.8.79h2.31a.79.79,0,0,0,.79-.79v-2a.79.79,0,0,0-.79-.79Z" fill="#000000" class="color000000 svgShape"></path><rect width="4.25" height="3.94" x="26.27" y="59.26" fill="#ffffff" rx=".97" class="colorffffff svgShape"></rect><path d="M29.55,63.38H27.24a1.15,1.15,0,0,1-1.15-1.15v-2a1.15,1.15,0,0,1,1.15-1.15h2.31a1.15,1.15,0,0,1,1.16,1.15v2A1.15,1.15,0,0,1,29.55,63.38Zm-2.31-3.94a.79.79,0,0,0-.79.79v2a.79.79,0,0,0,.79.79h2.31a.79.79,0,0,0,.8-.79v-2a.79.79,0,0,0-.8-.79Z" fill="#000000" class="color000000 svgShape"></path><rect width="4.26" height="3.94" x="32.35" y="59.26" fill="#ffffff" rx=".97" class="colorffffff svgShape"></rect><path d="M35.63,63.38H33.32a1.15,1.15,0,0,1-1.15-1.15v-2a1.15,1.15,0,0,1,1.15-1.15h2.31a1.15,1.15,0,0,1,1.15,1.15v2A1.15,1.15,0,0,1,35.63,63.38Zm-2.31-3.94a.79.79,0,0,0-.8.79v2a.79.79,0,0,0,.8.79h2.31a.79.79,0,0,0,.79-.79v-2a.79.79,0,0,0-.79-.79Z" fill="#000000" class="color000000 svgShape"></path><rect width="4.25" height="3.94" x="38.42" y="59.26" fill="#ffffff" rx=".97" class="colorffffff svgShape"></rect><path d="M41.7,63.38H39.4a1.15,1.15,0,0,1-1.16-1.15v-2a1.15,1.15,0,0,1,1.16-1.15h2.3a1.15,1.15,0,0,1,1.16,1.15v2A1.15,1.15,0,0,1,41.7,63.38Zm-2.3-3.94a.79.79,0,0,0-.8.79v2a.79.79,0,0,0,.8.79h2.3a.79.79,0,0,0,.8-.79v-2a.79.79,0,0,0-.8-.79Z" fill="#000000" class="color000000 svgShape"></path><rect width="4.25" height="3.94" x="44.5" y="59.26" fill="#59a4ef" rx=".97" class="colorefc959 svgShape"></rect><path d="M47.78,63.38H45.47a1.15,1.15,0,0,1-1.15-1.15v-2a1.15,1.15,0,0,1,1.15-1.15h2.31a1.15,1.15,0,0,1,1.15,1.15v2A1.15,1.15,0,0,1,47.78,63.38Zm-2.31-3.94a.79.79,0,0,0-.79.79v2a.79.79,0,0,0,.79.79h2.31a.79.79,0,0,0,.79-.79v-2a.79.79,0,0,0-.79-.79Z" fill="#000000" class="color000000 svgShape"></path><path fill="#59a4ef" d="M51.55,59.26h2.31a1,1,0,0,1,1,1v2a1,1,0,0,1-1,1H51.55a1,1,0,0,1-1-1v-2A1,1,0,0,1,51.55,59.26Z" class="colorefc959 svgShape"></path><path d="M53.85,63.38h-2.3a1.15,1.15,0,0,1-1.16-1.15v-2a1.15,1.15,0,0,1,1.16-1.15h2.3A1.15,1.15,0,0,1,55,60.23v2A1.15,1.15,0,0,1,53.85,63.38Zm-2.3-3.94a.79.79,0,0,0-.8.79v2a.79.79,0,0,0,.8.79h2.3a.79.79,0,0,0,.8-.79v-2a.79.79,0,0,0-.8-.79Z" fill="#000000" class="color000000 svgShape"></path><rect width="4.25" height="3.94" x="14.12" y="65.28" fill="#ffffff" rx=".97" class="colorffffff svgShape"></rect><path d="M17.4,69.4H15.09a1.16,1.16,0,0,1-1.15-1.15v-2a1.15,1.15,0,0,1,1.15-1.15H17.4a1.14,1.14,0,0,1,1.15,1.15v2A1.15,1.15,0,0,1,17.4,69.4Zm-2.31-3.94a.79.79,0,0,0-.79.79v2a.79.79,0,0,0,.79.79H17.4a.79.79,0,0,0,.8-.79v-2a.79.79,0,0,0-.8-.79Z" fill="#000000" class="color000000 svgShape"></path><rect width="4.26" height="3.94" x="20.19" y="65.28" fill="#ffffff" rx=".97" class="colorffffff svgShape"></rect><path d="M23.48,69.4H21.17A1.15,1.15,0,0,1,20,68.25v-2a1.14,1.14,0,0,1,1.15-1.15h2.31a1.15,1.15,0,0,1,1.15,1.15v2A1.16,1.16,0,0,1,23.48,69.4Zm-2.31-3.94a.79.79,0,0,0-.8.79v2a.79.79,0,0,0,.8.79h2.31a.79.79,0,0,0,.79-.79v-2a.79.79,0,0,0-.79-.79Z" fill="#000000" class="color000000 svgShape"></path><rect width="4.25" height="3.94" x="26.27" y="65.28" fill="#ffffff" rx=".97" class="colorffffff svgShape"></rect><path d="M29.55,69.4H27.24a1.16,1.16,0,0,1-1.15-1.15v-2a1.15,1.15,0,0,1,1.15-1.15h2.31a1.15,1.15,0,0,1,1.16,1.15v2A1.16,1.16,0,0,1,29.55,69.4Zm-2.31-3.94a.79.79,0,0,0-.79.79v2a.79.79,0,0,0,.79.79h2.31a.79.79,0,0,0,.8-.79v-2a.79.79,0,0,0-.8-.79Z" fill="#000000" class="color000000 svgShape"></path><rect width="4.26" height="3.94" x="32.35" y="65.28" fill="#ffffff" rx=".97" class="colorffffff svgShape"></rect><path d="M35.63,69.4H33.32a1.16,1.16,0,0,1-1.15-1.15v-2a1.15,1.15,0,0,1,1.15-1.15h2.31a1.15,1.15,0,0,1,1.15,1.15v2A1.16,1.16,0,0,1,35.63,69.4Zm-2.31-3.94a.79.79,0,0,0-.8.79v2a.79.79,0,0,0,.8.79h2.31a.79.79,0,0,0,.79-.79v-2a.79.79,0,0,0-.79-.79Z" fill="#000000" class="color000000 svgShape"></path><rect width="4.25" height="3.94" x="38.42" y="65.28" fill="#ffffff" rx=".97" class="colorffffff svgShape"></rect><path d="M41.7,69.4H39.4a1.16,1.16,0,0,1-1.16-1.15v-2A1.15,1.15,0,0,1,39.4,65.1h2.3a1.15,1.15,0,0,1,1.16,1.15v2A1.16,1.16,0,0,1,41.7,69.4Zm-2.3-3.94a.79.79,0,0,0-.8.79v2a.79.79,0,0,0,.8.79h2.3a.79.79,0,0,0,.8-.79v-2a.79.79,0,0,0-.8-.79Z" fill="#000000" class="color000000 svgShape"></path><rect width="4.25" height="3.94" x="44.5" y="65.28" fill="#59a4ef" rx=".97" class="colorefc959 svgShape"></rect><path d="M47.78,69.4H45.47a1.16,1.16,0,0,1-1.15-1.15v-2a1.15,1.15,0,0,1,1.15-1.15h2.31a1.15,1.15,0,0,1,1.15,1.15v2A1.16,1.16,0,0,1,47.78,69.4Zm-2.31-3.94a.79.79,0,0,0-.79.79v2a.79.79,0,0,0,.79.79h2.31a.79.79,0,0,0,.79-.79v-2a.79.79,0,0,0-.79-.79Z" fill="#000000" class="color000000 svgShape"></path><path fill="#59a4ef" d="M51.55,65.28h2.31a1,1,0,0,1,1,1v2a1,1,0,0,1-1,1H51.55a1,1,0,0,1-1-1v-2A1,1,0,0,1,51.55,65.28Z" class="colorefc959 svgShape"></path><path d="M53.85,69.4h-2.3a1.16,1.16,0,0,1-1.16-1.15v-2a1.15,1.15,0,0,1,1.16-1.15h2.3A1.15,1.15,0,0,1,55,66.25v2A1.16,1.16,0,0,1,53.85,69.4Zm-2.3-3.94a.79.79,0,0,0-.8.79v2a.79.79,0,0,0,.8.79h2.3a.79.79,0,0,0,.8-.79v-2a.79.79,0,0,0-.8-.79Z" fill="#000000" class="color000000 svgShape"></path><rect width="4.25" height="3.95" x="14.12" y="71.29" fill="#ffffff" rx=".97" class="colorffffff svgShape"></rect><path d="M17.4,75.42H15.09a1.16,1.16,0,0,1-1.15-1.16v-2a1.15,1.15,0,0,1,1.15-1.15H17.4a1.14,1.14,0,0,1,1.15,1.15v2A1.15,1.15,0,0,1,17.4,75.42Zm-2.31-4a.79.79,0,0,0-.79.8v2a.79.79,0,0,0,.79.8H17.4a.8.8,0,0,0,.8-.8v-2a.8.8,0,0,0-.8-.8Z" fill="#000000" class="color000000 svgShape"></path><rect width="4.26" height="3.95" x="20.19" y="71.29" fill="#ffffff" rx=".97" class="colorffffff svgShape"></rect><path d="M23.48,75.42H21.17A1.15,1.15,0,0,1,20,74.26v-2a1.14,1.14,0,0,1,1.15-1.15h2.31a1.15,1.15,0,0,1,1.15,1.15v2A1.16,1.16,0,0,1,23.48,75.42Zm-2.31-4a.8.8,0,0,0-.8.8v2a.8.8,0,0,0,.8.8h2.31a.8.8,0,0,0,.79-.8v-2a.8.8,0,0,0-.79-.8Z" fill="#000000" class="color000000 svgShape"></path><rect width="4.25" height="3.95" x="26.27" y="71.29" fill="#ffffff" rx=".97" class="colorffffff svgShape"></rect><path d="M29.55,75.42H27.24a1.16,1.16,0,0,1-1.15-1.16v-2a1.15,1.15,0,0,1,1.15-1.15h2.31a1.15,1.15,0,0,1,1.16,1.15v2A1.16,1.16,0,0,1,29.55,75.42Zm-2.31-4a.8.8,0,0,0-.79.8v2a.8.8,0,0,0,.79.8h2.31a.8.8,0,0,0,.8-.8v-2a.8.8,0,0,0-.8-.8Z" fill="#000000" class="color000000 svgShape"></path><rect width="4.26" height="3.95" x="32.35" y="71.29" fill="#ffffff" rx=".97" class="colorffffff svgShape"></rect><path d="M35.63,75.42H33.32a1.16,1.16,0,0,1-1.15-1.16v-2a1.15,1.15,0,0,1,1.15-1.15h2.31a1.15,1.15,0,0,1,1.15,1.15v2A1.16,1.16,0,0,1,35.63,75.42Zm-2.31-4a.8.8,0,0,0-.8.8v2a.8.8,0,0,0,.8.8h2.31a.79.79,0,0,0,.79-.8v-2a.79.79,0,0,0-.79-.8Z" fill="#000000" class="color000000 svgShape"></path><rect width="4.25" height="3.95" x="38.42" y="71.29" fill="#ffffff" rx=".97" class="colorffffff svgShape"></rect><path d="M41.7,75.42H39.4a1.16,1.16,0,0,1-1.16-1.16v-2a1.15,1.15,0,0,1,1.16-1.15h2.3a1.15,1.15,0,0,1,1.16,1.15v2A1.16,1.16,0,0,1,41.7,75.42Zm-2.3-4a.8.8,0,0,0-.8.8v2a.8.8,0,0,0,.8.8h2.3a.8.8,0,0,0,.8-.8v-2a.8.8,0,0,0-.8-.8Z" fill="#000000" class="color000000 svgShape"></path><rect width="4.25" height="3.95" x="44.5" y="71.29" fill="#59a4ef" rx=".97" class="colorefc959 svgShape"></rect><path d="M47.78,75.42H45.47a1.16,1.16,0,0,1-1.15-1.16v-2a1.15,1.15,0,0,1,1.15-1.15h2.31a1.15,1.15,0,0,1,1.15,1.15v2A1.16,1.16,0,0,1,47.78,75.42Zm-2.31-4a.79.79,0,0,0-.79.8v2a.79.79,0,0,0,.79.8h2.31a.79.79,0,0,0,.79-.8v-2a.79.79,0,0,0-.79-.8Z" fill="#000000" class="color000000 svgShape"></path><path fill="#59a4ef" d="M51.55,71.29h2.31a1,1,0,0,1,1,1v2a1,1,0,0,1-1,1H51.55a1,1,0,0,1-1-1v-2A1,1,0,0,1,51.55,71.29Z" class="colorefc959 svgShape"></path><path d="M53.85 75.42h-2.3a1.16 1.16 0 01-1.16-1.16v-2a1.15 1.15 0 011.16-1.15h2.3A1.15 1.15 0 0155 72.27v2A1.16 1.16 0 0153.85 75.42zm-2.3-4a.8.8 0 00-.8.8v2a.8.8 0 00.8.8h2.3a.8.8 0 00.8-.8v-2a.8.8 0 00-.8-.8zM19.47 47.91c-1.58 0-2.81-1.71-2.81-3.9s1.23-3.91 2.81-3.91 2.82 1.72 2.82 3.91a5.6 5.6 0 01-.11 1.09.52.52 0 01-.63.41.53.53 0 01-.42-.63 4.14 4.14 0 00.09-.87c0-1.53-.8-2.83-1.75-2.83s-1.74 1.3-1.74 2.83.8 2.83 1.74 2.83a.54.54 0 110 1.07zM28.4 47.91c-1.58 0-2.82-1.71-2.82-3.9s1.24-3.91 2.82-3.91 2.82 1.72 2.82 3.91a5.6 5.6 0 01-.11 1.09.54.54 0 01-1.06-.22 4.14 4.14 0 00.09-.87c0-1.53-.8-2.83-1.74-2.83s-1.75 1.3-1.75 2.83.8 2.83 1.75 2.83a.54.54 0 110 1.07zM37.32 47.91c-1.58 0-2.82-1.71-2.82-3.9s1.24-3.91 2.82-3.91 2.82 1.72 2.82 3.91A5.6 5.6 0 0140 45.1.54.54 0 0139 44.88a4.14 4.14 0 00.09-.87c0-1.53-.8-2.83-1.75-2.83s-1.74 1.3-1.74 2.83.8 2.83 1.74 2.83a.54.54 0 110 1.07zM46.25 47.91c-1.58 0-2.82-1.71-2.82-3.9s1.24-3.91 2.82-3.91 2.81 1.72 2.81 3.91A5.6 5.6 0 0149 45.1a.53.53 0 01-.63.41.53.53 0 01-.42-.63A4.14 4.14 0 0048 44c0-1.53-.8-2.83-1.74-2.83S44.5 42.48 44.5 44s.8 2.83 1.75 2.83a.54.54 0 010 1.07z" fill="#000000" class="color000000 svgShape"></path><rect width="152.29" height="1.52" x="16.3" y="170.91" fill="#021b79" class="color262626 svgShape"></rect><path fill="#021b79" d="M113,114.36H60.07a8.92,8.92,0,0,0,0,17.84H113a8.92,8.92,0,0,0,0-17.84Z" class="color262626 svgShape"></path><path fill="#021b79" d="M113,114.07H60.07a9.22,9.22,0,0,0,0,18.43H113a9.22,9.22,0,1,0,0-18.43Zm6.66,14.69a8.59,8.59,0,0,1-6.66,3.15H60.07a8.63,8.63,0,0,1,0-17.25H113a8.62,8.62,0,0,1,6.66,14.1Z" class="color262626 svgShape"></path><path fill="#82a1c0" d="M120.94,124H52.11a11.61,11.61,0,1,0,0,23.22h68.83a11.61,11.61,0,0,0,0-23.22Z" class="coloraac082 svgShape"></path><path fill="#021b79" d="M120.94 123.72H52.11a11.9 11.9 0 100 23.8h68.83a11.9 11.9 0 000-23.8zm8.74 19.08a11.29 11.29 0 01-8.74 4.13H52.11a11.31 11.31 0 110-22.62h68.83a11.31 11.31 0 018.74 18.49zM100.34 81.87H72.7a4.66 4.66 0 000 9.32h27.64a4.66 4.66 0 000-9.32z" class="color262626 svgShape"></path><path fill="#021b79" d="M100.34,81.57H72.7a5,5,0,0,0-4.85,4,5,5,0,0,0,4.85,5.91h27.64a5,5,0,0,0,0-9.91Zm3.37,7.73a4.35,4.35,0,0,1-3.37,1.59H72.7a4.37,4.37,0,0,1,0-8.73h27.64a4.37,4.37,0,0,1,3.37,7.14Z" class="color262626 svgShape"></path><path fill="#5374f0" d="M120.94,146.72H52.11a11.61,11.61,0,1,0,0,23.21h68.83a11.61,11.61,0,0,0,0-23.21Z" class="colorf05369 svgShape"></path><path fill="#021b79" d="M120.94,146.42H52.11a11.91,11.91,0,0,0,0,23.81h68.83a11.91,11.91,0,0,0,0-23.81Zm8.74,19.08a11.27,11.27,0,0,1-8.74,4.14H52.11a11.32,11.32,0,0,1,0-22.63h68.83A11.33,11.33,0,0,1,132,156.13,11.21,11.21,0,0,1,129.68,165.5Z" class="color262626 svgShape"></path><path fill="#82a1c0" d="M116.69,90.4H56.36A10.94,10.94,0,0,0,45.73,104a27.32,27.32,0,0,0,26.54,20.81h28.5A27.33,27.33,0,0,0,127.32,104,11,11,0,0,0,116.69,90.4Z" class="coloraac082 svgShape"></path><path fill="#021b79" d="M116.69,90.1H56.36A11.24,11.24,0,0,0,45.44,104a27.56,27.56,0,0,0,26.83,21h28.5a27.57,27.57,0,0,0,26.84-21A11.24,11.24,0,0,0,116.69,90.1ZM127,103.88a27,27,0,0,1-26.26,20.6H72.27A27,27,0,0,1,46,103.88,10.65,10.65,0,0,1,56.36,90.69h60.33A10.65,10.65,0,0,1,127,103.88Z" class="color262626 svgShape"></path><path fill="#021b79" d="M97.88,67.27s-.72-3.11-12.22-6.74c-8.61-2.71-8.66.39-6.17,3.61,0,0-6.19-2.54-7.59,4.09s2.34,8.65,1.59,11.68-3.37,5.8,1.21,11.6S85.92,106,97.78,95.75C109.28,85.83,107.7,63.61,97.88,67.27Z" class="color262626 svgShape"></path><path fill="#021b79" d="M98.06,66.86c-.51-.92-2.76-3.62-12.3-6.64-4.49-1.41-7.13-1.39-7.84,0-.39.79-.12,1.94.76,3.29-1.85-.44-6-.77-7.1,4.61a12.38,12.38,0,0,0,.93,8.27,5.24,5.24,0,0,1,.66,3.4,14.67,14.67,0,0,1-.56,1.7c-.93,2.5-2,5.34,1.83,10.19l.11.14c3,3.78,7,9,12.93,9h0c3.27,0,6.81-1.63,10.52-4.82,7.35-6.35,9.7-18.26,7.19-25C103.85,67.38,101.21,65.83,98.06,66.86ZM97.57,95.5c-3.58,3.1-7,4.67-10.09,4.67h0c-5.56,0-9.36-4.83-12.42-8.71L75,91.31c-3.59-4.56-2.65-7.1-1.73-9.56A17.23,17.23,0,0,0,73.8,80a5.87,5.87,0,0,0-.69-3.82,11.78,11.78,0,0,1-.9-7.87c.61-2.87,2.18-4.32,4.68-4.32a7.13,7.13,0,0,1,2.48.46l1.12.46-.74-1c-1.12-1.44-1.58-2.71-1.25-3.39s1.23-.73,2-.73a18.22,18.22,0,0,1,5.1,1c11,3.49,12,6.48,12,6.5l.08.36.35-.13c2.92-1.09,5.32.27,6.59,3.67C107,77.76,104.73,89.33,97.57,95.5Z" class="color262626 svgShape"></path><path fill="#ffffff" d="M99.69,84l-1.13,8.71a6.74,6.74,0,0,0,3.88-5.87C102.65,84.21,99.69,84,99.69,84Z" class="colorffffff svgShape"></path><path fill="#021b79" d="M99.71,83.64a.32.32,0,0,0-.34.3.31.31,0,0,0,.29.35c.11,0,2.63.25,2.45,2.5a6.35,6.35,0,0,1-3.67,5.59.33.33,0,0,0,.12.63l.11,0a7,7,0,0,0,4.09-6.15C103,84.52,100.85,83.74,99.71,83.64Z" class="color262626 svgShape"></path><path fill="#ffffff" d="M74.51,82.9a6.76,6.76,0,0,0,1.92,6.77L78,81S75.1,80.35,74.51,82.9Z" class="colorffffff svgShape"></path><path fill="#021b79" d="M78.07,80.7a3.06,3.06,0,0,0-3.88,2.12,7,7,0,0,0,2,7.1.33.33,0,0,0,.21.07.32.32,0,0,0,.25-.12.33.33,0,0,0-.05-.46A6.36,6.36,0,0,1,74.83,83c.51-2.2,3-1.66,3.09-1.64a.32.32,0,0,0,.15-.63Z" class="color262626 svgShape"></path><path fill="#ffffff" d="M93.14,97.57l-13.5-.26s.9,6.69-2.12,8.7c0,0,4.1,3.48,8.9,3.49S95.36,106,95.36,106C92.34,104,93.14,97.57,93.14,97.57Z" class="colorffffff svgShape"></path><path fill="#021b79" d="M93.46,97.61a.29.29,0,0,0-.08-.25.3.3,0,0,0-.24-.11L79.64,97a.27.27,0,0,0-.25.11.3.3,0,0,0-.07.26c0,.06.84,6.5-2,8.38a.31.31,0,0,0-.14.25.29.29,0,0,0,.11.26c.17.15,4.25,3.57,9.11,3.57h0c4.89,0,9-3.42,9.15-3.56a.32.32,0,0,0,.11-.27.31.31,0,0,0-.14-.25C92.73,103.86,93.45,97.67,93.46,97.61Zm-7,11.56v0c-3.87,0-7.32-2.37-8.37-3.16,2.39-2,2.09-7,2-8.36l12.78.24c-.12,1.35-.34,6.1,2,8.12C93.78,106.8,90.31,109.17,86.42,109.17Z" class="color262626 svgShape"></path><path fill="#ffffff" d="M93,72.93C86.41,67.45,79,71,77.54,75.6a34.55,34.55,0,0,0-1.79,8.61C75.48,88,77.22,95.7,79.17,98.94c2.52,4.18,11,4.15,13.85,2.24,2.08-1.42,5.5-7,6.58-10.49a37,37,0,0,0,1.51-9C101.71,75.22,97.58,72.25,93,72.93Z" class="colorffffff svgShape"></path><path fill="#021b79" d="M93.07,72.59a11.39,11.39,0,0,0-7.2-2.76c-4,0-7.59,2.39-8.64,5.67a34.58,34.58,0,0,0-1.81,8.69C75.14,88.09,77,95.9,78.89,99.1c1.38,2.29,4.62,3.65,8.67,3.65a10.7,10.7,0,0,0,5.64-1.3c2.21-1.51,5.66-7.29,6.71-10.67a33.91,33.91,0,0,0,1.44-8l.09-1a8.94,8.94,0,0,0-1.91-7A7.3,7.3,0,0,0,93.07,72.59Zm7.72,9.09-.09,1a33.54,33.54,0,0,1-1.41,7.86c-1.1,3.51-4.53,9-6.46,10.32a10.19,10.19,0,0,1-5.27,1.19c-3,0-6.63-.88-8.11-3.33C77.57,95.64,75.8,88,76.07,84.23a34,34,0,0,1,1.78-8.53c1-3,4.39-5.21,8-5.21a10.76,10.76,0,0,1,6.89,2.69.31.31,0,0,0,.26.07,6.71,6.71,0,0,1,6,1.9C100.44,76.68,101,78.93,100.79,81.68Z" class="color262626 svgShape"></path><path fill="#021b79" d="M87.26 87.89c-.1-.26.15-.67.25-.79L87 86.7a1.58 1.58 0 00-.35 1.42 1.3 1.3 0 001.12.75l.12-.63C87.64 88.19 87.33 88.09 87.26 87.89zM90.81 80.38s5.29.29 6.9 2l.63-.59c-1.84-2-7.26-2.28-7.49-2.29zM78.69 79.22l.46.73c2-1.25 7.14-.17 7.19-.16l.18-.85C86.3 78.9 81 77.77 78.69 79.22zM93.72 82.76a1 1 0 101 1A1 1 0 0093.72 82.76z" class="color262626 svgShape"></path><path fill="#021b79" d="M93.72 82.43A1.31 1.31 0 1095 83.73 1.3 1.3 0 0093.72 82.43zm0 2a.66.66 0 11.66-.66A.66.66 0 0193.72 84.39zM82.67 81.11a1 1 0 101 1A1 1 0 0082.67 81.11z" class="color262626 svgShape"></path><path fill="#021b79" d="M82.67 80.78A1.31 1.31 0 1084 82.09 1.31 1.31 0 0082.67 80.78zm0 2a.65.65 0 01-.65-.65.65.65 0 111.3 0A.65.65 0 0182.67 82.74zM91.9 91.85a.32.32 0 00-.38.27 3.72 3.72 0 01-1.36 2.47 1.62 1.62 0 01-1.5-.09.32.32 0 00-.43.15.33.33 0 00.15.44 2.71 2.71 0 001.18.3 2 2 0 00.9-.22c1.34-.71 1.69-2.86 1.71-3A.32.32 0 0091.9 91.85zM112.45 111.28c-4.7-2.4-10.38-3.4-15.74-5l-1.2-5.56s-6.19 1.5-8.74 1.41S77 100.69 77 100.69l-.49 5.74c-5.29 1.63-11.54 2.47-16.19 4.85-15.42 7.87-17.24 59.05-17.24 59.05h86.62S127.86 119.15 112.45 111.28z" class="color262626 svgShape"></path><path fill="#021b79" d="M112.6,111a54.5,54.5,0,0,0-10.93-3.7c-1.54-.41-3.13-.83-4.68-1.3l-1.16-5.37a.32.32,0,0,0-.15-.21.36.36,0,0,0-.25,0A53.29,53.29,0,0,1,87,101.78h-.2c-2.55-.08-9.66-1.4-9.73-1.41a.31.31,0,0,0-.26.06.35.35,0,0,0-.12.23l-.48,5.52c-1.76.53-3.65,1-5.49,1.44A48.9,48.9,0,0,0,60.16,111c-15.41,7.87-17.34,57.23-17.42,59.33a.37.37,0,0,0,.1.24.33.33,0,0,0,.23.1h86.62a.34.34,0,0,0,.23-.1.36.36,0,0,0,.09-.24C129.94,168.22,128,118.86,112.6,111ZM43.41,170c.2-4.45,2.62-51.08,17-58.44a48.35,48.35,0,0,1,10.4-3.32c1.92-.47,3.9-.94,5.74-1.51a.32.32,0,0,0,.23-.28l.46-5.39c1.5.27,7.18,1.29,9.48,1.36H87a50,50,0,0,0,8.28-1.35l1.13,5.24a.35.35,0,0,0,.22.24c1.62.49,3.29.93,4.9,1.35a54.71,54.71,0,0,1,10.79,3.66c14.42,7.36,16.85,54,17,58.44Z" class="color262626 svgShape"></path><path fill="#021b79" d="M48.9,120c-26.33,20.58-30.18,50.56-30.18,50.56H57.64c2.71-2,1-5,1-5,3.41,1.1,5-12,5-12l-2.6-40.28C56.16,110.82,52.48,117.2,48.9,120Z" class="color262626 svgShape"></path><path fill="#021b79" d="M59.61,165.09a1,1,0,0,1-.87.13.32.32,0,0,0-.35.11.33.33,0,0,0,0,.36,3.54,3.54,0,0,1-.83,4.54H19.1c.56-3.49,5.64-30.95,30-50a29,29,0,0,0,2.83-2.69c2.74-2.81,5.56-5.73,9-4l.29-.58c-3.85-1.89-7,1.33-9.73,4.18a30,30,0,0,1-2.77,2.63c-26.14,20.43-30.26,50.47-30.3,50.77a.29.29,0,0,0,.08.25.32.32,0,0,0,.24.11H57.64a.31.31,0,0,0,.19-.06,4,4,0,0,0,1.34-4.89,1.75,1.75,0,0,0,.79-.28c2.73-1.74,4-11.68,4-12.1l-.65-.08C63,156.25,61.66,163.78,59.61,165.09Z" class="color262626 svgShape"></path><path fill="#ffffff" d="M90.81,150.72A44,44,0,0,0,89,138.15a12.23,12.23,0,0,1-.75-4.21,48.12,48.12,0,0,0-.6-15.78,17.72,17.72,0,0,1-.46-5,79.13,79.13,0,0,0,.41-9.2.43.43,0,0,0-.43-.43h0a.42.42,0,0,0-.42.44,78,78,0,0,1-.42,9.08,18.66,18.66,0,0,0,.48,5.21,47.26,47.26,0,0,1,.59,15.53,12.73,12.73,0,0,0,.77,4.54A42.68,42.68,0,0,1,90,150.72a18.77,18.77,0,0,0,1.4,7.9c.82,2.12,1.53,4,.62,9.93a.43.43,0,0,0,.36.5h.07a.42.42,0,0,0,.42-.37c1-6.2.17-8.23-.66-10.37A17.88,17.88,0,0,1,90.81,150.72Z" class="colorffffff svgShape"></path><path fill="#021b79" d="M51.74,150.48c-2.56-.64-5.84,1.19-8-.37s-8-5.29-12.5-2.64-1.83,6.93-5.66,11.32-3.38,11.5-3.38,11.5H56.67s-.64-1.1.18-3.65S54.3,151.12,51.74,150.48Z" class="color262626 svgShape"></path><path fill="#021b79" d="M53.7,152.15c-.66-1.19-1.28-1.83-1.89-2a10.33,10.33,0,0,0-3.62.07,16.39,16.39,0,0,1-2.14.2,3.56,3.56,0,0,1-2.16-.58c-3.35-2.37-6.52-3.63-9.18-3.63a7.15,7.15,0,0,0-3.68,1c-2.51,1.49-2.9,3.5-3.3,5.64a10.77,10.77,0,0,1-2.44,5.74C21.42,163,21.82,170,21.84,170.31v.3H57.21l-.26-.48s-.55-1,.21-3.39C57.86,164.56,55.82,156,53.7,152.15Zm2.84,14.39a6.37,6.37,0,0,0-.33,3.42H22.48c0-1.39.05-7.24,3.3-11A11.53,11.53,0,0,0,28.37,153c.39-2.07.73-3.86,3-5.2,3-1.76,7.32-.8,12.16,2.63a4.16,4.16,0,0,0,2.53.7,15.29,15.29,0,0,0,2.23-.21,10,10,0,0,1,3.38-.08c.23.06.74.36,1.47,1.68C55.25,156.28,57.13,164.72,56.54,166.54Z" class="color262626 svgShape"></path><path fill="#ffffff" d="M54.58,152.92c-1.2-.42-10.15-3.91-10.15-3.91l2.5,8a7.77,7.77,0,0,0,5.93-.58c2.76,3.39,6.8,2.92,6.55,2C59,157,55.77,153.33,54.58,152.92Z" class="colorffffff svgShape"></path><path fill="#021b79" d="M54.68,152.61c-1.17-.41-10-3.86-10.13-3.9l-.24.61c.37.14,9,3.49,10.16,3.91s4.27,4,4.62,5.24c0,0-.17.18-.65.25a6.33,6.33,0,0,1-5.33-2.52.32.32,0,0,0-.41-.08,7.45,7.45,0,0,1-5.66.55l-.23.61a8,8,0,0,0,6-.47A7.13,7.13,0,0,0,58,159.4a3,3,0,0,0,1.28-.25.73.73,0,0,0,.46-.84C59.32,156.85,56,153.06,54.68,152.61Z" class="color262626 svgShape"></path><path fill="#59a4ef" d="M40.41,155.14c-7.55,0-14.86,6.91-14.86,15.44H55.26C55.26,162.05,48,155.14,40.41,155.14Z" class="colorefc959 svgShape"></path><path fill="#021b79" d="M40.41,154.82c-8.09,0-15.18,7.36-15.18,15.76a.32.32,0,0,0,.32.33H55.26a.32.32,0,0,0,.32-.33C55.58,162.18,48.49,154.82,40.41,154.82ZM25.88,170.26c.18-7.92,6.89-14.79,14.53-14.79s14.34,6.87,14.52,14.79Z" class="color262626 svgShape"></path><path fill="#ffffff" d="M44.25,148.59a2.61,2.61,0,0,0-3.72.95c-4.68-2.7-7.59,2.06-7.59,2.06a4.61,4.61,0,0,0-4.85,3.73c-3.28,0-4.88,5.37-4.88,8.65s1.64,4.74,4.5,6.17,3.55-1,2.79-2.46A9.12,9.12,0,0,0,27.71,165c.51-.5,1.94-5.62,1.94-5.62a22.74,22.74,0,0,0,.64,4.84c.53,1.23,1.83,2.24,3.2,4.3,2.27,3.45,6.23,2.11,5.3-.67A13.71,13.71,0,0,0,35.68,163c.59-1.51.2-5,.2-5a1.74,1.74,0,0,0,1.55-1.1c.76,3.71,3.2,13.39,7.07,13.31s-1.43-14-1.43-14l3.12,2.08a47.11,47.11,0,0,1,3.76,6.1c1,2.28,4.07,4.1,4.74,1.75s-1.6-7-2.52-9.2S46.61,150,44.25,148.59Z" class="colorffffff svgShape"></path><path fill="#021b79" d="M52.47,156.8c-1-2.3-5.63-7-8-8.49a3.09,3.09,0,0,0-1.64-.5,3,3,0,0,0-2.35,1.3,5.9,5.9,0,0,0-2.74-.72,6.39,6.39,0,0,0-4.93,2.88A4.93,4.93,0,0,0,27.83,155c-3.49.27-4.94,5.92-4.94,9,0,3.44,1.71,5,4.67,6.46,1.47.73,2.68.56,3.24-.37a2.7,2.7,0,0,0,0-2.53,8.7,8.7,0,0,0-2.64-2.63,26.62,26.62,0,0,0,1.3-3.65,12.83,12.83,0,0,0,.54,3.1,8.47,8.47,0,0,0,1.45,2.06,21,21,0,0,1,1.77,2.29,4.41,4.41,0,0,0,3.56,2.2,2.48,2.48,0,0,0,2.08-1,2.38,2.38,0,0,0,.25-2.19,13.75,13.75,0,0,0-3.05-4.86,15.35,15.35,0,0,0,.19-4.65,1.83,1.83,0,0,0,1-.58c.84,3.82,3.24,12.81,7.24,12.81h0a1.48,1.48,0,0,0,1.26-.68c1.5-2.24-1.08-10-2.05-12.77L46,158.51a47.69,47.69,0,0,1,3.7,6c.73,1.65,2.45,3,3.75,3a1.63,1.63,0,0,0,1.6-1.33c.62-2.19-1-6-2.16-8.53ZM54.38,166c-.17.58-.48.86-1,.86-1.06,0-2.53-1.24-3.16-2.65a46.79,46.79,0,0,0-3.8-6.17l-.08-.08-3.12-2.07a.31.31,0,0,0-.38,0,.29.29,0,0,0-.1.37c1.13,3,3.8,11.12,2.46,13.11a.88.88,0,0,1-.78.4c-3,0-5.41-6.75-6.7-13.05a.33.33,0,0,0-.3-.26.32.32,0,0,0-.33.2,1.41,1.41,0,0,1-1.23.89.3.3,0,0,0-.25.11.33.33,0,0,0-.08.25s.37,3.46-.19,4.89a.33.33,0,0,0,.08.35,13.49,13.49,0,0,1,3,4.75,1.7,1.7,0,0,1-.15,1.6,1.9,1.9,0,0,1-1.56.7,3.74,3.74,0,0,1-3-1.91A24.06,24.06,0,0,0,31.94,166a8.07,8.07,0,0,1-1.36-1.89,21.85,21.85,0,0,1-.6-4.72.33.33,0,0,0-.29-.31h0a.32.32,0,0,0-.31.23,32.3,32.3,0,0,1-1.86,5.48.33.33,0,0,0-.09.27.33.33,0,0,0,.15.24,8.83,8.83,0,0,1,2.67,2.55,2,2,0,0,1,0,1.89c-.39.65-1.25.69-2.38.13-2.81-1.4-4.32-2.75-4.32-5.88,0-3.4,1.62-8.32,4.55-8.32a.32.32,0,0,0,.32-.28,4.27,4.27,0,0,1,4.53-3.46.33.33,0,0,0,.28-.15s1.7-2.73,4.47-2.73a5.32,5.32,0,0,1,2.68.79.36.36,0,0,0,.25,0,.32.32,0,0,0,.19-.15,2.55,2.55,0,0,1,2-1.25,2.44,2.44,0,0,1,1.3.41c2.3,1.39,6.88,6,7.79,8.18q.16.4.39.9C53.26,160.25,54.94,164.08,54.38,166Z" class="color262626 svgShape"></path><g opacity=".55" style="mix-blend-mode:multiply" fill="#000000" class="color000000 svgShape"><path fill="#0575e6" d="M58.45,165.76c1.8,2.38.25,3.29.25,3.29l11.14.17c.72-8.43-6.08-19.13-6.08-19.13C63.19,163.79,58.45,165.76,58.45,165.76Z" class="color647795 svgShape"></path></g><path fill="#ffffff" d="M103.46,116.57c-1.15-5.92,1.31-10.81.94-12.7-.68-3.53-2.27-6.08-6.09-9.1-3.39-2.68-5.51,0-8.65,2.2s2.57,3.07,4.7.28c0,0,3.28,2.89,4.81,3.49,0,0-3.22-1.14-5.35-.3-2,.78-1.67,2.6-2.56,3.69-.63.76-2.17,2-1,4.39a16.2,16.2,0,0,0-.29,2.16c.11,3.95,3.37,4.12,3.37,4.12s.43,2.55.84,4.67c.75,3.87,2,3.23,7,10.31,3,4.2,12.42-1.54,6.92-6.63C106.68,121.86,103.81,118.39,103.46,116.57Z" class="colorffffff svgShape"></path><path fill="#021b79" d="M103.74,116.51a22.66,22.66,0,0,1,.54-9.46,9.51,9.51,0,0,0,.41-3.23c-.73-3.72-2.46-6.32-6.2-9.28a4.43,4.43,0,0,0-3.65-1.11A10.09,10.09,0,0,0,91,95.63c-.48.36-1,.74-1.49,1.11-1.09.76-1.13,1.36-1,1.73.34.79,1.79,1,3,.71a5.13,5.13,0,0,0,2.85-1.52c.5.43,1.75,1.5,2.94,2.33a8.3,8.3,0,0,0-2.86,0,4.22,4.22,0,0,0-.76.22,3.5,3.5,0,0,0-2.08,2.5A4.09,4.09,0,0,1,91,104l-.24.27a3.59,3.59,0,0,0-.88,4.34,13.79,13.79,0,0,0-.28,2.13c.1,3.53,2.62,4.23,3.41,4.37.11.65.47,2.72.8,4.47.47,2.38,1.15,3.15,2.63,4.83a60.78,60.78,0,0,1,4.44,5.59,4.07,4.07,0,0,0,4.29,1.47h0a6.08,6.08,0,0,0,4.68-3.91c.32-1.1.29-2.79-1.63-4.57C106.86,121.64,104.07,118.21,103.74,116.51Zm5.61,10.85a5.55,5.55,0,0,1-4.25,3.49h0a3.51,3.51,0,0,1-3.71-1.23A63,63,0,0,0,96.92,124c-1.5-1.7-2.07-2.33-2.5-4.56s-.83-4.64-.84-4.67l0-.22-.23,0c-.12,0-3-.21-3.09-3.84a14.78,14.78,0,0,1,.28-2.09l0-.09,0-.09a3,3,0,0,1,.75-3.8l.25-.29a4.61,4.61,0,0,0,.71-1.44,2.92,2.92,0,0,1,1.74-2.16,3.18,3.18,0,0,1,.66-.19,10.33,10.33,0,0,1,4.48.49l.21-.53c-1.47-.58-4.69-3.42-4.73-3.45l-.23-.21-.19.25a4.47,4.47,0,0,1-2.69,1.55c-1.22.23-2.24,0-2.4-.38s.19-.62.78-1,1-.76,1.51-1.12A9.56,9.56,0,0,1,95,94a3.77,3.77,0,0,1,3.18,1c3.67,2.89,5.29,5.31,6,8.93a9.49,9.49,0,0,1-.4,3,22.88,22.88,0,0,0-.54,9.69c.37,1.92,3.25,5.41,4.7,6.74A3.93,3.93,0,0,1,109.35,127.36Z" class="color262626 svgShape"></path><path fill="#021b79" d="M92.88 110.54l0 .57s.66.11 1.06 1.83a1.6 1.6 0 01-.09 1.35.65.65 0 01-.51.22l0 .58a1.15 1.15 0 00.28 0 1.19 1.19 0 00.69-.4 2.09 2.09 0 00.23-1.86C94 110.64 93 110.54 92.88 110.54zM90 108.37l.48.31c.08-.11 1.83-2.68 5.65-.43l.29-.49C92.1 105.21 90 108.33 90 108.37zM91 104l.46.34c.08-.11 2-2.55 6 .15l.33-.48C93.28 101 91.05 103.93 91 104zM93.32 127.81s9 34.57 13 40.79l27.56-5.35c-1.06-15.73-19.38-35.77-25.17-44C108.74 119.27 97.55 120 93.32 127.81z" class="color262626 svgShape"></path><path fill="#021b79" d="M109,119.1a.32.32,0,0,0-.26-.12s-1,.07-2.45.35c-3.63.71-10.16,2.73-13.21,8.35a.3.3,0,0,0,0,.21c.37,1.41,9.08,34.68,13.07,40.87a.28.28,0,0,0,.3.12L134,163.54a.29.29,0,0,0,.23-.31c-.87-12.81-12.84-28.13-20.76-38.26C111.64,122.66,110.08,120.66,109,119.1ZM133.61,163l-27.12,5.26c-3.87-6.34-12.3-38.28-12.87-40.43,3-5.34,9.25-7.27,12.76-7.95,1.08-.21,1.89-.3,2.22-.33,1.1,1.55,2.63,3.5,4.39,5.75C120.81,135.33,132.61,150.43,133.61,163Z" class="color262626 svgShape"></path><path d="M45.6,170.55h54.61a2.89,2.89,0,0,0,2.79-2.17H42.82A2.88,2.88,0,0,0,45.6,170.55Z" fill="#000000" class="color000000 svgShape"></path><path fill="#021b79" d="M42.51,168.47a3.2,3.2,0,0,0,3.09,2.4h54.61a3.2,3.2,0,0,0,3.1-2.4l.11-.41h-61Zm60,.24a2.56,2.56,0,0,1-2.33,1.52H45.6a2.55,2.55,0,0,1-2.32-1.52Z" class="color262626 svgShape"></path><path fill="#ffffff" d="M154.1,128.71H99.49a2.9,2.9,0,0,0-2.79,2.17L87.48,167a2.88,2.88,0,0,0,2.79,3.59h54.6a2.87,2.87,0,0,0,2.79-2.17l9.23-36.07A2.89,2.89,0,0,0,154.1,128.71Z" class="colorffffff svgShape"></path><path fill="#021b79" d="M154.1,128.39H99.49a3.2,3.2,0,0,0-3.1,2.41l-9.23,36.07a3.21,3.21,0,0,0,.58,2.76,3.17,3.17,0,0,0,2.53,1.24h54.6a3.2,3.2,0,0,0,3.11-2.41l9.22-36.07a3.2,3.2,0,0,0-3.1-4Zm2.47,3.84-9.22,36.07a2.57,2.57,0,0,1-2.48,1.93H90.27A2.56,2.56,0,0,1,87.79,167L97,131A2.55,2.55,0,0,1,99.49,129H154.1a2.56,2.56,0,0,1,2.47,3.19Z" class="color262626 svgShape"></path><path fill="#ffffff" d="M155.4,128.71H100.8A2.89,2.89,0,0,0,98,130.88L88.78,167a2.89,2.89,0,0,0,2.8,3.59h54.6a2.87,2.87,0,0,0,2.79-2.17l9.23-36.07A2.89,2.89,0,0,0,155.4,128.71Z" class="colorffffff svgShape"></path><path d="M155.4,128.39H100.8a3.21,3.21,0,0,0-3.11,2.41l-9.22,36.07a3.19,3.19,0,0,0,3.11,4h54.6a3.2,3.2,0,0,0,3.11-2.41l9.22-36.07a3.2,3.2,0,0,0-3.11-4Zm2.48,3.84-9.22,36.07a2.57,2.57,0,0,1-2.48,1.93H91.58a2.56,2.56,0,0,1-2-1,2.52,2.52,0,0,1-.46-2.2L98.32,131A2.56,2.56,0,0,1,100.8,129h54.6a2.56,2.56,0,0,1,2.48,3.19Z" fill="#000000" class="color000000 svgShape"></path><polygon points="115.3 162.38 150.34 162.38 151.7 157.07 116.66 157.07 115.3 162.38" fill="#000000" class="color000000 svgShape"></polygon></g></g></svg>