<svg xmlns="http://www.w3.org/2000/svg" data-name="Layer 1" viewBox="0 0 800 800" id="Manuploadingdataincloudstorage"><path fill="#e7ebef" d="M71.6 449.7c-30.31 57.84-8 112.6 4.36 143.24 25.6 63.18 111.47 144.14 317.35 158.27 265.13 18.19 305.36-212.29 297.87-311.56s-19-229.52-236.55-302S322.36 316.8 155 390.59c-29.77 13.1-68.21 30.12-83.4 59.11Z" class="colore7ebef svgShape"></path><path fill="#e7ebef" d="M71.6 449.7c-30.31 57.84-8 112.6 4.36 143.24 25.6 63.18 111.47 144.14 317.35 158.27 265.13 18.19 305.36-212.29 297.87-311.56s-19-229.52-236.55-302S322.36 316.8 155 390.59c-29.77 13.1-68.21 30.12-83.4 59.11Z" class="colore7ebef svgShape"></path><path fill="#e7ebef" d="M87.33 344.86a17.46 17.46 0 0 0 14.38 10.62c24.87 2.44 60.75-8.1 97.85-54.73C241 248.61 286.49 194.84 242 199s-118.14 46.43-144.8 90.66c-16.38 27.17-14.08 45.28-9.87 55.2Z" class="colore7ebef svgShape"></path><path fill="#e7ebef" d="M71.6 449.7c-30.31 57.84-8 112.6 4.36 143.24 25.6 63.18 111.47 144.14 317.35 158.27 265.13 18.19 305.36-212.29 297.87-311.56s-19-229.52-236.55-302S322.36 316.8 155 390.59c-29.77 13.1-68.21 30.12-83.4 59.11Z" data-name="SVGID" class="colore7ebef svgShape"></path><path fill="#010101" d="M79.15 752.29h590.08v4.48H79.15z" class="color010101 svgShape"></path><path fill="#0575e6" d="M208 551.86h-55.45V521.5H208Zm-52.24-3.17h49.06v-24h-49.1Z" class="colorabb7c2 svgShape"></path><path fill="#0575e6" d="M170 579.05h-55.41v-30.36H170Zm-52.24-3.18h49.06v-24h-49.05ZM344.62 290.91H289.2v-30.36h55.42Zm-52.24-3.18h49.06v-24h-49.06ZM442 626.12h-55.4v-30.36H442ZM389.78 623h49.06v-24h-49.06Z" class="colorabb7c2 svgShape"></path><path fill="#0575e6" d="M389.72 626.12H334.3v-30.36h55.42ZM337.48 623h49.06v-24h-49.06Z" class="colorabb7c2 svgShape"></path><path fill="#0575e6" d="M415.9 653.31h-55.42V623h55.42Zm-52.24-3.17h49.06v-24h-49.06ZM396.86 429.45h-55.42v-30.36h55.42Zm-52.24-3.17h49.06v-24h-49.06Z" class="colorabb7c2 svgShape"></path><path fill="#0575e6" d="M434.81 456.64H379.4v-30.36h55.41Zm-52.24-3.17h49.06v-24h-49.06ZM615 326.58h-55.43v-30.37H615Zm-52.24-3.18h49.07v-24h-49.09Z" class="colorabb7c2 svgShape"></path><path fill="#0575e6" d="M562.68 326.58h-55.41v-30.37h55.41Zm-52.24-3.18h49.07v-24h-49.07Z" class="colorabb7c2 svgShape"></path><path fill="#0575e6" d="M588.86 353.77h-55.41V323.4h55.41Zm-52.24-3.18h49.07v-24h-49.07ZM126 610.71a15.9 15.9 0 0 0 9.1-3 78.07 78.07 0 0 1-1.35 16.72c-3.58 5.76-13.5 16.36-12.83 16.3a32.13 32.13 0 0 0 8-1.85 60.24 60.24 0 0 1-6.06 9.92c-4.81 6.41-11.67 11.54-14.28 19.38a.47.47 0 0 1-.3.34.57.57 0 0 1-.94.42C94.33 656.64 92 638 90.11 621.13c-.09-.8-.17-1.58-.25-2.38a51.74 51.74 0 0 0 11.93 9.31c.63.34-8.11-13.63-12.38-20.07a37.8 37.8 0 0 1 2.23-12c3-8.12 8.22-15.71 13.27-22.7.2-.29.43-.57.63-.86a39.23 39.23 0 0 0 5.57 10.1c.42.54-.91-10.22-1.73-15.14 1.26-1.57 2.53-3.14 3.84-4.66 1.73-2 3.86-5.48 7-5S130 570.5 130.91 574c.38 1.51.71 3 1 4.58.15.67.27 1.34.39 2a186.33 186.33 0 0 1 2.31 18.75c-.22.33-.43.66-.67 1-2.5 3.43-8.59 10.38-7.94 10.38Z" class="colorabb7c2 svgShape"></path><path fill="#010101" d="M114.17 604.51c6.39-1 11.27-5 16-9.16.7-.62-.17-1.8-.88-1.17-4.39 3.89-9 7.79-14.93 8.81q2-14.26 4.81-28.42c.19-.92-1.26-1.15-1.44-.23q-3.72 18.75-6.06 37.71a62.63 62.63 0 0 1-8.45-17c-.29-.9-1.65-.35-1.36.54a63.87 63.87 0 0 0 9.07 17.95.65.65 0 0 0 .53.28q-.51 4.14-.94 8.3a39.52 39.52 0 0 1-6.28-11c-.32-.88-1.68-.34-1.35.54a40.47 40.47 0 0 0 7.11 12.21.75.75 0 0 0 .3.21q-1.41 13.65-2.13 27.37a.79.79 0 0 0-.08.32c-.2 3.35-.31 6.69-.35 10q-.12 3.27-.18 6.54a.58.58 0 0 0 .21.49c.38 20.61 3.43 41 7.77 61.15l1.42-.33c-4.9-22.79-8.16-45.85-7.73-69.21.09-2.46.19-4.93.31-7.39a.7.7 0 0 0 .65-.08 24.25 24.25 0 0 0 6.69-6.85c.51-.78-.63-1.7-1.14-.91a23.34 23.34 0 0 1-6.13 6.36q1.23-23.62 4.52-47.06Z" class="color010101 svgShape"></path><path fill="#0575e6" d="M63.39 646.85a15.92 15.92 0 0 1-8.6.74 55.32 55.32 0 0 0 6 12.11c4.72 3.16 16.23 7.86 15.64 8a32.87 32.87 0 0 1-7.3 1.22 46.52 46.52 0 0 0 8 5.46c6 3.24 13.28 4.84 17.77 9.87a.41.41 0 0 0 .35.16.53.53 0 0 0 .92 0c7.43-13.49 4-28.28.7-41.56-.16-.63-.31-1.24-.48-1.87A46.93 46.93 0 0 1 89 651.94c-.43.46 2.93-12.91 4.7-19.15a27.14 27.14 0 0 0-5.37-8.25c-4.94-5.1-11.56-9.1-17.88-12.7-.25-.15-.53-.28-.79-.43a30.11 30.11 0 0 1-1.8 9.42c-.2.54-2.19-8-2.92-11.94-1.53-.77-3.06-1.53-4.62-2.24-2.06-1-4.88-2.86-7.38-1.49s-4.7 12.84-4.41 15.75c.12 1.25.28 2.52.46 3.78.07.54.16 1.09.26 1.63a133.9 133.9 0 0 0 3.48 14.84c.28.18.56.36.86.53 3.13 1.74 10.33 4.96 9.8 5.16Z" class="colorabb7c2 svgShape"></path><path fill="#010101" d="M106.93 733c-2.17-16.58-5.5-32.89-11.16-48.5a.45.45 0 0 0 0-.44c-.67-1.62-1.36-3.24-2-4.86q-1.5-3.74-3.21-7.42a.54.54 0 0 0-.16-.2q-4.6-10.08-9.77-19.88a.63.63 0 0 0 .2-.25 32.33 32.33 0 0 0 2.5-11.45c0-.78-1.29-.74-1.31 0a30.9 30.9 0 0 1-2.15 10.31c-1.05-2-2.12-4-3.2-5.92A.59.59 0 0 0 77 644a49.7 49.7 0 0 0 2.5-16.46c0-.77-1.33-.73-1.31 0a48.3 48.3 0 0 1-2.19 15.6q-7.52-13.46-16.11-26.34c-.42-.63-1.58 0-1.16.65q6.49 9.7 12.34 19.77c-5.35 1.19-10.38-.23-15.25-1.71-.78-.24-1.17.93-.4 1.16 5.2 1.59 10.52 3 16.23 1.64q9.58 16.51 17.51 33.88a20.19 20.19 0 0 1-7.05-2.77c-.67-.42-1.37.64-.71 1.06a21.11 21.11 0 0 0 7.68 2.95.66.66 0 0 0 .57-.16c.82 1.82 1.63 3.63 2.41 5.45 7.15 17.41 11.09 35.81 13.55 54.55Z" class="color010101 svgShape"></path><path fill="#010101" d="M60.38 629.13A33.69 33.69 0 0 1 49 624.69c.07.54.16 1.09.26 1.63a35.25 35.25 0 0 0 10.72 4c.81.13 1.2-1.03.4-1.19Z" class="color010101 svgShape"></path><path fill="#0575e6" d="M183.85 640.1c-.08 5.27-12.26 7.82-16.12 9.25-8.57 3.17-16.92 6.36-23.25 13.25-7.46 8.12-13.9 17.49-20.34 26.45a1.5 1.5 0 0 1-1.52.65 23.6 23.6 0 0 1-1.77-3.85c-2.22-5.47-5.62-15.47-4.78-21.18a34.44 34.44 0 0 1 3.93-11.38 10.1 10.1 0 0 0 2.43 4.82c.31.31 1-7.19 1.41-10.6q.84-1 1.74-2a37.77 37.77 0 0 1 4.5-4.15c.34-.27.68-.54 1-.79a44.37 44.37 0 0 1 4.11-2.73c.37-.22.75-.44 1.14-.65 1.32-.74 2.7-1.42 4.1-2a27.84 27.84 0 0 0 2.26 7.5c.24.5.81-5.93.9-8.77 1.32-.5 2.67-.92 4-1.31a21.61 21.61 0 0 0 1.68 4.85c.19.37 2-4 2.65-5.9a53.1 53.1 0 0 1 13.05-1c.37 0 .75 0 1.11.07 1.17.08 2.32.21 3.46.39 4.2.65 14.09 3.31 14.28 9a.86.86 0 0 1 .03.08Z" class="colorabb7c2 svgShape"></path><path fill="#010101" d="M137 653.94c-10.35 10.21-13.56 29-14.23 34.31a24.28 24.28 0 0 0-2.13 6.92c-1.23 8.42-.87 17.31-.66 25.79.07 2.79.19 5.58.34 8.37l1.44-.27c-.09-1.76-.18-3.52-.23-5.28-.26-7.59-.26-15.21.09-22.8a33.52 33.52 0 0 1 2.07-11.5 1.69 1.69 0 0 0 .46-.43c6.44-9 12.87-18.33 20.34-26.45 6.33-6.89 14.68-10.08 23.24-13.25 3.87-1.43 16.05-4 16.13-9.25-16.24 1.9-34.96 2.09-46.86 13.84ZM136.55 648.93a33.63 33.63 0 0 1-.23-11.75c-.39.21-.77.43-1.14.65a34.57 34.57 0 0 0 .32 11.34c.13.67 1.17.43 1.05-.24ZM132.59 651a44.28 44.28 0 0 1-1.52-10.47c-.35.25-.69.52-1 .79a45.26 45.26 0 0 0 1.5 9.93c.15.68 1.19.45 1.02-.25Z" class="color010101 svgShape"></path><path fill="#ffffff" d="M89.87 751.39A37.21 37.21 0 0 1 75.5 729.2a37.65 37.65 0 0 1-.82-7.81 36.65 36.65 0 0 1 .9-8.11 34.94 34.94 0 0 1 1.85-5.95h68.94a36 36 0 0 1 1.86 5.95 37.2 37.2 0 0 1-14.3 38.11Z" class="colorffffff svgShape"></path><path fill="#010101" d="M145.84 708.11a35.39 35.39 0 0 1 1.63 5.34 36.38 36.38 0 0 1 .87 7.94 36.86 36.86 0 0 1-.8 7.65 36.4 36.4 0 0 1-13.86 21.57H90.12A36.4 36.4 0 0 1 76.26 729a36.93 36.93 0 0 1-.8-7.65 35.94 35.94 0 0 1 .88-7.95 34.64 34.64 0 0 1 1.66-5.29Zm1-1.56h-70a36.34 36.34 0 0 0-2.09 6.56 37.66 37.66 0 0 0-.92 8.28 37.93 37.93 0 0 0 15.71 30.77h44.58a38 38 0 0 0 12.7-45.61Z" class="color010101 svgShape"></path><path fill="#010101" d="M149.9 721.39a37.93 37.93 0 0 1-15.71 30.77H89.61c58.24 2.9 57.28-45.61 57.28-45.61a38 38 0 0 1 3 14.84Z" class="color010101 svgShape"></path><path fill="#0575e6" d="M447.76 534.43h72.2v202.85h-72.2z" class="colorabb7c2 svgShape"></path><path fill="#010101" d="M447.76 625.95h72.2v33.89h-72.2zM589.1 752.29c-5.45-13.5-56.27-24.08-118.19-24.08s-112.75 10.58-118.2 24.08Z" class="color010101 svgShape"></path><path fill="#010101" d="M238.38 360.47v256.44a29.42 29.42 0 0 0 29.42 29.42h454.27a29.43 29.43 0 0 0 29.43-29.42V360.47a29.38 29.38 0 0 0-29.43-29.41H267.8c-.59 0-1.18 0-1.76.05a29.44 29.44 0 0 0-27.66 29.36Z" class="color010101 svgShape"></path><path fill="#0575e6" d="M219.8 360.47v256.44a29.48 29.48 0 0 0 29.43 29.43H704a29.41 29.41 0 0 0 28.93-29.42V360.47a29.42 29.42 0 0 0-29.43-29.41H249.23c-.73 0-1.46 0-2.17.08a29.41 29.41 0 0 0-27.26 29.33Z" class="colorabb7c2 svgShape"></path><rect width="471.54" height="280.7" x="240.61" y="348.34" fill="#ffffff" rx="26.09" class="colorffffff svgShape"></rect><path fill="#010101" d="M686.06 349.06a25.4 25.4 0 0 1 25.38 25.37V603a25.4 25.4 0 0 1-25.38 25.37H266.7A25.4 25.4 0 0 1 241.33 603V374.43a25.4 25.4 0 0 1 25.37-25.37Zm0-1.43H266.7a26.8 26.8 0 0 0-26.8 26.8V603a26.8 26.8 0 0 0 26.8 26.8h419.36a26.8 26.8 0 0 0 26.81-26.8V374.43a26.8 26.8 0 0 0-26.81-26.8Z" class="color010101 svgShape"></path><path fill="#021b79" d="m653.34 397.49-18.92 3.93-3.32 25.53 30.11-1.52-7.87-27.94z" class="color3c4472 svgShape"></path><path fill="#ffffff" d="M318 596.69a10.59 10.59 0 0 1-10.57-10.58l-.94-196a13.73 13.73 0 0 1 13.7-13.73l326.37-.09A13.73 13.73 0 0 1 660.29 390l1 196a10.58 10.58 0 0 1-10.58 10.58l-332.66.1Z" class="colorffffff svgShape"></path><path fill="#010101" d="M646.57 377.05A13 13 0 0 1 659.52 390l.94 196a9.8 9.8 0 0 1-9.81 9.81l-332.65.1a9.81 9.81 0 0 1-9.79-9.81l-.95-196a12.94 12.94 0 0 1 12.93-13l326.37-.1Zm0-1.55-326.37.09a14.51 14.51 0 0 0-14.48 14.51l.94 196A11.36 11.36 0 0 0 318 597.46l332.66-.09A11.37 11.37 0 0 0 662 586l-.95-196a14.49 14.49 0 0 0-14.5-14.48Z" class="color010101 svgShape"></path><path fill="#010101" d="m661.21 425.43-355.5.11v-35.45a14.5 14.5 0 0 1 14.5-14.5l326.36-.09a14.5 14.5 0 0 1 14.5 14.5Z" class="color010101 svgShape"></path><path fill="#ffffff" d="M619 403.06a7.67 7.67 0 1 1 7.67 7.66 7.66 7.66 0 0 1-7.67-7.66ZM589.43 403.06a7.68 7.68 0 1 1 7.68 7.67 7.68 7.68 0 0 1-7.68-7.67ZM559.92 403.07a7.67 7.67 0 1 1 7.67 7.67 7.67 7.67 0 0 1-7.67-7.67ZM326.2 398.23l3.79-3.8 5.43 5.42 5.42-5.42 3.8 3.79-5.42 5.43 5.42 5.42-3.79 3.8-5.43-5.43-5.42 5.43-3.8-3.8 5.42-5.42-5.42-5.42z" class="colorffffff svgShape"></path><path fill="#0575e6" d="M491.16 452.55h135.46v118.48H491.16zM326.2 452.55h137.17v8.16H326.2zM326.2 470.43h137.17v8.16H326.2zM326.2 488.31h137.17v8.16H326.2zM326.2 506.18h137.17v8.16H326.2zM326.2 524.06h137.17v8.16H326.2zM326.2 541.94h137.17v8.16H326.2zM326.2 559.81h137.17v8.16H326.2z" class="colorabb7c2 svgShape"></path><path fill="#010101" d="M541.06 140c.51-48.12-28.81-96.75-73.28-96.75-28.31 0-68.62 29.87-74.52 62.88a4 4 0 0 1-1.71-1c-21.34-17.92-53.33-16.4-73.45 2.87a82.65 82.65 0 0 0-20.41 31 55.83 55.83 0 0 0-48.23 54.62c-.37 31.07 25.92 56.49 57 56.49h240.92c34.78 0 64.21-28.45 63.94-63.23-.26-33.72-29.91-68.11-70.26-46.88Z" class="color010101 svgShape"></path><path fill="#010101" d="M334.08 92.78h20.77l1.93 28.06h-32.21l9.51-28.06zM444.91 43.23h22.87v42.3s-42.7 3.88-42.7 2.71 19.83-45.01 19.83-45.01ZM536.87 133.5h26.58l-1.77 39.73-62.87 9.31 38.06-49.04z" class="color010101 svgShape"></path><path fill="#325bf5" d="M518 140c.52-48.12-28.8-96.75-73.27-96.75-28.31 0-68.62 29.87-74.53 62.88a4.11 4.11 0 0 1-1.71-1c-21.34-17.89-53.32-16.37-73.45 2.88A82.75 82.75 0 0 0 274.68 139a55.83 55.83 0 0 0-48.23 54.62c-.37 31.07 25.92 56.49 57 56.49h240.92c34.78 0 64.2-28.45 63.94-63.23-.26-33.72-29.91-68.11-70.31-46.88Z" class="colorf58132 svgShape"></path><path fill="#010101" d="M429.27 263.51v-43.13h17.81l-39.57-46.5-39.58 46.5h17.81v43.13h43.53z" class="color010101 svgShape"></path><path fill="#010101" d="M393.44 173.88h14.07l2.64 24.44-17.9 6.12 1.19-30.56z" class="color010101 svgShape"></path><path fill="#ffffff" d="M372.43 262.75v-43.13H355.5l37.94-44.57 37.94 44.57h-16.94v43.13h-42.01z" class="colorffffff svgShape"></path><path fill="#010101" d="m393.44 176.22 36.3 42.64h-16.05V262h-40.5v-43.14h-16.05l36.3-42.64Zm0-2.34-39.58 46.5h17.82v43.13h43.52v-43.13H433l-39.58-46.5ZM429.27 250.13h19.52v13.38h-19.52z" class="color010101 svgShape"></path><path fill="#325bf5" d="M544.7 500.52a61 61 0 1 1-64.62-57.06 61 61 0 0 1 64.62 57.06Z" class="colorf58132 svgShape"></path><path fill="#ffffff" d="M478.74 541.44c-3.39 0-10.95-2.5-32.31-29.05a6.32 6.32 0 1 1 9.84-7.92c6.9 8.53 15.73 18.21 20.73 22.42 8-14.87 31-56.08 32.12-58.08a6.32 6.32 0 1 1 11 6.17c-8.69 15.54-31.78 57-34.17 62a7.7 7.7 0 0 1-6.08 4.37 8.83 8.83 0 0 1-1.13.09Z" class="colorffffff svgShape"></path><path fill="#010101" d="M478.74 542.22c-4 0-11.75-3-32.92-29.34a7.09 7.09 0 1 1 11.05-8.9c6.87 8.53 15 17.44 19.88 21.69 7.42-13.79 25.85-46.82 31.42-56.79l.25-.45a7.09 7.09 0 1 1 12.38 6.93c-8.69 15.55-31.78 57-34.14 62a8.45 8.45 0 0 1-6.68 4.8 9 9 0 0 1-1.24.06Zm-27.4-39.33a5.53 5.53 0 0 0-4.31 9c15.36 19.09 26 28.76 31.71 28.76a7.78 7.78 0 0 0 1.05-.07 6.92 6.92 0 0 0 5.46-3.93c2.87-6 33.88-61.5 34.2-62.06a5.55 5.55 0 0 0-2.13-7.54 5.53 5.53 0 0 0-7.54 2.13l-.25.45c-5.69 10.17-24.79 44.4-31.87 57.62l-.45.84-.74-.61c-4.77-4-13.52-13.49-20.8-22.54a5.55 5.55 0 0 0-4.33-2.05Z" class="color010101 svgShape"></path><path fill="#ffffff" d="M130.31 456.46a94.36 94.36 0 0 1-11.06-.66c-15.08-1.78-20.87-48.48-20.16-81.08a92.16 92.16 0 0 1 1.78-17.72c-.11-1.62-.23-3-.32-4.42a1.47 1.47 0 0 1 1.34-1.55l.54-.08.1-.54c.87-4.35 3.29-7.5 7.63-9.91a5.58 5.58 0 0 1 2.71-.81 4 4 0 0 1 3 1.41l2 2.13-.67-2.84c-.21-.88-.43-1.68-.65-2.32a14.07 14.07 0 0 1-.47-1.94c-.11-.57-.23-1.14-.39-1.7-1-3.35-2.41-3.85-3.91-4.38a8.14 8.14 0 0 1-1.73-.78 3.15 3.15 0 0 1-1.55-2.87c.15-1.08.74-1.47 2.25-1.47 2.47 0 5.27.15 7.21 1.13a5.49 5.49 0 0 1 2.62 3.51c1 3.24.6 16.26-2.38 23.12a16.75 16.75 0 0 0-.36 3.86c1.53 5.3 3 12.6 4.5 20.34 4 20.41 7 33.8 11.84 33.8a2.46 2.46 0 0 0 .6-.07c5.84-1.36 10.95-4.93 21.14-12l1.24-.87c.5-.35 1.43-1.8 5.16-7.87 8.26-13.45 25.47-41.44 35.75-46.37a3.51 3.51 0 0 1 1.44-.38 2 2 0 0 1 1.62.84c5.25 6.32.41 41.25-2.88 58.83a61.16 61.16 0 0 1-.39 13.24c-.64 4.86-4.24 8.86-8.41 13.48a98.4 98.4 0 0 0-6.55 7.81 26.12 26.12 0 0 1-4.37 4.57c-10.46 8.84-29.39 14.56-48.22 14.56Z" class="colorffffff svgShape"></path><path fill="#010101" d="M110.75 325.75c2.38 0 5.06.13 6.86 1.05a4.7 4.7 0 0 1 2.22 3.05c1 3.15.57 15.85-2.35 22.57v.26a18.47 18.47 0 0 0-.34 3.9v.23l.07.23c1.49 5 2.92 12.33 4.44 20 4.21 21.34 7.07 34.42 12.61 34.42a3.31 3.31 0 0 0 .77-.09c6-1.39 11.15-5 21.43-12.17l1.22-.85c.64-.45 1.4-1.63 5.38-8.11 8.23-13.38 25.35-41.24 35.43-46.07a2.72 2.72 0 0 1 1.1-.31 1.28 1.28 0 0 1 1 .56c4.7 5.66.75 37.9-3 58.2l-.05.23v.24a57.11 57.11 0 0 1-.38 12.81c-.61 4.62-4.13 8.53-8.22 13.06a99 99 0 0 0-6.6 7.88 25.65 25.65 0 0 1-4.24 4.43c-10.4 8.73-29.1 14.41-47.78 14.41a92.58 92.58 0 0 1-11-.65c-14.61-1.72-20.19-48-19.49-80.29a92 92 0 0 1 1.77-17.53l.05-.23v-.24c-.12-1.39-.24-2.79-.34-4.18 0-.6.6-.71.67-.72l1.09-.16.22-1.08c.81-4.11 3.12-7.09 7.23-9.38a4.84 4.84 0 0 1 2.34-.71 3.23 3.23 0 0 1 2.43 1.16l4 4.27-1.29-5.69a24.26 24.26 0 0 0-.67-2.4 14 14 0 0 1-.44-1.83c-.12-.59-.24-1.19-.41-1.77-1-3.46-2.53-4.24-4.39-4.89a7.61 7.61 0 0 1-1.58-.71 2.36 2.36 0 0 1-1.19-2.1c.07-.48.11-.8 1.47-.8Zm0-1.55c-1.35 0-2.76.29-3 2.14a3.9 3.9 0 0 0 1.9 3.63c2.31 1.46 4.07.52 5.31 4.72.35 1.2.46 2.49.87 3.67a22.3 22.3 0 0 1 .63 2.25 4.81 4.81 0 0 0-3.57-1.66 6.31 6.31 0 0 0-3.09.91c-5 2.75-7.19 6.33-8 10.44a2.23 2.23 0 0 0-2 2.37c.1 1.4.22 2.8.34 4.21a93 93 0 0 0-1.8 17.82c-.61 27.68 3.82 79.86 20.85 81.87a93.68 93.68 0 0 0 11.16.66c20.35 0 38.91-6.46 48.71-14.73a27.35 27.35 0 0 0 4.5-4.71c6.34-8.66 14.09-14 15.1-21.64a57.56 57.56 0 0 0 .38-13.21s11.35-60.59.5-60.59a4.16 4.16 0 0 0-1.77.46c-13.85 6.64-39.28 53.09-41 54.31-11 7.69-16.19 11.4-22.11 12.78a2 2 0 0 1-.42.05c-6.73 0-10.91-37.6-15.56-53.35a18.76 18.76 0 0 1 .29-3.56c3-6.88 3.58-20 2.4-23.67a6.25 6.25 0 0 0-3-4c-2.17-1.1-5.23-1.21-7.57-1.21Z" class="color010101 svgShape"></path><path fill="#ffffff" d="M177 738c-1.9 0-2.2-.41-2.2-.42-.06-.55-.26-1.69-.5-3.13-.59-3.43-2.17-12.52-1.35-13.67 0 0 .62-.54 4.53-.54a51.52 51.52 0 0 1 11.07 1.13c.58 3.88.87 13.11-.1 14.07-.77.76-7.34 2.56-11.45 2.56Z" class="colorffffff svgShape"></path><path fill="#010101" d="M177.46 721a56 56 0 0 1 10.36 1c.48 3.72.75 11.4 0 12.93a33.18 33.18 0 0 1-10.82 2.3 6 6 0 0 1-1.48-.14c-.09-.63-.26-1.6-.46-2.77-.53-3.06-1.9-11-1.48-13a15 15 0 0 1 3.9-.33Zm0-1.55c-2.56 0-4.65.22-5.13.83-1.37 1.71 1.42 15 1.68 17.37.09.8 1.28 1.11 3 1.11 4.07 0 11-1.8 12-2.78 1.46-1.43.73-12.25.26-15.07-.1-.61-6.81-1.46-11.78-1.46Z" class="color010101 svgShape"></path><path fill="#010101" d="M190.06 732.71s7.09 10.14 2 18.11c0 0-36.94 1.74-48.1 0 0 0-.28-13.62 9.28-14.78a174.32 174.32 0 0 1 20.33-1s9.55 5.21 16.49-2.33Z" class="color010101 svgShape"></path><path fill="#ffffff" d="M259.09 739.25c-.74 0-.9-.16-.9-.16-.05-.41-.14-1.14-.27-2.09-1.33-9.84-1.7-15.27-1.09-16.15 0 0 .55-.56 4.07-.56a38.25 38.25 0 0 1 9.33 1.07c.58 3.86.88 13.13-.09 14.09s-7.86 3.8-11.05 3.8Z" class="colorffffff svgShape"></path><path fill="#010101" d="M260.9 721.07a42.43 42.43 0 0 1 8.62.89c.49 3.77.78 11.7.08 12.94-.92.82-7.59 3.57-10.51 3.57h-.19c0-.41-.13-1-.21-1.58-1.22-9-1.63-14.28-1.28-15.47a11.21 11.21 0 0 1 3.49-.35Zm0-1.55c-2.28 0-4.19.23-4.68.84-1.37 1.72.94 16.44 1.2 18.8.06.62.71.87 1.67.87 3.32 0 10.49-2.94 11.59-4 1.46-1.43.74-12.25.26-15.07-.1-.61-5.74-1.42-10-1.42ZM189.65 589c-1.74 21.73-.14 65.54 1.6 87.27.1 1.46.1 51.94.1 51.94l-20.42 1.95c-11.12-33.17-32.35-107.57-32.35-140.6s2.85-88.07 15-114.18c11.54-24.83 57.07 9.46 62.42 15.55 2.47 2.81-2.2 27.94-8.67 44.6-7.53 19.27-16.74 41.77-17.68 53.47Z" class="color010101 svgShape"></path><path fill="#010101" d="M192.7 676.11c-1.2-21.77-4.79-65.4-3-87.13.94-11.68 15.1-45.36 22.61-64.66-2-6 .49-18.72-4.41-22-4.07-2.71-20 15.27-21.75 20.59-1.42 4.2 1.18 9.52 1.5 13.73a39.41 39.41 0 0 1-5.08 22c-5.63 10-12.55 17.84-15.71 29.14-6.12 22-1.22 44.89 3.92 66.51 3.27 13.63 6.75 27.36 7.58 41.41.46 8.06 1.59 25.75.44 33.68l12.6-1.21s2.48-30.39 1.3-52.06Z" class="color010101 svgShape"></path><path fill="#010101" d="m272.52 728.19-18.14 1.95c-9.46-31.29-34.75-84.75-38.47-117.57-5.77-51-12.74-105.55-13-119 0-2.16-.08-3.3-.08-3.3 12.49-15.2 33.64-21.39 43.06-22.5 3.72-.46 6.44.27 7.62 2.22a142 142 0 0 1 9.14 17.87c15.2 36.09 2.4 57.89 2.68 104.83 0 2.71 0 5.49.1 8.24.49 19.4-4.74 43.29.83 63.56 10.9 39.78 6.26 63.7 6.26 63.7Z" class="color010101 svgShape"></path><path fill="#010101" d="M269.69 663.22c-3.15-20.79-3.86-42.86-4.31-62.26-.07-2.75-.1-5.53-.1-8.24-.28-46.94 12.51-69.87-2.69-106 0-7.22-17.06-10.72-17.2-6.34a87.57 87.57 0 0 0 1.36 15.74c1.49 9.12 3.44 18.12 2.12 27.51-2.05 14.53-6.75 28.26-7.72 43.08-1.78 27.22 4.45 52.22 13.7 77.53 5.77 15.71 10.43 31.36 12.24 48.05 1.15 10.57 1.4 25.62 1.29 36.26l4.14-.4s4.75-14.96-2.83-64.93ZM271.76 732.71s7.1 10.14 2 18.11c0 0-36.94 1.74-48.09 0 0 0-.29-13.62 9.27-14.78s21.82-1.68 21.82-1.68 8.06 5.89 15-1.65ZM197.23 396.09s15.84-.3 13 7c-3.26 8.5-17.38 33.66-28.6 41.7-17.52-6.91-39.89-59.28-28.08-69.83 18-16.08 34.51-30.61 49.27-33.77s-5.59 54.9-5.59 54.9ZM115.73 305.77l-13-.9-.11 2 6.61.52 4.7.39a3.23 3.23 0 0 1 2.69 3.58l-1.93 35.2a3.05 3.05 0 0 1-3 3.13l-11.31-.83-.23 4.15 13 1.13a3.05 3.05 0 0 0 3.06-3.12l2.28-41.64a3.25 3.25 0 0 0-2.76-3.61Z" class="color010101 svgShape"></path><path fill="#010101" d="M114.4 305.71h-.2l-19-1.49a3.05 3.05 0 0 0-3 3.13L89.83 349a3.23 3.23 0 0 0 2.69 3.58l19 1.49h.2a3.1 3.1 0 0 0 2.86-3.14l2.27-41.64a3.28 3.28 0 0 0-2.45-3.58Z" class="color010101 svgShape"></path><path fill="#ffffff" d="M104.77 307.79a2 2 0 1 0 1.85 2.11 2 2 0 0 0-1.85-2.11ZM92.48 342.27a3 3 0 0 1-2.37-1.27 3.64 3.64 0 0 1-.58-3.19l1.43-.6-1.37-.7c-.59-.34-1.38-.87-1.55-1.56s.3-1.29 1-2l1-.82-1.16-.53c-1.45-.61-3.19-1.71-3.25-3.47 0-.87.23-1.8 2.36-2.08l2.45-.33-2.2-1.13a9.52 9.52 0 0 1-1.74-1.14 2.11 2.11 0 0 1-.84-1.76 3.89 3.89 0 0 1 1.7-2.73l.26.16.24-.06a21.09 21.09 0 0 1 5.46 1l.47.15a7.79 7.79 0 0 1 3.4 1.65c.56.63.48 1 .45 1.16-.13.67-1 1.46-2.39 2.11l-2.4 1.16 2.65.32a3.35 3.35 0 0 1 2.35 1 2.23 2.23 0 0 1 .32 1.75 3.43 3.43 0 0 1-2 2.85l-1.74.82 1.83.62a5.15 5.15 0 0 1 2.12 1.23 1.32 1.32 0 0 1 .45 1.17 3.24 3.24 0 0 1-1.75 2 4.59 4.59 0 0 1-1.78.47l-1.63.13 1.13 1.18a1 1 0 0 1 .15 1 3 3 0 0 1-1.44 1.39 2.56 2.56 0 0 1-1.03.05Z" class="colorffffff svgShape"></path><path fill="#010101" d="M88 319.8a20.72 20.72 0 0 1 5.11.93l.5.16a7.41 7.41 0 0 1 3 1.42c.15.16.29.37.27.49s-.62.92-2 1.56l-2.78 1.33-3.54-1.83a8.82 8.82 0 0 1-1.6-1 1.3 1.3 0 0 1-.56-1.13 2.9 2.9 0 0 1 1-1.83h.06l.48-.1Zm2.58 6.66-.43.21 5.28.64c1.19.14 1.65.45 1.83.68a1.57 1.57 0 0 1 .17 1.17 2.66 2.66 0 0 1-1.55 2.26l-3.47 1.65 3.59 1.22a4.4 4.4 0 0 1 1.82 1c.27.27.24.42.23.49a2.58 2.58 0 0 1-1.33 1.39 4 4 0 0 1-1.49.39l-3.26.24 2.26 2.37v.16a2.19 2.19 0 0 1-1 1 1.64 1.64 0 0 1-.72.16 2.3 2.3 0 0 1-1.76-1 2.83 2.83 0 0 1-.53-2.08l2.52-1-2.74-1.56c-.88-.52-1.12-.87-1.17-1.07s.22-.71.71-1.26h.06l2-1.64-2.36-1c-1.24-.52-2.73-1.42-2.78-2.77 0-.47 0-1.06 1.69-1.29l2.46-.33Zm-3.21-8.3a.79.79 0 0 0-.42.13c-1.69 1.16-3.11 3.89-.91 5.73a10.8 10.8 0 0 0 1.87 1.23c-1.71.23-3.09 1-3 2.88s1.81 3.35 3.73 4.15l-.1.08c-.64.69-1.48 1.6-1.19 2.79a3.67 3.67 0 0 0 1.9 2 .66.66 0 0 0-.41.42 4.18 4.18 0 0 0 3.7 5.44 3.29 3.29 0 0 0 1.35-.29c1-.41 2.46-1.75 1.84-3.17a1.5 1.5 0 0 0-.3-.43 5.64 5.64 0 0 0 2.07-.55c1.38-.69 3.2-2.63 1.51-4.36a6.1 6.1 0 0 0-2.43-1.43 4.19 4.19 0 0 0 2.42-3.45c.35-2.6-1.44-3.37-3.35-3.61 1.68-.8 4-2.45 2.18-4.49-1-1.14-2.93-1.61-4.22-2a21.94 21.94 0 0 0-5.63-1h-.17a.8.8 0 0 0-.38-.1Z" class="color010101 svgShape"></path><path fill="#325bf5" d="M145.31 480.72s31.12 27.89 128.31 17.58c0 0 24.19-117.58-5.75-147.48-6.7-6.69-31.51-13.73-43.37-14.06-51.05-1.43-58.87 44.33-79.19 143.96Z" class="colorf58132 svgShape"></path><path fill="#010101" d="M273.62 498.3s14.81-95.23 4.6-126.34l-10.17 32.44s1.47 22.19 4.16 40.09c4.93 32.8-8.78 54.77-8.78 54.77Z" class="color010101 svgShape"></path><path fill="#ffffff" d="M223.69 341.76c-5.95 0-8.56-3.22-9.31-4.4 5.7-6.77 5.94-12.65 5.82-14.72l16.65-2.84a35.38 35.38 0 0 0-.37 18.3c-4.81 2.43-9.12 3.66-12.78 3.66Z" class="colorffffff svgShape"></path><path fill="#010101" d="M235.75 320.78a36.36 36.36 0 0 0-.16 16.9c-4.49 2.19-8.49 3.3-11.9 3.3-4.91 0-7.37-2.32-8.34-3.58 5-6.12 5.65-11.53 5.64-14.1l14.76-2.52Zm2.25-2L219.34 322s1.29 7-5.91 15.27c0 0 2.49 5.26 10.26 5.26 3.45 0 7.94-1 13.71-4 0 0-3-9.87.6-19.69Z" class="color010101 svgShape"></path><path fill="#ffffff" d="M222.45 328.38c-.53 0-1 0-1.57-.07-4.26-.36-7.37-1.92-9.23-4.64-3-4.43-3-12.05.15-22.64s11.2-18.4 19.2-18.4a12 12 0 0 1 3.38.49c8.78 2.6 12.92 14.86 9.24 27.32-3.19 10.9-11.51 17.94-21.17 17.94Z" class="colorffffff svgShape"></path><path fill="#010101" d="M231 283.41a10.88 10.88 0 0 1 3.16.46c4 1.17 7.06 4.48 8.74 9.34a28.26 28.26 0 0 1 0 17c-3.12 10.56-11.15 17.38-20.46 17.38-.5 0-1 0-1.49-.06-4.08-.35-6.91-1.75-8.66-4.3-2.89-4.23-2.8-11.63.26-22s10.82-17.84 18.48-17.84Zm0-1.55c-8.21 0-16.65 7.71-20 18.94-3.81 12.91-4.76 27.07 9.76 28.29.54 0 1.08.07 1.62.07 9.08 0 18.36-6.33 21.95-18.5 3.82-12.9-.55-25.56-9.76-28.28a12.35 12.35 0 0 0-3.6-.52Z" class="color010101 svgShape"></path><path fill="#010101" d="M242.3 300.81a6.17 6.17 0 0 1-5.39-5.1c-1.16-4.92-7.45-5-12.15-2.94s-12.11 2.47-17-.81c-3.72-2.5-7.81-10.73-.2-15.62 6.91-4.45 23.92-4.81 29.13-3.45 9.47 2.48 19.93 15.85 17.12 27.37-2 8.13-7.53 20.87-14.21 20.24 2.4-8.5 5.02-14.02 2.7-19.69Z" class="color010101 svgShape"></path><path fill="#ffffff" d="M241.55 314.46a2.48 2.48 0 0 1-1.56-.62 3.83 3.83 0 0 1-1.56-2.75c-.19-2.5 2.06-5 2.09-5a5.82 5.82 0 0 1 3.2-1.45 2.42 2.42 0 0 1 2 1.07c.83 1.08.66 3.34-.4 5.49-1 1.97-2.47 3.26-3.77 3.26Z" class="colorffffff svgShape"></path><path fill="#010101" d="M243.72 305.39a1.61 1.61 0 0 1 1.36.77c.63.83.43 2.84-.47 4.68s-2.07 2.84-3.06 2.84a1.76 1.76 0 0 1-1.08-.45 3.1 3.1 0 0 1-1.27-2.23c-.14-1.78 1.33-3.82 1.82-4.36a5 5 0 0 1 2.7-1.29Zm0-1.55a6.56 6.56 0 0 0-3.77 1.7s-4.89 5.32-.45 8.9a3.24 3.24 0 0 0 2.05.79c3.72 0 6.89-7.24 4.76-10a3.14 3.14 0 0 0-2.59-1.38ZM213.43 337.27s-6.64-.92-10.26 2.43c0 0-.48 6.83 9.25 12 2.93-7.29 8.48-9.39 8.48-9.39s-3.9-.47-7.47-5.04ZM220.9 342.28s2.85 6.11 3.49 10.23c0 0 12.38-4.84 18.49-12.27a9 9 0 0 0-5.48-1.73 32.35 32.35 0 0 1-16.5 3.77Z" class="color010101 svgShape"></path><path fill="#ffffff" d="M197.19 462.62a44 44 0 0 1-7.44-.63c-26.11-4.49-37.95-75.85-38.06-76.57l-.05-.29-.23-.18a20.7 20.7 0 0 1-3.43-3.83c-1.87-2.07-4-4.78-4.58-8.1a12.19 12.19 0 0 1-.14-2v-.35l-.26-.23a15.66 15.66 0 0 1-4.63-7.25 1.12 1.12 0 0 1 .1-1 1.5 1.5 0 0 1 1.07-.61l.82-.09-.13-.8a3 3 0 0 1 .08-1.52 2 2 0 0 1 1.05-1.11l.39-.2v-.44a5.53 5.53 0 0 1 .32-1.7 4.64 4.64 0 0 1 3.9-3.16l1.91-.18-1.5-1.2a26.54 26.54 0 0 0-9.15-4.43 1.25 1.25 0 0 1-.91-.85 1.6 1.6 0 0 1 .34-1.45 3.63 3.63 0 0 1 3-1.3c3.18 0 7.23 2.68 9.09 4.58a24 24 0 0 1 4.84 7.8c.28.39.39.56.49.72s.18.28.28.42l.66.89.61-.92.26-.42a5.14 5.14 0 0 1 .37-.54 6.44 6.44 0 0 1 4.39-2.37 2.67 2.67 0 0 1 1.87.72c1.42 1.28.56 3.19-.72 5.55-.26.49-.5.95-.7 1.37a23.32 23.32 0 0 0-2.37 8.54 25.64 25.64 0 0 0 1.4 6.35c.2.65.4 1.3.59 2 .09.31.2.65.31 1a18.84 18.84 0 0 1 .66 2.41c.66 1.73 15.33 39.4 31.64 40.88 4.07 0 27.54-16.51 30.9-26.78 1.28-4 2.64-8.54 3.93-13.26a43.52 43.52 0 0 1 16.25-24c7.83-5.63 9.57-5.8 16.07-6.43a6 6 0 0 1 .73 0c3.64 0 7.89 2.64 11.38 7.07 4.06 5.14 6 11.2 5 15.43-2.45 10.22-8.86 25.06-18.07 41.78-.24.44-.39.7-.42.78-13.91 27.42-38.8 45.9-61.91 45.9Z" class="colorffffff svgShape"></path><path fill="#010101" d="M139.66 343.94c2.92 0 6.82 2.6 8.53 4.35a23.27 23.27 0 0 1 4.68 7.55l.1.25.18.2a3.6 3.6 0 0 1 .28.4 4.13 4.13 0 0 0 .31.46l1.31 1.79 1.23-1.85c.1-.14.19-.3.28-.45a4.3 4.3 0 0 1 .29-.45 5.73 5.73 0 0 1 3.8-2.08 1.94 1.94 0 0 1 1.35.51c.92.83.45 2.15-.88 4.61-.27.51-.53 1-.72 1.42a24.17 24.17 0 0 0-2.44 9 26.44 26.44 0 0 0 1.43 6.48c.2.64.4 1.28.58 1.92.09.33.2.69.32 1.06a21.93 21.93 0 0 1 .64 2.3v.14l.05.13c.63 1.62 15.55 39.73 32.26 41.25h.21c4 0 28.07-16.84 31.5-27.32 1.63-5 3-10 3.94-13.29a42.72 42.72 0 0 1 16-23.59c7.67-5.5 9.21-5.66 15.69-6.29h.66c3.4 0 7.42 2.53 10.77 6.77 3.86 4.89 5.81 10.83 4.87 14.77-2.42 10.15-8.81 24.91-18 41.57l-.43.81c-13.8 27.24-38.41 45.54-61.24 45.54a43.36 43.36 0 0 1-7.31-.61c-25.56-4.4-37.31-75.22-37.43-75.93l-.09-.58-.45-.37a19.58 19.58 0 0 1-3.3-3.67l-.05-.08-.07-.07c-1.73-1.92-3.78-4.52-4.33-7.64A11.09 11.09 0 0 1 144 371v-.7l-.52-.47a14.91 14.91 0 0 1-4.41-6.9c-.07-.21 0-.3 0-.33a.74.74 0 0 1 .51-.26l1.63-.18-.27-1.62a2.26 2.26 0 0 1 0-1.12 1.23 1.23 0 0 1 .69-.69l.77-.42v-.87a5.36 5.36 0 0 1 .27-1.47 3.91 3.91 0 0 1 3.25-2.66l3.83-.36-3-2.4a27.51 27.51 0 0 0-9.41-4.56c-.29-.09-.37-.24-.4-.34a.85.85 0 0 1 .2-.73 2.89 2.89 0 0 1 2.38-1Zm0-1.55a4.41 4.41 0 0 0-3.57 1.58 2.15 2.15 0 0 0 .94 3.55 26.31 26.31 0 0 1 8.89 4.29 5.4 5.4 0 0 0-4.56 3.66 6.49 6.49 0 0 0-.37 1.93 2.8 2.8 0 0 0-1.41 1.53 3.7 3.7 0 0 0-.12 1.9 2 2 0 0 0-1.84 2.59 16.39 16.39 0 0 0 4.87 7.61 11.74 11.74 0 0 0 .14 2.12c.57 3.28 2.51 6 4.71 8.42a21 21 0 0 0 3.58 4s11.74 72.57 38.7 77.21a44.89 44.89 0 0 0 7.57.64c24.63 0 49.19-19.88 62.62-46.4.4-.81 14.37-25.23 18.55-42.72 2.11-8.82-8-23.46-17.15-23.46h-.81c-6.7.66-8.55.91-16.44 6.58a44.14 44.14 0 0 0-16.55 24.44c-1.09 4-2.45 8.69-3.92 13.22-3.29 10.06-26.82 26.25-30 26.25h-.07c-16-1.45-30.91-40.18-31-40.26-.23-1.25-.71-2.51-1-3.49-.76-2.67-1.81-5.28-2-8.06a22.29 22.29 0 0 1 2.3-8.25c1-2.21 3.65-5.63 1.24-7.82a3.49 3.49 0 0 0-2.4-.92 7.2 7.2 0 0 0-5 2.65 10.72 10.72 0 0 0-.67 1c-.24-.32-.4-.66-.68-1a24.6 24.6 0 0 0-5-8.05c-1.93-2-6.17-4.82-9.64-4.82Z" class="color010101 svgShape"></path><path fill="#325bf5" d="M218 397.71c1.35-4.17 10.31-30.65 26.5-41.85 7.37-5.09 21.32-9.16 28.4-.35 11.34 14.12 5 43.74-5.37 66.78-18.46.59-36.18-9.04-49.53-24.58Z" class="colorf58132 svgShape"></path><path fill="#ffffff" d="m243.04 303.44.62 3.64-1.9 6.14-1.25 2.71-5.3-1.79 2.43-8.31 3.2-2.77 2.2.38zM98.25 275.73S48.81 39 290.79 86.4Z" class="colorffffff svgShape"></path><path fill="#010101" d="M98.25 276.9a1.17 1.17 0 0 1-1.14-.93c0-.06-1.23-6-2.34-15.49a1.17 1.17 0 0 1 1-1.29 1.15 1.15 0 0 1 1.3 1c1.09 9.41 2.29 15.22 2.31 15.27a1.17 1.17 0 0 1-.91 1.38ZM94.58 246a1.16 1.16 0 0 1-1.17-1.09c-.31-5.23-.47-10.48-.48-15.61a1.17 1.17 0 0 1 1.16-1.17 1.17 1.17 0 0 1 1.17 1.17c0 5.09.17 10.29.48 15.47a1.16 1.16 0 0 1-1.09 1.23Zm0-31.08h-.07a1.16 1.16 0 0 1-1.1-1.23c.32-5.31.8-10.55 1.44-15.57a1.15 1.15 0 0 1 1.31-1 1.17 1.17 0 0 1 1 1.31c-.64 5-1.12 10.14-1.43 15.41a1.17 1.17 0 0 1-1.2 1.1Zm4-30.84h-.24a1.17 1.17 0 0 1-.91-1.38c1.09-5.22 2.38-10.32 3.84-15.17a1.17 1.17 0 0 1 2.24.67 168.51 168.51 0 0 0-3.79 15 1.17 1.17 0 0 1-1.21.9Zm9-29.69a1.2 1.2 0 0 1-.45-.09 1.17 1.17 0 0 1-.63-1.52 134.33 134.33 0 0 1 6.89-14.09 1.17 1.17 0 1 1 2 1.15 131.38 131.38 0 0 0-6.77 13.83 1.15 1.15 0 0 1-1.06.74Zm15.34-26.94a1.13 1.13 0 0 1-.71-.24 1.16 1.16 0 0 1-.22-1.63 110 110 0 0 1 10.32-11.8 1.16 1.16 0 0 1 1.65 0 1.15 1.15 0 0 1 0 1.64A108.44 108.44 0 0 0 123.83 127a1.17 1.17 0 0 1-.93.47Zm22-21.75a1.16 1.16 0 0 1-.69-2.1 109.9 109.9 0 0 1 13.27-8.35 1.15 1.15 0 0 1 1.57.47 1.17 1.17 0 0 1-.47 1.58 110.68 110.68 0 0 0-13 8.18 1.16 1.16 0 0 1-.69.24Zm27.25-14.66a1.17 1.17 0 0 1-.41-2.26 136.77 136.77 0 0 1 14.92-4.67 1.16 1.16 0 1 1 .57 2.25A137.32 137.32 0 0 0 172.57 91a1.19 1.19 0 0 1-.41.06Zm107.36-5.53h-.19c-5.19-.86-10.35-1.6-15.33-2.2a1.16 1.16 0 1 1 .28-2.31c5 .6 10.21 1.34 15.43 2.21a1.17 1.17 0 0 1-.19 2.32Zm-77.35-2.15a1.15 1.15 0 0 1-1.15-1 1.16 1.16 0 0 1 1-1.33c5-.75 10.21-1.31 15.52-1.65a1.08 1.08 0 0 1 1.24 1.08 1.16 1.16 0 0 1-1.08 1.24c-5.25.35-10.41.89-15.34 1.64Zm46.49-1.51h-.08a249.9 249.9 0 0 0-15.46-.58 1.17 1.17 0 1 1 0-2.33c5 0 10.28.23 15.6.58a1.17 1.17 0 0 1-.08 2.33Z" class="color010101 svgShape"></path><path fill="#ffffff" d="M238.38 128.2s-112.46-17.53-124.92 145.65Z" class="colorffffff svgShape"></path><path fill="#325bf5" d="M114.84 260.82h-.14a1.17 1.17 0 0 1-1-1.3c.62-5.26 1.38-10.45 2.26-15.42a1.16 1.16 0 1 1 2.29.4c-.86 4.93-1.61 10.08-2.24 15.3a1.17 1.17 0 0 1-1.17 1.02Zm5.39-30.58h-.27a1.16 1.16 0 0 1-.86-1.41c1.24-5.18 2.65-10.23 4.18-15a1.17 1.17 0 0 1 2.22.71 206.86 206.86 0 0 0-4.14 14.87 1.16 1.16 0 0 1-1.13.83Zm9.49-29.52a1.2 1.2 0 0 1-.45-.09 1.16 1.16 0 0 1-.62-1.52 154.85 154.85 0 0 1 6.72-14.11 1.17 1.17 0 0 1 2 1.11c-2.37 4.37-4.59 9.05-6.62 13.9a1.17 1.17 0 0 1-1.03.71Zm14.84-27.2a1.1 1.1 0 0 1-.67-.22 1.16 1.16 0 0 1-.29-1.62 117.58 117.58 0 0 1 9.86-12.19 1.17 1.17 0 0 1 1.71 1.59 115.14 115.14 0 0 0-9.66 11.92 1.18 1.18 0 0 1-.95.52Zm21.11-22.64a1.16 1.16 0 0 1-.91-.44 1.17 1.17 0 0 1 .18-1.64 102.62 102.62 0 0 1 13-8.82 1.16 1.16 0 1 1 1.16 2 99 99 0 0 0-12.68 8.62 1.15 1.15 0 0 1-.75.28Zm26.87-15.35a1.17 1.17 0 0 1-.41-2.26 103.91 103.91 0 0 1 15.07-4.44 1.15 1.15 0 0 1 1.39.89 1.18 1.18 0 0 1-.9 1.39 101.37 101.37 0 0 0-14.69 4.34 1 1 0 0 1-.46.08Zm45.84-6.17h-.17a80.06 80.06 0 0 0-15.29-.35 1.14 1.14 0 0 1-1.23-1.09 1.16 1.16 0 0 1 1.09-1.23 79 79 0 0 1 15.78.37 1.16 1.16 0 0 1-.18 2.31Z" class="colorf58132 svgShape"></path></svg>