<svg xmlns="http://www.w3.org/2000/svg" enable-background="new 0 0 1364 960" viewBox="0 0 1364 960" id="MobilesystemUpdate"><path fill="#8cc5ff" d="M1003.159,541.902c-7.339,1.622-18.822,3.104-37.923-0.788c-11.713-2.429-27.964-5.698-45.687-17.007
	c-0.765-0.489-2.119-1.339-3.815-2.562c-0.087-0.052-0.187-0.114-0.264-0.178c-0.163-0.092-0.327-0.208-0.501-0.311
	c-0.58-0.398-1.188-0.842-1.864-1.256c-12.657-9.2-37.823-30.586-38.206-58.508c-0.048-1.606-0.171-21.913,9.834-25.785
	c12.559-4.715,32.022,19.404,36.804,15.641c2.41-1.919-1.774-8.38-3.891-17.415c-4.948-20.257,1.324-48.414,18.481-55.219
	c8.091-3.299,18.946-1.848,26.506,4.218c12.396,9.72,7.237,32.154,9.139,32.376c2.765,0.204-0.134-44.436,22.296-56.527
	c7.891-4.206,19.565-4.746,25.305,0.558c8.399,7.791,0.304,25.027,5.259,27.369c5.253,2.482,13.327-16.991,35.181-25.301
	c5.559-2.068,18.606-7.004,29.051-0.59c9.105,5.467,13.744,17.439,11.626,27.455c-2.009,9.236-9.255,14.438-11.288,15.803
	c-13.046,9.091-24.146,1.694-49.185,8.926c-8.742,2.493-18.04,6.457-17.685,9.516c0.412,2.236,5.935,1.9,12.733,6.459
	c0.15,0.082,0.373,0.204,0.642,0.429c2.056,1.416,9.352,6.499,10.857,14.653c0.112,0.333,1.552,9.216-3.692,13.482
	c-2.667,2.25-6.049,2.29-7.523,2.362c-14.71,0.478-32.791,5.529-32.779,7.931c-0.064,2.753,23.647,1.76,26.6,10.473
	c2.442,7.243-10.787,17.073-12.498,18.337c-14.309,10.471-31.719,10.407-31.532,11.717c0.204,1.106,13.837-2.318,26.581,4.258
	c5.952,3.024,14.875,9.773,14.015,16.361C1024.772,536.893,1009.565,540.434,1003.159,541.902z" class="colord38cff svgShape"></path><path fill="#ffffff" d="M997.172,490.515c-1.096-3.068-4.641-3.927-7.571-3.911c-3.694,0.018-7.321,1.004-10.743,2.333
	c-7.2,2.796-13.85,7.377-21.611,8.543c-3.922,0.589-7.978,0.256-11.529-1.592c7.698-9.41,14.274-19.743,20.656-30.072
	c2.389-3.865,4.771-7.751,7.2-11.611c11.006-5.333,23.658,0.235,35.101-3.174c3.044-0.907,5.826-2.462,8.02-4.777
	c0.369-0.39-0.272-0.923-0.64-0.535c-4.204,4.435-10.479,5.602-16.346,5.733c-5.808,0.129-11.599-0.799-17.406-0.331
	c-2.733,0.22-5.418,0.798-7.945,1.851c6.583-10.407,13.553-20.586,22.045-29.535c10.286-10.836,22.886-20.017,37.45-24.011
	c1.827-0.493,3.673-0.906,5.527-1.225c0.523-0.106,0.45-0.928-0.075-0.846c-14.396,2.546-27.247,10.234-37.911,20.015
	c-1.819,1.664-3.552,3.404-5.247,5.178c0.017-0.093,0.014-0.192-0.051-0.292c-4.036-6.203-0.806-13.673,2.409-19.428
	c1.758-3.147,3.666-6.246,4.887-9.654c1.016-2.83,1.71-6.026,0.495-8.905c-0.209-0.493-0.994-0.213-0.786,0.283
	c1.421,3.365,0.085,7.24-1.32,10.383c-1.531,3.422-3.592,6.566-5.302,9.896c-2.809,5.473-4.699,12.323-1.071,17.901
	c0.117,0.18,0.291,0.187,0.446,0.132c-9.516,10.037-17.226,21.649-24.53,33.373c-4.049,6.499-8.029,13.062-12.187,19.499
	c-7.124-5.676-11.897-14.393-13.09-23.399c-0.652-4.92,0.031-9.628,1.416-14.364c1.504-5.142,3.51-10.227,3.784-15.635
	c0.271-5.338-1.415-11.068-6.033-14.19c-0.44-0.297-0.98,0.339-0.535,0.64c4.651,3.144,6.139,8.962,5.685,14.298
	c-0.466,5.472-2.587,10.591-4.035,15.84c-1.253,4.542-1.737,9.104-1.071,13.786c0.618,4.351,2.053,8.567,4.115,12.443
	c2.307,4.335,5.447,8.241,9.304,11.293c-5.081,7.826-10.448,15.45-16.607,22.489c-4.266,4.883-8.955,9.477-14.043,13.538
	c-0.001-13.491-11.893-22.795-16.665-34.562c-1.397-3.443-2.174-7.114-1.826-10.837c0.051-0.53-0.772-0.675-0.822-0.139
	c-1.283,13.683,10.612,23.465,15.905,34.896c1.6,3.454,2.628,7.132,2.587,10.959c-0.001,0.114,0.05,0.187,0.108,0.247
	c-3.882,3.034-7.987,5.762-12.348,8.018c0.174,0.103,0.338,0.218,0.501,0.311c0.077,0.064,0.177,0.126,0.264,0.178
	c7.434-3.893,14.218-9.089,20.289-14.992c3.25-3.164,6.279-6.519,9.158-9.998c5.95,3.203,13.018,2.165,19.08-0.143
	c7.038-2.681,13.469-7.041,20.943-8.515c3.447-0.68,9.679-1.315,11.183,2.898C996.569,491.303,997.353,491.02,997.172,490.515z" class="colorffffff svgShape"></path><path fill="#8cc5ff" d="M520.496,721.413c1.15,7.901-0.822,16.66-0.822,16.66s-2.014,22.309-9.577,40.966
	c-2.723,6.578-6.794,16.685-15.981,26.4c-1.003,0.988-2.005,1.975-3.009,2.964c-1.016,0.959-2.061,1.862-3.189,2.664
	c-0.817,0.648-1.631,1.296-2.474,1.886c-0.431,0.353-0.844,0.662-1.301,0.958c-14.311,10.174-29.274,12.594-35.038,13.332
	c-5.549,0.598-25.541,2.226-45.464-8.929c-12.32-6.918-27.18-19.955-23.891-28.262c0.723-1.56,1.927-2.788,1.9-5.006
	c0.105-4.408-4.456-6.987-10.169-10.983c-10.596-7.374-15.944-10.983-17.19-15.4c-0.638-2.024-0.262-6.884,0.437-16.506
	c0.477-6.68,0.763-7.033,0.246-8.302c-2.769-6.221-13.048-2.629-22.687-8.56c-7.359-4.605-12.894-13.861-11.735-22.398
	c0.763-5.014,3.23-5.906,5.774-15.158c1.783-6.541,2.633-9.934,2.048-13.294c-2.306-13.071-24.808-12.229-25.749-23.171
	c-0.457-5.408,4.521-11.357,9.271-17.052c4.934-5.75,7.369-6.201,9.094-8.748c10.048-14.458-35.378-51.242-30.112-57.545
	c4.031-4.776,40.898,5.397,60.972,21.118c3.068,2.497,8.931,7.518,17.365,7.239c9.727-0.24,13.094-7.239,19.554-6.053
	c3.238,0.678,4.701,2.865,16.943,23.703c3.875,6.67,6.542,11.31,10.27,10.969c3.643-0.3,5.528-5.192,10.72-5.508
	c0.825-0.122,2.617-0.081,5.223,1.333c8.727,4.501,14.333,17.298,16.945,23.631c5.279,12.639,6.877,19.504,9.994,19.286
	c3.088-0.346,3.607-7.012,9.081-8.847c3.905-1.208,8.085,0.814,10.446,2.666c3.321,2.656,3.976,6.443,4.786,17.839
	c0.852,11.694,0.581,13.527,1.274,19.703c1.016,10.658,1.982,20.349,6.383,21.093c3.978,0.669,6.618-6.435,14.318-7.416
	c0.328-0.054,6.206-0.707,10.446,2.666C518.422,713.577,519.93,717.442,520.496,721.413z" class="colorab8cff svgShape"></path><path fill="#ffffff" d="M496.38,736.18c2.987,6.389-2.354,12.746-5.279,18.079c-2.781,5.071-5.142,10.374-7.049,15.835
	c-3.634,10.411-5.528,21.37-5.774,32.389c-0.028-0.036-0.051-0.072-0.08-0.109c-7.558-10.35-16.031-20.112-24.178-29.856
	c-8.398-10.046-16.654-20.303-23.554-31.473c-5.745-9.329-9.937-19.243-13.771-29.367c-0.003-0.006-0.005-0.011-0.007-0.017
	c3.482-11.666,11.303-21.164,15.734-32.376c3.882-9.823,4.071-22.436-4.99-29.53c-0.806-0.631-1.682,0.696-0.879,1.325
	c9.581,7.5,7.585,21.047,3.045,30.742c-4.364,9.32-10.449,17.702-13.789,27.483c-0.007-0.017-0.013-0.034-0.02-0.051
	c-0.446-1.198-0.892-2.396-1.337-3.594c-3.61-9.81-7.433-19.622-13.454-28.213c-4.136-5.974-8.786-11.552-13.593-16.949
	c2.624-11.108,2.092-23.358-2.331-33.945c-0.394-0.945-1.82-0.241-1.427,0.7c4.121,9.866,4.715,21.331,2.447,31.755
	c-0.246-0.289-0.504-0.541-0.75-0.832c-11.607-12.898-23.927-25.234-36.809-36.834c-1.129-1.004-2.273-2.036-3.432-3.026
	c-0.749-0.659-1.937,0.384-1.188,1.043c12.362,10.758,24.049,22.378,35.206,34.363c5.924,6.372,11.706,12.885,17.044,19.793
	c1.21,1.603,2.379,3.189,3.432,4.832c0.001,0.002,0.004,0.004,0.005,0.007c-5.577,2.202-11.245-0.602-16.377-2.74
	c-4.521-1.883-9.254-3.13-14.129-3.636c-9.634-1-19.463,0.857-28.069,5.294c-0.908,0.469-0.21,1.897,0.701,1.427
	c9.135-4.71,19.61-6.389,29.768-4.81c5.233,0.813,9.908,2.758,14.776,4.731c4.555,1.847,9.472,3.063,14.198,1.11
	c0.019-0.008,0.016-0.027,0.035-0.036c0.001,0.003,0.004,0.007,0.007,0.01c3.403,5.202,6.22,10.654,8.637,16.516
	c4.901,11.939,8.519,24.366,14.419,35.886c5.747,11.205,13.135,21.498,20.967,31.326c0.663,0.844,1.354,1.673,2.043,2.504
	c0.002,0.003,0.005,0.005,0.008,0.008c-13.556,1.087-27.828,2.104-40.565-3.617c-2.946-1.325-5.709-3.021-8.212-5.063
	c-2.423-1.977-4.639-4.257-7.39-5.794c-5.14-2.87-11.03-2.116-16.595-1.235c-1.013,0.16-0.714,1.723,0.296,1.562
	c3.182-0.504,6.418-1.011,9.648-0.716c3.314,0.304,6.101,1.663,8.693,3.711c2.546,2.01,4.836,4.283,7.561,6.063
	c2.454,1.603,5.104,2.909,7.842,3.949c12.55,4.771,26.208,3.731,39.314,2.677c0.221-0.017,0.353-0.126,0.456-0.251
	c0.007,0.006,0.012,0.013,0.017,0.02c10.229,12.547,21.173,24.673,30.573,37.839c0.027,0.039,0.057,0.082,0.086,0.123
	c0.061,0.135,0.118,0.255,0.234,0.332c0.009,0.015,0.021,0.032,0.031,0.045c1.943,2.73,3.828,5.489,5.57,8.317
	c0.457-0.295,0.87-0.604,1.301-0.958c-1.799-2.871-3.698-5.658-5.654-8.417c-0.005-0.007-0.009-0.013-0.014-0.019
	c0.051-12.403,2.286-24.73,6.664-36.341c2.232-5.918,5.036-11.559,8.269-16.992c2.82-4.741,5.664-10.216,3.1-15.703
	C497.374,734.552,495.946,735.252,496.38,736.18z" class="colorffffff svgShape"></path><ellipse cx="704.332" cy="900.111" fill="#e6edf5" rx="427.668" ry="21.899" class="colore6e7f5 svgShape"></ellipse><path fill="#8cc5ff" d="M877.124 353.489c1.274-4.643 7.09-6.817 11.713-5.507 4.623 1.31 8.113 5.139 10.752 9.174 4.27 6.527 6.763 13.374 9.054 20.644.865-7.181 1.992-14.33 3.339-21.419.89-4.688 1.886-9.36 2.982-14.011-10.424-2.934-19.939-9.046-26.917-17.33-2.644-3.14-5.047-7.184-3.951-11.14 1.28-4.622 7.097-6.796 11.715-5.5 4.618 1.296 8.099 5.1 10.73 9.109 4.417 6.733 6.921 13.815 9.27 21.353 3.539-14.293 8.086-28.345 13.818-41.897-9.642-4.571-17.906-12.022-23.399-21.172-2.114-3.52-3.845-7.893-2.135-11.626 1.997-4.36 8.085-5.584 12.439-3.572 4.354 2.01 7.188 6.318 9.15 10.695 3.179 7.091 4.547 14.221 5.649 21.734 6.267-14.189 14.068-28.333 25.144-39.258.23-.227.471-.444.703-.67-9.029-5.905-16.256-14.545-20.433-24.496-1.59-3.785-2.678-8.362-.454-11.811 2.6-4.031 8.8-4.373 12.822-1.76 4.022 2.612 6.212 7.28 7.529 11.892 2.321 8.126 2.516 15.99 2.487 24.317 13.139-12.271 28.596-22.172 41.292-34.876-9.247-5.911-16.653-14.671-20.902-24.793-1.59-3.785-2.679-8.362-.453-11.812 2.599-4.03 8.799-4.372 12.821-1.76 4.022 2.612 6.212 7.28 7.529 11.892 2.383 8.344 2.525 16.413 2.484 24.99 3.116-3.231 6.049-6.647 8.713-10.337 5.394-7.472 9.135-16.027 11.396-25.039-10.747-3.253-20.442-9.91-27.31-18.795-2.51-3.248-4.741-7.39-3.48-11.297 1.474-4.564 7.377-6.491 11.936-5.003 4.559 1.488 7.877 5.435 10.338 9.552 4.512 7.55 6.726 15.418 8.924 23.843 3.348-14.619 2.861-30.323-.807-44.511-9.318-4.118-17.463-10.882-23.17-19.325-2.299-3.402-4.262-7.677-2.755-11.495 1.761-4.461 7.775-6.009 12.23-4.234 4.455 1.776 7.516 5.925 9.709 10.191 3.499 6.804 5.247 13.738 6.734 21.053.188.205.341.462.433.79 3.393 12.006 4.295 24.66 3.027 37.056-.279 2.734-.66 5.47-1.143 8.192 5.288-8.382 12.882-15.308 21.752-19.735 3.673-1.834 8.169-3.22 11.757-1.225 4.192 2.33 4.938 8.494 2.595 12.678-2.343 4.185-6.859 6.675-11.374 8.291-8.423 3.013-16.709 3.632-25.569 4.161-1.264 5.662-3.054 11.2-5.606 16.401-3.864 7.877-9.08 14.683-15.016 20.874 8.708-5.355 18.939-8.225 29.164-8.113 4.105.045 8.738.864 11.02 4.276 2.666 3.986.516 9.812-3.479 12.466-3.995 2.653-9.148 2.808-13.904 2.185-9.112-1.195-16.943-4.573-25.317-8.262-10.087 9.928-21.902 18.356-32.672 27.304-3.39 2.817-6.676 5.707-9.788 8.761 9.15-6.286 20.252-9.696 31.354-9.588 4.105.04 8.739.853 11.025 4.262 2.672 3.983.529 9.812-3.462 12.47-3.991 2.659-9.145 2.821-13.901 2.204-9.322-1.21-17.305-4.705-25.902-8.479-3.282 3.291-6.351 6.785-9.104 10.611-5.034 6.999-9.266 14.561-13.001 22.321-.994 2.064-1.948 4.146-2.876 6.242 7.717-6.464 17.246-10.762 27.213-12.203 4.063-.588 8.766-.492 11.546 2.528 3.249 3.528 2.022 9.616-1.516 12.853-3.539 3.237-8.607 4.185-13.402 4.3-8.859.215-16.853-1.759-25.34-4.011-5.599 13.24-9.959 27.033-13.391 40.992 6.15-8.518 14.797-15.223 24.605-18.997 3.831-1.474 8.439-2.424 11.82-.096 3.95 2.72 4.104 8.928 1.371 12.869-2.732 3.942-7.464 5.989-12.114 7.166-8.824 2.233-17.269 2.011-26.314 1.681-.44 1.854-.87 3.71-1.279 5.568-2.245 10.199-4.036 20.538-5.248 30.941 6.117-8.204 14.571-14.659 24.126-18.334 3.831-1.474 8.439-2.424 11.82-.096 3.95 2.72 4.104 8.928 1.371 12.87-2.733 3.941-7.465 5.988-12.115 7.165-8.581 2.171-16.804 2.022-25.567 1.709-1.239 11.876-1.704 23.827-1.19 35.741.107 2.482-3.75 2.477-3.856 0-.52-12.031-.025-24.099 1.235-36.089-10.469-2.959-20.034-9.128-27.05-17.49C878.445 361.533 876.034 357.464 877.124 353.489zM476.984 293.367c-2.993 2.537-5.705 5.367-8.108 8.445 3.007 1.632 4.944 6.117 2.425 10.929-1.135 2.168-4.012 5.765-5.673 7.534-4.768 5.079-6.72 12.727-5.105 19.997-1.86-4.761-3.731-9.558-4.668-14.503-.937-4.945-2.554-11.532-.654-15.92 1.835-4.238 5.961-9.885 11.919-8.66 1.76-2.312 3.687-4.491 5.776-6.518-6.653 2.044-13.423 3.78-20.29 5.195-.043.087-.101.172-.194.246-3.37 2.734-6.398 5.836-9.047 9.24 3.016 1.625 4.963 6.116 2.44 10.937-1.135 2.168-4.012 5.764-5.673 7.534-4.767 5.079-6.72 12.727-5.104 19.996-1.86-4.76-3.732-9.558-4.668-14.503-.937-4.945-2.554-11.532-.654-15.919 1.836-4.238 5.961-9.886 11.92-8.66 2.262-2.971 4.805-5.721 7.608-8.212-6.573 1.25-13.226 2.219-19.943 2.883-3.366 2.732-6.391 5.831-9.038 9.232 3.016 1.625 4.963 6.116 2.44 10.937-1.135 2.168-4.012 5.765-5.673 7.534-4.768 5.079-6.72 12.727-5.105 19.996-1.86-4.76-3.732-9.557-4.669-14.503-.937-4.945-2.554-11.532-.654-15.919 1.836-4.239 5.962-9.887 11.922-8.66 2.304-3.025 4.897-5.821 7.761-8.348-3.218.275-6.448.5-9.69.639-2.713.116-5.437.129-8.16.15-3.643 1.601-7.084 3.554-10.282 5.825 2.549 2.327 3.292 7.054-.462 10.915-1.692 1.74-5.482 4.365-7.59 5.591-6.051 3.521-9.986 10.198-10.291 17.46-.595-4.966-1.192-9.97-.824-14.868.368-4.897.492-11.517 3.522-15.142 2.927-3.501 8.49-7.725 14.068-5.005 2.426-1.769 4.991-3.358 7.686-4.747-8.369-.083-16.771-.645-25.168-1.611-4.081 1.072-7.985 2.566-11.669 4.436 2.247 2.624 2.351 7.353-1.949 10.616-1.936 1.469-6.098 3.514-8.381 4.423-6.553 2.611-11.415 8.599-12.713 15.657.081-4.938-1.137-10.629-.099-15.367 1.037-4.737 3.37-10.475 6.906-13.603 3.414-3.02 9.57-6.384 14.796-2.966 2.814-1.466 5.756-2.719 8.807-3.734-7.444-.99-14.867-2.324-22.253-3.997-.066.034-.126.074-.211.092-4.348.864-8.529 2.196-12.488 3.949 2.13 2.719 2.004 7.43-2.475 10.463-2.015 1.364-6.293 3.19-8.63 3.981-6.705 2.269-11.88 7.98-13.532 14.932.326-4.904-.523-10.694.753-15.351 1.276-4.658 3.807-10.175 7.511-13.108 3.576-2.832 9.919-5.87 14.994-2.212 3.273-1.489 6.699-2.692 10.243-3.591-7.69-1.867-15.326-4.093-22.869-6.693-.219-.076-3.414-1.045-8.507-1.931-.082 3.074-2.793 6.146-7.999 6.049-2.539-.047-7.343-.985-9.852-1.659-7.201-1.935-14.939-.326-20.232 4.205 2.989-3.661 6.003-7.347 9.699-10.289 3.696-2.942 8.401-7.179 13.303-7.427 4.732-.239 12.031.893 14.524 6.562 3.186.551 6.357 1.323 9.482 2.325.033.009.06.002.094.013.153.053.306.1.459.152.074.024.15.049.224.074 4.507 1.539 9.046 2.939 13.608 4.217-2.631-2.306-5.097-4.786-7.385-7.414-.036.01-.071.027-.108.037-6.142 1.666-11.238-4.366-13.678-8.825-2.441-4.459-2.959-10.807-2.605-15.77.355-4.964 3.03-10.015 4.338-14.772-.76 7.292 2.122 15.037 7.537 20.25 1.887 1.816 5.218 5.498 6.622 7.706 2.917 4.589 1.858 8.806-.618 10.625 2.931 3.335 6.159 6.421 9.655 9.196 7.507 1.979 15.076 3.587 22.672 4.845-3.34-2.732-6.44-5.732-9.27-8.959-5.806.965-10.762-4.893-13.215-9.231-2.538-4.488-3.212-10.803-2.984-15.723.229-4.919 2.763-9.865 3.944-14.556-.574 7.22 2.485 14.982 8 20.295 1.922 1.851 5.326 5.59 6.776 7.818 3.227 4.953 1.918 9.372-.875 10.863 3.109 3.5 6.547 6.72 10.282 9.586.152.116.24.256.303.4 2.114.324 4.23.619 6.348.886 5.674.715 11.348 1.159 17.015 1.468-3.078-2.578-5.95-5.384-8.583-8.39-5.801.956-10.752-4.898-13.204-9.233-2.538-4.489-3.212-10.804-2.984-15.723.228-4.919 2.762-9.865 3.944-14.557-.574 7.221 2.485 14.982 7.999 20.295 1.922 1.851 5.326 5.591 6.777 7.818 3.222 4.947 1.921 9.36-.865 10.857 2.931 3.294 6.155 6.34 9.641 9.078 7.468.322 14.909.287 22.303-.097-3.433-2.784-6.616-5.853-9.515-9.159-5.806.966-10.763-4.893-13.216-9.231-2.538-4.488-3.212-10.804-2.984-15.722.228-4.919 2.763-9.865 3.944-14.556-.574 7.22 2.485 14.982 8 20.295 1.921 1.851 5.326 5.59 6.777 7.818 3.226 4.953 1.917 9.371-.876 10.863 3.109 3.5 6.547 6.72 10.282 9.586.001.001.002.002.003.003 6.71-.419 13.364-1.164 19.959-2.168-3.496-2.808-6.731-5.915-9.671-9.269-5.722.942-10.605-4.832-13.024-9.108-2.503-4.428-3.168-10.658-2.943-15.511.225-4.852 2.725-9.732 3.89-14.36-.567 7.123 2.452 14.78 7.892 20.022 1.896 1.826 5.254 5.515 6.685 7.712 3.179 4.88 1.895 9.234-.854 10.711 3.066 3.451 6.456 6.626 10.139 9.452.017.012.023.029.038.042 6.474-1.049 12.865-2.416 19.178-4.032-3.362-2.744-6.482-5.761-9.329-9.007-5.806.966-10.762-4.893-13.215-9.231-2.538-4.488-3.212-10.804-2.984-15.723.228-4.919 2.763-9.865 3.944-14.557-.574 7.22 2.486 14.982 8 20.295 1.922 1.851 5.326 5.591 6.777 7.818 3.222 4.947 1.921 9.36-.865 10.858 2.926 3.287 6.142 6.327 9.62 9.061.719-.192 1.452-.342 2.169-.541 30.658-8.501 58.878-23.634 82.347-44.163 1.044-.913 2.69.794 1.644 1.709-13.255 11.594-27.997 21.507-43.853 29.475C496.927 286.011 487.097 290.042 476.984 293.367z" class="colorab8cff svgShape"></path><path fill="#8cc5ff" d="M397.448,242.201c16.557-3.504,40.01-30.291,56.692-26.479c0.302,19.854-28.215,15.441-40.962,24.837
	c-10.974,10.094,29.669,24.235,49.952,15.574c16.848-6.394,14.402-29.339,36.669-58.887c18.671-25.527,28.962-24.575,33.143-41.13
	c7.644-30.291-19.056-63.964-22.805-62.584c-1.514,0.557,1.404,6.521,0.56,20.612c1.006,1.35-9.006,55.616-19.814,35.227
	c-5.716-24.338,22.972-36.376,10.461-65.079c-9.389-21.518-42.658-26.915-43.802-24.665c16.113,6.955,18.987,52.048,8.583,68.104
	c-7.033,9.114-9.67-0.101-9.308-10.524c-3.35-34.444-2.727-52.829-24.478-70.306c-26.662-21.423-54.962,2.553-93.472,2.245
	c0,0-16.926,44.1-3.06,72.615c13.345,27.444,42.119,8.904,60.621,18.149c8.401,3.22,8.617,14.761,2.252,19.21
	c-9.522,9.675-27.31,7.566-40.121,5.904c-21.223-2.764-27.927-8.569-31-5.082c-8.439,8.961,19.445,42.695,38.377,39.421
	c22.199,5.69,53.908-27.933,74.853-14.182c-2.556,17.983-50.784,30.085-70.226,28.023c-10.108-2.252-16.217-8.039-17.459-6.632
	C356.186,217.332,382.366,244.349,397.448,242.201z" class="colord38cff svgShape"></path><path fill="#ffffff" d="M435.895,245.403c5.277,0.264,10.559-0.793,15.35-3.007c4.653-2.144,8.603-5.391,11.89-9.29
	c3.595-4.282,6.423-9.113,9.372-13.845c3.205-5.119,6.676-10.082,10.465-14.788c1.716-2.12,3.426-4.3,5.368-6.219
	c1.617-1.6,3.612-3.046,6.002-2.867c0.027,0.002,0.039-0.018,0.065-0.016c0.323,0.272,0.657,0.524,0.974,0.807
	c1.065,0.93,2.113,1.891,3.121,2.897c0.102-0.174,0.22-0.326,0.342-0.488c-1.838-1.798-3.783-3.508-5.816-5.09
	c-0.004-0.017-0.008-0.033-0.019-0.039c-0.664-0.887-1.152-1.932-1.528-2.981c-0.359-0.983-0.707-2.126-0.503-3.177
	c0.314-1.566,1.229-3.027,2.072-4.365c0.854-1.333,1.743-2.657,2.656-3.953c6.43-9.124,14.123-17.421,19.364-27.34
	c4.302-8.156,6.997-17.518,5.245-26.753c-0.07-0.372-0.65-0.23-0.575,0.158c1.013,5.38,0.492,10.907-1.022,16.152
	c-2.964,10.266-9.393,18.921-15.839,27.277c-3.575,4.625-7.203,9.22-10.342,14.158c-1.151,1.818-2.501,3.947-2.121,6.184
	c0.202,1.251,0.674,2.534,1.304,3.69c-5.827-4.297-12.285-7.641-18.69-10.981c-0.293-0.158-0.602-0.313-0.895-0.471
	c0,0,0,0-0.004-0.017c-2.872-4.447-4.203-9.684-4.431-14.946c-0.472-10.73,3.782-20.609,8.302-30.098
	c1.237-2.595,2.49-5.195,3.687-7.814c1.126-2.453,2.25-4.95,3.024-7.556c1.299-4.434,1.454-9.527-1.303-13.465
	c-0.218-0.308-0.744-0.024-0.516,0.29c3.472,4.952,2.12,11.257,0.016,16.472c-4.19,10.358-10.346,20.002-12.792,31.028
	c-1.878,8.465-1.499,17.995,3.012,25.585c-5.997-3.142-11.981-6.4-17.343-10.575c-2.928-2.288-5.582-4.856-8.048-7.602
	c-0.015-0.022-0.013-0.048-0.037-0.077c-0.031-0.018-0.055-0.046-0.096-0.07c-2.227-2.495-4.306-5.125-6.291-7.823
	c-3.3-4.493-6.387-9.135-9.637-13.666c-1.375-5.703-1.282-11.675-0.8-17.486c0.855-10.431,3.573-20.911,2.041-31.408
	c-1.371-9.342-7.154-19.155-16.968-21.315c-0.377-0.085-0.534,0.486-0.156,0.57c5.458,1.198,9.831,5.039,12.685,9.751
	c5.516,9.118,4.617,20.186,3.265,30.311c-1.248,9.318-2.828,19.06-0.929,28.395c-0.419-0.578-0.832-1.165-1.261-1.748
	c-4.287-5.721-9.104-10.94-14.529-15.593c-11.118-9.533-23.972-16.722-36.712-23.803c-0.328-0.193-0.629,0.32-0.301,0.512
	c1.561,0.863,3.121,1.726,4.676,2.599c12.242,6.871,24.49,14.131,34.832,23.717c-3.537-1.418-7.587-1.237-11.32-1.102
	c-4.678,0.171-10.123,0.167-13.584-3.51c-0.264-0.279-0.686,0.134-0.423,0.413c3.238,3.449,8.292,3.858,12.748,3.736
	c4.638-0.126,9.791-0.68,13.948,1.793c0.02,0.012,0.032-0.009,0.052,0.003c0,0,0,0,0.01,0.006c5.087,4.924,9.414,10.46,13.49,16.236
	c3.9,5.535,7.615,11.195,11.875,16.472c0.407,0.502,0.832,1,1.246,1.492c-4.692-2.76-10.636-2.92-15.898-1.782
	c-6.083,1.316-11.522,4.583-16.822,7.712c-5.263,3.109-10.615,5.903-16.388,7.911c-11.12,3.855-23.088,5.143-34.769,3.718
	c-0.38-0.057-0.379,0.55-0.003,0.591c6.367,0.781,12.819,0.757,19.182-0.05c5.707-0.724,11.329-2.077,16.742-4.036
	c5.584-2.038,10.753-4.802,15.859-7.81c5.323-3.142,10.797-6.376,16.941-7.586c5.675-1.116,12.217-0.659,16.807,3.213
	c3.625,4.008,7.643,7.585,12.15,10.636c6.194,4.167,12.923,7.45,19.509,10.925c0.566,0.305,1.121,0.604,1.675,0.903
	c-4.1-0.109-8.214,1.001-11.913,2.741c-3.979,1.865-7.494,4.582-10.948,7.265c-3.573,2.793-7.169,5.531-11.014,7.943
	c-7.458,4.686-15.514,8.371-23.926,10.951c-0.37,0.113-0.218,0.699,0.142,0.579c4.615-1.422,9.139-3.158,13.493-5.216
	c3.914-1.848,7.711-3.944,11.344-6.274c3.727-2.399,7.214-5.091,10.702-7.81c3.499-2.712,7.083-5.43,11.158-7.224
	c3.778-1.665,7.965-2.664,12.111-2.307c0.017-0.004,0.012-0.021,0.023-0.014c4.895,2.673,9.656,5.571,13.989,9.057
	c-2.115,0.079-3.961,1.296-5.471,2.738c-2.226,2.096-4.132,4.587-6.042,6.966c-3.682,4.618-7.075,9.447-10.202,14.46
	c-3.01,4.834-5.889,9.8-9.62,14.127c-3.39,3.934-7.47,7.118-12.244,9.164c-4.478,1.916-9.371,2.802-14.234,2.561
	C435.52,244.797,435.517,245.388,435.895,245.403z" class="colorffffff svgShape"></path><path fill="#ffffff" d="M917.982,171.68v690.054c0,14.523-11.6,26.297-25.941,26.297H504.426c-14.31,0-25.931-11.774-25.931-26.297
	V171.68c0-14.544,11.621-26.307,25.931-26.307h102.724c-0.03,0.479-0.071,0.957-0.071,1.446v14.992
	c0,10.806,8.759,19.565,19.565,19.565h144.879c10.806,0,19.565-8.759,19.565-19.565v-14.992c0-0.489-0.041-0.967-0.071-1.446
	h101.023C906.381,145.373,917.982,157.136,917.982,171.68z" class="colorffffff svgShape"></path><path fill="#95aabf" d="M904.018,126.174H494.15c-15.135,0-27.418,12.263-27.418,27.407v719.101
	c0,15.145,12.283,27.428,27.418,27.428h409.868c15.145,0,27.398-12.283,27.398-27.428V153.582
	C931.416,138.437,919.163,126.174,904.018,126.174z M917.982,861.734c0,14.523-11.6,26.297-25.941,26.297H504.426
	c-14.31,0-25.931-11.774-25.931-26.297V171.68c0-14.544,11.621-26.307,25.931-26.307h102.724c-0.03,0.479-0.071,0.957-0.071,1.446
	v14.992c0,10.806,8.759,19.565,19.565,19.565h144.879c10.806,0,19.565-8.759,19.565-19.565v-14.992c0-0.489-0.041-0.967-0.071-1.446
	h101.023c14.34,0,25.941,11.764,25.941,26.307V861.734z" class="color959abf svgShape"></path><path fill="#ffffff" d="M760.776 163.631h-82.879c-4.495 0-8.143-3.145-8.143-7.025l0 0c0-3.88 3.647-7.026 8.143-7.026h82.879c4.496 0 8.144 3.145 8.144 7.026l0 0C768.92 160.486 765.273 163.631 760.776 163.631zM636.248 156.606c0-5.975 4.844-10.82 10.819-10.82 5.977 0 10.82 4.845 10.82 10.82 0 5.974-4.844 10.819-10.82 10.819C641.092 167.426 636.248 162.581 636.248 156.606z" class="colorffffff svgShape"></path><path fill="#95aabf" d="M639.033,156.606c0-4.438,3.597-8.035,8.034-8.035c4.437,0,8.035,3.597,8.035,8.035
	c0,4.437-3.598,8.033-8.035,8.033C642.63,164.639,639.033,161.043,639.033,156.606z" class="color959abf svgShape"></path><path fill="#ffffff" d="M642.837,153.031c0-1.259,1.019-2.28,2.279-2.28c1.259,0,2.279,1.021,2.279,2.28
	c0,1.26-1.021,2.28-2.279,2.28C643.857,155.311,642.837,154.291,642.837,153.031z" class="colorffffff svgShape"></path><path fill="#c8d5e3" d="M804.442 286.202H528.1c-8.313 0-15.052-6.739-15.052-15.052l0 0c0-8.313 6.739-15.052 15.052-15.052h276.342c8.313 0 15.052 6.739 15.052 15.052l0 0C819.494 279.463 812.755 286.202 804.442 286.202zM877.245 287.167h-29.242c-7.326 0-13.264-5.938-13.264-13.264v-4.058c0-7.326 5.939-13.264 13.264-13.264h29.242c7.326 0 13.264 5.939 13.264 13.264v4.058C890.509 281.228 884.57 287.167 877.245 287.167z" class="colorc8cbe3 svgShape"></path><path fill="#6eb1f5" d="M816.961,761.19H621.714c-8.378,0-15.169-6.791-15.169-15.169v-36.617c0-8.378,6.791-15.169,15.169-15.169
	h195.246c8.378,0,15.169,6.791,15.169,15.169v36.617C832.13,754.398,825.338,761.19,816.961,761.19z" class="color816ef5 svgShape"></path><path fill="#ffffff" d="M651.124 712.966h8.941v17.276c0 1.713-.268 3.331-.803 4.853-.533 1.522-1.371 2.853-2.512 3.992-1.14 1.14-2.338 1.941-3.59 2.402-1.74.645-3.831.969-6.27.969-1.412 0-2.951-.099-4.619-.296-1.669-.198-3.063-.59-4.184-1.176-1.121-.586-2.147-1.419-3.076-2.5-.929-1.08-1.566-2.194-1.909-3.34-.554-1.845-.831-3.479-.831-4.902v-17.276h8.941v17.688c0 1.581.438 2.816 1.315 3.705.877.89 2.093 1.334 3.649 1.334 1.544 0 2.753-.438 3.63-1.314.877-.876 1.316-2.118 1.316-3.725V712.966zM665.958 712.966h14.895c3.244 0 5.673.771 7.288 2.314 1.615 1.543 2.424 3.739 2.424 6.587 0 2.927-.88 5.216-2.641 6.864-1.76 1.648-4.447 2.472-8.059 2.472h-4.906v10.76h-9V712.966zM674.958 725.329h2.196c1.727 0 2.939-.3 3.639-.9.698-.6 1.048-1.368 1.048-2.305 0-.91-.304-1.681-.91-2.314-.608-.633-1.748-.949-3.422-.949h-2.552V725.329zM695.37 712.966h13.312c2.625 0 4.744.356 6.359 1.068 1.615.713 2.951 1.734 4.007 3.066 1.054 1.333 1.819 2.882 2.294 4.648.475 1.767.712 3.64.712 5.617 0 3.099-.353 5.502-1.058 7.21-.706 1.708-1.684 3.139-2.938 4.293-1.252 1.154-2.597 1.922-4.035 2.304-1.965.528-3.745.791-5.341.791H695.37V712.966zM704.332 719.534v15.843h2.195c1.873 0 3.204-.208 3.996-.623.791-.415 1.41-1.141 1.86-2.176.448-1.035.672-2.713.672-5.034 0-3.072-.5-5.176-1.502-6.309-1.003-1.135-2.664-1.701-4.985-1.701H704.332zM742.848 737.177h-10.172l-1.413 4.787h-9.149l10.899-28.997h9.773l10.897 28.997H744.3L742.848 737.177zM740.99 730.907l-3.201-10.424-3.167 10.424H740.99zM751.704 712.966h27.238v7.161h-9.139v21.837h-8.96v-21.837h-9.139V712.966zM782.975 712.966h24.014v6.191h-15.033v4.609h13.945v5.914h-13.945v5.716h15.468v6.567h-24.449V712.966z" class="colorffffff svgShape"></path><path fill="#ccdae8" d="M650.501,527.129c-16.546,0-29.961,13.415-29.961,29.961c0,16.546,13.415,29.961,29.961,29.961
	s29.961-13.415,29.961-29.961C680.462,540.544,667.047,527.129,650.501,527.129z M650.501,573.675
	c-9.161,0-16.585-7.424-16.585-16.585c0-9.16,7.424-16.585,16.585-16.585c9.161,0,16.585,7.424,16.585,16.585
	C667.086,566.251,659.662,573.675,650.501,573.675z" class="colorccd0e8 svgShape"></path><path fill="#ccdae8" d="M650.501,527.129c-16.546,0-29.961,13.415-29.961,29.961c0,16.546,13.415,29.961,29.961,29.961
	s29.961-13.415,29.961-29.961C680.462,540.544,667.047,527.129,650.501,527.129z M650.501,573.675
	c-9.161,0-16.585-7.424-16.585-16.585c0-9.16,7.424-16.585,16.585-16.585c9.161,0,16.585,7.424,16.585,16.585
	C667.086,566.251,659.662,573.675,650.501,573.675z" class="colorccd0e8 svgShape"></path><path fill="#ccdae8" d="M650.501,527.129c-16.546,0-29.961,13.415-29.961,29.961c0,16.546,13.415,29.961,29.961,29.961
	s29.961-13.415,29.961-29.961C680.462,540.544,667.047,527.129,650.501,527.129z M650.501,573.675
	c-9.161,0-16.585-7.424-16.585-16.585c0-9.16,7.424-16.585,16.585-16.585c9.161,0,16.585,7.424,16.585,16.585
	C667.086,566.251,659.662,573.675,650.501,573.675z" class="colorccd0e8 svgShape"></path><path fill="#ccdae8" d="M730.385 571.537c-4.735-1.075-9.056-2.89-12.875-5.539-2.327-1.615-3.713-4.282-3.635-7.113.016-.596.025-1.195.025-1.795 0-.014 0-.029 0-.043-.002-2.814 1.366-5.458 3.702-7.026 4.274-2.869 8.76-5.097 13.509-6.533 2.507-.759 3.892-3.436 3.06-5.92l-4.343-12.943c-.859-2.564-3.724-3.867-6.207-2.801-4.48 1.92-9.059 2.993-13.723 3.087-2.834.057-5.489-1.321-7.093-3.659-.354-.516-.716-1.027-1.085-1.532-1.643-2.248-2.045-5.179-1.087-7.793 1.771-4.832 4.089-9.271 7.087-13.224 1.584-2.087 1.13-5.068-1.003-6.588l-11.122-7.919c-2.201-1.568-5.284-.939-6.668 1.383-2.474 4.15-5.517 7.684-9.192 10.49-2.27 1.733-5.265 2.239-7.955 1.28-.603-.215-1.209-.42-1.82-.617-2.648-.853-4.693-2.989-5.453-5.665-1.404-4.945-2.135-9.893-2.034-14.847.055-2.62-2.065-4.765-4.685-4.74l-13.652.13c-2.703.027-4.826 2.347-4.58 5.039.442 4.843.049 9.52-1.295 13.975-.823 2.727-2.969 4.835-5.701 5.64-.6.177-1.197.362-1.79.556-2.645.866-5.555.343-7.744-1.376-4.042-3.174-7.542-6.749-10.373-10.817-1.495-2.151-4.471-2.641-6.574-1.08l-10.97 8.131c-2.172 1.609-2.525 4.735-.745 6.768 3.187 3.639 5.609 7.63 7.142 11.998.947 2.7.5 5.709-1.247 7.975-.386.5-.764 1.006-1.135 1.518-1.631 2.251-4.29 3.534-7.068 3.43-5.142-.191-10.08-1.025-14.766-2.657-2.475-.859-5.168.492-5.954 2.992l-4.095 13.025c-.811 2.577.741 5.314 3.377 5.913 4.736 1.075 9.057 2.89 12.876 5.541 2.327 1.615 3.712 4.281 3.634 7.113-.017.596-.025 1.194-.025 1.794 0 .015 0 .029 0 .043.002 2.814-1.366 5.458-3.702 7.026-4.274 2.869-8.76 5.096-13.509 6.533-2.509.759-3.894 3.436-3.06 5.92l4.343 12.946c.859 2.561 3.724 3.865 6.207 2.801 4.479-1.922 9.058-2.995 13.721-3.089 2.834-.057 5.49 1.322 7.095 3.659.354.516.716 1.026 1.084 1.531 1.643 2.248 2.046 5.179 1.088 7.793-1.771 4.832-4.09 9.273-7.089 13.223-1.582 2.087-1.128 5.07 1.005 6.588l11.122 7.921c2.201 1.568 5.285.937 6.668-1.385 2.474-4.148 5.516-7.682 9.19-10.488 2.271-1.734 5.266-2.24 7.958-1.282.602.214 1.208.42 1.818.616 2.649.853 4.695 2.989 5.455 5.666 1.403 4.944 2.133 9.893 2.031 14.846-.052 2.621 2.067 4.765 4.685 4.74l13.654-.13c2.703-.025 4.826-2.347 4.58-5.038-.442-4.844-.049-9.52 1.296-13.976.823-2.726 2.968-4.834 5.7-5.638.6-.177 1.197-.362 1.789-.556 2.645-.866 5.555-.343 7.744 1.376 4.043 3.175 7.543 6.748 10.372 10.817 1.497 2.151 4.473 2.641 6.576 1.08l10.97-8.131c2.169-1.609 2.525-4.735.743-6.768-3.185-3.639-5.606-7.629-7.139-11.995-.948-2.701-.501-5.71 1.247-7.977.386-.5.764-1.006 1.135-1.518 1.631-2.252 4.291-3.535 7.069-3.431 5.142.192 10.079 1.026 14.765 2.656 2.472.861 5.168-.492 5.954-2.992l4.095-13.023C734.574 574.874 733.022 572.137 730.385 571.537zM650.501 597.461c-22.295 0-40.37-18.075-40.37-40.37s18.075-40.37 40.37-40.37c22.295 0 40.37 18.075 40.37 40.37S672.797 597.461 650.501 597.461zM791.002 462.572c-11.158 0-20.204 9.046-20.204 20.204 0 11.158 9.046 20.204 20.204 20.204 11.158 0 20.204-9.046 20.204-20.204C811.206 471.618 802.16 462.572 791.002 462.572zM791.002 493.96c-6.177 0-11.184-5.006-11.184-11.184s5.006-11.184 11.184-11.184c6.177 0 11.184 5.007 11.184 11.184S797.179 493.96 791.002 493.96z" class="colorccd0e8 svgShape"></path><path fill="#ccdae8" d="M791.002,462.572c-11.158,0-20.204,9.046-20.204,20.204c0,11.158,9.046,20.204,20.204,20.204
	c11.158,0,20.204-9.046,20.204-20.204C811.206,471.618,802.16,462.572,791.002,462.572z M791.002,493.96
	c-6.177,0-11.184-5.006-11.184-11.184s5.006-11.184,11.184-11.184c6.177,0,11.184,5.007,11.184,11.184
	S797.179,493.96,791.002,493.96z" class="colorccd0e8 svgShape"></path><path fill="#ccdae8" d="M791.002,462.572c-11.158,0-20.204,9.046-20.204,20.204c0,11.158,9.046,20.204,20.204,20.204
	c11.158,0,20.204-9.046,20.204-20.204C811.206,471.618,802.16,462.572,791.002,462.572z M791.002,493.96
	c-6.177,0-11.184-5.006-11.184-11.184s5.006-11.184,11.184-11.184c6.177,0,11.184,5.007,11.184,11.184
	S797.179,493.96,791.002,493.96z" class="colorccd0e8 svgShape"></path><path fill="#ccdae8" d="M844.872 492.518c-3.193-.725-6.107-1.948-8.682-3.735-1.569-1.089-2.504-2.887-2.451-4.797.011-.402.017-.806.017-1.211 0-.01 0-.019 0-.029-.001-1.897.921-3.681 2.497-4.738 2.882-1.935 5.907-3.437 9.11-4.405 1.69-.512 2.625-2.317 2.064-3.992l-2.929-8.728c-.579-1.729-2.511-2.608-4.186-1.888-3.021 1.295-6.109 2.018-9.254 2.082-1.911.038-3.701-.891-4.783-2.467-.239-.348-.483-.693-.732-1.033-1.108-1.516-1.379-3.492-.733-5.255 1.194-3.258 2.758-6.252 4.779-8.917 1.068-1.408.762-3.418-.676-4.443l-7.5-5.34c-1.484-1.057-3.564-.633-4.496.933-1.668 2.799-3.72 5.182-6.198 7.074-1.531 1.169-3.55 1.51-5.365.863-.406-.145-.816-.284-1.227-.416-1.786-.575-3.165-2.016-3.677-3.82-.947-3.335-1.44-6.671-1.372-10.012.037-1.767-1.392-3.213-3.159-3.196l-9.206.088c-1.823.018-3.255 1.583-3.089 3.398.298 3.266.033 6.42-.873 9.424-.555 1.839-2.002 3.261-3.845 3.804-.405.119-.807.244-1.207.375-1.784.584-3.746.231-5.222-.928-2.726-2.141-5.086-4.551-6.995-7.295-1.008-1.451-3.015-1.781-4.433-.728l-7.398 5.483c-1.464 1.085-1.703 3.193-.503 4.564 2.149 2.454 3.782 5.145 4.816 8.091.639 1.821.337 3.85-.841 5.378-.26.337-.516.679-.766 1.024-1.1 1.518-2.893 2.383-4.766 2.313-3.468-.129-6.797-.691-9.958-1.791-1.669-.579-3.485.332-4.015 2.018l-2.761 8.784c-.547 1.738.499 3.583 2.277 3.988 3.193.725 6.107 1.949 8.683 3.737 1.569 1.089 2.503 2.887 2.45 4.796-.011.402-.017.805-.017 1.21 0 .01 0 .019 0 .029.001 1.897-.921 3.681-2.497 4.738-2.882 1.934-5.907 3.437-9.11 4.405-1.692.512-2.626 2.317-2.064 3.992l2.929 8.73c.579 1.727 2.511 2.606 4.186 1.889 3.021-1.296 6.108-2.019 9.253-2.083 1.911-.039 3.702.891 4.784 2.468.239.348.483.692.731 1.033 1.108 1.516 1.38 3.492.733 5.255-1.195 3.258-2.758 6.253-4.78 8.917-1.066 1.408-.761 3.419.678 4.442l7.5 5.341c1.484 1.057 3.564.632 4.496-.934 1.668-2.798 3.72-5.18 6.198-7.073 1.531-1.169 3.551-1.511 5.366-.864.406.144.815.283 1.226.416 1.786.575 3.166 2.016 3.678 3.821.946 3.334 1.438 6.671 1.37 10.011-.035 1.767 1.394 3.213 3.159 3.196l9.208-.088c1.823-.017 3.255-1.583 3.089-3.398-.298-3.267-.033-6.42.874-9.425.555-1.839 2.001-3.26 3.844-3.802.405-.119.807-.244 1.207-.375 1.784-.584 3.746-.231 5.222.928 2.726 2.141 5.087 4.551 6.994 7.294 1.01 1.451 3.016 1.781 4.435.728l7.398-5.483c1.463-1.085 1.703-3.193.501-4.564-2.148-2.454-3.78-5.144-4.814-8.089-.639-1.821-.338-3.851.841-5.379.26-.337.515-.679.765-1.024 1.1-1.518 2.894-2.384 4.767-2.314 3.467.129 6.797.692 9.956 1.791 1.667.581 3.485-.332 4.015-2.018l2.761-8.782C847.696 494.768 846.649 492.922 844.872 492.518zM791.002 509.999c-15.035 0-27.224-12.189-27.224-27.224 0-15.035 12.189-27.224 27.224-27.224 15.035 0 27.224 12.189 27.224 27.224C818.226 497.81 806.037 509.999 791.002 509.999zM689.351 389.421c-10.146 0-18.373 8.227-18.373 18.373 0 10.147 8.227 18.373 18.373 18.373 10.147 0 18.373-8.227 18.373-18.373C707.724 397.647 699.498 389.421 689.351 389.421zM689.351 417.965c-5.618 0-10.17-4.553-10.17-10.17 0-5.618 4.553-10.171 10.17-10.171 5.618 0 10.171 4.553 10.171 10.171C699.521 413.412 694.969 417.965 689.351 417.965z" class="colorccd0e8 svgShape"></path><path fill="#ccdae8" d="M689.351,389.421c-10.146,0-18.373,8.227-18.373,18.373c0,10.147,8.227,18.373,18.373,18.373
	c10.147,0,18.373-8.227,18.373-18.373C707.724,397.647,699.498,389.421,689.351,389.421z M689.351,417.965
	c-5.618,0-10.17-4.553-10.17-10.17c0-5.618,4.553-10.171,10.17-10.171c5.618,0,10.171,4.553,10.171,10.171
	C699.521,413.412,694.969,417.965,689.351,417.965z" class="colorccd0e8 svgShape"></path><path fill="#ccdae8" d="M689.351,389.421c-10.146,0-18.373,8.227-18.373,18.373c0,10.147,8.227,18.373,18.373,18.373
	c10.147,0,18.373-8.227,18.373-18.373C707.724,397.647,699.498,389.421,689.351,389.421z M689.351,417.965
	c-5.618,0-10.17-4.553-10.17-10.17c0-5.618,4.553-10.171,10.17-10.171c5.618,0,10.171,4.553,10.171,10.171
	C699.521,413.412,694.969,417.965,689.351,417.965z" class="colorccd0e8 svgShape"></path><path fill="#ccdae8" d="M738.339,416.654c-2.904-0.659-5.554-1.772-7.895-3.397c-1.427-0.99-2.277-2.626-2.229-4.362
	c0.01-0.366,0.015-0.732,0.015-1.101c0-0.009,0-0.018,0-0.026c-0.001-1.725,0.838-3.347,2.27-4.309
	c2.621-1.759,5.372-3.125,8.284-4.006c1.537-0.465,2.387-2.107,1.877-3.631l-2.664-7.937c-0.527-1.572-2.283-2.371-3.807-1.717
	c-2.747,1.177-5.555,1.835-8.416,1.893c-1.738,0.035-3.366-0.81-4.349-2.244c-0.217-0.317-0.439-0.63-0.666-0.94
	c-1.007-1.379-1.254-3.176-0.667-4.779c1.086-2.963,2.508-5.686,4.346-8.109c0.971-1.28,0.693-3.108-0.615-4.04l-6.821-4.856
	c-1.35-0.961-3.241-0.576-4.089,0.848c-1.517,2.545-3.383,4.712-5.637,6.433c-1.392,1.063-3.229,1.373-4.879,0.785
	c-0.369-0.132-0.742-0.258-1.116-0.379c-1.624-0.523-2.878-1.833-3.344-3.474c-0.861-3.032-1.309-6.067-1.247-9.105
	c0.034-1.607-1.266-2.922-2.873-2.907l-8.372,0.08c-1.657,0.017-2.96,1.439-2.809,3.09c0.271,2.97,0.03,5.838-0.794,8.57
	c-0.505,1.672-1.821,2.965-3.496,3.459c-0.368,0.108-0.734,0.222-1.097,0.341c-1.622,0.531-3.407,0.21-4.749-0.844
	c-2.479-1.947-4.625-4.139-6.361-6.634c-0.917-1.319-2.742-1.62-4.032-0.662l-6.727,4.986c-1.332,0.987-1.548,2.904-0.457,4.15
	c1.955,2.232,3.44,4.679,4.38,7.358c0.581,1.656,0.307,3.501-0.765,4.891c-0.237,0.307-0.469,0.617-0.696,0.931
	c-1,1.38-2.631,2.167-4.334,2.103c-3.154-0.117-6.182-0.628-9.055-1.629c-1.518-0.527-3.169,0.302-3.651,1.835l-2.511,7.988
	c-0.497,1.581,0.454,3.259,2.071,3.626c2.904,0.659,5.554,1.772,7.896,3.398c1.427,0.99,2.276,2.626,2.228,4.362
	c-0.01,0.365-0.015,0.732-0.015,1.1c0,0.009,0,0.018,0,0.026c0.001,1.725-0.838,3.347-2.27,4.309
	c-2.621,1.759-5.372,3.125-8.284,4.006c-1.539,0.465-2.388,2.107-1.877,3.63l2.664,7.939c0.527,1.571,2.284,2.37,3.807,1.717
	c2.747-1.178,5.555-1.836,8.414-1.894c1.738-0.035,3.367,0.811,4.351,2.244c0.217,0.316,0.439,0.63,0.665,0.939
	c1.008,1.379,1.255,3.176,0.667,4.779c-1.086,2.963-2.508,5.686-4.347,8.109c-0.97,1.28-0.692,3.109,0.616,4.04l6.821,4.857
	c1.35,0.961,3.241,0.574,4.089-0.85c1.517-2.544,3.383-4.711,5.636-6.432c1.393-1.063,3.229-1.374,4.88-0.786
	c0.369,0.132,0.741,0.258,1.115,0.378c1.624,0.523,2.879,1.833,3.345,3.475c0.86,3.032,1.308,6.066,1.246,9.104
	c-0.032,1.607,1.268,2.922,2.873,2.907l8.373-0.08c1.657-0.015,2.96-1.439,2.809-3.09c-0.271-2.971-0.03-5.838,0.794-8.571
	c0.504-1.672,1.82-2.964,3.495-3.458c0.368-0.108,0.734-0.222,1.097-0.341c1.622-0.531,3.406-0.21,4.749,0.844
	c2.479,1.947,4.626,4.138,6.36,6.633c0.918,1.319,2.743,1.62,4.033,0.662l6.727-4.986c1.33-0.987,1.548-2.904,0.456-4.15
	c-1.953-2.232-3.438-4.678-4.378-7.356c-0.581-1.656-0.307-3.502,0.765-4.892c0.236-0.307,0.468-0.617,0.696-0.931
	c1-1.381,2.632-2.168,4.335-2.104c3.153,0.118,6.181,0.629,9.054,1.629c1.516,0.528,3.169-0.302,3.651-1.835l2.511-7.986
	C740.908,418.699,739.956,417.021,738.339,416.654z M689.351,432.551c-13.672,0-24.757-11.084-24.757-24.757
	c0-13.672,11.084-24.757,24.757-24.757c13.672,0,24.757,11.084,24.757,24.757C714.108,421.466,703.023,432.551,689.351,432.551z" class="colorccd0e8 svgShape"></path><path fill="#c8d5e3" d="M879.291 189.387c0-3.098 2.511-5.609 5.609-5.609 3.098 0 5.609 2.511 5.609 5.609 0 3.098-2.511 5.609-5.609 5.609C881.802 194.996 879.291 192.485 879.291 189.387zM879.291 210.371c0-3.098 2.511-5.609 5.609-5.609 3.098 0 5.609 2.511 5.609 5.609 0 3.098-2.511 5.609-5.609 5.609C881.802 215.98 879.291 213.469 879.291 210.371zM879.291 231.355c0-3.098 2.511-5.609 5.609-5.609 3.098 0 5.609 2.511 5.609 5.609 0 3.098-2.511 5.609-5.609 5.609C881.802 236.964 879.291 234.452 879.291 231.355z" class="colorc8cbe3 svgShape"></path><path fill="#c1dcf7" d="M996.834,608.893c0,0-17.654,11.591-31.981,16.555c-3.422,1.169-6.633,1.963-9.384,2.148
	c-19.049,1.258-56.874-15.893-56.874-15.893c-14.344,2.534-16.859-0.876-18.524-6.498c-2.921-10.036,7.014-1.1,10.507-5.499
	c0,0-2.834-4.835-1.041-6.185c3.805-2.863,11.862,7.186,11.862,7.186c20.167,3.734,34.391-0.24,50.403,3.49
	c1.798-1.381,3.595-2.761,5.425-4.104c13.219-9.609,27.595-17.639,44.732-20.654C1006.266,591.031,1003.154,600.447,996.834,608.893
	z" class="colorf7c1ce svgShape"></path><path fill="#82c0ff" d="M968.384,626.978l-13.406-28.996c13.22-9.609,39.594-31.466,48.808-16.706
	C1016.054,600.926,982.71,622.014,968.384,626.978z" class="colorff82e5 svgShape"></path><path fill="#ccdef1" d="M992.64,791.384c2.558,9.526,4.138,18.074,4.976,26.023c2.155,20.306,1.547,51.572-2.168,71.334
	l-10.412-1.022c0,0-14.709-53.413-21.66-80.728c-1.787-6.93-3.173-13.122-3.894-17.792c-4.2-26.654,11.356-102.166,12.355-107.054
	l0.042-0.188l0.013-0.069l41.895-5.852C1036.045,728.999,1009.642,742.32,992.64,791.384z" class="colorf1cccd svgShape"></path><path fill="#3d4f93" d="M1012.394,747.865c-5.912,12.164-13.469,25.397-19.754,43.519c2.318,8.628,4.958,17.597,8.008,28.054
	l-36.234,5.062c-1.786-6.93-4.211-30.63-4.931-35.3c-4.2-26.654,11.356-102.166,12.355-107.054l0.042-0.188l0.013-0.069
	l41.895-5.852C1027.838,709.447,1022.508,727.073,1012.394,747.865z" class="color493d93 svgShape"></path><path fill="#0f1f5c" d="M1012.394,747.865c-5.912,12.164-13.469,25.397-19.754,43.519c2.318,8.628,4.958,17.597,8.008,28.054
	l-6.686,0.933c-1.146-10.345-10.286-27.353-13.354-26.807c2.719-0.673,27.622-49.439,29.517-66.329L1012.394,747.865z" class="color120f5c svgShape"></path><path fill="#ccdef1" d="M1036.502,900.935l25.526-29.588c0,0-18.743-29.274-33.909-48.737c-3.6-4.658-6.998-8.73-9.9-11.746
	c-20.769-21.511-31.615-129.922-31.615-129.922h34.337c26.919,24.746,20.14,58.817,20.934,92.476
	c0.275,11.666,4.027,22.915,10.328,32.738c1.269,1.979,2.464,3.983,3.592,6.036c7.854,14.333,12.511,31.141,16.809,58.75
	l5.315,17.919L1036.502,900.935z" class="colorf1cccd svgShape"></path><path fill="#3d4f93" d="M1057.527,811.607l-9.922,4.545l-20.162,9.225c-3.6-4.657-6.323-11.497-9.225-14.513
	c-20.769-21.511-34.179-130.349-34.179-130.349l35.439,0.405l1.462,0.022c26.018,23.917,20.555,56.548,20.878,89.096
	c0.131,13.283,4.426,26.248,12.527,36.774C1055.534,808.357,1056.616,809.943,1057.527,811.607z" class="color493d93 svgShape"></path><path fill="#021b79" d="M1057.527,811.607l-9.922,4.545c-3.218-5.041-8.055-14.614-10.61-21.08
	c-6.751-17.087-2.599-40.292-4.219-72.918c-1.194-24.039-21.511-35.72-21.511-35.72l8.214-5.513l1.462,0.022
	c26.018,23.917,20.555,56.548,20.878,89.096c0.131,13.283,4.426,26.248,12.527,36.774
	C1055.534,808.357,1056.616,809.943,1057.527,811.607z" class="color15126b svgShape"></path><path fill="#59acff" d="M1038.379,610.963c-0.293,21.647-5.626,59.178-7.65,72.679c-0.293,1.957-1.373,3.645-2.903,4.702
	c-0.832,0.585-1.823,0.99-2.881,1.147c-9.697,1.44-19.193,2.228-28.441,2.205c-8.325,0-16.448-0.629-24.346-2.002
	c-3.084-0.54-5.445-3.016-5.784-6.121c-1.102-10.215,2.102-32.626,1.585-54.43c-0.337-13.793,3.991-49.099,29.748-54.653
	l15.088-0.137c16.921,4.388,24.009,17.326,25.179,26.371C1038.334,603.404,1038.446,606.913,1038.379,610.963z" class="colorff59dc svgShape"></path><path fill="#021b79" d="M983.814 884.739c-16.024 6.152-33.805 5.518-34.913 19.98l50.417-1.76c.593-6.129-.426-12.202-3.056-18.221H983.814zM1062.027 871.347c-12.826 11.406-32.015 19.448-27.953 33.372l46.56-15.565c-1.606-5.945-3.76-15.49-8.344-20.195L1062.027 871.347z" class="color15126b svgShape"></path><path fill="#1c3180" d="M1002.41,561.183c4.912,1.519,6.897,3.972,13.179,1.134c9.559-4.319,17.629-20.865,4.934-28.347
	c-0.878-2.619-1.762-3.639-5.107-4.366c-3.344-0.726-6.774,0.73-11.385,0.651c-4.611-0.079-11.134-4.827-15.154,1.879
	c-4.02,6.705,5.948,11.919,10.943,15.221C1004.817,550.656,1003.195,556.352,1002.41,561.183z" class="color1f1c80 svgShape"></path><path fill="#c1dcf7" d="M1013.009,574.394c-5.49,5.491-10.669,6.542-15.302,0.098l1.305-10.59l0.545-4.459h12.149l0.233,2.765
	L1013.009,574.394z" class="colorf7c1ce svgShape"></path><path fill="#abcced" d="M1012.112,564.177c-3.002,3.613-11.275,4.658-13.518,3.109l0.962-7.844l12.218-5.128L1012.112,564.177z" class="coloredabba svgShape"></path><path fill="#c1dcf7" d="M993.33,538.207c-2.236,6.302-4.427,20.234,0.921,25.415c3.385,3.279,15.67,2.011,18.179-7.008
	c2.963-2.146,5.138-7.377,2.407-9.751c-1.946-1.692-4.432,2.779-7.827,2.039c-1.288-0.281,2.668-8.887-1.352-10.378
	C1001.638,537.034,997.383,540.265,993.33,538.207z" class="colorf7c1ce svgShape"></path><path fill="#6ca9e6" d="M764.897,557.181l56.22,15.029c0.914,0.244,1.888-0.018,2.556-0.687l9.296-9.306l148.566,148.721
	c6.211,6.218,16.258,6.223,22.475,0.012c6.2-6.194,6.223-16.257,0.012-22.475L855.43,539.729l9.368-9.379
	c0.669-0.669,0.929-1.644,0.684-2.557l-15.095-56.203c-0.246-0.913-0.959-1.626-1.873-1.87l-28.214-7.542
	c-0.913-0.244-1.886,0.017-2.554,0.684l-8.991,8.982l15.276,15.292c12.044,12.056,12.033,31.592-0.022,43.636
	c-12.056,12.043-31.593,12.033-43.636-0.023l-15.276-15.292l-8.991,8.982c-0.67,0.669-0.931,1.645-0.685,2.559l7.604,28.313
	C763.269,556.224,763.983,556.937,764.897,557.181z M986.407,703.622c-2.829-2.832-2.844-7.442,0.006-10.288
	c2.833-2.829,7.459-2.827,10.288,0.005c2.847,2.85,2.827,7.459-0.005,10.288C993.845,706.473,989.253,706.471,986.407,703.622z" class="color7e6ce6 svgShape"></path><path fill="#0575e6" d="M818.823 463.999l15.276 15.291c12.043 12.056 12.033 31.593-.023 43.636-2.491 2.488-5.304 4.454-8.301 5.913 10.25-12.118 9.676-30.272-1.744-41.704l-15.276-15.292 8.991-8.982c.668-.668 1.642-.929 2.555-.684l.273.073L818.823 463.999zM756.105 524.438l8.991-8.982 1.106 1.108-.03.03c-.67.669-.931 1.645-.686 2.559l7.604 28.313c.245.913.959 1.626 1.873 1.871l55.935 14.953-7.226 7.234c-.668.669-1.643.931-2.556.687l-56.22-15.029c-.913-.244-1.627-.957-1.873-1.87l-7.604-28.313C755.174 526.083 755.435 525.107 756.105 524.438zM843.036 554.372l141.632 141.779c-.855 2.54-.276 5.454 1.738 7.47 2.13 2.132 5.237 2.669 7.86 1.613 3.756 2.418 8.295 3.085 12.493 2.019-.717 1.327-1.629 2.576-2.75 3.696-6.218 6.211-16.264 6.206-22.475-.012l-147.45-147.603L843.036 554.372z" class="color6a58d6 svgShape"></path><path fill="#c1dcf7" d="M1026.052,626.919c0,0-13.491,16.248-25.739,25.186c-2.931,2.119-5.768,3.818-8.345,4.799
	c-17.848,6.775-59.036,1.439-59.036,1.439c-12.975,6.619-16.378,4.094-19.615-0.794c-5.729-8.743,6.385-3.104,8.439-8.332
	c0,0-4.125-3.795-2.805-5.61c2.801-3.851,13.445,3.401,13.445,3.401c20.377-2.329,32.816-10.29,49.219-11.406
	c1.315-1.847,2.63-3.692,3.987-5.511c9.83-13.056,21.228-24.94,36.733-32.836C1029.845,607.08,1029.625,616.994,1026.052,626.919z" class="colorf7c1ce svgShape"></path><path fill="#82c0ff" d="M1004.135,652.536l-21.302-23.806c9.831-13.056,28.657-41.672,41.786-30.253
	C1042.1,613.679,1016.383,643.598,1004.135,652.536z" class="colorff82e5 svgShape"></path><path fill="#cbe2f9" d="M549.671,680.762c0,0-1.71,104.016-21.154,127.244c-9.381,11.207-42.274,70.78-42.274,70.78l-7.918-4.699
	c6.363-33.954,15.162-62.231,28.847-79.114c7.143-47.883-13.807-68.781,9.306-114.188L549.671,680.762z" class="colorf9cbcb svgShape"></path><path fill="#cbe2f9" d="M558.011,680.755c8.205,49.913,5.243,78.359-1.207,130.436c-0.066,0.529-0.161,1.064-0.284,1.579
	l-18.986,79.773l-9.57,1.291c-2.413-26.359-1.016-59.504,3.75-81.799c-3.542-64.995-37.026-83.088-5.865-131.257L558.011,680.755z" class="colorf9cbcb svgShape"></path><path fill="#354b9e" d="M493.515,829.721c10.694-1.297,20.442-7.325,27.243,0.269c4.975,5.539,10.724,10.051,17.857,12.339
	c3.021,0.978,6.272,1.573,9.837,1.666c6.522,0.162,12.328-4.692,14.043-11.885c3.262-13.765,8.255-39.023,8.236-65.019
	c-0.035-46.447-13.489-89.564-13.489-89.564s-0.21-0.048-0.587-0.143c-4.384-0.953-32.177-6.476-42.381,5.883
	c-11.084,13.436-19.187,31.195-16.372,65.79c2.01,24.703-8.123,47.672-14.801,64.115
	C479.772,821.416,485.589,830.707,493.515,829.721z" class="color45359e svgShape"></path><path fill="#cbe2f9" d="M549.961,600.149l11.637,24.081c0,0,0.398-0.614,1.068-1.701c4.442-7.029,21.283-33.957,25.553-44.694
	c3.433-8.647,4.066-30.852,3.448-45.928c-0.235-5.592-0.637-10.221-1.142-12.802c0,0,7.21-6.437,0.517-10.017
	c-6.441-3.436-1.918-13.498-4.33-13.823c-2.412-0.325-3.723,13.276-3.723,13.276s-3.422-3.542-4.574-2.189
	c-1.739,2.009,4.182,12.759,4.182,12.759c-0.837,2.479-1.632,5.02-2.385,7.601c-3.891,13.358-6.544,27.884-7.895,43.493
	C565.128,577.483,557.607,588.161,549.961,600.149z" class="colorf9cbcb svgShape"></path><path fill="#324179" d="M517.828,679.794l41.546-0.03c-2.167-9.216-7.476-14.149,0.309-35.069
	c3.245-8.708,3.805-16.083,2.983-22.166c-2.066-15.116-12.705-22.38-12.705-22.38l-9.966-5.462l-12.185,0.008l-12.241,8.489
	c0,0,0.633,33.614,2.55,45.104C519.804,658.427,521.784,670,517.828,679.794z" class="color3e3279 svgShape"></path><path fill="#81bffe" d="M510.974,686.088c19.113,9.552,25.648-0.735,40.161-0.848c1.133-0.001,2.328,0.06,3.565,0.182
	c4.405,0.468,7.967-3.386,7.23-7.646c-2.295-13.088-1.53-27.55,1.832-47.073c0.751-4.344,1.986-8.585,3.682-12.663
	c1.026-2.458,2.198-4.855,3.539-7.172c6.263-10.943,14.326-25.739,17.235-33.032c3.433-8.647,4.066-30.852,3.448-45.928
	l-11.455-5.195c-3.891,13.358-6.775,26.573-9.133,42.962c-5.826,5.924-11.083,14.408-16.928,23.814
	c-2.325,3.73-7.253,4.982-11.135,2.856l-3.021-1.657l-12.185,0.008l-12.241,8.489c0,0,0.633,33.614,2.55,45.104
	C519.804,658.427,514.931,676.293,510.974,686.088z" class="colorfe81df svgShape"></path><path fill="#cbe2f9" d="M473.576,652.212c0.022,0.163,0.022,0.348,0.064,0.532c0.401,3.257,2.501,6.984,5.397,10.751
	c5.5,7.145,13.937,14.411,19.35,18.75c3.106,2.477,5.204,4.011,5.204,4.011c-5.361,11.844,5.511,22.734,8.736,16.464
	c0.671-1.352-1.787-5.98-1.788-7.823c-0.001-1.147,2.063-2.418,3.48-4.447c1.611-2.306,0.245-5.183-0.741-6.534
	c-1.911-2.559-3.78-5.426-5.69-8.374c-5.102-7.841-10.561-16.359-18.178-22.11c12.851-6.687,21.51-9.683,30.376-17.597
	l-4.219-32.648C515.569,603.185,472.496,637.239,473.576,652.212z" class="colorf9cbcb svgShape"></path><path fill="#81bffe" d="M473.576,652.212c0.022,0.163,0.022,0.348,0.064,0.532c1.806,3.625,3.633,7.269,5.397,10.751
	c5.5,7.145,13.937,14.411,19.35,18.75l9.202-6.705c-5.102-7.841-10.561-16.359-18.178-22.11c12.851-6.687,21.51-9.683,30.376-17.597
	l-4.219-32.648C515.569,603.185,472.496,637.239,473.576,652.212z" class="colorfe81df svgShape"></path><path fill="#cbe2f9" d="M548.775,551.623c0,0,5.702,15.389,1.331,25.013c-4.37,9.624-21.886,3.008-21.886,3.008L548.775,551.623z" class="colorf9cbcb svgShape"></path><polygon fill="#cbe2f9" points="537.336 580.218 539.988 594.685 527.814 594.693 528.22 579.644" class="colorf9cbcb svgShape"></polygon><path fill="#354b9e" d="M486.699 606.225c1.17-8.518-3.882-12.571-.697-20.583 3.036-7.636 12.285-11.223 16.408-18.356 3.081-5.331 2.874-11.886 5.104-17.607 3.189-8.176 11.727-14.078 20.683-14.294 8.955-.217 17.782 5.264 21.381 13.277 0 0 4.754 8.296-2.217 19.858-3.758 6.23-13.823 11.643-16.05 18.539-4.132 12.791 13.764 30.22 8.703 42.688-2.75 6.776-10.699 6.688-12.162 13.835-1.313 6.408 10.791 11.18.019 24.965-8.05 10.301-17.686 2.032-23.953 1.425-5.244-.508-14.239 4.811-23.857-.495-17.552-9.682-2.8-22.791-6.519-36.099C468.747 616.225 485.437 615.41 486.699 606.225zM527.552 889.479l-1.546 7.737c-.546 2.113-.701 4.304-.459 6.47l.887 8.356 3.14-.024-.28-5.29c.138-1.368 1.898-1.892 2.794-.832l2.93 3.468c.846 1.554 2.389 2.648 4.172 2.898 5.445.763 16.086 1.084 16.576-2.402.505-3.585-9.82-3.877-12.78-7.867-2.867-3.862-4.794-12.202-4.794-12.202C534.95 891.064 531.133 890.654 527.552 889.479zM478.637 874.874l-4.999 5.953c-1.414 1.685-2.51 3.603-3.236 5.663l-2.842 7.93 2.851 1.284 2.054-4.902c.721-1.18 2.542-.922 2.89.41l1.138 4.356c.089 1.757 1.007 3.389 2.512 4.357 4.593 2.955 14.081 7.672 16.045 4.721 2.02-3.033-7.194-7.594-8.133-12.434-.91-4.687.983-13.034.983-13.034C484.414 878.983 481.364 877.427 478.637 874.874z" class="color45359e svgShape"></path><path fill="#d7e8fa" d="M241.927 600.688v15.318h-5.356c-2.524 0-4.571-2.047-4.571-4.571v-6.17c0-2.524 2.047-4.577 4.571-4.577H241.927zM261.315 615.663c-1.838 2.082-17.37.343-17.37.343v-15.318c0 0 2.85-2.762 3.611-5.304.75-2.524 1.425-6.17 3.373-5.652 1.954.518 2.815 7.571.407 10.956 0 0 7.589-2.053 9.647.192C262.937 603.003 263.036 613.715 261.315 615.663zM1051.738 292.212v15.318h-5.356c-2.524 0-4.571-2.047-4.571-4.571v-6.17c0-2.524 2.047-4.577 4.571-4.577H1051.738zM1071.126 307.186c-1.838 2.082-17.37.343-17.37.343v-15.318c0 0 2.849-2.762 3.611-5.304.75-2.524 1.425-6.17 3.373-5.653 1.954.518 2.815 7.572.407 10.956 0 0 7.589-2.053 9.647.192C1072.749 294.526 1072.848 305.238 1071.126 307.186zM633.694 68.006v15.318h-5.356c-2.524 0-4.571-2.047-4.571-4.571v-6.17c0-2.524 2.047-4.577 4.571-4.577H633.694zM653.082 82.98c-1.838 2.082-17.37.343-17.37.343V68.006c0 0 2.85-2.762 3.611-5.304.75-2.524 1.425-6.17 3.373-5.653 1.954.518 2.815 7.571.407 10.956 0 0 7.589-2.053 9.648.192C654.705 70.32 654.804 81.032 653.082 82.98zM389.252 499.652c-1.225.271-2.51.045-3.602-.665-1.443-.938-2.25-2.524-2.16-4.242l.876-16.591c.091-1.719 1.061-3.211 2.594-3.992 1.533-.779 3.311-.686 4.753.251l13.93 9.054c1.444.938 2.251 2.524 2.16 4.243-.091 1.718-1.061 3.21-2.595 3.991l-14.806 7.536C390.03 499.427 389.644 499.565 389.252 499.652zM388.912 477.418c-.108.024-.194.061-.249.089-.156.079-.521.32-.549.845l-.877 16.591c-.027.524.311.803.457.898.146.096.536.291 1.005.053l14.806-7.537c.468-.238.54-.67.549-.844.009-.175-.017-.611-.456-.898l-13.93-9.054C389.383 477.375 389.111 477.374 388.912 477.418zM1109.355 557.428c-.909.865-2.125 1.335-3.428 1.292-1.72-.057-3.231-.998-4.042-2.516l-7.821-14.658c-.81-1.518-.751-3.297.159-4.758.91-1.459 2.481-2.298 4.2-2.241l16.604.555c1.721.057 3.231.999 4.041 2.517.81 1.518.75 3.297-.16 4.757l-8.783 14.102C1109.905 556.833 1109.646 557.151 1109.355 557.428zM1097.577 538.567c-.08.076-.135.153-.167.205-.093.148-.281.544-.033 1.006l7.821 14.658c.247.463.68.527.855.532.174.006.609-.028.888-.474l8.784-14.103c.278-.446.116-.853.034-1.006-.082-.154-.33-.515-.855-.533l-16.604-.555C1097.958 538.286 1097.724 538.426 1097.577 538.567zM902.226 94.166c-1.225.271-2.51.045-3.602-.665-1.443-.938-2.251-2.524-2.16-4.242l.877-16.591c.091-1.719 1.061-3.211 2.594-3.992 1.533-.779 3.311-.686 4.753.251l13.93 9.054c1.444.938 2.251 2.524 2.16 4.243-.091 1.718-1.061 3.21-2.595 3.991l-14.806 7.536C903.005 93.941 902.619 94.079 902.226 94.166zM901.886 71.932c-.108.024-.194.061-.249.089-.156.079-.521.32-.549.845l-.877 16.591c-.027.524.311.802.457.898.146.095.536.291 1.005.053l14.806-7.537c.468-.238.54-.67.549-.844.009-.175-.017-.612-.456-.898l-13.93-9.054C902.357 71.889 902.085 71.889 901.886 71.932z" class="colord9d7fa svgShape"></path><path fill="#c4e1ff" d="M326.804 416.222c-4.409 0-7.996-3.587-7.996-7.996 0-4.409 3.587-7.996 7.996-7.996 4.409 0 7.996 3.587 7.996 7.996C334.8 412.635 331.213 416.222 326.804 416.222zM326.804 403.33c-2.699 0-4.896 2.196-4.896 4.895 0 2.7 2.196 4.896 4.896 4.896 2.699 0 4.895-2.196 4.895-4.896C331.699 405.526 329.503 403.33 326.804 403.33zM1080.635 670.345c-4.409 0-7.996-3.587-7.996-7.996 0-4.409 3.588-7.996 7.996-7.996s7.995 3.587 7.995 7.996C1088.63 666.758 1085.043 670.345 1080.635 670.345zM1080.635 657.453c-2.7 0-4.896 2.196-4.896 4.895 0 2.699 2.196 4.896 4.896 4.896 2.699 0 4.895-2.196 4.895-4.896C1085.529 659.649 1083.333 657.453 1080.635 657.453zM740.81 104.05c-4.409 0-7.996-3.587-7.996-7.996 0-4.409 3.587-7.996 7.996-7.996 4.409 0 7.995 3.587 7.995 7.996C748.806 100.463 745.219 104.05 740.81 104.05zM740.81 91.159c-2.7 0-4.896 2.196-4.896 4.895 0 2.7 2.196 4.896 4.896 4.896 2.699 0 4.895-2.196 4.895-4.896C745.705 93.355 743.509 91.159 740.81 91.159zM301.1 777.182c-4.409 0-7.996-3.587-7.996-7.996 0-4.409 3.588-7.996 7.996-7.996 4.409 0 7.996 3.587 7.996 7.996C309.096 773.594 305.509 777.182 301.1 777.182zM301.1 764.29c-2.699 0-4.896 2.196-4.896 4.895 0 2.7 2.196 4.896 4.896 4.896 2.699 0 4.895-2.196 4.895-4.896C305.995 766.486 303.799 764.29 301.1 764.29z" class="colorffc4f1 svgShape"></path></svg>