<svg xmlns="http://www.w3.org/2000/svg" viewBox="0 0 4000 4000" id="Muslimcouple"><linearGradient id="a" x1="886.419" x2="842.225" y1="1928.08" y2="2802.134" gradientTransform="rotate(-10.19 -672.455 2994.992)" gradientUnits="userSpaceOnUse"><stop offset="0" stop-color="#5dacfb" class="stopColor5db7fb svgShape"></stop><stop offset="1" stop-color="#005ab4" class="stopColor007ab4 svgShape"></stop></linearGradient><path fill="url(#a)" d="M1034.8 2609.4c25.9-55.1-9.3-103.9 1.9-140.2 0 0-22 14.2-45.4 36.6-23.4 22.5-31.9 37.4-31.9 8.2s-4.2-83.7-15.2-80.2c-11.1 3.5-7.5 14.6-12.8 33.7-5.3 19.1-24.1 11.8-17.2 51.5 6.9 39.8-15.5 32.7-1.3 87.5s39.9 80.7 29.6 89.3c-10.3 8.6-36.3-14.5-57.1-78.7s-37.1-80.4-10.7-104.6 33.7-57 50.8-87.8c17.1-30.8 47.8-5.2 88-47.2s43.4-67 43.4-67-10 19-29.7 22.1c-19.7 3.1-48.3 5.6-51.1 1.5-2.8-4.1 30.4-68.5 18.3-106.1-12.2-37.6 5.9 19.8-32.3 58.8-38.2 39-86.7 97.6-86.9 138.1-.2 40.5-.5 72.5-14.1 75.5 0 0-20.9-17-17.5-43.5 3.4-26.4 23.7-41.5 41.3-90.9 17.6-49.4 37.1-80.1 41-105 3.9-25-31.2-156-25.7-192 0 0-13 13.4-14.1 54.8-1 41.3 12.8 88.3 2.6 116.3-10.2 27.9-17 22.4-20.1 54-3.1 31.6 12.9 39.3-9 70.5-21.9 31.1-9.2 86.5-25.2 64.6-16.1-21.8-15.3-65.1.7-101.7 16-36.6 33.1-89.1 17.8-117.4-15.2-28.3-15.7-113.2-20.7-140.3-5-27 18.5-24.3 29.8-81.1 0 0-11.9 22.1-35.6 37.9-23.7 15.8-53.9 15.7-50.9 66.1 3 50.3 12.5 101.5 5.6 133.6l1.6 17.2s-14.2-58.4-33.2-79.6c-19-21.3-36.5-46.1-34.3-56.2 2.2-10.1 42.6-68.1 31.5-106.3-11.1-38.2-68.6-97.4-71.1-137.3 0 0-18.7 13.6-6.6 51.9s25.8 71.2 24.5 103.1c-1.2 31.9 12.9 76.1 11.6 86.3 0 0-34.6-46.8-51.3-78.2-16.7-31.4 12.7-54.9 6.3-101-6.4-46.1-43.3-66.8-34.7-111.9 0 0-22.1 5.4-11.6 49.9 10.6 44.5 19.6 40 14.3 59.8-5.4 19.8-12 55 2.3 75.9l11.5 17.3-38.5-41.7s20.4-40 11.7-77.2-76-113.6-64.9-139.8c0 0-28.1 15.5-13.3 65.5s51.1 70.2 52.2 100.7c1 30.5 3.3 40.7 3.3 40.7s-34.6-27.8-43.6-45.9c-9-18.1-3-48.5-16.7-68.6-13.7-20.1-53.7-55.6-56.7-76.5 0 0-21.2 22 10.9 58.7 0 0-10-4.8-29.5-13-19.5-8.1-30.8-35.7-47.5-37.9-16.7-2.1-23.5 1.2-23.5 1.2s28.9 5.8 33 29.7c4 23.8 14.3 54.1 55 72.8 40.7 18.6 47.9 12.5 65 33.7 17.1 21.3 20.6 26.7 20.6 26.7s-25.5-14.6-49.3-27c-23.9-12.5-66.7-5.2-88.9-1.5-22.2 3.8 19.9 28.9 49.3 31.3 29.4 2.3 50.1-1.1 54.3 6.5 4.2 7.6-17.3 13.3-34.9 7.8-17.7-5.6-28-6.2-28-6.2s2.3 20.8 41.4 30 71.6 14.8 81.1 23.8c0 0-31.9-10.4-65.1-10.4-33.2 0-53.5 15.1-67.8 4.8 0 0 23.3 44.7 74.3 44.1 51-.6 108-20.8 130.8 5.4 22.8 26.2 44.8 58.7 44.8 58.7s-11.3-5.7-35-3.1c0 0-13.5-21.5-39.2-25.5-25.6-4-102.8 7.1-127.2-22.6 0 0 33.1 56.5 95.8 69.5 0 0-20.3 3.8-52.3 22.3-32.1 18.5-57.1 9.7-57.1 9.7s86.6 60.4 167.8-18.9c0 0 39.2 32.3 86.6 25.2 17.3 36.1 26.8 61.4 26.8 61.4s-42-47.8-83.8-46.8-63.1 23.8-99.5 20.5c-36.3-3.2-43.1-.5-74.1 10.3-31.1 10.9-48 5.2-54 7.9s3.9 14 46.5 23.6c42.6 9.7 82.3 14 134.4 10.1s50.2 27.6 101.2 32.7c51 5.1 69.9 61.9 69.9 61.9l3.4 15.8s-26.5-46.8-70.5-53.3c-43.9-6.6-67.7-4.9-101.8-22.4-34-17.5-74.2-9.5-74.2-9.5s17.9 18.3 35.3 37.5c17.3 19.2 62.3 51.3 94.9 47s33.5-4.2 55.3 9.9c21.8 14.1 50.4 11.2 61.4 28.6 11 17.4 11.5 27.9 11.5 27.9s-44-24.5-87-27.1c-43-2.7-70-35.3-94.8-40.4-24.8-5.1-66.2-20.7-68.8-14.4-2.7 6.3 28.5 13.1 50.9 44.2s38.6 59.6 81.4 64.1c42.8 4.5 64.5 18.6 82.1 35.9 17.6 17.3 36.4 31.4 57.6 29l8.6 36s-37.5-30.9-84.9-53.3c-47.3-22.3-64.8-40.8-104.9-31.1-40.1 9.7-79 37.3-141.9 9.5-62.9-27.8-25.3 20.8 15.4 34.5s110.9 25.6 165.1 14 66.4 11.8 101.8 29.5c35.4 17.7 36.8-7.6 50.8 15.9s7.5 15.1 7.5 15.1-57.1-32.7-93.2-23.2c-36.1 9.5-69.2 32.6-106.5 18.4-37.3-14.2-83.8-4.1-125.6-9.4 0 0 43.4 65.9 113.3 50.3 69.9-15.6 74-18.8 110.2-6.7 36.2 12.2 84.2-31.7 105-2.6 0 0 16.9 52.1 46.6 77.6 0 0-27.7-19.6-85.2-11.8-57.5 7.7-57.1 11.6-86.8-6.4-29.8-17.9-80.7-32-137.3-39.2 0 0-2.3 25.7 46 56.6 48.4 30.9 56.2 35.6 114.1 25.1 57.9-10.5 102.4-41.6 169.5-5.7l13.7 11.2s-74.6-28.4-109.5 1.1c-34.9 29.5-45.4 31-70.1 25 0 0 49.3 34.4 92.6 12.7s77.3-44.7 101.3-18.1l17.4 15.4 7.8-13.1s-29.6-18.9-19.6-38.3c9.8-19.3 42.8-49 68.7-104.2zM876.5 2493s6.5-34 4.7-64.8c0 0 24.4 22.3-4.7 64.8zM685 2134.9c35.6-5 50.5 27.7 50.5 27.7-40.8 1.5-50.5-27.7-50.5-27.7zM786.5 2459s54.2 2 57.3 52.6c-.1-.1-40.8-7.8-57.3-52.6z"></path><path fill="#add5fd" d="M2711.8 1609.8v97.9c0 16.3-13.2 29.4-29.4 29.4-8.1 0-15.5 3.3-20.8 8.6-5.3 5.3-8.6 12.7-8.6 20.8v1666.3c0 16.3-13.2 29.4-29.5 29.4h-1344c-16.3 0-29.4-13.2-29.4-29.4V1766.6c0-16.3-13.2-29.5-29.4-29.5-8.1 0-15.5-3.3-20.8-8.6-5.3-5.3-8.6-12.7-8.6-20.8v-97.9c0-16.3 13.2-29.4 29.4-29.4h6.5c16.3 0 29.4-13.2 29.4-29.5.1-13.8.6-27.4 1.6-40.7 7.7-100.7 42.3-186.5 92.7-257.3 24.9-34.9 53.7-66.3 85-93.9 75.5-66.8 165.7-112.3 252-136.6 12.9-3.6 25.7-6.8 38.3-9.5 120.6-25.6 176.7-66.1 202.8-97.3 11.7-14 33.4-14 45.1 0 26.1 31.2 82.2 71.7 202.8 97.3 212.7 45.2 468.4 224.2 469.6 537.9.1 16.3 13.2 29.5 29.4 29.5h6.5c16.2 0 29.4 13.2 29.4 29.5z" class="coloradd4fd svgShape"></path><path fill="#c0dfff" d="M2652.9 1846v313c-113.9 86.8-339.1 211.2-586.5 89.3-388.5-191.3 10.4-733.6-272.2-770.9-276.1-36.4-383.1-160.4-358.4-318.4 75.5-66.8 165.7-112.3 252-136.6-16.6 40.9-8.7 84.7 63.4 117.1 181.2 81.5 454.6-30.8 633.4 257.9 91.8 148.5-7.4 421.2 268.3 448.6z" class="colorc0e1ff svgShape"></path><path fill="#c0dfff" d="M1677.9 2243.5c135.1-242.7 141.1-633.3-145.8-764.3-137.3-62.7-177.1-151.1-181.2-226.3-50.4 70.8-85 156.5-92.7 257.3 108 108.5 21.1 283.6-8.1 505.5v241.5c7.9 51 21.7 103.6 43.5 157.7 210.6 522.5 658.3 388.5 1263.1 462.5 34.8 4.3 66.8 9.6 96.2 15.9V2481c-452.5-136.4-1111.9 8.3-975-237.5zm-58.7-487.4c-27.3 22.3-80.5 2.1-119-45s-47.5-103.3-20.3-125.6c27.3-22.2 80.5-2.1 119 45 38.4 47.1 47.5 103.4 20.3 125.6z" class="colorc0e1ff svgShape"></path><ellipse cx="2532.6" cy="1721.3" fill="#c0dfff" rx="31.9" ry="55.1" transform="rotate(-39.222 2532.525 1721.371)" class="colorc0e1ff svgShape"></ellipse><path fill="none" d="M2711.8 1609.8v97.9c0 16.3-13.2 29.4-29.4 29.4-8.1 0-15.5 3.3-20.8 8.6-5.3 5.3-8.6 12.7-8.6 20.8v1666.3c0 16.3-13.2 29.4-29.5 29.4h-1344c-16.3 0-29.4-13.2-29.4-29.4V1766.6c0-16.3-13.2-29.5-29.4-29.5-8.1 0-15.5-3.3-20.8-8.6-5.3-5.3-8.6-12.7-8.6-20.8v-97.9c0-16.3 13.2-29.4 29.4-29.4h6.5c16.3 0 29.4-13.2 29.4-29.5.1-13.8.6-27.4 1.6-40.7 7.7-100.7 42.3-186.5 92.7-257.3 24.9-34.9 53.7-66.3 85-93.9 75.5-66.8 165.7-112.3 252-136.6 12.9-3.6 25.7-6.8 38.3-9.5 120.6-25.6 176.7-66.1 202.8-97.3 11.7-14 33.4-14 45.1 0 26.1 31.2 82.2 71.7 202.8 97.3 212.7 45.2 468.4 224.2 469.6 537.9.1 16.3 13.2 29.5 29.4 29.5h6.5c16.2 0 29.4 13.2 29.4 29.5z"></path><linearGradient id="b" x1="3090.932" x2="3843.238" y1="1145.096" y2="1145.096" gradientTransform="rotate(39.104 -122.724 -1775.45)" gradientUnits="userSpaceOnUse"><stop offset=".1" stop-color="#2954f7" class="stopColorf7c629 svgShape"></stop><stop offset="1" stop-color="#0031e9" class="stopColore98e00 svgShape"></stop></linearGradient><path fill="url(#b)" d="M1066.5 3049.3s20.6-231.5-111.9-345.9c-47.4-40.9-83.5-66.5-97.2-66.2-13.8.3-37.1 26.9-42.1 15.7-4.9-11.2 26.8-26.2-25.5-46.7-52.3-20.6-69.9-29.8-88.1-26.3-18.2 3.5-15.7 10.7-39.1-10.8-23.5-21.5-74.6-15.3-98.7-9-24.1 6.3-79 18.1-87 22.9-8 4.7 3.3 7.7 35.6 34.9 32.2 27.2 43.8 76.2 65 74 21.2-2.3 38.2-12.7 43.7-6.9 5.5 5.8-16 16.8-13.5 26.6 2.6 9.9 63.3 34.8 91 75.1 27.7 40.2 62.1 37.8 89.9 70.7 27.8 32.9 48.4 20.9 59.2 29.3 10.8 8.4-8.6 26.7 5.1 48.6l3.3 9.2 210.3 104.8z"></path><path fill="#0031e9" d="M490.2 2585.1s412.4 43 484.8 418.5l29.6 14.8s-99.5-299.6-266.4-363.8-200.7-73-248-69.5z" class="colore98e00 svgShape"></path><linearGradient id="c" x1="3023.05" x2="3885.307" y1="1259.332" y2="1259.332" gradientTransform="scale(-1 1) rotate(53.187 -68.55 -2633.142)" gradientUnits="userSpaceOnUse"><stop offset=".1" stop-color="#1a44e3" class="stopColore1e31a svgShape"></stop><stop offset="1" stop-color="#092db5" class="stopColor8bb509 svgShape"></stop></linearGradient><path fill="url(#c)" d="m1140.3 3107.7 214.5-286.6-13.3-11.9c-27.5-37.9-71.5-17.8-78.2-41.7-6.7-23.8 27.5-50.3-8.9-119.4-36.4-69.2-8.9-125.2-57.6-199.2-48.7-74-49.3-193-64.1-204.1-14.8-11.1-47.9 17.6-53.9 4.4-6-13.2 23.1-34.7 41.4-68.8 18.3-34-56.3-87-80-159.6-23.7-72.7-20.9-93.7-34.3-83.5-13.4 10.2-70.7 94.5-97.8 130.6-27 36.1-72.3 117.9-52.1 172 20.2 54.1 9.8 44.9-8.5 73.2-18.3 28.3-14.8 64.1-15.8 166-1.1 101.8 45.7 58.7 61.2 74.7s-45.1 37.1-55 60c-9.9 22.9 17.5 98.4 44.9 208.5 27.3 110.1 257.5 285.4 257.5 285.4zm-128.4-751.9c-1.2-13.3 18.8-26 44.6-28.3 25.9-2.3 47.8 6.6 49 19.9 1.2 13.3-18.8 26-44.6 28.3-25.8 2.4-47.8-6.5-49-19.9z"></path><path fill="#092db5" d="M1000.6 1961.3s-272.2 576.3 223.1 1035l18.7-25s-300.1-221.7-294.1-545.8 14.1-387.1 52.3-464.2z" class="color8bb509 svgShape"></path><linearGradient id="d" x1="1509.285" x2="1413.721" y1="3052.629" y2="3606.9" gradientTransform="matrix(-1 0 0 1 2332.071 0)" gradientUnits="userSpaceOnUse"><stop offset="0" stop-color="#5dacfb" class="stopColor5db7fb svgShape"></stop><stop offset="1" stop-color="#005ab4" class="stopColor007ab4 svgShape"></stop></linearGradient><path fill="url(#d)" d="M498.7 2932.1c43.5 42.6 54.9 114.5 85.6 113.5 30.7-1 56.4-14.2 63.7-5.2 7.3 9-24.9 22.4-22.2 36.9 2.7 14.5 87.4 56.9 123 117.8 35.6 60.9 85.3 61.1 121.8 111.5s67.4 35.3 82.1 48.5c14.6 13.2-15.2 37.5 2.1 70.5l3.8 28.3h279.1s-42.6-292.7-111.6-351.2c-68.9-58.5-113.1-104.7-132.9-105.7-19.9-1-56.3 34.8-62.3 18.1-5.9-16.7 41.3-34.8-31.7-70s-97.4-50.4-124-47.3c-26.6 3-23.7 13.8-55.2-19.8-31.5-33.5-105.8-30.1-141.2-23.6-35.3 6.5-115.7 17.7-127.8 23.6-11.8 6.1 4.2 11.6 47.7 54.1zm244.1 140.5c10.3-6 21.3-6.2 24.6-.6 3.3 5.6-2.5 15-12.8 21s-21.3 6.2-24.6.6c-3.3-5.7 2.4-15 12.8-21zm-33.1-57.3c20.6-11.9 42.6-12.4 49.1-1.1s-4.9 30.1-25.6 42c-20.6 11.9-42.6 12.4-49.1 1.1s4.9-30.1 25.6-42z"></path><path fill="#0575e6" d="M470.2 2882.8s507.4 9.3 659.7 524.8l-24.5 4.5s-52.2-292.4-285.6-402.6c-233.3-110.2-281.1-126.7-349.6-126.7z" class="color007ab4 svgShape"></path><linearGradient id="e" x1="-4129.36" x2="-4173.554" y1="1026.544" y2="1900.599" gradientTransform="scale(-1 1) rotate(-10.19 -124.434 -3151.805)" gradientUnits="userSpaceOnUse"><stop offset="0" stop-color="#5dacfb" class="stopColor5db7fb svgShape"></stop><stop offset="1" stop-color="#005ab4" class="stopColor007ab4 svgShape"></stop></linearGradient><path fill="url(#e)" d="M3034.1 2713.7c10 19.5-19.6 38.3-19.6 38.3l7.8 13.1 17.4-15.4c23.9-26.6 58-3.6 101.3 18.1 43.3 21.7 92.6-12.7 92.6-12.7-24.7 6-35.2 4.5-70.1-25-34.9-29.5-109.5-1.1-109.5-1.1l13.7-11.2c67.1-35.9 111.6-4.8 169.5 5.7 57.9 10.5 65.8 5.7 114.1-25.1 48.4-30.9 46-56.6 46-56.6-56.6 7.2-107.6 21.3-137.3 39.2-29.8 17.9-29.3 14.1-86.8 6.4-57.5-7.7-85.2 11.8-85.2 11.8 29.7-25.5 46.6-77.6 46.6-77.6 20.8-29 68.8 14.8 105 2.6 36.2-12.2 40.3-8.9 110.2 6.7s113.3-50.3 113.3-50.3c-41.7 5.3-88.3-4.8-125.6 9.4s-70.4-8.9-106.5-18.4c-36.1-9.5-93.2 23.2-93.2 23.2s-6.5 8.4 7.5-15.1 15.3 1.8 50.8-15.9c35.4-17.7 47.7-41 101.8-29.5 54.1 11.5 124.4-.3 165.1-14 40.7-13.7 78.3-62.3 15.4-34.5-62.9 27.8-101.8.3-141.9-9.5-40.1-9.7-57.6 8.8-104.9 31.1-47.3 22.3-84.9 53.3-84.9 53.3l8.6-36c21.2 2.4 40-11.7 57.6-29s39.3-31.4 82.1-35.9 58.9-33 81.4-64.1c22.4-31.1 53.6-38 50.9-44.2-2.7-6.3-44 9.4-68.8 14.4-24.8 5.1-51.7 37.7-94.8 40.4-43 2.7-87 27.1-87 27.1s.6-10.4 11.5-27.9c11-17.4 39.6-14.5 61.4-28.6 21.8-14.1 22.7-14.2 55.3-9.9s77.5-27.8 94.9-47c17.3-19.2 35.3-37.5 35.3-37.5s-40.1-8.1-74.2 9.5c-34 17.5-57.8 15.9-101.8 22.4-43.9 6.6-70.5 53.3-70.5 53.3l3.4-15.8s18.9-56.8 69.9-61.9c51-5.1 49-36.7 101.2-32.7 52.1 3.9 91.9-.4 134.4-10.1 42.6-9.7 52.5-20.9 46.5-23.6s-23 2.9-54-7.9c-31.1-10.9-37.8-13.6-74.1-10.3-36.3 3.2-57.6-19.5-99.5-20.5-41.8-1-83.8 46.8-83.8 46.8s9.5-25.2 26.8-61.4c47.3 7.2 86.6-25.2 86.6-25.2 81.3 79.3 167.8 18.9 167.8 18.9s-25 8.9-57.1-9.7-52.3-22.3-52.3-22.3c62.7-13 95.8-69.5 95.8-69.5-24.4 29.7-101.5 18.6-127.2 22.6-25.6 4-39.2 25.5-39.2 25.5-23.7-2.6-35 3.1-35 3.1s22-32.5 44.8-58.7c22.8-26.2 79.8-6 130.8-5.4 51 .6 74.3-44.1 74.3-44.1-14.2 10.3-34.5-4.8-67.8-4.8-33.2 0-65.1 10.4-65.1 10.4 9.5-9 42-14.6 81.1-23.8 39.1-9.2 41.4-30 41.4-30s-10.3.6-28 6.2c-17.7 5.6-39.1-.2-34.9-7.8 4.2-7.6 24.9-4.1 54.3-6.5 29.4-2.3 71.4-27.5 49.3-31.3-22.2-3.8-65-11-88.9 1.5-23.9 12.5-49.3 27-49.3 27s3.6-5.4 20.6-26.7c17.1-21.3 24.2-15.1 65-33.7 40.7-18.6 51-48.9 55-72.8 4-23.8 33-29.7 33-29.7s-6.8-3.4-23.5-1.2-28 29.7-47.5 37.9c-19.5 8.1-29.5 13-29.5 13 32.1-36.6 10.9-58.7 10.9-58.7-3 20.9-43 56.4-56.7 76.5s-7.7 50.5-16.7 68.6c-9 18.1-43.6 45.9-43.6 45.9s2.2-10.2 3.3-40.7 37.4-50.7 52.2-100.7c14.8-50-13.3-65.5-13.3-65.5 11.1 26.2-56.2 102.6-64.9 139.8-8.7 37.2 11.7 77.2 11.7 77.2l-38.5 41.7 11.5-17.3c14.3-20.9 7.7-56.1 2.3-75.9-5.4-19.8 3.7-15.3 14.3-59.8s-11.6-49.9-11.6-49.9c8.6 45.1-28.4 65.8-34.7 111.9-6.4 46.1 23 69.6 6.3 101-16.7 31.4-51.3 78.2-51.3 78.2-1.3-10.2 12.8-54.4 11.6-86.3-1.2-31.9 12.5-64.7 24.5-103.1 12.1-38.3-6.6-51.9-6.6-51.9-2.4 39.9-59.9 99.1-71.1 137.3-11.1 38.2 29.2 96.2 31.5 106.3 2.2 10.1-15.3 34.9-34.3 56.2-19 21.3-33.2 79.6-33.2 79.6l1.6-17.2c-6.9-32.1 2.6-83.3 5.6-133.6 3-50.3-27.2-50.3-50.9-66.1-23.7-15.8-35.6-37.9-35.6-37.9 11.2 56.8 34.8 54 29.8 81.1-5 27-5.5 111.9-20.7 140.3-15.2 28.3 1.8 80.8 17.8 117.4 16 36.6 16.8 79.9.7 101.7-16.1 21.8-3.3-33.5-25.2-64.6-21.9-31.1-5.9-38.8-9-70.5-3.1-31.6-9.9-26.1-20.1-54-10.2-27.9 3.6-74.9 2.6-116.3-1-41.3-14.1-54.8-14.1-54.8 5.5 36.1-29.6 167.1-25.7 192 3.9 25 23.4 55.7 41 105 17.6 49.4 37.9 64.4 41.3 90.9 3.4 26.4-17.5 43.5-17.5 43.5-13.6-3-13.9-35-14.1-75.5-.2-40.5-48.7-99.1-86.9-138.1s-20.1-96.4-32.3-58.8c-12.2 37.6 21 101.9 18.3 106.1-2.8 4.1-31.4 1.6-51.1-1.5-19.7-3.1-29.7-22.1-29.7-22.1s3.2 25 43.4 67c40.2 42 70.9 16.4 88 47.2 17.1 30.8 24.4 63.6 50.8 87.8s10.1 40.4-10.7 104.6-46.8 87.3-57.1 78.7c-10.3-8.6 15.4-34.5 29.6-89.3s-8.2-47.7-1.3-87.5c6.9-39.8-11.9-32.4-17.2-51.5-5.3-19.1-1.7-30.2-12.8-33.7-11.1-3.5-15.2 51-15.2 80.2 0 29.2-8.5 14.3-31.9-8.2s-45.4-36.6-45.4-36.6c11.2 36.3-24 85.1 1.9 140.2 25.7 55.1 58.7 84.8 68.7 104.2zm84.7-285.5c-1.7 30.9 4.7 64.8 4.7 64.8-29.1-42.5-4.7-64.8-4.7-64.8zm145.6-265.6s14.9-32.7 50.5-27.7c.1 0-9.6 29.2-50.5 27.7zm-108.1 348.9c3.1-50.6 57.3-52.6 57.3-52.6-16.6 44.9-57.3 52.6-57.3 52.6z"></path><linearGradient id="f" x1="-863.737" x2="-111.431" y1="4359.284" y2="4359.284" gradientTransform="scale(-1 1) rotate(39.103 425.344 -232.318)" gradientUnits="userSpaceOnUse"><stop offset=".1" stop-color="#2954f7" class="stopColorf7c629 svgShape"></stop><stop offset="1" stop-color="#0031e9" class="stopColore98e00 svgShape"></stop></linearGradient><path fill="url(#f)" d="M2933.5 3049.3s-20.6-231.5 111.9-345.9c47.4-40.9 83.5-66.5 97.2-66.2 13.8.3 37.1 26.9 42.1 15.7 4.9-11.2-26.8-26.2 25.5-46.7 52.3-20.6 69.9-29.8 88.1-26.3 18.2 3.5 15.7 10.7 39.1-10.8s74.6-15.3 98.7-9c24.1 6.3 79 18.1 87 22.9 8 4.7-3.3 7.7-35.6 34.9-32.2 27.2-43.8 76.2-65 74-21.2-2.3-38.2-12.7-43.7-6.9-5.5 5.8 16 16.8 13.5 26.6-2.6 9.9-63.3 34.8-91 75.1-27.7 40.2-62.1 37.8-89.9 70.7-27.8 32.9-48.4 20.9-59.2 29.3s8.6 26.7-5.1 48.6l-3.3 9.2-210.3 104.8z"></path><path fill="#0031e9" d="M3509.8 2585.1s-412.4 43-484.8 418.5l-29.6 14.8s99.5-299.6 266.4-363.8 200.7-73 248-69.5z" class="colore98e00 svgShape"></path><linearGradient id="g" x1="6076.577" x2="6938.834" y1="-2820.531" y2="-2820.531" gradientTransform="rotate(53.187 -616.554 -3727.786)" gradientUnits="userSpaceOnUse"><stop offset=".1" stop-color="#1a44e3" class="stopColore1e31a svgShape"></stop><stop offset="1" stop-color="#092db5" class="stopColor8bb509 svgShape"></stop></linearGradient><path fill="url(#g)" d="M3117.3 2822.3c27.4-110.2 54.8-185.6 44.9-208.5-9.9-22.9-70.6-44-55-60 15.5-16 62.2 27.1 61.2-74.7-1.1-101.8 2.4-137.7-15.8-166s-28.7-19-8.5-73.2c20.2-54.1-25.1-135.9-52.1-172-27-36.1-84.4-120.4-97.8-130.6-13.4-10.2-10.7 10.9-34.3 83.5-23.7 72.7-98.3 125.6-80 159.6 18.3 34 47.4 55.6 41.4 68.8-6 13.2-39.1-15.5-53.9-4.4-14.8 11.1-15.4 130.1-64.1 204.1-48.7 74-21.2 130.1-57.6 199.2-36.4 69.2-2.2 95.6-8.9 119.4-6.7 23.8-50.7 3.7-78.2 41.7l-13.3 11.9 214.5 286.6c-.1 0 230.1-175.3 257.5-285.4zm-178.2-446.6c-25.9-2.3-45.8-15-44.6-28.3 1.2-13.3 23.1-22.2 49-19.9 25.9 2.3 45.8 15 44.6 28.3-1.2 13.4-23.2 22.3-49 19.9z"></path><path fill="#092db5" d="M2999.4 1961.3s272.2 576.3-223.1 1035l-18.7-25s300.1-221.7 294.1-545.8-14.1-387.1-52.3-464.2z" class="color8bb509 svgShape"></path><linearGradient id="h" x1="6605.296" x2="6509.732" y1="3052.629" y2="3606.9" gradientTransform="translate(-3428.082)" gradientUnits="userSpaceOnUse"><stop offset="0" stop-color="#5dacfb" class="stopColor5db7fb svgShape"></stop><stop offset="1" stop-color="#005ab4" class="stopColor007ab4 svgShape"></stop></linearGradient><path fill="url(#h)" d="M3548.8 2878.1c-12-6-92.4-17.1-127.8-23.6-35.3-6.5-109.7-10-141.2 23.6-31.5 33.5-28.6 22.8-55.2 19.8s-51 12.1-124 47.3c-73 35.2-25.8 53.3-31.7 70-5.9 16.7-42.4-19.1-62.3-18.1s-64 47.2-132.9 105.7-111.6 351.2-111.6 351.2h279.1l3.8-28.3c17.4-33-12.5-57.3 2.1-70.5 14.6-13.2 45.6 1.9 82.1-48.5 36.5-50.4 86.2-50.6 121.8-111.5 35.6-60.9 120.3-103.3 123-117.8 2.7-14.5-29.5-27.9-22.2-36.9 7.3-9 33 4.2 63.7 5.2 30.7 1 42.2-70.9 85.6-113.5 43.7-42.6 59.7-48.1 47.7-54.1zM3270 3093.6c-3.3 5.6-14.3 5.4-24.6-.6s-16-15.4-12.8-21c3.3-5.6 14.3-5.4 24.6.6 10.4 6 16.1 15.3 12.8 21zm45.9-36.3c-6.5 11.3-28.5 10.8-49.1-1.1s-32.1-30.7-25.6-42 28.5-10.8 49.1 1.1c20.7 11.9 32.1 30.7 25.6 42z"></path><path fill="#0575e6" d="M3529.8 2882.8s-507.4 9.3-659.7 524.8l24.5 4.5s52.2-292.4 285.6-402.6c233.3-110.2 281.1-126.7 349.6-126.7z" class="color007ab4 svgShape"></path><linearGradient id="i" x1="1870.886" x2="2834.675" y1="2775.33" y2="2775.33" gradientUnits="userSpaceOnUse"><stop offset=".1" stop-color="#1a44e3" class="stopColore1e31a svgShape"></stop><stop offset="1" stop-color="#092db5" class="stopColor8bb509 svgShape"></stop></linearGradient><path fill="url(#i)" d="M2834.7 3462.3h-963.8l4.6-84.1 1.1-19.6 5.5-100.2 1.1-19.6 5.5-100.2 1.1-19.6 5.5-100.2 1.1-19.6 5.5-100.2 1.1-19.6 6.2-113.9 1.1-19.6 6.2-113.9 1.1-19.6 6.2-113.9 1.1-19.6 6.2-113.9 1.1-19.6 4.3-78.2s-.8-14.8 3.8-35.6c1.3-6.1 3.2-12.7 5.6-19.6 6.9-19.6 18.8-41.5 39.3-60.6 5.8-5.4 12.3-10.6 19.6-15.5 20-13.3 45.7-24 79-29.8l34.9-3.9 19.6-2.2 17.2-1.9 43.6-4.9 53.1-1.1 19.6-.4 113.9-2.3 19.6-.4 34.1-.7 79.8 7.1 19.6 1.8 10.3.9 73.4 6.6c9.9 2.1 20.1 4.8 30.2 8.1 6.6 2.2 13.1 4.6 19.6 7.4 36.5 15.8 71.4 42.9 96.1 91.8 3.1 6.2 6.1 12.7 8.8 19.6 3.3 8.1 6.2 16.7 9 25.8 7.4 25 12.8 54.1 15.5 88 .5 6.4.9 12.9 1.2 19.6v.7l2.9 100.3.4 12.9.6 19.6 3.3 113.9.6 19.6 3.3 113.9.6 19.6 3.3 113.9.6 19.6 2.9 100.2.6 19.6 2.9 100.2.6 19.6 2.9 100.2.6 19.6 2.9 100.2.6 19.6 2.2 84.1z"></path><path fill="#021b79" d="M2780.7 2422.5c-19.3 4.6-36 13.4-50.3 26.5-16.1 10.4-28.8 24.3-38.1 41.5-22.9 37.6-44 76.4-63.5 115.9-71.9 145.1-126.1 297.9-188.3 447.3-2.4 5.7-4.9 11.3-7.3 16.9-36.4 83.4-80 164.1-93.7 255.1-4.4 29.5-9.1 59.5-9.6 89.5-.2 15.8.9 31.5 2.7 47.2h-461.7l65.6-1195.1s-7.2-134.4 147.4-161.1l32.4-3.6c-1.9 7.1-3.7 14.2-5.2 21.3-6.8 30.9-10.6 62.5-14.4 93.8-2.5 20.2-4 40.4-4.7 60.7-1.9 54.8 3.5 108.6 12 162.7 3 19.1 7.1 38.2 12.7 56.7 2.5 8.4 5.4 16.7 8.7 24.9 7.8 19.4 15.4 39.3 25.3 57.8 12.7 23.9 29.8 46.7 48.9 65.8 29.2 29.2 59.5 45.5 97.5 59.6 18.4 6.9 40.3 8.3 59 10.3 7.3.8 14.4 1 21.7.3 43.3-4.2 79.6-11.1 118-33.1 24.7-14.2 48.5-33.7 66.2-56.3 20.4-26 38.8-50.3 52.5-80.2 24.9-54.5 43.5-109.7 56.3-168.1 17.3-78.9 26.6-159.1 36.4-239.2 49.6 34.8 90.2 99.8 95.8 226.2l1.5 51.8c-8.1.8-15.9 2.4-23.8 4.9z" opacity=".2" class="color012d68 svgShape"></path><g opacity=".62" fill="#000000" class="color000000 svgShape"><path fill="#021b79" d="M2004.9 2135.9v1326.4h-19.6V2151.4c5.8-5.4 12.3-10.6 19.6-15.5zM2138.4 2100.1v1362.2h-19.7v-1360zM2271.8 2091.8v1370.5h-19.6V2092.2zM2405.3 2089v1373.3h-19.6V2089.4zM2519.2 2095.5l19.6 1.7v1365.1h-19.6zM2672.3 2120.2v1342.1h-19.6V2112.8c6.5 2.2 13.1 4.6 19.6 7.4zM2805.7 2466.1v996.3h-19.6V2257.5c7.4 25 12.8 54.1 15.5 88 .5 6.4.9 12.9 1.2 19.6v.7l2.9 100.3z" opacity=".47" class="color012d68 svgShape"></path><path fill="#021b79" d="m2538.8 2097.2 10.3.9h-393.6l43.6-4.8 53.1-1.1 19.6-.4 113.9-2.4 19.6-.4 34.1-.7 79.8 7.2zM2768.3 2212c3.1 6.2 6.1 12.7 8.8 19.6h-836.8c1.3-6.1 3.2-12.7 5.6-19.6h822.4zM2802.8 2365.1h-871.7l1.1-19.6h869.4c.5 6.3.9 12.9 1.2 19.6zM2806.7 2498.6h-882.9l1.1-19.7h881.2zM2810.6 2632h-894.1l1-19.6H2810zM2814.4 2765.5h-905.3l1.1-19.6h903.7zM2818.3 2899h-916.5l1.1-19.6h914.8zM2821.8 3018.8h-926.6l1.1-19.6h924.9zM2825.3 3138.6h-936.6l1-19.6h935zM2828.8 3258.5h-946.7l1.1-19.7h945zM2832.2 3378.3h-956.7l1.1-19.6h955.1z" opacity=".47" class="color012d68 svgShape"></path></g><path fill="none" d="m2266.2 2088.3-183 16.4c-80.1 17.2-171.6 66.3-180.4 261.1l-31.9 1096.6h963.8l-65.6-1195.1s7.2-134.4-147.4-161.1l-115.3-12.9-240.2-5z"></path><path fill="#2a50dd" d="M2209.4 2160.4c-19.1 7.3-38.7 13.5-58.8 17.7h-.5c-2.9-9.7-5.2-19.6-7.1-29.5-.2-16.7-3.1-32.8-8.6-48.1l64.8-7.2 134.6-2.8c-39.9 26.1-81.2 50.1-124.4 69.9z" class="colordd2a2a svgShape"></path><path fill="#b7d8f9" d="M2321 2236.3c73.7 0 133.4-59.7 133.4-133.4v-281.4h-266.8v281.4c0 73.7 59.7 133.4 133.4 133.4z" class="colorf9b8b7 svgShape"></path><path fill="#94c3f2" d="M2420.4 1828.2c-13.1 14.3-21.9 31.1-26.5 50.3-3.8 15.8-8.6 31.3-14.3 46.5-12.6 26.6-27.8 52-44.9 75.9-22.7 27.2-47.9 52.2-75.1 74.8-22.6 16.3-46.3 30.9-71 43.7-.7-5.4-1-10.9-1-16.4v-281.4h237.5c-1.6 2.1-3.2 4.3-4.7 6.6z" class="colorf29494 svgShape"></path><path fill="#021b79" d="M2011.4 1724s-114.9-46.8-60.7-159.3l509.3-124c20.4 32.3 111.8 297.6-36.7 399.5L2011.4 1724z" class="color012d68 svgShape"></path><linearGradient id="j" x1="-852.927" x2="-841.486" y1="2301.841" y2="1706.92" gradientTransform="scale(-1 1) rotate(10.166 -11.34 -6150.119)" gradientUnits="userSpaceOnUse"><stop offset="0" stop-color="#b7d8f9" class="stopColorf9b8b7 svgShape"></stop><stop offset="1" stop-color="#94c3f2" class="stopColorf29494 svgShape"></stop></linearGradient><path fill="url(#j)" d="M1986.1 1636.5s25.5 139.8 73.2 312.6c36.1 130.7 230.7 72.9 301.2 22.5 66.4-47.5 126-98.1 114.3-226.8l-4.1-70.4s68.8-74.5 26.8-138.9c-36.8-56.4-85.1-38.5-105.5 2.2-7.9 15.8-9.3 34.5-9.5 43.2-.1 2.8.1 5.6.6 8.4l14.7 81.5-2.8 1c-19.1 7-40.1-3.5-46-22.9l-18.4-61.2c-5.9-19.7-23.4-33.9-44-35.1-26.5-1.5-54 15.1-76.9-25.1.2.1-24.5 103.3-223.6 109z"></path><linearGradient id="k" x1="-1081.851" x2="-558.629" y1="1668.353" y2="1668.353" gradientTransform="scale(-1 1) rotate(10.166 -11.34 -6150.119)" gradientUnits="userSpaceOnUse"><stop offset=".1" stop-color="#1a44e3" class="stopColore1e31a svgShape"></stop><stop offset="1" stop-color="#092db5" class="stopColor8bb509 svgShape"></stop></linearGradient><path fill="url(#k)" d="m2460.1 1440.8-383.6 111.8c-43.2 11.4-74.3 17.7-112.2 13.6l-13.5-1.4-14-154.5c-5-54.7 34.3-103.5 88.8-110.5l329.9-42c29.9-3.8 58.1 14.7 66.5 43.7l38.1 139.3z"></path><path fill="#ffffff" d="m1944 1490.8-3.8-41.6L2438 1360l8.8 35.1c-23.2 4.3-469.4 89.4-502.8 95.7z" class="colorffffff svgShape"></path><path fill="#5397db" d="m2454.5 2057-172.8 173.4 17.5 17.4c22.9 22.7 67 24.6 88.6.5l133.5-149.3-66.8-42zM2187.6 2057l94.1 173.4-17.5 17.4c-22.9 22.7-60.2 21.6-81.7-2.4l-67-146 72.1-42.4z" class="color9053db svgShape"></path><path fill="#021b79" d="M2420.2 1648.3c-3.6 0-6.6-2.8-6.8-6.4 0-.8-1-20.3 5.7-42.1 9.1-29.7 28-49.1 54.5-56.2 3.6-1 7.3 1.2 8.3 4.8 1 3.6-1.2 7.3-4.8 8.3-53.1 14.2-50.2 83.8-50.2 84.5.2 3.7-2.7 6.9-6.4 7.1h-.3z" class="color012d68 svgShape"></path><path fill="#021b79" d="M2462.4 1610.5c-1.4 0-2.8-.4-4-1.3l-28.5-21.2c-3-2.2-3.6-6.5-1.4-9.5s6.5-3.6 9.5-1.4l28.5 21.2c3 2.2 3.6 6.5 1.4 9.5-1.4 1.7-3.5 2.7-5.5 2.7zM2224.6 2031.7c-3.4 0-6.4-2.6-6.7-6.1-.4-3.7 2.3-7.1 6-7.5 104.2-11.4 182.9-91.9 183.7-92.7 2.6-2.7 6.9-2.8 9.6-.2 2.7 2.6 2.8 6.9.2 9.6-3.3 3.5-82.8 84.8-192 96.8-.3.1-.5.1-.8.1z" class="color012d68 svgShape"></path><path fill="#3d7ec0" d="M1763.9 2227.2s191.1 4.5 162.3 414.5l-165 190 2.7-604.5z" class="color6e3dc0 svgShape"></path><linearGradient id="l" x1="1038.059" x2="1926.224" y1="2831.725" y2="2831.725" gradientUnits="userSpaceOnUse"><stop offset=".1" stop-color="#284cd2" class="stopColord22a28 svgShape"></stop><stop offset="1" stop-color="#0026b3" class="stopColorb30000 svgShape"></stop></linearGradient><path fill="url(#l)" d="m1402.3 2198.6-168.7 15.1c-73.8 15.8-158.1 61.1-166.2 240.6L1038 3464.8h888.2l-60.4-1101.3s6.6-123.9-135.8-148.5l-106.2-11.9-221.5-4.5z"></path><path fill="#0026b3" d="M1087.8 2506.6c17.7 4.2 33.2 12.4 46.4 24.4 14.8 9.6 26.5 22.4 35.1 38.2 21.1 34.7 40.5 70.4 58.5 106.8 66.3 133.7 116.2 274.6 173.5 412.2 2.2 5.2 4.5 10.4 6.7 15.6 33.5 76.8 73.7 151.2 86.3 235.1 4.1 27.2 8.4 54.9 8.8 82.5.2 14.6-.9 29-2.5 43.5h425.5l-60.4-1101.3s6.6-123.9-135.8-148.5l-29.8-3.3c1.8 6.5 3.4 13.1 4.8 19.7 6.3 28.4 9.8 57.6 13.3 86.4 2.3 18.6 3.7 37.3 4.3 56 1.8 50.5-3.3 100.1-11.1 150-2.8 17.6-6.5 35.2-11.7 52.3a270 270 0 0 1-8 22.9c-7.2 17.9-14.2 36.2-23.3 53.3-11.7 22.1-27.5 43.1-45.1 60.6-26.9 26.9-54.8 41.9-89.9 54.9-17 6.3-37.1 7.6-54.3 9.5-6.7.7-13.3.9-20 .3-39.9-3.9-73.3-10.2-108.7-30.5-22.8-13.1-44.6-31-61-51.9-18.8-23.9-35.7-46.3-48.3-73.9-22.9-50.2-40.1-101.1-51.9-155-15.9-72.7-24.5-146.6-33.6-220.5-45.7 32.1-83.1 92-88.3 208.5l-1.4 47.8c7.4.6 14.7 2.1 21.9 4.4z" class="colorb30000 svgShape"></path><path fill="#5397db" d="M1361.9 1932.9c113.7-187.6 141.9-301.1 279.3-325.1 76-13.3 154.5 6.4 215.2 54.2 109.6 86.2 80.7 199.5 92.1 418.6 5.2 101.1 27.5 189.1 53.3 259.6 60.3 164.8-1.1 349.8-149.3 443.6-209.2 132.5-421.8 115.1-421.8 115.1s-195.5-85.3-317.1-301c-86.2-152.9-52.6-344.8 78.5-461.5 56.1-49.9 117.3-116.9 169.8-203.5z" class="color9053db svgShape"></path><path fill="#3d7ec0" d="M1192.1 2136.4c56.1-49.9 117.3-116.9 169.8-203.5 56.3-92.9 91.7-167.6 129.7-222.3-5.3 16.2-9.8 32.7-13.1 49.7-23.8 123.3-11 247.4 6.1 370.4 7.6 54.8 16.7 109.6 20.9 164.8 2 26.7 3.4 53.5 6.4 80.1 3.8 33.9 8.3 68.7 18.9 101.3 6.6 20.3 15.2 40.3 25.3 59.1 10.1 18.7 24 35.9 37.8 51.8 14.2 16.4 32.1 28.9 49.4 41.5 11.6 8.4 24.3 15.1 37.3 21 35.4 16.1 72.1 29.8 110.4 36.7 38.2 6.9 77.8 10.8 116.7 9.2 14.6-.6 29.1-2 43.6-4.1-26.4 35.6-59.6 66.9-98.9 91.7-209.2 132.5-421.8 115.1-421.8 115.1s-195.5-85.3-317.1-301c-86-152.9-52.5-344.9 78.6-461.5z" opacity=".6" class="color6e3dc0 svgShape"></path><linearGradient id="m" x1="-1412.375" x2="-1399.606" y1="1953.876" y2="1289.889" gradientTransform="scale(-1 1) rotate(-14.128 -200.742 2979.64)" gradientUnits="userSpaceOnUse"><stop offset="0" stop-color="#b7d8f9" class="stopColorf9b8b7 svgShape"></stop><stop offset="1" stop-color="#94c3f2" class="stopColorf29494 svgShape"></stop></linearGradient><path fill="url(#m)" d="M1491.5 1855.1c58.6-89.8 165.8-150.1 266.8-124.9s154.9 112.7 175.6 236.3c-20.5 105.6-53.5 200.4-88.5 238-29.6 31.5-136.2 78.3-220.9 56.9-84.7-21.3-157-107-167.7-154.7-11.6-38.7 2.8-148.9 34.7-251.6z"></path><path fill="#021b79" d="M1758.4 1730.2s144.7 18.7 175.6 236.3c0 0-1.6-5-5.2-13.4-70.2-165.7-278.2-219.7-421.4-110.7-10.1 7.7-15.5 12.8-15.5 12.8 130.1-177 266.5-125 266.5-125z" class="color012d68 svgShape"></path><linearGradient id="n" x1="-2608.853" x2="-2282.361" y1="2489.03" y2="2489.03" gradientTransform="translate(4691.45)" gradientUnits="userSpaceOnUse"><stop offset="0" stop-color="#b7d8f9" class="stopColorf9b8b7 svgShape"></stop><stop offset="1" stop-color="#94c3f2" class="stopColorf29494 svgShape"></stop></linearGradient><path fill="url(#n)" d="m2082.6 2560.3 98.5 119.1 127.2-113.3c5.2-4.7 9.7-10.1 13.1-16.2l86-151.1c7.1-12.4-10.2-28.8-27.9-7.1l25.7-45.8c9.1-13.3-16.6-26.6-31.3-5.6l9.9-21.6c5.8-16.2-23-33.4-40.9-4l-11.4 16.9c4.7-15.1-10.5-32.1-22.7-17.4-6.2 7.4-24.3 39.1-39.4 66.2-15.3 27.5-38.3 50-66.1 64.9l-18.1 9.7 2.9-47.5s27-46.8 23.8-63.3c-4.4-22.7-22.5-17.8-22.5-17.8s-85 91.5-106.8 233.9z"></path><linearGradient id="o" x1="-2168.7" x2="-1067.945" y1="2782.434" y2="2782.434" gradientTransform="matrix(-1 0 0 1 45.476 0)" gradientUnits="userSpaceOnUse"><stop offset=".1" stop-color="#2954f7" class="stopColorf7c629 svgShape"></stop><stop offset="1" stop-color="#0031e9" class="stopColore98e00 svgShape"></stop></linearGradient><path fill="url(#o)" d="M1431.7 2354.4c-46.6-128.3-397.6-152.3-301.8 250.9l314.9 597.5s88.4 151.7 225.4 63.6c119.1-76.6 451-460.6 535.6-559.5 11.4-13.3 11.1-32.9-.6-45.9l-105.3-117c-12.2-13.5-32.7-15.4-47.1-4.3L1647.7 2851l-216-496.6z"></path><path fill="#0031e9" d="m2205.2 2661-64.4-71.5c-2.5 31.6-6.5 63.7-14.9 94.3-6 22.1-15.5 43-24.6 64-4.5 10.3-9.6 20.4-15.6 29.9-18.7 29.9-41.9 58.9-69.1 81.6-44.6 37.1-93.4 70.1-144.4 97.8-32.4 17.6-66.2 32.3-100.5 46.1-22.7 9.1-46.1 16.9-70.1 21.5-22.5 4.4-45.3 7.7-68.2 8.9-21.7 1.2-43.3-2.3-64.7-5.8-8-1.3-15.8-3.3-23.4-6.2-17.9-6.9-37.2-14.1-53.9-24.4-51.6-31.7-90.4-77.5-122.9-127.9-43.2-66.8-69.1-142.1-103.3-213.4-25-52-52-103-78.3-154.4-20.3-39.7-39.9-79.8-58.1-120.5-19.1 52.2-22.4 125.3 1.1 224l314.9 597.5s88.4 151.7 225.4 63.6c119.1-76.6 451-460.6 535.6-559.5 11.4-13 11.1-32.6-.6-45.6z" class="colore98e00 svgShape"></path><path fill="#94c3f2" d="m2088 2531.4 155.3 92.5-38.1 37.1z" class="colorf29494 svgShape"></path><path fill="#021b79" d="M1580.8 2923.4c-1.8 0-3.5-.7-4.9-2-2.6-2.7-2.6-7 .1-9.6l66.9-65.5c2.7-2.6 7-2.6 9.6.1 2.6 2.7 2.6 7-.1 9.6l-66.9 65.5c-1.2 1.2-2.9 1.9-4.7 1.9zM2229.8 2643.9c-1.8 0-3.7-.7-5-2.2-2.5-2.8-2.3-7.1.4-9.6l84.5-77.4 78.6-136c1.9-3.2 6-4.4 9.3-2.5 3.2 1.9 4.4 6 2.5 9.3l-79.1 136.9c-.3.6-.8 1.1-1.3 1.6l-85.3 78.2c-1.3 1.1-2.9 1.7-4.6 1.7z" class="color012d68 svgShape"></path><path fill="#3d7ec0" d="m2091.7 2534.9 118.8 131.9c9.2 10.3 11.2 25.2 5 37.5-7.9 15.6-19.3 37.3-30.9 56-10.7 17.3-35.2 18.9-48.2 3.3l-138-166.4c-10.5-12.7-8.7-31.5 4-42 12.6-10.4 30.8-22.3 54.4-29.8 12.4-4 26.1-.2 34.9 9.5z" class="color6e3dc0 svgShape"></path><path fill="#ffffff" d="M1117.2 3444.9c-11.6 0-22.4-4.5-30.6-12.7l-49.3-49.3c-1.8-1.8-1.8-4.6 0-6.4 1.8-1.8 4.6-1.8 6.4 0l49.3 49.3c6.5 6.5 15 10 24.2 10 9.1 0 17.7-3.6 24.2-10l26.4-26.4c8.2-8.2 19-12.7 30.6-12.7 11.6 0 22.4 4.5 30.6 12.7l19.9 19.9c6.5 6.5 15 10 24.2 10 9.1 0 17.7-3.6 24.2-10l30.1-30.1c8.2-8.2 19-12.7 30.6-12.7 11.6 0 22.4 4.5 30.6 12.7l29.9 29.9c6.5 6.5 15 10 24.2 10 9.1 0 17.7-3.6 24.2-10l32.7-32.7c8.2-8.2 19-12.7 30.6-12.7 11.6 0 22.4 4.5 30.6 12.7l34.3 34.3c13.3 13.3 35 13.3 48.4 0l47.6-47.6c8.2-8.2 19-12.7 30.6-12.7 11.6 0 22.4 4.5 30.6 12.7l45.2 45.2c6.5 6.5 15 10 24.2 10 9.1 0 17.7-3.6 24.2-10l64.6-64.6c1.8-1.8 4.6-1.8 6.4 0 1.8 1.8 1.8 4.6 0 6.4l-64.6 64.6c-8.2 8.2-19 12.7-30.6 12.7-11.6 0-22.4-4.5-30.6-12.7l-45.2-45.2c-6.5-6.5-15-10-24.2-10-9.1 0-17.7 3.6-24.2 10l-47.6 47.6c-16.9 16.9-44.3 16.9-61.2 0l-34.3-34.3c-6.5-6.5-15-10-24.2-10-9.1 0-17.7 3.6-24.2 10l-32.7 32.7c-8.2 8.2-19 12.7-30.6 12.7-11.6 0-22.4-4.5-30.6-12.7l-29.9-29.9c-6.5-6.5-15-10-24.2-10-9.1 0-17.7 3.6-24.2 10l-30.1 30.1c-8.2 8.2-19 12.7-30.6 12.7-11.6 0-22.4-4.5-30.6-12.7l-19.9-19.9c-6.5-6.5-15-10-24.2-10-9.1 0-17.7 3.6-24.2 10l-26.4 26.4c-8.2 8.2-19.1 12.7-30.6 12.7z" class="colorffffff svgShape"></path><path fill="#021b79" d="M1444.8 3209.6c-2.5 0-4.8-1.3-6-3.7l-320.4-622.4c-1.7-3.3-.4-7.4 2.9-9.1 3.3-1.7 7.4-.4 9.1 2.9l320.4 622.4c1.7 3.3.4 7.4-2.9 9.1-1 .5-2 .8-3.1.8zM2939.8 3471.6H928c-3.8 0-6.8-3-6.8-6.8s3-6.8 6.8-6.8h2011.8c3.8 0 6.8 3 6.8 6.8s-3 6.8-6.8 6.8z" class="color012d68 svgShape"></path><linearGradient id="p" x1="-349.473" x2="4.846" y1="3883.323" y2="3883.323" gradientTransform="scale(-1 1) rotate(40.673 90.585 1094.22)" gradientUnits="userSpaceOnUse"><stop offset="0" stop-color="#b7d8f9" class="stopColorf9b8b7 svgShape"></stop><stop offset="1" stop-color="#94c3f2" class="stopColorf29494 svgShape"></stop></linearGradient><path fill="url(#p)" d="m2111.2 2981.3 3.2 167.7-184.8-3.3c-7.6-.1-15.1-1.5-22.3-4.1l-177.7-63.5c-14.6-5.2-11.9-30.9 17.9-25.6l-53.5-19.6c-16.9-4.6-5.1-33.7 21.8-26.7l-23.4-10.8c-16.2-9.3-4.8-43.8 30.9-32.2l21.3 5.8c-14.5-9.1-14-33.8 6.4-30.4 10.4 1.7 47.6 15 79.3 26.6 32.1 11.8 66.9 14.1 100.2 6.7l21.7-4.9-35.9-37.1s-55.3-19.4-64.3-35.3c-12.4-21.8 5.9-30.5 5.9-30.5s134.6 15.4 253.3 117.2z"></path><path fill="#5397db" d="M2501.3 2351.5c-52.4-138.6 219.6-406.6 425.8-6.9l163.4 714.5s34.5 187.4-140.5 211.8c-152.2 21.2-696.9-60.1-836.5-81.6-18.7-2.9-32.4-19.2-32-38.2l4-170.8c.5-19.7 16-35.8 35.7-36.8l553.6-30.3-173.5-561.7z" class="color9053db svgShape"></path><path fill="#3d7ec0" d="m2081.5 3150.9 2.4-104.4c24.4 24.2 50.4 47.8 78.9 67.1 20.6 13.9 43.2 24.4 65.5 35.3 11 5.3 22.3 10 34 13.6 36.6 11.3 76.1 18.9 114.6 18.3 62.9-1 126.4-8.4 188-21.6 39.2-8.4 77.3-20.3 115.3-33.1 25.1-8.5 49.9-18.7 73-31.9 21.6-12.3 42.8-25.7 62.5-40.9 18.7-14.4 34-32.5 49.1-50.5 5.7-6.7 10.7-13.9 14.9-21.7 9.9-18.3 20.6-37.9 27.1-58.2 20-62.6 19.6-127.7 10.7-192.2-11.7-85.5-43.7-165.8-65.9-248.7-16.2-60.5-30-121.6-44.7-182.4-11.3-47.1-23.6-93.9-37.4-140.2 52.6 29.5 107.1 87.3 157.6 185.1l163.4 714.5s34.5 187.4-140.5 211.8c-152.2 21.2-696.9-60.1-836.5-81.6-18.7-3-32.4-19.3-32-38.3z" opacity=".6" class="color6e3dc0 svgShape"></path><path fill="#3d7ec0" d="m2085.8 2966.8-4.5 192.6c-.3 15 8.5 28.7 22.4 34.4 17.5 7.2 42.3 17 65.1 24.2 21 6.6 42.4-9.3 42-31.4l-4.1-234.6c-.3-17.9-15.1-32.1-33-31.7-17.8.3-41.2 3.4-65.8 13.9-13.2 5.6-21.8 18.4-22.1 32.6z" class="color6e3dc0 svgShape"></path><path fill="#94c3f2" d="m2086.4 2961.3-62.4 186 57.5 3.6z" class="colorf29494 svgShape"></path><path fill="#021b79" d="M2776.2 2926.4h-.5l-101.4-6.6c-3.7-.2-6.6-3.5-6.3-7.2.2-3.7 3.5-6.6 7.2-6.3l101.4 6.6c3.7.2 6.6 3.5 6.3 7.2-.2 3.6-3.2 6.3-6.7 6.3z" class="color012d68 svgShape"></path><g fill="#284cd2" class="colord22a28 svgShape"><path d="m870.7 1056.8 18-17.3-54.1-56.2c-1.4-1.4-2.7-2.4-3.8-3-1.2-.5-2.3-.8-3.3-.7-1.1.1-2.1.4-3.1 1.1-1 .6-2 1.4-3 2.4-1.4 1.4-3 3.4-4.7 5.9-1.7 2.5-3.3 5.4-4.8 8.6-1.5 3.2-2.8 6.6-3.9 10.3-1.1 3.7-1.8 7.3-2 10.8-.2 3.5.1 6.9.9 10.1.8 3.2 2.4 6.1 4.8 8.5 2 2.1 3.9 3.5 5.7 4.2 1.8.7 3.3 1 4.6 1 1.3-.1 2.4-.4 3.4-1 .9-.6 1.5-1 1.9-1.3 1.6-1.6 2.7-3.2 3.2-4.7.5-1.6.9-3.1 1.2-4.5.3-1.4.5-2.8.7-4.1.2-1.3.8-2.4 1.8-3.4.8-.8 1.8-1.4 3-1.9s2.6-.7 4.1-.6c1.5.1 3.2.5 4.9 1.3 1.8.8 3.5 2.1 5.3 3.9 2.5 2.6 4.2 5.4 5 8.3.8 2.9 1 5.8.7 8.6-.4 2.8-1.3 5.6-2.8 8.2-1.5 2.6-3.2 4.9-5.3 6.9-3.2 3-6.5 5.2-10.1 6.6-3.6 1.4-7.2 1.9-10.8 1.7-3.6-.2-7.1-1.1-10.5-2.8-3.4-1.7-6.5-4-9.3-6.9-4.4-4.5-7.6-9.5-9.6-14.9s-3-10.9-3.1-16.7c0-5.8.8-11.7 2.4-17.6 1.7-6 4-11.9 7-17.7 3-5.8 6.6-11.5 10.7-16.9 4.1-5.4 8.6-10.5 13.5-15.2 5.4-5.2 10.1-8.7 14.1-10.6 4-1.9 7.4-2.7 10.2-2.7 2.8.1 5.1.8 6.9 2.1 1.8 1.3 3.2 2.5 4.2 3.6l56.1 58.2 36.3-35-45.7-47.5c-10.5-10.9-17.9-21.5-22.5-31.8-4.5-10.4-6.9-20.1-7-29.3-.2-9.1 1.4-17.5 4.8-25s7.8-13.9 13.3-19.2c3.8-3.6 7.6-6.8 11.5-9.5 3.9-2.7 7.7-4.7 11.3-6 3.6-1.3 7-1.9 10.1-1.6 3.1.2 5.8 1.5 7.9 3.7 1 1 1.7 2.1 2.3 3.2.6 1.2.9 2.4 1.1 3.6.2 1.2.1 2.4-.2 3.5-.3 1.1-.8 2-1.5 2.7-1.2 1.1-2.6 1.8-4.2 2-1.6.2-3.4.1-5.2-.2-1.9-.3-3.8-.7-5.8-1.2s-4.1-.9-6.1-1c-2-.1-4 0-6 .5-1.9.5-3.8 1.5-5.5 3.2-4 3.9-6.1 8-6.4 12.5-.2 4.5 1 9.5 3.9 14.9 2.8 5.4 7.1 11.5 12.8 18.2 5.7 6.7 12.5 14.1 20.4 22.2l49 50.9 19.8-19.1 8.4 8.7-19.8 19.1 57.8 60c1.8 1.9 3.7 3 5.7 3.4 1.9.4 3.8-.3 5.5-1.9 1.8-1.8 3.2-3.7 4.2-5.9.9-2.2 1.7-4.1 2.3-5.9l5.2 2c-.5 2.4-1.2 5.1-2.1 8-.9 3-2.1 6-3.5 9.2-1.4 3.2-3.2 6.4-5.2 9.6-2.1 3.2-4.5 6.2-7.4 9-4.5 4.3-8.7 7.2-12.6 8.7-3.9 1.5-7.5 2-10.9 1.5-3.4-.5-6.5-1.7-9.3-3.7-2.8-2-5.5-4.2-7.9-6.7L965.8 982l-36.3 35 47.3 49.2c8.6 9 14.5 18.3 17.6 28.1 3.1 9.8 4 19.6 2.6 29.5-1.4 9.9-4.9 19.6-10.4 29.2-5.5 9.6-12.7 18.6-21.5 27-3.4 3.2-6.9 6.1-10.5 8.5-3.6 2.4-7.1 4.3-10.4 5.6-3.3 1.3-6.3 1.9-9 2-2.7 0-4.8-.8-6.4-2.4-1.1-1.2-2.1-2.5-3-4.1-.8-1.5-1.4-3.1-1.7-4.7-.3-1.6-.3-3.2 0-4.8.3-1.6 1.1-2.9 2.3-4.1.7-.7 1.7-1 3-.8 1.3.2 2.7.5 4.3 1.1 1.6.5 3.4 1 5.4 1.6 2 .5 4.1.7 6.3.7 2.3-.1 4.6-.6 7-1.5 2.4-.9 4.9-2.6 7.5-5.1 5.1-4.9 8.5-10 10.4-15.4 1.9-5.4 2.4-10.9 1.5-16.5-.9-5.6-2.9-11.3-6.3-17.1-3.3-5.7-7.6-11.4-13-16.9l-55.7-57.9-18 17.3-8.1-8.7zM1052.6 862.4c-2.5 1.8-4.6 3.8-6.3 6-1.7 2.2-3 4.2-3.9 6.2-.9 2-1.4 3.9-1.5 5.6-.1 1.7.2 3.1.9 4 .8 1.1 2 1.5 3.5 1.1 1.5-.4 3.2-.7 5-1.1 1.9-.4 3.8-.4 5.8-.1 2 .3 3.8 1.7 5.5 4 1.1 1.6 1.8 3.2 2.2 5 .3 1.8.3 3.5-.1 5.3-.3 1.8-1 3.5-2.1 5.1s-2.3 3-3.9 4.1c-4.1 3-8.5 4-13.1 3.1-4.6-1-8.6-3.8-12-8.4-3.3-4.5-4.9-9.2-4.9-14.2 0-4.9 1.2-9.8 3.5-14.7 2.3-4.8 5.5-9.5 9.6-14s8.5-8.5 13.3-12c5.8-4.2 11.7-7.6 17.9-10.1 6.2-2.6 12.2-3.9 18.3-4.1 6-.2 11.8.9 17.2 3.4 5.5 2.5 10.4 6.7 14.7 12.7l45.5 62.6c.5.7 1.1 1.4 1.7 2.1.7.8 1.4 1.4 2.2 1.8.8.5 1.6.7 2.5.7.9 0 1.9-.4 3-1.2 1.3-1 2.2-2.4 2.6-4.2.4-1.8.7-3.6.8-5.3l4.5.3c0 2.4-.1 5-.3 8-.2 3-.8 6.1-1.9 9.3-1 3.2-2.6 6.5-4.8 9.7-2.2 3.3-5.1 6.3-8.9 9-4.7 3.4-9.8 5-15.4 4.9-5.6-.1-11.1-2.7-16.4-7.6-.1 4.9-.6 9.3-1.6 13.3s-2.3 7.6-4 10.9c-1.7 3.3-3.7 6.2-5.9 8.7-2.3 2.6-4.8 4.8-7.5 6.8-3.5 2.6-7.4 4.5-11.5 5.8-4.1 1.3-8.4 1.7-12.7 1.2-4.4-.5-8.7-2.1-13.1-4.8-4.4-2.7-8.6-6.8-12.6-12.3-4.9-6.7-7.6-13.2-8-19.4-.5-6.2.4-12.4 2.6-18.4 2.2-6.1 5.3-12.1 9.3-18.2 4-6.1 8.1-12.3 12.1-18.8 3-4.8 4.3-9.6 3.8-14.4-.5-4.8-2-9-4.6-12.5-4-5.5-8.8-8.7-14.4-9.6-5.5-.9-11.1.7-16.6 4.7zm52.9 35.7c-1.3-1.8-3-2.8-4.8-2.9-1.9-.1-3.7.5-5.6 1.9-2.6 1.9-4.6 4.3-6.1 7.1-1.5 2.9-2.3 6.1-2.4 9.7-.1 3.6.5 7.4 2 11.5 1.4 4.1 3.7 8.4 6.9 12.8 3.1 4.3 6 7.6 8.7 10 2.7 2.4 5.1 4 7.4 4.9 2.3.9 4.4 1.1 6.2.8 1.9-.4 3.6-1.1 5.2-2.2 1.9-1.4 3.4-3.2 4.3-5.4 1-2.2 1.5-4.6 1.7-7 .1-2.5-.1-4.9-.8-7.4-.7-2.5-1.7-4.6-3.1-6.6l-19.6-27.2zM1149 810.7c-1.3-2.3-3-4-5.1-5.1-2-1.1-4.3-.9-6.9.6-1.3.8-2.4 1.7-3 2.7-.7 1-1.3 2.3-1.9 3.8l-4.2-1.5c1-2.6 2.1-5.2 3.5-8s3.1-5.5 5.1-8.1c2-2.6 4.3-5.1 6.9-7.6 2.6-2.4 5.6-4.6 8.9-6.5 3.6-2.1 6.9-3.3 10.1-3.6 3.2-.4 6.1-.2 8.6.3 2.6.6 4.8 1.4 6.7 2.6 1.9 1.2 3.2 2.3 4 3.4.3-3.1 1-6.2 2.1-9.3 1.1-3.1 2.6-6 4.4-8.8 1.8-2.8 4-5.4 6.4-7.8 2.5-2.4 5.3-4.5 8.3-6.2 6.3-3.7 12.8-5.7 19.5-6 6.6-.4 13.3 1 19.9 4 6.6 3 13.1 7.8 19.5 14.2 6.4 6.5 12.4 14.7 18.2 24.6 6.7 11.6 11.1 22.1 13.4 31.6 2.3 9.5 2.9 18 2 25.4-.9 7.4-3.3 13.7-6.9 19-3.7 5.2-8.1 9.4-13.4 12.4-4.4 2.5-8.4 4.3-12.2 5.3-3.8 1-7.2 1.6-10.3 1.7-3.1.1-5.8 0-8.2-.4-2.3-.4-4.2-.7-5.7-1.1l33.4 57.9c.6 1 1.1 2.3 1.6 4 .5 1.6.5 3.4 0 5.4-.5 2-1.6 4.2-3.5 6.5s-4.9 4.7-9.1 7.1c-4.2 2.4-7.8 3.8-10.8 4.2-3 .4-5.5.3-7.6-.4-2.1-.7-3.7-1.6-4.8-2.8-1.1-1.2-1.9-2.2-2.4-3.1L1149 810.7zm80 54.6c.4.6 1.3 1.6 2.7 2.8 1.5 1.3 3.3 2.4 5.4 3.4 2.1 1 4.5 1.6 7.1 1.8 2.6.2 5.3-.4 8-2 3.5-2 5.7-5 6.6-9.1.9-4.1.9-8.8-.2-14.3-1-5.5-3-11.4-5.7-17.9-2.8-6.5-6.2-13.1-10.1-20-4.9-8.5-9.5-15.4-13.8-20.7-4.3-5.3-8.3-9.3-12.2-11.9-3.8-2.6-7.4-4-10.8-4.2-3.3-.2-6.5.5-9.5 2.3-1.7 1-3.2 2.5-4.4 4.5-1.2 2-2 4.1-2.6 6.4-.5 2.3-.7 4.6-.5 6.9.2 2.3.7 4.3 1.7 6l38.3 66zM1288.4 733.2c-1.1-2.4-2.6-4.3-4.5-5.6-1.9-1.3-4.2-1.4-6.9-.2-1.4.6-2.5 1.4-3.3 2.3-.8.9-1.6 2.1-2.3 3.6l-4-2c1.2-2.4 2.7-4.9 4.4-7.5 1.7-2.6 3.7-5.1 5.9-7.5 2.2-2.4 4.8-4.6 7.6-6.8 2.8-2.1 6-4 9.5-5.5 3.8-1.7 7.2-2.5 10.4-2.5s6 .4 8.6 1.3c2.5.8 4.6 2 6.3 3.4 1.7 1.4 2.9 2.7 3.6 3.9.6-3.1 1.7-6.1 3.2-9 1.5-2.9 3.2-5.7 5.4-8.3 2.1-2.6 4.5-4.9 7.3-7 2.7-2.1 5.7-3.9 9-5.3 6.7-2.9 13.4-4.2 20-3.8 6.6.4 13.1 2.4 19.4 6.2 6.3 3.7 12.2 9.2 17.8 16.3 5.6 7.1 10.7 15.9 15.4 26.5 5.4 12.2 8.6 23.2 9.8 32.9 1.2 9.7.9 18.2-.8 25.4-1.8 7.3-4.8 13.3-9 18.1-4.2 4.8-9.1 8.4-14.6 10.8-4.6 2-8.8 3.3-12.7 3.9-3.9.6-7.4.8-10.5.5-3.1-.2-5.8-.7-8.1-1.3-2.3-.6-4.1-1.2-5.5-1.7l26.9 61.2c.5 1.1.9 2.5 1.2 4.1.3 1.7.1 3.5-.5 5.4-.7 1.9-2.1 4-4.2 6.1-2.1 2.1-5.4 4.2-9.8 6.1-4.4 1.9-8.2 3-11.2 3-3 .1-5.5-.3-7.5-1.2-2-.9-3.5-2-4.4-3.3-1-1.3-1.7-2.4-2.1-3.4l-69.8-159.1zm73.5 63c.3.7 1.1 1.7 2.4 3.1 1.3 1.4 3 2.7 5 3.9 2 1.2 4.3 2.1 6.9 2.6 2.6.5 5.3.2 8.1-1.1 3.7-1.6 6.2-4.4 7.6-8.3 1.4-3.9 1.8-8.7 1.4-14.2-.4-5.5-1.7-11.7-3.7-18.4-2.1-6.7-4.7-13.7-7.9-21-3.9-9-7.7-16.3-11.4-22.1-3.7-5.8-7.3-10.2-10.8-13.2-3.5-3-6.9-4.8-10.2-5.4-3.3-.6-6.5-.2-9.7 1.2-1.8.8-3.5 2.1-4.8 4-1.4 1.9-2.5 3.9-3.3 6.1-.8 2.2-1.2 4.4-1.3 6.8-.1 2.3.3 4.4 1 6.1l30.7 69.9z" fill="#000000" class="color000000 svgShape"></path><path d="M1536.7 636.5c5.1 15.9 8.5 31.8 10.1 47.6 1.7 15.8 1.9 31.1.6 45.9-1.3 14.7-3.9 28.7-8 41.8-4 13.1-9.2 24.9-15.6 35.4-6.3 10.5-13.7 19.4-22.1 26.8-8.4 7.4-17.6 12.7-27.6 15.9-7.7 2.5-14 3.1-19 1.8-5-1.2-8.2-4-9.6-8.4-.5-1.7-.8-3.3-.8-5.1 0-1.7.3-3.3.7-4.8.5-1.5 1.2-2.8 2.2-3.9 1-1.1 2.2-1.9 3.6-2.4 1.7-.5 3.3-.1 4.9 1.2 1.6 1.3 3.3 2.7 5.2 4.3 1.8 1.6 3.9 2.9 6.2 4 2.3 1.1 4.9 1.2 8 .2 3.9-1.3 7.8-3.2 11.6-6 3.8-2.7 7.5-6 11-9.9 3.5-3.9 6.8-8.4 10-13.3 3.1-5 6.1-10.4 8.9-16.1-5.3-8-11.1-16.7-17.6-26.1-6.5-9.4-13.2-18.8-20.1-28.2-6.9-9.4-13.8-18.4-20.6-27-6.8-8.6-13.2-16.1-19.2-22.6-5.9-6.4-11.3-11.4-16-14.9-4.7-3.5-8.4-4.9-10.9-4.1-1.7.5-2.9 1.2-3.6 2-.7.8-1.6 1.9-2.5 3.2l-3.7-2.4c1.3-2 2.6-4.1 4-6.3s3.2-4.3 5.4-6.5c2.2-2.1 4.9-4.2 8.1-6.1 3.2-1.9 7.3-3.7 12.1-5.3 5.3-1.7 10.6-2.1 16-1.2 5.3.9 10.9 4 16.7 9.3 4.2 3.9 8.9 8.8 13.9 14.5 5.1 5.8 10.4 12.3 16 19.6 5.6 7.3 11.4 15.3 17.5 24s12.3 17.8 18.7 27.3c1.8-13 2.3-26.4 1.5-40.1-.8-13.7-3.3-27.3-7.6-40.7-1.5-4.8-3.1-8.8-4.8-12-1.7-3.2-3.3-5.9-4.9-8-1.5-2.1-2.9-4-4.1-5.5-1.2-1.5-1.9-2.9-2.4-4.2-.4-1.3-.3-2.6.5-3.8.8-1.2 1.8-2.4 3.1-3.4s2.7-1.8 4.1-2.6c1.5-.7 2.7-1.2 3.7-1.6 2.3-.8 4.3-.9 5.9-.3 1.6.6 2.9 1.6 4.1 3.2 1.2 1.6 2.2 3.6 3.1 6.1 1.4 2.8 2.3 5.6 3.3 8.7zM1613 590.4c-1.6-10.6 0-20 4.7-28.3s11.8-15.5 21.2-21.8c9.4-6.2 20.7-11.5 33.8-15.6 13.1-4.2 27.4-7.4 42.8-9.7 7.3-1.1 14.5-2.1 21.4-3 7-.9 13.4-1.6 19.1-2.2 5.8-.6 10.8-1 15-1.3 4.2-.3 7.3-.3 9.3-.1 1.9.2 3.4.5 4.6.8 1.2.4 2.1.9 2.7 1.5.6.6 1.1 1.4 1.5 2.3.3.9.6 2 .8 3.3.2 1.1.2 2.3.1 3.7-.1 1.4-.3 2.6-.7 3.8-.4 1.2-.9 2.3-1.6 3.2-.7.9-1.6 1.5-2.8 1.7-.7.1-1.6-.1-2.5-.6-1-.5-2.3-1.1-4-1.9-1.7-.8-4-1.5-6.8-2.2-2.8-.7-6.5-1.2-11.2-1.5-4.6-.3-10.3-.3-17 0-6.7.4-14.8 1.2-24.2 2.6l12.9 86.9 56.2-8.4 1.8 11.9-56.2 8.4 7.9 53c.6 4.2 1.8 7.8 3.5 10.6s3.9 5.1 6.5 6.7c2.6 1.6 5.7 2.7 9.1 3.1 3.4.4 7.2.3 11.2-.3 4.6-.7 9.1-1.8 13.6-3.5 4.5-1.6 8.6-3.5 12.5-5.5 3.9-2.1 7.4-4.2 10.5-6.5 3.1-2.3 5.6-4.5 7.4-6.5l6.2 5c-2 2.1-4.7 5.1-8 8.7-3.3 3.7-7.5 7.4-12.5 11.2-5 3.8-11 7.3-18 10.6-6.9 3.3-15 5.6-24.2 7-3.1.5-6.6.8-10.6 1.1-4 .3-8.1.2-12.4-.1-4.3-.3-8.6-1.1-12.9-2.4-4.3-1.3-8.2-3.2-11.8-5.8-3.6-2.6-6.7-6-9.3-10.2-2.6-4.2-4.4-9.4-5.3-15.6l-8-54.1-21.1 3.1-1.8-11.9 21.1-3.1-12.7-85.2c-2.9.7-6.1 1.7-9.7 3-3.6 1.3-7.3 3-11 5s-7.3 4.2-10.9 6.7c-3.5 2.5-6.6 5.2-9.2 8.2-2.6 3-4.6 6.2-6 9.5-1.4 3.4-1.8 6.9-1.3 10.5.4 2.9 1.2 5.1 2.2 6.7 1 1.6 2.1 2.8 3.2 3.5 1.1.7 2.2 1.1 3.3 1.2 1.1.1 1.8.1 2.3 0 2.3-.3 4.1-1 5.4-2 1.3-1 2.5-2 3.6-3 1-1 2-2 3-2.9.9-.9 2.1-1.5 3.4-1.7 1.1-.2 2.3-.1 3.6.2 1.3.3 2.5.9 3.7 1.9 1.2.9 2.3 2.2 3.3 3.9 1 1.7 1.7 3.7 2 6.3.5 3.6.3 6.9-.7 9.7-1 2.9-2.5 5.3-4.4 7.4-2 2-4.3 3.7-7 5-2.7 1.3-5.5 2.1-8.3 2.5-4.3.6-8.4.5-12.1-.5-3.7-1-7-2.6-9.8-4.8-2.8-2.3-5.1-5-6.9-8.3-1.8-3.2-2.9-6.8-3.5-10.9zM1881.4 693.6c.1 1.2-.1 2.6-.4 4.3-.3 1.7-1.2 3.4-2.6 4.9-1.4 1.6-3.5 3-6.3 4.2-2.8 1.2-6.6 1.9-11.4 2.2-4.8.2-8.6-.1-11.4-1.1-2.8-1-4.9-2.2-6.4-3.7-1.4-1.5-2.4-3-2.8-4.7-.4-1.6-.6-2.9-.7-3.9l-5.3-105.6c-.1-2.6-.9-4.9-2.2-6.8-1.3-1.9-3.5-2.8-6.4-2.6-1.6.1-2.9.4-3.9 1-1.1.6-2.2 1.4-3.4 2.5l-3-3.3c2-1.8 4.3-3.7 6.8-5.5 2.5-1.8 5.2-3.4 8.2-4.9 2.9-1.4 6.1-2.6 9.6-3.6 3.4-1 7.1-1.6 10.9-1.8 5.9-.3 10.6.3 13.9 1.7 3.4 1.4 5.9 3.3 7.5 5.5 1.7 2.2 2.7 4.7 3.2 7.3.5 2.6.7 4.9.8 7l5.3 106.9zM1827.1 535c-.1-2.6.3-5 1.3-7.4 1-2.4 2.5-4.5 4.5-6.3 2-1.8 4.3-3.3 6.9-4.5 2.6-1.1 5.6-1.8 8.8-2 3.1-.2 6 .2 8.8 1.1 2.7.9 5.2 2.1 7.3 3.7 2.1 1.6 3.8 3.6 5 5.9 1.3 2.3 2 4.7 2.1 7.2.1 2.6-.3 5.1-1.3 7.5-1 2.3-2.5 4.4-4.4 6.2-1.9 1.8-4.2 3.3-6.8 4.4-2.6 1.1-5.5 1.8-8.6 1.9-3.2.2-6.2-.2-8.9-1.1-2.7-.9-5.2-2.1-7.3-3.7-2.1-1.6-3.8-3.5-5.1-5.7-1.5-2.1-2.2-4.5-2.3-7.2zM1990.6 571.8c-1.5-9.2-3.6-17.8-6.5-25.8s-6.4-14.9-10.6-20.8c-4.2-5.9-9-10.5-14.4-14-5.4-3.4-11.3-5.3-17.7-5.4-3.7-.1-7 .3-10 1.1s-5.6 1.8-7.8 3-4.1 2.3-5.5 3.4c-1.4 1.1-2.5 1.9-3.2 2.4l-3.4-4.9c2.3-2.8 5-5.3 8.2-7.7 3.2-2.4 6.7-4.4 10.5-6 3.8-1.6 7.8-2.9 12-3.8 4.2-.9 8.3-1.3 12.4-1.1 13.5.4 25.3 3.7 35.4 9.9 10.1 6.2 18.4 14.8 24.9 25.7 6.5 11 11.3 24.1 14.3 39.5 3 15.4 4.3 32.3 3.7 51-.4 15.1-2.3 28.3-5.7 39.6-3.4 11.3-8 20.8-13.9 28.3-5.9 7.6-12.9 13.2-21.1 16.8s-17.4 5.3-27.5 5c-7-.2-14.1-1.7-21.3-4.4-7.2-2.7-13.6-7-19.4-12.8-5.7-5.8-10.3-13.4-13.8-22.7-3.5-9.3-5-20.6-4.6-33.9.3-11.5 2.2-21.7 5.7-30.5 3.5-8.9 8.1-16.3 13.7-22.3 5.7-6 12.1-10.5 19.4-13.6 7.3-3 15-4.4 23-4.2 3.1.1 5.9.4 8.3 1 2.5.6 4.6 1.3 6.4 2 1.8.8 3.4 1.6 4.7 2.5 1.5 1 2.7 1.8 3.8 2.7zm-.1 60.3c0-1 .1-3 .2-6.1.1-3.1.1-6.6 0-10.6s-.3-8.2-.6-12.7-.9-8.7-1.8-12.5c-2.1-2.9-4.5-5.5-7.1-7.8-2.6-2.3-6-3.5-10.2-3.7-7.1-.2-12.5 4.3-16.1 13.5-3.6 9.2-5.7 23.6-6.2 43.1-.2 8.6-.1 16.4.5 23.6.6 7.1 1.6 13.3 3 18.5 1.4 5.2 3.4 9.2 5.8 12.1 2.4 2.9 5.4 4.4 8.8 4.5 14.6.5 22.5-20.2 23.7-61.9zM2241.6 691.9l-26-106.8-9.2 31.8c-2.7 9.2-5.3 18.4-7.8 27.5-2.5 9.1-5.3 17.7-8.3 25.8-3 8.1-6.4 15.4-10.3 22-3.9 6.6-8.6 12-14.1 16.2-5.5 4.2-12.1 7-19.6 8.3-7.6 1.3-16.5.8-26.9-1.5-4.5-1-8.8-2.4-12.8-4.1-4-1.7-7.5-3.6-10.4-5.7-2.9-2.1-5.1-4.2-6.6-6.5s-2-4.5-1.5-6.6c.4-1.6 1-3.2 1.8-4.7s1.8-2.9 3-4.1c1.2-1.2 2.6-2 4-2.6 1.5-.5 3-.6 4.6-.3 1 .2 1.7.9 2.3 2.1.5 1.2 1 2.6 1.5 4.2.5 1.7 1 3.4 1.6 5.4.6 1.9 1.6 3.8 2.9 5.7 1.3 1.8 3 3.5 5.1 5 2.1 1.5 4.9 2.7 8.3 3.5 6.9 1.6 12.9 1.7 18.1.4 5.2-1.3 9.8-3.8 13.9-7.6 4-3.8 7.6-8.6 10.7-14.6 3.1-5.9 5.9-12.8 8.6-20.7 1.4-4.4 2.7-8.6 4-12.6 1.3-4.1 2.6-8.1 3.9-12.1 1.3-4 2.6-8.1 3.9-12.3 1.3-4.2 2.6-8.6 4.1-13.2 2-6.8 3.9-13.2 5.7-19.3 1.8-6.1 3.4-11.8 4.9-17.1 1.5-5.3 2.7-10.1 3.9-14.3 1.1-4.2 2.1-7.9 2.9-11-.8-3.5-1.6-6.3-2.3-8.5-.7-2.2-1.6-3.9-2.6-5.2-1-1.3-2.2-2.3-3.7-3-1.4-.7-3.2-1.3-5.4-1.8-1.8-.4-4.1-.6-6.8-.5-2.8.1-5.7.4-8.8 1-3.1.6-6.2 1.5-9.5 2.7-3.2 1.2-6.2 2.7-8.9 4.6-2.7 1.9-5.1 4.1-7.1 6.6s-3.4 5.4-4.2 8.7c-.7 2.8-.8 5.2-.4 7.1.4 1.9 1 3.3 1.8 4.4.8 1.1 1.7 1.9 2.7 2.3 1 .5 1.7.7 2.1.8 2.2.5 4.1.6 5.7.1 1.6-.4 3.1-.9 4.4-1.5 1.4-.6 2.6-1.1 3.8-1.6 1.2-.5 2.5-.6 3.8-.3 1.1.2 2.1.8 3.2 1.5 1.1.8 2 1.8 2.8 3.1.8 1.3 1.3 2.9 1.6 4.8.3 1.9.2 4.1-.4 6.6-.8 3.6-2.2 6.5-4.2 8.7-2 2.3-4.3 4-6.8 5.2-2.6 1.2-5.4 1.9-8.4 2.1-3 .2-5.9 0-8.6-.7-4.3-1-8-2.6-11-4.9-3.1-2.3-5.5-5-7.3-8.1-1.8-3.1-2.9-6.6-3.4-10.3-.4-3.8-.2-7.6.7-11.5 2.1-9.3 6.1-16.8 12-22.8 5.9-5.9 12.8-10.4 20.8-13.4s16.7-4.7 26-4.9c9.3-.2 18.5.7 27.6 2.8 7.3 1.7 13.2 3.8 17.8 6.4 4.6 2.6 8.2 5.5 10.9 8.7 2.7 3.2 4.8 6.7 6.2 10.5 1.4 3.8 2.5 7.7 3.5 11.8l18.8 79.7c13.3-16 25.4-30.2 36.2-42.8 10.8-12.6 20.7-23.5 29.6-32.9 8.9-9.4 17-17.3 24.4-23.6 7.3-6.4 14.2-11.4 20.5-15 6.3-3.7 12.3-6 17.9-7 5.6-1 11.2-.9 16.7.3 4.7 1.1 8.3 3 10.8 5.6 2.5 2.7 3.3 6 2.3 10-.8 3.6-2.1 6.4-3.8 8.4-1.7 2-3.6 2.8-5.6 2.4-1.7-.4-2.8-1.3-3.4-2.8-.6-1.5-1.1-3.1-1.6-4.8-.5-1.7-1.2-3.4-2.2-4.9-1-1.6-2.6-2.6-5-3.2-1.4-.3-3.3-.3-5.5 0s-4.6 1-7.2 2.1c-2.6 1.1-5.2 2.6-7.9 4.5s-5.2 4.3-7.5 7.1-4.4 6.2-6.3 10.1c-1.8 3.9-3.1 8.3-3.9 13.3-.9 5.7-2 12.4-3.1 20-1.1 7.7-2.3 15.9-3.5 24.6-1.2 8.8-2.5 17.8-3.7 27.2-1.3 9.4-2.5 18.6-3.6 27.7-1.2 9.1-2.3 17.9-3.3 26.2-1 8.4-2 16-2.8 22.8-.8 6.8-1.4 12.6-1.9 17.3-.4 4.7-.7 8-.7 9.8-.1 2.7.2 4.9.7 6.7.5 1.8 2 2.9 4.3 3.4 2.4.6 4.8.7 7.1.3 2.3-.4 4.4-.8 6.3-1.3l1 5.4c-1.9.8-4.2 1.6-7 2.5-2.8.9-5.9 1.7-9.4 2.3-3.5.6-7.2.9-11.2.9-4 0-8.2-.5-12.5-1.5-6.1-1.4-10.8-3.3-14-5.7-3.2-2.4-5.5-4.9-6.9-7.6-1.4-2.7-2.1-5.4-2.2-8.1-.1-2.7-.1-5.1 0-7.2.2-4.7.7-10.4 1.2-17 .6-6.6 1.3-13.7 2.1-21.2s1.8-15.3 2.8-23.3c1-8 2-15.8 3.1-23.3 1-7.6 2.1-14.7 3-21.4 1-6.7 1.9-12.6 2.6-17.5-3.7 3.7-7.1 7.4-10.3 10.9-3.2 3.5-6.4 7.2-9.5 10.9-3.1 3.7-6.3 7.7-9.6 11.8-3.3 4.1-6.8 8.6-10.5 13.5s-7.7 10.2-12.1 16c-4.4 5.8-9.2 12.4-14.6 19.6l-12.9-2.9zM2494.1 802.7c-.3.8-.6 1.6-.9 2.5-.3.9-.4 1.9-.4 2.8 0 .9.3 1.8.7 2.6.5.8 1.3 1.4 2.6 1.9 1.6.7 3.3.7 5 0 1.7-.6 3.4-1.3 5-2.1l2 3.9c-2 1.3-4.4 2.6-7.2 4s-5.9 2.5-9.4 3.4c-3.5.9-7.2 1.2-11.3 1.1-4-.1-8.2-1-12.6-2.8-3.7-1.5-6.8-3.3-9.1-5.4-2.4-2.1-4.2-4.3-5.4-6.8-1.2-2.4-1.9-4.9-1.9-7.6 0-2.6.5-5.2 1.5-7.7l2.3-5.7c-6.1 2.9-12.2 5.1-18.2 6.7-2.6.7-5.4 1.3-8.3 1.8-2.9.5-5.8.8-8.7 1-2.9.2-5.8 0-8.7-.3-2.9-.4-5.7-1.1-8.3-2.2-5.1-2.1-9.1-4.7-11.9-8s-4.8-6.8-5.8-10.7c-1-3.9-1.3-7.8-.8-12 .5-4.1 1.5-8.1 3-11.8l31.8-78.6c.3-.8.6-1.6.9-2.5.3-.9.4-1.9.4-2.8 0-.9-.3-1.8-.7-2.6-.5-.8-1.3-1.4-2.6-1.9-1.5-.6-3.2-.6-4.9 0-1.8.6-3.4 1.3-4.9 2.1l-2.1-4c2-1.3 4.4-2.6 7.2-4s5.9-2.5 9.4-3.4c3.5-.9 7.3-1.2 11.3-1.1 4 .1 8.2 1 12.5 2.8 3.7 1.5 6.8 3.3 9.2 5.4 2.4 2.1 4.2 4.4 5.4 6.8 1.2 2.4 1.8 4.9 1.8 7.5 0 2.6-.5 5.2-1.5 7.7l-34.3 84.9c-.5 1.2-.8 2.5-.9 3.9-.1 1.4 0 2.7.3 4 .3 1.3.9 2.5 1.7 3.6.8 1.1 2 1.9 3.6 2.5 2.5 1 5.2 1.3 8.1 1.1 3-.3 5.8-.9 8.6-1.8 2.7-.9 5.2-1.9 7.4-3s3.8-1.9 4.8-2.5l30-74.2c.3-.8.6-1.6.9-2.5.3-.9.4-1.9.4-2.8 0-.9-.3-1.8-.7-2.6s-1.3-1.4-2.6-1.9c-1.5-.6-3.2-.6-4.9 0-1.8.6-3.4 1.3-4.9 2.1l-2.1-4c2-1.3 4.4-2.6 7.2-4s5.9-2.5 9.4-3.4c3.5-.9 7.3-1.2 11.3-1.1 4 .1 8.2 1 12.5 2.8 3.7 1.5 6.8 3.3 9.2 5.4 2.4 2.1 4.2 4.4 5.4 6.8 1.2 2.4 1.8 4.9 1.8 7.5 0 2.6-.5 5.2-1.5 7.7l-37.1 91.5zM2598 669.1c1.3-2.3 1.8-4.7 1.6-7-.2-2.3-1.5-4.2-4.1-5.5-1.4-.7-2.7-1.2-3.9-1.3-1.2-.1-2.7 0-4.3.3l-.9-4.2c2.7-.5 5.6-.9 8.6-1.2 3.1-.3 6.3-.2 9.5.1 3.3.3 6.6.9 10.1 1.8 3.4.9 6.9 2.3 10.2 4.1 4.7 2.5 8 5.2 10.1 8.2 2.1 2.9 3.3 5.8 3.7 8.7.4 2.9.2 5.6-.6 8.2-.8 2.6-1.7 5-2.8 7l-28.9 53.8c1.4-.4 3.3-.8 5.5-1.3s4.9-.8 7.9-.8 6.4.4 10.1 1.2c3.7.9 7.8 2.5 12.2 4.9 5.1 2.8 9.7 6.7 13.5 11.9 3.9 5.1 6.5 11.3 7.9 18.6 1.4 7.3 1.2 15.6-.5 24.9-1.7 9.3-5.6 19.6-11.6 30.8-4.7 8.8-10.4 16.4-16.9 22.9-6.6 6.5-13.8 11.5-21.6 14.8-7.8 3.3-16.1 4.8-24.9 4.4-8.8-.4-17.9-3.1-27.1-8-10.1-5.4-17.7-11.6-22.8-18.5-5.1-7-8.3-14.3-9.5-22.1-1.2-7.8-.8-15.8 1.4-24.1 2.1-8.3 5.4-16.5 9.7-24.6l58.4-108zm14.7 145.1c3.8-7 6.9-13.8 9.5-20.3 2.6-6.5 4.3-12.6 5.2-18.1.9-5.5.8-10.3-.3-14.3-1-4-3.3-7-6.9-8.9-2.7-1.5-5.4-2.1-8-1.7-2.6.3-5 1-7.1 2s-3.9 2.2-5.3 3.6c-1.5 1.3-2.3 2.3-2.6 2.9l-19.4 36.1c-9.4 17.5-14.8 31.1-16.2 40.6-1.3 9.5.8 15.9 6.6 18.9 6 3.2 12.6 1.6 19.8-5.1 7.3-6.6 15.5-18.5 24.7-35.7zM2742.4 820c-2.6-1.7-5.2-3.1-7.8-3.9-2.6-.9-5-1.4-7.2-1.6-2.2-.2-4.1 0-5.8.5-1.7.5-2.8 1.2-3.5 2.2-.8 1.1-.7 2.3.1 3.6.8 1.3 1.8 2.7 2.8 4.4 1 1.6 1.7 3.4 2.1 5.4.4 2-.3 4.2-1.9 6.6-1.1 1.6-2.4 2.8-3.9 3.7-1.5.9-3.2 1.5-5 1.7s-3.6.2-5.5-.2-3.6-1.2-5.2-2.3c-4.2-2.9-6.7-6.6-7.3-11.3-.7-4.6.6-9.3 3.9-14.1 3.1-4.6 7-7.7 11.7-9.4 4.6-1.6 9.6-2.2 15-1.7 5.3.5 10.8 1.9 16.4 4.3 5.6 2.3 10.9 5.1 15.8 8.5 5.9 4 11.1 8.5 15.6 13.4s7.9 10.2 10.1 15.8c2.2 5.6 3.1 11.4 2.6 17.4-.5 6-2.8 12-6.9 18.1l-43.5 64.1c-.5.7-.9 1.5-1.4 2.3-.5.9-.8 1.8-1 2.7-.2.9-.1 1.8.2 2.6.3.9 1 1.7 2.1 2.4 1.4.9 3 1.3 4.8 1 1.9-.2 3.6-.6 5.2-1l1.2 4.3c-2.2.8-4.8 1.6-7.6 2.4-2.9.8-6 1.3-9.4 1.4-3.4.1-7-.3-10.8-1.2-3.8-.9-7.6-2.7-11.5-5.3-4.8-3.2-8-7.5-9.8-12.9-1.8-5.3-1.2-11.4 1.6-18-4.6 1.6-9 2.6-13.1 3-4.1.4-8 .4-11.6-.1-3.6-.5-7.1-1.4-10.2-2.6-3.2-1.3-6.2-2.9-9-4.7-3.6-2.5-6.8-5.4-9.4-8.9-2.6-3.4-4.5-7.3-5.5-11.6s-1-8.9 0-14c1-5 3.5-10.4 7.3-16.1 4.7-6.9 9.8-11.6 15.5-14.1 5.7-2.5 11.8-3.8 18.2-3.8 6.4 0 13.2.9 20.3 2.6 7.1 1.7 14.3 3.4 21.8 5 5.6 1.2 10.5.8 14.8-1.3 4.3-2.1 7.7-4.9 10.2-8.6 3.8-5.6 5.2-11.2 4.2-16.8-.7-5.4-4-10.1-9.7-13.9zm-15.6 61.9c1.3-1.9 1.7-3.7 1.1-5.5-.5-1.8-1.8-3.3-3.6-4.6-2.6-1.8-5.6-2.9-8.8-3.3-3.2-.4-6.5-.1-9.9 1.1-3.4 1.1-6.8 3-10.2 5.8-3.4 2.7-6.6 6.4-9.7 10.9-3 4.4-5.1 8.2-6.4 11.5-1.3 3.3-2 6.2-2 8.6-.1 2.4.4 4.5 1.4 6.1 1 1.7 2.3 3 3.8 4.1 2 1.3 4.2 2.1 6.6 2.2s4.8-.1 7.2-.8c2.4-.7 4.6-1.8 6.7-3.3 2.1-1.5 3.8-3.2 5.1-5.1l18.7-27.7zM2852 923.3c6-1.9 11.9-3.3 17.7-4.1 2.4-.4 4.9-.6 7.5-.8 2.6-.1 5.1-.1 7.6.2 2.5.2 4.8.7 7 1.5s4.2 1.8 5.9 3.2c3.6 2.9 5.6 6.3 5.8 10.2.3 3.8-1.2 7.7-4.3 11.6-2 2.4-4.1 4.6-6.3 6.5-2.2 1.9-5.2 4-8.9 6.2l-3-2.4c1.4-2.5 1.9-5.2 1.5-7.9-.4-2.7-2-5.3-5-7.7-2.2-1.8-4.7-3.1-7.5-4.1-2.8-.9-5.7-1.6-8.7-2.1-3-.4-6-.7-8.9-.8-3-.1-5.7-.1-8.2 0l-56.3 68.8c-.8.9-1.8 1.9-3.1 2.9s-3 1.7-5 1.9c-2 .2-4.4-.1-7.3-1.1-2.8-1-6.1-3-9.9-6-3.7-3.1-6.3-5.9-7.8-8.6-1.4-2.6-2.2-5-2.4-7.2-.1-2.1.2-3.9.9-5.4.8-1.5 1.5-2.6 2.1-3.4l67-81.9c1.7-2 2.7-4.2 2.9-6.5.3-2.3-.7-4.4-3-6.2-1.2-1-2.4-1.6-3.6-1.9-1.2-.3-2.6-.4-4.2-.5l-.1-4.5c2.7 0 5.6.2 8.7.5 3.1.3 6.2 1 9.3 1.9 3.1.9 6.3 2.2 9.5 3.7 3.2 1.6 6.3 3.6 9.3 6 3 2.5 5.3 5 6.8 7.6 1.5 2.6 2.4 5.1 2.7 7.5.3 2.4.2 4.8-.4 7-.6 2.3-1.3 4.4-2.3 6.4-1 2-2 3.8-3.2 5.3-.9 1.9-1.9 3.2-2.8 4.2zM2948.7 985.7c-2.2-2.2-4.5-3.9-6.9-5.3-2.4-1.3-4.7-2.3-6.8-2.8-2.1-.6-4.1-.7-5.8-.6-1.7.2-3 .7-3.8 1.5-1 1-1.1 2.2-.5 3.6.6 1.4 1.2 3 1.9 4.8.7 1.8 1.1 3.7 1.1 5.7s-1 4-3 6.1c-1.3 1.4-2.8 2.4-4.5 3-1.7.6-3.4.9-5.2.8-1.8 0-3.6-.4-5.3-1.2-1.8-.8-3.3-1.8-4.7-3.1-3.7-3.6-5.4-7.7-5.2-12.4.2-4.7 2.3-9.1 6.3-13.2 3.9-4 8.3-6.4 13.1-7.2 4.9-.8 9.9-.5 15 1 5.2 1.5 10.3 3.8 15.4 7.1s9.8 7 14 11.1c5.1 5 9.4 10.3 13 15.9 3.6 5.6 5.9 11.4 7.1 17.3 1.2 5.9 1 11.7-.5 17.5-1.5 5.8-4.9 11.3-10 16.6l-54.1 55.4c-.6.6-1.2 1.3-1.8 2.1-.6.8-1.1 1.6-1.4 2.4-.3.8-.4 1.7-.3 2.6.1.9.7 1.8 1.7 2.8 1.2 1.1 2.7 1.8 4.6 1.9 1.9.1 3.7.1 5.3-.1l.4 4.5c-2.3.4-5 .8-7.9 1.1-3 .3-6.1.2-9.5-.3-3.4-.5-6.8-1.5-10.4-3.1-3.6-1.6-7-4-10.4-7.2-4.1-4-6.6-8.8-7.4-14.4-.8-5.6.8-11.4 4.8-17.4-4.8.8-9.3 1-13.4.7-4.1-.3-7.9-1-11.4-2.1s-6.7-2.6-9.6-4.4c-2.9-1.8-5.6-3.9-8-6.3-3.1-3.1-5.7-6.5-7.7-10.4-2-3.9-3.1-8-3.3-12.4-.2-4.4.6-9 2.5-13.7 1.9-4.8 5.3-9.6 10.1-14.5 5.8-5.9 11.7-9.7 17.8-11.1 6.1-1.5 12.3-1.7 18.6-.5 6.3 1.2 12.8 3.2 19.5 6.1 6.7 2.9 13.5 5.9 20.6 8.8 5.3 2.2 10.2 2.7 14.8 1.4 4.6-1.3 8.5-3.5 11.6-6.6 4.7-4.8 7.1-10.1 7.1-15.8-.1-5.7-2.6-10.9-7.5-15.7zm-26.4 58.1c1.6-1.6 2.3-3.4 2.1-5.3-.2-1.9-1.1-3.6-2.8-5.2-2.3-2.2-5-3.8-8-4.8-3.1-1-6.4-1.2-9.9-.7s-7.2 1.8-11.1 3.9c-3.8 2.1-7.6 5.1-11.5 9-3.7 3.8-6.5 7.2-8.4 10.2-1.9 3-3.1 5.7-3.5 8.1-.5 2.4-.4 4.5.3 6.3.7 1.8 1.7 3.4 3.1 4.7 1.7 1.7 3.7 2.8 6.1 3.4 2.4.6 4.8.7 7.2.5 2.4-.3 4.8-1 7.1-2 2.3-1.1 4.3-2.4 6-4.1l23.3-24zM3031.6 1111.7c5.3-.3 10.9-.4 16.6-.5 5.7 0 11.3.4 16.8 1.4 5.4 1 10.6 2.6 15.5 4.9 4.9 2.3 9.2 5.7 13 10.2 3.3 4 5.3 8 6 12 .6 4 .5 7.7-.3 11.2-.8 3.5-2.2 6.6-4 9.2-1.8 2.7-3.6 4.7-5.3 6.1-3.1 2.6-6.6 4.8-10.6 6.8s-8.4 3.3-13.3 4.1c-4.9.8-10.2.8-15.9.1-5.7-.7-11.9-2.4-18.5-5.3-8.5 18.2-15.2 34.6-20.1 49.3-4.9 14.6-8.2 27.5-9.8 38.7-1.7 11.2-1.8 20.7-.5 28.7 1.3 7.9 4 14.3 8.1 19.1.7.8 1.5 1.6 2.4 2.3.9.7 1.8 1.2 2.7 1.7.9.5 1.9 1.1 3.1 1.5l-2 5.1c-2.6-1-5.2-2.1-7.8-3.3-2.6-1.2-5.3-2.7-8.1-4.7-2.8-1.9-5.8-4.4-9-7.3-3.2-3-6.6-6.7-10.4-11.3-3.4-4.1-6.4-8.6-8.7-13.5-2.4-4.9-4-10.4-4.8-16.5-.9-6.2-.9-13.1-.2-20.8.7-7.7 2.5-16.4 5.3-26.2s6.8-20.7 11.8-32.7c5.1-12.1 11.5-25.5 19.3-40.4 10.6 2.6 19.6 4.1 27.1 4.4 7.5.3 13.7 0 18.8-.8 5.1-.9 9.2-2.2 12.2-3.9 3.1-1.7 5.6-3.4 7.5-5 .3-.2.7-.7 1.3-1.3.6-.6 1.1-1.4 1.4-2.3s.4-1.9.3-3.1c-.1-1.1-.7-2.4-1.8-3.7-2.2-2.6-5.5-4.3-9.9-5.1-4.4-.8-9.3-1.1-14.6-.8-5.3.3-10.6 1-16 2.2-5.4 1.2-10.2 2.4-14.3 3.7l-54.4 45.2c-.9.8-2.1 1.5-3.7 2.2s-3.3 1-5.4.8c-2.1-.2-4.5-1.1-7.1-2.6-2.6-1.5-5.5-4.2-8.6-7.9-3.1-3.7-5.1-7-6-9.8-.9-2.8-1.1-5.3-.8-7.3.3-2 1.1-3.7 2.1-5 1.1-1.3 2-2.3 2.7-2.9l135.9-113c2-1.7 3.4-3.6 4.1-5.8.7-2.2.1-4.4-1.7-6.7-1-1.2-2-2.1-3.2-2.6-1.1-.6-2.5-1-4.1-1.3l.8-4.2c2.7.5 5.5 1.2 8.4 2.1 2.9.9 5.9 2.1 8.8 3.6 2.9 1.5 5.8 3.4 8.7 5.5 2.9 2.1 5.5 4.7 8 7.6 3.8 4.6 6.1 8.6 7 12.2.9 3.6.9 6.7.1 9.4s-2.1 5-3.9 6.9c-1.8 1.9-3.5 3.5-5 4.8l-66 54.6z" fill="#000000" class="color000000 svgShape"></path></g></svg>