<svg xmlns="http://www.w3.org/2000/svg" enable-background="new 0 0 140 140" viewBox="0 0 140 140" id="OnlineMarketing"><g fill="#021b79" class="color000000 svgShape"><path fill="#ffffff" d="M111.3,51.9c0,3.6-2.9,6.5-6.5,6.5c-3.6,0-6.5-2.9-6.5-6.5c0-3.6,2.9-6.5,6.5-6.5        C108.4,45.4,111.3,48.3,111.3,51.9z" class="colorffffff svgShape"></path><path d="M104.8,58.5c-3.7,0-6.7-3-6.7-6.7s3-6.7,6.7-6.7c3.7,0,6.7,3,6.7,6.7S108.4,58.5,104.8,58.5z M104.8,45.5        c-3.5,0-6.4,2.9-6.4,6.4s2.9,6.4,6.4,6.4c3.5,0,6.4-2.9,6.4-6.4S108.3,45.5,104.8,45.5z" fill="#021b79" class="color000000 svgShape"></path><path fill="#5aacfe" d="M107.2,52.6l-2.4,1.8c-0.6,0.5-1.5,0-1.5-0.8v-3.6c0-0.8,0.9-1.2,1.5-0.8l2.4,1.8       C107.7,51.5,107.7,52.3,107.2,52.6z" class="colorfec75a svgShape"></path><path fill="#ffffff" d="M44,118.1c-1.2,0-2.1-0.9-2.1-2.1V95.7c0-1.2,0.9-2.1,2.1-2.1h26.4c1.2,0,2.1,0.9,2.1,2.1V116        c0,1.2-0.9,2.1-2.1,2.1H44z" class="colorffffff svgShape"></path><path d="M70.4,118.2H44c-1.2,0-2.2-1-2.2-2.2V95.7c0-1.2,1-2.2,2.2-2.2h26.4c1.2,0,2.2,1,2.2,2.2V116        C72.7,117.2,71.7,118.2,70.4,118.2z M44,93.8c-1.1,0-1.9,0.9-1.9,1.9V116c0,1.1,0.9,1.9,1.9,1.9h26.4c1.1,0,1.9-0.9,1.9-1.9        V95.7c0-1.1-0.9-1.9-1.9-1.9H44z" fill="#021b79" class="color000000 svgShape"></path><path fill="#dcedfe" d="M69.6,97.7V114c0,0.7-0.6,1.2-1.2,1.2H46.1c-0.7,0-1.2-0.6-1.2-1.2V97.7c0-0.7,0.6-1.2,1.2-1.2h22.2       C69.1,96.5,69.6,97,69.6,97.7z" class="colorfedcee svgShape"></path><path fill="#ffffff" d="M63.8 110.9H50.7c-.6 0-.9-.6-.6-1.1l2.5-4.2c.3-.5.9-.5 1.2 0l1.6 2.7 3.4-5.7c.3-.5.9-.5 1.2 0l4.3 7.2C64.7 110.3 64.3 110.9 63.8 110.9zM56.4 102.3c0 .8-.7 1.5-1.5 1.5-.8 0-1.5-.7-1.5-1.5 0-.8.7-1.5 1.5-1.5C55.7 100.8 56.4 101.5 56.4 102.3z" class="colorffffff svgShape"></path><path d="M59 42.9c0 2.8-2.3 5.1-5.1 5.1-2.8 0-5.1-2.3-5.1-5.1s2.3-5.1 5.1-5.1C56.8 37.8 59 40.1 59 42.9zM65.1 41.3c0 1.6-1.3 3-3 3-1.6 0-3-1.3-3-3 0-1.6 1.3-3 3-3C63.8 38.3 65.1 39.7 65.1 41.3z" fill="#021b79" class="color000000 svgShape"></path><path fill="#b3d7fb" d="M89.7,43.2c0.7,0.4-1.7,6.8-1.8,7.1c0,0-3.7,15.1-9.4,16.3c-4.6,1-14.7-6.5-14.7-6.5s-1.8-7.5-0.1-7.1       c1.7,0.4,13.3,4.9,13.3,4.9l6.6-10.2c-0.6-1.1-1.8-3.4-1.2-4c0.7-0.7,1.9,1.6,2,1.8c0-0.3-0.3-4.5,0.2-4.8       c0.5-0.2,1.1,0.6,1,3.4c0.1-1.2,0.3-4.1,0.8-4.3c0.8-0.4,1,1.1,0.4,4.7c0.1-0.7,0.8-3.7,1.5-3.8c0.8-0.1,0.5,2.2-0.2,4.3       C88.3,44.6,89.3,43,89.7,43.2z" class="colorfbccb3 svgShape"></path><path fill="#0575e6" d="M73.2,56.4c-3.5-1.4-8.4-3.2-9.5-3.4c-1.8-0.4,0.1,7.1,0.1,7.1s4.9,3.6,9.4,5.5V56.4z" class="color178afc svgShape"></path><path fill="#b3d7fb" d="M107,107.1c0.6,1.6-0.2,3.4-1.8,4l-7.7,3c-0.9,0.4-2,0-2.5-0.8l-1.3-2.1l6.7-3.9l0.6,0.3      C101.7,104.6,105.9,104.3,107,107.1z" class="colorfbccb3 svgShape"></path><path fill="#b3d7fb" d="M83.7,96.5L83,98.5l10.8,12.7l7.3-3.6L89.5,84.8C88.4,82.5,86,81,83.4,81H67.2l-1.3,7.5L83.7,96.5z" class="colorfbccb3 svgShape"></path><path fill="#5aacfe" d="M83.6,96.8l0.1-0.2l-17.8-8l1.3-7.5h16.1c2.6,0,5,1.5,6.2,3.8l6.1,12H83.6z" class="colorfec75a svgShape"></path><path d="M101,109c-0.2-0.6-0.1-1.3,0.1-1.8c0-0.1,0.1-0.1,0.2-0.1c0.1,0,0.1,0.1,0.1,0.2c-0.2,0.5-0.2,1.1-0.1,1.7       c0,0.1,0,0.2-0.1,0.2C101.1,109.1,101,109.1,101,109z" fill="#021b79" class="color000000 svgShape"></path><path fill="#b3d7fb" d="M89.2,114.9c0,1.7-1.4,3.1-3.1,3.1h-8.2c-1,0-1.8-0.7-2-1.7l-0.4-2.4l7.7-1.2l0.4,0.5      C85.3,110.6,89.2,111.8,89.2,114.9z" class="colorfbccb3 svgShape"></path><path fill="#b3d7fb" d="M48.6,81.5v3.7c0,4.6,3.8,8.4,8.4,8.4h14.3l4.2,20.3l8.1-0.7l0.8-23.7c0-4.4-3.6-8.1-8.1-8.1H48.6z" class="colorfbccb3 svgShape"></path><path fill="#5aacfe" d="M57,93.6h14.3l0.7,3.2h12.2l0.2-7.3c0-4.4-3.6-8.1-8.1-8.1H48.6v3.7C48.6,89.9,52.4,93.6,57,93.6z" class="colorfec75a svgShape"></path><path d="M84.1 97C84.1 97 84.1 97 84.1 97c-.1 0-.2-.1-.1-.2l.2-7.3c0-4.4-3.5-7.9-7.9-7.9-.1 0-.1-.1-.1-.1s.1-.1.1-.1c4.5 0 8.2 3.7 8.2 8.2l-.2 7.3C84.3 96.9 84.2 97 84.1 97zM83.1 115c-.1 0-.1-.1-.1-.1 0-.7.2-1.3.6-1.9 0-.1.1-.1.2 0 .1 0 .1.1 0 .2-.4.5-.5 1.1-.5 1.7C83.2 114.9 83.2 115 83.1 115zM72 97c-.1 0-.1 0-.1-.1l-.6-3H57.9c-.1 0-.1-.1-.1-.1s.1-.1.1-.1h13.4c.1 0 .1 0 .1.1l.7 3.2C72.1 96.9 72.1 96.9 72 97 72 97 72 97 72 97z" fill="#021b79" class="color000000 svgShape"></path><path fill="#0575e6" d="M48.6,81.5l-5.6-17c-1.9-5.8,2.4-11.8,8.5-11.8h10.2c4.5,0,8.3,3.3,9,7.7l3.1,21H48.6z" class="color178afc svgShape"></path><path fill="#ffffff" d="M57.8 60.7c1.4-1 .4-2.9-.9-2.5-.3.1-.5.1-.7 0-.4-.2-.5-.9-.5-.9 0-.1-.1-.1-.2-.1-.1 0-.1.1-.1.2.2.8.7 1.4 1.5 1.1 1-.3 1.8 1.1.7 2-.1 0-.1.1 0 .2C57.6 60.7 57.7 60.7 57.8 60.7zM66.6 60.6c.5-.2.7-.7.6-1.1 0-.2 0-.4.1-.5.2-.3.7-.3.7-.3.1 0 .1-.1.1-.2 0-.1-.1-.1-.2-.1-.7.1-1.2.5-1 1.2.1.4-.2.7-.4.8-.3.1-.8.1-1.1-.4 0-.1-.1-.1-.2 0-.1 0-.1.1 0 .2C65.5 60.7 66.1 60.8 66.6 60.6zM48 57.5c1 0 1.2-1.2.4-1.5-.1 0-.2-.1-.2-.2-.1-.2.1-.5.1-.5 0-.1 0-.2-.1-.2-.1 0-.2 0-.2.1-.2.4-.2.9.3 1.1.5.2.3 1-.4 1-.1 0-.1.1-.1.1C47.8 57.4 47.9 57.5 48 57.5zM62.1 67c.5-.4.6-1 .3-1.5-.5-.9.7-1.4.7-1.3.1 0 .1-.1.1-.2 0-.1-.1-.1-.2-.1-.8.3-1.2 1-.8 1.7.3.5.1.9-.3 1.2-.3.3-.9.4-1.5-.1-.1-.1-.1 0-.2 0-.1.1 0 .1 0 .2C60.9 67.4 61.6 67.4 62.1 67zM68.8 66.7c.4-.3.5-.8.3-1.2-.4-.7.6-1.1.5-1 .1 0 .1-.1.1-.2 0-.1-.1-.1-.2-.1-.6.2-1 .8-.6 1.4.2.3 0 .7-.2.9-.3.2-.7.3-1.2-.1-.1-.1-.1 0-.2 0-.1.1 0 .1 0 .2C67.7 67.1 68.4 67 68.8 66.7zM47.2 63.2C47.2 63.2 47.2 63.2 47.2 63.2c.6-.5.6-1.1.3-1.5-.3-.4-.7-.5-1.2-.4-.2.1-.3.1-.5 0-.3-.1-.4-.6-.4-.6 0-.1-.1-.1-.2-.1-.1 0-.1.1-.1.2 0 0 .2.6.6.8.2.1.5.1.7 0 .3-.2.7 0 .8.3.2.3.2.7-.2 1.1-.1.1-.1.1 0 .2C47.1 63.2 47.1 63.2 47.2 63.2zM61.5 56.7c1-.9 0-2.3-.9-1.8-.2.1-.3.1-.5 0-.3-.1-.5-.6-.5-.6 0-.1-.1-.1-.2-.1-.1 0-.1.1-.1.2.2.6.7 1 1.3.7.7-.3 1.4.7.6 1.4-.1.1-.1.1 0 .2C61.4 56.7 61.5 56.7 61.5 56.7zM55.1 65.9C55.1 65.9 55.1 65.9 55.1 65.9c.7-.1 1.1-.6 1.1-1 0-.5-.3-.9-.7-1-.2 0-.3-.1-.4-.3-.2-.3 0-.7 0-.7 0-.1 0-.2-.1-.2-.1 0-.2 0-.2.1 0 0-.2.6 0 1 .1.2.3.3.6.4.4.1.5.4.5.7 0 .3-.2.7-.8.8-.1 0-.1.1-.1.2C55 65.9 55 65.9 55.1 65.9zM67.1 76.9c-.1-.7.7-.6.8-.6.1 0 .1-.1.1-.1C68 76 68 76 67.9 76c-.6 0-1.1.3-1 .9.1.7-1 1-1.3.1 0-.1-.1-.1-.2-.1-.1 0-.1.1-.1.2C65.7 78.3 67.2 77.9 67.1 76.9zM53.1 72.2c0-.1 0-.2.1-.2 0 0 .7-.1 1-.6.1-.2.1-.5 0-.8-.5-1.5 1.6-2.7 2.9-1.1.1.1 0 .2 0 .2-.1.1-.2 0-.2 0-1-1.3-2.7-.4-2.3.8.1.4.1.8-.1 1.1C54.3 72 53.2 72.6 53.1 72.2z" class="colorffffff svgShape"></path><path d="M71.4,65.8c-0.1,0-0.1-0.1-0.1-0.1l-0.6-3.9c0-0.1,0-0.2,0.1-0.2c0.1,0,0.2,0,0.2,0.1l0.6,3.9       C71.6,65.7,71.5,65.8,71.4,65.8C71.5,65.8,71.4,65.8,71.4,65.8z" fill="#021b79" class="color000000 svgShape"></path><path fill="#b3d7fb" d="M67.9,73.8c0.2,0,2.3-0.1,2.3,0.5c0,0.8-4.3,1.6-6.5,2c0,0-13.6,4.9-17.8,0.9c-2.6-2.5-3.1-10.6-3.2-14h8.1      l0.9,8.4l11.4,0.3c0,0,2.1-3.9,3.1-3.7c1,0.2-0.4,2.5-0.5,2.6c0.2-0.1,3.7-2.6,4.2-2.3c0.4,0.3,0.1,1.3-2.4,2.6      c1.1-0.6,3.7-1.8,4.1-1.5c0.7,0.5-0.4,1.4-3.8,2.8c0.6-0.2,3.6-1.2,4-0.7C72.2,72.3,70.1,73.3,67.9,73.8z" class="colorfbccb3 svgShape"></path><path fill="#0575e6" d="M51,65.9l-0.5-5l-7.9,0.8c0,0,0,1.8,0.1,4.3H51z" class="color178afc svgShape"></path><path fill="#b3d7fb" d="M59.7,52.8v-2.8c-1.9,0.5-3.9-0.1-5.3-1.5c-0.3-0.3-0.5-0.6-0.8-1v5.3H59.7z" class="colorfbccb3 svgShape"></path><path fill="#b3d7fb" d="M63.9,44.5c0,5-6,7.4-9.5,3.9c-1-1-1.6-2.4-1.6-3.9c0.1-0.3-1.2-8.1,5.6-8.1c1.5,0,2.9,0.6,3.9,1.6      c1,1,1.6,2.4,1.6,3.9V44.5z" class="colorfbccb3 svgShape"></path><path d="M59.7,37.5c0,2.8-2.3,5.1-5.1,5.1c-2.8,0-5.1-2.3-5.1-5.1c0-2.8,2.3-5.1,5.1-5.1C57.5,32.4,59.7,34.7,59.7,37.5z" fill="#021b79" class="color000000 svgShape"></path><path fill="#b3d7fb" d="M53.6,45.4c-1,0.3-2-0.4-2.3-1.4c-0.6-2.4,3-3.3,3.6-0.9" class="colorfbccb3 svgShape"></path><path d="M51.4,42.5c0.9-1.5,3.3-1.2,3.7,0.6c0,0.1,0,0.2-0.1,0.2c-0.1,0-0.2,0-0.2-0.1c-0.4-1.5-2.4-1.8-3.2-0.5       c-0.8,1.3,0.4,2.9,1.9,2.6c0.1,0,0.2,0,0.2,0.1c0,0.1,0,0.2-0.1,0.2C51.9,46,50.5,44.1,51.4,42.5z" fill="#021b79" class="color000000 svgShape"></path><path d="M53.4 43.7c-.1-.3-.4-.5-.8-.5-.1 0-.2 0-.2-.1 0-.1 0-.2.1-.2.5-.1 1 .2 1.1.7C53.7 43.8 53.4 43.9 53.4 43.7zM59.7 49.9c0 0-1.3.4-2.9-.2 0 0 1.1 1.1 2.9 1V49.9z" fill="#021b79" class="color000000 svgShape"></path><path d="M56.7,49.8c-0.1-0.1,0-0.3,0.2-0.2c1.5,0.6,2.8,0.2,2.8,0.2c0.1,0,0.2,0,0.2,0.1v0.7c0,0.1-0.1,0.1-0.1,0.1        C58.5,50.9,57.3,50.4,56.7,49.8z M57.6,50.1c0.5,0.2,1.1,0.5,1.9,0.4v-0.4C59.2,50.2,58.5,50.3,57.6,50.1z" fill="#021b79" class="color000000 svgShape"></path><path d="M56.3 49.5c-.1-.1-.1-.2 0-.2.1-.1.2-.1.2 0 0 0 .5.5 1.1.6.1 0 .1.1.1.2C57.6 50.4 56.6 49.8 56.3 49.5zM62.6 43.3c0 .2-.2.4-.4.4-.2 0-.4-.2-.4-.4 0-.2.2-.4.4-.4C62.4 42.9 62.6 43 62.6 43.3zM58.5 43.9c.1.2-.1.4-.3.5-.2.1-.4-.1-.5-.3-.1-.2.1-.4.3-.5C58.2 43.5 58.4 43.7 58.5 43.9zM59.8 45.4c-.1 0-.1-.1-.1-.2 0-.1.1-.2.2-.1.3 0 .7 0 .7-.1.1-.2-.2-1.1-.6-1.8 0-.1 0-.2.1-.2.1 0 .2 0 .2.1.1.3.9 1.6.5 2.1C60.6 45.5 60 45.5 59.8 45.4zM64.7 37.3c0 1.9-1.6 3.5-3.5 3.5-1.9 0-3.5-1.6-3.5-3.5s1.6-3.5 3.5-3.5C63.2 33.8 64.7 35.3 64.7 37.3zM50.3 73c-.1-.1-.1-.1 0-.2l1.1-1.3c.1-.1.1-.1.2 0 .1.1.1.1 0 .2l-1.1 1.3C50.5 73 50.4 73 50.3 73zM77 59.8c-.1 0-.1-.1-.1-.1l-.1-1.8c0-.1.1-.2.1-.2.1 0 .2.1.2.1l.1 1.8C77.2 59.7 77.1 59.8 77 59.8 77 59.8 77 59.8 77 59.8zM42.7 66c-.1 0-.1-.1-.1-.1 0-.3 0-.1 8.2-.1l-.4-4.2c0-.1.1-.2.1-.2.1 0 .2.1.2.1.4 4.5.4 4.4.3 4.5C51 66.1 51.4 66 42.7 66z" fill="#021b79" class="color000000 svgShape"></path><path d="M51,67.6l-0.2-1.7c0-0.2,0.3-0.2,0.3,0l0.2,1.7C51.3,67.7,51,67.8,51,67.6z" fill="#021b79" class="color000000 svgShape"></path><path fill="#ffffff" d="M96.7,66.4L91.1,81c-0.1,0.3-0.3,0.4-0.6,0.4H69L74.9,66c0.1-0.3,0.3-0.4,0.6-0.4H96        C96.5,65.5,96.8,66,96.7,66.4z" class="colorffffff svgShape"></path><path d="M90.5,81.6H69c-0.1,0-0.2-0.1-0.1-0.2l5.9-15.5c0.1-0.3,0.4-0.5,0.8-0.5H96c0.6,0,1,0.6,0.8,1.1l-5.5,14.6        C91.2,81.4,90.8,81.6,90.5,81.6z M69.2,81.3h21.3c0.2,0,0.4-0.1,0.5-0.3l5.5-14.6l0,0c0.1-0.3-0.1-0.7-0.5-0.7H75.5        c-0.2,0-0.4,0.1-0.5,0.3L69.2,81.3z" fill="#021b79" class="color000000 svgShape"></path><path fill="#ffffff" d="M75.5,65.5c-0.3,0-0.5,0.2-0.6,0.4L69,81.5H53l0.4-1c0.1-0.3,0.3-0.4,0.6-0.4h13.7l5.3-14        c0.1-0.3,0.3-0.4,0.6-0.4H75.5z" class="colorffffff svgShape"></path><path d="M69,81.6H53c-0.1,0-0.2-0.1-0.1-0.2l0.4-1c0.1-0.3,0.4-0.5,0.8-0.5h13.6l5.3-13.9c0.1-0.3,0.4-0.5,0.8-0.5h1.8        c0.1,0,0.1,0.1,0.1,0.1s-0.1,0.1-0.1,0.1c-0.2,0-0.4,0.1-0.5,0.3l-5.9,15.5C69.1,81.6,69.1,81.6,69,81.6z M53.2,81.3h15.7        l5.8-15.4c0-0.1,0.1-0.2,0.1-0.2h-1.2c-0.2,0-0.4,0.1-0.5,0.3l-5.3,14c0,0.1-0.1,0.1-0.1,0.1H54c-0.2,0-0.4,0.1-0.5,0.3        L53.2,81.3z" fill="#021b79" class="color000000 svgShape"></path><path fill="#0575e6" d="M85.3,73.6c-0.3,0.9-1.3,1.7-2.2,1.7c-0.9,0-1.4-0.7-1.1-1.7c0.3-0.9,1.2-1.7,2.2-1.7S85.6,72.7,85.3,73.6       z" class="color178afc svgShape"></path><g fill="#021b79" class="color000000 svgShape"><path fill="#ffffff" d="M30.5,47.4c2.2,2.8,6,3.5,9,2.1l2.7,1c0.3,0.1,0.7-0.2,0.7-0.5l-0.4-2.8c2.2-2.9,2.1-7-0.6-9.8      c-2.6-2.7-7-3.1-10-0.8C28.4,39.2,27.8,44.1,30.5,47.4z" class="colorffffff svgShape"></path><path d="M42.1,50.8l-2.6-1c-3.2,1.4-7,0.5-9.3-2.2l0,0c-2.8-3.4-2.2-8.5,1.4-11.2c3.1-2.4,7.7-2,10.4,0.8c2.6,2.8,2.9,7,0.7,10      l0.4,2.7C43.2,50.5,42.7,51,42.1,50.8z M39.7,49.3l2.6,1c0.2,0.1,0.3-0.1,0.3-0.3l-0.4-2.8c0-0.1,0-0.1,0-0.2      c2.2-2.9,1.9-6.9-0.6-9.5c-2.5-2.6-6.8-3-9.7-0.8c-3.3,2.5-3.9,7.2-1.3,10.4c2.1,2.6,5.7,3.5,8.8,2.1      C39.5,49.3,39.6,49.3,39.7,49.3z" fill="#021b79" class="color000000 svgShape"></path></g><g fill="#021b79" class="color000000 svgShape"><path fill="#0575e6" d="M60.2,51.5c0.2,0.1,0.4,0.3,0.4,0.5v0.8H53V52c0-0.3,0.2-0.5,0.4-0.5C55.6,50.9,57.9,50.9,60.2,51.5z" class="color178afc svgShape"></path></g><g fill="#021b79" class="color000000 svgShape"><path d="M85.1,48.1c-0.5-0.4-1-0.5-1.5-0.3c-0.1,0-0.2,0-0.2-0.1c0-0.1,0-0.2,0.1-0.2c0.5-0.2,1.1,0,1.7,0.4       c0.1,0,0.1,0.1,0,0.2C85.2,48.1,85.1,48.2,85.1,48.1z" fill="#021b79" class="color000000 svgShape"></path></g><g fill="#021b79" class="color000000 svgShape"><path d="M63.1,73.5c0.1-0.6-0.3-1.5-0.3-1.6c0-0.1,0-0.2,0.1-0.2c0.1,0,0.2,0,0.2,0.1c0,0,0.5,1,0.3,1.8       C63.4,73.7,63.1,73.7,63.1,73.5z" fill="#021b79" class="color000000 svgShape"></path></g><g fill="#021b79" class="color000000 svgShape"><path d="M98.9 27.7c-.1 0-.1-.1-.1-.2l.9-2.8c0-.1.1-.1.2-.1.1 0 .1.1.1.2L99 27.6C99 27.7 98.9 27.7 98.9 27.7zM101.2 29.2c0-.1 0-.2.1-.2l2.6-1.4c.1 0 .2 0 .2.1 0 .1 0 .2-.1.2l-2.6 1.4C101.3 29.3 101.2 29.2 101.2 29.2zM104.3 33.1l-2.8-.9c-.1 0-.1-.1-.1-.2 0-.1.1-.1.2-.1l2.8.9c.1 0 .1.1.1.2C104.5 33 104.4 33.1 104.3 33.1z" fill="#021b79" class="color000000 svgShape"></path></g><g fill="#021b79" class="color000000 svgShape"><path fill="#ffffff" d="M86.2,41.2l0.7-0.4c0.3-0.2,0.7,0,0.9,0.3l0.6,1.1c0.3,0.6,0.1,1.4-0.5,1.7l-0.2,0.1L86.2,41.2z" class="colorffffff svgShape"></path><path d="M87.4,44.2L86,41.3c0-0.1,0-0.2,0.1-0.2l0.7-0.4c0.4-0.2,0.9-0.1,1.1,0.4l0.6,1.1c0.4,0.7,0.1,1.5-0.6,1.9           l-0.3,0.1C87.5,44.3,87.4,44.2,87.4,44.2z M86.4,41.3l1.3,2.6l0.1-0.1c0.5-0.3,0.8-0.9,0.5-1.5l-0.6-1.1           c-0.1-0.3-0.4-0.4-0.7-0.2L86.4,41.3z" fill="#021b79" class="color000000 svgShape"></path><path fill="#dcedfe" d="M91.5,22l9.3,18.2c-4.3-0.5-10.6-1.6-14.2-1l-3.1-6C86.1,30.5,89.4,25.8,91.5,22z" class="colorfedcee svgShape"></path><path fill="#0575e6" d="M83.5,33l3.2,6.1c0.2,0.4,0.1,1-0.4,1.2l-4.9,2.5c-0.4,0.2-0.9,0-1.2-0.4L77,36.4          c-0.2-0.4-0.1-1,0.4-1.2l4.9-2.5C82.7,32.5,83.3,32.6,83.5,33z" class="color178afc svgShape"></path><path fill="#f1f6fc" d="M77.6,37.5C77.6,37.5,77.6,37.5,77.6,37.5c-2.6,1.3-0.6,5.2,1.9,3.9c0,0,0,0,0,0L77.6,37.5z" class="colorf3f1fc svgShape"></path><path fill="#dcedfe" d="M77.6,37.5l2,3.8c0,0,0,0,0,0C77,42.7,75,38.9,77.6,37.5C77.6,37.5,77.6,37.5,77.6,37.5z" class="colorfedcee svgShape"></path><g fill="#021b79" class="color000000 svgShape"><path fill="#dcedfe" d="M89.9,47.8c0.9-0.7,1-2.1,0.1-2.9l-1.2-1.2l-3.1-3.1l-3.6,1.9l5.2,5.2C88,48.4,89.1,48.4,89.9,47.8          L89.9,47.8z" class="colorfedcee svgShape"></path></g></g><g fill="#021b79" class="color000000 svgShape"><path fill="#ffffff" d="M92.8,28.7c2.2,5.2,6.5,12.1,8,11.5c1-0.4-0.3-4.9-2.8-9.9c-2.6-5-5.5-8.8-6.5-8.3      C90.7,22.3,91.3,25.1,92.8,28.7z" class="colorffffff svgShape"></path></g><g fill="#021b79" class="color000000 svgShape"><path d="M92.8,28.7c0.8,1.9,1.9,4,3,5.9c1.4-0.9,2.1-2.7,1.4-4.2C96.5,28.8,94.6,28,92.8,28.7z" fill="#021b79" class="color000000 svgShape"></path></g><g fill="#021b79" class="color000000 svgShape"><path d="M95.7,34.7c-1.1-1.9-2.2-4-3-6c-1.3-3-2.3-6.4-1.3-6.9c1.3-0.5,4.4,3.9,6.7,8.4C103.6,41,101.4,44.3,95.7,34.7z        M91.7,22.1c0,0-0.1,0-0.1,0c-0.6,0.2-0.3,2.6,1.4,6.5l0,0c2.5,5.9,6.6,11.9,7.8,11.4c0.1,0,0.1-0.1,0.2-0.2       c0.4-1.1-0.9-5.2-3.1-9.5C95.2,25.3,92.6,22.1,91.7,22.1z" fill="#021b79" class="color000000 svgShape"></path></g><g fill="#021b79" class="color000000 svgShape"><path fill="#ffffff" d="M79.2,37.3c0-0.1,0-0.2,0.1-0.2l3.6-1.7c0.1,0,0.2,0,0.2,0.1c0,0.1,0,0.2-0.1,0.2l-3.6,1.7       C79.3,37.4,79.2,37.3,79.2,37.3z" class="colorffffff svgShape"></path></g><g fill="#021b79" class="color000000 svgShape"><path fill="#ffffff" d="M79.9,38.7c0-0.1,0-0.2,0.1-0.2l3.6-1.7c0.1,0,0.2,0,0.2,0.1c0,0.1,0,0.2-0.1,0.2l-3.6,1.7       C80,38.8,79.9,38.8,79.9,38.7z" class="colorffffff svgShape"></path></g><g fill="#021b79" class="color000000 svgShape"><path fill="#ffffff" d="M80.7,40.1c0-0.1,0-0.2,0.1-0.2l3.6-1.7c0.1,0,0.2,0,0.2,0.1c0,0.1,0,0.2-0.1,0.2l-3.6,1.7       C80.8,40.2,80.7,40.2,80.7,40.1z" class="colorffffff svgShape"></path></g><g fill="#021b79" class="color000000 svgShape"><path fill="#dcedfe" d="M41.3,42.7c0,0.8-0.2,1.5-0.5,2.2c-0.8,1.6-2.4,2.6-4.3,2.6c-1.9,0-3.5-1.1-4.3-2.6       c-0.3-0.7-0.5-1.4-0.5-2.2c0-2.7,2.2-4.9,4.9-4.9C39.1,37.8,41.3,40,41.3,42.7z" class="colorfedcee svgShape"></path><path fill="#ffffff" d="M39,43.9c-0.5,0.9-1.5,1.6-2.6,1.6c-1.1,0-2.1-0.6-2.6-1.6C34.9,41.8,37.9,41.8,39,43.9z" class="colorffffff svgShape"></path><path fill="#ffffff" d="M37.8,41.3c0,0.8-0.6,1.4-1.4,1.4c-0.8,0-1.4-0.6-1.4-1.4c0-0.8,0.6-1.4,1.4-1.4        C37.2,39.9,37.8,40.6,37.8,41.3z" class="colorffffff svgShape"></path></g><g fill="#021b79" class="color000000 svgShape"><path d="M58.8,42.5c0.3,0,0.3,0.3,0,0.3c-0.3,0.1-0.6,0-0.9,0.1c-0.3,0.1-0.6,0.3-0.9,0.3c-0.4,0-0.4-0.3,0-0.5     C57.5,42.5,58.2,42.4,58.8,42.5z" fill="#021b79" class="color000000 svgShape"></path></g><g fill="#021b79" class="color000000 svgShape"><path d="M63.2,42.1c0.1,0,0.2,0.1,0.2,0.2c0,0.1-0.1,0.1-0.2,0.1c-0.3,0-0.6-0.1-0.9-0.1c-0.3,0-0.6,0.2-0.9,0.1     c-0.4,0-0.3-0.4,0.1-0.5C61.9,41.9,62.7,42,63.2,42.1z" fill="#021b79" class="color000000 svgShape"></path></g><g fill="#021b79" class="color000000 svgShape"><path d="M61,47c-0.1,0.2-0.3,0.7-0.7,1c-0.4,0.3-1,0.3-1.3,0c-0.5-0.4-0.5-1-0.4-1.3c0,0,0.1-0.1,0.1,0     C58.8,46.9,59.7,47.4,61,47C60.9,46.9,61,46.9,61,47z" fill="#021b79" class="color000000 svgShape"></path></g><g fill="#021b79" class="color000000 svgShape"><path fill="#dcedfe" d="M60.2,48c-0.4,0.3-1,0.3-1.3,0C59.4,47.4,60,47.5,60.2,48z" class="colorfedcee svgShape"></path></g></g></svg>