<svg xmlns="http://www.w3.org/2000/svg" enable-background="new 0 0 2500 2500" viewBox="0 0 2500 2500" id="OnlinePayment"><g fill="#000000" class="color000000 svgShape"><circle cx="1250" cy="1250" r="841.16" fill="#eff3f8" class="coloreff3f8 svgShape"></circle><g fill="#000000" class="color000000 svgShape"><g fill="#000000" class="color000000 svgShape"><g fill="#000000" class="color000000 svgShape"><g fill="#000000" class="color000000 svgShape"><path d="M470.77,1247.5c-1.46,0-2.69-1.13-2.79-2.61c-0.11-1.55,1.06-2.88,2.61-2.99c11.09-0.76,22.15-2.33,32.88-4.66
						c1.51-0.32,3.01,0.63,3.34,2.14c0.33,1.51-0.63,3.01-2.14,3.34c-10.99,2.39-22.32,4-33.69,4.78
						C470.9,1247.5,470.84,1247.5,470.77,1247.5z M437.16,1247.46c-0.07,0-0.13,0-0.2-0.01c-11.1-0.77-22.43-2.29-33.67-4.52
						c-1.52-0.3-2.51-1.78-2.21-3.3c0.3-1.52,1.78-2.51,3.3-2.2c11.01,2.18,22.11,3.67,32.97,4.42c1.55,0.11,2.71,1.45,2.6,2.99
						C439.85,1246.33,438.62,1247.46,437.16,1247.46z M371.3,1234.53c-0.28,0-0.57-0.04-0.86-0.14
						c-10.57-3.41-21.23-7.49-31.69-12.12c-1.42-0.63-2.05-2.29-1.43-3.7c0.63-1.42,2.29-2.05,3.7-1.43
						c10.27,4.56,20.74,8.57,31.13,11.91c1.47,0.48,2.28,2.05,1.81,3.53C373.59,1233.77,372.49,1234.53,371.3,1234.53z
						 M309.87,1207.35c-0.47,0-0.94-0.12-1.38-0.37c-9.71-5.51-19.36-11.59-28.67-18.08c-1.27-0.89-1.58-2.63-0.7-3.9
						c0.89-1.27,2.63-1.58,3.9-0.7c9.17,6.39,18.67,12.38,28.23,17.81c1.35,0.76,1.82,2.48,1.06,3.82
						C311.79,1206.84,310.84,1207.35,309.87,1207.35z M254.71,1168.95c-0.64,0-1.28-0.21-1.8-0.66
						c-8.63-7.25-17.03-14.96-24.96-22.92c-1.09-1.1-1.09-2.87,0.01-3.96c1.1-1.09,2.87-1.09,3.96,0.01
						c7.81,7.85,16.09,15.45,24.59,22.59c1.19,1,1.34,2.76,0.35,3.95C256.31,1168.61,255.51,1168.95,254.71,1168.95z
						 M207.19,1121.42c-0.8,0-1.59-0.34-2.14-0.99c-7.25-8.55-14.27-17.52-20.87-26.66c-0.91-1.26-0.62-3.01,0.63-3.91
						c1.26-0.91,3.01-0.62,3.92,0.63c6.51,9.02,13.44,17.88,20.6,26.32c1,1.18,0.86,2.95-0.33,3.95
						C208.47,1121.2,207.83,1121.42,207.19,1121.42z M167.83,1066.92c-0.94,0-1.87-0.48-2.39-1.34
						c-5.86-9.58-11.42-19.51-16.55-29.53c-0.71-1.38-0.16-3.07,1.22-3.77c1.38-0.7,3.07-0.16,3.77,1.22
						c5.06,9.89,10.56,19.7,16.34,29.16c0.81,1.32,0.39,3.05-0.93,3.85C168.83,1066.79,168.33,1066.92,167.83,1066.92z
						 M137.2,1007.07c-1.1,0-2.14-0.65-2.59-1.72c-4.35-10.36-8.37-21.02-11.93-31.68c-0.49-1.47,0.3-3.06,1.77-3.55
						c1.47-0.49,3.06,0.3,3.55,1.77c3.52,10.53,7.48,21.05,11.78,31.28c0.6,1.43-0.07,3.07-1.5,3.67
						C137.93,1007,137.56,1007.07,137.2,1007.07z M115.9,943.31c-1.25,0-2.4-0.85-2.72-2.12c-2.75-10.92-5.11-22.06-7-33.12
						c-0.26-1.53,0.76-2.98,2.29-3.24c1.53-0.26,2.98,0.76,3.24,2.29c1.87,10.92,4.2,21.92,6.92,32.7c0.38,1.5-0.53,3.03-2.03,3.4
						C116.36,943.28,116.13,943.31,115.9,943.31z M104.55,877.05c-1.43,0-2.66-1.09-2.79-2.55c-0.79-8.59-1.33-17.28-1.59-25.82
						c-0.08-2.66-0.14-5.33-0.17-7.99c-0.02-1.55,1.22-2.82,2.77-2.84c1.47-0.08,2.82,1.22,2.84,2.77c0.03,2.63,0.08,5.26,0.17,7.88
						c0.26,8.43,0.79,17.01,1.57,25.48c0.14,1.54-0.99,2.91-2.53,3.05C104.72,877.04,104.63,877.05,104.55,877.05z M103.73,809.83
						c-0.06,0-0.13,0-0.19-0.01c-1.55-0.1-2.71-1.44-2.61-2.99c0.75-11.19,1.95-22.51,3.57-33.67c0.22-1.53,1.66-2.6,3.18-2.37
						c1.53,0.22,2.59,1.65,2.37,3.18c-1.6,11.01-2.79,22.19-3.53,33.23C106.43,808.69,105.2,809.83,103.73,809.83z M113.39,743.3
						c-0.2,0-0.41-0.02-0.62-0.07c-1.51-0.34-2.46-1.84-2.12-3.35c2.45-10.95,5.37-21.96,8.65-32.73c0.45-1.48,2.01-2.32,3.5-1.86
						c1.48,0.45,2.32,2.02,1.86,3.5c-3.24,10.63-6.12,21.51-8.54,32.32C115.83,742.42,114.68,743.3,113.39,743.3z M133.01,679
						c-0.34,0-0.68-0.06-1.02-0.19c-1.44-0.56-2.16-2.19-1.59-3.63c4.08-10.48,8.61-20.93,13.46-31.06c0.67-1.4,2.34-1.99,3.74-1.32
						c1.4,0.67,1.99,2.34,1.32,3.74c-4.79,10-9.26,20.32-13.3,30.67C135.19,678.32,134.13,679,133.01,679z M1773.36,645.76l-1.31,0
						c-1.55,0-2.8-1.26-2.8-2.81c0-1.55,1.26-2.8,2.8-2.8c0,0,0,0,0.01,0l1.3,0c10.66-0.01,21.47-0.37,32.13-1.08
						c1.51-0.1,2.88,1.07,2.98,2.61c0.1,1.55-1.07,2.88-2.61,2.98C1795.08,645.39,1784.14,645.76,1773.36,645.76z M1738.44,644.71
						c-0.06,0-0.11,0-0.17-0.01c-11.05-0.67-22.38-1.66-33.65-2.96c-1.54-0.18-2.64-1.57-2.47-3.11c0.18-1.54,1.59-2.64,3.11-2.46
						c11.18,1.29,22.4,2.28,33.35,2.94c1.55,0.09,2.72,1.42,2.63,2.97C1741.15,643.56,1739.91,644.71,1738.44,644.71z
						 M1839.15,641.29c-1.38,0-2.58-1.02-2.77-2.43c-0.21-1.53,0.87-2.95,2.4-3.16c11.04-1.5,22.13-3.41,32.96-5.67
						c1.52-0.32,3,0.66,3.32,2.17c0.31,1.52-0.66,3-2.17,3.32c-10.96,2.28-22.18,4.21-33.35,5.73
						C1839.4,641.28,1839.27,641.29,1839.15,641.29z M1671.63,637.05c-0.15,0-0.31-0.01-0.47-0.04
						c-10.88-1.81-22.04-3.94-33.17-6.33c-1.51-0.32-2.48-1.82-2.15-3.33c0.33-1.51,1.81-2.48,3.33-2.15
						c11.05,2.37,22.13,4.48,32.92,6.28c1.53,0.25,2.56,1.7,2.3,3.23C1674.16,636.08,1672.97,637.05,1671.63,637.05z
						 M1904.97,627.55c-1.22,0-2.34-0.8-2.7-2.04c-0.42-1.49,0.44-3.04,1.93-3.46c10.76-3.06,21.46-6.55,31.79-10.35
						c1.45-0.53,3.07,0.21,3.6,1.66c0.54,1.45-0.21,3.07-1.66,3.6c-10.46,3.85-21.29,7.38-32.19,10.48
						C1905.48,627.52,1905.23,627.55,1904.97,627.55z M1605.83,623.01c-0.23,0-0.47-0.03-0.7-0.09
						c-10.64-2.75-21.58-5.79-32.52-9.05c-1.48-0.44-2.33-2-1.89-3.49c0.44-1.48,2.01-2.33,3.49-1.89c10.87,3.24,21.75,6.27,32.32,9
						c1.5,0.39,2.4,1.92,2.01,3.42C1608.22,622.17,1607.08,623.01,1605.83,623.01z M162.06,618.37c-0.48,0-0.96-0.12-1.4-0.37
						c-1.34-0.77-1.8-2.49-1.03-3.83c5.63-9.77,11.69-19.41,18.02-28.66c0.87-1.28,2.62-1.61,3.9-0.73c1.28,0.87,1.61,2.62,0.73,3.9
						c-6.25,9.13-12.23,18.65-17.79,28.29C163.97,617.87,163.03,618.37,162.06,618.37z M1968.05,604.28c-1.06,0-2.07-0.6-2.55-1.63
						c-0.65-1.41-0.03-3.07,1.37-3.72c1.69-0.78,3.36-1.57,5.04-2.37c1.4-0.67,3.07-0.08,3.74,1.32c0.67,1.4,0.08,3.07-1.32,3.74
						c-1.7,0.81-3.4,1.61-5.11,2.4C1968.84,604.2,1968.44,604.28,1968.05,604.28z M1541.33,603.83c-0.29,0-0.59-0.05-0.89-0.15
						c-10.38-3.47-21.09-7.23-31.83-11.17c-1.45-0.53-2.2-2.14-1.67-3.6c0.54-1.45,2.16-2.2,3.6-1.67
						c10.69,3.92,21.35,7.66,31.67,11.12c1.47,0.49,2.26,2.08,1.77,3.55C1543.6,603.08,1542.51,603.83,1541.33,603.83z
						 M1478.14,580.69c-0.34,0-0.69-0.06-1.03-0.2c-10.11-4-20.61-8.29-31.21-12.74c-1.43-0.6-2.1-2.24-1.5-3.67
						c0.6-1.43,2.24-2.1,3.67-1.5c10.56,4.44,21.02,8.71,31.09,12.7c1.44,0.57,2.15,2.2,1.58,3.64
						C1480.31,580.02,1479.26,580.69,1478.14,580.69z M200.03,562.89c-0.62,0-1.24-0.2-1.76-0.62c-1.2-0.97-1.39-2.74-0.42-3.94
						c3.26-4.04,6.62-8.05,9.99-11.93c3.97-4.57,8.1-9.13,12.3-13.57c1.06-1.13,2.84-1.18,3.96-0.11c1.13,1.06,1.18,2.84,0.11,3.96
						c-4.14,4.39-8.22,8.89-12.14,13.4c-3.33,3.83-6.64,7.79-9.85,11.77C201.66,562.54,200.85,562.89,200.03,562.89z
						 M1416.09,554.65c-0.38,0-0.76-0.08-1.13-0.24c-3.35-1.48-6.7-2.96-10.04-4.46c-6.91-3.09-13.8-6.21-20.68-9.35
						c-1.41-0.64-2.03-2.31-1.39-3.72c0.64-1.41,2.31-2.03,3.72-1.38c6.87,3.14,13.75,6.25,20.64,9.33
						c3.33,1.49,6.67,2.97,10.01,4.45c1.42,0.63,2.06,2.28,1.43,3.7C1418.2,554.03,1417.17,554.65,1416.09,554.65z M1354.87,526.73
						c-0.4,0-0.8-0.08-1.19-0.26c-10.16-4.75-20.31-9.54-30.46-14.33c-1.4-0.66-2-2.33-1.33-3.73c0.66-1.4,2.33-2,3.73-1.34
						c10.14,4.79,20.28,9.58,30.43,14.32c1.4,0.66,2.01,2.32,1.35,3.73C1356.94,526.13,1355.93,526.73,1354.87,526.73z
						 M246.16,513.98c-0.76,0-1.52-0.31-2.07-0.91c-1.04-1.14-0.96-2.92,0.18-3.96c8.22-7.51,16.9-14.88,25.79-21.9
						c1.21-0.96,2.98-0.76,3.94,0.46c0.96,1.21,0.76,2.98-0.46,3.94c-8.78,6.95-17.36,14.23-25.48,21.65
						C247.51,513.73,246.83,513.98,246.16,513.98z M1294.02,497.99c-0.4,0-0.81-0.09-1.2-0.27c-10.13-4.8-20.27-9.59-30.42-14.35
						c-1.4-0.66-2.01-2.33-1.35-3.73c0.66-1.4,2.32-2.01,3.73-1.35c10.15,4.76,20.3,9.56,30.44,14.36c1.4,0.66,2,2.33,1.33,3.73
						C1296.08,497.4,1295.07,497.99,1294.02,497.99z M298.86,472.24c-0.89,0-1.77-0.42-2.31-1.22c-0.88-1.28-0.56-3.02,0.72-3.9
						c9.14-6.29,18.71-12.43,28.45-18.27c1.33-0.8,3.05-0.36,3.85,0.96c0.8,1.33,0.37,3.05-0.96,3.85
						c-9.64,5.78-19.11,11.86-28.15,18.08C299.96,472.08,299.41,472.24,298.86,472.24z M1233.09,469.45c-0.39,0-0.79-0.08-1.17-0.26
						c-10.87-5-20.89-9.54-30.62-13.87c-1.42-0.63-2.05-2.29-1.42-3.7c0.63-1.41,2.29-2.05,3.7-1.42
						c9.75,4.34,19.78,8.89,30.68,13.9c1.41,0.65,2.02,2.31,1.38,3.72C1235.16,468.84,1234.15,469.45,1233.09,469.45z
						 M1171.6,442.11c-0.37,0-0.74-0.07-1.1-0.23c-10.59-4.52-21.03-8.85-31.02-12.87c-1.44-0.58-2.13-2.21-1.55-3.65
						c0.58-1.44,2.21-2.13,3.65-1.55c10.03,4.04,20.5,8.38,31.13,12.92c1.43,0.61,2.09,2.25,1.48,3.68
						C1173.73,441.47,1172.69,442.11,1171.6,442.11z M356.5,437.63c-1.01,0-1.99-0.55-2.49-1.51c-0.72-1.37-0.19-3.07,1.19-3.78
						c9.82-5.13,20.03-10.12,30.36-14.83c1.41-0.64,3.07-0.02,3.71,1.39c0.64,1.41,0.02,3.07-1.39,3.71
						c-10.23,4.66-20.36,9.61-30.09,14.7C357.39,437.52,356.94,437.63,356.5,437.63z M1109.18,417.01c-0.33,0-0.66-0.06-0.98-0.18
						c-10.68-4-21.31-7.82-31.59-11.34c-1.46-0.5-2.25-2.1-1.74-3.56c0.5-1.47,2.1-2.25,3.56-1.74
						c10.34,3.54,21.02,7.37,31.74,11.39c1.45,0.54,2.19,2.16,1.64,3.61C1111.38,416.32,1110.31,417.01,1109.18,417.01z
						 M417.68,409.7c-1.12,0-2.17-0.67-2.61-1.77c-0.57-1.44,0.13-3.07,1.57-3.64c10.31-4.08,20.97-8.01,31.69-11.69
						c1.47-0.5,3.06,0.28,3.56,1.74c0.5,1.46-0.28,3.06-1.74,3.56c-10.64,3.64-21.22,7.54-31.44,11.6
						C418.37,409.64,418.02,409.7,417.68,409.7z M1045.51,395.25c-0.27,0-0.55-0.04-0.82-0.12c-10.62-3.26-21.47-6.38-32.24-9.29
						c-1.49-0.4-2.38-1.94-1.98-3.44c0.4-1.5,1.94-2.38,3.44-1.98c10.83,2.92,21.74,6.07,32.42,9.34c1.48,0.45,2.31,2.02,1.86,3.5
						C1047.82,394.47,1046.71,395.25,1045.51,395.25z M481.31,387.87c-1.21,0-2.33-0.79-2.69-2.01c-0.44-1.49,0.41-3.04,1.9-3.48
						c10.64-3.13,21.61-6.11,32.59-8.85c1.5-0.37,3.03,0.54,3.4,2.04c0.38,1.5-0.54,3.02-2.04,3.4c-10.91,2.72-21.8,5.68-32.36,8.79
						C481.84,387.83,481.57,387.87,481.31,387.87z M980.56,377.71c-0.21,0-0.43-0.02-0.64-0.07c-10.83-2.54-21.86-4.93-32.79-7.11
						c-1.52-0.3-2.51-1.78-2.2-3.3c0.3-1.52,1.79-2.5,3.3-2.2c10.99,2.19,22.08,4.59,32.97,7.15c1.51,0.35,2.44,1.86,2.09,3.37
						C982.98,376.83,981.83,377.71,980.56,377.71z M546.59,371.54c-1.3,0-2.47-0.91-2.74-2.23c-0.32-1.52,0.66-3,2.17-3.32
						c8.17-1.7,16.53-3.32,24.84-4.82c2.77-0.5,5.55-0.98,8.33-1.46c1.52-0.26,2.97,0.76,3.24,2.29c0.26,1.53-0.77,2.98-2.29,3.24
						c-2.76,0.47-5.52,0.95-8.28,1.45c-8.25,1.48-16.56,3.09-24.68,4.79C546.97,371.52,546.78,371.54,546.59,371.54z M914.58,364.55
						c-0.15,0-0.3-0.01-0.46-0.04c-10.98-1.81-22.14-3.46-33.19-4.91c-1.54-0.2-2.62-1.61-2.42-3.14c0.2-1.54,1.62-2.62,3.14-2.42
						c11.11,1.46,22.34,3.12,33.37,4.94c1.53,0.25,2.56,1.69,2.31,3.22C917.12,363.58,915.93,364.55,914.58,364.55z M612.91,360.18
						c-1.38,0-2.58-1.02-2.77-2.43c-0.21-1.53,0.87-2.95,2.4-3.16c11.08-1.51,22.36-2.85,33.5-3.99c1.54-0.16,2.92,0.96,3.07,2.5
						c0.16,1.54-0.96,2.92-2.5,3.07c-11.08,1.13-22.29,2.47-33.32,3.97C613.16,360.18,613.03,360.18,612.91,360.18z M847.87,355.81
						c-0.09,0-0.18,0-0.28-0.01c-11.08-1.08-22.33-1.99-33.44-2.71c-1.55-0.1-2.72-1.43-2.62-2.98c0.1-1.54,1.44-2.72,2.98-2.62
						c11.17,0.72,22.48,1.63,33.63,2.72c1.54,0.15,2.67,1.52,2.52,3.06C850.51,354.72,849.29,355.81,847.87,355.81z M679.84,353.35
						c-1.46,0-2.69-1.13-2.79-2.61c-0.11-1.55,1.06-2.88,2.61-2.99c11.16-0.76,22.5-1.35,33.69-1.74c1.63-0.04,2.85,1.16,2.9,2.7
						c0.05,1.55-1.16,2.85-2.7,2.9c-11.13,0.39-22.4,0.97-33.51,1.73C679.97,353.35,679.91,353.35,679.84,353.35z M780.73,351.49
						c-0.03,0-0.06,0-0.09,0c-10.51-0.33-21.16-0.49-31.65-0.49l-1.9,0c-1.52,0-2.81-1.25-2.81-2.8s1.25-2.81,2.8-2.81l1.9,0
						c10.56,0,21.26,0.17,31.83,0.5c1.55,0.05,2.76,1.34,2.71,2.89C783.48,350.29,782.23,351.49,780.73,351.49z" fill="#000000" class="color000000 svgShape"></path></g><g fill="#000000" class="color000000 svgShape"><g fill="#000000" class="color000000 svgShape"><polygon fill="#ffffff" points="1162.07 554.45 1231.88 1332.89 359.77 1411.39 285.77 610.66" class="colorffffff svgShape"></polygon></g><g fill="#000000" class="color000000 svgShape"><g fill="#000000" class="color000000 svgShape"><polygon fill="#335eff" points="1101.9 901.91 412.1 950.35 392.18 765.35 1081.98 716.91" class="colorffce33 svgShape"></polygon></g><g fill="#000000" class="color000000 svgShape"><path d="M412.1,953.16c-1.42,0-2.63-1.07-2.78-2.5l-19.92-185c-0.08-0.76,0.15-1.52,0.64-2.1c0.49-0.58,1.2-0.94,1.96-1
								l689.81-48.45c1.48-0.11,2.82,1,2.98,2.5l19.92,185c0.08,0.76-0.15,1.52-0.64,2.1c-0.49,0.58-1.2,0.94-1.96,1l-689.8,48.45
								C412.23,953.15,412.16,953.16,412.1,953.16z M395.28,767.95l19.32,179.42l684.21-48.05l-19.32-179.42L395.28,767.95z" fill="#000000" class="color000000 svgShape"></path></g></g><g fill="#000000" class="color000000 svgShape"><path fill="#ffffff" d="M549.61,869.11c0.8,7.81-1.82,14.67-7.87,20.59c-4.96,4.87-11.87,8.8-20.74,11.8l1.59,15.49
							c0.45,4.42-1.67,6.91-6.37,7.48c-2.04,0.25-3.71-0.34-5.02-1.77c-1.03-1.17-1.63-2.54-1.79-4.11l-1.4-13.69
							c-1.58,0.28-3.13,0.51-4.64,0.69c-8.21,1-14.71,0.66-19.51-1.01c-4.33-1.48-6.65-3.77-6.97-6.87
							c-0.61-5.91,2.32-9.25,8.77-10.03c1.67-0.2,4.57,0.06,8.7,0.79c4.13,0.73,6.78,1.03,7.97,0.88c1.1-0.13,2.44-0.4,4.01-0.8
							l-2.8-27.32c-7.19,0.41-13.43-0.37-18.72-2.37c-6.92-2.59-10.69-6.87-11.31-12.86c-0.7-6.81,1.6-13.45,6.89-19.91
							c4.7-5.76,10.75-10.32,18.13-13.68l-1.05-10.22c-0.5-4.83,1.5-7.52,6-8.07c4.29-0.52,6.68,1.63,7.18,6.47l0.84,8.18
							c4.64-0.27,9.69,0.16,15.14,1.3c6.97,1.41,10.6,3.56,10.9,6.45c0.24,2.35-0.39,4.46-1.89,6.31c-1.5,1.86-3.42,2.93-5.75,3.21
							c-1.96,0.24-4.74,0.18-8.33-0.18c-3.8-0.33-6.58-0.43-8.34-0.3l1.95,19.02c0.57-0.07,1.02-0.1,1.35-0.1
							c9.1-0.39,16.49,1.3,22.17,5.08C545.06,853.8,548.7,860.31,549.61,869.11z M500.3,829.82c-6.44,3.38-9.46,6.96-9.07,10.76
							c0.33,3.26,3.89,4.92,10.68,4.97L500.3,829.82z M519.18,883.85c8.62-4.23,12.69-8.67,12.21-13.34
							c-0.72-7.02-5.6-10.46-14.64-10.33L519.18,883.85z" class="colorffffff svgShape"></path></g><g fill="#000000" class="color000000 svgShape"><path d="M631.27,847.39c-1.45,0-2.68-1.12-2.79-2.59c-0.12-1.54,1.04-2.89,2.58-3.01l399.29-30.98
							c1.52-0.12,2.89,1.03,3.01,2.58c0.12,1.54-1.04,2.89-2.58,3.01l-399.29,30.98C631.42,847.39,631.34,847.39,631.27,847.39z" fill="#000000" class="color000000 svgShape"></path></g><g fill="#000000" class="color000000 svgShape"><path d="M634.48,884.56c-1.45,0-2.68-1.12-2.79-2.59c-0.12-1.54,1.04-2.89,2.58-3.01l213.35-16.56
							c1.51-0.13,2.89,1.03,3.01,2.58c0.12,1.54-1.03,2.89-2.58,3.01L634.7,884.55C634.62,884.56,634.55,884.56,634.48,884.56z" fill="#000000" class="color000000 svgShape"></path></g><g fill="#000000" class="color000000 svgShape"><g fill="#000000" class="color000000 svgShape"><polygon fill="#c7e3ff" points="294.52 708.98 285.78 610.66 1162.08 554.44 1169.7 642.07" class="colorc7ecff svgShape"></polygon></g></g><g fill="#000000" class="color000000 svgShape"><path d="M359.77,1414.19c-1.43,0-2.65-1.09-2.79-2.55l-74-800.73c-0.07-0.75,0.17-1.5,0.66-2.08c0.49-0.58,1.2-0.93,1.95-0.98
							l876.31-56.21c1.55-0.1,2.88,1.07,2.98,2.62c0.1,1.55-1.07,2.88-2.62,2.98l-873.43,56.03l73.48,795.07l869.32-78.25
							c1.57-0.15,2.91,1,3.04,2.54c0.14,1.54-1,2.91-2.54,3.04l-872.11,78.5C359.93,1414.19,359.85,1414.19,359.77,1414.19z" fill="#000000" class="color000000 svgShape"></path></g><g fill="#000000" class="color000000 svgShape"><path fill="#ffffff" d="M338.88,655.48c0.73,8.45,7.27,14.89,14.58,14.4c7.32-0.49,12.65-7.72,11.92-16.17
							c-0.73-8.48-7.25-14.92-14.57-14.43C343.5,639.77,338.15,647.01,338.88,655.48z" class="colorffffff svgShape"></path></g><g fill="#000000" class="color000000 svgShape"><path fill="#ffffff" d="M418.98,650.14c0.73,8.45,7.27,14.9,14.6,14.41c7.33-0.49,12.67-7.73,11.94-16.18
							c-0.73-8.48-7.25-14.93-14.58-14.44C423.61,634.42,418.25,641.66,418.98,650.14z" class="colorffffff svgShape"></path></g><g fill="#000000" class="color000000 svgShape"><path fill="#ffffff" d="M378.92,652.81c0.73,8.45,7.27,14.9,14.59,14.41c7.32-0.49,12.66-7.73,11.93-16.18
							c-0.73-8.48-7.25-14.93-14.57-14.44C383.54,637.1,378.18,644.34,378.92,652.81z" class="colorffffff svgShape"></path></g></g><g fill="#000000" class="color000000 svgShape"><g fill="#000000" class="color000000 svgShape"><polyline fill="#9ccdff" points="1278.83 1990.05 1278.11 1985.62 1250.09 1813.75 1381.14 1788.01 1397.66 1986.36 1366.44 2023.69 1296.5 2030.38" class="colorffb59c svgShape"></polyline></g><g fill="#000000" class="color000000 svgShape"><path fill="#6a9ed3" d="M1405.56,1988.71l-0.51,56.03l-0.08,8.44l-0.32,34c0,0,10.5,21.77-1.94,33.01
							c-12.46,11.22-74.45,28.42-95.43,14.26c0,0-104.64,49.4-159.24,36.79c-54.32-12.52-62.53-45.86-57.15-61.25
							c-0.01-0.07,0.03-0.15,0.08-0.23c4.88-13.48,54.93-41.86,66.66-48.37c1.57-0.87,2.45-1.34,2.45-1.34s1.46-1.44,4.06-3.95
							c18.41-17.94,94.17-90.9,116.07-98.62c25.02-8.83,40.15,30.86,40.15,30.86s8.06-4.61,22.78-1.07
							c14.72,3.56,9.08,17.95,23.92,16.24c18.16-2.14,26.19-10.37,30.62-17.13C1400.02,1982.76,1405.61,1984.4,1405.56,1988.71z" class="color726ad3 svgShape"></path></g><g fill="#000000" class="color000000 svgShape"><path fill="#021b79" d="M1320.35,1988.32l-127.31,92.78c0,0-20.84-16.21-32.97-21.07c0,0,95.12-93.77,120.13-102.58
							C1305.21,1948.63,1320.35,1988.32,1320.35,1988.32z" class="color2e2780 svgShape"></path></g><g fill="#000000" class="color000000 svgShape"><g fill="#000000" class="color000000 svgShape"><path fill="#335eff" d="M1232.97,2064.67c-1.45,0-2.86-0.75-3.64-2.09c-14.7-25.22-42.92-28.52-43.2-28.55
								c-2.31-0.25-3.98-2.32-3.73-4.63c0.25-2.31,2.32-3.98,4.63-3.73c1.33,0.14,32.75,3.82,49.57,32.68
								c1.17,2.01,0.49,4.58-1.52,5.75C1234.42,2064.48,1233.69,2064.67,1232.97,2064.67z" class="colorffce33 svgShape"></path></g><g fill="#000000" class="color000000 svgShape"><path fill="#335eff" d="M1256.16,2038.19c-1.45,0-2.86-0.75-3.64-2.09c-14.62-25.1-42.92-28.52-43.21-28.55
								c-2.31-0.26-3.97-2.33-3.72-4.64c0.25-2.31,2.32-3.97,4.63-3.73c1.33,0.14,32.75,3.82,49.57,32.68
								c1.17,2.01,0.49,4.58-1.52,5.75C1257.61,2038,1256.88,2038.19,1256.16,2038.19z" class="colorffce33 svgShape"></path></g><g fill="#000000" class="color000000 svgShape"><path fill="#335eff" d="M1283.43,2014.75c-1.45,0-2.86-0.75-3.64-2.09c-14.62-25.1-42.92-28.52-43.21-28.55
								c-2.31-0.26-3.97-2.33-3.72-4.64c0.25-2.31,2.32-3.97,4.63-3.73c1.33,0.14,32.75,3.83,49.57,32.68
								c1.17,2.01,0.49,4.58-1.52,5.75C1284.88,2014.57,1284.15,2014.75,1283.43,2014.75z" class="colorffce33 svgShape"></path></g></g><g fill="#000000" class="color000000 svgShape"><g fill="#000000" class="color000000 svgShape"><path fill="#335eff" d="M1235,2135.89l-7.12,2.37c-16.96-50.74-61.47-72.94-70.26-76.88c1.57-0.87,2.45-1.34,2.45-1.34
								s1.46-1.44,4.06-3.95C1178.62,2063.16,1218.51,2086.5,1235,2135.89z" class="colorffce33 svgShape"></path></g></g><g fill="#000000" class="color000000 svgShape"><g fill="#000000" class="color000000 svgShape"><path fill="#335eff" d="M1405.05,2044.74l-0.08,8.44c-16.61,8.69-45.92,28.9-42.42,61.73l-7.46,0.8
								C1350.83,2075.81,1387.94,2053.01,1405.05,2044.74z" class="colorffce33 svgShape"></path></g></g><g fill="#000000" class="color000000 svgShape"><path d="M1402.7,2120.18c-12.46,11.22-74.46,28.42-95.42,14.27c0,0-104.65,49.39-159.26,36.79
							c-54.3-12.54-62.53-45.87-57.15-61.25c23.79,69,165.99,18.81,196.88,11.18c31.6-7.8,116.88-33.99,116.88-33.99
							S1415.14,2108.95,1402.7,2120.18z" fill="#000000" class="color000000 svgShape"></path></g><g fill="#000000" class="color000000 svgShape"><path fill="#8294a6" d="M1659.02,1256.16c-4.29,5.35-11.3,13.18-20.57,22.93c-3.94,4.13-7.82,31.49-14.91,52.08
							c-2.88,8.31-6.28,15.51-10.43,19.61c-8.53,8.45-28.53,24.12-53.17,42.52c-63.05,47.03-156.56,111.87-166.26,119.04
							c0,0,1.03,121.25-8.07,152.65c0,0,5.79,19.51,10.3,44.96c5.68,32.22,9.26,73.92-3.67,97.64c0,0,34.45,44.06,17.93,81.64
							c-7.55,17.22-37.44,29.5-71.37,35.29c-40.04,6.82-85.68,4.56-107.06-9.29c-39.45-25.59-24.86-76.45-13.99-84.57
							c-27.14-31.24-29.99-71.83-29.23-113.8c0,0,1.9-177.59,14.62-238.47c17.85-85.33,197.94-228.58,267.86-281.47
							c17.06-12.88,27.55-20.4,27.55-20.4h61.26l67.37-16.44l9.32-2.28l1.03,3.48l7.53,24.99l18.56,61.83
							C1664.43,1248.58,1662.8,1251.41,1659.02,1256.16z" class="color828da6 svgShape"></path></g><g fill="#000000" class="color000000 svgShape"><path fill="#324077" d="M1623.54,1331.17c-2.88,8.31-6.28,15.51-10.43,19.61c-8.53,8.45-28.53,24.12-53.17,42.52
							c-63.05,47.03-156.56,111.87-166.26,119.04c0,0,1.03,121.25-8.07,152.65c0,0,5.79,19.51,10.3,44.96
							c-0.65,0-1.25-0.08-1.93-0.24c-6.22-1.49-8.31-9.13-9.29-15.43c-6-39.17-12.01-78.78-8.69-118.28
							c3.31-39.47,16.9-79.44,45.1-107.31c27.44-27.14,66.12-40.61,93.54-67.78c15.43-15.29,26.57-34.26,39.28-51.89
							c11.03-15.35,29.5-42.57,52.08-34.94C1614.99,1317.12,1620.47,1323.42,1623.54,1331.17z" class="color324e77 svgShape"></path></g><g fill="#000000" class="color000000 svgShape"><path d="M1294.56,1931.06c-25.17,0-49.46-3.85-64.34-13.49c-21.53-13.97-26.62-34.11-27.1-48.55
							c-0.55-16.62,4.85-31.91,10.79-38.58c-27.28-33.08-28.87-75.94-28.18-113.64c0.01-0.51,0.6-53.91,3.17-111.45
							c0.07-1.55,1.39-2.74,2.93-2.68c1.55,0.07,2.74,1.38,2.68,2.93c-2.57,57.45-3.16,110.75-3.17,111.28
							c-0.69,37.47,0.89,80.09,28.54,111.93c0.51,0.59,0.75,1.36,0.67,2.14c-0.08,0.77-0.48,1.48-1.11,1.95
							c-4.75,3.55-11.29,18.39-10.71,35.94c0.44,13.1,5.05,31.38,24.55,44.04c19.26,12.48,62.46,16.13,105.07,8.88
							c36.89-6.29,62.79-18.87,69.27-33.65c15.66-35.63-17.24-78.36-17.57-78.78c-0.69-0.88-0.79-2.09-0.25-3.07
							c22.33-40.96-6.56-139.47-6.85-140.46c-0.15-0.51-0.15-1.06-0.01-1.58c8.88-30.66,7.97-150.64,7.96-151.85
							c-0.01-1.55,1.23-2.81,2.78-2.83c0.01,0,0.02,0,0.02,0c1.54,0,2.79,1.24,2.8,2.78c0.04,4.93,0.92,120.09-7.95,152.66
							c2.92,10.05,28.12,100.14,7.01,142.35c5.96,8.16,32.68,47.81,17.19,83.03c-10.44,23.8-54.85,33.75-73.46,36.93
							C1325.31,1929.66,1309.77,1931.06,1294.56,1931.06z" fill="#000000" class="color000000 svgShape"></path></g><g fill="#000000" class="color000000 svgShape"><path d="M1254.43,1745.41c-0.01,0-0.02,0-0.03,0c-46.87-0.49-67.23-25.75-68.07-26.83c-0.96-1.22-0.74-2.98,0.48-3.94
							c1.22-0.95,2.98-0.75,3.93,0.47c0.28,0.34,19.79,24.22,63.72,24.69c1.55,0.02,2.79,1.28,2.77,2.83
							C1257.21,1744.18,1255.96,1745.41,1254.43,1745.41z" fill="#000000" class="color000000 svgShape"></path></g><g fill="#000000" class="color000000 svgShape"><path d="M1261.97,1841.61c-23.77,0-44.04-7.84-45.27-8.33c-1.44-0.57-2.15-2.2-1.58-3.64c0.57-1.44,2.2-2.15,3.64-1.58
							c0.42,0.16,42.27,16.31,74.72,1.83c1.42-0.63,3.07,0,3.7,1.42c0.63,1.41,0,3.07-1.42,3.7
							C1284.79,1839.92,1273,1841.61,1261.97,1841.61z" fill="#000000" class="color000000 svgShape"></path></g><g fill="#000000" class="color000000 svgShape"><path d="M1335.42,1697.18c-1.22,0-2.33-0.8-2.69-2.02c-0.43-1.49,0.42-3.04,1.91-3.47c41.16-11.96,48.32-27.62,48.39-27.78
							c0.61-1.41,2.24-2.09,3.66-1.5c1.42,0.59,2.1,2.19,1.53,3.62c-0.29,0.74-7.73,18.18-52.02,31.05
							C1335.95,1697.15,1335.68,1697.18,1335.42,1697.18z" fill="#000000" class="color000000 svgShape"></path></g><g fill="#000000" class="color000000 svgShape"><path d="M1346.47,1833.69c-1.36,0-2.56-1-2.77-2.39c-0.23-1.53,0.83-2.96,2.36-3.19c31.76-4.75,43.76-21.93,43.88-22.11
							c0.87-1.28,2.61-1.62,3.89-0.75c1.28,0.86,1.63,2.6,0.77,3.88c-0.53,0.79-13.32,19.39-47.71,24.53
							C1346.74,1833.68,1346.6,1833.69,1346.47,1833.69z" fill="#000000" class="color000000 svgShape"></path></g><g fill="#000000" class="color000000 svgShape"><g fill="#000000" class="color000000 svgShape"><g fill="#000000" class="color000000 svgShape"><g fill="#000000" class="color000000 svgShape"><path fill="#9ccdff" d="M1237.08,874.58l-23.75,86.45c0,0-148.27-21.01-144.7-48.26c2.06-14.94,24-14.72,27.25-14.57
										c-4.56-1.3-62.77-23.07-50.46-35.81c11.53-12.13,52.07,4.71,63.21,7.88c-11.68-4.3-67.35-32.23-53.77-49.42
										c14.68-18.7,75.15,15.93,75.15,15.93s-14.65-27.57-5.5-36.49c9.11-9.03,28.54,13.24,40.76,23.42
										C1177.44,833.76,1237.08,874.58,1237.08,874.58z" class="colorffb59c svgShape"></path></g><g fill="#000000" class="color000000 svgShape"><path d="M1143,885.12c-0.21,0-0.41-0.02-0.62-0.07c-12.14-2.75-23.91-6.86-34.98-12.23c-1.39-0.68-1.97-2.35-1.3-3.75
										c0.68-1.39,2.35-1.97,3.75-1.3c10.69,5.18,22.05,9.15,33.77,11.81c1.51,0.34,2.46,1.84,2.12,3.35
										C1145.44,884.23,1144.28,885.12,1143,885.12z" fill="#000000" class="color000000 svgShape"></path></g><g fill="#000000" class="color000000 svgShape"><path d="M1118.37,910.48c-0.34,0-0.68-0.06-1.01-0.19l-17.04-6.59c-2.26-0.87-4.39-1.7-6.6-2.04
										c-1.53-0.24-2.58-1.67-2.34-3.2c0.24-1.53,1.69-2.57,3.2-2.34c2.81,0.44,5.32,1.41,7.76,2.35l17.04,6.59
										c1.44,0.56,2.16,2.18,1.6,3.63C1120.56,909.8,1119.5,910.48,1118.37,910.48z" fill="#000000" class="color000000 svgShape"></path></g><g fill="#000000" class="color000000 svgShape"><path d="M1152.25,857.61c-0.51,0-1.02-0.14-1.48-0.42c-8.47-5.28-16.37-11.5-23.48-18.5c-1.1-1.09-1.12-2.86-0.03-3.97
										c1.08-1.1,2.86-1.12,3.96-0.03c6.82,6.71,14.39,12.68,22.51,17.74c1.31,0.82,1.72,2.55,0.9,3.86
										C1154.1,857.14,1153.19,857.61,1152.25,857.61z" fill="#000000" class="color000000 svgShape"></path></g><g fill="#000000" class="color000000 svgShape"><path fill="#6a9ed3" d="M1651.05,856.28l1.57,111.94c0,0-11.36,7.27-29.06,18.01c-18.02,10.96-42.67,25.5-68.67,39.64
										c-42.11,22.89-87.81,44.71-114.84,48.44c-8.14,1.13-15.88,1.67-23.18,1.76c-46.46,0.63-74.53-16.78-74.53-16.78
										c-10.27,8.06-44.52-19.63-58.75-31.87c-3.89-3.35-6.27-5.56-6.27-5.56c-16.37-4.86-83.5-32.64-91.96-55.62
										c-8.47-23.01,26.47-101.63,48.01-107.55c21.55-5.92,84.07,40.37,84.07,40.37c23.25-9.88,45.86,28.56,45.86,28.56
										c23.38,5.52,48.9,23.5,48.9,23.5s67.09-47.98,115.37-69.86C1579.39,857.79,1651.05,856.28,1651.05,856.28z" class="color726ad3 svgShape"></path></g><g fill="#000000" class="color000000 svgShape"><path fill="#0575e6" d="M1618.98,984.59c-18.02,10.96-40.5,29.73-66.5,43.86c-42.11,22.89-86.98,42.26-114.01,45.99
										c-8.14,1.13-16.15,3.68-23.45,3.77c-1.15-1.09-4.92-6.09-5.83-7.4c47.99,2.77,96.38-24.73,118.56-67.39
										c8.72-16.78,13.55-35.38,22.3-52.13c8.78-16.76,37.57-14.59,56.17-17.92l-21.04-4.23c12.14,4.46,21.11,15.25,26.28,27.12
										C1615.39,965.25,1617.43,974.89,1618.98,984.59z" class="color554dae svgShape"></path></g><g fill="#000000" class="color000000 svgShape"><path d="M1409.59,1077.26c-39.69,0-65.48-12.82-71.83-16.35c-15.55,6.99-56.81-29.4-66.42-38.17
										c-17.28-5.31-79.67-31.25-88.61-55.53c-5.37-14.61,5.1-48.06,18.22-73.55c5.22-10.14,18.76-34.12,31.69-37.67
										c21.14-5.8,70.61,30.6,80.69,38.25c22.65-7.87,43.31,23.04,47.2,29.28c20.51,5.19,45.06,20.1,51.59,24.22
										c10.16-7.26,67.9-47.99,111.72-67.83c1.41-0.64,3.07-0.01,3.71,1.4c0.64,1.41,0.01,3.07-1.4,3.71
										c-47.45,21.49-111.65,67.91-112.3,68.38c-0.94,0.68-2.2,0.71-3.18,0.08c-0.3-0.19-29.97-19.42-52.59-24.78
										c-0.74-0.18-1.38-0.65-1.77-1.31c-0.21-0.36-21.65-36.2-42.36-27.39c-0.93,0.4-2,0.26-2.81-0.36
										c-15.81-12.18-60.45-42.79-77.04-38.24c-7.37,2.02-18.17,15.37-28.19,34.83c-14.41,28-22.12,57.68-17.94,69.05
										c7.75,21.07,67.61,46.94,85.57,52.28c0.41,0.12,0.78,0.33,1.1,0.62c20.84,19.12,53.64,43.33,61.36,37.28
										c0.93-0.73,2.2-0.79,3.2-0.18c0.37,0.23,37.57,22.64,95.87,14.6c1.51-0.21,2.95,0.86,3.16,2.4
										c0.21,1.53-0.86,2.95-2.39,3.16C1426.54,1076.71,1417.77,1077.26,1409.59,1077.26z" fill="#000000" class="color000000 svgShape"></path></g><g fill="#000000" class="color000000 svgShape"><path d="M1302.74,923.33c-0.23,0-0.46-0.03-0.69-0.09c-1.5-0.38-2.41-1.91-2.03-3.41c1.96-7.69,4.55-15.28,7.73-22.56
										c0.25-0.58,0.72-1.65,1.82-2.39c0.9-0.6,2.06-0.79,3.1-0.51c0.98,0.26,1.79,0.92,2.23,1.81c0.69,1.39,0.12,3.07-1.27,3.76
										c-0.34,0.17-0.7,0.26-1.05,0.28c-2.91,6.78-5.31,13.84-7.12,20.98C1305.14,922.48,1304,923.33,1302.74,923.33z" fill="#000000" class="color000000 svgShape"></path></g><g fill="#000000" class="color000000 svgShape"><path d="M1352.53,943.93c-0.15,0-0.3-0.01-0.45-0.04c-1.53-0.25-2.57-1.68-2.32-3.21c0.94-5.83,3.1-11.56,6.24-16.57
										c0.82-1.31,2.56-1.71,3.87-0.88c1.31,0.82,1.71,2.55,0.88,3.87c-2.75,4.38-4.63,9.38-5.45,14.48
										C1355.08,942.95,1353.89,943.93,1352.53,943.93z" fill="#000000" class="color000000 svgShape"></path></g><g fill="#000000" class="color000000 svgShape"><path d="M1338.25,1061.29c-1.16,0-2.25-0.73-2.65-1.89c-2.52-7.29-2.73-15.39-0.59-22.79c0.43-1.49,1.98-2.35,3.47-1.92
										c1.49,0.43,2.35,1.98,1.92,3.47c-1.82,6.31-1.65,13.2,0.5,19.41c0.51,1.46-0.27,3.06-1.74,3.57
										C1338.86,1061.25,1338.55,1061.29,1338.25,1061.29z" fill="#000000" class="color000000 svgShape"></path></g><g fill="#000000" class="color000000 svgShape"><path d="M1270.44,1023.48c-1.21,0-2.33-0.79-2.69-2.02c-2.45-8.38-0.47-17.73,5.15-24.41c1-1.18,2.77-1.34,3.95-0.34
										c1.19,1,1.34,2.77,0.34,3.95c-4.36,5.18-5.95,12.72-4.06,19.22c0.43,1.49-0.42,3.04-1.91,3.48
										C1270.97,1023.44,1270.7,1023.48,1270.44,1023.48z" fill="#000000" class="color000000 svgShape"></path></g><g fill="#000000" class="color000000 svgShape"><g fill="#000000" class="color000000 svgShape"><g fill="#000000" class="color000000 svgShape"><polyline fill="#9ccdff" points="1620.38 1990.09 1619.48 1985.69 1584.59 1815.09 1714.51 1784.12 1738.97 1981.64 1709.27 2020.2 1639.65 2029.68" class="colorffb59c svgShape"></polyline></g><g fill="#000000" class="color000000 svgShape"><path fill="#6a9ed3" d="M1746.95,1983.67l1.73,56l0.26,8.43l1.04,33.98c0,0,11.36,21.33-0.61,33.06
												c-12,11.71-73.25,31.38-94.79,18.07c0,0-102.58,53.56-157.64,43.14c-54.77-10.33-64.31-43.31-59.56-58.91
												c-0.01-0.07,0.03-0.15,0.07-0.24c4.33-13.66,53.21-44.03,64.67-51c1.53-0.93,2.39-1.44,2.39-1.44s1.4-1.49,3.89-4.11
												c17.68-18.66,90.46-94.6,112.02-103.19c24.65-9.83,41.35,29.23,41.35,29.23s7.87-4.93,22.72-1.98
												c14.85,2.97,9.8,17.57,24.55,15.27c18.06-2.87,25.75-11.41,29.91-18.34C1741.18,1977.95,1746.83,1979.37,1746.95,1983.67
												z" class="color726ad3 svgShape"></path></g><g fill="#000000" class="color000000 svgShape"><path fill="#021b79" d="M1661.8,1986.7l-123.49,97.81c0,0-21.47-15.36-33.79-19.73c0,0,91.29-97.51,115.92-107.31
												C1645.07,1947.65,1661.8,1986.7,1661.8,1986.7z" class="color2e2780 svgShape"></path></g><g fill="#000000" class="color000000 svgShape"><g fill="#000000" class="color000000 svgShape"><path fill="#335eff" d="M1582.43,2137.57l-7.02,2.65c-18.98-50.02-64.34-70.42-73.29-74c1.53-0.93,2.39-1.44,2.39-1.44
													s1.4-1.49,3.89-4.11C1523.17,2067.16,1563.98,2088.88,1582.43,2137.57z" class="colorffce33 svgShape"></path></g></g><g fill="#000000" class="color000000 svgShape"><g fill="#000000" class="color000000 svgShape"><path fill="#335eff" d="M1748.69,2039.68l0.26,8.43c-16.25,9.35-44.73,30.72-39.91,63.38l-7.42,1.09
													C1695.76,2072.89,1731.93,2048.62,1748.69,2039.68z" class="colorffce33 svgShape"></path></g></g><g fill="#000000" class="color000000 svgShape"><path d="M1749.37,2115.15c-12,11.71-73.26,31.38-94.77,18.08c0,0-102.58,53.54-157.66,43.14
												c-54.76-10.35-64.32-43.33-59.56-58.91c26.53,67.99,166.61,12.14,197.17,3.28c31.26-9.06,115.42-38.64,115.42-38.64
												S1761.35,2103.43,1749.37,2115.15z" fill="#000000" class="color000000 svgShape"></path></g><g fill="#000000" class="color000000 svgShape"><path fill="#8294a6" d="M1793.69,1202.21c0,0-0.68,6.33-1.85,16.46c-2.61,23.28-7.63,66.72-12.28,100
												c-1.47,10.46-2.88,19.91-4.16,27.41c-0.81,4.67-1.58,8.58-2.25,11.52c-6.85,29.34-58.65,266.37-58.65,266.37
												c26.87,33.22,24.94,157.38,24.94,157.38c23.96,21,0.49,72.32,0.49,72.32s28.34,8.8,22.49,36.68
												c-5.9,27.82-136.43,62.43-166.18,54.55c-36.16-9.62-23.47-75.58-23.47-75.58c-30.78-16.63-21.52-103.13-21.52-103.13
												c-9.75-12.8-14.29-30.1-16.06-47.3c-3.37-32.74,3.37-65.09,3.37-65.09s-20-67.29-9.13-136.97
												c0.38-2.58,0.84-5.13,1.3-7.69c4.54-24.02,15.97-67.89,29.2-115.84c6-21.76,12.39-44.34,18.69-66.29
												c7.39-25.84,14.64-50.8,21.03-72.43c1.79-6.19,3.53-12.12,5.19-17.71c9.43-31.98,15.84-53.25,15.84-53.25l15.51,1.68
												l8.86,0.95l115.43,12.39L1793.69,1202.21z" class="color828da6 svgShape"></path></g><g fill="#000000" class="color000000 svgShape"><path d="M1762.42,1893.13c-0.19,0-0.38-0.02-0.58-0.06c-1.52-0.32-2.49-1.81-2.17-3.32
												c5.25-24.98-19.52-33.09-20.58-33.42c-0.77-0.24-1.4-0.8-1.72-1.54c-0.33-0.73-0.33-1.57,0.01-2.31
												c0.23-0.49,22.32-49.65,0.2-69.04c-0.62-0.54-0.97-1.33-0.96-2.15c0.02-1.23,1.63-123.51-24.29-155.56
												c-0.54-0.66-0.74-1.53-0.56-2.36l9.52-43.54c0.33-1.51,1.82-2.47,3.34-2.14c1.51,0.33,2.47,1.83,2.14,3.34l-9.24,42.26
												c25.19,33.54,24.86,143.05,24.71,156.84c20.83,19.87,5.94,60.96,1.39,72c7.49,3.32,26.65,14.37,21.52,38.79
												C1764.88,1892.23,1763.71,1893.13,1762.42,1893.13z" fill="#000000" class="color000000 svgShape"></path></g><g fill="#000000" class="color000000 svgShape"><path d="M1596.24,1947.68c-0.24,0-0.48-0.03-0.72-0.09c-35.06-9.3-27.72-65.4-25.84-76.86
												c-28.48-18.46-22.32-93.26-21.31-103.74c-26.79-36.49-14.29-105.01-12.69-113.1c-2.13-7.61-20.64-76.87-7.69-145.3
												c8.67-45.81,34.64-136.87,56.3-211.08c0.43-1.49,1.99-2.34,3.48-1.91c1.49,0.43,2.34,1.99,1.91,3.48
												c-21.62,74.09-47.55,164.98-56.17,210.55c-13.39,70.79,7.54,142.63,7.75,143.34c0.13,0.44,0.15,0.92,0.06,1.37
												c-0.15,0.74-15.04,74.45,12.19,110.14c0.44,0.57,0.64,1.29,0.56,2c-0.09,0.85-8.74,84.82,20.05,100.35
												c1.08,0.58,1.65,1.8,1.42,3c-0.12,0.63-11.79,63.52,21.42,72.33c1.5,0.4,2.39,1.93,1.99,3.43
												C1598.61,1946.85,1597.48,1947.68,1596.24,1947.68z" fill="#000000" class="color000000 svgShape"></path></g><g fill="#000000" class="color000000 svgShape"><path d="M1577.01,1874.03c-1.5,0-2.99-0.07-4.48-0.23c-1.54-0.16-2.66-1.53-2.51-3.07c0.15-1.54,1.5-2.66,3.07-2.51
												c11.16,1.13,22.85-2.64,31.25-10.1c1.16-1.03,2.93-0.92,3.96,0.23c1.03,1.16,0.92,2.93-0.23,3.96
												C1599.64,1869.8,1588.29,1874.03,1577.01,1874.03z" fill="#000000" class="color000000 svgShape"></path></g><g fill="#000000" class="color000000 svgShape"><path d="M1705.21,1870.43c-1.34,0-2.53-0.96-2.76-2.33c-0.26-1.53,0.76-2.98,2.29-3.24c12.5-2.15,24.68-7.01,35.22-14.05
												c1.28-0.86,3.03-0.51,3.89,0.77c0.86,1.29,0.51,3.03-0.77,3.89c-11.19,7.47-24.12,12.63-37.39,14.92
												C1705.53,1870.42,1705.37,1870.43,1705.21,1870.43z" fill="#000000" class="color000000 svgShape"></path></g><g fill="#000000" class="color000000 svgShape"><path d="M1704.35,1794.59c-1.36,0-2.55-0.99-2.77-2.37c-0.24-1.53,0.8-2.97,2.33-3.21c11.7-1.85,22.92-5.62,33.36-11.21
												c1.37-0.73,3.06-0.22,3.8,1.15c0.73,1.36,0.22,3.06-1.15,3.8c-10.99,5.89-22.82,9.86-35.13,11.81
												C1704.65,1794.58,1704.5,1794.59,1704.35,1794.59z" fill="#000000" class="color000000 svgShape"></path></g><g fill="#000000" class="color000000 svgShape"><path d="M1551.09,1770.6c-1.53,0-2.78-1.23-2.8-2.77c-0.02-1.55,1.22-2.82,2.77-2.84c9.5-0.11,19.11-2.19,27.81-6.01
												c1.42-0.62,3.07,0.02,3.7,1.44c0.62,1.42-0.02,3.07-1.44,3.69c-9.38,4.12-19.75,6.36-30,6.48
												C1551.11,1770.6,1551.1,1770.6,1551.09,1770.6z" fill="#000000" class="color000000 svgShape"></path></g></g></g></g></g></g><g fill="#000000" class="color000000 svgShape"><g fill="#000000" class="color000000 svgShape"><path fill="#324077" d="M1791.84,1218.67c-2.61,23.28-7.63,66.72-12.28,100c-1.47,10.46-2.88,19.91-4.16,27.41
								c-5.08-1.41-9.13-5.62-11.79-10.21c-2.93-5.05-4.59-10.76-7.09-16.03c-8.61-18.28-26.19-30.4-43.01-41.59
								c-12.66-8.48-25.7-17.09-40.56-20.4c-4.59-1.01-9.24-1.52-13.94-1.68c-10.46-0.41-21.05,0.79-31.57,1.17
								c-9.26,0.33-18.96-0.16-27.79-2.74c-5.65-1.66-10.95-4.16-15.57-7.88c-6.82-5.49-11.79-13.31-19.61-17.17
								c-11.63-5.73-25.37-1.03-38.33-0.41c-22.52,1.09-44.42-12.63-55.12-32.17c0-0.03-0.03-0.03-0.03-0.05
								c17.06-12.88,27.55-20.4,27.55-20.4h61.26l67.37-16.44c3.45,0.35,6.9,0.76,10.35,1.2l7.53,24.99l115.43,12.39
								c8.31,4.51,16.38,9.43,24.18,14.81C1787.09,1215.11,1789.48,1216.85,1791.84,1218.67z" class="color324e77 svgShape"></path></g><g fill="#000000" class="color000000 svgShape"><path fill="#6a9ed3" d="M1840.35,1022.5c-5.93,61.11-19.31,126.64-19.31,126.64s16.72,22.12,1.95,49.7
								c0,0,12.76,33.56-2.59,53.53c-4.39,5.75-11.12,10.35-21.18,12.71c-44.96,10.53-90.82-6.5-101.32-23.83
								c0,0-96.97,24.65-117.07-18.03c0,0-86.16-1.81-104.2-32.28c-24.24-40.96,36.16-50.79,36.16-50.79s-8.44-46.55,27.65-54.27
								c0,0,25.71-201.8,82.75-225.44c35.57-14.77,132.89,15.96,132.89,15.96s56.12,11.66,79.49,49.33
								C1845.05,941.03,1844.44,980.73,1840.35,1022.5z" class="color726ad3 svgShape"></path></g><g fill="#000000" class="color000000 svgShape"><path fill="#9ccdff" d="M1785.98,723.5L1774,853.16c0,0-82.6,33.2-82.62,33.44l-24.91-51.85l-0.37-3.18l2.59-16.68l4.05-26.07
								l2.8-18.14l2.79-17.8L1785.98,723.5z" class="colorffb59c svgShape"></path></g><g fill="#000000" class="color000000 svgShape"><path fill="#9ccdff" d="M1753.79,667.45c-7.62,21.71,13.4,58.58,13.4,58.58c1.92-15.62,21.93-23.26,21.93-23.26l2.76-38.05
								c-16.55-47.28-62.5-65.24-121.2-70.54c0,0-10.71,15.34-23.22,37.6C1695.1,652.16,1753.79,667.45,1753.79,667.45z" class="colorffb59c svgShape"></path></g><g fill="#000000" class="color000000 svgShape"><path fill="#9ccdff" d="M1656.2,646.72c0,0-19.14-29.64-41.46-5.63c-22.32,24.01,10.39,54.97,10.39,54.97L1656.2,646.72z" class="colorffb59c svgShape"></path></g><g fill="#000000" class="color000000 svgShape"><path fill="#74b3f3" d="M1655.38,654.25c0,0-15.32-23.73-33.2-4.5c-17.87,19.23,8.32,44.01,8.32,44.01L1655.38,654.25z" class="colorf39474 svgShape"></path></g><g fill="#000000" class="color000000 svgShape"><path fill="#9ccdff" d="M1630.1,787.56c65.88,40.95,141.13-31.85,141.13-31.85s44.68,11.32,49.34-24.84
								c3.39-26.51-31.45-28.09-31.45-28.09s-20.02,7.64-21.93,23.26c0,0-21.02-36.87-13.4-58.58c0,0-58.69-15.29-106.33-35.67
								C1620.48,679.67,1585.14,759.59,1630.1,787.56z" class="colorffb59c svgShape"></path></g><g fill="#000000" class="color000000 svgShape"><path d="M1674.06,802.97c-15.02,0-30.43-3.7-45.44-13.03c-1.32-0.82-1.72-2.55-0.9-3.86c0.82-1.31,2.55-1.72,3.86-0.9
								c39.63,24.64,82.86,7.19,112.15-11.79c1.3-0.84,3.04-0.47,3.88,0.83c0.84,1.3,0.47,3.04-0.83,3.88
								C1727.05,790.88,1701.21,802.97,1674.06,802.97z" fill="#000000" class="color000000 svgShape"></path></g><g fill="#000000" class="color000000 svgShape"><path d="M1753.79,667.45c-7.62,21.73,13.41,58.6,13.41,58.6c1.92-15.61,21.92-23.27,21.92-23.27s35.23,2.7,30.23,33.99
								c10.15-7.16,42.84-38.3,39.37-67.16c-1.73-14.4-6.25-28.57-14.28-40.71c-1.48-2.22-3.59-4.27-4.87-6.57
								c-2.24-4.06,1.26-8.41,1.94-12.9c1.45-9.91-1.72-20.42-7.74-28.36c-8.65-11.43-22.15-18.22-35.88-22.44
								c-12.83-3.99-26.56-6.03-39.78-3.63c-13.24,2.4-25.43,9.58-32.78,20.99c2.81-6.26-7.38-19-10.63-24.27
								c-5.33-8.65-11.63-16.84-19.75-23.06c-14.97-11.48-35.61-15.16-53.62-9.57c-18.02,5.59-32.94,20.31-38.79,38.24
								c-5.85,17.94-2.46,38.62,8.81,53.75c6.7,9.01,15.96,16.01,26.26,20.49c12.4,5.39,26.36,7.15,39.71,5
								c4.78-0.77,9.59-2.08,13.55-4.86c3.96-2.79,6.96-7.27,6.97-12.11c0.01-4.84-3.55-9.74-8.36-10.31
								c-5.34-0.64-10.19,4.12-11.29,9.38c-1.1,5.26,0.68,10.7,3.07,15.52c6.66,13.46,18.33,24.37,32.21,30.12
								s29.85,6.27,44.07,1.45" fill="#000000" class="color000000 svgShape"></path></g><g fill="#000000" class="color000000 svgShape"><path d="M1666.86,738.26c-0.23,0-0.46-0.03-0.68-0.08c-2.5-0.63-15.1-4.09-17.74-10.79c-2.39-6.07,11.59-31.17,20.13-45.59
								c0.79-1.33,2.51-1.77,3.84-0.98c1.33,0.79,1.77,2.51,0.98,3.84c-9.93,16.76-20.28,37.13-19.69,40.81
								c1.13,2.84,8.93,6.04,13.84,7.27c1.5,0.38,2.41,1.9,2.04,3.4C1669.26,737.41,1668.11,738.26,1666.86,738.26z" fill="#000000" class="color000000 svgShape"></path></g><g fill="#000000" class="color000000 svgShape"><ellipse cx="1645.48" cy="685.13" rx="8.32" ry="6.67" transform="rotate(-60.659 1645.498 685.166)" fill="#000000" class="color000000 svgShape"></ellipse></g><g fill="#000000" class="color000000 svgShape"><path d="M1660.58,681.98c-1.21,0-2.32-0.78-2.68-2c-3.29-10.98-13.03-10.25-13.44-10.22c-1.55,0.13-2.9-0.99-3.04-2.53
								c-0.15-1.54,0.97-2.9,2.5-3.05c5.07-0.51,15.63,1.8,19.35,14.19c0.44,1.48-0.4,3.05-1.88,3.49
								C1661.12,681.95,1660.84,681.98,1660.58,681.98z" fill="#000000" class="color000000 svgShape"></path></g><g fill="#000000" class="color000000 svgShape"><ellipse cx="1694.59" cy="705.87" rx="8.32" ry="6.67" transform="rotate(-60.659 1694.612 705.903)" fill="#000000" class="color000000 svgShape"></ellipse></g><g fill="#000000" class="color000000 svgShape"><path d="M1709.69,702.72c-1.21,0-2.32-0.78-2.68-2c-3.33-11.11-13.01-10.26-13.42-10.22c-1.56,0.16-2.92-0.97-3.07-2.51
								c-0.15-1.54,0.97-2.92,2.51-3.07c5.07-0.51,15.63,1.8,19.35,14.19c0.44,1.48-0.4,3.05-1.88,3.49
								C1710.23,702.68,1709.96,702.72,1709.69,702.72z" fill="#000000" class="color000000 svgShape"></path></g><g fill="#000000" class="color000000 svgShape"><path d="M1669.19,766.08c-4.42,0-9.33-1.06-14.6-3.8c-1.37-0.71-1.91-2.41-1.19-3.78c0.71-1.37,2.41-1.91,3.78-1.19
								c18.83,9.8,31.57-6.16,32.1-6.84c0.95-1.22,2.71-1.44,3.93-0.5c1.22,0.95,1.45,2.7,0.51,3.93
								C1693.59,754.05,1684.1,766.08,1669.19,766.08z" fill="#000000" class="color000000 svgShape"></path></g><g fill="#000000" class="color000000 svgShape"><path fill="#74b3f3" d="M1773.62,726.44c-3.06,11.04,4.95,22.44,17.19,22.36c5.63-0.04,10.85-2.88,14.72-7.03
								c11.19-12.01,3.17-22.54-7.38-26.71C1788.19,711.13,1776.51,716.01,1773.62,726.44z" class="colorf39474 svgShape"></path></g><g fill="#000000" class="color000000 svgShape"><path d="M1770.29,1271.2c-34.42,0-63.81-13.35-73.63-26.76c-14.13,3.33-96.74,20.89-117.59-18.47
								c-12.63-0.43-87.45-4.21-104.85-33.61c-6.63-11.19-7.89-21.34-3.77-30.16c7.59-16.23,31.17-22.57,39.21-24.3
								c-1.13-10.28-2.74-46.23,28.26-54.3c1.72-12.6,12.04-84.36,31.71-143.36c0.49-1.47,2.07-2.26,3.55-1.77
								c1.47,0.49,2.26,2.08,1.77,3.55c-21.36,64.08-31.62,143.43-31.72,144.23c-0.15,1.18-1.03,2.14-2.2,2.39
								c-32.99,7.06-25.8,49.24-25.48,51.03c0.13,0.74-0.04,1.5-0.47,2.12c-0.43,0.61-1.1,1.03-1.84,1.15
								c-0.3,0.05-29.97,5.09-37.72,21.67c-3.29,7.04-2.11,15.43,3.52,24.92c17.04,28.78,101,30.89,101.84,30.91
								c1.07,0.02,2.02,0.65,2.48,1.61c18.88,40.11,112.9,16.75,113.84,16.51c1.2-0.3,2.45,0.21,3.09,1.27
								c9.62,15.89,53.72,32.99,98.28,22.55c1.5-0.36,3.02,0.58,3.37,2.09c0.35,1.51-0.58,3.02-2.09,3.37
								C1789.82,1270.17,1779.86,1271.2,1770.29,1271.2z" fill="#000000" class="color000000 svgShape"></path></g><g fill="#000000" class="color000000 svgShape"><path fill="#0575e6" d="M1822.99,1198.84c0,0,12.76,33.56-2.59,53.53c-9.83-16.39-11.95-37.18-11.45-56.67
								c0.57-23.39,4.04-47.19-1.46-69.93c-6.7-27.6-26.24-51.54-28.86-79.81c-1.02-11.14,0.22-51.28,16.09-51.08
								c8.42,0.12,18.83,8.44,25.65,12.73c7.02,4.42,13.82,9.3,19.98,14.87c-5.93,61.11-19.31,126.64-19.31,126.64
								S1837.76,1171.26,1822.99,1198.84z" class="color554dae svgShape"></path></g><g fill="#000000" class="color000000 svgShape"><path d="M1804.66,1153.82c-0.52,0-1.04-0.01-1.57-0.03c-7.31-0.24-13.69-2.29-18.45-5.95c-1.23-0.94-1.46-2.7-0.52-3.93
								c0.94-1.23,2.71-1.46,3.93-0.52c4.83,3.71,10.95,4.65,15.22,4.79c5.71,0.19,11.58-0.85,17.25-1.85
								c1.52-0.27,2.98,0.75,3.25,2.27c0.27,1.53-0.75,2.98-2.27,3.25C1816.04,1152.83,1810.42,1153.82,1804.66,1153.82z" fill="#000000" class="color000000 svgShape"></path></g><g fill="#000000" class="color000000 svgShape"><path d="M1809.88,1204.61c-6.06,0-12.13-1.21-17.71-3.61c-1.42-0.61-2.08-2.26-1.47-3.68c0.61-1.42,2.26-2.08,3.68-1.47
								c8.97,3.86,19.39,4.2,28.59,0.91c1.45-0.52,3.06,0.24,3.58,1.7c0.52,1.46-0.24,3.06-1.7,3.58
								C1820.07,1203.76,1814.97,1204.61,1809.88,1204.61z" fill="#000000" class="color000000 svgShape"></path></g><g fill="#000000" class="color000000 svgShape"><polygon fill="#ffffff" points="1665.61 832.04 1691.38 886.6 1654.9 910.23 1634.62 856.87" class="colorffffff svgShape"></polygon><path d="M1654.9,913.03c-0.29,0-0.59-0.05-0.87-0.14c-0.81-0.26-1.45-0.88-1.75-1.67L1632,857.87
								c-0.43-1.14-0.08-2.42,0.87-3.18l30.98-24.83c0.67-0.54,1.55-0.74,2.38-0.54c0.84,0.19,1.54,0.76,1.9,1.53l25.77,54.56
								c0.6,1.27,0.17,2.79-1.01,3.55l-36.48,23.63C1655.96,912.88,1655.43,913.03,1654.9,913.03z M1637.97,857.78l18.32,48.21
								l31.51-20.41l-23.21-49.13L1637.97,857.78z" fill="#000000" class="color000000 svgShape"></path></g><g fill="#000000" class="color000000 svgShape"><polygon fill="#ffffff" points="1691.38 886.6 1709.07 930.93 1782.94 886.33 1773.99 853.16" class="colorffffff svgShape"></polygon><path d="M1709.07,933.73c-0.3,0-0.6-0.05-0.89-0.15c-0.78-0.26-1.41-0.85-1.71-1.62l-17.69-44.33
								c-0.57-1.43,0.12-3.06,1.55-3.64l82.61-33.44c0.74-0.3,1.58-0.27,2.3,0.09c0.72,0.36,1.25,1.01,1.46,1.78l8.95,33.18
								c0.33,1.21-0.19,2.48-1.26,3.13l-73.87,44.59C1710.07,933.6,1709.57,933.73,1709.07,933.73z M1695.02,888.15l15.43,38.67
								l69.23-41.8l-7.58-28.08L1695.02,888.15z" fill="#000000" class="color000000 svgShape"></path></g></g><g fill="#000000" class="color000000 svgShape"><path d="M1579.02,1225.09c-1.33,0-2.52-0.95-2.76-2.31c-0.27-1.52,0.74-2.98,2.27-3.25c10.21-1.82,19.35-9.62,22.76-19.41
							c0.51-1.46,2.11-2.24,3.57-1.73c1.46,0.51,2.24,2.11,1.73,3.57c-4.11,11.83-14.74,20.9-27.07,23.09
							C1579.35,1225.08,1579.18,1225.09,1579.02,1225.09z" fill="#000000" class="color000000 svgShape"></path></g><g fill="#000000" class="color000000 svgShape"><path d="M1700.14,1244.59c-0.77,0-1.55-0.32-2.1-0.95c-1.03-1.16-0.92-2.93,0.24-3.96c6.89-6.1,10.97-15.23,10.93-24.43
							c-0.01-1.55,1.24-2.81,2.79-2.82c1.51,0.01,2.81,1.24,2.82,2.79c0.05,10.79-4.74,21.5-12.82,28.65
							C1701.47,1244.36,1700.8,1244.59,1700.14,1244.59z" fill="#000000" class="color000000 svgShape"></path></g><g fill="#000000" class="color000000 svgShape"><g fill="#000000" class="color000000 svgShape"><g fill="#000000" class="color000000 svgShape"><g fill="#000000" class="color000000 svgShape"><path fill="#9ccdff" d="M2293.94,1377.8l101.09,348.09c8.37,28.81-8.21,58.97-37.03,67.34l-549.79,159.67
										c-18.51,5.38-37.57,0.46-51.03-11.37c-7.55-6.6-13.34-15.35-16.33-25.65l-101.09-348.09
										c-8.37-28.83,8.21-58.99,37.04-67.36l549.79-159.67C2255.41,1332.38,2285.57,1348.97,2293.94,1377.8z" class="colorff9c9c svgShape"></path></g><g fill="#000000" class="color000000 svgShape"><path fill="#5d7ef9" d="M2293.94,1377.8l101.09,348.09c8.37,28.81-8.21,58.97-37.03,67.34l-549.79,159.67
										c-18.51,5.38-37.57,0.46-51.03-11.37c151.96-41.16,441.49-123.01,543.5-175.41c125.59-64.53-52.04-357.45-92.01-420.16
										l17.92-5.21C2255.41,1332.38,2285.57,1348.97,2293.94,1377.8z" class="colorf95d5d svgShape"></path></g><g fill="#000000" class="color000000 svgShape"><rect width="681.21" height="105.6" x="1644.93" y="1484.34" transform="rotate(-16.199 1985.344 1537.23)" fill="#000000" class="color000000 svgShape"></rect></g><g fill="#000000" class="color000000 svgShape"><path d="M1792.96,1957.89c-9.5,0-18.9-2.39-27.46-7.1c-13.38-7.35-23.09-19.48-27.35-34.13l-101.09-348.09
										c-4.26-14.66-2.55-30.11,4.8-43.49c7.36-13.38,19.48-23.09,34.15-27.35l549.79-159.67c14.65-4.26,30.09-2.55,43.47,4.81
										c13.38,7.36,23.09,19.49,27.35,34.15l101.09,348.09c8.79,30.26-8.68,62.03-38.94,70.81l-549.79,159.67
										C1803.71,1957.13,1798.32,1957.89,1792.96,1957.89z M2241.82,1341.38c-4.82,0-9.68,0.68-14.44,2.07l-549.79,159.67
										c-13.23,3.84-24.16,12.6-30.8,24.67c-6.63,12.07-8.17,26-4.33,39.22l101.09,348.09c3.84,13.22,12.6,24.15,24.66,30.78
										c12.06,6.63,25.99,8.17,39.22,4.33l549.79-159.67c27.29-7.93,43.04-36.58,35.12-63.87l-101.09-348.09l0,0
										c-3.84-13.22-12.6-24.16-24.67-30.8C2258.87,1343.54,2250.39,1341.38,2241.82,1341.38z" fill="#000000" class="color000000 svgShape"></path></g><g fill="#000000" class="color000000 svgShape"><g fill="#000000" class="color000000 svgShape"><path fill="#335eff" d="M1896.75,1715.72l29.79,102.58c4.02,13.84-3.97,28.36-17.8,32.37l-102.58,29.79
											c-13.86,4.03-28.38-3.96-32.4-17.79l-29.79-102.58c-4.03-13.86,3.96-28.38,17.82-32.41l102.58-29.79
											C1878.2,1693.87,1892.72,1701.86,1896.75,1715.72z" class="colorffce33 svgShape"></path></g></g><g fill="#000000" class="color000000 svgShape"><path fill="#315bf7" d="M1896.74,1715.71l29.79,102.59c4.02,13.83-3.97,28.34-17.79,32.36l-102.59,29.79
										c-11.95,3.47-24.39-1.99-30.14-12.44l48.77-14.16c45.09-13.09,71.05-60.27,57.95-105.39l-14.9-51.32
										C1880.53,1695.24,1893.05,1703.01,1896.74,1715.71z" class="colorf7a731 svgShape"></path></g><g fill="#000000" class="color000000 svgShape"><path d="M1798.87,1884.31c-12.55,0-24.14-8.23-27.81-20.86l-29.79-102.58c-2.16-7.42-1.29-15.25,2.44-22.03
										s9.87-11.7,17.29-13.86l102.58-29.79c7.41-2.15,15.23-1.28,22,2.44c6.78,3.73,11.7,9.87,13.85,17.29l29.79,102.58
										c4.45,15.32-4.4,31.4-19.71,35.85l-102.58,29.79C1804.25,1883.94,1801.54,1884.31,1798.87,1884.31z M1871.67,1699.65
										c-2.18,0-4.37,0.31-6.52,0.93l-102.58,29.79c-5.99,1.74-10.94,5.71-13.94,11.17c-3.01,5.47-3.7,11.77-1.96,17.76
										l29.79,102.58c3.59,12.35,16.56,19.47,28.93,15.88l102.58-29.79c12.35-3.59,19.48-16.55,15.89-28.9l-29.79-102.58l0,0
										c-1.74-5.98-5.7-10.94-11.17-13.95C1879.39,1700.63,1875.55,1699.65,1871.67,1699.65z" fill="#000000" class="color000000 svgShape"></path></g><g fill="#000000" class="color000000 svgShape"><path d="M1838.15,1791.14c-0.47,0-0.93-0.12-1.35-0.35c-0.65-0.36-1.13-0.96-1.34-1.68l-22.18-76.39
										c-0.43-1.49,0.42-3.04,1.91-3.47c1.49-0.43,3.04,0.42,3.47,1.91l21.4,73.7l70.8-20.56c1.49-0.43,3.04,0.42,3.47,1.91
										c0.43,1.49-0.42,3.04-1.91,3.47l-73.49,21.34C1838.67,1791.11,1838.41,1791.14,1838.15,1791.14z" fill="#000000" class="color000000 svgShape"></path></g><g fill="#000000" class="color000000 svgShape"><path d="M1860.33,1867.53c-1.22,0-2.34-0.8-2.69-2.02l-22.19-76.39c-0.43-1.49,0.42-3.04,1.91-3.47
										c1.49-0.43,3.04,0.42,3.47,1.91l22.19,76.39c0.43,1.49-0.42,3.04-1.91,3.47
										C1860.85,1867.5,1860.59,1867.53,1860.33,1867.53z" fill="#000000" class="color000000 svgShape"></path></g><g fill="#000000" class="color000000 svgShape"><path d="M1849.24,1829.34c-1.22,0-2.34-0.8-2.69-2.02c-0.43-1.49,0.42-3.04,1.91-3.47l73.49-21.34
										c1.49-0.43,3.04,0.42,3.47,1.91s-0.42,3.04-1.91,3.47l-73.49,21.34C1849.76,1829.3,1849.5,1829.34,1849.24,1829.34z" fill="#000000" class="color000000 svgShape"></path></g><g fill="#000000" class="color000000 svgShape"><path d="M1750.78,1786.35c-1.22,0-2.34-0.8-2.69-2.02c-0.43-1.49,0.42-3.04,1.91-3.47l79.29-23.03
										c1.49-0.43,3.04,0.42,3.47,1.91c0.43,1.49-0.42,3.04-1.91,3.47l-79.29,23.03
										C1751.3,1786.32,1751.04,1786.35,1750.78,1786.35z" fill="#000000" class="color000000 svgShape"></path></g><g fill="#000000" class="color000000 svgShape"><path fill="#ffffff" d="M2308.52,1584.89l11.1,38.24c2.37,8.15-2.31,16.69-10.46,19.05l-262.57,76.25
										c-8.15,2.37-16.67-2.34-19.04-10.49l-11.1-38.24c-2.37-8.15,2.32-16.67,10.47-19.03l262.57-76.25
										C2297.64,1572.06,2306.16,1576.74,2308.52,1584.89z" class="colorffffff svgShape"></path><path d="M2042.33,1721.85c-7.88,0-15.15-5.18-17.46-13.12l-11.1-38.24c-2.79-9.62,2.76-19.72,12.38-22.51l262.57-76.25
										c4.66-1.35,9.57-0.81,13.82,1.53c4.25,2.34,7.34,6.19,8.69,10.85l11.1,38.24c1.35,4.66,0.81,9.57-1.52,13.83
										c-2.34,4.26-6.19,7.35-10.85,8.7l-262.57,76.25C2045.7,1721.62,2044,1721.85,2042.33,1721.85z M2293.79,1576.61
										c-1.18,0-2.36,0.17-3.52,0.5l-262.57,76.25c-6.65,1.93-10.49,8.91-8.56,15.56l11.1,38.24c1.93,6.66,8.92,10.51,15.57,8.58
										l262.57-76.25c3.22-0.94,5.88-3.07,7.5-6.02c1.62-2.94,1.99-6.34,1.05-9.56l-11.1-38.24l0,0c-0.94-3.22-3.07-5.89-6.01-7.5
										C2297.94,1577.14,2295.88,1576.61,2293.79,1576.61z" fill="#000000" class="color000000 svgShape"></path></g><g fill="#000000" class="color000000 svgShape"><rect width="232.74" height="13.02" x="1706.87" y="1562.58" fill="#ffffff" transform="rotate(-16.199 1823.047 1569.166)" class="colorffffff svgShape"></rect></g><g fill="#000000" class="color000000 svgShape"><rect width="56.25" height="13.02" x="1933.47" y="1552.77" fill="#ffffff" transform="rotate(-16.199 1961.398 1559.366)" class="colorffffff svgShape"></rect></g><g fill="#000000" class="color000000 svgShape"><rect width="52.04" height="13.02" x="2028.96" y="1525.65" fill="#ffffff" transform="rotate(-16.199 2054.783 1532.253)" class="colorffffff svgShape"></rect></g><g fill="#000000" class="color000000 svgShape"><line x1="2332.78" x2="2116.73" y1="1668.4" y2="1731.14" fill="#dbefa2"></line><path d="M2116.72,1733.95c-1.22,0-2.34-0.8-2.69-2.02c-0.43-1.49,0.42-3.04,1.91-3.47l216.05-62.74
										c1.49-0.43,3.04,0.42,3.47,1.91c0.43,1.49-0.42,3.04-1.91,3.47l-216.05,62.74
										C2117.25,1733.91,2116.98,1733.95,2116.72,1733.95z" fill="#000000" class="color000000 svgShape"></path></g><g fill="#000000" class="color000000 svgShape"><line x1="2340.76" x2="2182.73" y1="1695.91" y2="1741.8" fill="#dbefa2"></line><path d="M2182.73,1744.61c-1.22,0-2.34-0.8-2.69-2.02c-0.43-1.49,0.42-3.04,1.91-3.47l158.03-45.9
										c1.48-0.43,3.04,0.42,3.47,1.91c0.43,1.49-0.42,3.04-1.91,3.47l-158.03,45.9
										C2183.25,1744.57,2182.99,1744.61,2182.73,1744.61z" fill="#000000" class="color000000 svgShape"></path></g><g fill="#000000" class="color000000 svgShape"><line x1="2348.75" x2="2237.23" y1="1723.41" y2="1755.8" fill="#dbefa2"></line><path d="M2237.23,1758.6c-1.22,0-2.34-0.8-2.69-2.02c-0.43-1.49,0.42-3.04,1.91-3.47l111.52-32.39
										c1.49-0.43,3.04,0.42,3.47,1.91c0.43,1.49-0.42,3.04-1.91,3.47l-111.52,32.39
										C2237.75,1758.57,2237.49,1758.6,2237.23,1758.6z" fill="#000000" class="color000000 svgShape"></path></g></g><g fill="#000000" class="color000000 svgShape"><g fill="#000000" class="color000000 svgShape"><g fill="#000000" class="color000000 svgShape"><path fill="#9ccdff" d="M1926.56,1314l5.59,29.67c0,0-1.01,57.57-1.99,65.8c-0.04,0.29-0.06,0.61-0.06,0.94
											c-0.27,13.62,18.12,18.49,25.25,6.89l0.73-1.18c0,0,21.45,70.65,27.42,76.05c5.97,5.4,22.35,4.58,23.86-15.33
											s-10.52-53.39-10.52-53.39s23.64,62.21,34.95,60.27s12.29-32.31,12.29-32.31s13.09,1.85,19.12-14.41
											s-14.07-87.55-24.98-100.46c-10.91-12.91-39.09-60.98-39.09-60.98L1926.56,1314z" class="colorffb59c svgShape"></path></g></g><g fill="#000000" class="color000000 svgShape"><path d="M1983.46,1494.96c-0.66,0-1.32-0.24-1.85-0.72c-6.23-5.64-24.6-65.39-28.22-77.31c-0.45-1.48,0.39-3.05,1.87-3.5
										c1.47-0.45,3.05,0.39,3.5,1.87c10.39,34.23,23.19,71.56,26.62,74.79c1.12,1.05,1.2,2.83,0.16,3.96
										C1984.98,1494.65,1984.22,1494.96,1983.46,1494.96z" fill="#000000" class="color000000 svgShape"></path></g><g fill="#000000" class="color000000 svgShape"><path d="M1996.83,1426.24c-1.24,0-2.37-0.83-2.71-2.08c-2.01-7.52-8.48-28.37-14.22-34.46c-1.06-1.13-1.01-2.9,0.12-3.96
										c1.13-1.06,2.9-1.01,3.96,0.12c7.89,8.37,15.25,35.7,15.56,36.86c0.4,1.5-0.49,3.03-1.99,3.43
										C1997.31,1426.21,1997.07,1426.24,1996.83,1426.24z" fill="#000000" class="color000000 svgShape"></path></g><g fill="#000000" class="color000000 svgShape"><path d="M2044.06,1454.2c-0.31,0-0.61-0.05-0.92-0.16c-0.99-0.34-1.67-1.19-1.84-2.15c-0.21-0.65-1.75-4.87-12.55-27.24
										c-0.67-1.39-0.09-3.07,1.31-3.74c1.39-0.67,3.07-0.09,3.74,1.31c13.58,28.15,13.34,28.84,12.91,30.1
										C2046.31,1453.47,2045.22,1454.2,2044.06,1454.2z" fill="#000000" class="color000000 svgShape"></path></g></g><g fill="#000000" class="color000000 svgShape"><g fill="#000000" class="color000000 svgShape"><path fill="#6a9ed3" d="M1809.07,900.1c0,0,45.68,25.26,90.75,77.8c26.46,30.85,90.7,166.8,90.7,166.8
										s22.18,24.35,22.65,57.81c0,0,18.22,28.49,11.13,54.4c0,0,30.13,75.55,16.4,95.11c-13.74,19.56-109.41,46.66-122.6,21.45
										c-13.19-25.21-0.2-51.24-0.2-51.24s-23.66-19.88-24.57-46.71c0,0-22.05-88.12-29.88-97.61
										c-7.83-9.48-69.47-100.59-81.39-145.68C1768.68,981.62,1809.07,900.1,1809.07,900.1z" class="color726ad3 svgShape"></path></g></g><g fill="#000000" class="color000000 svgShape"><path d="M2040.69,1354.82c-0.56,0-1.12-0.16-1.61-0.51c-1.27-0.89-1.57-2.64-0.68-3.91c10.55-15.02-8.48-71.84-16.7-92.46
									c-0.23-0.57-0.26-1.19-0.1-1.78c6.67-24.38-10.61-51.87-10.79-52.15c-0.28-0.44-0.43-0.95-0.44-1.47
									c-0.45-31.95-21.71-55.72-21.92-55.96c-1.04-1.15-0.96-2.92,0.19-3.96c1.14-1.04,2.92-0.96,3.96,0.19
									c0.93,1.02,22.56,25.15,23.37,58.87c2.8,4.62,17.48,30.46,11.29,55.04c4.37,11.11,29.52,77.28,15.74,96.9
									C2042.44,1354.41,2041.57,1354.82,2040.69,1354.82z" fill="#000000" class="color000000 svgShape"></path></g><g fill="#000000" class="color000000 svgShape"><path d="M1918.1,1376.27c-1.01,0-1.99-0.55-2.49-1.5c-11.73-22.42-3.93-45.08-1.11-51.82
									c-5.48-5.11-23.02-23.26-23.97-47.03c-8.81-35.19-23.82-89.64-29.25-96.22c-7.07-8.57-69.64-100.23-81.94-146.75
									c-4.48-16.94-3.6-38.89,2.61-65.24c0.35-1.51,1.86-2.44,3.37-2.09c1.51,0.36,2.44,1.86,2.09,3.37
									c-6,25.45-6.89,46.48-2.65,62.53c11.84,44.81,74.13,136.48,80.84,144.61c8,9.69,28.16,89.63,30.44,98.71
									c0.05,0.19,0.08,0.39,0.08,0.58c0.86,25.22,23.35,44.47,23.58,44.66c0.99,0.83,1.28,2.24,0.71,3.39
									c-0.12,0.25-12.17,25.11,0.17,48.69c0.72,1.37,0.19,3.07-1.19,3.78C1918.98,1376.17,1918.54,1376.27,1918.1,1376.27z" fill="#000000" class="color000000 svgShape"></path></g></g><g fill="#000000" class="color000000 svgShape"><path d="M1990.14,1218.21c-0.26,0-0.51,0-0.77-0.01c-1.55-0.05-2.77-1.34-2.72-2.89c0.05-1.55,1.3-2.73,2.89-2.72
								c8.2,0.23,16.45-4.36,20.55-11.45c0.77-1.34,2.49-1.8,3.83-1.03c1.34,0.77,1.8,2.49,1.02,3.83
								C2009.96,1212.55,2000.07,1218.21,1990.14,1218.21z" fill="#000000" class="color000000 svgShape"></path></g><g fill="#000000" class="color000000 svgShape"><path d="M2004.37,1269.89c-1.37,0-2.57-1.01-2.77-2.41c-0.22-1.53,0.85-2.95,2.38-3.17c7.18-1.01,14.19-4.13,19.76-8.78
								c1.19-0.99,2.96-0.83,3.95,0.35c0.99,1.19,0.83,2.96-0.35,3.95c-6.45,5.38-14.25,8.85-22.57,10.03
								C2004.63,1269.88,2004.5,1269.89,2004.37,1269.89z" fill="#000000" class="color000000 svgShape"></path></g><g fill="#000000" class="color000000 svgShape"><path d="M1916.86,1327.08c-1.22,0-2.35-0.81-2.7-2.04c-0.42-1.49,0.44-3.04,1.93-3.46l18.67-5.3
								c1.5-0.42,3.04,0.44,3.46,1.93c0.42,1.49-0.44,3.04-1.93,3.46l-18.67,5.3C1917.37,1327.05,1917.11,1327.08,1916.86,1327.08z" fill="#000000" class="color000000 svgShape"></path></g><g fill="#000000" class="color000000 svgShape"><path d="M1893.92,1283.79c-1.44,0-2.66-1.1-2.79-2.55c-0.14-1.54,1-2.9,2.54-3.04l19.61-1.75c1.53-0.14,2.9,1,3.04,2.54
								c0.14,1.54-1,2.9-2.54,3.04l-19.61,1.75C1894.08,1283.78,1894,1283.79,1893.92,1283.79z" fill="#000000" class="color000000 svgShape"></path></g></g><g fill="#000000" class="color000000 svgShape"><path d="M1563.69,1100.71c-0.16,0-0.32-0.01-0.48-0.04c-8.75-1.51-17.21-5.61-23.81-11.55c-1.15-1.04-1.24-2.81-0.21-3.96
							c1.03-1.15,2.81-1.25,3.96-0.21c5.83,5.24,13.29,8.86,21.01,10.19c1.53,0.26,2.55,1.71,2.29,3.24
							C1566.22,1099.74,1565.03,1100.71,1563.69,1100.71z" fill="#000000" class="color000000 svgShape"></path></g><g fill="#000000" class="color000000 svgShape"><path d="M1544.66,1158.74c-0.01,0-0.03,0-0.04,0c-13.94-0.18-27.55-6.73-36.4-17.5c-0.98-1.2-0.81-2.96,0.39-3.95
							c1.2-0.98,2.97-0.81,3.95,0.39c7.81,9.52,19.83,15.29,32.14,15.45c1.55,0.02,2.79,1.29,2.77,2.84
							C1547.44,1157.5,1546.19,1158.74,1544.66,1158.74z" fill="#000000" class="color000000 svgShape"></path></g></g><g fill="#000000" class="color000000 svgShape"><path fill="#9ccdff" d="M942.75,1279.38l-291.77,24.03c-5.35,0.44-10.04-3.54-10.48-8.89l-8.11-98.52
						c-0.44-5.35,3.54-10.04,8.89-10.48l291.77-24.03c5.35-0.44,10.04,3.54,10.48,8.89l8.11,98.52
						C952.07,1274.25,948.1,1278.94,942.75,1279.38z" class="colorff9c9c svgShape"></path><path d="M666.16,1304.87c-7.1,0-13.9-2.49-19.38-7.13c-6.12-5.19-9.86-12.45-10.52-20.45l-5.24-63.58
						c-1.36-16.51,10.97-31.05,27.48-32.41l256.83-21.15c8-0.66,15.78,1.84,21.9,7.03c6.12,5.19,9.86,12.45,10.52,20.45l5.24,63.58
						c1.36,16.51-10.97,31.05-27.48,32.41l-256.83,21.15C667.83,1304.83,666.99,1304.87,666.16,1304.87z M917.85,1165.64
						c-0.68,0-1.36,0.03-2.05,0.08l-256.83,21.15c-13.43,1.11-23.46,12.93-22.35,26.37l5.24,63.58c0.54,6.51,3.57,12.41,8.55,16.64
						c4.98,4.22,11.31,6.25,17.81,5.72l256.83-21.15c13.43-1.11,23.46-12.93,22.35-26.37l-5.24-63.58
						c-0.54-6.51-3.57-12.41-8.55-16.64C929.16,1167.67,923.62,1165.64,917.85,1165.64z" fill="#000000" class="color000000 svgShape"></path></g><g fill="#000000" class="color000000 svgShape"><g fill="#000000" class="color000000 svgShape"><path fill="#ffffff" d="M736.67,1245.23c-0.48,0.04-1.66,0.04-3.55-0.01c0.16,3.97,0.61,10.48,1.35,19.53
							c0.12,1.5-0.29,2.83-1.23,3.99c-0.95,1.16-2.22,1.8-3.81,1.94c-1.59,0.13-2.96-0.3-4.1-1.28c-1.14-0.99-1.77-2.23-1.89-3.73
							l-0.97-11.83c-0.36-4.38-0.62-10.89-0.76-19.53c-0.19-8.78-0.44-15.32-0.77-19.62c-0.58-7.35,1.17-11.04,5.26-11.06
							c0.93-0.33,2.23-0.63,3.9-0.9c1.67-0.27,3.71-0.5,6.11-0.7c5.48-0.45,10.78,0.92,15.89,4.11c5.67,3.57,8.75,8.24,9.22,14.01
							c0.6,7.24-1.77,13.22-7.1,17.96C749.48,1242.28,743.64,1244.66,736.67,1245.23z M736.13,1213.04
							c-0.9,0.07-1.68,0.15-2.37,0.22c-0.68,0.07-1.26,0.15-1.73,0.25c0.11,1.33,0.26,3.32,0.45,5.98c0.2,3.14,0.34,8.06,0.41,14.74
							c1.45,0.11,2.41,0.14,2.88,0.1c4.36-0.36,7.9-1.7,10.61-4.03c2.89-2.49,4.19-5.57,3.89-9.24c-0.2-2.4-1.82-4.42-4.85-6.05
							C742.5,1213.43,739.41,1212.77,736.13,1213.04z" class="colorffffff svgShape"></path></g><g fill="#000000" class="color000000 svgShape"><path fill="#ffffff" d="M819.64,1263.5c-2.22,0.1-4.66-2.35-7.32-7.34c-1.76-3.21-3.35-6.95-4.77-11.22
							c-2.05,0.48-5.4,1.07-10.08,1.77c-4.4,0.68-7.75,1.32-10.06,1.94c-1.03,3.22-2.88,8.08-5.56,14.59
							c-1.06,2.14-2.69,3.3-4.87,3.47c-1.54,0.13-2.97-0.29-4.29-1.25c-1.32-0.96-2.05-2.26-2.18-3.9
							c-0.12-1.44,1.52-6.5,4.92-15.18c-0.46-0.84-0.7-1.65-0.71-2.42c0-1.37,1.27-2.54,3.81-3.52c3.4-7.28,7.23-14.85,11.48-22.72
							c6.11-11.29,9.98-17,11.6-17.14c3.08-0.25,5.29,1.46,6.63,5.13c0.81,2.98,2.06,7.44,3.77,13.39c2.38,8,5.23,17.14,8.55,27.43
							c0.26,0.78,1.13,2.58,2.6,5.42c1.21,2.35,1.86,4.13,1.96,5.35c0.14,1.64-0.36,3.06-1.49,4.26
							C822.52,1262.79,821.18,1263.43,819.64,1263.5z M800.4,1221.28c-1.87,3.97-4.45,9.38-7.75,16.22
							c1.24-0.39,3.18-0.77,5.82-1.16c3.12-0.46,5.08-0.77,5.88-0.95C803.38,1231.77,802.06,1227.07,800.4,1221.28z" class="colorffffff svgShape"></path></g><g fill="#000000" class="color000000 svgShape"><path fill="#ffffff" d="M876.29,1204.87c-1.18,3.09-3.52,9.74-7.02,19.96c-2.9,8.55-5.42,15.28-7.55,20.17
							c-3.69,8.5-5.68,13.01-5.94,13.51c-1.45,2.6-3.25,3.98-5.4,4.16c-1.54,0.13-2.94-0.27-4.2-1.19
							c-1.38-1.03-2.14-2.37-2.28-4.04c-0.11-1.38,2.33-7.45,7.33-18.19c-2.41-2.96-5.9-7.47-10.45-13.53
							c-3.41-4.44-8.43-11.16-15.05-20.15c-0.64-0.91-1-1.9-1.09-2.94c-0.14-1.64,0.38-3.08,1.55-4.31
							c1.09-1.14,2.42-1.78,3.98-1.91c1.85-0.15,3.6,0.66,5.27,2.43l3.57,4.83c0.22,0.32,2.97,4.25,8.24,11.79
							c3.33,4.82,6.23,8.61,8.71,11.36c1.77-4.5,4.29-11.3,7.57-20.39c0.68-2.02,1.69-5.08,3.05-9.17c0.85-2.63,2.57-4.05,5.14-4.27
							c1.54-0.13,2.94,0.27,4.2,1.19c1.38,1,2.14,2.33,2.27,4C878.27,1199.14,877.63,1201.37,876.29,1204.87z" class="colorffffff svgShape"></path></g></g><g fill="#000000" class="color000000 svgShape"><g fill="#000000" class="color000000 svgShape"><path d="M492.82,1131.57c-1.44,0-2.66-1.1-2.79-2.56c-0.13-1.54,1.01-2.9,2.55-3.04L609,1115.9c1.54-0.13,2.9,1.01,3.04,2.55
							c0.13,1.54-1.01,2.9-2.55,3.04l-116.42,10.07C492.98,1131.56,492.9,1131.57,492.82,1131.57z" fill="#000000" class="color000000 svgShape"></path></g><g fill="#000000" class="color000000 svgShape"><g fill="#000000" class="color000000 svgShape"><path fill="#8294a6" d="M573.76,1059.08c-3.6,1.18-7.87,2.32-12.8,3.43c9.26,9.85,14.01,16.72,14.24,20.6
								c0.18,3.02-0.68,5.68-2.58,7.98c-1.9,2.3-4.18,3.57-6.81,3.8c-2.79,0.24-5.74-1.27-8.84-4.53c-2.32-2.9-4.63-5.76-6.94-8.6
								c-2.2-2.66-4.14-4.81-5.82-6.47c-9.79,12.99-16.53,19.64-20.23,19.96c-2.69,0.23-5.09-0.67-7.2-2.72
								c-2.11-2.05-3.26-4.55-3.43-7.51c-0.16-2.71,0.96-5.69,3.37-8.93c2.1-2.35,4.23-4.73,6.38-7.15
								c1.34-1.54,2.41-2.78,3.22-3.72c-6.43-1.8-11.19-3.31-14.27-4.53c-4.23-1.68-6.48-4.7-6.74-9.08c-0.17-2.9,0.6-5.6,2.31-8.1
								c1.71-2.5,3.96-3.87,6.76-4.12c1.47-0.13,7.39,1.53,17.74,4.97c-0.57-5.28-0.92-8.99-1.05-11.15
								c-0.18-3.08,0.6-5.73,2.36-7.96c1.75-2.23,4.03-3.46,6.82-3.7c2.79-0.24,5.2,0.59,7.23,2.49c2.03,1.9,3.13,4.39,3.32,7.47
								c0.22,3.76,0.51,7.2,0.85,10.33c9.14-2.46,15.61-3.86,19.41-4.19c2.79-0.24,5.15,0.65,7.09,2.69
								c1.93,2.03,2.99,4.53,3.16,7.49C581.62,1053.57,579.11,1057.32,573.76,1059.08z" class="color828da6 svgShape"></path></g></g><g fill="#000000" class="color000000 svgShape"><path d="M653.33,1117.68c-1.44,0-2.66-1.1-2.79-2.56c-0.13-1.54,1.01-2.9,2.55-3.04l116.42-10.07
							c1.54-0.13,2.9,1.01,3.04,2.55c0.13,1.54-1.01,2.9-2.55,3.04l-116.42,10.07C653.49,1117.68,653.41,1117.68,653.33,1117.68z" fill="#000000" class="color000000 svgShape"></path></g><g fill="#000000" class="color000000 svgShape"><g fill="#000000" class="color000000 svgShape"><path fill="#8294a6" d="M734.27,1045.2c-3.6,1.18-7.87,2.32-12.8,3.43c9.26,9.85,14.01,16.72,14.24,20.61
								c0.18,3.02-0.68,5.68-2.58,7.98c-1.9,2.3-4.18,3.57-6.81,3.8c-2.79,0.24-5.74-1.27-8.84-4.53c-2.32-2.9-4.63-5.76-6.94-8.6
								c-2.2-2.66-4.14-4.81-5.82-6.47c-9.79,12.99-16.53,19.64-20.23,19.96c-2.69,0.23-5.09-0.67-7.2-2.72
								c-2.11-2.05-3.26-4.55-3.43-7.51c-0.16-2.71,0.96-5.69,3.37-8.93c2.1-2.35,4.23-4.73,6.38-7.15
								c1.34-1.54,2.41-2.78,3.22-3.72c-6.43-1.8-11.19-3.31-14.27-4.53c-4.23-1.68-6.48-4.7-6.74-9.08c-0.17-2.9,0.6-5.6,2.31-8.1
								c1.71-2.5,3.96-3.87,6.76-4.12c1.47-0.13,7.39,1.53,17.74,4.97c-0.57-5.28-0.92-8.99-1.05-11.15
								c-0.18-3.08,0.6-5.73,2.36-7.96c1.75-2.23,4.03-3.46,6.82-3.7c2.79-0.24,5.2,0.59,7.23,2.49c2.03,1.9,3.13,4.39,3.32,7.47
								c0.22,3.76,0.51,7.2,0.85,10.33c9.14-2.46,15.61-3.86,19.41-4.19c2.79-0.24,5.15,0.65,7.09,2.69
								c1.93,2.03,2.99,4.53,3.16,7.49C742.13,1039.68,739.62,1043.43,734.27,1045.2z" class="color828da6 svgShape"></path></g></g><g fill="#000000" class="color000000 svgShape"><path d="M813.84,1103.8c-1.44,0-2.66-1.1-2.79-2.56c-0.13-1.54,1.01-2.9,2.55-3.04l116.42-10.07c1.53-0.13,2.9,1.01,3.04,2.55
							c0.13,1.54-1.01,2.9-2.55,3.04l-116.42,10.07C814.01,1103.79,813.93,1103.8,813.84,1103.8z" fill="#000000" class="color000000 svgShape"></path></g><g fill="#000000" class="color000000 svgShape"><g fill="#000000" class="color000000 svgShape"><path fill="#8294a6" d="M894.78,1031.31c-3.6,1.18-7.87,2.32-12.8,3.43c9.26,9.85,14.01,16.72,14.24,20.61
								c0.18,3.02-0.68,5.68-2.58,7.98c-1.9,2.3-4.18,3.57-6.81,3.8c-2.79,0.24-5.74-1.27-8.84-4.53c-2.32-2.9-4.63-5.76-6.94-8.6
								c-2.2-2.66-4.14-4.81-5.82-6.47c-9.79,12.99-16.53,19.64-20.23,19.96c-2.69,0.23-5.09-0.67-7.2-2.72
								c-2.11-2.05-3.26-4.55-3.43-7.51c-0.16-2.71,0.96-5.69,3.37-8.93c2.1-2.35,4.23-4.73,6.38-7.15
								c1.34-1.54,2.41-2.78,3.22-3.72c-6.43-1.8-11.19-3.31-14.27-4.53c-4.23-1.68-6.48-4.7-6.74-9.08c-0.17-2.9,0.6-5.6,2.31-8.1
								c1.71-2.5,3.96-3.87,6.76-4.12c1.47-0.13,7.39,1.53,17.74,4.97c-0.57-5.28-0.92-8.99-1.05-11.15
								c-0.18-3.08,0.6-5.73,2.36-7.96c1.75-2.23,4.03-3.46,6.82-3.7c2.79-0.24,5.2,0.59,7.23,2.49c2.03,1.9,3.13,4.39,3.32,7.47
								c0.22,3.76,0.51,7.2,0.85,10.33c9.14-2.46,15.61-3.86,19.41-4.19c2.79-0.24,5.15,0.65,7.09,2.69
								c1.93,2.03,2.99,4.53,3.16,7.49C902.64,1025.8,900.14,1029.55,894.78,1031.31z" class="color828da6 svgShape"></path></g></g><g fill="#000000" class="color000000 svgShape"><path d="M974.36,1089.91c-1.44,0-2.66-1.1-2.79-2.56c-0.13-1.54,1.01-2.9,2.55-3.04l116.42-10.07
							c1.55-0.13,2.9,1.01,3.04,2.55c0.13,1.54-1.01,2.9-2.55,3.04L974.6,1089.9C974.52,1089.91,974.44,1089.91,974.36,1089.91z" fill="#000000" class="color000000 svgShape"></path></g><g fill="#000000" class="color000000 svgShape"><g fill="#000000" class="color000000 svgShape"><path fill="#8294a6" d="M1055.3,1017.42c-3.6,1.18-7.87,2.32-12.8,3.43c9.26,9.85,14.01,16.72,14.24,20.6
								c0.18,3.02-0.68,5.68-2.58,7.98c-1.9,2.3-4.18,3.57-6.81,3.8c-2.79,0.24-5.74-1.27-8.84-4.53c-2.32-2.9-4.63-5.76-6.94-8.6
								c-2.2-2.66-4.14-4.81-5.82-6.47c-9.79,12.99-16.53,19.64-20.23,19.96c-2.69,0.23-5.09-0.67-7.2-2.72s-3.26-4.55-3.43-7.51
								c-0.16-2.71,0.96-5.69,3.37-8.93c2.1-2.35,4.23-4.73,6.38-7.15c1.34-1.54,2.41-2.78,3.22-3.72
								c-6.43-1.8-11.19-3.31-14.27-4.53c-4.23-1.68-6.48-4.7-6.74-9.08c-0.17-2.9,0.6-5.6,2.31-8.1c1.71-2.5,3.96-3.87,6.76-4.12
								c1.47-0.13,7.39,1.53,17.74,4.97c-0.57-5.28-0.92-8.99-1.05-11.15c-0.18-3.08,0.6-5.73,2.36-7.96
								c1.75-2.23,4.03-3.46,6.82-3.7c2.79-0.24,5.2,0.59,7.23,2.49c2.03,1.9,3.13,4.39,3.32,7.47c0.22,3.76,0.51,7.2,0.85,10.33
								c9.14-2.46,15.61-3.86,19.41-4.19c2.79-0.24,5.15,0.65,7.09,2.69c1.93,2.03,2.99,4.53,3.16,7.49
								C1063.16,1011.91,1060.65,1015.66,1055.3,1017.42z" class="color828da6 svgShape"></path></g></g></g><g fill="#000000" class="color000000 svgShape"><g fill="#000000" class="color000000 svgShape"><path fill="#a2c8ef" d="M1437.23,727.76c-2.34,16.51-9.72,31.08-20.37,42.34c-16.67,17.62-41.34,27.17-67.19,23.52
							c-25.85-3.66-46.9-19.67-58.03-41.22c-7.11-13.77-10.17-29.81-7.83-46.33c5.99-42.37,45.2-71.85,87.56-65.86
							C1413.73,646.19,1443.22,685.39,1437.23,727.76z" class="colordbefa2 svgShape"></path></g><g fill="#000000" class="color000000 svgShape"><circle cx="1364.75" cy="687.02" r="18.35" fill="#ffffff" class="colorffffff svgShape"></circle></g><g fill="#000000" class="color000000 svgShape"><path fill="#ffffff" d="M1407.59,748.72c-13.46,14.23-33.38,21.94-54.25,18.99c-20.87-2.95-37.87-15.88-46.86-33.29
							c12.22-16.63,32.96-26.18,54.83-23.09S1400.46,729.35,1407.59,748.72z" class="colorffffff svgShape"></path></g><g fill="#000000" class="color000000 svgShape"><path d="M1360.47,797.18c-3.72,0-7.46-0.26-11.19-0.79c-25.72-3.64-48.19-19.6-60.13-42.71c-7.66-14.82-10.46-31.42-8.12-48
							c3-21.23,14.09-40.02,31.23-52.91c17.13-12.89,38.26-18.34,59.5-15.33c43.83,6.2,74.44,46.9,68.24,90.73l0,0
							c-2.35,16.58-9.65,31.75-21.11,43.87C1403.62,788.18,1382.38,797.18,1360.47,797.18z M1360.37,642.23
							c-16.08,0-31.65,5.17-44.73,15.01c-15.94,11.99-26.25,29.47-29.05,49.22c-2.18,15.43,0.43,30.86,7.55,44.65
							c11.1,21.5,32.01,36.35,55.93,39.73c23.92,3.38,48.13-5.09,64.76-22.67c10.66-11.27,17.45-25.38,19.63-40.8l0,0
							c5.77-40.77-22.71-78.62-63.48-84.39C1367.43,642.48,1363.89,642.23,1360.37,642.23z M1437.23,727.76h0.03H1437.23z" fill="#000000" class="color000000 svgShape"></path></g></g><g fill="#000000" class="color000000 svgShape"><g fill="#000000" class="color000000 svgShape"><polygon fill="#a2c8ef" points="2078.94 563.64 2121.71 395.69 1846.94 500.45 1950.39 518.88 1981.87 530.54" class="colorbfa2ef svgShape"></polygon></g><g fill="#000000" class="color000000 svgShape"><polygon fill="#6a9ed3" points="2084.4 429.37 1950.39 518.88 1960.25 583.78 1981.87 530.54" class="color726ad3 svgShape"></polygon></g><g fill="#000000" class="color000000 svgShape"><polygon points="1960.25 583.78 2002.7 538.34 1981.87 530.54" fill="#000000" class="color000000 svgShape"></polygon></g></g></g><g fill="#000000" class="color000000 svgShape"><g fill="#000000" class="color000000 svgShape"><g fill="#000000" class="color000000 svgShape"><path fill="#ffffff" d="M807.67,1613.31c-23.18-31.84-15.9-76.55,16.15-99.88c32.17-23.42,76.95-16.6,100.13,15.24
							c23.09,31.72,15.81,76.42-16.37,99.84C875.53,1651.84,830.76,1645.03,807.67,1613.31z" class="colorffffff svgShape"></path></g><g fill="#000000" class="color000000 svgShape"><g fill="#000000" class="color000000 svgShape"><g fill="#000000" class="color000000 svgShape"><path d="M836.33,1603.48c-10.58-14.54-7.26-34.95,7.37-45.6c14.69-10.69,35.13-7.58,45.72,6.96
									c10.54,14.48,7.22,34.89-7.47,45.58C867.32,1621.07,846.87,1617.96,836.33,1603.48z" fill="#000000" class="color000000 svgShape"></path></g><g fill="#000000" class="color000000 svgShape"><g fill="#000000" class="color000000 svgShape"><g fill="#000000" class="color000000 svgShape"><path d="M938.74,1721.42l31.44-22.88l-10.38-36.15c7.16-8.8,12.98-18.35,17.44-28.47l37.16-7.23l6.2-38.07l-32.96-17.99
											c-1.14-10.88-3.65-21.69-7.66-32.19l21.26-31.24l-22.65-31.12l-36.26,10.63c-8.76-7.04-18.2-12.65-28.2-17.08l-7.07-37
											l-38.13-5.8l-18.3,33.14c-11,1.14-21.88,3.74-32.45,7.85l-31.13-20.89l-31.44,22.88l10.3,36.05
											c-7.16,8.8-12.98,18.35-17.52,28.36l-37.09,7.33l-6.2,38.07l33.04,18.1c1.14,10.88,3.57,21.59,7.59,32.09l-21.26,31.24
											l22.65,31.12l36.26-10.63c8.76,7.05,18.28,12.76,28.28,17.19l6.99,36.9l38.13,5.8l18.38-33.04
											c10.92-1.24,21.8-3.85,32.37-7.96L938.74,1721.42z M804.76,1626.51c-23.18-31.84-15.9-76.55,16.15-99.88
											c32.17-23.42,76.95-16.6,100.13,15.24c23.09,31.72,15.81,76.42-16.37,99.84C872.63,1665.04,827.85,1658.23,804.76,1626.51
											z" fill="#000000" class="color000000 svgShape"></path></g></g><g fill="#000000" class="color000000 svgShape"><g fill="#000000" class="color000000 svgShape"><path fill="#5d7ef9" d="M941.64,1708.22l31.44-22.88l-10.38-36.15c7.16-8.8,12.98-18.35,17.44-28.47l37.16-7.23l6.2-38.07
											l-32.96-17.99c-1.14-10.88-3.65-21.69-7.66-32.19l21.26-31.24l-22.65-31.12l-36.26,10.63
											c-8.76-7.04-18.2-12.65-28.2-17.08l-7.07-37l-38.13-5.8l-18.3,33.14c-11,1.14-21.88,3.75-32.45,7.85l-31.13-20.89
											l-31.44,22.88l10.3,36.05c-7.16,8.8-12.98,18.35-17.52,28.36l-37.09,7.33l-6.2,38.07l33.04,18.1
											c1.14,10.88,3.57,21.59,7.59,32.09l-21.26,31.24l22.65,31.12l36.26-10.63c8.76,7.05,18.28,12.76,28.28,17.19l6.99,36.9
											l38.13,5.8l18.38-33.04c10.92-1.24,21.8-3.85,32.37-7.96L941.64,1708.22z M807.67,1613.31
											c-23.18-31.84-15.9-76.55,16.15-99.88c32.17-23.42,76.95-16.6,100.13,15.24c23.09,31.72,15.81,76.42-16.37,99.84
											C875.53,1651.84,830.76,1645.03,807.67,1613.31z" class="colorf95d5d svgShape"></path></g></g><g fill="#000000" class="color000000 svgShape"><g fill="#000000" class="color000000 svgShape"><path d="M865.14,1645.16c-22.88,0-45.36-10.46-59.74-30.2l0,0c-24.03-33.01-16.51-79.57,16.77-103.79
											c33.34-24.27,80.02-17.16,104.05,15.86c23.98,32.94,16.36,79.49-16.98,103.76
											C895.9,1640.48,880.43,1645.16,865.14,1645.16z M809.93,1611.66c22.16,30.44,65.22,36.99,96,14.59
											c30.84-22.45,37.91-65.48,15.75-95.93c-22.21-30.51-65.37-37.07-96.21-14.62C794.69,1538.1,787.73,1581.14,809.93,1611.66
											L809.93,1611.66z M748.64,1619.41c-1.13,0-2.19-0.69-2.62-1.8c-3.78-9.88-6.33-20.42-7.59-31.33l-31.76-17.4
											c-1.04-0.57-1.61-1.74-1.42-2.91l6.2-38.07c0.19-1.16,1.07-2.07,2.22-2.3l35.68-7.05c4.43-9.5,9.93-18.41,16.37-26.51
											l-9.91-34.65c-0.32-1.13,0.09-2.35,1.05-3.04l31.44-22.88c0.95-0.69,2.23-0.72,3.21-0.06l29.93,20.08
											c9.81-3.68,20.01-6.15,30.34-7.34l17.6-31.87c0.57-1.03,1.72-1.6,2.88-1.42l38.13,5.8c1.17,0.18,2.11,1.08,2.33,2.25
											l6.79,35.57c9.52,4.34,18.37,9.7,26.33,15.94l34.87-10.22c1.14-0.33,2.36,0.08,3.06,1.04l22.65,31.12
											c0.7,0.96,0.72,2.25,0.05,3.23l-20.44,30.04c3.55,9.63,5.95,19.73,7.15,30.06l31.68,17.29c1.04,0.57,1.62,1.74,1.42,2.91
											l-2.05,12.56c-0.25,1.53-1.69,2.56-3.22,2.32c-1.53-0.25-2.57-1.69-2.32-3.22l1.73-10.6l-31.22-17.04
											c-0.81-0.44-1.35-1.25-1.45-2.17c-1.14-10.85-3.66-21.45-7.49-31.49c-0.33-0.86-0.21-1.82,0.3-2.58l20.15-29.61
											l-20.33-27.92l-34.37,10.07c-0.88,0.26-1.83,0.07-2.55-0.51c-8.25-6.63-17.53-12.25-27.58-16.7
											c-0.84-0.37-1.45-1.13-1.62-2.04l-6.69-35.05l-34.24-5.21l-17.35,31.43c-0.44,0.8-1.25,1.34-2.17,1.43
											c-10.82,1.12-21.49,3.7-31.72,7.68c-0.85,0.33-1.82,0.23-2.58-0.28l-29.51-19.79l-28.27,20.58l9.77,34.16
											c0.25,0.88,0.06,1.83-0.52,2.54c-6.83,8.4-12.6,17.74-17.14,27.75c-0.37,0.82-1.12,1.42-2.01,1.59l-35.17,6.95
											l-5.57,34.19l31.3,17.14c0.81,0.44,1.35,1.25,1.44,2.17c1.15,10.95,3.64,21.51,7.41,31.38c0.55,1.45-0.17,3.07-1.62,3.62
											C749.31,1619.35,748.97,1619.41,748.64,1619.41z" fill="#000000" class="color000000 svgShape"></path></g></g></g><g fill="#000000" class="color000000 svgShape"><path fill="#5d7ef9" d="M839.24,1590.28c-10.58-14.54-7.26-34.95,7.37-45.6c14.69-10.69,35.13-7.58,45.72,6.96
									c10.54,14.48,7.22,34.89-7.47,45.58C870.22,1607.87,849.78,1604.76,839.24,1590.28z" class="colorf95d5d svgShape"></path></g></g></g></g></g><g fill="#000000" class="color000000 svgShape"><g fill="#000000" class="color000000 svgShape"><g fill="#000000" class="color000000 svgShape"><path fill="#ffffff" d="M807.67,1613.31c-23.18-31.84-15.9-76.55,16.15-99.88c32.17-23.42,76.95-16.6,100.13,15.24
							c23.09,31.72,15.81,76.42-16.37,99.84C875.53,1651.84,830.76,1645.03,807.67,1613.31z" class="colorffffff svgShape"></path></g><g fill="#000000" class="color000000 svgShape"><g fill="#000000" class="color000000 svgShape"><g fill="#000000" class="color000000 svgShape"><path d="M836.33,1603.48c-10.58-14.54-7.26-34.95,7.37-45.6c14.69-10.69,35.13-7.58,45.72,6.96
									c10.54,14.48,7.22,34.89-7.47,45.58C867.32,1621.07,846.87,1617.96,836.33,1603.48z" fill="#000000" class="color000000 svgShape"></path></g><g fill="#000000" class="color000000 svgShape"><g fill="#000000" class="color000000 svgShape"><g fill="#000000" class="color000000 svgShape"><path d="M938.74,1721.42l31.44-22.88l-10.38-36.15c7.16-8.8,12.98-18.35,17.44-28.47l37.16-7.23l6.2-38.07l-32.96-17.99
											c-1.14-10.88-3.65-21.69-7.66-32.19l21.26-31.24l-22.65-31.12l-36.26,10.63c-8.76-7.04-18.2-12.65-28.2-17.08l-7.07-37
											l-38.13-5.8l-18.3,33.14c-11,1.14-21.88,3.74-32.45,7.85l-31.13-20.89l-31.44,22.88l10.3,36.05
											c-7.16,8.8-12.98,18.35-17.52,28.36l-37.09,7.33l-6.2,38.07l33.04,18.1c1.14,10.88,3.57,21.59,7.59,32.09l-21.26,31.24
											l22.65,31.12l36.26-10.63c8.76,7.05,18.28,12.76,28.28,17.19l6.99,36.9l38.13,5.8l18.38-33.04
											c10.92-1.24,21.8-3.85,32.37-7.96L938.74,1721.42z M804.76,1626.51c-23.18-31.84-15.9-76.55,16.15-99.88
											c32.17-23.42,76.95-16.6,100.13,15.24c23.09,31.72,15.81,76.42-16.37,99.84C872.63,1665.04,827.85,1658.23,804.76,1626.51
											z" fill="#000000" class="color000000 svgShape"></path></g></g><g fill="#000000" class="color000000 svgShape"><g fill="#000000" class="color000000 svgShape"><path fill="#c7e3ff" d="M941.64,1708.22l31.44-22.88l-10.38-36.15c7.16-8.8,12.98-18.35,17.44-28.47l37.16-7.23l6.2-38.07
											l-32.96-17.99c-1.14-10.88-3.65-21.69-7.66-32.19l21.26-31.24l-22.65-31.12l-36.26,10.63
											c-8.76-7.04-18.2-12.65-28.2-17.08l-7.07-37l-38.13-5.8l-18.3,33.14c-11,1.14-21.88,3.75-32.45,7.85l-31.13-20.89
											l-31.44,22.88l10.3,36.05c-7.16,8.8-12.98,18.35-17.52,28.36l-37.09,7.33l-6.2,38.07l33.04,18.1
											c1.14,10.88,3.57,21.59,7.59,32.09l-21.26,31.24l22.65,31.12l36.26-10.63c8.76,7.05,18.28,12.76,28.28,17.19l6.99,36.9
											l38.13,5.8l18.38-33.04c10.92-1.24,21.8-3.85,32.37-7.96L941.64,1708.22z M807.67,1613.31
											c-23.18-31.84-15.9-76.55,16.15-99.88c32.17-23.42,76.95-16.6,100.13,15.24c23.09,31.72,15.81,76.42-16.37,99.84
											C875.53,1651.84,830.76,1645.03,807.67,1613.31z" class="colorc7ecff svgShape"></path></g></g><g fill="#000000" class="color000000 svgShape"><g fill="#000000" class="color000000 svgShape"><path d="M865.14,1645.16c-22.88,0-45.36-10.46-59.74-30.2l0,0c-24.03-33.01-16.51-79.57,16.77-103.79
											c33.34-24.27,80.02-17.16,104.05,15.86c23.98,32.94,16.36,79.49-16.98,103.76
											C895.9,1640.48,880.43,1645.16,865.14,1645.16z M809.93,1611.66c22.16,30.44,65.22,36.99,96,14.59
											c30.84-22.45,37.91-65.48,15.75-95.93c-22.21-30.51-65.37-37.07-96.21-14.62C794.69,1538.1,787.73,1581.14,809.93,1611.66
											L809.93,1611.66z M748.64,1619.41c-1.13,0-2.19-0.69-2.62-1.8c-3.78-9.88-6.33-20.42-7.59-31.33l-31.76-17.4
											c-1.04-0.57-1.61-1.74-1.42-2.91l6.2-38.07c0.19-1.16,1.07-2.07,2.22-2.3l35.68-7.05c4.43-9.5,9.93-18.41,16.37-26.51
											l-9.91-34.65c-0.32-1.13,0.09-2.35,1.05-3.04l31.44-22.88c0.95-0.69,2.23-0.72,3.21-0.06l29.93,20.08
											c9.81-3.68,20.01-6.15,30.34-7.34l17.6-31.87c0.57-1.03,1.72-1.6,2.88-1.42l38.13,5.8c1.17,0.18,2.11,1.08,2.33,2.25
											l6.79,35.57c9.52,4.34,18.37,9.7,26.33,15.94l34.87-10.22c1.14-0.33,2.36,0.08,3.06,1.04l22.65,31.12
											c0.7,0.96,0.72,2.25,0.05,3.23l-20.44,30.04c3.55,9.63,5.95,19.73,7.15,30.06l31.68,17.29c1.04,0.57,1.62,1.74,1.42,2.91
											l-2.05,12.56c-0.25,1.53-1.69,2.56-3.22,2.32c-1.53-0.25-2.57-1.69-2.32-3.22l1.73-10.6l-31.22-17.04
											c-0.81-0.44-1.35-1.25-1.45-2.17c-1.14-10.85-3.66-21.44-7.49-31.49c-0.33-0.86-0.21-1.82,0.3-2.58l20.15-29.61
											l-20.32-27.92l-34.37,10.07c-0.88,0.26-1.83,0.07-2.55-0.51c-8.25-6.63-17.53-12.25-27.58-16.7
											c-0.84-0.37-1.45-1.13-1.62-2.04l-6.69-35.05l-34.24-5.21l-17.35,31.43c-0.44,0.8-1.25,1.34-2.17,1.43
											c-10.82,1.12-21.49,3.7-31.72,7.68c-0.85,0.33-1.82,0.23-2.58-0.28l-29.51-19.79l-28.27,20.58l9.77,34.16
											c0.25,0.88,0.06,1.83-0.52,2.54c-6.83,8.4-12.6,17.74-17.14,27.75c-0.37,0.82-1.12,1.42-2.01,1.59l-35.17,6.95
											l-5.57,34.19l31.3,17.14c0.81,0.44,1.35,1.25,1.44,2.17c1.15,10.95,3.64,21.51,7.41,31.38c0.55,1.45-0.17,3.07-1.62,3.62
											C749.31,1619.35,748.97,1619.41,748.64,1619.41z" fill="#000000" class="color000000 svgShape"></path></g></g></g><g fill="#000000" class="color000000 svgShape"><path fill="#c7e3ff" d="M839.24,1590.28c-10.58-14.54-7.26-34.95,7.37-45.6c14.69-10.69,35.13-7.58,45.72,6.96
									c10.54,14.48,7.22,34.89-7.47,45.58C870.22,1607.87,849.78,1604.76,839.24,1590.28z" class="colorc7ecff svgShape"></path></g></g></g></g></g></g><g fill="#000000" class="color000000 svgShape"><circle cx="418.91" cy="429.37" r="104.28" fill="#a2c8ef" class="colorbfa2ef svgShape"></circle></g><g fill="#000000" class="color000000 svgShape"><path fill="#0575e6" d="M517.18,394.47c19.28,54.27-9.09,113.89-63.36,133.17c-34.51,12.26-71.19,5.24-98.27-15.44
				c21.21,7.01,44.82,7.27,67.51-0.79c54.27-19.28,82.64-78.88,63.37-133.15c-7.02-19.76-19.39-36.09-34.9-47.92
				C481.08,340.08,505.96,362.89,517.18,394.47z" class="color554dae svgShape"></path></g><g fill="#000000" class="color000000 svgShape"><path d="M444.29,532.06c-11.9,0-25.02-6.37-37.93-18.63c-16.34-15.51-30.55-38.73-40.01-65.38
				c-9.47-26.65-13.09-53.64-10.2-75.98c2.98-23.01,12.54-38.49,26.92-43.6c28.97-10.29,68.64,26.59,88.41,82.23l0,0
				c9.47,26.66,13.09,53.64,10.2,75.98c-2.98,23.01-12.54,38.49-26.92,43.6C451.4,531.47,447.9,532.06,444.29,532.06z
				 M393.66,332.28c-3,0-5.92,0.48-8.71,1.47c-12.29,4.37-20.54,18.23-23.24,39.04c-2.78,21.48,0.74,47.54,9.92,73.38
				c9.18,25.84,22.88,48.28,38.59,63.19c15.22,14.45,30.37,20,42.66,15.63c12.29-4.37,20.54-18.23,23.24-39.04
				c2.78-21.48-0.74-47.54-9.92-73.38C449.48,365.51,418.63,332.28,393.66,332.28z" fill="#000000" class="color000000 svgShape"></path></g><g fill="#000000" class="color000000 svgShape"><path d="M418.84,536.51c-15.7,0-31.33-3.5-45.93-10.44c-25.83-12.29-45.32-33.9-54.9-60.85c-9.57-26.95-8.08-56.02,4.21-81.85
				c12.29-25.83,33.9-45.33,60.85-54.9c55.63-19.76,116.98,9.42,136.75,65.06l0,0c9.57,26.95,8.08,56.02-4.21,81.85
				c-12.29,25.83-33.9,45.33-60.85,54.9C443.04,534.44,430.91,536.51,418.84,536.51z M418.82,327.89c-11.25,0-22.68,1.88-33.87,5.86
				c-25.54,9.07-46.02,27.55-57.67,52.02c-11.65,24.48-13.06,52.02-3.99,77.56c9.07,25.54,27.55,46.02,52.02,57.67
				c24.48,11.65,52.02,13.06,77.56,3.99c25.54-9.07,46.02-27.55,57.67-52.02s13.06-52.02,3.99-77.56
				C499.78,353.88,460.57,327.89,418.82,327.89z" fill="#000000" class="color000000 svgShape"></path></g><g fill="#000000" class="color000000 svgShape"><g fill="#000000" class="color000000 svgShape"><path d="M363.98,381.9c-11.46,0-22.92-1.88-34.07-5.64c-1.47-0.49-2.26-2.08-1.76-3.55c0.49-1.47,2.08-2.26,3.55-1.76
					c21.7,7.31,44.61,7.11,66.26-0.58c21.65-7.69,39.55-21.99,51.77-41.35c0.83-1.31,2.56-1.7,3.87-0.87
					c1.31,0.83,1.7,2.56,0.87,3.87c-12.9,20.43-31.8,35.52-54.64,43.64C388.12,379.81,376.05,381.9,363.98,381.9z" fill="#000000" class="color000000 svgShape"></path></g><g fill="#000000" class="color000000 svgShape"><path d="M385.73,531.03c-0.51,0-1.03-0.14-1.49-0.43c-1.31-0.83-1.7-2.56-0.87-3.87c12.9-20.43,31.8-35.52,54.64-43.64
					c22.84-8.11,47.02-8.32,69.92-0.61c1.47,0.49,2.26,2.08,1.76,3.55c-0.49,1.47-2.09,2.25-3.55,1.76
					c-21.7-7.31-44.61-7.11-66.25,0.58c-21.65,7.69-39.55,21.99-51.77,41.35C387.57,530.57,386.66,531.03,385.73,531.03z" fill="#000000" class="color000000 svgShape"></path></g></g><g fill="#000000" class="color000000 svgShape"><path d="M453.82,530.44c-1.15,0-2.23-0.72-2.64-1.87l-69.81-196.53c-0.52-1.46,0.25-3.06,1.7-3.58c1.46-0.52,3.06,0.24,3.58,1.7
				l69.81,196.53c0.52,1.46-0.25,3.06-1.7,3.58C454.44,530.39,454.13,530.44,453.82,530.44z" fill="#000000" class="color000000 svgShape"></path></g><g fill="#000000" class="color000000 svgShape"><path d="M320.65,467.08c-1.15,0-2.23-0.72-2.64-1.87c-0.52-1.46,0.25-3.06,1.7-3.58l196.53-69.81c1.46-0.52,3.06,0.24,3.58,1.7
				c0.52,1.46-0.25,3.06-1.7,3.58l-196.53,69.81C321.28,467.03,320.96,467.08,320.65,467.08z" fill="#000000" class="color000000 svgShape"></path></g></g></g></svg>