<svg xmlns="http://www.w3.org/2000/svg" viewBox="0 0 2000 2000" id="Onlinepayment"><path fill="#edf4fb" d="M1639.84,1107.71c-.6,2.36-1.23,4.7-1.87,7.04-23.51,87.15-60.95,168.73-112.68,238.84-217.03,294.23-657.65,395.76-981.55,226.16-100.5-52.61-190.99-129.95-242.45-231.04-15.97-31.36-27.74-65.16-34.76-99.85-.38-1.89-.75-3.77-1.1-5.66-14.09-75.43-5.66-154.57,31.06-221.5,81.47-148.49,271.52-201.9,377.79-333.77,7.31-9.08,14.28-18.27,20.93-27.52,1.16-1.6,2.31-3.21,3.44-4.82,83.59-118.48,118.78-248.68,210.37-337.24,1.41-1.38,2.83-2.73,4.27-4.08,43.59-40.75,99.81-72.24,179.35-89.05,137.97-29.15,276.13-13.86,374.1,94.06,.8,.88,1.6,1.76,2.38,2.65,1.31,1.45,2.6,2.9,3.9,4.36,87.06,98.75,145.57,225.2,174.31,359.8,.59,2.75,1.17,5.5,1.74,8.27,27.87,136.62,25.22,281.17-9.23,413.34Z" class="coloredf2fb svgShape"></path><g opacity=".5" fill="#021b79" class="color000000 svgShape"><path fill="#ffffff" d="M1639.84 1107.71c-.6 2.36-1.23 4.7-1.87 7.04-29.94 13.55-60.42 29.72-91.42 48.54-55.18 33.49-108.23 72.32-159.54 109.88-53.22 38.96-108.25 79.25-165.84 113.69-62.18 37.2-123.49 64.16-182.25 80.15-42.79 11.64-84.41 17.47-124.38 17.47-24.22 0-47.83-2.13-70.75-6.42-89.63-16.77-169.24-66.06-246.2-113.73-11.94-7.39-24.29-15.04-36.42-22.4-85.58-51.94-187.25-103.64-292.66-93.27-.66.07-1.33.13-1.99.21-.38-1.89-.75-3.77-1.1-5.66.84-.1 1.68-.18 2.53-.27 107.09-10.54 209.83 41.64 296.21 94.08 12.16 7.38 24.51 15.03 36.46 22.43 76.52 47.39 155.65 96.38 244.23 112.96 112.27 21 237.89-9.43 373.37-90.48 57.35-34.3 112.27-74.52 165.4-113.4 51.4-37.63 104.55-76.55 159.95-110.16 32.45-19.69 64.63-36.62 96.27-50.66zM1649.07 694.37c-34.45 56.91-75.03 107.51-120.68 150.48-50.77 47.78-106.54 84.83-165.79 110.13-59.05 25.21-123.47 38.43-186.88 38.44-3.13 0-6.25-.04-9.37-.1-69.27-1.44-135.49-18.94-191.49-50.61-81.99-46.38-144.35-121.92-204.64-194.98-24.34-29.5-48.96-59.33-75.02-87.32 1.16-1.6 2.31-3.21 3.44-4.82 26.39 28.36 51.48 58.76 76.01 88.48 59.96 72.65 121.96 147.78 203.04 193.64 108.96 61.64 255.6 66.23 382.65 11.99 112.6-48.08 214.48-141.66 286.99-263.6.59 2.75 1.17 5.5 1.74 8.27zM1473.01 326.3c-68.79 48.66-147.62 79.1-227.54 87.17-14.69 1.48-29.52 2.22-44.4 2.22-87.88 0-177.69-25.67-257.12-74.05-12.01-7.32-23.67-15.09-34.95-23.28 1.41-1.38 2.83-2.73 4.27-4.08 95.37 68.86 214.57 105.3 331.63 93.47 80.78-8.16 157.95-39.02 224.21-85.81 1.31 1.45 2.6 2.9 3.9 4.36z" class="colorffffff svgShape"></path></g><path fill="#edf4fb" d="M439.52 1545.1c3.72 2.37 7.49 4.78 10.49 8.03 9.54 10.32 8.72 27.7 0 38.73-8.71 11.03-23.61 15.97-37.63 15.05-14.02-.92-27.25-7.05-38.95-14.83-11.37-7.57-21.86-17.07-28.08-29.24-6.22-12.17-7.62-27.32-1.28-39.42 21.74-41.5 72.64 7.14 95.45 21.68zM1678.45 756.31c.91 5.15 3.54 10.33 8.2 12.7 4.2 2.13 9.42 1.57 13.57-.66 4.14-2.23 7.32-5.95 9.75-9.98 6.25-10.34 8.02-23.29 4.78-34.93-3.15-11.33-23.01-39.98-36.27-25.99-9.06 9.57-2.01 47.8-.04 58.86zM330.97 1497.33c4.62-4.35 4.85-11.71 3.16-17.83-2.87-10.43-11.46-22.09-22.68-24.27-7.75-1.51-12.89 2.27-13.53 10.05-1.11 13.63 16.25 47.89 33.05 32.05z" class="coloredf2fb svgShape"></path><g fill="#021b79" class="color000000 svgShape"><path fill="#83b9ef" d="M716.13,295.36v48.18H203.02v-48.18c0-25.86,20.97-46.83,46.83-46.83h419.44c25.86,0,46.83,20.97,46.83,46.83Z" class="color8583ef svgShape"></path><path fill="#e8eef4" d="M716.13,343.54V976.33c0,25.86-20.97,46.83-46.83,46.83H249.85c-25.86,0-46.83-20.97-46.83-46.83V343.54H716.13Z" class="colore8e8f4 svgShape"></path><circle cx="250.53" cy="296.03" r="8.45" fill="#ffffff" class="colorffffff svgShape"></circle><circle cx="283.26" cy="296.03" r="8.45" fill="#ffffff" class="colorffffff svgShape"></circle><circle cx="315.99" cy="296.03" r="8.45" fill="#ffffff" class="colorffffff svgShape"></circle><rect width="51.6" height="51.6" x="266.35" y="445.32" fill="#add0f4" rx="2.95" ry="2.95" class="coloradadf4 svgShape"></rect><rect width="51.6" height="51.6" x="350.06" y="445.32" fill="#add0f4" rx="2.95" ry="2.95" class="coloradadf4 svgShape"></rect><rect width="51.6" height="51.6" x="433.77" y="445.32" fill="#add0f4" rx="2.95" ry="2.95" class="coloradadf4 svgShape"></rect><rect width="51.6" height="51.6" x="517.48" y="445.32" fill="#add0f4" rx="2.95" ry="2.95" class="coloradadf4 svgShape"></rect><rect width="51.6" height="51.6" x="600.3" y="445.32" fill="#add0f4" rx="2.95" ry="2.95" class="coloradadf4 svgShape"></rect><path fill="#bfd7ef" d="M266.35 493.98v-45.71c0-1.63 1.32-2.94 2.95-2.94h45.71c1.63 0 2.94 1.32 2.94 2.94v.61h-45.1c-1.63 0-2.94 1.32-2.94 2.94v45.1h-.61c-1.63 0-2.95-1.32-2.95-2.94zM350.06 493.98v-45.71c0-1.63 1.32-2.94 2.95-2.94h45.71c1.63 0 2.94 1.32 2.94 2.94v.61h-45.1c-1.63 0-2.94 1.32-2.94 2.94v45.1h-.61c-1.63 0-2.95-1.32-2.95-2.94zM433.78 493.98v-45.71c0-1.63 1.32-2.94 2.95-2.94h45.71c1.63 0 2.94 1.32 2.94 2.94v.61h-45.1c-1.63 0-2.94 1.32-2.94 2.94v45.1h-.61c-1.63 0-2.95-1.32-2.95-2.94zM517.49 493.98v-45.71c0-1.63 1.32-2.94 2.95-2.94h45.71c1.63 0 2.94 1.32 2.94 2.94v.61h-45.1c-1.63 0-2.94 1.32-2.94 2.94v45.1h-.61c-1.63 0-2.95-1.32-2.95-2.94zM601.2 493.98v-45.71c0-1.63 1.32-2.94 2.95-2.94h45.71c1.63 0 2.94 1.32 2.94 2.94v.61h-45.1c-1.63 0-2.94 1.32-2.94 2.94v45.1h-.61c-1.63 0-2.95-1.32-2.95-2.94z" class="colorc1bfef svgShape"></path><path fill="#83b9ef" d="M317.95 448.26v45.71c0 1.63-1.32 2.94-2.95 2.94h-45.71c-1.63 0-2.94-1.32-2.94-2.94v-.61h45.1c1.63 0 2.94-1.32 2.94-2.94v-45.1h.61c1.63 0 2.95 1.32 2.95 2.94zM401.66 448.26v45.71c0 1.63-1.32 2.94-2.95 2.94h-45.71c-1.63 0-2.94-1.32-2.94-2.94v-.61h45.1c1.63 0 2.94-1.32 2.94-2.94v-45.1h.61c1.63 0 2.95 1.32 2.95 2.94zM485.38 448.26v45.71c0 1.63-1.32 2.94-2.95 2.94h-45.71c-1.63 0-2.94-1.32-2.94-2.94v-.61h45.1c1.63 0 2.94-1.32 2.94-2.94v-45.1h.61c1.63 0 2.95 1.32 2.95 2.94zM569.09 448.26v45.71c0 1.63-1.32 2.94-2.95 2.94h-45.71c-1.63 0-2.94-1.32-2.94-2.94v-.61h45.1c1.63 0 2.94-1.32 2.94-2.94v-45.1h.61c1.63 0 2.95 1.32 2.95 2.94zM651.9 448.26v45.71c0 1.63-1.32 2.94-2.95 2.94h-45.71c-1.63 0-2.94-1.32-2.94-2.94v-.61h45.1c1.63 0 2.94-1.32 2.94-2.94v-45.1h.61c1.63 0 2.95 1.32 2.95 2.94z" class="color8583ef svgShape"></path><line x1="292.15" x2="292.15" y1="459.12" y2="483.12" fill="none" stroke="#ffffff" stroke-linecap="round" stroke-linejoin="round" stroke-width="6" class="colorStrokeffffff svgStroke"></line><line x1="300.64" x2="283.66" y1="462.63" y2="479.61" fill="none" stroke="#ffffff" stroke-linecap="round" stroke-linejoin="round" stroke-width="6" class="colorStrokeffffff svgStroke"></line><line x1="304.15" x2="280.15" y1="471.12" y2="471.12" fill="none" stroke="#ffffff" stroke-linecap="round" stroke-linejoin="round" stroke-width="6" class="colorStrokeffffff svgStroke"></line><line x1="283.66" x2="300.64" y1="462.63" y2="479.61" fill="none" stroke="#ffffff" stroke-linecap="round" stroke-linejoin="round" stroke-width="6" class="colorStrokeffffff svgStroke"></line><line x1="375.86" x2="375.86" y1="459.12" y2="483.12" fill="none" stroke="#ffffff" stroke-linecap="round" stroke-linejoin="round" stroke-width="6" class="colorStrokeffffff svgStroke"></line><line x1="384.35" x2="367.38" y1="462.63" y2="479.61" fill="none" stroke="#ffffff" stroke-linecap="round" stroke-linejoin="round" stroke-width="6" class="colorStrokeffffff svgStroke"></line><line x1="387.86" x2="363.86" y1="471.12" y2="471.12" fill="none" stroke="#ffffff" stroke-linecap="round" stroke-linejoin="round" stroke-width="6" class="colorStrokeffffff svgStroke"></line><line x1="367.38" x2="384.35" y1="462.63" y2="479.61" fill="none" stroke="#ffffff" stroke-linecap="round" stroke-linejoin="round" stroke-width="6" class="colorStrokeffffff svgStroke"></line><g fill="#021b79" class="color000000 svgShape"><line x1="459.57" x2="459.57" y1="459.12" y2="483.12" fill="none" stroke="#ffffff" stroke-linecap="round" stroke-linejoin="round" stroke-width="6" class="colorStrokeffffff svgStroke"></line><line x1="468.06" x2="451.09" y1="462.63" y2="479.61" fill="none" stroke="#ffffff" stroke-linecap="round" stroke-linejoin="round" stroke-width="6" class="colorStrokeffffff svgStroke"></line><line x1="471.58" x2="447.57" y1="471.12" y2="471.12" fill="none" stroke="#ffffff" stroke-linecap="round" stroke-linejoin="round" stroke-width="6" class="colorStrokeffffff svgStroke"></line><line x1="451.09" x2="468.06" y1="462.63" y2="479.61" fill="none" stroke="#ffffff" stroke-linecap="round" stroke-linejoin="round" stroke-width="6" class="colorStrokeffffff svgStroke"></line></g><g fill="#021b79" class="color000000 svgShape"><line x1="543.29" x2="543.29" y1="459.12" y2="483.12" fill="none" stroke="#ffffff" stroke-linecap="round" stroke-linejoin="round" stroke-width="6" class="colorStrokeffffff svgStroke"></line><line x1="551.77" x2="534.8" y1="462.63" y2="479.61" fill="none" stroke="#ffffff" stroke-linecap="round" stroke-linejoin="round" stroke-width="6" class="colorStrokeffffff svgStroke"></line><line x1="555.29" x2="531.28" y1="471.12" y2="471.12" fill="none" stroke="#ffffff" stroke-linecap="round" stroke-linejoin="round" stroke-width="6" class="colorStrokeffffff svgStroke"></line><line x1="534.8" x2="551.77" y1="462.63" y2="479.61" fill="none" stroke="#ffffff" stroke-linecap="round" stroke-linejoin="round" stroke-width="6" class="colorStrokeffffff svgStroke"></line></g><g fill="#021b79" class="color000000 svgShape"><line x1="627" x2="627" y1="459.12" y2="483.12" fill="none" stroke="#ffffff" stroke-linecap="round" stroke-linejoin="round" stroke-width="6" class="colorStrokeffffff svgStroke"></line><line x1="635.49" x2="618.51" y1="462.63" y2="479.61" fill="none" stroke="#ffffff" stroke-linecap="round" stroke-linejoin="round" stroke-width="6" class="colorStrokeffffff svgStroke"></line><line x1="639" x2="615" y1="471.12" y2="471.12" fill="none" stroke="#ffffff" stroke-linecap="round" stroke-linejoin="round" stroke-width="6" class="colorStrokeffffff svgStroke"></line><line x1="618.51" x2="635.49" y1="462.63" y2="479.61" fill="none" stroke="#ffffff" stroke-linecap="round" stroke-linejoin="round" stroke-width="6" class="colorStrokeffffff svgStroke"></line></g><g fill="#021b79" class="color000000 svgShape"><rect width="163.49" height="67.4" x="377.83" y="540.22" fill="#add0f4" rx="2.95" ry="2.95" class="coloradadf4 svgShape"></rect><path fill="#bfd7ef" d="M377.83,604.68v-61.51c0-1.63,1.32-2.94,2.95-2.94h157.59c1.63,0,2.94,1.32,2.94,2.94v.61h-156.98c-1.63,0-2.94,1.32-2.94,2.94v60.9h-.61c-1.63,0-2.95-1.32-2.95-2.94Z" class="colorc1bfef svgShape"></path><path fill="#83b9ef" d="M541.32,543.17v61.51c0,1.63-1.32,2.94-2.95,2.94h-157.59c-1.63,0-2.94-1.32-2.94-2.94v-.61h156.98c1.63,0,2.94-1.32,2.94-2.94v-60.9h.61c1.63,0,2.95,1.32,2.95,2.94Z" class="color8583ef svgShape"></path></g><g fill="#021b79" class="color000000 svgShape"><rect width="429.32" height="124.01" x="244.91" y="742.01" fill="#d6e8fa" rx="12.13" ry="12.13" class="colord6d6fa svgShape"></rect><line x1="279.68" x2="355.62" y1="773.76" y2="773.76" fill="none" stroke="#add0f4" stroke-linecap="round" stroke-linejoin="round" stroke-width="8" class="colorStrokeadadf4 svgStroke"></line><rect width="114.71" height="34.27" x="517.63" y="786.89" fill="#add0f4" rx="8.96" ry="8.96" class="coloradadf4 svgShape"></rect><path fill="#add0f4" d="M289.31,822.07c-.56,0-1.01-.18-1.37-.55-.35-.37-.53-.82-.53-1.35v-2.58c-1.54-.1-2.92-.35-4.12-.74-1.2-.39-2.23-.83-3.09-1.31-.58-.33-.94-.77-1.08-1.33-.14-.56-.11-1.09,.09-1.59,.2-.51,.54-.86,1.03-1.06,.48-.2,1.05-.11,1.71,.27,.71,.41,1.64,.79,2.79,1.16,1.15,.37,2.54,.55,4.16,.55,1.9,0,3.27-.34,4.1-1.01,.84-.67,1.25-1.51,1.25-2.52,0-.84-.29-1.52-.87-2.05-.58-.53-1.62-.96-3.11-1.29l-4.02-.87c-4.58-.99-6.87-3.39-6.87-7.21,0-2.13,.73-3.92,2.18-5.37,1.46-1.46,3.41-2.34,5.87-2.64v-2.7c0-.53,.18-.98,.53-1.35,.35-.37,.81-.55,1.37-.55s.98,.18,1.35,.55c.37,.37,.55,.82,.55,1.35v2.66c1.01,.1,2.08,.34,3.21,.72,1.13,.38,2.11,.9,2.94,1.56,.48,.38,.76,.82,.84,1.31s0,.95-.25,1.37c-.24,.42-.61,.7-1.1,.84-.49,.14-1.07,.02-1.73-.36-.73-.43-1.56-.78-2.47-1.04-.91-.27-2-.4-3.26-.4-1.62,0-2.89,.36-3.82,1.08-.92,.72-1.39,1.66-1.39,2.83,0,.86,.28,1.55,.84,2.07,.56,.52,1.51,.93,2.85,1.23l4.14,.91c2.43,.53,4.21,1.37,5.35,2.52,1.14,1.15,1.71,2.66,1.71,4.54,0,2.13-.73,3.87-2.18,5.22-1.46,1.35-3.35,2.21-5.68,2.56v2.7c0,.53-.18,.98-.53,1.35-.35,.37-.81,.55-1.37,.55Z" class="coloradadf4 svgShape"></path><line x1="312.88" x2="333.14" y1="804.02" y2="804.02" fill="none" stroke="#add0f4" stroke-linecap="round" stroke-linejoin="round" stroke-width="8" class="colorStrokeadadf4 svgStroke"></line><line x1="345.48" x2="365.75" y1="804.02" y2="804.02" fill="none" stroke="#add0f4" stroke-linecap="round" stroke-linejoin="round" stroke-width="8" class="colorStrokeadadf4 svgStroke"></line><line x1="378.09" x2="398.35" y1="804.02" y2="804.02" fill="none" stroke="#add0f4" stroke-linecap="round" stroke-linejoin="round" stroke-width="8" class="colorStrokeadadf4 svgStroke"></line></g><g fill="#021b79" class="color000000 svgShape"><path fill="#64affa" d="M1439.52,1595.1l7.64,22.56c.08-.26,.16-.53,.23-.79,4.09-14.37,3.25-21.69-7.87-21.77Z" class="colorfa64f1 svgShape"></path><path fill="#87c0fa" d="M1306.39,1649.86l-14.71,13.32c-1.5,1.36-3.72,1.53-5.4,.41-.18-.12-.38-.23-.56-.35l-19.21,17.47c.16,.05,.32,.1,.47,.16,2.45,.86,3.09,4.03,1.15,5.76l-14.24,12.62c-2.05,1.82-5.06,2.14-7.38,.69-.23-.14-.47-.27-.71-.41l-27.24,24.76c4.03,1.83,8.09,4.06,12.1,6.73l123.58-112.35-21.78,2.07-26.41,24.01c1.67,1.14,1.95,3.64,.35,5.1Z" class="colorfa87f3 svgShape"></path><path fill="#afd5fb" d="M1305.29,1644.38c.28,.1,.52,.23,.75,.38l26.41-24.01-31.48,3-26.95,2.57c-2.6,.25-5.08,1.22-7.15,2.81-2.4,1.84-6.07,4.68-10.65,8.28,18.46-.28,32.75,1.12,49.07,6.97Z" class="colorfbaff7 svgShape"></path><path fill="#cccccc" d="M1466.59,1369.3c-1.04,2.76,.35,5.84,3.1,6.88l.75,.28c2.76,1.04,5.84-.35,6.88-3.1l2.32-6.12,45.18-119.38,.62-1.65c1.04-2.76-.35-5.84-3.1-6.88l-.75-.28c-2.76-1.04-5.84,.35-6.88,3.1l-.82,2.18-45.18,119.38-2.12,5.59Z" class="colorcccccc svgShape"></path><path fill="#f2f2f2" d="M1496.52 1372.69l17.29-23.27 11.85-15.95s31.73 7.91 49.6-12.12c19.01-21.3 13.3-39.88 5.83-51.79-1.05-1.67-2.06-3.18-3.04-4.52l-14.98-4.84-6.61-2.14-31.62-10.21-45.18 119.38 16.87 5.45zM1285.71 1663.24c.19.12.38.23.56.35 1.68 1.12 3.91.94 5.4-.41l14.71-13.32c1.61-1.46 1.33-3.96-.35-5.1-.23-.15-.47-.28-.75-.38-16.32-5.85-30.61-7.24-49.07-6.97-.52 0-1.03.01-1.56.02-2.11.04-4.16.78-5.81 2.09l-17.21 13.72c-1.08.86-.41 2.59.97 2.51.27-.01.53-.02.79-.04 24.55-1.29 41.1.35 52.3 7.53z" class="colorf2f2f2 svgShape"></path><path fill="#afd5fb" d="M1578.04,1265.05c.98,1.34,1.99,2.84,3.04,4.52,7.47,11.92,13.18,30.49-5.83,51.79-17.87,20.03-49.6,12.12-49.6,12.12l.61,151.65c7.95-2.02,16.88-2.98,26.85-2.32,60.17-80.5,141.09-189.05,139.82-188.86,0,0-103.33-44.96-116.69-47.27-9.89-1.71-16.85,6.84-19.8,11.41l6.61,2.14c5.2-4.58,9.69-2.37,14.98,4.84Z" class="colorfbaff7 svgShape"></path><path fill="#f2f2f2" d="M1230.66,1731.03c-4.01-2.67-8.06-4.9-12.1-6.73-21.57-9.81-42.59-8.61-53.73-6.87-17.58,18.27-29.96,34.83-29.04,44.54,0,0,51.65-4.7,116.56-10.69-6.82-8.64-14.19-15.24-21.7-20.25Z" class="colorf2f2f2 svgShape"></path><path fill="#afd5fb" d="M1218.56 1724.3l27.24-24.76c-11.58-6.88-29.75-9.49-53.6-8.45-9.71 8.8-19.11 17.76-27.37 26.34 11.14-1.74 32.16-2.94 53.73 6.87zM1285.71 1663.24c-11.2-7.18-27.76-8.82-52.3-7.53-6.36 5.21-13.17 10.88-20.14 16.84 18.67-.07 36.51 2.33 53.23 8.15l19.21-17.47z" class="colorfbaff7 svgShape"></path><path fill="#f2f2f2" d="M1245.8,1699.54c.23,.14,.48,.27,.71,.41,2.32,1.45,5.34,1.12,7.38-.69l14.24-12.62c1.95-1.73,1.31-4.89-1.15-5.76-.16-.06-.32-.11-.47-.16-16.72-5.82-34.56-8.22-53.23-8.15-1.03,0-2.07,.01-3.11,.03-1.47,.03-2.88,.58-3.98,1.54l-15.97,13.9c-1.26,1.09-.42,3.15,1.24,3.07,.25-.01,.5-.02,.75-.03,23.84-1.04,42.02,1.58,53.6,8.45Z" class="colorf2f2f2 svgShape"></path><path fill="#87c0fa" d="M1517.58,1384.69l.04,18.02c0,1.83-1.23,3.44-3.01,3.89-.19,.05-.38,.12-.58,.17l.1,23.58c.13-.07,.26-.15,.4-.22,2.07-1.13,4.6,.37,4.58,2.73l-.15,17.28c-.02,2.48-1.64,4.71-4.02,5.4-.23,.07-.47,.16-.7,.23l.14,33.42c3.69-1.6,7.65-2.99,11.89-4.06l-.61-151.65-11.85,15.95,.13,32.41c1.79-.43,3.64,.9,3.65,2.87Z" class="colorfa87f3 svgShape"></path><path fill="#f2f2f2" d="M1252.36,1751.28c-64.91,5.99-116.56,10.69-116.56,10.69l1.3,13.66c1.41,14.8,14.55,25.66,29.35,24.25l322.93-30.75c17.13-1.63,28.35-18.69,23.07-35.07l-2.49-7.72c1.09,.9-147.38,14.77-257.6,24.94Z" class="colorf2f2f2 svgShape"></path><path fill="#afd5fb" d="M1513.22,1382.1c.23-.13,.47-.21,.71-.27l-.13-32.41-17.29,23.27-14.49,19.51c-1.42,1.91-2.26,4.17-2.45,6.53-.22,2.74-.53,6.94-.89,12.22,11.04-12.62,20.67-21.4,34.54-28.85Z" class="colorfbaff7 svgShape"></path><path fill="#f2f2f2" d="M1514.04,1406.77c.19-.05,.38-.12,.58-.17,1.78-.45,3.01-2.06,3.01-3.89l-.04-18.02c0-1.97-1.86-3.3-3.65-2.87-.24,.06-.48,.15-.71,.27-13.87,7.45-23.5,16.23-34.54,28.85-.31,.36-.62,.7-.93,1.07-1.26,1.45-2,3.27-2.12,5.19l-1.21,19.94c-.08,1.25,1.5,1.85,2.28,.88,.15-.19,.3-.37,.46-.56,14.06-17.34,25.22-27.5,36.88-30.69Z" class="colorf2f2f2 svgShape"></path><path fill="#64affa" d="M1563.06,1260.21l14.98,4.84c-5.29-7.2-9.78-9.41-14.98-4.84Z" class="colorfa64f1 svgShape"></path><path fill="#f2f2f2" d="M1474.4 1463.4c-.87 1-1.36 2.29-1.38 3.62l-.34 19.23c-.03 1.51 1.87 2.2 2.83 1.03.15-.18.29-.34.44-.52-.02-8.54.1-17.14.33-25.47-.63.7-1.25 1.4-1.87 2.11zM1489.44 1567.89l10 7.43c10.84 8.05 26.15 5.79 34.2-5.05l175.63-236.44c9.32-12.54 4.64-30.49-9.62-36.88l-6.72-3.01c1.27-.19-79.66 108.36-139.82 188.86-35.44 47.41-63.67 85.09-63.67 85.09z" class="colorf2f2f2 svgShape"></path><path fill="#afd5fb" d="M1514.37,1489.18l-.14-33.42c-11.68,3.63-24.49,14.29-38.29,31,.03,11.9,.36,23.69,1.12,34.47,5.6-8.57,17.57-23.47,37.31-32.05Z" class="colorfbaff7 svgShape"></path><path fill="#f2f2f2" d="M1526.26,1485.12c-4.24,1.08-8.2,2.46-11.89,4.06-19.73,8.58-31.71,23.48-37.31,32.05,1.63,22.96,5.27,41.38,12.38,46.66,0,0,28.24-37.68,63.67-85.09-9.97-.66-18.9,.3-26.85,2.32Z" class="colorf2f2f2 svgShape"></path><path fill="#afd5fb" d="M1514.13,1430.35l-.1-23.58c-11.65,3.19-22.82,13.36-36.88,30.69-.35,7.45-.67,15.5-.89,23.82,11.3-12.63,23.78-23.2,37.86-30.94Z" class="colorfbaff7 svgShape"></path><path fill="#f2f2f2" d="M1514.23,1455.76c.23-.07,.47-.16,.7-.23,2.39-.69,4-2.91,4.02-5.4l.15-17.28c.02-2.36-2.51-3.86-4.58-2.73-.13,.07-.26,.15-.4,.22-14.09,7.73-26.56,18.31-37.86,30.94-.22,8.33-.35,16.93-.33,25.47,13.8-16.71,26.61-27.37,38.29-31Z" class="colorf2f2f2 svgShape"></path><path fill="#99ccff" d="M1730.86 487.11c3.47-12.85 16.86-29.47 26.79-41.24 2.92-3.46 5.55-6.51 7.53-8.91 8.71-10.56 35.63-25.34 28.51-33.78-7.13-8.45-14.78-7.13-40.12 4.22-25.34 11.35-60.71 56.75-70.74 72.91-5.48 8.84-12.7 14.54-18.12 17.89l40.67 59.72c6.4-4.01 22.77-13.63 36.05-15.91 16.89-2.9 37.74-15.57 35.37-25.07-2.38-9.5-11.88-7.65-29.83-7.39-12.54.18-17.6-2.73-17.98-10.16-.17-3.21.53-7.26 1.88-12.27zM544.39 665.08c8.4-3.33 12.97-10.39 14.71-17.39l-22.8-1.61-11.25 13.2 11.25-13.2-9.33-15.48 9.33 15.48 22.8 1.61c1.76-7.08.62-14.09-2.39-17.09s-19.09-9.69-37.12-16.92c-1.5 1.31-3.07 3.13-4.4 5.66-3.17 6.05-5.16 34.75-2.49 47.85 9.09.86 20.39 2.37 31.69-2.1zM1153.23 480.27c30.18-1.41 56.84-16.31 72.67-39.07.43-.62.86-1.25 1.28-1.89-.43-.07-.86-.15-1.28-.24-1.25-.27-2.45-.65-3.61-1.12 1.16.47 2.36.85 3.61 1.12.42.09.85.18 1.28.24 1.13.18 2.28.27 3.46.27 12.24 0 22.17-9.93 22.17-22.17 0-6.85-3.11-12.98-7.99-17.04-1.19-.99-2.48-1.86-3.86-2.58-3.08-1.62-6.59-2.54-10.31-2.54-1.63 0-3.21.18-4.74.51v14.39c0 4.01-3.25 7.26-7.26 7.26s-7.26-3.25-7.26-7.26v-17.67s-10.95-1.43-13.59-13.84c0 0-25.24 18.21-44.56 17.68-19.32-.53-18.26-17.68-18.26-17.68 0 0-14.78 16.36-38.8 21.38-1.57.33-3.03.55-4.41.68-8.69.84-13.73-1.96-16.65-5.35-3.71-4.31-4.01-9.58-4.01-9.58 0 0-2.29 1.24-5.66 2.39-.07 1.4-.1 2.81-.1 4.23 0 2.1.03 4.18.09 6.25.42 14.55 2.39 28.41 7.11 40.46 7.35 18.74 21.35 33.06 46.53 38.72 4.29.97 8.92 1.68 13.88 2.12 6.21.55 12.95.68 20.29.34z" class="colorffc599 svgShape"></path><path fill="#afd5fb" d="M1447.39,1616.87c-.07,.26-.16,.52-.23,.79-4.4,14.75-15.53,32.48-46.43,32.64-29.56,.16-46.49-31.63-46.49-31.63l-123.58,112.35c7.51,5.01,14.88,11.61,21.7,20.25,110.22-10.16,258.69-24.04,257.6-24.94,0,0-39.44-117.68-47.4-130.31-6.39-10.13-20.09-8.56-25.27-7.55l2.24,6.62c11.12,.08,11.96,7.4,7.87,21.77Z" class="colorfbaff7 svgShape"></path><path fill="#132360" d="M1075.1,395.34c2.92,3.39,7.96,6.19,16.65,5.35,1.38-.13,2.84-.35,4.41-.68,24.02-5.01,38.8-21.38,38.8-21.38,0,0-1.06,17.16,18.26,17.68,19.32,.53,44.56-17.68,44.56-17.68,2.64,12.41,13.59,13.84,13.59,13.84v17.67c0,4.01,3.25,7.26,7.26,7.26s7.26-3.25,7.26-7.26v-14.39c1.53-.33,3.11-.51,4.74-.51,3.72,0,7.23,.92,10.31,2.54,1.38,.73,2.68,1.59,3.86,2.58,7.95-41.12-6.91-63-6.91-63,0,0,12.01-1.32,10.82-7.65-1.19-6.33-13.33-2.57-13.33-2.57,0,0,7.92-12.74,2.64-15.77-5.28-3.04-10.03,6.47-10.03,6.47-20.06-44.34-69.25-64.31-84.56-57.45-15.31,6.86-8.74,18.21-8.74,18.21,0,0-30.09-22.96-47.51-13.46-17.42,9.5-4.75,22.96-4.75,22.96,0,0-37.83,6.6-44.35,27.45-6.54,20.91,16.38,22.17,16.38,22.17,0,0-21.91,20.32-15.04,40.91,4.78,14.35,18.27,12.16,26.02,9.51,3.37-1.15,5.66-2.39,5.66-2.39,0,0,.3,5.27,4.01,9.58Z" class="color603813 svgShape"></path><path fill="#294bcc" d="M1231.6,490.81c-1.38-2.21-3.39-3.95-5.7-5.31v4.75l5.7,.56Z" class="colorcc8729 svgShape"></path><path fill="#99ccff" d="M640.88,620.74c-46.58-15.55-148.35-49.45-162.12-53.5-17.95-5.28-27.8,17.24-9.15,26.04,9.61,4.53,30.83,12.7,49.98,20.38,18.03,7.23,34.22,14.02,37.12,16.92s4.14,10.02,2.39,17.09h0c-1.74,7-6.31,14.07-14.71,17.39-11.3,4.47-22.6,2.96-31.69,2.1-4.5-.42-8.45-.69-11.6,0-9.5,2.11-8.36,16.98,9.85,23.93,11.03,4.21,39.42,9.15,66.51,2.82,9.55-2.23,23.64-.14,37.88,3.51l23.32-71.8c.57-1.74,1.31-3.38,2.21-4.9Z" class="colorffc599 svgShape"></path><path fill="#294bcc" d="M1144.9,526.62c-2.7,.05-4.83,3.64-4.74,8.02s2.35,7.88,5.05,7.83c2.7-.05,4.83-3.64,4.74-8.02-.09-4.38-2.35-7.88-5.05-7.83Z" class="colorcc8729 svgShape"></path><path fill="#99ccff" d="M1784.71,438.46c-5.01,1.31-17.65,4.8-27.06,7.41-9.93,11.77-23.32,28.39-26.79,41.24-1.35,5.01-2.05,9.06-1.88,12.27,5.07-7.56,11.32-16.39,14.55-19.07,5.98-4.95,30.97-15.81,45.4-23.21,14.43-7.39,7.24-21.64-4.22-18.65Z" class="colorffc599 svgShape"></path><path fill="#54a7fb" d="M1660.4,491.89c-8.08-11.87-24.15-15.13-36.22-7.34l-150.93,97.39-86.34-52.74c-21.51-13.14-44.81-23.08-69.17-29.51l-67.06-17.71c11.06,12.66,12.36,28.81-3.98,46.58-28.94,31.5-60.62,31.5-60.62,31.5,0,0,31.67,0,60.62-31.5,16.33-17.77,15.04-33.92,3.98-46.58-6.42-7.35-15.53-12.92-24.78-15.3v18.82c2.3,1.37,4.32,3.11,5.7,5.31,1.56,2.49,2.32,5.57,1.73,9.41-.56,3.62-3.32,7.24-7.43,10.74-8.14,6.93-21.54,13.37-33.5,18.25,.05,0,.1-.01,.16-.02,2.7-.05,4.97,3.45,5.05,7.83,.09,4.38-2.04,7.97-4.74,8.02,10.05,.56,26.27-10.29,33.03-16.47,.04-.04,.09-.08,.13-.12-.04,.04-.09,.08-.13,.12-6.76,6.18-22.98,17.04-33.03,16.47-2.7,.05-4.97-3.45-5.05-7.83-.06-3.19,1.05-5.96,2.7-7.25-12.77,5.11-23.44,8.34-23.44,8.34-17.07-8.2-27.8-15.69-34.14-22.32-9.81-10.26-9.11-18.46-5.08-24.01,1.4-1.92,3.19-3.53,5.08-4.79v-7.27c-4.97-.44-9.59-1.15-13.88-2.12-4.25,1.9-9.11,4.69-13.36,8.66-5.98,5.59-10.75,13.52-10.84,24.67-.26,30.35,54.81,47.69,54.81,47.69,0,0-55.07-17.33-54.81-47.69,.1-11.14,4.86-19.08,10.84-24.67l-50.29,10.09c-41.69,8.37-79.97,28.88-110.01,58.97l-83.43,83.53-195.98-30.22c-10.19-1.57-20.06,3.33-25.1,11.91-.9,1.52-1.64,3.16-2.21,4.9l-23.32,71.8-5.05,15.55c-4.48,13.8,3.82,28.48,17.96,31.75,62.03,14.34,214.55,49.26,244.25,53.03,36.55,4.63,73.6,22.8,150.79-74.18l4.14-110.58-4.14,110.58-5.94,158.51c-.12,3.1,2.37,5.68,5.47,5.68h303.74c3.12,0,5.61-2.61,5.47-5.72l-8.92-193.43-3.49-75.61,3.49,75.61c32.02,15.39,71.19,34.21,91.53,43.96,38.01,18.21,64.14,29.3,106.11,12.67,33.17-13.14,144.93-99.47,190.34-135.08,10.96-8.59,13.37-24.2,5.53-35.71l-11.26-16.53-40.67-59.72-4.3-6.32Zm-429.45-9.91s9.73,12.25,.64,22.68c9.09-10.44-.64-22.68-.64-22.68Zm-103.09,3.53s-7.13,7.4-2.3,18.49c-4.83-11.1,2.3-18.49,2.3-18.49Zm17.35,56.97c-3.89,0-8.2-1.97-12.26-4.66-8.74-5.78-16.36-14.89-16.36-14.89,0,0,7.62,9.11,16.36,14.89,4.07,2.69,8.37,4.66,12.26,4.66-2.7,.05-4.97-3.45-5.05-7.83s2.04-7.97,4.74-8.02c2.7-.05,4.97,3.45,5.05,7.83,.09,4.38-2.04,7.97-4.74,8.02Z" class="colorfbb454 svgShape"></path><path fill="#99ccff" d="M1153.23,480.27c-7.34,.34-14.08,.21-20.29-.34v11.56l-5.08,.5c-4.03,5.55-4.73,13.75,5.08,24.01,6.34,6.63,17.07,14.12,34.14,22.32,0,0,10.66-3.23,23.44-8.34,.57-.45,1.2-.71,1.88-.76,11.96-4.89,25.36-11.32,33.5-18.25,4.11-3.5,6.88-7.13,7.43-10.74,.59-3.83-.17-6.92-1.73-9.41l-5.7-.56v-49.05c-15.83,22.75-42.49,37.65-72.67,39.07Z" class="colorffc599 svgShape"></path><polygon fill="#99ccff" points="1288.36 1586.49 1428.45 1562.42 1415.3 1523.56 1274.44 1545.38 1288.36 1586.49" class="colorffc599 svgShape"></polygon><path fill="#80bfff" d="M1453.07,1358.66l15.63,5.05,45.18-119.38-18.35-5.93-41.83,118.62c-.2,.56-.41,1.1-.63,1.64Z" class="colorffb680 svgShape"></path><path fill="#acd5ff" d="M1393.65,1368.76l14.98,7.07c17.1,8.07,37.32,.09,44.44-17.17,.22-.54,.43-1.08,.63-1.64l41.83-118.62,4.17-11.83c5.59-15.84-1.65-33.34-16.8-40.61l-151.33-72.61c.52,45.03,.73,78.32,.73,78.32l61.34,177.1Z" class="colorffacb7 svgShape"></path><path fill="#cccccc" d="M1282.7,1587.47c-3.07,.53-5.14,3.45-4.61,6.52l.03,.18c.53,3.07,3.45,5.14,6.52,4.61l7.44-1.28,140.09-24.07,3.49-.6c3.07-.53,5.14-3.45,4.61-6.52l-.03-.18c-.53-3.07-3.45-5.14-6.52-4.61l-5.27,.91-140.09,24.07-5.66,.97Z" class="colorcccccc svgShape"></path><path fill="#f2f2f2" d="M1300.97,1623.74l31.48-3,21.78-2.07s16.93,31.79,46.49,31.63c30.9-.16,42.03-17.89,46.43-32.64l-7.64-22.56-2.24-6.62-5.1-15.06-140.09,24.07,8.88,26.24Z" class="colorf2f2f2 svgShape"></path><path fill="#0575e6" d="M1192.4,529.21c-.67,.05-1.31,.32-1.88,.76,.62-.25,1.25-.5,1.88-.76Z" class="color29abe2 svgShape"></path><path fill="#294bcc" d="M1132.94 487.19c-1.89 1.26-3.69 2.87-5.08 4.79l5.08-.5v-4.29zM1187.81 537.22c.09 4.38 2.35 7.88 5.05 7.83s4.83-3.64 4.74-8.02c-.09-4.38-2.35-7.88-5.05-7.83-.05 0-.1.01-.16.02-.63.26-1.26.51-1.88.76-1.65 1.29-2.77 4.06-2.7 7.25z" class="colorcc8729 svgShape"></path><path fill="#acd5ff" d="M1000.27,1138.79c2.23,57.48,62.21,103.15,118.28,133.45-9.88-30.94-15.93-56.06-15.07-69.31,3.79-58.58,15.84-230.42,15.84-230.42,0,0-12.04,171.85-15.84,230.42-.86,13.25,5.19,38.37,15.07,69.31,27.45,85.96,84.44,216.86,104.89,263.04,4.41,9.95,14.94,15.69,25.69,14.03l25.32-3.92,140.85-21.82,1.85-.29c14.84-2.3,23.97-17.47,19.06-31.66l-42.55-122.85-61.34-177.1s-.2-33.28-.73-78.32c-.88-76.43-2.67-186.69-5.91-225.57h-302.77c-4.83,27.04-26.39,154.33-22.63,251.01Zm146.93-172.35c-18.12,6.33-36.25,6.33-54.37,0,18.12,6.33,36.25,6.33,54.37,0Z" class="colorffacb7 svgShape"></path><path fill="#99ccff" d="M1055.03,417.41c0,10.64,7.5,19.53,17.5,21.67-4.72-12.04-6.69-25.9-7.11-40.46-6.24,3.92-10.39,10.86-10.39,18.78Z" class="colorffc599 svgShape"></path><path fill="#b3d9ff" d="M1138.89,479.93c3.04,.27,6.21,.44,9.52,.49-5.5,.1-10.64-.06-15.46-.49-4.97-.44-9.6-1.15-13.88-2.13-25.18-5.66-39.18-19.98-46.53-38.72-4.72-12.04-6.69-25.9-7.11-40.45-.05-2.07-.08-4.16-.08-6.26,0-1.41,.04-2.82,.1-4.22,3.36-1.15,5.65-2.38,5.65-2.38,0,0,.05,.94,.39,2.35-.04,0-.07,.03-.11,.04-.06,1.4-.1,2.81-.1,4.22,0,2.1,.03,4.19,.08,6.26,.42,14.55,2.39,28.41,7.11,40.45,7.35,18.74,21.35,33.06,46.53,38.72,4.29,.97,8.92,1.69,13.88,2.13Z" class="colorffd3b3 svgShape"></path><path fill="#87c0fa" d="M1509.95,1726.34c.64,.52-50,5.5-114.22,11.58,104.93-21.82,67.32-140.3,66.83-141.87,7.99,12.72,47.39,130.29,47.39,130.29Z" opacity=".5" class="colorfa87f3 svgShape"></path><path fill="#e6e6e6" d="M1489.38 1769.13l-322.94 30.74c159.57-15.84 202.83-55.74 206.88-59.84 73.41-6.9 135.62-12.94 136.63-13.67l2.49 7.7c5.29 16.38-5.94 33.44-23.07 35.07zM1709.28 1333.83l-173.83 234.01c75.1-101.7 77.14-159.76 77.17-164.76 43.3-58.13 81.19-109.27 80.32-109.14l6.72 3.02c14.26 6.4 18.94 24.34 9.62 36.88zM1252.35 1751.28c-64.91 5.98-116.56 10.69-116.56 10.69-.06-.67-.06-1.37 0-2.09 21.31 0 85.32-14.45 106.68-19.42 3.38 3.19 6.69 6.78 9.88 10.82zM1553.11 1482.8c-35.43 47.41-63.68 85.09-63.68 85.09-1.11-.82-2.14-1.97-3.08-3.41 18.28-24.23 42.48-64.27 52.72-81.55 4.43-.39 9.1-.47 14.03-.14z" class="colore6e6e6 svgShape"></path><path fill="#87c0fa" d="M1607.14,1410.42c77.04-105.01-30.89-163.75-30.89-163.75,13.36,2.31,116.69,47.27,116.69,47.27,.91-.13-40.26,55.39-85.8,116.48Z" opacity=".5" class="colorfa87f3 svgShape"></path><path fill="#e6e6e6" d="M1447.16 1617.66c-4.4 14.76-15.53 32.48-46.43 32.64-13.86.07-24.94-6.86-32.8-14.27 70.98 23.72 55.43-48.3 55.43-48.3l-131.27 9.77 140.09-24.08 5.1 15.06 2.24 6.62 7.64 22.55zM1575.25 1321.36c-17.87 20.02-49.61 12.12-49.61 12.12l-11.84 15.95-17.28 23.27-16.88-5.44 22.75-60.09 2.33 27.86 30.74-17.8c65.89-5.28 27.6-57 27.6-57l14.98 4.84c.98 1.34 2 2.84 3.04 4.52 7.47 11.91 13.18 30.48-5.83 51.79z" class="colore6e6e6 svgShape"></path><path fill="#94c9ff" d="M1103.47,1202.92c-.05,.83-.08,1.72-.08,2.66,0,13.79,5.89,37.67,15.15,66.65-2.64-1.43-5.29-2.89-7.94-4.38-11.66-21.23-20.2-38.8-22.97-57.27-4.81-32.06,19.8-229.91,19.8-229.91-14.78-7.66-14.61-14.24-14.61-14.24,7.95,2.6,14.5,3.79,19.1,4.33,.05,0,.11,.02,.16,.02,4.38,.5,6.95,.4,7.2,.39t.02,0l.1,1.14-.1,.19s-12.04,171.85-15.84,230.42Z" class="colorff94a2 svgShape"></path><path fill="#94c9ff" d="M1480.52,1280.99l-26.82,76.03c-.2,.56-.41,1.1-.63,1.64-7.12,17.26-27.35,25.24-44.44,17.17l-14.98-7.07-61.34-177.11s-.2-33.28-.72-78.31l10.72,5.15,7.42,72.03,84.99,147.28s32.27-23.88,45.8-56.81Z" opacity=".5" class="colorff94a2 svgShape"></path><path fill="#94c9ff" d="M1484.72 1269.07l-1.25 3.51c.46-1.58.88-2.73 1.25-3.51zM1417.14 1523.27l-1.85.28-140.85 21.83-25.31 3.92c75.42-11.51 105.96-53.94 118.32-86.66 7.6-20.11 7.81-42.25.76-62.56l-67.64-194.68c-2.57-7.41-3.87-15.2-3.83-23.04l1.13-237.62c.08-16.3-12.22-29.99-28.44-31.66l-246.52-25.31h302.76c3.24 38.88 5.03 149.15 5.91 225.57.52 45.04.72 78.31.72 78.31l61.34 177.11 42.56 122.85c4.91 14.19-4.22 29.35-19.06 31.65z" class="colorff94a2 svgShape"></path><path fill="#3f66fb" d="M1711.1 610.17c-45.4 35.61-157.17 121.94-190.34 135.08-41.97 16.63-68.09 5.54-106.1-12.67-20.35-9.75-59.52-28.58-91.54-43.96l-3.48-73.14 23.22 54.54 105.56 55.06c25.28 13.18 55.82 11.07 79.05-5.46l163.8-116.64s16.05-40.04-6.23-74.92l20.34 29.86 11.25 16.53c7.85 11.51 5.43 27.12-5.53 35.71zM1027.45 613.01l-4.14 110.58c-77.19 96.98-114.25 78.82-150.79 74.18-29.7-3.76-182.22-38.68-244.26-53.03-14.14-3.26-22.44-17.94-17.95-31.75l5.05-15.54 8.79-27.06c-.1.62-.24 1.32-.44 2.1-7.4 29.21 6.68 53.49 6.68 53.49l240.81 53.73c32.88 7.34 67.24-2.27 91.56-25.58l37.07-35.55 27.62-105.58z" class="colorfbab3f svgShape"></path><path fill="#80bfff" d="M1225.9 441.2v2.6c-4.48 12.66-23.18 47.68-92.95 47.68v-11.56c6.2.55 12.94.68 20.28.34 30.18-1.41 56.84-16.31 72.67-39.07zM1196.82 527.34l-.03.04c-1.48.63-2.94 1.25-4.39 1.84-.68.05-1.31.31-1.88.76-12.78 5.11-23.44 8.34-23.44 8.34-17.06-8.19-27.8-15.69-34.13-22.32-9.82-10.26-9.11-18.46-5.09-24.01l5.09-.5s-1.01 25.52 35.68 40.71l28.19-4.86zM1072.53 439.08c-2.03-.43-3.94-1.15-5.72-2.1-3.14-14.23-3.25-30.35-3.13-37.14.56-.43 1.14-.84 1.74-1.22.42 14.55 2.39 28.41 7.11 40.45zM1199.62 383.79c-10.03 8.36-24.85 18.46-39.27 20.04-25.2 2.78-28.91-13.45-28.91-13.45 0 0-18.73 16.36-41.43 16.5-22.7.13-24.57-18.73-24.57-18.73 3.36-1.15 5.65-2.38 5.65-2.38 0 0 .29 5.27 4 9.58 2.92 3.39 7.96 6.19 16.66 5.35 1.37-.14 2.84-.35 4.41-.68 24.02-5.01 38.8-21.38 38.8-21.38 0 0-1.06 17.16 18.26 17.69 19.32.52 44.56-17.69 44.56-17.69.42 1.99 1.06 3.69 1.83 5.16z" class="colorffb680 svgShape"></path><path fill="none" stroke="#325cfb" stroke-linecap="round" stroke-linejoin="round" stroke-width="4" d="M1226.59 510.64c4.11-3.5 6.88-7.13 7.43-10.74.59-3.83-.17-6.92-1.73-9.41M1226.59 510.64c-8.14 6.93-21.54 13.37-33.5 18.25M1191.2 529.65c.62-.25 1.25-.5 1.88-.76" class="colorStrokefba632 svgStroke"></path><path fill="#325cfb" d="M1230.59 491.55c-.57-1.28-1.43-2.5-2.49-3.61-.56-.57-.55-1.49.03-2.04.49-.47 1.22-.52 1.76-.17 1.5.97 2.92 2.18 4.09 3.69 1.84 2.42-2.02 4.84-3.39 2.12h0zM1132.41 489.43c-.9 1.07-1.67 2.22-2.24 3.4-.49 1.01-1.71 1.43-2.71.94-1.23-.57-1.52-2.27-.58-3.23 1.17-1.22 2.47-2.26 3.83-3.11.62-.39 1.44-.2 1.83.42.32.51.25 1.15-.12 1.58h0z" class="colorfba632 svgShape"></path><path fill="none" stroke="#325cfb" stroke-linecap="round" stroke-linejoin="round" stroke-width="4" d="M1128.55 491.66c-4.03 5.55-4.73 13.75 5.08 24.01M1133.63 515.67c6.34 6.63 17.07 14.12 34.14 22.32 0 0 10.66-3.23 23.44-8.34" class="colorStrokefba632 svgStroke"></path><path fill="#325cfb" d="M1104.65 489.89c-4.92 6.27-7.41 14.2-6.95 22.14.34 7.96 5.07 14.88 10.66 20.38 11.76 11.41 27.4 18.43 42.44 24.66.79.29 1.19 1.18.88 1.96-.28.71-1.05 1.08-1.77.88-8.27-2.22-16.11-5.52-23.66-9.5-11.18-6.12-22.64-13.74-29.08-25.26-4.41-7.83-4.68-17.63-1.8-26.07 1.49-4.23 4.08-8.06 7.28-11.02.55-.51 1.41-.48 1.92.08.46.49.48 1.24.08 1.75h0zM1254.51 483.56c11.76 13.05 7.67 30.44-2.67 42.88-9.71 11.62-21.94 21.18-35.66 27.66-9.29 4.16-19.09 7.11-29.41 7.07-.79-.01-1.43-.66-1.42-1.46.01-.79.65-1.4 1.42-1.42 2.28-.23 4.72-.6 7.06-1.13 16.56-3.55 31.97-11.74 44.47-23.15 15.17-13.63 26.19-29.02 14.19-48.96-.82-1.29 1.02-2.67 2.02-1.49h0z" class="colorfba632 svgShape"></path><path fill="none" stroke="#325cfb" stroke-linecap="round" stroke-linejoin="round" stroke-width="4" d="M1145.9 542.15c2.7-.05 4.83-3.64 4.74-8.02-.09-4.38-2.35-7.88-5.05-7.83-2.7.05-4.83 3.64-4.74 8.02.09 4.38 2.35 7.88 5.05 7.83M1191.2 529.65c-1.65 1.29-2.77 4.06-2.7 7.25.09 4.38 2.35 7.88 5.05 7.83M1193.55 544.73c2.7-.05 4.83-3.64 4.74-8.02-.09-4.38-2.35-7.88-5.05-7.83-.05 0-.1.01-.16.02M1191.2 529.65c.57-.45 1.2-.71 1.88-.76" class="colorStrokefba632 svgStroke"></path><path fill="#325cfb" d="M1132.53,539.16c-6.46-4.03-11.71-9.69-16.18-15.79-.82-1.16,.79-2.55,1.81-1.56,2.63,2.5,5.35,5,8.12,7.35,2.77,2.33,5.61,4.55,8.5,6.7,1.97,1.54-.1,4.57-2.25,3.3h0Z" class="colorfba632 svgShape"></path><path fill="none" stroke="#325cfb" stroke-linecap="round" stroke-linejoin="round" stroke-width="4" d="M1145.9,542.15c-3.89,0-8.2-1.97-12.26-4.66" class="colorStrokefba632 svgStroke"></path><path fill="#325cfb" d="M1226.53,532.11c-8.48,7.04-21.72,15.02-33.09,14.61-2.55-.22-2.42-3.96,.14-3.99,8.4-.2,16.46-4.5,23.81-8.39,2.56-1.39,5.08-2.87,7.58-4.37,1.38-.82,2.77,1.09,1.56,2.15h0Z" class="colorfba632 svgShape"></path><line x1="1323.59" x2="1320.33" y1="683.4" y2="612.69" fill="none" stroke="#325cfb" stroke-linecap="round" stroke-linejoin="round" stroke-width="4" class="colorStrokefba632 svgStroke"></line><line x1="1024" x2="1028.14" y1="718.64" y2="612.69" fill="none" stroke="#325cfb" stroke-linecap="round" stroke-linejoin="round" stroke-width="4" class="colorStrokefba632 svgStroke"></line><path fill="none" stroke="#80bfff" stroke-linecap="round" stroke-linejoin="round" stroke-width="4" d="M1393.11 1364.9l-60.12-173.56s-.2-30.14-.73-75.17M1119.99 972.18s-12.04 171.85-15.84 230.42c-.86 13.25 3.8 33.97 13.68 64.91" class="colorStrokeff8090 svgStroke"></path><path fill="none" stroke="#80bfff" stroke-linecap="round" stroke-linejoin="round" stroke-width="5" d="M1756.31 447.96c-9.64 11.55-21.52 26.83-24.76 38.82-.65 2.41-1.15 4.61-1.48 6.59M559.79 647.36c-1.74 7-6.31 14.07-14.71 17.39-10.22 4.04-20.43 3.2-29.02 2.36M559.79 647.36c1.76-7.08.62-14.09-2.39-17.09-2.78-2.78-17.78-9.14-34.9-16.03" class="colorStrokeffb680 svgStroke"></path><line x1="536.99" x2="525.74" y1="645.75" y2="658.95" fill="none" stroke="#80bfff" stroke-linecap="round" stroke-linejoin="round" stroke-width="5" class="colorStrokeffb680 svgStroke"></line><line x1="527.66" x2="536.99" y1="630.27" y2="645.75" fill="none" stroke="#80bfff" stroke-linecap="round" stroke-linejoin="round" stroke-width="5" class="colorStrokeffb680 svgStroke"></line><line x1="536.99" x2="559.79" y1="645.75" y2="647.36" fill="none" stroke="#80bfff" stroke-linecap="round" stroke-linejoin="round" stroke-width="5" class="colorStrokeffb680 svgStroke"></line><line x1="559.79" x2="559.79" y1="647.36" y2="647.36" fill="none" stroke="#80bfff" stroke-linecap="round" stroke-linejoin="round" stroke-width="5" class="colorStrokeffb680 svgStroke"></line><path fill="none" stroke="#80bfff" stroke-linecap="round" stroke-linejoin="round" stroke-width="4" d="M1093.51,966.11c18.12,6.33,36.25,6.33,54.37,0" class="colorStrokeff8090 svgStroke"></path><path fill="#325cfb" d="M1129.14 485.74c-2.72 3.59-3.74 8.56-2.61 12.94.31 1.46.93 2.84 1.56 4.19.57 1.05.16 2.38-.96 2.85-1.09.47-2.37-.12-2.71-1.26-.56-1.71-1.09-3.42-1.25-5.21-.45-3.52.19-7.21 1.77-10.36.79-1.58 1.74-2.99 3.02-4.29.32-.32.84-.33 1.16 0 .32.32.32.82.02 1.15h0zM1232.47 480.99c4.06 5.17 6.56 12.09 4.55 18.62-.6 2.25-1.89 4.2-3.23 6.04-.65.89-1.91 1.09-2.8.43-1.01-.72-1.08-2.19-.22-3.06 5.68-5.7 4.27-14.64 0-20.77-.74-1.11.85-2.3 1.7-1.26h0z" class="colorfba632 svgShape"></path><path fill="#80bfff" d="M1741.42 542.01c-13.27 2.28-29.65 11.9-36.04 15.91l-40.66-59.72 54.89 38.09s43.64 5.28 57.19-19.36c2.38 9.5-18.48 22.17-35.37 25.07zM640.88 620.74c-.89 1.52-1.64 3.16-2.2 4.9l-23.31 71.81c-14.25-3.65-28.34-5.75-37.89-3.52-27.1 6.34-55.48 1.4-66.52-2.81-5.7-2.17-9.73-5.12-12.28-8.22 18.91 12.34 57.11 8.24 69.78 2.96 5.88-2.45 14-2.97 21.01-2.82 9.35.2 18.08-4.61 22.76-12.7l28.65-49.6z" class="colorffb680 svgShape"></path><polygon fill="#80bfff" points="1274.44 1545.39 1278.88 1558.5 1428.45 1562.42 1415.29 1523.56 1274.44 1545.39" class="colorffb680 svgShape"></polygon><path fill="#80bfff" d="M1243.44,423.72s-1.59-3.01-3.62-4.18c.34-6.76-2.21-11.86-2.21-11.86-9.86,11.21,0,20.68,0,20.68,.9-1.9,1.48-3.77,1.82-5.58,.91-.35,2.93-.11,4.01,.94Z" class="colorffb680 svgShape"></path><path fill="#5e80ff" d="M1238.86,408.66c-2.67,4.32-3.97,9.08-2.25,13.94,.54,1.58,1.35,3.18,2.27,4.8,.83,1.43-1.03,2.98-2.28,1.94-7.97-6.29-7.87-16.34,0-22.66,1.3-1.08,3.16,.56,2.26,1.97h0Z" class="colorffa25e svgShape"></path><path fill="#5e80ff" d="M1232.89,416.18c3.44-.38,6.93,.82,9.36,3.26,1,1.18,3.38,3.29,1.52,4.65-.71,.45-1.63,.21-2.07-.48-.94-1.35-2.14-2.49-3.63-3.14-1.36-.63-3.11-.86-4.56-.61-2.52,.45-3.16-3.29-.62-3.69h0Z" class="colorffa25e svgShape"></path><path fill="#80bfff" d="M1227.18,439.31c-.42,.63-.84,1.26-1.28,1.89-.71,1.02-1.44,2.02-2.2,3.01l1.45-4.21-2.86-2.05c.1,.04,.19,.08,.29,.11,1.37,.49,4,1.12,4.51,1.24,.03,0,.06,0,.09,.02Z" class="colorffb680 svgShape"></path><path fill="#1f3999" d="M1175.49,265.52h0s-19.76-7.64-31.29-1.09c-11.63,6.61,1.26,24.96,1.74,25.67-1.07-.78-40.65-29.58-55.58-20.57-15.13,9.15,7.4,21.29,7.4,21.29,0,0-39.34,5.1-51.56,22.17-12.22,17.07,19.25,21.56,19.25,21.56,0,0-19.25,16.46-21.1,34.58-1.54,15.04,13.2,20.81,13.2,20.81-6.98,.71-14.74-1.15-18.12-11.31-6.86-20.58,15.05-40.91,15.05-40.91,0,0-22.92-1.26-16.38-22.17,6.52-20.85,44.35-27.45,44.35-27.45,0,0-12.67-13.46,4.76-22.97,17.42-9.5,47.51,13.46,47.51,13.46,0,0-6.57-11.36,8.74-18.21,6.35-2.85,18.52-1.08,32.04,5.13Z" class="color99581f svgShape"></path><path fill="#091a59" d="M1237.9,337.37s14.87,21.87,6.91,62.99c-1.18-.99-2.48-1.85-3.86-2.58-3.08-1.62-6.59-2.55-10.31-2.55-1.63,0-3.22,.18-4.75,.51v14.39c0,4-3.24,7.26-7.26,7.26s-7.26-3.25-7.26-7.26v-17.67s-10.95-1.43-13.59-13.84c0,0-25.24,18.21-44.56,17.69,22.84-3.96,34.71-24.82,34.71-24.82-8.18-.79-13.73-7.92-13.73-7.92,44.87,6.08,52.97-27.97,52.97-27.97,18.13-3.17,15.8-9.57,15.8-9.57h0c2.72,.1,5.23,.95,5.74,3.67,1.19,6.34-10.82,7.66-10.82,7.66Z" class="color592f09 svgShape"></path><path fill="none" stroke="#325cfb" stroke-linecap="round" stroke-linejoin="round" stroke-width="4" d="M1145.9 534.54s22.77 20.4 13.53 64.48M1193.08 537.12s-21.08 10.78-18.97 69.91" class="colorStrokefba632 svgStroke"></path><path fill="#1948fb" d="M1160.38 610.27l-6.52-1.39c-.64-.14-1.03-.78-.85-1.41l2.52-8.96c.16-.57.74-.92 1.32-.8l5.37 1.14c.58.12.97.68.88 1.27l-1.36 9.21c-.1.64-.71 1.07-1.35.94zM1177.81 616.19l-6.66.22c-.65.02-1.18-.51-1.17-1.16l.28-9.31c.02-.6.5-1.07 1.09-1.09l5.48-.18c.6-.02 1.1.43 1.16 1.02l.89 9.27c.06.65-.44 1.22-1.09 1.24z" class="colorfb9b19 svgShape"></path><path fill="#b3d9ff" d="M1252.81,417.41c0,8.51-4.8,15.91-11.84,19.61,22.09-20.2-.02-39.23-.02-39.23,1.37,.72,2.68,1.59,3.86,2.58,4.88,4.07,8,10.19,8,17.05Z" class="colorffd3b3 svgShape"></path><line x1="1474.68" x2="1485.98" y1="585.85" y2="607.08" fill="none" stroke="#325cfb" stroke-linecap="round" stroke-linejoin="round" stroke-width="4.32" class="colorStrokefba632 svgStroke"></line><line x1="861.17" x2="854.72" y1="643.6" y2="666.77" fill="none" stroke="#325cfb" stroke-linecap="round" stroke-linejoin="round" stroke-width="4.32" class="colorStrokefba632 svgStroke"></line><path fill="#3f66fb" d="M1332.04,882.06c.15,3.12-2.34,5.72-5.46,5.72h-303.74c-3.11,0-5.58-2.58-5.47-5.67,93.61,0,164.39-12.71,210.88-24.96,39.13-10.31,68-43.46,72.75-83.65l18.64-158.01,3.82,80.53,8.58,186.04Z" class="colorfbab3f svgShape"></path></g></g></svg>