<svg xmlns="http://www.w3.org/2000/svg" data-name="Layer 1" viewBox="0 0 1400 1200" id="Onlineshoppingandpayment"><defs><clipPath id="a"><polygon fill="none" points="344.853 833.915 189.824 826.982 226.893 737.721 381.921 744.654 344.853 833.915" data-name="SVGID"></polygon></clipPath></defs><path fill="#d7e5f4" d="M1133.66434,647.74588C1028.64494,885.61361,813.2845,873.38732,645.89087,904.19683c-265.90347,48.94066-509.311,69.03129-490.64947-151.1564,5.71906-67.47957,50.62978-140.63353,224.39407-141.05581C687.5801-21.05644,1275.681,326.07939,1133.66434,647.74588Z" class="colorf4dbd7 svgShape"></path><path fill="#557da6" d="M1149.4195,844.20949c-29.48041-126.79656-191.56367-120.49379-227.39328-73.924s-124.39278,91.74562-124.39278,91.74562H1149.4195Z" class="color55a69f svgShape"></path><path fill="#557da6" d="M797.63344,837.656c43.01363,47.01942,185.35574,18.22846,265.35551-54.95586s109.983-170.62861,66.96936-217.648-142.73566-25.80851-222.73543,47.37582S754.61981,790.63653,797.63344,837.656Z" class="color55a69f svgShape"></path><ellipse cx="918.646" cy="543.417" fill="#557da6" rx="299.8" ry="88.139" transform="rotate(-70.637 918.646 543.417)" class="color55a69f svgShape"></ellipse><ellipse cx="747.051" cy="512.703" fill="#557da6" rx="151.002" ry="241.918" transform="rotate(-21.76 747.05 512.703)" class="color55a69f svgShape"></ellipse><path fill="#d7e5f4" d="M894.169 618.85386a1.91723 1.91723 0 01-1.81069-2.54375L999.26124 307.80872a1.91619 1.91619 0 013.62126 1.25441L895.97961 617.56452A1.91707 1.91707 0 01894.169 618.85386zM1003.36938 390.838a1.91612 1.91612 0 01-.2047-3.821l52.89078-5.74884a1.9161 1.9161 0 01.41395 3.80978l-52.89089 5.74883A1.97276 1.97276 0 011003.36938 390.838z" class="colorf4dbd7 svgShape"></path><path fill="#d7e5f4" d="M967.21 418.12654a1.91643 1.91643 0 01-.2496-3.81622l76.44064-10.13986a1.9163 1.9163 0 11.50376 3.79934l-76.44064 10.13986A1.94449 1.94449 0 01967.21 418.12654zM947.622 395.43706a1.91373 1.91373 0 01-1.54117-.775l-34.09911-46.0125a1.91631 1.91631 0 013.07929-2.28186l34.09911 46.0125a1.91611 1.91611 0 01-1.53812 3.05689zM950.97334 454.9319a1.91255 1.91255 0 01-1.51913-.74667L913.2743 407.23966a1.91592 1.91592 0 013.03509-2.33906l36.18 46.94557a1.91625 1.91625 0 01-1.51607 3.08573zM819.82479 599.12573a1.91586 1.91586 0 01-1.67505-.98231L657.593 310.51978a1.91632 1.91632 0 113.34646-1.86826L821.4962 596.27517a1.91653 1.91653 0 01-1.67141 2.85056zM780.49784 407.98668a1.917 1.917 0 01-1.80085-2.57107l26.11942-71.855a1.91617 1.91617 0 113.6018 1.30916l-26.11953 71.855A1.91655 1.91655 0 01780.49784 407.98668zM773.09118 499.53383a1.917 1.917 0 01-1.76989-2.64927l57.16855-138.09294a1.91616 1.91616 0 113.54107 1.46543L774.86248 498.35011A1.91694 1.91694 0 01773.09118 499.53383zM697.42594 430.48718H648.96171a1.91614 1.91614 0 010-3.83228h48.46423a1.91614 1.91614 0 110 3.83228zM670.335 387.96335H585.92616a1.91614 1.91614 0 010-3.83228H670.335a1.91614 1.91614 0 010 3.83228zM952.63455 741.58508a1.91615 1.91615 0 01-1.4-3.22372l169.71981-181.76168a1.916 1.916 0 112.80085 2.61527L954.03539 740.97651A1.91048 1.91048 0 01952.63455 741.58508z" class="colorf4dbd7 svgShape"></path><path fill="#d7e5f4" d="M1074.73891 610.81579a1.91611 1.91611 0 01-1.9094-1.78068l-5.37744-75.79022a1.91607 1.91607 0 113.82256-.27093l5.37743 75.79022a1.91584 1.91584 0 01-1.77575 2.04668C1074.83024 610.81426 1074.78428 610.81579 1074.73891 610.81579zM1145.32825 617.93088c-.05839 0-.11712-.00258-.17656-.00786l-40.96027-3.74236a1.91624 1.91624 0 11.34878-3.81658l40.96027 3.74237a1.91619 1.91619 0 01-.17222 3.82443zM1140.76665 658.14565a1.91268 1.91268 0 01-.25194-.01688l-99.77338-13.11129a1.916 1.916 0 11.49918-3.79934l99.7735 13.11129a1.91629 1.91629 0 01-.24736 3.81622zM1037.49322 862.25237a1.91689 1.91689 0 01-1.71186-2.77435l34.55726-69.01558a1.916 1.916 0 013.42654 1.71561L1039.208 861.19363A1.91568 1.91568 0 011037.49322 862.25237z" class="colorf4dbd7 svgShape"></path><path fill="#d7e5f4" d="M1051.02152 835.23776a1.9163 1.9163 0 01-.62017-3.72936l77.4866-26.50453a1.916 1.916 0 111.24034 3.62572l-77.48672 26.50453A1.91146 1.91146 0 011051.02152 835.23776zM1104.36587 841.33267a1.91631 1.91631 0 01-.62275-3.72853l35.38728-12.16122a1.91617 1.91617 0 011.2455 3.62431l-35.38728 12.1611A1.919 1.919 0 011104.36587 841.33267zM993.25378 332.918a1.91568 1.91568 0 01-1.73308-1.09626l-12.32464-26.015a1.9161 1.9161 0 113.46323-1.64069l12.32476 26.01507a1.91692 1.91692 0 01-1.73027 2.73684zM708.73346 400.11438a1.91982 1.91982 0 01-1.90425-2.14809l9.77233-80.20376a1.916 1.916 0 013.80392.46331l-9.77233 80.20376A1.91637 1.91637 0 01708.73346 400.11438zM739.54671 350.04837a1.91775 1.91775 0 01-1.89228-2.23238l9.05942-54.19723a1.91615 1.91615 0 113.77988.63166l-9.05942 54.19735A1.91661 1.91661 0 01739.54671 350.04837z" class="colorf4dbd7 svgShape"></path><polygon fill="#476bf4" points="843.507 863.295 458.956 863.295 511.471 453.016 790.992 453.016 843.507 863.295" class="colorf46247 svgShape"></polygon><path fill="#6875a4" d="M644.34536,639.96513h-.02473c-20.01431-.00867-37.53315-12.61515-45.71976-32.9-8.2627-20.47468-10.49919-42.42277-12.66194-63.64858-.86-8.43773-1.7489-17.16292-3.00519-25.58084-.1347-.9027-.27433-1.93378-.42662-3.06181-1.04491-7.72518-3.21926-23.80052-9.70984-27.26117-.74327-.396-3.00566-1.603-7.81428.76121a3.9977,3.9977,0,1,1-3.52618-7.17582c5.62984-2.76615,10.71173-2.98128,15.10193-.64034,10.10352,5.38647,12.462,22.82524,13.87156,33.24471.147,1.08794.28137,2.08232.41126,2.95279,1.2836,8.60244,2.18221,17.42189,3.05162,25.95059,2.10624,20.67082,4.28434,42.04481,12.12218,61.46708,7.04674,17.46093,21.36766,27.88966,38.309,27.89681h.021c16.84264,0,29.72309-8.76939,39.38276-26.81181,8.1702-15.26,13.63193-36.714,16.23407-63.76569.23318-2.42172.39555-5.44414.56812-8.6443.53928-10.01336,1.21033-22.47506,4.57438-32.91093,4.3031-13.34869,12.15032-20.30587,23.32384-20.67938a3.99771,3.99771,0,1,1,.26718,7.99095c-4.81694.16085-11.71421,1.90565-15.98143,15.14156-3.046,9.44865-3.686,21.33577-4.20017,30.88782-.177,3.2862-.34432,6.39058-.59321,8.97994-2.7039,28.11006-8.4722,50.57609-17.14416,66.77394C679.75211,629.52363,664.13,639.96466,644.34536,639.96513Z" class="colora48268 svgShape"></path><polygon fill="#76b5f5" points="687.58 863.295 364.074 863.295 408.252 518.145 643.402 518.145 687.58 863.295" class="color76a6f5 svgShape"></polygon><path fill="#5f688c" d="M473.53539,518.71963H408.2521a.57486.57486,0,0,1,0-1.14972h65.28329a.57486.57486,0,0,1,0,1.14972Z" class="color5f628c svgShape"></path><path fill="#5f688c" d="M406.19381 534.80739a.60241.60241 0 01-.07374-.00457.57557.57557 0 01-.49743-.64326l2.05911-16.08777a.575.575 0 111.14069.146l-2.05911 16.08776A.57539.57539 0 01406.19381 534.80739zM508.45186 518.71963h-16.663a.57486.57486 0 010-1.14972h16.663a.57486.57486 0 010 1.14972zM613.33867 518.71963H525.827a.57486.57486 0 010-1.14972h87.51169a.57486.57486 0 010 1.14972zM643.40151 518.71963H630.20077a.57486.57486 0 110-1.14972h13.20074a.57486.57486 0 110 1.14972z" class="color5f628c svgShape"></path><path fill="#5f688c" d="M657.44552 628.44659a.57572.57572 0 01-.56965-.50188l-14.04471-109.727a.575.575 0 111.14069-.146l14.04472 109.72684a.57562.57562 0 01-.49731.64339A.60265.60265 0 01657.44552 628.44659zM663.45063 675.36215a.57541.57541 0 01-.56953-.50189L660.209 653.98253a.575.575 0 111.14069-.146l2.67213 20.87774a.5755.5755 0 01-.49742.64326A.60121.60121 0 01663.45063 675.36215zM681.18882 813.94384a.57542.57542 0 01-.56953-.50188L665.78442 697.54447a.57505.57505 0 011.14081-.146L681.76 813.296a.57569.57569 0 01-.49743.64338A.62564.62564 0 01681.18882 813.94384zM380.73407 733.71359a.60059.60059 0 01-.07362-.00457.57543.57543 0 01-.49743-.64327l4.20275-32.83415a.57505.57505 0 011.14081.146l-4.20287 32.83415A.57542.57542 0 01380.73407 733.71359z" class="color5f628c svgShape"></path><path fill="#7e8d9c" d="M506.08255,495.69592a.62551.62551,0,0,1-.07374-.00446.57568.57568,0,0,1-.49743-.64338l5.38916-42.10542a.575.575,0,0,1,1.1407.14608L506.65208,495.194A.57542.57542,0,0,1,506.08255,495.69592Z" class="color9c7e93 svgShape"></path><path fill="#7e8d9c" d="M547.55091 453.5905h-36.08a.5748.5748 0 010-1.1496h36.08a.5748.5748 0 110 1.1496zM604.52438 453.5905H569.58282a.5748.5748 0 010-1.1496h34.94156a.5748.5748 0 010 1.1496zM715.70634 453.5905H624.96307a.5748.5748 0 110-1.1496h90.74327a.5748.5748 0 110 1.1496zM843.50643 863.86951a.57561.57561 0 01-.56965-.50188l-4.51-35.2364a.575.575 0 111.14069-.146l4.51013 35.2364a.57567.57567 0 01-.49742.64338A.625.625 0 01843.50643 863.86951z" class="color9c7e93 svgShape"></path><path fill="#5f688c" d="M687.57916,863.86951a.57543.57543,0,0,1-.56964-.50188L683.2491,833.9878a.575.575,0,1,1,1.14069-.146l3.76042,29.37983a.57559.57559,0,0,1-.49742.64338A.62307.62307,0,0,1,687.57916,863.86951Z" class="color5f628c svgShape"></path><path fill="#063aff" d="M420.48073,534.88547l-24.94566,27.55062-58.52648,64.63839a16.81573,16.81573,0,0,0,1.17868,23.752L368.96254,678.692a16.816,16.816,0,0,0,23.75209-1.17868L451.24111,612.875l25.21952-27.85308a37.57424,37.57424,0,0,0-2.73239-53.16158C458.28621,517.97554,434.419,519.49162,420.48073,534.88547Zm53.02676,23.72044a25.35463,25.35463,0,0,1-6.64076,18.17161l-4.0453,4.46782a9.34094,9.34094,0,0,1-13.19382.65463l-23.11-20.92486a9.34092,9.34092,0,0,1-.65476-13.19371l4.04542-4.46781a25.35472,25.35472,0,0,1,17.42482-8.40713,24.92858,24.92858,0,0,1,26.1744,23.69945Z" class="colorff9906 svgShape"></path><path fill="#ffffff" d="M356.48748 635.482a2.73741 2.73741 0 01-.43869-5.43887l59.5674-9.745a2.73724 2.73724 0 11.88395 5.40264l-59.5674 9.745A2.78272 2.78272 0 01356.48748 635.482zM385.31748 616.9175a11.2393 11.2393 0 11.56964-.01419Q385.60137 616.91722 385.31748 616.9175zm.01582-16.96831a5.74231 5.74231 0 103.8555 1.48419A5.73589 5.73589 0 00385.3333 599.94919zM387.19816 662.826a11.24644 11.24644 0 11.56917-.0143C387.57729 662.82108 387.38714 662.826 387.19816 662.826zm.01946-16.971c-.097 0-.19391.00223-.29156.00715a5.74344 5.74344 0 10.29156-.00715z" class="colorffffff svgShape"></path><path fill="#6c8298" d="M525.84913,697.49019h-.02473c-20.0143-.009-37.53327-12.61586-45.71953-32.90039-8.26258-20.47468-10.49942-42.42312-12.66216-63.64892-.86015-8.43773-1.74891-17.16292-3.00531-25.58049-.13471-.90236-.27386-1.93261-.42662-3.06029-1.04456-7.72553-3.21856-23.80134-9.70949-27.262-.74315-.39672-3.00438-1.60365-7.81463.76085a3.99767,3.99767,0,1,1-3.52607-7.17581c5.62973-2.76568,10.71126-2.98128,15.10229-.64034,10.10387,5.38694,12.462,22.82641,13.87109,33.24588.14713,1.08758.28148,2.08115.41126,2.95162,1.28372,8.60174,2.18232,17.42118,3.05161,25.95,2.10624,20.67069,4.28446,42.045,12.12265,61.467,7.04628,17.46093,21.36766,27.89,38.30866,27.89751h.021c16.84252,0,29.723-8.76927,39.38265-26.8118,8.17031-15.26067,13.63239-36.71438,16.23418-63.766.23318-2.42207.3959-5.44485.56812-8.64583.53928-10.013,1.21069-22.4747,4.57473-32.91011,4.3031-13.34787,12.15032-20.30516,23.32349-20.67867a3.99771,3.99771,0,0,1,.26718,7.99095c-4.81694.161-11.71433,1.90565-15.98108,15.14085-3.046,9.4483-3.686,21.33542-4.20052,30.887-.177,3.287-.34432,6.39175-.59321,8.98147-2.7039,28.11006-8.47184,50.5762-17.14393,66.77393C561.25588,687.04868,545.63366,697.48984,525.84913,697.49019Z" class="color6c6e98 svgShape"></path><path fill="#5f688c" d="M379.99573 683.75533c-8.5613 0-15.05411-7.745-15.62035-8.44149L341.7709 654.84667a.575.575 0 01.77175-.85254l22.63778 20.49755a.57435.57435 0 01.06284.06694c.07409.09238 7.50478 9.2259 16.596 7.91533 9.17995-1.32416 20.21724-16.10312 20.32767-16.25247a.575.575 0 01.9244.68418c-.46261.62462-11.43366 15.31378-21.08806 16.70594A14.04324 14.04324 0 01379.99573 683.75533zM420.716 647.16264a.57485.57485 0 01-.42627-.96074l13.25432-14.63863a.57494.57494 0 11.85253.77164l-13.25432 14.63874A.57412.57412 0 01420.716 647.16264zM444.72357 620.648a.57486.57486 0 01-.42287-.96413c.32263-.35065 32.30085-35.095 34.35925-38.29705 2.15267-3.34834 10.01-19.09108 6.135-29.32672a.57484.57484 0 111.07516-.40716c4.04342 10.681-4.0283 26.91051-6.2431 30.35592-2.11186 3.28515-33.15982 37.019-34.48047 38.45344A.57335.57335 0 01444.72357 620.648zM333.92555 632.5239a.5748.5748 0 01-.48535-.88208l3.08269-4.8745a.58564.58564 0 01.05943-.07866l17.5369-19.36834a.57494.57494 0 11.85253.77164L337.4678 627.42372l-3.05608 4.83265A.574.574 0 01333.92555 632.5239zM368.2725 593.12062a.57473.57473 0 01-.42627-.96062l7.45085-8.229a.575.575 0 01.85253.77175l-7.45085 8.22894A.57432.57432 0 01368.2725 593.12062zM384.22251 575.50482a.57472.57472 0 01-.42627-.96062l32.96967-36.41285a.575.575 0 01.85253.77175l-32.96967 36.41274A.57432.57432 0 01384.22251 575.50482zM428.52138 528.71952a.57493.57493 0 01-.27057-1.08243c3.48339-1.85395 12.31831-6.142 19.07161-5.85423a.57495.57495 0 01-.04794 1.1489c-6.479-.26718-15.08295 3.91048-18.48334 5.72035A.57456.57456 0 01428.52138 528.71952zM479.26957 538.64894a.57363.57363 0 01-.48652-.26823c-2.43789-3.8657-8.00138-8.1205-10.28019-9.77057a.57485.57485 0 11.67445-.93108c2.89769 2.098 8.12483 6.19866 10.57808 10.08863a.57485.57485 0 01-.48582.88125zM440.89351 574.567a.57233.57233 0 01-.35581-.1238c-.55546-.4387-13.63392-10.79861-16.36772-15.48647-2.96029-5.07661.19239-10.09707 1.229-11.51479 1.16507-1.5931 5.38622-5.84415 5.56548-6.02422a.57481.57481 0 01.81513.81068c-.043.04338-4.33862 4.36851-5.45247 5.89245-.9326 1.275-3.77237 5.7833-1.1639 10.25662 2.625 4.50181 15.9527 15.05739 16.087 15.16372a.57485.57485 0 01-.35674 1.02581zM455.19989 584.76777c-.3551 0-.70024-.01044-1.02733-.03142-2.3604-.15076-4.82291-2.31433-4.92655-2.40636a.57488.57488 0 01.76308-.86c.02239.01981 2.27283 1.99357 4.23686 2.119 2.05571.13248 4.87227-.18382 6.04966-1.02545a.57491.57491 0 01.66847.93553C459.70545 584.39836 457.27623 584.76777 455.19989 584.76777z" class="color5f628c svgShape"></path><path fill="#ffffff" d="M450.83548,745.75418H285.8727a5.9584,5.9584,0,1,1,0-11.91679H450.83548a5.9584,5.9584,0,0,1,0,11.91679Z" class="colorffffff svgShape"></path><path fill="#ffffff" d="M285.87259,739.796s1.80424,30.50856,3.549,38.92929c2.08783,10.076,7.09821,25.79257,15.12433,39.14349,9.26482,15.4112,26.84768,24.97555,45.94063,24.97555h35.73488c19.093,0,36.67593-9.56435,45.94064-24.97555,8.02612-13.35092,13.03661-29.06752,15.12432-39.14349,1.74481-8.42073,3.54905-38.92929,3.54905-38.92929Z" class="colorffffff svgShape"></path><path fill="#87a3bf" d="M331.143,833.30163l-125.3595-5.60617a11.18768,11.18768,0,0,1-9.83235-15.46735l25.67837-61.83355a19.59569,19.59569,0,0,1,18.97268-12.06063l125.35949,5.60616a11.18772,11.18772,0,0,1,9.83247,15.46735L350.11566,821.241A19.5956,19.5956,0,0,1,331.143,833.30163Z" class="color87bfba svgShape"></path><g clip-path="url(#a)" fill="#000000" class="color000000 svgShape"><rect width="19.589" height="197.437" x="281.456" y="669.905" fill="#6c8298" transform="rotate(-87.184 291.25 768.624)" class="color6c6e98 svgShape"></rect></g><path fill="#ffffff" d="M229.73477,828.367H503.96506a7.7892,7.7892,0,0,1,2.74047,15.0799l-2.74047,1.02111c-22.85244,8.53281-45.70511,9.72181-68.55755,10.64784-5.71308.29332-11.42639.51537-17.13935.74772l-8.56974.34983-8.56962.25815-8.56974.25288c-2.85665.08792-5.71308.09707-8.56973.14947l-8.56962.12685c-1.42839.02779-2.85666.03388-4.28493.03376l-4.28481.01009q-17.13942-.009-34.27871-.56625l-8.56974-.28839c-2.85666-.10176-5.71331-.17457-8.56974-.32052l-17.13935-.782q-2.1424-.0895-4.28493-.22005c-1.42827-.074-2.85666-.17374-4.28469-.273-1.42839-.08605-2.85666-.2279-4.285-.3469l-4.28469-.37069c-5.7132-.60786-11.42628-1.263-17.13959-2.20941-5.71308-.91689-11.42616-1.99263-17.13936-3.353l-4.28469-1.06907c-1.42839-.39731-2.85666-.75053-4.285-1.18489-2.85643-.825-5.713-1.72206-8.56962-2.831l-2.59464-1.00728a7.17051,7.17051,0,0,1,2.59464-13.85515Z" class="colorffffff svgShape"></path><path fill="#ffffff" d="M421.51919 863.48135H312.18075a6.65706 6.65706 0 110-13.31411H421.51919a6.65706 6.65706 0 010 13.31411zM497.432 779.31741a21.15281 21.15281 0 01-2.03461 8.81452 28.61788 28.61788 0 01-4.61037 6.83408 43.07809 43.07809 0 01-5.60065 5.18482 62.77248 62.77248 0 01-6.02117 4.14741c-2.04587 1.26308-4.12725 2.422-6.24134 3.49394-2.09921 1.10283-4.24073 2.09991-6.41614 3.04916-2.21339.99063-4.30028 1.79135-6.40594 2.67471-2.09615.89708-4.218 1.72956-6.33266 2.60648-2.11409.87914-4.19735 1.87423-6.27475 2.96979-2.0808 1.08442-4.15515 2.27728-6.29691 3.40472-1.0734.55335-2.16087 1.10013-3.26921 1.62617-.558.24783-1.119.49977-1.68794.73553-.571.22591-1.14679.45393-1.7305.666a33.33915 33.33915 0 01-7.45238 1.76q-.99321.13031-2.03027.18769c-.69121.04361-1.39708.07468-2.12323.08852a33.77271 33.77271 0 01-4.67532-.20434 23.5459 23.5459 0 01-5.74509-1.38677 16.87656 16.87656 0 01-3.49957-1.83566 15.34493 15.34493 0 01-3.53275-3.34752 14.68492 14.68492 0 01-2.34809-4.603 15.14892 15.14892 0 01-.65276-4.39735 20.91036 20.91036 0 01.23013-3.05338c.06823-.43822.13623-.8918.22239-1.29146.0816-.415.16777-.82416.26437-1.20376a35.26478 35.26478 0 011.36473-4.24343c.5061-1.30986 1.0503-2.543 1.62358-3.72841a58.876 58.876 0 013.77027-6.67136q2.02651-3.15426 4.27507-6.04368a100.41708 100.41708 0 019.73388-10.80083c1.75149-1.66368 3.52279-3.3 5.37861-4.84929 1.8468-1.55887 3.78457-3.01375 5.74274-4.44355a70.848 70.848 0 016.12211-3.98516c2.122-1.22217 4.30709-2.34786 6.53935-3.42044 1.11748-.53693 2.24094-1.07023 3.40356-1.53835 1.15077-.48934 2.33062-.93823 3.52747-1.3516a40.15893 40.15893 0 017.48368-1.74492 38.74885 38.74885 0 017.82694-.23623c1.31115.10469 2.61867.26835 3.91833.50364a37.13652 37.13652 0 013.86581.93612 32.3214 32.3214 0 017.4056 3.283 29.71223 29.71223 0 013.40086 2.42793 27.58437 27.58437 0 013.04611 2.997 24.02456 24.02456 0 014.3888 7.51685A25.30128 25.30128 0 01497.432 779.31741zm-11.28642 0a12.945 12.945 0 00-3.101-8.64512 18.173 18.173 0 00-8.56728-5.278 25.98248 25.98248 0 00-2.63707-.64139c-.89673-.16226-1.80542-.27621-2.71856-.35241a27.53052 27.53052 0 00-5.53347.16542 32.42955 32.42955 0 00-5.5445 1.24679 40.82934 40.82934 0 00-5.42632 2.19908 54.479 54.479 0 00-10.15405 6.60512 76.41741 76.41741 0 00-8.97936 8.6348 87.43778 87.43778 0 00-7.65014 9.96671 68.17759 68.17759 0 00-5.8894 10.82557 30.361 30.361 0 00-1.74469 5.32808c-.09015.41184-.14877.79766-.1925 1.15382-.02732.18453-.02685.33306-.047.50094l-.00446.21161-.00469.10516c-.00117.03072.00188.03494.00129.05393.00129.12439.01935.145.00059.082a.9663.9663 0 00-.1551-.28523c-.06647-.0945-.13236-.12978-.09367-.1068a1.76828 1.76828 0 00.35076.16448 7.847 7.847 0 001.86052.3871 27.24 27.24 0 005.4867-.1136 85.78379 85.78379 0 0012.28127-2.42359c4.149-1.09169 8.30244-2.37834 12.43027-3.77613q3.09675-1.04825 6.17452-2.17833l3.06779-1.1482c1.04574-.39719 1.96486-.75722 2.93228-1.16531a75.85574 75.85574 0 0011.02791-5.72809 41.681 41.681 0 009.03657-7.44768 18.20136 18.20136 0 002.81914-4.22315A9.87619 9.87619 0 00486.14562 779.31741z" class="colorffffff svgShape"></path><path fill="#5f688c" d="M345.84492 733.71359h-30.275a.57486.57486 0 010-1.14972h30.275a.57486.57486 0 110 1.14972zM452.04382 746.24258H409.58857a.57486.57486 0 010-1.14972h42.45525a.57486.57486 0 110 1.14972zM395.02592 746.24258h-10.4748a.57486.57486 0 110-1.14972h10.4748a.57486.57486 0 010 1.14972zM280.3132 738.29582a.57678.57678 0 01-.57515-.58453c.04642-2.79159 3.80121-5.14742 6.13465-5.14742h13.60157a.57486.57486 0 110 1.14972H285.8727c-1.80658 0-4.95129 1.985-4.98505 4.01716A.57474.57474 0 01280.3132 738.29582zM354.14841 828.63674H285.8727a.5748.5748 0 110-1.1496h68.27571a.5748.5748 0 110 1.1496zM268.816 828.63674H256.29709a.5748.5748 0 110-1.1496H268.816a.5748.5748 0 010 1.1496zM246.1101 848.72443a.58387.58387 0 01-.14455-.01829c-2.144-.55569-21.01243-5.56091-23.268-10.07174a8.04007 8.04007 0 01.35065-7.76973 7.02589 7.02589 0 016.10359-3.37753h13.60473a.5748.5748 0 110 1.1496H229.15176a5.8245 5.8245 0 00-5.12562 2.83227 6.88252 6.88252 0 00-.30012 6.65119c1.71139 3.42279 16.84217 7.99881 22.52817 9.47292a.57489.57489 0 01-.14409 1.13131zM327.06674 856.22921H308.79935c-1.44339-.06847-34.79513-1.68748-42.68209-3.72255a.57478.57478 0 11.28746-1.113c7.77312 2.00553 42.07657 3.6698 42.42241 3.68668l18.23961-.0007a.5748.5748 0 110 1.1496zM351.97664 856.22921h-9.964a.5748.5748 0 010-1.1496h9.964a.5748.5748 0 110 1.1496zM414.44291 856.22921H371.5213a.5748.5748 0 010-1.1496h42.92161a.5748.5748 0 110 1.1496zM409.58857 828.63674H376.6597a.5748.5748 0 110-1.1496h32.92887a.5748.5748 0 110 1.1496zM483.42414 828.63674H439.35281a.5748.5748 0 110-1.1496h44.07133a.5748.5748 0 110 1.1496zM489.55574 849.58669a.57482.57482 0 01-.17854-1.12123L508.16 842.33491c.60294-.55042 4.12115-4.02045 2.68854-8.85016-1.50963-5.09233-7.7151-4.85809-7.97958-4.84871a.57478.57478 0 01-.0558-1.1482c.06964-.00563 7.3696-.29262 9.138 5.66982 1.74656 5.89034-2.92664 9.95428-3.12641 10.12415a.57741.57741 0 01-.19426.10891l-18.89612 6.1676A.572.572 0 01489.55574 849.58669zM204.63342 791.89505a.57461.57461 0 01-.52955-.79779c.12274-.29121 12.30706-29.24032 16.99187-40.91689 4.82749-12.0305 19.35052-12.41855 19.49683-12.42125.01419.00118.03107.00047.04678.00118l22.65689 1.4618a.57532.57532 0 01.5367.61079.58162.58162 0 01-.61079.5367L240.5914 738.9092c-.61712.01981-13.97132.59133-18.42823 11.69931-4.68857 11.68549-16.87711 40.64362-16.9995 40.93483A.57523.57523 0 01204.63342 791.89505zM218.80463 828.89243c-.048 0-4.87263-.00305-10.946-.256-6.10851-.25452-8.11252-2.27916-10.88606-5.08154l-.35592-.3592c-3.15115-3.17179-2.14071-8.75368-2.09616-8.98979a.54744.54744 0 01.03177-.10891l3.79149-9.372a.57491.57491 0 011.0659.43119l-3.76828 9.31465c-.091.55311-.78371 5.32292 1.79111 7.91451l.3571.36085c2.78139 2.80976 4.45984 4.50591 10.117 4.74132 6.04814.25217 10.85007.25522 10.898.25522a.57486.57486 0 010 1.14972zM352.6151 815.22381a.57506.57506 0 01-.52955-.7972l23.17859-55.24144a.46261.46261 0 01.02848-.05839c.02427-.04373 2.44235-4.48352.02838-7.97817a.57491.57491 0 01.94608-.65346c2.74177 3.96968.29754 8.69857.04537 9.16271l-23.1671 55.21342A.57472.57472 0 01352.6151 815.22381zM369.293 745.17152a.56787.56787 0 01-.11184-.0109l-3.2882-.64819-25.93488-1.16016a.57432.57432 0 01-.54831-.59989.55778.55778 0 01.59989-.5483l25.978 1.162a.56667.56667 0 01.08535.01008l3.3304.65651a.57483.57483 0 01-.11044 1.13882zM323.75322 742.62741l-.02626-.00082-9.06869-.40563a.5748.5748 0 01.02544-1.149l.02614.00082 9.06881.40563a.5748.5748 0 01-.02544 1.149zM301.51919 741.633l-.02626-.00082-25.67708-1.1482a.57474.57474 0 01.02544-1.1489l.02626.0007 25.67708 1.1482a.5748.5748 0 01-.02544 1.149zM445.56308 786.39252a.57507.57507 0 01-.54983-.74362c2.35255-7.65789 3.1474-19.14641 3.15491-19.2613a.575.575 0 011.14749.077c-.00786.11641-.8122 11.73788-3.20356 19.52192A.57471.57471 0 01445.56308 786.39252zM485.85113 781.56362a.5746.5746 0 01-.53741-.77914c.01454-.03927 1.50295-4.34389-3.73685-10.64584-5.445-6.54779-19.15216-5.34391-20.76179-4.53957a.57493.57493 0 01-.51419-1.02849c1.93636-.96965 16.29925-2.21515 22.15993 4.833 5.70569 6.86222 4.00286 11.59158 3.92771 11.78959A.57534.57534 0 01485.85113 781.56362zM493.32179 791.89505a.57479.57479 0 01-.47562-.89662c2.1781-3.22114 6.76491-11.75734 2.31878-21.4346a.57491.57491 0 011.04492-.47984c4.68973 10.20763-.12427 19.17608-2.41164 22.55806A.57411.57411 0 01493.32179 791.89505zM486.10412 759.2772a.57289.57289 0 01-.41689-.1789c-2.49663-2.62864-10.18253-4.93547-13.50437-4.93547a.57486.57486 0 010-1.14972c3.5916 0 11.61139 2.42254 14.33815 5.29338a.57481.57481 0 01-.41689.97071zM449.444 758.12267a.57473.57473 0 01-.49625-.86449c.98125-1.6815 9.22777-4.016 11.0428-4.25069a1.10511 1.10511 0 01.97387.17409.57485.57485 0 01-.6108.94374l-.02391-.00035c-1.384 0-9.73423 2.59053-10.38875 3.71258A.575.575 0 01449.444 758.12267z" class="color5f628c svgShape"></path><path fill="#5f688c" d="M449.44437 760.092a.575.575 0 01-.57492-.57481c0-1.97493.63811-8.47594.66508-8.7518a.575.575 0 011.14444.113c-.00668.06694-.6598 6.72-.6598 8.63878A.57493.57493 0 01449.44437 760.092zM423.64079 825.44339a.57483.57483 0 01-.27093-1.082c3.59793-1.91878 9.38428-8.64254 11.77634-12.93028a.57468.57468 0 111.00376.55991c-2.51832 4.51412-8.413 11.3441-12.239 13.38456A.57147.57147 0 01423.64079 825.44339zM427.856 733.71359H359.64121a.57486.57486 0 010-1.14972H427.856a.57486.57486 0 010 1.14972zM456.98209 740.37064a.59623.59623 0 01-.11946-.01231.57507.57507 0 01-.44385-.68113 5.76271 5.76271 0 00-1.2006-4.412 4.00427 4.00427 0 00-3.17436-1.5516h-12.691a.57486.57486 0 110-1.14972h12.691a5.102 5.102 0 014.06734 1.97716 6.91561 6.91561 0 011.4326 5.37345A.5751.5751 0 01456.98209 740.37064z" class="color5f628c svgShape"></path><path fill="#5f688c" d="M443.08146 863.66447c-14.44 0-31.46109-7.02728-45.53172-18.79847-14.008-11.71877-22.3713-25.674-22.3713-37.33033 0-8.04745 3.77683-19.01323 21.77071-25.55469 10.71771-3.89676 25.16278-5.8724 42.93356-5.8724 14.99127 0 30.14033 4.5337 41.56356 12.43883 12.17939 8.42847 18.88674 19.55814 18.88674 31.33905C500.333 844.02578 474.64994 863.66447 443.08146 863.66447zm-3.19875-80.89872c-21.67856 0-58.0471 3.21809-58.0471 24.76992 0 9.56377 7.65812 21.9114 19.98581 32.22453 12.9093 10.79966 28.33386 17.2471 41.26 17.2471 13.63 0 26.44158-3.97145 36.0751-11.18325 9.363-7.00923 14.51928-16.22059 14.51928-25.93759C493.67584 800.112 468.53885 782.76575 439.88271 782.76575zM584.38733 863.66447c-31.56848 0-57.25155-19.63869-57.25155-43.778 0-11.78091 6.70723-22.91058 18.88674-31.33905 11.42312-7.90513 26.5723-12.43883 41.56344-12.43883 17.77079 0 32.216 1.97564 42.93357 5.8724 17.99388 6.54146 21.77071 17.50724 21.77071 25.55469 0 11.65629-8.36329 25.61156-22.37131 37.33033C615.84831 856.63719 598.82725 863.66447 584.38733 863.66447zm3.19863-80.89872c-28.656 0-53.79312 17.34627-53.79312 37.12071 0 9.717 5.15645 18.92836 14.51928 25.93759 9.63352 7.2118 22.44516 11.18325 36.07521 11.18325 12.92606 0 28.35063-6.44744 41.25992-17.2471 12.3277-10.31313 19.98594-22.66076 19.98594-32.22453C645.63319 785.98384 609.26453 782.76575 587.586 782.76575z" class="color5f628c svgShape"></path><path fill="#5f688c" d="M496.01 808.91881l-5.37568-3.92736c4.96665-6.79856 12.9161-10.43436 22.4107-10.23 9.85685.20927 20.15276 4.65715 23.94917 10.34608l-5.53735 3.69535c-2.28561-3.42512-10.28617-7.21028-18.55332-7.38578C507.76885 801.30547 500.68366 802.52143 496.01 808.91881zM381.30289 803.21757l-.14607.94737-.0721.44866-.06319.35276-.2592 1.41033-.12838.70517-.06459.35229-.05463.258-.21923 1.01631-.05534.25393-.04865.19332-.0959.36542-.19332.73084c-.03435.13928-.059.19086-.08863.28711l-.08593.25827a2.232 2.232 0 01-.07984.21067l-.07585.18441a1.04391 1.04391 0 01-.2694.43236c-.08019.05967-.14877.02134-.22287.02837l-.43693-.0163c-.57234-.02778-1.14831-.06319-1.71338-.11723a33.29986 33.29986 0 01-3.37672-.48266 31.75116 31.75116 0 01-6.60793-2.03413 27.27237 27.27237 0 01-6.27615-3.76652c-.49134-.38394-.98771-.83588-1.464-1.28817a18.043 18.043 0 01-1.38267-1.45782 19.007 19.007 0 01-1.26426-1.65137 13.97231 13.97231 0 01-1.06015-1.91432 4.03507 4.03507 0 012.11292-5.301 4.0828 4.0828 0 01.4265-.156l.874-.25827c.6279-.18593 1.17527-.29449 1.706-.42017.24772-.04419.5387-.11383.80459-.17409.26717-.0558.52966-.11184.78277-.15639l1.52745-.27175 1.48888-.211a43.6705 43.6705 0 015.81637-.3367 46.96882 46.96882 0 015.71929.4381c.94714.13623 1.89686.29344 2.83637.48125.47164.09918.93612.19051 1.4026.30094l.34326.07785c.056.02274.11736.00012.1673.07561a1.18033 1.18033 0 01.12063.479l.02169.19625a2.16239 2.16239 0 01.0177.22192l.012.26906c.00281.1.01067.1551.00891.29789l.00188.75265.00187.37644.00012.19859-.00657.25956-.02379 1.03776-.006.26343-.01571.358-.03072.71572-.14971 3.2-.00281.05943A14.84842 14.84842 0 01381.30289 803.21757zM645.81338 801.63936l-.14983-3.2-.03072-.71572-.01571-.358-.00574-.26343-.024-1.03776-.00657-.25956v-.19859l.00188-.37644.00211-.75265c-.00188-.14279.006-.19789.009-.29789l.01173-.26906a2.12408 2.12408 0 01.01782-.22192l.02169-.19625a1.17829 1.17829 0 01.12063-.479c.04983-.07549.11114-.05287.16729-.07561l.34327-.07785c.46647-.11043.93084-.20176 1.40259-.30094.93964-.18781 1.88924-.345 2.83626-.48125a46.97262 46.97262 0 015.71941-.4381 43.67166 43.67166 0 015.81637.3367l1.48876.211 1.52745.27175c.25323.04455.51571.10059.78277.15639.26589.06026.55687.1299.80459.17409.53072.12568 1.07809.23424 1.70611.42017l.8516.25206a4.03529 4.03529 0 012.72406 5.01459 4.50652 4.50652 0 01-.16225.44866 13.983 13.983 0 01-1.06016 1.91432 19.006 19.006 0 01-1.26437 1.65137 18.04125 18.04125 0 01-1.38267 1.45782c-.47632.45229-.97269.90423-1.46391 1.28817a27.27237 27.27237 0 01-6.27615 3.76652 31.75218 31.75218 0 01-6.60805 2.03413 33.29754 33.29754 0 01-3.3766.48266c-.56519.054-1.141.08945-1.71338.11723l-.437.0163c-.074-.007-.14256.0313-.22287-.02837a1.04628 1.04628 0 01-.26952-.43236l-.07573-.18441c-.02509-.063-.04983-.11419-.08-.21067l-.08569-.25827c-.02966-.09625-.05428-.14783-.08863-.28711l-.19332-.73084-.09578-.36542-.04889-.19332-.05534-.25393-.21922-1.01631-.05452-.258-.0646-.35229-.12837-.70517-.2592-1.41033-.06319-.35276-.0721-.44866-.14631-.94737a14.57588 14.57588 0 01-.15252-1.50189z" class="color5f628c svgShape"></path><path fill="#5f688c" d="M368.32408,794.42849c6.12879.37315,12.25325.80927,18.37911,1.22533,6.12669.40282,12.24845.87926,18.372,1.33026l18.36927,1.36989,18.36387,1.44949c12.23942,1.01385,24.48235,1.97353,36.714,3.10273l18.3423,1.76767,18.3348,1.87915c12.22359,1.24621,24.44612,2.508,36.6846,3.53662,3.05948.259,6.11907.5163,9.1803.74808.75651.05427,1.54445.12837,2.33449.20469l1.18091.11207,1.17727.14608c.78512.09355,1.57.18863,2.34973.32063.78067.12521,1.56391.23342,2.3386.39286a82.33227,82.33227,0,0,1,9.21042,2.24352l2.25466.73576,2.23766.78712c1.48255.55123,2.9481,1.1469,4.40673,1.76309a91.86124,91.86124,0,0,1,8.53492,4.20145c.69567.38477,1.39474.76684,2.07212,1.18466.67738.407,1.38267.82451,2.02394,1.22288l3.94425,2.39064,3.96569,2.35947,3.983,2.33379,7.97114,4.66113c5.31882,3.10039,10.60458,6.24849,15.8207,9.49894,2.61117,1.62042,5.19607,3.27929,7.77512,4.9466l3.84858,2.53028a6.15817,6.15817,0,0,1,.9265.68465,4.12705,4.12705,0,0,1,.744.95077,5.08979,5.08979,0,0,1,.50869,1.29392,6.0006,6.0006,0,0,1,.17022,1.78783,6.37,6.37,0,0,1-3.76417,5.4908,6.00516,6.00516,0,0,1-1.72863.4857,5.09816,5.09816,0,0,1-1.39052-.00785,4.12938,4.12938,0,0,1-1.15511-.35124,6.14331,6.14331,0,0,1-.97246-.61735l-3.748-2.67706c-2.48491-1.80447-4.9643-3.61739-7.41732-5.46876-4.91237-3.693-9.755-7.48813-14.56453-11.3312l-7.22166-5.75411-3.61306-2.87377-3.63075-2.8481-3.65186-2.81692c-.61806-.47937-1.20412-.89262-1.80424-1.33624-.59192-.44655-1.20658-.85874-1.81984-1.27563a62.09751,62.09751,0,0,0-7.73151-4.41318,65.64225,65.64225,0,0,0-16.9764-5.38295c-.73049-.14478-1.46953-.23892-2.2053-.351-.73494-.119-1.47481-.20141-2.2148-.28312l-1.10939-.12368-1.11337-.08183c-.73917-.05616-1.48091-.11126-2.25654-.15077-3.06475-.18265-6.13114-.33986-9.19753-.49555-12.26532-.62943-24.54659-1.0258-36.82657-1.43788l-18.42085-.60786-18.41334-.71947c-12.27213-.5292-24.53288-1.22757-36.79727-1.87189l-18.39177-1.03776-18.38639-1.11736c-6.12832-.378-12.25852-.73073-18.38368-1.15676-6.126-.41313-12.25337-.8061-18.37653-1.26191a5.65671,5.65671,0,0,1,.76378-11.28735Z" class="color5f628c svgShape"></path><path fill="#5f688c" d="M659.648 805.71584c-6.12305.45581-12.25055.84878-18.37641 1.26191-6.12528.426-12.25525.77879-18.38381 1.15676l-18.38638 1.11736-18.39177 1.03776c-12.26427.64432-24.52491 1.34269-36.79727 1.87189L530.899 812.881l-18.42073.60786c-12.28.41208-24.56125.80845-36.82658 1.43788-3.0665.15569-6.13289.3129-9.19753.49555-.77574.03951-1.51736.09461-2.25665.15077l-1.11326.08183-1.10951.12368c-.73986.08171-1.47961.16413-2.21468.28312-.73588.11208-1.47481.20622-2.2053.351a65.64593 65.64593 0 00-16.97651 5.38295 62.1141 62.1141 0 00-7.73151 4.41318c-.61314.41689-1.228.82908-1.81972 1.27563-.60012.44362-1.18618.85687-1.80424 1.33624l-3.652 2.81692-3.63076 2.8481-3.61305 2.87377-7.22166 5.75411c-4.80955 3.84307-9.652 7.63819-14.56453 11.3312-2.4529 1.85137-4.9323 3.66429-7.41732 5.46876l-3.74776 2.67706a6.14976 6.14976 0 01-.97257.61735 4.13178 4.13178 0 01-1.15512.35124 5.09728 5.09728 0 01-1.3904.00785 6.00546 6.00546 0 01-1.72886-.4857 6.37032 6.37032 0 01-3.764-5.4908 5.99994 5.99994 0 01.17022-1.78783 5.09416 5.09416 0 01.50856-1.29392 4.1336 4.1336 0 01.744-.95077 6.16526 6.16526 0 01.92662-.68465l3.84846-2.53028c2.57916-1.66731 5.16407-3.32618 7.77524-4.9466 5.216-3.25045 10.50188-6.39855 15.8207-9.49894l7.9709-4.66113 3.98328-2.33379 3.96558-2.35947 3.94436-2.39064c.64128-.39837 1.34633-.81584 2.02394-1.22288.67727-.41782 1.37634-.79989 2.07224-1.18466a91.8573 91.8573 0 018.53469-4.20145c1.45863-.61619 2.92418-1.21186 4.40685-1.76309l2.23766-.78712 2.25465-.73576A82.33683 82.33683 0 01456.763 812.014c.77469-.15944 1.558-.26765 2.33871-.39286.77973-.132 1.56462-.22708 2.34974-.32063l1.17715-.14608 1.18091-.11207c.79016-.07632 1.578-.15042 2.33449-.20469 3.06135-.23178 6.12082-.48911 9.1803-.74808 12.23847-1.02862 24.461-2.29041 36.68472-3.53662l18.33491-1.87915 18.34219-1.76767c12.23167-1.1292 24.47461-2.08888 36.714-3.10273L603.764 798.354l18.36938-1.36989c6.1234-.451 12.24516-.92744 18.37173-1.33026 6.12586-.41606 12.25043-.85218 18.37911-1.22533a5.65671 5.65671 0 01.76378 11.28735zM1104.36587 864.25275H882.13842a.9581.9581 0 010-1.9162h222.22745a.9581.9581 0 010 1.9162z" class="color5f628c svgShape"></path><path fill="#5f688c" d="M855.89028 864.25275H241.68121a.9581.9581 0 010-1.9162H855.89028a.9581.9581 0 010 1.9162zM224.10586 864.25275H169.943a.9581.9581 0 010-1.9162h54.16288a.9581.9581 0 010 1.9162zM154.23353 864.25275H136.98526a.9581.9581 0 010-1.9162h17.24827a.9581.9581 0 110 1.9162zM1206.10821 864.25275h-77.60009a.9581.9581 0 010-1.9162h77.60009a.9581.9581 0 010 1.9162zM1263.01474 864.25275h-33.91388a.9581.9581 0 110-1.9162h33.91388a.9581.9581 0 010 1.9162z" class="color5f628c svgShape"></path><path fill="#8dc6ff" d="M986.03916,573.902c-.16131,2.59874-.34209,5.1942-.48711,7.79575l-.42767,7.80584c-.27738,5.20534-.59672,10.40352-.80529,15.62082l-.697,15.63945-.34865,7.81967-.17269,3.91013-.14408,3.91517-.57621,15.66056-.49543,15.67439c-.35159,10.44584-.7571,20.88242.56765,31.61877a25.28227,25.28227,0,0,1-48.09541,13.58316l-10.79543-23.78562a22.34649,22.34649,0,0,1-1.364-4.17637c-.08488-.34326-.16049-.68453-.21958-1.02322-.06272-.339-.13494-.68-.18957-1.01783-.08945-.67211-.21583-1.35066-.26553-2.016a38.6548,38.6548,0,0,1-.02908-7.8852,48.34188,48.34188,0,0,1,1.36508-7.6437l1.8842-7.55355.94831-3.77578.98723-3.76909c.6625-2.51187,1.30611-5.027,1.98432-7.53632,1.3761-5.01518,2.73379-10.03329,4.1936-15.0337,2.88057-10.00774,5.93324-19.9857,9.24055-29.91981,3.31915-9.93177,6.81462-19.83294,10.88829-29.63411l.73576-1.77a16.8191,16.8191,0,0,1,32.31773,7.49657Z" class="colorffa88d svgShape"></path><path fill="#8dc6ff" d="M988.98949 759.69373c-9.12168 47.29809-35.16583 70.18558-80.50516 70.18558s-127.3927-28.14675-127.3927-76.31648 46.60359-150.29391 91.75758-146.19808C940.1242 613.46693 1000.31119 700.98871 988.98949 759.69373zM723.1811 617.79019l-58.386-50.13739A17.90494 17.90494 0 01686.46614 539.221l63.81927 43.00965a22.39372 22.39372 0 01-25.03007 37.14041A22.91989 22.91989 0 01723.1811 617.79019z" class="colorffa88d svgShape"></path><rect width="202.553" height="386.459" x="725.114" y="406.07" fill="#5f688c" rx="27.947" class="color5f628c svgShape"></rect><rect width="176.803" height="286.78" x="737.989" y="446.358" fill="#edf4fc" class="colorfcf2ed svgShape"></rect><path fill="#8dc6ff" d="M751.68542 677.4821A110.59088 110.59088 0 01738.44048 672.42q-6.42879-2.8889-12.61069-6.23442-6.18876-3.33222-12.127-7.12822a107.11993 107.11993 0 01-11.4761-8.33175 19.017 19.017 0 0117.6988-32.71609 107.16611 107.16611 0 0113.25326 5.04672q6.42985 2.887 12.60214 6.2499 6.17961 3.35014 12.1189 7.14369a110.58116 110.58116 0 0111.48454 8.31616 19.00418 19.00418 0 01-17.69892 32.71609zM746.84234 718.577a74.48506 74.48506 0 01-10.38535-3.72149q-5.019-2.18145-9.81277-4.77966-4.80288-2.58151-9.37772-5.58412a72.18186 72.18186 0 01-8.79014-6.67019A17.28123 17.28123 0 01724.438 668.31658a72.18559 72.18559 0 0110.39285 3.70766q5.019 2.1818 9.80527 4.79349 4.79214 2.60155 9.37022 5.59807a74.491 74.491 0 018.79764 6.65612 17.26574 17.26574 0 01-15.96162 29.505zM733.37091 753.98956a20.89982 20.89982 0 01-5.62527-1.14655 32.32081 32.32081 0 01-5.05352-2.20366 31.22334 31.22334 0 01-4.61706-3.00989 20.2881 20.2881 0 01-4.03029-4.09512 18.69647 18.69647 0 0115.96162-29.5048 20.28324 20.28324 0 015.633 1.13249 31.22474 31.22474 0 015.04578 2.21772 32.31031 32.31031 0 014.60955 3.02372 20.89 20.89 0 014.03779 4.08117 18.63981 18.63981 0 01-15.96161 29.50492zM965.1116 941.09163L893.07313 822.53608l87.00266-69.49565 99.70644 96.45505C1054.32707 900.16114 1025.65451 926.99276 965.1116 941.09163z" class="colorffa88d svgShape"></path><path fill="#4a547a" d="M850.23171,436.87108h-48.264a6.65712,6.65712,0,1,1,0-13.31423h48.264a6.65712,6.65712,0,0,1,0,13.31423Z" class="color4a4e7a svgShape"></path><circle cx="826.1" cy="760.741" r="17.408" fill="#4a547a" transform="rotate(-45 826.1 760.741)" class="color4a4e7a svgShape"></circle><path fill="#6c8298" d="M758.13509,468.94883H888.07283a6.0962,6.0962,0,0,1,6.0962,6.0962v74.56a6.09609,6.09609,0,0,1-6.09609,6.09609H758.135a6.09609,6.09609,0,0,1-6.09609-6.09609v-74.56A6.0962,6.0962,0,0,1,758.13509,468.94883Z" class="color6c6e98 svgShape"></path><rect width="119.496" height="18.307" x="762.025" y="488.464" fill="#ffffff" class="colorffffff svgShape"></rect><rect width="51.26" height="18.307" x="830.26" y="525.079" fill="#ffffff" class="colorffffff svgShape"></rect><path fill="#8dc6ff" d="M806.62745 483.13809H765.68594a2.66281 2.66281 0 010-5.32562h40.94151a2.66281 2.66281 0 010 5.32562zM780.49784 532.06821h-14.8119a2.66276 2.66276 0 010-5.32551h14.8119a2.66276 2.66276 0 110 5.32551zM795.3102 543.05239H765.68594a2.66275 2.66275 0 010-5.3255H795.3102a2.66275 2.66275 0 010 5.3255z" class="colorffa88d svgShape"></path><rect width="70.732" height="21.969" x="752.039" y="580.332" fill="#0575e6" class="color357bed svgShape"></rect><rect width="54.922" height="21.969" x="839.248" y="580.332" fill="#afb5bb" class="colorbbafb8 svgShape"></rect><path fill="#ffffff" d="M773.09189 593.97948H762.0247a2.66275 2.66275 0 010-5.3255h11.06719a2.66275 2.66275 0 110 5.3255zM813.2845 593.97948H786.15687a2.66275 2.66275 0 010-5.3255H813.2845a2.66275 2.66275 0 110 5.3255zM880.272 593.97948H853.14441a2.66275 2.66275 0 110-5.3255H880.272a2.66275 2.66275 0 110 5.3255z" class="colorffffff svgShape"></path><circle cx="830.26" cy="671.298" r="48.098" fill="#87a3bf" class="color87bfba svgShape"></circle><path fill="#ffffff" d="M812.47019,662.8967l21.15335,23.89571-10.12309.46835,38.42366-41.03448a2.43707,2.43707,0,0,1,3.79207,3.03919L834.036,695.70435a6.30651,6.30651,0,0,1-9.51735,1.04433l-.60587-.57621L800.76431,674.204a8.14522,8.14522,0,1,1,11.21385-11.81643C812.14733,662.54793,812.3179,662.72589,812.47019,662.8967Z" class="colorffffff svgShape"></path><path fill="#5366ad" d="M985.13563 590.32352c-.01981 0-.04-.00117-.06025-.00305a.57506.57506 0 01-.51232-.63131c1.18149-11.31607.796-19.1259-1.21291-24.57871a12.20715 12.20715 0 00-7.08109-7.28989 17.39771 17.39771 0 00-12.57365-.05323.57486.57486 0 11-.48946-1.04034c3.01645-1.41947 8.77127-1.89252 13.49571.02849a13.48993 13.48993 0 017.726 7.95461c2.0733 5.62679 2.47928 13.60086 1.27915 25.09842A.575.575 0 01985.13563 590.32352zM990.3677 734.58441a.57481.57481 0 01-.57492-.57515c.0034-8.10514-3.85549-18.55555-6.67311-26.18612-.57457-1.55536-1.11678-3.025-1.56626-4.31319-2.63508-7.55378-.13927-65.1208-.03177-67.56761a.575.575 0 011.1489.05018c-.02661.59719-2.59428 59.7919-.03189 67.13877.4462 1.27832.98688 2.74317 1.55958 4.29372 2.84763 7.712 6.74767 18.27407 6.74427 26.58495A.57463.57463 0 01990.3677 734.58441zM1040.99092 812.54382a.57318.57318 0 01-.40763-.16952L988.5821 760.09913a.57481.57481 0 11.81513-.81068l52.0012 52.27517a.57486.57486 0 01-.40751.9802zM902.75308 831.07018c-11.74575 0-30.69-5.16348-39.31019-7.70806-18.91922-5.58483-36.98789-12.72629-43.93909-17.36621a.575.575 0 11.63846-.95651c13.43509 8.96845 72.73227 28.55133 88.18931 24.28563a.575.575 0 01.30587 1.10857A22.76271 22.76271 0 01902.75308 831.07018z" class="colorad5361 svgShape"></path><path fill="#5366ad" d="M951.27228 789.0725q-.58488 0-1.14514-.037a.575.575 0 11.07632-1.14738c5.09724.3462 13.98492-2.10073 22.36427-8.3192 9.16189-6.79821 15.1357-16.25236 16.82094-26.62048a.57472.57472 0 111.1346.18406c-1.73343 10.6653-7.867 20.38183-17.27031 27.35976C966.11454 785.78923 957.64235 789.0725 951.27228 789.0725zM923.148 820.46138a.57492.57492 0 01-.332-1.04456c3.2059-2.26275 8.22073-12.13719 8.95732-19.13516a.575.575 0 011.14374.1204c-.77891 7.39587-5.97721 17.51111-9.43786 19.95416A.57279.57279 0 01923.148 820.46138zM1079.78235 850.07029a.57243.57243 0 01-.39977-.16167l-20.838-20.1585a.57485.57485 0 11.79943-.82627l20.838 20.15838a.57487.57487 0 01-.39965.98806zM945.32063 909.09536a.57362.57362 0 01-.4932-.27913l-36.83607-61.45442a.57475.57475 0 11.98582-.59121l36.836 61.45429a.57483.57483 0 01-.4925.87047zM965.112 941.66643a.57547.57547 0 01-.4918-.2762l-12.47658-20.53342a.575.575 0 01.98278-.59731l12.4767 20.53342a.57485.57485 0 01-.4911.87351zM735.64033 671.87336a.56912.56912 0 01-.20176-.0367c-12.3842-4.64249-33.67214-20.40422-37.32071-25.2051-3.90591-5.1391-3.91834-15.703-.02544-21.73706a.575.575 0 01.96636.62357c-3.6018 5.58224-3.61411 15.69584-.02544 20.41817 3.49242 4.59537 24.84179 20.338 36.80864 24.82409a.57481.57481 0 01-.20165 1.113zM756.29017 678.85046a24.046 24.046 0 01-2.98433-.18828.57481.57481 0 01.143-1.14069c7.10278.88477 13.56862-1.56661 17.28754-6.5662a.57479.57479 0 01.92217.68641C768.22184 676.26251 762.61556 678.85046 756.29017 678.85046zM767.55865 644.94256a.57332.57332 0 01-.4292-.192c-4.69126-5.25246-36.4356-22.66732-43.82584-25.13054a.57485.57485 0 01.36378-1.09063c7.85133 2.61715 39.46658 20.0218 44.31975 25.45551a.57479.57479 0 01-.42849.95769zM707.96475 698.04635a.57352.57352 0 01-.39227-.15463c-6.63759-6.1941-6.13876-16.98062-1.86978-23.4222a.57488.57488 0 01.95816.63553c-4.01 6.05118-4.50181 16.16221 1.696 21.94621a.57481.57481 0 01-.39215.99509zM753.018 720.01835q-.51191 0-1.03436-.04982c-8.82367-.85171-30.16319-12.14645-31.06742-12.627a.5748.5748 0 11.53975-1.015c.21922.11641 22.04082 11.66754 30.63845 12.49768 8.34383.80048 14.90616-9.87983 14.97169-9.98792a.57489.57489 0 01.9843.59426C767.77987 709.87884 761.55729 720.01835 753.018 720.01835zM736.34468 754.51043c-4.95879 0-10.24139-2.17962-15.41941-4.81729-10.01676-5.10287-11.58255-15.611-9.88006-23.05923a.57465.57465 0 111.12041.256c-1.61 7.04521-.14561 16.97616 9.28135 21.77856 10.24947 5.2214 18.42272 7.24124 24.99291.12228a.575.575 0 01.84514.78A14.28779 14.28779 0 01736.34468 754.51043zM752.03971 739.4085a.5035.5035 0 01-.05757-.00305.57463.57463 0 01-.515-.62873l.00715-.07292c.55616-5.58869 1.31772-13.242-9.3157-19.64911a.575.575 0 11.59356-.985c11.25582 6.78249 10.45264 14.85422 9.86624 20.74784l-.00751.073A.57454.57454 0 01752.03971 739.4085zM718.50309 561.59036a.5695.5695 0 01-.33119-.10563c-12.82582-9.06236-32.54153-22.69124-34.28809-23.09429-.21817-.05053-.4925-.12134-.81549-.20516-3.22969-.83682-11.80893-3.05866-16.8295 2.57928a.57494.57494 0 11-.85851-.765c5.48834-6.1615 14.56113-3.81095 17.97618-2.92735.31137.08089.57562.14936.78559.19766 2.5284.58336 31.40822 20.95523 34.693 23.27624a.57482.57482 0 01-.332 1.04421zM697.42559 596.27247a.5713.5713 0 01-.37058-.13575c-.28359-.23951-28.42812-24.01506-33.55233-28.75943a15.7735 15.7735 0 01-4.97333-11.71021.566.566 0 01.60775-.53964.57455.57455 0 01.53963.60705 14.88425 14.88425 0 004.60744 10.7993c5.10463 4.72667 33.22934 28.48545 33.51258 28.725a.57468.57468 0 01-.37116 1.01372z" class="colorad5361 svgShape"></path><path fill="#5366ad" d="M725.11348,619.64954a.57248.57248,0,0,1-.36682-.1326l-16.38261-13.60461a.57483.57483,0,1,1,.73424-.88465L725.481,618.63229a.57491.57491,0,0,1-.36753,1.01725Z" class="colorad5361 svgShape"></path><path fill="#021b79" d="M926.90248 561.59036a.575.575 0 01-.5748-.57492v-126.998a.5748.5748 0 011.1496 0v126.998A.575.575 0 01926.90248 561.59036zM921.25915 416.78491a.57514.57514 0 01-.51149-.31184c-3.165-6.1458-14.809-9.6626-18.87185-9.7449-4.04366-.08206-72.62852-.00082-73.32091 0a.57486.57486 0 01-.00152-1.14972c.69239-.00035 69.28956-.08195 73.34564 0 4.262.0864 16.50207 3.827 19.871 10.36847a.57479.57479 0 01-.51091.838zM809.90357 406.69148H791.7642a.57487.57487 0 010-1.14973h18.13937a.57487.57487 0 010 1.14973zM731.52094 416.78491a.57486.57486 0 01-.49438-.86754c4.53581-7.66761 17.53046-10.37562 20.44174-10.37562 2.57671 0 14.09935-.04607 14.21541-.04642a.57486.57486 0 01.00446 1.14972c-.11595.00035-11.64094.04643-14.21987.04643-2.409 0-15.16 2.55571-19.45227 9.81125A.57415.57415 0 01731.52094 416.78491zM725.11383 547.6025a.575.575 0 01-.5748-.57492V435.89123a.57481.57481 0 011.14961 0V547.02758A.575.575 0 01725.11383 547.6025zM725.11383 590.32352a.57493.57493 0 01-.5748-.5748V569.5105a.57481.57481 0 011.14961 0v20.23822A.57493.57493 0 01725.11383 590.32352zM725.11383 616.07282a.575.575 0 01-.5748-.5748v-13.1971a.57481.57481 0 111.14961 0V615.498A.575.575 0 01725.11383 616.07282zM927.66638 591.89165a.57514.57514 0 01-.57492-.57492V579.62937a.57486.57486 0 011.14972 0v11.68736A.575.575 0 01927.66638 591.89165zM927.66638 670.18893a.57506.57506 0 01-.57492-.57492v-62.369a.57486.57486 0 011.14972 0v62.369A.575.575 0 01927.66638 670.18893zM913.52131 789.46243a.57486.57486 0 01-.19425-1.116c8.86294-3.18187 13.7644-16.07123 13.7644-23.76429V706.834a.57486.57486 0 011.14972 0v57.74815c0 8.02354-5.17286 21.48853-14.52561 24.8466A.57778.57778 0 01913.52131 789.46243zM889.99841 793.10467H835.21876a.57486.57486 0 010-1.14972h54.77965a.57486.57486 0 010 1.14972zM812.96938 793.10467H801.41824a.57486.57486 0 010-1.14972h11.55114a.57486.57486 0 110 1.14972zM782.16257 793.10467H753.06105c-17.08578 0-26.1112-16.9145-28.47043-22.0985a.57482.57482 0 111.04643-.47609c2.28737 5.02609 11.02487 21.42487 27.424 21.42487h29.10152a.57486.57486 0 010 1.14972z" class="color00406b svgShape"></path></svg>