<svg xmlns="http://www.w3.org/2000/svg" enable-background="new 0 0 4252 4252" viewBox="0 0 4252 4252" id="OTPsecurity"><g fill="#000000" class="color000000 svgShape"><g fill="#000000" class="color000000 svgShape"><g fill="#000000" class="color000000 svgShape"><path fill="#243882" d="M3662.5,1209.5c1-0.5,2-1.1,3-1.5l-2.8,1.2c-1.5-2.9-3.1-5.7-4.8-8.4c0,0,0,0,0,0h0
				c-13.4-21.2-34.2-37.6-58-45.4c-23.9,18.3-38.2,48.5-37,78.6c0.5,12.6,3.7,25,9,36.3l0,0c0,0,0.1,0.2,0.2,0.4c0.5,1,1,2,1.5,3
				c7.9,16.2,40.1,88.9,26.1,171.2c-15.9,93.4,11.8,117.9,11.8,117.9s86.3,8.3,134.9-14.8
				C3793.7,1525.5,3723.9,1325.9,3662.5,1209.5z" class="color825c24 svgShape"></path></g><g fill="#000000" class="color000000 svgShape"><g fill="#000000" class="color000000 svgShape"><g fill="#000000" class="color000000 svgShape"><polygon fill="#414554" points="4113.7 3359.9 4117.1 3394 4055.2 3436.5 4019.1 3406.6 4054.8 3359.7 4109.4 3340.4" class="color544841 svgShape"></polygon></g></g><g fill="#000000" class="color000000 svgShape"><g fill="#000000" class="color000000 svgShape"><polygon fill="#59595b" points="4131.4 2305.7 4112.7 2408.6 4052.3 2780.6 4115.8 3348.3 4041.9 3361.2 3881.2 2850.2 3849.1 2640.9 3850.1 2297.5" class="color59595b svgShape"></polygon></g></g></g><g fill="#000000" class="color000000 svgShape"><g fill="#000000" class="color000000 svgShape"><g fill="#000000" class="color000000 svgShape"><polygon fill="#59595b" points="3586.8 2353.6 3692.1 3365.9 3765.6 3367.6 3813.8 2834.2 3908.4 2328.5" class="color59595b svgShape"></polygon></g></g><g fill="#000000" class="color000000 svgShape"><g fill="#000000" class="color000000 svgShape"><polygon fill="#414554" points="3762.3 3365.4 3761.1 3391.5 3683 3430.3 3655.2 3394 3701.2 3363.4" class="color544841 svgShape"></polygon></g></g></g><g fill="#000000" class="color000000 svgShape"><path fill="#a5b5c5" d="M4127,2149.8c-0.6-3.1-1.5-6.4-2.4-9.8c-3.7-28.2-12.8-78.7-33-169.3c-1-4.4-2-8.9-3-13.3
				c-47.6-207.6-119.7-381.7-119.7-381.7c-62.5-116.7-124.8-153.9-124.8-153.9l0.9-1.2c-46.5,1.9-95.6,11.9-133.4,11.9
				c-83,28.7-83.4,228.7-91.3,412c0,0,0,0,0,0l-26,242.5c-0.9,5.3-1.9,10.7-2.8,16.1c0,0,0,0.1,0,0.1c-0.3,5.3-0.4,10.4-0.5,15.2
				l-27.9,259.4c0,0,196,99.6,363.1,77.1c167.1-22.5,199.2-22.5,199.2-22.5S4154.3,2281.5,4127,2149.8z" class="colora5c5c5 svgShape"></path></g><g fill="#000000" class="color000000 svgShape"><path fill="#e4f0fd" d="M3707.7,1436.4l-19.3,70.7c0,0-19.3,549.5-19.3,568.8s-34.7,332.6-34.7,332.6l106.8,32.9l56.4,16.9l51.4,0.1
				v-601l-87.2-428.5C3761.9,1428.9,3727,1426.7,3707.7,1436.4z" class="colorfdfbe4 svgShape"></path></g></g><g fill="#000000" class="color000000 svgShape"><polygon fill="#a5b5c5" points="3677 1459.8 3447.4 1815.5 3171.1 1940.9 3187.2 1982.6 3508.5 1924.8 3662.7 1760.9" class="colora5c5c5 svgShape"></polygon></g><g fill="#000000" class="color000000 svgShape"><path fill="#758698" d="M568.5,1382.8l73.7,31.1l263.5,189.6c0,0,0-279.6,0-276.3s77.1,0,77.1,0l45,340.6l-94.4,86.8l-275.2-131.7
			L568.5,1382.8z" class="color759298 svgShape"></path></g><g fill="#000000" class="color000000 svgShape"><g fill="#000000" class="color000000 svgShape"><g fill="#000000" class="color000000 svgShape"><polygon fill="#515563" points="763 2205.8 787.1 2672 708.7 3312.8 614.3 3307.5 589.5 2688.1 470.6 2166.5" class="color635a51 svgShape"></polygon></g><g fill="#000000" class="color000000 svgShape"><polygon fill="#515563" points="551.9 2099.3 493.9 2697.9 391.2 3321.1 302.4 3315.4 278.5 2702.7 195.9 2135.8" class="color635a51 svgShape"></polygon></g><g fill="#000000" class="color000000 svgShape"><g fill="#000000" class="color000000 svgShape"><path fill="#758698" d="M117.5,2208.5c-5.2,55-9.2,129.4,9.5,133.5c3.5,0.8,7-0.9,10.3-2.6c34.2-17.5,59.4-43.9,93-60.8
						c35.3-17.7,74.7-25.6,113.1-30.3c57.5-7.4,115.9-10.2,173.6-7c45.4,2.5,90.6,10.2,135.5,17.8c37.3,6.3,71.3,21.4,109.8,21.3
						c39.4-0.1,79.1-10.7,114.3-31.3c1.3-0.8,2.7-1.6,3.3-3.1c0.7-1.6,0.3-3.5-0.1-5.2c-6.2-25.2-10.1-50-23.1-71.5
						c-14.5-24-23.9-53.7-33.7-80.5c-20.4-55.8-39.3-114.1-52.1-172.9c-20-80.1-43.8-158.4-63-238.7
						c-13.3-55.6-24.9-112.1-44.6-165.4c-15.4-41.7-43.8-103.1-81.9-123.8c-12.9-7-27.6-8.7-42-10.2c-43.6-4.7-87.2-9.3-130.7-14
						c-15.9-1.7-32.4-3.3-47.5,3c-22.6,9.4-36.8,34.1-49.3,57.2c-56.2,103.5-95.6,216.7-121.7,334.5
						c-13.6,61.5-26.6,123.2-37.7,185.2c-12.4,69.2-22.6,139-28.9,209.1C122.7,2160.6,120,2182.3,117.5,2208.5z" class="color759298 svgShape"></path></g></g><g fill="#000000" class="color000000 svgShape"><g fill="#000000" class="color000000 svgShape"><path fill="#ffffff" d="M455.3,1610.2c0.4,24.9-5.6,49.4-10.9,73.7c-32.6,148-88.8,418.7-121.4,566.7
						c117.4,7.7,252.6,10.3,370,18.1c-0.1-56.4,5.5-230.3,5.4-286.6c0-36.1-0.1-72.4-5-108.2c-8-57.8-28.5-113.2-48.9-168
						c-37.7-101.4-75.4-202.7-113.2-304.1c-2-5.4-4.2-11-8.3-15.1c-5-4.9-12.1-7-19-8.7c-33.1-8.3-70.6-16.1-104.6-13.7
						c-10.7,30,15.2,89.1,24.5,118.5C437.5,1525.5,454.8,1577,455.3,1610.2z" class="colorffffff svgShape"></path></g></g><g fill="#000000" class="color000000 svgShape"><polygon fill="#252a3c" points="697.3 3311 758 3345.4 750 3381.5 616.7 3366.9 619.3 3307.9" class="color3c2d25 svgShape"></polygon></g><g fill="#000000" class="color000000 svgShape"><polygon fill="#252a3c" points="372.1 3319.2 422.6 3369.6 402.8 3403.5 290.9 3358.7 305.1 3313.8" class="color3c2d25 svgShape"></polygon></g></g><g fill="#000000" class="color000000 svgShape"><g fill="#000000" class="color000000 svgShape"><path fill="#aed0f2" d="M483,1392.1c-1.3,1-2.7,1.8-4.3,2.2c-3.2,0.9-6.7,0.4-10-0.2c-13.5-2.2-27.1-4.5-40.6-6.7
					c6.4-41.5-17.5-52-40.1-80c-22.8-28.3-13.7-64.6-10.9-97.8c0.8-9.2,1.7-18.8,6-27c7.6-14.4,23.9-21.8,39.7-26
					c40.2-10.5,85.5-5.4,119.3,18.7c9,6.4,17.4,14.3,21.9,24.4c7.1,15.5,4.3,33.5,1.3,50.4c-4.5,25.8-13.4,51-29.1,72.2
					c-14.6,19.8-41.2,28.3-45.3,52.7C490,1381.3,487.7,1388.3,483,1392.1z" class="colorf2ccae svgShape"></path></g><g fill="#000000" class="color000000 svgShape"><g fill="#000000" class="color000000 svgShape"><path fill="#252a3c" d="M565.6,1219.8c-2.8,10.4-8.2,20.8-6.1,31.3c16.9-4.9,28.6-21.4,35.3-38.4c3-7.7,5.4-15.9,5.1-24.3
						c-0.3-8.3-3.5-16.8-9.9-21.8c-8.8-7-25.4-5.1-28.5,6.6C558.3,1185,569.8,1204.2,565.6,1219.8z" class="color3c2d25 svgShape"></path></g><g fill="#000000" class="color000000 svgShape"><path fill="#252a3c" d="M658.2,1131.8c0.2-12.6-4.1-24-15-32.1c-9.4-7-20.3-12.9-25.7-23.6c-4.2-8.3-4.4-18.3-8.6-26.6
						c-7.5-15-25.1-20.1-40.3-25.8c-38.1-14.2-58.2-29.5-99.9-15.5c-29.6,10-67.3,9.8-95.1,25c-11.6,6.4-21.7,17-30.1,28.9
						c-29.3,41.4-38.6,101.1-22.8,146.5c3.5,10.1,8.2,19.5,13.2,28.6c10,18,20.6,40.2,39.3,49.6c1.6-8.2,7.9-12.5,10.2-20.5
						c1.7-5.8,1.5-11.9,1.4-18c-0.1-23.5-5.6-60.8,18.3-71.3c30.2-13.3,85.1,2.5,113,16.2c24.7,12.1,66.5,28.4,93.9,17.9
						C635.6,1201.3,657.8,1158.7,658.2,1131.8z" class="color3c2d25 svgShape"></path></g></g></g></g><g fill="#000000" class="color000000 svgShape"><g fill="#000000" class="color000000 svgShape"><g fill="#000000" class="color000000 svgShape"><path fill="#021b79" d="M2983.9,3380.4l-1604.5-1.2c-34.6,0-62.6-27.9-62.5-62.2l2.1-2608.8c0-34.3,28.1-62.1,62.6-62.1
					l1604.5,1.2c34.6,0,62.6,27.9,62.5,62.2l-2.1,2608.8C3046.6,3352.6,3018.5,3380.4,2983.9,3380.4z" class="color244e67 svgShape"></path></g><g fill="#000000" class="color000000 svgShape"><rect width="1547.5" height="2334.1" x="1407.3" y="791.7" fill="#b2c0cf" class="colorb2cbcf svgShape"></rect></g><g fill="#000000" class="color000000 svgShape"><rect width="185.3" height="42.4" x="2089.2" y="3235.4" fill="#ffffff" class="colorffffff svgShape"></rect></g></g><g opacity=".04" fill="#000000" class="color000000 svgShape"><polygon fill="#606166" points="1408 1115.1 1406.4 3125.1 2953.9 3126.3" class="color606666 svgShape"></polygon></g><g fill="#000000" class="color000000 svgShape"><rect width="633" height="1021.8" x="1477.7" y="2021.2" fill="#f0f0f1" class="colorf1f0f0 svgShape"></rect></g><g fill="#000000" class="color000000 svgShape"><rect width="633" height="1021.8" x="2223.2" y="2021.2" fill="#f0f0f1" class="colorf1f0f0 svgShape"></rect></g></g><g opacity=".1" fill="#000000" class="color000000 svgShape"><g fill="#000000" class="color000000 svgShape"><path fill="#010101" d="M2882,944.7H1320.2v1296.9H2882c3.9,0,7-3.4,7-7.7V952.4C2889,948.2,2885.9,944.7,2882,944.7z" class="color010101 svgShape"></path></g></g><g fill="#000000" class="color000000 svgShape"><g fill="#000000" class="color000000 svgShape"><g fill="#000000" class="color000000 svgShape"><path fill="#b4d9ff" d="M941.3,890.1h1886.4c3.7,0,6.7,3.4,6.7,7.7v1281.5c0,4.2-3,7.7-6.7,7.7H1142.5
					c-114.8,0-207.9-107-207.9-238.9V897.8C934.6,893.5,937.6,890.1,941.3,890.1z" class="colorffe4b4 svgShape"></path></g></g></g><g fill="#000000" class="color000000 svgShape"><path fill="#758698" d="M353.4,1370.7l36.5-6.9l175.1,345.7l353.5,90v64.3c0,0-414.5-28.9-408.1-22.5s-224.9-331-224.9-331
			l43.8-115.5L353.4,1370.7z" class="color759298 svgShape"></path></g><g fill="#000000" class="color000000 svgShape"><polygon fill="#aed0f2" points="918.6 1807.5 966.8 1786.6 1037.5 1815.5 1018.2 1850.9 918.6 1863.7" class="colorf2ccae svgShape"></polygon></g><g fill="#000000" class="color000000 svgShape"><polygon fill="#aed0f2" points="918.6 1328.5 902.5 1272.5 933.5 1237.1 976.4 1237.1 976.4 1256.4 933.5 1273.1 933.5 1328.5" class="colorf2ccae svgShape"></polygon></g><g fill="#000000" class="color000000 svgShape"><g fill="#000000" class="color000000 svgShape"><g fill="#000000" class="color000000 svgShape"><g fill="#000000" class="color000000 svgShape"><g fill="#000000" class="color000000 svgShape"><path fill="#707173" d="M1555.1,1522.2h-45.5v-150.6c0-65.7-53.4-119.2-119.1-119.2c-65.7,0-119.1,53.5-119.1,119.2v150.6h-45.5
							v-150.6c0-90.9,73.9-164.8,164.6-164.8c90.8,0,164.6,73.9,164.6,164.8V1522.2z" class="color737270 svgShape"></path></g></g><g fill="#000000" class="color000000 svgShape"><g fill="#000000" class="color000000 svgShape"><path fill="#073bff" d="M1624.8,1750.2c0,9.8-7.9,17.7-17.6,17.7h-433.3c-9.7,0-17.6-7.9-17.6-17.7v-281.8
							c0-9.8,7.9-17.7,17.6-17.7h433.3c9.7,0,17.6,7.9,17.6,17.7V1750.2z" class="colorffcd07 svgShape"></path></g></g></g></g><g fill="#000000" class="color000000 svgShape"><path fill="#1545fb" d="M1624.8,1750.2v-172.7c-142.8,120.9-348.6,166.3-465.2,183c3.2,4.4,8.4,7.3,14.3,7.3h433.3
				C1616.9,1767.9,1624.8,1760,1624.8,1750.2z" class="colorfbb715 svgShape"></path></g><g fill="#000000" class="color000000 svgShape"><path fill="#58595b" d="M1429.2,1561.5c0-21.4-17.3-38.8-38.7-38.8c-21.4,0-38.7,17.4-38.7,38.8c0,12.8,6.2,24,15.7,31.1
				l-12.3,87.6h70.7l-12.3-87.6C1423,1585.6,1429.2,1574.3,1429.2,1561.5z" class="color58595b svgShape"></path></g><g fill="#000000" class="color000000 svgShape"><path fill="#54a9ff" d="M1171,1484.2v60.7c1.6-25.8,14-81.8,91.5-81.8h-70.4C1180.5,1463,1171,1472.5,1171,1484.2z" class="colorffdc54 svgShape"></path></g><g fill="#000000" class="color000000 svgShape"><path fill="#3b3c3e" d="M1355.2,1680.3c0,0,52.5-14.8,58.4-87.6l12.3,87.6H1355.2z" class="color3d3b3e svgShape"></path></g></g><g fill="#000000" class="color000000 svgShape"><g fill="#000000" class="color000000 svgShape"><path fill="#5c5f6c" d="M1744.6,1469.8h7.5v51.2h20v5.8h-27.4V1469.8z" class="color5c6a6c svgShape"></path></g><g fill="#000000" class="color000000 svgShape"><path fill="#5c5f6c" d="M1783.1,1521c-4.1-4.3-6.2-9.9-6.2-16.8c0-7,2.2-12.6,6.5-16.9c4.3-4.3,9.8-6.5,16.3-6.5
				c6.5,0,11.9,2.2,16.3,6.5c4.3,4.3,6.5,9.9,6.5,16.8c0,6.9-2.3,12.5-6.8,16.8c-4.5,4.3-10,6.5-16.6,6.5
				C1792.5,1527.4,1787.2,1525.3,1783.1,1521z M1799.1,1521.3c4.2,0,7.9-1.5,11-4.6c3.1-3,4.6-7.2,4.6-12.6c0-5.4-1.5-9.6-4.4-12.6
				c-3-3-6.6-4.5-10.8-4.5c-4.2,0-7.8,1.5-10.6,4.5c-2.8,3-4.3,7.2-4.3,12.6c0,5.4,1.4,9.6,4.1,12.6
				C1791.4,1519.8,1794.8,1521.3,1799.1,1521.3z" class="color5c6a6c svgShape"></path></g><g fill="#000000" class="color000000 svgShape"><path fill="#5c5f6c" d="M1835,1520.8c-4.1-4.4-6.2-10.1-6.2-16.9c0-6.9,2-12.4,6.1-16.7c4.1-4.2,9.2-6.4,15.4-6.4
				c3.8,0,7.2,0.9,10.1,2.7c2.9,1.8,5.1,4.2,6.5,7.1v-9h7.6v46.3c0,6.2-2,11.2-6,15.2c-4,3.9-9.1,5.9-15.2,5.9
				c-6.1,0-11.2-1.4-15.2-4.3c-4-2.8-6.3-6.6-6.9-11.2h7.3c0.7,2.6,2.4,4.7,5,6.4c2.6,1.7,5.9,2.5,9.8,2.5c3.9,0,7.1-1.3,9.7-3.8
				c2.6-2.5,3.9-6.1,3.9-10.7v-10.4c-1.5,3-3.7,5.4-6.5,7.2c-2.9,1.8-6.2,2.8-10.1,2.8C1844.2,1527.4,1839.1,1525.2,1835,1520.8z
				 M1862.5,1516.4c3-3.1,4.5-7.1,4.5-12.2c0-5.1-1.5-9.2-4.5-12.2c-3-3.1-6.6-4.6-10.8-4.6c-4.2,0-7.8,1.5-10.8,4.4
				c-3,3-4.5,7-4.5,12.1c0,5.1,1.5,9.2,4.5,12.4c3,3.2,6.6,4.8,10.8,4.8C1855.9,1521,1859.5,1519.5,1862.5,1516.4z" class="color5c6a6c svgShape"></path></g><g fill="#000000" class="color000000 svgShape"><path fill="#5c5f6c" d="M1894.2,1472.9c-1,1-2.2,1.5-3.6,1.5s-2.6-0.5-3.6-1.5c-1-1-1.4-2.2-1.4-3.6c0-1.4,0.5-2.6,1.5-3.6
				c1-1,2.2-1.5,3.6-1.5c1.4,0,2.6,0.5,3.6,1.5c1,1,1.5,2.2,1.5,3.6C1895.7,1470.7,1895.2,1471.9,1894.2,1472.9z M1886.8,1526.7
				v-45.1h7.5v45.1H1886.8z" class="color5c6a6c svgShape"></path></g><g fill="#000000" class="color000000 svgShape"><path fill="#5c5f6c" d="M1914.1,1481.6v7.3c3.1-5.4,8-8.1,14.7-8.1c5,0,9.1,1.7,12.5,5c3.3,3.3,5,8,5,14.2v26.7h-7.4v-25.5
				c0-4.5-1.1-8-3.3-10.4c-2.2-2.4-5.2-3.5-9.1-3.5c-3.9,0-6.9,1.2-9.1,3.5c-2.2,2.4-3.3,5.8-3.3,10.4v25.5h-7.5v-45.1H1914.1z" class="color5c6a6c svgShape"></path></g></g><g opacity=".55" fill="#000000" class="color000000 svgShape"><g fill="#000000" class="color000000 svgShape"><rect width="661.9" height="99.6" x="2003.1" y="1447.5" fill="#ffffff" class="colorffffff svgShape"></rect></g></g><g fill="#000000" class="color000000 svgShape"><g fill="#000000" class="color000000 svgShape"><path fill="#5c5f6c" d="M1777.7,1628.7c3.4,3.1,5.1,7.1,5.1,12s-1.6,8.9-4.9,12c-3.3,3.2-8.2,4.7-14.8,4.7h-11v23.5h-7.5V1624h18.5
				C1769.5,1624,1774.4,1625.6,1777.7,1628.7z M1752.1,1651.5h11c4.1,0,7.2-0.9,9.2-2.8c2-1.9,3-4.5,3-7.9c0-7.2-4.1-10.8-12.2-10.8
				h-11V1651.5z" class="color5c6a6c svgShape"></path></g><g fill="#000000" class="color000000 svgShape"><path fill="#5c5f6c" d="M1795.3,1675.1c-4.1-4.4-6.2-10.1-6.2-16.9c0-6.9,2-12.4,6.1-16.7c4.1-4.2,9.2-6.4,15.4-6.4
				c3.8,0,7.2,0.9,10.1,2.7c2.9,1.8,5.1,4.2,6.5,7.1v-9h7.6v45.1h-7.6v-9.2c-1.5,3-3.7,5.4-6.5,7.2c-2.9,1.8-6.2,2.8-10.1,2.8
				C1804.5,1681.7,1799.4,1679.5,1795.3,1675.1z M1822.8,1670.7c3-3.1,4.5-7.1,4.5-12.2c0-5.1-1.5-9.2-4.5-12.2
				c-3-3.1-6.6-4.6-10.8-4.6s-7.8,1.5-10.8,4.4c-3,3-4.5,7-4.5,12.1c0,5.1,1.5,9.2,4.5,12.4c3,3.2,6.6,4.8,10.8,4.8
				C1816.2,1675.3,1819.8,1673.7,1822.8,1670.7z" class="color5c6a6c svgShape"></path></g><g fill="#000000" class="color000000 svgShape"><path fill="#5c5f6c" d="M1845.5,1648.6c0-3.8,1.6-7,4.7-9.6c3.1-2.6,7.2-3.9,12.2-3.9c5,0,8.9,1.3,11.8,3.8c2.8,2.5,4.4,6,4.7,10.5
				h-7.7c-0.1-2.5-1-4.5-2.5-6.1c-1.6-1.5-3.8-2.3-6.6-2.3c-2.8,0-5,0.7-6.7,2c-1.6,1.3-2.4,3.1-2.4,5.2c0,2.1,0.9,3.7,2.8,4.9
				c1.8,1.2,4.1,2,6.7,2.5c2.6,0.5,5.2,1.1,7.8,1.8c2.6,0.7,4.8,2,6.7,3.9c1.8,1.9,2.8,4.6,2.8,8.1c0,3.5-1.6,6.4-4.7,8.8
				c-3.2,2.4-7.2,3.6-12.3,3.6c-5,0-9.1-1.3-12.1-3.8c-3-2.5-4.7-6-5-10.4h7.7c0.1,2.5,1,4.5,2.7,6c1.7,1.5,4,2.3,6.9,2.3
				c2.9,0,5.2-0.6,6.9-1.9c1.7-1.3,2.5-2.9,2.5-4.8c0-1.9-0.7-3.5-2-4.6c-1.3-1.2-3-1.9-4.9-2.4c-2-0.4-4.1-1-6.5-1.6
				s-4.5-1.2-6.5-1.9c-2-0.7-3.6-1.9-4.9-3.6S1845.5,1651.1,1845.5,1648.6z" class="color5c6a6c svgShape"></path></g><g fill="#000000" class="color000000 svgShape"><path fill="#5c5f6c" d="M1888.7,1648.6c0-3.8,1.6-7,4.7-9.6c3.1-2.6,7.2-3.9,12.2-3.9c5,0,8.9,1.3,11.8,3.8c2.8,2.5,4.4,6,4.7,10.5
				h-7.7c-0.1-2.5-1-4.5-2.5-6.1c-1.6-1.5-3.8-2.3-6.6-2.3c-2.8,0-5,0.7-6.7,2c-1.6,1.3-2.4,3.1-2.4,5.2c0,2.1,0.9,3.7,2.8,4.9
				c1.8,1.2,4.1,2,6.7,2.5c2.6,0.5,5.2,1.1,7.8,1.8c2.6,0.7,4.8,2,6.7,3.9c1.8,1.9,2.8,4.6,2.8,8.1c0,3.5-1.6,6.4-4.7,8.8
				c-3.2,2.4-7.2,3.6-12.3,3.6c-5,0-9.1-1.3-12.1-3.8c-3-2.5-4.7-6-5-10.4h7.7c0.1,2.5,1,4.5,2.7,6c1.7,1.5,4,2.3,6.9,2.3
				c2.9,0,5.2-0.6,6.9-1.9c1.7-1.3,2.5-2.9,2.5-4.8c0-1.9-0.7-3.5-2-4.6c-1.3-1.2-3-1.9-4.9-2.4c-2-0.4-4.1-1-6.5-1.6
				s-4.5-1.2-6.5-1.9c-2-0.7-3.6-1.9-4.9-3.6C1889.4,1653.3,1888.7,1651.1,1888.7,1648.6z" class="color5c6a6c svgShape"></path></g><g fill="#000000" class="color000000 svgShape"><path fill="#5c5f6c" d="M1985.3,1635.8h7.6l-14.2,45.1h-7.7l-10.2-35.8l-10.2,35.8h-7.8l-14.3-45.1h7.7l10.4,37.6l10.6-37.6h7.7
				l10,37.7L1985.3,1635.8z" class="color5c6a6c svgShape"></path></g><g fill="#000000" class="color000000 svgShape"><path fill="#5c5f6c" d="M2003.2,1675.3c-4.1-4.3-6.2-9.9-6.2-16.8c0-7,2.2-12.6,6.5-16.9c4.3-4.3,9.8-6.5,16.3-6.5
				c6.5,0,11.9,2.2,16.3,6.5c4.3,4.3,6.5,9.9,6.5,16.8c0,6.9-2.3,12.5-6.8,16.8c-4.5,4.3-10,6.5-16.6,6.5
				C2012.7,1681.7,2007.4,1679.6,2003.2,1675.3z M2019.2,1675.5c4.2,0,7.9-1.5,11-4.6c3.1-3,4.6-7.2,4.6-12.6
				c0-5.4-1.5-9.6-4.4-12.6c-3-3-6.6-4.5-10.8-4.5s-7.8,1.5-10.6,4.5c-2.8,3-4.3,7.2-4.3,12.6c0,5.4,1.4,9.6,4.1,12.6
				C2011.5,1674,2015,1675.5,2019.2,1675.5z" class="color5c6a6c svgShape"></path></g><g fill="#000000" class="color000000 svgShape"><path fill="#5c5f6c" d="M2059.4,1635.8v7.6c2.7-5.6,7.3-8.4,13.7-8.4v7.8h-2c-3.8,0-6.8,1-8.8,3c-2,2-3,5.5-3,10.4v24.7h-7.5v-45.1
				H2059.4z" class="color5c6a6c svgShape"></path></g><g fill="#000000" class="color000000 svgShape"><path fill="#5c5f6c" d="M2085.4,1675.1c-4.1-4.4-6.2-10.1-6.2-16.9c0-6.9,2-12.4,6.1-16.7c4.1-4.2,9.2-6.4,15.4-6.4
				c3.8,0,7.2,0.9,10.1,2.7c2.9,1.8,5.1,4.2,6.5,7.1v-24.7h7.6v60.8h-7.6v-9.2c-1.5,3-3.7,5.4-6.5,7.2c-2.9,1.8-6.2,2.8-10.1,2.8
				C2094.6,1681.7,2089.5,1679.5,2085.4,1675.1z M2112.8,1670.7c3-3.1,4.5-7.1,4.5-12.2c0-5.1-1.5-9.2-4.5-12.2
				c-3-3.1-6.6-4.6-10.8-4.6c-4.2,0-7.8,1.5-10.8,4.4c-3,3-4.5,7-4.5,12.1c0,5.1,1.5,9.2,4.5,12.4c3,3.2,6.6,4.8,10.8,4.8
				C2106.3,1675.3,2109.9,1673.7,2112.8,1670.7z" class="color5c6a6c svgShape"></path></g></g><g opacity=".55" fill="#000000" class="color000000 svgShape"><g fill="#000000" class="color000000 svgShape"><rect width="475.6" height="99.6" x="2189.4" y="1601.7" fill="#ffffff" class="colorffffff svgShape"></rect></g></g><g fill="#000000" class="color000000 svgShape"><polygon fill="#aebfd0" points="3907 1436.4 3987.3 1622.7 3932.7 1982.6 3577.8 2241.6 3534.2 2175.4 3813.8 1892.7 3852.3 1494.2" class="coloraecfd0 svgShape"></polygon></g><g fill="#000000" class="color000000 svgShape"><g fill="#000000" class="color000000 svgShape"><g fill="#000000" class="color000000 svgShape"><path fill="#b1d2f4" d="M3600.6,1258.9c1.6-111.9,140.2-116.8,194.3-35.8c30.8,46,20,120.7-18.1,163.1c0.7,9.8,4.1,36.4-2.1,44.1
					c-6.7,8.3-32.9,6.1-43.1,5.5c-2.8-0.2-5.8-0.4-8.1-2.1c-2.9-2-4.5-8.6-5.8-15.9c-7.3,0.8-14.9,0.6-22.8-0.5
					c-33.3-4.8-61.2-30-76.1-60.1C3603.8,1327,3600.1,1292.5,3600.6,1258.9z" class="colorf4cfb1 svgShape"></path></g></g><g fill="#000000" class="color000000 svgShape"><g fill="#000000" class="color000000 svgShape"><path fill="#243882" d="M3863.5,1598.9c-25.9,3.9-52,5.6-78.2,5.1c18,0.4-8.7-186.7-10.3-199.7c-4.7-37.2-10.2-90.3-35-118.4
					c-24.8-28.1-58.5-33.7-97.5-56.1c-13.5-7.8-26.1-18.8-31.9-33.3c-6.4-16-2.8-34.7,5.9-49.6c13.4-22.9,31.7-36.4,57.1-41.4
					c51.3-10.2,109.7,0.8,151.1,33.5c50.1,39.5,74,106,86.6,166.7c3.4,16.3,5.8,32.8,11.2,48.6c5.8,16.8,14.8,32.3,23.1,48
					c12.3,23.2,23.3,47.6,27.2,73.6c3.9,26-0.1,54-15.5,75.3C3935.7,1580.7,3898.2,1593.7,3863.5,1598.9z" class="color825c24 svgShape"></path></g></g></g><g fill="#000000" class="color000000 svgShape"><g fill="#000000" class="color000000 svgShape"><g fill="#000000" class="color000000 svgShape"><path fill="#004c98" d="M3480.2,1935.3c-481.4,90.8-718.7-136.5-750.7-169.9c0,0-0.6-3.3-1.9-2c-1.2-1.3-2,1.9-2,1.9
					c-33.6,31.8-282.3,246.6-758.4,131.4c0,0-95.3,854.1,174.8,1210.4c288.5,380.6,537.2,499.8,538.5,498.8
					c1.2,1,257.8-103.1,563.3-470.7C3529.6,2791.3,3480.2,1935.3,3480.2,1935.3z" class="color006898 svgShape"></path></g><g fill="#000000" class="color000000 svgShape"><path fill="#0575e6" d="M3407.9,2021.5c-436.8,80.6-652.3-121.8-681.2-151.6c0,0-0.5-2.9-1.7-1.8c-1.1-1.2-1.8,1.7-1.8,1.7
					c-30.5,28.3-256,219.5-688.1,116.7c0,0-86.1,760.3,159.2,1077.7c262,338.9,487,465.5,488.1,464.7
					c1.1,0.9,234.6-112.1,511.7-439.2C3453.1,2783.7,3407.9,2021.5,3407.9,2021.5z" class="color3d9bbd svgShape"></path></g></g><g fill="#000000" class="color000000 svgShape"><path fill="#89b3de" d="M3273.7,2201.1c-330,62.2-531.7-102.4-553.5-125.3c0,0-0.4-2.2-1.3-1.4c-0.8-0.9-1.4,1.3-1.4,1.3
				c-23,21.8-230.7,175.5-557.1,96.6c0,0-28.2,579.1,157,823.4c197.8,260.9,368.3,342.6,369.2,342c0.8,0.7,176.7-70.7,386.2-322.7
				C3268.7,2779.2,3273.7,2201.1,3273.7,2201.1z" class="color89ccde svgShape"></path></g></g><g fill="#000000" class="color000000 svgShape"><polygon fill="#b1d2f4" points="3224.6 1949.9 3171.1 1921.6 3106.8 1940.9 3094 1982.6 3122.9 1982.6 3151.8 1952.1" class="colorf4cfb1 svgShape"></polygon></g><g fill="#000000" class="color000000 svgShape"><polygon fill="#b1d2f4" points="3541.8 2187 3469.9 2188.3 3415.3 2242.9 3447.4 2278.3 3570.2 2230.2" class="colorf4cfb1 svgShape"></polygon></g><g fill="#000000" class="color000000 svgShape"><path fill="#5c5f6c" d="M1701.9 1158.9c7.9-1.4 19.8-2.4 31.9-2.4 16.7 0 28 2.7 35.7 9.3 6.4 5.3 10 13.4 10 23.2 0 14.9-10.1 25.1-21 29v.5c8.2 3.1 13.2 11.2 16.1 22.3 3.6 14.4 6.7 27.8 9.1 32.3H1762c-1.7-3.4-4.5-12.9-7.7-27.3-3.3-15.1-8.8-19.9-20.8-20.3h-10.6v47.6h-21V1158.9zM1722.8 1210.1h12.5c14.3 0 23.2-7.6 23.2-19.1 0-12.7-8.9-18.6-22.7-18.6-6.7 0-11 .5-13.1 1V1210.1zM1814.2 1237.2c.5 15.1 12.4 21.6 25.8 21.6 9.8 0 16.8-1.4 23.2-3.8l3.1 14.6c-7.2 2.9-17.2 5.2-29.2 5.2-27.1 0-43.1-16.7-43.1-42.3 0-23.2 14.1-45 40.9-45 27.1 0 36.1 22.3 36.1 40.7 0 3.9-.3 7-.7 8.9H1814.2zM1851 1222.4c.2-7.7-3.3-20.4-17.4-20.4-13.1 0-18.5 11.9-19.4 20.4H1851zM1964.3 1189.5c-.3 5.7-.7 12.5-.7 24v47.4c0 17.5-3.6 30.1-12.4 38-8.8 7.7-20.8 10.1-32.3 10.1-10.6 0-22-2.2-29.2-6.7l4.6-16c5.3 3.1 14.3 6.4 24.4 6.4 13.7 0 24-7.2 24-25.2v-7.2h-.3c-4.8 7.4-13.4 12.4-24.4 12.4-20.8 0-35.6-17.2-35.6-40.9 0-27.5 17.9-44.1 38-44.1 12.7 0 20.3 6.2 24.2 13.1h.3l.9-11.2H1964.3zM1942.5 1222.9c0-1.9-.2-4-.7-5.7-2.2-7.7-8.2-13.6-17.2-13.6-11.9 0-20.6 10.3-20.6 27.3 0 14.3 7.2 25.8 20.4 25.8 7.9 0 14.8-5.2 17.2-12.7.5-2.2.9-5.2.9-7.6V1222.9zM2008.1 1166.1c0 6.4-4.6 11.3-12 11.3-7 0-11.7-5-11.7-11.3 0-6.5 4.8-11.5 11.9-11.5C2003.5 1154.6 2008 1159.6 2008.1 1166.1zM1985.6 1273.1v-83.6h21.3v83.6H1985.6zM2028.6 1253.7c4.8 2.9 13.9 6 21.5 6 9.3 0 13.4-3.8 13.4-9.3 0-5.7-3.4-8.6-13.7-12.2-16.3-5.7-23.2-14.6-23-24.4 0-14.8 12.2-26.3 31.6-26.3 9.3 0 17.3 2.4 22.2 5l-4.1 14.9c-3.6-2.1-10.3-4.8-17.7-4.8-7.6 0-11.7 3.6-11.7 8.8 0 5.3 4 7.9 14.6 11.7 15.1 5.5 22.2 13.2 22.3 25.6 0 15.1-11.9 26.1-34 26.1-10.1 0-19.2-2.4-25.4-5.8L2028.6 1253.7zM2125.5 1165.6v23.9h20.1v15.8h-20.1v36.9c0 10.1 2.7 15.5 10.8 15.5 3.6 0 6.4-.5 8.2-1l.3 16.1c-3.1 1.2-8.6 2.1-15.3 2.1-7.7 0-14.3-2.6-18.2-6.9-4.5-4.8-6.5-12.4-6.5-23.4v-39.3h-12v-15.8h12v-18.9L2125.5 1165.6zM2161.5 1216.4c0-11.3-.2-19.4-.7-27h18.4l.7 16h.7c4.1-11.9 13.9-17.9 22.8-17.9 2.1 0 3.3.2 5 .5v19.9c-1.7-.3-3.6-.7-6.2-.7-10.1 0-17 6.5-18.9 16-.3 1.9-.7 4.1-.7 6.5v43.3h-21.1V1216.4zM2268.2 1273.1l-1.4-9.3h-.5c-5.2 6.5-13.9 11.2-24.7 11.2-16.8 0-26.3-12.2-26.3-24.9 0-21.1 18.7-31.8 49.6-31.6v-1.4c0-5.5-2.2-14.6-17-14.6-8.2 0-16.8 2.6-22.5 6.2l-4.1-13.7c6.2-3.8 17-7.4 30.2-7.4 26.8 0 34.5 17 34.5 35.2v30.2c0 7.6.3 14.9 1.2 20.1H2268.2zM2265.4 1232.2c-14.9-.3-29.2 2.9-29.2 15.6 0 8.2 5.3 12 12 12 8.4 0 14.6-5.5 16.5-11.5.5-1.5.7-3.3.7-4.6V1232.2zM2331.6 1165.6v23.9h20.1v15.8h-20.1v36.9c0 10.1 2.7 15.5 10.8 15.5 3.6 0 6.4-.5 8.2-1l.3 16.1c-3.1 1.2-8.6 2.1-15.3 2.1-7.7 0-14.3-2.6-18.2-6.9-4.5-4.8-6.5-12.4-6.5-23.4v-39.3h-12v-15.8h12v-18.9L2331.6 1165.6zM2390.2 1166.1c0 6.4-4.6 11.3-12 11.3-7 0-11.7-5-11.7-11.3 0-6.5 4.8-11.5 11.9-11.5C2385.5 1154.6 2390 1159.6 2390.2 1166.1zM2367.6 1273.1v-83.6h21.3v83.6H2367.6zM2491.1 1230.5c0 30.7-21.6 44.5-42.9 44.5-23.7 0-41.9-16.3-41.9-43.1 0-27.5 18-44.3 43.3-44.3C2474.5 1187.6 2491.1 1205.1 2491.1 1230.5zM2428.1 1231.4c0 16.1 7.9 28.3 20.8 28.3 12 0 20.4-11.9 20.4-28.7 0-13.1-5.8-28-20.3-28C2434.1 1203 2428.1 1217.4 2428.1 1231.4zM2508.5 1214.4c0-9.6-.2-17.7-.7-24.9h18.5l1 12.5h.5c3.6-6.5 12.7-14.4 26.6-14.4 14.6 0 29.7 9.4 29.7 35.9v49.6h-21.1v-47.2c0-12-4.5-21.1-16-21.1-8.4 0-14.3 6-16.5 12.4-.7 1.9-.9 4.5-.9 6.9v49.1h-21.3V1214.4z" class="color5c6a6c svgShape"></path></g><g fill="#000000" class="color000000 svgShape"><path d="M2299.8 2541l-28.1-91.6h-.7c1 18.6 1.5 31.1 1.5 37.3v54.3h-22.1v-116.8h33.7l27.6 89.3h.5l29.3-89.3h33.7V2541h-23.1v-55.3c0-2.6 0-5.6.1-9 .1-3.4.4-12.5 1.1-27.2h-.7l-30.1 91.5H2299.8zM2483.9 2496.2c0 14.5-3.8 25.9-11.5 34.1-7.7 8.2-18.4 12.3-32 12.3-8.6 0-16.1-1.9-22.7-5.6-6.6-3.8-11.6-9.1-15.1-16.2s-5.3-15.2-5.3-24.6c0-14.6 3.8-25.9 11.4-34 7.6-8.1 18.3-12.1 32.1-12.1 8.6 0 16.1 1.9 22.7 5.6 6.6 3.7 11.6 9.1 15.1 16.1C2482.1 2478.6 2483.9 2486.8 2483.9 2496.2zM2422.1 2496.2c0 8.8 1.5 15.5 4.4 20.1 2.9 4.5 7.6 6.8 14.2 6.8 6.5 0 11.2-2.2 14-6.8 2.8-4.5 4.3-11.2 4.3-20.1 0-8.8-1.4-15.5-4.3-19.9-2.9-4.4-7.6-6.6-14.1-6.6-6.5 0-11.2 2.2-14.1 6.6C2423.6 2480.6 2422.1 2487.3 2422.1 2496.2zM2553.7 2450c10.5 0 18.8 4.1 24.8 12.3 6 8.2 8.9 19.5 8.9 33.8 0 14.8-3.1 26.2-9.2 34.3-6.2 8.1-14.5 12.1-25.1 12.1-10.5 0-18.7-3.8-24.7-11.4h-1.7l-4.1 9.8H2504v-124.3h24.4v28.9c0 3.7-.3 9.6-1 17.7h1C2534.1 2454.4 2542.6 2450 2553.7 2450zM2545.9 2469.5c-6 0-10.4 1.9-13.2 5.6-2.8 3.7-4.2 9.8-4.3 18.3v2.6c0 9.6 1.4 16.5 4.3 20.6s7.4 6.2 13.5 6.2c5 0 9-2.3 11.9-6.9 3-4.6 4.4-11.3 4.4-20.1s-1.5-15.4-4.5-19.8C2555.1 2471.7 2551.1 2469.5 2545.9 2469.5zM2606.6 2428.6c0-7.9 4.4-11.9 13.3-11.9 8.8 0 13.3 4 13.3 11.9 0 3.8-1.1 6.7-3.3 8.8-2.2 2.1-5.5 3.2-9.9 3.2C2611 2440.6 2606.6 2436.6 2606.6 2428.6zM2632 2541h-24.4v-89.3h24.4V2541zM2681.9 2541h-24.4v-124.3h24.4V2541zM2747.9 2542.6c-14.4 0-25.6-4-33.7-11.9-8.1-7.9-12.1-19.2-12.1-33.7 0-15 3.7-26.5 11.2-34.7 7.5-8.2 17.8-12.3 31-12.3 12.6 0 22.5 3.6 29.5 10.8 7 7.2 10.5 17.1 10.5 29.8v11.8h-57.6c.3 6.9 2.3 12.3 6.2 16.2 3.8 3.9 9.2 5.8 16.1 5.8 5.4 0 10.5-.6 15.3-1.7s9.8-2.9 15-5.4v18.9c-4.3 2.1-8.8 3.7-13.7 4.8C2760.8 2542.1 2754.9 2542.6 2747.9 2542.6zM2744.5 2467.3c-5.2 0-9.2 1.6-12.1 4.9-2.9 3.3-4.6 7.9-5 13.9h34.2c-.1-6-1.7-10.7-4.7-13.9S2749.6 2467.3 2744.5 2467.3zM2954.6 2482.4c0 19.3-4.8 34.2-14.4 44.6-9.6 10.4-23.3 15.6-41.2 15.6s-31.6-5.2-41.2-15.6c-9.6-10.4-14.4-25.3-14.4-44.7 0-19.4 4.8-34.3 14.4-44.5 9.6-10.3 23.4-15.4 41.3-15.4 18 0 31.7 5.2 41.2 15.5C2949.8 2448.2 2954.6 2463 2954.6 2482.4zM2869.3 2482.4c0 13.1 2.5 22.9 7.4 29.5 5 6.6 12.4 9.9 22.2 9.9 19.8 0 29.6-13.1 29.6-39.4 0-26.3-9.8-39.5-29.5-39.5-9.9 0-17.3 3.3-22.3 9.9C2871.8 2459.5 2869.3 2469.4 2869.3 2482.4zM3023.9 2541h-24.8v-96.2h-31.7v-20.6h88.2v20.6h-31.7V2541zM3154.3 2460.6c0 12.6-3.9 22.2-11.8 28.8-7.9 6.7-19 10-33.5 10h-10.6v41.5h-24.8v-116.8h37.3c14.2 0 24.9 3 32.3 9.1C3150.6 2439.4 3154.3 2448.5 3154.3 2460.6zM3098.3 2479.1h8.1c7.6 0 13.3-1.5 17.1-4.5 3.8-3 5.7-7.4 5.7-13.1 0-5.8-1.6-10.1-4.8-12.9-3.2-2.8-8.1-4.2-14.9-4.2h-11.3V2479.1zM2303.3 2620.5h25l-39.7 116.8h-27l-39.6-116.8h25l22 69.5c1.2 4.1 2.5 8.9 3.8 14.3 1.3 5.5 2.1 9.3 2.4 11.4.6-4.9 2.6-13.5 6-25.7L2303.3 2620.5zM2381.6 2738.9c-14.4 0-25.6-4-33.7-11.9-8.1-7.9-12.1-19.2-12.1-33.7 0-15 3.7-26.5 11.2-34.7 7.5-8.2 17.8-12.3 31-12.3 12.6 0 22.5 3.6 29.5 10.8s10.5 17.1 10.5 29.8v11.8h-57.6c.3 6.9 2.3 12.3 6.2 16.2 3.8 3.9 9.2 5.8 16.1 5.8 5.4 0 10.5-.6 15.3-1.7 4.8-1.1 9.8-2.9 15-5.4v18.9c-4.3 2.1-8.8 3.7-13.7 4.8C2394.4 2738.4 2388.5 2738.9 2381.6 2738.9zM2378.1 2663.7c-5.2 0-9.2 1.6-12.1 4.9-2.9 3.3-4.6 7.9-5 13.9h34.2c-.1-6-1.7-10.7-4.7-13.9C2387.4 2665.3 2383.3 2663.7 2378.1 2663.7zM2487.7 2646.3c3.3 0 6 .2 8.2.7l-1.8 22.9c-2-.5-4.4-.8-7.2-.8-7.8 0-13.8 2-18.2 6-4.3 4-6.5 9.6-6.5 16.8v45.5h-24.4V2648h18.5l3.6 15h1.2c2.8-5 6.5-9 11.2-12.1C2477 2647.9 2482.1 2646.3 2487.7 2646.3zM2511.1 2624.9c0-7.9 4.4-11.9 13.3-11.9 8.8 0 13.3 4 13.3 11.9 0 3.8-1.1 6.7-3.3 8.8-2.2 2.1-5.5 3.2-9.9 3.2C2515.5 2636.9 2511.1 2632.9 2511.1 2624.9zM2536.5 2737.3h-24.4V2648h24.4V2737.3zM2611.4 2666.3h-21.1v71H2566v-71h-13.4v-11.7l13.4-6.6v-6.6c0-10.2 2.5-17.6 7.5-22.3 5-4.7 13-7 24-7 8.4 0 15.9 1.3 22.5 3.8l-6.2 17.9c-4.9-1.5-9.4-2.3-13.6-2.3-3.5 0-6 1-7.5 3.1-1.5 2.1-2.3 4.7-2.3 7.9v5.6h21.1V2666.3zM2624.4 2624.9c0-7.9 4.4-11.9 13.3-11.9 8.8 0 13.3 4 13.3 11.9 0 3.8-1.1 6.7-3.3 8.8-2.2 2.1-5.5 3.2-9.9 3.2C2628.8 2636.9 2624.4 2632.9 2624.4 2624.9zM2649.8 2737.3h-24.4V2648h24.4V2737.3zM2711.5 2738.9c-27.8 0-41.7-15.3-41.7-45.8 0-15.2 3.8-26.8 11.3-34.8 7.6-8 18.4-12 32.5-12 10.3 0 19.6 2 27.8 6.1l-7.2 18.9c-3.8-1.5-7.4-2.8-10.7-3.8-3.3-1-6.6-1.5-9.9-1.5-12.7 0-19 9-19 27 0 17.5 6.3 26.2 19 26.2 4.7 0 9-.6 13-1.9 4-1.2 8-3.2 12-5.9v20.9c-3.9 2.5-7.9 4.2-11.9 5.2C2722.7 2738.5 2717.7 2738.9 2711.5 2738.9zM2816.1 2737.3l-4.7-12.1h-.6c-4.1 5.2-8.3 8.8-12.7 10.7-4.3 2-10 3-17 3-8.6 0-15.3-2.4-20.3-7.4-4.9-4.9-7.4-11.9-7.4-20.9 0-9.5 3.3-16.5 9.9-21 6.6-4.5 16.6-7 30-7.5l15.5-.5v-3.9c0-9.1-4.6-13.6-13.9-13.6-7.1 0-15.5 2.2-25.2 6.5l-8.1-16.5c10.3-5.4 21.7-8.1 34.2-8.1 12 0 21.2 2.6 27.6 7.8 6.4 5.2 9.6 13.2 9.6 23.8v59.5H2816.1zM2808.9 2696l-9.4.3c-7.1.2-12.4 1.5-15.8 3.8-3.5 2.3-5.2 5.9-5.2 10.7 0 6.9 3.9 10.3 11.8 10.3 5.6 0 10.2-1.6 13.5-4.9 3.4-3.2 5.1-7.6 5.1-12.9V2696zM2895.9 2719.5c4.3 0 9.4-.9 15.3-2.8v18.1c-6.1 2.7-13.5 4.1-22.4 4.1-9.7 0-16.8-2.5-21.3-7.4-4.4-4.9-6.7-12.3-6.7-22.2v-43.1h-11.7V2656l13.4-8.2 7-18.9h15.6v19h25v18.3h-25v43.1c0 3.5 1 6 2.9 7.7C2890.1 2718.7 2892.7 2719.5 2895.9 2719.5zM2928.2 2624.9c0-7.9 4.4-11.9 13.3-11.9 8.8 0 13.3 4 13.3 11.9 0 3.8-1.1 6.7-3.3 8.8-2.2 2.1-5.5 3.2-9.9 3.2C2932.7 2636.9 2928.2 2632.9 2928.2 2624.9zM2953.6 2737.3h-24.4V2648h24.4V2737.3zM3060.4 2692.5c0 14.5-3.8 25.9-11.5 34.1-7.7 8.2-18.4 12.3-32 12.3-8.6 0-16.1-1.9-22.7-5.6s-11.6-9.1-15.1-16.2-5.3-15.2-5.3-24.6c0-14.6 3.8-25.9 11.4-34 7.6-8.1 18.3-12.1 32.1-12.1 8.6 0 16.1 1.9 22.7 5.6 6.6 3.7 11.6 9.1 15.1 16.1C3058.6 2675 3060.4 2683.2 3060.4 2692.5zM2998.6 2692.5c0 8.8 1.5 15.5 4.4 20.1 2.9 4.5 7.6 6.8 14.2 6.8 6.5 0 11.2-2.2 14-6.8 2.8-4.5 4.3-11.2 4.3-20.1 0-8.8-1.4-15.5-4.3-19.9-2.9-4.4-7.6-6.6-14.1-6.6-6.5 0-11.2 2.2-14.1 6.6C3000.1 2677 2998.6 2683.6 2998.6 2692.5zM3163 2737.3h-24.4v-52.2c0-6.4-1.1-11.3-3.4-14.5-2.3-3.2-5.9-4.8-10.9-4.8-6.8 0-11.7 2.3-14.8 6.8-3 4.6-4.6 12.1-4.6 22.7v42h-24.4V2648h18.6l3.3 11.4h1.4c2.7-4.3 6.5-7.6 11.2-9.8 4.8-2.2 10.2-3.3 16.3-3.3 10.4 0 18.3 2.8 23.7 8.4 5.4 5.6 8.1 13.7 8.1 24.3V2737.3zM2486.1 2809.4l-3.3 29.4 29.8-8.3 2.6 20.1-27.2 1.9 17.8 23.7-18.1 9.7-12.5-25-10.9 24.8-18.9-9.5 17.7-23.7-27-2.1 3.1-20 29.2 8.3-3.3-29.4H2486.1zM2575.3 2809.4l-3.3 29.4 29.8-8.3 2.6 20.1-27.2 1.9 17.8 23.7-18.1 9.7-12.5-25-10.9 24.8-18.9-9.5 17.7-23.7-27-2.1 3.1-20 29.2 8.3-3.3-29.4H2575.3zM2664.4 2809.4l-3.3 29.4 29.8-8.3 2.6 20.1-27.2 1.9 17.8 23.7-18.1 9.7-12.5-25-10.9 24.8-18.9-9.5 17.7-23.7-27-2.1 3.1-20 29.2 8.3-3.3-29.4H2664.4zM2753.6 2809.4l-3.3 29.4 29.8-8.3 2.6 20.1-27.2 1.9 17.8 23.7-18.1 9.7-12.5-25-10.9 24.8-18.9-9.5 17.7-23.7-27-2.1 3.1-20 29.2 8.3-3.3-29.4H2753.6zM2842.8 2809.4l-3.3 29.4 29.8-8.3 2.6 20.1-27.2 1.9 17.8 23.7-18.1 9.7-12.5-25-10.9 24.8-18.9-9.5 17.7-23.7-27-2.1 3.1-20 29.2 8.3-3.3-29.4H2842.8zM2931.9 2809.4l-3.3 29.4 29.8-8.3 2.6 20.1-27.2 1.9 17.8 23.7-18.1 9.7-12.5-25-10.9 24.8-18.9-9.5 17.7-23.7-27-2.1 3.1-20 29.2 8.3-3.3-29.4H2931.9z" fill="#000000" class="color000000 svgShape"></path></g></g></svg>