<svg xmlns="http://www.w3.org/2000/svg" enable-background="new 0 0 2500 2500" viewBox="0 0 2500 2500" id="PaymentConfirmation"><g fill="#000000" class="color000000 svgShape"><circle cx="1250" cy="1250" r="818.82" fill="#eff3f8" class="coloreff3f8 svgShape"></circle><g fill="#000000" class="color000000 svgShape"><g fill="#000000" class="color000000 svgShape"><g fill="#000000" class="color000000 svgShape"><path d="M1899.54,1201.95c-0.06,0-0.11,0-0.17-0.01c-11.07-0.69-22.11-2.13-32.82-4.28c-1.48-0.3-2.44-1.73-2.14-3.21
					c0.3-1.48,1.74-2.44,3.21-2.14c10.47,2.1,21.26,3.51,32.09,4.18c1.5,0.09,2.65,1.39,2.55,2.89
					C1902.17,1200.83,1900.97,1201.95,1899.54,1201.95z M1932.27,1201.85c-1.42,0-2.62-1.1-2.72-2.55c-0.1-1.5,1.04-2.81,2.54-2.91
					c10.66-0.71,21.47-2.12,32.12-4.17c1.48-0.29,2.91,0.68,3.2,2.16c0.29,1.48-0.68,2.91-2.16,3.2
					c-10.87,2.09-21.9,3.52-32.79,4.25C1932.39,1201.85,1932.33,1201.85,1932.27,1201.85z M1996.45,1189.55
					c-1.16,0-2.23-0.74-2.6-1.9c-0.46-1.44,0.34-2.97,1.77-3.43c10.24-3.27,20.42-7.18,30.26-11.64c1.38-0.62,2.99-0.01,3.61,1.36
					c0.62,1.37,0.01,2.99-1.36,3.61c-10.03,4.54-20.41,8.53-30.85,11.86C1997,1189.51,1996.72,1189.55,1996.45,1189.55z
					 M2056,1162.6c-0.93,0-1.83-0.47-2.34-1.33c-0.78-1.29-0.36-2.97,0.94-3.74c9.27-5.56,18.28-11.71,26.78-18.27
					c1.2-0.92,2.91-0.7,3.83,0.49c0.92,1.19,0.7,2.91-0.49,3.83c-8.67,6.69-17.85,12.96-27.31,18.63
					C2056.96,1162.47,2056.47,1162.6,2056,1162.6z M2107.71,1122.63c-0.71,0-1.41-0.27-1.95-0.81c-1.06-1.07-1.04-2.8,0.03-3.86
					c7.73-7.61,15-15.73,21.61-24.12c0.93-1.18,2.65-1.39,3.83-0.45c1.18,0.93,1.39,2.65,0.45,3.83
					c-6.75,8.57-14.18,16.86-22.07,24.63C2109.09,1122.37,2108.4,1122.63,2107.71,1122.63z M2148.07,1071.29
					c-0.47,0-0.95-0.12-1.39-0.38c-1.3-0.77-1.72-2.44-0.96-3.74c3.2-5.4,6.21-10.97,8.94-16.53c1.98-4.04,3.87-8.2,5.62-12.36
					c0.59-1.39,2.19-2.04,3.57-1.46c1.39,0.58,2.04,2.18,1.46,3.57c-1.79,4.26-3.73,8.51-5.75,12.64
					c-2.79,5.69-5.87,11.39-9.15,16.91C2149.91,1070.81,2149,1071.29,2148.07,1071.29z M2173.45,1011.12c-0.24,0-0.48-0.03-0.72-0.1
					c-1.45-0.4-2.31-1.9-1.92-3.35c2.8-10.29,4.98-20.97,6.49-31.73c0.21-1.49,1.58-2.53,3.08-2.32c1.49,0.21,2.53,1.59,2.32,3.08
					c-1.54,10.99-3.77,21.89-6.62,32.4C2175.75,1010.32,2174.65,1011.12,2173.45,1011.12z M2182.54,946.41c-0.02,0-0.03,0-0.05,0
					c-1.51-0.03-2.71-1.27-2.68-2.78c0.03-1.59,0.04-3.18,0.04-4.77c0-9.16-0.47-18.46-1.39-27.62c-0.15-1.5,0.94-2.84,2.44-2.99
					c1.51-0.15,2.84,0.94,2.99,2.44c0.94,9.34,1.41,18.82,1.41,28.16c0,1.62-0.01,3.25-0.04,4.87
					C2185.24,945.22,2184.02,946.41,2182.54,946.41z M2176.04,881.38c-1.26,0-2.39-0.87-2.66-2.15
					c-2.31-10.54-5.25-21.04-8.75-31.22c-0.49-1.43,0.27-2.98,1.69-3.47c1.43-0.49,2.98,0.27,3.47,1.69
					c3.57,10.38,6.57,21.08,8.92,31.83c0.32,1.47-0.61,2.93-2.08,3.25C2176.43,881.36,2176.23,881.38,2176.04,881.38z
					 M2154.76,819.58c-1.02,0-1.99-0.57-2.46-1.54c-4.71-9.77-10.04-19.28-15.82-28.27c-0.82-1.27-0.45-2.96,0.82-3.77
					c1.27-0.82,2.96-0.45,3.77,0.82c5.91,9.18,11.34,18.89,16.15,28.86c0.66,1.36,0.09,2.99-1.27,3.64
					C2155.56,819.49,2155.16,819.58,2154.76,819.58z M2119.35,764.68c-0.78,0-1.55-0.33-2.09-0.97
					c-6.98-8.29-14.53-16.13-22.45-23.3c-1.12-1.01-1.2-2.74-0.19-3.85c1.01-1.12,2.74-1.2,3.86-0.19
					c8.1,7.34,15.82,15.35,22.96,23.83c0.97,1.15,0.82,2.87-0.33,3.85C2120.6,764.47,2119.97,764.68,2119.35,764.68z
					 M1104.16,723.14c-0.01,0-0.02,0-0.02,0c-11.03-0.1-22.07-0.33-32.81-0.69c-1.51-0.05-2.69-1.31-2.64-2.82
					c0.05-1.51,1.31-2.65,2.82-2.64c10.7,0.35,21.69,0.58,32.68,0.68c1.51,0.01,2.72,1.25,2.71,2.75
					C1106.87,721.94,1105.65,723.14,1104.16,723.14z M1136.91,723.08c-1.49,0-2.71-1.2-2.73-2.69c-0.02-1.51,1.19-2.74,2.69-2.76
					c10.69-0.13,21.69-0.39,32.69-0.74c0.03,0,0.06,0,0.09,0c1.47,0,2.68,1.16,2.72,2.64c0.05,1.51-1.13,2.77-2.64,2.82
					c-11.03,0.36-22.07,0.61-32.8,0.75C1136.93,723.08,1136.92,723.08,1136.91,723.08z M1038.69,720.97c-0.05,0-0.11,0-0.16,0
					c-11-0.64-22.02-1.44-32.74-2.36c-1.5-0.13-2.61-1.45-2.48-2.95c0.13-1.5,1.39-2.61,2.95-2.48c10.67,0.92,21.64,1.71,32.59,2.35
					c1.5,0.09,2.65,1.38,2.56,2.88C1041.33,719.85,1040.13,720.97,1038.69,720.97z M1202.38,720.96c-1.44,0-2.65-1.13-2.72-2.59
					c-0.07-1.51,1.08-2.79,2.59-2.87c10.66-0.54,21.64-1.2,32.65-1.94c1.48-0.09,2.81,1.04,2.91,2.54s-1.04,2.81-2.54,2.91
					c-11.03,0.75-22.05,1.4-32.74,1.95C1202.47,720.96,1202.42,720.96,1202.38,720.96z M2071.05,720.69c-0.54,0-1.09-0.16-1.57-0.5
					c-8.72-6.14-17.98-11.9-27.53-17.11c-1.32-0.72-1.81-2.38-1.09-3.7c0.72-1.32,2.38-1.81,3.7-1.09
					c9.74,5.31,19.18,11.18,28.07,17.44c1.23,0.87,1.53,2.57,0.66,3.8C2072.75,720.29,2071.91,720.69,2071.05,720.69z
					 M1267.73,716.56c-1.4,0-2.6-1.08-2.72-2.5c-0.12-1.5,0.99-2.82,2.5-2.95c3.34-0.28,6.67-0.56,10.01-0.85
					c7.53-0.65,15.05-1.34,22.58-2.06c1.55-0.15,2.84,0.96,2.98,2.46c0.14,1.5-0.95,2.83-2.45,2.98
					c-7.54,0.72-15.08,1.41-22.62,2.07c-3.35,0.29-6.69,0.57-10.04,0.85C1267.88,716.56,1267.8,716.56,1267.73,716.56z
					 M973.44,715.32c-0.1,0-0.21-0.01-0.32-0.02c-10.94-1.27-21.89-2.71-32.56-4.29c-1.49-0.22-2.52-1.61-2.3-3.1
					c0.22-1.49,1.6-2.52,3.1-2.3c10.61,1.57,21.5,3,32.38,4.27c1.5,0.17,2.57,1.53,2.4,3.03
					C975.99,714.3,974.81,715.32,973.44,715.32z M1332.94,710.34c-1.38,0-2.56-1.04-2.71-2.44c-0.16-1.5,0.92-2.84,2.42-3
					c10.85-1.16,21.69-2.37,32.53-3.62c1.53-0.17,2.85,0.9,3.03,2.4c0.17,1.5-0.9,2.85-2.4,3.03c-10.85,1.26-21.71,2.47-32.57,3.63
					C1333.13,710.34,1333.03,710.34,1332.94,710.34z M908.65,705.72c-0.16,0-0.33-0.01-0.49-0.04c-10.81-1.97-21.65-4.14-32.21-6.45
					c-1.47-0.32-2.4-1.78-2.08-3.25c0.32-1.47,1.76-2.41,3.25-2.08c10.5,2.3,21.27,4.45,32.02,6.41c1.48,0.27,2.47,1.69,2.2,3.17
					C911.09,704.8,909.95,705.72,908.65,705.72z M1398.01,702.83c-1.36,0-2.53-1.01-2.71-2.4c-0.18-1.5,0.88-2.86,2.37-3.04
					c10.83-1.33,21.65-2.7,32.48-4.09c1.52-0.19,2.86,0.87,3.05,2.36c0.19,1.5-0.87,2.86-2.36,3.06
					c-10.83,1.39-21.67,2.76-32.51,4.09C1398.23,702.82,1398.12,702.83,1398.01,702.83z M1462.98,694.5c-1.35,0-2.52-1-2.7-2.37
					c-0.2-1.49,0.85-2.87,2.35-3.06c10.82-1.43,21.64-2.87,32.46-4.32c1.51-0.21,2.87,0.85,3.07,2.34c0.2,1.49-0.85,2.87-2.34,3.07
					c-10.82,1.45-21.65,2.89-32.47,4.32C1463.22,694.49,1463.1,694.5,1462.98,694.5z M844.69,691.71c-0.23,0-0.46-0.03-0.68-0.09
					c-3.88-1-7.75-2.03-11.62-3.08c-6.68-1.82-13.42-3.76-20.03-5.75c-1.44-0.44-2.26-1.96-1.83-3.4c0.43-1.44,1.95-2.27,3.4-1.83
					c6.57,1.98,13.26,3.9,19.9,5.71c3.85,1.05,7.69,2.07,11.55,3.06c1.46,0.38,2.34,1.87,1.96,3.32
					C847.01,690.89,845.9,691.71,844.69,691.71z M2013.72,689.3c-0.35,0-0.71-0.07-1.05-0.21c-9.75-4.06-20.03-7.76-30.55-11.02
					c-1.44-0.45-2.24-1.98-1.8-3.41c0.45-1.44,1.97-2.25,3.41-1.8c10.69,3.31,21.13,7.08,31.03,11.2c1.39,0.58,2.05,2.18,1.47,3.57
					C2015.81,688.67,2014.79,689.3,2013.72,689.3z M1527.91,685.84c-1.35,0-2.52-1-2.7-2.37c-0.2-1.49,0.85-2.87,2.35-3.07
					c10.82-1.44,21.65-2.88,32.47-4.3c1.51-0.21,2.87,0.86,3.06,2.35c0.2,1.49-0.86,2.87-2.35,3.06
					c-10.82,1.42-21.64,2.86-32.46,4.3C1528.16,685.83,1528.03,685.84,1527.91,685.84z M1592.86,677.33c-1.35,0-2.53-1.01-2.71-2.38
					c-0.19-1.5,0.87-2.86,2.36-3.05c10.84-1.38,21.68-2.73,32.52-4.05c1.47-0.19,2.85,0.88,3.04,2.38c0.18,1.5-0.88,2.86-2.38,3.04
					c-10.83,1.31-21.66,2.67-32.49,4.04C1593.09,677.33,1592.98,677.33,1592.86,677.33z M781.98,672.8c-0.3,0-0.6-0.05-0.9-0.15
					c-10.34-3.6-20.71-7.45-30.81-11.46c-1.4-0.56-2.09-2.14-1.53-3.54c0.55-1.4,2.16-2.08,3.54-1.53
					c10.03,3.98,20.32,7.8,30.59,11.37c1.42,0.5,2.18,2.05,1.68,3.47C784.17,672.1,783.11,672.8,781.98,672.8z M1951.29,669.83
					c-0.2,0-0.39-0.02-0.59-0.07c-10.27-2.28-21.04-4.27-32-5.91c-1.49-0.22-2.52-1.61-2.3-3.1c0.22-1.49,1.62-2.52,3.1-2.3
					c11.09,1.66,21.99,3.67,32.38,5.98c1.47,0.33,2.4,1.79,2.07,3.26C1953.67,668.96,1952.54,669.83,1951.29,669.83z M1657.9,669.46
					c-1.37,0-2.55-1.03-2.71-2.42c-0.17-1.5,0.9-2.85,2.4-3.02c10.86-1.23,21.72-2.42,32.58-3.55c1.51-0.16,2.84,0.93,3,2.43
					c0.15,1.5-0.94,2.84-2.43,3c-10.85,1.13-21.7,2.31-32.53,3.54C1658.1,669.46,1658,669.46,1657.9,669.46z M1723.05,662.71
					c-1.39,0-2.59-1.06-2.72-2.48c-0.14-1.5,0.97-2.83,2.47-2.97c11.31-1.04,22.31-1.94,32.71-2.66c1.46-0.12,2.81,1.03,2.91,2.53
					c0.1,1.5-1.03,2.81-2.53,2.91c-10.36,0.72-21.32,1.61-32.58,2.65C1723.22,662.71,1723.13,662.71,1723.05,662.71z
					 M1886.58,660.05c-0.08,0-0.16,0-0.24-0.01c-10.48-0.93-21.42-1.61-32.54-2.03c-1.51-0.06-2.68-1.32-2.63-2.83
					c0.06-1.51,1.25-2.69,2.83-2.62c11.21,0.42,22.25,1.11,32.82,2.05c1.5,0.13,2.61,1.46,2.48,2.96
					C1889.17,658.98,1887.98,660.05,1886.58,660.05z M1788.4,658.25c-1.46,0-2.67-1.15-2.72-2.62c-0.06-1.51,1.11-2.78,2.62-2.84
					c11.24-0.45,22.29-0.71,32.84-0.76c0.01,0,0.01,0,0.01,0c1.5,0,2.72,1.21,2.73,2.72c0.01,1.51-1.21,2.74-2.72,2.74
					c-10.48,0.05-21.46,0.31-32.65,0.76C1788.47,658.25,1788.44,658.25,1788.4,658.25z M721.11,648.65c-0.37,0-0.75-0.08-1.11-0.24
					c-10.01-4.49-20-9.24-29.69-14.12c-1.35-0.68-1.89-2.32-1.21-3.67c0.68-1.35,2.31-1.89,3.66-1.21
					c9.61,4.84,19.52,9.56,29.46,14.02c1.38,0.62,1.99,2.23,1.37,3.61C723.15,648.05,722.15,648.65,721.11,648.65z" fill="#000000" class="color000000 svgShape"></path></g><g fill="#000000" class="color000000 svgShape"><g fill="#000000" class="color000000 svgShape"><g fill="#000000" class="color000000 svgShape"><path fill="#c7e3ff" d="M2054.99,1464.87c-0.81,34.43-1.88,56.6-3.27,59.23c-10.17,19.33-425.65,44.24-480.58,36.63
							c-54.93,7.61-470.42-17.3-480.61-36.63c-1.17-2.22-2.1-18.16-2.86-43.55c-4.15-139.88-2.82-566.73-2.82-566.73h972.55
							C2057.4,913.82,2058.67,1311.38,2054.99,1464.87z" class="colorc7ecff svgShape"></path></g><g fill="#000000" class="color000000 svgShape"><path fill="#6eacea" d="M2054.99,1481.22c-0.81,34.43-1.88,40.24-3.27,42.87c-10.17,19.33-425.65,44.24-480.58,36.63
							c-54.93,7.61-470.42-17.3-480.61-36.63c-1.17-2.22-2.1-18.16-2.86-43.55c132.12-92.8,362.99-250.55,406.85-251.41
							c62.14-1.22,90.08-17.2,90.08-17.2l7.3-6.09C1591.9,1205.84,1940.6,1396.11,2054.99,1481.22z" class="color6ed3ea svgShape"></path></g><g fill="#000000" class="color000000 svgShape"><path d="M1607.9,1564.87c-16.64,0-29.43-0.43-36.77-1.41c-30.42,4.04-155.01-1.21-257.27-8.23
							c-60.36-4.15-112.92-8.81-151.99-13.48c-69.5-8.32-72.37-13.76-73.75-16.38c-7.66-14.54-6.19-550.5-6-611.56
							c0.01-1.5,1.23-2.72,2.73-2.72h972.56c1.5,0,2.72,1.22,2.73,2.72c0.19,61.06,1.66,597.02-6,611.56
							c-1.38,2.62-4.25,8.07-73.75,16.38c-39.07,4.68-91.63,9.34-151.99,13.48C1750.79,1560.56,1660.31,1564.87,1607.9,1564.87z
							 M1571.14,1557.98c0.13,0,0.25,0.01,0.38,0.03c25.6,3.56,135.13,0.08,254.78-8.1c147.68-10.09,218.44-20.9,223.05-27.13
							c5.86-14.68,5.85-439.89,5.34-606.23h-967.11c-0.51,166.34-0.51,591.55,5.41,606.35c4.55,6.11,75.31,16.92,222.99,27.01
							c119.65,8.18,229.18,11.66,254.78,8.1C1570.89,1557.99,1571.01,1557.98,1571.14,1557.98z" fill="#000000" class="color000000 svgShape"></path></g><g fill="#000000" class="color000000 svgShape"><path fill="#324077" d="M2057.08,913.81h0.34c0,0-48.54,44.51-115.98,101.53c-118.91,100.57-296.52,240.12-370.33,243.27
							c-75.39,3.24-251.14-136.69-369.36-239.25c-67.97-58.95-116.91-105.56-116.91-105.56h0.44c-0.12,0-0.28-0.03-0.41-0.03
							c1.4-1.4,48.72-39.34,113.32-91.05c143.68-114.95,372.94-297.86,372.94-297.86s229.74,184.16,372.73,298.52
							c65.44,52.31,113.2,90.4,113.54,90.4C2057.3,913.78,2057.2,913.81,2057.08,913.81z" class="color324e77 svgShape"></path></g><g fill="#000000" class="color000000 svgShape"><path d="M1568.52,1261.39c-121.11,0.02-470.61-331.4-485.54-345.61c-0.81-0.77-1.07-1.95-0.65-2.99
							c0.13-0.33,0.33-0.63,0.56-0.87c0.02-0.02,0.04-0.04,0.06-0.06c4.53-4.54,466.81-373.44,486.49-389.14c1-0.8,2.41-0.79,3.41,0
							c4.76,3.82,474.61,380.49,485.9,388.68c0.34,0.19,0.64,0.46,0.88,0.78c0.41,0.57,0.58,1.26,0.5,1.92
							c-0.07,0.64-0.37,1.25-0.87,1.71c-15.16,13.9-372.71,340.57-488.02,345.52C1570.35,1261.37,1569.43,1261.39,1568.52,1261.39z
							 M1088.95,913.92c30.8,29.04,370.58,346.76,482.05,341.96c108.51-4.65,450.01-312.68,482.16-341.89
							c-0.83-0.64-1.82-1.42-2.98-2.34c-3.59-2.83-8.84-6.99-15.51-12.29c-13.33-10.6-32.35-25.78-55.16-44
							c-45.61-36.44-106.39-85.07-167.14-133.72c-113.1-90.57-226.15-181.19-241.24-193.29
							C1540.76,552.59,1123.3,885.73,1088.95,913.92z" fill="#000000" class="color000000 svgShape"></path></g><g fill="#000000" class="color000000 svgShape"><path fill="#ffffff" d="M1943.88,823.4c-0.18,61.2-1.07,125.44-2.44,191.95c-118.91,100.57-296.52,240.11-370.32,243.26
							c-75.39,3.27-251.13-136.68-369.34-239.23c-1.62-68.28-2.9-134.54-3.57-196.65c-1.22-112.75-0.4-211.85,4.46-284.65
							c2.38-36.02,32.2-64.07,68.31-64.07h598.78c36.29,0,66.35,28.33,68.34,64.58C1942.63,621.56,1944.25,717.91,1943.88,823.4z" class="colorffffff svgShape"></path><path d="M1568.5,1261.39c-75.88,0-241.86-130.07-368.52-239.95c-0.58-0.5-0.92-1.23-0.94-2
							c-1.78-75.3-2.95-139.64-3.57-196.69c-1.36-126.18,0.1-219.35,4.46-284.86c2.47-37.35,33.67-66.61,71.03-66.61h598.77
							c37.79,0,69.01,29.5,71.06,67.16c4.3,78.41,6.2,171.62,5.81,284.96c-0.17,58.03-0.97,120.83-2.44,192
							c-0.02,0.78-0.37,1.52-0.97,2.03c-129.54,109.56-299.23,240.8-371.97,243.9C1570.34,1261.37,1569.43,1261.39,1568.5,1261.39z
							 M1204.48,1018.11c177.14,153.58,306.15,237.83,364.08,237.83c0.83,0,1.64-0.02,2.45-0.05
							c55.45-2.36,186.02-88.23,367.74-241.82c1.45-70.63,2.24-133.01,2.41-190.67c0,0,0,0,0,0c0.39-113.23-1.5-206.34-5.79-284.64
							c-1.9-34.77-30.72-62-65.61-62h-598.77c-34.5,0-63.3,27.02-65.58,61.52c-4.36,65.36-5.82,158.4-4.45,284.44
							C1201.55,879.41,1202.71,943.35,1204.48,1018.11z M1941.44,1015.35h0.03H1941.44z" fill="#000000" class="color000000 svgShape"></path></g></g><g fill="#000000" class="color000000 svgShape"><path fill="#c7e3ff" d="M2051.73,1524.09c-10.17,19.32-425.66,44.25-480.59,36.62c-54.93,7.63-470.42-17.3-480.59-36.62
						l480.59-350.91L2051.73,1524.09z" class="colorc7ecff svgShape"></path></g><g fill="#000000" class="color000000 svgShape"><path d="M1607.9,1564.87c-16.64,0-29.43-0.43-36.77-1.41c-30.42,4.04-155.01-1.21-257.27-8.23
						c-60.36-4.15-112.92-8.81-151.99-13.48c-69.5-8.32-72.37-13.76-73.75-16.38c-0.63-1.2-0.29-2.68,0.8-3.48l480.59-350.91
						c0.96-0.7,2.26-0.7,3.22,0l480.59,350.91c1.09,0.8,1.44,2.28,0.8,3.48c-1.38,2.62-4.25,8.07-73.75,16.38
						c-39.07,4.68-91.63,9.34-151.99,13.48C1750.79,1560.56,1660.31,1564.87,1607.9,1564.87z M1571.14,1557.98
						c0.13,0,0.25,0.01,0.38,0.03c25.6,3.56,135.13,0.08,254.78-8.1c136.86-9.35,207.66-19.32,220.97-25.69l-476.13-347.65
						l-476.15,347.66c13.16,6.33,83.96,16.31,220.99,25.68c119.65,8.18,229.18,11.66,254.78,8.1
						C1570.89,1557.99,1571.01,1557.98,1571.14,1557.98z" fill="#000000" class="color000000 svgShape"></path></g></g><g fill="#000000" class="color000000 svgShape"><g fill="#000000" class="color000000 svgShape"><g fill="#000000" class="color000000 svgShape"><g fill="#000000" class="color000000 svgShape"><g fill="#000000" class="color000000 svgShape"><g fill="#000000" class="color000000 svgShape"><g fill="#000000" class="color000000 svgShape"><g fill="#000000" class="color000000 svgShape"><path fill="#74b3f3" d="M1169.89,1094.51c0,0,27.19,9.44,37.01,19.13c9.82,9.7,12.31,47.28,10.9,51.96
												c-3.46,11.55-24.34,19.19-31.89,7.82c-7.54-11.36-2.74-33.3-2.74-33.3l-25.56-6.05c0,0-8.73-11.81-8.02-14.36
												C1150.31,1117.16,1169.89,1094.51,1169.89,1094.51z" class="colorf39474 svgShape"></path></g><g fill="#000000" class="color000000 svgShape"><path fill="#9ccdff" d="M1084.65,1209.58c0,0,29.74-106.43,64.28-139.53c34.54-33.1,61.69-47.8,68.65-39.91
												c6.96,7.89,6.91,20.9-29.14,47.33c0,0-13.63,31.36-24.39,46.3c0,0,27.88-12.76,39.74,3.57
												c11.85,16.33-10.9,35.07-10.9,35.07s5.48,46.31-12.05,63.92c-17.53,17.61-54.81,37.7-54.81,37.7L1084.65,1209.58z" class="colorffb59c svgShape"></path></g><g fill="#000000" class="color000000 svgShape"><path d="M1180.84,1229.06c-0.7,0-1.39-0.27-1.92-0.79c-1.07-1.06-1.07-2.79-0.01-3.86
												c16.39-16.46,11.33-61.22,11.27-61.67c-0.11-0.92,0.26-1.83,0.97-2.42c0.21-0.17,20.62-17.31,10.43-31.36
												c-10.38-14.31-36.13-2.81-36.39-2.69c-1.37,0.63-2.99,0.02-3.61-1.35c-0.63-1.37-0.02-2.99,1.35-3.61
												c1.22-0.56,30.06-13.48,43.08,4.45c10.11,13.93-1.71,30.26-10.24,37.81c0.8,8.27,3.68,47.97-12.98,64.7
												C1182.24,1228.79,1181.54,1229.06,1180.84,1229.06z" fill="#000000" class="color000000 svgShape"></path></g><g fill="#000000" class="color000000 svgShape"><path d="M1125.01,1188.28c-0.25,0-0.5-0.03-0.75-0.1c-1.45-0.41-2.29-1.92-1.88-3.37c9.9-34.94,38.59-61.9,39.81-63.03
												c1.1-1.02,2.83-0.97,3.86,0.14c1.03,1.1,0.96,2.83-0.14,3.86c-0.29,0.27-28.79,27.09-38.27,60.52
												C1127.3,1187.5,1126.2,1188.28,1125.01,1188.28z" fill="#000000" class="color000000 svgShape"></path></g><g fill="#000000" class="color000000 svgShape"><path fill="#74b3f3" d="M1169.89,1094.51c0,0,27.19,9.44,37.01,19.13c9.82,9.7,12.31,47.28,10.9,51.96
												c-3.46,11.55-24.34,19.19-31.89,7.82c-7.54-11.36-2.74-33.3-2.74-33.3l-25.56-6.05c0,0-8.73-11.81-8.02-14.36
												C1150.31,1117.16,1169.89,1094.51,1169.89,1094.51z" class="colorf39474 svgShape"></path></g><g fill="#000000" class="color000000 svgShape"><path fill="#9ccdff" d="M1084.65,1209.58c0,0,29.74-106.43,64.28-139.53c34.54-33.1,61.69-47.8,68.65-39.91
												c6.96,7.89,6.91,20.9-29.14,47.33c0,0-13.63,31.36-24.39,46.3c0,0,27.88-12.76,39.74,3.57
												c11.85,16.33-10.9,35.07-10.9,35.07s5.48,46.31-12.05,63.92c-17.53,17.61-54.81,37.7-54.81,37.7L1084.65,1209.58z" class="colorffb59c svgShape"></path></g><g fill="#000000" class="color000000 svgShape"><path d="M1180.84,1229.06c-0.7,0-1.39-0.27-1.92-0.79c-1.07-1.06-1.07-2.79-0.01-3.86
												c16.39-16.46,11.33-61.22,11.27-61.67c-0.11-0.92,0.26-1.83,0.97-2.42c0.21-0.17,20.62-17.31,10.43-31.36
												c-10.38-14.31-36.13-2.81-36.39-2.69c-1.37,0.63-2.99,0.02-3.61-1.35c-0.63-1.37-0.02-2.99,1.35-3.61
												c1.22-0.56,30.06-13.48,43.08,4.45c10.11,13.93-1.71,30.26-10.24,37.81c0.8,8.27,3.68,47.97-12.98,64.7
												C1182.24,1228.79,1181.54,1229.06,1180.84,1229.06z" fill="#000000" class="color000000 svgShape"></path></g><g fill="#000000" class="color000000 svgShape"><path d="M1125.01,1188.28c-0.25,0-0.5-0.03-0.75-0.1c-1.45-0.41-2.29-1.92-1.88-3.37c9.9-34.94,38.59-61.9,39.81-63.03
												c1.1-1.02,2.83-0.97,3.86,0.14c1.03,1.1,0.96,2.83-0.14,3.86c-0.29,0.27-28.79,27.09-38.27,60.52
												C1127.3,1187.5,1126.2,1188.28,1125.01,1188.28z" fill="#000000" class="color000000 svgShape"></path></g><g fill="#000000" class="color000000 svgShape"><path fill="#5d7ef9" d="M1172.62,1296.64c0,0,3.18,38.33-29.61,70.25c0,0-69.36,135.59-130.63,153.78
												c-28.6,8.49-86.71-9.52-143.21-33.62c-39.19-16.69-77.62-36.3-104.86-52.02c-17.72-10.22-30.71-18.77-36.14-23.81
												c-9.15-8.47,32.65-4.98,25.52-17.45c-41.05-71.97,18.25-169.28,18.25-169.28s104.27,40.36,176.54,111.46
												c0,0,35.27-1.16,41.63,27.75c0,0,48.57-70.52,53.46-92.2c4.91-21.68,6.07-31.24,20.22-40.47c0,0,10.43-38.62,27.49-41.4
												c17.04-2.83,99.74,54.23,98.56,71.86C1188.71,1279.13,1183.32,1296.64,1172.62,1296.64z" class="colorf95d5d svgShape"></path></g><g fill="#000000" class="color000000 svgShape"><path fill="#3b60ed" d="M869.17,1487.05c-39.19-16.69-77.62-36.3-104.86-52.02c1.98-16.23,4.11-33.25,4.46-34.69
												c0.7-2.83,59.51-60.4,59.51-60.4S843.42,1452.47,869.17,1487.05z" class="colored3b3b svgShape"></path></g><g fill="#000000" class="color000000 svgShape"><path fill="#3b60ed" d="M1172.62,1296.64c0,0,3.18,38.33-29.61,70.25c0,0-69.36,135.59-130.63,153.78
												c-0.14,0.04-0.29,0.08-0.43,0.12c59.64-25.58,121.92-174.06,121.92-174.06c32.79-31.95,29.63-70.25,29.63-70.25
												c9.85,0,15.2-14.83,16.87-30.94c6.07,6.48,9.73,12.14,9.48,15.94C1188.71,1279.13,1183.32,1296.64,1172.62,1296.64z" class="colored3b3b svgShape"></path></g><g fill="#000000" class="color000000 svgShape"><path d="M1012.36,1523.41c-1.18,0-2.26-0.77-2.62-1.95c-0.43-1.45,0.39-2.96,1.84-3.39
												c59.45-17.67,128.31-151.07,128.99-152.42c0.14-0.26,0.31-0.5,0.53-0.71c31.41-30.6,28.83-67.7,28.8-68.07
												c-0.06-0.76,0.2-1.51,0.72-2.07c0.51-0.56,1.24-0.88,2-0.88c8.57,0,13.46-16.37,14.5-32.6
												c0.1-1.45-0.82-7.28-16.65-21.62c-25.81-23.4-68.66-49.07-78.76-47.38c-1.52,0.25-2.89-0.76-3.14-2.25
												c-0.25-1.49,0.76-2.89,2.25-3.14c14.27-2.37,60.39,27.93,83.32,48.72c19.01,17.23,18.58,23.85,18.43,26.02
												c-0.54,8.3-3.32,34.26-17.13,37.39c0.1,9.38-1.79,41.55-30.22,69.47c-4.98,9.66-71.47,136.75-132.09,154.77
												C1012.88,1523.38,1012.62,1523.41,1012.36,1523.41z" fill="#000000" class="color000000 svgShape"></path></g><g fill="#000000" class="color000000 svgShape"><g fill="#000000" class="color000000 svgShape"><g fill="#000000" class="color000000 svgShape"><polygon fill="#9ccdff" points="750.94 2019.16 889.58 1971.37 846.94 1846.79 709.09 1883.39" class="colorffb59c svgShape"></polygon></g><g fill="#000000" class="color000000 svgShape"><path fill="#5d7ef9" d="M799.2,1965.47c0.92,20.69-30.13,26.63-30.13,26.63c12.05,19.22-16.55,26.97-28.66,30.17
														c-12.1,3.19-61.89,73.04-150.72,101.01c-88.84,27.95-134.62-41.05-119.81-116.52
														c14.82-75.46,135.1-96.98,148.17-101.93c13.05-4.94,51.28-30.01,69.47-36.12c18.2-6.09,34.6,5.42,34.6,5.42
														s51.57-7.44,52.96-7.46c-22.19,6.31-40.08,48.42-40.08,48.42l0.06-0.03c1.12-0.48,18.32-7.74,34.37-10.37
														C786.02,1901.98,798.28,1944.76,799.2,1965.47z" class="colorf95d5d svgShape"></path></g><g fill="#000000" class="color000000 svgShape"><path fill="#3b60ed" d="M589.69,2123.26c24.09-7.59,45.32-18.25,63.69-29.83c-5.96,2.39-12.1,4.61-18.46,6.61
														c-88.84,27.94-134.63-41.06-119.81-116.52c5.12-26.13,22.9-45.8,44.51-60.54c-37.83,14.82-81.23,40.38-89.75,83.75
														C455.07,2082.22,500.85,2151.23,589.69,2123.26z" class="colored3b3b svgShape"></path></g><g fill="#000000" class="color000000 svgShape"><path d="M564.63,2128.79c-51.89-9.54-76.11-63.57-64.75-121.39c14.81-75.45,135.1-96.98,148.17-101.93
														c12.45-4.69,47.82-27.74,66.85-35.16c-6.49-2.67-16.62-5.22-27.37-1.62c-18.2,6.11-56.43,31.19-69.49,36.12
														c-13.05,4.94-133.34,26.47-148.17,101.93C456.55,2074.77,492.39,2137.52,564.63,2128.79z" fill="#000000" class="color000000 svgShape"></path></g><g fill="#000000" class="color000000 svgShape"><path fill="#335eff" d="M802.41,1964.75c0.92,20.69-30.13,26.63-30.13,26.63s-33.89,10.27-53.8,14.73
														c-19.91,4.45-75.33,58.22-94.05,61.95c-18.72,3.74-46.81-33.37-38-62.31c6.97-22.9,146.64-89.86,146.64-89.86
														l4.85-2.01c1.12-0.48,18.65-7.29,34.7-9.91C789.22,1901.27,801.49,1944.05,802.41,1964.75z" class="colorffce33 svgShape"></path></g><g fill="#000000" class="color000000 svgShape"><path d="M636,2070.49c-1.45,0-2.66-1.15-2.72-2.61c-1.5-35.28-15.54-68.87-33.39-79.87c-1.28-0.79-1.68-2.47-0.89-3.76
														c0.79-1.28,2.47-1.69,3.76-0.89c19.59,12.07,34.38,46.73,35.98,84.28c0.06,1.51-1.1,2.78-2.61,2.84
														C636.08,2070.49,636.04,2070.49,636,2070.49z" fill="#000000" class="color000000 svgShape"></path></g><g fill="#000000" class="color000000 svgShape"><path d="M661.69,2052.61c-1.45,0-2.66-1.15-2.72-2.61c-1.5-35.28-15.54-68.87-33.38-79.87
														c-1.28-0.79-1.68-2.47-0.89-3.76c0.79-1.28,2.47-1.69,3.76-0.89c19.59,12.07,34.38,46.73,35.98,84.28
														c0.06,1.51-1.11,2.78-2.61,2.84C661.77,2052.61,661.73,2052.61,661.69,2052.61z" fill="#000000" class="color000000 svgShape"></path></g><g fill="#000000" class="color000000 svgShape"><path d="M687.38,2034.73c-1.45,0-2.66-1.15-2.72-2.61c-1.5-35.28-15.54-68.87-33.38-79.87
														c-1.28-0.79-1.68-2.47-0.89-3.76c0.79-1.28,2.47-1.69,3.76-0.89c19.59,12.07,34.38,46.73,35.98,84.28
														c0.06,1.51-1.11,2.78-2.61,2.84C687.46,2034.73,687.42,2034.73,687.38,2034.73z" fill="#000000" class="color000000 svgShape"></path></g><g fill="#000000" class="color000000 svgShape"><path d="M586.44,2008.48c-0.26,0-0.53-0.04-0.79-0.12c-1.44-0.44-2.25-1.96-1.82-3.41
														c7.11-23.37,133.67-84.62,148.08-91.53l4.98-2.07c0.14-0.06,18.25-7.3,35.31-10.09c3.76-0.61,7.46,0.54,10.99,3.41
														c13.33,10.84,21.26,44.28,21.96,59.95c0.07,1.51-1.1,2.78-2.61,2.85c-1.38,0.07-2.78-1.1-2.85-2.61
														c-0.75-16.81-8.89-46.97-19.95-55.96c-2.3-1.87-4.49-2.61-6.67-2.25c-16.18,2.65-33.91,9.67-34.07,9.73l-4.87,2.02
														c-55.57,26.65-140.22,72.18-145.08,88.13C588.69,2007.72,587.61,2008.48,586.44,2008.48z" fill="#000000" class="color000000 svgShape"></path></g><g fill="#000000" class="color000000 svgShape"><path d="M713.07,2016.85c-1.45,0-2.66-1.15-2.72-2.61c-1.5-35.28-15.54-68.87-33.38-79.87
														c-1.28-0.79-1.68-2.47-0.89-3.76c0.79-1.28,2.47-1.68,3.76-0.89c19.59,12.07,34.38,46.73,35.98,84.28
														c0.06,1.51-1.11,2.78-2.61,2.84C713.15,2016.85,713.11,2016.85,713.07,2016.85z" fill="#000000" class="color000000 svgShape"></path></g></g><g fill="#000000" class="color000000 svgShape"><path d="M729.29,2000.44c-0.4,0-0.8-0.09-1.19-0.27c-1.36-0.66-1.92-2.29-1.27-3.65c0.15-0.32,15.37-32.02,15.37-53.84
													c0-1.51,1.22-2.73,2.73-2.73s2.73,1.22,2.73,2.73c0,23.08-15.26,54.88-15.91,56.22
													C731.28,1999.87,730.31,2000.44,729.29,2000.44z" fill="#000000" class="color000000 svgShape"></path></g><g fill="#000000" class="color000000 svgShape"><path d="M600.37,1997.02c-0.47,0-0.94-0.12-1.38-0.38c-1.3-0.76-1.74-2.43-0.97-3.73c0.18-0.31,18.06-31.01,19.91-50.49
													c0.14-1.5,1.51-2.6,2.97-2.46c1.5,0.14,2.6,1.47,2.46,2.97c-1.95,20.68-19.87,51.43-20.63,52.73
													C602.22,1996.54,601.31,1997.02,600.37,1997.02z" fill="#000000" class="color000000 svgShape"></path></g><g fill="#000000" class="color000000 svgShape"><path d="M512.84,1986.49c-0.66,0-1.32-0.24-1.85-0.72c-1.11-1.02-1.18-2.75-0.16-3.86
													c0.18-0.19,17.89-19.75,19.26-43.87c0.08-1.51,1.37-2.67,2.88-2.57c1.5,0.08,2.65,1.37,2.57,2.88
													c-1.48,26.11-19.91,46.4-20.69,47.25C514.31,1986.19,513.57,1986.49,512.84,1986.49z" fill="#000000" class="color000000 svgShape"></path></g><g fill="#000000" class="color000000 svgShape"><g fill="#000000" class="color000000 svgShape"><polygon fill="#0575e6" points="1189.09 1771.51 909.71 1900.83 602.68 1919.6 414.13 1798.17 448.69 1718.2 476.55 1653.76 496.07 1608.62 500.13 1608.29 673.7 1594.12 730.03 1589.54 811.07 1618.69 825.34 1623.82 892.92 1648.11 1166.38 1657.01" class="color564dc6 svgShape"></polygon></g><g fill="#000000" class="color000000 svgShape"><path fill="#021b79" d="M825.34,1623.82c-3.6,5.84-9.28,10.56-15.53,13.68c-9.31,4.64-19.79,6.25-30.08,7.78
														c-64.28,9.61-128.53,19.21-192.8,28.82c-16.57,2.48-33.14,4.97-49.87,5.76c-19.46,0.93-39.06-0.44-58.19-4.04
														c0.11-24.4,6.77-48.58,21.26-67.53l173.56-14.17l56.34-4.59l81.04,29.15L825.34,1623.82z" class="color2e2780 svgShape"></path></g><g fill="#000000" class="color000000 svgShape"><path fill="#021b79" d="M903.37,1791.01l-166.26,97.59l-196.07-8.7l-29.27-18.84l17.58-103.8
														c0,0,268.97,31.97,370.26,33.67C900.89,1790.95,902.15,1790.97,903.37,1791.01z" class="color2e2780 svgShape"></path></g><g fill="#000000" class="color000000 svgShape"><path fill="#0575e6" d="M1329.59,1844.88c-16.46,34.9-69,40.32-82.8,48.87c-13.83,8.55-31.6,28.31-75.04,37.51
														c0,0-5.92,23.05-28.95,26.33c-23.05,3.3-59.24-3.94-59.24-3.94s4.61,31.05-30.27,34.6
														c-34.88,3.57-254.61,4.63-273.24-10.4c-28.7-23.19-36.4-150.67,3.92-162.2c12.91-3.69,104.01-22.08,121.79-26.05
														c17.77-3.94,60.56-38.17,82.27-35.52c21.72,2.63,133.59-69.78,133.59-69.78l-228.69-36.19
														c79.62-9.77,316.31-43.39,376.13-2.63C1343.42,1696.15,1346.05,1810,1329.59,1844.88z" class="color564dc6 svgShape"></path></g><g fill="#000000" class="color000000 svgShape"><path fill="#021b79" d="M1329.6,1844.9c-16.45,34.87-69,40.3-82.82,48.85c-13.82,8.55-31.58,28.31-75.02,37.52
														c0,0-5.92,23.05-28.97,26.34c-23.03,3.29-59.23-3.95-59.23-3.95s4.61,31.03-30.28,34.59
														c-34.87,3.57-254.59,4.64-273.23-10.41c-8.53-6.9-15.23-23.03-19.32-42.58c0.11,0.09,0.23,0.19,0.34,0.28
														c18.63,15.06,238.35,13.98,273.23,10.41c34.89-3.55,30.28-34.59,30.28-34.59s36.18,7.24,59.23,3.95
														c23.03-3.29,28.95-26.34,28.95-26.34c43.44-9.21,61.22-28.97,75.04-37.52c13.82-8.55,74.59-29.08,91.05-63.95
														c7.48-15.88,9.32-45,2.07-76.8C1343.09,1762.34,1340.65,1821.46,1329.6,1844.9z" class="color2e2780 svgShape"></path></g><g fill="#000000" class="color000000 svgShape"><path d="M962.19,1993.15c-75.86,0-171.29-3.04-183.86-13.19c-1.17-0.95-1.36-2.67-0.41-3.84
														c0.95-1.17,2.67-1.36,3.84-0.41c17.3,13.97,236.64,13.36,271.25,9.82c10.19-1.04,17.74-4.64,22.44-10.69
														c7.05-9.07,5.43-20.68,5.41-20.8c-0.13-0.88,0.18-1.77,0.82-2.38c0.65-0.61,1.55-0.87,2.42-0.7
														c0.36,0.07,36.02,7.11,58.31,3.92c20.9-2.98,26.48-23.44,26.7-24.31c0.26-1,1.06-1.77,2.08-1.98
														c33.43-7.09,51.21-20.39,64.19-30.11c3.68-2.76,6.87-5.14,9.97-7.06c4.06-2.52,10.69-4.61,19.08-7.26
														c21.63-6.83,51.25-16.18,62.7-40.45c0.64-1.36,2.27-1.95,3.63-1.3c1.36,0.64,1.95,2.27,1.3,3.63
														c-12.47,26.43-44.68,36.6-65.99,43.33c-7.71,2.43-14.37,4.54-17.85,6.69c-2.89,1.79-5.99,4.11-9.57,6.79
														c-13.18,9.86-31.16,23.32-64.76,30.74c-1.91,5.64-9.6,23.68-30.71,26.7c-19.29,2.76-46.98-1.6-56.69-3.33
														c0.03,4.88-0.86,13.67-6.73,21.22c-5.66,7.27-14.47,11.57-26.2,12.77C1041.7,1992.18,1005.07,1993.15,962.19,1993.15z" fill="#000000" class="color000000 svgShape"></path></g><g fill="#000000" class="color000000 svgShape"><path d="M780.04,1980.57c-0.6,0-1.21-0.2-1.71-0.61c-21.53-17.38-30.06-85.11-21.69-126.3
														c4.66-22.94,13.85-36.98,26.58-40.62c8.67-2.48,50.97-11.26,84.96-18.33c16.64-3.46,31.02-6.44,36.97-7.77
														c6.55-1.46,17.37-7.66,28.83-14.23c18.86-10.81,40.27-23.07,54.36-21.36c16.99,2.04,100.9-49.36,131.79-69.35
														c1.27-0.82,2.96-0.46,3.77,0.81c0.82,1.27,0.46,2.96-0.81,3.77c-11.54,7.46-113.25,72.88-135.41,70.18
														c-12.31-1.48-32.86,10.28-50.99,20.67c-12.34,7.08-23,13.19-30.36,14.82c-5.99,1.33-20.38,4.32-37.04,7.78
														c-32.12,6.67-76.1,15.81-84.57,18.23c-13.45,3.84-19.78,21.95-22.73,36.46c-8.74,43,1.61,106.31,19.77,120.97
														c1.17,0.95,1.36,2.67,0.41,3.84C781.63,1980.22,780.84,1980.57,780.04,1980.57z" fill="#000000" class="color000000 svgShape"></path></g><g fill="#000000" class="color000000 svgShape"><g fill="#000000" class="color000000 svgShape"><g fill="#000000" class="color000000 svgShape"><g fill="#000000" class="color000000 svgShape"><path fill="#5d7ef9" d="M806.83,1523.9c35,47.52,32.05,83.4,4.25,94.79c-5.04,2.07-10.9,3.35-17.5,3.72
																	c-35.11,2.03-82.2,1.33-82.2,1.33s-57.71,24.93-89.3,28.89c-17.95,2.24-37.11-2.5-50.28-7.01
																	c-10-3.44-16.58-6.75-16.58-6.75c-10.21,11.56-38.5,17.76-66,16.18c-4.27-0.24-8.52-0.68-12.67-1.3
																	c-16.2-2.44-31.05-7.86-40.38-16.8c-2.73-2.59-4.98-5.51-6.65-8.72c-11.9-22.84,14.7-46.07,14.7-46.07
																	s-12.5-17.11-14.49-40.81c-0.06-0.64-0.08-1.32-0.08-1.99c0-0.75,0.04-1.52,0.09-2.31
																	c0.02-0.15,0.04-0.32,0.04-0.47c0.04-0.36,0.09-0.73,0.13-1.11c0.06-0.45,0.13-0.92,0.21-1.37
																	c0.06-0.41,0.13-0.83,0.23-1.24c0.19-1,0.41-2.01,0.68-3.05c0.13-0.49,0.26-0.98,0.39-1.47
																	c6.82-24.23,31.41-55.98,31.41-55.98s-14.57-137.05,0.96-202.56c3.38-14.32,8.21-25.23,14.94-30.53
																	c37.5-29.62,146.71-38.4,194.04-37.18c45.58,1.16,153.67,25.34,159.38,76.02
																	C838.3,1332.75,792.13,1503.94,806.83,1523.9z" class="colorf95d5d svgShape"></path></g><g fill="#000000" class="color000000 svgShape"><path d="M730.56,1626.59c-11.36,0-19.03-0.11-19.22-0.11c-1.51-0.02-2.71-1.26-2.69-2.77s1.19-2.67,2.77-2.69
																	c0.47,0.01,47.39,0.67,82-1.33c6.19-0.35,11.79-1.54,16.62-3.52c9.4-3.85,15.74-10.79,18.34-20.06
																	c5.02-17.9-3.41-42.97-23.75-70.59c-7.76-10.54-1.4-51.63,10-118.04c4.44-25.85,9.03-52.58,12.01-75.89
																	c0.19-1.49,1.56-2.55,3.05-2.36c1.5,0.19,2.55,1.56,2.36,3.05c-3,23.43-7.6,50.22-12.05,76.12
																	c-8.82,51.35-17.93,104.44-10.98,113.88c21.36,29,30.1,55.74,24.61,75.3c-3.08,10.95-10.52,19.13-21.53,23.64
																	c-5.39,2.21-11.58,3.53-18.38,3.92C772.87,1626.35,747.57,1626.59,730.56,1626.59z" fill="#000000" class="color000000 svgShape"></path></g><g fill="#000000" class="color000000 svgShape"><path fill="#3b60ed" d="M494.96,1367.74c0,0,0,86.58-3.63,97.36c0,0,57.82-5.83,61.59,6.3c0,0,59.67-22.26,69.21-21.3
																	c9.55,0.96-57.16,86.57-57.16,86.57l-96.66,23.04l-46.51-17.28L494.96,1367.74z" class="colored3b3b svgShape"></path></g><g fill="#000000" class="color000000 svgShape"><g fill="#000000" class="color000000 svgShape"><polygon fill="#9ccdff" points="934.82 2014.09 789.09 1997.71 803.52 1866.83 946.03 1872.45" class="colorffb59c svgShape"></polygon></g><g fill="#000000" class="color000000 svgShape"><path fill="#5d7ef9" d="M876.01,1972.22c3.62,20.39,35.21,19.41,35.21,19.41c-7.57,21.38,22.04,22.71,34.55,23.19
																		c12.5,0.48,76.34,57.77,169.14,65.67c92.8,7.89,122.42-69.44,91.48-139.87c-30.93-70.41-153.01-65.15-166.84-67.12
																		c-13.82-1.97-56.59-18.1-75.68-20.08c-19.09-1.97-32.58,12.84-32.58,12.84s-51.95,3.99-53.31,4.28
																		c23.03,1.31,49.69,38.5,49.69,38.5l-0.06-0.01c-1.2-0.22-19.57-3.56-35.8-2.62
																		C875.01,1907.39,872.38,1951.82,876.01,1972.22z" class="colorf95d5d svgShape"></path></g><g fill="#000000" class="color000000 svgShape"><path fill="#3b60ed" d="M1114.91,2080.48c-25.17-2.14-48.21-7.91-68.67-15.21c6.33,1.03,12.82,1.86,19.46,2.42
																		c92.8,7.88,122.43-69.45,91.49-139.87c-10.7-24.38-32.35-39.7-56.65-49.36c40.15,6.2,88.08,21.67,105.87,62.14
																		C1237.32,2011.04,1207.72,2088.37,1114.91,2080.48z" class="colored3b3b svgShape"></path></g><g fill="#000000" class="color000000 svgShape"><path d="M1140.57,2080.41c48.55-20.64,60.4-78.65,36.69-132.59c-30.92-70.4-153.01-65.15-166.84-67.12
																		c-13.18-1.86-52.73-16.64-72.91-19.72c5.75-4.02,15.08-8.72,26.35-7.56c19.1,1.99,61.88,18.12,75.7,20.08
																		c13.82,1.97,135.9-3.27,166.84,67.12C1234.26,2004.09,1212.98,2073.15,1140.57,2080.41z" fill="#000000" class="color000000 svgShape"></path></g><g fill="#000000" class="color000000 svgShape"><path fill="#335eff" d="M872.72,1972.22c3.62,20.39,35.21,19.41,35.21,19.41s35.32,2.63,55.72,2.63
																		c20.4,0,86.23,40.37,105.3,39.93c19.09-0.44,38.4-42.78,23.48-69.1c-11.8-20.82-162.72-55.68-162.72-55.68
																		l-5.17-0.9c-1.2-0.22-19.79-3.04-36.03-2.1C871.73,1907.39,869.1,1951.82,872.72,1972.22z" class="colorffce33 svgShape"></path></g><g fill="#000000" class="color000000 svgShape"><path d="M1057.59,2039.16c-1.3,0-2.45-0.93-2.68-2.25c-6.64-37,0.23-74.05,16.71-90.1
																		c1.08-1.05,2.81-1.03,3.86,0.05c1.05,1.08,1.03,2.81-0.05,3.86c-15.01,14.62-21.38,50.47-15.15,85.23
																		c0.27,1.48-0.72,2.9-2.2,3.17C1057.92,2039.14,1057.75,2039.16,1057.59,2039.16z" fill="#000000" class="color000000 svgShape"></path></g><g fill="#000000" class="color000000 svgShape"><path d="M1028.62,2027.32c-1.3,0-2.45-0.93-2.68-2.25c-6.64-37,0.23-74.05,16.71-90.1
																		c1.08-1.05,2.81-1.03,3.86,0.05c1.05,1.08,1.03,2.81-0.05,3.86c-15.02,14.63-21.38,50.47-15.15,85.23
																		c0.27,1.48-0.72,2.9-2.2,3.17C1028.94,2027.3,1028.78,2027.32,1028.62,2027.32z" fill="#000000" class="color000000 svgShape"></path></g><g fill="#000000" class="color000000 svgShape"><path d="M999.65,2015.48c-1.3,0-2.45-0.93-2.68-2.25c-6.64-37,0.23-74.05,16.71-90.1
																		c1.08-1.05,2.81-1.03,3.86,0.05c1.05,1.08,1.03,2.81-0.05,3.86c-15.01,14.63-21.38,50.47-15.14,85.23
																		c0.27,1.48-0.72,2.9-2.2,3.17C999.97,2015.46,999.81,2015.48,999.65,2015.48z" fill="#000000" class="color000000 svgShape"></path></g><g fill="#000000" class="color000000 svgShape"><path d="M872.72,1974.95c-1.3,0-2.45-0.93-2.68-2.25c-2.74-15.45-2.3-49.82,8.34-63.3
																		c2.82-3.57,6.18-5.5,9.98-5.72c17.21-1,36.5,2.11,36.68,2.14l5.15,0.9c15.71,3.63,152.58,35.77,164.63,57.02
																		c0.74,1.31,0.28,2.98-1.03,3.72c-1.32,0.74-2.98,0.28-3.72-1.03c-8.22-14.51-100.77-40.46-160.96-54.37l-5.02-0.88
																		c-2.68-0.49-20.5-2.93-35.4-2.06c-2.2,0.13-4.17,1.33-6.01,3.65c-8.83,11.19-10.19,42.4-7.25,58.97
																		c0.26,1.48-0.72,2.9-2.21,3.16C873.04,1974.94,872.88,1974.95,872.72,1974.95z" fill="#000000" class="color000000 svgShape"></path></g><g fill="#000000" class="color000000 svgShape"><path d="M970.67,2003.64c-1.3,0-2.45-0.93-2.68-2.25c-6.64-37,0.23-74.05,16.71-90.1
																		c1.08-1.05,2.81-1.03,3.86,0.05c1.05,1.08,1.03,2.81-0.05,3.86c-15.02,14.63-21.38,50.47-15.14,85.23
																		c0.27,1.48-0.72,2.9-2.2,3.17C970.99,2003.62,970.83,2003.64,970.67,2003.64z" fill="#000000" class="color000000 svgShape"></path></g></g><g fill="#000000" class="color000000 svgShape"><path fill="#0575e6" d="M860.1,1903.86c-4.49,50.62-19.3,107.5-31.35,116.43c-38.5,28.46-61.2-30.85-121.11-22.93
																	c-69.98,9.23-107.27-3.06-107.27-3.06c-53.31,20.4-87.52-10.53-87.52-10.53
																	c-43.44,19.74-144.79-11.86-172.44-107.95c-12.16-42.31,12.03-102.88,42.91-157.41
																	c17.26-30.43,36.6-58.98,52.86-81.45c20.77-28.68,36.52-47.42,36.52-47.42l11.65,46.2l4.87,19.32l9.91,39.29
																	l14.38,57.09c0,0,98.06,38.83,163.21,34.23c65.15-4.62,54.62,26.32,75.68,25c21.07-1.32,68.89-10.53,97.2,14.47
																	C861.3,1835.5,863.28,1868.11,860.1,1903.86z" class="color564dc6 svgShape"></path></g><g fill="#000000" class="color000000 svgShape"><path fill="#021b79" d="M837.62,2006.57c-2.99,6.79-6.02,11.62-8.87,13.72c-38.5,28.46-61.2-30.85-121.11-22.93
																	c-69.98,9.23-107.27-3.06-107.27-3.06c-53.31,20.4-87.52-10.53-87.52-10.53
																	c-43.44,19.74-144.79-11.86-172.44-107.95c-12.16-42.31,12.03-102.88,42.91-157.41
																	c17.26-30.43,36.6-58.98,52.86-81.45c2.8-3.87,5.51-7.56,8.1-11.05c-15.58,21.75-33.59,48.63-49.77,77.16
																	c-30.88,54.53-55.08,115.09-42.91,157.41c27.65,96.09,129,127.69,172.44,107.95c0,0,34.21,30.92,87.52,10.53
																	c0,0,37.29,12.29,107.27,3.06C777.53,1974.28,800.5,2031.04,837.62,2006.57z" class="color2e2780 svgShape"></path></g><g fill="#000000" class="color000000 svgShape"><path fill="#021b79" d="M571.79,1645.63c-7.5,4.76-28.53,18.72-41.86,33.65c-7.16,8.01-19.32,12.54-30.81,15.08
																	c-14.83,3.29-28.5,3.31-28.7,3.31c-0.71,1.62-1.9,3.5-3.4,5.51c-5.13,6.88-11.6,12.35-18.85,16.24
																	c-13.27,7.14-29.15,9.04-44.27,4.79l-20.58-5.79c17.26-30.43,36.6-58.98,52.86-81.45
																	c9.32,8.95,24.17,14.36,40.38,16.8c4.15,0.62,8.4,1.05,12.67,1.3c27.5,1.58,55.79-4.62,66-16.18
																	C555.21,1638.88,561.79,1642.19,571.79,1645.63z" class="color2e2780 svgShape"></path></g><g fill="#000000" class="color000000 svgShape"><path fill="#3b60ed" d="M673.69,1594.12c-0.26,10.47-1.97,18.7-5.55,22.91c-17.54,20.62-93.59,26.86-93.59,26.86
																	s-1.02,0.6-2.76,1.73c-10-3.44-16.58-6.75-16.58-6.75c-10.21,11.56-38.5,17.76-66,16.18
																	c-4.27-0.24-8.52-0.68-12.67-1.3c-16.2-2.44-31.05-7.86-40.38-16.8c-2.73-2.59-4.98-5.51-6.65-8.72
																	c-11.9-22.84,14.7-46.07,14.7-46.07s-12.5-17.11-14.49-40.81c-0.06-0.64-0.08-1.32-0.08-1.99
																	c0-0.75,0.04-1.52,0.09-2.31c0.02-0.15,0.04-0.32,0.04-0.47c0.04-0.36,0.09-0.73,0.13-1.11
																	c0.06-0.45,0.13-0.92,0.21-1.37c0.06-0.41,0.13-0.83,0.23-1.24c0.19-1,0.41-2.01,0.68-3.05
																	c0.13-0.49,0.26-0.98,0.39-1.47h150.98v-36.94c16.54-11.01,38.18-21.79,55.04-17.42
																	C653.84,1478.22,674.71,1553.26,673.69,1594.12z" class="colored3b3b svgShape"></path></g><g fill="#000000" class="color000000 svgShape"><path d="M828.75,2023.02c-0.84,0-1.66-0.38-2.2-1.11c-0.9-1.21-0.64-2.92,0.57-3.82
																	c11.57-8.56,28.84-73.34,31.33-130.42c1.38-31.7-2.41-53.18-10.67-60.48c-23.44-20.71-61.84-16.96-84.78-14.71
																	c-3.98,0.39-7.42,0.73-10.43,0.91c-8.88,0.55-13.17-4.03-17.7-8.88c-7.46-8.01-17.68-18.98-57.97-16.13
																	c-65.03,4.61-160.39-32.81-164.42-34.41c-1.4-0.55-2.09-2.14-1.53-3.54c0.56-1.4,2.15-2.09,3.54-1.53
																	c0.97,0.39,98.27,38.55,162.02,34.04c42.91-3.03,54.14,9.04,62.35,17.85c4.24,4.55,7.06,7.55,13.36,7.15
																	c2.93-0.18,6.39-0.52,10.24-0.9c23.83-2.33,63.71-6.22,88.92,16.06c12.21,10.78,13.54,41.2,12.51,64.81
																	c-2.22,51.06-18.14,123.18-33.54,134.57C829.88,2022.84,829.31,2023.02,828.75,2023.02z" fill="#000000" class="color000000 svgShape"></path></g></g><g fill="#000000" class="color000000 svgShape"><g fill="#000000" class="color000000 svgShape"><path fill="#9ccdff" d="M580.37,1477.61c0,0,115.55-31.94,134.32-32.81c18.77-0.87,104.59,27.28,99.32,37.1
																	c-5.26,9.82-18.33,6.57-18.33,6.57s21.74,16.65,15.47,23s-20.37,2.01-20.37,2.01s10.88,12.67,7.33,18.17
																	c-3.56,5.5-17.11-0.01-17.11-0.01s12.02,14.27,5.03,19.72c-6.99,5.45-58.76-21.07-58.76-21.07
																	s-13.8,16.65-40.27,25.77s-79.67,10.27-79.67,10.27L580.37,1477.61z" class="colorffb59c svgShape"></path></g><g fill="#000000" class="color000000 svgShape"><path d="M795.68,1491.2c-0.35,0-0.7-0.07-1.04-0.21c-12.82-5.28-48.25-18.55-58.16-16.41
																	c-12.65,2.72-33.78,9.21-33.99,9.27c-1.44,0.44-2.97-0.37-3.41-1.81c-0.44-1.44,0.37-2.97,1.81-3.41
																	c0.87-0.27,21.57-6.62,34.45-9.39c13.34-2.87,56.51,14.69,61.39,16.7c1.39,0.58,2.06,2.17,1.48,3.56
																	C797.77,1490.56,796.76,1491.2,795.68,1491.2z" fill="#000000" class="color000000 svgShape"></path></g><g fill="#000000" class="color000000 svgShape"><path d="M790.79,1516.21c-0.4,0-0.8-0.09-1.18-0.27c-16.13-7.77-42.56-20.25-46.3-21.36
																	c-3,0.31-24.33,4.02-37.49,6.37c-1.5,0.27-2.9-0.73-3.17-2.21c-0.26-1.48,0.72-2.9,2.21-3.17
																	c8.46-1.51,36.24-6.42,38.57-6.47c0.71-0.02,2.96-0.05,48.54,21.91c1.36,0.65,1.93,2.29,1.28,3.64
																	C792.78,1515.64,791.8,1516.21,790.79,1516.21z" fill="#000000" class="color000000 svgShape"></path></g><g fill="#000000" class="color000000 svgShape"><path d="M781,1534.37c-0.34,0-0.68-0.06-1.02-0.2c-17.25-6.93-45.54-18.13-48.03-18.69
																	c-2.24-0.11-20.58,4.06-36.91,8.16c-1.44,0.36-2.95-0.52-3.31-1.98c-0.37-1.46,0.52-2.94,1.98-3.31
																	c13.3-3.34,36.07-8.84,39.3-8.22c3.19,0.62,41.38,15.92,49,18.98c1.4,0.56,2.08,2.15,1.51,3.55
																	C783.11,1533.72,782.09,1534.37,781,1534.37z" fill="#000000" class="color000000 svgShape"></path></g></g><g fill="#000000" class="color000000 svgShape"><path fill="#5d7ef9" d="M631.68,1451.06c20.61,5.32,48.26,122.41,30.71,143.04c-17.55,20.62-93.59,26.88-93.59,26.88
																s-28.19,16.94-44.63,35.37s-59.51,18.38-59.51,18.38c-13.92,31.2-55.67,25.89-86.39,25.44
																c-44.83-0.66-67.78-39.88-62.95-101.74c4.31-55.28,45.48-247.13,74.44-293.86c28.96-46.73,105.53-75.13,105.53-75.13
																c18.64,118.35-26.99,273.24-26.99,273.24s26.59-17.5,52.03-22.3c25.44-4.8,31.2,7.68,31.2,7.68
																S600,1442.88,631.68,1451.06z" class="colorf95d5d svgShape"></path></g><g fill="#000000" class="color000000 svgShape"><path d="M405.01,1703.49c-5.48,0-10.9-0.17-16.09-0.33c-3.66-0.11-7.24-0.23-10.68-0.28
																c-1.51-0.02-2.71-1.26-2.69-2.77c0.02-1.51,1.17-2.71,2.77-2.69c3.47,0.05,7.08,0.16,10.77,0.28
																c28.8,0.9,61.48,1.92,73.08-24.1c0.44-0.98,1.42-1.62,2.49-1.62h0l0,0c0.47,0,42.04-0.19,57.47-17.47
																c16.53-18.52,44.1-35.19,45.27-35.89c0.36-0.22,0.76-0.35,1.18-0.38c0.75-0.06,75.11-6.4,91.73-25.93
																c10-11.75,3.64-62.03-8.31-99.82c-8.49-26.83-16.62-37.67-21-38.81c-29.92-7.73-77.13,35.89-77.61,36.33
																c-0.64,0.6-1.52,0.85-2.39,0.68c-0.86-0.17-1.58-0.74-1.95-1.53c-0.2-0.39-5.49-10.43-28.21-6.14
																c-24.59,4.64-50.78,21.73-51.04,21.9c-0.96,0.63-2.21,0.59-3.13-0.09c-0.92-0.68-1.32-1.87-0.99-2.96
																c0.19-0.65,19.12-65.49,27.44-142.15c0.16-1.5,1.52-2.59,3.01-2.42c1.5,0.16,2.58,1.51,2.42,3.01
																c-6.82,62.82-20.72,117.76-25.76,136.38c9.39-5.49,28.36-15.51,47.03-19.03c19.57-3.69,28.53,2.39,32.12,6.31
																c10.17-8.97,51.28-43.09,80.42-35.57c10.27,2.65,19.18,24.54,24.84,42.44c10.56,33.38,20.18,89.84,7.27,105
																c-17.39,20.44-86.79,27.07-94.79,27.77c-3.94,2.43-28.73,18-43.47,34.52c-15.33,17.18-51.33,19.07-59.8,19.27
																C455.22,1700.1,429.56,1703.49,405.01,1703.49z" fill="#000000" class="color000000 svgShape"></path></g><g fill="#000000" class="color000000 svgShape"><path d="M551.53,1517.64c-0.49,0-0.99-0.13-1.43-0.41c-1.28-0.79-1.68-2.48-0.88-3.76
																c4.54-7.34,1.37-20.17-0.24-24.49c-0.53-1.41,0.19-2.98,1.61-3.51c1.4-0.52,2.99,0.2,3.51,1.61
																c0.27,0.74,6.62,18.18-0.24,29.26C553.33,1517.18,552.44,1517.64,551.53,1517.64z" fill="#000000" class="color000000 svgShape"></path></g><g fill="#000000" class="color000000 svgShape"><path d="M438.26,1535.01c-0.71,0-1.41-0.27-1.95-0.82c-1.06-1.08-1.04-2.8,0.04-3.86
																c5.28-5.18,30.03-29.62,30.03-29.62l3.83,3.88c0,0-24.76,24.44-30.04,29.63
																C439.64,1534.75,438.95,1535.01,438.26,1535.01z" fill="#000000" class="color000000 svgShape"></path></g><g fill="#000000" class="color000000 svgShape"><path d="M568.81,1623.7c-1.51,0-2.73-1.22-2.73-2.73c0-0.86,0.4-1.64,1.03-2.14c0.44-3.08-1.39-14.5-4.71-23.83
																c-0.5-1.42,0.24-2.98,1.66-3.49c1.43-0.51,2.98,0.23,3.49,1.65c2.42,6.8,7.03,24.81,4.05,29.04
																C570.93,1623.16,569.91,1623.7,568.81,1623.7L568.81,1623.7z" fill="#000000" class="color000000 svgShape"></path></g><g fill="#000000" class="color000000 svgShape"><path d="M464.66,1677.45c-0.02,0-0.03,0-0.05,0c-1.51-0.03-2.71-1.28-2.68-2.78c0.13-6.42-0.39-24.24-4.27-29.53
																c-0.89-1.22-0.63-2.92,0.59-3.81c1.22-0.89,2.92-0.63,3.82,0.59c5.66,7.72,5.38,30.31,5.33,32.86
																C467.36,1676.27,466.14,1677.45,464.66,1677.45z" fill="#000000" class="color000000 svgShape"></path></g></g><g fill="#000000" class="color000000 svgShape"><path d="M835.55,1985.52c0.03,0,0.05-0.01,0.06-0.05C835.46,1985.5,835.44,1985.52,835.55,1985.52z" fill="#000000" class="color000000 svgShape"></path></g></g><g fill="#000000" class="color000000 svgShape"><path d="M735.66,1850.71c-0.46,0-0.93-0.12-1.36-0.36c-1.31-0.75-1.76-2.42-1.01-3.73
														c8.32-14.49,12.87-36.38,12.92-36.6c0.3-1.48,1.72-2.42,3.22-2.13c1.48,0.3,2.43,1.75,2.12,3.22
														c-0.19,0.93-4.77,22.98-13.53,38.22C737.52,1850.21,736.6,1850.71,735.66,1850.71z" fill="#000000" class="color000000 svgShape"></path></g><g fill="#000000" class="color000000 svgShape"><path d="M624,1833.8c-0.75,0-1.5-0.31-2.04-0.92c-1-1.13-0.9-2.85,0.23-3.85c15.71-13.96,29.45-42.42,29.58-42.71
														c0.65-1.36,2.29-1.93,3.64-1.28c1.36,0.65,1.94,2.28,1.28,3.64c-0.58,1.21-14.35,29.73-30.88,44.43
														C625.29,1833.57,624.64,1833.8,624,1833.8z" fill="#000000" class="color000000 svgShape"></path></g></g></g><g fill="#000000" class="color000000 svgShape"><path d="M987.57,1389.97c-0.36,0-0.73-0.07-1.09-0.23c-1.38-0.6-2.02-2.21-1.41-3.59c6.31-14.49,2.75-20.97,2.71-21.03
												c-0.74-1.29-0.34-2.95,0.93-3.72c1.26-0.77,2.9-0.41,3.7,0.84c0.55,0.86,5.14,8.92-2.34,26.1
												C989.62,1389.36,988.62,1389.97,987.57,1389.97z" fill="#000000" class="color000000 svgShape"></path></g><g fill="#000000" class="color000000 svgShape"><path d="M1085.11,1252.98c-1.18,0-2.26-0.76-2.61-1.95c-3.73-12.45-19.32-17.34-19.48-17.39
												c-1.44-0.44-2.26-1.96-1.82-3.4c0.44-1.44,1.95-2.26,3.4-1.82c0.75,0.23,18.54,5.75,23.13,21.04
												c0.43,1.44-0.39,2.97-1.83,3.4C1085.63,1252.94,1085.37,1252.98,1085.11,1252.98z" fill="#000000" class="color000000 svgShape"></path></g><g fill="#000000" class="color000000 svgShape"><path d="M1172.63,1299.38c-0.41,0-0.83-0.09-1.23-0.3c-0.14-0.07-14.18-7.16-25.18-10.74c-1.43-0.47-2.22-2.01-1.75-3.44
												c0.47-1.43,2.02-2.22,3.44-1.75c11.41,3.71,25.37,10.76,25.96,11.06c1.34,0.68,1.88,2.32,1.2,3.67
												C1174.58,1298.83,1173.62,1299.38,1172.63,1299.38z" fill="#000000" class="color000000 svgShape"></path></g><g fill="#000000" class="color000000 svgShape"><path d="M1143.1,1368.11c-0.48,0-0.96-0.13-1.4-0.39c-0.17-0.1-17.03-10.23-23.87-13.01c-1.4-0.57-2.07-2.16-1.5-3.56
												c0.57-1.4,2.16-2.07,3.56-1.5c7.23,2.95,23.92,12.97,24.63,13.39c1.29,0.78,1.71,2.45,0.93,3.75
												C1144.93,1367.64,1144.03,1368.11,1143.1,1368.11z" fill="#000000" class="color000000 svgShape"></path></g></g></g></g></g></g></g><g fill="#000000" class="color000000 svgShape"><g fill="#000000" class="color000000 svgShape"><path d="M667.8,1375.93c-6.58,0-12.31-1.73-12.73-1.86c-1.44-0.44-2.24-1.97-1.8-3.41c0.44-1.44,1.96-2.25,3.41-1.81
							c0.16,0.05,15.91,4.78,22.7-2.05c3.97-6.17-7.81-74.86-21.53-137.65c-0.32-1.47,0.61-2.93,2.08-3.25
							c1.49-0.32,2.93,0.61,3.25,2.08c0.07,0.33,7.3,33.45,13.44,67.14c12.67,69.46,8.59,73.56,6.63,75.53
							C679.14,1374.77,673.18,1375.93,667.8,1375.93z" fill="#000000" class="color000000 svgShape"></path></g><g fill="#000000" class="color000000 svgShape"><polygon fill="#9ccdff" points="686.69 1055.75 706.07 1184.96 692.48 1239.97 660.5 1228.57 589.24 1180.74 587.29 1078.62" class="colorffb59c svgShape"></polygon></g><g fill="#000000" class="color000000 svgShape"><path d="M687.51,1061.23l17.85,113.05c0,0-64.61-13.81-78.97-59.99c-14.33-46.21,54.97-55.85,54.97-55.85L687.51,1061.23z" fill="#000000" class="color000000 svgShape"></path></g><g fill="#000000" class="color000000 svgShape"><g fill="#000000" class="color000000 svgShape"><path fill="#9ccdff" d="M620.2,973.7c6.38,27.38-24.06,69.39-24.06,69.39c-0.26-19.23-23.56-31.17-23.56-31.17l1.69-46.59
								c26.39-55.24,84.6-70.97,156.63-69.62c0,0,10.98,20.06,23.22,48.77C693.53,962.91,620.2,973.7,620.2,973.7z" class="colorffb59c svgShape"></path></g><g fill="#000000" class="color000000 svgShape"><path fill="#9ccdff" d="M741.52,961.47c0,0,27.19-33.47,51.12-1.33s-19.92,65.41-19.92,65.41L741.52,961.47z" class="colorffb59c svgShape"></path></g><g fill="#000000" class="color000000 svgShape"><g fill="#000000" class="color000000 svgShape"><path fill="#74b3f3" d="M741.51,970.72c0,0,21.77-26.8,40.93-1.07c19.16,25.74-15.95,52.37-15.95,52.37L741.51,970.72z" class="colorf39474 svgShape"></path></g></g><g fill="#000000" class="color000000 svgShape"><path fill="#9ccdff" d="M754.53,1136.05c-85.48,41.01-167.24-57.43-167.24-57.43s-55.79,7.82-56.65-36.73
								c-0.6-32.65,41.94-29.96,41.94-29.96s23.3,11.94,23.56,31.17c0,0,30.43-42.01,24.06-69.39c0,0,73.34-10.79,133.92-29.22
								C780.54,1006.25,812.87,1108.03,754.53,1136.05z" class="colorffb59c svgShape"></path></g><g fill="#000000" class="color000000 svgShape"><g fill="#000000" class="color000000 svgShape"><path d="M710.81,1148.88c-37.44,0-71.55-20.16-96.34-40.36c-1.17-0.95-1.34-2.67-0.39-3.84c0.95-1.17,2.67-1.35,3.84-0.39
									c33.22,27.07,83.68,54.13,135.44,29.3c1.36-0.65,2.99-0.08,3.64,1.28c0.65,1.36,0.08,2.99-1.28,3.64
									C740.48,1145.82,725.39,1148.88,710.81,1148.88z" fill="#000000" class="color000000 svgShape"></path></g></g><g fill="#000000" class="color000000 svgShape"><path d="M803.11,884.49c-1.13,8.18-1.26,15.66-4.47,23.38c-6.59,15.9-16.92,30.64-31.47,40.2
								c-17.31,11.35-41,14.05-58.85,3.64c-2.49,2.15-5.38,3.96-8.27,5.62c-24.46,13.99-51.78,18.65-79.85,16.36
								c6.38,27.41-24.07,69.41-24.07,69.41c-0.26-19.23-23.54-31.18-23.54-31.18s-43.17-1.39-41.24,37.29
								c-11.38-10.04-46.97-52.23-38.92-86.82c4.02-17.26,11.39-33.88,22.76-47.56c2.1-2.5,4.93-4.71,6.78-7.33
								c3.27-4.64-0.41-10.38-0.65-15.93c-0.45-12.23,4.8-24.58,13.17-33.43c12.03-12.74,29.34-19.19,46.57-22.5
								c16.12-3.14,33.07-3.8,48.81,0.87c15.77,4.68,30.26,15.25,37.14,30.16c-3.74-17.05,6.23-35.03,20.81-44.63
								c14.58-9.63,32.75-12.16,50.21-11.58c13.52,0.4,27.41,2.68,38.89,9.83c12,7.49,20.49,19.96,24.34,33.56
								C804.06,863.77,804.48,874.28,803.11,884.49z" fill="#000000" class="color000000 svgShape"></path></g><g fill="#000000" class="color000000 svgShape"><g fill="#000000" class="color000000 svgShape"><path d="M716.8,1070.59c-1.34,0-2.51-0.99-2.7-2.36c-0.21-1.49,0.84-2.87,2.33-3.08c6.01-0.83,16.32-3.61,18.37-7.52
									c1.46-4.02-8.49-30.47-18.56-52.65c-0.62-1.37-0.02-2.99,1.36-3.61c1.37-0.63,2.99-0.01,3.61,1.36
									c6.78,14.92,22.13,50.39,18.43,57.44c-4.02,7.65-20.59,10.14-22.46,10.39C717.04,1070.58,716.92,1070.59,716.8,1070.59z" fill="#000000" class="color000000 svgShape"></path></g></g><g fill="#000000" class="color000000 svgShape"><g fill="#000000" class="color000000 svgShape"><ellipse cx="749.44" cy="1009.56" rx="8.15" ry="10.16" transform="rotate(-23.103 749.535 1009.623)" fill="#000000" class="color000000 svgShape"></ellipse></g></g><g fill="#000000" class="color000000 svgShape"><g fill="#000000" class="color000000 svgShape"><path d="M731.89,1003.05c-0.36,0-0.72-0.07-1.06-0.22c-1.39-0.59-2.04-2.19-1.45-3.58c5.98-14.14,18.72-15.51,24.61-14.26
									c1.48,0.31,2.42,1.76,2.11,3.24c-0.31,1.47-1.76,2.41-3.23,2.11l0,0c-0.52-0.11-12.77-2.42-18.46,11.04
									C733.96,1002.43,732.95,1003.05,731.89,1003.05z" fill="#000000" class="color000000 svgShape"></path></g></g><g fill="#000000" class="color000000 svgShape"><g fill="#000000" class="color000000 svgShape"><ellipse cx="687.02" cy="1028.24" rx="8.15" ry="10.16" transform="rotate(-23.103 687.106 1028.3)" fill="#000000" class="color000000 svgShape"></ellipse></g></g><g fill="#000000" class="color000000 svgShape"><g fill="#000000" class="color000000 svgShape"><path d="M669.47,1021.73c-0.36,0-0.72-0.07-1.06-0.22c-1.39-0.59-2.04-2.19-1.45-3.58c5.98-14.13,18.72-15.51,24.61-14.26
									c1.48,0.31,2.42,1.76,2.11,3.24c-0.31,1.47-1.75,2.41-3.23,2.11l0,0c-0.52-0.11-12.77-2.41-18.46,11.04
									C671.54,1021.1,670.53,1021.73,669.47,1021.73z" fill="#000000" class="color000000 svgShape"></path></g></g><g fill="#000000" class="color000000 svgShape"><g fill="#000000" class="color000000 svgShape"><path d="M713.62,1104.27c-20.09,0-31.18-17.71-31.31-17.93c-0.79-1.29-0.38-2.97,0.91-3.75c1.28-0.78,2.96-0.38,3.75,0.9
									l0,0c0.57,0.92,14.19,22.48,38.94,12.86c1.4-0.55,2.99,0.15,3.53,1.55c0.55,1.4-0.15,2.99-1.55,3.53
									C722.72,1103.44,717.96,1104.27,713.62,1104.27z" fill="#000000" class="color000000 svgShape"></path></g></g></g><g fill="#000000" class="color000000 svgShape"><path fill="#74b3f3" d="M588.27,1042.73c2.25,13.82-8.99,26.61-23.85,24.89c-6.84-0.79-12.8-4.94-16.95-10.5
							c-12-16.07-0.87-27.8,12.52-31.47C572.6,1022.2,586.15,1029.68,588.27,1042.73z" class="colorf39474 svgShape"></path></g><g fill="#000000" class="color000000 svgShape"><polygon fill="#ffffff" points="589.24 1180.74 660.5 1228.57 622.15 1259.24 560.5 1212.8" class="colorffffff svgShape"></polygon><path d="M622.15,1261.97c-0.58,0-1.16-0.18-1.64-0.55l-61.65-46.45c-0.61-0.46-1-1.15-1.07-1.92
							c-0.07-0.76,0.17-1.52,0.69-2.09l28.74-32.06c0.91-1.01,2.43-1.2,3.55-0.44l71.26,47.83c0.72,0.48,1.17,1.28,1.2,2.15
							c0.04,0.87-0.34,1.7-1.02,2.25l-38.36,30.68C623.36,1261.77,622.75,1261.97,622.15,1261.97z M564.51,1212.4l57.58,43.38
							l33.79-27.03l-66.2-44.43L564.51,1212.4z" fill="#000000" class="color000000 svgShape"></path></g><g fill="#000000" class="color000000 svgShape"><path fill="#ffffff" d="M706.07,1184.96l-45.56,43.61c3.69,3.49,27.71,25.83,33.75,22.92c6.53-3.17,32.86-41.68,32.86-41.68
							C724.08,1205.63,706.07,1184.96,706.07,1184.96z" class="colorffffff svgShape"></path><path d="M693.18,1254.41c-6.17,0-17.76-8-34.55-23.86c-0.54-0.51-0.85-1.23-0.86-1.98c0-0.75,0.3-1.46,0.84-1.98l45.57-43.61
							c0.54-0.52,1.26-0.79,2.01-0.76c0.75,0.03,1.44,0.37,1.94,0.93c0.74,0.85,18.12,20.81,21.19,25.04
							c0.68,0.93,0.7,2.19,0.05,3.15c-4.46,6.53-27.08,39.28-33.92,42.6C694.8,1254.26,694.04,1254.41,693.18,1254.41z
							 M664.48,1228.54c14.77,13.66,26.07,21.13,28.65,20.47c3.86-1.88,19.83-23.45,30.61-39.1c-3.85-4.81-13.71-16.22-17.85-20.99
							L664.48,1228.54z" fill="#000000" class="color000000 svgShape"></path></g></g></g><g fill="#000000" class="color000000 svgShape"><g fill="#000000" class="color000000 svgShape"><g fill="#000000" class="color000000 svgShape"><path d="M1600.27,851.48c-1.38,0-2.56-1.04-2.71-2.44c-0.16-1.5,0.93-2.84,2.43-3c10.5-1.1,20.89-3.31,30.89-6.57
							c1.43-0.47,2.97,0.32,3.44,1.75c0.47,1.43-0.32,2.97-1.75,3.44c-10.36,3.37-21.13,5.66-32.01,6.8
							C1600.46,851.47,1600.36,851.48,1600.27,851.48z M1568.15,851.08c-0.11,0-0.21-0.01-0.32-0.02
							c-11.1-1.31-21.85-3.55-31.97-6.64c-1.44-0.44-2.25-1.97-1.81-3.41c0.44-1.44,1.96-2.26,3.41-1.81
							c9.8,3,20.23,5.17,31.01,6.44c1.5,0.18,2.57,1.53,2.39,3.03C1570.69,850.06,1569.51,851.08,1568.15,851.08z M1507.03,832.06
							c-0.45,0-0.9-0.11-1.32-0.34c-9.64-5.32-18.64-11.67-26.75-18.9c-1.12-1-1.23-2.73-0.22-3.85c1.01-1.13,2.73-1.22,3.85-0.22
							c7.81,6.95,16.47,13.07,25.76,18.19c1.32,0.73,1.8,2.39,1.07,3.71C1508.93,831.55,1508,832.06,1507.03,832.06z
							 M1661.09,831.68c-0.94,0-1.86-0.49-2.36-1.36c-0.76-1.3-0.31-2.97,0.99-3.73c9.11-5.28,17.7-11.54,25.53-18.6
							c1.12-1.01,2.84-0.92,3.85,0.2c1.01,1.12,0.92,2.85-0.2,3.85c-8.12,7.32-17.02,13.8-26.45,19.27
							C1662.03,831.56,1661.55,831.68,1661.09,831.68z M1459.34,789.56c-0.85,0-1.7-0.4-2.23-1.15
							c-6.27-8.82-11.65-18.44-15.97-28.59c-0.59-1.39,0.05-2.99,1.44-3.58c1.39-0.59,2.99,0.05,3.58,1.44
							c4.17,9.79,9.35,19.06,15.4,27.56c0.87,1.23,0.59,2.93-0.64,3.81C1460.43,789.39,1459.88,789.56,1459.34,789.56z
							 M1708.59,788.84c-0.56,0-1.12-0.17-1.6-0.52c-1.22-0.89-1.49-2.59-0.6-3.81c6.21-8.53,11.53-17.74,15.81-27.35
							c0.61-1.38,2.22-2,3.6-1.38c1.38,0.61,2,2.23,1.38,3.6c-4.44,9.96-9.95,19.5-16.38,28.34
							C1710.27,788.45,1709.44,788.84,1708.59,788.84z M1434.15,730.75c-1.27,0-2.41-0.9-2.67-2.19
							c-2.14-10.65-3.24-21.6-3.27-32.55c0-1.51,1.22-2.73,2.72-2.74c0,0,0,0,0.01,0c1.51,0,2.73,1.22,2.73,2.72
							c0.02,10.59,1.09,21.19,3.16,31.48c0.3,1.48-0.66,2.92-2.14,3.21C1434.51,730.73,1434.33,730.75,1434.15,730.75z
							 M1734.62,730.4c-0.19,0-0.38-0.02-0.57-0.06c-1.47-0.31-2.42-1.76-2.11-3.24c2.17-10.26,3.27-20.83,3.27-31.42l0-0.66
							c0-1.51,1.22-2.73,2.73-2.73s2.73,1.22,2.73,2.73l0,0.63c0,11-1.14,21.95-3.39,32.58
							C1737.02,729.52,1735.88,730.4,1734.62,730.4z M1434.03,666.71c-0.18,0-0.35-0.02-0.53-0.05c-1.48-0.29-2.44-1.73-2.15-3.21
							c2.13-10.79,5.34-21.33,9.53-31.3c0.59-1.39,2.19-2.04,3.57-1.46c1.39,0.58,2.04,2.18,1.46,3.57
							c-4.05,9.63-7.15,19.81-9.21,30.24C1436.44,665.81,1435.3,666.71,1434.03,666.71z M1734.48,665.79
							c-1.26,0-2.39-0.87-2.67-2.15c-2.22-10.3-5.55-20.39-9.88-30c-0.62-1.37-0.01-2.99,1.37-3.61c1.38-0.62,2.99-0.01,3.61,1.37
							c4.49,9.95,7.93,20.42,10.24,31.09c0.32,1.47-0.62,2.93-2.09,3.24C1734.86,665.77,1734.67,665.79,1734.48,665.79z
							 M1458.95,607.81c-0.54,0-1.09-0.16-1.57-0.5c-1.23-0.87-1.53-2.57-0.66-3.8c6.33-8.98,13.64-17.22,21.74-24.5
							c1.11-1.01,2.84-0.92,3.85,0.21c1.01,1.12,0.91,2.85-0.21,3.85c-7.8,7.01-14.84,14.94-20.93,23.59
							C1460.65,607.4,1459.81,607.81,1458.95,607.81z M1708.22,607.47c-0.84,0-1.67-0.39-2.2-1.11
							c-6.23-8.49-13.37-16.36-21.23-23.39c-1.12-1-1.22-2.73-0.21-3.85s2.73-1.22,3.85-0.21c8.14,7.28,15.54,15.44,22,24.23
							c0.89,1.22,0.63,2.92-0.59,3.82C1709.34,607.3,1708.78,607.47,1708.22,607.47z M1506.45,565.09c-0.96,0-1.89-0.51-2.39-1.4
							c-0.74-1.32-0.26-2.98,1.05-3.71c9.36-5.22,19.48-9.54,30.09-12.83c1.45-0.45,2.97,0.36,3.42,1.8
							c0.45,1.44-0.36,2.97-1.8,3.42c-10.25,3.18-20.02,7.35-29.05,12.39C1507.36,564.98,1506.91,565.09,1506.45,565.09z
							 M1660.52,564.83c-0.46,0-0.93-0.12-1.36-0.36c-9.15-5.25-18.87-9.54-28.9-12.76c-1.43-0.46-2.23-2-1.76-3.43
							c0.46-1.43,2-2.23,3.43-1.77c10.39,3.33,20.47,7.78,29.95,13.22c1.31,0.75,1.76,2.42,1.01,3.73
							C1662.39,564.34,1661.47,564.83,1660.52,564.83z M1567.48,545.83c-1.36,0-2.54-1.02-2.71-2.4c-0.18-1.5,0.88-2.86,2.38-3.04
							c5.46-0.66,11.1-1.11,16.77-1.34c0.02,0,0.04,0,0.06,0c5.37,0,10.68,0.27,15.89,0.79c1.5,0.15,2.59,1.49,2.44,2.99
							c-0.15,1.5-1.5,2.59-2.99,2.44c-5.05-0.51-10.2-0.76-15.3-0.76c-5.42,0.22-10.91,0.65-16.22,1.3
							C1567.7,545.82,1567.59,545.83,1567.48,545.83z" fill="#000000" class="color000000 svgShape"></path></g><g fill="#000000" class="color000000 svgShape"><circle cx="1584.04" cy="695.69" r="118.74" fill="#89afd5" class="color89d595 svgShape"></circle></g><g fill="#000000" class="color000000 svgShape"><path d="M1584.04,817.15c-66.97,0-121.46-54.49-121.46-121.46c0-66.98,54.49-121.46,121.46-121.46
							c66.97,0,121.46,54.49,121.46,121.46c0,1.51-1.22,2.73-2.73,2.73s-2.73-1.22-2.73-2.73c0-63.97-52.04-116.01-116-116.01
							c-63.96,0-116,52.04-116,116.01c0,63.97,52.04,116.01,116,116.01c1.51,0,2.73,1.22,2.73,2.73S1585.55,817.15,1584.04,817.15z" fill="#000000" class="color000000 svgShape"></path></g></g><g fill="#000000" class="color000000 svgShape"><path fill="#ffffff" d="M1558.88,740.56c-2.79,0-5.59-1.07-7.72-3.2l-20.66-20.66c-4.26-4.26-4.26-11.18,0-15.44
						c4.26-4.26,11.17-4.26,15.44,0l12.94,12.94l66.6-66.6c4.26-4.26,11.17-4.26,15.44,0s4.26,11.18,0,15.44l-74.32,74.32
						C1564.47,739.5,1561.67,740.56,1558.88,740.56z" class="colorffffff svgShape"></path></g></g><g fill="#000000" class="color000000 svgShape"><path fill="#324077" d="M1417.64 930.63c-.52 0-1.81-.11-3.86-.33-.18 4.34-.27 11.46-.27 21.38 0 1.64-.57 3.05-1.7 4.23-1.13 1.18-2.57 1.77-4.32 1.77s-3.2-.59-4.35-1.77c-1.15-1.18-1.72-2.59-1.72-4.23v-12.97c0-4.8.31-11.91.92-21.33.58-9.57.89-16.71.92-21.42.03-8.06 2.27-11.91 6.71-11.57 1.04-.28 2.48-.49 4.32-.63 1.84-.14 4.08-.21 6.71-.21 6.01 0 11.65 1.97 16.93 5.9 5.86 4.4 8.79 9.76 8.79 16.08 0 7.93-3.11 14.24-9.34 18.91C1431.85 928.57 1425.28 930.63 1417.64 930.63zM1419.94 895.55c-.98 0-1.85.01-2.6.02-.75.02-1.39.05-1.91.12 0 1.46-.01 3.64-.05 6.55-.06 3.44-.35 8.8-.87 16.08 1.56.25 2.61.37 3.13.37 4.78 0 8.75-1.15 11.91-3.44 3.37-2.45 5.06-5.69 5.06-9.71 0-2.63-1.58-4.97-4.74-7.02C1426.84 896.54 1423.53 895.55 1419.94 895.55zM1493.21 959.12c-1.41 0-3.65-1.38-6.71-4.14-2.82 1.36-5.31 2.39-7.45 3.09-2.15.7-3.97 1.05-5.47 1.05-7.39 0-12.93-2-16.63-6-3.7-4-5.54-9.98-5.54-17.94 0-7.47 2.73-13.86 8.19-19.17 5.46-5.31 11.99-7.97 19.59-7.97 2.91 0 6.29.83 10.12 2.48 4.63 1.99 6.95 4.31 6.95 6.95 0 1.1-.35 2.07-1.06 2.9-.31 1.23-.54 2.77-.71 4.62-.17 1.86-.25 4.03-.25 6.51 0 5.86.41 10.08 1.24 12.65.09.28.8 1.87 2.11 4.79 1.2 2.64 1.79 4.14 1.79 4.51 0 1.63-.62 2.98-1.86 4.05C1496.27 958.58 1494.84 959.12 1493.21 959.12zM1481.81 927.75c0-.99.07-2.13.21-3.42.14-1.29.35-2.72.62-4.3-.61-.31-1.16-.53-1.63-.67-.48-.14-.88-.21-1.22-.21-4.17 0-7.82 1.65-10.95 4.95-3.13 3.3-4.69 7.12-4.69 11.46 0 4.15.74 7.27 2.21 9.36 1.47 2.09 3.68 3.14 6.62 3.14 1.9 0 3.7-.32 5.41-.95 1.7-.63 3.31-1.57 4.81-2.81C1482.26 936.92 1481.81 931.41 1481.81 927.75zM1551.58 917.3c-3.34 7.03-8.63 18.08-15.87 33.14-3.92 8.09-6.91 14.79-8.97 20.12-.64 1.92-1.66 4.77-3.04 8.55-1.1 2.91-3.07 4.37-5.89 4.37-1.75 0-3.28-.57-4.6-1.72-1.32-1.15-1.98-2.59-1.98-4.32 0-2.88 3.25-11.42 9.75-25.61-3.37-6.72-8.72-16.62-16.05-29.7-.74-1.18-1.49-2.37-2.26-3.58-.83-1.42-1.24-2.73-1.24-3.9 0-1.67.66-3.14 1.98-4.41 1.32-1.27 2.83-1.91 4.55-1.91 2.02 0 3.6.76 4.74 2.28 4.36 5.86 9.43 14.67 15.22 26.44 3.28-7.34 5.27-11.77 5.98-13.29 2.18-4.62 4.31-8.67 6.39-12.18 1.32-2.23 3.13-3.35 5.43-3.35 1.72 0 3.25.59 4.6 1.77 1.35 1.18 2.02 2.62 2.02 4.32C1552.36 915.22 1552.1 916.21 1551.58 917.3zM1569.84 915.44c4.63-5.42 9.02-8.13 13.16-8.13 4.72 0 8.19 1.81 10.4 5.44 1.87-1.67 3.94-2.93 6.21-3.76 2.27-.84 4.72-1.25 7.36-1.25 6.01 0 10.09 3.02 12.23 9.06.43 1.24 1.09 5.44 1.98 12.59.86 5.02 1.96 13.38 3.31 25.1.12 1.77-.48 3.22-1.79 4.37-1.32 1.15-2.87 1.72-4.65 1.72-3.53 0-5.6-1.77-6.21-5.3-.55-3.19-1.12-7.7-1.7-13.52-.61-6.38-1.12-10.91-1.52-13.57-.83-5.55-1.88-8.32-3.17-8.32-.71 0-2.32.71-4.83 2.14-2.52 1.43-4.36 2.65-5.52 3.67 0 3.53.41 8.61 1.24 15.24.86 6.79 1.29 11.87 1.29 15.24 0 1.77-.6 3.24-1.79 4.42-1.2 1.18-2.71 1.77-4.55 1.77s-3.36-.59-4.56-1.77c-1.19-1.18-1.79-2.65-1.79-4.42 0-3.53-.38-8.73-1.12-15.59-.75-6.86-1.13-12.06-1.13-15.59 0-1.98-.17-3.56-.51-4.74-3.56 2.08-7.13 5.53-10.72 10.36-.15.22-.41.54-.78.98-.12 6.26-.18 11.17-.18 14.73 0 .87-.03 2.04-.09 3.51-.06 1.47-.09 2.56-.09 3.28 0 1.67-.67 2.99-2.02 3.95-1.23.9-2.75 1.35-4.56 1.35-2.61 0-4.37-1.15-5.29-3.44-.65-1.55-.96-4.01-.96-7.39v-17.29c0-1.55-.06-3.82-.18-6.81-.13-2.99-.18-5.26-.18-6.81 0-2.76.49-5.25 1.47-7.48 1.19-2.79 2.88-4.18 5.06-4.18 1.72 0 3.25.67 4.6 2.02 1.35 1.35 2.03 2.83 2.03 4.44C1570.25 910.79 1570.11 912.12 1569.84 915.44zM1654.28 958.7c-7.33 0-13.32-1.77-17.98-5.3-5.15-3.9-7.73-9.4-7.73-16.5 0-7.84 2.04-14.47 6.12-19.89 4.54-6.01 10.66-9.02 18.35-9.02 5.34 0 9.77.87 13.29 2.6 4.63 2.29 6.95 5.86 6.95 10.69 0 3.41-1.89 6.43-5.66 9.06-1.72 1.21-5.17 2.97-10.35 5.3l-15.5 6.92c1.47 1.61 3.25 2.82 5.33 3.62 2.08.81 4.48 1.21 7.18 1.21 4.11 0 7.59-.85 10.44-2.56 2.55-1.52 4.58-2.28 6.12-2.28 3.19 0 4.78 1.57 4.78 4.69 0 3.53-2.56 6.41-7.68 8.64C1663.65 957.77 1659.1 958.7 1654.28 958.7zM1653.04 919.25c-2.85 0-5.29.96-7.31 2.88-2.03 1.92-3.65 4.8-4.88 8.64 3.47-1.52 6.91-3.02 10.35-4.51 4.14-1.89 7.44-3.64 9.89-5.25C1659.03 919.84 1656.35 919.25 1653.04 919.25zM1720.01 959.87c-3.77 0-5.87-1.88-6.3-5.62-.43-3.19-.86-6.4-1.29-9.62-.46-3.41-.69-6.61-.69-9.62 0-.8.05-2.18.16-4.14.11-1.95.16-3.33.16-4.14 0-.22.03-.77.09-1.65.06-.88.09-1.6.09-2.16 0-2.57-.62-3.86-1.84-3.86-2.63 0-5.2 1.71-7.73 5.12-2.53 3.41-4.5 7.74-5.93 12.97-.06 1.05-.19 2.44-.39 4.19-.17 1.43-.26 2.83-.26 4.19 0 .89-.1 2.23-.3 4.02-.2 1.79-.3 3.13-.3 4.02 0 1.81-.6 3.31-1.82 4.5-1.21 1.19-2.74 1.79-4.58 1.79-1.84 0-3.36-.59-4.56-1.78-1.19-1.18-1.79-2.67-1.79-4.47 0-.88-.09-2.22-.27-4-.18-1.78-.28-3.12-.28-4 0-3.03.22-7.24.65-12.64.43-5.4.65-9.61.65-12.64 0-.95-.06-2.36-.16-4.24-.11-1.88-.16-3.27-.16-4.19 0-1.77.62-3.23 1.86-4.38 1.24-1.15 2.77-1.73 4.58-1.73 4.02 0 6.16 2.43 6.44 7.3l.05.51c4.48-4.55 9.2-6.83 14.17-6.83 5.79 0 9.8 2.45 12 7.34 1.47 3.28 2.21 8.2 2.21 14.73v3.3c-.03 1.43-.05 2.43-.05 3.02 0 2.42.33 5.53.99 9.34.66 3.81.99 6.91.99 9.3 0 1.74-.62 3.18-1.84 4.32C1723.34 959.29 1721.82 959.87 1720.01 959.87zM1765.54 919.16c-.65 0-1.4-.02-2.28-.07s-1.63-.07-2.28-.07c-1.26 0-2.72.12-4.37.37.55 12.52.83 20.7.83 24.54 0 .4.02 1.15.05 2.25.03 1.1.05 1.99.05 2.67 0 7.13-2.22 10.69-6.67 10.69-1.69 0-3.14-.53-4.37-1.58-1.35-1.12-2.02-2.51-2.02-4.18 0-1.11.05-2.79.14-5.02.09-2.23.14-3.9.14-5.02 0-3.75-.27-11.77-.83-24.07-1.9-.09-4.78-.35-8.63-.77s-5.77-2.42-5.77-6.02c0-1.73.58-3.21 1.75-4.41 1.16-1.21 2.67-1.81 4.51-1.81 1.14 0 3.74.19 7.82.56-.03-.99-.11-2.63-.23-4.93-.12-1.98-.18-3.52-.18-4.6 0-1.73.63-3.18 1.89-4.32 1.26-1.15 2.77-1.72 4.55-1.72 4.54 0 6.81 3.86 6.81 11.57l-.09 3.81c1.9-.28 3.45-.42 4.65-.42 3.52 0 5.93.23 7.22.7 2.45.87 3.68 2.76 3.68 5.67 0 1.77-.6 3.24-1.79 4.41C1768.9 918.57 1767.38 919.16 1765.54 919.16zM1407.57 1021.29c-2.76 0-4.8-1.47-6.12-4.41-.62-1.39-1.23-2.23-1.84-2.51-.46-.22-1.67-.33-3.63-.33-3.86 0-8.32 3.04-13.38 9.11-7.08 8.49-10.62 16.44-10.62 23.84 0 3.38 1.12 6.27 3.36 8.69 2.24 2.42 4.92 3.63 8.05 3.63 3.04 0 6.12-.81 9.24-2.42 1.11-.59 3.44-2.11 6.99-4.55 2.39-1.61 4.2-2.42 5.43-2.42 1.84 0 3.4.68 4.69 2.05 1.19 1.27 1.79 2.73 1.79 4.37 0 1.83-.8 3.42-2.39 4.79-8.43 7.19-17.02 10.78-25.76 10.78-6.9 0-12.72-2.54-17.48-7.62-4.54-4.9-6.81-10.66-6.81-17.29 0-10.38 4.49-20.97 13.48-31.79 7.63-9.17 15.44-13.76 23.41-13.76 1.35 0 2.57.05 3.66.14 1.09.09 2.05.23 2.88.42 1.35-1.33 2.97-2 4.88-2 3.13 0 5.06 1.81 5.79 5.44.52 2.6.78 5.64.78 9.11 0 1.55-.45 2.96-1.33 4.23C1411.46 1020.45 1409.78 1021.29 1407.57 1021.29zM1438.71 1073.52c-5.67 0-10.55-1.97-14.63-5.9-4.48-4.31-6.82-10.05-7.04-17.24-.22-6.85 1.64-12.95 5.57-18.31 4.66-6.32 11.15-9.48 19.45-9.48 6.13 0 11.01 2.48 14.63 7.44 3.25 4.46 4.88 9.99 4.88 16.59 0 7.19-1.9 13.32-5.7 18.4C1451.6 1070.69 1445.88 1073.52 1438.71 1073.52zM1441.47 1034.86c-3.77-.03-6.75 1.7-8.92 5.21-1.84 2.94-2.76 6.38-2.76 10.32 0 3.72 1.04 6.57 3.13 8.55 1.66 1.58 3.59 2.37 5.8 2.37 2.67 0 4.98-.91 6.94-2.74 2.24-2.14 3.44-5.03 3.59-8.69C1449.64 1039.89 1447.05 1034.89 1441.47 1034.86zM1505.54 1074.08c-3.77 0-5.87-1.88-6.3-5.62-.43-3.19-.86-6.4-1.29-9.62-.46-3.41-.69-6.61-.69-9.62 0-.8.05-2.18.16-4.14.11-1.95.16-3.33.16-4.14 0-.22.03-.77.09-1.65.06-.88.09-1.6.09-2.16 0-2.57-.62-3.86-1.84-3.86-2.63 0-5.2 1.71-7.73 5.12-2.53 3.41-4.5 7.74-5.93 12.97-.06 1.05-.19 2.44-.39 4.19-.17 1.43-.26 2.83-.26 4.19 0 .89-.1 2.23-.3 4.02-.2 1.79-.3 3.13-.3 4.02 0 1.81-.61 3.31-1.82 4.5-1.21 1.19-2.74 1.79-4.58 1.79-1.84 0-3.36-.59-4.56-1.78-1.19-1.18-1.79-2.67-1.79-4.47 0-.88-.09-2.22-.27-4-.18-1.78-.28-3.12-.28-4 0-3.03.22-7.24.65-12.64.43-5.4.65-9.61.65-12.64 0-.95-.06-2.36-.16-4.24-.11-1.88-.16-3.27-.16-4.19 0-1.77.62-3.23 1.86-4.38 1.24-1.15 2.77-1.73 4.58-1.73 4.02 0 6.16 2.43 6.44 7.3l.05.51c4.48-4.55 9.2-6.83 14.17-6.83 5.79 0 9.8 2.45 12 7.34 1.47 3.28 2.21 8.2 2.21 14.73v3.3c-.03 1.43-.05 2.43-.05 3.02 0 2.42.33 5.53.99 9.34.66 3.81.99 6.91.99 9.29 0 1.74-.62 3.18-1.84 4.32C1508.86 1073.51 1507.35 1074.08 1505.54 1074.08zM1540.45 1023.05c4.11-.37 7.05-.56 8.83-.56 5.73 0 8.6 1.98 8.6 5.95 0 4.09-3.05 6.04-9.15 5.86-1.93-.06-4.86.08-8.79.42-.12 3.28-.15 7.47-.09 12.55.12 7.31.18 11.48.18 12.5 0 5.67-.35 10.16-1.06 13.48-.71 3.32-2.73 4.97-6.07 4.97-1.72 0-3.21-.56-4.49-1.67-1.27-1.12-1.91-2.53-1.91-4.23 0-.4.03-.79.09-1.16.74-4.43 1.1-8.6 1.1-12.5v-23.24c-.55.03-1.56.16-3.04.37-1.16.16-2.06.23-2.67.23-1.87 0-3.42-.55-4.65-1.65-1.23-1.1-1.84-2.58-1.84-4.44 0-2.88 1.5-4.77 4.51-5.67 1.35-.4 4.03-.67 8.05-.79.03-.56.23-2.31.6-5.25.86-6.91 2.71-12.05 5.57-15.43 3.56-4.21 9.01-6.32 16.37-6.32 5.61 0 8.42 2.03 8.42 6.09 0 4.03-2.61 6.04-7.82 6.04-3.71 0-6.41 1.32-8.09 3.95-1.26 1.95-2.1 5-2.53 9.16L1540.45 1023.05zM1580.88 1048.98c0 1.77.05 4.6.16 8.5.11 3.9.16 6.74.16 8.5 0 1.8-.6 3.28-1.79 4.44s-2.71 1.74-4.55 1.74c-1.84 0-3.36-.58-4.56-1.74-1.19-1.16-1.79-2.64-1.79-4.44 0-1.77-.05-4.6-.16-8.5-.11-3.9-.16-6.74-.16-8.5 0-2.76.15-6.21.46-10.36s.46-7.61.46-10.36c0-1.8.6-3.28 1.79-4.44 1.19-1.16 2.71-1.74 4.55-1.74 1.84 0 3.36.58 4.55 1.74 1.2 1.16 1.79 2.64 1.79 4.44 0 2.76-.15 6.21-.46 10.36S1580.88 1046.23 1580.88 1048.98zM1576.97 1014.92c-1.96 0-3.66-.67-5.11-2-1.44-1.33-2.16-2.96-2.16-4.88 0-1.92.72-3.55 2.16-4.88 1.44-1.33 3.14-2 5.11-2 1.96 0 3.65.67 5.08 2 1.43 1.33 2.14 2.96 2.14 4.88 0 1.92-.71 3.55-2.14 4.88C1580.63 1014.25 1578.93 1014.92 1576.97 1014.92zM1631.43 1037.27c-.28 4.74-2.41 7.11-6.39 7.11-3.86 0-5.79-2.01-5.79-6.04l-.23-4.69c-6.9 1.12-11.84 4.69-14.81 10.74l.05 23.38c0 1.77-.6 3.23-1.79 4.39-1.19 1.16-2.71 1.74-4.55 1.74-1.9 0-3.37-.62-4.42-1.86-.98-1.12-1.47-2.54-1.47-4.28v-30.44c0-.96.03-2.39.09-4.3.06-1.91.09-3.34.09-4.3 0-1.73.51-3.18 1.54-4.35 1.03-1.16 2.49-1.74 4.39-1.74 3.4 0 5.43 1.77 6.07 5.3 5.43-4.09 11.45-6.14 18.08-6.14 6.13 0 9.2 4.12 9.2 12.36C1631.47 1035.74 1631.46 1036.78 1631.43 1037.27zM1650.05 1029.65c4.63-5.42 9.02-8.13 13.16-8.13 4.72 0 8.19 1.81 10.4 5.44 1.87-1.67 3.94-2.93 6.21-3.76 2.27-.84 4.72-1.25 7.36-1.25 6.01 0 10.09 3.02 12.23 9.06.43 1.24 1.09 5.44 1.98 12.59.86 5.02 1.96 13.38 3.31 25.1.12 1.77-.48 3.22-1.79 4.37-1.32 1.15-2.87 1.72-4.65 1.72-3.53 0-5.6-1.77-6.21-5.3-.55-3.19-1.12-7.7-1.7-13.52-.61-6.38-1.12-10.91-1.52-13.57-.83-5.55-1.88-8.32-3.17-8.32-.71 0-2.32.71-4.83 2.14-2.52 1.43-4.36 2.65-5.52 3.67 0 3.53.41 8.61 1.24 15.24.86 6.79 1.29 11.87 1.29 15.24 0 1.77-.6 3.24-1.79 4.42-1.2 1.18-2.71 1.77-4.55 1.77-1.84 0-3.36-.59-4.56-1.77-1.19-1.18-1.79-2.65-1.79-4.42 0-3.53-.38-8.73-1.12-15.59-.75-6.86-1.13-12.06-1.13-15.59 0-1.98-.17-3.56-.51-4.74-3.56 2.08-7.13 5.53-10.72 10.36-.15.22-.41.54-.78.98-.12 6.26-.18 11.17-.18 14.73 0 .87-.03 2.04-.09 3.51-.06 1.47-.09 2.56-.09 3.28 0 1.67-.67 2.99-2.02 3.95-1.23.9-2.75 1.35-4.56 1.35-2.61 0-4.37-1.15-5.29-3.44-.65-1.55-.96-4.01-.96-7.39v-17.29c0-1.55-.06-3.82-.18-6.81-.13-2.99-.18-5.26-.18-6.81 0-2.76.49-5.25 1.47-7.48 1.19-2.79 2.88-4.18 5.06-4.18 1.72 0 3.25.67 4.6 2.02 1.35 1.35 2.03 2.83 2.03 4.44C1650.47 1025 1650.33 1026.34 1650.05 1029.65zM1734.5 1072.92c-7.33 0-13.32-1.77-17.98-5.3-5.15-3.9-7.73-9.4-7.73-16.5 0-7.84 2.04-14.47 6.12-19.89 4.54-6.01 10.66-9.02 18.35-9.02 5.34 0 9.77.87 13.29 2.6 4.63 2.29 6.95 5.86 6.95 10.69 0 3.41-1.89 6.43-5.66 9.06-1.72 1.21-5.17 2.97-10.35 5.3l-15.5 6.92c1.47 1.61 3.25 2.82 5.33 3.63 2.08.81 4.48 1.21 7.18 1.21 4.11 0 7.59-.85 10.44-2.56 2.55-1.52 4.58-2.28 6.12-2.28 3.19 0 4.78 1.57 4.78 4.69 0 3.53-2.56 6.41-7.68 8.64C1743.87 1071.99 1739.31 1072.92 1734.5 1072.92zM1733.26 1033.46c-2.85 0-5.29.96-7.31 2.88-2.03 1.92-3.65 4.8-4.88 8.64 3.47-1.52 6.91-3.02 10.35-4.51 4.14-1.89 7.44-3.64 9.89-5.25C1739.25 1034.05 1736.57 1033.46 1733.26 1033.46zM1797.65 1024.08c.4-10.57.87-17.86 1.43-21.89.52-3.66 2.51-5.48 5.98-5.48 1.81 0 3.27.59 4.37 1.78 1.1 1.19 1.66 2.64 1.66 4.37 0 4.54-.34 11.29-1.03 20.27-.69 8.98-1.03 15.74-1.03 20.27 0 11.08.35 18.49 1.06 22.25.09.5.14.95.14 1.36 0 1.72-.61 3.14-1.84 4.25s-2.65 1.67-4.28 1.67c-2.27 0-3.96-1.02-5.06-3.07-2.08 1.27-4.25 2.1-6.48 2.49-2.24.39-4.55.58-6.95.58-6.87 0-12.57-2.21-17.11-6.65-4.63-4.52-6.94-10.29-6.94-17.29 0-8.33 2.33-15.06 6.99-20.19 4.66-5.13 10.75-7.69 18.26-7.69 2.3 0 4.36.25 6.16.74C1794.77 1022.34 1796.33 1023.08 1797.65 1024.08zM1796.73 1038.71c-1.01-1.95-2.33-3.41-3.96-4.37-1.62-.96-3.56-1.44-5.79-1.44-4.54 0-7.94 1.32-10.21 3.97-2.27 2.65-3.4 6.62-3.4 11.92 0 3.35 1.23 6.21 3.68 8.6 2.45 2.39 5.3 3.58 8.55 3.58 2.36 0 4.16-.28 5.38-.84.83-.37 2.24-1.36 4.23-2.97.52-.43 1.03-.91 1.52-1.44C1796.67 1054.24 1796.67 1048.57 1796.73 1038.71z" class="color324e77 svgShape"></path></g><g fill="#000000" class="color000000 svgShape"><g fill="#000000" class="color000000 svgShape"><path fill="#335eff" d="M1490.88,1815.49c185.22-64.24,240.71-219.88,240.71-219.88l183.45,106.86c0,0-54.59,198.94-264.66,279.89
						l0.41-20.19c0.11-5.43-4.44-9.79-9.85-9.46l-16.41,1.01c-7.3,0.45-12.23-7.32-8.72-13.73l0,0c3.29-6.01-0.84-13.39-7.68-13.73
						l-14.85-0.75c-5.8-0.29-9.92-5.78-8.56-11.44l1.44-6c1.35-5.65-2.75-11.13-8.55-11.44l-18.93-0.99
						c-6.41-0.34-10.56-6.92-8.08-12.85l2.34-5.6c2.19-5.24-0.8-11.21-6.31-12.59l-24.84-6.22c-6.17-1.55-9-8.7-5.54-14.05
						l4.09-6.32c3.26-5.04,0.95-11.8-4.7-13.8L1490.88,1815.49z" class="colorffce33 svgShape"></path></g><g fill="#000000" class="color000000 svgShape"><path d="M1650.39,1985.09c-0.55,0-1.1-0.17-1.57-0.5c-0.74-0.52-1.18-1.38-1.16-2.29l0.41-20.19c0.04-1.85-0.68-3.58-2.01-4.86
						c-1.34-1.28-3.12-1.93-4.94-1.81l-16.41,1.01c-4.44,0.27-8.5-1.8-10.88-5.55c-2.38-3.75-2.53-8.31-0.4-12.21
						c1.09-1.99,1.08-4.37-0.03-6.35c-1.11-1.98-3.12-3.23-5.39-3.35l-14.85-0.75c-3.58-0.18-6.86-1.93-9.01-4.8
						c-2.15-2.87-2.9-6.51-2.07-10l1.44-6c0.46-1.9,0.05-3.89-1.12-5.45c-1.17-1.56-2.96-2.52-4.91-2.62l-18.94-0.99
						c-3.9-0.2-7.47-2.3-9.54-5.6c-2.08-3.3-2.42-7.43-0.92-11.03l2.34-5.6c0.74-1.76,0.67-3.76-0.19-5.47
						c-0.86-1.71-2.41-2.95-4.27-3.42l-24.84-6.22c-3.81-0.95-6.82-3.59-8.26-7.24c-1.44-3.65-1.04-7.64,1.08-10.93l4.09-6.32
						c1.1-1.7,1.35-3.76,0.7-5.67c-0.65-1.91-2.12-3.39-4.02-4.07l-24.75-8.75c-1.1-0.39-1.82-1.42-1.82-2.58
						c0-1.16,0.74-2.19,1.83-2.57c181.76-63.04,238.49-216.67,239.04-218.22c0.27-0.76,0.87-1.37,1.63-1.65
						c0.77-0.28,1.61-0.2,2.31,0.21l183.45,106.86c1.07,0.62,1.59,1.89,1.26,3.08c-0.14,0.5-14.22,50.85-53.91,110.38
						c-36.63,54.94-103.21,129.26-212.39,171.33C1651.05,1985.03,1650.72,1985.09,1650.39,1985.09z M1641.51,1949.97
						c3.09,0,6.09,1.2,8.33,3.35c2.41,2.32,3.76,5.57,3.69,8.91l-0.33,16.1c105.51-41.77,170.14-114.03,205.9-167.61
						c34.81-52.16,49.69-97.11,52.71-106.97l-178.84-104.18c-4.1,10.14-19.15,44.29-50.14,83.57
						c-33.14,42.02-91.7,98.56-183.8,132.33l17.51,6.19c3.49,1.23,6.17,3.95,7.37,7.45c1.19,3.5,0.73,7.29-1.28,10.4l-4.09,6.32
						c-1.16,1.8-1.38,3.97-0.59,5.97c0.79,1.99,2.43,3.43,4.51,3.95l24.84,6.22c3.4,0.85,6.25,3.13,7.82,6.27
						c1.57,3.13,1.7,6.78,0.35,10.02l-2.34,5.6c-0.83,1.99-0.65,4.19,0.5,6.02c1.15,1.83,3.05,2.94,5.21,3.06l18.94,0.99
						c3.58,0.19,6.86,1.94,9,4.81c2.14,2.87,2.89,6.51,2.06,9.99l-1.44,6c-0.46,1.9-0.05,3.89,1.13,5.46
						c1.17,1.57,2.96,2.52,4.92,2.62l14.85,0.75c4.16,0.21,7.85,2.5,9.88,6.14c2.03,3.63,2.05,7.98,0.05,11.63
						c-1.16,2.13-1.08,4.62,0.22,6.66c1.3,2.05,3.55,3.17,5.94,3.03l16.41-1.01C1641.02,1949.98,1641.27,1949.97,1641.51,1949.97z" fill="#000000" class="color000000 svgShape"></path></g><g fill="#000000" class="color000000 svgShape"><path d="M1713.21,1922.14c-0.78,0-1.56-0.33-2.1-0.98c-6.47-7.75-19.65-21.31-28.65-29.93c-1.09-1.04-1.13-2.77-0.08-3.86
						c1.04-1.09,2.77-1.12,3.86-0.08c8.99,8.61,22.23,22.18,29.07,30.38c0.97,1.16,0.81,2.88-0.35,3.84
						C1714.45,1921.93,1713.83,1922.14,1713.21,1922.14z" fill="#000000" class="color000000 svgShape"></path></g><g fill="#000000" class="color000000 svgShape"><path d="M1661.55,1872.3c-0.61,0-1.23-0.21-1.74-0.63c-41.83-34.76-86.27-62.95-86.71-63.23c-1.27-0.81-1.66-2.49-0.85-3.77
						c0.8-1.28,2.49-1.66,3.76-0.85c0.45,0.28,45.17,28.66,87.28,63.65c1.16,0.96,1.32,2.68,0.36,3.84
						C1663.11,1871.97,1662.33,1872.3,1661.55,1872.3z" fill="#000000" class="color000000 svgShape"></path></g><g fill="#000000" class="color000000 svgShape"><path d="M1753.87,1888.51c-0.78,0-1.56-0.33-2.1-0.98c-8.24-9.88-18.73-20.64-31.17-32c-1.11-1.02-1.19-2.74-0.18-3.86
						c1.02-1.12,2.75-1.19,3.85-0.18c12.62,11.52,23.29,22.47,31.68,32.53c0.97,1.16,0.81,2.88-0.35,3.84
						C1755.11,1888.3,1754.49,1888.51,1753.87,1888.51z" fill="#000000" class="color000000 svgShape"></path></g><g fill="#000000" class="color000000 svgShape"><path d="M1696.27,1833.79c-0.61,0-1.21-0.2-1.72-0.61c-39.97-32.47-72.41-52.36-72.73-52.55c-1.29-0.78-1.7-2.46-0.91-3.75
						c0.78-1.29,2.47-1.69,3.75-0.91c0.33,0.2,33.08,20.27,73.34,52.98c1.17,0.95,1.35,2.67,0.4,3.84
						C1697.85,1833.45,1697.07,1833.79,1696.27,1833.79z" fill="#000000" class="color000000 svgShape"></path></g><g fill="#000000" class="color000000 svgShape"><path d="M1794.53,1854.87c-0.78,0-1.56-0.33-2.1-0.98c-9.27-11.11-21.35-23.3-35.9-36.25c-1.12-1-1.23-2.73-0.22-3.85
						c1-1.13,2.73-1.22,3.85-0.22c14.75,13.13,27.01,25.52,36.45,36.83c0.97,1.16,0.81,2.88-0.35,3.84
						C1795.77,1854.66,1795.15,1854.87,1794.53,1854.87z" fill="#000000" class="color000000 svgShape"></path></g><g fill="#000000" class="color000000 svgShape"><path d="M1728.1,1793.09c-0.59,0-1.19-0.19-1.69-0.59c-36.87-29.05-71.65-51.11-71.99-51.33c-1.27-0.81-1.66-2.49-0.85-3.77
						c0.8-1.28,2.49-1.66,3.76-0.85c0.35,0.22,35.36,22.42,72.46,51.66c1.18,0.93,1.39,2.65,0.45,3.83
						C1729.71,1792.73,1728.91,1793.09,1728.1,1793.09z" fill="#000000" class="color000000 svgShape"></path></g><g fill="#000000" class="color000000 svgShape"><path d="M1824.77,1809.53c-0.78,0-1.56-0.33-2.1-0.98c-7.03-8.42-17.9-18.22-27.5-26.87l-4.41-3.98
						c-1.12-1.01-1.2-2.74-0.19-3.86c1.02-1.12,2.74-1.2,3.85-0.19l4.39,3.97c9.73,8.77,20.76,18.71,28.03,27.43
						c0.97,1.16,0.81,2.88-0.35,3.84C1826,1809.33,1825.38,1809.53,1824.77,1809.53z" fill="#000000" class="color000000 svgShape"></path></g><g fill="#000000" class="color000000 svgShape"><path d="M1765.89,1755c-0.58,0-1.17-0.19-1.67-0.57c-37.6-29.02-65.66-44.39-65.94-44.54c-1.32-0.72-1.82-2.38-1.09-3.7
						c0.72-1.32,2.37-1.81,3.7-1.09c0.29,0.15,28.73,15.73,66.67,45.01c1.19,0.92,1.41,2.64,0.49,3.83
						C1767.51,1754.64,1766.7,1755,1765.89,1755z" fill="#000000" class="color000000 svgShape"></path></g><g fill="#000000" class="color000000 svgShape"><path fill="#ffffff" d="M1831.08,1724.97c2.22-3.25,5.43-5,9.64-5.26c3.44-0.22,7.33,0.57,11.65,2.37l4.41-6.45
						c1.26-1.84,2.87-2.09,4.83-0.75c0.85,0.58,1.29,1.36,1.32,2.34c0.01,0.79-0.21,1.51-0.65,2.17l-3.9,5.7
						c0.69,0.42,1.35,0.84,1.98,1.28c3.42,2.34,5.77,4.63,7.04,6.86c1.15,2,1.29,3.65,0.41,4.94c-1.68,2.46-3.87,2.77-6.56,0.93
						c-0.7-0.48-1.71-1.54-3.03-3.19c-1.32-1.65-2.22-2.64-2.72-2.98c-0.46-0.31-1.05-0.66-1.77-1.02l-7.79,11.37
						c2.85,2.23,4.95,4.6,6.3,7.11c1.78,3.29,1.81,6.17,0.1,8.67c-1.94,2.84-4.96,4.61-9.04,5.33c-3.64,0.64-7.39,0.38-11.27-0.78
						l-2.91,4.26c-1.38,2.01-3,2.38-4.88,1.09c-1.79-1.22-1.99-2.84-0.62-4.85l2.33-3.4c-1.84-1.44-3.61-3.28-5.29-5.52
						c-2.17-2.85-2.85-4.88-2.03-6.08c0.67-0.98,1.59-1.57,2.76-1.78c1.17-0.21,2.24,0.02,3.21,0.68c0.82,0.56,1.85,1.5,3.09,2.83
						c1.32,1.39,2.34,2.35,3.05,2.88l5.42-7.92c-0.24-0.16-0.42-0.3-0.54-0.41c-3.56-2.87-5.8-5.97-6.72-9.3
						C1827.83,1732.33,1828.57,1728.63,1831.08,1724.97z M1836.96,1756.35c3.52,0.84,5.82,0.47,6.9-1.11
						c0.93-1.36,0.13-3.17-2.42-5.44L1836.96,1756.35z M1847.33,1729.43c-4.62-1.24-7.59-0.89-8.92,1.05c-2,2.92-1.27,5.86,2.18,8.8
						L1847.33,1729.43z" class="colorffffff svgShape"></path></g><g fill="#000000" class="color000000 svgShape"><rect width="42.33" height="85.52" x="1741.24" y="1639.98" fill="#ffffff" transform="rotate(-58.195 1762.454 1682.822)" class="colorffffff svgShape"></rect></g></g></g><g fill="#000000" class="color000000 svgShape"><g fill="#000000" class="color000000 svgShape"><circle cx="958.35" cy="895.64" r="84.98" fill="#335eff" class="colorffce33 svgShape"></circle></g><g fill="#000000" class="color000000 svgShape"><path d="M958.24,983.41c-10.99,0-21.95-2.09-32.53-6.35c-29.3-11.77-50.1-38.51-54.3-69.78c-0.2-1.49,0.85-2.87,2.34-3.07
					c1.5-0.2,2.87,0.85,3.07,2.34c3.93,29.32,23.44,54.39,50.92,65.44c29.05,11.67,61.25,5.97,88.35-15.65
					c6.96-5.56,12.51-12.82,16.04-21c13.72-31.84,10.74-64.4-8.17-89.35c-17.89-23.6-47.23-35.82-76.54-31.89
					c-1.5,0.2-2.87-0.85-3.07-2.34c-0.2-1.49,0.85-2.87,2.34-3.07c31.26-4.19,62.54,8.84,81.62,34
					c20.13,26.56,23.35,61.11,8.83,94.81c-3.88,9-9.98,16.99-17.64,23.1C1000.63,975.67,979.38,983.41,958.24,983.41z" fill="#000000" class="color000000 svgShape"></path></g><g fill="#000000" class="color000000 svgShape"><path fill="#ffffff" d="M991.5,902.43c0.82,6.12-1.08,11.53-5.7,16.23c-3.78,3.87-9.14,7.02-16.05,9.47l1.63,12.14
					c0.47,3.46-1.14,5.44-4.83,5.94c-1.6,0.21-2.93-0.23-4-1.34c-0.84-0.91-1.34-1.98-1.5-3.21l-1.44-10.73
					c-1.24,0.23-2.45,0.43-3.64,0.59c-6.44,0.86-11.57,0.66-15.4-0.61c-3.44-1.12-5.33-2.89-5.65-5.32
					c-0.62-4.63,1.6-7.28,6.66-7.96c1.31-0.18,3.6,0,6.87,0.54c3.27,0.53,5.37,0.74,6.29,0.61c0.87-0.12,1.91-0.34,3.14-0.67
					l-2.87-21.41c-5.66,0.4-10.59-0.16-14.8-1.67c-5.51-1.96-8.59-5.29-9.21-9.98c-0.72-5.34,0.93-10.57,4.94-15.69
					c3.56-4.56,8.21-8.2,13.95-10.91l-1.07-8.01c-0.51-3.79,1-5.92,4.52-6.39c3.36-0.45,5.3,1.22,5.81,5l0.86,6.41
					c3.65-0.26,7.64,0.03,11.95,0.87c5.52,1.04,8.43,2.69,8.73,4.96c0.25,1.85-0.2,3.5-1.34,4.97c-1.14,1.47-2.63,2.33-4.45,2.57
					c-1.54,0.21-3.73,0.19-6.56-0.06c-3-0.22-5.19-0.28-6.58-0.16l2,14.91c0.45-0.06,0.8-0.09,1.06-0.09
					c7.15-0.4,13.01,0.86,17.58,3.77C987.55,890.45,990.58,895.53,991.5,902.43z M951.72,872.08c-4.99,2.71-7.28,5.56-6.88,8.53
					c0.34,2.56,3.19,3.82,8.53,3.8L951.72,872.08z M967.9,914.29c6.68-3.4,9.78-6.93,9.29-10.59c-0.74-5.5-4.66-8.16-11.78-7.96
					L967.9,914.29z" class="colorffffff svgShape"></path></g></g><g fill="#000000" class="color000000 svgShape"><g fill="#000000" class="color000000 svgShape"><circle cx="2078.91" cy="557.83" r="84.98" fill="#335eff" class="colorffce33 svgShape"></circle></g><g fill="#000000" class="color000000 svgShape"><path d="M2080.52,645.72c-24.73,0-47.28-9.11-64.28-26.5c-22.08-22.58-30.35-55.43-21.6-85.73c0.42-1.45,1.92-2.29,3.38-1.86
					c1.45,0.42,2.28,1.93,1.87,3.38c-8.21,28.42-0.45,59.23,20.26,80.4c21.88,22.38,53.66,30.13,87.17,21.25
					c8.61-2.28,16.61-6.69,23.13-12.76c25.38-23.62,35.77-54.63,28.51-85.08c-6.87-28.81-28.79-51.8-57.22-60.01
					c-1.45-0.42-2.28-1.93-1.87-3.38c0.42-1.45,1.92-2.28,3.38-1.86c30.31,8.75,53.68,33.27,61.01,63.99
					c7.73,32.42-3.24,65.34-30.1,90.34c-7.18,6.68-15.98,11.54-25.45,14.04C2099.13,644.47,2089.68,645.72,2080.52,645.72z" fill="#000000" class="color000000 svgShape"></path></g><g fill="#000000" class="color000000 svgShape"><path fill="#ffffff" d="M2106.63,577.51c-1.71,5.93-5.63,10.12-11.76,12.56c-5.02,2.02-11.19,2.75-18.5,2.2l-3.4,11.77
					c-0.97,3.36-3.24,4.52-6.81,3.49c-1.55-0.45-2.59-1.4-3.12-2.84c-0.4-1.17-0.43-2.35-0.09-3.54l3-10.4
					c-1.23-0.29-2.42-0.6-3.57-0.93c-6.24-1.8-10.86-4.05-13.84-6.75c-2.7-2.41-3.71-4.79-3.03-7.15c1.3-4.49,4.4-6.02,9.3-4.6
					c1.27,0.37,3.3,1.45,6.07,3.26c2.78,1.81,4.61,2.84,5.51,3.1c0.84,0.24,1.89,0.46,3.15,0.65l5.99-20.75
					c-5.33-1.91-9.63-4.41-12.87-7.49c-4.26-4.02-5.73-8.3-4.41-12.85c1.5-5.18,5.1-9.3,10.84-12.37c5.1-2.74,10.82-4.2,17.16-4.37
					l2.24-7.77c1.06-3.67,3.3-5.01,6.71-4.03c3.26,0.94,4.36,3.25,3.3,6.92l-1.79,6.21c3.45,1.23,6.98,3.1,10.59,5.61
					c4.64,3.17,6.63,5.86,6,8.06c-0.51,1.79-1.59,3.13-3.22,4.01c-1.64,0.89-3.34,1.07-5.11,0.56c-1.49-0.43-3.49-1.33-5.98-2.7
					c-2.65-1.41-4.64-2.34-5.96-2.79l-4.17,14.45c0.43,0.13,0.77,0.24,1.01,0.34c6.71,2.52,11.56,6.03,14.57,10.53
					C2107.83,564.95,2108.56,570.82,2106.63,577.51z M2082.44,533.7c-5.66,0.47-8.9,2.16-9.73,5.04c-0.72,2.48,1.38,4.78,6.28,6.91
					L2082.44,533.7z M2080.25,578.86c7.49-0.42,11.75-2.4,12.77-5.95c1.54-5.33-0.99-9.34-7.58-12.03L2080.25,578.86z" class="colorffffff svgShape"></path></g></g><g fill="#000000" class="color000000 svgShape"><g fill="#000000" class="color000000 svgShape"><polygon fill="#a2c8ef" points="456.5 583.46 402.24 370.38 750.83 503.3 619.59 526.67 579.65 541.46" class="colorbfa2ef svgShape"></polygon></g><g fill="#000000" class="color000000 svgShape"><polygon fill="#6a9ed3" points="449.57 413.12 619.59 526.67 607.07 609.01 579.65 541.46" class="color726ad3 svgShape"></polygon></g><g fill="#000000" class="color000000 svgShape"><polygon points="607.07 609.01 553.23 551.37 579.65 541.46" fill="#000000" class="color000000 svgShape"></polygon></g></g></g></g></svg>