<svg width="253" height="260" viewBox="0 0 253 260" fill="none" xmlns="http://www.w3.org/2000/svg">
<path d="M231.466 162.065C231.119 162.584 230.767 163.094 230.413 163.601C228.27 166.662 226.01 169.514 223.649 172.101C205.212 192.32 176.436 206.393 150.753 214.478C134.913 219.465 118.421 222.405 101.826 223.077C79.0303 223.997 55.4712 220.554 35.8135 208.977C16.1557 197.399 1.00874 176.732 0.0502976 153.939C-0.0285007 152.057 -0.0140266 150.181 0.0888936 148.309C0.104975 148.006 0.124271 147.706 0.145177 147.405C1.0007 135.198 5.54849 123.312 11.8025 112.721C19.1693 100.248 28.8406 89.3194 38.4508 78.479C49.1593 66.3971 59.8695 54.3137 70.578 42.2334C70.8996 41.87 71.2229 41.5049 71.5461 41.1415C74.0725 38.2903 76.5972 35.4423 79.1236 32.5911C87.1626 23.5196 95.3995 14.2873 105.918 8.2665C124.016 -2.09467 146.52 -1.52378 166.765 3.47589C188.515 8.84865 209.326 19.1905 225.18 35.0177C238.409 48.2237 247.966 65.4162 251.108 83.7585C251.16 84.0512 251.208 84.3439 251.255 84.6382C251.792 87.9943 252.112 91.3859 252.202 94.7967C252.758 116.092 244.399 142.838 231.466 162.066V162.065ZM228.705 26.9047C229.25 26.1955 229.517 25.3111 229.688 24.4314C230.309 21.2103 229.638 17.6065 227.334 15.2731C224.23 12.1324 214.242 13.1086 216.841 18.9895C217.785 21.1267 220.584 22.5885 222.149 24.2417C223.743 25.9254 226.264 30.0824 228.707 26.9047H228.705ZM231.793 32.6023C232.11 33.1298 232.438 33.6717 232.938 34.0303C233.436 34.3889 234.154 34.5208 234.663 34.1751C235.001 33.9467 235.194 33.5447 235.236 33.1394C235.369 31.8594 234.163 29.7897 232.851 29.4616C230.765 28.9406 231.158 31.541 231.795 32.6007L231.793 32.6023Z" fill="#EDF4FB"/>
<g opacity="0.5">
<path d="M251.259 84.6364C246.47 84.162 241.747 83.3017 237.134 82.0538C222.606 78.1251 209.241 70.6248 196.314 63.3706C188.7 59.0978 180.828 54.6786 172.791 51.0314C140.869 36.5421 104.354 33.6395 70.5829 42.2317C70.9045 41.8683 71.2277 41.5032 71.551 41.1398C83.0619 38.3256 94.991 36.7978 106.984 36.6322C129.971 36.3154 152.852 41.0208 173.151 50.2354C181.221 53.8987 189.112 58.3258 196.741 62.6083C209.62 69.8352 222.939 77.3082 237.36 81.2095C241.882 82.4317 246.483 83.2776 251.111 83.7552C251.163 84.0479 251.211 84.3405 251.258 84.6348L251.259 84.6364ZM231.471 162.066C231.124 162.584 230.772 163.094 230.418 163.6C225.061 166.202 219.523 168.508 213.833 170.499C197.347 176.272 180.199 179.198 163.261 179.199C155.153 179.199 147.094 178.529 139.173 177.179C122.112 174.274 105.503 168.368 89.443 162.661C86.2364 161.521 82.9204 160.344 79.6591 159.209C57.5216 151.512 38.7805 146.381 19.2755 146.353H19.1469C12.5471 146.353 6.15318 147.022 0.09375 148.307C0.109831 148.006 0.129127 147.706 0.150033 147.405C6.19981 146.136 12.5728 145.48 19.1469 145.48H19.2771C28.8294 145.493 38.8995 146.771 50.0696 149.389C60.9662 151.943 71.76 155.537 79.9454 158.384C83.2115 159.521 86.5275 160.698 89.7357 161.839C105.761 167.535 122.332 173.426 139.319 176.319C170.433 181.618 203.16 176.165 231.471 162.066Z" fill="white"/>
</g>
<path opacity="0.05" d="M126.116 260C194.611 260 250.138 255.616 250.138 250.208C250.138 244.8 194.611 240.416 126.116 240.416C57.6203 240.416 2.09375 244.8 2.09375 250.208C2.09375 255.616 57.6203 260 126.116 260Z" fill="black"/>
<path d="M157.1 112.25C157.1 111.646 156.61 111.156 156.007 111.156C155.403 111.156 154.914 111.646 154.914 112.25V127.258C154.914 127.862 155.403 128.352 156.007 128.352C156.61 128.352 157.1 127.862 157.1 127.258V112.25Z" fill="#5AA2EA"/>
<path d="M157.1 56.9021C157.1 56.2982 156.61 55.8086 156.007 55.8086C155.403 55.8086 154.914 56.2982 154.914 56.9021V92.7698C154.914 93.3738 155.403 93.8634 156.007 93.8634C156.61 93.8634 157.1 93.3738 157.1 92.7698V56.9021Z" fill="#5AA2EA"/>
<path d="M140.109 6.57031H26.7169C22.4032 6.57031 18.9062 10.0673 18.9062 14.381V242.322C18.9062 246.636 22.4032 250.133 26.7169 250.133H140.109C144.423 250.133 147.92 246.636 147.92 242.322V14.381C147.92 10.0673 144.423 6.57031 140.109 6.57031Z" fill="#67A6E6"/>
<path d="M147.773 6.57031H34.381C30.0673 6.57031 26.5703 10.0673 26.5703 14.381V242.322C26.5703 246.636 30.0673 250.133 34.381 250.133H147.773C152.087 250.133 155.584 246.636 155.584 242.322V14.381C155.584 10.0673 152.087 6.57031 147.773 6.57031Z" fill="#83B9EF"/>
<path d="M155.586 14.379V242.322C155.586 244.832 154.401 247.067 152.558 248.497C153.582 247.175 154.192 245.517 154.192 243.716V15.7733C154.192 11.4587 150.696 7.96261 146.381 7.96261H32.9903C31.1892 7.96261 29.5328 8.57209 28.2109 9.59486C29.639 7.75355 31.8726 6.56836 34.3829 6.56836H147.777C152.09 6.56836 155.588 10.066 155.588 14.379H155.586Z" fill="#ADD0F4"/>
<path d="M146.908 17.7539H35.249C33.2303 17.7539 31.5938 19.3904 31.5938 21.4092V235.292C31.5938 237.311 33.2303 238.947 35.249 238.947H146.908C148.927 238.947 150.563 237.311 150.563 235.292V21.4092C150.563 19.3904 148.927 17.7539 146.908 17.7539Z" fill="#F3F9FF"/>
<path d="M78.6875 10.9082H103.469C103.469 12.0259 102.562 12.9328 101.444 12.9328H80.7137C79.5961 12.9328 78.6891 12.0259 78.6891 10.9082H78.6875Z" fill="#5AA2EA"/>
<path d="M91.0778 96.0873C105.64 96.0873 117.445 84.2824 117.445 69.7204C117.445 55.1584 105.64 43.3535 91.0778 43.3535C76.5158 43.3535 64.7109 55.1584 64.7109 69.7204C64.7109 84.2824 76.5158 96.0873 91.0778 96.0873Z" fill="#ADD0F4"/>
<path d="M83.9861 83.9049C83.0887 83.9049 82.193 83.5624 81.5095 82.8789L74.3389 75.7083C72.9704 74.3398 72.9704 72.1221 74.3389 70.7536C75.7074 69.3851 77.925 69.3851 79.2935 70.7536L83.9877 75.4478L102.872 56.5635C104.24 55.195 106.458 55.195 107.827 56.5635C109.195 57.932 109.195 60.1496 107.827 61.5181L86.4658 82.8789C85.7823 83.5624 84.885 83.9049 83.9893 83.9049H83.9861Z" fill="white"/>
<path d="M91.0849 100.903C91.0737 100.903 91.064 100.903 91.0527 100.903C90.083 100.864 89.1149 100.792 88.1774 100.689C87.777 100.645 87.4891 100.285 87.5326 99.8864C87.576 99.4876 87.9378 99.1981 88.335 99.2416C89.2356 99.3397 90.1635 99.4088 91.0946 99.4458C91.7153 99.4458 92.3441 99.4265 92.9632 99.3879C93.3636 99.3622 93.7094 99.6677 93.7351 100.07C93.7608 100.47 93.4553 100.816 93.0533 100.842C92.4004 100.882 91.7378 100.903 91.0833 100.903H91.0849ZM95.8787 100.526C95.5266 100.526 95.2178 100.271 95.1615 99.9121C95.0988 99.5149 95.369 99.1418 95.7662 99.0791C97.2939 98.8379 98.8136 98.4729 100.283 97.9953C100.666 97.8698 101.076 98.0805 101.2 98.4632C101.324 98.846 101.115 99.256 100.732 99.3799C99.1915 99.8816 97.5962 100.264 95.9929 100.517C95.9543 100.523 95.9157 100.526 95.8787 100.526ZM85.4034 100.269C85.3584 100.269 85.3133 100.264 85.2683 100.256C83.6489 99.9507 82.0665 99.5391 80.5645 99.0293C80.1834 98.9006 79.9792 98.4873 80.1094 98.1062C80.2381 97.7251 80.6514 97.5209 81.0325 97.6511C82.4702 98.1384 83.9866 98.534 85.5385 98.8267C85.9341 98.9006 86.193 99.2818 86.119 99.6774C86.0531 100.026 85.7475 100.271 85.405 100.271L85.4034 100.269ZM103.207 98.3925C102.926 98.3925 102.659 98.2284 102.54 97.9551C102.379 97.5868 102.549 97.1574 102.918 96.9966C104.333 96.3823 105.712 95.649 107.018 94.8176C107.358 94.6021 107.808 94.7018 108.023 95.0411C108.239 95.3804 108.139 95.8307 107.8 96.0462C106.431 96.9178 104.984 97.6865 103.498 98.3313C103.403 98.3732 103.305 98.3925 103.209 98.3925H103.207ZM78.1105 98.0178C78.0108 98.0178 77.9111 97.9969 77.8146 97.9551C76.3175 97.2877 74.8782 96.5029 73.5354 95.62C73.1993 95.3997 73.106 94.9478 73.3263 94.6117C73.5467 94.2756 73.9985 94.1824 74.3346 94.4027C75.6115 95.2421 76.9832 95.9899 78.408 96.6251C78.7747 96.7892 78.9403 97.2185 78.7763 97.5868C78.6557 97.857 78.3903 98.0178 78.1105 98.0178ZM109.768 94.4976C109.551 94.4976 109.337 94.4011 109.192 94.2162C108.945 93.8994 109.003 93.441 109.319 93.195C110.54 92.2462 111.695 91.1929 112.754 90.0656C113.029 89.7729 113.491 89.7584 113.784 90.0334C114.076 90.3084 114.091 90.7699 113.816 91.0626C112.705 92.2446 111.494 93.3494 110.214 94.3448C110.08 94.4477 109.924 94.4976 109.767 94.4976H109.768ZM71.6073 94.0344C71.4464 94.0344 71.284 93.9814 71.1489 93.8704C69.8898 92.846 68.7078 91.7059 67.6368 90.4821C67.3714 90.1797 67.402 89.7198 67.7059 89.4545C68.0083 89.1891 68.4682 89.2197 68.7335 89.5236C69.7499 90.6863 70.8723 91.7686 72.0688 92.7415C72.3808 92.9956 72.4274 93.4539 72.1733 93.7659C72.0302 93.9428 71.8195 94.0344 71.6089 94.0344H71.6073ZM115.16 89.0975C115.004 89.0975 114.847 89.0476 114.715 88.9447C114.396 88.6987 114.34 88.2403 114.586 87.9235C115.535 86.6998 116.394 85.394 117.14 84.0399C117.334 83.6877 117.777 83.5591 118.129 83.7537C118.481 83.9483 118.61 84.3905 118.415 84.7427C117.634 86.1626 116.733 87.5328 115.738 88.8161C115.594 89.001 115.379 89.0975 115.162 89.0975H115.16ZM66.3953 88.4655C66.167 88.4655 65.9434 88.3593 65.8019 88.1583C64.8676 86.8429 64.0297 85.4309 63.3109 83.9627C63.134 83.6009 63.2836 83.1651 63.6454 82.9882C64.0072 82.8113 64.443 82.9609 64.6199 83.3227C65.3034 84.7202 66.101 86.0629 66.9903 87.3141C67.2235 87.6421 67.1463 88.0956 66.8183 88.3288C66.6896 88.4188 66.5433 88.4639 66.3969 88.4639L66.3953 88.4655ZM119.045 82.5283C118.949 82.5283 118.851 82.509 118.758 82.4688C118.389 82.3096 118.219 81.8802 118.378 81.5119C118.992 80.092 119.497 78.6125 119.882 77.1137C119.981 76.7245 120.377 76.4897 120.768 76.5894C121.157 76.6891 121.392 77.0864 121.292 77.4755C120.89 79.0483 120.359 80.6001 119.714 82.0909C119.595 82.3658 119.327 82.5299 119.045 82.5299V82.5283ZM62.8204 81.7226C62.5261 81.7226 62.2496 81.5425 62.1386 81.2514C61.5709 79.743 61.1126 78.1702 60.7749 76.575C60.6913 76.181 60.9438 75.795 61.3361 75.713C61.7301 75.6294 62.1161 75.8819 62.1981 76.2743C62.5197 77.7972 62.9587 79.2992 63.5007 80.7384C63.6422 81.1147 63.4524 81.5344 63.0761 81.676C62.9909 81.7081 62.9057 81.7226 62.8204 81.7226ZM121.17 75.1952C121.133 75.1952 121.094 75.192 121.056 75.1872C120.658 75.1244 120.387 74.753 120.449 74.3558C120.687 72.8345 120.808 71.2762 120.808 69.7227V69.6488C120.808 69.2467 121.131 68.9203 121.533 68.9187H121.535C121.935 68.9187 122.262 69.2435 122.263 69.6439V69.7195C122.263 71.3486 122.136 72.984 121.887 74.5793C121.831 74.9379 121.52 75.1952 121.168 75.1952H121.17ZM61.0177 74.3043C60.6543 74.3043 60.3407 74.0325 60.2957 73.6627C60.1413 72.3617 60.0625 71.035 60.0625 69.7211C60.0625 69.414 60.0673 69.1052 60.0754 68.7997C60.0866 68.3976 60.4227 68.0792 60.8231 68.0921C61.2252 68.1034 61.542 68.4378 61.5307 68.8399C61.5227 69.131 61.5179 69.4285 61.5179 69.7211C61.5179 70.9771 61.5934 72.2459 61.7414 73.4906C61.7896 73.8894 61.5034 74.2512 61.1046 74.2995C61.0756 74.3027 61.0467 74.3043 61.0177 74.3043ZM121.393 67.4939C121.023 67.4939 120.707 67.2124 120.67 66.8361C120.522 65.294 120.25 63.755 119.864 62.261C119.763 61.8719 119.997 61.4746 120.387 61.3733C120.776 61.272 121.173 61.5068 121.274 61.896C121.68 63.4639 121.964 65.0785 122.12 66.6946C122.159 67.0951 121.866 67.4505 121.466 67.489C121.442 67.4907 121.419 67.4923 121.395 67.4923L121.393 67.4939ZM61.0113 66.6689C60.9823 66.6689 60.955 66.6673 60.9261 66.6641C60.5272 66.6174 60.241 66.2556 60.2876 65.8568C60.4774 64.2406 60.7862 62.6325 61.2091 61.0758C61.3152 60.6883 61.714 60.4583 62.1016 60.5644C62.4892 60.6706 62.7191 61.0694 62.613 61.457C62.2093 62.9445 61.9135 64.4802 61.7317 66.0257C61.6883 66.3955 61.3731 66.6689 61.0097 66.6689H61.0113ZM119.714 60.0515C119.417 60.0515 119.137 59.8681 119.031 59.5722C118.504 58.1217 117.857 56.7001 117.108 55.3477C116.913 54.9955 117.04 54.5533 117.392 54.3587C117.744 54.1641 118.187 54.2911 118.381 54.6433C119.168 56.0633 119.846 57.554 120.399 59.0769C120.536 59.4548 120.342 59.8729 119.964 60.0096C119.882 60.0402 119.798 60.0531 119.714 60.0531V60.0515ZM62.7963 59.2458C62.7111 59.2458 62.6259 59.2313 62.5422 59.1991C62.1659 59.0576 61.9746 58.6395 62.1161 58.2632C62.6886 56.7323 63.3817 55.2464 64.1761 53.8457C64.3739 53.4967 64.8193 53.3729 65.1683 53.5723C65.5173 53.7701 65.6411 54.2156 65.4417 54.5645C64.6843 55.8993 64.0249 57.3144 63.4798 58.773C63.3704 59.0657 63.0922 59.2458 62.7979 59.2458H62.7963ZM116.228 53.2651C115.996 53.2651 115.768 53.1542 115.627 52.9483C114.753 51.6731 113.772 50.4557 112.711 49.3317C112.434 49.039 112.449 48.5791 112.742 48.3025C113.034 48.0259 113.494 48.0403 113.771 48.333C114.884 49.5134 115.913 50.7902 116.828 52.1266C117.055 52.4579 116.971 52.9114 116.638 53.1381C116.513 53.2249 116.37 53.2651 116.228 53.2651ZM66.3519 52.4949C66.2072 52.4949 66.0608 52.4514 65.9322 52.3614C65.6041 52.1298 65.5253 51.6747 65.7569 51.3466C66.6976 50.0151 67.7542 48.7576 68.896 47.6094C69.179 47.3247 69.6405 47.3231 69.9251 47.6061C70.2098 47.8892 70.2114 48.3507 69.9284 48.6353C68.8445 49.7257 67.841 50.9205 66.9469 52.1861C66.8054 52.3871 66.5802 52.4949 66.3519 52.4949ZM111.162 47.5547C110.992 47.5547 110.821 47.4952 110.683 47.3746C109.52 46.3534 108.268 45.4175 106.962 44.5909C106.623 44.3754 106.521 43.9267 106.737 43.5858C106.952 43.2465 107.401 43.1452 107.742 43.3607C109.112 44.2275 110.424 45.21 111.645 46.281C111.947 46.5464 111.978 47.0063 111.712 47.3086C111.569 47.4727 111.367 47.5563 111.166 47.5563L111.162 47.5547ZM71.551 46.9114C71.3403 46.9114 71.1312 46.8198 70.9865 46.6445C70.7324 46.3341 70.7775 45.8742 71.0894 45.6201C72.339 44.5973 73.693 43.6678 75.1114 42.8589C75.4603 42.6595 75.9058 42.7818 76.1052 43.1307C76.3046 43.4797 76.1824 43.9251 75.8334 44.1245C74.4858 44.8948 73.1993 45.7777 72.0109 46.749C71.8758 46.86 71.7118 46.913 71.551 46.913V46.9114ZM104.842 43.2754C104.731 43.2754 104.619 43.2497 104.514 43.1967C103.133 42.4971 101.687 41.9005 100.217 41.4261C99.8347 41.3023 99.6241 40.8922 99.7479 40.5095C99.8717 40.1267 100.282 39.9161 100.665 40.0399C102.208 40.5384 103.725 41.1624 105.174 41.8973C105.532 42.079 105.675 42.5164 105.494 42.875C105.365 43.1275 105.109 43.2738 104.844 43.2738L104.842 43.2754ZM78.0462 42.912C77.768 42.912 77.5026 42.7512 77.382 42.4826C77.218 42.116 77.382 41.685 77.7487 41.521C79.2024 40.8681 80.7446 40.3133 82.3286 39.8726C82.7162 39.7649 83.1166 39.9916 83.2244 40.3792C83.3321 40.7668 83.1054 41.1672 82.7178 41.2749C81.203 41.6963 79.7315 42.227 78.3437 42.8493C78.2472 42.8927 78.1459 42.9136 78.0462 42.9136V42.912ZM97.6557 40.7089C97.6043 40.7089 97.5512 40.7041 97.4981 40.6912C95.9929 40.3599 94.4443 40.1444 92.8973 40.0528C92.4952 40.0286 92.1897 39.6845 92.2138 39.2825C92.2379 38.8804 92.5837 38.5765 92.9841 38.599C94.6067 38.6971 96.2309 38.9222 97.8101 39.2696C98.2025 39.3564 98.4518 39.744 98.3649 40.1364C98.2893 40.4757 97.9886 40.7089 97.6541 40.7089H97.6557ZM85.3326 40.6446C84.9901 40.6446 84.6846 40.4017 84.6186 40.0528C84.543 39.6572 84.802 39.276 85.1976 39.2021C86.7462 38.9078 88.3656 38.7035 90.0107 38.5974C90.4095 38.5701 90.7585 38.8756 90.7842 39.2776C90.8099 39.6781 90.506 40.0254 90.104 40.0512C88.5183 40.1525 86.9601 40.3487 85.4709 40.6317C85.4243 40.6397 85.3793 40.6446 85.3342 40.6446H85.3326Z" fill="#ADD0F4"/>
<path d="M91.0819 96.4509C76.3418 96.4509 64.3516 84.4591 64.3516 69.7206C64.3516 54.9821 76.3434 42.9902 91.0819 42.9902C105.82 42.9902 117.812 54.9821 117.812 69.7206C117.812 84.4591 105.82 96.4509 91.0819 96.4509ZM91.0819 43.7171C76.7438 43.7171 65.0784 55.3825 65.0784 69.7206C65.0784 84.0586 76.7438 95.724 91.0819 95.724C105.42 95.724 117.085 84.0586 117.085 69.7206C117.085 55.3825 105.42 43.7171 91.0819 43.7171Z" fill="#5AA2EA"/>
<path d="M83.9889 84.2686C82.9565 84.2686 81.9852 83.8666 81.2551 83.1365L74.0844 75.9659C72.576 74.4574 72.576 72.005 74.0844 70.4966C75.5929 68.9882 78.0453 68.9882 79.5537 70.4966L83.9905 74.9334L102.617 56.3065C104.126 54.7997 106.578 54.7981 108.087 56.3065C109.595 57.8149 109.595 60.2673 108.087 61.7757L86.7259 83.1365C85.9959 83.8666 85.0245 84.2686 83.9921 84.2686H83.9889ZM76.8183 70.093C76.0142 70.093 75.2101 70.3985 74.599 71.0112C73.3753 72.235 73.3753 74.2259 74.599 75.4513L81.7697 82.6219C82.3631 83.2153 83.1511 83.5418 83.9889 83.5418C84.8267 83.5418 85.6163 83.2153 86.2081 82.6219L107.569 61.2611C108.793 60.0374 108.793 58.0465 107.569 56.8211C106.345 55.5973 104.354 55.5973 103.129 56.8211L84.2446 75.7053C84.1079 75.842 83.8667 75.842 83.73 75.7053L79.0359 71.0112C78.4232 70.4001 77.6191 70.093 76.8167 70.093H76.8183Z" fill="#5AA2EA"/>
<path opacity="0.3" d="M123.9 17.7539L31.6016 110.051V83.5698L97.4191 17.7539H123.9Z" fill="white"/>
<path opacity="0.3" d="M150.571 21.4076V61.22L31.6016 180.189V131.259L145.108 17.7539H146.917C148.937 17.7539 150.571 19.3894 150.571 21.4076ZM150.571 91.0315V159.364L70.9879 238.947H35.2584C33.2386 238.947 31.6032 237.31 31.6032 235.292V210.001L150.573 91.0315H150.571Z" fill="white"/>
<path d="M134.219 172.885H47.9557C46.8713 172.885 45.9922 173.764 45.9922 174.848V181.054C45.9922 182.138 46.8713 183.018 47.9557 183.018H134.219C135.303 183.018 136.182 182.138 136.182 181.054V174.848C136.182 173.764 135.303 172.885 134.219 172.885Z" fill="#ADD0F4"/>
<path d="M130.875 178.315H51.2931C51.0921 178.315 50.9297 178.152 50.9297 177.951C50.9297 177.75 51.0921 177.588 51.2931 177.588H130.875C131.076 177.588 131.238 177.75 131.238 177.951C131.238 178.152 131.076 178.315 130.875 178.315Z" fill="#021B79"/>
<path d="M128.252 242.135H80.5532C79.9582 243.667 78.6797 245.16 77.2758 245.16C74.6851 245.16 71.6586 240.084 71.6586 220.827C71.6586 199.061 70.7147 188.891 67.0336 183.018C65.6893 180.876 63.9846 179.305 61.8281 177.951H115.905C118.061 179.305 119.766 180.876 121.11 183.018C124.791 188.893 125.735 199.063 125.735 220.827C125.735 232.375 126.822 238.822 128.254 242.135H128.252Z" fill="#E6E6E6"/>
<path d="M134.628 242.134C134.033 243.666 132.756 245.159 131.351 245.159H77.2757C78.6796 245.159 79.958 243.666 80.5531 242.134H134.628ZM81.3282 190.498H75.3556C75.034 190.498 74.7734 190.238 74.7734 189.916C74.7734 189.595 75.034 189.334 75.3556 189.334H81.3282C81.6498 189.334 81.9103 189.595 81.9103 189.916C81.9103 190.238 81.6498 190.498 81.3282 190.498ZM109.536 190.498H85.1137C84.7921 190.498 84.5316 190.238 84.5316 189.916C84.5316 189.595 84.7921 189.334 85.1137 189.334H109.536C109.858 189.334 110.119 189.595 110.119 189.916C110.119 190.238 109.858 190.498 109.536 190.498ZM82.3767 195.218H76.4041C76.0825 195.218 75.8219 194.958 75.8219 194.636C75.8219 194.314 76.0825 194.054 76.4041 194.054H82.3767C82.6983 194.054 82.9588 194.314 82.9588 194.636C82.9588 194.958 82.6983 195.218 82.3767 195.218ZM119.544 195.218H86.1622C85.8406 195.218 85.5801 194.958 85.5801 194.636C85.5801 194.314 85.8406 194.054 86.1622 194.054H119.544C119.865 194.054 120.126 194.314 120.126 194.636C120.126 194.958 119.865 195.218 119.544 195.218ZM83.0231 199.817H77.0506C76.7289 199.817 76.4684 199.557 76.4684 199.235C76.4684 198.914 76.7289 198.653 77.0506 198.653H83.0231C83.3448 198.653 83.6053 198.914 83.6053 199.235C83.6053 199.557 83.3448 199.817 83.0231 199.817ZM106.867 231.242H78.6104C78.2888 231.242 78.0283 230.981 78.0283 230.66C78.0283 230.338 78.2888 230.078 78.6104 230.078H106.867C107.188 230.078 107.449 230.338 107.449 230.66C107.449 230.981 107.188 231.242 106.867 231.242ZM93.2734 235.224H78.8806C78.559 235.224 78.2985 234.963 78.2985 234.641C78.2985 234.32 78.559 234.059 78.8806 234.059H93.2734C93.595 234.059 93.8555 234.32 93.8555 234.641C93.8555 234.963 93.595 235.224 93.2734 235.224ZM111.595 199.817H86.8087C86.4871 199.817 86.2265 199.557 86.2265 199.235C86.2265 198.914 86.4871 198.653 86.8087 198.653H111.595C111.916 198.653 112.177 198.914 112.177 199.235C112.177 199.557 111.916 199.817 111.595 199.817Z" fill="#CCCCCC"/>
<path opacity="0.25" d="M123.323 235.834C123.323 235.834 123.323 230.362 122.677 207.118C122.032 183.872 115.897 180.191 115.897 180.191L61.8281 177.951H115.905C118.061 179.305 119.766 180.876 121.11 183.018C124.791 188.893 125.735 199.063 125.735 220.827C125.735 232.375 126.822 238.822 128.253 242.135H105.954C117.64 242.135 123.321 235.834 123.321 235.834H123.323Z" fill="#CCCCCC"/>
<path d="M195.425 234.509L197.05 233.232H194.391L195.425 234.509Z" fill="#76B9FC"/>
<path d="M159.203 233.232L160.173 235.109H164.254L162.735 233.232H159.203Z" fill="#76B9FC"/>
<path d="M190.568 230.824C190.234 231.135 189.887 231.455 189.531 231.779H191.342L190.568 230.824Z" fill="#76B9FC"/>
<path d="M162.219 77.7384L174.881 75.9453L162.219 77.7384Z" fill="#0575E6"/>
<path d="M166.244 90.0861L176.859 89.11C177.433 89.028 177.788 88.5038 177.653 87.9377L175.904 80.373L169.847 82.2771L163.273 82.1565L164.96 89.2081C165.095 89.7742 165.671 90.1666 166.244 90.0861Z" fill="#325CFB"/>
<path d="M175.905 80.3713L176.217 80.2732C176.473 80.1928 176.624 79.9275 176.561 79.6669L175.816 76.5568C175.722 76.1596 175.318 75.8846 174.916 75.9409L174.882 75.9457L162.22 77.7388L162.186 77.7436C161.784 77.7999 161.535 78.1682 161.63 78.5654L162.382 81.7141C162.442 81.965 162.664 82.1435 162.921 82.1467L163.276 82.1531L169.85 82.2737L175.906 80.3697L175.905 80.3713Z" fill="#325CFB"/>
<path d="M192.159 235.109H194.043L192.524 233.232H192.001H188.992L189.962 235.109H192.159Z" fill="#76B9FC"/>
<path d="M207.197 117.657L208.295 120.979H167.222C167.076 120.979 166.934 120.947 166.807 120.888C166.516 120.753 166.299 120.479 166.244 120.146L165.172 113.465C165.268 113.484 165.368 113.495 165.469 113.495H184.588C184.757 113.495 184.888 113.35 184.867 113.185C184.556 110.435 182.221 90.0872 179.817 78.0633C178.558 71.7642 177.537 67.9529 176.327 65.1902C175.055 62.2875 173.574 60.5427 171.382 58.2897C170.18 57.053 169.496 56.0351 169.136 55.2134C168.837 54.5315 168.761 53.9831 168.793 53.5522L169.025 53.5007C169.051 53.5956 169.086 53.7194 169.136 53.8657C169.552 55.0911 170.911 57.8459 174.732 57.8603C179.211 57.878 181.991 54.9721 182.964 53.1003C183.242 52.5615 183.373 52.1113 183.35 51.8379L184.465 51.9135C184.632 52.2737 184.754 52.6918 184.797 53.1742C184.879 54.0716 184.693 55.186 184.014 56.5561C182.398 59.811 181.002 62.0093 180.69 64.8943C180.534 66.3368 180.652 67.9497 181.149 69.9535C182.577 75.7025 191.383 110.271 192.153 113.286C192.184 113.412 192.296 113.497 192.423 113.497H208.866L209.307 116.681L207.868 116.71C207.384 116.719 207.046 117.197 207.197 117.659V117.657Z" fill="#F2F2F2"/>
<path d="M184.586 113.493C184.753 113.493 184.883 113.348 184.864 113.183C184.553 110.433 182.218 90.0852 179.814 78.0613C178.555 71.7622 177.534 67.951 176.325 65.1882C173.308 61.3818 168.811 61.0312 168.811 61.0312C168.811 61.0312 166.216 62.1617 165.61 65.1078C165.61 65.1078 165.87 57.7828 167.482 53.8461C167.639 53.4617 167.81 53.1112 167.993 52.8008C166.464 53.1353 156.467 55.451 150.516 60.0631C144.059 65.0676 128.078 85.4056 128.078 85.4056L114.938 95.5191L127.962 113.334C131.593 111.017 143.902 103.069 146.722 100.015C149.268 97.2575 155.612 89.4034 158.616 85.6613L163.993 112.289C164.116 112.89 164.587 113.347 165.171 113.464C165.267 113.484 165.365 113.495 165.468 113.495H184.587L184.586 113.493ZM164.96 89.2056L163.273 82.154L162.918 82.1475C162.66 82.1427 162.438 81.9642 162.379 81.7149L161.626 78.5662C161.531 78.169 161.781 77.8008 162.183 77.7445L162.216 77.7396L174.879 75.9466L174.913 75.9418C175.315 75.8855 175.718 76.1605 175.813 76.5577L176.558 79.6678C176.62 79.9283 176.469 80.1936 176.214 80.2741L175.902 80.3721L177.651 87.9368C177.786 88.5029 177.431 89.0271 176.857 89.1091L166.242 90.0852C165.668 90.1673 165.093 89.7733 164.958 89.2072L164.96 89.2056Z" fill="#54A7FB"/>
<path d="M184.59 113.495H165.471C165.368 113.495 165.27 113.483 165.174 113.464C164.591 113.347 164.119 112.892 163.996 112.289L160.78 96.3633L166.713 102.484C168.322 104.145 170.735 104.753 172.939 104.055C181.44 101.361 182.619 95.3662 182.619 95.3662C183.802 103.876 184.685 111.57 184.868 113.186C184.886 113.353 184.756 113.496 184.59 113.496V113.495ZM158.622 85.6612C155.62 89.4033 149.272 97.2574 146.728 100.015C143.908 103.071 131.599 111.017 127.968 113.334L114.945 95.519L122.758 89.5062C123.29 97.6305 131.768 97.6289 137.56 96.6575C140.767 96.1204 143.702 94.522 145.903 92.1291L153.584 83.778L155.851 71.9277L158.624 85.6612H158.622Z" fill="#4B70FB"/>
<path d="M189.094 236.562L189.882 238.074L190.173 238.634L190.679 239.607C190.718 239.669 190.774 239.711 190.839 239.732C190.929 239.763 191.033 239.75 191.115 239.684L191.789 239.147C191.903 239.055 191.934 238.893 191.858 238.766L191.324 237.733L190.72 236.564H189.097L189.094 236.562Z" fill="#F2F2F2"/>
<path d="M190.711 236.562L191.316 237.733L192.253 236.997L192.806 236.562H192.235H190.711Z" fill="#76B9FC"/>
<path d="M192.157 235.109H184.996C184.904 235.109 184.814 235.14 184.743 235.198L183.376 236.296C183.267 236.385 183.328 236.562 183.47 236.562H194.651C194.792 236.562 194.931 236.515 195.042 236.428L195.082 236.396L196.23 235.505L196.433 235.347C196.532 235.27 196.478 235.109 196.351 235.109H192.157Z" fill="#F2F2F2"/>
<path d="M192.523 233.232L194.043 235.109H194.661L195.426 234.509L194.392 233.232H192.523Z" fill="#F2F2F2"/>
<path d="M187.543 233.586C186.97 234.096 186.391 234.609 185.812 235.11H188.337L187.543 233.586Z" fill="#76B9FC"/>
<path d="M188.686 237.563L186.35 236.561H184.103C184.047 236.608 183.992 236.653 183.938 236.7L188.749 238.827L189.498 239.158L190.169 238.633L189.878 238.073L188.686 237.561V237.563ZM188.562 235.109H189.96L188.99 233.232H187.934C187.803 233.35 187.672 233.467 187.54 233.585L188.334 235.109H188.564H188.562Z" fill="#F2F2F2"/>
<path d="M189.88 238.076L189.092 236.562H188.638H186.352L188.688 237.564L189.88 238.076Z" fill="#76B9FC"/>
<path d="M218.526 228.038C219.306 226.479 218.547 225.904 218.094 225.709L218.325 228.358L218.329 228.399C218.362 228.343 218.394 228.285 218.427 228.227C218.462 228.163 218.496 228.1 218.526 228.038Z" fill="#294BCC"/>
<path d="M128.3 115.34L120.692 117.971C120.398 118.072 120.074 117.971 119.891 117.72L117.156 113.978L110.046 104.254L108.194 101.721L108.075 101.557C108.036 101.504 108.004 101.444 107.981 101.385C107.899 101.165 107.933 100.912 108.078 100.718L112.891 94.2641C113.176 93.883 113.746 93.8862 114.028 94.2689L114.941 95.5168L123.955 107.846L123.958 107.85L127.965 113.333L128.437 113.977L128.639 114.255C128.919 114.639 128.749 115.184 128.3 115.339V115.34ZM165.612 65.1071C166.216 62.161 168.814 61.0305 168.814 61.0305C167.829 57.29 167.839 55.0402 168.148 53.6942C168.404 52.5846 168.862 52.0909 169.137 51.8867V51.7387C169.064 51.7339 168.994 51.7275 168.923 51.7227C168.58 51.9639 168.273 52.3337 167.997 52.7985C167.813 53.1073 167.643 53.4594 167.485 53.8438C165.874 57.7805 165.613 65.1055 165.613 65.1055L165.612 65.1071Z" fill="#325CFB"/>
<path d="M169.138 52.5605C168.991 52.7664 168.832 53.0896 168.797 53.5479L169.027 53.4965L169.138 53.4707V52.5605Z" fill="#294BCC"/>
<path d="M169.023 53.4964C169.049 53.5913 169.085 53.7151 169.134 53.8599V53.4707L169.023 53.4964Z" fill="#E6E6E6"/>
<path d="M132.268 116.662V118.579H56.5625V116.662C56.5625 115.18 57.7638 113.979 59.2465 113.979H99.5011L98.1359 118.338C98.1359 118.338 103.148 119.858 104.665 113.979H117.154L119.889 117.721C120.072 117.97 120.396 118.073 120.69 117.971L128.298 115.341C128.747 115.185 128.917 114.639 128.637 114.257L128.435 113.979H129.584C131.067 113.979 132.268 115.181 132.268 116.662ZM56.5625 132.38V159.601C56.5625 159.963 56.6333 160.307 56.7635 160.622C57.1655 161.597 58.1256 162.283 59.2465 162.283H129.586C131.069 162.283 132.27 161.082 132.27 159.6V132.379H56.5641L56.5625 132.38ZM72.7998 158.939C72.1678 159.571 71.2946 159.96 70.3329 159.96H64.4102C62.4836 159.96 60.9205 158.398 60.9205 156.472C60.9205 154.545 62.4836 152.982 64.4102 152.982H70.3329C72.2594 152.982 73.8225 154.545 73.8225 156.472C73.8225 157.435 73.4318 158.307 72.8014 158.939H72.7998ZM83.206 159.96H76.2299V154.597H83.206V159.96ZM92.398 159.96H85.422V154.597H92.398V159.96ZM101.592 159.96H94.614V154.597H101.592V159.96ZM103.779 143.008H60.9205V134.961H103.779V143.008Z" fill="#CCCCCC"/>
<path d="M132.268 118.58H56.5625V132.381H132.268V118.58Z" fill="#333333"/>
<path d="M98.1344 118.336C98.1344 118.336 103.147 119.854 104.663 113.978C104.71 113.796 104.753 113.608 104.794 113.413C104.753 113.61 104.71 113.798 104.663 113.978H117.152L108.19 101.721L103.092 104.971C102.47 105.368 102.008 105.971 101.786 106.675L101.431 107.807L99.4981 113.979L98.1328 118.338L98.1344 118.336Z" fill="#99CCFF"/>
<path d="M101.437 107.807C100.297 108.619 97.1013 111.079 95.8438 113.979H99.5039L101.437 107.807Z" fill="#99CCFF"/>
<path d="M169.135 51.8887C168.86 52.0929 168.401 52.5866 168.146 53.6962C167.837 55.0406 167.827 57.292 168.811 61.0325C168.811 61.0325 173.309 61.3831 176.325 65.1895C175.053 62.2884 173.572 60.542 171.381 58.289C170.177 57.0508 169.495 56.0344 169.135 55.2111C168.837 54.5292 168.76 53.9809 168.794 53.5515C168.829 53.0932 168.988 52.7699 169.135 52.5641V51.8903V51.8887Z" fill="#294BCC"/>
<path d="M182.969 53.0967C183.249 52.558 183.377 52.1077 183.355 51.8343L182.969 51.8086V53.0967Z" fill="#E6E6E6"/>
<path d="M184.469 51.9089C184.635 52.2691 184.757 52.6889 184.802 53.1713C185.061 55.1171 184.34 59.1648 184.34 59.1648C187.795 59.4205 189.913 62.8072 189.913 62.8072C189.913 62.8072 190.9 58.8785 188.094 54.0911C187.626 53.2935 187.169 52.6245 186.73 52.0617C186.368 51.5985 186.021 51.2094 185.69 50.8781C184.463 49.6559 183.472 49.2667 182.969 49.1445V50.2172C183.384 50.4809 184.059 51.018 184.469 51.9105V51.9089Z" fill="#325CFB"/>
<path d="M172.593 51.7304C171.329 51.8172 170.18 51.8172 169.133 51.74V53.8596C169.549 55.0849 170.908 57.8397 174.729 57.8557C179.209 57.8734 181.99 54.9676 182.961 53.0957V46.832C180.436 49.6446 176.723 51.4474 172.592 51.7304H172.593Z" fill="#99CCFF"/>
<path d="M172.598 51.7313C176.728 51.4483 180.443 49.6455 182.967 46.8329C183.643 46.0803 184.233 45.257 184.723 44.3693C184.563 44.3918 184.4 44.403 184.233 44.403C184.399 44.403 184.563 44.3902 184.723 44.3693C186.483 44.1297 187.838 42.6228 187.838 40.7976C187.838 39.9727 187.562 39.2136 187.095 38.6073C186.885 38.3324 186.635 38.0879 186.354 37.8837C185.759 37.4495 185.026 37.1922 184.233 37.1922C183.787 37.1922 183.361 37.2742 182.967 37.4205V40.6497C182.967 41.3621 182.388 41.941 181.676 41.941C181.284 41.941 180.931 41.7641 180.695 41.4875C180.502 41.2624 180.385 40.9697 180.385 40.6497V35.4844C180.385 35.4844 178.81 36.8159 177.439 36.8159C176.067 36.8159 174.613 34.8379 174.613 34.8379C174.613 34.8379 175.38 38.0059 173.201 38.0059C171.022 38.0059 168.076 37.1391 166.664 35.1611C166.664 35.1611 167.835 38.0059 164.889 38.0059C162.528 38.0059 160.069 35.7915 159.186 34.9103C158.995 35.7513 158.881 36.6213 158.852 37.5122C158.847 37.665 158.844 37.8178 158.844 37.9721C158.844 44.7198 160.175 50.9819 168.927 51.7216C168.997 51.7281 169.07 51.7329 169.141 51.7377C170.187 51.8149 171.336 51.8149 172.601 51.7281L172.598 51.7313Z" fill="#99CCFF"/>
<path d="M177.094 36.779C178.285 36.496 179.435 35.5215 179.435 35.5215V36.147C178.869 36.4799 178.128 36.8176 177.438 36.8176C177.324 36.8176 177.208 36.8032 177.094 36.779Z" fill="#325CFB"/>
<path d="M170.236 51.7435C170.587 51.7692 170.948 51.7853 171.32 51.7917C170.543 51.8094 169.816 51.7917 169.133 51.7435C169.06 51.7387 168.988 51.7322 168.919 51.7274C160.167 50.9877 158.836 44.724 158.836 37.9779C158.836 37.8251 158.841 37.6723 158.844 37.5196C158.873 36.6271 158.987 35.7571 159.178 34.916C159.4 35.1379 159.72 35.4435 160.116 35.7748C160.023 36.3456 159.968 36.9262 159.947 37.5196C159.942 37.6723 159.939 37.8251 159.939 37.9779C159.939 44.7256 161.271 50.9877 170.02 51.7274C170.091 51.7322 170.164 51.7387 170.234 51.7435H170.236Z" fill="#B3D9FF"/>
<path d="M158.838 34.5584C158.838 34.5584 158.962 34.6951 159.181 34.9138C160.063 35.7935 162.522 38.0095 164.883 38.0095C167.829 38.0095 166.658 35.1647 166.658 35.1647C168.07 37.1427 171.016 38.0095 173.195 38.0095C175.374 38.0095 174.607 34.8415 174.607 34.8415C174.607 34.8415 176.06 36.8194 177.433 36.8194C178.806 36.8194 180.379 35.4879 180.379 35.4879V40.6532C180.379 40.9732 180.496 41.2659 180.689 41.4911C180.926 41.7677 181.278 41.9446 181.67 41.9446C182.383 41.9446 182.962 41.3656 182.962 40.6532V37.4241C183.356 37.2762 183.782 37.1958 184.227 37.1958C185.02 37.1958 185.753 37.4531 186.348 37.8872C186.628 38.0915 186.877 38.3359 187.09 38.6109C190.25 30.7375 185.303 28.5681 185.303 28.5681C185.303 28.5681 187.603 28.6485 187.341 27.4585C187.078 26.2685 184.394 26.8732 184.394 26.8732C184.394 26.8732 185.282 24.4722 184.213 24.2214C183.143 23.9705 182.598 25.5625 182.598 25.5625C176.222 16.2402 168.07 17.9754 167.02 19.1059C165.972 20.2364 166.737 21.4875 166.737 21.4875C166.737 21.4875 160.2 21.4875 159.674 23.6264C159.15 25.7652 161.126 26.492 161.126 26.492C161.126 26.492 156.606 27.3395 156.405 29.4783C156.204 31.6172 158.18 32.7075 158.18 32.7075C156.524 35.3577 157.991 36.9063 158.843 37.5206C158.872 36.6297 158.986 35.7597 159.177 34.9186C158.959 34.7015 158.835 34.5632 158.835 34.5632L158.838 34.5584Z" fill="#132360"/>
<path d="M187.088 38.6076C186.877 38.3326 186.627 38.0898 186.347 37.8839C185.753 37.4497 185.02 37.1924 184.226 37.1924C183.782 37.1924 183.354 37.2745 182.96 37.4208V40.6499C182.96 41.3639 182.383 41.9412 181.669 41.9412C181.275 41.9412 180.923 41.766 180.686 41.4894C180.495 41.2642 180.376 40.9715 180.376 40.6515V35.4846C180.376 35.4846 178.801 36.8178 177.43 36.8178C176.058 36.8178 174.604 34.8414 174.604 34.8414C174.604 34.8414 175.371 38.0078 173.192 38.0078C171.013 38.0078 168.067 37.141 166.655 35.1646C166.686 35.2418 167.782 38.0078 164.878 38.0078C162.517 38.0078 160.059 35.7918 159.176 34.9121C158.984 35.7532 158.87 36.6232 158.841 37.5157C157.991 36.8998 156.524 35.3511 158.18 32.7009C158.18 32.7009 156.204 31.6122 156.405 29.4718C156.606 27.333 161.126 26.4855 161.126 26.4855C161.126 26.4855 159.148 25.7603 159.673 23.6198C160.197 21.481 166.736 21.481 166.736 21.481C166.736 21.481 165.969 20.2299 167.017 19.101C167.421 18.6668 168.874 18.1409 170.877 18.1908C174.075 18.2712 178.671 19.8198 182.595 25.5576C182.595 25.5576 183.14 23.9656 184.21 24.2165C185.279 24.4673 184.391 26.8683 184.391 26.8683C184.391 26.8683 187.075 26.2636 187.337 27.452C187.599 28.6436 185.3 28.5616 185.3 28.5616C185.3 28.5616 190.246 30.731 187.086 38.6044L187.088 38.6076Z" fill="#132360"/>
<path d="M187.094 38.6073C186.884 38.3323 186.633 38.0894 186.353 37.8836C185.76 37.4494 185.026 37.1921 184.232 37.1921C183.788 37.1921 183.36 37.2741 182.966 37.4205V40.6496C182.966 41.3636 182.389 41.9409 181.675 41.9409C181.281 41.9409 180.929 41.7656 180.692 41.489C180.501 41.2639 180.382 40.9712 180.382 40.6512V35.4843C180.382 35.4843 178.808 36.8174 177.436 36.8174C176.064 36.8174 174.702 34.9616 174.615 34.8458L174.612 34.841C174.612 34.841 175.379 38.0058 173.2 38.0058C171.021 38.0058 168.075 37.139 166.663 35.1626C166.694 35.2398 167.79 38.0058 164.886 38.0058C162.525 38.0058 160.066 35.7898 159.184 34.9102C158.992 35.7512 158.878 36.6212 158.849 37.5137C157.998 36.8978 156.532 35.3492 158.188 32.699C158.188 32.699 156.212 31.6103 156.413 29.4699C156.614 27.3311 161.134 26.4836 161.134 26.4836C161.134 26.4836 159.156 25.7583 159.681 23.6179C160.205 21.4791 166.743 21.4791 166.743 21.4791C166.743 21.4791 165.976 20.2279 167.025 19.099C167.428 18.6648 168.882 18.139 170.884 18.1888C174.083 18.2692 178.679 19.8179 182.603 25.5557C182.603 25.5557 183.148 23.9636 184.217 24.2145C185.287 24.4654 184.399 26.8663 184.399 26.8663C184.399 26.8663 185.123 26.7023 185.854 26.7119C186.533 26.7216 187.218 26.8792 187.344 27.4501C187.606 28.6417 185.306 28.5597 185.306 28.5597C185.306 28.5597 190.253 30.729 187.093 38.6024L187.094 38.6073Z" fill="#132360"/>
<path d="M182.968 50.2168V51.8105L183.354 51.8362L184.468 51.9102C184.058 51.0176 183.382 50.4805 182.968 50.2168ZM184.339 59.166C184.339 59.166 185.06 55.1184 184.801 53.1725C184.883 54.0683 184.696 55.1843 184.018 56.5528C182.403 59.8077 181.006 62.006 180.695 64.8926C181.75 61.4174 184.341 59.1676 184.341 59.1676L184.339 59.166Z" fill="#294BCC"/>
<path d="M230.823 99.7516V116.238L209.304 116.679L208.864 113.495H192.422C192.294 113.495 192.183 113.409 192.15 113.284C191.383 110.269 182.574 75.7004 181.146 69.9513C180.781 68.4831 180.622 67.2223 180.625 66.0902V66.0838C180.625 65.6705 180.649 65.2749 180.689 64.8921C181.612 61.8512 183.711 59.7477 184.221 59.2701C184.259 59.2347 184.296 59.1994 184.335 59.1672C185.626 59.2621 186.728 59.7944 187.606 60.4248C187.609 60.428 187.612 60.4296 187.617 60.4328C189.044 61.4604 189.865 62.7437 189.907 62.8064C189.907 62.8064 189.907 62.8075 189.907 62.8096C189.907 62.8096 190.895 58.881 188.088 54.0919C187.62 53.2943 187.164 52.6269 186.725 52.0625C186.363 51.5994 186.014 51.2086 185.684 50.8789C188.783 51.1571 205.582 52.8103 210.848 56.4125C216.145 60.034 226.569 82.1088 230.024 94.0893C230.554 95.9306 230.824 97.8363 230.824 99.7532L230.823 99.7516Z" fill="#54A7FB"/>
<path d="M205.728 110.426L200.799 113.492H192.427C192.298 113.492 192.187 113.407 192.155 113.282C191.79 111.851 189.616 103.315 187.279 94.1257L187.242 93.8636L193.438 101.501C194.004 102.199 194.968 102.42 195.788 102.054C201.212 99.6239 201.189 90.0202 199.316 83.7758L204.916 97.5125L205.729 110.426H205.728ZM230.829 99.751V116.238L209.311 116.678L208.87 113.494L207.857 106.167C225.487 108.605 223.962 92.9743 223.962 92.9743C223.536 84.6458 216.51 70.4219 212.379 62.7158C210.549 59.3033 207.542 56.6756 203.915 55.3184L195.077 52.0137C200.945 52.9046 207.815 54.3342 210.853 56.4103C216.15 60.0318 226.574 82.1066 230.028 94.0871C230.559 95.9285 230.829 97.8341 230.829 99.751Z" fill="#4B70FB"/>
<path d="M156.562 236.562L160.089 238.076L159.303 236.562H156.562Z" fill="#76B9FC"/>
<path d="M182.961 249.242C171.749 250.772 163.16 250.001 154.523 249.376C152.402 249.221 150.728 248.858 149.433 248.358C147.325 247.546 146.225 246.381 145.844 245.195C149.782 245.616 153.399 245.909 156.716 246.094C157.723 246.151 158.704 246.197 159.658 246.234C163.861 246.398 167.539 246.38 170.76 246.234C172.634 246.148 174.351 246.02 175.925 245.857C176.779 247.361 178.915 248.728 182.963 249.241L182.961 249.242ZM191.344 231.781H188.913C188.773 231.781 188.636 231.834 188.533 231.929L188.408 232.043L188.028 232.391L187.396 232.97C187.293 233.065 187.359 233.235 187.499 233.235H198.592C198.751 233.235 198.906 233.185 199.036 233.093L200.533 232.037C200.646 231.958 200.589 231.781 200.453 231.781H191.343H191.344Z" fill="#F2F2F2"/>
<path d="M223.586 245.579C223.493 246.566 222.774 247.383 221.806 247.6C205.877 251.172 195.13 250.159 184.309 249.374C183.835 249.34 183.389 249.295 182.96 249.24C182.233 249.147 181.567 249.028 180.961 248.885H180.958C178.185 248.232 176.622 247.09 175.923 245.857C175.797 245.638 175.699 245.416 175.628 245.194C176.694 245.308 177.735 245.413 178.756 245.508C181.503 245.765 184.082 245.96 186.501 246.093C187.509 246.151 188.488 246.196 189.444 246.233C190.886 246.289 192.268 246.325 193.588 246.339C196.117 246.368 198.43 246.328 200.545 246.233C204.858 246.037 208.347 245.609 211.157 245.074C211.161 245.074 211.165 245.07 211.165 245.07C212.247 244.865 213.228 244.641 214.114 244.411C220.437 242.761 222.081 240.659 222.081 240.659C223.534 242.387 223.71 244.265 223.586 245.579ZM160.38 238.633L160.089 238.074L156.561 236.562H154.314C154.258 236.609 154.203 236.654 154.148 236.7L159.709 239.159L160.38 238.633ZM162.734 233.233H168.807C168.966 233.233 169.12 233.183 169.25 233.092L170.748 232.035C170.86 231.956 170.804 231.779 170.667 231.779H159.127C158.987 231.779 158.851 231.832 158.748 231.927L158.244 232.389L157.612 232.968C157.509 233.063 157.575 233.233 157.715 233.233H162.736H162.734Z" fill="#F2F2F2"/>
<path d="M159.307 236.562H164.868C165.01 236.562 165.148 236.515 165.259 236.428L165.299 236.396L166.447 235.505L166.65 235.347C166.75 235.27 166.695 235.109 166.568 235.109H155.214C155.123 235.109 155.033 235.14 154.962 235.198L153.595 236.296C153.486 236.385 153.547 236.562 153.688 236.562H159.307Z" fill="#F2F2F2"/>
<path d="M222.083 240.659C222.083 240.659 220.441 242.762 214.116 244.41C213.229 244.642 212.248 244.864 211.167 245.07C209.575 245.375 207.764 245.644 205.711 245.856C205.088 245.92 204.443 245.98 203.776 246.033C202.755 246.115 201.679 246.181 200.547 246.234C200.772 241.686 210.49 235.313 215.117 233.488C216.644 232.887 217.776 231.996 218.555 231.019C220.135 229.038 220.256 226.706 219.22 225.721C220.016 226.166 220.592 227.324 221.01 228.808C222.263 233.261 222.083 240.659 222.083 240.659Z" fill="#54A7FB"/>
<path d="M160.178 235.109L159.208 233.232H158.152C158.022 233.35 157.89 233.467 157.758 233.585L158.552 235.109H160.18H160.178Z" fill="#F2F2F2"/>
<path d="M157.754 233.586C157.181 234.096 156.602 234.609 156.023 235.11H158.548L157.754 233.586Z" fill="#76B9FC"/>
<path d="M210.134 139.32C211.418 141.932 213.791 141.422 215.166 140.583C215.491 141.485 216.192 142.228 217.596 142.334C219.859 142.504 221.123 141.951 221.819 141.19C220.782 139.587 221.526 136.9 221.526 136.9C221.526 136.9 220.78 139.587 221.819 141.19C222.314 141.954 223.215 142.474 224.796 142.334C229.692 141.904 231.468 137.546 231.495 134.533C231.514 132.381 229.297 132.288 227.911 132.958C227.748 134.885 227.394 136.747 226.706 138.022C227.394 136.749 227.747 134.887 227.911 132.958C228.168 129.919 227.952 126.719 227.84 125.408L211.907 125.735C211.263 127.914 208.817 136.646 210.133 139.322L210.134 139.32Z" fill="#99CCFF"/>
<path d="M218.525 228.037C218.495 228.099 218.461 228.161 218.425 228.227C218.393 228.285 218.361 228.341 218.327 228.399C218.192 228.632 218.046 228.861 217.885 229.083C216.521 230.963 214.122 232.399 208.632 232.587C205.65 232.688 204.239 231.886 203.611 230.937L197.874 235.502L192.306 239.931L190.986 240.981C190.605 241.285 190.339 241.708 190.228 242.181C190.222 242.208 190.214 242.236 190.209 242.263L189.445 246.232C190.889 246.288 192.269 246.322 193.591 246.338C196.119 246.367 198.433 246.328 200.546 246.232C200.773 241.682 210.491 235.311 215.117 233.487C216.644 232.886 217.776 231.995 218.556 231.019C220.136 229.038 220.257 226.704 219.221 225.719C218.882 225.529 218.503 225.468 218.078 225.566L218.091 225.709C218.544 225.904 219.303 226.479 218.524 228.037H218.525Z" fill="#76B9FC"/>
<path d="M233.285 117.123L231.084 124.832C230.997 125.138 230.72 125.35 230.403 125.356L227.84 125.408L213.465 125.702C213.465 125.702 213.449 125.702 213.443 125.702L211.908 125.733L210.408 125.763H210.395C210.085 125.763 209.807 125.564 209.708 125.268L208.29 120.977L207.193 117.655C207.041 117.194 207.378 116.716 207.864 116.706L209.303 116.677L221.761 116.422L230.822 116.237L232.574 116.201C233.059 116.192 233.417 116.653 233.284 117.121L233.285 117.123Z" fill="#325CFB"/>
<path d="M160.787 230.824C160.453 231.135 160.105 231.455 159.75 231.779H161.561L160.787 230.824Z" fill="#76B9FC"/>
<path d="M215.165 140.583C213.79 141.423 211.417 141.932 210.133 139.321C208.818 136.643 211.264 127.911 211.907 125.734L210.407 125.764C210.09 125.771 209.805 125.57 209.707 125.269L208.29 120.978H167.219C167.071 120.978 166.929 120.945 166.804 120.887C165.75 124.635 158.279 151.607 157.941 163.534C157.642 174.109 158.987 204.424 159.469 214.766C159.561 216.73 161.179 218.272 163.144 218.272H187.946C189.137 218.272 190.173 217.657 190.773 216.739C190.205 216.08 189.827 215.249 189.731 214.327C188.512 202.7 185.019 169.047 184.818 163.655C184.575 157.118 188.935 129.03 188.935 129.03C188.935 129.03 184.577 157.118 184.818 163.655C185.017 169.047 188.512 202.7 189.731 214.327C189.827 215.25 190.205 216.082 190.773 216.739C191.585 217.682 192.785 218.272 194.113 218.272H219.462C221.511 218.272 223.096 216.477 222.847 214.444L216.54 163.291L217.6 142.333C216.196 142.227 215.495 141.485 215.17 140.581L215.165 140.583Z" fill="#ACD5FF"/>
<path d="M190.776 216.739C190.176 217.659 189.141 218.272 187.949 218.272H163.147C161.182 218.272 159.564 216.729 159.472 214.766C159.276 210.561 158.937 203.055 158.625 194.918C160.672 195.968 163.292 196.679 166.648 196.787C182.055 197.271 181.579 170.787 181.42 164.663C181.263 158.541 187.216 138.02 187.216 138.02L187.472 138.967C187.378 139.62 187.285 140.29 187.189 140.977C187.171 141.114 187.15 141.252 187.131 141.389C187.055 141.94 186.978 142.5 186.901 143.066C186.881 143.206 186.862 143.349 186.843 143.49C186.611 145.193 186.38 146.94 186.163 148.665C186.159 148.686 186.158 148.706 186.156 148.725C186.132 148.907 186.11 149.09 186.085 149.273C186.076 149.358 186.066 149.442 186.055 149.529C186.037 149.672 186.018 149.815 186.002 149.958C185.978 150.154 185.954 150.351 185.929 150.547C185.909 150.722 185.888 150.896 185.867 151.07C185.577 153.466 185.323 155.759 185.137 157.771C185.127 157.87 185.119 157.968 185.109 158.066C185.092 158.261 185.074 158.452 185.058 158.641V158.644C185.04 158.859 185.022 159.072 185.006 159.279C184.997 159.387 184.989 159.494 184.981 159.601C184.953 159.953 184.929 160.292 184.908 160.615C184.903 160.686 184.9 160.754 184.895 160.823C184.891 160.919 184.884 161.014 184.879 161.109C184.879 161.114 184.879 161.117 184.879 161.122C184.873 161.239 184.865 161.357 184.86 161.469C184.854 161.62 184.846 161.768 184.841 161.91V161.916C184.836 162.002 184.834 162.085 184.831 162.167C184.828 162.249 184.826 162.331 184.825 162.41C184.825 162.449 184.821 162.487 184.821 162.524V162.548C184.821 162.58 184.818 162.613 184.818 162.643V162.664C184.818 162.714 184.818 162.765 184.815 162.812V162.901C184.815 162.958 184.815 163.015 184.815 163.071C184.815 163.282 184.818 163.476 184.825 163.655C185.026 169.047 188.519 202.7 189.737 214.325C189.834 215.248 190.212 216.08 190.778 216.737L190.776 216.739Z" fill="#9ECEFF"/>
<path opacity="0.8" d="M219.465 218.272H194.116C192.789 218.272 191.588 217.682 190.778 216.739C190.21 216.08 189.834 215.25 189.737 214.327C189.303 210.186 188.579 203.254 187.82 195.797C190.618 195.271 193.783 196.916 196.799 197.217C200.468 197.582 204.268 195.676 206.172 192.518C207.948 189.575 208.057 185.958 208.117 182.523C208.227 176.166 207.419 169.689 207.528 163.332C207.661 155.661 208.713 148.111 208.847 140.44C208.908 136.917 209.305 133.097 207.584 130.021C204.537 124.571 191.903 124.516 191.286 120.979H208.295L209.713 125.269C209.811 125.57 210.096 125.771 210.413 125.764L211.912 125.734C211.268 127.911 208.824 136.643 210.138 139.321C211.421 141.932 213.795 141.423 215.171 140.582C215.495 141.484 216.197 142.227 217.601 142.333L216.541 163.292L222.849 214.445C223.099 216.477 221.514 218.272 219.465 218.272Z" fill="#9ECEFF"/>
<path d="M196.9 223.197C196.864 223.197 196.831 223.194 196.797 223.191L197.136 227.076L202.773 228.17C202.94 228.202 203.073 228.308 203.151 228.448C203.208 228.552 203.233 228.673 203.212 228.798C203.112 229.353 203.118 230.191 203.614 230.939C204.241 231.888 205.653 232.69 208.634 232.589C214.123 232.401 216.524 230.966 217.887 229.085C218.048 228.863 218.195 228.634 218.33 228.401L218.326 228.359L218.095 225.711L218.082 225.568L217.873 223.18C217.817 223.191 217.759 223.197 217.699 223.197H196.903H196.9Z" fill="#F2F2F2"/>
<path d="M196.837 221.474C196.772 221.474 196.71 221.482 196.65 221.495C196.269 221.58 195.994 221.924 196.008 222.334C196.024 222.775 196.37 223.138 196.798 223.188C196.832 223.193 196.867 223.195 196.901 223.195H217.697C217.757 223.195 217.815 223.188 217.871 223.177C218.26 223.097 218.541 222.749 218.525 222.333C218.509 221.887 218.157 221.521 217.721 221.476C217.692 221.472 217.662 221.471 217.633 221.471H196.837V221.474Z" fill="#CCCCCC"/>
<path d="M196.65 221.494C196.71 221.481 196.772 221.473 196.837 221.473H217.633C217.664 221.473 217.693 221.473 217.722 221.478L217.442 218.271H196.367L196.649 221.494H196.65Z" fill="#99CCFF"/>
<path d="M157.893 240.887C157.946 240.654 158.078 240.445 158.266 240.297L159.716 239.158L154.156 236.699C151.727 238.716 149.521 240.343 148.313 240.737C146.461 241.342 145.232 243.291 145.848 245.193C149.788 245.615 153.403 245.907 156.721 246.092L157.893 240.885V240.887Z" fill="#76B9FC"/>
<path d="M161.198 240.983L167.53 235.946L173.825 230.938C173.331 230.19 173.325 229.353 173.423 228.798C173.445 228.672 173.419 228.55 173.361 228.447L169.113 231.781H170.666C170.803 231.781 170.859 231.956 170.747 232.037L169.25 233.093C169.119 233.185 168.965 233.235 168.806 233.235H167.262L165.636 234.51L164.871 235.11H166.562C166.689 235.11 166.744 235.271 166.644 235.348L166.442 235.505L165.294 236.396L165.253 236.428C165.141 236.515 165.004 236.562 164.863 236.562H163.02L161.529 237.731L162.063 238.763C162.138 238.889 162.109 239.053 161.994 239.145L161.32 239.682C161.238 239.746 161.135 239.76 161.043 239.73C160.979 239.709 160.923 239.667 160.884 239.604L160.377 238.632L159.707 239.157L158.256 240.296C158.068 240.444 157.936 240.653 157.883 240.886L156.711 246.093C157.719 246.15 158.699 246.196 159.652 246.233L160.416 242.264C160.514 241.758 160.789 241.303 161.193 240.981L161.198 240.983Z" fill="#54A7FB"/>
<path d="M161.046 239.731C161.136 239.761 161.241 239.748 161.323 239.682L161.997 239.145C162.111 239.054 162.141 238.891 162.066 238.764L161.532 237.732L160.927 236.562H159.305L160.093 238.074L160.384 238.634L160.89 239.607C160.929 239.669 160.985 239.711 161.05 239.732L161.046 239.731Z" fill="#F2F2F2"/>
<path d="M163.019 236.562H160.922L161.528 237.733L163.019 236.562Z" fill="#76B9FC"/>
<path d="M178.097 240.739C179.305 240.345 181.511 238.718 183.939 236.701C183.994 236.654 184.05 236.609 184.105 236.563H183.471C183.33 236.563 183.267 236.386 183.378 236.297L184.745 235.199C184.817 235.141 184.906 235.111 184.998 235.111H185.81C186.389 234.609 186.969 234.097 187.54 233.586C187.672 233.469 187.802 233.351 187.934 233.234H187.503C187.363 233.234 187.297 233.062 187.4 232.969L188.032 232.39L188.412 232.042L188.537 231.928C188.64 231.833 188.777 231.78 188.917 231.78H189.537C189.893 231.454 190.238 231.135 190.575 230.825L190.407 230.617C190.34 230.534 190.346 230.412 190.425 230.336L191.171 229.612C191.242 229.543 191.348 229.537 191.427 229.587C190.999 227.736 190.369 226.243 189.439 225.721C190.554 226.782 190.332 229.405 188.386 231.47C187.633 232.267 186.625 232.981 185.337 233.49C180.71 235.313 170.992 241.686 170.766 246.234C172.639 246.149 174.357 246.02 175.929 245.858C175.805 245.639 175.707 245.417 175.635 245.195C175.019 243.293 176.249 241.344 178.1 240.739H178.097Z" fill="#54A7FB"/>
<path d="M185.333 233.488C186.623 232.98 187.631 232.266 188.382 231.468C190.328 229.403 190.552 226.78 189.436 225.719C189.043 225.499 188.596 225.452 188.09 225.624V225.635C188.408 225.719 189.67 226.179 188.738 228.039C188.707 228.101 188.673 228.163 188.638 228.229C188.519 228.445 188.39 228.657 188.25 228.864C188.201 228.938 188.149 229.012 188.098 229.085C186.734 230.965 184.335 232.401 178.844 232.589C175.863 232.69 174.451 231.888 173.824 230.939L167.53 235.947L161.197 240.983C160.793 241.305 160.518 241.76 160.42 242.267L159.656 246.235C163.858 246.399 167.538 246.382 170.759 246.235C170.986 241.686 180.703 235.315 185.33 233.491L185.333 233.488Z" fill="#76B9FC"/>
<path d="M191.169 229.611L190.423 230.334C190.346 230.41 190.338 230.532 190.405 230.616L190.572 230.823L191.346 231.778H193.216L191.637 229.829L191.475 229.628C191.46 229.611 191.442 229.596 191.423 229.583C191.344 229.534 191.238 229.54 191.167 229.609L191.169 229.611Z" fill="#F2F2F2"/>
<path d="M188.742 228.039C189.673 226.178 188.411 225.718 188.094 225.635L188.253 228.829V228.862C188.394 228.655 188.523 228.443 188.642 228.227C188.677 228.163 188.711 228.1 188.742 228.037V228.039Z" fill="#294BCC"/>
<path d="M167.261 233.232H164.602L165.636 234.509L167.261 233.232Z" fill="#76B9FC"/>
<path d="M164.603 233.232H162.734L164.254 235.109H164.872L165.637 234.509L164.603 233.232Z" fill="#F2F2F2"/>
<path d="M167.322 231.78H169.115L173.364 228.446C173.289 228.308 173.153 228.202 172.986 228.168L167.084 227.023L165.743 226.763C165.391 226.694 165.026 226.801 164.769 227.052C164.224 227.58 163.175 228.588 161.852 229.829L163.431 231.778H167.324L167.322 231.78Z" fill="#76B9FC"/>
<path d="M187.795 221.485C187.826 221.485 187.855 221.485 187.884 221.489L187.723 218.271H166.648L166.811 221.505C166.872 221.493 166.935 221.485 166.999 221.485H187.795Z" fill="#99CCFF"/>
<path d="M173.365 228.446C173.423 228.551 173.447 228.672 173.426 228.797C173.326 229.352 173.333 230.19 173.828 230.937C174.455 231.886 175.867 232.689 178.848 232.587C184.337 232.399 186.738 230.965 188.102 229.083C188.155 229.011 188.205 228.937 188.254 228.863V228.829L188.094 225.635V225.624L187.971 223.189C187.915 223.201 187.857 223.207 187.798 223.207H167.001C166.966 223.207 166.932 223.204 166.898 223.201L167.09 227.025L172.992 228.17C173.159 228.202 173.292 228.308 173.37 228.448L173.365 228.446Z" fill="#F2F2F2"/>
<path d="M187.797 223.207C187.857 223.207 187.915 223.201 187.971 223.189C188.363 223.109 188.658 222.762 188.658 222.347C188.658 221.901 188.32 221.535 187.886 221.491C187.857 221.488 187.826 221.486 187.797 221.486H167.001C166.937 221.486 166.874 221.494 166.813 221.507C166.428 221.592 166.141 221.937 166.141 222.347C166.141 222.787 166.472 223.149 166.898 223.201C166.932 223.205 166.966 223.207 167.001 223.207H187.797Z" fill="#CCCCCC"/>
<path d="M163.429 231.78L161.85 229.831L161.687 229.63C161.61 229.535 161.467 229.526 161.38 229.611L160.634 230.335C160.557 230.41 160.549 230.533 160.616 230.616L160.783 230.824L161.557 231.779H163.427L163.429 231.78Z" fill="#F2F2F2"/>
<path d="M194.558 227.054C194.013 227.581 192.964 228.59 191.641 229.831L193.22 231.78H198.906L203.155 228.446C203.079 228.308 202.944 228.202 202.777 228.168L197.14 227.075L195.534 226.763C195.182 226.694 194.817 226.801 194.559 227.052L194.558 227.054Z" fill="#76B9FC"/>
<path d="M200.455 231.781C200.592 231.781 200.648 231.957 200.536 232.037L199.039 233.093C198.908 233.185 198.754 233.235 198.595 233.235H197.051L195.425 234.51L194.66 235.11H196.351C196.478 235.11 196.533 235.271 196.433 235.348L196.231 235.506L195.083 236.397L195.042 236.429C194.93 236.516 194.793 236.562 194.652 236.562H192.809L192.257 236.996L191.318 237.733L191.852 238.765C191.927 238.891 191.898 239.055 191.783 239.146L191.109 239.684C191.027 239.748 190.924 239.762 190.832 239.732C190.768 239.711 190.712 239.669 190.673 239.606L190.167 238.633L189.496 239.159L188.045 240.298C187.857 240.446 187.725 240.655 187.672 240.888L187.068 243.577L186.5 246.095C187.508 246.151 188.488 246.198 189.441 246.235L190.205 242.266C190.21 242.239 190.218 242.212 190.224 242.184C190.335 241.711 190.599 241.289 190.982 240.985L192.302 239.934L197.869 235.506L203.607 230.94C203.114 230.192 203.107 229.355 203.205 228.8C203.228 228.674 203.202 228.552 203.144 228.449L198.895 231.783H200.449L200.455 231.781Z" fill="#54A7FB"/>
<path d="M187.674 240.887C187.727 240.654 187.859 240.445 188.047 240.297L189.498 239.158L188.748 238.827L183.937 236.699C181.509 238.716 179.302 240.343 178.094 240.737C176.242 241.342 175.013 243.291 175.629 245.193C176.695 245.308 177.737 245.412 178.757 245.507C181.504 245.764 184.083 245.957 186.502 246.092L187.069 243.574L187.674 240.885V240.887Z" fill="#76B9FC"/>
<path d="M103.779 134.963H60.9219V143.01H103.779V134.963Z" fill="#F2F2F2"/>
<path d="M70.3342 152.984H64.4099C62.4835 152.984 60.9219 154.546 60.9219 156.472V156.474C60.9219 158.4 62.4835 159.962 64.4099 159.962H70.3342C72.2606 159.962 73.8223 158.4 73.8223 156.474V156.472C73.8223 154.546 72.2606 152.984 70.3342 152.984Z" fill="#0575E6"/>
<path d="M83.2042 154.598H76.2266V159.961H83.2042V154.598Z" fill="#0036FF"/>
<path d="M92.3995 154.598H85.4219V159.961H92.3995V154.598Z" fill="#0036FF"/>
<path d="M101.595 154.598H94.6172V159.961H101.595V154.598Z" fill="#0575E6"/>
<path d="M185.992 41.7454C185.992 41.7454 185.749 41.2854 185.437 41.1069C185.49 40.0729 185.099 39.293 185.099 39.293C183.593 41.0072 185.099 42.4562 185.099 42.4562C185.238 42.1667 185.326 41.8788 185.378 41.6022C185.518 41.5492 185.826 41.5846 185.99 41.7454H185.992Z" fill="#80BFFF"/>
<path d="M187.095 38.6066C186.884 38.3316 186.634 38.0887 186.354 37.8829C185.76 37.4487 185.027 37.1914 184.233 37.1914C184.024 37.1914 183.818 37.2091 183.618 37.2445C184.284 37.304 184.895 37.5452 185.407 37.9183C185.686 38.1225 185.936 38.3669 186.146 38.6419C186.613 39.2482 186.889 40.0088 186.889 40.8338C186.889 42.6188 185.592 44.0983 183.889 44.3862L182.898 44.3685L183.289 45.2128C182.909 45.7965 182.486 46.3497 182.021 46.8675C179.497 49.6801 175.784 51.4828 171.652 51.7659C171.514 51.7755 171.377 51.7836 171.242 51.79C171.68 51.782 172.131 51.7627 172.601 51.7305C176.732 51.4475 180.446 49.6448 182.969 46.8321C183.644 46.0795 184.234 45.2562 184.725 44.3685C186.484 44.1305 187.84 42.6221 187.84 40.7984C187.84 39.9735 187.561 39.2144 187.097 38.6066H187.095Z" fill="#80BFFF"/>
<path d="M160.933 23.689C159.79 24.8999 163.883 26.8088 163.883 26.8088C163.883 26.8088 159.214 27.8251 157.945 28.9347C156.654 30.0668 158.188 32.7009 158.188 32.7009C158.188 32.7009 156.212 31.6122 156.413 29.4718C156.614 27.333 161.134 26.4855 161.134 26.4855C161.134 26.4855 159.156 25.7603 159.681 23.6198C160.205 21.481 166.743 21.481 166.743 21.481C166.743 21.481 165.976 20.2299 167.025 19.101C167.428 18.6668 168.882 18.1409 170.884 18.1908C165.518 18.3194 168.922 22.5022 168.922 22.5022C168.922 22.5022 161.937 22.6212 160.933 23.6858V23.689Z" fill="#1F3999"/>
<path d="M187.092 38.6073C186.881 38.3323 186.63 38.0895 186.35 37.8836C185.757 37.4494 185.024 37.1922 184.229 37.1922C183.785 37.1922 183.358 37.2742 182.964 37.4205V40.6496C182.964 41.3636 182.386 41.941 181.672 41.941C181.278 41.941 180.926 41.7657 180.69 41.4891C180.498 41.2639 180.379 40.9713 180.379 40.6512V35.4843C180.379 35.4843 178.805 36.8175 177.433 36.8175C176.062 36.8175 174.699 34.9617 174.613 34.8459L174.609 34.8411C176.48 36.2787 178.146 34.5034 178.146 34.5034L174.701 32.5382C180.807 34.3136 183.444 27.9583 183.444 27.9583C183.444 27.9583 184.332 27.9181 185.765 27.857C187.198 27.7975 185.847 26.7168 185.847 26.7168H185.85C186.529 26.7248 187.214 26.8824 187.339 27.4533C187.601 28.6449 185.302 28.5629 185.302 28.5629C185.302 28.5629 190.248 30.7323 187.088 38.6057L187.092 38.6073Z" fill="#091A59"/>
<path d="M182.96 46.8333C180.436 49.6459 176.723 51.4486 172.592 51.7317C171.328 51.8185 170.178 51.8169 169.133 51.7413V53.8608C169.194 54.0409 169.278 54.258 169.385 54.4912C169.4 54.5234 169.416 54.5555 169.43 54.5877C169.44 54.607 169.448 54.6263 169.458 54.6456C170.117 55.9884 171.593 57.8442 174.727 57.8554C175.184 57.8554 175.625 57.8281 176.045 57.7734C170.812 57.024 170.725 54.8884 170.763 54.4542C181.758 52.6499 182.961 46.8301 182.961 46.8301L182.96 46.8333Z" fill="#80BFFF"/>
<path d="M195.396 70.7168L202.596 94.7165C203.686 98.3493 203.656 102.246 202.401 105.825C201.058 109.659 198.259 113.493 192.426 113.493H208.869L206.836 98.8044L195.396 70.7168ZM158.622 85.6611C155.619 89.4033 149.274 97.2574 146.728 100.015C143.909 103.071 131.599 111.017 127.967 113.334L115.734 96.6012C118.574 100.168 123.455 103.449 126.789 105.446C128.894 106.707 131.542 106.615 133.557 105.214L143.04 98.6259C143.721 98.1531 144.341 97.6015 144.89 96.9824L155.849 84.5982V71.9261L158.622 85.6595V85.6611Z" fill="#3F66FB"/>
<path d="M176.865 89.1081L166.251 90.0858C173.128 89.4216 174.535 85.0942 174.818 83.1258C174.886 82.6595 174.445 82.2799 173.991 82.4086L170.481 83.4072C170.132 83.5069 169.762 83.5198 169.407 83.4442L163.281 82.1545L169.855 82.2751L175.91 80.3711L177.66 87.9357C177.796 88.5018 177.439 89.026 176.865 89.1065V89.1081Z" fill="#1948FB"/>
<path d="M176.217 80.2748L175.906 80.3713L169.852 82.2753L165.992 82.2046C166.089 82.1885 166.192 82.1708 166.298 82.1547C175.297 80.7589 174.884 75.9457 174.884 75.9457L174.917 75.9409C175.319 75.8846 175.723 76.1596 175.818 76.5568L176.562 79.6669C176.624 79.9275 176.474 80.1928 176.218 80.2732L176.217 80.2748Z" fill="#1948FB"/>
<path d="M189.907 62.8086L185.276 61.1586C185.276 61.1586 180.924 62.987 180.639 65.8785C180.633 65.946 180.627 66.0152 180.625 66.0843C180.625 65.671 180.649 65.2754 180.689 64.8927C181.612 61.8517 183.711 59.7483 184.221 59.2707C184.259 59.2353 184.296 59.1999 184.335 59.1677C184.335 59.1677 185.668 58.933 187.606 60.4253C187.609 60.4285 187.612 60.4301 187.617 60.4333C188.313 60.9721 189.087 61.7327 189.907 62.8069C189.907 62.8069 189.907 62.808 189.907 62.8102V62.8086Z" fill="#3F66FB"/>
<path d="M165.609 65.1082C165.609 65.1082 169.887 61.0718 176.324 65.1886C176.324 65.1886 173.061 61.2342 168.811 61.0332C168.811 61.0332 166.417 62.2441 165.609 65.1082Z" fill="#4B70FB"/>
<path opacity="0.7" d="M233.289 117.123L231.087 124.832C231.001 125.138 230.724 125.35 230.407 125.357L227.844 125.408L213.469 125.702C229.965 124.995 230.1 118.58 230.1 118.58L221.271 116.647L221.767 116.424L230.827 116.239L232.58 116.203C233.064 116.194 233.422 116.655 233.289 117.123Z" fill="#1948FB"/>
<path d="M107.984 101.385C108.054 101.488 108.123 101.6 108.197 101.721L108.078 101.557C108.039 101.504 108.007 101.444 107.984 101.385Z" fill="#1948FB"/>
<path opacity="0.7" d="M128.301 115.34L120.693 117.971C120.398 118.073 120.075 117.971 119.892 117.72L117.156 113.978L110.047 104.254C114.218 109.065 120.71 112.049 123.878 113.298C124.645 113.6 125.425 112.891 125.195 112.1L123.957 107.85L123.96 107.853L127.968 113.337L128.439 113.98L128.642 114.258C128.921 114.642 128.751 115.188 128.302 115.342L128.301 115.34Z" fill="#1948FB"/>
<path d="M211.913 125.734C211.883 125.838 211.847 125.957 211.809 126.092L167.597 120.979H208.297L209.715 125.269C209.815 125.57 210.098 125.771 210.415 125.764L211.915 125.734H211.913ZM219.465 218.272H194.116C203.968 218.272 209.57 215.046 212.692 211.899C215.199 209.373 216.365 205.809 215.922 202.276L211.46 166.614C211.19 164.457 211.143 162.28 211.322 160.114L212.867 141.259C213.711 141.278 214.546 140.964 215.171 140.58C215.496 141.482 216.197 142.225 217.601 142.331L216.542 163.29L222.85 214.443C223.101 216.476 221.514 218.27 219.465 218.27V218.272ZM188.94 129.03L182.644 161.92L185.791 205.503C185.791 205.503 187.56 218.272 163.148 218.272H187.56C187.56 218.272 189.586 218.492 190.776 216.739C190.776 216.739 189.933 216.13 189.692 214.113C189.449 212.095 185.387 170.959 185.387 170.959L184.813 163.251C184.813 163.251 185.279 156.539 185.603 153.31C185.926 150.081 188.938 129.029 188.938 129.029L188.94 129.03Z" fill="#91C8FF"/>
<path d="M222.544 212.246H220.951C220.79 212.246 220.66 212.116 220.66 211.955C220.66 211.794 220.79 211.664 220.951 211.664H222.544C222.705 211.664 222.835 211.794 222.835 211.955C222.835 212.116 222.705 212.246 222.544 212.246ZM219.204 212.246H217.458C217.297 212.246 217.167 212.116 217.167 211.955C217.167 211.794 217.297 211.664 217.458 211.664H219.204C219.365 211.664 219.495 211.794 219.495 211.955C219.495 212.116 219.365 212.246 219.204 212.246ZM215.71 212.246H213.963C213.802 212.246 213.672 212.116 213.672 211.955C213.672 211.794 213.802 211.664 213.963 211.664H215.71C215.871 211.664 216.001 211.794 216.001 211.955C216.001 212.116 215.871 212.246 215.71 212.246ZM212.215 212.246H210.469C210.308 212.246 210.178 212.116 210.178 211.955C210.178 211.794 210.308 211.664 210.469 211.664H212.215C212.376 211.664 212.506 211.794 212.506 211.955C212.506 212.116 212.376 212.246 212.215 212.246ZM208.721 212.246H206.974C206.814 212.246 206.683 212.116 206.683 211.955C206.683 211.794 206.814 211.664 206.974 211.664H208.721C208.882 211.664 209.012 211.794 209.012 211.955C209.012 212.116 208.882 212.246 208.721 212.246ZM205.226 212.246H203.48C203.319 212.246 203.189 212.116 203.189 211.955C203.189 211.794 203.319 211.664 203.48 211.664H205.226C205.387 211.664 205.517 211.794 205.517 211.955C205.517 212.116 205.387 212.246 205.226 212.246ZM201.732 212.246H199.985C199.825 212.246 199.694 212.116 199.694 211.955C199.694 211.794 199.825 211.664 199.985 211.664H201.732C201.893 211.664 202.023 211.794 202.023 211.955C202.023 212.116 201.893 212.246 201.732 212.246ZM198.237 212.246H196.491C196.33 212.246 196.2 212.116 196.2 211.955C196.2 211.794 196.33 211.664 196.491 211.664H198.237C198.398 211.664 198.528 211.794 198.528 211.955C198.528 212.116 198.398 212.246 198.237 212.246ZM194.743 212.246H192.996C192.836 212.246 192.705 212.116 192.705 211.955C192.705 211.794 192.836 211.664 192.996 211.664H194.743C194.904 211.664 195.034 211.794 195.034 211.955C195.034 212.116 194.904 212.246 194.743 212.246ZM191.248 212.246H189.502C189.341 212.246 189.211 212.116 189.211 211.955C189.211 211.794 189.341 211.664 189.502 211.664H191.248C191.409 211.664 191.54 211.794 191.54 211.955C191.54 212.116 191.409 212.246 191.248 212.246Z" fill="#73B9FF"/>
<path d="M189.502 212.246H187.786C187.625 212.246 187.495 212.116 187.495 211.955C187.495 211.794 187.625 211.664 187.786 211.664H189.502C189.663 211.664 189.793 211.794 189.793 211.955C189.793 212.116 189.663 212.246 189.502 212.246ZM186.038 212.246H184.291C184.131 212.246 184 212.116 184 211.955C184 211.794 184.131 211.664 184.291 211.664H186.038C186.199 211.664 186.329 211.794 186.329 211.955C186.329 212.116 186.199 212.246 186.038 212.246ZM182.543 212.246H180.797C180.636 212.246 180.506 212.116 180.506 211.955C180.506 211.794 180.636 211.664 180.797 211.664H182.543C182.704 211.664 182.834 211.794 182.834 211.955C182.834 212.116 182.704 212.246 182.543 212.246ZM179.049 212.246H177.302C177.142 212.246 177.011 212.116 177.011 211.955C177.011 211.794 177.142 211.664 177.302 211.664H179.049C179.21 211.664 179.34 211.794 179.34 211.955C179.34 212.116 179.21 212.246 179.049 212.246ZM175.554 212.246H173.808C173.647 212.246 173.517 212.116 173.517 211.955C173.517 211.794 173.647 211.664 173.808 211.664H175.554C175.715 211.664 175.845 211.794 175.845 211.955C175.845 212.116 175.715 212.246 175.554 212.246ZM172.06 212.246H170.314C170.153 212.246 170.022 212.116 170.022 211.955C170.022 211.794 170.153 211.664 170.314 211.664H172.06C172.221 211.664 172.351 211.794 172.351 211.955C172.351 212.116 172.221 212.246 172.06 212.246ZM168.565 212.246H166.819C166.658 212.246 166.528 212.116 166.528 211.955C166.528 211.794 166.658 211.664 166.819 211.664H168.565C168.726 211.664 168.857 211.794 168.857 211.955C168.857 212.116 168.726 212.246 168.565 212.246ZM165.071 212.246H163.325C163.164 212.246 163.034 212.116 163.034 211.955C163.034 211.794 163.164 211.664 163.325 211.664H165.071C165.232 211.664 165.362 211.794 165.362 211.955C165.362 212.116 165.232 212.246 165.071 212.246ZM161.577 212.246H159.83C159.669 212.246 159.539 212.116 159.539 211.955C159.539 211.794 159.669 211.664 159.83 211.664H161.577C161.737 211.664 161.868 211.794 161.868 211.955C161.868 212.116 161.737 212.246 161.577 212.246ZM213.526 212.246C213.381 212.246 213.257 212.14 213.238 211.992L213.011 210.26C212.99 210.101 213.103 209.955 213.262 209.934C213.421 209.913 213.567 210.025 213.588 210.184L213.815 211.916C213.836 212.076 213.723 212.222 213.564 212.243C213.551 212.244 213.538 212.246 213.526 212.246ZM213.074 208.782C212.929 208.782 212.805 208.676 212.786 208.528L212.559 206.796C212.538 206.637 212.651 206.491 212.81 206.47C212.969 206.45 213.115 206.561 213.136 206.721L213.363 208.453C213.384 208.612 213.271 208.758 213.112 208.779C213.099 208.781 213.087 208.782 213.074 208.782ZM212.622 205.318C212.477 205.318 212.353 205.212 212.334 205.064L212.107 203.332C212.086 203.173 212.199 203.027 212.358 203.006C212.517 202.985 212.664 203.097 212.685 203.257L212.911 204.989C212.932 205.148 212.82 205.294 212.66 205.315C212.648 205.317 212.635 205.318 212.622 205.318ZM212.17 201.854C212.025 201.854 211.901 201.748 211.882 201.6L211.655 199.868C211.634 199.709 211.747 199.563 211.906 199.542C212.064 199.521 212.212 199.634 212.233 199.793L212.459 201.525C212.48 201.684 212.368 201.83 212.209 201.851C212.196 201.853 212.183 201.854 212.17 201.854ZM211.718 198.39C211.573 198.39 211.449 198.284 211.43 198.136L211.203 196.404C211.183 196.245 211.295 196.099 211.454 196.078C211.612 196.057 211.76 196.17 211.781 196.329L212.007 198.061C212.028 198.22 211.916 198.366 211.757 198.387C211.744 198.387 211.731 198.39 211.718 198.39ZM211.266 194.927C211.121 194.927 210.998 194.82 210.978 194.672L210.752 192.94C210.731 192.781 210.843 192.635 211.002 192.614C211.16 192.593 211.308 192.706 211.329 192.865L211.556 194.597C211.576 194.756 211.464 194.902 211.305 194.923C211.292 194.925 211.279 194.927 211.266 194.927ZM210.814 191.463C210.67 191.463 210.546 191.356 210.526 191.209L210.3 189.477C210.279 189.317 210.391 189.171 210.551 189.15C210.71 189.129 210.856 189.242 210.877 189.401L211.104 191.133C211.125 191.292 211.012 191.439 210.853 191.459C210.84 191.461 210.827 191.463 210.814 191.463ZM210.362 187.999C210.218 187.999 210.094 187.893 210.075 187.745L209.848 186.013C209.827 185.853 209.939 185.707 210.099 185.686C210.258 185.665 210.404 185.778 210.425 185.937L210.652 187.669C210.673 187.828 210.56 187.975 210.401 187.996C210.388 187.996 210.375 187.999 210.362 187.999ZM209.91 184.535C209.766 184.535 209.642 184.429 209.623 184.281L209.396 182.549C209.375 182.39 209.488 182.243 209.647 182.222C209.806 182.201 209.952 182.314 209.973 182.473L210.2 184.205C210.221 184.364 210.108 184.511 209.949 184.532C209.936 184.532 209.923 184.535 209.91 184.535ZM209.459 181.071C209.314 181.071 209.19 180.965 209.171 180.817L208.944 179.085C208.923 178.926 209.036 178.779 209.195 178.758C209.354 178.738 209.5 178.85 209.521 179.009L209.748 180.741C209.769 180.9 209.656 181.047 209.497 181.068C209.484 181.069 209.471 181.071 209.459 181.071ZM209.007 177.607C208.862 177.607 208.738 177.501 208.719 177.353L208.492 175.621C208.471 175.462 208.584 175.315 208.743 175.295C208.902 175.274 209.049 175.386 209.069 175.545L209.296 177.277C209.317 177.437 209.205 177.583 209.045 177.604C209.032 177.605 209.02 177.607 209.007 177.607ZM208.555 174.143C208.41 174.143 208.286 174.037 208.267 173.889L208.04 172.157C208.019 171.998 208.132 171.851 208.291 171.831C208.45 171.811 208.597 171.922 208.618 172.081L208.844 173.813C208.865 173.973 208.753 174.119 208.593 174.14C208.581 174.141 208.568 174.143 208.555 174.143ZM208.103 170.679C207.958 170.679 207.834 170.573 207.815 170.425L207.588 168.693C207.567 168.534 207.68 168.388 207.839 168.367C207.998 168.346 208.145 168.458 208.166 168.618L208.392 170.35C208.413 170.509 208.301 170.655 208.142 170.676C208.129 170.676 208.116 170.679 208.103 170.679ZM207.674 167.212C207.526 167.212 207.399 167.099 207.384 166.948C207.329 166.365 207.291 165.774 207.267 165.191C207.26 165.03 207.386 164.895 207.545 164.888C207.706 164.882 207.841 165.007 207.847 165.167C207.871 165.741 207.91 166.321 207.963 166.894C207.978 167.054 207.86 167.196 207.699 167.21C207.69 167.21 207.682 167.21 207.672 167.21L207.674 167.212ZM207.53 163.722H207.527C207.366 163.721 207.238 163.589 207.239 163.428C207.246 162.843 207.267 162.249 207.304 161.667C207.313 161.506 207.453 161.384 207.612 161.395C207.773 161.405 207.895 161.543 207.884 161.704C207.849 162.277 207.828 162.859 207.822 163.435C207.82 163.594 207.69 163.722 207.53 163.722ZM207.748 160.236C207.736 160.236 207.725 160.236 207.714 160.234C207.555 160.217 207.439 160.072 207.458 159.913L207.661 158.176C207.68 158.017 207.823 157.901 207.984 157.92C208.143 157.938 208.257 158.083 208.24 158.244L208.039 159.979C208.021 160.127 207.896 160.238 207.749 160.238L207.748 160.236ZM208.151 156.766C208.14 156.766 208.129 156.766 208.117 156.764C207.958 156.746 207.842 156.602 207.862 156.441L208.063 154.706C208.082 154.546 208.227 154.431 208.386 154.45C208.545 154.468 208.661 154.612 208.642 154.773L208.441 156.508C208.423 156.656 208.298 156.766 208.151 156.766ZM208.555 153.295C208.544 153.295 208.532 153.295 208.521 153.294C208.362 153.276 208.246 153.131 208.265 152.97L208.466 151.235C208.486 151.076 208.63 150.96 208.79 150.98C208.949 150.997 209.065 151.142 209.045 151.303L208.844 153.038C208.827 153.186 208.701 153.295 208.555 153.295ZM208.958 149.825C208.947 149.825 208.936 149.825 208.925 149.823C208.765 149.806 208.65 149.661 208.669 149.5L208.87 147.765C208.888 147.606 209.032 147.49 209.193 147.509C209.352 147.527 209.467 147.672 209.449 147.832L209.248 149.568C209.23 149.716 209.105 149.825 208.958 149.825ZM209.362 146.355C209.351 146.355 209.34 146.355 209.328 146.353C209.169 146.335 209.055 146.191 209.073 146.03L209.274 144.295C209.291 144.135 209.438 144.02 209.597 144.039C209.756 144.057 209.872 144.201 209.853 144.362L209.652 146.097C209.634 146.245 209.508 146.355 209.362 146.355ZM209.766 142.884C209.754 142.884 209.743 142.884 209.732 142.883C209.573 142.865 209.459 142.72 209.476 142.559L209.677 140.824C209.695 140.665 209.841 140.549 210.001 140.569C210.16 140.586 210.276 140.731 210.256 140.892L210.055 142.627C210.038 142.775 209.912 142.884 209.766 142.884ZM183.566 212.246C183.412 212.246 183.283 212.125 183.275 211.969L183.191 210.225C183.183 210.064 183.307 209.927 183.468 209.919C183.627 209.914 183.766 210.035 183.774 210.196L183.857 211.941C183.865 212.101 183.741 212.238 183.581 212.246C183.576 212.246 183.571 212.246 183.566 212.246ZM183.397 208.756C183.243 208.756 183.114 208.636 183.106 208.48L183.023 206.735C183.015 206.574 183.138 206.438 183.299 206.429C183.458 206.423 183.597 206.545 183.605 206.706L183.688 208.451C183.696 208.612 183.573 208.748 183.412 208.756C183.407 208.756 183.402 208.756 183.397 208.756ZM183.228 205.267C183.074 205.267 182.945 205.146 182.937 204.99L182.854 203.245C182.846 203.085 182.969 202.948 183.13 202.94C183.288 202.933 183.428 203.056 183.436 203.216L183.519 204.961C183.528 205.122 183.404 205.259 183.243 205.267C183.238 205.267 183.233 205.267 183.228 205.267ZM183.06 201.777C182.905 201.777 182.777 201.657 182.768 201.501L182.685 199.756C182.677 199.595 182.801 199.458 182.961 199.45C183.119 199.442 183.259 199.566 183.267 199.727L183.351 201.472C183.359 201.632 183.235 201.769 183.074 201.777C183.069 201.777 183.064 201.777 183.06 201.777ZM182.891 198.288C182.736 198.288 182.608 198.167 182.6 198.011L182.516 196.266C182.508 196.105 182.632 195.969 182.793 195.961C182.95 195.953 183.09 196.076 183.098 196.237L183.182 197.982C183.19 198.143 183.066 198.279 182.905 198.288C182.9 198.288 182.896 198.288 182.891 198.288ZM182.722 194.798C182.567 194.798 182.439 194.677 182.431 194.521L182.347 192.776C182.339 192.616 182.463 192.479 182.624 192.471C182.781 192.468 182.921 192.587 182.929 192.748L183.013 194.492C183.021 194.653 182.897 194.79 182.736 194.798C182.731 194.798 182.727 194.798 182.722 194.798ZM182.553 191.308C182.399 191.308 182.27 191.188 182.262 191.032L182.178 189.287C182.17 189.126 182.294 188.989 182.455 188.981C182.612 188.976 182.752 189.097 182.76 189.258L182.844 191.003C182.852 191.164 182.728 191.3 182.567 191.308C182.563 191.308 182.558 191.308 182.553 191.308ZM182.384 187.819C182.23 187.819 182.101 187.698 182.093 187.542L182.009 185.797C182.001 185.636 182.125 185.5 182.286 185.492C182.444 185.487 182.584 185.607 182.592 185.768L182.675 187.513C182.683 187.674 182.559 187.811 182.399 187.819C182.394 187.819 182.389 187.819 182.384 187.819ZM182.215 184.329C182.061 184.329 181.932 184.208 181.924 184.052L181.841 182.308C181.833 182.147 181.956 182.01 182.117 182.002C182.275 181.996 182.415 182.118 182.423 182.279L182.506 184.023C182.514 184.184 182.391 184.321 182.23 184.329C182.225 184.329 182.22 184.329 182.215 184.329ZM182.046 180.839C181.892 180.839 181.763 180.719 181.755 180.563L181.672 178.818C181.664 178.657 181.788 178.52 181.948 178.512C182.106 178.506 182.246 178.628 182.254 178.789L182.338 180.534C182.346 180.695 182.222 180.831 182.061 180.839C182.056 180.839 182.051 180.839 182.046 180.839ZM181.878 177.35C181.723 177.35 181.595 177.229 181.587 177.073L181.503 175.328C181.495 175.167 181.619 175.031 181.779 175.023C181.937 175.015 182.077 175.139 182.085 175.299L182.169 177.044C182.177 177.205 182.053 177.342 181.892 177.35C181.887 177.35 181.882 177.35 181.878 177.35ZM181.709 173.86C181.554 173.86 181.426 173.739 181.418 173.583L181.334 171.839C181.326 171.678 181.45 171.541 181.611 171.533C181.768 171.525 181.908 171.649 181.916 171.81L182 173.555C182.008 173.715 181.884 173.852 181.723 173.86C181.718 173.86 181.714 173.86 181.709 173.86ZM181.54 170.37C181.385 170.37 181.257 170.25 181.249 170.094L181.165 168.347C181.157 168.187 181.283 168.05 181.443 168.043C181.609 168.035 181.741 168.161 181.747 168.322L181.831 170.065C181.839 170.226 181.715 170.362 181.554 170.37C181.55 170.37 181.545 170.37 181.54 170.37ZM181.414 166.879C181.254 166.879 181.123 166.749 181.123 166.588V166.513C181.123 165.953 181.135 165.385 181.159 164.829C181.165 164.668 181.305 164.546 181.461 164.551C181.622 164.557 181.747 164.692 181.739 164.853C181.717 165.401 181.706 165.959 181.706 166.513V166.588C181.706 166.749 181.575 166.879 181.414 166.879ZM181.559 163.39C181.551 163.39 181.543 163.39 181.533 163.39C181.373 163.377 181.255 163.235 181.268 163.074C181.318 162.492 181.381 161.904 181.455 161.325C181.476 161.165 181.623 161.051 181.781 161.074C181.94 161.095 182.053 161.241 182.032 161.4C181.958 161.971 181.897 162.552 181.849 163.124C181.836 163.275 181.709 163.391 181.559 163.391V163.39ZM182.005 159.926C181.989 159.926 181.971 159.926 181.955 159.921C181.796 159.893 181.689 159.742 181.717 159.585C181.816 159.007 181.931 158.425 182.054 157.858C182.088 157.7 182.244 157.602 182.402 157.636C182.559 157.669 182.659 157.825 182.624 157.983C182.502 158.543 182.389 159.115 182.291 159.684C182.267 159.826 182.143 159.926 182.005 159.926ZM182.74 156.51C182.717 156.51 182.695 156.507 182.67 156.502C182.514 156.465 182.418 156.307 182.455 156.151L182.863 154.453C182.9 154.297 183.058 154.201 183.214 154.238C183.37 154.275 183.466 154.432 183.429 154.588L183.021 156.286C182.989 156.42 182.87 156.51 182.738 156.51H182.74ZM183.556 153.114C183.534 153.114 183.511 153.11 183.487 153.106C183.331 153.069 183.235 152.911 183.272 152.755L183.68 151.057C183.717 150.901 183.875 150.804 184.031 150.841C184.187 150.878 184.283 151.036 184.246 151.192L183.838 152.89C183.806 153.024 183.687 153.114 183.555 153.114H183.556ZM184.373 149.717C184.351 149.717 184.328 149.714 184.304 149.709C184.148 149.672 184.052 149.515 184.089 149.359L184.497 147.66C184.534 147.504 184.692 147.408 184.848 147.445C185.004 147.482 185.1 147.64 185.063 147.795L184.655 149.494C184.623 149.627 184.504 149.717 184.372 149.717H184.373ZM185.19 146.321C185.168 146.321 185.145 146.318 185.121 146.313C184.965 146.276 184.869 146.118 184.906 145.962L185.314 144.264C185.351 144.108 185.509 144.012 185.665 144.049C185.821 144.086 185.917 144.243 185.88 144.399L185.472 146.097C185.44 146.231 185.321 146.321 185.189 146.321H185.19ZM186.007 142.924C185.985 142.924 185.962 142.921 185.938 142.916C185.782 142.879 185.686 142.722 185.723 142.566L186.131 140.868C186.168 140.712 186.326 140.615 186.482 140.652C186.638 140.689 186.734 140.847 186.697 141.003L186.289 142.701C186.257 142.834 186.138 142.924 186.006 142.924H186.007ZM186.824 139.528C186.802 139.528 186.779 139.525 186.755 139.52C186.599 139.483 186.503 139.325 186.54 139.169L186.948 137.471C186.985 137.315 187.143 137.219 187.299 137.256C187.455 137.293 187.551 137.45 187.514 137.606L187.106 139.305C187.073 139.438 186.954 139.528 186.823 139.528H186.824ZM187.641 136.132C187.619 136.132 187.596 136.129 187.572 136.124C187.416 136.087 187.319 135.929 187.356 135.773L187.765 134.075C187.802 133.919 187.96 133.822 188.116 133.859C188.271 133.896 188.368 134.054 188.331 134.21L187.923 135.908C187.89 136.042 187.771 136.132 187.64 136.132H187.641Z" fill="#73B9FF"/>
<path d="M184.585 113.495H165.466C165.364 113.495 165.265 113.484 165.168 113.464C164.88 113.405 164.618 113.265 164.414 113.064L175.891 111.178C179.136 110.644 181.6 107.968 181.864 104.69L182.613 95.3633C182.613 95.3633 182.613 95.3633 182.613 95.3665C183.795 103.877 184.678 111.568 184.861 113.185C184.879 113.352 184.749 113.495 184.583 113.495H184.585Z" fill="#3F66FB"/>
<path d="M211.806 126.093L223.946 126.979C225.247 127.074 226.318 128.047 226.526 129.333C226.841 131.286 227.132 134.388 226.709 138.02C226.709 138.02 228.762 135.168 227.843 125.406L211.805 125.57V126.093H211.806Z" fill="#80BFFF"/>
<path d="M231.498 134.533C231.498 134.533 230.395 132.73 228.728 133.618C228.728 133.618 228.097 136.354 227.094 137.232C227.094 137.232 227.994 135.178 228.035 132.959C228.035 132.959 230.96 131.519 231.498 134.533Z" fill="#5E80FF"/>
<path d="M108.192 101.721L110.908 110.345L104.664 113.978L117.154 113.976L108.192 101.721Z" fill="#80BFFF"/>
<path opacity="0.1" d="M132.266 118.3V159.599C132.266 161.081 131.064 162.283 129.582 162.283H59.2422C69.6436 162.283 78.5671 161.43 86.2202 159.959C88.3783 159.544 90.4335 159.081 92.3938 158.571C93.1464 158.378 93.8845 158.176 94.6098 157.968C97.0959 157.256 99.4181 156.471 101.587 155.625C117.172 149.546 124.863 140.324 128.647 132.378C131.463 126.465 132.118 121.258 132.251 118.577C132.256 118.482 132.259 118.387 132.264 118.299L132.266 118.3Z" fill="#333333"/>
<path d="M99.5011 113.977L60.6262 115.493C59.2207 115.548 58.0966 116.681 58.0532 118.089L58.0388 118.579L57.6206 132.38L56.7635 160.622C56.6349 160.307 56.5625 159.963 56.5625 159.601V116.662C56.5625 115.179 57.7638 113.978 59.2465 113.978H99.4995L99.5011 113.977Z" fill="#F2F2F2"/>
<path d="M207.194 117.656L208.293 120.978H167.22C167.073 120.978 166.932 120.946 166.805 120.886C201.854 120.886 205.223 115.644 205.223 115.644L192.421 113.492H208.864L209.304 116.676L207.865 116.705C207.381 116.715 207.043 117.192 207.194 117.654V117.656Z" fill="#E6E6E6"/>
<path d="M205.709 245.856C205.087 245.92 204.442 245.98 203.774 246.033C201.41 245.93 201.328 245.858 205.709 245.856ZM222.081 240.659C222.081 240.659 220.439 242.762 214.115 244.41C213.227 244.642 212.246 244.864 211.165 245.07C221.432 241.722 221.009 228.807 221.009 228.807C222.261 233.26 222.081 240.657 222.081 240.657V240.659Z" fill="#325CFB"/>
<path d="M223.586 245.577C223.493 246.565 222.774 247.382 221.806 247.599C205.877 251.171 195.13 250.157 184.309 249.373C183.835 249.339 183.389 249.294 182.96 249.239C182.233 249.146 181.567 249.027 180.961 248.884C195.955 250.436 210.756 245.216 211.157 245.073C211.162 245.073 211.165 245.069 211.165 245.069C212.247 244.863 213.228 244.64 214.114 244.41C220.437 242.76 222.081 240.658 222.081 240.658C223.535 242.385 223.71 244.264 223.586 245.577Z" fill="#E6E6E6"/>
<path d="M182.958 249.241C171.746 250.77 163.157 250 154.519 249.374C152.398 249.22 150.724 248.857 149.43 248.356C149.449 248.356 149.47 248.36 149.489 248.361C166.116 249.492 175.919 245.857 175.919 245.857C176.773 247.361 178.908 248.728 182.956 249.241H182.958Z" fill="#E6E6E6"/>
<path d="M166.648 218.271L166.729 219.88L187.868 221.165L187.723 218.271H166.648Z" fill="#80BFFF"/>
<path d="M196.367 218.271L196.507 219.875L217.722 221.165L217.44 218.271H196.367Z" fill="#80BFFF"/>
<path d="M230.828 99.7512V116.238L211.68 116.628C228.358 115.931 227.097 107.845 227.097 107.845V99.8171C227.097 96.8791 226.758 93.9491 226.053 91.0962C223.432 80.481 217.845 68.7191 210.852 56.4121C216.149 60.0336 226.573 82.1084 230.027 94.089C230.558 95.9303 230.828 97.8359 230.828 99.7528V99.7512Z" fill="#3F66FB"/>
<path d="M185.996 115.644L165.471 114.731L165.172 113.462L184.587 113.493C184.756 113.493 184.886 113.348 184.865 113.182C184.855 113.097 184.844 112.992 184.83 112.873C184.82 112.783 184.809 112.684 184.796 112.576C184.791 112.54 184.788 112.504 184.783 112.465C184.769 112.351 184.756 112.23 184.741 112.1C184.736 112.056 184.732 112.011 184.725 111.965C184.709 111.828 184.691 111.685 184.675 111.532C184.67 111.481 184.664 111.429 184.658 111.376C184.646 111.27 184.633 111.162 184.619 111.05C184.592 110.825 184.564 110.587 184.535 110.336C184.529 110.273 184.521 110.21 184.513 110.144C184.489 109.951 184.465 109.75 184.442 109.545C184.426 109.406 184.41 109.266 184.392 109.122C184.341 108.691 184.284 108.232 184.227 107.751C183.865 104.783 183.379 100.919 182.815 96.7857C182.784 96.5621 182.755 96.3386 182.721 96.1151C182.628 95.4397 182.533 94.7594 182.437 94.0744C182.421 93.9602 182.405 93.846 182.388 93.7318C182.356 93.5035 182.324 93.2751 182.29 93.0451C182.274 92.931 182.258 92.8168 182.241 92.7026C182.208 92.4743 182.175 92.2443 182.141 92.0143C182.091 91.6702 182.04 91.3245 181.99 90.9803C181.956 90.752 181.921 90.522 181.887 90.292C181.732 89.2596 181.576 88.2304 181.416 87.2141C181.379 86.9889 181.345 86.7622 181.308 86.5371C181.292 86.4245 181.272 86.3135 181.255 86.201C181.218 85.9774 181.184 85.7539 181.147 85.5304C181.092 85.1975 181.039 84.8646 180.985 84.5349C180.948 84.3146 180.912 84.0959 180.874 83.8788C180.837 83.6617 180.801 83.4446 180.764 83.2307C180.727 83.0153 180.69 82.7998 180.653 82.5891C180.616 82.3768 180.579 82.1646 180.542 81.9539C180.301 80.587 180.058 79.2796 179.814 78.0606C179.46 76.2901 179.124 74.7141 178.798 73.3054C178.761 73.1478 178.727 72.9934 178.69 72.8422C178.653 72.6895 178.619 72.5383 178.582 72.3903C178.566 72.3164 178.547 72.2424 178.529 72.1684C178.404 71.6538 178.28 71.1633 178.156 70.6954C178.085 70.4284 178.014 70.1679 177.944 69.9138C177.837 69.5327 177.731 69.1677 177.627 68.8155C177.45 68.2301 177.273 67.6817 177.095 67.1671C177.059 67.0642 177.024 66.9629 176.987 66.8632C176.77 66.2618 176.549 65.707 176.323 65.1891C176.284 65.0975 176.242 65.009 176.204 64.9206C176.123 64.7437 176.043 64.5716 175.959 64.4028C175.877 64.2339 175.794 64.0699 175.71 63.9075C175.626 63.7466 175.541 63.5875 175.454 63.4331C175.324 63.1999 175.191 62.9764 175.055 62.756C174.737 62.2431 174.403 61.7606 174.046 61.2927C173.943 61.1592 173.84 61.0257 173.734 60.8938C173.521 60.6301 173.301 60.368 173.073 60.1042C172.558 59.5141 171.998 58.9207 171.381 58.2871C170.886 57.7789 170.48 57.3061 170.147 56.8703C170.102 56.8124 170.061 56.7561 170.02 56.7014C169.612 56.1466 169.327 55.6497 169.134 55.2107C168.835 54.5289 168.76 53.9805 168.792 53.5495L169.023 53.498C169.049 53.5929 169.084 53.7168 169.134 53.8631C169.327 54.4356 169.728 55.3426 170.49 56.1466C170.49 56.1466 170.495 56.1515 170.496 56.1547L171.199 56.777L171.862 57.364C171.862 57.364 175.535 60.0351 177.365 64.8916C179.193 69.7498 181.023 77.3965 181.83 82.1549C182.638 86.9134 184.843 101.12 185.275 104.725C185.629 107.695 186.314 113.205 186.544 115.052C186.584 115.379 186.322 115.662 185.994 115.646L185.996 115.644Z" fill="#E6E6E6"/>
<path opacity="0.15" d="M176.959 165.806C176.959 171.235 171.707 175.638 165.229 175.638C162.487 175.638 159.963 174.849 157.965 173.527C157.891 169.47 157.872 165.975 157.941 163.534C157.988 161.871 158.174 159.916 158.462 157.772C160.374 156.638 162.709 155.973 165.229 155.973C171.707 155.973 176.959 160.376 176.959 165.805V165.806ZM204.083 165.806C204.083 171.235 198.831 175.638 192.354 175.638C189.863 175.638 187.553 174.989 185.653 173.878C185.194 168.968 184.874 165.181 184.818 163.656C184.773 162.439 184.889 160.471 185.104 158.076C187.1 156.759 189.618 155.974 192.354 155.974C198.831 155.974 204.083 160.377 204.083 165.806Z" fill="white"/>
<path d="M158.532 85.5239C158.397 85.5239 158.275 85.429 158.248 85.2907L155.561 71.9851C155.528 71.8275 155.631 71.6731 155.789 71.6425C155.947 71.6104 156.099 71.7133 156.131 71.8709L158.819 85.1765C158.851 85.3341 158.748 85.4885 158.59 85.5191C158.571 85.5223 158.552 85.5255 158.532 85.5255V85.5239ZM175.416 64.4365C174.45 63.6501 173.445 62.9233 172.312 62.3974C171.475 61.9986 170.59 61.6963 169.686 61.4856C169.389 61.4181 169.075 61.3586 168.789 61.3216C168.623 61.3071 168.501 61.1575 168.524 60.9935C168.545 60.8391 168.681 60.7298 168.834 60.741C169.18 60.7668 169.493 60.8214 169.817 60.8842C170.769 61.0836 171.713 61.4036 172.583 61.8378C173.166 62.1272 173.736 62.4521 174.255 62.8477C174.786 63.2272 175.252 63.6903 175.677 64.1792C175.743 64.2564 175.735 64.3706 175.659 64.4381C175.588 64.4992 175.485 64.496 175.418 64.4381L175.416 64.4365Z" fill="#2F56EB"/>
<path d="M168.88 52.3104C167.635 54.6116 168.547 58.4936 169.091 60.9573C169.17 61.3223 168.64 61.4655 168.528 61.1052C167.872 58.7397 167.188 55.5266 168.062 53.1659C168.209 52.8009 168.407 52.4455 168.689 52.1592C168.737 52.111 168.814 52.111 168.862 52.1592C168.904 52.201 168.911 52.2638 168.88 52.312V52.3104Z" fill="#2F56EB"/>
<path d="M168.927 61.2981C167.985 61.7596 167.163 62.517 166.6 63.4031C166.264 63.9451 166.034 64.5433 165.896 65.1656C165.861 65.3232 165.703 65.4213 165.546 65.3859C165.409 65.3538 165.317 65.2316 165.32 65.0981C165.328 64.5803 165.353 64.0705 165.383 63.5575C165.488 61.7677 165.69 59.9714 165.999 58.2024C166.142 57.4723 166.298 56.6506 166.499 55.9366C166.765 54.9363 167.133 53.9441 167.684 53.0628C167.776 52.9149 168.012 53.0275 167.942 53.1963C166.904 56.0459 166.481 59.0789 166.158 62.0861C166.075 62.9721 165.954 64.2442 165.903 65.119L165.327 65.0498C165.71 63.1973 166.999 61.5924 168.697 60.7658C169.058 60.6098 169.291 61.1405 168.931 61.2997L168.927 61.2981ZM184.526 59.386C183.245 60.6468 182.167 62.1343 181.329 63.7264C181.218 63.9467 180.882 63.8019 180.969 63.5688C181.289 62.6827 181.739 61.8481 182.272 61.0713C182.818 60.2914 183.413 59.5726 184.145 58.9454C184.267 58.8425 184.452 58.8569 184.555 58.9792C184.658 59.0998 184.644 59.2799 184.526 59.3844V59.386Z" fill="#2F56EB"/>
<path d="M186.183 51.1681C188.41 53.4565 189.963 56.4476 190.312 59.6446C190.396 60.447 190.413 61.2575 190.325 62.0616C190.294 62.3333 190.259 62.5923 190.19 62.8785C190.151 63.0345 189.994 63.1294 189.838 63.0908C189.761 63.0715 189.699 63.0248 189.659 62.9621C189.048 62.0519 188.244 61.235 187.348 60.6014C186.622 60.082 185.789 59.7201 184.92 59.5368C184.783 59.5191 184.454 59.4741 184.314 59.4564C183.912 59.4307 183.952 58.8389 184.357 58.8759L184.806 58.9338C186.737 59.22 188.403 60.4583 189.621 61.9329C189.81 62.1613 189.983 62.3912 190.155 62.6534L189.626 62.737C189.974 60.7349 189.648 58.6443 188.987 56.7354C188.46 55.2881 187.699 53.9212 186.869 52.6283C186.588 52.1909 186.253 51.7904 185.936 51.3739C185.817 51.218 186.044 51.0169 186.184 51.1697L186.183 51.1681ZM127.963 113.625C127.873 113.625 127.785 113.583 127.729 113.506L114.704 95.6908C114.61 95.5605 114.638 95.3788 114.767 95.2839C114.897 95.189 115.079 95.218 115.174 95.3466L128.198 113.161C128.293 113.292 128.264 113.473 128.135 113.568C128.084 113.607 128.023 113.625 127.963 113.625Z" fill="#2F56EB"/>
<path d="M128.434 114.269C128.344 114.269 128.255 114.227 128.199 114.15L127.728 113.507C127.633 113.377 127.662 113.195 127.791 113.1C127.921 113.005 128.103 113.034 128.197 113.163L128.669 113.806C128.763 113.936 128.735 114.118 128.606 114.213C128.554 114.251 128.493 114.269 128.434 114.269ZM209.615 116.969C209.458 116.969 209.328 116.842 209.324 116.684C209.321 116.524 209.448 116.39 209.609 116.387L230.487 115.946H230.494C230.651 115.946 230.782 116.073 230.785 116.231C230.788 116.392 230.661 116.525 230.5 116.528L209.622 116.969H209.615ZM208.863 113.222C208.721 113.222 208.596 113.118 208.575 112.973L206.547 98.8808L195.12 70.827C195.059 70.6775 195.131 70.5086 195.279 70.4475C195.428 70.3864 195.597 70.4588 195.658 70.6067L207.099 98.6943C207.108 98.7168 207.113 98.7393 207.116 98.7634L209.149 112.891C209.172 113.05 209.062 113.198 208.903 113.221C208.888 113.222 208.874 113.224 208.861 113.224L208.863 113.222Z" fill="#2F56EB"/>
<path d="M190.77 217.031C190.688 217.031 190.607 216.997 190.55 216.93C189.922 216.203 189.54 215.312 189.438 214.357C188.026 200.881 184.722 168.963 184.526 163.665C184.286 157.175 188.467 130.133 188.646 128.984C188.67 128.825 188.819 128.718 188.978 128.742C189.138 128.766 189.245 128.915 189.221 129.075C189.178 129.356 184.87 157.209 185.108 163.644C185.309 169.072 188.917 203.787 190.019 214.296C190.107 215.132 190.443 215.912 190.992 216.549C191.096 216.671 191.083 216.854 190.961 216.959C190.907 217.005 190.839 217.03 190.772 217.03L190.77 217.031Z" fill="#73B9FF"/>
<path d="M215.169 140.947C215.019 140.947 214.879 140.856 214.826 140.706C214.22 139.024 214.818 136.89 214.844 136.8C214.898 136.607 215.099 136.494 215.294 136.551C215.487 136.605 215.6 136.806 215.545 137.001C215.539 137.02 214.987 139.001 215.511 140.462C215.579 140.651 215.481 140.859 215.292 140.928C215.252 140.942 215.21 140.949 215.169 140.949V140.947ZM221.821 141.554C221.702 141.554 221.585 141.496 221.516 141.388C220.403 139.667 221.146 136.919 221.178 136.803C221.231 136.61 221.432 136.496 221.625 136.549C221.818 136.602 221.932 136.803 221.879 136.996C221.873 137.022 221.191 139.547 222.125 140.991C222.235 141.16 222.187 141.385 222.018 141.494C221.957 141.534 221.887 141.552 221.82 141.552L221.821 141.554ZM226.709 138.385C226.651 138.385 226.591 138.371 226.537 138.342C226.36 138.247 226.294 138.025 226.389 137.848C226.976 136.763 227.366 135.108 227.55 132.927C227.567 132.728 227.739 132.579 227.944 132.596C228.143 132.614 228.293 132.789 228.275 132.99C228.082 135.271 227.662 137.022 227.029 138.196C226.963 138.318 226.837 138.387 226.709 138.387V138.385ZM104.756 113.972C104.726 113.972 104.695 113.969 104.664 113.961C104.47 113.911 104.353 113.712 104.402 113.517C104.409 113.493 104.414 113.476 104.417 113.463C104.422 113.424 104.43 113.384 104.438 113.34C104.452 113.268 104.489 113.201 104.544 113.149L107.773 110.082C107.919 109.944 108.149 109.951 108.288 110.095C108.426 110.242 108.419 110.472 108.275 110.61L105.132 113.595C105.126 113.627 105.118 113.662 105.107 113.699C105.065 113.863 104.917 113.972 104.755 113.972H104.756ZM99.6535 113.858C99.6182 113.858 99.5812 113.853 99.5442 113.842C99.3528 113.783 99.2451 113.578 99.3062 113.386L100.895 108.315C100.955 108.124 101.159 108.018 101.352 108.077C101.543 108.137 101.651 108.341 101.59 108.534L100.001 113.604C99.9527 113.76 99.8079 113.86 99.6535 113.86V113.858Z" fill="#80BFFF"/>
<path d="M169.854 82.5654H169.85L163.653 82.4528C163.493 82.4496 163.364 82.3177 163.367 82.1569C163.37 81.9977 163.501 81.8706 163.658 81.8706H163.663L169.811 81.9832L175.534 80.1837C175.687 80.1355 175.851 80.2207 175.899 80.3735C175.948 80.5262 175.862 80.6903 175.71 80.7385L169.941 82.5525C169.912 82.5605 169.883 82.5654 169.854 82.5654ZM184.054 59.114C184.281 57.6265 184.48 56.1116 184.546 54.6112C184.583 53.5338 184.546 52.3952 183.932 51.4706C183.737 51.1715 183.504 50.8933 183.236 50.6456C183.157 50.5732 183.152 50.4494 183.224 50.3706C183.292 50.2982 183.401 50.2886 183.478 50.3449C184.492 51.0476 185.069 52.22 185.125 53.455C185.243 55.3944 184.958 57.3145 184.627 59.2169C184.55 59.5868 184 59.4951 184.053 59.1156L184.054 59.114Z" fill="#2F56EB"/>
<path d="M151.32 183.023L151.584 185.283C151.327 183.982 151.32 183.091 151.32 183.023Z" fill="#9ECEFF"/>
<path d="M180.385 35.485V36.7313C177.599 38.6691 175.85 37.3296 175.785 37.2797C175.834 37.3457 177.035 39.0647 173.605 39.3832C170.107 39.7064 168.015 37.9037 168.015 37.9037C168.015 37.9037 167.552 39.9669 163.577 39.2207C160.801 38.6997 159.593 36.5046 159.117 35.2294C159.14 35.1232 159.162 35.0171 159.186 34.9126C160.069 35.7922 162.528 38.0082 164.889 38.0082C167.793 38.0082 166.696 35.2422 166.666 35.165C168.078 37.1414 171.024 38.0082 173.203 38.0082C175.382 38.0082 174.615 34.8418 174.615 34.8418C174.615 34.8418 176.068 36.8182 177.44 36.8182C178.812 36.8182 180.386 35.485 180.386 35.485H180.385Z" fill="#80BFFF"/>
<path d="M218.328 228.401C218.192 228.634 218.047 228.862 217.886 229.083C216.522 230.963 214.123 232.399 208.634 232.587C205.653 232.688 204.241 231.884 203.614 230.937C214.358 233.206 215.971 225.035 215.971 225.035L196.86 223.195C196.874 223.195 196.889 223.195 196.903 223.195H217.699C217.759 223.195 217.817 223.189 217.873 223.178L218.082 225.566L218.095 225.709L218.327 228.359L218.331 228.399L218.328 228.401ZM188.253 228.864C188.205 228.938 188.153 229.01 188.1 229.084C186.737 230.964 184.337 232.4 178.849 232.589C175.867 232.69 174.455 231.886 173.828 230.939C184.471 234.256 186.507 225.117 186.507 225.117L167 223.205H187.796C187.856 223.205 187.914 223.2 187.97 223.189L188.092 225.624V225.635L188.251 228.829V228.862L188.253 228.864Z" fill="#E6E6E6"/>
<path opacity="0.1" d="M134.352 89.5782C132.376 92.3024 127.91 92.4342 124.382 89.8725C124.018 89.6088 123.681 89.3273 123.367 89.0314L128.077 85.4051C128.077 85.4051 129.679 83.366 132.075 80.4199C135.195 83.0106 136.227 86.9939 134.352 89.5782Z" fill="white"/>
<path d="M185.32 39.4362C184.904 40.0971 184.698 40.8352 184.97 41.583C185.055 41.8259 185.18 42.0703 185.324 42.3163C185.447 42.5238 185.174 42.7537 184.992 42.5994C183.786 41.6281 183.802 40.1245 184.992 39.1499C185.18 38.9891 185.454 39.2319 185.322 39.4378L185.32 39.4362Z" fill="#5E80FF"/>
<path d="M184.415 40.6063C184.938 40.5484 185.467 40.7301 185.835 41.1C185.981 41.272 186.345 41.5937 186.071 41.7931C185.969 41.859 185.833 41.8236 185.769 41.7239C185.501 41.309 184.992 41.0582 184.504 41.1434C184.137 41.2077 184.047 40.6642 184.415 40.6063Z" fill="#5E80FF"/>
</svg>
