<svg xmlns="http://www.w3.org/2000/svg" enable-background="new 0 0 2750 2000" viewBox="0 0 2750 2000" id="Paymentsecurity"><g fill="#000000" class="color000000 svgShape"><g fill="#000000" class="color000000 svgShape"><g fill="#000000" class="color000000 svgShape"><path fill="#e1f0ff" d="M501.07,1717.56H2353.4c14.08-11.9,27.25-24.7,39.33-38.52c111.47-127.53,116.31-323.1,15.92-458.54
				c-36.73-49.55-83.32-89.58-125.18-137.34c-97.62-111.38-69.88-275.76-132.07-404.21c-58.94-121.73-164.32-221.7-291.26-269.61
				c-188.12-71-429.5-14.24-587.31,102.27c-130.59,96.41-230.36,192.64-399.24,204.14c-212.75,14.49-397.65,76.25-521.61,268.66
				c-67.36,104.56-92.59,231.92-78.57,354.68C293.23,1512.79,380.63,1634.15,501.07,1717.56z" class="colore1f2ff svgShape"></path></g><g fill="#000000" class="color000000 svgShape"><g fill="#000000" class="color000000 svgShape"><path fill="#c6e1fd" d="M2390.46,1707.18H537.2l-0.35-0.24c-133.58-92.51-210.48-220.34-228.74-380.04
					c-14.61-128.01,13.41-254.48,78.92-356.09c58.93-91.45,133.63-157.46,228.38-201.8c80.31-37.56,176.74-59.73,294.8-67.77
					c143.78-9.82,236.05-80.33,342.9-161.97c16.92-12.95,36.1-27.63,55.29-41.76c79.61-58.78,180.15-102.06,283.09-121.85
					c110.63-21.22,216.51-14.54,306.16,19.31c125.46,47.32,232.04,145.96,292.42,270.63c26.03,53.78,36.51,114.58,46.64,173.38
					c14.06,81.57,28.58,165.83,85.1,230.34c15.86,18.11,32.15,34.87,50.27,53.35c26.96,27.62,52.42,53.7,75.03,84.13
					c49.06,66.24,74.58,149.18,71.88,233.57c-2.7,85.02-33.92,165.86-87.9,227.63c-11.89,13.55-25.2,26.57-39.58,38.7l-0.4,0.42
					L2390.46,1707.18z M538.05,1704.43h1851.88c14.21-12,27.36-24.87,39.1-38.25c53.56-61.28,84.54-141.51,87.22-225.9l0,0
					c2.69-83.77-22.65-166.11-71.34-231.84c-22.5-30.28-47.9-56.29-74.79-83.84c-18.15-18.51-34.47-35.3-50.38-53.46
					c-57.03-65.1-71.62-149.75-85.73-231.62c-10.11-58.69-20.55-119.29-46.41-172.72c-60.08-124.05-166.11-222.19-290.91-269.25
					c-89.19-33.68-194.54-40.31-304.68-19.19c-102.55,19.72-202.69,62.82-281.98,121.37c-19.17,14.12-38.34,28.79-55.25,41.73
					C1147.58,623.36,1055,694.1,910.39,703.97c-117.71,8.02-213.82,30.11-293.81,67.53c-94.27,44.11-168.6,109.8-227.24,200.8
					c-65.16,101.08-93.04,226.9-78.49,354.29C329,1485.4,405.44,1612.52,538.05,1704.43z" class="colorc6e5fd svgShape"></path></g></g><g fill="#000000" class="color000000 svgShape"><g fill="#000000" class="color000000 svgShape"><path fill="#c6e1fd" d="M483.88,1639.29c6.89,30.72,15.2,59.1,38.16,83.66c0.34,0.37,0.75,0.82,1.23,1.36l16.59,1.3
					c0.29-4.97-1.46-11.52-2.28-15.53l0-0.03c-0.19-0.96-0.33-1.76-0.37-2.37c-0.11-1.93-0.25-3.86-0.33-5.78
					c-0.5-9-0.79-18.01-0.92-27.04c-0.03-2-0.03-4.02,0-6.05c-0.07-9.78,0.15-19.6,0.6-29.39c0.51-11.52,1.36-23.05,2.58-34.57
					c1.86-18.04,4.57-36.07,8.21-54.03c4.22-20.96,9.65-41.56,16.29-62.12c5.95-18.48,13.26-38.31,9.12-57.24
					c-3.65-16.71-22.21-26.37-40.25-15.31c-28,17.17-41.87,46.81-48.97,75.32C471.44,1540.09,473.13,1591.53,483.88,1639.29z" class="colorc6e5fd svgShape"></path></g><g fill="#000000" class="color000000 svgShape"><g fill="#000000" class="color000000 svgShape"><path fill="#b9dafb" d="M528.58,1724.73l3.16,0.25c0-0.03-0.02-0.03-0.02-0.05c-13.61-23.49-22.76-49.18-27.9-75.79
						c-8.57-44.49-6.55-90.96,3.15-135.11c7.29-33.25,18.63-68.48,39.57-95.85c1.03-1.36-1.14-2.85-2.14-1.51
						c-10.84,14.13-18.67,30.52-25.12,47.05C487.47,1545.42,484.3,1646.99,528.58,1724.73z" class="colorb9e0fb svgShape"></path></g></g><g fill="#000000" class="color000000 svgShape"><g fill="#000000" class="color000000 svgShape"><path fill="#b9dafb" d="M543.19,1723.5c0.58-5.11,1.28-10.19,2.07-15.3v-0.03c10.17-66.32,34.9-132.04,80.47-181.93
						c0.52-0.6,1.07-1.21,1.62-1.78c1.15-1.23-0.71-3.09-1.86-1.83c-1.13,1.21-2.23,2.41-3.3,3.64
						c-43.18,48.16-67.42,110.39-78.27,173.83c-1.31,7.78-2.44,15.56-3.35,23.35c-0.03,0.03-0.03,0.03-0.03,0.05H543.19z" class="colorb9e0fb svgShape"></path></g></g><g fill="#000000" class="color000000 svgShape"><g fill="#000000" class="color000000 svgShape"><path fill="#cde3f9" d="M589.62,1594.8c8.83,3.92,19.4,5.1,29.48,3.28s19.63-6.63,26.62-13.41c-8.45-4.94-17.31-7.94-27.75-6.32
						S596.39,1587.49,589.62,1594.8z" class="colorcde8f9 svgShape"></path></g><g fill="#000000" class="color000000 svgShape"><path fill="#cde3f9" d="M556.55,1678.8c8.95,2.95,19.04,3.14,28.16,0.52c9.12-2.62,17.19-8.03,22.54-15.09
						c-8.78-3.95-17.59-6.02-27.07-3.56S561.6,1671.26,556.55,1678.8z" class="colorcde8f9 svgShape"></path></g><g fill="#000000" class="color000000 svgShape"><path fill="#cde3f9" d="M584.2,1504.91c12.74,10.47,17.51,27.67,11.88,42.86c-8.41-1.56-15.41-9.13-16.42-16.56
						C578.65,1523.78,579.94,1511.72,584.2,1504.91z" class="colorcde8f9 svgShape"></path></g><g fill="#000000" class="color000000 svgShape"><path fill="#cde3f9" d="M612.44,1551.41c15.3,10.43,36.53,7.38,49.25-7.08C645.95,1535.23,626.09,1538.46,612.44,1551.41z" class="colorcde8f9 svgShape"></path></g><g fill="#000000" class="color000000 svgShape"><path fill="#cde3f9" d="M526.21,1594.2c18.35,9.6,28.99,28.8,26.53,47.87c-10.59-0.05-21.18-7.46-24.52-15.98
						C524.88,1617.57,523.01,1603.1,526.21,1594.2z" class="colorcde8f9 svgShape"></path></g><g fill="#000000" class="color000000 svgShape"><path fill="#cde3f9" d="M573.5,1642.86c21.43,9.01,46.16,0.9,57.39-18.81C609.33,1616.7,586.28,1624.73,573.5,1642.86z" class="colorcde8f9 svgShape"></path></g><g fill="#000000" class="color000000 svgShape"><path fill="#cde3f9" d="M540.75,1675.38c1.82-17.77-12.57-31.14-33.41-31.04C507.03,1661.56,520.87,1673.84,540.75,1675.38z" class="colorcde8f9 svgShape"></path></g><g fill="#000000" class="color000000 svgShape"><path fill="#cde3f9" d="M662.08,1490.06c-10.07,1.96-19.91,5.99-27.42,12.35c-7.52,6.36-12.52,15.17-12.45,23.97
						c10.74-0.01,22.83-2.98,30.42-9.97C660.21,1509.41,662.79,1499.29,662.08,1490.06z" class="colorcde8f9 svgShape"></path></g><g fill="#000000" class="color000000 svgShape"><path fill="#cde3f9" d="M546.14,1544.84c-1.22,8.81-0.05,17.88,4.49,25.52c4.54,7.64,12.65,13.73,22.47,15.58
						c3.61-8.95,4.39-19.65-0.83-27.5C567.05,1550.61,556.65,1546.26,546.14,1544.84z" class="colorcde8f9 svgShape"></path></g></g><g fill="#000000" class="color000000 svgShape"><path fill="#cde3f9" d="M411.26,1450.52c-19.71-27.22-45.97-52.59-79.08-58.38c-33.14-5.79-33.69,32-26,53.07
					c36.2,99.26,115.01,177.94,154.81,275.82c8.19,20.13,28.81,27.66,34.29,1.11c3.38-16.38-1.77-34.21-4.57-50.24
					C476.86,1592.53,459.16,1516.68,411.26,1450.52z" class="colorcde8f9 svgShape"></path></g><g fill="#000000" class="color000000 svgShape"><g fill="#000000" class="color000000 svgShape"><path fill="#b9dafb" d="M322.22,1401.94c38.09,27.71,70.36,63.09,94.07,103.83c13.77,23.65,24.82,48.93,35.28,74.19
						c9.77,23.57,18.54,47.6,25.07,72.28c7.38,27.91,11.67,56.57,11.31,85.48c-0.02,1.69-2.64,1.53-2.62-0.15
						c0.65-51.44-13.87-101.36-32.93-148.69c-18.65-46.3-39.91-91.63-72.44-129.94c-17.47-20.57-37.37-38.93-59.19-54.81
						C319.41,1403.13,320.85,1400.94,322.22,1401.94L322.22,1401.94z" class="colorb9e0fb svgShape"></path></g></g><g fill="#000000" class="color000000 svgShape"><path fill="#c6e1fd" d="M2179.6,1592.75c1.62,9.26,5.13,18.16,10.5,25.86c1.26,1.81,2.59,3.57,3.99,5.31
					c4.64,5.84,9.71,11.5,13.02,17.9c1.43,2.79,2.52,5.72,3.12,8.85c0.46,2.44,0.57,4.86,0.46,7.3c-0.36,7.3-2.79,14.61-4.39,21.97
					c-0.87,3.96-1.48,7.97-1.38,11.99c0.23,10.2,4.94,19.7,10.18,28.99l46.87,2.81c0.99-6.92,0.69-14.16,0.3-21.22
					c-0.5-9.11,1.28-18.3,5.03-26.6c2.25-5.06,5.23-9.79,8.87-13.98c2.11-2.42,4.24-4.6,6.26-6.71c1.37-1.36,2.68-2.7,3.92-4.04
					c0-0.03,0.03-0.02,0.03-0.02c6.54-6.98,11.15-13.82,9.37-26.19c-0.02-0.16-0.03-0.29-0.08-0.45c-0.22-1.51-0.55-3.03-0.94-4.49
					c-1.5-5.58-3.97-10.92-5.98-16.32c-2.76-7.31-4.74-14.7-2.6-22.81c3.28-12.3,10.37-22.82,13.25-35.35
					c2.85-12.53,2.64-25.25-2.26-37.25c-8.07-19.88-26.64-36.88-25.04-58.31c0.6-8.29,4.7-14.84,7.77-22.29
					c3.01-7.35,3.84-15.49,2.53-23.34c-1.41-8.38-4.75-16.3-8.22-24.07c-0.12,5.43-5.59,15.31-7.9,18.45
					c-4.34,5.91-9.09,8.06-15.14,11.64c-11.7,6.91-24.14,14.72-29.67,27.73c-7.3,17.07,6.12,36.25,4.1,54.69
					c-2.82,25.63-30.11,36.73-40.38,57.85c-1.7,3.47-3.08,7.09-4.09,10.83C2178.25,1571.54,2177.75,1582.38,2179.6,1592.75z" class="colorc6e5fd svgShape"></path></g><g fill="#000000" class="color000000 svgShape"><path fill="#c6e1fd" d="M2293.36,1725.6l52.5,3.15c24.81-23.29,51.66-44.63,80.54-63.58c18.23-11.95,37.07-22.82,56.69-32.75
					c17.68-8.92,37.29-17.85,48.03-34.42c9.51-14.65,3.2-35.01-17.73-40.15c-32.55-7.96-63.95,3.2-89.73,18.51
					c-43.9,26.06-80,64.16-106.9,106.2C2307.72,1696.67,2299.4,1710.6,2293.36,1725.6z" class="colorc6e5fd svgShape"></path></g><g fill="#000000" class="color000000 svgShape"><g fill="#000000" class="color000000 svgShape"><path fill="#b9dafb" d="M2307.09,1726.42l2.98,0.18c4.19-7.68,8.76-15.12,13.7-22.36c26.27-38.4,61.69-70.48,100.97-95.19
						c29.19-18.36,62.62-35.25,97.27-39.66c1.67-0.22,1.11-2.77-0.53-2.55c-17.99,2.28-35.44,8.32-51.99,15.49
						C2403.64,1610.83,2341.69,1661.93,2307.09,1726.42z" class="colorb9e0fb svgShape"></path></g></g><g fill="#000000" class="color000000 svgShape"><g fill="#000000" class="color000000 svgShape"><path fill="#b9dafb" d="M2114.68,1554.35c0.55,0.52,1.13,1.02,1.68,1.57c48.71,45.49,77.27,108.77,91.24,173.28h2.65
						c-13.86-64.49-42.24-127.84-90.48-173.65c-1.07-1.05-2.15-2.04-3.22-3.04C2115.31,1551.36,2113.45,1553.22,2114.68,1554.35z" class="colorb9e0fb svgShape"></path></g></g><g fill="#000000" class="color000000 svgShape"><g fill="#000000" class="color000000 svgShape"><path fill="#cde3f9" d="M2155.58,1617.68c-8.01,4.35-17.86,6.25-27.48,5.29c-9.62-0.96-18.96-4.76-26.04-10.62
						c7.58-5.28,15.68-8.77,25.62-8.03C2137.63,1605.07,2148.67,1611.31,2155.58,1617.68z" class="colorcde8f9 svgShape"></path></g><g fill="#000000" class="color000000 svgShape"><path fill="#cde3f9" d="M2193,1694.2c-8.2,3.45-17.67,4.38-26.44,2.6c-8.77-1.78-16.77-6.26-22.33-12.5
						c7.96-4.38,16.09-6.99,25.19-5.38C2178.52,1680.53,2187.68,1687.49,2193,1694.2z" class="colorcde8f9 svgShape"></path></g><g fill="#000000" class="color000000 svgShape"><path fill="#cde3f9" d="M2153.93,1532.73c-11.2,10.81-14.39,27.33-7.96,41.21c7.79-2.1,13.8-9.75,14.2-16.81
						C2160.58,1550.07,2158.45,1538.81,2153.93,1532.73z" class="colorcde8f9 svgShape"></path></g><g fill="#000000" class="color000000 svgShape"><path fill="#cde3f9" d="M2130.87,1578.59c-13.61,10.96-33.8,9.68-46.85-2.97C2098.13,1565.89,2117.06,1567.43,2130.87,1578.59z" class="colorcde8f9 svgShape"></path></g><g fill="#000000" class="color000000 svgShape"><path fill="#cde3f9" d="M2215.17,1612.35c-16.54,10.41-25.1,29.26-21.36,47.01c9.96-0.84,19.36-8.61,21.86-16.87
						S2218.86,1620.49,2215.17,1612.35z" class="colorcde8f9 svgShape"></path></g><g fill="#000000" class="color000000 svgShape"><path fill="#cde3f9" d="M2174.36,1661.67c-19.48,10.08-43.34,4.31-55.39-13.38C2138.7,1639.76,2160.97,1645.58,2174.36,1661.67z" class="colorcde8f9 svgShape"></path></g><g fill="#000000" class="color000000 svgShape"><path fill="#cde3f9" d="M2207.6,1689.79c-3.05-16.57,9.49-30.23,29.09-31.7C2238.27,1674.27,2226.18,1686.85,2207.6,1689.79z" class="colorcde8f9 svgShape"></path></g><g fill="#000000" class="color000000 svgShape"><path fill="#cde3f9" d="M2079.58,1524.61c9.62,1.09,19.17,4.14,26.72,9.56c7.55,5.42,12.92,13.32,13.51,21.61
						c-10.1,0.79-21.69-1.09-29.36-7.09C2082.78,1542.67,2079.6,1533.34,2079.58,1524.61z" class="colorcde8f9 svgShape"></path></g><g fill="#000000" class="color000000 svgShape"><path fill="#cde3f9" d="M2192.73,1567.43c1.81,8.19,1.39,16.81-2.31,24.34s-10.87,13.86-19.97,16.34
						c-4.07-8.14-5.6-18.15-1.28-25.92S2182.95,1569.55,2192.73,1567.43z" class="colorcde8f9 svgShape"></path></g></g><g fill="#000000" class="color000000 svgShape"><path fill="#cde3f9" d="M2381.68,1437.05c22.75-24.74,51.79-46.88,85.35-48.76c33.59-1.89,29.73,35.7,19.64,55.74
					c-47.52,94.36-134.97,163.32-185.91,255.89c-10.48,19.04-31.84,24.11-34.18-2.89c-1.45-16.66,5.75-33.77,10.39-49.37
					C2299.97,1570.44,2326.39,1497.18,2381.68,1437.05z" class="colorcde8f9 svgShape"></path></g><g fill="#000000" class="color000000 svgShape"><g fill="#000000" class="color000000 svgShape"><path fill="#b9dafb" d="M2476.95,1401.52c-41.3,23.22-77.64,54.93-105.85,93.03c-15.38,20.78-28.55,43.22-41.21,65.73
						c-12.59,22.38-24.27,45.35-33.75,69.24c-10.71,26.99-18.47,55.06-21.49,83.99c-0.17,1.67-2.79,1.52-2.62-0.16
						c5.32-50.84,25.17-98.45,49.34-143.04c24.44-45.1,51.58-88.87,89.48-123.96c19.7-18.24,41.53-34.01,64.93-47.16
						C2477.24,1398.35,2478.42,1400.7,2476.95,1401.52L2476.95,1401.52z" class="colorb9e0fb svgShape"></path></g></g><g fill="#000000" class="color000000 svgShape"><g fill="#000000" class="color000000 svgShape"><path fill="#b9dafb" d="M2248.68,1676.12c0.11,15.65-2.18,31.19-5.7,46.46l2.69,0.16c3.81-16.73,6.2-33.81,5.52-50.91
						c-0.97-24.1-12.02-46.45-12.65-70.56c-0.37-13.17,3.17-25.69,10.19-36.85c5.4-8.63,12.28-16.93,14.82-27.02
						c2.27-9-0.67-17.76-4.35-25.96c-5.56-12.41-11.08-23.66-11-37.62c0.08-13.22,3.06-25.59,10.11-36.8
						c6.3-9.99,11.78-19.61,15.09-31.07c0.46-1.63-2.01-2.46-2.47-0.83c-2.32,7.97-5.5,15.55-9.84,22.67
						c-3,4.91-6.37,9.57-8.99,14.71c-5.41,10.6-7.08,23.99-6.37,35.76c0.65,11.09,4.62,20.54,9.31,30.43
						c6.2,13.08,9.22,24.41,1.99,37.76c-4.93,9.08-11.7,17.02-15.84,26.53c-4.48,10.34-5.88,21.51-5.03,32.69
						C2238.02,1629.7,2248.51,1651.85,2248.68,1676.12z" class="colorb9e0fb svgShape"></path></g></g><g fill="#000000" class="color000000 svgShape"><path fill="#c6e1fd" d="M389.18,1602.02c4.7,5.66,8.22,12.27,10.09,19.37c0.44,1.67,0.81,3.36,1.14,5.07
					c1.13,5.73,1.93,11.62,4.06,16.84c0.94,2.27,2.13,4.4,3.69,6.35c1.22,1.51,2.61,2.81,4.12,3.97c4.53,3.49,10.13,5.74,15.32,8.53
					c2.8,1.49,5.33,3.36,7.85,5.26c9.92,7.49,20.9,18.87,25.35,48.51l-35.33,1.62c-4.63-2.92-8.79-6.77-12.8-10.58
					c-5.18-4.92-11.56-8.52-18.41-10.49c-4.16-1.23-8.49-1.85-12.83-1.8c-2.51,0.03-4.89,0.19-7.17,0.33
					c-1.51,0.12-2.97,0.23-4.4,0.28c-0.02-0.01-0.03,0-0.03,0c-7.48,0.35-13.89-0.37-20.36-7.7c-0.09-0.09-0.16-0.17-0.23-0.28
					c-0.79-0.9-1.52-1.86-2.2-2.84c-2.56-3.72-4.5-7.9-6.7-11.84c-2.95-5.35-6.36-10.27-12.28-13.11c-9-4.28-18.86-5.39-27.79-10.03
					c-8.92-4.66-16.39-11.23-21.06-20.23c-7.76-14.89-8.47-34.58-22.06-44.49c-5.24-3.84-11.23-4.73-17.23-6.67
					c-5.91-1.93-11.18-5.57-15.2-10.33c-4.28-5.09-7.31-11.09-10.18-17.1c3.29,2.68,11.96,4.43,15.01,4.65
					c5.72,0.41,9.42-1.33,14.61-3.12c10.05-3.47,21.02-6.92,31.57-3.63c13.88,4.31,18.5,22.03,30.52,30.17
					c16.71,11.32,37.16,0.68,54.96,5.27c2.93,0.74,5.78,1.76,8.53,3.06C377.23,1590.46,383.94,1595.66,389.18,1602.02z" class="colorc6e5fd svgShape"></path></g><g fill="#000000" class="color000000 svgShape"><g fill="#000000" class="color000000 svgShape"><path fill="#b9dafb" d="M403.85,1685.47c9.27,8,19.7,14.51,30.58,20.16l-1.27,1.69c-11.9-6.21-23.29-13.45-33.14-22.52
						c-13.87-12.8-21.59-30.72-35.64-43.32c-7.67-6.9-16.92-11.14-27.13-12.61c-7.88-1.16-16.32-1.27-23.62-4.86
						c-6.52-3.21-10.25-9.4-13.27-15.76c-4.58-9.6-8.49-18.6-16.85-25.63c-7.93-6.66-16.81-11.16-27.06-12.64
						c-9.15-1.31-17.66-2.92-26.17-6.76c-1.2-0.55-0.45-2.44,0.76-1.89c5.93,2.66,12.06,4.61,18.5,5.63
						c4.45,0.7,8.93,1.05,13.33,2.1c9.06,2.15,17.89,7.94,24.55,14.34c6.28,6.01,9.9,13.17,13.42,20.98
						c4.65,10.33,9.88,17.88,21.5,20.33c7.91,1.66,16.08,1.65,23.85,4.01c8.43,2.57,15.81,7.4,22.04,13.58
						C381.58,1655.58,389.47,1673.06,403.85,1685.47z" class="colorb9e0fb svgShape"></path></g></g></g><g fill="#000000" class="color000000 svgShape"><ellipse cx="1375" cy="1729.19" fill="#c6e1fd" rx="1197" ry="63.78" class="colorc6e5fd svgShape"></ellipse></g><g fill="#000000" class="color000000 svgShape"><g fill="#000000" class="color000000 svgShape"><path fill="#e1f0ff" d="M1477.33,315.9c-1.38-15.95,5.88-32.39,18.61-42.1s29.29-11.88,44.3-6.34
					c19.39-43.36,71.72-67.05,118.5-58.82c46.78,8.22,82.63,38.51,100.75,82.41c39.92-20.89,99.14-1.86,120.42,34.98h-401.8
					L1477.33,315.9z" class="colore1f2ff svgShape"></path></g><g fill="#000000" class="color000000 svgShape"><path fill="#e1f0ff" d="M1083.78,607.66H608.61c9.06-25.27,29.25-46.27,54.53-55.3c25.28-9.03,54.54-6.13,77.55,7.68
					c20.49-46.1,66.87-84.58,117.08-89.46s102.22,19.04,131.2,60.33c11.66-5.94,24.69-8.94,37.77-7.65
					c25.09,2.46,45.59,17.34,53.47,41.69C1084.38,577.8,1085.76,592.33,1083.78,607.66z" class="colore1f2ff svgShape"></path></g><g fill="#000000" class="color000000 svgShape"><path fill="#e1f0ff" d="M2455.37,972.24l-383.92,0c3.1-24.24,22.9-47.13,44.06-54.89c20.94-7.69,44.06-6.09,62.66,7.62
					c16.55-45.77,49.9-70.79,90.47-75.64c39.49-4.72,83.08,6.04,106.35,40.65c1.61,2.4,3.11,4.88,4.48,7.42
					c13.81-5.19,29.69-3.9,42.98,2.51c11.29,5.45,22.72,14.88,27.78,26.72C2456.25,940.7,2457.96,957.2,2455.37,972.24z" class="colore1f2ff svgShape"></path></g></g><g fill="#000000" class="color000000 svgShape"><g fill="#000000" class="color000000 svgShape"><path fill="#ffffff" d="M1760.35,1636.51l-0.16-8.25c7.29-0.13,14.64-0.42,21.85-0.83l0.48,8.23
					C1775.21,1636.09,1767.75,1636.37,1760.35,1636.51z M1738.17,1636.5c-7.34-0.15-14.8-0.44-22.17-0.87l0.48-8.23
					c7.26,0.43,14.61,0.71,21.85,0.86L1738.17,1636.5z M1804.65,1633.94l-0.81-8.21c7.29-0.72,14.59-1.59,21.69-2.6l1.16,8.17
					C1819.47,1632.32,1812.05,1633.21,1804.65,1633.94z M1693.88,1633.89c-7.39-0.73-14.81-1.61-22.04-2.62l1.14-8.17
					c7.12,0.99,14.42,1.86,21.7,2.57L1693.88,1633.89z M1649.93,1627.75c-5.39-0.99-10.72-2.05-16-3.2l-5.74-1.28l1.83-8.05
					l5.67,1.26c5.18,1.13,10.42,2.18,15.72,3.15L1649.93,1627.75z M1848.61,1627.7l-1.52-8.11c7.22-1.35,14.41-2.88,21.35-4.54
					l1.91,8.02C1863.29,1624.77,1855.97,1626.32,1848.61,1627.7z M1606.67,1617.96c-7.14-1.88-14.24-3.88-21.32-5.97l2.34-7.91
					c7,2.07,14.03,4.04,21.09,5.9L1606.67,1617.96z M1891.93,1617.25l-2.5-7.86c6.8-2.16,13.59-4.72,20.19-7.61l3.31,7.56
					C1906.07,1612.34,1899,1615,1891.93,1617.25z M1564.21,1605.47c-7.01-2.25-14.01-4.58-20.98-6.97l2.67-7.8
					c6.93,2.37,13.87,4.68,20.83,6.91L1564.21,1605.47z M1932.98,1599.29l-4.06-7.18c6.19-3.5,12.34-7.39,18.26-11.55l4.74,6.75
					C1945.79,1591.62,1939.41,1595.65,1932.98,1599.29z M1522.38,1591.21c-6.92-2.47-13.83-4.99-20.74-7.52l2.84-7.75
					c6.88,2.53,13.77,5.03,20.67,7.5L1522.38,1591.21z M1480.97,1576.04l-20.65-7.65l2.86-7.74l20.66,7.66L1480.97,1576.04z
					 M1969.64,1573.59l-5.35-6.28c5.45-4.64,10.77-9.61,15.83-14.77l5.89,5.77C1980.78,1563.65,1975.28,1568.79,1969.64,1573.59z
					 M1439.67,1560.82c-6.89-2.49-13.79-4.96-20.7-7.37l2.72-7.79c6.94,2.43,13.87,4.9,20.79,7.4L1439.67,1560.82z M942.37,1548.24
					l-0.06-8.25c7.07-0.05,14.41-0.27,21.83-0.66l0.44,8.24C957.03,1547.97,949.56,1548.19,942.37,1548.24z M920.14,1547.83
					c-7.49-0.34-14.96-0.91-22.21-1.67l0.86-8.2c7.08,0.75,14.39,1.3,21.72,1.64L920.14,1547.83z M1398.18,1546.38
					c-5.77-1.91-11.56-3.78-17.37-5.58l-3.52-1.08l2.41-7.89l3.56,1.1c5.85,1.82,11.69,3.7,17.51,5.63L1398.18,1546.38z
					 M986.69,1545.97l-0.75-8.22c7.25-0.66,14.51-1.44,21.78-2.32l0.99,8.19C1001.37,1544.51,994.03,1545.3,986.69,1545.97z
					 M875.85,1543.11c-7.32-1.25-14.67-2.77-21.84-4.5l1.94-8.02c6.99,1.69,14.15,3.17,21.29,4.39L875.85,1543.11z M2000.96,1541.67
					l-6.37-5.24c4.57-5.56,8.96-11.38,13.04-17.31l6.79,4.68C2010.21,1529.91,2005.68,1535.93,2000.96,1541.67z M1030.64,1540.7
					l-1.18-8.16c7.22-1.04,14.46-2.15,21.71-3.31l1.3,8.15C1045.17,1538.53,1037.9,1539.65,1030.64,1540.7z M1074.24,1533.79
					l-1.36-8.14l21.72-3.66l1.37,8.14L1074.24,1533.79z M1356.26,1533.76c-7.05-1.84-14.2-3.55-21.25-5.08l1.75-8.06
					c7.16,1.55,14.42,3.29,21.58,5.16L1356.26,1533.76z M832.52,1532.62c-3.33-1.06-6.67-2.18-10.02-3.36
					c-3.7-1.31-7.37-2.69-11.01-4.13l3.05-7.67c3.54,1.41,7.11,2.75,10.71,4.02c3.26,1.15,6.51,2.24,9.76,3.27L832.52,1532.62z
					 M1117.66,1526.53l-1.3-8.15c7.36-1.18,14.65-2.25,21.89-3.23l1.1,8.17C1132.18,1524.3,1124.95,1525.37,1117.66,1526.53z
					 M1313.58,1524.5c-7.14-1.23-14.41-2.33-21.6-3.24l1.05-8.19c7.3,0.94,14.69,2.05,21.95,3.3L1313.58,1524.5z M1161.1,1520.73
					l-0.86-8.21c7.4-0.78,14.75-1.44,22.07-1.97l0.61,8.23C1175.68,1519.31,1168.41,1519.96,1161.1,1520.73z M1270.26,1518.96
					c-7.15-0.6-14.49-1.06-21.8-1.36l0.34-8.24c7.43,0.31,14.88,0.77,22.15,1.38L1270.26,1518.96z M1204.75,1517.56l-0.31-8.24
					c7.32-0.28,14.68-0.42,21.86-0.42l0.31,8.25C1219.22,1517.15,1211.97,1517.29,1204.75,1517.56z M791.07,1516.14
					c-6.63-3.21-13.27-6.72-19.72-10.43l4.11-7.15c6.29,3.61,12.75,7.03,19.21,10.15L791.07,1516.14z M2026.33,1504.86l-7.17-4.09
					c3.58-6.27,6.92-12.75,9.94-19.26l7.49,3.47C2033.47,1491.7,2030.02,1498.39,2026.33,1504.86z M752.4,1493.94
					c-6.11-4.1-12.2-8.48-18.09-13.04l5.04-6.53c5.74,4.44,11.68,8.71,17.64,12.71L752.4,1493.94z M717.13,1466.68
					c-5.52-4.88-10.97-10.03-16.2-15.31l5.86-5.81c5.1,5.15,10.42,10.17,15.81,14.94L717.13,1466.68z M2045.12,1464.29l-7.76-2.81
					c2.47-6.8,4.65-13.76,6.48-20.67l7.98,2.12C2049.92,1450.07,2047.67,1457.26,2045.12,1464.29z M685.75,1435.05
					c-4.87-5.6-9.61-11.41-14.09-17.27l6.56-5.01c4.37,5.72,8.99,11.39,13.76,16.86L685.75,1435.05z M2056.57,1421.03l-8.13-1.38
					c1.21-7.13,2.07-14.35,2.58-21.47l8.23,0.59C2058.72,1406.15,2057.82,1413.64,2056.57,1421.03z M658.71,1399.65
					c-4.1-6.15-8.06-12.52-11.76-18.93l7.14-4.12c3.61,6.26,7.47,12.48,11.48,18.48L658.71,1399.65z M2051.47,1376.6
					c-0.22-7.23-0.82-14.46-1.79-21.5l8.17-1.13c1.01,7.33,1.63,14.86,1.86,22.38L2051.47,1376.6z M636.44,1361.06
					c-3.28-6.66-6.37-13.49-9.19-20.31l7.63-3.15c2.74,6.65,5.76,13.32,8.96,19.81L636.44,1361.06z M2045.57,1333.94
					c-1.76-6.98-3.94-13.89-6.47-20.53l7.71-2.93c2.64,6.94,4.91,14.16,6.75,21.44L2045.57,1333.94z M619.44,1319.86
					c-2.37-7.05-4.51-14.25-6.36-21.38l7.99-2.08c1.8,6.95,3.89,13.96,6.2,20.83L619.44,1319.86z M2030.31,1293.76
					c-3.29-6.33-7-12.55-11.02-18.5l6.83-4.62c4.2,6.21,8.07,12.71,11.51,19.32L2030.31,1293.76z M608.23,1276.7
					c-1.36-7.29-2.46-14.72-3.28-22.08l8.2-0.91c0.79,7.16,1.87,14.39,3.19,21.48L608.23,1276.7z M2006.23,1258.12
					c-1.65-1.93-3.34-3.83-5.09-5.72c-3.02-3.26-6.22-6.52-9.79-9.94l5.71-5.96c3.69,3.54,7.01,6.91,10.14,10.3
					c1.82,1.97,3.59,3.96,5.3,5.96L2006.23,1258.12z M603.31,1232.35c-0.12-3.48-0.19-6.94-0.19-10.39c0-4,0.08-7.98,0.25-11.94
					l8.24,0.34c-0.16,3.85-0.24,7.72-0.24,11.61c0,3.35,0.06,6.72,0.18,10.1L603.31,1232.35z M1975.13,1227.93
					c-4.63-3.95-9.32-7.82-14.02-11.7l-2.86-2.36l5.26-6.36l2.85,2.36c4.73,3.9,9.45,7.8,14.12,11.77L1975.13,1227.93z
					 M1941.34,1199.57c-6.2-5.44-11.53-10.43-16.29-15.27l5.88-5.78c4.61,4.69,9.79,9.54,15.84,14.85L1941.34,1199.57z
					 M613.36,1188.73l-8.19-0.99c0.89-7.36,2.08-14.77,3.54-22.04l8.09,1.63C615.38,1174.39,614.22,1181.59,613.36,1188.73z
					 M1910.18,1167.46c-4.58-5.82-8.92-12.01-12.9-18.4l7-4.36c3.82,6.13,7.98,12.07,12.38,17.65L1910.18,1167.46z M621.93,1146.27
					L614,1144c2.03-7.1,4.37-14.24,6.97-21.22l7.73,2.88C626.18,1132.44,623.9,1139.37,621.93,1146.27z M1886.48,1129.38
					c-3.22-6.69-6.14-13.66-8.67-20.71l7.77-2.78c2.43,6.78,5.23,13.48,8.33,19.91L1886.48,1129.38z M637.05,1105.64l-7.49-3.47
					c3.11-6.71,6.52-13.41,10.14-19.89l7.2,4.02C643.39,1092.6,640.07,1099.11,637.05,1105.64z M1871.34,1087.18
					c-1.78-7.26-3.19-14.67-4.2-22.05l8.17-1.12c0.97,7.09,2.33,14.23,4.04,21.21L1871.34,1087.18z M658.18,1067.74l-6.89-4.54
					c4.06-6.16,8.42-12.28,12.94-18.18l6.55,5.02C666.38,1055.77,662.14,1061.73,658.18,1067.74z M1865.27,1042.76
					c-0.07-2.14-0.1-4.27-0.1-6.41c0-5.35,0.21-10.76,0.62-16.05l8.22,0.64c-0.39,5.08-0.6,10.27-0.6,15.42
					c0,2.05,0.03,4.1,0.09,6.15L1865.27,1042.76z M684.6,1033.24l-6.18-5.46c4.88-5.53,10.03-10.98,15.31-16.22l5.81,5.86
					C694.38,1022.52,689.36,1027.84,684.6,1033.24z M715.48,1002.59l-5.42-6.22c4.06-3.53,8.26-7.03,12.51-10.4
					c1.56-1.25,3.14-2.48,4.73-3.7l5.03,6.54c-1.55,1.2-3.1,2.4-4.64,3.62C723.55,995.73,719.44,999.15,715.48,1002.59z
					 M1876.89,999.58l-8.1-1.56c0.46-2.43,0.98-4.85,1.54-7.26c1.12-4.82,2.26-9.62,3.42-14.4l8.02,1.94
					c-1.15,4.76-2.29,9.53-3.41,14.32C1877.83,994.94,1877.33,997.26,1876.89,999.58z M749.97,975.99l-4.68-6.79
					c6-4.13,12.27-8.21,18.63-12.13l4.33,7.03C762.01,967.94,755.86,971.94,749.97,975.99z M1887.06,956.96l-8-2.01l5.39-21.36
					l8,2.01L1887.06,956.96z M787.1,953.08l-4-7.22c6.36-3.52,12.97-6.99,19.65-10.33l3.68,7.38
					C799.86,946.2,793.35,949.62,787.1,953.08z M826.19,933.54l-3.39-7.52c6.62-2.99,13.48-5.93,20.38-8.75l3.12,7.64
					C839.49,927.69,832.72,930.6,826.19,933.54z M866.69,916.95l-2.88-7.73c6.92-2.58,13.88-5.05,20.87-7.43l2.66,7.81
					C880.42,911.96,873.53,914.4,866.69,916.95z M1897.74,914.16l-8.02-1.93c1.72-7.15,3.38-14.28,4.94-21.39l8.06,1.77
					C1901.14,899.77,1899.47,906.95,1897.74,914.16z M908.18,902.81l-2.46-7.87c7.04-2.2,14.11-4.31,21.19-6.35l2.28,7.93
					C922.17,898.54,915.16,900.64,908.18,902.81z M950.33,890.64l-2.13-7.97c5.26-1.41,10.52-2.78,15.78-4.12l5.62-1.41l1.98,8.01
					l-5.57,1.4C960.79,887.87,955.56,889.24,950.33,890.64z M992.94,880.15l-1.78-8.06c7.16-1.58,14.37-3.11,21.62-4.59l1.65,8.08
					C1007.22,877.05,1000.05,878.57,992.94,880.15z M1036.01,871.31l-1.57-8.1c7.2-1.39,14.42-2.76,21.66-4.12l1.53,8.1
					C1050.41,868.55,1043.19,869.92,1036.01,871.31z M1907.17,870.9l-8.1-1.53c1.4-7.45,2.62-14.7,3.61-21.56l8.16,1.18
					C1909.82,855.97,1908.59,863.34,1907.17,870.9z M1079.29,863.1l-1.54-8.1c7.2-1.37,14.41-2.76,21.6-4.18l1.6,8.09
					C1093.73,860.34,1086.51,861.72,1079.29,863.1z M1122.58,854.5l-1.71-8.07c7.17-1.51,14.32-3.08,21.44-4.73l1.85,8.04
					C1137,851.39,1129.8,852.97,1122.58,854.5z M1165.67,844.5l-2.06-7.99c7.08-1.82,14.13-3.74,21.11-5.78l2.31,7.92
					C1179.96,840.71,1172.84,842.65,1165.67,844.5z M1208.21,832.05l-2.61-7.83c7.08-2.36,13.99-4.84,20.55-7.36l2.96,7.7
					C1222.44,827.13,1215.41,829.65,1208.21,832.05z M1913.45,826.92l-8.22-0.74c0.67-7.41,1.09-14.71,1.25-21.71l8.25,0.19
					C1914.56,811.83,1914.13,819.32,1913.45,826.92z M1249.64,816.04l-3.36-7.54c5.92-2.64,11.75-5.43,17.32-8.28l2.31-1.19
					l3.76,7.34l-2.31,1.18C1261.66,810.49,1255.69,813.34,1249.64,816.04z M1289.25,796.15l-3.89-7.28
					c6.47-3.45,12.88-6.96,19.23-10.54l4.05,7.19C1302.24,789.12,1295.77,792.66,1289.25,796.15z M1906.15,782.77
					c-0.4-7.28-1.11-14.53-2.12-21.54l8.16-1.18c1.04,7.25,1.78,14.74,2.19,22.27L1906.15,782.77z M1327.78,774.36l-4.26-7.06
					c6.41-3.87,12.65-7.78,18.54-11.62l4.51,6.91C1340.6,766.49,1334.28,770.45,1327.78,774.36z M1364.91,750.08l-4.8-6.71
					c6.03-4.31,11.91-8.71,17.46-13.09l5.11,6.48C1377.02,741.21,1371.04,745.7,1364.91,750.08z M1899.96,740
					c-1.68-6.97-3.73-13.95-6.08-20.74l7.79-2.7c2.44,7.04,4.56,14.28,6.31,21.51L1899.96,740z M1399.77,722.53l-5.44-6.2
					c5.49-4.82,10.86-9.81,15.96-14.83l0.55-0.54l5.79,5.88l-0.53,0.52C1410.87,712.51,1405.39,717.6,1399.77,722.53z
					 M1885.85,699.18c-2.94-6.46-6.26-12.95-9.85-19.28l7.18-4.07c3.71,6.54,7.13,13.25,10.18,19.93L1885.85,699.18z
					 M1432.26,691.26l-5.85-5.82l1.01-1.02c4.9-4.93,9.75-9.79,14.59-14.58l5.8,5.87c-4.82,4.77-9.65,9.62-14.54,14.53
					L1432.26,691.26z M1864.54,661.51c-4.09-5.97-8.49-11.75-13.09-17.18l6.3-5.33c4.77,5.64,9.34,11.64,13.59,17.84L1864.54,661.51
					z M1463.55,660.48l-5.65-6.02c5.82-5.47,11.22-10.33,16.49-14.86l5.38,6.26C1474.59,650.31,1469.28,655.09,1463.55,660.48z
					 M1496.69,632.16l-4.98-6.57c5.99-4.55,12.13-8.87,18.23-12.85l4.51,6.91C1508.5,623.52,1502.53,627.74,1496.69,632.16z
					 M1836.69,628.61c-5.18-4.96-10.68-9.69-16.35-14.06l5.04-6.53c5.9,4.55,11.63,9.47,17.02,14.64L1836.69,628.61z
					 M1533.06,608.48l-3.99-7.22c6.46-3.56,13.15-6.96,19.9-10.09l3.47,7.48C1545.88,601.7,1539.35,605,1533.06,608.48z
					 M1802.56,602.31c-6.08-3.72-12.47-7.19-18.98-10.3l3.56-7.44c6.76,3.23,13.4,6.83,19.73,10.7L1802.56,602.31z M1572.47,590.19
					l-2.95-7.71c6.93-2.65,14.03-5.09,21.1-7.25l2.41,7.89C1586.14,585.23,1579.23,587.61,1572.47,590.19z M1763.65,583.71
					c-6.68-2.4-13.64-4.53-20.68-6.32l2.04-7.99c7.29,1.86,14.5,4.06,21.43,6.55L1763.65,583.71z M1614.03,577.5l-1.86-8.04
					c7.23-1.67,14.6-3.11,21.9-4.26l1.28,8.15C1628.25,574.47,1621.07,575.87,1614.03,577.5z M1721.78,573.01
					c-7.04-1.13-14.28-1.98-21.51-2.51l0.61-8.23c7.46,0.55,14.94,1.42,22.21,2.59L1721.78,573.01z M1656.92,570.76l-0.68-8.22
					c7.44-0.62,14.95-0.96,22.31-1l0.05,8.25C1671.45,569.83,1664.15,570.15,1656.92,570.76z" class="colorffffff svgShape"></path></g></g></g><g fill="#000000" class="color000000 svgShape"><g fill="#000000" class="color000000 svgShape"><g fill="#000000" class="color000000 svgShape"><path fill="#c0defc" d="M1419.6,476.05c-74.24,0-134.43,60.19-134.43,134.43s60.19,134.43,134.43,134.43
					c74.25,0,134.43-60.19,134.43-134.43S1493.84,476.05,1419.6,476.05z M1419.6,693.96c-46.1,0-83.48-37.37-83.48-83.48
					c0-46.1,37.37-83.48,83.48-83.48s83.48,37.37,83.48,83.48C1503.07,656.59,1465.7,693.96,1419.6,693.96z" class="colorc0e2fc svgShape"></path></g></g><g fill="#000000" class="color000000 svgShape"><g fill="#000000" class="color000000 svgShape"><circle cx="1419.6" cy="610.48" r="51.22" fill="#c0defc" class="colorc0e2fc svgShape"></circle></g></g><g fill="#000000" class="color000000 svgShape"><g fill="#000000" class="color000000 svgShape"><g fill="#000000" class="color000000 svgShape"><path fill="#c0defc" d="M1441.29,442.75c-7.27-0.94-14.57-1.42-21.69-1.42c-7.13,0-14.43,0.48-21.7,1.42l-1.76,0.23l-13.87,62.1
						h74.66l-13.88-62.1L1441.29,442.75z" class="colorc0e2fc svgShape"></path></g></g><g fill="#000000" class="color000000 svgShape"><g fill="#000000" class="color000000 svgShape"><path fill="#c0defc" d="M1396.14,777.99l1.76,0.23c7.27,0.94,14.57,1.42,21.7,1.42c7.12,0,14.42-0.48,21.69-1.42l1.76-0.23
						l13.88-62.19h-74.66L1396.14,777.99z" class="colorc0e2fc svgShape"></path></g></g><g fill="#000000" class="color000000 svgShape"><g fill="#000000" class="color000000 svgShape"><path fill="#c0defc" d="M1316.33,476.54c-5.84,4.49-11.34,9.31-16.35,14.33c-5.09,5.09-9.9,10.59-14.33,16.35l-1.08,1.41
						l34.09,53.73l52.8-52.79l-53.73-34.1L1316.33,476.54z" class="colorc0e2fc svgShape"></path></g></g><g fill="#000000" class="color000000 svgShape"><g fill="#000000" class="color000000 svgShape"><path fill="#c0defc" d="M1467.67,711.35l53.78,34.16l1.41-1.08c5.85-4.5,11.35-9.32,16.35-14.34c5.06-5.05,9.88-10.55,14.34-16.35
						l1.08-1.41l-34.16-53.79L1467.67,711.35z" class="colorc0e2fc svgShape"></path></g></g><g fill="#000000" class="color000000 svgShape"><g fill="#000000" class="color000000 svgShape"><path fill="#c0defc" d="M1314.2,573.15l-62.1,13.87l-0.23,1.76c-0.95,7.25-1.43,14.56-1.43,21.7c0,7.14,0.48,14.44,1.43,21.7
						l0.23,1.76l62.1,13.87V573.15z" class="colorc0e2fc svgShape"></path></g></g><g fill="#000000" class="color000000 svgShape"><g fill="#000000" class="color000000 svgShape"><path fill="#c0defc" d="M1587.33,588.79l-0.23-1.76l-62.19-13.87v74.66l62.19-13.87l0.23-1.76c0.95-7.25,1.43-14.55,1.43-21.7
						C1588.76,603.34,1588.28,596.04,1587.33,588.79z" class="colorc0e2fc svgShape"></path></g></g><g fill="#000000" class="color000000 svgShape"><g fill="#000000" class="color000000 svgShape"><path fill="#c0defc" d="M1284.58,712.34l1.08,1.41c4.43,5.77,9.26,11.27,14.33,16.35c5,5.01,10.51,9.84,16.35,14.34l1.41,1.08
						l53.73-34.1l-52.8-52.79L1284.58,712.34z" class="colorc0e2fc svgShape"></path></g></g><g fill="#000000" class="color000000 svgShape"><g fill="#000000" class="color000000 svgShape"><path fill="#c0defc" d="M1554.63,508.62l-1.08-1.41c-4.44-5.77-9.26-11.27-14.34-16.35c-5.01-5.02-10.51-9.84-16.35-14.33
						l-1.41-1.08l-53.78,34.16l52.8,52.8L1554.63,508.62z" class="colorc0e2fc svgShape"></path></g></g></g></g><g fill="#000000" class="color000000 svgShape"><g fill="#000000" class="color000000 svgShape"><g fill="#000000" class="color000000 svgShape"><path fill="#c0defc" d="M783.03,1038.62c-13.73-3.76-25.66-13.5-31.55-27.67c-5.89-14.18-4.37-29.5,2.66-41.89
					c-8.67-11.52-18.93-21.78-30.48-30.43c-12.37,7.06-27.7,8.61-41.89,2.75c-14.18-5.86-23.95-17.76-27.73-31.49
					c-6.99-0.99-14.13-1.53-21.39-1.53c-7.37,0-14.6,0.55-21.69,1.57c-3.75,13.74-13.5,25.66-27.67,31.55
					c-14.18,5.89-29.5,4.37-41.89-2.66c-11.52,8.67-21.78,18.93-30.43,30.48c7.06,12.37,8.61,27.7,2.75,41.89
					c-5.86,14.18-17.76,23.95-31.49,27.73c-0.99,6.99-1.53,14.13-1.53,21.39c0,7.37,0.55,14.6,1.57,21.69
					c13.74,3.76,25.66,13.5,31.55,27.67c5.89,14.18,4.37,29.5-2.66,41.89c8.67,11.52,18.93,21.78,30.48,30.43
					c12.37-7.06,27.7-8.61,41.89-2.75c14.18,5.86,23.95,17.76,27.73,31.49c6.99,0.99,14.13,1.53,21.39,1.53
					c7.37,0,14.6-0.55,21.68-1.57c3.76-13.74,13.5-25.66,27.67-31.55c14.18-5.89,29.5-4.37,41.89,2.66
					c11.52-8.67,21.78-18.93,30.43-30.48c-7.06-12.37-8.61-27.7-2.75-41.89c5.86-14.18,17.76-23.95,31.49-27.73
					c0.99-6.99,1.53-14.13,1.53-21.39C784.59,1052.94,784.04,1045.71,783.03,1038.62z M632.66,1134.44
					c-40.94,0-74.13-33.19-74.13-74.13c0-40.94,33.19-74.13,74.13-74.13s74.13,33.19,74.13,74.13
					C706.79,1101.25,673.6,1134.44,632.66,1134.44z" class="colorc0e2fc svgShape"></path></g></g><g fill="#000000" class="color000000 svgShape"><g fill="#000000" class="color000000 svgShape"><circle cx="632.66" cy="1060.3" r="43.35" fill="#c0defc" class="colorc0e2fc svgShape"></circle></g></g></g><g fill="#000000" class="color000000 svgShape"><g fill="#000000" class="color000000 svgShape"><g fill="#000000" class="color000000 svgShape"><g fill="#000000" class="color000000 svgShape"><g fill="#000000" class="color000000 svgShape"><path fill="#7fb9f4" d="M1133.7,1740.58H775.74c-8.03,0-14.54-6.51-14.54-14.54v-39.11c0-8.03,6.51-14.54,14.54-14.54h357.97
							c8.03,0,14.54,6.51,14.54,14.54v39.11C1148.24,1734.08,1141.73,1740.58,1133.7,1740.58z" class="color7fc8f4 svgShape"></path></g></g><g fill="#000000" class="color000000 svgShape"><g fill="#000000" class="color000000 svgShape"><g fill="#000000" class="color000000 svgShape"><g fill="#000000" class="color000000 svgShape"><rect width="4.66" height="49.76" x="784.63" y="1681.62" fill="#70aeed" class="color70beed svgShape"></rect></g></g></g><g fill="#000000" class="color000000 svgShape"><g fill="#000000" class="color000000 svgShape"><g fill="#000000" class="color000000 svgShape"><rect width="4.66" height="49.76" x="812.59" y="1681.62" fill="#70aeed" class="color70beed svgShape"></rect></g></g></g><g fill="#000000" class="color000000 svgShape"><g fill="#000000" class="color000000 svgShape"><g fill="#000000" class="color000000 svgShape"><rect width="4.66" height="49.76" x="840.55" y="1681.62" fill="#70aeed" class="color70beed svgShape"></rect></g></g></g><g fill="#000000" class="color000000 svgShape"><g fill="#000000" class="color000000 svgShape"><g fill="#000000" class="color000000 svgShape"><rect width="4.66" height="49.76" x="868.51" y="1681.62" fill="#70aeed" class="color70beed svgShape"></rect></g></g></g><g fill="#000000" class="color000000 svgShape"><g fill="#000000" class="color000000 svgShape"><g fill="#000000" class="color000000 svgShape"><rect width="4.66" height="49.76" x="896.47" y="1681.62" fill="#70aeed" class="color70beed svgShape"></rect></g></g></g><g fill="#000000" class="color000000 svgShape"><g fill="#000000" class="color000000 svgShape"><g fill="#000000" class="color000000 svgShape"><rect width="4.66" height="49.76" x="924.43" y="1681.62" fill="#70aeed" class="color70beed svgShape"></rect></g></g></g><g fill="#000000" class="color000000 svgShape"><g fill="#000000" class="color000000 svgShape"><g fill="#000000" class="color000000 svgShape"><rect width="4.66" height="49.76" x="952.39" y="1681.62" fill="#70aeed" class="color70beed svgShape"></rect></g></g></g><g fill="#000000" class="color000000 svgShape"><g fill="#000000" class="color000000 svgShape"><g fill="#000000" class="color000000 svgShape"><rect width="4.66" height="49.76" x="980.35" y="1681.62" fill="#70aeed" class="color70beed svgShape"></rect></g></g></g><g fill="#000000" class="color000000 svgShape"><g fill="#000000" class="color000000 svgShape"><g fill="#000000" class="color000000 svgShape"><rect width="4.66" height="49.76" x="1008.32" y="1681.62" fill="#70aeed" class="color70beed svgShape"></rect></g></g></g><g fill="#000000" class="color000000 svgShape"><g fill="#000000" class="color000000 svgShape"><g fill="#000000" class="color000000 svgShape"><rect width="4.66" height="49.76" x="1036.27" y="1681.62" fill="#70aeed" class="color70beed svgShape"></rect></g></g></g><g fill="#000000" class="color000000 svgShape"><g fill="#000000" class="color000000 svgShape"><g fill="#000000" class="color000000 svgShape"><rect width="4.66" height="49.76" x="1064.23" y="1681.62" fill="#70aeed" class="color70beed svgShape"></rect></g></g></g><g fill="#000000" class="color000000 svgShape"><g fill="#000000" class="color000000 svgShape"><g fill="#000000" class="color000000 svgShape"><rect width="4.66" height="49.76" x="1092.19" y="1681.62" fill="#70aeed" class="color70beed svgShape"></rect></g></g></g><g fill="#000000" class="color000000 svgShape"><g fill="#000000" class="color000000 svgShape"><g fill="#000000" class="color000000 svgShape"><rect width="4.66" height="49.76" x="1120.15" y="1681.62" fill="#70aeed" class="color70beed svgShape"></rect></g></g></g></g></g><g fill="#000000" class="color000000 svgShape"><g fill="#000000" class="color000000 svgShape"><g fill="#000000" class="color000000 svgShape"><path fill="#7fb9f4" d="M1133.7,1672.41H775.74c-8.03,0-14.54-6.51-14.54-14.54v-39.11c0-8.03,6.51-14.54,14.54-14.54h357.97
							c8.03,0,14.54,6.51,14.54,14.54v39.11C1148.24,1665.9,1141.73,1672.41,1133.7,1672.41z" class="color7fc8f4 svgShape"></path></g></g><g fill="#000000" class="color000000 svgShape"><g fill="#000000" class="color000000 svgShape"><g fill="#000000" class="color000000 svgShape"><g fill="#000000" class="color000000 svgShape"><rect width="4.66" height="49.76" x="784.63" y="1613.44" fill="#70aeed" class="color70beed svgShape"></rect></g></g></g><g fill="#000000" class="color000000 svgShape"><g fill="#000000" class="color000000 svgShape"><g fill="#000000" class="color000000 svgShape"><rect width="4.66" height="49.76" x="812.59" y="1613.44" fill="#70aeed" class="color70beed svgShape"></rect></g></g></g><g fill="#000000" class="color000000 svgShape"><g fill="#000000" class="color000000 svgShape"><g fill="#000000" class="color000000 svgShape"><rect width="4.66" height="49.76" x="840.55" y="1613.44" fill="#70aeed" class="color70beed svgShape"></rect></g></g></g><g fill="#000000" class="color000000 svgShape"><g fill="#000000" class="color000000 svgShape"><g fill="#000000" class="color000000 svgShape"><rect width="4.66" height="49.76" x="868.51" y="1613.44" fill="#70aeed" class="color70beed svgShape"></rect></g></g></g><g fill="#000000" class="color000000 svgShape"><g fill="#000000" class="color000000 svgShape"><g fill="#000000" class="color000000 svgShape"><rect width="4.66" height="49.76" x="896.47" y="1613.44" fill="#70aeed" class="color70beed svgShape"></rect></g></g></g><g fill="#000000" class="color000000 svgShape"><g fill="#000000" class="color000000 svgShape"><g fill="#000000" class="color000000 svgShape"><rect width="4.66" height="49.76" x="924.43" y="1613.44" fill="#70aeed" class="color70beed svgShape"></rect></g></g></g><g fill="#000000" class="color000000 svgShape"><g fill="#000000" class="color000000 svgShape"><g fill="#000000" class="color000000 svgShape"><rect width="4.66" height="49.76" x="952.39" y="1613.44" fill="#70aeed" class="color70beed svgShape"></rect></g></g></g><g fill="#000000" class="color000000 svgShape"><g fill="#000000" class="color000000 svgShape"><g fill="#000000" class="color000000 svgShape"><rect width="4.66" height="49.76" x="980.35" y="1613.44" fill="#70aeed" class="color70beed svgShape"></rect></g></g></g><g fill="#000000" class="color000000 svgShape"><g fill="#000000" class="color000000 svgShape"><g fill="#000000" class="color000000 svgShape"><rect width="4.66" height="49.76" x="1008.32" y="1613.44" fill="#70aeed" class="color70beed svgShape"></rect></g></g></g><g fill="#000000" class="color000000 svgShape"><g fill="#000000" class="color000000 svgShape"><g fill="#000000" class="color000000 svgShape"><rect width="4.66" height="49.76" x="1036.27" y="1613.44" fill="#70aeed" class="color70beed svgShape"></rect></g></g></g><g fill="#000000" class="color000000 svgShape"><g fill="#000000" class="color000000 svgShape"><g fill="#000000" class="color000000 svgShape"><rect width="4.66" height="49.76" x="1064.23" y="1613.44" fill="#70aeed" class="color70beed svgShape"></rect></g></g></g><g fill="#000000" class="color000000 svgShape"><g fill="#000000" class="color000000 svgShape"><g fill="#000000" class="color000000 svgShape"><rect width="4.66" height="49.76" x="1092.19" y="1613.44" fill="#70aeed" class="color70beed svgShape"></rect></g></g></g><g fill="#000000" class="color000000 svgShape"><g fill="#000000" class="color000000 svgShape"><g fill="#000000" class="color000000 svgShape"><rect width="4.66" height="49.76" x="1120.15" y="1613.44" fill="#70aeed" class="color70beed svgShape"></rect></g></g></g></g></g><g fill="#000000" class="color000000 svgShape"><g fill="#000000" class="color000000 svgShape"><g fill="#000000" class="color000000 svgShape"><path fill="#7fb9f4" d="M1150.86,1604.23H792.9c-8.03,0-14.54-6.51-14.54-14.54v-39.11c0-8.03,6.51-14.54,14.54-14.54h357.97
							c8.03,0,14.54,6.51,14.54,14.54v39.11C1165.4,1597.72,1158.89,1604.23,1150.86,1604.23z" class="color7fc8f4 svgShape"></path></g></g><g fill="#000000" class="color000000 svgShape"><g fill="#000000" class="color000000 svgShape"><g fill="#000000" class="color000000 svgShape"><g fill="#000000" class="color000000 svgShape"><rect width="4.66" height="49.76" x="801.79" y="1545.26" fill="#70aeed" class="color70beed svgShape"></rect></g></g></g><g fill="#000000" class="color000000 svgShape"><g fill="#000000" class="color000000 svgShape"><g fill="#000000" class="color000000 svgShape"><rect width="4.66" height="49.76" x="829.75" y="1545.26" fill="#70aeed" class="color70beed svgShape"></rect></g></g></g><g fill="#000000" class="color000000 svgShape"><g fill="#000000" class="color000000 svgShape"><g fill="#000000" class="color000000 svgShape"><rect width="4.66" height="49.76" x="857.71" y="1545.26" fill="#70aeed" class="color70beed svgShape"></rect></g></g></g><g fill="#000000" class="color000000 svgShape"><g fill="#000000" class="color000000 svgShape"><g fill="#000000" class="color000000 svgShape"><rect width="4.66" height="49.76" x="885.67" y="1545.26" fill="#70aeed" class="color70beed svgShape"></rect></g></g></g><g fill="#000000" class="color000000 svgShape"><g fill="#000000" class="color000000 svgShape"><g fill="#000000" class="color000000 svgShape"><rect width="4.66" height="49.76" x="913.63" y="1545.26" fill="#70aeed" class="color70beed svgShape"></rect></g></g></g><g fill="#000000" class="color000000 svgShape"><g fill="#000000" class="color000000 svgShape"><g fill="#000000" class="color000000 svgShape"><rect width="4.66" height="49.76" x="941.59" y="1545.26" fill="#70aeed" class="color70beed svgShape"></rect></g></g></g><g fill="#000000" class="color000000 svgShape"><g fill="#000000" class="color000000 svgShape"><g fill="#000000" class="color000000 svgShape"><rect width="4.66" height="49.76" x="969.55" y="1545.26" fill="#70aeed" class="color70beed svgShape"></rect></g></g></g><g fill="#000000" class="color000000 svgShape"><g fill="#000000" class="color000000 svgShape"><g fill="#000000" class="color000000 svgShape"><rect width="4.66" height="49.76" x="997.51" y="1545.26" fill="#70aeed" class="color70beed svgShape"></rect></g></g></g><g fill="#000000" class="color000000 svgShape"><g fill="#000000" class="color000000 svgShape"><g fill="#000000" class="color000000 svgShape"><rect width="4.66" height="49.76" x="1025.47" y="1545.26" fill="#70aeed" class="color70beed svgShape"></rect></g></g></g><g fill="#000000" class="color000000 svgShape"><g fill="#000000" class="color000000 svgShape"><g fill="#000000" class="color000000 svgShape"><rect width="4.66" height="49.76" x="1053.43" y="1545.26" fill="#70aeed" class="color70beed svgShape"></rect></g></g></g><g fill="#000000" class="color000000 svgShape"><g fill="#000000" class="color000000 svgShape"><g fill="#000000" class="color000000 svgShape"><rect width="4.66" height="49.76" x="1081.39" y="1545.26" fill="#70aeed" class="color70beed svgShape"></rect></g></g></g><g fill="#000000" class="color000000 svgShape"><g fill="#000000" class="color000000 svgShape"><g fill="#000000" class="color000000 svgShape"><rect width="4.66" height="49.76" x="1109.35" y="1545.26" fill="#70aeed" class="color70beed svgShape"></rect></g></g></g><g fill="#000000" class="color000000 svgShape"><g fill="#000000" class="color000000 svgShape"><g fill="#000000" class="color000000 svgShape"><rect width="4.66" height="49.76" x="1137.31" y="1545.26" fill="#70aeed" class="color70beed svgShape"></rect></g></g></g></g></g><g fill="#000000" class="color000000 svgShape"><g fill="#000000" class="color000000 svgShape"><g fill="#000000" class="color000000 svgShape"><path fill="#7fb9f4" d="M1125.23,1536.05H767.26c-8.03,0-14.54-6.51-14.54-14.54v-39.11c0-8.03,6.51-14.54,14.54-14.54h357.97
							c8.03,0,14.54,6.51,14.54,14.54v39.11C1139.77,1529.54,1133.26,1536.05,1125.23,1536.05z" class="color7fc8f4 svgShape"></path></g></g><g fill="#000000" class="color000000 svgShape"><g fill="#000000" class="color000000 svgShape"><g fill="#000000" class="color000000 svgShape"><g fill="#000000" class="color000000 svgShape"><rect width="4.66" height="49.76" x="776.16" y="1477.08" fill="#70aeed" class="color70beed svgShape"></rect></g></g></g><g fill="#000000" class="color000000 svgShape"><g fill="#000000" class="color000000 svgShape"><g fill="#000000" class="color000000 svgShape"><rect width="4.66" height="49.76" x="804.12" y="1477.08" fill="#70aeed" class="color70beed svgShape"></rect></g></g></g><g fill="#000000" class="color000000 svgShape"><g fill="#000000" class="color000000 svgShape"><g fill="#000000" class="color000000 svgShape"><rect width="4.66" height="49.76" x="832.08" y="1477.08" fill="#70aeed" class="color70beed svgShape"></rect></g></g></g><g fill="#000000" class="color000000 svgShape"><g fill="#000000" class="color000000 svgShape"><g fill="#000000" class="color000000 svgShape"><rect width="4.66" height="49.76" x="860.04" y="1477.08" fill="#70aeed" class="color70beed svgShape"></rect></g></g></g><g fill="#000000" class="color000000 svgShape"><g fill="#000000" class="color000000 svgShape"><g fill="#000000" class="color000000 svgShape"><rect width="4.66" height="49.76" x="888" y="1477.08" fill="#70aeed" class="color70beed svgShape"></rect></g></g></g><g fill="#000000" class="color000000 svgShape"><g fill="#000000" class="color000000 svgShape"><g fill="#000000" class="color000000 svgShape"><rect width="4.66" height="49.76" x="915.96" y="1477.08" fill="#70aeed" class="color70beed svgShape"></rect></g></g></g><g fill="#000000" class="color000000 svgShape"><g fill="#000000" class="color000000 svgShape"><g fill="#000000" class="color000000 svgShape"><rect width="4.66" height="49.76" x="943.92" y="1477.08" fill="#70aeed" class="color70beed svgShape"></rect></g></g></g><g fill="#000000" class="color000000 svgShape"><g fill="#000000" class="color000000 svgShape"><g fill="#000000" class="color000000 svgShape"><rect width="4.66" height="49.76" x="971.88" y="1477.08" fill="#70aeed" class="color70beed svgShape"></rect></g></g></g><g fill="#000000" class="color000000 svgShape"><g fill="#000000" class="color000000 svgShape"><g fill="#000000" class="color000000 svgShape"><rect width="4.66" height="49.76" x="999.84" y="1477.08" fill="#70aeed" class="color70beed svgShape"></rect></g></g></g><g fill="#000000" class="color000000 svgShape"><g fill="#000000" class="color000000 svgShape"><g fill="#000000" class="color000000 svgShape"><rect width="4.66" height="49.76" x="1027.8" y="1477.08" fill="#70aeed" class="color70beed svgShape"></rect></g></g></g><g fill="#000000" class="color000000 svgShape"><g fill="#000000" class="color000000 svgShape"><g fill="#000000" class="color000000 svgShape"><rect width="4.66" height="49.76" x="1055.76" y="1477.08" fill="#70aeed" class="color70beed svgShape"></rect></g></g></g><g fill="#000000" class="color000000 svgShape"><g fill="#000000" class="color000000 svgShape"><g fill="#000000" class="color000000 svgShape"><rect width="4.66" height="49.76" x="1083.72" y="1477.08" fill="#70aeed" class="color70beed svgShape"></rect></g></g></g><g fill="#000000" class="color000000 svgShape"><g fill="#000000" class="color000000 svgShape"><g fill="#000000" class="color000000 svgShape"><rect width="4.66" height="49.76" x="1111.68" y="1477.08" fill="#70aeed" class="color70beed svgShape"></rect></g></g></g></g></g><g fill="#000000" class="color000000 svgShape"><g fill="#000000" class="color000000 svgShape"><g fill="#000000" class="color000000 svgShape"><path fill="#7fb9f4" d="M1133.7,1467.87H775.74c-8.03,0-14.54-6.51-14.54-14.54v-39.11c0-8.03,6.51-14.54,14.54-14.54h357.97
							c8.03,0,14.54,6.51,14.54,14.54v39.11C1148.24,1461.36,1141.73,1467.87,1133.7,1467.87z" class="color7fc8f4 svgShape"></path></g></g><g fill="#000000" class="color000000 svgShape"><g fill="#000000" class="color000000 svgShape"><g fill="#000000" class="color000000 svgShape"><g fill="#000000" class="color000000 svgShape"><rect width="4.66" height="49.76" x="784.63" y="1408.9" fill="#70aeed" class="color70beed svgShape"></rect></g></g></g><g fill="#000000" class="color000000 svgShape"><g fill="#000000" class="color000000 svgShape"><g fill="#000000" class="color000000 svgShape"><rect width="4.66" height="49.76" x="812.59" y="1408.9" fill="#70aeed" class="color70beed svgShape"></rect></g></g></g><g fill="#000000" class="color000000 svgShape"><g fill="#000000" class="color000000 svgShape"><g fill="#000000" class="color000000 svgShape"><rect width="4.66" height="49.76" x="840.55" y="1408.9" fill="#70aeed" class="color70beed svgShape"></rect></g></g></g><g fill="#000000" class="color000000 svgShape"><g fill="#000000" class="color000000 svgShape"><g fill="#000000" class="color000000 svgShape"><rect width="4.66" height="49.76" x="868.51" y="1408.9" fill="#70aeed" class="color70beed svgShape"></rect></g></g></g><g fill="#000000" class="color000000 svgShape"><g fill="#000000" class="color000000 svgShape"><g fill="#000000" class="color000000 svgShape"><rect width="4.66" height="49.76" x="896.47" y="1408.9" fill="#70aeed" class="color70beed svgShape"></rect></g></g></g><g fill="#000000" class="color000000 svgShape"><g fill="#000000" class="color000000 svgShape"><g fill="#000000" class="color000000 svgShape"><rect width="4.66" height="49.76" x="924.43" y="1408.9" fill="#70aeed" class="color70beed svgShape"></rect></g></g></g><g fill="#000000" class="color000000 svgShape"><g fill="#000000" class="color000000 svgShape"><g fill="#000000" class="color000000 svgShape"><rect width="4.66" height="49.76" x="952.39" y="1408.9" fill="#70aeed" class="color70beed svgShape"></rect></g></g></g><g fill="#000000" class="color000000 svgShape"><g fill="#000000" class="color000000 svgShape"><g fill="#000000" class="color000000 svgShape"><rect width="4.66" height="49.76" x="980.35" y="1408.9" fill="#70aeed" class="color70beed svgShape"></rect></g></g></g><g fill="#000000" class="color000000 svgShape"><g fill="#000000" class="color000000 svgShape"><g fill="#000000" class="color000000 svgShape"><rect width="4.66" height="49.76" x="1008.32" y="1408.9" fill="#70aeed" class="color70beed svgShape"></rect></g></g></g><g fill="#000000" class="color000000 svgShape"><g fill="#000000" class="color000000 svgShape"><g fill="#000000" class="color000000 svgShape"><rect width="4.66" height="49.76" x="1036.27" y="1408.9" fill="#70aeed" class="color70beed svgShape"></rect></g></g></g><g fill="#000000" class="color000000 svgShape"><g fill="#000000" class="color000000 svgShape"><g fill="#000000" class="color000000 svgShape"><rect width="4.66" height="49.76" x="1064.23" y="1408.9" fill="#70aeed" class="color70beed svgShape"></rect></g></g></g><g fill="#000000" class="color000000 svgShape"><g fill="#000000" class="color000000 svgShape"><g fill="#000000" class="color000000 svgShape"><rect width="4.66" height="49.76" x="1092.19" y="1408.9" fill="#70aeed" class="color70beed svgShape"></rect></g></g></g><g fill="#000000" class="color000000 svgShape"><g fill="#000000" class="color000000 svgShape"><g fill="#000000" class="color000000 svgShape"><rect width="4.66" height="49.76" x="1120.15" y="1408.9" fill="#70aeed" class="color70beed svgShape"></rect></g></g></g></g></g><g fill="#000000" class="color000000 svgShape"><g fill="#000000" class="color000000 svgShape"><g fill="#000000" class="color000000 svgShape"><path fill="#7fb9f4" d="M1114.27,1399.69H756.31c-8.03,0-14.54-6.51-14.54-14.54v-39.11c0-8.03,6.51-14.54,14.54-14.54h357.97
							c8.03,0,14.54,6.51,14.54,14.54v39.11C1128.81,1393.18,1122.3,1399.69,1114.27,1399.69z" class="color7fc8f4 svgShape"></path></g></g><g fill="#000000" class="color000000 svgShape"><g fill="#000000" class="color000000 svgShape"><g fill="#000000" class="color000000 svgShape"><g fill="#000000" class="color000000 svgShape"><rect width="4.66" height="49.76" x="765.2" y="1340.72" fill="#70aeed" class="color70beed svgShape"></rect></g></g></g><g fill="#000000" class="color000000 svgShape"><g fill="#000000" class="color000000 svgShape"><g fill="#000000" class="color000000 svgShape"><rect width="4.66" height="49.76" x="793.16" y="1340.72" fill="#70aeed" class="color70beed svgShape"></rect></g></g></g><g fill="#000000" class="color000000 svgShape"><g fill="#000000" class="color000000 svgShape"><g fill="#000000" class="color000000 svgShape"><rect width="4.66" height="49.76" x="821.12" y="1340.72" fill="#70aeed" class="color70beed svgShape"></rect></g></g></g><g fill="#000000" class="color000000 svgShape"><g fill="#000000" class="color000000 svgShape"><g fill="#000000" class="color000000 svgShape"><rect width="4.66" height="49.76" x="849.08" y="1340.72" fill="#70aeed" class="color70beed svgShape"></rect></g></g></g><g fill="#000000" class="color000000 svgShape"><g fill="#000000" class="color000000 svgShape"><g fill="#000000" class="color000000 svgShape"><rect width="4.66" height="49.76" x="877.04" y="1340.72" fill="#70aeed" class="color70beed svgShape"></rect></g></g></g><g fill="#000000" class="color000000 svgShape"><g fill="#000000" class="color000000 svgShape"><g fill="#000000" class="color000000 svgShape"><rect width="4.66" height="49.76" x="905" y="1340.72" fill="#70aeed" class="color70beed svgShape"></rect></g></g></g><g fill="#000000" class="color000000 svgShape"><g fill="#000000" class="color000000 svgShape"><g fill="#000000" class="color000000 svgShape"><rect width="4.66" height="49.76" x="932.96" y="1340.72" fill="#70aeed" class="color70beed svgShape"></rect></g></g></g><g fill="#000000" class="color000000 svgShape"><g fill="#000000" class="color000000 svgShape"><g fill="#000000" class="color000000 svgShape"><rect width="4.66" height="49.76" x="960.92" y="1340.72" fill="#70aeed" class="color70beed svgShape"></rect></g></g></g><g fill="#000000" class="color000000 svgShape"><g fill="#000000" class="color000000 svgShape"><g fill="#000000" class="color000000 svgShape"><rect width="4.66" height="49.76" x="988.88" y="1340.72" fill="#70aeed" class="color70beed svgShape"></rect></g></g></g><g fill="#000000" class="color000000 svgShape"><g fill="#000000" class="color000000 svgShape"><g fill="#000000" class="color000000 svgShape"><rect width="4.66" height="49.76" x="1016.84" y="1340.72" fill="#70aeed" class="color70beed svgShape"></rect></g></g></g><g fill="#000000" class="color000000 svgShape"><g fill="#000000" class="color000000 svgShape"><g fill="#000000" class="color000000 svgShape"><rect width="4.66" height="49.76" x="1044.8" y="1340.72" fill="#70aeed" class="color70beed svgShape"></rect></g></g></g><g fill="#000000" class="color000000 svgShape"><g fill="#000000" class="color000000 svgShape"><g fill="#000000" class="color000000 svgShape"><rect width="4.66" height="49.76" x="1072.76" y="1340.72" fill="#70aeed" class="color70beed svgShape"></rect></g></g></g><g fill="#000000" class="color000000 svgShape"><g fill="#000000" class="color000000 svgShape"><g fill="#000000" class="color000000 svgShape"><rect width="4.66" height="49.76" x="1100.72" y="1340.72" fill="#70aeed" class="color70beed svgShape"></rect></g></g></g></g></g><g fill="#000000" class="color000000 svgShape"><g fill="#000000" class="color000000 svgShape"><g fill="#000000" class="color000000 svgShape"><path fill="#7fb9f4" d="M1139.9,1331.51H781.94c-8.03,0-14.54-6.51-14.54-14.54v-39.11c0-8.03,6.51-14.54,14.54-14.54h357.97
							c8.03,0,14.54,6.51,14.54,14.54v39.11C1154.44,1325,1147.93,1331.51,1139.9,1331.51z" class="color7fc8f4 svgShape"></path></g></g><g fill="#000000" class="color000000 svgShape"><g fill="#000000" class="color000000 svgShape"><g fill="#000000" class="color000000 svgShape"><g fill="#000000" class="color000000 svgShape"><rect width="4.66" height="49.76" x="790.83" y="1272.54" fill="#70aeed" class="color70beed svgShape"></rect></g></g></g><g fill="#000000" class="color000000 svgShape"><g fill="#000000" class="color000000 svgShape"><g fill="#000000" class="color000000 svgShape"><rect width="4.66" height="49.76" x="818.79" y="1272.54" fill="#70aeed" class="color70beed svgShape"></rect></g></g></g><g fill="#000000" class="color000000 svgShape"><g fill="#000000" class="color000000 svgShape"><g fill="#000000" class="color000000 svgShape"><rect width="4.66" height="49.76" x="846.75" y="1272.54" fill="#70aeed" class="color70beed svgShape"></rect></g></g></g><g fill="#000000" class="color000000 svgShape"><g fill="#000000" class="color000000 svgShape"><g fill="#000000" class="color000000 svgShape"><rect width="4.66" height="49.76" x="874.72" y="1272.54" fill="#70aeed" class="color70beed svgShape"></rect></g></g></g><g fill="#000000" class="color000000 svgShape"><g fill="#000000" class="color000000 svgShape"><g fill="#000000" class="color000000 svgShape"><rect width="4.66" height="49.76" x="902.67" y="1272.54" fill="#70aeed" class="color70beed svgShape"></rect></g></g></g><g fill="#000000" class="color000000 svgShape"><g fill="#000000" class="color000000 svgShape"><g fill="#000000" class="color000000 svgShape"><rect width="4.66" height="49.76" x="930.63" y="1272.54" fill="#70aeed" class="color70beed svgShape"></rect></g></g></g><g fill="#000000" class="color000000 svgShape"><g fill="#000000" class="color000000 svgShape"><g fill="#000000" class="color000000 svgShape"><rect width="4.66" height="49.76" x="958.59" y="1272.54" fill="#70aeed" class="color70beed svgShape"></rect></g></g></g><g fill="#000000" class="color000000 svgShape"><g fill="#000000" class="color000000 svgShape"><g fill="#000000" class="color000000 svgShape"><rect width="4.66" height="49.76" x="986.55" y="1272.54" fill="#70aeed" class="color70beed svgShape"></rect></g></g></g><g fill="#000000" class="color000000 svgShape"><g fill="#000000" class="color000000 svgShape"><g fill="#000000" class="color000000 svgShape"><rect width="4.66" height="49.76" x="1014.52" y="1272.54" fill="#70aeed" class="color70beed svgShape"></rect></g></g></g><g fill="#000000" class="color000000 svgShape"><g fill="#000000" class="color000000 svgShape"><g fill="#000000" class="color000000 svgShape"><rect width="4.66" height="49.76" x="1042.47" y="1272.54" fill="#70aeed" class="color70beed svgShape"></rect></g></g></g><g fill="#000000" class="color000000 svgShape"><g fill="#000000" class="color000000 svgShape"><g fill="#000000" class="color000000 svgShape"><rect width="4.66" height="49.76" x="1070.43" y="1272.54" fill="#70aeed" class="color70beed svgShape"></rect></g></g></g><g fill="#000000" class="color000000 svgShape"><g fill="#000000" class="color000000 svgShape"><g fill="#000000" class="color000000 svgShape"><rect width="4.66" height="49.76" x="1098.39" y="1272.54" fill="#70aeed" class="color70beed svgShape"></rect></g></g></g><g fill="#000000" class="color000000 svgShape"><g fill="#000000" class="color000000 svgShape"><g fill="#000000" class="color000000 svgShape"><rect width="4.66" height="49.76" x="1126.35" y="1272.54" fill="#70aeed" class="color70beed svgShape"></rect></g></g></g></g></g></g><g fill="#000000" class="color000000 svgShape"><g fill="#000000" class="color000000 svgShape"><g fill="#000000" class="color000000 svgShape"><path fill="#70aeed" d="M951.54,1595.32c-22.62,100.35-122.25,163.33-222.6,140.72c-30.31-6.83-57.16-20.71-79.38-39.49
						c-0.35-0.29-0.64-0.56-0.99-0.85c-8.36-7.14-15.95-14.95-22.78-23.34l-0.05-0.08c-7.17-8.75-13.57-18.15-18.94-28.09
						c-0.2-0.32-0.39-0.71-0.53-1.02c-10.94-19.98-18.18-41.9-21.16-64.94c-0.18-1.36-0.34-2.78-0.44-4.19
						c-2.2-19.74-1.13-40.14,3.49-60.63c22.62-100.35,122.4-163.37,222.68-140.77c7.05,1.59,13.94,3.56,20.54,5.94
						c1.35,0.44,2.64,0.87,3.98,1.38c21.98,8.14,41.68,20.27,58.42,35.39c0.3,0.21,0.59,0.48,0.87,0.75
						c8.47,7.59,16.22,15.91,23.06,24.86l0.05,0.08c6.69,8.71,12.46,17.83,17.39,27.6c0.19,0.39,0.38,0.78,0.57,1.17
						C954.91,1507.25,961.49,1551.17,951.54,1595.32z" class="color70beed svgShape"></path></g></g><g fill="#000000" class="color000000 svgShape"><g fill="#000000" class="color000000 svgShape"><path fill="#9cc9f7" d="M744.96,1698.24c-86.32-19.45-140.47-105.12-121.01-191.44c5.15-22.86,15-43.49,28.32-61.12
						c-18.49,20-32.15,44.96-38.58,73.49c-19.44,86.25,34.7,171.98,121.01,191.44c63.39,14.29,126.45-11.17,163.12-59.89
						C860.28,1691.28,802.74,1711.27,744.96,1698.24z" class="color9cb4f7 svgShape"></path></g></g><g fill="#000000" class="color000000 svgShape"><g fill="#000000" class="color000000 svgShape"><path fill="#f4f6f9" d="M733.3,1661.32l5.89-26.11l-0.54-0.2c-28.09-10.3-42.21-30.94-38.84-56.72l34.6,7.8
						c0.17,14.04,9.02,24.36,23.76,27.68c22,4.96,28.06-6.65,29.72-14c2.95-13.08-2.81-20.69-24.64-32.61
						c-42.41-23.27-47.91-42.21-43.12-63.47c5.38-23.89,26.29-37.6,54.56-35.8l0.56,0.03l5.92-26.26l24.99,5.63l-5.9,26.17l0.54,0.2
						c33.19,12.21,37.9,35.42,35.86,53.02l-34.64-7.81c-0.23-7.08-1.1-19.55-20.76-23.98c-19.93-4.49-24.58,8.93-25.53,13.15
						c-2.65,11.75,3.1,18.28,28,31.76c34.69,18.66,45.83,36.5,39.72,63.63c-6.13,27.18-26.9,40.49-58.5,37.49l-0.57-0.05
						l-5.89,26.12L733.3,1661.32z" class="colorf4f5f9 svgShape"></path></g></g><g fill="#000000" class="color000000 svgShape"><g fill="#000000" class="color000000 svgShape"><g fill="#000000" class="color000000 svgShape"><path fill="#f4f6f9" d="M734.51,1711.18c-86.47-19.49-140.96-105.69-121.47-192.16c6.22-27.58,19.61-53.09,38.73-73.77
							c38.86-42.04,97.65-60.34,153.45-47.76c86.47,19.49,140.95,105.72,121.46,192.22c-5.06,22.45-14.62,43.09-28.42,61.36
							C860.32,1701.45,796.04,1725.05,734.51,1711.18z M803.04,1407.1c-52.37-11.8-107.57,5.38-144.04,44.84
							c-17.95,19.4-30.51,43.35-36.35,69.24c-18.29,81.17,32.86,162.08,114.02,180.38c57.77,13.02,118.1-9.13,153.7-56.43
							c12.96-17.15,21.93-36.52,26.68-57.59C935.35,1506.34,884.21,1425.4,803.04,1407.1z" class="colorf4f5f9 svgShape"></path></g></g></g></g></g><g fill="#000000" class="color000000 svgShape"><g fill="#000000" class="color000000 svgShape"><g fill="#000000" class="color000000 svgShape"><path fill="#a6cff9" d="M1682.52,1712.7c-282.03-123.1-464.29-406.47-464.29-721.87V754.29l510.82-196.26l510.83,196.26v236.53
					c0,315.41-182.27,598.77-464.34,721.89l-46.48,20.33L1682.52,1712.7z" class="colora6d8f9 svgShape"></path></g></g><g fill="#000000" class="color000000 svgShape"><g fill="#000000" class="color000000 svgShape"><path fill="#70aeed" d="M1709.97,1649.9c-257.09-112.22-423.21-370.92-423.21-659.08V801.38l442.3-169.93l442.3,169.93v189.44
					c0,288.16-166.12,546.87-423.22,659.08l-19.08,8.34L1709.97,1649.9z" class="color70beed svgShape"></path></g></g><g fill="#000000" class="color000000 svgShape"><g fill="#000000" class="color000000 svgShape"><path fill="#a6cff9" d="M1740.47,699.16L2112.24,842v148.82c0,258.61-145.34,491.24-371.77,597.66V699.16z" class="colora6d8f9 svgShape"></path></g></g><g fill="#000000" class="color000000 svgShape"><g fill="#000000" class="color000000 svgShape"><path fill="#7fb9f4" d="M1533.68,1420.96c-6.99,0-13.57-3.02-18.04-8.28c-98.97-116.09-153.46-265.91-153.46-421.85V854.69
					l324.35-124.62c2.77-1.06,5.67-1.61,8.61-1.61c9.88,0,18.89,6.2,22.44,15.42c4.74,12.37-1.44,26.3-13.8,31.04l-293.54,112.77
					v103.14c0,144.35,50.32,282.97,141.67,390.34c8.35,9.81,7.68,24.36-1.51,33.12C1545.87,1418.58,1539.94,1420.96,1533.68,1420.96
					C1533.68,1420.96,1533.69,1420.96,1533.68,1420.96z" class="color7fc8f4 svgShape"></path></g></g><g fill="#000000" class="color000000 svgShape"><g fill="#000000" class="color000000 svgShape"><path fill="#ffffff" d="M1850.14,1042.67v-50.49c0-61.09-49.69-110.78-110.77-110.78h-29.47c-61.08,0-110.77,49.69-110.77,110.78
					v50.49c-21.67,3.66-38.2,22.47-38.2,45.19v203.22c0,25.34,20.54,45.89,45.88,45.89h235.64c25.34,0,45.89-20.54,45.89-45.89
					v-203.22C1888.34,1065.15,1871.82,1046.34,1850.14,1042.67z M1744.67,1183.27v60.69c0,11.06-8.97,20.03-20.03,20.03
					s-20.03-8.97-20.03-20.03v-60.69c-13.25-7.14-22.26-21.14-22.26-37.25c0-23.36,18.93-42.29,42.29-42.29
					c23.36,0,42.29,18.93,42.29,42.29C1766.93,1162.12,1757.92,1176.12,1744.67,1183.27z M1806.49,1041.98h-163.7v-49.79
					c0-37.01,30.11-67.13,67.12-67.13h29.47c37.01,0,67.12,30.12,67.12,67.13V1041.98z" class="colorffffff svgShape"></path></g></g></g><g fill="#000000" class="color000000 svgShape"><g fill="#000000" class="color000000 svgShape"><g fill="#000000" class="color000000 svgShape"><g fill="#000000" class="color000000 svgShape"><path fill="#021b79" d="M1013.73,844.35c1.53,0.16,3.02,0.11,4.34-0.21c4.79-1.19,5.32-8.39,8.63-11.65
						c7.53-7.41,14.77-9.27,24.94-9.35c12.37-0.11,23.74-2.44,31.07-9.69c10.65-10.54,16.15-37.15,6.84-50.46
						c-4.83-6.91-7.31-11.06-10.5-17.92c-8.75-18.79-39.66-26.26-61.1-20.35c-10.86,2.99-20.88,8.77-28.93,16.37
						c-10.47,9.89-22.44,25.86-22.38,40.65c0.03,7.61,2.69,15.17,3.95,22.64c1.08,6.36,0.13,13.56,4.14,19.14
						c4.11,5.72,11.75,7.57,18.05,10.89c3.98,2.1,7.54,4.89,11.51,7C1006.71,842.7,1010.33,844.01,1013.73,844.35z" class="color193368 svgShape"></path></g></g><g fill="#000000" class="color000000 svgShape"><g fill="#000000" class="color000000 svgShape"><path fill="#021b79" d="M973.8,728.81c1.2,10,9.43,19.09,17.76,24.43c7.37,4.73,21.59,6.48,29.31,1.66
						c11.84-7.38,9.47-28.2,3.96-38.51c-3.97-7.43-11.31-12.01-19.52-13.96C988.56,698.44,971.77,711.88,973.8,728.81z" class="color193368 svgShape"></path></g></g></g><g fill="#000000" class="color000000 svgShape"><g fill="#000000" class="color000000 svgShape"><g fill="#000000" class="color000000 svgShape"><g fill="#000000" class="color000000 svgShape"><g fill="#000000" class="color000000 svgShape"><g fill="#000000" class="color000000 svgShape"><g fill="#000000" class="color000000 svgShape"><g fill="#000000" class="color000000 svgShape"><g fill="#000000" class="color000000 svgShape"><path fill="#bddeff" d="M1299.16,1436.83l-25.25-52.57l39.48-14.93l21.7,47.13c2.96,6.51,6.95,9.89,12.22,12.6l36.16,18.17
												c8.68,4.47,5.2,17.6-4.55,17.19l-83.14-3.48L1299.16,1436.83z" class="colorffc5bd svgShape"></path></g></g></g></g></g></g></g></g><g fill="#000000" class="color000000 svgShape"><g fill="#000000" class="color000000 svgShape"><g fill="#000000" class="color000000 svgShape"><g fill="#000000" class="color000000 svgShape"><g fill="#000000" class="color000000 svgShape"><g fill="#000000" class="color000000 svgShape"><g fill="#000000" class="color000000 svgShape"><g fill="#000000" class="color000000 svgShape"><g fill="#000000" class="color000000 svgShape"><path fill="#021b79" d="M1294.4,1462.11c-0.16,1.56-0.03,2.95,0.37,4.36c1.2,4.48,5.21,7.88,10.1,8.09l118.39,4.95
													c3.5,0.15,6.49-2.78,6.65-6.65c0.01-0.28,0.02-0.55-0.06-0.74c-0.08-2.41-1.38-4.58-3.55-5.69l-51.19-23.94
													c-25.03,7.08-49.63,5.88-75.55-2.63c-0.94-0.31-1.94,0.28-2.08,1.26L1294.4,1462.11z" class="color193368 svgShape"></path></g></g></g></g></g></g></g></g><g fill="#000000" class="color000000 svgShape"><g fill="#000000" class="color000000 svgShape"><g fill="#000000" class="color000000 svgShape"><g fill="#000000" class="color000000 svgShape"><g fill="#000000" class="color000000 svgShape"><g fill="#000000" class="color000000 svgShape"><path fill="#192c72" d="M1294.77,1466.46c1.2,4.48,5.21,7.88,10.1,8.09l118.39,4.95c3.5,0.15,6.49-2.78,6.65-6.65
											c0.01-0.28,0.02-0.55-0.06-0.74L1294.77,1466.46z" class="color193972 svgShape"></path></g></g></g></g></g></g></g></g><g fill="#000000" class="color000000 svgShape"><g fill="#000000" class="color000000 svgShape"><g fill="#000000" class="color000000 svgShape"><g fill="#000000" class="color000000 svgShape"><path fill="#192c72" d="M1080.69,1493.77l-2.2-1.69l-3.31,7c-1.65,3.48-1.7,7.49-0.15,11.02c7.53,17.15,27.45,53.7,36.48,65.46
							c6.31,8.21,15.2,12.93,24.39,12.93c0.08,0,0.17,0,0.25,0c14.82,0,16.18-18.42,11.64-31.31L1080.69,1493.77z" class="color193972 svgShape"></path></g></g><g fill="#000000" class="color000000 svgShape"><g fill="#000000" class="color000000 svgShape"><path fill="#021b79" d="M1114.44,1481.43l-25.24-5.72c-3.45-0.39-10.71,9.07-11.63,22.69c0,0,28.2,58.21,39.48,72.91
							c12.73,16.59,31.99,12.02,31.44-6.58c-0.57-19.42-13.17-51.57-14.84-60.48L1114.44,1481.43z" class="color193368 svgShape"></path></g></g><g fill="#000000" class="color000000 svgShape"><g fill="#000000" class="color000000 svgShape"><g fill="#000000" class="color000000 svgShape"><g fill="#000000" class="color000000 svgShape"><g fill="#000000" class="color000000 svgShape"><g fill="#000000" class="color000000 svgShape"><g fill="#000000" class="color000000 svgShape"><path fill="#bddeff" d="M1128.56,1482.99l9.38-48.83l-37-9.84l-11.74,54.49c4.23,21.83,21.36,56.19,29.34,64.62
												c8.54,9.02,21.15,4.94,21.15-4.55C1139.69,1531.06,1134.26,1505.48,1128.56,1482.99z" class="colorffc5bd svgShape"></path></g></g></g></g></g></g></g></g></g><g fill="#000000" class="color000000 svgShape"><g fill="#000000" class="color000000 svgShape"><g fill="#000000" class="color000000 svgShape"><g fill="#000000" class="color000000 svgShape"><g fill="#000000" class="color000000 svgShape"><g fill="#000000" class="color000000 svgShape"><g fill="#000000" class="color000000 svgShape"><g fill="#000000" class="color000000 svgShape"><circle cx="1053.63" cy="916.61" r="31.47" fill="#bddeff" class="colorffc5bd svgShape"></circle></g></g></g></g></g></g></g><g fill="#000000" class="color000000 svgShape"><g fill="#000000" class="color000000 svgShape"><g fill="#000000" class="color000000 svgShape"><g fill="#000000" class="color000000 svgShape"><g fill="#000000" class="color000000 svgShape"><g fill="#000000" class="color000000 svgShape"><g fill="#000000" class="color000000 svgShape"><circle cx="1103.92" cy="1067.26" r="22.25" fill="#bddeff" class="colorffc5bd svgShape"></circle></g></g></g></g></g></g></g><g fill="#000000" class="color000000 svgShape"><g fill="#000000" class="color000000 svgShape"><g fill="#000000" class="color000000 svgShape"><g fill="#000000" class="color000000 svgShape"><g fill="#000000" class="color000000 svgShape"><g fill="#000000" class="color000000 svgShape"><g fill="#000000" class="color000000 svgShape"><path fill="#bddeff" d="M1083.48,906.65l0.23,1.08c10.83,51.58,24.63,102.49,41.32,152.49v0l-42.21,14.09l-0.23-0.48
											c-22.34-47.73-41.92-96.71-58.62-146.7l-0.18-0.54L1083.48,906.65z" class="colorffc5bd svgShape"></path></g></g></g></g></g></g></g></g><g fill="#000000" class="color000000 svgShape"><g fill="#000000" class="color000000 svgShape"><path fill="#bddeff" d="M1296.88,1427.91c-17.13-31.13-37.15-63.35-62.9-101.24c-13.74-20.22-24.5-42.75-34.9-64.54
					c-5.78-12.11-11.75-24.62-18.18-36.65c-5.19-9.69-11.14-19.07-16.9-28.14c-6.88-10.85-13.99-22.05-19.76-33.76
					c5.55-2.68,23.4-11.29,23.65-11.41c8.07-3.89,16.29-6.3,24.45-7.15c1.13-0.12,2.25-0.21,3.34-0.27
					c17.61-1.02,28.95,5.17,36.77,20.09c9.43,18,17.47,37.12,25.24,55.62l3.85,9.15c13.73,32.5,64.5,169.53,70.89,186.81
					L1296.88,1427.91z" class="colorffc5bd svgShape"></path></g></g><g fill="#000000" class="color000000 svgShape"><g fill="#000000" class="color000000 svgShape"><path fill="#bddeff" d="M1193.51,1264.28l-10.29,38.43l-9.02,33.24c-7.19,26.68-23.31,78.31-33.78,111l-39.61-6.83
					c4.19-31.96,6.92-64.11,9.74-95.52l2.19-24.86c1-10.75,2.46-22.04,4.19-33.69c1.73-11.2,3.64-22.49,5.74-33.6l1.37-7.74
					c2.19-12.29,4.46-24.95,8.47-37.15c0.36-1.09,0.73-2.19,1.18-3.28c14.48,5.28,28.5,10.56,41.89,17.67
					c5.46,2.91,11.56,6.74,15.03,13.39C1195.06,1244.16,1194.33,1253.9,1193.51,1264.28z" class="colorffc5bd svgShape"></path></g></g><g fill="#000000" class="color000000 svgShape"><g fill="#000000" class="color000000 svgShape"><g fill="#000000" class="color000000 svgShape"><path fill="#192c72" d="M965.07,1248.72c37.65,5.77,111.08,18.8,147.45,30.48c8.91,2.86,35.65,11.37,35.65,11.37l42.1-27.16
						c1.46-10.68,2.92-20.81-1.1-30.49c-2.85-6.86-8.14-11.3-14.22-15.16c-12.88-8.29-25.52-16.97-39.83-22.17
						c-5.18-1.88-9.48-3.11-14.35-4.99c-11.59-4.46-66.76-24.48-66.76-24.48l2.68-32.55c0,0-113.24-6.09-137.71-8.13l-2.43,15.61
						C906.87,1180.87,924.38,1242.49,965.07,1248.72z" class="color193972 svgShape"></path></g></g></g><g fill="#000000" class="color000000 svgShape"><g fill="#000000" class="color000000 svgShape"><g fill="#000000" class="color000000 svgShape"><path fill="#192c72" d="M1332.14,1393.63c-16.74-45.06-66.55-176.59-66.55-176.59c-7.83-18.64-15.92-37.91-25.52-56.21
						c-8.73-16.65-22.05-24.77-40.72-24.8c-2.54,0-5.17,0.14-7.91,0.43c-9.14,0.96-18.31,3.63-27.28,7.95l-31.41,15.15
						c0,0,35.51,60.57,40.55,69.98c6.34,11.85,89.73,159.99,104.04,184.52L1332.14,1393.63z" class="color193972 svgShape"></path></g></g></g><g fill="#000000" class="color000000 svgShape"><g fill="#000000" class="color000000 svgShape"><g fill="#000000" class="color000000 svgShape"><path fill="#192c72" d="M1194.78,1231.44c-4.54-8.86-12.37-13.8-18.69-17.12c-14.24-7.57-49.14-19.5-49.14-19.5
						s-37.45,219.58-42.16,253.82l56.58,12.69c10.21-32.06,29.97-94.48,37.72-123.2c5.36-19.88,10.7-39.68,16.07-59.58
						C1199.33,1263.09,1202.48,1246.49,1194.78,1231.44z" class="color193972 svgShape"></path></g></g></g><g fill="#000000" class="color000000 svgShape"><g fill="#000000" class="color000000 svgShape"><g fill="#000000" class="color000000 svgShape"><path fill="#192c72" d="M918.02,1244.27v0.03c13.06,15.79,31.66,26.89,53.36,29.64c22.53,2.85,46.89-3.59,68.4-9.45
						c1.89-0.52,3.78-1.07,5.63-1.65c0.06,0,0.09-0.03,0.15-0.03c18.6-5.79,35.65-14.43,53.91-21.36
						c16.28-6.18,30.21-11.75,47.6-17.67c10.34-3.53,36.77-8.48,48.65,7.67c0,0,10.37-7.31,15.04-6.25
						c0.99-6.38,5.2-86.47,5.2-86.47c-14.51-4.63-58.46-2.39-77.87-1.26c-36.64,2.1-81.15,5.31-118.5,8.09l-10.31-13.72
						l-106.9,14.85l-4.3,37.13C896.82,1206.24,904.37,1227.8,918.02,1244.27z" class="color193972 svgShape"></path></g></g></g><g fill="#000000" class="color000000 svgShape"><g fill="#000000" class="color000000 svgShape"><path fill="#021b79" d="M1199.22,1273.22c-0.17,0-0.34-0.02-0.51-0.06c-1.23-0.28-1.99-1.5-1.71-2.73
					c1.93-8.39,3.82-18.12,1.86-27.47c-2-9.46-7.51-16.03-15.5-18.5c-14.07-4.33-29.54,0.8-42.95,5.94l-89.3,34.1
					c-1.19,0.45-2.49-0.15-2.93-1.31c-0.45-1.17,0.14-2.49,1.32-2.94l89.29-34.1c14.11-5.42,30.49-10.8,45.92-6.04
					c9.64,2.97,16.25,10.76,18.6,21.91c2.06,9.77,0.32,19.92-1.88,29.44C1201.19,1272.51,1200.26,1273.22,1199.22,1273.22z" class="color193368 svgShape"></path></g></g><g fill="#000000" class="color000000 svgShape"><g fill="#000000" class="color000000 svgShape"><path fill="#021b79" d="M917.9,1244.27v0.03c12,16.44,31.8,27.59,53.51,30.34c22.55,2.85,47.5-2.74,68.35-10.15
					c1.85-0.66,3.78-1.07,5.64-1.65c-13.54,3.85-40.24,6.99-63.47,4.05C956.68,1263.69,936.08,1256.54,917.9,1244.27z" class="color193368 svgShape"></path></g></g><g fill="#000000" class="color000000 svgShape"><g fill="#000000" class="color000000 svgShape"><path fill="#83c1ff" d="M916.86,1160.86c28.73-19.78,103.72-15.37,159.46-19.36c-1.44-16.3-3.28-32.75-4.05-43.55
					c-1.95-27.3-1.12-43.63,2.3-67.35c1.15-7.95,8.14-36.95,10.46-48.69c3.59-18.13,1.71-36.18-4.92-53.43
					c-4.06-10.57-8.95-38.32-8.95-38.32c-6.88-6.1-21.44-14.97-29.66-18.02l-54.38-4.36c-35.94,8.12-68.35,24.01-77.81,64.44
					c-7.35,31.39-10.95,67.33-13.58,114.06c-2.01,35.7-0.56,94.24,2.24,135.1C900.23,1174.24,905.52,1168.67,916.86,1160.86z" class="colorffd683 svgShape"></path></g></g><g fill="#000000" class="color000000 svgShape"><g fill="#000000" class="color000000 svgShape"><g fill="#000000" class="color000000 svgShape"><path fill="#bddeff" d="M1048.1,889.98c-0.58,4.79-7.53,6.64-12.78,5.97c-15.48-1.83-37.42-10.06-49.12-21.64l12.56-90.73
						l49.53,10.94l-6.8,77.6C1045.97,877.49,1048.77,884.82,1048.1,889.98z" class="colorffc5bd svgShape"></path></g></g></g><g fill="#000000" class="color000000 svgShape"><g fill="#000000" class="color000000 svgShape"><g fill="#000000" class="color000000 svgShape"><g fill="#000000" class="color000000 svgShape"><g fill="#000000" class="color000000 svgShape"><g fill="#000000" class="color000000 svgShape"><path fill="#8fbfef" d="M1048.28,794.53l-6.8,77.6c-19.97-8.41-38.39-30.43-47.52-54.02l4.79-34.53L1048.28,794.53z" class="coloref9b8f svgShape"></path></g></g></g></g></g></g><g fill="#000000" class="color000000 svgShape"><g fill="#000000" class="color000000 svgShape"><g fill="#000000" class="color000000 svgShape"><g fill="#000000" class="color000000 svgShape"><g fill="#000000" class="color000000 svgShape"><path fill="#bddeff" d="M1031.17,730.92c30.2,2.22,50.27,21.08,49.91,42.36c-0.25,15.03-2.03,30-5.04,44.73
								c-2.84,13.93-7.45,28.6-18.24,38.07c-12.12,10.62-34.14,3.79-47.48-6.11c-24.81-18.42-34.82-46.06-33.06-72.18
								C979.09,750.72,997.23,728.42,1031.17,730.92z" class="colorffc5bd svgShape"></path></g></g></g></g></g><g fill="#000000" class="color000000 svgShape"><g fill="#000000" class="color000000 svgShape"><g fill="#000000" class="color000000 svgShape"><g fill="#000000" class="color000000 svgShape"><g fill="#000000" class="color000000 svgShape"><path fill="#021b79" d="M1084.28,779.46c2.26-22.12-14.8-42.36-41.25-49.06c-2.41-0.68-4.96-1.17-7.53-1.56
								c-16.68-2.48-31.38,1.24-42.51,10.64c-9.9,8.47-16.64,21.46-18.91,36.48c-2.6,17.82,3.11,41.77,17.93,55.37l0.74-9.6
								l2.4-24.63c26.99-1.14,50.34-9.87,65.07-24.89c5.28,6.3,15.24,12.78,23.15,15.33
								C1083.66,784.85,1083.97,782.16,1084.28,779.46z" class="color193368 svgShape"></path></g></g></g></g></g><g fill="#000000" class="color000000 svgShape"><g fill="#000000" class="color000000 svgShape"><g fill="#000000" class="color000000 svgShape"><g fill="#000000" class="color000000 svgShape"><g fill="#000000" class="color000000 svgShape"><path fill="#021b79" d="M997.22,792.58c5.41,5.23,9.22,12.15,11.41,19.35c6.26-5.14,9.12-14.07,7-21.89
								c-4.8-1.22-9.09-1.56-13.91-0.43c-0.59,0.14-1.19,0.3-1.67,0.68c-0.47,0.38-0.78,1.02-0.6,1.6
								C999.27,792.12,997.41,792.34,997.22,792.58z" class="color193368 svgShape"></path></g></g></g></g></g><g fill="#000000" class="color000000 svgShape"><g fill="#000000" class="color000000 svgShape"><g fill="#000000" class="color000000 svgShape"><g fill="#000000" class="color000000 svgShape"><g fill="#000000" class="color000000 svgShape"><ellipse cx="998.94" cy="809.04" fill="#bddeff" rx="13.18" ry="14.8" transform="rotate(-18.121 998.76 808.986)" class="colorffc5bd svgShape"></ellipse></g></g></g></g></g><g fill="#000000" class="color000000 svgShape"><g fill="#000000" class="color000000 svgShape"><g fill="#000000" class="color000000 svgShape"><g fill="#000000" class="color000000 svgShape"><path fill="#8fbfef" d="M1005.96,810.37c0.05,0.01,0.1,0.01,0.15,0.01c0.63,0,1.14-0.51,1.14-1.13c0-1.13-0.2-2.25-0.61-3.34
							c-1.36-3.64-4.9-6.14-8.41-5.95c-0.61,0.03-1.22,0.14-1.81,0.34c-1.16,0.39-2.21,1.1-3.02,2.05c-0.41,0.48-0.35,1.2,0.13,1.61
							c0.49,0.4,1.2,0.34,1.61-0.13c0.54-0.64,1.22-1.11,2.01-1.37c0.39-0.13,0.79-0.21,1.2-0.23c2.57-0.19,5.14,1.74,6.17,4.48
							c0.31,0.83,0.47,1.67,0.46,2.52C1004.97,809.82,1005.4,810.3,1005.96,810.37z" class="coloref9b8f svgShape"></path></g></g></g></g><g fill="#000000" class="color000000 svgShape"><g fill="#000000" class="color000000 svgShape"><g fill="#000000" class="color000000 svgShape"><g fill="#000000" class="color000000 svgShape"><g fill="#000000" class="color000000 svgShape"><g fill="#000000" class="color000000 svgShape"><path fill="#021b79" d="M1070.65,812.3c2.01-0.17,3.78,1.33,3.94,3.35c0.17,2.01-1.33,3.78-3.35,3.95
									c-2.01,0.17-3.78-1.33-3.94-3.35S1068.64,812.47,1070.65,812.3z" class="color193368 svgShape"></path></g></g></g></g></g><g fill="#000000" class="color000000 svgShape"><g fill="#000000" class="color000000 svgShape"><g fill="#000000" class="color000000 svgShape"><g fill="#000000" class="color000000 svgShape"><g fill="#000000" class="color000000 svgShape"><path fill="#021b79" d="M1044.84,808.12c2.01-0.17,3.78,1.33,3.95,3.35c0.16,2.01-1.33,3.78-3.35,3.95
									c-2.01,0.17-3.78-1.33-3.95-3.35C1041.33,810.05,1042.83,808.29,1044.84,808.12z" class="color193368 svgShape"></path></g></g></g></g></g><g fill="#000000" class="color000000 svgShape"><g fill="#000000" class="color000000 svgShape"><g fill="#000000" class="color000000 svgShape"><g fill="#000000" class="color000000 svgShape"><g fill="#000000" class="color000000 svgShape"><g fill="#000000" class="color000000 svgShape"><path fill="#021b79" d="M1035.68,795.46c0.29-0.73,1.33-1.01,2.25-1c4.28,0.03,8.38,1.17,12.32,2.71
										c1.39,0.54,5.21,1.68,4.3,3.52c-0.59,1.19-3.02,1.75-4.43,1.39c-3.15-0.81-6.27-1.69-9.37-2.65
										C1038.99,798.88,1034.71,797.86,1035.68,795.46z" class="color193368 svgShape"></path></g></g></g></g></g></g><g fill="#000000" class="color000000 svgShape"><g fill="#000000" class="color000000 svgShape"><g fill="#000000" class="color000000 svgShape"><g fill="#000000" class="color000000 svgShape"><g fill="#000000" class="color000000 svgShape"><g fill="#000000" class="color000000 svgShape"><path fill="#021b79" d="M1084.89,803.01c-0.08-0.78-0.99-1.34-1.88-1.59c-4.12-1.16-8.37-1.21-12.59-0.83
										c-1.48,0.13-5.47,0.16-5.11,2.18c0.24,1.31,2.42,2.52,3.87,2.56c3.25,0.1,6.49,0.12,9.73,0.06
										C1080.75,805.37,1085.15,805.59,1084.89,803.01z" class="color193368 svgShape"></path></g></g></g></g></g></g><g fill="#000000" class="color000000 svgShape"><g fill="#000000" class="color000000 svgShape"><g fill="#000000" class="color000000 svgShape"><g fill="#000000" class="color000000 svgShape"><path fill="#8fbfef" d="M1059.27,834.69c0.17,0.03,0.34,0.02,0.51-0.04c2.26-0.67,3.83-1.81,4.67-3.38
								c0.76-1.42,0.86-3.09,0.28-4.95c-0.32-1.02-0.83-2.32-1.41-3.77c-0.72-1.78-1.52-3.8-2.15-5.83
								c-0.19-0.6-0.82-0.92-1.42-0.75c-0.6,0.18-0.93,0.82-0.75,1.42c0.65,2.11,1.48,4.18,2.21,6c0.56,1.38,1.05,2.62,1.35,3.6
								c0.39,1.26,0.35,2.34-0.11,3.2c-0.54,1-1.68,1.78-3.31,2.27c-0.61,0.18-0.95,0.81-0.76,1.41
								C1058.49,834.33,1058.85,834.62,1059.27,834.69z" class="coloref9b8f svgShape"></path></g></g></g></g><g fill="#000000" class="color000000 svgShape"><g fill="#000000" class="color000000 svgShape"><g fill="#000000" class="color000000 svgShape"><g fill="#000000" class="color000000 svgShape"><path fill="#8fbfef" d="M1053.22,841.67c1.97,0,3.79-0.37,5.12-1.16c0.54-0.32,0.71-1.02,0.39-1.57
								c-0.32-0.54-1.01-0.71-1.57-0.39c-3.2,1.93-10.64,0.48-13.48-2.61c-0.43-0.47-1.15-0.5-1.61-0.08
								c-0.47,0.42-0.5,1.14-0.08,1.61C1044.39,840.08,1049.13,841.67,1053.22,841.67z" class="coloref9b8f svgShape"></path></g></g></g></g></g><g fill="#000000" class="color000000 svgShape"><g fill="#000000" class="color000000 svgShape"><g fill="#000000" class="color000000 svgShape"><g fill="#000000" class="color000000 svgShape"><g fill="#000000" class="color000000 svgShape"><g fill="#000000" class="color000000 svgShape"><g fill="#000000" class="color000000 svgShape"><g fill="#000000" class="color000000 svgShape"><circle cx="951.67" cy="915.29" r="31.47" fill="#bddeff" class="colorffc5bd svgShape"></circle></g></g></g></g></g></g></g><g fill="#000000" class="color000000 svgShape"><g fill="#000000" class="color000000 svgShape"><g fill="#000000" class="color000000 svgShape"><g fill="#000000" class="color000000 svgShape"><g fill="#000000" class="color000000 svgShape"><g fill="#000000" class="color000000 svgShape"><g fill="#000000" class="color000000 svgShape"><circle cx="901.97" cy="1066.13" r="22.25" fill="#bddeff" class="colorffc5bd svgShape"></circle></g></g></g></g></g></g></g><g fill="#000000" class="color000000 svgShape"><g fill="#000000" class="color000000 svgShape"><g fill="#000000" class="color000000 svgShape"><g fill="#000000" class="color000000 svgShape"><g fill="#000000" class="color000000 svgShape"><g fill="#000000" class="color000000 svgShape"><g fill="#000000" class="color000000 svgShape"><path fill="#bddeff" d="M981.56,925.14l-0.46,1c-22.14,47.83-41.5,96.9-57.99,146.96l0,0l-42.27-13.93l0.11-0.52
											c10.61-51.62,24.19-102.59,40.66-152.66l0.18-0.54L981.56,925.14z" class="colorffc5bd svgShape"></path></g></g></g></g></g></g></g></g><g fill="#000000" class="color000000 svgShape"><g fill="#000000" class="color000000 svgShape"><g fill="#000000" class="color000000 svgShape"><g fill="#000000" class="color000000 svgShape"><g fill="#000000" class="color000000 svgShape"><g fill="#000000" class="color000000 svgShape"><g fill="#000000" class="color000000 svgShape"><circle cx="1103.92" cy="1067.16" r="22.25" fill="#bddeff" class="colorffc5bd svgShape"></circle></g></g></g></g></g><g fill="#000000" class="color000000 svgShape"><g fill="#000000" class="color000000 svgShape"><g fill="#000000" class="color000000 svgShape"><g fill="#000000" class="color000000 svgShape"><g fill="#000000" class="color000000 svgShape"><circle cx="1137.42" cy="1119.02" r="16.17" fill="#bddeff" class="colorffc5bd svgShape"></circle></g></g></g></g></g><g fill="#000000" class="color000000 svgShape"><g fill="#000000" class="color000000 svgShape"><g fill="#000000" class="color000000 svgShape"><g fill="#000000" class="color000000 svgShape"><g fill="#000000" class="color000000 svgShape"><path fill="#bddeff" d="M1123.41,1056.43c6.99,15.72,16.74,37.2,28.17,54.8l-28.34,15.6c-13.41-15.22-26.9-31.64-38.82-48.93
										L1123.41,1056.43z" class="colorffc5bd svgShape"></path></g></g></g></g></g></g><g fill="#000000" class="color000000 svgShape"><g fill="#000000" class="color000000 svgShape"><g fill="#000000" class="color000000 svgShape"><g fill="#000000" class="color000000 svgShape"><path fill="#bddeff" d="M1169.49,1120.42c-0.34-0.05-0.67-0.07-1.01-0.07c-1.74-0.01-3.43,0.56-5.16,0.82s-3.65,0.15-4.96-1
								c-0.71-0.63-1.16-1.5-1.57-2.36c-1.24-2.57-2.32-5.22-3.23-7.92c5.01-0.32,10.02-0.64,15.03-0.96
								c0.91-0.06,1.87-0.11,2.71,0.24c7.63,3.13,14.48,11.16,19.94,17.21c0.85,0.94,1.75,2.17,1.33,3.37
								c-0.21,0.59-0.71,1.04-1.27,1.33c-1.56,0.83-3.5,0.63-5.12-0.08c-1.62-0.71-2.99-1.86-4.38-2.96
								C1178.43,1125.37,1174.03,1121.03,1169.49,1120.42z" class="colorffc5bd svgShape"></path></g></g></g><g fill="#000000" class="color000000 svgShape"><g fill="#000000" class="color000000 svgShape"><g fill="#000000" class="color000000 svgShape"><circle cx="1136.88" cy="1119.73" r="15.47" fill="#bddeff" class="colorffc5bd svgShape"></circle></g></g></g><g fill="#000000" class="color000000 svgShape"><g fill="#000000" class="color000000 svgShape"><g fill="#000000" class="color000000 svgShape"><path fill="#bddeff" d="M1130.05,1109.31c-3.61,2.27-6.64,5.51-8.56,9.33c-0.97,1.92-1.77,4.09-1.99,6.24
								c-0.22,2.12,1.3,3.14,3.11,3.98c2.85,1.33,5.71,2.66,8.69,3.66c2.92,0.99,5.98,1.67,9.05,1.53c4.09-0.18,8.1-1.84,11.12-4.61
								c1.34-1.23,2.48-2.67,3.89-3.82c1.4-1.16,3.16-2.04,4.97-1.87c1.54,0.14,2.93,1.03,4.04,2.11c1.11,1.08,2.02,2.35,3.05,3.5
								c1.39,1.56,3.08,2.93,5.07,3.57c1.99,0.64,4.33,0.44,5.96-0.87c0.3-0.24,0.58-0.53,0.71-0.89c0.25-0.74-0.2-1.51-0.64-2.16
								c-3.82-5.63-7.92-13.34-14.51-16.1c-3.26-1.37-6.3-1.81-9.23-3.88c-2.91-2.04-7-3.44-10.58-3.18
								C1136.29,1106.44,1133.8,1106.95,1130.05,1109.31z" class="colorffc5bd svgShape"></path></g></g></g><g fill="#000000" class="color000000 svgShape"><g fill="#000000" class="color000000 svgShape"><g fill="#000000" class="color000000 svgShape"><path fill="#bddeff" d="M1115.24,1130.08c0.49-0.48,1.01-0.89,1.57-1.14c1.43-0.63,3.08-0.2,4.55,0.31
								c1.47,0.52,3,1.14,4.54,0.87c1.94-0.33,3.42-2.05,4-3.94s0.42-3.91,0.17-5.86c-0.38-2.9-0.23-5.63-0.34-8.52
								c-0.01-0.29-0.05-0.62-0.3-0.77c-0.26-0.17-0.6-0.04-0.88,0.09c-4.51,2.08-9.46,3.85-13.57,6.67
								c-1.96,1.34-3.58,3.11-5.16,4.89c-3.6,4.06-7.06,8.24-10.52,12.42c-0.17,0.21-0.35,0.43-0.39,0.69
								c-0.07,0.41,0.19,0.8,0.48,1.1c1.31,1.31,3.36,1.58,5.2,1.31c1.87-0.27,3.67-1.03,5.18-2.17c1.4-1.06,2.52-2.43,3.62-3.79
								C1113.92,1131.58,1114.55,1130.76,1115.24,1130.08z" class="colorffc5bd svgShape"></path></g></g></g><g fill="#000000" class="color000000 svgShape"><g fill="#000000" class="color000000 svgShape"><g fill="#000000" class="color000000 svgShape"><path fill="#bddeff" d="M1157.64,1137.36c-4.1-1.74-6.1-6.31-7.65-10.18c-0.79-1.96-1.43-4.02-2.37-5.92
								c-1.28-3.87-3.48-6.86-6.84-9.04c-0.12-0.08-0.24-0.16-0.29-0.3c-0.03-0.09-0.02-0.19,0.01-0.29
								c0.19-0.77,0.94-1.23,1.63-1.61c1.46-0.8,2.98-2,4.67-2.18c1.77-0.19,3.53,0.62,4.87,1.79c2.24,1.96,3.9,4.75,5.07,7.45
								c2.6,6.02,5.15,11.93,8.29,17.67c0.25,0.46,0.51,1,0.3,1.48c-0.13,0.31-0.42,0.51-0.71,0.68
								C1162.53,1138.13,1159.87,1138.3,1157.64,1137.36z" class="colorffc5bd svgShape"></path></g></g></g></g></g><g fill="#000000" class="color000000 svgShape"><g fill="#000000" class="color000000 svgShape"><g fill="#000000" class="color000000 svgShape"><g fill="#000000" class="color000000 svgShape"><g fill="#000000" class="color000000 svgShape"><g fill="#000000" class="color000000 svgShape"><circle cx="901.97" cy="1066.13" r="22.25" fill="#bddeff" class="colorffc5bd svgShape"></circle></g></g></g></g></g><g fill="#000000" class="color000000 svgShape"><g fill="#000000" class="color000000 svgShape"><g fill="#000000" class="color000000 svgShape"><g fill="#000000" class="color000000 svgShape"><g fill="#000000" class="color000000 svgShape"><circle cx="1040.31" cy="1117.9" r="16.17" fill="#bddeff" class="colorffc5bd svgShape"></circle></g></g></g></g></g><g fill="#000000" class="color000000 svgShape"><g fill="#000000" class="color000000 svgShape"><g fill="#000000" class="color000000 svgShape"><g fill="#000000" class="color000000 svgShape"><g fill="#000000" class="color000000 svgShape"><path fill="#bddeff" d="M909.6,1045.23c11.15,4.06,31,13.47,53.29,23.26c26.14,11.48,64.59,27.54,82.97,34.23l-11.09,30.39
									c-37.12-11.39-96.42-31.5-140.42-46.07L909.6,1045.23z" class="colorffc5bd svgShape"></path></g></g></g></g></g></g><g fill="#000000" class="color000000 svgShape"><g fill="#000000" class="color000000 svgShape"><g fill="#000000" class="color000000 svgShape"><g fill="#000000" class="color000000 svgShape"><g fill="#000000" class="color000000 svgShape"><g fill="#000000" class="color000000 svgShape"><circle cx="1040.31" cy="1117.9" r="16.17" fill="#bddeff" class="colorffc5bd svgShape"></circle></g></g></g></g></g><g fill="#000000" class="color000000 svgShape"><g fill="#000000" class="color000000 svgShape"><g fill="#000000" class="color000000 svgShape"><g fill="#000000" class="color000000 svgShape"><path fill="#bddeff" d="M1041.07,1101.75c11.09-1.89,23.67,0.46,36.72,0.19c12.72-0.26,28.21,12.89,33.88,23.77
								c1.54,2.96,3.08,5.92,4.62,8.87c0.42,0.8,0.78,1.9,0.1,2.49c-1.13,0.96-5.49,0.31-6.75-0.03c-1.14-0.3-2.17-0.92-3.13-1.6
								c-1.78-1.26-3.39-2.77-4.76-4.47c0.8,0.99,2.29,5.07,1.34,6.17c-1.44,1.67-5.3,1.18-7.24,0.82c-2.51-0.46-4.77-1.68-6.6-3.44
								c-1.87-1.8-3.45-3.9-5.41-5.6c-3.29-2.84-7.49-4.36-11.58-5.83c5.6,2.56,8.54,7.21,12.3,12.09c1.74,2.26,4.33,6.28-0.61,5.8
								c-3.33-0.32-5.43-3.17-7.85-5.14c-2.3-1.88-4.46-4.47-7.34-5.48c-3.5-1.22-6.92,1.21-10.2,2.22
								c-2.34,0.72-4.83,1.95-7.26,2.23c-2.8,0.32-8.51-0.1-11.57-0.76C1039.84,1129.63,1040.76,1106.46,1041.07,1101.75z" class="colorffc5bd svgShape"></path></g></g></g><g fill="#000000" class="color000000 svgShape"><g fill="#000000" class="color000000 svgShape"><g fill="#000000" class="color000000 svgShape"><path fill="#bddeff" d="M1097.86,1102.98c3.38,0.53,5.73,3.55,7.64,6.39c1.25,1.86,2.46,3.74,3.51,5.71
								c1.97,3.67,3.41,7.63,4.25,11.71c0.12,0.59,0.23,1.2,0.13,1.8c-0.38,2.33-3.72,2.99-5.75,1.77c-2.02-1.23-3.1-3.5-4.37-5.5
								c-4.22-6.63-11.75-11.03-19.6-11.44c-1.66-0.09-3.58-0.12-4.59-1.44c-0.9-1.18-0.61-2.95,0.27-4.14
								C1082.35,1103.82,1093.23,1102.25,1097.86,1102.98z" class="colorffc5bd svgShape"></path></g></g></g></g></g><g fill="#000000" class="color000000 svgShape"><g fill="#000000" class="color000000 svgShape"><g fill="#000000" class="color000000 svgShape"><g fill="#000000" class="color000000 svgShape"><path fill="#69a8e8" d="M1097.03,1141.94l141.44-4.49c6.89-0.22,12.65-5.33,13.68-12.15l15.04-99.2
							c0.77-5.09-3.26-9.64-8.41-9.48l-131.39,4.17c-6.98,0.22-12.81,5.39-13.85,12.3L1097.03,1141.94z" class="color69b0e8 svgShape"></path></g></g></g><g fill="#000000" class="color000000 svgShape"><g fill="#000000" class="color000000 svgShape"><g fill="#000000" class="color000000 svgShape"><path fill="#69a8e8" d="M1023.11,1134.88l223.68-7.11c1.32-0.04,2.42,0.99,2.46,2.31l0.15,4.64c0.04,1.32-0.99,2.42-2.31,2.46
							l-223.68,7.11c-1.32,0.04-2.42-0.99-2.46-2.31l-0.15-4.64C1020.76,1136.02,1021.79,1134.92,1023.11,1134.88z" class="color69b0e8 svgShape"></path></g></g></g><g fill="#000000" class="color000000 svgShape"><g fill="#000000" class="color000000 svgShape"><g fill="#000000" class="color000000 svgShape"><path fill="#0575e6" d="M1103.89,1141.73l141.44-4.49c6.89-0.22,12.65-5.33,13.68-12.15l15.04-99.2
							c0.77-5.09-3.26-9.64-8.41-9.48l-131.39,4.17c-6.98,0.22-12.81,5.39-13.85,12.3L1103.89,1141.73z" class="color539fda svgShape"></path></g></g></g><g fill="#000000" class="color000000 svgShape"><g fill="#000000" class="color000000 svgShape"><g fill="#000000" class="color000000 svgShape"><circle cx="1192.11" cy="1078.83" r="10.09" fill="#ffffff" class="colorffffff svgShape"></circle></g></g></g></g></g></g></svg>