<svg xmlns="http://www.w3.org/2000/svg" viewBox="0 0 2000 2000" id="ReadMore"><defs><clipPath id="a"><path fill="none" d="M1187.22 1176.239c-60.725 33.19-394.62-186.739-406.392-272.726-18.245-132.813 324.793-305.619 324.793-305.619 4.356-14.559 20.6-46.764 37.535-53.787 25.692-10.7 11.641-40.981 28.38-37.432 21.5 4.58 27.262 30.168 55.31 56.131 16.646 15.327-12.649 64.742-45.84 83.616-11.8 6.686-24.727 1.094-24.727 1.094s-175 148.246-177.614 192.808c-3.176 55.145 118.636 60.142 299.165 139.953 73.457 32.528-57.15 177.651-90.61 195.962Z"></path></clipPath><clipPath id="b"><path fill="none" d="M1035.657 1079.849c48.734-70.031 128.326-107.489 258.894-91.169 62.737 60.458 132.133 188.74 174.41 308.3-59.678 261.429-287.782 319.648-416.516 293.987 59.134-147.558-84.553-347.038-16.788-511.118Z"></path></clipPath><clipPath id="c"><path fill="none" d="M1109.432 941.887c2.231 20.58.651 44.179 27.781 59.825-10.592 21.638-41.995 43.342-78.695 49.567 11.614-28.161 6.69-47.356-17.931-66.792Z"></path></clipPath><clipPath id="d"><path fill="none" d="M435.8 1179.118a26.48 26.48 0 0 0-46.486 4.848l-80.486 197.844a94.1 94.1 0 0 0 9.2 88.239l.01.015a26.578 26.578 0 0 0 46.533-4.965l80.489-197.844a94.042 94.042 0 0 0-9.248-88.122Z"></path></clipPath><clipPath id="e"><path fill="none" d="M1040.635 1086.455c-52.586.548-145.456 305.213-240.218 345.721C705.563 1472.7 471.7 1329.589 471.7 1329.589c-45.495-39.486-17-75.873-27.9-81.477s-28.23 12.763-37.551 47.852c-21.793-2.316-31.251-39.354-41.3-48.776-9.462-8.85-33.075 33.861-33.6 55.254-1.064 49.243 65.759 81.226 96.676 72.395 0 0 188.4 236.814 351.134 258.415 142.768 18.953 295.248-127.328 337.143-204.4 89.49-164.928-22.988-342.952-75.667-342.397Z"></path></clipPath></defs><path fill="#eff1f4" fill-rule="evenodd" d="M922.625 1516.3c247.147 283.676 845.934-185.538 403.194-750.994-362.731-463.347-553.686 34.259-827.045 89.524-414.485 83.785-367.032 388.226-311.389 510.6 135.842 298.97 605.072 1.392 735.24 150.87Z" class="colorf0eff4 svgShape"></path><path fill="#eff1f4" fill-rule="evenodd" d="M469.43 749.24c73.32 81.929 407.078-87.589 283.465-252.583-101.264-135.2-254.675 29.587-385.587 56.4-198.495 40.648-218.162 135.924-209.552 172.986 20.988 90.557 273.067-19.976 311.674 23.197Z" class="colorf0eff4 svgShape"></path><path fill="#d8dee4" d="M1446.594 1233.051c-.035.632.128 1.23.093 1.862-.453 5.922-.8 9.947-2.711 15.079-4.245 10.965-14 21.429-13.267 35.491-.37 19.888 19.189 32.547 30.015 13.132 6.627-12.841 4.566-28.758 1.449-43.239a131.717 131.717 0 0 0-7.311-22.305 54.609 54.609 0 0 0 16.062-3.217c1.129-.406 2.061-.777 3.19-1.182.252.165.7.3.952.46 9.91-3.814 18.188-7.552 27.885-9.868 16.778-4.385 37.717-8.661 43.579-26.585 1.548-5.7-1.909-11.561-5.971-15.861-6.074-5.619-14.776-7.233-22.073-5.961-14.47 1.479-26.342 10.226-34.3 21.211-4.935 6.912-8.361 14.813-11.339 22.844-1.193 3.964-3.121 8.264-3.219 12.455a58.173 58.173 0 0 1-20.421 3.142 1.855 1.855 0 0 0-1.041-.027 47.263 47.263 0 0 1-7.39-.59c2.43-12.318 9.885-23.634 16.836-35.279 2.465-4.6 5.379-9.075 7.09-14.173a36.725 36.725 0 0 0 10.551 2.335c6.8.693 13.73-3.437 12.818-10.581-2.406-9.6-17.626-14.665-26.042-16.746a82.322 82.322 0 0 0-22.654-1.268 15.964 15.964 0 0 0-3.21.351c5.586-4.521 10.975-9.008 16.309-13.694 4.709-3.95 9.309-8.3 13.963-12.45 11.162 3.063 20.2 10.461 29.434 17.824 11.068 9.548 22.551 19.858 37.3 15.618 12.528-4.062 15.723-19.643 4.994-29.459-10.925-9.781-25.785-14.286-39.58-15.638a95.8 95.8 0 0 0-17.182-.135c-.592.1-1.237.007-2.026.145l12.513-10.945c7.035-6.026 14.125-11.852 21.16-17.878.646.1 1.489.158 2.332.22 3.481.645 4.97.8 8.5 1.647 8.721 2.445 17.32 5.954 26.13 7.966a95.375 95.375 0 0 0 26.53 1.845c6.671-.537 13.736-1.142 19.81-3.87 11.019-5.051 14.938-17.211 3.189-26.222-11.172-7.652-25.041-10.034-37.485-8.7-3.746.653-8.051.777-11.581 2.227l-2-2.782.394-.068c8.761-4.24 18.045-7.319 27.526-10.432 12.384-3.828 25.469-7.361 38.84-11.361 4.383 3.2 8.209 5.873 12.38 10.572 11.236 12.44 16.605 32.162 26.949 46.635 7.07 10.036 27.645 27.943 40.123 25.977 25.746-4.07-11.769-43.23-20.7-52.524-10.3-10.516-21.994-19.329-34.063-27.241a84.708 84.708 0 0 0-12.641-6.978c17.744-5.389 35.379-11.175 52.1-18.054 2.993-1.147 5.932-2.494 8.673-3.806l.251.164c1.652.756 3.555 1.676 5.261 2.631 2.8 1.181 8.189 5.041 9.249 5.9 20.732 16.21 29.454 43.695 52.587 58.861 9.663 6.663 22.837 11.044 33.156 5.7 18.1-13.172-8.461-39.425-20.949-50.394-11.966-9.809-25.934-16.347-40.256-21.154a117.741 117.741 0 0 0-22.359-5.494 41.935 41.935 0 0 0-7.39-.59 358.327 358.327 0 0 0 60.72-36.458c.7.295 1.544.357 2.244.653a84.464 84.464 0 0 1 11.758 5.254c9.679 5.2 16.6 10.879 24.558 18.882 9.886 9.754 19.416 21.239 32.984 25.551 4.827 1.037 10.442 1.936 14.49-.647a10.817 10.817 0 0 0 3.614-12.524c-2.4-7.3-8.475-12.921-14.244-18.176a122.462 122.462 0 0 0-16.94-12.906 104.022 104.022 0 0 0-23.592-11.539 146.678 146.678 0 0 0-20.781-5.768c3.491-3.112 6.981-6.225 10.418-9.536l.2-.035c12.917-6.424 27.363-11.029 37.509-21.562 4.151-4.479 8-9.323 9.185-15.581 2.312-8.959-7.785-17.215-16.181-18.464-8.7-1.614-16.152 3.649-20.047 10.588-4.447 8.705-4.8 18.783-7.651 28.044a83.421 83.421 0 0 1-4.743 12.929 1.63 1.63 0 0 0-.266 1.3c-4.117 3.847-8.234 7.7-12.745 11.611q-5.021 4.318-10.2 8.039a27.2 27.2 0 0 0 2.469-19c-.853-4.651-4.895-8.12-9.293-9.857-10.033-3.468-15.037 4.707-12.794 13.706 1.558 7.241 6.671 16.157 5.157 21.221a34.191 34.191 0 0 1-1.139 4.163 1.88 1.88 0 0 0-.409 1.532 302.7 302.7 0 0 1-28.408 17.054c4.738-6.877 8.865-14.483 8.953-23.262.109-7.948-5.344-16.6-14.347-16.28-8.411.214-15.18 4.941-21 10.129-11.6 9.742-17.2 26.368-23.645 38.343a104.913 104.913 0 0 1-10.906 16.09c-.428.7-1.646 1.539-1.77 2.6-23.477 7.848-47.138 14.267-71.424 21.421-10.467 3.285-20.88 6.77-30.77 11.415 4.94-4.617 9.683-9.2 14.372-13.982 4.324.707 8.519.185 11.635-2.028 3.456-2.48 3.481-7.7.676-11.177 2.647-3.174 5.492-6.383 8.085-9.756 8.318 6.271 16.738 10.646 24.982 7.54 7.149-3.333 4.688-13.129-.774-18.019a42.373 42.373 0 0 0-7.509-5.578 94.887 94.887 0 0 1 12.02-6.685c18.311-8.617 38.746-13.222 55.455-24.69 8.381-5.634 17.695-11.64 21.925-21.141 1.5-3.6 2.78-8 .71-11.809-8.456-12.09-25.712-4.909-35.513-.7a68.4 68.4 0 0 0-22.867 16.923c-6.369 6.953-11.374 15.129-16.881 22.975q-3.594 5.009-7.35 9.419c.626-.735 1.2-1.669 1.824-2.4 5.167-7.578 9.831-15.485 14.494-23.393.395-.069.538-.3.932-.371a1.756 1.756 0 0 0 .769-.969 2.576 2.576 0 0 0-.128-1.229c.143-.234.286-.468.483-.5a1.439 1.439 0 0 0 1.47-.673c8.06-12.882 28.96-35.514 21.174-52.728a6.772 6.772 0 0 0-5.26-2.631c-5.65-.267-9.659 3.979-12.483 8.019-6.686 10.346-9.959 22.6-10.2 35.373a94.992 94.992 0 0 0 .2 10.607 10.178 10.178 0 0 0 .454 2.425c-2.061.777-4.067 1.752-6.128 2.529a111 111 0 0 1 .783-19.126c.986-8.518 3.091-22.031-4.6-29.038-3.269-2.143-7.139-.425-9.16 2.014-5.4 5.95-5.69 14.764-4.758 22.74a68.872 68.872 0 0 0 5.315 19.523 37.227 37.227 0 0 0 4.033 7.227l.055.2c-3.279 1.615-6.558 3.229-9.585 5.009-11.428 6.583-21.777 14.855-31.982 22.894-1.021.8-1.9 1.374-2.919 2.178a52.624 52.624 0 0 1-1.661-5.344 114.222 114.222 0 0 1-3.3-18.2c-1.188-10.435-2.194-27.788-12.508-36.841a7.3 7.3 0 0 0-10.329.757c-3.9 4.644-2.791 11.754-2.007 17.669 1.529 10.167 5.478 20.121 10.305 29.5a175.907 175.907 0 0 0 9.18 15.51c.863.894 1.44 2.254 2.446 2.913-6.8 5.359-13.805 10.753-20.806 16.146-2.391-11.06-3.22-20.931-4.482-32.4-1.385-10.4-2.736-21.433-9.141-30.542-5.359-6.787-13.5-5.577-17.108.9-6.38 10.711-5.147 25.1-1.784 37.454a80.9 80.9 0 0 0 9.8 20.829 100.929 100.929 0 0 0 8.131 10.894c.808.694 1.474 1.621 2.282 2.315-3.259 2.446-6.661 5.126-9.919 7.571l-9.777 7.339c-.2.034-.394.068-.34.267a.18.18 0 0 0-.143.234c-2.436 1.677-5.014 3.587-7.45 5.263l-.2.035c-2.9-15.979-7.1-32.15-15.866-46.9-3.979-7.028-8.6-14.151-15.161-19.268-7.311-5.612-19.411-10.6-23.172-.135-2.973 10.326 1.962 20.108 8.8 28.515a34.458 34.458 0 0 0-16.783-6.256c-8.376-.418-15.16 5.772-17.764 12.9-4.2 14.921 6.361 30.191 13.17 43.82 3.781 7.062 6.937 14.859 5.354 21.186a31.758 31.758 0 0 1-2.337 5.833c-.429.7-1.109 1.236-.892 2.033a1.4 1.4 0 0 0 .917 1.093 15.515 15.515 0 0 0-1.647 1.539c-4.121 1.553-7.829 3.868-9.362 8.1a3.82 3.82 0 0 1-.464 1.333 7.446 7.446 0 0 1-1.109 1.237c-2.416 2.507-4.58 5.18-6.744 7.853 3.313-10.594 7.02-21.256 5.7-32.921-1.8-19.51-15.492-39.451-16.518-57.636-.379-9.741 2.313-17.305 3.782-26.325a1.778 1.778 0 0 0 2.2-1.01c1.035-2.267 1.927-4.3 3.017-6.369 3.678-7.736 6.606-13.671 10.733-21.277 2.322-4.369 4.841-8.773 7.361-13.177l.2-.034a54.3 54.3 0 0 1 8.248-.812c5.236-.5 17.379.1 22.906 1.433 11.68 1.929 25.076 9.4 35.463 2.792 7.844-5.332 5.236-17.189-1.844-23.467a40.215 40.215 0 0 0-30.513-11.167c-7.908.544-14.7 4.44-21.092 8.267-1.075.605-2.149 1.21-3.421 1.849 2.445-5.435 4.693-10.835 7.015-15.2 6.572-13.04 14.9-24.925 22.733-37.141.9.261 1.829-.11 2.673-.048a62.311 62.311 0 0 1 6.69.294 95 95 0 0 1 18.661 4.051c7.233 2.287 14.342 5.639 21.895 6.826 10.64 1.9 21.989.341 29.9-6.255 7.465-6.726 2.51-17.339-5.394-22.848-8.011-5.907-17.828-8.578-27.3-9.223-13.883-.919-23.5 4.722-31.228 15.042-2.021 2.439-6.3 5.689-9.259 6.2a18.538 18.538 0 0 1-3.3.784c1.341-1.9 2.431-3.971 3.717-6.073 7.47-12.779 11.566-25.805 21.747-36.969 5.315-5.517 15.54-12.725 21.462-19.808 2.844-3.209 5.689-6.418 8.282-9.791 13.519-1.939 29.148 1.6 44.013.05 5.576-.763 11.329-2.392 15.2-6.4 7.873-8.258 4.678-17.717-6.38-22.676-11.67-5.687-23.675-.464-33.4 4.778a48.768 48.768 0 0 0-8.9 6.768c1.321-2.734 2.894-5.3 4.467-7.873 3.343-5.173 6.636-8.251 11.847-11.872a139.671 139.671 0 0 0 16.314-11.4c3.673-1.684 7.184-3.965 10.748-6.047 4.585-2.886 9.171-5.772 12.336-10.079 4.417-5.778 8.11-14.978 1.908-21.826a13.4 13.4 0 0 0-14.052-3.811c-11.162 5.284-16.363 21.841-16.57 33.98l.178 7.481.054.2c-2.239 1.642-4.477 3.285-6.769 4.727a75.826 75.826 0 0 0-11.443 8.046c1.474-6.725 5.566-13.7 6.877-21.022 2.45-11.487-2.367-24.628-12.015-32.754-12.252-9.341-25.367-2.882-25.677 11.153-.291 6.519 1.893 13.025 4.023 19.331 2.687 6.835 5.626 13.835 9.836 20.2 2.106 3.181 4.551 6.093 7.051 9.205a15.68 15.68 0 0 0 2.534 2.479c-3.111 4.507-5.413 9.708-8.022 14.545a96.959 96.959 0 0 1-14.825 19.9c-5.438 6.582-15.52 13.556-22.284 20.578a35.461 35.461 0 0 0-3.56 4.376 2.829 2.829 0 0 0-.522-1.161c.123-9.411 2.381-18.569 3.6-27.754 2.475-16.708.375-34.287-16.024-45.2-7.346-4.98-17.808-7.747-24.809-2.354-7.967 6.4-9.86 18.413-6.5 28.47 4.605 14.638 15.984 26.845 27.807 36.887 4.8 3.963 9.5 6.065 12.271 10.173l.109.4a23.389 23.389 0 0 0 .187 3.724c.163.6.612.728 1.06.858-5.97 9.179-10.126 19.711-15.362 28.553-7.81 13.046-16.625 25.434-24.434 38.48-.183-1.429-.242-3.922-.424-5.351a186.583 186.583 0 0 1 .078-21.716c.838-18.926 1.272-42.373-17.5-55.169-24.962-15.055-52.044 1.559-40.378 29.992 6.454 15.36 19.839 26.59 33.58 36.089 6.809 5.283 14.584 9.561 18.686 15.524a17.287 17.287 0 0 1 1.336 4.149c.217.8-.015 1.463.542 1.992l.755.5c-.661 1.367-1.519 2.769-2.179 4.136-4.93 9.206-8.8 19.271-13.228 28.806a64.818 64.818 0 0 1-3.7 6.905c-.2.034-.142.233-.285.467-.858 1.4-1.519 2.769-2.377 4.17-6.409-11.4-7.982-25.527-13.874-38.064-6.1-11.039-16.926-22.716-30.109-23.34-19.514-.354-12.873 27.076-4.832 38.4 6.513 9.507 16.088 16.6 26.5 21.465.118 4.988.631 9.906 1.2 15.024-.882-1.724-1.962-3.414-2.845-5.138-2.628-4.342-8.554-16.246-14.539-13.951-5.912 3.326-.257 14.234 3.895 18.1a37.449 37.449 0 0 0 13.829 9.067l.2-.034a73.622 73.622 0 0 1-.418 13.636 110.8 110.8 0 0 1-1.967 10.985c-.306-.364-.666-.927-.972-1.291-1.385-2.054-2.573-4.142-3.762-6.231-2.736-4.739-5.078-9.548-9.032-13.45-7.262-7.707-16.275-3.632-12.523 6.356 2.9 7.632 10.965 11.444 18.055 13.965 1.4.59 4.9 2.067 6.232 3.921l.054.2c.306.364.414.762.72 1.126-1.632 8.423-2.564 17.141.271 26.037 4.99 18.328 15.916 36.456 14.95 54.152-1.031 12.909-7.065 25.646-9.762 39.262-3.589 15.65-4.235 32.248-7.375 48.028-.335 2.562-.671 5.125-.863 7.454a178.149 178.149 0 0 0-11.714-17.991c-8.885-11.389-17.966-22.744-26.116-34.469a13.528 13.528 0 0 1 1.41-3.167 58.066 58.066 0 0 1 7.311-11.082c7.174-8.554 21.126-17.246 26.283-29.413 7.3-15.671-8.382-27.753-23.453-22.413-13.475 5.9-17.439 22.445-19.544 35.958a107.119 107.119 0 0 0-.9 16.433l-1.079-1.69c-5.562-9.046-10.64-18.6-16.059-27.875.178-.866-.345-2.027-.419-3.057a34.545 34.545 0 0 1-1.144-6.479c-.912-7.144-.345-18.72 1.469-25.713 3.589-15.65 15.348-27.09 15.831-44.285.7-10.346-7.031-25.067-19.071-19.212-3.816 1.917-6.3 5.689-8.5 8.993a57.388 57.388 0 0 0-7.474 18.831 86.428 86.428 0 0 0-1.3 28.606 121.763 121.763 0 0 0 3.176 16.975c-10.7-12.742-23.045-23.945-33.778-36.055a1.734 1.734 0 0 0 .212-1.5 25.712 25.712 0 0 1 .4-3.827c.656-3.661 2.865-10.724 5.4-14.3 9.3-12.889 19.439-25.716 22.669-41.929 4.156-18.879 6.867-50.652-14.807-62.733-14.938-7.83-25.9 5.766-29.068 18.421-6.607 22.018-1.085 46.1 2.678 69.02 1.508 9.336 2.529 16.879 3.426 25.487a99.82 99.82 0 0 1-7.252-11.465c-5.961-11.273-9.393-22.36-13.652-34.972-3.541-11.486-7.869-22.835-11.409-34.321-.651-2.39-1.159-5.014-1.81-7.405.483-.5.912-1.2.3-1.93-6.39-10.572-9.5-20.464-14.811-31.641-8.125-16.947-18.188-34.182-33.28-46.367-6.666-5.516-15.062-6.765-19.746.312-3.18 5.771-1.819 13.045-.423 19.688 1.681 6.176 3.614 12.517 6.818 18.218 5.222 9.315 12.395 17.455 20.052 25.093a167 167 0 0 0 29.3 22.646l10.4 6.326a1.665 1.665 0 0 0 .9.261c2.258 7.536 5.162 15.168 7.618 22.67a24.351 24.351 0 0 1-3.392-1.079 66.268 66.268 0 0 1-15.368-7.129c-17.133-10.577-31.712-26.19-51.492-33.594-3.841-1.208-7.968-1.95-11.5-.5a11.311 11.311 0 0 0-6.577 10.745c.611 9.075 7.676 16.817 14.648 22.7 16.26 13.443 36.582 22.838 57.028 22.822 6.834.061 13.7-.51 19.938-2.64l.2-.035c3.575 10.854 7.347 21.674 12.785 31.785 4.664 8.786 10.94 16.665 17.646 23.843a43.642 43.642 0 0 0 3.2 3.407c-9.17-2.575-17.2-7.019-26.229-12.122a311.941 311.941 0 0 0-28.512-14.437c-11.847-4.821-24.666-10.934-37.2-9.167-7.692 1.341-11.029 8.809-7.588 16.138 2.993 7.2 9.6 12.516 15.516 17.537a101.339 101.339 0 0 0 34.527 17.562 123.735 123.735 0 0 0 39.092 5.5c9-.317 18.345-.9 26.894-3.644a.18.18 0 0 0 .143-.234c8.431 8.965 16.665 17.963 23.232 27.669q5.938 9.294 11.285 18.692a164.494 164.494 0 0 1-37.913-8c-17.247-4.924-37.909-14.051-52.951-3.292-9.116 5.971-9.072 18.275-1 26.676 7.765 8.037 18.784 11.333 29.261 12.637 16.147 2.4 31.273-2.738 44.979-9.3 5.877-2.694 13.366-6.3 18.188-7.552a14.379 14.379 0 0 1 4.141-.722l1.183-.206c2.377 4.176 5 8.518 7.578 12.66 1.026 1.49 1.854 3.015 2.825 4.307l.109.4c.108.4.36.563.863.893l4.156 6.162a1.352 1.352 0 0 0 .128 1.23 2.812 2.812 0 0 0 1.257.824c6.765 9.672 14.067 19.041 21.566 28.376a184.112 184.112 0 0 1 17.29 25.575c.306.364.469.961.829 1.525a4.68 4.68 0 0 1-.409 1.532c-4.438 13.293-5.788 27.3-7.085 41.508-9.367 5.806-22.788 3.554-34.349 6.612-8.066 2.241-15.55 8.136-17.182 16.559-2.006 9.322 2.3 19.839 10.566 25.911 11.246 8.682 25.741 1.983 30.686-8.687 4.072-7.8 6.6-15.966 9.274-24.361a243.323 243.323 0 0 1-2.2 28.345c-1.055 9.782-4.782 19.614-7.109 30.035-.158 1.7-.961 3.3-.725 4.926.631 1.559 3.249 1.312 3.407-.385.848-5.991 3.574-14.187 5.388-21.18 1.672-6.76 2.643-13.816 3.668-20.672 1.376-10.882 1.208-22.121 1.883-33.3l.7-2a.72.72 0 0 0 .034-.632c1.775-.31 1.864-.742 3.047-.949a54.81 54.81 0 0 1 20.12-1.211c-.429.7-.409 1.532-.892 2.034-.606 1.566-1.178 2.5-1.553 3.4-2.983 5.737-6.774 10.78-10.511 16.022-6.9 9.55-14.894 21.167-10.472 34.377 7.223 22.739 32.452 19.8 32.619-2.346.547-12.407-5.813-25.9-6.77-37.007-.064-4.788.36-7.783 2.485-12.118a14.731 14.731 0 0 1 1.8-3.236c5.867 1.064 11.592 2.362 17.656 3.391a63.919 63.919 0 0 0 9.134.903Zm-44.277-271.9c-.2-2.26-.207-4.554-.355-6.615a41.747 41.747 0 0 0 4.343 1.538c3.25 1.312 5.493 1.964 7.775 4.279l.055.2.251.165c.612.728.883 1.724 1.637 2.219-.143.233-.089.433-.286.467-4.324 7.64-8.2 15.41-11.965 23.578-.143.234-.089.433-.286.468.986-8.521-.217-17.493-1.169-26.3Zm19.225 207.2a50.338 50.338 0 0 1 11.749.666 35.858 35.858 0 0 1 5.132 1.4 46.93 46.93 0 0 0-8.627 16.111 20.968 20.968 0 0 0-5.429-5.523 33.312 33.312 0 0 0-13.321-6.442l-.054-.2c1.986-1.807 3.973-3.614 6.014-5.222l.2-.034a15.82 15.82 0 0 1 4.336-.76Zm73.524-70.616a105.05 105.05 0 0 0-.754-25.535 146.693 146.693 0 0 0-3.3-15.91 15.428 15.428 0 0 0-.956-2.754l3.653-2.515c6.232 3.922 11.443 8.648 17.177 14.534 3.146 3.208 6.454 7.013 10.1 10.551-8.535 7.327-17.326 14.494-25.92 21.625Zm99.669-122.541a148.662 148.662 0 0 1 19.366-10.053c1.327-.44 2.4-1.044 3.728-1.484-3.575 5.84-7.1 11.879-10.921 17.553s-7.9 11.185-11.98 16.695a1.761 1.761 0 0 0-.769.969c-.286.467-.626.735-.912 1.2a66.1 66.1 0 0 0-17.818-3.989c-2.978-.315-5.759-.665-8.682-.782 9.436-7.072 18.675-14.103 27.988-20.113Zm-35.473 26.006c6.213 3.091 13.258 10 20.875 15.977-2.647 3.174-5.1 6.314-7.8 9.289a26.916 26.916 0 0 0-9.659-4.368 81.2 81.2 0 0 0-27.175-1.941c7.825-6.167 15.989-12.598 23.759-18.957Zm-38.495 30.081c.878-.57 1.7-1.34 2.382-1.876 1.148.426 2.583.384 3.732.81 4.486 1.305 9.081 3.008 13.479 4.746 4.847 1.868 11.453 4.89 17.877 6.483-4.688 4.781-9.628 9.4-14.568 14.016-3.9-3.7-8.712-6.2-13.613-8.27a59.331 59.331 0 0 0-14.16-4.21c-3.229-.48-6.4-.761-9.579-1.043q7.521-5.383 14.45-10.66Zm-77.005 44.93c4.526-5.379 9.14-11.192 12.409-17.4.922 3.386 1.844 6.773 3.018 10.325q-10.612 6.545-20.9 14.284 2.738-3.605 5.473-7.213Zm-8.973 14.084a267.712 267.712 0 0 1 25.662-18.036 136.673 136.673 0 0 0 14.175 27.787c2 2.782 4.245 5.729 6.384 8.277a5.163 5.163 0 0 0 .863.893c-5.674 4.954-11.3 10.107-16.915 15.26a1.246 1.246 0 0 0-1.184.206 1.332 1.332 0 0 0-.8 1.6c-3.151 2.844-6.1 5.654-9.308 8.3.2-8.381.788-16.831-.9-25.3-2.087-10.701-7.648-19.748-17.977-18.991ZM1398.434 1173c3.387-17.91 3.816-35.3 8.317-52.156.32-1.1.587-2.4.907-3.5 1.938.288 2.953-2.81 4.26-4.081 1.681-2.171 3.416-4.143 5.152-6.115a39.118 39.118 0 0 0 5.325 15.766c3.816 6.429 10.674 9.616 16.511 13.607a21.057 21.057 0 0 1 3.037 2.809c.055.2.36.563.414.762.252.165.523 1.161.775 1.326a5.82 5.82 0 0 1 .488 1.793c-8.737 7.366-17.976 14.4-26.91 21.8a81.972 81.972 0 0 0 4.107-16.783c.4-3.827.646-8.251-1.425-12.063-1.548-2.652-5.477-3.428-7.661-1.586-2.239 1.642-2.914 4.472-3.644 7.1a53.038 53.038 0 0 0-.236 15.066 83.36 83.36 0 0 1 .35 12.668 18.013 18.013 0 0 1-.37 3.194q-5.449 5.019-10.738 10.636c.513-3.42.828-6.814 1.341-10.243Zm-4.944 52.4a28.328 28.328 0 0 0-4.033 1.121l-.2.034c.824-9.116 2.165-19.366 3.476-26.689a23.74 23.74 0 0 1 1.085-4.363c.108.4.359.563.808.694a1.671 1.671 0 0 0 2.327-2.075c-.074-1.031.05-2.1-.024-3.126a1.566 1.566 0 0 0 1.449-1.505c.2-.034.2-.034.449.131a20.615 20.615 0 0 1 5.275 1.167c3.249 1.312 8.781 4.939 13.376 6.642a15.9 15.9 0 0 0 9.634 1.242 47 47 0 0 0-.469 7.385 53.927 53.927 0 0 0 4.206 20.76c.109.4.414.762.523 1.161-11.643-2.557-26.072-5.468-37.882-2.579Z" class="colordad8e4 svgShape"></path><g fill-rule="evenodd" fill="#000000" class="color000000 svgShape"><path fill="#0575e6" d="M535.815 624.468a16.491 16.491 0 0 0-28.844-4.89C439.5 706.806 344.758 769.612 209.585 820.512a24.707 24.707 0 0 0-14.907 30.523c32.567 105.339 170 547.814 203 654.045a24.783 24.783 0 0 0 30.848 16.416C547.2 1482.6 723.1 1347.705 738.9 1275.564Z" class="color7c76a8 svgShape"></path><path fill="#a5b5c6" d="M577.166 612.655a16.59 16.59 0 0 0-13.041-11.222 16.329 16.329 0 0 0-15.882 6.544c-68.068 90.865-161.482 168.132-300.159 220.315A16.655 16.655 0 0 0 238 848.8l208.063 667.047c74.989-17.7 317.2-175.419 334.071-252.463Z" class="colora9a5c6 svgShape"></path><path fill="#f5f5f5" d="M558.79 656.881a3.038 3.038 0 0 0-2.6-2.214 2.936 2.936 0 0 0-3.142 1.295c-68.133 94.638-160.839 157.277-308.763 212.98l189.186 606.529c70.221-18.417 298.41-168.347 315.214-238.212 0 0-169.385-517.68-189.895-580.378Z" class="colorf5f5f5 svgShape"></path><path fill="#dcdcdc" d="M539.3 703.436c-70.29 78.601-160 120.508-295 165.497l189.187 606.53c63.183-13.1 280.089-119.582 293.221-186.672Z" class="colordcdcdc svgShape"></path><path fill="#ffffff" d="M502.706 762.1C413.615 837.516 335.5 865.945 244.3 868.935l189.186 606.53c54.231-6.334 225.341-76.32 249.389-129.278Z" class="colorffffff svgShape"></path><g fill="#b6c3d1" class="colorb9b6d1 svgShape"><path d="M307.6 952.374c31.708-3.524 101.538-20.574 147.3-52.074 3.321-2.306 4.089-6.06 1.6-8.354s-7.183-2.3-10.652.048c-42.832 29.507-108.49 45.423-138.024 48.659-4.216.473-7.644 3.472-7.761 6.721.027 3.202 3.321 5.473 7.537 5ZM317.986 992.2c76.021-12.219 140.08-43.622 197.642-80.313 3.508-2.218 4.438-5.973 2.08-8.353s-7.093-2.534-10.6-.315c-55.259 35.263-116.879 65.677-189.978 77.424-4.156.66-7.379 3.8-7.04 6.961.188 3.207 3.738 5.259 7.896 4.596ZM354.722 1109.978c76.021-12.219 140.081-43.623 197.642-80.314 3.508-2.217 4.438-5.972 2.08-8.353s-7.093-2.533-10.6-.315c-55.259 35.264-116.879 65.677-189.978 77.424-4.156.66-7.379 3.8-7.039 6.962.187 3.205 3.737 5.256 7.895 4.596ZM408.194 1281.409c76.021-12.219 140.081-43.622 197.642-80.313 3.508-2.218 4.438-5.973 2.08-8.353s-7.093-2.534-10.6-.315c-55.259 35.263-116.879 65.677-189.978 77.424-4.156.66-7.378 3.8-7.039 6.961.188 3.205 3.737 5.257 7.895 4.596ZM371.783 1164.676c76.021-12.219 140.081-43.622 197.642-80.313 3.508-2.218 4.438-5.973 2.08-8.353s-7.093-2.534-10.6-.315c-55.259 35.263-116.879 65.677-189.978 77.424-4.156.66-7.378 3.8-7.039 6.961.188 3.205 3.737 5.257 7.895 4.596ZM426.254 1337.607c61.546-12.843 115.293-35.319 164.184-60.12 3.677-1.876 5.189-5.577 3.295-8.227s-6.479-3.264-10.157-1.382c-47.4 24.036-99.471 45.894-159.018 58.314-4.25.9-7.23 4.156-6.657 7.275.451 3.155 4.224 5.001 8.353 4.14ZM326.516 1019.552c76.021-12.219 140.081-43.623 197.643-80.314 3.508-2.217 4.438-5.972 2.079-8.353s-7.093-2.534-10.6-.315c-55.258 35.264-116.879 65.677-189.977 77.424-4.156.66-7.379 3.8-7.04 6.962.188 3.205 3.738 5.256 7.895 4.596ZM363.252 1137.327c76.021-12.22 140.081-43.623 197.642-80.314 3.509-2.218 4.438-5.972 2.08-8.353s-7.093-2.534-10.6-.315c-55.259 35.263-116.879 65.677-189.978 77.424-4.156.66-7.378 3.8-7.039 6.961.188 3.205 3.743 5.257 7.895 4.597ZM416.725 1308.758c76.02-12.219 140.08-43.622 197.642-80.314 3.508-2.217 4.438-5.972 2.079-8.353s-7.093-2.533-10.6-.315c-55.258 35.264-116.879 65.678-189.977 77.425-4.156.659-7.379 3.8-7.04 6.961.188 3.205 3.738 5.256 7.896 4.596ZM379.9 1192.065c44.375-4.829 111.777-27.919 165.605-61.27 3.448-2.164 4.412-5.893 2.187-8.338s-6.943-2.649-10.517-.46c-51.032 31.657-114.884 53.764-157.191 58.4-4.121.433-7.572 3.438-7.628 6.668s3.301 5.469 7.544 5ZM433.371 1363.5c44.374-4.83 111.776-27.919 165.605-61.27 3.448-2.165 4.412-5.893 2.186-8.338s-6.943-2.649-10.516-.46c-51.032 31.657-114.884 53.763-157.191 58.4-4.122.432-7.572 3.437-7.628 6.668s3.302 5.466 7.544 5Z" fill="#000000" class="color000000 svgShape"></path></g></g><path fill="#77bbff" fill-rule="evenodd" d="M1187.22 1176.239c-60.725 33.19-394.62-186.739-406.392-272.726-18.245-132.813 324.793-305.619 324.793-305.619 4.356-14.559 20.6-46.764 37.535-53.787 25.692-10.7 11.641-40.981 28.38-37.432 21.5 4.58 27.262 30.168 55.31 56.131 16.646 15.327-12.649 64.742-45.84 83.616-11.8 6.686-24.727 1.094-24.727 1.094s-175 148.246-177.614 192.808c-3.176 55.145 118.636 60.142 299.165 139.953 73.457 32.528-57.15 177.651-90.61 195.962Z" class="colorffad77 svgShape"></path><g fill-rule="evenodd" clip-path="url(#a)" fill="#000000" class="color000000 svgShape"><path fill="#0035fe" d="M1093.2 870.658c7.728 16.648-1.484 41.678-6.964 57.484-5.784 16.709-14.811 32.246-27.8 44.475-19.546 18.411-45.315 28.348-63.925 47.765-13.839 14.453-22.7 34.263-25.671 54a77.91 77.91 0 0 0 .8 27.753c11.523 53.9 83.085 73.471 129.384 80.858 52.1 8.31 110.708 2.871 155.567-27.2 69.57-46.6 79.438-143.826 37.218-211.939a197.019 197.019 0 0 0-67.227-65.275c-32.395-19.174-69.9-30.746-107.7-28.57Z" class="colorfe9400 svgShape"></path><path fill-opacity=".1" d="M1071.877 595.721c-44.006 30.2-120.373 106.632-158.6 143.431-48.97 47.309-79.249 86.748-76.846 153.309 2.754 78.918 130.611 115.523 195.259 129.442a500.84 500.84 0 0 0 43.152 7.308 410.123 410.123 0 0 0 61.417 3.462c42.56-1.181 83.286-12.086 122.738-27.57 11.334-4.43 22.321-10 33.861-13.816 3.433-1.151 8.591-2.793 11.994-.478 5.725 3.887 1.247 15.856-.217 20.658-6.346 19.748-16.491 38.537-27.282 56.159-42.627 69.658-103.821 129.508-188.993 135.176-52.589 3.516-106.193-14.88-155.124-31.984-48.841-17.079-99.733-36.049-143.482-64.262-78.09-50.371-145.973-131.265-152.798-227.456-7.8-111.367 74.97-211.456 160.88-272.05 21.426-15.1 44.084-28.547 68.126-39.028 46.856-20.418 101.686-32.627 152.191-19.932Z" fill="#000000" class="color000000 svgShape"></path></g><g fill-rule="evenodd" fill="#000000" class="color000000 svgShape"><path fill="#b5c0cb" d="M1407.418 627.449a107.248 107.248 0 0 0-59.214-95.82l-324.491-162.245a40.861 40.861 0 0 0-59.213 36.629v.032a107.113 107.113 0 0 0 59.214 95.82L1348.1 664.056a40.974 40.974 0 0 0 59.323-36.575Z" class="colorcbb5c6 svgShape"></path><path fill="#535b77" d="M1384.767 638.775a107.246 107.246 0 0 0-59.215-95.82l-324.49-162.245a40.86 40.86 0 0 0-59.214 36.629v.031a107.108 107.108 0 0 0 59.214 95.82l324.382 162.191a40.974 40.974 0 0 0 59.323-36.575Z" class="color77536f svgShape"></path></g><g fill="#ffffff" class="colorffffff svgShape"><path d="M999.432 476.969v-62.677l19.93 9.965c4.982 2.491 8.646 4.886 10.942 7.159a24.685 24.685 0 0 1 5.422 8.716 30.223 30.223 0 0 1 2.051 10.9q0 7.061-3.077 10.111c-2.1 2.017-5.178 2.4-9.281 1.151a49.006 49.006 0 0 1 5.031 7.778 123.513 123.513 0 0 1 5.422 12.884l5.715 15.086-11.332-5.666-6.839-17.06q-3.663-9.137-4.982-11.7a15.783 15.783 0 0 0-2.833-4.027 19.974 19.974 0 0 0-4.787-3.1l-1.9-.953v26.163Zm9.477-31.434 6.984 3.493q6.814 3.406 8.5 3.483a2.912 2.912 0 0 0 2.687-1.308 7.654 7.654 0 0 0 .928-4.235 12.471 12.471 0 0 0-1.27-5.75 11.065 11.065 0 0 0-3.566-4.239q-1.1-.757-6.887-3.655l-7.376-3.688ZM1066.353 495.982l8.938 6.476c-1.172 3.8-2.979 6.244-5.471 7.291s-5.568.658-9.329-1.223a27.4 27.4 0 0 1-13.091-14.287 43.624 43.624 0 0 1-3.371-17.332q0-11.283 4.4-15.48c2.979-2.769 6.692-3.042 11.186-.8 5.031 2.516 9.036 6.746 11.967 12.673s4.3 13.44 4.2 22.6l-22.519-11.26a20.984 20.984 0 0 0 2.15 9.388 12.249 12.249 0 0 0 5.177 5.558 3.72 3.72 0 0 0 3.566.25c.975-.536 1.659-1.847 2.197-3.854Zm.488-11.9a19.829 19.829 0 0 0-2-8.931 11.068 11.068 0 0 0-4.689-5.061q-2.931-1.465-4.836.453c-1.319 1.25-1.905 3.551-1.905 6.822ZM1089.8 490.6l-8.157-6.045c.927-3.925 2.491-6.39 4.738-7.38s5.568-.372 10.013 1.85a28.82 28.82 0 0 1 8.939 6.37 20.658 20.658 0 0 1 4.152 6.906c.782 2.34 1.221 6.15 1.221 11.363l-.1 13.974a80.129 80.129 0 0 0 .392 9.022 42.157 42.157 0 0 0 1.66 6.925l-8.939-4.47c-.195-.9-.488-2.226-.83-3.964-.147-.783-.294-1.329-.342-1.582a8.555 8.555 0 0 1-4.933 2.02 10.736 10.736 0 0 1-5.569-1.283 19.474 19.474 0 0 1-8.3-7.962 22.325 22.325 0 0 1-3.029-11.132 11.843 11.843 0 0 1 1.417-6.153 5.084 5.084 0 0 1 3.859-2.688 19.585 19.585 0 0 1 7.131.768c4.2 1.048 7.132 1.526 8.744 1.419v-1.2a10.868 10.868 0 0 0-1.27-5.571 11.617 11.617 0 0 0-4.836-3.895c-1.612-.806-2.882-1.016-3.761-.616s-1.615 1.51-2.2 3.324Zm12.065 15.781a41.627 41.627 0 0 1-5.471-.892c-2.491-.535-4.152-.664-4.933-.378q-1.758.8-1.759 3.355a10.519 10.519 0 0 0 1.417 5.072 8.635 8.635 0 0 0 3.614 3.643 5.088 5.088 0 0 0 4.641.183 4.358 4.358 0 0 0 2.149-2.9 32.417 32.417 0 0 0 .342-5.686ZM1150.711 552.609l-8.353-4.177v-6.665a7.761 7.761 0 0 1-4.885 3.35 9.2 9.2 0 0 1-5.715-.957c-3.908-1.954-7.278-5.743-10.062-11.337s-4.152-12.143-4.152-19.673c0-7.693 1.319-12.882 4.054-15.52 2.687-2.662 6.155-2.927 10.258-.876 3.81 1.9 7.083 5.647 9.867 11.256v-22.573l8.988 4.494Zm-23.984-35.675q0 7.269 1.465 11.248c1.466 3.866 3.518 6.458 6.106 7.752a4.035 4.035 0 0 0 5.276-.886q2.2-2.425 2.2-9.441c0-5.213-.733-9.332-2.149-12.341a12.174 12.174 0 0 0-5.373-6.129c-2.15-1.075-3.957-.844-5.374.715s-2.151 4.579-2.151 9.082ZM1177.723 566.115v-62.678l14.166 7.083 8.5 47.005 8.45-38.53 14.215 7.107v62.678l-8.841-4.421V535.02l-9.281 44.7-9.134-4.568-9.281-53.979v49.339ZM1230.282 569.054a22.825 22.825 0 0 1 2.247-10.468c1.465-3 3.517-4.825 6.252-5.424 2.687-.623 5.716-.087 9.037 1.574q7.693 3.846 12.6 12.99a39.947 39.947 0 0 1 4.933 19.378q0 10.3-4.982 14.584c-3.273 2.883-7.474 3.042-12.505.526a28.682 28.682 0 0 1-8.89-7.267 34.128 34.128 0 0 1-6.448-11.5 43.9 43.9 0 0 1-2.244-14.393Zm9.232 5.253a25.429 25.429 0 0 0 2.394 11.549c1.612 3.2 3.565 5.372 5.91 6.545s4.347.974 5.911-.635c1.611-1.592 2.393-4.677 2.393-9.237a25.191 25.191 0 0 0-2.393-11.459 13.739 13.739 0 0 0-5.911-6.545c-2.345-1.172-4.3-.958-5.91.634s-2.394 4.641-2.394 9.148ZM1281.034 617.77l-9.034-4.518v-45.407l8.4 4.2v6.461q2.126-3.514 3.81-4.124a5 5 0 0 1 3.908.5 17.759 17.759 0 0 1 5.91 5.215l-2.784 9.082a13.184 13.184 0 0 0-4.2-4.066 3.346 3.346 0 0 0-3.223-.217q-1.32.723-2.052 3.991t-.733 14.857ZM1317.571 621.591l8.988 6.5c-1.172 3.8-2.98 6.244-5.47 7.291s-5.569.658-9.33-1.223a27.4 27.4 0 0 1-13.091-14.287 43.624 43.624 0 0 1-3.371-17.332q0-11.283 4.4-15.48c2.93-2.793 6.692-3.042 11.185-.8 5.032 2.516 9.037 6.745 11.968 12.673s4.3 13.44 4.2 22.6l-22.518-11.26a20.983 20.983 0 0 0 2.148 9.388 12.126 12.126 0 0 0 5.179 5.558 3.721 3.721 0 0 0 3.565.25c.976-.532 1.659-1.846 2.147-3.878Zm.537-11.878a19.816 19.816 0 0 0-2-8.931 11.2 11.2 0 0 0-4.69-5.062c-1.953-.976-3.565-.828-4.884.43-1.27 1.274-1.9 3.551-1.856 6.846Z" fill="#000000" class="color000000 svgShape"></path></g><path fill="#0035fe" fill-rule="evenodd" d="M1035.657 1079.849c48.734-70.031 128.326-107.489 258.894-91.169 62.737 60.458 132.133 188.74 174.41 308.3-59.678 261.429-287.782 319.648-416.516 293.987 59.134-147.558-84.553-347.038-16.788-511.118Z" class="colorfe9400 svgShape"></path><g clip-path="url(#b)" fill="#000000" class="color000000 svgShape"><path fill-opacity=".1" fill-rule="evenodd" d="M1069.719 1210.964c36.495 18.647 62.9 78.895 79.647 113.474 47.768 98.2 51.2 212.542 36.5 319.049-7.192 51.864-19.965 106.376-47.123 151.438a151.965 151.965 0 0 1-24.367 31.217 82.582 82.582 0 0 1-21.146 15.164c-76.534 37.6-114.1-84.345-125.7-137.285-2.791-13.2-5.26-25.746-7.408-39.1a890.272 890.272 0 0 1-10.622-146.335c.752-74.96 6.011-152.855 32.524-223.387Z" fill="#000000" class="color000000 svgShape"></path></g><path fill="#98cbff" fill-rule="evenodd" d="M1109.432 941.887c2.231 20.58.651 44.179 27.781 59.825-10.592 21.638-41.995 43.342-78.695 49.567 11.614-28.161 6.69-47.356-17.931-66.792Z" class="colorffc298 svgShape"></path><g clip-path="url(#c)" fill="#000000" class="color000000 svgShape"><path fill-opacity=".1" fill-rule="evenodd" d="M1052.48 1029.464c10.22-9.56 21.926-16.993 30.659-28.254 5.76-7.377 9.291-16 11.521-25.02a83.934 83.934 0 0 0 1.952-29.657c-.465-3.438-1.394-11.214-6.505-8.139-8.176 4.924-14.586 15.312-20.068 22.809-12.914 17.607-24.992 35.789-37.257 53.878-1.672 2.518-1.579 2.416-3.345 5-3.344 5.064-14.121 19.836-3.065 23a17.473 17.473 0 0 0 4.18.538 37.286 37.286 0 0 0 6.505-.39 34.443 34.443 0 0 0 8.083-2.462Z" fill="#000000" class="color000000 svgShape"></path></g><path fill="#98cbff" fill-rule="evenodd" d="M1055.9 835.987c-33.277 0-60.3 37.684-60.3 84.09s-2.326 85.089 30.951 85.089 89.647-38.675 89.647-85.089-27.017-84.09-60.298-84.09Z" class="colorffc298 svgShape"></path><path fill-rule="evenodd" d="M1040.4 891.048c-28.9 8.909-85.662-23.739-98.113-51.519-24.342-54.407-.836-106.214 28.71-117.354 37.907-14.308 26.479 26.8 49.892 57.492 12.636 16.52 72.1-1.56 69.124 18.713 11.521-4.107 42.275-15.693 64.2-1.952 51.007 31.961 45.061 109.987 14.029 150.793-16.631 21.88-49.892 42.106-77.208 30.372-8.083-3.484-14.029-9.663-19.046-16.77-4.181 12.208-16.91 22.865-24.528 10.442a20.5 20.5 0 0 1-2.88-6.763c-4.739-20.794 15.423-22.494 12.635-43.343-.836-6.215-5.667-11.557-12.821.279-10.591 17.476-16.816 78.7-20.9 82.55-1.115 1.06-8.083 3.438-19.046.14-4.366-1.32-13.843-3.2-18.861-23.089-3.716-14.437 4.832-25.169 9.012-21.452 23.043 20.635 48.5-47.421 48.221-61.952Z" fill="#000000" class="color000000 svgShape"></path><path fill="#021b79" fill-rule="evenodd" d="M367.663 757.182c-41.359 101.661-22.911 261.144 41.2 355.854s149.768 89 191.127-12.657c41.4-101.766 22.91-261.143-41.206-355.854s-149.72-89.109-191.121 12.657Zm29.043 42.9c-31.03 76.272-17.162 195.805 30.924 266.836s112.292 66.83 143.322-9.442 17.2-195.909-30.882-266.94-112.335-66.724-143.364 9.548Z" class="color5c4055 svgShape"></path><g fill-rule="evenodd" fill="#000000" class="color000000 svgShape"><path fill="#6c8299" d="m452.487 1095.2-103.706 254.911 28.663 42.34L481.15 1137.54l-28.663-42.34z" class="color996c8f svgShape"></path><path fill-opacity=".1" d="M471.037 1091.249c-7.34 33.4-19.14 65.678-34.1 96.431-6.6 13.638-13.565 27.092-17.653 41.744-1.672 5.825-3.9 12.607-2.973 18.739 2.323 15.423 26.572 11.568 36.513 8.808a78.44 78.44 0 0 0 10.406-3.679c34-14.828 53.888-53.534 64.85-86.87 6.6-19.985 12.172-42.859 7.9-63.931a46.377 46.377 0 0 0-4.46-13.016c-10.035-18.982-29.267-16.78-44.5-5.185Z" fill="#000000" class="color000000 svgShape"></path></g><path fill="#535b77" fill-rule="evenodd" d="M402.221 761.631c-41.358 101.661-22.91 261.143 41.206 355.854s149.768 89 191.126-12.657c41.4-101.766 22.911-261.143-41.205-355.854s-149.725-89.109-191.127 12.657Zm29.043 42.9c-31.03 76.272-17.161 195.8 30.924 266.836s112.293 66.829 143.323-9.443 17.2-195.908-30.882-266.939-112.335-66.724-143.365 9.548ZM435.8 1179.118a26.48 26.48 0 0 0-46.486 4.848l-80.486 197.844a94.1 94.1 0 0 0 9.2 88.239l.01.015a26.578 26.578 0 0 0 46.533-4.965l80.489-197.844a94.042 94.042 0 0 0-9.248-88.122Z" class="color77536f svgShape"></path><g clip-path="url(#d)" fill="#000000" class="color000000 svgShape"><path fill-opacity=".1" fill-rule="evenodd" d="M449.084 1179.029c-23.691 7.266-59.458 162.8-79.289 204.672-9.588 20.156-25.159 46.878-39.92 46.687-14.835-.154-40.432-71.7-48.868-47.723-8.419 24.043-30.37 166.443-1.859 192.109 28.58 25.621 134.438.783 173.2-38.3s60.011-136.718 59.516-196.317c-.564-59.568-39.164-168.357-62.78-161.128Z" fill="#000000" class="color000000 svgShape"></path></g><path fill="#97cbff" fill-rule="evenodd" d="M1040.635 1086.455c-52.586.548-145.456 305.213-240.218 345.721C705.563 1472.7 471.7 1329.589 471.7 1329.589c-45.495-39.486-17-75.873-27.9-81.477s-28.23 12.763-37.551 47.852c-21.793-2.316-31.251-39.354-41.3-48.776-9.462-8.85-33.075 33.861-33.6 55.254-1.064 49.243 65.759 81.226 96.676 72.395 0 0 188.4 236.814 351.134 258.415 142.768 18.953 295.248-127.328 337.143-204.4 89.49-164.928-22.988-342.952-75.667-342.397Z" class="colorffc197 svgShape"></path><g clip-path="url(#e)" fill="#000000" class="color000000 svgShape"><path fill="#0035fe" fill-rule="evenodd" d="M1040.636 1576.4c-86.787 63.51-144.96 35.273-141-27.726 1.487-25.247 17.814-87.36-12.914-116.139-27.4-25.61-59.753-4.977-96.544-13-27.37-5.982-53.06-22.964-71.8-44.977a116.137 116.137 0 0 1-20.527-35.274c-28.2-77.181 40.4-163.749 88.862-213.187 54.538-55.634 127.319-99.785 203.06-101.3 117.444-2.388 204.174 110.178 207.447 231.737a325.046 325.046 0 0 1-28.184 139.755c-23.077 52.043-58.014 99.055-103.922 129.189Z" class="colorfe9400 svgShape"></path></g><path fill="#77bbff" fill-rule="evenodd" d="M1169.638 617.355c7.8 1.877 22.67-8.185 38.186-35.715 5.295-9.374 23.877 8.409 15.144 30.586-4.088 10.248-27.037 30.187-38 31.98-10.22 1.663-25.368-29.248-15.33-26.851Z" class="colorffad77 svgShape"></path></svg>