<svg xmlns="http://www.w3.org/2000/svg" enable-background="new 0 0 2000 2000" viewBox="0 0 2000 2000" id="Referralmarketing"><path fill="#e9f0f8" fill-rule="evenodd" d="M1001.44,454.57c148.71,0,131.73,271.34,239.09,354.05c142.09,109.47,386.54,55.27,386.54,243.14
		c0,329.82-317.07,449.32-662.6,449.32c-345.53,0-640.36-182.93-537.47-511.88C529.88,660.26,655.91,454.57,1001.44,454.57z" clip-rule="evenodd" class="colore9eff8 svgShape"></path><ellipse cx="434.69" cy="1468.78" fill="#d0dfee" fill-rule="evenodd" clip-rule="evenodd" rx="180.34" ry="27.59" class="colord0d9ee svgShape"></ellipse><path fill="#aac4de" fill-rule="evenodd" d="M467.18 995.99c-2.84-3.92-6.74-6.87-10.64-9.47-1.04-.69-2.54-.22-3.11.92-3.02 6.01-5.82 12.17-9.28 17.91-1.14 1.89-2.77 4.4-4.21 5.52-.09.07-.46.26-.62.36-.02-.03-.04-.06-.07-.11-.28-.45-.45-.93-.6-1.45-2.7-8.83.57-18.3-1.55-27.19-1.13-4.71-3.92-9.62-7.1-13.05-3.46-3.74-8.09-5.47-10.24-10.5-.33-.76-.91-1.12-1.54-1.18h-.43c-.77.07-1.55.54-1.99 1.2-4.98 7.64-11.95 15.54-13.28 25.1-1.18 8.49 3.12 15.57 7.71 22.01 2.22 3.11 4.41 6.29 6.13 9.75.95 1.91 2.59 5.36.86 7.23-1.81 1.95-4.55-1.54-5.98-3.11-2.92-3.23-5.4-6.9-7.93-10.47-4.19-5.9-10.83-14.87-18.72-13.25-3.48.72-4.89 4.55-5.08 7.9-.29 5.31 2.15 11.02 4.59 15.48 5.56 10.11 16.82 13.04 24.06 21.2 1.67 1.87 6.23 8.3 3.61 10.93-.92.92-3.04.61-4.12.43-2.66-.43-5.57-1.48-7.71-3.23-8.15-6.72-11.12-18.41-19.67-24.78-3.75-2.79-9.53-4.5-14.05-3.35-3.82.97-5.58 4.81-5.76 8.68-.21 4.69 1.8 9.53 4.01 13.45 2.56 4.53 6.08 8.32 10.39 10.94 8.63 5.23 19.55 5.89 25.28 15.53.78 1.32 1.63 3.04 1.25 4.65-.29 1.24-1.95 1.64-2.93 1.87-4.42 1.04-10.23-.7-14.11-2.91-4.7-2.67-8.11-7.49-11.72-11.52-3.8-4.27-8.04-7.74-13.37-9.47-3.87-1.25-8.63-1.05-11.13 2.81-2.29 3.55-1.83 8.31-.89 12.25 1.24 5.21 3.9 10.04 7.17 14.09 3.53 4.37 9.1 6.85 14.1 8.64 5.19 1.86 10.59 2.99 15.72 5.05 1.36.54 2.41.93 3.9 1.04 1.59.12 3.19.04 4.74.47 1.31.36.44 1.83 0 2.85-1.06 2.44-4.47 2.33-6.62 2.52-2.04.17-4.04.72-6.08.74-2.34.01-4.67-.45-6.98-.83-4.56-.74-9.39-1.6-13.91-.14-4.37 1.42-7.44 5.8-8.23 10.51-1.64 9.88 8.7 15.9 16.39 17.16 4.92.8 9.39-.34 13.71-2.95 5.33-3.21 9.53-7.86 15.69-8.66.4 2.63-.48 4.73-2.67 6.7-3.01 2.71-7.18 4.18-10.81 5.61-7.16 2.84-17.64 5.36-21.48 13.27-.47.96-.37 2.16.39 2.94 3.4 3.46 7.31 6.17 12.08 6.58 3.96.33 7.82-1.63 11.03-3.9 5.74-4.06 10.68-10.38 17.13-13.24-.89 1.74-2.38 2.93-4.18 4.43-3.22 2.67-4.87 6.37-5.76 10.54-1.35 6.32.7 13.15 7.65 13.19 3.79.02 7.6-2.01 10.76-4.04 3.62-2.32 6.52-5.69 8.77-9.46 2.79-4.68 4.34-10.08 5.2-15.61 5.81 12.08 18.43 24.7 30.34 14.26 10.17-8.93-6.58-15.77-13.2-22.79 1.31.57 2.57 1.28 3.78 1.94 3.45 1.89 6.81 3.98 10.41 5.54 6.72 2.92 14.26 2.64 18.28-4.74 3.47-6.36-3.72-9.32-8.15-10.74-3.6-1.16-10.34-2.4-12.95-6.27 8.88 1.04 18.77 2.21 26.43-3.26 3.48-2.49 7.65-7.27 8.06-11.93.34-3.81-3.53-5.16-6.31-5.45-7.58-.8-14.96 2.77-22.56 2.51-1.83-.07-3.64-.27-5.42-.7-.67-.16-1.35-.36-1.97-.66-.24-.11-.48-.33-.65-.46.04-.11.1-.25.21-.39.68-.84 1.56-1.46 2.41-2.07 1.94-1.36 3.99-2.16 6.3-2.42 4.41-.5 8.82.09 13.23-.73 4.95-.92 8.97-3.98 12.24-7.92 2.9-3.49 5.71-7.93 6.17-12.69.48-4.93-2.32-8.26-6.44-9.94-11.53-4.71-18.28 8-26.5 13.77-2.18 1.53-4.77 2.54-7.25 3.35-1.01.33-3.99 1.42-4.97.58-.59-.51 1.37-3.85 1.74-4.49 1.66-2.86 3.77-4.86 6.49-6.52 6.88-4.2 15.27-5.5 20.68-12.14 3.56-4.36 6.36-11.74 2.88-17.05-3.69-5.63-11.92-4.11-16.56-.83-5.84 4.12-8.79 12.47-15.81 14.46-.61-3.55.69-6.83 2.93-9.99 3.28-4.62 7.51-8.42 11.4-12.43 3.73-3.83 7.57-8.01 9.51-13.24C471.69 1005.83 470.41 1000.43 467.18 995.99zM640.92 1167.09c1.12-4.81.89-9.9.39-14.78-.13-1.3-1.41-2.27-2.6-2.04-6.3 1.18-12.56 2.65-18.93 3.3-2.1.22-4.95.41-6.67-.11-.11-.04-.47-.23-.65-.3.01-.04.02-.08.03-.13.16-.52.41-.95.69-1.39 4.84-7.74 13.83-10.84 19.06-18.14 2.77-3.86 4.65-9.23 5.21-14.02.61-5.21-.98-10.16 1.39-15.08.87-1.8-.92-3.4-2.46-3.3-8.71.56-18.84-.4-26.7 4.4-6.97 4.26-9.53 12.25-11.43 20.08-.92 3.79-1.9 7.59-3.39 11.18-.82 1.97-2.34 5.48-4.79 5.19-2.56-.3-1.69-4.77-1.41-6.93.56-4.45 1.74-8.8 2.8-13.13 1.75-7.17 4.25-18.28-1.84-23.89-2.68-2.47-6.38-1.28-8.96.64-4.09 3.05-6.79 8.62-8.55 13.43-4 10.92.81 22.17-.71 33.29-.35 2.56-2.26 10.37-5.82 9.8-1.24-.2-2.33-2.17-2.87-3.18-1.32-2.5-2.36-5.59-2.38-8.47-.1-10.99 6.67-20.7 6.06-31.81-.27-4.87-2.59-10.78-6.22-13.85-3.08-2.6-7-1.7-9.96.55-3.58 2.73-5.9 7.4-7.42 11.68-1.75 4.95-2.36 10.24-1.62 15.48 1.48 10.47 7.75 20.03 4.21 30.81-.48 1.47-1.23 3.24-2.64 3.92-1.1.52-2.41-.62-3.19-1.3-3.5-3.06-5.82-9.01-6.59-13.62-.94-5.58.5-11.43 1.24-16.95.78-5.83.72-11.53-1.31-17.07-1.47-4.02-4.57-7.89-8.96-7.59-4.02.27-7.25 3.61-9.57 6.83-3.07 4.27-4.98 9.49-5.93 14.73-1.03 5.67.59 11.87 2.37 17.16 1.85 5.5 4.36 10.72 6.01 16.31.44 1.47.8 2.59 1.64 3.91.89 1.4 1.94 2.7 2.59 4.27.55 1.32-1.08 1.5-2.1 1.76-2.45.62-4.48-2.29-5.95-3.98-1.39-1.6-3.03-2.95-4.3-4.64-1.46-1.95-2.57-4.2-3.71-6.36-2.27-4.29-4.63-8.87-8.51-11.74-3.74-2.79-8.88-2.65-12.83-.39-8.29 4.74-6.32 17.13-2.49 24.35 2.45 4.62 6.06 7.65 10.66 9.67 5.67 2.48 11.68 3.12 16.09 7.79-1.69 1.95-3.78 2.52-6.59 1.91-3.86-.84-7.52-3.43-10.83-5.58-6.52-4.25-14.86-11.46-23.06-9.79-1 .2-1.83 1.02-1.93 2.14-.44 4.99-.02 9.94 2.63 14.19 2.2 3.53 6.04 5.55 9.7 6.84 6.54 2.3 14.25 2.54 20.34 6.17-1.83.33-3.63-.17-5.85-.77-3.96-1.05-7.71-.14-11.33 1.69-5.49 2.78-9.25 8.73-4.97 14.58 2.33 3.2 6.19 5.12 9.64 6.52 3.95 1.6 8.23 1.94 12.4 1.49 5.17-.56 10.11-2.61 14.71-5.3-5.29 12.34-6.77 30.73 8.28 34.25 12.86 3 7.53-15.28 8.61-25.17.39 1.45.65 2.95.91 4.36.75 4.07 1.29 8.17 2.36 12.16 2.01 7.44 6.88 13.59 14.8 12.39 6.83-1.03 4.56-8.89 2.87-13.47-1.38-3.74-4.63-10.15-3.41-14.74 4.73 8.09 9.99 17.1 18.76 20.14 3.98 1.37 10.08 1.91 13.77-.63 3.02-2.08 1.62-6.15.11-8.67-4.11-6.84-11.29-10.82-15.81-17.35-1.08-1.57-2.05-3.21-2.84-4.97-.29-.66-.57-1.35-.74-2.06-.06-.27-.05-.61-.06-.83.11-.03.24-.06.41-.05 1.04.04 2.04.39 3.02.74 2.21.79 4.06 2.01 5.68 3.79 3.09 3.39 5.39 7.45 8.72 10.64 3.74 3.58 8.48 5.05 13.4 5.36 4.37.27 9.37-.13 13.16-2.69 3.92-2.64 4.64-7.06 3.33-11.55-3.67-12.57-17.2-10.36-26.54-13.68-2.47-.89-4.82-2.43-6.95-4-.87-.64-3.51-2.46-3.5-3.81.01-.8 3.68-1.23 4.38-1.32 3.14-.38 5.91.15 8.81 1.41 7.35 3.16 13.5 9.39 21.74 9.82 5.41.29 12.58-1.93 14.33-8.14 1.86-6.58-4.35-12.53-9.64-14.4-6.64-2.35-14.61.35-20.43-4.3 2.24-2.71 5.45-3.65 9.17-3.72 5.43-.11 10.84 1.08 16.2 1.86 5.13.76 10.58 1.39 15.63-.22C636.46 1176.95 639.65 1172.54 640.92 1167.09z" clip-rule="evenodd" class="coloraab9de svgShape"></path><path fill="#aac4de" fill-rule="evenodd" d="M332.15,1033.18c-4.33-1.79-9.09-2.19-13.69-2.27c-1.22-0.02-2.28,1.21-2.23,2.49
		c0.31,6.81,0.88,13.63,0.68,20.46c-0.07,2.24-0.25,5.29-0.96,7.04c-0.04,0.11-0.27,0.47-0.36,0.64c-0.03-0.01-0.06-0.02-0.11-0.05
		c-0.46-0.23-0.83-0.56-1.21-0.92c-6.58-6.09-8.33-16-14.45-22.47c-3.24-3.42-8-6.08-12.38-7.29c-4.76-1.3-9.57-0.25-13.84-3.38
		c-1.56-1.14-3.28,0.55-3.38,2.19c-0.58,9.29-2.76,19.89,0.72,28.82c3.08,7.93,10.18,11.64,17.22,14.64c3.41,1.46,6.81,2.98,9.96,5
		c1.73,1.11,4.8,3.17,4.22,5.73c-0.61,2.67-4.64,1.18-6.63,0.61c-4.06-1.16-7.96-2.95-11.85-4.62c-6.44-2.75-16.46-6.8-22.44-1.08
		c-2.64,2.52-2,6.59-0.55,9.56c2.31,4.71,7.15,8.27,11.41,10.75c9.64,5.61,20.71,1.95,30.85,4.96c2.33,0.69,9.34,3.7,8.37,7.4
		c-0.34,1.29-2.31,2.19-3.33,2.64c-2.49,1.08-5.49,1.79-8.17,1.45c-10.22-1.28-18.41-9.68-28.81-10.44
		c-4.57-0.33-10.35,1.38-13.66,4.84c-2.81,2.93-2.47,7.19-0.75,10.61c2.08,4.13,6.13,7.18,9.92,9.33c4.38,2.48,9.23,3.8,14.18,3.68
		c9.93-0.24,19.61-5.68,29.17-0.55c1.31,0.7,2.86,1.7,3.31,3.29c0.35,1.23-0.88,2.48-1.62,3.21c-3.29,3.33-9.11,5.02-13.5,5.26
		c-5.31,0.29-10.57-1.97-15.61-3.45c-5.32-1.57-10.62-2.22-16.03-0.77c-3.93,1.05-7.91,3.84-8.19,8.52
		c-0.26,4.3,2.44,8.13,5.14,10.99c3.58,3.8,8.18,6.47,12.94,8.15c5.14,1.8,11.11,0.87,16.25-0.33c5.35-1.26,10.52-3.26,15.92-4.3
		c1.43-0.27,2.52-0.52,3.85-1.24c1.42-0.77,2.76-1.72,4.29-2.2c1.3-0.41,1.26,1.33,1.37,2.45c0.26,2.67-2.71,4.46-4.46,5.79
		c-1.66,1.27-3.12,2.83-4.86,3.96c-2,1.3-4.22,2.19-6.38,3.13c-4.27,1.86-8.83,3.78-11.99,7.52c-3.06,3.61-3.59,9.06-1.99,13.52
		c3.35,9.37,15.13,8.86,22.33,5.72c4.61-2.02,7.88-5.45,10.33-10.06c3.02-5.69,4.38-11.97,9.28-16.04c1.61,2.03,1.87,4.32,0.95,7.21
		c-1.27,3.98-4.14,7.52-6.56,10.75c-4.77,6.36-12.54,14.28-12.02,23.17c0.06,1.08,0.72,2.06,1.75,2.31
		c4.58,1.1,9.24,1.28,13.53-0.99c3.56-1.89,5.92-5.69,7.58-9.4c2.96-6.63,4.16-14.76,8.31-20.75c0.08,1.98-0.63,3.81-1.45,6.08
		c-1.48,4.06-1.11,8.15,0.14,12.21c1.89,6.16,6.94,10.89,12.92,7.11c3.26-2.06,5.54-5.9,7.28-9.37c1.99-3.98,2.85-8.46,2.96-12.93
		c0.14-5.55-1.14-11.03-3.06-16.24c10.81,7.16,27.71,11.05,32.89-4.43c4.42-13.24-13.25-9.9-22.31-12.3
		c1.4-0.23,2.82-0.31,4.18-0.41c3.87-0.27,7.76-0.33,11.6-0.96c7.17-1.18,13.5-5.57,13.39-14.1c-0.09-7.36-7.68-5.95-12.16-4.74
		c-3.64,0.99-10.03,3.61-14.13,1.74c8.12-3.99,17.16-8.41,21.09-17.31c1.79-4.04,3.05-10.43,1.16-14.66
		c-1.55-3.45-5.51-2.49-8.04-1.21c-6.88,3.49-11.49,10.59-18.13,14.54c-1.6,0.95-3.25,1.77-4.98,2.38
		c-0.65,0.23-1.33,0.44-2.01,0.52c-0.26,0.03-0.57-0.02-0.78-0.04c-0.02-0.12-0.03-0.27,0-0.45c0.17-1.09,0.63-2.11,1.07-3.1
		c1.01-2.24,2.37-4.04,4.24-5.54c3.55-2.84,7.61-4.76,10.99-7.88c3.8-3.5,5.77-8.33,6.68-13.5c0.8-4.59,1.07-9.93-0.83-14.27
		c-1.97-4.49-5.98-5.81-10.32-4.99c-12.15,2.3-11.81,16.9-16.08,26.36c-1.13,2.5-2.87,4.8-4.6,6.85c-0.71,0.84-2.73,3.41-3.98,3.23
		c-0.75-0.11-0.68-4.05-0.67-4.8c0.04-3.37,0.89-6.24,2.42-9.15c3.87-7.37,10.44-13.1,11.88-21.76c0.95-5.7-0.21-13.56-5.75-16.21
		c-5.88-2.79-12.2,3.02-14.61,8.39c-3.02,6.74-1.52,15.51-6.59,21.08c-2.24-2.71-2.7-6.23-2.3-10.18
		c0.59-5.77,2.38-11.34,3.79-16.91c1.35-5.34,2.62-11.03,1.77-16.57C340.76,1039.15,337.06,1035.22,332.15,1033.18z" clip-rule="evenodd" class="coloraab9de svgShape"></path><path fill="#bcd1e7" fill-rule="evenodd" d="M553.36,1100.15c-0.62-4.91-2.6-9.55-4.75-13.89c-0.57-1.15-2.1-1.55-3.12-0.87
		c-5.44,3.58-10.76,7.41-16.45,10.53c-1.87,1.02-4.46,2.33-6.23,2.51c-0.11,0.02-0.52-0.01-0.71-0.02c0-0.04-0.01-0.08-0.01-0.13
		c-0.03-0.54,0.05-1.05,0.16-1.58c1.82-9.08,9.1-15.52,11.44-24.36c1.24-4.67,1.13-10.41-0.01-15.08
		c-1.23-5.08-4.43-9.05-3.92-14.56c0.18-2.01-2.03-2.8-3.43-2.1c-7.9,3.95-17.65,7.05-23.29,14.61c-5.01,6.7-4.62,15.14-3.68,23.16
		c0.45,3.88,0.85,7.8,0.72,11.71c-0.08,2.16-0.28,6.02-2.65,6.71c-2.48,0.73-3.22-3.76-3.71-5.89c-1.01-4.36-1.42-8.86-1.94-13.3
		c-0.85-7.35-2.38-18.66-9.97-21.48c-3.35-1.23-6.37,1.32-8.1,4.12c-2.75,4.44-3.33,10.68-3.3,15.85
		c0.05,11.72,8.42,20.28,10.85,31.22c0.56,2.52,1.49,10.52-2.02,11.4c-1.23,0.3-2.92-1.1-3.77-1.83c-2.1-1.8-4.13-4.26-5.15-6.93
		c-3.89-10.17-0.96-21.87-5.37-31.95c-1.93-4.42-6.13-9-10.58-10.43c-3.76-1.2-7.09,1.17-9.06,4.43c-2.38,3.95-2.93,9.21-2.85,13.78
		c0.08,5.3,1.35,10.46,3.84,15.02c5,9.15,14.14,15.56,14.57,26.97c0.06,1.56-0.02,3.5-1.1,4.69c-0.84,0.92-2.46,0.37-3.42,0.05
		c-4.31-1.47-8.52-6.08-10.84-10.07c-2.81-4.82-3.49-10.82-4.71-16.25c-1.29-5.72-3.32-10.99-7.12-15.34
		c-2.76-3.16-6.97-5.53-10.95-3.53c-3.65,1.83-5.49,6.21-6.53,10.12c-1.38,5.18-1.35,10.77-0.42,16.02c1,5.68,4.65,10.8,8.14,15.02
		c3.62,4.39,7.76,8.25,11.22,12.79c0.91,1.2,1.65,2.1,2.88,2.99c1.32,0.95,2.74,1.74,3.88,2.94c0.96,1.02-0.48,1.83-1.34,2.46
		c-2.07,1.55-4.96-0.37-6.91-1.36c-1.84-0.94-3.84-1.54-5.6-2.61c-2.03-1.24-3.84-2.89-5.65-4.45c-3.6-3.08-7.37-6.41-11.97-7.56
		c-4.44-1.11-9.17,1.03-12.06,4.68c-6.07,7.67,0.05,18.41,6.11,23.62c3.88,3.33,8.28,4.73,13.25,4.79c6.13,0.08,11.94-1.7,17.64,0.9
		c-0.89,2.49-2.64,3.84-5.46,4.37c-3.88,0.74-8.17-0.23-11.99-0.92c-7.53-1.39-17.78-4.81-24.82-0.02
		c-0.86,0.58-1.34,1.68-1.05,2.75c1.31,4.81,3.42,9.25,7.36,12.15c3.27,2.42,7.53,2.79,11.38,2.54c6.87-0.44,14.12-3.26,21.04-2.28
		c-1.59,1.03-3.43,1.26-5.7,1.59c-4.04,0.58-7.21,2.9-9.94,6.03c-4.14,4.74-5.58,11.76,0.42,15.51c3.27,2.05,7.52,2.32,11.21,2.27
		c4.23-0.07,8.32-1.44,12.04-3.5c4.62-2.55,8.49-6.39,11.84-10.71c-0.65,13.55,4.33,31.22,19.54,28.56
		c13-2.27,1.72-17.16-0.71-26.78c0.86,1.19,1.62,2.48,2.36,3.7c2.1,3.48,4.02,7.08,6.4,10.37c4.44,6.13,11.1,9.92,18.04,5.69
		c5.99-3.65,1.17-10.05-2-13.65c-2.57-2.92-7.82-7.61-8.26-12.35c7.2,5.65,15.2,11.96,24.4,11.33c4.17-0.29,10.03-2.19,12.58-6.01
		c2.09-3.11-0.62-6.35-2.9-8.09c-6.19-4.74-14.24-5.61-20.69-9.9c-1.55-1.03-3.02-2.18-4.36-3.5c-0.5-0.49-1-1.03-1.4-1.62
		c-0.15-0.23-0.26-0.55-0.34-0.76c0.09-0.07,0.2-0.15,0.36-0.21c0.98-0.37,2.03-0.44,3.06-0.5c2.33-0.14,4.46,0.26,6.59,1.28
		c4.05,1.93,7.59,4.8,11.78,6.45c4.71,1.86,9.63,1.36,14.31-0.3c4.16-1.47,8.66-3.8,11.3-7.67c2.73-4.01,1.87-8.4-0.9-12.06
		c-7.76-10.24-19.58-2.86-29.4-2.27c-2.6,0.16-5.32-0.36-7.85-0.98c-1.03-0.26-4.12-0.91-4.57-2.16c-0.27-0.75,2.99-2.6,3.61-2.96
		c2.78-1.58,5.55-2.18,8.68-2.16c7.92,0.05,15.8,3.41,23.6,0.57c5.13-1.86,11.02-6.75,10.51-13.21c-0.55-6.85-8.38-9.93-13.94-9.58
		c-6.99,0.44-13.46,6.08-20.48,4.04c1.14-3.4,3.8-5.53,7.23-7.06c5.01-2.24,10.45-3.26,15.71-4.64c5.03-1.32,10.31-2.89,14.45-6.36
		C552.63,1111.07,554.06,1105.72,553.36,1100.15z" clip-rule="evenodd" class="colorbcc9e7 svgShape"></path><path fill="#bcd1e7" fill-rule="evenodd" d="M519.7,1053.11c-2.64,12.23-4.93,24.55-8.22,36.61c-3.38,12.38-8.19,23.83-14.82,34.62
		c-13.68,22.28-31.1,41.58-45.19,63.55c-0.58,0.91-0.48,1.8-0.02,2.46c-2.72,5.48-4.29,11.7-5.42,17.65
		c-1.97,10.37-2.57,21-2.96,31.56c-0.48,12.9-0.39,25.72,0.17,38.61c0.66,15.15,1.6,30.31,1,45.48c-0.04,0.88-0.08,1.76-0.13,2.64
		c-0.17,3.14,4.4,3.12,4.56,0c0.78-14.81-0.02-29.63-0.7-44.43c-0.61-13.19-0.88-26.31-0.44-39.51c0.34-10.21,0.82-20.44,2.45-30.51
		c1.49-9.16,3.86-19.53,10.34-26.23c0.92-0.95,0.83-2.15,0.25-3.01c13.17-19.1,28.26-36.65,40.46-56.52
		c6.53-10.63,11.18-22.11,14.61-34.27c3.46-12.28,5.74-24.9,8.44-37.4C524.76,1051.35,520.36,1050.05,519.7,1053.11z" clip-rule="evenodd" class="colorbcc9e7 svgShape"></path><path fill="#bcd1e7" fill-rule="evenodd" d="M445.26,1327.02c-2.47-23.67-12.68-44.85-23.25-65.44c-10.48-20.41-21.53-41.1-24.74-64.48
		c-0.43-3.1-4.82-1.77-4.4,1.3c6.42,46.64,42.91,81.53,47.83,128.62C441.02,1330.1,445.59,1330.14,445.26,1327.02z" clip-rule="evenodd" class="colorbcc9e7 svgShape"></path><path fill="#aac4de" fill-rule="evenodd" d="M512.33,1216.1c-19.52,9.09-38.65,23-51.75,41.12c-7.15,9.89-11.36,21.13-13.99,32.92
		c-1-12.29-3.11-24.46-5.31-36.55c-5.14-28.22-9.1-56.58-11.59-85.22c-0.99-11.37-1.72-22.75-2.22-34.15c-0.13-3.13-4.7-3.14-4.56,0
		c1.37,31.64,4.78,63.12,9.38,94.41c3.11,21.16,8.37,42.07,9.89,63.46c-1.72-11.56-4.31-22.97-7.63-34.1
		c-4.76-15.9-11.16-31.36-19.47-45.53c0.05-0.61-0.12-1.24-0.59-1.82c-0.56-0.67-1.14-1.34-1.71-1.99c-2.06-3.31-4.22-6.54-6.5-9.69
		c-1.02-1.4-2.48-0.9-3.24,0.23c-3.49-2.86-7.22-5.4-11.24-7.62c-9.38-5.17-21.05-8.53-25.54-19.87c-1.14-2.88-5.07-0.39-3.94,2.46
		c4.47,11.27,15.37,15.46,24.89,20.4c8.55,4.43,15.77,10.13,22.23,17.4c9.12,14.8,15.92,31.25,20.95,48.07
		c6.11,20.42,9.6,41.88,9.64,63.34c0,0.12,0.01,0.23,0.02,0.34c-0.31,1.59,0.87,2.64,2.11,2.74c0.61,2.21,4.28,1.9,4.48-0.88
		c1.67-23.02,4.13-47.19,17.95-65.97c12.76-17.33,31.25-30.53,50.05-39.29C517.32,1219.05,515,1214.85,512.33,1216.1z" clip-rule="evenodd" class="coloraab9de svgShape"></path><path fill="#d0dfee" fill-rule="evenodd" d="M375.8,1052.59c-4.14-2.23-8.85-3.12-13.42-3.68c-1.21-0.15-2.38,0.97-2.44,2.25
		c-0.31,6.81-0.36,13.66-1.18,20.44c-0.27,2.23-0.73,5.24-1.59,6.9c-0.05,0.11-0.31,0.45-0.42,0.61c-0.03-0.02-0.06-0.04-0.11-0.07
		c-0.44-0.27-0.78-0.64-1.12-1.03c-5.99-6.74-6.84-16.78-12.35-23.85c-2.91-3.74-7.41-6.88-11.67-8.53
		c-4.62-1.79-9.5-1.23-13.47-4.79c-1.45-1.3-3.32,0.2-3.57,1.83c-1.42,9.18-4.54,19.51-1.89,28.75c2.35,8.21,9.08,12.63,15.81,16.34
		c3.26,1.8,6.51,3.67,9.46,6.01c1.62,1.29,4.49,3.65,3.69,6.13c-0.84,2.6-4.73,0.7-6.65-0.07c-3.94-1.58-7.65-3.76-11.38-5.82
		c-6.16-3.41-15.76-8.47-22.24-3.39c-2.85,2.24-2.59,6.36-1.41,9.46c1.87,4.93,6.37,8.98,10.38,11.88
		c9.08,6.58,20.43,4.07,30.26,8.11c2.26,0.93,8.97,4.65,7.66,8.23c-0.46,1.25-2.5,1.95-3.55,2.28c-2.58,0.82-5.63,1.21-8.27,0.6
		c-10.06-2.33-17.44-11.53-27.73-13.36c-4.51-0.8-10.42,0.3-14.04,3.4c-3.06,2.63-3.11,6.91-1.7,10.49c1.7,4.33,5.45,7.78,9.03,10.3
		c4.14,2.93,8.84,4.74,13.78,5.12c9.9,0.78,20.03-3.62,29.09,2.45c1.24,0.83,2.7,1.99,3,3.61c0.23,1.26-1.1,2.37-1.9,3.03
		c-3.58,2.97-9.52,4.06-13.91,3.84c-5.31-0.26-10.34-3.05-15.22-5.05c-5.15-2.11-10.38-3.3-15.89-2.42c-4,0.64-8.22,3-8.92,7.63
		c-0.65,4.25,1.69,8.34,4.12,11.48c3.22,4.14,7.56,7.28,12.14,9.43c4.95,2.33,10.98,2.01,16.21,1.34c5.44-0.7,10.77-2.15,16.23-2.64
		c1.44-0.12,2.55-0.26,3.94-0.84c1.48-0.62,2.9-1.42,4.47-1.75c1.32-0.27,1.13,1.45,1.14,2.58c0.02,2.69-3.1,4.16-4.96,5.3
		c-1.77,1.08-3.36,2.5-5.2,3.45c-2.1,1.08-4.4,1.74-6.63,2.45c-4.42,1.42-9.13,2.86-12.62,6.24c-3.37,3.28-4.39,8.65-3.21,13.26
		c2.49,9.68,14.26,10.38,21.71,7.99c4.77-1.53,8.34-4.61,11.2-8.94c3.52-5.35,5.44-11.47,10.68-15.01c1.42,2.19,1.47,4.49,0.29,7.28
		c-1.63,3.83-4.8,7.06-7.51,10.02c-5.33,5.84-13.77,12.93-14.06,21.82c-0.04,1.08,0.53,2.13,1.53,2.48
		c4.46,1.57,9.08,2.23,13.56,0.41c3.71-1.51,6.41-5.05,8.4-8.57c3.55-6.3,5.47-14.26,10.15-19.8c-0.1,1.98-0.97,3.73-2,5.91
		c-1.84,3.89-1.84,7.99-0.96,12.16c1.32,6.33,5.93,11.56,12.22,8.41c3.44-1.72,6.05-5.3,8.1-8.59c2.34-3.75,3.6-8.12,4.11-12.57
		c0.64-5.5-0.14-11.09-1.58-16.47c10.11,8.24,26.58,13.86,33.14-1.02c5.6-12.72-12.29-11.22-21.09-14.54
		c1.41-0.08,2.84-0.01,4.19,0.02c3.88,0.13,7.75,0.48,11.63,0.24c7.25-0.44,13.94-4.15,14.61-12.66c0.57-7.34-7.11-6.71-11.68-5.96
		c-3.72,0.61-10.31,2.57-14.22,0.28c8.44-3.14,17.84-6.61,22.56-15.06c2.14-3.83,3.98-10.06,2.48-14.47
		c-1.23-3.59-5.26-3.05-7.9-2.03c-7.17,2.76-12.39,9.35-19.36,12.6c-1.68,0.78-3.39,1.42-5.18,1.86c-0.67,0.16-1.36,0.3-2.05,0.31
		c-0.26,0.01-0.57-0.08-0.77-0.13c-0.01-0.11-0.01-0.27,0.04-0.44c0.27-1.07,0.81-2.04,1.35-2.98c1.21-2.12,2.73-3.77,4.72-5.07
		c3.79-2.47,8.01-3.96,11.65-6.71c4.1-3.1,6.5-7.71,7.87-12.75c1.22-4.49,1.96-9.78,0.46-14.29c-1.55-4.68-5.42-6.4-9.82-6.03
		c-12.3,1.03-13.29,15.6-18.39,24.57c-1.35,2.38-3.29,4.48-5.2,6.35c-0.78,0.77-3.03,3.11-4.26,2.8c-0.73-0.19-0.31-4.11-0.23-4.85
		c0.35-3.35,1.45-6.11,3.24-8.86c4.52-6.94,11.57-11.96,13.8-20.44c1.46-5.57,1.02-13.52-4.26-16.72c-5.6-3.4-12.42,1.75-15.3,6.84
		c-3.62,6.4-2.92,15.28-8.46,20.3c-1.98-2.93-2.12-6.47-1.37-10.36c1.1-5.68,3.4-11.05,5.3-16.45c1.83-5.17,3.61-10.7,3.26-16.31
		C383.83,1059.41,380.5,1055.12,375.8,1052.59z" clip-rule="evenodd" class="colord0d9ee svgShape"></path><polygon fill="#bcd1e7" fill-rule="evenodd" points="497.06 1470.09 398.66 1470.09 366.46 1334.33 527.02 1334.33" clip-rule="evenodd" class="colorbcc9e7 svgShape"></polygon><rect width="179.79" height="17.65" x="355.73" y="1316.68" fill="#aac4de" fill-rule="evenodd" clip-rule="evenodd" class="coloraab9de svgShape"></rect><polygon fill="#aac4de" fill-rule="evenodd" points="446.74 1334.33 366.46 1334.33 398.66 1470.09 446.74 1470.09" clip-rule="evenodd" class="coloraab9de svgShape"></polygon><rect width="91.02" height="17.65" x="355.73" y="1316.68" fill="#8dabca" fill-rule="evenodd" clip-rule="evenodd" class="color8d9fca svgShape"></rect><polygon fill="#aac4de" fill-rule="evenodd" points="497.06 1472.13 398.66 1472.13 366.46 1453.8 527.02 1453.8" clip-rule="evenodd" class="coloraab9de svgShape"></polygon><polygon fill="#8dabca" fill-rule="evenodd" points="446.74 1453.8 366.46 1453.8 398.66 1472.13 446.74 1472.13" clip-rule="evenodd" class="color8d9fca svgShape"></polygon><path fill="#58669d" fill-rule="evenodd" d="M508.77,626.05h365.19c35.21,0,66.31,28.74,69.19,63.95l64.85,791.47c2.88,35.21-23.51,63.95-58.71,63.95
		H584.1c-35.21,0-66.31-28.74-69.19-63.95L450.06,690C447.17,654.79,473.56,626.05,508.77,626.05z" clip-rule="evenodd" class="color9d7558 svgShape"></path><path fill="#ffffff" fill-rule="evenodd" d="M510.17,643.1h365.19c25.79,0,48.62,21.1,50.74,46.9l64.85,791.47c2.11,25.79-17.26,46.9-43.05,46.9H582.7
		c-25.79,0-48.62-21.1-50.74-46.9L467.12,690C465,664.2,484.38,643.1,510.17,643.1z" clip-rule="evenodd" class="colorffffff svgShape"></path><path fill="#c1ddfa" fill-rule="evenodd" d="M511.75,662.34c119.76,0,245.43,0,365.19,0c15.21,0,28.68,12.45,29.92,27.66l64.85,791.47
		c1.25,15.21-10.18,27.66-25.39,27.66H581.12c-15.21,0-28.68-12.45-29.92-27.66L486.35,690
		C485.11,674.79,496.53,662.34,511.75,662.34z" clip-rule="evenodd" class="colorfadac1 svgShape"></path><path fill="#7cb8f4" fill-rule="evenodd" d="M1068.42 747.18l1.85-3.41c30.42 10.45 50.2 23.31 43.13 35.74-5.04 15.62-21.5 21.86-36.22 36.82-6.77-8.06-13.49-13.42-20.17-16.08-4.31-17.14-4.17-30.81.4-40.99l9.92-10.08L1068.42 747.18zM685.8 712.64c7.51.54 19.35-.91 21.45-3.57 7.98-10.14 13.52-20.73 15.57-27.39-1.56-4.44-3.19-10.04-4.89-16.82-28.93-19.65-32.89-34.19-11.86-43.62 4.24 2.38 9.49 9.69 15.78 21.95 5.01-.2 8.82-2.77 11.41-7.69-5.98-20.69-9.86-37.49-11.66-50.41 14.25-21.19 47.6-24.21 91.74-18.5 2.05 11.75 3.73 24.2 5.04 37.34 7.81 7.19 6.8 33.85-.39 64.57 3.59 17.47-7.19 27.01-32.36 28.6-.37 6.2.21 13.8.62 14.66.63 1.34 2.87 2.63 5.96 3.74l0 0C793.03 744.35 757.57 743.39 685.8 712.64z" clip-rule="evenodd" class="colorf4ae7c svgShape"></path><path fill="#021b79" fill-rule="evenodd" d="M813.33,566.6c-44.15-5.72-77.49-2.69-91.75,18.49c1.81,12.91,5.69,29.72,11.66,50.41
		c-2.59,4.92-6.39,7.49-11.4,7.69c-6.28-12.26-11.54-19.58-15.78-21.95c-21.02,9.43-17.07,23.96,11.86,43.62
		c1.7,6.77,3.33,12.38,4.89,16.82c-26.03-5.83-47.8-29.11-50.87-39.18c-30.36-59.84,3.5-85.12,21.62-94.33
		c8-59.26,94.05-6.88,137.17-35.45C847.87,536.39,826.68,566.08,813.33,566.6z" clip-rule="evenodd" class="color0f3970 svgShape"></path><path fill="#699cd0" fill-rule="evenodd" d="M1078.25,817.61c-21.84,93.54-60.22,166.13-115.12,217.77c-19.78-6.01-37.34-19.53-52.66-40.57
		c0.81,67.66-0.87,135.01-5.06,202.03c-40.07,19-93.27,17.77-159.6-3.68l-26.91-33.13c-6.91-1.34-22.6,6.29-30.14,17.93
		c-63-48.08-105.48-99.75-130.54-151.08c6.77-110.29,21.75-197.31,44.95-261.06c11.72-18.03,39.27-35.75,82.63-53.18
		c71.78,30.76,107.25,31.72,106.39,2.87c21.11,6.93,49.11,19.19,84.01,36.78c29.1,22.1,53.88,82.01,74.35,179.73
		c33.3-41.73,67.85-85.97,103.65-132.73C1062.16,801.55,1070.17,807.65,1078.25,817.61L1078.25,817.61z M704.39,1130.13
		c20.88-68.67,9.35-153.39-34.59-254.17c-11.06,49.72-23.01,98.66-35.86,146.82C648.87,1029.86,672.34,1065.65,704.39,1130.13z" clip-rule="evenodd" class="color6998d0 svgShape"></path><path fill="#021b79" fill-rule="evenodd" d="M696.58,1219.64c10.18-0.79,26.59-9.62,49.22-26.48c66.33,21.46,119.53,22.68,159.6,3.68
		c6.2,98.18-13.99,200.5-42.53,312.29h-88.31c2.04-44.28,8.01-102.13,8.4-143.09c-17.65,39.34-30.76,90.03-50.39,143.09h-79.73
		c-0.39-122.7,11.57-233.09,35.91-331.18C693.38,1189.76,695.98,1203.65,696.58,1219.64z" clip-rule="evenodd" class="color0f3970 svgShape"></path><path fill="#7cb8f4" fill-rule="evenodd" d="M745.8,1193.16c-22.63,16.86-39.04,25.69-49.22,26.48c-0.6-15.99-3.21-29.88-7.83-41.68
		c7.53-11.64,23.23-19.27,30.14-17.93L745.8,1193.16z" clip-rule="evenodd" class="colorf4ae7c svgShape"></path><path fill="#0575e6" fill-rule="evenodd" d="M910.47 994.81c-2.19-65.71-7.46-119.58-15.81-161.62 21.26 89.25 41.85 148.48 61.79 177.69 12.6-.4 28.56-7.87 47.89-22.4-12.51 17.19-26.25 32.83-41.21 46.9C943.34 1029.38 925.78 1015.86 910.47 994.81zM718.89 1160.03c-3.86-9.55-8.69-19.52-14.5-29.9 20.88-68.67 9.35-153.39-34.59-254.17 63.91 90.86 82.04 187.72 54.37 290.58L718.89 1160.03z" clip-rule="evenodd" class="color406fb5 svgShape"></path><path fill="#5b7aed" fill-rule="evenodd" d="M756.6,691.03c7.05,3.49,16.72,5.51,29.01,6.09c-0.24,4.16-0.06,8.95,0.2,11.91
		C773.46,706.65,763.72,700.65,756.6,691.03z" clip-rule="evenodd" class="colored7d5b svgShape"></path><path fill="#386fa7" fill-rule="evenodd" d="M695.91,1235.67c0.72-5.8,0.94-11.14,0.68-16.03c10.18-0.8,26.59-9.62,49.22-26.48
		c5.38,1.74,10.67,3.35,15.87,4.82C745.75,1214.54,723.83,1227.11,695.91,1235.67z" clip-rule="evenodd" class="color3860a7 svgShape"></path><path fill="#0f2886" fill-rule="evenodd" d="M1336,690.82c-14.61-8.78-51.66,26.04-82.75,77.77c-31.09,51.73-44.45,100.79-29.84,109.57
		c14.61,8.78,51.66-26.04,82.75-77.77C1337.26,748.66,1350.62,699.61,1336,690.82z" clip-rule="evenodd" class="color0f3d86 svgShape"></path><path fill="#0575e6" fill-rule="evenodd" d="M1124.44,644.46l-30.4-18.27c-6.91-4.15-21.75,7.85-33.14,26.8c-11.39,18.96-15.03,37.69-8.11,41.84
		l30.4,18.27c-6.91-4.15-3.28-22.89,8.11-41.85C1102.7,652.31,1117.53,640.31,1124.44,644.46z" clip-rule="evenodd" class="color406fb5 svgShape"></path><path fill="#699cd0" fill-rule="evenodd" d="M1091.3,671.27c10.54-17.53,24.02-29.11,31.45-27.47c65.81,31.19,132.81,46.91,200.98,47.15
		c-18.02,6.87-46.08,37.05-70.48,77.65c-24.68,41.07-38.19,80.45-35.4,99.34c-35.76-64.24-81.11-116.24-136.05-156
		C1076.87,706.13,1080.77,688.8,1091.3,671.27z" clip-rule="evenodd" class="color6998d0 svgShape"></path><path fill="#0575e6" fill-rule="evenodd" d="M1282.59,770.05l-20.85-14.95c-2.86,4.35-5.7,8.85-8.49,13.49c-3.64,6.07-7.05,12.1-10.2,18.04l23.2,10.59
		c7.92,3.62,17.26,2.05,21.75-5.42v0C1292.5,784.33,1289.68,775.13,1282.59,770.05z" clip-rule="evenodd" class="color406fb5 svgShape"></path><path fill="#0f2886" fill-rule="evenodd" d="M1055.59,742.17l16.13,9.69c-5.38,1.44-10.21,4.06-14.5,7.85l-8.95-5.38c-5.02-3.02-8.35-7.81-9.67-13.1
		c-1.32-5.29-0.63-11.08,2.39-16.1l16.5-27.46l12.16,7.31l-16.5,27.46c-1,1.66-1.23,3.59-0.79,5.36
		C1052.81,739.57,1053.92,741.17,1055.59,742.17L1055.59,742.17z M1111.19,774.92L1111.19,774.92c-2.27,3.75-4.95,5.75-8.06,5.99
		c-9.37-2.14-19.05-6.28-29.05-12.41c-1.71-0.99-3.01-1.89-3.9-2.71c-0.22,0.43-0.44,0.86-0.68,1.29l31.69,19.04
		c5,3.01,10.79,3.69,16.09,2.37c5.3-1.3,10.09-4.63,13.1-9.65l9.83-16.36c-3.4-3.5-6.86-6.94-10.36-10.32l-11.64,19.37
		c-1,1.66-2.6,2.77-4.36,3.21l-0.01,0.03C1112.99,774.99,1112.09,775.04,1111.19,774.92z" clip-rule="evenodd" class="color0f3d86 svgShape"></path><circle cx="1623.14" cy="967.29" r="122.51" fill="#aac4de" fill-rule="evenodd" clip-rule="evenodd" class="coloraab9de svgShape"></circle><path fill="#e9f0f8" fill-rule="evenodd" d="M1623.14,860.95c58.73,0,106.34,47.61,106.34,106.35c0,58.73-47.61,106.34-106.34,106.34
		c-58.73,0-106.35-47.61-106.35-106.34C1516.8,908.56,1564.41,860.95,1623.14,860.95z" clip-rule="evenodd" class="colore9eff8 svgShape"></path><path fill="#d0dfee" fill-rule="evenodd" d="M1640.07,987.08c-2.21-1.88-3.58-8.26-3.74-13.9c0.27-2.1,0.46-4.72,0.57-7.87
		c10.89-11.36,11.27-18.13,1.13-20.31c-1.64,1.44-3.27,5.16-4.88,11.14c-2.22,0.38-4.14-0.39-5.74-2.32
		c0.69-9.67,0.82-17.43,0.41-23.28c-8.27-7.99-23.22-6.19-42.12,0.46c0.2,5.37,0.63,11,1.29,16.91c-2.76,3.9,0.18,15.54,6.23,28.39
		c0.06,8.03,5.7,11.21,16.93,9.55l-0.89,2.83c-3.5,0.49-7.06,1.07-10.67,1.72c-18.62,37.75,17.11,53.08,51.31-1.48
		C1647.18,988.47,1643.91,987.85,1640.07,987.08z" clip-rule="evenodd" class="colord0d9ee svgShape"></path><path fill="#8dabca" fill-rule="evenodd" d="M1583.38,939.77c16.91-0.88,29.3-14.89,44.67-1.95c0.42,5.85,0.05,6.35-0.64,16.01
		c1.6,1.93,3.52,2.7,5.74,2.32c1.62-5.98,3.24-9.7,4.88-11.14c10.14,2.18,9.76,8.95-1.13,20.31c-0.11,3.14-0.3,5.77-0.57,7.87
		c0.16,5.64,1.53,12.02,3.74,13.9c3.84,0.77,7.11,1.38,9.82,1.85c4.62,1.02,9.01,2.23,13.1,3.62c10.05,3.41,18.29,7.92,23.61,13.53
		c3.65,11.32,6.79,24.21,9.41,38.67c3.3-3.11,6.41-6.42,9.29-9.92c-2.61-3.66-4.4-9.43-3.44-19.51
		c2.36-24.9-29.58-16.46-31.44-47.18c-3.02-50.14-23.76-55.7-33.73-56.47c-11.96-11.05-43.78-19.16-57.65-4.65
		C1566.72,919.9,1570.33,939.15,1583.38,939.77L1583.38,939.77z M1657.29,1068.04c3.33-1.13,6.59-2.42,9.76-3.86
		c-0.52-4.49-0.95-9.2-1.29-14.12C1662.31,1055.44,1659.49,1061.43,1657.29,1068.04L1657.29,1068.04z M1586.19,955.62
		c0.79,5.46,3.32,12.85,7.01,20.7c0.06,8.03,5.7,11.21,16.93,9.55l-0.89,2.83c-3.51,0.49-7.06,1.07-10.68,1.72
		c-8.73,1.55-13.56,4.42-15.05,6.44c-3.02,1.64-5.6,3.21-7.81,4.73c0.67-4.19,2.57-8.24,4.94-12.14c5.61-9.23-9.32-2.77-2.77-17.16
		C1581.64,964.02,1583.73,960.72,1586.19,955.62z" clip-rule="evenodd" class="color8d9fca svgShape"></path><path fill="#bcd1e7" fill-rule="evenodd" d="M1649.89,988.94c-34.21,54.56-69.94,39.23-51.31,1.48c-9.8,1.73-14.68,5.14-15.44,7.13
		c-25.71,28.03-16.41,44.2-8.22,64.55c14.48,7.38,30.87,11.54,48.23,11.54c11.94,0,23.43-1.97,34.15-5.6
		c2.2-6.61,5.03-12.6,8.48-17.98c-13.9,12.68-13.52-55.15-2.78-57.51C1658.89,991.17,1654.5,989.96,1649.89,988.94z" clip-rule="evenodd" class="colorbcc9e7 svgShape"></path><path fill="#d0dfee" fill-rule="evenodd" d="M1696 1044.75c-2.62-14.46-5.76-27.36-9.41-38.68-5.32-5.61-13.56-10.11-23.61-13.52-10.74 2.36-11.11 70.19 2.78 57.51.34 4.92.77 9.62 1.29 14.12C1677.77 1059.31 1687.53 1052.72 1696 1044.75zM1574.91 1062.1c-8.19-20.35-17.49-36.52 8.22-64.55.08-.21.21-.45.4-.69-14.54 7.87-18.78 14.16-20.81 21.13-2.9 9.96-5.15 20.5-6.98 31.57C1561.63 1054.39 1568.06 1058.6 1574.91 1062.1z" clip-rule="evenodd" class="colord0d9ee svgShape"></path><path fill="#bcd1e7" fill-rule="evenodd" d="M1607.78,993.2l0.59-1.8c3.21-1.81,9.08-5.57,17.61-11.28c-4.87,2.64-10.15,4.56-15.84,5.75l-0.89,2.83
		c-1.77,0.25-3.55,0.52-5.35,0.81C1605.78,990.38,1607.07,991.62,1607.78,993.2z" clip-rule="evenodd" class="colorbcc9e7 svgShape"></path><path fill="#aac4de" fill-rule="evenodd" d="M1648.03,1070.7c3.14-0.75,6.23-1.64,9.26-2.67c2.2-6.61,5.03-12.6,8.48-17.98
		c-9.72,8.87-12.46-21.63-9.55-41.58c-2.89,18.97-3.77,34.69-2.62,47.17C1651.44,1060.29,1649.58,1065.31,1648.03,1070.7z" clip-rule="evenodd" class="coloraab9de svgShape"></path><circle cx="1231.44" cy="1086.19" r="122.51" fill="#aac4de" fill-rule="evenodd" clip-rule="evenodd" transform="rotate(-45.001 1231.434 1086.212)" class="coloraab9de svgShape"></circle><path fill="#e9f0f8" fill-rule="evenodd" d="M1231.44,979.85c58.73,0,106.35,47.61,106.35,106.34c0,58.73-47.61,106.34-106.35,106.34
		c-58.73,0-106.34-47.61-106.34-106.34C1125.09,1027.46,1172.71,979.85,1231.44,979.85z" clip-rule="evenodd" class="colore9eff8 svgShape"></path><path fill="#d0dfee" fill-rule="evenodd" d="M1263.26,1104.86c-3.38,0.24-8.71-0.41-9.65-1.6c-3.59-4.56-6.08-9.33-7.01-12.32c0.7-2,1.43-4.52,2.2-7.56
		c13.02-8.84,14.8-15.38,5.34-19.62c-1.91,1.07-4.27,4.36-7.1,9.88c-2.26-0.09-3.97-1.25-5.13-3.46c2.69-9.31,4.44-16.87,5.25-22.68
		c-6.41-9.53-21.41-10.89-41.27-8.32c-0.92,5.29-1.68,10.88-2.27,16.8c-3.51,3.23-5.5,14.13-2.27,27.95
		c-3.2,7.37,5.68,13.25,17,13.97c0.16,2.79-0.1,6.21-0.28,6.59c-0.28,0.6-1.29,1.19-2.68,1.68l0,0
		C1215.02,1119.13,1230.97,1118.7,1263.26,1104.86z" clip-rule="evenodd" class="colord0d9ee svgShape"></path><path fill="#8dabca" fill-rule="evenodd" d="M1205.89,1039.16c19.86-2.57,34.86-1.21,41.28,8.32c-0.81,5.81-2.56,13.37-5.25,22.68
		c1.16,2.22,2.87,3.37,5.13,3.46c2.83-5.51,5.19-8.81,7.1-9.88c9.46,4.24,7.68,10.78-5.34,19.62c-0.77,3.05-1.5,5.57-2.2,7.56
		c12.93,1.78,22.97-10.65,22.88-17.63c19.53-20.08-1.57-38.29-9.73-42.44c-0.81-12.81-56.25-22.83-60.19-0.64
		C1198.6,1035.73,1201.74,1039,1205.89,1039.16z" clip-rule="evenodd" class="color8d9fca svgShape"></path><path fill="#bcd1e7" fill-rule="evenodd" d="M1309.15,1158.78c-2.54-11.02-1.04-26.65-4.31-35.62c-5.28-8.11-22.07-10.46-41.58-18.3
		c-32.29,13.84-48.25,14.27-47.86,1.29c-9.5,3.12-22.1,1.79-37.8,9.7c-8.09,6.15-15.45,25.66-22.06,44.82
		c19.3,19.66,46.17,31.86,75.89,31.86c12.49,0,24.48-2.16,35.62-6.12c1.08-2.67,2.21-5.36,3.4-8.09c0.46,2.09,0.93,4.17,1.4,6.24
		C1286.1,1178.72,1298.8,1169.86,1309.15,1158.78z" clip-rule="evenodd" class="colorbcc9e7 svgShape"></path><path fill="#aac4de" fill-rule="evenodd" d="M1267.06,1186.42c1.08-2.67,2.21-5.36,3.4-8.09c-2.09,2.97-4.07,5.95-5.94,8.95
		C1265.37,1187,1266.22,1186.72,1267.06,1186.42z" clip-rule="evenodd" class="coloraab9de svgShape"></path><path fill="#bcd1e7" fill-rule="evenodd" d="M1231.41,1095.14c-3.17,1.57-7.52,2.48-13.05,2.74c0.11,1.87,0.03,4.03-0.09,5.36
		C1223.83,1102.17,1228.21,1099.47,1231.41,1095.14z" clip-rule="evenodd" class="colorbcc9e7 svgShape"></path><path fill="#aac4de" fill-rule="evenodd" d="M1550.33,545.15c67.66,0,122.51,54.85,122.51,122.51c0,67.66-54.85,122.51-122.51,122.51
		c-67.66,0-122.51-54.85-122.51-122.51C1427.82,600,1482.67,545.15,1550.33,545.15z" clip-rule="evenodd" class="coloraab9de svgShape"></path><path fill="#e9f0f8" fill-rule="evenodd" d="M1550.33,561.31c-58.73,0-106.35,47.61-106.35,106.35c0,58.73,47.61,106.34,106.35,106.34
		c58.73,0,106.34-47.61,106.34-106.34C1656.68,608.93,1609.07,561.31,1550.33,561.31z" clip-rule="evenodd" class="colore9eff8 svgShape"></path><path fill="#bcd1e7" fill-rule="evenodd" d="M1561.52,702.52c6.48,3.73,8.47,9.87,12.86,12.14c12.73,1.2,25.27,2.18,31.25,6.32
		c6.58,7.95,12.8,15.65,18.67,23.08c-19.14,18.53-45.22,29.94-73.96,29.94c-29.26,0-55.76-11.82-74.99-30.94
		c7.09-9.36,13.7-17.71,19.8-25.08c10.96-2.56,19.15-3.9,24.54-4.01c2.31-2.73,5.73-5.07,10.27-7.01c-2.64,14.55-3.64,32-3.5,44.33
		C1547.24,736.06,1558.93,716.17,1561.52,702.52z" clip-rule="evenodd" class="colorbcc9e7 svgShape"></path><path fill="#aac4de" fill-rule="evenodd" d="M1519.69 713.98c-2.44 7.17-3.75 13.1-3.91 17.78 2.8-2.23 4.87-3.75 6.2-4.57 1.02 11.52 2.52 19.56 4.48 24.11-.14-12.33.86-29.78 3.5-44.33C1525.42 708.91 1522 711.25 1519.69 713.98zM1561.52 702.52c-2.59 13.65-14.28 33.54-35.06 48.78 12.42-4.41 26-15.2 33.78-29.56 1.29 4.86 2.91 10.53 4.88 17.03 5.41-6.7 8.49-14.73 9.26-24.11C1569.99 712.39 1568 706.25 1561.52 702.52z" clip-rule="evenodd" class="coloraab9de svgShape"></path><path fill="#d0dfee" fill-rule="evenodd" d="M1529.64,698.46c1.33,5.02,1.2,9.28-0.41,12.81c-2.11,13.59-2.91,28.9-2.78,40.04
		c19.84-14.55,31.39-33.33,34.65-46.88c-2.63-4.24-3.7-9.18-3.23-14.84c-0.49-2.65,1.02-7.58,4.51-14.78
		c11.88-2.06,14.82-12.03,9.88-19.95c-5.55-1.96-8.55,2.58-10.01,10.8c-3.17-0.47-1.95-5.52-1.63-7.89
		c1.48-6.85,0.24-10.54-2.25-17.04c-14.26,10.03-26.49,10.34-45.96,4.69c0.57,4.67,0.98,9.18,1.25,13.52
		C1508.34,671.94,1516.5,694.05,1529.64,698.46z" clip-rule="evenodd" class="colord0d9ee svgShape"></path><path fill="#8dabca" fill-rule="evenodd" d="M1512.43,645.42c19.47,5.65,31.7,5.34,45.96-4.69c2.5,6.49,3.74,10.18,2.25,17.04
		c-0.33,2.37-1.54,7.42,1.63,7.89c1.46-8.22,4.45-12.77,10.01-10.8c4.94,7.92,1.99,17.89-9.88,19.95c-3.49,7.2-5,12.13-4.51,14.78
		c-0.48,5.66,0.6,10.61,3.23,14.84c0.16-0.64,0.29-1.28,0.41-1.9c6.48,3.73,8.47,9.87,12.86,12.14c12.73,1.2,25.27,2.18,31.25,6.32
		c1.72,2.08,3.42,4.15,5.1,6.2c4.07-9.53,4.32-13.52,3.91-16.67c-2.05-15.58-14.12-23.75-19.06-37.21
		c-10.44-28.44-24.22-54.37-40.51-57.59c-20.11-3.97-25.43-2.89-30.49-2.56c-17.23,1.12-30.23,26.22-27.07,42.16
		c3.93,36.13-23.18,37.59-22.02,67.39c0.19,4.9,2.5,9.29,5.58,12.89c4.95-6.39,9.64-12.26,14.07-17.61
		c10.96-2.56,19.15-3.89,24.54-4.01c2.31-2.73,5.73-5.07,10.27-7.01c-0.25,1.41-0.5,2.84-0.72,4.3c1.6-3.52,1.74-7.79,0.41-12.81
		c-13.14-4.41-21.3-26.51-15.96-39.51C1513.41,654.6,1512.99,650.09,1512.43,645.42z" clip-rule="evenodd" class="color8d9fca svgShape"></path><path fill="#bcd1e7" fill-rule="evenodd" d="M1529.64,698.46c7.96,0.9,11.57,0.84,18.93-2.09c-4.31,4.66-10.32,7.21-18.04,7.66
		C1530.46,702.28,1530.17,700.43,1529.64,698.46z" clip-rule="evenodd" class="colorbcc9e7 svgShape"></path><circle cx="1523.2" cy="1316.97" r="122.51" fill="#aac4de" fill-rule="evenodd" clip-rule="evenodd" transform="rotate(-13.326 1523.43 1317.122)" class="coloraab9de svgShape"></circle><path fill="#e9f0f8" fill-rule="evenodd" d="M1523.2,1210.63c-58.73,0-106.35,47.61-106.35,106.35c0,58.73,47.61,106.34,106.35,106.34
		c58.73,0,106.34-47.61,106.34-106.34C1629.54,1258.24,1581.93,1210.63,1523.2,1210.63z" clip-rule="evenodd" class="colore9eff8 svgShape"></path><path fill="#d0dfee" fill-rule="evenodd" d="M1565.24,1334.54c-3.31,0.24-8.54-0.4-9.46-1.57c-3.52-4.48-5.97-9.15-6.87-12.09
		c0.69-1.96,1.41-4.43,2.16-7.42c12.77-8.67,14.51-15.08,5.24-19.25c-1.87,1.05-4.19,4.28-6.96,9.69c-2.21-0.09-3.89-1.22-5.03-3.39
		c2.64-9.13,4.35-16.54,5.15-22.24c-6.29-9.35-21-10.69-40.48-8.16c-0.9,5.18-1.65,10.68-2.22,16.48c-3.45,3.17-3,14.94,0.17,28.49
		c-1.58,7.71,3.17,11.92,14.28,12.62c0.16,2.74-0.09,6.09-0.27,6.47c-0.28,0.59-1.26,1.16-2.63,1.65v0
		C1517.93,1348.53,1533.58,1348.11,1565.24,1334.54z" clip-rule="evenodd" class="colord0d9ee svgShape"></path><path fill="#8dabca" fill-rule="evenodd" d="M1508.97,1270.11c19.48-2.53,34.19-1.19,40.48,8.16c-0.8,5.7-2.51,13.11-5.15,22.24
		c1.14,2.17,2.82,3.31,5.03,3.39c2.77-5.41,5.09-8.64,6.96-9.69c9.28,4.16,7.53,10.58-5.24,19.25c-0.75,2.99-1.47,5.46-2.16,7.42
		c11.48-2.58,21.09-12.85,22.44-17.29c13.4-26.41-1.54-37.56-9.54-41.62c-3.53-26.15-41.5-3.04-60.53-15.64
		C1493.73,1256.77,1503.08,1269.87,1508.97,1270.11z" clip-rule="evenodd" class="color8d9fca svgShape"></path><path fill="#bcd1e7" fill-rule="evenodd" d="M1608.55,1380.42c-2.06-8.08-4.35-15.56-6.84-22.42c-5.17-7.95-17.33-15.77-36.46-23.46
		c-31.67,13.57-47.32,13.99-46.94,1.27c-9.31,3.06-21.67,8.47-37.07,16.23c-9.31,7.08-17.63,22.94-24.94,47.59
		c18.28,14.81,41.55,23.69,66.91,23.69c16.7,0,32.49-3.85,46.56-10.71c0.82-1.99,1.67-3.99,2.55-6l0.94,4.22
		C1587.14,1403.39,1599.2,1392.98,1608.55,1380.42z" clip-rule="evenodd" class="colorbcc9e7 svgShape"></path><path fill="#aac4de" fill-rule="evenodd" d="M1469.75 1408.92c.95-7.69 2.06-14.75 3.34-21.18-1.7 7.15-3.4 13.87-5.08 20.15C1468.58 1408.24 1469.16 1408.58 1469.75 1408.92zM1569.76 1412.6c.82-1.99 1.67-3.99 2.55-6-1.64 2.33-3.21 4.68-4.72 7.03C1568.31 1413.3 1569.04 1412.95 1569.76 1412.6z" clip-rule="evenodd" class="coloraab9de svgShape"></path><path fill="#bcd1e7" fill-rule="evenodd" d="M1534,1325.01c-3.11,1.54-7.38,2.43-12.8,2.69c0.11,1.83,0.03,3.95-0.09,5.26
		C1526.57,1331.9,1530.86,1329.25,1534,1325.01z" clip-rule="evenodd" class="colorbcc9e7 svgShape"></path><path fill="#aac4de" fill-rule="evenodd" d="M1473.09 1387.74c6.82-23.77 22.25-39.37 46.28-46.8-.77-1.37-1.13-3.08-1.06-5.13-9.32 3.06-21.67 8.47-37.07 16.23-9.31 7.08-17.63 22.94-24.94 47.59 3.7 3.01 7.62 5.77 11.71 8.26C1469.69 1401.61 1471.38 1394.89 1473.09 1387.74zM1550.71 1340.24c20.13 13.99 27.33 36.11 21.59 66.36l.94 4.22c13.9-7.42 25.95-17.84 35.3-30.4-2.06-8.08-4.35-15.55-6.84-22.42-5.17-7.95-17.33-15.77-36.46-23.46C1559.95 1336.81 1555.11 1338.71 1550.71 1340.24z" clip-rule="evenodd" class="coloraab9de svgShape"></path><path fill="#d0dfee" fill-rule="evenodd" d="M1279.69,506.3c57.28-7.12,107.28,15.63,111.68,50.82c2.17,17.61-7.45,34.97-24.79,48.84l29.72,49
		l-53.95-34.24c-13.73,6.32-29.62,10.9-46.8,13.04c-57.3,7.13-107.3-15.62-111.68-50.82
		C1179.49,547.74,1222.39,513.43,1279.69,506.3z" clip-rule="evenodd" class="colord0d9ee svgShape"></path><path fill="#aac4de" fill-rule="evenodd" d="M1327.67,571.44c-2.79,19.93-21.21,33.81-41.14,31c-19.91-2.79-33.8-21.23-30.99-41.15
		c2.79-19.93,21.21-33.81,41.15-31C1316.59,533.09,1330.49,551.52,1327.67,571.44z" clip-rule="evenodd" class="coloraab9de svgShape"></path><path fill="#f5f6f7" fill-rule="evenodd" d="M1271.51,569.36c-1.5,10.66,5.91,20.51,16.58,22.01c10.64,1.5,20.5-5.93,21.99-16.57L1271.51,569.36z" clip-rule="evenodd" class="colorf5f6f7 svgShape"></path><path fill="#d0dfee" fill-rule="evenodd" d="M1334.23,1318.63l-96.74-8.64c-11.4-1.03-19.83-11.11-18.81-22.5l4.85-54.49c1.03-11.4,11.11-19.83,22.5-18.8
		l96.75,8.64c11.4,1.02,19.83,11.09,18.8,22.5l-4.85,54.47C1355.71,1311.22,1345.65,1319.63,1334.23,1318.63z" clip-rule="evenodd" class="colord0d9ee svgShape"></path><polygon fill="#d0dfee" fill-rule="evenodd" points="1356.23 1259.18 1389.49 1307.91 1340.96 1289.55" clip-rule="evenodd" class="colord0d9ee svgShape"></polygon><path fill="#ffffff" fill-rule="evenodd" d="M1321.47,1257.28l-12.4,0.78c0,0-16.59-10.37-17.41-14.48c-0.82-4.08,1.03-13.01-1.48-13.91
		c-2.51-0.9-7.72-1.34-10.5,4.39c-2.03,4.14,1.11,18.45-0.27,19.54c-0.86,0.69-7.99,1.33-13.2,1.73c-3.43,0.25-6.42,2.41-7.78,5.56
		l0,0c-0.92,2.14-0.21,4.63,1.67,5.96l2.98,2.09l-1.95,3.06c-1.44,2.3-0.77,5.31,1.51,6.78l2.32,1.48l-1.36,1.82
		c-1.75,2.35-1.07,5.69,1.47,7.17l2.05,1.22l-0.24,0.54c-1.03,2.34-0.11,5.06,2.13,6.29l2.05,1.14l33.07-2.11
		c3.1-0.19,6.13-1.03,8.89-2.43l11.51-2.68c1.23-0.27,2.07-1.42,1.96-2.7l-2.28-28.91
		C1324.08,1258.22,1322.87,1257.17,1321.47,1257.28z" clip-rule="evenodd" class="colorffffff svgShape"></path><path fill="#d0dfee" fill-rule="evenodd" d="M1404.85,834.16c35.76,0,64.75,21.27,64.75,47.5c0,14.15-8.43,26.84-21.81,35.54
		c6.64,6.3,15.49,11.47,26.55,15.49c-20.4,2.24-37.27,0.38-50.63-5.58c-5.97,1.33-12.3,2.05-18.86,2.05
		c-35.76,0-64.75-21.27-64.75-47.5C1340.1,855.43,1369.09,834.16,1404.85,834.16z" clip-rule="evenodd" class="colord0d9ee svgShape"></path><path fill="#ffffff" fill-rule="evenodd" d="M1404.6,869.77c-3.27-6.53-6.53-9.8-13.06-9.8c-7.21,0-13.06,5.85-13.06,13.06c0,13.07,13.06,22.84,26.13,35.9
		c13.07-13.06,26.13-22.84,26.13-35.9c0-7.21-5.85-13.06-13.06-13.06C1411.14,859.98,1407.87,863.24,1404.6,869.77z" clip-rule="evenodd" class="colorffffff svgShape"></path><polygon fill="#d0dfee" fill-rule="evenodd" points="508.27 555.88 383.85 607.11 418.1 650.72" clip-rule="evenodd" class="colord0d9ee svgShape"></polygon><polygon fill="#d0dfee" fill-rule="evenodd" points="366.25 586.56 504.47 556.16 332.37 569" clip-rule="evenodd" class="colord0d9ee svgShape"></polygon><polygon fill="#aac4de" fill-rule="evenodd" points="366.25 586.56 369.57 643.88 383.85 607.11 508.27 555.88 504.47 556.16" clip-rule="evenodd" class="coloraab9de svgShape"></polygon><polygon fill="#8dabca" fill-rule="evenodd" points="369.57 643.88 399.02 626.43 383.85 607.11" clip-rule="evenodd" class="color8d9fca svgShape"></polygon><path fill="#8dabca" fill-rule="evenodd" d="M348.65,615.42c3.27-0.8,4.18,3.92,1.29,4.63c-1.52,0.43-3.03,0.87-4.54,1.35c-3.44,0.84-4.14-3.92-1.42-4.59
		C345.53,616.32,347.09,615.86,348.65,615.42L348.65,615.42z M411.7,892.41c-1.57,2.7-5.75,0.34-4.14-2.44
		c0.8-1.35,1.57-2.71,2.31-4.1c1.69-2.91,5.72-0.3,4.24,2.26C413.33,889.58,412.54,891,411.7,892.41L411.7,892.41z M420.1,874.63
		c-0.79,2.75-5.5,1.77-4.54-1.56c0.51-1.47,0.99-2.95,1.42-4.45c0.88-3.06,5.49-1.71,4.62,1.31
		C421.15,871.51,420.64,873.07,420.1,874.63L420.1,874.63z M424.38,855.35c-0.51,3.24-4.89,2.69-4.78-0.43
		c0.15-1.53,0.24-3.09,0.28-4.63c0.11-3.26,4.91-2.96,4.8,0.1C424.64,852.03,424.54,853.72,424.38,855.35L424.38,855.35z
		 M423.56,835.56c0.67,2.76-3.89,4.28-4.72,0.88c-0.25-1.43-0.56-3.17-0.96-4.55c-0.76-3.14,3.92-4.19,4.65-1.18
		C422.96,832.24,423.28,833.98,423.56,835.56L423.56,835.56z M417.66,816.7c1.32,2.99-3.13,4.81-4.36,2.01
		c-0.65-1.42-1.32-2.8-2.04-4.19c-1.49-2.69,2.66-5.12,4.24-2.26C416.25,813.74,416.96,815.2,417.66,816.7L417.66,816.7z
		 M407.68,799.76c1.91,2.81-2.22,5.28-3.87,2.85c-0.91-1.26-1.88-2.52-2.86-3.72c-2-2.52,1.8-5.46,3.74-3.02
		C405.71,797.14,406.71,798.43,407.68,799.76L407.68,799.76z M394.8,784.99c2.33,2.39-1.26,5.59-3.34,3.45
		c-1.13-1.1-2.27-2.18-3.44-3.24c-2.47-2.54,1.28-5.56,3.23-3.56C392.45,782.75,393.63,783.85,394.8,784.99L394.8,784.99z
		 M379.92,772.35c2.56,1.9-0.33,5.74-2.85,3.87l-3.85-2.76c-2.7-2,0.35-5.72,2.74-3.95C377.3,770.44,378.61,771.39,379.92,772.35
		L379.92,772.35z M363.61,761.7c2.76,1.6,0.33,5.74-2.39,4.17l-4.13-2.29c-2.92-1.69-0.3-5.72,2.26-4.24L363.61,761.7L363.61,761.7z
		 M346.22,752.95c2.88,1.23,1.03,5.67-1.91,4.41l-4.37-1.84c-3.02-1.29-1-5.65,1.8-4.45C343.24,751.68,344.73,752.3,346.22,752.95
		L346.22,752.95z M328.09,746.12c2.96,1.27,1.47,5.41-1.6,4.53c-1.52-0.54-3.05-1.07-4.56-1.64c-3.17-1.36-0.97-5.63,1.68-4.5
		L328.09,746.12L328.09,746.12z M310.34,739.23c2.87,1.23,1.03,5.66-1.92,4.4c-1.49-0.64-2.96-1.3-4.43-1.98
		c-2.76-1.18-1.04-5.67,2.01-4.36C307.44,737.95,308.89,738.6,310.34,739.23L310.34,739.23z M293.37,730.84
		c2.73,1.58,0.33,5.74-2.41,4.15c-1.41-0.81-2.83-1.63-4.2-2.5c-2.54-1.47-0.37-5.76,2.56-4.06
		C290.62,729.28,292.02,730.07,293.37,730.84L293.37,730.84z M277.9,720.24c2.35,1.92-0.56,5.74-3.11,3.66
		c-1.27-1.07-2.5-2.2-3.7-3.35c-2.28-2.34,1.25-5.61,3.39-3.41C275.5,718.19,276.77,719.29,277.9,720.24L277.9,720.24z M266,706.42
		c1.51,2.73-2.67,5.11-4.22,2.29c-0.83-1.51-1.57-3.02-2.21-4.62c-1.15-2.62,3.09-4.89,4.49-1.71
		C264.6,703.78,265.28,705.12,266,706.42L266,706.42z M262.03,689.32c-0.1,2.9-4.91,3.05-4.79-0.38c0.16-1.75,0.4-3.39,0.78-5.1
		c0.96-3.33,5.47-1.66,4.68,1.09C262.37,686.41,262.16,687.81,262.03,689.32L262.03,689.32z M268,672.45
		c-1.49,2.57-5.76,0.37-4.08-2.54c0.86-1.42,1.81-2.8,2.79-4.14c1.9-2.56,5.74,0.33,3.87,2.85
		C269.67,669.86,268.79,671.14,268,672.45L268,672.45z M279.86,658.17c-2.22,2.16-5.63-1.22-3.32-3.47c1-1.09,2.5-2.32,3.63-3.32
		c2.02-1.96,5.67,1.18,3.14,3.64C282.33,655.81,280.71,657.25,279.86,658.17L279.86,658.17z M294.48,646.3
		c-2.69,1.83-5.3-2.21-2.76-3.94c1.32-0.94,2.68-1.85,4.04-2.74c2.53-1.72,5.33,2.19,2.62,4.02
		C297.08,644.51,295.76,645.39,294.48,646.3L294.48,646.3z M310.58,636.34c-2.73,1.51-5.1-2.67-2.3-4.22
		c1.39-0.76,2.87-1.6,4.29-2.28c2.61-1.44,5.13,2.65,2.19,4.27C313.37,634.83,311.97,635.57,310.58,636.34L310.58,636.34z
		 M327.64,628.02c-2.83,1.25-4.85-3.12-1.88-4.42l4.49-1.87c2.71-1.19,4.87,3.1,1.78,4.46
		C330.58,626.72,329.06,627.41,327.64,628.02z" clip-rule="evenodd" class="color8d9fca svgShape"></path><polygon fill="#d0dfee" fill-rule="evenodd" points="1032.76 1269.43 1123.32 1306.55 1098.45 1338.32" clip-rule="evenodd" class="colord0d9ee svgShape"></polygon><polygon fill="#d0dfee" fill-rule="evenodd" points="1136.09 1291.59 1035.53 1269.63 1160.72 1278.78" clip-rule="evenodd" class="colord0d9ee svgShape"></polygon><polygon fill="#aac4de" fill-rule="evenodd" points="1136.09 1291.59 1133.74 1333.28 1123.32 1306.55 1032.76 1269.43 1035.53 1269.63" clip-rule="evenodd" class="coloraab9de svgShape"></polygon><polygon fill="#8dabca" fill-rule="evenodd" points="1133.74 1333.28 1112.3 1320.63 1123.32 1306.55" clip-rule="evenodd" class="color8d9fca svgShape"></polygon><path fill="#8dabca" fill-rule="evenodd" d="M1157.03,1330.2c-2.95-0.37-2.28-4.66,0.45-4.32l4.34,0.47c2.9,0.36,2.29,4.66-0.49,4.32L1157.03,1330.2
		L1157.03,1330.2z M1305.51,1502.85c1.93,0,2.88,2.36,1.57,3.67c-0.32,0.38-0.97,0.67-1.57,0.67l-2.81-0.01
		c-2.81,0-2.87-4.34,0.04-4.34L1305.51,1502.85L1305.51,1502.85z M1289.82,1502.46c2.56,0,2.92,4.34-0.24,4.34l-4.37-0.27
		c-3.11-0.39-2.25-4.65,0.32-4.33L1289.82,1502.46L1289.82,1502.46z M1272.73,1500.83c2.7,0.34,2.33,4.67-0.65,4.3L1272.73,1500.83
		L1272.73,1500.83z M1256.14,1497.18c2.6,0.97,1.56,4.86-1.36,4.13c-1.43-0.46-2.83-0.96-4.22-1.5c-2.65-1.14-1.07-5.04,1.61-4.03
		C1253.47,1496.29,1254.81,1496.75,1256.14,1497.18L1256.14,1497.18z M1241.41,1489.76c2.26,1.89-0.59,5.16-2.73,3.38
		c-1.23-1.01-2.36-2.05-3.42-3.23c-1.93-2.32,1.52-4.95,3.26-2.87C1239.41,1488.03,1240.37,1488.91,1241.41,1489.76L1241.41,1489.76
		z M1233.28,1476.59c0.39,3.1-3.96,3.33-4.28,0.74c-0.28-1.55-0.45-3.05-0.51-4.63c0-2.99,4.34-2.84,4.34-0.11
		C1232.88,1473.95,1233.04,1475.26,1233.28,1476.59L1233.28,1476.59z M1234.45,1460.35c-0.66,2.64-4.91,1.75-4.19-1.15
		c0.38-1.42,0.8-2.89,1.29-4.28c1.07-2.84,5.06-1.12,4.11,1.39C1235.21,1457.64,1234.81,1459,1234.45,1460.35L1234.45,1460.35z
		 M1240.44,1444.44c-1.07,2.5-5.13,0.95-3.95-1.81c0.61-1.32,1.24-2.66,1.89-3.97c1.59-2.78,5.15-0.28,3.9,1.91
		C1241.64,1441.84,1241.03,1443.15,1240.44,1444.44L1240.44,1444.44z M1248.18,1429.03c-1.5,2.63-5.17,0.3-3.84-2.03l2.04-3.84
		c1.5-2.63,5.18-0.3,3.84,2.04C1249.53,1426.44,1248.85,1427.76,1248.18,1429.03L1248.18,1429.03z M1256.28,1413.6
		c-1.57,2.75-5.16,0.28-3.88-1.94l1.9-3.87c1.48-2.6,5.02-0.7,3.92,1.87L1256.28,1413.6L1256.28,1413.6z M1263.33,1397.38
		c-0.97,2.6-4.86,1.56-4.13-1.35c0.44-1.34,0.84-2.65,1.19-4.02c0.69-2.77,4.91-1.73,4.21,1.06
		C1264.22,1394.54,1263.8,1395.95,1263.33,1397.38L1263.33,1397.38z M1265.51,1379.35c0.35,2.84-3.95,3.38-4.31,0.54
		c-0.16-1.34-0.41-2.69-0.74-4c-0.7-2.81,3.52-3.82,4.21-1.08C1265.04,1376.31,1265.33,1377.82,1265.51,1379.35L1265.51,1379.35z
		 M1258.83,1362.34c1.7,2.37-1.88,4.84-3.51,2.56c-0.81-1.12-1.65-2.18-2.57-3.21c-1.97-2.36,1.53-4.94,3.22-2.91
		C1256.98,1359.88,1257.95,1361.12,1258.83,1362.34L1258.83,1362.34z M1245.71,1349.96c2.24,1.6,0.2,5.1-2.43,3.6
		c-1.17-0.79-2.35-1.54-3.56-2.26c-2.41-1.38-0.34-5.2,2.22-3.74C1243.22,1348.33,1244.48,1349.12,1245.71,1349.96L1245.71,1349.96z
		 M1230.02,1341.63c2.67,1.15,0.91,5.12-1.68,4.01c-1.31-0.56-2.64-1.08-3.96-1.59c-2.66-1-1.16-5.07,1.54-4.06
		C1227.29,1340.51,1228.66,1341.05,1230.02,1341.63L1230.02,1341.63z M1213.37,1335.83c2.6,0.65,1.76,4.92-1.19,4.18l-4.14-1.14
		c-2.71-0.68-1.74-4.91,1.1-4.2L1213.37,1335.83L1213.37,1335.83z M1196.34,1331.67c3,0.75,1.68,4.89-0.87,4.25l-4.23-0.84
		c-2.76-0.69-2.11-4.63,0.81-4.27L1196.34,1331.67L1196.34,1331.67z M1179.12,1328.62c2.7,0.34,2.32,4.67-0.65,4.29l-4.28-0.62
		c-2.75-0.34-2.32-4.67,0.6-4.3L1179.12,1328.62z" clip-rule="evenodd" class="color8d9fca svgShape"></path></svg>