<svg xmlns="http://www.w3.org/2000/svg" data-name="Layer 1" viewBox="0 0 2200 2501" id="ReferralMarketing"><g opacity=".1" fill="#000000" class="color000000 svgShape"><path fill="#86b8eb" d="M917.71 1325.75c11.65 22.81 1.29 66.72 1.29 66.72s16.83 15.92 65.41 15.92c37.2 0 11.27-70.59-4.58-76.61s-62.12-6.03-62.12-6.03Z" class="coloreb9086 svgShape"></path><path fill="#86b8eb" d="M1045.55 1325.75c-11.65 22.81-1.29 66.72-1.29 66.72s-16.83 15.92-65.41 15.92c-37.21 0-11.27-70.59 4.58-76.61s62.12-6.03 62.12-6.03ZM917.71 900.55c11.65-22.81 1.29-66.71 1.29-66.71s16.83-15.93 65.41-15.93c37.2 0 11.27 70.59-4.58 76.62s-62.12 6.02-62.12 6.02Z" class="coloreb9086 svgShape"></path><path fill="#86b8eb" d="M1045.55 900.55c-11.65-22.81-1.29-66.71-1.29-66.71s-16.83-15.93-65.41-15.93c-37.21 0-11.27 70.59 4.58 76.62s62.12 6.02 62.12 6.02Z" class="coloreb9086 svgShape"></path><path fill="#253059" d="M981.9 918.9c-107.29 0-194.52 87.24-194.52 194 0 107.29 87.23 194.52 194.52 194.52 106.74 0 194-87.23 194-194.52-.02-106.76-87.26-194-194-194Zm0 298a104.06 104.06 0 0 1-104-104c0-57.44 46.59-103.49 104-103.49a103.47 103.47 0 0 1 103.49 103.49c0 57.42-46.59 104.02-103.49 104.02Z" class="color592531 svgShape"></path><path fill="#86b8eb" d="M982 884.54c-126.32 0-229 102.67-229 228.29 0 126.27 102.66 228.94 228.93 228.94 125.63 0 228.29-102.67 228.29-228.94.02-125.62-102.64-228.29-228.22-228.29Zm0 350.73a122.47 122.47 0 0 1-122.44-122.44c0-67.6 54.84-121.8 122.44-121.8a121.78 121.78 0 0 1 121.8 121.8c-.05 67.6-54.89 122.44-121.8 122.44Z" class="coloreb9086 svgShape"></path><path fill="#86b8eb" d="M769 1049.23c-22.81 11.65-66.71 1.3-66.71 1.3s-15.93 16.82-15.93 65.4c0 37.21 70.59 11.27 76.61-4.58s6.03-62.12 6.03-62.12Z" class="coloreb9086 svgShape"></path><path fill="#86b8eb" d="M769 1177.07c-22.81-11.65-66.71-1.29-66.71-1.29s-15.93-16.83-15.93-65.41c0-37.2 70.59-11.27 76.61 4.58s6.03 62.12 6.03 62.12ZM1194.23 1049.23c22.81 11.65 66.71 1.3 66.71 1.3s15.93 16.82 15.93 65.4c0 37.21-70.59 11.27-76.62-4.58s-6.02-62.12-6.02-62.12Z" class="coloreb9086 svgShape"></path><path fill="#86b8eb" d="M1194.23 1177.07c22.81-11.65 66.71-1.29 66.71-1.29s15.93-16.83 15.93-65.41c0-37.2-70.59-11.27-76.62 4.58s-6.02 62.12-6.02 62.12ZM786.1 1218.28c-7.89 24.37-46.26 48.09-46.26 48.09s.64 23.16 35 57.51c26.31 26.31 57.88-41.94 50.93-57.41s-39.67-48.19-39.67-48.19Z" class="coloreb9086 svgShape"></path><path fill="#86b8eb" d="M876.5 1308.68c-24.37 7.9-48.09 46.26-48.09 46.26s-23.16-.64-57.51-35c-26.31-26.31 41.94-57.88 57.41-50.93s48.19 39.67 48.19 39.67ZM1086.76 917.62c24.37-7.89 48.09-46.26 48.09-46.26s23.16.64 57.51 35c26.31 26.31-41.94 57.89-57.41 50.94s-48.19-39.68-48.19-39.68Z" class="coloreb9086 svgShape"></path><path fill="#86b8eb" d="M1177.16 1008c7.89-24.37 46.26-48.09 46.26-48.09s-.64-23.16-35-57.51c-26.31-26.31-57.88 41.94-50.94 57.41s39.68 48.19 39.68 48.19ZM1177.16 1218.28c7.89 24.37 46.26 48.09 46.26 48.09s-.64 23.16-35 57.51c-26.31 26.31-57.88-41.94-50.94-57.41s39.68-48.19 39.68-48.19Z" class="coloreb9086 svgShape"></path><path fill="#86b8eb" d="M1086.76 1308.68c24.37 7.9 48.09 46.26 48.09 46.26s23.16-.64 57.51-35c26.31-26.31-41.94-57.88-57.41-50.93s-48.19 39.67-48.19 39.67ZM876.5 917.62c-24.37-7.89-48.09-46.26-48.09-46.26s-23.16.64-57.51 35c-26.31 26.31 41.94 57.89 57.41 50.94s48.19-39.68 48.19-39.68Z" class="coloreb9086 svgShape"></path><path fill="#86b8eb" d="M786.1 1008c-7.89-24.37-46.26-48.09-46.26-48.09s.64-23.16 35-57.51c26.31-26.31 57.88 41.94 50.93 57.41S786.1 1008 786.1 1008Z" class="coloreb9086 svgShape"></path><path fill="#253059" d="M598.42 1079.43c-159.34 0-288.91 129.56-288.91 288.1 0 159.34 129.57 288.91 288.91 288.91 158.54 0 288.1-129.57 288.1-288.91 0-158.53-129.52-288.1-288.1-288.1Zm0 442.62a154.56 154.56 0 0 1-154.52-154.52c0-85.31 69.21-153.71 154.52-153.71 84.5 0 153.71 68.4 153.71 153.71s-69.21 154.52-153.71 154.52Z" class="color592531 svgShape"></path><path fill="#aed1f5" d="M503.08 1683.69c17.3 33.88 1.92 99.08 1.92 99.08s25 23.66 97.14 23.66c55.26 0 16.75-104.84-6.8-113.79s-92.26-8.95-92.26-8.95Z" class="colorf5b6ae svgShape"></path><path fill="#aed1f5" d="M693 1683.69c-17.3 33.88-1.92 99.08-1.92 99.08s-25 23.66-97.14 23.66c-55.26 0-16.74-104.84 6.8-113.79s92.26-8.95 92.26-8.95ZM503.08 1052.18c17.3-33.88 1.92-99.09 1.92-99.09s25-23.65 97.14-23.65c55.26 0 16.75 104.84-6.8 113.79s-92.26 8.95-92.26 8.95Z" class="colorf5b6ae svgShape"></path><path fill="#aed1f5" d="M693 1052.18c-17.3-33.88-1.92-99.09-1.92-99.09s-25-23.65-97.14-23.65c-55.26 0-16.74 104.84 6.8 113.79s92.26 8.95 92.26 8.95Z" class="colorf5b6ae svgShape"></path><path fill="#aed1f5" d="M598.49 1028.39c-187.53 0-340 152.49-340 339.07 0 187.53 152.49 340 340 340 186.58 0 339.07-152.48 339.07-340 0-186.58-152.49-339.07-339.07-339.07Zm0 520.92c-100.4 0-181.85-81.45-181.85-181.85s81.45-180.9 181.85-180.9c99.45 0 180.9 80.5 180.9 180.9s-81.45 181.85-180.9 181.85Z" class="colorf5b6ae svgShape"></path><path fill="#aed1f5" d="M282.26 1273c-33.88 17.3-99.09 1.92-99.09 1.92s-23.65 25-23.65 97.14c0 55.26 104.84 16.74 113.79-6.8s8.95-92.26 8.95-92.26Z" class="colorf5b6ae svgShape"></path><path fill="#aed1f5" d="M282.26 1462.87c-33.88-17.3-99.09-1.92-99.09-1.92s-23.65-25-23.65-97.14c0-55.26 104.84-16.75 113.79 6.8s8.95 92.26 8.95 92.26ZM913.77 1273c33.88 17.3 99.09 1.92 99.09 1.92s23.65 25 23.65 97.14c0 55.26-104.84 16.74-113.79-6.8s-8.95-92.26-8.95-92.26Z" class="colorf5b6ae svgShape"></path><path fill="#aed1f5" d="M913.77 1462.87c33.88-17.3 99.09-1.92 99.09-1.92s23.65-25 23.65-97.14c0-55.26-104.84-16.75-113.79 6.8s-8.95 92.26-8.95 92.26ZM307.61 1524.08c-11.72 36.19-68.7 71.42-68.7 71.42s.94 34.39 52 85.41c39.08 39.08 86-62.29 75.65-85.27s-58.95-71.56-58.95-71.56Z" class="colorf5b6ae svgShape"></path><path fill="#aed1f5" d="M441.87 1658.34c-36.19 11.72-71.42 68.7-71.42 68.7s-34.39-.94-85.41-52c-39.08-39.08 62.29-86 85.27-75.65s71.56 58.95 71.56 58.95ZM754.16 1077.53c36.19-11.72 71.42-68.7 71.42-68.7s34.39.94 85.42 52c39.07 39.07-62.3 86-85.28 75.65s-71.56-58.95-71.56-58.95Z" class="colorf5b6ae svgShape"></path><path fill="#aed1f5" d="M888.42 1211.79c11.72-36.19 68.7-71.42 68.7-71.42s-.94-34.4-52-85.42c-39.08-39.07-86 62.3-75.65 85.27s58.95 71.57 58.95 71.57ZM888.42 1524.08c11.72 36.19 68.7 71.42 68.7 71.42s-.94 34.39-52 85.41c-39.08 39.08-86-62.29-75.65-85.27s58.95-71.56 58.95-71.56Z" class="colorf5b6ae svgShape"></path><path fill="#aed1f5" d="M754.16 1658.34c36.19 11.72 71.42 68.7 71.42 68.7s34.39-.94 85.42-52c39.07-39.08-62.3-86-85.28-75.65s-71.56 58.95-71.56 58.95ZM441.87 1077.53c-36.19-11.72-71.42-68.7-71.42-68.7s-34.39.94-85.41 52c-39.08 39.07 62.29 86 85.27 75.65s71.56-58.95 71.56-58.95Z" class="colorf5b6ae svgShape"></path><path fill="#aed1f5" d="M307.61 1211.79c-11.72-36.19-68.7-71.42-68.7-71.42s.94-34.4 52-85.42c39.08-39.07 86 62.3 75.65 85.27s-58.95 71.57-58.95 71.57Z" class="colorf5b6ae svgShape"></path></g><g opacity=".1" fill="#000000" class="color000000 svgShape"><path fill="#86b8eb" d="M1681.32 1039.4c11.65 22.81 1.29 66.71 1.29 66.71S1699.44 1122 1748 1122c37.2 0 11.27-70.59-4.58-76.62s-62.1-5.98-62.1-5.98Z" class="coloreb9086 svgShape"></path><path fill="#86b8eb" d="M1809.16 1039.4c-11.65 22.81-1.29 66.71-1.29 66.71S1791 1122 1742.46 1122c-37.21 0-11.27-70.59 4.58-76.62s62.12-5.98 62.12-5.98ZM1681.32 614.2c11.65-22.81 1.29-66.72 1.29-66.72s16.83-15.92 65.41-15.92c37.2 0 11.27 70.59-4.58 76.61s-62.12 6.03-62.12 6.03Z" class="coloreb9086 svgShape"></path><path fill="#86b8eb" d="M1809.16 614.2c-11.65-22.81-1.29-66.72-1.29-66.72s-16.83-15.92-65.41-15.92c-37.21 0-11.27 70.59 4.58 76.61s62.12 6.03 62.12 6.03Z" class="coloreb9086 svgShape"></path><path fill="#253059" d="M1745.51 632.55c-107.29 0-194.52 87.23-194.52 194 0 107.28 87.23 194.52 194.52 194.52 106.74 0 194-87.24 194-194.52-.02-106.77-87.26-194-194-194Zm0 298a104.06 104.06 0 0 1-104-104c0-57.44 46.6-103.5 104-103.5A103.48 103.48 0 0 1 1849 826.53c0 57.47-46.59 104.03-103.49 104.03Z" class="color592531 svgShape"></path><path fill="#86b8eb" d="M1745.56 598.18c-126.27 0-228.94 102.67-228.94 228.3 0 126.26 102.67 228.93 228.94 228.93 125.62 0 228.29-102.67 228.29-228.93 0-125.63-102.67-228.3-228.29-228.3Zm0 350.74a122.47 122.47 0 0 1-122.44-122.44c0-67.6 54.84-121.8 122.44-121.8a121.78 121.78 0 0 1 121.8 121.8c0 67.6-54.84 122.44-121.8 122.44Z" class="coloreb9086 svgShape"></path><path fill="#86b8eb" d="M1532.64 762.88c-22.81 11.65-66.71 1.29-66.71 1.29S1450 781 1450 829.58c0 37.2 70.59 11.27 76.61-4.58s6.03-62.12 6.03-62.12Z" class="coloreb9086 svgShape"></path><path fill="#86b8eb" d="M1532.64 890.72c-22.81-11.65-66.71-1.3-66.71-1.3S1450 872.6 1450 824c0-37.21 70.59-11.27 76.61 4.58s6.03 62.14 6.03 62.14ZM1957.84 762.88c22.81 11.65 66.71 1.29 66.71 1.29s15.93 16.83 15.93 65.41c0 37.2-70.59 11.27-76.62-4.58s-6.02-62.12-6.02-62.12Z" class="coloreb9086 svgShape"></path><path fill="#86b8eb" d="M1957.84 890.72c22.81-11.65 66.71-1.3 66.71-1.3s15.93-16.82 15.93-65.4c0-37.21-70.59-11.27-76.62 4.58s-6.02 62.12-6.02 62.12ZM1549.71 931.93c-7.89 24.37-46.26 48.09-46.26 48.09s.64 23.16 35 57.51c26.31 26.31 57.88-41.94 50.93-57.41s-39.67-48.19-39.67-48.19Z" class="coloreb9086 svgShape"></path><path fill="#86b8eb" d="M1640.11 1022.33c-24.37 7.89-48.09 46.26-48.09 46.26s-23.16-.64-57.51-35c-26.31-26.31 41.94-57.89 57.41-50.94s48.19 39.68 48.19 39.68ZM1850.37 631.27c24.37-7.9 48.09-46.26 48.09-46.26s23.16.64 57.51 35c26.31 26.31-41.94 57.88-57.41 50.93s-48.19-39.67-48.19-39.67Z" class="coloreb9086 svgShape"></path><path fill="#86b8eb" d="M1940.77 721.67c7.89-24.37 46.26-48.09 46.26-48.09s-.64-23.16-35-57.51c-26.31-26.31-57.89 41.94-50.94 57.41s39.68 48.19 39.68 48.19ZM1940.77 931.93C1948.66 956.3 1987 980 1987 980s-.64 23.16-35 57.51c-26.31 26.31-57.89-41.94-50.94-57.41s39.71-48.17 39.71-48.17Z" class="coloreb9086 svgShape"></path><path fill="#86b8eb" d="M1850.37 1022.33c24.37 7.89 48.09 46.26 48.09 46.26s23.16-.64 57.51-35c26.31-26.31-41.94-57.89-57.41-50.94s-48.19 39.68-48.19 39.68ZM1640.11 631.27C1615.74 623.37 1592 585 1592 585s-23.16.64-57.51 35c-26.31 26.31 41.94 57.88 57.41 50.93s48.21-39.66 48.21-39.66Z" class="coloreb9086 svgShape"></path><path fill="#86b8eb" d="M1549.71 721.67c-7.89-24.37-46.26-48.09-46.26-48.09s.64-23.16 35-57.51c26.31-26.31 57.88 41.94 50.93 57.41s-39.67 48.19-39.67 48.19Z" class="coloreb9086 svgShape"></path><path fill="#253059" d="M1362 793.07c-159.35 0-288.91 129.57-288.91 288.1 0 159.35 129.56 288.92 288.91 288.92 158.54 0 288.1-129.57 288.1-288.92.03-158.53-129.53-288.1-288.1-288.1Zm0 442.62a154.56 154.56 0 0 1-154.52-154.52c0-85.3 69.21-153.7 154.52-153.7 84.5 0 153.71 68.4 153.71 153.7s-69.18 154.52-153.71 154.52Z" class="color592531 svgShape"></path><path fill="#aed1f5" d="M1266.69 1397.34c17.3 33.88 1.92 99.08 1.92 99.08s25 23.65 97.14 23.65c55.26 0 16.75-104.84-6.8-113.79s-92.26-8.94-92.26-8.94Z" class="colorf5b6ae svgShape"></path><path fill="#aed1f5" d="M1456.56 1397.34c-17.3 33.88-1.92 99.08-1.92 99.08s-25 23.65-97.14 23.65c-55.26 0-16.75-104.84 6.8-113.79s92.26-8.94 92.26-8.94ZM1266.69 765.82c17.3-33.88 1.92-99.08 1.92-99.08s25-23.65 97.14-23.65c55.26 0 16.75 104.83-6.8 113.78s-92.26 8.95-92.26 8.95Z" class="colorf5b6ae svgShape"></path><path fill="#aed1f5" d="M1456.56 765.82c-17.3-33.88-1.92-99.08-1.92-99.08s-25-23.65-97.14-23.65c-55.26 0-16.75 104.83 6.8 113.78s92.26 8.95 92.26 8.95Z" class="colorf5b6ae svgShape"></path><path fill="#aed1f5" d="M1362.1 742c-187.53 0-340 152.48-340 339.06 0 187.54 152.49 340 340 340 186.58 0 339.07-152.48 339.07-340 0-186.54-152.49-339.06-339.07-339.06Zm0 520.91c-100.4 0-181.85-81.45-181.85-181.85s81.45-180.89 181.85-180.89c99.45 0 180.9 80.5 180.9 180.89S1461.55 1263 1362.1 1263Z" class="colorf5b6ae svgShape"></path><path fill="#aed1f5" d="M1045.87 986.64c-33.88 17.3-99.09 1.93-99.09 1.93s-23.65 25-23.65 97.14c0 55.26 104.84 16.74 113.79-6.81s8.95-92.26 8.95-92.26Z" class="colorf5b6ae svgShape"></path><path fill="#aed1f5" d="M1045.87 1176.52c-33.88-17.3-99.09-1.93-99.09-1.93s-23.65-25-23.65-97.14c0-55.26 104.84-16.74 113.79 6.8s8.95 92.27 8.95 92.27ZM1677.38 986.64c33.88 17.3 99.09 1.93 99.09 1.93s23.65 25 23.65 97.14c0 55.26-104.84 16.74-113.79-6.81s-8.95-92.26-8.95-92.26Z" class="colorf5b6ae svgShape"></path><path fill="#aed1f5" d="M1677.38 1176.52c33.88-17.3 99.09-1.93 99.09-1.93s23.65-25 23.65-97.14c0-55.26-104.84-16.74-113.79 6.8s-8.95 92.27-8.95 92.27ZM1071.22 1237.72c-11.72 36.19-68.7 71.43-68.7 71.43s.94 34.39 52 85.41c39.08 39.07 86-62.29 75.65-85.27s-58.95-71.57-58.95-71.57Z" class="colorf5b6ae svgShape"></path><path fill="#aed1f5" d="M1205.48 1372c-36.19 11.73-71.42 68.71-71.42 68.71s-34.39-1-85.41-52c-39.08-39.07 62.29-86 85.27-75.65s71.56 58.94 71.56 58.94ZM1517.77 791.18c36.19-11.73 71.42-68.71 71.42-68.71s34.39.95 85.41 52c39.08 39.07-62.29 86-85.27 75.65s-71.56-58.94-71.56-58.94Z" class="colorf5b6ae svgShape"></path><path fill="#aed1f5" d="M1652 925.44c11.72-36.19 68.7-71.43 68.7-71.43s-.94-34.39-52-85.41c-39.08-39.07-86 62.29-75.65 85.27s58.95 71.57 58.95 71.57ZM1652 1237.72c11.72 36.19 68.7 71.43 68.7 71.43s-.94 34.39-52 85.41c-39.08 39.07-86-62.29-75.65-85.27s58.95-71.57 58.95-71.57Z" class="colorf5b6ae svgShape"></path><path fill="#aed1f5" d="M1517.77 1372c36.19 11.73 71.42 68.71 71.42 68.71s34.39-1 85.41-52c39.08-39.07-62.29-86-85.27-75.65s-71.56 58.94-71.56 58.94ZM1205.48 791.18c-36.19-11.73-71.42-68.71-71.42-68.71s-34.39.95-85.41 52c-39.08 39.07 62.29 86 85.27 75.65s71.56-58.94 71.56-58.94Z" class="colorf5b6ae svgShape"></path><path fill="#aed1f5" d="M1071.22 925.44c-11.72-36.19-68.7-71.43-68.7-71.43s.94-34.39 52-85.41c39.08-39.07 86 62.29 75.65 85.27s-58.95 71.57-58.95 71.57Z" class="colorf5b6ae svgShape"></path></g><ellipse cx="1466.35" cy="1951.74" fill="#253059" rx="26.11" ry="37.35" transform="rotate(-28.75 1466.273 1951.672)" class="color592531 svgShape"></ellipse><path fill="#86b8eb" d="M1481.56 1943.39c.76 1.38 1.48 2.89 2.15 4.32 9.79 20.3-38 42.36-79.91 57.29-15.84 5.66-30.85 10.19-41.55 13.37-10 2.89-16.23 4.54-16.23 4.54a36.36 36.36 0 0 1-2.35-3.87c-9-15.72-7.75-27.82-7.75-27.82a75.05 75.05 0 0 0 9.64-3.27c8.32-3.44 21.35-10.14 36.59-22.42 1.06-.92 2.13-1.84 3.28-2.81 28-23.77 50.42-80.58 50.42-80.58s28.09 27.08 45.71 61.25Z" class="coloreb9086 svgShape"></path><path fill="#86b8eb" d="M1508.66 2014.86s-60-11.62-95.06-.78c-1.43.45-2.78.86-4.13 1.26-18.54 6.25-31.2 13.64-38.56 18.8a73.47 73.47 0 0 0-7.94 6.38s-10.41-5.28-18.73-20.45l-.57-1a35.64 35.64 0 0 1-2-4.06s4.76-4.41 12.55-11.26c8.43-7.31 20.31-17.53 33.6-27.85 35.12-27.34 79.39-55.78 91.25-36.61.85 1.33 1.74 2.75 2.49 4.13l.33.6c19.17 33.07 26.77 70.84 26.77 70.84Z" class="coloreb9086 svgShape"></path><path fill="#86b8eb" d="M1374.11 2030.76c38.25 17 61 35.75 61 35.75s-18.4-42.46-33.7-50.89-27.3 15.14-27.3 15.14Z" class="coloreb9086 svgShape"></path><path fill="#253059" d="m1381.85 1965 27.92 50.89c-18.58 6.18-31.23 13.58-38.59 18.76l-25.89-47.19c8.32-3.46 21.36-10.12 36.56-22.46Z" class="color592531 svgShape"></path><path fill="#dbedff" d="M1136.28 1683.65c-161.07 137.21-271.44 45.73-302.26-13.92-41.28-79.9 6-153.12 6-153.12s-170.8 96.53-294.31-81.54c-136.22-196.37 41.76-359.93 41.76-359.93S396.54 955.83 474.09 737.09s284.37-181 284.37-181S746.4 456.51 844 393.07c71.09-46.24 155.11-21.88 155.11-21.88s-40.8-245.09 163.02-252.55C1371.34 111 1325.2 397 1325.2 397s83.65-77.08 171.51-12.92c94 68.6 51.21 166 51.21 166s118.81 2.49 138.2 151.63c11.94 91.83-74.57 148.65-74.57 148.65s181.23 27.14 196.87 216.75c11.93 144.67-87.5 184.94-87.5 184.94s169.53 159.58 13.92 363.9c-137.37 180.39-381.8 67.62-381.8 67.62s-28 173.35-155.11 135.22c-59.66-17.79-61.65-135.14-61.65-135.14Z" class="colorffe0db svgShape"></path><g opacity=".7" fill="#000000" class="color000000 svgShape"><ellipse cx="1023.17" cy="592.98" fill="#253059" rx="67.61" ry="51.95" class="color592531 svgShape"></ellipse><path fill="#253059" d="M1073.53 612.84c16.61 17.38 15.78 44.43 15.78 44.43s-22.85-26.29-40.42-25.71c-17.28.56 24.64-18.72 24.64-18.72Z" class="color592531 svgShape"></path><ellipse cx="922.17" cy="573.46" fill="#86b8eb" rx="88.13" ry="67.72" class="coloreb9086 svgShape"></ellipse><path fill="#86b8eb" d="M856.53 599.35C834.87 622 836 657.27 836 657.27s29.79-34.27 52.69-33.52c22.48.73-32.16-24.4-32.16-24.4Z" class="coloreb9086 svgShape"></path></g><path fill="#253059" d="M1085.34 2205.74s1.93-6.21 5.54-17.87c4-12.06 8.79-28.65 13.38-48.22 9.82-41 20.26-102.56 23.23-178.39 7.17-151.71-11.37-360.87-13.65-569.7-.53-52.5-.36-104.9 1.68-156.56 1.81-51.62 6.49-102.62 10.78-150.82 4.27-48 3.69-94.17.22-138.48-3.94-44.74-.45-89.52 6.56-127.86 6.92-38.9 16.37-73.29 20.34-104.41a266.07 266.07 0 0 0-.7-80.86 271.93 271.93 0 0 0-13.12-50.88l-6.3-17.61 7.3 17.23a279 279 0 0 1 21.58 133c-2.25 32.06-9.81 67.4-14.35 105.69-4.6 38.76-5.67 79.14.7 123.36 6.1 44.59 9.49 93 7.92 142.37-1.54 49.18-3.24 98.84-2.12 149.68.91 50.78 3.71 102.43 7.18 153.92 14 207.06 44.6 412.29 46.51 573.15 1.43 80.35-5.77 148.27-14.46 196.35-4.5 25.06-8.69 43.1-11.77 54.38l-4.51 18.16Z" class="color592531 svgShape"></path><path fill="#253059" d="m1146.93 1667.43 6.23-3.6 7.28-4.29a65.45 65.45 0 0 1 5.59-4.71c9.65-8.1 22.25-25.77 32.38-52.53 10.66-26.37 20.3-60.51 34.45-96.42 7.29-17.89 15.31-36.37 25.73-54.11a284.85 284.85 0 0 1 35.87-50.48c29-32.21 63.91-53.14 94.72-74 30.72-20.66 56.7-43.48 72.6-68.51 16.74-24.45 24.26-48.57 29.68-65l6.74-26.63-4.76 27.14c-4.2 16.92-9.92 41.87-25.32 68.45a216.8 216.8 0 0 1-29.2 39.83c-12 12.92-26 25.08-40.78 36.93-29.61 23.17-62.18 47-84.85 76.48-23.82 30.69-38.72 66.19-49.69 100.86-10.85 34.82-17.71 68.86-27.26 99-8.95 30.15-22.88 56.26-38.89 72.16l-11.91 10.76-7.24 5-5.94 4Z" class="color592531 svgShape"></path><path fill="#253059" d="m1250.54 1478.65 9.48-10.83a226.44 226.44 0 0 1 29.7-27c26.15-20.35 67.92-37.52 110.52-41.34 21.14-2.39 42.62-2.37 61.9-2.11 19.45 0 36.89-4.18 50.1-12.36a73.46 73.46 0 0 0 25.94-26.3c4.52-7.92 5.76-13.09 5.76-13.09s-.86 5.23-4.86 13.57a75.67 75.67 0 0 1-24.81 28.93c-12.87 9.5-32 15.38-51.66 16.75-19.91 1.17-40.35 2.64-60.64 6.39-40.72 6.69-77.52 25.39-99.67 45.27a203 203 0 0 0-24.58 25.76l-8.69 11.47a11.94 11.94 0 1 1-19-14.41c.13-.25.33-.49.51-.7ZM1119.83 1555.6l-9.86-30.18c-6.86-17-16.46-41.45-36.07-67.54-18.64-26.37-47-52.21-81-79.13-33.22-26.85-72.32-59-94.76-102.87-12.07-20.84-19.29-45.17-25-66.66a530.87 530.87 0 0 1-10.69-67.39c-4-43.5-4.61-83.82-10.33-117.61-4.8-34-17.51-60.35-30.43-75.64-12.61-15.69-23.59-20.92-23-21.58-.6.69 10.68 5.15 24.52 20.23 14.13 14.59 29.09 41.11 36.22 75.52 8.07 34.17 11.28 74.81 18 117.15a522 522 0 0 0 14.27 63.57c7.4 21.82 14.82 41.85 27.1 60.37 22.59 37.82 58.68 64 93.88 88.94 35.47 24.51 69.4 51.24 92.83 80.18 24.11 28 38.08 57 47.34 76.82l11.78 29.48a23.88 23.88 0 0 1-44.29 17.85c-.15-.46-.34-1.05-.51-1.51ZM1140.42 1098.62l4.26-19a476.75 476.75 0 0 1 14.53-49.92c7.36-20.25 18.29-43.56 35.12-65.29 16.55-22 39.78-40.87 65.39-54.33 25.33-13.89 53.18-22.9 78-30.76 25.07-7.81 46.38-18.9 62.57-31.73 15.87-13 24.78-28.53 27.66-40.28 3.18-11.83 1.6-19.06 1.6-19.06s2.52 6.93.81 19.53c-1.14 12.58-9.06 30.29-25 45.44-15.6 15.37-38.87 27.63-63.87 36.91-25.26 9-51.59 17.27-75.78 31-24.3 13.07-45.65 30.84-60.9 51.42-15.58 20.33-25.53 42.54-32.79 62a462.38 462.38 0 0 0-15.3 48l-4.73 18.85a6 6 0 0 1-11.61-2.77ZM1131.54 973.37s-1.2-4.6-3.29-12.65c-2.16-8.24-5.9-18-13.2-29.86-13.58-23.91-47.16-45.09-69.14-77.53-21.77-32.53-29.1-71.37-31.59-99.57-1.9-14.18-1.56-26.12-2-34.43s-.37-13.06-.37-13.06l.88 13c.72 8.28.84 20.19 3.29 34.23 3.55 28 12.47 66 34.62 96.35 22 30.18 56.28 49.79 72.65 75.4a120.71 120.71 0 0 1 15.79 32.31l3.79 12.51a6 6 0 1 1-11.41 3.51Z" class="color592531 svgShape"></path><path fill="#253059" d="m1306.92 889.63 8.81-6.56a67.69 67.69 0 0 0 11.1-22.94c6.55-22.32 8.62-54.65 9.5-86.75s1.46-64.55 4.88-88.61a136.24 136.24 0 0 1 6.94-28.45c3.43-6.18 5.38-9.71 5.38-9.71l-4.9 9.9a135.19 135.19 0 0 0-5.57 28.48c-2.28 24-1.28 56.19-.77 88.44s.17 64.83-5.75 89.37a69.11 69.11 0 0 1-13.83 29.3c-5.48 4.5-8.62 7.06-8.62 7.06a6 6 0 1 1-7.56-9.23c.06-.06.32-.25.39-.3Z" class="color592531 svgShape"></path><path fill="#253059" d="M1320.4 884.34s5.28-.62 15-1a135.94 135.94 0 0 1 40.62 6.82c32.41 9.93 68.44 35.47 105.48 57.22 18.51 11 38.47 19.26 58.39 22.1s38.94 1.33 54.81-1.56c31.92-6.22 51.16-17 51.16-17s-18.81 11.5-50.78 18.89c-15.92 3.48-35.16 5.86-55.7 3.51-20.57-2.18-41.67-10.09-60.76-20.61-38.29-20.89-74.82-44.71-105.62-52.93a127.77 127.77 0 0 0-36.77-5.07c-9.2.68-14.7 1.5-14.7 1.5a6 6 0 0 1-1.77-11.8h.17Z" class="color592531 svgShape"></path><path fill="#021b79" d="M889.69 1240.11s-5.77-1.3-15.45-2.67c-4.07 1.42-8.78 1.13-14.75 3.6-5.89 2.91-12.89 5.38-19.54 10.68-27.92 18.68-58.6 53.66-90.67 86.65A666.66 666.66 0 0 1 700 1385c-17.15 13.24-33.84 25.14-50.15 31.35-8 3.58-15.44 6.21-22.55 7-6.94 1.34-12.94 2.73-18 1.83l-15.82-1 15.81.45c5.06.73 11-.85 17.81-2.39 7-1 14.29-3.81 22-7.59 15.85-6.62 32-18.93 48.46-32.53a659.62 659.62 0 0 0 47.43-47.8c30.95-33.89 60.21-69.86 89.28-90.84 6.79-5.75 14.7-9.06 21.32-12.48 6.81-3.18 14.82-3.64 20.41-4.81 10.17 1.12 15.75 2.2 15.75 2.2l.43.08a6 6 0 1 1-2.27 11.72Z" class="color591f50 svgShape"></path><path fill="#253059" d="M1471.24 2382.51H868.46c-65.86-83.05-40.09-170.86-1-201.41 41.54-32.45 83.54-22.43 83.54-22.43s-10.5-64 29.59-105.47c40.09-42 94-18.14 94-18.14s107.41-62.52 213.41 1.44c106 64.42 64 177.53 64 177.53s35.8-35.79 89.73-10.49c53.37 25.29 58.62 123.13 29.51 178.97Z" class="color592531 svgShape"></path><path fill="#ffffff" d="M1154.49 2303.83c-3.75-.32-7.65-.88-11.4-1.49a133.48 133.48 0 0 1-110.29-131c0-73.41 59.91-133.11 133.55-133.11s133.44 59.7 133.44 133.11a132.43 132.43 0 0 1-32 86.31 133.9 133.9 0 0 1-78.19 44.65c-3.82.61-7.69 1.17-11.56 1.49l-10.69.52Z" class="colorffffff svgShape"></path><path fill="#e6f2ff" d="M1295 2171.36a127.17 127.17 0 0 1-30.79 83.21 128.5 128.5 0 0 1-75.41 43.06c-3.64.62-7.38 1.14-11.13 1.46-2.18.2-4.36.31-6.55.41-1.25.11-2.49.11-3.74.11h-2.08c-1.25 0-2.5 0-3.75-.11-2.18-.1-4.37-.21-6.55-.41-3.74-.32-7.49-.84-11.13-1.46a128.64 128.64 0 0 1-106.3-126.27c0-70.83 57.63-128.34 128.77-128.34S1295 2100.53 1295 2171.36Z" class="colorffe9e6 svgShape"></path><path fill="#253059" d="M1127.35 2140.68c-6.17-12.35-5.36-33.15-3.73-37.87s8-3.08 8-3.08-2.6-12 21.94-13.49 47.29 1 52 9.26.82 45.67-2.11 48.43-76.1-3.25-76.1-3.25Z" class="color592531 svgShape"></path><path fill="#a3cefa" d="M1201 2141.17c2-2.28 4.88-3.25 7-1.3s-2.76 24.7-8.61 24.7 1.61-23.4 1.61-23.4ZM1131.63 2141.17c-2-2.28-4.87-3.25-7-1.3s2.76 24.7 8.61 24.7-1.61-23.4-1.61-23.4ZM1170.06 2256.86a26.24 26.24 0 0 1-6.24.21 6.41 6.41 0 0 1-1.36-.21c-17.16-2.29-41-16.85-28.6-22.57 9.78-4.47 11.75-13.73 12.38-25.48.21-5.1.1-10.61.31-16.54 0 0 12.69-.63 19.66.31a12.14 12.14 0 0 1 3.43.73c1.35.52 3.12 5.41 4.68 12.27 3.95 17.58 6.45 48.16-4.26 51.28Z" class="colorfab2a3 svgShape"></path><path fill="#a3cefa" d="M1170.06 2256.86a26.24 26.24 0 0 1-6.24.21 6.41 6.41 0 0 1-1.36-.21c-9.77-3-8.42-29.12-5.09-46.91 1.77-9 4-16 5.51-16.64a12.17 12.17 0 0 1 3.33-.73c7-.94 19.86-.31 19.86-.31.42 19.45-1.24 35.57 12.69 42 12.48 5.84-11.54 20.4-28.7 22.59Z" class="colorfab2a3 svgShape"></path><path fill="#0575e6" d="M1186.07 2192.27a26.61 26.61 0 0 1-11.75 13.31 33.38 33.38 0 0 1-17 4.37 38 38 0 0 1-11.13-1.14c.21-5.1.1-10.61.31-16.54 0 0 12.69-.63 19.66.31 7.02-.94 19.91-.31 19.91-.31ZM1200.6 2147.59c1-1.63 4.32-3.42 4.73-2.69s-3 14.77-5.06 12.08c-.92-1.21.33-9.39.33-9.39ZM1132 2147.59c-1-1.63-4.32-3.42-4.73-2.69s3 14.77 5.06 12.08c.93-1.21-.33-9.39-.33-9.39Z" class="colore69283 svgShape"></path><path fill="#a3cefa" d="M1201.86 2151.08c0 29.9-18.44 51.79-35.59 51.79-16.22 0-35.59-21.89-35.59-51.79S1128 2097 1166.27 2097c39.49 0 35.59 24.19 35.59 54.08Z" class="colorfab2a3 svgShape"></path><path fill="#1b2b68" d="M1162.36 2173.12a.32.32 0 0 0 .3-.29.36.36 0 0 0-.24-.42c-4.35-1-4.47-4.4-4.42-5.29a14.42 14.42 0 0 0 7.36-7.43c1.35-3.28 1.36-7.09 0-11.33a.31.31 0 0 0-.39-.2.39.39 0 0 0-.18.46c1.28 4 1.27 7.66 0 10.75a13.87 13.87 0 0 1-7.2 7.14l-.17.08v.21a5.82 5.82 0 0 0 4.88 6.31ZM1156.18 2150.58c.13 3.24-.88 5.9-2.25 6s-2.58-2.53-2.7-5.77.88-5.91 2.25-6 2.58 2.53 2.7 5.77ZM1176.43 2150.58c-.13 3.24.88 5.9 2.25 6s2.58-2.53 2.7-5.77-.88-5.91-2.25-6-2.58 2.53-2.7 5.77ZM1189.32 2135.29c1 1.93-11-1-11.47-2.23s.92-1.83 3.22-1.87 8 3.62 8.25 4.1ZM1143.29 2135.29c-1 1.93 11-1 11.47-2.23s-.92-1.83-3.22-1.87-8.01 3.62-8.25 4.1Z" class="color681b3d svgShape"></path><path fill="#5578fa" d="M1173.78 2184.75c0 2.19-2.94 4-6.57 4s-6.58-1.77-6.59-4 2.94-4 6.57-4 6.58 1.8 6.59 4Z" class="colorfa6855 svgShape"></path><path fill="#1b2b68" d="M1171.09 2185.72c-4.16.63-8.68.58-11.46-.45-.23-.09-.3-.29-.17-.46a.57.57 0 0 1 .64-.16c5.12 1.91 17 .2 19.47-2.81a.66.66 0 0 1 .65-.14c.22.09.29.3.15.46-1.37 1.65-5.16 2.93-9.28 3.56Z" class="color681b3d svgShape"></path><path fill="#6987fa" d="M1194.9 2161.68c.4 1.94-2.22 4.12-5.86 4.86s-6.9-.23-7.29-2.17 2.22-4.11 5.86-4.86 6.9.23 7.29 2.17ZM1137.7 2161.68c-.39 1.94 2.23 4.12 5.87 4.86s6.9-.23 7.29-2.17-2.23-4.11-5.86-4.86-6.9.23-7.3 2.17Z" class="colorfa7369 svgShape"></path><path fill="#253059" d="M1130.66 2140.19c.2-2.39 3.3-17.8 9.42-22.21s8.32-20.8-2.57-14.31-6.85 36.52-6.85 36.52ZM1202 2140.19c-.2-2.39-3.3-17.8-9.42-22.21s-8.32-20.8 2.57-14.31 6.85 36.52 6.85 36.52Z" class="color592531 svgShape"></path><path fill="#253059" d="M1135.9 2117.74c14.81 7.58 57.75 2.93 58.49-.25s13.09-13.21-1.59-18.23-30.84-11.5-43.56-5.51-17.75 15.18-16.89 19a7.26 7.26 0 0 0 3.55 4.99ZM1182.64 2163.17a12.16 12.16 0 1 1 12.16-12.17 12.18 12.18 0 0 1-12.16 12.17Zm0-22.24a10.08 10.08 0 1 0 10.09 10.08 10.1 10.1 0 0 0-10.09-10.08ZM1150 2163.17a12.16 12.16 0 1 1 12.15-12.16 12.17 12.17 0 0 1-12.15 12.16Zm0-22.24a10.08 10.08 0 1 0 10.08 10.08 10.1 10.1 0 0 0-10.08-10.08Z" class="color592531 svgShape"></path><path fill="#253059" d="m1161.75 2151.81-1.32-1.6a9.07 9.07 0 0 1 11.77 0l-1.36 1.58c-.19-.14-4.52-3.73-9.09.02ZM1194.64 2151.57l-1.75-1.12 9.8-15.25 1.75 1.13-9.8 15.24zM1137.85 2151.57l-9.8-15.24 1.74-1.13 9.81 15.25-1.75 1.12z" class="color592531 svgShape"></path><path fill="#86b8eb" d="M1168.12 2297.11a5.85 5.85 0 0 1-.73 2.5h-2.08c-1.25 0-2.5 0-3.75-.11-2.18-.1-4.37-.21-6.55-.41-3.74-.32-7.49-.84-11.13-1.46a127.69 127.69 0 0 1-75.41-43.06c11.76-5.82 26.74-8 39.32-11.23 2.6-.73 5.1-1.46 7.38-2.19a14.8 14.8 0 0 0 2.29-.93c1-.42 2.19-.84 3.12-1.25 1.25-.62 2.4-1.25 3.54-1.87 0 0 1.46.41 3.74.93.73.21 1.67.52 2.6.73 2.08.52 4.48 1.14 7.08 1.87l4.68 1.25c2.6.73 5.2 1.46 7.59 2.08l3.12.94a18.41 18.41 0 0 1 2.81.83h.1a15.34 15.34 0 0 1 2.29.73 19.48 19.48 0 0 1 1.87.62 8.51 8.51 0 0 1 1.46.42 4.23 4.23 0 0 1 2 2.08c0 .1.11.21.21.31v.1a1.74 1.74 0 0 0 .21.52 31.76 31.76 0 0 1 2.08 6.66c.11.73.31 1.56.42 2.39.31 1.67.52 3.54.73 5.51a.41.41 0 0 1 .1.32 16.08 16.08 0 0 1 .21 2.18 4.07 4.07 0 0 1 .1 1.15 16.1 16.1 0 0 1 .21 2.39 198 198 0 0 1 .39 26Z" class="coloreb9086 svgShape"></path><path fill="#86b8eb" d="M1264.22 2254.57a128.5 128.5 0 0 1-75.41 43.06c-3.64.62-7.38 1.14-11.13 1.46-2.18.2-4.36.31-6.55.41-1.25.11-2.49.11-3.74.11h-2.08a5.71 5.71 0 0 1-.73-2.5 196.23 196.23 0 0 1 .42-26 17.62 17.62 0 0 1 .2-2.39v-.11a2.7 2.7 0 0 1 .11-.93 14.75 14.75 0 0 1 .21-2.29.41.41 0 0 1 .1-.32c.21-2 .42-3.84.73-5.51a15.51 15.51 0 0 1 .52-2.39 37.07 37.07 0 0 1 1.77-6.34 2.05 2.05 0 0 1 .41-.63v-.1a.83.83 0 0 1 .21-.42v-.1a6.06 6.06 0 0 1 .94-1.25c.2-.21.31-.42.52-.52s.31-.21.52-.31a6.84 6.84 0 0 1 1.35-.42h.1c.52-.21 1.15-.41 1.87-.62a16.44 16.44 0 0 1 2.4-.73 18.27 18.27 0 0 1 2.8-.83l3.12-.94c6.45-1.77 14.15-3.85 19.35-5.2.94-.21 1.77-.52 2.6-.73h.1c.73-.21 1.36-.31 1.88-.52a15.49 15.49 0 0 0 1.76-.41 30.77 30.77 0 0 0 6.66 3.12 16.67 16.67 0 0 0 2 .83c2.39.83 5 1.56 7.69 2.29 12.57 3.22 27.55 5.41 39.3 11.23Z" class="coloreb9086 svgShape"></path><path fill="#253059" d="M1171.13 2299.5c-1.25.11-2.49.11-3.74.11h-2.08c-1.25 0-2.5 0-3.75-.11-2.18-.1-4.37-.21-6.55-.41.94-10.2 2.29-22 3.74-30.48h.11c.1-.1.1-.21.21-.21a19.58 19.58 0 0 1 4.47-2.8 5.46 5.46 0 0 1 2.08-.53.89.89 0 0 1 .52.11h.42a1.43 1.43 0 0 1 .62.21.1.1 0 0 0 .1.1c.32.21.52.83.84 2a3.87 3.87 0 0 1 .2 1.14v.11a12.24 12.24 0 0 1 .42 2.28c1.04 6.74 1.77 18.39 2.39 28.48Z" class="color592531 svgShape"></path><path fill="#253059" d="M1177.68 2299.09c-2.18.2-4.36.31-6.55.41-1.25.11-2.49.11-3.74.11h-2.08c-1.25 0-2.5 0-3.75-.11.63-10.09 1.36-21.74 2.39-28.5a11.89 11.89 0 0 1 .42-2.18.15.15 0 0 1 0-.21c0-.41.1-.73.1-.93a4.38 4.38 0 0 1 .94-2.19s.11 0 .11-.1a1.35 1.35 0 0 1 .62-.21h.42a.88.88 0 0 1 .52-.11 5 5 0 0 1 2 .53 16.41 16.41 0 0 1 3.54 2 4.84 4.84 0 0 1 1.25 1h.1c1.43 8.54 2.78 20.29 3.71 30.49Z" class="color592531 svgShape"></path><path fill="#6b83db" d="M1163.82 2250.51c-4.16 7.6-11.24 18-13.94 18.73-3.75.93-30.16-23.3-34.74-28.09a47 47 0 0 0 8.94-4.05s31.94 8.21 37.34 10.4c.84.31 1.67 1.35 2.4 3.01ZM1166.83 2242.92c.21.31-.1 1.46-.62 2.91-.63-1.45-.94-2.6-.73-2.91 0 0 .21-.1.73-.41a4.17 4.17 0 0 0 .62.41Z" class="colordb766b svgShape"></path><path fill="#6b83db" d="M1166.21 2242.51a4.17 4.17 0 0 0 .62.41c.21.31-.1 1.46-.62 2.91-.63-1.45-.94-2.6-.73-2.91 0 0 .21-.1.73-.41ZM1217.17 2241.05c-4.26 4.58-31 29.12-34.84 28.19-2.6-.73-9.46-10.93-13.73-18.41.83-1.77 1.66-2.92 2.6-3.33 5.41-2.19 37.34-10.4 37.34-10.4a44.71 44.71 0 0 0 8.63 3.95Z" class="colordb766b svgShape"></path><path fill="#1a244a" d="M1158.64 2268.51c4.41 4.53 15.27 2.51 15.29-.06s-15.29.06-15.29.06Z" class="color4a1a25 svgShape"></path><path fill="#253059" d="M1152.58 2255.64c1.22 4.16 5 12.6 6.12 13s10.15 0 10.15 0 2.33-23.74-2.57-24.72-13.7 11.72-13.7 11.72Z" class="color592531 svgShape"></path><path fill="#253059" d="M1180.05 2255.64c-1.22 4.16-5 12.6-6.12 13s-10.16 0-10.16 0-2.32-23.74 2.57-24.72 13.71 11.72 13.71 11.72Z" class="color592531 svgShape"></path><path fill="#86b8eb" d="M1166.94 2242.31s-27.52-13.66-29-13.44-21 10.19-20.59 11.27 29.69 25.13 33.59 24.27 17.06-20.59 16-22.1Z" class="coloreb9086 svgShape"></path><path fill="#86b8eb" d="M1165.69 2242.31s27.52-13.66 29-13.44 21 10.19 20.58 11.27-29.68 25.13-33.58 24.27-17.08-20.59-16-22.1Z" class="coloreb9086 svgShape"></path><path fill="#253059" d="M1143.88 2297.63a127.69 127.69 0 0 1-75.41-43.06c11.76-5.82 26.74-8 39.32-11.23 5.93 10.66 23.51 36.3 36.09 54.29ZM1264.22 2254.57a128.5 128.5 0 0 1-75.41 43.06c12.59-18 30.17-43.68 36.09-54.29 12.59 3.22 27.57 5.41 39.32 11.23Z" class="color592531 svgShape"></path><path fill="#ffffff" d="M763.83 1028c-3.78-.32-7.76-.88-11.44-1.49a133.3 133.3 0 0 1-110.25-131c0-73.41 59.86-133.11 133.43-133.11S909.1 822.15 909.1 895.56a132.93 132.93 0 0 1-31.92 86.31 135 135 0 0 1-78.18 44.65c-3.94.61-7.8 1.17-11.65 1.49l-10.63.52Z" class="colorffffff svgShape"></path><path fill="#e6f2ff" d="M904.34 895.54a127.74 127.74 0 0 1-30.79 83.21l-.1.1a129 129 0 0 1-75.31 43c-3.74.62-7.49 1.14-11.23 1.45-2.18.21-4.26.31-6.55.42-1.15.1-2.39.1-3.64.1h-2.19c-1.14 0-2.39 0-3.64-.1-2.29-.11-4.37-.21-6.55-.42-3.74-.31-7.59-.83-11.13-1.45a127.77 127.77 0 0 1-75.41-43l-.1-.1a127.74 127.74 0 0 1-30.79-83.21c0-70.83 57.63-128.35 128.66-128.35s128.77 57.52 128.77 128.35Z" class="colorffe9e6 svgShape"></path><path fill="#253059" d="M812.46 865.13c6.24-12.47 5.42-33.48 3.78-38.24s-8-3.12-8-3.12 2.63-12.14-22.15-13.62-47.77 1-52.53 9.36-.82 46.12 2.14 48.91 76.76-3.29 76.76-3.29Z" class="color592531 svgShape"></path><path fill="#a3cefa" d="M810.6 865.63c2-2.3 4.92-3.29 7.06-1.32s-2.79 25-8.7 25 1.64-23.68 1.64-23.68ZM740.57 865.63c-2-2.3-4.93-3.29-7.06-1.32s2.79 25 8.7 25-1.64-23.68-1.64-23.68ZM779.37 982.47a26.21 26.21 0 0 1-6.3.21 6.41 6.41 0 0 1-1.36-.21c-17.34-2.31-41.39-17-28.89-22.8 9.87-4.51 11.87-13.86 12.5-25.73.21-5.15.1-10.72.31-16.7 0 0 12.82-.63 19.86.31a12.26 12.26 0 0 1 3.46.74c1.37.52 3.15 5.46 4.73 12.39 3.99 17.75 6.51 48.64-4.31 51.79Z" class="colorfab2a3 svgShape"></path><path fill="#a3cefa" d="M779.37 982.47a26.21 26.21 0 0 1-6.3.21 6.41 6.41 0 0 1-1.36-.21c-9.88-3.05-8.51-29.41-5.15-47.38 1.78-9.13 4-16.17 5.57-16.8a12.3 12.3 0 0 1 3.36-.74c7-.94 20.06-.31 20.06-.31.42 19.64-1.26 35.92 12.82 42.43 12.63 5.89-11.66 20.59-29 22.8Z" class="colorfab2a3 svgShape"></path><path fill="#0575e6" d="M795.55 917.24a27 27 0 0 1-11.87 13.44 33.68 33.68 0 0 1-17.12 4.41 38.46 38.46 0 0 1-11.24-1.15c.21-5.15.1-10.72.31-16.7 0 0 12.82-.63 19.86.31 7.04-.94 20.06-.31 20.06-.31ZM810.44 871.59c1-1.66 4.39-3.48 4.81-2.73s-3.07 15-5.15 12.27c-.93-1.23.34-9.54.34-9.54ZM740.73 871.59c-1-1.66-4.39-3.48-4.81-2.73s3.07 15 5.14 12.27c.94-1.23-.33-9.54-.33-9.54Z" class="colore69283 svgShape"></path><path fill="#a3cefa" d="M811.5 875.64c0 30.19-18.63 52.3-36 52.3-16.38 0-35.94-22.11-35.94-52.3S736.87 821 775.55 821c39.88 0 35.95 24.45 35.95 54.64Z" class="colorfab2a3 svgShape"></path><path fill="#1b2b68" d="M771.6 897.89a.32.32 0 0 0 .3-.29.37.37 0 0 0-.24-.42c-4.4-1-4.51-4.45-4.46-5.35a14.53 14.53 0 0 0 7.43-7.5c1.36-3.3 1.37-7.15 0-11.43a.31.31 0 0 0-.39-.21.37.37 0 0 0-.18.46c1.28 4.09 1.28 7.74 0 10.86a14.09 14.09 0 0 1-7.26 7.22l-.18.07v.22a5.89 5.89 0 0 0 4.93 6.37ZM765.36 875.13c.13 3.27-.89 6-2.28 6s-2.6-2.56-2.73-5.83.9-6 2.28-6 2.61 2.56 2.73 5.83ZM785.81 875.13c-.13 3.27.89 6 2.27 6s2.61-2.56 2.73-5.83-.89-6-2.27-6-2.61 2.56-2.73 5.83ZM798.83 859.69c1 1.95-11.07-1-11.58-2.25s.92-1.85 3.25-1.89 8.08 3.65 8.33 4.14ZM752.34 859.69c-1 1.95 11.07-1 11.58-2.25s-.93-1.85-3.25-1.89-8.08 3.65-8.33 4.14Z" class="color681b3d svgShape"></path><path fill="#5578fa" d="M783.13 909.64c0 2.21-3 4-6.63 4s-6.65-1.78-6.66-4 3-4 6.64-4 6.65 1.78 6.65 4Z" class="colorfa6855 svgShape"></path><path fill="#1b2b68" d="M780.42 910.62c-4.2.64-8.77.59-11.58-.45a.3.3 0 0 1-.17-.47.58.58 0 0 1 .65-.16c5.17 1.93 17.11.2 19.66-2.84a.67.67 0 0 1 .66-.14c.22.1.29.31.15.47-1.41 1.66-5.21 2.97-9.37 3.59Z" class="color681b3d svgShape"></path><ellipse cx="797.82" cy="887.7" fill="#6987fa" rx="6.78" ry="3.62" transform="rotate(-11.55 797.512 887.407)" class="colorfa7369 svgShape"></ellipse><path fill="#6987fa" d="M746.7 886.35c-.4 1.95 2.25 4.15 5.92 4.9s7-.23 7.37-2.19-2.25-4.15-5.92-4.9-6.97.23-7.37 2.19Z" class="colorfa7369 svgShape"></path><path fill="#253059" d="M811.37 864.64c-.21-2.41-3.34-18-9.52-22.43s-8.4-21 2.6-14.46 6.92 36.89 6.92 36.89ZM739.36 864.64c.21-2.41 3.34-18 9.52-22.43s8.4-21-2.6-14.46-6.92 36.89-6.92 36.89Z" class="color592531 svgShape"></path><path fill="#253059" d="M806.07 842c-15 7.67-58.33 3-59.07-.24s-13.22-13.35 1.61-18.42 31.14-11.61 44-5.56 17.92 15.33 17.06 19.16a7.29 7.29 0 0 1-3.6 5.06Z" class="color592531 svgShape"></path><path fill="#86b8eb" d="M777.55 1012.65c0 1.46 0 2.92-.1 4.37s0 2.91-.11 4.27a5.64 5.64 0 0 1-.73 2.49h-2.08c-1.14 0-2.39 0-3.64-.1-2.29-.11-4.37-.21-6.55-.42-3.74-.31-7.59-.83-11.13-1.45a127.77 127.77 0 0 1-75.41-43c11.65-6.14 26.94-8.42 39.84-11.75a80.77 80.77 0 0 0 7.9-2.39c.53-.21 1.15-.42 1.67-.63 2.39-1 4.47-2.08 6.55-3.22l5.93 1.56c6.76 1.77 17.79 4.78 25 7a62 62 0 0 1 6.14 2 3.78 3.78 0 0 1 2 2.19c.2.31.31.41.31.62a37 37 0 0 1 2.39 8.63c0 .21.1.52.1.73a21.79 21.79 0 0 1 .42 2.81 1.62 1.62 0 0 1 .1.73 10.92 10.92 0 0 1 .21 2 .38.38 0 0 1 .11.32l.31 3.22a181.62 181.62 0 0 1 .77 20.02Z" class="coloreb9086 svgShape"></path><path fill="#86b8eb" d="M873.45 978.85a129 129 0 0 1-75.31 43c-3.74.62-7.49 1.14-11.23 1.45-2.18.21-4.26.31-6.55.42-1.15.1-2.39.1-3.64.1h-2.08a4.58 4.58 0 0 1-.73-2.49c-.1-1.36-.1-2.71-.1-4.16s-.21-2.92-.21-4.48c0-6.76.31-13.83.83-20.07.1-1.14.21-2.18.31-3.22a.38.38 0 0 1 .11-.32 10.69 10.69 0 0 1 .31-2 1.39 1.39 0 0 1 .1-.63 26 26 0 0 1 .31-2.91c0-.21.11-.52.11-.73a53 53 0 0 1 2.39-8.53 4.67 4.67 0 0 0 .31-.72 4.27 4.27 0 0 1 2.08-2.19 9.68 9.68 0 0 1 1.67-.62c1.14-.42 2.6-.83 4.36-1.35 7.08-2.19 18.21-5.2 25-7l5.92-1.56a56.56 56.56 0 0 0 6.56 3.22c.62.21 1.25.42 1.77.63 2.6.83 5.2 1.76 7.9 2.39 12.76 3.35 28.16 5.63 39.81 11.77Z" class="coloreb9086 svgShape"></path><path fill="#86b8eb" d="M780.7 979.33c-1.55 5.26-4.42 9.92-8.24 5.14a12.67 12.67 0 0 1-2.39-4.54c-1.92-6.1 1.55-11.59 5-12.67v-.12a1.35 1.35 0 0 1 1-.12.44.44 0 0 1 .36-.12s4.9.36 5.62 2.75c.32 1.08-.15 5.62-1.35 9.68Z" class="coloreb9086 svgShape"></path><path fill="#6b83db" d="M776 967a4.58 4.58 0 0 1-.48 1.56v.12a.42.42 0 0 0-.12.23c-.59 1.44-1.43 3.23-2.39 5.26-.83 1.8-1.91 3.83-3 5.74-4 7.05-8.61 14.1-10.76 14.7-3.58 1.07-27.48-22.83-33.81-29.88.59-.24 1.19-.48 1.67-.71l-.12-.12c0-1.44 18.88-11.24 20.43-11.48 1.44 0 22.71 10.52 27.72 13.15a.36.36 0 0 1-.23.12c-.12.12-.12.12 0 .36-.12.12-.12.47.11 1.07a1.35 1.35 0 0 1 .98-.12Z" class="colordb766b svgShape"></path><path fill="#6b83db" d="M825.75 964.75c-6.33 7-30.23 31-33.94 29.88-2.15-.6-7-8.13-11.11-15.3-1-1.79-1.79-3.46-2.63-5-1.07-2.15-1.91-4.06-2.51-5.61v-.12a9.11 9.11 0 0 1-.48-1.32v-.12a1.35 1.35 0 0 1 1-.12 1.59 1.59 0 0 0 .24-.95v-.36a.37.37 0 0 1-.24-.12c5-2.63 26.17-13.15 27.72-13.15 1.44.24 20.32 10 20.32 11.48l-.12.06Z" class="colordb766b svgShape"></path><path fill="#86b8eb" d="M776.28 966.07c.24.24-.12 1.19-.6 2.51h-.12v.12a.42.42 0 0 0-.12.23 49.64 49.64 0 0 1-2.63 4.67c-3.94 6.21-10 14.1-12.42 14.69-3.83 1-32-22.58-33.22-24.25l-.12-.12c0-1.44 18.88-11.24 20.43-11.48 1.44 0 22.71 10.52 27.72 13.15a.91.91 0 0 1 .48.24 5 5 0 0 1 .6.24Z" class="coloreb9086 svgShape"></path><path fill="#86b8eb" d="m824.08 963.92-.08.08c-1.08 1.67-29.28 25.21-33.1 24.25-2.39-.59-8.49-8.48-12.43-14.69a48.16 48.16 0 0 1-2.75-5h-.12c-.48-1.32-.83-2.27-.59-2.51a4.43 4.43 0 0 1 .59-.24h.12c.12-.12.24-.24.36-.24 5-2.63 26.17-13.15 27.72-13.15 1.4.26 20.28 10.06 20.28 11.5Z" class="coloreb9086 svgShape"></path><circle cx="775.61" cy="989.88" r="2.89" fill="#6b83db" class="colordb766b svgShape"></circle><circle cx="775.61" cy="1014.86" r="2.89" fill="#6b83db" class="colordb766b svgShape"></circle><path fill="#ffffff" d="M1332.36 990.31c-3.89-.33-7.87-.89-11.62-1.49a132.76 132.76 0 0 1-77-43.3c-21.88-25.45-33.23-56.12-33.23-87.72 0-73.35 59.86-133.06 133.43-133.06s133.53 59.71 133.53 133.06a133 133 0 0 1-31.92 86.37c-21.37 24.05-48.69 39.43-78.21 44.65-3.92.6-7.78 1.16-11.65 1.49l-10.61.51 2.19-4.85-2.19 4.85Z" class="colorffffff svgShape"></path><path fill="#e6f2ff" d="M1472.75 857.82A127.76 127.76 0 0 1 1442 941c-.42.42-.83.94-1.25 1.35a128.65 128.65 0 0 1-74.16 41.71c-3.74.62-7.49 1.14-11.23 1.46-2.19.2-4.27.31-6.56.41a6.39 6.39 0 0 1-1.45 0 14.61 14.61 0 0 1-2.19.11H1343a13.9 13.9 0 0 1-2.08-.11 7.4 7.4 0 0 1-1.56 0c-2.29-.1-4.37-.21-6.55-.41-3.75-.32-7.6-.84-11.24-1.46a127.47 127.47 0 0 1-74.15-41.71c-.42-.41-.84-.93-1.25-1.35a127.72 127.72 0 0 1-30.79-83.21c0-70.83 57.62-128.35 128.66-128.35s128.71 57.56 128.71 128.38Z" class="colorffe9e6 svgShape"></path><path fill="#253059" d="M1368 881.25c11.12 4.19 23.7-2.52 25.17-12.37a23.84 23.84 0 0 0-3.77-16.78s14-10.91 10.48-27.48-17.82-15.52-17.82-15.52 7.34-26.63-14.48-34.81-31.67 12.58-31.67 12.58-5.56-14-21.81-7.76c-22.86 8.81-12.37 37.33-12.37 37.33a21.14 21.14 0 0 0-18.46 17.41c-3.35 16.36 12 21.81 12 21.81s-12 14.68 1.47 25.17 33.13-4.19 33.13-4.19Z" class="color592531 svgShape"></path><path fill="#a3cefa" d="M1375.89 842.21c1.79-2.09 4.48-3 6.42-1.19s-2.54 22.68-7.91 22.68 1.49-21.49 1.49-21.49ZM1312.23 842.21c-1.79-2.09-4.48-3-6.42-1.19s2.54 22.68 7.91 22.68-1.49-21.49-1.49-21.49ZM1347.5 948.43a23.48 23.48 0 0 1-5.73.19 5.41 5.41 0 0 1-1.24-.19c-15.75-2.1-37.62-15.47-26.26-20.72 9-4.11 10.79-12.6 11.37-23.4.19-4.67.09-9.74.28-15.18 0 0 11.65-.57 18 .29a10.83 10.83 0 0 1 3.15.67c1.24.47 2.87 5 4.3 11.26 3.68 16.14 5.97 44.22-3.87 47.08Z" class="colorfab2a3 svgShape"></path><path fill="#a3cefa" d="M1347.5 948.43a23.48 23.48 0 0 1-5.73.19 5.41 5.41 0 0 1-1.24-.19c-9-2.77-7.73-26.74-4.68-43.07 1.63-8.3 3.63-14.7 5.07-15.27a10.84 10.84 0 0 1 3-.67c6.4-.86 18.24-.29 18.24-.29.38 17.86-1.15 32.66 11.65 38.58 11.51 5.35-10.55 18.72-26.31 20.72Z" class="colorfab2a3 svgShape"></path><path fill="#0575e6" d="M1362.21 889.13a24.48 24.48 0 0 1-10.79 12.22 30.65 30.65 0 0 1-15.57 4 34.43 34.43 0 0 1-10.21-1.05c.19-4.67.09-9.74.28-15.18 0 0 11.65-.57 18 .29 6.45-.85 18.29-.28 18.29-.28ZM1375.74 847.64c.91-1.51 4-3.17 4.37-2.49s-2.78 13.64-4.67 11.15c-.85-1.11.3-8.66.3-8.66ZM1312.37 847.64c-.9-1.51-4-3.17-4.37-2.49s2.79 13.64 4.68 11.15c.84-1.11-.31-8.66-.31-8.66Z" class="colore69283 svgShape"></path><path fill="#a3cefa" d="M1376.71 851.32c0 27.44-16.93 47.54-32.68 47.54-14.89 0-32.68-20.1-32.68-47.54s-2.48-49.7 32.68-49.7c36.26 0 32.68 22.25 32.68 49.7Z" class="colorfab2a3 svgShape"></path><path fill="#1b2b68" d="M1340.44 871.55a.29.29 0 0 0 .27-.27.32.32 0 0 0-.22-.38c-4-.89-4.1-4-4-4.86a13.27 13.27 0 0 0 6.75-6.82 15 15 0 0 0 0-10.4.3.3 0 0 0-.36-.19.35.35 0 0 0-.16.42 14.28 14.28 0 0 1 0 9.88 12.79 12.79 0 0 1-6.55 6.54l-.21.08v.2a5.33 5.33 0 0 0 4.48 5.79ZM1334.77 850.85c.11 3-.82 5.42-2.07 5.47s-2.37-2.32-2.49-5.29.82-5.42 2.07-5.47 2.37 2.32 2.49 5.29ZM1353.35 850.85c-.11 3 .81 5.42 2.07 5.47s2.37-2.32 2.48-5.29-.81-5.42-2.07-5.47-2.36 2.32-2.48 5.29ZM1365.19 836.82c.88 1.77-10.07-.92-10.53-2.05s.84-1.68 3-1.71 7.34 3.31 7.53 3.76ZM1322.93 836.82c-.88 1.77 10.06-.92 10.53-2.05s-.85-1.68-3-1.71-7.31 3.31-7.53 3.76Z" class="color681b3d svgShape"></path><ellipse cx="1344.88" cy="882.23" fill="#5578fa" rx="6.04" ry="3.65" transform="rotate(-.09 1329.85 873.214)" class="colorfa6855 svgShape"></ellipse><path fill="#1b2b68" d="M1348.46 883.12c-3.83.57-8 .53-10.53-.42-.21-.08-.28-.27-.16-.42a.54.54 0 0 1 .59-.14c4.71 1.75 15.56.17 17.87-2.59a.63.63 0 0 1 .61-.13.26.26 0 0 1 .13.43c-1.28 1.52-4.74 2.69-8.51 3.27Z" class="color681b3d svgShape"></path><path fill="#6987fa" d="M1370.32 861.05c.36 1.78-2 3.77-5.38 4.46s-6.34-.21-6.7-2 2-3.78 5.38-4.46 6.38.22 6.7 2ZM1317.8 861.05c-.36 1.78 2 3.77 5.38 4.46s6.34-.21 6.7-2-2-3.78-5.38-4.46-6.34.22-6.7 2Z" class="colorfa7369 svgShape"></path><path fill="#253059" d="M1310.8 840.74c6.31 8.22 14.6-16.63 14.6-16.63s6.64 9.27 22.95 9 20.43-11.79 20.43-11.79-2.08 22 7.81 20.09 5.14-39.67-13.92-39.88-39.79-7.79-45.16.84-13 24.22-11.37 29.06a40.84 40.84 0 0 0 4.66 9.31Z" class="color592531 svgShape"></path><path fill="#86b8eb" d="M1347.32 986a14.61 14.61 0 0 1-2.19.11H1343a13.9 13.9 0 0 1-2.08-.11 7.4 7.4 0 0 1-1.56 0c-2.29-.1-4.37-.21-6.55-.41-3.75-.32-7.6-.84-11.24-1.46a127.47 127.47 0 0 1-74.15-41.71c22.15-8.74 50.54-5.93 68.12-15.39a21.46 21.46 0 0 0 8.43 15.39 31.83 31.83 0 0 0 14.87 5.1c.83 0 1.66.1 2.39.1h.31a19.09 19.09 0 0 0 2.5.11 19.86 19.86 0 0 0 2.5-.11s.2.11.31 0a1.26 1.26 0 0 1 1 .63.1.1 0 0 1 .1.1c3.63 4.02.72 26.38-.63 37.65Z" class="coloreb9086 svgShape"></path><path fill="#86b8eb" d="M1440.72 942.38a128.65 128.65 0 0 1-74.16 41.71c-3.74.62-7.49 1.14-11.23 1.46-2.19.2-4.27.31-6.56.41a6.39 6.39 0 0 1-1.45 0 14.61 14.61 0 0 1-2.19.11H1343a13.9 13.9 0 0 1-2.08-.11c-1.46-11.23-4.26-33.59-.83-37.65l.1-.1a1.27 1.27 0 0 1 1-.63h.31a19.09 19.09 0 0 0 2.5.11 19.86 19.86 0 0 0 2.5-.11s.2.11.31 0a22.16 22.16 0 0 0 2.7-.21c5-.52 10.3-1.87 14.67-5a21.16 21.16 0 0 0 8.32-15.39.1.1 0 0 1 .1.1l1.25.63c17.67 8.53 45.34 6.29 66.87 14.67Z" class="coloreb9086 svgShape"></path><path fill="#ffffff" d="M1626.41 1158.51c-3.68-.28-7.58-.84-11.35-1.49a131.75 131.75 0 0 1-76.2-42.41 124.55 124.55 0 0 1-8.42-10.3 130.79 130.79 0 0 1-25.68-78.25c0-73.41 59.92-133.11 133.56-133.11s133.43 59.7 133.43 133.11a131.6 131.6 0 0 1-23.3 75.08c-2.73 3.87-5.64 7.69-8.62 11.19a36.38 36.38 0 0 1-3.78 4 132.47 132.47 0 0 1-74.45 40.67c-3.85.65-7.72 1.21-11.61 1.49l-10.65.52Z" class="colorffffff svgShape"></path><path fill="#e6f2ff" d="M1767 1026.05a127.23 127.23 0 0 1-22.47 72.39c-2.6 3.75-5.41 7.39-8.32 10.82a35.59 35.59 0 0 1-3.33 3.54 127.41 127.41 0 0 1-72.08 39.52c-3.64.62-7.38 1.14-11.13 1.46-2.18.2-4.36.31-6.55.41-1.25.11-2.49.11-3.74.11h-2.08c-1.25 0-2.5 0-3.75-.11h-.55c-2-.1-4-.21-6-.41-3.74-.32-7.49-.84-11.13-1.46a127.11 127.11 0 0 1-73.43-40.88c-.73-.72-1.35-1.45-2-2.18-2.18-2.5-4.16-5.1-6.13-7.8a126.48 126.48 0 0 1-24.76-75.41c0-70.83 57.62-128.35 128.77-128.35S1767 955.22 1767 1026.05Z" class="colorffe9e6 svgShape"></path><path fill="#253059" d="M1744.5 1098.44c-2.6 3.75-5.41 7.39-8.32 10.82a35.59 35.59 0 0 1-3.33 3.54 127.41 127.41 0 0 1-72.08 39.52c-3.64.62-7.38 1.14-11.13 1.46-2.18.2-4.36.31-6.55.41H1633c-2-.1-4-.21-6-.41-3.74-.32-7.49-.84-11.13-1.46a127.11 127.11 0 0 1-73.43-40.88c-.73-.72-1.35-1.45-2-2.18-2.18-2.5-4.16-5.1-6.13-7.8 6.76-5 14.25-9.88 21.94-14.67 33.39-21 15.4-82.06 30.48-120.23 13-32.76 58.87-34.95 69.58-6.66 0 0 4-4.47 12.48-4.47 9.15 0 23.51 10.71 22.16 51.9-1.56 41.19 1 54.71 38.58 80.09 5.61 3.85 10.6 7.49 14.97 11.02Z" class="color592531 svgShape"></path><path fill="#a3cefa" d="M1667.17 1014c1.75-2 4.37-2.92 6.26-1.17s-2.48 22.13-7.72 22.13 1.46-20.96 1.46-20.96ZM1605.05 1014c-1.74-2-4.36-2.92-6.26-1.17s2.48 22.13 7.72 22.13-1.46-20.96-1.46-20.96ZM1639.47 1117.58a23.34 23.34 0 0 1-5.59.19 5.74 5.74 0 0 1-1.21-.19c-15.37-2-36.71-15.09-25.62-20.22 8.76-4 10.53-12.3 11.09-22.83.18-4.56.09-9.5.28-14.81 0 0 11.36-.56 17.61.28a10.77 10.77 0 0 1 3.07.65c1.21.47 2.8 4.85 4.19 11 3.54 15.74 5.78 43.13-3.82 45.93Z" class="colorfab2a3 svgShape"></path><path fill="#a3cefa" d="M1639.47 1117.58a23.34 23.34 0 0 1-5.59.19 5.74 5.74 0 0 1-1.21-.19c-8.76-2.7-7.54-26.09-4.56-42 1.58-8.11 3.54-14.35 4.94-14.91a10.79 10.79 0 0 1 3-.65c6.24-.84 17.79-.28 17.79-.28.37 17.42-1.12 31.86 11.37 37.64 11.16 5.2-10.36 18.24-25.74 20.2Z" class="colorfab2a3 svgShape"></path><path fill="#0575e6" d="M1653.82 1059.72a23.91 23.91 0 0 1-10.53 11.93 30 30 0 0 1-15.18 3.91 33.76 33.76 0 0 1-10-1c.18-4.56.09-9.5.28-14.81 0 0 11.36-.56 17.61.28 6.27-.87 17.82-.31 17.82-.31ZM1667 1019.24c.89-1.47 3.9-3.09 4.27-2.43s-2.72 13.31-4.56 10.88c-.81-1.09.29-8.45.29-8.45ZM1605.2 1019.24c-.88-1.47-3.9-3.09-4.27-2.43s2.72 13.31 4.56 10.88c.83-1.09-.29-8.45-.29-8.45Z" class="colore69283 svgShape"></path><path fill="#a3cefa" d="M1668 1022.83c0 26.78-16.51 46.39-31.88 46.39-14.53 0-31.88-19.61-31.88-46.39s-2.43-48.49 31.88-48.49c35.34 0 31.88 21.71 31.88 48.49Z" class="colorfab2a3 svgShape"></path><path fill="#1b2b68" d="M1632.58 1042.56a.27.27 0 0 0 .26-.26.31.31 0 0 0-.21-.37c-3.9-.86-4-3.94-4-4.74a12.94 12.94 0 0 0 6.59-6.65 14.75 14.75 0 0 0 0-10.15.28.28 0 0 0-.35-.18.33.33 0 0 0-.15.41 13.93 13.93 0 0 1 0 9.63 12.47 12.47 0 0 1-6.44 6.4l-.16.07v.19a5.23 5.23 0 0 0 4.37 5.65ZM1625.93 1022.36c.12 3.26-.89 5.94-2.27 6s-2.59-2.55-2.72-5.8.89-5.94 2.27-6 2.59 2.55 2.72 5.8ZM1646.29 1022.36c-.12 3.26.89 5.94 2.27 6s2.59-2.55 2.72-5.8-.89-5.94-2.27-6-2.59 2.55-2.72 5.8ZM1658 1012c1 2-11.07-1-11.58-2.25s.92-1.86 3.25-1.89 8.12 3.67 8.33 4.14ZM1614.19 1012c-1 2 11.07-1 11.58-2.25s-.93-1.86-3.26-1.89-8.08 3.67-8.32 4.14Z" class="color681b3d svgShape"></path><path fill="#5578fa" d="M1643.57 1053c0 2.4-3.21 4.35-7.18 4.35s-7.19-1.93-7.2-4.33 3.21-4.34 7.18-4.35 7.19 1.91 7.2 4.33Z" class="colorfa6855 svgShape"></path><path fill="#1b2b68" d="M1640.63 1054c-4.55.69-9.48.64-12.52-.49-.25-.1-.33-.32-.19-.5a.63.63 0 0 1 .7-.18c5.6 2.09 18.52.22 21.27-3.07a.74.74 0 0 1 .72-.15.31.31 0 0 1 .16.51c-1.53 1.88-5.64 3.24-10.14 3.88Z" class="color681b3d svgShape"></path><path fill="#6987fa" d="M1661.73 1032.32c.36 1.74-2 3.69-5.25 4.35s-6.18-.2-6.54-1.94 2-3.69 5.25-4.35 6.19.2 6.54 1.94ZM1610.49 1032.32c-.35 1.74 2 3.69 5.25 4.35s6.18-.2 6.54-1.94-2-3.69-5.25-4.35-6.18.2-6.54 1.94Z" class="colorfa7369 svgShape"></path><path fill="#86b8eb" d="M1639.24 1154.19v.11h-2c-1.25 0-2.5 0-3.75-.11h-.49c-2-.1-4-.21-6-.41-3.74-.32-7.49-.84-11.13-1.46a127.11 127.11 0 0 1-73.43-40.88c21.53-8.21 48.88-5.61 65.84-14.77a21 21 0 0 0 8.22 15 29.25 29.25 0 0 0 14.35 4.89 20.91 20.91 0 0 0 2.49.21h.32a19.11 19.11 0 0 0 2.39.1 21.58 21.58 0 0 0 2.49-.1.15.15 0 0 0 .21 0 1.83 1.83 0 0 1 1.15.62c.1 0 .1.11.1.11 3.3 4.24.6 25.87-.76 36.69Z" class="coloreb9086 svgShape"></path><path fill="#86b8eb" d="M1732.85 1112.8a127.41 127.41 0 0 1-72.08 39.52c-3.64.62-7.38 1.14-11.13 1.46-2.18.2-4.36.31-6.55.41-1.25.11-2.49.11-3.74.11h-2.08c-1.25 0-2.5 0-3.75-.11h-.52c-1.45-10.92-4-32.45-.83-36.71 0 0 0-.11.1-.11a1.29 1.29 0 0 1 1-.62h.32a19.11 19.11 0 0 0 2.39.1 21.58 21.58 0 0 0 2.49-.1.15.15 0 0 0 .21 0 13.36 13.36 0 0 0 2.81-.31 28.76 28.76 0 0 0 14.25-4.79 20.7 20.7 0 0 0 8.11-14.87v-.11c17.58 9.47 46.49 6.35 68.23 15.71a2.49 2.49 0 0 1 .77.42Z" class="coloreb9086 svgShape"></path><path fill="#253059" d="M1600.17 1009.43c27 1.11 48.66-19 48.66-19s5.68 16.71 20.78 19.34 4.29-33.47-9.42-37.21-44.18-10.11-51.39-.28-8.63 37.15-8.63 37.15Z" class="color592531 svgShape"></path><path fill="#ffffff" d="M672.43 1512.17c-3.87-.33-7.64-.89-11.42-1.49a133.38 133.38 0 0 1-110.27-131c0-73.41 59.91-133.11 133.53-133.11s133.44 59.7 133.44 133.11a132.38 132.38 0 0 1-32 86.32 134.61 134.61 0 0 1-78.21 44.65c-3.78.6-7.67 1.16-11.51 1.49l-10.72.51Z" class="colorffffff svgShape"></path><path fill="#e6f2ff" d="M812.93 1379.69a127.16 127.16 0 0 1-30.78 83.21c-.21.21-.42.52-.63.73a128.47 128.47 0 0 1-74.78 42.37c-3.64.62-7.38 1.15-11.13 1.46h-.21c-2.08.21-4.26.31-6.34.41-1.25.11-2.5.11-3.75.11h-2.08c-1.24 0-2.49 0-3.74-.11-2.18-.1-4.37-.2-6.55-.41h-.11c-3.74-.31-7.38-.84-11-1.46a127.61 127.61 0 0 1-74.83-42.37c-.21-.21-.42-.52-.63-.73a127.26 127.26 0 0 1-30.89-83.21c0-70.83 57.62-128.34 128.76-128.34s128.69 57.51 128.69 128.34Z" class="colorffe9e6 svgShape"></path><path fill="#253059" d="M654.31 1312.87c22.44-31.33 68.72-21.73 79.3 14.25s3.67 122.89 18.91 146.6-128.69 19.47-124-8.47-5.16-120.58 3.81-141.8c7.31-17.36 21.98-10.58 21.98-10.58Z" class="color592531 svgShape"></path><path fill="#a3cefa" d="M716.48 1362.33c1.81-2.12 4.53-3 6.49-1.21s-2.56 23-8 23 1.51-21.79 1.51-21.79ZM652 1362.33c-1.82-2.12-4.54-3-6.5-1.21s2.57 23 8 23-1.5-21.79-1.5-21.79ZM687.74 1469.88a24.14 24.14 0 0 1-5.81.19 6 6 0 0 1-1.25-.19c-16-2.13-38.1-15.67-26.59-21 9.09-4.15 10.92-12.76 11.5-23.69.2-4.73.1-9.86.29-15.37 0 0 11.8-.58 18.28.29a11.45 11.45 0 0 1 3.19.68c1.26.48 2.9 5 4.35 11.41 3.67 16.35 5.99 44.8-3.96 47.68Z" class="colorfab2a3 svgShape"></path><path fill="#a3cefa" d="M687.74 1469.88a24.14 24.14 0 0 1-5.81.19 6 6 0 0 1-1.25-.19c-9.09-2.81-7.83-27.08-4.74-43.61 1.64-8.41 3.67-14.89 5.12-15.47a11.58 11.58 0 0 1 3.1-.68c6.48-.87 18.47-.29 18.47-.29.38 18.08-1.16 33.07 11.79 39.06 11.58 5.42-10.73 18.95-26.68 20.99Z" class="colorfab2a3 svgShape"></path><path fill="#0575e6" d="M702.63 1409.83a24.88 24.88 0 0 1-10.93 12.38 31.06 31.06 0 0 1-15.76 4.06 35.39 35.39 0 0 1-10.35-1.07c.2-4.73.1-9.86.29-15.37 0 0 11.8-.58 18.28.29 6.48-.87 18.47-.29 18.47-.29ZM716.33 1367.82c.91-1.53 4-3.21 4.42-2.52s-2.82 13.81-4.73 11.29c-.85-1.13.31-8.77.31-8.77ZM652.17 1367.82c-.92-1.53-4-3.21-4.43-2.52s2.82 13.81 4.73 11.29c.86-1.13-.3-8.77-.3-8.77Z" class="colore69283 svgShape"></path><path fill="#a3cefa" d="M717.3 1371.54c0 27.79-17.14 48.14-33.08 48.14-15.08 0-33.09-20.35-33.09-48.14s-2.52-50.32 33.09-50.32c36.71 0 33.08 22.53 33.08 50.32Z" class="colorfab2a3 svgShape"></path><path fill="#1b2b68" d="M680.58 1392a.3.3 0 0 0 .28-.26.33.33 0 0 0-.23-.39c-4-.9-4.15-4.09-4.1-4.92a13.45 13.45 0 0 0 6.84-6.91c1.25-3 1.26-6.58 0-10.53a.3.3 0 0 0-.37-.19.36.36 0 0 0-.16.43c1.18 3.76 1.18 7.12 0 10a13 13 0 0 1-6.68 6.64l-.17.07v.2a5.41 5.41 0 0 0 4.54 5.86ZM673.68 1371.06c.13 3.38-.92 6.17-2.35 6.22s-2.69-2.64-2.82-6 .92-6.16 2.35-6.22 2.69 2.62 2.82 6ZM694.81 1371.06c-.13 3.38.93 6.17 2.36 6.22s2.69-2.64 2.82-6-.93-6.16-2.35-6.22-2.7 2.62-2.83 6ZM707 1360.33c1 2-11.49-1-12-2.34s1-1.92 3.38-2 8.36 3.83 8.62 4.34ZM661.49 1360.33c-1 2 11.49-1 12-2.34s-1-1.92-3.37-2-8.37 3.83-8.63 4.34Z" class="color681b3d svgShape"></path><ellipse cx="684.53" cy="1402.85" fill="#5578fa" rx="7.46" ry="4.51" transform="rotate(-.09 680.088 1394.732)" class="colorfa6855 svgShape"></ellipse><path fill="#1b2b68" d="M688.94 1403.94c-4.72.71-9.84.66-13-.51-.26-.1-.34-.34-.2-.52a.66.66 0 0 1 .73-.19c5.81 2.17 19.22.23 22.08-3.18a.71.71 0 0 1 .74-.16.33.33 0 0 1 .17.53c-1.59 1.86-5.85 3.32-10.52 4.03Z" class="color681b3d svgShape"></path><path fill="#6987fa" d="M710.83 1381.4c.37 1.8-2.07 3.82-5.44 4.51s-6.42-.21-6.79-2 2.07-3.82 5.45-4.51 6.42.19 6.78 2ZM657.66 1381.4c-.37 1.8 2.07 3.82 5.45 4.51s6.41-.21 6.78-2-2.07-3.82-5.45-4.51-6.44.19-6.78 2Z" class="colorfa7369 svgShape"></path><path fill="#253059" d="M647.15 1357.87c20.56-.16 26.29-20.08 26.29-20.08s17.21 24.06 44.78 15.3-11.79-43.19-36.65-39.52-35.69 17.21-36.49 23.11 2.07 21.19 2.07 21.19Z" class="color592531 svgShape"></path><path fill="#a3cefa" d="M654.06 1448.89s-9.88 4.44-16.5 5.23 39.31 46.16 47.6 43.51 3.72-32-2.44-37.19-28.66-11.55-28.66-11.55Z" class="colorfab2a3 svgShape"></path><path fill="#a3cefa" d="M714.47 1448.89s9.89 4.44 16.5 5.23-39.31 46.16-47.59 43.51-3.72-32 2.44-37.19 28.65-11.55 28.65-11.55Z" class="colorfab2a3 svgShape"></path><path fill="#86b8eb" d="M695.4 1507.42c-2.08.21-4.26.31-6.34.41-1.25.11-2.5.11-3.75.11h-2.08c-1.24 0-2.49 0-3.74-.11-2.18-.1-4.37-.2-6.55-.41h-.11c-3.74-.31-7.38-.84-11-1.46a127.61 127.61 0 0 1-74.83-42.33c13.2-5.1 28.49-6.24 42.43-8.32a128.34 128.34 0 0 0 13.63-2.6c0 .1 0 .1.1.21 2.6 10.61 14.46 25.27 27.77 33.7h.1s.11 0 .11.1a51.58 51.58 0 0 0 7.8 4.16c.1 0 .21.1.31.1a44.34 44.34 0 0 0 4.58 1.56c.1 0 .31.11.41.11a9.17 9.17 0 0 1 3.85 2.08 1.84 1.84 0 0 1 .73.52 1.65 1.65 0 0 1 .62.62c3.47 2.6 5.44 7.07 5.96 11.55Z" class="coloreb9086 svgShape"></path><path fill="#86b8eb" d="M781.52 1463.63a128.47 128.47 0 0 1-74.78 42.37c-3.64.62-7.38 1.15-11.13 1.46h-.21c-2.08.21-4.26.31-6.34.41-1.25.11-2.5.11-3.75.11h-2.08c-1.24 0-2.49 0-3.74-.11-2.18-.1-4.37-.2-6.55-.41h-.11a19.82 19.82 0 0 1 6-11.76l.62-.62a3.44 3.44 0 0 1 .83-.52 9.84 9.84 0 0 1 3.95-1.87c.11-.11.11-.11.32-.11 1.45-.41 3.12-1 4.68-1.56.1 0 .1-.1.2-.1a31.78 31.78 0 0 0 4.27-2.08c14.66-7.8 28.6-24.23 31.31-36a.39.39 0 0 0 .1-.31 176.73 176.73 0 0 0 21.32 3.85c11.9 1.53 24.17 2.99 35.09 7.25Z" class="coloreb9086 svgShape"></path><path fill="#ffffff" d="M1370.58 681.14c-3.85-.28-7.74-.89-11.45-1.5a133.49 133.49 0 0 1-110.24-131c0-73.41 59.91-133.11 133.52-133.11s133.44 59.7 133.44 133.11a132.33 132.33 0 0 1-31.39 85.66 134.3 134.3 0 0 1-78.74 45.3 115.69 115.69 0 0 1-11.51 1.5l-10.75.51Z" class="colorffffff svgShape"></path><path fill="#e6f2ff" d="M1511.08 548.67a127.12 127.12 0 0 1-30.26 82.58c-.21.21-.31.42-.52.63a128.49 128.49 0 0 1-75.41 43c-3.64.63-7.28 1.15-11 1.46h-.11c-2.18.21-4.37.31-6.55.42-1.25.1-2.5.1-3.75.1h-2.08c-1.24 0-2.49 0-3.74-.1-2.18-.11-4.37-.21-6.55-.42h-.21c-3.64-.31-7.38-.83-10.92-1.46a127.67 127.67 0 0 1-75.41-43c-.1-.21-.31-.32-.52-.53a127.26 127.26 0 0 1-30.37-82.68c0-70.83 57.62-128.35 128.76-128.35s128.64 57.52 128.64 128.35Z" class="colorffe9e6 svgShape"></path><path fill="#253059" d="M1394.05 475.23c-16.51-22.21-47.57-11.48-57.77 17s-28.21 98.43-28.21 98.43 23.71 15.91 60.62 16.51 25.36-131.94 25.36-131.94Z" class="color592531 svgShape"></path><path fill="#253059" d="M1376.94 486.25c16.51-22.2 41.5-14.78 50 6.76 11.09 28.18 32 97.68 32 97.68s-23.71 15.91-60.62 16.51-21.38-120.95-21.38-120.95Z" class="color592531 svgShape"></path><path fill="#a3cefa" d="M1415.35 528.28c1.85-2.16 4.63-3.09 6.63-1.24s-2.62 23.44-8.17 23.44 1.54-22.2 1.54-22.2ZM1349.55 528.28c-1.85-2.16-4.62-3.09-6.63-1.24s2.62 23.44 8.17 23.44-1.54-22.2-1.54-22.2ZM1386 638.05a24.07 24.07 0 0 1-5.92.2 5.68 5.68 0 0 1-1.28-.2c-16.29-2.17-38.89-16-27.14-21.41 9.27-4.25 11.15-13 11.74-24.18.2-4.84.1-10.07.3-15.69 0 0 12-.6 18.65.29a11.9 11.9 0 0 1 3.26.69c1.28.5 3 5.13 4.44 11.65 3.76 16.68 6.13 45.69-4.05 48.65Z" class="colorfab2a3 svgShape"></path><path fill="#a3cefa" d="M1386 638.05a24.07 24.07 0 0 1-5.92.2 5.68 5.68 0 0 1-1.28-.2c-9.28-2.86-8-27.63-4.84-44.51 1.68-8.58 3.75-15.2 5.23-15.79a12 12 0 0 1 3.16-.69c6.61-.89 18.85-.29 18.85-.29.4 18.45-1.18 33.75 12 39.87 11.89 5.52-10.9 19.36-27.2 21.41Z" class="colorfab2a3 svgShape"></path><path fill="#0575e6" d="M1401.21 576.77a25.37 25.37 0 0 1-11.15 12.63 31.76 31.76 0 0 1-16.09 4.14 35.81 35.81 0 0 1-10.56-1.08c.2-4.84.1-10.07.3-15.69 0 0 12-.6 18.65.29 6.64-.89 18.85-.29 18.85-.29ZM1415.2 533.88c.93-1.56 4.13-3.27 4.52-2.57s-2.89 14.1-4.83 11.53c-.89-1.16.31-8.96.31-8.96ZM1349.71 533.88c-.94-1.56-4.13-3.27-4.52-2.57s2.88 14.1 4.83 11.53c.87-1.16-.31-8.96-.31-8.96Z" class="colore69283 svgShape"></path><path fill="#a3cefa" d="M1416.19 537.68c0 28.37-17.5 49.14-33.77 49.14-15.39 0-33.77-20.77-33.77-49.14s-2.57-51.36 33.77-51.36c37.47 0 33.77 23 33.77 51.36Z" class="colorfab2a3 svgShape"></path><path fill="#1b2b68" d="M1378.71 558.59a.29.29 0 0 0 .28-.27.34.34 0 0 0-.23-.4c-4.13-.91-4.23-4.18-4.19-5a13.66 13.66 0 0 0 7-7c1.28-3.11 1.3-6.72 0-10.75a.3.3 0 0 0-.37-.19.35.35 0 0 0-.16.43c1.2 3.84 1.2 7.28 0 10.21a13.27 13.27 0 0 1-6.82 6.78l-.17.07v.2a5.52 5.52 0 0 0 4.64 6ZM1371.67 537.19c.13 3.45-1 6.3-2.41 6.35s-2.74-2.69-2.88-6.14.95-6.29 2.41-6.35 2.74 2.7 2.88 6.14ZM1393.24 537.19c-.14 3.45.94 6.3 2.4 6.35s2.75-2.69 2.88-6.14-.94-6.29-2.4-6.35-2.75 2.7-2.88 6.14ZM1405.68 526.24c1 2.06-11.73-1.08-12.27-2.39s1-2 3.44-2 8.56 3.86 8.83 4.39ZM1359.23 526.24c-1 2.06 11.72-1.08 12.26-2.39s-1-2-3.44-2-8.56 3.86-8.82 4.39Z" class="color681b3d svgShape"></path><path fill="#5578fa" d="M1390.35 569.62c0 2.54-3.4 4.61-7.61 4.62s-7.61-2-7.62-4.59 3.4-4.6 7.61-4.61 7.61 2.04 7.62 4.58Z" class="colorfa6855 svgShape"></path><path fill="#1b2b68" d="M1387.24 570.75c-4.82.73-10 .68-13.27-.52-.26-.1-.35-.34-.2-.53a.66.66 0 0 1 .74-.19c5.94 2.21 19.62.23 22.54-3.25a.77.77 0 0 1 .76-.17c.25.12.33.36.16.55-1.61 1.9-5.97 3.36-10.73 4.11Z" class="color681b3d svgShape"></path><path fill="#6987fa" d="M1409.59 547.74c.37 1.84-2.12 3.91-5.56 4.61s-6.55-.22-6.93-2.06 2.12-3.9 5.57-4.6 6.54.21 6.92 2.05ZM1355.31 547.74c-.37 1.84 2.12 3.91 5.57 4.61s6.54-.22 6.92-2.06-2.12-3.9-5.56-4.6-6.55.21-6.93 2.05Z" class="colorfa7369 svgShape"></path><path fill="#a3cefa" d="M1351.64 616.64s-10.09 4.52-16.84 5.33 40.12 47.12 48.58 44.41 3.8-32.64-2.49-38-29.25-11.74-29.25-11.74Z" class="colorfab2a3 svgShape"></path><path fill="#a3cefa" d="M1413.3 616.64s10.09 4.52 16.84 5.33-40.12 47.12-48.58 44.41-3.79-32.64 2.5-38 29.24-11.74 29.24-11.74Z" class="colorfab2a3 svgShape"></path><path fill="#a3cefa" d="M1335.28 622c-22.09 3.45-26.44 3.45-32.54 4.91s34.57 39.21 62.87 38.87 22.2-26.27 13.56-32.88-43.89-10.9-43.89-10.9Z" class="colorfab2a3 svgShape"></path><path fill="#a3cefa" d="M1429.67 622c22.09 3.45 26.44 3.45 32.54 4.91s-34.57 39.21-62.88 38.87-22.2-26.27-13.55-32.88 43.89-10.9 43.89-10.9Z" class="colorfab2a3 svgShape"></path><path fill="#86b8eb" d="M1393.87 676.39h-.11c-2.18.21-4.37.31-6.55.42-1.25.1-2.5.1-3.75.1h-2.08c-1.24 0-2.49 0-3.74-.1-2.18-.11-4.37-.21-6.55-.42h-.21c-3.64-.31-7.38-.83-10.92-1.46a127.67 127.67 0 0 1-75.41-43c-.1-.21-.31-.32-.52-.53a105.07 105.07 0 0 1 20.91-5.2c0 .11.1.11.1.21 10.71 14.46 32.56 25.28 59.08 28.71a128 128 0 0 0 12.9 1.14c1 0 2 .11 3 .11h4.58c0 .1.1.21.1.31a61.37 61.37 0 0 0 1.87 6.24v.1a.11.11 0 0 1 .11.11c.21.41.31.73.52.83a1.65 1.65 0 0 1 .62.62c3.55 2.66 5.53 7.23 6.05 11.81Z" class="coloreb9086 svgShape"></path><path fill="#86b8eb" d="M1480.82 631.25c-.21.21-.31.42-.52.63a128.49 128.49 0 0 1-75.41 43c-3.64.63-7.28 1.15-11 1.46h-.11c-2.18.21-4.37.31-6.55.42-1.25.1-2.5.1-3.75.1h-2.08c-1.24 0-2.49 0-3.74-.1-2.18-.11-4.37-.21-6.55-.42h-.21a19.31 19.31 0 0 1 6.14-12c.2-.21.52-.42.72-.62a6.07 6.07 0 0 0 .52-.73l.11-.11a.13.13 0 0 1 0-.2c.62-1.36 1.35-3.54 2.08-5.62.1-.31.21-.52.31-.83h4.06c1 0 2.08-.11 3.12-.11 4.37-.2 8.63-.52 12.79-1 26.63-3.53 48.57-14.25 59.18-28.81 0-.1.11-.1.11-.21a113.52 113.52 0 0 1 20.78 5.15Z" class="coloreb9086 svgShape"></path><path fill="#253059" d="M1347.1 525.74c.68-8.59 17.71-8.62 27.23-12.43 11.64-4.66 14.8-12.77 14.8-12.77s-.34 7.8 8.48 13.78 18.41 7.12 19.77 10.4 1.92-13.33 1-22.26-6.55-13.9-15.81-16.49-36.72-11.87-47.46 3.38-8.01 36.39-8.01 36.39Z" class="color592531 svgShape"></path><path fill="#ffffff" d="M909.29 1323.46a151.62 151.62 0 0 1-15.64-1.82 125.45 125.45 0 0 1-25.47-7.13 127.86 127.86 0 0 1-36.26-21.4 92.22 92.22 0 0 1-8.67-7.92 86.89 86.89 0 0 1-5.75-6 110.05 110.05 0 0 1-8.44-10.35 130.7 130.7 0 0 1-25.63-78.21c0-73.4 59.91-133.11 133.53-133.11s133.43 59.71 133.43 133.11a131.22 131.22 0 0 1-23.33 75.09 92.57 92.57 0 0 1-5.61 7.5l-3 3.78a51.34 51.34 0 0 1-3.77 4 32.26 32.26 0 0 1-4.06 4 129.14 129.14 0 0 1-45 29.46 124.16 124.16 0 0 1-25.37 7.13c-3.76.65-7.65 1.21-11.52 1.54l-10.72.51Z" class="colorffffff svgShape"></path><path fill="#e6f2ff" d="M1045.62 1190.68a127.23 127.23 0 0 1-22.47 72.39 89.24 89.24 0 0 1-5.41 7.18 3.44 3.44 0 0 1-.52.83c-.2.21-.41.32-.62.52v.11c-.62.73-1.14 1.45-1.77 2.18a35.59 35.59 0 0 1-3.33 3.54 35.07 35.07 0 0 1-4 4c-.1.1-.21.1-.21.21a125.75 125.75 0 0 1-43.47 28.5 121.31 121.31 0 0 1-24.44 6.86c-3.64.63-7.39 1.15-11.13 1.46-2.19.21-4.37.31-6.56.41-1.24.11-2.49.11-3.74.11h-2.08c-1.25 0-2.5 0-3.74-.11h-.52c-2-.1-4.06-.2-6-.41-3.74-.31-7.49-.83-11.13-1.46a120.42 120.42 0 0 1-24.54-6.86 125.36 125.36 0 0 1-35-20.6 96.62 96.62 0 0 1-8.32-7.59c-2-1.87-3.85-3.85-5.62-5.82-.72-.73-1.35-1.46-2-2.19l-.21-.21v-.1a79.87 79.87 0 0 1-5.93-7.49 126.45 126.45 0 0 1-24.75-75.41c0-70.83 57.62-128.34 128.76-128.34s128.75 57.46 128.75 128.29Z" class="colorffe9e6 svgShape"></path><path fill="#1b2b68" d="M937.84 1219.54c16.07 1.63 28.06-23.16 33.23-55 3.24-19.91-20.16-55-39.23-59.12S897.51 1122 897.51 1122s-14.44-7.08-24.52 2.18 4.91 82.55 13.35 89.91 22.07 6.81 26.43 5.72 25.07-.27 25.07-.27Z" class="color681b3d svgShape"></path><path fill="#a3cefa" d="M951.1 1171.78c1.73-2 4.31-2.87 6.17-1.15s-2.44 21.81-7.6 21.81 1.43-20.66 1.43-20.66ZM889.88 1171.78c-1.72-2-4.3-2.87-6.17-1.15s2.44 21.81 7.61 21.81-1.44-20.66-1.44-20.66ZM923.81 1273.92a22.69 22.69 0 0 1-5.51.19 5 5 0 0 1-1.2-.19c-15.15-2-36.18-14.87-25.25-19.92 8.63-4 10.38-12.12 10.93-22.5.18-4.5.09-9.37.27-14.6 0 0 11.21-.55 17.36.27a10.8 10.8 0 0 1 3 .65c1.19.46 2.75 4.77 4.13 10.83 3.52 15.52 5.73 42.52-3.73 45.27Z" class="colorfab2a3 svgShape"></path><path fill="#a3cefa" d="M923.81 1273.92a22.69 22.69 0 0 1-5.51.19 5 5 0 0 1-1.2-.19c-8.63-2.66-7.43-25.71-4.5-41.41 1.57-8 3.49-14.14 4.87-14.69a11 11 0 0 1 2.94-.65c6.15-.82 17.54-.27 17.54-.27.37 17.17-1.1 31.4 11.2 37.1 11.02 5.14-10.15 18-25.34 19.92Z" class="colorfab2a3 svgShape"></path><path fill="#0575e6" d="M938 1216.9a23.54 23.54 0 0 1-10.38 11.75 29.47 29.47 0 0 1-15 3.86 33.44 33.44 0 0 1-9.82-1c.18-4.5.09-9.37.27-14.6 0 0 11.21-.55 17.36.27 6.13-.83 17.57-.28 17.57-.28ZM951 1177c.87-1.45 3.84-3 4.21-2.39s-2.69 13.11-4.5 10.72c-.85-1.07.29-8.33.29-8.33ZM890 1177c-.87-1.45-3.84-3-4.21-2.39s2.68 13.11 4.5 10.72c.84-1.07-.29-8.33-.29-8.33Z" class="colore69283 svgShape"></path><path fill="#a3cefa" d="M951.89 1180.53c0 26.4-16.28 45.73-31.42 45.73-14.32 0-31.43-19.33-31.43-45.73s-2.39-47.79 31.43-47.79c34.86 0 31.42 21.4 31.42 47.79Z" class="colorfab2a3 svgShape"></path><path fill="#1b2b68" d="M917 1200a.28.28 0 0 0 .26-.26.3.3 0 0 0-.21-.36c-3.84-.86-3.94-3.89-3.89-4.68a12.76 12.76 0 0 0 6.49-6.56 14.47 14.47 0 0 0 0-10 .29.29 0 0 0-.35-.19.34.34 0 0 0-.15.41 13.76 13.76 0 0 1 0 9.49 12.22 12.22 0 0 1-6.35 6.31l-.15.06v.19A5.14 5.14 0 0 0 917 1200ZM911.56 1180.09c.11 2.86-.78 5.21-2 5.26s-2.28-2.23-2.39-5.09.78-5.22 2-5.26 2.28 2.23 2.39 5.09ZM929.43 1180.09c-.11 2.86.78 5.21 2 5.26s2.28-2.23 2.39-5.09-.78-5.22-2-5.26-2.28 2.23-2.39 5.09ZM940.81 1166.6c.85 1.7-9.68-.89-10.12-2s.81-1.62 2.84-1.65 7.07 3.21 7.28 3.65ZM900.18 1166.6c-.85 1.7 9.67-.89 10.12-2s-.81-1.62-2.84-1.65-7.07 3.21-7.28 3.65Z" class="color681b3d svgShape"></path><path fill="#5578fa" d="M927.09 1210.26c0 1.93-2.59 3.51-5.8 3.51s-5.81-1.56-5.81-3.49 2.59-3.52 5.8-3.52 5.81 1.56 5.81 3.5Z" class="colorfa6855 svgShape"></path><path fill="#1b2b68" d="M924.72 1211.11c-3.67.56-7.66.52-10.12-.39-.2-.08-.27-.26-.15-.41a.52.52 0 0 1 .57-.14c4.52 1.68 15 .17 17.18-2.48a.58.58 0 0 1 .58-.13.26.26 0 0 1 .13.42c-1.23 1.45-4.55 2.58-8.19 3.13Z" class="color681b3d svgShape"></path><path fill="#6987fa" d="M945.74 1189.89c.35 1.72-2 3.64-5.17 4.29s-6.09-.2-6.44-1.91 2-3.63 5.17-4.29 6.09.2 6.44 1.91ZM895.24 1189.89c-.35 1.72 2 3.64 5.18 4.29s6.09-.2 6.44-1.91-2-3.63-5.17-4.29-6.1.2-6.45 1.91Z" class="colorfa7369 svgShape"></path><path fill="#86b8eb" d="M925.8 1281.28c.42 8.42-1.25 21.32-2.18 28.81H870a125.36 125.36 0 0 1-35-20.6 96.62 96.62 0 0 1-8.32-7.59c-2-1.87-3.85-3.85-5.62-5.82-.72-.73-1.35-1.46-2-2.19l-.21-.21v-.1l.21-.21a25 25 0 0 1 6.76-4.58c21.42-9.15 49.92-6.13 67.08-15.49v.1a21 21 0 0 0 8.22 14.67 28 28 0 0 0 13.94 4.78 24 24 0 0 0 2.7.21h.24a19.11 19.11 0 0 0 2.39.1 21.75 21.75 0 0 0 2.5-.1.15.15 0 0 0 .21 0 1.29 1.29 0 0 1 1 .62l.1.11c1.08 1.14 1.5 3.95 1.6 7.49Z" class="coloreb9086 svgShape"></path><path fill="#86b8eb" d="M1017.74 1270.25a3.44 3.44 0 0 1-.52.83c-.2.21-.41.32-.62.52v.11c-.62.73-1.14 1.45-1.77 2.18a35.59 35.59 0 0 1-3.33 3.54 35.07 35.07 0 0 1-4 4c-.1.1-.21.1-.21.21a125.75 125.75 0 0 1-43.47 28.5h-46.44c-.94-7.49-2.5-20.18-2.29-28.61.1-3.64.52-6.44 1.56-7.69 0 0 0-.11.1-.11a1.28 1.28 0 0 1 1-.62h.25a19.11 19.11 0 0 0 2.39.1 21.75 21.75 0 0 0 2.5-.1.15.15 0 0 0 .21 0 22.47 22.47 0 0 0 2.7-.21 28 28 0 0 0 14-4.78 20.35 20.35 0 0 0 8-14.77c.42.21.83.41 1.35.73 17.48 8.52 44.93 5.82 65.94 14.76a13 13 0 0 1 2.65 1.41Z" class="coloreb9086 svgShape"></path><path fill="#1b2b68" d="M887.26 1168.6c15.45.41 16.27-22.7 16.27-22.7s22.7 20.92 49.23 15.59-5.06-30.5-17.23-33.78-46.5 2.6-50.74 10.53 2.47 30.36 2.47 30.36Z" class="color681b3d svgShape"></path><path fill="#86b8eb" d="M870 1310.09a125.36 125.36 0 0 1-35-20.6c-.21-2-.31-3.74-.42-5.51 0 0 39.42-1.35 80.51-2.5 3.64 0 7.17-.1 10.71-.2 40.88-1 80.19-1.67 81.54-.42.11.1.11.21.21.52-.1.1-.21.1-.21.21a125.75 125.75 0 0 1-43.47 28.5 121.31 121.31 0 0 1-24.44 6.86c-3.64.63-7.39 1.15-11.13 1.46-2.19.21-4.37.31-6.56.41-1.24.11-2.49.11-3.74.11h-2.08c-1.25 0-2.5 0-3.74-.11h-.52c-2-.1-4.06-.2-6-.41-3.74-.31-7.49-.83-11.13-1.46a120.42 120.42 0 0 1-24.53-6.86ZM819.09 1273.89l-.21-.21v-.1l.21-.21a9.27 9.27 0 0 1 1.77-1.25s2.39 3.64 5.82 9.78c-2-1.87-3.85-3.85-5.62-5.82-.72-.73-1.35-1.46-1.97-2.19Z" class="coloreb9086 svgShape"></path><path fill="#86b8eb" d="M1011.5 1277.43a35.07 35.07 0 0 1-4 4 53 53 0 0 1 9.05-9.67c-.62.73-1.14 1.45-1.77 2.18a35.59 35.59 0 0 1-3.28 3.49Z" class="coloreb9086 svgShape"></path><g opacity=".7" fill="#000000" class="color000000 svgShape"><path fill="#86b8eb" d="M1654.52 1542.71a7.28 7.28 0 0 1-.16 1.85 80.22 80.22 0 0 1-18.37 49.58c-.93.92-1.7 2-2.78 2.93a78.72 78.72 0 0 1-54.83 26 2.69 2.69 0 0 1-1.08.15 2.56 2.56 0 0 1-1.08.16.57.57 0 0 1-.47-.16 8.53 8.53 0 0 1-2 .16 7.28 7.28 0 0 1-1.85-.16.9.9 0 0 1-.62.16 2.93 2.93 0 0 1-1.08-.16 3.08 3.08 0 0 1-1.08-.15 79.3 79.3 0 0 1-54.83-26l-2.78-2.78a80.57 80.57 0 0 1-18.38-49.73 7.75 7.75 0 0 1-.15-1.85 9.08 9.08 0 0 1 .15-2 80.57 80.57 0 0 1 18.37-49.71l2.78-2.78a79.3 79.3 0 0 1 54.83-26 3.08 3.08 0 0 1 1.08-.15 2.93 2.93 0 0 1 1.08-.16.92.92 0 0 0 .62.16 7.28 7.28 0 0 1 1.85-.16 8.53 8.53 0 0 1 2 .16.57.57 0 0 0 .47-.16 2.56 2.56 0 0 1 1.08.16 2.69 2.69 0 0 1 1.08.15 78.72 78.72 0 0 1 54.83 26c1.08.92 1.85 2 2.78 2.93a80.19 80.19 0 0 1 18.37 49.58 8.53 8.53 0 0 1 .17 1.98Z" class="coloreb9086 svgShape"></path><path fill="#253059" d="M1612.35 1500.39c-.46-1.24-.92-2.32-1.38-3.55-7.26-19-19-32.13-32.59-34.6a2.69 2.69 0 0 0-1.08-.15 2.56 2.56 0 0 0-1.08-.16h-.47a9.08 9.08 0 0 0-2-.15 7.75 7.75 0 0 0-1.85.15h-.62a2.93 2.93 0 0 0-1.08.16 3.08 3.08 0 0 0-1.08.15c-13.44 2.47-25.17 15.6-32.43 34.6-.47 1.23-.93 2.47-1.39 3.7a129.14 129.14 0 0 0-6.64 40.16v3.86a129 129 0 0 0 6.64 40.15c.46 1.24.92 2.48 1.39 3.71 7.26 19 19 32.13 32.43 34.6a3.08 3.08 0 0 0 1.08.15 2.93 2.93 0 0 0 1.08.16h.62a7.75 7.75 0 0 0 1.85.15 9.08 9.08 0 0 0 2-.15h.47a2.56 2.56 0 0 0 1.08-.16 2.69 2.69 0 0 0 1.08-.15c13.59-2.47 25.33-15.6 32.59-34.6.46-1.08.92-2.32 1.38-3.55a130.41 130.41 0 0 0 6.65-40.31v-3.86a130.41 130.41 0 0 0-6.65-40.31Zm-3.7 83.55a16.62 16.62 0 0 1-1.39 3.55c-7 18.54-18.38 30.89-31.51 32a8.53 8.53 0 0 1-2 .16 7.28 7.28 0 0 1-1.85-.16c-13-1.08-24.56-13.43-31.51-32a17.17 17.17 0 0 1-1.39-3.55 123.73 123.73 0 0 1-6.48-39.38v-3.86a122.77 122.77 0 0 1 6.48-39.23 18.67 18.67 0 0 1 1.39-3.71c7.11-18.53 18.54-30.89 31.51-32a7.75 7.75 0 0 1 1.85-.15 9.08 9.08 0 0 1 2 .15c13 1.08 24.4 13.44 31.51 32a14.17 14.17 0 0 1 1.39 3.55 128.42 128.42 0 0 1 6.49 39.39v3.86a124 124 0 0 1-6.49 39.38Z" class="color592531 svgShape"></path><path fill="#253059" d="M1654.52 1542.71a7.28 7.28 0 0 1-.16 1.85h-161.24a7.75 7.75 0 0 1-.15-1.85 9.08 9.08 0 0 1 .15-2h161.24a8.53 8.53 0 0 1 .16 2ZM1633.21 1488.19a85.14 85.14 0 0 1-22.24 8.65l-3.71.92a152.74 152.74 0 0 1-31.51 3.55h-3.86a150.37 150.37 0 0 1-31.51-3.55c-1.39-.31-2.47-.61-3.7-.92a88.41 88.41 0 0 1-22.4-8.65l-2.78 2.78a94.29 94.29 0 0 0 23.79 9.57c1.23.31 2.31.62 3.7.93a154.35 154.35 0 0 0 32.9 3.71h3.86a144.4 144.4 0 0 0 32.9-3.87 16.16 16.16 0 0 0 3.7-.92 90 90 0 0 0 23.64-9.27c-.93-.92-1.7-2.01-2.78-2.93ZM1612.35 1584.87a16.73 16.73 0 0 0-3.7-.93 154.64 154.64 0 0 0-32.9-3.86h-3.86a154.64 154.64 0 0 0-32.9 3.86 28.08 28.08 0 0 0-3.7.77 94.66 94.66 0 0 0-23.79 9.58l2.78 2.78a88 88 0 0 1 22.4-8.65c1.23-.31 2.31-.62 3.7-.93a151.72 151.72 0 0 1 31.51-3.55h3.86a154.13 154.13 0 0 1 31.51 3.55l3.71.93a84.79 84.79 0 0 1 22.24 8.65c1.08-.93 1.85-2 2.78-2.93a89.61 89.61 0 0 0-23.64-9.27Z" class="color592531 svgShape"></path><path fill="#253059" d="M1575.75 1461.93v161.4a9.08 9.08 0 0 1-2 .15 7.75 7.75 0 0 1-1.85-.15v-161.4a7.75 7.75 0 0 1 1.85-.15 9.08 9.08 0 0 1 2 .15Z" class="color592531 svgShape"></path></g><circle cx="637.01" cy="349.03" r="23.87" fill="#253059" transform="rotate(-66.43 637.057 349.026)" class="color592531 svgShape"></circle><circle cx="637.01" cy="349.03" r="20.82" fill="#aed1f5" transform="rotate(-81.25 636.984 349.036)" class="colorf5b6ae svgShape"></circle><path fill="#253059" d="m631.12 356.49 2.87-2a4.84 4.84 0 0 0 2.84 2.16 5.67 5.67 0 0 0 3.83-.63 5.46 5.46 0 0 0 2.78-2.43 2.93 2.93 0 0 0 0-2.58 2.12 2.12 0 0 0-1.74-1.23 15 15 0 0 0-3.72.49 33.43 33.43 0 0 1-5.53.81 5.31 5.31 0 0 1-2.88-.78 5.43 5.43 0 0 1-2.43-4.73 5.61 5.61 0 0 1 .69-2.5 7.19 7.19 0 0 1 1.56-1.89 10.64 10.64 0 0 1 2.61-1.68 12 12 0 0 1 4.14-1.22 5.85 5.85 0 0 1 3.26.52 7.42 7.42 0 0 1 2.47 2.35l-2.87 1.91a3.73 3.73 0 0 0-2.29-1.65 5 5 0 0 0-3.23.57 5.76 5.76 0 0 0-2.75 2.21 2.32 2.32 0 0 0-.11 2.12 1.91 1.91 0 0 0 .92.92 3 3 0 0 0 1.61.25c.37 0 1.42-.21 3.16-.54a43.81 43.81 0 0 1 5.36-.79 5.23 5.23 0 0 1 2.87.65 5.14 5.14 0 0 1 2 2.33 5.85 5.85 0 0 1 .52 3.4 6.65 6.65 0 0 1-1.61 3.43 10.69 10.69 0 0 1-3.55 2.65 9.68 9.68 0 0 1-6.23 1.16 7.73 7.73 0 0 1-4.55-3.28Z" class="color592531 svgShape"></path><path fill="#253059" d="m632.03 341.43-1.47-5.73 3.58 4.71-2.11 1.02zM639.88 357.65l3.58 4.7-1.47-5.72-2.11 1.02z" class="color592531 svgShape"></path><ellipse cx="658.37" cy="405.92" fill="#86b8eb" rx="78.91" ry="57.49" transform="rotate(-25.82 658.278 405.877)" class="coloreb9086 svgShape"></ellipse><path fill="#86b8eb" d="M592.16 394.44c-1.25-16.32-15.71-25.83-15.71-25.83s36.43-7.55 44.39-3.05-28.68 28.88-28.68 28.88ZM592.31 439.16c-2.79 5.53-12.52 7.67-12.52 7.67A42 42 0 0 0 590 459.58c9 7.56 14.07 8.47 14.07 8.47s-1-10.95 5-13.2-16.76-15.69-16.76-15.69ZM627.13 465.83c13.4 4.23 18 18.35 18 18.35a52.46 52.46 0 0 0 11.73-1 57.25 57.25 0 0 0 15-5.54s-5.33-15-.45-18.21-44.28 6.4-44.28 6.4ZM726.38 417.81c-5 13.14 3.22 25.5 3.22 25.5a52.11 52.11 0 0 1-8.07 8.56 57.29 57.29 0 0 1-13.65 8.32s-8.46-13.48-14-11.65 32.5-30.73 32.5-30.73ZM704.46 359s.76-1.22 2.07-3.36a30.38 30.38 0 0 1 3.18-3.83 22.87 22.87 0 0 1 5-4 19.66 19.66 0 0 1 15.45-2.25 15.18 15.18 0 0 1 7.66 4.79 14.77 14.77 0 0 1 1.34 2.07 18.51 18.51 0 0 1 .83 2.14 11.13 11.13 0 0 1 .35 4.78c-.47 3.21-3 6.36-6.58 6.52a5.19 5.19 0 0 1-4.35-2.23 9.37 9.37 0 0 1-1.5-4.19 16.92 16.92 0 0 1 .83-7.93 13.36 13.36 0 0 1 4.11-5.77 15.12 15.12 0 0 1 9.83-3.13 17.57 17.57 0 0 1 2.9.23l1 .13-1-.08a18.8 18.8 0 0 0-2.88-.07 14.79 14.79 0 0 0-9.33 3.52 12.34 12.34 0 0 0-3.5 5.55 15.26 15.26 0 0 0-.37 7.3c.34 2.46 1.9 4.93 4.18 4.69s4.09-2.48 4.3-4.88a9.27 9.27 0 0 0-2.3-6.85 12.22 12.22 0 0 0-6.31-3.49 15.74 15.74 0 0 0-6.9 0 16.9 16.9 0 0 0-5.67 2.48 18.56 18.56 0 0 0-4 3.51 26.8 26.8 0 0 0-2.44 3.21c-1.19 2.17-1.88 3.41-1.88 3.41Z" class="coloreb9086 svgShape"></path><path fill="#253059" d="M599.82 422.89c1.62 3.35 2.35 6.36 1.63 6.71s-2.62-2.1-4.24-5.45-2.36-6.36-1.64-6.71 2.62 2.09 4.25 5.45Z" class="color592531 svgShape"></path><g opacity=".7" fill="#000000" class="color000000 svgShape"><path fill="#86b8eb" d="M1571.94 740.67c23.58-23.57 17.3-34.12 11.25-37.08-5.59-2.74-12.67-.83-12.67-.83s4.14-10.07 16-20.73c11.6-10.44 19.19-11.37 19.19-11.37s19.62 26.1 4.86 60.54c-12.79 29.85-36.72 40.51-36.72 40.51Z" class="coloreb9086 svgShape"></path><path fill="#86b8eb" d="M1575.26 737.36c-23.58 23.57-34.12 17.29-37.08 11.25-2.74-5.59-.83-12.68-.83-12.68s-10.07 4.15-20.74 16c-10.43 11.6-11.37 19.19-11.37 19.19s26.1 19.62 60.54 4.86c29.85-12.8 40.52-36.73 40.52-36.73Z" class="coloreb9086 svgShape"></path></g><path fill="#253059" d="M1475.65 196.52c30.56-4 63.1-31.92 63.1-31.92s-.61 11.88 2.29 20.85c3.11 9.59 7.18 14.47 7.18 14.47s-29.42 12.07-49.3 7.33-23.27-10.73-23.27-10.73Z" class="color592531 svgShape"></path><path fill="#253059" d="M1491.06 197.38c-2.26-8.79 13.49-28.42 13.49-28.42s-9-.13-21.68-6.62-23.62-19.68-23.62-19.68 5.45 51.09 20.74 58.62 11.07-3.9 11.07-3.9Z" class="color592531 svgShape"></path><path fill="#86b8eb" d="m1464.89 298.89-71.48-28.68S1405 260.73 1418 229a182 182 0 0 0 6.18-17.88 172.42 172.42 0 0 0 6.32-34.12l65.25 26.19-10.48 32.5-3.18 9.85Z" class="coloreb9086 svgShape"></path><path fill="#86b8eb" d="M1521.83 270.68c-12.58 31.89-10.66 46.79-10.66 46.79l-71.57-28.73 24-49.32 5.07-10.42 14.89-30.74 15.05 6 50.07 20.21a169.58 169.58 0 0 0-19 29 179.91 179.91 0 0 0-7.85 17.21Z" class="coloreb9086 svgShape"></path><path fill="#aed1f5" d="M1549.45 224.81a167.91 167.91 0 0 0-19.06 28.95l-106.92-42.91a170.2 170.2 0 0 0 6.28-34.19l66.08 26.52Z" class="colorf5b6ae svgShape"></path><path fill="#253059" d="M1419.96 236.85h102.5v19.41h-102.5z" transform="rotate(-68.13 1471.285 246.52)" class="color592531 svgShape"></path><path fill="#86b8eb" d="m1657 480.83 24.07 27.92 7.52-36.09 34-14.27-32-18.3-3.07-36.74-27.3 24.78-35.88-8.44 15.13 33.62-19.12 31.52 36.65-4zM1011.51 1988.55l-81.35 38.62a13.42 13.42 0 0 0 0-1.83.43.43 0 0 1 0-.5c-.28-5.76-2.33-22.22-15.35-50.17a190.27 190.27 0 0 0-10.23-19 204.92 204.92 0 0 0-23.67-31.49c0-.1-.15 0-.2-.15l74.34-35.3 13 22.94 6.18 10.94 5.74 10.29 2.16 3.76 3.64 6.38Z" class="coloreb9086 svgShape"></path><path fill="#86b8eb" d="M1024.8 1898.63a189.24 189.24 0 0 0 8.23 19.91c14.85 30.76 27.62 42.13 30.55 44.43.19.15.49.25.63.55l-81.55 38.73-18.9-48.86-2.55-6.65-1.08-2.8-4.86-12.3-4.38-11.3-9.76-25 17.93-8.51 56.25-26.59h.1a.36.36 0 0 1 0 .25 201.63 201.63 0 0 0 9.39 38.14Z" class="coloreb9086 svgShape"></path><path fill="#aed1f5" d="m1008.51 1990-78.35 37.2a13.42 13.42 0 0 0 0-1.83.43.43 0 0 1 0-.5c2.57-26.39 22-56 33.6-71.45 5-6.64 8.35-10.59 8.35-10.59s28.78 29.03 36.4 47.17Z" class="colorf5b6ae svgShape"></path><path fill="#aed1f5" d="m1064.21 1963.52-78.55 37.3c-9.22-17.35-13.55-58-13.55-58s5.36-.09 13.64.28c19.68.84 55.81 4.55 77.83 19.89.19.13.49.23.63.53Z" class="colorf5b6ae svgShape"></path><path fill="#253059" d="M970.45 1916.8c5.6 20.59 9.24 42 9.24 42s-5.2-.36-13.42-1.38c-21-2.85-61.42-10.94-85.34-33.13-.06-.12-.16-.07-.22-.19l78.35-37.2c4.33 7.01 8.21 18.29 11.39 29.9Z" class="color592531 svgShape"></path><path fill="#253059" d="m1015.32 1860.3.12.25c2 32.43-17.17 68.82-28.29 86.78-4.35 7.13-7.46 11.44-7.46 11.44s-14.09-16-26.35-33.26c-7-9.92-13.54-20.25-16.32-28.18l22-10.46Z" class="color592531 svgShape"></path><g opacity=".7" fill="#000000" class="color000000 svgShape"><path fill="#253059" d="M928.43 1658.92c-11.19 5.88-20.21 2.32-26.63-3.82-7.65-7.38-11.61-18.58-11.2-22.67.68-6.56 24.18-22.54 30.46-26.91.55-.27 1-.55 1.23-.68s.14-.14.27-.14c-1.09 1.91-14.12 19.35-10.84 35.19 3.41 16.8 16.71 19.03 16.71 19.03Z" class="color592531 svgShape"></path><path fill="#86b8eb" d="M971.2 1523.57 957.38 1642a327.53 327.53 0 0 1 40.56-41.16c24.94-21.33 45.37-27.94 45.37-27.94s-26.94-11.21-48-27.5c-17.22-13.4-24.11-21.83-24.11-21.83Z" class="coloreb9086 svgShape"></path><path fill="#86b8eb" d="M973.31 1548.83c-67.22 11.74-88.78 52.71-82.8 85.28 4.38 23.89 14.84-14.89 30.85-26.41s47.9-17.26 51.31-13.63.64-45.24.64-45.24Z" class="coloreb9086 svgShape"></path><path fill="#86b8eb" d="M901.8 1655.1c-7.65-7.38-11.61-18.58-11.2-22.67.68-6.56 24.18-22.54 30.46-26.91.55-.27 1-.55 1.23-.68-10.11 9.42-23.22 31.16-20.49 50.26Z" class="coloreb9086 svgShape"></path></g><ellipse cx="878.04" cy="226.46" fill="#86b8eb" rx="20.29" ry="20.34" transform="rotate(-18.34 877.938 226.45)" class="coloreb9086 svgShape"></ellipse><path fill="#86b8eb" d="m897.31 220.09 9.89 22.12 7.21 29.53s-51.72-22.67-55.63-38.9 38.53-12.75 38.53-12.75Z" class="coloreb9086 svgShape"></path><ellipse cx="916.56" cy="213.71" fill="#86b8eb" rx="20.29" ry="20.34" transform="rotate(-18.34 916.697 213.735)" class="coloreb9086 svgShape"></ellipse><path fill="#86b8eb" d="m897.3 220.09 17.1 51.65s28-49.06 21.42-64.41-38.52 12.76-38.52 12.76Z" class="coloreb9086 svgShape"></path><g opacity=".7" fill="#000000" class="color000000 svgShape"><path fill="#253059" d="M1255.21 348.73h-80.86a33 33 0 0 1 33.05-32.53h14.76a33.05 33.05 0 0 1 33.05 32.53Z" class="color592531 svgShape"></path><circle cx="1214.78" cy="296.74" r="15.99" fill="#253059" class="color592531 svgShape"></circle><path fill="#253059" d="M1158.28 348.73h-80.87a33.05 33.05 0 0 1 33.06-32.53h14.75a33.05 33.05 0 0 1 33.06 32.53Z" class="color592531 svgShape"></path><circle cx="1117.84" cy="296.74" r="15.99" fill="#253059" class="color592531 svgShape"></circle><path fill="#86b8eb" d="M1220.41 348.73h-108.2a44.22 44.22 0 0 1 44.23-43.52h19.74a44.22 44.22 0 0 1 44.23 43.52Z" class="coloreb9086 svgShape"></path><circle cx="1166.31" cy="279.17" r="21.39" fill="#86b8eb" transform="rotate(-14.94 1165.926 279.133)" class="coloreb9086 svgShape"></circle></g><g opacity=".7" fill="#000000" class="color000000 svgShape"><circle cx="1322.23" cy="1160.43" r="69.95" fill="#253059" transform="rotate(-80.58 1322.12 1160.426)" class="color592531 svgShape"></circle><circle cx="1322.23" cy="1160.43" r="63" fill="#86b8eb" transform="matrix(.16 -.99 .99 .16 -38.64 2275.29)" class="coloreb9086 svgShape"></circle><circle cx="1322.23" cy="1160.43" r="42.14" fill="#253059" transform="rotate(-21.9 1322.43 1160.551)" class="color592531 svgShape"></circle><circle cx="1322.23" cy="1160.43" r="35.19" fill="#86b8eb" transform="rotate(-22 1322.196 1160.41)" class="coloreb9086 svgShape"></circle><circle cx="1322.23" cy="1160.43" r="14.34" fill="#253059" class="color592531 svgShape"></circle><path fill="#86b8eb" d="M1373.58 1212.14c11.26 10.67 9.18 21.69 9.18 21.69l3.39-5.78 6.91 3.7Z" class="coloreb9086 svgShape"></path><path fill="#86b8eb" d="M1373.46 1212.26c10.67 11.26 21.69 9.18 21.69 9.18l-5.78 3.39 3.7 6.91Z" class="coloreb9086 svgShape"></path><path fill="#aed1f5" d="M1352.73 1186.65c15.86 15.86 27.37 29.5 26 30.81s-15-10.19-30.82-26a248.16 248.16 0 0 1-26.33-31.1 258.2 258.2 0 0 1 31.15 26.29Z" class="colorf5b6ae svgShape"></path></g><path fill="#aed1f5" d="m1760.68 842.12 135.61 53.36-23.29 7.78-112.32-61.14z" class="colorf5b6ae svgShape"></path><path fill="#86b8eb" d="M1760.68 842.12 1873 903.26l-29.39 41.39-82.93-102.53z" class="coloreb9086 svgShape"></path><path fill="#253059" d="m1843.61 944.65-82.93-102.53 89.21 68.18-6.28 34.35z" class="color592531 svgShape"></path><path fill="#aed1f5" d="m1810.46 928.95-49.78-86.83 89.21 68.18-39.43 18.65z" class="colorf5b6ae svgShape"></path><path fill="#253059" d="M1905.08 1205a1.23 1.23 0 0 1 .41-2.16 109.66 109.66 0 0 0 13.79-5 1.25 1.25 0 0 1 1.63.62 1.23 1.23 0 0 1-.63 1.63 111.06 111.06 0 0 1-14.11 5.14 1.23 1.23 0 0 1-1.09-.23ZM1934.63 1191.36a1.07 1.07 0 0 1-.27-.29 1.23 1.23 0 0 1 .34-1.71 103.27 103.27 0 0 0 11.62-9 1.25 1.25 0 0 1 1.74.1 1.22 1.22 0 0 1-.1 1.74 104.07 104.07 0 0 1-11.9 9.17 1.23 1.23 0 0 1-1.43-.01ZM1959.52 1167.93a1.23 1.23 0 0 1-.24-1.71 91.25 91.25 0 0 0 9.82-16.68 1.23 1.23 0 1 1 2.24 1 93.19 93.19 0 0 1-10.08 17.13 1.23 1.23 0 0 1-1.72.25ZM1975.2 1133.55a1.23 1.23 0 0 1-.45-1.24 90 90 0 0 0 1.94-15.94 1.24 1.24 0 1 1 2.47.08 92.14 92.14 0 0 1-2 16.38 1.24 1.24 0 0 1-1.47 1 1.38 1.38 0 0 1-.49-.28ZM1975.86 1098.11a1.2 1.2 0 0 1-.47-.78 110.1 110.1 0 0 0-3.51-14.68 1.23 1.23 0 1 1 2.35-.74 111.73 111.73 0 0 1 3.59 15 1.23 1.23 0 0 1-1 1.42 1.22 1.22 0 0 1-.96-.22ZM1965.85 1066.22a1.21 1.21 0 0 1-.38-.48c-2.37-5.33-5.09-10.69-8.06-16a1.23 1.23 0 1 1 2.14-1.21c3 5.33 5.76 10.77 8.17 16.17a1.23 1.23 0 0 1-.62 1.63 1.22 1.22 0 0 1-1.25-.11ZM1947.68 1034.07a1.2 1.2 0 0 1-.27-.28c-4.34-6.34-9.16-12.76-14.33-19.08a1.25 1.25 0 0 1 .18-1.74 1.23 1.23 0 0 1 1.74.18c5.21 6.37 10.07 12.85 14.45 19.25a1.23 1.23 0 0 1-1.77 1.67ZM1921.66 1001.61l-.15-.14a250.23 250.23 0 0 0-18.25-17.7 1.23 1.23 0 0 1-.12-1.74 1.26 1.26 0 0 1 1.74-.12 253.29 253.29 0 0 1 18.44 17.88 1.24 1.24 0 0 1-1.66 1.82ZM1867.78 957.3a1.24 1.24 0 0 1-.28-1.65 1.23 1.23 0 0 1 1.7-.37c7.91 5.06 15.72 10.56 23 16.25a1.23 1.23 0 0 1-1.51 2c-7.33-5.66-15-11.11-22.86-16.12Z" class="color592531 svgShape"></path><path fill="#aed1f5" d="M510.78 1086.71 347.9 1150.8l27.97 9.35 134.91-73.44z" class="colorf5b6ae svgShape"></path><path fill="#86b8eb" d="m510.78 1086.71-134.91 73.44 35.3 49.71 99.61-123.15z" class="coloreb9086 svgShape"></path><path fill="#253059" d="m411.17 1209.86 99.61-123.15-107.15 81.89 7.54 41.26z" class="color592531 svgShape"></path><path fill="#aed1f5" d="m450.99 1191 59.79-104.29-107.15 81.89 47.36 22.4z" class="colorf5b6ae svgShape"></path><path fill="#253059" d="M337.35 1522.54a1.51 1.51 0 0 0 .52-.76 1.49 1.49 0 0 0-1-1.84 130 130 0 0 1-16.57-6 1.48 1.48 0 0 0-1.2 2.71 133.31 133.31 0 0 0 16.95 6.16 1.5 1.5 0 0 0 1.3-.27ZM301.85 1506.18a1.91 1.91 0 0 0 .33-.36 1.48 1.48 0 0 0-.41-2 123.38 123.38 0 0 1-14-10.76 1.5 1.5 0 0 0-2.09.12 1.47 1.47 0 0 0 .12 2.09 127.2 127.2 0 0 0 14.29 11 1.5 1.5 0 0 0 1.76-.09ZM272 1478a1.47 1.47 0 0 0 .29-2.06 109.67 109.67 0 0 1-11.79-20 1.47 1.47 0 1 0-2.69 1.21 112.07 112.07 0 0 0 12.1 20.58 1.49 1.49 0 0 0 2.08.3ZM253.12 1436.74a1.47 1.47 0 0 0 .54-1.49 108.84 108.84 0 0 1-2.33-19.15 1.48 1.48 0 1 0-3 .1 111.09 111.09 0 0 0 2.4 19.67 1.48 1.48 0 0 0 1.76 1.14 1.52 1.52 0 0 0 .63-.27ZM252.34 1394.17a1.52 1.52 0 0 0 .56-.93 130.84 130.84 0 0 1 4.21-17.64 1.48 1.48 0 0 0-2.82-.89 135.86 135.86 0 0 0-4.32 18 1.48 1.48 0 0 0 1.22 1.7 1.5 1.5 0 0 0 1.15-.24ZM264.36 1355.87a1.61 1.61 0 0 0 .45-.57c2.85-6.4 6.11-12.85 9.68-19.17a1.48 1.48 0 1 0-2.57-1.46c-3.63 6.4-6.92 12.94-9.82 19.42a1.48 1.48 0 0 0 2.26 1.78ZM286.17 1317.26a1.53 1.53 0 0 0 .33-.34c5.21-7.62 11-15.33 17.21-22.92a1.48 1.48 0 0 0-.22-2.08 1.46 1.46 0 0 0-2.08.21c-6.26 7.65-12.1 15.44-17.36 23.12a1.48 1.48 0 0 0 2.12 2ZM317.42 1278.27a1 1 0 0 0 .18-.17 301.16 301.16 0 0 1 21.93-21.25 1.48 1.48 0 0 0 .14-2.09 1.51 1.51 0 0 0-2.08-.15 301.2 301.2 0 0 0-22.15 21.47 1.48 1.48 0 0 0 2 2.19ZM382.14 1225.05a1.48 1.48 0 0 0-1.7-2.43 369.963 369.963 0 0 0-27.67 19.52 1.48 1.48 0 1 0 1.81 2.34c8.8-6.79 18-13.34 27.45-19.36Z" class="color592531 svgShape"></path></svg>