<svg xmlns="http://www.w3.org/2000/svg" viewBox="0 0 1364 960" id="Referraladvertisement"><path fill="#d6eaff" d="M251.894 733.302c-2.011-3.714.354-8.62 4.077-10.595 3.723-1.976 8.257-1.668 12.377-.714 6.665 1.543 12.399 4.367 18.26 7.581a281.275 281.275 0 0 1-10.882-15.592 287.176 287.176 0 0 1-6.613-10.683c-8.383 4.466-18.118 6.369-27.564 5.356-3.58-.384-7.555-1.488-9.262-4.658-1.994-3.704.372-8.61 4.082-10.592 3.711-1.981 8.224-1.684 12.323-.741 6.883 1.584 12.766 4.55 18.828 7.899-6.431-11.2-12.078-22.859-16.67-34.92-8.88 2.955-18.635 3.251-27.667.789-3.474-.946-7.224-2.666-8.407-6.068-1.38-3.973 1.733-8.442 5.711-9.81 3.978-1.368 8.386-.36 12.285 1.222 6.316 2.563 11.509 6.248 16.766 10.338-4.64-12.79-8.282-26.481-7.895-40.122.008-.284.029-.568.039-.851-9.302 1.739-19.121.651-27.805-3.117-3.304-1.433-6.77-3.671-7.454-7.205-.799-4.13 2.92-8.109 7.053-8.895 4.132-.786 8.351.842 11.984 2.963 6.4 3.738 11.296 8.601 16.33 13.892.876-15.744 4.658-31.394 4.991-47.144-9.443 1.867-19.45.812-28.282-3.02-3.303-1.433-6.77-3.67-7.454-7.206-.799-4.13 2.92-8.108 7.053-8.894 4.132-.786 8.352.841 11.984 2.963 6.572 3.839 11.558 8.864 16.736 14.32.013-3.937-.202-7.88-.754-11.834-1.118-8.005-3.939-15.694-7.975-22.774-8.781 4.461-18.96 6.127-28.701 4.667-3.561-.534-7.487-1.804-9.058-5.043-1.836-3.785.734-8.587 4.524-10.411 3.791-1.824 8.287-1.337 12.343-.223 7.439 2.044 13.615 5.684 20.119 9.686-6.75-11.29-16.587-20.941-27.519-27.702-8.4 3.046-17.663 3.704-26.401 1.819-3.52-.76-7.357-2.276-8.719-5.609-1.592-3.894 1.278-8.524 5.177-10.102 3.899-1.579 8.356-.808 12.333.563 6.344 2.186 11.659 5.518 17.04 9.248.243.016.496.086.753.237 9.433 5.546 17.683 13.013 24.402 21.633a98.508 98.508 0 0 1 4.247 5.882c-1.736-8.518-1.129-17.512 1.802-25.699 1.214-3.39 3.221-6.996 6.703-7.91 4.069-1.068 8.282 2.383 9.336 6.456 1.055 4.072-.294 8.389-2.173 12.153-3.507 7.019-8.379 12.439-13.669 18.15 2.634 4.353 4.862 8.947 6.401 13.789 2.332 7.334 3.158 14.809 3.155 22.333 2.266-8.675 7.004-16.701 13.549-22.834 2.627-2.462 6.058-4.755 9.574-3.978 4.107.907 6.281 5.901 5.361 10.006-.92 4.105-4.09 7.33-7.48 9.821-6.497 4.772-13.506 7.384-21.048 10.129-.364 12.408-2.734 24.916-4.126 37.118-.438 3.841-.765 7.665-.884 11.488 1.981-9.533 6.943-18.429 14.04-25.097 2.624-2.465 6.052-4.762 9.569-3.991 4.109.902 6.289 5.893 5.374 9.999-.914 4.106-4.08 7.336-7.468 9.831-6.638 4.89-13.815 7.52-21.55 10.346-.082 4.076.094 8.151.673 12.245 1.058 7.487 2.966 14.845 5.309 22.026a188.69 188.69 0 0 0 1.966 5.698c.965-8.777 4.393-17.281 9.831-24.241 2.217-2.837 5.254-5.63 8.847-5.405 4.199.263 7.116 4.863 6.838 9.06-.277 4.197-2.912 7.873-5.879 10.856-5.481 5.512-11.741 9.112-18.483 12.835 4.488 11.783 10.095 23.165 16.391 34.088-1.273-9.127.135-18.62 4.057-26.962 1.533-3.258 3.874-6.656 7.428-7.232 4.152-.674 8.016 3.164 8.677 7.319.661 4.154-1.094 8.322-3.324 11.889-4.234 6.768-9.718 11.752-15.646 17.031a319.082 319.082 0 0 0 2.568 4.303c4.767 7.822 9.905 15.457 15.45 22.781-1.104-8.907.334-18.126 4.156-26.251 1.532-3.259 3.874-6.655 7.428-7.233 4.152-.674 8.017 3.165 8.677 7.319.66 4.154-1.095 8.322-3.326 11.889-4.117 6.582-9.416 11.477-15.156 16.596 6.421 8.274 13.378 16.125 20.933 23.359 1.573 1.507-.872 3.844-2.442 2.34-7.629-7.305-14.638-15.249-21.116-23.607-8.426 4.478-18.227 6.375-27.745 5.336-3.595-.39-7.591-1.504-9.313-4.682zM1247.969 306.106c.616-3.807-1.456-7.745-4.621-9.94-3.165-2.195-7.235-2.805-11.056-2.32-3.822.485-7.444 1.983-10.89 3.709-5.703 2.857-11.21 6.545-15.086 11.544a182.532 182.532 0 0 1-.823-28.058c.04-.852.096-1.702.148-2.553l19.895 2.358c4.424.524 8.979 1.041 13.28-.125 4.302-1.166 8.349-4.431 9.061-8.836.616-3.807-1.456-7.745-4.621-9.94-3.165-2.195-7.234-2.805-11.056-2.32s-7.444 1.983-10.89 3.709c-5.882 2.947-11.56 6.777-15.449 12.02a186.147 186.147 0 0 1 5.021-30.764l20.25 1.615c4.441.354 9.012.695 13.267-.635 4.255-1.331 8.173-4.748 8.716-9.177.469-3.828-1.752-7.684-4.999-9.755s-7.337-2.525-11.137-1.894c-3.8.631-7.363 2.267-10.741 4.124-5.407 2.974-10.607 6.716-14.274 11.615a183.225 183.225 0 0 1 7.304-21.35c.851-2.06 1.754-4.097 2.682-6.122l20.88.975c4.451.208 9.031.398 13.239-1.072 4.208-1.469 8.013-5.014 8.411-9.458.343-3.842-2.003-7.621-5.317-9.585-3.313-1.964-7.416-2.283-11.194-1.527-3.778.756-7.285 2.507-10.6 4.475-4.737 2.811-9.282 6.231-12.698 10.499a175.562 175.562 0 0 1 11.452-19.551l18.354-8.859c4.015-1.938 8.135-3.952 11.14-7.249 3.005-3.298 4.668-8.226 2.905-12.322-1.524-3.541-5.385-5.745-9.234-5.893-3.849-.148-7.61 1.528-10.575 3.992-2.965 2.465-5.219 5.675-7.2 8.984-3.652 6.097-6.552 12.934-6.658 20.001-.015.02-.032.034-.046.056a177.189 177.189 0 0 0-12.146 20.832c.648-5.696-.302-11.603-1.86-17.169-1.04-3.712-2.367-7.402-4.578-10.557-2.211-3.156-5.398-5.759-9.15-6.627-3.753-.868-8.059.245-10.463 3.261-2.781 3.489-2.475 8.681-.446 12.65 2.03 3.969 5.474 6.995 8.837 9.918l15.364 13.357a183.182 183.182 0 0 0-10.105 27.72c-.643-6-3.123-11.806-6.167-17.076-1.928-3.337-4.129-6.58-7.053-9.087-2.924-2.507-6.658-4.236-10.509-4.144-3.851.092-7.748 2.24-9.329 5.759-1.829 4.07-.246 9.022 2.704 12.362 2.951 3.34 7.038 5.414 11.021 7.41l18.191 9.114c-.075.3-.157.599-.231.901a188.908 188.908 0 0 0-4.816 30.055c-1.572-6.577-5.545-12.457-10.073-17.539-2.563-2.877-5.374-5.606-8.745-7.467-3.372-1.862-7.379-2.797-11.132-1.927-3.754.87-7.136 3.765-7.973 7.53-.968 4.355 1.583 8.883 5.149 11.555 3.566 2.671 7.988 3.874 12.293 5.02l20.294 5.405-.025.425-.172.099.165.02a185.79 185.79 0 0 0 .522 29.611c-3.621-4.876-8.714-8.674-14.027-11.728-3.404-1.956-7-3.69-10.859-4.407-3.86-.717-8.036-.335-11.387 1.709s-5.693 5.924-5.293 9.829c.462 4.517 4.385 8.073 8.693 9.51 4.308 1.437 8.972 1.18 13.505.906l19.313-1.165.583.069a176.899 176.899 0 0 0 6.994 31.857c.349 1.096 2.128.759 1.774-.351a176.522 176.522 0 0 1-6.915-31.286l18.874 2.237c4.424.524 8.978 1.041 13.28-.125 4.3-1.167 8.346-4.432 9.058-8.837z" class="colord6e6ff svgShape"></path><path fill="#bddeff" d="M950.501 197.175c-132.427 24.194-209.012 138.578-234.399 223.539 0 0 103.012-49.414 143.182 81.629 52.043 169.774 377.331 74.224 378.82-98.666 1.665-193.255-153.524-230.998-287.603-206.502z" class="colorbdd5ff svgShape"></path><path fill="#bddeff" d="M960.7 162.135c-.597-2.173-2.645-2.975-4.686-2.66-16.114 2.482-32.007 6.39-47.463 11.576-15.584 5.229-30.813 11.757-45.248 19.635-14.37 7.843-28.031 17.031-40.918 27.114-6.382 4.993-12.459 10.508-18.429 15.984-6.007 5.51-11.86 11.186-17.449 17.122-11.085 11.774-21.547 24.487-30.295 38.11a297.157 297.157 0 0 0-3.277 5.229c-.574.937.85 1.738 1.457.852 9.179-13.382 19.126-26.175 30.239-38.013 10.978-11.694 22.849-22.662 35.908-32.001 13.152-9.405 26.625-18.207 40.954-25.732 14.176-7.445 28.778-13.985 43.882-19.316 15.225-5.373 30.893-9.498 46.801-12.256 1.951-.338 3.906-.655 5.863-.957 2.036-.315 3.161-2.869 2.661-4.687zM1009.431 155.126c-5.688-.31-11.484-.374-17.152.267-2.87.325-5.734.729-8.578 1.233-1.36.241-2.695.529-4.002.985-.778.272-1.595.57-2.301.997-.672.407-1.086 1.104-1.77 1.417-1.589.727-.713 3.13.852 3.145.718.007 1.561.527 2.319.611.588.065 1.153.086 1.745.075 1.375-.027 2.726-.181 4.09-.337 2.738-.314 5.483-.516 8.235-.662 5.532-.292 11.027-.431 16.562-.112 2.056.118 3.809-1.836 3.809-3.809 0-2.157-1.747-3.698-3.809-3.81zM845.485 521.763c-.423-2.45-1.544-4.794-2.453-7.105a396.437 396.437 0 0 1-2.722-7.087c-1.763-4.752-3.443-9.534-5.2-14.289-3.529-9.547-7.376-19.007-12.838-27.636-10.059-15.893-25.56-27.884-43.887-32.572-4.943-1.264-9.889-2.185-14.981-2.586-5.149-.406-10.363-.012-15.524.033-1.368.012-1.161 2.146.256 1.894 4.562-.81 9.011-.424 13.559.227 4.342.622 8.623 1.685 12.787 3.058 8.276 2.729 16.297 7.161 23.179 12.489 6.966 5.394 13.011 11.942 17.685 19.409 5.065 8.091 8.784 16.984 12.156 25.888 1.95 5.149 3.788 10.34 5.716 15.497.978 2.616 1.966 5.231 3.031 7.813 1.149 2.786 2.268 5.56 4.16 7.921.829 1.034 2.612 1.101 3.681.476 1.236-.723 1.627-2.088 1.395-3.43zM864.485 550.755c-.419-.385-.928-.682-1.417-.969a42.605 42.605 0 0 1-2.155-1.333 35.592 35.592 0 0 1-1.591-1.129l-.097-.075a66.406 66.406 0 0 1-2.021-1.689 28.971 28.971 0 0 1-1.845-1.746c-.583-.602-1.102-1.287-1.716-1.854-.613-.566-1.242-1.109-1.835-1.697-.596-.592-1.078-1.263-1.561-1.949-.345-.489-.927-.747-1.505-.493-.51.224-.908.849-.698 1.422.639 1.74 1.292 3.49 2.019 5.196.341.801.91 1.519 1.423 2.219a59.835 59.835 0 0 0 1.948 2.509c1.119 1.368 2.394 2.615 3.731 3.769a46.245 46.245 0 0 0 2.59 2.062c.496.369 1.099.818 1.705.956 1.013.231 1.819.005 2.711-.436.765-.378 1.302-1.366 1.266-2.207-.041-.937-.21-1.875-.952-2.556zM1271.64 413.467c-.746-15.605-3.956-30.834-9.051-45.577-.564-1.632-3.121-1.129-2.677.625 3.286 12.989 5.135 26.523 5.631 39.911.501 13.523-.193 26.988-2.423 40.344-4.056 24.287-13.541 47.576-27.355 67.931a186.947 186.947 0 0 1-12.106 15.932 177.41 177.41 0 0 1-6.83 7.598c-2.494 2.618-5.174 5.025-7.287 7.972-1.82 2.538 1.487 6.203 4.178 4.523 2.815-1.756 5.053-4.029 7.35-6.401a177.443 177.443 0 0 0 6.388-6.963c4.118-4.737 7.98-9.67 11.558-14.828 7.156-10.317 13.192-21.392 18.182-32.91 10.606-24.486 15.717-51.481 14.442-78.157zM1195.711 558.916c-1.345 1.572-3.052 2.714-4.639 4.038-1.528 1.275-3.313 2.435-4.882 3.526-1.682 1.17-3.438 2.263-5.281 3.161a50.922 50.922 0 0 1-4.339 1.869l-.225.085c-.276.101-.553.199-.831.296-1.816.632-3.002 2.313-2.265 4.273.704 1.874 2.75 2.534 4.518 1.726 4.079-1.865 7.934-4.369 11.457-7.136 1.723-1.353 3.161-2.932 4.623-4.556 1.542-1.711 2.637-3.658 4.028-5.47.972-1.268-1.112-3.042-2.164-1.812z" class="colorbdd5ff svgShape"></path><circle cx="649.531" cy="415.898" r="62.647" fill="#0575e6" class="color3767b8 svgShape"></circle><path fill="#c2e0ff" d="M260.992 321.278v164.798c-37.84-8.338-66.168-42.081-66.168-82.416 0-40.336 28.329-74.044 66.168-82.382z" class="colorc2d9ff svgShape"></path><path fill="#a8d3ff" d="M243.89 327.117v80.35c0 24.246-30.37 35.947-46.072 17.472l-.354-.419c7.819 30.704 32.448 54.707 63.528 61.555V321.278c-5.974 1.317-11.676 3.331-17.102 5.839z" class="colora8c9ff svgShape"></path><path fill="#c2e0ff" d="M363.613 403.659c0 46.606-37.77 84.412-84.377 84.412-6.27 0-12.365-.677-18.244-1.995V321.278c5.879-1.318 11.974-1.995 18.244-1.995 46.607 0 84.377 37.77 84.377 84.376z" class="colorc2d9ff svgShape"></path><path fill="#c2e0ff" d="M653.472 608.905C583.58 535.707 409.324 506.419 290.253 482.43V324.9c116.464-21.806 283.138-47.52 363.219-126.475v410.48z" class="colorc2d9ff svgShape"></path><path fill="#a8d3ff" d="M600.362 237.449c0 126.699-117.479 220.73-241.095 192.952-23.427-5.264-46.692-10.03-69.013-14.487v66.516c119.071 23.989 293.326 53.277 363.219 126.475v-410.48c-14.974 14.763-32.978 27.662-53.111 39.024z" class="colora8c9ff svgShape"></path><path fill="#528fcc" d="M398.283 299.792v207.734c0 4.917-3.991 8.872-8.908 8.872H269.9c-4.917 0-8.908-3.955-8.908-8.872V299.792c0-4.882 3.991-8.872 8.908-8.872h119.475c4.917 0 8.908 3.991 8.908 8.872z" class="color527fcc svgShape"></path><path fill="#528fcc" d="M368.067 757.266h-76.863c-10.217 0-18.042-11.786-16.527-24.893l25.028-216.524h59.862l25.028 216.524c1.514 13.107-6.312 24.893-16.528 24.893z" class="color527fcc svgShape"></path><path fill="#0575e6" d="m384.594 732.373-25.028-216.524h-22.955l10.96 115.346c4.008 42.181-28.205 79.086-70.541 80.814l-2.354 20.364c-1.515 13.106 6.31 24.893 16.527 24.893h76.864c10.216 0 18.042-11.786 16.527-24.893z" class="color3767b8 svgShape"></path><path fill="#528fcc" d="M653.472 198.425h16.204v410.48h-16.204z" class="color527fcc svgShape"></path><path fill="#0575e6" d="M373.686 326.594h-88.102a1.52 1.52 0 0 1-1.52-1.52v-5.736c0-.84.681-1.52 1.52-1.52h88.102c.84 0 1.52.681 1.52 1.52v5.736c0 .84-.68 1.52-1.52 1.52zM373.686 357.467h-88.102a1.52 1.52 0 0 1-1.52-1.52v-5.736c0-.84.681-1.52 1.52-1.52h88.102c.84 0 1.52.681 1.52 1.52v5.736c0 .84-.68 1.52-1.52 1.52zM373.686 388.341h-88.102a1.52 1.52 0 0 1-1.52-1.52v-5.736c0-.84.681-1.52 1.52-1.52h88.102c.84 0 1.52.681 1.52 1.52v5.736c0 .839-.68 1.52-1.52 1.52zM373.686 419.214h-88.102a1.52 1.52 0 0 1-1.52-1.52v-5.736c0-.84.681-1.52 1.52-1.52h88.102c.84 0 1.52.681 1.52 1.52v5.736c0 .839-.68 1.52-1.52 1.52zM373.686 450.087h-88.102a1.52 1.52 0 0 1-1.52-1.52v-5.736c0-.84.681-1.52 1.52-1.52h88.102c.84 0 1.52.681 1.52 1.52v5.736c0 .84-.68 1.52-1.52 1.52zM373.686 480.96h-88.102a1.52 1.52 0 0 1-1.52-1.52v-5.736c0-.84.681-1.52 1.52-1.52h88.102c.84 0 1.52.681 1.52 1.52v5.736c0 .84-.68 1.52-1.52 1.52z" class="color3767b8 svgShape"></path><path fill="#c2e0ff" d="M227.599 316.319c-5.473 1.465-10.99 3.088-16.099 5.571-5.216 2.535-10.35 5.684-14.801 9.414-9.087 7.617-16.443 17.309-21.012 28.259a72.03 72.03 0 0 0-3.089 8.991c-.902 3.347-1.986 7.179-.674 10.553.818 2.105 3.351 2.485 4.671.611 1.704-2.419 2.023-5.331 2.674-8.177a69.959 69.959 0 0 1 2.288-7.848c1.791-5.037 4.18-9.945 6.98-14.537 5.665-9.291 13.42-17.663 22.448-23.765 5.209-3.522 10.742-6.627 16.82-8.327.477-.134.275-.874-.206-.745zM173.279 409.744a45.979 45.979 0 0 1-.58-4.484c-.135-1.591-.314-3.184-.485-4.771-.087-.809-.377-1.582-.418-2.385-.044-.845.03-1.718.069-2.562.095-2.076-3.365-2.618-3.694-.5-.139.897-.242 1.798-.372 2.695-.112.775-.445 1.485-.586 2.255-.322 1.764-.412 3.662-.34 5.451.069 1.708.213 3.413.428 5.109.249 1.967.41 4.052 1.221 5.873.523 1.175 2.279 1.789 3.458 1.407 1.265-.41 2.281-1.568 2.248-2.952-.04-1.71-.652-3.451-.949-5.136z" class="colorc2d9ff svgShape"></path><path fill="#4564d9" d="M721.359 245.728c.289.466.381 1.028.246 1.581a2.058 2.058 0 0 1-1.437 1.502l-6.966 2.032a2.059 2.059 0 0 1-2.02-.494 2.062 2.062 0 0 1-.582-1.996l1.723-7.049a2.056 2.056 0 0 1 1.438-1.502 2.056 2.056 0 0 1 2.019.494l5.243 5.017c.131.126.244.266.336.415zm-9.117 3.347a.443.443 0 0 0 .073.09.43.43 0 0 0 .427.104l6.966-2.032a.432.432 0 0 0 .304-.318.431.431 0 0 0-.123-.422l-5.243-5.017a.429.429 0 0 0-.427-.104.43.43 0 0 0-.304.318l-1.723 7.049a.42.42 0 0 0 .05.332zM620.58 641.298c.289.466.381 1.028.246 1.581a2.058 2.058 0 0 1-1.437 1.502l-6.966 2.032a2.059 2.059 0 0 1-2.02-.494 2.062 2.062 0 0 1-.582-1.996l1.724-7.049a2.056 2.056 0 0 1 1.438-1.502 2.056 2.056 0 0 1 2.019.494l5.243 5.017c.13.127.243.266.335.415zm-9.117 3.347a.443.443 0 0 0 .073.09.43.43 0 0 0 .427.104l6.966-2.032a.432.432 0 0 0 .304-.318.431.431 0 0 0-.123-.422l-5.243-5.017a.429.429 0 0 0-.427-.104.43.43 0 0 0-.304.318l-1.723 7.049a.422.422 0 0 0 .05.332z" class="colord94559 svgShape"></path><path fill="#6bb5ff" d="m159.907 530.036 2.562-2.562a1.488 1.488 0 1 0-2.106-2.106l-2.562 2.563-2.563-2.563a1.488 1.488 0 1 0-2.106 2.106l2.562 2.562-2.558 2.558a1.488 1.488 0 1 0 2.106 2.106l2.558-2.558 2.558 2.558a1.486 1.486 0 0 0 2.106 0 1.488 1.488 0 0 0 0-2.106l-2.557-2.558zM1285.792 316.306l2.562-2.562a1.488 1.488 0 1 0-2.106-2.106l-2.562 2.563-2.563-2.563a1.488 1.488 0 1 0-2.106 2.106l2.562 2.562-2.558 2.558a1.488 1.488 0 1 0 2.106 2.106l2.558-2.558 2.558 2.558c.291.291.672.436 1.053.436s.763-.145 1.053-.436a1.488 1.488 0 0 0 0-2.106l-2.557-2.558zM135.457 419.216l2.562-2.562a1.488 1.488 0 1 0-2.106-2.106l-2.562 2.563-2.562-2.563a1.488 1.488 0 1 0-2.106 2.106l2.562 2.562-2.558 2.558a1.488 1.488 0 1 0 2.106 2.106l2.558-2.558 2.558 2.558a1.486 1.486 0 0 0 2.106 0 1.488 1.488 0 0 0 0-2.106l-2.558-2.558z" class="colorffb86b svgShape"></path><path fill="#4e88c2" d="M227.908 264.993a5.86 5.86 0 0 1-5.853-5.853 5.86 5.86 0 0 1 5.853-5.853 5.86 5.86 0 0 1 5.853 5.853 5.86 5.86 0 0 1-5.853 5.853zm0-9.874a4.026 4.026 0 0 0-4.021 4.021 4.026 4.026 0 0 0 4.021 4.021 4.026 4.026 0 0 0 4.021-4.021 4.025 4.025 0 0 0-4.021-4.021zM910.987 632.907a5.86 5.86 0 0 1-5.853-5.853c0-3.227 2.626-5.853 5.853-5.853s5.853 2.625 5.853 5.853a5.86 5.86 0 0 1-5.853 5.853zm0-9.874a4.026 4.026 0 0 0-4.021 4.021 4.026 4.026 0 0 0 4.021 4.021 4.026 4.026 0 0 0 4.021-4.021 4.026 4.026 0 0 0-4.021-4.021z" class="color4e80c2 svgShape"></path><path fill="#c7e3ff" d="M365.367 348.293c-2.477-12.549-3.829-22.81-3.485-31.85.244-6.63.9-12.716 1.433-18.835l-38.45-22.011-12.217-6.996h23.412s33.397 10.828 39.061 20.267c3.809 6.352 3.021 20.667 1.233 33.65-1.888 13.615-3.273 25.367-3.273 25.367l-7.714.408z" class="colorffc7c7 svgShape"></path><path fill="#2c3f85" d="m365.271 348.015-1.971 6.446 1.234 10.019 1.984.096 1.809-8.771 3.203 5.824c.863 1.568 2.157 2.851 3.932 3.081 4.681.607 13.828.765 14.207-2.307.39-3.156-8.477-3.292-11.066-6.762-2.508-3.361-5.523-7.757-5.523-7.757l-7.809.131z" class="color2c3f85 svgShape"></path><path fill="#1d2c66" d="M376.212 328.14c-4.376.932-9.361.744-14.648 0l.319-11.697-28.743-32.595-8.274-8.251-7.008-6.996h18.203s35.707 10.868 40.431 20.811c2.926 6.161 2.057 21.124-.28 38.728z" class="color1d2d66 svgShape"></path><path fill="#d1e8ff" d="M337.216 339.457c3.886-6.49 12.028-29.523 12.434-34.939-13.429-4.921-31.876-1.645-41.841-12.363-6.791-7.304-3.353-15.368-2.423-23.379 5.599-.446 13.667-1.578 18.578-.541 18.502 3.907 41.875 19.291 43.907 31.456 1.969 11.787-17.175 39.835-25.465 43.621-2.847.545-4.171-1.985-5.19-3.855z" class="colorffd1d1 svgShape"></path><path fill="#2c3f85" d="M357.162 328.14c-3.769-.082-11.383-4.842-13.16-6.413 2.19-5.771 3.018-10.311 4.623-15.403-10.3-3.722-20.943-4.028-31.594-7.066-3.232-.922-8.067-3.772-9.82-6.605-4.697-7.593-4.383-15.268-2.729-23.335.154-.749-.44.075.297-.419.233-.156-2.196.279.711-.069 2.907-.348 14.517-2.281 19.35-1.223 18.247 3.994 44.976 22.308 44.046 32.084-.656 6.903-4.968 19.063-11.724 28.449zM337.216 339.457c-2.208 1.247-4.974 1.816-7.372 2.634-2.548 1.908-4.959 4.091-7.253 6.296.466.469.929.942 1.394 1.411 2.806-1.266 5.57-2.682 8.352-3.969-.92 1.7-2.016 4.063-2.938 5.616-.922 1.553-.859 3.514-.226 4.672 1.669 3.054 7.763 11.011 10.933 9.401s-2.585-9.401-1.419-12.574 2.4-6.504 3.719-9.632a67.19 67.19 0 0 0-5.19-3.855zM326.192 207.508s5.876-4.98 2.126-11.162c-3.676-6.059-13.112-4.784-14.81-1.299-3.352-.561-5.904 1.059-7.427 3.78-.982 1.755-2.985 5.912-2.853 12.594.118 5.928-4.94 7.904-6.804 13.363-2.111 6.18 1.15 7.242-3.146 15.571-3.543 6.869.823 11.103 5.434 10.35 5.678-.927 34.815-10.162 34.815-10.162.861-.002 4.836-9.184.282-13.738-7.151-7.152-3.199-14.586-7.617-19.297z" class="color2c3f85 svgShape"></path><path fill="#e6e6e6" d="M316.302 299.785c-4.242-2.121-7.852-4.72-10.029-7.896-5.842-8.507-2.054-20.956-1.366-22.999.067-.189.1-.289.1-.289h.044l5.953 2.476c-4.24 10.751-1.82 20.191 5.298 28.708z" class="colore6e6e6 svgShape"></path><path fill="#476eff" d="M328.092 243.954c3.999 4.832 11.148 10.434 15.242 15.187 2.018-1.75 4.369-2.616 6.059-4.846-6.878-10.43-14.531-20.962-23.32-29.907 1.639 6.805.107 12.858 2.019 19.566z" class="colorffbc47 svgShape"></path><path fill="#476eff" d="M337.749 269.167c-9.418-1.255-17.148 2.654-26.744 1.91a31.703 31.703 0 0 1-3.554-.477c-2.233-.444-3.787-2.488-3.554-4.753l3.165-30.873 2.788-9.495.644-2.176 4.992-2.677 5.489.189c8.185 3.554 13.83 13.171 8.866 23.799-4.82 10.327 7.908 24.553 7.908 24.553z" class="colorffbc47 svgShape"></path><path fill="#d1e8ff" d="M321.215 220.898c0 3.107-2.885 3.107-5.779 0l.679-3.755.42-2.336 4.351 2.176.32 3.832.009.083z" class="colorffd1d1 svgShape"></path><path fill="#355cf0" d="M313.837 242.78c-2.188 5.953-4.409 20.157-2.832 28.297a31.703 31.703 0 0 1-3.554-.477c-2.233-.444-3.787-2.488-3.554-4.753l3.165-30.873 2.788-9.495c2.454 1.932 3.863 4.329 3.863 4.329s2.812 5.72.124 12.972z" class="colorf0ac35 svgShape"></path><path fill="#d1e8ff" d="M340.246 258.592c-2.499 3.8-4.027 3.116-7.375 3.318-4.284.344-9.024.665-13.434.32-5.321-.416-13.162 1.059-17.492-2.476s1.157-20.978 2.436-24.902c1.698-5.21 3.601-7.481 6.104-11.604-1.123 3.994-2.245 7.808-3.368 11.731.705 6.075 1.297 12.184 1.925 18.257 4.302.581 7.524.647 12.066 1.418 4.009.681 9.489 1.932 13.663 3.072 3.68-2 7.974-2.935 5.475.866z" class="colorffd1d1 svgShape"></path><path fill="#476eff" d="M321.262 254.436c-.448 2.427-1.266 5.664-1.895 8.186-5.628.264-12.4 1.374-17.647-3.043-5.247-4.417-1.715-22.309.405-27.202 2.276-5.254 4.174-6.928 8.374-9.149 8.037 8.081.159 18.598-.872 29.311 3.981.506 7.675 1.253 11.635 1.897z" class="colorffbc47 svgShape"></path><path fill="#c7e3ff" d="M321.105 219.595c-.328.211-1.151.399-1.604.322-1.805-.31-2.607-1.14-3.385-2.774l.42-2.336 4.351 2.176.218 2.612z" class="colorffc7c7 svgShape"></path><path fill="#d1e8ff" d="M326.294 199.085c-5.564-1.074-4.717 6.124-10.336 6.89 0 0-2.038-2.565-3.558-1.016-1.835 1.869 1.525 4.687 1.525 4.687.298 4.923 3.841 8.829 7.511 7.907 8.348-2.098 4.858-18.468 4.858-18.468z" class="colorffd1d1 svgShape"></path><path fill="#c8d5e3" d="m327.208 272.888 6.498-19.507a3.771 3.771 0 0 1 3.298-1.94h29.034c2.73 0 4.557 2.81 3.448 5.305l-7.55 16.988a4.06 4.06 0 0 1-3.711 2.412h-28.668a2.477 2.477 0 0 1-2.349-3.258z" class="colorc8cbe3 svgShape"></path><circle cx="349.577" cy="265.089" r="2.755" fill="#ffffff" class="colorffffff svgShape"></circle><path fill="#c2ddf9" d="M128.553 586.807s27.119 15.662 35.384 12.735c3.609-1.28 7.216-5.519 10.169-10.805 4.303-7.701 7.22-17.619 6.725-23.808-.64-8.034-12.854-3.908-15.311 3.657-2.903 8.938-3.739 9.637-5.01 13.78-.467 1.541-.945 2.648-1.508 3.232-2.952 3.061-26.832-6.606-26.832-6.606s-8.647-5.256-11.152-1.818c-5.278 7.244 4.954 11.328 7.535 9.633z" class="colorf9c2c2 svgShape"></path><path fill="#70b7ff" d="m157.948 584.588 17.513 8.565c4.75-8.502 8.816-18.685 8.269-25.519-.707-8.869-14.065-13.274-19.428.697-2.839 7.394-4.951 11.684-6.354 16.257z" class="color7080ff svgShape"></path><path fill="#cbe2f9" d="m159.391 756.617-2.859-9.139c.568-1.521 1.518-3.883 2.049-5.325 8.092-21.962 11.998-34.976 14.292-54.866 2.924-25.388 15.859-20.88 18.863-50.175l-35.202-17.622c-5.69 17.367-8.163 41.594-8.736 64.839-.414 16.744 2.185 35.782-.343 57.824-.138 1.245-1.303 4.063-1.479 5.325l-12.625 9.139h26.04z" class="colorf9cbcb svgShape"></path><path fill="#1c2e70" d="M146.198 742.153h14.413c8.092-21.962 9.968-34.976 12.262-54.866.668-5.79 1.855-10.023 3.321-13.457 4.984-11.635 13.223-14.1 15.541-36.718l-35.202-17.622c-5.69 17.367-8.163 41.594-8.736 64.839-.413 16.745.928 35.783-1.599 57.824z" class="color1c2e70 svgShape"></path><path fill="#021b79" d="M156.616 742.153h3.995c8.092-21.962 9.968-34.976 12.262-54.866.668-5.79 1.855-10.023 3.321-13.457.301-2.043-13.651-35.693-13.651-35.693-5.686 23.615 5.118 56.388-5.927 104.016z" class="color142661 svgShape"></path><path fill="#cbe2f9" d="M214.397 740.907c.311.914.704 4.227.9 5.348-3.543 4.456-7.139 8.709-10.702 13.086 9.108-2.807 18.217-5.605 27.326-8.407-2.057-2.435-4.09-4.817-6.161-7.288-.192-1.715-.764-4.291-1.059-5.998-3.332-19.312-11.173-39.451-19.091-56.402-10.326-22.106-3.752-41.495-14.066-63.735-11.592 3.099-23.256 6.08-35.069 8.888 6.319 23.436 13.573 44.283 26.431 65.764 9.323 15.577 25.193 30.245 31.491 48.744z" class="colorf9cbcb svgShape"></path><path fill="#2c3f85" d="M181.99 692.3c9.499 15.884 24.89 30.513 31.194 48.851 4.689-1.331 9.291-2.667 13.736-4.273-3.339-19.298-13.33-38.724-21.291-55.638-10.383-22.059-3.745-41.521-14.089-63.724-11.878 2.063-23.889 3.918-35.961 5.784 6.369 24.093 13.311 47.096 26.411 69zM225.379 743.206c4.412 1.274 5.419 5.101 6.154 9.239l-26.157 8.046c-1.298-7.43 4.701-10.118 9.934-14.185 3.838 1.098 7.007-.951 10.069-3.1z" class="color2c3f85 svgShape"></path><path fill="#1c2e70" d="M156.532 747.478c4.02 1.738 3.739 6.902 3.231 10.444h-27.416c0-7.102 5.431-7.154 13.63-10.444 2.213 1.81 5.832 1.671 10.555 0z" class="color1c2e70 svgShape"></path><path fill="#5cadff" d="M157.971 623.611c10.497-.708 23.607 2.146 33.715-1.231a3.277 3.277 0 0 0 2.236-3.378 127.757 127.757 0 0 1-.297-4.374 118.192 118.192 0 0 1-.144-4.776c-.129-13.312 1.993-21.464-.526-35.723-1.561-8.846-3.863-11.985-6.357-15.388-2.502-3.414-10.026-6.021-10.026-6.021l-5.145 2.626c-21.246 7.108-16.62 47.792-17.15 64.674-.068 2.06 1.642 3.73 3.694 3.591z" class="color5c99ff svgShape"></path><path fill="#cbe2f9" d="M176.567 552.723a8.614 8.614 0 0 1-.521.972c-2.699 4.395-8.479 5.516-8.262 3.299l-1.968-5.966-2.1-6.34 6.037-3.072 2.591 4.216 4.223 6.891z" class="colorf9cbcb svgShape"></path><path fill="#bad7f5" d="M176.567 552.723a8.614 8.614 0 0 1-.521.972c-.871-1.151-3.355-6.351-5.904-3.916-2.052 1.96-4.325 1.248-4.325 1.248l3.065-5.772s1.61.256 3.462.575l4.223 6.893z" class="colorf5baba svgShape"></path><path fill="#3b4b87" d="m135.284 585.192-1.976 3.057-16.788-10.85 1.976-3.057z" class="color3b4487 svgShape"></path><path fill="#2c3f85" d="M151.938 535.32c.21.797.71.824.908 1.628.165.67.593 2.363 2.156 2.375.04 0 .079-.028.117-.041.327-.126.642-.324.986-.278.199.027.372.129.551.213 1.349.633 3.14.047 3.851-1.26a2.876 2.876 0 0 0 2.439 1.336 2.868 2.868 0 0 0 2.393-1.413c.632.453 1.447.745 2.19.518.351-.109.617-.755.759-1.48.088-.44.338.174.329-.222l-.07-.299c.574-1.043 1.629-2.252 3.193-1.326 3.038 1.799-.217 5.969-.217 5.969s.355 1.7-.936 4.467c0 0 1.242 2.363 3.408 1.195 1.046-.011 1.648-2.512 1.111-3.061a2.198 2.198 0 0 0 1.673-1.555 2.202 2.202 0 0 0-.671-2.182c-.124-.107-.263-.204-.327-.354-.123-.295.103-.61.275-.88.704-1.108.525-2.696-.409-3.618-.174-.176-.384-.346-.425-.59-.025-.154.022-.307.054-.456.277-1.286-.622-2.709-1.903-3.012-.167-.038-.351-.067-.479-.186-.191-.177-.176-.476-.206-.733-.094-.823-.777-1.492-1.556-1.78-.777-.285-1.634-.258-2.459-.156.011-.613-.456-1.157-1.018-1.401-.562-.245-1.197-.246-1.809-.198-.91.07-1.812.243-2.686.513-.039-.598-.478-1.123-1.018-1.379-.543-.256-1.17-.281-1.762-.195a5.187 5.187 0 0 0-2.902 1.461c-.203.203-.396.428-.661.536-.21.083-.441.081-.664.103-1.973.172-3.549 2.261-3.179 4.205-.949.871-1.365 2.287-1.036 3.536z" class="color2c3f85 svgShape"></path><path fill="#cbe2f9" d="M155.119 539.282c.545 1.961 1.395 4.563 2.579 6.85 1.685 3.284 4.054 5.931 7.171 5.184 2.904-.699 4.541-2.606 5.461-4.591 1.292-2.767 1.194-5.685 1.194-5.685s3.252-4.169.217-5.973c-1.564-.925-2.621.286-3.194 1.329a6.122 6.122 0 0 0-.259.521 4.496 4.496 0 0 1-.204.747c-.143.38-.333.663-.553.731a1.987 1.987 0 0 1-.562.079c-.575-.004-1.155-.252-1.629-.594a2.872 2.872 0 0 1-2.394 1.412 2.876 2.876 0 0 1-2.438-1.334c-.709 1.306-2.504 1.891-3.849 1.26-.18-.084-.357-.187-.554-.214-.342-.045-.661.153-.986.278zM133.808 592.062s27.119 15.662 35.384 12.735c3.609-1.28 7.216-5.519 10.169-10.805 4.303-7.701 7.22-17.619 6.725-23.808-.64-8.034-12.854-3.908-15.311 3.657-2.903 8.938-3.739 9.637-5.01 13.78-.467 1.541-.945 2.648-1.508 3.232-2.952 3.061-26.832-6.606-26.832-6.606s-8.647-5.256-11.152-1.818c-5.278 7.244 4.954 11.328 7.535 9.633z" class="colorf9cbcb svgShape"></path><path fill="#8fc7ff" d="m163.203 589.843 17.513 8.565c4.75-8.502 8.816-18.685 8.269-25.519-.707-8.869-14.065-13.274-19.428.697-2.839 7.394-4.951 11.684-6.354 16.257z" class="color8fb9ff svgShape"></path><path fill="#ffffff" d="M926.779 311.824c0 2.052-.158 3.912-.476 5.582-.318 1.669-.817 3.201-1.498 4.595a16.394 16.394 0 0 1-2.644 3.867c-1.082 1.183-2.386 2.313-3.913 3.392l8.39 16.725-15.864 3.471-5.429-16.803-4.371.158-.635 16.409H885.18c.117-5.996.229-11.965.335-17.909.106-5.943.229-11.913.37-17.909.048-3.024.094-6.022.142-8.993.046-2.972.141-5.97.281-8.993a42.884 42.884 0 0 1 4.864-1.697c1.598-.447 3.202-.795 4.812-1.044s3.243-.421 4.901-.513a92.865 92.865 0 0 1 5.094-.138c2.68 0 5.271.413 7.774 1.243 2.503.828 4.718 2.07 6.645 3.727 1.926 1.656 3.472 3.722 4.635 6.193 1.165 2.47 1.746 5.35 1.746 8.637zm-15.792 1.263c0-1.105-.136-2.117-.406-3.038-.27-.919-.67-1.716-1.198-2.386a5.574 5.574 0 0 0-1.974-1.578c-.788-.381-1.71-.571-2.767-.571-.471 0-.93.032-1.375.099a8.462 8.462 0 0 0-1.305.296l-.564 14.673h.847c1.009 0 2.038-.144 3.085-.434a8.68 8.68 0 0 0 2.819-1.342 7.134 7.134 0 0 0 2.045-2.326c.527-.948.793-2.079.793-3.393zM973.977 317.977c0 2.289-.141 4.576-.423 6.864a135.57 135.57 0 0 0-11.985 1.4 3472.46 3472.46 0 0 1-11.916 1.913c.612 1.894 1.569 3.407 2.873 4.537 1.305 1.131 2.861 1.695 4.671 1.695.94 0 1.968-.197 3.085-.592a24.19 24.19 0 0 0 3.331-1.478 35.951 35.951 0 0 0 3.172-1.914 58.623 58.623 0 0 0 2.609-1.854l-1.693 17.909a15.37 15.37 0 0 1-2.979 2.012c-1.069.553-2.18.999-3.331 1.342a23.164 23.164 0 0 1-3.489.75 26.068 26.068 0 0 1-3.455.236c-2.326 0-4.454-.355-6.38-1.066a18.066 18.066 0 0 1-5.236-2.978 20.882 20.882 0 0 1-4.107-4.516 27.343 27.343 0 0 1-2.925-5.681 35.82 35.82 0 0 1-1.764-6.508 40.345 40.345 0 0 1-.599-6.943c0-2.445.2-4.892.599-7.337a39.988 39.988 0 0 1 1.816-7.06 31.187 31.187 0 0 1 3.067-6.292 23.624 23.624 0 0 1 4.318-5.069 18.772 18.772 0 0 1 5.588-3.392c2.08-.815 4.377-1.224 6.892-1.224 2.091 0 4.001.323 5.729.967a15.41 15.41 0 0 1 4.618 2.682 17.736 17.736 0 0 1 3.526 4.083c.998 1.578 1.82 3.308 2.467 5.188s1.128 3.865 1.446 5.956c.317 2.09.475 4.215.475 6.37zm-14.101-2.05c0-.737-.07-1.492-.212-2.268a7.734 7.734 0 0 0-.688-2.11 4.554 4.554 0 0 0-1.25-1.558c-.518-.408-1.165-.612-1.939-.612-.941 0-1.769.283-2.486.848a7.882 7.882 0 0 0-1.851 2.129c-.518.856-.94 1.782-1.269 2.782s-.576 1.92-.741 2.761l10.435-1.105v-.867zM1015.394 293.758a889.915 889.915 0 0 0-.389 7.336c-.117 2.421-.27 4.866-.458 7.337l-14.947.869v4.969h12.973l-.705 12.229-12.338.395.07 21.774-17.838.394 1.128-55.302h32.504zM1061.71 317.977c0 2.289-.141 4.576-.423 6.864-4.019.289-8.015.756-11.985 1.4a3472.46 3472.46 0 0 1-11.916 1.913c.612 1.894 1.569 3.407 2.873 4.537 1.305 1.131 2.861 1.695 4.671 1.695.94 0 1.968-.197 3.085-.592a24.19 24.19 0 0 0 3.331-1.478 35.951 35.951 0 0 0 3.172-1.914 58.623 58.623 0 0 0 2.609-1.854l-1.693 17.909a15.37 15.37 0 0 1-2.979 2.012c-1.069.553-2.18.999-3.331 1.342a23.138 23.138 0 0 1-3.489.75 26.068 26.068 0 0 1-3.455.236c-2.326 0-4.454-.355-6.38-1.066a18.066 18.066 0 0 1-5.236-2.978 20.882 20.882 0 0 1-4.107-4.516 27.343 27.343 0 0 1-2.925-5.681 35.82 35.82 0 0 1-1.764-6.508 40.345 40.345 0 0 1-.599-6.943c0-2.445.2-4.892.599-7.337a39.988 39.988 0 0 1 1.816-7.06 31.137 31.137 0 0 1 3.068-6.292 23.624 23.624 0 0 1 4.318-5.069 18.772 18.772 0 0 1 5.588-3.392c2.08-.815 4.377-1.224 6.892-1.224 2.091 0 4.001.323 5.729.967a15.41 15.41 0 0 1 4.618 2.682 17.736 17.736 0 0 1 3.526 4.083c.998 1.578 1.82 3.308 2.467 5.188s1.128 3.865 1.446 5.956c.316 2.09.474 4.215.474 6.37zm-14.101-2.05c0-.737-.07-1.492-.212-2.268a7.734 7.734 0 0 0-.688-2.11 4.554 4.554 0 0 0-1.25-1.558c-.518-.408-1.165-.612-1.939-.612-.941 0-1.769.283-2.486.848a7.882 7.882 0 0 0-1.851 2.129c-.518.856-.94 1.782-1.269 2.782s-.576 1.92-.741 2.761l10.435-1.105v-.867zM1111.093 311.824c0 2.052-.158 3.912-.476 5.582-.318 1.669-.817 3.201-1.498 4.595a16.394 16.394 0 0 1-2.644 3.867c-1.082 1.183-2.386 2.313-3.913 3.392l8.39 16.725-15.864 3.471-5.429-16.803-4.371.158-.635 16.409h-15.159c.118-5.996.229-11.965.335-17.909s.229-11.913.37-17.909c.048-3.024.094-6.022.142-8.993.046-2.972.141-5.97.281-8.993a42.884 42.884 0 0 1 4.864-1.697c1.598-.447 3.202-.795 4.812-1.044s3.243-.421 4.901-.513a92.865 92.865 0 0 1 5.094-.138c2.68 0 5.271.413 7.774 1.243 2.503.828 4.718 2.07 6.645 3.727 1.926 1.656 3.472 3.722 4.635 6.193 1.165 2.47 1.746 5.35 1.746 8.637zm-15.792 1.263c0-1.105-.136-2.117-.406-3.038-.27-.919-.67-1.716-1.198-2.386a5.574 5.574 0 0 0-1.974-1.578c-.787-.381-1.71-.571-2.767-.571-.471 0-.93.032-1.375.099a8.462 8.462 0 0 0-1.305.296l-.564 14.673h.847c1.009 0 2.038-.144 3.085-.434a8.68 8.68 0 0 0 2.819-1.342 7.134 7.134 0 0 0 2.045-2.326c.527-.948.793-2.079.793-3.393zM1183.631 346.457l-17.485 2.525-2.115-8.915h-8.038l-1.762 8.915-17.98-1.972 14.03-52.542 19.601-1.104 13.749 53.093zm-20.868-18.461-2.679-13.727-2.609 13.727h5.288zM923.646 367.772c-.169 2.968-.324 5.905-.465 8.811a328.762 328.762 0 0 1-.55 8.812l-17.952 1.043v5.97h15.582l-.848 14.686-14.819.474.085 28.047-21.426.474 1.355-68.317h39.038zM982.365 390.417c0 2.465-.19 4.698-.571 6.705-.381 2.005-.981 3.844-1.799 5.518a19.664 19.664 0 0 1-3.176 4.644c-1.299 1.421-2.865 2.778-4.7 4.074l10.077 20.088-19.053 4.168-6.52-20.182-5.25.19-.763 19.708h-18.207c.141-7.201.275-14.371.402-21.509s.275-14.308.444-21.509c.057-3.632.113-7.233.171-10.802.056-3.569.169-7.17.338-10.802 1.975-.82 3.923-1.5 5.842-2.038a49.544 49.544 0 0 1 5.78-1.254c1.934-.3 3.895-.505 5.886-.617 1.989-.11 4.029-.165 6.118-.165 3.219 0 6.33.496 9.337 1.493 3.007.995 5.667 2.486 7.982 4.477 2.313 1.989 4.17 4.47 5.567 7.438 1.396 2.968 2.095 6.428 2.095 10.375zm-18.968 1.517c0-1.327-.164-2.543-.488-3.649-.324-1.104-.805-2.061-1.439-2.866a6.692 6.692 0 0 0-2.371-1.895c-.946-.458-2.054-.686-3.324-.686-.566 0-1.117.038-1.651.118-.536.078-1.059.197-1.568.355l-.678 17.623h1.017c1.212 0 2.447-.172 3.705-.521a10.435 10.435 0 0 0 3.386-1.611c1.002-.726 1.82-1.658 2.456-2.794.636-1.137.955-2.496.955-4.074zM1014.326 369.381l-2.965 64.529-17.867 1.042-1.693-64.243 22.525-1.328zM1071.946 397.808c0 2.749-.169 5.496-.509 8.245a162.96 162.96 0 0 0-14.395 1.681c-4.771.775-9.541 1.54-14.312 2.298.735 2.275 1.885 4.092 3.451 5.449 1.568 1.359 3.437 2.036 5.611 2.036 1.129 0 2.364-.237 3.705-.711a29.106 29.106 0 0 0 4.001-1.775 43.05 43.05 0 0 0 3.81-2.299 71.754 71.754 0 0 0 3.134-2.226l-2.033 21.509a18.397 18.397 0 0 1-3.578 2.416 22.877 22.877 0 0 1-4.001 1.611c-1.383.409-2.78.711-4.191.901a31.406 31.406 0 0 1-4.149.284c-2.794 0-5.349-.427-7.663-1.28a21.712 21.712 0 0 1-6.288-3.576 25.08 25.08 0 0 1-4.933-5.424 32.789 32.789 0 0 1-3.513-6.823 42.982 42.982 0 0 1-2.118-7.816 48.474 48.474 0 0 1-.719-8.339c0-2.937.24-5.876.719-8.813a48.088 48.088 0 0 1 2.181-8.48 37.5 37.5 0 0 1 3.684-7.557c1.482-2.322 3.21-4.351 5.186-6.088a22.55 22.55 0 0 1 6.712-4.074c2.498-.979 5.257-1.47 8.278-1.47 2.512 0 4.806.388 6.881 1.162 2.075.773 3.923 1.846 5.546 3.221 1.623 1.374 3.034 3.008 4.235 4.904 1.198 1.895 2.186 3.973 2.963 6.231a40.782 40.782 0 0 1 1.737 7.154c.378 2.509.568 5.06.568 7.649zm-16.937-2.463c0-.885-.084-1.792-.254-2.724a9.281 9.281 0 0 0-.826-2.535 5.46 5.46 0 0 0-1.502-1.871c-.622-.49-1.399-.735-2.329-.735-1.13 0-2.125.34-2.986 1.019s-1.603 1.531-2.223 2.557a16.224 16.224 0 0 0-1.524 3.341 27.78 27.78 0 0 0-.89 3.317l12.533-1.327v-1.042zM1134.18 412.116c0 3.569-.035 7.098-.104 10.589a540.73 540.73 0 0 1-.319 10.54l-24.387-.474c.847-5.59 1.58-11.173 2.202-16.747.62-5.574.93-11.206.93-16.89a74.622 74.622 0 0 0-.211-5.093c-.085-1.153-.206-2.338-.361-3.554s-.368-2.329-.634-3.339c-.27-1.012-.594-1.84-.975-2.487-.38-.648-.84-.972-1.374-.972-.962 0-1.773.317-2.435.948-.664.632-1.214 1.446-1.651 2.44-.439.995-.784 2.108-1.038 3.339a37.509 37.509 0 0 0-.571 3.696 55.277 55.277 0 0 0-.254 3.482 72.163 72.163 0 0 0-.063 2.676c-.141 5.592-.254 11.143-.34 16.653-.084 5.513-.197 11.081-.338 16.702l-21.593 1.042c.564-11.148 1.106-22.236 1.629-33.259s.939-22.109 1.249-33.259l19.985-1.137-.169 7.581a29.238 29.238 0 0 1 2.563-3.033 16.916 16.916 0 0 1 2.942-2.439 14.623 14.623 0 0 1 3.324-1.611 11.54 11.54 0 0 1 3.705-.592c2.399 0 4.501.442 6.309 1.327a14.366 14.366 0 0 1 4.656 3.601c1.298 1.516 2.385 3.308 3.261 5.377a39.775 39.775 0 0 1 2.116 6.609 64.564 64.564 0 0 1 1.228 7.32c.282 2.543.472 5.045.571 7.509.099 2.463.148 4.848.148 7.154l-.001 6.301zM1193.07 398.472c0 4.423-.507 8.386-1.524 11.892-1.016 3.505-2.433 6.609-4.256 9.309-1.82 2.7-3.987 4.998-6.499 6.893s-5.264 3.451-8.257 4.667c-2.991 1.216-6.175 2.109-9.547 2.677a62.479 62.479 0 0 1-10.394.852 61.97 61.97 0 0 1-3.895-.118 68.6 68.6 0 0 1-3.897-.355l1.186-61.684a48.454 48.454 0 0 1 9.591-2.346 71.27 71.27 0 0 1 9.802-.686c4.036 0 7.748.632 11.134 1.895 3.388 1.263 6.309 3.12 8.766 5.567 2.456 2.447 4.367 5.464 5.736 9.049 1.369 3.584 2.054 7.714 2.054 12.388zm-28.791 18.192a12.642 12.642 0 0 0 4.635-1.73 14.054 14.054 0 0 0 3.62-3.221 14.307 14.307 0 0 0 2.35-4.36c.55-1.625.826-3.355.826-5.188 0-1.799-.169-3.482-.507-5.045-.34-1.564-.89-2.921-1.651-4.074a8.356 8.356 0 0 0-3.007-2.749c-1.242-.678-2.766-1.049-4.573-1.113l-1.693 27.48z" class="colorffffff svgShape"></path><path fill="#b0d7ff" d="M1128.558 617.172c-1.203-2.414 3.568-1.07 3.058-4.351-.509-3.281-11.774-2.117-11.774-2.117l-2.5 7.729c5.992 4.091 14.173 5.11 15.753 3.53 1.58-1.58-3.334-2.378-4.537-4.791z" class="colorffc0b0 svgShape"></path><path fill="#bfdfff" d="m1140.282 606.264-4.511-4.154s-2.854 3.16-6.248 6.907c-2.116 2.336-5.922 2.614-7.03 4.536-1.589 2.755-3.066 8.616 3.262 9.736 5.62.994 1.07-5.862 2.803-6.117 1.733-.255.459 3.084 2.421 3.441 1.766.321 1.234-2.555 1.555-3.899.871-3.646 5.9-8.462 7.748-10.45z" class="colorffccbf svgShape"></path><path fill="#b0d7ff" d="M1046.194 577.001s22.429 19.264 31.828 24.882c8.438 5.044 39.32 16.55 39.32 16.55l2.5-7.729-36.723-20.692-25.573-25.892-11.352 12.881z" class="colorffc0b0 svgShape"></path><path fill="#61b0ff" d="M1077.747 581.381c.134 5.517-5.267 11.987-9.42 15.564l-18.878-15.79 5.859-18.54c8.247 4.53 15.003 11.299 22.439 18.766z" class="colorffc561 svgShape"></path><path fill="#bbdbfc" d="M1034.337 558.562s3.023-2.834 2.295-11.155c-.604-6.908 9.829-.12 9.829-.12s-1.321 7.484 1.358 11.976c2.679 4.492-6.567 4.347-6.567 4.347s-5.965-.478-6.915-5.048z" class="colorfcccbb svgShape"></path><path fill="#203275" d="M1034.566 547.703s-2.343.087-3.055-2.554c0 0-4.688.276-3.494-4.576 0 0-3.186-2.637-.294-5.66 0 0-2.002-5.2 3.351-4.989 0 0-.907-5.848 4.316-4.303 0 0 3.868-3.263 5.898.446 0 0 5.281-1.014 5.339 3.28 0 0 3.507.79 1.806 4.818-1.421 3.362-13.867 13.538-13.867 13.538z" class="color203275 svgShape"></path><path fill="#bfdfff" d="M1034.566 547.703s4.64 5.897 10.117 5.754c8.362-.218 5.399-18.042 3.485-19.608-1.925-1.576-7.203 2.457-11.417.389 0 0 1.747 7.795-2.527 4.271-4.658-3.841-5.235 3.589-.973 5.487.001 0 .274.965 1.315 3.707zM1051.44 616.073c12.96 21.398 33.067 36.056 38.666 64.345 2.49 12.579 2.665 46.963-2.757 63.124-1.619 4.824-6.2 3.314-8.603 1.978-3.05-21.309-8.205-35.36-5.967-58.596 2.237-23.236-67.279-21.169-44.075-70.326-.001 0 15.19.65 22.736-.525z" class="colorffccbf svgShape"></path><path fill="#203275" d="M1051.44 616.073c12.96 21.398 37.717 42.243 42.098 63.454 2.594 12.558-2.769 57.272-2.769 57.272-1.477 2.254-12.896 2.559-15.332.332-3.05-21.309-3.607-27.993-3.134-51.331.081-3.982-62.778-30.109-43.6-69.202 0 0 15.191.65 22.737-.525z" class="color203275 svgShape"></path><path fill="#bfdfff" d="M1050.788 616.018c-.947 24.482 3.901 59.243-16.135 80.576-6.751 7.188-37.937 15.741-49.548 26.146-5.114.022-6.135-2.154-6.651-5.548 9.562-14.748 23.122-23.506 38.601-30.069 10.649-4.515 7.414-57.917 11.674-70.777 7.625-.139 13.782.066 22.059-.328z" class="colorffccbf svgShape"></path><path fill="#2c3f85" d="M1051.352 615.465c-.947 24.482 2.373 61.567-11.493 77.828-6.399 7.504-50.768 28.506-50.768 28.506-4.652-2.198-6.664-5.722-7.428-10.317 7.772-9.164 23.557-22.525 38.609-33.776 2.738-9.039-4.927-52.063 8.457-61.361 6.263-4.351 14.347-.486 22.623-.88z" class="color2c3f85 svgShape"></path><path fill="#203275" d="M1102.522 755.169c-.464.392-1.049.757-1.738 1.11-3.923 1.98-11.152 1.738-16.284 1.881-3.004.087-4.817-.396-5.731-2.236-.991-1.982-.932-5.558-.188-11.728 0 0 3.566 2.365 7.305.367a7.765 7.765 0 0 0 1.462-1.02s1.176 2.469 4.372 4.951c0 0 5.911-.642 9.375.466h.008c.928.293 1.678.712 2.099 1.302 1.23 1.757 1.077 3.453-.68 4.907z" class="color203275 svgShape"></path><path fill="#5882ad" d="M1101.097 748.959c-.984.26-7.705 1.682-9.827 1.059-2.129-.631-5.387-5.456-5.387-5.456a7.75 7.75 0 0 0 1.465-1.02s1.178 2.469 4.369 4.951c0 .001 5.915-.641 9.38.466zM1102.522 755.169c-.464.392-1.049.757-1.738 1.11-3.923 1.98-11.152 1.738-16.284 1.881-3.004.087-4.817-.396-5.731-2.236 3.255.197 14.77.743 23.753-.755z" class="color5869ad svgShape"></path><path fill="#2c3f85" d="M986.169 741.826c-.6-.096-1.258-.303-1.974-.596-4.058-1.686-8.584-7.328-12.035-11.129-2.024-2.222-2.838-3.912-2.037-5.805.858-2.042 3.609-4.328 8.775-7.783 0 0 .529 4.246 4.481 5.781a7.81 7.81 0 0 0 1.726.445s-1.107 2.501-.908 6.542c0 0 4.338 4.067 5.754 7.416l.006.006c.383.895.553 1.736.379 2.441-.533 2.078-1.92 3.068-4.167 2.682z" class="color2c3f85 svgShape"></path><path fill="#5882ad" d="M989.952 736.699c-.838-.577-6.295-4.75-7.205-6.766-.908-2.026.63-7.641.63-7.641a7.746 7.746 0 0 0 1.728.447s-1.106 2.502-.91 6.54c-.001 0 4.34 4.07 5.757 7.42zM986.169 741.826c-.6-.096-1.258-.303-1.974-.596-4.058-1.686-8.584-7.328-12.035-11.129-2.024-2.222-2.838-3.912-2.037-5.805 1.97 2.598 9.058 11.691 16.046 17.53z" class="color5869ad svgShape"></path><path fill="#3862ff" d="M1063.23 576.519c-1.221 15.86-6.215 40.004-6.215 40.004 1.371 9.084-29.717 12.168-35.23 3.766 0 0 3.605-18.488 2.027-30.947 0 0-1.463-25.55-1.503-26.32 2.319-.98 8.421-3.7 12.024-4.467 0 0 12.106 6.812 13.493.709-.001.001 16.463 3.503 15.404 17.255z" class="colorffb638 svgShape"></path><path fill="#5f7be3" d="m1048.2 593.473-1.639 15.431-.503 4.743-1.265 11.916h-35.607l-1.265-11.916-.503-4.743-1.639-15.431z" class="colore35f71 svgShape"></path><path fill="#4462d4" d="m1048.151 593.473-.68 6.405h-23.502c-7.407 0-13.18 6.419-12.398 13.785l.175 1.647.503 4.744.585 5.51h-3.696l-1.265-11.915-.503-4.743-1.639-15.432h42.42z" class="colord44457 svgShape"></path><path fill="#4462d4" d="M1024.618 593.421h4.743v32.142h-4.743z" class="colord44457 svgShape"></path><path fill="#4462d4" d="m1046.561 608.904-.503 4.743h-38.137l-.503-4.743z" class="colord44457 svgShape"></path><path fill="#5f7be3" d="M1050.788 595.051h-48.199v-3.876a3.105 3.105 0 0 1 3.105-3.105h41.989a3.105 3.105 0 0 1 3.105 3.105v3.876z" class="colore35f71 svgShape"></path><path fill="#476eff" d="m1029.282 589.879 8.534 12.696-4.23-.46-.718 3.465-5.86-14.144z" class="colorffbc47 svgShape"></path><path fill="#476eff" d="m1026.072 589.896-8.399 12.785 4.225-.505.754 3.458 5.71-14.205z" class="colorffbc47 svgShape"></path><path fill="#476eff" d="M1027.266 589.328s-4.784-5.552-8.907-3.22c-2.857 1.616-2.262 8.375.784 8.68 3.865.387 8.13-2.929 8.13-2.929l-.007-2.531z" class="colorffbc47 svgShape"></path><path fill="#476eff" d="M1027.252 589.328s4.725-5.603 8.873-3.314c2.874 1.586 2.35 8.351-.692 8.688-3.861.428-8.16-2.843-8.16-2.843l-.021-2.531z" class="colorffbc47 svgShape"></path><path fill="#1949ff" d="M1023.946 589.788c1.305.261 2.457.218 3.315.109.86.1 2.012.131 3.314-.144 2.453-.518 4.071-1.831 4.071-1.861-.011-.021-1.626 1.267-4.061 1.695a9.658 9.658 0 0 1-3.324-.004 10.91 10.91 0 0 1-.322.052 9.674 9.674 0 0 1-3.003-.013c-2.438-.402-4.067-1.673-4.078-1.652-.001.031 1.631 1.327 4.088 1.818zM1030.591 591.405a10.283 10.283 0 0 0-3.315-.109c-.859-.1-2.012-.131-3.314.144-2.453.518-4.071 1.831-4.071 1.861.011.021 1.627-1.267 4.061-1.695a9.689 9.689 0 0 1 3.325.004 9.68 9.68 0 0 1 3.325-.04c2.438.402 4.067 1.673 4.078 1.652.001-.03-1.631-1.325-4.089-1.817z" class="colorffab19 svgShape"></path><path fill="#1949ff" d="M1027.274 590.911a28.082 28.082 0 0 0 9.688-1.277 27.132 27.132 0 0 1-9.69.858l-.383.037a27.142 27.142 0 0 1-9.316-.792 27.99 27.99 0 0 0 9.701 1.174z" class="colorffab19 svgShape"></path><path fill="#1949ff" d="M1029.408 590.495a2.136 2.136 0 1 1-4.271.023 2.136 2.136 0 0 1 4.271-.023z" class="colorffab19 svgShape"></path><path fill="#bfdfff" d="M1025.231 616.271c1.734 1.083 1.963 1.043 4.235 2.058 2.273 1.015 2.306 5.651-1.38 7.266-3.322 1.456-5.002-2.765-6.747-5.444-1.349-2.069 1.663-3.508 3.892-3.88z" class="colorffccbf svgShape"></path><path fill="#bfdfff" d="M1031.252 575.804c-5.84 5.281-21.934 12.804-21.934 12.804s11.262 20.979 15.842 27.675c.314 2.59-1.315 3.579-3.805 4.012-9.147-8.253-21.448-17.751-23.784-31.077-1.445-8.241 6.892-14.188 14.178-20.208l.002.012s7.024-5.364 15.814-7.921c4.354 4.322 7.859 10.931 3.687 14.703z" class="colorffccbf svgShape"></path><path fill="#61b0ff" d="M1033.091 574.5c-2.929 3.945-14.978 9.676-14.978 9.676-6.956-1.903-10.526-12.452-10.625-13.025.839-.624 11.862-7.666 20.076-10.052l.266-.071c7.14 2.12 7.326 10.692 5.261 13.472z" class="colorffc561 svgShape"></path><path fill="#c7e3ff" d="M1197.919 695.377c-4.226 4.206-44.614 23.159-54.221 29.645-2.094-.226-5.606-6.689-4.328-7.354 12.519-6.514 25.005-28.106 43.654-33.807.965-1.806-3.897-47.438 8.024-71.063.055-.11.199-.328.191-.437 2.959.318 4.124.563 7.504.903 3.38.341 8.971.787 12.773 1.146.078.091.03.12.039.205 2.026 18.318-5.975 73.136-13.636 80.762z" class="colorffcbc7 svgShape"></path><path fill="#2c3f85" d="M1140.423 717.196c-2.042.259-4.064.611-6.092.959-2.281 1.607-4.605 3.237-6.726 5.053l.723 1.534c2.308-.875 4.631-1.784 7.022-2.366-1.199 1.291-2.225 3.36-3.062 4.727-.837 1.367-.816 3.307-.502 4.305.83 2.632 3.945 10.632 6.969 9.412 3.024-1.22-.715-8.444.558-10.921 1.273-2.477 3.335-4.087 5.464-5.712-1.429-2.333-2.854-4.692-4.354-6.991z" class="color2c3f85 svgShape"></path><path fill="#c7e3ff" d="M1217.75 743.161c-.386-24.659-6.7-39.289-1.448-54.003-14.513-28.36-24.082-40.96-14.569-81.188l12.265 4.391c13.783 30.124 18.593 60.566 17.531 74.37-1.291 16.78-4.551 37.476-5.487 56.43h-8.292z" class="colorffcbc7 svgShape"></path><path fill="#2c3f85" d="m1217.75 743.161-1.791 5.315.791 8.363 1.648.127 1.711-7.254 2.528 4.92c.68 1.325 1.727 2.422 3.198 2.655 3.879.615 11.484.961 11.871-1.585.399-2.617-6.973-2.937-9.046-5.885-2.007-2.854-2.608-6.632-2.608-6.632l-8.302-.024zM1154.806 580.518a9.15 9.15 0 0 1-2.838.208c-.969-.081-1.968-.239-2.833-.699-1.609-.855-3.142-2.105-4.105-3.67-2.07-3.365-1.616-7.894.938-10.867 1.35-1.572 3.168-2.966 3.665-5.079.02-.083-.102-.117-.128-.035-.652 2.008-2.426 3.291-3.797 4.789-1.357 1.483-2.213 3.296-2.456 5.294-.465 3.83 1.481 8.242 5.321 9.559.994.341 2.001.741 3.048.883a8.984 8.984 0 0 0 3.252-.145c.153-.036.088-.274-.067-.238z" class="color2c3f85 svgShape"></path><path fill="#2c3f85" d="M1209.1 526.881c-.029.044.036.092.072.055.538-.546.989-1.112 1.226-1.855.233-.73.32-1.532.239-2.294-.157-1.465-.998-2.858-2.131-3.784-.583-.477-1.258-.846-1.993-1.018-.086-.053-.168-.108-.259-.158-1.998-1.099-5.218.15-6.165.563-4.187-.94-8.871-1.778-12.866.298-1.84.956-3.36 2.402-4.865 3.803-1.554 1.446-3.155 2.799-4.951 3.938-3.566 2.261-7.527 3.779-11.571 4.939-2.049.588-4.12 1.09-6.195 1.577-2 .47-4.035.86-5.938 1.66-.888.373-1.774.825-2.541 1.413a9.238 9.238 0 0 0-1.969 2.094 10.891 10.891 0 0 0-1.016 1.856c-4.621 5.106-4.707 12.749-.157 15.891 6.422 4.435-8.563 14.449.408 22.368 10.593 9.351 29.207-7.225 37.923-14.106 8.716-6.881 10.74-10.042 18.233-13.512s3.806-21.696 3.806-21.696 3.015-7.245-1.355-10.573c1.362.693 2.481 1.791 2.907 3.315.24.856.294 1.779.126 2.654-.168.866-.474 1.833-.968 2.572zm-24.943-3.744c-8.14 8.468-17.974 10.117-27.983 12.304-3.182.695-5.703 2.186-7.57 4.074.027-.054.05-.109.078-.162.468-.89 1.063-1.724 1.818-2.394.732-.65 1.597-1.174 2.489-1.571 1.845-.821 3.866-1.208 5.832-1.623 2.033-.429 4.061-.894 6.064-1.446 3.965-1.094 7.888-2.484 11.461-4.546a29.075 29.075 0 0 0 4.944-3.579c1.536-1.385 2.912-2.952 4.583-4.182 1.752-1.29 3.761-2.013 5.928-2.186 1.537-.123 3.074-.012 4.598.202-3.148-.095-7.969.664-12.242 5.109zM1240.637 670.852s-6.179 6.834-11.997 5.42c0 0-6.445 9.757-16.553 3.018-6.34 3.92-12.662 4.603-18.992 2.041a25.669 25.669 0 0 1-3.996-2.041c-10.118 6.739-16.553-3.018-16.553-3.018-5.818 1.414-11.997-5.42-11.997-5.42 17.673-21.764 23.188-57.508 31.796-66.07l27.838-.921c.484 3.066 1.205 6.226 2.117 9.501 4.574 16.535 13.705 35.689 18.337 57.49z" class="color2c3f85 svgShape"></path><path fill="#203275" d="M1222.3 613.363c-2.24 2.117-6.805 4.252-15.955 5.068-15.898 1.414-20.967 43.699-13.25 62.9a25.669 25.669 0 0 1-3.996-2.041c-10.118 6.739-16.553-3.018-16.553-3.018-5.818 1.414-11.997-5.42-11.997-5.42 17.673-21.764 23.188-57.508 31.796-66.07l27.838-.921c.484 3.067 1.205 6.227 2.117 9.502z" class="color203275 svgShape"></path><path fill="#c7e3ff" d="M1240.131 523.755c.048-.041.907-.488 1.119-3.042.063-.76-1.133-5.129.391-5.864 1.153-.556 1.913 3.435 2.2 3.36 2.44-.638 3.706-7.582 6.36-5.936 5.939 3.684-.015 6.541-2.887 10.145-.319.4-.567 3.857-.567 3.857l-6.616-2.52z" class="colorffcbc7 svgShape"></path><path fill="#5f7be3" d="M1247.575 524.808s-4.841 25.257-6.938 30.278c-.38.636-.845 1.262-1.386 1.87-5.182 5.78-17.312 10.004-25.181 12.757-8.552 2.99-14.56-5.942-12.633-12.785 1.139-4.081 6.824-5.591 12.899-6.331 6.663-.816 13.791-.712 15.917-2.079l9.064-25.541c1.016-.409 5.942.265 8.258 1.831z" class="colore35f71 svgShape"></path><path fill="#4564d9" d="M1239.251 556.955c-5.182 5.78-17.312 10.004-25.181 12.757-8.552 2.99-14.56-5.942-12.633-12.785 1.139-4.081 1.893-4.406 7.967-5.147.894.465 11.831 2.654 12.202 11.049.137 3.092 10.346-2.457 17.645-5.874z" class="colord9455a svgShape"></path><path fill="#5f7be3" d="M1221.578 606.586a1.01 1.01 0 0 1-.37.56c-6.483 4.993-20.805.456-29.85-.218a1.506 1.506 0 0 1-1.395-1.604c.845-11.95-6.445-24.725-7.299-36.096-.237-3.104.01-6.112 1.035-8.97 1.376-3.825 7.327-6.53 11.504-9.899 2.8-.067 4.361-.109 7.151-.392 2.966-.301 8.059.958 8.63 1.21 9.759 4.313 9.079 19.663 9.428 31.007.237 8.096-.209 16.05.731 21.754l.057.351c0 .019.01.048.01.067.028.161.057.313.085.465.085.427.18.835.285 1.224.036.18.036.37-.002.541z" class="colore35f71 svgShape"></path><path fill="#4564d9" d="M1221.578 606.586a1.01 1.01 0 0 1-.37.56c-6.483 4.993-20.805.456-29.85-.218a1.506 1.506 0 0 1-1.395-1.604c.845-11.95-6.445-24.725-7.299-36.096 2.43-5.875 4.366-10.621 4.366-10.621l7.101 14.111s1.439 2.786-1.718 11.621c-2.027 5.672 3.159 23.263 14.853 20.491 4.803-1.139 9.719-1.272 13.876-.892l.057.351c0 .019.01.048.01.067.028.161.057.313.085.465.085.427.18.835.285 1.224.037.18.037.37-.001.541z" class="colord9455a svgShape"></path><path fill="#c7e3ff" d="M1194.794 552.172c-.39-.206-.743-.401-1.041-.571.55-2.58.94-8.125 1.069-11.496.032-.874.048-1.598.044-2.091 1.525 1.273 4.332 1.913 5.447 3.612 1.115 1.697 1.958 7.985 2.041 8.341 1.487 6.285-4.329 3.9-7.56 2.205z" class="colorffcbc7 svgShape"></path><path fill="#b4d7fa" d="M1201.435 545.495s-3.049-.34-4.678-.415c-1.964-.09-1.956 5.538-1.963 7.093-.39-.206-.743-.401-1.041-.571.55-2.58.94-8.125 1.069-11.496 2.581 2.095 6.613 5.389 6.613 5.389z" class="colorfabab4 svgShape"></path><path fill="#c7e3ff" d="M1206.937 544.79c4.053-1.814 3.052-15.268-.315-19.547-3.171 1.207-1.694 4.775-6.813 7.366-2.215 1.121-6.585 1.51-6.585 1.51-.963-1.287-3.632-1.581-3.132 1.456.392 2.383 1.933 2.916 4.018 3.627 1.845 5 7.429 8.004 12.827 5.588z" class="colorffcbc7 svgShape"></path><path fill="#5f7be3" d="M1188.16 555.858s-22.335 13.729-30.887 20.567c-7.678 6.139-28.119 30.023-28.119 30.023l7.01 6.372 28.314-24.865 31.892-13.956-8.21-18.141z" class="colore35f71 svgShape"></path><path fill="#2c3f85" d="M1206.699 524.944c-2.181.827-2.419 3.419-3.221 5.282-.468 1.088-1.147 1.977-2.173 2.591-.981.587-2.114.905-3.249 1.006-.789.07-1.565.014-2.353-.018-.784-.031-1.558-.246-2.339-.255-.14-.002-.15.186-.031.231.658.252 1.392.299 2.078.442.675.14 1.369.193 2.058.195 1.206.002 2.392-.205 3.489-.718.992-.464 1.885-1.21 2.441-2.16.624-1.068.806-2.309 1.161-3.477.363-1.194.997-2.458 2.193-2.994.068-.032.018-.153-.054-.125z" class="color2c3f85 svgShape"></path><circle cx="1262.732" cy="477.087" r="9.092" fill="#263f9e" class="color26539e svgShape"></circle><path fill="#66b2ff" d="m1222.175 498.204 12.35 14.633c-3.985 2.095-9.029 1.222-12.052-2.359-3.022-3.581-3.033-8.697-.298-12.274z" class="colorffc766 svgShape"></path><path fill="#2956ff" d="m1221.094 500.005 6.021 7.135c1.817 2.153-.003 5.468-2.781 5.004a1.384 1.384 0 0 1-.063-.011 9.823 9.823 0 0 0 10.254.705l-12.35-14.633a9.678 9.678 0 0 0-1.081 1.8z" class="colorffb129 svgShape"></path><path fill="#66b2ff" d="M1237.461 497.829c3.493 4.138 2.972 10.326-1.166 13.819a9.644 9.644 0 0 1-1.77 1.19l-12.35-14.633a9.803 9.803 0 0 1 15.286-.376z" class="colorffc766 svgShape"></path><path fill="#66b2ff" d="M1278.58 494.331c-11.692-1.262-29.359 9.197-41.73 15.99l-11.806-13.988c8.707-10.664 21.58-25.438 22.774-38.45l30.762 36.448z" class="colorffc766 svgShape"></path><path fill="#2956ff" d="M1246.027 465.328c9.495 11.25 6.11 28.404-6.948 35.201a340.498 340.498 0 0 0-7.214 3.886l4.985 5.906c12.371-6.793 30.038-17.252 41.73-15.99l-30.762-36.448c-.223 2.433-.855 4.927-1.791 7.445z" class="colorffb129 svgShape"></path><path fill="#4a7bad" d="m1232.756 486.008 15.568 18.446a1.03 1.03 0 0 1-.126 1.455l-10.609 8.954a1.033 1.033 0 0 1-1.456-.12l-15.568-18.446a1.034 1.034 0 0 1 .126-1.455l10.609-8.954a1.034 1.034 0 0 1 1.456.12z" class="color4a6fad svgShape"></path><path fill="#4a7bad" d="m1260.212 523.983-6.825 5.76a1.942 1.942 0 0 1-2.906-.465l-10.287-16.697 5.315-4.486 14.732 12.946a1.941 1.941 0 0 1-.029 2.942z" class="color4a6fad svgShape"></path><path fill="#324899" d="m1260.241 521.04-14.732-12.946-2.038 1.72 10.109 11.543a1.942 1.942 0 0 1-.029 2.943l-4.037 3.407.968 1.57a1.942 1.942 0 0 0 2.906.465l6.825-5.76c.906-.765.92-2.158.028-2.942z" class="color325899 svgShape"></path><path fill="#4a7bad" d="m1247.827 457.852 1.439-1.215 30.763 36.449-1.44 1.214z" class="color4a6fad svgShape"></path><path fill="#324899" d="m1232.326 490.446-7.314 6.173a.51.51 0 0 1-.658-.78l7.314-6.173a.511.511 0 0 1 .658.78zM1234.639 493.187l-7.314 6.173a.51.51 0 0 1-.658-.78l7.314-6.173a.51.51 0 1 1 .658.78zM1236.953 495.929l-7.314 6.173a.51.51 0 0 1-.658-.78l7.314-6.173a.511.511 0 0 1 .658.78zM1239.267 498.67l-7.314 6.173a.51.51 0 0 1-.658-.78l7.314-6.173a.511.511 0 0 1 .658.78zM1241.58 501.412l-7.314 6.173a.51.51 0 0 1-.658-.78l7.314-6.173a.51.51 0 1 1 .658.78zM1243.894 504.153l-7.314 6.173a.51.51 0 0 1-.658-.78l7.314-6.173a.511.511 0 0 1 .658.78z" class="color325899 svgShape"></path><path fill="#4a7bad" d="M1267.626 460.4a.417.417 0 0 0-.499.29 27.206 27.206 0 0 0-.704 2.858c-.04.21.064.45.29.499.203.045.457-.066.499-.29.183-.965.418-1.919.704-2.858a.411.411 0 0 0-.29-.499z" class="color4a6fad svgShape"></path><ellipse cx="1274.342" cy="464.558" fill="#4a7bad" rx="855.749" ry=".408" transform="rotate(-47.055 1274.457 464.556)" class="color4a6fad svgShape"></ellipse><path fill="#4a7bad" d="m1277.67 470.89-2.804 1.057c-.207.078-.305.333-.223.533.086.21.326.301.533.223l2.804-1.057c.207-.078.305-.333.223-.533a.415.415 0 0 0-.533-.223z" class="color4a6fad svgShape"></path><linearGradient id="a" x1="305.316" x2="550.952" y1="509.148" y2="737.708" gradientTransform="translate(-52.495 70.368)" gradientUnits="userSpaceOnUse"><stop offset="0" stop-color="#45a2ff" class="stopColorffc545 svgShape"></stop><stop offset="1" stop-color="#5c7eff" class="stopColorff8f5c svgShape"></stop></linearGradient><path fill="url(#a)" d="m429.073 757.905-165.143-1.164-14.776-152.394 196.744 1.386z"></path><path fill="#8ac4ff" d="m451.136 622.452-208.627-1.47.207-30.785a3.106 3.106 0 0 1 3.127-3.084l202.417 1.426a3.105 3.105 0 0 1 3.083 3.126l-.207 30.787zM331.08 621.614l31.603.22-.95 135.599-31.601-.221z" class="colorffcc8a svgShape"></path><path fill="#4364e0" d="m358.054 575.651 45.459 71.044-22.917-2.841-4.124 19.187-30.854-78.903z" class="colore04347 svgShape"></path><path fill="#4364e0" d="m340.641 575.528-46.411 70.397 22.954-2.518 3.866 19.244 31.912-78.462z" class="colore04347 svgShape"></path><path fill="#6281f5" d="M359.316 568.65c10.965-6.543 19.866-10.284 25.457-12.8 14.618-6.579 14.764-8.456 17.811-7.662 10.751 2.802 16.641 28.188 9.833 46.795-1.301 3.554-5.003 13.672-12.789 15.485-2.79.65-4.878-.053-15.186-5.298-16.89-8.596-22.53-12.432-27.784-18.367-4.582-5.175-5.42-8.05-5.004-10.418.577-3.281 3.501-5.252 7.662-7.735zM336.368 568.488c-10.876-6.697-19.726-10.563-25.282-13.157-14.528-6.784-14.649-8.663-17.706-7.912-10.788 2.65-17.02 27.951-10.462 46.652 1.252 3.572 4.818 13.741 12.58 15.663 2.781.689 4.878.016 15.256-5.084 17.004-8.357 22.695-12.114 28.029-17.974 4.651-5.11 5.528-7.973 5.142-10.347-.533-3.287-3.43-5.299-7.557-7.841z" class="colorf56265 svgShape"></path><path fill="#4364e0" d="m345.016 581.106.016-2.432a143.554 143.554 0 0 0 54.707-3.872 148.623 148.623 0 0 1-54.723 6.304zM343.607 575.345l.012-1.84c4.881 1.063 11.804 1.929 19.78.599 13.235-2.206 22.081-9.249 22.141-9.133.06.115-8.818 7.339-22.204 10.055-8.005 1.624-14.946 1.094-19.729.319z" class="colore04347 svgShape"></path><path fill="#4364e0" d="m347.096 575.37.012-1.84c-4.893.994-11.829 1.763-19.786.32-13.203-2.393-21.954-9.559-22.016-9.444-.063.115 8.718 7.462 22.066 10.367 7.983 1.736 14.93 1.304 19.724.597zM345.335 583.61l-.012 1.84c4.893-.994 11.829-1.763 19.786-.321 13.203 2.393 21.954 9.56 22.016 9.445.062-.115-8.719-7.462-22.067-10.367-7.983-1.736-14.93-1.305-19.723-.597z" class="colore04347 svgShape"></path><path fill="#4364e0" d="m348.823 583.634-.012 1.84c-4.88-1.063-11.804-1.929-19.78-.6-13.235 2.207-22.081 9.249-22.141 9.134-.061-.116 8.818-7.339 22.205-10.055 8.004-1.623 14.945-1.094 19.728-.319zM349.177 581.135l.016-2.432a143.572 143.572 0 0 1-54.65-4.643 149.048 149.048 0 0 0 28.562 6.285 148.508 148.508 0 0 0 26.072.79z" class="colore04347 svgShape"></path><path fill="#4364e0" d="M358.7 579.074c-.044 6.549-5.269 11.821-11.669 11.776-6.401-.045-11.554-5.391-11.51-11.94.044-6.549 5.269-11.822 11.67-11.777 6.399.045 11.553 5.391 11.509 11.941z" class="colore04347 svgShape"></path><path fill="#75b9fe" d="M548.969 635.424c-.141-2.773-1.302-5.656-1.982-8.37-22.053 19.777-9.215 22.919-40.025 30.136-30.817-7.217-17.974-10.358-40.027-30.136-.68 2.714-1.84 5.597-1.982 8.37-2.882-.089-5.763.02-8.648.052 12.428 7.118 26.01 20.519 40.868 25.876H516.747c14.861-5.356 28.441-18.757 40.868-25.876-2.883-.033-5.763-.141-8.646-.052z" class="colorfebe75 svgShape"></path><path fill="#6b87f2" d="M456.154 671.183h98.735v87.26h-98.735z" class="colorf26b70 svgShape"></path><path fill="#4b6ade" d="M451.349 659.876h108.345v20.893H451.349z" class="colorde4b51 svgShape"></path><path fill="#75b9fe" d="M521.073 651.555c5.396-4.135 9.791-9.502 9.164-15.448-.986-9.342-15.567 6.187-22.494 15.116.849-8.177.999-26.301-4.545-21.479-4.846 4.215-3.379 13.319-1.182 19.856-7.296-9.033-20.28-22.291-21.209-13.493-.628 5.946 3.768 11.313 9.163 15.448-10.023-2.829-20.933-4.378-17.965 2.043 4.648 10.055 23.089 9.117 31.113 7.436a3.316 3.316 0 0 0 2.419 1.054c.948 0 1.803-.403 2.414-1.048 8.038 1.677 26.444 2.602 31.087-7.442 2.969-6.421-7.941-4.872-17.965-2.043zm5.027-12.171c.578 5.162-5.672 10.629-11.29 14.131-2.897.995-5.36 1.971-6.893 2.701a3.34 3.34 0 0 0-1.089-.746c3.735-6.321 18.472-23.224 19.272-16.086zm-22.299-5.631c4.235-3.635 3.51 15.089 2.249 19.731-.154.214-.299.42-.436.618-.131-.227-.308-.436-.461-.4l.013.024-.017-.023.004-.001c-.107-.191-.23-.417-.37-.684-1.861-3.558-5.316-15.545-.982-19.265zm-18.857 5.631c.8-7.141 15.552 9.784 19.278 16.096a3.357 3.357 0 0 0-1.073.746c-1.531-.731-4.004-1.711-6.914-2.711-5.62-3.502-11.869-8.969-11.291-14.131zm16.602 20.112c-5.069 1.214-21.187 1.623-24.341-5.314-2.173-4.782 8.668-2.529 17.125.349a57.513 57.513 0 0 0 7.849 4.006c-.001.037-.005.073-.005.11 0 .232.023.457.065.676-.207.054-.436.112-.693.173zm32.292-5.314c-3.154 6.937-19.271 6.529-24.34 5.314a41.062 41.062 0 0 1-.665-.165c.044-.221.067-.45.067-.684 0-.041-.005-.082-.006-.122a57.506 57.506 0 0 0 7.819-3.993c8.457-2.879 19.298-5.132 17.125-.35zM499.893 680.77h8.993v77.674h-8.993z" class="colorfebe75 svgShape"></path><path fill="#75b9fe" d="M554.89 715.006v9.2h-98.736v-9.2z" class="colorfebe75 svgShape"></path><path fill="#c2e0ff" d="M1312.759 760.49H51.241a1.36 1.36 0 0 1-1.361-1.361v-.502a1.36 1.36 0 0 1 1.361-1.361h1261.518a1.36 1.36 0 0 1 1.361 1.361v.502a1.36 1.36 0 0 1-1.361 1.361zM905.127 806.562H650.219a1.36 1.36 0 0 1-1.361-1.361v-.502a1.36 1.36 0 0 1 1.361-1.361h254.907a1.36 1.36 0 0 1 1.361 1.361v.502a1.36 1.36 0 0 1-1.36 1.361zM1026.504 806.562h-55.645a1.36 1.36 0 0 1-1.361-1.361v-.502a1.36 1.36 0 0 1 1.361-1.361h55.645a1.36 1.36 0 0 1 1.361 1.361v.502a1.36 1.36 0 0 1-1.361 1.361z" class="colorc2d9ff svgShape"></path><path fill="#2c3f85" d="M487.061 629.108s-22.278 3.296-21.898 3.075c.38-.221 40.774 20.496 40.774 20.496l39.802-17.833-19.734-5.737h-38.944z" class="color2c3f85 svgShape"></path><path fill="#d8ebff" d="m495.618 659.506-.334.004-.206.001c-5.668.065-9.369-.076-9.369-.076s-.272.061-.768.163c-4.846 1.005-30.975 5.983-28.748-3.862 1.952-8.645 17.628-7.57 23.914-6.777.024 0 .043.004.062.008 1.569.2 2.535.377 2.535.377s3.119-1.341 8.041-3.251c.203-.08.411-.164.618-.243 16.216-6.293 50.321-18.223 59.149-11.053l-.001.005c.097.074.193.158.283.241.006-.004.014.003.017.013.094.088.182.18.271.272.078.075.153.159.222.252a.726.726 0 0 1 .083.096 5.7 5.7 0 0 1 .543.824c.078.143.145.289.206.439.143.324.253.669.333 1.034.079.369.146.731.189 1.087.082.639.114 1.258.085 1.864-.707 15.898-38.647 18.337-57.125 18.582z" class="colorffd8d9 svgShape"></path><path fill="#1d2d6b" d="m495.912 661.359-.628-1.849-.272-.806c-.004-.005-.003-.01-.003-.01l-4.263-12.6-.612-1.807c16.232-6.3 51.393-16.98 60.373-9.505l.004.005c.1.08.196.163.284.256.006-.004.014.003.017.013.094.088.182.18.271.272.078.075.153.159.222.252a.726.726 0 0 1 .083.096 5.7 5.7 0 0 1 .543.824c.078.143.145.289.206.439.143.324.253.669.333 1.034.079.369.146.731.189 1.087.082.639.114 1.258.085 1.864-.652 16.096-38.345 20.192-56.832 20.435zM482.695 649.388s-29.557-5.775-30.845 6.72c-1.383 13.423 33.85 3.373 33.85 3.373s-13.589 2.973-12.943-4.647c.623-7.375 9.938-5.446 9.938-5.446z" class="color1d2e6b svgShape"></path><path fill="#d8ebff" d="M526.613 598.665c-5.8 8.146-.612 30.442-.612 30.442H487.06c1.076-1.526 4.108-20.743-2.721-31.338-11.021-17.09.853-30.378.853-30.378l16.195-2.944 1.034-5.156.71-3.551.167-.825h7.284l.264 1.549.57 3.375.844 4.979 14.887 3.231c-.001.002 12.75 11.955-.534 30.616z" class="colorffd8d9 svgShape"></path><path fill="#4564d9" d="M526.611 598.67c-5.802 8.145-.607 30.437-.607 30.437H487.06c.916-1.298 3.247-15.437-.298-26.136-.618-1.874-1.416-3.63-2.427-5.206-11.018-17.087.852-30.373.852-30.373l16.203-2.949c.622 3.624 9.457 3.41 10.87.373l14.884 3.236c-.001 0 12.754 11.945-.533 30.618z" class="colord94559 svgShape"></path><path fill="#6277c4" d="M487.061 629.108c.916-1.298 3.247-15.437-.298-26.136 7.679-2.231 6.382 19.083 19.174 26.136h-18.876z" class="colorc4626e svgShape"></path><path fill="#d8ebff" d="M547.791 615.613c-.405 2.523-2.182 5.259-4.812 7.963-6.728 6.909-20.432 6.601-29.832 9.113l-.981-5.008s16.781-4.733 20.391-10.62c.383-.628.649-1.213.756-1.735 1.224-5.866-5.568-13.201-5.568-13.201l-.723-34.057c-.001-.001 22.813 34.716 20.769 47.545z" class="colorffd8d9 svgShape"></path><path fill="#4564d9" d="M548.015 615.611c-.436 2.374-1.859 5.355-4.228 7.956a.763.763 0 0 1-.974.121l-2.884-1.873-7.562-4.9a5.46 5.46 0 0 0 .686-1.781c1.224-5.865-9.657-14.938-9.657-14.938l2.615-32.339c3.505-.158 9.263 7.84 14.044 17.646l.014.037c5.173 10.607 9.188 23.315 7.946 30.071z" class="colord94559 svgShape"></path><path fill="#d8ebff" d="m500.747 627.764.17 3.331c.301-.105.276-.542-.036-.606-8.378-1.731-22.146.664-28.85-5.029-4.131-3.513-6.386-7.838-6.919-11.17-2.044-12.829 20.208-46.871 20.208-46.871l-.822 34.013s-6.792 7.335-5.568 13.201c.213 1.044 1.043 2.332 2.246 3.737 5.025 5.897 19.571 9.394 19.571 9.394z" class="colorffd8d9 svgShape"></path><path fill="#4564d9" d="M478.928 614.633c.213 1.043 1.637 1.957 2.837 3.361l-7.024 5.842-2.823 2.346c-4.131-3.515-6.556-8.012-7.465-11.262-1.405-5.003.594-13.552 3.964-22.041a1.3 1.3 0 0 1 .023-.07c5.086-12.81 13.269-25.458 17.544-25.561l2.467 34.514s-10.747 7.006-9.523 12.871z" class="colord94559 svgShape"></path><path fill="#d8ebff" d="M555.833 654.636c2.345 10.01-24.303 5.157-29.247 4.174-.506-.1-.784-.159-.784-.159s-3.862.18-9.751.157h-.345c-8.551-.044-21.2-.512-32.533-2.534-13.905-2.477-25.838-7.281-25.817-16.491.001-.02.002-.035-.001-.05.003-.375.026-.755.071-1.145.003-.01.001-.015.001-.02.048-.4.115-.804.2-1.217a5.6 5.6 0 0 1 .33-1.056 4.44 4.44 0 0 1 .207-.449 6.23 6.23 0 0 1 .263-.447s.005-.001.004-.006c.086-.134.182-.264.28-.391.027-.036.054-.072.083-.098.069-.095.145-.181.224-.258.089-.094.178-.189.274-.279.003-.011.011-.018.017-.014 1.076-1.003 2.582-1.68 4.431-2.092 12.712-2.828 41.564 7.064 56.189 12.602.212.079.425.162.632.242 5.029 1.904 8.217 3.244 8.217 3.244s.983-.189 2.579-.406c.019-.004.039-.003.063-.009 6.396-.86 22.349-2.085 24.413 6.702z" class="colorffd8d9 svgShape"></path><path fill="#2c3f85" d="m521.169 643.26-.608 1.845-4.509 13.702-.623 1.888c-7.76-.036-18.846-.714-29.25-2.643l-.006-.004c-15.15-2.806-28.869-8.266-28.815-18.267.001-.02.002-.035-.001-.05.003-.375.03-.761.071-1.145.003-.01.001-.015.001-.02.048-.4.115-.804.2-1.217a5.6 5.6 0 0 1 .33-1.056 4.44 4.44 0 0 1 .207-.449 6.23 6.23 0 0 1 .263-.447s.005-.001.004-.006c.086-.134.182-.264.28-.391.027-.036.054-.072.083-.098.069-.095.145-.181.224-.258.089-.094.178-.189.274-.279.003-.011.011-.018.017-.014 1.111-1.071 2.698-1.815 4.649-2.284 13.07-3.189 42.612 5.669 57.209 11.193zM528.786 648.394s30.056-6.129 31.472 6.585c1.522 13.66-34.447 3.719-34.447 3.719s13.14 2.488 12.419-5.268c-.698-7.505-9.444-5.036-9.444-5.036z" class="color2c3f85 svgShape"></path><path fill="#c8d5e3" d="M530.642 595.943h-48.974c-1.721 0-2.85 1.75-2.53 3.86l4.828 31.83c.211 1.393 1.482 2.505 2.842 2.505h38.696c1.359 0 2.63-1.111 2.842-2.505l4.828-31.83c.319-2.11-.812-3.86-2.532-3.86z" class="colorc8cbe3 svgShape"></path><path fill="#334eb5" d="M548.015 615.611c-.436 2.374-1.859 5.355-4.228 7.956a.763.763 0 0 1-.974.121l-2.884-1.873c1.516-2.629 3.752-4.714 4.802-8.784 2.811-10.893-4.278-26.55-4.663-27.491 5.174 10.607 9.189 23.315 7.947 30.071z" class="colorb53344 svgShape"></path><path fill="#1d2d6b" d="M496.903 546.065s-5.835-6.253-1.101-14.56c0 0 1.43 2.59 3.126 1.875 0 0 .089-6.073 12.416-7.324 0 0-.894 2.411-.447 3.037 4.064-1.786 8.008 2.649 11.97.982 0 0 1.094 7.038-3.461 11.147 0 0 .692 2.43-.916 4.843-1.607 2.412-21.587 0-21.587 0z" class="color1d2e6b svgShape"></path><path fill="#d8ebff" d="M498.741 544.177s-2.662-2.604-2.913-.077c-.297 2.991 3.263 5.215 3.263 5.215s.868 9.247 8.669 9.247c7.739 0 9.033-9.282 9.033-9.282s4.07-1.11 3.207-4.625c-.409-1.669-2.531.036-2.531.036v-4.392s-2.17 1.102-6.357-.693c-3.032-1.301-4.113-3.108-6.703-3.006-2.955.118-5.784 3.358-5.668 7.577z" class="colorffd8d9 svgShape"></path><path fill="#cbe2f9" d="M786.172 687.192c1.131 6.462 1.789 12.225 2.085 17.549.764 13.604.501 24.353-1.66 37.289l-6.545-.401s-5.692-27.084-8.744-45.595c-.786-4.698-1.383-8.883-1.671-12.024-1.688-17.929 7.249-67.288 7.824-70.484l.024-.123.008-.045 21.026-1.703c10.304 36.352-3.095 43.825-12.347 75.537z" class="colorf9cbcb svgShape"></path><path fill="#cbe2f9" d="M823.686 739.695c-.619-2.833-9.67-24.017-18.232-36.368-2.045-2.949-3.955-5.523-5.563-7.41-11.476-13.477-22.712-85.157-22.709-85.158-.003.001 17.071-1.384 17.063-1.38 14.734 15.368 13.157 38.327 15.399 60.67.777 7.744 3.206 15.096 6.889 21.366a72.313 72.313 0 0 1 2.108 3.872c4.679 9.217 9.215 22.185 13.834 42.952l-8.789 1.456z" class="colorf9cbcb svgShape"></path><path fill="#2c3f85" d="M760.924 675.582a1.97 1.97 0 0 0 2.218 1.991c20.398-2.606 33.445 4.209 49.647 1.603.931-.149 1.875-.33 2.832-.543 1.707-.381 2.955-1.868 3.071-3.614 1.759-26.307.388-50.029-6.866-65.229h-37.945s-12.543 42.614-12.957 65.792z" class="color2c3f85 svgShape"></path><path fill="#2c3f85" d="M812.887 653.897a3810.966 3810.966 0 0 1-.097 25.28c.931-.149 1.875-.33 2.832-.543 1.707-.381 2.955-1.868 3.071-3.614 1.759-26.307.388-50.029-6.866-65.229h-1.784L808 611.808c-.001-.001 4.913 20.023 4.887 42.089zM782.698 524.914c-.021-2.41.71-4.933 2.478-6.571 2.188-2.027 5.563-2.313 8.427-1.48 2.865.832 5.344 2.612 7.762 4.36 3.777 2.732 7.814 5.836 8.934 10.36 1.299 5.245-1.742 10.979.071 16.069 1.301 3.651 4.75 5.996 7.535 8.691 2.785 2.696 5.138 6.792 3.489 10.3-1.879 3.995-7.736 4.649-9.901 8.496-1.364 2.424-.89 5.501-1.974 8.063-1.115 2.635-3.969 4.428-6.827 4.289-2.858-.139-5.525-2.2-6.379-4.931-.571-1.825-.384-3.824-.988-5.639-.929-2.793-3.511-4.631-5.489-6.81-4.745-5.225-6.094-13.279-2.437-19.731-2.99-5.506-4.369-11.467-2.44-18.362-1.554-2.344-2.24-4.694-2.261-7.104zM739.439 548.583l10.602-3.792 8.051 22.508-10.602 3.792z" class="color2c3f85 svgShape"></path><path fill="#cbe2f9" d="M772.914 585.839s-.743 15.189-8.678 15.848c-6.657.565-14.295-24.977-19.547-31.708-5.056-6.479-7.93-11.712-4.486-13.768 9.094-5.43 9.6 3.826 9.95 10.905l10.649 16.452 14.043-26.971-1.931 29.242zM837.392 644.483c-4.072 1.011-8.272-5.352-8.272-5.352s-1.652 4.133-2.919 2.249c-1.266-1.895.777-6.993.777-6.993l-1.172-3.852-13.063-42.886-4.767-34.65c8.28 3.497 21.556 59.489 23.712 75.944.398 3.025.607 4.804.607 4.804s9.478 9.649 5.097 10.736z" class="colorf9cbcb svgShape"></path><path fill="#75b9fe" d="M744.424 570.425c2.916 8.243 13.274 31.607 19.901 31.607.388 0 .776-.084 1.164-.246 2.748-1.138 5.386-6.077 7.364-10.83a97.62 97.62 0 0 0 3.394-9.698l.019-.058c.744 7.306-2.088 29.579-2.961 29.269 9.433 3.252 21.038 3.924 32.34 1.888l.078-.02a70.189 70.189 0 0 0 7.164-1.674c-6.181-8.967-8.056-24.756-4.888-30.07.026.226.071.504.136.828 1.733 8.786 17.369 52.78 17.511 52.747 1.701-.401 7.455-1.614 7.435-1.75-2.25-16.739-16.841-75.427-24.018-80.766-6.144-4.571-13.03-5.661-13.082-5.654l-7.627.143c-.045 0-12.262 4.248-15.656 11.456-3.043 6.463-11.689 25.505-11.689 25.505a.282.282 0 0 1-.504.052l-10.017-17.246c-.091-.143-6.103 4.401-6.064 4.517z" class="colorfebe75 svgShape"></path><path fill="#cbe2f9" d="M795.979 546.009c-.207.33-.421.636-.636.912-2.076 2.673-4.366 2.772-6.993-.751.169-.827.605-3.654.919-5.438.115-.705.214-1.248.268-1.44l5.653-.421.789 7.138z" class="colorf9cbcb svgShape"></path><path fill="#bad5f1" d="M795.979 546.009c-.207.33-.421.636-.636.912-.176-1.586-.751-4.527-2.497-4.557-2.275-.038-3.462-1.486-3.577-1.631.115-.705.214-1.248.268-1.44l5.653-.421.789 7.137z" class="colorf1babb svgShape"></path><path fill="#85b0db" d="m808.135 581.42-.136-.828c.026.227.071.505.136.828z" class="colordb85b4 svgShape"></path><path fill="#58a6f5" d="m807.999 611.807 4.888-1.144c-6.181-8.967-8.044-24.681-4.876-29.996l-1.615-4.799c-3.791 7.351-6.12 18.309 1.603 35.939zM765.489 601.786c2.748-1.138 5.386-6.077 7.364-10.83l3.394-9.698.019-.058c-1.471-5.858-1.175-8.781-.42-13.697-3.636 6.224-2.424 27.882-10.357 34.283z" class="colorf5ac58 svgShape"></path><path fill="#2c3f85" d="m830.779 730.944 3.315 4.235 4.781 9.076-1.599 1.231-6.596-6.269.704 6.717c.19 1.809-.146 3.63-1.494 4.851-3.554 3.221-11.095 8.657-13.192 6.314-2.156-2.408 5.164-7.663 5.312-12.06.143-4.258.109-9.675.109-9.675l8.66-4.42zM786.689 741.474l1.584 5.261-1.108 8.887-1.76.083-1.593-7.784-2.85 5.162c-.767 1.39-1.917 2.526-3.492 2.728-4.154.532-12.269.66-12.601-2.065-.341-2.801 7.525-2.909 9.827-5.985 2.229-2.978 5.356-6.49 5.356-6.49l6.637.203z" class="color2c3f85 svgShape"></path><path fill="#cbe2f9" d="M786.946 539.231c7.738 6.589 12.095-5.37 12.095-5.37s3.439-1.585 2.081-4.726c-1.203-2.783-4.2.65-4.2.65-4.082 0-7.327-3.541-9.024-5.887-.597-.828-1.871-.645-2.19.318-.772 2.336-1.724 6.046-1.393 9.412.214 2.162.964 4.18 2.631 5.603z" class="colorf9cbcb svgShape"></path></svg>