<svg xmlns="http://www.w3.org/2000/svg" fill="none" viewBox="0 0 3000 3001" id="SetWorkPriority"><path fill="#0575e6" d="M872.162 2582.75H1577.53H2114.67C2231.65 2582.75 2343.94 2536.76 2427.29 2454.71L2633.29 2251.94C2837.02 2051.4 2800.02 1712.58 2559.22 1558.45C2421.48 1470.29 2342.33 1313.26 2354.32 1150.21L2361.05 1058.81C2387.56 698.371 1991.5 450.306 1671.92 619.358C1658.96 626.211 1646.02 633.046 1633.09 639.862C1533.99 692.091 1418.08 705.802 1314.34 663.527C1252.53 638.336 1187.68 608.628 1120.76 576.371C840.401 441.242 523.798 625.426 506.114 936.037L492.036 1183.33C485.323 1301.23 430.602 1411.23 340.61 1487.74C168.15 1634.37 138.182 1889.2 271.926 2071.8L512.656 2400.47C596.57 2515.04 730.109 2582.75 872.162 2582.75Z" class="colore7e8ff svgShape"></path><path fill="#021b79" d="M2546.86 2218.19C2446.66 2211.56 2357.6 2461.23 2329.76 2582.75H2396.56C2485.63 2466.75 2647.06 2224.82 2546.86 2218.19Z" class="color032068 svgShape"></path><path fill="#ffffff" d="M2521.81 1849.49C2351.47 1832.92 2272.71 2325.9 2254.62 2574.46H2375.69C2495.37 2339.71 2692.15 1866.06 2521.81 1849.49Z" class="colorffffff svgShape"></path><path fill="#021b79" fill-rule="evenodd" d="M2262.07 2567.59H2371.43C2430.93 2450.4 2508.61 2275.92 2550.84 2128.28C2572.22 2053.54 2584.31 1986.4 2580.76 1937.24C2578.99 1912.68 2573.36 1893.31 2563.69 1879.74C2554.23 1866.46 2540.54 1858.22 2521.13 1856.33C2482.5 1852.57 2447.72 1877.48 2416.53 1924.6C2385.49 1971.49 2359.34 2038.54 2337.79 2114.42C2295.56 2263.08 2271.51 2443.69 2262.07 2567.59ZM2404.96 1917.05C2437.01 1868.62 2475.95 1838.12 2522.49 1842.65C2545.67 1844.91 2563.09 1855.09 2575 1871.8C2586.71 1888.23 2592.71 1910.42 2594.58 1936.26C2598.3 1987.9 2585.65 2056.95 2564.17 2132.04C2521.14 2282.46 2441.81 2460 2381.87 2577.56L2379.95 2581.33H2247.17L2247.71 2573.97C2256.77 2449.43 2281.04 2263.54 2324.45 2110.69C2346.15 2034.33 2372.76 1965.7 2404.96 1917.05Z" clip-rule="evenodd" class="color032068 svgShape"></path><path fill="#021b79" fill-rule="evenodd" d="M2503.42 1954.95L2424.21 2229.13L2493.72 2195.44L2499.8 2207.8L2419.07 2246.92L2323.89 2576.35L2310.58 2572.57L2358 2408.41L2327.35 2315.61L2340.52 2311.33L2364.81 2384.86L2445.14 2106.79L2406.89 2017.9L2419.63 2012.5L2451.19 2085.85L2490.1 1951.16L2503.42 1954.95Z" clip-rule="evenodd" class="color032068 svgShape"></path><path fill="#5ea9f4" d="M2550.54 985.623L2576.66 958.718C2581.31 953.927 2589.38 957.922 2588.38 964.526L2582.93 1000.74C2582.6 1002.93 2583.35 1005.15 2584.94 1006.69L2613.69 1034.61C2618.32 1039.11 2614.76 1046.93 2608.32 1046.39L2567.96 1042.96C2566 1042.79 2564.06 1043.48 2562.63 1044.84L2530.45 1075.58C2525.67 1080.15 2517.84 1075.99 2518.94 1069.47L2525.87 1028.33C2526.21 1026.32 2525.65 1024.27 2524.33 1022.72L2494.86 988.195C2490.52 983.116 2495.25 975.465 2501.73 977.067L2543.96 987.506C2546.33 988.092 2548.83 987.375 2550.54 985.623zM2712.25 1419.26L2723.6 1415.04C2729.86 1412.72 2735.42 1419.79 2731.69 1425.32L2725.11 1435.07C2723.88 1436.91 2723.6 1439.23 2724.37 1441.3L2729.49 1455.07C2731.74 1461.12 2725.16 1466.65 2719.59 1463.39L2706.53 1455.77C2704.83 1454.77 2702.79 1454.56 2700.91 1455.18L2684.85 1460.47C2678.58 1462.54 2673.28 1455.42 2677.08 1450.01L2685.81 1437.55C2686.97 1435.88 2687.34 1433.79 2686.81 1431.82L2682.37 1415.29C2680.64 1408.84 2688.2 1403.96 2693.36 1408.19L2705.5 1418.14C2707.39 1419.69 2709.96 1420.12 2712.25 1419.26zM344.4 957.777L318.748 990.933C317.187 992.95 314.642 993.921 312.149 993.449L280.444 987.454C273.623 986.164 269.508 994.816 274.772 999.379L299.69 1020.98C301.509 1022.55 302.368 1024.98 301.95 1027.37L295.699 1062.98C294.524 1069.68 302.692 1073.82 307.316 1068.87L332.913 1041.51C334.415 1039.9 336.594 1039.12 338.764 1039.42L368.387 1043.49C375.06 1044.41 378.839 1036.02 373.765 1031.55L351.735 1012.15C349.965 1010.59 349.12 1008.22 349.5 1005.88L356.446 963.099C357.582 956.102 348.724 952.189 344.4 957.777z" class="colorf4ad5e svgShape"></path><path fill="#ffffff" d="M921.607 454.968C921.607 427.682 943.727 405.562 971.014 405.562H2294.04C2321.32 405.562 2343.44 427.682 2343.44 454.968V2540.75C2343.44 2568.03 2321.32 2590.15 2294.04 2590.15H971.014C943.727 2590.15 921.607 2568.03 921.607 2540.75V454.968Z" class="colorffffff svgShape"></path><path fill="#021b79" fill-rule="evenodd" d="M914.201 454.968C914.201 423.592 939.637 398.156 971.013 398.156H2294.04C2325.41 398.156 2350.85 423.592 2350.85 454.968V2540.75C2350.85 2572.12 2325.41 2597.56 2294.04 2597.56H971.013C939.637 2597.56 914.201 2572.12 914.201 2540.75V454.968ZM971.013 412.967C947.816 412.967 929.012 431.772 929.012 454.968V2540.75C929.012 2563.94 947.816 2582.75 971.013 2582.75H2294.04C2317.23 2582.75 2336.04 2563.94 2336.04 2540.75V454.968C2336.04 431.772 2317.23 412.967 2294.04 412.967H971.013Z" clip-rule="evenodd" class="color032068 svgShape"></path><path fill="#021b79" d="M921.607 454.968C921.607 427.682 943.727 405.562 971.014 405.562H2294.04C2321.32 405.562 2343.44 427.682 2343.44 454.968V590.696H921.607V454.968Z" class="color032068 svgShape"></path><path fill="#ffffff" d="M1091.93 498.129C1091.93 520.623 1073.7 538.859 1051.2 538.859 1028.71 538.859 1010.47 520.623 1010.47 498.129 1010.47 475.635 1028.71 457.399 1051.2 457.399 1073.7 457.399 1091.93 475.635 1091.93 498.129zM1217.82 498.129C1217.82 520.623 1201.25 538.859 1180.8 538.859 1160.35 538.859 1143.77 520.623 1143.77 498.129 1143.77 475.635 1160.35 457.399 1180.8 457.399 1201.25 457.399 1217.82 475.635 1217.82 498.129zM1351.12 498.129C1351.12 520.623 1334.54 538.859 1314.09 538.859 1293.64 538.859 1277.07 520.623 1277.07 498.129 1277.07 475.635 1293.64 457.399 1314.09 457.399 1334.54 457.399 1351.12 475.635 1351.12 498.129z" class="colorffffff svgShape"></path><path fill="#5ea9f4" d="M1480.76 904.152C1480.76 894.667 1488.45 886.979 1497.93 886.979H2074.95C2084.43 886.979 2092.12 894.667 2092.12 904.152C2092.12 913.636 2084.43 921.325 2074.95 921.325H1497.93C1488.45 921.325 1480.76 913.636 1480.76 904.152Z" class="colorf4ad5e svgShape"></path><path fill="#0575e6" d="M1480.76 996.887C1480.76 985.505 1489.98 976.279 1501.37 976.279H1673.1C1684.48 976.279 1693.7 985.505 1693.7 996.887C1693.7 1008.27 1684.48 1017.49 1673.1 1017.49H1501.37C1489.98 1017.49 1480.76 1008.27 1480.76 996.887Z" class="colore7e8ff svgShape"></path><path fill="#5ea9f4" d="M1480.76 1539.56C1480.76 1528.18 1489.98 1518.95 1501.37 1518.95H2071.51C2082.89 1518.95 2092.12 1528.18 2092.12 1539.56C2092.12 1550.94 2082.89 1560.16 2071.51 1560.16H1501.37C1489.98 1560.16 1480.76 1550.94 1480.76 1539.56Z" class="colorf4ad5e svgShape"></path><path fill="#0575e6" d="M1480.76 1635.73C1480.76 1624.35 1489.98 1615.12 1501.37 1615.12H1872.3C1883.69 1615.12 1892.91 1624.35 1892.91 1635.73C1892.91 1647.11 1883.69 1656.33 1872.3 1656.33H1501.37C1489.98 1656.33 1480.76 1647.11 1480.76 1635.73Z" class="colore7e8ff svgShape"></path><path fill="#5ea9f4" d="M1480.76 2150.92C1480.76 2139.54 1489.98 2130.31 1501.37 2130.31H2071.51C2082.89 2130.31 2092.12 2139.54 2092.12 2150.92C2092.12 2162.3 2082.89 2171.53 2071.51 2171.53H1501.37C1489.98 2171.53 1480.76 2162.3 1480.76 2150.92Z" class="colorf4ad5e svgShape"></path><path fill="#0575e6" d="M1480.76 2247.09C1480.76 2235.71 1489.98 2226.48 1501.37 2226.48H2016.56C2027.94 2226.48 2037.17 2235.71 2037.17 2247.09C2037.17 2258.47 2027.94 2267.7 2016.56 2267.7H1501.37C1489.98 2267.7 1480.76 2258.47 1480.76 2247.09Z" class="colore7e8ff svgShape"></path><path fill="#021b79" d="M1227.66 1027.61H1178.77V871.985L1130.75 886.015V848.988L1223.17 817.023H1227.66V1027.61zM1322.11 980.318C1329.82 980.318 1336.23 982.632 1341.34 987.261 1346.45 991.793 1349.01 997.626 1349.01 1004.76 1349.01 1011.9 1346.45 1017.78 1341.34 1022.41 1336.23 1026.94 1329.82 1029.21 1322.11 1029.21 1314.3 1029.21 1307.84 1026.89 1302.72 1022.26 1297.71 1017.63 1295.2 1011.8 1295.2 1004.76 1295.2 997.723 1297.71 991.889 1302.72 987.261 1307.84 982.632 1314.3 980.318 1322.11 980.318zM1266.57 1671.88H1119.61V1640.06L1187.3 1568.9C1203.99 1549.91 1212.33 1534.82 1212.33 1523.63 1212.33 1514.57 1210.35 1507.67 1206.4 1502.95 1202.44 1498.22 1196.71 1495.86 1189.18 1495.86 1181.76 1495.86 1175.73 1499.04 1171.11 1505.41 1166.48 1511.67 1164.16 1519.53 1164.16 1528.98H1115.28C1115.28 1516.06 1118.51 1504.15 1124.97 1493.26 1131.43 1482.27 1140.39 1473.68 1151.87 1467.51 1163.34 1461.34 1176.17 1458.26 1190.34 1458.26 1213.1 1458.26 1230.6 1463.51 1242.84 1474.02 1255.19 1484.53 1261.36 1499.62 1261.36 1519.29 1261.36 1527.58 1259.82 1535.68 1256.73 1543.59 1253.64 1551.4 1248.82 1559.65 1242.27 1568.32 1235.81 1576.91 1225.34 1588.43 1210.88 1602.89L1183.69 1634.28H1266.57V1671.88zM1322.11 1624.59C1329.82 1624.59 1336.23 1626.9 1341.34 1631.53 1346.45 1636.06 1349.01 1641.9 1349.01 1649.03 1349.01 1656.17 1346.45 1662.05 1341.34 1666.68 1336.23 1671.21 1329.82 1673.47 1322.11 1673.47 1314.3 1673.47 1307.83 1671.16 1302.72 1666.53 1297.71 1661.9 1295.2 1656.07 1295.2 1649.03 1295.2 1641.99 1297.71 1636.16 1302.72 1631.53 1307.83 1626.9 1314.3 1624.59 1322.11 1624.59zM1164.16 2153.44H1187.16C1205.39 2153.44 1214.5 2144.52 1214.5 2126.68 1214.5 2119.74 1212.33 2114.1 1207.99 2109.76 1203.65 2105.32 1197.53 2103.1 1189.62 2103.1 1183.16 2103.1 1177.52 2104.98 1172.7 2108.74 1167.97 2112.5 1165.61 2117.18 1165.61 2122.77H1116.87C1116.87 2111.68 1119.95 2101.8 1126.12 2093.12 1132.3 2084.44 1140.83 2077.7 1151.73 2072.87 1162.72 2067.96 1174.77 2065.5 1187.88 2065.5 1211.32 2065.5 1229.73 2070.85 1243.14 2081.55 1256.54 2092.26 1263.24 2106.96 1263.24 2125.67 1263.24 2134.73 1260.44 2143.31 1254.85 2151.41 1249.35 2159.41 1241.3 2165.92 1230.7 2170.94 1241.88 2174.99 1250.66 2181.16 1257.02 2189.45 1263.38 2197.65 1266.57 2207.82 1266.57 2219.97 1266.57 2238.77 1259.33 2253.81 1244.87 2265.1 1230.41 2276.38 1211.41 2282.02 1187.88 2282.02 1174.1 2282.02 1161.27 2279.41 1149.41 2274.21 1137.65 2268.9 1128.73 2261.62 1122.65 2252.37 1116.58 2243.01 1113.54 2232.41 1113.54 2220.55H1162.57C1162.57 2227.01 1165.18 2232.6 1170.38 2237.33 1175.59 2242.05 1182 2244.41 1189.62 2244.41 1198.2 2244.41 1205.05 2242.05 1210.16 2237.33 1215.27 2232.5 1217.82 2226.38 1217.82 2218.96 1217.82 2208.35 1215.17 2200.83 1209.87 2196.39 1204.57 2191.96 1197.24 2189.74 1187.88 2189.74H1164.16V2153.44zM1322.11 2231.83C1329.82 2231.83 1336.23 2234.14 1341.34 2238.77 1346.45 2243.3 1349.01 2249.14 1349.01 2256.27 1349.01 2263.41 1346.45 2269.29 1341.34 2273.92 1336.23 2278.45 1329.82 2280.72 1322.11 2280.72 1314.3 2280.72 1307.84 2278.4 1302.73 2273.77 1297.71 2269.15 1295.2 2263.31 1295.2 2256.27 1295.2 2249.23 1297.71 2243.4 1302.73 2238.77 1307.84 2234.14 1314.3 2231.83 1322.11 2231.83z" class="color032068 svgShape"></path><path fill="#96c2ef" d="M1499.38 1103.44L1472.08 1143.69 1557.48 1206.46C1593.02 1161.4 1632.19 1171.65 1662.08 1105.6 1685.99 1052.76 1636.52 1020.39 1608.8 1010.81 1627.18 986.819 1662.88 935.484 1658.58 922.093 1653.2 905.354 1627.09 898.52 1619.13 907.587 1612.76 914.841 1572.11 973.337 1552.58 1001.68 1541.23 1002.42 1516.23 1008.33 1507.13 1026.02 1498.02 1043.71 1498.17 1085 1499.38 1103.44zM604.711 1416.91L593.758 1520.07C604.462 1532.25 636.948 1555.95 681.258 1553.32 725.569 1550.69 757.848 1523.15 768.449 1509.7L749.578 1408.31C804.967 1405.02 814.197 1344.67 815.159 1289.09 816.121 1233.5 792.172 1046.98 641.833 1107.16 521.562 1155.31 566.972 1333.72 604.711 1416.91z" class="colorefcb96 svgShape"></path><path fill="#021b79" d="M719.972 1341.73L706.988 1410.84C643.835 1427.41 622.534 1428.67 596.208 1417.42C569.882 1406.17 528.18 1280.5 520.113 1216.9C512.046 1153.31 566.168 1128.74 595.232 1114.2C765.053 950.349 856.867 1055.96 851.644 1111.8C847.465 1156.47 781.933 1185.7 749.69 1194.74C745.7 1223.45 736.067 1281.83 729.453 1285.64C721.185 1290.4 705.361 1240.08 681.825 1275.65C662.997 1304.11 699.411 1331.56 719.972 1341.73Z" class="color032068 svgShape"></path><path fill="#5ea9f4" d="M326.257 1606C445.78 1483.21 590.916 1486.62 727.513 1486.62C795.676 1490.63 947.369 1493.53 1008.84 1473.06C1085.67 1447.48 1205.2 1404.84 1243.61 1370.73C1282.03 1336.62 1435.71 1119.17 1478.39 1106.38C1521.08 1093.59 1632.06 1183.13 1632.06 1212.97C1632.06 1242.82 1479.21 1592.44 1414.77 1656.4C1350.33 1720.36 1149.7 1861.06 1115.55 1882.38C1122.97 1926.95 1138.56 2044.08 1141.58 2156.02C1146.37 2274.62 1150.36 2499.84 1135.14 2590.15H185.016C148.057 2459.25 96.8396 2213.15 100.017 2156.02C104.286 2079.28 176.853 1759.5 326.257 1606Z" class="colorf4ad5e svgShape"></path><path fill="#021b79" d="M1324.72 1733.14C1365.7 1583.06 1452.78 1542.7 1491.2 1541.28 1476.97 1566.86 1443.39 1624.85 1422.9 1652.13 1402.41 1679.42 1348.91 1717.51 1324.72 1733.14zM125.625 2335.1C173.434 2181.61 145.545 2069.33 125.625 2032.38 118.51 2052.27 103.427 2104.86 100.013 2156.03 96.5976 2207.19 115.664 2296.73 125.625 2335.1zM249.413 1895.94C199.936 2108.15 202.755 2409.77 213.476 2590.15H244.207C224.348 2209.62 238.844 1971.16 249.413 1895.94z" class="color032068 svgShape"></path></svg>