<svg xmlns="http://www.w3.org/2000/svg" fill="none" viewBox="0 0 1080 1080" id="Studentexploringhistoricsites"><path fill="#ebf5ff" stroke="#000000" stroke-linecap="round" stroke-linejoin="round" stroke-width="2" d="M995.13 199.059H108.43V742.059H995.13V199.059Z" class="colorfff6eb svgShape colorStroke000000 svgStroke"></path><path fill="#bbd2ea" stroke="#bbd2ea" stroke-linecap="round" stroke-linejoin="round" stroke-width="2" d="M922.48 339.738H792.09C792.09 339.738 802.91 344.058 802.91 398.558C802.91 453.058 794.82 602.728 830 608.238H952.56C952.56 608.238 941.28 601.788 938.46 549.038C935.64 496.288 952.56 366.608 922.48 339.738Z" class="colorbbe4ea svgShape colorStrokebbe4ea svgStroke"></path><path stroke="#bbd2ea" stroke-linecap="round" stroke-linejoin="round" stroke-width="2" d="M792.09 339.741L862.34 291.141L922.49 339.741" class="colorStrokebbe4ea svgStroke"></path><path fill="#bbd2ea" d="M538.39 283.219H406.97V374.069H538.39V283.219zM696.63 283.219H565.21V374.069H696.63V283.219zM569.93 423.441H651.19L638.52 510.051H584.63L569.93 423.441zM462.76 448H524.95L515.25 514.27H474.01L462.76 448z" class="colorbbe4ea svgShape"></path><path fill="#bbd2ea" d="M657.34 509.57H563.79V733.14H657.34V509.57zM543.31 513.391H449.76V733.151H543.31V513.391zM179.17 325.372C195.468 325.372 208.68 312.159 208.68 295.862 208.68 279.564 195.468 266.352 179.17 266.352 162.872 266.352 149.66 279.564 149.66 295.862 149.66 312.159 162.872 325.372 179.17 325.372zM306.13 325.372C322.428 325.372 335.64 312.159 335.64 295.862 335.64 279.564 322.428 266.352 306.13 266.352 289.832 266.352 276.62 279.564 276.62 295.862 276.62 312.159 289.832 325.372 306.13 325.372zM245.88 471.821C262.178 471.821 275.39 458.609 275.39 442.311 275.39 426.013 262.178 412.801 245.88 412.801 229.582 412.801 216.37 426.013 216.37 442.311 216.37 458.609 229.582 471.821 245.88 471.821zM173.69 613.989C189.988 613.989 203.2 600.777 203.2 584.479 203.2 568.181 189.988 554.969 173.69 554.969 157.392 554.969 144.18 568.181 144.18 584.479 144.18 600.777 157.392 613.989 173.69 613.989zM221.25 341.012H136.97V381.052H221.25V341.012zM348.27 341.012H263.99V381.052H348.27V341.012zM288.01 490.031H203.73V530.071H288.01V490.031zM221.25 630.828H136.97V670.868H221.25V630.828z" class="colorbbe4ea svgShape"></path><path fill="#bbd2ea" d="M368.43 380.999V215.999C368.43 215.469 368.219 214.96 367.844 214.585 367.469 214.21 366.961 213.999 366.43 213.999 338.52 213.539 310.59 213.809 282.68 213.899 246.08 214.019 209.48 214.209 172.88 214.209 157.02 214.209 141.16 214.209 125.31 213.999 124.78 213.999 124.271 214.21 123.896 214.585 123.521 214.96 123.31 215.469 123.31 215.999V702.999C123.31 709.579 123.19 716.159 123.31 722.739V723.599C123.31 724.13 123.521 724.638 123.896 725.013 124.271 725.388 124.78 725.599 125.31 725.599H173.69C176.27 725.599 176.27 721.599 173.69 721.599H125.31L127.31 723.599V236.649C127.31 230.149 127.84 223.399 127.31 216.909 127.31 216.629 127.31 216.329 127.31 216.049L125.31 218.049C156.88 218.449 188.45 218.269 220.02 218.169 255.59 218.059 291.16 217.869 326.73 217.849 339.96 217.849 353.2 217.849 366.43 218.049L364.43 216.049V380.999C364.43 383.569 368.43 383.579 368.43 380.999zM388.94 542.712C388.75 534.182 388.66 525.642 388.59 517.102 388.503 505.882 388.457 494.662 388.45 483.442 388.45 470.422 388.45 457.402 388.45 444.382 388.49 430.255 388.547 416.125 388.62 401.992 388.693 387.618 388.777 373.252 388.87 358.892 388.97 345.105 389.073 331.318 389.18 317.532 389.28 305.192 389.387 292.858 389.5 280.532 389.593 270.332 389.69 260.135 389.79 249.942 389.857 242.762 389.93 235.585 390.01 228.412 390.01 225.122 390.37 221.682 390.12 218.412 390.11 218.272 390.11 218.132 390.12 217.992L388.12 219.992H707.22C711.52 219.992 715.89 220.232 720.22 219.992H720.78L718.78 217.992V375.002C718.78 382.242 718.5 389.532 718.78 396.762V397.062C718.78 399.632 722.78 399.642 722.78 397.062V240.002C722.78 232.762 723.05 225.472 722.78 218.232 722.775 218.135 722.775 218.038 722.78 217.942 722.78 217.411 722.569 216.903 722.194 216.528 721.819 216.153 721.311 215.942 720.78 215.942H401.67C397.35 215.942 393.02 215.862 388.67 215.942H388.12C387.59 215.942 387.081 216.153 386.706 216.528 386.331 216.903 386.12 217.411 386.12 217.942 386.12 220.235 386.097 222.525 386.05 224.812 385.983 231.132 385.917 237.465 385.85 243.812 385.763 253.298 385.673 262.792 385.58 272.292 385.467 284.218 385.36 296.152 385.26 308.092 385.147 321.612 385.043 335.135 384.95 348.662 384.837 362.962 384.743 377.265 384.67 391.572 384.59 405.772 384.527 419.968 384.48 434.162 384.44 447.568 384.417 460.982 384.41 474.402 384.41 486.142 384.443 497.885 384.51 509.632 384.51 518.892 384.64 528.162 384.81 537.422 384.81 539.202 384.87 540.982 384.91 542.752 384.97 545.322 388.97 545.332 388.91 542.752L388.94 542.712zM741.54 396.081C741.79 374.001 741.37 351.901 741.08 329.821 740.73 303.821 740.34 277.881 740.35 251.901 740.35 240.721 740.35 229.531 740.82 218.351L738.82 220.351H973.53C974.592 220.441 975.659 220.441 976.72 220.351 976.856 220.336 976.994 220.336 977.13 220.351L975.13 218.351V693.601C975.13 700.021 975.01 706.451 975.13 712.861 975.13 713.141 975.13 713.431 975.13 713.711 975.13 716.281 979.13 716.281 979.13 713.711V238.461C979.13 232.041 979.25 225.611 979.13 219.191 979.13 218.911 979.13 218.631 979.13 218.351 979.13 217.82 978.919 217.311 978.544 216.936 978.169 216.561 977.661 216.351 977.13 216.351H748.57C745.48 216.351 742.32 216.151 739.23 216.351 739.09 216.351 738.95 216.351 738.82 216.351 738.29 216.351 737.781 216.561 737.406 216.936 737.031 217.311 736.82 217.82 736.82 218.351 736 240.411 736.31 262.521 736.53 284.591 736.78 310.591 737.22 336.591 737.47 362.511 737.57 373.701 737.67 384.891 737.54 396.081 737.54 398.651 741.54 398.661 741.54 396.081z" class="colorbbe4ea svgShape"></path><path fill="#021b79" d="M235.984 426.571C248.745 423.152 256.963 412.444 254.34 402.655 251.717 392.866 239.246 387.702 226.486 391.122 213.725 394.541 205.507 405.248 208.13 415.037 210.753 424.826 223.224 429.99 235.984 426.571zM352.14 748.469L312.31 1004.73H208.11L244.53 758.559 352.14 748.469z" class="color000000 svgShape"></path><path fill="#021b79" d="M401.52 750.941C401.52 750.941 420.52 895.051 427.13 1004.73H333.8L318.66 765.101L401.52 750.941Z" class="color000000 svgShape"></path><path fill="#b7d7f8" stroke="#000000" stroke-linecap="round" stroke-linejoin="round" stroke-width="1.55" d="M275.24 785.051C275.24 785.051 299.16 816.281 292.19 820.271 285.22 824.261 271.25 806.731 271.25 806.731 271.25 806.731 293.51 843.861 286.54 845.521 279.57 847.181 264.63 819.171 264.63 819.171 264.63 819.171 281.37 847.331 275.39 852.651 269.41 857.971 253.62 825.531 253.62 825.531 253.62 825.531 267.4 851.061 260.77 853.231 256.24 854.721 239.83 824.501 239.83 824.501 239.83 824.501 249.28 841.351 242.39 843.651 235.5 845.951 222 800.251 222 800.251L275.24 785.051zM472.68 530.619C472.68 530.619 477.4 479.169 485.14 477.809 492.88 476.449 492.89 497.809 492.89 497.809 492.89 497.809 502.28 460.809 510.65 462.749 516.65 464.169 506.65 495.539 506.65 495.539 506.65 495.539 518.86 461.24 525.65 463.2 532.88 465.3 516.54 499.2 516.54 499.2 516.54 499.2 535.17 468.69 539.97 474.2 544.77 479.71 522.91 513.369 522.91 513.369 522.91 513.369 537 496.479 540 501.939 543 507.399 518.85 546.179 518.85 546.179 518.85 546.179 479.14 542.399 472.68 530.619z" class="colorf8b7cb svgShape colorStroke000000 svgStroke"></path><path fill="#4c6ef0" d="M379.43 520.281C379.43 520.281 403.22 532.671 434.67 619.181L470.06 520.281C470.06 520.281 501.51 535.531 530.35 540.001C530.35 540.001 494.96 717.061 439.92 708.091C384.88 699.121 370.45 603.451 370.45 603.451C370.45 603.451 356.94 551.141 379.43 520.281Z" class="colorf04c5f svgShape"></path><path fill="#021b79" d="M360 396.379C360 396.379 359.5 347.479 315.4 344.019C271.3 340.559 234.12 367.759 243.63 427.229C253.14 486.699 219.91 553.659 219.91 553.659L311 544.659V421.839L360 396.379Z" class="color000000 svgShape"></path><path fill="#4c6ef0" d="M284.6 490L223 529.35C223 529.35 203.48 675.27 241 785.46C241 785.46 332.49 810.54 409.91 769.23C409.91 769.23 392.32 594.18 379.42 520.23L333.8 499.47L284.6 490Z" class="colorf04c5f svgShape"></path><path fill="#b7d7f8" stroke="#000000" stroke-linecap="round" stroke-linejoin="round" stroke-width="1.55" d="M360 396.38C360 396.38 371.89 465.38 333.83 475.68V499.47L329.16 517L284.6 490V451.75C284.6 451.75 253.6 440.47 261.51 423.31C269.42 406.15 291.86 416.71 291.86 416.71C291.86 416.71 330.86 404.5 342.67 374.48C342.67 374.48 351.61 391.72 360 396.38Z" class="colorf8b7cb svgShape colorStroke000000 svgStroke"></path><path fill="#021b79" d="M272 423.669C279.15 427.389 283.44 435.409 283.35 443.359C283.35 443.624 283.455 443.878 283.643 444.066C283.83 444.253 284.085 444.359 284.35 444.359C284.615 444.359 284.869 444.253 285.057 444.066C285.244 443.878 285.35 443.624 285.35 443.359C285.45 434.739 280.76 425.979 273.01 421.949C271.86 421.349 270.85 423.079 272.01 423.669H272Z" class="color000000 svgShape"></path><path fill="#021b79" d="M273.14 431.269C276.449 432.064 279.499 433.692 282 435.999 282.95 436.879 284.36 435.469 283.42 434.589 280.678 432.051 277.332 430.258 273.7 429.379 273.444 429.309 273.171 429.343 272.94 429.475 272.71 429.606 272.541 429.824 272.47 430.079 272.4 430.335 272.434 430.609 272.566 430.839 272.697 431.07 272.914 431.239 273.17 431.309L273.14 431.269zM292.91 458.94C299.71 467.67 309.07 474.19 320.09 476.21 324.616 477.011 329.231 477.169 333.8 476.68 335.07 476.55 335.08 474.55 333.8 474.68 326.45 475.554 318.997 474.549 312.14 471.76 307.138 469.592 302.599 466.482 298.77 462.6 297.19 461.001 295.708 459.307 294.33 457.53 293.54 456.53 292.13 457.94 292.91 458.94zM341.67 416.849C344.062 421.804 345.655 427.106 346.39 432.559 346.7 434.929 347.58 438.339 344.94 439.609 342.373 440.697 339.553 441.043 336.8 440.609 335.54 440.439 335 442.359 336.27 442.529 339.335 443.003 342.471 442.658 345.36 441.529 346.576 441.113 347.595 440.262 348.22 439.139 348.754 437.779 348.899 436.297 348.64 434.859 348.068 428.234 346.292 421.768 343.4 415.779 342.84 414.619 341.12 415.629 341.67 416.779V416.849zM346.21 449.219C334.892 447.965 323.486 447.684 312.12 448.379 311.63 448.379 311.05 448.809 311.12 449.379 311.492 452.243 312.479 454.992 314.011 457.439 315.544 459.887 317.587 461.974 320 463.559 322.256 464.911 324.759 465.798 327.363 466.168 329.966 466.537 332.618 466.381 335.16 465.709 337.218 465.077 339.128 464.035 340.774 462.646 342.42 461.258 343.769 459.552 344.74 457.629 345.997 455.325 346.836 452.816 347.22 450.219 347.38 448.949 345.38 448.959 345.22 450.219 345.29 449.639 345.22 450.289 345.22 450.429 345.14 450.849 345.05 451.269 344.95 451.689 344.637 452.944 344.215 454.168 343.69 455.349 342.295 458.779 339.68 461.572 336.35 463.189 331.98 465.129 326.24 464.609 322.05 462.409 318.928 460.69 316.434 458.021 314.93 454.789 314.336 453.551 313.864 452.259 313.52 450.929 313.41 450.499 313.31 450.069 313.23 449.639 313.23 449.489 313.11 448.849 313.18 449.379L312.18 450.379C323.546 449.684 334.952 449.965 346.27 451.219 347.48 451.359 347.47 449.359 346.21 449.219zM318.66 424.112C320.803 424.112 322.54 422.374 322.54 420.232 322.54 418.089 320.803 416.352 318.66 416.352 316.517 416.352 314.78 418.089 314.78 420.232 314.78 422.374 316.517 424.112 318.66 424.112zM355.07 422.811C357.213 422.811 358.95 421.074 358.95 418.931 358.95 416.788 357.213 415.051 355.07 415.051 352.928 415.051 351.19 416.788 351.19 418.931 351.19 421.074 352.928 422.811 355.07 422.811z" class="color000000 svgShape"></path><path fill="#4c6ef0" d="M223 529.352C223 529.352 148 619.442 217.92 806.732L282.69 791.552C282.69 791.552 249.59 675.552 260.22 603.452C270.85 531.352 223 529.352 223 529.352Z" class="colorf04c5f svgShape"></path><path fill="#021b79" d="M350.18 511.139L347.18 534.639L346.75 537.989L348.75 537.719C346.539 531.256 342.608 525.517 337.38 521.119C335.08 519.093 332.501 517.409 329.72 516.119C329.524 516.02 329.303 515.982 329.086 516.011C328.868 516.039 328.664 516.133 328.5 516.279C324.294 519.526 320.926 523.733 318.68 528.549C316.305 534.116 315.32 540.177 315.81 546.209L317.52 545.499L303.4 530.099L280.83 505.499L275.63 499.819C274.76 498.869 273.35 500.279 274.21 501.229L288.33 516.629L310.85 541.209L316.05 546.889C316.19 547.03 316.369 547.126 316.564 547.166C316.758 547.205 316.96 547.185 317.144 547.109C317.327 547.032 317.484 546.903 317.594 546.738C317.703 546.572 317.761 546.378 317.76 546.179C317.247 540.373 318.188 534.53 320.5 529.179C322.673 524.647 325.883 520.69 329.87 517.629L328.66 517.779C331.217 518.954 333.594 520.486 335.72 522.329C340.796 526.506 344.623 532 346.78 538.209C346.815 538.474 346.953 538.715 347.165 538.878C347.377 539.041 347.645 539.114 347.91 539.079C348.176 539.045 348.416 538.906 348.579 538.694C348.743 538.483 348.815 538.214 348.78 537.949L351.78 514.449L352.21 511.099C352.38 509.819 350.37 509.839 350.21 511.099L350.18 511.139Z" class="color000000 svgShape"></path><path fill="#021b79" d="M328.2 517.221C330.24 528.988 332.113 540.781 333.82 552.601 335.98 567.481 337.92 582.395 339.64 597.341 341.68 615.075 343.44 632.831 344.92 650.611 346.613 670.871 347.946 691.155 348.92 711.461 350.04 734.181 350.74 756.914 351.02 779.661L351.11 788.511C351.11 788.776 351.215 789.031 351.403 789.218 351.59 789.406 351.845 789.511 352.11 789.511 352.375 789.511 352.629 789.406 352.817 789.218 353.004 789.031 353.11 788.776 353.11 788.511 352.923 765.411 352.313 742.324 351.28 719.251 350.346 698.584 349.063 677.918 347.43 657.251 345.99 639.091 344.26 620.961 342.24 602.861 340.533 587.614 338.606 572.391 336.46 557.191 334.72 544.931 332.816 532.694 330.75 520.481 330.54 519.211 330.32 517.931 330.1 516.651 329.88 515.371 327.95 515.921 328.17 517.181L328.2 517.221zM384.33 576.16C385.98 588.93 387.93 601.66 389.8 614.39 392.21 630.78 394.65 647.16 397.02 663.56 397.87 669.49 398.75 675.42 399.52 681.36 399.68 682.62 401.68 682.64 401.52 681.36 399.86 668.6 397.91 655.87 396.04 643.13 393.626 626.743 391.223 610.356 388.83 593.97 387.97 588.04 387.1 582.1 386.33 576.16 386.16 574.9 384.16 574.89 384.33 576.16zM260.05 589.702C259.057 600.853 258.643 612.048 258.81 623.242 258.9 636.892 259.51 650.542 260.46 664.152 261.5 678.818 262.944 693.485 264.79 708.152 266.6 722.422 268.79 736.642 271.52 750.762 273.862 763.239 276.839 775.588 280.44 787.762 280.85 789.122 281.28 790.492 281.71 791.852 282.14 793.212 284.04 792.542 283.64 791.312 279.925 779.489 276.864 767.471 274.47 755.312 271.61 741.312 269.33 727.312 267.47 713.142 265.517 698.568 263.984 683.948 262.87 669.282 261.81 655.532 261.1 641.742 260.87 627.942 260.69 616.392 260.82 604.802 261.74 593.272 261.84 592.092 261.94 590.902 262.06 589.712 262.18 588.522 260.18 588.442 260.06 589.712L260.05 589.702z" class="color000000 svgShape"></path><path fill="#021b79" d="M262.39 678.75C253.859 677.386 245.131 679.39 238.05 684.34 237.05 685.08 238.05 686.81 239.05 686.07 245.661 681.387 253.832 679.454 261.84 680.68 263.1 680.88 263.64 678.95 262.38 678.75H262.39zM432.51 620.83C434.549 631.029 435.118 641.469 434.2 651.83 434.08 653.11 436.08 653.11 436.2 651.83 437.116 641.283 436.523 630.659 434.44 620.28 434.19 619.02 432.26 619.56 432.51 620.82V620.83zM225 534.001C228.79 533.371 232.5 535.421 235 538.141 237.8 541.141 239.38 545.141 240.91 548.911 241.39 550.081 243.32 549.571 242.84 548.371 241.11 544.111 239.32 539.671 236.04 536.371 233.04 533.301 228.81 531.371 224.48 532.111 223.22 532.321 223.75 534.241 225.01 534.041L225 534.001zM382.33 526.19C381.923 533.859 382.1 541.548 382.86 549.19 382.98 550.46 384.98 550.47 384.86 549.19 384.1 541.548 383.923 533.859 384.33 526.19 384.4 524.9 382.4 524.91 382.33 526.19zM492 498.659C495.094 504.525 496.548 511.116 496.21 517.739 496.15 519.019 498.15 519.019 498.21 517.739 498.542 510.762 496.995 503.824 493.73 497.649 493.13 496.509 491.4 497.519 492 498.649V498.659zM506.19 496.46C510.19 498.05 514.33 499.73 517.29 502.97 519.994 505.976 521.487 509.877 521.48 513.92 521.48 514.185 521.586 514.44 521.773 514.627 521.961 514.815 522.215 514.92 522.48 514.92 522.746 514.92 523 514.815 523.188 514.627 523.375 514.44 523.48 514.185 523.48 513.92 523.475 509.447 521.844 505.129 518.89 501.77 515.7 498.13 511.12 496.28 506.72 494.53 505.53 494.06 505.01 495.99 506.19 496.46zM385.9 587.049C378.994 588.156 372.134 589.489 365.32 591.049 363.66 591.439 362 591.829 360.32 592.259 359.13 592.559 358.03 592.979 357.63 594.259 357.23 595.539 357.75 597.169 357.97 598.439L358.9 603.819 362.51 624.819C363.07 628.069 363.37 631.509 364.25 634.679 365.13 637.849 367.6 637.779 370.25 637.559 377.949 636.933 385.576 635.617 393.04 633.629 393.296 633.559 393.514 633.39 393.645 633.159 393.776 632.929 393.811 632.655 393.74 632.399 393.67 632.144 393.501 631.926 393.27 631.795 393.04 631.663 392.766 631.629 392.51 631.699 386.466 633.321 380.309 634.487 374.09 635.189 372.65 635.359 371.21 635.489 369.77 635.599 368.33 635.709 366.77 635.999 366.21 634.319 365.869 633.036 365.622 631.729 365.47 630.409L364.63 625.509 361.39 606.669 359.8 597.369C359.638 596.713 359.531 596.044 359.48 595.369 359.48 594.319 360.25 594.259 361.07 594.059 362.65 593.659 364.23 593.279 365.81 592.909 372.624 591.329 379.484 589.996 386.39 588.909 387.66 588.699 387.12 586.779 385.86 586.979L385.9 587.049z" class="color000000 svgShape"></path><path fill="#ffffff" d="M336.75 824.339C334.49 841.879 332.294 859.429 330.16 876.989 328.26 892.323 326.38 907.686 324.52 923.079 324.15 926.079 323.75 929.159 323.41 932.199 323.27 933.489 325.24 933.449 325.41 932.199 325.58 930.949 325.72 929.689 325.87 928.429 326.02 927.169 324.02 927.159 323.87 928.429 323.72 929.699 323.58 930.949 323.41 932.199H325.41C326.41 923.389 327.55 914.599 328.62 905.799 330.8 887.959 333 870.123 335.22 852.289 336.38 842.956 337.557 833.639 338.75 824.339 338.91 823.069 336.91 823.079 336.75 824.339zM325.14 373.571C318.712 384.589 309.447 393.682 298.31 399.901 297.18 400.531 298.19 402.251 299.31 401.631 310.739 395.23 320.251 385.891 326.86 374.581 326.979 374.352 327.006 374.086 326.934 373.839 326.862 373.591 326.698 373.38 326.474 373.251 326.251 373.122 325.986 373.085 325.736 373.146 325.485 373.207 325.268 373.363 325.13 373.581L325.14 373.571zM308.61 376.201C303.61 382.841 298.61 389.531 292.33 395.021 290.761 396.408 289.108 397.697 287.38 398.881 285.628 400.178 283.72 401.25 281.7 402.071 280.01 402.661 277.07 402.741 276.51 400.501 276.03 398.501 278.37 397.021 279.74 396.141 280.82 395.441 279.82 393.711 278.74 394.411 276.24 396.021 273.06 398.931 275.09 402.151 277.12 405.371 281.44 404.571 284.33 403.071 291.27 399.461 297.03 393.781 302.03 387.861 304.94 384.421 307.65 380.811 310.35 377.211 311.12 376.211 309.35 375.211 308.62 376.211L308.61 376.201zM241.66 401.222C240.584 408.173 240.47 415.239 241.32 422.222 241.47 423.482 243.48 423.502 243.32 422.222 242.47 415.412 242.561 408.517 243.59 401.732 243.78 400.472 241.85 399.922 241.66 401.202V401.222z" class="colorffffff svgShape"></path><path fill="#021b79" stroke="#000000" stroke-linecap="round" stroke-linejoin="round" stroke-width="1.55" d="M809.83 563.841C809.83 563.841 854.45 549.911 863.93 641.691C863.93 641.691 915.56 657.331 903.93 757.561C903.93 757.561 884.83 801.681 834.85 798.131C834.89 798.131 798.92 672.361 809.83 563.841Z" class="color000000 svgShape colorStroke000000 svgStroke"></path><path fill="#5b7af0" d="M742.54 802.719L794.62 1016.05H895.74L844.53 813.849L742.54 802.719Z" class="colorf05b82 svgShape"></path><path fill="#5b7af0" d="M674.54 790.82L674.1 1016.05H767.4L767.84 801.31L674.54 790.82Z" class="colorf05b82 svgShape"></path><path fill="#b7d7f8" stroke="#000000" stroke-linecap="round" stroke-linejoin="round" stroke-width="1.55" d="M639.86 641.691L606.09 690.831L564.89 676.721L577.82 722.731L650.21 739.561L688.12 672.351L639.86 641.691Z" class="colorf8b7cb svgShape colorStroke000000 svgStroke"></path><path fill="#93b3d3" d="M676.72 549.211C676.72 549.211 652.14 565.801 620.78 636.751C620.78 636.751 653.05 672.621 676.72 679.311C676.72 679.311 718.18 558.741 676.72 549.211Z" class="color93d3c5 svgShape"></path><path fill="#0575e6" d="M643.16 652.74L669.34 750.94L598.89 766.48L559.63 734.73L533.74 641.48L580.14 666.82L643.16 652.74Z" class="color0e5aa4 svgShape"></path><path fill="#93b3d3" d="M717.54 537.699L762.14 532.129L809.83 548.639C809.83 548.639 841.94 652.639 844.53 813.849C844.53 813.849 757.53 833.629 671.7 806.849C671.7 806.849 663.87 659.719 676.7 549.179L717.54 537.699Z" class="color93d3c5 svgShape"></path><path fill="#021b79" stroke="#000000" stroke-linecap="round" stroke-linejoin="round" stroke-width="1.55" d="M691.79 436.2C691.79 436.2 679.41 435.34 680.38 428.2C681.35 421.06 695.57 422.06 695.57 422.06C695.57 422.06 678.12 415.6 684.57 407.2C691.02 398.8 704.28 405.58 704.28 405.58C704.28 405.58 698.79 392.98 709.78 386.52C720.77 380.06 731.43 390.39 731.43 390.39C731.43 390.39 741.43 372.94 758.25 378.11C775.07 383.28 775.38 397.18 775.38 397.18C775.38 397.18 794.11 385.5 800.23 399.67C802.022 403.642 802.684 408.031 802.144 412.355C801.604 416.679 799.883 420.77 797.17 424.18C797.17 424.18 809.43 425.57 809.81 436.18C810.19 446.79 799.47 453.68 799.47 453.68C799.47 453.68 819.38 462.48 794.11 482.4C794.11 482.4 800.23 500.78 765.02 498.13C765 498.15 699.75 476.91 691.79 436.2Z" class="color000000 svgShape colorStroke000000 svgStroke"></path><path fill="#b7d7f8" stroke="#000000" stroke-linecap="round" stroke-linejoin="round" stroke-width="1.55" d="M691.79 436.199C691.79 436.199 670.52 514.999 717.54 517.739V537.739C717.54 537.739 714.27 552.169 728.77 553.739C749.3 555.899 762.14 532.209 762.14 532.209L766 486.559C766 486.559 787.81 488.499 791.69 471.049C795.57 453.599 768.9 462.699 768.9 462.699C768.9 462.699 712.68 468.139 716.67 440.089C716.69 440.089 698 446.429 691.79 436.199Z" class="colorf8b7cb svgShape colorStroke000000 svgStroke"></path><path fill="#021b79" d="M781 464.459C773.07 465.849 768.28 473.279 767 480.719C766.77 481.979 768.7 482.519 768.93 481.249C770.15 474.439 774.28 467.669 781.58 466.389C782.84 466.169 782.31 464.239 781.05 464.459H781Z" class="color000000 svgShape"></path><path fill="#021b79" d="M779.82 471.221C777.974 470.829 776.063 470.862 774.232 471.317 772.4 471.773 770.697 472.639 769.25 473.851 768.25 474.731 769.72 476.141 770.66 475.271 771.823 474.267 773.225 473.579 774.73 473.271 776.222 472.897 777.776 472.846 779.29 473.121 779.544 473.191 779.817 473.159 780.047 473.029 780.278 472.9 780.448 472.685 780.52 472.431 780.555 472.304 780.564 472.172 780.548 472.041 780.532 471.911 780.49 471.785 780.425 471.671 780.36 471.556 780.273 471.456 780.169 471.375 780.065 471.295 779.947 471.235 779.82 471.201V471.221zM708.69 462.719C705.484 468.715 702.807 474.979 700.69 481.439 700.129 482.696 700.013 484.107 700.36 485.439 700.591 485.989 700.929 486.487 701.355 486.904 701.781 487.321 702.286 487.649 702.84 487.869 705.793 489.193 708.946 490.018 712.17 490.309 713.45 490.439 713.44 488.439 712.17 488.309 709.357 488.039 706.604 487.33 704.01 486.209 702.73 485.639 701.91 484.859 702.22 483.349 702.56 481.989 702.991 480.652 703.51 479.349 705.426 473.984 707.732 468.767 710.41 463.739 711.02 462.609 709.29 461.599 708.69 462.739V462.719zM707.57 502.079C712.257 503.462 717.233 503.542 721.962 502.308 726.692 501.075 730.995 498.575 734.41 495.079 735.3 494.149 733.89 492.729 733 493.659 729.838 496.912 725.847 499.238 721.458 500.387 717.069 501.536 712.45 501.464 708.1 500.179 707.854 500.134 707.601 500.183 707.39 500.316 707.178 500.449 707.024 500.656 706.958 500.897 706.892 501.137 706.917 501.394 707.031 501.616 707.144 501.839 707.336 502.011 707.57 502.099V502.079zM697.47 464.679C699.491 464.679 701.13 463.041 701.13 461.019 701.13 458.998 699.491 457.359 697.47 457.359 695.448 457.359 693.81 458.998 693.81 461.019 693.81 463.041 695.448 464.679 697.47 464.679zM728.77 470.55C730.792 470.55 732.43 468.912 732.43 466.89 732.43 464.869 730.792 463.23 728.77 463.23 726.749 463.23 725.11 464.869 725.11 466.89 725.11 468.912 726.749 470.55 728.77 470.55zM720.8 518.729C727.405 518.39 733.873 516.707 739.806 513.784 745.74 510.862 751.015 506.76 755.31 501.729 756.13 500.729 754.72 499.329 753.89 500.309 749.784 505.159 744.732 509.118 739.042 511.945 733.352 514.772 727.144 516.407 720.8 516.749 719.52 516.809 719.51 518.809 720.8 518.749V518.729zM914.93 710C915.195 710 915.449 709.895 915.637 709.707 915.824 709.52 915.93 709.265 915.93 709 915.93 708.735 915.824 708.48 915.637 708.293 915.449 708.105 915.195 708 914.93 708 914.664 708 914.41 708.105 914.223 708.293 914.035 708.48 913.93 708.735 913.93 709 913.93 709.265 914.035 709.52 914.223 709.707 914.41 709.895 914.664 710 914.93 710z" class="color000000 svgShape"></path><path fill="#b7d7f8" stroke="#000000" stroke-linecap="round" stroke-linejoin="round" stroke-width="1.55" d="M774.75 703.722H676.48L652.78 694.892L655.43 706.262C655.43 706.262 642.68 712.012 632.59 711.092C622.5 710.172 615.17 705.782 614.59 711.192C614.01 716.602 618.87 719.652 618.87 719.652C618.87 719.652 612.15 726.382 624.68 734.942C624.68 734.942 619.79 740.752 633.55 747.782C647.31 754.812 680.29 757.002 680.29 757.002C680.29 757.002 818.6 762.002 834.19 743.112C849.07 725.052 844.53 682.282 844.53 682.282L779.53 673.512L774.75 703.722Z" class="colorf8b7cb svgShape colorStroke000000 svgStroke"></path><path fill="#021b79" d="M773.9 704.591C777.139 706.336 779.847 708.922 781.739 712.078C783.631 715.234 784.636 718.841 784.65 722.521C784.65 722.786 784.755 723.04 784.943 723.228C785.13 723.415 785.384 723.521 785.65 723.521C785.915 723.521 786.169 723.415 786.357 723.228C786.544 723.04 786.65 722.786 786.65 722.521C786.634 718.494 785.536 714.545 783.471 711.088C781.405 707.631 778.448 704.793 774.91 702.871C773.77 702.261 772.76 703.991 773.91 704.591H773.9Z" class="color000000 svgShape"></path><path fill="#021b79" stroke="#000000" stroke-linecap="round" stroke-linejoin="round" stroke-width="1.55" d="M780 537.699C780 537.699 733.63 632.069 778.22 690.629 778.22 690.629 767.87 597.569 799.96 545.209L780 537.699zM669.6 690.63C669.6 690.63 697.47 641.48 706.6 540.77L687 546.31C687 546.31 669.34 622.87 669.6 690.63z" class="color000000 svgShape colorStroke000000 svgStroke"></path><path fill="#93b3d3" d="M809.83 548.641C809.83 548.641 849.92 576.641 853.94 701.271C853.94 701.271 823.41 711.331 767.94 690.631C767.92 690.631 764.11 576.101 809.83 548.641Z" class="color93d3c5 svgShape"></path><path fill="#b7d7f8" stroke="#000000" stroke-linecap="round" stroke-linejoin="round" stroke-width="2" d="M544.07 718.661C544.07 718.661 536.069 714.151 540.539 707.541C540.539 707.541 533.21 700.341 539.84 695.541C539.84 695.541 531.1 685.321 539.84 680.371C539.84 680.371 562.39 696.441 562.39 701.251C562.39 706.061 546.169 697.771 546.169 697.771C546.169 697.771 566 710.001 562.39 714.151C558.78 718.301 544.219 708.711 544.219 708.711C544.219 708.711 565.97 722.261 562.83 726.171C561.2 728.171 552.469 722.931 548.049 720.441C548.049 720.441 563.439 730.441 559.669 734.351C557.979 736.111 549.88 731.351 545.13 727.731C539.84 723.761 540.19 717.561 544.07 718.661Z" class="colorf8b7cb svgShape colorStroke000000 svgStroke"></path><path fill="#021b79" d="M618 720.059C625.29 725.969 634.12 729.219 642.85 732.349 644.06 732.789 644.59 730.849 643.38 730.419 635 727.419 626.38 724.319 619.38 718.649 618.38 717.849 616.96 719.249 617.96 720.059H618zM623.31 735.59C627.31 737.59 631.354 739.497 635.44 741.31 637.44 742.17 639.44 743.01 641.44 743.81 643.302 744.727 645.367 745.154 647.44 745.05 648.7 744.89 648.72 742.89 647.44 743.05 645.36 743.31 643.44 742.47 641.57 741.72 639.7 740.97 637.57 740.09 635.63 739.22 631.797 737.547 628.027 735.76 624.32 733.86 623.17 733.28 622.16 735 623.32 735.59H623.31z" class="color000000 svgShape"></path><path fill="#5b7af0" d="M834.89 816.079L817.27 819.469C819.69 805.862 822.163 792.249 824.69 778.629L834.89 816.079Z" class="colorf05b82 svgShape"></path><path fill="#ffffff" d="M754.06 835.441C755.22 844.221 756.99 852.921 758.65 861.621C760.65 872.201 762.77 882.771 764.65 893.361C765.44 897.691 766.23 902.021 766.8 906.361C766.97 907.621 768.97 907.641 768.8 906.361C767.65 897.581 765.88 888.881 764.22 880.191C762.22 869.601 760.1 859.041 758.22 848.441C757.43 844.121 756.64 839.791 756.06 835.441C755.9 834.181 753.9 834.171 754.06 835.441Z" class="colorffffff svgShape"></path></svg>