<svg xmlns="http://www.w3.org/2000/svg" enable-background="new 0 0 3000 3000" viewBox="0 0 3000 3000" id="Subscribeus"><ellipse cx="1193.692" cy="2623.734" fill="#cee5fc" rx="472.209" ry="37.508" class="colorcef0fc svgShape"></ellipse><path fill="#0575e6" d="M2108.865,1925.648c-257.598,0-658.526-7.447-1011.172-28.353
			c-604.301-35.812-650.041-84.916-672.033-108.509c-46.102-49.464-80.13-608.903-68.397-844.806
			c8.362-168.002,33.873-212.083,57.713-233.047c18.638-16.383,49.815-43.789,488.774-63.569
			c233.149-10.504,542.29-16.53,848.158-16.53c767.271,0,789.158,27.735,805.147,47.988
			c132.315,167.618,91.234,869.672,33.218,1104.177c-18.583,75.12-38.463,111.225-68.613,124.596
			c-11.136,4.942-40.765,18.053-412.717,18.053C2108.899,1925.648,2108.912,1925.648,2108.865,1925.648z" class="color288aff svgShape"></path><path fill="#c7dcf2" d="M420.001 1072.24c-20.702-22.24-31.184-244.65 47.461-221.452C502.668 861.173 448.35 1102.696 420.001 1072.24zM479.087 705.854c6.751-24.877 85.452-17.883 52.507 5.795C498.65 735.33 477.028 713.442 479.087 705.854z" opacity=".5" class="colorc7d2f2 svgShape"></path><path fill="#f7f9fc" d="M2501.059,721.939c-34.071-45.872-1818.223-42.166-1903.186,37.212
			c-84.962,79.383-16.36,952.696,12.819,985.974c103.23,117.733,1806.122,137.318,1873.994,105.323
			C2563.297,1813.397,2629.137,894.38,2501.059,721.939z" class="colorf7f9fc svgShape"></path><g fill="#000000" class="color000000 svgShape"><path fill="#e4ecf4" d="M1861.052,1566.676l-267.63,0.002c-7.459-0.001-13.514,6.044-13.512,13.507
				c-0.002,7.462,6.054,13.514,13.51,13.512l267.633,0.001c7.458,0.001,13.507-6.048,13.506-13.514
				C1874.56,1572.726,1868.51,1566.677,1861.052,1566.676z" class="colore4e9f4 svgShape"></path><path fill="#c7dcf2" d="M1964.638,1566.675l-60.054,0.003c-7.462-0.001-13.51,6.045-13.512,13.507
				c0.001,7.466,6.051,13.514,13.51,13.512l60.053,0.001c7.462,0.001,13.51-6.048,13.512-13.514
				C1978.147,1572.722,1972.1,1566.677,1964.638,1566.675z" class="colorc7d2f2 svgShape"></path><path fill="#e4ecf4" d="M1769.517 1644.289l-154.781.007c-19.233-.003-34.82 15.58-34.825 34.813.004 19.243 15.596 34.832 34.822 34.825l154.78.003c19.233.004 34.822-15.589 34.827-34.83C1804.335 1659.873 1788.749 1644.294 1769.517 1644.289zM2035.738 1644.289l-154.781.007c-19.233-.003-34.82 15.58-34.825 34.813.004 19.243 15.596 34.832 34.822 34.825l154.78.003c19.233.004 34.822-15.589 34.827-34.83C2070.556 1659.873 2054.971 1644.294 2035.738 1644.289z" class="colore4e9f4 svgShape"></path><path fill="#c7dcf2" d="M2301.959,1644.289l-154.781,0.007c-19.233-0.003-34.82,15.58-34.825,34.813
				c0.003,19.243,15.596,34.832,34.822,34.825l154.78,0.003c19.233,0.004,34.822-15.589,34.827-34.83
				C2336.778,1659.873,2321.192,1644.294,2301.959,1644.289z" class="colorc7d2f2 svgShape"></path><path fill="#e4ecf4" d="M2325.952,1494.631l-338.814-0.002c-7.459,0.002-13.507,6.048-13.508,13.507
				c0.001,7.466,6.049,13.507,13.508,13.508l338.814-0.001c7.462,0.002,13.506-6.042,13.508-13.507
				C2339.457,1500.68,2333.41,1494.629,2325.952,1494.631z" class="colore4e9f4 svgShape"></path><path fill="#c7dcf2" d="M1593.421,1521.643l350.185-0.001c7.462,0.002,13.51-6.041,13.512-13.506
				c0.001-7.456-6.048-13.507-13.514-13.506l-350.182,0.001c-7.458-0.001-13.514,6.048-13.515,13.506
				C1579.909,1515.6,1585.963,1521.645,1593.421,1521.643z" class="colorc7d2f2 svgShape"></path><g fill="#000000" class="color000000 svgShape"><path fill="#e4ecf4" d="M1732.217 1315.291h-131.329c-11.635 0-21.067 11.004-21.067 24.578v94.802c0 13.574 9.432 24.578 21.067 24.578h131.329c11.635 0 21.068-11.004 21.068-24.578v-94.802C1753.284 1326.295 1743.852 1315.291 1732.217 1315.291zM1926.716 1315.291h-131.329c-11.635 0-21.067 11.004-21.067 24.578v94.802c0 13.574 9.432 24.578 21.067 24.578h131.329c11.635 0 21.068-11.004 21.068-24.578v-94.802C1947.783 1326.295 1938.351 1315.291 1926.716 1315.291zM2121.215 1315.291h-131.329c-11.635 0-21.067 11.004-21.067 24.578v94.802c0 13.574 9.432 24.578 21.067 24.578h131.329c11.635 0 21.068-11.004 21.068-24.578v-94.802C2142.282 1326.295 2132.85 1315.291 2121.215 1315.291zM2315.713 1315.291h-131.329c-11.635 0-21.067 11.004-21.067 24.578v94.802c0 13.574 9.432 24.578 21.067 24.578h131.329c11.635 0 21.068-11.004 21.068-24.578v-94.802C2336.781 1326.295 2327.349 1315.291 2315.713 1315.291z" class="colore4e9f4 svgShape"></path><path fill="#f7f9fc" d="M1680.974,1418.066c0,3.449,0.746,6.665,2.144,9.554h-72.003c4.893-23.489,22.09-41.758,43.808-45.859
						c-7.969-3.588-13.468-11.557-13.468-20.832c0-12.629,10.206-22.836,22.836-22.836c12.63,0,22.883,10.206,22.883,22.836
						c0,9.275-5.546,17.244-13.516,20.786c10.02,1.911,19.108,6.851,26.425,13.982
						C1689.223,1397.374,1680.974,1406.741,1680.974,1418.066z" class="colorf7f9fc svgShape"></path><path fill="#f7f9fc" d="M1721.991,1418.063c0,10.139-8.245,18.384-18.384,18.384c-7.344,0-13.741-4.36-16.631-10.614
					c-1.137-2.369-1.753-4.974-1.753-7.77c0-9.191,6.728-16.773,15.541-18.147c0.948-0.142,1.895-0.237,2.843-0.237
					C1713.746,1399.679,1721.991,1407.923,1721.991,1418.063z" class="colorf7f9fc svgShape"></path><polygon fill="#c7dcf2" points="1713.357 1415.669 1713.357 1420.573 1706.352 1420.573 1706.352 1427.637 1701.388 1427.637 1701.388 1420.573 1694.382 1420.573 1694.382 1415.669 1701.388 1415.669 1701.388 1408.662 1706.352 1408.662 1706.352 1415.669" class="colorc7d2f2 svgShape"></polygon><path fill="#f7f9fc" d="M1908.214 1414.081c7.608-7.448 12.178-16.72 12.178-26.811 0-24.468-26.568-44.304-59.341-44.304-32.772 0-59.339 19.835-59.339 44.304 0 24.468 26.567 44.304 59.339 44.304 11.206 0 21.647-2.362 30.589-6.392l28.752 3.778L1908.214 1414.081zM2107.944 1395.339l-.026-9.494c-.006-1.814-1.481-3.284-3.299-3.276h-.275l-.025-9.315c-.014-4.939-4.032-8.933-8.972-8.92l-25.108.073c0 0 6.318-9.411 10.159-17.697 3.935-8.485 2.914-14.006-9.136-13.972l-30.188 32.487v.128l-7.833 2.333c-.149-2.459-2.147-4.421-4.644-4.415l-20.767.052c-2.587.006-4.681 2.109-4.675 4.696l.123 54.944c.006 2.589 2.109 4.682 4.697 4.676l20.644-.048c2.585-.006 4.677-2.102 4.677-4.687v-.593l15.183 2.855-.001-.02c1.538.396 3.243.669 5.141.664l36.333-.106c5.146-.016 9.302-4.199 9.285-9.34l-.014-5.661c3.024-.006 5.472-2.467 5.462-5.492l-.021-6.575C2106.483 1398.631 2107.949 1397.153 2107.944 1395.339zM2303.389 1370.471l-28.427-24.383v12.821c-71.612-1.98-61.35 69.543-61.35 69.543s1.422-48.281 61.35-48.74v12.208L2303.389 1370.471z" class="colorf7f9fc svgShape"></path></g></g><g fill="#000000" class="color000000 svgShape"><path fill="#72a4d6" d="M1539.572,795.922c196.87-39.582,752.694-33.965,807.773-3.774
			c55.074,30.19,78.646,348.776,21.416,397.766c-22.903,19.605-746.577,16.984-820.011-3.774
			C1475.315,1165.385,1474.855,808.934,1539.572,795.922z" class="colord6d672 svgShape"></path><g opacity=".5" fill="#000000" class="color000000 svgShape"><path fill="#f7f9fc" d="M1663.257 1112.311c2 8.818 8.325 12.68 18.487 12.68 10.132 0 14.465-4.003 14.465-10.426 0-7.147-4.231-10.246-19.244-13.741-23.89-5.608-29.797-14.298-29.797-26.15 0-15.3 11.447-25.69 32.227-25.69 23.305 0 32.593 12.53 33.849 25.37h-19.123c-.917-5.402-3.905-11.268-15.221-11.268-7.702 0-12.354 3.181-12.354 9.415 0 6.103 3.729 8.58 17.913 11.868 25.53 6.015 31.131 15.515 31.131 27.891 0 16.027-12.129 27.024-35.333 27.024-22.285 0-34.019-10.971-36.123-26.975H1663.257zM1785.76 1118.895c0 6.351.013 13.254.127 19.149h-17.883c-.255-1.768-.382-5.298-.493-7.604-3.908 6.615-9.728 9.131-18.148 9.131-13.428 0-22-8.159-22-24.503v-42.931h18.233v39.274c0 7.278 2.254 13.29 10.152 13.29 8.322 0 11.764-4.433 11.764-17.485v-35.079h18.248V1118.895zM1802.192 1045.1h18.249v34.035c2.721-4.238 8.175-8.524 18.859-8.524 17.939 0 26.887 14.817 26.887 33.304 0 18.885-9.708 35.656-28.655 35.656-9.796 0-14.115-2.982-17.316-7.774 0 2.169-.349 4.577-.702 6.247h-17.449c.127-7.144.127-14.402.127-21.55V1045.1zM1847.67 1104.267c0-10.984-4.084-19.042-13.939-19.042-10.422 0-14.118 6.789-14.118 20.216 0 11.102 3.281 19.629 13.916 19.629C1842.8 1125.07 1847.67 1116.725 1847.67 1104.267zM1892.67 1118.229c1.38 5.252 5.666 8.201 12.475 8.201 6.736 0 9.19-2.42 9.19-6.41 0-4.231-2.832-5.892-12.272-8.208-21.469-5.295-24.982-11.94-24.982-21.24 0-9.682 6.844-19.962 26.724-19.962 19.994 0 26.757 10.916 27.328 19.844h-17.352c-.584-2.434-2.208-7.036-10.791-7.036-6.032 0-7.983 2.672-7.983 5.634 0 3.279 2.048 4.864 12.749 7.36 21.988 5.112 25.1 12.651 25.1 22.313 0 10.916-8.303 20.846-28.397 20.846-20.008 0-28.267-9.657-29.716-21.342H1892.67zM2002.479 1116.748c-2.274 10.98-9.995 22.822-29.634 22.822-20.513 0-31.059-14.194-31.059-34.002 0-19.459 11.871-34.958 31.933-34.958 22.226 0 28.398 15.943 28.76 23.4h-17.815c-1.125-5.37-4.172-9.121-11.293-9.121-8.341 0-13.068 7.311-13.068 20.089 0 14.031 5.001 20.428 12.99 20.428 6.27 0 9.63-3.703 11.258-8.657H2002.479zM2014.041 1090.014c0-6.547-.013-12.364-.127-17.877h17.897c.241 1.478.479 8.018.479 11.571 2.911-7.532 9.937-13.039 21.146-13.098v17.411c-13.242-.339-21.146 3.223-21.146 21.29v28.733h-18.248V1090.014zM2063.695 1045.1h18.248v16.275h-18.248V1045.1zM2063.695 1072.137h18.248v65.906h-18.248V1072.137zM2098.32 1045.1h18.249v34.035c2.72-4.238 8.175-8.524 18.859-8.524 17.939 0 26.887 14.817 26.887 33.304 0 18.885-9.709 35.656-28.656 35.656-9.797 0-14.116-2.982-17.315-7.774 0 2.169-.349 4.577-.702 6.247h-17.45c.127-7.144.127-14.402.127-21.55V1045.1zM2143.799 1104.267c0-10.984-4.084-19.042-13.939-19.042-10.423 0-14.119 6.789-14.119 20.216 0 11.102 3.282 19.629 13.917 19.629C2138.928 1125.07 2143.799 1116.725 2143.799 1104.267zM2190.119 1108.994c.017 8.244 4.144 16.298 13.229 16.298 7.598 0 9.767-3.05 11.5-7.036h18.262c-2.339 8.067-9.535 21.316-30.241 21.316-21.707 0-31.125-16.23-31.125-33.523 0-20.673 10.608-35.438 31.778-35.438 22.636 0 30.332 16.373 30.332 32.828 0 2.228 0 3.676-.238 5.555H2190.119zM2215.574 1097.784c-.127-7.672-3.193-14.129-12.083-14.129-8.743 0-12.263 6.029-12.99 14.129H2215.574zM2254.728 1106.273l-2.431-40.784v-15.232h19.446v15.342l-2.319 40.673H2254.728zM2252.874 1138.06v-21.093h17.926v21.093H2252.874z" class="colorf7f9fc svgShape"></path></g><path fill="#5086bc" d="M1978.372,980.552c0,16.923-13.714,30.644-30.637,30.644c-16.923,0-30.647-13.721-30.647-30.644
		c0-16.919,13.724-30.636,30.647-30.636C1964.658,949.916,1978.372,963.633,1978.372,980.552z" class="colorbcb750 svgShape"></path><path fill="#a6c4e2" d="M2034.66,982.791c-28.97,0.315-53.847,0.517-77.779,0.607h-7.31c-1.079,0-2.159,0.022-3.216,0
		c-2.564,0-5.173,0-7.76-0.022c-23.932-0.067-48.809-0.27-77.801-0.585c-16.509-1.462-2.721-37,10.999-40.981
		c35.358-19.231-6.995-107.109,66.802-126.273c2.879-0.765,15.43-0.765,18.286,0c73.797,19.163,31.445,107.041,66.802,126.273
		C2037.404,945.791,2051.169,981.329,2034.66,982.791z" class="colore2e0a6 svgShape"></path></g><g fill="#000000" class="color000000 svgShape"><path fill="#324075" d="M1292.684,1184.386c-80.57-16.148-402.618,58.44-490.66,151.916c-159.548,169.392,53.377,310,53.377,310
			s354.739-132.116,375.991-150.706l369.526,325.481l77.251-19.928C1678.169,1801.149,1410.98,1208.094,1292.684,1184.386z" class="color324a75 svgShape"></path><path fill="#253366" d="M1636.952,1811.8l-36.034,9.261l-369.545-325.447c-21.23,18.584-375.971,150.691-375.971,150.691
			s-212.932-140.611-53.359-310.012c37.988-40.382,119.633-77.235,206.633-104.765c25.136,40.319,80.196,137.587,47.941,172.11
			c-41.138,43.909-80.826,25.514-70.872,53.863c9.954,28.349,62.242,38.618,80.763,44.098
			c18.458,5.481,146.029-11.529,151.699-25.703c5.67-14.174,11.34-65.203,18.395-46.744c7.119,18.395-1.386,48.193,11.34,48.193
			c12.789,0,39.689-100.67,41.138-63.754c1.386,36.791,0,89.079,0,89.079S1523.746,1711.508,1636.952,1811.8z" opacity=".5" class="color253a66 svgShape"></path><path fill="#324075" d="M1203.323,2477.356l-112.788-561.031c0,0-430.653-70.568-494.484-157.048
		c-56.542-76.605-85.347-362.776-27.382-379.865c57.995-17.17,322.579-22.357,322.579-22.357s22.112,80.248,39.689,135.409
		c105.047,79.173,342.493,199.336,394.06,322.234c69.136,164.77-50.801,663.367-50.801,663.367L1203.323,2477.356z" class="color324a75 svgShape"></path><path fill="#253366" d="M1228.538,2477.624l-25.199-0.252l-112.829-561.058c0,0-430.653-70.557-494.47-157.053
		c-56.509-76.605-85.362-362.741-27.341-379.877c57.958-17.135,322.549-22.301,322.549-22.301s22.112,80.196,39.689,135.382
		c40.508,30.491,100.734,67.156,162.345,107.663c-68.101,1.134-144.517-22.931-202.979-88.764
		c-26.9-30.365-52.918,87.577-233.407,115.412c9.45,28.223,75.597,15.308,51.028,40.696c-24.569,25.325-72.7-11.34-51.469,36.287
		c21.23,47.626,295.271,142.816,374.648,160.392c79.377,17.639,134.185-21.356,122.846,0c-11.34,21.419-49.138,34.649-28.349,40.319
		c20.789,5.67,99.788-43.469,84.858-22.679c-14.931,20.789-98.088,47.248-84.858,79.377
		C1138.325,1992.1,1186.204,2427.793,1228.538,2477.624z" opacity=".5" class="color253a66 svgShape"></path><path fill="#021b79" d="M910.147 1378.124l25.514 102.056c0 0 120.119 85.923 119.12 94.934s-130.46-78.87-136.129-83.595c-5.67-4.725-31.184-108.671-31.184-108.671L910.147 1378.124zM633.663 650.915c18.951 5.956 38.587 6.518 57.862 3.629-12.191-2.108-25.232-5.484-39.032-10.614-83.572-31.069-121.403-8.226-121.403-8.226 14.422-12.307 64.103-27.139 138.286-3.453 34.073 10.879 43.742 2.718 62.855-2.29 50.636-23.305 32.524-40.642 65.294-69.718 24.845-22.044 91.404-16.599 100.411 6.814 240.272 170.299-48.018 262.49-82.557 394.636-36.041 137.892-120.189 76.258-227.685 59.788-107.495-16.47 44.639-51.521-84.851-172.732C373.355 727.536 539.731 621.392 633.663 650.915z" class="color1c3156 svgShape"></path><path fill="#97cbff" d="M1049.289,931.66l137.634,28.77l317.212-1.846l-2.3,70.344c0,0-302.723,40.811-314.606,43.296
			c-51.355,10.736-148.407-7.017-148.407-7.017L1049.289,931.66z" class="colorff97a6 svgShape"></path><path fill="#89bef4" d="M1186.922,960.43c2.51,8.679,17.244,40.393,11.37,39.851c-5.875-0.543-12.261-20.096-12.261-20.096
			s-13.281,40.521-16.575,28.164C1166.162,995.99,1186.922,960.43,1186.922,960.43z" class="colorf4899e svgShape"></path><path fill="#89bef4" d="M1281.101,1058.882c-49.966,6.921-89.716,12.462-93.877,13.367c-51.316,10.72-148.409-7.041-148.409-7.041
			l10.499-133.557l89.845,18.787c-1.587,17.799-1.412,49.766-0.828,59.844C1138.929,1020.851,1235.544,1047.106,1281.101,1058.882z" class="colorf4899e svgShape"></path><path fill="#97cbff" d="M1579.516,904.039c4.506,3.052,4.532,7.96,0.571,13.067c-8.435,10.88-17.92,20.845-27.179,31.622
				c27.013-2.091,56.137-3.777,83.149-5.869c0.97,3.384-0.974,6.628-3.236,8.438c-2.262,1.81-5.059,2.794-7.809,3.702
				c-10.783,3.556-21.79,6.43-32.935,8.599c18.96,0.971,32.591,1.221,50.369,2.872c0.209,2.738-1.408,6.469-3.764,7.88
				c-2.356,1.412-7.374,2.289-10.08,2.757c-12.298,2.12-22.353,3.854-34.649,5.973c13.102,1.564,26.634,4.592,39.736,6.156
				c0.648,2.025-1.027,5.414-2.716,6.705c-1.69,1.291-3.802,1.947-5.903,2.272c-10.672,1.647-24.836,2.366-33.413,3.338
				c8.682,1.921,17.479,4.818,26.161,6.739c-0.707,8.342-10.993,5.098-17.683,6.096c-27.771,4.14-56.902,8.607-84.673,12.747
				c0,0-20.974,3.07-36.975,4.053c-0.06-0.898-7.689-63.733-8.722-68.983c7.688-0.932,23.878-3.213,23.878-3.213
				C1514.236,928.578,1533.605,930.756,1579.516,904.039z" class="colorff97a6 svgShape"></path><path fill="#89bef4" d="M1584.349 963.759c.031.674 3.181 1.073 7.036.893 3.854-.181 6.953-.873 6.922-1.547-.031-.674-3.182-1.073-7.036-.893C1587.416 962.393 1584.317 963.085 1584.349 963.759zM1584.117 983.686c.031.673 3.182 1.073 7.036.893 3.854-.181 6.953-.873 6.922-1.547-.032-.674-3.182-1.073-7.036-.893C1587.185 982.319 1584.086 983.012 1584.117 983.686zM1582.343 1002.288c.032.673 3.182 1.073 7.037.893 3.854-.181 6.953-.873 6.922-1.547-.031-.674-3.181-1.073-7.036-.893C1585.411 1000.922 1582.312 1001.614 1582.343 1002.288zM1570.709 1002.67c.673-.042.702-8.347.064-18.55-.637-10.203-1.7-18.439-2.373-18.397-.674.042-.702 8.347-.064 18.55C1568.973 994.475 1570.035 1002.712 1570.709 1002.67zM1526.806 977.778c.01.168.654.248 1.833.245 1.171-.05 2.914.056 4.971-.522 4.145-.731 9.915-3.365 14.108-8.541 4.267-5.102 5.888-11.004 6.615-15.101.646-4.179.351-6.806.02-6.804-.342-.007-.664 2.521-1.708 6.44-1.121 3.851-2.917 9.279-6.812 13.912-3.816 4.7-8.841 7.303-12.671 8.426-1.875.76-3.525.909-4.629 1.245C1527.42 977.368 1526.797 977.61 1526.806 977.778zM1494.619 963.525c-.164-.042-.476.665-.904 1.993-.427 1.327-1.026 3.265-1.387 5.737-.898 4.905-1.283 11.896-.222 19.467 2.008 15.27 8.655 26.146 9.204 25.731.611-.274-4.854-11.294-6.784-26.06C1492.315 975.633 1495.434 963.682 1494.619 963.525z" class="colorf4899e svgShape"></path><linearGradient id="a" x1="813.094" x2="1179.344" y1="577.393" y2="1383.14" gradientUnits="userSpaceOnUse"><stop offset="0" stop-color="#72a4d6" class="stopColord6d672 svgShape"></stop><stop offset="1" stop-color="#357fc9" class="stopColor357fc9 svgShape"></stop></linearGradient><path fill="url(#a)" d="M926.628,866.322c0,0,80.658,56.703,161.173,60.891c3.039,0.158-0.304,153.907-6.764,166.588
		c-6.459,12.681-169.795-50.195-169.795-50.195s-51.229-92.802-43.644-120.581C875.184,895.246,926.628,866.322,926.628,866.322z"></path><path fill="#324075" d="M1081.06,1093.815c-4.41,8.568-81.078-17.639-129.901-35.342l-21.86-111.443
		c0,0,32.192,35.657,48.571,44.413c13.418,7.119,58.903-48.76,74.904-69.109c11.592,2.52,23.309,4.221,35.027,4.851
		C1090.825,927.375,1087.486,1081.089,1081.06,1093.815z" opacity=".2" class="color324a75 svgShape"></path><linearGradient id="b" x1="507.42" x2="875.957" y1="712.344" y2="1523.124" gradientUnits="userSpaceOnUse"><stop offset="0" stop-color="#72a4d6" class="stopColord6d672 svgShape"></stop><stop offset="1" stop-color="#357fc9" class="stopColor357fc9 svgShape"></stop></linearGradient><path fill="url(#b)" d="M928.4,867.728
		c-24.295-21.747-183.169-42.456-219.058,2.949c-169.722,214.721-210.491,564.854-172.407,677.358
		c2.725,8.05,118.544,34.91,174.758-0.275c104.629-65.489,120.157-132.073,241.507-143.854
		c148.775-14.443-0.925-94.698,5.613-241.235c32.601-39.598,28.646-96.013,19.071-122.888c-6.86-19.255-26.855-35.564-33.774-67.156
		C928.563,901.654,928.415,867.717,928.4,867.728z"></path><path fill="#324075" d="M758.999,847.306c0,0-25.096,31.245,59.247,75.028
		c84.342,43.784,59.301,32.201,59.301,32.201s27.188-74.293,2.018-103.881C879.564,850.655,798.084,833.366,758.999,847.306z" opacity=".2" class="color324a75 svgShape"></path><path fill="#324075" d="M936.905,936.684c0,0,5.585,48.333,11.621,63.925c6.035,15.592,40.526,40.633,34.384,83.157
		c0,0,11.048-21.191,1.126-46.232c-9.922-25.042-27.585-39.399-27.585-39.399L936.905,936.684z" class="color324a75 svgShape"></path><path fill="#324075" d="M958.782,1162.671c32.633-39.626,28.664-96.009,19.088-122.909
		c-1.197-3.276-2.772-6.489-4.599-9.765c-21.104,20.411-47.374,44.792-49.894,41.642c-4.284-5.355-94.515-162.707-204.743-104.009
		c-81.464,83.209-108.545,379.31-129.775,447.347c-15.182,48.571-41.201,55.438-63.565,67.156
		c1.953,26.522,5.922,48.886,11.655,65.896c2.709,8.064,118.562,34.901,174.756-0.252
		c104.639-65.518,120.137-132.106,241.471-143.887C1101.976,1389.463,952.293,1309.204,958.782,1162.671z M992.674,1357.083
		c-11.906,11.844-132.673,10.395-186.032,57.895c-53.359,47.5-121.397,98.529-109.364,77.235
		c12.032-21.23,92.292-71.565,45.421-63.754c-46.807,7.812-57.643,42.523-51.532,23.372c6.111-19.151,86.181-97.395,67.093-94.749
		c-19.151,2.583-57.895,53.611-68.668,37.358c-10.71-16.316,16.505-193.529,34.46-172.929
		c41.578,47.689,44.099,123.665,87.315,135.571c43.28,11.844,66.652-10.143,109.868-3.087
		C964.451,1361.114,1004.581,1345.176,992.674,1357.083z" opacity=".2" class="color324a75 svgShape"></path><path fill="#324075" d="M659.731,1549.839c0,0-48.801-161.115,20.958-434.511C680.689,1115.328,637.052,1425.173,659.731,1549.839" class="color324a75 svgShape"></path><g fill="#000000" class="color000000 svgShape"><path fill="#72a4d6" d="M1199.257,2448.225c-2.792-2.656-7.937,44.739-10.186,58.841c-4.619,28.96-10.424,78.264-11.188,88.239
				c1.841,0.976,18.411,1.492,38.106,4.711c3.796-9.401,6.533-22.867,8.142-30.222c31.677,4.878,48.514,29.465,84.85,41.717
				c41.345,6.603,89.846,13.851,96.265,11.899c19.363-5.888-82.487-76.792-100.825-112.013
				c-8.817-16.927-16.945-71.247-21.556-74.923c-4.61-3.676-9.361,20.929-9.361,20.929S1219.718,2467.696,1199.257,2448.225z" class="colord6d672 svgShape"></path><path fill="#5086bc" d="M1407.691,2620.461c0.011,1.425-0.733,2.41-2.43,2.926c-6.439,1.978-54.968-5.265-96.26-11.865
				c-36.39-12.247-53.207-36.834-84.895-41.73c-1.608,7.378-4.312,20.847-8.091,30.238c-19.709-3.208-36.318-3.758-38.15-4.752
				c0.8-9.929,6.591-59.265,11.185-88.213c2.243-14.074,7.439-61.523,10.198-58.845c2.948,2.772,6.519,4.951,10.57,6.584
				c-4.222,27.71-10.623,78.047-1.76,85.215c12.422,9.954,52.884,3.625,68.934,20.852
				C1291.911,2576.928,1347.955,2616.858,1407.691,2620.461z" class="colorbcb750 svgShape"></path><path fill="#ddecfb" d="M1304.435 2538.946c-2.048-7.891 15.067-15.138 17.745-12.677C1324.859 2528.728 1306.457 2546.726 1304.435 2538.946zM1318.951 2553.379c-2.051-7.89 15.063-15.135 17.743-12.677C1339.372 2543.163 1320.97 2561.159 1318.951 2553.379zM1334.76 2567.055c-2.051-7.888 15.06-15.133 17.741-12.675C1355.181 2556.839 1336.782 2574.838 1334.76 2567.055z" class="colorddf3fb svgShape"></path></g><g fill="#000000" class="color000000 svgShape"><path fill="#72a4d6" d="M1588.858,1812.458c-3.85-0.162,23.482,38.899,31.074,50.995c15.59,24.839,43.681,65.77,49.674,73.782
				c2.029-0.478,14.84-10.998,31.783-21.542c-3.332-9.576-10.138-21.512-13.769-28.108c27.054-17.185,55.915-9.763,91.331-24.465
				c35.466-22.251,76.745-48.728,80.291-54.423c10.697-17.18-112.644-3.491-149.637-17.928
				c-17.781-6.937-49.879-49.101-55.769-48.833c-5.89,0.268-3.052,28.548-3.052,28.548S1617.078,1813.641,1588.858,1812.458z" class="colord6d672 svgShape"></path><path fill="#5086bc" d="M1859.141,1804.866c0.946,1.066,1.035,2.297,0.098,3.803c-3.545,5.728-44.84,32.227-80.266,54.444
				c-35.453,14.741-64.299,7.306-91.373,24.485c3.647,6.612,10.48,18.53,13.818,28.086c-16.946,10.562-29.811,21.082-31.844,21.541
				c-5.934-8-34.058-48.947-49.659-73.76c-7.578-12.07-34.906-51.206-31.067-51.005c4.044,0.146,8.166-0.566,12.292-2.004
				c15.066,23.637,43.389,65.74,54.78,65.298c15.903-0.686,42.192-32.089,65.614-29.69
				C1743.333,1848.328,1811.806,1841.484,1859.141,1804.866z" class="colorbcb750 svgShape"></path><path fill="#ddecfb" d="M1727.754 1811.494c-6.737-4.591 1.373-21.313 5.01-21.225C1736.399 1790.356 1734.398 1816.019 1727.754 1811.494zM1748.182 1812.8c-6.739-4.589 1.373-21.31 5.008-21.223C1756.826 1791.666 1754.824 1817.327 1748.182 1812.8zM1769.085 1812.685c-6.737-4.587 1.372-21.305 5.01-21.22C1777.729 1791.551 1775.731 1817.212 1769.085 1812.685z" class="colorddf3fb svgShape"></path></g><g fill="#000000" class="color000000 svgShape"><path fill="#97cbff" d="M834.794,1018.091c-3.517-9.393,84.15,161.311,94.252,186.423c4.696,11.67-64.085,129.99-115.926,75.677
				c-31.035-32.514-105.906-198.59-105.906-198.59L834.794,1018.091z" class="colorff97a6 svgShape"></path><linearGradient id="c" x1="598.694" x2="974.098" y1="666.668" y2="1492.554" gradientUnits="userSpaceOnUse"><stop offset="0" stop-color="#72a4d6" class="stopColord6d672 svgShape"></stop><stop offset="1" stop-color="#357fc9" class="stopColor357fc9 svgShape"></stop></linearGradient><path fill="url(#c)" d="M893.983,1080.743
				c7.618,47.51-126.95,92.899-162.862,94.73c-35.91,1.833-62.424-175.691-35.103-257.921
				C728.053,821.134,882.799,1010.999,893.983,1080.743z"></path><path fill="#324075" d="M731.12,1175.477c-17.047,0.824-31.958-38.636-39.95-89.129
				c17.254,23.614,42.228,50.413,67.348,51.303c43.273,1.632,115.821-15.497,135.536-56.051
				C899.95,1129.049,766.845,1173.7,731.12,1175.477z" opacity=".2" class="color324a75 svgShape"></path><path fill="#324075" d="M680.689 998.135c0 0 21.742 162.671 41.431 171.351 19.689 8.682 59.939-9.552 59.939-9.552s-30.956 19.318-61.321 22.638C690.371 1185.89 680.689 998.135 680.689 998.135zM796.717 931.66c0 0 83.361 120.314 91.671 129.493C888.387 1061.153 855.235 971.462 796.717 931.66z" class="color324a75 svgShape"></path><path fill="#f7f9fc" d="M774.814 961.31c-4.561-29.647 60.24 46.534 55.875 74.797C826.325 1064.369 777.231 977.002 774.814 961.31zM834.501 1044.412c3.331-3.257 12.066-11.506 15.503 7.295 3.436 18.8-26.507 57.786-34.113 40.543C808.284 1075.007 828.249 1050.52 834.501 1044.412z" opacity=".2" class="colorf7f9fc svgShape"></path><g fill="#000000" class="color000000 svgShape"><path fill="#97cbff" d="M1141.172,969.535c0,0-172.074,348.373-231.97,350.473c-59.896,2.1-75.274-11.98-108.479-55.623
				c-17.716-23.237,143.041-176.844,143.041-176.844l129.112-160.33L1141.172,969.535z" class="colorff97a6 svgShape"></path><path fill="#324075" d="M1177.8,932.914l-37.776,26.846c-11.199,4.058-21.659,0.396-23.512-8.249
							c-4.454-20.665-34.025-75.834-38.897-97.514c-1.385-6.169,1.953-13.165,7.904-18.288l8.453-2.454
							c7.732-2.237,15.079-0.854,19.039,3.612l70.68,72.097C1189.51,915.508,1186.26,926.002,1177.8,932.914z" class="color324a75 svgShape"></path><path fill="#324075" d="M1046.634,778.318c-16.57,8.492-23.096,29.668-16.066,48.068l0,0
							c7.037,18.397,26.032,29.824,44.036,25.09l38.107-10.004l-31.02-81.118L1046.634,778.318z" class="color324a75 svgShape"></path><path fill="#72a4d6" d="M1274.307,608.094l-201.249,147.442l-14.976,10.969c-4.977,3.651-13.614,30.533-4.722,53.874
							c11.433,30.011,31.806,33.892,37.858,33.407l18.695-1.502l250.088-20.062L1274.307,608.094z" class="colord6d672 svgShape"></path><path fill="#a6c4e2" d="M1360.026,832.237l-250.127,20.058l-18.688,1.47c-5.195,0.419-21.323-2.391-32.921-22.815
							c70.539-15.63,206.985-92.874,255.029-120.926L1360.026,832.237z" opacity=".5" class="colore2e0a6 svgShape"></path><path fill="#a6c4e2" d="M1379.878,696.182c23.664,61.89,14.762,122.797-19.874,136.042
						c-30.152,11.527-69.858-16.831-95.241-65.18c-3.797-7.209-7.264-14.864-10.336-22.893c-4.046-10.588-7.138-21.136-9.308-31.435
						c-10.562-49.899,0.462-93.636,29.187-104.622C1308.943,594.853,1356.21,634.283,1379.878,696.182z" class="colore2e0a6 svgShape"></path><path fill="#5086bc" d="M1245.118,712.705c2.151,10.323,5.288,20.879,9.295,31.433c3.078,8.061,6.561,15.715,10.335,22.907
							c20.144,38.388,49.331,64.127,75.607,67.364c-16.655-18.148-33.197-43.255-47.479-72.946
							c-4.993-10.379-9.696-21.34-14.11-32.765c-5.749-15.079-10.454-29.924-14.173-44.307c-5.635-21.46-8.951-41.817-10.061-60.029
							C1241.143,643.915,1237.504,676.689,1245.118,712.705z" class="colorbcb750 svgShape"></path><path fill="#324075" d="M1316.627,716.286c5.696,14.904-1.758,31.592-16.656,37.293l-35.208,13.464
						c-3.797-7.209-7.264-14.864-10.336-22.893c-4.046-10.588-7.138-21.136-9.308-31.435l34.226-13.086
						c7.445-2.843,15.354-2.405,22.094,0.609C1308.184,703.255,1313.775,708.845,1316.627,716.286z" class="color324a75 svgShape"></path><path fill="#97cbff" d="M1181.933,822.114c0.108,5.498,1.276,7.288-7.774,13.292l-9.138,4.198c0,0,6.373,12.492,5.911,17.033
					c-0.47,4.488-5.189,10.219-5.189,10.219l7.707-3.089c0,0,10.402,20.668,6.93,24.371c-2.897,3.132-5.063,3.651-5.653,3.733
					c1.186-0.11,6.259-0.541,7.91,1.523c1.659,2.117,4.829,14.345,1.912,20.482c-11.762,7.309-24.221,13.132-24.221,13.132
					c4.642,39.375-10.403,31.866-22.015,45.378c-2.827,3.231-71.294-27.305-71.294-27.305s2.982-37.539,10.694-56.736
					c10.3-25.723,29.746-43.762,38.378-50.801c14.611-11.963,60.852-27.407,60.852-27.407S1181.888,818.244,1181.933,822.114z" class="colorff97a6 svgShape"></path><path fill="#89bef4" d="M1139.049 854.159c.232.302 2.467-1.077 6.163-3.113 3.702-2.031 8.868-4.734 14.7-7.504 11.651-5.564 21.335-9.644 21.097-10.296-.225-.639-10.38 2.426-22.171 8.055-5.895 2.801-11.026 5.8-14.554 8.253C1140.756 852.016 1138.86 853.92 1139.049 854.159zM1150.466 874.795c.237.273 1.502-.335 3.546-1.302 2.262-1.039 5.013-2.304 8.054-3.701 6.324-2.856 11.069-5.743 10.677-6.301-.382-.546-5.78 1.456-12.147 4.33-3.185 1.434-5.891 2.977-7.679 4.307C1151.129 873.459 1150.253 874.55 1150.466 874.795zM1153.993 900.337c.276.629 5.886-1.229 12.531-4.147 6.645-2.919 11.808-5.794 11.532-6.422-.276-.629-5.886 1.229-12.531 4.146C1158.881 896.834 1153.717 899.709 1153.993 900.337zM832.232 1299.167c27.068 31.964 55.236 28.085 82.167 22.732 43.993-8.745 147.031-189.255 198.436-291.241-58.706 80.105-144.531 203.516-180.107 235.888C905.586 1291.298 867.185 1296.86 832.232 1299.167zM860.746 1176.212c-.442.807 88.752-80.696 87.771-94.572C948.392 1079.868 881.212 1138.874 860.746 1176.212z" class="colorf4899e svgShape"></path></g></g><g fill="#000000" class="color000000 svgShape"><path fill="#97cbff" d="M758.999,847.306c-3.298,49.027,110.7,87.053,110.7,87.053s21.656-26.554,9.865-83.705
				C867.124,847.492,816.714,832.201,758.999,847.306z" class="colorff97a6 svgShape"></path><path fill="#97cbff" d="M894.461,766.322c0,0-24.266,9.061-27.139,65.603c-2.456,48.324-36.743,57.739-36.743,57.739
				s-71.651-11.9-61.89-44.535c16.638-55.632,53.037-170.965,53.037-170.965L894.461,766.322z" class="colorff97a6 svgShape"></path><path fill="#89bef4" d="M866.206,842.55c-66.317-22.249-42.782-92.034-42.782-92.034l50.788,42.939
				c-3.381,9.341-6.057,21.847-6.869,38.461C867.144,835.734,866.749,839.253,866.206,842.55z" class="colorf4899e svgShape"></path><path fill="#97cbff" d="M800.33,746.638c10.015,32.029,77.966,77.385,118.688,64.309
				c34.761-11.173,24.498-117.694,20.691-148.897c-19.616-3.725-38.901-14.732-44.197-23.257
				c-55.041,41.797-87.898,37.658-98.741,27.312C789.984,688.866,791.308,718,800.33,746.638z" class="colorff97a6 svgShape"></path><path fill="#f7f9fc" d="M885.296,762.218c0,7.456,5.472,13.501,12.221,13.501c6.75,0,12.221-6.045,12.221-13.501
				c0-7.457-5.472-13.502-12.221-13.502C890.768,748.716,885.296,754.761,885.296,762.218z" class="colorf7f9fc svgShape"></path><g fill="#000000" class="color000000 svgShape"><path fill="#89bef4" d="M896.818,790.605c0.815-1.565,1.137-3.207,0.898-4.967c-0.217-1.59-0.939-3.174-2.007-4.374
										c-2.306-2.582-6.005-3.13-9.111-1.75c-1.776,0.788-3.13,2.175-3.971,3.91c-0.423,0.867,0.214,2.078,1.099,2.359
										c1.029,0.327,1.908-0.17,2.359-1.099c0.137-0.294-0.192,0.291,0.052-0.09c0.074-0.107,0.14-0.214,0.211-0.321
										c0.088-0.121,0.182-0.234,0.272-0.352c0.035-0.042,0.187-0.182,0.011-0.014c-0.187,0.178,0.025-0.022,0.063-0.058
										c0.201-0.186,0.404-0.373,0.63-0.538c0.049-0.038,0.104-0.071,0.154-0.113c0.189-0.162-0.299,0.165-0.08,0.05
										c0.135-0.069,0.258-0.151,0.39-0.222c0.248-0.129,0.503-0.236,0.761-0.343c0.401-0.165-0.248,0.052,0.077-0.028
										c0.148-0.035,0.291-0.077,0.437-0.11c0.274-0.058,0.546-0.088,0.823-0.121c0.335-0.041-0.39-0.014,0.083,0
										c0.145,0.003,0.297,0.006,0.445,0.02c0.146,0.011,0.294,0.027,0.442,0.052c0.088,0.011,0.434,0.129,0.203,0.033
										c-0.236-0.099,0.171,0.055,0.258,0.088c0.143,0.047,0.28,0.099,0.418,0.159c0.079,0.033,0.154,0.071,0.233,0.105
										c0.198,0.079-0.14-0.066-0.134-0.066c0.077-0.008,0.269,0.159,0.33,0.2c0.123,0.083,0.244,0.171,0.36,0.258
										c0.052,0.041,0.101,0.083,0.148,0.121c0.208,0.168,0-0.047-0.066-0.058c0.159,0.028,0.453,0.483,0.555,0.612
										c0.065,0.08,0.241,0.253,0.266,0.36c0,0.008-0.185-0.321-0.091-0.129c0.039,0.077,0.088,0.145,0.129,0.22
										c0.134,0.244,0.255,0.494,0.36,0.752c0.038,0.099,0.137,0.511,0.093,0.25c-0.044-0.272,0.044,0.178,0.063,0.261
										c0.079,0.332,0.124,0.67,0.159,1.013c0.008,0.088-0.038,0.22,0,0.006c0.049-0.25-0.003,0-0.006,0.074
										c-0.008,0.17-0.011,0.34-0.028,0.51c-0.013,0.146-0.041,0.292-0.057,0.442c-0.02,0.165,0.049,0.192,0.025-0.093
										c0.008,0.069-0.041,0.181-0.063,0.247c-0.041,0.141-0.088,0.283-0.14,0.42c-0.038,0.107-0.308,0.67-0.074,0.226
										c-0.236,0.453-0.396,0.851-0.299,1.375c0.083,0.442,0.374,0.939,0.76,1.184
										C895.011,791.543,896.343,791.516,896.818,790.605L896.818,790.605z" class="colorf4899e svgShape"></path><path fill="#021b79" d="M893.35,714.882c-4.583,1.499,8.605,18.831-0.275,20.009c-8.875,1.175,5.267,5.382,7.419-1.505
				C902.651,726.5,897.419,713.553,893.35,714.882z" class="color1c3156 svgShape"></path></g><g fill="#000000" class="color000000 svgShape"><path fill="#021b79" d="M914.32 704.099c.461 5.983 3.454 10.629 6.683 10.376 3.226-.249 5.469-5.302 5.003-11.285-.464-5.983-3.457-10.629-6.684-10.379C916.091 693.061 913.853 698.113 914.32 704.099zM929.45 682.423c.598.316 1.046-6.865-2.656-7.359-3.701-.491-13.727-.97-14.618 1.436-.893 2.403-1.722 5.582.42 5.415C914.74 681.751 923.832 679.488 929.45 682.423z" class="color1c3156 svgShape"></path><path fill="#f7f9fc" d="M920.323,701.595c0.159,2.023,1.647,3.559,3.328,3.427c1.681-0.132,2.916-1.875,2.76-3.9
					c-0.157-2.023-1.647-3.559-3.328-3.426C921.402,697.825,920.166,699.571,920.323,701.595z" class="colorf7f9fc svgShape"></path><g fill="#000000" class="color000000 svgShape"><path fill="#021b79" d="M848.065 707.666c-.036 5.708 2.941 10.36 6.651 10.382 3.709.022 6.744-4.588 6.779-10.297.036-5.711-2.943-10.36-6.65-10.382C851.135 697.345 848.101 701.957 848.065 707.666zM859.411 680.619c0 0 1.304 4.405.442 5.706-.862 1.304-5.857-.038-10.931 3.319-5.069 3.358-9.561 5.925-9.561 5.925s-4.673-4.745-1.532-8.941C840.973 682.434 858.684 676.649 859.411 680.619z" class="color1c3156 svgShape"></path><path fill="#f7f9fc" d="M855.515,705.049c0.148,1.925,1.829,3.363,3.753,3.215c1.928-0.148,3.367-1.831,3.219-3.757
					c-0.151-1.924-1.831-3.363-3.757-3.215C856.806,701.441,855.364,703.125,855.515,705.049z" class="colorf7f9fc svgShape"></path></g></g><g fill="#000000" class="color000000 svgShape"><path fill="#97cbff" d="M806.606,723.96c-28.214,15.121-44.554-48.911-19.177-57.753c7.326-2.554,21.497-2.785,24.068,11.661
				C814.27,693.451,812.784,720.649,806.606,723.96z" class="colorff97a6 svgShape"></path><path fill="#021b79" d="M793.162,678.22c5.478,4.94,14.957,20.984,6.997,31.912c0,0,0.684-7.732-3.045-12.777l-9.95-5.58
				l10.39,0.107L793.162,678.22z" class="color1c3156 svgShape"></path></g></g><path fill="#324075" d="M659.731,1549.839" class="color324a75 svgShape"></path><g fill="#000000" class="color000000 svgShape"><path fill="#e4ecf4" d="M1379.836 1079.992c.994.821-.307 2.666-3.668 5.371-.839.676-1.807 1.405-2.898 2.184-1.123.748-2.374 1.54-3.744 2.378-2.74 1.675-5.946 3.55-9.721 5.405-1.872.947-3.855 1.927-5.941 2.937-2.124.955-4.355 1.935-6.683 2.94-1.169.5-2.356 1.007-3.563 1.523-1.217.503-2.48.973-3.752 1.469-2.553.979-5.191 1.984-7.918 2.985-10.977 3.86-23.439 7.529-36.686 10.534-13.248 3.042-25.977 4.938-37.375 6.174-2.849.28-5.621.536-8.304.768-2.677.196-5.258.311-7.748.437-4.99.292-9.537.246-13.656.213-1.025-.017-2.027-.033-3.002-.05-.96-.054-1.896-.105-2.805-.156-1.812-.111-3.506-.238-5.076-.379-3.151-.25-5.754-.686-7.82-1.146-4.136-.915-6.093-1.986-5.554-3.173.539-1.187 3.506-2.381 8.276-3.518 2.384-.566 5.215-1.101 8.482-1.754 1.627-.31 3.351-.617 5.164-.921.904-.147 1.833-.297 2.786-.452.954-.171 1.933-.346 2.936-.527 4.002-.715 8.314-1.331 12.95-2.183 2.303-.386 4.685-.786 7.138-1.198 2.451-.459 4.966-.914 7.536-1.362 10.279-1.916 21.505-4.012 33.195-6.704 11.691-2.655 22.743-5.465 32.825-8.178 2.509-.709 4.956-1.4 7.335-2.073 1.193-.336 2.385-.644 3.539-.98 1.152-.344 2.286-.682 3.4-1.014 2.238-.659 4.417-1.284 6.53-1.875 2.069-.645 4.076-1.252 6.012-1.821 3.905-1.101 7.388-2.196 10.557-3.089 1.585-.445 3.088-.844 4.494-1.199 1.374-.384 2.659-.718 3.844-.999C1375.662 1079.441 1378.841 1079.172 1379.836 1079.992zM1311.13 1129.19c.435.589-.649 1.693-3.084 3.221-.608.382-1.3.79-2.073 1.223-.786.411-1.654.842-2.6 1.295-1.892.906-4.09 1.911-6.617 2.868-1.257.491-2.585.998-3.979 1.518-1.406.481-2.878.972-4.411 1.474-.769.248-1.55.501-2.345.757-.798.248-1.616.471-2.445.711-1.659.471-3.374.953-5.139 1.426-7.075 1.798-14.981 3.382-23.228 4.49-8.253 1.133-16.002 1.562-22.86 1.649-1.709.003-3.369-.004-4.972-.021-1.594-.04-3.118-.126-4.59-.2-2.958-.122-5.599-.432-7.992-.709-.594-.075-1.175-.147-1.74-.218-.55-.094-1.086-.185-1.606-.274-1.036-.184-2.001-.37-2.89-.558-1.792-.355-3.23-.797-4.353-1.22-2.248-.844-3.198-1.652-2.675-2.381.524-.729 2.463-1.312 5.441-1.746 1.489-.215 3.232-.384 5.25-.601 1.003-.099 2.061-.189 3.171-.271.553-.038 1.12-.078 1.702-.118.586-.05 1.188-.103 1.804-.156 2.457-.211 5.078-.34 7.928-.599 1.41-.105 2.868-.214 4.37-.327 1.509-.142 3.054-.278 4.63-.408 6.326-.593 13.234-1.244 20.519-2.247 7.278-.981 14.212-2.1 20.563-3.217 1.586-.3 3.134-.592 4.638-.876.754-.142 1.503-.266 2.234-.411.732-.149 1.452-.295 2.16-.44 1.42-.285 2.8-.551 4.135-.8 1.319-.285 2.595-.552 3.823-.797 2.469-.465 4.691-.953 6.695-1.329 1.002-.188 1.947-.351 2.828-.491.868-.161 1.676-.296 2.416-.403C1308.797 1128.577 1310.696 1128.601 1311.13 1129.19z" class="colore4e9f4 svgShape"></path></g></g><g fill="#000000" class="color000000 svgShape"><path fill="#72a4d6" d="M1841.479,338.766c38.852,0.584,69.874,32.55,69.289,71.404c-0.582,38.85-32.55,69.872-71.402,69.29
			c-38.852-0.584-69.875-32.552-69.291-71.403C1770.658,369.205,1802.626,338.182,1841.479,338.766z" class="colord6d672 svgShape"></path><path fill="#5086bc" d="M1863.898 415.833c.006 7.094 5.761 12.838 12.854 12.831 7.092-.007 12.838-5.762 12.831-12.855-.006-7.094-5.763-12.837-12.855-12.831C1869.635 402.985 1863.892 408.739 1863.898 415.833zM1792.242 415.899c.006 7.094 5.761 12.838 12.854 12.831 7.091-.007 12.838-5.762 12.831-12.855-.007-7.094-5.763-12.837-12.855-12.831C1797.978 403.051 1792.235 408.805 1792.242 415.899z" class="colorbcb750 svgShape"></path><path fill="#324075" d="M1872.884 410.262c-.519-.545-1.222-.849-1.971-.862-.779-.003-1.472.258-2.012.781-.544.519-.853 1.223-.873 1.975-.143 6.785-2.925 13.111-7.835 17.818-4.914 4.704-11.367 7.226-18.133 7.073-6.785-.143-13.111-2.925-17.822-7.834-4.708-4.914-7.221-11.352-7.074-18.141.026-1.551-1.211-2.839-2.76-2.873-.74-.018-1.464.258-2.012.781-.545.523-.853 1.227-.87 1.979-.173 8.285 2.897 16.154 8.647 22.152 5.75 6.002 13.48 9.402 21.766 9.575 1.15.025 2.288-.011 3.416-.11 7.013-.612 13.573-3.58 18.74-8.534 6.002-5.75 9.401-13.484 9.574-21.769C1873.686 411.521 1873.407 410.806 1872.884 410.262zM1862.245 389.95c1.76-1.819 4.12-2.838 6.648-2.88 2.332-.008 4.918.908 6.735 2.671 1.816 1.759 2.843 4.124 2.879 6.649l-.119 1.089-1.385 1.241-.766.011-1.091-.119-1.232-1.388-.014-.761c-.041-2.655-2.218-4.787-4.866-4.785-.021 0-.048 0-.072 0-1.291.02-2.506.546-3.411 1.48-.906.932-1.389 2.16-1.371 3.457l-.119 1.093-1.385 1.236-.767.012c-.011 0-.021 0-.032 0-1.257.001-2.288-1.01-2.307-2.27C1859.532 394.163 1860.482 391.77 1862.245 389.95zM1809.32 389.999c1.759-1.819 4.124-2.839 6.651-2.88 2.331-.008 4.918.908 6.734 2.671 1.817 1.76 2.842 4.124 2.88 6.649l-.117 1.089-1.387 1.242-.767.01-1.09-.119-1.234-1.389-.012-.762c-.042-2.655-2.219-4.787-4.867-4.784-.02 0-.047 0-.071 0-1.293.021-2.507.546-3.41 1.481-.905.932-1.391 2.16-1.373 3.456l-.116 1.093-1.386 1.236-.766.012c-.012 0-.023 0-.034 0-1.258.002-2.289-1.01-2.307-2.27C1806.609 394.211 1807.558 391.819 1809.32 389.999z" class="color324a75 svgShape"></path><g fill="#000000" class="color000000 svgShape"><path fill="#5f7ef2" d="M1564.203,403.715l7.766,107.895c1.111,15.43-10.488,28.828-25.918,29.938l-51.044,3.674l-12.99,34.233
				l-16.542-32.107l-52.261,3.762c-15.485,1.114-28.883-10.484-29.993-25.914l-7.766-107.895
				c-1.111-15.43,10.484-28.883,25.968-29.997l132.836-9.562C1549.69,376.632,1563.092,388.286,1564.203,403.715z" class="colorf25f74 svgShape"></path><path fill="#a6c4e2" d="M1520.87,435.689c-3.95-39.369-37.63-13.387-49.396-0.276c-13.447-10.995-52.305-29.284-48.354,10.085
					c0,0,3.594,52.804,55.986,65.966C1527.505,484.839,1520.87,435.689,1520.87,435.689z" class="colore2e0a6 svgShape"></path><path fill="#72a4d6" d="M1705.955,432.824l-9.537,63.636c-1.364,9.1-9.84,15.367-18.94,14.003l-30.106-4.511l-11.995,18.179
				l-5.422-20.789l-30.823-4.619c-9.133-1.369-15.399-9.845-14.035-18.945l9.536-63.636c1.364-9.1,9.845-15.4,18.978-14.031
				l78.346,11.741C1701.057,415.215,1707.318,423.724,1705.955,432.824z" class="colord6d672 svgShape"></path><path fill="#a6c4e2" d="M1676.641,445.742c2.832-23.365-20.099-12.668-28.635-6.59c-6.374-8.132-26.547-23.806-29.379-0.441
					c0,0-4.788,31.116,23.909,45.576C1674.095,475.133,1676.641,445.742,1676.641,445.742z" class="colore2e0a6 svgShape"></path><g fill="#000000" class="color000000 svgShape"><path fill="#5086bc" d="M1690.986,593.419l-49.86,111.268c-7.13,15.912-25.795,23.025-41.707,15.895l-52.64-23.589
				l-31.163,27.057l0.709-40.704l-53.895-24.151c-15.969-7.156-23.082-25.82-15.952-41.732l49.86-111.268
				c7.13-15.912,25.821-23.082,41.789-15.926l136.989,61.386C1691.029,558.786,1698.117,577.508,1690.986,593.419z" class="colorbcb750 svgShape"></path><path fill="#a6c4e2" d="M1630.903,602.044c17.085-41.196-30.218-33.371-48.895-26.631c-7.485-18.091-36.306-56.984-53.39-15.788
					c0,0-24.607,54.344,20.388,95.368C1611.265,654.382,1630.903,602.044,1630.903,602.044z" class="colore2e0a6 svgShape"></path></g></g><g fill="#000000" class="color000000 svgShape"><path fill="#5086bc" d="M1762.279,575.216c0,0,161.088-68.515,166.634-58.474c5.547,10.042-27.572,114.468-49.969,111.278
			C1856.546,624.831,1762.279,575.216,1762.279,575.216z" class="colorbcb750 svgShape"></path><path fill="#72a4d6" d="M1762.279,575.216c3.189,10.278,12.261,97.599,36.962,104.581c24.701,6.982,171.525-31.824,170.852-48.515
			c-0.673-16.692-38.734-117.552-41.18-114.539c-2.445,3.012-51.67,94.906-56.738,93.098S1762.279,575.216,1762.279,575.216z" class="colord6d672 svgShape"></path></g><path fill="#e4ecf4" d="M1320.2 672.753c4.94 6.133 116.709-65.69 108.155-71.395C1419.8 595.653 1315.627 667.075 1320.2 672.753zM1350.5 799.117c-6.66 4.825 269.313-44.874 263.913-57.854S1356.8 794.553 1350.5 799.117zM1706.9 560.347c0 0 113.49-46.946 110.7-55.405C1813.1 491.297 1698.8 553.841 1706.9 560.347z" class="colore4e9f4 svgShape"></path></g></svg>