<svg xmlns="http://www.w3.org/2000/svg" viewBox="0 0 1364 960" id="SubscribeNotification"><path fill="#0575e6" d="M36.36 459.467a4.913 4.913 0 1 1 9.827.001 4.913 4.913 0 0 1-9.827-.001z" class="colorbababa svgShape"></path><circle cx="60.925" cy="459.467" r="4.913" fill="#0575e6" class="colorbababa svgShape"></circle><circle cx="80.577" cy="459.467" r="4.913" fill="#0575e6" class="colorbababa svgShape"></circle><path fill="#0575e6" d="M95.316 459.467a4.913 4.913 0 1 1 9.827.001 4.913 4.913 0 0 1-9.827-.001zM114.968 459.467a4.913 4.913 0 1 1 9.827.001 4.913 4.913 0 0 1-9.827-.001zM134.62 459.467a4.913 4.913 0 1 1 9.827.001 4.913 4.913 0 0 1-9.827-.001z" class="colorbababa svgShape"></path><circle cx="159.185" cy="459.467" r="4.913" fill="#0575e6" class="colorbababa svgShape"></circle><path fill="#0575e6" d="M36.36 480.534a4.913 4.913 0 1 1 9.827.001 4.913 4.913 0 0 1-9.827-.001z" class="colorbababa svgShape"></path><circle cx="60.925" cy="480.534" r="4.913" fill="#0575e6" class="colorbababa svgShape"></circle><circle cx="80.577" cy="480.534" r="4.913" fill="#0575e6" class="colorbababa svgShape"></circle><path fill="#0575e6" d="M95.316 480.534a4.913 4.913 0 1 1 9.827.001 4.913 4.913 0 0 1-9.827-.001zM114.968 480.534a4.913 4.913 0 1 1 9.827.001 4.913 4.913 0 0 1-9.827-.001zM134.62 480.534a4.913 4.913 0 1 1 9.827.001 4.913 4.913 0 0 1-9.827-.001z" class="colorbababa svgShape"></path><circle cx="159.185" cy="480.534" r="4.913" fill="#0575e6" class="colorbababa svgShape"></circle><path fill="#0575e6" d="M36.36 417.556a4.913 4.913 0 1 1 9.827.001 4.913 4.913 0 0 1-9.827-.001z" class="colorbababa svgShape"></path><circle cx="60.925" cy="417.556" r="4.913" fill="#0575e6" class="colorbababa svgShape"></circle><circle cx="80.577" cy="417.556" r="4.913" fill="#0575e6" class="colorbababa svgShape"></circle><path fill="#0575e6" d="M95.316 417.556a4.913 4.913 0 1 1 9.827.001 4.913 4.913 0 0 1-9.827-.001zM114.968 417.556a4.913 4.913 0 1 1 9.827.001 4.913 4.913 0 0 1-9.827-.001zM134.62 417.556a4.913 4.913 0 1 1 9.827.001 4.913 4.913 0 0 1-9.827-.001z" class="colorbababa svgShape"></path><circle cx="159.185" cy="417.556" r="4.913" fill="#0575e6" class="colorbababa svgShape"></circle><path fill="#0575e6" d="M36.36 438.623a4.913 4.913 0 1 1 9.827.001 4.913 4.913 0 0 1-9.827-.001z" class="colorbababa svgShape"></path><circle cx="60.925" cy="438.623" r="4.913" fill="#0575e6" transform="rotate(-80.781 60.933 438.622)" class="colorbababa svgShape"></circle><circle cx="80.577" cy="438.623" r="4.913" fill="#0575e6" transform="rotate(-80.781 80.585 438.622)" class="colorbababa svgShape"></circle><path fill="#0575e6" d="M95.316 438.623a4.913 4.913 0 1 1 9.827.001 4.913 4.913 0 0 1-9.827-.001zM114.968 438.623a4.913 4.913 0 1 1 9.827.001 4.913 4.913 0 0 1-9.827-.001zM134.62 438.623a4.913 4.913 0 1 1 9.827.001 4.913 4.913 0 0 1-9.827-.001z" class="colorbababa svgShape"></path><circle cx="159.185" cy="438.623" r="4.913" fill="#0575e6" transform="rotate(-80.781 159.193 438.62)" class="colorbababa svgShape"></circle><path fill="#0575e6" d="M36.36 542.603a4.913 4.913 0 1 1 9.827.001 4.913 4.913 0 0 1-9.827-.001z" class="colorbababa svgShape"></path><circle cx="60.925" cy="542.603" r="4.913" fill="#0575e6" class="colorbababa svgShape"></circle><circle cx="80.577" cy="542.603" r="4.913" fill="#0575e6" class="colorbababa svgShape"></circle><path fill="#0575e6" d="M95.316 542.603a4.913 4.913 0 1 1 9.827.001 4.913 4.913 0 0 1-9.827-.001zM114.968 542.603a4.913 4.913 0 1 1 9.827.001 4.913 4.913 0 0 1-9.827-.001zM134.62 542.603a4.913 4.913 0 1 1 9.827.001 4.913 4.913 0 0 1-9.827-.001z" class="colorbababa svgShape"></path><circle cx="159.185" cy="542.603" r="4.913" fill="#0575e6" class="colorbababa svgShape"></circle><path fill="#0575e6" d="M36.36 563.67a4.913 4.913 0 1 1 9.827.001 4.913 4.913 0 0 1-9.827-.001z" class="colorbababa svgShape"></path><circle cx="60.925" cy="563.67" r="4.913" fill="#0575e6" class="colorbababa svgShape"></circle><circle cx="80.577" cy="563.67" r="4.913" fill="#0575e6" class="colorbababa svgShape"></circle><path fill="#0575e6" d="M95.316 563.67a4.913 4.913 0 1 1 9.827.001 4.913 4.913 0 0 1-9.827-.001zM114.968 563.67a4.913 4.913 0 1 1 9.827.001 4.913 4.913 0 0 1-9.827-.001zM134.62 563.67a4.913 4.913 0 1 1 9.827.001 4.913 4.913 0 0 1-9.827-.001z" class="colorbababa svgShape"></path><circle cx="159.185" cy="563.67" r="4.913" fill="#0575e6" class="colorbababa svgShape"></circle><path fill="#0575e6" d="M36.36 500.692a4.913 4.913 0 1 1 9.827.001 4.913 4.913 0 0 1-9.827-.001z" class="colorbababa svgShape"></path><circle cx="60.925" cy="500.692" r="4.913" fill="#0575e6" class="colorbababa svgShape"></circle><circle cx="80.577" cy="500.692" r="4.913" fill="#0575e6" class="colorbababa svgShape"></circle><path fill="#0575e6" d="M95.316 500.692a4.913 4.913 0 1 1 9.827.001 4.913 4.913 0 0 1-9.827-.001zM114.968 500.692a4.913 4.913 0 1 1 9.827.001 4.913 4.913 0 0 1-9.827-.001zM134.62 500.692a4.913 4.913 0 1 1 9.827.001 4.913 4.913 0 0 1-9.827-.001z" class="colorbababa svgShape"></path><circle cx="159.185" cy="500.692" r="4.913" fill="#0575e6" class="colorbababa svgShape"></circle><path fill="#0575e6" d="M36.36 521.759a4.913 4.913 0 1 1 9.827.001 4.913 4.913 0 0 1-9.827-.001z" class="colorbababa svgShape"></path><circle cx="60.925" cy="521.759" r="4.913" fill="#0575e6" transform="rotate(-80.781 60.934 521.759)" class="colorbababa svgShape"></circle><circle cx="80.577" cy="521.759" r="4.913" fill="#0575e6" transform="rotate(-80.781 80.586 521.759)" class="colorbababa svgShape"></circle><path fill="#0575e6" d="M95.316 521.759a4.913 4.913 0 1 1 9.827.001 4.913 4.913 0 0 1-9.827-.001zM114.968 521.759a4.913 4.913 0 1 1 9.827.001 4.913 4.913 0 0 1-9.827-.001zM134.62 521.759a4.913 4.913 0 1 1 9.827.001 4.913 4.913 0 0 1-9.827-.001z" class="colorbababa svgShape"></path><circle cx="159.185" cy="521.759" r="4.913" fill="#0575e6" transform="rotate(-80.781 159.194 521.757)" class="colorbababa svgShape"></circle><path fill="#0575e6" d="M173.873 459.467a4.913 4.913 0 1 1 9.827.001 4.913 4.913 0 0 1-9.827-.001z" class="colorbababa svgShape"></path><circle cx="198.438" cy="459.467" r="4.913" fill="#0575e6" class="colorbababa svgShape"></circle><circle cx="218.09" cy="459.467" r="4.913" fill="#0575e6" class="colorbababa svgShape"></circle><path fill="#0575e6" d="M232.829 459.467a4.913 4.913 0 1 1 9.827.001 4.913 4.913 0 0 1-9.827-.001zM252.481 459.467a4.913 4.913 0 1 1 9.827.001 4.913 4.913 0 0 1-9.827-.001zM272.133 459.467a4.913 4.913 0 1 1 9.827.001 4.913 4.913 0 0 1-9.827-.001z" class="colorbababa svgShape"></path><circle cx="296.698" cy="459.467" r="4.913" fill="#0575e6" class="colorbababa svgShape"></circle><path fill="#0575e6" d="M173.873 480.534a4.913 4.913 0 1 1 9.827.001 4.913 4.913 0 0 1-9.827-.001z" class="colorbababa svgShape"></path><circle cx="198.438" cy="480.534" r="4.913" fill="#0575e6" class="colorbababa svgShape"></circle><circle cx="218.09" cy="480.534" r="4.913" fill="#0575e6" class="colorbababa svgShape"></circle><path fill="#0575e6" d="M232.829 480.534a4.913 4.913 0 1 1 9.827.001 4.913 4.913 0 0 1-9.827-.001zM252.481 480.534a4.913 4.913 0 1 1 9.827.001 4.913 4.913 0 0 1-9.827-.001zM272.133 480.534a4.913 4.913 0 1 1 9.827.001 4.913 4.913 0 0 1-9.827-.001z" class="colorbababa svgShape"></path><circle cx="296.698" cy="480.534" r="4.913" fill="#0575e6" class="colorbababa svgShape"></circle><path fill="#0575e6" d="M173.873 417.556a4.913 4.913 0 1 1 9.827.001 4.913 4.913 0 0 1-9.827-.001z" class="colorbababa svgShape"></path><circle cx="198.438" cy="417.556" r="4.913" fill="#0575e6" class="colorbababa svgShape"></circle><circle cx="218.09" cy="417.556" r="4.913" fill="#0575e6" class="colorbababa svgShape"></circle><path fill="#0575e6" d="M232.829 417.556a4.913 4.913 0 1 1 9.827.001 4.913 4.913 0 0 1-9.827-.001zM252.481 417.556a4.913 4.913 0 1 1 9.827.001 4.913 4.913 0 0 1-9.827-.001zM272.133 417.556a4.913 4.913 0 1 1 9.827.001 4.913 4.913 0 0 1-9.827-.001z" class="colorbababa svgShape"></path><circle cx="296.698" cy="417.556" r="4.913" fill="#0575e6" class="colorbababa svgShape"></circle><path fill="#0575e6" d="M173.873 438.623a4.913 4.913 0 1 1 9.827.001 4.913 4.913 0 0 1-9.827-.001z" class="colorbababa svgShape"></path><circle cx="198.438" cy="438.623" r="4.913" fill="#0575e6" transform="rotate(-80.781 198.446 438.62)" class="colorbababa svgShape"></circle><circle cx="218.09" cy="438.623" r="4.913" fill="#0575e6" transform="rotate(-80.781 218.098 438.62)" class="colorbababa svgShape"></circle><path fill="#0575e6" d="M232.829 438.623a4.913 4.913 0 1 1 9.827.001 4.913 4.913 0 0 1-9.827-.001zM252.481 438.623a4.913 4.913 0 1 1 9.827.001 4.913 4.913 0 0 1-9.827-.001zM272.133 438.623a4.913 4.913 0 1 1 9.827.001 4.913 4.913 0 0 1-9.827-.001z" class="colorbababa svgShape"></path><circle cx="296.698" cy="438.623" r="4.913" fill="#0575e6" transform="rotate(-80.781 296.706 438.618)" class="colorbababa svgShape"></circle><path fill="#0575e6" d="M173.873 542.603a4.913 4.913 0 1 1 9.827.001 4.913 4.913 0 0 1-9.827-.001z" class="colorbababa svgShape"></path><circle cx="198.438" cy="542.603" r="4.913" fill="#0575e6" class="colorbababa svgShape"></circle><circle cx="218.09" cy="542.603" r="4.913" fill="#0575e6" class="colorbababa svgShape"></circle><path fill="#0575e6" d="M232.829 542.603a4.913 4.913 0 1 1 9.827.001 4.913 4.913 0 0 1-9.827-.001zM252.481 542.603a4.913 4.913 0 1 1 9.827.001 4.913 4.913 0 0 1-9.827-.001zM272.133 542.603a4.913 4.913 0 1 1 9.827.001 4.913 4.913 0 0 1-9.827-.001z" class="colorbababa svgShape"></path><circle cx="296.698" cy="542.603" r="4.913" fill="#0575e6" class="colorbababa svgShape"></circle><path fill="#0575e6" d="M173.873 563.67a4.913 4.913 0 1 1 9.827.001 4.913 4.913 0 0 1-9.827-.001z" class="colorbababa svgShape"></path><circle cx="198.438" cy="563.67" r="4.913" fill="#0575e6" class="colorbababa svgShape"></circle><circle cx="218.09" cy="563.67" r="4.913" fill="#0575e6" class="colorbababa svgShape"></circle><path fill="#0575e6" d="M232.829 563.67a4.913 4.913 0 1 1 9.827.001 4.913 4.913 0 0 1-9.827-.001zM252.481 563.67a4.913 4.913 0 1 1 9.827.001 4.913 4.913 0 0 1-9.827-.001zM272.133 563.67a4.913 4.913 0 1 1 9.827.001 4.913 4.913 0 0 1-9.827-.001z" class="colorbababa svgShape"></path><circle cx="296.698" cy="563.67" r="4.913" fill="#0575e6" class="colorbababa svgShape"></circle><path fill="#0575e6" d="M173.873 500.692a4.913 4.913 0 1 1 9.827.001 4.913 4.913 0 0 1-9.827-.001z" class="colorbababa svgShape"></path><circle cx="198.438" cy="500.692" r="4.913" fill="#0575e6" class="colorbababa svgShape"></circle><circle cx="218.09" cy="500.692" r="4.913" fill="#0575e6" class="colorbababa svgShape"></circle><path fill="#0575e6" d="M232.829 500.692a4.913 4.913 0 1 1 9.827.001 4.913 4.913 0 0 1-9.827-.001zM252.481 500.692a4.913 4.913 0 1 1 9.827.001 4.913 4.913 0 0 1-9.827-.001zM272.133 500.692a4.913 4.913 0 1 1 9.827.001 4.913 4.913 0 0 1-9.827-.001z" class="colorbababa svgShape"></path><circle cx="296.698" cy="500.692" r="4.913" fill="#0575e6" class="colorbababa svgShape"></circle><path fill="#0575e6" d="M173.873 521.759a4.913 4.913 0 1 1 9.827.001 4.913 4.913 0 0 1-9.827-.001z" class="colorbababa svgShape"></path><circle cx="198.438" cy="521.759" r="4.913" fill="#0575e6" transform="rotate(-80.781 198.447 521.757)" class="colorbababa svgShape"></circle><circle cx="218.09" cy="521.759" r="4.913" fill="#0575e6" transform="rotate(-80.781 218.1 521.756)" class="colorbababa svgShape"></circle><path fill="#0575e6" d="M232.829 521.759a4.913 4.913 0 1 1 9.827.001 4.913 4.913 0 0 1-9.827-.001zM252.481 521.759a4.913 4.913 0 1 1 9.827.001 4.913 4.913 0 0 1-9.827-.001zM272.133 521.759a4.913 4.913 0 1 1 9.827.001 4.913 4.913 0 0 1-9.827-.001z" class="colorbababa svgShape"></path><circle cx="296.698" cy="521.759" r="4.913" fill="#0575e6" transform="rotate(-80.781 296.708 521.755)" class="colorbababa svgShape"></circle><path fill="#0575e6" d="M1228.611 601.054a5.006 5.006 0 0 1-4.818 3.65 5.016 5.016 0 0 1-4.483-2.768 93.598 93.598 0 0 1 9.301-.882zM1178.721 621.167a5.008 5.008 0 1 1 10.016 0 5.008 5.008 0 0 1-10.016 0zM1198.752 621.167a5.008 5.008 0 1 1 10.016 0 5.008 5.008 0 0 1-10.016 0zM1218.783 621.167a5.008 5.008 0 1 1 10.016 0 5.008 5.008 0 0 1-10.016 0zM1158.69 642.64a5.008 5.008 0 1 1 10.016 0 5.008 5.008 0 0 1-10.016 0zM1178.721 642.64a5.008 5.008 0 1 1 10.016 0 5.008 5.008 0 0 1-10.016 0zM1198.752 642.64a5.008 5.008 0 1 1 10.016 0 5.008 5.008 0 0 1-10.016 0zM1218.783 642.64a5.008 5.008 0 1 1 10.016 0 5.008 5.008 0 0 1-10.016 0zM1148.673 664.113a5.002 5.002 0 0 1-5.006 5.006c-.827 0-1.6-.201-2.281-.547a94.763 94.763 0 0 1 3.431-9.331 4.996 4.996 0 0 1 3.856 4.872z" class="colorbababa svgShape"></path><circle cx="1163.698" cy="664.113" r="5.008" fill="#0575e6" class="colorbababa svgShape"></circle><path fill="#0575e6" d="M1178.721 664.113a5.008 5.008 0 1 1 10.016 0 5.008 5.008 0 0 1-10.016 0z" class="colorbababa svgShape"></path><circle cx="1203.76" cy="664.113" r="5.008" fill="#0575e6" class="colorbababa svgShape"></circle><circle cx="1223.791" cy="664.113" r="5.008" fill="#0575e6" class="colorbababa svgShape"></circle><path fill="#0575e6" d="M1138.659 685.586a5.008 5.008 0 1 1 10.016 0 5.008 5.008 0 0 1-10.016 0zM1158.69 685.586a5.008 5.008 0 1 1 10.016 0 5.008 5.008 0 0 1-10.016 0zM1178.721 685.586a5.008 5.008 0 1 1 10.016 0 5.008 5.008 0 0 1-10.016 0zM1198.752 685.586a5.008 5.008 0 1 1 10.016 0 5.008 5.008 0 0 1-10.016 0zM1218.783 685.586a5.008 5.008 0 1 1 10.016 0 5.008 5.008 0 0 1-10.016 0zM1246.987 601.936a5.016 5.016 0 0 1-4.477 2.768 5.012 5.012 0 0 1-4.823-3.65 93.52 93.52 0 0 1 9.3.882zM1237.5 621.167a5.008 5.008 0 1 1 10.016 0 5.008 5.008 0 0 1-10.016 0zM1257.531 621.167a5.008 5.008 0 1 1 10.016 0 5.008 5.008 0 0 1-10.016 0zM1277.562 621.167a5.008 5.008 0 1 1 10.016 0 5.008 5.008 0 0 1-10.016 0zM1237.5 642.64a5.008 5.008 0 1 1 10.016 0 5.008 5.008 0 0 1-10.016 0zM1257.531 642.64a5.008 5.008 0 1 1 10.016 0 5.008 5.008 0 0 1-10.016 0zM1277.562 642.64a5.008 5.008 0 1 1 10.016 0 5.008 5.008 0 0 1-10.016 0zM1297.593 642.64a5.008 5.008 0 1 1 10.016 0 5.008 5.008 0 0 1-10.016 0z" class="colorbababa svgShape"></path><circle cx="1242.508" cy="664.113" r="5.008" fill="#0575e6" class="colorbababa svgShape"></circle><circle cx="1262.539" cy="664.113" r="5.008" fill="#0575e6" class="colorbababa svgShape"></circle><path fill="#0575e6" d="M1277.562 664.113a5.008 5.008 0 1 1 10.016 0 5.008 5.008 0 0 1-10.016 0z" class="colorbababa svgShape"></path><circle cx="1302.601" cy="664.113" r="5.008" fill="#0575e6" class="colorbababa svgShape"></circle><path fill="#0575e6" d="M1324.912 668.571a5.006 5.006 0 1 1-3.431-9.331 94.857 94.857 0 0 1 3.431 9.331zM1237.5 685.586a5.008 5.008 0 1 1 10.016 0 5.008 5.008 0 0 1-10.016 0zM1257.531 685.586a5.008 5.008 0 1 1 10.016 0 5.008 5.008 0 0 1-10.016 0zM1277.562 685.586a5.008 5.008 0 1 1 10.016 0 5.008 5.008 0 0 1-10.016 0zM1297.593 685.586a5.008 5.008 0 1 1 10.016 0 5.008 5.008 0 0 1-10.016 0zM1317.624 685.586a5.008 5.008 0 1 1 10.016 0 5.008 5.008 0 0 1-10.016 0zM1138.659 708.359a5.008 5.008 0 1 1 10.016 0 5.008 5.008 0 0 1-10.016 0zM1158.69 708.359a5.008 5.008 0 1 1 10.016 0 5.008 5.008 0 0 1-10.016 0zM1178.721 708.359a5.008 5.008 0 1 1 10.016 0 5.008 5.008 0 0 1-10.016 0zM1198.752 708.359a5.008 5.008 0 1 1 10.016 0 5.008 5.008 0 0 1-10.016 0zM1218.783 708.359a5.008 5.008 0 1 1 10.016 0 5.008 5.008 0 0 1-10.016 0zM1148.673 729.829a5.005 5.005 0 0 1-3.856 4.878 94.471 94.471 0 0 1-3.431-9.337 5.006 5.006 0 0 1 7.287 4.459z" class="colorbababa svgShape"></path><circle cx="1163.698" cy="729.832" r="5.008" fill="#0575e6" class="colorbababa svgShape"></circle><path fill="#0575e6" d="M1178.721 729.832a5.008 5.008 0 1 1 10.016 0 5.008 5.008 0 0 1-10.016 0z" class="colorbababa svgShape"></path><circle cx="1203.76" cy="729.832" r="5.008" fill="#0575e6" class="colorbababa svgShape"></circle><circle cx="1223.791" cy="729.832" r="5.008" fill="#0575e6" class="colorbababa svgShape"></circle><path fill="#0575e6" d="M1158.69 751.305a5.008 5.008 0 1 1 10.016 0 5.008 5.008 0 0 1-10.016 0zM1178.721 751.305a5.008 5.008 0 1 1 10.016 0 5.008 5.008 0 0 1-10.016 0zM1198.752 751.305a5.008 5.008 0 1 1 10.016 0 5.008 5.008 0 0 1-10.016 0zM1218.783 751.305a5.008 5.008 0 1 1 10.016 0 5.008 5.008 0 0 1-10.016 0zM1178.721 772.779a5.008 5.008 0 1 1 10.016 0 5.008 5.008 0 0 1-10.016 0z" class="colorbababa svgShape"></path><circle cx="1203.76" cy="772.779" r="5.008" fill="#0575e6" class="colorbababa svgShape"></circle><circle cx="1223.791" cy="772.779" r="5.008" fill="#0575e6" class="colorbababa svgShape"></circle><path fill="#0575e6" d="M1228.611 792.895a93.492 93.492 0 0 1-9.3-.882 5.003 5.003 0 0 1 4.483-2.768 5.006 5.006 0 0 1 4.817 3.65zM1237.5 708.359a5.008 5.008 0 1 1 10.016 0 5.008 5.008 0 0 1-10.016 0zM1257.531 708.359a5.008 5.008 0 1 1 10.016 0 5.008 5.008 0 0 1-10.016 0zM1277.562 708.359a5.008 5.008 0 1 1 10.016 0 5.008 5.008 0 0 1-10.016 0zM1297.593 708.359a5.008 5.008 0 1 1 10.016 0 5.008 5.008 0 0 1-10.016 0zM1317.624 708.359a5.008 5.008 0 1 1 10.016 0 5.008 5.008 0 0 1-10.016 0z" class="colorbababa svgShape"></path><circle cx="1242.508" cy="729.832" r="5.008" fill="#0575e6" class="colorbababa svgShape"></circle><circle cx="1262.539" cy="729.832" r="5.008" fill="#0575e6" class="colorbababa svgShape"></circle><path fill="#0575e6" d="M1277.562 729.832a5.008 5.008 0 1 1 10.016 0 5.008 5.008 0 0 1-10.016 0z" class="colorbababa svgShape"></path><circle cx="1302.601" cy="729.832" r="5.008" fill="#0575e6" class="colorbababa svgShape"></circle><path fill="#0575e6" d="M1324.912 725.371a94.311 94.311 0 0 1-3.431 9.337 5.01 5.01 0 1 1 3.431-9.337zM1237.5 751.305a5.008 5.008 0 1 1 10.016 0 5.008 5.008 0 0 1-10.016 0zM1257.531 751.305a5.008 5.008 0 1 1 10.016 0 5.008 5.008 0 0 1-10.016 0zM1277.562 751.305a5.008 5.008 0 1 1 10.016 0 5.008 5.008 0 0 1-10.016 0zM1297.593 751.305a5.008 5.008 0 1 1 10.016 0 5.008 5.008 0 0 1-10.016 0z" class="colorbababa svgShape"></path><circle cx="1242.508" cy="772.779" r="5.008" fill="#0575e6" class="colorbababa svgShape"></circle><circle cx="1262.539" cy="772.779" r="5.008" fill="#0575e6" class="colorbababa svgShape"></circle><path fill="#0575e6" d="M1277.562 772.779a5.008 5.008 0 1 1 10.016 0 5.008 5.008 0 0 1-10.016 0zM1246.987 792.012a93.52 93.52 0 0 1-9.3.882 5.008 5.008 0 0 1 9.3-.882z" class="colorbababa svgShape"></path><path fill="#5473e8" d="m1160.974 305.75-973.07 2.296c-30.074.071-52.409 25.76-49.906 57.121l20.581 257.923c2.299 28.814 27.248 51.935 55.743 51.868l921.967-2.175c28.495-.067 53.334-23.307 55.497-52.131l19.363-258.017c2.354-31.372-20.102-56.956-50.175-56.885z" class="colore85454 svgShape"></path><path fill="#ffffff" d="m206.905 498.73 30.07-1.884c.651 4.884 1.976 8.605 3.977 11.162 3.256 4.14 7.907 6.209 13.953 6.209 4.511 0 7.989-1.057 10.431-3.174 2.441-2.116 3.662-4.57 3.662-7.36 0-2.652-1.163-5.023-3.488-7.117-2.326-2.093-7.722-4.069-16.186-5.93-13.862-3.115-23.745-7.256-29.652-12.418-5.954-5.163-8.93-11.744-8.93-19.745 0-5.255 1.522-10.221 4.569-14.895 3.046-4.675 7.628-8.349 13.745-11.024 6.115-2.675 14.5-4.012 25.151-4.012 13.069 0 23.034 2.431 29.896 7.291 6.86 4.861 10.941 12.592 12.244 23.197l-29.79 1.744c-.792-4.605-2.454-7.953-4.989-10.047-2.536-2.093-6.035-3.139-10.5-3.139-3.675 0-6.442.78-8.303 2.338-1.861 1.559-2.791 3.453-2.791 5.686 0 1.628.768 3.093 2.302 4.395 1.488 1.349 5.023 2.606 10.605 3.768 13.813 2.977 23.708 5.988 29.686 9.034 5.976 3.047 10.325 6.826 13.046 11.338 2.721 4.511 4.082 9.558 4.082 15.139 0 6.559-1.814 12.605-5.442 18.14-3.628 5.536-8.699 9.733-15.21 12.593-6.512 2.861-14.72 4.291-24.628 4.291-17.396 0-29.442-3.348-36.139-10.047-6.696-6.697-10.487-15.208-11.371-25.533zM382.162 430.287h31.535v60.937c0 6.043-.942 11.748-2.825 17.116a36.985 36.985 0 0 1-8.861 14.084c-4.024 4.02-8.245 6.843-12.663 8.47-6.139 2.277-13.511 3.416-22.116 3.416-4.977 0-10.407-.349-16.29-1.045-5.885-.699-10.804-2.081-14.756-4.15-3.954-2.067-7.57-5.008-10.849-8.819-3.279-3.811-5.524-7.738-6.733-11.783-1.953-6.507-2.93-12.27-2.93-17.291v-60.937h31.534v62.388c0 5.578 1.546 9.934 4.64 13.071 3.092 3.138 7.383 4.705 12.872 4.705 5.442 0 9.708-1.545 12.802-4.635 3.093-3.09 4.639-7.47 4.639-13.141v-62.386zM434.697 430.287h59.162c9.861 0 17.431 2.442 22.71 7.326 5.278 4.883 7.919 10.931 7.919 18.14 0 6.048-1.884 11.232-5.652 15.558-2.511 2.884-6.186 5.163-11.023 6.837 7.348 1.768 12.755 4.803 16.22 9.104 3.464 4.303 5.199 9.71 5.199 16.221 0 5.302-1.233 10.07-3.698 14.303-2.466 4.233-5.838 7.582-10.117 10.046-2.651 1.535-6.652 2.652-12 3.349-7.116.931-11.837 1.395-14.162 1.395h-54.559V430.287zm31.884 40.116h13.744c4.93 0 8.361-.848 10.291-2.547 1.929-1.698 2.895-4.151 2.895-7.36 0-2.976-.966-5.303-2.895-6.977-1.93-1.674-5.291-2.511-10.081-2.511h-13.953v19.395zm0 40.186h16.116c5.442 0 9.28-.964 11.512-2.895 2.232-1.929 3.348-4.523 3.348-7.779 0-3.023-1.105-5.453-3.314-7.291-2.21-1.837-6.082-2.755-11.616-2.755h-16.046v20.72zM540.256 498.73l30.07-1.884c.651 4.884 1.976 8.605 3.977 11.162 3.256 4.14 7.907 6.209 13.953 6.209 4.511 0 7.989-1.057 10.431-3.174 2.441-2.116 3.662-4.57 3.662-7.36 0-2.652-1.163-5.023-3.488-7.117-2.326-2.093-7.722-4.069-16.186-5.93-13.862-3.115-23.745-7.256-29.652-12.418-5.954-5.163-8.93-11.744-8.93-19.745 0-5.255 1.522-10.221 4.569-14.895 3.046-4.675 7.628-8.349 13.745-11.024 6.115-2.675 14.5-4.012 25.151-4.012 13.069 0 23.034 2.431 29.896 7.291 6.86 4.861 10.941 12.592 12.244 23.197l-29.79 1.744c-.792-4.605-2.454-7.953-4.989-10.047-2.536-2.093-6.035-3.139-10.5-3.139-3.675 0-6.442.78-8.303 2.338-1.861 1.559-2.791 3.453-2.791 5.686 0 1.628.768 3.093 2.302 4.395 1.488 1.349 5.023 2.606 10.605 3.768 13.813 2.977 23.708 5.988 29.686 9.034 5.976 3.047 10.325 6.826 13.046 11.338s4.082 9.558 4.082 15.139c0 6.559-1.814 12.605-5.442 18.14-3.628 5.536-8.699 9.733-15.21 12.593-6.512 2.861-14.72 4.291-24.628 4.291-17.396 0-29.442-3.348-36.139-10.047-6.696-6.697-10.488-15.208-11.371-25.533zM717.047 490.706l27.698 8.373c-1.861 7.768-4.791 14.257-8.791 19.465-4 5.209-8.964 9.14-14.895 11.791-5.93 2.651-13.478 3.977-22.64 3.977-11.117 0-20.198-1.615-27.245-4.845-7.046-3.23-13.128-8.912-18.244-17.046-5.117-8.134-7.674-18.546-7.674-31.236 0-16.919 4.5-29.922 13.5-39.009s21.732-13.631 38.198-13.631c12.883 0 23.011 2.606 30.384 7.814 7.371 5.209 12.848 13.21 16.43 24l-27.907 6.209c-.977-3.115-2.001-5.395-3.07-6.837-1.768-2.418-3.93-4.278-6.488-5.581-2.558-1.302-5.419-1.954-8.581-1.954-7.163 0-12.652 2.881-16.465 8.641-2.884 4.274-4.326 10.987-4.326 20.138 0 11.337 1.72 19.107 5.163 23.311 3.442 4.204 8.278 6.306 14.512 6.306 6.046 0 10.616-1.697 13.709-5.092 3.092-3.398 5.337-8.328 6.732-14.794zM760.512 532.566v-102.28h52.675c9.767 0 17.233.837 22.396 2.512 5.162 1.674 9.325 4.779 12.488 9.314 3.162 4.535 4.745 10.059 4.745 16.57 0 5.675-1.21 10.57-3.631 14.686-2.42 4.116-5.748 7.454-9.982 10.011-2.699 1.629-6.399 2.978-11.099 4.046 3.764 1.259 6.506 2.515 8.227 3.771 1.162.839 2.846 2.631 5.055 5.378 2.208 2.748 3.684 4.866 4.427 6.355l15.305 29.637h-35.711l-16.894-31.256c-2.14-4.046-4.046-6.674-5.721-7.884-2.28-1.581-4.861-2.372-7.744-2.372h-2.791v41.512h-31.745zm31.744-60.837h13.326c1.441 0 4.232-.465 8.372-1.395 2.094-.419 3.802-1.488 5.128-3.209 1.327-1.72 1.989-3.698 1.989-5.93 0-3.302-1.047-5.836-3.139-7.604-2.094-1.767-6.025-2.651-11.791-2.651h-13.884v20.789zM872.49 430.287h31.674v102.28H872.49v-102.28zM926.909 430.287h59.162c9.861 0 17.431 2.442 22.71 7.326 5.278 4.883 7.919 10.931 7.919 18.14 0 6.048-1.884 11.232-5.652 15.558-2.511 2.884-6.186 5.163-11.023 6.837 7.348 1.768 12.755 4.803 16.22 9.104 3.464 4.303 5.199 9.71 5.199 16.221 0 5.302-1.233 10.07-3.698 14.303-2.466 4.233-5.838 7.582-10.117 10.046-2.651 1.535-6.652 2.652-12 3.349-7.116.931-11.837 1.395-14.162 1.395h-54.559V430.287zm31.884 40.116h13.744c4.93 0 8.361-.848 10.291-2.547 1.929-1.698 2.895-4.151 2.895-7.36 0-2.976-.966-5.303-2.895-6.977-1.93-1.674-5.291-2.511-10.081-2.511h-13.953v19.395zm0 40.186h16.116c5.442 0 9.28-.964 11.512-2.895 2.232-1.929 3.348-4.523 3.348-7.779 0-3.023-1.105-5.453-3.314-7.291-2.21-1.837-6.082-2.755-11.616-2.755h-16.046v20.72zM1037.909 430.287h84.699v21.837h-53.024v16.256h49.187v20.861h-49.187v20.163h54.559v23.163h-86.233v-102.28z" class="colorffffff svgShape"></path><path fill="#021b79" d="M1140.477 707.25c-.938 0-1.874-.024-2.818-.072l-951.815-47.816c-30.615-1.537-56.204-27.977-57.042-58.94l-7.239-267.357c-.46-16.986 5.598-32.508 17.058-43.707 10.714-10.468 24.969-15.832 40.123-15.051l1004.572 50.467c15.161.761 28.801 7.506 38.411 18.995 10.281 12.291 14.753 28.342 12.593 45.197l-33.997 265.286c-3.819 29.776-30.345 52.996-59.846 52.998zM175.912 279.12c-12.814 0-24.762 4.823-33.879 13.732-10.476 10.237-16.013 24.471-15.59 40.081l7.239 267.358c.77 28.471 24.28 52.782 52.406 54.195l951.815 47.816c.863.043 1.728.064 2.587.064 27.106.002 51.476-21.352 54.986-48.734l33.997-265.286c1.985-15.491-2.098-30.209-11.496-41.444-8.726-10.432-21.124-16.559-34.91-17.252l-1004.57-50.466a52.005 52.005 0 0 0-2.585-.064z" class="color080500 svgShape"></path><circle cx="1159.11" cy="678.05" r="102.989" fill="#ffffff" class="colorffffff svgShape"></circle><path fill="#021b79" d="M1159.109 783.482c-58.134 0-105.431-47.297-105.431-105.432 0-58.134 47.297-105.431 105.431-105.431 58.135 0 105.432 47.297 105.432 105.431 0 58.135-47.296 105.432-105.432 105.432zm0-205.979c-55.442 0-100.547 45.105-100.547 100.547s45.105 100.548 100.547 100.548 100.548-45.106 100.548-100.548c.001-55.442-45.105-100.547-100.548-100.547z" class="color080500 svgShape"></path><path fill="#5473e8" d="M1204.02 698.805h-87.183c.125-.567.184-1.15.184-1.751v-33.182c0-22.119 16.541-40.352 37.918-43.054v-6.169a4.707 4.707 0 0 1 4.702-4.702h3.16a4.702 4.702 0 0 1 4.702 4.702v6.395c20.693 3.443 36.334 21.735 36.334 43.371v32.64c0 .6.067 1.184.183 1.75zM1220.82 713.037c0 3.994-3.685 7.237-8.229 7.237h-31.39c-6.594 18.774-34.84 18.88-41.545 0h-31.382c-4.544 0-8.229-3.243-8.229-7.237.002-3.596 2.929-6.383 6.395-7.053h107.985c3.661.734 6.395 3.61 6.395 7.053zM136.769 260.224c2.612-45.166-27.798-81.231-59.6-89.128-14.314-3.555-36.618.058-39.445 20.382-5.6 40.262 54.293 24.921 99.045 68.746zM180.26 240.998c18.79-19.747 18.854-48.169 7.309-64.185-5.197-7.209-16.857-14.233-26.071-5.991-18.254 16.33 15.255 32.601 18.762 70.176zM111.985 299.558c-16.612-21.611-44.684-26.059-62.289-17.123-7.924 4.022-16.664 14.459-9.941 24.835 13.318 20.554 34.564-10.044 72.23-7.712zM307.336 263.339a1.99 1.99 0 0 1-1.203-3.475l10.98-9.75c2.99-2.654 7.583-2.383 10.238.608l8.125 9.15a3.276 3.276 0 0 0 4.619.275l9.288-8.247c2.991-2.655 7.585-2.382 10.238.608l8.287 9.334a3.276 3.276 0 0 0 4.619.274l8.876-7.881c2.991-2.656 7.583-2.382 10.237.608l6.663 7.503a3.276 3.276 0 0 0 4.619.275l5.663-5.151c4.924-4.371 11.068-3.837 15.672 1.347l.146.186 5.749 8.273a1.99 1.99 0 0 1-3.268 2.271l-5.679-8.172c-1.869-2.069-5.584-4.83-9.96-.945l-5.663 5.151c-3.007 2.671-7.6 2.399-10.255-.592l-6.663-7.503a3.276 3.276 0 0 0-4.619-.275l-8.876 7.881c-2.99 2.656-7.583 2.382-10.238-.608l-8.287-9.334a3.275 3.275 0 0 0-4.619-.274l-9.288 8.247c-2.99 2.654-7.583 2.382-10.237-.608l-8.125-9.15a3.276 3.276 0 0 0-4.619-.275l-10.98 9.75a1.98 1.98 0 0 1-1.44.499z" class="colore85454 svgShape"></path><path d="M258.452 227.4a1.99 1.99 0 0 1-1.203-3.475l10.981-9.749a7.203 7.203 0 0 1 5.245-1.816 7.203 7.203 0 0 1 4.993 2.425l8.124 9.15a3.276 3.276 0 0 0 4.619.275l9.287-8.247c2.99-2.655 7.583-2.383 10.238.608l8.287 9.333a3.276 3.276 0 0 0 4.619.275l8.876-7.881c2.991-2.655 7.584-2.382 10.238.608l6.662 7.503a3.276 3.276 0 0 0 4.619.274l5.663-5.151c2.5-2.22 5.316-3.22 8.154-2.914 2.703.293 5.303 1.766 7.517 4.261l.146.186 5.75 8.273a1.99 1.99 0 0 1-3.268 2.271l-5.68-8.172c-1.527-1.691-3.218-2.68-4.894-2.862-1.705-.181-3.422.459-5.065 1.917l-5.663 5.151c-3.007 2.672-7.601 2.399-10.256-.592l-6.662-7.503a3.253 3.253 0 0 0-2.253-1.094 3.252 3.252 0 0 0-2.367.819l-8.876 7.881c-2.99 2.654-7.583 2.382-10.237-.608l-8.287-9.333a3.249 3.249 0 0 0-2.253-1.094 3.25 3.25 0 0 0-2.366.819l-9.287 8.247a7.203 7.203 0 0 1-5.245 1.816 7.203 7.203 0 0 1-4.993-2.425l-8.125-9.15c-.58-.654-1.38-1.042-2.253-1.094s-1.713.239-2.366.819l-10.981 9.75a1.98 1.98 0 0 1-1.438.499z" fill="#000000" class="color000000 svgShape"></path><path fill="#5473e8" d="M926.523 781.123a1.99 1.99 0 0 1-1.203-3.475l10.98-9.75c2.99-2.654 7.583-2.383 10.238.608l8.125 9.15a3.276 3.276 0 0 0 4.619.275l9.288-8.247c2.991-2.655 7.585-2.382 10.238.608l8.287 9.334a3.276 3.276 0 0 0 4.619.274l8.876-7.881c2.991-2.656 7.583-2.382 10.237.608l6.663 7.503a3.276 3.276 0 0 0 4.619.275l5.663-5.151c4.924-4.371 11.068-3.837 15.672 1.347l.146.186 5.749 8.273a1.99 1.99 0 0 1-3.268 2.271l-5.679-8.172c-1.87-2.069-5.584-4.83-9.96-.945l-5.663 5.151c-3.007 2.671-7.6 2.399-10.255-.592l-6.663-7.503a3.276 3.276 0 0 0-4.619-.275l-8.876 7.881c-2.99 2.656-7.583 2.382-10.238-.608l-8.287-9.334a3.275 3.275 0 0 0-4.619-.274l-9.288 8.247c-2.99 2.654-7.583 2.382-10.237-.608l-8.125-9.15a3.276 3.276 0 0 0-4.619-.275l-10.98 9.75a1.987 1.987 0 0 1-1.44.499z" class="colore85454 svgShape"></path><path d="M877.639 745.183a1.99 1.99 0 0 1-1.203-3.475l10.981-9.749a7.203 7.203 0 0 1 5.245-1.816 7.203 7.203 0 0 1 4.993 2.425l8.124 9.15a3.276 3.276 0 0 0 4.619.275l9.287-8.247c2.99-2.655 7.583-2.383 10.238.608l8.287 9.333a3.276 3.276 0 0 0 4.619.275l8.876-7.881c2.991-2.655 7.584-2.382 10.238.608l6.662 7.503a3.276 3.276 0 0 0 4.619.274l5.663-5.151c2.5-2.22 5.316-3.22 8.154-2.914 2.703.293 5.303 1.766 7.517 4.261l.146.185 5.75 8.273a1.99 1.99 0 0 1-3.268 2.272l-5.68-8.172c-1.527-1.691-3.218-2.68-4.894-2.862-1.705-.181-3.422.459-5.065 1.917l-5.663 5.151c-3.007 2.672-7.601 2.399-10.256-.592l-6.662-7.503a3.253 3.253 0 0 0-2.253-1.094 3.252 3.252 0 0 0-2.367.819l-8.876 7.881c-2.99 2.654-7.583 2.382-10.237-.608l-8.287-9.333a3.249 3.249 0 0 0-2.253-1.094 3.25 3.25 0 0 0-2.366.819l-9.287 8.247a7.203 7.203 0 0 1-5.245 1.816 7.206 7.206 0 0 1-4.993-2.424l-8.125-9.15a3.249 3.249 0 0 0-2.253-1.094 3.25 3.25 0 0 0-2.366.819l-10.981 9.75c-.41.364-.929.528-1.438.498z" fill="#000000" class="color000000 svgShape"></path><path fill="#0575e6" d="M211.667 734.71a3.139 3.139 0 0 1-2.248-.873l-16.014-15.31a.033.033 0 0 1-.001-.046l15.571-16.285a3.152 3.152 0 0 1 4.65.104c1.098 1.248.941 3.168-.207 4.369l-11.102 11.612a.033.033 0 0 0 .001.046l11.325 10.829c1.319 1.262 1.442 3.449.112 4.7a3.14 3.14 0 0 1-2.087.854zM234.067 734.207a3.139 3.139 0 0 1-2.248-.873l-16.014-15.311a.032.032 0 0 1-.001-.046l15.57-16.285a3.152 3.152 0 0 1 4.65.103c1.098 1.248.941 3.168-.207 4.369l-11.102 11.612a.032.032 0 0 0 .001.046l11.326 10.829c1.32 1.262 1.441 3.449.112 4.7a3.125 3.125 0 0 1-2.087.856zM256.467 733.705a3.139 3.139 0 0 1-2.248-.873l-16.015-15.31a.033.033 0 0 1-.001-.046l15.571-16.285a3.152 3.152 0 0 1 4.65.104c1.098 1.248.941 3.168-.207 4.369l-11.102 11.612a.032.032 0 0 0 .001.046l11.322 10.825c1.319 1.261 1.445 3.451.117 4.703a3.137 3.137 0 0 1-2.088.855zM278.867 733.203a3.139 3.139 0 0 1-2.248-.873l-16.014-15.311a.033.033 0 0 1-.001-.046l15.571-16.285a3.152 3.152 0 0 1 4.65.104c1.098 1.248.941 3.168-.207 4.369l-11.102 11.612a.033.033 0 0 0 .001.046l11.325 10.829c1.319 1.262 1.442 3.449.112 4.7a3.137 3.137 0 0 1-2.087.855zM301.266 732.7a3.139 3.139 0 0 1-2.248-.873l-16.014-15.31a.032.032 0 0 1-.001-.046l15.57-16.285a3.152 3.152 0 0 1 4.65.104c1.098 1.248.941 3.168-.207 4.369l-11.102 11.612a.033.033 0 0 0 .001.046l11.326 10.829c1.319 1.262 1.442 3.449.112 4.7a3.14 3.14 0 0 1-2.087.854zM323.666 732.198a3.139 3.139 0 0 1-2.248-.873l-16.014-15.311a.032.032 0 0 1-.001-.046l15.571-16.285a3.152 3.152 0 0 1 4.65.103c1.098 1.248.941 3.168-.207 4.369l-11.102 11.612a.033.033 0 0 0 .001.046l11.326 10.829c1.32 1.262 1.441 3.449.112 4.7a3.137 3.137 0 0 1-2.088.856zM346.066 731.695a3.139 3.139 0 0 1-2.248-.873l-16.015-15.31a.033.033 0 0 1-.001-.046l15.571-16.285a3.152 3.152 0 0 1 4.65.104c1.098 1.248.941 3.168-.207 4.369l-11.102 11.612a.033.033 0 0 0 .001.046l11.322 10.825c1.319 1.261 1.445 3.451.117 4.703a3.137 3.137 0 0 1-2.088.855zM368.466 731.193a3.139 3.139 0 0 1-2.248-.873l-16.015-15.31a.032.032 0 0 1-.001-.046l15.571-16.285a3.151 3.151 0 0 1 4.555 4.355l-11.215 11.729a.033.033 0 0 0 .001.046l11.322 10.825c1.319 1.261 1.445 3.451.117 4.703a3.136 3.136 0 0 1-2.087.856zM390.865 730.69a3.139 3.139 0 0 1-2.248-.873l-16.014-15.311a.033.033 0 0 1-.001-.046l15.571-16.285a3.152 3.152 0 0 1 4.65.104c1.098 1.248.941 3.168-.207 4.369l-11.102 11.612a.032.032 0 0 0 .001.046l11.325 10.829c1.319 1.262 1.442 3.449.112 4.7a3.137 3.137 0 0 1-2.087.855zM413.265 730.188a3.139 3.139 0 0 1-2.248-.873l-16.014-15.31a.033.033 0 0 1-.001-.046l15.571-16.285a3.152 3.152 0 0 1 4.65.103c1.098 1.248.942 3.168-.207 4.369l-11.102 11.612a.033.033 0 0 0 .001.046l11.326 10.829c1.319 1.262 1.441 3.449.112 4.7a3.141 3.141 0 0 1-2.088.855zM436.08 729.676a3.139 3.139 0 0 1-2.248-.873l-16.014-15.311a.032.032 0 0 1-.001-.046l15.571-16.285a3.15 3.15 0 0 1 4.65.104c1.098 1.248.941 3.168-.207 4.369l-11.102 11.612a.033.033 0 0 0 .001.046l11.325 10.829c1.319 1.262 1.442 3.449.112 4.7a3.137 3.137 0 0 1-2.087.855zM458.48 729.173a3.139 3.139 0 0 1-2.248-.873l-16.014-15.311a.032.032 0 0 1-.001-.046l15.57-16.285a3.152 3.152 0 0 1 4.65.104c1.098 1.248.941 3.168-.207 4.369l-11.102 11.612a.032.032 0 0 0 .001.046l11.326 10.829c1.32 1.262 1.441 3.449.112 4.7a3.129 3.129 0 0 1-2.087.855z" class="colorbababa svgShape"></path><path fill="#5473e8" d="m578.636 723.238 5.989-5.989a3.479 3.479 0 0 0 0-4.922 3.479 3.479 0 0 0-4.922 0l-5.989 5.989-5.989-5.989a3.479 3.479 0 0 0-4.922 0 3.479 3.479 0 0 0 0 4.922l5.989 5.989-5.978 5.978a3.479 3.479 0 0 0 2.461 5.942c.891 0 1.782-.34 2.461-1.02l5.978-5.978 5.978 5.978a3.469 3.469 0 0 0 2.461 1.02 3.479 3.479 0 0 0 2.461-5.942l-5.978-5.978zM1028.678 231.832l5.989-5.989a3.479 3.479 0 0 0 0-4.922 3.479 3.479 0 0 0-4.922 0l-5.989 5.989-5.989-5.989a3.479 3.479 0 0 0-4.922 0 3.479 3.479 0 0 0 0 4.922l5.989 5.989-5.978 5.978a3.479 3.479 0 0 0 2.461 5.942c.891 0 1.782-.34 2.461-1.02l5.978-5.978 5.978 5.978c.679.68 1.571 1.02 2.461 1.02s1.782-.34 2.461-1.02a3.479 3.479 0 0 0 0-4.922l-5.978-5.978zM1277.406 528.635l5.989-5.989a3.479 3.479 0 0 0 0-4.922 3.479 3.479 0 0 0-4.922 0l-5.989 5.989-5.989-5.989a3.479 3.479 0 0 0-4.922 0 3.479 3.479 0 0 0 0 4.922l5.989 5.989-5.978 5.978a3.479 3.479 0 0 0 2.461 5.942c.891 0 1.782-.34 2.461-1.02l5.978-5.978 5.978 5.978c.679.68 1.571 1.02 2.461 1.02s1.782-.34 2.461-1.02a3.479 3.479 0 0 0 0-4.922l-5.978-5.978z" class="colore85454 svgShape"></path><path d="M730.04 790.522c-7.542 0-13.678-6.136-13.678-13.678 0-7.542 6.136-13.678 13.678-13.678 7.542 0 13.678 6.136 13.678 13.678 0 7.542-6.136 13.678-13.678 13.678zm0-23.075c-5.182 0-9.398 4.216-9.398 9.398 0 5.182 4.216 9.398 9.398 9.398 5.181 0 9.398-4.216 9.398-9.398 0-5.182-4.216-9.398-9.398-9.398zM730.518 254.192c-7.542 0-13.678-6.136-13.678-13.678 0-7.542 6.136-13.678 13.678-13.678 7.542 0 13.678 6.136 13.678 13.678 0 7.542-6.136 13.678-13.678 13.678zm0-23.076c-5.182 0-9.398 4.216-9.398 9.398 0 5.182 4.216 9.398 9.398 9.398 5.181 0 9.398-4.216 9.398-9.398-.001-5.182-4.217-9.398-9.398-9.398zM75.552 395.918c-7.542 0-13.678-6.136-13.678-13.678 0-7.542 6.136-13.678 13.678-13.678 7.542 0 13.678 6.136 13.678 13.678-.001 7.542-6.137 13.678-13.678 13.678zm0-23.075c-5.182 0-9.398 4.216-9.398 9.398 0 5.182 4.216 9.398 9.398 9.398 5.181 0 9.398-4.216 9.398-9.398-.001-5.182-4.217-9.398-9.398-9.398z" fill="#000000" class="color000000 svgShape"></path></svg>