<svg xmlns="http://www.w3.org/2000/svg" data-name="&amp;lt;Layer&amp;gt;" viewBox="0 0 2745 1830" id="Successfulbusinesswomanturningaroundandlookingatcamerawhiledoingpaperwork"><path fill="#93b5d8" d="M2251.34 1242.48H493.66a5.34 5.34 0 110-10.67H2251.34a5.34 5.34 0 110 10.67zM2251.34 1306.44H493.66a5.34 5.34 0 110-10.67H2251.34a5.34 5.34 0 110 10.67z" class="color93bcd8 svgShape"></path><path fill="#93b5d8" d="M555.68 1589.72a5.34 5.34 0 01-5.34-5.34V1301.1a5.34 5.34 0 0110.68 0v283.28A5.34 5.34 0 01555.68 1589.72zM505.45 1557.91a5.34 5.34 0 01-5.34-5.34V1301.1a5.34 5.34 0 1110.67 0v251.47A5.34 5.34 0 01505.45 1557.91zM2236.44 1560.13a5.33 5.33 0 01-5.34-5.33V1301.1a5.34 5.34 0 0110.68 0v253.7A5.33 5.33 0 012236.44 1560.13zM2186.21 1591.46a5.34 5.34 0 01-5.34-5.34v-285a5.34 5.34 0 0110.68 0v285A5.34 5.34 0 012186.21 1591.46zM998.46 1222.13H607.22a12.91 12.91 0 01-11.92-8L493.21 967.67a13.24 13.24 0 011.21-12.44 12.88 12.88 0 0110.71-5.75H891.78a12.89 12.89 0 0111.92 8l103.88 250.75a10.07 10.07 0 01-.92 9.47A9.84 9.84 0 01998.46 1222.13zm-.74-9.78h0zM505.13 960.15a2.2 2.2 0 00-1.83 1 2.55 2.55 0 00-.23 2.42L605.17 1210a2.25 2.25 0 002.05 1.45H997.35L893.83 961.6a2.25 2.25 0 00-2.05-1.45z" class="color93bcd8 svgShape"></path><path fill="#93b5d8" d="M1226.29,1242.48l-353.43-2.58-262.64-3.11a20.47,20.47,0,0,1-18.82-12.91c-19.17-48.05-97.46-254.53-98.25-256.62a5.34,5.34,0,0,1,10-3.78c.79,2.08,79,208.48,98.19,256.44a9.81,9.81,0,0,0,9,6.19L873,1229.22l353.37,2.59a60.42,60.42,0,0,0,9.89-.71,60.45,60.45,0,0,0-7.24-1.56l-226.2-10a5.34,5.34,0,0,1,.47-10.66l226.51,10,.6.06c5.41.86,21.89,3.46,21.13,13.15C1250.81,1240.68,1237.42,1242.48,1226.29,1242.48Z" class="color93bcd8 svgShape"></path><path fill="#93b5d8" d="M903.27 1240.12a5.34 5.34 0 01-5.34-5.34v-18a5.34 5.34 0 0110.68 0v18A5.34 5.34 0 01903.27 1240.12zM693.71 1127.71H610.44a5.33 5.33 0 01-4.92-3.27L550.78 994.56a5.34 5.34 0 014.92-7.41H774.18a5.35 5.35 0 014.92 3.26L795.34 1029a5.34 5.34 0 11-9.84 4.14l-14.86-35.3H563.74L614 1117h79.73a5.34 5.34 0 110 10.68z" class="color93bcd8 svgShape"></path><path fill="#93b5d8" d="M928.46,1166.25H709.93A5.35,5.35,0,0,1,705,1163l-54.75-129.86a5.34,5.34,0,0,1,4.92-7.41H873.71a5.33,5.33,0,0,1,4.91,3.27l54.76,129.86a5.34,5.34,0,0,1-4.92,7.41Zm-215-10.68H920.42l-50.26-119.18H663.22Z" class="color93bcd8 svgShape"></path><path fill="#cee6ff" d="M989.51,1703.79q-27-3.35-53.07-7.2c-2-.3-3.93-.61-5.88-.88-37.64-5.71-73.88-12.23-108.49-19.61-8.12-1.74-16.17-3.51-24.1-5.34-2.47-23.33-3.93-45.78-3.08-62.83a1.46,1.46,0,0,1,0-.34c.43-7.74,1.31-14.33,2.81-19.39,12.78-43.19,52.67-47.19,53.95-47.31h0c19.86-24.83,48.68-39.62,69.76-47.76,2.95-1.13,5.76-2.14,8.35-3,7.84-2.65,13.88-4.24,16.87-4.94,0,0,0,0,.06,0,1.34-.31,2.07-.46,2.07-.46l0,.21Z" class="colorffe4ce svgShape"></path><path fill="#0575e6" d="M1535.46,1561c-2.53,2.29-6.56,28-10.49,58.16,0,0,0,.06,0,.1-6,45.93-11.83,102.17-11.83,102.17L1395,1723h-.58l-107.79,1.46c-104.67-2.38-204.62-9.21-297.16-20.71q-27-3.35-53.07-7.2c-8.42-57.49-22.78-173.88-6.62-206.48a27.12,27.12,0,0,1,1.86-3.14s5.4-.68,15-1.8c0,0,0,0,.06,0,.67-.06,1.37-.16,2.11-.25,66.73-7.68,310.09-33.06,411-6.65a120.88,120.88,0,0,1,24.1,8.73c29.06,14.82,55.75,27.14,78.38,37.27.1,0,.18.09.28.12l8.23,3.66C1513.53,1546.93,1539.49,1557.3,1535.46,1561Z" class="color5e89bc svgShape"></path><path fill="#021b79" d="M822.07,1681.43a5.68,5.68,0,0,1-.81,0,5.35,5.35,0,0,1-4.47-6.09c9.78-64.29,19.85-110.16,29.91-136.32,1.26-3.22,2.5-6.15,3.72-8.74a70.89,70.89,0,0,1,5.13-9.22c10.8-16,36-29.19,74.8-39.21,88.23-22.85,238.3-27.07,347.89-21.09,6.53.37,15.75,1.4,26.42,2.6,15.39,1.72,34.54,3.87,51.88,4.63a207.25,207.25,0,0,0,26.92-.29,5.34,5.34,0,0,1,1,10.64,218.29,218.29,0,0,1-28.33.31c-17.7-.77-37.06-2.94-52.61-4.68-10.51-1.18-19.59-2.2-25.82-2.55-108.76-5.92-257.5-1.8-344.63,20.76-35.73,9.22-59.45,21.27-68.62,34.85a60,60,0,0,0-4.32,7.8c-1.11,2.36-2.26,5.07-3.42,8-9.79,25.42-19.65,70.53-29.32,134.07A5.33,5.33,0,0,1,822.07,1681.43Z" class="color571519 svgShape"></path><path fill="#021b79" d="M795 1675.43a5.34 5.34 0 01-5.32-5c-1.71-24.13-1.75-45.27-.13-62.84 0-.21 0-.46.07-.74a183 183 0 012.87-19.78c2.54-12.29 6.35-22.26 11.33-29.63 7.71-11.36 24.39-21.45 49.59-30a5.34 5.34 0 014.32 9.75 4.51 4.51 0 01-.49.21l-.29.11c-22.68 7.68-38 16.64-44.29 25.91-4.19 6.2-7.46 14.88-9.72 25.81a177.31 177.31 0 00-2.72 18.81.76.76 0 010 .15c0 .06 0 .13 0 .18-1.59 17-1.55 37.66.13 61.29a5.35 5.35 0 01-5 5.71zm5.1-66.58h0zm.12-.93zM930.55 1701a5.33 5.33 0 01-5.27-4.49c-15.69-98.11-10.36-187-9.14-203.81.09-1 .12-1.46.12-1.5a5.34 5.34 0 0110.66.61s0 .6-.14 1.74c-1.2 16.54-6.46 104.33 9.05 201.28a5.35 5.35 0 01-4.43 6.11A6.18 6.18 0 01930.55 1701z" class="color571519 svgShape"></path><path fill="#cee6ff" d="M1169.45,758.39s60,1.55,82.89,36.9,63,109.13,63,109.13l-77.87,42.49-62.3-47.83Z" class="colorffe4ce svgShape"></path><path fill="#9ccdff" d="M1439.49,1105.28s-106.27-73.41-165.39-131.73l-9.26-35.48s8.94-36.23,43.83-66.27c0,0,98.35,80.69,151.9,111.57Z" class="colorff9cb1 svgShape"></path><path fill="#ffffff" d="M1169.4,656.85c78.86,170,104.7,326.52,104.7,326.52l-244.21,47.68c-25.84-147.82-124-333.37-124-333.37C988.05,675.26,1069.88,661,1169.4,656.85Z" class="colorffffff svgShape"></path><path fill="#ffffff" d="M1140.61,658.47c-8.81-15.11-18.15-30.44-28-45.77-98.07,17.61-177.17,42.81-255.59,76.14,0,0,116.9,162.83,164.8,303.64Z" class="colorffffff svgShape"></path><path fill="#596592" d="M1841.63,783.46c12.75-45.6,8.76-102-6.75-189.59-8-45.42,10.69-171-22.91-226-37.87-60.31-121.69-87.63-197.4-64.49l-17.39,10.21c-35.54-16.19-79.54,21.08-87,30-15,17.8-49.57,68.55-42.19,162.69,5.81,74.13-94.35,202.58-42.67,337.68,0,0-6-102.9,19.82-149.05.49,85.09-9.87,176.56,51.34,225.93Z" class="color926359 svgShape"></path><path fill="#9ccdff" d="M1750.84,688.64s-94.92,26.17-166,95.94c0,0-41.31,74.23-71.71,119.84-36.18,54.27-72.57,98.23-76.45,143.45s18.3,94.3,23.47,148.57-71.07,210.62-76.24,233.88-56.36,11.63-18.85,54.27c42.11,47.86,90.87,56.29,90.87,56.29l551.72-476.73c-71.75-140.83-143.08-263.71-234.23-344C1764.42,712.2,1759.3,696.65,1750.84,688.64Z" class="colorff9cb1 svgShape"></path><path fill="#596592" fill-rule="evenodd" d="M1518.17,337.17c22-21.89,39.44-25.6,62.62-29.48,14.08-2.48,23.45-6.29,69.53-11.65,34.5-3.42,98.56,11.92,109.59,22.1,12.55,11.16,31.69,21.45,31.69,21.45l-32.52,266.78-253.23-95.16s-31-34.36-37-68.33c-2.56-13.28.41-32.44,5.07-44.91C1483.16,381.14,1502.55,353.28,1518.17,337.17Z" class="color926359 svgShape"></path><path fill="#6e87a1" d="M2029,1237.14c-1,10.43-2.5,21.44-4.33,32.88a1.43,1.43,0,0,1-.06.36c-1.56,9.92-3.41,20.17-5.46,30.72-23,118.22-73.44,271.12-93.36,371.82-.18.92-.37,1.8-.52,2.69-151.46,32.48-334,48.71-531,49.81h-.58c.21-.67.45-1.47.76-2.38,6.43-19.43,31-93.4,62.25-182.79q2.74-7.92,5.61-16c25.47-72.65,54.75-153.63,82-223.14,8.9-22.78,17.63-44.35,25.92-64,1.16-2.77,2.32-5.52,3.51-8.2,5-11.62,9.76-22.51,14.37-32.46.85-1.79,1.64-3.56,2.46-5.27,1.13-2.44,2.26-4.82,3.36-7.11,1.28-2.68,2.56-5.25,3.81-7.74.09-.22.19-.4.28-.61,0,0,0,0,0,0,9-18.12,16.92-31.54,23.27-38.74,42.61-48.43,226.74-30.59,321.47-16.84,26.63,3.88,46.21,7.45,53.59,9.09.94.22,1.89.46,2.81.77,12.41,3.78,20.7,13.38,25.71,27.57C2031.64,1176.72,2032.37,1204.23,2029,1237.14Z" class="color6ea0a1 svgShape"></path><path fill="#cee6ff" fill-rule="evenodd" d="M1587.79,706.44s-26.75,6.73-43.2-13c-14.94-18.74-31-41.67-41.75-83.49s-1.49-73.27-1.11-83.78c1.3-33.15-.81-50.45,3.14-63.81,1.16-3.12,7.5-8.9,16.16-20.92,6.61-8.19,17.25-30.54,24.83-32.93,31.3-11.09,54.19,2.05,61.3,11,14.32,17.05,32.47,36.15,59.37,49.74,27,12.79,25.35,27.23,40,48.37,14,20.26,38.38,19.77,38.38,19.77s14.09-2.48,23.8-2.19c20.94,1.55,22.16,19.55,21.35,26.77-1.32,40.46-43.66,48.68-43.66,48.68s-11.77,35.88-2.13,80c-41-7.83-156.8,88-156.8,88Z" class="colorffe4ce svgShape"></path><path fill="#021b79" d="M1579.71,711.65a58.38,58.38,0,0,1-16-1.82c-19.17-5.28-38.78-33.25-50.7-57.66-11.88-24.63-18.3-54.09-19.4-72.38-.37-12.18.5-21.17,1.59-32.55.5-5.14,1-10.76,1.52-17.35,1-11.46.88-22.06.79-32.3-.12-14.77-.24-28.71,2.83-42.78a5.34,5.34,0,0,1,10.43,2.28c-2.82,12.89-2.71,26.26-2.58,40.41.08,10.49.17,21.33-.82,33.23-.49,6.63-1,12.32-1.54,17.53-1.06,11-1.9,19.7-1.56,31,1,17.08,7.1,44.9,18.34,68.19,13.48,27.59,31.17,48.53,44,52.07,10.78,3.17,43.91,2.95,92.84-20.46,26.86-13.12,47.1-38.2,47.31-38.45a5.34,5.34,0,0,1,8.34,6.66c-.88,1.1-21.89,27.18-51,41.4C1626.8,706.59,1597.82,711.65,1579.71,711.65Z" class="color571519 svgShape"></path><path fill="#021b79" d="M1569.45,586.26a5.29,5.29,0,0,1-2.89-.86c-1.84-1.19-17.86-12-16.27-26.13.67-6,4.61-9.2,7.77-11.8,3.52-2.89,6.83-5.61,8-12.68.49-4.33-.63-13.51-2.82-22.58a5.34,5.34,0,1,1,10.38-2.5c2,8.21,3.81,19.5,3,26.54-1.84,11.3-7.59,16-11.78,19.47-2.78,2.28-3.77,3.22-3.94,4.75-.73,6.43,8.27,13.88,11.48,16a5.34,5.34,0,0,1-2.93,9.81Z" class="color571519 svgShape"></path><path fill="#ffffff" fill-rule="evenodd" d="M1574.89,610.2c-21.81-2.14-37.4,1.22-37.4,1.22s5.34,38.72,33.62,41.2c25.86,2.35,40-36.42,40-36.42A358.72,358.72,0,0,0,1574.89,610.2Z" class="colorffffff svgShape"></path><path fill="#021b79" fill-rule="evenodd" d="M1529.77,520.1c1-8.82,5.82-15.58,11.52-15.75,5.61.63,10.5,7.68,9.51,16.5s-5.82,15.59-11.53,15.76S1528.77,528.92,1529.77,520.1Z" class="color571519 svgShape"></path><path fill="#021b79" d="M1554.85 470.91a5.24 5.24 0 01-2.83-.82c-17.32-10.88-31-3.55-31.51-3.23a5.34 5.34 0 01-5.3-9.27c.79-.46 19.54-10.95 42.49 3.46a5.34 5.34 0 01-2.85 9.86zM1547.91 518.05a5.22 5.22 0 01-2.6-.69c-14.39-8.05-22-6.12-27-3.52a5.34 5.34 0 11-4.89-9.49c10.7-5.52 22.85-4.31 37.14 3.7a5.34 5.34 0 01-2.62 10z" class="color571519 svgShape"></path><path fill="#021b79" fill-rule="evenodd" d="M1648.46,533.49c1-8.82-3-16.58-8.62-17.22-6.42-.72-11.95,5.15-13.75,13.89-1,8.82,3,16.58,8.62,17.21C1641.13,548.09,1647.46,542.31,1648.46,533.49Z" class="color571519 svgShape"></path><path fill="#021b79" d="M1664.45 485.71a5.28 5.28 0 01-3-.92c-.28-.19-27.83-18.54-45.44-9.47a5.34 5.34 0 11-4.89-9.49c23.23-12 55 9.21 56.31 10.12a5.34 5.34 0 01-3 9.76zM1650.39 531.23a5.35 5.35 0 01-3.73-1.52c-5-4.84-21.09-10.41-29.24-5a5.34 5.34 0 11-5.88-8.91c12.51-8.24 34.11-2 42.58 6.31a5.34 5.34 0 01-3.73 9.16zM1742.31 616.32a5.34 5.34 0 01-.48-10.66c27.06-2.49 37.09-23.75 40.14-32.77 4-11.5 2.73-21.94-3.47-28s-16.94-6.95-29.27-2.28a5.34 5.34 0 01-3.78-10c16.37-6.21 31.14-4.52 40.5 4.61s11.53 23.64 6.11 39.11c-7.73 22.85-26.15 37.8-49.26 39.92A4 4 0 011742.31 616.32z" class="color571519 svgShape"></path><path fill="#021b79" d="M1755.57 578a5.33 5.33 0 01-4.24-8.57c.72-.94 7.3-9.26 15.85-10.4a5.34 5.34 0 011.41 10.58c-3.55.47-7.63 4.83-8.79 6.32A5.33 5.33 0 011755.57 578zM1722.63 502.83a5.33 5.33 0 01-4.84-3.09c-4.39-9.41-21.25-16.14-39.1-23.27-6.93-2.77-14.1-5.63-21-8.82-32.7-15.16-52.84-37.93-59.89-67.7a5.34 5.34 0 1110.39-2.46c6.25 26.42 24.41 46.77 54 60.47 6.62 3.08 13.66 5.88 20.46 8.6 19.87 7.93 38.64 15.42 44.81 28.67a5.34 5.34 0 01-4.83 7.6zM1735.07 529.41a4.85 4.85 0 01-1-.1c-22.61-4.26-31-8.8-42.79-30.66a5.34 5.34 0 119.4-5.08c10.15 18.79 15.76 21.56 35.37 25.25a5.34 5.34 0 01-1 10.59zM1490.42 466.08a5.34 5.34 0 01-.7-10.63c12.33-1.64 16.21-3.95 21.59-10.05 3.67-4.29 8.64-12 13.91-20.12 15.11-23.38 32.23-49.92 49.06-47.58 8.3 1.13 14.46 8.53 18.84 22.62a5.34 5.34 0 01-10.19 3.17c-2.9-9.32-6.48-14.72-10.1-15.22-10.26-1.37-28 26.28-38.65 42.8-5.7 8.82-10.62 16.44-14.81 21.33-7.57 8.58-14.16 11.75-28.24 13.63A5.52 5.52 0 011490.42 466.08z" class="color571519 svgShape"></path><path fill="#021b79" d="M1425.28 849.29a5.35 5.35 0 01-5-3.43c-33.7-88.12-4.16-173.44 19.58-242 13.29-38.37 24.77-71.51 22.75-97.18-7.17-91.56 24.14-143.65 43.44-166.55 7-8.3 53.93-49.35 93.33-31.4a5.34 5.34 0 01-4.43 9.71c-33.31-15.17-75.52 22.38-80.74 28.57-18.25 21.65-47.83 71.07-41 158.84 2.18 27.88-9.63 62-23.31 101.5-19.62 56.64-43.3 125-30.5 195.92.82-34.51 5.08-82.58 21-111a5.34 5.34 0 019.32 5.22c-24.78 44.25-19.21 145.12-19.15 146.13a5.34 5.34 0 01-4.21 5.53A5.4 5.4 0 011425.28 849.29zM1841.64 788.79a5.48 5.48 0 01-1.44-.19 5.35 5.35 0 01-3.71-6.58c11.58-41.41 9.65-93.9-6.86-187.22-2.77-15.66-2.47-39.76-2.13-67.66.67-54 1.5-121.18-20.09-156.49-36.81-58.62-117.27-84.79-191.28-62.17a5.34 5.34 0 01-3.12-10.21c78.55-24 164.12 4.08 203.48 66.76 23.22 38 22.37 106.88 21.69 162.24-.34 27.37-.64 51 2 65.66 14 79.28 20.53 142.26 6.64 192A5.34 5.34 0 011841.64 788.79zM1746.49 695.25a5.33 5.33 0 01-5.31-4.85c-2.13-23.13-2.79-48.29-1.73-65.66a5.34 5.34 0 0110.66.66c-1 16.86-.39 41.4 1.69 64a5.32 5.32 0 01-4.82 5.8zM1584.86 789.92a5 5 0 01-1.26-.16 5.33 5.33 0 01-3.93-6.44c.09-.39 9.4-39.52 2.62-73.42a5.33 5.33 0 1110.46-2.1c7.26 36.27-2.3 76.35-2.71 78A5.33 5.33 0 011584.86 789.92zM1573.42 658.06c-.92 0-1.84 0-2.79-.13-32.14-2.81-38.19-44-38.43-45.78a5.33 5.33 0 014.16-5.94c.67-.15 16.67-3.52 39.05-1.32h0a360.86 360.86 0 0136.84 6.09 5.34 5.34 0 013.83 7C1615.51 619.71 1601.19 658.06 1573.42 658.06zm-29.57-42.24c2.46 9.7 9.71 29.9 27.73 31.48 16 1.47 27.28-17.41 32-27.22-6.7-1.33-17.86-3.35-29.26-4.57A139.79 139.79 0 001543.85 615.82zM1394.24 1730.81a5.35 5.35 0 01-5.07-7c7-21.54 173.46-528.2 228.17-590.33 61.3-69.62 377.12-10.13 380.23-9.43 12.16 2.73 21.66 9.72 28.24 20.76 31.31 52.53-8.18 192.84-46.38 328.52-21.48 76.28-41.76 148.34-48.4 200.63a5.34 5.34 0 01-10.59-1.34c6.74-53.08 27.13-125.51 48.71-202.18 35.84-127.3 76.45-271.58 47.49-320.16-5.09-8.55-12.1-13.72-21.41-15.82-36.14-8.13-318.12-52.72-369.88 6.07-53.27 60.5-224.32 581.35-226 586.6A5.34 5.34 0 011394.24 1730.81z" class="color571519 svgShape"></path><path fill="#021b79" d="M1493.92 1727a5.26 5.26 0 01-1.51-.22 5.33 5.33 0 01-3.61-6.63c6.12-20.75 150.49-509.07 205.22-571.25 45.06-51.15 234.87-31.17 314.38-20.21a5.34 5.34 0 11-1.46 10.57c-162-22.34-276-16.1-304.9 16.69-53.19 60.43-201.51 562.16-203 567.22A5.34 5.34 0 011493.92 1727zM1828.33 1067.65a5.34 5.34 0 01-4.67-2.73c-27.54-49.23-152.48-155.36-153.74-156.42a5.34 5.34 0 016.9-8.15c5.2 4.41 127.69 108.46 156.16 159.36a5.32 5.32 0 01-4.65 7.94z" class="color571519 svgShape"></path><path fill="#021b79" d="M1456,1546.22a4.77,4.77,0,0,1-.92-.08c-2.07-.36-51.1-9.31-94-58-11.79-13.4-16.31-22.92-14.64-30.86,1.79-8.51,10.08-12.35,17.39-15.75,7-3.23,13.56-6.29,14.9-12.34,1.59-7.14,8.77-24.4,18.71-48.3,22.81-54.81,61-146.55,57.42-183.91-2.14-22.45-7.26-44.12-12.22-65.07-7-29.52-13.57-57.4-11.25-84.46,3.3-38.49,28.65-75.18,58-117.65,6.31-9.13,12.83-18.57,19.32-28.31,30-44.91,71.08-118.74,71.49-119.48a5.42,5.42,0,0,1,.93-1.21c71.23-69.94,164.37-96.19,168.3-97.28a5.34,5.34,0,1,1,2.84,10.29c-.93.26-94,26.53-163.12,94.07-4.24,7.59-42.92,76.58-71.55,119.53-6.54,9.81-13.09,19.29-19.43,28.46-28.48,41.22-53.09,76.82-56.14,112.49-2.18,25.36,4.23,52.43,11,81.09,5,21.31,10.25,43.34,12.46,66.52,3.81,40-33.5,129.68-58.19,189-9,21.62-16.76,40.29-18.15,46.51-2.49,11.2-12.65,15.92-20.83,19.72-5.52,2.56-10.74,5-11.43,8.25-.49,2.34.44,8.25,12.21,21.62,40.25,45.75,87.31,54.48,87.78,54.56a5.34,5.34,0,0,1-.91,10.6Z" class="color571519 svgShape"></path><path fill="#021b79" d="M1813 763.94a5.33 5.33 0 01-3.84-1.62c-7.19-7.44-15.14-15-22.82-22.31-21.3-20.25-39.7-37.74-40.8-50.93a5.34 5.34 0 0110.64-.89c.76 9.14 20.29 27.71 37.51 44.08 7.77 7.39 15.8 15 23.15 22.63a5.33 5.33 0 01-.13 7.54A5.27 5.27 0 011813 763.94zM1029.89 1036.39a5.35 5.35 0 01-5.26-4.42C999.24 886.7 902.11 702 901.13 700.18a5.34 5.34 0 013.31-7.65c89.67-24.45 171.31-37.1 264.74-41a5.34 5.34 0 015.07 3.09c78.25 168.75 104.86 326.32 105.12 327.89a5.34 5.34 0 01-4.25 6.11l-244.21 47.68A5 5 0 011029.89 1036.39zM913.63 701.11c16.65 32.53 96.23 192.45 120.55 323.67l233.74-45.64c-5.19-28.08-33.21-167.63-101.86-316.8C1077.16 666.29 998.86 678.3 913.63 701.11z" class="color571519 svgShape"></path><path fill="#021b79" d="M1021.8,997.82a5.32,5.32,0,0,1-5-3.62C969.66,855.77,853.83,693.57,852.66,692a5.35,5.35,0,0,1,2.25-8c85.61-36.38,164.8-60,256.74-76.48a5.33,5.33,0,0,1,5.43,2.37c9.4,14.59,18.86,30.06,28.14,46a5.34,5.34,0,0,1-9.22,5.38c-8.57-14.69-17.29-29-26-42.58-87.46,15.94-163.42,38.45-244.86,72.6,20.66,29.61,119,174.06,161.69,299.59a5.34,5.34,0,0,1-3.34,6.77A5.43,5.43,0,0,1,1021.8,997.82Z" class="color571519 svgShape"></path><path fill="#cee6ff" d="M1259.25,823.89s-23.72-21.13-41.17-29.18c-13-6-48.85-18-66.44-23.78a7.6,7.6,0,0,0-9.8,8.77,32.5,32.5,0,0,0,12.91,20c17.44,13.08,25.68,13.57,38.27,26.17s29.08,42.64,60.57,52Z" class="colorffe4ce svgShape"></path><path fill="#021b79" d="M1253.59,883.17a5.37,5.37,0,0,1-1.52-.22c-25.44-7.57-41.47-27.5-53.18-42.06-3.64-4.52-6.78-8.43-9.64-11.29-6.62-6.62-11.88-9.6-18.53-13.37a162.58,162.58,0,0,1-19.18-12.3,38.15,38.15,0,0,1-14.94-23.18,12.94,12.94,0,0,1,16.7-14.89c19.47,6.39,54,18,67,24,18,8.29,41.48,29.16,42.48,30a5.34,5.34,0,0,1-7.1,8c-.23-.2-23.34-20.7-39.86-28.32-12.94-6-50.38-18.46-65.87-23.55a2.18,2.18,0,0,0-2.18.44,2.32,2.32,0,0,0-.72,2.21A27.28,27.28,0,0,0,1158,795.39a152.93,152.93,0,0,0,18,11.55c7.07,4,13.17,7.46,20.82,15.11a156.43,156.43,0,0,1,10.41,12.15c11.43,14.21,25.66,31.9,47.91,38.52a5.34,5.34,0,0,1-1.53,10.45Z" class="color571519 svgShape"></path><path fill="#021b79" d="M1300.88,881.49a5.29,5.29,0,0,1-3-.9c-2.15-1.43-3.87-4.25-14.13-23.18-2.68-5-5.6-10.34-8.55-15.65l-2.12-3.86c-9.83-17.94-32.84-60-58.53-63.46a5.34,5.34,0,1,1,1.44-10.58c31,4.22,55,47.91,66.45,68.91l2.09,3.81c3,5.34,5.9,10.76,8.61,15.74,4.54,8.39,9.68,17.88,11.22,19.82a5.34,5.34,0,0,1-3.53,9.35Zm3-9.78Z" class="color571519 svgShape"></path><path fill="#021b79" d="M1460.56 988.71a5.27 5.27 0 01-2.66-.72c-48.23-27.81-130.78-94.3-149.09-109.18-30.47 28-38.71 60.21-38.79 60.54a5.34 5.34 0 01-10.37-2.55c.39-1.55 9.77-38.25 45.53-69a5.34 5.34 0 016.87-.08c1 .8 98.63 80.77 151.18 111.08a5.34 5.34 0 01-2.67 10zM1439.49 1110.62a5.29 5.29 0 01-3-.95c-1.07-.74-107.34-74.35-166.11-132.32a5.34 5.34 0 117.5-7.6c58.1 57.31 163.62 130.41 164.68 131.14a5.34 5.34 0 01-3 9.73z" class="color571519 svgShape"></path><path fill="#cee6ff" d="M1335.58,1332.79l28.72-3.7,2.26-12.68a7.52,7.52,0,0,0,9.69,6.69c5.11-1.66,10.86-6.12,12.85-17.47,3.88-22.09,5.17-42,5.17-42s10.86-21.32,39.41-38.11,66.54-68.49,78.17-72.36,48,8.29,48,8.29c9.14-35.13,2.15-67.4-8.72-99,0,0-61.26-.16-88.36,5.08s-90.87,63-111.37,86.24-35,44.1-39.85,57.16c-4,10.63-7,75.46-8,99.52a7.62,7.62,0,0,0,10.56,7.36,22.56,22.56,0,0,0,11.08-9.94,14.56,14.56,0,0,0,1.14-2.35Z" class="colorffe4ce svgShape"></path><path fill="#021b79" d="M1311.11,1323.77a12.95,12.95,0,0,1-12.93-13.5c3.94-89.23,7.28-98.22,8.38-101.17,5.12-13.77,20-35.22,40.85-58.83s85.14-82.32,114.36-88c27.29-5.27,86.91-5.16,89.38-5.18a5.34,5.34,0,1,1,0,10.67h-.37c-5.07,0-61.76.12-87,5s-87.71,61.11-108.37,84.53c-19.71,22.34-34.24,43.08-38.86,55.49-1.15,3.12-4.22,18.89-7.71,97.9a2.21,2.21,0,0,0,1,2,2.27,2.27,0,0,0,2.22.23,17.4,17.4,0,0,0,8.5-7.68,8.9,8.9,0,0,0,.74-1.5,5.34,5.34,0,0,1,10,3.64,19.62,19.62,0,0,1-1.58,3.28,27.79,27.79,0,0,1-13.63,12.13A13.21,13.21,0,0,1,1311.11,1323.77Z" class="color571519 svgShape"></path><path fill="#021b79" d="M1374,1328.79a12.7,12.7,0,0,1-7-2.16,13,13,0,0,1-5.73-9.81c-1.42-18.46-3.81-51.26-3.88-63.49-.09-17.59,37.37-53.71,44.88-60.78a5.34,5.34,0,0,1,7.32,7.78c-17.28,16.24-41.57,43.41-41.52,52.94.07,12.34,2.71,48,3.84,62.73a2.34,2.34,0,0,0,1,1.76,1.92,1.92,0,0,0,1.69.26c4.86-1.57,8-6,9.25-13.32,3.77-21.52,5.08-41.22,5.09-41.41a5.51,5.51,0,0,1,.57-2.08c.48-.93,11.91-22.91,41.46-40.29,15.29-9,34.14-29.23,49.29-45.48,15.43-16.56,23.77-25.3,29.9-27.35,12.69-4.22,45,6.17,51.4,8.3a5.34,5.34,0,0,1-3.39,10.12c-14.41-4.82-37.79-10.57-44.63-8.29-3.83,1.28-15.33,13.61-25.47,24.49-15.62,16.76-35,37.62-51.68,47.41-23.69,13.93-34.55,31-36.88,35.06-.34,4.68-1.77,22.07-5.15,41.37-2.51,14.28-10.34,19.64-16.47,21.62A12.64,12.64,0,0,1,1374,1328.79Z" class="color571519 svgShape"></path><path fill="#021b79" d="M1358,1338.14a13.72,13.72,0,0,1-2.6-.26,12.83,12.83,0,0,1-10.4-11.09c-6.77-53.18-8.58-84-5.38-91.7,5-12,36.06-56.31,37.38-58.19a5.34,5.34,0,1,1,8.74,6.14c-8.81,12.53-32.48,47.06-36.27,56.16-1.85,4.44-.68,32.84,6.12,86.24a2.25,2.25,0,0,0,1.89,2,1.94,1.94,0,0,0,2.21-1,19.52,19.52,0,0,0,2-8.34,5.33,5.33,0,1,1,10.65.63,29.53,29.53,0,0,1-3.41,13A12.52,12.52,0,0,1,1358,1338.14Z" class="color571519 svgShape"></path><path fill="#021b79" d="M1335.44 1340.9a13 13 0 01-12.93-12c-4.47-62.32-5.6-97-3.35-103.24 4.31-11.87 18.82-30.41 29.42-44 4.25-5.43 7.92-10.13 9.22-12.25a5.33 5.33 0 119.1 5.57c-1.62 2.65-5.28 7.33-9.92 13.25-9.58 12.25-24.06 30.75-27.79 41-1.15 3.92-.81 32.2 4 98.83a2.17 2.17 0 001.24 1.85 2.23 2.23 0 002.28-.12c4.7-3 6.94-8 6.82-15.25a5.34 5.34 0 0110.68-.17c.21 13.79-6.26 20.87-11.73 24.39A12.87 12.87 0 011335.44 1340.9zM1502 926.17a5.34 5.34 0 01-3.06-1c-75.14-52.71-64-222.7-54.32-263.64A5.34 5.34 0 011455 664c-9 37.92-19.61 203.56 50.06 252.43a5.34 5.34 0 01-3.07 9.71z" class="color571519 svgShape"></path><path fill="#021b79" d="M1513.15 909.76a5.31 5.31 0 01-4.08-1.89c-43.6-51.52-34-154.87-33.54-159.25a5.34 5.34 0 0110.62 1c-.1 1-9.6 103.24 31.07 151.31a5.34 5.34 0 01-.63 7.52A5.28 5.28 0 011513.15 909.76zM1643.11 589.39c-17.07 0-36.06-6.58-45.67-14-16-12.46-20.44-40.49-21.32-61.81a12.88 12.88 0 017.8-12.46c37.76-15.64 82.48-.18 101.57 6.43l2.86 1a12.83 12.83 0 018.37 15.27c-3.15 12.9-10.62 37.19-25.23 55C1665.19 586.41 1654.58 589.39 1643.11 589.39zM1620.66 505c-11 0-22.22 1.63-32.66 5.95a2.22 2.22 0 00-1.22 2.16c1.12 26.94 7.24 46.06 17.22 53.82 12.41 9.65 48.41 18.24 59.24 5.05 13.76-16.76 20.74-41.07 23.11-50.75a2.17 2.17 0 00-1.44-2.62h0l-2.91-1C1669.57 513.28 1645.56 505 1620.66 505zM1519 567.42c-12.51 0-25.43-3.2-33.16-10.28-14.59-13.39-10.32-47.1-8.27-63.31l.39-3.2a13 13 0 0113.62-11.46c21.69 1.32 50.81 6 66.35 20.79h0l.73.68c2 1.86 4.77 4.41 5.24 8.7 1 9.3 1.74 32.65-13.51 48.53C1544.53 564 1532 567.42 1519 567.42zm-28.21-77.6a2.26 2.26 0 00-2.22 2.07l-.41 3.28c-1.54 12.16-5.63 44.45 4.9 54.1 11.87 10.89 42.34 8.79 49.64 1.21 12.12-12.63 11.44-32.17 10.59-40a9.74 9.74 0 00-1.87-2l-.86-.8c-10.3-9.81-31.47-16.16-59.63-17.87z" class="color571519 svgShape"></path><path fill="#021b79" d="M1580.78 523a5.31 5.31 0 01-4.31-2.19c-1.4-1.88-6.46-7.59-13.12-2.69a5.34 5.34 0 01-6.33-8.6 18.74 18.74 0 0114.16-3.84c8.26 1.29 13.37 8.09 13.92 8.86a5.33 5.33 0 01-4.32 8.46zM1788.86 555a5.34 5.34 0 01-5.33-5.14c-.57-14.8-55.24-21.92-92-22.06a5.34 5.34 0 010-10.68h0c16.94.07 101.48 1.92 102.65 32.34a5.34 5.34 0 01-5.13 5.53z" class="color571519 svgShape"></path><path fill="#9ccdff" d="M1656.57,770s43.39-56.57,117.58-34.88c84,24.55,178.66,243.82,214.49,295.89,43.57,63.32,43.57,127.92,30.26,138.36-13.59,10.64-60,35-118.12,34.79-50.54-.22-343.7-33-343.7-33,11.25-33.34,9.29-83.09-10.34-116.94,0,0,126.27,10.34,182,7.75s172.54-4.21,210.79,29.72Z" class="colorff9cb1 svgShape"></path><path fill="#021b79" d="M1901.69,1209.54h-.93c-50.25-.21-332.29-31.64-344.28-33a5.32,5.32,0,0,1-4.46-7c10.12-30,10-78.29-9.9-112.55a5.34,5.34,0,0,1,5.05-8c1.26.11,126.57,10.25,181.33,7.74,77.86-3.6,178.28-1.14,214.58,31.06a5.33,5.33,0,1,1-7.08,8c-26.23-23.27-99.75-33.34-207-28.38-46.47,2.14-142.45-4.68-173.08-7,15.72,33.66,16.27,76.48,8.13,106.27,43.15,4.78,291.2,32,336.76,32.21h.86c57.92,0,102.75-24.89,113.94-33.65,9.22-7.23,12.79-67-31.36-131.13-9.09-13.21-21.38-36-36.94-64.91-45.29-84-113.72-211.08-174.66-228.89-69.65-20.36-110.16,30.83-111.85,33a5.34,5.34,0,0,1-8.47-6.51c.46-.59,46.5-59.21,123.32-36.76,65.22,19.07,134.93,148.46,181.06,234.08,14.79,27.47,27.57,51.19,36.33,63.92,43,62.43,47.3,131.35,29.15,145.58C2009.39,1183.64,1962.9,1209.53,1901.69,1209.54Z" class="color571519 svgShape"></path><path fill="#021b79" d="M1540.69 1061a1.06 1.06 0 00.06-.36l-10.6-1.23c.46-4 4.62-11.36 17-10.41a5.34 5.34 0 01-.84 10.64C1542.28 1059.3 1540.88 1060.38 1540.69 1061zM1557.08 1176.58a3.89 3.89 0 01-.59 0c-12.33-1.37-15.26-13.14-15.08-19.18a5.34 5.34 0 0110.67.28c0 1.29.17 7.69 5.59 8.29a5.34 5.34 0 01-.59 10.64zM1259.26 779a5.34 5.34 0 01-4.69-2.8 35.34 35.34 0 00-21.22-17.39 5.34 5.34 0 012.35-10.41A46.07 46.07 0 011264 771.07a5.34 5.34 0 01-4.69 7.88zM1266.48 764a5.37 5.37 0 01-4.6-2.61c-6.92-11.66-14.84-13-15.17-13a5.39 5.39 0 01-4.56-6 5.32 5.32 0 015.83-4.62c.54.06 13.27 1.65 23.08 18.15a5.34 5.34 0 01-4.58 8.07z" class="color571519 svgShape"></path></svg>