<svg xmlns="http://www.w3.org/2000/svg" enable-background="new 0 0 2800 2000" viewBox="0 0 2800 2000" id="SystemUpdate"><rect width="2800" height="2000" fill="#ffffff" fill-rule="evenodd" clip-rule="evenodd" opacity=".5" class="colorffffff svgShape"></rect><path fill="#d5eaff" fill-rule="evenodd" d="M2300.9,523c-146-276.4-565.8-464.4-1053.3-444.6C650.5,103.7,178,431.7,193,812    c6.9,185.6,129.1,349.6,321.4,465.6c146,276.4,565.8,464.4,1053.3,444.6c597.2-25.2,1069.6-353.3,1054.6-733.5    C2615.5,803,2493.3,639,2300.9,523L2300.9,523z" clip-rule="evenodd" class="colord5f0ff svgShape"></path><path fill="#dfefff" fill-rule="evenodd" d="M1401.1,1923c681.4,0,1236.9-29.1,1236.9-65.1s-555.5-65.1-1236.9-65.1s-1237.5,29.1-1237.5,65.1    S719.8,1923,1401.1,1923L1401.1,1923z" clip-rule="evenodd" class="colordfe6ff svgShape"></path><path fill="#96c7f8" fill-rule="evenodd" d="M1407.7,399.6c83.9,0,152.4-68.1,152.4-152.4c0-83.9-68.5-152-152.4-152s-152.4,68.1-152.4,152     C1255.3,331.5,1323.8,399.6,1407.7,399.6L1407.7,399.6z" clip-rule="evenodd" class="colorbe96f8 svgShape"></path><path fill="#81b9f1" d="M1551.4,200.3c-1.4,0-2.8-0.9-3.3-2.3c-9.3-25.6-25.2-48.2-45.8-65.5c-1.5-1.2-1.7-3.4-0.4-4.9       c1.2-1.5,3.4-1.7,4.9-0.4c21.6,18,38.2,41.7,47.9,68.4c0.7,1.8-0.3,3.8-2.1,4.5C1552.2,200.2,1551.8,200.3,1551.4,200.3z" class="color8183f1 svgShape"></path><path fill="#81b9f1" d="M1407.7,403.1c-41.7,0-80.9-16.2-110.3-45.6c-29.4-29.4-45.6-68.6-45.6-110.3       c0-85.7,69.9-155.5,155.9-155.5c26.3,0,51.4,6.4,74.5,18.9c1.7,0.9,2.3,3,1.4,4.7c-0.9,1.7-3,2.3-4.7,1.4       c-22.1-12-46-18.1-71.2-18.1c-82.1,0-148.9,66.6-148.9,148.5c0,82.1,66.8,148.9,148.9,148.9c82.1,0,148.9-66.8,148.9-148.9       c0-11.3-1.3-22-3.8-31.8c-0.5-1.9,0.6-3.8,2.5-4.3c1.9-0.5,3.8,0.6,4.3,2.5c2.7,10.4,4,21.7,4,33.6       C1563.6,333.2,1493.7,403.1,1407.7,403.1z" class="color8183f1 svgShape"></path><path fill="#ffffff" fill-rule="evenodd" d="M1361.6,281.1l-65.4-34.7c-3.2-2-3.9,1.6-2.8,3.5l59.1,64.6c6.3,5.5,11,5.5,18.1,0     c50.4-44.9,100.4-89.8,150.8-134.7c1.6-1.6,0-4.7-2.8-3.2L1361.6,281.1z" clip-rule="evenodd" class="colorffffff svgShape"></path><path fill="#cfe6fd" d="M595.2,999C356.3,999,162,804.7,162,565.9c0-238.8,194.3-433.2,433.2-433.2s433.2,194.3,433.2,433.2      C1028.3,804.7,834,999,595.2,999z M595.2,163.8C373.4,163.8,193,344.1,193,565.9C193,787.6,373.4,968,595.2,968      s402.1-180.4,402.1-402.1C997.3,344.1,816.9,163.8,595.2,163.8z" class="colordfcffd svgShape"></path><path fill="#cfe6fd" d="M595.2,999c-68.9,0-133.2-46.3-180.9-130.5c-46.2-81.4-71.6-188.9-71.6-302.7      c0-113.8,25.4-221.4,71.6-302.7c47.7-84.1,112-130.5,180.9-130.5c68.9,0,133.2,46.3,180.9,130.5      c46.2,81.4,71.6,188.9,71.6,302.7c0,113.8-25.4,221.4-71.6,302.7C728.3,952.7,664.1,999,595.2,999z M595.2,163.8      c-57.3,0-111.9,40.7-153.9,114.7c-43.6,76.8-67.6,178.8-67.6,287.4c0,108.6,24,210.6,67.6,287.4c42,74,96.6,114.7,153.9,114.7      c57.3,0,111.9-40.7,153.9-114.7c43.6-76.8,67.6-178.8,67.6-287.4c0-108.6-24-210.6-67.6-287.4      C707.1,204.5,652.4,163.8,595.2,163.8z" class="colordfcffd svgShape"></path><rect width="31" height="835.3" x="579.6" y="148.2" fill="#cfe6fd" class="colordfcffd svgShape"></rect><rect width="835.3" height="31" x="177.5" y="550.4" fill="#cfe6fd" class="colordfcffd svgShape"></rect><path fill="#cfe6fd" d="M595.2 374.4c-108 0-209.5-35.5-293.5-102.6l-14.1-11.2 13.2-12.3c80.2-74.6 184.7-115.6 294.4-115.6 109.4 0 213.9 41.1 294.4 115.6l13.2 12.3-14.1 11.3C805.9 338 701.7 374.4 595.2 374.4zM335.7 258.8c75.5 55.4 164.8 84.6 259.5 84.6 93.3 0 184.7-29.9 259.4-84.6-72.7-61.4-164.1-95.1-259.4-95.1C499.5 163.8 408.1 197.4 335.7 258.8zM595.2 999c-109.6 0-214.1-40.9-294.4-115.3l-13.2-12.3 14.1-11.3c84.2-67.3 185.7-102.9 293.5-102.9 106.2 0 210.5 36.5 293.5 102.9l14.1 11.3-13.3 12.3C808.9 958.1 704.4 999 595.2 999zM335.7 873.2c72.5 61.2 163.9 94.8 259.4 94.8 95.2 0 186.6-33.5 259.4-94.8-75-54.8-166.4-84.8-259.4-84.8C500.7 788.4 411.4 817.7 335.7 873.2z" class="colordfcffd svgShape"></path><g fill="#000000" class="color000000 svgShape"><path fill="#84c1fe" fill-rule="evenodd" d="M2139.5,119.6l42.7-16.9c7.2-2.9,15.4,0.7,18.3,8l19.7,49.9c25.1-4.6,50.3-4,74.4,1.2l21.3-49.2     c3.1-7.1,11.5-10.4,18.6-7.3l42.1,18.3c7.1,3,10.4,11.4,7.3,18.5l-21.3,49.2c20.3,14,38,32,51.8,53.4l49.8-19.7     c7.3-2.9,15.5,0.7,18.3,8l16.9,42.7c2.9,7.2-0.7,15.4-8,18.3l-49.9,19.8c4.6,25.1,4,50.3-1.2,74.4l49.2,21.3     c7.1,3.1,10.4,11.5,7.3,18.6l-18.3,42.1c-3,7.1-11.4,10.4-18.5,7.3l-49.2-21.3c-14,20.3-32,38-53.4,51.8l19.7,49.8     c2.9,7.3-0.7,15.5-8,18.3l-42.7,16.9c-7.2,2.9-15.4-0.7-18.3-8l-19.8-49.9c-25.1,4.6-50.3,4-74.4-1.2l-21.3,49.2     c-3.1,7.1-11.5,10.4-18.6,7.3l-42.1-18.3c-7.1-3-10.4-11.4-7.3-18.6l21.3-49.2c-20.3-14-38-32-51.8-53.4l-49.8,19.7     c-7.3,2.9-15.5-0.7-18.3-8l-16.9-42.7c-2.9-7.2,0.7-15.4,8-18.3l49.9-19.8c-4.6-25.1-4-50.3,1.2-74.4l-49.2-21.3     c-7.1-3.1-10.4-11.5-7.3-18.6l18.3-42.1c3.1-7.1,11.5-10.4,18.6-7.3l49.2,21.3c14-20.3,32-38,53.4-51.8l-19.7-49.8     C2128.7,130.6,2132.3,122.4,2139.5,119.6L2139.5,119.6z M2218.4,256.6c50.3-19.9,107.2,4.8,127.1,55.1     c19.9,50.3-4.8,107.2-55.1,127.1c-50.3,19.9-107.2-4.8-127.1-55.1C2143.4,333.4,2168,276.5,2218.4,256.6L2218.4,256.6z" clip-rule="evenodd" class="color84b2fe svgShape"></path><path fill="#dfefff" fill-rule="evenodd" d="M2198.7,206.9c77.8-30.8,165.8,7.4,196.5,85.2c30.8,77.8-7.4,165.8-85.2,196.5      c-77.8,30.8-165.8-7.4-196.5-85.2C2082.7,325.6,2120.9,237.6,2198.7,206.9L2198.7,206.9z M2218.4,256.6      c50.3-19.9,107.2,4.8,127.1,55.1c19.9,50.3-4.8,107.2-55.1,127.1c-50.3,19.9-107.2-4.8-127.1-55.1      C2143.4,333.4,2168,276.5,2218.4,256.6L2218.4,256.6z" clip-rule="evenodd" class="colordfe6ff svgShape"></path><path fill="#ffffff" d="M2254.3,501.6c-20.8,0-41.5-4.3-61.1-12.8c-37.7-16.3-66.8-46.4-81.8-84.6c-15.1-38.2-14.4-80,1.9-117.7      c16.3-37.7,46.4-66.8,84.6-81.8c38.2-15.1,80-14.4,117.7,1.9c37.7,16.3,66.8,46.4,81.8,84.6c15.1,38.2,14.4,80-1.9,117.7      c-16.3,37.7-46.4,66.8-84.6,81.8C2292.6,498,2273.4,501.6,2254.3,501.6z M2254.4,198.5c-18.5,0-37.1,3.5-54.9,10.5l0,0      c-37.1,14.6-66.2,42.8-82,79.4c-15.8,36.6-16.5,77.1-1.9,114.2c14.6,37.1,42.8,66.2,79.4,82c36.6,15.8,77.1,16.5,114.2,1.9      c37.1-14.6,66.2-42.8,82-79.4s16.5-77.1,1.8-114.2c-14.6-37.1-42.8-66.2-79.4-82C2294.6,202.6,2274.5,198.5,2254.4,198.5z       M2254.3,448c-13.5,0-27.1-2.8-39.9-8.3c-24.6-10.7-43.5-30.2-53.4-55.2c-9.8-24.9-9.4-52.2,1.3-76.7      c10.7-24.6,30.2-43.5,55.2-53.4c24.9-9.8,52.2-9.4,76.7,1.3c24.6,10.7,43.5,30.2,53.4,55.2c9.8,24.9,9.4,52.2-1.3,76.7      c-10.7,24.6-30.2,43.5-55.2,53.4C2279.2,445.7,2266.8,448,2254.3,448z M2254.2,252.1c-11.7,0-23.5,2.2-35,6.7      c-23.8,9.4-42.5,27.5-52.6,50.9c-10.2,23.4-10.6,49.4-1.2,73.2c14.8,37.6,51,60.5,89.1,60.5c11.7,0,23.5-2.2,35-6.7      c49.1-19.4,73.2-75.1,53.8-124.1C2328.5,275,2292.4,252.1,2254.2,252.1z" class="colorffffff svgShape"></path></g><g fill="#000000" class="color000000 svgShape"><path fill="#62a7ec" fill-rule="evenodd" d="M663.3,347.7h1505.3c47.2,0,85.8,38.6,85.8,85.8v1081.7c0,47.3-38.6,85.9-85.8,85.9H663.3     c-47.2,0-85.8-38.6-85.8-85.9V433.6C577.4,386.4,616.1,347.7,663.3,347.7L663.3,347.7z" clip-rule="evenodd" class="color62cbec svgShape"></path><path fill="#ffffff" fill-rule="evenodd" d="M803.6 701.3h1224.5c61.9 0 112.4 24.3 112.4 54v700.1c0 29.7-50.5 54-112.4 54H803.6c-61.7 0-112.4-24.4-112.4-54V755.4C691.3 725.6 741.9 701.3 803.6 701.3L803.6 701.3zM698 441.4h1435.7c20.8 0 37.9 17 37.9 37.9v102.6c0 20.9-17 37.9-37.9 37.9H698c-20.8 0-37.9-17-37.9-37.9V479.2C660.2 458.4 677.2 441.4 698 441.4L698 441.4z" clip-rule="evenodd" class="colorffffff svgShape"></path><path fill="#71adea" fill-rule="evenodd" d="M768.3,565.9c19.5,0,35.3-15.9,35.3-35.3c0-19.5-15.9-35.3-35.3-35.3c-19.5,0-35.3,15.9-35.3,35.3     C732.9,550,748.8,565.9,768.3,565.9L768.3,565.9z" clip-rule="evenodd" class="colorea718b svgShape"></path><path fill="#4269fe" fill-rule="evenodd" d="M902.1,565.9c19.5,0,35.3-15.9,35.3-35.3c0-19.5-15.9-35.3-35.3-35.3c-19.5,0-35.3,15.9-35.3,35.3     C866.8,550,882.6,565.9,902.1,565.9L902.1,565.9z" clip-rule="evenodd" class="colorfeb542 svgShape"></path><path fill="#96c7f8" fill-rule="evenodd" d="M1035.9,565.9c19.5,0,35.4-15.9,35.4-35.3c0-19.5-15.9-35.3-35.4-35.3c-19.4,0-35.3,15.9-35.3,35.3     C1000.6,550,1016.5,565.9,1035.9,565.9L1035.9,565.9z" clip-rule="evenodd" class="colorbe96f8 svgShape"></path><path fill="#62a7ec" fill-rule="evenodd" d="M1069.2,1310.6h693.4c12.8,0,23.3,10.5,23.3,23.3l0,0c0,12.8-10.5,23.3-23.3,23.3h-693.4       c-12.8,0-23.3-10.5-23.3-23.3l0,0C1045.9,1321.1,1056.4,1310.6,1069.2,1310.6L1069.2,1310.6z" clip-rule="evenodd" class="color62cbec svgShape"></path><path fill="#0575e6" d="M1762.6,1361.5h-693.4c-15.2,0-27.6-12.4-27.6-27.6c0-15.2,12.4-27.6,27.6-27.6h693.4       c15.2,0,27.6,12.4,27.6,27.6C1790.1,1349.2,1777.8,1361.5,1762.6,1361.5z M1069.2,1314.9c-10.5,0-19.1,8.6-19.1,19.1       c0,10.5,8.5,19.1,19.1,19.1h693.4c10.5,0,19.1-8.5,19.1-19.1c0-10.5-8.5-19.1-19.1-19.1H1069.2z" class="color2c7efe svgShape"></path><linearGradient id="a" x1="1400.818" x2="1430.949" y1="917.419" y2="865.231" gradientUnits="userSpaceOnUse"><stop offset="0" stop-color="#2c95fe" class="stopColor2c7efe svgShape"></stop><stop offset="1" stop-color="#ffffff" class="stopColorffffff svgShape"></stop></linearGradient><path fill="url(#a)" fill-rule="evenodd" d="M1415.9,858L1415.9,858c5.2,0,9.5,4.3,9.5,9.5v47.6c0,5.2-4.3,9.5-9.5,9.5l0,0c-5.2,0-9.5-4.3-9.5-9.5       v-47.6C1406.4,862.3,1410.6,858,1415.9,858L1415.9,858z" clip-rule="evenodd"></path><path fill="#0575e6" fill-rule="evenodd" d="M1415.9 1120.1L1415.9 1120.1c5.2 0 9.5 4.3 9.5 9.5v47.6c0 5.2-4.3 9.5-9.5 9.5l0 0c-5.2 0-9.5-4.3-9.5-9.5v-47.6C1406.4 1124.3 1410.6 1120.1 1415.9 1120.1L1415.9 1120.1zM1299.7 906.1L1299.7 906.1c3.7-3.7 9.8-3.7 13.5 0l33.7 33.7c3.7 3.7 3.7 9.8 0 13.5l0 0c-3.7 3.7-9.8 3.7-13.5 0l-33.7-33.7C1296 915.9 1296 909.8 1299.7 906.1L1299.7 906.1zM1485 1091.4L1485 1091.4c3.7-3.7 9.8-3.7 13.5 0l33.7 33.7c3.7 3.7 3.7 9.8 0 13.5l0 0c-3.7 3.7-9.8 3.7-13.5 0l-33.7-33.7C1481.3 1101.2 1481.3 1095.1 1485 1091.4L1485 1091.4z" clip-rule="evenodd" class="color2c7efe svgShape"></path><linearGradient id="b" x1="1492.275" x2="1524.794" y1="957.867" y2="901.542" gradientUnits="userSpaceOnUse"><stop offset="0" stop-color="#2c95fe" class="stopColor2c7efe svgShape"></stop><stop offset="1" stop-color="#ffffff" class="stopColorffffff svgShape"></stop></linearGradient><path fill="url(#b)" fill-rule="evenodd" d="M1532.1,906.1L1532.1,906.1c-3.7-3.7-9.8-3.7-13.5,0l-33.7,33.7c-3.7,3.7-3.7,9.8,0,13.5l0,0       c3.7,3.7,9.8,3.7,13.5,0l33.7-33.7C1535.8,915.9,1535.8,909.8,1532.1,906.1L1532.1,906.1z" clip-rule="evenodd"></path><path fill="#0575e6" fill-rule="evenodd" d="M1346.8,1091.4L1346.8,1091.4c-3.7-3.7-9.8-3.7-13.5,0l-33.7,33.7c-3.7,3.7-3.7,9.8,0,13.5l0,0       c3.7,3.7,9.8,3.7,13.5,0l33.7-33.7C1350.5,1101.2,1350.5,1095.1,1346.8,1091.4L1346.8,1091.4z" clip-rule="evenodd" class="color2c7efe svgShape"></path><linearGradient id="c" x1="1522.844" x2="1551.215" y1="997.006" y2="947.865" gradientUnits="userSpaceOnUse"><stop offset="0" stop-color="#2c95fe" class="stopColor2c7efe svgShape"></stop><stop offset="1" stop-color="#ffffff" class="stopColorffffff svgShape"></stop></linearGradient><path fill="url(#c)" fill-rule="evenodd" d="M1567.8,959.7L1567.8,959.7c-2-4.8-7.6-7.2-12.4-5.2l-44,18.1c-4.8,2-7.2,7.6-5.2,12.4l0,0       c2,4.8,7.6,7.2,12.4,5.2l44-18.1C1567.5,970.2,1569.8,964.6,1567.8,959.7L1567.8,959.7z" clip-rule="evenodd"></path><path fill="#0575e6" fill-rule="evenodd" d="M1325.5,1059.6L1325.5,1059.6c-2-4.8-7.6-7.2-12.4-5.2l-44,18.1c-4.8,2-7.2,7.6-5.2,12.4l0,0       c2,4.8,7.6,7.2,12.4,5.2l44-18.1C1325.2,1070,1327.5,1064.4,1325.5,1059.6L1325.5,1059.6z" clip-rule="evenodd" class="color2c7efe svgShape"></path><linearGradient id="d" x1="1448.84" x2="1481.946" y1="929.708" y2="872.366" gradientUnits="userSpaceOnUse"><stop offset="0" stop-color="#2c95fe" class="stopColor2c7efe svgShape"></stop><stop offset="1" stop-color="#ffffff" class="stopColorffffff svgShape"></stop></linearGradient><path fill="url(#d)" fill-rule="evenodd" d="M1478,870.2L1478,870.2c-4.8-2-10.4,0.4-12.4,5.2l-18,44.1c-2,4.8,0.4,10.4,5.2,12.4l0,0       c4.8,2,10.4-0.4,12.4-5.2l18-44.1C1485.2,877.7,1482.8,872.2,1478,870.2L1478,870.2z" clip-rule="evenodd"></path><path fill="#0575e6" fill-rule="evenodd" d="M1379 1112.8L1379 1112.8c-4.8-2-10.4.4-12.4 5.2l-18 44.1c-2 4.8.4 10.4 5.2 12.4l0 0c4.9 2 10.4-.4 12.4-5.2l18-44.1C1386.2 1120.4 1383.8 1114.8 1379 1112.8L1379 1112.8zM1251.5 1022.4L1251.5 1022.4c0-5.2 4.3-9.5 9.5-9.5h47.6c5.2 0 9.5 4.3 9.5 9.5l0 0c0 5.2-4.3 9.5-9.5 9.5H1261C1255.8 1031.9 1251.5 1027.6 1251.5 1022.4L1251.5 1022.4z" clip-rule="evenodd" class="color2c7efe svgShape"></path><linearGradient id="e" x1="1536.2" x2="1557.618" y1="1040.901" y2="1003.803" gradientUnits="userSpaceOnUse"><stop offset="0" stop-color="#2c95fe" class="stopColor2c7efe svgShape"></stop><stop offset="1" stop-color="#ffffff" class="stopColorffffff svgShape"></stop></linearGradient><path fill="url(#e)" fill-rule="evenodd" d="M1513.6,1022.4L1513.6,1022.4c0-5.2,4.3-9.5,9.5-9.5h47.6c5.2,0,9.5,4.3,9.5,9.5l0,0       c0,5.2-4.3,9.5-9.5,9.5h-47.6C1517.9,1031.9,1513.6,1027.6,1513.6,1022.4L1513.6,1022.4z" clip-rule="evenodd"></path><path fill="#0575e6" fill-rule="evenodd" d="M1353.8 870.2L1353.8 870.2c4.9-2 10.4.4 12.4 5.2l18 44.1c2 4.8-.4 10.4-5.2 12.4l0 0c-4.8 2-10.4-.4-12.4-5.2l-18-44.1C1346.6 877.7 1348.9 872.2 1353.8 870.2L1353.8 870.2zM1452.8 1112.8L1452.8 1112.8c4.8-2 10.4.4 12.4 5.2l18 44.1c2 4.8-.4 10.4-5.2 12.4l0 0c-4.8 2-10.4-.4-12.4-5.2l-18-44.1C1445.6 1120.4 1448 1114.8 1452.8 1112.8L1452.8 1112.8zM1263.9 959.7L1263.9 959.7c2-4.8 7.6-7.2 12.4-5.2l44 18.1c4.8 2 7.2 7.6 5.2 12.4l0 0c-2 4.8-7.6 7.2-12.4 5.2l-44-18.1C1264.3 970.2 1261.9 964.6 1263.9 959.7L1263.9 959.7z" clip-rule="evenodd" class="color2c7efe svgShape"></path><linearGradient id="f" x1="1530.692" x2="1543.367" y1="1083.248" y2="1061.295" gradientUnits="userSpaceOnUse"><stop offset="0" stop-color="#2c95fe" class="stopColor2c7efe svgShape"></stop><stop offset="1" stop-color="#ffffff" class="stopColorffffff svgShape"></stop></linearGradient><path fill="url(#f)" fill-rule="evenodd" d="M1506.2,1059.6L1506.2,1059.6c2-4.8,7.6-7.2,12.4-5.2l44,18.1c4.8,2,7.2,7.6,5.2,12.4l0,0       c-2,4.8-7.6,7.2-12.4,5.2l-44-18.1C1506.6,1070,1504.2,1064.4,1506.2,1059.6L1506.2,1059.6z" clip-rule="evenodd"></path><g fill="#000000" class="color000000 svgShape"><path fill="#0575e6" fill-rule="evenodd" d="M1069.2,1310.6h467.7v46.6h-467.7c-12.8,0-23.3-10.5-23.3-23.3l0,0       C1045.9,1321.1,1056.4,1310.6,1069.2,1310.6L1069.2,1310.6z" clip-rule="evenodd" class="color2c7efe svgShape"></path></g><g fill="#000000" class="color000000 svgShape"><path fill="#0627a3" d="M1301.7 1221.9h11v30.6c0 3.8.5 6.3 1.4 7.8 1 1.4 2.6 2.2 5 2.2 2.4 0 4.1-.7 5-2.2 1-1.4 1.5-4 1.5-7.8v-30.6h10.5v29.4c0 6.6-1.4 11.4-4.2 14.6-2.8 3.1-7.2 4.7-13 4.7-5.8 0-10.2-1.6-13-4.7-2.8-3.1-4.2-8-4.2-14.6V1221.9zM1345.3 1221.9h12c3.2 0 5.8.2 7.6.5 1.9.3 3.4.8 4.6 1.6 2.2 1.3 3.9 3.1 5.1 5.3 1.2 2.2 1.7 4.9 1.7 7.9 0 5-1.5 8.8-4.4 11.3-2.9 2.5-7.3 3.8-13.1 3.8h-2.6v17.5h-11V1221.9zM1356.3 1229.9v14.3h2.6c2.4 0 4.2-.6 5.2-1.7 1-1.1 1.6-3 1.6-5.6 0-2.5-.5-4.3-1.6-5.4-1.1-1.1-2.9-1.6-5.5-1.6H1356.3zM1382.7 1221.9h12.2c8.7 0 15.1 1.9 19.3 5.8 4.2 3.9 6.2 9.9 6.2 18.1 0 7.8-2.2 13.7-6.5 17.8-4.4 4.1-10.7 6.1-19 6.1h-12.2V1221.9zM1393.7 1229.9v31.8h1.4c4.6 0 8-1.3 10.3-4 2.3-2.7 3.5-6.6 3.5-11.9 0-5.4-1.1-9.4-3.4-12-2.3-2.6-5.7-3.9-10.4-3.9H1393.7zM1438.5 1221.9h12.7l14.9 47.9h-11.4l-2.8-10.7h-15.4l-2.9 10.7h-10.7L1438.5 1221.9zM1444.7 1231.4l-5.7 19.5h10.8L1444.7 1231.4zM1464.2 1221.9h31.9v8.6h-10.4v39.3h-11v-39.3h-10.4V1221.9zM1502.1 1221.9h27.3v8H1513v11.5h15.4v8H1513v12.3h17v8.1h-28V1221.9z" class="color0643a3 svgShape"></path></g></g><g fill="#000000" class="color000000 svgShape"><path fill="#0627a3" fill-rule="evenodd" d="M1851.7,1644.8c-31.8-331.9,293.8-735.6,512.5-682c310.4,76.1,221.5,673,78,811.8      C2299,1913.3,1880.4,1942.6,1851.7,1644.8L1851.7,1644.8z" clip-rule="evenodd" class="color0643a3 svgShape"></path><path fill="#0575e6" fill-rule="evenodd" d="M2480.4,1031.7c29.2,202.4-37.4,453.5-124.1,537.4c-107.5,104.1-370.3,146.6-506.5,35.2      c-3.7-323.1,304.4-692.9,514.4-641.4C2412,974.5,2450.2,998.7,2480.4,1031.7L2480.4,1031.7z" clip-rule="evenodd" class="color2c7efe svgShape"></path><g fill="#000000" class="color000000 svgShape"><path fill="#6686ff" fill-rule="evenodd" d="M2303,1405.9l15.7,28.5l-16.8,12.6c-14.3,20.7-31.4,80.4-42.6,61.6l8-83l20.6-5.2L2303,1405.9z" clip-rule="evenodd" class="colorff9866 svgShape"></path><path fill="#3a5cdb" fill-rule="evenodd" d="M1833.5,1723.8l-29.3,19.9c-8.9,18.2-103.8-16.4-96.2,39.5c49.5,8.4,94.6,14.9,144.1,23.3      c7.5-14.5,7.1-31.9,1.8-54.6C1844.1,1743.2,1843.4,1732.4,1833.5,1723.8L1833.5,1723.8z" clip-rule="evenodd" class="colordb3a55 svgShape"></path><path fill="#71adea" fill-rule="evenodd" d="M1932.2,1763l-30.2,19.6c-29.5,14.8-103-16.2-95.4,39.8c49.7,8.4,99.4,16.8,148.8,25.3      c4.2-16.6,8.5-37.9,3.1-60.4L1932.2,1763z" clip-rule="evenodd" class="colorea718b svgShape"></path><path fill="#021b79" fill-rule="evenodd" d="M2001.7,1433.6c-15.7-0.4-28.4-1.7-65.7-2.1c-37.2-1.5-68,17.7-75.3,45.8l-55.1,255.9l54,18.9l64.9-219.1      c17.7,3,34.4,7.2,50.8,11.8L2001.7,1433.6z" clip-rule="evenodd" class="color060352 svgShape"></path><path fill="#0b31c0" fill-rule="evenodd" d="M2194.2,1373.9l-75.5,40.4c-39.2,7.2-62.2,6.9-121.5,14.7c-40,4-70.3,29.3-73.8,60.6l-19.8,282.5      l60.8,11.9l35.8-244.5c115.2,3.2,209.2,53.9,260.4,0.8c28.4-30.4,22.1-62.6,17-93.7L2194.2,1373.9z" clip-rule="evenodd" class="color260bc0 svgShape"></path><path fill="#71adea" fill-rule="evenodd" d="M2334.2,1154.6c46.9,43.1,92.1,100.6,129.6,150.3c5,8.9,3,15.5-2.3,20.2l-149.4,119.8l-20.1-33.1      l94.4-93.9l-61.5-40.5l-48,170.3c-64.8,32.3-104-28.2-159.2-35.9c15.2-60,14.9-122.5,30.1-182.6c-26.8,39.3-39.9,42-46.9,50.9      c0,0-5.2,3.5-15.5,12.6l-71,56.3l-18.6-29.7l56.6-56.6l109.3-131.9C2173.2,1112.1,2297.8,1124.6,2334.2,1154.6L2334.2,1154.6z" clip-rule="evenodd" class="colorea718b svgShape"></path><path fill="#6686ff" fill-rule="evenodd" d="M2206.5,1101.9l54.4-14.2l14.9,48.8c-19.4,21.7-44.5,17.8-60.8,12.2L2206.5,1101.9z" clip-rule="evenodd" class="colorff9866 svgShape"></path><path fill="#81c0ff" fill-rule="evenodd" d="M2273.7,973.2c-36.6,2.1-73.4,4-110.2,6.1c-8.3,23.3,6.3,113.6,28.8,132.8c28.1,24.3,69.9-1,78-29.1      C2279.2,1057,2284.3,994.3,2273.7,973.2L2273.7,973.2z" clip-rule="evenodd" class="colorffaa81 svgShape"></path><path fill="#021b79" fill-rule="evenodd" d="M2200.3,992.7c-13.7-6.4-26,12.3-39.1,5.3c-22-25-29.4-51.4,10.6-71.8c0.1,6.5,4.3,9.2,7,10.2      c5.7-4.1,10.4-11.4,21.5-11.3c-6.3,7.6-6.7,12.2-2.2,17.7c15.3,3.5,35.7-12.8,57.6-7.3c20.4,7.5,28.6,18,35.9,32.5      c16.7,38.8-4.3,67.5-13.3,82.8c-4,3.8-5.7,5.4-20-6.9c11.1-12,15.9-27.5,2.9-35.1c-18.3-11.2-10,15-22.8,19.6      C2236.6,1017,2210.4,996.2,2200.3,992.7L2200.3,992.7z" clip-rule="evenodd" class="color060352 svgShape"></path><path fill="#0077ef" fill-rule="evenodd" d="M1964.8,1409.5l200.2,16.8c2.5,0.3,4.3,2.5,4.1,5l-0.6,7.1c-0.1,2.5-2.5,4.5-5,4.1l-200.2-16.8      c-2.5-0.1-4.5-2.5-4.4-5l0.8-6.9C1959.9,1411.1,1962.1,1409.3,1964.8,1409.5L1964.8,1409.5z" clip-rule="evenodd" class="color00aeef svgShape"></path><path fill="#62a7ec" fill-rule="evenodd" d="M1859.5,1266.9c30.7,2.6,61.6,5.3,92.3,7.9c30.7,2.4,61.6,5.1,92.3,7.7c5.2,0.5,10.2,5.1,11.2,10.4      c3.7,22.2,7.6,44.4,11.5,66.6c3.7,22.2,7.6,44.4,11.3,66.4c1,5.3-2.6,9.3-7.6,8.8c-30.7-2.6-61.4-5.3-92.1-7.9      c-30.5-2.4-61.2-5-91.9-7.7c-5.2-0.5-10-5.1-11-10.2c-3.9-22.2-7.8-44.4-11.9-66.7c-3.9-22.2-7.8-44.4-11.7-66.7      C1851,1270.5,1854.3,1266.4,1859.5,1266.9L1859.5,1266.9z" clip-rule="evenodd" class="color62cbec svgShape"></path><path fill="#ffffff" fill-rule="evenodd" d="M1966.5,1332.4c6.9,0.6,6.8,1.6,9.9,3.4c-5,2.7-7.8,8.6-6.5,15.6c1.1,7,6,13.5,12.1,17.2      c-2.4,1.6-2,2.4-8.9,1.8c-6.9-0.6-20-10-22-20.6C1949.3,1339.3,1959.6,1331.8,1966.5,1332.4L1966.5,1332.4z" clip-rule="evenodd" class="colorffffff svgShape"></path></g></g><g fill="#000000" class="color000000 svgShape"><path fill="#99cbfe" fill-rule="evenodd" d="M446.6,1494.5c16.5-37.1,74.2,19.5,79-6c-3.7-37.3-53.3-128.2,34.6-162.2c162-59.4-0.3,151.8,22.3,202.6       c13.3,22.5,81.5-16,73.6,32.8c-16.4,59.9-106.2,68.2-159.3,102.2C480,1607.4,429.6,1537,446.6,1494.5L446.6,1494.5z" clip-rule="evenodd" class="color9999fe svgShape"></path><path fill="#cce5fe" d="M471.4,1753.6c-0.3,0-0.5,0-0.8-0.1c-1.7-0.4-2.7-2.1-2.2-3.8c9.7-38.3,24.8-85.2,39.5-130.5        c16-49.5,32.5-100.6,42.7-142.6c11.3-46.6,13.4-75.9,6.3-89.5c-0.8-1.5-0.2-3.4,1.3-4.2c1.5-0.8,3.4-0.2,4.2,1.3        c17.3,33.1-14.7,132.1-48.5,236.9c-14.6,45.3-29.7,92.1-39.4,130.1C474,1752.6,472.8,1753.6,471.4,1753.6z" class="colorccccfe svgShape"></path><path fill="#cce5fe" d="M513.8 1613.9c-.5 0-1-.1-1.4-.4-1.5-.8-2.1-2.7-1.3-4.2 14.8-28.3 42.8-32.7 80.7-35.8 1.7-.2 3.2 1.1 3.3 2.8.1 1.7-1.1 3.2-2.8 3.3-41.6 3.4-63.5 9.1-75.8 32.5C516 1613.3 514.9 1613.9 513.8 1613.9zM524.1 1582c-.2 0-.4 0-.6-.1-1.7-.3-2.8-1.9-2.5-3.6 4.7-25.1-22.6-61.6-37-67.6-1.6-.7-2.3-2.5-1.7-4 .6-1.6 2.5-2.3 4-1.7 16.7 6.9 46 45.6 40.7 74.4C526.8 1581 525.5 1582 524.1 1582z" class="colorccccfe svgShape"></path><path fill="#cce5fe" fill-rule="evenodd" d="M308.3,1516.7c-3.8-44.6,82.2-20.7,73.1-48c-23.5-34.1-120.1-95.3-53.3-175.1       c124.7-144,80.7,146.8,129.8,183.7c24.9,14.7,70.1-59,88.5-7.6c16.2,66.5-66.1,122.6-99.1,183.8       C400.9,1607.9,314.7,1566.7,308.3,1516.7L308.3,1516.7z" clip-rule="evenodd" class="colorccccfe svgShape"></path><path fill="#99cbfe" d="M469.1,1753.7c-1.4,0-2.6-0.9-3-2.3c-11.1-42.2-21.6-95.6-31.7-147.3c-11-56.3-22.4-114.5-35-160.5        c-14-51.1-27.7-80.5-42-90c-1.4-0.9-1.8-2.9-0.9-4.3c0.9-1.4,2.9-1.8,4.3-0.9c15.7,10.4,29.9,40.1,44.5,93.5        c12.7,46.2,24.1,104.6,35.1,161c10.1,51.6,20.5,104.9,31.6,146.9c0.4,1.7-0.6,3.3-2.2,3.8        C469.6,1753.7,469.4,1753.7,469.1,1753.7z" class="color9999fe svgShape"></path><path fill="#99cbfe" d="M435.4 1596.1c-1.7 0-3.1-1.3-3.1-3-.9-35 23.8-54.2 58.7-77.5 1.4-.9 3.3-.6 4.3.9.9 1.4.6 3.3-.9 4.3-38.5 25.7-56.6 43.1-55.9 72.2C438.6 1594.7 437.2 1596.1 435.4 1596.1 435.5 1596.1 435.4 1596.1 435.4 1596.1zM428.2 1559.9c-1.3 0-2.5-.8-2.9-2.1-8.9-26.9-55-47.7-72.1-45.7-1.7.2-3.2-1-3.4-2.7-.2-1.7 1-3.2 2.7-3.4 9.9-1.2 27 3.8 42.6 12.5 10.9 6 30 18.9 36.1 37.4.5 1.6-.3 3.4-2 3.9C428.9 1559.9 428.5 1559.9 428.2 1559.9z" class="color9999fe svgShape"></path><polygon fill="#96c7f8" fill-rule="evenodd" points="505.4 1857.9 533.3 1871.6 472.9 1871.6 412.4 1871.6 440.4 1857.9" clip-rule="evenodd" class="colorbe96f8 svgShape"></polygon><path fill="#cfe6fd" fill-rule="evenodd" d="M600.8,1743.7c-5.4,65.9-60.6,117.8-128,117.8c-67.3,0-122.5-51.9-127.9-117.8H600.8z" clip-rule="evenodd" class="colordfcffd svgShape"></path><path fill="#ffffff" fill-rule="evenodd" d="M443.9,1845.7c-43.4-6.3-78.6-44.2-84.7-92.7l9.8-0.5c6.2,45.2,36.2,81.3,74.9,93.1V1845.7z" clip-rule="evenodd" class="colorffffff svgShape"></path></g></svg>