<svg xmlns="http://www.w3.org/2000/svg" viewBox="0 0 2000 2000" id="SystemSecurityUpdate"><linearGradient id="a" x1="910.25" x2="910.25" y1="1475.248" y2="1668.749" gradientUnits="userSpaceOnUse"><stop offset="0" stop-color="#b3d8fd" class="stopColorb3cdfd svgShape"></stop><stop offset=".987" stop-color="#ffffff" class="stopColorffffff svgShape"></stop></linearGradient><ellipse cx="910.25" cy="1545.32" fill="url(#a)" rx="736.91" ry="14.46"></ellipse><linearGradient id="b" x1="129.041" x2="2064.797" y1="1677.617" y2="238.959" gradientUnits="userSpaceOnUse"><stop offset="0" stop-color="#b3d8fd" class="stopColorb3cdfd svgShape"></stop><stop offset=".987" stop-color="#ffffff" class="stopColorffffff svgShape"></stop></linearGradient><path fill="url(#b)" d="M736.76 1259.53c89.11-52.31 189.34-82.58 289.86-106.5 128.35-30.54 263.36-53.35 371.26-129.28 110.04-77.44 180.55-208.28 184.77-342.77-39.69-30.03-83.06-46.36-127.55-52.23-113.8-15.03-234.91 38.24-320.4 105.11-18.94 14.81-36.13 30.29-51.1 45.84-118.84 123.41-310.82 226.26-612.49 367.95-301.68 141.7-214.83 397.66-214.83 397.66s105.07-.22 255.05-.46h2.01c3.87-20.78 10.04-41.2 17.91-60.8 38.5-95.88 116.4-172.21 205.51-224.52z"></path><linearGradient id="c" x1="1883.183" x2="489.196" y1="587.483" y2="2054.075" gradientUnits="userSpaceOnUse"><stop offset="0" stop-color="#b3d8fd" class="stopColorb3cdfd svgShape"></stop><stop offset=".987" stop-color="#ffffff" class="stopColorffffff svgShape"></stop></linearGradient><path fill="url(#c)" d="M1510.97 1545.32c18.05-20.16 29.34-41.73 36.05-63.96 26.54-87.84-18.34-185.87.51-246.86 4.14-13.39 13.44-31.3 25.36-52.7 60.8-109.07 189.91-308.67 52.35-461.52-13.6-15.11-27.84-28.14-42.59-39.3-4.22 134.49-74.73 265.33-184.77 342.77-107.9 75.93-242.91 98.73-371.26 129.28-100.52 23.92-200.75 54.19-289.86 106.5-89.11 52.31-167.01 128.65-205.51 224.53-7.87 19.59-14.04 40.02-17.91 60.8 141.31-.22 322.03-.46 492.25-.53 225.77-.1 433.07.1 505.38.99z"></path><ellipse cx="1444.53" cy="1023.5" fill="#444856" rx="18.25" ry="18.6" class="color444c56 svgShape"></ellipse><path fill="#444856" d="M1414.43 996.22a4.48 4.48 0 0 0 0 6.26 4.293 4.293 0 0 0 6.15 0 32.872 32.872 0 0 1 47.04 0c.85.86 1.96 1.3 3.07 1.3 1.11 0 2.22-.43 3.07-1.3a4.48 4.48 0 0 0 0-6.26c-16.35-16.67-42.97-16.67-59.33 0z" class="color444c56 svgShape"></path><path fill="#444856" d="M1444.1 961.49c-15.81 0-30.68 6.27-41.86 17.66a4.48 4.48 0 0 0 0 6.26 4.293 4.293 0 0 0 6.15 0c9.54-9.72 22.22-15.07 35.71-15.07 13.49 0 26.17 5.35 35.71 15.07.85.86 1.96 1.3 3.07 1.3 1.11 0 2.22-.43 3.07-1.3a4.48 4.48 0 0 0 0-6.26c-11.18-11.39-26.04-17.66-41.85-17.66z" class="color444c56 svgShape"></path><path fill="#444856" d="M1495.56 962.09c-13.75-14.01-32.03-21.72-51.47-21.72s-37.72 7.71-51.47 21.72a4.48 4.48 0 0 0 0 6.26 4.293 4.293 0 0 0 6.15 0c12.11-12.33 28.2-19.13 45.32-19.13s33.22 6.79 45.32 19.13a4.272 4.272 0 0 0 6.14 0 4.47 4.47 0 0 0 .01-6.26z" class="color444c56 svgShape"></path><path fill="#0053a7" d="M1786.2 661c-44.07 0-79.93 35.86-79.93 79.93 0 44.08 35.86 79.93 79.93 79.93 44.07 0 79.93-35.85 79.93-79.93-.01-44.08-35.86-79.93-79.93-79.93zm0 15.32c35.62 0 64.6 28.98 64.6 64.6 0 35.62-28.98 64.6-64.6 64.6-35.62 0-64.6-28.98-64.6-64.6-.01-35.62 28.97-64.6 64.6-64.6zM337.17 627.66c-32.44 0-58.73 26.3-58.73 58.73v57.72c0 10.01 7.15 18.35 16.62 20.2 2.3.45 4.69-.14 6.58-1.52l10.19-7.42c3.93-2.86 9.24-2.96 13.27-.24l7.89 5.32c3.77 2.54 8.72 2.47 12.41-.19l7.03-5.07a11.02 11.02 0 0 1 14.08 1l4.47 4.31c3.48 3.35 8.68 4.31 13.05 2.26 7.02-3.28 11.88-10.4 11.88-18.66v-57.72c0-32.42-26.3-58.72-58.74-58.72zm-15.94 62.26c0 5.79-4.69 10.48-10.48 10.48s-10.48-4.69-10.48-10.48v-11.85c0-5.79 4.69-10.48 10.48-10.48s10.48 4.69 10.48 10.48v11.85zm52.85 0c0 5.79-4.69 10.48-10.48 10.48s-10.48-4.69-10.48-10.48v-11.85c0-5.79 4.69-10.48 10.48-10.48s10.48 4.69 10.48 10.48v11.85z" class="color00a79d svgShape"></path><path fill="#92c8ff" d="M1140.72 455.48c-2.83 2.6-4.62 6.33-4.61 10.47.01 7.84 6.4 14.21 14.24 14.2 7.84-.01 14.21-6.4 14.2-14.24 0-3.77-1.5-7.2-3.91-9.74 4.1-6.6 8.7-10.65 10.55-10.24l1.23-5.55c-6.61-1.46-13.36 7.65-16.44 12.52-1.74-.76-3.66-1.18-5.68-1.18-1.66 0-3.24.3-4.73.83-3.19-4.94-9.79-13.56-16.24-12.11l1.24 5.55c1.81-.41 6.15 3.32 10.15 9.49zm18.14 10.44c.01 4.71-3.82 8.54-8.52 8.54-4.71.01-8.54-3.82-8.54-8.52-.01-4.71 3.82-8.54 8.52-8.54 4.7-.01 8.53 3.82 8.54 8.52z" class="color9892ff svgShape"></path><path fill="#92c8ff" d="m1209.44 554.14-10.53-34.94-12.67.02c-.18-3.9-.75-8.02-1.66-12.09l11.73-.02 6.41 6.4a7.04 7.04 0 0 0-.96 3.55c.01 3.92 3.2 7.11 7.12 7.1 3.92-.01 7.11-3.2 7.1-7.12 0-3.92-3.2-7.11-7.12-7.1-.52 0-1.02.06-1.5.17l-8.71-8.68-15.6.02c-.39-1.26-.8-2.51-1.25-3.72-.75-2-1.57-3.9-2.46-5.71 17.39-13.38 17.39-13.78 17.39-15.47l-.02-16.06c2.31-1.18 3.91-3.58 3.9-6.35-.01-3.92-3.2-7.11-7.12-7.1-3.92.01-7.11 3.2-7.1 7.12 0 3.04 1.93 5.64 4.63 6.65l.02 14.61c-2.01 1.79-8.24 6.73-14.5 11.56-2.68-4.23-5.79-7.72-9.24-10.33l-2.45-1.85-1.66 2.58c-2.83 4.4-7.63 7.03-12.85 7.04-5.28.01-10.12-2.66-12.95-7.14l-1.64-2.59-2.46 1.82c-3.39 2.51-6.3 5.78-8.74 9.51-5.81-4.48-11.33-8.85-13.2-10.51l-.02-14.61c2.69-1.02 4.62-3.61 4.61-6.66 0-3.92-3.2-7.11-7.12-7.1-3.92 0-7.11 3.2-7.1 7.12 0 2.77 1.6 5.17 3.92 6.34l.02 16.06c0 1.65.01 2.07 16.02 14.34-1.69 3.34-3.07 6.9-4.15 10.53l-13.73.02-8.68 8.71c-.49-.1-.99-.16-1.5-.16-3.92.01-7.11 3.2-7.1 7.12.01 3.92 3.2 7.11 7.12 7.1 3.92 0 7.11-3.2 7.1-7.12 0-1.29-.36-2.5-.96-3.55l6.4-6.41 9.91-.01c-.89 4.15-1.4 8.26-1.55 12.09l-10.93.01-10.44 34.97c-3.34.59-5.88 3.5-5.88 7 .01 3.92 3.2 7.11 7.12 7.1 3.92-.01 7.11-3.2 7.1-7.12 0-2.3-1.11-4.34-2.81-5.64l9.15-30.63 6.78-.01c1.22 13.78 10.16 25.55 23.18 30.39v.07l2 .62 3.69 1.13V557c2.28.44 4.6.67 6.93.67 2.46 0 4.89-.26 7.29-.76v.22l3.71-1.2 1.97-.64v-.07a35.753 35.753 0 0 0 22.75-30.31l8.52-.01 9.23 30.61c-1.7 1.3-2.8 3.35-2.8 5.65 0 3.92 3.2 7.11 7.12 7.1 3.92-.01 7.11-3.2 7.1-7.12.01-3.51-2.54-6.42-5.88-7zm1.57-37.09c0 1.18-.95 2.13-2.13 2.14a2.14 2.14 0 0 1-2.14-2.13 2.134 2.134 0 1 1 4.27-.01zm-17.5-65.04c1.18 0 2.13.95 2.14 2.13 0 1.18-.95 2.13-2.13 2.14a2.14 2.14 0 0 1-2.14-2.13c-.01-1.18.95-2.14 2.13-2.14zm-84.67.11c1.18 0 2.13.95 2.14 2.13 0 1.18-.95 2.13-2.13 2.14a2.14 2.14 0 0 1-2.14-2.13c0-1.18.96-2.14 2.13-2.14zm-15.2 67.21c-1.18 0-2.13-.95-2.14-2.13s.95-2.13 2.13-2.14c1.18 0 2.13.95 2.14 2.13.01 1.18-.95 2.14-2.13 2.14zm.77 44.09a2.14 2.14 0 0 1-2.14-2.13c0-1.18.95-2.13 2.13-2.14 1.18 0 2.13.95 2.14 2.13 0 1.18-.95 2.13-2.13 2.14zm49.09-12.24-.06-44 14.22-.02.06 43.91a30.513 30.513 0 0 1-14.22.11zm19.91-2.15-.06-47.56-25.6.03.06 47.74c-10.67-4.85-17.62-15.45-17.63-27.45-.02-17.78 7.06-32.01 14.34-38.87 3.96 4.56 9.68 7.2 15.84 7.19 6.08-.01 11.74-2.61 15.69-7.09 9.55 8.94 14.55 25.77 14.57 38.69.01 11.83-6.76 22.36-17.21 27.32zm44.82 14.24a2.14 2.14 0 0 1-2.14-2.13c0-1.18.95-2.13 2.13-2.14 1.18 0 2.13.95 2.14 2.13 0 1.18-.96 2.14-2.13 2.14z" class="color9892ff svgShape"></path><path fill="#3591ed" d="M1562.86 1260.41s41.85-161.75 105.79-165.81c63.94-4.07-65.77 165.81-65.77 165.81h-40.02z" class="color5035ed svgShape"></path><path fill="#92c8ff" d="M1530.93 1184.23s-17.91-117.09-44.24-118.61c-26.33-1.53-14.11 60.5-4.7 104.73 9.4 44.23 15.52 90.06 15.52 90.06h36.2l-2.78-76.18z" class="color9892ff svgShape"></path><path fill="#0053a7" d="M1487.3 1197.17s-27.41-61.9-55.62-57.32c-28.21 4.58-15.62 41.26 19.6 78.1 30.74 32.16 40.36 42.46 40.36 42.46h15.74l-20.08-63.24z" class="color00a79d svgShape"></path><path fill="#ffffff" d="M1577.26 1258.71c5.66-10.83 11.58-21.35 17.67-31.81 6.11-10.43 12.38-20.76 18.98-30.84 6.62-10.06 13.35-20.04 20.66-29.52 7.29-9.49 14.92-18.7 23.39-26.94-8.08 8.68-15.25 18.25-22.06 28.07-6.83 9.81-13.07 20.09-19.18 30.43-6.09 10.35-11.85 20.94-17.44 31.62-5.56 10.68-10.99 21.5-16.05 32.39l-5.97-3.4zm-63.29 2.17c-2.82-27.36-6.08-54.72-9.82-81.97-1.91-13.62-3.96-27.22-6.3-40.77-2.45-13.51-4.95-27.06-9.14-40.1 4.72 12.84 7.79 26.31 10.79 39.72 2.9 13.45 5.51 26.98 7.98 40.53 4.86 27.12 9.24 54.32 13.19 81.65l-6.7.94zM1500.23 1262.48l-58.72-96.91 64.28 92.77z" opacity=".3" class="colorffffff svgShape"></path><path fill="#1d4bf7" d="M1525.25 1260.41s1.41-164.8 52.66-196.83 10.5 123.11 10.5 123.11l-13.79 73.71h-49.37z" class="colorf7941d svgShape"></path><path fill="#ffffff" d="M1545.67 1258.48c1.19-14.05 2.76-27.94 4.58-41.84 1.85-13.89 3.97-27.73 6.55-41.48 2.59-13.74 5.58-27.42 9.49-40.8 1.96-6.69 4.13-13.31 6.78-19.72 2.65-6.39 5.71-12.65 9.78-18.11-3.84 5.64-6.62 11.99-9 18.46-2.38 6.48-4.26 13.15-5.94 19.88-3.35 13.46-5.77 27.17-7.79 40.94-2.01 13.77-3.57 27.62-4.85 41.49-1.25 13.86-2.26 27.8-2.87 41.65l-6.73-.47z" opacity=".3" class="colorffffff svgShape"></path><path fill="#2f323f" d="M1564.62 1248.82c-4.6 11.7-7.28 26.16-1.62 39.89 8.57 20.82 23.9 18.01 38.61 33.85l3.43-63.46c-13.12-5.24-26.59-8.71-40.42-10.28zm-22.35 77.79c-14.6-30.33-9.65-60.4-4.03-78.43-16.11 1-32.71 4.55-49.85 10.92l2.1 38.83c4.85 8.38 10.95 17.35 18.04 24.63 17.38 17.83 37.69 72.55-12.94 69.64l2.64 48.86c70.58 4.8 65.49-69.89 44.04-114.45z" class="color2f353f svgShape"></path><path fill="#393d4e" d="M1508.52 1322.56c-7.09-7.28-13.18-16.25-18.04-24.63l5.1 94.27c50.62 2.91 30.31-51.8 12.94-69.64z" class="color39414e svgShape"></path><path fill="#393d4e" d="M1580.17 1441.28c-1.78-38.11 17.67-48.97 17.67-48.97l3.77-69.76c-14.71-15.84-30.04-13.02-38.61-33.85-5.66-13.74-2.98-28.2 1.62-39.89-8.64-.98-17.44-1.2-26.38-.64-5.62 18.03-10.57 48.1 4.03 78.43 21.45 44.56 26.54 119.25-44.05 114.45l3.3 61c59.4 17.51 80.28-25.76 78.65-60.77z" class="color39414e svgShape"></path><path fill="#2f323f" d="m1589.64 1543.94 8.2-151.62s-19.45 10.85-17.67 48.97c1.63 35.01-19.25 78.28-78.65 60.78l2.26 41.88h85.86z" class="color2f353f svgShape"></path><path fill="#393d4e" d="M1128.93 1526.26c-.67-.76-1.47-1.47-2.42-2.08l-31.58-20.24H810.85l-31.58 20.24c-.95.61-1.75 1.31-2.42 2.08-5.7 6.52-1.36 17.68 8.33 17.68H1120.59c9.7 0 14.04-11.16 8.34-17.68z" class="color39414e svgShape"></path><path fill="#2f323f" d="M1359.02 933.44c0-13.42-10.88-24.31-24.31-24.31H571.07c-13.42 0-24.31 10.88-24.31 24.31v440.8h812.26v-440.8z" class="color2f353f svgShape"></path><linearGradient id="d" x1="580.759" x2="1242.742" y1="1156.531" y2="1156.531" gradientUnits="userSpaceOnUse"><stop offset="0" stop-color="#b7dafd" class="stopColorb7d6fd svgShape"></stop><stop offset=".987" stop-color="#ffffff" class="stopColorffffff svgShape"></stop></linearGradient><path fill="url(#d)" d="M580.76 938.04v436.98h661.98L907.35 938.04z"></path><linearGradient id="e" x1="907.352" x2="1325.026" y1="1156.531" y2="1156.531" gradientUnits="userSpaceOnUse"><stop offset="0" stop-color="#b7dafd" class="stopColorb7d6fd svgShape"></stop><stop offset=".987" stop-color="#ffffff" class="stopColorffffff svgShape"></stop></linearGradient><path fill="url(#e)" d="M1325.03 938.04H907.35l335.39 436.98h82.29z"></path><path fill="#393d4e" d="M871.49 1460.02h162.8v43.79h-162.8z" class="color39414e svgShape"></path><path fill="#2f323f" d="M871.49 1460.02h162.8v9.18h-162.8zM785.19 1530.07H1120.6c3.59 0 6.45-1.54 8.33-3.81-.67-.76-1.47-1.47-2.42-2.08l-31.58-20.24H810.85l-31.58 20.24c-.95.61-1.75 1.31-2.42 2.08 1.89 2.27 4.74 3.81 8.34 3.81z" opacity=".3" class="color2f353f svgShape"></path><path fill="#393d4e" d="M571.07 1459.97h763.65c13.42 0 24.31-10.88 24.31-24.31v-61.43H546.76v61.43c0 13.43 10.88 24.31 24.31 24.31z" class="color39414e svgShape"></path><path fill="#1d4bf7" d="m651.26 1315.81-125.37 217.14c-2.85 4.93.71 11.09 6.4 11.09h250.73c5.69 0 9.25-6.16 6.4-11.09l-125.37-217.14c-2.83-4.93-9.94-4.93-12.79 0z" class="colorf7941d svgShape"></path><path fill="#ffffff" d="M657.42 1530.33c-8.71 0-14.77-6.3-14.77-15.49 0-8.72 6.05-15.49 14.77-15.49 8.72 0 15.25 6.78 15.25 15.49 0 9.19-6.53 15.49-15.25 15.49zm-.24-164.12c6.54 0 13.8 1.45 14.04 8.23 0 2.42-.24 5.81-.73 9.44-1.69 18.64-6.54 62.21-8.47 91.01h-9.44c-2.18-28.81-6.54-71.16-8.47-90.77-.24-3.15-.73-7.5-.73-9.92 0-6.3 7.02-7.99 13.8-7.99zM479.35 1387.25l.05-.05c.08-7.56 6.19-13.68 13.75-13.75l.01-.01c-7.58-.07-13.72-6.21-13.77-13.8l-.05.05c-.08 7.56-6.19 13.68-13.75 13.75l-.01.01c7.59.07 13.72 6.21 13.77 13.8zm.34 8.89-.09.09c-.13 13.23-10.83 23.94-24.07 24.07l-.02.02c13.27.12 24.01 10.87 24.09 24.15l.09-.09c.13-13.23 10.83-23.94 24.07-24.07l.02-.02c-13.27-.12-24-10.87-24.09-24.15zm-9.97-5.64c-23.18-.21-41.93-18.99-42.08-42.19l-.15.15c-.23 23.11-18.92 41.81-42.04 42.04l-.04.04c23.18.21 41.93 18.99 42.08 42.19l.15-.15c.23-23.11 18.92-41.81 42.04-42.04l.04-.04z" class="colorffffff svgShape"></path><path fill="#3591ed" d="M759.71 729.63c0-99.56 80.99-180.55 180.55-180.55s180.55 81 180.55 180.55v213.3h-361.1v-213.3zm299.26 0c0-65.46-53.26-118.71-118.71-118.71s-118.71 53.26-118.71 118.71v151.46h237.42V729.63z" class="color5035ed svgShape"></path><path fill="#0575e6" d="M692.85 1243.5h494.81c2.59 0 4.68-2.1 4.68-4.68V799.07c0-2.59-2.1-4.68-4.68-4.68H692.85a4.68 4.68 0 0 0-4.68 4.68v439.74c0 2.59 2.1 4.69 4.68 4.69z" class="color5692f4 svgShape"></path><path fill="#ffffff" d="M988.37 898.59c0-25.47-20.65-46.11-46.11-46.11-25.47 0-46.11 20.65-46.11 46.11 0 21.49 14.72 39.5 34.62 44.61v67.45h-10.19v20.34h10.19v78.64h-22.83v20.34h22.83v.03h27.55V941.77c17.53-6.53 30.05-23.37 30.05-43.18z" class="colorffffff svgShape"></path><path fill="#0b5299" d="M1257.4 761.93s-7.86 23.37-65.06 41.36v33.41s26.39-4.3 65.05-28.48c36.78-26.03.01-46.29.01-46.29z" class="color0b998b svgShape"></path><path fill="#8dc2f7" d="M1206.41 704.8s25.15 42.06 39.6 35.42c14.45-6.64 21.48-24.49 21.48-24.49l8.62 8.41 12.35-12.67-16.79-16.37s-10.54-35.79-22.94-26.35-8.21 20.69-8.21 20.69-40.86-7.96-38.74.49c2.13 8.44 4.63 14.87 4.63 14.87z" class="colorf7ce8d svgShape"></path><path fill="#0053a7" d="M1294.78 705s-25.58 15.45-35.95 50.28 26.12 86.13-68.88 175.49c16.15 18 21.88 21.34 21.88 21.34s80.48-67.57 103.59-129.29l2.22-4.58s33.85 22.89 70.36 31.53c16.59 7.18 66.45-66.76 54.17-109.01-44.92-14.54-137.31-43.83-147.39-35.76z" class="color00a79d svgShape"></path><path fill="#8dc2f7" d="m1676.58 593.17 8.42 6.17a5.77 5.77 0 0 1 1.24 8.07l-13.22 18.03-17.73-13 13.22-18.03c1.89-2.57 5.5-3.13 8.07-1.24z" class="colorf7ce8d svgShape"></path><path fill="#393d4e" d="M1662.27 585.01c-.93 7.57 3.15 13.61 3.15 13.61 3.59-4.9 10.47-5.96 15.37-2.37 4.41 3.24 5.7 9.14 3.28 13.86 0 0 48.97 15.7 55.73 15.05 6.76-.65 13.84-4.8 8.99-11.36s-48.9-58.79-51.7-58.17c-2.8.63-33.89 21.81-34.82 29.38z" class="color39414e svgShape"></path><path fill="#8dc2f7" d="m1847.33 877.31 1.38 10.35c.42 3.16-1.8 6.06-4.96 6.48l-22.16 2.95-2.9-21.79 22.16-2.95c3.16-.42 6.06 1.8 6.48 4.96z" class="colorf7ce8d svgShape"></path><path fill="#393d4e" d="M1843.31 861.34c-6.1 4.57-7.64 11.7-7.64 11.7 6.02-.8 11.55 3.43 12.35 9.45.72 5.43-2.65 10.44-7.73 11.96 0 0 22.58 46.2 27.74 50.63s13.05 6.66 14.42-1.38c1.37-8.04 8.55-75.99 6.16-77.58-2.39-1.59-39.19-9.36-45.3-4.78zm-451.18-11.26s151.37 83.01 211.57 81.78c60.21-1.23 222.78-28.96 222.78-28.96l-7.44-34.92s-168.31 18.49-200.23 3.94c-31.92-14.54-101.29-47.41-101.29-47.41s55.33-6.63 73.83-20.87 91.18-172.95 91.18-172.95l-27.83-22.52-103.26 140.89s-82.3.32-109.27-8.3c-34.16 36.25-54.34 100.54-50.04 109.32z" class="color39414e svgShape"></path><path fill="#2f323f" d="m1516.06 823.08-59.54-37.4s30.82 36.56 33.19 39.52c-2.48-12.27 97.27 47.04 132.71 48.05l-106.36-50.17z" class="color2f353f svgShape"></path><path fill="#021b79" d="M1170.34 692.74c-9.92-18.44-.51-40.35 27.2-51.6s35.54 1.97 116.63-32.96c81.08-34.93 184.75-39.87 204.43 16.78 19.69 56.66-45.25 124.07-107.06 118.8-42.34-3.61-101.39-13.12-124.03-33.25-10.49-9.33-15.82-15.43-15.82-15.43s-10.54-35.79-22.94-26.35c-12.39 9.44-8.21 20.69-8.21 20.69s-40.86-7.96-38.74.49c2.12 8.45 4.63 14.87 4.63 14.87s-26.17 6.4-36.09-12.04z" class="color2a2a72 svgShape"></path><path fill="#8dc2f7" d="M1202.6 944.18s-8.84 8.04-11.36 15.06c-2.51 7.02-15.89 13.76-26.2 13.31-10.31-.46-16.99-6.47-12.23-8.72 4.76-2.25 13.34-12.31 15.86-17.47 2.52-5.15 22.73-16.19 22.73-16.19l11.2 14.01z" class="colorf7ce8d svgShape"></path><path fill="#bcbec0" d="M1211.83 952.11s-1.06-.62-3.55-2.76c1.31-.83 10.37-7.78 52.48-60.06 46.37-57.57 37.93-84.08 19.76-120.63 37.53 16.14 37.12 49.58 37.12 49.58l-2.22 4.58c-23.1 61.72-103.59 129.29-103.59 129.29z" opacity=".5" class="colorbcbec0 svgShape"></path><path fill="#8dc2f7" d="m206.78 1071.21-1.5 10.33c-.46 3.15 1.73 6.08 4.88 6.54l22.12 3.21 3.16-21.76-22.12-3.21a5.781 5.781 0 0 0-6.54 4.89z" class="colorf7ce8d svgShape"></path><path fill="#393d4e" d="M136.35 1089.83c5.18-6.3 51.83-56.22 54.6-55.45 2.77.76 32.74 23.5 33.28 31.1.06.83.05 1.64 0 2.43l-7.2-1.05a9.51 9.51 0 0 0-10.79 8.06l-.42 2.91c.13 6.8 3.76 8.18 5.96 10.24-1.58.71-5.52-1.26-10.59 1.39 0 0-49.7 13.19-56.43 12.19-6.72-1.01-13.58-5.51-8.41-11.82z" class="color39414e svgShape"></path><path fill="#8dc2f7" d="m186.81 830.33-5.27 9.02a5.778 5.778 0 0 0 2.07 7.9l19.3 11.28L214 839.55l-19.3-11.28c-2.74-1.62-6.28-.69-7.89 2.06z" class="colorf7ce8d svgShape"></path><path fill="#393d4e" d="M114.54 821.17c7.17-3.9 69.14-32.66 71.42-30.91 2.28 1.75 21.53 34.06 19.17 41.32-.26.79-.57 1.54-.91 2.25l-6.28-3.67c-4.54-2.65-10.37-1.12-13.03 3.42l-1.48 2.54c-2.43 6.36.42 8.99 1.68 11.72-1.73.06-4.64-3.24-10.34-2.69 0 0-51.02-6.43-56.88-9.88-5.85-3.45-10.52-10.2-3.35-14.1zm413.26-8.93s-134.19 98.51-159.26 94.93-156.42-69.26-156.42-69.26l-13.13 31.05s156.42 106.87 180.3 106.27c23.88-.6 121.2-35.82 121.2-35.82s-62.09 90.75-80 95.53-191.65 30.45-191.65 30.45v28.66s214.93 10.15 242.99-4.78c28.06-14.93 141.44-160.69 141.44-160.69s-67.7-124.7-85.47-116.34z" class="color39414e svgShape"></path><path fill="#4067fb" d="M688.58 715.27s93.9 68.55 121.96 69.75c28.06 1.19 91.35 7.16 91.35 7.16l-23.46 2.67H709.62l-26.96-17.34c0 .01-3.63-58.65 5.92-62.24z" class="colorfbb040 svgShape"></path><path fill="#8dc2f7" d="M766.72 661.42s-8.85 51.94-35.82 60.24c-26.96 8.3-30.41-15.71-30.41-15.71l-15.87 12.42-19.15-25.4s25.19-14.94 32.56-18.05c1.87-14.95 15.91-34.77 32.14-9.61 8.1-12.21 26.15-15.61 26.15-15.61l-5.96 7.29 16.36 4.43z" class="colorf7ce8d svgShape"></path><path fill="#2f323f" d="M534.32 859.85s-136.23 60.53-165.75 58.68c-29.53-1.85-158.9-74.82-158.9-74.82l2.84-5.61c7.76 3.87 131.75 65.6 156.04 69.07 25.08 3.58 159.26-94.93 159.26-94.93 6.16-2.9 18.34 10.22 31.61 28.58-4.84 7.14-12.74 13.79-25.1 19.03z" class="color2f353f svgShape"></path><path fill="#8dc2f7" d="M754.3 944.33s13.32 4.47 19.35 10.83c6.02 6.36 23.61 7.29 34.48 1.92 10.88-5.37 15.22-15 9.03-15.17-6.19-.17-20.19-6.93-25.33-11.28-5.15-4.35-32.12-6.66-32.12-6.66l-5.41 20.36z" class="colorf7ce8d svgShape"></path><path fill="#1d4bf7" d="M672.43 689.25s-5.64 14.84 16.16 26.03c5.97 17.31-22.13 192.49-79.44 215.17-21.49-.6-84.78-26.87-81.2-127.17 22.69-14.33 39.4-22.09 59.7-70.45 20.3-48.36 59.7-46.57 84.78-43.58z" class="colorf7941d svgShape"></path><path fill="#939598" d="M527.94 803.28c22.69-14.33 39.4-22.09 59.7-70.45 7.4-17.64 17.35-28.58 28.22-35.25 3.49 10.93 3.17 23.53 3.17 23.53l-30.79 71.07s-.5.97-1.41 2.67c-6.12 11.38-31.04 55.6-52.71 64.33-4.52-15.4-6.96-33.86-6.18-55.9z" opacity=".3" class="color939598 svgShape"></path><path fill="#4067fb" d="M643.37 723.28s-17.25-32.24-40.26-13.13c-20.63 17.13-17.25 149.86-5.23 170.75 12.03 20.9 157.89 73.72 157.89 73.72l6.8-30.74s-107.18-50.75-120.25-72.84 13.6-88.95 1.05-127.76z" class="colorfbb040 svgShape"></path><path fill="#021b79" d="m766.72 661.42-16.35-4.44 5.96-7.29s-18.05 3.4-26.15 15.61c-16.23-25.16-30.28-5.34-32.14 9.61-3.3 1.39-10.16 5.15-16.74 8.88-21.49-35.06.76-60.94.76-60.94s-9.47-14.65 12.28-25.28c63.17-24.38 89.24 29.03 89.24 29.03s34.39 4.19 26.32 38.82c-9.69 41.57-45.66 6.88-45.66 6.88 1.72-6.45 2.48-10.88 2.48-10.88z" class="color2a2a72 svgShape"></path><path fill="#8dc2f7" d="M882.24 793.56s22.43-3.05 27.82-.08c5.39 2.97 5.99 17.48 1.51 23.86-4.48 6.38-11.67 6.96-16.2 3.65-4.53-3.31-1.71-19.19-6.97-20.3.01 0-19.14-4.43-6.16-7.13z" class="colorf7ce8d svgShape"></path><path fill="#2f323f" d="M420.48 1034.93c17.91-4.78 80-95.53 80-95.53l27.32-4.52s-81.82 106.36-104.06 110.41c-22.24 4.04-126.16 9.77-126.17 9.77 50.7-7.72 112.6-17.38 122.91-20.13z" class="color2f353f svgShape"></path><path fill="#1d4bf7" d="M1317.23 1478.62v-39.4c.06-.36.1-.72.1-1.08v-.18c0-.36-.03-.72-.1-1.08v-39.4c.06-.36.1-.72.1-1.08 0-10.75-27.91-19.47-62.34-19.47-34.43 0-62.34 8.72-62.34 19.47 0 .36.03.72.1 1.08v39.4c-.06.36-.1.72-.1 1.08v.18c0 .36.03.72.1 1.08v39.4c-.06.36-.1.72-.1 1.08 0 .16.01.33.02.49-.01.16-.02.33-.02.49 0 .36.03.72.1 1.08v39.4c-.06.36-.1.72-.1 1.08 0 10.75 27.91 19.47 62.34 19.47 34.43 0 62.34-8.72 62.34-19.47 0-.36-.03-.72-.1-1.08v-39.4c.06-.36.1-.72.1-1.08 0-.16-.01-.33-.02-.49.01-.16.02-.33.02-.49-.01-.37-.04-.73-.1-1.08z" class="colorf7941d svgShape"></path><path fill="#393d4e" d="M1319.92 1436.66v-39.03c.06-.42.1-.83.1-1.24 0-14.39-33.51-22.16-65.03-22.16s-65.03 7.77-65.03 22.16c0 .41.04.82.1 1.24v39.03c-.06.44-.1.87-.1 1.29v.18c0 .4.04.82.1 1.24v39.03c-.06.44-.1.87-.1 1.29 0 .16.01.33.02.49-.01.16-.02.33-.02.49 0 .41.04.82.1 1.24v39.03c-.06.44-.1.87-.1 1.29 0 14.39 33.51 22.16 65.03 22.16s65.03-7.77 65.03-22.16c0-.42-.03-.86-.1-1.29v-39.03c.06-.42.1-.83.1-1.24 0-.16-.01-.33-.02-.49.01-.16.02-.33.02-.49 0-.42-.03-.86-.1-1.29v-39.03c.06-.42.1-.83.1-1.24v-.18c-.01-.42-.04-.85-.1-1.29zm-21.66 96.77c-11.52 3.6-26.89 5.58-43.28 5.58s-31.76-1.98-43.28-5.58c-10.1-3.15-16.37-7.44-16.37-11.2 0-.19.02-.4.06-.61.03-.15.04-.31.04-.46v-31.14c.04.03.08.06.11.08.18.14.36.27.55.41l.22.16c.26.19.53.37.8.55.01.01.03.02.04.03.26.17.52.34.79.5.09.05.18.11.27.16.2.12.4.24.6.35.1.06.21.12.31.18l.6.33c.1.06.2.11.31.17l.69.36c.08.04.15.08.22.11l.93.45c.07.03.13.06.2.09.25.12.5.23.75.34.11.05.22.1.33.14.21.09.43.19.64.28.12.05.23.1.35.15.22.09.44.18.65.27.11.04.21.09.32.13.27.11.54.21.81.31.06.02.11.04.17.06.32.12.65.24.97.36.09.03.18.06.27.1.23.08.47.17.7.25.12.04.23.08.35.12.21.07.43.14.64.21.12.04.23.08.35.11l.66.21.3.09c.32.1.63.19.94.29 11.87 3.52 27.39 5.46 43.69 5.46s31.82-1.94 43.69-5.46c.31-.09.63-.19.94-.29l.3-.09.66-.21c.12-.04.23-.08.35-.11.21-.07.43-.14.64-.21.11-.04.23-.08.34-.12.24-.08.47-.16.71-.25l.27-.09c.33-.12.65-.24.98-.36.05-.02.11-.04.16-.06.27-.1.54-.21.81-.31.11-.04.21-.08.32-.13l.66-.27c.11-.05.23-.1.34-.14.22-.09.43-.19.65-.28.11-.05.21-.09.32-.14.26-.11.51-.23.77-.35.06-.03.12-.05.18-.08.32-.15.63-.3.94-.45.07-.04.14-.07.21-.11.24-.12.47-.24.71-.36.1-.05.2-.11.3-.16.21-.11.41-.22.61-.33.1-.06.2-.11.3-.17.21-.12.41-.24.61-.36.09-.05.17-.1.26-.16.28-.17.55-.34.81-.52.01 0 .01-.01.02-.01.28-.18.55-.37.81-.56l.21-.15c.19-.14.38-.28.56-.42.04-.03.08-.05.11-.08v31.14c0 .16.01.31.04.46.04.21.06.42.06.61.02 3.74-6.25 8.03-16.35 11.18zm16.36-53.46c-.01.11-.03.22-.04.33-.25 1.42-2.24 6.42-17.43 10.92-11.39 3.38-26.36 5.24-42.16 5.24-15.8 0-30.77-1.86-42.16-5.24-15.19-4.51-17.18-9.5-17.43-10.92-.02-.11-.04-.22-.04-.34-.01-.09-.01-.19-.01-.28 0-.19.02-.4.06-.61.03-.15.04-.31.04-.46v-31.14l.12.09c.17.13.34.26.51.38.09.06.17.13.26.19.26.18.52.36.79.54.04.03.09.06.14.09.23.15.46.3.7.44.1.06.21.13.31.19.18.11.37.22.55.33.12.07.23.13.35.2.18.1.37.2.55.3.12.06.23.13.35.19.21.11.42.22.63.32.09.05.19.1.28.14.3.15.6.3.91.44.09.04.18.08.26.12.23.11.45.21.68.31.12.05.24.11.36.16.2.09.4.17.6.26.13.05.25.11.38.16.2.09.41.17.62.25.12.05.24.09.35.14.25.1.51.2.76.29.07.03.14.05.21.08.32.12.64.24.96.35.1.03.19.07.29.1.23.08.45.16.68.24l.36.12c.21.07.42.14.62.21l.36.12c.22.07.44.14.65.21.1.03.2.06.3.1.32.1.63.19.94.29 11.87 3.52 27.39 5.46 43.69 5.46s31.82-1.94 43.69-5.46c.31-.09.63-.19.94-.29l.3-.09.66-.21c.12-.04.23-.08.35-.11.21-.07.43-.14.64-.21.11-.04.23-.08.34-.12.24-.08.47-.16.71-.25l.27-.09c.33-.12.65-.24.98-.36.05-.02.11-.04.16-.06.27-.1.54-.21.81-.31.11-.04.21-.08.32-.13l.66-.27c.12-.05.23-.1.35-.14.22-.09.43-.18.65-.28.11-.05.21-.09.32-.14.26-.11.51-.23.77-.35.06-.03.12-.05.18-.08.31-.15.63-.3.94-.45.07-.04.14-.07.22-.11.23-.12.47-.24.7-.36.1-.05.2-.11.3-.16l.6-.33c.1-.06.21-.12.31-.17.2-.12.41-.24.61-.36.09-.05.18-.1.26-.16.27-.17.54-.34.8-.51.01-.01.02-.01.03-.02.28-.18.54-.37.81-.55.07-.05.14-.11.22-.16.19-.14.37-.27.55-.41.04-.03.08-.06.11-.08v31.14c0 .16.01.31.04.46a3.313 3.313 0 0 1 .05.87zm-.04-42.63c.03.2.05.4.06.58v.09c0 .06-.01.11-.02.17h-.08v.58c-.01.02-.01.04-.02.07-.01.02-.01.05-.02.07l-.03.1c-.01.03-.02.05-.03.08-.01.04-.02.07-.04.11l-.03.09c-.02.04-.03.08-.05.12-.01.03-.03.07-.04.1-.02.04-.04.08-.06.13-.02.04-.03.07-.05.11-.02.04-.05.09-.07.14-.02.04-.04.07-.06.11-.03.05-.06.1-.09.16-.02.04-.04.07-.06.11-.06.09-.12.18-.18.28-.02.03-.05.07-.08.11-.04.06-.09.12-.13.19l-.1.13c-.04.06-.09.11-.14.17l-.12.15c-.05.06-.1.11-.15.17-.05.05-.1.1-.14.16-.05.06-.11.11-.16.17l-.16.16-.18.18c-.06.05-.12.11-.18.17-.07.06-.13.12-.2.18-.06.06-.13.11-.2.17l-.22.19c-.07.06-.15.12-.22.18-.08.06-.16.13-.24.19l-.24.18c-.08.06-.17.13-.26.19s-.18.12-.27.19c-.09.07-.19.13-.29.2-.09.06-.19.13-.29.19-.1.07-.21.13-.31.2-.1.06-.2.13-.31.19-.11.07-.23.14-.34.21-.11.06-.22.13-.33.19-.12.07-.24.14-.37.21-.12.07-.24.13-.36.2-.13.07-.26.14-.4.21-.13.07-.25.13-.38.2-.14.07-.28.14-.43.21-.13.07-.27.13-.41.2-.15.07-.31.14-.46.22-.14.07-.28.13-.43.2-.16.07-.33.15-.5.22-.15.07-.3.13-.45.2-.18.07-.36.15-.54.22-.16.06-.31.13-.47.19-.19.08-.39.15-.59.23-.16.06-.32.13-.49.19-.21.08-.43.16-.65.24-.17.06-.33.12-.5.18-.23.08-.48.17-.72.25-.17.06-.33.11-.5.17-.28.09-.56.18-.85.28-.15.05-.29.09-.44.14-.44.14-.89.28-1.36.42-11.39 3.38-26.36 5.24-42.16 5.24-15.8 0-30.77-1.86-42.16-5.24-.47-.14-.92-.28-1.36-.42-.15-.05-.29-.09-.44-.14-.29-.09-.57-.18-.85-.28-.17-.06-.33-.11-.5-.17-.24-.08-.49-.17-.72-.25-.17-.06-.33-.12-.5-.18-.22-.08-.44-.16-.65-.24-.17-.06-.33-.13-.49-.19-.2-.08-.4-.15-.59-.23-.16-.06-.32-.13-.47-.19-.18-.08-.37-.15-.54-.22-.16-.07-.3-.13-.45-.2-.17-.07-.34-.15-.5-.22-.15-.07-.29-.13-.43-.2a6.5 6.5 0 0 1-.46-.22c-.14-.07-.27-.13-.41-.2-.14-.07-.29-.14-.43-.21-.13-.07-.26-.13-.38-.2-.13-.07-.27-.14-.4-.21-.12-.07-.24-.13-.36-.2-.13-.07-.25-.14-.37-.21-.11-.06-.22-.13-.33-.19-.12-.07-.23-.14-.34-.21-.1-.06-.21-.13-.31-.19-.11-.07-.21-.13-.31-.2-.1-.06-.19-.13-.29-.19l-.29-.2c-.09-.06-.18-.13-.27-.19-.09-.06-.18-.13-.26-.19l-.24-.18c-.08-.06-.16-.13-.24-.19-.07-.06-.15-.12-.22-.18a2 2 0 0 1-.22-.19l-.2-.17c-.07-.06-.13-.12-.2-.18-.06-.06-.12-.11-.18-.17l-.18-.18c-.06-.05-.11-.11-.16-.16-.06-.06-.11-.12-.16-.17-.05-.05-.1-.1-.14-.16-.05-.06-.1-.11-.15-.17l-.12-.15c-.05-.06-.09-.12-.14-.17l-.1-.13c-.05-.06-.09-.12-.13-.18-.03-.04-.06-.08-.08-.11-.06-.09-.12-.19-.18-.27-.02-.04-.04-.07-.06-.11-.03-.05-.06-.1-.09-.16-.02-.04-.04-.08-.06-.11-.02-.05-.05-.09-.07-.14-.02-.04-.03-.07-.05-.11-.02-.04-.04-.09-.06-.13-.02-.03-.03-.07-.04-.1-.02-.04-.03-.08-.05-.12l-.03-.09c-.01-.04-.03-.07-.04-.11-.01-.03-.02-.05-.03-.08l-.03-.1c-.01-.03-.01-.05-.02-.07-.01-.02-.01-.04-.02-.07v-.58h-.08c0-.06-.01-.11-.02-.17v-.1c0-.18.02-.37.06-.57.03-.15.04-.31.04-.46v-31.14c.04.03.08.06.11.08.18.14.36.27.55.41l.22.16c.26.19.53.37.8.55.01.01.03.02.04.03.26.17.52.34.79.5.09.05.18.11.27.16.2.12.4.24.6.35.1.06.21.12.31.18l.6.33c.1.06.2.11.31.17l.69.36c.08.04.15.08.22.11l.93.45c.07.03.13.06.2.09.25.12.5.23.75.34.11.05.22.1.33.14.21.09.43.19.64.28.12.05.23.1.35.15.22.09.44.18.65.27.11.04.21.09.32.13.27.11.54.21.81.31.06.02.11.04.17.06.32.12.65.24.97.36.09.03.18.06.27.1.23.08.47.17.7.25.12.04.23.08.35.12.21.07.43.14.64.21.12.04.23.08.35.11l.66.21.3.09c.32.1.63.19.94.29 11.87 3.52 27.39 5.46 43.69 5.46s31.82-1.94 43.69-5.46c.31-.09.63-.19.94-.29l.3-.09.66-.21c.12-.04.23-.08.35-.11.21-.07.43-.14.64-.21.11-.04.23-.08.34-.12.24-.08.47-.16.71-.25l.27-.09c.33-.12.65-.24.98-.36.05-.02.11-.04.16-.06.27-.1.54-.21.81-.31.11-.04.21-.08.32-.13l.66-.27c.11-.05.23-.1.34-.14.22-.09.43-.19.65-.28.11-.05.21-.09.32-.14.26-.11.51-.23.77-.35.06-.03.12-.05.18-.08.32-.15.63-.3.94-.45.07-.04.14-.07.21-.11.24-.12.47-.24.71-.36.1-.05.2-.11.3-.16.21-.11.41-.22.61-.34.1-.06.2-.11.3-.17.21-.12.41-.24.61-.36.09-.05.17-.1.26-.16.28-.17.55-.34.81-.52.01 0 .01-.01.02-.01.28-.18.55-.37.81-.56l.21-.15c.19-.14.38-.28.56-.42.04-.03.08-.05.11-.08v31.14c.02.12.03.27.06.43zm.05-40.91h-.1v.77c-.01.02-.01.04-.02.07-.01.02-.01.05-.02.07l-.03.1c-.01.03-.02.06-.03.08-.01.03-.02.07-.04.11l-.03.09c-.02.04-.03.08-.05.12-.01.03-.03.07-.04.1-.02.04-.04.09-.06.13-.02.04-.03.07-.05.11-.02.04-.05.09-.07.14-.02.04-.04.07-.06.11-.03.05-.06.11-.09.16-.02.03-.04.07-.06.1-.06.09-.12.18-.18.28l-.07.1c-.04.06-.09.13-.14.19-.03.04-.07.09-.11.14-.04.06-.09.11-.13.17-.04.05-.08.1-.13.15-.05.06-.09.11-.15.17-.05.05-.09.1-.14.15-.05.06-.1.12-.16.17l-.16.16-.18.18c-.06.06-.12.11-.18.17-.07.06-.13.12-.2.18s-.13.12-.2.17l-.22.19c-.07.06-.15.12-.22.18-.08.06-.16.13-.24.19l-.24.18c-.09.06-.17.13-.26.19s-.17.12-.26.19-.19.13-.29.2c-.09.06-.19.13-.29.19-.1.07-.21.13-.31.2-.1.06-.2.13-.31.19-.11.07-.22.14-.34.2-.11.06-.22.13-.33.19-.12.07-.24.14-.37.21-.12.07-.23.13-.35.2-.13.07-.26.14-.4.21-.13.07-.25.13-.38.2-.14.07-.29.14-.43.21-.13.07-.27.13-.4.2-.15.07-.31.14-.46.22-.14.07-.28.13-.43.2-.16.07-.33.15-.5.22-.15.07-.3.13-.46.2-.17.07-.36.15-.54.22-.16.07-.32.13-.48.2-.19.08-.39.15-.58.23-.17.06-.33.13-.49.19-.21.08-.43.16-.64.24-.17.06-.33.12-.5.18-.23.08-.47.16-.71.25-.17.06-.33.12-.5.17-.27.09-.56.18-.84.27-.15.05-.29.1-.44.14-.44.14-.89.28-1.36.42-11.39 3.38-26.36 5.24-42.16 5.24-15.8 0-30.77-1.86-42.16-5.24-.47-.14-.92-.28-1.36-.42-.15-.05-.29-.09-.44-.14-.29-.09-.57-.18-.85-.27-.17-.06-.33-.11-.5-.17-.24-.08-.48-.16-.71-.25l-.51-.18c-.22-.08-.43-.16-.64-.24-.17-.06-.33-.13-.49-.19-.2-.08-.4-.15-.59-.23-.16-.06-.32-.13-.48-.19-.18-.07-.37-.15-.54-.22-.16-.07-.3-.13-.45-.2-.17-.07-.34-.15-.5-.22-.15-.07-.29-.13-.43-.2a6.5 6.5 0 0 1-.46-.22c-.14-.07-.27-.13-.4-.2-.15-.07-.29-.14-.43-.21-.13-.07-.25-.13-.38-.2-.14-.07-.27-.14-.4-.21-.12-.07-.24-.13-.35-.2-.13-.07-.25-.14-.37-.21-.11-.06-.22-.13-.33-.19-.12-.07-.23-.14-.34-.21-.1-.06-.21-.13-.31-.19-.11-.07-.21-.13-.31-.2-.1-.06-.19-.13-.29-.19l-.29-.2c-.09-.06-.18-.12-.26-.19-.09-.07-.18-.13-.26-.19l-.24-.18c-.08-.06-.16-.13-.24-.19-.07-.06-.15-.12-.22-.18a2 2 0 0 1-.22-.19l-.2-.17c-.07-.06-.13-.12-.2-.18-.06-.06-.12-.11-.18-.17l-.18-.18-.16-.16c-.06-.06-.11-.12-.16-.18-.05-.05-.1-.1-.14-.15-.05-.06-.1-.12-.15-.17l-.12-.15c-.05-.06-.09-.12-.14-.18l-.1-.13c-.05-.06-.09-.13-.14-.19l-.07-.1c-.06-.09-.12-.19-.18-.28-.02-.04-.04-.07-.06-.1-.03-.05-.07-.11-.1-.16-.02-.04-.04-.08-.06-.11-.02-.05-.05-.09-.07-.14-.02-.04-.03-.07-.05-.11-.02-.04-.04-.09-.06-.13-.02-.03-.03-.07-.04-.1-.02-.04-.03-.08-.05-.12l-.03-.09c-.01-.04-.03-.07-.04-.11a.689.689 0 0 0-.03-.08l-.03-.1c-.01-.03-.01-.05-.02-.07-.01-.02-.01-.04-.02-.07v-.77h-.1v-.04c0-3.75 6.27-8.04 16.37-11.2 11.52-3.6 26.89-5.58 43.28-5.58s31.76 1.98 43.28 5.58c10.1 3.15 16.37 7.44 16.37 11.2-.06.02-.06.04-.06.05z" class="color39414e svgShape"></path><circle cx="1206.36" cy="1428.99" r="5.2" fill="#ffffff" class="colorffffff svgShape"></circle><path fill="#3591ed" d="M504.66 1250.87c.11-1.21-.75-2.28-1.95-2.41l-15.51-1.71c-.94-3.27-2.23-6.39-3.86-9.31 3.25-4.06 6.5-8.12 9.76-12.18.76-.94.6-2.31-.32-3.09a92.999 92.999 0 0 1-11.4-11.4 2.212 2.212 0 0 0-3.09-.32c-4.06 3.25-8.12 6.5-12.18 9.76a44.564 44.564 0 0 0-9.31-3.86l-1.71-15.51c-.13-1.2-1.2-2.06-2.41-1.95-5.37.47-10.76.47-16.13 0-1.21-.1-2.28.75-2.41 1.95l-1.71 15.51c-3.27.94-6.39 2.23-9.31 3.86-4.06-3.25-8.12-6.5-12.18-9.76-.95-.76-2.31-.6-3.09.32a93.706 93.706 0 0 1-11.4 11.4c-.93.78-1.08 2.14-.32 3.09 3.25 4.06 6.5 8.12 9.76 12.18a44.564 44.564 0 0 0-3.86 9.31l-15.51 1.71c-1.2.13-2.06 1.21-1.96 2.41.47 5.37.47 10.76 0 16.13-.1 1.21.75 2.28 1.96 2.41l15.51 1.71c.94 3.27 2.23 6.4 3.86 9.31-3.25 4.06-6.51 8.12-9.76 12.18-.76.94-.6 2.31.32 3.09 4.12 3.47 7.94 7.28 11.4 11.4.78.93 2.14 1.08 3.09.32 4.06-3.25 8.12-6.5 12.18-9.76 2.92 1.62 6.04 2.92 9.31 3.86l1.71 15.51c.13 1.2 1.2 2.06 2.41 1.95 5.37-.47 10.76-.47 16.13 0 1.2.1 2.28-.75 2.41-1.95l1.71-15.51c3.27-.94 6.4-2.23 9.31-3.86 4.06 3.25 8.12 6.5 12.18 9.76.94.76 2.31.6 3.09-.32 3.46-4.12 7.28-7.94 11.4-11.41.93-.78 1.08-2.14.32-3.09-3.25-4.06-6.5-8.12-9.76-12.18 1.62-2.92 2.92-6.04 3.86-9.31l15.51-1.71c1.2-.13 2.06-1.2 1.95-2.41-.47-5.35-.47-10.75 0-16.12zm-60.06 33.61c-14.11 0-25.54-11.44-25.54-25.54 0-14.11 11.44-25.54 25.54-25.54 14.11 0 25.54 11.44 25.54 25.54s-11.43 25.54-25.54 25.54z" class="color5035ed svgShape"></path></svg>