<svg xmlns="http://www.w3.org/2000/svg" data-name="Layer 1" viewBox="0 0 2500 2500" id="TeamBuildingStudy"><g fill="#000000" class="color000000 svgShape"><circle cx="2387.6" cy="1410.8" r="63.6" fill="#e0edfa" class="colore0ecfa svgShape"></circle><circle cx="112.4" cy="1427.3" r="63.6" fill="#e0edfa" class="colore0ecfa svgShape"></circle><circle cx="2247.4" cy="979.5" r="31.8" fill="#e0edfa" class="colore0ecfa svgShape"></circle><circle cx="779.7" cy="566.8" r="31.8" fill="#e0edfa" class="colore0ecfa svgShape"></circle><path fill="#e0edfa" d="M2215.6,1984.4H325.5c-78.4,13.7-153.7-73.5-149.3-153s93-142.5,169.4-120.4c22.9,6.6,43.7,19.2,66.9,24.7s51.3,1.5,64.3-18.4c20.9-31.8-10.7-71.2-39.1-96.5C372.2,1562.5,308.9,1499.9,265,1424s-66.9-167.1-46.8-252.5,89.2-161.4,176-174.3c94.2-14,185.3,46.1,244.7,120.6s96.5,164.2,150.1,243c28.8,42.3,64.6,82.6,106.4,111.9,45.6,32.1,106.5-9.8,93.1-63.9L895.1,1032c-28-113.1-54.5-239.3,3.2-340.5C963.1,578,1120.2,540.6,1243.2,585s213.3,153,269.9,270.8c54.2,113,82.6,237.1,94.6,361.8,4.5,47.1,7,95.3,24.4,139.2s53.3,84.1,100,91.6c64.5,10.4,123.1-44,149.7-103.6s32.7-126.8,57.4-187.2,78.7-117.9,143.9-113.7c59.4,3.9,105.2,59.3,117.9,117.5s.2,118.5-12.4,176.7q-26.5,122.1-53,244.1c-6.5,30.3-12.2,64.9,6.3,89.7,36.3,48.3,116.1,9.7,172.3,32,54.6,21.6,68.6,97.8,43.4,150.9S2264.6,1952.1,2215.6,1984.4Z" class="colore0ecfa svgShape"></path><path fill="#b7cee6" d="M400.6,1217.5,536.4,1521a39.7,39.7,0,0,1-72.5,32.4L328.1,1249.9Z" class="colorb7d0e6 svgShape"></path><rect width="79.4" height="32.5" x="331.3" y="1232.3" fill="#a3b8cd" transform="rotate(-24.1 371.31 1249.149)" class="colora3bacd svgShape"></rect><path fill="#0575e6" d="M247.3,1121.2h6.8a12.4,12.4,0,0,1,12.4,12.4v0a12.4,12.4,0,0,1-12.4,12.4h-6.8a0,0,0,0,1,0,0v-24.8a0,0,0,0,1,0,0Z" transform="rotate(-24.1 257.287 1133.95)" class="color7a8b9a svgShape"></path><path fill="#b7cee6" d="M402.6,1229.3l-67,30a10.1,10.1,0,0,1-13.5-5.4L218.2,998.8l-7.9-19.4-20.1-49.2a35,35,0,0,1,63.9-28.6l23.3,47.7,9.2,18.9,121,247.4A10.2,10.2,0,0,1,402.6,1229.3Z" class="colorb7d0e6 svgShape"></path><polygon fill="#0575e6" points="286.6 968.2 218.2 998.8 210.3 979.4 277.4 949.3 286.6 968.2" class="color7a8b9a svgShape"></polygon><rect width="70.6" height="20.97" x="184.1" y="976.3" fill="#0575e6" transform="rotate(-24.1 219.536 987.279)" class="color7a8b9a svgShape"></rect><path fill="#0575e6" d="M122.1,1071.8H307.7a10.5,10.5,0,0,1,10.5,10.5v0a10.5,10.5,0,0,1-10.5,10.5H134.6a12.4,12.4,0,0,1-12.4-12.4v-8.5a0,0,0,0,1,0,0Z" transform="rotate(65.9 220.249 1082.108)" class="color7a8b9a svgShape"></path><rect width="14" height="267.11" x="327.8" y="969.1" fill="#a3b8cd" transform="rotate(-26.2 334.64 1102.322)" class="colora3bacd svgShape"></rect><path fill="#a3b8cd" d="M1836.2,1790.6l-53,38.2a39.2,39.2,0,0,1-54.6-8.8l-.8-1.1a39.2,39.2,0,0,1,8.9-54.6l53-38.2Z" class="colora3bacd svgShape"></path><rect width="506.8" height="79.58" x="1779.9" y="1559.7" fill="#a3b8cd" transform="rotate(-35.8 2032.567 1599.134)" class="colora3bacd svgShape"></rect><polygon fill="#0575e6" points="2262.1 1483.6 2215.6 1419 2292.8 1395.3 2309 1417.8 2262.1 1483.6" class="color7a8b9a svgShape"></polygon><polygon fill="#a3b8cd" points="2309 1417.8 2292.8 1395.3 2333.9 1382.7 2309 1417.8" class="colora3bacd svgShape"></polygon><rect width="18.3" height="79.58" x="1811.2" y="1713.2" fill="#0575e6" transform="rotate(-35.8 1819.73 1752.628)" class="color7a8b9a svgShape"></rect><rect width="6.6" height="506.78" x="2015.3" y="1325.6" fill="#0575e6" transform="rotate(54.2 2018.753 1579.447)" class="color7a8b9a svgShape"></rect><rect width="6.6" height="506.78" x="2030" y="1346.1" fill="#0575e6" transform="rotate(54.2 2033.523 1599.877)" class="color7a8b9a svgShape"></rect><rect width="6.6" height="506.78" x="2044.8" y="1366.5" fill="#0575e6" transform="rotate(54.2 2048.195 1620.357)" class="color7a8b9a svgShape"></rect><path fill="#0575e6" d="M1977.1,757.1h-29.7a173.5,173.5,0,0,0-19.2-46.3l21-21a12.9,12.9,0,0,0,0-18l-42.7-42.6a12.6,12.6,0,0,0-17.9,0l-21,21a175.5,175.5,0,0,0-46.4-19.2V601.3a12.6,12.6,0,0,0-12.6-12.7h-60.4a12.7,12.7,0,0,0-12.7,12.7V631a174.8,174.8,0,0,0-46.3,19.2l-21-21a12.6,12.6,0,0,0-17.9,0l-42.7,42.6a12.7,12.7,0,0,0,0,18l21,21a173.5,173.5,0,0,0-19.2,46.3h-29.7a12.7,12.7,0,0,0-12.7,12.7v60.3a12.7,12.7,0,0,0,12.7,12.7h29.7a173.5,173.5,0,0,0,19.2,46.3l-21,21.1a12.6,12.6,0,0,0,0,17.9l42.7,42.7a12.7,12.7,0,0,0,17.9,0l21-21.1a175.1,175.1,0,0,0,46.3,19.3v29.7a12.6,12.6,0,0,0,12.7,12.6h60.4a12.5,12.5,0,0,0,12.6-12.6V969a175.7,175.7,0,0,0,46.4-19.3l21,21.1a12.7,12.7,0,0,0,17.9,0l42.7-42.7a12.7,12.7,0,0,0,0-17.9l-21-21.1a173.5,173.5,0,0,0,19.2-46.3h29.7a12.7,12.7,0,0,0,12.7-12.7V769.8A12.7,12.7,0,0,0,1977.1,757.1ZM1778.4,852a52.1,52.1,0,1,1,52-52A52,52,0,0,1,1778.4,852Z" class="color7a8b9a svgShape"></path><path fill="#a3b8cd" d="M1089.8,570.6h-12.5a73.5,73.5,0,0,0-8-19.4l8.8-8.8a5.3,5.3,0,0,0,0-7.5L1060.2,517a5.3,5.3,0,0,0-7.5,0l-8.8,8.8a73.5,73.5,0,0,0-19.4-8V505.3a5.4,5.4,0,0,0-5.4-5.3H993.9a5.4,5.4,0,0,0-5.4,5.3v12.5a73.5,73.5,0,0,0-19.4,8l-8.8-8.8a5.3,5.3,0,0,0-7.5,0l-17.9,17.9a5.3,5.3,0,0,0,0,7.5l8.8,8.8a73.5,73.5,0,0,0-8,19.4H923.2a5.3,5.3,0,0,0-5.3,5.3v25.3a5.3,5.3,0,0,0,5.3,5.3h12.5a72.8,72.8,0,0,0,8,19.5l-8.8,8.8a5.3,5.3,0,0,0,0,7.5l17.9,17.9a5.4,5.4,0,0,0,7.5,0l8.8-8.8a73.5,73.5,0,0,0,19.4,8v12.5a5.4,5.4,0,0,0,5.4,5.3h25.2a5.4,5.4,0,0,0,5.4-5.3V659.4a73.5,73.5,0,0,0,19.4-8l8.8,8.8a5.4,5.4,0,0,0,7.5,0l17.9-17.9a5.3,5.3,0,0,0,0-7.5l-8.8-8.8a72.8,72.8,0,0,0,8-19.5h12.5a5.3,5.3,0,0,0,5.3-5.3V575.9A5.3,5.3,0,0,0,1089.8,570.6Zm-83.3,39.8a21.8,21.8,0,1,1,21.8-21.8A21.9,21.9,0,0,1,1006.5,610.4Z" class="colora3bacd svgShape"></path><path fill="#b7cee6" d="M2095.1,927.7h-22.5a130.9,130.9,0,0,0-14.6-35.1l15.9-15.9a9.4,9.4,0,0,0,0-13.5l-32.2-32.3a9.5,9.5,0,0,0-13.6,0l-15.9,15.9a126.9,126.9,0,0,0-35-14.5V809.8a9.6,9.6,0,0,0-9.6-9.6H1922a9.6,9.6,0,0,0-9.6,9.6v22.5a127.5,127.5,0,0,0-35.1,14.5l-15.9-15.9a9.4,9.4,0,0,0-13.5,0l-32.3,32.3a9.6,9.6,0,0,0,0,13.5l15.9,15.9a130.7,130.7,0,0,0-14.5,35.1h-22.5a9.5,9.5,0,0,0-9.6,9.5v45.7a9.6,9.6,0,0,0,9.6,9.6H1817a130,130,0,0,0,14.5,35l-15.9,15.9a9.7,9.7,0,0,0,0,13.6l32.3,32.2a9.4,9.4,0,0,0,13.5,0l15.9-15.9a130.9,130.9,0,0,0,35.1,14.6v22.4a9.6,9.6,0,0,0,9.6,9.6h45.6a9.6,9.6,0,0,0,9.6-9.6v-22.4a130.2,130.2,0,0,0,35-14.6l15.9,15.9a9.5,9.5,0,0,0,13.6,0l32.2-32.2a9.5,9.5,0,0,0,0-13.6l-15.9-15.9a130.2,130.2,0,0,0,14.6-35h22.5a9.6,9.6,0,0,0,9.5-9.6V937.2A9.5,9.5,0,0,0,2095.1,927.7Zm-150.3,128.6a96.2,96.2,0,1,1,96.2-96.2A96.2,96.2,0,0,1,1944.8,1056.3Z" class="colorb7d0e6 svgShape"></path><path fill="#a3b8cd" d="M320.5,1474.5H309.3a65.8,65.8,0,0,0-7.2-17.5l7.9-7.9a4.8,4.8,0,0,0,0-6.8l-16.1-16.1a5,5,0,0,0-6.8,0l-7.9,8a62.3,62.3,0,0,0-17.4-7.3v-11.2a4.9,4.9,0,0,0-4.8-4.8H234.2a4.8,4.8,0,0,0-4.7,4.8v11.2a62.9,62.9,0,0,0-17.5,7.3l-7.9-8a5,5,0,0,0-6.8,0l-16.1,16.1a5,5,0,0,0,0,6.8l8,7.9a66.1,66.1,0,0,0-7.3,17.5H170.7a4.8,4.8,0,0,0-4.8,4.7V1502a4.9,4.9,0,0,0,4.8,4.8h11.2a66.8,66.8,0,0,0,7.3,17.4l-8,7.9a5,5,0,0,0,0,6.8l16.1,16.1a5,5,0,0,0,6.8,0l7.9-7.9a65.8,65.8,0,0,0,17.5,7.2v11.2a4.8,4.8,0,0,0,4.7,4.8H257a4.9,4.9,0,0,0,4.8-4.8v-11.2a65.2,65.2,0,0,0,17.4-7.2l7.9,7.9a5,5,0,0,0,6.8,0l16.1-16.1a4.8,4.8,0,0,0,0-6.8l-7.9-7.9a66.6,66.6,0,0,0,7.2-17.4h11.2a4.9,4.9,0,0,0,4.8-4.8v-22.8A4.8,4.8,0,0,0,320.5,1474.5Zm-74.9,64.1a48,48,0,1,1,48-48A47.9,47.9,0,0,1,245.6,1538.6Z" class="colora3bacd svgShape"></path><path fill="#98c2ec" d="M1727.7,1229.4v417.2a32.3,32.3,0,0,1-32.4,32.3H1278.1V1503.2a50.9,50.9,0,0,1-20,3.9,53,53,0,1,1,20-102V1229.4h176a53,53,0,1,0,101.8,20.8,51.6,51.6,0,0,0-4.3-20.8Z" class="color98a1ec svgShape"></path><path fill="#60acf9" d="M1351.9,1004.7a52.9,52.9,0,0,1-53,52.9,53.7,53.7,0,0,1-20.8-4.2v176h-176a53,53,0,1,1-97.5,0h-176V812.3A32.4,32.4,0,0,1,861,779.9h417.1V956a52,52,0,0,1,20.8-4.3A53,53,0,0,1,1351.9,1004.7Z" class="colorf9b760 svgShape"></path><path fill="#b7cee6" d="M767.5,690.4V920.8a22.8,22.8,0,0,1-22.8,22.7H474.2a22.7,22.7,0,0,1-22.7-22.7V690.4a22.7,22.7,0,0,1,22.7-22.7H744.7A22.8,22.8,0,0,1,767.5,690.4Z" class="colorb7d0e6 svgShape"></path><path fill="#0575e6" d="M767.5,900v20.8a22.8,22.8,0,0,1-22.8,22.7h-193l69.9-56.3,62.9-50.6Z" class="color7a8b9a svgShape"></path><path fill="#a3b8cd" d="M695.3,943.5H474.2a22.7,22.7,0,0,1-22.7-22.7v-.6l103.8-83.6,66.3,50.6Z" class="colora3bacd svgShape"></path><circle cx="695.3" cy="744.5" r="40.2" fill="#a3b8cd" class="colora3bacd svgShape"></circle><path fill="#c9e3fd" d="M515.9 1558.3s-50.6 97.7 35.8 116.9zM628.6 1799l-60.5 101.6c-43.2-7.7-43.9-30.6-43.9-30.6L559 1765.5C590.5 1767.4 628.6 1799 628.6 1799z" class="colorfdd2c9 svgShape"></path><path fill="#021b79" d="M504.1,1903.6c-5,1.6-8.3,6.2-10.7,10.7a65.4,65.4,0,0,0-7.4,35.2c11.9,10.2,25,19.7,36.8,29.9,8.3,7.2,16.9,14.6,27.4,18.3s21.9,3.2,30.8-2.4,13.9-17.1,10.3-26.8-12.5-14.7-19.8-21.3a68.3,68.3,0,0,1-15.4-20.8c-2.5-5.2-4.4-11-8.3-15.3s-12.3-8-19.6-8.6S511,1901.4,504.1,1903.6Z" class="color1a294a svgShape"></path><path fill="#ffffff" d="M568.1 1900.6l-16 26.8a30.6 30.6 0 01-38.6-20.3l-.8-2.6 11.5-34.5S524.9 1892.9 568.1 1900.6zM568.1 1935.5c-5.1-3.8-13.3-3.1-19-1a34.8 34.8 0 00-7.7 4.4c-1.2.8-2.1 1.9-3.3 2.8a14.7 14.7 0 00-3.1 3.5c-.6 1.3.7 3.1 2.1 2.7a9.5 9.5 0 003.5-1.7l3.4-1.9a42.7 42.7 0 016.7-3.5 21.9 21.9 0 017.2-1.4c2.7 0 5.3.9 8 1.2a2.8 2.8 0 002.7-1 4.2 4.2 0 00.6-1.4A2.8 2.8 0 00568.1 1935.5zM584.5 1952.3c-1.9-1.9-6-1.7-8.5-1.7a34.3 34.3 0 00-7.7 1.2 24.8 24.8 0 00-12.6 8.2c-1.8 2.2 1.1 4.9 3.3 3.4a34.2 34.2 0 0111.2-5.1 28.1 28.1 0 016.5-.7h2.6c1.6.2 3 .5 4.5-.1a3.3 3.3 0 001.9-2.4A3.5 3.5 0 00584.5 1952.3z" class="colorffffff svgShape"></path><path fill="#c9e3fd" d="M757.7,1778.3,771,1895.8c-39,20-53.5,2.3-53.5,2.3L682,1793.7C708.3,1776.3,757.7,1778.3,757.7,1778.3Z" class="colorfdd2c9 svgShape"></path><path fill="#021b79" d="M721.9,1937c-3,4.3-2.9,9.9-2.1,15a65.6,65.6,0,0,0,15.4,32.4c15.7,1,31.8.6,47.5,1.6,10.9.7,22.2,1.3,32.8-2s19.4-10.7,23.1-20.6.7-22-8-27.6-18.8-4.1-28.7-5a66.3,66.3,0,0,1-24.8-7.1c-5.2-2.7-10.1-6.1-16-7.2s-14.6,1.1-20.7,5S726.1,1931,721.9,1937Z" class="color1a294a svgShape"></path><path fill="#ffffff" d="M771,1895.8l3.5,31.1a30.7,30.7,0,0,1-43,7.2l-2.2-1.6-11.8-34.4S732,1915.8,771,1895.8Z" class="colorffffff svgShape"></path><path fill="#37436e" d="M664.6,1687.7l-107.3-23.3-9.1,70.2s-21.5,60.6-23.9,73.6c55.6,52.7,98.6,40.6,98.6,40.6l35.5-85.9,12.3,89s57,9.5,101.8-12l-21.7-156.5Z" class="color373f6e svgShape"></path><path fill="#98c2ec" d="M709,1470l81,29.4-3.2,32.9-36,6.3c-.1,21.9-2.1,102,0,144.8-79.7,18.9-115.7,10.8-193.5-19,6.6-39.6,16.3-83.1,22.9-122.7l-17.7,18.5L523,1527s51.2-42.5,87.7-53.8C632.7,1466.3,690.2,1467.8,709,1470Z" class="color98a1ec svgShape"></path><path fill="#ffffff" d="M792.1 1923.6c-6.3.1-12.4 5.6-15.7 10.7a39.7 39.7 0 00-3.5 8.2c-.4 1.4-.5 2.8-.8 4.2a10.8 10.8 0 00-.4 4.7 2 2 0 003.3.9 11.4 11.4 0 001.7-3.5c.4-1.3 1.1-2.4 1.5-3.6a38.9 38.9 0 013.3-6.8 19.8 19.8 0 014.9-5.5c2.2-1.7 4.8-2.5 7.1-3.9a3 3 0 001.5-2.4 6.6 6.6 0 00-.4-1.5A2.8 2.8 0 00792.1 1923.6zM815.4 1927.1c-2.8-.4-5.8 2.2-7.8 3.8a28.7 28.7 0 00-5.4 5.6 25.1 25.1 0 00-5.2 14.1c0 2.9 3.9 3.2 4.8.7a32 32 0 015.8-10.8 28.5 28.5 0 014.7-4.5l.2-.2.8-.5 1.2-.8a8.5 8.5 0 003.5-2.7 3.1 3.1 0 000-3.1A3 3 0 00815.4 1927.1z" class="colorffffff svgShape"></path><ellipse cx="673.2" cy="1503.7" fill="#37436e" rx="3.1" ry="4.3" transform="rotate(-7.1 670.01 1497.86)" class="color373f6e svgShape"></ellipse><ellipse cx="675.8" cy="1525.7" fill="#37436e" rx="3.1" ry="4.3" transform="rotate(-7.1 672.74 1519.065)" class="color373f6e svgShape"></ellipse><path fill="#9ac9f8" d="M634.2,1453.6l-.7,24.7s38.1,18.6,68.4.6l-1.2-25.7Z" class="colorf8a19a svgShape"></path><path fill="#c9e3fd" d="M765.5 1416.5s27.8.4 24.2-24.4-23-18.9-23-18.9zM577.9 1401.4s-27.6 3.8-26.9-21.3 24.8-20.7 24.8-20.7z" class="colorfdd2c9 svgShape"></path><path fill="#c9e3fd" d="M572.5,1377.2s-4.9,82.3,96.6,87.8,101.4-72.1,101.4-72.1l8.7-87.4-159.7-30.3-28.1,14.7Z" class="colorfdd2c9 svgShape"></path><circle cx="641" cy="1362.3" r="7.4" fill="#05091a" class="color091a05 svgShape"></circle><circle cx="729.2" cy="1371.7" r="7.4" fill="#05091a" class="color091a05 svgShape"></circle><ellipse cx="623.6" cy="1339.8" fill="#05091a" rx="16.8" ry="6.8" transform="rotate(-23 624.231 1340.88)" class="color091a05 svgShape"></ellipse><ellipse cx="734.4" cy="1347.2" fill="#05091a" rx="6.8" ry="16.8" transform="rotate(-69.5 735.287 1347.626)" class="color091a05 svgShape"></ellipse><path fill="#9ac9f8" d="M686.6,1383.1c-4.4-3.4-10.2-2.4-15.1-.9a1.9,1.9,0,0,0-1.2,2.6,2.4,2.4,0,0,0,2.9,1.2c3.3-1.1,7.5-2.1,10.4,0a6.5,6.5,0,0,1,1.7,8.4c-.6,1,.2,2.2,1.1,2.7a2.5,2.5,0,0,0,3-1A10.3,10.3,0,0,0,686.6,1383.1Z" class="colorf8a19a svgShape"></path><path fill="#05091a" d="M691.6,1428.6a27.9,27.9,0,0,1-3.8,3,24.4,24.4,0,0,1-11.8,3.3c-7.1,0-14.3-3.1-18.3-8.9h-.1c-3.8-5.6-4.2-13.9-.1-19.3a.9.9,0,0,1,.3-.5l11.3,1.6,17.1,2.4,10.4,1.5h.3C698.7,1417.1,695.5,1424.4,691.6,1428.6Z" class="color091a05 svgShape"></path><path fill="#3d58bf" d="M687.8,1431.6a24.4,24.4,0,0,1-11.8,3.3c-7.1,0-14.3-3.1-18.3-8.9h-.1c1.9-1.4,5.6-1.9,7.6-2.2a29,29,0,0,1,9.3.3,27.7,27.7,0,0,1,9.7,4A11.3,11.3,0,0,1,687.8,1431.6Z" class="colorbf473d svgShape"></path><path fill="#ffffff" d="M696.6,1411.6c-2.3,1.9-5.5,2.2-8.5,2.3a85.3,85.3,0,0,1-11.2-.7,89,89,0,0,1-10-2.1c-2.4-.6-7.3-1.4-8.9-3.5a1.6,1.6,0,0,1-.5-1,.9.9,0,0,1,.3-.5l11.3,1.6,17.1,2.4Z" class="colorffffff svgShape"></path><circle cx="614.1" cy="1389.6" r="12.2" fill="#9ac9f8" class="colorf8a19a svgShape"></circle><circle cx="738.6" cy="1400.7" r="12.2" fill="#9ac9f8" class="colorf8a19a svgShape"></circle><path fill="#9ac9f8" d="M570.8 1388.2a45.6 45.6 0 012.7-13.6 22.7 22.7 0 00-15.9-5.6 2.6 2.6 0 00-1.7.5 1 1 0 00-.3 1.5 2 2 0 00.8.4l7 2a19.5 19.5 0 00-5.4 6.4c-1.2 2.8-1.6 6.3.4 8.6s3.3 2.2 5.3 2.7a8.8 8.8 0 004.8.3A2.9 2.9 0 00570.8 1388.2zM768.3 1403.1a72.5 72.5 0 002.6-13.6c3.5-2.6 7.1-2.9 10.2-1.2a1.3 1.3 0 01.7.9 1.6 1.6 0 01-.3 1.6h-4.9a20.1 20.1 0 011 7.5c-.1 2.9-1 6.4-2.7 8a4.8 4.8 0 01-3.6 1.2 3.8 3.8 0 01-2.7-1C767.8 1405.9 767.8 1404.6 768.3 1403.1z" class="colorf8a19a svgShape"></path><path fill="#05091a" d="M573.9,1380.2h.1a5.9,5.9,0,0,0,6.5-4l22.2-70.8s3,17.3,11.9,11.5,8.2-24.4,8.2-24.4,65.1,46.7,152.8,24.2l-5.4,77.4,22.4-93s24.2-2.2,13.5-36.8-51.6-12.7-51.6-12.7,24.7-45.4-49.7-41-115.1,53.3-115.1,53.3-37.9-15.5-26.7,32.5S573.9,1380.2,573.9,1380.2Z" class="color091a05 svgShape"></path><path fill="#37436e" d="M622.9 1470l10.6-8.7s7.4 20.9 38.4 25.5l-10.8 11.7S633.3 1495.6 622.9 1470zM701.2 1463.7l-29.3 23.1 9.6 11.7s24.8-12 31.4-25.4z" class="color373f6e svgShape"></path><path fill="#6f768f" d="M928.7,1624.9a53.1,53.1,0,0,0,65.9,35.6,54,54,0,0,0,18.1-9.5l50.2,168.4L663.2,1938.6a32.4,32.4,0,0,1-40.3-21.7L503.6,1517.1l168.7-50.3a53,53,0,1,0,103.4-9.2,54.4,54.4,0,0,0-10-18.7l168.7-50.3L984.6,1557a54.5,54.5,0,0,0-20.3,2A53,53,0,0,0,928.7,1624.9Z" class="color878f6f svgShape"></path><path fill="#c9e3fd" d="M540.9 1646.3l6.6-12.8a2.8 2.8 0 015.4 1.1v9.9l27.9-12.6a1.9 1.9 0 012.1 3.2l-17.2 14.2 23.6-3.6a2.2 2.2 0 011.2 4.1l-18.9 8.3 17.3 1.7a1.8 1.8 0 01.1 3.6l-17.7 3.3 9.6 2.9a2.7 2.7 0 01-.8 5.3l-29.7.3zM939.9 1594.3a26.5 26.5 0 00.8-20.5l-1.2-3.1a2.8 2.8 0 00-5.4.5l-1.2 9.8-26.3-15.9a1.9 1.9 0 00-2.4 2.9l15.4 16.2-23-6.4a2.2 2.2 0 00-1.7 3.9l17.8 10.6-17.4-.4a1.8 1.8 0 00-.6 3.5l17.3 5.4-9.9 1.7a2.7 2.7 0 00.1 5.4l10.3 1.3a26.5 26.5 0 0027.4-14.9z" class="colorfdd2c9 svgShape"></path><polygon fill="#37436e" points="1942.9 1498.7 1925.6 1487.3 1901 1531.8 1925.8 1550.2 1942.9 1498.7" class="color373f6e svgShape"></polygon><path fill="#3959d3" d="M1809.9,1679.8l-146.8-97.1a54.3,54.3,0,0,1-7.9,19.6,53,53,0,1,1-73.4-73.4L1435,1431.7l97.2-146.8a53,53,0,1,0,53.7-81.2l97.2-146.8,347.8,230.2a32.5,32.5,0,0,1,9.2,44.9Z" class="colord35d39 svgShape"></path><path fill="#60acf9" d="M2021.9,1214.5c21,1.8,42.3,3.7,61.8,11.7s37.2,22.9,43.2,43c4.6,15.8,1.7,32.8,3.2,49.2,1.8,19.4,9.8,37.8,18.8,55.1s19.1,34.2,25.7,52.6,9.3,38.9,3.2,57.4-22.6,34.4-42.1,35.7-39.5-15.5-38.1-35c-3.8.9-7.9,3-11.8,3.5a64.9,64.9,0,0,1-40.7-7.9,64.2,64.2,0,0,1-27.4-31c-34.1,7.8-66.7,14.3-101.6,16-12.6.7-25.5.9-37.5-3s-23.2-12.5-26.9-24.6c-13.8,9.3-35.3,5.2-48.9-4.4s-21.4-26.2-21.9-42.9a62.7,62.7,0,0,1,59.2-64.7c12.9-.8,21.2-3.6,29.7-13.4s13.2-22.3,16.9-34.7,6.9-25.2,13.2-36.5a74.8,74.8,0,0,1,50-36.7C1970.8,1199.7,2005.2,1201.3,2021.9,1214.5Z" class="colorf9b760 svgShape"></path><path fill="#c9e3fd" d="M2014.5,1803.1l66.9,97.5c42.6-10.4,41.8-33.3,41.8-33.3l-41.4-102.1C2050.5,1769.2,2014.5,1803.1,2014.5,1803.1Z" class="colorfdd2c9 svgShape"></path><path fill="#021b79" d="M2145.4,1899.6c5.1,1.3,8.7,5.6,11.4,10a65.6,65.6,0,0,1,9.6,34.6c-11.2,11-23.7,21.2-34.9,32.2-7.8,7.7-15.9,15.6-26.1,20s-21.7,4.6-30.9-.5-14.9-16.1-12-26,11.5-15.5,18.4-22.5a67.1,67.1,0,0,0,14.1-21.7c2.2-5.5,3.6-11.3,7.3-15.9s11.8-8.7,19-9.8S2138.4,1897.8,2145.4,1899.6Z" class="color1a294a svgShape"></path><path fill="#ffffff" d="M2081.4 1900.6l17.6 25.8a30.7 30.7 0 0037.3-22.7l.6-2.7-13.7-33.7S2124 1890.2 2081.4 1900.6zM2083.6 1935.5c4.9-4.1 13-4 18.8-2.2a34.5 34.5 0 018 3.8c1.3.8 2.3 1.8 3.5 2.7a12.6 12.6 0 013.3 3.2 2 2 0 01-1.9 2.9 10.2 10.2 0 01-3.6-1.5 135.8 135.8 0 00-10.4-4.7 22.6 22.6 0 00-7.3-1c-2.7.2-5.2 1.3-7.9 1.8a3.2 3.2 0 01-2.7-.9 3.1 3.1 0 01-.7-1.4A2.6 2.6 0 012083.6 1935.5zM2068.3 1953.3c1.8-2.1 5.8-2.1 8.3-2.2a25.5 25.5 0 017.8.7 24.5 24.5 0 0113.1 7.3c1.9 2.1-.8 4.9-3.1 3.6a36.9 36.9 0 00-11.5-4.4 35 35 0 00-6.5-.3h-1.1l-1.5.2a8.6 8.6 0 01-4.5.1 3 3 0 01-2-2.3A3.2 3.2 0 012068.3 1953.3z" class="colorffffff svgShape"></path><path fill="#c9e3fd" d="M1912.3,1777.1l-25.8,115.4c36.6,24.1,52.9,8,52.9,8l46.5-99.9C1961.7,1780.4,1912.3,1777.1,1912.3,1777.1Z" class="colorfdd2c9 svgShape"></path><path fill="#021b79" d="M1930.9,1938.7c2.5,4.6,1.8,10.2.4,15.1a64.7,64.7,0,0,1-18.8,30.6c-15.6-.7-31.6-2.8-47.3-3.5-11-.5-22.3-1-32.4-5.5s-18.2-12.8-20.7-23,1.6-21.9,10.9-26.5,19.1-2.1,29-1.9a67.2,67.2,0,0,0,25.5-4.4c5.4-2.2,10.7-5,16.6-5.5s14.4,2.7,20.1,7.3S1927.4,1932.3,1930.9,1938.7Z" class="color1a294a svgShape"></path><path fill="#ffffff" d="M1886.5 1892.5l-6.8 30.5a30.7 30.7 0 0042 11.8l2.3-1.3 15.4-33S1923.1 1916.6 1886.5 1892.5zM1862.5 1917.9c6.3.8 11.8 6.8 14.5 12.3a39.9 39.9 0 012.6 8.5c.3 1.4.2 2.9.4 4.3a14.8 14.8 0 01-.1 4.7c-.4 1.3-2.6 1.8-3.4.5a10.9 10.9 0 01-1.4-3.7c-.3-1.2-.8-2.4-1.1-3.7a46.1 46.1 0 00-2.5-7.1 21.3 21.3 0 00-4.3-6c-2-1.9-4.5-3-6.6-4.6a2.7 2.7 0 01-1.2-2.6 2.7 2.7 0 01.5-1.4A2.9 2.9 0 011862.5 1917.9zM1839 1918.8c2.8-.1 5.5 2.9 7.4 4.6a28.2 28.2 0 014.7 6.2 24.3 24.3 0 013.6 14.6c-.2 2.8-4.1 2.8-4.8.2a35 35 0 00-4.6-11.4 28.6 28.6 0 00-4.2-5h-.2a2.3 2.3 0 00-.7-.7l-1.1-.9a8.7 8.7 0 01-3.2-3.1 3.1 3.1 0 01.3-3.1A3.4 3.4 0 011839 1918.8z" class="colorffffff svgShape"></path><path fill="#37436e" d="M1875.2,1827.7l39.2-128.4,171.2-1.8s11.8,23.1,9.3,73.5l28.3,46.7S2019.2,1883.3,1875.2,1827.7Z" class="color373f6e svgShape"></path><path fill="#98c2ec" d="M1902.3,1712.1c92.2,40.8,188-11.5,188-11.5s-30.5-193.5-88-213.5c-25.9-9.1-45.9-3.1-60.1,6.2A56.4,56.4,0,0,0,1917,1542Z" class="color98a1ec svgShape"></path><path fill="#9ac9f8" d="M2020,1477.4l-.6,21.1s-9.5,14.8-46.5,15.2c-13.2.1-33.8-2.4-36.8-12.5,1.9-18,1.9-44.2,2.6-43.6S2020,1477.4,2020,1477.4Z" class="colorf8a19a svgShape"></path><path fill="#c9e3fd" d="M2081.1,1338c9.3-6.1-8.1,52-8.1,52,8.8-3.9,27.9-8.6,33.4-.5s4.6,20.3-1.8,27.7-17.8,9.5-26,4.7c-8.9,30-38.2,51.6-72.4,64.5s-120.9-.7-131.5-71.6c-2.5-17.3,7.4-35.6,21.2-45.4-12.3-47.7,17.6-90.2,17.6-90.2s-4.3,27.4,31.9,20.4c0,0,3.7,24,40.7,37.4s59.4-10,59.4-10S2056.2,1354.4,2081.1,1338Z" class="colorfdd2c9 svgShape"></path><path fill="#9ac9f8" d="M1942.3,1389.4a13,13,0,0,1,5-2.1c1.9-.3,4.6-.2,6.1,1.3a4.2,4.2,0,0,1,1.5,4.3,4.1,4.1,0,0,1-3.4,3,8.7,8.7,0,0,1-2.3.1h-1l-.7.3h0l-.6.4h0l-.5.6c.1-.1.1-.1.1-.2s-.1.2-.1.3l-.2.3v.2c-.1,0-.1.1-.1.2s-.1.3-.1.4v.9a2,2,0,0,0,.1.7h0l.6,1.3h.1a1.8,1.8,0,0,0,.5.7h0l.6.5.8.5h.1l.7.4.9.3,1,.2h.9l2-.3a3.9,3.9,0,0,1,1.1,7.7c-5.7,1.4-12.6-.6-15.8-5.8a13.6,13.6,0,0,1-2.1-9A11.8,11.8,0,0,1,1942.3,1389.4Z" class="colorf8a19a svgShape"></path><path fill="#a0a0a0" d="M1948.6 1396h0zM1946.4 1397.5h0l-.2.4.2-.3z" class="colora0a0a0 svgShape"></path><path fill="#05091a" d="M1944.3,1449.2a22.4,22.4,0,0,0,3.7,3.2,24.1,24.1,0,0,0,12,3.6c7.1.3,14.6-2.7,18.9-8.4h0c4.1-5.6,4.7-14,.7-19.7a1,1,0,0,0-.4-.5l-11.5,1.3-17.4,2-10.6,1.2h-.4C1937.4,1437.4,1940.4,1444.9,1944.3,1449.2Z" class="color091a05 svgShape"></path><path fill="#3d58bf" d="M1948,1452.4a24.1,24.1,0,0,0,12,3.6c7.1.3,14.6-2.7,18.9-8.4h0c-1.9-1.5-5.6-2.1-7.7-2.5a29.6,29.6,0,0,0-9.4,0,25.5,25.5,0,0,0-10,3.9A10.7,10.7,0,0,0,1948,1452.4Z" class="colorbf473d svgShape"></path><path fill="#ffffff" d="M1939.7,1431.8c2.2,2,5.5,2.4,8.5,2.5a72.4,72.4,0,0,0,11.4-.3,88.7,88.7,0,0,0,10.3-1.8c2.5-.7,7.4-1.3,9.1-3.3a4.1,4.1,0,0,0,.6-1.1,1,1,0,0,0-.4-.5l-11.5,1.3-17.4,2Z" class="colorffffff svgShape"></path><path fill="#9ac9f8" d="M2084.2,1408.6a43.3,43.3,0,0,0,1-13.9,22.3,22.3,0,0,1,16.8-1.2,4,4,0,0,1,1.6.8c.3.5.4,1.3-.1,1.6a1.5,1.5,0,0,1-.9.2h-7.3c1.5,2.2,3.1,4.9,3.5,7.6s-.1,6.5-2.6,8.2-3.8,1.2-5.8,1.2a9.8,9.8,0,0,1-4.8-.9A3.2,3.2,0,0,1,2084.2,1408.6Z" class="colorf8a19a svgShape"></path><ellipse cx="1890.9" cy="1403.1" fill="#9ac9f8" rx="8.2" ry="13.8" transform="rotate(-82.9 1891.846 1402.97)" class="colorf8a19a svgShape"></ellipse><ellipse cx="2020.8" cy="1416.8" fill="#9ac9f8" rx="8.2" ry="13.8" transform="rotate(-82.9 2021.716 1416.692)" class="colorf8a19a svgShape"></ellipse><ellipse cx="1907.5" cy="1345.5" fill="#60acf9" rx="19.2" ry="8.5" class="colorf9b760 svgShape"></ellipse><ellipse cx="2021.4" cy="1361.2" fill="#60acf9" rx="8.5" ry="19.2" transform="rotate(-75.5 2020.287 1361.308)" class="colorf9b760 svgShape"></ellipse><circle cx="1997" cy="1384" r="8.4" fill="#05091a" class="color091a05 svgShape"></circle><circle cx="1909.2" cy="1373.2" r="8.4" fill="#05091a" class="color091a05 svgShape"></circle><path fill="#c9e3fd" d="M1984.3,1593.1s-72.8,88.4-170.7-65.9l-29.3-18.1a1.9,1.9,0,0,1,1.2-3.4l12,1.4-12.6-18.1a1.9,1.9,0,0,1,2.6-2.6l15.6,11-9.3-18.2a1.9,1.9,0,0,1,3-2.1l14.5,14.6-3.4-14.8a1.8,1.8,0,0,1,3.4-1.3c6.2,10.2,15.2,24.7,15.5,24.1s4.3-6.4,8.1-11.8a2.6,2.6,0,0,1,4.7,1.9l-4.2,27.1,89.3,61.9,28.8-19.1Z" class="colorfdd2c9 svgShape"></path><path fill="#37436e" d="M1986.1,1596.9l-38.1-40.6s41.2-56,68.7-34.2C2052.2,1550.2,1986.1,1596.9,1986.1,1596.9Z" class="color373f6e svgShape"></path><path fill="#60acf9" d="M2073,1390s-16-26.8,1.7-53,20.9-.5,20.9,1.9-5.3,21.7-5.3,21.7Z" class="colorf9b760 svgShape"></path><polygon fill="#5171eb" points="1018.8 1984.4 1047 1984.4 1165.4 1681.8 1137.2 1681.8 1018.8 1984.4" class="coloreb9c51 svgShape"></polygon><rect width="147" height="55.46" x="1115.5" y="1741.7" fill="#5171eb" transform="rotate(-180 1189 1769.45)" class="coloreb9c51 svgShape"></rect><rect width="144.6" height="55.46" x="1063.8" y="1884.2" fill="#5171eb" transform="rotate(-180 1136.1 1911.9)" class="coloreb9c51 svgShape"></rect><polygon fill="#5171eb" points="1165.4 1984.4 1193.6 1984.4 1312.1 1681.8 1283.8 1681.8 1165.4 1984.4" class="coloreb9c51 svgShape"></polygon><polygon fill="#5171eb" points="1526.9 1984.4 1498.7 1984.4 1380.2 1681.8 1408.5 1681.8 1526.9 1984.4" class="coloreb9c51 svgShape"></polygon><rect width="147" height="55.46" x="1283.2" y="1741.7" fill="#60acf9" class="colorf9b760 svgShape"></rect><rect width="144.6" height="55.46" x="1337.3" y="1884.2" fill="#60acf9" class="colorf9b760 svgShape"></rect><polygon fill="#5171eb" points="1380.2 1984.4 1352 1984.4 1233.6 1681.8 1261.8 1681.8 1380.2 1984.4" class="coloreb9c51 svgShape"></polygon><rect width="278.4" height="55.46" x="1135.2" y="1641.7" fill="#60acf9" class="colorf9b760 svgShape"></rect><rect width="113.6" height="55.46" x="1135.2" y="1641.7" fill="#5171eb" class="coloreb9c51 svgShape"></rect><path fill="#6f768f" d="M294.6 1860.8l-5.8.9-63.8-185C277.9 1721.4 306.1 1792.6 294.6 1860.8zM358.8 1868.1a318.4 318.4 0 01-35.6 4.6l18.1-303.1C380.2 1663.4 386.5 1770.4 358.8 1868.1z" class="color878f6f svgShape"></path><path fill="#94a9be" d="M341.3 1569.6l-18.1 303.1a150.4 150.4 0 01-27.6-.8C269.3 1770.5 286.2 1658.6 341.3 1569.6zM288.8 1861.7l-24.4 4c-36.7-54.8-51.1-124.1-39.4-189z" class="colorb4be94 svgShape"></path><path fill="#6f768f" d="M361.7,1860.8l5.8.9,63.8-185C378.4,1721.4,350.1,1792.6,361.7,1860.8Z" class="color878f6f svgShape"></path><path fill="#94a9be" d="M367.5,1861.7c8.1,1.3,16.4,2.8,24.3,4,36.7-54.8,51.2-124.1,39.5-189Z" class="colorb4be94 svgShape"></path><polygon fill="#60acf9" points="403.6 1984.7 255.9 1984.7 245.6 1865.4 413.9 1865.4 403.6 1984.7" class="colorf9b760 svgShape"></polygon><rect width="182.4" height="24.69" x="238.6" y="1855.4" fill="#60acf9" class="colorf9b760 svgShape"></rect><polygon fill="#5171eb" points="246.9 1880.2 248.5 1899.2 409.3 1919.2 412.8 1879 246.9 1880.2" class="coloreb9c51 svgShape"></polygon><circle cx="272.5" cy="1925" r="7.4" fill="#5171eb" class="coloreb9c51 svgShape"></circle><circle cx="263.4" cy="1948.9" r="2.7" fill="#5171eb" class="coloreb9c51 svgShape"></circle></g></svg>