<svg xmlns="http://www.w3.org/2000/svg" enable-background="new 0 0 850 850" viewBox="0 0 850 850" id="Thegirlsenttheemail"><path fill="#dcdee0" d="M300.4,232.7c0.1-0.1-0.1-0.1-0.3-0.1l-56.4-18.2l-41.6,44.4c-0.1,0.1-0.3,0.2-0.2,0.2l60.7,24.6L300.4,232.7
			z" class="colordcdde0 svgShape"></path><path fill="#cecece" d="M202.3,259.2l58,16.8l39.9-43c0.1-0.1,0.2,0,0.3,0.1l15,56c0,0.1,0,0.2-0.2,0.2l-97.9,26.2
			c-0.1,0.1-0.2,0-0.3-0.1l-15-56C202.1,259.4,202.2,259.3,202.3,259.2z" class="colorcecece svgShape"></path><path fill="#dcdee0" d="M633.9,415.4c0.3-0.2-0.4-0.4-0.7-0.6L483,317.7l-156,97.2c-0.3,0.2-0.9,0.4-0.7,0.6l158,119.2L633.9,415.4z" class="colordcdde0 svgShape"></path><path fill="#0575e6" d="M370.6,244.8c-12.1,0-21.9,9.9-21.9,22.3v227.5c0,12.4,9.7,22.3,21.9,22.3h220c12.1,0,21.9-9.9,21.9-22.3
			V267.1c0-0.7,0-1.4-0.1-2.1l26.8-13.6l-11.1-6.7L370.6,244.8z" class="color326d9e svgShape"></path><path fill="#ffffff" d="M630.7,244.6c-10.2,0-18.4,9-18.4,20.1c0,0.2,0,0.3,0,0.5h36.7c0-0.2,0-0.3,0-0.5
			C649.1,253.6,640.9,244.6,630.7,244.6z" class="colorffffff svgShape"></path><path fill="#cecece" d="M327,416.3l156,94.3l150.2-94.3c0.3-0.2,0.7,0.3,0.7,0.6v175.2c0,0.3-0.3,0.6-0.7,0.6H327
			c-0.3,0.2-0.7-0.3-0.7-0.6V416.9C326.4,416.5,326.7,416.3,327,416.3z" class="colorcecece svgShape"></path><path fill="#1c2b63" d="M173.3,417c-7,2.9-12.2,9.2-14.2,17.9c-2.7,11.6,2.8,28.4,12.8,37.5c10,9,19.3,11.4,28.6,13.7
			c9.3,2.3,17.6,3.4,25.1,2.7c2.2-0.2,4.5-0.3,6.9-1.4c4-0.9,6.2-3,8.4-4.9c5.7-4.9,10.7-11.7,15.4-20c4.8-8.3,9.5-16.6,9.9-30.1
			c0.4-13.5-7.9-29.1-18.2-35.2c-7.7-4.6-15.9-5.2-22.8-2.1c-2.3,1-4.5,2.4-6.4,4.2c-7.2,6.6-10.7,14.9-12.4,23.2
			c-7.3-4.6-15.8-7.8-25.6-7.2C178.2,415.4,175.7,416,173.3,417z" class="color1c4663 svgShape"></path><path fill="#0575e6" d="M349.2,528.4l-47.4,12.7c-6.4,1.7-10.2,8.3-8.5,14.7l12.7,47.4c1.7,6.4,8.3,10.2,14.7,8.5l16.2-4.3l9.7,9.2
			l4.2-12.9l17.3-4.6c6.4-1.7,10.2-8.3,8.5-14.7l-12.7-47.4C362.2,530.5,355.6,526.7,349.2,528.4z" class="color326d9e svgShape"></path><path fill="#f0f2f5" d="M372.9,525.9c-1.2,0.4-2.2,1.2-2.8,2.2l-27.8,48.2l-22.6-20.7c-1.1-0.7-2.4-0.8-3.7-0.5
			c-4.1,1.1-4.8,6.7-1.1,8.8l25.3,23.2c0,0,0,0,0,0c1.1,1,2.5,1.5,4,1.3s2.7-1.1,3.4-2.4l30.6-53.1c1-1.7,0.9-3.8-0.3-5.4
			C376.8,526,374.8,525.3,372.9,525.9z" class="colorf0f2f5 svgShape"></path><path fill="#25387f" d="M633.9 588.1c-3.5 6-4.3 13.2-2.4 19.9s6.5 12.6 12.7 16.1c12.9 7.4 29.1 3.3 36.3-9.2 7.2-12.5 2.6-28.6-10.2-36.1-6.2-3.6-13.5-4.6-20.3-2.9C643.2 577.8 637.4 582.1 633.9 588.1zM724.8 500.8L712 523.4c-1.6 2.9-6.2 3.5-10.3 1.4-4.1-2.1-6-6-4.4-8.9l12.7-22.6c2.3-4 6.2-3.5 10.3-1.4S726.4 498 724.8 500.8z" class="color25527f svgShape"></path><path fill="#0575e6" d="M657.7,510.8c27.1-41.3,98-1.9,75.1,43.7c-25.2,50.1-19.1,58.1-17.7,65.4c1.4,6.7-4,14.5-11.2,10.3
			c-11.8-6.8-87.4-49.5-99-56.7c-5.4-3.3-1.3-11.8,5-14.8C616.2,555.7,626.8,557.9,657.7,510.8z" class="color326d9e svgShape"></path><circle cx="739.2" cy="540.7" r="21.5" fill="#25387f" class="color25527f svgShape"></circle><path fill="#f0f2f5" d="M732.8,549.2l8.2-14.2c-5.7,0.8-5.7,0.8-7.1,0c-0.7-0.4-0.7-0.4-0.9-1.2c-0.2-0.8-0.2-0.8,0.2-1.5
			c0.5-0.8,0.5-0.8,1.2-0.9s0.7-0.1,2.3,0.1c2.4,0.2,2.4,0.2,4.1-0.1c1.7-0.3,1.7-0.3,3.3-1c1.6-0.7,1.6-0.7,2-0.8
			c0.4-0.1,0.4-0.1,1.2,0.3c0.8,0.5,0.8,0.5,1,1.4c0.1,0.9,0.1,0.9-0.5,2l-10.3,17.8c-1.8,3.1-1.8,3.1-3.9,1.9
			c-0.9-0.5-0.9-0.5-1.2-1.5C732.1,550.5,732.1,550.5,732.8,549.2z" class="colorf0f2f5 svgShape"></path><polygon fill="#0575e6" points="730.4 295.2 730.4 295.2 752.3 278.1 737.8 263.2 729.5 267.5" class="color326d9e svgShape"></polygon><polygon fill="#0575e6" points="815.5 213.2 772.9 308.2 704 249.5" class="color326d9e svgShape"></polygon><polygon fill="#0575e6" points="752.1 256.7 772.9 308.2 704 249.5" class="color326d9e svgShape"></polygon><polygon fill="#152251" points="815.5 213.2 720.4 261.1 730.4 295.2 734.7 275.5" class="color153651 svgShape"></polygon><path fill="#152251" d="M672.8,351.3c-0.6,5.3-20,8.7-23.6,12.6c-3.6,4-5.1,23.6-10.4,24.7c-5.2,1.1-14.4-16.4-19.3-18.6
			c-4.9-2.2-24.1,2.4-26.7-2.2c-2.7-4.7,11.1-18.8,11.7-24.1c0.6-5.3-9.8-22.1-6.1-26.1c3.6-4,21.3,4.8,26.5,3.7
			c5.2-1.1,18-16.1,22.9-13.9c4.9,2.2,2,21.7,4.7,26.4C655.1,338.5,673.4,346,672.8,351.3z" class="color153651 svgShape"></path><path fill="#ffffff" d="M386.7 305.1l192.4-.3c3.6 0 6.8 3.5 7.1 7.9.3 4.4-2.4 7.9-6.1 7.9l-192.4.3c-3.6 0-6.8-3.5-7.1-7.9C380.4 308.6 383.1 305.1 386.7 305.1zM386.6 358.4l120.5-.3c3.6 0 6.8 3.5 7.1 7.9.3 4.4-2.4 7.9-6.1 7.9l-120.5.3c-3.6 0-6.8-3.5-7.1-7.9C380.2 362 382.9 358.4 386.6 358.4zM386.7 409.4l192.4-.3c3.6 0 6.8 3.5 7.1 7.9.3 4.4-2.4 7.9-6.1 7.9l-192.4.3c-3.6 0-6.8-3.5-7.1-7.9C380.4 413 383.1 409.4 386.7 409.4z" class="colorffffff svgShape"></path><g fill="#000000" class="color000000 svgShape"><path fill="#4c4f5a" d="M41.4,318.3l12.6-1.2c1-0.1,2,0.5,2.3,1.4l9.5,22.8c0.6,1.4-0.4,3-1.9,3.2l-13.1,1.2c-1,0.1-2-0.5-2.4-1.5
			l-9-22.9C39,320.1,39.9,318.5,41.4,318.3z" class="color5a554c svgShape"></path><path fill="#1b1b1c" d="M200.7,619.9l-6.7,3.5c0,0-36-38.2-44.7-74.9c-1.5-6.5-2.2-13-1.5-19.1c0,0-0.5-1.7-1.4-4.6
			c0-0.1-0.1-0.3-0.1-0.4c-0.4-1.3-0.9-2.8-1.4-4.5c-1.7-5.5-4.1-13.1-6.9-21.8c-6.3-19.9-20.6-64.7-26.7-83.3l44.1-15.9
			c0,0,5,11.4,12.2,42.4c1.1,4,2.2,8.5,3.3,13.4c1.2,5.5,2.3,11.6,3.2,18.1c1.5,11.1,2.6,23.5,2.6,37.1c0,5.5-0.1,11.3-0.4,17.2
			c-0.2,4.4,0.4,10.2,1.6,16.8C183.3,574.2,200.7,619.9,200.7,619.9z" class="color1b1c1c svgShape"></path><path fill="#021b79" d="M224.8,636.8h-35.6c0,0-1.3-5.7,1-9.5c2.1-3.4,1.3-5.4-0.3-8.2c1.6,0.7,3.7,1.3,6,1.1
			c1.8-0.1,3.7-0.9,5.3-1.9c1.5,1.7,8.1,9.2,10.1,10.7C213.7,630.6,224.1,630,224.8,636.8z" class="color233862 svgShape"></path><path fill="#abd3fb" d="M54,359.1c-0.2,0.2-10.8-10.6-16.4-16.6l5.6-3.4L74,358.4L54,359.1z" class="colorfbc6ab svgShape"></path><path fill="#2c2c2c" d="M110.5,625.6c0,0-0.8,6,1.5,11.1h14.8c0,0,0.1-4.4-3.6-9.9C119.4,621.3,110.5,625.6,110.5,625.6z" class="color2c2c2c svgShape"></path><path fill="#abd3fb" d="M110.8,318.5c3.7,2.6,8.3,4.7,14.1,6c21.7,5,30-13.3,33.1-25.9c-3-1.7-5.7-2.1-7.3-2.3
			c-1.6-0.2-3.2-0.3-4.6-0.4c-2.4-1.9-6.1-9.5-6.9-21.4l-1,0.3l-17.1,4.7c0,0,0.8,5.4,1.2,10.6c0.3,4,0.3,7.9-0.4,8.8
			c-1.3,0.3-2.1,0.5-2.1,0.5s0,0,0,0C119.4,299.7,114.5,307.9,110.8,318.5z" class="colorfbc6ab svgShape"></path><path fill="#abd3fb" d="M114.4,298.2c0,0,37.4-9.1,53.7,4.3L153.1,411l-66.3-12.6c0,0,2.1-7.2,16.1-26.3
			C116.9,353,110.8,325,114.4,298.2z" class="colorfbc6ab svgShape"></path><path fill="#1b1b1c" d="M136.3,403.4c0,0,0,0.4-0.1,1.1c0,0.3-0.1,0.7-0.1,1.1c-0.3,2.9-0.9,8.6-1.7,15.9c-2,19.2-5.2,50.2-7.3,74.6
			c-1.7,19.1-2.7,34.2-2.2,36.6c1.7,7.3,0,94.5,0,94.5c-6.2,3-15.7,0-15.7,0s-16.6-78.6-14.3-89.5c2.3-10.9-1.6-20.2-1.6-20.2
			c-12.9-60-11.5-93.2-8.9-109.1c0.7-4.6,1.6-7.8,2.2-9.7c0.5-1.6,0.9-2.4,0.9-2.4C116,388.7,136.3,403.4,136.3,403.4z" class="color1b1c1c svgShape"></path><path fill="#6a9bcc" d="M160,416c-8.7,3.7-17.4,5.3-25.7,5.6c-7.5,0.3-14.7-0.6-21.1-2c-14-3.1-24.7-8.7-28.7-11.2
			c0.7-4.6,1.6-7.8,2.2-9.7c8.6-6.2,30-0.3,47.5,6.3c0.6,0.2,1.2,0.5,1.9,0.7C149.4,410.8,160,416,160,416z" class="colorccb96a svgShape"></path><path fill="#5668ac" d="M173.2,334.9c-1.8,13.7-9,30.4-11.6,39.4c0,0,4.3,31.2,0.2,39.8c-0.5,1-1,1.7-1.8,2
			c-15.3,6.7-74.7,0.2-77.2-19c-0.9-7,22.7-31.5,24-34.5c0.6-1.2,1.2-5.2-1.6-13.5c-3.9,12.1-11.1,26-18.4,28.4
			c-8,2.6-39.6-20.9-39.6-20.9S47,353.7,51,351c2.6-1.7,8.5-2.3,8.5-2.3l20.2,9c2.5-4.3,8.9-34.4,15.9-47.9
			c5.3-10.2,19.5-11.7,19.5-11.7s5.9,9.4,20.2,8c14.3-1.3,16.9-10.1,16.9-10.1s12.6,1.7,16.5,4.8C169.3,301.4,175.6,317,173.2,334.9
			z" class="colorac9c56 svgShape"></path><path fill="#abd3fb" d="M150.9,357.4c0,0-15.8,2.6-17.1,3.9c-1.3,1.3-5.6,9.1-5.1,11.8c0.5,2.7,0.5,5.5,1.5,5.3
			c1-0.2,4.1-7.1,5.3-7.4c1.2-0.3,2.2-1.2,2.3-0.6c0.1,0.6-2.4,3.5-2.3,4.3c0.1,0.8,2.2-0.1,3.1-1.7c0.9-1.6,3.2-2.4,3.5-3.4
			c0.3-1,1.9-4.3,4-4.1C148.3,365.7,150.9,357.4,150.9,357.4z" class="colorfbc6ab svgShape"></path><polygon fill="#abd3fb" points="166.3 356.7 150.9 357.4 145.7 365.5 166.6 366.3" class="colorfbc6ab svgShape"></polygon><path fill="#6a9bcc" d="M158.8,313.6c-4.1-10.8,9-19.6,15.2-10.1c0.1,0.2,0.2,0.4,0.3,0.5c6.4,11.3,29,48.7,28.5,60
			c0,0-14.1,6.3-51.9,2.9c0,0-0.7-6.5,7.3-11.7c0,0,20.3-3.1,22.5-5.4l-15.1-18.1L158.8,313.6z" class="colorccb96a svgShape"></path><path fill="#4c4f5a" d="M38.7,318.6l12.6-1.2c1-0.1,2,0.5,2.3,1.4l9.5,22.8c0.6,1.4-0.4,3-1.9,3.2l-13.1,1.2c-1,0.1-2-0.5-2.4-1.5
			l-9-22.9C36.2,320.3,37.2,318.7,38.7,318.6z" class="color5a554c svgShape"></path><path fill="#abd3fb" d="M37.6,342.5c0,0-3.3-5.7-3.1-7.1c0.2-1.4,3.7-7.9,5.4-8.6c3.1-1.2,7.6-1.9,6.4,1.4c-0.8,2.2-4,5.4-3.4,6.4
			c0.6,1,0.3,4.5,0.3,4.5L37.6,342.5z" class="colorfbc6ab svgShape"></path><path fill="#96bade" d="M121.9,287.9c0,3.2,0.9,8.2,5,8.2c4.1,0,9.9-5,9.9-8.2c0-3.2-3.3-5.8-7.4-5.8
			C125.3,282.1,121.9,284.7,121.9,287.9z" class="colordead96 svgShape"></path><path fill="#abd3fb" d="M147,270.2c-2.6,12.9-11.2,21.1-22.5,20.7c-8.6-0.3-13.8-6.7-17.3-33.9c-1.7-13.4,13.7-20.5,24.7-16.8
					C142.8,243.8,149.6,257.3,147,270.2z" class="colorfbc6ab svgShape"></path><path fill="#191d2b" d="M148.6,264.9c0,0-26.8,0-36.1-20.6c0,0,5.6,14.4,11.7,15.5c0,0-8.9-0.2-12.2-13.5c0,0-4.1,9.4-8.9,9.8
					c0,0,3-29.6,24.5-25C149,235.7,150.4,253.5,148.6,264.9z" class="color2b2419 svgShape"></path><path fill="#191d2b" d="M103.6 252.8c0 0-2.2 13 1.3 18.7 3.4 5.7 3.4 8 3.4 8s.9-2.3.3-13.1c-.6-10.8 3.5-17.7 3.9-22C112.8 240 104.2 247.6 103.6 252.8zM135.9 262.2c0 0 6.3 5.4 3.9 15.3-2.4 9.9-12.7 26.7-7.3 33.1 0 0-3.2-7.8 4.5-15.4 7.8-7.6 13.7-26.6 11.9-41.2C147.2 239.3 135.9 262.2 135.9 262.2z" class="color2b2419 svgShape"></path><path fill="#191d2b" d="M141.8,238.2c0,0,0.4-10.7,13.1-7.5c12.8,3.2,2.4,38.2,10.8,43.1c0,0-2.3,5.6-8.2-6.1
					c-6-11.7-3.9-28.1-12.2-25.9C136.9,244.1,141.8,238.2,141.8,238.2z" class="color2b2419 svgShape"></path></g></svg>