<svg xmlns="http://www.w3.org/2000/svg" enable-background="new 0 0 3000 3000" viewBox="0 0 3000 3000" id="Upgradeskillwithlightbulbidea"><path fill="#9bc9f7" d="M1400.7,1710.9l12.7-22.4c2-3.6,5.4-6.1,9.4-7.1l17.2-4.2c3.3-0.8,5.3-4,4.6-7.3l0,0
			c-0.6-2.7-2.9-4.7-5.6-4.8l-15.7-0.9c-4.2-0.2-7.2-4.1-6.4-8.2l8.1-41.5c0.6-3.2-1.4-6.4-4.7-7.1l0,0c-3.2-0.7-6.3,1.2-7.2,4.3
			l-6.4,22.8l7.2-25.8c1-3.7-1.3-7.6-5.1-8.3l0,0c-3.4-0.7-6.8,1.5-7.7,4.9l-9.7,38.3l8-30.5c0.9-3.6-1.2-7.2-4.8-8.1l0,0
			c-3.5-0.9-7.1,1.3-7.9,4.9l-9.8,41.1l7.5-31.1c0.8-3.5-1.3-7-4.7-7.9l0,0c-3.4-0.9-6.8,1-7.9,4.3c-8.2,24.7-13.6,52.9-17.4,83.1
			L1400.7,1710.9z" class="colorf7c19b svgShape"></path><path fill="#58595b" d="M984.5,1609.1l96.4-110.3c8.5-9.7,8.1-24.4-1-33.6l-61.4-62.3c20.6-39.8,34.6-81.9,42.1-124.8l86.6-12.4
						c12.8-1.8,22-13.2,21.2-26.1l-9.8-146.1c-0.9-12.9-11.5-23-24.5-23.1l-87.4-0.7c0,0,0,0,0,0c-13.2-41.6-32.7-81.4-58.5-118.1
						l52.4-69.9c7.8-10.4,6.2-24.9-3.5-33.5l-110.3-96.4c-9.7-8.5-24.4-8.1-33.6,1l-62.3,61.4c-39.7-20.6-81.9-34.6-124.8-42.1l0,0
						l-12.4-86.5c-1.8-12.8-13.2-22-26.1-21.2l-146.1,9.8c-12.9,0.9-23,11.6-23.1,24.5l-0.7,87.4c-41.6,13.2-81.4,32.7-118.1,58.5
						l-69.9-52.4c-10.4-7.8-24.9-6.2-33.5,3.5L179.8,906c-8.5,9.7-8.1,24.4,1,33.6l61.3,62.3c-20.6,39.8-34.6,81.9-42.1,124.8
						c0,0,0,0,0,0l-86.5,12.4c-12.8,1.8-22,13.2-21.2,26.1l9.8,146.1c0.9,12.9,11.6,23,24.5,23.1l87.4,0.7
						c13.2,41.6,32.7,81.4,58.5,118.1l-52.4,69.9c-7.8,10.4-6.2,24.9,3.5,33.5l110.3,96.4c9.7,8.5,24.4,8.1,33.6-1l62.3-61.3
						c39.8,20.6,81.9,34.6,124.9,42.1l12.4,86.5c1.8,12.8,13.2,22,26.1,21.2l146.1-9.8c12.9-0.9,23-11.5,23.1-24.5l0.7-87.4
						c0,0,0,0,0,0c41.5-13.2,81.4-32.7,118.1-58.5l69.9,52.4C961.4,1620.4,976,1618.8,984.5,1609.1z M865,1407.4
						c-113.2,129.6-310.1,142.9-439.7,29.6c-129.6-113.2-142.9-310.1-29.6-439.7c113.2-129.6,310.1-142.9,439.7-29.6
						C964.9,1081,978.2,1277.8,865,1407.4z" class="color58595b svgShape"></path><path fill="#f5f5f5" d="M362.7 989.7c-4.1-3.6-10.2-3.1-13.8.9-118.7 135.9-104.8 343 31.1 461.7 4.1 3.6 10.2 3.1 13.8-.9 3.6-4.1 3.1-10.2-.9-13.8-127.7-111.6-140.9-306.4-29.3-434.1C367.2 999.4 366.8 993.2 362.7 989.7zM892.7 902.1c-4.1-3.6-10.2-3.1-13.8.9-3.6 4.1-3.1 10.2.9 13.8 157.4 137.6 173.6 377.6 36.1 535-3.6 4.1-3.1 10.2.9 13.8 4.1 3.6 10.2 3.1 13.8-.9C1075.3 1299.2 1058.3 1046.8 892.7 902.1z" class="colorf5f5f5 svgShape"></path><polygon fill="#58595b" points="414.4 1163.7 555.9 996 771.9 1034.7 846.3 1241.1 704.8 1408.8 488.8 1370.1" class="color58595b svgShape"></polygon><path fill="#e0e0e0" d="M1931.4,1898.3l-908.7-332.5c-91.1,61.5-209.4,79.9-320.5,39.3c-112-41-190.9-132.5-220.2-239.4
					l226.1,82.7L842,1278.5l7.4-216.3l-226.1-82.7c91.4-62.6,210.7-81.7,322.7-40.7c111.1,40.6,189.5,131.1,219.4,236.8l908.7,332.5
					c91.1-61.5,209.4-79.9,320.5-39.3c112,41,190.9,132.5,220.2,239.4l-226.1-82.7l-133.9,169.9l-7.4,216.3l226.1,82.7
					c-91.4,62.6-210.7,81.7-322.7,40.7C2039.7,2094.5,1961.3,2004.1,1931.4,1898.3z" class="colore0e0e0 svgShape"></path><path fill="#bdbdbd" d="M2150.8,2135.1c112,41,231.3,21.9,322.7-40.7l-21.6-7.9c-86.4,46.8-191.6,57.8-291.2,21.4
					c-111.1-40.6-189.5-131.1-219.4-236.8l-908.7-332.5c-91.1,61.5-209.4,79.9-320.4,39.3c-99.5-36.4-172.9-112.7-208.6-204.3
					l-21.6-7.9c29.4,106.9,108.2,198.4,220.2,239.4c111.1,40.6,229.3,22.2,320.4-39.3l908.7,332.5
					C1961.3,2004.1,2039.8,2094.5,2150.8,2135.1z" class="colorbdbdbd svgShape"></path><path fill="#bdbdbd" d="M1561.5,1758.8c-0.3,1.3-0.7,2.5-1,3.8l-5-1.8C1558.4,1759.9,1560.9,1759.2,1561.5,1758.8z" class="colorbdbdbd svgShape"></path><path fill="#f5f5f5" d="M2385.3,1494.2c100.4,36.8,174.2,114.1,209.5,206.7l20,7.3c-29.4-106.9-108.2-198.4-220.2-239.4
					c-111.1-40.7-229.3-22.2-320.4,39.3l-908.7-332.5c-29.9-105.8-108.4-196.2-219.4-236.8c-112-41-231.3-21.9-322.7,40.7l20,7.3
					c86.8-47.9,193.1-59.4,293.5-22.7c111.1,40.6,189.5,131.1,219.4,236.8l908.7,332.5C2156,1472,2274.2,1453.5,2385.3,1494.2z" class="colorf5f5f5 svgShape"></path><rect width="180.7" height="661.5" x="1458.1" y="1206.2" fill="#bdbdbd" transform="rotate(110.096 1548.447 1536.968)" class="colorbdbdbd svgShape"></rect><rect width="25.1" height="661.5" x="1509.1" y="1279.3" fill="#a7a7a8" transform="rotate(110.096 1521.711 1610.032)" class="colora8a7a7 svgShape"></rect><polygon fill="#bdbdbd" points="708.1 1448.4 743.4 1461.3 877.3 1291.4 884.8 1075.2 849.4 1062.2 842 1278.5" class="colorbdbdbd svgShape"></polygon><polygon fill="#bdbdbd" points="708.1 1448.4 743.4 1461.3 877.3 1291.4 884.8 1075.2 849.4 1062.2 842 1278.5" class="colorbdbdbd svgShape"></polygon><polygon fill="#bdbdbd" points="884.8 1075.2 881.5 1052.4 623.3 979.5 849.4 1062.2 878.5 1092.1" class="colorbdbdbd svgShape"></polygon><polygon fill="#bdbdbd" points="743.4 1461.3 730.2 1476.5 482 1365.7 708.1 1448.4 734.2 1442.5" class="colorbdbdbd svgShape"></polygon><polygon fill="#bdbdbd" points="2388.7 1625.5 2353.4 1612.5 2219.5 1782.5 2212.1 1998.7 2247.4 2011.7 2254.8 1795.4" class="colorbdbdbd svgShape"></polygon><polygon fill="#bdbdbd" points="2388.7 1625.5 2353.4 1612.5 2219.5 1782.5 2212.1 1998.7 2247.4 2011.7 2254.8 1795.4" class="colorbdbdbd svgShape"></polygon><polygon fill="#bdbdbd" points="2212.1 1998.7 2215.3 2021.5 2473.6 2094.4 2247.4 2011.7 2218.3 1981.7" class="colorbdbdbd svgShape"></polygon><polygon fill="#bdbdbd" points="2353.4 1612.5 2366.6 1597.4 2614.9 1708.2 2388.7 1625.5 2362.7 1631.4" class="colorbdbdbd svgShape"></polygon><ellipse cx="1569.5" cy="2958" fill="#eeeeee" rx="505.2" ry="17" class="coloreeeeee svgShape"></ellipse><g fill="#000000" class="color000000 svgShape"><polygon fill="#9bc9f7" points="2043.5 2761.8 2061.2 2707.8 1980.4 2679.9 1962.8 2733.9" class="colorf7c19b svgShape"></polygon><path fill="#021b79" d="M2072.8,2714.1l13-4.7l4.1-1c2.4-0.6,4.9-0.5,7.2,0.3l9,3.1c2.2,0.8,3.4,3.3,2.7,5.5l-3.3,10.2l-2.6-0.9
					l-1.8,5.5l2.5,0.9l-3.8,12.4l-2.1-0.7l-1.9,5.8l2.3,0.8l-4.6,13.7l-11.1,4c-0.5,12,0.1,23.2,2.1,33.3c0.2,0.5-4.3,14.4-4.7,14.3
					l-2-0.7l-1.8,5.4l2,0.7c-1.2,4.6-2.6,9-4.3,13.2l-2.1-0.7l-1.7,5.3l1.7,0.6c-1.5,4.6-3.4,8.6-5.5,11.8l-1.7-0.6l-2.4,5.1
					l1.5,0.5c-1.4,3-3.2,5.6-5.2,7.9l-1.6-0.9l-3.4,4.1l1.3,1.5c-3.7,4.4-7.4,8.3-11.1,11.6c0,0-7.2-1.5-6.1-6l12.3-58l13.9-75.1
					L2072.8,2714.1z" class="color333333 svgShape"></path><path fill="#58595b" d="M2071.3,2702c3.4,1.2,6.6,2.7,9.7,4.6l4.8,2.9c-7.4,21.4-12.4,42-13.8,61.4c-0.3,4-0.4,8-0.4,11.9
					c0.4,33.8-11.5,64.5-34.1,92.6l-4.9-1.7c-3.7-1.3-5.9-5-5.5-8.9l3.1-25.6c0.5-4.6,1.2-9.1,1.8-13.6c1.8-12.8,0.7-25.5-2.8-38.2
					c-0.2-0.7-0.4-1.4-0.6-2.1c-0.1-0.4-0.2-0.8-0.4-1.2c5.3,1.1,13.3-1.7,13.7-1.9c0.2-0.1,0.4-0.3,0.5-0.5c0-0.1,0-0.3,0-0.4
					c-0.1-0.4-0.5-0.6-0.9-0.4c-2.8,1-9.8,2.9-13.7,1.6c-0.1-0.3-0.2-0.6-0.3-0.9c0.2-4.6,4.2-11.1,6.1-13.7c0.2-0.3,0.2-0.8-0.1-1
					c-0.3-0.2-0.7-0.2-1,0.1c-0.3,0.4-4.5,6.3-5.9,11.8c-0.4-1.1-0.8-2.1-1.2-3.2c-0.3-0.7-0.5-1.3-0.8-2c-0.6-1.4-1.2-2.9-1.8-4.3
					c-0.3-0.6-0.5-1.2-0.8-1.7c-1-2.1-2-4.2-3.1-6.4c1.4-3.3,5.1-6.8,6.8-8.2c0.3-0.2,0.4-0.7,0.1-1c-0.2-0.3-0.7-0.4-1-0.1
					c-0.3,0.2-4.7,3.8-6.8,7.8c-0.5-0.9-0.9-1.7-1.4-2.5c-0.8-1.4-1-3.1-0.5-4.6l16.3-56.4c0.6-2.1,2.8-3.2,4.8-2.4l6.4,2.4
					c4.7,1.8,9.7,2.9,14.7,3.2C2062.6,2699.6,2067,2700.5,2071.3,2702z" class="color58595b svgShape"></path><path fill="#1f2023" d="M2042.4 2781.3c0 .1.1.3 0 .4-.1.2-.2.4-.5.5-.4.2-8.4 3-13.7 1.9-.2-.5-.3-1.1-.5-1.6 3.9 1.3 10.9-.6 13.7-1.6C2041.9 2780.7 2042.3 2780.9 2042.4 2781.3zM2033.4 2766.9c.3.2.4.7.1 1-1.9 2.6-5.8 9.1-6.1 13.7-.3-.9-.6-1.8-1-2.7 1.4-5.5 5.6-11.4 5.9-11.8C2032.6 2766.8 2033.1 2766.7 2033.4 2766.9z" class="color231f20 svgShape"></path><path fill="#303030" d="M2025.7,2752.1c0.2,0.3,0.2,0.7-0.1,1c-1.7,1.4-5.5,4.9-6.8,8.2c-0.3-0.5-0.5-1-0.8-1.5
					c2.1-4,6.5-7.6,6.8-7.8C2025,2751.7,2025.4,2751.8,2025.7,2752.1z" class="color303030 svgShape"></path><path fill="#404042" d="M2071.3,2702c3.4,1.2,6.6,2.7,9.7,4.6l4.8,2.9c-7.4,21.4-12.4,42-13.8,61.4l-27.7,21.1
					c-1.6,1.2-3.9,0.8-4.9-1l-23.4-38.4l16.3-56.4c0.6-2.1,2.8-3.2,4.8-2.4l6.4,2.4c4.7,1.8,9.7,2.9,14.7,3.2
					C2062.6,2699.6,2067,2700.5,2071.3,2702z" class="color414042 svgShape"></path><polygon fill="#58595b" points="2018.8 2752.4 2018.3 2752.7 2018 2752.3 2018.1 2751.7 2018.7 2751.9 2018.6 2752.2" class="color58595b svgShape"></polygon><path fill="#58595b" d="M2082.3,2709.9l-0.3,0.5l-0.7-0.4l0.3-0.5L2082.3,2709.9z M2080.9,2709.1l-0.3,0.5l-0.7-0.4l0.3-0.5
								L2080.9,2709.1z M2079.5,2708.2l-0.3,0.5c-0.2-0.1-0.5-0.3-0.7-0.4l0.3-0.6C2079,2707.9,2079.2,2708,2079.5,2708.2z
								 M2078,2707.3l-0.3,0.6c-0.2-0.1-0.5-0.3-0.7-0.4l0.3-0.6C2077.5,2707.1,2077.8,2707.2,2078,2707.3z M2076.5,2706.6l-0.3,0.6
								c-0.2-0.1-0.5-0.2-0.7-0.4l0.3-0.6C2076,2706.3,2076.3,2706.4,2076.5,2706.6z M2075,2705.8l-0.3,0.6
								c-0.2-0.1-0.5-0.2-0.8-0.3l0.2-0.6C2074.5,2705.6,2074.7,2705.7,2075,2705.8z M2073.5,2705.1l-0.2,0.6
								c-0.3-0.1-0.5-0.2-0.8-0.3l0.2-0.6C2072.9,2704.9,2073.2,2705,2073.5,2705.1z M2071.9,2704.5l-0.2,0.6
								c-0.3-0.1-0.5-0.2-0.8-0.3l0.2-0.6C2071.4,2704.3,2071.6,2704.4,2071.9,2704.5z M2070.1,2704.5c-0.3-0.1-0.5-0.2-0.8-0.3
								l0.2-0.6c0.3,0.1,0.5,0.2,0.8,0.3L2070.1,2704.5z M2068.5,2704c-0.3-0.1-0.5-0.2-0.8-0.2l0.2-0.6c0.3,0.1,0.5,0.2,0.8,0.2
								L2068.5,2704z M2066.9,2703.6c-0.3-0.1-0.5-0.1-0.8-0.2l0.1-0.6c0.3,0.1,0.5,0.1,0.8,0.2L2066.9,2703.6z M2065.3,2703.2
								c-0.3-0.1-0.5-0.1-0.8-0.2l0.1-0.6c0.3,0.1,0.5,0.1,0.8,0.2L2065.3,2703.2z M2063.7,2702.8c-0.3-0.1-0.5-0.1-0.8-0.1l0.1-0.6
								c0.3,0,0.6,0.1,0.8,0.1L2063.7,2702.8z M2062.1,2702.6c-0.3,0-0.5-0.1-0.8-0.1l0.1-0.6c0.3,0,0.6,0.1,0.8,0.1L2062.1,2702.6z
								 M2060.4,2702.3c-0.3,0-0.5-0.1-0.8-0.1l0.1-0.6c0.3,0,0.6,0.1,0.8,0.1L2060.4,2702.3z M2058.8,2702.2c-0.3,0-0.6,0-0.8-0.1
								l0-0.6c0.3,0,0.6,0,0.8,0.1L2058.8,2702.2z M2057.1,2702.1c-0.3,0-0.6,0-0.8-0.1l0.1-0.6c0.3,0,0.5,0,0.8,0.1L2057.1,2702.1z
								 M2055.5,2701.9c-0.3,0-0.6-0.1-0.8-0.1l0.1-0.6c0.3,0,0.5,0.1,0.8,0.1L2055.5,2701.9z M2053.8,2701.7
								c-0.3,0-0.6-0.1-0.8-0.1l0.1-0.6c0.3,0,0.5,0.1,0.8,0.1L2053.8,2701.7z M2052.1,2701.4c-0.3,0-0.6-0.1-0.8-0.1l0.1-0.6
								c0.3,0.1,0.5,0.1,0.8,0.1L2052.1,2701.4z M2050.5,2701.1c-0.3-0.1-0.5-0.1-0.8-0.2l0.1-0.6c0.3,0.1,0.5,0.1,0.8,0.2
								L2050.5,2701.1z M2048.9,2700.8c-0.3-0.1-0.5-0.1-0.8-0.2l0.1-0.6c0.3,0.1,0.5,0.1,0.8,0.2L2048.9,2700.8z M2047.2,2700.3
								c-0.3-0.1-0.5-0.2-0.8-0.2l0.2-0.6c0.3,0.1,0.5,0.2,0.8,0.2L2047.2,2700.3z M2045.6,2699.9c-0.3-0.1-0.5-0.2-0.8-0.3l0.2-0.6
								c0.3,0.1,0.5,0.2,0.8,0.3L2045.6,2699.9z M2044.2,2698.7l-0.2,0.6c-0.3-0.1-0.5-0.2-0.8-0.3l0.2-0.6
								C2043.7,2698.6,2044,2698.6,2044.2,2698.7z M2042.7,2698.2l-0.2,0.6l-0.8-0.3l0.2-0.6L2042.7,2698.2z M2041.1,2697.6
								l-0.2,0.6l-0.8-0.3l0.2-0.6L2041.1,2697.6z M2039.5,2697l-0.2,0.6l-0.8-0.3l0.2-0.6L2039.5,2697z M2038,2696.4l-0.2,0.6
								l-0.8-0.3l0.2-0.6L2038,2696.4z M2019,2751.1l-0.6-0.2l0.2-0.8l0.6,0.2L2019,2751.1z M2019.4,2749.5l-0.6-0.2l0.2-0.8
								l0.6,0.2L2019.4,2749.5z M2019.9,2747.8l-0.6-0.2l0.2-0.8l0.6,0.2L2019.9,2747.8z M2020.4,2746.2l-0.6-0.2l0.2-0.8l0.6,0.2
								L2020.4,2746.2z M2020.8,2744.6l-0.6-0.2l0.2-0.8l0.6,0.2L2020.8,2744.6z M2021.3,2742.9l-0.6-0.2l0.2-0.8l0.6,0.2
								L2021.3,2742.9z M2021.8,2741.3l-0.6-0.2l0.2-0.8l0.6,0.2L2021.8,2741.3z M2022.2,2739.7l-0.6-0.2l0.2-0.8l0.6,0.2
								L2022.2,2739.7z M2022.7,2738l-0.6-0.2l0.2-0.8l0.6,0.2L2022.7,2738z M2023.2,2736.3l-0.6-0.1l0.2-0.8l0.6,0.2L2023.2,2736.3
								z M2036.2,2696.4c-0.2,0-0.5,0-0.7,0l-0.1-0.6c0.3-0.1,0.6-0.1,1,0L2036.2,2696.4z M2023.7,2734.8l-0.6-0.2l0.2-0.8l0.6,0.2
								L2023.7,2734.8z M2024.1,2733.1l-0.6-0.2l0.2-0.8l0.6,0.2L2024.1,2733.1z M2024.6,2731.4l-0.6-0.1l0.2-0.8l0.6,0.2
								L2024.6,2731.4z M2025.1,2729.8l-0.6-0.1l0.2-0.8l0.6,0.2L2025.1,2729.8z M2025.5,2728.2l-0.6-0.1l0.2-0.8l0.6,0.2
								L2025.5,2728.2z M2026,2726.6l-0.6-0.2l0.2-0.8l0.6,0.2L2026,2726.6z M2026.5,2725l-0.6-0.2l0.2-0.8l0.6,0.2L2026.5,2725z
								 M2026.9,2723.3l-0.6-0.2l0.2-0.8l0.6,0.2L2026.9,2723.3z M2027.4,2721.7l-0.6-0.2l0.2-0.8l0.6,0.2L2027.4,2721.7z
								 M2027.9,2720.1l-0.6-0.2l0.2-0.8l0.6,0.2L2027.9,2720.1z M2028.4,2718.4l-0.6-0.2l0.2-0.8l0.6,0.2L2028.4,2718.4z
								 M2028.8,2716.8l-0.6-0.2l0.2-0.8l0.6,0.2L2028.8,2716.8z M2029.3,2715.2l-0.6-0.2l0.2-0.8l0.6,0.2L2029.3,2715.2z
								 M2029.8,2713.6l-0.6-0.2l0.2-0.8l0.6,0.2L2029.8,2713.6z M2030.2,2711.9l-0.6-0.2l0.2-0.8l0.6,0.2L2030.2,2711.9z
								 M2030.7,2710.3l-0.6-0.2l0.2-0.8l0.6,0.2L2030.7,2710.3z M2031.2,2708.7l-0.6-0.2l0.2-0.8l0.6,0.2L2031.2,2708.7z
								 M2031.6,2707l-0.6-0.2l0.2-0.8l0.6,0.2L2031.6,2707z M2032.1,2705.4l-0.6-0.2l0.2-0.8l0.6,0.2L2032.1,2705.4z
								 M2034.9,2696.7c-0.2,0.1-0.3,0.3-0.4,0.5l-0.5-0.3c0.2-0.3,0.4-0.6,0.6-0.8L2034.9,2696.7z M2032.6,2703.8l-0.6-0.2l0.2-0.8
								l0.6,0.2L2032.6,2703.8z M2033.1,2702.1l-0.6-0.2l0.2-0.8l0.6,0.2L2033.1,2702.1z M2033.5,2700.5l-0.6-0.2l0.2-0.8l0.6,0.2
								L2033.5,2700.5z M2034,2698.9l-0.6-0.2l0.2-0.8l0.6,0.2L2034,2698.9z" class="color58595b svgShape"></path><polygon fill="#58595b" points="2083.5 2710.7 2083.3 2711.3 2082.7 2711.1 2082.8 2710.9 2082.7 2710.9 2083 2710.3" class="color58595b svgShape"></polygon><path fill="#58595b" d="M2070.4,2768.3l-0.6-0.1l0.1-0.8l0.6,0.1L2070.4,2768.3z M2070.5,2766.6l-0.6-0.1l0.1-0.8l0.6,0.1
								L2070.5,2766.6z M2070.7,2764.9l-0.6-0.1l0.1-0.8l0.6,0.1L2070.7,2764.9z M2070.9,2763.3l-0.6-0.1l0.1-0.8l0.6,0.1
								L2070.9,2763.3z M2071.1,2761.6l-0.6-0.1l0.1-0.8l0.6,0.1L2071.1,2761.6z M2071.3,2759.9l-0.6-0.1l0.1-0.8l0.6,0.1
								L2071.3,2759.9z M2071.5,2758.3l-0.6-0.1l0.1-0.8l0.6,0.1L2071.5,2758.3z M2071.8,2756.6l-0.6-0.1l0.1-0.8l0.6,0.1
								L2071.8,2756.6z M2072,2755l-0.6-0.1l0.1-0.8l0.6,0.1L2072,2755z M2072.3,2753.3l-0.6-0.1l0.1-0.8l0.6,0.1L2072.3,2753.3z
								 M2072.6,2751.7l-0.6-0.1l0.1-0.8l0.6,0.1L2072.6,2751.7z M2072.9,2750l-0.6-0.1l0.2-0.8l0.6,0.1L2072.9,2750z
								 M2073.2,2748.4l-0.6-0.1l0.2-0.8l0.6,0.1L2073.2,2748.4z M2073.5,2746.7l-0.6-0.1l0.2-0.8l0.6,0.1L2073.5,2746.7z
								 M2073.9,2745.1l-0.6-0.1l0.2-0.8l0.6,0.1L2073.9,2745.1z M2074.2,2743.5l-0.6-0.1l0.2-0.8l0.6,0.1L2074.2,2743.5z
								 M2074.6,2741.8l-0.6-0.1l0.2-0.8l0.6,0.1L2074.6,2741.8z M2074.9,2740.2l-0.6-0.1l0.2-0.8l0.6,0.2L2074.9,2740.2z
								 M2075.3,2738.6l-0.6-0.2l0.2-0.8l0.6,0.2L2075.3,2738.6z M2075.7,2736.9l-0.6-0.2l0.2-0.8l0.6,0.2L2075.7,2736.9z
								 M2076.1,2735.3l-0.6-0.2l0.2-0.8l0.6,0.2L2076.1,2735.3z M2076.5,2733.7l-0.6-0.2l0.2-0.8l0.6,0.2L2076.5,2733.7z
								 M2077,2732.1l-0.6-0.2l0.2-0.8l0.6,0.2L2077,2732.1z M2077.4,2730.5l-0.6-0.2l0.2-0.8l0.6,0.2L2077.4,2730.5z
								 M2077.9,2728.9l-0.6-0.2l0.2-0.8l0.6,0.2L2077.9,2728.9z M2078.3,2727.3l-0.6-0.2l0.2-0.8l0.6,0.2L2078.3,2727.3z
								 M2078.8,2725.6l-0.6-0.2l0.2-0.8l0.6,0.2L2078.8,2725.6z M2079.2,2724l-0.6-0.2l0.2-0.8l0.6,0.2L2079.2,2724z
								 M2079.7,2722.4l-0.6-0.2l0.2-0.8l0.6,0.2L2079.7,2722.4z M2080.2,2720.8l-0.6-0.2l0.2-0.8l0.6,0.2L2080.2,2720.8z
								 M2080.7,2719.3l-0.6-0.2l0.3-0.8l0.6,0.2L2080.7,2719.3z M2083.1,2712.1l-0.3,0.8l-0.6-0.2l0.3-0.8L2083.1,2712.1z
								 M2081.2,2717.7l-0.6-0.2l0.3-0.8l0.6,0.2L2081.2,2717.7z M2082.5,2713.7l-0.3,0.8l-0.6-0.2l0.3-0.8L2082.5,2713.7z
								 M2081.7,2716.1l-0.6-0.2l0.3-0.8l0.6,0.2L2081.7,2716.1z" class="color58595b svgShape"></path><polygon fill="#58595b" points="2070.3 2769.7 2069.8 2770 2069.5 2769.5 2069.7 2769.3 2069.7 2769 2070.3 2769.1" class="color58595b svgShape"></polygon><path fill="#58595b" d="M2069.2,2770.5l-0.7,0.5l-0.4-0.5l0.7-0.5L2069.2,2770.5z M2067.9,2771.5l-0.7,0.5l-0.4-0.5l0.7-0.5
								L2067.9,2771.5z M2066.6,2772.5l-0.7,0.5l-0.4-0.5l0.7-0.5L2066.6,2772.5z M2065.2,2773.5l-0.7,0.5l-0.4-0.5l0.7-0.5
								L2065.2,2773.5z M2063.9,2774.5l-0.7,0.5l-0.4-0.5l0.7-0.5L2063.9,2774.5z M2062.6,2775.5l-0.7,0.5l-0.4-0.5l0.7-0.5
								L2062.6,2775.5z M2061.3,2776.5l-0.7,0.5l-0.4-0.5l0.7-0.5L2061.3,2776.5z M2060,2777.5l-0.7,0.5l-0.4-0.5l0.7-0.5
								L2060,2777.5z M2058.7,2778.5l-0.7,0.5l-0.4-0.5l0.7-0.5L2058.7,2778.5z M2057.4,2779.5l-0.7,0.5l-0.4-0.5l0.7-0.5
								L2057.4,2779.5z M2056,2780.5l-0.7,0.5l-0.4-0.5l0.7-0.5L2056,2780.5z M2054.7,2781.5l-0.7,0.5l-0.4-0.5l0.7-0.5
								L2054.7,2781.5z M2053.4,2782.5l-0.7,0.5l-0.4-0.5l0.7-0.5L2053.4,2782.5z M2052.1,2783.5l-0.7,0.5l-0.4-0.5l0.7-0.5
								L2052.1,2783.5z M2050.8,2784.5l-0.7,0.5l-0.4-0.5l0.7-0.5L2050.8,2784.5z M2049.5,2785.5l-0.7,0.5l-0.4-0.5l0.7-0.5
								L2049.5,2785.5z M2048.2,2786.5l-0.7,0.5l-0.4-0.5l0.7-0.5L2048.2,2786.5z M2046.9,2787.5l-0.7,0.5l-0.4-0.5l0.7-0.5
								L2046.9,2787.5z M2045.5,2788.5l-0.7,0.5l-0.4-0.5l0.7-0.5L2045.5,2788.5z M2044.2,2789.5l-0.7,0.5l-0.4-0.5l0.7-0.5
								L2044.2,2789.5z M2042.7,2790.4c-0.3,0-0.5,0-0.8,0c-0.1,0-0.1,0-0.2,0l0.2-0.6c0,0,0.1,0,0.1,0c0.2,0,0.4,0,0.5,0
								L2042.7,2790.4z M2041.3,2789.4l-0.4,0.5c-0.1-0.1-0.2-0.3-0.3-0.4l-0.2-0.3l0.5-0.3l0.2,0.3
								C2041.2,2789.2,2041.3,2789.3,2041.3,2789.4z M2040.5,2788.1l-0.5,0.3l-0.4-0.7l0.5-0.3L2040.5,2788.1z M2039.6,2786.7
								l-0.5,0.3l-0.4-0.7l0.5-0.3L2039.6,2786.7z M2038.8,2785.2l-0.5,0.3l-0.4-0.7l0.5-0.3L2038.8,2785.2z M2037.9,2783.8
								l-0.5,0.3l-0.4-0.7l0.5-0.3L2037.9,2783.8z M2037,2782.4l-0.5,0.3l-0.4-0.7l0.5-0.3L2037,2782.4z M2036.1,2780.9l-0.5,0.3
								l-0.4-0.7l0.5-0.3L2036.1,2780.9z M2035.3,2779.5l-0.5,0.3l-0.4-0.7l0.5-0.3L2035.3,2779.5z M2034.4,2778.1l-0.5,0.3
								l-0.4-0.7l0.5-0.3L2034.4,2778.1z M2033.5,2776.7l-0.5,0.3l-0.4-0.7l0.5-0.3L2033.5,2776.7z M2032.7,2775.2l-0.5,0.3
								l-0.4-0.7l0.5-0.3L2032.7,2775.2z M2031.8,2773.8l-0.5,0.3l-0.4-0.7l0.5-0.3L2031.8,2773.8z M2030.9,2772.4l-0.5,0.3
								l-0.4-0.7l0.5-0.3L2030.9,2772.4z M2030.1,2771l-0.5,0.3l-0.4-0.7l0.5-0.3L2030.1,2771z M2029.2,2769.5l-0.5,0.3l-0.4-0.7
								l0.5-0.3L2029.2,2769.5z M2028.3,2768.1l-0.5,0.3l-0.4-0.7l0.5-0.3L2028.3,2768.1z M2027.5,2766.7l-0.5,0.3l-0.4-0.7l0.5-0.3
								L2027.5,2766.7z M2026.6,2765.3l-0.5,0.3l-0.4-0.7l0.5-0.3L2026.6,2765.3z M2025.7,2763.8l-0.5,0.3l-0.4-0.7l0.5-0.3
								L2025.7,2763.8z M2024.9,2762.4l-0.5,0.3l-0.4-0.7l0.5-0.3L2024.9,2762.4z M2024,2761l-0.5,0.3l-0.4-0.7l0.5-0.3L2024,2761z
								 M2023.1,2759.5l-0.5,0.3l-0.4-0.7l0.5-0.3L2023.1,2759.5z M2022.3,2758.1l-0.5,0.3l-0.4-0.7l0.5-0.3L2022.3,2758.1z
								 M2021.4,2756.7l-0.5,0.3l-0.4-0.7l0.5-0.3L2021.4,2756.7z M2020.5,2755.3l-0.5,0.3l-0.4-0.7l0.5-0.3L2020.5,2755.3z
								 M2019.7,2753.8l-0.5,0.3l-0.4-0.7l0.5-0.3L2019.7,2753.8z" class="color58595b svgShape"></path><g fill="#000000" class="color000000 svgShape"><path fill="#e6e7e8" d="M2044.9 2782c-.3 1.8-2 2.9-3.8 2.5-1.7-.4-2.8-2.1-2.5-3.9.3-1.8 2-2.9 3.8-2.5C2044.1 2778.5 2045.2 2780.2 2044.9 2782zM2039.6 2780.8c-.2 1.2.5 2.4 1.7 2.7 1.2.2 2.3-.5 2.6-1.7.2-1.2-.5-2.4-1.7-2.7C2041 2778.8 2039.9 2779.6 2039.6 2780.8zM2036.8 2767.7c-.3 1.8-2 2.9-3.8 2.5-1.7-.4-2.8-2.1-2.5-3.8.3-1.8 2-2.9 3.8-2.5C2036.1 2764.2 2037.2 2765.9 2036.8 2767.7zM2031.6 2766.5c-.2 1.2.5 2.4 1.7 2.7 1.2.3 2.4-.5 2.6-1.7.2-1.2-.5-2.4-1.7-2.7C2033 2764.5 2031.8 2765.3 2031.6 2766.5z" class="colore6e7e8 svgShape"></path><g fill="#000000" class="color000000 svgShape"><path fill="#1f2023" d="M2041.5,2780.9c0.4-0.1,0.8,0.1,0.9,0.4c0,0.1,0.1,0.3,0,0.4c-0.1,0.2-0.2,0.4-0.5,0.5
								c-0.4,0.2-8.4,3-13.7,1.9c-0.2,0-0.3-0.1-0.5-0.1c-0.6-0.2-1.1-0.4-1.6-0.6c-0.5-0.3-1-0.7-1.4-1.1c-1.6-1.8-1.7-4.7-0.2-8.6
								c0.3,0.7,0.5,1.3,0.8,2c-0.7,2.6-0.6,4.4,0.5,5.6c0.1,0.1,0.2,0.2,0.3,0.3c0.4,0.3,0.8,0.6,1.4,0.8c0.1,0,0.2,0.1,0.3,0.1
								C2031.7,2783.8,2038.7,2781.9,2041.5,2780.9z" class="color231f20 svgShape"></path><path fill="#1f2023" d="M2033.4,2766.9c0.3,0.2,0.4,0.7,0.1,1c-1.9,2.6-5.8,9.1-6.1,13.7c0,0.3,0,0.5,0,0.8
								c0,0.6,0.1,1.1,0.3,1.6c0.1,0.2,0.2,0.4,0.3,0.6c0.2,0.3,0.4,0.5,0.6,0.8c0.2,0.7,0.4,1.4,0.6,2.1c-1.1-0.5-1.9-1.2-2.4-2.1
								c-0.3-0.6-0.6-1.2-0.7-1.9c-0.1-0.6-0.1-1.2-0.1-1.8c0-0.9,0.2-1.8,0.4-2.7c1.4-5.5,5.6-11.4,5.9-11.8
								C2032.6,2766.8,2033.1,2766.7,2033.4,2766.9z" class="color231f20 svgShape"></path></g></g><g fill="#000000" class="color000000 svgShape"><path fill="#e6e7e8" d="M2028.2,2753.5c-0.5,1.7-2.4,2.6-4,2.1c-1.7-0.6-2.6-2.4-2-4.1c0.6-1.7,2.4-2.6,4-2.1
							C2027.8,2750,2028.7,2751.8,2028.2,2753.5z M2023,2751.8c-0.4,1.2,0.2,2.4,1.4,2.8c1.1,0.4,2.4-0.2,2.8-1.4
							c0.4-1.2-0.2-2.4-1.4-2.8C2024.7,2750,2023.4,2750.6,2023,2751.8z" class="colore6e7e8 svgShape"></path><path fill="#1f2023" d="M2025.7,2752.1c0.2,0.3,0.2,0.7-0.1,1c-1.7,1.4-5.5,4.9-6.8,8.2c-0.5,1.1-0.7,2.2-0.4,3.1
							c0.3,1.4,1.5,2.5,3.6,3.2c0.3,0.6,0.5,1.2,0.8,1.7c-3.3-0.9-5.2-2.5-5.7-4.6c-0.4-1.6,0.1-3.3,1-5c2.1-4,6.5-7.6,6.8-7.8
							C2025,2751.7,2025.4,2751.8,2025.7,2752.1z" class="color231f20 svgShape"></path></g></g><g fill="#000000" class="color000000 svgShape"><rect width="56.5" height="87" x="1173.2" y="2820.9" fill="#9bc9f7" transform="rotate(-162.524 1201.475 2864.46)" class="colorf7c19b svgShape"></rect><path fill="#021b79" d="M1207,2927.6l4.4,13.4l1,4.2c0.6,2.4,0.4,5-0.5,7.3l-3.3,9.1c-0.8,2.3-3.3,3.4-5.6,2.6l-10.1-3.7l0.9-2.6
					l-5.5-2l-0.9,2.6l-12.3-4.1l0.8-2.1l-5.7-2.1l-0.8,2.3l-13.6-5l-3.8-11.5c-12-0.8-23.2-0.5-33.3,1.3c-0.5,0.2-14.3-4.8-14.2-5.2
					l0.7-2.1l-5.4-1.9l-0.7,2.1c-4.6-1.3-9-2.9-13.2-4.8l0.8-2.2l-5.3-1.9l-0.6,1.7c-4.6-1.7-8.5-3.7-11.6-5.9l0.6-1.7l-5-2.6
					l-0.5,1.5c-3-1.5-5.5-3.4-7.8-5.5l0.9-1.6l-4-3.6l-1.6,1.3c-4.3-3.9-8.2-7.8-11.3-11.6c0,0,1.7-7.3,6.1-6.1l57.7,14l74.8,16
					L1207,2927.6z" class="color333333 svgShape"></path><path fill="#58595b" d="M1219.2,2926.3c-1.2,3.4-2.8,6.7-4.8,9.8l-3,4.8c-21.2-8.1-41.7-13.7-61.1-15.6c-4-0.4-8-0.6-11.9-0.7
					c-33.8-0.5-64.3-13.4-91.9-37.1l1.8-5c1.3-3.7,5.1-5.9,9-5.4l25.5,3.8c4.5,0.7,9.1,1.5,13.6,2.2c12.7,2.1,25.5,1.4,38.2-1.9
					c0.7-0.2,1.4-0.4,2.1-0.6c0.4-0.1,0.8-0.2,1.2-0.4c-1.2,5.4,1.5,13.6,1.6,14.1c0.1,0.2,0.3,0.4,0.5,0.5c0.1,0,0.3,0,0.4,0
					c0.4-0.1,0.6-0.5,0.4-0.9c-1-2.9-2.7-10.1-1.3-14.1c0.3-0.1,0.6-0.2,0.9-0.3c4.6,0.4,11,4.5,13.6,6.5c0.3,0.2,0.8,0.2,1-0.1
					c0.2-0.3,0.2-0.8-0.1-1c-0.4-0.3-6.2-4.7-11.7-6.3c1.1-0.4,2.1-0.7,3.2-1.1c0.7-0.3,1.3-0.5,2-0.8c1.4-0.6,2.9-1.2,4.4-1.8
					c0.6-0.2,1.2-0.5,1.8-0.8c2.1-1,4.3-2,6.4-3.1c3.3,1.5,6.7,5.4,8.1,7.2c0.2,0.3,0.7,0.4,1,0.1c0.3-0.2,0.4-0.7,0.2-1
					c-0.2-0.3-3.7-4.9-7.6-7.1c0.9-0.4,1.7-0.9,2.6-1.4c1.4-0.8,3.1-0.9,4.6-0.4l56.1,18c2.1,0.7,3.1,2.9,2.3,4.9l-2.6,6.4
					c-1.9,4.8-3.1,9.8-3.5,15C1221.7,2917.5,1220.8,2922,1219.2,2926.3z" class="color58595b svgShape"></path><path fill="#1f2023" d="M1140.5 2894.9c-.1 0-.3 0-.4 0-.2-.1-.4-.2-.5-.5-.1-.4-2.8-8.6-1.6-14.1.5-.1 1.1-.3 1.6-.5-1.4 4 .4 11.2 1.3 14.1C1141.1 2894.4 1140.9 2894.8 1140.5 2894.9zM1155 2886c-.2.3-.7.4-1 .1-2.6-2-9-6.2-13.6-6.5.9-.3 1.8-.6 2.8-.9 5.5 1.6 11.3 6 11.7 6.3C1155.2 2885.3 1155.3 2885.7 1155 2886z" class="color231f20 svgShape"></path><path fill="#303030" d="M1170.1,2878.5c-0.3,0.2-0.8,0.2-1-0.1c-1.4-1.8-4.8-5.7-8.1-7.2c0.5-0.3,1-0.5,1.5-0.8
					c4,2.2,7.4,6.9,7.6,7.1C1170.4,2877.9,1170.4,2878.3,1170.1,2878.5z" class="color303030 svgShape"></path><path fill="#404042" d="M1219.2,2926.3c-1.2,3.4-2.8,6.7-4.8,9.8l-3,4.8c-21.2-8.1-41.7-13.7-61.1-15.6l-20.5-28.8
					c-1.2-1.7-0.7-4,1.1-5l38.9-22.9l56.1,18c2.1,0.7,3.1,2.9,2.3,4.9l-2.6,6.4c-1.9,4.8-3.1,9.8-3.5,15
					C1221.7,2917.5,1220.8,2922,1219.2,2926.3z" class="color414042 svgShape"></path><polygon fill="#58595b" points="1169.9 2871.5 1169.5 2870.9 1170 2870.7 1170.6 2870.8 1170.4 2871.4 1170.1 2871.3" class="color58595b svgShape"></polygon><path fill="#58595b" d="M1211,2937.4l-0.5-0.3l0.5-0.7l0.5,0.3L1211,2937.4z M1211.9,2936l-0.5-0.3l0.5-0.7l0.5,0.3L1211.9,2936
								z M1212.8,2934.5l-0.5-0.3c0.1-0.2,0.3-0.5,0.4-0.7l0.5,0.3C1213.1,2934,1213,2934.3,1212.8,2934.5z M1213.7,2933.1l-0.6-0.3
								c0.1-0.2,0.3-0.5,0.4-0.7l0.6,0.3C1214,2932.6,1213.8,2932.8,1213.7,2933.1z M1214.5,2931.6l-0.6-0.3
								c0.1-0.2,0.3-0.5,0.4-0.8l0.6,0.3C1214.8,2931,1214.6,2931.3,1214.5,2931.6z M1215.3,2930l-0.6-0.3c0.1-0.3,0.2-0.5,0.4-0.8
								l0.6,0.3C1215.5,2929.5,1215.4,2929.8,1215.3,2930z M1216,2928.5l-0.6-0.3c0.1-0.3,0.2-0.5,0.3-0.8l0.6,0.2
								C1216.2,2927.9,1216.1,2928.2,1216,2928.5z M1216.6,2926.9l-0.6-0.2c0.1-0.3,0.2-0.5,0.3-0.8l0.6,0.2
								C1216.9,2926.4,1216.8,2926.6,1216.6,2926.9z M1216.7,2925.1c0.1-0.3,0.2-0.5,0.3-0.8l0.6,0.2c-0.1,0.3-0.2,0.5-0.3,0.8
								L1216.7,2925.1z M1217.2,2923.5c0.1-0.3,0.2-0.5,0.3-0.8l0.6,0.2c-0.1,0.3-0.2,0.5-0.3,0.8L1217.2,2923.5z M1217.7,2921.9
								c0.1-0.3,0.2-0.5,0.2-0.8l0.6,0.2c-0.1,0.3-0.2,0.6-0.2,0.8L1217.7,2921.9z M1218.1,2920.2c0.1-0.3,0.1-0.5,0.2-0.8l0.6,0.1
								c-0.1,0.3-0.1,0.6-0.2,0.8L1218.1,2920.2z M1218.5,2918.6c0.1-0.3,0.1-0.6,0.2-0.8l0.6,0.1c-0.1,0.3-0.1,0.6-0.2,0.8
								L1218.5,2918.6z M1218.8,2916.9c0-0.3,0.1-0.6,0.1-0.8l0.6,0.1c0,0.3-0.1,0.6-0.1,0.8L1218.8,2916.9z M1219.1,2915.2
								c0-0.3,0.1-0.6,0.1-0.8l0.6,0.1c0,0.3-0.1,0.6-0.1,0.8L1219.1,2915.2z M1219.3,2913.6c0-0.3,0.1-0.6,0.1-0.8l0.6,0.1
								c0,0.3-0.1,0.6-0.1,0.9L1219.3,2913.6z M1219.4,2911.9c0-0.3,0.1-0.6,0.1-0.9l0.6,0.1c0,0.3-0.1,0.6-0.1,0.8L1219.4,2911.9z
								 M1219.6,2910.2c0-0.3,0.1-0.6,0.1-0.8l0.6,0.1c0,0.3-0.1,0.6-0.1,0.8L1219.6,2910.2z M1219.8,2908.5c0-0.3,0.1-0.6,0.1-0.8
								l0.6,0.1c0,0.3-0.1,0.6-0.1,0.8L1219.8,2908.5z M1220.1,2906.8c0.1-0.3,0.1-0.6,0.2-0.8l0.6,0.1c-0.1,0.3-0.1,0.6-0.2,0.8
								L1220.1,2906.8z M1220.5,2905.1c0.1-0.3,0.1-0.6,0.2-0.8l0.6,0.1c-0.1,0.3-0.1,0.5-0.2,0.8L1220.5,2905.1z M1220.9,2903.5
								c0.1-0.3,0.1-0.6,0.2-0.8l0.6,0.2c-0.1,0.3-0.1,0.5-0.2,0.8L1220.9,2903.5z M1221.3,2901.8c0.1-0.3,0.2-0.5,0.2-0.8l0.6,0.2
								c-0.1,0.3-0.2,0.5-0.2,0.8L1221.3,2901.8z M1221.8,2900.2c0.1-0.3,0.2-0.5,0.3-0.8l0.6,0.2c-0.1,0.3-0.2,0.5-0.3,0.8
								L1221.8,2900.2z M1223,2898.8l-0.6-0.2c0.1-0.3,0.2-0.5,0.3-0.8l0.6,0.2C1223.2,2898.2,1223.1,2898.5,1223,2898.8z
								 M1223.6,2897.2l-0.6-0.2l0.3-0.8l0.6,0.2L1223.6,2897.2z M1224.2,2895.6l-0.6-0.2l0.3-0.8l0.6,0.2L1224.2,2895.6z
								 M1224.9,2894l-0.6-0.2l0.3-0.8l0.6,0.2L1224.9,2894z M1225.5,2892.5l-0.6-0.2l0.3-0.8l0.6,0.2L1225.5,2892.5z
								 M1171.2,2871.7l0.2-0.6l0.8,0.3l-0.2,0.6L1171.2,2871.7z M1172.8,2872.2l0.2-0.6l0.8,0.3l-0.2,0.6L1172.8,2872.2z
								 M1174.4,2872.7l0.2-0.6l0.8,0.3l-0.2,0.6L1174.4,2872.7z M1176.1,2873.2l0.2-0.6l0.8,0.3l-0.2,0.6L1176.1,2873.2z
								 M1177.7,2873.8l0.2-0.6l0.8,0.3l-0.2,0.6L1177.7,2873.8z M1179.3,2874.3l0.2-0.6l0.8,0.3l-0.2,0.6L1179.3,2874.3z
								 M1180.9,2874.8l0.2-0.6l0.8,0.3l-0.2,0.6L1180.9,2874.8z M1182.5,2875.3l0.2-0.6l0.8,0.3l-0.2,0.6L1182.5,2875.3z
								 M1184.2,2875.8l0.2-0.6l0.8,0.3l-0.2,0.6L1184.2,2875.8z M1185.8,2876.4l0.1-0.6l0.8,0.3l-0.2,0.6L1185.8,2876.4z
								 M1225.5,2890.7c0.1-0.2,0.1-0.5,0-0.7l0.6-0.1c0.1,0.3,0.1,0.7,0,1L1225.5,2890.7z M1187.4,2876.9l0.2-0.6l0.8,0.3l-0.2,0.6
								L1187.4,2876.9z M1189,2877.4l0.2-0.6l0.8,0.3l-0.2,0.6L1189,2877.4z M1190.7,2877.9l0.1-0.6l0.8,0.3l-0.2,0.6L1190.7,2877.9
								z M1192.3,2878.5l0.1-0.6l0.8,0.3l-0.2,0.6L1192.3,2878.5z M1193.9,2879l0.2-0.6l0.8,0.3l-0.2,0.6L1193.9,2879z
								 M1195.5,2879.5l0.2-0.6l0.8,0.3l-0.2,0.6L1195.5,2879.5z M1197.1,2880l0.2-0.6l0.8,0.3l-0.2,0.6L1197.1,2880z
								 M1198.8,2880.5l0.2-0.6l0.8,0.3l-0.2,0.6L1198.8,2880.5z M1200.4,2881l0.2-0.6l0.8,0.3l-0.2,0.6L1200.4,2881z M1202,2881.6
								l0.2-0.6l0.8,0.3l-0.2,0.6L1202,2881.6z M1203.6,2882.1l0.2-0.6l0.8,0.3l-0.2,0.6L1203.6,2882.1z M1205.2,2882.6l0.2-0.6
								l0.8,0.3l-0.2,0.6L1205.2,2882.6z M1206.9,2883.1l0.2-0.6l0.8,0.3l-0.2,0.6L1206.9,2883.1z M1208.5,2883.6l0.2-0.6l0.8,0.3
								l-0.2,0.6L1208.5,2883.6z M1210.1,2884.2l0.2-0.6l0.8,0.3l-0.2,0.6L1210.1,2884.2z M1211.7,2884.7l0.2-0.6l0.8,0.3l-0.2,0.6
								L1211.7,2884.7z M1213.4,2885.2l0.2-0.6l0.8,0.3l-0.2,0.6L1213.4,2885.2z M1215,2885.7l0.2-0.6l0.8,0.3l-0.2,0.6L1215,2885.7
								z M1216.6,2886.2l0.2-0.6l0.8,0.3l-0.2,0.6L1216.6,2886.2z M1225.2,2889.3c-0.1-0.2-0.3-0.3-0.5-0.5l0.3-0.6
								c0.3,0.2,0.5,0.4,0.7,0.6L1225.2,2889.3z M1218.2,2886.8l0.2-0.6l0.8,0.3l-0.2,0.6L1218.2,2886.8z M1219.8,2887.3l0.2-0.6
								l0.8,0.3l-0.2,0.6L1219.8,2887.3z M1221.5,2887.8l0.2-0.6l0.8,0.3l-0.2,0.6L1221.5,2887.8z M1223.1,2888.3l0.2-0.6l0.8,0.3
								l-0.2,0.6L1223.1,2888.3z" class="color58595b svgShape"></path><polygon fill="#58595b" points="1210.2 2938.6 1209.6 2938.4 1209.8 2937.8 1210 2937.9 1210.1 2937.7 1210.6 2938.1" class="color58595b svgShape"></polygon><path fill="#58595b" d="M1152.9,2923.8l0.1-0.6l0.8,0.1l-0.1,0.6L1152.9,2923.8z M1154.6,2924l0.1-0.6l0.8,0.1l-0.1,0.6
								L1154.6,2924z M1156.3,2924.2l0.1-0.6l0.8,0.1l-0.1,0.6L1156.3,2924.2z M1157.9,2924.4l0.1-0.6l0.8,0.1l-0.1,0.6
								L1157.9,2924.4z M1159.6,2924.7l0.1-0.6l0.8,0.1l-0.1,0.6L1159.6,2924.7z M1161.2,2924.9l0.1-0.6l0.8,0.1l-0.1,0.6
								L1161.2,2924.9z M1162.9,2925.2l0.1-0.6l0.8,0.1l-0.1,0.6L1162.9,2925.2z M1164.5,2925.5l0.1-0.6l0.8,0.1l-0.1,0.6
								L1164.5,2925.5z M1166.2,2925.8l0.1-0.6l0.8,0.2l-0.1,0.6L1166.2,2925.8z M1167.8,2926.1l0.1-0.6l0.8,0.2l-0.1,0.6
								L1167.8,2926.1z M1169.5,2926.5l0.1-0.6l0.8,0.2l-0.1,0.6L1169.5,2926.5z M1171.1,2926.8l0.1-0.6l0.8,0.2l-0.1,0.6
								L1171.1,2926.8z M1172.8,2927.2l0.1-0.6l0.8,0.2l-0.1,0.6L1172.8,2927.2z M1174.4,2927.5l0.1-0.6l0.8,0.2l-0.1,0.6
								L1174.4,2927.5z M1176,2927.9l0.1-0.6l0.8,0.2l-0.1,0.6L1176,2927.9z M1177.6,2928.3l0.2-0.6l0.8,0.2l-0.2,0.6L1177.6,2928.3
								z M1179.3,2928.7l0.2-0.6l0.8,0.2l-0.2,0.6L1179.3,2928.7z M1180.9,2929.1l0.2-0.6l0.8,0.2l-0.2,0.6L1180.9,2929.1z
								 M1182.5,2929.6l0.2-0.6l0.8,0.2l-0.2,0.6L1182.5,2929.6z M1184.1,2930l0.2-0.6l0.8,0.2l-0.2,0.6L1184.1,2930z
								 M1185.7,2930.5l0.2-0.6l0.8,0.2l-0.2,0.6L1185.7,2930.5z M1187.4,2930.9l0.2-0.6l0.8,0.2l-0.2,0.6L1187.4,2930.9z
								 M1189,2931.4l0.2-0.6l0.8,0.2l-0.2,0.6L1189,2931.4z M1190.6,2931.9l0.2-0.6l0.8,0.2l-0.2,0.6L1190.6,2931.9z
								 M1192.2,2932.4l0.2-0.6l0.8,0.3l-0.2,0.6L1192.2,2932.4z M1193.8,2932.9l0.2-0.6l0.8,0.3l-0.2,0.6L1193.8,2932.9z
								 M1195.4,2933.4l0.2-0.6l0.8,0.3l-0.2,0.6L1195.4,2933.4z M1197,2933.9l0.2-0.6l0.8,0.3l-0.2,0.6L1197,2933.9z
								 M1198.5,2934.5l0.2-0.6l0.8,0.3l-0.2,0.6L1198.5,2934.5z M1200.1,2935l0.2-0.6l0.8,0.3l-0.2,0.6L1200.1,2935z
								 M1201.7,2935.5l0.2-0.6l0.8,0.3l-0.2,0.6L1201.7,2935.5z M1208.8,2938.1l-0.8-0.3l0.2-0.6l0.8,0.3L1208.8,2938.1z
								 M1203.3,2936.1l0.2-0.6l0.8,0.3l-0.2,0.6L1203.3,2936.1z M1207.2,2937.5l-0.8-0.3l0.2-0.6l0.8,0.3L1207.2,2937.5z
								 M1204.9,2936.7l0.2-0.6l0.8,0.3l-0.2,0.6L1204.9,2936.7z" class="color58595b svgShape"></path><polygon fill="#58595b" points="1151.5 2923.7 1151.2 2923.2 1151.7 2922.8 1151.9 2923.1 1152.2 2923.1 1152.1 2923.7" class="color58595b svgShape"></polygon><path fill="#58595b" d="M1150.7,2922.5l-0.5-0.7l0.5-0.4l0.5,0.7L1150.7,2922.5z M1149.8,2921.1l-0.5-0.7l0.5-0.4l0.5,0.7
								L1149.8,2921.1z M1148.8,2919.8l-0.5-0.7l0.5-0.4l0.5,0.7L1148.8,2919.8z M1147.8,2918.4l-0.5-0.7l0.5-0.4l0.5,0.7
								L1147.8,2918.4z M1146.8,2917l-0.5-0.7l0.5-0.4l0.5,0.7L1146.8,2917z M1145.9,2915.7l-0.5-0.7l0.5-0.4l0.5,0.7L1145.9,2915.7
								z M1144.9,2914.3l-0.5-0.7l0.5-0.4l0.5,0.7L1144.9,2914.3z M1143.9,2912.9l-0.5-0.7l0.5-0.4l0.5,0.7L1143.9,2912.9z
								 M1142.9,2911.6l-0.5-0.7l0.5-0.4l0.5,0.7L1142.9,2911.6z M1142,2910.2l-0.5-0.7l0.5-0.4l0.5,0.7L1142,2910.2z M1141,2908.9
								l-0.5-0.7l0.5-0.4l0.5,0.7L1141,2908.9z M1140,2907.5l-0.5-0.7l0.5-0.4l0.5,0.7L1140,2907.5z M1139,2906.1l-0.5-0.7l0.5-0.4
								l0.5,0.7L1139,2906.1z M1138.1,2904.8l-0.5-0.7l0.5-0.4l0.5,0.7L1138.1,2904.8z M1137.1,2903.4l-0.5-0.7l0.5-0.4l0.5,0.7
								L1137.1,2903.4z M1136.1,2902l-0.5-0.7l0.5-0.4l0.5,0.7L1136.1,2902z M1135.2,2900.7l-0.5-0.7l0.5-0.4l0.5,0.7L1135.2,2900.7
								z M1134.2,2899.3l-0.5-0.7l0.5-0.4l0.5,0.7L1134.2,2899.3z M1133.2,2897.9l-0.5-0.7l0.5-0.4l0.5,0.7L1133.2,2897.9z
								 M1132.2,2896.6l-0.5-0.7l0.5-0.4l0.5,0.7L1132.2,2896.6z M1131.4,2895c0-0.3,0-0.5,0-0.8c0-0.1,0-0.1,0.1-0.2l0.6,0.2
								c0,0,0,0.1,0,0.1c0,0.2,0,0.4,0,0.5L1131.4,2895z M1132.4,2893.6l-0.4-0.5c0.1-0.1,0.3-0.2,0.4-0.3l0.3-0.2l0.3,0.5l-0.3,0.2
								C1132.6,2893.5,1132.5,2893.5,1132.4,2893.6z M1133.7,2892.8l-0.3-0.5l0.7-0.4l0.3,0.5L1133.7,2892.8z M1135.2,2891.9
								l-0.3-0.5l0.7-0.4l0.3,0.5L1135.2,2891.9z M1136.6,2891.1l-0.3-0.5l0.7-0.4l0.3,0.5L1136.6,2891.1z M1138.1,2890.2l-0.3-0.5
								l0.7-0.4l0.3,0.5L1138.1,2890.2z M1139.5,2889.4l-0.3-0.5l0.7-0.4l0.3,0.5L1139.5,2889.4z M1141,2888.5l-0.3-0.5l0.7-0.4
								l0.3,0.5L1141,2888.5z M1142.4,2887.7l-0.3-0.5l0.7-0.4l0.3,0.5L1142.4,2887.7z M1143.9,2886.8l-0.3-0.5l0.7-0.4l0.3,0.5
								L1143.9,2886.8z M1145.3,2886l-0.3-0.5l0.7-0.4l0.3,0.5L1145.3,2886z M1146.7,2885.1l-0.3-0.5l0.7-0.4l0.3,0.5L1146.7,2885.1
								z M1148.2,2884.3l-0.3-0.5l0.7-0.4l0.3,0.5L1148.2,2884.3z M1149.6,2883.4l-0.3-0.5l0.7-0.4l0.3,0.5L1149.6,2883.4z
								 M1151.1,2882.6l-0.3-0.5l0.7-0.4l0.3,0.5L1151.1,2882.6z M1152.5,2881.7l-0.3-0.5l0.7-0.4l0.3,0.5L1152.5,2881.7z
								 M1154,2880.9l-0.3-0.5l0.7-0.4l0.3,0.5L1154,2880.9z M1155.4,2880l-0.3-0.5l0.7-0.4l0.3,0.5L1155.4,2880z M1156.9,2879.1
								l-0.3-0.5l0.7-0.4l0.3,0.5L1156.9,2879.1z M1158.3,2878.3l-0.3-0.5l0.7-0.4l0.3,0.5L1158.3,2878.3z M1159.7,2877.4l-0.3-0.5
								l0.7-0.4l0.3,0.5L1159.7,2877.4z M1161.2,2876.6l-0.3-0.5l0.7-0.4l0.3,0.5L1161.2,2876.6z M1162.6,2875.7l-0.3-0.5l0.7-0.4
								l0.3,0.5L1162.6,2875.7z M1164.1,2874.9l-0.3-0.5l0.7-0.4l0.3,0.5L1164.1,2874.9z M1165.5,2874l-0.3-0.5l0.7-0.4l0.3,0.5
								L1165.5,2874z M1167,2873.2l-0.3-0.5l0.7-0.4l0.3,0.5L1167,2873.2z M1168.4,2872.3l-0.3-0.5l0.7-0.4l0.3,0.5L1168.4,2872.3z" class="color58595b svgShape"></path><g fill="#000000" class="color000000 svgShape"><path fill="#e6e7e8" d="M1139.8 2897.4c-1.8-.4-2.9-2.2-2.5-3.9.4-1.8 2.2-2.8 3.9-2.4 1.8.4 2.9 2.2 2.5 3.9C1143.3 2896.7 1141.5 2897.8 1139.8 2897.4zM1141 2892.1c-1.2-.3-2.4.5-2.7 1.7-.3 1.2.5 2.4 1.7 2.7 1.2.3 2.4-.5 2.7-1.7C1143 2893.5 1142.2 2892.3 1141 2892.1zM1154.2 2889.5c-1.8-.4-2.9-2.2-2.4-3.9.4-1.7 2.1-2.8 3.9-2.4 1.8.4 2.9 2.2 2.5 3.9C1157.7 2888.8 1156 2889.9 1154.2 2889.5zM1155.5 2884.2c-1.2-.3-2.4.5-2.7 1.7-.3 1.2.5 2.4 1.7 2.7 1.2.3 2.4-.5 2.7-1.7C1157.4 2885.7 1156.7 2884.5 1155.5 2884.2z" class="colore6e7e8 svgShape"></path><g fill="#000000" class="color000000 svgShape"><path fill="#1f2023" d="M1140.9,2894c0.1,0.4-0.1,0.8-0.4,0.9c-0.1,0-0.3,0-0.4,0c-0.2-0.1-0.4-0.2-0.5-0.5
								c-0.1-0.4-2.8-8.6-1.6-14.1c0-0.2,0.1-0.3,0.1-0.5c0.2-0.6,0.4-1.1,0.6-1.6c0.3-0.5,0.7-1,1.1-1.4c1.9-1.6,4.7-1.6,8.6,0
								c-0.7,0.3-1.4,0.5-2,0.8c-2.5-0.8-4.4-0.7-5.6,0.3c-0.1,0.1-0.2,0.2-0.3,0.3c-0.3,0.4-0.6,0.9-0.8,1.4c0,0.1-0.1,0.2-0.1,0.3
								C1138.2,2883.9,1140,2891.1,1140.9,2894z" class="color231f20 svgShape"></path><path fill="#1f2023" d="M1155,2886c-0.2,0.3-0.7,0.4-1,0.1c-2.6-2-9-6.2-13.6-6.5c-0.3,0-0.5,0-0.8,0c-0.6,0-1.1,0.1-1.6,0.3
								c-0.2,0.1-0.4,0.2-0.6,0.3c-0.3,0.2-0.5,0.4-0.8,0.6c-0.7,0.2-1.4,0.4-2.1,0.6c0.5-1.1,1.2-1.9,2.2-2.4
								c0.6-0.3,1.2-0.5,1.9-0.6c0.6-0.1,1.2-0.1,1.8-0.1c0.9,0.1,1.8,0.2,2.7,0.5c5.5,1.6,11.3,6,11.7,6.3
								C1155.2,2885.3,1155.3,2885.7,1155,2886z" class="color231f20 svgShape"></path></g></g><g fill="#000000" class="color000000 svgShape"><path fill="#e6e7e8" d="M1168.5,2881c-1.7-0.6-2.6-2.5-2-4.2c0.6-1.7,2.5-2.6,4.2-2c1.7,0.6,2.6,2.5,2,4.2
							C1172.1,2880.8,1170.2,2881.6,1168.5,2881z M1170.4,2875.8c-1.2-0.4-2.5,0.2-2.9,1.4c-0.4,1.2,0.2,2.5,1.4,2.9
							c1.2,0.4,2.5-0.2,2.9-1.4C1172.2,2877.6,1171.6,2876.3,1170.4,2875.8z" class="colore6e7e8 svgShape"></path><path fill="#1f2023" d="M1170.1,2878.5c-0.3,0.2-0.8,0.2-1-0.1c-1.4-1.8-4.8-5.7-8.1-7.2c-1.1-0.5-2.2-0.7-3.1-0.5
							c-1.4,0.3-2.5,1.5-3.3,3.6c-0.6,0.3-1.2,0.5-1.8,0.8c1-3.3,2.6-5.3,4.8-5.7c1.6-0.4,3.3,0.2,5,1.1c4,2.2,7.4,6.9,7.6,7.1
							C1170.4,2877.9,1170.4,2878.3,1170.1,2878.5z" class="color231f20 svgShape"></path></g></g><path fill="#021b79" d="M1688.5,2223.6l58.1,321.6c1.9,10.7,9,19.8,18.9,24.2l253,113.5l-18.6,74l-261.8-81.3
			c-54.8-17-100.2-55.7-125.7-107.2l-97.8-197.1l-175,196.6l-98,302.1l-72.9-22l46.6-281.5c5.8-36.6,18.8-71.7,38.1-103.3l182-298.3
			l141-14.1L1688.5,2223.6z" class="color333333 svgShape"></path><g fill="#000000" class="color000000 svgShape"><path fill="#f1f1f2" d="M1646.4,1782.1l-12.9-29.2c-22,26.8-45.9,30-72,5.9l-82.5,112.9l21.6,55.4l-7.8,193.4l17.6,92.9
				c14.8,24.9,40.8,29.7,73,23.1l37-22.2l61-189.7l5.4-81.2c0,0-12.6-57.9-15-61C1669.4,1879.4,1646.4,1782.1,1646.4,1782.1z" class="colorf1f2f2 svgShape"></path><path fill="#0575e6" d="M1561.5 1758.8c-.3 1.3-.7 2.5-1 3.8-4.2 15.2-8.3 30.4-12.4 45.6-8.5 30.9-13.2 61-12.4 93.3.6 25.8 2.8 51.7 1.3 77.5-1.8 30.2-10.4 58.7-16.1 88.2-10.5 55-9 111.8-11.3 167.5-.3 8-7.8 13.8-15.7 12.2-31-6-56.6-20.1-76.6-42.6-2.2-2.4-3.1-5.8-2.5-9.1 6.6-36.5 13.9-72.9 21.7-109.2 8.5-39.6 24-131.7 17.3-133.7-6.1-1.8-68.6 61.8-116.9 51.7-60.9-12.7 2.1-275.4 12.9-318.7l64.1 23.5c-8.4 48.7-31.5 185.8-22.6 173.9 25.1-33.6 35-50.8 69.1-75.6 10.6-7.7 21.6-14.9 33-21.2 10.3-5.8 21-10.9 31.9-15.3 5.8-2.4 11.6-4.5 17.6-6.5 1.3-.4 7.7-2.1 12.7-3.5 0 0 0 0 .1 0C1558.4 1759.9 1560.9 1759.2 1561.5 1758.8zM1633.5 1752.9c0 0-2.7 15.3-2.9 16.2-10.8 63.7-26.8 127.5-32.4 191.9-7 80.6 7.6 162.2-8.3 242.2-1.3 6.7-2.8 13.4-4.6 20-1.1 3.9-3.5 9.4-1.9 13.5 17.6 44 92.9 51.1 114.3 53.3 3.5.4 6.5-2.2 6.8-5.7l8.4-197.3c.7-16.9 2.4-33.8 5.1-50.5l21.7-136.2c9.7-60.8-25.8-119.8-84.1-139.7L1633.5 1752.9z" class="color1e88e5 svgShape"></path></g><path fill="#9bc9f7" d="M1561.5,1758.8c23.3,46.5,47.3,43.6,72-5.9l4.9-51.3l-68.7,0l-4.7,32.7l-0.9,5.8l-1.2,8.1l-0.9,6
			L1561.5,1758.8z" class="colorf7c19b svgShape"></path><path fill="#96c0ea" d="M1563,1748.3c31,2.8,53.6-14.4,55-15.5c-22.8,10.5-48.7,2.9-52.9,1.5l-0.9,5.8L1563,1748.3z" class="coloreab896 svgShape"></path><path fill="#9bc9f7" d="M1568.7,1598.4c0,0-42.2,60-31.4,104.2c5.6,22.9,27.9,37.6,51.3,34.6c17.8-2.3,45-8.8,69.9-26.7
			c2.2-1.5,14.6-63.1,14.6-63.1l-8.5-24.6l-52.7-23L1568.7,1598.4z" class="colorf7c19b svgShape"></path><path fill="#021b79" d="M1610.9,1669.7l15-21c0,0-8,0.7-17.1-0.4c-13.3-1.7-22.6-13.9-20.9-27.1l0.4-3.3c0,0-52-17.7-23-59.1
			c7.3-10.5,20.3-15.7,32.7-12.7c11,2.7,25.8,10,43.9,27.3c6.8,6.5,16.8,8.3,26.1,7.5c10.2-0.9,24.1,3.5,25.9,33.4
			c0.3,5.2,1.4,10.3,3.4,15.1c5.6,13.4,7,67.7-60,102.8c-2.9,1.5-6-1.7-4.3-4.5c10.1-17.4,28.3-53.5,9.2-59.4
			c-4.6-1.4-9.6-0.3-13.4,2.6l-9.3,6.9c-2.6,1.9-6.2,1.4-8.1-1l0,0C1609.5,1674.8,1609.4,1671.9,1610.9,1669.7z" class="color333333 svgShape"></path><g fill="#000000" class="color000000 svgShape"><path fill="#9bc9f7" d="M1471.2,1653.4l9.1-24.1c1.4-3.8,4.4-6.9,8.2-8.5l16.3-6.8c3.1-1.3,4.6-4.8,3.4-7.9l0,0
				c-1-2.6-3.6-4.1-6.3-3.9l-15.7,1.5c-4.2,0.4-7.7-3-7.6-7.2l1.5-42.2c0.1-3.3-2.4-6.1-5.7-6.3l0,0c-3.2-0.2-6.1,2.1-6.5,5.4
				l-2.8,23.6l3.1-26.6c0.4-3.9-2.5-7.3-6.4-7.4l0,0c-3.5-0.1-6.5,2.5-6.8,6l-3.6,39.4l3.1-31.4c0.4-3.7-2.3-6.9-6-7.2l0,0
				c-3.6-0.3-6.8,2.4-7.1,6.1l-3.3,42.2l2.6-31.9c0.3-3.6-2.3-6.7-5.9-7.1l0,0c-3.5-0.3-6.6,2.1-7.1,5.5
				c-4.3,25.7-5.2,54.4-4.3,84.8L1471.2,1653.4z" class="colorf7c19b svgShape"></path><path fill="#0575e6" d="M1707.2,1808.7l-186.3,32.7l-38.4-207.2l-66.7-6.9l24.8,212.8c6.2,47.3,32,86.5,78.6,87.7l176.8,4.4
				L1707.2,1808.7z" class="color1e88e5 svgShape"></path></g><g fill="#000000" class="color000000 svgShape"><path fill="#58595b" d="M2010.1,1381.1L2010.1,1381.1c-78.3-28.6-118.5-115.3-89.9-193.5l53.7-146.7l283.4,103.7l-53.7,146.7
				C2175,1369.5,2088.4,1409.7,2010.1,1381.1z" class="color58595b svgShape"></path><path fill="#2654ff" d="M2637.4,782.6c-36.5,110.7-118,193-217,234.2c-69.5,28.9-124.2,85-150.1,155.7l-9.3,25.3
				c-5.9,16-23.6,24.3-39.7,18.4l-266.2-97.4c-16-5.9-24.3-23.6-18.4-39.7l8.4-23.1c25.8-70.6,22.6-149.4-12.2-216.1
				c-48.1-92.3-58.7-203.7-20.1-309.2c74.6-203.9,304.1-306.3,506.7-222.7C2604.1,384.2,2699.9,593,2637.4,782.6z" class="colorffa726 svgShape"></path><path fill="#1c4af7" d="M2420.3,1016.8c-69.5,28.9-124.2,85-150.1,155.7l-9.3,25.3c-5.9,16-23.6,24.3-39.7,18.4l-34.7-12.7
				c16.1,5.9,33.8-2.4,39.7-18.4l9.3-25.3c25.9-70.7,80.6-126.8,150.1-155.7c99-41.2,180.5-123.5,217-234.2
				c62.3-188.8-32.4-396.6-215.5-473.4c10.8,3.4,21.6,7.3,32.4,11.7c184.6,76.1,280.4,284.9,217.9,474.4
				C2600.8,893.3,2519.3,975.6,2420.3,1016.8z" class="colorf7991c svgShape"></path><path fill="#bdbdbd" d="M2201.4 1285.3l-275.6-100.8c-12.3-4.5-18.7-18.2-14.2-30.5l0 0c4.5-12.3 18.2-18.7 30.5-14.2l275.6 100.8c12.3 4.5 18.7 18.2 14.2 30.5l0 0C2227.4 1283.4 2213.7 1289.8 2201.4 1285.3zM2176.8 1352.5l-275.6-100.8c-12.3-4.5-18.7-18.2-14.2-30.5l0 0c4.5-12.3 18.2-18.7 30.5-14.2l275.6 100.8c12.3 4.5 18.7 18.2 14.2 30.5l0 0C2202.8 1350.7 2189.1 1357 2176.8 1352.5z" class="colorbdbdbd svgShape"></path><path fill="#404042" d="M2131.1,1183.3l-10.9-4l119.7-327l-63.8-23.3l-119.7,327l-10.9-4l119.7-327l-54.9-20.1
					c-36.3-13.3-55.1-53.6-41.8-90l0.9-2.5c13.3-36.3,53.6-55.1,90-41.8c36.3,13.3,55.1,53.6,41.8,90l-21,57.4l63.8,23.3l21-57.4
					c13.3-36.3,53.6-55.1,90-41.8c36.3,13.3,55.1,53.6,41.8,90l-0.9,2.5c-13.3,36.3-53.6,55.1-90,41.8l-54.9-20.1L2131.1,1183.3z
					 M2254.7,845.3l54.9,20.1c30.3,11.1,63.9-4.5,75-34.8l0.9-2.5c11.1-30.3-4.5-63.9-34.8-75c-30.3-11.1-63.9,4.5-75,34.8
					L2254.7,845.3z M2155.2,681.5c-30.3-11.1-63.9,4.5-75,34.8l-0.9,2.5c-11.1,30.3,4.5,63.9,34.8,75l54.9,20.1l21-57.4
					C2201.2,726.3,2185.5,692.6,2155.2,681.5z" class="color414042 svgShape"></path><path fill="#4d72ff" d="M2379.1,355.2l-7.8,12c-14.1,21.8-38.8,33.9-64.7,32.5c-122.8-6.8-239.5,33.2-348.3,135.6
				c74.1-153.7,204.4-229.9,411.9-199.6C2379.4,337,2384.2,347.4,2379.1,355.2z" class="colorffb24d svgShape"></path><g fill="#000000" class="color000000 svgShape"><path fill="#1c4af7" d="M2505.7 25c-4.9 36.1-15.5 70.4-27.7 104.4-12.6 33.8-26.6 66.9-46.2 97.6 4.9-36.1 15.5-70.4 27.7-104.4C2472.2 88.8 2486.2 55.7 2505.7 25L2505.7 25zM1998.7 50.5c22 29 38.8 60.7 54.2 93.4 15 32.8 28.5 66.1 36.4 101.7-22.1-29-38.8-60.7-54.2-93.4C2020.1 119.3 2006.6 86 1998.7 50.5L1998.7 50.5zM1658.2 427c36.1 4.9 70.4 15.5 104.4 27.7 33.8 12.6 66.9 26.6 97.6 46.2-36.1-4.9-70.4-15.5-104.4-27.7C1722 460.5 1688.9 446.5 1658.2 427L1658.2 427zM1683.7 934c29-22 60.8-38.8 93.4-54.2 32.8-15 66.1-28.5 101.7-36.4-29 22.1-60.7 38.8-93.4 54.2C1752.5 912.6 1719.2 926.1 1683.7 934L1683.7 934zM2567.2 1249c-22-29-38.8-60.8-54.2-93.4-15-32.8-28.5-66.1-36.4-101.7 22.1 29 38.8 60.7 54.2 93.4C2545.8 1180.2 2559.3 1213.5 2567.2 1249L2567.2 1249zM2907.7 872.5c-36.1-4.9-70.4-15.5-104.4-27.7-33.8-12.6-66.9-26.6-97.6-46.2 36.1 4.9 70.4 15.5 104.4 27.7C2843.9 839 2877 853 2907.7 872.5L2907.7 872.5zM2882.2 365.5c-29 22-60.8 38.8-93.4 54.2-32.8 15-66.1 28.5-101.7 36.4 29-22.1 60.7-38.8 93.4-54.2C2813.4 386.9 2846.7 373.4 2882.2 365.5L2882.2 365.5z" class="colorf7991c svgShape"></path></g></g></svg>