<svg xmlns="http://www.w3.org/2000/svg" fill-rule="evenodd" stroke-linejoin="round" stroke-miterlimit="2" clip-rule="evenodd" viewBox="0 0 3000 3000" id="Websiteundermaintenance"><path fill="none" d="M0 0h3000v3000H0z"></path><path fill="#0575e6" d="M2034.3 1743.38h279.447v45.835H2034.3zM2121.29 1956.87h279.447v39.497H2121.29zM2168.61 2059h279.447v33.269H2168.61zM2230.7 2171.63h279.447v39.852H2230.7zM2073.98 1835.63h279.447v46.889H2073.98z" class="color0578d0 svgShape"></path><path fill="#0575e6" d="m1892.06 1427.24-55.85 11.869 430.127 852.844h64.943l-439.22-864.713ZM2188.1 1379.3l-49.863 5.796 376.1 906.861h54.283L2188.1 1379.3Z" class="color0578d0 svgShape"></path><path fill="#7db7f1" d="M1685.92 1029.11c-2.128-34.17-52.453-58.573-78.36-30.574-25.907 27.999-77.08 198.566-77.08 198.566l89.85 6.457s67.719-140.278 65.59-174.449Z" class="coloref7df1 svgShape"></path><path fill="#0035fb" d="M1732.4 933.798c-18.373-43.601-54.258-60.888-91.442-23.551-28.464 28.582-83.962 190.317-83.962 190.317 32.037-4.37 63.082 5.434 92.565 37.533l82.839-204.299Z" class="colorfba800 svgShape"></path><path fill="#021b79" d="M2077.3 1111.87c19.567 30.672 32.636 88.297 34.672 136.5l-107.184-81.134 72.512-55.366Z" class="color010190 svgShape"></path><path fill="#0035fb" d="M1878.36 759.852c-34.114 3.333-224.246 121.659-229.723 145.614-22.143 96.845 117.481 406.05 117.481 406.05 117.06-46.813 224.583-107.25 317.109-189.112 0 0-109.814-371.839-204.867-362.552Z" class="colorfba800 svgShape"></path><path d="M1646.9 968.706c19.239 127.768 116.802 343.899 116.802 343.899a2.647 2.647 0 0 0 4.823-2.178s-97.23-215.251-116.392-342.509a2.646 2.646 0 0 0-5.233.788Z" fill="#000000" class="color000000 svgShape"></path><path fill="#0575e6" d="M1036.13 2292.56s3.179-61.548 26.614-67.404c45.948-11.48 249.072-1.478 249.072-1.478l68.818-251.355 243.371 5.303 75.998 241.616s306.555-7.784 375.555 4.436c25.891 4.585 38.442 68.882 38.442 68.882H1036.13Z" class="color0578d0 svgShape"></path><path fill="#021b79" d="m2227.18 1180.16-1577.9-106.371 6.93 958.754 1582.52 13.861-11.551-866.244Z" class="color010190 svgShape"></path><path fill="#7db7f1" d="m1686.27 782.619 94.877-70.656 29.899 81.894c-50.355 75.813-102.819 104.04-114.934 33.259l-9.842-44.497Z" class="coloref7df1 svgShape"></path><ellipse cx="1510.72" cy="1956.87" fill="#edeff1" rx="31.357" ry="28.388" class="coloredeff1 svgShape"></ellipse><path fill="#ffffff" d="m2164.75 1256.2-1432.36-76.04-2.213 723.108 1430.04-.198 4.524-646.87Z" class="colorffffff svgShape"></path><path fill="#7db7f1" d="M1763.94 732.072c-7.911 41.555-36.492 72.37-70.496 72.37-40.109 0-72.672-42.872-72.672-95.679s32.563-95.68 72.672-95.68c24.145 0 47.623-5.823 58.776 39.428l.031-.034a42.733 42.733 0 0 1 1.922-1.98 34.087 34.087 0 0 1 1.532-1.387c.416-.353.84-.695 1.275-1.023 2.666-2.014 5.843-3.611 9.252-3.613.559 0 1.117.043 1.669.129.838.13 1.658.36 2.445.677 1.199.482 2.312 1.159 3.327 1.956 1.529 1.199 2.84 2.66 3.986 4.224 1.971 2.691 3.486 5.703 4.734 8.789 1.865 4.61 3.151 9.45 4.067 14.332a100.78 100.78 0 0 1 1.709 18.458c.003 4.253-.26 8.512-.874 12.722-.506 3.46-1.247 6.897-2.349 10.218a43.17 43.17 0 0 1-1.091 2.94c-.28.676-.579 1.343-.899 2.001-1.952 4.013-4.796 7.837-8.857 9.898a14.514 14.514 0 0 1-5.234 1.507c-1.643.156-3.297.043-4.918-.252l-.007-.001Z" class="coloref7df1 svgShape"></path><path d="M1786.86 693.856s-3.225-70.733-39.814-36.694c-12.473-81.976-104.419 28.899-123.62 29.078-17.672.165-42.219-36.764-33.572-57.071 18.957-44.52 61.511-62.293 110.303-71.246 0 0 27.015-3.072 49.471 8.993 16.502 8.866 29.798 29.867 31.871 46.167 26.883 11.776 26.21 62.358 5.361 80.773Z" fill="#000000" class="color000000 svgShape"></path><path fill="#0575e6" d="m2165.56 1846.46-1435.25-6.622-2.309 64.695 1432.94-.198 4.614-57.875Z" class="color0578d0 svgShape"></path><path fill="#021b79" d="M1078.78 1268.17c-14.707-14.115-38.103-13.63-52.212 1.082l-226.869 236.555c-14.11 14.712-13.625 38.116 1.082 52.23l213.179 204.595c14.707 14.114 38.103 13.63 52.212-1.082l226.869-236.555c14.11-14.712 13.625-38.116-1.082-52.231L1078.78 1268.17Z" class="color010190 svgShape"></path><path fill="#0575e6" d="M1071.63 1302.83c-12.445-11.944-32.243-11.534-44.183.916l-191.981 200.177c-11.94 12.45-11.53 32.255.916 44.199l180.396 173.132c12.445 11.944 32.243 11.534 44.183-.916l191.982-200.177c11.939-12.45 11.529-32.255-.916-44.199L1071.63 1302.83Z" class="color0578d0 svgShape"></path><path fill="#ffffff" d="M1027.09 1588.78c10.801 19.732 3.966 41.228-19.116 64.35 4.449-49.287-17.261-63.206-61.944-46.395-4.014-20.933 22.17-46.873 48.444-32.849l90.533-119.365c-5.632-35.894 2.827-54.725 29.384-51.638-8.636 40.615 7.842 52.757 50.032 35.749.218 25.388-12.5 41.24-44.473 42.9l-92.86 107.248Z" class="colorffffff svgShape"></path><path fill="#ffffff" d="m981.764 1472.79-33.354 38.252-27.796-33.485 31.766-31.778-8.735-10.327 43.678-42.105s61.696 4.369 66.196 13.505c2.637 5.353-15.243 12.26-27.214 22.326-8.46 7.113-11.98 18.985-11.98 18.985s106.813 109.367 118.329 138.231c7.459 18.699-33.158 47.062-49.238 34.955-25.148-18.934-101.652-148.559-101.652-148.559Z" class="colorffffff svgShape"></path><path fill="#509fef" d="m1582.68 1271.26-47.674 2.531c107.671-246.829 232.627-258.184 380.349-80.944 24.64 29.564 54.513 62.076 80.139 102.07l-50.539-2.318c-146.366-208.962-269.531-235.049-362.275-21.339" class="color5090ef svgShape"></path><path fill="#021b79" d="m2067.81 1287.08-612.94-26.963-17.945 312.545 616.858 22.673 14.027-308.255Z" class="color010190 svgShape"></path><path fill="#ffffff" fill-rule="nonzero" d="m1508.86 1381.31 15.479 43.01 18.946-41.562 18.181.765-2.453 58.301-13.89-.584.67-15.937 2.542-27.45-19.963 42.682-9.506-.4-16.262-44.167.228 27.527-.671 15.937-13.843-.583 2.453-58.301 18.089.762ZM1599.16 1443.51c-.571-1.067-.963-2.381-1.175-3.941-3.361 2.988-7.626 4.373-12.794 4.155-4.892-.206-8.893-1.604-12.005-4.195-3.111-2.592-4.588-5.756-4.431-9.493.193-4.592 2.303-8.033 6.328-10.324 4.026-2.29 9.747-3.293 17.162-3.008l6.137.258.104-2.482c.085-2.002-.44-3.629-1.574-4.88-1.134-1.251-2.977-1.93-5.531-2.038-2.246-.094-4.026.299-5.342 1.179-1.316.881-2.009 2.135-2.077 3.764l-13.336-.561c.105-2.51 1.095-4.795 2.969-6.855 1.875-2.061 4.468-3.629 7.78-4.707 3.312-1.077 6.998-1.53 11.059-1.36 6.153.259 10.98 1.806 14.482 4.641 3.502 2.835 5.15 6.682 4.946 11.54l-.79 18.78c-.143 4.112.388 7.25 1.591 9.413l-.028.681-13.475-.567Zm-10.69-8.513c1.969.083 3.8-.221 5.493-.912 1.694-.691 2.967-1.66 3.821-2.908l.313-7.448-4.983-.209c-6.676-.281-10.314 1.571-10.913 5.557l-.075.679c-.06 1.442.474 2.654 1.604 3.638 1.13.983 2.71 1.518 4.74 1.603ZM1634.97 1445.02l-13.382-.564 1.823-43.325 13.382.563-1.823 43.326Zm-11.872-55.134c.073-1.735.803-3.135 2.188-4.2 1.385-1.064 3.232-1.548 5.539-1.451 2.277.096 4.068.733 5.374 1.911 1.307 1.178 1.924 2.634 1.851 4.37-.075 1.761-.82 3.174-2.236 4.238-1.416 1.063-3.247 1.548-5.493 1.453-2.246-.094-4.029-.731-5.351-1.91-1.322-1.178-1.946-2.649-1.872-4.411ZM1660.05 1402.67l.204 5.023c3.732-3.721 8.597-5.455 14.596-5.202 5.291.222 9.172 1.736 11.643 4.541 2.471 2.805 3.624 6.891 3.459 12.26l-1.177 27.989-13.336-.561 1.166-27.709c.103-2.456-.437-4.264-1.621-5.424-1.184-1.159-3.207-1.799-6.068-1.92-3.753-.158-6.626 1.112-8.62 3.809l-1.285 30.552-13.336-.561 1.823-43.325 12.552.528ZM1717.12 1394.4l-.448 10.651 8.537.359-.357 8.489-8.537-.359-.91 21.622c-.068 1.602.238 2.765.916 3.488.679.724 2.018 1.128 4.017 1.212 1.477.063 2.788.024 3.934-.115l-.369 8.769c-2.644.584-5.35.818-8.119.702-9.352-.394-13.948-4.692-13.788-12.895l.983-23.345-7.291-.306.357-8.489 7.291.307.448-10.652 13.336.562ZM1753.76 1450.82c-7.322-.308-13.2-2.508-17.636-6.599-4.435-4.091-6.516-9.38-6.243-15.866l.047-1.122c.184-4.351 1.316-8.201 3.399-11.549 2.082-3.349 4.939-5.876 8.57-7.582 3.632-1.706 7.724-2.463 12.277-2.271 6.829.287 12.127 2.382 15.892 6.284 3.765 3.903 5.503 9.284 5.214 16.144l-.199 4.725-31.794-1.338c.312 2.848 1.516 5.172 3.613 6.972 2.097 1.799 4.807 2.769 8.129 2.909 5.138.216 9.22-1.23 12.248-4.338l6.285 6.642c-2.103 2.372-4.891 4.173-8.364 5.404-3.472 1.231-7.285 1.76-11.438 1.585Zm-.025-35.661c-2.646-.112-4.824.575-6.535 2.061-1.712 1.486-2.859 3.668-3.442 6.544l18.55.781.039-.926c.047-2.576-.669-4.601-2.148-6.073-1.479-1.473-3.634-2.268-6.464-2.387ZM1796 1408.39l.205 5.023c3.731-3.721 8.596-5.455 14.595-5.203 5.292.223 9.173 1.737 11.643 4.542 2.471 2.805 3.624 6.891 3.46 12.259l-1.178 27.99-13.336-.562 1.166-27.709c.103-2.455-.437-4.263-1.621-5.423-1.184-1.159-3.206-1.799-6.067-1.92-3.753-.158-6.627 1.112-8.62 3.809l-1.286 30.552-13.336-.561 1.823-43.325 12.552.528ZM1863.76 1454.65c-.571-1.066-.963-2.38-1.175-3.94-3.361 2.987-7.626 4.372-12.795 4.155-4.891-.206-8.892-1.604-12.004-4.196-3.111-2.591-4.588-5.755-4.431-9.492.193-4.592 2.303-8.033 6.328-10.324 4.026-2.291 9.746-3.293 17.162-3.008l6.137.258.104-2.482c.085-2.002-.44-3.629-1.574-4.88-1.134-1.251-2.977-1.931-5.531-2.038-2.246-.094-4.026.299-5.342 1.179-1.316.881-2.009 2.135-2.077 3.764l-13.336-.562c.105-2.509 1.095-4.794 2.969-6.854 1.875-2.061 4.468-3.63 7.78-4.707 3.312-1.077 6.998-1.531 11.059-1.36 6.153.259 10.98 1.806 14.482 4.641 3.502 2.835 5.15 6.682 4.946 11.54l-.79 18.78c-.143 4.112.388 7.25 1.591 9.413l-.028.681-13.475-.568Zm-10.69-8.512c1.969.083 3.8-.221 5.493-.912 1.693-.691 2.967-1.66 3.821-2.908l.313-7.448-4.984-.209c-6.675-.281-10.313 1.571-10.912 5.557l-.075.679c-.06 1.442.474 2.654 1.604 3.638 1.13.983 2.71 1.518 4.74 1.603ZM1899.59 1412.75l.204 5.023c3.732-3.72 8.597-5.454 14.596-5.202 5.291.223 9.172 1.736 11.643 4.541 2.47 2.805 3.624 6.892 3.459 12.26l-1.177 27.989-13.336-.561 1.166-27.709c.103-2.456-.437-4.264-1.621-5.423-1.184-1.16-3.207-1.8-6.068-1.92-3.753-.158-6.626 1.111-8.62 3.809l-1.285 30.552-13.336-.562 1.823-43.325 12.552.528ZM1959.55 1450.13c2.461.104 4.485-.399 6.073-1.509 1.587-1.11 2.453-2.638 2.597-4.584l12.505.526c-.154 2.935-1.19 5.586-3.108 7.952-1.918 2.366-4.482 4.157-7.692 5.373-3.21 1.215-6.722 1.742-10.537 1.582-7.137-.3-12.684-2.506-16.641-6.617-3.956-4.111-5.789-9.637-5.497-16.577l.032-.761c.281-6.674 2.551-11.913 6.81-15.719 4.259-3.805 9.957-5.557 17.094-5.257 6.245.263 11.187 2.015 14.826 5.257 3.639 3.242 5.381 7.427 5.227 12.555l-12.505-.527c.033-2.256-.69-4.121-2.169-5.595-1.479-1.474-3.479-2.264-6.002-2.37-3.107-.131-5.494.753-7.161 2.651-1.667 1.899-2.594 5.053-2.779 9.465l-.051 1.203c-.188 4.465.462 7.706 1.948 9.724 1.487 2.018 3.83 3.094 7.03 3.228ZM2010.65 1461.63c-7.322-.308-13.201-2.507-17.636-6.598-4.435-4.091-6.516-9.38-6.243-15.867l.047-1.121c.183-4.351 1.316-8.201 3.398-11.55 2.083-3.349 4.94-5.876 8.571-7.582 3.631-1.705 7.723-2.462 12.276-2.271 6.83.288 12.127 2.382 15.892 6.285 3.765 3.902 5.504 9.283 5.215 16.144l-.199 4.725-31.794-1.338c.312 2.848 1.516 5.171 3.613 6.971 2.097 1.8 4.806 2.77 8.129 2.909 5.137.217 9.22-1.229 12.248-4.338l6.284 6.643c-2.103 2.371-4.89 4.173-8.363 5.404-3.473 1.231-7.285 1.759-11.438 1.584Zm-.025-35.661c-2.646-.111-4.824.576-6.536 2.062-1.711 1.486-2.858 3.667-3.442 6.544l18.551.78.039-.925c.047-2.577-.67-4.601-2.148-6.074-1.479-1.472-3.634-2.268-6.464-2.387Z" class="colorffffff svgShape"></path><path fill="#7db7f1" d="M1664.72 1138.74c-2.865-20.719.641-119.466 30.371-131.015l172.41 58.729c-4.374.972-20.351 37.864-15.908 66.57 7.782 50.291-7.114 73.116-33.197 69.918-13.235-1.623-24.863-11.254-30.274-27.536l-.987-.105c-5.398 16.34-16.947 27.641-30.31 27.641-15.117 0-27.912-14.463-32.107-34.32l-.019-.002c-6.146 11.31-15.698 18.582-26.417 18.582-12.498 0-23.409-9.885-29.185-24.531 0 0-3.209-15.492-4.377-23.931Z" class="coloref7df1 svgShape"></path><path fill="#0035fb" d="M1851.69 1106.02s84.156-168.981 93.066-222.736c15.563-93.895-54.698-181.782-145.48-76.593-50.698 58.745-125.236 229.408-125.236 229.408l177.65 69.921Z" class="colorfba800 svgShape"></path><path d="M1762.1 855.738c-44.387 73.774-90.48 179.302-90.48 179.302a2.646 2.646 0 1 0 4.849 2.118s45.93-105.17 90.165-178.692a2.646 2.646 0 0 0-4.534-2.728ZM1854.06 1107.2s49.372-99.141 76.536-169.79a2.647 2.647 0 0 0-4.94-1.899c-27.09 70.458-76.332 169.33-76.332 169.33a2.645 2.645 0 1 0 4.736 2.359Z" fill="#000000" class="color000000 svgShape"></path><path fill="#0575e6" d="M478.854 1747.33c-.538-2.792-4.757-25.092-6.856-49.53-10.817-125.933-16.484-435.087-7.516-644.008 3.327-77.481 8.595-141.031 16.494-175.849 1.512-6.667 3.088-12.166 4.813-16.346.481-1.168 1.231-2.548 1.722-3.414 2.058-.44 6.696-1.373 10.904-1.803 21.302-2.178 59.995-2.362 110.426-1.178 292.421 6.864 973.778 60.629 973.778 60.629 7.527.593 14.111-5.027 14.705-12.555.594-7.527-5.027-14.111-12.554-14.704 0 0-682.414-53.832-975.287-60.706-51.995-1.221-91.887-.934-113.85 1.312-12.935 1.323-21.092 4.173-24.345 6.568-3.113 2.293-6.425 6.17-9.254 12.011-2.744 5.667-5.377 13.789-7.724 24.136-8.119 35.788-13.727 101.089-17.146 180.726-9.018 210.061-3.285 520.901 7.59 647.521 1.975 22.987 4.17 40.114 6.419 49.811 1.565 6.745 3.697 11.07 5.321 13.178 13.948 18.114 33.557 27.678 59.195 32.126 33.354 5.788 77.976 2.662 133.47 3.131 7.551.063 13.723-6.006 13.787-13.556.064-7.551-6.005-13.723-13.556-13.787-45.063-.381-82.771 1.814-112.897-.721-25.424-2.139-44.952-7.24-57.639-22.992Z" class="color0578d0 svgShape"></path><ellipse cx="1254.47" cy="832.862" fill="#021b79" rx="144.776" ry="129.29" class="color010190 svgShape"></ellipse><path fill="#ffffff" d="m1318.26 816.057-60.862 37.387-5.414-98.356a6.508 6.508 0 1 0-12.997.715l6.015 109.26a6.508 6.508 0 0 0 9.905 5.187l70.166-43.102a6.508 6.508 0 1 0-6.813-11.091Z" class="colorffffff svgShape"></path><path fill="#021b79" d="M401.523 1283.73c-136.657-31.897-166.787 118.365 0 117.222h127.063c117.423-27.178 121.858-65.654 18.482-114.912-58.791-96.321-105.681-82.64-145.545-2.31ZM95.801 2291.96h2808.4v150.471H95.801z" class="color010190 svgShape"></path><path fill="#0575e6" d="M106.842 2239.15h524.826v57.731H106.842z" class="color0578d0 svgShape"></path><path fill="#0575e6" d="M562.832 2247.3H171.306l150.174-298.265h91.178L562.832 2247.3Z" class="color0578d0 svgShape"></path><path fill="#0035fb" d="m541.219 2204.38 21.613 42.926H171.306l21.613-42.926h348.3Zm-29.067-57.731H221.986l31.925-63.406h226.316l31.925 63.406Zm-60.992-121.137H282.978l38.502-76.471h91.178l38.502 76.471Z" class="colorfba800 svgShape"></path></svg>