<svg xmlns="http://www.w3.org/2000/svg" enable-background="new 0 0 1364 960" viewBox="0 0 1364 960" id="WelcomeBoard"><path fill="#ffcdc4" d="M196.126 648.163c-2.718.492-5.44-.706-6.892-2.641-1.451-1.935-1.75-4.483-1.282-6.905.469-2.422 1.648-4.746 2.985-6.965 2.211-3.672 5.005-7.244 8.674-9.823-6.562-.373-13.205-.289-19.853.246-.605.049-1.209.107-1.814.163.34 4.159.68 8.317 1.019 12.475.227 2.774.444 5.63-.523 8.373-.967 2.743-3.413 5.383-6.557 5.952-2.718.492-5.44-.706-6.892-2.642-1.451-1.935-1.75-4.483-1.282-6.905.469-2.422 1.648-4.746 2.985-6.965 2.28-3.788 5.18-7.47 9.022-10.065-7.376.794-14.73 2.133-21.962 4.003.161 4.239.321 8.479.481 12.718.105 2.79.197 5.661-.885 8.379-1.082 2.718-3.632 5.281-6.787 5.744-2.728.4-5.387-.895-6.748-2.885-1.361-1.99-1.549-4.555-.977-6.968.572-2.412 1.847-4.702 3.274-6.882 2.284-3.489 5.106-6.868 8.697-9.313-5.206 1.457-10.342 3.183-15.367 5.185-1.487.593-2.96 1.217-4.425 1.857.002 4.378.005 8.755.007 13.133.002 2.799-.013 5.681-1.193 8.373-1.179 2.692-3.815 5.187-6.977 5.559-2.733.321-5.335-1.055-6.617-3.09-1.283-2.035-1.375-4.612-.715-7.013.659-2.402 2.015-4.66 3.518-6.802 2.147-3.062 4.719-6.02 7.855-8.289-4.896 2.322-9.65 4.91-14.228 7.75-2.292 3.936-4.585 7.873-6.878 11.809-1.504 2.583-3.067 5.235-5.501 7.219-2.435 1.984-5.981 3.166-8.826 2.167-2.459-.864-3.895-3.237-3.873-5.659.021-2.422 1.332-4.838 3.175-6.774 1.844-1.936 4.192-3.444 6.601-4.783 4.44-2.468 9.379-4.482 14.389-4.741.014-.01.025-.021.041-.031 4.867-3.031 9.936-5.776 15.158-8.223-4.057.564-8.211.126-12.104-.705-2.596-.554-5.167-1.29-7.33-2.598-2.164-1.307-3.904-3.245-4.396-5.586-.492-2.341.438-5.086 2.653-6.683 2.563-1.847 6.232-1.797 8.978-.626 2.746 1.171 4.777 3.259 6.738 5.299 2.987 3.106 5.974 6.213 8.961 9.319 6.473-2.833 13.159-5.215 19.972-7.125-4.231-.242-8.262-1.646-11.897-3.422-2.301-1.124-4.527-2.423-6.208-4.197-1.681-1.774-2.784-4.081-2.592-6.51.191-2.429 1.841-4.944 4.386-6.036 2.943-1.264 6.4-.401 8.67 1.367 2.27 1.769 3.606 4.288 4.89 6.744 1.954 3.739 3.908 7.477 5.862 11.216.215-.055.43-.115.646-.17 7.073-1.791 14.254-3.077 21.453-3.855-4.608-.811-8.645-3.155-12.098-5.871-1.954-1.537-3.796-3.234-5.004-5.308-1.209-2.074-1.74-4.574-1.001-6.963.74-2.389 2.901-4.6 5.596-5.23 3.117-.729 6.242.756 8.019 2.93 1.776 2.174 2.483 4.929 3.154 7.611 1.055 4.214 2.11 8.429 3.165 12.643.1-.01.201-.018.302-.027l.076-.111c.003.035.005.069.009.103 7.008-.654 14.023-.819 20.964-.478-3.336-2.149-5.86-5.255-7.85-8.521-1.274-2.092-2.385-4.311-2.767-6.724-.382-2.413.026-5.056 1.584-7.223 1.558-2.168 4.384-3.75 7.138-3.604 3.186.168 5.576 2.544 6.453 5.219.877 2.676.542 5.622.2 8.487-.486 4.068-.972 8.136-1.458 12.204.01.122.02.244.03.366 7.613.557 15.1 1.734 22.343 3.54.765.19.468 1.321-.307 1.127-7.121-1.775-14.471-2.939-21.941-3.505.322 3.945.645 7.89.967 11.835.227 2.774.443 5.63-.523 8.374C201.716 644.955 199.27 647.594 196.126 648.163zM222.053 423.805c-1.321-3.16.987-6.927 4.152-8.218 3.165-1.292 6.799-.675 10.046.43 5.253 1.787 9.651 4.532 14.119 7.603-2.661-4.404-5.162-8.904-7.514-13.467-1.555-3.018-3.044-6.072-4.468-9.159-7.128 2.922-15.139 3.666-22.679 2.081-2.858-.601-5.976-1.815-7.095-4.513-1.308-3.152 1-6.918 4.156-8.216 3.156-1.297 6.774-.69 10.005.404 5.426 1.838 9.932 4.71 14.551 7.905-4.279-9.561-7.888-19.429-10.613-29.536-7.406 1.663-15.303 1.108-22.391-1.613-2.727-1.046-5.613-2.739-6.291-5.58-.791-3.319 2.085-6.672 5.407-7.452 3.321-.781 6.797.392 9.814 1.985 4.889 2.582 8.779 5.978 12.689 9.706-2.705-10.699-4.53-22.043-3.109-33.02.029-.228.069-.456.101-.684-7.648.647-15.484-1.03-22.185-4.776-2.549-1.425-5.165-3.513-5.43-6.421-.309-3.398 3.016-6.306 6.415-6.604 3.399-.298 6.671 1.358 9.43 3.366 4.861 3.537 8.416 7.86 12.049 12.539 1.987-12.634 6.312-24.956 7.861-37.639-7.772.739-15.762-.926-22.578-4.737-2.549-1.425-5.165-3.512-5.429-6.421-.309-3.398 3.016-6.306 6.415-6.604 3.399-.298 6.671 1.358 9.43 3.366 4.992 3.633 8.606 8.093 12.342 12.917.331-3.176.478-6.376.354-9.611-.251-6.551-1.903-12.985-4.584-19.027-7.449 2.886-15.798 3.403-23.541 1.432-2.83-.721-5.895-2.064-6.9-4.807-1.174-3.203 1.29-6.87 4.497-8.034 3.207-1.163 6.797-.405 9.979.824 5.837 2.255 10.525 5.694 15.449 9.452-4.529-9.66-11.682-18.248-19.955-24.593-7.027 1.775-14.555 1.553-21.454-.679-2.779-.899-5.752-2.435-6.58-5.235-.968-3.272 1.725-6.774 4.999-7.732 3.275-.957 6.809.028 9.907 1.457 4.942 2.28 8.96 5.401 12.999 8.849.195.033.394.11.589.253 7.162 5.242 13.212 11.939 17.933 19.442 1.041 1.655 2.027 3.355 2.949 5.092-.709-7.015.513-14.224 3.544-20.592 1.255-2.637 3.168-5.384 6.053-5.838 3.371-.531 6.49 2.597 7.009 5.969.52 3.372-.919 6.746-2.742 9.631-3.4 5.379-7.773 9.357-12.507 13.535 1.772 3.727 3.196 7.615 4.045 11.648 1.286 6.108 1.344 12.207.73 18.279 2.534-6.817 7.01-12.908 12.791-17.325 2.32-1.773 5.276-3.344 8.05-2.432 3.241 1.066 4.589 5.273 3.512 8.511-1.076 3.238-3.897 5.582-6.835 7.317-5.631 3.323-11.5 4.861-17.809 6.463-1.303 9.984-4.233 19.885-6.348 29.618-.666 3.064-1.24 6.124-1.647 9.199 2.374-7.532 7.102-14.308 13.371-19.111 2.318-1.776 5.271-3.351 8.046-2.443 3.243 1.062 4.596 5.267 3.524 8.506-1.072 3.239-3.889 5.588-6.826 7.326-5.755 3.406-11.761 4.945-18.232 6.596-.398 3.283-.587 6.586-.453 9.936.245 6.128 1.187 12.221 2.493 18.207.347 1.592.725 3.177 1.123 4.758 1.493-7.004 4.95-13.588 9.905-18.763 2.02-2.109 4.697-4.117 7.579-3.642 3.367.554 5.347 4.503 4.782 7.868-.565 3.365-2.99 6.117-5.627 8.283-4.871 4.002-10.216 6.398-15.959 8.855 2.663 9.874 6.263 19.515 10.455 28.842-.285-7.469 1.623-15.015 5.467-21.428 1.502-2.505 3.668-5.056 6.583-5.232 3.406-.206 6.212 3.206 6.407 6.612.196 3.406-1.559 6.627-3.65 9.324-3.967 5.117-8.798 8.694-14.011 12.472.566 1.232 1.138 2.461 1.723 3.681 3.211 6.7 6.737 13.279 10.616 19.641-.167-7.278 1.743-14.6 5.488-20.847 1.502-2.505 3.668-5.056 6.583-5.233 3.406-.206 6.212 3.206 6.407 6.612.195 3.406-1.56 6.627-3.65 9.324-3.858 4.977-8.532 8.496-13.581 12.161 4.509 7.199 9.485 14.101 14.993 20.553 1.147 1.344-1.016 3.031-2.161 1.69-5.563-6.515-10.573-13.496-15.121-20.768-7.164 2.928-15.228 3.662-22.823 2.05C226.318 427.734 223.184 426.51 222.053 423.805z" class="colorffc4ec svgShape"></path><path fill="#ffc0b5" d="M154.703,580.946c16.07-1.957,40.656-25.524,56.235-20.5c-1.37,18.945-28.176,12.358-41.108,20.248
	c-11.3,8.703,26.249,25.572,46.3,19.011c16.589-4.686,16.174-26.756,39.86-53.054c19.924-22.767,29.651-21.001,35.018-36.427
	c9.813-28.227-12.819-62.544-16.506-61.543c-1.489,0.405,0.793,6.331-1.187,19.689c0.846,1.371-13.226,52.246-21.823,31.915
	c-3.415-23.669,24.928-32.746,15.402-61.143c-7.151-21.289-38.403-29.209-39.681-27.161c14.774,7.973,13.747,51.184,2.493,65.616
	c-7.463,8.098-9.207-0.904-7.991-10.806c-0.317-33.103,1.812-50.571-17.456-69.041c-23.619-22.641-52.588-2.156-89.26-5.665
	c0,0-19.812,40.611-8.979,68.943c10.426,27.266,39.393,12.001,56.252,22.356c7.737,3.769,6.979,14.786,0.542,18.494
	c-9.882,8.424-26.656,4.93-38.725,2.277c-19.993-4.405-25.898-10.498-29.116-7.431c-8.79,7.834,14.965,42.309,33.279,40.77
	c20.68,7.276,53.703-22.117,72.515-7.265c-3.938,16.923-50.906,24.429-69.261,20.841c-9.444-2.99-14.783-9.015-16.084-7.777
	C117.459,553.803,140.151,581.734,154.703,580.946z" class="colorbeb5ff svgShape"></path><path fill="#ffffff" d="M191.072,587.208c5.007,0.692,10.128,0.126,14.879-1.584c4.613-1.655,8.648-4.419,12.106-7.86
	c3.784-3.781,6.881-8.148,10.087-12.411c3.481-4.61,7.203-9.05,11.207-13.218c1.812-1.877,3.624-3.812,5.634-5.478
	c1.674-1.389,3.696-2.601,5.959-2.231c0.025,0.004,0.038-0.014,0.064-0.01c0.284,0.286,0.582,0.555,0.86,0.85
	c0.938,0.975,1.856,1.979,2.732,3.022c0.112-0.157,0.237-0.293,0.367-0.436c-1.601-1.867-3.312-3.659-5.118-5.336
	c-0.003-0.016-0.005-0.032-0.015-0.039c-0.559-0.901-0.936-1.937-1.207-2.968c-0.26-0.967-0.496-2.085-0.214-3.07
	c0.431-1.466,1.424-2.782,2.339-3.987c0.924-1.198,1.883-2.386,2.861-3.545c6.889-8.158,14.913-15.422,20.736-24.437
	c4.78-7.412,8.13-16.109,7.232-25.056c-0.035-0.36-0.6-0.274-0.562,0.103c0.516,5.212-0.442,10.434-2.322,15.306
	c-3.682,9.535-10.531,17.246-17.371,24.671c-3.793,4.109-7.634,8.185-11.037,12.628c-1.249,1.636-2.713,3.553-2.537,5.716
	c0.088,1.208,0.431,2.471,0.934,3.626c-5.195-4.582-11.069-8.307-16.894-12.025c-0.266-0.176-0.548-0.349-0.813-0.523
	c0,0,0,0-0.002-0.016c-2.366-4.477-3.197-9.579-2.974-14.613c0.446-10.264,5.324-19.323,10.424-27.988
	c1.395-2.37,2.807-4.742,4.166-7.139c1.278-2.244,2.557-4.529,3.512-6.948c1.608-4.117,2.181-8.957-0.117-12.94
	c-0.182-0.312-0.707-0.085-0.515,0.233c2.895,5.009,1.081,10.905-1.36,15.699c-4.858,9.521-11.529,18.197-14.78,28.499
	c-2.496,7.91-2.93,17.023,0.734,24.632c-5.453-3.495-10.883-7.099-15.644-11.525c-2.599-2.425-4.914-5.093-7.034-7.917
	c-0.012-0.022-0.008-0.047-0.029-0.077c-0.028-0.02-0.049-0.049-0.086-0.075c-1.914-2.564-3.675-5.243-5.341-7.98
	c-2.77-4.556-5.324-9.238-8.042-13.827c-0.834-5.55-0.247-11.232,0.697-16.73c1.686-9.868,5.151-19.628,4.568-29.76
	c-0.527-9.017-5.218-18.851-14.39-21.729c-0.353-0.112-0.549,0.419-0.196,0.531c5.102,1.597,8.948,5.622,11.274,10.351
	c4.495,9.15,2.714,19.621,0.581,29.157c-1.967,8.775-4.287,17.927-3.256,26.981c-0.351-0.585-0.696-1.18-1.056-1.771
	c-3.608-5.81-7.762-11.185-12.543-16.072c-9.799-10.012-21.448-17.937-32.997-25.748c-0.296-0.211-0.626,0.252-0.33,0.463
	c1.415,0.952,2.83,1.905,4.239,2.867c11.092,7.57,22.158,15.51,31.212,25.509c-3.252-1.647-7.127-1.812-10.695-1.996
	c-4.472-0.227-9.66-0.686-12.652-4.479c-0.228-0.288-0.664,0.07-0.437,0.358c2.797,3.557,7.58,4.369,11.837,4.624
	c4.43,0.268,9.386,0.17,13.141,2.873c0.018,0.013,0.031-0.005,0.05,0.008c0,0,0,0,0.01,0.007
	c4.437,5.117,8.098,10.754,11.499,16.598c3.254,5.6,6.322,11.304,9.941,16.688c0.346,0.512,0.709,1.022,1.063,1.526
	c-4.24-3.022-9.892-3.671-15-3.026c-5.907,0.747-11.362,3.406-16.675,5.945c-5.275,2.523-10.609,4.739-16.277,6.171
	c-10.919,2.745-22.431,2.974-33.443,0.64c-0.357-0.086-0.407,0.492-0.053,0.563c6.002,1.275,12.153,1.792,18.283,1.553
	c5.499-0.213,10.969-1.033,16.291-2.448c5.491-1.475,10.648-3.678,15.765-6.118c5.335-2.55,10.821-5.174,16.778-5.815
	c5.501-0.589,11.697,0.392,15.748,4.465c3.12,4.122,6.65,7.866,10.69,11.15c5.555,4.488,11.692,8.179,17.679,12.04
	c0.513,0.338,1.017,0.669,1.521,1c-3.898-0.446-7.911,0.268-11.581,1.617c-3.947,1.445-7.524,3.741-11.039,6.009
	c-3.638,2.363-7.293,4.672-11.16,6.65c-7.498,3.842-15.482,6.682-23.714,8.438c-0.362,0.077-0.266,0.648,0.086,0.564
	c4.516-0.97,8.972-2.247,13.293-3.844c3.884-1.435,7.678-3.115,11.334-5.032c3.752-1.975,7.299-4.249,10.85-6.549
	c3.561-2.292,7.203-4.583,11.236-5.952c3.74-1.272,7.812-1.873,11.734-1.187c0.016-0.002,0.013-0.019,0.023-0.012
	c4.441,2.956,8.737,6.115,12.574,9.799c-2.022-0.101-3.883,0.904-5.442,2.152c-2.296,1.812-4.321,4.026-6.339,6.134
	c-3.894,4.093-7.531,8.412-10.929,12.928c-3.272,4.356-6.43,8.847-10.347,12.659c-3.559,3.466-7.713,6.16-12.433,7.71
	c-4.427,1.452-9.163,1.888-13.777,1.252C190.766,586.599,190.714,587.162,191.072,587.208z" class="colorffffff svgShape"></path><path fill="#ffc4ba" d="M166.793 367.581c-4.697-22.602-24.41-36.391-41.079-36.116-7.502.124-17.981 4.827-16.678 15.214C111.616 367.255 139.007 351.846 166.793 367.581zM185.613 352.407c6.616-12.194 2.884-26.21-4.908-32.591-3.507-2.872-10.165-4.806-13.6.464C160.3 330.72 178.915 334.348 185.613 352.407zM98.486 582.092c-9.916-9.745-24.37-10.008-32.591-4.249-3.701 2.592-7.351 8.483-3.221 13.25C70.855 600.536 79.354 583.576 98.486 582.092z" class="colorffbaea svgShape"></path><circle cx="95.873" cy="274.02" r="4.394" fill="#ffc0b5" transform="rotate(-8.366 95.841 273.944)" class="colorc6b5ff svgShape"></circle><path fill="#ffc0b5" d="M216.29 174.691c.736-2.313-.542-4.784-2.855-5.52-2.313-.736-4.784.542-5.52 2.855-.736 2.313.542 4.784 2.855 5.52C213.083 178.282 215.554 177.003 216.29 174.691zM76.133 475.029c.736-2.313-.542-4.784-2.855-5.52-2.313-.736-4.784.542-5.52 2.855-.736 2.313.542 4.784 2.855 5.52C72.926 478.62 75.397 477.342 76.133 475.029zM161.443 294.898c1.215-3.818-.895-7.898-4.713-9.113-3.818-1.215-7.898.895-9.113 4.713-1.215 3.818.895 7.898 4.713 9.113C156.148 300.826 160.228 298.716 161.443 294.898zM35.09 537.402c1.215-3.818-.895-7.898-4.713-9.113-3.818-1.215-7.898.895-9.113 4.714-1.215 3.818.895 7.898 4.713 9.113C29.795 543.331 33.875 541.22 35.09 537.402zM154.186 687.151c1.215-3.818-.895-7.898-4.713-9.113s-7.898.895-9.113 4.714c-1.215 3.818.895 7.898 4.713 9.113C148.891 693.079 152.971 690.969 154.186 687.151z" class="colorc6b5ff svgShape"></path><path fill="#ffcdc4" d="M1167.874 648.163c2.718.492 5.44-.706 6.892-2.641 1.451-1.935 1.75-4.483 1.282-6.905-.469-2.422-1.649-4.746-2.984-6.965-2.211-3.672-5.005-7.244-8.674-9.823 6.562-.373 13.205-.289 19.853.246.605.049 1.209.107 1.814.163-.34 4.159-.68 8.317-1.019 12.475-.227 2.774-.444 5.63.523 8.373.967 2.743 3.413 5.383 6.557 5.952 2.718.492 5.44-.706 6.892-2.642 1.451-1.935 1.75-4.483 1.282-6.905-.469-2.422-1.648-4.746-2.984-6.965-2.28-3.788-5.18-7.47-9.022-10.065 7.376.794 14.73 2.133 21.962 4.003-.161 4.239-.321 8.479-.481 12.718-.105 2.79-.197 5.661.885 8.379 1.082 2.718 3.632 5.281 6.787 5.744 2.728.4 5.387-.895 6.748-2.885 1.361-1.99 1.549-4.555.977-6.968-.572-2.412-1.847-4.702-3.274-6.882-2.284-3.489-5.106-6.868-8.697-9.313 5.207 1.457 10.342 3.183 15.367 5.185 1.487.593 2.96 1.217 4.425 1.857-.002 4.378-.005 8.755-.007 13.133-.002 2.799.013 5.681 1.193 8.373 1.179 2.692 3.815 5.187 6.977 5.559 2.733.321 5.334-1.055 6.617-3.09 1.283-2.035 1.375-4.612.715-7.013-.659-2.402-2.015-4.66-3.518-6.802-2.147-3.062-4.719-6.02-7.855-8.289 4.896 2.322 9.65 4.91 14.228 7.75 2.292 3.936 4.585 7.873 6.878 11.809 1.504 2.583 3.067 5.235 5.501 7.219 2.435 1.984 5.981 3.166 8.826 2.167 2.459-.864 3.894-3.237 3.873-5.659-.021-2.422-1.332-4.838-3.175-6.774-1.844-1.936-4.192-3.444-6.601-4.783-4.44-2.468-9.379-4.482-14.389-4.741-.015-.01-.026-.021-.041-.031-4.867-3.031-9.936-5.776-15.158-8.223 4.057.564 8.211.126 12.104-.705 2.596-.554 5.167-1.29 7.33-2.598 2.164-1.307 3.904-3.245 4.396-5.586.492-2.341-.438-5.086-2.653-6.683-2.563-1.847-6.232-1.797-8.978-.626-2.746 1.171-4.777 3.259-6.738 5.299-2.987 3.106-5.974 6.213-8.961 9.319-6.473-2.833-13.159-5.215-19.972-7.125 4.23-.242 8.262-1.646 11.897-3.422 2.301-1.124 4.527-2.423 6.208-4.197 1.681-1.774 2.783-4.081 2.592-6.51-.191-2.429-1.841-4.944-4.386-6.036-2.943-1.264-6.4-.401-8.67 1.367-2.27 1.769-3.606 4.288-4.89 6.744-1.954 3.739-3.908 7.477-5.862 11.216-.215-.055-.43-.115-.646-.17-7.073-1.791-14.254-3.077-21.453-3.855 4.609-.811 8.645-3.155 12.098-5.871 1.954-1.537 3.796-3.234 5.005-5.308 1.209-2.074 1.74-4.574 1.001-6.963-.74-2.389-2.901-4.6-5.596-5.23-3.117-.729-6.242.756-8.019 2.93-1.776 2.174-2.483 4.929-3.155 7.611-1.055 4.214-2.11 8.429-3.165 12.643-.1-.01-.201-.018-.302-.027l-.076-.111c-.003.035-.005.069-.009.103-7.008-.654-14.023-.819-20.964-.478 3.336-2.149 5.86-5.255 7.85-8.521 1.274-2.092 2.385-4.311 2.767-6.724.382-2.413-.026-5.056-1.584-7.223-1.558-2.168-4.384-3.75-7.138-3.604-3.186.168-5.577 2.544-6.453 5.219-.877 2.676-.542 5.622-.2 8.487.486 4.068.972 8.136 1.458 12.204-.01.122-.02.244-.03.366-7.613.557-15.1 1.734-22.343 3.54-.765.19-.468 1.321.307 1.127 7.121-1.775 14.471-2.939 21.941-3.505-.323 3.945-.645 7.89-.967 11.835-.227 2.774-.443 5.63.523 8.374C1162.284 644.955 1164.73 647.594 1167.874 648.163zM1141.947 423.805c1.321-3.16-.987-6.927-4.151-8.218-3.165-1.292-6.799-.675-10.046.43-5.253 1.787-9.651 4.532-14.119 7.603 2.661-4.404 5.162-8.904 7.514-13.467 1.555-3.018 3.044-6.072 4.468-9.159 7.128 2.922 15.139 3.666 22.679 2.081 2.858-.601 5.976-1.815 7.095-4.513 1.308-3.152-1-6.918-4.156-8.216-3.156-1.297-6.774-.69-10.005.404-5.426 1.838-9.932 4.71-14.551 7.905 4.279-9.561 7.888-19.429 10.613-29.536 7.406 1.663 15.302 1.108 22.391-1.613 2.727-1.046 5.613-2.739 6.291-5.58.791-3.319-2.085-6.672-5.406-7.452-3.321-.781-6.797.392-9.814 1.985-4.889 2.582-8.779 5.978-12.689 9.706 2.705-10.699 4.53-22.043 3.109-33.02-.029-.228-.069-.456-.1-.684 7.648.647 15.484-1.03 22.185-4.776 2.55-1.425 5.165-3.513 5.43-6.421.309-3.398-3.016-6.306-6.415-6.604-3.399-.298-6.671 1.358-9.43 3.366-4.861 3.537-8.416 7.86-12.049 12.539-1.987-12.634-6.312-24.956-7.861-37.639 7.772.739 15.762-.926 22.578-4.737 2.549-1.425 5.165-3.512 5.429-6.421.309-3.398-3.016-6.306-6.415-6.604s-6.671 1.358-9.43 3.366c-4.992 3.633-8.606 8.093-12.342 12.917-.331-3.176-.478-6.376-.354-9.611.251-6.551 1.903-12.985 4.584-19.027 7.449 2.886 15.798 3.403 23.541 1.432 2.83-.721 5.895-2.064 6.9-4.807 1.174-3.203-1.29-6.87-4.497-8.034-3.207-1.163-6.797-.405-9.979.824-5.837 2.255-10.525 5.694-15.448 9.452 4.529-9.66 11.682-18.248 19.955-24.593 7.027 1.775 14.555 1.553 21.453-.679 2.779-.899 5.752-2.435 6.58-5.235.968-3.272-1.725-6.774-4.999-7.732-3.275-.957-6.809.028-9.907 1.457-4.942 2.28-8.96 5.401-12.999 8.849-.195.033-.394.11-.589.253-7.162 5.242-13.212 11.939-17.933 19.442-1.041 1.655-2.027 3.355-2.949 5.092.709-7.015-.513-14.224-3.544-20.592-1.255-2.637-3.168-5.384-6.052-5.838-3.371-.531-6.49 2.597-7.01 5.969-.52 3.372.919 6.746 2.742 9.631 3.401 5.379 7.773 9.357 12.507 13.535-1.772 3.727-3.196 7.615-4.045 11.648-1.286 6.108-1.344 12.207-.73 18.279-2.534-6.817-7.01-12.908-12.791-17.325-2.32-1.773-5.276-3.344-8.05-2.432-3.241 1.066-4.589 5.273-3.512 8.511 1.076 3.238 3.897 5.582 6.835 7.317 5.631 3.323 11.5 4.861 17.809 6.463 1.303 9.984 4.233 19.885 6.348 29.618.666 3.064 1.24 6.124 1.647 9.199-2.374-7.532-7.102-14.308-13.371-19.111-2.318-1.776-5.271-3.351-8.047-2.443-3.243 1.062-4.596 5.267-3.524 8.506 1.072 3.239 3.89 5.588 6.826 7.326 5.755 3.406 11.76 4.945 18.232 6.596.397 3.283.587 6.586.453 9.936-.245 6.128-1.187 12.221-2.493 18.207-.347 1.592-.725 3.177-1.123 4.758-1.493-7.004-4.95-13.588-9.905-18.763-2.02-2.109-4.697-4.117-7.579-3.642-3.367.554-5.347 4.503-4.782 7.868.565 3.365 2.99 6.117 5.627 8.283 4.871 4.002 10.216 6.398 15.959 8.855-2.663 9.874-6.263 19.515-10.455 28.842.285-7.469-1.623-15.015-5.467-21.428-1.502-2.505-3.668-5.056-6.583-5.232-3.406-.206-6.212 3.206-6.407 6.612-.196 3.406 1.559 6.627 3.65 9.324 3.967 5.117 8.798 8.694 14.011 12.472-.566 1.232-1.138 2.461-1.723 3.681-3.21 6.7-6.737 13.279-10.616 19.641.167-7.278-1.744-14.6-5.488-20.847-1.502-2.505-3.668-5.056-6.583-5.233-3.406-.206-6.212 3.206-6.407 6.612-.195 3.406 1.56 6.627 3.65 9.324 3.858 4.977 8.532 8.496 13.581 12.161-4.509 7.199-9.485 14.101-14.993 20.553-1.147 1.344 1.016 3.031 2.161 1.69 5.563-6.515 10.573-13.496 15.121-20.768 7.164 2.928 15.228 3.662 22.823 2.05C1137.682 427.734 1140.816 426.51 1141.947 423.805z" class="colorffc4ec svgShape"></path><path fill="#ffc0b5" d="M1209.297,580.946c-16.07-1.957-40.656-25.524-56.235-20.5c1.37,18.945,28.176,12.358,41.108,20.248
	c11.3,8.703-26.249,25.572-46.3,19.011c-16.589-4.686-16.174-26.756-39.86-53.054c-19.924-22.767-29.651-21.001-35.018-36.427
	c-9.813-28.227,12.819-62.544,16.506-61.543c1.489,0.405-0.793,6.331,1.187,19.689c-0.846,1.371,13.226,52.246,21.823,31.915
	c3.416-23.669-24.928-32.746-15.402-61.143c7.151-21.289,38.403-29.209,39.681-27.161c-14.774,7.973-13.747,51.184-2.493,65.616
	c7.463,8.098,9.207-0.904,7.991-10.806c0.317-33.103-1.812-50.571,17.456-69.041c23.619-22.641,52.588-2.156,89.26-5.665
	c0,0,19.812,40.611,8.979,68.943c-10.426,27.266-39.393,12.001-56.252,22.356c-7.737,3.769-6.979,14.786-0.542,18.494
	c9.882,8.424,26.656,4.93,38.725,2.277c19.993-4.405,25.898-10.498,29.116-7.431c8.79,7.834-14.965,42.309-33.279,40.77
	c-20.68,7.276-53.703-22.117-72.515-7.265c3.938,16.923,50.906,24.429,69.261,20.841c9.444-2.99,14.783-9.015,16.084-7.777
	C1246.541,553.803,1223.849,581.734,1209.297,580.946z" class="colorbeb5ff svgShape"></path><path fill="#ffffff" d="M1172.928,587.208c-5.007,0.692-10.128,0.126-14.879-1.584c-4.613-1.655-8.648-4.419-12.106-7.86
	c-3.784-3.781-6.881-8.148-10.087-12.411c-3.481-4.61-7.203-9.05-11.207-13.218c-1.812-1.877-3.624-3.812-5.634-5.478
	c-1.674-1.389-3.696-2.601-5.959-2.231c-0.025,0.004-0.038-0.014-0.064-0.01c-0.284,0.286-0.582,0.555-0.86,0.85
	c-0.938,0.975-1.856,1.979-2.732,3.022c-0.112-0.157-0.237-0.293-0.367-0.436c1.601-1.867,3.312-3.659,5.118-5.336
	c0.003-0.016,0.005-0.032,0.015-0.039c0.559-0.901,0.936-1.937,1.207-2.968c0.26-0.967,0.496-2.085,0.214-3.07
	c-0.431-1.466-1.424-2.782-2.339-3.987c-0.924-1.198-1.883-2.386-2.861-3.545c-6.889-8.158-14.913-15.422-20.736-24.437
	c-4.78-7.412-8.13-16.109-7.232-25.056c0.036-0.36,0.6-0.274,0.562,0.103c-0.516,5.212,0.442,10.434,2.322,15.306
	c3.682,9.535,10.531,17.246,17.371,24.671c3.793,4.109,7.634,8.185,11.037,12.628c1.249,1.636,2.713,3.553,2.537,5.716
	c-0.089,1.208-0.431,2.471-0.934,3.626c5.195-4.582,11.069-8.307,16.894-12.025c0.266-0.176,0.548-0.349,0.813-0.523
	c0,0,0,0,0.002-0.016c2.366-4.477,3.197-9.579,2.974-14.613c-0.446-10.264-5.324-19.323-10.424-27.988
	c-1.395-2.37-2.807-4.742-4.166-7.139c-1.278-2.244-2.557-4.529-3.512-6.948c-1.608-4.117-2.181-8.957,0.117-12.94
	c0.182-0.312,0.707-0.085,0.516,0.233c-2.895,5.009-1.081,10.905,1.359,15.699c4.858,9.521,11.529,18.197,14.78,28.499
	c2.496,7.91,2.93,17.023-0.734,24.632c5.453-3.495,10.883-7.099,15.644-11.525c2.599-2.425,4.914-5.093,7.034-7.917
	c0.012-0.022,0.008-0.047,0.029-0.077c0.028-0.02,0.049-0.049,0.086-0.075c1.914-2.564,3.675-5.243,5.341-7.98
	c2.77-4.556,5.324-9.238,8.042-13.827c0.834-5.55,0.247-11.232-0.697-16.73c-1.686-9.868-5.151-19.628-4.568-29.76
	c0.527-9.017,5.218-18.851,14.39-21.729c0.352-0.112,0.549,0.419,0.196,0.531c-5.102,1.597-8.948,5.622-11.274,10.351
	c-4.495,9.15-2.714,19.621-0.581,29.157c1.967,8.775,4.287,17.927,3.256,26.981c0.351-0.585,0.695-1.18,1.056-1.771
	c3.608-5.81,7.762-11.185,12.543-16.072c9.799-10.012,21.448-17.937,32.997-25.748c0.296-0.211,0.626,0.252,0.33,0.463
	c-1.415,0.952-2.83,1.905-4.239,2.867c-11.092,7.57-22.157,15.51-31.212,25.509c3.252-1.647,7.127-1.812,10.695-1.996
	c4.472-0.227,9.66-0.686,12.652-4.479c0.228-0.288,0.664,0.07,0.437,0.358c-2.797,3.557-7.58,4.369-11.837,4.624
	c-4.43,0.268-9.386,0.17-13.141,2.873c-0.018,0.013-0.031-0.005-0.05,0.008c0,0,0,0-0.01,0.007
	c-4.437,5.117-8.098,10.754-11.499,16.598c-3.254,5.6-6.322,11.304-9.941,16.688c-0.346,0.512-0.709,1.022-1.063,1.526
	c4.24-3.022,9.892-3.671,15-3.026c5.907,0.747,11.362,3.406,16.675,5.945c5.275,2.523,10.609,4.739,16.277,6.171
	c10.919,2.745,22.431,2.974,33.443,0.64c0.357-0.086,0.407,0.492,0.053,0.563c-6.002,1.275-12.153,1.792-18.283,1.553
	c-5.499-0.213-10.969-1.033-16.291-2.448c-5.491-1.475-10.648-3.678-15.765-6.118c-5.335-2.55-10.821-5.174-16.778-5.815
	c-5.501-0.589-11.697,0.392-15.748,4.465c-3.12,4.122-6.65,7.866-10.69,11.15c-5.555,4.488-11.692,8.179-17.679,12.04
	c-0.513,0.338-1.017,0.669-1.521,1c3.898-0.446,7.911,0.268,11.581,1.617c3.947,1.445,7.524,3.741,11.039,6.009
	c3.638,2.363,7.293,4.672,11.16,6.65c7.498,3.842,15.482,6.682,23.714,8.438c0.362,0.077,0.266,0.648-0.087,0.564
	c-4.516-0.97-8.972-2.247-13.293-3.844c-3.884-1.435-7.678-3.115-11.334-5.032c-3.752-1.975-7.299-4.249-10.85-6.549
	c-3.561-2.292-7.203-4.583-11.236-5.952c-3.74-1.272-7.813-1.873-11.734-1.187c-0.016-0.002-0.013-0.019-0.023-0.012
	c-4.441,2.956-8.737,6.115-12.574,9.799c2.022-0.101,3.883,0.904,5.442,2.152c2.296,1.812,4.321,4.026,6.339,6.134
	c3.894,4.093,7.531,8.412,10.929,12.928c3.272,4.356,6.43,8.847,10.347,12.659c3.559,3.466,7.713,6.16,12.433,7.71
	c4.427,1.452,9.163,1.888,13.777,1.252C1173.234,586.599,1173.286,587.162,1172.928,587.208z" class="colorffffff svgShape"></path><path fill="#ffc4ba" d="M1197.207 367.581c4.697-22.602 24.41-36.391 41.079-36.116 7.502.124 17.981 4.827 16.678 15.214C1252.384 367.255 1224.993 351.846 1197.207 367.581zM1178.387 352.407c-6.616-12.194-2.884-26.21 4.908-32.591 3.507-2.872 10.165-4.806 13.6.464C1203.7 330.72 1185.085 334.348 1178.387 352.407zM1265.514 582.092c9.916-9.745 24.37-10.008 32.591-4.249 3.701 2.592 7.351 8.483 3.221 13.25C1293.145 600.536 1284.646 583.576 1265.514 582.092z" class="colorffbaea svgShape"></path><path fill="#ffc0b5" d="M1263.94,275.352c-0.736-2.313,0.542-4.784,2.855-5.52c2.313-0.736,4.784,0.542,5.52,2.855
	c0.736,2.313-0.542,4.784-2.855,5.52C1267.147,278.943,1264.676,277.665,1263.94,275.352z" class="colorc6b5ff svgShape"></path><circle cx="957.834" cy="349.521" r="4.394" fill="#ffc0b5" transform="rotate(-62.651 957.86 349.53)" class="colorc6b5ff svgShape"></circle><path fill="#ffc0b5" d="M1061.963 243.468c-.736-2.313.542-4.784 2.855-5.52 2.313-.736 4.784.542 5.52 2.855.736 2.313-.542 4.784-2.855 5.52C1065.171 247.059 1062.699 245.781 1061.963 243.468zM1147.71 174.691c-.736-2.313.542-4.784 2.855-5.52 2.313-.736 4.784.542 5.52 2.855.736 2.313-.542 4.784-2.855 5.52C1150.917 178.282 1148.446 177.003 1147.71 174.691zM1287.867 475.029c-.736-2.313.542-4.784 2.855-5.52s4.784.542 5.52 2.855c.736 2.313-.542 4.784-2.855 5.52C1291.074 478.62 1288.603 477.342 1287.867 475.029zM1202.557 294.898c-1.215-3.818.896-7.898 4.714-9.113 3.818-1.215 7.898.895 9.113 4.713s-.895 7.898-4.714 9.113C1207.852 300.826 1203.772 298.716 1202.557 294.898z" class="colorc6b5ff svgShape"></path><circle cx="1070.546" cy="345.15" r="7.255" fill="#ffc0b5" transform="rotate(-62.651 1070.577 345.158)" class="colorc6b5ff svgShape"></circle><path fill="#ffc0b5" d="M1328.91 537.402c-1.215-3.818.895-7.898 4.714-9.113 3.818-1.215 7.898.895 9.113 4.714 1.215 3.818-.896 7.898-4.714 9.113C1334.205 543.331 1330.125 541.22 1328.91 537.402zM1209.814 687.151c-1.215-3.818.895-7.898 4.714-9.113s7.898.895 9.113 4.714c1.215 3.818-.895 7.898-4.714 9.113C1215.109 693.079 1211.029 690.969 1209.814 687.151z" class="colorc6b5ff svgShape"></path><path fill="#f9d2cb" d="M680.187,284.111c0,0-4.059,2.924-10.524,9.389c-19.625,19.625-69.792,63.61-88.74,62.71
	c-24.645-1.139-61.783-30.555-61.783-30.555l-4.115-85.745l78.108,62.899l65.719-30.341l11.093-5.097c0,0,6.776-9.414,18.468-13.372
	c11.753-4.017,19.427-10.853,22.126-7.555c2.758,3.297-15.111,13.011-10.793,13.911c10.853,2.159,34.478-5.216,43.471-4.017
	C755.331,257.957,716.404,288.247,680.187,284.111z" class="colorf9cbcb svgShape"></path><path fill="#a4a4a4" d="M672.405,294.834c-1.438,1.554-3.058,3.306-4.794,5.091l-2.231,2.231
	c-17.603,17.867-53.236,44.757-74.573,53.054c-4.446,1.735-8.28,2.661-11.189,2.528c-21.04-0.975-57.798-23.32-68.078-29.816v-0.016
	c-1.769-1.108-2.744-1.752-2.744-1.752l0.691-89.032c19.867,5.727,52.81,37.346,84.048,65.035l51.88-27.95l2.76-1.504l7.14-3.901
	L672.405,294.834z" class="color5f4aff svgShape"></path><polygon fill="#ffffff" points="667.608 299.93 665.388 302.149 645.42 274.207 648.179 272.707" class="colorffffff svgShape"></polygon><path fill="#848484" d="M590.808,355.21c-4.446,1.735-8.28,2.661-11.189,2.528c-21.04-0.975-57.798-23.32-68.078-29.816v-0.016
	l2.215-28.874c0,0-0.291,22.775,17.612,33.005c14.147,8.084,27.43,17.293,44.615,20.512
	C581.585,353.59,586.494,354.483,590.808,355.21z" class="color412edb svgShape"></path><polygon fill="#f9d2cb" points="421.426 829.749 424.914 853.214 341.713 853.214 387.585 828.005 389.68 429.074 454.699 425.126 423.17 811.567" class="colorf9cbcb svgShape"></polygon><path fill="#f9d2cb" d="M483.781,853.214c9.233-8.268-26.159-407.207-25.593-428.088l65.02,3.948l-2.096,398.931l45.871,25.209
	H483.781z" class="colorf9cbcb svgShape"></path><polygon fill="#5a5a5a" points="525.789 806.012 523.207 429.074 459.371 380.415 385.897 422.705 382.703 807.462 428.028 807.462 453.497 510.276 480.838 805.722" class="color333382 svgShape"></polygon><path fill="#5a5a5a" d="M553.629 833.809c-10.782-2.819-14.254-1.138-24.07-6.916-5.196-2.806-5.668-12.639-11.455-8.121-11.982 7.896-25.028-5.549-32.413-3.881 1.815-.498-20.775 42.863-2.722 43.155 25.522 2.769 54.164 2.512 79.38.865C574.638 854.65 571.654 839.468 553.629 833.809zM351.577 833.809c0-.005 0-.005 0-.005 10.795-2.806 20.955-2.914 30.773-8.689 5.196-2.806 2.872-9.086 8.659-4.567 11.988 7.895 24.288-5.59 31.676-3.922-1.815-.497 17.605 41.128-.447 41.42-25.522 2.769-54.165 2.512-79.38.865C330.569 854.65 333.551 839.468 351.577 833.809z" class="color333382 svgShape"></path><path fill="#ffffff" d="M462.045,264.882c-1.775,22.029-6.863,43.726-14.095,65.234c-9.368-32.01-15.251-61.819-12.857-94.416
	c2.283-0.964,24.453-0.166,27.286,0.188C462.949,245.601,462.814,255.266,462.045,264.882z" class="colorffffff svgShape"></path><path fill="#5a5a5a" d="M441.33,253.269c0.92,1.743,2.207,11.417,4.48,10.948c1.39-0.418,6.248,1.172,6.895-1.516
	c1.01-2.917,3.121-9.056,3.121-9.433c-0.429-0.543-5.167-9.092-7.326-10.193c-0.001,0.001-4.853-0.883-4.853-0.883
	c-2.407-0.805-3.308,7.114-4.209,8.933L441.33,253.269z" class="color333382 svgShape"></path><polygon fill="#5a5a5a" points="444.896 263.057 439.438 321.813 447.95 340.962 457.357 321.663 451.437 262.833" class="color333382 svgShape"></polygon><path fill="#424242" d="M524.918,609.053c-23.148,12.643-45.082,14.204-64.882-3.732c-6.471-37.378-9.872-75.052-9.322-113.108
	c-0.886,36.828-4.533,76.262-10.278,117.675c-20.635,12.823-44.907,6.865-70.092-3.82c0,0,20.151-83.384,25.241-165.861
	c5.657-91.195-3.312-182.621,4.086-189.111c11.116-9.436,25.484-13.116,35.421-15.396c-1.843,23.019,1.04,46.364,5.994,68.313
	c1.989,8.816,4.327,17.466,6.863,26.103c2.858-8.518,5.451-17.307,7.634-26.15c5.352-21.81,8.208-44.987,6.796-68.077
	c8.744,2.511,23.082,7.03,33.344,17.292c5.492,5.779-2.702,85.611,2.956,168.516C505.008,513.602,524.918,609.053,524.918,609.053z" class="color212163 svgShape"></path><path fill="#5a5a5a" d="M462.045,264.882l-13.647-17.785c0,0-13.439,11.768-13.439,12.242c-0.912-7.752-0.32-15.903,0.134-23.639
	c2.283-0.964,24.453-0.166,27.286,0.188C462.949,245.601,462.814,255.266,462.045,264.882z" class="color333382 svgShape"></path><path fill="#848484" d="M444.049 422.99c-2.474-2.402 1.356-6.231 3.757-3.757C450.279 421.634 446.449 425.465 444.049 422.99zM444.049 437.402c-2.474-2.402 1.356-6.233 3.757-3.758C450.279 436.045 446.449 439.874 444.049 437.402zM444.049 451.811c-2.474-2.4 1.355-6.231 3.757-3.756C450.279 450.456 446.449 454.285 444.049 451.811zM444.049 466.223c-2.474-2.4 1.355-6.232 3.757-3.757C450.279 464.867 446.449 468.696 444.049 466.223zM444.049 480.633c-2.473-2.402 1.354-6.23 3.757-3.758C450.279 479.276 446.45 483.108 444.049 480.633zM444.049 495.044c-2.474-2.402 1.355-6.23 3.757-3.758C450.279 493.688 446.45 497.516 444.049 495.044z" class="color412edb svgShape"></path><path fill="#ffffff" d="M466.321,254.509c-2.511,22.029-9.711,43.726-19.944,65.234c-13.257-32.01-21.58-61.819-18.192-94.417
	c3.231-0.963,34.6-0.166,38.61,0.19C467.6,235.228,467.41,244.893,466.321,254.509z" class="colorffffff svgShape"></path><path fill="#5a5a5a" d="M437.009,242.895c1.302,1.743,3.122,11.418,6.339,10.948c1.967-0.418,8.841,1.172,9.756-1.516
	c1.43-2.917,4.416-9.056,4.416-9.432c-0.607-0.543-7.312-9.091-10.366-10.193c-0.001,0.001-6.867-0.883-6.867-0.883
	c-3.405-0.805-4.68,7.114-5.955,8.933L437.009,242.895z" class="color333382 svgShape"></path><polygon fill="#5a5a5a" points="442.054 252.684 434.332 311.44 446.377 330.589 459.688 311.29 451.311 252.46" class="color333382 svgShape"></polygon><path fill="#a4a4a4" d="M555.289,598.681c-32.755,12.642-63.792,14.203-91.81-3.733l-13.19-113.108l-14.544,117.675
	c-29.2,12.823-63.543,6.865-99.181-3.819c0,0,28.514-83.384,35.716-165.862c8.006-91.195-4.686-182.621,5.782-189.111
	c15.73-9.436,36.061-13.116,50.123-15.397c-2.608,23.02,1.472,46.365,8.48,68.314c2.816,8.816,6.123,17.467,9.712,26.103
	c4.043-8.519,7.713-17.308,10.802-26.15c7.573-21.81,11.615-44.987,9.616-68.077c12.373,2.511,48.031,6.779,54.864,23.195
	c3.588,8.62-20.329,85.701-3.498,162.612C537.901,501.529,555.289,598.681,555.289,598.681z" class="color5f4aff svgShape"></path><path fill="#5a5a5a" d="M466.321,254.509l-19.311-17.786c0,0-19.016,11.769-19.016,12.243c-1.291-7.753-0.453-15.902,0.19-23.64
	c3.231-0.963,34.6-0.166,38.61,0.19C467.6,235.228,467.41,244.893,466.321,254.509z" class="color333382 svgShape"></path><path fill="#848484" d="M480.675,293.593l2.7,4.358c-2.463,1.847-34.819,26.482-37.046,28.234
	c-2.133-1.752-32.072-26.34-34.346-28.234c1.741-2.798,10.398-16.718,12.316-19.803c-0.498-0.487-27.66-28.133-28.14-28.614
	l27.998-23.545c1.442-0.221,2.655-0.458,3.932-0.615c-6.181,22.605,1.048,59.272,18.287,94.369
	c17.38-30.722,24.339-64.71,20.466-94.227c7.59,0.921,30.565,23.611,32.261,23.734c-0.513,0.518-27.632,28.405-28.139,28.898
	L480.675,293.593z" class="color412edb svgShape"></path><path fill="#ff9987" d="M446.377 319.743c-.441-.39-31.787-26.04-32.167-26.435 1.344-2.154 10.485-16.758 11.559-18.523l-25.581-25.345c.755-.17 26.968-24.694 27.997-24.114C424.727 256.025 432.874 287.623 446.377 319.743zM471.341 277.77l9.714 15.538c-.487.356-34.204 26.078-34.678 26.435 14.638-30.888 23.117-62.155 20.418-94.227.32.024.678.165 1.088.19l27.195 23.734-25.584 25.345L471.341 277.77z" class="color8787ff svgShape"></path><path fill="#5a5a5a" d="M400.91,164.646c-19.744-14.766-18.08-56.225,3.332-59.313c4.253-16.706,44.841-35.414,71.926-10.084
	c24.643,23.047,7.151,63.704,7.151,63.704L400.91,164.646z" class="color333382 svgShape"></path><path fill="#f9d2cb" d="M429.053,225.539c0.888,1.037,1.829,2.027,2.718,2.97c11.192,11.36,22.488,12.02,33.784-2.97l-4.34-23.755
	l-1.621-8.908l-24.003-0.143L429.053,225.539z" class="colorf9cbcb svgShape"></path><path fill="#ebb9b0" d="M429.053 225.539c.888 1.037 1.829 2.027 2.718 2.97.995-3.535 4.759-15.366 9.99-21.399 4.235-4.855 13.806-5.515 19.454-5.326l-1.621-8.908-24.003-.143L429.053 225.539zM400.701 157.126c1.938 1.952 3.854 3.707 5.84 5.254l-2.391-4.787-.921-1.778c0 0-.417-.148-1.116-.16-.306-.062-.613-.123-1.018-.173-.1.013-.284.135-.369.245C400.37 156.071 400.346 156.672 400.701 157.126z" class="colorebb0b0 svgShape"></path><path fill="#ebb9b0" d="M411.19,178.052l0.098-0.012c0.7,0.012,1.498,0.012,2.381-0.098l0.59-0.074l-7.718-15.488
	c-1.986-1.547-3.902-3.302-5.84-5.254c-0.355-0.454-0.331-1.055,0.025-1.399c0.086-0.11,0.269-0.233,0.369-0.245
	c-2.824-0.246-7.683-0.038-10.322,3.582C387.705,163.235,390.917,178.588,411.19,178.052z" class="colorebb0b0 svgShape"></path><path fill="#f9d2cb" d="M404.123,154.21c1.457,11.675,6.783,22.376,14.259,30.329l0.011,0.089c1.429,1.514,2.937,2.94,4.509,4.255
	c8.653,7.238,19.291,11.128,29.845,9.811c15.223-1.9,27.812-16.839,30.596-36.134c0.773-4.978,0.913-10.278,0.238-15.683
	c-3.295-26.402-18.646-48.715-42.403-45.751c-16.368,2.043-29.319,13.966-34.732,29.791
	C404.008,138.08,403.101,146.02,404.123,154.21z" class="colorf9cbcb svgShape"></path><path fill="#848484" d="M426.344 433.136l-8.532-12.824c.314-.631.484-1.328.426-2.042-.241-2.971-1.53-5.338-3.672-7.212.155-.144.305-.296.42-.464l.016-.017c.923-1.245.997-2.971.106-4.291l-37.612-59.199 18.665-44.777-19.892-59.188c-.114.074-53.445 85.823-47.096 117.199.555 4.577 2.966 10.155 6.572 16.258 10.156 19.013 29.464 43.909 44.713 59.552 1.038 1.05 2.562 1.315 3.854.785l-.329.324c-.105 3.011 1.522 5.095 4.684 6.358 1.464.585 3.144.309 4.322-.74l.213-.19c4.796 4.593 7.812 7.343 7.812 7.343L426.344 433.136zM440.524 341.399c0-3.712 3.01-6.721 6.721-6.721 3.712 0 6.721 3.009 6.721 6.721 0 3.711-3.009 6.72-6.721 6.72C443.533 348.12 440.524 345.111 440.524 341.399z" class="color412edb svgShape"></path><path fill="#ff9987" d="M439.161,340.366c0-3.712,3.009-6.721,6.721-6.721c3.711,0,6.721,3.009,6.721,6.721
	c0,3.712-3.01,6.721-6.721,6.721C442.169,347.087,439.161,344.078,439.161,340.366z" class="color8787ff svgShape"></path><path fill="#848484" d="M440.524,369.606c0-3.713,3.01-6.721,6.721-6.721c3.712,0,6.721,3.009,6.721,6.721
	c0,3.711-3.009,6.72-6.721,6.72C443.533,376.327,440.524,373.317,440.524,369.606z" class="color412edb svgShape"></path><path fill="#ff9987" d="M439.161,368.573c0-3.712,3.009-6.721,6.721-6.721c3.711,0,6.721,3.009,6.721,6.721
	c0,3.712-3.01,6.721-6.721,6.721C442.169,375.294,439.161,372.285,439.161,368.573z" class="color8787ff svgShape"></path><path fill="#848484" d="M440.524,397.813c0-3.712,3.01-6.721,6.721-6.721c3.712,0,6.721,3.009,6.721,6.721
	c0,3.712-3.009,6.721-6.721,6.721C443.533,404.534,440.524,401.524,440.524,397.813z" class="color412edb svgShape"></path><path fill="#ff9987" d="M439.161,396.78c0-3.712,3.009-6.721,6.721-6.721c3.711,0,6.721,3.009,6.721,6.721
	c0,3.711-3.01,6.721-6.721,6.721C442.169,403.501,439.161,400.491,439.161,396.78z" class="color8787ff svgShape"></path><path fill="#5a5a5a" d="M486.4,144.132c0,0-18.235-2.732-22.247-33.239c-4.233,10.883-14.058,25.6-30.693,29.327
	c0.879-3.741,0.263-7.246-1.249-10.007c0.065,8.345-6.128,16.648-14.673,19.033c0.573-3.349,0.868-9.663-2.99-10.73
	c-1.092,8.979-5.201,19.986-12.814,21.555c-4-4.813-5.765-13.246-7.021-22.503c0,0,9.206-23.945,9.532-24.596
	c0.325-0.651,21.092-18.284,21.092-18.284l30.008-2.222l22.757,22.73C487.522,124.712,493.095,134.303,486.4,144.132z" class="color333382 svgShape"></path><path fill="#ff9987" d="M431.006 434.258l-37.941 29.651c-.346.271-.846.209-1.117-.137l-5.181-6.628c-.271-.346-.209-.846.137-1.117l37.944-29.654c.346-.271.846-.209 1.117.137l5.179 6.63C431.413 433.487 431.352 433.987 431.006 434.258zM465.916 434.259l37.941 29.651c.346.271.846.209 1.117-.137l5.18-6.628c.271-.346.209-.846-.137-1.117l-37.944-29.654c-.346-.271-.847-.209-1.117.137l-5.177 6.631C465.509 433.488 465.57 433.988 465.916 434.259z" class="color8787ff svgShape"></path><path fill="#2c2c2c" d="M425 150.047c1.373-1.583 3.253-2.52 5.24-2.99 1.967-.427 4.299-.415 6.28.991.543.387.672 1.141.284 1.686-.385.544-1.141.672-1.685.286-.033-.024-.076-.059-.106-.085-2.16-1.892-6.66-1.274-9.069.973l-.026.025c-.259.24-.662.226-.902-.031C424.792 150.66 424.789 150.29 425 150.047zM470.185 144.792c-2.948-1.475-7.435-.794-8.976 1.631-.352.567-1.096.743-1.664.391-.566-.352-.742-1.096-.39-1.665.021-.033.053-.079.078-.111 1.501-1.908 3.736-2.579 5.742-2.726 2.038-.111 4.108.257 5.872 1.387.296.19.383.584.194.881-.177.277-.533.37-.821.229L470.185 144.792z" class="color0b2d50 svgShape"></path><path fill="#fdedea" d="M426.946 156.131c-.411-2.846 1.563-5.487 4.409-5.897 2.847-.411 5.487 1.564 5.897 4.41.411 2.846-1.564 5.486-4.41 5.897C429.996 160.951 427.357 158.977 426.946 156.131zM460.695 151.261c-.411-2.846 1.563-5.487 4.41-5.897 2.845-.411 5.486 1.564 5.897 4.41.411 2.846-1.565 5.486-4.41 5.897C463.745 156.082 461.106 154.108 460.695 151.261z" class="colorfdeaea svgShape"></path><path fill="#2c2c2c" d="M428.161 155.955c-.314-2.174 1.195-4.192 3.369-4.505 2.175-.314 4.192 1.195 4.506 3.369.314 2.175-1.195 4.192-3.37 4.506C430.493 159.639 428.475 158.13 428.161 155.955zM461.899 151.011c-.314-2.175 1.195-4.192 3.37-4.506 2.175-.314 4.192 1.195 4.506 3.37.314 2.174-1.195 4.191-3.37 4.505C464.231 154.693 462.213 153.185 461.899 151.011z" class="color0b2d50 svgShape"></path><path fill="#ffffff" d="M432.482 153.978c-.467-.349-.562-1.01-.213-1.477.348-.466 1.01-.561 1.477-.213.466.349.561 1.01.213 1.477C433.61 154.231 432.948 154.326 432.482 153.978zM466.069 149.132c-.467-.349-.562-1.01-.213-1.477.35-.466 1.01-.562 1.476-.213.467.349.562 1.01.213 1.477C467.197 149.385 466.537 149.48 466.069 149.132z" class="colorffffff svgShape"></path><path fill="#2c2c2c" d="M460.318,172.88c-0.448,3.137-1.7,5.53-3.362,7.081c0.006,0.041,0.006,0.041,0.006,0.041
	c-2.875,2.79-6.992,3.22-10.31,1.242c-1.922-1.116-3.548-3.013-4.596-5.728c0.58,0.039,1.112,0.043,1.681,0.003
	c5.133,0.079,10.069-0.633,14.971-2.16C459.263,173.236,459.774,173.081,460.318,172.88z" class="color0b2d50 svgShape"></path><path fill="#ffffff" d="M443.737,175.518c0.157,1.086,1.09,1.887,2.187,1.896c3.902,0.032,7.653-0.368,11.235-1.436
	c1.057-0.315,1.731-1.352,1.574-2.444l-0.025-0.176C453.72,174.739,448.788,175.458,443.737,175.518z" class="colorffffff svgShape"></path><path fill="#ff836e" d="M456.957,179.961c0.006,0.041,0.006,0.041,0.006,0.041c-2.875,2.79-6.992,3.22-10.31,1.242
	c0.761-1.258,2.577-2.298,4.786-2.617C453.766,178.291,455.934,178.839,456.957,179.961z" class="colorff6ed1 svgShape"></path><path fill="#ffbeb3" d="M424.484 166.225c-.205-1.423 1.891-2.902 4.682-3.305 2.791-.403 5.22.424 5.426 1.846.205 1.422-1.891 2.902-4.683 3.305C427.118 168.474 424.689 167.647 424.484 166.225zM467.324 160.044c-.205-1.423 1.891-2.902 4.682-3.305 2.791-.403 5.22.424 5.426 1.846.205 1.422-1.891 2.902-4.682 3.305C469.959 162.293 467.53 161.466 467.324 160.044z" class="colorffb3b3 svgShape"></path><path fill="#959595" d="M263.04 877.138h-1.006c-4.698 0-8.507-3.809-8.507-8.507V700.715c0-4.698 3.809-8.507 8.507-8.507h1.006c4.698 0 8.507 3.809 8.507 8.507v167.917C271.547 873.33 267.739 877.138 263.04 877.138zM1094.705 877.138h-1.006c-4.698 0-8.507-3.809-8.507-8.507V700.715c0-4.698 3.809-8.507 8.507-8.507h1.006c4.698 0 8.507 3.809 8.507 8.507v167.917C1103.212 873.33 1099.403 877.138 1094.705 877.138z" class="color7676b5 svgShape"></path><path fill="#ff836e" d="M1133.74,723.397h-901.73c-20.919,0-37.335-17.939-35.485-38.776l23.003-258.979
	c1.633-18.381,17.031-32.472,35.485-32.472h855.723c18.453,0,33.852,14.091,35.485,32.472l23.003,258.979
	C1171.076,705.457,1154.659,723.397,1133.74,723.397z" class="colorff6ed1 svgShape"></path><path fill="#ff5c40" d="M298.483 502.46h29.496l10.619 56.261 15.542-56.261h29.39l15.58 56.186 10.631-56.186h29.343l-22.153 100.498h-30.453l-17.627-63.274-17.558 63.274h-30.452L298.483 502.46zM449.162 502.46h83.222v21.457h-52.099v15.973h48.33v20.497h-48.33v19.812h53.608v22.759h-84.731V502.46zM550.619 502.46h31.054v75.751h48.467v24.747h-79.521V502.46zM708.77 561.827l27.215 8.226c-1.829 7.633-4.708 14.009-8.638 19.126-3.931 5.119-8.809 8.98-14.636 11.585-5.827 2.605-13.242 3.907-22.245 3.907-10.923 0-19.845-1.587-26.769-4.761-6.924-3.174-12.9-8.756-17.927-16.749-5.028-7.993-7.54-18.223-7.54-30.692 0-16.624 4.422-29.401 13.265-38.33 8.844-8.929 21.354-13.393 37.532-13.393 12.659 0 22.611 2.56 29.855 7.678 7.243 5.119 12.624 12.98 16.144 23.582l-27.421 6.101c-.959-3.061-1.966-5.301-3.016-6.718-1.737-2.376-3.862-4.204-6.375-5.485-2.514-1.279-5.324-1.919-8.432-1.919-7.038 0-12.431 2.831-16.178 8.491-2.834 4.2-4.25 10.796-4.25 19.787 0 11.139 1.69 18.774 5.073 22.904 3.382 4.132 8.135 6.196 14.259 6.196 5.941 0 10.431-1.668 13.471-5.004C705.193 573.024 707.398 568.18 708.77 561.827zM747.159 552.778c0-16.406 4.569-29.179 13.71-38.321 9.14-9.14 21.868-13.71 38.184-13.71 16.727 0 29.615 4.49 38.664 13.47 9.049 8.981 13.573 21.56 13.573 37.738 0 11.746-1.978 21.377-5.93 28.895-3.953 7.518-9.666 13.368-17.138 17.549-7.472 4.182-16.785 6.273-27.935 6.273-11.335 0-20.715-1.805-28.141-5.416-7.428-3.61-13.448-9.323-18.064-17.138C749.466 574.303 747.159 564.524 747.159 552.778zM778.213 552.915c0 10.146 1.885 17.436 5.655 21.868 3.771 4.434 8.9 6.65 15.39 6.65 6.672 0 11.836-2.17 15.493-6.513 3.655-4.341 5.484-12.134 5.484-23.377 0-9.46-1.909-16.372-5.724-20.737-3.817-4.364-8.992-6.547-15.527-6.547-6.262 0-11.289 2.217-15.081 6.649C780.109 535.343 778.213 542.678 778.213 552.915zM867.674 502.46h40.84l15.749 61.149 15.638-61.149h40.816v100.498h-25.434v-76.641l-19.596 76.641h-23.021l-19.56-76.641v76.641h-25.433V502.46zM1000.461 502.46h83.222v21.457h-52.1v15.973h48.33v20.497h-48.33v19.812h53.608v22.759h-84.731V502.46z" class="colordb44ab svgShape"></path><path fill="#ffffff" d="M289.521 494.059h29.496l10.619 56.261 15.542-56.261h29.39l15.58 56.186 10.631-56.186h29.343L407.97 594.557h-30.453l-17.626-63.274-17.558 63.274h-30.452L289.521 494.059zM440.2 494.059h83.222v21.457h-52.099v15.973h48.33v20.497h-48.33v19.812h53.608v22.759H440.2V494.059zM541.658 494.059h31.055v75.751h48.467v24.747h-79.521V494.059zM699.808 553.425l27.215 8.226c-1.829 7.633-4.708 14.009-8.638 19.126-3.931 5.119-8.809 8.98-14.636 11.585-5.827 2.605-13.242 3.907-22.245 3.907-10.923 0-19.845-1.587-26.769-4.761-6.924-3.174-12.9-8.756-17.927-16.749-5.028-7.993-7.54-18.223-7.54-30.692 0-16.624 4.421-29.401 13.265-38.33 8.844-8.929 21.354-13.393 37.532-13.393 12.659 0 22.611 2.56 29.855 7.678 7.243 5.119 12.625 12.98 16.144 23.582l-27.421 6.101c-.959-3.061-1.966-5.301-3.016-6.718-1.737-2.376-3.862-4.204-6.375-5.485-2.514-1.279-5.324-1.919-8.432-1.919-7.038 0-12.431 2.831-16.178 8.491-2.834 4.2-4.25 10.796-4.25 19.787 0 11.139 1.69 18.774 5.073 22.904 3.382 4.132 8.135 6.196 14.259 6.196 5.941 0 10.431-1.668 13.471-5.004C696.232 564.623 698.436 559.778 699.808 553.425zM738.197 544.376c0-16.406 4.569-29.18 13.71-38.321 9.14-9.14 21.868-13.71 38.184-13.71 16.727 0 29.615 4.49 38.664 13.47 9.049 8.981 13.574 21.56 13.574 37.738 0 11.746-1.978 21.377-5.93 28.895-3.953 7.518-9.666 13.368-17.138 17.549-7.472 4.182-16.785 6.273-27.935 6.273-11.335 0-20.715-1.805-28.141-5.416-7.428-3.61-13.449-9.323-18.064-17.138C740.505 565.902 738.197 556.122 738.197 544.376zM769.252 544.513c0 10.146 1.885 17.436 5.655 21.868 3.771 4.434 8.9 6.65 15.39 6.65 6.672 0 11.836-2.17 15.493-6.513 3.655-4.341 5.484-12.134 5.484-23.377 0-9.46-1.909-16.372-5.724-20.737-3.817-4.364-8.992-6.547-15.527-6.547-6.262 0-11.289 2.217-15.081 6.649C771.147 526.942 769.252 534.276 769.252 544.513zM858.713 494.059h40.84l15.749 61.149 15.638-61.149h40.816v100.498h-25.434v-76.641l-19.596 76.641h-23.021l-19.56-76.641v76.641h-25.433V494.059zM991.499 494.059h83.222v21.457h-52.099v15.973h48.33v20.497h-48.33v19.812h53.608v22.759h-84.731V494.059z" class="colorffffff svgShape"></path><path fill="#f06f59" d="M1169.225,684.62l-23.003-258.978c-1.632-18.381-17.031-32.472-35.485-32.472h-2.927
	c1.391,3.313,2.307,6.884,2.641,10.639l23.003,258.979c1.851,20.837-14.566,38.776-35.485,38.776H199.161
	c5.366,12.747,17.964,21.833,32.849,21.833h901.729C1154.659,723.396,1171.076,705.457,1169.225,684.62z" class="colorf059bf svgShape"></path><path fill="#f9d2cb" d="M409.452,417.814l-23.49,13.624c0,0-5.153-3.243-13.382-11.171c-18.736-18.072-49.785-50.275-52.079-67.414
	c-3.893-29.259,53.302-108.455,53.302-108.455l18.653,57.674l-29.577,47.569l33.327,48.788L409.452,417.814z" class="colorf9cbcb svgShape"></path><path fill="#a4a4a4" d="M398.913,397.479l-0.016,0.016c-0.126,0.19-0.301,0.364-0.475,0.522
	c-7.469,6.615-19.275,16.742-26.142,23.119c-1.266,1.155-3.197,1.108-4.415-0.094c-18.593-18.61-43.866-51.937-47.363-68.189
	c-6.235-28.975,44.477-103.369,56.994-111.661l24.452,55.913l-23.622,29.527l-11.742,20.413l32.377,46.541
	C399.783,394.773,399.736,396.34,398.913,397.479z" class="color5f4aff svgShape"></path><path fill="#ffd3cc" d="M416.984,478.925c5.764-0.943-2.995-21.252-0.893-22.531c4.444-2.704,15.609,15.902,19.805,13.868
	c6.071-2.943-12.866-20.419-11.342-22.758c2.489-3.82,20.897,12.15,21.991,5.17c1.094-6.981-24.887-13.968-23.542-21.462
	c1.345-7.494,15.195,5.499,17.318-1.96c1.824-6.409-13.853-9.238-20.102-11.818c-7.14-2.948-17.244-2.76-19.211-2.052
	l-13.139,12.156c-2.592,5.971-3.514,14.732,3.68,24.301c5.48,7.289,4.338,22.848,6.971,23.272c5.526,0.889,1.93-15.802,6.91-16.214
	C408.318,458.656,412.887,479.595,416.984,478.925z" class="colorffcccc svgShape"></path><path fill="#ffc0b5" d="M278.311,309.622c0.736-2.313-0.542-4.784-2.855-5.52c-2.313-0.736-4.784,0.542-5.52,2.855
	c-0.736,2.313,0.542,4.784,2.855,5.52C275.104,313.213,277.575,311.935,278.311,309.622z" class="colorc6b5ff svgShape"></path></svg>