<svg xmlns="http://www.w3.org/2000/svg" enable-background="new 0 0 2000 2000" viewBox="0 0 2000 2000" id="Businessteamwelcomingnewrecruits"><path fill="#e0eaf5" fill-rule="evenodd" d="M987.73,479.68c173.66,0,246.82,124.25,372.18,220.84c165.93,127.84,331.84,44.62,358.41,476.55
		c23.64,384.43-271.41,41.62-687.42,179.33s-839.72,193.16-713.99-252.39C442.64,658.46,584.24,479.68,987.73,479.68z" clip-rule="evenodd" class="colore0e8f5 svgShape"></path><path fill="#c4d7eb" fill-rule="evenodd" d="M983.31,841.24c-41.11,37.53-23.24,75.08,7.14,144.79c30.38,69.71,35.75,327.14,35.75,327.14l-25.01-3.57
		c0,0,3.59-264.57-30.38-336.08c-33.97-71.51-48.29-107.25-78.67-84.01C861.76,912.75,983.31,841.24,983.31,841.24z" clip-rule="evenodd" class="colorc4d1eb svgShape"></path><path fill="#ffffff" fill-rule="evenodd" d="M1005.88,792.63c-4.97-22.25-34.64-46.31-74.29-66.75c5.92,32.82,24.78,86.47,5.25,97.48
		c-26.39,14.83-2.56-60.08-12.74-101.24c-37.24-18.19-82.06-33.05-123.29-40.44c0.08,0.16,0.12,0.3,0.16,0.46
		c23.24,58.99,53.62,82.23,41.11,91.16c-9.39,6.73-40.04-61.41-80.56-96.34c-30.38-1.62-56.1,2.49-71.29,14.54
		c-23.51,18.61-39.3,35.12-15.66,91.79c13.49,9.65,31.01,16.57,51.33,18.61c53.62,5.37,78.67,7.14,41.11,25.03
		c-18.39,8.76-49.16-0.49-74.17-6.13c8.09,14.93,18.07,31.83,30.18,51.09c7.69,12.21,16.14,22.8,25.13,31.98
		c17.28,3.31,32.35,3.34,40.32-0.07c25.01-10.72,89.36-44.7,105.46-30.39c15.74,13.99-119.19,22.86-109.84,58.43
		c65.41,37.68,140.26,19.75,153.47-14.85C955.34,870.54,1020.91,859.6,1005.88,792.63z" clip-rule="evenodd" class="colorffffff svgShape"></path><path fill="#c4d7eb" fill-rule="evenodd" d="M870.67,1046.82c71.53-53.64,144.79-3.59,182.35,53.62c37.52,57.2,10.73,185.9,10.73,185.9
		s-14.32,0-14.32-5.35c0-5.37,39.33-151.94-53.62-218.1c-58.15-41.37-100.09-21.44-105.46-1.78c-5.37,19.66,23.24,55.42,23.24,55.42
		L870.67,1046.82z" clip-rule="evenodd" class="colorc4d1eb svgShape"></path><path fill="#c4d7eb" fill-rule="evenodd" d="M1035.15,936.58c-71.53,0-94.77,110.84-75.08,175.18c19.65,64.36,46.48,184.12,46.48,184.12l17.87-17.87
		c0,0-67.94-168.03-51.84-243.12c16.1-75.08,55.39-87.6,62.57-87.6C1042.29,947.3,1035.15,936.58,1035.15,936.58z" clip-rule="evenodd" class="colorc4d1eb svgShape"></path><path fill="#c4d7eb" fill-rule="evenodd" d="M975.19,1112.27c-5.05-6.67-11.25-12.17-18.82-15.83c0.99,5.34,2.21,10.46,3.71,15.32
		c8.96,29.33,19.37,70.15,28.13,105.9c0.75-4.57,2.01-11.63,3.87-22.51c0.47-2.58,0.79-5.37,1.07-8.32
		C986.11,1163.01,979.49,1137.05,975.19,1112.27z" clip-rule="evenodd" class="colorc4d1eb svgShape"></path><path fill="#ffffff" fill-rule="evenodd" d="M955.62 1112.8c-135.84-57.21-64.27-135.71-184.05-83.86-8.44 3.65-18.7 12.86-29 25.55 10.65 3.03 23.55 5.21 37.95 3.05 35.74-5.37 23.24 23.24-35.78 30.39-11.09 1.34-20.12 3.21-27.62 5.83-28.13 53.98-40.79 125 18.7 149.68 11.72 4.88 26.2 7.65 42.33 8.7 18.35-14.59-4.5-99 23.83-87.35 27.14 11.2-8.56 72.36-3.67 87.77 26.83-.48 56.54-4.86 84.86-11.9 11.25-6.29 19.85-14.73 22.45-25.81 8.96-37.55-50.03-60.79-51.84-92.97-1.62-29.57 21.66 65.08 83.25 79.02C992.78 1174.87 1019.14 1139.54 955.62 1112.8zM1052.43 1011.66c-14.32-30.39 23.24-37.55 21.42-14.31-1.54 20.61-1.74 70.66 19.37 84.29 36.42-3.95 85.97-18.63 123.45-41 .47-3.02 0-6.13-1.58-9.32-16.1-32.18-119.78-58.99-87.59-69.71 25.6-8.55 70.54 41.87 106.72 67.27 21.74-16.5 36.3-36.15 36.3-58.08 0-29.71-36.1-63.32-82.77-79.39-20.99 2.13-40.52 13.6-70.98 30.88-45.02 25.51-34.6-15.74 7.97-40.21-36.77 1.9-73.38 17.59-100.41 55.1 0 0 2.57 16.03-14.4 40.83-46.28 67.64 7.14 107.13 70.98 104.57C1077.29 1064.75 1062.3 1032.65 1052.43 1011.66z" clip-rule="evenodd" class="colorffffff svgShape"></path><path fill="#c4d7eb" fill-rule="evenodd" d="M874.97 1043.78c-34.95 27.02-73.78 58.6-121.43 80.05-47.7 21.46-38.15 91.37-38.15 91.37s-7.14-60.38 32.59-81.04c39.73-20.65 65.93-45.29 96.11-50.05 30.22-4.78 46.91-9.54 46.91-9.54s-9.55-19.07-3.99-26.22C892.57 1041.2 874.97 1043.78 874.97 1043.78zM702.68 726.57c127.91 34.16 221.65 116 239.16 135.87 17.48 19.85 17.48 25.42 17.48 25.42l-13.53 25.42-6.35-3.18c0 0 10.34-21.44-16.69-49.25-46.59-47.97-103.29-85.82-142.23-102.5C741.58 741.66 702.68 726.57 702.68 726.57z" clip-rule="evenodd" class="colorc4d1eb svgShape"></path><path fill="#b0cae4" fill-rule="evenodd" d="M1055.79,1434.63h-48.88c-34.76,0-62.93-28.17-62.93-62.93v-112.28h174.74v112.28
		C1118.71,1406.45,1090.55,1434.63,1055.79,1434.63z" clip-rule="evenodd" class="colorb0c2e4 svgShape"></path><rect width="174.73" height="12.3" x="943.98" y="1279.48" fill="#ffffff" fill-rule="evenodd" clip-rule="evenodd" class="colorffffff svgShape"></rect><rect width="174.73" height="7.23" x="943.98" y="1301.91" fill="#ffffff" fill-rule="evenodd" clip-rule="evenodd" class="colorffffff svgShape"></rect><ellipse cx="377.6" cy="1482.48" fill="#c4d7eb" fill-rule="evenodd" clip-rule="evenodd" rx="196.53" ry="27.94" class="colorc4d1eb svgShape"></ellipse><ellipse cx="1678.47" cy="1482.48" fill="#c4d7eb" fill-rule="evenodd" clip-rule="evenodd" rx="196.53" ry="27.94" class="colorc4d1eb svgShape"></ellipse><path fill="#9dbbd9" fill-rule="evenodd" d="M502.44,1149.34c-0.7,3.25-1.42,6.5-2.17,9.75l-20.45,88.9h-53.69l-46.43-211.25h58.32l16.14,90.85
		c0.9,5.09,1.79,10.19,2.64,15.3c1.12-5.37,2.26-10.74,3.4-16.1l19.1-90.06h51.5l17.75,91.21c0.72,3.72,1.43,7.45,2.12,11.17
		c0.71-4.13,1.43-8.26,2.15-12.4l17.23-89.98h56.39l-49.99,211.25h-54.02l-18.03-89.05
		C503.71,1155.73,503.06,1152.54,502.44,1149.34L502.44,1149.34z M683.55,1198.69h70.81v49.29H628.24v-211.25h122.11v49.29h-66.79
		v28.55h63.02v48.54h-63.02V1198.69L683.55,1198.69z M820.15,1198.44h69.05v49.54H764.83v-211.25h55.32V1198.44L820.15,1198.44z
		 M1040.48,1045.69l-6.11-3.34c-11.9-6.49-31.03-8.39-44.27-8.39c-19.88,0-39.57,4.79-56.55,15.29
		c-33.59,20.78-47.19,57.29-47.19,95.48c0,61.53,35.5,105.75,99.22,105.75c14.01,0,33.83-2,46.64-8.19l6.18-2.99l-8.46-47.97
		l-10.55,4.57c-7.77,3.37-19.27,4.78-27.78,4.78c-34.95,0-48.17-25.81-48.17-57.96c0-31.74,13.68-59.47,48.42-59.47
		c9.56,0,18.51,1.73,27.28,5.53l9.9,4.29L1040.48,1045.69L1040.48,1045.69z M1128.2,1033.72c60.17,0,88.68,51.66,88.68,106.25
		c0,37.55-10.65,78.05-44.85,98.64c-14.05,8.46-30.02,12.13-46.34,12.13c-60.69,0-88.92-52.79-88.92-107.76
		c0-35.67,12.02-73.53,42.59-94.58C1093.87,1038.41,1110.65,1033.72,1128.2,1033.72L1128.2,1033.72z M1374.32,1149.23
		c-1.12,3.82-2.25,7.64-3.4,11.44l-25.55,84.54h-41.76l-23.16-83.4c-0.76-2.66-1.51-5.32-2.24-7.99c-0.18,3.74-0.37,7.48-0.56,11.22
		l-4.2,82.94h-52.24l14.29-211.25h61.27l22.77,79.29c2.75,10.22,5.4,20.47,7.9,30.76c2.61-10.36,5.38-20.7,8.29-31.02l23.79-79.03
		h61.02l12.09,211.25h-53.68l-3.92-83.73C1374.77,1159.26,1374.54,1154.25,1374.32,1149.23L1374.32,1149.23z M1501.87,1198.69h70.81
		v49.29h-126.13v-211.25h122.11v49.29h-66.79v28.55h63.02v48.54h-63.02V1198.69L1501.87,1198.69z M1127.2,1082.25
		c-27.33,0-33.36,39.67-33.36,59.97c0,19.96,6.05,59.98,33.11,59.98c27.47,0,32.86-40.63,32.86-60.73
		C1159.81,1121.7,1153.97,1082.25,1127.2,1082.25z" clip-rule="evenodd" class="color9db2d9 svgShape"></path><path fill="#ffffff" fill-rule="evenodd" d="M561.73,1128.42c-4.02,23.1-7.78,44.94-10.8,67.79h-0.75c-2.51-22.6-6.28-43.94-10.54-66.54l-16.32-83.87
		h-36.66l-17.58,82.86c-5.02,24.11-9.79,46.46-12.56,68.05h-0.75c-2.76-20.59-6.53-44.44-10.55-67.54l-14.81-83.37h-39.42
		l42.44,193.09h39.17l18.83-81.86c4.77-20.34,8.29-39.67,11.55-61.52h0.5c2.51,21.85,5.53,41.43,9.79,61.52l16.57,81.86h39.42
		l45.7-193.09h-37.41L561.73,1128.42L561.73,1128.42z M674.47,1207.76v-53.73h63.02v-30.38h-63.02v-46.7h66.79v-31.14H637.31v193.09
		h107.97v-31.14H674.47L674.47,1207.76z M811.07,1207.51v-161.71h-37.16v193.09h106.21v-31.39H811.07L811.07,1207.51z
		 M1030.02,1050.33c-5.52-3.01-19.08-7.28-39.92-7.28c-51.22,0-94.66,34.15-94.66,101.69c0,57.25,32.14,96.67,90.14,96.67
		c19.84,0,35.4-3.77,42.69-7.28l-5.27-29.88c-7.53,3.27-19.84,5.53-31.39,5.53c-34.9,0-57.25-23.35-57.25-67.04
		c0-46.71,25.61-68.55,57.5-68.55c13.31,0,23.35,3.01,30.88,6.28L1030.02,1050.33L1030.02,1050.33z M1128.2,1042.79
		c-50.47,0-82.36,42.44-82.36,100.19c0,56,28.88,98.68,79.85,98.68c47.96,0,82.11-34.4,82.11-101.69
		C1207.8,1088.49,1181.69,1042.79,1128.2,1042.79L1128.2,1042.79z M1127.2,1073.18c28.37,0,41.68,32.89,41.68,68.3
		c0,38.92-14.31,69.81-41.93,69.81c-27.37,0-42.18-31.14-42.18-69.05C1084.76,1106.82,1098.07,1073.18,1127.2,1073.18
		L1127.2,1073.18z M1366.24,1045.81l-21.85,72.57c-6.53,23.1-12.3,46.45-16.82,68.05h-0.75c-4.27-22.1-9.79-44.7-16.07-68.05
		l-20.84-72.57h-45.95l-13.06,193.09h33.9l3.77-74.32c1.25-23.86,2.51-52.48,3.01-76.84h0.75c4.52,23.6,10.55,49.72,16.82,71.57
		l21.34,76.83h28.12l23.6-78.09c6.53-21.59,13.56-47.2,19.08-70.31h0.75c-0.25,19.59,1,50.72,2.01,76.09l3.51,75.08h35.4
		l-11.05-193.09H1366.24L1366.24,1045.81z M1492.79,1207.76v-53.73h63.02v-30.38h-63.02v-46.7h66.79v-31.14h-103.95v193.09h107.97
		v-31.14H1492.79z" clip-rule="evenodd" class="colorffffff svgShape"></path><polygon fill="#c4d7eb" fill-rule="evenodd" points="997.05 547.35 850.55 607.41 890.77 658.79" clip-rule="evenodd" class="colorc4d1eb svgShape"></polygon><polygon fill="#c4d7eb" fill-rule="evenodd" points="829.88 583.2 992.57 547.68 790.04 562.48" clip-rule="evenodd" class="colorc4d1eb svgShape"></polygon><polygon fill="#9dbbd9" fill-rule="evenodd" points="829.88 583.2 833.69 650.65 850.55 607.41 997.05 547.35 992.57 547.68" clip-rule="evenodd" class="color9db2d9 svgShape"></polygon><polygon fill="#85a5c6" fill-rule="evenodd" points="833.69 650.65 868.37 630.18 850.55 607.41" clip-rule="evenodd" class="color859ac6 svgShape"></polygon><path fill="#85a5c6" fill-rule="evenodd" d="M807.15,618.23c3.43-0.43,4.23,4.92,0.58,5.37l-5.34,0.63c-3.49,0.44-4.21-4.92-0.64-5.36L807.15,618.23
		L807.15,618.23z M501.55,964.28c-3.22-1.84-0.88-6.25,2.34-4.87c1.6,0.75,3.18,1.48,4.79,2.19c3.29,1.41,1.16,6.37-2.11,4.97
		L501.55,964.28L501.55,964.28z M522.14,972.17c-3.25-0.81-2.19-6.11,1.47-5.2c1.71,0.46,3.38,0.92,5.1,1.33
		c3.56,0.89,2.13,6.1-1.22,5.26C525.69,973.15,523.93,972.66,522.14,972.17L522.14,972.17z M543.94,976.09
		c-3.55-0.44-3.29-5.39,0.35-5.39c1.75,0.11,3.48,0.19,5.24,0.21c3.53,0,3.56,5.41-0.03,5.41
		C547.67,976.21,545.8,976.21,543.94,976.09L543.94,976.09z M566.14,974.94c-3.58,0.45-4.49-4.44-0.99-5.31
		c1.72-0.3,3.42-0.69,5.12-1.11c3.46-0.86,4.76,4.38,1.31,5.24C569.79,974.21,567.96,974.62,566.14,974.94L566.14,974.94z
		 M587.31,967.98c-2.75,1.57-5.84-2.88-2.39-4.85c1.57-0.75,3.08-1.6,4.59-2.46c3.16-1.8,5.75,2.94,2.73,4.66
		C590.64,966.27,588.98,967.18,587.31,967.98L587.31,967.98z M605.76,955.48c-2.93,2.44-6.15-1.9-3.61-4.02
		c1.25-1.12,2.64-2.39,3.77-3.61c2.59-2.59,6.33,1.32,3.88,3.77C608.47,952.95,607.16,954.23,605.76,955.48L605.76,955.48z
		 M620.33,938.7c-1.99,2.78-6.35,0.25-4.48-3.02c0.98-1.46,1.92-2.92,2.83-4.43c1.69-2.96,6.47-0.44,4.63,2.78
		C622.37,935.62,621.37,937.17,620.33,938.7L620.33,938.7z M630.66,919.1c-1.21,3.22-6.32,1.47-5.03-1.98
		c0.65-1.64,1.27-3.29,1.85-4.96c1.31-3.5,6.3-1.41,5.11,1.76C631.98,915.66,631.34,917.39,630.66,919.1L630.66,919.1z
		 M637.23,898.14c-0.87,3.49-6.1,2.14-5.25-1.28l1.23-5.2c0.9-3.63,6.1-2.11,5.27,1.17L637.23,898.14L637.23,898.14z M641.71,876.84
		c-0.39,3.15-5.8,2.94-5.31-0.98l0.96-5.3c0.4-3.19,5.81-2.93,5.32,0.95L641.71,876.84L641.71,876.84z M645.51,855.55
		c-0.4,3.16-5.81,2.94-5.32-0.97l1-5.34c0.85-3.4,5.76-2.64,5.3,1.02L645.51,855.55L645.51,855.55z M649.87,834.56
		c-0.87,3.47-6.1,2.14-5.24-1.3c0.43-1.77,0.87-3.56,1.37-5.31c0.82-3.28,6.12-2.18,5.21,1.44
		C650.69,831.01,650.27,832.9,649.87,834.56L649.87,834.56z M655.25,815.49c-1.91,1.41-5.15-0.41-4.09-3.22
		c0.45-1.14,0.93-2.28,1.42-3.4c-0.24-1.33,0.61-2.41,1.7-2.85c1.84-1.21,4.95,0.43,4.08,3.11c0.42,1.15,0.84,2.3,1.3,3.43
		C660.76,815.51,657.09,817.4,655.25,815.49L655.25,815.49z M666.09,795.93c-2.39,2.87-6.35-0.42-4.35-3.22
		c1.1-1.51,2.28-2.99,3.52-4.39c2.17-2.6,6.45,0.7,4.06,3.57C668.18,793.18,667.11,794.54,666.09,795.93L666.09,795.93z
		 M680.89,781.69c-3.42,1.95-5.71-2.95-2.94-4.54c1.59-1.04,3.16-1.99,4.83-2.9c2.93-1.67,5.81,2.91,2.55,4.77
		C683.8,779.84,682.33,780.74,680.89,781.69L680.89,781.69z M699.77,773.28c-3.56,0.89-4.73-4.39-1.38-5.22
		c1.8-0.49,3.59-0.91,5.42-1.3c3.15-0.79,4.83,4.36,1.06,5.3C703.16,772.41,701.46,772.82,699.77,773.28L699.77,773.28z
		 M720.58,769.96c-3.17,0.4-4.28-4.91-0.38-5.39c1.84-0.13,3.66-0.22,5.5-0.28c3.77,0,3.52,5.4,0.16,5.4
		C724.1,769.74,722.35,769.83,720.58,769.96L720.58,769.96z M741.61,770.37c-3.46-0.43-2.88-5.81,0.72-5.36
		c1.85,0.24,3.66,0.53,5.49,0.87c3.4,0.85,2.64,5.76-1.02,5.3C745.07,770.86,743.35,770.59,741.61,770.37L741.61,770.37z
		 M761.65,775.78c-3.14-1.34-1.18-6.38,2.23-4.92c1.77,0.8,3.37,1.66,5.07,2.58c3.02,1.72,0.43,6.47-2.73,4.66l2.73-4.66l-2.73,4.66
		C764.71,777.25,763.22,776.49,761.65,775.78L761.65,775.78z M778.06,787.69c-2.35-2.82,1.88-6.18,4.09-3.53
		c1.25,1.41,2.44,3,3.49,4.57c1.97,3.46-2.95,5.7-4.52,2.97C780.19,790.31,779.17,788.94,778.06,787.69L778.06,787.69z
		 M786.89,805.6c-0.45-3.61,4.44-4.46,5.31-1c0.37,1.89,0.61,3.77,0.75,5.69c0,3.6-4.95,3.91-5.39,0.33
		C787.43,808.92,787.22,807.27,786.89,805.6L786.89,805.6z M785.78,825.66c0.77-3.07,6.12-2.22,5.16,1.62
		c-0.57,1.83-1.21,3.58-1.97,5.34c-1.39,3.24-6.37,1.15-4.95-2.15C784.69,828.86,785.27,827.31,785.78,825.66L785.78,825.66z
		 M775.79,843.36c2.15-2.58,6.45,0.69,4.05,3.58c-1.23,1.4-2.57,2.81-3.94,4.08c-2.81,2.34-6.17-1.46-3.68-3.96
		C773.47,845.9,774.67,844.64,775.79,843.36L775.79,843.36z M759.65,856.09c2.95-1.69,5.8,2.91,2.57,4.76
		c-1.65,0.89-3.33,1.73-5.04,2.48c-3.34,1.43-5.38-3.57-2.18-4.95C756.59,857.68,758.12,856.92,759.65,856.09L759.65,856.09z
		 M740.2,863.38c3.19-0.8,4.82,4.36,1.1,5.29c-1.83,0.4-3.65,0.75-5.51,1.02c-3.57,0.45-4.19-4.92-0.7-5.36
		C736.82,864.03,738.47,863.75,740.2,863.38L740.2,863.38z M719.56,864.72c3.67,0.46,2.84,5.8-0.56,5.37
		c-1.83-0.16-3.81-0.47-5.61-0.83c-3.73-0.93-2.09-6.09,1.09-5.29C716.11,864.29,717.89,864.58,719.56,864.72L719.56,864.72z
		 M699.76,859.1c3.2,1.83,0.88,6.25-2.35,4.86c-1.69-0.8-3.36-1.71-4.98-2.65c-2.98-1.7-0.42-6.47,2.78-4.64
		C696.66,857.54,698.23,858.38,699.76,859.1L699.76,859.1z M682.71,847.33c2.67,2.67-1.33,6.31-3.7,3.94
		c-1.36-1.27-2.71-2.6-3.97-3.96c-2.48-2.98,1.9-6.14,3.99-3.65C680.19,844.93,681.45,846.16,682.71,847.33L682.71,847.33z
		 M669.31,831.28c1.95,3.42-2.95,5.71-4.54,2.94c-1.01-1.55-1.97-3.12-2.9-4.72c-1.79-3.13,2.93-5.76,4.68-2.71
		C667.44,828.31,668.35,829.8,669.31,831.28L669.31,831.28z M653.62,792.35c0.78,3.14-4.36,4.83-5.3,1.06
		c-0.37-1.81-0.7-3.61-1.01-5.43c-0.46-3.72,4.92-4.17,5.34-0.82C652.98,788.89,653.27,790.62,653.62,792.35L653.62,792.35z
		 M651.04,771.37c0,3.77-5.4,3.52-5.4,0.17c-0.07-1.84-0.11-3.66-0.11-5.5c0-3.54,5.4-3.56,5.4,0.01
		C650.94,767.83,650.97,769.59,651.04,771.37L651.04,771.37z M651.87,750.21c-0.44,3.53-5.8,2.86-5.36-0.67
		c0.22-1.82,0.47-3.66,0.77-5.47c0.41-3.23,5.81-2.93,5.33,0.92C652.27,746.63,652.07,748.53,651.87,750.21L651.87,750.21z
		 M656.08,729.48c-0.8,3.18-6.12,2.2-5.18-1.53c0.51-1.76,1.06-3.51,1.63-5.25c1.33-3.55,6.29-1.4,5.12,1.72
		C657.1,726.1,656.57,727.77,656.08,729.48L656.08,729.48z M663.59,709.73c-1.97,3.45-6.41,0.35-4.85-2.39
		c0.8-1.66,1.61-3.29,2.48-4.92c1.85-3.24,6.44-0.38,4.75,2.56C665.14,706.55,664.36,708.13,663.59,709.73L663.59,709.73z
		 M674.25,691.46c-2.06,2.88-6.47-0.24-4.4-3.14c1.06-1.5,2.13-2.99,3.25-4.45c2.43-2.92,6.4,0.76,4.27,3.31
		C676.3,688.59,675.27,690.01,674.25,691.46L674.25,691.46z M687.74,675.14c-2.57,2.57-6.33-1.31-3.86-3.78
		c1.28-1.32,2.59-2.6,3.91-3.87c2.39-2.39,6.36,1.28,3.71,3.93C690.23,672.63,688.97,673.87,687.74,675.14L687.74,675.14z
		 M703.61,661.1c-2.47,2.06-6.24-1.82-3.24-4.32c1.46-1.11,2.94-2.2,4.44-3.25c2.82-2.01,6.05,2.32,3.08,4.44
		C706.44,658.98,705.02,660.03,703.61,661.1L703.61,661.1z M721.35,649.44c-3.03,1.73-5.78-2.92-2.63-4.72
		c1.59-0.9,3.21-1.78,4.83-2.64c2.82-1.61,5.82,2.89,2.46,4.81C724.45,647.69,722.88,648.57,721.35,649.44L721.35,649.44z
		 M740.48,640.1c-3.19,1.37-5.42-3.56-2.06-4.99c1.69-0.71,3.39-1.39,5.1-2.05c3.34-1.25,5.23,3.81,1.9,5.06
		C743.76,638.73,742.11,639.41,740.48,640.1L740.48,640.1z M760.55,632.93c-3.7,0.92-4.71-4.39-1.51-5.19l5.25-1.51
		c3.58-0.89,4.73,4.39,1.4,5.22L760.55,632.93L760.55,632.93z M781.29,627.71c-3.17,0.79-4.82-4.36-1.08-5.3
		c1.78-0.37,3.57-0.7,5.35-1.04c3.92-0.49,4.13,4.92,0.98,5.31C784.8,627.02,783.04,627.35,781.29,627.71z" clip-rule="evenodd" class="color859ac6 svgShape"></path><polygon fill="#c4d7eb" fill-rule="evenodd" points="1257.28 487.76 1382.13 586.8 1328.87 625.23" clip-rule="evenodd" class="colorc4d1eb svgShape"></polygon><polygon fill="#c4d7eb" fill-rule="evenodd" points="1408.89 569.17 1261.52 489.33 1453.2 560.27" clip-rule="evenodd" class="colorc4d1eb svgShape"></polygon><polygon fill="#9dbbd9" fill-rule="evenodd" points="1408.89 569.17 1386.35 633.32 1382.13 586.8 1257.28 487.76 1261.52 489.33" clip-rule="evenodd" class="color9db2d9 svgShape"></polygon><polygon fill="#85a5c6" fill-rule="evenodd" points="1386.35 633.32 1358.54 603.83 1382.13 586.8" clip-rule="evenodd" class="color859ac6 svgShape"></polygon><path fill="#85a5c6" fill-rule="evenodd" d="M1407.64,618.55c-3.37-1.92-0.36-6.42,2.46-4.81c1.65,0.85,3.25,1.72,4.86,2.65c3.08,1.76,0.42,6.46-2.69,4.69
		C1410.74,620.19,1409.21,619.36,1407.64,618.55L1407.64,618.55z M1834.14,697.24c2.48-2.98,6.39,0.77,4.31,3.26l-3.33,4.34
		c-2.39,2.86-6.41-0.75-4.24-3.35L1834.14,697.24L1834.14,697.24z M1820.48,713.59c2.65-2.65,6.31,1.33,3.92,3.71
		c-1.25,1.34-2.53,2.65-3.82,3.95c-2.49,2.49-6.34-1.31-3.8-3.84C1818.03,716.16,1819.26,714.88,1820.48,713.59L1820.48,713.59z
		 M1805.02,728.21c2.72-2.27,6.19,1.88,3.45,4.16c-1.4,1.17-2.83,2.33-4.27,3.46c-2.55,2.13-6.23-1.84-3.31-4.27
		C1802.29,730.46,1803.66,729.35,1805.02,728.21L1805.02,728.21z M1787.9,740.84c3.4-1.94,5.71,2.95,2.92,4.54
		c-1.53,1-3.09,1.96-4.66,2.91c-3.2,1.83-5.75-2.94-2.78-4.64C1784.9,742.73,1786.41,741.81,1787.9,740.84L1787.9,740.84z
		 M1769.36,751.24c3.52-1.51,5.35,3.58,2.32,4.88c-1.65,0.79-3.31,1.56-4.98,2.31c-3.34,1.43-5.39-3.57-2.17-4.95
		C1766.15,752.75,1767.76,752.01,1769.36,751.24L1769.36,751.24z M1749.67,759.3c3.11-1.16,5.27,3.79,1.71,5.12
		c-1.73,0.58-3.47,1.15-5.21,1.69c-3.78,0.94-4.7-4.39-1.56-5.17C1746.3,760.42,1747.99,759.87,1749.67,759.3L1749.67,759.3z
		 M1729.14,764.97c3.21-0.8,4.81,4.36,1.12,5.29c-1.79,0.38-3.58,0.73-5.37,1.07c-3.91,0.49-4.13-4.92-0.97-5.32
		C1725.66,765.69,1727.41,765.34,1729.14,764.97L1729.14,764.97z M1708.09,768.28c3.37-0.42,4.24,4.92,0.54,5.38
		c-1.82,0.18-3.65,0.34-5.47,0.48c-3.15,0.39-4.28-4.9-0.36-5.39L1708.09,768.28L1708.09,768.28z M1686.8,769.29
		c3.5,0,3.57,5.4-0.05,5.4c-1.82,0-3.65-0.04-5.47-0.1c-3.34,0-3.6-5.4,0.18-5.4C1683.24,769.25,1685.02,769.29,1686.8,769.29
		L1686.8,769.29z M1665.5,768.1c3.62,0.45,2.85,5.8-0.6,5.37c-1.81-0.19-3.62-0.41-5.43-0.65c-3.45-0.43-2.88-5.8,0.73-5.35
		C1661.97,767.69,1663.73,767.91,1665.5,768.1L1665.5,768.1z M1644.44,764.75c3.66,0.92,2.11,6.1-1.14,5.28
		c-1.78-0.38-3.56-0.78-5.33-1.2c-3.51-0.88-2.13-6.1,1.26-5.25C1640.96,763.98,1642.69,764.38,1644.44,764.75L1644.44,764.75z
		 M1623.84,759.26c3.57,1.34,1.39,6.29-1.7,5.13c-1.73-0.57-3.46-1.14-5.17-1.75c-3.43-1.29-1.42-6.3,1.82-5.09
		C1620.46,758.14,1622.14,758.71,1623.84,759.26L1623.84,759.26z M1603.97,751.59c3.09,1.33,1.18,6.38-2.27,4.9
		c-1.66-0.76-3.3-1.54-4.95-2.34c-1.55-0.88-1.77-2.26-1.31-3.38l-0.87,0.18c-3.93,0.49-4.13-4.92-0.99-5.31
		c1.72-0.35,3.41-0.73,5.12-1.16c3.43-0.86,4.77,4.37,1.3,5.25L1603.97,751.59L1603.97,751.59z M1585.23,741.59
		c2.82,1.61,0.47,6.48-2.9,4.56c-1.55-0.98-3.11-1.97-4.62-3.01c-2.98-2.13,0.26-6.46,3.07-4.44
		C1582.25,739.69,1583.73,740.65,1585.23,741.59L1585.23,741.59z M1568.25,728.98c2.55,2.13-0.69,6.46-3.61,4.03
		c-1.38-1.22-2.72-2.49-4.04-3.78c-2.55-2.55,1.31-6.33,3.79-3.84C1565.66,726.61,1566.93,727.82,1568.25,728.98L1568.25,728.98z
		 M1554.27,713.42c1.99,2.79-2.31,6.06-4.46,3.05c-1.07-1.53-2.06-3.14-3.01-4.75c-1.77-3.1,2.93-5.77,4.69-2.69
		C1552.36,710.52,1553.28,712.01,1554.27,713.42L1554.27,713.42z M1545.74,694.83c0.81,3.26-4.37,4.8-5.28,1.15
		c-0.43-1.88-0.74-3.7-0.97-5.61c-0.43-3.41,4.92-4.23,5.37-0.57C1545.07,691.52,1545.35,693.15,1545.74,694.83L1545.74,694.83z
		 M1546.02,674.79c-0.79,3.17-6.12,2.2-5.18-1.54c0.52-1.84,1.1-3.64,1.84-5.41c1.41-3.29,6.37-1.14,4.97,2.12
		C1546.99,671.5,1546.48,673.18,1546.02,674.79L1546.02,674.79z M1555.45,656.51c-2.4,2.88-6.34-0.42-4.35-3.2
		c1.09-1.5,2.2-2.96,3.37-4.4c2.32-2.78,6.42,0.73,4.18,3.42C1557.54,653.7,1556.49,655.09,1555.45,656.51L1555.45,656.51z
		 M1569.65,641.31c-2.55,2.13-6.23-1.84-3.31-4.27c1.49-1.17,2.97-2.24,4.55-3.29c3.44-1.97,5.7,2.95,2.96,4.52
		C1572.4,639.24,1571.02,640.23,1569.65,641.31L1569.65,641.31z M1587.76,631.95c-3.54,0.89-4.74-4.39-1.38-5.23
		c1.84-0.5,3.73-0.87,5.61-1.15c3.62-0.45,4.18,4.92,0.73,5.36C1591.08,631.16,1589.36,631.51,1587.76,631.95L1587.76,631.95z
		 M1607.92,631.38c-3.68-0.92-2.1-6.09,1.12-5.29c1.84,0.37,3.72,0.85,5.5,1.43c3.24,1.21,1.94,6.04-1.67,5.14
		C1611.28,632.14,1609.57,631.71,1607.92,631.38L1607.92,631.38z M1626.74,639.36c-3.03-2.16,0.27-6.45,3.03-4.47
		c1.57,1.05,3.07,2.14,4.55,3.32c2.8,2.34-0.74,6.42-3.41,4.2C1629.6,641.33,1628.15,640.31,1626.74,639.36L1626.74,639.36z
		 M1641.86,653.47c-2.12-2.55,1.84-6.23,4.28-3.3c1.15,1.49,2.24,3,3.28,4.56c1.96,3.43-2.96,5.71-4.53,2.95
		C1643.94,656.24,1642.91,654.83,1641.86,653.47L1641.86,653.47z M1651.86,671.55c-1.2-3.21,3.8-5.26,5.1-1.79
		c0.64,1.77,1.18,3.58,1.66,5.39c0.87,3.49-4.38,4.75-5.24,1.34C1652.94,674.83,1652.44,673.17,1651.86,671.55L1651.86,671.55z
		 M1655.07,691.74c0-3.22,5.4-3.63,5.4,0.27c-0.08,1.9-0.25,3.8-0.55,5.67c-0.41,3.29-5.81,2.91-5.34-0.87
		C1654.84,695.15,1655,693.43,1655.07,691.74L1655.07,691.74z M1649.77,711.27c1.84-3.22,6.44-0.38,4.75,2.57
		c-0.88,1.66-1.91,3.35-2.99,4.89c-2.08,2.92-6.46-0.25-4.41-3.13C1648.07,714.23,1648.98,712.74,1649.77,711.27L1649.77,711.27z
		 M1636.59,726.81c2.58-2.15,6.22,1.84,3.33,4.25c-1.48,1.17-2.95,2.27-4.51,3.33c-3.25,1.86-5.81-2.49-3.01-4.49
		C1633.86,728.91,1635.22,727.89,1636.59,726.81L1636.59,726.81z M1618.59,737.41c3.37-1.44,5.36,3.58,2.19,4.94
		c-1.68,0.75-3.36,1.47-5.06,2.17c-3.34,1.25-5.3-3.61-2.01-5.02C1615.36,738.83,1616.98,738.13,1618.59,737.41L1618.59,737.41z
		 M1577.98,747.3c-1.74,0-3.49-0.01-5.22-0.13c-3.16-0.4-4.28,4.9-0.37,5.39c1.85,0.12,3.72,0.15,5.58,0.14
		C1581.54,752.71,1581.52,747.3,1577.98,747.3L1577.98,747.3z M1557.34,744.61c3.27,0.82,2.18,6.11-1.45,5.21
		c-1.74-0.44-3.63-1.08-5.33-1.68c-3.43-1.29-1.42-6.3,1.82-5.09C1553.96,743.6,1555.71,744.2,1557.34,744.61L1557.34,744.61z
		 M1538.13,736.44c3.05,1.74,0.42,6.47-2.71,4.67c-1.58-0.9-3.22-1.88-4.74-2.9c-2.73-1.56-0.49-6.49,2.97-4.51
		C1535.1,734.66,1536.62,735.58,1538.13,736.44L1538.13,736.44z M1520.91,724.22c2.7,2.25-0.71,6.43-3.49,4.12
		c-1.4-1.18-2.77-2.38-4.14-3.6c-2.55-2.12,0.68-6.46,3.61-4.02C1518.22,721.91,1519.55,723.08,1520.91,724.22L1520.91,724.22z
		 M1505.45,709.55c2.41,2.41-1.28,6.36-3.91,3.73l-3.73-3.97c-2.5-2.99,1.91-6.15,3.98-3.66
		C1503,706.96,1504.21,708.27,1505.45,709.55L1505.45,709.55z M1491.13,693.57c2.32,2.78-1.88,6.18-4.12,3.49l-3.49-4.13
		c-2.3-2.76,1.86-6.2,4.14-3.48L1491.13,693.57L1491.13,693.57z M1477.34,676.98c2.26,2.71-1.87,6.2-4.17,3.44l-3.43-4.17
		c-2.26-2.71,1.87-6.2,4.17-3.44L1477.34,676.98L1477.34,676.98z M1463.46,660.34c2.34,2.8-1.88,6.18-4.11,3.51l-3.51-4.06
		c-2.38-2.86,1.89-6.17,4.07-3.56L1463.46,660.34L1463.46,660.34z M1448.89,644.16c2.43,2.43-1.28,6.36-3.89,3.75l-3.74-3.81
		c-2.55-2.55,1.31-6.33,3.8-3.85L1448.89,644.16L1448.89,644.16z M1432.95,629.15c2.73,2.28-0.73,6.43-3.46,4.15
		c-1.33-1.12-2.73-2.28-4.12-3.33c-2.95-2.46,0.76-6.4,3.29-4.29C1430.11,626.8,1431.55,627.97,1432.95,629.15z" clip-rule="evenodd" class="color859ac6 svgShape"></path><path fill="#79b9f9" fill-rule="evenodd" d="M346.51,1374.03c0,0-24.98,18.03-28.91,23.38c-5.66,7.75,42.3,22.21,37.08,13.15
		c-1.2-2.07-4.65-9.11-4.81-9.77c-0.79-3.71,9.38-13.61,9.38-13.61L346.51,1374.03z" clip-rule="evenodd" class="colorf9af79 svgShape"></path><path fill="#0e1c52" fill-rule="evenodd" d="M367.65,1425.72l-16.96-23.99c0,0-10.57-2.44-21.46-14.69c0,0-9.77,3.71-15.77,11.83
		c0,0,11.36,12.21,28.85,26.01c0,0,10.37,9.15,24.69,14.04C381.34,1443.75,367.65,1425.72,367.65,1425.72z" clip-rule="evenodd" class="color0e2952 svgShape"></path><path fill="#79b9f9" fill-rule="evenodd" d="M137.78 1045.86c0 0 3.07 2.72 4.16 3.57 1.27.94 5.31 3.57 5.31 3.57s14.58 8.26 15.07 7.18c.49-1.08.48-4.23-.24-5.07-.72-.8-2.82-1.69-3.54-2.49-.72-.84-.97-2.49-.04-3.43.93-.94 5.91 1.78 5.91 1.78s4.03 2.25 5.72 4.98c5.85 9.34 4.08 9.91 4.85 11.08.93 1.41 21.37 10.71 21.37 10.71s61.13 25.4 64.42 26.81h.05c.45 2.82-1.07 5.4-1.85 7.94-1.46 8.73-4.06 9.29-6.04 17.7-9.38-4.74-74.27-40.47-80.88-44.23 0 0-9.88-1.69-16.05-2.91-6.18-1.27-11.56-5.21-13.25-5.82-.26-.09-5.78-2.44-11.86-7.18-5.23-4.04 1.53-2.54 1.53-2.54s10.99 5.87 11.29 4.93c.22-.7-5.97-3.57-11.81-7.98-1.5-1.13-2.98-2.25-4.33-3.33-3.54-2.72-2.92-5.63 1.23-3.33 1.47.85 3.87 2.25 5.45 3.47 1.7 1.36 3.68 2.07 5.29 2.96 3.18 1.83 5.47 3.19 5.47 3.05 0-.24.87-.33-.69-1.6-1.86-1.5-6.53-3.85-9.11-6.29-1.47-1.36-4.71-4.08-4.71-4.08s-4.15-4.93-3.95-5.26c1.1-1.78 4.87.85 6.62 2.96 1.8.8 5.13 3.76 5.13 3.76s8.02 4.46 8.64 3.33c.26-.47-4.35-3.76-8.36-7.7-3.74-3.66-6.93-7.93-6.34-8.78C133.21 1042.25 137.78 1045.86 137.78 1045.86zM438.05 835.63c0 0 .83 3.85 1.01 5.16.2 1.55.46 6.24.46 6.24s-.11 16.39-1.33 16.34c-1.21-.05-3.99-1.46-4.35-2.44-.36-.99-.04-3.24-.4-4.23-.36-.98-1.72-1.92-3.01-1.55-1.29.42-1.42 5.96-1.42 5.96s-.08 4.51 1.45 7.18c5.3 9.25 6.69 7.98 7.32 9.16.77 1.45-1.46 23.43-1.46 23.43s-8.73 64.65-9.17 68.12l-.03.05c2.27 1.64 5.34 1.46 7.94 1.88 8.44 2.58 10.28.56 18.71 2.58.59-10.33 2.12-82.82 2.2-90.24 0 0 3.54-9.39 5.57-15.35 2.04-5.96 1.33-12.39 1.65-14.13.05-.28.77-6.15-.3-13.52-.91-6.38-3.01.19-3.01.19s-.46 12.21-1.42 12.07c-.75-.14-.1-6.81-1.04-13.85-.23-1.83-.47-3.61-.7-5.26-.64-4.32-3.5-5.07-3.57-.42-.03 1.64-.02 4.37.29 6.29.31 2.11-.09 4.13-.09 5.96-.01 3.57.03 6.15-.13 6.1-.19-.1-.69.61-1.01-1.27-.38-2.35-.09-7.46-.92-10.8-.46-1.88-1.2-5.92-1.2-5.92s-2.27-5.82-2.66-5.78c-2.12.19-1.74 4.65-.76 7.09-.2 1.92.69 6.15.69 6.15s-.13 8.97-1.41 9.06c-.55 0-1.13-5.49-2.56-10.75-1.33-4.88-3.48-9.58-4.51-9.39C437.17 829.99 438.05 835.63 438.05 835.63z" clip-rule="evenodd" class="colorf9af79 svgShape"></path><path fill="#0e1c52" fill-rule="evenodd" d="M308.31,1188.96l3.94,19.53l99.32,90.33l-71.08,71.97l19.18,19.58c0,0,105-77.09,108.78-87.18
		c5.84-15.54-75.26-118.59-75.26-118.59L308.31,1188.96z" clip-rule="evenodd" class="color0e2952 svgShape"></path><path fill="#79b9f9" fill-rule="evenodd" d="M238.71,1426.01c0,0-24.98,18.03-28.91,23.38c-5.67,7.75,42.3,22.21,37.07,13.15
		c-1.2-2.07-4.65-9.06-4.81-9.76c-0.79-3.71,9.38-13.62,9.38-13.62L238.71,1426.01z" clip-rule="evenodd" class="colorf9af79 svgShape"></path><path fill="#0e1c52" fill-rule="evenodd" d="M259.88,1477.79l-16.96-23.99c0,0-11.27-2.02-22.13-14.23c0,0-9.09,3.29-15.1,11.36
		c0,0,11.35,12.25,28.84,26.01c0,0,10.38,9.2,24.7,14.04C273.56,1495.82,259.88,1477.79,259.88,1477.79z" clip-rule="evenodd" class="color0e2952 svgShape"></path><path fill="#021b79" fill-rule="evenodd" d="M311.71,1198.02l4.46,123.29l-83.97,102.96l19.68,18.12c0,0,97.49-83.66,108.19-106.95
		c6.64-14.51,28.98-145.12,28.98-145.12L311.71,1198.02z" clip-rule="evenodd" class="color20386f svgShape"></path><path fill="#ffffff" fill-rule="evenodd" d="M391.82,1187.93c-8.08-18.26-7.15-148.92-38.59-179.53c-11.05,1.83-18.94,2.91-20.79,3.38
		c-1.63,13.47-3.44,62.86-4.55,108.12c-0.74,30.19,0.03,61.83-3.68,78.5C321.89,1208.73,399.19,1204.55,391.82,1187.93z" clip-rule="evenodd" class="colorffffff svgShape"></path><path fill="#0575e6" fill-rule="evenodd" d="M306.72 1018.54c-8.83 1.97-15.31 6.1-26.87 23.19-11.08 16.39-35.67 52.49-35.67 52.49l-64.77-28.78-3.02 32.82c0 0 73.26 38.08 83.59 34.65 10.35-3.43 36.76-41.31 38.91-44.18.49-.66-1.85 45.78-1.85 53.15 0 7.32-11.99 66.39-11.99 66.39s35.63 8.78 42.59-7.18c21.32-48.83 4.95-189.35 4.95-189.35S313.08 1017.08 306.72 1018.54zM360.52 1016c0 0 14.45 38.64 24.95 33.43 10.5-5.26 67.8-67.7 68.4-70.61.58-2.91 4.67-76.71 4.67-76.71l-23.33-4.69-15.65 59.91c0 0-40.94 41.83-49.7 45.92C361.1 1007.32 360.52 1016 360.52 1016z" clip-rule="evenodd" class="color466fb5 svgShape"></path><path fill="#0575e6" fill-rule="evenodd" d="M394.96,1196.66c7.07,0,9.69-0.99,14.38-2.4c0,0-13.45-75.82-21.27-151.03c-3.09-29.72-5.97-41.88-18.22-39.72
		c-3.54,0.61-13.13,4.27-16.62,4.88c30.79,87.09,30.89,154.18,35.25,173.62C390.68,1191.78,392.58,1196.71,394.96,1196.66z" clip-rule="evenodd" class="color466fb5 svgShape"></path><path fill="#90c3f7" fill-rule="evenodd" d="M349.99,995.2l3.22,13.19c0,0,0.74,11.46-4.58,12.49c-6.41,1.22-15.95-8.36-15.95-8.36l-5.52-37.14
		L349.99,995.2z" clip-rule="evenodd" class="colorf7a390 svgShape"></path><path fill="#79b9f9" fill-rule="evenodd" d="M349.99,995.2l3.22,13.19c0,0,0.74,11.46-4.58,12.49c-6.41,1.22-15.95-8.36-15.95-8.36l-5.52-37.14
		L349.99,995.2z" clip-rule="evenodd" class="colorf9af79 svgShape"></path><path fill="#5878f2" fill-rule="evenodd" d="M327.21,975.53l22.78,19.67l2.4,9.86C343.69,1002.95,331.28,993.37,327.21,975.53z" clip-rule="evenodd" class="colorf27458 svgShape"></path><path fill="#79b9f9" fill-rule="evenodd" d="M350.06,941.4c5.51,0,10.46,3.8,12.4,9.3c1.6,4.55,3.67,11.32,4.97,19.06c2.41,14.27-5.72,27.32-12.78,28.4
		c-7.08,1.03-23.93-3.66-27.65-23.9c-1.61-8.64-3.7-20.05,3.42-26.01C335.96,943.61,343.74,941.4,350.06,941.4z" clip-rule="evenodd" class="colorf9af79 svgShape"></path><path fill="#021b79" fill-rule="evenodd" d="M329.29,989.71c0,0-24.94-22.25-26.02-39.63c-1.1-17.32,14.94-26.62,28.65-27.14
		c6.2-0.19,10.39,0.09,16.77,0.89c13.74,1.74,22.64,7.79,19.5,19.06c-4.2,15.12-32.71,2.35-38.53,7.04
		c-4.81,3.9,2.98,13.19-1.69,16.71c-4.39,3.38-2.15,2.25-0.71,8.59C328.72,981.59,329.29,989.71,329.29,989.71z" clip-rule="evenodd" class="color20386f svgShape"></path><path fill="#79b9f9" fill-rule="evenodd" d="M319.66,969.57c0.62,4.13,3.16,7.23,5.69,6.85c2.51-0.38,4.06-4.04,3.44-8.22c-0.62-4.18-3.16-7.23-5.68-6.85
		C320.59,961.73,319.06,965.39,319.66,969.57z" clip-rule="evenodd" class="colorf9af79 svgShape"></path><path fill="#021b79" fill-rule="evenodd" d="M1594.84,989.26c1.88-12.54,3.82-25.11,15.39-35.28c9.36-8.2,21.01-10.53,32.38-7.68
		c32.19,8.11,24.4,36.64,49.03,59.89c10.53,9.91,23.92,13.33,32.53,24.26c15.58,19.69,13.42,57.48-11.94,83.75
		c-62.12,64.36-120.09-15.45-124.24-34.37C1584.9,1065.76,1593.63,997.34,1594.84,989.26z" clip-rule="evenodd" class="color20386f svgShape"></path><path fill="#79b9f9" fill-rule="evenodd" d="M1583.33,1397.88c2.14,16.62,6.41,31.37,7,33.14c0.3,0.83,3.27,3.99,3.59,4.82
		c-2.63,19.97-15.42,31.18-27.31,39c2.97-9.96,9.07-21.25,8.46-23.54c-0.98-3.63-4.63-20.25-13.11-41.32
		C1571.56,1409.4,1575.26,1403.54,1583.33,1397.88z" clip-rule="evenodd" class="colorf9af79 svgShape"></path><path fill="#0e1c52" fill-rule="evenodd" d="M1611.65,1154.95l62.69,43.38c0,0-27.56,31.6-37.91,43.35c-10.34,11.75-63.57,55.28-64.34,57.91
		c-0.17,0.51,3.23,6.26,4.71,13.67c4,20.01,9.75,59.08,13.11,92.66c-5.85,7.15-19.51,9.77-27.57,12.49
		c-23.37-39.82-36.67-118.69-37.32-128.27C1524.01,1274.59,1611.65,1154.95,1611.65,1154.95z" clip-rule="evenodd" class="color0e2952 svgShape"></path><path fill="#79b9f9" fill-rule="evenodd" d="M1791.83,1246.03c-2.2,1.61-18.68,25.66-25.52,38.89c-6.49-5.85-10.03-12.15-17.57-16.57
		c7.62-8.51,23.11-29.46,24.89-34.77c4.2-12.52,7.29-13.95,7.29-13.95s39.47,21.21,41.66,25.79
		C1824.76,1249.96,1800.7,1239.31,1791.83,1246.03z" clip-rule="evenodd" class="colorf9af79 svgShape"></path><path fill="#0e1c52" fill-rule="evenodd" d="M1772.74,1236.39c-3.22-0.49,2.4-15.14,3.64-18.5c1.37-3.8,3.72-4.66,4.29-4.72
		c1.53-0.11,45.4,23.5,52.36,30.56c0.49,0.48,1.25,1.89,1.36,2.18c3.11,9.01-35.16,4.56-40.12,0.03
		C1789.86,1241.98,1787.24,1238.69,1772.74,1236.39z" clip-rule="evenodd" class="color0e2952 svgShape"></path><path fill="#021b79" fill-rule="evenodd" d="M1599.82,1169.74l50.57-25.4c-0.2,0.14,0.46,2.21,0.51,2.36c6.19,19.5,31.72,10.17,44.74,43.95
		c9.17,23.82,11.21,106.07,11.21,106.07s22.99-19.62,47.11-40.48c2.21-1.88,22.02,17.06,22.02,17.06
		c-30.38,60.89-82.46,87.44-89.48,85.22c-23.94-7.42-70.28-161.12-70.23-161.13C1611.09,1188.4,1599.82,1169.74,1599.82,1169.74z" clip-rule="evenodd" class="color20386f svgShape"></path><path fill="#79b9f9" fill-rule="evenodd" d="M1674.44 1031.85c0 0 63.01-17.63 77.09-20.71 14.09-3.03 62.56-22.68 64.41-23.49 1.86-.86 7.65-27.36 10.52-25.59 2.87 1.77-3.65 13.41-.1 14.77 3.56 1.41 32.61-13.11 32.93-10.61.61 4.65-17.43 9.6-16.76 11.72.68 2.12 18.33-6.95 20.69-3.82 2.36 3.19-17.53 7-17.79 8.84-.29 1.79 19.22-1.05 18.33 2.86-.49 2.09-17.41 2.09-16.6 4.49.82 2.4 13.82 4.48 13.05 6.9-.79 2.37-10.69-3.24-17.28-1.35-6.57 1.89-12.35-.22-21.87 6.01-9.53 6.23-40.51 32.18-63.13 37.92-22.61 5.79-72.58 18.62-72.58 18.62L1674.44 1031.85zM1600.21 1030.55c0 0-28.8-58.8-35.88-71.3-7.11-12.54-24.69-61.81-25.31-63.78-.62-1.92 15.28-23.91 12.06-24.86-3.23-.96-7.55 11.64-10.96 9.94-3.41-1.71-11.91-33.07-13.98-31.64-3.88 2.64 4.44 19.39 2.4 20.29-2.05.9-7.01-18.28-10.94-17.94-3.92.34 6.47 17.71 5.29 19.11-1.17 1.45-12.05-15.03-14.35-11.77-1.26 1.78 10.03 14.4 7.68 15.36-2.36 1.01-12.56-7.26-13.81-5.12-1.26 2.15 9.54 5.79 12.49 12 2.94 6.16 8.38 9.08 10.08 20.32 1.7 11.25 2.95 51.62 13.71 72.33 10.76 20.76 34.41 66.56 34.41 66.56L1600.21 1030.55z" clip-rule="evenodd" class="colorf9af79 svgShape"></path><path fill="#6d9dce" fill-rule="evenodd" d="M1586.4,1104.7c-1.63-11.21-5.12-41.4-4.88-45.18c-4.03-11.5-17.05-28.01-19.86-32.78
		c0,0,14.85-20.14,26.83-20.73c0,0,13.8,15.93,23.58,20.46c0.13-0.08,3.45,1.28,4.84,1.15c9.11-0.63,40.87-3.75,46.94-2.28
		l0.01,51.6c-1.51,3.09,0.29,62.3-2.91,67.43c-3.2,5.07-52.98,30.57-61.85,25.42C1598.74,1169.59,1589.68,1127.33,1586.4,1104.7z" clip-rule="evenodd" class="color6d96ce svgShape"></path><path fill="#6d9dce" fill-rule="evenodd" d="M1647.65,1027.22c1.38-0.86,4.69-1.87,9.57-2.25c14.42-1.21,38.69-3.41,38.69-3.41s7.96,30.53,3.66,38.29
		c0,0-37.6,8.37-36.31,11.57L1647.65,1027.22z" clip-rule="evenodd" class="color6d96ce svgShape"></path><path fill="#79b9f9" fill-rule="evenodd" d="M1636.42,1007.35c0,0-2.13,18.03-1.01,25.04c1.13,7.01-0.55,29.88-14.8,30.89
		c-14.23,1.01-4.6-28.65-3.72-35.66c0.9-6.96-0.18-28.31-0.18-28.31L1636.42,1007.35z" clip-rule="evenodd" class="colorf9af79 svgShape"></path><path fill="#5878f2" fill-rule="evenodd" d="M1617.1,1009.99c-0.15-5.85-0.39-10.68-0.39-10.68l19.71,8.04c0,0-0.43,3.66-0.82,8.36
		C1627.37,1018.04,1621.09,1015.2,1617.1,1009.99z" clip-rule="evenodd" class="colorf27458 svgShape"></path><path fill="#79b9f9" fill-rule="evenodd" d="M1640.17,957.65c0,0,7.64,3.82,10.94,12.9c3.29,9.03,1.8,33.12-16.84,40.13
		c-18.63,7.01-28.12-11.33-25.17-26.38C1612.05,969.26,1619.35,950,1640.17,957.65z" clip-rule="evenodd" class="colorf9af79 svgShape"></path><path fill="#79b9f9" fill-rule="evenodd" d="M1606.36,978.73c0.62,3.91,2.92,6.85,5.12,6.44c2.21-0.35,3.46-3.87,2.84-7.78c-0.64-3.96-2.94-6.84-5.14-6.49
		C1606.98,971.25,1605.71,974.77,1606.36,978.73z" clip-rule="evenodd" class="colorf9af79 svgShape"></path><path fill="#0e1c52" fill-rule="evenodd" d="M1590.47,1431.51c1.34-3.11,13,7.64,15.77,9.85c3.12,2.5,3.24,5.1,3.12,5.65
		c-0.29,1.53-33.06,39.51-42.37,44.43c-0.87,0.5-2.67,0.4-3.18,0.19c-4.93-2.34,4.79-34.38,11.68-40.43
		C1579.95,1447.34,1584.37,1445.38,1590.47,1431.51z" clip-rule="evenodd" class="color0e2952 svgShape"></path><path fill="#021b79" fill-rule="evenodd" d="M1637.85,956.61c0,0,5.21,26.43,13.77,30.69c8.56,4.26,5.88,16.26,5.88,16.26s5.67-27.9-1.42-36.29
		C1648.98,958.92,1637.85,956.61,1637.85,956.61z" clip-rule="evenodd" class="color20386f svgShape"></path><path fill="#79b9f9" fill-rule="evenodd" d="M1646.98,991.41c-2,3.61-1.73,7.71,0.63,9.16c2.34,1.4,5.88-0.38,7.87-3.99c2.01-3.62,1.73-7.71-0.61-9.11
		C1652.53,986.06,1648.99,987.79,1646.98,991.41z" clip-rule="evenodd" class="colorf9af79 svgShape"></path></svg>