<svg xmlns="http://www.w3.org/2000/svg" enable-background="new 0 0 1364 960" viewBox="0 0 1364 960" id="WelcomeBoard"><path fill="#bddbf9" d="M1227.847 357.569c0 0 .715-48.366-17.386-49.797-18.101-1.431-28.976 47.221-28.976 47.221l12.02 33.77L1227.847 357.569zM1147.367 696.634c-2.545 39.999-7.482 78.341-7.482 78.341s99.789 18.936 126.645 6.725c5.079-2.293 7.559-5.716 6.253-10.587-9.391-35.095-12.879-114.369-5.803-159.589 11.607-15.381 21.217-31.288 28.875-46.11 11.278-21.81 18.343-41.26 21.382-53.218.318-1.251 1.229-2.304 1.832-3.533 3.017-6.078 4.169-11.563 4.169-16.401-.022-14.087-9.906-22.753-12.671-25.024-3.697-3.061.877-10.686-1.525-22.029-2.391-11.333-16.127-12.858-17.004-17.004-.867-4.136 2.117-16.039-2.183-25.068-5.913-12.43-54.282-29.434-67.809-25.298 0 0 0 0-.011.011-7.076 2.183-23.214 26.779-37.607 50.553-.022.033-.033.055-.055.077-13.11 21.656-24.771 42.599-26.856 45.298-4.366 5.672 0 18.749 9.523 23.323 9.347 4.498 20.339-2.545 20.767-2.819-.066.11-.505.79-1.261 1.974 0 0 0 0-.011 0 0 .011 0 .022-.022.033 0 0 0 0 0 .011-2.008 3.159-6.166 9.786-11.212 18.365-16.949 28.853-43.882 79.866-32.835 95.817 1.393 2.018 2.523 4.981 3.412 8.711C1149.825 635.549 1149.276 666.563 1147.367 696.634z" class="colorf9bdc4 svgShape"></path><path fill="#b3d6f9" d="M1147.367,696.634l22.812,2.574c0,0-16.175-26.26-7.87-36.276c8.305-10.016,56.215,9.495,38.256-42.306
	c-18.115,10.628-28.09-1.211-54.69-1.434C1149.825,635.549,1149.276,666.563,1147.367,696.634z" class="colorf9b3bb svgShape"></path><path fill="#bddbf9" d="M136.153 364.486c0 0-.715-48.366 17.386-49.797 18.101-1.431 28.976 47.221 28.976 47.221l-12.02 33.77L136.153 364.486zM216.633 703.551c2.545 39.999 7.482 78.341 7.482 78.341s-99.789 18.936-126.645 6.725c-5.079-2.293-7.559-5.716-6.253-10.587 9.391-35.095 12.88-114.369 5.804-159.589-11.607-15.381-21.217-31.288-28.875-46.11-11.278-21.809-18.343-41.26-21.382-53.218-.318-1.251-1.229-2.304-1.832-3.533-3.017-6.078-4.169-11.563-4.169-16.401.022-14.087 9.906-22.753 12.671-25.024 3.697-3.061-.877-10.686 1.525-22.029 2.391-11.333 16.127-12.858 17.004-17.004.867-4.136-2.117-16.039 2.183-25.068 5.913-12.43 54.283-29.434 67.809-25.298 0 0 0 0 .011.011 7.076 2.183 23.214 26.779 37.607 50.553.022.033.033.055.055.077 13.11 21.656 24.772 42.599 26.856 45.298 4.366 5.672 0 18.749-9.523 23.323-9.347 4.498-20.34-2.545-20.767-2.819.066.11.505.79 1.262 1.974 0 0 0 0 .011 0 0 .011 0 .022.022.033 0 0 0 0 0 .011 2.008 3.159 6.166 9.786 11.212 18.365 16.95 28.852 43.882 79.866 32.835 95.817-1.393 2.018-2.523 4.981-3.412 8.711C214.175 642.467 214.724 673.48 216.633 703.551z" class="colorf9bdc4 svgShape"></path><path fill="#b3d6f9" d="M216.633,703.551l-22.812,2.575c0,0,16.175-26.26,7.87-36.277c-8.305-10.016-69.25,2.792-46.641-47.223
	c18.115,10.628,36.476,3.706,63.075,3.483C214.175,642.467,214.724,673.48,216.633,703.551z" class="colorf9b3bb svgShape"></path><path fill="#78bbff" d="M1180.414,653.719H173.842c-11.213,0-20.302-9.09-20.302-20.302V161.822c0-11.213,9.09-20.302,20.302-20.302
	h1006.572c11.213,0,20.302,9.09,20.302,20.302v471.594C1200.716,644.629,1191.626,653.719,1180.414,653.719z" class="colorff78d4 svgShape"></path><path fill="#65a8eb" d="M1180.413,141.52h-1.724c0.024,0.408,0.062,0.813,0.062,1.227v471.594c0,11.213-9.09,20.303-20.302,20.303
	H153.601c0.638,10.638,9.442,19.075,20.241,19.075h1006.572c11.213,0,20.302-9.09,20.302-20.303V161.823
	C1200.716,150.61,1191.626,141.52,1180.413,141.52z" class="coloreb65c0 svgShape"></path><path fill="#b3d6f9" d="M191.459,417.861c-12.606,9.446-99.622-24.073-103.546-47.621c-3.925-23.548,20.713-35.212,41.208-25.183
	c20.495,10.029,50.016,33.162,54.835,36.508C189.625,385.502,211.104,403.14,191.459,417.861z" class="colorf9b3bb svgShape"></path><path fill="#b3d6f9" d="M207.987,496.42c-3.726,13.508-17.212,11.854-25.023,9.089c-3.203-1.13-5.365-2.271-5.496-2.337
	c-0.011,0-0.011,0-0.011,0s0.011,0.011,0.033,0.033c0,0,0,0,0,0.011c0.362,0.395,3.335,3.719,6.286,8.36
	c1.876,2.94,3.752,6.418,4.926,10.005c2.019,6.122,2.03,12.561-3.346,17.213c-6.999,6.056-19.67-0.461-27.415-5.551
	c-3.752-2.458-6.341-4.575-6.594-4.783c0.22,0.296,2.556,3.335,4.432,7.405v0.011c2.666,5.793,4.399,13.669-2.238,18.716
	c-13.856,10.521-53.186-29.84-60.601-29.84c-7.405,0-39.725-3.719-39.725-3.719c-2.205-0.56-4.355-1.196-6.451-1.92
	c-0.614-1.13-1.229-2.304-1.832-3.533c-11.036-22.259,2.808-36.488,7.647-40.701c0.329-0.285,0.625-0.527,0.855-0.724
	c0.713-0.592,1.119-1.361,1.328-2.304c0.856-3.862-1.733-10.587,0.197-19.725c2.293-10.839,14.953-12.704,16.818-16.478
	c0.088-0.176,0.153-0.351,0.186-0.526c0.154-0.713,0.186-1.657,0.154-2.787c-0.099-5.376-1.525-14.81,2.029-22.281
	c5.913-12.43,47.547-28.743,61.073-24.607c0,0,6.626-0.68,6.747-0.68c0.56,0.702,19.659,24.596,37.607,50.553
	c0.022,0.033,0.033,0.055,0.055,0.077C197.478,461.232,211.421,483.971,207.987,496.42z" class="colorf9b3bb svgShape"></path><path fill="#a8ccf0" d="M183.775 511.576c-.472-.055-.921-.307-1.207-.735-12.748-19.385-48.644-70.366-61.392-73.35-7.427-1.733-32.276-2.347-49.4-1.843.088-.176.153-.351.186-.526.154-.713.186-1.657.154-2.787 17.399-.505 42.072.142 49.817 1.953 14.657 3.434 51.288 56.708 61.029 71.221-3.203-1.13-5.365-2.271-5.496-2.337-.011 0-.011 0-.011 0s.011.011.033.033c0 0 0 0 0 .011C177.851 503.612 180.825 506.935 183.775 511.576zM151.346 528.46c.22.296 2.556 3.335 4.432 7.405-10.729-14.844-38.781-50.794-49.993-52.999-11.201-2.194-40.569-6.264-53.208-7.987.329-.285.625-.527.855-.724.713-.592 1.119-1.361 1.328-2.304 13.439 1.843 40.866 5.672 51.66 7.789 13.746 2.687 44.98 44.65 51.518 53.602C154.188 530.785 151.599 528.668 151.346 528.46zM99.873 385.461c5.192 5.462 52.132 33.172 78.92 33.688C155.012 411.653 128.292 399.954 99.873 385.461z" class="colorf0a8b0 svgShape"></path><path fill="#c7e3ff" d="M175.611 384.122c-7.81 4.462-11.32 13.076-13.019 23.437 0 0 22.062 12.49 29.1 1.921C200.7 395.951 175.611 384.122 175.611 384.122zM196.238 470.988c-8.98.515-15.96 6.663-22.097 15.182 0 0 14.187 21.011 25.196 14.684C213.429 492.755 196.238 470.988 196.238 470.988zM174.994 507.505c-8.193 1.459-13.93 7.873-18.633 16.373 0 0 15.339 17.744 24.758 10.724C193.175 525.614 174.994 507.505 174.994 507.505zM143.742 528.438c-6.672 2.334-10.613 8.49-13.404 16.254 0 0 15.267 12.799 22.213 5.635C161.442 541.158 143.742 528.438 143.742 528.438z" class="colorffc7cd svgShape"></path><rect width="46.199" height="166.019" x="132.777" y="687.008" fill="#ffffff" transform="rotate(-84.255 155.888 770.01)" class="colorffffff svgShape"></rect><path fill="#ffffff" d="M239.434,695.506l-3.509,46.069L88.567,730.367l-4.726-0.354l3.509-46.069
	c29.184-3.287,74.989,1.13,125.906,7.937C221.86,693.036,230.606,694.248,239.434,695.506z" class="colorffffff svgShape"></path><path fill="#dbedff" d="M239.434,695.506l-3.509,46.069L88.567,730.367c2.722-6.053-4.074-9.747-4.074-9.747
	c14.86-7.08,95.412-8.117,120.967-3.419c10.836,1.992,9.771-16.287,7.797-25.32C221.86,693.036,230.606,694.248,239.434,695.506z" class="colore3dbff svgShape"></path><path fill="#0575e6" d="M247.285,734.696L238.376,960H52.743l21.623-239.357c3.313-0.12,6.714-0.197,10.203-0.241h0.417
	c4.004-0.055,8.14-0.044,12.386,0c0.636,0.011,1.284,0.011,1.931,0.033c32.44,0.461,71.408,3.643,113.052,9.172
	c2.106,0.274,4.202,0.559,6.319,0.855c0.154,0.022,0.318,0.044,0.472,0.066c5.771,0.79,11.574,1.624,17.432,2.512
	C240.132,733.577,243.708,734.126,247.285,734.696z" class="color7157c7 svgShape"></path><path fill="#021b79" d="M247.285,734.696L238.376,960h-16.017c2.315-56.488,7.207-144.955,6.176-159.458
	c-1.733-24.41-3.884-41.151-6.517-44.167c-0.252-0.296-0.56-0.582-0.922-0.889h-0.011c-0.625-0.527-1.393-1.042-2.304-1.569
	c-0.549-0.318-1.152-0.636-1.81-0.965c0-0.011-0.011-0.011-0.011-0.011c-1.711-0.855-3.763-1.733-6.11-2.622
	c-13.011-4.937-34.909-10.258-57.409-15.019c-19.506-4.114-39.472-7.811-54.458-10.466c-0.757-0.132-1.503-0.263-2.238-0.395
	c-3.533-0.614-6.758-1.174-9.578-1.656c-0.965-0.176-1.876-0.318-2.743-0.461c-6.308-1.075-10.06-1.679-10.06-1.679
	c3.313-0.12,6.714-0.197,10.203-0.241h0.417c4.004-0.055,8.14-0.044,12.386,0c0.636,0.011,1.284,0.011,1.931,0.033
	c32.44,0.461,71.408,3.643,113.052,9.172c2.106,0.274,4.202,0.559,6.319,0.855c0.154,0.022,0.318,0.044,0.472,0.066
	c5.771,0.79,11.574,1.624,17.432,2.512C240.132,733.577,243.708,734.126,247.285,734.696z" class="color583db3 svgShape"></path><path fill="#b3d6f9" d="M61.601 536.244c.614 8.744 6.742 27.102 6.545 36.087-11.278-21.809-18.343-41.26-21.382-53.218-.318-1.251-1.229-2.304-1.832-3.533-3.017-6.078-4.169-11.563-2.92-17.889l52.176 27.415C94.188 525.106 60.526 520.842 61.601 536.244zM1172.541 410.944c12.606 9.446 99.622-24.073 103.546-47.621 3.925-23.548-20.713-35.212-41.208-25.183-20.495 10.029-50.016 33.162-54.835 36.508C1174.375 378.585 1152.896 396.223 1172.541 410.944z" class="colorf9b3bb svgShape"></path><path fill="#b3d6f9" d="M1156.013,489.503c3.726,13.508,17.212,11.854,25.023,9.089c3.203-1.13,5.365-2.271,5.496-2.337
	c0.011,0,0.011,0,0.011,0s-0.011,0.011-0.033,0.033c0,0,0,0,0,0.011c-0.362,0.395-3.335,3.719-6.286,8.36
	c-1.876,2.94-3.752,6.418-4.926,10.005c-2.019,6.122-2.03,12.561,3.346,17.213c6.999,6.056,19.67-0.461,27.415-5.551
	c3.752-2.458,6.341-4.575,6.594-4.783c-0.22,0.296-2.556,3.335-4.432,7.405v0.011c-2.666,5.793-4.399,13.669,2.238,18.716
	c13.856,10.521,53.186-29.84,60.601-29.84c7.405,0,39.725-3.719,39.725-3.719c2.205-0.56,4.355-1.196,6.451-1.92
	c0.614-1.13,1.229-2.304,1.832-3.533c11.036-22.259-2.808-36.488-7.647-40.701c-0.329-0.285-0.625-0.527-0.855-0.724
	c-0.713-0.592-1.119-1.361-1.328-2.304c-0.856-3.862,1.734-10.587-0.197-19.725c-2.293-10.839-14.953-12.704-16.818-16.478
	c-0.088-0.176-0.154-0.351-0.186-0.526c-0.154-0.713-0.186-1.657-0.154-2.787c0.099-5.375,1.525-14.81-2.03-22.281
	c-5.913-12.43-47.547-28.743-61.073-24.607c0,0-6.626-0.68-6.747-0.68c-0.56,0.702-19.659,24.596-37.607,50.553
	c-0.022,0.033-0.033,0.055-0.055,0.077C1166.522,454.315,1152.579,477.054,1156.013,489.503z" class="colorf9b3bb svgShape"></path><path fill="#a8ccf0" d="M1180.224 504.659c.472-.055.921-.307 1.207-.735 12.748-19.385 48.644-70.366 61.392-73.35 7.427-1.733 32.276-2.347 49.401-1.843-.088-.176-.154-.351-.186-.526-.154-.713-.186-1.657-.154-2.787-17.399-.505-42.072.143-49.818 1.953-14.657 3.434-51.288 56.708-61.029 71.221 3.203-1.13 5.365-2.271 5.496-2.337.011 0 .011 0 .011 0s-.011.011-.033.033c0 0 0 0 0 .011C1186.148 496.694 1183.175 500.018 1180.224 504.659zM1212.654 521.543c-.22.296-2.556 3.335-4.432 7.405 10.729-14.843 38.781-50.794 49.993-52.999 11.201-2.194 40.569-6.264 53.207-7.987-.329-.285-.625-.527-.855-.724-.713-.592-1.119-1.361-1.328-2.304-13.439 1.843-40.866 5.672-51.66 7.789-13.746 2.687-44.98 44.65-51.518 53.602C1209.812 523.868 1212.401 521.751 1212.654 521.543zM1264.127 378.544c-5.193 5.462-52.132 33.172-78.92 33.688C1208.988 404.736 1235.708 393.037 1264.127 378.544z" class="colorf0a8b0 svgShape"></path><path fill="#c7e3ff" d="M1188.389 377.205c7.81 4.462 11.32 13.076 13.019 23.437 0 0-22.062 12.49-29.1 1.921C1163.3 389.034 1188.389 377.205 1188.389 377.205zM1167.761 464.07c8.98.515 15.96 6.663 22.097 15.182 0 0-14.187 21.011-25.196 14.684C1150.571 485.838 1167.761 464.07 1167.761 464.07zM1189.006 500.588c8.193 1.459 13.93 7.873 18.633 16.373 0 0-15.339 17.744-24.758 10.724C1170.825 518.697 1189.006 500.588 1189.006 500.588zM1220.258 521.521c6.672 2.334 10.613 8.49 13.404 16.254 0 0-15.267 12.799-22.213 5.635C1202.558 534.241 1220.258 521.521 1220.258 521.521z" class="colorffc7cd svgShape"></path><rect width="46.199" height="166.019" x="1185.024" y="680.091" fill="#ffffff" transform="rotate(-95.745 1208.111 763.081)" class="colorffffff svgShape"></rect><path fill="#ffffff" d="M1124.566,688.589l3.509,46.069l147.358-11.207l4.726-0.354l-3.509-46.069
	c-29.184-3.287-74.989,1.13-125.906,7.937C1142.14,686.119,1133.394,687.331,1124.566,688.589z" class="colorffffff svgShape"></path><path fill="#dbedff" d="M1124.566,688.589l3.509,46.069l147.358-11.207c-2.721-6.053,4.074-9.747,4.074-9.747
	c-14.86-7.08-95.412-8.117-120.967-3.419c-10.836,1.992-9.771-16.287-7.797-25.32
	C1142.14,686.119,1133.394,687.331,1124.566,688.589z" class="colore3dbff svgShape"></path><path fill="#0575e6" d="M1311.873,960h-185.974l-9.182-232.215c3.576-0.57,7.153-1.119,10.707-1.668
	c5.858-0.878,11.662-1.722,17.421-2.512c0.154-0.022,0.318-0.044,0.472-0.066c2.117-0.296,4.224-0.571,6.33-0.845
	c41.645-5.54,80.601-8.721,113.052-9.183c0.647-0.022,1.295-0.022,1.931-0.033c4.246-0.044,8.381-0.044,12.386,0h0.011
	c0.12,0,0.274,0.011,0.395,0h0.011c3.489,0.055,6.889,0.132,10.192,0.252L1311.873,960z" class="color7157c7 svgShape"></path><path fill="#021b79" d="M1289.625,713.732c0,0-3.741,0.603-10.049,1.668c-0.867,0.143-1.777,0.296-2.743,0.471
	c-0.011,0-0.011,0-0.022,0c-2.82,0.483-6.034,1.032-9.555,1.657c-0.735,0.132-1.481,0.263-2.238,0.395
	c-14.975,2.655-34.92,6.341-54.414,10.455h-0.011c-0.011,0-0.022,0.011-0.033,0.011c-22.5,4.761-44.398,10.071-57.409,15.019
	c-2.348,0.878-4.399,1.767-6.111,2.611c-0.011,0-0.011,0.011-0.022,0.011c-0.658,0.34-1.261,0.647-1.799,0.977
	c-0.911,0.527-1.689,1.053-2.315,1.568c-0.362,0.296-0.669,0.592-0.921,0.878c-2.644,3.017-4.783,19.769-6.517,44.167v0.011
	c-1.075,15.107,4.279,110.518,6.451,166.369h-16.017l-9.182-232.215c3.576-0.57,7.153-1.119,10.707-1.668
	c5.858-0.878,11.662-1.722,17.421-2.512c0.154-0.022,0.318-0.044,0.472-0.066c2.117-0.296,4.224-0.571,6.33-0.845
	c41.645-5.54,80.601-8.721,113.052-9.183c0.647-0.022,1.295-0.022,1.931-0.033c4.246-0.044,8.381-0.044,12.386,0h0.011
	c0.12,0,0.274,0.011,0.395,0h0.011C1282.922,713.534,1286.323,713.611,1289.625,713.732z" class="color583db3 svgShape"></path><path fill="#b3d6f9" d="M1302.399,529.327c-0.614,8.744-6.742,27.102-6.545,36.087c11.278-21.81,18.343-41.26,21.382-53.218
	c0.318-1.251,1.229-2.304,1.832-3.533c3.017-6.078,4.169-11.563,2.92-17.889l-52.176,27.415
	C1269.812,518.189,1303.474,513.924,1302.399,529.327z" class="colorf9b3bb svgShape"></path><path fill="#65a8eb" d="M230.608 352.744h34.316l12.355 65.456 18.082-65.456h34.192l18.127 65.368 12.368-65.368h34.137l-25.773 116.921h-35.428l-20.507-73.613-20.428 73.613h-35.428L230.608 352.744zM405.909 352.744h96.823v24.964h-60.614v18.583h56.227v23.847h-56.227v23.049h62.368v26.478h-98.577V352.744zM523.947 352.744h36.129v88.13h56.387v28.791h-92.516V352.744zM707.941 421.813l31.663 9.57c-2.127 8.88-5.477 16.297-10.049 22.251-4.574 5.956-10.249 10.448-17.028 13.479-6.779 3.031-15.407 4.547-25.881 4.547-12.708 0-23.089-1.848-31.144-5.539-8.055-3.693-15.008-10.188-20.856-19.487-5.85-9.298-8.773-21.2-8.773-35.707 0-19.34 5.144-34.205 15.433-44.594 10.288-10.388 24.843-15.582 43.665-15.582 14.727 0 26.306 2.979 34.733 8.933 8.427 5.955 14.688 15.101 18.782 27.436l-31.902 7.097c-1.117-3.562-2.287-6.167-3.509-7.816-2.021-2.764-4.494-4.891-7.417-6.38-2.925-1.488-6.195-2.233-9.81-2.233-8.189 0-14.463 3.294-18.823 9.879-3.297 4.886-4.945 12.56-4.945 23.02 0 12.96 1.966 21.842 5.902 26.648 3.934 4.806 9.464 7.208 16.589 7.208 6.911 0 12.135-1.941 15.672-5.822C703.78 434.84 706.346 429.204 707.941 421.813zM752.604 411.285c0-19.088 5.317-33.948 15.951-44.583 10.634-10.633 25.442-15.95 44.424-15.95 19.46 0 34.454 5.224 44.981 15.671 10.528 10.448 15.792 25.084 15.792 43.905 0 13.666-2.3 24.871-6.899 33.617-4.6 8.747-11.245 15.551-19.939 20.417-8.693 4.865-19.528 7.298-32.5 7.298-13.187 0-24.099-2.1-32.739-6.302-8.641-4.199-15.646-10.846-21.016-19.938C755.288 436.329 752.604 424.951 752.604 411.285zM788.733 411.444c0 11.804 2.193 20.286 6.58 25.443 4.387 5.157 10.354 7.735 17.905 7.735 7.762 0 13.77-2.525 18.024-7.576 4.253-5.052 6.38-14.116 6.38-27.197 0-11.006-2.221-19.047-6.66-24.125-4.44-5.077-10.462-7.616-18.064-7.616-7.285 0-13.134 2.579-17.546 7.735C790.939 391.001 788.733 399.535 788.733 411.444zM892.813 352.744h47.514l18.324 71.142 18.193-71.142h47.485v116.921H994.74V380.5l-22.798 89.166h-26.783L922.402 380.5v89.166h-29.589V352.744zM1047.298 352.744h96.823v24.964h-60.614v18.583h56.227v23.847h-56.227v23.049h62.368v26.478h-98.577V352.744z" class="coloreb65c0 svgShape"></path><path fill="#ffffff" d="M218.125 343.952h34.316l12.355 65.456 18.082-65.456h34.192l18.127 65.368 12.368-65.368h34.137l-25.773 116.921H320.5l-20.507-73.613-20.427 73.613h-35.428L218.125 343.952zM393.426 343.952h96.823v24.964h-60.614v18.583h56.227v23.847h-56.227v23.049h62.368v26.478h-98.577V343.952zM511.463 343.952h36.129v88.13h56.387v28.791h-92.516V343.952zM695.457 413.02l31.663 9.571c-2.127 8.88-5.477 16.297-10.049 22.251-4.574 5.956-10.249 10.448-17.028 13.479-6.779 3.031-15.407 4.547-25.881 4.547-12.708 0-23.089-1.848-31.144-5.539-8.055-3.693-15.008-10.188-20.856-19.487-5.85-9.298-8.773-21.2-8.773-35.707 0-19.341 5.144-34.205 15.433-44.594 10.288-10.388 24.843-15.582 43.665-15.582 14.727 0 26.306 2.979 34.733 8.933 8.427 5.955 14.688 15.101 18.782 27.436l-31.902 7.097c-1.117-3.562-2.287-6.167-3.509-7.816-2.021-2.763-4.494-4.891-7.417-6.38-2.925-1.488-6.195-2.233-9.81-2.233-8.189 0-14.463 3.294-18.823 9.879-3.297 4.886-4.945 12.56-4.945 23.02 0 12.959 1.966 21.842 5.902 26.648 3.934 4.806 9.463 7.208 16.589 7.208 6.911 0 12.136-1.941 15.672-5.822C691.296 426.047 693.862 420.411 695.457 413.02zM740.12 402.492c0-19.088 5.317-33.948 15.951-44.584 10.634-10.633 25.442-15.95 44.424-15.95 19.46 0 34.454 5.224 44.982 15.671 10.528 10.448 15.792 25.084 15.792 43.905 0 13.666-2.3 24.871-6.899 33.617-4.6 8.747-11.245 15.551-19.939 20.417-8.693 4.865-19.528 7.298-32.5 7.298-13.187 0-24.1-2.1-32.74-6.301-8.641-4.199-15.646-10.846-21.016-19.938C742.805 427.536 740.12 416.158 740.12 402.492zM776.249 402.652c0 11.804 2.193 20.286 6.58 25.443 4.387 5.157 10.354 7.735 17.905 7.735 7.762 0 13.77-2.525 18.024-7.576 4.253-5.052 6.381-14.116 6.381-27.197 0-11.005-2.221-19.047-6.66-24.125-4.44-5.077-10.462-7.616-18.064-7.616-7.285 0-13.134 2.58-17.546 7.735C778.455 382.208 776.249 390.743 776.249 402.652zM880.329 343.952h47.514l18.324 71.141 18.193-71.141h47.485v116.921h-29.589v-89.166l-22.798 89.166h-26.783l-22.756-89.166v89.166h-29.589V343.952zM1034.814 343.952h96.823v24.964h-60.614v18.583h56.227v23.847h-56.227v23.049h62.368v26.478h-98.577V343.952z" class="colorffffff svgShape"></path></svg>