<svg xmlns="http://www.w3.org/2000/svg" data-name="6" viewBox="0 0 4680 3120" id="Welcometoteam"><defs><linearGradient id="d" x1="1602.521" x2="1185.316" y1="1227.1" y2="1227.1" gradientUnits="userSpaceOnUse"><stop offset=".157"></stop><stop offset="1" stop-color="#ffffff" class="stopColorffffff svgShape"></stop></linearGradient><linearGradient id="f" x1="1602.521" x2="1185.316" y1="1227.1" y2="1227.1" gradientUnits="userSpaceOnUse"><stop offset=".157" stop-color="#84bdf7" class="stopColorf7c084 svgShape"></stop><stop offset="1" stop-color="#84bdf7" class="stopColorf7c084 svgShape"></stop></linearGradient><filter id="a" width="487.427" height="32766" x="1066.296" y="-9752" color-interpolation-filters="sRGB" filterUnits="userSpaceOnUse"><feFlood flood-color="#fff" result="bg"></feFlood><feBlend in="SourceGraphic" in2="bg"></feBlend></filter><filter id="c" width="487.427" height="890.874" x="1066.296" y="781.663" color-interpolation-filters="sRGB" filterUnits="userSpaceOnUse"><feFlood flood-color="#fff" result="bg"></feFlood><feBlend in="SourceGraphic" in2="bg"></feBlend></filter><mask id="e" width="487.427" height="890.874" x="1066.296" y="781.663" maskUnits="userSpaceOnUse"><g filter="url(#c)" mask="url(#b)" fill="#000000" class="color000000 svgShape"><polygon points="1067.395 870.748 1553.723 781.663 1553.723 1672.537 1066.296 922.329 1067.395 870.748" style="mix-blend-mode:multiply" fill="url(#d)"></polygon></g></mask></defs><g fill="#000000" class="color000000 svgShape"><path fill="#d7e8f9" d="M915.2004,2319.2075c-262.0944-48.4969-387.4944-289.8318-331.3576-439.8018,44.3853-118.5762,211.3411-204.2988,397.6291-174.7158-13.1327-266.8661,133.5439-493.1728,337.3823-554.2709,164.8042-49.3981,313.4859,25.2297,355.4563,48.1974,16.5469,9.9402,280.3031,162.6915,524.1475,30.1235,109.0091-59.2638,166.762-149.8457,192.7898-198.8146,225.3073-224.187,553.3039-233.5796,728.9868-72.2962,178.3048,163.6904,130.0679,439.25,126.5183,457.8759,360.2436-2.3895,592.5705,291.3948,554.2708,518.1228-29.433,174.2388-222.6547,332.3284-469.9253,349.4316Q2123.1493,2301.1335,915.2004,2319.2075Z" class="colord7d7f9 svgShape"></path><g fill="#000000" class="color000000 svgShape"><polygon fill="none" stroke="#000000" stroke-linecap="round" stroke-linejoin="round" stroke-width="2.926" points="1576.675 671.8 2369.451 605.825 3113.887 682.796 1576.675 671.8" class="colorStroke000000 svgStroke"></polygon><rect width="1647.819" height="981.454" x="1515.793" y="736.373" fill="#71adea" class="color7180ea svgShape"></rect><rect width="1571.96" height="890.874" x="1553.723" y="781.663" fill="#d2e4f7" class="colord2e1f7 svgShape"></rect><rect width="1696.192" height="48.379" x="1487.551" y="1697.877" fill="#a1b9d1" class="colorb8a1d1 svgShape"></rect><path fill="#bbdbfc" d="M3183.7422,743.2733H1487.5506c-17.5961-31.3631-22.1187-62.5717,0-93.465H3183.7422C3211.4727,676.4082,3205.0275,708.6219,3183.7422,743.2733Z" class="colorbbbbfc svgShape"></path><path fill="#84bdf7" d="M3066.0103,1260.8699v17.8954c-80.3703-8.1438-134.2193,8.8755-168.6917,26.1066-62.359,31.1893-70.2429,67.567-126.5183,80.3315-68.5297,15.5465-86.5597-31.6706-150.6132-20.0805-94.7229,17.1446-125.4984,133.0934-178.7317,120.4925-37.4655-8.8658-35.8486-69.5212-70.2914-74.3054-47.5736-6.6037-68.3759,106.6692-134.5469,116.4783-74.5946,11.0607-118.1823-122.5044-190.7839-112.4545-71.7451,9.915-87.5613,148.4377-148.6113,146.599-34.4714-1.0492-41.9704-45.5805-88.36-70.2913-61.9449-32.9893-153.597-.9048-213.9542,30.7658-.2213-5.901-.2599-11.85-.0672-17.8568,60.3567-31.69,152.0572-63.8128,214.0214-30.8042,46.3896,24.7107,53.8886,69.242,88.36,70.2816,61.05,1.8483,76.8662-136.6743,148.6113-146.599,72.6016-10.0403,116.1893,123.5248,190.7839,112.4642,66.171-9.819,86.9733-123.0821,134.5469-116.4784,34.4428,4.7842,32.8259,65.4396,70.2914,74.3055,53.2333,12.6007,84.0088-103.3578,178.7317-120.4925,64.0535-11.5902,82.0835,35.6268,150.6132,20.0804,56.2754-12.7645,64.1593-49.152,126.5183-80.3315C2931.791,1269.7454,2985.64,1252.7261,3066.0103,1260.8699Z" class="colorf7c084 svgShape"></path><path fill="#b7d8f9" d="M3066.0103,1278.7653v345.6809H1602.0118c1.1455-34.857-5.8528-67.7597-7.1041-102.0389,60.3572-31.6706,152.0093-63.7551,213.9542-30.7658,46.3896,24.7108,53.8886,69.2421,88.36,70.2913,61.05,1.8387,76.8662-136.684,148.6113-146.599,72.6016-10.0499,116.1893,123.5152,190.7839,112.4545,66.171-9.8091,86.9733-123.082,134.5469-116.4783,34.4428,4.7842,32.8259,65.4396,70.2914,74.3054,53.2333,12.6009,84.0088-103.3479,178.7317-120.4925,64.0535-11.5901,82.0835,35.627,150.6132,20.0805,56.2754-12.7645,64.1593-49.1422,126.5183-80.3315C2931.791,1287.6408,2985.64,1270.6215,3066.0103,1278.7653Z" class="colorb7cff9 svgShape"></path><ellipse cx="1785.124" cy="1471.935" fill="#ffffff" stroke="#000000" stroke-linecap="round" stroke-linejoin="round" stroke-width="2.926" rx="12.705" ry="12.426" class="colorffffff svgShape colorStroke000000 svgStroke"></ellipse><ellipse cx="1977.4" cy="1456.003" fill="#ffffff" stroke="#000000" stroke-linecap="round" stroke-linejoin="round" stroke-width="2.926" rx="12.705" ry="12.426" class="colorffffff svgShape colorStroke000000 svgStroke"></ellipse><ellipse cx="2116.782" cy="1438.131" fill="#5579ff" rx="12.705" ry="12.426" class="colorff8e55 svgShape"></ellipse><ellipse cx="2394.671" cy="1415.679" fill="#5579ff" rx="12.705" ry="12.426" class="colorff8e55 svgShape"></ellipse><ellipse cx="2295.599" cy="1472.365" fill="#5579ff" rx="12.705" ry="12.426" class="colorff8e55 svgShape"></ellipse><ellipse cx="2617.685" cy="1354.32" fill="#5579ff" rx="12.705" ry="12.426" class="colorff8e55 svgShape"></ellipse><ellipse cx="2887.41" cy="1300.338" fill="#5579ff" rx="12.705" ry="12.426" class="colorff8e55 svgShape"></ellipse><ellipse cx="3063.979" cy="1269.785" fill="#5579ff" rx="12.705" ry="12.426" class="colorff8e55 svgShape"></ellipse><g fill="#000000" class="color000000 svgShape"><path fill="#8aacce" d="M1842.5141 995.2123L1828.316 935.403h14.4649l4.5263 24.6692c1.3304 7.099 2.5728 14.8186 3.5495 20.8527h.1762c.9768-6.4772 2.3966-13.6644 3.9045-21.0302l5.0587-24.4917h14.3755l4.7919 25.2016c1.3304 7.0109 2.3072 13.4 3.1945 20.0547h.1775c.8874-6.6547 2.2178-13.6656 3.4614-20.7646l4.88-24.4917h13.7537l-15.4391 59.8093h-14.6424l-5.0587-25.7339c-1.153-6.0342-2.1297-11.6253-2.8396-18.4575h-.1762c-1.0649 6.7441-2.0416 12.4233-3.4614 18.4575l-5.6792 25.7339zM1947.2298 969.9214h-22.007v14.1981h24.581v11.0928h-38.1573V935.403h36.9149v11.0916h-23.3386v12.4233h22.007zM1959.0362 935.403h13.5763v48.4509h23.7818v11.3584h-37.3581zM2044.9382 993.5269c-2.4846 1.2411-8.0757 2.5728-15.3523 2.5728-20.6765 0-31.325-12.8663-31.325-29.904 0-20.411 14.553-31.7694 32.6555-31.7694 7.0109 0 12.3352 1.4198 14.7317 2.6634l-2.7515 10.7366a29.22447 29.22447 0 00-11.3584-2.2178c-10.7367 0-19.0793 6.4772-19.0793 19.7879 0 11.979 7.099 19.5224 19.1674 19.5224a33.78838 33.78838 0 0011.2703-1.9523zM2105.903 964.6865c0 19.6117-11.8896 31.5013-29.3716 31.5013-17.7476 0-28.1305-13.3988-28.1305-30.4364 0-17.9251 11.4478-31.3251 29.106-31.3251C2095.8762 934.4263 2105.903 948.1813 2105.903 964.6865zm-43.2147.7993c0 11.7134 5.5017 19.9654 14.553 19.9654 9.1394 0 14.3755-8.6963 14.3755-20.3204 0-10.7379-5.1468-19.9666-14.4649-19.9666C2068.0125 945.1642 2062.6883 953.8605 2062.6883 965.4858zM2165.3623 972.318c-.2668-7.1872-.5324-15.8847-.5324-24.5798h-.2656c-1.8641 7.6302-4.3488 16.1491-6.6559 23.16l-7.2765 23.3387h-10.5592l-6.3892-23.1613c-1.9534-7.0096-3.9938-15.5285-5.4136-23.3374h-.1775c-.3549 8.0745-.6218 17.3033-1.0648 24.7573l-1.0649 22.7168h-12.5114l3.8151-59.8093h18.0132l5.8579 19.9654c1.8629 6.9228 3.7258 14.3768 5.0575 21.3865h.2668c1.6854-6.9216 3.7257-14.8186 5.6792-21.4746l6.3891-19.8773h17.6583l3.2839 59.8093h-13.2226zM2225.4447 969.9214h-22.007v14.1981h24.5798v11.0928h-38.1573V935.403h36.9149v11.0916h-23.3374v12.4233h22.007zM2255.1762 995.2123V935.403h15.7954l12.4233 21.9189a173.34644 173.34644 0 019.7611 20.4978h.2656a222.27345 222.27345 0 01-1.1529-24.9359V935.403h12.4233v59.8093h-14.1981l-12.7782-23.0718a221.9322 221.9322 0 01-10.3818-21.1196l-.2668.0881c.355 7.8983.5324 16.3278.5324 26.0902v18.0131zM2351.9936 969.9214h-22.007v14.1981h24.5798v11.0928h-38.1573V935.403h36.9149v11.0916h-23.3374v12.4233h22.007zM2374.0924 995.2123l-14.198-59.8093h14.4636l4.525 24.6692c1.3317 7.099 2.574 14.8186 3.5495 20.8527h.1788c.9755-6.4772 2.3953-13.6644 3.9044-21.0302l5.0575-24.4917h14.3755l4.7918 25.2016c1.3317 7.0109 2.3072 13.4 3.1946 20.0547h.1775c.8874-6.6547 2.2191-13.6656 3.4601-20.7646l4.8812-24.4917h13.755l-15.4416 59.8093h-14.6411l-5.0575-25.7339c-1.1542-6.0342-2.1297-11.6253-2.8396-18.4575h-.1787c-1.0648 6.7441-2.0403 12.4233-3.4601 18.4575l-5.6793 25.7339zM2511.7304 972.318c-.2668-7.1872-.5324-15.8847-.5324-24.5798h-.2656c-1.8641 7.6302-4.3487 16.1491-6.6559 23.16L2497 994.2369h-10.5592l-6.3892-23.1613c-1.9534-7.0096-3.9938-15.5285-5.4136-23.3374h-.1775c-.3549 8.0745-.6217 17.3033-1.0648 24.7573l-1.0649 22.7168h-12.5114l3.8151-59.8093h18.0132l5.8579 19.9654c1.8629 6.9228 3.7258 14.3768 5.0575 21.3865h.2668c1.6854-6.9216 3.7258-14.8186 5.6792-21.4746l6.3892-19.8773h17.6582l3.2839 59.8093h-13.2226zM2571.8128 969.9214h-22.007v14.1981h24.5798v11.0928h-38.1573V935.403h36.915v11.0916h-23.3375v12.4233h22.007zM2634.1986 972.318c-.2668-7.1872-.5324-15.8847-.5324-24.5798h-.2656c-1.8641 7.6302-4.3488 16.1491-6.6559 23.16l-7.2765 23.3387H2608.909l-6.3892-23.1613c-1.9534-7.0096-3.9938-15.5285-5.4136-23.3374h-.1775c-.3549 8.0745-.6218 17.3033-1.0648 24.7573l-1.0649 22.7168h-12.5114l3.8151-59.8093h18.0132l5.8579 19.9654c1.8629 6.9228 3.7258 14.3768 5.0575 21.3865h.2668c1.6854-6.9216 3.7257-14.8186 5.6792-21.4746l6.3891-19.8773h17.6583l3.2839 59.8093H2635.086zM2658.6953 936.201a107.77325 107.77325 0 0117.4807-1.241c8.2532 0 13.3119.798 17.6595 3.3708a13.01816 13.01816 0 017.1871 11.7134c0 5.3242-3.1052 10.2935-9.8493 12.7782v.1787c6.8335 1.8629 11.8909 7.0097 11.8909 14.7293a15.93437 15.93437 0 01-6.2117 12.6901c-4.3487 3.4614-11.624 5.4124-23.5161 5.4124a104.79348 104.79348 0 01-14.6411-.8861zm13.4 22.8957h4.4356c7.0991 0 10.9154-2.929 10.9154-7.3659 0-4.5263-3.4614-6.9216-9.5837-6.9216a36.91574 36.91574 0 00-5.7673.355zm0 26.532a42.67182 42.67182 0 005.2349.1774c6.1235 0 11.5359-2.3072 11.5359-8.6069 0-6.0342-5.4124-8.4307-12.1564-8.4307h-4.6144zM2747.8812 969.9214h-22.007v14.1981h24.5797v11.0928h-38.1572V935.403h36.9149v11.0916h-23.3374v12.4233h22.007zM2759.6864 936.201a118.87079 118.87079 0 0118.0132-1.241c8.8738 0 15.0866 1.3304 19.3461 4.7024 3.5495 2.8397 5.5005 7.011 5.5005 12.5115a15.87215 15.87215 0 01-10.5592 14.7317v.2656c4.17 1.6854 6.4785 5.6792 7.9864 11.181 1.8629 6.744 3.727 14.553 4.8812 16.8601h-13.8431c-.9768-1.6854-2.3966-6.5666-4.1713-13.9324-1.5973-7.454-4.1713-9.4943-9.6718-9.5837h-4.0832v23.5161h-13.3988zm13.3988 25.7353h5.3243c6.744 0 10.7379-3.3733 10.7379-8.6082 0-5.5018-3.727-8.2533-9.9387-8.3414a33.90712 33.90712 0 00-6.1235.4431zM2812.7554 981.2799a34.49494 34.49494 0 0014.996 3.7282c6.2117 0 9.4956-2.574 9.4956-6.4785 0-3.727-2.8396-5.8567-10.028-8.4294-9.9386-3.4614-16.4171-8.9632-16.4171-17.6595 0-10.2055 8.5188-18.0144 22.6288-18.0144a36.62251 36.62251 0 0115.2629 3.0183l-3.0171 10.9142a28.41772 28.41772 0 00-12.5127-2.8397c-5.8554 0-8.695 2.6622-8.695 5.7686 0 3.8151 3.3708 5.5005 11.0916 8.4295 10.5604 3.9045 15.5297 9.4062 15.5297 17.8369 0 10.0268-7.7208 18.5456-24.1367 18.5456-6.8334 0-13.5775-1.7747-16.9495-3.6376z" class="color928ace svgShape"></path></g><g fill="#000000" class="color000000 svgShape"><path fill="#ffffff" d="M1842.5141 991.8416l-14.1981-59.8094h14.4649l4.5263 24.6692c1.3304 7.099 2.5728 14.8186 3.5495 20.8527h.1762c.9768-6.4772 2.3966-13.6644 3.9045-21.0302l5.0587-24.4917h14.3755l4.7919 25.2016c1.3304 7.0109 2.3072 13.4 3.1945 20.0547h.1775c.8874-6.6547 2.2178-13.6656 3.4614-20.7646l4.88-24.4917h13.7537l-15.4391 59.8094h-14.6424l-5.0587-25.734c-1.153-6.0342-2.1297-11.6253-2.8396-18.4575h-.1762c-1.0649 6.7441-2.0416 12.4233-3.4614 18.4575l-5.6793 25.734zM1947.2298 966.5506h-22.007v14.1981h24.581v11.0929h-38.1573V932.0322h36.9149v11.0916h-23.3386v12.4233h22.007zM1959.0362 932.0322h13.5763v48.4509h23.7818v11.3585h-37.3581zM2044.9382 990.1562c-2.4846 1.241-8.0757 2.5727-15.3523 2.5727-20.6765 0-31.325-12.8663-31.325-29.904 0-20.411 14.553-31.7694 32.6555-31.7694 7.0109 0 12.3352 1.4198 14.7317 2.6634l-2.7515 10.7366a29.22447 29.22447 0 00-11.3584-2.2178c-10.7367 0-19.0793 6.4772-19.0793 19.7879 0 11.979 7.099 19.5224 19.1674 19.5224a33.78838 33.78838 0 0011.2703-1.9523zM2105.903 961.3157c0 19.6117-11.8896 31.5013-29.3716 31.5013-17.7476 0-28.1305-13.3988-28.1305-30.4364 0-17.9251 11.4478-31.3251 29.106-31.3251C2095.8762 931.0555 2105.903 944.8105 2105.903 961.3157zm-43.2147.7993c0 11.7134 5.5017 19.9654 14.553 19.9654 9.1394 0 14.3755-8.6963 14.3755-20.3204 0-10.7379-5.1468-19.9666-14.4649-19.9666C2068.0125 941.7934 2062.6883 950.4897 2062.6883 962.115zM2165.3623 968.9472c-.2668-7.1872-.5324-15.8847-.5324-24.5798h-.2656c-1.8641 7.6302-4.3488 16.1491-6.6559 23.16l-7.2766 23.3387h-10.5591l-6.3892-23.1613c-1.9534-7.0096-3.9938-15.5285-5.4136-23.3374h-.1775c-.3549 8.0745-.6218 17.3033-1.0648 24.7573l-1.0649 22.7169h-12.5114l3.8151-59.8094h18.0132l5.8579 19.9654c1.8629 6.9228 3.7258 14.3768 5.0575 21.3865h.2668c1.6854-6.9216 3.7257-14.8186 5.6792-21.4746l6.3891-19.8773h17.6583l3.2839 59.8094h-13.2226zM2225.4447 966.5506h-22.007v14.1981h24.5798v11.0929h-38.1573V932.0322h36.9149v11.0916h-23.3374v12.4233h22.007zM2255.1762 991.8416V932.0322h15.7954l12.4233 21.9189a173.34644 173.34644 0 019.7611 20.4978h.2656a222.27345 222.27345 0 01-1.1529-24.9359V932.0322h12.4233v59.8094h-14.1981l-12.7783-23.0719a221.95555 221.95555 0 01-10.3817-21.1196l-.2668.0881c.355 7.8983.5324 16.3278.5324 26.0902v18.0132zM2351.9936 966.5506h-22.007v14.1981h24.5798v11.0929h-38.1573V932.0322h36.9149v11.0916h-23.3374v12.4233h22.007zM2374.0924 991.8416l-14.198-59.8094h14.4636l4.525 24.6692c1.3317 7.099 2.574 14.8186 3.5495 20.8527h.1788c.9755-6.4772 2.3953-13.6644 3.9044-21.0302l5.0575-24.4917h14.3755l4.7918 25.2016c1.3317 7.0109 2.3072 13.4 3.1946 20.0547h.1775c.8874-6.6547 2.219-13.6656 3.4601-20.7646l4.8812-24.4917h13.755l-15.4416 59.8094h-14.6411l-5.0575-25.734c-1.1542-6.0342-2.1297-11.6253-2.8396-18.4575h-.1787c-1.0648 6.7441-2.0403 12.4233-3.4601 18.4575l-5.6793 25.734zM2511.7304 968.9472c-.2668-7.1872-.5324-15.8847-.5324-24.5798h-.2656c-1.8641 7.6302-4.3488 16.1491-6.6559 23.16L2497 990.8661h-10.5592l-6.3892-23.1613c-1.9534-7.0096-3.9938-15.5285-5.4136-23.3374h-.1775c-.3549 8.0745-.6217 17.3033-1.0648 24.7573l-1.0649 22.7169h-12.5114l3.8151-59.8094h18.0132l5.8579 19.9654c1.8629 6.9228 3.7258 14.3768 5.0575 21.3865h.2668c1.6854-6.9216 3.7257-14.8186 5.6792-21.4746l6.3891-19.8773h17.6583l3.2839 59.8094h-13.2226zM2571.8128 966.5506h-22.007v14.1981h24.5798v11.0929h-38.1573V932.0322h36.915v11.0916h-23.3375v12.4233h22.007zM2634.1986 968.9472c-.2668-7.1872-.5324-15.8847-.5324-24.5798h-.2656c-1.8641 7.6302-4.3488 16.1491-6.6559 23.16l-7.2766 23.3387H2608.909l-6.3892-23.1613c-1.9534-7.0096-3.9938-15.5285-5.4136-23.3374h-.1775c-.3549 8.0745-.6218 17.3033-1.0648 24.7573l-1.0649 22.7169h-12.5114l3.8151-59.8094h18.0132l5.8579 19.9654c1.8629 6.9228 3.7258 14.3768 5.0575 21.3865h.2668c1.6854-6.9216 3.7257-14.8186 5.6792-21.4746l6.3891-19.8773h17.6583l3.2839 59.8094H2635.086zM2658.6953 932.8302a107.77325 107.77325 0 0117.4807-1.241c8.2532 0 13.3119.798 17.6594 3.3708a13.01824 13.01824 0 017.1872 11.7134c0 5.3242-3.1052 10.2935-9.8493 12.7782v.1787c6.8334 1.8629 11.8909 7.0097 11.8909 14.7293a15.93437 15.93437 0 01-6.2117 12.6901c-4.3487 3.4614-11.624 5.4124-23.5161 5.4124a104.79348 104.79348 0 01-14.6411-.8861zm13.4 22.8957h4.4356c7.0991 0 10.9154-2.929 10.9154-7.3659 0-4.5263-3.4614-6.9216-9.5837-6.9216a36.91574 36.91574 0 00-5.7673.355zm0 26.532a42.67182 42.67182 0 005.2349.1774c6.1235 0 11.5359-2.3071 11.5359-8.6069 0-6.0342-5.4124-8.4307-12.1564-8.4307h-4.6144zM2747.8812 966.5506h-22.007v14.1981h24.5797v11.0929h-38.1573V932.0322h36.915v11.0916h-23.3374v12.4233h22.007zM2759.6864 932.8302a118.87079 118.87079 0 0118.0132-1.241c8.8737 0 15.0866 1.3304 19.3461 4.7024 3.5495 2.8397 5.5005 7.011 5.5005 12.5115a15.87215 15.87215 0 01-10.5592 14.7317v.2656c4.17 1.6854 6.4785 5.6792 7.9864 11.181 1.8629 6.744 3.727 14.553 4.8812 16.8602h-13.8431c-.9768-1.6854-2.3966-6.5667-4.1713-13.9325-1.5973-7.454-4.1713-9.4943-9.6718-9.5837h-4.0832v23.5162h-13.3988zm13.3988 25.7353h5.3243c6.744 0 10.7379-3.3733 10.7379-8.6082 0-5.5018-3.727-8.2533-9.9387-8.3414a33.91694 33.91694 0 00-6.1235.4431zM2812.7554 977.9091a34.49494 34.49494 0 0014.996 3.7282c6.2117 0 9.4956-2.574 9.4956-6.4785 0-3.727-2.8396-5.8567-10.028-8.4294-9.9386-3.4614-16.4171-8.9632-16.4171-17.6595 0-10.2055 8.5188-18.0144 22.6288-18.0144a36.62251 36.62251 0 0115.2629 3.0183l-3.0171 10.9142a28.41772 28.41772 0 00-12.5127-2.8397c-5.8554 0-8.695 2.6622-8.695 5.7686 0 3.8151 3.3708 5.5005 11.0916 8.4295 10.5604 3.9045 15.5297 9.4062 15.5297 17.8369 0 10.0268-7.7208 18.5456-24.1367 18.5456-6.8334 0-13.5775-1.7747-16.9495-3.6376z" class="colorffffff svgShape"></path></g><rect width="602.353" height="18.528" x="2038.527" y="1039.675" fill="#c8daed" class="colorc8d9ed svgShape"></rect><rect width="602.353" height="18.528" x="2038.527" y="1082.908" fill="#c8daed" class="colorc8d9ed svgShape"></rect></g><ellipse cx="2219.375" cy="2285.418" fill="#b6d4f2" rx="1662.762" ry="196.262" class="colorc1b6f2 svgShape"></ellipse><g fill="#000000" class="color000000 svgShape"><path fill="#4d5ea0" d="M3886.2103,2109.9314l73.201-82.8638-134.8865-3.0351-134.8864,3.0351,65.3677,88.8885s27.5739,204.3897,28.1152,206.8474c23.4293,32.1317,81.6679,22.7599,89.5596-12.0809C3873.2222,2308.2649,3886.2103,2109.9314,3886.2103,2109.9314Z" class="color5b4da0 svgShape"></path><path fill="#3d4c84" d="M3689.6386,2024.0324c0,14.4248,60.3908,31.5373,134.8862,31.5373s134.8857-17.1125,134.8857-31.5373-60.3905-26.1185-134.886-26.1185S3689.6386,2009.6075,3689.6386,2024.0324Z" class="color843d5f svgShape"></path><ellipse cx="3824.525" cy="2019.986" fill="#04165b" rx="98.503" ry="18.655" class="color04175b svgShape"></ellipse><g fill="#000000" class="color000000 svgShape"><g fill="#000000" class="color000000 svgShape"><path fill="#71adea" d="M3844.8642,2032.5327s150.977-511.408-22.5051-597.4076C3702.673,1375.7935,3844.8642,2032.5327,3844.8642,2032.5327Z" class="color7180ea svgShape"></path><path fill="none" stroke="#ffffff" stroke-linecap="round" stroke-linejoin="round" stroke-width="2.926" d="M3844.8642,1964.506c0-5.3705,19.9477-410.7178-25.3182-482.0691" class="colorStrokeffffff svgStroke"></path><polyline fill="none" stroke="#fff" stroke-linecap="round" stroke-linejoin="round" stroke-width="2.926" points="3852.153 1493.178 3834.635 1528.366 3797.297 1504.303"></polyline><polyline fill="none" stroke="#fff" stroke-linecap="round" stroke-linejoin="round" stroke-width="2.926" points="3879.773 1571.818 3844.692 1612.876 3797.297 1586.011"></polyline><polyline fill="none" stroke="#fff" stroke-linecap="round" stroke-linejoin="round" stroke-width="2.926" points="3887.828 1664.268 3848.579 1703.398 3797.297 1673.49"></polyline></g><g fill="#000000" class="color000000 svgShape"><path fill="#71adea" d="M3840.0977,2019.9104s-345.9452-253.4211-442.4449-88.0144C3353.7581,2007.1345,3840.0977,2019.9104,3840.0977,2019.9104Z" class="color7180ea svgShape"></path><path fill="none" stroke="#ffffff" stroke-linecap="round" stroke-linejoin="round" stroke-width="2.926" d="M3840.0977 2019.9104s-330.3385-114.0488-418.8244-76.1994M3585.4581 1915.0682l45.2196 42.8531s-65.423 11.8752-75.3968 21.0818" class="colorStrokeffffff svgStroke"></path><polyline fill="none" stroke="#fff" stroke-linecap="round" stroke-linejoin="round" stroke-width="2.926" points="3479.838 1915.068 3507.696 1936.502 3469.097 1962.38"></polyline><polyline fill="none" stroke="#fff" stroke-linecap="round" stroke-linejoin="round" stroke-width="2.926" points="3688.521 1951.895 3709.977 1979.003 3666.528 1994.859"></polyline></g><g fill="#000000" class="color000000 svgShape"><path fill="#71adea" d="M3841.0796,2019.9865s-100.3405-409.6271-279.2676-415.3211C3443.1488,1600.8891,3841.0796,2019.9865,3841.0796,2019.9865Z" class="color7180ea svgShape"></path><path fill="none" stroke="#ffffff" stroke-linecap="round" stroke-linejoin="round" stroke-width="2.926" d="M3841.0796,2019.9865S3671.78,1695.1972,3571.0186,1637.4" class="colorStrokeffffff svgStroke"></path><polyline fill="none" stroke="#fff" stroke-linecap="round" stroke-linejoin="round" stroke-width="2.926" points="3625.747 1633.82 3624.784 1682.404 3574.087 1670.135"></polyline><polyline fill="none" stroke="#fff" stroke-linecap="round" stroke-linejoin="round" stroke-width="2.926" points="3674.849 1692.128 3668.519 1734.1 3611.786 1727.932"></polyline><polyline fill="none" stroke="#fff" stroke-linecap="round" stroke-linejoin="round" stroke-width="2.926" points="3711.164 1740.207 3705.21 1784.741 3655.413 1780.103"></polyline><polyline fill="none" stroke="#fff" stroke-linecap="round" stroke-linejoin="round" stroke-width="2.926" points="3741.853 1798.815 3734.18 1828.548 3696.843 1826.136"></polyline></g><g fill="#000000" class="color000000 svgShape"><path fill="#70b4f9" d="M3846.5414,2021.3866s417.4853-410.4441,227.1054-389.7784C3921.4119,1648.1333,3846.5414,2021.3866,3846.5414,2021.3866Z" class="color7081f9 svgShape"></path><path fill="none" stroke="#ffffff" stroke-linecap="round" stroke-linejoin="round" stroke-width="2.926" d="M4092.8743,1665.8507s-145.746,91.8545-244.3422,353.5676" class="colorStrokeffffff svgStroke"></path><polyline fill="none" stroke="#fff" stroke-linecap="round" stroke-linejoin="round" stroke-width="2.926" points="4067.466 1658.364 4044.253 1702.716 4085.428 1704.646"></polyline><polyline fill="none" stroke="#fff" stroke-linecap="round" stroke-linejoin="round" stroke-width="2.926" points="4005.222 1703.871 3996.679 1753.62 4047.228 1765.206"></polyline><polyline fill="none" stroke="#fff" stroke-linecap="round" stroke-linejoin="round" stroke-width="2.926" points="3956.914 1762.781 3950.776 1817.426 3999.834 1815.984"></polyline><polyline fill="none" stroke="#fff" stroke-linecap="round" stroke-linejoin="round" stroke-width="2.926" points="3920.445 1840.006 3916.506 1875.078 3957.802 1869.423"></polyline></g></g></g><ellipse cx="2361.605" cy="2371.599" fill="#7c9dbf" rx="1412.36" ry="188.4" class="color867cbf svgShape"></ellipse><g fill="#000000" class="color000000 svgShape"><path fill="#a1b0bf" d="M2030.017,1541.0631c-11.1605-46.5028-11.5393-92.107-15.8928-137.6807-3.7043-4.4998-7.3696-7.0184-11.0608-6.9374,0,0-25.7955.7458-22.9034,21.2061,2.8916,20.4602,45.1182,161.1985,58.5922,180.1969,9.5567,13.4744,23.4251,15.9364,35.0514,14.384C2049.8779,1597.5229,2036.4711,1569.0308,2030.017,1541.0631Z" class="colorbfb7a1 svgShape"></path><path fill="#dcedff" d="M2065.2814,1515.8471c-20.5424-43.4723-36.1668-94.2549-51.1572-112.4647,4.3535,45.5737,4.7323,91.1779,15.8928,137.6807,6.4541,27.9677,19.8609,56.4598,43.7866,71.1689a46.41013,46.41013,0,0,0,17.9967-6.1808C2101.6146,1599.7344,2090.8992,1570.0615,2065.2814,1515.8471Z" class="colorfff7dc svgShape"></path><path fill="#8fbfef" d="M2227.3564,1637.3262c0-1.9253-4.8131-4.8132-1.9252-8.6637,2.8174-4.5074,6.627-8.024,10.8437-11.3248l-10.6421,2.7866-19.1346-1.1601s-22.3502,6.7754-12.2223,16.3505a52.99,52.99,0,0,0,16.8422,10.282C2219.725,1645.9775,2226.4996,1644.6104,2227.3564,1637.3262Z" class="coloref8f8f svgShape"></path><path fill="#7186d3" d="M2252.0051,1613.2188l-15.7302,4.1189c-4.2167,3.3008-8.0263,6.8174-10.8437,11.3248-2.8879,3.8505,1.9252,6.7384,1.9252,8.6637-.8568,7.2842-7.6314,8.6513-16.2383,8.2705,4.4527,1.8033,8.0978,2.8909,9.7143,3.9819,3.49,2.3553,24.4028,4.7257,24.4028,4.7257l19.9426.2705C2299.0179,1626.3086,2300.224,1610.4033,2252.0051,1613.2188Z" class="colord37171 svgShape"></path><path fill="#ffffff" d="M2220.5156,1616.1442c-.753-4.7696-30.6252-8.7827-30.6252-8.7827l-3.2089,30.1619a217.55356,217.55356,0,0,1,24.1175,6.4556C2214.4535,1635.5328,2221.0631,1619.6106,2220.5156,1616.1442Z" class="colorffffff svgShape"></path><path fill="#ffffff" d="M2186.6815,1637.5234l-.5565,5.2298,22.3412,6.5268s.9594-2.1256,2.3328-5.301A217.55356,217.55356,0,0,0,2186.6815,1637.5234Z" class="colorffffff svgShape"></path><path fill="#dcedff" d="M2102.2144,1621.9241c7.701,0,15.4021,1.9252,23.1031,2.8879,10.589,1.9252,20.2153,6.7384,30.8042,7.701a329.97484,329.97484,0,0,1,43.1154,8.0014c3.8702-8.9229,8.7788-22.1898,6.4681-27.6159-3.6277-8.5187-100.4596-40.2848-100.4596-40.2848-19.8392-9.0319-51.1877-10.0735-64.548.0162C2052.4974,1597.835,2071.9456,1618.4844,2102.2144,1621.9241Z" class="colorfff7dc svgShape"></path><path fill="#a1b0bf" d="M2156.1217,1632.513c-10.5889-.9626-20.2152-5.7758-30.8042-7.701-7.701-.9627-15.4021-2.8879-23.1031-2.8879-30.2688-3.4397-49.717-24.0891-61.5168-49.2942-10.8366,8.1838-9.842,23.6888,18.7535,48.2091,10.7473,9.2156,135.7108,28.441,135.7108,28.441s1.8698-3.6798,4.0752-8.7656A329.97484,329.97484,0,0,0,2156.1217,1632.513Z" class="colorbfb7a1 svgShape"></path><polygon fill="#ffffff" points="1970.639 2300.448 1977.333 2350.107 2013.481 2333.372 2004.779 2288.597 1970.639 2300.448" class="colorffffff svgShape"></polygon><path fill="#041246" d="M2062.9001,2351.7024c-14.3088-.2626-29.0328-25.6715-43.2829-27.1521-15.1803,11.0246-32.4709,18.2049-52.0152,10.941-4.817,15.6587-.9075,29.9889,9.0623,43.3963,0,0,16.6404-.6916,32.1919-2.8765,2.6006-.3653.6237-10.2836,3.2137-9.5279,19.0759,5.562,37.2486,12.7208,50.6561,10.5538,11.7868-1.905,27.6035-10.8672,26.2914-17.1506S2076.4279,2351.9506,2062.9001,2351.7024Z" class="color2e0446 svgShape"></path><path fill="#0b194c" d="M2002.3884,1737.7959c-2.4879-12.6903-5.467-21.9555-8.9556-27.057l-109.8034-18.4095s-7.5215,25.5842-12.549,61.8333C1916.0628,1763.3331,1962.8528,1761.0123,2002.3884,1737.7959Z" class="color0b1c4c svgShape"></path><path fill="#101f59" d="M2002.3884,1737.7959c-39.5356,23.2164-86.3256,25.5372-131.308,16.3668-4.6303,33.3848-7.1459,75.8147.282,115.6577,15.4933,83.104,90.7341,441.941,90.7341,441.941l47.3687-13.4206s-12.8991-70.1165-2.98-232.4809C2014.8392,1929.1181,2013.9071,1796.5543,2002.3884,1737.7959Z" class="color102059 svgShape"></path><polygon fill="#ffffff" points="1813.697 2284.491 1799.719 2338.997 1840.737 2345.167 1848.472 2301.803 1813.697 2284.491" class="colorffffff svgShape"></polygon><path fill="#0f193f" d="M1851.9303,1707.5461l-49.5422,6.2044a103.12389,103.12389,0,0,0-6.7501,14.3196c9.7334,4.7542,19.8947,9.1472,30.3487,13.0465C1831.2497,1727.9792,1841.5021,1717.8105,1851.9303,1707.5461Z" class="color0f213f svgShape"></path><path fill="#182659" d="M1824.014,1747.0661a50.66043,50.66043,0,0,1,1.9727-5.9495c-10.454-3.8993-20.6153-8.2923-30.3487-13.0465a149.727,149.727,0,0,0,1.395,113.5377c17.1201,138.9279,6.4372,456.5219,6.4372,456.5219l19.7795,5.5323c1.364-9.3339,2.361-18.6697,3.1953-27.8453,2.8879-51.9821-9.1695-116.7444-6.2816-169.6891,5.7758-86.6368,0-172.311,6.7385-258.9478,0-1.9253.9626-6.7384,3.8505-8.6637-4.8132-5.7758-7.7011-11.5516-10.589-18.29a68.41232,68.41232,0,0,1-6.7384-21.1779,98.60972,98.60972,0,0,1,.9627-37.5426c.9626-1.9253,3.8505-2.8879,4.8131-4.8132,0-.9626-.9626-3.8505,0-4.8131A11.6,11.6,0,0,0,1824.014,1747.0661Z" class="color182c59 svgShape"></path><path fill="#182866" d="M1920.2353,1759.1568c3.889-33.5156,8.2881-61.203,8.2881-61.203l-76.5931,9.5923c-10.4282,10.2644-20.6806,20.4331-25.9436,33.5705C1856.028,1752.3214,1888.4952,1759.429,1920.2353,1759.1568Z" class="color182c66 svgShape"></path><path fill="#1f3072" d="M1825.9867,1741.1166a50.66043,50.66043,0,0,0-1.9727,5.9495,11.6,11.6,0,0,1-4.8132,4.8132c-.9626.9626,0,3.8505,0,4.8131-.9626,1.9253-3.8505,2.8879-4.8131,4.8132a98.60972,98.60972,0,0,0-.9627,37.5426,68.41232,68.41232,0,0,0,6.7384,21.1779c2.8879,6.7384,5.7758,12.5142,10.589,18.29-2.8879,1.9253-3.8505,6.7384-3.8505,8.6637-6.7385,86.6368-.9627,172.311-6.7385,258.9478-2.8879,52.9447,9.1695,117.707,6.2816,169.6891-.8343,9.1756-1.8313,18.5114-3.1953,27.8453l28.9132,8.0879s61.2051-428.714,62.3097-479.9015c.4729-21.9102,2.988-48.7831,5.7627-72.6916C1888.4952,1759.429,1856.028,1752.3214,1825.9867,1741.1166Z" class="color1f3172 svgShape"></path><ellipse cx="1931.196" cy="1277.569" fill="#8fbfef" rx="9.186" ry="10.083" transform="rotate(-10.101 1931.196 1277.569)" class="coloref8f8f svgShape"></ellipse><path fill="#041246" d="M1881.9742,2362.275c-13.1986-5.5108-17.4905-34.4782-30.1846-41.0962-18.1796,4.6284-36.8994,4.9173-52.3756-9.0092-10.2626,12.7381-11.9254,27.4574-7.6161,43.5525,0,0,15.7178,5.4849,30.9757,9.1851,2.5515.6188,4.3798-9.3004,6.5071-7.6467,15.6699,12.1769,29.9106,25.501,43.1696,28.4286,11.6563,2.5736,29.665.0908,30.7678-6.2152S1894.4526,2367.485,1881.9742,2362.275Z" class="color2e0446 svgShape"></path><path fill="#172c7a" d="M1815.3503,1707.5983c-.9626-6.7385-7.7011-11.5516-7.7011-19.2527-.9626-18.29,18.29-25.0284,27.9163-38.5052,25.9911-38.5053,7.7011-79.8984-1.9252-121.2915-.9627-4.8132-4.8132-10.589-7.7011-16.3648-8.6637-17.3273-17.3273-35.6173-30.8042-51.0194-12.6552-14.4628-15.9746-34.0179-27.4904-49.8989l-16.8583,9.6563c32.8498,102.7386,48.0827,217.1063,38.1419,292.0895,8.6529,4.2217,17.6818,8.1798,26.9654,11.8071A122.8661,122.8661,0,0,0,1815.3503,1707.5983Z" class="color4c177a svgShape"></path><path fill="#6a9bcc" d="M1841.3413,1396.6684c25.0284-14.4395,55.8326-15.4021,85.6742-10.589,24.9076,4.7899,48.8625,17.1984,73.7607,7.8306-32.1701-14.7858-140.6645-32.915-177.6624-14.4162l-51.8462,29.6965C1795.4683,1409.2466,1818.8262,1409.2768,1841.3413,1396.6684Z" class="color9e6acc svgShape"></path><path fill="#304aaa" d="M2000.7762,1393.91c-24.8982,9.3678-48.8531-3.0407-73.7607-7.8306-29.8416-4.8131-60.6458-3.8505-85.6742,10.589-22.5151,12.6084-45.873,12.5782-70.0737,12.5219l-3.623,2.0755c11.5158,15.881,14.8352,35.4361,27.4904,49.8989,13.4769,15.4021,22.1405,33.6921,30.8042,51.0194,2.8879,5.7758,6.7384,11.5516,7.7011,16.3648,9.6263,41.3931,27.9163,82.7862,1.9252,121.2915-9.6263,13.4768-28.8789,20.2152-27.9163,38.5052,0,7.7011,6.7385,12.5142,7.7011,19.2527a122.8661,122.8661,0,0,1,.5433,17.2204c61.0952,23.8719,133.3151,33.2662,183.4682,7.0059-.8361-15.3749-6.2472-88.1827,4.6045-129.4629,24.0804-91.6008,6.6651-200.2835,5.5323-202.3742C2008.4824,1398.1119,2005.4229,1396.0457,2000.7762,1393.91Z" class="color7730aa svgShape"></path><path fill="#7288db" d="M1911.5086,1350.8539l-7.5633-40.6508-50.1344,2.6746c.917,4.7184.3868,15.8003-.5772,27.3839,10.2397,4.7346,18.1758,12.5868,29.5008,15.0136C1893.0574,1357.3399,1902.5493,1354.9742,1911.5086,1350.8539Z" class="colordb7272 svgShape"></path><path fill="#8fbfef" d="M1882.7345,1355.2752c-11.325-2.4268-19.2611-10.279-29.5008-15.0136-1.4407,17.3076-3.8496,35.7361-3.8496,35.7361s19.2568,39.0488,41.976,35.2029,25.4232-31.9934,25.4232-31.9934l-5.2747-28.3533C1902.5493,1354.9742,1893.0574,1357.3399,1882.7345,1355.2752Z" class="coloref8f8f svgShape"></path><g fill="#000000" class="color000000 svgShape"><polygon fill="#041245" points="1886.737 1411.201 1875.644 1430.571 1884.355 1449.941 1898.172 1449.941 1907.077 1430.571 1896.704 1409.732 1886.737 1411.201" class="color2c0445 svgShape"></polygon><polygon fill="#041245" points="1884.355 1449.941 1898.172 1449.941 1920.084 1551.123 1907.077 1659.405 1895.8 1659.405 1875.644 1543.721 1884.355 1449.941" class="color2c0445 svgShape"></polygon></g><path fill="#a1b0bf" d="M1818.2382,1639.2514c-24.9528-9.5971-34.1687-31.9536-41.2193-55.4777a138.07447,138.07447,0,0,1-8.8375-15.757c-.9627-.9626-3.8506-.9626-4.8132-.9626a65.06236,65.06236,0,0,0-8.3605-8.7009c7.263,28.7901,14.6242,53.993,19.2484,61.9871,12.3652,21.3774,44.9428,26.9566,58.6255,23.7943C1827.9684,1642.6088,1823.0838,1640.9927,1818.2382,1639.2514Z" class="colorbfb7a1 svgShape"></path><path fill="#dcedff" d="M1763.3682,1567.0541c.9626,0,3.8505,0,4.8132.9626a138.07447,138.07447,0,0,0,8.8375,15.757c-3.5576-11.8688-6.5663-24.0338-10.7628-35.0096-7.7011-24.0658-12.5142-47.1689-19.2526-72.1973-4.5998-20.2396-4.785-49.2533,18.7332-55.1473-2.9034-2.989-5.7184-4.7269-8.415-4.9175,0,0-25.7819,12.7994-24.792,33.4392.5974,12.4561,11.4237,64.5918,22.478,108.412A65.06236,65.06236,0,0,1,1763.3682,1567.0541Z" class="colorfff7dc svgShape"></path><path fill="#dcedff" d="M1747.0035,1476.5668c6.7384,25.0284,11.5515,48.1315,19.2526,72.1973,12.5142,32.7295,14.4395,76.0479,51.9821,90.4873,4.8456,1.7413,9.7302,3.3574,14.6434,4.8832a15.33228,15.33228,0,0,0,3.5747-1.2413c10.3562-5.3833,4.626-37.9814-15.8755-94.3301-17.5266-48.1737-37.7344-109.5305-54.8441-127.1437C1742.2185,1427.3135,1742.4037,1456.3272,1747.0035,1476.5668Z" class="colorfff7dc svgShape"></path><path fill="#ffffff" d="M1895.871 1411.2006s-1.0268-20.3436 4.7298-31.7445 19.8738-27.5051 19.8738-27.5051 4.3924 20.0744 4.9442 24.8933C1926.2056 1383.7143 1900.451 1413.3104 1895.871 1411.2006zM1835.7624 1375.5489l6.3489-25.2982s38.3942 27.4272 42.0136 42.9503 2.5712 19.6999 2.5712 19.6999S1847.36 1404.3801 1835.7624 1375.5489z" class="colorffffff svgShape"></path><path fill="#8fbfef" d="M1972.9813,1653.5683l19.0071,2.4908,25.9801-5.1072s12.5789,18.7248,12.4413,23.353-2.1828,18.8205-2.1828,18.8205a4.02482,4.02482,0,0,1-4.8345-1.2127c-2.1378-2.5578-2.0902-4.1599-2.0902-4.1599s-.3855,8.006-3.8875,6.6547-9.0632-2.9418-9.0632-2.9418-20.6966-3.8222-24.0141-6.4151-16.0618-5.8223-25.4979-16.08S1972.9813,1653.5683,1972.9813,1653.5683Z" class="coloref8f8f svgShape"></path><path fill="#ffffff" d="M1951.8436,1648.9836l25.5562,2.792s-3.2138,27.9912-6.5468,28.8747l-23.0516-5.0236Z" class="colorffffff svgShape"></path><path fill="#a1b0bf" d="M1818.2382,1639.2514c-19.2597-7.4076-29.1375-22.4217-35.8881-39.7013-12.8583,7.766-13.4942,23.6173,16.7567,49.5571,10.7474,9.2157,156.0671,30.3104,156.0671,30.3104a112.4902,112.4902,0,0,0,4.9725-12.2252C1911.7624,1661.8945,1863.4452,1655.4977,1818.2382,1639.2514Z" class="colorbfb7a1 svgShape"></path><path fill="#dcedff" d="M1818.2382,1639.2514c45.207,16.2463,93.5242,22.6431,141.9082,27.941,2.1476-6.3952,3.8058-13.7426,2.0235-17.9273-3.6278-8.5188-117.2685-48.3832-117.2685-48.3832-18.9076-8.6079-48.2698-9.9577-62.5513-1.3318C1789.1007,1616.8297,1798.9785,1631.8438,1818.2382,1639.2514Z" class="colorfff7dc svgShape"></path><path fill="#7888c4" d="M1846.1545,1296.5547c13.4768-9.6263,10.5889-33.6921,10.5889-50.0568,22.8837,7.8663,47.8914,5.1051,71.8674-.3853-9.7673-28.3764-30.486-43.1672-55.8152-39.5295-23.3922,3.3595-46.3375,18.4832-50.579,47.0532-1.1441,7.7039,1.8594,19.7579,3.5887,29.1699C1835.5077,1282.1995,1846.1545,1285.2358,1846.1545,1296.5547Z" class="colorc47878 svgShape"></path><path fill="#8fbfef" d="M1928.6108,1246.1126c-23.976,5.4904-48.9837,8.2516-71.8674.3853,0,16.3647,2.8879,40.4305-10.5889,50.0568,0-11.3189-10.6468-14.3552-20.3492-13.7485.2641,1.4379.5006,2.8181.6857,4.1074,5.8924,41.0295,26.4776,51.0629,53.2188,61.807,18.0663,7.2585,39.4857-3.7003,46.6251-24.8946,4.2839-12.7166,9.1506-42.6476,6.9405-58.0336A107.25176,107.25176,0,0,0,1928.6108,1246.1126Z" class="coloref8f8f svgShape"></path><path fill="#0d1535" d="M1839.222,1328.8778s-.4704-19.0849-4.2117-29.3266-5.5314-25.4761-3.6966-25.7396,13.6983,15.866,13.6983,15.866l3.7561-1.4401s10.2358-36.5962-4.0217-50.5806c32.3425,20.7541,95.3932.7109,95.3932.7109s11.966-15.769,4.8912-34.928-12.5967-18.7262-12.5967-18.7262-3.8998,11.7284-13.0278,12.1386-72.8175-15.3522-82.3484,14.8635c-28.8194-1.2399-29.241,42.2331-23.9603,56.4259s20.216,57.9821,20.216,57.9821Z" class="color350d1d svgShape"></path><path fill="#8fbfef" d="M1839.7356,1293.2719c.9275,6.3167-2.9906,12.0934-8.7514,12.9025s-11.1828-3.6555-12.1103-9.9722,2.9906-12.0933,8.7514-12.9025S1838.8081,1286.9552,1839.7356,1293.2719Z" class="coloref8f8f svgShape"></path><path fill="#0d1535" d="M1884.1836 1282.7444c.8362 3.7407-.5594 7.2165-3.1171 7.7635s-5.3091-2.0421-6.1453-5.7828.5594-7.2165 3.1172-7.7634S1883.3474 1279.0038 1884.1836 1282.7444zM1917.4301 1274.9908c.8156 3.6482-.3078 6.9873-2.5091 7.458s-4.6469-2.1052-5.4625-5.7534.3079-6.9873 2.5092-7.458S1916.6146 1271.3425 1917.4301 1274.9908z" class="color350d1d svgShape"></path><path fill="#5065b5" d="M1897.2081,1280.2105s15.3964,19.0782,12.5514,24.2661-15.7311,1.3388-11.3799-1.1715c0,0,9.5479,4.4326,9.1075-1.0974S1897.2081,1280.2105,1897.2081,1280.2105Z" class="colorb55050 svgShape"></path><path fill="#eaf4ff" d="M1886.5059,1319.873l29.613-6.6941s-1.5062,10.0412-10.5432,12.7633c-5.4056,1.6283-17.0699.1229-19.7476-5.4834" class="colorfffeea svgShape"></path><path fill="#0d1535" d="M1923.5107 1254.2571s-17.3218.8177-14.7181 6.7864C1909.8431 1263.4518 1925.7327 1256.0585 1923.5107 1254.2571zM1863.9365 1274.1442s14.04-12.9881 17.9769-6.3741c2.1445 3.6028-18.0052 9.2442-17.9769 6.3741" class="color350d1d svgShape"></path></g><g fill="#000000" class="color000000 svgShape"><g fill="#000000" class="color000000 svgShape"><path fill="#8fbfef" d="M2332.5694,1653.2964c-23.8263,3.5604-52.8769,7.6105-76.7171,1.8735-10.7141-3.9665-16.874-14.5214-19.1822-25.2424-3.3291-15.4629,33.8173-15.8893,43.1885-14.7868,21.4722,5.1701-.9631-15.2175,10.9371-18.664,6.226-.2658,8.1434,8.8084,11.0068,12.4147,11.4971,9.0994,26.6522,12.9938,40.3061,17.958Z" class="coloref8f8f svgShape"></path><polygon fill="#ffffff" points="2580.72 2264.947 2585.79 2338.902 2619.239 2335.448 2613.91 2268.206 2580.72 2264.947" class="colorffffff svgShape"></polygon><path fill="#041246" d="M2622.2007,2324.4608l-41.7015,9.0109s-60.5525,43.2262-77.9831,48.1529-9.299,13.0723-3.5408,13.2812,68.5517-7.4764,73.5865-8.1424,12.5457-11.1722,12.5457-11.1722l2.1616,8.8966s43.4484-4.4663,43.9483-5.3478,3.054-37.9764,1.4726-44.0147S2622.2007,2324.4608,2622.2007,2324.4608Z" class="color2e0446 svgShape"></path><path fill="#061038" d="M2598.8268,1659.5602s-17.8618,20.5893-31.191,60.1605c41.9576,4.2435,83.8711.2849,124.7298-9.3356C2666.0526,1671.2836,2598.8268,1659.5602,2598.8268,1659.5602Z" class="color0b0638 svgShape"></path><path fill="#061038" d="M2567.6358,1719.7207a271.49179,271.49179,0,0,0-12.3201,55.9103c-21.3532,186.829,8.3657,363.3842,12.5513,535.4228h64.7652s-11.6992-410.3241,53.8175-517.5583c22.1077-36.1841,19.3166-63.1972,5.9159-83.1104C2651.5069,1720.0056,2609.5934,1723.9642,2567.6358,1719.7207Z" class="color0b0638 svgShape"></path><polygon fill="#ffffff" points="2696.848 2264.978 2709.633 2337.996 2742.537 2331.058 2730.197 2264.744 2696.848 2264.978" class="colorffffff svgShape"></polygon><path fill="#041246" d="M2746.5908,2322.4692l-42.0364,7.291s-62.2764,40.7033-79.8946,44.91-9.8279,12.6795-4.0831,13.1247,68.8008-4.6552,73.8587-5.114,12.9939-10.6476,12.9939-10.6476l1.7944,8.9779s43.5952-2.6784,44.1309-3.5386,4.6108-37.819,3.2787-43.9171S2746.5908,2322.4692,2746.5908,2322.4692Z" class="color2e0446 svgShape"></path><path fill="#263468" d="M2600.6679,1770.2478c-1.6761,188.0379,66.0512,371.2736,88.2251,541.9287l51.497-5.4212c-8.7271-34.4051-11.2385-69.8659-14.3906-105.3272-5.7758-57.7579.9626-114.5532-4.8132-173.2737-.9626-3.8505-2.8878-7.701-2.8878-11.5515-1.9253-100.1137-6.7385-198.3021,16.3647-299.3783a52.47955,52.47955,0,0,0,1.0735-19.212c-42.265,14.1121-86.115,22.9111-130.3552,23.3878A292.31932,292.31932,0,0,0,2600.6679,1770.2478Z" class="color262668 svgShape"></path><path fill="#1b285b" d="M2635.31,1630.2019s-20.4489,38.3207-29.9286,91.1985c44.2402-.4767,88.0902-9.2757,130.3552-23.3878-1.3457-11.368-5.6404-22.2014-8.877-33.5024C2692.5781,1635.6977,2635.31,1630.2019,2635.31,1630.2019Z" class="color1b1b5b svgShape"></path><path fill="#1c2856" d="M2732.1926,1669.3702c-1.7011-1.6908-3.4853-3.3074-5.333-4.86,3.2366,11.301,7.5313,22.1344,8.877,33.5024q7.578-2.5305,15.0863-5.2832A122.64631,122.64631,0,0,0,2732.1926,1669.3702Z" class="color1c1c56 svgShape"></path><path fill="#1c2856" d="M2750.8229,1692.7294q-7.5075,2.75085-15.0863,5.2832a52.47955,52.47955,0,0,1-1.0735,19.212c-23.1032,101.0762-18.29,199.2646-16.3647,299.3783,0,3.8505,1.9252,7.701,2.8878,11.5515,5.7758,58.7205-.9626,115.5158,4.8132,173.2737,3.1521,35.4613,5.6635,70.9221,14.3906,105.3272l12.9123-1.3593s-54.5931-406.8442-.6627-520.3484C2770.4407,1747.5822,2765.4696,1716.9541,2750.8229,1692.7294Z" class="color1c1c56 svgShape"></path><path fill="#8fbfef" d="M2638.5504,1314.3613l10.0601,52.3842,60.0014-22.1365-6.4959-53.4446C2682.5644,1302.778,2661.7132,1311.2689,2638.5504,1314.3613Z" class="coloref8f8f svgShape"></path><path fill="#7487ce" d="M2695.7964,1239.1696l-64.0794,39.6126,6.8334,35.5791c23.1628-3.0924,44.014-11.5833,63.5656-23.1969Z" class="colorce7474 svgShape"></path><path fill="#2f48a5" d="M2776.1864,1471.2139c-4.6604-73.0114-39.6126-105.6336-48.1564-123.498-8.5439-17.8646-17.0877-34.9523-17.0877-34.9523l-9.3908,3.4064c1.8411,24.721,27.5854,41.7313,37.9247,64.1336,35.6174,77.0105.9627,160.7595-8.6636,241.6205-3.8313,26.8173-13.1638,52.409-26.031,76.3014,17.9088-4.0729,34.2321-8.9097,47.5073-14.3036C2752.2889,1683.9219,2780.8468,1544.2252,2776.1864,1471.2139Z" class="color2f4ea5 svgShape"></path><path fill="#0575e6" d="M2739.4762,1380.3036c-5.5769-12.0834-15.6319-22.5989-24.0042-33.6009-5.144,13.7852-21.0157,16.9509-31.8284,26.8625-14.4394,11.5516-34.6547,13.4769-47.1689,27.9163-15.4021,17.3274-20.2153,39.4679-24.0658,60.6458-13.4768,73.16,2.8879,143.432-4.8131,215.6294-1.2207,10.9863-3.2198,23.1313-7.9511,33.7406a565.765,565.765,0,0,0,105.1369-13.2718c12.8672-23.8924,22.1997-49.4841,26.031-76.3014C2740.4389,1541.0631,2775.0936,1457.3141,2739.4762,1380.3036Z" class="color5072ef svgShape"></path><path fill="#63adf7" d="M2612.4089,1462.1273c3.8505-21.1779,8.6637-43.3184,24.0658-60.6458,12.5142-14.4394,32.7295-16.3647,47.1689-27.9163,10.8127-9.9116,26.6844-13.0773,31.8284-26.8625-7.1497-9.3956-13.0726-19.1457-13.9205-30.5327l-69.8345,25.332-10.8738,28.7387s-45.05,74.5649-47.38,118.061-2.8347,223.0406-2.8347,223.0406c9.246.4012,18.9903.4402,29.0162.155,4.7313-10.6093,6.7304-22.7543,7.9511-33.7406C2615.2968,1605.5593,2598.9321,1535.2873,2612.4089,1462.1273Z" class="color638af7 svgShape"></path><path fill="#dcedff" d="M2693.2699,1476.5668c9.6264-20.2153,16.3648-46.2063,4.8132-69.3095-4.1255-8.251-9.7166-16.0141-13.9826-24.3351-14.8117,1.5119-30.0686,9.1598-37.6338,25.6963-14.3962,31.4688-115.1439,200.6512-116.7754,205.3493l8.3205,6.9524c24.0564-12.3623,44.9274-32.1632,68.6213-47.1277C2645.1384,1549.7267,2674.0173,1516.0346,2693.2699,1476.5668Z" class="colorfff7dc svgShape"></path><path fill="#ffffff" d="M2372.521,1610.0089l-38.6528,11.804c-4.761,12.649-8.9905,25.6348-14.891,37.9546h40.8442C2359.325,1645.2068,2365.0308,1623.3869,2372.521,1610.0089Z" class="colorffffff svgShape"></path><path fill="#d1e1f2" d="M2702.8154,1384.2847c-5.804-.907-12.1537-2.0323-18.7149-1.3625,4.266,8.321,9.8571,16.0841,13.9826,24.3351,10.9123,21.8247,5.5013,46.2236-3.2461,65.8989,17.0064-22.157,24.47-52.7102,27.7923-80.0183A41.79015,41.79015,0,0,0,2702.8154,1384.2847Z" class="colorf2e9d1 svgShape"></path><path fill="#a1b0bf" d="M2722.6293,1393.1379c-3.3223,27.3081-10.7859,57.8613-27.7923,80.0183q-.76845,1.7292-1.5671,3.4106c-19.2526,39.4678-48.1315,73.1599-86.6368,97.2257-20.5123,12.9551-38.9123,29.5264-59.0913,41.7666-.3239.1965-.6473.3951-.9721.5894q-1.9572,1.17-3.9374,2.2851c-.1848.1034-.3709.202-.5556.3046q-1.7619.9783-3.546,1.9034c-13.231,6.8746-27.4124,11.5277-43.5628,11.8714a1055.52646,1055.52646,0,0,0-133.6751,8.0752,84.44325,84.44325,0,0,0-1.3123,10.138,88.62014,88.62014,0,0,0-.1593,9.0413h129.4499c36.5062,0,83.2817-9.9854,83.2817-9.9854s146.7937-99.4133,163.5871-162.4882C2750.0064,1435.2122,2739.0753,1406.4392,2722.6293,1393.1379Z" class="colorbfb7a1 svgShape"></path><path fill="#dcedff" d="M2369.8254,1617.0429a78.13271,78.13271,0,0,0-8.5326,23.5453,1055.52646,1055.52646,0,0,1,133.6751-8.0752c20.5086-.4364,37.8482-7.8051,54.0893-17.8731l-10.8531-16.2333Z" class="colorfff7dc svgShape"></path><path fill="#7389dd" d="M2661.5031,1199.329v37.5426c0,.9626,1.9253,1.9253,2.8879.9626,3.8505-3.8505,9.6263-5.7758,12.5142-9.6263,9.059-12.0787,21.7951-17.1888,35.6879-19.4204,2.658-20.2402,4.7572-38.0004,4.7572-39.5224,0-3.4952-104.8568-20.3888-112.43-3.4952-.3342.7455-4.8033,10.8615-9.8491,25.4084C2611.6263,1208.6634,2639.7189,1202.8145,2661.5031,1199.329Z" class="colordd7373 svgShape"></path><path fill="#8fbfef" d="M2676.9052,1228.2079c-2.8879,3.8505-8.6637,5.7758-12.5142,9.6263-.9626.9627-2.8879,0-2.8879-.9626V1199.329c-21.7842,3.4855-49.8768,9.3344-66.4319-8.1507-12.9433,37.317-29.6813,103.8039,9.8491,116.1482,32.1166,10.0291,94.3713-29.1269,97.8664-37.2824,1.9732-4.6043,6.3601-35.0152,9.8064-61.2566C2698.7003,1211.0191,2685.9642,1216.1292,2676.9052,1228.2079Z" class="coloref8f8f svgShape"></path><path fill="#07123a" d="M2579.2887,1162.8572s24.4666,36.6999,41.3602,32.6221,49.5157-7.573,49.5157-7.573-8.1556,41.3602-5.2429,41.9428,8.1556-19.2238,17.4762-15.146,4.0777,28.5443,0,29.7094,0,26.2142,0,26.2142l32.0395,15.7285s34.3698-113.5948,23.3015-131.6535-116.5075-16.3111-134.5662-41.3602S2571.1429,1152.0521,2579.2887,1162.8572Z" class="color0f073a svgShape"></path><ellipse cx="2355.724" cy="1623.566" fill="#ffffff" stroke="#000000" stroke-miterlimit="10" stroke-width="2.926" rx="3.447" ry="3.371" class="colorffffff svgShape colorStroke000000 svgStroke"></ellipse><path fill="#ffffff" d="M2626.4742,1415.6786s13.1071-51.5546,29.7095-58.8363,61.1664-31.1308,61.1664-31.1308l-8.738-22.7539s-60.9723,32.8129-64.4676,40.5332-19.4179,72.1878-19.4179,72.1878Z" class="colorffffff svgShape"></path></g><path fill="#eaf4ff" d="M2595.9673,1264.5891s28.6649,1.0041,30.6493,0C2622.0743,1277.8936,2598.3891,1290.2661,2595.9673,1264.5891Z" class="colorfffeea svgShape"></path><path fill="#09143b" d="M2621.4369 1235.5365c-1.4035 3.3546-4.502 5.2893-6.9206 4.3213s-3.2415-4.4721-1.838-7.8267 4.5021-5.2894 6.9207-4.3214S2622.8405 1232.1819 2621.4369 1235.5365zM2610.8649 1215.1637s22.7537 10.7341 22.7422 6.9179S2604.8928 1207.6559 2610.8649 1215.1637z" class="color0f093b svgShape"></path><ellipse cx="2586.965" cy="1222.521" fill="#09143b" rx="6.293" ry="4.765" transform="rotate(-78.262 2586.956 1222.519)" class="color0f093b svgShape"></ellipse><path fill="#09143b" d="M2579.6186,1201.4038s22.7537,10.7342,22.7422,6.9179S2573.6465,1193.896,2579.6186,1201.4038Z" class="color0f093b svgShape"></path><path fill="#5065b5" d="M2597.3898,1224.5919s-5.0663,14.1401-7.7211,17.1112-12.0887,13.3469.9122,13.1795,6.8089-6.8614,6.8089-6.8614.6627,4.0456-2.8828,4.8462-8.7937.0201-7.5421-3.4211a37.761,37.761,0,0,1,4.4037-8.2448C2592.5627,1239.4859,2598.9002,1223.88,2597.3898,1224.5919Z" class="colorb55050 svgShape"></path></g><g fill="#000000" class="color000000 svgShape"><rect width="293.227" height="39.108" x="2906.074" y="1932.508" fill="#6679c2" transform="rotate(180 3052.688 1952.062)" class="colorc2668f svgShape"></rect><polygon fill="#071444" points="2959.103 1981.503 3000.199 1981.503 2920.228 2242.148 3188.279 2242.148 3188.279 2270.286 2895.053 2270.286 2895.053 2242.148 2959.103 1981.503" class="color071444 svgShape"></polygon></g><g fill="#000000" class="color000000 svgShape"><rect width="293.226" height="39.108" x="3360.515" y="2011.262" fill="#6679c2" transform="rotate(180 3507.129 2030.816)" class="colorc2668f svgShape"></rect><polygon fill="#071444" points="3413.544 2062.024 3454.641 2062.024 3374.67 2322.67 3642.72 2322.67 3642.72 2350.808 3349.494 2350.808 3349.494 2322.67 3413.544 2062.024" class="color071444 svgShape"></polygon></g><g fill="#000000" class="color000000 svgShape"><path fill="#09184f" d="M3002.7204,1357.6784s33.6119,34.5791,62.6919,9.7383c6.0859,41.5831-58.3275,102.8072-51.2338,109.0222s50.6737,8.299,55.9586,5.0078,72.5953-101.1082,38.8663-144.2399c-42.6692-54.5644-90.3419-22.8996-90.3419-22.8996s-36.2601-5.9285-50.672,9.6665-52.4049,98.7548,2.4119,148.3675c48.265,28.7124,20.2721-2.1887,20.2721-2.1887Z" class="color4f092f svgShape"></path><path fill="#0a1642" d="M2965.6946,1876.0587c22.1405-8.6637,48.1315-7.701,73.1599-9.6263,0,11.5516,3.8506,33.6921,19.2527,26.9537a545.80487,545.80487,0,0,1,99.7235-27.9069c-10.087-42.1779-46.9744-81.683-89.5492-88.7365-31.8218-5.2719-117.6595,21.8457-150.4604,73.0402a77.36553,77.36553,0,0,0-8.7432,6.9006c19.545,12.1698,33.6846,35.108,55.654,41.5157C2964.7319,1890.4982,2962.8067,1877.984,2965.6946,1876.0587Z" class="color0b0a42 svgShape"></path><path fill="#122056" d="M3058.1072,1893.3861c-15.4021,6.7384-19.2527-15.4021-19.2527-26.9537-25.0284,1.9253-51.0194.9626-73.1599,9.6263-2.8879,1.9253-.9627,14.4395-.9627,22.1405-21.9694-6.4077-36.109-29.3459-55.654-41.5157-35.1064,31.3884-95.8015,122.5368-65.0852,121.8567,69.6878-1.5429,169.3159,7.7866,215.8903,2.5812,6.6392-.742,22.9301-9.8369,26.6641-10.8614,64.6523-17.7379,81.3724-62.5961,71.2836-104.7808A545.80487,545.80487,0,0,0,3058.1072,1893.3861Z" class="color171256 svgShape"></path><path fill="#4367ef" d="M2979.1714,1665.2425c-4.5048-54.9607-11.5365-109.9212,1.7885-163.3033-23.2399,9.7433-52.8808,30.0461-59.9811,41.711-9.585,15.7466,11.6385,40.3934,20.3764,115.0185,8.738,74.6249-28.0422,174.5144-28.0422,174.5144,15.5887,13.7108,35.873,20.599,58.79,23.2096a18.87764,18.87764,0,0,0,.33-3.4371C2980.134,1789.4219,2984.9472,1727.8135,2979.1714,1665.2425Z" class="coloref7843 svgShape"></path><path fill="#a9d4ff" d="M2989.7604,1597.8583c13.4768,4.8132,36.5799,3.8505,44.281-11.5516,7.701-14.4394,9.6263-30.8042,18.29-46.2063,6.4658-10.7762,14.0028-21.0169,21.0124-31.5211a343.53891,343.53891,0,0,0-33.239-8.7456,227.8949,227.8949,0,0,0-38.3393-3.4231c-5.3241,0-12.674,2.1194-20.8056,5.5286-4.8625,19.4797-7.0063,39.1704-7.5596,58.9936.8879,8.0839,1.0402,16.6701,2.8832,24.4113C2978.2088,1592.0825,2984.9472,1596.8957,2989.7604,1597.8583Z" class="colorffc3a9 svgShape"></path><path fill="#5579ff" d="M3094.1908,1722.3395c-13.6926-56.1398,10.9542-175.9507,12.3234-192.382.6909-8.2937-16.2355-15.8885-33.1704-21.3782-7.0096,10.5042-14.5466,20.7449-21.0124,31.5211-8.6637,15.4021-10.589,31.7669-18.29,46.2063-7.7011,15.4021-30.8042,16.3648-44.281,11.5516-4.8132-.9626-11.5516-5.7758-13.4769-12.5142-1.843-7.7412-1.9953-16.3274-2.8832-24.4113-.9621,34.5006,2.91,69.4047,5.7711,104.3097,5.7758,62.571.9626,124.1794-6.7384,187.7131a18.87764,18.87764,0,0,1-.33,3.4371c46.1067,5.2524,102.8794-6.827,153.5801-15.6113C3125.6831,1840.7814,3107.8834,1778.4795,3094.1908,1722.3395Z" class="colorff8e55 svgShape"></path><path fill="#152c84" d="M3056.999 1496.4106s-32.2445 54.4917-31.396 111.3438 22.9106 279.1696 22.9106 279.1696 105.2189-39.8813 108.6131-41.5784-42.427-87.3996-44.1241-112.8558 14.3303-163.4091 12.6807-186.0749S3056.999 1496.4106 3056.999 1496.4106zM2977.8939 1496.4106s-9.1431 20.5501-9.9916 35.8238.8485 187.5273 0 207.0437-14.3448 147.6459-14.3448 147.6459-50.1442-40.7299-57.7811-43.2755 14.4252-55.1551 22.062-77.2171 27.659-72.7554 24.6077-97.5821-40.3615-91.976-26.4801-123.6521C2924.0896 1526.6599 2977.1072 1489.9027 2977.8939 1496.4106z" class="color591584 svgShape"></path><path fill="#a2cdf9" d="M3025.5865,1688.7585s-8.1316-42.1641-14.0401-55.7655-12.7091-19.9486-15.4294-20.4019-6.3473,12.2411-4.5338,19.4952,8.6142,34.91,8.1608,41.7107,14.0547,24.029,18.5885,27.656S3025.5865,1688.7585,3025.5865,1688.7585Z" class="colorf9a2a2 svgShape"></path><path fill="#65a1de" d="M3079.0079,1506.1724s70.7157,35.9035,77.562,61.9196,36.4884,206.0021,13.8955,206.0021-150.9673-65.3878-150.9673-65.3878c-7.6627-8.9384.6693-25.6036,6.0884-36.1693,0,0,78.85,20.7729,105.8464,34.1611-13.3882-29.6133-21.2395-113.1302-21.2395-113.1302Z" class="colorb065de svgShape"></path><path fill="#778fe8" d="M3015.7514,1486.1931c8.3473-3.1302,16.1297-7.6717,24.2651-11.1777l-5.6997-45.6931-36.7802,16.9446-4.8009,38.5791C3000.3686,1486.4603,3007.8341,1489.492,3015.7514,1486.1931Z" class="colore87777 svgShape"></path><path fill="#a2cdf9" d="M3015.7514,1486.1931c-7.9173,3.2989-15.3828.2672-23.0157-1.3471l-4.784,38.4422s4.9635,22.0794,9.5849,23.1065c4.6214,1.0268,46.7262-37.3424,46.7262-37.3424l-4.2463-34.0369C3031.8811,1478.5214,3024.0987,1483.0629,3015.7514,1486.1931Z" class="colorf9a2a2 svgShape"></path><path fill="#93bae2" d="M3005.1625,1362.9763c11.5515,10.5889,26.9536,12.5142,40.4305,17.3273,13.5238,4.8299,27.0476,4.57,40.6928,2.9911a99.8563,99.8563,0,0,0-5.3453-40.3492c-12.3741-35.9715-72.8135-19.7379-72.8135-19.7379s-29.6733,26.6206-37.6301,67.2687C2984.104,1384.233,2995.0064,1373.9786,3005.1625,1362.9763Z" class="colore29393 svgShape"></path><path fill="#a2cdf9" d="M3045.593,1380.3036c-13.4769-4.8131-28.879-6.7384-40.4305-17.3273-10.1561,11.0023-21.0585,21.2567-34.6656,27.5a101.7184,101.7184,0,0,0-.1372,38.8946c11.7851,61.7261,55.096,53.1073,71.2544,38.3089,12.424-11.3779,41.5205-42.5628,44.6717-84.3851C3072.6406,1384.8736,3059.1168,1385.1335,3045.593,1380.3036Z" class="colorf9a2a2 svgShape"></path><path fill="#eaf4ff" d="M2993.0264,1442.1144l34.4046,4.7478S3010.8762,1473.6869,2993.0264,1442.1144Z" class="colorfffeea svgShape"></path><path fill="#09184f" d="M3039.8465 1404.6071a5.76815 5.76815 0 11-3.3334-7.365A5.71691 5.71691 0 013039.8465 1404.6071zM2998.7126 1399.6406a6.09831 6.09831 0 11-3.5241-7.7866A6.04405 6.04405 0 012998.7126 1399.6406zM2980.4133 1383.866s15.7982-6.5416 24.9443-2.0317C3008.8217 1383.5425 2979.9142 1388.1194 2980.4133 1383.866zM3053.5321 1395.5119s-13.4086-9.5305-21.5588-6.9407C3028.8864 1389.5521 3053.7667 1399.7672 3053.5321 1395.5119z" class="color4f092f svgShape"></path><path fill="#5065b5" d="M3014.5747,1390.875s-5.8486,18.887-8.4365,23.395-9.8391,7.8425-3.0289,11.1052,15.6293,4.3645,15.6293,4.3645,2.0261-1.9595-2.4265-2.9648-10.6336-2.395-11.6261-4.3898,3.1758-5.3861,4.2655-8.0509S3015.1927,1388.9094,3014.5747,1390.875Z" class="colorb55050 svgShape"></path><path fill="#07238e" d="M2989.3359 2333.5385s22.3226-12.0824 26.4276 19.0214 5.995 38.0437 5.995 38.0437l-5.1178 3.8515-8.5754-19.1862s-15.9533 44.0287-57.3146 55.3477c-34.4812 9.4361 13.4938-69.6829 13.4938-69.6829zM2753.4618 2372.684s27.7098-17.3335 31.7147 1.02 3.2071 51.1633 3.6145 52.2426-9.1227 9.2864-9.1227 9.2864l-11.0994-17.665s-24.9525 38.761-46.8842 44.9013c-11.3325 3.1728-30.813 8.095-34.5808 6.2842-11.3031-5.4325 17.2853-32.3493 19.3391-35.9846 11.2098-19.8425 19.5284-35.3939 19.5284-35.3939z" class="color8e0772 svgShape"></path><path fill="#a2cdf9" d="M2770.2804,2333.3085c5.7758-20.2152,17.3274-39.4678,25.0284-58.7205,2.8879-8.6636,4.8132-17.3273,8.6637-25.0284,12.5142-30.8042,27.9163-59.6831,37.5426-91.4499,2.8879-8.6637,2.8879-17.3274,5.7758-25.9911,6.7385-22.1405,12.5142-44.281,17.3274-68.3468,9.6263-41.3931,31.7668-71.2347,57.7579-104.9268,1.9252-2.8879,0-7.7011,1.9252-8.6637a45.54606,45.54606,0,0,0,6.4155-6.1464c-10.5255-27.4822-48.8906-41.8493-77.1247-19.8576-17.8998,13.9427-29.8801,67.1046-32.3205,84.6164-4.031,28.9236-58.7525,279.204-68.3374,314.8049s-26.666,73.6727-26.666,73.6727,2.5692,21.8884,36.8009-.0199c6.3962-4.0936,10.8122-7.1093,13.7748-9.4421C2765.3404,2372.5202,2765.346,2349.7562,2770.2804,2333.3085Z" class="colorf9a2a2 svgShape"></path><path fill="#92c0ef" d="M2924.3014,1950.1813c-1.9252.9626,0,5.7758-1.9252,8.6637-25.9911,33.6921-48.1316,63.5337-57.7579,104.9268-4.8132,24.0658-10.5889,46.2063-17.3274,68.3468-2.8879,8.6637-2.8879,17.3274-5.7758,25.9911-9.6263,31.7668-25.0284,60.6457-37.5426,91.4499-3.8505,7.7011-5.7758,16.3648-8.6637,25.0284-7.701,19.2527-19.2526,38.5053-25.0284,58.7205-4.9344,16.4477-4.94,39.2117,6.5636,54.5008,12.8949-10.1513-1.7457-7.356-.6322-24.0573,1.3692-20.5391,58.9795-106.9703,69.7738-156.0133,11.0313-50.1183,30.8795-116.6038,41.145-164.3765,4.738-22.0479,46.3534-65.537,46.3591-84.3318a41.72049,41.72049,0,0,0-2.7728-14.9955A45.54606,45.54606,0,0,1,2924.3014,1950.1813Z" class="coloref9292 svgShape"></path><path fill="#03081c" d="M3019.4981,1974.0133s33.9203,13.5071,42.0811,3.2825-50.4397-72.5124-77.0374-71.3496-37.7321,19.0068-37.7321,19.0068S3008.2056,1972.3501,3019.4981,1974.0133Z" class="color05031c svgShape"></path><path fill="#92c0ef" d="M3005.1625,1981.9481c-2.8879,62.5711,10.5889,123.2168,2.8878,185.7879-8.9692,65.4768-9.583,129.2828-13.5182,194.5314,10.228-12.5669,11.6729-27.7763,11.6729-27.7763s21.8669-327.711,24.5856-358.8146a55.3828,55.3828,0,0,0-3.8543-26.1269C3014.7972,1955.9994,3005.7049,1966.2252,3005.1625,1981.9481Z" class="coloref9292 svgShape"></path><path fill="#a2cdf9" d="M3005.1625 1981.9481c.5424-15.7229 9.6347-25.9487 21.7738-32.3985-18.7473-45.6014-95.5082-54.5565-88.4121 11.6808 12.4042 115.7835 30.9922 331.8023 33.7217 360.0093 1.7918 18.5215-8.3149 57.0681-8.3149 57.0681 14.6768-1.5655 24.3027-8.3022 30.6011-16.0404 3.9352-65.2486 4.549-129.0546 13.5182-194.5314C3015.7514 2105.1649 3002.2746 2044.5192 3005.1625 1981.9481zM2944.859 1696.7914s8.1317-42.1641 14.0401-55.7655 12.7092-19.9486 15.4294-20.4019 6.3473 12.2412 4.5338 19.4952-8.6142 34.9101-8.1608 41.7107-14.0547 24.029-18.5884 27.656S2944.859 1696.7914 2944.859 1696.7914z" class="colorf9a2a2 svgShape"></path><path fill="#65a1de" d="M2915.966,1545.1972c-19.3893,18.6485-96.5028,202.3875-76.8834,228.8969,13.4403,18.1603,115.4368-52.0281,115.4368-52.0281,11.1957-3.6425-3.4663-33.1415-12.8621-38.7972,0,0-28.3444,28.4156-50.2641,39.0524-3.6819-20.7583,25.4009-73.6427,37.9907-94.2906C2922.8205,1591.2846,2908.8156,1574.8384,2915.966,1545.1972Z" class="colorb065de svgShape"></path><path fill="#09184f" d="M3057.4168,1357.4965s9.0617,40.1102,2.5993,60.1836c2.7755,5.1678,10.2739-10.8664,13.057-14.4261s7.3937,12.5504-1.1575,26.1089,2.8773,16.5763,6.6247,13.0676,28.2923-51.4068,26.0942-63.7948S3064.3418,1334.401,3057.4168,1357.4965Z" class="color4f092f svgShape"></path><path fill="#09184f" d="M2989.9624,1329.5037s34.5108,37.5919,60.1508,39.8404,24.478,27.8074,30.6657,29.8836,12.8642,7.4305,15.9143-14.2857,2.9067-57.9768-33.1849-66.1781S2987.8471,1317.097,2989.9624,1329.5037Z" class="color4f092f svgShape"></path><path fill="#09184f" d="M2958.5801,1397.4396s47.2827-37.6477,49.2511-54.9924-17.9326-19.1947-30.3797-11.502C2962.0823,1340.9311,2942.6535,1366.1735,2958.5801,1397.4396Z" class="color4f092f svgShape"></path></g><g fill="#000000" class="color000000 svgShape"><path fill="#ffffff" d="M3385.6735,2303.5579l-26.8531-21.3198-25.0378,24.2559,19.4227,27.9417A90.3191,90.3191,0,0,0,3385.6735,2303.5579Z" class="colorffffff svgShape"></path><path fill="#041246" d="M3385.6735,2303.5579a90.3191,90.3191,0,0,1-32.4682,30.8778l.6083.8738s-23.8891,39.9106-26.1641,62.2721c-1.6272,14.0526,5.7345,27.7715,5.7345,27.7715s37.521-21.8782,49.8114-59.6103c.8875-2.7269,8.4343,5.6557,10.3126,3.5911,11.231-12.346,29.6996-35.9751,29.6996-35.9751Z" class="color2e0446 svgShape"></path><path fill="#021b79" d="M3321.4082,1935.3565c-24.4091,7.17-221.8773,59.3075-219.4454,106.7291,5.5112,107.4714,225.7245,270.3132,225.7245,270.3132,19.5432-5.5322,33.7306-16.618,38.5857-37.3804,0,0-149.427-190.5174-148.2861-206.1699s212.195-42.2296,212.195-42.2296l50.6445-79.5843-14.4698-44.2135-118.1706-3.4165S3345.8173,1928.1866,3321.4082,1935.3565Z" class="color19276b svgShape"></path><path fill="#041246" d="M3211.8696,2411.7256l-.4018,2.5098s-44.8893,12.1868-62.0352,26.7203c-10.918,8.9957-15.1286,23.9842-15.1286,23.9842s42.2049,10.259,77.2267-8.4023c2.5312-1.3486,2.1552,9.9243,4.9396,9.7395,16.6538-1.106,46.3464-5.3219,46.3464-5.3219l-5.8547-43.6204C3241.5105,2417.8556,3225.6821,2418.061,3211.8696,2411.7256Z" class="color2e0446 svgShape"></path><path fill="#ffffff" d="M3217.0198,2379.5835l-5.1502,32.1421c13.8125,6.3354,29.6409,6.13,45.0924,5.6092l-5.0816-37.8625Z" class="colorffffff svgShape"></path><path fill="#2a43a0" d="M3515.357,1942.4803c-17.3274,12.5142-38.5053,16.3647-58.7205,23.1031-3.8505.9626-8.6637,4.8132-12.5142,5.7758-19.1737,4.3577-43.0815-.7551-48.863-21.0507-35.6653,13.1635-142.8238,43.2841-152.8369,87.805-11.5605,51.3998-38.9349,354.2714-38.9349,354.2714l40.2242-7.3136c5.6301-14.6408,9.4989-29.8316,12.6975-45.0243,6.7384-38.5053,17.3274-73.16,28.8789-109.74,2.8879-9.6263,8.6637-20.2153,12.5142-29.8416,16.3648-46.2063,27.9163-94.3378,59.6832-131.8804,6.7384-8.6637,23.1031-6.7385,36.58-10.589,29.8415-6.7384,58.7205-5.7758,88.562-14.4395,28.879-8.6636,49.0942-26.9536,66.4216-50.0568q1.9374-2.46525,3.7283-5.003c4.705-19.6912,4.8902-40.5271,3.6832-57.4308C3541.2183,1932.135,3526.5006,1934.2692,3515.357,1942.4803Z" class="color2a44a0 svgShape"></path><path fill="#021b79" d="M3444.1223,1971.3592c3.8505-.9626,8.6637-4.8132,12.5142-5.7758,20.2152-6.7384,41.3931-10.5889,58.7205-23.1031,11.1436-8.2111,25.8613-10.3453,41.1036-11.4144a242.84868,242.84868,0,0,0-4.941-35.0923l-140.6307,6.8475s6.1942,33.5297-4.8235,42.6058c-1.474,1.2146-5.2954,2.8477-10.8061,4.8816C3401.0408,1970.6041,3424.9486,1975.7169,3444.1223,1971.3592Z" class="color19276b svgShape"></path><path fill="#1d3693" d="M3549.0491,1993.4997c-17.3274,23.1032-37.5426,41.3932-66.4216,50.0568-29.8415,8.6637-58.7205,7.7011-88.562,14.4395-13.4769,3.8505-29.8416,1.9253-36.58,10.589-31.7669,37.5426-43.3184,85.6741-59.6832,131.8804-3.8505,9.6263-9.6263,20.2153-12.5142,29.8416-11.5515,36.58-22.1405,71.2347-28.8789,109.74-3.1986,15.1927-7.0674,30.3835-12.6975,45.0243l12.8319-2.333s85.3677-262.191,97.0519-292.437c11.685-30.2461,115.9782-18.7112,163.8672-48.2157,19.7725-12.1817,30.2064-32.211,35.3147-53.5889Q3550.98085,1991.032,3549.0491,1993.4997Z" class="color1d3d93 svgShape"></path><path fill="#94c4f4" d="M3265.1154,1618.5756s5.4326-33.9162,1.4525-34.0809,3.4256-26.1691-22.9893-17.6595,8.1228,55.254,8.8681,55.2383S3265.1154,1618.5756,3265.1154,1618.5756Z" class="colorf4a594 svgShape"></path><path fill="#ffffff" d="M3277.3641,1636.8755c-2.8117-4.2488-4.526-26.0845-6.1822-26.0496s-25.3453,8.1557-25.3453,8.1557l8.2115,27.9953Z" class="colorffffff svgShape"></path><path fill="#b4c3d3" d="M3621.2464,1787.4966c-1.9252,10.589.9627,21.1779-2.8879,29.8416a127.15073,127.15073,0,0,1-11.6597,20.9462c9.6658-.5815,18.102-6.458,20.3977-16.1133,4.4042-18.5224,6.5485-60.1255,4.689-102.3496-2.7985,15.4191-3.1877,31.9957-6.6886,46.4973A199.1284,199.1284,0,0,1,3621.2464,1787.4966Z" class="colord3cbb4 svgShape"></path><path fill="#dcedff" d="M3576.0375,1603.1079c-3.8477,2.8449-13.7551,19.3226-13.5783,39.5306.5048,57.6893,8.9194,159.747,10.7986,166.6873,5.756,21.2502,20.6721,29.7266,33.441,28.9586a127.15073,127.15073,0,0,0,11.6597-20.9462c3.8506-8.6637.9627-19.2526,2.8879-29.8416a199.1284,199.1284,0,0,0,3.8505-21.1778c3.5009-14.5016,3.8901-31.0782,6.6886-46.4973-2.1396-48.5642-9.5755-97.9498-24.971-113.9869C3592.6486,1591.0792,3576.0375,1603.1079,3576.0375,1603.1079Z" class="colorfff7dc svgShape"></path><path fill="#8fbfef" d="M3413.5002,1464.9932s-15.9721-20.3856-18.4212-6.0762,15.5571,37.229,18.3793,29.1689S3413.5002,1464.9932,3413.5002,1464.9932Z" class="coloref8f8f svgShape"></path><path fill="#dcedff" d="M3344.9713,1739.3651c10.2599-45.314,6.854-95.9419,30.9179-134.3513a36.673,36.673,0,0,0-2.3455-8.007c-8.3017-18.694-28.014-13.0331-28.014-13.0331-4.5857,1.3664-19.5074,13.4916-26.2148,32.5546-15.4745,43.9769-27.8721,119.5578-32.3741,150.7328a278.33717,278.33717,0,0,0,10.8615,26.0113C3328.6065,1800.9735,3339.1955,1762.4682,3344.9713,1739.3651Z" class="colorfff7dc svgShape"></path><path fill="#b4c3d3" d="M3344.9713,1739.3651c-5.7758,23.1031-16.3648,61.6084-47.169,53.9073a278.33717,278.33717,0,0,1-10.8615-26.0113c-1.0698,7.4036-1.695,12.3123-1.8087,13.6875-3.1916,38.5497,39.779,18.6887,48.7031,21.0662,10.5081,2.7996,51.3551-147.6374,42.054-197.001C3351.8253,1643.4232,3355.2312,1694.0511,3344.9713,1739.3651Z" class="colord3cbb4 svgShape"></path><path fill="#b4c3d3" d="M3297.8023,1793.2724c-24.1085-50.0712-30.3576-106.3933-45.4096-159.5051-1.5915.981-2.5663,1.6519-2.5663,1.6519s25.0077,151.5113,34.5593,161.7665c43.8993,47.136,62.2551,2.0425,53.5181-34.13C3330.8533,1781.6583,3319.2105,1798.6245,3297.8023,1793.2724Z" class="colord3cbb4 svgShape"></path><path fill="#dcedff" d="M3276.6738,1626.7953c-6.2524-3.3279-18.8681,3.6349-24.2811,6.972,15.052,53.1118,21.3011,109.4339,45.4096,159.5051,21.4082,5.3521,33.051-11.6141,40.1015-30.2167a69.45034,69.45034,0,0,0-2.0427-6.907S3284.7645,1631.1015,3276.6738,1626.7953Z" class="colorfff7dc svgShape"></path><path fill="#70b4f9" d="M3437.3839,1867.395c18.29-.9626,37.5426-4.8131,56.7952-6.7384,7.7011-.9626,13.4768-5.7758,19.2526-8.6637,22.1405-10.5889,24.0658-37.5426,25.0284-58.7205,2.8879-53.9073,9.6263-106.852,24.0658-160.7594,3.8505-12.5142,13.4769-25.0284,12.5142-36.58-.9269-7.4188-14.3586-13.0528-19.6446-22.9227l-27.3372-15.658c-22.2496-11.125-68.3459-12.9851-113.3348-1.0742-39.7593,10.5264-75.1294,29.2645-78.8681,36.1661-1.1215,2.0697,3.6559,108.1123,27.4923,198.7862,6.6398,25.2594-.2444,50.5158-7.5938,74.5183C3382.0514,1874.4159,3410.5486,1870.0786,3437.3839,1867.395Z" class="color7081f9 svgShape"></path><path fill="#3951aa" d="M3542.3107,1833.7029c-1.9253,1.9253-2.8879,5.7758-5.7758,5.7758-3.0214,0-5.8482-.3828-8.4823-.289a35.68556,35.68556,0,0,1-14.6209,12.8032c-5.7758,2.8879-11.5515,7.7011-19.2526,8.6637-19.2526,1.9253-38.5052,5.7758-56.7952,6.7384-26.8353,2.6836-55.3325,7.0209-81.63-1.6463-4.5406,14.8266-9.2569,29.1758-11.075,42.7488,58.5494,12.1809,153.9289,18.0187,217.7784.5295-3.9342-29.675-3.9709-69.0275-.5236-112.0701C3548.36,1801.348,3549.3217,1822.3095,3542.3107,1833.7029Z" class="color3947aa svgShape"></path><path fill="#3951aa" d="M3530.0475,1835.7962c-.6214,1.16-1.2729,2.3004-1.9949,3.3935,2.6341-.0938,5.4609.289,8.4823.289,2.8879,0,3.8505-3.8505,5.7758-5.7758,4.281-6.9572,5.5934-17.4773,9.0538-25.6184C3544.3215,1817.0399,3538.0973,1827.9302,3530.0475,1835.7962Z" class="color3947aa svgShape"></path><path fill="#70b4f9" d="M3555.3955,1573.0103c5.286,9.8699,18.7177,15.5039,19.6446,22.9227.9627,11.5516-8.6637,24.0658-12.5142,36.58-14.4395,53.9074-21.1779,106.8521-24.0658,160.7594-.626,13.7669-1.6836,29.9583-8.4126,42.5238,8.0498-7.866,14.274-18.7563,21.317-27.7117,2.2063-5.1912,5.2841-9.4178,10.5692-11.1276,5.1741-64.6172,18.2035-137.5562,37.7203-198.5957Z" class="color7081f9 svgShape"></path><g fill="#000000" class="color000000 svgShape"><polygon fill="#041245" points="3460.63 1596.095 3467.389 1619.208 3461.087 1633.495 3444.259 1633.645 3436.274 1616.276 3448.049 1596.095 3460.63 1596.095" class="color2c0445 svgShape"></polygon><polygon fill="#041245" points="3461.234 1635.45 3446.765 1635.45 3423.399 1735.607 3445.266 1846.353 3456.185 1846.353 3471.475 1740.902 3461.234 1635.45" class="color2c0445 svgShape"></polygon></g><path fill="#7a90e5" d="M3505.1478,1538.6707l-3.5309-38.4762-54.4648-13.4074-13.27,54.6804C3456.6515,1551.5692,3481.5869,1547.9054,3505.1478,1538.6707Z" class="colore57a7a svgShape"></path><path fill="#8fbfef" d="M3433.8821,1541.4675l-8.3751,34.5142,26.7807,14.0291c18.8484,4.253,37.317-4.9903,55.576-21.7504l-2.7159-29.5897C3481.5869,1547.9054,3456.6515,1551.5692,3433.8821,1541.4675Z" class="coloref8f8f svgShape"></path><path fill="#ffffff" d="M3449.1499 1592.4442s2.2073-18.1495-1.7657-30.1516-23.9855-19.7944-23.9855-19.7944-2.1425 25.3043-3.5545 29.8933S3444.8274 1591.2087 3449.1499 1592.4442zM3517.4625 1568.2804l-5.1809-25.7822s-38.2902 22.2654-45.5054 36.2972-1.4624 15.4321-1.4624 15.4321S3499.3808 1593.167 3517.4625 1568.2804z" class="colorffffff svgShape"></path><path fill="#8fbfef" d="M3518.713,1424.7738c-29.8989,5.8209-59.0354-.028-89.0302,2.6988-2.8879,0-6.7384,0-8.6637,2.8879-7.701,14.4394-2.8879,31.7668-13.4768,44.281a5.94292,5.94292,0,0,1-1.6733.7736c6.1621,41.034,33.5746,71.5035,64.4784,69.7274,33.4364-1.9216,58.2956-40.8607,55.5252-86.9729A111.06311,111.06311,0,0,0,3518.713,1424.7738Z" class="coloref8f8f svgShape"></path><path fill="#7d8fd3" d="M3421.0191,1430.3605c1.9253-2.8879,5.7758-2.8879,8.6637-2.8879,29.9948-2.7268,59.1313,3.1221,89.0302-2.6988-11.1529-28.7903-33.6554-48.0401-58.398-46.6182-33.4364,1.9217-58.2966,40.8608-55.5262,86.9729q.31455,5.23845,1.0802,10.2866a5.94292,5.94292,0,0,0,1.6733-.7736C3418.1312,1462.1273,3413.3181,1444.7999,3421.0191,1430.3605Z" class="colord37d7d svgShape"></path><path fill="#0d1535" d="M3506.4134 1455.1589s-23.0891-13.9873-27.8816-7.395C3475.8605 1451.4383 3507.8923 1460.736 3506.4134 1455.1589zM3421.5861 1448.9145s24.768-12.1595 27.5455-2.6282c1.2447 4.2713-21.7112 3.8321-23.0133 4.0187S3421.0531 1450.1801 3421.5861 1448.9145zM3477.1765 1468.1485c.0443 2.6772 2.9926 4.8013 6.5853 4.7444s6.4692-2.2733 6.4249-4.9505-2.9927-4.8013-6.5854-4.7444S3477.1321 1465.4713 3477.1765 1468.1485zM3434.0141 1467.2535c-.4475 2.792 1.9536 5.4904 5.3632 6.0271s6.5363-1.2916 6.9839-4.0837-1.9536-5.4904-5.3632-6.0271S3434.4617 1464.4615 3434.0141 1467.2535z" class="color350d1d svgShape"></path><path fill="#5065b5" d="M3458.1326,1455.9406s-6.2622,30.554-6.6062,31.6306-14.2145,5.3255-7.3451,11.9192,12.3866,5.2386,15.9065,2.569-1.002-3.8687-2.9751-2.3578-9.3969.3829-9.88-2.3614,3.2108-6.4255,6.1343-7.9221,6.0006-31.7314,6.0006-31.7314Z" class="colorb55050 svgShape"></path><path fill="#0d1535" d="M3515.0232,1482.6063c-2.8026.4954,10.4139-49.6593,3.1173-58.5247-3.7053-4.502-5.9716-9.0882-4.6815-10.4843s-77.7374,9.9366-97.0936,3.6631l-6.9577,29.227s1.4422,21.7417-1.9607,17.7939c-.9765-1.1328-4.6372-5.0335-5.4899-10.4576-2.1188-13.479-.9463-34.7791-.9463-34.7791s-19.3943-14.5075-21.5315-19.2938,22.2773-7.3503,37.0507-23.2413,49.9186-22.6349,72.0624-16.6245c20.9629,5.69,29.6814,17.784,33.2476,28.2195,15.9343-4.1079,18.7975,1.8758,17.7651,20.3787s-.9735,43.0927-4.9611,57.4412-18.2916,47.8051-18.2916,47.8051-4.5965-.9026-1.167-12.1057c4.1852-13.6716,16.4032-38.363,14.4478-41.3962C3526.0755,1454.7087,3521.1039,1481.5313,3515.0232,1482.6063Z" class="color350d1d svgShape"></path><path fill="#8fbfef" d="M3524.0539,1460.3723s17.5828-16.6491,16.8584-4.4662-5.7017,32.5128-14.4443,31.8894S3524.0539,1460.3723,3524.0539,1460.3723Z" class="coloref8f8f svgShape"></path><path fill="#ffffff" stroke="#000000" stroke-linecap="round" stroke-linejoin="round" stroke-width="2.926" d="M3166.304,1844.5815a3.56258,3.56258,0,1,0-3.5617,3.4834A3.52322,3.52322,0,0,0,3166.304,1844.5815Z" class="colorffffff svgShape colorStroke000000 svgStroke"></path><path fill="#eaf4ff" d="M3438.0008,1511.6029l37.9358.8842a22.57214,22.57214,0,0,1-20.6249,12.8689C3440.0711,1525.356,3438.0008,1511.6029,3438.0008,1511.6029Z" class="colorfffeea svgShape"></path><g fill="#000000" class="color000000 svgShape"><path fill="#94c4f4" d="M3472.8526,1923.5383s-20.857,9.3295-27.7129,5.978c-12.7681-6.2416-41.8489,14.5083-35.5424,21.0904s31.514,20.497,42.4004,14.0356,34.7792-17.9454,33.768-20.1458S3472.8526,1923.5383,3472.8526,1923.5383Z" class="colorf4a594 svgShape"></path><polygon fill="#ffffff" points="3483.73 1915.532 3463.131 1928.085 3485.601 1952.142 3503.266 1931.016 3483.73 1915.532" class="colorffffff svgShape"></polygon><path fill="#b4c3d3" d="M3489.3659,1928.0408c-1.5435.7718-3.0881,3.3988-5.1271,5.8985a117.40223,117.40223,0,0,0,11.9492,9.0481s118.7318-81.7808,124.1155-94.7196c9.9742-23.971,8.0188-37.9568.2172-44.6191-.0169,4.867-.3018,9.5041-2.1622,13.6895C3595.2554,1870.2829,3539.4228,1897.2366,3489.3659,1928.0408Z" class="colord3cbb4 svgShape"></path><path fill="#dcedff" d="M3561.6441,1818.3878s-87.0598,91.6227-87.6314,100.77c-.2754,4.3979,4.8404,10.0717,10.2261,14.7815,2.039-2.4997,3.5836-5.1267,5.1271-5.8985,50.0569-30.8042,105.8895-57.7579,128.9926-110.7026,1.8604-4.1854,2.1453-8.8225,2.1622-13.6895C3607.7094,1792.7091,3579.1257,1801.5265,3561.6441,1818.3878Z" class="colorfff7dc svgShape"></path><path fill="#041245" d="M3495.9687,1915.1538a5.46809,5.46809,0,1,0-7.6445.1857A5.40775,5.40775,0,0,0,3495.9687,1915.1538Z" class="color2c0445 svgShape"></path></g></g><g fill="#000000" class="color000000 svgShape"><rect width="293.227" height="39.108" x="1321.762" y="1956.017" fill="#6679c2" class="colorc2668f svgShape"></rect><polygon fill="#071444" points="1561.959 2005.539 1520.863 2005.539 1600.834 2266.185 1332.783 2266.185 1332.783 2294.323 1626.01 2294.323 1626.01 2266.185 1561.959 2005.539" class="color071444 svgShape"></polygon></g><g fill="#000000" class="color000000 svgShape"><path fill="#ffffff" d="M1726.6776,2362.0467a65.09686,65.09686,0,0,0,34.6596-3.0021c-8.5742-17.8831-9.7759-34.0935-9.5052-53.9241q-11.51325,2.9529-23.0265,5.9058c-6.4724,1.6598-9.9441,1.6091-10.0007,8.8656C1718.6798,2335.9043,1722.2676,2346.6525,1726.6776,2362.0467Z" class="colorffffff svgShape"></path><path fill="#041246" d="M1797.0096 2367.3911c-21.9174-16.694-30.0265-20.3152-38.4393-20.3904-2.0603 3.0692-4.3249 5.391-7.0216 6.1279-12.9146 9.7617-16.9062 5.713-31.8758-1.797l-2.5107 48.0217s22.27 5.6975 37.0178 2.7146c2.4663-.4985-.6207-9.8781 1.7959-8.9585 35.6243 13.5593 57.0172 20.8563 77.3481 5.0833C1849.2771 2385.8161 1836.8083 2393.1923 1797.0096 2367.3911zM1489.1426 2374.3236c-8.4494 14.1734-9.1176 33.022-2.7007 48.1316l10.0347 3.5358s6.5818 31.0284 25.763 41.7473 24.4466-.5641 26.7032-14.1038-10.1548-42.4649-14.668-53.6712-5.5606-23.6177-18.5765-25.3102A133.1465 133.1465 0 001489.1426 2374.3236z" class="color2e0446 svgShape"></path><path fill="#ffffff" d="M1494.22,2343.2361l-.0003,46.6492q20.8722,20.15475,31.5926,0l5.0776-42.2215Z" class="colorffffff svgShape"></path><path fill="#8fbfef" d="M1636.3996,1654.5353s-9.721-47.9408-6.9201-52.4625,8.6992,4.1372,9.1294,5.9679-21.1109-32.307,2.0393-30.7932,28.9919,36.2501,27.0515,44.4331-6.5572,37.8577-6.5572,37.8577Z" class="coloref8f8f svgShape"></path><path fill="#66a9ed" d="M1595.8704,1805.7866c-26.9537-19.2526-7.7011-52.9447-2.8879-79.8984,7.5398-45.2396,19.6799-87.7127,11.1501-132.8364-25.6535-28.9953-83.049-45.2007-83.049-45.2007l23.4891,75.906s25.7015,41.7223,28.8168,54.5435-24.0925,127.5389,29.1267,139.8541c13.2047,3.0557,23.7635-3.5103,32.2054-15.6541C1621.6367,1809.439,1608.0546,1813.9094,1595.8704,1805.7866Z" class="coloreda666 svgShape"></path><path fill="#84bdf7" d="M1628.9726,1646.7859s-5.7932,48.4824-16.9171,79.9945c-12.6932-7.334,8.7643-64.9913,4.0217-109.2201-.9608-8.9572-5.4299-17.145-11.9446-24.5085,8.5298,45.1237-3.6103,87.5968-11.1501,132.8364-4.8132,26.9537-24.0658,60.6458,2.8879,79.8984,12.1842,8.1228,25.7663,3.6524,38.8512-3.286,30.3948-43.7257,33.3245-159.8066,33.3245-159.8066Z" class="colorf7c084 svgShape"></path><path fill="#101e51" d="M1545.5204,1869.1723s167.3783,50.0239,175.0947,84.0588c18.0529,66.9653,43.7183,361.3047,43.7183,361.3047-18.8077,2.8116-54.0833,17.9856-58.201.2986,0,0-63.4951-286.9416-67.7919-297.1641-10.666-21.244-107.7628-28.3436-119.9787-30.6382-6.2022-1.1649-115.6772-88.0854-112.1496-117.8726C1409.6325,1840.2773,1525.6462,1868.472,1545.5204,1869.1723Z" class="color51103d svgShape"></path><path fill="#101e51" d="M1530.4114,2095.5386c1.9253-4.8131,0-10.5889,1.9253-15.4021.9626-2.8879,3.8505-4.8131,4.8132-7.701a571.16643,571.16643,0,0,0,1.9252-70.2721c-35.6173-.9626-70.272-5.7758-106.852-13.4768-11.5516-2.8879-22.1406-5.7758-33.6921-8.6637-15.8284-4.6167-27.5897-14.204-38.3802-25.356,11.717,19.8345,31.2831,38.2077,59.3578,45.9007,56.438,15.4654,63.8561,3.0132,101.677,14.0085-18.3657,59.5372-25.8082,196.2675-28.6961,278.0636a90.92878,90.92878,0,0,0,7.1178-23.8275C1511.1588,2209.1291,1511.1588,2151.3712,1530.4114,2095.5386Z" class="color51103d svgShape"></path><path fill="#2e4499" d="M1598.7583,1961.7329c-7.7011-8.6637-14.4395-17.3274-24.0658-24.0658-22.1405-15.4021-47.1689-23.1031-72.1974-31.7668-17.3273-6.7384-37.5426-7.7011-56.7952-14.4395-9.953-3.5546-20.9462-8.169-28.7342-15.7626-20.8944.3793-63.6986,3.6517-68.9621,23.8834-3.5168,13.5175.3098,35.0472,12.1472,55.0853,10.7905,11.152,22.5518,20.7393,38.3802,25.356,11.5515,2.8879,22.1405,5.7758,33.6921,8.6637,36.58,7.701,71.2347,12.5142,106.852,13.4768a571.16643,571.16643,0,0,1-1.9252,70.2721c-.9627,2.8879-3.8506,4.8131-4.8132,7.701-1.9253,4.8132,0,10.589-1.9253,15.4021-19.2526,55.8326-19.2526,113.5905-30.8041,173.2736a90.92878,90.92878,0,0,1-7.1178,23.8275c-1.3692,38.7812-1.7147,65.2162-1.7147,65.2162,10.9203,8.3381,37.3556,9.4347,46.1701-3.2531,0,0,79.4566-234.8574,88.3774-337.9557-4.557-14.7168-5.1107-30.3765-15.0125-42.4C1607.4219,1970.3966,1602.6088,1965.5834,1598.7583,1961.7329Z" class="color992e6e svgShape"></path><path fill="#293d89" d="M1623.9615,1980.0036c-19.1812-65.1141-195.6026-104.2419-195.6026-104.2419s-4.509-.1885-11.3932-.0635c7.788,7.5936,18.7812,12.208,28.7342,15.7626,19.2526,6.7384,39.4679,7.7011,56.7952,14.4395,25.0285,8.6637,50.0569,16.3647,72.1974,31.7668,9.6263,6.7384,16.3647,15.4021,24.0658,24.0658,3.8505,3.8505,8.6636,8.6637,11.5515,12.5142,9.9018,12.0235,10.4555,27.6832,15.0125,42.4C1626.6811,2000.9455,1626.4048,1988.2978,1623.9615,1980.0036Z" class="color892967 svgShape"></path><g fill="#000000" class="color000000 svgShape"><path fill="#66a9ed" d="M1363.7517 1751.7674c24.3904-61.5062 54.9622-135.3939 18.427-196.5613-9.6706 4.7479-18.0221 11.3078-22.7205 20.7138-3.2636 6.5335-5.6971 19.7772-7.5403 36.6636-6.2237 57.0216-5.6937 155.7052-7.4738 178.895-2.3072 30.0571-7.2232 91.0989 4.5627 106.6386 6.652 8.7704 15.6987 7.2946 28.3484 1.4687C1364.9915 1849.5906 1343.9604 1799.6834 1363.7517 1751.7674zM1441.1226 1569.7823c9.8075 18.5255 22.8843 34.8714 23.974 56.666 6.5384-4.3589 7.6282-13.0767 13.0768-17.4357 9.8076-7.6281 23.9741-6.5383 35.9611 0s22.8844 15.2563 35.9612 19.6152c0-20.3582 4.1647-42.3827 4.3634-63.6902-44.0982-22.904-106.5856-27.2572-116.1907-24.5994-1.2765.3532-2.7469.6936-4.3666 1.0342C1431.7609 1550.8565 1437.0494 1562.4506 1441.1226 1569.7823z" class="coloreda666 svgShape"></path><path fill="#66a9ed" d="M1503.2372,1838.9459c-20.7049-3.2692-40.32-13.0768-61.0249-8.7179-27.496,6.4698-54.4586,7.8673-81.2837,6.8402,4.5824,20.7314,11.2578,41.6164,16.4266,62.5176,4.6058-2.1214,9.6852-4.8144,15.3065-7.8067,6.2947-3.3508,13.2548-7.0652,20.9808-10.7542,33.5747-16.0314,100.8946,21.5601,132.7636,8.5538,29.5465-12.0583,33.4214-32.9322,30.2281-54.5237C1551.9463,1833.6677,1528.3875,1842.6719,1503.2372,1838.9459Z" class="coloreda666 svgShape"></path><path fill="#84bdf7" d="M1554.4591,1564.9376c-.1987,21.3075-4.3634,43.332-4.3634,63.6902-13.0768-4.3589-23.9741-13.0768-35.9612-19.6152s-26.1535-7.6281-35.9611,0c-5.4486,4.359-6.5384,13.0768-13.0768,17.4357-1.0897-21.7946-14.1665-38.1405-23.974-56.666-4.0732-7.3317-9.3617-18.9258-7.2208-28.4099-12.4811,2.6247-34.2598,5.2598-51.7231,13.8337,36.5352,61.1674,5.9634,135.0551-18.427,196.5613-11.5172,27.8842-9.2018,56.443-2.8231,85.3008,26.8251,1.0271,53.7877-.3704,81.2837-6.8402,20.7049-4.3589,40.32,5.4487,61.0249,8.7179,25.1503,3.726,48.7091-5.2782,73.397-3.8909q-.37635-2.5458-.8697-5.1002c-6.5613-33.9067,18.4969-181.6864,18.4969-181.6864C1608.6852,1607.8386,1586.3936,1581.5243,1554.4591,1564.9376Z" class="colorf7c084 svgShape"></path><path fill="#8fbfef" d="M1510.5815,1575.0124c9.6748-5.8188,11.0971-16.9977,11.0971-16.9977l-2.1268-28.4638a158.22126,158.22126,0,0,1-41.3784-8.8065C1483.1714,1541.7361,1497.3379,1558.1436,1510.5815,1575.0124Z" class="coloref8f8f svgShape"></path><path fill="#7088e0" d="M1480.7227,1448.064l-24.5376,109.7733s16.3292,19.7884,39.5709,20.5873c6.3636.2187,11.1777-1.2182,14.8255-3.4122-13.2436-16.8688-27.4101-33.2763-32.4081-54.268a158.22126,158.22126,0,0,0,41.3784,8.8065l-4.6018-61.5871Z" class="colore07070 svgShape"></path><path fill="#041245" d="M1488.9318,1622.9869l18.083,1.1367,17.4204,140.6655s-24.2217,74.4028-26.7792,77.5539-12.7878,0-12.7878,0l-14.777-103.6978Z" class="color2c0445 svgShape"></path><path fill="#ffffff" d="M1520.39 1525.1494s21.0286 3.4922 25.6283 34.467c6.0633 40.8312-.3305 52.0231-.3305 52.0231l-43.7009-32.2317zM1462.1344 1518.1272l31.7666 59.7115-25.0608 33.023s-19.4229-30.0026-27.9141-54.8448C1433.9066 1534.7987 1462.1344 1518.1272 1462.1344 1518.1272z" class="colorffffff svgShape"></path><path fill="#8fbfef" d="M1457.4685,1413.9508c-11.3142,1.6163-22.6209,5.6392-30.8237,13.3838q.5331,4.389,1.4404,8.8273c9.516,46.2054,48.5728,84.3466,85.8102,81.2522,34.7346-2.8864,56.2376-62.3414,46.7219-108.5467-.5305-2.5756-1.1608-5.0972-1.8594-7.5762-18.5624,3.7645-36.7861,8.2658-56.6104,11.5699C1486.8913,1416.1303,1472.7248,1412.8611,1457.4685,1413.9508Z" class="coloref8f8f svgShape"></path><path fill="#6d80c9" d="M1477.1212,1338.8525c-34.256,7.0548-55.6787,45.6772-50.4764,88.4821,8.2028-7.7446,19.5095-11.7675,30.8237-13.3838,15.2563-1.0897,29.4228,2.1795,44.679-1.0897,19.8243-3.3041,38.048-7.8054,56.6104-11.5699C1546.923,1359.2961,1511.6789,1331.7355,1477.1212,1338.8525Z" class="colorc96d6d svgShape"></path><path fill="#0d1535" d="M1449.9645,1495.5468s8.2382,1.345,7.8126-.7217-12.9895-58.4004-3.7021-69.7922,13.9815,13.4935,18.4185,7.8402,2.5396-19.0504,7.2074-27.7673,135.7598,19.0053,88.3768-89.7251c-16.0341,18.3826-51.3783,13.1664-71.9347,10.0752s-93.8494,32.2541-86.1635,73.758S1440.1303,1483.7843,1449.9645,1495.5468Z" class="color350d1d svgShape"></path><ellipse cx="1453.152" cy="1439.632" fill="#8fbfef" rx="14.509" ry="16.482" class="coloref8f8f svgShape"></ellipse><polygon fill="#041245" points="1504.192 1578.447 1515.843 1600.253 1507.015 1618.156 1487.426 1618.156 1479.469 1598.301 1493.901 1577.839 1504.192 1578.447" class="color2c0445 svgShape"></polygon><path fill="#eaf4ff" d="M1503.1175,1475.2746l29.1854-4.092s4.9906,14.2973-14.8099,16.3249C1502.8142,1489.0107,1503.1175,1475.2746,1503.1175,1475.2746Z" class="colorfffeea svgShape"></path><path fill="#0d1535" d="M1507.2907 1437.0354a6.47731 6.47731 0 01-5.147 7.6452 6.616 6.616 0 01-7.8168-5.034 6.47741 6.47741 0 015.147-7.6452A6.616 6.616 0 011507.2907 1437.0354zM1541.0257 1428.7882a5.58039 5.58039 0 01-4.4342 6.5865 5.69982 5.69982 0 01-6.7343-4.3369 5.58029 5.58029 0 014.4342-6.5864A5.69973 5.69973 0 011541.0257 1428.7882zM1476.8864 1426.9227s14.1636-12.0931 15.8359-10.9679c4.4621 3.0023-.3678 7.5099-3.0474 9.0875S1477.0624 1428.6311 1476.8864 1426.9227zM1530.4589 1415.8164s18.7736-1.2614 16.4947-6.8831C1546.535 1407.9008 1523.2857 1410.1966 1530.4589 1415.8164z" class="color350d1d svgShape"></path><path fill="#5065b5" d="M1521.8362,1431.8671s11.2222,19.4476,10.7178,21.7058-14.0348,9.7844-16.3599,8.432-.3254-2.6259.8721-3.0879,10.9655-3.7664,11.1629-5.4228S1520.3926,1432.703,1521.8362,1431.8671Z" class="colorb55050 svgShape"></path></g><path fill="#8fbfef" d="M1463.9261,1709.7104s8.5575-30.5006,20.6069-37.1734,34.9453-9.3505,36.5508-8.6811,19.3448.9616,21.3531,8.6811-21.2353,6.9502-30.5326,14.1963-10.5558,21.973-17.7921,27.3283-25.9798,12.7188-25.9798,12.7188l-10.3758-11.0453Z" class="coloref8f8f svgShape"></path><path fill="#66a9ed" d="M1425.4846,1758.6177c-20.2152,17.3274-40.4305,33.6921-62.571,47.1689-13.4768,7.7011-24.0658,16.3648-36.58,23.1032-8.6636,4.8131-20.2152,8.6637-27.9163,4.8131-9.6263-4.8131-5.7758-16.3647-5.7758-25.991,2.8879-33.6921-.9626-67.3842,7.7011-102.0389,9.6263-36.58,17.3274-70.2721,23.1031-107.8147.84-6.7191,6.0748-11.2403,8.0358-16.7593a104.78913,104.78913,0,0,0-5.9291,9.2101c-24.1814,42.0755-59.9581,237.7259-32.9221,253.5102,30.1052,17.5756,193.7948-109.142,193.8117-119.0472a68.56582,68.56582,0,0,0-4.0878-5.9034C1460.976,1727.2756,1443.4997,1743.4852,1425.4846,1758.6177Z" class="coloreda666 svgShape"></path><path fill="#84bdf7" d="M1300.3426,1705.673c-8.6637,34.6547-4.8132,68.3468-7.7011,102.0389,0,9.6263-3.8505,21.1779,5.7758,25.991,7.7011,3.8506,19.2527,0,27.9163-4.8131,12.5142-6.7384,23.1032-15.4021,36.58-23.1032,22.1405-13.4768,42.3558-29.8415,62.571-47.1689,18.0151-15.1325,35.4914-31.3421,56.8696-39.749a89.88541,89.88541,0,0,0-18.4282-18.1952c-29.0872,3.6961-87.5026,40.6046-114.3487,53.0857,20.5029-35.9323,20.0357-74.3749,25.6066-107.4272,9.4919-56.3183,3.6667-89.0906,3.6667-89.0906s-24.6096-7.609-47.3691,23.8576c-1.961,5.519-7.1958,10.0402-8.0358,16.7593C1317.67,1635.4009,1309.9689,1669.093,1300.3426,1705.673Z" class="colorf7c084 svgShape"></path></g><g fill="#000000" class="color000000 svgShape"><g fill="#000000" class="color000000 svgShape"><polygon fill="#314388" points="1918.745 2487.367 1869.374 2487.367 1869.374 1912.732 1909.771 1912.732 1918.745 2487.367" class="color3b3188 svgShape"></polygon><polygon fill="#314388" points="2701.875 2474.166 2652.503 2487.367 2652.503 1912.732 2688.645 1912.732 2701.875 2474.166" class="color3b3188 svgShape"></polygon><polygon fill="#44538a" points="2639.167 1912.732 2627.818 2438.956 1883.846 2438.956 1883.846 1912.732 1857.846 1912.732 1844.689 2438.956 1844.689 2487.367 1883.846 2487.367 2627.818 2487.367 2666.975 2487.367 2666.975 2438.956 2666.975 1912.732 2639.167 1912.732" class="color6d448a svgShape"></polygon></g><polygon fill="#e4f0fd" points="2931.858 1927.326 1627.815 1927.326 2074.664 1809.486 2542.266 1809.486 2931.858 1927.326" class="colorfdeee4 svgShape"></polygon><rect width="1304.043" height="47.019" x="1627.815" y="1918.629" fill="#6679c2" class="colorc2668f svgShape"></rect></g><g fill="#000000" class="color000000 svgShape"><rect width="293.226" height="39.108" x="942.184" y="2007.538" fill="#6679c2" class="colorc2668f svgShape"></rect><polygon fill="#071444" points="1176.849 2043.633 1135.753 2043.633 1221.257 2318.863 953.206 2318.863 953.206 2347.001 1246.432 2347.001 1246.432 2318.863 1176.849 2043.633" class="color071444 svgShape"></polygon></g><g fill="#000000" class="color000000 svgShape"><g mask="url(#e)" fill="#000000" class="color000000 svgShape"><polygon fill="url(#f)" points="1067.395 870.748 1553.723 781.663 1553.723 1672.537 1066.296 922.329 1067.395 870.748" opacity=".5"></polygon></g><path fill="#6489af" d="M1048.1332,923.0538c7.9304-22.0289-8.3276-41.6389-12.6148-62.52l-23.3532-4.6706,9.7514,98.0885,24.1691-11.9388A51.64193,51.64193,0,0,1,1048.1332,923.0538Z" class="color8964af svgShape"></path><path fill="#89a7c6" d="M1069.5268,867.3355l-34.0084-6.8017c4.2872,20.8811,20.5452,40.4911,12.6148,62.52a51.64193,51.64193,0,0,0-2.0475,18.9591l23.4411-11.5795C1079.4044,918.8983,1080.7769,886.3023,1069.5268,867.3355Z" class="colora989c6 svgShape"></path><rect width="10.325" height="280.14" x="914.65" y="560" fill="#89a7c6" class="colora989c6 svgShape"></rect><rect width="151.282" height="126.791" x="883.828" y="851.735" fill="#89a7c6" rx="20.433" class="colora989c6 svgShape"></rect><path fill="#6084a8" d="M829.5285,851.7347H957.5503a14.6875,14.6875,0,0,1,14.6875,14.6875v97.4164a14.6874,14.6874,0,0,1-14.6874,14.6874H829.5285a14.6874,14.6874,0,0,1-14.6874-14.6874V866.4221A14.6874,14.6874,0,0,1,829.5285,851.7347Z" class="color8360a8 svgShape"></path><rect width="129.255" height="11.595" x="864.555" y="840.14" fill="#42528e" rx="5.218" class="color63428e svgShape"></rect><rect width="58.4" height="11.595" x="943.187" y="840.14" fill="#89a7c6" rx="5.218" class="colora989c6 svgShape"></rect><rect width="23.948" height="11.595" x="907.839" y="828.546" fill="#89a7c6" rx="3.857" class="colora989c6 svgShape"></rect><rect width="5.58" height="48.951" x="827.672" y="864.572" fill="#2c3a70" rx="2.511" class="color462c70 svgShape"></rect><path fill="#2c3a70" d="M842.2287,864.5716h.558a2.5112,2.5112,0,0,1,2.5112,2.5112v43.9288a2.5112,2.5112,0,0,1-2.5112,2.5112h-.558a2.5113,2.5113,0,0,1-2.5113-2.5113V867.0829A2.5113,2.5113,0,0,1,842.2287,864.5716Z" class="color462c70 svgShape"></path><rect width="5.58" height="48.951" x="851.763" y="864.572" fill="#2c3a70" rx="2.511" class="color462c70 svgShape"></rect><rect width="5.581" height="48.951" x="863.809" y="864.572" fill="#2c3a70" rx="2.511" class="color462c70 svgShape"></rect><rect width="5.58" height="48.951" x="875.855" y="864.572" fill="#2c3a70" rx="2.511" class="color462c70 svgShape"></rect><rect width="5.581" height="48.951" x="887.9" y="864.572" fill="#2c3a70" rx="2.511" class="color462c70 svgShape"></rect><rect width="5.58" height="48.951" x="899.946" y="864.572" fill="#2c3a70" rx="2.511" class="color462c70 svgShape"></rect><path fill="#2c3a70" d="M914.503,864.5716h.558a2.5113,2.5113,0,0,1,2.5113,2.5113v43.9286a2.5113,2.5113,0,0,1-2.5113,2.5113h-.558a2.5112,2.5112,0,0,1-2.5112-2.5112V867.0828A2.5112,2.5112,0,0,1,914.503,864.5716Z" class="color462c70 svgShape"></path><rect width="5.58" height="48.951" x="924.038" y="864.572" fill="#2c3a70" rx="2.511" class="color462c70 svgShape"></rect><rect width="5.58" height="48.951" x="936.083" y="864.572" fill="#2c3a70" rx="2.511" class="color462c70 svgShape"></rect><rect width="5.58" height="48.951" x="948.129" y="864.572" fill="#2c3a70" rx="2.511" class="color462c70 svgShape"></rect><rect width="120.457" height="12.249" x="830.462" y="929.764" fill="#4256a0" rx="4.848" class="color6242a0 svgShape"></rect><rect width="120.457" height="12.249" x="830.462" y="951.037" fill="#4256a0" rx="5.512" class="color6242a0 svgShape"></rect><path fill="#18203d" d="M1008.2078,889.7562c0,6.3607-2.4578,11.5172-5.4898,11.5172s-5.4899-5.1565-5.4899-11.5172,2.4579-11.5171,5.4899-11.5171S1008.2078,883.3955,1008.2078,889.7562Z" class="color29183d svgShape"></path><path fill="#d5e2ef" d="M1010.724,889.7562c0,6.3607-2.4579,11.5172-5.4898,11.5172s-5.4899-5.1565-5.4899-11.5172,2.4579-11.5171,5.4899-11.5171S1010.724,883.3955,1010.724,889.7562Z" class="colore2d5ef svgShape"></path></g><g fill="#000000" class="color000000 svgShape"><path fill="#a2cdf9" d="M1375.3845,1676.1701s3.9852-20.1116,3.1511-33.4575c-.2491-3.986-4.7701-24.4947-1.1121-29.0719,2.009-2.5138,8.0081,11.2196,10.7587,8.877,9.0095-7.6729,21.1658-13.7619,31.0255-13.9112,18.3506-.2781-10.1804,41.4279-16.5753,48.3788s-15.2922,23.3554-15.2922,23.3554Z" class="colorf9a2a2 svgShape"></path><path fill="#07238e" d="M1142.3243 2360.0827l-13.7166-4.4486s-23.3554 2.2243-20.0189 28.1746-4.0779 36.7013-4.0779 36.7013 3.3365 3.9215 4.8193 3.629 17.4239-27.7258 21.1311-29.9501 4.8193 21.5017 34.1061 34.1062 40.0377 4.8193 38.5549-.7415-22.9846-18.4691-31.1405-28.6973-10.0094-29.5056-10.0094-29.5056zM1360.042 2334.6696l-21.1837-9.7843s-14.0289-2.0202-17.5675 23.9033-13.4975 34.3719-13.4975 34.3719 2.1997 4.6553 3.7076 4.7591 24.0447-22.2297 28.2033-23.4116-.9481 22.0148 24.0443 41.8131 37.4 15.0825 37.4169 9.3274-17.3801-23.8188-22.5899-35.8184-1.9779-31.0943-1.9779-31.0943z" class="color8e0772 svgShape"></path><path fill="#091d66" d="M1065.4548,1705.0325c-.0001,0-139.3123,63.0473-159.9767-22.6015-6.0537-25.091-2.5527-50.6485,22.4537-62.9257,40.9777-16.6592,53.7888-11.2833,91.6102-38.0165,23.8819-16.013,37.6813-32.6097,24.829-58.9243-25.3796-48.9944,14.748-33.7026,32.4297-60.6604,3.7321-13.6936,12.1835-35.7349,12.9212-49.5313,6.1797-37.7551,70.4447-55.5095,97.3068-29.5057,83.337-24.3131,32.7214,95.1052,68.1356,121.6011,53.1658,39.7771-14.279,56.8648-10.126,87.0292s43.9207,34.7639,59.0239,40.9932c51.4755,24.6465-78.2473,113.1556-135.2845,94.1244C1134.3985,1721.4295,1100.5362,1701.1427,1065.4548,1705.0325Z" class="color660938 svgShape"></path><path fill="#65a1de" d="M1221.8833,1664.3997c3.6389,39.5716,49.2986,142.4695,95.5546,146.9181,47.9372-19.2052,78.1508-141.728,78.1508-141.728l-24.4675-2.2243s-42.9453,64.4049-52.7048,90.4597c-19.3411-4.7862-74.1625-137.5586-82.5209-143.1028S1218.2445,1624.8281,1221.8833,1664.3997Z" class="colorb065de svgShape"></path><path fill="#4062e2" d="M1065.9591,1744.3342c-1.0662-4.2649-4.2648-8.5297-3.1986-11.7283,2.6694-38.0396-19.3067-63.9648-47.3642-83.529a38.73094,38.73094,0,0,0,3.5415,9.3913c76.7389,144.2099,2.4102,225.2051,2.4102,225.2051l14.9891,1.6104c3.8997-8.5776,7.5882-17.5079,12.5627-25.7986C1068.0916,1824.3001,1073.4226,1784.8502,1065.9591,1744.3342Z" class="colore27140 svgShape"></path><path fill="#5579ff" d="M1182.1763,1682.4939c-14.927-4.2649-28.7878,1.0662-43.7147,7.4635-15.9932,7.4635-46.9134,10.6621-51.1782-12.7946-4.6544-31.65,2.0663-67.3624-20.9872-90.11a169.94406,169.94406,0,0,0-34.2773,18.7838c-10.8602,7.7898-20.8468,25.2115-16.6226,43.2403,28.0575,19.5642,50.0336,45.4894,47.3642,83.529-1.0662,3.1986,2.1324,7.4634,3.1986,11.7283,7.4635,40.516,2.1325,79.9659-17.0593,115.1509-4.9745,8.2907-8.663,17.221-12.5627,25.7986l143.006,15.3643,16.9631,1.8224s-10.4104-88.1811,8.2225-142.0095c.1428-.4123.2818-.8288.4279-1.2371,49.1232-15.208,47.0634-41.7901,41.3182-71.8122A133.03837,133.03837,0,0,1,1182.1763,1682.4939Z" class="colorff8e55 svgShape"></path><path fill="#a9d4ff" d="M1243.4436,1626.6854c-21.9922-32.473-78.3934-56.4767-87.3744-57.1393,0,0-44.8244-1.0408-89.773,17.5067,23.0535,22.7476,16.3328,58.46,20.9872,90.11,4.2648,23.4567,35.185,20.2581,51.1782,12.7946,14.9269-6.3973,28.7877-11.7284,43.7147-7.4635a133.03837,133.03837,0,0,0,64.0985,4.9177C1242.5404,1667.897,1237.2496,1646.9295,1243.4436,1626.6854Z" class="colorffc3a9 svgShape"></path><path fill="#6b83db" d="M1191.6659,1571.9123l-5.5845-52.3865-40.6834-3.3346s-4.47,18.9118-8.1688,35.3675C1150.6276,1568.3441,1172.1759,1577.4323,1191.6659,1571.9123Z" class="colordb6b6b svgShape"></path><path fill="#8fbfef" d="M1191.6659,1571.9123c-19.49,5.52-41.0383-3.5682-54.4367-20.3536-2.6101,11.6116-4.8361,22.0008-4.8361,23.6564,0,4.0016,23.0091,35.3475,43.6841,30.0122,20.6749-5.3356,17.0067-20.0082,17.0067-20.0082Z" class="coloref8f8f svgShape"></path><path fill="#a2cdf9" d="M1167.4995,1425.5473c-25.9911,2.8879-36.58,28.8789-51.9821,47.1689a16.61181,16.61181,0,0,1-3.278,2.4063c.0277.5416.054,1.0829.0865,1.6264,3.851,64.2919,51.4208,87.7822,66.57,85.9072,17.7373-2.1952,41.8397-43.3579,37.8938-94.0402a159.20678,159.20678,0,0,0-3.2494-21.9828C1195.7425,1445.5804,1178.9702,1441.2441,1167.4995,1425.5473Z" class="colorf9a2a2 svgShape"></path><path fill="#94b5d6" d="M1157.4135,1380.9139c-28.5382,2.2218-47.709,44.1784-45.1741,94.2086a16.61181,16.61181,0,0,0,3.278-2.4063c15.4021-18.29,25.991-44.281,51.9821-47.1689,11.4707,15.6968,28.243,20.0331,46.0408,21.0858C1204.7949,1407.0666,1181.9225,1379.0056,1157.4135,1380.9139Z" class="colord69494 svgShape"></path><path fill="#65a1de" d="M1059.7606,1661.0656c8.0032-33.7914,5.7801-86.1499-34.2361-44.4088s-113.3793,250.9686-62.6921,260.4964,165.8664,2.5186,165.8664,2.5186,12.5809-31.7295-2.8003-38.0886c-6.1848-2.557-136.3886-8.8733-136.3886-19.5539S1051.7573,1694.8571,1059.7606,1661.0656Z" class="colorb065de svgShape"></path><path fill="#8fbfef" d="M1242.9503,2037.5425c-8.5796-2.0429-16.6895-5.8059-24.7498-9.1332a25.71207,25.71207,0,0,1,1.3512,8.5651c0,36.1089-93.8471,327.3438-93.8471,327.3438,6.0303,15.3904,19.6821,16.5857,33.6431,8.619l100.4879-226.9826a352.556,352.556,0,0,0-8.3556-54.0353C1247.2152,2073.7937,1240.8179,2056.7343,1242.9503,2037.5425Z" class="coloref8f8f svgShape"></path><path fill="#7388d8" d="M1288.7256,1932.3384c-70.5078-8.6489-79.8449-5.9811-79.8449-5.9811l-48.0196,89.3695s48.5796-12.2969,57.3394,12.6825c8.0603,3.3273,16.1702,7.0903,24.7498,9.1332-2.1324,19.1918,4.2649,36.2512,8.5297,54.3768a352.556,352.556,0,0,1,8.3556,54.0353l57.6022-130.1128S1359.2333,1940.987,1288.7256,1932.3384Z" class="colord87373 svgShape"></path><path fill="#92c0ef" d="M1294.5668,2109.9781c-1.9253-6.7384-5.7758-13.4768-8.6637-20.2153-7.701-29.8415,0-61.6084-20.2152-87.5994-2.8879-3.8505-8.6637-6.7384-13.4769-8.6637-23.1031-9.6263-49.0942-4.8131-73.1599-5.7758-2.8428,0-5.3425-1.199-7.8614-2.3689l-3.6592,19.7008s75.355-14.3131,87.1139.2944c10.6265,13.2019,71.4425,271.5105,83.049,321.105-.7793-32.3335-3.7443-64.6375-14.2477-96.1482C1309.9689,2190.8391,1304.1931,2151.3712,1294.5668,2109.9781Z" class="coloref9292 svgShape"></path><path fill="#a2cdf9" d="M1304.2608,1915.2418c-21.294-15.8759-118.3971-8.8926-118.3971-8.8926l-14.674,79.0058c2.5189,1.1699,5.0186,2.3689,7.8614,2.3689,24.0657.9627,50.0568-3.8505,73.1599,5.7758,4.8132,1.9253,10.589,4.8132,13.4769,8.6637,20.2152,25.991,12.5142,57.7579,20.2152,87.5994,2.8879,6.7385,6.7384,13.4769,8.6637,20.2153,9.6263,41.3931,15.4021,80.861,28.8789,120.3289,10.5034,31.5107,13.4684,63.8147,14.2477,96.1482,1.2362,5.2808,1.9164,8.2052,1.9164,8.2052,13.1031,17.156,24.4512,25.2349,32.4385,15.941C1372.0483,2350.6014,1325.5548,1931.1174,1304.2608,1915.2418Z" class="colorf9a2a2 svgShape"></path><path fill="#03081c" d="M1010.5161,1995.9602c-23.1703-9.5877-18.7995-38.3342-16.4989-65.1532-21.027,43.4763-34.8828,99.6317,30.3443,104.4833,107.5992,8.0032,184.5192-15.1172,184.5192-15.1172l11.5554-28.3064c-25.1037,1.9004-50.2149,5.2528-75.5773,8.3584C1100.0779,2006.6223,1052.0984,2014.0858,1010.5161,1995.9602Z" class="color05031c svgShape"></path><path fill="#122056" d="M1121.3884,1879.6718h-97.0269a374.00527,374.00527,0,0,0-30.3443,51.1352c-2.3006,26.819-6.6714,55.5655,16.4989,65.1532,41.5823,18.1256,89.5618,10.6621,134.3427,4.2649,25.3624-3.1056,50.4738-6.4579,75.5774-8.3585,45.8387-37.4749,98.6605-62.7668,56.639-100.0218Z" class="color171256 svgShape"></path><path fill="#091d66" d="M1159.2504,1376.2694s-23.7553,19.974,8.5706,43.8425c15.0819,11.136,25.5147.495,23.8991,17.7406-.8225,8.7794,25.9155,18.374,22.6536-11.7984S1187.8513,1376.7209,1159.2504,1376.2694Z" class="color660938 svgShape"></path><path fill="#091d66" d="M1156.2941,1379.443s18.1269,42.1773-22.296,57.8483c-17.7681,6.8883-24.0011,32.0953-23.9901,58.3874-9.8759-12.213-9.4999-50.8463-6.3514-67.7245S1145.9939,1366.9915,1156.2941,1379.443Z" class="color660938 svgShape"></path><path fill="#eaf4ff" d="M1156.2941,1517.6332l36.2245-5.3558s1.4128,18.1458-15.3894,20.0625C1160.3403,1534.2551,1156.2941,1517.6332,1156.2941,1517.6332Z" class="colorfffeea svgShape"></path><path fill="#09143b" d="M1129.3151 1471.6665s14.3648-14.0655 26.6368-13.33C1160.6 1458.6151 1130.7907 1476.4412 1129.3151 1471.6665zM1206.7547 1452.1949s-18.9508-4.1679-26.6062 2.4003C1177.2489 1457.0829 1208.9706 1456.7069 1206.7547 1452.1949z" class="color0f093b svgShape"></path><path fill="#eaf4ff" d="M1180.1872 1462.4757s38.8509-10.769 41.4496-2.259 6.0485 25.4723-6.8811 27.2534a256.54463 256.54463 0 01-26.1749 2.0379S1178.1926 1466.6968 1180.1872 1462.4757zM1126.2415 1475.1836s36.4345-14.4531 39.5032-9.8518 8.0173 22.9958-1.1646 28.3572-30.517 9.8418-33.5876 7.7032S1106.2923 1482.545 1126.2415 1475.1836z" opacity=".6" class="colorfffeea svgShape"></path><path fill="#09143b" d="M1155.3584 1477.3403c1.0579 1.7958-.8027 4.8235-4.1557 6.7626s-6.9287 2.0552-7.9865.2594.8027-4.8235 4.1557-6.7626S1154.3005 1475.5445 1155.3584 1477.3403zM1200.2203 1475.0492c-.0653 2.2467-3.2006 3.9794-7.0028 3.87s-6.8316-2.0194-6.7663-4.2661 3.2006-3.9794 7.0028-3.87S1200.2856 1472.8025 1200.2203 1475.0492z" class="color0f093b svgShape"></path><path fill="#5065b5" d="M1177.3836,1476.2188s5.9539,18.7485,8.3608,21.282,5.7318,9.5009-3.1514,10.8944l-8.8831,1.3935s10.0709-2.0269,10.831-3.357,2.0902-4.4338-.5067-6.5873-7.3474-23.6256-7.284-23.9423S1177.1074,1475.36,1177.3836,1476.2188Z" class="colorb55050 svgShape"></path></g><path fill="#a2cdf9" d="M1120.464,1845.3994s28.593,3.2291,48.0362,14.4375,29.508,25.4468,29.508,25.4468-44.2618.7665-50.0377-3.5335-6.5648-11.1623-16.1721-11.1623-8.8182,5.067-17.0531-6.3703C1109.1487,1856.4445,1109.4652,1844.142,1120.464,1845.3994Z" class="colorf9a2a2 svgShape"></path></g></svg>