<svg xmlns="http://www.w3.org/2000/svg" enable-background="new 0 0 3000 2500" viewBox="0 0 3000 2500" id="Worldbusinesscooperationsignaturetransaction"><switch><g fill="#000000" class="color000000 svgShape"><rect width="2947.3" height="2432.2" x="26.3" y="33.9" fill="none"></rect><g fill="#000000" class="color000000 svgShape"><g fill="#000000" class="color000000 svgShape"><linearGradient id="a" x1="665.784" x2="1104.684" y1="1035.951" y2="1251.496" gradientUnits="userSpaceOnUse"><stop offset="0" stop-color="#0575e6" class="stopColor505faa svgShape"></stop><stop offset="1" stop-color="#2c4191" class="stopColor2c3c91 svgShape"></stop></linearGradient><path fill="url(#a)" d="M1458.1,1173.9v1.4c-0.2,95.1-26.6,183.9-72,260.1c-64.6,108.4-168,190.6-290.8,227.7
					c-0.2,0.2-0.5,0.2-0.9,0.5c-17.5,5.1-35.4,9.6-53.8,12.8c-8.4,1.6-17,3-25.6,4.2c-11.4,1.6-23.1,2.8-35,3.5
					c-11,0.7-21.9,1.2-33.1,1.2c-11.2,0-22.1-0.2-32.9-1.2c-15.8-0.9-31.7-2.8-47.1-5.4c-4.7-0.7-9.1-1.4-13.5-2.3
					c-0.2,0-0.2-0.2-0.2-0.2c-18.2-3-36.1-7.2-53.6-12.6c-0.5,0-0.9-0.2-1.4-0.5c-37.3-11.2-72.7-26.6-105.8-45.7
					c-52.7-30.3-99.5-69.7-138.2-116.1c-17.2-20.7-32.9-42.6-46.6-65.7c0,0,0,0-0.2-0.2c-45.7-76.4-71.8-165.7-71.8-261.5
					c0-101.1,29.4-195.3,80.4-274.8c-0.2-0.2,0-0.2,0-0.2c34.7-54.8,79.9-102.3,132.4-140.1c4.9-3.5,9.6-6.8,14.4-10
					c45.9-30.8,96.9-54.1,151.7-68.5h0.2c41.5-11.4,85.1-17.2,129.8-17.5h2.3c45.9,0,90.4,6.1,132.6,17.5
					c43.1,11.4,84.1,28.4,122.1,50.3C1354.9,819,1458.1,984.5,1458.1,1173.9z"></path><g opacity=".67" fill="#000000" class="color000000 svgShape"><g fill="#000000" class="color000000 svgShape"><g fill="#000000" class="color000000 svgShape"><linearGradient id="b" x1="1306.51" x2="464.552" y1="1510.168" y2="1125.273" gradientUnits="userSpaceOnUse"><stop offset="0" stop-color="#021b79" class="stopColor121f59 svgShape"></stop><stop offset="1" stop-color="#2c4191" class="stopColor2c3c91 svgShape"></stop></linearGradient><polygon fill="url(#b)" points="1125.2 1395.8 1085.5 1383.7 1062 1395.8 1052.6 1418.2 1069.3 1435.5 1030 1456 1091.2 1456 1134.9 1456 1171.3 1419.9 1171.3 1395.8 1154.1 1368.2"></polygon><g fill="#000000" class="color000000 svgShape"><linearGradient id="c" x1="1326.018" x2="484.06" y1="1467.495" y2="1082.6" gradientUnits="userSpaceOnUse"><stop offset="0" stop-color="#021b79" class="stopColor121f59 svgShape"></stop><stop offset="1" stop-color="#2c4191" class="stopColor2c3c91 svgShape"></stop></linearGradient><path fill="url(#c)" d="M866.2,1275.5l-18.6,9.6l18.6,56.6c0,0-10,3.3-24.9,8.4c-14.7,4.9-46.1,0-46.1,0l-17.9,2.1l1.6,12.6
									l16.3,85.1l-55.2-14.4l-26.1,14.4l-42.6,14.4l-33.6,13.3l13.3,59.7h-44.7l-28.2-35.9h-23.8
									c-74.1-88.8-118.6-202.7-118.6-327.4c0-170.8,83.9-322.1,212.8-415l12.6,16.3l-26.6,20.5l13.3,34l-13.3,28.4l13.3,26.3
									l28.4,14.4l26.6,23.3c0,0,2.1,18.6,0,25.2c-1.9,6.8-13.5,35-13.5,35l-38.2,26.3l-1.6,25.9l19.8,20.5l-23.8,20.3l-31.2,9.8
									v41.2l28.7,23.3l43.1-6.8c0,0,20.7,21.2,17.7,27c-2.8,6.1,0.5,16.1,0.5,16.1l35.9,34.7c0,0,48.5-6.5,60.1-6.5
									c11.7,0,29.8,6.5,29.8,6.5l36.4,33.1V1275.5z"></path><linearGradient id="d" x1="1214.486" x2="372.601" y1="1711.469" y2="1326.607" gradientUnits="userSpaceOnUse"><stop offset="0" stop-color="#021b79" class="stopColor121f59 svgShape"></stop><stop offset="1" stop-color="#2c4191" class="stopColor2c3c91 svgShape"></stop></linearGradient><path fill="url(#d)" d="M964.3,1467.8l-30.5,15.8l-19.8,41v42.2c0,0-16.5,8.6-29.8,8.6c-13.1,0-11.7,32.2-17.9,60.6
									c-4.7,21-0.5,34.7,0.7,42.6c-62.7-9.6-121.6-30.8-174.5-61.3c9.6-1.2,29.4-1.6,69.4,0.5c75.5,3.7,0-17.5,0-17.5l33.6-10.3
									v-22.6l16.1-30.3h42.6v-49.2l25.9-1.4l40.8-30.5l4.2-20.7c0,0,21.9,3.3,22.4,9.1C947.8,1450.3,964.3,1467.8,964.3,1467.8z"></path></g></g><linearGradient id="e" x1="1512.136" x2="670.179" y1="1060.36" y2="675.465" gradientUnits="userSpaceOnUse"><stop offset="0" stop-color="#021b79" class="stopColor121f59 svgShape"></stop><stop offset="1" stop-color="#2c4191" class="stopColor2c3c91 svgShape"></stop></linearGradient><path fill="url(#e)" d="M946.9,671.5l-16.3,29.6L914,731.1v9.6l-29.4,24.2c0,0-9.6,4.2-20,9.8c-10.3,6.1-21.2,13.8-23.3,21
							c-3.7,14.2,2.3,22.1,6.3,37.8c0.9,3.7,4,7.7,8.2,12.1c13.8,14.4,39.9,30.3,39.9,30.3l-37.3,15.8h-17c0,0-1.9-2.3-4.9-6.1
							c-7.5-9.6-21.4-27.3-22.4-27.5c-1.2-0.2-0.2-5.8-23.8-12.1c-23.5-6.3-28.2-7.9-28.2-7.9v-42.4L739.9,768l-7.9-9.1l-55.9,6.1
							l-13.3-16.1c45.9-30.8,96.9-54.1,151.7-68.5h0.2c41.5-11.4,85.1-17.2,129.8-17.5L946.9,671.5z"></path></g><linearGradient id="f" x1="1427.872" x2="953.467" y1="1351.732" y2="1134.862" gradientUnits="userSpaceOnUse"><stop offset="0" stop-color="#021b79" class="stopColor121f59 svgShape"></stop><stop offset="1" stop-color="#2c4191" class="stopColor2c3c91 svgShape"></stop></linearGradient><path fill="url(#f)" d="M1201.6,730.7l-2.6,0.5l-12.6,26.6l22.8,16.5l-11.4,22.1l11.4,8.9v33.1l-29.1,19.8l-26.1,33.8l-19.1,15.8
						v31.5l11.2,41.5l-11.2,25.2l44,28.7h52.9l18.9-18.4l30.3-5.1v11.4l6.3,22.6v21.4l17.7,13.7l-8.2,22.1l-51.8-3.3h0h0l-7.2-0.5
						l3,3l-34.5,21.2l-19.8,18.2v21.8l-15.3,26.8l-35,7.7h-25.1l-10.6-42.7l-20.8-6.6l-44.3-8.6l-5.6-18.4h-32.6l-17.6,27l-32.5,0.2
						l-10.2,33l27.2,16.1v23.4l-5.4,15c0,0,18.4-3.2,20.9,4.7s29.3,12.8,29.3,12.8l8.4,23.4h28.5l33.8,8.4l45.4,6.7l46.1,23.4h23.6
						l-3.3,25.1l-1.6,16.9l27.8,21.6v25.1l39.1,23.4l14.9,12.2l2.4,31.3l-29.8,30.5l-6.3,30.1l-8.9,36.1c0,0-31.5,15.4-35.2,17.9
						c-3.7,2.6-26.6,11.4-26.6,11.4h-42.2l-23.3-29.4l16.3-28.7l-22.6-3.7l-30.3-1.4l-25.6,2.6c0,0-3,34,0,37.8
						c3,4-23.3,22.8-23.3,22.8l-19.1,16.3l26.6,55.5l-9.1,11.9c250.1-33.1,443.2-247.3,443.2-506.6
						C1458.1,984.5,1354.9,819,1201.6,730.7z"></path></g><g opacity=".19" fill="#000000" class="color000000 svgShape"><g fill="#000000" class="color000000 svgShape"><ellipse cx="946.8" cy="748.1" fill="none" stroke="#ffffff" stroke-miterlimit="10" stroke-width="5.826" rx="99.2" ry="47.6" class="colorStrokeffffff svgStroke"></ellipse><line x1="946.8" x2="946.8" y1="795.7" y2="1685.2" fill="none" stroke="#ffffff" stroke-miterlimit="10" stroke-width="5.826" class="colorStrokeffffff svgStroke"></line><path fill="none" stroke="#ffffff" stroke-miterlimit="10" stroke-width="5.826" d="M854.1,764.9c0,0-197.2,85.3-226.2,423.1c-29.8,347.2,226.2,488.8,226.2,488.8" class="colorStrokeffffff svgStroke"></path><path fill="none" stroke="#ffffff" stroke-miterlimit="10" stroke-width="5.826" d="M891,787.5c0,0-137.5,177.3-121,485.5s144,411.2,144,411.2" class="colorStrokeffffff svgStroke"></path><path fill="none" stroke="#ffffff" stroke-miterlimit="10" stroke-width="5.826" d="M854.1 731.2c0 0-196.7 5-316 275s45.6 572.6 261.3 657.4M814.7 680.3c7.7.9 68.5 9.6 88.1 25.2M814.5 680.3c-.2-.2-.5-.2-.5-.2M1039.8 764.9c0 0 197.2 85.3 226.2 423.1 29.8 347.2-226.2 488.8-226.2 488.8" class="colorStrokeffffff svgStroke"></path><path fill="none" stroke="#ffffff" stroke-miterlimit="10" stroke-width="5.826" d="M1002.9,787.5c0,0,137.5,177.3,121,485.5s-144,411.2-144,411.2" class="colorStrokeffffff svgStroke"></path><path fill="none" stroke="#ffffff" stroke-miterlimit="10" stroke-width="5.826" d="M1039.8 731.2c0 0 196.7 5 316 275s-45.6 572.6-261.3 657.4M1079.9 680.2c0 0-67.7 8.8-88.6 25.3" class="colorStrokeffffff svgStroke"></path></g><path fill="none" stroke="#ffffff" stroke-miterlimit="10" stroke-width="5.449" d="M1274.2,785c-31.2,83.5-165.9,146.4-327.4,146.4c-159.9,0-293.6-61.6-326.5-144" class="colorStrokeffffff svgStroke"></path><path fill="none" stroke="#ffffff" stroke-miterlimit="10" stroke-width="5.449" d="M1379.3 905.8c1.6 8.4 2.5 17 2.5 25.7 0 131.8-194.7 238.6-435 238.6s-435-106.8-435-238.6c0-11 1.4-21.9 4-32.6M1458.7 1174.5c-98.1 131.7-290.5 221.3-511.9 221.3-220.6 0-412.5-88.9-510.9-219.8M1386.2 1435.5c-120 82.5-272.8 131.9-439.3 131.9-166.5 0-319.4-49.4-439.4-132" class="colorStrokeffffff svgStroke"></path></g></g><g opacity=".33" fill="#000000" class="color000000 svgShape"><ellipse cx="1460" cy="2010" fill="#0a1026" opacity="0" rx="606.7" ry="100.4" transform="matrix(1 -.00899 .00899 1 -18.002 13.2)" class="color0f0a26 svgShape"></ellipse><ellipse cx="1465.4" cy="2010" fill="#0a1026" opacity=".02" rx="599.1" ry="99.1" transform="translate(-18.044 13.28)" class="color0f0a26 svgShape"></ellipse><ellipse cx="1470.7" cy="2010.1" fill="#0a1026" opacity=".039" rx="591.5" ry="97.8" transform="matrix(1 -.00903 .00903 1 -18.088 13.36)" class="color0f0a26 svgShape"></ellipse><ellipse cx="1476.1" cy="2010.1" fill="#0a1026" opacity=".059" rx="583.9" ry="96.4" transform="matrix(1 -.00905 .00905 1 -18.133 13.443)" class="color0f0a26 svgShape"></ellipse><ellipse cx="1481.5" cy="2010.2" fill="#0a1026" opacity=".078" rx="576.4" ry="95.1" transform="matrix(1 -.00907 .00907 1 -18.18 13.526)" class="color0f0a26 svgShape"></ellipse><ellipse cx="1486.9" cy="2010.2" fill="#0a1026" opacity=".098" rx="568.8" ry="93.8" transform="matrix(1 -.0091 .0091 1 -18.227 13.61)" class="color0f0a26 svgShape"></ellipse><ellipse cx="1492.2" cy="2010.3" fill="#0a1026" opacity=".118" rx="561.2" ry="92.5" transform="matrix(1 -.00912 .00912 1 -18.276 13.696)" class="color0f0a26 svgShape"></ellipse><ellipse cx="1497.6" cy="2010.3" fill="#0a1026" opacity=".137" rx="553.6" ry="91.2" transform="matrix(1 -.00915 .00915 1 -18.326 13.783)" class="color0f0a26 svgShape"></ellipse><ellipse cx="1503" cy="2010.3" fill="#0a1026" opacity=".157" rx="546.1" ry="89.9" transform="matrix(1 -.00917 .00917 1 -18.377 13.87)" class="color0f0a26 svgShape"></ellipse><ellipse cx="1508.3" cy="2010.4" fill="#0a1026" opacity=".176" rx="538.5" ry="88.5" transform="matrix(1 -.0092 .0092 1 -18.43 13.96)" class="color0f0a26 svgShape"></ellipse><ellipse cx="1513.7" cy="2010.4" fill="#0a1026" opacity=".196" rx="530.9" ry="87.2" transform="matrix(1 -.00923 .00923 1 -18.484 14.051)" class="color0f0a26 svgShape"></ellipse><ellipse cx="1519.1" cy="2010.5" fill="#0a1026" opacity=".216" rx="523.4" ry="85.9" transform="matrix(1 -.00925 .00925 1 -18.54 14.144)" class="color0f0a26 svgShape"></ellipse><ellipse cx="1524.4" cy="2010.5" fill="#0a1026" opacity=".235" rx="515.8" ry="84.6" transform="matrix(1 -.00928 .00928 1 -18.598 14.238)" class="color0f0a26 svgShape"></ellipse><ellipse cx="1529.8" cy="2010.6" fill="#0a1026" opacity=".255" rx="508.2" ry="83.3" transform="matrix(1 -.00931 .00931 1 -18.657 14.334)" class="color0f0a26 svgShape"></ellipse><ellipse cx="1535.2" cy="2010.6" fill="#0a1026" opacity=".275" rx="500.6" ry="82" transform="matrix(1 -.00934 .00934 1 -18.718 14.43)" class="color0f0a26 svgShape"></ellipse><ellipse cx="1540.6" cy="2010.7" fill="#0a1026" opacity=".294" rx="493.1" ry="80.6" transform="matrix(1 -.00937 .00937 1 -18.78 14.53)" class="color0f0a26 svgShape"></ellipse><ellipse cx="1545.9" cy="2010.7" fill="#0a1026" opacity=".314" rx="485.5" ry="79.3" transform="matrix(1 -.0094 .0094 1 -18.846 14.63)" class="color0f0a26 svgShape"></ellipse><ellipse cx="1551.3" cy="2010.8" fill="#0a1026" opacity=".333" rx="477.9" ry="78" transform="matrix(1 -.00944 .00944 1 -18.913 14.734)" class="color0f0a26 svgShape"></ellipse><ellipse cx="1556.7" cy="2010.8" fill="#0a1026" opacity=".353" rx="470.3" ry="76.7" transform="matrix(1 -.00947 .00947 1 -18.981 14.839)" class="color0f0a26 svgShape"></ellipse><ellipse cx="1562" cy="2010.9" fill="#0a1026" opacity=".372" rx="462.8" ry="75.4" transform="matrix(1 -.00951 .00951 1 -19.053 14.946)" class="color0f0a26 svgShape"></ellipse><ellipse cx="1567.4" cy="2010.9" fill="#0a1026" opacity=".392" rx="455.2" ry="74.1" transform="matrix(1 -.00955 .00955 1 -19.126 15.055)" class="color0f0a26 svgShape"></ellipse><ellipse cx="1572.8" cy="2011" fill="#0a1026" opacity=".412" rx="447.6" ry="72.8" transform="matrix(1 -.00958 .00958 1 -19.202 15.167)" class="color0f0a26 svgShape"></ellipse><ellipse cx="1578.1" cy="2011" fill="#0a1026" opacity=".431" rx="440" ry="71.4" transform="matrix(1 -.00962 .00962 1 -19.28 15.281)" class="color0f0a26 svgShape"></ellipse><ellipse cx="1583.5" cy="2011" fill="#0a1026" opacity=".451" rx="432.5" ry="70.1" transform="matrix(1 -.00966 .00966 1 -19.362 15.398)" class="color0f0a26 svgShape"></ellipse><ellipse cx="1588.9" cy="2011.1" fill="#0a1026" opacity=".471" rx="424.9" ry="68.8" transform="matrix(1 -.0097 .0097 1 -19.446 15.518)" class="color0f0a26 svgShape"></ellipse><ellipse cx="1594.3" cy="2011.1" fill="#0a1026" opacity=".49" rx="417.3" ry="67.5" transform="matrix(1 -.00975 .00975 1 -19.534 15.64)" class="color0f0a26 svgShape"></ellipse><ellipse cx="1599.6" cy="2011.2" fill="#0a1026" opacity=".51" rx="409.8" ry="66.2" transform="matrix(1 -.0098 .0098 1 -19.624 15.766)" class="color0f0a26 svgShape"></ellipse><ellipse cx="1605" cy="2011.2" fill="#0a1026" opacity=".529" rx="402.2" ry="64.9" transform="matrix(1 -.00984 .00984 1 -19.718 15.895)" class="color0f0a26 svgShape"></ellipse><ellipse cx="1610.4" cy="2011.3" fill="#0a1026" opacity=".549" rx="394.6" ry="63.5" transform="matrix(1 -.0099 .0099 1 -19.815 16.027)" class="color0f0a26 svgShape"></ellipse><ellipse cx="1615.7" cy="2011.3" fill="#0a1026" opacity=".569" rx="387" ry="62.2" transform="matrix(1 -.00994 .00994 1 -19.916 16.163)" class="color0f0a26 svgShape"></ellipse><ellipse cx="1621.1" cy="2011.4" fill="#0a1026" opacity=".588" rx="379.5" ry="60.9" transform="translate(-20.021 16.302)" class="color0f0a26 svgShape"></ellipse><ellipse cx="1626.5" cy="2011.4" fill="#0a1026" opacity=".608" rx="371.9" ry="59.6" transform="matrix(.9999 -.01 .01 .9999 -20.032 16.366)" class="color0f0a26 svgShape"></ellipse><ellipse cx="1631.9" cy="2011.5" fill="#0a1026" opacity=".627" rx="364.3" ry="58.3" transform="matrix(.9999 -.01 .01 .9999 -20.031 16.421)" class="color0f0a26 svgShape"></ellipse><ellipse cx="1637.2" cy="2011.5" fill="#0a1026" opacity=".647" rx="356.7" ry="57" transform="matrix(.9999 -.01 .01 .9999 -20.03 16.476)" class="color0f0a26 svgShape"></ellipse><ellipse cx="1642.6" cy="2011.6" fill="#0a1026" opacity=".667" rx="349.2" ry="55.6" transform="matrix(.9999 -.01 .01 .9999 -20.03 16.531)" class="color0f0a26 svgShape"></ellipse><ellipse cx="1648" cy="2011.6" fill="#0a1026" opacity=".686" rx="341.6" ry="54.3" transform="rotate(-.59 1646.638 2010.034)" class="color0f0a26 svgShape"></ellipse><ellipse cx="1653.3" cy="2011.7" fill="#0a1026" opacity=".706" rx="334" ry="53" transform="matrix(.9999 -.01036 .01036 .9999 -20.75 17.236)" class="color0f0a26 svgShape"></ellipse><ellipse cx="1658.7" cy="2011.7" fill="#0a1026" opacity=".726" rx="326.4" ry="51.7" transform="matrix(.9999 -.01043 .01043 .9999 -20.892 17.41)" class="color0f0a26 svgShape"></ellipse><ellipse cx="1664.1" cy="2011.7" fill="#0a1026" opacity=".745" rx="318.9" ry="50.4" transform="rotate(-.602 1664.671 2012.55)" class="color0f0a26 svgShape"></ellipse><ellipse cx="1669.4" cy="2011.8" fill="#0a1026" opacity=".765" rx="311.3" ry="49.1" transform="matrix(.9999 -.01058 .01058 .9999 -21.195 17.778)" class="color0f0a26 svgShape"></ellipse><ellipse cx="1674.8" cy="2011.8" fill="#0a1026" opacity=".784" rx="303.7" ry="47.7" transform="matrix(.9999 -.01066 .01066 .9999 -21.357 17.973)" class="color0f0a26 svgShape"></ellipse><ellipse cx="1680.2" cy="2011.9" fill="#0a1026" opacity=".804" rx="296.2" ry="46.4" transform="rotate(-.628 1679.697 2012.156) scale(.99996)" class="color0f0a26 svgShape"></ellipse><ellipse cx="1685.6" cy="2011.9" fill="#0a1026" opacity=".824" rx="288.6" ry="45.1" transform="rotate(-.628 1685.255 2012.05) scale(.99996)" class="color0f0a26 svgShape"></ellipse><ellipse cx="1690.9" cy="2012" fill="#0a1026" opacity=".843" rx="281" ry="43.8" transform="rotate(-.628 1690.821 2011.932) scale(.99996)" class="color0f0a26 svgShape"></ellipse><ellipse cx="1696.3" cy="2012" fill="#0a1026" opacity=".863" rx="273.4" ry="42.5" transform="rotate(-.628 1696.387 2011.817) scale(.99996)" class="color0f0a26 svgShape"></ellipse><ellipse cx="1701.7" cy="2012.1" fill="#0a1026" opacity=".882" rx="265.9" ry="41.2" transform="rotate(-.628 1701.97 2011.682) scale(.99996)" class="color0f0a26 svgShape"></ellipse><ellipse cx="1707" cy="2012.1" fill="#0a1026" opacity=".902" rx="258.3" ry="39.9" transform="matrix(.9999 -.01125 .01125 .9999 -22.53 19.333)" class="color0f0a26 svgShape"></ellipse><ellipse cx="1712.4" cy="2012.2" fill="#0a1026" opacity=".922" rx="250.7" ry="38.5" transform="matrix(.9999 -.01137 .01137 .9999 -22.766 19.599)" class="color0f0a26 svgShape"></ellipse><ellipse cx="1717.8" cy="2012.2" fill="#0a1026" opacity=".941" rx="243.1" ry="37.2" transform="rotate(-.659 1717.043 2011.352)" class="color0f0a26 svgShape"></ellipse><ellipse cx="1723.1" cy="2012.3" fill="#0a1026" opacity=".961" rx="235.6" ry="35.9" transform="rotate(-.678 1722.684 2012.556) scale(.99997)" class="color0f0a26 svgShape"></ellipse><ellipse cx="1728.5" cy="2012.3" fill="#0a1026" opacity=".98" rx="228" ry="34.6" transform="rotate(-.678 1728.342 2012.348) scale(.99997)" class="color0f0a26 svgShape"></ellipse><ellipse cx="1733.9" cy="2012.4" fill="#0a1026" rx="220.4" ry="33.3" transform="rotate(-.678 1734.024 2012.138) scale(.99997)" class="color0f0a26 svgShape"></ellipse></g><g fill="#000000" class="color000000 svgShape"><g fill="#000000" class="color000000 svgShape"><g fill="#000000" class="color000000 svgShape"><linearGradient id="g" x1="1988.038" x2="1311.561" y1="714.217" y2="1697.402" gradientTransform="rotate(-5.697 3047.408 1331.717) scale(1.00004)" gradientUnits="userSpaceOnUse"><stop offset="0" stop-color="#0575e6" class="stopColor505faa svgShape"></stop><stop offset="1" stop-color="#8fabc7" class="stopColor8f92c7 svgShape"></stop></linearGradient><path fill="url(#g)" d="M1949.6,2053.3c-14.7,1.5-29.3,0.1-43.6-4l-758.7-217.6c-59.2-17-94.9-77.3-81.3-137.3l264.2-1137.1
							c11.1-48.9,52-85.1,101.8-90.1c11-1.1,22.2-0.6,33.2,1.5l742.2,140.5c30.6,5.8,57.1,23.2,74.6,49
							c17.5,25.8,23.8,56.9,17.8,87.5L2052.2,1960C2042.3,2010.7,2001,2048.2,1949.6,2053.3z"></path><linearGradient id="h" x1="1024.483" x2="2357.413" y1="1105.412" y2="1105.412" gradientTransform="rotate(-5.697 3047.408 1331.717) scale(1.00004)" gradientUnits="userSpaceOnUse"><stop offset="0" stop-color="#0575e6" class="stopColor505faa svgShape"></stop><stop offset="1" stop-color="#8fabc7" class="stopColor8f92c7 svgShape"></stop></linearGradient><path fill="url(#h)" d="M1938.3,2033.8c-14.7,1.5-29.3,0.1-43.6-4L1136,1812.2c-59.2-17-94.9-77.3-81.3-137.3l264.2-1137.1
							c11.1-48.9,52-85.1,101.8-90.1c11-1.1,22.2-0.6,33.2,1.5l742.2,140.5c30.6,5.8,57.1,23.2,74.6,49
							c17.5,25.8,23.8,56.9,17.8,87.5l-247.7,1214.2C2030.9,1991.1,1989.7,2028.7,1938.3,2033.8z"></path><linearGradient id="i" x1="1066.207" x2="2309.806" y1="944.84" y2="944.84" gradientTransform="rotate(-5.697 3047.408 1331.717) scale(1.00004)" gradientUnits="userSpaceOnUse"><stop offset="0" stop-color="#0575e6" class="stopColor505faa svgShape"></stop><stop offset="1" stop-color="#2c4191" class="stopColor2c3c91 svgShape"></stop></linearGradient><path fill="url(#i)" d="M2240,668.3c-10.4-11.2-24.4-19.6-40.7-22.6L1457,505.3c-39.4-7.5-77.7,17.7-86.5,56.8l-264.3,1137.1
							c-4.1,18.4-1,36.9,7.5,52.1c-16.5-17.4-24.1-42.4-18.3-67.3l264.3-1137.1c8.8-39.1,47.1-64.1,86.5-56.6l742.2,140.5
							C2211.3,635,2229.6,649.3,2240,668.3z"></path><linearGradient id="j" x1="1075.634" x2="2315.642" y1="1113.464" y2="1113.464" gradientTransform="rotate(-5.697 3047.408 1331.717) scale(1.00004)" gradientUnits="userSpaceOnUse"><stop offset="0" stop-color="#b0c3d7" class="stopColorb0b3d7 svgShape"></stop><stop offset="1" stop-color="#f5f7fa" class="stopColorf5f5fa svgShape"></stop></linearGradient><path fill="url(#j)" d="M2247.7,718.3L2000,1932.4c-8.4,42.9-51.8,69.4-93.8,57.3L1147.6,1772c-13.5-3.9-25-11-33.8-20.7
							c-8.5-15.2-11.6-33.7-7.5-52.1l264.3-1137.1c8.8-39.1,47.1-64.3,86.5-56.8l742.2,140.5c16.4,3,30.3,11.4,40.7,22.6
							C2248,683,2251,700.6,2247.7,718.3z"></path></g><linearGradient id="k" x1="1772.283" x2="1432.595" y1="665.391" y2="1801.757" gradientUnits="userSpaceOnUse"><stop offset="0" stop-color="#e7eff7" class="stopColore7edf7 svgShape"></stop><stop offset="1" stop-color="#8fabc7" class="stopColor8f92c7 svgShape"></stop></linearGradient><path fill="url(#k)" d="M1429.6,577.2L2190,717.1c23.7,4.4,38.9,27.6,33.3,51c-42.1,175.1-201.9,832.7-261.8,990.8
						c-34.9,92-69.1,145.5-94.5,176.1c-20.6,24.7-54.1,34.3-85.1,25.7l-820.1-228.9c-19.4-5.4-25.2-30.1-10-43.4
						c61.3-54.2,182.7-183.5,249.9-403.7c76.9-252.1,160.9-578.9,187-681.4C1393.3,585.1,1411.2,573.8,1429.6,577.2z"></path><linearGradient id="l" x1="1767.418" x2="1427.73" y1="657.746" y2="1794.112" gradientUnits="userSpaceOnUse"><stop offset="0" stop-color="#f9fcff" class="stopColorf9fcff svgShape"></stop><stop offset="1" stop-color="#e7eff7" class="stopColore7edf7 svgShape"></stop></linearGradient><path fill="url(#l)" d="M1424.7,569.5l760.4,139.9c23.7,4.4,38.9,27.6,33.3,51c-42.1,175.1-201.9,832.7-261.8,990.8
						c-34.9,92-69.1,145.5-94.5,176.1c-20.6,24.7-54.1,34.3-85.1,25.7L957,1724.2c-19.4-5.4-25.2-30.1-10-43.4
						c61.3-54.2,182.7-183.5,249.9-403.7c76.9-252.1,160.9-578.9,187-681.4C1388.4,577.5,1406.3,566.1,1424.7,569.5z"></path><g fill="#000000" class="color000000 svgShape"><linearGradient id="m" x1="1914.681" x2="2038" y1="477.447" y2="428.23" gradientTransform="rotate(-5.697 3047.408 1331.717) scale(1.00004)" gradientUnits="userSpaceOnUse"><stop offset="0" stop-color="#214ef5" class="stopColorf58b21 svgShape"></stop><stop offset="1" stop-color="#1947f5" class="stopColorf5b419 svgShape"></stop></linearGradient><path fill="url(#m)" d="M1635.4,630.3l315.5,55.3c6.8,1.2,13.4-3.2,14.9-9.9l15.6-68.5c1.7-7.3-3.1-14.4-10.4-15.7l-315.5-55.3
							c-6.8-1.2-13.4,3.2-14.9,9.9l-15.6,68.5C1623.3,621.8,1628.1,629,1635.4,630.3z"></path><linearGradient id="n" x1="1888.459" x2="1867.048" y1="452.858" y2="524.823" gradientTransform="rotate(-5.697 3047.408 1331.717) scale(1.00004)" gradientUnits="userSpaceOnUse"><stop offset="0" stop-color="#214ef5" class="stopColorf58b21 svgShape"></stop><stop offset="1" stop-color="#1947f5" class="stopColorf5b419 svgShape"></stop></linearGradient><path fill="url(#n)" d="M1632.7,625.3l315.5,55.3c6.8,1.2,13.4-3.2,14.9-9.9l15.6-68.5c1.7-7.3-3.1-14.4-10.4-15.7l-315.5-55.3
							c-6.8-1.2-13.4,3.2-14.9,9.9l-15.6,68.5C1620.6,616.8,1625.3,624,1632.7,625.3z"></path><linearGradient id="o" x1="2025.445" x2="1945.051" y1="365.009" y2="426.472" gradientTransform="rotate(-5.697 3047.408 1331.717) scale(1.00004)" gradientUnits="userSpaceOnUse"><stop offset="0" stop-color="#214ef5" class="stopColorf58b21 svgShape"></stop><stop offset="1" stop-color="#1947f5" class="stopColorf5b419 svgShape"></stop></linearGradient><path fill="url(#o)" d="M1886.7,449.8l43.1,5.7c8.2,1.1,13,9.9,9.3,17.4l-55.3,112L1886.7,449.8z"></path><linearGradient id="p" x1="1955.617" x2="2010.783" y1="407.363" y2="386.952" gradientTransform="rotate(-5.697 3047.408 1331.717) scale(1.00004)" gradientUnits="userSpaceOnUse"><stop offset="0" stop-color="#214ef5" class="stopColorf58b21 svgShape"></stop><stop offset="1" stop-color="#1947f5" class="stopColorf5b419 svgShape"></stop></linearGradient><path fill="url(#p)" d="M1882.2,447.1l43.1,5.7c8.2,1.1,13,9.9,9.3,17.4l-55.3,112L1882.2,447.1z"></path><linearGradient id="q" x1="1915.647" x2="1901.902" y1="398.996" y2="312.377" gradientTransform="rotate(-5.697 3047.408 1331.717) scale(1.00004)" gradientUnits="userSpaceOnUse"><stop offset="0" stop-color="#214ef5" class="stopColorf58b21 svgShape"></stop><stop offset="1" stop-color="#1947f5" class="stopColorf5b419 svgShape"></stop></linearGradient><path fill="url(#q)" d="M1756.9,556l-31.9-143.1c-2.9-13.2,8.3-25.2,21.6-23.2l122.8,18.4c10.6,1.6,18.3,10.8,18.1,21.5
							l-3.3,148.9L1756.9,556z"></path><linearGradient id="r" x1="1914.071" x2="1869.868" y1="298.676" y2="433.719" gradientTransform="rotate(-5.697 3047.408 1331.717) scale(1.00004)" gradientUnits="userSpaceOnUse"><stop offset="0" stop-color="#214ef5" class="stopColorf58b21 svgShape"></stop><stop offset="1" stop-color="#1947f5" class="stopColorf5b419 svgShape"></stop></linearGradient><path fill="url(#r)" d="M1752.1,559.9l-31.9-143.1c-2.9-13.2,8.3-25.2,21.6-23.2l122.8,18.4c10.6,1.6,18.3,10.8,18.1,21.5
							l-3.3,148.9L1752.1,559.9z"></path><path fill="none" stroke="#bbbdbf" stroke-miterlimit="10" stroke-width="5.221" d="M1635.4,630.3l-15.4,53.8c-2.5,8.9,3.2,18,12.3,19.6l277.2,48c9.5,1.7,18.6-4.6,20.5-14.2l10.3-53.8" class="colorStrokebbbdbf svgStroke"></path><g fill="#000000" class="color000000 svgShape"><ellipse cx="1922.6" cy="626.3" fill="#0c31bc" rx="11.9" ry="11.3" class="colorbc5b0c svgShape"></ellipse><ellipse cx="1921.7" cy="625.1" fill="#0b37db" rx="11.9" ry="11.3" class="colordb6e0b svgShape"></ellipse></g><g fill="#000000" class="color000000 svgShape"><ellipse cx="1663" cy="585.6" fill="#0c31bc" rx="11.9" ry="11.3" class="colorbc5b0c svgShape"></ellipse><ellipse cx="1662.1" cy="584.3" fill="#0b37db" rx="11.9" ry="11.3" class="colordb6e0b svgShape"></ellipse></g><linearGradient id="s" x1="1819.38" x2="1769.813" y1="556.97" y2="483.388" gradientUnits="userSpaceOnUse"><stop offset="0" stop-color="#0c31bc" class="stopColorbc5b0c svgShape"></stop><stop offset="1" stop-color="#0b37db" class="stopColordb6e0b svgShape"></stop></linearGradient><path fill="url(#s)" d="M1860.8,555.9c-1.7,3.8-5.8,6.3-10.4,5.2l-76.4-15.5c-5-1-9-5-9.6-10l-10-65.8c-0.6-4.4,2.9-8.1,7.3-8.1
							c-0.4,0.8-0.6,1.9-0.4,2.9l10,65.8c0.6,5,4.6,9,9.6,10l76.6,15.5C1858.5,556.1,1859.8,556.1,1860.8,555.9z"></path><linearGradient id="t" x1="1761.123" x2="1861.864" y1="508.913" y2="508.913" gradientUnits="userSpaceOnUse"><stop offset="0" stop-color="#214ef5" class="stopColorf58b21 svgShape"></stop><stop offset="1" stop-color="#0b37db" class="stopColordb6e0b svgShape"></stop></linearGradient><path fill="url(#t)" d="M1861.9,487.6V552c0,1.5-0.2,2.7-1,4c-1,0.2-2.3,0.2-3.3,0l-76.6-15.5c-5-1-9-5-9.6-10l-10-65.8
							c-0.2-1,0-2.1,0.4-2.9h1l88.8,13.8C1857.5,476.4,1861.9,481.6,1861.9,487.6z"></path><linearGradient id="u" x1="1843.021" x2="1804.117" y1="404.324" y2="488.195" gradientUnits="userSpaceOnUse"><stop offset="0" stop-color="#f9f9f9" class="stopColorf9f9f9 svgShape"></stop><stop offset="1" stop-color="#1f4cf5" class="stopColorf5961f svgShape"></stop></linearGradient><path fill="url(#u)" d="M1864.5,411.9l-122.8-18.4c-5.4-0.8-10.3,0.7-14.2,3.6c3.6-2.1,7.9-3.1,12.4-2.5l122.8,18.4
							c10.6,1.6,18.3,10.8,18.1,21.5l-3.2,147.4l1.7,0.3l3.3-148.9C1882.8,422.7,1875,413.5,1864.5,411.9z" opacity=".57"></path></g></g><g fill="#000000" class="color000000 svgShape"><g fill="#000000" class="color000000 svgShape"><g fill="#000000" class="color000000 svgShape"><path fill="#d5d5d5" d="M2121.9,917.9c-199.8-31.2-398.4-70.9-597.1-108.7c-2.9-0.5-4.7-3.2-4.1-5.9c0.1-0.2,0.1-0.3,0.1-0.5
								c0.7-2.7,3.6-4.4,6.5-3.9c198.6,37.7,397.2,77.5,597,108.5c2.9,0.4,4.7,3,4.1,5.7c0,0.2-0.1,0.3-0.1,0.5
								C2127.7,916.5,2124.8,918.3,2121.9,917.9z" class="colord5d5d5 svgShape"></path><linearGradient id="v" x1="1471.117" x2="2079.234" y1="780.157" y2="780.157" gradientUnits="userSpaceOnUse"><stop offset="0" stop-color="#678eb5" class="stopColor6773b5 svgShape"></stop><stop offset="1" stop-color="#5094d8" class="stopColor50d5d8 svgShape"></stop></linearGradient><path fill="url(#v)" d="M2072.6,840.2c-199.7-33.3-398.1-73.7-597.2-109.9c-2.9-0.5-4.7-3.1-4.1-5.7c0-0.2,0.1-0.3,0.1-0.5
								c0.6-2.6,3.5-4.4,6.4-3.9c199.1,36.2,397.5,76.7,597.2,109.9c2.9,0.5,4.7,3,4.1,5.6c0,0.2-0.1,0.3-0.1,0.5
								C2078.4,838.9,2075.5,840.6,2072.6,840.2z"></path><path fill="#d5d5d5" d="M2113.8 950.3c-243.9-39.1-485.7-89.9-729-132.5-3-.5-4.9-3.2-4.2-6.1l0 0c.7-2.8 3.8-4.7 6.8-4.2 243.3 42.5 484.9 93.4 728.8 132.3 3 .5 4.9 3.2 4.2 6.1l0 0C2119.9 948.8 2116.9 950.8 2113.8 950.3zM2106 983c-244-39.7-486.1-90.3-729.5-133.3-3-.5-4.9-3.3-4.2-6.1l0 0c.7-2.8 3.8-4.7 6.9-4.2 243.4 42.9 485.3 93.6 729.3 133.1 3 .5 4.9 3.2 4.2 6.1l0 0C2112.1 981.5 2109 983.5 2106 983zM2098 1016.1c-244.2-40.2-486.5-90.9-730.1-134.3-3-.5-4.9-3.3-4.1-6.1l0 0c.8-2.8 3.9-4.7 6.9-4.2 243.6 43.3 485.7 93.9 729.9 134 3 .5 4.9 3.3 4.2 6.2l0 0C2104.1 1014.5 2101.1 1016.6 2098 1016.1zM2090 1049.3c-244.4-40.9-486.9-91.5-730.8-135.5-3-.5-4.9-3.3-4.1-6.1l0 0c.8-2.8 3.9-4.7 6.9-4.2 243.8 43.8 486.2 94.4 730.6 135.1 3 .5 4.9 3.3 4.2 6.3l0 0C2096.1 1047.8 2093.1 1049.8 2090 1049.3zM1988.2 1066.7c-212.9-38.7-424.9-81.9-637.8-120.7-3-.5-4.8-3.3-4.1-6 0-.1 0-.1.1-.2.8-2.8 3.8-4.6 6.8-4.1 212.8 38.7 424.7 81.8 637.6 120.3 3 .5 4.9 3.3 4.2 6.2 0 .1 0 .1 0 .2C1994.2 1065.3 1991.2 1067.2 1988.2 1066.7z" class="colord5d5d5 svgShape"></path></g><g fill="#000000" class="color000000 svgShape"><path fill="#d5d5d5" d="M2065 1154.8c-200.8-35.2-400.8-75.7-600.8-115.1-2.9-.6-4.7-3.3-4-6 .1-.2.1-.3.1-.5.7-2.7 3.7-4.5 6.7-4 199.9 39.3 399.8 79.7 600.6 114.7 2.9.5 4.7 3.2 4 6.1 0 .2-.1.3-.1.5C2070.8 1153.3 2067.9 1155.3 2065 1154.8zM2056.5 1188.8c-245.2-44.1-489.1-95.3-733.9-141.9-3.1-.6-4.9-3.4-4.1-6.2l0 0c.8-2.9 3.9-4.7 7-4.2 244.7 46.3 488.5 97.4 733.6 141.3 3 .5 5 3.4 4.2 6.4l0 0C2062.7 1187.3 2059.6 1189.3 2056.5 1188.8zM2048.3 1222.9c-245.4-45-489.6-96.5-734.6-143.7-3.1-.6-4.9-3.4-4.1-6.2l0 0c.8-2.9 3.9-4.7 7-4.1 244.9 47 489 98.4 734.4 143.1 3.1.5 5 3.5 4.2 6.5l0 0C2054.5 1221.4 2051.4 1223.4 2048.3 1222.9zM2040.1 1257.1c-245.6-45.9-490.1-97.7-735.3-145.7-3.1-.6-4.9-3.4-4.1-6.3l0 0c.8-2.8 3.9-4.7 7-4.1 245.1 47.8 489.5 99.4 735 145.1 3.1.6 5 3.5 4.2 6.5l0 0C2046.3 1255.7 2043.2 1257.7 2040.1 1257.1zM2031.9 1291.4c-245.8-46.9-490.5-98.9-735.9-147.8-3.1-.6-4.9-3.4-4.2-6.3l0 0c.8-2.8 3.9-4.7 7-4.1 245.3 48.6 490 100.5 735.7 147.1 3.1.6 5 3.5 4.2 6.6l0 0C2038 1290 2034.9 1292 2031.9 1291.4zM1929.1 1307.2c-214.2-42.9-427.9-88.1-642-131.4-3-.6-4.9-3.4-4.1-6.2 0-.1 0-.1.1-.2.8-2.8 3.8-4.6 6.9-4 214.1 43.1 427.7 88.2 641.8 130.8 3 .6 4.9 3.5 4.2 6.4 0 .1 0 .1 0 .2C1935.2 1305.9 1932.1 1307.8 1929.1 1307.2z" class="colord5d5d5 svgShape"></path></g><g fill="#000000" class="color000000 svgShape"><path fill="#d5d5d5" d="M2006.4 1398.8c-201.7-40.9-402.9-83.9-604.2-126.8-2.9-.6-4.8-3.4-4.1-6.1.1-.2.1-.3.1-.5.7-2.7 3.7-4.5 6.6-3.8 201.2 42.7 402.4 85.6 604.1 126.2 2.9.6 4.7 3.4 4.1 6.3 0 .2-.1.3-.1.5C2012.2 1397.5 2009.3 1399.3 2006.4 1398.8zM1997.9 1432.9c-246-51-491.5-104.6-737.3-157-3.1-.7-5-3.5-4.3-6.3l0 0c.7-2.8 3.8-4.6 6.9-3.9 245.8 52 491.2 105.5 737.3 156.2 3.1.6 5 3.6 4.3 6.6l0 0C2004.1 1431.6 2001 1433.6 1997.9 1432.9zM1989.7 1467.1c-246-52.1-491.5-106.1-737.3-159.3-3.1-.7-5-3.5-4.3-6.3l0 0c.7-2.8 3.8-4.6 6.9-3.9 245.7 52.9 491.3 106.8 737.3 158.6 3.1.6 5 3.6 4.3 6.7l0 0C1995.9 1465.8 1992.8 1467.8 1989.7 1467.1zM1981.5 1501.2c-245.9-53.1-491.4-107.6-737.1-161.7-3.1-.7-5-3.5-4.3-6.3l0 0c.7-2.8 3.8-4.5 6.9-3.9 245.7 53.8 491.2 108.1 737.1 160.9 3.1.7 5 3.7 4.3 6.7l0 0C1987.7 1499.9 1984.6 1501.8 1981.5 1501.2zM1973.4 1535.1c-245.7-54.2-491.2-109.1-736.7-164.1-3.1-.7-5-3.5-4.4-6.3l0 0c.7-2.8 3.7-4.5 6.8-3.8 245.5 54.7 491.1 109.5 736.8 163.3 3.1.7 5 3.7 4.3 6.7l0 0C1979.5 1533.9 1976.5 1535.8 1973.4 1535.1zM1869.5 1548.5c-214-48.2-427.9-97.4-641.9-145.8-3-.7-4.7-3.5-3.8-6.3 0-.1 0-.1.1-.2.9-2.8 4-4.5 7.1-3.8 214 48.3 427.8 96.9 641.9 144.8 3 .7 4.8 3.7 3.9 6.7 0 .1 0 .1-.1.2C1875.8 1547.2 1872.5 1549.2 1869.5 1548.5z" class="colord5d5d5 svgShape"></path></g><g fill="#000000" class="color000000 svgShape"><path fill="#d5d5d5" d="M1905 1671.2c-123.8-28.7-187-44.5-313-75.9-2.1-.5-2.9-2.7-1.7-4.8.8-1.4 1.2-2.1 2-3.5 1.2-2.1 3.9-3.4 6-2.9 125.9 31 189 46.7 312.8 75.2 2.1.5 2.9 2.7 1.8 5-.8 1.5-1.1 2.2-1.9 3.7C1909.8 1670.3 1907.1 1671.7 1905 1671.2zM1780.8 1776.7c-85.1-21.4-128.3-33.2-214.8-56.8-1.8-.5-2.3-2-1.2-3.4 1.3-1.5 1.9-2.3 3.2-3.9 1.2-1.4 3.6-2.2 5.3-1.7 86.4 23.4 129.5 35.1 214.5 56.4 1.8.4 2.3 2 1.2 3.5-1.2 1.6-1.8 2.5-3.1 4.1C1784.9 1776.4 1782.6 1777.2 1780.8 1776.7z" class="colord5d5d5 svgShape"></path></g><g fill="#000000" class="color000000 svgShape"><path fill="#d5d5d5" d="M1491.3 1570.2c-126-31.4-189.1-47.2-312.8-75.9-2.1-.5-2.8-2.5-1.6-4.4.8-1.3 1.2-1.9 2-3.2 1.2-2 3.9-3.2 6-2.7 123.7 28.6 186.8 44.3 312.7 75.3 2.1.5 2.9 2.7 1.7 4.7-.8 1.4-1.2 2.1-2 3.4C1496.2 1569.5 1493.5 1570.8 1491.3 1570.2zM1362 1663.9c-86.4-23.5-129.6-35.2-214.5-56.4-1.8-.4-2.2-1.8-1-3.1 1.4-1.4 2-2.1 3.4-3.5 1.2-1.3 3.7-2 5.4-1.6 84.8 21.1 127.9 32.7 214.3 56.1 1.8.5 2.3 2 1.1 3.3-1.3 1.5-2 2.2-3.3 3.7C1366.2 1663.8 1363.8 1664.4 1362 1663.9z" class="colord5d5d5 svgShape"></path></g><path fill="none" stroke="#bbbdbf" stroke-miterlimit="10" stroke-width="5.231" d="M1476.8,1674c0,0,113.7-79.7,160.8-63.9c47,15.9-63.2,91.4-73.5,74.3c-10.3-17.1,119-56.3,107.2-26.1
							c-11.8,30.2,17.9,5.6,16,19.5c-1.9,14,39.7,10.1,39.7,10.1s41.6-11.4,29.6,7.4c-12,18.8,25.7-11,18.7,10.9
							c-7,22,34.3-8.2,30.7,1.3c-3.6,9.6,56.5,2.3,21.2-17.9c-35.3-20.2,36-14.1,50.8-45.1c14.8-31-170.1,159.5-170.1,159.5" class="colorStrokebbbdbf svgStroke"></path></g></g></g><g opacity=".23" fill="#000000" class="color000000 svgShape"><ellipse cx="1287.2" cy="1652.8" fill="#0a1026" opacity="0" rx="53.9" ry="267.2" transform="rotate(-77.438 1287.083 1652.762)" class="color0f0a26 svgShape"></ellipse><ellipse cx="1289.5" cy="1653.4" fill="#0a1026" opacity=".02" rx="53.2" ry="263.9" transform="rotate(-77.438 1289.432 1653.333)" class="color0f0a26 svgShape"></ellipse><ellipse cx="1291.8" cy="1654" fill="#0a1026" opacity=".039" rx="52.5" ry="260.5" transform="rotate(-77.438 1291.781 1653.905)" class="color0f0a26 svgShape"></ellipse><ellipse cx="1294.1" cy="1654.5" fill="#0a1026" opacity=".059" rx="51.8" ry="257.2" transform="rotate(-77.444 1294.03 1654.476)" class="color0f0a26 svgShape"></ellipse><ellipse cx="1296.4" cy="1655.1" fill="#0a1026" opacity=".078" rx="51.1" ry="253.9" transform="rotate(-77.444 1296.382 1655.048)" class="color0f0a26 svgShape"></ellipse><ellipse cx="1298.7" cy="1655.6" fill="#0a1026" opacity=".098" rx="50.4" ry="250.5" transform="rotate(-77.444 1298.735 1655.62)" class="color0f0a26 svgShape"></ellipse><ellipse cx="1301" cy="1656.2" fill="#0a1026" opacity=".118" rx="49.7" ry="247.2" transform="rotate(-77.45 1300.922 1656.191)" class="color0f0a26 svgShape"></ellipse><ellipse cx="1303.3" cy="1656.8" fill="#0a1026" opacity=".137" rx="49" ry="243.9" transform="rotate(-77.45 1303.279 1656.764)" class="color0f0a26 svgShape"></ellipse><ellipse cx="1305.6" cy="1657.3" fill="#0a1026" opacity=".157" rx="48.3" ry="240.5" transform="rotate(-77.45 1305.637 1657.338)" class="color0f0a26 svgShape"></ellipse><ellipse cx="1307.9" cy="1657.9" fill="#0a1026" opacity=".176" rx="47.6" ry="237.2" transform="rotate(-77.455 1307.873 1657.91)" class="color0f0a26 svgShape"></ellipse><ellipse cx="1310.2" cy="1658.4" fill="#0a1026" opacity=".196" rx="46.9" ry="233.9" transform="rotate(-77.455 1310.235 1658.485)" class="color0f0a26 svgShape"></ellipse><ellipse cx="1312.5" cy="1659" fill="#0a1026" opacity=".216" rx="46.2" ry="230.5" transform="rotate(-77.455 1312.598 1659.06)" class="color0f0a26 svgShape"></ellipse><ellipse cx="1314.8" cy="1659.6" fill="#0a1026" opacity=".235" rx="45.5" ry="227.2" transform="rotate(-77.461 1314.832 1659.633)" class="color0f0a26 svgShape"></ellipse><ellipse cx="1317.1" cy="1660.1" fill="#0a1026" opacity=".255" rx="44.8" ry="223.9" transform="rotate(-77.462 1317.035 1660.038)" class="color0f0a26 svgShape"></ellipse><ellipse cx="1319.4" cy="1660.7" fill="#0a1026" opacity=".275" rx="44" ry="220.5" transform="rotate(-77.467 1319.271 1660.613)" class="color0f0a26 svgShape"></ellipse><ellipse cx="1321.7" cy="1661.2" fill="#0a1026" opacity=".294" rx="43.3" ry="217.2" transform="rotate(-77.467 1321.643 1661.19)" class="color0f0a26 svgShape"></ellipse><ellipse cx="1324" cy="1661.8" fill="#0a1026" opacity=".314" rx="42.6" ry="213.8" transform="rotate(-77.467 1324.016 1661.766)" class="color0f0a26 svgShape"></ellipse><ellipse cx="1326.3" cy="1662.4" fill="#0a1026" opacity=".333" rx="41.9" ry="210.5" transform="rotate(-77.473 1326.27 1662.343)" class="color0f0a26 svgShape"></ellipse><ellipse cx="1328.6" cy="1662.9" fill="#0a1026" opacity=".353" rx="41.2" ry="207.2" transform="rotate(-77.473 1328.649 1662.92)" class="color0f0a26 svgShape"></ellipse><ellipse cx="1330.9" cy="1663.5" fill="#0a1026" opacity=".372" rx="40.5" ry="203.8" transform="rotate(-77.479 1330.86 1663.498)" class="color0f0a26 svgShape"></ellipse><ellipse cx="1333.2" cy="1664" fill="#0a1026" opacity=".392" rx="39.8" ry="200.5" transform="rotate(-77.479 1333.244 1664.077)" class="color0f0a26 svgShape"></ellipse><ellipse cx="1335.5" cy="1664.6" fill="#0a1026" opacity=".412" rx="39.1" ry="197.2" transform="rotate(-77.484 1335.524 1664.656)" class="color0f0a26 svgShape"></ellipse><ellipse cx="1337.8" cy="1665.2" fill="#0a1026" opacity=".431" rx="38.4" ry="193.8" transform="rotate(-77.484 1337.914 1665.236)" class="color0f0a26 svgShape"></ellipse><ellipse cx="1340.1" cy="1665.7" fill="#0a1026" opacity=".451" rx="37.7" ry="190.5" transform="rotate(-77.491 1340.006 1665.646)" class="color0f0a26 svgShape"></ellipse><ellipse cx="1342.4" cy="1666.3" fill="#0a1026" opacity=".471" rx="37" ry="187.2" transform="rotate(-77.491 1342.403 1666.227)" class="color0f0a26 svgShape"></ellipse><ellipse cx="1344.7" cy="1666.8" fill="#0a1026" opacity=".49" rx="36.3" ry="183.8" transform="rotate(-77.496 1344.698 1666.81)" class="color0f0a26 svgShape"></ellipse><ellipse cx="1347" cy="1667.4" fill="#0a1026" opacity=".51" rx="35.6" ry="180.5" transform="rotate(-77.502 1346.93 1667.392)" class="color0f0a26 svgShape"></ellipse><ellipse cx="1349.3" cy="1668" fill="#0a1026" opacity=".529" rx="34.9" ry="177.1" transform="rotate(-77.502 1349.338 1667.976)" class="color0f0a26 svgShape"></ellipse><ellipse cx="1351.6" cy="1668.5" fill="#0a1026" opacity=".549" rx="34.1" ry="173.8" transform="rotate(-77.508 1351.623 1668.56)" class="color0f0a26 svgShape"></ellipse><ellipse cx="1353.9" cy="1669.1" fill="#0a1026" opacity=".569" rx="33.4" ry="170.5" transform="rotate(-77.508 1354.04 1669.146)" class="color0f0a26 svgShape"></ellipse><ellipse cx="1356.2" cy="1669.6" fill="#0a1026" opacity=".588" rx="32.7" ry="167.1" transform="rotate(-77.515 1356.157 1669.562)" class="color0f0a26 svgShape"></ellipse><ellipse cx="1358.5" cy="1670.2" fill="#0a1026" opacity=".608" rx="32" ry="163.8" transform="rotate(-77.52 1358.448 1670.15)" class="color0f0a26 svgShape"></ellipse><ellipse cx="1360.8" cy="1670.8" fill="#0a1026" opacity=".627" rx="31.3" ry="160.5" transform="rotate(-77.526 1360.755 1670.738)" class="color0f0a26 svgShape"></ellipse><ellipse cx="1363.1" cy="1671.3" fill="#0a1026" opacity=".647" rx="30.6" ry="157.1" transform="rotate(-77.526 1363.192 1671.327)" class="color0f0a26 svgShape"></ellipse><ellipse cx="1365.4" cy="1671.9" fill="#0a1026" opacity=".667" rx="29.9" ry="153.8" transform="rotate(-77.532 1365.462 1671.919)" class="color0f0a26 svgShape"></ellipse><ellipse cx="1367.7" cy="1672.4" fill="#0a1026" opacity=".686" rx="29.2" ry="150.5" transform="rotate(-77.537 1367.802 1672.511)" class="color0f0a26 svgShape"></ellipse><ellipse cx="1370" cy="1673" fill="#0a1026" opacity=".706" rx="28.5" ry="147.1" transform="rotate(-77.544 1369.952 1672.934)" class="color0f0a26 svgShape"></ellipse><ellipse cx="1372.3" cy="1673.6" fill="#0a1026" opacity=".726" rx="27.8" ry="143.8" transform="rotate(-77.549 1372.31 1673.53)" class="color0f0a26 svgShape"></ellipse><ellipse cx="1374.6" cy="1674.1" fill="#0a1026" opacity=".745" rx="27.1" ry="140.4" transform="rotate(-77.555 1374.607 1674.127)" class="color0f0a26 svgShape"></ellipse><ellipse cx="1376.9" cy="1674.7" fill="#0a1026" opacity=".765" rx="26.4" ry="137.1" transform="rotate(-77.561 1376.957 1674.726)" class="color0f0a26 svgShape"></ellipse><ellipse cx="1379.2" cy="1675.2" fill="#0a1026" opacity=".784" rx="25.7" ry="133.8" transform="rotate(-77.566 1379.31 1675.326)" class="color0f0a26 svgShape"></ellipse><ellipse cx="1381.5" cy="1675.8" fill="#0a1026" opacity=".804" rx="25" ry="130.4" transform="rotate(-77.573 1381.5 1675.758)" class="color0f0a26 svgShape"></ellipse><ellipse cx="1383.8" cy="1676.4" fill="#0a1026" opacity=".824" rx="24.2" ry="127.1" transform="rotate(-77.579 1383.884 1676.362)" class="color0f0a26 svgShape"></ellipse><ellipse cx="1386.1" cy="1676.9" fill="#0a1026" opacity=".843" rx="23.5" ry="123.8" transform="rotate(-77.59 1386.117 1676.971)" class="color0f0a26 svgShape"></ellipse><ellipse cx="1388.4" cy="1677.5" fill="#0a1026" opacity=".863" rx="22.8" ry="120.4" transform="rotate(-77.597 1388.34 1677.41)" class="color0f0a26 svgShape"></ellipse><ellipse cx="1390.7" cy="1678" fill="#0a1026" opacity=".882" rx="22.1" ry="117.1" transform="rotate(-77.602 1390.781 1678.02)" class="color0f0a26 svgShape"></ellipse><ellipse cx="1393" cy="1678.6" fill="#0a1026" opacity=".902" rx="21.4" ry="113.8" transform="rotate(-77.614 1392.992 1678.638)" class="color0f0a26 svgShape"></ellipse><ellipse cx="1395.3" cy="1679.2" fill="#0a1026" opacity=".922" rx="20.7" ry="110.4" transform="rotate(-77.62 1395.297 1679.084)" class="color0f0a26 svgShape"></ellipse><ellipse cx="1397.6" cy="1679.7" fill="#0a1026" opacity=".941" rx="20" ry="107.1" transform="rotate(-77.631 1397.631 1679.707)" class="color0f0a26 svgShape"></ellipse><ellipse cx="1399.9" cy="1680.3" fill="#0a1026" opacity=".961" rx="19.3" ry="103.7" transform="rotate(-77.643 1399.95 1680.334)" class="color0f0a26 svgShape"></ellipse><ellipse cx="1402.2" cy="1680.8" fill="#0a1026" opacity=".98" rx="18.6" ry="100.4" transform="rotate(-77.655 1402.17 1680.793)" class="color0f0a26 svgShape"></ellipse><ellipse cx="1404.5" cy="1681.4" fill="#0a1026" rx="17.9" ry="97.1" transform="rotate(-77.667 1404.472 1681.43)" class="color0f0a26 svgShape"></ellipse></g><g fill="#000000" class="color000000 svgShape"><linearGradient id="w" x1="2929.124" x2="2852.504" y1="238.863" y2="238.863" gradientTransform="matrix(-1.3325 .8863 1.053 1.5791 5064.186 -1304.027)" gradientUnits="userSpaceOnUse"><stop offset="0" stop-color="#3b52a8" class="stopColora86c3b svgShape"></stop><stop offset=".384" stop-color="#6a7bba" class="stopColorba8b6a svgShape"></stop><stop offset=".995" stop-color="#152c82" class="stopColor824315 svgShape"></stop></linearGradient><path fill="url(#w)" d="M1368.6,1603.3l138.7,98.3l-36.6-166.3l-1,0.6c3.5,12-4.7,29-20.8,44c-4.4,4.3-9.4,8.2-14.8,11.8
					c-5.4,3.6-11,6.6-16.6,9.1c-20,9-39,10-48.7,2.2L1368.6,1603.3z"></path><linearGradient id="x" x1="2910.921" x2="2870.706" y1="259.063" y2="259.063" gradientTransform="matrix(-1.3325 .8863 1.053 1.5791 5064.186 -1304.027)" gradientUnits="userSpaceOnUse"><stop offset="0" stop-color="#0575e6" class="stopColor505faa svgShape"></stop><stop offset="1" stop-color="#2c4191" class="stopColor2c3c91 svgShape"></stop></linearGradient><path fill="url(#x)" d="M1435.4,1651l72.1,50.6l-18.5-86.2l-0.5,0.3c1.8,6.2-2.6,15.1-11,22.9c-2.3,2.2-4.9,4.3-7.8,6.2
					c-2.9,1.9-5.8,3.5-8.7,4.8c-10.5,4.8-20.4,5.3-25.4,1.3L1435.4,1651z"></path><g fill="#000000" class="color000000 svgShape"><linearGradient id="y" x1="2852.505" x2="2929.707" y1="-308.745" y2="-308.745" gradientTransform="matrix(-1.3325 .8863 1.053 1.5791 5064.186 -1304.027)" gradientUnits="userSpaceOnUse"><stop offset="0" stop-color="#214ef5" class="stopColorf58b21 svgShape"></stop><stop offset="1" stop-color="#1947f5" class="stopColorf5b419 svgShape"></stop></linearGradient><path fill="url(#y)" d="M835.1,805c10,15,41,11.9,69.5-7.1c28.3-18.9,43.3-46.4,33.3-61.4c-9.8-14.7-41-11.6-69.4,7.3
						C840.1,762.9,825.3,790.3,835.1,805z"></path><linearGradient id="z" x1="2932.572" x2="2866.123" y1="-48.832" y2="-48.832" gradientTransform="matrix(-1.3325 .8863 1.053 1.5791 5064.186 -1304.027)" gradientUnits="userSpaceOnUse"><stop offset="0" stop-color="#0575e6" class="stopColor505faa svgShape"></stop><stop offset="1" stop-color="#2c4191" class="stopColor2c3c91 svgShape"></stop></linearGradient><path fill="url(#z)" d="M835.1,805l529.7,794.3c1.1,1.6,2.3,3.1,3.8,4.1l0.2-0.1c9.7,7.8,28.7,6.8,48.7-2.2
						c5.7-2.4,11.2-5.5,16.6-9.1c5.4-3.6,10.4-7.6,14.8-11.8c16.1-15,24.3-32.1,20.8-44c-0.1-1.9-1-3.6-2.1-5.2L937.9,736.5
						c8,12-0.1,32.3-18.5,49.5c-4.4,4.3-9.4,8.2-14.8,11.8c-5.4,3.6-11,6.6-16.6,9.1C864.9,817.3,843,816.9,835.1,805z"></path><linearGradient id="A" x1="2879.306" x2="2902.905" y1="-44.681" y2="-44.681" gradientTransform="matrix(-1.3325 .8863 1.053 1.5791 5064.186 -1304.027)" gradientUnits="userSpaceOnUse"><stop offset="0" stop-color="#214ef5" class="stopColorf58b21 svgShape"></stop><stop offset="1" stop-color="#1947f5" class="stopColorf5b419 svgShape"></stop></linearGradient><path fill="url(#A)" d="M879.5,794.3l538,806.7c5.7-2.4,11.2-5.5,16.6-9.1c5.4-3.6,10.4-7.6,14.8-11.8L911,773.4L879.5,794.3z"></path></g><g fill="#000000" class="color000000 svgShape"><linearGradient id="B" x1="2852.505" x2="2929.707" y1="-367.082" y2="-367.082" gradientTransform="matrix(-1.3325 .8863 1.053 1.5791 5064.186 -1304.027)" gradientUnits="userSpaceOnUse"><stop offset="0" stop-color="#214ef5" class="stopColorf58b21 svgShape"></stop><stop offset="1" stop-color="#1947f5" class="stopColorf5b419 svgShape"></stop></linearGradient><path fill="url(#B)" d="M773.7,712.9c10,15,41,11.9,69.5-7.1c28.3-18.9,43.3-46.4,33.3-61.4c-9.8-14.7-41-11.6-69.4,7.3
						C778.6,670.7,763.8,698.2,773.7,712.9z"></path><linearGradient id="C" x1="2932.573" x2="2866.124" y1="-328.552" y2="-328.552" gradientTransform="matrix(-1.3325 .8863 1.053 1.5791 5064.186 -1304.027)" gradientUnits="userSpaceOnUse"><stop offset="0" stop-color="#f9fcff" class="stopColorf9fcff svgShape"></stop><stop offset="1" stop-color="#d1d1d1" class="stopColord1d1d1 svgShape"></stop></linearGradient><path fill="url(#C)" d="M773.7,712.9l63.4,95c9.8,14.7,40.9,11.7,69.4-7.3c28.3-18.9,43.3-46.4,33.5-61.1l-63.4-95
						c10,15-5,42.5-33.3,61.4C814.7,724.8,783.6,727.8,773.7,712.9z"></path></g><g fill="#000000" class="color000000 svgShape"><linearGradient id="D" x1="2852.505" x2="2929.708" y1="-469.012" y2="-469.012" gradientTransform="matrix(-1.3325 .8863 1.053 1.5791 5064.186 -1304.027)" gradientUnits="userSpaceOnUse"><stop offset="0" stop-color="#214ef5" class="stopColorf58b21 svgShape"></stop><stop offset="1" stop-color="#1947f5" class="stopColorf5b419 svgShape"></stop></linearGradient><path fill="url(#D)" d="M666.3,551.9c10,15,41,11.9,69.5-7.1c28.3-18.9,43.3-46.4,33.3-61.4c-9.8-14.7-41-11.6-69.4,7.3
						C671.3,509.8,656.5,537.2,666.3,551.9z"></path><linearGradient id="E" x1="2932.573" x2="2866.124" y1="-408.923" y2="-408.923" gradientTransform="matrix(-1.3325 .8863 1.053 1.5791 5064.186 -1304.027)" gradientUnits="userSpaceOnUse"><stop offset="0" stop-color="#214ef5" class="stopColorf58b21 svgShape"></stop><stop offset="1" stop-color="#1947f5" class="stopColorf5b419 svgShape"></stop></linearGradient><path fill="url(#E)" d="M666.3,551.9L775.1,715c9.8,14.7,40.9,11.7,69.4-7.3c28.3-18.9,43.3-46.4,33.5-61.1L769.2,483.5
						c10,15-5,42.5-33.3,61.4C707.3,563.8,676.3,566.9,666.3,551.9z"></path></g></g><g fill="#000000" class="color000000 svgShape"><g opacity=".2" fill="#000000" class="color000000 svgShape"><ellipse cx="2111.8" cy="1025.1" fill="#0a1026" opacity="0" rx="217.2" ry="143.1" transform="rotate(-3.533 2111.808 1025.076)" class="color0f0a26 svgShape"></ellipse><ellipse cx="2113.7" cy="1025.2" fill="#0a1026" opacity=".02" rx="214.5" ry="141.2" transform="rotate(-3.539 2113.698 1025.201)" class="color0f0a26 svgShape"></ellipse><ellipse cx="2115.6" cy="1025.3" fill="#0a1026" opacity=".039" rx="211.7" ry="139.4" transform="matrix(.9981 -.06182 .06182 .9981 -59.336 132.749)" class="color0f0a26 svgShape"></ellipse><ellipse cx="2117.5" cy="1025.3" fill="#0a1026" opacity=".059" rx="209" ry="137.5" transform="rotate(-3.551 2117.553 1025.41) scale(1.00002)" class="color0f0a26 svgShape"></ellipse><ellipse cx="2119.5" cy="1025.4" fill="#0a1026" opacity=".078" rx="206.3" ry="135.6" transform="rotate(-3.533 2120.098 1024.697)" class="color0f0a26 svgShape"></ellipse><ellipse cx="2121.4" cy="1025.5" fill="#0a1026" opacity=".098" rx="203.6" ry="133.7" transform="rotate(-3.56 2121.449 1025.49) scale(1.00003)" class="color0f0a26 svgShape"></ellipse><ellipse cx="2123.3" cy="1025.5" fill="#0a1026" opacity=".118" rx="200.9" ry="131.9" transform="rotate(-3.566 2123.38 1025.568)" class="color0f0a26 svgShape"></ellipse><ellipse cx="2125.2" cy="1025.6" fill="#0a1026" opacity=".137" rx="198.2" ry="130" transform="rotate(-3.572 2125.34 1025.656)" class="color0f0a26 svgShape"></ellipse><ellipse cx="2127.1" cy="1025.7" fill="#0a1026" opacity=".157" rx="195.5" ry="128.1" transform="rotate(-3.579 2127.235 1025.745) scale(1.00005)" class="color0f0a26 svgShape"></ellipse><ellipse cx="2129.1" cy="1025.7" fill="#0a1026" opacity=".176" rx="192.8" ry="126.2" transform="matrix(.998 -.06251 .06251 .998 -59.96 135.104)" class="color0f0a26 svgShape"></ellipse><ellipse cx="2131" cy="1025.8" fill="#0a1026" opacity=".196" rx="190.1" ry="124.3" transform="matrix(.998 -.06262 .06262 .998 -60.057 135.465)" class="color0f0a26 svgShape"></ellipse><ellipse cx="2132.9" cy="1025.9" fill="#0a1026" opacity=".216" rx="187.3" ry="122.5" transform="rotate(-3.597 2132.836 1025.84) scale(.99997)" class="color0f0a26 svgShape"></ellipse><ellipse cx="2134.8" cy="1025.9" fill="#0a1026" opacity=".235" rx="184.6" ry="120.6" transform="matrix(.998 -.06285 .06285 .998 -60.262 136.208)" class="color0f0a26 svgShape"></ellipse><ellipse cx="2136.7" cy="1026" fill="#0a1026" opacity=".255" rx="181.9" ry="118.7" transform="matrix(.998 -.06297 .06297 .998 -60.368 136.591)" class="color0f0a26 svgShape"></ellipse><ellipse cx="2138.7" cy="1026.1" fill="#0a1026" opacity=".275" rx="179.2" ry="116.8" transform="rotate(-3.615 2138.684 1025.977) scale(.99999)" class="color0f0a26 svgShape"></ellipse><ellipse cx="2140.6" cy="1026.1" fill="#0a1026" opacity=".294" rx="176.5" ry="115" transform="rotate(-3.624 2140.591 1026.123)" class="color0f0a26 svgShape"></ellipse><ellipse cx="2142.5" cy="1026.2" fill="#0a1026" opacity=".314" rx="173.8" ry="113.1" transform="rotate(-3.633 2142.501 1026.26) scale(1.00001)" class="color0f0a26 svgShape"></ellipse><ellipse cx="2144.4" cy="1026.3" fill="#0a1026" opacity=".333" rx="171.1" ry="111.2" transform="matrix(.998 -.06348 .06348 .998 -60.825 138.203)" class="color0f0a26 svgShape"></ellipse><ellipse cx="2146.3" cy="1026.3" fill="#0a1026" opacity=".353" rx="168.4" ry="109.3" transform="matrix(.998 -.06362 .06362 .998 -60.947 138.629)" class="color0f0a26 svgShape"></ellipse><ellipse cx="2148.3" cy="1026.4" fill="#0a1026" opacity=".372" rx="165.7" ry="107.5" transform="matrix(.998 -.06376 .06376 .998 -61.073 139.064)" class="color0f0a26 svgShape"></ellipse><ellipse cx="2150.2" cy="1026.5" fill="#0a1026" opacity=".392" rx="163" ry="105.6" transform="rotate(-3.664 2150.409 1026.566)" class="color0f0a26 svgShape"></ellipse><ellipse cx="2152.1" cy="1026.5" fill="#0a1026" opacity=".412" rx="160.2" ry="103.7" transform="matrix(.9979 -.06406 .06406 .9979 -61.336 139.964)" class="color0f0a26 svgShape"></ellipse><ellipse cx="2154" cy="1026.6" fill="#0a1026" opacity=".431" rx="157.5" ry="101.8" transform="matrix(.9979 -.06421 .06421 .9979 -61.474 140.431)" class="color0f0a26 svgShape"></ellipse><ellipse cx="2155.9" cy="1026.7" fill="#0a1026" opacity=".451" rx="154.8" ry="100" transform="matrix(.9979 -.06437 .06437 .9979 -61.616 140.91)" class="color0f0a26 svgShape"></ellipse><ellipse cx="2157.9" cy="1026.7" fill="#0a1026" opacity=".471" rx="152.1" ry="98.1" transform="matrix(.9979 -.06454 .06454 .9979 -61.763 141.4)" class="color0f0a26 svgShape"></ellipse><ellipse cx="2159.8" cy="1026.8" fill="#0a1026" opacity=".49" rx="149.4" ry="96.2" transform="rotate(-3.71 2159.788 1026.802)" class="color0f0a26 svgShape"></ellipse><ellipse cx="2161.7" cy="1026.9" fill="#0a1026" opacity=".51" rx="146.7" ry="94.3" transform="rotate(-3.72 2161.708 1026.869)" class="color0f0a26 svgShape"></ellipse><ellipse cx="2163.6" cy="1026.9" fill="#0a1026" opacity=".529" rx="144" ry="92.4" transform="rotate(-3.731 2163.655 1026.99) scale(1.00002)" class="color0f0a26 svgShape"></ellipse><ellipse cx="2165.5" cy="1027" fill="#0a1026" opacity=".549" rx="141.3" ry="90.6" transform="rotate(-3.74 2165.636 1026.991) scale(1.00003)" class="color0f0a26 svgShape"></ellipse><ellipse cx="2167.5" cy="1027.1" fill="#0a1026" opacity=".569" rx="138.6" ry="88.7" transform="matrix(.9979 -.06545 .06545 .9979 -62.574 144.061)" class="color0f0a26 svgShape"></ellipse><ellipse cx="2169.4" cy="1027.1" fill="#0a1026" opacity=".588" rx="135.9" ry="86.8" transform="matrix(.9978 -.06565 .06565 .9978 -62.753 144.64)" class="color0f0a26 svgShape"></ellipse><ellipse cx="2171.3" cy="1027.2" fill="#0a1026" opacity=".608" rx="133.1" ry="84.9" transform="rotate(-3.775 2171.266 1027.132) scale(.99997)" class="color0f0a26 svgShape"></ellipse><ellipse cx="2173.2" cy="1027.3" fill="#0a1026" opacity=".627" rx="130.4" ry="83.1" transform="matrix(.9978 -.06608 .06608 .9978 -63.132 145.851)" class="color0f0a26 svgShape"></ellipse><ellipse cx="2175.2" cy="1027.3" fill="#0a1026" opacity=".647" rx="127.7" ry="81.2" transform="rotate(-3.801 2175.16 1027.315)" class="color0f0a26 svgShape"></ellipse><ellipse cx="2177.1" cy="1027.4" fill="#0a1026" opacity=".667" rx="125" ry="79.3" transform="matrix(.9978 -.06654 .06654 .9978 -63.54 147.141)" class="color0f0a26 svgShape"></ellipse><ellipse cx="2179" cy="1027.5" fill="#0a1026" opacity=".686" rx="122.3" ry="77.4" transform="matrix(.9978 -.06679 .06679 .9978 -63.755 147.819)" class="color0f0a26 svgShape"></ellipse><ellipse cx="2180.9" cy="1027.5" fill="#0a1026" opacity=".706" rx="119.6" ry="75.6" transform="rotate(-3.844 2181.017 1027.597) scale(1.00005)" class="color0f0a26 svgShape"></ellipse><ellipse cx="2182.8" cy="1027.6" fill="#0a1026" opacity=".726" rx="116.9" ry="73.7" transform="rotate(-3.861 2182.727 1027.65) scale(.99997)" class="color0f0a26 svgShape"></ellipse><ellipse cx="2184.8" cy="1027.7" fill="#0a1026" opacity=".745" rx="114.2" ry="71.8" transform="matrix(.9977 -.06758 .06758 .9977 -64.456 149.998)" class="color0f0a26 svgShape"></ellipse><ellipse cx="2186.7" cy="1027.7" fill="#0a1026" opacity=".765" rx="111.5" ry="69.9" transform="rotate(-3.892 2186.674 1027.736)" class="color0f0a26 svgShape"></ellipse><ellipse cx="2188.6" cy="1027.8" fill="#0a1026" opacity=".784" rx="108.8" ry="68" transform="matrix(.9977 -.06817 .06817 .9977 -64.975 151.59)" class="color0f0a26 svgShape"></ellipse><ellipse cx="2190.5" cy="1027.9" fill="#0a1026" opacity=".804" rx="106" ry="66.2" transform="rotate(-3.929 2190.59 1027.986) scale(1.00005)" class="color0f0a26 svgShape"></ellipse><ellipse cx="2192.4" cy="1027.9" fill="#0a1026" opacity=".824" rx="103.3" ry="64.3" transform="rotate(-3.946 2192.379 1027.886) scale(.99997)" class="color0f0a26 svgShape"></ellipse><ellipse cx="2194.4" cy="1028" fill="#0a1026" opacity=".843" rx="100.6" ry="62.4" transform="rotate(-3.966 2194.355 1028.004)" class="color0f0a26 svgShape"></ellipse><ellipse cx="2196.3" cy="1028.1" fill="#0a1026" opacity=".863" rx="97.9" ry="60.5" transform="rotate(-3.987 2196.315 1028.098) scale(1.00002)" class="color0f0a26 svgShape"></ellipse><ellipse cx="2198.2" cy="1028.1" fill="#0a1026" opacity=".882" rx="95.2" ry="58.7" transform="rotate(-4.008 2198.356 1028.21)" class="color0f0a26 svgShape"></ellipse><ellipse cx="2200.1" cy="1028.2" fill="#0a1026" opacity=".902" rx="92.5" ry="56.8" transform="rotate(-4.031 2200.297 1028.277)" class="color0f0a26 svgShape"></ellipse><ellipse cx="2202" cy="1028.3" fill="#0a1026" opacity=".922" rx="89.8" ry="54.9" transform="rotate(-4.056 2202.036 1028.269)" class="color0f0a26 svgShape"></ellipse><ellipse cx="2204" cy="1028.3" fill="#0a1026" opacity=".941" rx="87.1" ry="53" transform="matrix(.9975 -.07117 .07117 .9975 -67.6 159.47)" class="color0f0a26 svgShape"></ellipse><ellipse cx="2205.9" cy="1028.4" fill="#0a1026" opacity=".961" rx="84.4" ry="51.2" transform="rotate(-4.109 2205.806 1028.381) scale(.99997)" class="color0f0a26 svgShape"></ellipse><ellipse cx="2207.8" cy="1028.5" fill="#0a1026" opacity=".98" rx="81.7" ry="49.3" transform="rotate(-4.137 2207.799 1028.47)" class="color0f0a26 svgShape"></ellipse><ellipse cx="2209.7" cy="1028.5" fill="#0a1026" rx="78.9" ry="47.4" transform="matrix(.9974 -.07267 .07267 .9974 -68.9 163.297)" class="color0f0a26 svgShape"></ellipse></g><g fill="#000000" class="color000000 svgShape"><g fill="#000000" class="color000000 svgShape"><linearGradient id="F" x1="2295.965" x2="2328.711" y1="815.704" y2="1164.711" gradientUnits="userSpaceOnUse"><stop offset="0" stop-color="#f9fcff" class="stopColorf9fcff svgShape"></stop><stop offset="1" stop-color="#e7eff7" class="stopColore7edf7 svgShape"></stop></linearGradient><ellipse cx="2311.9" cy="985.9" fill="url(#F)" rx="219.4" ry="231.2"></ellipse><linearGradient id="G" x1="2322.886" x2="2242.872" y1="1181.303" y2="793.276" gradientUnits="userSpaceOnUse"><stop offset="0" stop-color="#f9fcff" class="stopColorf9fcff svgShape"></stop><stop offset="1" stop-color="#e7eff7" class="stopColore7edf7 svgShape"></stop></linearGradient><ellipse cx="2285.2" cy="998.3" fill="url(#G)" rx="219.4" ry="231.2"></ellipse><path fill="#ffffff" d="M2285.2,767.1c-0.6,0-1.2,0.1-1.8,0.1c120.4,1,217.7,104.1,217.7,231.1s-97.3,230.1-217.7,231.1
							c0.6,0,1.2,0.1,1.8,0.1c121.2,0,219.5-103.5,219.5-231.2S2406.4,767.1,2285.2,767.1z" class="colorffffff svgShape"></path><linearGradient id="H" x1="2315.012" x2="2251.696" y1="1143.119" y2="836.069" gradientUnits="userSpaceOnUse"><stop offset="0" stop-color="#214ef5" class="stopColorf58b21 svgShape"></stop><stop offset="1" stop-color="#1947f5" class="stopColorf5b419 svgShape"></stop></linearGradient><ellipse cx="2285.2" cy="998.3" fill="url(#H)" rx="173.7" ry="183"></ellipse><linearGradient id="I" x1="2308.15" x2="2259.387" y1="1109.84" y2="873.365" gradientUnits="userSpaceOnUse"><stop offset="0" stop-color="#f9fcff" class="stopColorf9fcff svgShape"></stop><stop offset="1" stop-color="#e7eff7" class="stopColore7edf7 svgShape"></stop></linearGradient><ellipse cx="2285.2" cy="998.3" fill="url(#I)" rx="133.7" ry="140.9"></ellipse><linearGradient id="J" x1="2302.041" x2="2266.233" y1="1080.215" y2="906.567" gradientUnits="userSpaceOnUse"><stop offset="0" stop-color="#214ef5" class="stopColorf58b21 svgShape"></stop><stop offset="1" stop-color="#1947f5" class="stopColorf5b419 svgShape"></stop></linearGradient><ellipse cx="2285.2" cy="998.3" fill="url(#J)" rx="98.2" ry="103.5"></ellipse><linearGradient id="K" x1="2296.307" x2="2272.659" y1="1052.408" y2="937.73" gradientUnits="userSpaceOnUse"><stop offset="0" stop-color="#f9fcff" class="stopColorf9fcff svgShape"></stop><stop offset="1" stop-color="#e7eff7" class="stopColore7edf7 svgShape"></stop></linearGradient><ellipse cx="2285.2" cy="998.3" fill="url(#K)" rx="64.9" ry="68.3"></ellipse><linearGradient id="L" x1="1869.499" x2="1849.133" y1="730.385" y2="631.624" gradientTransform="matrix(.5641 -.00002 0 .5641 1236.014 612.6)" gradientUnits="userSpaceOnUse"><stop offset="0" stop-color="#214ef5" class="stopColorf58b21 svgShape"></stop><stop offset="1" stop-color="#1947f5" class="stopColorf5b419 svgShape"></stop></linearGradient><ellipse cx="2285.2" cy="998.3" fill="url(#L)" rx="31.5" ry="33.2"></ellipse></g><g fill="#000000" class="color000000 svgShape"><linearGradient id="M" x1="2423.626" x2="2386.245" y1="948.804" y2="767.53" gradientUnits="userSpaceOnUse"><stop offset="0" stop-color="#214ef5" class="stopColorf58b21 svgShape"></stop><stop offset="1" stop-color="#1947f5" class="stopColorf5b419 svgShape"></stop></linearGradient><line x1="2285.2" x2="2526.8" y1="998.3" y2="728.3" fill="url(#M)" stroke="#224df1" stroke-miterlimit="10" stroke-width="9.512" class="colorStrokef16522 svgStroke"></line><linearGradient id="N" x1="2472.752" x2="2524.197" y1="728.678" y2="728.678" gradientUnits="userSpaceOnUse"><stop offset="0" stop-color="#0575e6" class="stopColor505faa svgShape"></stop><stop offset="1" stop-color="#8fabc7" class="stopColor8f92c7 svgShape"></stop></linearGradient><polygon fill="url(#N)" points="2476.9 776.7 2472.8 738.8 2524.2 680.6 2521.1 728.3"></polygon><linearGradient id="O" x1="2482.31" x2="2564.442" y1="758.089" y2="758.089" gradientUnits="userSpaceOnUse"><stop offset="0" stop-color="#0575e6" class="stopColor505faa svgShape"></stop><stop offset="1" stop-color="#8fabc7" class="stopColor8f92c7 svgShape"></stop></linearGradient><polygon fill="url(#O)" points="2482.3 783.2 2516.6 783.2 2564.4 733 2526.8 734.8"></polygon></g></g></g></g></g></switch></svg>