<svg xmlns="http://www.w3.org/2000/svg" enable-background="new 0 0 850 850" viewBox="0 0 850 850" id="YoungManPuttingRemindersOnCalendar"><g fill="#000000" class="color000000 svgShape"><g fill="#000000" class="color000000 svgShape"><path fill="#0a0a0c" d="M558.2,430.2c0,0-1.9,3.9-4,9.8c-0.6,1.7-1.3,3.6-1.9,5.7c-0.3,0.9-0.5,1.8-0.8,2.8c-0.2,0.7-0.4,1.3-0.5,2
			c-1.4,5.7-2.5,12-2.5,18h-31.6c0-6.1,1.1-12.4,2.5-18c0.2-0.7,0.3-1.3,0.5-2c0.1-0.3,0.2-0.5,0.2-0.8c0.8-3,1.7-5.7,2.6-8.1
			c2-5.7,3.8-9.3,3.8-9.3H558.2z" class="color0a0a0c svgShape"></path></g><g fill="#000000" class="color000000 svgShape"><path fill="#0a0a0c" d="M593.3,448.4H466.1c-0.2,0-0.3-0.1-0.3-0.3v-78.3c0-0.2,0.1-0.3,0.3-0.3h127.2c0.2,0,0.3,0.1,0.3,0.3v78.3
			C593.6,448.2,593.5,448.4,593.3,448.4z" class="color0a0a0c svgShape"></path></g><g fill="#000000" class="color000000 svgShape"><path fill="#0a0a0c" d="M597.5,448.4H470.3c-0.2,0-0.3-0.1-0.3-0.3v-78.3c0-0.2,0.1-0.3,0.3-0.3h127.2c0.2,0,0.3,0.1,0.3,0.3v78.3
			C597.8,448.2,597.7,448.4,597.5,448.4z" class="color0a0a0c svgShape"></path></g><g fill="#000000" class="color000000 svgShape"><rect width="70.6" height="119.5" x="498.6" y="349.2" fill="#fafbfd" transform="rotate(90 533.88 408.91)" class="colorfafcfd svgShape"></rect></g><g fill="#000000" class="color000000 svgShape"><path fill="#5aacff" d="M614.1,460.9l-7.8,1.3c-2.3,0.4-4.1,2.4-4.2,4.7l-0.1,1.5h21C623,463.7,618.7,460.1,614.1,460.9z" class="colorffc35a svgShape"></path></g><g fill="#000000" class="color000000 svgShape"><path fill="#5aacff" d="M493.4,464.8h93.5c0.2,0,0.3,0.1,0.3,0.3v3.3h-94v-3.4C493.2,464.9,493.3,464.8,493.4,464.8z" class="colorffc35a svgShape"></path></g><g fill="#000000" class="color000000 svgShape"><path fill="#5aacff" d="M493.2,468.4h19.4v-3.3c0-0.2-0.1-0.3-0.3-0.3h-19c0,0-0.1,0-0.1,0.1V468.4z" class="colorffc35a svgShape"></path></g><g fill="#000000" class="color000000 svgShape"><path fill="#accbea" d="M580.1,464.2h3.2c0.2,0,0.4,0.2,0.4,0.4c0,0.3-4,0.3-4,0.3C579.7,464.4,579.8,464.2,580.1,464.2z" class="coloracd9ea svgShape"></path></g><g fill="#000000" class="color000000 svgShape"><path fill="#accbea" d="M575,464.2h3.2c0.2,0,0.4,0.2,0.4,0.4c0,0.3-4,0.3-4,0.3C574.7,464.4,574.8,464.2,575,464.2z" class="coloracd9ea svgShape"></path></g><g fill="#000000" class="color000000 svgShape"><path fill="#accbea" d="M570,464.2h3.2c0.2,0,0.4,0.2,0.4,0.4c0,0.3-4,0.3-4,0.3C569.6,464.4,569.8,464.2,570,464.2z" class="coloracd9ea svgShape"></path></g><g fill="#000000" class="color000000 svgShape"><path fill="#accbea" d="M565,464.2h3.2c0.2,0,0.4,0.2,0.4,0.4c0,0.3-4,0.3-4,0.3C564.6,464.4,564.8,464.2,565,464.2z" class="coloracd9ea svgShape"></path></g><g fill="#000000" class="color000000 svgShape"><path fill="#accbea" d="M560,464.2h3.2c0.2,0,0.4,0.2,0.4,0.4c0,0.3-4,0.3-4,0.3C559.6,464.4,559.8,464.2,560,464.2z" class="coloracd9ea svgShape"></path></g><g fill="#000000" class="color000000 svgShape"><path fill="#a9d4ff" d="M555,464.2h3.2c0.2,0,0.4,0.2,0.4,0.4c0,0.3-4,0.3-4,0.3C554.6,464.4,554.8,464.2,555,464.2z" class="colorffa9a9 svgShape"></path></g><g fill="#000000" class="color000000 svgShape"><path fill="#a9d4ff" d="M550,464.2h3.2c0.2,0,0.4,0.2,0.4,0.4c0,0.3-4,0.3-4,0.3C549.6,464.4,549.8,464.2,550,464.2z" class="colorffa9a9 svgShape"></path></g><g fill="#000000" class="color000000 svgShape"><path fill="#a9d4ff" d="M545,464.2h3.2c0.2,0,0.4,0.2,0.4,0.4c0,0.3-4,0.3-4,0.3C544.6,464.4,544.7,464.2,545,464.2z" class="colorffa9a9 svgShape"></path></g><g fill="#000000" class="color000000 svgShape"><path fill="#a9d4ff" d="M539.9,464.2h3.2c0.2,0,0.4,0.2,0.4,0.4c0,0.3-4,0.3-4,0.3C539.6,464.4,539.7,464.2,539.9,464.2z" class="colorffa9a9 svgShape"></path></g><g fill="#000000" class="color000000 svgShape"><path fill="#a9d4ff" d="M534.9,464.2h3.2c0.2,0,0.4,0.2,0.4,0.4c0,0.3-4,0.3-4,0.3C534.5,464.4,534.7,464.2,534.9,464.2z" class="colorffa9a9 svgShape"></path></g><g fill="#000000" class="color000000 svgShape"><path fill="#a9d4ff" d="M529.9,464.2h3.2c0.2,0,0.4,0.2,0.4,0.4c0,0.3-4,0.3-4,0.3C529.5,464.4,529.7,464.2,529.9,464.2z" class="colorffa9a9 svgShape"></path></g><g fill="#000000" class="color000000 svgShape"><path fill="#a9d4ff" d="M524.9,464.2h3.2c0.2,0,0.4,0.2,0.4,0.4c0,0.3-4,0.3-4,0.3C524.5,464.4,524.7,464.2,524.9,464.2z" class="colorffa9a9 svgShape"></path></g><g fill="#000000" class="color000000 svgShape"><path fill="#a9d4ff" d="M519.9,464.2h3.2c0.2,0,0.4,0.2,0.4,0.4c0,0.3-4,0.3-4,0.3C519.5,464.4,519.7,464.2,519.9,464.2z" class="colorffa9a9 svgShape"></path></g><g fill="#000000" class="color000000 svgShape"><path fill="#a9d4ff" d="M514.9,464.2h3.2c0.2,0,0.4,0.2,0.4,0.4c0,0.3-4,0.3-4,0.3C514.5,464.4,514.7,464.2,514.9,464.2z" class="colorffa9a9 svgShape"></path></g><g fill="#000000" class="color000000 svgShape"><path fill="#a9d4ff" d="M509.9,464.2h3.2c0.2,0,0.4,0.2,0.4,0.4c0,0.3-4,0.3-4,0.3C509.5,464.4,509.6,464.2,509.9,464.2z" class="colorffa9a9 svgShape"></path></g><g fill="#000000" class="color000000 svgShape"><path fill="#a9d4ff" d="M504.8,464.2h3.2c0.2,0,0.4,0.2,0.4,0.4c0,0.3-4,0.3-4,0.3C504.4,464.4,504.6,464.2,504.8,464.2z" class="colorffa9a9 svgShape"></path></g><g fill="#000000" class="color000000 svgShape"><path fill="#a9d4ff" d="M499.8,464.2h3.2c0.2,0,0.4,0.2,0.4,0.4c0,0.3-4,0.3-4,0.3C499.4,464.4,499.6,464.2,499.8,464.2z" class="colorffa9a9 svgShape"></path></g><g fill="#000000" class="color000000 svgShape"><path fill="#bfdefd" d="M620.4,457.1c0,0-6.7,0.7-8.5,1.3c-1.8,0.6-7,2.8-7,2.8c-0.5,0.2-0.7,0.8-0.4,1.2c0.1,0.2,0.3,0.2,0.5,0.2
			l7.3-1.7c0,0,3-0.4,4.2,0c1.2,0.4,4.9,3.5,4.9,3.5L620.4,457.1z" class="colorfdcfbf svgShape"></path></g><g fill="#000000" class="color000000 svgShape"><path fill="#bfdefd" d="M617.9,460.9c-3,0.5-6.7,2.3-8.6,3c-0.5,0.2-0.8,0.7-0.7,1.2c0,0.2,0.2,0.4,0.5,0.4h13l0-4.8
			C622,460.8,619.9,460.6,617.9,460.9z" class="colorfdcfbf svgShape"></path></g><g fill="#000000" class="color000000 svgShape"><rect width="88.1" height="7.8" x="410.6" y="539.6" fill="#92bde8" class="color92e8bd svgShape"></rect></g><g fill="#000000" class="color000000 svgShape"><rect width="88.1" height="7.8" x="622.8" y="539.6" fill="#021b79" class="color473d46 svgShape"></rect></g><g fill="#000000" class="color000000 svgShape"><rect width="10.3" height="194.2" x="410.6" y="476.9" fill="#92bde8" class="color92e8bd svgShape"></rect></g><g fill="#000000" class="color000000 svgShape"><rect width="10.3" height="194.2" x="488.5" y="476.9" fill="#92bde8" class="color92e8bd svgShape"></rect></g><g fill="#000000" class="color000000 svgShape"><rect width="10.3" height="194.2" x="700.7" y="476.9" fill="#92bde8" class="color92e8bd svgShape"></rect></g><g fill="#000000" class="color000000 svgShape"><rect width="10.3" height="194.2" x="622.8" y="476.9" fill="#4a4d59" class="color534a59 svgShape"></rect></g><g fill="#000000" class="color000000 svgShape"><g fill="#000000" class="color000000 svgShape"><path fill="#0575e6" d="M726.9,468.4H480h-77.8c-1.3,0-2.5,0.5-3.4,1.4c-0.9,0.9-1.4,2-1.4,3.4c0,2.6,2.1,4.7,4.7,4.7H480
				c0,0,0,0,0,0h246.9c1.3,0,2.5-0.5,3.4-1.4c0.9-0.9,1.4-2,1.4-3.3C731.7,470.5,729.6,468.4,726.9,468.4z M476.6,469.8
				c0.7-0.7,1.5-1.1,2.4-1.3C478.2,468.7,477.4,469.1,476.6,469.8c-0.9,0.9-1.4,2-1.4,3.4c0,0,0,0,0,0
				C475.3,471.9,475.8,470.7,476.6,469.8z" class="color70c09e svgShape"></path></g></g><g fill="#000000" class="color000000 svgShape"><path fill="#ffffff" d="M653.3,465.6h-31.4c0,0-4-0.9-1.5-8.5c6.5-2.8,36.8-12,36.8-12L653.3,465.6z" class="colorffffff svgShape"></path></g><g fill="#000000" class="color000000 svgShape"><path d="M653.4,465.8l-31.5,0c0,0-1.1-0.3-1.8-1.5c-0.9-1.6-0.8-4,0.2-7.2c6.5-2.8,36.6-12,36.9-12.1
			C657.4,444.8,653.4,465.8,653.4,465.8z M621.9,465.4h31.2l3.9-20.2c-2.9,0.9-30.2,9.3-36.5,11.9c-1.2,3.8-0.8,5.9-0.2,6.9
			C621,465.1,621.8,465.4,621.9,465.4z" fill="#000000" class="color000000 svgShape"></path></g><g fill="#000000" class="color000000 svgShape"><path fill="#ffffff" d="M673.2,389.2c0,0-10.4,8.1-14.7,20.3c-4,11.2-11,27.7-14.2,41.7c-1,4.3,0.4,12,4.5,13.7
			c7.9,3.3,12.8-4.6,15-7.7c8.1-11.5,21.7-25.3,21.7-38C685.4,404.5,673.2,389.2,673.2,389.2z" class="colorffffff svgShape"></path></g><g fill="#000000" class="color000000 svgShape"><path d="M652.5,465.8c-1.2,0-2.4-0.2-3.8-0.8c-4.1-1.7-5.6-9.5-4.5-13.9c2.4-10.1,6.6-21.3,10.4-31.3c1.4-3.8,2.8-7.3,3.9-10.4
			c4.3-12.2,14.6-20.3,14.7-20.4c0.3,0.2,12.5,15.6,12.5,30.1c0,10-8.3,20.7-15.7,30.2c-2.2,2.8-4.2,5.4-6,7.9
			c-0.1,0.2-0.3,0.3-0.4,0.5C661.6,460.6,657.9,465.8,652.5,465.8z M673.2,389.4c-1.2,1-10.5,8.8-14.5,20.1
			c-1.1,3.1-2.4,6.7-3.9,10.4c-3.8,9.9-8,21.2-10.4,31.2c-1,4.3,0.4,11.8,4.4,13.5c7.4,3.1,12.1-3.8,14.4-7c0.1-0.2,0.3-0.4,0.4-0.6
			c1.8-2.6,3.8-5.2,6-8c7.3-9.4,15.7-20.1,15.7-30C685.3,405.4,674.3,390.9,673.2,389.4z" fill="#000000" class="color000000 svgShape"></path></g><g fill="#000000" class="color000000 svgShape"><path fill="#a9d2fc" d="M643.4,374.4c-6.2,2.9-13.8,4.2-22.3,4.4c-1.4,0-2.8-0.4-3.9-1.1c-1.5-1-2.6-2.6-3-4.4
			c-1.1-5.5-0.7-12.4-2.6-22.7c-0.1-0.5-0.2-1.1-0.3-1.7c-0.7-3.6-0.8-6.7-0.2-9.4c2.2-11,13.7-14,20.4-14c15.5,0,23.5,0,24.6,17.8
			C656.8,355.4,643.4,374.4,643.4,374.4z" class="colorfcc0a9 svgShape"></path></g><g fill="#000000" class="color000000 svgShape"><path fill="#73b7fc" d="M617.2,377.8c1.1,0.7,2.5,1.1,3.9,1.1c8.5-0.2,16-1.9,22.3-4.5c0.9-1.5,10.9-18.4,10.8-19.1
			c-0.2-1-8.5-1.4-10-1.8c-1.5-0.4-13.5,5.8-13.5,5.8s0.4,6.5-2,11.8C624.5,376.8,617.2,377.8,617.2,377.8z" class="colorfc9a73 svgShape"></path></g><g fill="#000000" class="color000000 svgShape"><polygon fill="#a9d2fc" points="656.1 381.8 629.1 381.8 629.8 355.3 629.9 352.5 632.9 353 647.6 355.3 652.5 356 652.8 358 654.9 373.5" class="colorfcc0a9 svgShape"></polygon></g><g fill="#000000" class="color000000 svgShape"><path fill="#0a0a0c" d="M654.8,359.3c0.4,2.5,0,4.6-1,6.2c-3.3,5.2-13.3,4.5-21.5-7.7c-0.6-0.9-1.2-1.9-1.8-2.9
			c0-0.1-2.4-0.1-2.4-0.1l-1.9,0c-1.8-0.2-3.2-1.6-3.5-3.4c-0.4-2.5-1.6-5.7-5.5-5.8c-4.4,0-6,3-6,3s-5.7-2.1-6.1-11.4
			c-0.4-9.2,9.1-16.9,21.8-12.4c20.6-4.6,26.8-1.3,29.7,8.2c3,10-2.4,17.8-1.9,25.2C654.7,358.4,654.8,358.9,654.8,359.3z" class="color0a0a0c svgShape"></path></g><g fill="#000000" class="color000000 svgShape"><path fill="#a9d2fc" d="M633.1,353.6c0,0.8-0.1,1.6-0.3,2.4c-0.1,0.6-0.3,1.2-0.5,1.7c-0.6,1.6-1.6,3-2.6,3.9
			c-0.9,0.8-1.9,1.2-2.9,1.2c-0.2,0-0.4,0-0.6,0c-2.8-0.4-4.3-4.1-3.5-8.3c0.1-0.6,0.3-1.3,0.5-1.8c1-2.6,2.9-4.5,4.9-4.9
			c0.4-0.1,0.8-0.1,1.3,0C631.6,348.1,633,350.5,633.1,353.6z" class="colorfcc0a9 svgShape"></path></g><g fill="#000000" class="color000000 svgShape"><path fill="#0a0a0c" d="M531.7,671.1c0,0,43.6,0,43.6,0s0.1-0.6,0.1-1.6c0.1-1.8,0.2-5.1-0.1-8.1c-0.5-4.6-1.5-5.2-3-7
			c-1.5-1.8-12.1,2.6-17.8,0c0,0-11.5,5.2-16.8,7.2c-3.4,1.3-5.7,4.4-6,7.9C531.7,670.1,531.7,670.6,531.7,671.1z" class="color0a0a0c svgShape"></path></g><g fill="#000000" class="color000000 svgShape"><path fill="#0a0a0c" d="M606.2,669.5c0,0.5,0,1,0.1,1.5c0,0,34.8,0,34.8,0s0.1-0.6,0.1-1.6c0.1-1.8,0.2-5-0.1-8.1c-0.5-4.6-3-7-3-7
			c-2.2-1.2-5.3-1.5-8.3-1.3c-6,0.2-11.5,2.8-15.8,7c-1,1-2.1,1.9-3.5,2.5C607.1,663.9,606.1,666.2,606.2,669.5z" class="color0a0a0c svgShape"></path></g><g fill="#000000" class="color000000 svgShape"><path fill="#3a52aa" d="M612.3,536.2c0.1-0.1,28.7,20.5,28.7,20.5c2.7,3.9,4.3,9.1,5,15.2c0,0,1.8,8.2,1.4,19.2
			c-0.3,8.3-4.6,33.4-4,54.4c0.3,8.2-2.5,14.5-2.5,14.5s-6,0.7-21.8-3.9c-2.2-19.2-11.6-96.4-11.6-96.4
			C606,551.6,607.8,543.2,612.3,536.2z" class="colora1aa3a svgShape"></path></g><g fill="#000000" class="color000000 svgShape"><polygon fill="#ffffff" points="673.8 494.1 586.8 517.5 594.2 547.1 679.1 547.2 683.8 513.1" class="colorffffff svgShape"></polygon></g><g fill="#000000" class="color000000 svgShape"><path d="M679.3,547.4c-0.1,0-85.2-0.1-85.2-0.1l-7.5-29.8c0.1,0,87.4-23.5,87.4-23.5l10,19.2C684,513.1,679.3,547.4,679.3,547.4z
			 M594.4,546.9L679,547l4.6-33.9l-9.9-18.9L587,517.6L594.4,546.9z" fill="#000000" class="color000000 svgShape"></path></g><g fill="#000000" class="color000000 svgShape"><path fill="#3a52aa" d="M696.1,520.6c0,11.5-7.9,19.1-7.9,19.1h-45.9c0,0-38.5,10.7-67.2,10.7l-28.4-28c0,0,8.7-9.3,56.9-18.8
			c3-0.6,6.1-1.2,9.4-1.8c2.9-0.5,5.4-2.3,6.8-4.8c0.5-0.9,0.9-1.8,1.1-2.8c0,0,69.4,0,69.4,0S693.7,504.5,696.1,520.6z" class="colora1aa3a svgShape"></path></g><g fill="#000000" class="color000000 svgShape"><path fill="#ffffff" d="M554.1,649.2c0.3,3.3,1,10.5,1,10.5l17.3-5.2c0-1.6,0-3.2,0.1-4.8C568.2,649.9,562,650,554.1,649.2z" class="colorffffff svgShape"></path></g><g fill="#000000" class="color000000 svgShape"><path d="M555,659.9c0-0.3-0.7-7.3-1-10.6c8.3,0.6,14.6,0.5,18.5,0.3c0.1,1.8,0.1,3.4,0.1,4.9C572.5,654.6,555,659.9,555,659.9z
			 M554.2,649.4c0.3,3.1,0.9,8.9,1,10.1l17-5.1c0-1.5,0-3,0.1-4.5C568.4,650.1,562.2,650.2,554.2,649.4z" fill="#000000" class="color000000 svgShape"></path></g><g fill="#000000" class="color000000 svgShape"><path fill="#3a52aa" d="M582.8,561.8c-0.8,23.2-7.8,66.6-5.3,87.5c1,8-1.3,11.7-1.3,11.7s-19,4.2-26.8-4.2
			c-2.2-19.2-7.6-110.7-7.6-110.7c-1.3-8.2,0.4-16.6,4.9-23.6c0.1-0.1,35.1,25.5,35.1,25.5C582.7,550.4,583,555.3,582.8,561.8z" class="colora1aa3a svgShape"></path></g><g fill="#000000" class="color000000 svgShape"><path fill="#a9d2fc" d="M533.5,461.2c0,0,6.3,2.5,11.1,2.7c3.2-2.9-5.5-6.4-5.5-6.4L533.5,461.2z" class="colorfcc0a9 svgShape"></path></g><g fill="#000000" class="color000000 svgShape"><path fill="#a9d2fc" d="M538.8,455l-16,3.8c-0.3,0.1-0.5,0.4-0.3,0.7c0.3,0.8,1.1,1.2,1.9,1.1l13.4-2L538.8,455z" class="colorfcc0a9 svgShape"></path></g><g fill="#000000" class="color000000 svgShape"><path fill="#a9d2fc" d="M536.5,456.3l-7.8,3.2l-3.6,3c0.5,1,1.4,1.2,2.1,0.8l3.1-1.7L536.5,456.3z" class="colorfcc0a9 svgShape"></path></g><g fill="#000000" class="color000000 svgShape"><path fill="#a9d2fc" d="M590,450.1c-23.2,0-17.1,3.7-38.4,4.3c0,0-6.9-0.2-12.5,0.5c-4.6,2.5-10,5.9-10,5.9l-1.8,4.1
			c-0.1,0.2,0.1,0.5,0.3,0.5c1.1-0.1,2.1-0.7,2.7-1.6l1.3-1.9l7.5-2.5c0,0,0.8,6.3,9.8,4.1c0,0,21.3,2.9,33,2.1L590,450.1z" class="colorfcc0a9 svgShape"></path></g><g fill="#000000" class="color000000 svgShape"><path fill="#a9d2fc" d="M615,419.2c0,8.5-5.7,17.5-11.9,25.9c-3.1,4.2-6.3,8.3-9,12.2c-1.4,2-4.2,5.9-8.2,7.6c-2.2,1-4.8,1.2-7.6,0
			c-4.1-1.7-5-9.2-3.5-13.4c1.9-5.2,3.8-10.4,5.7-15.5c0.6-1.6,1.2-3.2,1.8-4.8c2.7-7.1,5.3-13.8,7.3-19.7
			c5.7-10.6,15.7-22.3,15.7-22.3S615,404.5,615,419.2z" class="colorfcc0a9 svgShape"></path></g><g fill="#000000" class="color000000 svgShape"><path fill="#2650ed" d="M695.1,507.2c-39.1,22.4-79.8-6.2-79.8-6.2s6.2-21.9,3.8-40.3c-2.5-18.4-13.7-29.1-13.7-29.1s1-34.7,1-43.7
			c0,0,9.8-3.7,22.8-6.1c0.9-0.2,1.7-0.3,2.5-0.4c6.2-1,12.3-1.4,17.7-1.6c7.4-0.3,14.7,1.6,21,5.5c6.6,4.1,11.2,9.9,13.5,16.7
			c5.3,11.4,7.2,61.3,7.8,82.3c0.2,5.9,0.9,11.7,2.2,17.5C694.2,503.3,694.6,505.1,695.1,507.2z" class="colored3b26 svgShape"></path></g><g fill="#000000" class="color000000 svgShape"><path fill="#2650ed" d="M616.2,421.2c-1.9,7.1-5.9,15.7-8.2,20.6c-1.1,2.4-1.9,3.8-1.9,3.8s-11.4-1.6-18.8-7.9c-2.1-1.8-3.9-4-5-6.7
			c0.3-1.5,0.6-3.1,1-4.6c6-22.8,22.8-38.3,23.1-38.5C620.7,398.9,619.1,410.8,616.2,421.2z" class="colored3b26 svgShape"></path></g><g fill="#000000" class="color000000 svgShape"><path fill="#0036ff" d="M568.8,550.5c-14.5-13-17.3-27.8-17.2-37.9c0.2-10.9,3.8-18.7,4-19l8,3.8l-4-1.9l4,1.9
			c0,0.1-3.1,6.7-3.2,15.7c-0.1,11.8,4.7,22.2,14.2,30.8L568.8,550.5z" class="colorffa400 svgShape"></path></g><g fill="#000000" class="color000000 svgShape"><path fill="#0036ff" d="M660.2,548.2c0.2,1.9,0.1,4-0.5,6.4c-1.1,4.2-4.9,7.1-9.2,7.1h-96.5c-5.5-10.1,1.6-22.1,12.8-22.1h84
			C655.5,539.7,659.7,543.4,660.2,548.2z" class="colorffa400 svgShape"></path></g><g fill="#000000" class="color000000 svgShape"><path fill="#0036ff" d="M729.2,548.2c0.2,1.9,0.1,4-0.5,6.4c-1.1,4.2-4.9,7.1-9.2,7.1h-90c-4.5,0-8.5-3.2-9.4-7.7
			c-0.3-1.6-0.5-3.4-0.4-5.3c0.2-5.1,4.5-9.1,9.5-9.1h90.5C724.6,539.7,728.7,543.4,729.2,548.2z" class="colorffa400 svgShape"></path></g><g fill="#000000" class="color000000 svgShape"><path fill="#92bde8" d="M683.6,664.1c0,3.9,3.2,7,7,7c3.9,0,7.1-3.2,7.1-7c0-3.9-3.2-7-7.1-7C686.8,657,683.6,660.2,683.6,664.1z" class="color92e8bd svgShape"></path></g><g fill="#000000" class="color000000 svgShape"><path fill="#92bde8" d="M617.2,664.1c0,3.9,3.2,7,7.1,7c3.9,0,7-3.2,7-7c0-3.9-3.2-7-7-7C620.3,657,617.2,660.2,617.2,664.1z" class="color92e8bd svgShape"></path></g><g fill="#000000" class="color000000 svgShape"><rect width="9.2" height="69.4" x="652.6" y="561.8" fill="#92bde8" class="color92e8bd svgShape"></rect></g><g fill="#000000" class="color000000 svgShape"><path fill="#0575e6" d="M649.5,654.5H665v-23.1c0-0.1-0.1-0.2-0.2-0.2h-15.1c-0.1,0-0.2,0.1-0.2,0.2V654.5z" class="color70c09e svgShape"></path></g><g fill="#000000" class="color000000 svgShape"><path fill="#0575e6" d="M615.5,664.1H699c0-5.3-4.3-9.6-9.6-9.6h-64.3C619.8,654.5,615.5,658.8,615.5,664.1L615.5,664.1z" class="color70c09e svgShape"></path></g><g fill="#000000" class="color000000 svgShape"><path fill="#0575e6" d="M652,626.8h10.5c0,0,0.1,0,0.1,0.1v4.3h-10.7L652,626.8C651.9,626.8,651.9,626.8,652,626.8z" class="color70c09e svgShape"></path></g><g fill="#000000" class="color000000 svgShape"><path fill="#0036ff" d="M613.2,539.6c0,0,24.3-29.1,20.6-129.4c-0.2-6.1,3.3-11.6,9-13.9c17.5-7,51.1-10.2,68.7,0.5
			c3.8,2.3,6.4,6.3,6.9,10.7c8.9,78.6-11.7,132.2-11.7,132.2L613.2,539.6z" class="colorffa400 svgShape"></path></g><g fill="#000000" class="color000000 svgShape"><path fill="#5aacff" d="M722.4,534.2c-0.6,2-1.1,3.4-1.4,4.4c-0.3,0.8-0.4,1.1-0.4,1.1l-93.4-0.1c0,0,1.3-1.6,3.3-5.4
			c6.5-12.2,20.1-47.3,17.2-124c-0.2-6.1,3.3-11.6,9-13.9c12.3-5,32.7-8,49.8-5.6c7.2,1,13.7,2.9,18.9,6.1c3.8,2.3,6.4,6.3,6.9,10.7
			C739.4,471.4,727.2,518.7,722.4,534.2z" class="colorffc35a svgShape"></path></g><g fill="#000000" class="color000000 svgShape"><path fill="#0036ff" d="M632,499.6h-82.1c-2.3,0-4.2-1.9-4.2-4.2v-0.7c0-5.2,4.2-9.4,9.4-9.4h78.3c2.6,0,4.6,2.4,4,5l-1.3,6.2
			C635.6,498.2,633.9,499.6,632,499.6z" class="colorffa400 svgShape"></path></g><g fill="#000000" class="color000000 svgShape"><path fill="#0575e6" d="M663.7,582.4h-13c-0.1,0-0.3-0.1-0.3-0.3v-20.4H664v20.4C664,582.3,663.9,582.4,663.7,582.4z" class="color70c09e svgShape"></path></g><g fill="#000000" class="color000000 svgShape"><g fill="#000000" class="color000000 svgShape"><path fill="#92bde8" d="M413,212.4v196.2c0,11.4-9.2,20.6-20.6,20.6H136.2c-11.4,0-20.6-9.2-20.6-20.6V212.4
				c0-11.4,9.2-20.6,20.6-20.6h256.2C403.8,191.8,413,201,413,212.4z" class="color92e8bd svgShape"></path></g><g fill="#000000" class="color000000 svgShape"><path fill="#0575e6" d="M413,212.4v23.5H115.6v-23.5c0-11.4,9.2-20.6,20.6-20.6h256.2C403.8,191.8,413,201,413,212.4z" class="color70c09e svgShape"></path></g><g fill="#000000" class="color000000 svgShape"><g fill="#000000" class="color000000 svgShape"><rect width="25.1" height="20.7" x="153.9" y="274.5" fill="#ffffff" class="colorffffff svgShape"></rect></g><g fill="#000000" class="color000000 svgShape"><rect width="25.1" height="20.7" x="186.5" y="274.5" fill="#ffffff" class="colorffffff svgShape"></rect></g><g fill="#000000" class="color000000 svgShape"><rect width="25.1" height="20.7" x="219.1" y="274.5" fill="#ffffff" class="colorffffff svgShape"></rect></g><g fill="#000000" class="color000000 svgShape"><rect width="25.1" height="20.7" x="251.8" y="274.5" fill="#ffffff" class="colorffffff svgShape"></rect></g><g fill="#000000" class="color000000 svgShape"><rect width="25.1" height="20.7" x="284.4" y="274.5" fill="#ffffff" class="colorffffff svgShape"></rect></g><g fill="#000000" class="color000000 svgShape"><rect width="25.1" height="20.7" x="317" y="274.5" fill="#ffffff" class="colorffffff svgShape"></rect></g><g fill="#000000" class="color000000 svgShape"><rect width="25.1" height="20.7" x="349.6" y="274.5" fill="#ffffff" class="colorffffff svgShape"></rect></g><g fill="#000000" class="color000000 svgShape"><rect width="25.1" height="20.7" x="153.9" y="302.5" fill="#ffffff" class="colorffffff svgShape"></rect></g><g fill="#000000" class="color000000 svgShape"><rect width="25.1" height="20.7" x="186.5" y="302.5" fill="#ffffff" class="colorffffff svgShape"></rect></g><g fill="#000000" class="color000000 svgShape"><rect width="25.1" height="20.7" x="219.1" y="302.5" fill="#ffffff" class="colorffffff svgShape"></rect></g><g fill="#000000" class="color000000 svgShape"><rect width="25.1" height="20.7" x="251.8" y="302.5" fill="#ffffff" class="colorffffff svgShape"></rect></g><g fill="#000000" class="color000000 svgShape"><rect width="25.1" height="20.7" x="284.4" y="302.5" fill="#ffffff" class="colorffffff svgShape"></rect></g><g fill="#000000" class="color000000 svgShape"><rect width="25.1" height="20.7" x="317" y="302.5" fill="#ffffff" class="colorffffff svgShape"></rect></g><g fill="#000000" class="color000000 svgShape"><rect width="25.1" height="20.7" x="349.6" y="302.5" fill="#ffffff" class="colorffffff svgShape"></rect></g><g fill="#000000" class="color000000 svgShape"><rect width="25.1" height="20.7" x="153.9" y="330.5" fill="#ffffff" class="colorffffff svgShape"></rect></g><g fill="#000000" class="color000000 svgShape"><rect width="25.1" height="20.7" x="186.5" y="330.5" fill="#ffffff" class="colorffffff svgShape"></rect></g><g fill="#000000" class="color000000 svgShape"><rect width="25.1" height="20.7" x="219.1" y="330.5" fill="#ffffff" class="colorffffff svgShape"></rect></g><g fill="#000000" class="color000000 svgShape"><rect width="25.1" height="20.7" x="251.8" y="330.5" fill="#ffffff" class="colorffffff svgShape"></rect></g><g fill="#000000" class="color000000 svgShape"><rect width="25.1" height="20.7" x="284.4" y="330.5" fill="#ffffff" class="colorffffff svgShape"></rect></g><g fill="#000000" class="color000000 svgShape"><rect width="25.1" height="20.7" x="317" y="330.5" fill="#ffffff" class="colorffffff svgShape"></rect></g><g fill="#000000" class="color000000 svgShape"><rect width="25.1" height="20.7" x="349.6" y="330.5" fill="#ffffff" class="colorffffff svgShape"></rect></g><g fill="#000000" class="color000000 svgShape"><rect width="25.1" height="20.7" x="153.9" y="358.5" fill="#ffffff" class="colorffffff svgShape"></rect></g><g fill="#000000" class="color000000 svgShape"><rect width="25.1" height="20.7" x="186.5" y="358.5" fill="#ffffff" class="colorffffff svgShape"></rect></g><g fill="#000000" class="color000000 svgShape"><rect width="25.1" height="20.7" x="219.1" y="358.5" fill="#ffffff" class="colorffffff svgShape"></rect></g><g fill="#000000" class="color000000 svgShape"><rect width="25.1" height="20.7" x="251.8" y="358.5" fill="#ffffff" class="colorffffff svgShape"></rect></g><g fill="#000000" class="color000000 svgShape"><rect width="25.1" height="20.7" x="284.4" y="358.5" fill="#ffffff" class="colorffffff svgShape"></rect></g><g fill="#000000" class="color000000 svgShape"><rect width="25.1" height="20.7" x="317" y="358.5" fill="#ffffff" class="colorffffff svgShape"></rect></g><g fill="#000000" class="color000000 svgShape"><rect width="25.1" height="20.7" x="349.6" y="358.5" fill="#ffffff" class="colorffffff svgShape"></rect></g></g><g fill="#000000" class="color000000 svgShape"><g fill="#000000" class="color000000 svgShape"><g fill="#000000" class="color000000 svgShape"><path fill="#92bde8" d="M152.5,202.2c0,3.1-2.5,5.7-5.7,5.7c-3.1,0-5.7-2.5-5.7-5.7c0-3.1,2.5-5.7,5.7-5.7
						C150,196.5,152.5,199,152.5,202.2z" class="color92e8bd svgShape"></path></g><g fill="#000000" class="color000000 svgShape"><path fill="#5aacff" d="M149.2,202.2h-4.6c-0.2,0-0.3-0.1-0.3-0.3v-22.7c0-0.2,0.1-0.3,0.3-0.3h4.6c0.2,0,0.3,0.1,0.3,0.3v22.7
						C149.5,202,149.3,202.2,149.2,202.2z" class="colorffc35a svgShape"></path></g></g><g fill="#000000" class="color000000 svgShape"><g fill="#000000" class="color000000 svgShape"><circle cx="180.4" cy="202.2" r="5.7" fill="#92bde8" class="color92e8bd svgShape"></circle></g><g fill="#000000" class="color000000 svgShape"><path fill="#5aacff" d="M182.7,202.2h-4.6c-0.2,0-0.3-0.1-0.3-0.3v-22.7c0-0.2,0.1-0.3,0.3-0.3h4.6c0.2,0,0.3,0.1,0.3,0.3v22.7
						C183,202,182.9,202.2,182.7,202.2z" class="colorffc35a svgShape"></path></g></g><g fill="#000000" class="color000000 svgShape"><g fill="#000000" class="color000000 svgShape"><path fill="#92bde8" d="M219.6,202.2c0,3.1-2.5,5.7-5.7,5.7c-3.1,0-5.7-2.5-5.7-5.7c0-3.1,2.5-5.7,5.7-5.7
						C217.1,196.5,219.6,199,219.6,202.2z" class="color92e8bd svgShape"></path></g><g fill="#000000" class="color000000 svgShape"><path fill="#5aacff" d="M216.3,202.2h-4.6c-0.2,0-0.3-0.1-0.3-0.3v-22.7c0-0.2,0.1-0.3,0.3-0.3h4.6c0.2,0,0.3,0.1,0.3,0.3v22.7
						C216.6,202,216.4,202.2,216.3,202.2z" class="colorffc35a svgShape"></path></g></g><g fill="#000000" class="color000000 svgShape"><g fill="#000000" class="color000000 svgShape"><circle cx="247.5" cy="202.2" r="5.7" fill="#92bde8" class="color92e8bd svgShape"></circle></g><g fill="#000000" class="color000000 svgShape"><path fill="#5aacff" d="M249.8,202.2h-4.6c-0.2,0-0.3-0.1-0.3-0.3v-22.7c0-0.2,0.1-0.3,0.3-0.3h4.6c0.2,0,0.3,0.1,0.3,0.3v22.7
						C250.1,202,250,202.2,249.8,202.2z" class="colorffc35a svgShape"></path></g></g><g fill="#000000" class="color000000 svgShape"><g fill="#000000" class="color000000 svgShape"><path fill="#92bde8" d="M286.7,202.2c0,3.1-2.5,5.7-5.7,5.7s-5.7-2.5-5.7-5.7c0-3.1,2.5-5.7,5.7-5.7S286.7,199,286.7,202.2z" class="color92e8bd svgShape"></path></g><g fill="#000000" class="color000000 svgShape"><path fill="#5aacff" d="M283.3,202.2h-4.6c-0.2,0-0.3-0.1-0.3-0.3v-22.7c0-0.2,0.1-0.3,0.3-0.3h4.6c0.2,0,0.3,0.1,0.3,0.3v22.7
						C283.6,202,283.5,202.2,283.3,202.2z" class="colorffc35a svgShape"></path></g></g><g fill="#000000" class="color000000 svgShape"><g fill="#000000" class="color000000 svgShape"><circle cx="314.6" cy="202.2" r="5.7" fill="#92bde8" class="color92e8bd svgShape"></circle></g><g fill="#000000" class="color000000 svgShape"><path fill="#5aacff" d="M316.9,202.2h-4.6c-0.2,0-0.3-0.1-0.3-0.3v-22.7c0-0.2,0.1-0.3,0.3-0.3h4.6c0.2,0,0.3,0.1,0.3,0.3v22.7
						C317.2,202,317.1,202.2,316.9,202.2z" class="colorffc35a svgShape"></path></g></g><g fill="#000000" class="color000000 svgShape"><g fill="#000000" class="color000000 svgShape"><path fill="#92bde8" d="M353.8,202.2c0,3.1-2.5,5.7-5.7,5.7s-5.7-2.5-5.7-5.7c0-3.1,2.5-5.7,5.7-5.7S353.8,199,353.8,202.2z" class="color92e8bd svgShape"></path></g><g fill="#000000" class="color000000 svgShape"><path fill="#5aacff" d="M350.4,202.2h-4.6c-0.2,0-0.3-0.1-0.3-0.3v-22.7c0-0.2,0.1-0.3,0.3-0.3h4.6c0.2,0,0.3,0.1,0.3,0.3v22.7
						C350.7,202,350.6,202.2,350.4,202.2z" class="colorffc35a svgShape"></path></g></g><g fill="#000000" class="color000000 svgShape"><g fill="#000000" class="color000000 svgShape"><circle cx="381.7" cy="202.2" r="5.7" fill="#92bde8" class="color92e8bd svgShape"></circle></g><g fill="#000000" class="color000000 svgShape"><path fill="#5aacff" d="M384,202.2h-4.6c-0.2,0-0.3-0.1-0.3-0.3v-22.7c0-0.2,0.1-0.3,0.3-0.3h4.6c0.2,0,0.3,0.1,0.3,0.3v22.7
						C384.3,202,384.1,202.2,384,202.2z" class="colorffc35a svgShape"></path></g></g></g><g fill="#000000" class="color000000 svgShape"><path fill="#ffffff" d="M210.1,401.2h-56.6c-0.2,0-0.3-0.1-0.3-0.3v-4.4c0-0.2,0.1-0.3,0.3-0.3h56.6c0.2,0,0.3,0.1,0.3,0.3v4.4
				C210.4,401.1,210.3,401.2,210.1,401.2z" class="colorffffff svgShape"></path></g><g fill="#000000" class="color000000 svgShape"><path fill="#ffffff" d="M284.7,401.2h-56.6c-0.2,0-0.3-0.1-0.3-0.3v-4.4c0-0.2,0.1-0.3,0.3-0.3h56.6c0.2,0,0.3,0.1,0.3,0.3v4.4
				C285,401.1,284.9,401.2,284.7,401.2z" class="colorffffff svgShape"></path></g><g fill="#000000" class="color000000 svgShape"><path fill="#ffffff" d="M303.1,258.5h-77.6c-0.3,0-0.6-0.3-0.6-0.6v-9.1c0-0.3,0.3-0.6,0.6-0.6h77.6c0.3,0,0.6,0.3,0.6,0.6v9.1
				C303.7,258.3,303.4,258.5,303.1,258.5z" class="colorffffff svgShape"></path></g></g></g></svg>