<svg width="40" height="39" viewBox="0 0 40 39" fill="none" xmlns="http://www.w3.org/2000/svg">
<path d="M16.5843 15.7359L19.1823 10.5039C19.2579 10.3525 19.3742 10.2252 19.5182 10.1362C19.6622 10.0471 19.8281 10 19.9973 10C20.1666 10 20.3325 10.0471 20.4764 10.1362C20.6204 10.2252 20.7367 10.3525 20.8123 10.5039L23.4103 15.7359L29.2183 16.5799C29.3858 16.6032 29.5435 16.673 29.6732 16.7816C29.8029 16.8901 29.8995 17.0329 29.952 17.1937C30.0044 17.3545 30.0106 17.5268 29.9698 17.6909C29.929 17.855 29.8429 18.0044 29.7213 18.1219L25.5193 22.1919L26.5113 27.9419C26.6383 28.6799 25.8583 29.2419 25.1913 28.8939L19.9973 26.1779L14.8023 28.8939C14.1363 29.2429 13.3563 28.6799 13.4833 27.9409L14.4753 22.1909L10.2733 18.1209C10.1523 18.0033 10.0667 17.8541 10.0263 17.6903C9.98584 17.5264 9.99218 17.3545 10.0446 17.1941C10.097 17.0337 10.1933 16.8912 10.3227 16.7828C10.452 16.6744 10.6092 16.6045 10.7763 16.5809L16.5843 15.7359Z" fill="url(#paint0_linear_11130_37859)" stroke="url(#paint1_linear_11130_37859)" stroke-width="1.5" stroke-linecap="round" stroke-linejoin="round"/>
<defs>
<linearGradient id="paint0_linear_11130_37859" x1="10" y1="24.82" x2="29.6274" y2="15.3179" gradientUnits="userSpaceOnUse">
<stop stop-color="#0575E6"/>
<stop offset="1" stop-color="#021B79"/>
</linearGradient>
<linearGradient id="paint1_linear_11130_37859" x1="10" y1="24.82" x2="29.6274" y2="15.3179" gradientUnits="userSpaceOnUse">
<stop stop-color="#0575E6"/>
<stop offset="1" stop-color="#021B79"/>
</linearGradient>
</defs>
</svg>
