<svg width="22" height="21" viewBox="0 0 22 21" fill="none" xmlns="http://www.w3.org/2000/svg">
<path d="M7.58431 6.73594L10.1823 1.50394C10.2579 1.35253 10.3742 1.22517 10.5182 1.13616C10.6622 1.04715 10.8281 1 10.9973 1C11.1666 1 11.3325 1.04715 11.4764 1.13616C11.6204 1.22517 11.7367 1.35253 11.8123 1.50394L14.4103 6.73594L20.2183 7.57994C20.3858 7.60317 20.5435 7.67303 20.6732 7.78155C20.8029 7.89007 20.8995 8.03288 20.952 8.19367C21.0044 8.35446 21.0106 8.52676 20.9698 8.69089C20.929 8.85503 20.8429 9.0044 20.7213 9.12194L16.5193 13.1919L17.5113 18.9419C17.6383 19.6799 16.8583 20.2419 16.1913 19.8939L10.9973 17.1779L5.80231 19.8939C5.13631 20.2429 4.35631 19.6799 4.48331 18.9409L5.47531 13.1909L1.27331 9.12094C1.15229 9.00332 1.06671 8.8541 1.02627 8.69026C0.985838 8.52641 0.99218 8.35451 1.04458 8.19409C1.09697 8.03367 1.19332 7.89116 1.32268 7.78277C1.45203 7.67439 1.60919 7.60446 1.77631 7.58094L7.58431 6.73594Z" stroke="url(#paint0_linear_11134_120720)" stroke-width="1.5" stroke-linecap="round" stroke-linejoin="round"/>
<defs>
<linearGradient id="paint0_linear_11134_120720" x1="1" y1="15.82" x2="20.6274" y2="6.31785" gradientUnits="userSpaceOnUse">
<stop stop-color="#0575E6"/>
<stop offset="1" stop-color="#021B79"/>
</linearGradient>
</defs>
</svg>
