<svg width="253" height="260" viewBox="0 0 253 260" fill="none" xmlns="http://www.w3.org/2000/svg">
<path d="M119.953 259.999C186.201 259.999 239.905 257.853 239.905 255.205C239.905 252.557 186.201 250.41 119.953 250.41C53.7046 250.41 0 252.557 0 255.205C0 257.853 53.7046 259.999 119.953 259.999Z" fill="#EEEEEE"/>
<path d="M124.68 65.9077L125.755 63.9246C126.09 63.4399 126.204 62.8317 126.072 62.2589L125.517 59.7734C125.411 59.3063 125.702 58.8304 126.169 58.7158C126.557 58.6189 126.954 58.7951 127.156 59.1389L128.284 61.1043C128.584 61.6243 129.28 61.7653 129.756 61.404L134.595 57.7111C134.974 57.4202 135.512 57.4907 135.811 57.8609C136.102 58.2223 136.067 58.7511 135.714 59.0684L133.176 61.3599L136.049 58.7863C136.463 58.4162 137.116 58.4778 137.451 58.9185C137.759 59.3239 137.697 59.8968 137.31 60.2229L132.982 63.9246L136.411 60.9456C136.807 60.6019 137.415 60.646 137.759 61.0514C138.094 61.4568 138.041 62.0562 137.636 62.3911L132.947 66.2778L136.481 63.3253C136.878 62.9992 137.459 63.0433 137.803 63.4311C138.129 63.8101 138.103 64.3741 137.75 64.7267C135.08 67.3619 132.312 69.5124 128.663 71.9273L124.68 65.9077Z" fill="#9BC9F7"/>
<path d="M47.0513 234.559L38.0547 234.125L37.3931 247.849L46.3897 248.283L47.0513 234.559Z" fill="#9BC9F7"/>
<path d="M37.6449 249.961L36.1906 251.644L35.794 252.2C35.5649 252.517 35.4326 252.905 35.415 253.292L35.3445 254.826C35.3269 255.205 35.6177 255.531 35.9967 255.549L37.6977 255.628L37.7154 255.196L38.6408 255.24L38.6232 255.672L40.6679 255.813L40.6855 255.461L41.6462 255.505L41.6286 255.892L43.9201 255.989L45.1628 254.553C46.9608 255.17 48.5737 255.901 49.9398 256.774C50.0015 256.827 52.3194 256.95 52.3282 256.888L52.3459 256.545L53.2449 256.589L53.2272 256.932C53.9676 257.021 54.7079 257.056 55.4306 257.038L55.4482 256.677L56.3296 256.721L56.312 257.012C57.0876 257.047 57.775 256.994 58.3655 256.853L58.3832 256.571L59.2733 256.501L59.2645 256.756C59.7845 256.712 60.2693 256.589 60.7364 256.43L60.7011 256.139L61.5032 255.848L61.653 256.139C62.5255 255.831 63.3188 255.505 64.0062 255.143C64.0062 255.143 64.2089 253.98 63.4862 253.883L54.2232 252.411L42.3425 250.19L37.6449 249.961Z" fill="#021B79"/>
<path d="M35.9383 249.036C35.9118 249.609 35.9471 250.181 36.0352 250.754L36.1851 251.644C39.7722 251.75 43.0949 252.182 46.0386 253.081C46.6468 253.266 47.2461 253.469 47.819 253.698C52.7634 255.681 57.9986 255.655 63.4718 253.883L63.5159 253.046C63.5423 252.429 63.1369 251.865 62.5288 251.715L58.5803 250.71C57.8752 250.534 57.1701 250.375 56.4651 250.208C54.482 249.741 52.6664 248.859 51.0007 247.608C50.9125 247.537 50.8156 247.467 50.7274 247.396C50.6746 247.352 50.6217 247.317 50.5688 247.273C50.419 248.137 49.5288 249.168 49.4847 249.221C49.4583 249.247 49.4142 249.265 49.379 249.256C49.3613 249.256 49.3437 249.247 49.3261 249.23C49.282 249.186 49.2732 249.115 49.3173 249.071C49.6346 248.71 50.322 247.767 50.3661 247.097C50.3308 247.07 50.2868 247.035 50.2515 247.009C49.5552 246.779 48.3742 247 47.8807 247.132C47.819 247.15 47.7573 247.114 47.7396 247.053C47.722 246.991 47.7573 246.929 47.819 246.912C47.8895 246.894 49.0088 246.594 49.899 246.7C49.7668 246.586 49.6346 246.462 49.5023 246.339C49.423 246.259 49.3349 246.18 49.2556 246.101C49.0793 245.933 48.903 245.757 48.7268 245.572C48.6562 245.501 48.5857 245.431 48.5152 245.352C48.2596 245.078 48.0129 244.805 47.7661 244.514C47.202 244.532 46.4617 244.885 46.1532 245.07C46.1003 245.105 46.0298 245.087 46.0034 245.034C45.9681 244.981 45.9857 244.911 46.0386 244.885C46.0827 244.858 46.8759 244.4 47.5898 244.312C47.4929 244.197 47.3959 244.074 47.299 243.959C47.1403 243.765 46.9112 243.633 46.6556 243.615L37.3837 242.822C37.04 242.796 36.7491 243.06 36.7491 243.395L36.7315 244.488C36.7139 245.299 36.5817 246.11 36.3261 246.876C36.1057 247.59 35.9735 248.313 35.9383 249.036Z" fill="#58595B"/>
<path d="M49.3321 249.239C49.3497 249.256 49.3674 249.265 49.385 249.265C49.4203 249.274 49.4643 249.256 49.4908 249.23C49.5348 249.177 50.425 248.146 50.5748 247.282C50.5043 247.229 50.4338 247.176 50.3721 247.114C50.328 247.775 49.6318 248.719 49.3233 249.089C49.2792 249.124 49.288 249.194 49.3321 249.239ZM47.7545 247.062C47.7721 247.123 47.8338 247.159 47.8955 247.141C48.3891 247.009 49.5789 246.788 50.2664 247.018C50.1518 246.921 50.0372 246.815 49.9226 246.718C49.0325 246.612 47.9043 246.912 47.8426 246.929C47.7721 246.938 47.7369 247 47.7545 247.062Z" fill="#1F2023"/>
<path d="M46.0183 245.052C46.0536 245.105 46.1153 245.122 46.1682 245.087C46.4766 244.902 47.217 244.549 47.7811 244.532C47.7194 244.461 47.6665 244.391 47.6048 244.32C46.8909 244.408 46.1065 244.867 46.0536 244.893C46.0007 244.928 45.9831 244.999 46.0183 245.052Z" fill="#303030"/>
<path d="M35.9383 249.036C35.9118 249.609 35.9471 250.181 36.0352 250.754L36.1851 251.644C39.7722 251.75 43.0949 252.182 46.0386 253.081L50.7891 250.129C51.0624 249.961 51.1329 249.591 50.939 249.335L46.6644 243.633L37.3925 242.84C37.0488 242.813 36.7579 243.078 36.7579 243.413L36.7403 244.505C36.7227 245.316 36.5905 246.127 36.3349 246.894C36.1057 247.59 35.9735 248.313 35.9383 249.036Z" fill="#404042"/>
<path d="M46.4768 244.039L46.5561 243.978L46.5032 243.907L46.4151 243.898L46.4062 244.004H46.4503L46.4768 244.039Z" fill="#58595B"/>
<path d="M36.4399 251.02L36.5368 251.002L36.5545 251.135L36.4575 251.152L36.4399 251.02ZM36.3958 250.756L36.4928 250.738L36.5104 250.87L36.4135 250.888L36.3958 250.756ZM36.3518 250.482L36.4487 250.465C36.4575 250.509 36.4575 250.553 36.4663 250.597L36.3694 250.615C36.3694 250.579 36.3606 250.535 36.3518 250.482ZM36.3165 250.218L36.4135 250.209C36.4223 250.253 36.4223 250.297 36.4311 250.341L36.3341 250.35C36.3253 250.306 36.3253 250.262 36.3165 250.218ZM36.2989 249.945L36.3958 249.936C36.3958 249.98 36.4046 250.024 36.4046 250.068L36.3077 250.077C36.2989 250.042 36.2989 249.998 36.2989 249.945ZM36.2812 249.68H36.3782C36.3782 249.724 36.3782 249.768 36.387 249.812L36.2901 249.821C36.2813 249.768 36.2812 249.724 36.2812 249.68ZM36.2812 249.407H36.3782C36.3782 249.451 36.3782 249.495 36.3782 249.539H36.2812C36.2812 249.495 36.2812 249.451 36.2812 249.407ZM36.2812 249.134H36.3782C36.3782 249.178 36.3782 249.222 36.3782 249.266H36.2812C36.2812 249.231 36.2812 249.187 36.2812 249.134ZM36.2901 249.002C36.2901 248.958 36.2989 248.914 36.2989 248.869L36.3958 248.878C36.3958 248.922 36.387 248.966 36.387 249.01L36.2901 249.002ZM36.3077 248.737C36.3077 248.693 36.3165 248.649 36.3165 248.605L36.4135 248.614C36.4046 248.658 36.4046 248.702 36.4046 248.746L36.3077 248.737ZM36.3341 248.464C36.3429 248.42 36.3429 248.376 36.3518 248.332L36.4487 248.349C36.4399 248.394 36.4399 248.438 36.4311 248.482L36.3341 248.464ZM36.3694 248.2C36.3782 248.156 36.387 248.111 36.3958 248.067L36.4928 248.085C36.484 248.129 36.4751 248.173 36.4751 248.217L36.3694 248.2ZM36.4223 247.926C36.4311 247.882 36.4399 247.838 36.4487 247.794L36.5457 247.812C36.5368 247.856 36.528 247.9 36.5192 247.944L36.4223 247.926ZM36.4751 247.662C36.484 247.618 36.4928 247.574 36.5104 247.53L36.6074 247.556C36.5985 247.6 36.5897 247.644 36.5809 247.688L36.4751 247.662ZM36.5368 247.406C36.5457 247.362 36.5633 247.318 36.5721 247.274L36.669 247.301C36.6602 247.345 36.6426 247.389 36.6338 247.433L36.5368 247.406ZM36.6162 247.142C36.625 247.098 36.6426 247.054 36.6602 247.01L36.7572 247.045C36.7396 247.089 36.7307 247.133 36.7131 247.168L36.6162 247.142ZM36.6955 246.886C36.7131 246.842 36.7219 246.798 36.7307 246.763L36.8277 246.789C36.8189 246.834 36.8013 246.878 36.7924 246.922L36.6955 246.886ZM36.766 246.631C36.7748 246.587 36.7924 246.543 36.8013 246.499L36.8982 246.525C36.8894 246.569 36.8718 246.613 36.8629 246.657L36.766 246.631ZM36.8365 246.375C36.8453 246.331 36.8541 246.287 36.8629 246.243L36.9599 246.261C36.9511 246.305 36.9423 246.349 36.9246 246.393L36.8365 246.375ZM36.8982 246.111C36.907 246.067 36.9158 246.023 36.9246 245.979L37.0216 245.996C37.0128 246.04 37.004 246.084 36.9951 246.128L36.8982 246.111ZM36.9423 245.846C36.9511 245.802 36.9599 245.758 36.9599 245.714L37.0568 245.732C37.048 245.776 37.0392 245.82 37.0304 245.864L36.9423 245.846ZM36.9863 245.582C36.9951 245.538 36.9951 245.494 37.004 245.45L37.1009 245.459C37.0921 245.503 37.0921 245.547 37.0833 245.591L36.9863 245.582ZM37.0216 245.318C37.0304 245.274 37.0304 245.229 37.0392 245.185L37.1362 245.194C37.1362 245.238 37.1274 245.282 37.1185 245.326L37.0216 245.318ZM37.048 245.053C37.048 245.009 37.0568 244.965 37.0568 244.921L37.1538 244.93C37.1538 244.974 37.145 245.018 37.145 245.062L37.048 245.053ZM37.0657 244.657H37.1626C37.1626 244.701 37.1626 244.745 37.1538 244.789H37.0568C37.0657 244.745 37.0657 244.701 37.0657 244.657ZM37.0745 244.383H37.1714V244.516H37.0745V244.383ZM37.0745 244.119H37.1714V244.251H37.0745V244.119ZM37.0833 243.846H37.1802V243.978H37.0833V243.846ZM37.0833 243.581H37.1802V243.714H37.0833V243.581ZM46.126 243.978L46.1348 243.881L46.267 243.89L46.2582 243.987L46.126 243.978ZM45.8616 243.951L45.8704 243.855L46.0026 243.863L45.9938 243.96L45.8616 243.951ZM45.5884 243.934L45.5972 243.837L45.7294 243.846L45.7206 243.943L45.5884 243.934ZM45.324 243.907L45.3328 243.81L45.465 243.819L45.4562 243.916L45.324 243.907ZM45.0596 243.89L45.0684 243.793L45.2006 243.802L45.1918 243.899L45.0596 243.89ZM44.7863 243.863L44.7952 243.766L44.9274 243.775L44.9185 243.872L44.7863 243.863ZM44.5219 243.837L44.5307 243.74L44.663 243.749L44.6541 243.846L44.5219 243.837ZM44.2487 243.819L44.2575 243.722L44.3897 243.731L44.3809 243.828L44.2487 243.819ZM43.9843 243.793L43.9931 243.696L44.1253 243.705L44.1165 243.802L43.9843 243.793ZM43.7111 243.775L43.7199 243.678L43.8521 243.687L43.8345 243.784L43.7111 243.775ZM37.0921 243.44C37.1009 243.387 37.1185 243.343 37.1538 243.299L37.2331 243.361C37.2155 243.396 37.1979 243.423 37.189 243.467L37.0921 243.44ZM43.4467 243.749L43.4555 243.652L43.5877 243.661L43.5789 243.758L43.4467 243.749ZM43.1823 243.722L43.1911 243.625L43.3233 243.634L43.3145 243.731L43.1823 243.722ZM42.909 243.705L42.9179 243.608L43.0501 243.617L43.0324 243.714L42.909 243.705ZM42.6446 243.678L42.6535 243.581L42.7857 243.59L42.768 243.687L42.6446 243.678ZM42.3714 243.661L42.3802 243.564L42.5124 243.573L42.4948 243.669L42.3714 243.661ZM42.107 243.634L42.1158 243.537L42.248 243.546L42.2392 243.643L42.107 243.634ZM41.8426 243.617L41.8514 243.52L41.9836 243.528L41.9748 243.625L41.8426 243.617ZM41.5694 243.59L41.5782 243.493L41.7104 243.502L41.7016 243.599L41.5694 243.59ZM41.305 243.564L41.3138 243.467L41.446 243.476L41.4372 243.573L41.305 243.564ZM41.0318 243.546L41.0406 243.449L41.1728 243.458L41.164 243.555L41.0318 243.546ZM40.7674 243.52L40.7762 243.423L40.9084 243.431L40.8996 243.528L40.7674 243.52ZM40.5029 243.502L40.5118 243.405L40.644 243.414L40.6352 243.511L40.5029 243.502ZM40.2297 243.476L40.2385 243.379L40.3707 243.387L40.3619 243.484L40.2297 243.476ZM39.9653 243.449L39.9741 243.352L40.1063 243.361L40.0975 243.458L39.9653 243.449ZM39.6921 243.431L39.7009 243.335L39.8331 243.343L39.8243 243.44L39.6921 243.431ZM39.4277 243.405L39.4365 243.308L39.5687 243.317L39.5599 243.414L39.4277 243.405ZM39.1633 243.387L39.1721 243.29L39.3043 243.299L39.2955 243.396L39.1633 243.387ZM38.8901 243.361L38.8989 243.264L39.0311 243.273L39.0223 243.37L38.8901 243.361ZM38.6257 243.335L38.6345 243.238L38.7667 243.246L38.7579 243.343L38.6257 243.335ZM37.2684 243.194C37.3124 243.167 37.3653 243.149 37.4182 243.141L37.427 243.238C37.3918 243.246 37.3565 243.255 37.3213 243.273L37.2684 243.194ZM38.3524 243.317L38.3613 243.22L38.4935 243.229L38.4846 243.326L38.3524 243.317ZM38.088 243.29L38.0968 243.194L38.229 243.202L38.2202 243.299L38.088 243.29ZM37.8148 243.273L37.8236 243.176L37.9558 243.185L37.947 243.282L37.8148 243.273ZM37.5504 243.246L37.5592 243.149L37.6914 243.158L37.6826 243.255L37.5504 243.246Z" fill="#58595B"/>
<path d="M36.4942 251.371L36.6088 251.38V251.274H36.5823V251.248L36.4766 251.266L36.4942 251.371Z" fill="#58595B"/>
<path d="M45.6263 252.658L45.6527 252.561L45.7761 252.596L45.7496 252.693L45.6263 252.658ZM45.3707 252.588L45.3971 252.491L45.5293 252.526L45.5029 252.623L45.3707 252.588ZM45.1151 252.517L45.1415 252.42L45.2737 252.455L45.2473 252.552L45.1151 252.517ZM44.8595 252.455L44.8859 252.358L45.0181 252.394L44.9917 252.491L44.8595 252.455ZM44.6039 252.385L44.6303 252.288L44.7625 252.323L44.7361 252.42L44.6039 252.385ZM44.3483 252.323L44.3747 252.226L44.5069 252.253L44.4805 252.35L44.3483 252.323ZM44.0927 252.27L44.1103 252.173L44.2425 252.2L44.2161 252.297L44.0927 252.27ZM43.8283 252.209L43.8459 252.112L43.9781 252.138L43.9605 252.235L43.8283 252.209ZM43.5727 252.156L43.5903 252.059L43.7225 252.085L43.7049 252.182L43.5727 252.156ZM43.3171 252.103L43.3347 252.006L43.4669 252.032L43.4493 252.129L43.3171 252.103ZM43.0527 252.05L43.0703 251.953L43.2025 251.979L43.1849 252.076L43.0527 252.05ZM42.7971 252.006L42.8147 251.909L42.9469 251.935L42.9293 252.032L42.7971 252.006ZM42.5327 251.953L42.5503 251.856L42.6825 251.883L42.6649 251.979L42.5327 251.953ZM42.2683 251.909L42.2859 251.812L42.4181 251.83L42.4005 251.927L42.2683 251.909ZM42.0127 251.874L42.0303 251.777L42.1625 251.794L42.1449 251.891L42.0127 251.874ZM41.7483 251.83L41.7659 251.733L41.8981 251.75L41.8805 251.847L41.7483 251.83ZM41.4839 251.794L41.5015 251.697L41.6337 251.715L41.6161 251.812L41.4839 251.794ZM41.2283 251.759L41.2459 251.662L41.3781 251.68L41.3605 251.777L41.2283 251.759ZM40.9639 251.724L40.9727 251.627L41.1049 251.645L41.0961 251.742L40.9639 251.724ZM40.6995 251.689L40.7083 251.592L40.8405 251.609L40.8317 251.706L40.6995 251.689ZM40.4351 251.653L40.4439 251.556L40.5761 251.574L40.5673 251.671L40.4351 251.653ZM40.1707 251.627L40.1795 251.53L40.3117 251.548L40.3029 251.645L40.1707 251.627ZM39.9063 251.6L39.9151 251.504L40.0473 251.521L40.0385 251.618L39.9063 251.6ZM39.6507 251.574L39.6595 251.477L39.7917 251.486L39.7829 251.583L39.6507 251.574ZM39.3863 251.548L39.3951 251.451L39.5273 251.459L39.5185 251.556L39.3863 251.548ZM39.1218 251.53L39.1307 251.433L39.2629 251.442L39.2541 251.539L39.1218 251.53ZM38.8574 251.504L38.8663 251.407L38.9985 251.415L38.9896 251.512L38.8574 251.504ZM38.593 251.486L38.6018 251.389L38.7341 251.398L38.7252 251.495L38.593 251.486ZM38.3286 251.468L38.3374 251.371L38.4696 251.38L38.4608 251.477L38.3286 251.468ZM38.0642 251.451L38.073 251.354L38.2052 251.363L38.1964 251.459L38.0642 251.451ZM37.7998 251.433L37.8086 251.336L37.9408 251.345L37.932 251.442L37.7998 251.433ZM36.7422 251.283L36.8744 251.292V251.389L36.7422 251.38V251.283ZM37.5354 251.415L37.5442 251.318L37.6764 251.327L37.6676 251.424L37.5354 251.415ZM37.0066 251.292L37.1388 251.301L37.13 251.398L36.9978 251.389L37.0066 251.292ZM37.271 251.407L37.2798 251.31L37.412 251.318L37.4032 251.415L37.271 251.407Z" fill="#58595B"/>
<path d="M45.9709 252.755L46.0415 252.711L45.9886 252.623L45.9533 252.649L45.9093 252.632L45.8828 252.729L45.9709 252.755Z" fill="#58595B"/>
<path d="M46.1016 252.552L46.2161 252.481L46.269 252.569L46.1544 252.64L46.1016 252.552ZM46.3307 252.411L46.4453 252.34L46.4982 252.428L46.3836 252.499L46.3307 252.411ZM46.5511 252.279L46.6656 252.208L46.7185 252.296L46.6039 252.367L46.5511 252.279ZM46.7802 252.138L46.8948 252.067L46.9477 252.155L46.8331 252.226L46.7802 252.138ZM47.0005 251.997L47.1151 251.926L47.168 252.014L47.0534 252.085L47.0005 251.997ZM47.2297 251.856L47.3443 251.785L47.3972 251.873L47.2826 251.944L47.2297 251.856ZM47.45 251.715L47.5646 251.644L47.6175 251.732L47.5029 251.803L47.45 251.715ZM47.6792 251.574L47.7938 251.503L47.8466 251.591L47.7321 251.662L47.6792 251.574ZM47.8995 251.433L48.0141 251.362L48.067 251.45L47.9524 251.521L47.8995 251.433ZM48.1287 251.3L48.2433 251.23L48.2961 251.318L48.1816 251.388L48.1287 251.3ZM48.349 251.159L48.4636 251.089L48.5165 251.177L48.4019 251.247L48.349 251.159ZM48.5782 251.018L48.6927 250.948L48.7456 251.036L48.6311 251.106L48.5782 251.018ZM48.7985 250.877L48.9131 250.807L48.966 250.895L48.8514 250.965L48.7985 250.877ZM49.0277 250.736L49.1422 250.666L49.1951 250.754L49.0805 250.824L49.0277 250.736ZM49.2568 250.595L49.3714 250.525L49.4243 250.613L49.3097 250.683L49.2568 250.595ZM49.4772 250.454L49.5917 250.384L49.6446 250.472L49.53 250.542L49.4772 250.454ZM49.7063 250.313L49.8209 250.243L49.8738 250.331L49.7592 250.401L49.7063 250.313ZM49.9266 250.181L50.0412 250.111L50.0941 250.199L49.9795 250.269L49.9266 250.181ZM50.1558 250.04L50.2704 249.969L50.3233 250.058L50.2087 250.128L50.1558 250.04ZM50.3761 249.899L50.4907 249.828L50.5436 249.917L50.429 249.987L50.3761 249.899ZM50.57 249.749C50.5877 249.723 50.5965 249.696 50.6053 249.67C50.6053 249.661 50.6053 249.652 50.6053 249.643L50.7022 249.652C50.7022 249.661 50.7022 249.67 50.7022 249.687C50.6934 249.732 50.6758 249.767 50.6582 249.802L50.57 249.749ZM50.5612 249.494L50.526 249.441L50.6053 249.379L50.6405 249.432C50.6582 249.45 50.667 249.476 50.6846 249.502L50.5965 249.538C50.5789 249.529 50.57 249.511 50.5612 249.494ZM50.3585 249.229L50.4378 249.167L50.5172 249.273L50.4378 249.335L50.3585 249.229ZM50.1999 249.018L50.2792 248.956L50.3585 249.062L50.2792 249.123L50.1999 249.018ZM50.0412 248.806L50.1205 248.744L50.1999 248.85L50.1205 248.912L50.0412 248.806ZM49.8826 248.595L49.9619 248.533L50.0412 248.639L49.9619 248.7L49.8826 248.595ZM49.7239 248.383L49.8033 248.321L49.8826 248.427L49.8033 248.489L49.7239 248.383ZM49.5653 248.172L49.6446 248.11L49.7239 248.216L49.6446 248.277L49.5653 248.172ZM49.4066 247.96L49.486 247.898L49.5653 248.004L49.486 248.066L49.4066 247.96ZM49.248 247.748L49.3273 247.687L49.4066 247.793L49.3273 247.854L49.248 247.748ZM49.0894 247.537L49.1687 247.475L49.248 247.581L49.1687 247.643L49.0894 247.537ZM48.9307 247.325L49.01 247.264L49.0894 247.369L49.01 247.431L48.9307 247.325ZM48.7721 247.114L48.8514 247.052L48.9307 247.158L48.8514 247.22L48.7721 247.114ZM48.6134 246.902L48.6927 246.841L48.7721 246.946L48.6927 247.008L48.6134 246.902ZM48.4548 246.691L48.5341 246.629L48.6134 246.735L48.5341 246.797L48.4548 246.691ZM48.2961 246.479L48.3755 246.418L48.4548 246.523L48.3755 246.585L48.2961 246.479ZM48.1375 246.268L48.2168 246.206L48.2961 246.312L48.2168 246.374L48.1375 246.268ZM47.9789 246.056L48.0582 245.995L48.1375 246.1L48.0582 246.162L47.9789 246.056ZM47.8202 245.845L47.8995 245.783L47.9789 245.889L47.8995 245.951L47.8202 245.845ZM47.6616 245.633L47.7409 245.572L47.8202 245.677L47.7409 245.739L47.6616 245.633ZM47.5029 245.413L47.5822 245.351L47.6616 245.457L47.5822 245.519L47.5029 245.413ZM47.3443 245.201L47.4236 245.14L47.5029 245.245L47.4236 245.307L47.3443 245.201ZM47.1856 244.99L47.265 244.928L47.3443 245.034L47.265 245.096L47.1856 244.99ZM47.027 244.778L47.1063 244.717L47.1856 244.822L47.1063 244.884L47.027 244.778ZM46.8683 244.567L46.9477 244.505L47.027 244.611L46.9477 244.673L46.8683 244.567ZM46.7097 244.355L46.789 244.294L46.8683 244.399L46.789 244.461L46.7097 244.355ZM46.5511 244.144L46.6304 244.082L46.7097 244.188L46.6304 244.25L46.5511 244.144Z" fill="#58595B"/>
<path d="M48.8658 249.054C48.9098 248.772 49.1831 248.587 49.4563 248.631C49.7383 248.675 49.9234 248.949 49.8793 249.222C49.8353 249.504 49.562 249.689 49.2888 249.645C49.0068 249.601 48.8129 249.336 48.8658 249.054ZM49.0244 249.081C48.9892 249.275 49.1214 249.46 49.3153 249.486C49.5092 249.521 49.6943 249.389 49.7207 249.195C49.7559 249.001 49.6237 248.816 49.4298 248.79C49.2359 248.763 49.0509 248.887 49.0244 249.081ZM47.2353 247.027C47.2793 246.745 47.5526 246.56 47.8258 246.604C48.1078 246.648 48.2929 246.921 48.2488 247.195C48.2048 247.477 47.9315 247.662 47.6583 247.618C47.3763 247.574 47.1824 247.309 47.2353 247.027ZM47.3939 247.054C47.3587 247.248 47.4909 247.433 47.6848 247.459C47.8787 247.494 48.0637 247.362 48.0902 247.168C48.1254 246.974 47.9932 246.789 47.7993 246.763C47.6054 246.736 47.4204 246.86 47.3939 247.054Z" fill="#E6E7E8"/>
<path d="M49.3205 249.079C49.2764 249.124 49.2853 249.194 49.3293 249.238C49.3469 249.256 49.3646 249.265 49.3822 249.265C49.4175 249.273 49.4615 249.256 49.488 249.229C49.532 249.176 50.4222 248.145 50.572 247.282C50.5808 247.255 50.5808 247.229 50.5808 247.202C50.5897 247.105 50.5897 247.017 50.5808 246.929C50.572 246.832 50.5456 246.735 50.5015 246.656C50.3253 246.312 49.911 246.136 49.25 246.127C49.3293 246.206 49.4175 246.286 49.4968 246.365C49.9198 246.4 50.1842 246.532 50.2988 246.753C50.3076 246.77 50.3164 246.788 50.3253 246.814C50.3517 246.894 50.3605 246.973 50.3605 247.07C50.3605 247.088 50.3605 247.105 50.3605 247.123C50.3253 247.766 49.6378 248.709 49.3205 249.079Z" fill="#1F2023"/>
<path d="M47.7545 247.062C47.7721 247.123 47.8338 247.159 47.8955 247.141C48.3891 247.009 49.5789 246.788 50.2664 247.018C50.3104 247.026 50.3457 247.044 50.3809 247.062C50.4603 247.097 50.5396 247.141 50.5925 247.194C50.6189 247.22 50.6453 247.238 50.663 247.264C50.6982 247.308 50.7158 247.352 50.7423 247.397C50.8304 247.467 50.9274 247.538 51.0155 247.608C51.0067 247.423 50.945 247.264 50.8392 247.132C50.7775 247.053 50.6894 246.982 50.6013 246.921C50.5219 246.877 50.4426 246.832 50.3457 246.806C50.2135 246.762 50.0725 246.735 49.9226 246.718C49.0325 246.612 47.9043 246.912 47.8426 246.929C47.7721 246.938 47.7369 247 47.7545 247.062Z" fill="#1F2023"/>
<path d="M45.6026 244.972C45.6202 244.69 45.8581 244.47 46.1402 244.487C46.4222 244.505 46.6425 244.743 46.6249 245.025C46.6073 245.307 46.3693 245.527 46.0873 245.51C45.8053 245.492 45.5849 245.254 45.6026 244.972ZM45.7612 244.981C45.7524 245.175 45.9022 245.342 46.0961 245.351C46.29 245.36 46.4575 245.21 46.4663 245.016C46.4751 244.822 46.3253 244.655 46.1314 244.646C45.9375 244.628 45.77 244.787 45.7612 244.981Z" fill="#E6E7E8"/>
<path d="M46.0183 245.052C46.0536 245.105 46.1153 245.123 46.1682 245.087C46.4766 244.902 47.217 244.55 47.7811 244.532C47.975 244.523 48.1424 244.559 48.2658 244.647C48.4509 244.77 48.539 245.017 48.5302 245.369C48.6007 245.44 48.6712 245.519 48.7417 245.59C48.7946 245.043 48.68 244.664 48.398 244.462C48.1865 244.312 47.9044 244.285 47.6048 244.321C46.8909 244.409 46.1065 244.867 46.0536 244.893C46.0007 244.929 45.9831 244.999 46.0183 245.052Z" fill="#1F2023"/>
<path d="M77.5771 234.167L68.6641 234.508L69.1889 248.239L78.102 247.898L77.5771 234.167Z" fill="#9BC9F7"/>
<path d="M69.1527 249.961L67.6984 251.644L67.3018 252.2C67.0727 252.517 66.9405 252.905 66.9228 253.292L66.8523 254.826C66.8347 255.205 67.1255 255.531 67.5045 255.549L69.2055 255.628L69.2232 255.196L70.1486 255.24L70.131 255.672L72.1757 255.813L72.1933 255.461L73.154 255.505L73.1364 255.892L75.4279 255.989L76.6706 254.553C78.4686 255.17 80.0815 255.901 81.4476 256.774C81.5093 256.827 83.8272 256.95 83.8361 256.888L83.8537 256.545L84.7527 256.589L84.735 256.932C85.4754 257.021 86.2157 257.056 86.9384 257.038L86.9561 256.677L87.8374 256.721L87.8198 257.012C88.5954 257.047 89.2828 256.994 89.8734 256.853L89.891 256.571L90.7811 256.501L90.7723 256.756C91.2923 256.712 91.7771 256.589 92.2442 256.43L92.2089 256.139L93.011 255.848L93.1608 256.139C94.0333 255.831 94.8266 255.505 95.514 255.143C95.514 255.143 95.7079 253.98 94.994 253.883L85.731 252.411L73.8503 250.199L69.1527 249.961Z" fill="#021B79"/>
<path d="M67.4539 249.036C67.4275 249.609 67.4627 250.181 67.5508 250.754L67.7007 251.644C71.2878 251.75 74.6105 252.182 77.5542 253.081C78.1624 253.266 78.7617 253.469 79.3346 253.698C84.279 255.681 89.5142 255.655 94.9875 253.883L95.0315 253.046C95.058 252.429 94.6525 251.865 94.0444 251.715L90.0959 250.71C89.3909 250.534 88.6858 250.375 87.9807 250.208C85.9976 249.741 84.182 248.859 82.5163 247.608C82.4281 247.537 82.3312 247.467 82.2431 247.396C82.1902 247.352 82.1373 247.317 82.0844 247.273C81.9346 248.137 81.0444 249.168 81.0003 249.221C80.9739 249.247 80.9298 249.265 80.8946 249.256C80.877 249.256 80.8593 249.247 80.8417 249.23C80.7976 249.186 80.7888 249.115 80.8329 249.071C81.1502 248.71 81.8376 247.767 81.8817 247.097C81.8464 247.07 81.8024 247.035 81.7671 247.009C81.0709 246.779 79.8898 247 79.3963 247.132C79.3346 247.15 79.2729 247.114 79.2641 247.053C79.2464 246.991 79.2817 246.929 79.3434 246.912C79.4139 246.894 80.5332 246.594 81.4234 246.7C81.2912 246.586 81.159 246.462 81.0268 246.339C80.9475 246.259 80.8593 246.18 80.78 246.101C80.6037 245.933 80.4275 245.757 80.2512 245.572C80.1807 245.501 80.1102 245.431 80.0397 245.352C79.7841 245.078 79.5373 244.805 79.2905 244.514C78.7264 244.532 77.9861 244.885 77.6776 245.07C77.6248 245.105 77.5542 245.087 77.5278 245.034C77.4925 244.981 77.5102 244.911 77.5631 244.885C77.6071 244.858 78.4003 244.4 79.1142 244.312C79.0173 244.197 78.9203 244.074 78.8234 243.959C78.6648 243.765 78.4356 243.633 78.18 243.615L68.9081 242.822C68.5644 242.796 68.2736 243.06 68.2736 243.395L68.2559 244.488C68.2383 245.299 68.1061 246.11 67.8505 246.876C67.6214 247.59 67.4892 248.313 67.4539 249.036Z" fill="#58595B"/>
<path d="M80.8381 249.239C80.8557 249.256 80.8734 249.265 80.891 249.265C80.9262 249.274 80.9703 249.256 80.9967 249.23C81.0408 249.177 81.931 248.146 82.0808 247.282C82.0103 247.229 81.9486 247.176 81.8781 247.114C81.834 247.775 81.1378 248.719 80.8293 249.089C80.7852 249.124 80.794 249.194 80.8381 249.239ZM79.2517 247.062C79.2693 247.123 79.331 247.159 79.3839 247.141C79.8774 247.009 81.0672 246.788 81.7547 247.018C81.6401 246.921 81.5256 246.815 81.411 246.718C80.5208 246.612 79.3927 246.912 79.331 246.929C79.2693 246.938 79.2428 247 79.2517 247.062Z" fill="#1F2023"/>
<path d="M77.5262 245.052C77.5614 245.105 77.6231 245.122 77.676 245.087C77.9845 244.902 78.7248 244.549 79.2889 244.532C79.2272 244.461 79.1743 244.391 79.1126 244.32C78.3987 244.408 77.6143 244.867 77.5614 244.893C77.5085 244.928 77.4909 244.999 77.5262 245.052Z" fill="#303030"/>
<path d="M67.4539 249.036C67.4275 249.609 67.4627 250.181 67.5508 250.754L67.7007 251.644C71.2878 251.75 74.6105 252.182 77.5542 253.081L82.3048 250.129C82.578 249.961 82.6485 249.591 82.4546 249.335L78.18 243.633L68.9081 242.84C68.5644 242.813 68.2736 243.078 68.2736 243.413L68.2559 244.505C68.2383 245.316 68.1061 246.127 67.8505 246.894C67.6214 247.59 67.4892 248.313 67.4539 249.036Z" fill="#404042"/>
<path d="M77.9768 244.039L78.0561 243.978L78.0032 243.907L77.9151 243.898L77.9062 244.004H77.9503L77.9768 244.039Z" fill="#58595B"/>
<path d="M67.9477 251.018L68.0447 251L68.0623 251.133L67.9653 251.15L67.9477 251.018ZM67.9036 250.754L68.0006 250.736L68.0182 250.868L67.9213 250.886L67.9036 250.754ZM67.8684 250.48L67.9653 250.463C67.9741 250.507 67.9741 250.551 67.983 250.595L67.886 250.613C67.8772 250.577 67.8684 250.533 67.8684 250.48ZM67.8331 250.216L67.9301 250.207C67.9389 250.251 67.9389 250.295 67.9477 250.339L67.8508 250.348C67.8419 250.304 67.8331 250.26 67.8331 250.216ZM67.8067 249.943L67.9036 249.934C67.9036 249.978 67.9124 250.022 67.9124 250.066L67.8155 250.075C67.8155 250.04 67.8155 249.996 67.8067 249.943ZM67.7979 249.678H67.8948C67.8948 249.722 67.8948 249.766 67.9036 249.811L67.8067 249.819C67.7979 249.766 67.7979 249.722 67.7979 249.678ZM67.7891 249.405H67.886C67.886 249.449 67.886 249.493 67.886 249.537H67.7891C67.7891 249.493 67.7891 249.449 67.7891 249.405ZM67.7979 249.132H67.8948C67.8948 249.176 67.8948 249.22 67.8948 249.264H67.7979C67.7891 249.229 67.7891 249.185 67.7979 249.132ZM67.7979 249C67.7979 248.956 67.8067 248.912 67.8067 248.867L67.9036 248.876C67.9036 248.92 67.8948 248.964 67.8948 249.009L67.7979 249ZM67.8155 248.735C67.8155 248.691 67.8243 248.647 67.8243 248.603L67.9213 248.612C67.9125 248.656 67.9124 248.7 67.9124 248.744L67.8155 248.735ZM67.8508 248.462C67.8596 248.418 67.8596 248.374 67.8684 248.33L67.9653 248.347C67.9565 248.392 67.9565 248.436 67.9477 248.48L67.8508 248.462ZM67.886 248.198C67.8948 248.154 67.9036 248.11 67.9036 248.065L68.0006 248.083C67.9918 248.127 67.983 248.171 67.983 248.215L67.886 248.198ZM67.9301 247.924C67.9389 247.88 67.9477 247.836 67.9565 247.792L68.0535 247.81C68.0447 247.854 68.0358 247.898 68.027 247.942L67.9301 247.924ZM67.983 247.66C67.9918 247.616 68.0006 247.572 68.0182 247.528L68.1152 247.554C68.1064 247.598 68.0975 247.642 68.0799 247.686L67.983 247.66ZM68.0535 247.404C68.0623 247.36 68.0799 247.316 68.0887 247.272L68.1857 247.299C68.1769 247.343 68.1592 247.387 68.1504 247.431L68.0535 247.404ZM68.124 247.14C68.1328 247.096 68.1504 247.052 68.168 247.008L68.265 247.043C68.2474 247.087 68.2386 247.131 68.2209 247.166L68.124 247.14ZM68.2033 246.884C68.2209 246.84 68.2297 246.796 68.2386 246.761L68.3355 246.787C68.3267 246.832 68.3091 246.876 68.3002 246.92L68.2033 246.884ZM68.2826 246.629C68.2914 246.585 68.3091 246.541 68.3179 246.497L68.4148 246.523C68.406 246.567 68.3884 246.611 68.3796 246.655L68.2826 246.629ZM68.3531 246.373C68.3619 246.329 68.3708 246.285 68.3796 246.241L68.4765 246.259C68.4677 246.303 68.4589 246.347 68.4501 246.391L68.3531 246.373ZM68.406 246.109C68.4148 246.065 68.4236 246.021 68.4325 245.977L68.5294 245.994C68.5206 246.038 68.5118 246.082 68.503 246.126L68.406 246.109ZM68.4589 245.844C68.4677 245.8 68.4765 245.756 68.4765 245.712L68.5735 245.73C68.5647 245.774 68.5558 245.818 68.547 245.862L68.4589 245.844ZM68.503 245.58C68.5118 245.536 68.5118 245.492 68.5206 245.448L68.6175 245.457C68.6087 245.501 68.6087 245.545 68.5999 245.589L68.503 245.58ZM68.5382 245.316C68.547 245.272 68.547 245.227 68.5558 245.183L68.6528 245.192C68.6528 245.236 68.644 245.28 68.6352 245.324L68.5382 245.316ZM68.5558 245.051C68.5558 245.007 68.5647 244.963 68.5647 244.919L68.6616 244.928C68.6616 244.972 68.6528 245.016 68.6528 245.06L68.5558 245.051ZM68.5823 244.655H68.6792C68.6792 244.699 68.6792 244.743 68.6704 244.787H68.5735C68.5735 244.743 68.5735 244.699 68.5823 244.655ZM68.5823 244.381H68.6792V244.514H68.5823V244.381ZM68.5911 244.117H68.688V244.249H68.5911V244.117ZM68.5911 243.844H68.688V243.976H68.5911V243.844ZM68.5999 243.579H68.6969V243.712H68.5999V243.579ZM77.6426 243.976L77.6514 243.879L77.7836 243.888L77.7748 243.985L77.6426 243.976ZM77.3694 243.95L77.3782 243.853L77.5104 243.861L77.5016 243.958L77.3694 243.95ZM77.105 243.932L77.1138 243.835L77.246 243.844L77.2372 243.941L77.105 243.932ZM76.8406 243.905L76.8494 243.809L76.9816 243.817L76.9728 243.914L76.8406 243.905ZM76.5674 243.888L76.5762 243.791L76.7084 243.8L76.6996 243.897L76.5674 243.888ZM76.303 243.861L76.3118 243.764L76.444 243.773L76.4352 243.87L76.303 243.861ZM76.0297 243.835L76.0386 243.738L76.1708 243.747L76.1619 243.844L76.0297 243.835ZM75.7653 243.817L75.7741 243.72L75.9064 243.729L75.8975 243.826L75.7653 243.817ZM75.4921 243.791L75.5009 243.694L75.6331 243.703L75.6243 243.8L75.4921 243.791ZM75.2277 243.773L75.2365 243.676L75.3687 243.685L75.3511 243.782L75.2277 243.773ZM68.6087 243.438C68.6175 243.385 68.6352 243.341 68.6704 243.297L68.7497 243.359C68.7321 243.394 68.7145 243.421 68.7057 243.465L68.6087 243.438ZM74.9633 243.747L74.9721 243.65L75.1043 243.659L75.0955 243.756L74.9633 243.747ZM74.6901 243.72L74.6989 243.623L74.8311 243.632L74.8223 243.729L74.6901 243.72ZM74.4257 243.703L74.4345 243.606L74.5667 243.615L74.5491 243.712L74.4257 243.703ZM74.1525 243.676L74.1613 243.579L74.2935 243.588L74.2758 243.685L74.1525 243.676ZM73.888 243.659L73.8969 243.562L74.0291 243.571L74.0114 243.667L73.888 243.659ZM73.6236 243.632L73.6325 243.535L73.7647 243.544L73.7558 243.641L73.6236 243.632ZM73.3504 243.615L73.3592 243.518L73.4914 243.526L73.4826 243.623L73.3504 243.615ZM73.086 243.588L73.0948 243.491L73.227 243.5L73.2182 243.597L73.086 243.588ZM72.8128 243.562L72.8216 243.465L72.9538 243.474L72.945 243.571L72.8128 243.562ZM72.5484 243.544L72.5572 243.447L72.6894 243.456L72.6806 243.553L72.5484 243.544ZM72.284 243.518L72.2928 243.421L72.425 243.43L72.4162 243.526L72.284 243.518ZM72.0108 243.5L72.0196 243.403L72.1518 243.412L72.143 243.509L72.0108 243.5ZM71.7463 243.474L71.7552 243.377L71.8874 243.385L71.8786 243.482L71.7463 243.474ZM71.4731 243.447L71.4819 243.35L71.6141 243.359L71.6053 243.456L71.4731 243.447ZM71.2087 243.43L71.2175 243.333L71.3497 243.341L71.3409 243.438L71.2087 243.43ZM70.9443 243.403L70.9531 243.306L71.0853 243.315L71.0765 243.412L70.9443 243.403ZM70.6711 243.385L70.6799 243.288L70.8121 243.297L70.8033 243.394L70.6711 243.385ZM70.4067 243.359L70.4155 243.262L70.5477 243.271L70.5389 243.368L70.4067 243.359ZM70.1335 243.333L70.1423 243.236L70.2745 243.244L70.2657 243.341L70.1335 243.333ZM68.7762 243.192C68.8203 243.165 68.8731 243.147 68.926 243.139L68.9348 243.236C68.8996 243.244 68.8643 243.253 68.8291 243.271L68.7762 243.192ZM69.8691 243.315L69.8779 243.218L70.0101 243.227L70.0013 243.324L69.8691 243.315ZM69.5958 243.288L69.6047 243.192L69.7369 243.2L69.728 243.297L69.5958 243.288ZM69.3314 243.271L69.3402 243.174L69.4725 243.183L69.4636 243.28L69.3314 243.271ZM69.0582 243.244L69.067 243.147L69.1992 243.156L69.1904 243.253L69.0582 243.244Z" fill="#58595B"/>
<path d="M68.0098 251.371L68.1156 251.38L68.1244 251.274H68.098L68.0891 251.248L67.9922 251.266L68.0098 251.371Z" fill="#58595B"/>
<path d="M77.1341 252.658L77.1605 252.561L77.2927 252.596L77.2663 252.693L77.1341 252.658ZM76.8785 252.588L76.9049 252.491L77.0371 252.526L77.0107 252.623L76.8785 252.588ZM76.6229 252.517L76.6493 252.42L76.7815 252.455L76.7551 252.552L76.6229 252.517ZM76.3673 252.455L76.3937 252.358L76.5259 252.394L76.4995 252.491L76.3673 252.455ZM76.1117 252.385L76.1381 252.288L76.2703 252.323L76.2439 252.42L76.1117 252.385ZM75.8561 252.323L75.8825 252.226L76.0147 252.253L75.9883 252.35L75.8561 252.323ZM75.5917 252.27L75.6181 252.173L75.7503 252.2L75.7239 252.297L75.5917 252.27ZM75.3361 252.209L75.3537 252.112L75.4859 252.138L75.4683 252.235L75.3361 252.209ZM75.0805 252.156L75.0981 252.059L75.2303 252.085L75.2127 252.182L75.0805 252.156ZM74.8161 252.103L74.8337 252.006L74.9659 252.032L74.9483 252.129L74.8161 252.103ZM74.5605 252.05L74.5781 251.953L74.7103 251.979L74.6927 252.076L74.5605 252.05ZM74.2961 252.006L74.3137 251.909L74.4459 251.935L74.4283 252.032L74.2961 252.006ZM74.0405 251.953L74.0581 251.856L74.1903 251.883L74.1727 251.979L74.0405 251.953ZM73.7761 251.909L73.7937 251.812L73.9259 251.83L73.9083 251.927L73.7761 251.909ZM73.5117 251.874L73.5293 251.777L73.6615 251.794L73.6439 251.891L73.5117 251.874ZM73.2561 251.83L73.2737 251.733L73.4059 251.75L73.3883 251.847L73.2561 251.83ZM72.9917 251.794L73.0093 251.697L73.1415 251.715L73.1239 251.812L72.9917 251.794ZM72.7273 251.759L72.7449 251.662L72.8771 251.68L72.8595 251.777L72.7273 251.759ZM72.4629 251.724L72.4717 251.627L72.6039 251.645L72.5951 251.742L72.4629 251.724ZM72.2073 251.689L72.2161 251.592L72.3483 251.609L72.3395 251.706L72.2073 251.689ZM71.9429 251.653L71.9517 251.556L72.0839 251.574L72.0751 251.671L71.9429 251.653ZM71.6785 251.627L71.6873 251.53L71.8195 251.548L71.8107 251.645L71.6785 251.627ZM71.4141 251.6L71.4229 251.504L71.5551 251.521L71.5463 251.618L71.4141 251.6ZM71.1497 251.574L71.1585 251.477L71.2907 251.486L71.2819 251.583L71.1497 251.574ZM70.8853 251.548L70.8941 251.451L71.0263 251.459L71.0175 251.556L70.8853 251.548ZM70.6209 251.53L70.6297 251.433L70.7619 251.442L70.7531 251.539L70.6209 251.53ZM70.3564 251.504L70.3653 251.407L70.4975 251.415L70.4886 251.512L70.3564 251.504ZM70.092 251.486L70.1008 251.389L70.2331 251.398L70.2242 251.495L70.092 251.486ZM69.8276 251.468L69.8364 251.371L69.9686 251.38L69.9598 251.477L69.8276 251.468ZM69.5632 251.451L69.572 251.354L69.7042 251.363L69.6954 251.459L69.5632 251.451ZM69.2988 251.433L69.3076 251.336L69.4398 251.345L69.431 251.442L69.2988 251.433ZM68.25 251.283L68.3822 251.292V251.389L68.25 251.38V251.283ZM69.0344 251.415L69.0432 251.318L69.1754 251.327L69.1666 251.424L69.0344 251.415ZM68.5144 251.292L68.6466 251.301L68.6378 251.398L68.5056 251.389L68.5144 251.292ZM68.77 251.407L68.7788 251.31L68.911 251.318L68.9022 251.415L68.77 251.407Z" fill="#58595B"/>
<path d="M77.4699 252.755L77.5493 252.711L77.4964 252.623L77.4611 252.649L77.4171 252.632L77.3906 252.729L77.4699 252.755Z" fill="#58595B"/>
<path d="M77.6172 252.552L77.7318 252.481L77.7846 252.569L77.6701 252.64L77.6172 252.552ZM77.8375 252.411L77.9521 252.34L78.005 252.428L77.8904 252.499L77.8375 252.411ZM78.0667 252.279L78.1813 252.208L78.2341 252.296L78.1196 252.367L78.0667 252.279ZM78.287 252.138L78.4016 252.067L78.4545 252.155L78.3399 252.226L78.287 252.138ZM78.5162 251.997L78.6307 251.926L78.6836 252.014L78.5691 252.085L78.5162 251.997ZM78.7365 251.856L78.8511 251.785L78.904 251.873L78.7894 251.944L78.7365 251.856ZM78.9657 251.715L79.0802 251.644L79.1331 251.732L79.0185 251.803L78.9657 251.715ZM79.186 251.574L79.3006 251.503L79.3535 251.591L79.2389 251.662L79.186 251.574ZM79.4152 251.433L79.5297 251.362L79.5826 251.45L79.468 251.521L79.4152 251.433ZM79.6355 251.3L79.7501 251.23L79.8029 251.318L79.6884 251.388L79.6355 251.3ZM79.8646 251.159L79.9792 251.089L80.0321 251.177L79.9175 251.247L79.8646 251.159ZM80.0938 251.018L80.2084 250.948L80.2613 251.036L80.1467 251.106L80.0938 251.018ZM80.3141 250.877L80.4287 250.807L80.4816 250.895L80.367 250.965L80.3141 250.877ZM80.5433 250.736L80.6579 250.666L80.7107 250.754L80.5962 250.824L80.5433 250.736ZM80.7636 250.595L80.8782 250.525L80.9311 250.613L80.8165 250.683L80.7636 250.595ZM80.9928 250.454L81.1074 250.384L81.1602 250.472L81.0457 250.542L80.9928 250.454ZM81.2131 250.313L81.3277 250.243L81.3806 250.331L81.266 250.401L81.2131 250.313ZM81.4423 250.181L81.5569 250.111L81.6097 250.199L81.4952 250.269L81.4423 250.181ZM81.6626 250.04L81.7772 249.969L81.8301 250.058L81.7155 250.128L81.6626 250.04ZM81.8918 249.899L82.0063 249.828L82.0592 249.917L81.9446 249.987L81.8918 249.899ZM82.0768 249.749C82.0945 249.723 82.1033 249.696 82.1121 249.67C82.1121 249.661 82.1121 249.652 82.1121 249.643L82.2091 249.652C82.2091 249.661 82.2091 249.67 82.2002 249.687C82.1914 249.732 82.1738 249.767 82.1562 249.802L82.0768 249.749ZM82.068 249.494L82.0328 249.441L82.1121 249.379L82.1474 249.432C82.165 249.45 82.1738 249.476 82.1914 249.502L82.1033 249.538C82.0945 249.529 82.0768 249.511 82.068 249.494ZM81.8741 249.229L81.9535 249.167L82.0328 249.273L81.9535 249.335L81.8741 249.229ZM81.7155 249.018L81.7948 248.956L81.8741 249.062L81.7948 249.123L81.7155 249.018ZM81.5569 248.806L81.6362 248.744L81.7155 248.85L81.6362 248.912L81.5569 248.806ZM81.3982 248.595L81.4775 248.533L81.5569 248.639L81.4775 248.7L81.3982 248.595ZM81.2396 248.383L81.3189 248.321L81.3982 248.427L81.3189 248.489L81.2396 248.383ZM81.0809 248.172L81.1602 248.11L81.2396 248.216L81.1602 248.277L81.0809 248.172ZM80.9223 247.96L81.0016 247.898L81.0809 248.004L81.0016 248.066L80.9223 247.96ZM80.7636 247.748L80.8429 247.687L80.9223 247.793L80.8429 247.854L80.7636 247.748ZM80.605 247.537L80.6843 247.475L80.7636 247.581L80.6843 247.643L80.605 247.537ZM80.4463 247.325L80.5257 247.264L80.605 247.369L80.5257 247.431L80.4463 247.325ZM80.2877 247.114L80.367 247.052L80.4463 247.158L80.367 247.22L80.2877 247.114ZM80.1291 246.902L80.2084 246.841L80.2877 246.946L80.2084 247.008L80.1291 246.902ZM79.9704 246.691L80.0497 246.629L80.1291 246.735L80.0497 246.797L79.9704 246.691ZM79.8118 246.479L79.8911 246.418L79.9704 246.523L79.8911 246.585L79.8118 246.479ZM79.6531 246.268L79.7324 246.206L79.8118 246.312L79.7324 246.374L79.6531 246.268ZM79.4945 246.056L79.5738 245.995L79.6531 246.1L79.5738 246.162L79.4945 246.056ZM79.327 245.845L79.4063 245.783L79.4857 245.889L79.4063 245.951L79.327 245.845ZM79.1684 245.633L79.2477 245.572L79.327 245.677L79.2477 245.739L79.1684 245.633ZM79.0097 245.413L79.0891 245.351L79.1684 245.457L79.0891 245.519L79.0097 245.413ZM78.8511 245.201L78.9304 245.14L79.0097 245.245L78.9304 245.307L78.8511 245.201ZM78.6924 244.99L78.7718 244.928L78.8511 245.034L78.7718 245.096L78.6924 244.99ZM78.5338 244.778L78.6131 244.717L78.6924 244.822L78.6131 244.884L78.5338 244.778ZM78.3752 244.567L78.4545 244.505L78.5338 244.611L78.4545 244.673L78.3752 244.567ZM78.2165 244.355L78.2958 244.294L78.3752 244.399L78.2958 244.461L78.2165 244.355ZM78.0579 244.144L78.1372 244.082L78.2165 244.188L78.1372 244.25L78.0579 244.144Z" fill="#58595B"/>
<path d="M80.3635 249.054C80.4076 248.772 80.6808 248.587 80.9541 248.631C81.2361 248.675 81.4212 248.949 81.3771 249.222C81.333 249.504 81.0598 249.689 80.7866 249.645C80.5046 249.601 80.3195 249.336 80.3635 249.054ZM80.5222 249.081C80.4869 249.275 80.6191 249.46 80.813 249.486C81.0069 249.521 81.192 249.389 81.2185 249.195C81.2537 249.001 81.1215 248.816 80.9276 248.79C80.7425 248.763 80.5574 248.887 80.5222 249.081ZM78.733 247.027C78.7771 246.745 79.0503 246.56 79.3235 246.604C79.6056 246.648 79.7907 246.921 79.7466 247.195C79.7025 247.477 79.4293 247.662 79.1561 247.618C78.8741 247.574 78.689 247.309 78.733 247.027ZM78.8917 247.054C78.8564 247.248 78.9886 247.433 79.1825 247.459C79.3764 247.494 79.5615 247.362 79.588 247.168C79.6232 246.974 79.491 246.789 79.2971 246.763C79.112 246.736 78.9269 246.86 78.8917 247.054Z" fill="#E6E7E8"/>
<path d="M80.8283 249.081C80.7843 249.126 80.7931 249.196 80.8371 249.24C80.8548 249.258 80.8724 249.267 80.89 249.267C80.9253 249.275 80.9693 249.258 80.9958 249.231C81.0398 249.178 81.93 248.147 82.0798 247.283C82.0887 247.257 82.0887 247.231 82.0887 247.204C82.0975 247.107 82.0975 247.019 82.0887 246.931C82.0798 246.834 82.0534 246.737 82.0093 246.658C81.8331 246.314 81.4188 246.138 80.7578 246.129C80.8371 246.208 80.9253 246.288 81.0046 246.367C81.4276 246.402 81.692 246.534 81.8066 246.755C81.8154 246.772 81.8242 246.79 81.8331 246.816C81.8595 246.896 81.8683 246.975 81.8683 247.072C81.8683 247.09 81.8683 247.107 81.8683 247.125C81.8331 247.768 81.1456 248.711 80.8283 249.081Z" fill="#1F2023"/>
<path d="M79.2517 247.064C79.2693 247.125 79.331 247.16 79.3839 247.143C79.8774 247.011 81.0673 246.79 81.7547 247.019C81.7988 247.028 81.834 247.046 81.8693 247.064C81.9486 247.099 82.0279 247.143 82.0808 247.196C82.1073 247.222 82.1337 247.24 82.1513 247.266C82.1866 247.31 82.213 247.354 82.2307 247.398C82.3188 247.469 82.4157 247.539 82.5039 247.61C82.4951 247.425 82.4334 247.266 82.3276 247.134C82.2659 247.055 82.1778 246.984 82.0808 246.923C82.0015 246.878 81.9222 246.834 81.8252 246.808C81.693 246.764 81.552 246.737 81.4022 246.72C80.512 246.614 79.3839 246.914 79.3222 246.931C79.2693 246.94 79.2429 247.002 79.2517 247.064Z" fill="#1F2023"/>
<path d="M77.1026 244.972C77.1202 244.69 77.3581 244.47 77.6402 244.487C77.9222 244.505 78.1425 244.743 78.1249 245.025C78.1073 245.307 77.8693 245.527 77.5873 245.51C77.3053 245.492 77.0849 245.254 77.1026 244.972ZM77.2612 244.981C77.2524 245.175 77.4022 245.342 77.5961 245.351C77.79 245.36 77.9575 245.21 77.9663 245.016C77.9751 244.822 77.8253 244.655 77.6314 244.646C77.4375 244.628 77.27 244.787 77.2612 244.981Z" fill="#E6E7E8"/>
<path d="M77.5262 245.052C77.5614 245.105 77.6231 245.123 77.676 245.087C77.9845 244.902 78.7248 244.55 79.2889 244.532C79.4828 244.523 79.6502 244.559 79.7736 244.647C79.9587 244.77 80.0468 245.017 80.038 245.369C80.1085 245.44 80.179 245.519 80.2495 245.59C80.3024 245.043 80.1879 244.664 79.9058 244.462C79.6943 244.312 79.4123 244.285 79.1126 244.321C78.3987 244.409 77.6143 244.867 77.5614 244.893C77.5085 244.929 77.4909 244.999 77.5262 245.052Z" fill="#1F2023"/>
<path d="M38.6387 134.892L36.1797 239.95L48.5716 240.549L59.3946 157.939L67.0977 239.932L79.2956 240.523L79.137 128.229L57.059 124.562L38.6387 134.892Z" fill="#021B79"/>
<path d="M50.3709 70.4108L52.5038 66.3301C55.4123 70.3843 58.8231 71.0806 62.7981 67.8548L73.5947 84.865L69.9635 92.6297L69.276 120.507L65.874 133.71C63.512 137.147 59.7309 137.597 55.1567 136.345L50.0448 132.802L43.0645 104.96L43.0469 93.2291C43.0469 93.2291 45.4001 85.0148 45.7791 84.6006C46.1581 84.1775 50.3709 70.4108 50.3709 70.4108Z" fill="#F1F1F2"/>
<path d="M31.7066 157.949H13.9297V152.573C13.9297 151.171 15.0755 150.025 16.4768 150.025H29.1683C30.5697 150.025 31.7155 151.171 31.7155 152.573V157.949H31.7066ZM14.8639 157.015H30.7724V152.581C30.7724 151.691 30.0497 150.968 29.1595 150.968H16.468C15.5778 150.968 14.8551 151.691 14.8551 152.581V157.015H14.8639Z" fill="#1D2A5B"/>
<path d="M43.6816 156.688V182.855C43.6816 184.415 42.4212 185.675 40.8612 185.675H22.8199C16.4301 175.601 15.8219 165.898 22.8199 156.688H43.6816Z" fill="#33437F"/>
<path d="M22.8236 156.688V185.675H4.77346C3.21346 185.675 1.95312 184.415 1.95312 182.855V156.688H22.8236Z" fill="#344583"/>
<path d="M44.365 157.878V166.586C44.365 166.974 44.127 167.326 43.748 167.45L22.8246 174.783C18.0124 167.635 19.0524 161.139 22.8246 154.961H41.4477C43.0606 154.961 44.365 156.274 44.365 157.878Z" fill="#233063"/>
<path d="M22.8216 154.961V174.783L1.8982 167.45C1.52803 167.318 1.28125 166.974 1.28125 166.586V157.878C1.28125 156.265 2.59447 154.961 4.19854 154.961H22.8216Z" fill="#253368"/>
<path d="M25.2176 172.64V177.408C25.2176 177.699 24.9796 177.928 24.6976 177.928H22.8203V172.111H24.6976C24.9796 172.12 25.2176 172.358 25.2176 172.64Z" fill="#BDBDBD"/>
<path d="M22.8192 172.121V177.938H20.9419C20.651 177.938 20.4219 177.709 20.4219 177.418V172.65C20.4219 172.359 20.651 172.13 20.9419 172.13H22.8192V172.121Z" fill="#E0E0E0"/>
<path d="M26.8077 144.084L27.6803 146.164C27.8565 146.728 28.2531 147.195 28.7819 147.459L31.0647 148.588C31.4965 148.799 31.6816 149.319 31.4789 149.76C31.3114 150.121 30.9236 150.324 30.5358 150.262L28.2972 149.901C27.6979 149.804 27.1603 150.253 27.1426 150.862L26.9752 153.506C26.9575 153.982 26.5697 154.361 26.0938 154.361C25.6267 154.361 25.2389 153.999 25.2125 153.532L25.0274 150.121L25.2301 153.973C25.2565 154.528 24.807 154.995 24.243 154.977C23.7406 154.96 23.3352 154.554 23.3175 154.052L23.1589 148.358L23.3175 152.897C23.3352 153.426 22.9209 153.867 22.3833 153.876C21.8545 153.885 21.4226 153.462 21.4226 152.942L21.3433 146.851L21.4226 151.461C21.4314 151.972 21.026 152.404 20.5148 152.422C20.0125 152.439 19.5894 152.069 19.5365 151.567C19.1575 147.83 19.228 147.768 19.6511 143.414L26.8077 144.084Z" fill="#9BC9F7"/>
<path d="M65.483 60.3203V68.6139C65.483 70.3942 64.9013 72.0335 63.923 73.3644C62.4688 75.3298 60.1243 76.6166 57.4803 76.6166C56.0525 76.6166 54.7216 76.2464 53.5671 75.5942C51.1169 74.2281 49.4688 71.6105 49.4688 68.6139V60.3203H65.483Z" fill="#58595B"/>
<path d="M77.825 35.3518C78.0277 41.5389 75.463 47.1267 71.2766 50.9783C68.3416 53.684 66.6406 57.4827 66.6406 61.4752V62.9118C66.6406 63.8196 65.9091 64.5511 65.0013 64.5511H49.9565C49.0487 64.5511 48.3172 63.8196 48.3172 62.9118V61.6074C48.3172 57.6149 46.7132 53.7545 43.7694 51.0664C39.6887 47.3471 37.1328 41.9884 37.1328 36.0305C37.1328 24.5111 46.7043 15.2216 58.3206 15.6888C68.8969 16.1118 77.4813 24.7667 77.825 35.3518Z" fill="#2654FF"/>
<path d="M71.2735 50.9783C68.3386 53.6841 66.6376 57.4827 66.6376 61.4753V62.9119C66.6376 63.8197 65.9061 64.5512 64.9983 64.5512H63.0329C63.9406 64.5512 64.6722 63.8197 64.6722 62.9119V61.4753C64.6722 57.4739 66.3732 53.6841 69.3081 50.9783C73.4946 47.118 76.0505 41.5302 75.8478 35.3519C75.5217 24.8109 67.0078 16.1824 56.4844 15.6888C57.0837 15.6624 57.6918 15.6536 58.3088 15.68C68.8939 16.1031 77.4783 24.7668 77.8132 35.3519C78.0159 41.539 75.46 47.1268 71.2735 50.9783Z" fill="#1C4AF7"/>
<path d="M65.2636 72.1476H49.69C48.9938 72.1476 48.4297 71.5836 48.4297 70.8873C48.4297 70.191 48.9938 69.627 49.69 69.627H65.2636C65.9599 69.627 66.5239 70.191 66.5239 70.8873C66.5239 71.5836 65.9599 72.1476 65.2636 72.1476Z" fill="#BDBDBD"/>
<path d="M59.9025 64.5509H59.2856V46.0777H55.6808V64.5597H55.0639V46.0777H51.9615C49.9079 46.0777 48.2422 44.4119 48.2422 42.3584V42.2174C48.2422 40.1638 49.9079 38.498 51.9615 38.498C54.0151 38.498 55.6808 40.1638 55.6808 42.2174V45.4608H59.2856V42.2174C59.2856 40.1638 60.9513 38.498 63.0049 38.498C65.0585 38.498 66.7242 40.1638 66.7242 42.2174V42.3584C66.7242 44.4119 65.0585 46.0777 63.0049 46.0777H59.9025V64.5509ZM59.9025 45.4608H63.0049C64.7147 45.4608 66.1073 44.0682 66.1073 42.3584V42.2174C66.1073 40.5075 64.7147 39.115 63.0049 39.115C61.2951 39.115 59.9025 40.5075 59.9025 42.2174V45.4608ZM51.9615 39.1062C50.2517 39.1062 48.8591 40.4987 48.8591 42.2086V42.3496C48.8591 44.0594 50.2517 45.4519 51.9615 45.4519H55.0639V42.2086C55.0639 40.4987 53.6713 39.1062 51.9615 39.1062Z" fill="#404042"/>
<path d="M57.1576 18.7643L56.9901 19.5046C56.6816 20.8443 55.6769 21.9019 54.3549 22.3073C48.1149 24.2022 43.0206 28.327 39.4688 35.4131C40.3589 26.4056 45.462 20.2273 56.3555 17.9534C56.8403 17.8565 57.2721 18.2795 57.1576 18.7643Z" fill="#4D72FF"/>
<path d="M57.4408 0C57.855 1.8861 57.952 3.78983 57.9608 5.70237C57.952 7.61492 57.855 9.51865 57.4408 11.4047C57.0265 9.51865 56.9296 7.61492 56.9208 5.70237C56.9296 3.78983 57.0265 1.8861 57.4408 0ZM32.6394 10.5146C34.2611 11.5546 35.6801 12.8325 37.0462 14.181C38.3947 15.5471 39.6726 16.9573 40.7126 18.5878C39.0821 17.5478 37.6719 16.2698 36.3058 14.9214C34.9574 13.5553 33.6794 12.1363 32.6394 10.5146ZM22.5391 35.4834C24.4252 35.0692 26.3289 34.9722 28.2414 34.9634C30.154 34.9722 32.0577 35.0692 33.9438 35.4834C32.0577 35.8976 30.154 35.9946 28.2414 36.0034C26.3289 35.9946 24.4252 35.8976 22.5391 35.4834ZM33.0536 60.2848C34.0936 58.6631 35.3716 57.2441 36.7201 55.878C38.0862 54.5295 39.4964 53.2515 41.1269 52.2115C40.0869 53.842 38.8089 55.2522 37.4604 56.6183C36.0855 57.9668 34.6753 59.2448 33.0536 60.2848ZM82.8238 59.8793C81.2021 58.8393 79.7831 57.5614 78.417 56.2129C77.0686 54.8468 75.7906 53.4366 74.7506 51.8061C76.3811 52.8461 77.7913 54.1241 79.1574 55.4726C80.5059 56.8387 81.7838 58.2488 82.8238 59.8793ZM92.9242 34.9017C91.0381 35.3159 89.1343 35.4129 87.2218 35.4217C85.3092 35.4129 83.4055 35.3159 81.5194 34.9017C83.4055 34.4875 85.3092 34.3905 87.2218 34.3817C89.1343 34.3993 91.0381 34.4963 92.9242 34.9017ZM82.4096 10.1003C81.3696 11.722 80.0916 13.141 78.7431 14.5071C77.377 15.8556 75.9669 17.1336 74.3364 18.1736C75.3764 16.5431 76.6543 15.1329 78.0028 13.7668C79.3689 12.4271 80.7879 11.1492 82.4096 10.1003Z" fill="#1C4AF7"/>
<path d="M55.0072 134.388C55.1217 134.97 55.4214 135.772 55.157 136.345C51.658 143.66 38.2614 143.493 38.235 143.493L37.9705 101.197L30.5583 110.451L27.976 144.189L18.3339 143.272C18.3339 143.272 17.6994 107.031 19.4092 102.959C28.1875 81.983 39.839 69.9701 49.4722 66.9911V68.6128C49.4722 71.6182 51.1292 74.2271 53.5705 75.5932C54.4607 82.5735 55.4566 89.5803 55.6153 96.5782C55.8621 108.23 52.9889 119.828 54.54 131.471C54.6634 132.449 54.8133 133.428 55.0072 134.388ZM131.218 71.4684L110.383 86.2311C106.055 89.2982 100.82 90.8054 95.5231 90.541C87.6967 90.1532 78.5923 88.9369 77.9841 89.0779C76.997 89.2982 76.856 110.292 77.7021 116.074C78.5129 121.609 79.2445 127.161 79.8702 132.714C76.2302 136.583 71.515 138.601 65.7597 138.839C65.839 130.131 66.8173 121.256 65.7421 112.566C65.2133 108.274 64.2261 104.096 64.2614 99.7335C64.279 96.0054 64.8431 92.3125 65.178 88.602C65.5922 83.9749 65.2045 79.6033 64.279 75.0732C64.1645 74.5003 64.0499 73.9362 63.9265 73.3633C64.9048 72.0325 65.4865 70.3843 65.4865 68.6128V68.2955C70.14 69.1152 80.6282 71.4508 95.7611 78.0521C97.5943 78.8542 99.6302 79.101 101.596 78.7748L124.908 64.2148L131.218 71.4684Z" fill="#0575E6"/>
<path d="M65.2636 68.3488H49.69C48.9938 68.3488 48.4297 67.7847 48.4297 67.0885C48.4297 66.3922 48.9938 65.8281 49.69 65.8281H65.2636C65.9599 65.8281 66.5239 66.3922 66.5239 67.0885C66.5239 67.7847 65.9599 68.3488 65.2636 68.3488Z" fill="#BDBDBD"/>
<path d="M242.759 49.1889H113.411C107.841 49.1889 103.328 44.6763 103.328 39.1062C103.328 33.536 107.841 29.0234 113.411 29.0234H242.759C248.329 29.0234 252.841 33.536 252.841 39.1062C252.833 44.6763 248.32 49.1889 242.759 49.1889Z" fill="#EEEEEE"/>
<path d="M113.412 47.2759C108.909 47.2759 105.242 43.6094 105.242 39.1057C105.242 34.602 108.909 30.9355 113.412 30.9355H242.76C247.264 30.9355 250.93 34.602 250.93 39.1057C250.93 43.6094 247.264 47.2759 242.76 47.2759H113.412Z" fill="#E0E0E0"/>
<path d="M217.134 39.1067C217.134 43.6192 213.476 47.2768 208.964 47.2768H113.583C110.269 47.2768 107.334 45.3467 106.004 42.5263C105.545 41.5657 105.281 40.4904 105.246 39.3623C105.113 34.744 108.824 30.9453 113.407 30.9453H208.964C211.572 30.9453 213.899 32.1704 215.398 34.0741C216.482 35.4579 217.134 37.2118 217.134 39.1067Z" fill="#5071EF"/>
<path d="M117.585 30.9434L106.004 42.5244C105.545 41.5637 105.281 40.4884 105.246 39.3603C105.113 34.742 108.824 30.9434 113.407 30.9434H117.585Z" fill="#4567E5"/>
<path d="M145.461 30.9434L129.121 47.2749H118.562L134.894 30.9434H145.461Z" fill="#4567E5"/>
<path d="M173.336 30.9434L156.996 47.2749H146.438L162.769 30.9434H173.336Z" fill="#4567E5"/>
<path d="M201.21 30.9434L184.879 47.2749H174.32L190.652 30.9434H201.21Z" fill="#4567E5"/>
<path d="M217.134 39.1048C217.134 43.6174 213.477 47.275 208.964 47.275H202.195L215.398 34.0723C216.482 35.456 217.134 37.2099 217.134 39.1048Z" fill="#4567E5"/>
<path d="M121.677 41.8475C121.677 41.918 121.677 41.9797 121.668 42.0238C121.659 42.0679 121.65 42.1119 121.633 42.1472C121.615 42.1824 121.598 42.2089 121.571 42.2177C121.545 42.2353 121.518 42.2441 121.492 42.2441H118.46C118.381 42.2441 118.301 42.2177 118.231 42.1648C118.16 42.1119 118.125 42.015 118.125 41.874V35.5106C118.125 35.4841 118.134 35.4577 118.143 35.4401C118.16 35.4224 118.178 35.4048 118.213 35.3872C118.248 35.3784 118.292 35.3607 118.354 35.3519C118.416 35.3431 118.486 35.3343 118.574 35.3343C118.663 35.3343 118.733 35.3343 118.795 35.3519C118.857 35.3607 118.901 35.3696 118.936 35.3872C118.971 35.396 118.998 35.4136 119.006 35.4401C119.024 35.4577 119.024 35.4841 119.024 35.5106V41.4509H121.483C121.518 41.4509 121.545 41.4597 121.562 41.4774C121.589 41.495 121.606 41.5126 121.624 41.5479C121.642 41.5743 121.65 41.6184 121.659 41.6713C121.677 41.7153 121.677 41.777 121.677 41.8475ZM127.036 39.6706C127.036 40.0584 126.983 40.4197 126.886 40.7458C126.78 41.0719 126.63 41.354 126.427 41.5919C126.225 41.8299 125.969 42.015 125.661 42.1472C125.352 42.2794 125 42.3499 124.594 42.3499C124.198 42.3499 123.863 42.2882 123.563 42.1736C123.272 42.0591 123.025 41.8828 122.831 41.6624C122.638 41.4421 122.488 41.1689 122.4 40.8516C122.303 40.5343 122.259 40.173 122.259 39.7675C122.259 39.3797 122.311 39.0184 122.408 38.6923C122.505 38.3662 122.664 38.0841 122.867 37.8462C123.069 37.6082 123.325 37.4231 123.625 37.2909C123.933 37.1587 124.286 37.097 124.691 37.097C125.088 37.097 125.423 37.1587 125.722 37.2733C126.013 37.3879 126.26 37.5641 126.454 37.7845C126.648 38.0048 126.798 38.278 126.894 38.5953C126.983 38.9126 127.036 39.274 127.036 39.6706ZM126.128 39.7323C126.128 39.4767 126.101 39.2299 126.057 39.0007C126.013 38.7716 125.934 38.5689 125.819 38.3926C125.705 38.2163 125.555 38.0841 125.37 37.9784C125.185 37.8814 124.947 37.8285 124.665 37.8285C124.4 37.8285 124.18 37.8726 123.995 37.9696C123.81 38.0577 123.651 38.1899 123.528 38.3574C123.404 38.5248 123.316 38.7275 123.254 38.9567C123.193 39.1858 123.166 39.4414 123.166 39.7146C123.166 39.9791 123.193 40.2258 123.237 40.455C123.281 40.6841 123.369 40.8868 123.475 41.0543C123.589 41.2218 123.739 41.3628 123.924 41.4597C124.109 41.5567 124.347 41.6096 124.629 41.6096C124.885 41.6096 125.105 41.5655 125.299 41.4685C125.484 41.3804 125.643 41.2482 125.766 41.0807C125.89 40.9133 125.978 40.7194 126.031 40.4902C126.092 40.2611 126.128 40.0055 126.128 39.7323ZM131.918 42.1207C131.918 42.1648 131.901 42.1913 131.874 42.2177C131.848 42.2353 131.804 42.253 131.76 42.2618C131.707 42.2706 131.636 42.2794 131.539 42.2794C131.451 42.2794 131.372 42.2706 131.319 42.2618C131.266 42.253 131.222 42.2353 131.196 42.2177C131.169 42.2001 131.16 42.1648 131.16 42.1207V41.6448C130.949 41.8652 130.72 42.0414 130.464 42.1648C130.208 42.2882 129.935 42.3499 129.653 42.3499C129.398 42.3499 129.177 42.3146 128.974 42.253C128.772 42.1913 128.596 42.0943 128.454 41.9709C128.313 41.8475 128.199 41.6977 128.12 41.5126C128.04 41.3363 127.996 41.1248 127.996 40.8957C127.996 40.6313 128.049 40.3933 128.164 40.1906C128.269 39.9967 128.428 39.8292 128.64 39.697C128.842 39.5648 129.098 39.4679 129.398 39.4062C129.697 39.3445 130.032 39.3092 130.402 39.3092H131.063V38.9391C131.063 38.754 131.046 38.5953 131.002 38.4543C130.966 38.3133 130.896 38.1987 130.817 38.1018C130.728 38.0048 130.614 37.9343 130.482 37.8902C130.341 37.8462 130.173 37.8197 129.97 37.8197C129.759 37.8197 129.565 37.8462 129.389 37.8991C129.221 37.9519 129.063 38.0048 128.939 38.0665C128.807 38.1282 128.701 38.1811 128.613 38.234C128.525 38.2868 128.463 38.3133 128.419 38.3133C128.393 38.3133 128.366 38.3045 128.349 38.2957C128.331 38.278 128.305 38.2604 128.296 38.234C128.278 38.2075 128.269 38.1723 128.261 38.1282C128.252 38.0841 128.252 38.0313 128.252 37.9784C128.252 37.8902 128.261 37.8197 128.269 37.7668C128.278 37.714 128.313 37.6699 128.358 37.617C128.402 37.5729 128.49 37.5201 128.604 37.4584C128.719 37.3967 128.851 37.3438 129.01 37.2909C129.16 37.238 129.327 37.194 129.512 37.1675C129.688 37.1323 129.873 37.1146 130.059 37.1146C130.402 37.1146 130.693 37.1499 130.931 37.2292C131.169 37.3085 131.363 37.4231 131.513 37.5729C131.663 37.7228 131.768 37.9079 131.839 38.137C131.909 38.3574 131.936 38.6218 131.936 38.9214V42.1207H131.918ZM131.046 39.935H130.297C130.059 39.935 129.847 39.9526 129.671 39.9967C129.494 40.0407 129.345 40.0936 129.23 40.1729C129.116 40.2523 129.027 40.3492 128.974 40.4638C128.922 40.5784 128.895 40.7018 128.895 40.8516C128.895 41.0984 128.974 41.2923 129.133 41.4421C129.292 41.5919 129.512 41.6624 129.794 41.6624C130.023 41.6624 130.235 41.6007 130.438 41.4862C130.631 41.3716 130.843 41.1865 131.054 40.9485V39.935H131.046ZM137.621 42.1119C137.621 42.1384 137.612 42.1648 137.603 42.1824C137.594 42.2001 137.568 42.2177 137.541 42.2353C137.515 42.2441 137.471 42.2618 137.418 42.2618C137.365 42.2706 137.312 42.2706 137.242 42.2706C137.171 42.2706 137.109 42.2706 137.057 42.2618C137.004 42.253 136.968 42.2441 136.933 42.2353C136.898 42.2265 136.88 42.2089 136.863 42.1824C136.845 42.1648 136.845 42.1384 136.845 42.1119V41.4774C136.589 41.7506 136.334 41.9621 136.061 42.1119C135.787 42.2618 135.497 42.3411 135.17 42.3411C134.818 42.3411 134.518 42.2706 134.271 42.1384C134.025 42.0062 133.822 41.8211 133.672 41.5831C133.522 41.354 133.408 41.0807 133.337 40.7635C133.267 40.4462 133.231 40.1201 133.231 39.7763C133.231 39.3621 133.276 38.9919 133.364 38.6658C133.452 38.3309 133.584 38.0489 133.76 37.8197C133.937 37.5906 134.148 37.4055 134.404 37.2821C134.659 37.1587 134.959 37.097 135.294 37.097C135.576 37.097 135.831 37.1587 136.061 37.2821C136.29 37.4055 136.519 37.5818 136.748 37.8197V35.0435C136.748 35.017 136.757 34.9906 136.766 34.9729C136.774 34.9465 136.801 34.9289 136.836 34.9201C136.871 34.9113 136.916 34.8936 136.968 34.8848C137.021 34.876 137.092 34.8672 137.18 34.8672C137.268 34.8672 137.339 34.876 137.4 34.8848C137.453 34.8936 137.497 34.9024 137.532 34.9201C137.568 34.9289 137.585 34.9465 137.603 34.9729C137.621 34.9994 137.629 35.017 137.629 35.0435V42.1119H137.621ZM136.739 38.754C136.501 38.4631 136.272 38.234 136.052 38.0841C135.831 37.9343 135.602 37.855 135.356 37.855C135.135 37.855 134.941 37.9079 134.791 38.0136C134.633 38.1194 134.509 38.2604 134.412 38.4367C134.316 38.613 134.245 38.8068 134.201 39.0272C134.157 39.2475 134.13 39.4679 134.13 39.697C134.13 39.935 134.148 40.173 134.183 40.4021C134.219 40.6313 134.289 40.834 134.377 41.0191C134.465 41.1953 134.589 41.3452 134.747 41.4509C134.897 41.5567 135.091 41.6096 135.32 41.6096C135.435 41.6096 135.549 41.5919 135.655 41.5655C135.761 41.5302 135.876 41.4774 135.99 41.4068C136.105 41.3363 136.219 41.2394 136.343 41.116C136.466 41.0014 136.598 40.8516 136.739 40.6753V38.754ZM140.221 35.7221C140.221 35.9248 140.185 36.0658 140.106 36.1452C140.027 36.2157 139.886 36.2597 139.674 36.2597C139.471 36.2597 139.33 36.2245 139.251 36.154C139.172 36.0835 139.137 35.9424 139.137 35.7397C139.137 35.537 139.172 35.396 139.251 35.3167C139.33 35.2462 139.471 35.2021 139.683 35.2021C139.886 35.2021 140.027 35.2374 140.106 35.3079C140.177 35.3784 140.221 35.5194 140.221 35.7221ZM140.115 42.1119C140.115 42.1384 140.106 42.1648 140.097 42.1824C140.08 42.2001 140.062 42.2177 140.027 42.2353C139.991 42.253 139.947 42.2618 139.894 42.2706C139.842 42.2794 139.762 42.2794 139.674 42.2794C139.586 42.2794 139.516 42.2794 139.463 42.2706C139.41 42.2618 139.357 42.253 139.33 42.2353C139.295 42.2177 139.278 42.2001 139.26 42.1824C139.251 42.1648 139.242 42.1384 139.242 42.1119V37.335C139.242 37.3085 139.251 37.2909 139.26 37.2645C139.269 37.2468 139.295 37.2292 139.33 37.2116C139.366 37.194 139.41 37.1852 139.463 37.1763C139.516 37.1675 139.586 37.1675 139.674 37.1675C139.762 37.1675 139.833 37.1675 139.894 37.1763C139.947 37.1852 139.991 37.194 140.027 37.2116C140.062 37.2292 140.08 37.2468 140.097 37.2645C140.115 37.2821 140.115 37.3085 140.115 37.335V42.1119ZM145.852 42.1119C145.852 42.1384 145.844 42.1648 145.835 42.1824C145.817 42.2001 145.8 42.2177 145.764 42.2353C145.729 42.253 145.685 42.2618 145.632 42.2706C145.579 42.2794 145.509 42.2794 145.421 42.2794C145.332 42.2794 145.262 42.2794 145.2 42.2706C145.147 42.2618 145.103 42.253 145.068 42.2353C145.033 42.2177 145.015 42.2001 144.998 42.1824C144.98 42.1648 144.98 42.1384 144.98 42.1119V39.318C144.98 39.0448 144.962 38.8245 144.918 38.657C144.874 38.4896 144.812 38.3485 144.733 38.2252C144.654 38.1018 144.548 38.0136 144.416 37.9519C144.284 37.8902 144.134 37.855 143.966 37.855C143.746 37.855 143.526 37.9343 143.305 38.0841C143.085 38.2428 142.856 38.4719 142.618 38.7716V42.1119C142.618 42.1384 142.609 42.1648 142.6 42.1824C142.583 42.2001 142.565 42.2177 142.53 42.2353C142.494 42.253 142.45 42.2618 142.398 42.2706C142.345 42.2794 142.265 42.2794 142.177 42.2794C142.089 42.2794 142.019 42.2794 141.966 42.2706C141.913 42.2618 141.86 42.253 141.833 42.2353C141.798 42.2177 141.781 42.2001 141.763 42.1824C141.754 42.1648 141.745 42.1384 141.745 42.1119V37.335C141.745 37.3085 141.754 37.2821 141.763 37.2645C141.772 37.2468 141.798 37.2292 141.825 37.2116C141.86 37.194 141.895 37.1852 141.948 37.1763C142.001 37.1675 142.063 37.1675 142.142 37.1675C142.221 37.1675 142.283 37.1675 142.336 37.1763C142.389 37.1852 142.424 37.194 142.459 37.2116C142.486 37.2292 142.512 37.2468 142.521 37.2645C142.53 37.2821 142.539 37.3085 142.539 37.335V37.9696C142.812 37.6699 143.076 37.4496 143.341 37.3085C143.605 37.1675 143.878 37.097 144.151 37.097C144.469 37.097 144.742 37.1499 144.953 37.2557C145.174 37.3614 145.35 37.5113 145.482 37.6875C145.615 37.8638 145.711 38.0753 145.773 38.3221C145.835 38.5689 145.861 38.8597 145.861 39.1946V42.1119H145.852ZM151.44 37.5553C151.44 37.6787 151.423 37.7668 151.387 37.8197C151.352 37.8726 151.308 37.8991 151.255 37.8991H150.568C150.691 38.0224 150.779 38.1635 150.832 38.3221C150.885 38.4719 150.903 38.6394 150.903 38.8068C150.903 39.0801 150.859 39.3268 150.77 39.5384C150.682 39.7499 150.559 39.9262 150.391 40.076C150.224 40.2258 150.03 40.3316 149.801 40.4109C149.572 40.4902 149.325 40.5255 149.043 40.5255C148.849 40.5255 148.664 40.4991 148.488 40.4462C148.311 40.3933 148.179 40.3316 148.082 40.2523C148.021 40.314 147.968 40.3845 147.924 40.4726C147.88 40.5519 147.862 40.6489 147.862 40.7546C147.862 40.878 147.924 40.9838 148.038 41.0631C148.153 41.1424 148.303 41.1865 148.497 41.1953L149.748 41.2482C149.986 41.257 150.206 41.2923 150.4 41.3452C150.594 41.4069 150.77 41.4862 150.911 41.5919C151.052 41.6977 151.167 41.8299 151.255 41.9885C151.335 42.1472 151.379 42.3323 151.379 42.535C151.379 42.7553 151.334 42.9669 151.238 43.1607C151.149 43.3546 151.008 43.5309 150.815 43.6807C150.629 43.8306 150.383 43.9452 150.092 44.0333C149.801 44.1214 149.448 44.1655 149.052 44.1655C148.664 44.1655 148.338 44.1302 148.065 44.0685C147.791 44.0069 147.571 43.9099 147.395 43.8041C147.219 43.6896 147.095 43.5574 147.016 43.3987C146.937 43.2401 146.901 43.0726 146.901 42.8875C146.901 42.773 146.919 42.6584 146.945 42.5438C146.972 42.438 147.016 42.3323 147.078 42.2265C147.139 42.1296 147.21 42.0326 147.298 41.9445C147.386 41.8563 147.483 41.7682 147.598 41.6801C147.421 41.5919 147.298 41.4774 147.21 41.3452C147.13 41.213 147.086 41.0631 147.086 40.9133C147.086 40.7018 147.13 40.5079 147.219 40.3316C147.307 40.1641 147.412 40.0055 147.545 39.8733C147.439 39.7411 147.351 39.5913 147.28 39.4326C147.219 39.2652 147.183 39.0713 147.183 38.8333C147.183 38.5601 147.227 38.3133 147.324 38.1018C147.412 37.8902 147.545 37.7052 147.703 37.5553C147.862 37.4055 148.065 37.2909 148.294 37.2116C148.523 37.1323 148.77 37.0882 149.043 37.0882C149.184 37.0882 149.325 37.097 149.448 37.1146C149.572 37.1323 149.695 37.1499 149.801 37.1852H151.246C151.308 37.1852 151.352 37.2116 151.379 37.2733C151.423 37.3438 151.44 37.4319 151.44 37.5553ZM150.506 42.5967C150.506 42.394 150.418 42.2353 150.25 42.1207C150.083 42.0062 149.854 41.9533 149.572 41.9445L148.338 41.9004C148.223 41.9885 148.135 42.0767 148.056 42.156C147.985 42.2353 147.924 42.3146 147.88 42.3852C147.836 42.4557 147.809 42.5262 147.791 42.5967C147.774 42.6672 147.765 42.7377 147.765 42.817C147.765 43.0462 147.88 43.2224 148.118 43.337C148.347 43.4516 148.673 43.5133 149.096 43.5133C149.36 43.5133 149.581 43.4868 149.766 43.434C149.942 43.3811 150.092 43.3106 150.198 43.2313C150.303 43.1431 150.383 43.0462 150.436 42.9404C150.488 42.8346 150.506 42.7113 150.506 42.5967ZM150.065 38.8068C150.065 38.4807 149.977 38.2252 149.801 38.0489C149.625 37.8638 149.369 37.7757 149.043 37.7757C148.876 37.7757 148.726 37.8021 148.602 37.8638C148.479 37.9167 148.373 37.996 148.285 38.093C148.206 38.1899 148.144 38.3045 148.1 38.4367C148.056 38.5689 148.038 38.7011 148.038 38.8421C148.038 39.1594 148.126 39.4062 148.303 39.5824C148.479 39.7587 148.735 39.8557 149.052 39.8557C149.228 39.8557 149.378 39.8292 149.501 39.7763C149.625 39.7235 149.73 39.6441 149.819 39.5472C149.898 39.4502 149.96 39.3357 150.004 39.2123C150.048 39.0801 150.065 38.9479 150.065 38.8068ZM153.697 41.6624C153.697 41.918 153.652 42.0855 153.573 42.1648C153.494 42.2441 153.335 42.2882 153.124 42.2882C152.912 42.2882 152.762 42.2441 152.683 42.1648C152.604 42.0855 152.56 41.918 152.56 41.6801C152.56 41.4245 152.604 41.2658 152.683 41.1777C152.762 41.0984 152.921 41.0543 153.141 41.0543C153.353 41.0543 153.503 41.0984 153.582 41.1777C153.652 41.257 153.697 41.4245 153.697 41.6624ZM156.438 41.6624C156.438 41.918 156.393 42.0855 156.314 42.1648C156.235 42.2441 156.076 42.2882 155.865 42.2882C155.653 42.2882 155.503 42.2441 155.424 42.1648C155.345 42.0855 155.301 41.918 155.301 41.6801C155.301 41.4245 155.345 41.2658 155.424 41.1777C155.503 41.0984 155.662 41.0543 155.882 41.0543C156.094 41.0543 156.244 41.0984 156.323 41.1777C156.402 41.257 156.438 41.4245 156.438 41.6624ZM159.187 41.6624C159.187 41.918 159.143 42.0855 159.064 42.1648C158.985 42.2441 158.826 42.2882 158.615 42.2882C158.403 42.2882 158.253 42.2441 158.174 42.1648C158.095 42.0855 158.05 41.918 158.05 41.6801C158.05 41.4245 158.095 41.2658 158.174 41.1777C158.253 41.0984 158.412 41.0543 158.632 41.0543C158.844 41.0543 158.993 41.0984 159.073 41.1777C159.143 41.257 159.187 41.4245 159.187 41.6624ZM161.928 41.6624C161.928 41.918 161.884 42.0855 161.805 42.1648C161.726 42.2441 161.567 42.2882 161.356 42.2882C161.144 42.2882 160.994 42.2441 160.915 42.1648C160.836 42.0855 160.791 41.918 160.791 41.6801C160.791 41.4245 160.836 41.2658 160.915 41.1777C160.994 41.0984 161.153 41.0543 161.373 41.0543C161.585 41.0543 161.734 41.0984 161.814 41.1777C161.884 41.257 161.928 41.4245 161.928 41.6624Z" fill="#F5F5F5"/>
<path d="M147.414 13.063H149.23V18.5979C149.23 19.4793 149.256 20.0433 149.3 20.3077C149.379 20.722 149.565 21.0569 149.855 21.3125C150.146 21.5681 150.552 21.6915 151.054 21.6915C151.574 21.6915 151.962 21.5681 152.217 21.3301C152.482 21.0921 152.641 20.8013 152.693 20.4488C152.746 20.0962 152.773 19.5233 152.773 18.7125V13.063H154.588V18.4304C154.588 19.6555 154.535 20.5193 154.438 21.0305C154.342 21.5328 154.156 21.9647 153.892 22.3084C153.628 22.6521 153.275 22.9342 152.834 23.1369C152.394 23.3396 151.812 23.4454 151.107 23.4454C150.243 23.4454 149.6 23.3308 149.15 23.1105C148.701 22.8901 148.357 22.5905 148.102 22.2291C147.846 21.8677 147.67 21.4888 147.59 21.101C147.476 20.5193 147.414 19.6555 147.414 18.5098V13.063ZM156.51 23.2779V13.063H159.427C160.529 13.063 161.251 13.1159 161.586 13.2128C162.106 13.3627 162.529 13.6976 162.882 14.2088C163.226 14.7199 163.402 15.381 163.402 16.2006C163.402 16.8264 163.305 17.3552 163.102 17.7782C162.899 18.2013 162.644 18.545 162.335 18.783C162.027 19.021 161.71 19.1884 161.392 19.2677C160.961 19.3647 160.335 19.4176 159.506 19.4176H158.325V23.2691H156.51V23.2779ZM158.325 14.7904V17.6901H159.321C160.035 17.6901 160.52 17.6372 160.758 17.5315C160.996 17.4257 161.19 17.2582 161.322 17.0291C161.454 16.7999 161.525 16.5355 161.525 16.2359C161.525 15.8657 161.428 15.5572 161.234 15.3193C161.04 15.0813 160.802 14.9227 160.502 14.8698C160.282 14.8257 159.85 14.7993 159.198 14.7993H158.325V14.7904ZM169.078 19.5233V17.8047H172.991V21.8766C172.612 22.2908 172.057 22.661 171.334 22.9782C170.611 23.2955 169.88 23.4542 169.139 23.4542C168.196 23.4542 167.377 23.2338 166.681 22.7843C165.984 22.3349 165.455 21.6915 165.103 20.863C164.75 20.0345 164.574 19.1267 164.574 18.1396C164.574 17.0732 164.768 16.1301 165.165 15.3016C165.561 14.4732 166.134 13.8386 166.892 13.3979C167.465 13.063 168.188 12.8867 169.043 12.8867C170.162 12.8867 171.034 13.1511 171.66 13.6888C172.286 14.2176 172.691 14.9579 172.876 15.8921L171.07 16.2711C170.946 15.7688 170.708 15.3721 170.356 15.0813C170.003 14.7904 169.571 14.6494 169.043 14.6494C168.249 14.6494 167.615 14.9315 167.148 15.5043C166.681 16.0772 166.443 16.9233 166.443 18.0515C166.443 19.2677 166.681 20.1755 167.156 20.7749C167.632 21.383 168.249 21.6827 169.025 21.6827C169.404 21.6827 169.783 21.5945 170.171 21.4271C170.55 21.2596 170.885 21.0481 171.158 20.8101V19.5145H169.078V19.5233ZM174.674 23.2779V13.063H178.499C179.46 13.063 180.156 13.1511 180.597 13.3362C181.038 13.5213 181.382 13.8474 181.646 14.3145C181.91 14.7816 182.043 15.3193 182.043 15.9274C182.043 16.6942 181.84 17.3288 181.443 17.8223C181.047 18.3247 180.456 18.6332 179.663 18.7654C180.06 19.0298 180.377 19.3118 180.632 19.6203C180.888 19.9288 181.232 20.484 181.664 21.2772L182.765 23.2691H180.588L179.275 21.0481C178.808 20.2549 178.491 19.7525 178.314 19.5498C178.147 19.3471 177.962 19.1972 177.768 19.1267C177.574 19.0474 177.274 19.0121 176.851 19.0121H176.481V23.2779H174.674ZM176.49 17.3904H177.838C178.711 17.3904 179.257 17.3464 179.469 17.2671C179.689 17.1877 179.857 17.0379 179.98 16.8352C180.104 16.6325 180.165 16.3769 180.165 16.0684C180.165 15.7247 180.086 15.4515 179.918 15.2399C179.76 15.0284 179.531 14.8962 179.231 14.8433C179.081 14.8169 178.641 14.8081 177.909 14.8081H176.49V17.3904ZM191.861 23.2779H189.887L189.102 20.9599H185.506L184.766 23.2779H182.836L186.344 13.063H188.265L191.861 23.2779ZM188.521 19.2413L187.278 15.4515L186.062 19.2413H188.521ZM192.822 13.063H196.144C196.893 13.063 197.466 13.1247 197.854 13.2569C198.383 13.4332 198.832 13.7504 199.211 14.1999C199.59 14.6494 199.872 15.2047 200.075 15.8569C200.269 16.5091 200.366 17.3111 200.366 18.2718C200.366 19.1091 200.278 19.8406 200.093 20.4488C199.864 21.1891 199.546 21.7972 199.132 22.2555C198.815 22.6081 198.392 22.8725 197.854 23.0664C197.449 23.2074 196.92 23.2867 196.25 23.2867H192.83V13.063H192.822ZM194.637 14.7904V21.5505H195.994C196.506 21.5505 196.867 21.5152 197.096 21.4535C197.387 21.3742 197.634 21.2243 197.828 21.0305C198.022 20.8277 198.18 20.5016 198.304 20.0433C198.427 19.585 198.489 18.9593 198.489 18.1749C198.489 17.3816 198.427 16.7823 198.304 16.3593C198.18 15.9362 198.013 15.6101 197.784 15.3721C197.563 15.1342 197.281 14.9755 196.946 14.8874C196.691 14.8257 196.197 14.7904 195.457 14.7904H194.637ZM201.908 23.2779V13.063H208.58V14.7904H203.724V17.0555H208.245V18.7742H203.724V21.5505H208.748V23.2691H201.908V23.2779Z" fill="#404042"/>
</svg>
