<svg width="316" height="260" viewBox="0 0 316 260" fill="none" xmlns="http://www.w3.org/2000/svg">
<path d="M0.351562 257.064H315.51V260H0.351562V257.064Z" fill="#021B79"/>
<path d="M266.174 3.35918V138.24C266.175 138.682 266.088 139.119 265.92 139.527C265.751 139.935 265.504 140.306 265.192 140.619C264.88 140.932 264.51 141.18 264.102 141.349C263.694 141.518 263.257 141.606 262.815 141.606H85.9686C85.527 141.606 85.0898 141.518 84.682 141.349C84.2742 141.18 83.9037 140.932 83.5918 140.619C83.2798 140.306 83.0325 139.935 82.864 139.527C82.6954 139.119 82.6089 138.682 82.6094 138.24V3.35918C82.6098 2.46839 82.9638 1.6142 83.5937 0.984312C84.2236 0.354426 85.0778 0.000388907 85.9686 0H262.815C263.706 0.000389026 264.56 0.354528 265.19 0.984572C265.82 1.61462 266.174 2.46827 266.174 3.35918Z" fill="#0E1738"/>
<path d="M86.5703 3.95996H262.215V137.646H86.5703V3.95996Z" fill="#E8F2FD"/>
<path d="M98.6875 31.4434H250.097V32.1771H98.6875V31.4434ZM98.6875 57.4378H250.097V58.1716H98.6875V57.4378ZM98.6875 83.4329H250.097V84.1667H98.6875V83.4329ZM98.6875 109.428H250.097V110.162H98.6875V109.428Z" fill="#A7B6C6"/>
<path d="M116.672 15.8975H117.406V125.709H116.672V15.8975ZM145.347 15.8975H146.081V125.709H145.347V15.8975ZM174.023 15.8975H174.757V125.709H174.023V15.8975ZM202.699 15.8975H203.432V125.709H202.699V15.8975ZM231.374 15.8975H232.108V125.709H231.374V15.8975Z" fill="#A7B6C6"/>
<path d="M183.172 256.946L190.248 211.34H192.805L185.728 256.946H183.172ZM199.881 256.946L192.805 211.34H195.36L202.437 256.946H199.881Z" fill="#708EFE"/>
<path d="M186.109 213.784H198.547V218.307H186.109V213.784Z" fill="#708EFE"/>
<path d="M130.8 160.679C128.933 163.01 114.241 166.932 114.241 166.932L108.68 155.999C108.68 155.999 116.447 145.069 118.681 145.328C120.89 145.589 117.852 151.489 117.852 151.489C118.984 150.732 127.416 145.111 127.907 147.745C128.086 148.702 126.772 150.581 126.08 151.19C128.546 150.013 132.358 149.022 132.669 150.298C133.102 152.075 130.071 153.426 128.993 153.848C130.108 153.459 133.369 152.476 133.449 154.306C133.499 155.419 129.667 157.184 128.548 157.806C129.508 157.665 132.019 159.161 130.801 160.679H130.8Z" fill="#BDDDFE"/>
<path d="M25.8203 256.947L26.692 245.381H33.1147L32.243 256.947H25.8203ZM76.9162 256.947L76.0444 245.381H82.4664L83.3381 256.947H76.9162Z" fill="#060E2D"/>
<path d="M18.4023 247.02H79.7085C80.4375 247.02 81.1367 246.73 81.6521 246.215C82.1676 245.699 82.4572 245 82.4572 244.271C82.4572 243.542 82.1676 242.843 81.6521 242.328C81.1367 241.812 80.4375 241.523 79.7085 241.523H18.4023L5.47331 145.13C5.37649 144.407 4.9966 143.753 4.4172 143.31C3.8378 142.868 3.10636 142.674 2.38379 142.77C1.66121 142.867 1.00669 143.247 0.564211 143.827C0.121732 144.406 -0.0724588 145.137 0.0243583 145.86L12.9343 242.231C13.2953 244.959 15.6463 247.02 18.4023 247.02Z" fill="#070F2B"/>
<path d="M56.3976 142.772C56.7554 142.723 57.1191 142.746 57.468 142.839C57.8169 142.931 58.1442 143.092 58.4311 143.311C58.718 143.53 58.9589 143.803 59.14 144.116C59.3211 144.428 59.439 144.773 59.4868 145.131L72.4157 241.523H116.41C117.139 241.523 117.838 241.813 118.354 242.328C118.869 242.844 119.159 243.543 119.159 244.272C119.159 245.001 118.869 245.7 118.354 246.216C117.838 246.731 117.139 247.021 116.41 247.021H79.7072C80.4362 247.021 81.1353 246.731 81.6508 246.216C82.1663 245.7 82.4559 245.001 82.4559 244.272C82.4559 243.543 82.1663 242.844 81.6508 242.328C81.1353 241.813 80.4362 241.523 79.7072 241.523H18.4009L5.47197 145.131C5.42419 144.773 5.30636 144.428 5.12521 144.116C4.94407 143.803 4.70317 143.53 4.41628 143.311C4.12939 143.092 3.80213 142.931 3.45322 142.839C3.1043 142.746 2.74057 142.723 2.38281 142.772H56.3976Z" fill="#0E1738"/>
<path d="M94.6785 256.946L89.1723 233.494L57.1309 221.386L46.5625 214.24L59.7696 211.065L60.9032 210.646L69.2586 207.547L73.8535 210.122L104.045 215.036C110.209 215.662 115.3 220.129 116.716 226.154L122.656 256.946H94.6785Z" fill="#479FF7"/>
<path d="M94.6785 256.946L89.1723 233.495L57.1309 221.387L46.5625 214.24L59.7696 211.066L60.9032 210.646L67.8571 212.309L84.3691 214.659C92.3818 215.738 98.2564 222.74 97.9196 230.821L97.3018 256.946H94.6785Z" fill="#2183E5"/>
<path d="M66.648 256.946L66.5849 241.801H49.5175C37.8124 241.801 28.1326 232.669 27.4531 220.982L27.8031 203.704L63.7695 212.308L80.2777 214.658C88.2919 215.737 94.1657 222.742 93.8319 230.822L93.1781 256.946H66.648Z" fill="#479FF7"/>
<path d="M52.8281 165.316C52.8281 165.316 58.8993 174.166 65.8048 181.353C70.2015 185.926 74.9365 189.826 78.6619 190.353C80.1675 190.566 81.9235 190.397 83.8423 189.939C98.2681 186.497 116.293 167.461 116.293 167.461L108.568 154.335L82.4562 168.089L64.6843 140.673L52.8281 165.316Z" fill="#3A81C9"/>
<path d="M65.8125 181.353C70.2092 185.926 74.9442 189.827 78.6696 190.354C80.1753 190.566 81.9312 190.398 83.85 189.94C76.7816 180.056 67.4928 151.154 67.4928 151.154L65.8125 181.353Z" fill="#1C68B5"/>
<path d="M20.0275 161.71C21.3131 171.16 23.6905 180.908 24.1858 185.731C24.2232 186.025 26.5001 204.057 26.9638 211.972C27.0078 212.662 27.0328 213.271 27.0453 213.792C27.5031 219.674 77.5592 215.058 77.1014 209.169C77.1014 209.169 72.8543 197.09 71.4044 183.541C69.8011 168.562 69.2691 150.894 65.9687 142.746C63.8804 137.584 55.7399 135.53 51.8136 134.966C47.3537 134.333 41.8974 134.445 36.6796 135.217C35.1864 135.437 33.2859 135.694 31.2292 136.251C27.2214 137.324 22.1349 138.898 20.7488 141.846C18.6473 146.306 18.9613 153.907 20.0275 161.71Z" fill="#3A81C9"/>
<path d="M20.0234 161.71C21.309 171.161 23.6864 180.908 24.1817 185.731C24.2191 186.025 26.496 204.057 26.9597 211.972L63.9064 209.18L64.2813 193.473L35.8977 184.552C35.8977 184.552 37.1143 161.139 35.8977 155.619C34.687 150.1 30.71 144.851 30.71 144.851L20.0234 161.71Z" fill="#1C68B5"/>
<path d="M57.0717 93.5469C58.9522 95.3335 60.6412 97.3114 62.1112 99.4486C62.6982 100.302 63.272 101.272 63.1532 102.3C63.0196 103.455 62.0335 104.34 60.9805 104.832C58.7682 105.867 55.974 105.56 54.078 104.021C53.4229 103.483 52.8802 102.822 52.481 102.074C52.0817 101.327 51.8337 100.508 51.7512 99.6643C51.6772 98.8201 51.7704 97.9695 52.0253 97.1614C52.2803 96.3532 52.692 95.6032 53.2371 94.9542" fill="#060E2D"/>
<path d="M47.7312 143.888C41.1354 142.978 35.8883 135.691 35.8978 135.487C36.1084 130.619 36.0372 119.331 35.2587 115.765C35.0855 114.979 35.8692 114.33 36.6088 114.643L52.3995 121.244C52.8838 121.448 53.1259 121.997 52.9439 122.493C52.5793 123.509 52.2971 124.552 52.1001 125.613C51.6745 127.91 51.665 130.036 51.7743 131.603C51.7978 131.946 51.8117 132.539 51.8315 133.222V133.227C51.8668 134.979 51.8389 136.022 51.8888 136.283C51.9145 136.411 51.4588 144.403 47.7312 143.888Z" fill="#BDDDFE"/>
<path d="M51.7979 132.014L41.4129 125.457C39.2556 121.698 50.2673 123.391 50.2673 123.391C50.2673 123.391 51.1111 123.532 51.8596 123.836C51.6805 126.162 51.7084 131.332 51.7979 132.014Z" fill="#89BDF1"/>
<path d="M54.0145 128.466C45.0596 131.002 36.9199 122.057 34.6761 118.321V118.316C34.3892 117.84 34.12 117.353 33.8689 116.856C33.7917 116.701 33.6744 116.57 33.5292 116.476C32.3581 115.714 27.053 112.032 28.3297 108.689C29.164 106.512 30.6337 106.237 31.7197 106.39C32.3588 106.479 32.9077 105.911 32.813 105.273C30.2537 87.9317 49.3962 88.438 54.7622 96.2108C54.9985 96.5513 55.2406 96.971 55.4835 97.4597C59.0004 104.422 63.6342 125.739 54.0145 128.465V128.466Z" fill="#BDDDFE"/>
<path d="M35.9709 107.101L35.9394 108.957C35.9379 109.165 35.8683 109.367 35.7413 109.532C35.9357 109.065 35.4463 108.289 35.5241 107.766C35.5578 107.514 35.7303 107.298 35.9709 107.101Z" fill="#060E2D"/>
<path d="M46.1726 111.633C46.7782 111.598 47.2259 110.832 47.1725 109.924C47.1192 109.015 46.585 108.307 45.9794 108.343C45.3738 108.378 44.9261 109.144 44.9794 110.052C45.0327 110.961 45.5669 111.669 46.1726 111.633Z" fill="#060E2D"/>
<path d="M44.375 107.628C44.2993 107.628 44.2254 107.605 44.1635 107.561C44.1016 107.517 44.0547 107.456 44.0292 107.385C44.0037 107.313 44.0009 107.236 44.0212 107.163C44.0415 107.09 44.0838 107.025 44.1424 106.977C46.2953 105.215 47.6916 106.401 47.7503 106.452C47.8199 106.517 47.8617 106.607 47.8666 106.702C47.8716 106.797 47.8395 106.89 47.7771 106.962C47.7146 107.034 47.6267 107.078 47.5319 107.086C47.4371 107.095 47.3428 107.066 47.269 107.006C47.2213 106.966 46.2512 106.2 44.6069 107.546C44.5415 107.599 44.4596 107.629 44.375 107.629V107.628Z" fill="#060E2D"/>
<path d="M52.7169 118.59C52.6428 118.59 52.5703 118.568 52.509 118.526C52.4477 118.484 52.4006 118.425 52.3737 118.356C52.3469 118.286 52.3416 118.211 52.3586 118.139C52.3756 118.066 52.4141 118.001 52.4689 117.951C52.7646 117.681 52.9312 117.326 52.9385 116.952C52.9402 116.769 52.9042 116.587 52.8326 116.418C52.761 116.25 52.6555 116.098 52.5225 115.971C52.3926 115.845 52.2422 115.733 52.0918 115.621C51.9846 115.543 51.8793 115.462 51.7763 115.378C51.0535 114.78 50.5626 113.935 50.355 112.934C50.1744 112.065 50.2163 111.195 50.2574 110.354C50.2669 110.152 50.4577 110.002 50.6411 110.006C50.6893 110.008 50.7365 110.02 50.7801 110.04C50.8237 110.061 50.8628 110.09 50.8952 110.125C50.9277 110.161 50.9528 110.203 50.9691 110.248C50.9854 110.293 50.9927 110.342 50.9904 110.39C50.9515 111.185 50.9119 112.007 51.0733 112.785C51.1944 113.368 51.496 114.193 52.2437 114.812C52.3354 114.888 52.433 114.96 52.5298 115.032C52.7067 115.164 52.8828 115.297 53.0361 115.446C53.4551 115.857 53.6811 116.396 53.6716 116.965C53.662 117.542 53.4104 118.085 52.9642 118.493C52.8966 118.555 52.8084 118.589 52.7169 118.589V118.59ZM49.9873 123.187C48.5675 123.187 47.1594 122.455 46.3537 121.284C46.2985 121.204 46.2775 121.105 46.2952 121.009C46.3129 120.914 46.3678 120.829 46.448 120.774C46.5282 120.718 46.627 120.697 46.7227 120.715C46.8184 120.733 46.9032 120.788 46.9583 120.868C47.662 121.89 48.9131 122.51 50.1554 122.448C50.2522 122.445 50.3467 122.479 50.4186 122.544C50.4906 122.609 50.5344 122.699 50.5406 122.796C50.5431 122.844 50.536 122.893 50.5198 122.938C50.5036 122.984 50.4786 123.025 50.4462 123.061C50.4139 123.097 50.3748 123.126 50.3311 123.147C50.2875 123.167 50.2403 123.179 50.1921 123.181C50.1236 123.185 50.0559 123.187 49.9873 123.187Z" fill="#89BDF1"/>
<path d="M54.0145 128.466C45.0596 131.002 36.9199 122.057 34.6761 118.321V118.316C34.3892 117.84 34.12 117.353 33.8689 116.856C33.7917 116.701 33.6744 116.57 33.5292 116.476C32.3581 115.714 27.053 112.032 28.3297 108.689C29.164 106.512 30.6337 106.237 31.7197 106.39C32.3588 106.479 32.9077 105.911 32.813 105.273C30.2537 87.9317 49.3962 88.438 54.7622 96.2108C54.9985 96.5513 55.2406 96.971 55.4835 97.4597C59.0004 104.422 63.6342 125.739 54.0145 128.465V128.466Z" fill="#BDDDFE"/>
<path d="M70.8299 92.1986C70.9583 93.5268 69.9787 95.4287 69.4541 96.1595C68.3439 97.6858 66.7208 98.884 64.9664 99.5451C62.1781 100.597 59.1432 100.629 56.2015 100.492C53.207 100.354 50.2199 100.091 47.2789 99.5033C45.1649 99.0814 42.3656 97.5074 40.3705 99.044C40.1797 99.4211 40.7022 100.682 40.7484 101.118C40.9685 103.3 39.41 105.248 37.566 106.214C36.8924 106.57 35.6612 106.858 35.5247 107.766C35.4469 108.289 35.9364 109.065 35.7419 109.532C35.6649 109.638 35.5674 109.727 35.4552 109.794C35.343 109.861 35.2184 109.905 35.0889 109.923C34.8661 109.955 34.6391 109.91 34.4453 109.795C34.2515 109.681 34.1024 109.504 34.0227 109.293C33.6103 108.209 33.3315 106.637 31.9505 106.384C30.2797 106.082 28.8929 107.19 28.3221 108.692C27.5883 110.615 29.025 112.553 30.2996 113.861C31.6255 115.225 33.5479 116.083 34.38 117.813C36.1059 121.374 35.8872 125.612 35.9943 129.462C35.9958 129.467 35.9914 129.491 35.998 129.497C35.7999 129.245 35.601 128.987 35.408 128.728C31.9916 124.154 28.763 119.327 26.0877 114.277C25.0649 112.307 18.5358 101.662 22.38 90.4956C23.207 88.094 30.786 84.1015 33.1928 84.4699C33.2713 84.4104 33.3557 84.3503 33.4467 84.3011C33.2097 83.4044 33.7893 82.3897 34.606 81.8914C35.491 81.3521 36.5652 81.2677 37.5998 81.1914C40.6684 80.9786 43.7363 80.7607 46.8108 80.5479C47.9753 80.4672 49.1398 80.3821 50.3086 80.3608C52.2678 80.3248 54.235 80.4019 56.1773 80.6822C57.7593 80.914 60.2145 81.1481 61.3966 82.339C61.9198 82.8681 62.1392 83.7662 61.6659 84.398C61.9403 84.0311 64.0051 84.362 64.3904 84.4207C65.3721 84.5807 66.3304 84.8977 67.2117 85.3687C69.2729 86.4789 70.937 88.6656 70.1967 91.1075C70.022 91.0797 69.8423 91.0584 69.6874 91.1295C69.526 91.2022 69.4181 91.4069 69.5069 91.5544C69.5964 91.7136 69.8518 91.6997 69.9839 91.5764C70.116 91.4531 70.1673 91.2646 70.2128 91.0885C70.601 91.3306 70.7873 91.7268 70.8299 92.1986Z" fill="#060E2D"/>
<path d="M28.5164 118.568C28.7651 118.987 29.0278 119.4 29.2831 119.816C29.0263 119.405 28.771 118.991 28.5156 118.567L28.5164 118.568ZM35.9443 128.711C35.7946 128.476 35.6141 128.19 35.4108 127.866C35.5899 128.147 35.763 128.433 35.9443 128.711ZM34.8128 127.928C32.8398 125.315 30.9944 122.608 29.2831 119.816C31.0199 122.591 32.8646 125.297 34.8128 127.928ZM35.744 109.532C35.6706 109.728 35.4798 109.868 35.0909 109.923C35.3624 109.883 35.5943 109.74 35.744 109.532ZM70.2031 91.0774C70.1224 91.336 70.008 91.5827 69.8627 91.8112C69.5442 91.8428 69.4026 91.3306 69.6484 91.1273C69.8047 91.0026 70.0189 91.0026 70.2031 91.0774Z" fill="#060E2D"/>
<path d="M46.1726 111.633C46.7782 111.598 47.2259 110.832 47.1725 109.924C47.1192 109.015 46.585 108.307 45.9794 108.343C45.3738 108.378 44.9261 109.144 44.9794 110.052C45.0327 110.961 45.5669 111.669 46.1726 111.633Z" fill="#060E2D"/>
<path d="M44.375 107.628C44.2993 107.628 44.2254 107.605 44.1635 107.561C44.1016 107.517 44.0547 107.456 44.0292 107.385C44.0037 107.313 44.0009 107.236 44.0212 107.163C44.0415 107.09 44.0838 107.025 44.1424 106.977C46.2953 105.215 47.6916 106.401 47.7503 106.452C47.8199 106.517 47.8617 106.607 47.8666 106.702C47.8716 106.797 47.8395 106.89 47.7771 106.962C47.7146 107.034 47.6267 107.078 47.5319 107.086C47.4371 107.095 47.3428 107.066 47.269 107.006C47.2213 106.966 46.2512 106.2 44.6069 107.546C44.5415 107.599 44.4596 107.629 44.375 107.629V107.628Z" fill="#060E2D"/>
<path d="M55.4616 111.513C56.0672 111.478 56.5149 110.712 56.4616 109.804C56.4082 108.895 55.874 108.187 55.2684 108.223C54.6628 108.258 54.2151 109.024 54.2685 109.932C54.3218 110.841 54.856 111.549 55.4616 111.513Z" fill="#060E2D"/>
<path d="M53.6641 107.509C53.5883 107.509 53.5145 107.486 53.4526 107.442C53.3907 107.399 53.3438 107.337 53.3183 107.266C53.2928 107.194 53.29 107.117 53.3103 107.044C53.3305 106.971 53.3729 106.906 53.4315 106.858C55.5836 105.096 56.9807 106.281 57.0394 106.333C57.0758 106.364 57.1056 106.403 57.1271 106.446C57.1486 106.489 57.1614 106.536 57.1648 106.584C57.1681 106.632 57.162 106.681 57.1467 106.726C57.1314 106.772 57.1073 106.814 57.0757 106.851C57.0441 106.887 57.0056 106.917 56.9625 106.938C56.9194 106.96 56.8725 106.973 56.8244 106.976C56.7763 106.979 56.7281 106.973 56.6824 106.958C56.6367 106.943 56.5944 106.918 56.558 106.887C56.514 106.85 55.544 106.078 53.8959 107.426C53.8306 107.48 53.7486 107.509 53.6641 107.509Z" fill="#060E2D"/>
<path d="M52.7169 118.59C52.6428 118.59 52.5703 118.568 52.509 118.526C52.4477 118.484 52.4006 118.425 52.3737 118.356C52.3469 118.286 52.3416 118.211 52.3586 118.139C52.3756 118.066 52.4141 118.001 52.4689 117.951C52.7646 117.681 52.9312 117.326 52.9385 116.952C52.9402 116.769 52.9042 116.587 52.8326 116.418C52.761 116.25 52.6555 116.098 52.5225 115.971C52.3926 115.845 52.2422 115.733 52.0918 115.621C51.9846 115.543 51.8793 115.462 51.7763 115.378C51.0535 114.78 50.5626 113.935 50.355 112.934C50.1744 112.065 50.2163 111.195 50.2574 110.354C50.2669 110.152 50.4577 110.002 50.6411 110.006C50.6893 110.008 50.7365 110.02 50.7801 110.04C50.8237 110.061 50.8628 110.09 50.8952 110.125C50.9277 110.161 50.9528 110.203 50.9691 110.248C50.9854 110.293 50.9927 110.342 50.9904 110.39C50.9515 111.185 50.9119 112.007 51.0733 112.785C51.1944 113.368 51.496 114.193 52.2437 114.812C52.3354 114.888 52.433 114.96 52.5298 115.032C52.7067 115.164 52.8828 115.297 53.0361 115.446C53.4551 115.857 53.6811 116.396 53.6716 116.965C53.662 117.542 53.4104 118.085 52.9642 118.493C52.8966 118.555 52.8084 118.589 52.7169 118.589V118.59ZM49.9873 123.187C48.5675 123.187 47.1594 122.455 46.3537 121.284C46.2985 121.204 46.2775 121.105 46.2952 121.009C46.3129 120.914 46.3678 120.829 46.448 120.774C46.5282 120.718 46.627 120.697 46.7227 120.715C46.8184 120.733 46.9032 120.788 46.9583 120.868C47.662 121.89 48.9131 122.51 50.1554 122.448C50.2522 122.445 50.3467 122.479 50.4186 122.544C50.4906 122.609 50.5344 122.699 50.5406 122.796C50.5431 122.844 50.536 122.893 50.5198 122.938C50.5036 122.984 50.4786 123.025 50.4462 123.061C50.4139 123.097 50.3748 123.126 50.3311 123.147C50.2875 123.167 50.2403 123.179 50.1921 123.181C50.1236 123.185 50.0559 123.187 49.9873 123.187Z" fill="#89BDF1"/>
<path d="M88.9619 200.644H121.135V205.438H84.5703V205.034C84.5705 203.87 85.0333 202.753 85.8568 201.93C86.6804 201.106 87.7973 200.644 88.9619 200.644Z" fill="#A7B6C6"/>
<path d="M125.703 205.439H105.023L111.165 167.308C111.275 166.557 111.651 165.871 112.224 165.375C112.798 164.879 113.531 164.605 114.289 164.604H125.704L125.703 205.439Z" fill="#A7B6C6"/>
<path d="M108.031 205.439H150.61C151.969 205.439 153.282 204.95 154.309 204.061C155.336 203.172 156.01 201.943 156.205 200.599L161.516 168.218C161.797 166.317 160.318 164.605 158.391 164.605H117.297C116.539 164.606 115.806 164.879 115.232 165.376C114.659 165.872 114.283 166.558 114.173 167.308L108.031 205.439Z" fill="#D7E5F4"/>
<path d="M133.347 192.148C135.97 192.148 138.486 190.013 138.967 187.39C139.442 184.761 137.703 182.634 135.073 182.634C132.45 182.634 129.935 184.762 129.453 187.39C128.978 190.02 130.718 192.148 133.347 192.148Z" fill="#A7B6C6"/>
<path d="M45.5469 256.946L52.6226 211.34H55.179L48.1026 256.946H45.5469ZM62.2547 256.946L55.179 211.34H57.7347L64.8112 256.946H62.2547Z" fill="#708EFE"/>
<path d="M38.3359 205.438H206.196V213.783H38.3359V205.438Z" fill="#83BFFC"/>
<path d="M48.4766 213.784H60.9139V218.307H48.4766V213.784Z" fill="#708EFE"/>
<path d="M80.8939 208.788C78.2267 210.131 63.2351 207.584 63.2351 207.584L62.7266 195.329C62.7266 195.329 74.3377 188.622 76.2616 189.786C78.1606 190.942 72.9435 195.044 72.9435 195.044C74.2885 194.827 84.2949 193.224 83.6448 195.823C83.41 196.769 81.4332 197.929 80.5505 198.196C83.2823 198.152 87.1617 198.837 86.913 200.127C86.5681 201.923 83.2493 201.89 82.0921 201.824C83.2684 201.934 86.643 202.399 85.9554 204.096C85.5372 205.129 81.318 205.139 80.0413 205.24C80.9731 205.511 82.6337 207.916 80.8939 208.788Z" fill="#BDDDFE"/>
<path d="M21.7385 140.477C15.1676 146.215 9.20354 191.738 17.6763 202.596C25.3281 212.401 63.9117 209.181 63.9117 209.181L64.2867 193.474L33.8706 189.489C33.8706 189.489 37.1549 161.186 33.646 150.189C30.5598 140.515 21.7385 140.477 21.7385 140.477Z" fill="#3A81C9"/>
<path d="M138.534 41.1787C139.159 44.967 138.834 48.8509 137.591 52.4832H124.422C126.092 47.6047 126.092 42.3092 124.422 37.4307H133.802C135.429 38.6159 137.008 39.8662 138.534 41.1787H138.534Z" fill="#0575E6"/>
<path d="M138.542 41.1787H134.754C134.544 39.9054 134.229 38.6517 133.811 37.4307C135.438 38.6159 137.016 39.8662 138.542 41.1787ZM136.748 44.929H127.367C127.367 44.593 127.36 44.2569 127.345 43.9208H136.725C136.74 44.2569 136.747 44.593 136.748 44.929ZM136.642 47.1773H127.262C127.293 46.842 127.318 46.5066 127.336 46.172H136.716C136.699 46.5076 136.674 46.8428 136.642 47.1773ZM136.318 49.4094H126.938C127.002 49.0785 127.059 48.7461 127.109 48.413H136.49C136.44 48.7461 136.383 49.0785 136.318 49.4094Z" fill="#0E63B9"/>
<path d="M167.119 67.0254C167.743 70.8137 167.419 74.6975 166.175 78.3298H153.008C154.678 73.4514 154.678 68.1558 153.008 63.2773H162.388C164.015 64.4626 165.593 65.7129 167.119 67.0254Z" fill="#6081FE"/>
<path d="M167.12 67.0254H163.332C163.123 65.752 162.807 64.4984 162.39 63.2773C164.016 64.4626 165.594 65.7129 167.12 67.0254ZM165.327 70.7757H155.946C155.946 70.4396 155.938 70.1036 155.923 69.7675H165.303C165.318 70.1036 165.326 70.4396 165.327 70.7757ZM165.22 73.0232H155.839C155.871 72.6886 155.896 72.3533 155.914 72.018H165.294C165.276 72.354 165.252 72.6894 165.22 73.0232H165.22ZM164.896 75.2561H155.516C155.58 74.9252 155.637 74.5928 155.688 74.2596H165.068C165.018 74.5928 164.961 74.9252 164.896 75.2561Z" fill="#475FB9"/>
<path d="M217.788 106.578C222.486 106.578 226.294 102.769 226.294 98.071C226.294 93.373 222.486 89.5645 217.788 89.5645C213.09 89.5645 209.281 93.373 209.281 98.071C209.281 102.769 213.09 106.578 217.788 106.578Z" fill="#3A81C9"/>
<path d="M217.788 96.7603C218.975 96.7603 219.936 95.7987 219.936 94.6126C219.936 93.4264 218.975 92.4648 217.788 92.4648C216.602 92.4648 215.641 93.4264 215.641 94.6126C215.641 95.7987 216.602 96.7603 217.788 96.7603Z" fill="white"/>
<path d="M222.719 102.535C222.594 99.9169 220.438 97.8301 217.789 97.8301C215.14 97.8301 212.983 99.9169 212.859 102.536L222.719 102.535Z" fill="white"/>
<path d="M71.1459 37.4386C71.1906 39.0153 70.9071 40.5842 70.3136 42.0456C69.72 43.507 68.8293 44.8292 67.6979 45.9283C67.2671 46.343 66.8832 46.8039 66.5533 47.3026C65.592 48.776 65.0755 50.5055 65.1239 52.293L65.1305 52.5219L55.1366 52.7934L55.1292 52.563C55.0691 50.3324 54.1387 48.2353 52.5816 46.654C52.4422 46.5116 52.2969 46.3737 52.1472 46.2401C50.9836 45.2068 50.0446 43.9454 49.3884 42.5343C48.7322 41.1232 48.3727 39.5923 48.3324 38.0366C48.1944 32.9245 51.4435 28.5072 56.0391 26.9362L56.0457 26.9347C56.2204 26.8753 56.3972 26.8203 56.5762 26.7682C57.5019 26.5036 58.4572 26.3569 59.4196 26.3316H59.421C59.5438 26.3284 59.6666 26.3269 59.7894 26.3272C59.8371 26.3272 59.8833 26.3286 59.931 26.3294C60.0073 26.3294 60.0851 26.333 60.1599 26.3352C60.351 26.3424 60.5419 26.3547 60.7323 26.3719C66.4381 26.8658 70.9867 31.5773 71.1459 37.4386Z" fill="#83BFFC"/>
<path d="M63.0772 52.9845L62.3493 52.8157L65.244 40.2918C65.2581 40.2313 65.2582 40.1684 65.244 40.108C65.2299 40.0475 65.202 39.9911 65.1626 39.9432C65.1234 39.895 65.0736 39.8565 65.0171 39.8306C64.9606 39.8048 64.8989 39.7923 64.8368 39.7943C64.756 39.831 64.6313 40.1494 64.5638 40.3211C64.4016 40.7372 64.1786 41.3073 63.615 41.322C63.0522 41.3374 62.7991 40.7804 62.6142 40.3739C62.5379 40.2066 62.3962 39.8948 62.3119 39.8625C62.2312 39.8992 62.1071 40.2177 62.0404 40.3894C61.8775 40.8054 61.6551 41.3755 61.0924 41.3909C60.5288 41.4056 60.2757 40.8487 60.0908 40.4422C60.0152 40.2749 59.8736 39.963 59.7884 39.9308C59.7092 39.9674 59.5845 40.2866 59.517 40.4576C59.3555 40.8736 59.1325 41.4438 58.5697 41.4592C58.0061 41.4739 57.753 40.9169 57.5681 40.5104C57.4925 40.3431 57.3509 40.0313 57.2658 39.999C57.1865 40.0357 57.0618 40.3549 56.9943 40.5258C56.8328 40.9419 56.6098 41.512 56.0462 41.5274C55.4834 41.5421 55.2303 40.9852 55.0454 40.5787C54.9698 40.4114 54.8282 40.1002 54.7431 40.0672C54.681 40.0689 54.6201 40.0847 54.5652 40.1136C54.5102 40.1425 54.4626 40.1837 54.4261 40.2339C54.3896 40.2841 54.3651 40.342 54.3545 40.4032C54.344 40.4644 54.3476 40.5272 54.3652 40.5867L57.9342 52.936L57.2166 53.143L53.6475 40.7937C53.5981 40.6246 53.5884 40.4464 53.6191 40.2729C53.6497 40.0995 53.72 39.9354 53.8244 39.7935C54.0372 39.503 54.3652 39.3313 54.7247 39.321C55.2875 39.3063 55.5407 39.8625 55.7256 40.2697C55.8019 40.437 55.9435 40.7482 56.0279 40.7812C56.1079 40.7445 56.2319 40.4253 56.2994 40.2543C56.4615 39.8376 56.6839 39.2682 57.2474 39.2527C57.8102 39.2373 58.0634 39.7943 58.2483 40.2015C58.3246 40.3688 58.4662 40.6799 58.5506 40.7129C58.6306 40.6755 58.7546 40.3571 58.8221 40.1854C58.9842 39.7693 59.2066 39.1992 59.7701 39.1845C60.3329 39.1691 60.586 39.726 60.771 40.1325C60.8473 40.2998 60.9889 40.6117 61.0733 40.644C61.1533 40.6073 61.2773 40.2888 61.3448 40.1171C61.5069 39.7011 61.73 39.1309 62.2928 39.1155C62.8556 39.1009 63.1087 39.6578 63.2944 40.0643C63.37 40.2316 63.5116 40.5434 63.5967 40.5757C63.6767 40.539 63.8014 40.2199 63.8682 40.0489C64.0311 39.6328 64.2534 39.0627 64.8169 39.0473C65.1765 39.0378 65.5133 39.1918 65.7415 39.4707C65.969 39.7495 66.0526 40.1091 65.9719 40.4605L63.0772 52.9845Z" fill="white"/>
<path d="M59.9775 22.5324L60.0252 24.2759C60.0291 24.3537 60.0174 24.4316 59.9907 24.5049C59.9641 24.5782 59.9231 24.6455 59.8701 24.7027C59.8172 24.7599 59.7533 24.806 59.6823 24.8382C59.6112 24.8705 59.5345 24.8882 59.4565 24.8903C59.3786 24.8925 59.301 24.879 59.2283 24.8508C59.1556 24.8225 59.0893 24.78 59.0332 24.7258C58.9772 24.6716 58.9325 24.6067 58.9019 24.535C58.8713 24.4632 58.8553 24.3861 58.8548 24.3081L58.8072 22.564C58.8033 22.486 58.815 22.4081 58.8416 22.3348C58.8683 22.2615 58.9093 22.1942 58.9623 22.1369C59.0153 22.0797 59.0793 22.0336 59.1503 22.0014C59.2214 21.9692 59.2982 21.9515 59.3762 21.9494C59.4542 21.9473 59.5318 21.9608 59.6045 21.9892C59.6772 22.0175 59.7435 22.06 59.7996 22.1144C59.8556 22.1687 59.9002 22.2336 59.9307 22.3054C59.9613 22.3772 59.9772 22.4544 59.9775 22.5324ZM52.4946 24.4013L53.4074 25.8879C53.4487 25.9535 53.4767 26.0266 53.4896 26.103C53.5025 26.1794 53.5001 26.2577 53.4825 26.3331C53.4649 26.4086 53.4326 26.4799 53.3873 26.5428C53.342 26.6057 53.2846 26.6589 53.2186 26.6995C53.1525 26.74 53.0791 26.7671 53.0025 26.779C52.9259 26.791 52.8477 26.7876 52.7725 26.7691C52.6972 26.7506 52.6263 26.7173 52.564 26.6713C52.5017 26.6252 52.4492 26.5672 52.4094 26.5006L51.4966 25.014C51.4553 24.9485 51.4273 24.8754 51.4144 24.799C51.4015 24.7225 51.4039 24.6443 51.4215 24.5688C51.439 24.4933 51.4714 24.4221 51.5167 24.3592C51.562 24.2963 51.6194 24.243 51.6854 24.2025C51.7515 24.1619 51.8249 24.1349 51.9015 24.1229C51.9781 24.111 52.0563 24.1144 52.1315 24.1329C52.2068 24.1514 52.2776 24.1846 52.34 24.2307C52.4023 24.2768 52.4548 24.3348 52.4946 24.4013ZM67.393 24.6552L66.5616 26.1888C66.526 26.2581 66.4768 26.3197 66.4171 26.3698C66.3574 26.4199 66.2882 26.4576 66.2137 26.4806C66.1393 26.5036 66.0609 26.5115 65.9833 26.5039C65.9057 26.4962 65.8305 26.4732 65.7619 26.436C65.6933 26.3989 65.6329 26.3484 65.5841 26.2876C65.5353 26.2268 65.4991 26.1569 65.4777 26.0819C65.4563 26.0069 65.4501 25.9284 65.4595 25.851C65.4688 25.7736 65.4935 25.6989 65.5321 25.6311L66.3635 24.0975C66.3991 24.0282 66.4482 23.9667 66.508 23.9166C66.5677 23.8665 66.6369 23.8288 66.7113 23.8057C66.7858 23.7827 66.8642 23.7748 66.9418 23.7824C67.0194 23.7901 67.0946 23.8132 67.1632 23.8503C67.2317 23.8874 67.2922 23.9379 67.341 23.9987C67.3898 24.0595 67.4259 24.1295 67.4473 24.2044C67.4687 24.2794 67.475 24.3579 67.4656 24.4353C67.4563 24.5127 67.4316 24.5875 67.393 24.6552Z" fill="#83BFFC"/>
<path d="M66.8636 53.556C66.8709 53.8532 66.7579 54.1254 66.5679 54.3265C66.3778 54.5268 66.1122 54.6545 65.815 54.6625L54.5693 54.9671C54.4277 54.9709 54.2867 54.9468 54.1543 54.8962C54.022 54.8455 53.9009 54.7693 53.798 54.6719C53.6951 54.5745 53.6124 54.4577 53.5547 54.3283C53.4969 54.1989 53.4652 54.0594 53.4613 53.9178C53.4575 53.7761 53.4816 53.6351 53.5322 53.5028C53.5829 53.3704 53.6591 53.2494 53.7565 53.1465C53.8539 53.0436 53.9707 52.9609 54.1001 52.9031C54.2295 52.8454 54.369 52.8136 54.5106 52.8098L65.7563 52.5053C65.898 52.5015 66.039 52.5256 66.1713 52.5763C66.3037 52.627 66.4247 52.7033 66.5275 52.8008C66.6304 52.8984 66.713 53.0152 66.7706 53.1446C66.8283 53.2741 66.8599 53.4144 66.8636 53.556Z" fill="#111A3A"/>
<path d="M66.8625 53.556C66.8698 53.8532 66.7568 54.1254 66.5668 54.3265C66.3767 54.5268 66.1111 54.6545 65.8139 54.6625L54.5682 54.967C54.3993 54.9715 54.2316 54.9362 54.0788 54.864C53.9259 54.7918 53.7922 54.6847 53.6884 54.5513C53.5846 54.4179 53.5135 54.262 53.4811 54.0961C53.4486 53.9303 53.4555 53.7591 53.5013 53.5964C53.576 53.8136 53.718 54.0014 53.9067 54.1324C54.0954 54.2635 54.321 54.3309 54.5506 54.325L65.7963 54.0205C65.9379 54.0167 66.0773 53.9849 66.2065 53.9269C66.3357 53.869 66.4522 53.7861 66.5492 53.6829C66.668 53.5582 66.7561 53.4049 66.8053 53.2354C66.839 53.3366 66.8596 53.4445 66.8625 53.556Z" fill="#070F2B"/>
<path d="M66.9175 55.7132C66.9256 56.0104 66.8126 56.2819 66.6226 56.483C66.4318 56.684 66.1669 56.8117 65.869 56.8198L54.624 57.1243C54.3379 57.132 54.0605 57.0259 53.8527 56.8291C53.6449 56.6323 53.5238 56.3611 53.516 56.075C53.5082 55.7889 53.6144 55.5115 53.8112 55.3037C54.008 55.0959 54.2792 54.9748 54.5653 54.967L65.811 54.6625C65.9526 54.6588 66.0936 54.683 66.2258 54.7337C66.3581 54.7845 66.479 54.8608 66.5818 54.9583C66.6845 55.0558 66.767 55.1726 66.8247 55.302C66.8823 55.4314 66.9138 55.5716 66.9175 55.7132Z" fill="#111A3A"/>
<path d="M66.9164 55.7132C66.9245 56.0104 66.8115 56.2819 66.6215 56.483C66.4307 56.684 66.1658 56.8117 65.8679 56.8198L54.6229 57.1243C54.4539 57.1288 54.2863 57.0935 54.1335 57.0213C53.9806 56.949 53.8469 56.8419 53.7431 56.7085C53.6393 56.5752 53.5682 56.4192 53.5357 56.2534C53.5032 56.0875 53.5102 55.9163 53.556 55.7536C53.6307 55.971 53.7728 56.1588 53.9617 56.2899C54.1505 56.4209 54.3763 56.4883 54.606 56.4822L65.851 56.1777C65.9927 56.174 66.1322 56.1422 66.2616 56.0843C66.3909 56.0264 66.5075 55.9434 66.6046 55.8402C66.7235 55.7154 66.8115 55.5621 66.8599 55.3926C66.8944 55.4938 66.9142 55.6002 66.9172 55.7125L66.9164 55.7132ZM57.175 57.77C57.1219 58.2077 57.1639 58.6517 57.298 59.0718C57.4321 59.4918 57.6552 59.878 57.9521 60.204C58.249 60.53 58.6126 60.7882 59.0183 60.9609C59.424 61.1336 59.8622 61.2168 60.3029 61.2049C60.7437 61.1929 61.1767 61.0861 61.5724 60.8917C61.9682 60.6972 62.3173 60.4197 62.5961 60.0781C62.8749 59.7365 63.0767 59.3388 63.1879 58.9121C63.2991 58.4855 63.3169 58.0398 63.2403 57.6056L57.175 57.77Z" fill="#070F2B"/>
<path d="M66.9175 57.8287C66.9256 58.1259 66.8126 58.3981 66.6226 58.5992C66.4318 58.7995 66.1669 58.9272 65.869 58.9352L54.624 59.2405C54.3379 59.2483 54.0605 59.1421 53.8527 58.9453C53.6449 58.7485 53.5238 58.4773 53.516 58.1912C53.5082 57.9051 53.6144 57.6277 53.8112 57.4199C54.008 57.2121 54.2792 57.091 54.5653 57.0832L65.811 56.7787C66.0969 56.7712 66.374 56.8775 66.5815 57.0743C66.789 57.271 66.9099 57.5429 66.9175 57.8287Z" fill="#111A3A"/>
<path d="M66.9167 57.8277C66.9247 58.1249 66.8117 58.3971 66.6217 58.5982C66.4309 58.7985 66.166 58.9262 65.8681 58.9343L54.6231 59.2395C54.4541 59.244 54.2863 59.2087 54.1334 59.1365C53.9805 59.0642 53.8468 58.957 53.7429 58.8236C53.6391 58.6901 53.5681 58.5341 53.5356 58.3681C53.5032 58.2021 53.5103 58.0308 53.5562 57.8681C53.6309 58.0855 53.7731 58.2733 53.9619 58.4044C54.1507 58.5354 54.3765 58.6028 54.6062 58.5967L65.8512 58.2922C65.9928 58.2886 66.1323 58.2569 66.2617 58.1991C66.391 58.1413 66.5076 58.0585 66.6048 57.9554C66.7237 57.8307 66.8117 57.6766 66.8602 57.5078C66.8946 57.6091 66.9137 57.7155 66.9167 57.8277Z" fill="#070F2B"/>
<path d="M236.598 183.227C238.292 195.058 242.608 190.386 242.608 190.386L255.962 171.802L259.639 153.769L262.15 134.789C255.628 137.13 234.909 171.437 236.597 183.228L236.598 183.227Z" fill="#6081FE"/>
<path d="M255.055 158.726L246.664 179.115L261.67 168.035L255.055 158.726Z" fill="#475FB9"/>
<path d="M273.243 256.638L273.419 255.805L281.139 200.718H251.615L250.492 256.638H273.243Z" fill="#3A81C9"/>
<path d="M281.142 200.718L273.421 255.804L269.805 200.718H281.142Z" fill="#1C68B5"/>
<path d="M302.757 256.638V200.718H269.805L277.817 256.638H302.757Z" fill="#3A81C9"/>
<path d="M251.891 203.61H301.349C301.349 203.61 300.363 183.556 300.784 178.8C301.756 167.735 308.603 149 305.351 141.928C304.269 139.565 293.8 133.824 293.8 133.824L287.086 132.045L272.895 131.421L265.994 133.139C265.994 133.139 260.095 136.16 257.616 139.836C253.33 146.184 253.101 167.575 253.095 178.572C253.09 182.658 252.307 196.507 251.891 203.61Z" fill="#E8F3FE"/>
<path d="M304.045 180.169C303.656 184.588 303.708 196.584 303.839 206.762C303.957 215.567 304.132 223.007 304.132 223.007H298.449C287.48 223.007 272.514 223.585 272.11 211.475C271.706 199.379 274.153 168.203 274.421 163.122C275.434 143.975 287.086 132.047 287.086 132.047L293.802 133.825C293.802 133.825 306.698 138.979 307.822 142.73C308.981 146.585 309.037 150.844 308.561 155.223C307.638 163.806 304.692 172.841 304.045 180.169ZM267.623 171.44L264.648 204.21C263.901 214.642 258.842 223.008 248.383 223.008C249.047 214.449 252.286 184.233 252.292 178.659C252.3 167.663 252.624 147.481 257.424 139.188C259.232 136.064 263.049 134.008 265.994 133.14C267.208 132.782 270.907 131.916 270.907 131.916L267.623 171.44Z" fill="#6081FE"/>
<path d="M304.039 180.168C303.65 184.587 303.702 196.584 303.834 206.761L274.791 198.099L274.266 185.289L295.68 179.792C295.68 179.792 294.486 160.568 294.697 157.496C295.061 152.178 299.768 145.649 299.768 145.649L308.555 155.223C307.632 163.805 304.686 172.841 304.039 180.168Z" fill="#475FB9"/>
<path d="M275.892 187.077C275.892 187.077 265.441 181.618 263.716 182.707C262.013 183.789 266.712 187.196 266.712 187.196" fill="#C4E0FD"/>
<path d="M268.173 210.162H244.484C244.001 210.161 243.533 209.995 243.158 209.69C242.783 209.386 242.525 208.961 242.426 208.489L235.841 176.94C235.777 176.634 235.782 176.318 235.856 176.014C235.93 175.71 236.071 175.427 236.268 175.184C236.465 174.941 236.714 174.746 236.996 174.611C237.278 174.477 237.587 174.407 237.9 174.407H261.588C262.583 174.407 263.443 175.106 263.647 176.08L270.232 207.629C270.295 207.935 270.29 208.251 270.216 208.555C270.143 208.859 270.002 209.142 269.805 209.385C269.608 209.628 269.359 209.823 269.076 209.958C268.794 210.092 268.485 210.162 268.173 210.162Z" fill="#070F2B"/>
<path d="M266.712 187.196C265.503 187.054 256.508 186.007 257.099 188.263C257.313 189.082 259.092 190.029 259.886 190.23C257.431 190.29 253.948 191.03 254.175 192.152C254.49 193.712 257.471 193.564 258.511 193.465C257.455 193.605 254.424 194.133 255.046 195.595C255.426 196.485 257.905 196.369 259.053 196.412C258.216 196.683 256.068 198.555 257.633 199.258C260.033 200.338 275.471 197.835 275.471 197.835L275.893 187.078" fill="#C4E0FD"/>
<path d="M305.609 140.194C305.609 140.194 294.697 144.309 296.033 164.891C296.323 169.37 299.36 182.416 299.36 182.416L274.266 185.289L274.79 198.1C287.042 198.582 307.312 202.106 313.629 195.693C317.96 191.296 314.588 144.819 305.608 140.194H305.609Z" fill="#6081FE"/>
<path d="M274.314 139.51C280.904 139.224 287.073 132.247 287.082 132.045C287.326 127.224 288.127 116.372 289.227 112.926C289.471 112.168 288.757 111.454 287.998 111.694L271.811 116.74C271.571 116.815 271.37 116.98 271.248 117.2C271.126 117.42 271.094 117.678 271.158 117.922C271.423 118.957 271.605 120.013 271.701 121.078C271.908 123.382 271.719 125.48 271.466 127.016C271.411 127.352 271.341 127.936 271.259 128.608V128.613C271.061 130.337 270.992 131.369 270.918 131.621C270.882 131.746 270.588 139.671 274.314 139.51Z" fill="#BDDDFE"/>
<path d="M271.258 128.607V128.612C271.258 128.612 280.227 125.307 281.81 122.467C283.901 118.717 273.01 120.534 273.01 120.534C273.01 120.534 272.44 120.769 271.7 121.077C271.906 123.381 271.718 125.479 271.465 127.015C271.41 127.351 271.34 127.935 271.258 128.607Z" fill="#89BDF1"/>
<path d="M259.933 91.2301C258.623 93.7036 259.285 96.9461 261.176 99.0095C263.068 101.073 265.977 102.021 268.775 101.923C269.978 101.88 271.27 101.607 272.066 100.704C272.769 99.9047 272.938 98.782 273.077 97.7254C273.293 96.0818 273.496 94.3361 272.808 92.8275C271.968 90.9857 269.936 89.9174 267.927 89.6767C265.916 89.436 263.895 89.8844 261.919 90.3298" fill="#0E1738"/>
<path d="M269.367 125.611C278.27 128.01 286.22 119.045 288.396 115.314V115.31C288.78 114.65 289.041 114.134 289.177 113.854C289.253 113.698 289.365 113.569 289.509 113.473C290.659 112.702 295.868 108.987 294.56 105.691C293.707 103.545 292.247 103.292 291.172 103.457C290.541 103.554 289.99 102.998 290.075 102.365C292.39 85.1521 273.432 85.8976 268.216 93.666C267.953 94.0646 267.719 94.4815 267.516 94.9134C264.121 101.855 259.802 123.033 269.367 125.611Z" fill="#BDDDFE"/>
<path d="M287.221 126.4L287.466 126.074C290.412 122.134 293.131 117.989 295.518 113.687C297.082 110.867 298.537 107.942 299.523 104.864C300.716 101.142 300.599 97.3131 300.708 93.4417C300.738 92.3631 300.765 91.261 300.44 90.2322C300.114 89.2042 299.364 88.2445 298.322 87.9671C297.422 87.7279 296.474 88.0207 295.543 88.0097C294.613 87.9987 293.519 87.4491 293.524 86.5179C293.527 85.7695 294.239 85.2169 294.436 84.4949C294.638 83.7524 294.241 82.9467 293.64 82.4646C293.04 81.9832 292.273 81.766 291.52 81.6076C288.184 80.9092 284.721 81.1221 281.496 82.2239C280.344 82.6194 279.187 83.1338 277.969 83.0927C276.77 83.0523 275.666 82.4771 274.562 82.0082C271.603 80.7549 268.395 80.201 265.188 80.3895C262.308 80.5612 254.933 85.2771 256.899 91.0042C257.941 94.039 259.092 95.9439 262.292 96.1611C265.494 96.379 268.631 95.3378 271.671 94.3105C271.754 96.2506 273.753 97.6609 275.69 97.7937C277.627 97.9258 279.492 97.1209 281.267 96.3328C280.824 97.5831 281.277 99.0962 282.336 99.8952C283.134 100.498 284.175 100.633 285.127 100.389C285.846 100.205 286.837 99.9312 286.871 101.118L287.017 106.052C287.024 106.28 287.11 106.498 287.261 106.67C287.411 106.841 287.617 106.955 287.842 106.991C288.067 107.028 288.297 106.985 288.494 106.87C288.691 106.755 288.842 106.576 288.921 106.362L289.682 104.29C289.776 104.036 289.968 103.827 290.22 103.725C291.137 103.349 293.406 102.783 294.562 105.691C295.87 108.987 290.661 112.702 289.511 113.472C289.367 113.568 289.254 113.697 289.179 113.854C289.043 114.134 288.782 114.648 288.398 115.314L287.563 118.578C287.326 119.509 287.221 126.4 287.221 126.4Z" fill="#0E1738"/>
<path d="M278.078 107.253C278.12 106.352 277.666 105.6 277.065 105.572C276.465 105.545 275.944 106.253 275.903 107.153C275.862 108.054 276.315 108.806 276.916 108.834C277.517 108.862 278.037 108.154 278.078 107.253Z" fill="#0E1738"/>
<path d="M278.641 104.847C278.558 104.847 278.478 104.819 278.413 104.767C276.761 103.451 275.812 104.233 275.772 104.267C275.699 104.33 275.603 104.361 275.507 104.355C275.411 104.348 275.321 104.304 275.256 104.232C275.192 104.16 275.159 104.066 275.165 103.97C275.17 103.874 275.213 103.783 275.284 103.719C275.342 103.668 276.711 102.473 278.87 104.194C278.929 104.241 278.972 104.306 278.993 104.379C279.014 104.452 279.012 104.53 278.987 104.601C278.962 104.673 278.915 104.735 278.853 104.779C278.791 104.823 278.717 104.847 278.641 104.847Z" fill="#0E1738"/>
<path d="M268.875 107.253C268.917 106.352 268.463 105.6 267.862 105.572C267.261 105.545 266.741 106.253 266.7 107.153C266.658 108.054 267.112 108.806 267.713 108.834C268.314 108.862 268.834 108.154 268.875 107.253Z" fill="#0E1738"/>
<path d="M269.437 104.847C269.355 104.847 269.274 104.819 269.21 104.767C267.558 103.451 266.609 104.233 266.569 104.267C266.496 104.33 266.4 104.361 266.304 104.355C266.207 104.348 266.117 104.304 266.053 104.232C265.989 104.16 265.956 104.066 265.961 103.97C265.967 103.874 266.01 103.783 266.081 103.719C266.138 103.668 267.509 102.473 269.667 104.194C269.726 104.241 269.769 104.306 269.79 104.379C269.811 104.452 269.809 104.53 269.784 104.601C269.758 104.673 269.712 104.735 269.65 104.779C269.588 104.823 269.514 104.847 269.438 104.847H269.437Z" fill="#0E1738"/>
<path d="M270.513 115.812C270.423 115.812 270.337 115.779 270.27 115.719C269.822 115.32 269.565 114.784 269.548 114.211C269.54 113.93 269.591 113.651 269.696 113.39C269.801 113.13 269.959 112.894 270.16 112.697C270.309 112.548 270.481 112.414 270.654 112.281C270.75 112.208 270.846 112.135 270.936 112.058C271.67 111.435 271.957 110.616 272.069 110.038C272.219 109.264 272.169 108.45 272.121 107.664C272.117 107.615 272.123 107.567 272.138 107.52C272.154 107.474 272.178 107.431 272.21 107.395C272.242 107.358 272.281 107.328 272.325 107.306C272.368 107.285 272.416 107.272 272.464 107.269C272.513 107.266 272.562 107.273 272.608 107.289C272.654 107.305 272.696 107.33 272.732 107.363C272.768 107.395 272.798 107.435 272.818 107.479C272.839 107.523 272.851 107.57 272.853 107.619C272.905 108.451 272.957 109.313 272.789 110.177C272.596 111.171 272.119 112.015 271.411 112.618C271.312 112.702 271.206 112.783 271.1 112.865C270.954 112.977 270.805 113.089 270.679 113.215C270.549 113.341 270.447 113.493 270.379 113.661C270.31 113.828 270.277 114.008 270.281 114.189C270.292 114.559 270.462 114.908 270.758 115.171C270.813 115.221 270.852 115.286 270.87 115.358C270.887 115.43 270.883 115.506 270.856 115.576C270.83 115.645 270.783 115.705 270.721 115.747C270.66 115.789 270.588 115.812 270.513 115.812ZM273.228 120.332C273.178 120.332 273.128 120.332 273.078 120.329C272.98 120.326 272.889 120.284 272.822 120.212C272.756 120.141 272.721 120.046 272.724 119.949C272.728 119.852 272.77 119.76 272.842 119.694C272.913 119.627 273.008 119.592 273.105 119.596C274.331 119.643 275.566 119.012 276.249 117.991C276.275 117.949 276.309 117.912 276.349 117.883C276.389 117.854 276.435 117.834 276.484 117.823C276.532 117.812 276.582 117.812 276.631 117.821C276.679 117.83 276.726 117.849 276.767 117.877C276.808 117.904 276.843 117.94 276.87 117.981C276.897 118.023 276.916 118.069 276.924 118.118C276.933 118.167 276.931 118.217 276.92 118.265C276.908 118.314 276.887 118.359 276.858 118.399C276.066 119.585 274.654 120.332 273.228 120.332Z" fill="#89BDF1"/>
<path d="M240.139 179.068C239.972 178.911 239.776 178.788 239.561 178.708C239.346 178.628 239.118 178.592 238.889 178.601L236.066 178.776C235.836 178.784 235.609 178.837 235.4 178.933C235.19 179.029 235.002 179.165 234.845 179.333C234.688 179.502 234.566 179.7 234.485 179.916C234.405 180.132 234.368 180.362 234.376 180.592C234.396 181.056 234.597 181.493 234.937 181.809C235.277 182.125 235.728 182.295 236.192 182.282C235.728 182.298 235.291 182.497 234.974 182.835C234.658 183.174 234.489 183.624 234.504 184.087C234.521 184.552 234.72 184.99 235.059 185.307C235.398 185.625 235.849 185.795 236.313 185.781C236.084 185.789 235.858 185.842 235.648 185.937C235.439 186.033 235.251 186.169 235.095 186.337C234.938 186.506 234.816 186.703 234.737 186.919C234.657 187.134 234.62 187.364 234.629 187.593C234.646 188.057 234.845 188.494 235.184 188.811C235.522 189.127 235.973 189.296 236.436 189.281C236.206 189.289 235.98 189.342 235.771 189.438C235.562 189.533 235.374 189.669 235.217 189.837C235.061 190.006 234.939 190.203 234.859 190.419C234.779 190.635 234.742 190.864 234.751 191.093C234.759 191.323 234.812 191.549 234.908 191.758C235.003 191.967 235.139 192.156 235.307 192.312C235.476 192.469 235.673 192.59 235.889 192.67C236.105 192.75 236.334 192.786 236.564 192.777L239.386 192.603C239.615 192.595 239.84 192.543 240.049 192.448C240.258 192.352 240.446 192.217 240.602 192.049C240.758 191.881 240.879 191.684 240.958 191.469C241.038 191.253 241.074 191.025 241.064 190.796C241.058 190.565 241.005 190.339 240.91 190.129C240.815 189.919 240.678 189.731 240.509 189.575C240.342 189.417 240.146 189.295 239.931 189.214C239.716 189.134 239.487 189.098 239.258 189.107C239.721 189.09 240.159 188.889 240.475 188.549C240.79 188.209 240.958 187.758 240.942 187.295C240.935 187.065 240.882 186.838 240.787 186.629C240.692 186.42 240.556 186.231 240.387 186.074C240.22 185.917 240.024 185.795 239.809 185.714C239.594 185.634 239.365 185.598 239.136 185.607L240.381 185.557C240.727 185.545 241.061 185.431 241.342 185.228C241.623 185.025 241.837 184.744 241.957 184.419C242.078 184.095 242.099 183.741 242.018 183.405C241.937 183.068 241.758 182.763 241.504 182.528C241.338 182.37 241.143 182.247 240.929 182.166C240.715 182.086 240.487 182.048 240.259 182.057L239.011 182.101C239.24 182.093 239.466 182.04 239.676 181.945C239.885 181.849 240.073 181.713 240.229 181.545C240.386 181.377 240.508 181.179 240.587 180.963C240.667 180.748 240.704 180.518 240.695 180.289C240.678 179.825 240.478 179.386 240.139 179.068V179.068Z" fill="#BDDDFE"/>
<path d="M192.734 23.4775H274.826V68.5925H192.734V23.4775Z" fill="#479FF7"/>
<path d="M205.089 46.1038C205.089 47.716 205.73 49.262 206.87 50.402C208.01 51.542 209.556 52.1826 211.168 52.183V59.9661C203.515 59.9661 197.312 53.7643 197.312 46.1038C197.312 38.4506 203.514 32.248 211.168 32.248V40.0311C207.815 40.0311 205.089 42.7505 205.089 46.1038Z" fill="white"/>
<path d="M225.028 46.1038H217.251C217.251 42.7505 214.524 40.0311 211.172 40.0311V32.248C218.825 32.248 225.028 38.4498 225.028 46.1038Z" fill="#83BFFC"/>
<path d="M227.496 49.124C227.496 56.7846 221.295 62.9871 213.641 62.9871V55.204C215.253 55.2036 216.799 54.563 217.939 53.423C219.079 52.283 219.719 50.737 219.72 49.1248L227.496 49.124Z" fill="#6081FE"/>
<path d="M231.031 34.0811H267.789V38.9239H231.031V34.0811ZM231.031 41.8671H267.789V44.2885H231.031V41.8671ZM231.031 46.4333H267.789V48.8547H231.031V46.4333ZM231.031 51.0003H267.789V53.4217H231.031V51.0003ZM231.031 55.5665H237.854V57.9879H231.031V55.5665Z" fill="white"/>
<path d="M129.85 104.501C134.648 104.501 138.537 100.612 138.537 95.8143C138.537 91.0169 134.648 87.1279 129.85 87.1279C125.053 87.1279 121.164 91.0169 121.164 95.8143C121.164 100.612 125.053 104.501 129.85 104.501Z" fill="#377BC0"/>
<path d="M128.109 99.8582L125.25 96.9994L126.806 95.4424L128.109 96.7456L132.747 92.1074L134.304 93.663L128.109 99.8582Z" fill="white"/>
</svg>
