<svg width="227" height="260" viewBox="0 0 227 260" fill="none" xmlns="http://www.w3.org/2000/svg">
<path d="M69.1038 150.142C69.2078 149.816 69.0885 149.465 68.9694 149.144C68.7805 148.636 68.5881 148.123 68.5147 147.586C68.4415 147.048 68.4968 146.476 68.7768 146.011C68.8977 145.811 69.0614 145.626 69.105 145.396C69.1636 145.086 68.9917 144.786 68.853 144.504C68.6186 144.026 68.4637 143.51 68.3964 142.982C68.3494 142.614 68.3469 142.229 68.4815 141.883C68.7119 141.291 69.3123 140.886 69.4834 140.273C69.6331 139.738 69.4221 139.145 69.5997 138.618C69.786 138.066 70.3464 137.734 70.8895 137.522C72.1099 137.045 73.5808 136.951 74.6625 137.691C75.174 138.041 75.561 138.553 75.8264 139.113C76.1156 139.723 76.2667 140.388 76.4157 141.047C76.7601 142.57 77.1056 144.1 77.2274 145.657C77.3363 147.048 77.2653 148.449 77.1267 149.838C77.0317 150.79 76.9043 151.742 76.6513 152.664C76.5259 153.121 76.3566 153.591 76.0046 153.908C75.7539 154.134 75.4303 154.263 75.1036 154.348C74.3421 154.546 73.5245 154.523 72.7752 154.282C72.1691 154.088 71.6161 153.758 71.0833 153.409C70.4494 152.994 69.8183 152.533 69.3578 151.923C69.1951 151.707 68.889 151.399 68.8038 151.144C68.6816 150.778 68.9981 150.473 69.1038 150.142Z" fill="#A4D0FC"/>
<path d="M82.459 165.314C82.2654 164.661 82.6451 163.82 82.9445 163.269C83.3758 162.476 84.0234 161.818 84.7403 161.278C85.4613 160.735 86.2619 160.303 87.0876 159.942C88.9495 159.129 91.1811 158.482 93.209 159.044C93.6714 159.172 94.5272 159.265 94.5497 159.881C94.5624 160.23 94.5938 160.593 94.5727 160.945C94.5169 161.877 94.1616 162.778 93.7418 163.601C93.4043 164.263 93.0075 164.894 92.5827 165.503C90.2471 168.852 86.022 168.232 84.3067 167.018C83.7871 166.65 83.3091 166.246 82.8166 165.846C82.6312 165.696 82.5183 165.514 82.459 165.314Z" fill="#3254D6"/>
<path d="M69.4475 137.538C68.7043 134.898 75.4466 136.302 78.1744 136.019C79.0406 135.929 80.6895 136.293 81.5261 136.535C82.8484 136.917 82.2708 140.875 83.2374 141.855C87.4604 146.136 89.1468 151.578 91.6479 156.851C92.9601 159.617 93.4419 160.3 94.9214 162.98C95.7143 164.416 96.7242 165.725 97.4552 167.197C98.2982 168.895 99.9575 174.223 99.1147 175.966C98.9232 176.363 98.689 176.743 98.3749 177.052C96.6301 178.764 93.1591 178.615 91.3916 177.056C90.3978 176.179 87.4482 171.408 86.8449 170.228C85.1667 166.945 86.6005 167.284 85.0485 163.943C84.2949 162.321 83.5628 160.414 82.4588 158.996C81.4565 157.709 79.9792 157.144 78.5364 156.489C74.4306 154.624 70.579 141.557 69.4475 137.538Z" fill="#CFE7FF"/>
<path d="M80.0579 145.409C80.3266 145.968 80.701 146.511 80.7184 147.131C80.7392 147.874 80.2475 148.516 79.8749 149.159C79.2691 150.205 78.9387 151.409 78.9256 152.617C77.3994 149.489 77.3456 145.829 77.9004 142.393C78.0029 141.758 78.1153 140.53 78.6035 140.055C79.1224 139.55 79.4382 139.98 79.5274 140.622C79.761 142.299 79.2666 143.763 80.0579 145.409Z" fill="#A4D0FC"/>
<path d="M104.328 190.684C103.86 189.215 103.674 187.68 103.974 186.05C104.553 182.897 106.356 180.075 108.156 177.484C111.519 172.641 113.732 168.83 116.735 163.54C117.484 162.221 123.554 150.532 127.083 146.615C127.979 145.62 128.567 145.776 129.02 145.873C130.224 146.128 128.49 151.02 128.893 151.942C130.112 154.734 131.125 157.619 132.111 160.499C133.138 163.502 134.108 166.524 135.036 169.558C135.421 170.819 135.927 172.115 136.204 173.402C136.648 175.468 134.838 176.54 133.478 177.918C131.85 179.567 130.318 181.255 128.809 182.974C127.484 184.483 125.853 185.521 124.271 186.69C122.59 187.934 121.208 189.836 119.699 191.303C117.523 193.418 114.895 196.576 112.055 197.762C109.479 198.838 107.517 196.821 106.28 194.764C105.489 193.446 104.778 192.095 104.328 190.684Z" fill="#5B7CF7"/>
<path d="M108.496 183.824C106.399 176.373 98.391 165.764 97.178 163.533C96.7782 162.798 94.6546 158.69 94.2331 159.781C92.6292 163.931 86.659 168.054 82.4219 164.966C82.9267 167.718 83.1255 167.064 84.4202 169.405C85.8249 171.946 88.8131 178.677 90.0089 181.319C93.2661 188.518 96.6819 194.52 103.17 199.172C105.577 200.898 108.304 203.841 111.346 201.69C114.995 199.11 118.062 194.606 120.381 190.861" fill="#5B7CF7"/>
<path d="M119.308 188.062C119.2 187.649 119.128 187.332 119.129 187.248C119.139 185.559 119.554 183.835 119.807 182.171C120.303 178.902 120.817 175.493 119.639 172.301C118.542 173.394 118.019 174.923 117.54 176.396C115.977 181.198 114.5 186.028 113.111 190.884C112.761 192.107 110.899 202.296 109.688 202.382C110.277 202.34 110.866 202.029 111.346 201.69C112.151 200.884 113.156 200.256 113.97 199.436C114.822 198.578 115.613 197.661 116.362 196.712C117.762 194.939 119.447 192.896 120.36 190.838C120.219 191.158 119.614 189.225 119.308 188.062Z" fill="#3254D6"/>
<path d="M74.3581 182.31C72.3743 182.213 70.8448 180.526 70.9419 178.542L74.7502 100.734L81.9344 101.086L78.1261 178.893C78.029 180.877 76.342 182.407 74.3581 182.31Z" fill="#D4E4F4"/>
<path d="M81.9354 101.086L74.7512 100.734L73.4766 126.777C75.9386 126.196 78.3755 125.51 80.7786 124.72L81.9354 101.086Z" fill="#0575E6"/>
<path d="M71.8035 137.781C72.3138 138.013 72.8283 138.236 73.3196 138.513C73.9285 138.857 74.5852 139.393 74.8494 140.195C75.1172 141.008 74.8907 141.956 74.2257 142.268C73.5937 142.565 70.3875 141.201 69.7589 140.746C69.7247 140.721 69.6906 140.696 69.6565 140.67C68.7499 139.991 68.4427 138.573 68.8042 137.605C69.1268 136.742 69.7606 136.656 70.5085 137.117C70.9253 137.373 71.3628 137.581 71.8035 137.781Z" fill="#CCE5FF"/>
<path d="M73.696 142.708C74.7079 143.278 75.125 144.056 75.2488 145.119C75.365 146.116 74.8808 146.948 74.2215 146.952C73.3481 146.957 70.0402 145.59 69.2461 144.856C68.7855 144.43 68.3704 143.798 68.1968 143.09C68.0712 142.577 68.0792 142.059 68.1662 141.608C68.2584 141.13 68.4591 140.692 68.8013 140.587C69.3032 140.432 69.963 140.908 70.4834 141.245C70.8266 141.467 73.3263 142.5 73.696 142.708ZM73.3045 151.524C73.9504 151.934 74.6238 152.531 74.7837 153.317C75.3591 156.147 70.5247 154.161 69.5887 153.548C69.1792 153.28 68.7855 152.829 68.5764 152.265C68.4251 151.857 68.3799 151.418 68.4041 151.019C68.4298 150.597 68.546 150.187 68.8081 150.029C69.1201 149.842 69.4564 149.788 69.8424 149.989C70.7482 150.459 71.7104 150.698 72.6222 151.145C72.8271 151.245 73.064 151.372 73.3045 151.524Z" fill="#CCE5FF"/>
<path d="M74.1048 147.707C74.2994 147.859 74.4876 148.03 74.6674 148.225C75.017 148.604 75.3093 149.092 75.4135 149.646C75.5429 150.335 75.3263 151.192 74.7391 151.38C74.114 151.58 73.6115 151.218 72.6818 150.948C71.9172 150.727 69.6578 149.871 69.0074 149.193C68.5869 148.755 68.2323 148.126 68.1274 147.442C68.0514 146.948 68.1103 146.458 68.2417 146.038C68.381 145.593 68.6253 145.194 68.9789 145.12C69.4615 145.02 70.0666 145.515 70.5298 145.819C71.6884 146.577 73.0001 146.843 74.1048 147.707Z" fill="#CCE5FF"/>
<path d="M82.2312 148.368C79.9749 147.162 78.7218 144.335 79.3426 141.853C79.5156 141.162 79.8146 140.508 79.9934 139.818C80.3236 138.543 80.2239 137.161 79.714 135.947C78.8488 133.886 78.4938 132.44 78.741 130.174C78.8099 129.543 78.9061 128.867 79.336 128.4C81.405 126.15 82.5751 131.885 82.8571 132.771C84.3081 137.329 86.3937 139.716 86.7525 146.412" fill="#CFE7FF"/>
<path d="M129.087 77.2304C130.936 50.6829 110.915 27.6627 84.3672 25.8134C57.8198 23.964 34.7996 43.9857 32.9502 70.5331C31.1008 97.0806 51.1225 120.101 77.67 121.95C104.217 123.8 127.238 103.778 129.087 77.2304Z" fill="#F1F8FF"/>
<path d="M161.998 260C162.809 248.355 164.975 236.516 164.966 224.981C149.512 228.878 133.862 230.353 118.015 231.663C114.522 239.781 108.692 251.439 104.094 260L161.998 260Z" fill="#5D6273"/>
<path d="M172.497 136.146C172.691 136.498 172.919 136.84 173.184 137.155C174.462 138.675 176.467 139.745 177.09 141.726C178.915 147.519 175.357 153.786 172.197 158.428C169.474 162.427 166.28 166.277 162.386 169.078C158.5 171.874 153.919 173.496 149.094 172.731C142.791 171.732 137.271 166.315 135.552 160.106C133.837 153.908 135.398 146.785 139.62 141.985C141.647 139.68 144.93 139.252 147.381 137.563C148.361 136.887 149.135 135.904 149.28 134.691C150.002 128.636 149.371 122.115 150.698 116.247C151.454 112.902 155.291 112.018 158.025 110.922C160.171 110.062 162.715 109.371 165.013 109.392C167.028 109.411 169.702 110.345 169.743 112.804C169.805 116.413 169.989 120.192 170.273 123.875C170.519 127.053 170.665 130.243 171.419 133.328C171.65 134.275 172.026 135.287 172.497 136.146Z" fill="#CFE7FF"/>
<path d="M163.33 113.907C162.267 113.109 160.748 113.617 159.582 114.254C155.751 116.349 152.632 119.528 149.871 122.92C149.699 126.103 149.722 129.349 149.492 132.508C150.571 132.238 151.709 131.493 152.637 130.907C157.405 127.896 161.274 123.46 163.56 118.3C164.204 116.848 164.6 114.862 163.33 113.907Z" fill="#A4D0FC"/>
<path d="M171.349 149.768C162.685 153.614 153.235 156.995 143.636 155.161C141.057 154.668 138.081 153.792 136.149 151.888C133.814 160.744 131.759 169.674 129.577 178.569C127.885 185.464 126.233 192.382 124.411 199.244C123.388 203.098 121.568 207.791 122.631 211.83C121.623 218.57 120.559 225.3 119.148 231.969C123.066 233.619 127.394 234.528 131.59 235.057C136.061 235.62 140.74 235.719 145.199 234.975C151.642 233.898 157.807 230.79 163.432 227.612C164.426 219.365 165.064 211.095 164.951 202.784C167.796 192.179 168.478 181.021 169.525 170.123C170.177 163.342 170.774 156.555 171.349 149.768Z" fill="#F1F8FF"/>
<path d="M112.464 260C115.438 253.243 119.304 244.475 121.424 238.593C126.505 224.492 130.36 209.316 131.585 194.364C132.758 180.054 135.316 165.713 140.571 152.277C142.743 146.725 148.915 136.383 148.76 136.184C148.76 136.184 136.21 140.371 130.404 143.33C129.547 143.766 128.985 144.329 128.512 145.01C127.959 145.807 127.717 146.51 127.504 147.469C127.034 151.784 126.553 156.098 126.032 160.407C123.882 166.936 118.923 172.301 117.849 179.197C116.925 185.125 116.908 191.061 116.914 197.069C116.924 205.048 116.545 213.11 115.125 220.844C113.993 227.003 110.657 232.493 106.941 237.569C102.567 243.394 95.9593 253.736 90.9297 260H112.464V260ZM180.504 260C179.493 251.795 176.924 243.564 174.192 235.828C171.852 229.202 172.517 222.855 173.646 216.016C174.687 209.705 175.149 208.104 177.625 201.028C181.149 190.96 187.531 180.863 192.604 168.879C195.807 161.314 199.882 152.642 196.011 144.765C193.396 139.442 184.574 138.915 179.713 136.963C176.926 135.844 174.153 134.621 171.423 133.328C171.552 135.623 170.685 138.139 170.217 140.36C169.371 144.373 168.236 148.397 166.932 152.277C163 163.973 157.859 175.064 155.735 187.287C153.362 200.936 152.232 214.866 150.65 228.679C149.523 238.514 146.76 249.648 145.003 260H180.504Z" fill="#5B7CF7"/>
<path d="M107.076 51.4233L68.4423 83.6764L57.2753 70.0847L46.7031 78.9107L57.8701 92.5025L57.8401 92.5275L61.0307 96.3493L66.6323 103.167L77.2045 94.3412L77.1853 94.3179L115.902 61.9956L107.076 51.4233Z" fill="#4A92DB"/>
<path d="M199.95 110.845C199.417 105.894 197.356 101.555 194.145 98.6281C189.822 94.6866 184.034 93.6801 179.939 93.5299C177.179 93.4273 175.361 94.0532 174.379 95.4391C174.378 95.4407 174.377 95.4423 174.376 95.444C172.707 97.8056 173.597 100.24 174.383 102.389C174.569 102.897 174.745 103.378 174.89 103.856C175.622 106.272 176.153 108.831 176.466 111.463C177.17 117.375 176.78 123.6 175.337 129.465L175.33 129.494C175.027 130.725 174.808 131.615 175.382 132.226C175.915 132.793 176.821 132.721 177.72 132.558C177.979 132.511 179.332 132.251 180.582 131.99C181.309 131.838 181.89 131.709 182.311 131.606C182.324 131.946 182.32 132.287 182.299 132.625C182.287 132.823 182.361 133.017 182.502 133.156C182.631 133.283 182.805 133.354 182.985 133.354C183.002 133.354 183.019 133.353 183.036 133.352C188.23 132.964 193.207 130.067 196.351 125.603C199.253 121.482 200.531 116.241 199.95 110.845Z" fill="#41475E"/>
<path d="M182.34 90.7169C178.259 89.2859 169.169 93.1241 166.089 96.8049C164.406 98.8151 161.557 103.639 160.836 106.008C160.425 107.355 160.381 108.818 160.711 110.125C161.09 111.625 161.916 112.769 163.098 113.432C163.916 113.892 164.907 114.112 166.055 114.092C166.99 114.076 167.439 114.03 168.211 113.454C168.846 112.98 169.467 112.351 170.313 112.338C173.108 112.295 175.743 109.987 177.694 108.162C180.825 105.234 184.524 100.304 184.371 93.4413C184.342 92.1335 183.621 91.166 182.34 90.7169Z" fill="#021B79"/>
<path d="M134.374 73.4772C133.886 71.6443 132.794 69.4309 130.364 69.2945C128.392 69.1838 126.208 69.8557 124.046 71.2371C122.243 72.3894 120.53 74.0036 119.348 75.6658C116.742 79.3277 115.549 84.2107 115.987 89.4151C116.243 92.4466 116.988 94.8664 118.263 96.8128C118.441 97.0833 118.782 97.1935 119.084 97.0775C119.385 96.9617 119.566 96.6514 119.517 96.332C119.248 94.5817 119.385 92.7936 119.9 91.1079C120.061 92.5189 120.387 93.7476 120.89 94.8639C121.955 97.2289 123.91 98.9993 126.12 99.5994C126.663 99.747 127.219 99.8174 127.77 99.8174C129.841 99.8173 131.84 98.8197 132.81 97.1714C133.353 96.2486 133.559 95.2233 133.738 94.1663C134.577 89.2099 134.99 84.1511 134.965 79.1303C134.958 77.6275 134.888 75.4066 134.374 73.4772Z" fill="#41475E"/>
<path d="M156.674 124.625C154.182 126.356 151.602 127.912 149.044 129.282C145.454 131.205 142.786 130.74 139.401 128.249C136.663 126.233 134.172 124.281 131.82 121.809C129.004 118.85 127.787 115.529 127.129 111.613C126.54 108.109 126.421 104.868 125.938 101.359C125.434 97.7049 124.292 94.1447 124.127 90.4446C124.071 89.1835 124.108 87.9185 124.234 86.6617C124.565 83.3582 125.509 80.0971 127.016 77.1138C128.337 74.4997 130.361 72.121 132.44 69.9922C132.888 69.5336 133.354 69.0916 133.839 68.6691C141.459 62.0171 152.58 61.5953 161.906 64.5578C166.344 65.9677 170.576 68.1578 173.899 71.3404C181.403 78.5275 181.487 89.0801 177.749 98.151C175.245 103.119 172.817 107.791 169.932 111.914C166.5 116.819 161.77 121.087 156.674 124.625Z" fill="#CFE7FF"/>
<path d="M171.214 98.5713L163.08 92.1668C162.846 91.9823 162.519 91.97 162.272 92.1366C162.025 92.3031 161.913 92.6102 161.996 92.8967C162.261 93.8144 162.503 94.7599 162.738 95.6744C162.938 96.4506 163.144 97.2534 163.364 98.0419C163.526 98.6206 163.713 99.1902 163.894 99.7411C163.997 100.055 164.103 100.379 164.202 100.699C164.658 102.162 165.407 103.995 166.387 104.415C166.59 104.502 166.782 104.54 166.964 104.54C167.875 104.54 168.318 103.664 168.874 103.09C169.64 102.299 170.405 101.508 171.171 100.718C171.437 100.443 171.72 100.132 171.737 99.7496C171.753 99.4122 171.486 98.7852 171.214 98.5713Z" fill="#41475E"/>
<path d="M186.07 83.6082C185.905 80.4792 185.158 77.2975 183.851 74.1511C180.813 66.8375 175.235 60.9274 168.93 58.3417C163.321 56.0417 156.72 55.1295 150.342 55.7718C143.667 56.4445 137.609 58.7144 132.824 62.336C129.415 64.9161 128.193 67.8291 129.289 70.7605C129.505 71.3388 129.711 71.935 129.91 72.5116C130.419 73.9823 130.944 75.5031 131.707 76.9418C133.033 79.4411 134.814 81.5227 137.002 83.1289C139.248 84.7782 141.813 85.842 144.625 86.2911C151.93 87.458 156.714 88.483 160.052 89.5991C160.357 90.3532 161.274 92.305 163.45 94.9097C165.091 96.8751 167.401 98.5728 169.05 99.6508C169.725 100.092 170.495 100.314 171.268 100.314C171.96 100.314 172.653 100.136 173.282 99.7793C174.415 99.1351 175.779 99.043 177.336 99.5053C177.619 99.5892 177.9 99.629 178.179 99.629C180.803 99.6285 183.224 96.1117 184.586 92.838C185.747 90.0486 186.246 86.9433 186.07 83.6082Z" fill="#41475E"/>
<path d="M171.568 100.373C173.157 98.4868 176.288 97.7906 178.283 99.5397C179.679 100.764 179.716 102.785 179.489 104.665C179.117 107.741 175.942 110.431 173.331 111.893C172.093 112.587 170.264 113.035 168.852 112.688" fill="#CFE7FF"/>
<path d="M172.188 105.617C172.055 105.617 171.92 105.579 171.801 105.497C171.488 105.283 171.408 104.856 171.622 104.543C172.43 103.362 173.617 102.419 174.966 101.885C175.77 101.567 176.473 101.469 177.115 101.586C177.489 101.655 177.736 102.012 177.668 102.385C177.599 102.759 177.242 103.006 176.869 102.938C176.487 102.868 176.03 102.941 175.471 103.162C174.375 103.596 173.41 104.362 172.756 105.318C172.623 105.513 172.408 105.617 172.188 105.617ZM139.902 113.295C138.728 113.295 137.553 112.933 136.605 112.267C136.294 112.049 136.219 111.621 136.437 111.31C136.655 111 137.084 110.925 137.394 111.143C138.232 111.731 139.306 112.007 140.341 111.899C140.719 111.859 141.056 112.133 141.096 112.511C141.135 112.888 140.861 113.226 140.484 113.265C140.291 113.285 140.096 113.295 139.902 113.295Z" fill="#A4D0FC"/>
<path d="M151.897 100.639C152.864 100.517 153.536 99.5264 153.397 98.4268C153.258 97.3271 152.361 96.5349 151.393 96.6573C150.425 96.7797 149.753 97.7703 149.892 98.87C150.031 99.9696 150.929 100.762 151.897 100.639Z" fill="black"/>
<path d="M151.693 101.344C150.463 101.344 149.377 100.331 149.203 98.961C149.115 98.2635 149.274 97.5729 149.652 97.0167C150.047 96.4332 150.633 96.0653 151.299 95.9811C152.642 95.8121 153.885 96.8725 154.071 98.346C154.159 99.0435 154 99.734 153.623 100.29C153.227 100.874 152.642 101.242 151.975 101.326C151.88 101.338 151.786 101.344 151.693 101.344ZM151.583 97.3366C151.546 97.3366 151.509 97.3389 151.472 97.3436C151.202 97.3777 150.959 97.5354 150.788 97.7875C150.599 98.0672 150.52 98.4227 150.566 98.7888C150.657 99.511 151.212 100.037 151.803 99.9632C152.072 99.9291 152.315 99.7714 152.486 99.5193C152.675 99.2397 152.754 98.8841 152.708 98.5182C152.623 97.8419 152.131 97.3366 151.583 97.3366Z" fill="black"/>
<path d="M132.489 103.11C133.362 103 133.956 102.019 133.817 100.919C133.678 99.8196 132.858 99.0176 131.986 99.1279C131.113 99.2382 130.519 100.219 130.658 101.319C130.797 102.418 131.617 103.22 132.489 103.11Z" fill="black"/>
<path d="M132.325 103.811C131.174 103.811 130.145 102.786 129.971 101.409C129.784 99.9355 130.647 98.6085 131.894 98.451C132.519 98.3713 133.159 98.6026 133.651 99.0834C134.107 99.5297 134.406 100.153 134.492 100.838C134.579 101.523 134.445 102.2 134.114 102.746C133.757 103.334 133.194 103.717 132.569 103.796C132.488 103.806 132.406 103.811 132.325 103.811ZM132.14 99.8089C132.116 99.8089 132.091 99.8104 132.066 99.8136C131.579 99.8752 131.243 100.527 131.333 101.237C131.423 101.947 131.91 102.498 132.397 102.433C132.68 102.397 132.858 102.168 132.939 102.034C133.107 101.756 133.177 101.383 133.13 101.01C133.083 100.637 132.922 100.292 132.69 100.065C132.588 99.9656 132.389 99.8089 132.14 99.8089Z" fill="black"/>
<path d="M146.475 94.0539C146.315 94.0539 146.154 93.9982 146.024 93.8845C145.739 93.6354 145.709 93.2033 145.957 92.9175C146.004 92.8636 147.126 91.5887 148.912 90.8727C150.597 90.197 153.193 89.9018 155.99 92.3317C156.276 92.5804 156.307 93.0142 156.058 93.3005C155.809 93.5868 155.376 93.6173 155.089 93.3685C150.77 89.6165 147.145 93.6463 146.993 93.8199C146.857 93.9747 146.667 94.0539 146.475 94.0539ZM134.304 95.8676C134.137 95.8676 133.97 95.8074 133.838 95.6855C132.656 94.5942 131.323 94.2149 129.877 94.558C128.793 94.8155 127.966 95.4135 127.793 95.5688C127.562 95.8195 127.176 95.8653 126.891 95.6629C126.582 95.4434 126.509 95.0146 126.728 94.7053C126.896 94.4693 128.365 93.2962 130.315 93.0926C131.924 92.9247 133.465 93.4721 134.77 94.6763C135.048 94.9335 135.066 95.368 134.809 95.6468C134.673 95.7933 134.489 95.8676 134.304 95.8676Z" fill="#41475E"/>
<path d="M143.297 121.535C143.283 121.535 143.269 121.535 143.255 121.534C141.985 121.458 139.411 120.519 139.022 118.997C138.871 118.408 138.969 117.531 140.291 116.701C142.171 115.52 144.089 115.579 145.944 115.637C146.89 115.666 147.783 115.694 148.669 115.565C149.067 115.507 149.428 115.648 149.661 115.95C150.187 116.634 149.782 117.791 149.584 118.257C149.041 119.529 147.854 120.956 146.149 121.142C145.771 121.182 145.433 120.911 145.391 120.534C145.35 120.157 145.623 119.818 146 119.776C146.976 119.67 147.643 118.867 147.953 118.398C148.343 117.808 148.502 117.273 148.54 116.966C147.645 117.064 146.76 117.036 145.902 117.01C144.176 116.956 142.547 116.906 141.021 117.864C140.796 118.006 140.278 118.367 140.352 118.656C140.492 119.201 142.088 120.088 143.338 120.163C143.716 120.186 144.005 120.511 143.982 120.89C143.96 121.254 143.658 121.535 143.297 121.535Z" fill="#A4D0FC"/>
<path d="M160.951 64.8797C160.432 65.1123 159.89 65.3961 159.626 65.8993C159.319 66.4847 159.488 67.2362 159.9 67.7532C160.312 68.2701 160.924 68.5878 161.546 68.8133C163.764 69.6185 166.206 69.4128 168.551 69.1566C169.892 69.0102 171.391 68.7611 172.178 67.6662C173.303 66.1014 169.73 63.6876 168.331 63.2782C166.091 62.6228 162.955 63.9803 160.951 64.8797Z" fill="#59607C"/>
<path d="M114.554 121.609L116.356 127.365L120.116 129.365C121.102 129.889 121.059 131.316 120.043 131.78L116.168 133.548L114.021 139.185C113.566 140.38 111.858 140.328 111.476 139.107L109.674 133.351L105.914 131.351C104.928 130.827 104.971 129.4 105.987 128.936L109.862 127.168L112.009 121.531C112.465 120.336 114.172 120.388 114.554 121.609ZM13.7838 74.8442L16.4384 83.3256L21.9791 86.2721C23.4319 87.0447 23.368 89.1478 21.8711 89.8308L16.1619 92.436L12.998 100.741C12.3273 102.501 9.81109 102.425 9.24834 100.627L6.5938 92.1457L1.05309 89.1992C-0.399714 88.4266 -0.335845 86.3235 1.1611 85.6405L6.87027 83.0353L10.0342 74.7304C10.7049 72.9699 13.2212 73.0462 13.7838 74.8442ZM100.7 1.08778L102.774 7.71437L107.103 10.0164C108.238 10.62 108.188 12.2632 107.018 12.7968L102.558 14.8322L100.086 21.3208C99.562 22.6963 97.5961 22.6367 97.1565 21.2319L95.0824 14.6054L90.7535 12.3032C89.6184 11.6997 89.6683 10.0564 90.8378 9.52281L95.2984 7.48744L97.7703 0.998797C98.2942 -0.376595 100.26 -0.316945 100.7 1.08778Z" fill="#0036FF"/>
<path d="M196.801 220.353C195.336 218.449 193.871 216.546 192.406 214.642C192.196 214.369 191.947 214.073 191.612 214.045C191.317 214.02 191.05 214.212 190.812 214.395C188.542 216.144 186.301 217.909 184.109 219.704C181.959 221.464 179.145 223.114 176.499 223.846C174.497 224.4 172.554 225.147 170.655 226.005C168.86 226.815 166.067 228.321 167.662 230.867C167.932 231.299 168.319 231.653 168.513 232.126C168.95 233.192 168.288 234.533 168.843 235.537C169.211 236.202 169.98 236.362 170.407 236.932C170.976 237.692 170.402 238.347 170.753 239.255C170.972 239.822 171.47 240.281 172.05 240.363C172.206 240.386 172.368 240.382 172.518 240.435C172.902 240.57 173.056 241.031 173.3 241.37C175.519 244.455 179.652 241.65 181.632 239.844C183.018 238.58 182.83 236.285 181.967 236.276H181.967C181.967 236.276 181.967 236.276 181.967 236.276C182.751 235.864 183.484 235.365 184.127 234.733C184.997 233.878 185.665 232.8 186.057 231.622C189.909 229.173 193.311 226.705 196.68 223.574C197.065 223.217 197.469 222.816 197.564 222.287C197.693 221.579 197.234 220.915 196.801 220.353Z" fill="#CFE7FF"/>
<path d="M186.353 218.149C187.344 220.427 189.536 224.785 193.226 228.741C194.063 229.639 195.44 229.769 196.429 229.041L220.372 211.403C226.232 207.086 228.648 198.91 224.913 192.662L197.173 146.252C189.638 136.73 181.647 154.104 182.62 167.108C182.788 169.358 183.632 171.505 185.035 173.273L205.392 198.015L186.914 215.433C186.175 216.13 185.948 217.217 186.353 218.149ZM205.392 198.015C205.392 198.015 207.54 195.773 210.382 195.987L205.392 198.015Z" fill="#5B7CF7"/>
<path d="M178.454 238.884C178.217 239.129 177.973 239.433 178.026 239.769C177.694 239.741 177.318 239.679 177.134 239.401C176.959 239.134 177.043 238.762 177.243 238.514C177.444 238.267 177.737 238.117 178.022 237.973C178.643 237.66 179.264 237.346 179.892 237.049C180.134 236.934 181.509 236.183 181.599 236.465C180.49 237.231 179.404 237.905 178.454 238.884Z" fill="#A4D0FC"/>
</svg>
