<svg width="351" height="260" viewBox="0 0 351 260" fill="none" xmlns="http://www.w3.org/2000/svg">
<g opacity="0.41">
<path d="M5.42969 88.2081C5.42969 67.8092 23.166 51.2733 45.0433 51.2733H53.3072C49.4421 48.1534 46.9929 43.5492 46.9929 38.4092C46.9929 29.0133 55.1622 21.3959 65.2388 21.3959H92.7415C89.96 19.1643 88.1917 15.8632 88.1917 12.1733C88.1917 5.45019 94.0366 0 101.247 0H170.305C177.516 0 183.361 5.45019 183.361 12.1733C183.361 18.8964 177.516 24.3466 170.305 24.3466H144.448C139.632 27.4101 136.472 32.5642 136.472 38.4092C136.472 43.5492 138.921 48.1534 142.786 51.2733H185.312C207.19 51.2733 224.926 67.8092 224.926 88.2081C224.926 108.607 207.19 125.143 185.312 125.143H241.649C251.726 125.143 259.895 132.76 259.895 142.156C259.895 151.552 251.726 159.169 241.649 159.169H264.604C289.684 159.169 310.504 176.122 314.634 198.404H322.673C338.31 198.404 350.987 210.223 350.987 224.803V227.478C350.987 242.058 338.31 253.877 322.673 253.877H264.604H74.5621H56.2196C28.169 253.877 5.42969 232.677 5.42969 206.523C5.42969 180.37 28.169 159.169 56.2196 159.169H145.135C135.058 159.169 126.889 151.552 126.889 142.156C126.889 132.76 135.058 125.143 145.135 125.143H45.0433C23.166 125.143 5.42969 108.607 5.42969 88.2081ZM207.308 24.3466C200.758 24.3466 195.447 18.8964 195.447 12.1733C195.447 5.45019 200.758 0 207.308 0C213.858 0 219.169 5.45019 219.169 12.1733C219.169 18.8964 213.858 24.3466 207.308 24.3466Z" fill="#ABD5FF"/>
</g>
<path opacity="0.15" d="M350.979 254.57C350.979 259.092 271.889 260 176.464 260C81.0398 260 5.42188 259.092 5.42188 254.57C5.42188 250.048 82.7457 250.189 178.168 250.189C273.591 250.189 350.979 250.048 350.979 254.57Z" fill="#1F2023"/>
<path d="M289.87 22.7213C289.91 20.8582 289.626 18.975 288.994 17.1603L293.06 13.555L290.396 9.25892L285.384 11.2932C284.037 9.89739 282.47 8.78761 280.772 7.98197L281.096 2.58012L276.176 1.42603L274.059 6.43714C272.198 6.41902 270.321 6.72718 268.514 7.38176L264.881 3.28102L260.587 5.9457L262.671 11.0837C261.34 12.407 260.279 13.9357 259.501 15.5832L253.91 15.2469L252.758 20.1694L257.978 22.3768C257.974 24.1573 258.27 25.9519 258.881 27.684L254.613 31.4685L257.277 35.7647L262.587 33.6096C263.864 34.9046 265.334 35.9459 266.919 36.7214L266.575 42.4455L271.495 43.5996L273.715 38.3447C275.497 38.3709 277.296 38.097 279.036 37.5069L282.792 41.7446L287.086 39.0799L284.982 33.8915C286.337 32.5904 287.427 31.0798 288.23 29.4444L293.761 29.7787L294.913 24.8562L289.87 22.7213ZM278.136 29.1765C274.389 31.5008 269.467 30.3487 267.143 26.6004C264.818 22.8522 265.97 17.9297 269.717 15.6054C273.463 13.2811 278.385 14.4332 280.71 18.1814C283.034 21.9277 281.882 26.8502 278.136 29.1765Z" fill="#A9C9EA"/>
<path d="M287.948 23.7183C287.988 21.8552 287.702 19.972 287.072 18.1573L291.138 14.552L288.474 10.2559L283.463 12.2902C282.115 10.8944 280.548 9.78462 278.85 8.97898L279.175 3.57712L274.254 2.42505L272.137 7.43617C270.276 7.41805 268.399 7.72621 266.592 8.38079L262.959 4.28005L258.665 6.94473L260.749 12.0827C259.418 13.406 258.357 14.9347 257.579 16.5823L251.988 16.2459L250.836 21.1684L256.057 23.3759C256.053 25.1563 256.349 26.9509 256.959 28.6831L252.691 32.4676L255.356 36.7637L260.665 34.6086C261.942 35.9037 263.412 36.945 264.997 37.7204L264.653 43.4445L269.573 44.5966L271.793 39.3418C273.575 39.3679 275.374 39.094 277.114 38.5039L280.87 42.7416L285.164 40.0769L283.06 34.8885C284.417 33.5854 285.505 32.0768 286.309 30.4414L291.839 30.7757L292.991 25.8532L287.948 23.7183ZM276.212 30.1715C272.466 32.4958 267.543 31.3437 265.219 27.5954C262.894 23.8472 264.047 18.9247 267.793 16.6004C271.539 14.2761 276.462 15.4282 278.786 19.1764C281.11 22.9247 279.958 27.8472 276.212 30.1715Z" fill="#C9DEF4"/>
<path d="M251.984 16.2419L253.648 16.3426L253.904 15.2449L251.984 16.2419Z" fill="#A9C9EA"/>
<path d="M274.258 2.42301L276.177 1.42603L275.621 2.74124L274.258 2.42301Z" fill="#A9C9EA"/>
<path d="M262.961 4.27604L264.88 3.27905L263.074 4.40092L262.961 4.27604Z" fill="#A9C9EA"/>
<path d="M269.57 44.5926L271.49 43.5976L270.126 43.2773L269.57 44.5926Z" fill="#A9C9EA"/>
<path d="M291.844 30.7737L293.763 29.7787L292.1 29.678L291.844 30.7737Z" fill="#A9C9EA"/>
<path d="M280.867 42.7395L282.787 41.7425L282.674 41.6177L280.867 42.7395Z" fill="#A9C9EA"/>
<path d="M326.283 17.9275C326.311 16.6566 326.116 15.3696 325.685 14.1309L328.46 11.6697L326.641 8.73712L323.219 10.1248C322.299 9.17217 321.229 8.41486 320.071 7.865L320.293 4.17716L316.933 3.38965L315.487 6.80961C314.216 6.79753 312.935 7.007 311.703 7.45413L309.221 4.65452L306.291 6.47326L307.713 9.97982C306.804 10.8842 306.079 11.9255 305.55 13.0513L301.733 12.8217L300.945 16.1813L304.508 17.6878C304.506 18.9044 304.708 20.1289 305.125 21.3112L302.21 23.8953L304.029 26.8279L307.654 25.3576C308.526 26.2418 309.529 26.9528 310.613 27.4805L310.377 31.3879L313.737 32.1754L315.254 28.5882C316.47 28.6064 317.699 28.4191 318.885 28.0162L321.449 30.9105L324.38 29.0918L322.943 25.551C323.87 24.6627 324.613 23.6315 325.161 22.5157L328.937 22.7433L329.725 19.3837L326.283 17.9275ZM318.273 22.3324C315.715 23.9195 312.355 23.132 310.768 20.5741C309.181 18.0161 309.969 14.6546 312.524 13.0675C315.082 11.4803 318.442 12.2679 320.029 14.8258C321.616 17.3857 320.829 20.7453 318.273 22.3324Z" fill="#A9C9EA"/>
<path d="M324.97 18.6062C324.999 17.3353 324.803 16.0483 324.372 14.8096L327.148 12.3484L325.329 9.41583L321.907 10.8036C320.986 9.85088 319.917 9.09358 318.759 8.54373L318.98 4.85588L315.621 4.06836L314.175 7.48832C312.904 7.47624 311.623 7.68571 310.39 8.13284L307.909 5.33323L304.978 7.15197L306.4 10.6585C305.492 11.5629 304.767 12.6042 304.237 13.7301L300.42 13.5005L299.633 16.86L303.196 18.3666C303.194 19.5831 303.395 20.8077 303.812 21.9899L300.898 24.5741L302.716 27.5066L306.342 26.0363C307.214 26.9205 308.217 27.6315 309.301 28.1612L309.065 32.0686L312.424 32.8561L313.941 29.269C315.158 29.2871 316.386 29.0998 317.573 28.697L320.136 31.5912L323.067 29.7725L321.631 26.2317C322.557 25.3434 323.301 24.3122 323.849 23.1964L327.625 23.424L328.412 20.0645L324.97 18.6062ZM316.958 23.0131C314.4 24.6002 311.041 23.8127 309.454 21.2548C307.867 18.6969 308.654 15.3353 311.21 13.7482C313.768 12.1611 317.127 12.9486 318.715 15.5065C320.304 18.0644 319.516 21.426 316.958 23.0131Z" fill="#C9DEF4"/>
<path d="M300.422 13.5025L301.556 13.571L301.731 12.8237L300.422 13.5025Z" fill="#A9C9EA"/>
<path d="M315.625 4.07042L316.934 3.38965L316.556 4.28795L315.625 4.07042Z" fill="#A9C9EA"/>
<path d="M307.914 5.3353L309.225 4.65454L307.991 5.42192L307.914 5.3353Z" fill="#A9C9EA"/>
<path d="M312.43 32.8561L313.739 32.1773L312.808 31.9578L312.43 32.8561Z" fill="#A9C9EA"/>
<path d="M327.625 23.424L328.934 22.7433L327.8 22.6748L327.625 23.424Z" fill="#A9C9EA"/>
<path d="M320.133 31.5913L321.444 30.9125L321.367 30.8259L320.133 31.5913Z" fill="#A9C9EA"/>
<path d="M162.472 155.339C162.476 155.331 162.668 154.934 162.968 154.215L164.136 154.702C163.816 155.47 163.612 155.889 163.612 155.889L162.472 155.339ZM163.878 151.854C164.158 151.069 164.428 150.257 164.678 149.441L165.886 149.812C165.63 150.646 165.356 151.476 165.068 152.279L163.878 151.854ZM165.371 146.998C165.582 146.181 165.777 145.349 165.953 144.525L167.191 144.787C167.014 145.629 166.815 146.479 166.597 147.316L165.371 146.998ZM166.416 142.027C166.553 141.186 166.668 140.34 166.758 139.514L168.017 139.653C167.924 140.499 167.806 141.367 167.667 142.229L166.416 142.027ZM166.97 136.99C167.018 136.14 167.04 135.29 167.038 134.46L168.303 134.456C168.305 135.31 168.283 136.186 168.233 137.061L166.97 136.99ZM166.952 131.937C166.897 131.091 166.813 130.245 166.704 129.425L167.959 129.258C168.071 130.106 168.158 130.98 168.215 131.854L166.952 131.937ZM166.281 126.942C166.11 126.114 165.906 125.294 165.675 124.501L166.889 124.148C167.129 124.972 167.34 125.826 167.518 126.684L166.281 126.942ZM164.881 122.116C164.585 121.332 164.253 120.557 163.894 119.808L165.036 119.262C165.409 120.041 165.755 120.851 166.063 121.667L164.881 122.116ZM162.718 117.594C162.297 116.877 161.84 116.168 161.358 115.487L162.392 114.756C162.893 115.465 163.371 116.204 163.81 116.954L162.718 117.594ZM126.667 96.305L126.363 96.1459L126.955 95.0281L127.251 95.1831C127.886 95.5135 128.551 95.8357 129.225 96.1459L128.7 97.296C128.003 96.9777 127.32 96.6454 126.667 96.305ZM159.826 113.502C159.294 112.867 158.724 112.243 158.136 111.647L159.036 110.758C159.648 111.379 160.241 112.029 160.795 112.688L159.826 113.502ZM124.099 94.8548C123.35 94.3936 122.619 93.9082 121.928 93.4107L122.667 92.3835C123.336 92.8629 124.041 93.3322 124.764 93.7773L124.099 94.8548ZM131.088 98.3111L131.554 97.1348C132.321 97.439 133.123 97.731 133.934 98.0069L133.527 99.2053C132.696 98.9234 131.876 98.6233 131.088 98.3111ZM119.866 91.8035C119.191 91.2335 118.544 90.6373 117.94 90.029L118.838 89.1368C119.417 89.7189 120.037 90.2909 120.683 90.8367L119.866 91.8035ZM135.997 99.9868L136.353 98.7723C136.671 98.865 136.994 98.9576 137.32 99.0462C137.83 99.1872 138.329 99.3302 138.823 99.4772L138.46 100.69C137.977 100.545 137.483 100.404 136.984 100.267C136.651 100.176 136.323 100.083 135.997 99.9868ZM156.303 109.924C155.681 109.383 155.022 108.849 154.347 108.341L155.109 107.33C155.808 107.856 156.488 108.408 157.133 108.97L156.303 109.924ZM140.883 101.463L141.29 100.265C142.116 100.545 142.935 100.843 143.727 101.149L143.27 102.329C142.494 102.029 141.691 101.737 140.883 101.463ZM152.287 106.893C151.596 106.44 150.873 105.997 150.134 105.574L150.762 104.476C151.522 104.911 152.267 105.369 152.98 105.834L152.287 106.893ZM116.182 88.0854C115.622 87.4026 115.096 86.6916 114.619 85.9726L115.674 85.2737C116.127 85.9565 116.627 86.6332 117.159 87.2818L116.182 88.0854ZM145.614 103.298L146.124 102.14C146.927 102.494 147.717 102.867 148.474 103.246L147.906 104.376C147.169 104.007 146.398 103.644 145.614 103.298ZM113.288 83.7027C112.885 82.9192 112.524 82.1095 112.216 81.2958L113.4 80.8487C113.69 81.6181 114.031 82.3835 114.413 83.1246L113.288 83.7027ZM111.431 78.7782C111.219 77.9262 111.056 77.0541 110.947 76.184L112.202 76.0269C112.305 76.8467 112.458 77.6704 112.657 78.4741L111.431 78.7782ZM110.774 73.5516C110.768 72.6794 110.812 71.7932 110.907 70.9191L112.164 71.0561C112.075 71.8839 112.033 72.7197 112.039 73.5435L110.774 73.5516ZM111.338 68.3209C111.527 67.471 111.765 66.619 112.047 65.7871L113.245 66.192C112.979 66.9795 112.752 67.7892 112.573 68.5948L111.338 68.3209ZM113.018 63.346C113.199 62.9493 113.39 62.5565 113.594 62.1658C113.795 61.7791 114.007 61.3944 114.228 61.0137L115.322 61.6502C115.11 62.0127 114.909 62.3773 114.718 62.7479C114.524 63.1185 114.341 63.4931 114.17 63.8717L113.018 63.346ZM116.683 59.5515L115.656 58.8123C116.162 58.1093 116.71 57.4165 117.286 56.7559L118.24 57.5857C117.69 58.2181 117.167 58.8808 116.683 59.5515ZM119.97 55.7689L119.094 54.8566C119.721 54.2543 120.381 53.6723 121.062 53.1264L121.856 54.1113C121.203 54.637 120.569 55.1949 119.97 55.7689ZM123.874 52.6229L123.167 51.5735C123.886 51.0902 124.637 50.6289 125.396 50.2039L126.013 51.3097C125.284 51.7165 124.565 52.1576 123.874 52.6229ZM128.256 50.1757L127.733 49.0237C128.52 48.6652 129.334 48.3328 130.154 48.0368L130.585 49.2271C129.797 49.5111 129.014 49.8313 128.256 50.1757ZM132.982 48.4637L132.645 47.2432C133.475 47.0136 134.331 46.8122 135.187 46.645L135.431 47.8857C134.605 48.0488 133.781 48.2422 132.982 48.4637ZM137.918 47.495L137.767 46.2382C138.621 46.1354 139.497 46.0629 140.367 46.0206L140.43 47.2835C139.588 47.3258 138.742 47.3963 137.918 47.495ZM142.949 47.2492L142.976 45.9844C143.834 46.0005 144.71 46.0488 145.578 46.1213L145.469 47.3822C144.627 47.3117 143.779 47.2654 142.949 47.2492ZM147.975 47.6783L148.162 46.4275C149.008 46.5544 149.868 46.7075 150.722 46.8867L150.462 48.1254C149.632 47.9502 148.796 47.7991 147.975 47.6783ZM153.016 48.7417L153.348 47.5211C153.759 47.6339 154.17 47.7508 154.583 47.8756L154.218 49.0861C153.816 48.9653 153.415 48.8505 153.016 48.7417Z" fill="#92C4F7"/>
<path d="M158.758 54.8727L172.317 51.3459L153.391 40.3972L156.595 44.8786L157.648 48.353L158.758 54.8727Z" fill="#D5E0EB"/>
<path d="M168.923 50.4195L156.603 44.8787L152.57 49.1023L157.656 48.353L168.923 50.4195Z" fill="#A0B5CB"/>
<path d="M280.548 84.462L273.321 89.6867L265.915 85.1187L265.375 75.0984C256.88 83.455 258.497 90.3251 264.729 97.0785C270.958 103.83 271.051 126.076 271.426 143.556C271.8 161.037 268.477 157.83 263.607 168.273C258.737 178.717 269.353 185.712 269.353 185.712L269.251 175.158L276.099 169.895L283.657 174.862L283.817 184.846C297.74 173.959 286.153 163.226 282.469 159.794C278.783 156.36 279.291 124.209 279.454 112.915C279.615 101.622 280.203 101.489 286.364 91.5578C292.526 81.6262 280.411 74.2908 280.411 74.2908L280.548 84.462Z" fill="#A4CCF4"/>
<path d="M280.408 74.2908L280.549 84.4641L273.322 89.6887L265.917 85.1207C283.041 96.9314 274.847 136.42 275.961 152.249C276.712 162.942 270.168 164.559 265.866 164.094C265.161 165.224 264.406 166.563 263.606 168.275C258.736 178.719 269.353 185.714 269.353 185.714L269.25 175.16L276.098 169.897L283.655 174.864L283.814 184.848C297.737 173.961 286.15 163.228 282.466 159.796C278.781 156.364 279.288 124.211 279.451 112.917C279.612 101.624 280.201 101.491 286.362 91.5598C292.523 81.6262 280.408 74.2908 280.408 74.2908Z" fill="#83B8ED"/>
<path d="M276.199 167.895L267.758 174.725L268.022 184.678C268.805 185.353 269.351 185.714 269.351 185.714L269.248 175.16L276.096 169.897L283.653 174.864L283.812 184.848C284.139 184.592 284.439 184.338 284.737 184.082L284.564 173.419L276.199 167.895Z" fill="#5F9EDD"/>
<path d="M283.651 174.864L284.561 173.419L276.196 167.895L276.094 169.897L283.651 174.864Z" fill="#4788C9"/>
<path d="M281.922 75.3643C281.033 74.6675 280.409 74.2888 280.409 74.2888L280.55 84.4621L273.323 89.6867L265.918 85.1187L265.378 75.0985C265.122 75.3503 264.878 75.6 264.641 75.8477L264.77 86.0593L273.599 91.729L281.718 85.2496L281.922 75.3643Z" fill="#5F9EDD"/>
<path d="M273.595 91.729L273.32 89.6887L265.914 85.1187L264.766 86.0592L273.595 91.729Z" fill="#4788C9"/>
<path d="M250.011 247.988V146.563C250.011 143.973 252.11 141.874 254.7 141.874H249.103C246.513 141.874 244.414 143.973 244.414 146.563V247.986C244.414 250.576 246.513 252.675 249.103 252.675H254.702C252.11 252.677 250.011 250.578 250.011 247.988Z" fill="#5C7FA2"/>
<path d="M317.732 252.677H254.697C252.107 252.677 250.008 250.578 250.008 247.988V146.563C250.008 143.973 252.107 141.874 254.697 141.874H317.732C320.323 141.874 322.421 143.973 322.421 146.563V247.986C322.421 250.578 320.323 252.677 317.732 252.677Z" fill="#97BCE2"/>
<path d="M322.266 145.385C321.742 143.367 319.914 141.874 317.732 141.874H298.119L250.977 250.834C251.835 251.952 253.18 252.677 254.697 252.677H275.845L322.266 145.385Z" fill="#CADBEC"/>
<path d="M250.008 239.861L292.403 141.874H282.874L250.008 202.078V239.861Z" fill="#CADBEC"/>
<path d="M312.903 204.11C312.952 204.11 313 204.116 313.048 204.118V190.032C313.117 189.256 313.157 188.473 313.157 187.679C313.157 186.886 313.115 186.102 313.048 185.327V184.569C313.048 184.183 312.97 183.814 312.827 183.48C310.813 170.718 299.767 160.958 286.438 160.958C273.111 160.958 262.063 170.718 260.049 183.48C259.906 183.814 259.828 184.183 259.828 184.569V185.327C259.759 186.102 259.719 186.886 259.719 187.679C259.719 188.473 259.761 189.256 259.828 190.032V204.11C262.639 204.11 264.917 206.388 264.917 209.2C264.917 212.012 262.639 214.29 259.828 214.29V229.921C262.565 229.921 264.79 232.084 264.905 234.793H307.824C307.939 232.084 310.164 229.921 312.901 229.921C312.95 229.921 312.998 229.927 313.046 229.929V214.284C312.998 214.286 312.95 214.292 312.901 214.292C310.09 214.292 307.812 212.014 307.812 209.202C307.814 206.388 310.092 204.11 312.903 204.11Z" fill="#2C3B74"/>
<path d="M288.608 225.855H282.174V219.384C282.174 218.258 281.25 217.343 280.112 217.343H265.383C264.243 217.343 263.32 218.258 263.32 219.384V227.307V228.536V229.124C263.32 229.925 263.977 230.576 264.789 230.576H265.383H280.112H288.61C289.419 230.576 290.078 229.925 290.078 229.124V227.307C290.076 226.503 289.419 225.855 288.608 225.855Z" fill="#97BCE2"/>
<path d="M289.347 211.266C302.379 209.661 311.642 197.795 310.037 184.764C308.431 171.732 296.566 162.469 283.534 164.074C270.502 165.679 261.239 177.545 262.844 190.577C264.449 203.608 276.315 212.872 289.347 211.266Z" fill="#E0E8F0"/>
<path d="M284.368 211.357L302.609 170.259C301.459 169.192 300.207 168.235 298.863 167.409L279.741 210.489C281.228 210.926 282.774 211.22 284.368 211.357ZM276.47 209.262L295.761 165.804C295.236 165.58 294.698 165.379 294.154 165.192L274.938 208.487C275.437 208.765 275.949 209.023 276.47 209.262Z" fill="white"/>
<path d="M294.306 189.572C295.33 185.234 292.644 180.887 288.306 179.863C283.968 178.839 279.621 181.525 278.597 185.863C277.573 190.201 280.259 194.548 284.597 195.572C288.935 196.597 293.282 193.91 294.306 189.572Z" stroke="#4C6BE0" stroke-width="0.693" stroke-miterlimit="10"/>
<path d="M294.306 189.572C295.33 185.234 292.644 180.887 288.306 179.863C283.968 178.839 279.621 181.525 278.597 185.863C277.573 190.201 280.259 194.548 284.597 195.572C288.935 196.597 293.282 193.91 294.306 189.572Z" fill="#3D64F9"/>
<path d="M290.795 187.677C290.795 190.086 288.842 192.04 286.433 192.04C284.024 192.04 282.07 190.086 282.07 187.677C282.07 185.268 284.024 183.315 286.433 183.315C288.842 183.317 290.795 185.268 290.795 187.677Z" fill="#31417B"/>
<path d="M274.94 226.401C273.375 228.509 270.396 228.948 268.288 227.384C266.179 225.819 265.74 222.84 267.305 220.731C268.87 218.622 285.263 200.205 287.371 201.77C289.48 203.337 276.505 224.292 274.94 226.401Z" fill="#5EAEFE"/>
<path d="M268.946 227.418C266.837 225.853 266.398 222.874 267.963 220.765C269.415 218.809 283.639 202.805 287.361 201.766C285.22 200.253 268.868 218.626 267.305 220.731C265.74 222.84 266.179 225.816 268.288 227.383C269.162 228.032 270.185 228.332 271.194 228.316C270.406 228.217 269.631 227.925 268.946 227.418Z" fill="#3D5CCF"/>
<path d="M272.667 225.168C271.944 226.141 270.57 226.344 269.597 225.621C268.624 224.898 268.421 223.524 269.144 222.552C269.867 221.579 271.241 221.375 272.214 222.098C273.186 222.821 273.39 224.195 272.667 225.168Z" fill="#89B3DD"/>
<path d="M271.371 224.205C271.18 224.461 270.817 224.515 270.561 224.324C270.306 224.133 270.251 223.77 270.443 223.514C270.634 223.259 270.997 223.204 271.252 223.396C271.508 223.585 271.562 223.947 271.371 224.205ZM273.087 220.924C272.924 220.803 272.892 220.574 273.011 220.413L277.444 214.443C277.565 214.282 277.792 214.247 277.955 214.366C278.118 214.487 278.151 214.717 278.032 214.878L273.599 220.848C273.478 221.011 273.248 221.045 273.087 220.924ZM279.42 213.279C279.246 213.512 278.918 213.561 278.684 213.387C278.451 213.214 278.402 212.886 278.576 212.652C278.749 212.419 279.077 212.37 279.311 212.544C279.542 212.717 279.593 213.045 279.42 213.279Z" fill="#567A9E"/>
<path d="M259.46 149.218C259.46 150.382 258.515 151.326 257.351 151.326C256.187 151.326 255.242 150.382 255.242 149.218C255.242 148.054 256.187 147.109 257.351 147.109C258.515 147.109 259.46 148.054 259.46 149.218Z" fill="#567A9E"/>
<path d="M258.475 149.218C258.475 149.84 257.971 150.344 257.347 150.344C256.724 150.344 256.219 149.84 256.219 149.218C256.219 148.595 256.724 148.09 257.347 148.09C257.971 148.09 258.475 148.595 258.475 149.218Z" fill="#97BCE2"/>
<path d="M317.046 149.218C317.046 150.382 316.101 151.326 314.937 151.326C313.773 151.326 312.828 150.382 312.828 149.218C312.828 148.054 313.773 147.109 314.937 147.109C316.103 147.109 317.046 148.054 317.046 149.218Z" fill="#567A9E"/>
<path d="M316.066 149.218C316.066 149.84 315.563 150.344 314.94 150.344C314.318 150.344 313.812 149.84 313.812 149.218C313.812 148.595 314.318 148.09 314.94 148.09C315.561 148.09 316.066 148.595 316.066 149.218Z" fill="#97BCE2"/>
<path d="M259.46 245.915C259.46 247.08 258.515 248.024 257.351 248.024C256.187 248.024 255.242 247.08 255.242 245.915C255.242 244.751 256.187 243.807 257.351 243.807C258.515 243.807 259.46 244.751 259.46 245.915Z" fill="#567A9E"/>
<path d="M258.475 245.915C258.475 246.538 257.971 247.041 257.347 247.041C256.724 247.041 256.219 246.538 256.219 245.915C256.219 245.293 256.724 244.79 257.347 244.79C257.971 244.788 258.475 245.293 258.475 245.915Z" fill="#97BCE2"/>
<path d="M317.046 245.915C317.046 247.08 316.101 248.024 314.937 248.024C313.773 248.024 312.828 247.08 312.828 245.915C312.828 244.751 313.773 243.807 314.937 243.807C316.103 243.807 317.046 244.751 317.046 245.915Z" fill="#567A9E"/>
<path d="M316.066 245.915C316.066 246.538 315.563 247.041 314.94 247.041C314.318 247.041 313.812 246.538 313.812 245.915C313.812 245.293 314.318 244.79 314.94 244.79C315.561 244.788 316.066 245.293 316.066 245.915Z" fill="#97BCE2"/>
<path d="M254.46 114.212H59.5967C53.7014 114.212 48.9219 118.992 48.9219 124.887V239.021C48.9219 239.373 49.2079 239.659 49.5604 239.659H263.04C263.393 239.659 263.679 239.373 263.679 239.021V123.429C263.677 118.339 259.55 114.212 254.46 114.212Z" fill="#92C4F7"/>
<path d="M250.741 124.051H61.8672V235.77H250.741V124.051Z" fill="#293E8C"/>
<path opacity="0.06" d="M250.741 124.051H246.241C246.527 143.794 243.778 169.812 230.37 189.206C208.982 220.141 92.7053 229.585 61.8672 231.563V235.772H250.741V124.051Z" fill="white"/>
<path d="M50.1968 124.903C50.1968 119.679 54.5835 115.443 59.9935 115.443H256.243C258.623 115.443 260.805 116.265 262.503 117.628C260.706 115.542 257.999 114.212 254.97 114.212H58.7185C53.3086 114.212 48.9219 118.448 48.9219 123.673V239.657H50.1948V124.903H50.1968Z" fill="#425188"/>
<path d="M35.3203 239.75V242.874C35.3203 248.288 39.7091 252.677 45.123 252.677H267.391C272.857 252.677 277.288 248.246 277.288 242.779V239.678C277.288 239.668 277.28 239.657 277.268 239.657H35.4109C35.3606 239.659 35.3203 239.7 35.3203 239.75Z" fill="#8CB2D9"/>
<path d="M189.091 240.828H123.508C123.508 242.151 125.554 243.222 128.078 243.222H184.521C187.045 243.222 189.091 242.149 189.091 240.828Z" fill="#30448F"/>
<path d="M35.6406 246.167C36.6578 249.565 40.0314 252.155 44.2006 252.6C44.3376 252.612 44.4745 252.628 44.6135 252.638C44.7243 252.646 44.833 252.648 44.9438 252.652C45.1895 252.665 45.4353 252.675 45.683 252.675H266.909C267.157 252.675 267.403 252.663 267.648 252.652C267.757 252.648 267.87 252.646 267.979 252.638C268.118 252.628 268.253 252.612 268.392 252.6C272.561 252.155 275.935 249.565 276.954 246.167H35.6406Z" fill="#5E96CF"/>
<path d="M177.662 167.371C177.662 170.662 174.993 173.331 171.702 173.331C168.411 173.331 165.742 170.662 165.742 167.371C165.742 164.08 168.411 161.411 171.702 161.411C174.993 161.411 177.662 164.08 177.662 167.371Z" fill="#9AC6F3"/>
<path d="M145.209 166.489C145.209 169.78 142.54 172.448 139.249 172.448C135.958 172.448 133.289 169.78 133.289 166.489C133.289 163.198 135.958 160.529 139.249 160.529C142.542 160.527 145.209 163.196 145.209 166.489Z" fill="#C4DEF9"/>
<path d="M160.841 206.445C160.841 209.736 158.173 212.404 154.882 212.404C151.591 212.404 148.922 209.736 148.922 206.445C148.922 203.154 151.591 200.485 154.882 200.485C158.173 200.485 160.841 203.152 160.841 206.445Z" fill="#E6F1FC"/>
<path d="M177.037 200.483C177.037 203.774 174.368 206.443 171.077 206.443C167.786 206.443 165.117 203.774 165.117 200.483C165.117 197.192 167.786 194.523 171.077 194.523C174.37 194.523 177.037 197.192 177.037 200.483Z" fill="white"/>
<path d="M138.038 205.708C141.329 205.708 143.998 203.039 143.998 199.748C143.998 196.456 141.329 193.788 138.038 193.788C134.746 193.788 132.078 196.456 132.078 199.748C132.078 203.039 134.746 205.708 138.038 205.708Z" fill="#D3E7FC"/>
<path d="M161.942 161.253C162.345 157.986 160.024 155.011 156.757 154.608C153.49 154.205 150.515 156.527 150.112 159.794C149.709 163.061 152.031 166.035 155.298 166.438C158.565 166.841 161.539 164.52 161.942 161.253Z" fill="#B6D6F7"/>
<path d="M137.63 183.117C137.63 186.408 134.962 189.077 131.671 189.077C128.38 189.077 125.711 186.408 125.711 183.117C125.711 179.826 128.38 177.157 131.671 177.157C134.962 177.157 137.63 179.826 137.63 183.117Z" fill="#C4DEF9"/>
<path d="M196.133 222.177H116.475C115.009 222.177 113.82 223.365 113.82 224.832C113.82 226.298 115.009 227.486 116.475 227.486H196.133C197.599 227.486 198.788 226.298 198.788 224.832C198.788 223.365 197.599 222.177 196.133 222.177Z" fill="#E8F0F9"/>
<path d="M163.041 222.177H116.475C115.009 222.177 113.82 223.365 113.82 224.832C113.82 226.298 115.009 227.486 116.475 227.486H163.041V222.177Z" fill="#3C64FC"/>
<path d="M128.775 135.389C129.372 135.284 130.266 135.207 131.184 135.207C132.441 135.207 133.295 135.415 133.879 135.906C134.359 136.307 134.63 136.917 134.63 137.655C134.63 138.78 133.865 139.546 133.049 139.844V139.882C133.672 140.116 134.046 140.724 134.266 141.566C134.538 142.654 134.771 143.665 134.953 144.001H133.307C133.178 143.741 132.971 143.03 132.725 141.943C132.479 140.803 132.065 140.44 131.158 140.414H130.355V144.001H128.773V135.389H128.775ZM130.355 139.25H131.299C132.375 139.25 133.047 138.68 133.047 137.812C133.047 136.853 132.375 136.412 131.337 136.412C130.832 136.412 130.508 136.45 130.353 136.49V139.25H130.355ZM141.023 140.13H137.734V142.694H141.414V144.001H136.143V135.272H141.221V136.579H137.736V138.833H141.025V140.13H141.023ZM149.064 143.743C148.689 143.939 147.859 144.132 146.81 144.132C144.038 144.132 142.355 142.396 142.355 139.741C142.355 136.865 144.349 135.131 147.017 135.131C148.067 135.131 148.818 135.35 149.142 135.52L148.792 136.788C148.377 136.607 147.807 136.452 147.082 136.452C145.307 136.452 144.024 137.566 144.024 139.665C144.024 141.582 145.152 142.813 147.068 142.813C147.714 142.813 148.389 142.684 148.804 142.488L149.064 143.743ZM157.829 139.548C157.829 142.474 156.055 144.146 153.646 144.146C151.184 144.146 149.63 142.267 149.63 139.703C149.63 137.022 151.313 135.131 153.775 135.131C156.327 135.131 157.829 137.06 157.829 139.548ZM151.313 139.677C151.313 141.451 152.208 142.863 153.736 142.863C155.277 142.863 156.145 141.439 156.145 139.612C156.145 137.967 155.33 136.412 153.736 136.412C152.155 136.412 151.313 137.876 151.313 139.677ZM161.152 144.003L158.329 135.274H160.065L161.257 139.238C161.593 140.339 161.879 141.363 162.113 142.424H162.139C162.373 141.389 162.683 140.325 163.034 139.264L164.302 135.274H165.998L162.981 144.003H161.152ZM171.821 140.13H168.53V142.694H172.21V144.001H166.939V135.272H172.016V136.579H168.532V138.833H171.823V140.13H171.821ZM173.606 135.389C174.202 135.284 175.096 135.207 176.014 135.207C177.271 135.207 178.125 135.415 178.709 135.906C179.189 136.307 179.461 136.917 179.461 137.655C179.461 138.78 178.695 139.546 177.88 139.844V139.882C178.502 140.116 178.877 140.724 179.096 141.566C179.368 142.654 179.602 143.665 179.783 144.001H178.137C178.008 143.741 177.801 143.03 177.555 141.943C177.31 140.803 176.895 140.44 175.988 140.414H175.185V144.001H173.604V135.389H173.606ZM175.185 139.25H176.129C177.205 139.25 177.878 138.68 177.878 137.812C177.878 136.853 177.205 136.412 176.168 136.412C175.662 136.412 175.338 136.45 175.183 136.49V139.25H175.185ZM182.758 144.003V140.364L179.998 135.274H181.811L182.86 137.516C183.159 138.162 183.378 138.656 183.612 139.252H183.638C183.857 138.694 184.103 138.15 184.401 137.516L185.451 135.274H187.251L184.349 140.325V144.003H182.758Z" fill="#E6F1FC"/>
<path d="M150.898 179.576C150.701 179.564 150.449 179.576 150.175 179.621C148.663 179.873 147.863 180.98 147.698 182.153H147.732C148.072 181.703 148.665 181.331 149.452 181.331C150.713 181.331 151.601 182.241 151.601 183.633C151.601 184.938 150.713 186.142 149.233 186.142C147.71 186.142 146.711 184.958 146.711 183.105C146.711 181.701 147.214 180.594 147.917 179.893C148.51 179.313 149.299 178.95 150.197 178.839C150.481 178.795 150.723 178.785 150.898 178.785V179.576ZM150.624 183.687C150.624 182.668 150.044 182.054 149.156 182.054C148.576 182.054 148.038 182.414 147.774 182.93C147.71 183.039 147.666 183.182 147.666 183.357C147.688 184.529 148.224 185.395 149.233 185.395C150.066 185.397 150.624 184.706 150.624 183.687ZM157.188 182.384C157.188 184.807 156.29 186.144 154.711 186.144C153.319 186.144 152.377 184.839 152.354 182.483C152.354 180.092 153.386 178.777 154.832 178.777C156.334 178.777 157.188 180.114 157.188 182.384ZM153.319 182.493C153.319 184.346 153.889 185.397 154.767 185.397C155.754 185.397 156.226 184.245 156.226 182.426C156.226 180.672 155.776 179.522 154.779 179.522C153.934 179.522 153.319 180.553 153.319 182.493ZM161.287 180.904C161.287 182.406 160.498 183.152 159.577 183.152C158.689 183.152 157.921 182.439 157.911 181.002C157.911 179.576 158.689 178.777 159.633 178.777C160.63 178.777 161.287 179.544 161.287 180.904ZM158.679 180.968C158.657 181.879 158.997 182.569 159.599 182.569C160.236 182.569 160.52 181.891 160.52 180.946C160.52 180.08 160.268 179.357 159.599 179.357C158.995 179.359 158.679 180.07 158.679 180.968ZM159.511 186.144L163.698 178.779H164.312L160.125 186.144H159.511ZM165.924 183.852C165.924 185.355 165.134 186.1 164.224 186.1C163.335 186.1 162.568 185.387 162.558 183.963C162.558 182.527 163.335 181.728 164.278 181.728C165.277 181.725 165.924 182.493 165.924 183.852ZM163.315 183.919C163.303 184.829 163.656 185.52 164.248 185.52C164.884 185.52 165.168 184.841 165.168 183.897C165.168 183.031 164.917 182.308 164.248 182.308C163.644 182.308 163.315 183.019 163.315 183.919Z" fill="#E6F1FC"/>
<path d="M265.548 251.112L219.993 251.295L219.848 215.188L219.836 212.119L228.893 212.082L233.095 215.134L265.403 215.005L265.548 251.112Z" fill="#4469F3"/>
<path d="M263.933 218.405L221.453 218.575L221.462 220.722L263.941 220.552L263.933 218.405Z" fill="#F1F1F2"/>
<path d="M266.472 252.495L218.137 252.691C217.374 252.695 216.754 252.05 216.75 251.253L216.633 222.185C216.629 221.387 217.245 220.739 218.008 220.735L266.341 220.542C267.104 220.537 267.725 221.182 267.729 221.98L267.846 251.047C267.85 251.843 267.235 252.491 266.472 252.495Z" fill="#0034F9"/>
<path d="M264.905 249.325L218.061 249.515C217.332 249.517 216.74 248.929 216.738 248.201L216.633 222.06C216.629 221.331 217.219 220.739 217.946 220.735L264.79 220.546C265.519 220.544 266.112 221.132 266.116 221.859L266.22 248C266.222 248.729 265.634 249.323 264.905 249.325Z" fill="#0036FF"/>
<path d="M235.96 229.7C238.951 227.061 240.184 223.557 242.057 220.638L217.946 220.735C217.217 220.737 216.629 221.331 216.633 222.06L216.709 240.914C220.641 239.073 229.122 235.73 235.96 229.7Z" fill="#81BFFD"/>
<path d="M236.631 84.9776L235.973 82.6614L230.73 82.8487L230.43 85.8336C230.43 85.8316 233.167 89.453 236.631 84.9776Z" fill="#7FB9F4"/>
<path d="M227.758 76.0691C227.758 76.0691 227.81 78.6472 227.939 79.9866C228.068 81.324 228.38 84.325 231.099 84.5103C233.818 84.6976 235.22 83.2333 236.149 82.5687C236.149 82.5687 239.091 79.4569 238.56 78.6089C238.028 77.759 237.321 75.1265 234.646 75.3864C231.969 75.6442 227.758 76.0691 227.758 76.0691Z" fill="#A2CFFC"/>
<path d="M239.663 73.7731L238.684 72.9675C238.684 72.9675 237.784 70.9413 236.291 70.0812C235.534 69.6442 234.599 69.6442 233.824 70.047L228.48 72.8083C227.808 73.1568 227.101 73.4388 226.366 73.622C226.019 73.7087 225.64 73.7812 225.258 73.8194C225.258 73.8194 225.92 76.0068 229.576 76.5526C233.232 77.0984 235.864 76.3935 235.864 76.3935C235.864 76.3935 235.274 79.602 235.85 80.897C235.85 80.897 236.569 79.0259 237.461 78.9393C238.354 78.8527 237.59 80.2767 237.187 80.7661C236.785 81.2555 235.576 82.7238 236.021 82.6795C236.021 82.6795 239.33 79.6583 240.049 77.7872C240.771 75.9161 240.642 74.5788 239.663 73.7731Z" fill="#021B79"/>
<path d="M225.656 136.476L225.916 137.913L227.688 137.991L227.592 136.35L225.656 136.476Z" fill="#BFDDFB"/>
<path d="M228.237 139.985C228.239 140.074 228.172 140.142 228.09 140.144L222.565 140.215C222.565 140.215 222.492 139.103 223.141 139.045C223.953 138.972 224.871 138.42 225.471 137.864C225.922 137.445 227.747 137.496 227.975 137.832C228.162 138.112 228.221 139.512 228.237 139.985Z" fill="#191D2D"/>
<path d="M212.218 136.996L211.969 138.466L213.735 138.668L214.158 137L212.218 136.996Z" fill="#BFDDFB"/>
<path d="M214.152 140.692C214.15 140.781 214.078 140.845 213.995 140.839L208.477 140.535C208.477 140.535 208.475 139.419 209.123 139.407C209.937 139.391 210.889 138.902 211.524 138.388C212.001 138.001 213.818 138.174 214.025 138.525C214.197 138.819 214.168 140.221 214.152 140.692Z" fill="#191D2D"/>
<path d="M226.159 106.517C231.573 105.225 234.421 106.116 234.842 113.62L214.203 114.728C214.203 114.728 214.171 110.907 215.758 109.554C216.574 108.861 222.491 107.328 226.159 106.517Z" fill="#1A2038"/>
<path d="M228.329 110.073C228.329 110.073 226.262 111.004 223.086 111.689C219.91 112.374 218.476 112.49 218.174 113.087C217.869 113.683 218.566 119.25 218.194 121.788C217.871 123.977 213.96 134.996 213.086 138.162L214.125 138.11C214.125 138.11 219.799 124.887 220.123 120.859C220.252 118.223 220.264 115.959 220.264 115.959L227.05 115.616C228.339 115.209 228.329 110.073 228.329 110.073Z" fill="#191E30"/>
<path d="M242.63 107.439C242.863 109.236 242.517 111.862 241.572 113.33L222.12 114.325C222.12 114.325 221.143 110.724 222.587 109.207C224.146 107.568 234.849 106.204 241.238 105.634C242.221 105.546 242.501 106.456 242.63 107.439Z" fill="#22283F"/>
<path d="M229.328 119.671C229.161 117.497 229.062 116.962 228.559 115.54L240.36 114.943C241.979 114.051 242.91 110.13 242.678 108.531L238.037 107.57C238.037 107.57 237.645 110.468 236.77 111.038C235.896 111.606 225.912 112.122 225.534 112.563C225.155 113.004 227.064 117.05 227.516 120.017C227.967 122.984 226.944 137.461 226.944 137.461H226.946L228.049 137.405C228.047 137.407 229.634 123.667 229.328 119.671Z" fill="#191E30"/>
<path d="M214.247 114.384C214.247 114.384 212.722 128.968 211.57 138.241L214.154 138.11C214.154 138.11 219.828 124.887 220.152 120.859C220.477 116.831 219.717 112.46 219.717 112.46L214.247 114.384Z" fill="#1A2038"/>
<path d="M222.117 114.327C222.117 114.327 224.383 128.378 225.469 137.538L228.053 137.407C228.053 137.407 229.638 123.667 229.334 119.673C229.028 115.677 227.291 112.08 227.291 112.08L222.117 114.327Z" fill="#22283F"/>
<path d="M229.331 119.671C229.331 119.669 229.331 119.667 229.331 119.665C229.057 116.096 227.645 112.855 227.347 112.204C227.176 112.224 227.011 112.245 226.857 112.265L225.494 112.857C225.583 113.928 227.119 117.391 227.518 120.015C227.969 122.982 226.946 137.459 226.946 137.459H226.948L228.052 137.403C228.052 137.403 228.151 136.545 228.296 135.193C228.725 131.145 229.56 122.668 229.331 119.671ZM219.719 112.46C219.135 112.531 218.598 112.645 218.285 112.982C217.981 113.578 218.598 119.25 218.223 121.787C217.901 123.977 213.989 134.996 213.117 138.162L214.156 138.11C215.331 134.781 219.873 124.351 220.155 120.859C220.358 118.309 220.348 114.444 219.719 112.46Z" fill="#191E30"/>
<path d="M243.899 89.759C243.462 84.9453 236.692 84.8325 236.692 84.8325C232.076 88.3552 230.464 85.3582 230.464 85.3582L230.15 85.3683C229.278 85.3965 228.412 85.5395 227.586 85.8215C226.68 86.1296 225.615 86.6211 225.042 87.3502C224.076 88.5788 217.383 107.171 217.383 107.171L221.032 107.038C224.97 104.023 227.049 96.5728 227.049 96.5728C227.913 98.1035 228.537 104.049 228.728 106.075C228.728 106.079 228.728 106.083 228.73 106.087C228.767 106.462 230.549 106.684 230.928 106.67L242.283 106.265L242.34 104.239C244.332 103.515 244.334 94.5728 243.899 89.759Z" fill="#4492E0"/>
<path d="M231.969 106.639C232.102 106.599 232.233 106.559 232.386 106.512C235.066 105.687 240.74 103.864 241.636 102.976C242.535 102.087 243.506 93.9182 243.921 90.041C244.331 94.9111 244.295 103.528 242.335 104.239C240.766 104.986 235.453 106.077 232.692 106.613L231.969 106.639Z" fill="#1A70C6"/>
<path d="M238.161 90.7178C238.161 90.7178 238.3 98.593 238.541 101.179C238.541 101.179 232.209 103.513 230.89 104.198C230.89 104.198 236.739 101 237.061 99.9605C237.381 98.9213 237.575 92.1095 238.161 90.7178ZM227.049 96.5728C227.049 96.5728 224.97 104.023 221.033 107.038L220.727 107.05C224.922 101.822 226.211 94.6775 226.211 94.6775C226.837 95.6826 227.049 96.5728 227.049 96.5728Z" fill="#1A70C6"/>
<path d="M231.754 104.337C229.529 104.08 227.353 104.184 225.99 105.135C225.805 105.264 224.801 105.906 224.983 106.317C225.122 106.631 225.962 105.973 226.34 105.759C226.854 105.471 227.531 105.224 227.577 105.286C227.643 105.377 225.267 106.406 225.581 106.851C225.966 107.397 227.764 105.743 227.889 105.921C228.014 106.1 226.056 106.962 226.358 107.298C226.636 107.606 228.227 106.47 228.358 106.553C228.489 106.636 227.114 107.179 227.454 107.443C227.635 107.584 227.863 107.61 228.876 107.222C229.186 107.103 231.023 107.111 231.762 106.337C232.52 105.383 231.754 104.337 231.754 104.337Z" fill="#8CC5FE"/>
<path d="M212.792 107.598L228.774 107.405L225.265 95.0522L209.281 95.2456L212.792 107.598Z" fill="#839BB4"/>
<path d="M235.174 107.533L212.867 107.781L212.878 108.741L235.185 108.494L235.174 107.533Z" fill="#A5BED7"/>
<path d="M212.778 107.584L228.391 107.409L224.951 95.2981L209.336 95.4713L212.778 107.584Z" fill="#A5BED7"/>
<path d="M217.369 101.324C217.572 101.912 218.267 102.386 218.92 102.378C219.572 102.37 219.937 101.886 219.733 101.298C219.53 100.71 218.835 100.239 218.183 100.245C217.53 100.253 217.165 100.736 217.369 101.324Z" fill="#839BB4"/>
<path opacity="0.2" d="M228.391 107.409L224.951 95.2981L209.336 95.4713L228.391 107.409Z" fill="#A5BED7"/>
<path d="M235.202 107.509L228.836 107.58L228.847 108.541L235.213 108.469L235.202 107.509Z" fill="#839BB4"/>
<path d="M226.805 107.438L223.875 107.471L223.88 107.894L226.81 107.861L226.805 107.438Z" fill="#839BB4"/>
<path d="M216.375 107.534L213.867 107.562L213.872 107.985L216.379 107.957L216.375 107.534Z" fill="#839BB4"/>
<path d="M224.849 95.4532L209.38 95.6264L209.336 95.4713L224.951 95.2981L228.391 107.409L228.246 107.411L224.849 95.4532Z" fill="#BAD6F2"/>
<path d="M47.8551 225.134C47.8551 225.134 46.8158 244.862 46.123 249.09C46.123 249.09 46.5379 250.208 48.9871 250.925C51.4362 251.64 52.8683 252.357 51.8974 253.519C51.8974 253.519 42.6587 253.742 41.9195 253.207C41.1803 252.669 41.4583 251.819 42.5197 249.807C42.5197 249.807 40.995 227.126 41.8732 225.134H47.8551ZM40.2559 225.134C40.2559 225.134 40.1169 230.926 38.3163 234.908C36.5157 238.89 33.0957 246.898 33.0957 248.195C33.0957 249.492 33.0957 251.416 33.0957 251.416C33.0957 251.416 31.0635 252.757 30 250.477C30 250.477 30.4612 247.033 30.8782 244.348C31.2931 241.664 32.9104 233.434 33.5106 230.882C34.1108 228.332 34.2498 225.134 34.2498 225.134H40.2559Z" fill="#95BEE8"/>
<path d="M49.1971 250.985C51.5153 251.68 52.8426 252.389 51.9 253.517C51.9 253.517 42.6613 253.74 41.9221 253.205C41.2353 252.705 41.4266 251.936 42.3088 250.216C42.3108 250.218 46.9554 252.3 49.1971 250.985ZM33.0983 251.416C33.0983 251.416 34.484 252.612 33.7569 253.887C33.0298 255.162 29.6682 254.248 29.2533 253.565C28.8384 252.882 30.0046 250.477 30.0046 250.477L33.0983 251.416Z" fill="#2D303D"/>
<path d="M39.1567 164.984C39.1567 164.984 37.4386 164.096 36.1315 167.56C34.8223 171.027 34.7558 176.428 35.2272 178.267C35.2272 178.267 31.4285 182.358 34.5323 185.031C34.5323 185.031 38.8103 189.53 39.0922 190.688C39.203 190.416 41.0379 187.111 44.0127 186.928C46.9876 186.745 54.3169 179.045 50.4075 177.848C50.4075 177.848 50.6996 179.093 49.3642 178.795C48.0309 178.495 48.8708 173.903 48.8567 172.279C48.8426 170.656 47.8637 166.652 45.0198 164.954C42.1779 163.256 38.9029 163.375 39.1567 164.984Z" fill="#15161C"/>
<path d="M44.0135 175.673C44.0135 175.673 44.6278 177.961 45.0326 178.267C45.0326 178.267 45.4375 179.323 44.2451 182.306C43.0528 185.289 40.0316 183.623 39.5502 182.809C39.0668 181.996 38.0014 180.437 38.9742 178.888C38.9742 178.888 40.3075 177.921 39.6107 175.818C39.6086 175.816 43.802 174.97 44.0135 175.673Z" fill="#7AB2EB"/>
<path d="M39.085 175.87C39.085 175.87 41.1071 177.439 42.7587 176.833C44.4103 176.229 45.8765 174.63 46.3297 173.029C46.7829 171.429 46.0477 168.219 44.936 167.075C43.8242 165.933 39.6932 165.182 38.5331 166.67C37.373 168.16 36.9218 174.16 39.085 175.87Z" fill="#96C9FD"/>
<path d="M35.3573 204.183C35.3573 204.183 30.9604 206.551 30.7188 207.744L35.5647 206.193L35.3573 204.183Z" fill="#022ABF"/>
<path d="M48.2862 205.474C48.2862 205.474 50.0526 218.36 48.3386 226.574C48.3386 226.574 35.9135 227.557 33.5792 226.25C33.5792 226.25 32.7997 212.109 33.7624 205.547L48.2862 205.474Z" fill="#475791"/>
<path d="M33.5815 226.25C33.5815 226.25 33.6037 225.029 33.4688 223.802C34.5161 224.346 36.8384 225.778 40.3792 225.208C45.1889 224.433 46.2946 214.439 45.7287 209.74C45.5172 207.984 44.925 206.401 44.2644 205.105L48.2886 205.474C48.2886 205.474 50.055 218.36 48.341 226.574C48.341 226.574 35.9159 227.557 33.5815 226.25Z" fill="#3E4D87"/>
<path d="M39.6436 178.12C39.6436 178.12 43.2589 179.703 45.0092 177.899C45.0092 177.899 52.5883 185.49 48.2861 205.405C48.2861 205.405 33.8329 206.151 33.5469 206.201C33.2609 206.251 34.5841 201.883 36.274 200.67C37.9517 199.466 47.6517 193.879 39.6053 178.44C39.5509 178.334 39.559 178.273 39.6436 178.12Z" fill="#F6F6F6"/>
<path d="M38.2948 205.917C49.733 203.321 46.1982 191.623 46.5889 189.278C46.9132 187.329 43.6846 180.88 42.5869 178.761C43.467 178.769 44.3694 178.565 45.0179 177.897C45.0179 177.897 52.597 185.488 48.2949 205.403C48.2949 205.403 42.5526 205.7 38.2344 205.931C38.2545 205.927 38.2747 205.921 38.2948 205.917Z" fill="#DCE3EA"/>
<path d="M56.264 193.27C57.5087 195.639 60.5722 195.353 60.5722 195.353L59.0696 198.862C54.701 200.378 51.9437 196.606 51.9437 196.606C49.0877 193.816 48.0625 178.745 48.0625 178.745C52.6043 179.989 55.0193 190.902 56.264 193.27Z" fill="#77BBFF"/>
<path d="M50.8327 183.971C50.8327 183.971 50.6051 182.523 50.1156 180.62C49.9747 180.072 49.6101 179.421 49.1025 179.109C48.0049 178.432 46.2445 178.096 44.887 177.899C44.887 177.899 48.6554 192.259 48.3996 203.2C48.2163 204.163 48.1358 204.995 48.2888 205.403C48.2888 205.403 49.1871 205.758 50.7279 206.789C52.1418 207.736 50.1801 199.627 49.8478 198.286C50.7581 193.067 51.3664 189.401 50.8327 183.971ZM39.5395 178.076C39.5395 178.076 38.5909 178.175 37.2877 178.567C36.7641 178.726 33.2273 180.02 33.467 185.643C33.7268 191.715 34.2787 196.835 33.4045 198.922C32.5304 201.009 30.5384 204.475 30.4297 208.217C34.9393 204.582 40.3895 200.678 43.3744 194.404C47.5275 185.679 39.5395 178.076 39.5395 178.076Z" fill="#77BBFF"/>
<path d="M36.2966 179.037C35.0881 179.788 33.2996 181.591 33.4748 185.643C33.7346 191.715 34.2865 196.835 33.4123 198.922C32.5382 201.009 30.5463 204.475 30.4375 208.217C30.4375 208.217 32.3892 201.975 35.5695 198.708C35.5695 198.708 33.0156 185.574 36.2966 179.037Z" fill="#5297DD"/>
<path d="M43.1934 198.513C43.1934 198.513 42.3354 199.591 44.3092 199.855L52.4442 202.457L53.1693 201.275L43.1934 198.513Z" fill="#171C2E"/>
<path d="M43.3989 198.346L55.5983 193.142L52.5288 202.157L43.4351 199.19C43.0403 199.059 43.0162 198.509 43.3989 198.346Z" fill="#282B37"/>
<path d="M44.2557 198.273L55.2387 193.589L52.4753 201.706L44.2879 199.033C43.9314 198.916 43.9093 198.42 44.2557 198.273Z" fill="#353948"/>
<path d="M56.5911 189.442L66.8651 184.169C67.4311 183.879 68.0756 184.386 67.9266 185.005L65.5217 194.89L52.2266 202.33L55.8661 190.31C55.9809 189.935 56.2407 189.621 56.5911 189.442Z" fill="#171C2E"/>
<path d="M56.8099 189.566L67.0839 184.294C67.6499 184.003 68.2944 184.511 68.1453 185.129L65.7405 195.015L52.4453 202.455L56.0848 190.433C56.1996 190.06 56.4615 189.746 56.8099 189.566Z" fill="#585E76"/>
<path d="M49.3051 195.826C50.2376 196.322 51.4682 196.755 51.4541 197.186C51.428 198.124 49.8711 198.338 49.2024 197.961C48.5619 197.546 48.1953 196.447 48.1953 196.447C48.1953 196.447 48.3806 195.335 49.3051 195.826Z" fill="#84BCF4"/>
<path d="M53.0479 198.872C53.1929 198.819 52.7861 197.82 52.6209 197.641C52.488 197.498 52.3611 197.309 50.9129 196.62L51.2573 197.536C51.2573 197.536 52.1919 197.837 52.3087 197.921C52.4255 198.008 52.5444 198.765 53.0479 198.872ZM51.5212 200.262C51.7427 200.29 51.7085 199.281 51.6501 199.047C51.5736 198.753 51.642 198.638 51.0378 197.152L50.6612 198.034C50.6612 198.034 51.1808 199.031 51.209 199.172C51.2372 199.313 51.2251 200.038 51.5212 200.262ZM50.7518 200.237C50.9633 200.264 50.9331 199.295 50.8747 199.071C50.8022 198.789 50.8666 198.678 50.2865 197.252L49.926 198.098C49.926 198.098 50.4235 199.057 50.4517 199.192C50.4799 199.325 50.4678 200.022 50.7518 200.237ZM49.8918 199.647C50.071 199.669 50.0449 198.85 49.9965 198.66C49.9341 198.421 49.9905 198.328 49.499 197.12L49.1929 197.835C49.1929 197.835 49.6138 198.646 49.638 198.759C49.6622 198.878 49.6521 199.466 49.8918 199.647ZM48.3349 196.539L46.7578 196.324L47.0801 194.882C47.0801 194.882 47.9985 195.18 49.3077 195.824L48.3349 196.539Z" fill="#84BCF4"/>
<path d="M34.9814 179.706C31.9139 179.917 29.2533 194.314 31.3318 196.213C34.0368 198.993 42.49 196.884 47.2152 196.759C47.2152 196.759 48.0148 195.965 48.1135 195.14C44.6834 193.542 35.916 193.736 35.1405 193.438C34.3631 193.138 38.0389 179.496 34.9814 179.706Z" fill="#77BBFF"/>
<path d="M31.7137 195.528C30.0823 194.038 31.4398 184.983 33.6009 180.723C31.2283 184.493 29.6029 194.636 31.329 196.213C34.034 198.993 42.4872 196.884 47.2123 196.759C47.2123 196.759 47.4822 196.473 47.7299 196.082C42.9726 196.243 34.3925 198.282 31.7137 195.528Z" fill="#5297DD"/>
<path d="M39.1719 178.072L42.3783 180.723L42.8899 178.835L40.3179 178.112L39.1719 178.072Z" fill="#9CBFE2"/>
<path d="M44.889 177.899L43.0078 178.761L44.7863 180.805C44.7863 180.805 45.6503 178.712 44.889 177.899Z" fill="#9CBFE2"/>
<path d="M36.7907 181.005C36.7907 181.005 35.1331 181.647 34.1905 180.366C33.2479 179.087 34.8289 178.318 34.8289 178.318C34.8289 178.318 33.8017 179.613 35.3002 179.774C36.7987 179.937 36.8088 177.42 36.2811 176.032C34.7604 172.024 35.6426 169.387 36.3456 167.949C37.0485 166.513 38.3013 165.462 38.3013 165.462L39.1573 164.984L39.7514 166.441C39.7514 166.441 38.6719 168.09 38.126 169.609C37.5802 171.129 37.3466 173.083 38.6276 175.601C39.9065 178.118 40.2288 180.594 36.7907 181.005Z" fill="#192244"/>
<path d="M39.7504 166.441L39.1562 164.984C39.1562 164.984 37.4402 164.096 36.131 167.56C35.6819 168.751 35.4462 170.179 35.3516 171.617C35.9397 173.772 37.6033 176.255 38.5097 178.364C39.6537 181.027 36.1532 180.316 36.1532 180.316C36.1532 180.316 37.3194 182.29 39.0736 180.769C41.0012 179.097 39.3194 176.338 38.5842 174.894C37.8491 173.45 37.9719 170.713 38.6769 169.158C39.3838 167.605 39.7504 166.441 39.7504 166.441Z" fill="#262F51"/>
<path d="M39.7487 166.44C39.7487 166.44 43.6661 165.401 45.6339 170.144C47.6017 174.888 44.7779 177.073 45.2734 178.535C45.7709 179.997 47.1042 180.207 48.2502 178.702C48.2502 178.702 46.8424 179.611 46.6329 178.586C46.4234 177.56 48.7638 176.058 48.5504 172.146C48.4758 170.773 48.2523 169.591 47.9945 168.634C47.3922 167.22 46.4375 165.8 45.0196 164.952C42.1757 163.254 38.9007 163.373 39.1545 164.984L39.7487 166.44Z" fill="#192244"/>
<path d="M59.675 194.217C59.5038 194.06 59.2278 194.165 59.2077 194.396C59.1916 194.584 59.2158 194.817 59.3487 195.069C59.675 195.692 59.7052 196.403 59.5562 196.403C59.4071 196.403 58.9942 195.069 58.4907 195.174C57.9872 195.279 59.0244 196.848 58.8754 197.055C58.7263 197.263 58.1644 195.959 57.8985 196.195C57.6327 196.433 58.5209 197.794 58.4323 197.971C58.3437 198.149 57.7515 197.41 57.6911 197.675C57.6327 197.941 57.7757 198.475 58.6679 199.039C58.6679 199.039 60.0033 199.988 60.6538 199.277C61.2681 198.602 61.5401 195.931 59.675 194.217Z" fill="#96C9FD"/>
<path d="M19.3335 240.846C19.8774 240.449 20.9831 240.924 24.5743 239.43C29.811 237.248 31.8573 225.977 31.8573 225.977C23.8875 224.98 24.391 236.463 21.3074 238.427C19.9156 239.313 19.261 240.171 18.9609 240.848H19.3335V240.846Z" fill="#66A7E8"/>
<path d="M29.389 229.333C27.7495 232.672 25.816 237.599 22.5511 239.172C21.6407 239.611 20.974 240.106 20.4766 240.594C21.2641 240.497 22.5048 240.292 24.5773 239.428C29.814 237.246 31.8603 225.975 31.8603 225.975C31.8603 225.975 31.0285 225.993 29.389 229.333Z" fill="#3F88D2"/>
<path d="M15.9723 240.846H16.8363C17.3983 239.651 17.5775 237.41 15.7004 233.289C12.226 225.665 10.4737 215.778 12.8947 212.87C12.8947 212.87 4.60461 218.777 6.48982 224.924C8.25821 230.693 17.1646 234.535 15.9723 240.846Z" fill="#358DE6"/>
<path d="M16.3274 240.846H16.839C17.4009 239.653 17.5802 237.41 15.703 233.289C12.2287 225.665 10.4764 215.778 12.8974 212.87C12.8974 212.87 7.42503 218.954 9.50158 224.781C11.5519 230.533 17.8662 233.528 16.3274 240.846Z" fill="#0575E6"/>
<path d="M7.79027 237.623C10.9444 238.908 12.2938 239.764 13.174 240.846H14.2818C13.454 238.342 12.9605 235.665 11.0169 233.641C8.81142 231.343 0.30783 227.559 0.0157834 227.12C-0.276263 226.682 3.5284 235.887 7.79027 237.623Z" fill="#498FD5"/>
<path d="M13.3088 240.139C13.3752 240.34 13.4699 240.582 13.5847 240.846H14.2816C13.4538 238.342 12.9603 235.665 11.0167 233.641C8.81126 231.343 0.307672 227.558 0.015625 227.119C0.015625 227.119 4.14254 232.296 8.73271 234.66C12.0197 236.356 12.8878 238.86 13.3088 240.139Z" fill="#0F63B8"/>
<path d="M18.3715 237.23C18.2648 238.739 17.9244 239.945 17.5619 240.844H18.1661C20.2366 238.171 23.4209 232.981 22.8248 226.922C21.9526 218.068 21.006 206.968 21.006 206.968C21.006 206.968 9.35234 215.804 15.0865 225.607C17.9446 230.495 18.5709 234.392 18.3715 237.23Z" fill="#66A7E8"/>
<path d="M18.9602 220.898C20.1425 228.235 20.1566 236.451 18.2734 239.927C18.6158 239.684 18.9844 239.428 19.359 239.17C21.2563 236.278 23.3107 231.895 22.8213 226.926C21.9492 218.072 21.0026 206.972 21.0026 206.972C21.0026 206.972 17.4215 211.347 18.9602 220.898Z" fill="#3F88D2"/>
<path d="M25.223 240.308H11.9581C10.7818 240.308 9.88957 241.367 10.091 242.527L11.7869 252.29C12.0507 253.676 13.2632 254.679 14.6731 254.679H22.508C23.9199 254.679 25.1304 253.676 25.3942 252.29L27.0901 242.527C27.2915 241.367 26.3993 240.308 25.223 240.308Z" fill="#CAE1F9"/>
<path d="M27.1112 242.268C27.1495 241.214 26.3076 240.308 25.22 240.308H11.955C10.8674 240.308 10.0255 241.214 10.0638 242.268H27.1112Z" fill="#A1C6EB"/>
<path d="M25.2232 240.308H21.5353C22.7116 240.308 23.6038 241.367 23.4024 242.527L21.7065 252.29C21.4427 253.676 20.2322 254.679 18.8203 254.679H22.5082C23.92 254.679 25.1305 253.676 25.3944 252.29L27.0903 242.527C27.2917 241.367 26.3994 240.308 25.2232 240.308Z" fill="#A1C6EB"/>
<path d="M337.724 240.846C338.268 240.449 339.374 240.924 342.965 239.43C348.202 237.248 350.248 225.977 350.248 225.977C342.278 224.98 342.782 236.463 339.698 238.427C338.306 239.313 337.652 240.171 337.352 240.848H337.724V240.846Z" fill="#66A7E8"/>
<path d="M347.78 229.333C346.14 232.672 344.207 237.599 340.942 239.172C340.031 239.611 339.365 240.106 338.867 240.594C339.655 240.497 340.895 240.292 342.968 239.428C348.205 237.246 350.251 225.975 350.251 225.975C350.251 225.975 349.417 225.993 347.78 229.333Z" fill="#3F88D2"/>
<path d="M334.363 240.846H335.227C335.789 239.651 335.968 237.41 334.091 233.289C330.617 225.665 328.864 215.778 331.285 212.87C331.285 212.87 322.995 218.777 324.88 224.924C326.651 230.693 335.555 234.535 334.363 240.846Z" fill="#358DE6"/>
<path d="M334.718 240.846H335.23C335.792 239.653 335.971 237.41 334.094 233.289C330.619 225.665 328.867 215.778 331.288 212.87C331.288 212.87 325.816 218.954 327.892 224.781C329.943 230.533 336.259 233.528 334.718 240.846Z" fill="#0575E6"/>
<path d="M326.181 237.623C329.335 238.908 330.684 239.764 331.565 240.846H332.672C331.845 238.342 331.351 235.665 329.407 233.641C327.202 231.343 318.698 227.559 318.406 227.12C318.114 226.682 321.921 235.887 326.181 237.623Z" fill="#498FD5"/>
<path d="M331.699 240.139C331.766 240.34 331.861 240.582 331.975 240.846H332.672C331.844 238.342 331.351 235.665 329.407 233.641C327.202 231.343 318.698 227.558 318.406 227.119C318.406 227.119 322.533 232.296 327.123 234.66C330.41 236.356 331.28 238.86 331.699 240.139Z" fill="#0F63B8"/>
<path d="M336.762 237.23C336.655 238.739 336.315 239.945 335.952 240.844H336.557C338.627 238.171 341.812 232.981 341.215 226.922C340.343 218.068 339.397 206.968 339.397 206.968C339.397 206.968 327.743 215.804 333.477 225.607C336.335 230.495 336.962 234.392 336.762 237.23Z" fill="#66A7E8"/>
<path d="M337.351 220.898C338.533 228.235 338.547 236.451 336.664 239.927C337.006 239.684 337.375 239.428 337.75 239.17C339.647 236.278 341.701 231.895 341.212 226.926C340.34 218.072 339.393 206.972 339.393 206.972C339.393 206.972 335.814 211.347 337.351 220.898Z" fill="#3F88D2"/>
<path d="M343.614 240.308H330.349C329.172 240.308 328.28 241.367 328.482 242.527L330.178 252.29C330.441 253.676 331.654 254.679 333.064 254.679H340.899C342.311 254.679 343.521 253.676 343.785 252.29L345.481 242.527C345.68 241.367 344.788 240.308 343.614 240.308Z" fill="#CAE1F9"/>
<path d="M345.502 242.268C345.54 241.214 344.698 240.308 343.611 240.308H330.346C329.258 240.308 328.416 241.214 328.454 242.268H345.502Z" fill="#A1C6EB"/>
<path d="M343.614 240.308H339.926C341.102 240.308 341.994 241.367 341.793 242.527L340.097 252.29C339.833 253.676 338.623 254.679 337.211 254.679H340.899C342.311 254.679 343.521 253.676 343.785 252.29L345.481 242.527C345.68 241.367 344.788 240.308 343.614 240.308Z" fill="#A1C6EB"/>
</svg>
