<svg width="237" height="260" viewBox="0 0 237 260" fill="none" xmlns="http://www.w3.org/2000/svg">
<path d="M215.447 176.394C213.974 179.173 212.092 181.715 209.864 183.935L206.127 187.682L203.249 190.549L200.36 193.437L160.992 232.808L143.05 250.759C130.729 263.08 110.742 263.08 98.4212 250.759L54.0011 206.332L41.1063 193.437L38.2194 190.55L31.6081 183.932C19.2869 171.611 19.2869 151.634 31.6081 139.314L49.5591 121.372L94.6847 76.2369L98.4221 72.4995C101.352 69.5691 104.831 67.2445 108.66 65.6586C112.489 64.0726 116.592 63.2563 120.737 63.2563C124.881 63.2563 128.984 64.0726 132.813 65.6586C136.642 67.2445 140.121 69.5691 143.051 72.4995L152.361 81.8093L209.864 139.314C219.901 149.353 221.764 164.475 215.447 176.394Z" fill="#F0F6FD"/>
<path opacity="0.48" d="M215.447 176.394C213.975 179.173 212.093 181.715 209.865 183.935L206.127 187.681L203.25 190.549L200.361 193.437L160.992 232.808L143.051 250.759C130.729 263.08 110.743 263.08 98.4219 250.759C213.212 189.556 120.731 63.2598 120.731 63.2598C124.877 63.2539 128.983 64.0675 132.813 65.6538C136.643 67.24 140.122 69.5678 143.05 72.5031L152.36 81.8128L209.863 139.317C219.901 149.353 221.765 164.475 215.447 176.394Z" fill="url(#paint0_linear_11130_34998)"/>
<path d="M77.9715 59.4117H48.6967C32.2178 59.4117 18.1668 45.9342 18.3136 29.4553C18.4475 12.7567 32.3508 -0.650654 49.2452 0.0244218C64.8523 0.645934 77.4709 13.5878 77.7203 29.2069C77.8432 35.7232 75.8103 42.0977 71.9373 47.3397L77.9715 59.4117Z" fill="#71B7FD"/>
<path d="M77.9715 59.4117H48.6967C32.2178 59.4117 18.1668 45.9342 18.3136 29.4553C18.4475 12.7567 32.3508 -0.650654 49.2452 0.0244218C13.6232 34.9132 77.9715 59.4117 77.9715 59.4117Z" fill="url(#paint1_linear_11130_34998)"/>
<path d="M47.5286 42.68C47.2068 43.0532 46.8088 43.3532 46.3615 43.5599C45.9141 43.7665 45.4277 43.875 44.9349 43.8781C44.4421 43.8811 43.9544 43.7787 43.5045 43.5776C43.0546 43.3765 42.6529 43.0815 42.3265 42.7123L34.9783 34.4008C33.9836 33.237 33.4919 31.7258 33.6114 30.1995C33.7309 28.6732 34.4518 27.2568 35.6155 26.2621L44.9373 37.1658L57.0794 22.8414C58.0694 21.6737 59.4828 20.947 61.0085 20.8213C62.5343 20.6955 64.0475 21.181 65.2154 22.171L47.5286 42.68Z" fill="white"/>
<path opacity="0.77" d="M147.387 157.683C146.604 157.03 141.448 152.677 137.102 149.426C140.629 151.809 144.264 154.598 147.387 157.683Z" fill="url(#paint2_linear_11130_34998)"/>
<path opacity="0.77" d="M194.921 99.543L187.128 107.585C179.065 113.502 173.288 116.457 173.288 116.457L143.048 121.295C135.481 122.579 129.935 124.838 126.712 126.435C116.351 124.418 110.418 123.981 110.418 123.981C93.9849 122.369 82.4273 126.705 72.7519 127.206C62.3099 127.751 37.6304 107.586 37.6304 107.586L17.875 138.829C33.1866 148.311 56.3774 157.679 63.6314 166.141C70.8855 174.603 84.9993 185.996 84.9993 185.996C92.3559 191.336 122.186 203.028 122.186 203.028C131.964 206.754 136.602 203.53 136.602 203.53C139.725 201.615 135.292 200.542 135.292 200.542L116.442 191.336C111.906 188.715 115.838 189.928 115.838 189.928L132.973 198.692C142.141 203.228 148.091 197.986 148.091 197.986C152.119 195.872 146.678 193.645 146.678 193.645L128.842 183.824C117.754 176.262 129.247 182.465 129.247 182.465C129.247 182.465 143.453 190.528 148.592 193.645C148.7 193.71 148.803 193.769 148.904 193.824C152.783 195.884 158.348 193.607 160.866 192.352C161.983 191.797 162.898 190.863 163.342 189.693C164.582 186.461 161.088 185.589 161.088 185.589C158.37 185.691 150.911 181.156 150.911 181.156L136.301 171.08C131.561 166.647 137.606 170.071 137.606 170.071L154.946 181.559C166.838 188.317 170.867 182.066 170.867 182.066C174.999 177.126 169.254 173.803 169.254 173.803L168.472 173.269C177.5 168.803 191.226 147.495 191.226 147.495L219.111 128.818L194.921 99.543ZM137.105 151.044C135.126 149.711 133.184 148.509 131.379 147.442C132.34 147.641 134.588 149.157 137.105 151.044C140.632 153.427 144.267 156.215 147.39 159.301C146.608 158.649 141.452 154.296 137.105 151.044Z" fill="url(#paint3_linear_11130_34998)"/>
<path opacity="0.77" d="M147.387 157.683C146.604 157.03 141.448 152.677 137.102 149.426C140.629 151.809 144.264 154.598 147.387 157.683Z" fill="url(#paint4_linear_11130_34998)"/>
<path d="M131.362 149.486L84.2109 186.056L123.835 206.678C123.835 206.678 158.454 189.637 169.097 179.909L131.362 149.486Z" fill="#A7C7E8"/>
<path d="M170.867 189.029C170.867 189.029 166.838 195.28 154.946 188.527L137.606 177.04C137.606 177.04 131.56 173.61 136.301 178.043L150.912 188.123C150.912 188.123 158.371 192.658 161.089 192.556C161.089 192.556 164.583 193.429 163.343 196.665C162.895 197.831 161.984 198.763 160.867 199.324C158.349 200.581 152.788 202.856 148.905 200.791C148.803 200.737 148.7 200.677 148.593 200.618C143.453 197.495 129.248 189.432 129.248 189.432C129.248 189.432 117.755 183.236 128.843 190.792L146.679 200.619C146.679 200.619 152.121 202.835 148.092 204.959C148.092 204.959 142.142 210.202 132.974 205.666L115.839 196.892C115.839 196.892 111.908 195.684 116.443 198.305L135.293 207.506C135.293 207.506 139.726 208.585 136.603 210.499C136.603 210.499 131.965 213.724 122.187 209.992C122.187 209.992 92.3577 198.305 85.0002 192.96L84.9891 192.949C84.5634 192.604 70.7774 181.44 63.6314 173.107C57.2455 165.648 38.493 157.5 23.6561 149.182C21.6447 148.055 19.7026 146.928 17.875 145.794L37.6304 114.551C37.6304 114.551 62.3099 134.711 72.7519 134.171C82.4273 133.664 93.9849 129.334 110.418 130.947C110.418 130.947 119.528 131.615 134.872 135.132C150.437 138.691 109.793 141.657 121.685 149.321C121.685 149.321 137.304 156.273 147.487 166.353L160.992 175.117L169.254 180.764C169.254 180.764 174.999 184.094 170.867 189.029Z" fill="#D2E7FC"/>
<path d="M90.1719 167.5C90.1719 167.5 93.6387 171.797 99.1944 169.781C99.1944 169.781 107.438 166.998 113.352 159.723C113.352 159.723 120.608 156.344 132.702 155.134L130.821 152.179L111.437 155.538L90.1719 167.5Z" fill="url(#paint5_linear_11130_34998)"/>
<path d="M90.1018 162.864C90.1018 162.864 96.2828 157.284 99.5076 152.178C99.5076 152.178 100.314 148.684 105.151 146.801L123.426 135.246C123.426 135.246 130.414 130.408 143.046 128.257L173.281 123.42C173.281 123.42 179.06 120.465 187.123 114.555L194.917 106.514L219.105 135.788L191.217 154.462C191.217 154.462 177.492 175.768 168.465 180.233C168.465 180.233 150.808 169.392 147.477 166.354C147.477 166.354 134.097 154.966 131.363 154.412C131.363 154.412 119.459 155.268 113.11 157.989C113.11 157.989 102.12 170.087 93.5575 168.874C93.5612 168.874 86.6415 167.337 90.1018 162.864ZM102.839 207.598C102.839 207.598 102.708 202.853 107.716 203.518L118.613 209.384C118.613 209.384 103.734 211.372 102.839 207.598Z" fill="#A7C7E8"/>
<path opacity="0.43" d="M102.844 200.801C102.844 200.801 116.128 206.906 118.937 209.154L119.53 209.908C119.53 209.908 104.54 201.633 103.112 201.62L102.844 200.801Z" fill="#A7C7E8"/>
<path d="M94.8429 203.913C94.8429 203.913 89.6298 196.631 92.7771 194.748C92.7771 194.748 99.4262 190.974 102.213 199.33C102.213 199.33 105.987 206.52 100.415 207.058C100.415 207.058 96.785 207.204 94.8429 203.913ZM72.8305 190.974C72.8305 190.974 72.0224 186.373 75.7958 186.157C75.7958 186.157 81.7274 188.728 81.7274 193.04C81.7274 193.04 83.9004 198.074 77.2429 196.18C77.2392 196.184 73.7263 194.387 72.8305 190.974Z" fill="#A7C7E8"/>
<path d="M82.8654 197.403C82.134 195.677 83.0131 191.141 85.5823 190.345C85.5823 190.345 91.5379 189.518 91.7633 193.894C91.7633 193.894 90.3614 196.714 93.2593 202.102C93.6786 202.88 88.2558 206.477 84.3938 200.477C84.391 200.477 83.2043 198.205 82.8654 197.403Z" fill="#A7C7E8"/>
<path d="M132.578 154.934C132.578 154.934 150.444 154.6 159.583 149.493C159.583 149.493 150.553 156.669 134.59 156.48L132.578 154.934ZM152.08 169.743L155.95 163.96C155.95 163.96 151.687 168.217 151.433 169.302C151.39 169.494 152.08 169.743 152.08 169.743Z" fill="#84ABD3"/>
<path d="M201.412 93.1996L189.132 103.38C187.86 104.435 187.683 106.322 188.738 107.594L217.233 141.965C218.288 143.238 220.175 143.414 221.448 142.359L233.727 132.179C235 131.124 235.176 129.237 234.121 127.964L205.626 93.5935C204.571 92.321 202.684 92.1446 201.412 93.1996Z" fill="url(#paint6_linear_11130_34998)"/>
<path d="M2.4879 145.167L15.7333 154.055C17.106 154.976 18.9654 154.609 19.8864 153.237L44.7618 116.162C45.6828 114.79 45.3167 112.93 43.944 112.009L30.6986 103.122C29.3259 102.201 27.4665 102.567 26.5455 103.94L1.6701 141.014C0.749097 142.387 1.11523 144.246 2.4879 145.167Z" fill="url(#paint7_linear_11130_34998)"/>
<path d="M13.581 146.926C15.5081 146.75 16.9272 145.044 16.7508 143.117C16.5744 141.19 14.8693 139.771 12.9423 139.948C11.0153 140.124 9.59612 141.829 9.7725 143.756C9.94889 145.683 11.654 147.102 13.581 146.926Z" fill="white"/>
<path d="M84.9893 192.95C84.5636 192.605 70.7776 181.441 63.6316 173.108C57.2456 165.649 38.4931 157.501 23.6562 149.183L24.1088 146.944C24.1088 146.944 66.0576 168.68 75.0488 163.173C75.0451 163.173 72.5572 179.563 84.9893 192.95Z" fill="url(#paint8_linear_11130_34998)"/>
<defs>
<linearGradient id="paint0_linear_11130_34998" x1="158.765" y1="86.2484" x2="158.765" y2="367.074" gradientUnits="userSpaceOnUse">
<stop stop-color="#D6E9FD"/>
<stop offset="1" stop-color="#D2E7FD"/>
</linearGradient>
<linearGradient id="paint1_linear_11130_34998" x1="47.9218" y1="45.1169" x2="24.9822" y2="-59.3896" gradientUnits="userSpaceOnUse">
<stop stop-color="#71B7FD"/>
<stop offset="1" stop-color="#C4E1FE"/>
</linearGradient>
<linearGradient id="paint2_linear_11130_34998" x1="137.102" y1="153.555" x2="147.387" y2="153.555" gradientUnits="userSpaceOnUse">
<stop stop-color="#D6E9FD"/>
<stop offset="1" stop-color="#D2E7FD"/>
</linearGradient>
<linearGradient id="paint3_linear_11130_34998" x1="17.8759" y1="152.185" x2="219.11" y2="152.185" gradientUnits="userSpaceOnUse">
<stop stop-color="#D6E9FD"/>
<stop offset="1" stop-color="#D2E7FD"/>
</linearGradient>
<linearGradient id="paint4_linear_11130_34998" x1="137.102" y1="153.555" x2="147.387" y2="153.555" gradientUnits="userSpaceOnUse">
<stop stop-color="#D6E9FD"/>
<stop offset="1" stop-color="#D2E7FD"/>
</linearGradient>
<linearGradient id="paint5_linear_11130_34998" x1="145.366" y1="144.245" x2="64.3712" y2="182.804" gradientUnits="userSpaceOnUse">
<stop stop-color="#71B7FD"/>
<stop offset="1" stop-color="#C4E1FE" stop-opacity="0"/>
</linearGradient>
<linearGradient id="paint6_linear_11130_34998" x1="171.363" y1="71.0686" x2="255.704" y2="169.409" gradientUnits="userSpaceOnUse">
<stop stop-color="#0575E6"/>
<stop offset="1" stop-color="#D2E7FD"/>
</linearGradient>
<linearGradient id="paint7_linear_11130_34998" x1="39.7003" y1="102.12" x2="-34.438" y2="208.362" gradientUnits="userSpaceOnUse">
<stop stop-color="#0575E6"/>
<stop offset="1" stop-color="#021B79"/>
</linearGradient>
<linearGradient id="paint8_linear_11130_34998" x1="128.52" y1="233.084" x2="15.2607" y2="123.061" gradientUnits="userSpaceOnUse">
<stop stop-color="#71B7FD"/>
<stop offset="1" stop-color="#C4E1FE" stop-opacity="0"/>
</linearGradient>
</defs>
</svg>
