<svg width="289" height="260" viewBox="0 0 289 260" fill="none" xmlns="http://www.w3.org/2000/svg">
<path opacity="0.36" d="M15.8869 154.767C3.48229 132.944 -4.79836 106.905 3.09146 83.6273C10.5788 61.5352 32.2988 50.2392 53.6528 44.9248C75.9816 39.3675 99.4238 38.7338 121.992 34.0103C145.667 29.0556 168.94 22.1452 191.443 13.2682C201.649 9.24234 211.741 4.79915 222.375 2.09603C241.545 -2.77692 265.067 0.299134 277.59 17.1431C290.666 34.7313 291.259 60.1891 281.817 79.5586C271.029 101.687 251.68 119.037 244.575 143.07C240.269 157.639 241.283 173.467 236.199 187.761C231.221 201.759 223.69 214.974 213.363 225.723C201.577 237.991 186.031 246.906 169.214 249.476C145.993 253.023 122.608 244.496 101.773 233.651C73.9138 219.15 47.9445 199.774 28.9307 174.543C24.4229 168.562 19.9362 161.889 15.8877 154.767L15.8869 154.767Z" fill="#E9EDF2"/>
<path d="M282.543 254.137H5.70546C4.08615 254.137 2.77344 255.449 2.77344 257.068C2.77344 258.687 4.08615 260 5.70546 260H282.543C284.162 260 285.475 258.687 285.475 257.068C285.475 255.449 284.162 254.137 282.543 254.137Z" fill="#141721"/>
<path d="M40.4228 207.105C41.0721 209.172 44.5195 209.929 48.1226 208.796C51.725 207.664 54.1182 205.071 53.4681 203.003C52.8188 200.937 49.3722 200.18 45.7691 201.313C42.1659 202.445 39.7727 205.039 40.422 207.105H40.4228ZM32.9744 206.863C35.1348 206.698 36.653 203.512 36.365 199.746C36.0777 195.98 34.0931 193.062 31.9327 193.227C29.773 193.392 28.2548 196.578 28.5429 200.343C28.8301 204.109 30.8147 207.028 32.9744 206.863ZM30.4005 219.809C32.1141 218.403 31.6033 214.947 29.2583 212.091C26.9141 209.235 23.6255 208.06 21.9112 209.468C20.1976 210.875 20.7083 214.33 23.0533 217.186C25.3975 220.042 28.6869 221.216 30.4005 219.81V219.809ZM30.1272 229.649C31.0794 228.077 29.6219 225.451 26.8705 223.786C24.1207 222.121 21.1186 222.046 20.1664 223.62C19.2143 225.193 20.6717 227.818 23.4231 229.482C26.1737 231.147 29.175 231.222 30.1272 229.649ZM43.1485 219.062C43.3244 220.926 46.2019 222.179 49.5738 221.86C52.9465 221.541 55.5375 219.772 55.3616 217.907C55.1848 216.044 52.3081 214.792 48.9362 215.111C45.5635 215.43 42.9725 217.199 43.1485 219.063V219.062ZM41.3266 228.762C41.4582 230.147 43.5969 231.079 46.1038 230.842C48.6115 230.605 50.5377 229.29 50.4069 227.903C50.2753 226.517 48.1366 225.587 45.6297 225.824C43.122 226.061 41.1959 227.377 41.3259 228.763L41.3266 228.762Z" fill="#53A8FE"/>
<path d="M36.9423 213.218C36.2766 212.538 33.1204 206.832 32.9219 205.951L33.6054 205.797C33.7697 206.527 36.8901 212.163 37.4429 212.728L36.9415 213.218H36.9423ZM37.534 223.53L36.9267 223.18C38.3764 220.661 42.748 218.641 43.8714 218.461L43.9827 219.153C43.0555 219.302 38.8817 221.189 37.534 223.53ZM37.2786 231.445L36.6698 231.097C37.541 229.571 40.9884 228.362 41.9087 228.362C41.9211 228.362 41.9328 228.362 41.9437 228.362L41.9172 229.061C41.9095 229.061 41.9009 229.061 41.8931 229.061C41.1473 229.061 37.9902 230.197 37.2786 231.444V231.445Z" fill="#0575E6"/>
<path d="M34.1581 238.014L34.3846 236.699C36.0383 227.097 32.0217 222.534 30.0917 220.342C29.7312 219.933 29.4471 219.61 29.2734 219.337L29.8644 218.961C30.0092 219.188 30.2778 219.493 30.618 219.879C31.6223 221.02 33.1397 222.744 34.2242 225.466C35.3679 228.338 35.7276 231.639 35.2963 235.299C37.3377 231.644 37.0356 226.329 36.7421 221.17C36.3528 214.321 35.9853 207.851 41.7762 207.172L41.8579 207.868C36.7226 208.47 37.0566 214.337 37.442 221.13C37.6055 224.01 37.7744 226.986 37.5206 229.734C37.2294 232.889 36.405 235.259 35.002 236.98L34.1588 238.014H34.1581Z" fill="#0575E6"/>
<path d="M34.8599 233.557C33.2327 232.055 30.4315 229.804 29.3828 229.762L29.4108 229.062C31.0512 229.128 34.902 232.642 35.3356 233.042L34.8599 233.557Z" fill="#0575E6"/>
<path d="M47.4652 234.514H20.8404C20.6783 234.514 20.5469 234.645 20.5469 234.807V240.733C20.5469 240.895 20.6783 241.026 20.8404 241.026H47.4652C47.6273 241.026 47.7587 240.895 47.7587 240.733V234.807C47.7587 234.645 47.6273 234.514 47.4652 234.514Z" fill="#505A82"/>
<path d="M39.7578 256.28H28.5405C27.7386 256.28 27.0371 255.742 26.83 254.967L23.0938 241.025H45.2046L41.4683 254.967C41.2612 255.741 40.559 256.28 39.7578 256.28Z" fill="#393E50"/>
<path d="M24.6182 246.686L45.2116 241.025H23.1016L24.6182 246.686Z" fill="#232633"/>
<path d="M231.839 73.8403C243.78 73.8403 253.459 64.1605 253.459 52.2199C253.459 40.2794 243.78 30.5996 231.839 30.5996C219.899 30.5996 210.219 40.2794 210.219 52.2199C210.219 64.1605 219.899 73.8403 231.839 73.8403Z" fill="#53A8FE"/>
<path d="M224.218 48.0333C225.611 48.0333 226.74 46.9039 226.74 45.5108C226.74 44.1176 225.611 42.9883 224.218 42.9883C222.825 42.9883 221.695 44.1176 221.695 45.5108C221.695 46.9039 222.825 48.0333 224.218 48.0333Z" fill="white"/>
<path d="M239.452 48.0333C240.845 48.0333 241.975 46.9039 241.975 45.5108C241.975 44.1176 240.845 42.9883 239.452 42.9883C238.059 42.9883 236.93 44.1176 236.93 45.5108C236.93 46.9039 238.059 48.0333 239.452 48.0333Z" fill="white"/>
<path d="M219.246 52.2383C219.244 52.3309 219.242 52.4236 219.242 52.5162C219.242 59.4718 224.88 65.11 231.836 65.11C238.792 65.11 244.43 59.4718 244.43 52.5162C244.43 52.4236 244.428 52.3309 244.426 52.2383H219.246Z" fill="white"/>
<path d="M20.5429 177.088C27.3925 177.088 32.9452 171.535 32.9452 164.686C32.9452 157.836 27.3925 152.283 20.5429 152.283C13.6933 152.283 8.14062 157.836 8.14062 164.686C8.14062 171.535 13.6933 177.088 20.5429 177.088Z" fill="#505A82"/>
<path d="M16.1739 162.356C16.9732 162.356 17.6212 161.708 17.6212 160.908C17.6212 160.109 16.9732 159.461 16.1739 159.461C15.3746 159.461 14.7266 160.109 14.7266 160.908C14.7266 161.708 15.3746 162.356 16.1739 162.356Z" fill="white"/>
<path d="M24.9083 162.356C25.7076 162.356 26.3556 161.708 26.3556 160.908C26.3556 160.109 25.7076 159.461 24.9083 159.461C24.1089 159.461 23.4609 160.109 23.4609 160.908C23.4609 161.708 24.1089 162.356 24.9083 162.356Z" fill="white"/>
<path d="M27.7686 171.992C27.7686 168.002 24.5345 164.768 20.5445 164.768C16.5544 164.768 13.3203 168.002 13.3203 171.992" stroke="white" stroke-width="8.7" stroke-miterlimit="10" stroke-linecap="round"/>
<path d="M90.1313 253.471H196.084V247.863H84.5234C84.5234 250.96 87.0343 253.471 90.1313 253.471Z" fill="#759CC4"/>
<path d="M264.395 247.863L263.401 253.47H188.069C186.52 253.47 185.12 252.844 184.103 251.828C183.089 250.814 182.461 249.412 182.461 247.863H264.394H264.395Z" fill="#383D50"/>
<path d="M279.001 165.543L264.396 247.863L263.402 253.47H258.477L259.471 247.863L274.076 165.543H279.001Z" fill="#383D50"/>
<path d="M274.078 165.543L259.457 247.863H139.055L154.223 165.543H274.078Z" fill="white"/>
<path d="M274.078 165.543L259.457 247.863H139.055L154.223 165.543H274.078Z" fill="white"/>
<path d="M142.328 245.138L156.492 168.268H270.827L257.174 245.138H142.328Z" fill="#E9EDF2"/>
<path opacity="0.39" d="M223.507 79.7449C229.7 73.9214 230.544 64.7601 225.393 59.2825C220.242 53.8049 211.046 54.0853 204.853 59.9088C198.661 65.7323 197.816 74.8936 202.967 80.3712C208.118 85.8487 217.314 85.5683 223.507 79.7449Z" fill="white"/>
<path d="M221.457 67.0809C221.327 68.1374 220.365 68.9938 219.31 68.9938C218.254 68.9938 217.502 68.1374 217.632 67.0809C217.762 66.0244 218.723 65.168 219.779 65.168C220.835 65.168 221.587 66.0244 221.457 67.0809ZM228.032 67.0809C227.902 68.1374 226.94 68.9938 225.884 68.9938C224.829 68.9938 224.077 68.1374 224.207 67.0809C224.337 66.0244 225.298 65.168 226.354 65.168C227.41 65.168 228.162 66.0244 228.032 67.0809Z" fill="white"/>
<path d="M233.939 68.408C234.757 67.6386 234.868 66.4281 234.188 65.7042C233.507 64.9803 232.292 65.0172 231.474 65.7866C230.655 66.556 230.544 67.7665 231.225 68.4904C231.905 69.2143 233.121 69.1774 233.939 68.408Z" fill="white"/>
<path d="M242.108 232.632H83.0752C81.698 232.632 80.7092 231.505 80.8782 230.127L100.98 66.4069C101.149 65.0297 102.415 63.9023 103.792 63.9023H262.825C264.202 63.9023 265.191 65.0297 265.022 66.4069L244.92 230.127C244.751 231.505 243.485 232.632 242.108 232.632Z" fill="#505A82"/>
<path d="M263.651 77.5892L265.025 66.4069C265.194 65.0297 264.205 63.9023 262.828 63.9023H103.795C102.418 63.9023 101.152 65.0297 100.983 66.4069L99.6094 77.5892H263.651Z" fill="#D9E0E8"/>
<path d="M218.713 106.894H159.493C158.345 106.894 157.572 105.955 157.774 104.807L157.922 103.974C158.124 102.826 159.229 101.887 160.377 101.887H219.597C220.745 101.887 221.518 102.826 221.316 103.974L221.169 104.807C220.966 105.955 219.861 106.894 218.713 106.894Z" fill="#53A8FE"/>
<path d="M192.48 117.682H157.015C156.186 117.682 155.627 117.003 155.773 116.174L155.879 115.573C156.026 114.743 156.824 114.064 157.653 114.064H193.117C193.946 114.064 194.505 114.743 194.359 115.573L194.253 116.174C194.107 117.003 193.309 117.682 192.48 117.682ZM237.717 117.682H202.253C201.424 117.682 200.865 117.003 201.011 116.174L201.117 115.573C201.263 114.743 202.061 114.064 202.89 114.064H238.355C239.184 114.064 239.743 114.743 239.597 115.573L239.491 116.174C239.344 117.003 238.546 117.682 237.717 117.682Z" fill="#E9EDF2"/>
<path d="M140.759 120.366C147.727 113.986 149.039 104.076 143.688 98.2328C138.338 92.3896 128.351 92.8255 121.383 99.2063C114.415 105.587 113.103 115.497 118.454 121.34C123.804 127.183 133.791 126.747 140.759 120.366Z" fill="#E9EDF2"/>
<path d="M210.94 150.998H151.72C150.572 150.998 149.799 150.059 150.001 148.911L150.148 148.078C150.351 146.929 151.455 145.99 152.604 145.99H211.823C212.972 145.99 213.745 146.929 213.542 148.078L213.395 148.911C213.193 150.059 212.088 150.998 210.94 150.998Z" fill="#53A8FE"/>
<path d="M184.698 161.784H149.234C148.405 161.784 147.846 161.105 147.992 160.276L148.098 159.674C148.244 158.845 149.042 158.166 149.871 158.166H185.336C186.165 158.166 186.724 158.844 186.578 159.674L186.472 160.276C186.325 161.105 185.527 161.784 184.698 161.784ZM229.936 161.784H194.471C193.642 161.784 193.083 161.105 193.23 160.276L193.336 159.674C193.482 158.845 194.28 158.166 195.109 158.166H230.574C231.403 158.166 231.962 158.844 231.815 159.674L231.709 160.276C231.563 161.105 230.765 161.784 229.936 161.784Z" fill="#E9EDF2"/>
<path d="M132.978 164.47C139.946 158.089 141.257 148.18 135.907 142.336C130.556 136.493 120.57 136.929 113.602 143.31C106.633 149.691 105.322 159.6 110.672 165.443C116.023 171.287 126.009 170.851 132.978 164.47Z" fill="#E9EDF2"/>
<path d="M203.158 195.101H143.939C142.79 195.101 142.017 194.162 142.22 193.014L142.367 192.181C142.569 191.033 143.674 190.094 144.822 190.094H204.042C205.19 190.094 205.963 191.033 205.761 192.181L205.614 193.014C205.411 194.162 204.307 195.101 203.158 195.101Z" fill="#53A8FE"/>
<path d="M176.925 205.887H141.46C140.631 205.887 140.072 205.209 140.219 204.379L140.324 203.778C140.471 202.948 141.269 202.27 142.098 202.27H177.563C178.392 202.27 178.951 202.948 178.804 203.778L178.698 204.379C178.552 205.209 177.754 205.887 176.925 205.887ZM222.163 205.887H186.698C185.869 205.887 185.31 205.209 185.456 204.379L185.562 203.778C185.708 202.948 186.506 202.27 187.336 202.27H222.8C223.629 202.27 224.188 202.948 224.042 203.778L223.936 204.379C223.79 205.209 222.992 205.887 222.163 205.887Z" fill="#E9EDF2"/>
<path d="M125.204 208.573C132.173 202.193 133.484 192.283 128.133 186.44C122.783 180.597 112.797 181.032 105.828 187.413C98.8599 193.794 97.5484 203.704 102.899 209.547C108.25 215.39 118.236 214.954 125.204 208.573Z" fill="#E9EDF2"/>
<path d="M72.8396 244.85C72.0478 243.717 66.2204 234.354 66.2204 234.354C66.2204 234.354 61.8348 233.676 61.3365 234.262C61.3365 234.262 59.8783 237.197 60.2473 239.235L60.762 253.312H61.9096L62.3502 241.56C62.8656 245.022 64.3923 252.293 64.7847 253.312H75.5692C77.1824 253.312 78.2163 252.114 77.4642 250.686C76.4093 248.686 73.6259 245.975 72.8396 244.85Z" fill="#021B79"/>
<path d="M66.0831 233.002C67.4036 234.449 68.8088 238.948 69.6808 240.784C70.5528 242.622 73.5525 246.375 73.3774 246.91C73.2263 247.369 68.7076 248.229 67.8956 247.417C66.4241 245.946 61.9335 238.505 61.9335 238.505L61.4227 233.442C61.4165 231.776 64.7627 231.554 66.0831 233.001V233.002ZM68.1486 140.814C64.4085 148.036 57.1103 157.792 56.9289 162.48C56.7475 167.168 60.1031 181.98 61.6898 191.731C61.6898 191.731 64.7425 193.927 68.0661 192.185L72.1052 167.484C72.1052 167.484 75.0178 147.691 75.6655 145.158C76.3133 142.625 68.1486 140.814 68.1486 140.814Z" fill="#83BDF8"/>
<path d="M52.1229 233.627C52.1229 233.627 50.0933 233.569 49.2555 236.981C48.4178 240.392 46.413 247.721 46.2955 248.473C46.1771 249.224 47.7093 253.258 49.6417 254.243C52.1751 255.533 56.8768 250.073 56.7662 247.714C56.6019 244.232 56.4003 238.594 56.2944 235.715C56.1885 232.837 53.0198 233.366 52.1237 233.627H52.1229Z" fill="#021B79"/>
<path d="M50.7226 235.902C50.7226 235.902 50.12 235.975 49.6755 237.89C49.2301 239.805 48.299 246.635 48.299 246.635C48.299 246.635 52.3397 248.001 54.9852 246.635C54.9852 246.635 55.7084 238.702 55.7069 236.317C55.7053 234.023 51.4334 234.997 50.7226 235.902ZM56.7346 140.814C52.9944 148.036 45.6963 157.792 45.5149 162.48C45.3335 167.168 48.689 181.98 50.2757 191.731C50.2757 191.731 53.3284 193.927 56.652 192.185L60.6912 167.484C60.6912 167.484 63.6037 147.691 64.2515 145.158C64.8992 142.625 56.7346 140.814 56.7346 140.814Z" fill="#83BDF8"/>
<path d="M47.8398 186.443C47.333 190.098 46.9499 193.957 46.7382 198.007C45.9401 213.321 47.8476 226.792 50.4799 237.703C50.4799 237.703 53.2056 237.595 55.1558 237.21C55.1558 237.21 55.6533 209.465 55.7304 207.414C55.8075 205.362 57.5366 186.147 57.5366 186.147C56.3673 185.684 54.0534 184.965 51.2063 185.399C49.8126 185.611 48.6752 186.041 47.8398 186.443ZM59.2596 183.641C58.7527 187.296 58.3697 191.155 58.1579 195.205C57.3599 210.519 59.2674 223.99 61.8996 234.901C61.8996 234.901 64.6253 234.793 66.5756 234.408C66.5756 234.408 67.0731 206.663 67.1502 204.612C67.2273 202.56 68.9564 183.345 68.9564 183.345C67.787 182.882 65.4732 182.163 62.626 182.597C61.2324 182.809 60.095 183.239 59.2596 183.641Z" fill="#83BDF8"/>
<path d="M48.704 129.377C48.704 129.377 42.0863 137.53 40.1384 144.755C37.3784 154.994 41.8185 191.225 41.8185 191.225C41.8185 191.225 54.9106 192.844 58.7893 192.856C65.9886 192.879 73.6573 190.379 73.6573 190.379C73.6573 190.379 78.468 148.867 77.6116 145.354C76.7552 141.842 71.616 130.377 66.9049 129.377H48.704Z" fill="#021B79"/>
<path d="M70.3619 73.7376C70.3619 73.7376 70.0761 72.1011 69.7421 69.0102C69.4307 66.128 69.1349 63.1618 68.0947 60.4641C67.0118 57.6535 65.0397 55.5366 62.4323 54.4179C59.8367 53.3038 56.928 53.0297 54.193 53.6907C50.6934 54.537 47.7956 57.1093 46.1171 60.5303C45.0022 62.8028 44.3568 65.3113 43.8974 67.8354C43.3571 70.8071 42.7708 72.98 42.7148 73.2837C40.7762 83.7964 34.9838 101.746 37.4004 102.806C37.7874 102.975 38.6297 102.818 39.5905 102.641C40.3044 102.51 40.9934 102.304 41.6497 102.034C42.0063 102.26 42.3777 102.465 42.7615 102.648C43.3945 107.815 47.7162 111.891 53.0804 112.059C55.5554 112.137 57.8584 111.368 59.7183 110.018C60.1971 110.117 60.6899 110.178 61.1952 110.194C65.7061 110.336 69.5133 106.982 70.0216 102.579C70.7893 102.93 71.2432 102.827 71.4627 102.742C74.0545 101.753 72.4702 92.6221 70.3619 73.7376Z" fill="#121212"/>
<path d="M78.8862 102.055C78.2797 94.3881 71.8053 88.5848 69.9002 93.3301C64.8404 105.951 75.4357 128.768 75.4357 128.768L83.8113 125.665C83.8113 125.665 79.3051 107.289 78.887 102.054L78.8862 102.055Z" fill="#83BDF8"/>
<path d="M75.5274 128.953C76.6952 131.14 79.2084 132.101 81.4724 130.889C83.7364 129.679 84.6255 126.924 83.4554 124.738C82.2829 122.549 79.5011 121.757 77.2355 122.972C74.9699 124.185 74.3541 126.767 75.5274 128.952V128.953Z" fill="#83BDF8"/>
<path d="M84.7725 124.092C84.7904 120.039 80.0179 100.33 79.3857 98.226C76.8251 89.7274 71.6041 88.8048 68.6511 87.8223C66.7607 91.6932 68.3085 114.961 73.0865 126.575C76.0278 127.773 82.9865 126.531 84.7725 124.092Z" fill="#53A8FE"/>
<path d="M42.4586 89.7707C38.7418 92.1951 42.5466 107.128 45.3501 123.55C45.3283 127.928 45.1415 132.448 44.911 133.161C43.6747 136.987 73.0891 137.414 73.3226 133.488C73.5173 130.201 72.9038 118.187 74.1495 115.295C77.8195 106.774 75.582 101.074 73.1194 96.5129C71.5826 93.6657 72.1019 89.0303 72.112 89.038C61.6576 82.1588 50.6194 84.4477 42.4586 89.7707Z" fill="#53A8FE"/>
<path opacity="0.36" d="M49.0002 112.897C56.9897 113.686 68.7497 115.136 75.7216 110.275C75.4195 111.836 74.9212 113.499 74.1473 115.295C73.8102 116.079 73.6101 117.533 73.4918 119.3C64.3399 116.059 52.9996 117.574 45.3239 123.407C44.6496 119.459 43.9902 115.584 43.4219 111.931C45.2507 112.262 47.1036 112.601 49.0002 112.898V112.897Z" fill="white"/>
<path d="M53.1648 78.8875L61.2345 78.541L61.8511 85.8399C59.6587 87.0903 55.8345 87.1596 53.1827 86.2144L53.1641 78.8875H53.1648Z" fill="#83BDF8"/>
<path d="M61.6573 83.5448L61.2337 78.541L53.1641 78.8875L53.1726 80.552C54.6581 82.303 58.2511 83.8608 61.6573 83.544V83.5448Z" fill="#6F8BF4"/>
<path d="M50.0426 86.1076C54.4811 84.6618 59.3307 84.2554 64.241 85.5104C65.1542 87.4872 67.2407 93.5061 60.1147 93.626C54.1237 93.7272 51.2914 88.9687 50.0426 86.1076ZM44.757 105.684C46.8178 98.274 42.7258 90.6021 39.3079 94.4077C30.2254 104.527 32.5151 127.697 32.5151 127.697L41.4482 127.654C41.4482 127.654 43.3564 110.745 44.7578 105.685L44.757 105.684Z" fill="#83BDF8"/>
<path d="M32.5362 127.899C32.8834 130.354 34.9147 132.118 37.4582 131.756C40.0002 131.396 41.7791 129.113 41.428 126.659C41.0792 124.203 38.7381 122.505 36.1923 122.867C33.6487 123.229 32.1843 125.443 32.5362 127.899Z" fill="#83BDF8"/>
<path d="M31.0352 123.326C30.5385 116.93 33.8302 102.029 34.5184 99.9434C36.9747 92.5129 42.0151 89.5661 44.9634 88.5703C46.8724 92.4335 45.9141 110.647 43.2273 121.016C42.1879 125.027 32.3097 125.05 31.0344 123.326H31.0352Z" fill="#53A8FE"/>
<path d="M75.1172 127.827C78.0399 141.374 81.0591 147.145 83.1798 152.422C83.9389 154.307 88.8181 151.818 88.5495 149.804C88.5495 149.804 85.9998 137.235 83.9677 126.576L75.118 127.828L75.1172 127.827Z" fill="#83BDF8"/>
<path d="M81.6875 153.609C81.9359 154.704 82.4926 157.681 82.5307 158.372C82.7051 159.677 82.797 160.995 82.8258 161.848C82.8803 162.767 82.9036 163.685 82.9379 164.332C83.0025 165.871 84.6943 166.101 84.7581 164.429C84.7667 163.99 84.8103 162.573 84.8002 161.481C84.8048 160.44 84.7994 159.126 84.8033 158.288C84.8492 157.705 84.8687 155.659 84.6484 154.333C84.0107 153.537 81.6782 153.615 81.6875 153.61V153.609Z" fill="#83BDF8"/>
<path d="M84.797 158.289C84.843 157.705 84.8624 155.659 84.6421 154.333C84.4031 154.031 83.9515 153.982 83.4922 154.042C84.3945 155.927 84.4241 158.159 84.7947 160.211C84.7963 159.508 84.7908 158.808 84.797 158.289Z" fill="#6481EF"/>
<path d="M84.2195 155.078C84.4912 156.172 84.7879 158.249 84.8385 158.936C85.037 160.243 85.1585 161.552 85.1966 162.415C85.2682 163.328 85.3399 164.325 85.3936 164.971C85.4808 166.512 87.143 166.817 87.1726 165.141C87.1741 164.704 87.1967 163.097 87.1663 162.004C87.1531 160.96 87.1181 159.649 87.1072 158.812C87.1469 158.23 87.1259 156.175 86.8775 154.857C86.2235 154.072 84.2149 155.085 84.2188 155.078H84.2195Z" fill="#83BDF8"/>
<path d="M87.1567 161.373C87.1411 160.471 87.1169 159.485 87.1099 158.81C87.1496 158.229 87.1286 156.174 86.8803 154.856C86.6272 154.55 86.1648 154.518 85.6953 154.592C85.9585 157.052 86.5984 159.608 87.1567 161.373Z" fill="#6481EF"/>
<path d="M86.025 155.594C86.3489 156.629 86.7677 158.641 86.8627 159.317C87.1406 160.587 87.3384 161.892 87.4287 162.752C87.5595 163.67 87.6537 164.482 87.7386 165.133C87.9005 166.691 89.604 166.935 89.5324 165.255C89.5106 164.812 89.4452 163.281 89.3471 162.198C89.2661 161.154 89.1493 159.852 89.0878 159.031C89.0855 158.445 88.9282 156.426 88.5965 155.149C87.9169 154.452 86.0258 155.611 86.0234 155.595L86.025 155.594Z" fill="#83BDF8"/>
<path d="M89.202 160.462C89.1545 159.93 89.1101 159.426 89.0836 159.032C89.0813 158.446 88.924 156.427 88.5923 155.15C88.4366 154.987 88.214 154.93 87.9609 154.93C88.0956 156.801 88.8158 158.615 89.2012 160.462H89.202Z" fill="#6481EF"/>
<path d="M87.3984 153.931C87.8445 154.93 88.5211 156.905 88.7048 157.58C89.1432 158.834 89.5075 160.135 89.7061 161.003C89.9443 161.917 90.0471 162.858 90.2098 163.518C90.5593 165.083 92.255 165.105 91.9755 163.403C91.8946 162.958 91.8035 161.288 91.5722 160.193C91.3605 159.145 91.0786 157.837 90.9058 157.011C90.835 156.417 90.413 154.393 89.9202 153.148C89.151 152.535 87.4023 153.949 87.3984 153.931Z" fill="#83BDF8"/>
<path d="M88.4896 153.184C88.4896 153.184 84.5136 145.831 86.7231 146.918C89.2908 148.174 91.6007 151.066 92.911 154.155C93.7044 156.026 94.697 157.533 93.5611 157.9C92.5505 158.222 91.9993 156.777 91.062 155.138C90.1736 153.574 88.4896 153.184 88.4896 153.184Z" fill="#83BDF8"/>
<path d="M82.4937 147.763C81.3235 149.25 80.9802 152.48 82.1714 154.983C82.1714 154.983 83.3158 156.64 85.0419 156.764C87.0381 156.91 88.9066 155.478 89.2562 154.492C89.8471 152.825 88.4185 150.845 87.8961 148.631C87.0996 145.248 83.0877 147.004 82.4937 147.764V147.763Z" fill="#83BDF8"/>
<path d="M88.8447 153.738C88.8712 153.761 88.8479 153.81 88.8128 153.803C86.8773 153.408 84.9138 151.155 85.1552 149.198C85.1684 149.097 85.321 149.085 85.3522 149.18C85.6916 150.071 85.908 150.905 86.4616 151.71C87.0829 152.615 87.9253 153.159 88.8447 153.738ZM84.9076 152.595C84.8547 153.201 83.8231 153.703 83.2734 153.703C83.4875 153.465 83.792 153.348 84.0426 153.175C84.3221 152.978 84.5292 152.738 84.7838 152.525C84.8414 152.476 84.9138 152.539 84.9076 152.595Z" fill="#6481EF"/>
<path d="M38.9239 131.26C51.4406 125.307 56.2139 121.078 60.8657 117.805C62.5279 116.634 59.9945 112.173 58.0957 112.898C58.0957 112.898 45.5867 118.51 35.6719 122.93L38.9231 131.26H38.9239Z" fill="#83BDF8"/>
<path d="M39.4383 130.971C41.4828 129.569 42.1656 126.966 40.7159 124.847C39.2662 122.726 36.4308 122.144 34.3871 123.544C32.3395 124.944 31.8529 127.799 33.3072 129.921C34.76 132.04 37.3923 132.367 39.4391 130.971H39.4383ZM55.4305 111.218C55.9428 109.54 57.109 106.128 57.4228 105.143C57.6439 104.463 59.3022 104.858 59.2633 106.384C59.2454 107.498 59.0406 108.38 59.0406 108.38L58.8421 110.258C58.8421 110.258 58.8818 111.378 61.2914 110.854C62.112 110.676 58.7572 114.631 58.7572 114.631C58.7572 114.631 54.9797 116.481 54.8528 115.63C54.7368 114.774 54.866 112.818 55.4305 111.217V111.218Z" fill="#83BDF8"/>
<path d="M54.7178 117.482C55.6801 118.846 56.5155 120.043 59.7449 120.308C60.9299 120.405 62.1016 120.447 63.3403 120.089C66.6008 119.145 64.9589 117.588 64.9589 117.588C64.9589 117.588 66.7301 115.793 65.1465 115.122C66.4576 113.756 65.3411 112.482 64.8903 112.277C65.5288 111.263 64.923 110.021 63.7856 110.24C63.2344 110.345 61.6197 110.251 59.2731 110.946C57.5229 111.47 55.6178 112.008 55.1141 112.906C54.6937 113.655 53.7688 116.142 54.7186 117.482L54.7178 117.482Z" fill="#83BDF8"/>
<path d="M65.1401 115.123C65.2429 115.169 65.334 115.218 65.4064 115.27C64.8723 115.553 64.1864 115.893 63.6484 115.609C64.3452 115.291 65.2834 114.561 65.6828 114.245C65.5924 114.525 65.4266 114.822 65.1401 115.124V115.123ZM64.9525 117.589C64.9525 117.589 65.07 117.702 65.1845 117.889C64.6761 118.162 63.9077 118.456 63.4141 118.087C64.4176 117.732 65.4515 116.944 65.4624 116.931C65.2257 117.313 64.9517 117.59 64.9517 117.59L64.9525 117.589ZM64.884 112.279C64.9852 112.325 65.1175 112.427 65.2522 112.569C64.8365 112.811 64.0821 113.183 63.5822 113.005C64.0657 112.613 64.6706 112.165 65.0716 111.873C65.028 112.012 64.9673 112.147 64.884 112.279Z" fill="#6481EF"/>
<path d="M54.8452 71.0588C53.383 72.0133 51.4071 72.1254 49.8554 71.3211C48.5444 70.643 47.5875 69.3319 47.3096 67.8862C47.2598 67.6238 47.2317 67.3583 47.2271 67.0874C47.22 66.6163 47.287 66.1407 47.4606 65.7031C47.8958 64.6248 49.0294 63.8883 50.1902 63.8494C51.3541 63.8105 52.4994 64.4348 53.1666 65.387L53.812 67.5677L54.8452 71.058V71.0588Z" fill="#5B78E6"/>
<path d="M66.7135 77.52C66.0596 78.9836 65.1751 80.3072 63.7675 81.1316C62.5195 81.8627 61.034 82.1928 59.5937 82.0854C57.9992 81.9655 56.4811 81.3613 55.1497 80.4629C54.4872 80.0152 53.8698 79.4959 53.3139 78.926C52.3415 77.9303 51.5342 76.7881 50.8451 75.5821C49.7264 73.6202 48.8435 71.3982 48.4425 69.1186C47.9855 66.5416 48.1428 63.8907 49.2631 61.467C49.717 60.4783 50.3375 59.5689 51.0912 58.7826C54.2661 55.4636 59.5579 55.0386 63.2249 57.8102C65.1346 59.2552 66.5267 61.3791 67.2336 63.654C67.4586 64.3749 67.6478 65.1138 67.7973 65.862C68.5751 69.7391 68.3244 73.9122 66.7143 77.52H66.7135Z" fill="#83BDF8"/>
<path d="M67.2271 62.7962C66.8846 62.2271 66.4073 61.5825 65.744 61.6261C65.5011 61.6417 65.2761 61.753 65.0394 61.8122C64.5482 61.9352 64.0024 61.8168 63.6061 61.5015C63.276 61.2384 63.0502 60.853 62.6921 60.6288C62.2693 60.3641 61.6886 60.3796 61.2806 60.6661C60.9295 60.9122 60.727 61.3139 60.4514 61.6424C59.8255 62.3891 58.8219 62.7394 57.848 62.7651C56.874 62.7908 55.9164 62.5284 54.9899 62.2271C54.5492 62.0839 54.0525 61.9352 53.6422 62.1485C53.3573 62.2964 53.1798 62.5915 53.0537 62.8873C52.7321 63.6425 52.6566 64.4818 52.6909 65.3016C52.7321 66.2912 52.9088 67.3656 52.3833 68.2056C52.0151 68.795 51.3144 69.1609 50.6207 69.1274C49.9698 69.0955 49.382 68.7475 48.7592 68.5567C48.1363 68.366 47.3461 68.387 46.967 68.9172C46.7676 66.2187 46.805 63.402 47.9822 60.9659C49.055 58.7447 51.0201 56.9937 53.3075 56.0727C55.5956 55.1509 58.1827 55.045 60.5713 55.6593C61.476 55.8921 62.3604 56.2276 63.1514 56.7251C65.1749 57.9957 66.5272 60.5135 67.2271 62.7978V62.7962Z" fill="#121212"/>
<path d="M63.6893 71.1012C63.7835 71.5123 64.193 71.7684 64.6041 71.6742C65.0152 71.58 65.2713 71.1705 65.1771 70.7594C65.0829 70.3484 64.6734 70.0922 64.2623 70.1864C63.8513 70.2806 63.5951 70.6902 63.6893 71.1012ZM57.2383 71.028C57.3325 71.4391 57.742 71.6953 58.153 71.6011C58.5641 71.5069 58.8203 71.0973 58.7261 70.6863C58.6319 70.2752 58.2223 70.019 57.8113 70.1133C57.4002 70.2075 57.144 70.617 57.2383 71.028Z" fill="#121212"/>
<path d="M59.4126 65.1677C59.5302 65.6793 59.1822 66.1791 58.6613 66.246C57.875 66.3465 56.7391 66.5668 55.7207 67.0456C55.3416 67.2239 54.8916 67.0845 54.6985 66.7132C54.514 66.3574 54.6596 65.9572 54.9733 65.7073C55.6172 65.1966 56.6394 64.4398 58.5227 64.478C58.9455 64.4865 59.3176 64.7559 59.4118 65.1677H59.4126ZM63.1536 65.2308C63.1037 65.7408 63.3606 66.2274 63.7079 66.2795C64.2326 66.3589 64.9956 66.5481 65.694 66.9966C65.954 67.1632 66.2436 67.0145 66.3511 66.6408C66.4538 66.2834 66.3363 65.8902 66.1152 65.6512C65.662 65.1615 64.9458 64.4375 63.704 64.5239C63.4253 64.5434 63.194 64.819 63.1536 65.23V65.2308Z" fill="#121212"/>
<path d="M62.959 76.1737L58.7058 75.6934C58.7058 75.6934 58.4387 77.3408 60.6046 77.5985C62.7706 77.8562 62.959 76.1737 62.959 76.1737Z" fill="white"/>
</svg>
