<svg width="408" height="260" viewBox="0 0 408 260" fill="none" xmlns="http://www.w3.org/2000/svg">
<path d="M397.742 188.984C397.742 202.898 396.206 216.46 393.294 229.515C393.021 230.739 392.735 231.96 392.437 233.177L391.121 233.382C390.86 233.422 390.597 233.462 390.332 233.502C390.057 233.543 389.781 233.585 389.502 233.627C384.52 234.369 379.08 235.081 373.218 235.75C372.033 235.886 370.832 236.021 369.613 236.153C329.214 240.57 270.343 243.348 204.795 243.348C137.435 243.348 77.1311 240.411 36.6734 235.788C34.7707 235.571 32.869 235.344 30.9686 235.108C30.0137 234.988 29.0712 234.871 28.1413 234.751C25.4575 234.402 22.7771 234.029 20.1004 233.63C19.8595 233.595 19.6196 233.558 19.3807 233.523C18.6408 233.413 17.9016 233.298 17.1632 233.179C16.8658 231.961 16.5806 230.739 16.3077 229.516C13.3948 216.459 11.8594 202.897 11.8594 188.985C11.8594 84.6117 98.2418 0 204.8 0C311.359 0 397.742 84.6114 397.742 188.984Z" fill="url(#paint0_linear_11130_35881)"/>
<path d="M397.742 188.984C397.742 202.898 396.206 216.46 393.294 229.515C393.021 230.739 392.735 231.96 392.437 233.177L391.121 233.382C390.86 233.422 390.597 233.462 390.332 233.502C390.057 233.543 389.781 233.585 389.502 233.627C384.52 234.369 379.08 235.081 373.218 235.75C372.033 235.886 370.832 236.021 369.613 236.153C329.214 240.57 270.343 243.348 204.795 243.348C137.435 243.348 77.1311 240.411 36.6734 235.788C34.7707 235.571 32.869 235.344 30.9686 235.108C30.0137 234.988 29.0712 234.871 28.1413 234.751C25.4575 234.402 22.7771 234.029 20.1004 233.63C19.8595 233.595 19.6196 233.558 19.3807 233.523C18.6408 233.413 17.9016 233.298 17.1632 233.179C16.8658 231.961 16.5806 230.739 16.3077 229.516C13.3948 216.459 11.8594 202.897 11.8594 188.985C11.8594 84.6117 98.2418 0 204.8 0C311.359 0 397.742 84.6114 397.742 188.984Z" fill="url(#paint1_linear_11130_35881)"/>
<path d="M407.805 233.882C405.529 234.848 403.095 235.788 400.513 236.695C399.26 237.14 398.002 237.571 396.74 237.988C396.734 237.99 396.727 237.993 396.721 237.993C396.275 238.139 395.826 238.287 395.369 238.435C395.101 238.522 394.831 238.608 394.559 238.695C394.276 238.784 393.992 238.875 393.705 238.964C388.586 240.571 382.995 242.111 376.972 243.56C375.739 243.858 374.504 244.149 373.267 244.432C331.753 253.989 271.256 260 203.897 260C134.677 260 72.7068 253.645 31.1318 243.641C29.1727 243.17 27.2184 242.68 25.2692 242.17C24.288 241.911 23.3193 241.656 22.3638 241.397C19.5947 240.64 16.8399 239.831 14.1008 238.972C13.8532 238.895 13.6065 238.816 13.3612 238.739C12.5987 238.501 11.8391 238.253 11.0828 237.995L11.0639 237.988C10.0416 237.649 9.02216 237.301 8.00583 236.945C5.15695 235.946 2.48632 234.93 0 233.882C2.50047 232.836 5.18964 231.81 8.05873 230.806C8.76294 230.557 9.47794 230.312 10.2034 230.068C10.4874 229.974 10.7738 229.877 11.0616 229.783C11.6194 229.6 12.1778 229.419 12.7369 229.239C12.9424 229.175 13.149 229.108 13.3555 229.044C16.6599 227.986 20.1675 226.975 23.8652 225.986C24.3076 225.868 24.7527 225.749 25.2022 225.635C27.2598 225.096 29.3232 224.579 31.3919 224.083C72.9635 214.099 134.821 207.771 203.897 207.771C274.687 207.771 337.893 214.422 379.458 224.825C381.572 225.357 383.681 225.91 385.784 226.486C388.85 227.326 391.779 228.189 394.567 229.076C394.734 229.128 394.902 229.183 395.068 229.237C395.142 229.262 395.216 229.284 395.29 229.309C395.779 229.464 396.263 229.618 396.742 229.783C397.029 229.878 397.317 229.972 397.601 230.068C398.555 230.387 399.491 230.713 400.409 231.039C402.899 231.921 405.365 232.868 407.805 233.882Z" fill="url(#paint2_linear_11130_35881)"/>
<path opacity="0.5" d="M364.848 230.509C363.544 230.657 362.149 230.801 360.669 230.94C359.945 231.009 359.221 231.075 358.496 231.139L357.722 231.207L357.257 231.247L356.768 231.288C353.835 231.534 350.631 231.77 347.179 231.992C346.482 232.037 345.774 232.082 345.056 232.126C321.266 233.59 286.599 234.511 247.999 234.511C208.333 234.511 172.821 233.537 148.996 232.004C147.849 231.931 146.729 231.855 145.637 231.779C145.074 231.739 144.52 231.7 143.972 231.66C142.324 231.54 140.745 231.415 139.237 231.289L138.813 231.253C138.372 231.216 137.937 231.179 137.507 231.139L137.497 231.138C136.9 231.085 136.316 231.032 135.744 230.978C134.213 230.836 132.684 230.68 131.156 230.509C132.589 230.349 134.13 230.192 135.774 230.038C136.178 230 136.588 229.962 137.003 229.925C137.166 229.91 137.33 229.895 137.495 229.881C137.815 229.853 138.135 229.825 138.455 229.798L138.809 229.768C141.071 229.576 143.334 229.402 145.598 229.246C146.75 229.165 147.932 229.086 149.145 229.008C172.967 227.478 208.415 226.509 247.998 226.509C288.564 226.509 324.785 227.528 348.603 229.121C349.845 229.205 351.054 229.29 352.228 229.376C354.003 229.505 355.776 229.646 357.549 229.797C357.591 229.801 357.634 229.804 357.676 229.808C357.956 229.832 358.233 229.856 358.508 229.881C358.673 229.896 358.837 229.91 359 229.925C359.547 229.974 360.083 230.023 360.609 230.074C362.112 230.216 363.526 230.362 364.848 230.509Z" fill="url(#paint3_linear_11130_35881)"/>
<path d="M136.805 36.6934H273.217V230.509H136.805V36.6934Z" fill="url(#paint4_linear_11130_35881)"/>
<path d="M134.141 36.6934H270.553V230.509H134.141V36.6934Z" fill="url(#paint5_linear_11130_35881)"/>
<path opacity="0.5" d="M134.141 36.6934H270.553V230.509H134.141V36.6934Z" fill="url(#paint6_linear_11130_35881)"/>
<g opacity="0.5">
<path d="M153.898 125.437H251.733V129.221H153.898V125.437ZM153.898 131.669H251.733V135.453H153.898V131.669ZM153.898 137.902H251.733V141.686H153.898V137.902ZM153.898 144.134H251.733V147.919H153.898V144.134ZM153.898 150.367H251.733V154.151H153.898V150.367ZM153.898 156.6H227.693V160.384H153.898V156.6Z" fill="#ABD5FF"/>
</g>
<path d="M160.398 54.748H244.315V63.6518H160.398V54.748ZM153.906 75.5605V117.085H251.74V75.5605H153.906ZM156.348 78.343C156.348 78.2407 156.368 78.1393 156.407 78.0448C156.446 77.9502 156.504 77.8643 156.576 77.792C156.648 77.7196 156.734 77.6622 156.829 77.6231C156.923 77.584 157.025 77.5639 157.127 77.564H200.644C200.746 77.5639 200.848 77.584 200.942 77.6231C201.037 77.6622 201.123 77.7196 201.195 77.792C201.267 77.8643 201.325 77.9502 201.364 78.0448C201.403 78.1393 201.423 78.2407 201.423 78.343V80.6801C201.423 80.7824 201.403 80.8837 201.364 80.9783C201.325 81.0728 201.267 81.1588 201.195 81.2311C201.123 81.3035 201.037 81.3608 200.942 81.4C200.848 81.4391 200.746 81.4592 200.644 81.4591H157.127C157.025 81.4592 156.923 81.4391 156.829 81.4C156.734 81.3608 156.648 81.3035 156.576 81.2311C156.504 81.1588 156.446 81.0728 156.407 80.9783C156.368 80.8837 156.348 80.7824 156.348 80.6801V78.343ZM185.899 115.741H155.251V108.782H185.899V115.741ZM185.899 107.437H155.251V100.33H185.899V107.437ZM185.899 98.985H155.251V91.8774H185.899V98.985ZM185.899 90.5334H155.251V83.5741H185.899V90.5334ZM218.286 115.741H187.36V108.782H218.286V115.741ZM218.286 107.437H187.36V100.33H218.286V107.437ZM218.286 98.985H187.36V91.8774H218.286V98.985ZM218.286 90.5334H187.36V83.5741H218.286V90.5334ZM250.396 115.741H219.747V108.782H250.396V115.741ZM250.396 107.437H219.747V100.33H250.396V107.437ZM250.396 98.985H219.747V91.8774H250.396V98.985ZM250.396 90.5334H219.747V83.5741H250.396V90.5334Z" fill="#ABD5FF"/>
<path opacity="0.5" d="M182.384 85.2432H158.677C158.471 85.2432 158.273 85.3252 158.127 85.4713C157.981 85.6174 157.898 85.8156 157.898 86.0222V88.3596C157.898 88.5662 157.981 88.7643 158.127 88.9104C158.273 89.0565 158.471 89.1386 158.677 89.1386H182.384C182.59 89.1386 182.788 89.0565 182.934 88.9104C183.081 88.7643 183.163 88.5662 183.163 88.3596V86.0222C183.163 85.8156 183.081 85.6174 182.934 85.4713C182.788 85.3252 182.59 85.2432 182.384 85.2432ZM243.528 85.2432H227.947C227.74 85.2432 227.542 85.3252 227.396 85.4713C227.25 85.6174 227.168 85.8156 227.168 86.0222V88.3596C227.168 88.5662 227.25 88.7643 227.396 88.9104C227.542 89.0565 227.74 89.1386 227.947 89.1386H243.528C243.735 89.1386 243.933 89.0565 244.079 88.9104C244.225 88.7643 244.307 88.5662 244.307 88.3596V86.0222C244.307 85.8156 244.225 85.6174 244.079 85.4713C243.933 85.3252 243.735 85.2432 243.528 85.2432ZM241.726 101.937H229.748C229.646 101.937 229.545 101.958 229.45 101.997C229.356 102.036 229.27 102.093 229.198 102.166C229.125 102.238 229.068 102.324 229.029 102.418C228.989 102.513 228.969 102.614 228.969 102.716V105.054C228.969 105.156 228.989 105.257 229.029 105.352C229.068 105.446 229.125 105.532 229.198 105.604C229.27 105.677 229.356 105.734 229.45 105.773C229.545 105.812 229.646 105.833 229.748 105.833H241.726C241.932 105.833 242.131 105.75 242.277 105.604C242.423 105.458 242.505 105.26 242.505 105.054V102.716C242.505 102.51 242.423 102.312 242.277 102.166C242.131 102.02 241.932 101.937 241.726 101.937ZM180.504 93.5903H160.557C160.195 93.5903 159.902 93.9391 159.902 94.3693V96.7064C159.902 97.1367 160.195 97.4854 160.557 97.4854H180.504C180.866 97.4854 181.159 97.1367 181.159 96.7064V94.3693C181.159 93.9391 180.866 93.5903 180.504 93.5903ZM177.32 101.937H163.741C163.535 101.937 163.337 102.02 163.191 102.166C163.044 102.312 162.962 102.51 162.962 102.716V105.054C162.962 105.26 163.044 105.458 163.191 105.604C163.337 105.75 163.535 105.833 163.741 105.833H177.32C177.526 105.833 177.724 105.75 177.87 105.604C178.017 105.458 178.099 105.26 178.099 105.054V102.716C178.099 102.51 178.016 102.312 177.87 102.166C177.724 102.02 177.526 101.938 177.32 101.937ZM182.384 110.285H158.677C158.471 110.285 158.273 110.367 158.127 110.513C157.981 110.659 157.898 110.857 157.898 111.064V113.401C157.898 113.608 157.981 113.806 158.127 113.952C158.273 114.098 158.471 114.18 158.677 114.18H182.384C182.59 114.18 182.788 114.098 182.934 113.952C183.081 113.806 183.163 113.608 183.163 113.401V111.064C183.163 110.857 183.081 110.659 182.934 110.513C182.788 110.367 182.59 110.285 182.384 110.285Z" fill="#ABD5FF"/>
<g opacity="0.5">
<path d="M200.625 85.2432H195.802C195.596 85.2432 195.398 85.3252 195.252 85.4713C195.106 85.6174 195.023 85.8156 195.023 86.0222V88.3596C195.023 88.5662 195.106 88.7643 195.252 88.9104C195.398 89.0565 195.596 89.1386 195.802 89.1386H200.625C200.832 89.1386 201.03 89.0565 201.176 88.9104C201.322 88.7643 201.404 88.5662 201.404 88.3596V86.0222C201.404 85.8156 201.322 85.6174 201.176 85.4713C201.03 85.3252 200.832 85.2432 200.625 85.2432ZM209.825 85.2432H205.002C204.796 85.2432 204.598 85.3252 204.452 85.4713C204.305 85.6174 204.223 85.8156 204.223 86.0222V88.3596C204.223 88.5662 204.305 88.7643 204.452 88.9104C204.598 89.0565 204.796 89.1386 205.002 89.1386H209.825C210.032 89.1386 210.23 89.0565 210.376 88.9104C210.522 88.7643 210.604 88.5662 210.604 88.3596V86.0222C210.604 85.8156 210.522 85.6174 210.376 85.4713C210.23 85.3252 210.032 85.2432 209.825 85.2432ZM203.306 87.6176H202.434C202.347 87.6176 202.265 87.6518 202.204 87.7127C202.143 87.7735 202.109 87.856 202.109 87.9421V88.8138C202.109 88.993 202.254 89.1383 202.434 89.1383H203.306C203.392 89.1383 203.474 89.1041 203.535 89.0432C203.596 88.9824 203.63 88.8998 203.63 88.8138V87.9421C203.63 87.856 203.596 87.7735 203.535 87.7127C203.474 87.6518 203.392 87.6176 203.306 87.6176Z" fill="#ABD5FF"/>
</g>
<g opacity="0.5">
<path d="M202.851 93.5908H195.802C195.596 93.5908 195.398 93.6729 195.252 93.819C195.106 93.9651 195.023 94.1632 195.023 94.3698V96.7069C195.023 96.9135 195.106 97.1117 195.252 97.2577C195.398 97.4038 195.596 97.4859 195.802 97.4859H202.851C203.058 97.4859 203.256 97.4038 203.402 97.2577C203.548 97.1117 203.63 96.9135 203.63 96.7069V94.3698C203.63 94.1632 203.548 93.9651 203.402 93.819C203.256 93.6729 203.058 93.5908 202.851 93.5908ZM209.826 93.5908H207.229C207.022 93.5908 206.824 93.6729 206.678 93.819C206.532 93.9651 206.45 94.1632 206.45 94.3698V96.7069C206.45 96.9135 206.532 97.1117 206.678 97.2577C206.824 97.4038 207.022 97.4859 207.229 97.4859H209.826C210.032 97.4859 210.231 97.4038 210.377 97.2577C210.523 97.1117 210.605 96.9135 210.605 96.7069V94.3698C210.605 94.1632 210.523 93.9651 210.377 93.819C210.231 93.6729 210.032 93.5908 209.826 93.5908ZM205.532 95.9653H204.66C204.574 95.9653 204.491 95.9995 204.43 96.0603C204.369 96.1212 204.335 96.2037 204.335 96.2898V97.1618C204.335 97.341 204.48 97.4862 204.66 97.4862H205.532C205.574 97.4862 205.617 97.4779 205.656 97.4616C205.695 97.4452 205.731 97.4213 205.761 97.3912C205.791 97.3611 205.815 97.3253 205.832 97.2859C205.848 97.2466 205.856 97.2044 205.856 97.1618V96.2898C205.856 96.2037 205.822 96.1212 205.761 96.0603C205.7 95.9995 205.618 95.9653 205.532 95.9653Z" fill="#ABD5FF"/>
</g>
<g opacity="0.5">
<path d="M198.844 101.938H195.802C195.596 101.938 195.398 102.02 195.252 102.166C195.106 102.312 195.023 102.51 195.023 102.717V105.054C195.023 105.26 195.106 105.458 195.252 105.604C195.398 105.751 195.596 105.833 195.802 105.833H198.844C199.051 105.833 199.249 105.751 199.395 105.604C199.541 105.458 199.623 105.26 199.623 105.054V102.717C199.623 102.51 199.541 102.312 199.395 102.166C199.249 102.02 199.051 101.937 198.844 101.938ZM208.379 101.938H203.222C203.015 101.938 202.817 102.02 202.671 102.166C202.525 102.312 202.443 102.51 202.443 102.717V105.054C202.443 105.26 202.525 105.458 202.671 105.604C202.817 105.751 203.015 105.833 203.222 105.833H208.379C208.585 105.833 208.783 105.751 208.929 105.604C209.076 105.458 209.158 105.26 209.158 105.054V102.717C209.158 102.51 209.076 102.312 208.929 102.166C208.783 102.02 208.585 101.937 208.379 101.938ZM201.525 104.312H200.653C200.61 104.312 200.568 104.32 200.529 104.337C200.49 104.353 200.454 104.377 200.424 104.407C200.393 104.437 200.37 104.473 200.353 104.512C200.337 104.552 200.329 104.594 200.329 104.637V105.508C200.329 105.688 200.474 105.833 200.653 105.833H201.525C201.611 105.833 201.693 105.799 201.754 105.738C201.815 105.677 201.849 105.595 201.849 105.508V104.637C201.849 104.594 201.841 104.552 201.825 104.512C201.808 104.473 201.785 104.437 201.754 104.407C201.724 104.377 201.688 104.353 201.649 104.337C201.61 104.32 201.567 104.312 201.525 104.312Z" fill="#ABD5FF"/>
</g>
<g opacity="0.5">
<path d="M198.177 110.284H195.802C195.596 110.284 195.398 110.366 195.252 110.512C195.106 110.658 195.023 110.857 195.023 111.063V113.4C195.023 113.607 195.106 113.805 195.252 113.951C195.398 114.097 195.596 114.179 195.802 114.179H198.177C198.384 114.179 198.582 114.097 198.728 113.951C198.874 113.805 198.956 113.607 198.956 113.4V111.063C198.956 110.857 198.874 110.658 198.728 110.512C198.582 110.366 198.384 110.284 198.177 110.284ZM204.817 110.284H202.555C202.348 110.284 202.15 110.366 202.004 110.512C201.858 110.658 201.775 110.857 201.775 111.063V113.4C201.775 113.607 201.858 113.805 202.004 113.951C202.15 114.097 202.348 114.179 202.555 114.179H204.817C205.024 114.179 205.222 114.097 205.368 113.951C205.514 113.805 205.596 113.607 205.596 113.4V111.063C205.597 110.961 205.576 110.86 205.537 110.765C205.498 110.67 205.441 110.585 205.368 110.512C205.296 110.44 205.21 110.383 205.116 110.343C205.021 110.304 204.92 110.284 204.817 110.284ZM200.857 112.658H199.985C199.899 112.658 199.817 112.692 199.756 112.753C199.695 112.814 199.661 112.897 199.661 112.983V113.854C199.661 114.034 199.806 114.179 199.985 114.179H200.857C200.943 114.179 201.026 114.145 201.087 114.084C201.148 114.023 201.182 113.941 201.182 113.854V112.983C201.182 112.897 201.148 112.814 201.087 112.753C201.026 112.692 200.943 112.658 200.857 112.658Z" fill="#ABD5FF"/>
</g>
<path opacity="0.35" d="M153.906 165.486H251.74V169.271H153.906V165.486ZM153.906 172.025H225.523V175.809H153.906V172.025ZM153.906 178.958H251.74V182.743H153.906V178.958ZM153.906 185.497H202.823V189.281H153.906V185.497Z" fill="#ABD5FF"/>
<path d="M153.899 35.1949V56.6375C153.899 58.769 152.165 60.5029 150.035 60.5029C147.904 60.5029 146.17 58.769 146.17 56.6375V41.767C146.17 41.5309 146.264 41.3043 146.431 41.1373C146.598 40.9703 146.824 40.8765 147.06 40.8765C147.296 40.8765 147.523 40.9703 147.69 41.1373C147.857 41.3043 147.951 41.5309 147.951 41.767V56.6375C147.951 57.1902 148.171 57.7201 148.562 58.111C148.953 58.5018 149.483 58.7216 150.036 58.7222C150.588 58.7213 151.118 58.5014 151.508 58.1106C151.899 57.7198 152.118 57.19 152.119 56.6375V35.1949C152.119 33.3141 150.588 31.7837 148.708 31.7837C146.827 31.7837 145.296 33.3141 145.296 35.1949V36.694H143.516V35.1949C143.516 32.3312 145.845 30.0029 148.708 30.0029C151.57 30.0029 153.899 32.3312 153.899 35.1949Z" fill="#021B79"/>
<g opacity="0.75">
<path d="M259.597 141.506L169.191 199.907L153.328 175.351L243.735 116.95L259.597 141.506ZM169.738 197.363L257.053 140.959L243.188 119.494L155.872 175.898L169.738 197.363Z" fill="url(#paint7_linear_11130_35881)"/>
<path d="M267.38 143.047L167.391 207.638L145.539 173.809L245.527 109.219L267.38 143.047ZM168.485 202.55L262.292 141.953L244.433 114.306L150.626 174.904L168.485 202.55Z" fill="url(#paint8_linear_11130_35881)"/>
<path d="M186.375 159.808L182.342 162.413L182.587 167.714C182.617 168.341 182.648 168.896 182.691 169.447C182.186 169.175 181.678 168.907 181.169 168.643L176.5 166.187L172.473 168.788L182.494 173.763L182.829 184.87L180.97 181.993L174.562 186.133L172.115 182.345L177.865 178.631L175.845 175.505L170.095 179.219L168.074 176.09L174.153 172.163L172.12 169.016L162.586 175.175L173.14 191.513L182.839 185.247L183.003 185.141L186.862 182.648L186.503 177.724C186.466 176.76 186.422 176.011 186.369 175.357C187.005 175.679 187.699 176.015 188.519 176.408L192.981 178.696L197.016 176.089L186.541 171.006L186.375 159.808Z" fill="url(#paint9_linear_11130_35881)"/>
<path d="M197.108 154.743C195.444 154.476 193.564 155.009 191.521 156.329C190.183 157.194 188.971 158.117 187.92 159.074L187.344 159.599L197.708 175.643L201.163 173.411L197.408 167.598C197.671 167.448 197.93 167.29 198.183 167.124C200.331 165.736 201.709 163.906 202.058 161.987C202.361 160.475 202.014 158.935 201.029 157.41C200.059 155.909 198.66 154.96 197.108 154.743ZM197.631 159.729C198.905 161.703 197.576 163.149 196.237 164.014C195.968 164.19 195.692 164.353 195.408 164.503L192.541 160.065C192.864 159.815 193.198 159.58 193.542 159.36C195.345 158.196 196.72 158.32 197.631 159.729Z" fill="url(#paint10_linear_11130_35881)"/>
<path d="M209.999 167.703L213.454 165.471L202.9 149.133L199.445 151.365L209.999 167.703Z" fill="url(#paint11_linear_11130_35881)"/>
<path d="M222.652 152.437C221.59 151.401 220.519 150.779 219.453 150.575C220.176 148.874 220.03 146.987 218.988 145.374C218.1 143.999 216.817 143.122 215.386 142.907C213.682 142.629 211.922 143.151 209.679 144.6C208.276 145.506 206.926 146.549 206.068 147.39L205.531 147.916L215.866 163.914L219.321 161.682L215.181 155.274L216.193 154.62C217.435 153.887 218.266 153.836 219.886 155.456C221.865 157.394 222.813 158.223 223.381 158.513L223.853 158.755L227.567 156.355L226.218 155.612C225.583 155.263 223.956 153.694 222.652 152.437ZM215.675 147.825C216.499 149.1 216.032 150.48 214.427 151.517L213.247 152.28L210.678 148.303C211.023 148.028 211.382 147.771 211.754 147.533C214.407 145.863 215.361 147.339 215.675 147.825Z" fill="url(#paint12_linear_11130_35881)"/>
<path d="M227.263 146.72L233.013 143.006L230.994 139.88L225.244 143.595L223.222 140.465L229.302 136.538L227.269 133.391L217.734 139.55L228.288 155.887L238.152 149.516L236.118 146.368L229.71 150.508L227.263 146.72Z" fill="url(#paint13_linear_11130_35881)"/>
<path d="M241.76 126.784C239.388 126.36 236.822 127.067 233.917 128.944C232.519 129.848 231.192 130.855 229.945 131.957L229.352 132.481L239.626 148.387L240.362 148.022C241.495 147.46 242.73 146.748 244.034 145.906C247.129 143.907 249.054 141.509 249.598 138.98C250.16 136.464 249.568 133.758 247.887 131.155C246.284 128.673 244.22 127.202 241.76 126.784ZM242.416 142.583C242.078 142.802 241.646 143.075 241.239 143.303L234.567 132.974C234.9 132.697 235.363 132.346 235.981 131.947C237.747 130.806 239.379 130.388 240.832 130.705C242.195 131.003 243.39 131.945 244.387 133.509C246.713 137.11 246.031 140.248 242.416 142.583Z" fill="url(#paint14_linear_11130_35881)"/>
</g>
<path d="M260.859 161.712H356.423V230.837H260.859V161.712Z" fill="url(#paint15_linear_11130_35881)"/>
<path opacity="0.5" d="M291.812 161.712V230.837H356.417V161.712H291.812ZM311.611 172.419H295.838V166.241H311.611V172.419Z" fill="url(#paint16_linear_11130_35881)"/>
<g opacity="0.35">
<path d="M347.539 195.53L304.283 208.769L300.688 197.021L343.943 183.781L347.539 195.53ZM304.796 207.803L346.573 195.017L343.429 184.747L301.653 197.534L304.796 207.803Z" fill="url(#paint17_linear_11130_35881)"/>
<path d="M350.512 197.047L302.673 211.689L297.719 195.504L345.559 180.861L350.512 197.047ZM303.699 209.757L348.581 196.02L344.532 182.793L299.65 196.53L303.699 209.757Z" fill="url(#paint18_linear_11130_35881)"/>
<path d="M315.835 194.528L313.905 195.119L313.396 197.291C313.336 197.548 313.285 197.775 313.239 198.003C313.072 197.84 312.898 197.675 312.716 197.503L311.11 195.974L309.184 196.564L312.664 199.726L311.525 204.255L311.104 202.878L308.038 203.817L307.483 202.005L310.234 201.163L309.777 199.667L307.025 200.509L306.567 199.012L309.476 198.122L309.015 196.616L304.453 198.012L306.846 205.829L311.487 204.409L311.565 204.385L313.411 203.82L313.831 201.787C313.926 201.394 313.995 201.085 314.048 200.815C314.295 201.042 314.545 201.266 314.797 201.487L316.339 202.923L318.27 202.332L314.617 199.075L315.835 194.528Z" fill="url(#paint19_linear_11130_35881)"/>
<path d="M320.755 193.712C320.113 193.414 319.292 193.414 318.314 193.713C317.674 193.909 317.078 194.143 316.543 194.41L316.25 194.555L318.6 202.232L320.253 201.726L319.401 198.944C319.525 198.914 319.648 198.88 319.769 198.842C320.797 198.527 321.564 197.945 321.926 197.209C322.221 196.633 322.258 195.97 322.034 195.24C321.814 194.522 321.358 193.979 320.755 193.712ZM320.394 195.789C320.683 196.733 319.98 197.165 319.339 197.361C319.192 197.406 319.062 197.44 318.948 197.464L318.298 195.341C318.423 195.289 318.585 195.231 318.783 195.17C319.646 194.906 320.188 195.114 320.394 195.789Z" fill="url(#paint20_linear_11130_35881)"/>
<path d="M324.486 200.431L326.139 199.925L323.747 192.108L322.094 192.614L324.486 200.431Z" fill="url(#paint21_linear_11130_35881)"/>
<path d="M331.349 195.711C331.039 195.17 330.677 194.796 330.269 194.591C330.757 193.986 330.915 193.207 330.678 192.435C330.477 191.777 330.059 191.275 329.505 191.024C328.848 190.716 328.076 190.725 327.003 191.054C326.332 191.259 325.666 191.526 325.223 191.768L324.945 191.918L327.288 199.573L328.941 199.067L328.003 196.001L328.487 195.853C329.073 195.699 329.415 195.773 329.884 196.614C330.462 197.625 330.75 198.069 330.946 198.252L331.109 198.404L332.887 197.859L332.427 197.404C332.21 197.19 331.732 196.369 331.349 195.711ZM329.057 193.046C329.244 193.656 328.897 194.16 328.129 194.395L327.564 194.568L326.982 192.666C327.153 192.594 327.328 192.531 327.506 192.478C328.77 192.107 328.986 192.813 329.057 193.046Z" fill="url(#paint22_linear_11130_35881)"/>
<path d="M333.874 193.929L336.625 193.087L336.167 191.591L333.416 192.433L332.957 190.936L335.866 190.046L335.405 188.54L330.844 189.936L333.236 197.753L337.955 196.309L337.494 194.803L334.428 195.741L333.874 193.929Z" fill="url(#paint23_linear_11130_35881)"/>
<path d="M342.022 187.531C341.112 187.087 339.993 187.079 338.603 187.504C337.934 187.709 337.282 187.964 336.651 188.267L336.352 188.41L338.681 196.021L339.02 195.958C339.542 195.861 340.124 195.714 340.747 195.523C342.228 195.07 343.281 194.322 343.792 193.362C344.308 192.409 344.379 191.247 343.998 190.001C343.635 188.813 342.969 187.982 342.022 187.531ZM340.475 193.994C340.313 194.044 340.107 194.105 339.916 194.15L338.404 189.208C338.629 189.11 338.859 189.026 339.094 188.955C339.939 188.697 340.647 188.715 341.197 189.01C341.714 189.287 342.09 189.804 342.313 190.551C342.84 192.274 342.204 193.465 340.475 193.994Z" fill="url(#paint24_linear_11130_35881)"/>
</g>
<path d="M277.395 124.604C282.29 124.604 286.259 120.636 286.259 115.741C286.259 110.845 282.29 106.877 277.395 106.877C272.5 106.877 268.531 110.845 268.531 115.741C268.531 120.636 272.5 124.604 277.395 124.604Z" fill="url(#paint25_radial_11130_35881)"/>
<path d="M329.559 126.669C334.786 126.669 339.024 122.431 339.024 117.203C339.024 111.976 334.786 107.738 329.559 107.738C324.331 107.738 320.094 111.976 320.094 117.203C320.094 122.431 324.331 126.669 329.559 126.669Z" fill="url(#paint26_radial_11130_35881)"/>
<path d="M314.684 125.628C318.872 125.628 322.267 122.233 322.267 118.046C322.267 113.858 318.872 110.463 314.684 110.463C310.496 110.463 307.102 113.858 307.102 118.046C307.102 122.233 310.496 125.628 314.684 125.628Z" fill="url(#paint27_radial_11130_35881)"/>
<path d="M300.176 125.628C305.071 125.628 309.04 121.659 309.04 116.764C309.04 111.869 305.071 107.9 300.176 107.9C295.281 107.9 291.312 111.869 291.312 116.764C291.312 121.659 295.281 125.628 300.176 125.628Z" fill="url(#paint28_radial_11130_35881)"/>
<path d="M286.262 128.19C291.157 128.19 295.126 124.222 295.126 119.327C295.126 114.431 291.157 110.463 286.262 110.463C281.367 110.463 277.398 114.431 277.398 119.327C277.398 124.222 281.367 128.19 286.262 128.19Z" fill="url(#paint29_radial_11130_35881)"/>
<path d="M267.672 114.181H342.321V161.713H267.672V114.181Z" fill="url(#paint30_linear_11130_35881)"/>
<path opacity="0.5" d="M291.852 114.181V161.712H342.317V114.181H291.852ZM309.511 121.684H294.396V117.084H309.511V121.684Z" fill="url(#paint31_linear_11130_35881)"/>
<g opacity="0.5">
<path d="M333.119 144.546L298.758 140.591L299.832 131.258L334.193 135.213L333.119 144.546ZM299.413 140.071L332.599 143.891L333.538 135.732L300.352 131.913L299.413 140.071Z" fill="url(#paint32_linear_11130_35881)"/>
<path d="M334.737 146.517L296.734 142.143L298.214 129.286L336.217 133.66L334.737 146.517ZM298.044 141.104L333.698 145.207L334.907 134.7L299.253 130.596L298.044 141.104Z" fill="url(#paint33_linear_11130_35881)"/>
<path d="M311.209 134.146L309.676 133.969L308.655 135.335C308.534 135.497 308.429 135.641 308.327 135.787C308.259 135.621 308.188 135.453 308.114 135.276L307.456 133.714L305.925 133.537L307.398 136.818L305.214 139.643L305.339 138.55L302.904 138.269L303.069 136.829L305.255 137.081L305.392 135.893L303.206 135.641L303.343 134.452L305.654 134.718L305.792 133.522L302.168 133.104L301.453 139.314L305.14 139.738L305.202 139.745L306.668 139.914L307.584 138.619C307.772 138.372 307.914 138.177 308.034 138.004C308.127 138.213 308.23 138.438 308.353 138.703L308.994 140.182L310.528 140.358L308.965 136.959L311.209 134.146Z" fill="url(#paint34_linear_11130_35881)"/>
<path d="M314.906 135.078C314.547 134.672 313.972 134.421 313.195 134.331C312.713 134.274 312.226 134.256 311.741 134.278L311.491 134.29L310.789 140.388L312.102 140.539L312.357 138.33C312.453 138.347 312.551 138.36 312.646 138.371C313.462 138.465 314.178 138.292 314.656 137.887C315.04 137.573 315.268 137.12 315.335 136.54C315.4 135.97 315.247 135.449 314.906 135.078ZM314.018 136.423C313.931 137.173 313.306 137.26 312.797 137.202C312.695 137.19 312.593 137.174 312.492 137.154L312.686 135.467C312.789 135.469 312.921 135.478 313.078 135.496C313.763 135.575 314.079 135.887 314.018 136.423Z" fill="url(#paint35_linear_11130_35881)"/>
<path d="M315.461 140.927L316.774 141.078L317.489 134.869L316.176 134.718L315.461 140.927Z" fill="url(#paint36_linear_11130_35881)"/>
<path d="M321.715 139.719C321.663 139.245 321.524 138.872 321.301 138.604C321.828 138.329 322.177 137.831 322.247 137.218C322.307 136.695 322.168 136.216 321.856 135.871C321.49 135.454 320.947 135.224 320.094 135.126C319.561 135.065 319.013 135.048 318.628 135.081L318.387 135.102L317.688 141.183L319.001 141.334L319.281 138.898L319.665 138.942C320.123 139.014 320.34 139.171 320.411 139.904C320.507 140.789 320.573 141.188 320.655 141.376L320.723 141.532L322.135 141.695L321.952 141.235C321.866 141.019 321.782 140.297 321.715 139.719ZM320.925 137.15C320.869 137.635 320.471 137.882 319.861 137.812L319.412 137.76L319.586 136.249C319.694 136.25 319.836 136.258 320.01 136.278C321.01 136.404 320.946 136.966 320.925 137.15Z" fill="url(#paint37_linear_11130_35881)"/>
<path d="M324.03 139.242L326.216 139.494L326.353 138.306L324.167 138.054L324.304 136.865L326.615 137.131L326.752 135.935L323.129 135.518L322.414 141.727L326.163 142.158L326.3 140.962L323.865 140.682L324.03 139.242Z" fill="url(#paint38_linear_11130_35881)"/>
<path d="M331.696 137.251C331.194 136.662 330.413 136.314 329.309 136.187C328.777 136.126 328.242 136.105 327.708 136.124L327.454 136.133L326.758 142.178L327.015 142.238C327.458 142.338 327.907 142.413 328.358 142.462C329.535 142.598 330.502 142.395 331.153 141.879C331.806 141.369 332.212 140.576 332.326 139.587C332.434 138.644 332.222 137.857 331.696 137.251ZM328.635 141.307C328.488 141.291 328.342 141.271 328.196 141.246L328.648 137.32C328.787 137.319 328.974 137.326 329.208 137.354C329.88 137.431 330.37 137.66 330.666 138.036C330.944 138.388 331.048 138.865 330.976 139.457C330.818 140.826 330.009 141.466 328.635 141.307Z" fill="url(#paint39_linear_11130_35881)"/>
</g>
<path opacity="0.3" d="M290.752 114.181L284.815 137.075H266.047V114.181H290.752Z" fill="url(#paint40_linear_11130_35881)"/>
<path d="M259.578 135.514H284.283L290.753 114.181H266.047L259.578 135.514Z" fill="url(#paint41_linear_11130_35881)"/>
<path opacity="0.5" d="M342.306 114.181V136.929H296.152L290.75 114.181H342.306Z" fill="url(#paint42_linear_11130_35881)"/>
<path d="M348.775 135.514H297.219L290.75 114.181H342.306L348.775 135.514Z" fill="url(#paint43_linear_11130_35881)"/>
<path opacity="0.35" d="M259.578 135.514H284.283L290.753 114.181H266.047L259.578 135.514Z" fill="url(#paint44_linear_11130_35881)"/>
<path opacity="0.75" d="M159.122 235.158C158.536 235.315 157.91 235.468 157.245 235.616C156.93 235.687 156.607 235.758 156.275 235.827C156.158 235.851 156.041 235.875 155.922 235.9L155.714 235.942C154.212 236.242 152.703 236.507 151.189 236.735C140.492 238.375 124.513 239.414 106.661 239.414C87.9947 239.414 71.3772 238.277 60.7042 236.509C60.4518 236.466 60.2024 236.425 59.9568 236.382C59.1828 236.249 58.4107 236.104 57.6406 235.949C57.4408 235.909 57.2441 235.869 57.0496 235.827C56.7818 235.771 56.5196 235.714 56.2629 235.657C55.5729 235.505 54.8861 235.338 54.2031 235.158C54.8906 234.976 55.5818 234.809 56.2763 234.657C56.7294 234.555 57.1836 234.46 57.639 234.369C58.4894 234.197 59.3917 234.032 60.3429 233.871C60.4568 233.852 60.5714 233.832 60.687 233.814C71.3594 232.041 87.9846 230.902 106.661 230.902C124.874 230.902 141.135 231.986 151.829 233.681C153.222 233.904 154.52 234.133 155.716 234.374L155.902 234.412C156.028 234.437 156.152 234.463 156.275 234.489C156.598 234.556 156.913 234.625 157.219 234.694C157.893 234.846 158.528 235.001 159.122 235.158Z" fill="url(#paint45_linear_11130_35881)"/>
<path d="M180.601 122.779L65.3603 102.721C63.3164 102.365 61.3712 103.734 61.0154 105.778L55.0797 139.88C54.7239 141.924 56.0922 143.869 58.1361 144.224L173.377 164.282C175.421 164.638 177.366 163.269 177.722 161.226L183.657 127.124C184.013 125.08 182.645 123.135 180.601 122.779Z" fill="url(#paint46_linear_11130_35881)"/>
<path d="M92.9224 117.462C92.8769 118.133 92.7718 118.866 92.6438 119.669C92.5732 120.084 92.494 120.498 92.4062 120.91C92.3176 121.337 92.2266 121.781 92.1191 122.235C91.9001 123.142 91.667 124.108 91.3863 125.109C91.2458 125.609 91.1097 126.125 90.9567 126.647C90.8802 126.907 90.8017 127.172 90.7235 127.438C90.647 127.705 90.5685 127.973 90.4903 128.245C90.1622 129.327 89.8316 130.45 89.4664 131.596C89.1628 132.612 88.845 133.605 88.5455 134.576L88.4279 134.958C88.3413 135.228 88.2567 135.499 88.1698 135.765C88.0893 136.034 88.0067 136.298 87.9282 136.562C87.7631 137.086 87.6 137.602 87.443 138.104C87.1293 139.114 86.8318 140.074 86.5511 140.976L85.7563 143.495C85.5002 144.267 85.2835 144.971 85.0645 145.586C84.8455 146.204 84.6494 146.734 84.4678 147.17C84.1002 148.035 83.7804 148.508 83.4974 148.475C83.2167 148.44 82.9997 147.905 82.8221 146.949C82.7312 146.472 82.6526 145.89 82.5991 145.215C82.5415 144.542 82.4855 143.772 82.469 142.925C82.458 142.481 82.4503 142.037 82.4461 141.593C82.4421 141.131 82.4545 140.652 82.4626 140.152C82.4751 139.155 82.5347 138.096 82.6072 136.977C82.6422 136.417 82.7002 135.849 82.7537 135.265C82.7827 134.974 82.8117 134.679 82.8403 134.382C82.8774 134.084 82.9124 133.787 82.9498 133.483C83.0944 132.276 83.2966 131.035 83.5216 129.765C83.7673 128.504 84.0254 127.275 84.331 126.107C84.4075 125.813 84.4816 125.524 84.5561 125.237C84.6386 124.952 84.7212 124.671 84.8017 124.393C84.9688 123.838 85.1319 123.292 85.3115 122.77C85.3796 122.574 85.4456 122.382 85.5137 122.192C85.8088 121.362 86.1104 120.575 86.4345 119.848C86.6306 119.4 86.8227 118.969 87.0272 118.564C87.2231 118.176 87.4269 117.792 87.6384 117.412C88.0017 116.756 88.4123 116.126 88.8669 115.529C89.2676 114.997 89.6682 114.567 90.052 114.249C90.8118 113.607 91.4867 113.395 92.0029 113.661C92.5211 113.927 92.8287 114.642 92.9238 115.676C92.9699 116.192 92.9655 116.791 92.9224 117.462Z" fill="#88BFF6"/>
<path d="M120.345 147.129C127.871 147.129 133.972 141.028 133.972 133.502C133.972 125.977 127.871 119.876 120.345 119.876C112.819 119.876 106.719 125.977 106.719 133.502C106.719 141.028 112.819 147.129 120.345 147.129Z" fill="url(#paint47_linear_11130_35881)"/>
<path d="M135.788 135.936C135.189 136.981 134.153 137.807 133.005 137.972C132.981 137.977 132.957 137.98 132.933 137.983C132.565 138.03 132.196 138.068 131.826 138.096C131.407 138.133 130.963 138.152 130.497 138.166C129.563 138.199 128.537 138.175 127.433 138.113C126.332 138.028 125.147 137.915 123.911 137.704C122.674 137.497 121.373 137.231 120.044 136.862C118.663 136.482 117.304 136.027 115.972 135.501L115.349 135.253L114.684 134.465L114.682 134.463C114.501 134.246 114.319 134.029 114.135 133.81C113.953 133.589 113.763 133.373 113.588 133.143C112.917 132.305 112.28 131.441 111.678 130.552C111.423 130.179 111.174 129.802 110.931 129.421C110.172 128.218 109.479 126.975 108.856 125.696C108.274 124.468 107.774 123.274 107.392 122.127C107.295 121.846 107.202 121.564 107.113 121.28C107.033 121.006 106.956 120.73 106.882 120.454C106.729 119.914 106.616 119.385 106.514 118.879C106.419 118.397 106.343 117.912 106.287 117.424C106.231 116.985 106.198 116.544 106.188 116.102C106.155 115.272 106.221 114.539 106.337 113.932C106.454 113.323 106.65 112.832 106.886 112.477C107.124 112.121 107.413 111.9 107.747 111.822C108.079 111.746 108.441 111.816 108.814 112.014C109.192 112.21 109.57 112.539 109.968 112.974C110.371 113.41 110.767 113.959 111.19 114.597C111.397 114.919 111.606 115.264 111.826 115.627C112.041 115.991 112.252 116.381 112.479 116.786C112.702 117.19 112.92 117.62 113.158 118.062L113.864 119.447C114.122 119.968 114.381 120.488 114.64 121.008C114.88 121.493 115.128 121.991 115.382 122.501C115.921 123.57 116.482 124.695 117.087 125.854C117.698 127.008 118.334 128.207 119.028 129.417C119.152 129.642 119.286 129.859 119.414 130.082C119.426 130.105 119.439 130.127 119.453 130.15C120.276 130.528 121.105 130.891 121.941 131.238C123.062 131.709 124.167 132.113 125.224 132.496C126.283 132.882 127.307 133.202 128.267 133.513C129.232 133.809 130.136 134.087 130.968 134.327C131.728 134.552 132.419 134.754 133.041 134.938C133.105 134.959 133.169 134.977 133.233 134.996C133.569 135.095 133.881 135.2 134.17 135.293C134.459 135.386 134.725 135.479 134.963 135.572C135.288 135.699 135.565 135.817 135.788 135.936Z" fill="#88BFF6"/>
<path d="M136.317 134.315C136.268 134.875 136.08 135.43 135.789 135.936C135.19 136.98 134.153 137.806 133.006 137.972C132.982 137.976 132.958 137.979 132.933 137.982C132.894 136.97 132.946 135.955 133.041 134.937C133.187 133.386 133.433 131.838 133.605 130.306C135.277 130.809 136.47 132.575 136.317 134.315ZM82.4482 142.194C82.0684 143.548 81.4026 146.446 81.0229 147.801C80.9107 148.201 80.8009 148.641 80.97 149.02C81.2244 149.591 81.9532 149.734 82.5742 149.803L85.4184 150.118C85.3415 148.143 85.8365 145.47 85.7597 143.495C84.8031 143.239 83.4048 142.449 82.4482 142.194Z" fill="#88BFF6"/>
<path d="M92.9254 115.676C92.9709 116.192 92.9668 116.791 92.9234 117.461C92.8779 118.132 92.7728 118.865 92.6447 119.668C92.5741 120.084 92.4949 120.497 92.4072 120.909C92.3186 121.337 92.2276 121.781 92.1201 122.235C91.9011 123.141 91.6679 124.108 91.3872 125.109C91.2467 125.608 91.1106 126.125 90.9576 126.647C90.8811 126.907 90.8026 127.171 90.7245 127.438C90.648 127.704 90.5695 127.972 90.4913 128.245C90.1631 129.327 89.8326 130.45 89.4673 131.596C89.1637 132.612 88.846 133.605 88.5464 134.575C88.8457 131.728 88.7591 128.885 87.8052 126.183C87.2897 124.725 86.5139 123.373 85.5156 122.192C85.8108 121.362 86.1124 120.575 86.4365 119.848C86.6326 119.4 86.8246 118.969 87.0292 118.564C87.2251 118.176 87.4289 117.792 87.6404 117.412C88.0036 116.756 88.4142 116.126 88.8689 115.529C89.2695 114.997 89.6702 114.567 90.0539 114.249C90.8138 113.607 91.4887 113.394 92.0049 113.661C92.5227 113.927 92.8304 114.641 92.9254 115.676ZM111.676 130.551C111.422 130.178 111.172 129.801 110.929 129.42C110.17 128.217 109.477 126.974 108.854 125.695C108.272 124.467 107.772 123.273 107.39 122.126C107.293 121.845 107.201 121.563 107.111 121.279C107.032 121.005 106.955 120.729 106.88 120.453C106.728 119.913 106.614 119.384 106.513 118.878C106.417 118.396 106.341 117.911 106.286 117.423C106.23 116.984 106.197 116.543 106.187 116.101C106.154 115.271 106.22 114.538 106.335 113.931C106.453 113.322 106.649 112.831 106.884 112.476C107.122 112.12 107.411 111.899 107.745 111.821C108.078 111.745 108.439 111.815 108.813 112.013C109.19 112.209 109.568 112.538 109.967 112.973C110.369 113.409 110.766 113.958 111.189 114.596C111.395 114.918 111.604 115.263 111.825 115.626C112.039 115.99 112.25 116.38 112.477 116.785C112.7 117.189 112.919 117.619 113.156 118.061L113.863 119.446C114.12 119.967 114.379 120.487 114.639 121.007C112.806 123.559 111.751 126.67 111.674 129.813C111.668 130.058 111.668 130.306 111.676 130.551Z" fill="#77B4F1"/>
<path d="M108.312 230.829C106.688 230.693 106.839 230.577 105.209 230.441C106.841 208.239 103.091 181.437 97.4054 159.914C92.981 200.812 79.295 227.816 79.295 227.816H75.6172C77.8046 222.94 79.0301 216.749 80.3931 210.081C80.3947 210.081 80.3947 210.079 80.3947 210.079C85.1123 187.021 85.4897 158.239 85.4897 158.239C85.7387 154.28 85.5945 150.346 87.1414 146.67C87.5996 145.58 88.1386 144.526 88.7537 143.517L91.9462 137.763L93.9548 137.809L97.1221 137.883L103.842 138.037L104.477 140.11L106.592 147.006L106.6 147.033C115.283 173.968 114.951 203.287 108.312 230.829Z" fill="#9BCAF9"/>
<path d="M104.193 139.177C104.193 139.177 114.917 160.889 114.917 186.691C114.917 186.691 98.5967 201.435 82.2114 186.691C82.2114 186.691 80.6958 149.406 91.691 138.226L104.193 139.177Z" fill="url(#paint48_linear_11130_35881)"/>
<path d="M80.0412 226.562C79.6268 229.856 80.2107 233.271 81.7064 236.236C79.6706 237.361 76.8548 236.781 75.4291 234.943C74.0901 233.218 74.0487 230.756 74.7721 228.695C75.2115 227.443 75.8931 226.304 76.6644 225.22C77.405 224.178 78.9506 224.178 79.6928 225.218L79.7121 225.245C79.9835 225.627 80.101 226.097 80.0412 226.562ZM115.625 236.382C111.741 237.022 108.092 236.997 104.297 235.952C104.07 233.953 104.56 231.031 105.261 228.874C105.368 228.542 105.487 228.214 105.617 227.891C106.959 227.507 107.39 228.723 108.786 228.742C108.436 229.913 109.154 231.17 110.116 231.924C110.786 232.451 111.565 232.81 112.338 233.182C112.671 233.343 113.001 233.505 113.323 233.685C114.39 234.283 115.41 235.179 115.625 236.382Z" fill="#171921"/>
<path d="M92.3887 125.801C92.6155 129.948 92.3304 134.162 91.6909 138.227C93.1674 139.559 95.2693 140.325 97.2542 140.48C99.2375 140.631 102.527 140.269 104.193 139.178C106.087 135.054 107.056 130.84 107.81 126.477C107.986 125.456 108.152 124.425 108.316 123.385C110.4 122.425 112.329 121.159 114.039 119.628C112.91 117.261 111.748 115.013 110.617 112.648C110.215 111.808 109.802 110.952 109.172 110.266C108.541 109.581 107.572 108.891 106.642 108.955V108.958L106.64 108.957L106.642 108.955C105.192 108.861 103.742 108.787 102.29 108.731C100.353 108.957 98.291 108.725 96.3145 108.764C95.9863 108.771 95.6585 108.787 95.3313 108.812H95.3279C90.674 109.627 87.5579 115.974 86.3652 118.87C86.006 119.743 85.8203 120.301 85.8203 120.301C88.529 123.326 92.1967 123.366 92.1967 123.366C92.2806 124.172 92.3456 124.985 92.3887 125.801Z" fill="url(#paint49_linear_11130_35881)"/>
<path d="M86.3672 118.87C89.0705 121.269 92.635 122.709 96.2545 122.762C101.022 122.834 105.764 120.501 108.617 116.678C104.253 114.114 99.9427 111.373 95.5823 108.795C95.4998 108.8 95.4155 108.805 95.333 108.812H95.3296C90.676 109.627 87.56 115.974 86.3672 118.87Z" fill="url(#paint50_linear_11130_35881)"/>
<path d="M109.285 97.8443C108.938 99.4172 107.729 100.727 107.539 102.326C107.21 105.102 109.963 107.232 110.796 109.9C111.533 112.261 110.644 114.916 108.996 116.761C107.349 118.605 105.047 119.742 102.7 120.519C99.8521 121.463 96.7104 121.931 93.871 120.964C91.0315 119.996 88.6395 117.285 88.805 114.29C89.0432 109.976 94.1115 106.878 93.7867 102.57C93.6307 100.499 92.1997 98.6136 92.3766 96.5451C92.5656 94.336 94.6156 92.6506 96.7748 92.1486C99.1816 91.5889 102.176 92.0074 104.618 92.3905C107.371 92.8228 109.975 94.7215 109.285 97.8443Z" fill="url(#paint51_linear_11130_35881)"/>
<path d="M112.335 233.182C111.03 233.373 109.663 233.176 108.481 232.584C106.977 231.833 105.804 230.461 105.258 228.875C105.365 228.543 105.484 228.215 105.615 227.891C106.957 227.507 107.387 228.724 108.783 228.742C108.433 229.914 109.152 231.17 110.113 231.924C110.784 232.452 111.563 232.81 112.335 233.182Z" fill="#9BCAF9"/>
<defs>
<linearGradient id="paint0_linear_11130_35881" x1="384.213" y1="279.548" x2="67.8301" y2="67.7206" gradientUnits="userSpaceOnUse">
<stop stop-color="#A0CEFC"/>
<stop offset="0.545" stop-color="#BED0E2"/>
<stop offset="1" stop-color="#ADD6FF"/>
</linearGradient>
<linearGradient id="paint1_linear_11130_35881" x1="384.213" y1="279.548" x2="67.8301" y2="67.7206" gradientUnits="userSpaceOnUse">
<stop stop-color="#A0CEFC"/>
<stop offset="0.545" stop-color="#BED0E2"/>
<stop offset="1" stop-color="#ADD6FF"/>
</linearGradient>
<linearGradient id="paint2_linear_11130_35881" x1="418.59" y1="242.277" x2="-4.02852" y2="225.758" gradientUnits="userSpaceOnUse">
<stop stop-color="#A0CEFC"/>
<stop offset="0.123" stop-color="#ADCBE9"/>
<stop offset="0.33" stop-color="#BED0E2"/>
<stop offset="0.542" stop-color="#BCD7F2"/>
<stop offset="0.762" stop-color="#B1D6FC"/>
<stop offset="1" stop-color="#ADD6FF"/>
</linearGradient>
<linearGradient id="paint3_linear_11130_35881" x1="552.839" y1="228.337" x2="-55.3539" y2="232.672" gradientUnits="userSpaceOnUse">
<stop stop-color="#A0CEFC"/>
<stop offset="0.123" stop-color="#ADCBE9"/>
<stop offset="0.33" stop-color="#BED0E2"/>
<stop offset="0.542" stop-color="#BCD7F2"/>
<stop offset="0.762" stop-color="#B1D6FC"/>
<stop offset="1" stop-color="#ADD6FF"/>
</linearGradient>
<linearGradient id="paint4_linear_11130_35881" x1="274.196" y1="225.775" x2="134.659" y2="39.8731" gradientUnits="userSpaceOnUse">
<stop stop-color="#ABD5FF"/>
<stop offset="0.205" stop-color="#B7DBFF"/>
<stop offset="0.69" stop-color="#CDE6FF"/>
<stop offset="1" stop-color="#D5EAFF"/>
</linearGradient>
<linearGradient id="paint5_linear_11130_35881" x1="271.532" y1="225.775" x2="131.995" y2="39.8731" gradientUnits="userSpaceOnUse">
<stop stop-color="#ABD5FF"/>
<stop offset="0.205" stop-color="#B7DBFF"/>
<stop offset="0.69" stop-color="#CDE6FF"/>
<stop offset="1" stop-color="#D5EAFF"/>
</linearGradient>
<linearGradient id="paint6_linear_11130_35881" x1="271.532" y1="225.775" x2="131.995" y2="39.8731" gradientUnits="userSpaceOnUse">
<stop stop-color="#ABD5FF"/>
<stop offset="0.205" stop-color="#B7DBFF"/>
<stop offset="0.69" stop-color="#CDE6FF"/>
<stop offset="1" stop-color="#D5EAFF"/>
</linearGradient>
<linearGradient id="paint7_linear_11130_35881" x1="271.425" y1="141.226" x2="144.99" y2="174.709" gradientUnits="userSpaceOnUse">
<stop stop-color="#2043C5"/>
<stop offset="0.2" stop-color="#2E52DA"/>
<stop offset="0.453" stop-color="#3A5FEC"/>
<stop offset="0.716" stop-color="#4268F7"/>
<stop offset="1" stop-color="#446AFB"/>
</linearGradient>
<linearGradient id="paint8_linear_11130_35881" x1="271.422" y1="141.225" x2="144.987" y2="174.708" gradientUnits="userSpaceOnUse">
<stop stop-color="#2043C5"/>
<stop offset="0.2" stop-color="#2E52DA"/>
<stop offset="0.453" stop-color="#3A5FEC"/>
<stop offset="0.716" stop-color="#4268F7"/>
<stop offset="1" stop-color="#446AFB"/>
</linearGradient>
<linearGradient id="paint9_linear_11130_35881" x1="273.936" y1="150.719" x2="147.5" y2="184.202" gradientUnits="userSpaceOnUse">
<stop stop-color="#2043C5"/>
<stop offset="0.2" stop-color="#2E52DA"/>
<stop offset="0.453" stop-color="#3A5FEC"/>
<stop offset="0.716" stop-color="#4268F7"/>
<stop offset="1" stop-color="#446AFB"/>
</linearGradient>
<linearGradient id="paint10_linear_11130_35881" x1="272.441" y1="145.07" x2="146.005" y2="178.553" gradientUnits="userSpaceOnUse">
<stop stop-color="#2043C5"/>
<stop offset="0.2" stop-color="#2E52DA"/>
<stop offset="0.453" stop-color="#3A5FEC"/>
<stop offset="0.716" stop-color="#4268F7"/>
<stop offset="1" stop-color="#446AFB"/>
</linearGradient>
<linearGradient id="paint11_linear_11130_35881" x1="271.419" y1="141.213" x2="144.98" y2="174.697" gradientUnits="userSpaceOnUse">
<stop stop-color="#2043C5"/>
<stop offset="0.2" stop-color="#2E52DA"/>
<stop offset="0.453" stop-color="#3A5FEC"/>
<stop offset="0.716" stop-color="#4268F7"/>
<stop offset="1" stop-color="#446AFB"/>
</linearGradient>
<linearGradient id="paint12_linear_11130_35881" x1="270.72" y1="138.568" x2="144.283" y2="172.051" gradientUnits="userSpaceOnUse">
<stop stop-color="#2043C5"/>
<stop offset="0.2" stop-color="#2E52DA"/>
<stop offset="0.453" stop-color="#3A5FEC"/>
<stop offset="0.716" stop-color="#4268F7"/>
<stop offset="1" stop-color="#446AFB"/>
</linearGradient>
<linearGradient id="paint13_linear_11130_35881" x1="269.405" y1="133.616" x2="142.968" y2="167.1" gradientUnits="userSpaceOnUse">
<stop stop-color="#2043C5"/>
<stop offset="0.2" stop-color="#2E52DA"/>
<stop offset="0.453" stop-color="#3A5FEC"/>
<stop offset="0.716" stop-color="#4268F7"/>
<stop offset="1" stop-color="#446AFB"/>
</linearGradient>
<linearGradient id="paint14_linear_11130_35881" x1="268.414" y1="129.861" x2="141.978" y2="163.344" gradientUnits="userSpaceOnUse">
<stop stop-color="#2043C5"/>
<stop offset="0.2" stop-color="#2E52DA"/>
<stop offset="0.453" stop-color="#3A5FEC"/>
<stop offset="0.716" stop-color="#4268F7"/>
<stop offset="1" stop-color="#446AFB"/>
</linearGradient>
<linearGradient id="paint15_linear_11130_35881" x1="356.183" y1="228.564" x2="261.54" y2="164.285" gradientUnits="userSpaceOnUse">
<stop stop-color="#7ABCFF"/>
<stop offset="0.086" stop-color="#83C1FF"/>
<stop offset="0.331" stop-color="#84C1FE"/>
<stop offset="0.565" stop-color="#85C1FE"/>
<stop offset="0.78" stop-color="#85C1FE"/>
<stop offset="0.96" stop-color="#85C1FE"/>
</linearGradient>
<linearGradient id="paint16_linear_11130_35881" x1="361.065" y1="221.369" x2="266.421" y2="157.091" gradientUnits="userSpaceOnUse">
<stop stop-color="#7ABCFF"/>
<stop offset="0.086" stop-color="#83C1FF"/>
<stop offset="0.331" stop-color="#84C1FE"/>
<stop offset="0.565" stop-color="#85C1FE"/>
<stop offset="0.78" stop-color="#85C1FE"/>
<stop offset="0.96" stop-color="#85C1FE"/>
</linearGradient>
<linearGradient id="paint17_linear_11130_35881" x1="352.347" y1="196.773" x2="297.383" y2="195.808" gradientUnits="userSpaceOnUse">
<stop stop-color="#2043C5"/>
<stop offset="0.2" stop-color="#2E52DA"/>
<stop offset="0.453" stop-color="#3A5FEC"/>
<stop offset="0.716" stop-color="#4268F7"/>
<stop offset="1" stop-color="#446AFB"/>
</linearGradient>
<linearGradient id="paint18_linear_11130_35881" x1="352.35" y1="196.773" x2="297.386" y2="195.808" gradientUnits="userSpaceOnUse">
<stop stop-color="#2043C5"/>
<stop offset="0.2" stop-color="#2E52DA"/>
<stop offset="0.453" stop-color="#3A5FEC"/>
<stop offset="0.716" stop-color="#4268F7"/>
<stop offset="1" stop-color="#446AFB"/>
</linearGradient>
<linearGradient id="paint19_linear_11130_35881" x1="352.275" y1="200.9" x2="297.311" y2="199.935" gradientUnits="userSpaceOnUse">
<stop stop-color="#2043C5"/>
<stop offset="0.2" stop-color="#2E52DA"/>
<stop offset="0.453" stop-color="#3A5FEC"/>
<stop offset="0.716" stop-color="#4268F7"/>
<stop offset="1" stop-color="#446AFB"/>
</linearGradient>
<linearGradient id="paint20_linear_11130_35881" x1="352.318" y1="198.445" x2="297.354" y2="197.48" gradientUnits="userSpaceOnUse">
<stop stop-color="#2043C5"/>
<stop offset="0.2" stop-color="#2E52DA"/>
<stop offset="0.453" stop-color="#3A5FEC"/>
<stop offset="0.716" stop-color="#4268F7"/>
<stop offset="1" stop-color="#446AFB"/>
</linearGradient>
<linearGradient id="paint21_linear_11130_35881" x1="352.352" y1="196.768" x2="297.39" y2="195.803" gradientUnits="userSpaceOnUse">
<stop stop-color="#2043C5"/>
<stop offset="0.2" stop-color="#2E52DA"/>
<stop offset="0.453" stop-color="#3A5FEC"/>
<stop offset="0.716" stop-color="#4268F7"/>
<stop offset="1" stop-color="#446AFB"/>
</linearGradient>
<linearGradient id="paint22_linear_11130_35881" x1="352.369" y1="195.619" x2="297.406" y2="194.653" gradientUnits="userSpaceOnUse">
<stop stop-color="#2043C5"/>
<stop offset="0.2" stop-color="#2E52DA"/>
<stop offset="0.453" stop-color="#3A5FEC"/>
<stop offset="0.716" stop-color="#4268F7"/>
<stop offset="1" stop-color="#446AFB"/>
</linearGradient>
<linearGradient id="paint23_linear_11130_35881" x1="352.41" y1="193.466" x2="297.447" y2="192.501" gradientUnits="userSpaceOnUse">
<stop stop-color="#2043C5"/>
<stop offset="0.2" stop-color="#2E52DA"/>
<stop offset="0.453" stop-color="#3A5FEC"/>
<stop offset="0.716" stop-color="#4268F7"/>
<stop offset="1" stop-color="#446AFB"/>
</linearGradient>
<linearGradient id="paint24_linear_11130_35881" x1="352.44" y1="191.834" x2="297.477" y2="190.868" gradientUnits="userSpaceOnUse">
<stop stop-color="#2043C5"/>
<stop offset="0.2" stop-color="#2E52DA"/>
<stop offset="0.453" stop-color="#3A5FEC"/>
<stop offset="0.716" stop-color="#4268F7"/>
<stop offset="1" stop-color="#446AFB"/>
</linearGradient>
<radialGradient id="paint25_radial_11130_35881" cx="0" cy="0" r="1" gradientUnits="userSpaceOnUse" gradientTransform="translate(274.786 111.321) scale(10.5343 10.5343)">
<stop stop-color="#446AFB"/>
<stop offset="0.284" stop-color="#4268F7"/>
<stop offset="0.547" stop-color="#3A5FEC"/>
<stop offset="0.8" stop-color="#2E52DA"/>
<stop offset="1" stop-color="#2043C5"/>
</radialGradient>
<radialGradient id="paint26_radial_11130_35881" cx="0" cy="0" r="1" gradientUnits="userSpaceOnUse" gradientTransform="translate(326.772 112.483) scale(11.2493)">
<stop stop-color="#446AFB"/>
<stop offset="0.284" stop-color="#4268F7"/>
<stop offset="0.547" stop-color="#3A5FEC"/>
<stop offset="0.8" stop-color="#2E52DA"/>
<stop offset="1" stop-color="#2043C5"/>
</radialGradient>
<radialGradient id="paint27_radial_11130_35881" cx="0" cy="0" r="1" gradientUnits="userSpaceOnUse" gradientTransform="translate(312.452 114.264) scale(9.0116 9.01161)">
<stop stop-color="#446AFB"/>
<stop offset="0.284" stop-color="#4268F7"/>
<stop offset="0.547" stop-color="#3A5FEC"/>
<stop offset="0.8" stop-color="#2E52DA"/>
<stop offset="1" stop-color="#2043C5"/>
</radialGradient>
<radialGradient id="paint28_radial_11130_35881" cx="0" cy="0" r="1" gradientUnits="userSpaceOnUse" gradientTransform="translate(297.567 112.344) scale(10.5343)">
<stop stop-color="#446AFB"/>
<stop offset="0.284" stop-color="#4268F7"/>
<stop offset="0.547" stop-color="#3A5FEC"/>
<stop offset="0.8" stop-color="#2E52DA"/>
<stop offset="1" stop-color="#2043C5"/>
</radialGradient>
<radialGradient id="paint29_radial_11130_35881" cx="0" cy="0" r="1" gradientUnits="userSpaceOnUse" gradientTransform="translate(283.653 114.907) scale(10.5343 10.5343)">
<stop stop-color="#446AFB"/>
<stop offset="0.284" stop-color="#4268F7"/>
<stop offset="0.547" stop-color="#3A5FEC"/>
<stop offset="0.8" stop-color="#2E52DA"/>
<stop offset="1" stop-color="#2043C5"/>
</radialGradient>
<linearGradient id="paint30_linear_11130_35881" x1="339.422" y1="163.192" x2="271.385" y2="113.299" gradientUnits="userSpaceOnUse">
<stop stop-color="#7ABCFF"/>
<stop offset="0.086" stop-color="#83C1FF"/>
<stop offset="0.331" stop-color="#84C1FE"/>
<stop offset="0.565" stop-color="#85C1FE"/>
<stop offset="0.78" stop-color="#85C1FE"/>
<stop offset="0.96" stop-color="#85C1FE"/>
</linearGradient>
<linearGradient id="paint31_linear_11130_35881" x1="343.66" y1="157.435" x2="276.415" y2="108.122" gradientUnits="userSpaceOnUse">
<stop stop-color="#7ABCFF"/>
<stop offset="0.086" stop-color="#83C1FF"/>
<stop offset="0.331" stop-color="#84C1FE"/>
<stop offset="0.565" stop-color="#85C1FE"/>
<stop offset="0.78" stop-color="#85C1FE"/>
<stop offset="0.96" stop-color="#85C1FE"/>
</linearGradient>
<linearGradient id="paint32_linear_11130_35881" x1="336.128" y1="146.892" x2="297.906" y2="129.399" gradientUnits="userSpaceOnUse">
<stop stop-color="#2043C5"/>
<stop offset="0.2" stop-color="#2E52DA"/>
<stop offset="0.453" stop-color="#3A5FEC"/>
<stop offset="0.716" stop-color="#4268F7"/>
<stop offset="1" stop-color="#446AFB"/>
</linearGradient>
<linearGradient id="paint33_linear_11130_35881" x1="336.128" y1="146.892" x2="297.907" y2="129.4" gradientUnits="userSpaceOnUse">
<stop stop-color="#2043C5"/>
<stop offset="0.2" stop-color="#2E52DA"/>
<stop offset="0.453" stop-color="#3A5FEC"/>
<stop offset="0.716" stop-color="#4268F7"/>
<stop offset="1" stop-color="#446AFB"/>
</linearGradient>
<linearGradient id="paint34_linear_11130_35881" x1="334.814" y1="149.762" x2="296.593" y2="132.27" gradientUnits="userSpaceOnUse">
<stop stop-color="#2043C5"/>
<stop offset="0.2" stop-color="#2E52DA"/>
<stop offset="0.453" stop-color="#3A5FEC"/>
<stop offset="0.716" stop-color="#4268F7"/>
<stop offset="1" stop-color="#446AFB"/>
</linearGradient>
<linearGradient id="paint35_linear_11130_35881" x1="335.596" y1="148.054" x2="297.374" y2="130.561" gradientUnits="userSpaceOnUse">
<stop stop-color="#2043C5"/>
<stop offset="0.2" stop-color="#2E52DA"/>
<stop offset="0.453" stop-color="#3A5FEC"/>
<stop offset="0.716" stop-color="#4268F7"/>
<stop offset="1" stop-color="#446AFB"/>
</linearGradient>
<linearGradient id="paint36_linear_11130_35881" x1="336.128" y1="146.888" x2="297.908" y2="129.397" gradientUnits="userSpaceOnUse">
<stop stop-color="#2043C5"/>
<stop offset="0.2" stop-color="#2E52DA"/>
<stop offset="0.453" stop-color="#3A5FEC"/>
<stop offset="0.716" stop-color="#4268F7"/>
<stop offset="1" stop-color="#446AFB"/>
</linearGradient>
<linearGradient id="paint37_linear_11130_35881" x1="336.493" y1="146.088" x2="298.272" y2="128.596" gradientUnits="userSpaceOnUse">
<stop stop-color="#2043C5"/>
<stop offset="0.2" stop-color="#2E52DA"/>
<stop offset="0.453" stop-color="#3A5FEC"/>
<stop offset="0.716" stop-color="#4268F7"/>
<stop offset="1" stop-color="#446AFB"/>
</linearGradient>
<linearGradient id="paint38_linear_11130_35881" x1="337.181" y1="144.592" x2="298.96" y2="127.1" gradientUnits="userSpaceOnUse">
<stop stop-color="#2043C5"/>
<stop offset="0.2" stop-color="#2E52DA"/>
<stop offset="0.453" stop-color="#3A5FEC"/>
<stop offset="0.716" stop-color="#4268F7"/>
<stop offset="1" stop-color="#446AFB"/>
</linearGradient>
<linearGradient id="paint39_linear_11130_35881" x1="337.701" y1="143.457" x2="299.479" y2="125.965" gradientUnits="userSpaceOnUse">
<stop stop-color="#2043C5"/>
<stop offset="0.2" stop-color="#2E52DA"/>
<stop offset="0.453" stop-color="#3A5FEC"/>
<stop offset="0.716" stop-color="#4268F7"/>
<stop offset="1" stop-color="#446AFB"/>
</linearGradient>
<linearGradient id="paint40_linear_11130_35881" x1="342.955" y1="168.889" x2="264.134" y2="116.068" gradientUnits="userSpaceOnUse">
<stop stop-color="#7ABCFF"/>
<stop offset="0.086" stop-color="#83C1FF"/>
<stop offset="0.331" stop-color="#84C1FE"/>
<stop offset="0.565" stop-color="#85C1FE"/>
<stop offset="0.78" stop-color="#85C1FE"/>
<stop offset="0.96" stop-color="#85C1FE"/>
</linearGradient>
<linearGradient id="paint41_linear_11130_35881" x1="112.94" y1="233.563" x2="194.593" y2="178.843" gradientUnits="userSpaceOnUse">
<stop stop-color="#7ABCFF"/>
<stop offset="0.086" stop-color="#83C1FF"/>
<stop offset="0.331" stop-color="#84C1FE"/>
<stop offset="0.565" stop-color="#85C1FE"/>
<stop offset="0.78" stop-color="#85C1FE"/>
<stop offset="0.96" stop-color="#85C1FE"/>
</linearGradient>
<linearGradient id="paint42_linear_11130_35881" x1="356.095" y1="150.261" x2="275.506" y2="96.2535" gradientUnits="userSpaceOnUse">
<stop stop-color="#7ABCFF"/>
<stop offset="0.086" stop-color="#83C1FF"/>
<stop offset="0.331" stop-color="#84C1FE"/>
<stop offset="0.565" stop-color="#85C1FE"/>
<stop offset="0.78" stop-color="#85C1FE"/>
<stop offset="0.96" stop-color="#85C1FE"/>
</linearGradient>
<linearGradient id="paint43_linear_11130_35881" x1="357.157" y1="149.907" x2="275.825" y2="95.4026" gradientUnits="userSpaceOnUse">
<stop stop-color="#7ABCFF"/>
<stop offset="0.086" stop-color="#83C1FF"/>
<stop offset="0.331" stop-color="#84C1FE"/>
<stop offset="0.565" stop-color="#85C1FE"/>
<stop offset="0.78" stop-color="#85C1FE"/>
<stop offset="0.96" stop-color="#85C1FE"/>
</linearGradient>
<linearGradient id="paint44_linear_11130_35881" x1="112.94" y1="233.563" x2="194.593" y2="178.843" gradientUnits="userSpaceOnUse">
<stop stop-color="#7ABCFF"/>
<stop offset="0.086" stop-color="#83C1FF"/>
<stop offset="0.331" stop-color="#84C1FE"/>
<stop offset="0.565" stop-color="#85C1FE"/>
<stop offset="0.78" stop-color="#85C1FE"/>
<stop offset="0.96" stop-color="#85C1FE"/>
</linearGradient>
<linearGradient id="paint45_linear_11130_35881" x1="307.198" y1="235.484" x2="-204.803" y2="234.653" gradientUnits="userSpaceOnUse">
<stop stop-color="#A0CEFC"/>
<stop offset="0.123" stop-color="#ADCBE9"/>
<stop offset="0.33" stop-color="#BED0E2"/>
<stop offset="0.542" stop-color="#BCD7F2"/>
<stop offset="0.762" stop-color="#B1D6FC"/>
<stop offset="1" stop-color="#ADD6FF"/>
</linearGradient>
<linearGradient id="paint46_linear_11130_35881" x1="179.448" y1="165.357" x2="61.6363" y2="102.947" gradientUnits="userSpaceOnUse">
<stop stop-color="#171921"/>
<stop offset="1" stop-color="#282C3A"/>
</linearGradient>
<linearGradient id="paint47_linear_11130_35881" x1="172.212" y1="160.775" x2="60.3092" y2="101.933" gradientUnits="userSpaceOnUse">
<stop stop-color="#171921"/>
<stop offset="1" stop-color="#282C3A"/>
</linearGradient>
<linearGradient id="paint48_linear_11130_35881" x1="96.5124" y1="141.219" x2="98.9896" y2="194.794" gradientUnits="userSpaceOnUse">
<stop stop-color="#1D80E3"/>
<stop offset="0.239" stop-color="#187CE1"/>
<stop offset="0.739" stop-color="#0C38DC"/>
<stop offset="1" stop-color="#0532DA"/>
</linearGradient>
<linearGradient id="paint49_linear_11130_35881" x1="104.692" y1="139.143" x2="97.0527" y2="108.38" gradientUnits="userSpaceOnUse">
<stop stop-color="#0575E6"/>
<stop offset="0.218" stop-color="#0272E4"/>
<stop offset="0.728" stop-color="#036AD2"/>
<stop offset="1" stop-color="#0471E0"/>
</linearGradient>
<linearGradient id="paint50_linear_11130_35881" x1="102.285" y1="139.191" x2="95.678" y2="109.667" gradientUnits="userSpaceOnUse">
<stop stop-color="#0575E6"/>
<stop offset="0.218" stop-color="#0272E4"/>
<stop offset="0.728" stop-color="#036AD2"/>
<stop offset="1" stop-color="#0471E0"/>
</linearGradient>
<linearGradient id="paint51_linear_11130_35881" x1="94.4589" y1="118.623" x2="106.817" y2="94.7886" gradientUnits="userSpaceOnUse">
<stop stop-color="#2043C5"/>
<stop offset="0.2" stop-color="#2E52DA"/>
<stop offset="0.453" stop-color="#3A5FEC"/>
<stop offset="0.716" stop-color="#4268F7"/>
<stop offset="1" stop-color="#446AFB"/>
</linearGradient>
</defs>
</svg>
