<svg width="291" height="260" viewBox="0 0 291 260" fill="none" xmlns="http://www.w3.org/2000/svg">
<path d="M162.203 57.5403C148.632 57.5403 137.594 46.5018 137.594 32.9313C137.594 19.3608 148.632 8.32227 162.203 8.32227C175.773 8.32227 186.812 19.3608 186.812 32.9313C186.812 46.4971 175.773 57.5403 162.203 57.5403ZM162.203 21.0867C155.674 21.0867 150.358 26.4021 150.358 32.9313C150.358 39.4605 155.674 44.7759 162.203 44.7759C168.732 44.7759 174.047 39.4605 174.047 32.9313C174.052 26.3973 168.737 21.0867 162.203 21.0867Z" fill="#7BBDFF"/>
<path d="M169.392 14.7038H155.859V1.8113C155.859 0.810814 156.67 0 157.671 0H167.585C168.586 0 169.397 0.810814 169.397 1.8113V14.7038H169.392Z" fill="#7BBDFF"/>
<path d="M167.593 65.8571H157.678C156.678 65.8571 155.867 65.0463 155.867 64.0458V51.1533H169.4V64.0458C169.405 65.0463 168.594 65.8571 167.593 65.8571Z" fill="white"/>
<path d="M144.391 26.1649V39.6975H131.499C130.498 39.6975 129.688 38.8867 129.688 37.8862V27.9715C129.688 26.971 130.498 26.1602 131.499 26.1602H144.391V26.1649Z" fill="#7BBDFF"/>
<path d="M195.551 27.9706V37.8854C195.551 38.8858 194.74 39.6967 193.739 39.6967H180.852V26.1641H193.744C194.74 26.1641 195.551 26.9749 195.551 27.9706Z" fill="#7BBDFF"/>
<path d="M154.509 15.2595L144.94 24.8281L135.827 15.7147C135.12 15.0082 135.12 13.8607 135.827 13.1542L142.835 6.14609C143.541 5.43959 144.689 5.43959 145.395 6.14609L154.509 15.2595Z" fill="#7BBDFF"/>
<path d="M189.401 52.7081L182.393 59.7162C181.686 60.4227 180.539 60.4227 179.832 59.7162L170.719 50.6028L180.287 41.0342L189.401 50.1476C190.107 50.8541 190.107 52.0016 189.401 52.7081Z" fill="white"/>
<path d="M180.287 24.8281L170.719 15.2595L179.832 6.14609C180.539 5.43959 181.686 5.43959 182.393 6.14609L189.401 13.1542C190.107 13.8607 190.107 15.0082 189.401 15.7147L180.287 24.8281Z" fill="#7BBDFF"/>
<path d="M142.835 59.7162L135.827 52.7081C135.12 52.0016 135.12 50.8541 135.827 50.1476L144.94 41.0342L154.509 50.6028L145.395 59.7162C144.684 60.4227 143.541 60.4227 142.835 59.7162Z" fill="white"/>
<path d="M121.959 258.536H194.255C203.482 258.536 210.965 251.053 210.965 241.826V49.4204C210.965 40.1932 203.482 32.7109 194.255 32.7109H121.959C112.732 32.7109 105.25 40.1932 105.25 49.4204V241.826C105.255 251.058 112.732 258.536 121.959 258.536Z" fill="#88C2FC"/>
<path d="M121.863 253.477H194.357C200.711 253.477 205.86 248.328 205.86 241.974V50.3362C205.86 43.9824 200.711 38.833 194.357 38.833H121.863C115.509 38.833 110.359 43.9824 110.359 50.3362V241.974C110.364 248.328 115.514 253.477 121.863 253.477Z" fill="white"/>
<path d="M133.462 44.4851H178.835C180.551 44.4851 181.94 43.0958 181.94 41.3793V36.3105H130.352V41.3793C130.352 43.0911 131.746 44.4851 133.462 44.4851Z" fill="#88C2FC"/>
<path d="M168.612 38.9378H140.883C140.821 38.9378 140.773 38.8904 140.773 38.8288C140.773 38.7671 140.821 38.7197 140.883 38.7197H168.612C168.673 38.7197 168.721 38.7671 168.721 38.8288C168.721 38.8904 168.673 38.9378 168.612 38.9378Z" fill="white"/>
<path d="M185.024 69.5755H126.204C125.493 69.5755 124.914 68.9971 124.914 68.2858C124.914 67.5746 125.493 66.9961 126.204 66.9961H185.024C185.735 66.9961 186.313 67.5746 186.313 68.2858C186.313 68.9971 185.735 69.5755 185.024 69.5755Z" fill="#B8DBFF"/>
<path d="M150.922 77.891H126.204C125.493 77.891 124.914 77.3125 124.914 76.6012C124.914 75.89 125.493 75.3115 126.204 75.3115H150.922C151.633 75.3115 152.212 75.89 152.212 76.6012C152.212 77.3125 151.633 77.891 150.922 77.891Z" fill="#B8DBFF"/>
<path d="M185.024 216.433H126.204C125.493 216.433 124.914 215.854 124.914 215.143C124.914 214.432 125.493 213.854 126.204 213.854H185.024C185.735 213.854 186.313 214.432 186.313 215.143C186.313 215.854 185.735 216.433 185.024 216.433Z" fill="#B8DBFF"/>
<path d="M205.971 184.488H79.2649C75.0685 184.488 71.6641 181.083 71.6641 176.887V104.445C71.6641 100.248 75.0685 96.8438 79.2649 96.8438H205.971V184.488Z" fill="#204BEF"/>
<path d="M163.9 113.553H84.1172V117.668H163.9V113.553Z" fill="white"/>
<path d="M110.741 154.531H84.1172V158.647H110.741V154.531Z" fill="white"/>
<path d="M141.71 154.531H115.086V158.647H141.71V154.531Z" fill="white"/>
<path d="M194.318 154.531H146.305V158.647H194.318V154.531Z" fill="white"/>
<path d="M131.443 166.095H84.1172V170.21H131.443V166.095Z" fill="white"/>
<path d="M150.087 166.095H135.516V170.21H150.087V166.095Z" fill="white"/>
<path d="M106.205 143.956H86.7265C85.2945 143.956 84.1328 142.794 84.1328 141.362V130.509C84.1328 129.077 85.2945 127.915 86.7265 127.915H106.205C107.637 127.915 108.799 129.077 108.799 130.509V141.362C108.799 142.794 107.637 143.956 106.205 143.956Z" fill="white"/>
<path d="M96.52 140.186H81.3516V131.689H96.52C98.8624 131.689 100.769 133.596 100.769 135.938C100.769 138.28 98.8624 140.186 96.52 140.186ZM82.3805 139.158H96.52C98.2981 139.158 99.7396 137.711 99.7396 135.933C99.7396 134.155 98.2934 132.709 96.52 132.709H82.3805V139.158Z" fill="#7BBDFF"/>
<path d="M110.724 135.422H100.25V136.451H110.724V135.422Z" fill="#7BBDFF"/>
<path d="M98.2789 52.0883H61.6641V33.5628C61.6641 32.0265 62.9111 30.7842 64.4427 30.7842H98.2741C99.8104 30.7842 101.053 32.0312 101.053 33.5628V49.305C101.057 50.8413 99.8152 52.0883 98.2789 52.0883Z" fill="#7BBDFF"/>
<path d="M61.6691 47.6777L61.6406 57.0899L69.6777 47.7014L61.6691 47.6777Z" fill="#7BBDFF"/>
<path d="M86.586 41.1921C86.5812 42.0883 87.3067 42.8185 88.2029 42.8185C89.099 42.8232 89.8292 42.0978 89.8292 41.2016C89.834 40.3054 89.1085 39.5752 88.2123 39.5752C87.3162 39.5705 86.5907 40.2959 86.586 41.1921Z" fill="white"/>
<path d="M79.625 41.1677C79.6203 42.0639 80.3457 42.7941 81.2419 42.7941C82.1381 42.7988 82.8683 42.0733 82.8683 41.1772C82.873 40.281 82.1476 39.5508 81.2514 39.5508C80.36 39.5461 79.6298 40.2715 79.625 41.1677Z" fill="white"/>
<path d="M72.6797 41.1482C72.675 42.0443 73.4004 42.7745 74.2966 42.7745C75.1928 42.7793 75.923 42.0538 75.923 41.1577C75.9277 40.2615 75.2023 39.5313 74.3061 39.5313C73.4099 39.5265 72.6797 40.252 72.6797 41.1482Z" fill="white"/>
<path d="M280.905 30.89C282.69 19.8116 275.157 9.38371 264.078 7.59853C253 5.81336 242.572 13.3469 240.787 24.4253C239.002 35.5036 246.535 45.9315 257.614 47.7167C268.692 49.5019 279.12 41.9683 280.905 30.89Z" fill="#345EFA"/>
<path d="M263.069 27.022L259.598 25.6943C258.986 25.4572 258.578 24.8788 258.578 24.2339C258.578 23.8261 258.749 23.4183 259.019 23.1433C259.327 22.8351 259.697 22.7024 260.143 22.7024H261.504C262.22 22.7024 262.798 23.1433 263.002 23.8261C263.206 24.5753 263.988 24.9831 264.738 24.7792C265.487 24.5753 265.928 23.7929 265.691 23.0438C265.25 21.4126 263.856 20.2225 262.22 19.9475V18.7905C262.22 18.0082 261.608 17.3965 260.826 17.3965C260.043 17.3965 259.432 18.0082 259.432 18.7905V19.9807C258.55 20.1182 257.73 20.5591 257.085 21.1708C256.269 21.9864 255.828 23.1101 255.828 24.2339C255.828 26.0025 256.952 27.6336 258.616 28.2833L262.087 29.6109C262.699 29.848 263.107 30.4265 263.107 31.0713C263.107 31.9201 262.391 32.6361 261.542 32.6361H260.181C259.465 32.6361 258.886 32.1951 258.683 31.5123C258.479 30.7631 257.696 30.3222 256.947 30.5592C256.198 30.7631 255.757 31.5455 255.994 32.2947C256.435 33.9258 257.829 35.1159 259.427 35.391V36.5479C259.427 37.3303 260.039 37.9419 260.821 37.9419C261.603 37.9419 262.215 37.3303 262.215 36.5479V35.391C264.254 35.0496 265.857 33.2809 265.857 31.1045C265.857 29.3027 264.766 27.7048 263.069 27.022Z" fill="white"/>
<path d="M230.996 126.787H190.128C187.131 126.787 184.703 124.36 184.703 121.363V80.4947C184.703 77.498 187.131 75.0703 190.128 75.0703H230.996C233.992 75.0703 236.42 77.498 236.42 80.4947V121.363C236.425 124.36 233.992 126.787 230.996 126.787Z" fill="#79B8F7"/>
<path d="M210.584 116.513C210.56 116.513 210.537 116.513 210.513 116.508C210.285 116.47 204.889 115.465 200.228 109.984C196.15 105.195 195.378 94.9528 195.235 90.7707C195.221 90.3534 195.368 89.9598 195.653 89.6564C195.937 89.3529 196.321 89.1775 196.738 89.168C198.18 89.1253 201.001 88.9262 203.666 88.0395C206.582 87.0722 208.597 85.5312 209.536 84.7014C210.134 84.1751 211.034 84.1751 211.632 84.7014C212.571 85.5312 214.581 87.0675 217.502 88.0395C220.172 88.9262 222.988 89.1253 224.434 89.168C224.852 89.1775 225.236 89.3529 225.52 89.6564C225.805 89.9598 225.952 90.3534 225.937 90.7707C225.795 94.9528 225.017 105.199 220.944 109.988C216.283 115.47 210.887 116.475 210.66 116.513C210.631 116.508 210.608 116.513 210.584 116.513ZM210.584 85.1376C210.409 85.1376 210.233 85.1993 210.091 85.3273C209.105 86.1997 206.99 87.8166 203.931 88.8313C201.162 89.7512 198.251 89.9599 196.762 90.0025C196.568 90.0073 196.388 90.0879 196.26 90.2301C196.127 90.3676 196.06 90.5526 196.065 90.7422C196.174 93.9381 196.843 104.73 200.859 109.448C205.032 114.351 209.93 115.536 210.584 115.678C211.238 115.541 216.132 114.351 220.309 109.448C224.325 104.73 224.994 93.9381 225.103 90.7422C225.108 90.5526 225.041 90.3676 224.913 90.2301C224.78 90.0879 224.605 90.012 224.411 90.0025C222.922 89.9599 220.01 89.7512 217.241 88.8313C214.183 87.8166 212.073 86.1997 211.082 85.3273C210.935 85.1993 210.759 85.1376 210.584 85.1376Z" fill="white"/>
<path d="M208.814 105.795C208.701 105.795 208.596 105.748 208.516 105.672L204.244 101.305C204.082 101.139 204.087 100.878 204.248 100.717C204.414 100.556 204.675 100.56 204.836 100.722L208.791 104.766L216.852 95.3305C216.999 95.155 217.264 95.1361 217.44 95.2831C217.615 95.4348 217.634 95.6956 217.487 95.871L209.132 105.653C209.056 105.743 208.947 105.795 208.829 105.8C208.824 105.795 208.819 105.795 208.814 105.795Z" fill="white"/>
<path d="M272.656 179.068C282.756 179.068 290.944 170.88 290.944 160.78C290.944 150.679 282.756 142.491 272.656 142.491C262.555 142.491 254.367 150.679 254.367 160.78C254.367 170.88 262.555 179.068 272.656 179.068Z" fill="#7BBDFF"/>
<path d="M278.865 156.07C277.366 154.605 274.967 154.629 273.502 156.127L272.535 157.114L271.539 156.132C270.045 154.662 267.646 154.681 266.176 156.175C264.706 157.668 264.725 160.068 266.219 161.537L269.908 165.17C269.917 165.179 269.922 165.189 269.927 165.193C270.515 165.772 271.245 166.113 271.999 166.232C273.165 166.412 274.398 166.047 275.289 165.136L278.917 161.428C280.387 159.94 280.363 157.54 278.865 156.07Z" fill="white"/>
<path d="M286.189 108.887H258.906C256.274 108.887 254.141 106.754 254.141 104.122V81.3669C254.141 78.7353 256.274 76.6016 258.906 76.6016H286.189C288.821 76.6016 290.955 78.7353 290.955 81.3669V104.122C290.959 106.754 288.821 108.887 286.189 108.887Z" fill="#B8DBFF"/>
<path d="M279.26 91.4222L278.145 91.2278C278.017 90.7442 277.823 90.2747 277.572 89.8385L278.221 88.9139C278.458 88.5725 278.421 88.1126 278.127 87.8186L277.458 87.15C277.159 86.8608 276.699 86.8276 276.363 87.0741L275.438 87.7237C275.002 87.4724 274.537 87.278 274.053 87.15L273.864 86.012C273.793 85.609 273.447 85.3103 273.039 85.3008H272.076C271.659 85.3008 271.303 85.5995 271.232 86.012L271.038 87.1216C270.554 87.2496 270.085 87.444 269.649 87.6953L268.729 87.0741C268.387 86.8371 267.927 86.875 267.633 87.169L266.965 87.8375C266.671 88.1315 266.628 88.5915 266.87 88.9329L267.52 89.8575C267.268 90.2937 267.074 90.7584 266.946 91.2468L265.836 91.4412C265.424 91.5123 265.125 91.8679 265.125 92.2852V93.2288C265.125 93.646 265.424 94.0017 265.836 94.0728L266.946 94.2672C267.074 94.7508 267.268 95.2203 267.52 95.6565L266.87 96.5811C266.633 96.9225 266.671 97.3824 266.965 97.6764L267.633 98.345C267.927 98.639 268.387 98.6816 268.729 98.4398L269.653 97.7902C270.089 98.0415 270.554 98.2359 271.038 98.364L271.232 99.4735C271.303 99.886 271.659 100.185 272.076 100.185H273.034C273.451 100.185 273.807 99.886 273.878 99.4735L274.072 98.364C274.556 98.2359 275.026 98.0415 275.462 97.7902L276.367 98.4256C276.709 98.6627 277.169 98.6247 277.463 98.3308L278.131 97.6622C278.425 97.3682 278.468 96.9083 278.226 96.5669L277.576 95.6328C277.828 95.1965 278.022 94.7319 278.15 94.2435L279.265 94.0491C279.677 93.9779 279.976 93.6223 279.976 93.2051V92.2615C279.966 91.849 279.668 91.4933 279.26 91.4222ZM272.541 95.2819C271.133 95.2819 269.995 94.1439 269.995 92.7356C269.995 91.3274 271.133 90.1894 272.541 90.1894C273.949 90.1894 275.087 91.3274 275.087 92.7356C275.087 92.7404 275.087 92.7451 275.087 92.7499C275.078 94.1487 273.94 95.2819 272.541 95.2819Z" fill="white"/>
<path d="M37.6581 66.6387C37.6581 66.6387 47.0038 93.7655 52.746 94.3724C58.4833 94.9841 78.071 85.5009 78.071 85.5009L79.6262 91.4895C79.6262 91.4895 58.7346 106.492 50.5032 103.732C42.2717 100.973 34.2109 92.7271 34.2109 92.7271L37.6581 66.6387Z" fill="#83C1FF"/>
<path d="M71.8047 92.7275C74.6449 92.6231 80.5862 92.4098 81.838 92.4098C83.4975 92.4098 87.4283 83.9886 87.4283 83.9886L81.4539 87.1892C81.2547 87.2936 81.0556 87.0517 81.1978 86.8763C82.3169 85.5344 84.1756 83.0498 82.6251 83.0498C81.0603 83.0498 79.4766 85.0223 77.6653 85.7004" fill="#83C1FF"/>
<mask id="mask0_11139_36913" style="mask-type:luminance" maskUnits="userSpaceOnUse" x="15" y="27" width="31" height="46">
<path d="M28.9731 27.2969L29.4472 27.387L37.0149 28.7952C37.0149 28.7952 36.5929 30.4358 38.2098 32.0527C39.8267 33.6696 48.5702 64.4712 43.7385 69.3029C38.9068 74.1346 19.414 72.3565 18.8355 72.3565C18.257 72.3565 15.1797 49.9761 15.1797 49.9761L28.9731 27.2969Z" fill="white"/>
</mask>
<g mask="url(#mask0_11139_36913)">
<path d="M16.3319 27.2969H15.1797V74.1299H16.3319V27.2969Z" fill="#202A51"/>
</g>
<mask id="mask1_11139_36913" style="mask-type:luminance" maskUnits="userSpaceOnUse" x="15" y="27" width="31" height="46">
<path d="M28.9731 27.2969L29.4472 27.387L37.0149 28.7952C37.0149 28.7952 36.5929 30.4358 38.2098 32.0527C39.8267 33.6696 48.5702 64.4712 43.7385 69.3029C38.9068 74.1346 19.414 72.3565 18.8355 72.3565C18.257 72.3565 15.1797 49.9761 15.1797 49.9761L28.9731 27.2969Z" fill="white"/>
</mask>
<g mask="url(#mask1_11139_36913)">
<path d="M17.4803 27.2969H16.3281V74.1299H17.4803V27.2969Z" fill="#202A50"/>
</g>
<mask id="mask2_11139_36913" style="mask-type:luminance" maskUnits="userSpaceOnUse" x="15" y="27" width="31" height="46">
<path d="M28.9731 27.2969L29.4472 27.387L37.0149 28.7952C37.0149 28.7952 36.5929 30.4358 38.2098 32.0527C39.8267 33.6696 48.5702 64.4712 43.7385 69.3029C38.9068 74.1346 19.414 72.3565 18.8355 72.3565C18.257 72.3565 15.1797 49.9761 15.1797 49.9761L28.9731 27.2969Z" fill="white"/>
</mask>
<g mask="url(#mask2_11139_36913)">
<path d="M18.6366 27.2969H17.4844V74.1299H18.6366V27.2969Z" fill="#202A4F"/>
</g>
<mask id="mask3_11139_36913" style="mask-type:luminance" maskUnits="userSpaceOnUse" x="15" y="27" width="31" height="46">
<path d="M28.9731 27.2969L29.4472 27.387L37.0149 28.7952C37.0149 28.7952 36.5929 30.4358 38.2098 32.0527C39.8267 33.6696 48.5702 64.4712 43.7385 69.3029C38.9068 74.1346 19.414 72.3565 18.8355 72.3565C18.257 72.3565 15.1797 49.9761 15.1797 49.9761L28.9731 27.2969Z" fill="white"/>
</mask>
<g mask="url(#mask3_11139_36913)">
<path d="M19.7928 27.2969H18.6406V74.1299H19.7928V27.2969Z" fill="#202A4E"/>
</g>
<mask id="mask4_11139_36913" style="mask-type:luminance" maskUnits="userSpaceOnUse" x="15" y="27" width="31" height="46">
<path d="M28.9731 27.2969L29.4472 27.387L37.0149 28.7952C37.0149 28.7952 36.5929 30.4358 38.2098 32.0527C39.8267 33.6696 48.5702 64.4712 43.7385 69.3029C38.9068 74.1346 19.414 72.3565 18.8355 72.3565C18.257 72.3565 15.1797 49.9761 15.1797 49.9761L28.9731 27.2969Z" fill="white"/>
</mask>
<g mask="url(#mask4_11139_36913)">
<path d="M20.9413 27.2969H19.7891V74.1299H20.9413V27.2969Z" fill="#20294D"/>
</g>
<mask id="mask5_11139_36913" style="mask-type:luminance" maskUnits="userSpaceOnUse" x="15" y="27" width="31" height="46">
<path d="M28.9731 27.2969L29.4472 27.387L37.0149 28.7952C37.0149 28.7952 36.5929 30.4358 38.2098 32.0527C39.8267 33.6696 48.5702 64.4712 43.7385 69.3029C38.9068 74.1346 19.414 72.3565 18.8355 72.3565C18.257 72.3565 15.1797 49.9761 15.1797 49.9761L28.9731 27.2969Z" fill="white"/>
</mask>
<g mask="url(#mask5_11139_36913)">
<path d="M22.0975 27.2969H20.9453V74.1299H22.0975V27.2969Z" fill="#212A4C"/>
</g>
<mask id="mask6_11139_36913" style="mask-type:luminance" maskUnits="userSpaceOnUse" x="15" y="27" width="31" height="46">
<path d="M28.9731 27.2969L29.4472 27.387L37.0149 28.7952C37.0149 28.7952 36.5929 30.4358 38.2098 32.0527C39.8267 33.6696 48.5702 64.4712 43.7385 69.3029C38.9068 74.1346 19.414 72.3565 18.8355 72.3565C18.257 72.3565 15.1797 49.9761 15.1797 49.9761L28.9731 27.2969Z" fill="white"/>
</mask>
<g mask="url(#mask6_11139_36913)">
<path d="M23.2538 27.2969H22.1016V74.1299H23.2538V27.2969Z" fill="#212A4B"/>
</g>
<mask id="mask7_11139_36913" style="mask-type:luminance" maskUnits="userSpaceOnUse" x="15" y="27" width="31" height="46">
<path d="M28.9731 27.2969L29.4472 27.387L37.0149 28.7952C37.0149 28.7952 36.5929 30.4358 38.2098 32.0527C39.8267 33.6696 48.5702 64.4712 43.7385 69.3029C38.9068 74.1346 19.414 72.3565 18.8355 72.3565C18.257 72.3565 15.1797 49.9761 15.1797 49.9761L28.9731 27.2969Z" fill="white"/>
</mask>
<g mask="url(#mask7_11139_36913)">
<path d="M24.4022 27.2969H23.25V74.1299H24.4022V27.2969Z" fill="#212A4A"/>
</g>
<mask id="mask8_11139_36913" style="mask-type:luminance" maskUnits="userSpaceOnUse" x="15" y="27" width="31" height="46">
<path d="M28.9731 27.2969L29.4472 27.387L37.0149 28.7952C37.0149 28.7952 36.5929 30.4358 38.2098 32.0527C39.8267 33.6696 48.5702 64.4712 43.7385 69.3029C38.9068 74.1346 19.414 72.3565 18.8355 72.3565C18.257 72.3565 15.1797 49.9761 15.1797 49.9761L28.9731 27.2969Z" fill="white"/>
</mask>
<g mask="url(#mask8_11139_36913)">
<path d="M25.5585 27.2969H24.4062V74.1299H25.5585V27.2969Z" fill="#212949"/>
</g>
<mask id="mask9_11139_36913" style="mask-type:luminance" maskUnits="userSpaceOnUse" x="15" y="27" width="31" height="46">
<path d="M28.9731 27.2969L29.4472 27.387L37.0149 28.7952C37.0149 28.7952 36.5929 30.4358 38.2098 32.0527C39.8267 33.6696 48.5702 64.4712 43.7385 69.3029C38.9068 74.1346 19.414 72.3565 18.8355 72.3565C18.257 72.3565 15.1797 49.9761 15.1797 49.9761L28.9731 27.2969Z" fill="white"/>
</mask>
<g mask="url(#mask9_11139_36913)">
<path d="M26.7147 27.2969H25.5625V74.1299H26.7147V27.2969Z" fill="#212948"/>
</g>
<mask id="mask10_11139_36913" style="mask-type:luminance" maskUnits="userSpaceOnUse" x="15" y="27" width="31" height="46">
<path d="M28.9731 27.2969L29.4472 27.387L37.0149 28.7952C37.0149 28.7952 36.5929 30.4358 38.2098 32.0527C39.8267 33.6696 48.5702 64.4712 43.7385 69.3029C38.9068 74.1346 19.414 72.3565 18.8355 72.3565C18.257 72.3565 15.1797 49.9761 15.1797 49.9761L28.9731 27.2969Z" fill="white"/>
</mask>
<g mask="url(#mask10_11139_36913)">
<path d="M27.8632 27.2969H26.7109V74.1299H27.8632V27.2969Z" fill="#212947"/>
</g>
<mask id="mask11_11139_36913" style="mask-type:luminance" maskUnits="userSpaceOnUse" x="15" y="27" width="31" height="46">
<path d="M28.9731 27.2969L29.4472 27.387L37.0149 28.7952C37.0149 28.7952 36.5929 30.4358 38.2098 32.0527C39.8267 33.6696 48.5702 64.4712 43.7385 69.3029C38.9068 74.1346 19.414 72.3565 18.8355 72.3565C18.257 72.3565 15.1797 49.9761 15.1797 49.9761L28.9731 27.2969Z" fill="white"/>
</mask>
<g mask="url(#mask11_11139_36913)">
<path d="M29.0194 27.2969H27.8672V74.1299H29.0194V27.2969Z" fill="#212946"/>
</g>
<mask id="mask12_11139_36913" style="mask-type:luminance" maskUnits="userSpaceOnUse" x="15" y="27" width="31" height="46">
<path d="M28.9731 27.2969L29.4472 27.387L37.0149 28.7952C37.0149 28.7952 36.5929 30.4358 38.2098 32.0527C39.8267 33.6696 48.5702 64.4712 43.7385 69.3029C38.9068 74.1346 19.414 72.3565 18.8355 72.3565C18.257 72.3565 15.1797 49.9761 15.1797 49.9761L28.9731 27.2969Z" fill="white"/>
</mask>
<g mask="url(#mask12_11139_36913)">
<path d="M30.1757 27.2969H29.0234V74.1299H30.1757V27.2969Z" fill="#212945"/>
</g>
<mask id="mask13_11139_36913" style="mask-type:luminance" maskUnits="userSpaceOnUse" x="15" y="27" width="31" height="46">
<path d="M28.9731 27.2969L29.4472 27.387L37.0149 28.7952C37.0149 28.7952 36.5929 30.4358 38.2098 32.0527C39.8267 33.6696 48.5702 64.4712 43.7385 69.3029C38.9068 74.1346 19.414 72.3565 18.8355 72.3565C18.257 72.3565 15.1797 49.9761 15.1797 49.9761L28.9731 27.2969Z" fill="white"/>
</mask>
<g mask="url(#mask13_11139_36913)">
<path d="M31.3319 27.2969H30.1797V74.1299H31.3319V27.2969Z" fill="#222943"/>
</g>
<mask id="mask14_11139_36913" style="mask-type:luminance" maskUnits="userSpaceOnUse" x="15" y="27" width="31" height="46">
<path d="M28.9731 27.2969L29.4472 27.387L37.0149 28.7952C37.0149 28.7952 36.5929 30.4358 38.2098 32.0527C39.8267 33.6696 48.5702 64.4712 43.7385 69.3029C38.9068 74.1346 19.414 72.3565 18.8355 72.3565C18.257 72.3565 15.1797 49.9761 15.1797 49.9761L28.9731 27.2969Z" fill="white"/>
</mask>
<g mask="url(#mask14_11139_36913)">
<path d="M32.4803 27.2969H31.3281V74.1299H32.4803V27.2969Z" fill="#222942"/>
</g>
<mask id="mask15_11139_36913" style="mask-type:luminance" maskUnits="userSpaceOnUse" x="15" y="27" width="31" height="46">
<path d="M28.9731 27.2969L29.4472 27.387L37.0149 28.7952C37.0149 28.7952 36.5929 30.4358 38.2098 32.0527C39.8267 33.6696 48.5702 64.4712 43.7385 69.3029C38.9068 74.1346 19.414 72.3565 18.8355 72.3565C18.257 72.3565 15.1797 49.9761 15.1797 49.9761L28.9731 27.2969Z" fill="white"/>
</mask>
<g mask="url(#mask15_11139_36913)">
<path d="M33.6444 27.2969H32.4922V74.1299H33.6444V27.2969Z" fill="#222941"/>
</g>
<mask id="mask16_11139_36913" style="mask-type:luminance" maskUnits="userSpaceOnUse" x="15" y="27" width="31" height="46">
<path d="M28.9731 27.2969L29.4472 27.387L37.0149 28.7952C37.0149 28.7952 36.5929 30.4358 38.2098 32.0527C39.8267 33.6696 48.5702 64.4712 43.7385 69.3029C38.9068 74.1346 19.414 72.3565 18.8355 72.3565C18.257 72.3565 15.1797 49.9761 15.1797 49.9761L28.9731 27.2969Z" fill="white"/>
</mask>
<g mask="url(#mask16_11139_36913)">
<path d="M34.7928 27.2969H33.6406V74.1299H34.7928V27.2969Z" fill="#222840"/>
</g>
<mask id="mask17_11139_36913" style="mask-type:luminance" maskUnits="userSpaceOnUse" x="15" y="27" width="31" height="46">
<path d="M28.9731 27.2969L29.4472 27.387L37.0149 28.7952C37.0149 28.7952 36.5929 30.4358 38.2098 32.0527C39.8267 33.6696 48.5702 64.4712 43.7385 69.3029C38.9068 74.1346 19.414 72.3565 18.8355 72.3565C18.257 72.3565 15.1797 49.9761 15.1797 49.9761L28.9731 27.2969Z" fill="white"/>
</mask>
<g mask="url(#mask17_11139_36913)">
<path d="M35.9413 27.2969H34.7891V74.1299H35.9413V27.2969Z" fill="#22283F"/>
</g>
<mask id="mask18_11139_36913" style="mask-type:luminance" maskUnits="userSpaceOnUse" x="15" y="27" width="31" height="46">
<path d="M28.9731 27.2969L29.4472 27.387L37.0149 28.7952C37.0149 28.7952 36.5929 30.4358 38.2098 32.0527C39.8267 33.6696 48.5702 64.4712 43.7385 69.3029C38.9068 74.1346 19.414 72.3565 18.8355 72.3565C18.257 72.3565 15.1797 49.9761 15.1797 49.9761L28.9731 27.2969Z" fill="white"/>
</mask>
<g mask="url(#mask18_11139_36913)">
<path d="M37.0975 27.2969H35.9453V74.1299H37.0975V27.2969Z" fill="#22283E"/>
</g>
<mask id="mask19_11139_36913" style="mask-type:luminance" maskUnits="userSpaceOnUse" x="15" y="27" width="31" height="46">
<path d="M28.9731 27.2969L29.4472 27.387L37.0149 28.7952C37.0149 28.7952 36.5929 30.4358 38.2098 32.0527C39.8267 33.6696 48.5702 64.4712 43.7385 69.3029C38.9068 74.1346 19.414 72.3565 18.8355 72.3565C18.257 72.3565 15.1797 49.9761 15.1797 49.9761L28.9731 27.2969Z" fill="white"/>
</mask>
<g mask="url(#mask19_11139_36913)">
<path d="M38.246 27.2969H37.0938V74.1299H38.246V27.2969Z" fill="#22283D"/>
</g>
<mask id="mask20_11139_36913" style="mask-type:luminance" maskUnits="userSpaceOnUse" x="15" y="27" width="31" height="46">
<path d="M28.9731 27.2969L29.4472 27.387L37.0149 28.7952C37.0149 28.7952 36.5929 30.4358 38.2098 32.0527C39.8267 33.6696 48.5702 64.4712 43.7385 69.3029C38.9068 74.1346 19.414 72.3565 18.8355 72.3565C18.257 72.3565 15.1797 49.9761 15.1797 49.9761L28.9731 27.2969Z" fill="white"/>
</mask>
<g mask="url(#mask20_11139_36913)">
<path d="M39.4022 27.2969H38.25V74.1299H39.4022V27.2969Z" fill="#22273C"/>
</g>
<mask id="mask21_11139_36913" style="mask-type:luminance" maskUnits="userSpaceOnUse" x="15" y="27" width="31" height="46">
<path d="M28.9731 27.2969L29.4472 27.387L37.0149 28.7952C37.0149 28.7952 36.5929 30.4358 38.2098 32.0527C39.8267 33.6696 48.5702 64.4712 43.7385 69.3029C38.9068 74.1346 19.414 72.3565 18.8355 72.3565C18.257 72.3565 15.1797 49.9761 15.1797 49.9761L28.9731 27.2969Z" fill="white"/>
</mask>
<g mask="url(#mask21_11139_36913)">
<path d="M40.5585 27.2969H39.4062V74.1299H40.5585V27.2969Z" fill="#23283B"/>
</g>
<mask id="mask22_11139_36913" style="mask-type:luminance" maskUnits="userSpaceOnUse" x="15" y="27" width="31" height="46">
<path d="M28.9731 27.2969L29.4472 27.387L37.0149 28.7952C37.0149 28.7952 36.5929 30.4358 38.2098 32.0527C39.8267 33.6696 48.5702 64.4712 43.7385 69.3029C38.9068 74.1346 19.414 72.3565 18.8355 72.3565C18.257 72.3565 15.1797 49.9761 15.1797 49.9761L28.9731 27.2969Z" fill="white"/>
</mask>
<g mask="url(#mask22_11139_36913)">
<path d="M41.7147 27.2969H40.5625V74.1299H41.7147V27.2969Z" fill="#23283A"/>
</g>
<mask id="mask23_11139_36913" style="mask-type:luminance" maskUnits="userSpaceOnUse" x="15" y="27" width="31" height="46">
<path d="M28.9731 27.2969L29.4472 27.387L37.0149 28.7952C37.0149 28.7952 36.5929 30.4358 38.2098 32.0527C39.8267 33.6696 48.5702 64.4712 43.7385 69.3029C38.9068 74.1346 19.414 72.3565 18.8355 72.3565C18.257 72.3565 15.1797 49.9761 15.1797 49.9761L28.9731 27.2969Z" fill="white"/>
</mask>
<g mask="url(#mask23_11139_36913)">
<path d="M42.8631 27.2969H41.7109V74.1299H42.8631V27.2969Z" fill="#232839"/>
</g>
<mask id="mask24_11139_36913" style="mask-type:luminance" maskUnits="userSpaceOnUse" x="15" y="27" width="31" height="46">
<path d="M28.9731 27.2969L29.4472 27.387L37.0149 28.7952C37.0149 28.7952 36.5929 30.4358 38.2098 32.0527C39.8267 33.6696 48.5702 64.4712 43.7385 69.3029C38.9068 74.1346 19.414 72.3565 18.8355 72.3565C18.257 72.3565 15.1797 49.9761 15.1797 49.9761L28.9731 27.2969Z" fill="white"/>
</mask>
<g mask="url(#mask24_11139_36913)">
<path d="M44.0194 27.2969H42.8672V74.1299H44.0194V27.2969Z" fill="#232738"/>
</g>
<mask id="mask25_11139_36913" style="mask-type:luminance" maskUnits="userSpaceOnUse" x="15" y="27" width="31" height="46">
<path d="M28.9731 27.2969L29.4472 27.387L37.0149 28.7952C37.0149 28.7952 36.5929 30.4358 38.2098 32.0527C39.8267 33.6696 48.5702 64.4712 43.7385 69.3029C38.9068 74.1346 19.414 72.3565 18.8355 72.3565C18.257 72.3565 15.1797 49.9761 15.1797 49.9761L28.9731 27.2969Z" fill="white"/>
</mask>
<g mask="url(#mask25_11139_36913)">
<path d="M45.1757 27.2969H44.0234V74.1299H45.1757V27.2969Z" fill="#021B79"/>
</g>
<mask id="mask26_11139_36913" style="mask-type:luminance" maskUnits="userSpaceOnUse" x="15" y="27" width="31" height="46">
<path d="M28.9731 27.2969L29.4472 27.387L37.0149 28.7952C37.0149 28.7952 36.5929 30.4358 38.2098 32.0527C39.8267 33.6696 48.5702 64.4712 43.7385 69.3029C38.9068 74.1346 19.414 72.3565 18.8355 72.3565C18.257 72.3565 15.1797 49.9761 15.1797 49.9761L28.9731 27.2969Z" fill="white"/>
</mask>
<g mask="url(#mask26_11139_36913)">
</g>
<path d="M38.7731 175.583C38.7731 175.583 33.4008 231.473 36.1036 238.405C38.811 245.337 43.2255 257.253 43.2255 257.253H38.2562L28.0997 243.763C28.0997 243.763 28.3415 243.142 27.4975 240.434C26.6535 237.727 20.5652 208.647 22.7654 194.953C23.3913 191.069 24.1641 172.349 26.075 169.182C30.902 161.178 38.7731 171.539 38.7731 175.583Z" fill="#5372E7"/>
<path d="M27.722 241.163C27.722 241.163 26.4702 240.651 25.3559 243.273C24.2416 245.896 27.3901 258.883 27.3901 258.883L29.9505 258.963C29.9505 258.963 28.2104 249.329 28.7983 249.329C29.3863 249.329 32.2407 259.134 33.6822 259.528C35.1236 259.921 44.5974 260.542 46.0721 259.068C47.5467 257.593 42.2408 254.573 42.2408 254.573C42.2408 254.573 37.4802 255.208 36.8591 254.587C36.2284 253.961 27.722 241.163 27.722 241.163Z" fill="#0575E6"/>
<path d="M24.4059 175.583C24.4059 175.583 19.0336 231.473 21.7364 238.405C24.4391 245.337 28.8583 257.253 28.8583 257.253H23.8891L13.7325 243.763C13.7325 243.763 13.9743 243.142 13.1303 240.434C12.2863 237.727 6.19806 208.647 8.39817 194.953C9.01933 191.069 9.79696 172.349 11.7078 169.182C16.5348 161.178 24.4059 171.539 24.4059 175.583Z" fill="#83C1FF"/>
<g opacity="0.68">
<path d="M9.59541 181.439C12.2697 180.97 17.8364 179.993 24.0858 178.94C23.8345 181.705 23.4552 185.977 23.0521 190.998C20.0981 191.439 13.4835 192.241 8.76562 191.416C8.99322 188.703 9.25875 185.033 9.59541 181.439Z" fill="#4C72FF"/>
</g>
<g opacity="0.68">
<path d="M24.309 178.062C29.4347 177.214 34.6173 176.389 38.7473 175.796C38.6335 176.981 38.0787 182.908 37.4433 190.699C36.0256 191.102 34.2332 191.505 32.0141 191.827C28.4437 192.344 25.3285 192.074 23.1094 191.671C23.4223 188.1 23.7922 182.719 24.309 178.062Z" fill="#4C72FF"/>
</g>
<path d="M4.67969 187.209C4.67969 175.691 4.67969 158.778 4.67969 153.813C4.67969 145.022 8.06047 121.912 13.4707 110.413C18.8809 98.9147 41.1997 110.413 41.1997 110.413C41.1997 110.413 46.2922 121.594 47.6483 137.824L48.9475 188.138C32.8639 190.637 20.2844 190.831 4.67969 187.209Z" fill="#111216"/>
<path d="M35.7436 62.7373C36.5117 63.5054 46.9718 74.0271 46.1325 82.5098C44.876 95.1842 41.3671 108.025 42.5857 113.089C44.6152 121.543 14.1644 122.814 12.742 112.126C12.2346 108.323 13.2256 98.8163 12.3294 90.215C10.9069 76.5544 7.65893 63.1071 8.26112 62.7373C21.5898 54.5627 33.6383 60.6367 35.7436 62.7373Z" fill="#2D55EA"/>
<path d="M3.74219 71.737C6.06558 62.6094 8.25622 62.7374 8.25622 62.7374C8.25622 62.7374 10.1576 72.0879 11.7129 80.5517C10.7456 80.2861 9.79725 79.8878 8.87263 79.3378C6.04188 77.6545 4.53878 74.5488 3.74219 71.737Z" fill="#6AAFF4"/>
<path d="M13.347 241.163C13.347 241.163 12.0952 240.651 10.9809 243.273C9.86661 245.896 13.015 258.883 13.015 258.883L15.5755 258.963C15.5755 258.963 13.8354 249.329 14.4233 249.329C15.0113 249.329 17.8657 259.134 19.3072 259.528C20.7486 259.921 30.2224 260.542 31.6971 259.068C33.1717 257.593 27.8658 254.573 27.8658 254.573C27.8658 254.573 23.1052 255.208 22.4841 254.587C21.8534 253.961 13.347 241.163 13.347 241.163Z" fill="#73ADE8"/>
<path d="M33.4894 44.5436L34.6511 58.3133C34.6511 58.3133 39.2884 74.6577 35.5663 76.0185C31.8441 77.3794 26.4766 58.944 26.4766 58.944V41.3193L33.4894 44.5436Z" fill="#83C1FF"/>
<g opacity="0.68">
<path d="M34.2023 53.055C31.6561 52.8748 28.7115 50.5704 26.4688 47.3745V41.3242L33.4864 44.5485L34.2023 53.055Z" fill="#4C72FF"/>
</g>
<path d="M33.4824 28.6163C33.4824 28.6163 37.5649 26.8003 38.9258 34.9701C40.2866 43.1399 39.2529 50.774 35.2178 51.3761C31.1827 51.9831 25.616 45.2547 23.6482 39.8113C21.6852 34.3632 30.2533 27.7534 33.4824 28.6163Z" fill="#83C1FF"/>
<path d="M67.9042 108.977C67.7051 109.081 67.5059 108.839 67.6482 108.664C68.7672 107.322 70.6259 104.838 69.0754 104.838C67.5106 104.838 65.9269 106.81 64.1156 107.488C63.4755 107.73 30.5212 108.83 27.7663 103.216C26.8038 101.258 23.9683 94.6336 22.6264 87.7061C16.4481 87.891 13.1574 88.6544 7.71875 91.6037C9.71972 101.95 12.6121 110.76 16.4196 114.572C21.2039 119.356 48.8476 115.71 55.3626 114.776C56.3204 114.638 57.2877 114.553 58.255 114.515C61.0952 114.411 67.0365 114.198 68.2883 114.198C69.9478 114.198 73.8786 105.776 73.8786 105.776L67.9042 108.977Z" fill="#83C1FF"/>
<path d="M10.0268 61.2281C10.0268 61.2281 5.35156 60.6449 5.35156 78.1273C5.35156 83.3526 5.85892 88.2175 6.71241 92.6272C9.53842 92.869 20.6765 93.1108 24.5409 88.2838C24.5409 88.2791 18.116 59.3078 10.0268 61.2281Z" fill="#2D55EA"/>
<mask id="mask27_11139_36913" style="mask-type:luminance" maskUnits="userSpaceOnUse" x="0" y="23" width="38" height="58">
<path d="M29.5104 23.3813C30.2027 23.6421 30.9139 23.8412 31.6441 23.955C33.2136 24.2063 35.8357 25.1309 37.4337 28.4406C39.8282 33.4051 22.0186 49.7969 26.471 55.6765C30.9234 61.5608 25.921 68.953 19.3918 73.0735C12.8626 77.194 21.6156 75.9801 13.7113 79.8872C5.80703 83.7943 -4.21676 69.285 1.87622 58.7016C7.96921 48.1183 13.3652 27.7578 20.8617 24.671C25.8025 22.6368 28.3487 22.9403 29.5104 23.3813Z" fill="white"/>
</mask>
<g mask="url(#mask27_11139_36913)">
<path d="M1.43838 22.6367H-0.0078125V83.7989H1.43838V22.6367Z" fill="#202A51"/>
</g>
<mask id="mask28_11139_36913" style="mask-type:luminance" maskUnits="userSpaceOnUse" x="0" y="23" width="38" height="58">
<path d="M29.5104 23.3813C30.2027 23.6421 30.9139 23.8412 31.6441 23.955C33.2136 24.2063 35.8357 25.1309 37.4337 28.4406C39.8282 33.4051 22.0186 49.7969 26.471 55.6765C30.9234 61.5608 25.921 68.953 19.3918 73.0735C12.8626 77.194 21.6156 75.9801 13.7113 79.8872C5.80703 83.7943 -4.21676 69.285 1.87622 58.7016C7.96921 48.1183 13.3652 27.7578 20.8617 24.671C25.8025 22.6368 28.3487 22.9403 29.5104 23.3813Z" fill="white"/>
</mask>
<g mask="url(#mask28_11139_36913)">
<path d="M2.89151 22.6367H1.44531V83.7989H2.89151V22.6367Z" fill="#202A50"/>
</g>
<mask id="mask29_11139_36913" style="mask-type:luminance" maskUnits="userSpaceOnUse" x="0" y="23" width="38" height="58">
<path d="M29.5104 23.3813C30.2027 23.6421 30.9139 23.8412 31.6441 23.955C33.2136 24.2063 35.8357 25.1309 37.4337 28.4406C39.8282 33.4051 22.0186 49.7969 26.471 55.6765C30.9234 61.5608 25.921 68.953 19.3918 73.0735C12.8626 77.194 21.6156 75.9801 13.7113 79.8872C5.80703 83.7943 -4.21676 69.285 1.87622 58.7016C7.96921 48.1183 13.3652 27.7578 20.8617 24.671C25.8025 22.6368 28.3487 22.9403 29.5104 23.3813Z" fill="white"/>
</mask>
<g mask="url(#mask29_11139_36913)">
<path d="M4.33682 22.6367H2.89062V83.7989H4.33682V22.6367Z" fill="#202A4F"/>
</g>
<mask id="mask30_11139_36913" style="mask-type:luminance" maskUnits="userSpaceOnUse" x="0" y="23" width="38" height="58">
<path d="M29.5104 23.3813C30.2027 23.6421 30.9139 23.8412 31.6441 23.955C33.2136 24.2063 35.8357 25.1309 37.4337 28.4406C39.8282 33.4051 22.0186 49.7969 26.471 55.6765C30.9234 61.5608 25.921 68.953 19.3918 73.0735C12.8626 77.194 21.6156 75.9801 13.7113 79.8872C5.80703 83.7943 -4.21676 69.285 1.87622 58.7016C7.96921 48.1183 13.3652 27.7578 20.8617 24.671C25.8025 22.6368 28.3487 22.9403 29.5104 23.3813Z" fill="white"/>
</mask>
<g mask="url(#mask30_11139_36913)">
<path d="M5.78213 22.6367H4.33594V83.7989H5.78213V22.6367Z" fill="#202A4E"/>
</g>
<mask id="mask31_11139_36913" style="mask-type:luminance" maskUnits="userSpaceOnUse" x="0" y="23" width="38" height="58">
<path d="M29.5104 23.3813C30.2027 23.6421 30.9139 23.8412 31.6441 23.955C33.2136 24.2063 35.8357 25.1309 37.4337 28.4406C39.8282 33.4051 22.0186 49.7969 26.471 55.6765C30.9234 61.5608 25.921 68.953 19.3918 73.0735C12.8626 77.194 21.6156 75.9801 13.7113 79.8872C5.80703 83.7943 -4.21676 69.285 1.87622 58.7016C7.96921 48.1183 13.3652 27.7578 20.8617 24.671C25.8025 22.6368 28.3487 22.9403 29.5104 23.3813Z" fill="white"/>
</mask>
<g mask="url(#mask31_11139_36913)">
<path d="M7.22745 22.6367H5.78125V83.7989H7.22745V22.6367Z" fill="#20294D"/>
</g>
<mask id="mask32_11139_36913" style="mask-type:luminance" maskUnits="userSpaceOnUse" x="0" y="23" width="38" height="58">
<path d="M29.5104 23.3813C30.2027 23.6421 30.9139 23.8412 31.6441 23.955C33.2136 24.2063 35.8357 25.1309 37.4337 28.4406C39.8282 33.4051 22.0186 49.7969 26.471 55.6765C30.9234 61.5608 25.921 68.953 19.3918 73.0735C12.8626 77.194 21.6156 75.9801 13.7113 79.8872C5.80703 83.7943 -4.21676 69.285 1.87622 58.7016C7.96921 48.1183 13.3652 27.7578 20.8617 24.671C25.8025 22.6368 28.3487 22.9403 29.5104 23.3813Z" fill="white"/>
</mask>
<g mask="url(#mask32_11139_36913)">
<path d="M8.68057 22.6367H7.23438V83.7989H8.68057V22.6367Z" fill="#212A4C"/>
</g>
<mask id="mask33_11139_36913" style="mask-type:luminance" maskUnits="userSpaceOnUse" x="0" y="23" width="38" height="58">
<path d="M29.5104 23.3813C30.2027 23.6421 30.9139 23.8412 31.6441 23.955C33.2136 24.2063 35.8357 25.1309 37.4337 28.4406C39.8282 33.4051 22.0186 49.7969 26.471 55.6765C30.9234 61.5608 25.921 68.953 19.3918 73.0735C12.8626 77.194 21.6156 75.9801 13.7113 79.8872C5.80703 83.7943 -4.21676 69.285 1.87622 58.7016C7.96921 48.1183 13.3652 27.7578 20.8617 24.671C25.8025 22.6368 28.3487 22.9403 29.5104 23.3813Z" fill="white"/>
</mask>
<g mask="url(#mask33_11139_36913)">
<path d="M10.1337 22.6367H8.6875V83.7989H10.1337V22.6367Z" fill="#212A4B"/>
</g>
<mask id="mask34_11139_36913" style="mask-type:luminance" maskUnits="userSpaceOnUse" x="0" y="23" width="38" height="58">
<path d="M29.5104 23.3813C30.2027 23.6421 30.9139 23.8412 31.6441 23.955C33.2136 24.2063 35.8357 25.1309 37.4337 28.4406C39.8282 33.4051 22.0186 49.7969 26.471 55.6765C30.9234 61.5608 25.921 68.953 19.3918 73.0735C12.8626 77.194 21.6156 75.9801 13.7113 79.8872C5.80703 83.7943 -4.21676 69.285 1.87622 58.7016C7.96921 48.1183 13.3652 27.7578 20.8617 24.671C25.8025 22.6368 28.3487 22.9403 29.5104 23.3813Z" fill="white"/>
</mask>
<g mask="url(#mask34_11139_36913)">
<path d="M11.5868 22.6367H10.1406V83.7989H11.5868V22.6367Z" fill="#212A4A"/>
</g>
<mask id="mask35_11139_36913" style="mask-type:luminance" maskUnits="userSpaceOnUse" x="0" y="23" width="38" height="58">
<path d="M29.5104 23.3813C30.2027 23.6421 30.9139 23.8412 31.6441 23.955C33.2136 24.2063 35.8357 25.1309 37.4337 28.4406C39.8282 33.4051 22.0186 49.7969 26.471 55.6765C30.9234 61.5608 25.921 68.953 19.3918 73.0735C12.8626 77.194 21.6156 75.9801 13.7113 79.8872C5.80703 83.7943 -4.21676 69.285 1.87622 58.7016C7.96921 48.1183 13.3652 27.7578 20.8617 24.671C25.8025 22.6368 28.3487 22.9403 29.5104 23.3813Z" fill="white"/>
</mask>
<g mask="url(#mask35_11139_36913)">
<path d="M13.0243 22.6367H11.5781V83.7989H13.0243V22.6367Z" fill="#212949"/>
</g>
<mask id="mask36_11139_36913" style="mask-type:luminance" maskUnits="userSpaceOnUse" x="0" y="23" width="38" height="58">
<path d="M29.5104 23.3813C30.2027 23.6421 30.9139 23.8412 31.6441 23.955C33.2136 24.2063 35.8357 25.1309 37.4337 28.4406C39.8282 33.4051 22.0186 49.7969 26.471 55.6765C30.9234 61.5608 25.921 68.953 19.3918 73.0735C12.8626 77.194 21.6156 75.9801 13.7113 79.8872C5.80703 83.7943 -4.21676 69.285 1.87622 58.7016C7.96921 48.1183 13.3652 27.7578 20.8617 24.671C25.8025 22.6368 28.3487 22.9403 29.5104 23.3813Z" fill="white"/>
</mask>
<g mask="url(#mask36_11139_36913)">
<path d="M14.4774 22.6367H13.0312V83.7989H14.4774V22.6367Z" fill="#212948"/>
</g>
<mask id="mask37_11139_36913" style="mask-type:luminance" maskUnits="userSpaceOnUse" x="0" y="23" width="38" height="58">
<path d="M29.5104 23.3813C30.2027 23.6421 30.9139 23.8412 31.6441 23.955C33.2136 24.2063 35.8357 25.1309 37.4337 28.4406C39.8282 33.4051 22.0186 49.7969 26.471 55.6765C30.9234 61.5608 25.921 68.953 19.3918 73.0735C12.8626 77.194 21.6156 75.9801 13.7113 79.8872C5.80703 83.7943 -4.21676 69.285 1.87622 58.7016C7.96921 48.1183 13.3652 27.7578 20.8617 24.671C25.8025 22.6368 28.3487 22.9403 29.5104 23.3813Z" fill="white"/>
</mask>
<g mask="url(#mask37_11139_36913)">
<path d="M15.9228 22.6367H14.4766V83.7989H15.9228V22.6367Z" fill="#212947"/>
</g>
<mask id="mask38_11139_36913" style="mask-type:luminance" maskUnits="userSpaceOnUse" x="0" y="23" width="38" height="58">
<path d="M29.5104 23.3813C30.2027 23.6421 30.9139 23.8412 31.6441 23.955C33.2136 24.2063 35.8357 25.1309 37.4337 28.4406C39.8282 33.4051 22.0186 49.7969 26.471 55.6765C30.9234 61.5608 25.921 68.953 19.3918 73.0735C12.8626 77.194 21.6156 75.9801 13.7113 79.8872C5.80703 83.7943 -4.21676 69.285 1.87622 58.7016C7.96921 48.1183 13.3652 27.7578 20.8617 24.671C25.8025 22.6368 28.3487 22.9403 29.5104 23.3813Z" fill="white"/>
</mask>
<g mask="url(#mask38_11139_36913)">
<path d="M17.3759 22.6367H15.9297V83.7989H17.3759V22.6367Z" fill="#212946"/>
</g>
<mask id="mask39_11139_36913" style="mask-type:luminance" maskUnits="userSpaceOnUse" x="0" y="23" width="38" height="58">
<path d="M29.5104 23.3813C30.2027 23.6421 30.9139 23.8412 31.6441 23.955C33.2136 24.2063 35.8357 25.1309 37.4337 28.4406C39.8282 33.4051 22.0186 49.7969 26.471 55.6765C30.9234 61.5608 25.921 68.953 19.3918 73.0735C12.8626 77.194 21.6156 75.9801 13.7113 79.8872C5.80703 83.7943 -4.21676 69.285 1.87622 58.7016C7.96921 48.1183 13.3652 27.7578 20.8617 24.671C25.8025 22.6368 28.3487 22.9403 29.5104 23.3813Z" fill="white"/>
</mask>
<g mask="url(#mask39_11139_36913)">
<path d="M18.829 22.6367H17.3828V83.7989H18.829V22.6367Z" fill="#212945"/>
</g>
<mask id="mask40_11139_36913" style="mask-type:luminance" maskUnits="userSpaceOnUse" x="0" y="23" width="38" height="58">
<path d="M29.5104 23.3813C30.2027 23.6421 30.9139 23.8412 31.6441 23.955C33.2136 24.2063 35.8357 25.1309 37.4337 28.4406C39.8282 33.4051 22.0186 49.7969 26.471 55.6765C30.9234 61.5608 25.921 68.953 19.3918 73.0735C12.8626 77.194 21.6156 75.9801 13.7113 79.8872C5.80703 83.7943 -4.21676 69.285 1.87622 58.7016C7.96921 48.1183 13.3652 27.7578 20.8617 24.671C25.8025 22.6368 28.3487 22.9403 29.5104 23.3813Z" fill="white"/>
</mask>
<g mask="url(#mask40_11139_36913)">
<path d="M20.2665 22.6367H18.8203V83.7989H20.2665V22.6367Z" fill="#222943"/>
</g>
<mask id="mask41_11139_36913" style="mask-type:luminance" maskUnits="userSpaceOnUse" x="0" y="23" width="38" height="58">
<path d="M29.5104 23.3813C30.2027 23.6421 30.9139 23.8412 31.6441 23.955C33.2136 24.2063 35.8357 25.1309 37.4337 28.4406C39.8282 33.4051 22.0186 49.7969 26.471 55.6765C30.9234 61.5608 25.921 68.953 19.3918 73.0735C12.8626 77.194 21.6156 75.9801 13.7113 79.8872C5.80703 83.7943 -4.21676 69.285 1.87622 58.7016C7.96921 48.1183 13.3652 27.7578 20.8617 24.671C25.8025 22.6368 28.3487 22.9403 29.5104 23.3813Z" fill="white"/>
</mask>
<g mask="url(#mask41_11139_36913)">
<path d="M21.7196 22.6367H20.2734V83.7989H21.7196V22.6367Z" fill="#222942"/>
</g>
<mask id="mask42_11139_36913" style="mask-type:luminance" maskUnits="userSpaceOnUse" x="0" y="23" width="38" height="58">
<path d="M29.5104 23.3813C30.2027 23.6421 30.9139 23.8412 31.6441 23.955C33.2136 24.2063 35.8357 25.1309 37.4337 28.4406C39.8282 33.4051 22.0186 49.7969 26.471 55.6765C30.9234 61.5608 25.921 68.953 19.3918 73.0735C12.8626 77.194 21.6156 75.9801 13.7113 79.8872C5.80703 83.7943 -4.21676 69.285 1.87622 58.7016C7.96921 48.1183 13.3652 27.7578 20.8617 24.671C25.8025 22.6368 28.3487 22.9403 29.5104 23.3813Z" fill="white"/>
</mask>
<g mask="url(#mask42_11139_36913)">
<path d="M23.1728 22.6367H21.7266V83.7989H23.1728V22.6367Z" fill="#222941"/>
</g>
<mask id="mask43_11139_36913" style="mask-type:luminance" maskUnits="userSpaceOnUse" x="0" y="23" width="38" height="58">
<path d="M29.5104 23.3813C30.2027 23.6421 30.9139 23.8412 31.6441 23.955C33.2136 24.2063 35.8357 25.1309 37.4337 28.4406C39.8282 33.4051 22.0186 49.7969 26.471 55.6765C30.9234 61.5608 25.921 68.953 19.3918 73.0735C12.8626 77.194 21.6156 75.9801 13.7113 79.8872C5.80703 83.7943 -4.21676 69.285 1.87622 58.7016C7.96921 48.1183 13.3652 27.7578 20.8617 24.671C25.8025 22.6368 28.3487 22.9403 29.5104 23.3813Z" fill="white"/>
</mask>
<g mask="url(#mask43_11139_36913)">
<path d="M24.6181 22.6367H23.1719V83.7989H24.6181V22.6367Z" fill="#222840"/>
</g>
<mask id="mask44_11139_36913" style="mask-type:luminance" maskUnits="userSpaceOnUse" x="0" y="23" width="38" height="58">
<path d="M29.5104 23.3813C30.2027 23.6421 30.9139 23.8412 31.6441 23.955C33.2136 24.2063 35.8357 25.1309 37.4337 28.4406C39.8282 33.4051 22.0186 49.7969 26.471 55.6765C30.9234 61.5608 25.921 68.953 19.3918 73.0735C12.8626 77.194 21.6156 75.9801 13.7113 79.8872C5.80703 83.7943 -4.21676 69.285 1.87622 58.7016C7.96921 48.1183 13.3652 27.7578 20.8617 24.671C25.8025 22.6368 28.3487 22.9403 29.5104 23.3813Z" fill="white"/>
</mask>
<g mask="url(#mask44_11139_36913)">
<path d="M26.0634 22.6367H24.6172V83.7989H26.0634V22.6367Z" fill="#22283F"/>
</g>
<mask id="mask45_11139_36913" style="mask-type:luminance" maskUnits="userSpaceOnUse" x="0" y="23" width="38" height="58">
<path d="M29.5104 23.3813C30.2027 23.6421 30.9139 23.8412 31.6441 23.955C33.2136 24.2063 35.8357 25.1309 37.4337 28.4406C39.8282 33.4051 22.0186 49.7969 26.471 55.6765C30.9234 61.5608 25.921 68.953 19.3918 73.0735C12.8626 77.194 21.6156 75.9801 13.7113 79.8872C5.80703 83.7943 -4.21676 69.285 1.87622 58.7016C7.96921 48.1183 13.3652 27.7578 20.8617 24.671C25.8025 22.6368 28.3487 22.9403 29.5104 23.3813Z" fill="white"/>
</mask>
<g mask="url(#mask45_11139_36913)">
<path d="M27.5087 22.6367H26.0625V83.7989H27.5087V22.6367Z" fill="#22283E"/>
</g>
<mask id="mask46_11139_36913" style="mask-type:luminance" maskUnits="userSpaceOnUse" x="0" y="23" width="38" height="58">
<path d="M29.5104 23.3813C30.2027 23.6421 30.9139 23.8412 31.6441 23.955C33.2136 24.2063 35.8357 25.1309 37.4337 28.4406C39.8282 33.4051 22.0186 49.7969 26.471 55.6765C30.9234 61.5608 25.921 68.953 19.3918 73.0735C12.8626 77.194 21.6156 75.9801 13.7113 79.8872C5.80703 83.7943 -4.21676 69.285 1.87622 58.7016C7.96921 48.1183 13.3652 27.7578 20.8617 24.671C25.8025 22.6368 28.3487 22.9403 29.5104 23.3813Z" fill="white"/>
</mask>
<g mask="url(#mask46_11139_36913)">
<path d="M28.954 22.6367H27.5078V83.7989H28.954V22.6367Z" fill="#22283D"/>
</g>
<mask id="mask47_11139_36913" style="mask-type:luminance" maskUnits="userSpaceOnUse" x="0" y="23" width="38" height="58">
<path d="M29.5104 23.3813C30.2027 23.6421 30.9139 23.8412 31.6441 23.955C33.2136 24.2063 35.8357 25.1309 37.4337 28.4406C39.8282 33.4051 22.0186 49.7969 26.471 55.6765C30.9234 61.5608 25.921 68.953 19.3918 73.0735C12.8626 77.194 21.6156 75.9801 13.7113 79.8872C5.80703 83.7943 -4.21676 69.285 1.87622 58.7016C7.96921 48.1183 13.3652 27.7578 20.8617 24.671C25.8025 22.6368 28.3487 22.9403 29.5104 23.3813Z" fill="white"/>
</mask>
<g mask="url(#mask47_11139_36913)">
<path d="M30.4149 22.6367H28.9688V83.7989H30.4149V22.6367Z" fill="#22273C"/>
</g>
<mask id="mask48_11139_36913" style="mask-type:luminance" maskUnits="userSpaceOnUse" x="0" y="23" width="38" height="58">
<path d="M29.5104 23.3813C30.2027 23.6421 30.9139 23.8412 31.6441 23.955C33.2136 24.2063 35.8357 25.1309 37.4337 28.4406C39.8282 33.4051 22.0186 49.7969 26.471 55.6765C30.9234 61.5608 25.921 68.953 19.3918 73.0735C12.8626 77.194 21.6156 75.9801 13.7113 79.8872C5.80703 83.7943 -4.21676 69.285 1.87622 58.7016C7.96921 48.1183 13.3652 27.7578 20.8617 24.671C25.8025 22.6368 28.3487 22.9403 29.5104 23.3813Z" fill="white"/>
</mask>
<g mask="url(#mask48_11139_36913)">
<path d="M31.8603 22.6367H30.4141V83.7989H31.8603V22.6367Z" fill="#23283B"/>
</g>
<mask id="mask49_11139_36913" style="mask-type:luminance" maskUnits="userSpaceOnUse" x="0" y="23" width="38" height="58">
<path d="M29.5104 23.3813C30.2027 23.6421 30.9139 23.8412 31.6441 23.955C33.2136 24.2063 35.8357 25.1309 37.4337 28.4406C39.8282 33.4051 22.0186 49.7969 26.471 55.6765C30.9234 61.5608 25.921 68.953 19.3918 73.0735C12.8626 77.194 21.6156 75.9801 13.7113 79.8872C5.80703 83.7943 -4.21676 69.285 1.87622 58.7016C7.96921 48.1183 13.3652 27.7578 20.8617 24.671C25.8025 22.6368 28.3487 22.9403 29.5104 23.3813Z" fill="white"/>
</mask>
<g mask="url(#mask49_11139_36913)">
<path d="M33.3134 22.6367H31.8672V83.7989H33.3134V22.6367Z" fill="#23283A"/>
</g>
<mask id="mask50_11139_36913" style="mask-type:luminance" maskUnits="userSpaceOnUse" x="0" y="23" width="38" height="58">
<path d="M29.5104 23.3813C30.2027 23.6421 30.9139 23.8412 31.6441 23.955C33.2136 24.2063 35.8357 25.1309 37.4337 28.4406C39.8282 33.4051 22.0186 49.7969 26.471 55.6765C30.9234 61.5608 25.921 68.953 19.3918 73.0735C12.8626 77.194 21.6156 75.9801 13.7113 79.8872C5.80703 83.7943 -4.21676 69.285 1.87622 58.7016C7.96921 48.1183 13.3652 27.7578 20.8617 24.671C25.8025 22.6368 28.3487 22.9403 29.5104 23.3813Z" fill="white"/>
</mask>
<g mask="url(#mask50_11139_36913)">
<path d="M34.7509 22.6367H33.3047V83.7989H34.7509V22.6367Z" fill="#232839"/>
</g>
<mask id="mask51_11139_36913" style="mask-type:luminance" maskUnits="userSpaceOnUse" x="0" y="23" width="38" height="58">
<path d="M29.5104 23.3813C30.2027 23.6421 30.9139 23.8412 31.6441 23.955C33.2136 24.2063 35.8357 25.1309 37.4337 28.4406C39.8282 33.4051 22.0186 49.7969 26.471 55.6765C30.9234 61.5608 25.921 68.953 19.3918 73.0735C12.8626 77.194 21.6156 75.9801 13.7113 79.8872C5.80703 83.7943 -4.21676 69.285 1.87622 58.7016C7.96921 48.1183 13.3652 27.7578 20.8617 24.671C25.8025 22.6368 28.3487 22.9403 29.5104 23.3813Z" fill="white"/>
</mask>
<g mask="url(#mask51_11139_36913)">
<path d="M36.204 22.6367H34.7578V83.7989H36.204V22.6367Z" fill="#232738"/>
</g>
<mask id="mask52_11139_36913" style="mask-type:luminance" maskUnits="userSpaceOnUse" x="0" y="23" width="38" height="58">
<path d="M29.5104 23.3813C30.2027 23.6421 30.9139 23.8412 31.6441 23.955C33.2136 24.2063 35.8357 25.1309 37.4337 28.4406C39.8282 33.4051 22.0186 49.7969 26.471 55.6765C30.9234 61.5608 25.921 68.953 19.3918 73.0735C12.8626 77.194 21.6156 75.9801 13.7113 79.8872C5.80703 83.7943 -4.21676 69.285 1.87622 58.7016C7.96921 48.1183 13.3652 27.7578 20.8617 24.671C25.8025 22.6368 28.3487 22.9403 29.5104 23.3813Z" fill="white"/>
</mask>
<g mask="url(#mask52_11139_36913)">
<path d="M37.6571 22.6367H36.2109V83.7989H37.6571V22.6367Z" fill="#021B79"/>
</g>
<mask id="mask53_11139_36913" style="mask-type:luminance" maskUnits="userSpaceOnUse" x="0" y="23" width="38" height="58">
<path d="M29.5104 23.3813C30.2027 23.6421 30.9139 23.8412 31.6441 23.955C33.2136 24.2063 35.8357 25.1309 37.4337 28.4406C39.8282 33.4051 22.0186 49.7969 26.471 55.6765C30.9234 61.5608 25.921 68.953 19.3918 73.0735C12.8626 77.194 21.6156 75.9801 13.7113 79.8872C5.80703 83.7943 -4.21676 69.285 1.87622 58.7016C7.96921 48.1183 13.3652 27.7578 20.8617 24.671C25.8025 22.6368 28.3487 22.9403 29.5104 23.3813Z" fill="white"/>
</mask>
<g mask="url(#mask53_11139_36913)">
</g>
</svg>
