<svg width="410" height="260" viewBox="0 0 410 260" fill="none" xmlns="http://www.w3.org/2000/svg">
<path d="M348.684 67.4521H81.4042C70.8823 67.4521 62.6864 76.5805 63.815 87.0414L75.1074 191.679C76.0768 200.662 83.6605 207.471 92.6962 207.471H129.847L132.765 242.421L167.715 207.471H337.392C346.428 207.471 354.012 200.662 354.981 191.679L366.273 87.0414C367.402 76.5802 359.206 67.4521 348.684 67.4521Z" fill="#DBDBDB"/>
<path d="M363.498 238.508C375.367 226.639 375.367 207.395 363.497 195.526C351.628 183.656 332.384 183.657 320.514 195.526C308.645 207.396 308.646 226.64 320.515 238.509C332.385 250.378 351.629 250.378 363.498 238.508Z" fill="#9ECEFF"/>
<path d="M360.925 257.387C343.843 257.387 329.945 243.489 329.945 226.407C329.945 209.325 343.843 195.427 360.925 195.427C378.008 195.427 391.905 209.325 391.905 226.407C391.905 243.489 378.008 257.387 360.925 257.387ZM360.925 198.278C345.415 198.278 332.796 210.896 332.796 226.407C332.796 241.917 345.415 254.536 360.925 254.536C376.436 254.536 389.054 241.918 389.054 226.407C389.054 210.896 376.436 198.278 360.925 198.278Z" fill="#021B79"/>
<path d="M46.5169 21.0361C46.5169 22.7816 45.1033 24.1949 43.3619 24.1949C41.6168 24.1949 40.2031 22.7816 40.2031 21.0361C40.2031 20.915 40.2112 20.7979 40.2226 20.6808C41.7531 19.8257 43.3229 19.0292 44.9199 18.2913C45.8732 18.834 46.5169 19.8607 46.5169 21.0361ZM52.8348 21.0371C52.8348 19.2929 54.2487 17.8789 55.9929 17.8789C57.7371 17.8789 59.1511 19.2929 59.1511 21.0371C59.1511 22.7813 57.7371 24.1952 55.9929 24.1952C54.249 24.1952 52.8348 22.7809 52.8348 21.0371ZM65.4674 21.0371C65.4674 19.2929 66.8813 17.8789 68.6255 17.8789C70.3697 17.8789 71.7837 19.2929 71.7837 21.0371C71.7837 22.7813 70.3697 24.1952 68.6255 24.1952C66.8813 24.1952 65.4674 22.7809 65.4674 21.0371Z" fill="#0575E6"/>
<path d="M31.4549 37.65C33.1524 37.2491 34.2035 35.5481 33.8027 33.8506C33.4019 32.1531 31.7008 31.1019 30.0033 31.5027C28.3058 31.9036 27.2546 33.6046 27.6555 35.3021C28.0563 36.9997 29.7574 38.0508 31.4549 37.65Z" fill="#0575E6"/>
<path d="M40.2024 34.579C40.2024 32.8348 41.6163 31.4209 43.3605 31.4209C45.1047 31.4209 46.5187 32.8348 46.5187 34.579C46.5187 36.3232 45.1047 37.7372 43.3605 37.7372C41.6163 37.7372 40.2024 36.3232 40.2024 34.579ZM52.8347 34.579C52.8347 32.8348 54.2486 31.4209 55.9928 31.4209C57.737 31.4209 59.151 32.8348 59.151 34.579C59.151 36.3232 57.737 37.7372 55.9928 37.7372C54.2489 37.7372 52.8347 36.3232 52.8347 34.579ZM65.4673 34.579C65.4673 32.8348 66.8812 31.4209 68.6254 31.4209C70.3696 31.4209 71.7836 32.8348 71.7836 34.579C71.7836 36.3232 70.3696 37.7372 68.6254 37.7372C66.8812 37.7372 65.4673 36.3232 65.4673 34.579ZM14.9375 48.1209C14.9375 46.3767 16.3514 44.9628 18.0956 44.9628C19.8398 44.9628 21.2538 46.3767 21.2538 48.1209C21.2538 49.8651 19.8398 51.2791 18.0956 51.2791C16.3514 51.2791 14.9375 49.8651 14.9375 48.1209Z" fill="#0575E6"/>
<path d="M32.9573 50.3536C34.1906 49.1203 34.1906 47.1207 32.9572 45.8873C31.7239 44.654 29.7242 44.6541 28.4909 45.8874C27.2576 47.1208 27.2576 49.1204 28.491 50.3537C29.7244 51.587 31.724 51.587 32.9573 50.3536Z" fill="#0575E6"/>
<path d="M40.1991 48.121C40.1991 46.3768 41.6131 44.9629 43.3573 44.9629C45.1015 44.9629 46.5154 46.3768 46.5154 48.121C46.5154 49.8652 45.1015 51.2792 43.3573 51.2792C41.6131 51.2792 40.1991 49.8652 40.1991 48.121ZM52.8314 48.121C52.8314 46.3768 54.2454 44.9629 55.9896 44.9629C57.7338 44.9629 59.1477 46.3768 59.1477 48.121C59.1477 49.8652 57.7338 51.2792 55.9896 51.2792C54.2457 51.2792 52.8314 49.8652 52.8314 48.121ZM65.464 48.121C65.464 46.3768 66.878 44.9629 68.6222 44.9629C70.3664 44.9629 71.7803 46.3768 71.7803 48.121C71.7803 49.8652 70.3664 51.2792 68.6222 51.2792C66.878 51.2792 65.464 49.8652 65.464 48.121ZM8.6161 61.6635C8.6161 63.1707 7.56183 64.4279 6.15625 64.7442C6.61693 62.9598 7.14391 61.2028 7.73749 59.4769C8.28399 60.0429 8.6161 60.8162 8.6161 61.6635ZM14.9343 61.6629C14.9343 59.9187 16.3482 58.5048 18.0924 58.5048C19.8366 58.5048 21.2506 59.9187 21.2506 61.6629C21.2506 63.4071 19.8366 64.8211 18.0924 64.8211C16.3482 64.8211 14.9343 63.4071 14.9343 61.6629Z" fill="#0575E6"/>
<path d="M33.8658 62.0504C34.079 60.3193 32.8484 58.7432 31.1173 58.53C29.3861 58.3169 27.81 59.5475 27.5969 61.2786C27.3837 63.0097 28.6143 64.5859 30.3454 64.799C32.0765 65.0121 33.6527 63.7816 33.8658 62.0504Z" fill="#0575E6"/>
<path d="M40.2025 61.6625C40.2025 59.9183 41.6165 58.5044 43.3607 58.5044C45.1049 58.5044 46.5188 59.9183 46.5188 61.6625C46.5188 63.4067 45.1049 64.8207 43.3607 64.8207C41.6165 64.8207 40.2025 63.4067 40.2025 61.6625ZM52.8348 61.6625C52.8348 59.9183 54.2487 58.5044 55.993 58.5044C57.7371 58.5044 59.1511 59.9183 59.1511 61.6625C59.1511 63.4067 57.7371 64.8207 55.993 64.8207C54.2491 64.8207 52.8348 63.4067 52.8348 61.6625ZM65.4674 61.6625C65.4674 59.9183 66.8813 58.5044 68.6255 58.5044C70.3697 58.5044 71.7837 59.9183 71.7837 61.6625C71.7837 63.4067 70.3697 64.8207 68.6255 64.8207C66.8813 64.8207 65.4674 63.4067 65.4674 61.6625ZM8.61948 75.2041C8.61948 76.9495 7.20585 78.3629 5.46443 78.3629C4.96441 78.3629 4.48824 78.2458 4.07031 78.0388C4.19145 76.0514 4.39437 74.0835 4.67536 72.1429C4.9294 72.0803 5.19088 72.0453 5.46443 72.0453C7.20585 72.0453 8.61948 73.4587 8.61948 75.2041ZM14.9376 75.2044C14.9376 73.4602 16.3516 72.0463 18.0958 72.0463C19.84 72.0463 21.2539 73.4602 21.2539 75.2044C21.2539 76.9486 19.84 78.3626 18.0958 78.3626C16.3516 78.3626 14.9376 76.9486 14.9376 75.2044ZM27.5699 75.2044C27.5699 73.4602 28.9839 72.0463 30.7281 72.0463C32.4723 72.0463 33.8862 73.4602 33.8862 75.2044C33.8862 76.9486 32.4723 78.3626 30.7281 78.3626C28.9839 78.3626 27.5699 76.9486 27.5699 75.2044ZM40.2025 75.2044C40.2025 73.4602 41.6165 72.0463 43.3607 72.0463C45.1049 72.0463 46.5188 73.4602 46.5188 75.2044C46.5188 76.9486 45.1049 78.3626 43.3607 78.3626C41.6165 78.3626 40.2025 76.9486 40.2025 75.2044ZM52.8348 75.2044C52.8348 73.4602 54.2487 72.0463 55.993 72.0463C57.7371 72.0463 59.1511 73.4602 59.1511 75.2044C59.1511 76.9486 57.7371 78.3626 55.993 78.3626C54.2491 78.3626 52.8348 76.9486 52.8348 75.2044ZM65.4674 75.2044C65.4674 73.4602 66.8813 72.0463 68.6255 72.0463C70.3697 72.0463 71.7837 73.4602 71.7837 75.2044C71.7837 76.9486 70.3697 78.3626 68.6255 78.3626C66.8813 78.3626 65.4674 76.9486 65.4674 75.2044Z" fill="#0575E6"/>
<path d="M80.4316 24.1952C82.1758 24.1952 83.5897 22.7813 83.5897 21.0371C83.5897 19.2929 82.1758 17.8789 80.4316 17.8789C78.6874 17.8789 77.2734 19.2929 77.2734 21.0371C77.2734 22.7813 78.6874 24.1952 80.4316 24.1952Z" fill="#0575E6"/>
<path d="M89.8984 21.0371C89.8984 19.2929 91.3124 17.8789 93.0566 17.8789C94.8008 17.8789 96.2147 19.2929 96.2147 21.0371C96.2147 22.7813 94.8008 24.1952 93.0566 24.1952C91.3124 24.1952 89.8984 22.7809 89.8984 21.0371ZM102.531 21.0371C102.531 19.2929 103.945 17.8789 105.689 17.8789C107.433 17.8789 108.847 19.2929 108.847 21.0371C108.847 22.7813 107.433 24.1952 105.689 24.1952C103.945 24.1952 102.531 22.7809 102.531 21.0371Z" fill="#0575E6"/>
<path d="M81.158 37.6475C82.8555 37.2467 83.9067 35.5456 83.5058 33.8481C83.105 32.1506 81.4039 31.0995 79.7064 31.5003C78.0089 31.9011 76.9578 33.6022 77.3586 35.2997C77.7594 36.9972 79.4605 38.0484 81.158 37.6475Z" fill="#0575E6"/>
<path d="M89.8984 34.579C89.8984 32.8348 91.3124 31.4209 93.0566 31.4209C94.8008 31.4209 96.2147 32.8348 96.2147 34.579C96.2147 36.3232 94.8008 37.7372 93.0566 37.7372C91.3124 37.7372 89.8984 36.3232 89.8984 34.579ZM102.531 34.579C102.531 32.8348 103.945 31.4209 105.689 31.4209C107.433 31.4209 108.847 32.8348 108.847 34.579C108.847 36.3232 107.433 37.7372 105.689 37.7372C103.945 37.7372 102.531 36.3232 102.531 34.579ZM115.163 34.579C115.163 32.8348 116.577 31.4209 118.321 31.4209C120.066 31.4209 121.48 32.8348 121.48 34.579C121.48 36.3232 120.066 37.7372 118.321 37.7372C116.577 37.7372 115.163 36.3232 115.163 34.579Z" fill="#0575E6"/>
<path d="M82.6604 50.3541C83.8937 49.1208 83.8937 47.1211 82.6603 45.8878C81.427 44.6545 79.4274 44.6546 78.194 45.8879C76.9607 47.1213 76.9608 49.1209 78.1941 50.3542C79.4275 51.5875 81.4271 51.5875 82.6604 50.3541Z" fill="#0575E6"/>
<path d="M89.8984 48.121C89.8984 46.3768 91.3124 44.9629 93.0566 44.9629C94.8008 44.9629 96.2147 46.3768 96.2147 48.121C96.2147 49.8652 94.8008 51.2792 93.0566 51.2792C91.3124 51.2792 89.8984 49.8652 89.8984 48.121ZM102.531 48.121C102.531 46.3768 103.945 44.9629 105.689 44.9629C107.433 44.9629 108.847 46.3768 108.847 48.121C108.847 49.8652 107.433 51.2792 105.689 51.2792C103.945 51.2792 102.531 49.8652 102.531 48.121ZM115.163 48.121C115.163 46.3768 116.577 44.9629 118.321 44.9629C120.066 44.9629 121.48 46.3768 121.48 48.121C121.48 49.8652 120.066 51.2792 118.321 51.2792C116.577 51.2792 115.163 49.8652 115.163 48.121Z" fill="#0575E6"/>
<path d="M132.171 51.0361C133.782 50.3686 134.547 48.5212 133.88 46.9098C133.213 45.2984 131.365 44.5331 129.754 45.2006C128.142 45.8681 127.377 47.7155 128.045 49.3269C128.712 50.9384 130.559 51.7036 132.171 51.0361Z" fill="#0575E6"/>
<path d="M83.5611 62.0509C83.7743 60.3198 82.5437 58.7437 80.8126 58.5305C79.0814 58.3174 77.5053 59.548 77.2922 61.2791C77.079 63.0102 78.3096 64.5864 80.0407 64.7995C81.7719 65.0126 83.348 63.7821 83.5611 62.0509Z" fill="#0575E6"/>
<path d="M89.8984 61.6625C89.8984 59.9183 91.3124 58.5044 93.0566 58.5044C94.8008 58.5044 96.2147 59.9183 96.2147 61.6625C96.2147 63.4067 94.8008 64.8207 93.0566 64.8207C91.3124 64.8207 89.8984 63.4067 89.8984 61.6625ZM102.531 61.6625C102.531 59.9183 103.945 58.5044 105.689 58.5044C107.433 58.5044 108.847 59.9183 108.847 61.6625C108.847 63.4067 107.433 64.8207 105.689 64.8207C103.945 64.8207 102.531 63.4067 102.531 61.6625ZM115.163 61.6625C115.163 59.9183 116.577 58.5044 118.321 58.5044C120.066 58.5044 121.48 59.9183 121.48 61.6625C121.48 63.4067 120.066 64.8207 118.321 64.8207C116.577 64.8207 115.163 63.4067 115.163 61.6625Z" fill="#0575E6"/>
<path d="M134.077 62.1685C134.356 60.4468 133.187 58.8246 131.465 58.5452C129.744 58.2657 128.121 59.4349 127.842 61.1566C127.562 62.8782 128.732 64.5005 130.453 64.7799C132.175 65.0593 133.797 63.8902 134.077 62.1685Z" fill="#0575E6"/>
<path d="M142.894 64.7439C141.484 64.4276 140.434 63.1704 140.434 61.6632C140.434 60.8159 140.77 60.0429 141.313 59.4766C141.906 61.2022 142.433 62.9594 142.894 64.7439ZM77.271 75.2044C77.271 73.4602 78.6849 72.0463 80.4291 72.0463C82.1733 72.0463 83.5872 73.4602 83.5872 75.2044C83.5872 76.9486 82.1733 78.3626 80.4291 78.3626C78.6849 78.3626 77.271 76.9486 77.271 75.2044ZM89.9032 75.2044C89.9032 73.4602 91.3172 72.0463 93.0614 72.0463C94.8056 72.0463 96.2195 73.4602 96.2195 75.2044C96.2195 76.9486 94.8056 78.3626 93.0614 78.3626C91.3172 78.3626 89.9032 76.9486 89.9032 75.2044ZM102.536 75.2044C102.536 73.4602 103.95 72.0463 105.694 72.0463C107.438 72.0463 108.852 73.4602 108.852 75.2044C108.852 76.9486 107.438 78.3626 105.694 78.3626C103.95 78.3626 102.536 76.9486 102.536 75.2044ZM115.168 75.2044C115.168 73.4602 116.582 72.0463 118.326 72.0463C120.07 72.0463 121.484 73.4602 121.484 75.2044C121.484 76.9486 120.07 78.3626 118.326 78.3626C116.582 78.3626 115.168 76.9486 115.168 75.2044ZM127.801 75.2044C127.801 73.4602 129.215 72.0463 130.959 72.0463C132.703 72.0463 134.117 73.4602 134.117 75.2044C134.117 76.9486 132.703 78.3626 130.959 78.3626C129.215 78.3626 127.801 76.9486 127.801 75.2044ZM144.983 78.0388C144.565 78.2458 144.093 78.3629 143.593 78.3629C141.848 78.3629 140.434 76.9496 140.434 75.2041C140.434 73.4587 141.848 72.0453 143.593 72.0453C143.862 72.0453 144.128 72.0803 144.377 72.1429C144.659 74.0835 144.862 76.0514 144.983 78.0388ZM8.61948 89.5651C8.61948 91.3105 7.20585 92.7239 5.46443 92.7239C5.19119 92.7239 4.9294 92.6889 4.67536 92.6263C4.39437 90.6857 4.19145 88.7178 4.07031 86.7304C4.48824 86.5234 4.96441 86.4063 5.46443 86.4063C7.20585 86.4063 8.61948 87.82 8.61948 89.5651ZM14.9376 89.566C14.9376 87.8218 16.3516 86.4079 18.0958 86.4079C19.84 86.4079 21.2539 87.8218 21.2539 89.566C21.2539 91.3102 19.84 92.7242 18.0958 92.7242C16.3516 92.7242 14.9376 91.3099 14.9376 89.566Z" fill="#0575E6"/>
<path d="M30.7285 92.7245C32.4727 92.7245 33.8866 91.3105 33.8866 89.5664C33.8866 87.8222 32.4727 86.4082 30.7285 86.4082C28.9843 86.4082 27.5703 87.8222 27.5703 89.5664C27.5703 91.3105 28.9843 92.7245 30.7285 92.7245Z" fill="#0575E6"/>
<path d="M40.1991 89.5664C40.1991 87.8222 41.6131 86.4082 43.3573 86.4082C45.1015 86.4082 46.5154 87.8222 46.5154 89.5664C46.5154 91.3106 45.1015 92.7245 43.3573 92.7245C41.6131 92.7242 40.1991 91.3102 40.1991 89.5664ZM52.8314 89.5664C52.8314 87.8222 54.2454 86.4082 55.9896 86.4082C57.7338 86.4082 59.1477 87.8222 59.1477 89.5664C59.1477 91.3106 57.7338 92.7245 55.9896 92.7245C54.2457 92.7242 52.8314 91.3102 52.8314 89.5664ZM65.464 89.5664C65.464 87.8222 66.878 86.4082 68.6222 86.4082C70.3664 86.4082 71.7803 87.8222 71.7803 89.5664C71.7803 91.3106 70.3664 92.7245 68.6222 92.7245C66.878 92.7242 65.464 91.3102 65.464 89.5664ZM8.6161 103.107C8.6161 103.954 8.28399 104.727 7.73749 105.293C7.14391 103.571 6.61693 101.814 6.15625 100.034C7.56183 100.346 8.6161 101.603 8.6161 103.107ZM14.9343 103.108C14.9343 101.364 16.3482 99.9501 18.0924 99.9501C19.8366 99.9501 21.2506 101.364 21.2506 103.108C21.2506 104.852 19.8366 106.266 18.0924 106.266C16.3482 106.266 14.9343 104.852 14.9343 103.108Z" fill="#0575E6"/>
<path d="M30.7285 106.266C32.4727 106.266 33.8866 104.853 33.8866 103.108C33.8866 101.364 32.4727 99.9502 30.7285 99.9502C28.9843 99.9502 27.5703 101.364 27.5703 103.108C27.5703 104.853 28.9843 106.266 30.7285 106.266Z" fill="#0575E6"/>
<path d="M40.2024 103.108C40.2024 101.364 41.6163 99.9502 43.3605 99.9502C45.1047 99.9502 46.5187 101.364 46.5187 103.108C46.5187 104.853 45.1047 106.266 43.3605 106.266C41.6163 106.266 40.2024 104.853 40.2024 103.108ZM52.8347 103.108C52.8347 101.364 54.2486 99.9502 55.9928 99.9502C57.737 99.9502 59.151 101.364 59.151 103.108C59.151 104.853 57.737 106.266 55.9928 106.266C54.2489 106.266 52.8347 104.853 52.8347 103.108ZM65.4673 103.108C65.4673 101.364 66.8812 99.9502 68.6254 99.9502C70.3696 99.9502 71.7836 101.364 71.7836 103.108C71.7836 104.853 70.3696 106.266 68.6254 106.266C66.8812 106.266 65.4673 104.853 65.4673 103.108ZM14.9375 116.65C14.9375 114.906 16.3514 113.492 18.0956 113.492C19.8398 113.492 21.2538 114.906 21.2538 116.65C21.2538 118.394 19.8398 119.808 18.0956 119.808C16.3514 119.808 14.9375 118.394 14.9375 116.65Z" fill="#0575E6"/>
<path d="M30.7285 119.808C32.4727 119.808 33.8866 118.394 33.8866 116.65C33.8866 114.906 32.4727 113.492 30.7285 113.492C28.9843 113.492 27.5703 114.906 27.5703 116.65C27.5703 118.394 28.9843 119.808 30.7285 119.808Z" fill="#0575E6"/>
<path d="M40.2031 116.65C40.2031 114.906 41.6171 113.492 43.3613 113.492C45.1055 113.492 46.5194 114.906 46.5194 116.65C46.5194 118.394 45.1055 119.808 43.3613 119.808C41.6171 119.808 40.2031 118.394 40.2031 116.65ZM52.8354 116.65C52.8354 114.906 54.2494 113.492 55.9936 113.492C57.7378 113.492 59.1517 114.906 59.1517 116.65C59.1517 118.394 57.7378 119.808 55.9936 119.808C54.2497 119.808 52.8354 118.394 52.8354 116.65ZM65.468 116.65C65.468 114.906 66.882 113.492 68.6262 113.492C70.3704 113.492 71.7843 114.906 71.7843 116.65C71.7843 118.394 70.3704 119.808 68.6262 119.808C66.882 119.808 65.468 118.394 65.468 116.65Z" fill="#0575E6"/>
<path d="M32.9573 132.424C34.1906 131.191 34.1906 129.191 32.9572 127.958C31.7239 126.724 29.7242 126.724 28.4909 127.958C27.2576 129.191 27.2576 131.191 28.491 132.424C29.7244 133.657 31.724 133.657 32.9573 132.424Z" fill="#0575E6"/>
<path d="M40.2031 130.192C40.2031 128.448 41.6171 127.034 43.3613 127.034C45.1055 127.034 46.5194 128.448 46.5194 130.192C46.5194 131.936 45.1055 133.35 43.3613 133.35C41.6171 133.35 40.2031 131.936 40.2031 130.192ZM52.8354 130.192C52.8354 128.448 54.2494 127.034 55.9936 127.034C57.7378 127.034 59.1517 128.448 59.1517 130.192C59.1517 131.936 57.7378 133.35 55.9936 133.35C54.2497 133.35 52.8354 131.936 52.8354 130.192ZM65.468 130.192C65.468 128.448 66.882 127.034 68.6262 127.034C70.3704 127.034 71.7843 128.448 71.7843 130.192C71.7843 131.936 70.3704 133.35 68.6262 133.35C66.882 133.35 65.468 131.936 65.468 130.192ZM46.5176 143.733C46.5176 144.913 45.8735 145.935 44.9208 146.478C43.3238 145.74 41.754 144.944 40.2236 144.089C40.2121 143.972 40.2041 143.855 40.2041 143.733C40.2041 141.988 41.6174 140.575 43.3628 140.575C45.1042 140.575 46.5176 141.988 46.5176 143.733ZM52.8354 143.734C52.8354 141.99 54.2494 140.576 55.9936 140.576C57.7378 140.576 59.1517 141.99 59.1517 143.734C59.1517 145.478 57.7378 146.892 55.9936 146.892C54.2497 146.892 52.8354 145.478 52.8354 143.734ZM65.468 143.734C65.468 141.99 66.882 140.576 68.6262 140.576C70.3704 140.576 71.7843 141.99 71.7843 143.734C71.7843 145.478 70.3704 146.892 68.6262 146.892C66.882 146.892 65.468 145.478 65.468 143.734Z" fill="#0575E6"/>
<path d="M80.4316 92.7245C82.1758 92.7245 83.5897 91.3105 83.5897 89.5664C83.5897 87.8222 82.1758 86.4082 80.4316 86.4082C78.6874 86.4082 77.2734 87.8222 77.2734 89.5664C77.2734 91.3105 78.6874 92.7245 80.4316 92.7245Z" fill="#0575E6"/>
<path d="M89.8984 89.5664C89.8984 87.8222 91.3124 86.4082 93.0566 86.4082C94.8008 86.4082 96.2147 87.8222 96.2147 89.5664C96.2147 91.3106 94.8008 92.7245 93.0566 92.7245C91.3124 92.7242 89.8984 91.3102 89.8984 89.5664ZM102.531 89.5664C102.531 87.8222 103.945 86.4082 105.689 86.4082C107.433 86.4082 108.847 87.8222 108.847 89.5664C108.847 91.3106 107.433 92.7245 105.689 92.7245C103.945 92.7242 102.531 91.3102 102.531 89.5664ZM115.163 89.5664C115.163 87.8222 116.577 86.4082 118.321 86.4082C120.066 86.4082 121.48 87.8222 121.48 89.5664C121.48 91.3106 120.066 92.7245 118.321 92.7245C116.577 92.7245 115.163 91.3102 115.163 89.5664Z" fill="#0575E6"/>
<path d="M130.955 92.7245C132.699 92.7245 134.113 91.3105 134.113 89.5664C134.113 87.8222 132.699 86.4082 130.955 86.4082C129.211 86.4082 127.797 87.8222 127.797 89.5664C127.797 91.3105 129.211 92.7245 130.955 92.7245Z" fill="#0575E6"/>
<path d="M144.979 86.7303C144.858 88.7177 144.655 90.6856 144.373 92.6262C144.123 92.6888 143.858 92.7238 143.588 92.7238C141.843 92.7238 140.43 91.3105 140.43 89.565C140.43 87.8196 141.843 86.4062 143.588 86.4062C144.088 86.4063 144.561 86.5234 144.979 86.7303Z" fill="#0575E6"/>
<path d="M80.4316 106.266C82.1758 106.266 83.5897 104.853 83.5897 103.108C83.5897 101.364 82.1758 99.9502 80.4316 99.9502C78.6874 99.9502 77.2734 101.364 77.2734 103.108C77.2734 104.853 78.6874 106.266 80.4316 106.266Z" fill="#0575E6"/>
<path d="M89.8984 103.108C89.8984 101.364 91.3124 99.9502 93.0566 99.9502C94.8008 99.9502 96.2147 101.364 96.2147 103.108C96.2147 104.853 94.8008 106.266 93.0566 106.266C91.3124 106.266 89.8984 104.853 89.8984 103.108ZM102.531 103.108C102.531 101.364 103.945 99.9502 105.689 99.9502C107.433 99.9502 108.847 101.364 108.847 103.108C108.847 104.853 107.433 106.266 105.689 106.266C103.945 106.266 102.531 104.853 102.531 103.108ZM115.163 103.108C115.163 101.364 116.577 99.9502 118.321 99.9502C120.066 99.9502 121.48 101.364 121.48 103.108C121.48 104.853 120.066 106.266 118.321 106.266C116.577 106.266 115.163 104.853 115.163 103.108Z" fill="#0575E6"/>
<path d="M130.955 106.266C132.699 106.266 134.113 104.853 134.113 103.108C134.113 101.364 132.699 99.9502 130.955 99.9502C129.211 99.9502 127.797 101.364 127.797 103.108C127.797 104.853 129.211 106.266 130.955 106.266Z" fill="#0575E6"/>
<path d="M142.89 100.034C142.429 101.814 141.902 103.571 141.308 105.293C140.766 104.727 140.43 103.954 140.43 103.107C140.43 101.603 141.48 100.346 142.89 100.034Z" fill="#0575E6"/>
<path d="M80.4316 119.808C82.1758 119.808 83.5897 118.394 83.5897 116.65C83.5897 114.906 82.1758 113.492 80.4316 113.492C78.6874 113.492 77.2734 114.906 77.2734 116.65C77.2734 118.394 78.6874 119.808 80.4316 119.808Z" fill="#0575E6"/>
<path d="M89.8984 116.65C89.8984 114.906 91.3124 113.492 93.0566 113.492C94.8008 113.492 96.2147 114.906 96.2147 116.65C96.2147 118.394 94.8008 119.808 93.0566 119.808C91.3124 119.808 89.8984 118.394 89.8984 116.65ZM102.531 116.65C102.531 114.906 103.945 113.492 105.689 113.492C107.433 113.492 108.847 114.906 108.847 116.65C108.847 118.394 107.433 119.808 105.689 119.808C103.945 119.808 102.531 118.394 102.531 116.65ZM115.163 116.65C115.163 114.906 116.577 113.492 118.321 113.492C120.066 113.492 121.48 114.906 121.48 116.65C121.48 118.394 120.066 119.808 118.321 119.808C116.577 119.808 115.163 118.394 115.163 116.65Z" fill="#0575E6"/>
<path d="M130.955 119.808C132.699 119.808 134.113 118.394 134.113 116.65C134.113 114.906 132.699 113.492 130.955 113.492C129.211 113.492 127.797 114.906 127.797 116.65C127.797 118.394 129.211 119.808 130.955 119.808Z" fill="#0575E6"/>
<path d="M82.6604 132.424C83.8937 131.191 83.8937 129.191 82.6603 127.958C81.427 126.725 79.4274 126.725 78.194 127.958C76.9607 129.192 76.9608 131.191 78.1941 132.425C79.4275 133.658 81.4271 133.658 82.6604 132.424Z" fill="#0575E6"/>
<path d="M89.8984 130.192C89.8984 128.448 91.3124 127.034 93.0566 127.034C94.8008 127.034 96.2147 128.448 96.2147 130.192C96.2147 131.936 94.8008 133.35 93.0566 133.35C91.3124 133.35 89.8984 131.936 89.8984 130.192ZM102.531 130.192C102.531 128.448 103.945 127.034 105.689 127.034C107.433 127.034 108.847 128.448 108.847 130.192C108.847 131.936 107.433 133.35 105.689 133.35C103.945 133.35 102.531 131.936 102.531 130.192ZM115.163 130.192C115.163 128.448 116.577 127.034 118.321 127.034C120.066 127.034 121.48 128.448 121.48 130.192C121.48 131.936 120.066 133.35 118.321 133.35C116.577 133.35 115.163 131.936 115.163 130.192Z" fill="#0575E6"/>
<path d="M83.5611 144.123C83.7743 142.392 82.5437 140.815 80.8126 140.602C79.0814 140.389 77.5053 141.62 77.2922 143.351C77.079 145.082 78.3096 146.658 80.0407 146.871C81.7718 147.084 83.348 145.854 83.5611 144.123Z" fill="#0575E6"/>
<path d="M89.8984 143.734C89.8984 141.99 91.3124 140.576 93.0566 140.576C94.8008 140.576 96.2147 141.99 96.2147 143.734C96.2147 145.478 94.8008 146.892 93.0566 146.892C91.3124 146.892 89.8984 145.478 89.8984 143.734ZM108.849 143.733C108.849 143.855 108.841 143.972 108.829 144.089C107.295 144.944 105.729 145.74 104.128 146.478C103.175 145.936 102.531 144.913 102.531 143.733C102.531 141.988 103.944 140.575 105.69 140.575C107.432 140.575 108.849 141.988 108.849 143.733Z" fill="#0575E6"/>
<path d="M99.0151 85.0736C119.423 85.0736 135.968 68.5294 135.968 48.121C135.968 27.7127 119.423 11.1685 99.0151 11.1685C78.6067 11.1685 62.0625 27.7127 62.0625 48.121C62.0625 68.5294 78.6067 85.0736 99.0151 85.0736Z" fill="#9ECEFF"/>
<path d="M71.7873 99.2543C46.5832 99.2543 26.0781 78.7493 26.0781 53.5451C26.0781 28.341 46.5832 7.83594 71.7873 7.83594C96.9915 7.83594 117.497 28.341 117.497 53.5451C117.497 78.7493 96.9915 99.2543 71.7873 99.2543ZM71.7873 10.6868C48.1551 10.6868 28.9289 29.9129 28.9289 53.5451C28.9289 77.1773 48.1554 96.4035 71.7873 96.4035C95.4192 96.4035 114.646 77.1773 114.646 53.5451C114.646 29.9129 95.4192 10.6868 71.7873 10.6868Z" fill="#021B79"/>
<path d="M363.316 41.4143C364.481 21.6977 379.502 7.60776 393.693 5.80191C400.081 4.98898 409.568 7.69017 409.759 16.6463C410.138 34.3888 384.95 24.6895 363.316 41.4143ZM346.149 31.7155C339.007 22.1971 340.426 9.87026 346.247 3.51369C348.867 0.652645 354.28 -1.80008 357.856 2.24287C364.939 10.2519 349.582 15.602 346.149 31.7155ZM372.06 59.7302C380.363 51.2053 392.761 50.705 399.94 55.4757C403.17 57.6229 406.429 62.5931 402.986 66.7498C396.165 74.9841 388.511 60.6361 372.06 59.7302Z" fill="#6EB6FF"/>
<path d="M182.876 233.944C182.474 233.944 182.071 233.79 181.764 233.483L173.93 225.65L181.896 217.683C182.511 217.069 183.507 217.069 184.121 217.683C184.736 218.298 184.736 219.294 184.121 219.909L178.381 225.65L183.989 231.258C184.603 231.873 184.603 232.869 183.989 233.483C183.681 233.79 183.279 233.944 182.876 233.944ZM194.064 233.944C193.661 233.944 193.258 233.79 192.951 233.483L185.117 225.65L193.084 217.683C193.698 217.069 194.694 217.069 195.309 217.683C195.923 218.298 195.923 219.294 195.309 219.909L189.568 225.65L195.176 231.258C195.791 231.873 195.791 232.869 195.176 233.483C194.869 233.79 194.466 233.944 194.064 233.944ZM205.252 233.944C204.849 233.944 204.446 233.79 204.139 233.483L196.304 225.65L204.271 217.683C204.886 217.069 205.881 217.069 206.496 217.683C207.111 218.298 207.111 219.294 206.496 219.909L200.755 225.65L206.364 231.258C206.979 231.872 206.979 232.869 206.364 233.483C206.057 233.79 205.654 233.944 205.252 233.944ZM216.439 233.944C216.036 233.944 215.634 233.79 215.326 233.483L207.492 225.65L215.459 217.683C216.074 217.069 217.069 217.069 217.684 217.683C218.299 218.298 218.299 219.294 217.684 219.909L211.943 225.65L217.551 231.258C218.166 231.873 218.166 232.869 217.551 233.483C217.244 233.79 216.841 233.944 216.439 233.944ZM227.626 233.944C227.224 233.944 226.821 233.79 226.514 233.483L218.68 225.65L226.646 217.683C227.261 217.069 228.257 217.069 228.871 217.683C229.486 218.298 229.486 219.294 228.871 219.909L223.131 225.65L228.739 231.258C229.353 231.873 229.353 232.869 228.739 233.483C228.431 233.79 228.029 233.944 227.626 233.944ZM238.814 233.944C238.411 233.944 238.008 233.79 237.701 233.483L229.867 225.65L237.834 217.683C238.448 217.069 239.444 217.069 240.059 217.683C240.673 218.298 240.673 219.294 240.059 219.909L234.318 225.65L239.926 231.258C240.541 231.873 240.541 232.869 239.926 233.483C239.619 233.79 239.216 233.944 238.814 233.944ZM250.002 233.944C249.599 233.944 249.196 233.79 248.889 233.483L241.054 225.65L249.021 217.683C249.636 217.069 250.631 217.069 251.246 217.683C251.861 218.298 251.861 219.294 251.246 219.909L245.505 225.65L251.114 231.258C251.729 231.872 251.729 232.869 251.114 233.483C250.807 233.79 250.404 233.944 250.002 233.944ZM261.189 233.944C260.787 233.944 260.384 233.79 260.076 233.483L252.242 225.65L260.209 217.683C260.823 217.069 261.819 217.069 262.434 217.684C263.048 218.298 263.048 219.294 262.434 219.909L256.692 225.65L262.301 231.258C262.916 231.873 262.916 232.869 262.301 233.484C261.994 233.79 261.591 233.944 261.189 233.944ZM272.376 233.944C271.974 233.944 271.571 233.79 271.264 233.483L263.43 225.65L271.396 217.683C272.011 217.069 273.007 217.069 273.621 217.683C274.236 218.298 274.236 219.294 273.621 219.909L267.881 225.65L273.489 231.258C274.103 231.873 274.103 232.869 273.489 233.483C273.181 233.79 272.779 233.944 272.376 233.944ZM283.564 233.944C283.161 233.944 282.758 233.79 282.451 233.483L274.617 225.65L282.584 217.683C283.198 217.069 284.194 217.069 284.809 217.683C285.423 218.298 285.423 219.294 284.809 219.909L279.068 225.65L284.676 231.258C285.291 231.873 285.291 232.869 284.676 233.483C284.369 233.79 283.966 233.944 283.564 233.944ZM294.959 233.944C294.556 233.944 294.153 233.79 293.846 233.483L286.012 225.65L293.979 217.683C294.593 217.069 295.589 217.069 296.204 217.683C296.818 218.298 296.818 219.294 296.204 219.909L290.463 225.65L296.071 231.258C296.686 231.873 296.686 232.869 296.071 233.483C295.764 233.79 295.361 233.944 294.959 233.944ZM306.146 233.944C305.744 233.944 305.341 233.79 305.033 233.483L297.199 225.65L305.166 217.683C305.781 217.069 306.776 217.069 307.391 217.683C308.006 218.298 308.006 219.294 307.391 219.909L301.65 225.65L307.258 231.258C307.873 231.873 307.873 232.869 307.258 233.483C306.951 233.79 306.549 233.944 306.146 233.944Z" fill="#0575E6"/>
<path d="M337.325 58.1831H70.0448C59.5229 58.1831 51.327 67.3115 52.4556 77.7724L63.748 182.41C64.7174 191.393 72.3011 198.202 81.3368 198.202H118.487L121.406 233.152L156.356 198.202H326.032C335.068 198.202 342.652 191.393 343.622 182.41L354.914 77.7724C356.043 67.3112 347.847 58.1831 337.325 58.1831Z" fill="#6EB6FF"/>
<path d="M131.719 228.763L128.654 192.058H92.8142C83.029 192.058 74.8583 184.722 73.8083 174.993L62.5163 70.3554C61.9348 64.9676 63.6774 59.5649 67.2981 55.5328C70.9185 51.5007 76.103 49.188 81.5222 49.188H348.802C354.098 49.188 358.933 51.325 362.417 55.2056C366.462 59.7105 368.271 66.068 367.511 73.1068L356.219 177.744C355.844 181.221 353.643 184.801 350.181 187.563C346.549 190.462 342.049 192.058 337.51 192.058H168.424L131.719 228.763ZM81.5222 52.0388C76.911 52.0388 72.4997 54.0067 69.4193 57.4375C66.3386 60.8686 64.8559 65.4654 65.3503 70.0496L76.6424 174.687C77.5359 182.965 84.4882 189.207 92.8142 189.207H131.276L134.048 222.402L167.243 189.207H337.51C345.869 189.207 352.785 182.994 353.385 177.438L364.677 72.8007C365.348 66.5773 363.793 61.0049 360.296 57.1103C357.359 53.8397 353.277 52.0388 348.802 52.0388H81.5222Z" fill="#021B79"/>
<path d="M107.7 101.044H119.175V121.176C119.175 125.402 118.8 128.619 118.051 130.825C117.301 133.031 115.792 134.9 113.526 136.433C111.26 137.965 108.357 138.731 104.819 138.731C101.078 138.731 98.1793 138.225 96.1238 137.215C94.0676 136.204 92.4796 134.725 91.3593 132.778C90.2384 130.832 89.5773 128.427 89.375 125.562L100.32 124.07C100.336 125.705 100.48 126.919 100.749 127.71C101.019 128.503 101.474 129.143 102.114 129.631C102.552 129.952 103.176 130.112 103.985 130.112C105.266 130.112 106.205 129.636 106.803 128.685C107.401 127.734 107.701 126.13 107.701 123.874V101.044H107.7ZM125.368 119.597C125.368 113.547 127.053 108.837 130.424 105.467C133.794 102.097 138.487 100.412 144.503 100.412C150.67 100.412 155.422 102.067 158.759 105.378C162.095 108.69 163.763 113.328 163.763 119.293C163.763 123.624 163.034 127.176 161.577 129.947C160.119 132.72 158.013 134.876 155.258 136.418C152.503 137.96 149.069 138.731 144.958 138.731C140.779 138.731 137.32 138.066 134.582 136.734C131.843 135.403 129.623 133.297 127.922 130.415C126.219 127.533 125.368 123.927 125.368 119.597ZM136.819 119.647C136.819 123.388 137.514 126.076 138.904 127.71C140.294 129.345 142.186 130.162 144.579 130.162C147.039 130.162 148.943 129.362 150.291 127.761C151.639 126.16 152.313 123.287 152.313 119.141C152.313 115.653 151.61 113.105 150.203 111.495C148.796 109.886 146.887 109.082 144.478 109.082C142.169 109.082 140.316 109.899 138.917 111.533C137.518 113.168 136.819 115.872 136.819 119.647ZM170.386 101.044H181.861V138.099H170.386V101.044ZM190.152 101.044H200.844L214.797 121.544V101.044H225.59V138.099H214.797L200.92 117.753V138.099H190.152V101.044ZM274.576 101.044H286.001V123.121C286.001 125.31 285.66 127.377 284.977 129.322C284.295 131.267 283.224 132.968 281.767 134.424C280.309 135.881 278.78 136.904 277.179 137.493C274.955 138.318 272.284 138.731 269.167 138.731C267.363 138.731 265.396 138.604 263.265 138.352C261.133 138.099 259.351 137.598 257.919 136.849C256.486 136.1 255.176 135.034 253.988 133.654C252.8 132.273 251.987 130.85 251.549 129.385C250.841 127.027 250.487 124.939 250.487 123.12V101.043H261.912V123.646C261.912 125.667 262.472 127.245 263.593 128.381C264.714 129.518 266.268 130.086 268.257 130.086C270.229 130.086 271.774 129.526 272.896 128.406C274.016 127.287 274.577 125.7 274.577 123.646V101.044H274.576ZM291.587 125.84L302.481 125.157C302.717 126.927 303.197 128.275 303.922 129.201C305.101 130.702 306.786 131.451 308.977 131.451C310.611 131.451 311.871 131.068 312.756 130.301C313.641 129.534 314.083 128.646 314.083 127.634C314.083 126.674 313.661 125.815 312.819 125.056C311.976 124.298 310.022 123.582 306.955 122.908C301.933 121.779 298.352 120.279 296.212 118.409C294.055 116.538 292.977 114.154 292.977 111.255C292.977 109.351 293.529 107.552 294.632 105.859C295.736 104.166 297.396 102.835 299.612 101.865C301.828 100.896 304.865 100.412 308.724 100.412C313.459 100.412 317.069 101.293 319.555 103.053C322.041 104.814 323.519 107.616 323.991 111.458L313.198 112.09C312.911 110.421 312.309 109.208 311.391 108.45C310.472 107.691 309.204 107.313 307.587 107.313C306.255 107.313 305.253 107.595 304.579 108.159C303.905 108.724 303.568 109.41 303.568 110.219C303.568 110.809 303.846 111.34 304.402 111.812C304.941 112.301 306.222 112.755 308.244 113.177C313.249 114.255 316.834 115.346 318.999 116.45C321.164 117.554 322.74 118.923 323.726 120.557C324.712 122.192 325.204 124.02 325.204 126.042C325.204 128.418 324.547 130.609 323.233 132.614C321.918 134.62 320.082 136.14 317.722 137.177C315.363 138.213 312.389 138.731 308.8 138.731C302.498 138.731 298.133 137.518 295.707 135.091C293.281 132.664 291.907 129.581 291.587 125.84Z" fill="white"/>
<path d="M48.5132 183.982C45.4527 172.482 34.8902 165.971 26.2947 166.612C22.4258 166.901 17.1502 169.637 18.1149 174.947C20.0258 185.467 33.7294 176.711 48.5132 183.982ZM8.69591 195.985C3.52 199.815 -1.46476 208.327 4.59068 214.928C16.5866 228.006 28.0736 203.581 55.2664 200.701C40.7892 187.265 20.1959 187.475 8.69591 195.985Z" fill="#6EB6FF"/>
<path d="M156.736 41.3963C156.065 41.3963 155.422 41.1301 154.934 40.6338C154.291 39.9786 154.053 39.0585 154.298 38.173L156.67 29.6255C156.916 28.7401 157.594 28.074 158.483 27.8442C159.373 27.6149 160.289 27.8689 160.932 28.5239L167.148 34.8516C167.792 35.5072 168.03 36.4273 167.784 37.3127C167.539 38.1981 166.861 38.8639 165.971 39.0935L157.383 41.3129C157.167 41.3687 156.95 41.3963 156.736 41.3963ZM159.125 29.7668C159.066 29.7668 159.016 29.7761 158.985 29.7845C158.894 29.8077 158.676 29.8914 158.601 30.1615L156.229 38.7087C156.154 38.9789 156.298 39.1629 156.364 39.2295C156.429 39.2961 156.609 39.4429 156.881 39.3732L165.47 37.1538C165.742 37.0838 165.829 36.8669 165.853 36.7771C165.878 36.6869 165.915 36.4564 165.719 36.2563L159.503 29.9285C159.375 29.7987 159.233 29.7668 159.125 29.7668ZM183.464 12.3304C183.197 12.945 182.696 13.429 182.047 13.6787C181.189 14.008 180.25 13.8596 179.536 13.2818L172.642 7.70005C171.928 7.12164 171.587 6.23467 171.731 5.32725C171.875 4.42045 172.473 3.68126 173.33 3.35225L181.611 0.17241C182.469 -0.157222 183.408 -0.00851414 184.122 0.569891C184.836 1.14799 185.176 2.03496 185.032 2.94268L183.646 11.7036C183.61 11.9236 183.549 12.1337 183.464 12.3304ZM173.75 5.50508C173.726 5.55929 173.715 5.60824 173.71 5.64046C173.695 5.73278 173.685 5.96638 173.903 6.14235L180.797 11.7238C181.015 11.9001 181.241 11.8412 181.328 11.8077C181.415 11.7746 181.622 11.6674 181.666 11.3901L183.053 2.62854C183.097 2.35158 182.933 2.18521 182.86 2.12666C182.788 2.06779 182.591 1.94202 182.329 2.04239L174.049 5.22254C173.879 5.28791 173.793 5.40501 173.75 5.50508ZM384.651 188.506C384.384 189.12 383.884 189.604 383.234 189.854C382.377 190.183 381.438 190.035 380.724 189.457L373.83 183.875C373.115 183.297 372.775 182.41 372.918 181.502C373.062 180.596 373.66 179.856 374.518 179.527L382.798 176.347C383.656 176.018 384.595 176.167 385.309 176.745C386.023 177.323 386.364 178.21 386.22 179.118L384.833 187.879C384.799 188.099 384.737 188.309 384.651 188.506ZM374.937 181.68C374.914 181.734 374.903 181.783 374.898 181.816C374.883 181.908 374.873 182.142 375.091 182.318L381.985 187.899C382.203 188.076 382.429 188.017 382.516 187.983C382.603 187.95 382.81 187.843 382.854 187.566L384.241 178.804C384.285 178.527 384.121 178.361 384.048 178.302C383.976 178.243 383.779 178.118 383.517 178.218L375.236 181.398C375.067 181.463 374.981 181.58 374.937 181.68ZM57.9137 230.767C57.6467 231.382 57.1463 231.866 56.4967 232.115C55.6391 232.444 54.7004 232.296 53.986 231.718L47.0919 226.136C46.3778 225.558 46.037 224.671 46.1808 223.764C46.3249 222.857 46.9228 222.118 47.78 221.789L56.0608 218.609C56.9186 218.279 57.8573 218.428 58.5714 219.006C59.2855 219.584 59.626 220.471 59.4823 221.379L58.0956 230.14C58.0606 230.36 57.9992 230.57 57.9137 230.767ZM48.1998 223.942C48.1762 223.996 48.1651 224.045 48.1601 224.077C48.1456 224.169 48.135 224.403 48.3531 224.579L55.2472 230.161C55.465 230.337 55.6915 230.278 55.7785 230.244C55.8656 230.211 56.0722 230.104 56.1165 229.827L57.5032 221.066C57.5472 220.789 57.383 220.622 57.3105 220.564C57.238 220.505 57.041 220.379 56.7795 220.479L48.4988 223.659C48.329 223.725 48.2432 223.842 48.1998 223.942Z" fill="#91C8FF"/>
<path d="M213.445 15.9148C213.445 13.6672 215.268 11.8452 217.515 11.8452C219.763 11.8452 221.585 13.6672 221.585 15.9148C221.585 18.1624 219.763 19.9847 217.515 19.9847C215.267 19.9844 213.445 18.1624 213.445 15.9148Z" fill="#9ECEFF"/>
<path d="M400.826 175.369C401.343 173.181 399.988 170.989 397.8 170.472C395.613 169.956 393.421 171.31 392.904 173.498C392.388 175.686 393.742 177.878 395.93 178.394C398.117 178.911 400.309 177.556 400.826 175.369Z" fill="#9ECEFF"/>
<path d="M73.2031 221.292C73.2031 219.044 75.0251 217.222 77.2727 217.222C79.5203 217.222 81.3426 219.044 81.3426 221.292C81.3426 223.54 79.5207 225.362 77.2727 225.362C75.0254 225.362 73.2031 223.54 73.2031 221.292Z" fill="#9ECEFF"/>
<path d="M4.0699 161.684C6.31765 161.684 8.13981 159.862 8.13981 157.614C8.13981 155.367 6.31765 153.544 4.0699 153.544C1.82216 153.544 0 155.367 0 157.614C0 159.862 1.82216 161.684 4.0699 161.684Z" fill="#9ECEFF"/>
<path d="M239.812 21.4256C239.812 19.8611 241.081 18.5928 242.645 18.5928C244.21 18.5928 245.478 19.8611 245.478 21.4256C245.478 22.9901 244.21 24.2585 242.645 24.2585C241.081 24.2585 239.812 22.9901 239.812 21.4256Z" fill="#0575E6"/>
<path d="M253.981 24.2585C255.546 24.2585 256.814 22.9902 256.814 21.4256C256.814 19.8611 255.546 18.5928 253.981 18.5928C252.417 18.5928 251.148 19.8611 251.148 21.4256C251.148 22.9902 252.417 24.2585 253.981 24.2585Z" fill="#0575E6"/>
<path d="M265.309 24.2585C266.874 24.2585 268.142 22.9902 268.142 21.4256C268.142 19.8611 266.874 18.5928 265.309 18.5928C263.745 18.5928 262.477 19.8611 262.477 21.4256C262.477 22.9902 263.745 24.2585 265.309 24.2585Z" fill="#0575E6"/>
<path d="M273.812 21.4256C273.812 19.8611 275.081 18.5928 276.645 18.5928C278.21 18.5928 279.478 19.8611 279.478 21.4256C279.478 22.9901 278.21 24.2585 276.645 24.2585C275.081 24.2585 273.812 22.9901 273.812 21.4256ZM285.144 21.4256C285.144 19.8611 286.412 18.5928 287.976 18.5928C289.541 18.5928 290.809 19.8611 290.809 21.4256C290.809 22.9901 289.541 24.2585 287.976 24.2585C286.412 24.2585 285.144 22.9901 285.144 21.4256ZM296.475 21.4256C296.475 19.8611 297.743 18.5928 299.308 18.5928C300.872 18.5928 302.14 19.8611 302.14 21.4256C302.14 22.9901 300.872 24.2585 299.308 24.2585C297.743 24.2585 296.475 22.9901 296.475 21.4256Z" fill="#0575E6"/>
<path d="M310.638 24.2585C312.202 24.2585 313.47 22.9902 313.47 21.4256C313.47 19.8611 312.202 18.5928 310.638 18.5928C309.073 18.5928 307.805 19.8611 307.805 21.4256C307.805 22.9902 309.073 24.2585 310.638 24.2585Z" fill="#0575E6"/>
<path d="M239.812 33.5726C239.812 32.0081 241.081 30.7397 242.645 30.7397C244.21 30.7397 245.478 32.0081 245.478 33.5726C245.478 35.1371 244.21 36.4055 242.645 36.4055C241.081 36.4051 239.812 35.1368 239.812 33.5726Z" fill="#0575E6"/>
<path d="M253.981 36.4055C255.546 36.4055 256.814 35.1371 256.814 33.5726C256.814 32.0081 255.546 30.7397 253.981 30.7397C252.417 30.7397 251.148 32.0081 251.148 33.5726C251.148 35.1371 252.417 36.4055 253.981 36.4055Z" fill="#0575E6"/>
<path d="M265.309 36.4055C266.874 36.4055 268.142 35.1371 268.142 33.5726C268.142 32.0081 266.874 30.7397 265.309 30.7397C263.745 30.7397 262.477 32.0081 262.477 33.5726C262.477 35.1371 263.745 36.4055 265.309 36.4055Z" fill="#0575E6"/>
<path d="M273.812 33.5726C273.812 32.0081 275.081 30.7397 276.645 30.7397C278.21 30.7397 279.478 32.0081 279.478 33.5726C279.478 35.1371 278.21 36.4055 276.645 36.4055C275.081 36.4051 273.812 35.1368 273.812 33.5726ZM285.144 33.5726C285.144 32.0081 286.412 30.7397 287.976 30.7397C289.541 30.7397 290.809 32.0081 290.809 33.5726C290.809 35.1371 289.541 36.4055 287.976 36.4055C286.412 36.4055 285.144 35.1368 285.144 33.5726ZM296.475 33.5726C296.475 32.0081 297.743 30.7397 299.308 30.7397C300.872 30.7397 302.14 32.0081 302.14 33.5726C302.14 35.1371 300.872 36.4055 299.308 36.4055C297.743 36.4051 296.475 35.1368 296.475 33.5726Z" fill="#0575E6"/>
<path d="M310.638 36.4055C312.202 36.4055 313.47 35.1371 313.47 33.5726C313.47 32.0081 312.202 30.7397 310.638 30.7397C309.073 30.7397 307.805 32.0081 307.805 33.5726C307.805 35.1371 309.073 36.4055 310.638 36.4055Z" fill="#0575E6"/>
<path d="M394.552 88.6476C396.116 88.6476 397.384 87.3793 397.384 85.8148C397.384 84.2502 396.116 82.9819 394.552 82.9819C392.987 82.9819 391.719 84.2502 391.719 85.8148C391.719 87.3793 392.987 88.6476 394.552 88.6476Z" fill="#0575E6"/>
<path d="M394.552 99.9787C396.116 99.9787 397.384 98.7104 397.384 97.1458C397.384 95.5813 396.116 94.313 394.552 94.313C392.987 94.313 391.719 95.5813 391.719 97.1458C391.719 98.7104 392.987 99.9787 394.552 99.9787Z" fill="#0575E6"/>
<path d="M394.552 111.31C396.116 111.31 397.384 110.041 397.384 108.477C397.384 106.912 396.116 105.644 394.552 105.644C392.987 105.644 391.719 106.912 391.719 108.477C391.719 110.041 392.987 111.31 394.552 111.31Z" fill="#0575E6"/>
<path d="M394.552 122.641C396.116 122.641 397.384 121.372 397.384 119.808C397.384 118.243 396.116 116.975 394.552 116.975C392.987 116.975 391.719 118.243 391.719 119.808C391.719 121.372 392.987 122.641 394.552 122.641Z" fill="#0575E6"/>
<path d="M394.552 133.972C396.116 133.972 397.384 132.704 397.384 131.139C397.384 129.574 396.116 128.306 394.552 128.306C392.987 128.306 391.719 129.574 391.719 131.139C391.719 132.704 392.987 133.972 394.552 133.972Z" fill="#0575E6"/>
<path d="M394.552 145.303C396.116 145.303 397.384 144.035 397.384 142.471C397.384 140.906 396.116 139.638 394.552 139.638C392.987 139.638 391.719 140.906 391.719 142.471C391.719 144.035 392.987 145.303 394.552 145.303Z" fill="#0575E6"/>
<path d="M394.552 156.634C396.116 156.634 397.384 155.366 397.384 153.802C397.384 152.237 396.116 150.969 394.552 150.969C392.987 150.969 391.719 152.237 391.719 153.802C391.719 155.366 392.987 156.634 394.552 156.634Z" fill="#0575E6"/>
<path d="M382.403 88.6476C383.968 88.6476 385.236 87.3793 385.236 85.8148C385.236 84.2502 383.968 82.9819 382.403 82.9819C380.839 82.9819 379.57 84.2502 379.57 85.8148C379.57 87.3793 380.839 88.6476 382.403 88.6476Z" fill="#0575E6"/>
<path d="M382.403 99.9787C383.968 99.9787 385.236 98.7104 385.236 97.1458C385.236 95.5813 383.968 94.313 382.403 94.313C380.839 94.313 379.57 95.5813 379.57 97.1458C379.57 98.7104 380.839 99.9787 382.403 99.9787Z" fill="#0575E6"/>
<path d="M382.403 111.31C383.968 111.31 385.236 110.041 385.236 108.477C385.236 106.912 383.968 105.644 382.403 105.644C380.839 105.644 379.57 106.912 379.57 108.477C379.57 110.041 380.839 111.31 382.403 111.31Z" fill="#0575E6"/>
<path d="M382.403 122.641C383.968 122.641 385.236 121.372 385.236 119.808C385.236 118.243 383.968 116.975 382.403 116.975C380.839 116.975 379.57 118.243 379.57 119.808C379.57 121.372 380.839 122.641 382.403 122.641Z" fill="#0575E6"/>
<path d="M382.403 133.972C383.968 133.972 385.236 132.704 385.236 131.139C385.236 129.574 383.968 128.306 382.403 128.306C380.839 128.306 379.57 129.574 379.57 131.139C379.57 132.704 380.839 133.972 382.403 133.972Z" fill="#0575E6"/>
<path d="M382.403 145.303C383.968 145.303 385.236 144.035 385.236 142.471C385.236 140.906 383.968 139.638 382.403 139.638C380.839 139.638 379.57 140.906 379.57 142.471C379.57 144.035 380.839 145.303 382.403 145.303Z" fill="#0575E6"/>
<path d="M382.403 156.634C383.968 156.634 385.236 155.366 385.236 153.802C385.236 152.237 383.968 150.969 382.403 150.969C380.839 150.969 379.57 152.237 379.57 153.802C379.57 155.366 380.839 156.634 382.403 156.634Z" fill="#0575E6"/>
</svg>
