<svg width="364" height="260" viewBox="0 0 364 260" fill="none" xmlns="http://www.w3.org/2000/svg">
<path fill-rule="evenodd" clip-rule="evenodd" d="M182.069 252.85C270.326 252.85 342.346 249.99 342.346 246.545C342.346 243.1 270.326 240.24 182.069 240.24C93.7466 240.24 21.7266 243.1 21.7266 246.545C21.7266 249.99 93.7466 252.85 182.069 252.85Z" fill="#DFEFFF"/>
<path fill-rule="evenodd" clip-rule="evenodd" d="M52.8578 68.2498C74.2038 30.0818 135.109 4.31582 205.66 7.39682C292.162 11.2188 360.36 56.9528 357.968 109.564C356.798 135.239 339.079 157.82 311.129 173.771C289.796 211.926 228.878 237.705 158.327 234.624C71.8378 230.802 3.6918 185.068 6.0188 132.457C7.1888 106.717 24.9078 84.2008 52.8578 68.2498Z" fill="#D5EAFF"/>
<path d="M298.308 130.338C267.251 130.338 241.992 105.079 241.992 74.0221C241.992 42.9651 267.251 17.7061 298.308 17.7061C329.365 17.7061 354.624 42.9651 354.624 74.0221C354.624 105.066 329.352 130.338 298.308 130.338ZM298.308 21.7361C269.474 21.7361 246.022 45.1881 246.022 74.0221C246.022 102.856 269.474 126.308 298.308 126.308C327.142 126.308 350.594 102.856 350.594 74.0221C350.581 45.1881 327.129 21.7361 298.308 21.7361Z" fill="url(#paint0_linear_11130_36050)"/>
<path d="M298.309 130.338C289.352 130.338 280.993 124.319 274.792 113.373C268.786 102.791 265.484 88.8157 265.484 74.0087C265.484 59.2017 268.786 45.2267 274.792 34.6447C280.993 23.7117 289.352 17.6797 298.309 17.6797C307.266 17.6797 315.625 23.6987 321.826 34.6447C327.832 45.2267 331.134 59.2017 331.134 74.0087C331.134 88.8157 327.832 102.791 321.826 113.373C315.625 124.319 307.266 130.338 298.309 130.338ZM298.309 21.7357C290.86 21.7357 283.762 27.0397 278.302 36.6467C272.634 46.6307 269.514 59.8907 269.514 74.0087C269.514 88.1267 272.634 101.4 278.302 111.371C283.762 120.991 290.873 126.282 298.309 126.282C305.758 126.282 312.856 120.978 318.316 111.371C323.984 101.387 327.104 88.1267 327.104 74.0087C327.104 59.8907 323.984 46.6177 318.316 36.6467C312.856 27.0267 305.745 21.7357 298.309 21.7357Z" fill="url(#paint1_linear_11130_36050)"/>
<path d="M300.324 19.7207H296.281V128.323H300.324V19.7207Z" fill="url(#paint2_linear_11130_36050)"/>
<path d="M352.618 71.9941H244.016V76.0371H352.618V71.9941Z" fill="url(#paint3_linear_11130_36050)"/>
<path d="M298.306 49.1264C284.253 49.1264 271.058 44.5114 260.138 35.7884L258.305 34.3194L260.021 32.7204C270.447 23.0224 284.032 17.6924 298.293 17.6924C312.515 17.6924 326.1 23.0354 336.565 32.7204L338.281 34.3194L336.448 35.7884C325.697 44.3814 312.151 49.1264 298.306 49.1264ZM264.571 34.0984C274.386 41.3004 285.995 45.0964 298.306 45.0964C310.435 45.0964 322.317 41.2094 332.041 34.0984C322.59 26.1164 310.708 21.7354 298.306 21.7354C285.865 21.7354 273.983 26.1034 264.571 34.0984Z" fill="url(#paint4_linear_11130_36050)"/>
<path d="M298.306 130.337C284.058 130.337 270.473 125.02 260.034 115.348L258.305 113.749L260.138 112.28C271.084 103.531 284.292 98.9033 298.306 98.9033C312.125 98.9033 325.671 103.661 336.474 112.28L338.307 113.749L336.578 115.348C326.1 125.007 312.502 130.337 298.306 130.337ZM264.571 113.983C273.996 121.939 285.878 126.307 298.306 126.307C310.682 126.307 322.577 121.952 332.028 113.983C322.278 106.859 310.396 102.959 298.306 102.959C286.021 102.946 274.412 106.755 264.571 113.983Z" fill="url(#paint5_linear_11130_36050)"/>
<path fill-rule="evenodd" clip-rule="evenodd" d="M92.8966 110.852C96.7966 101.726 96.3026 81.0559 88.2556 68.2769C85.8116 64.3379 77.3486 50.8049 69.6136 55.9269C67.9756 61.2309 75.0086 71.4489 64.6866 71.8259C59.6426 70.4999 69.0416 59.5279 65.7916 55.6539C60.6826 51.0259 47.9166 48.2959 42.1316 53.7559C41.3386 57.1489 53.7666 72.4499 50.1656 75.2319C46.1356 76.9999 44.2246 64.2859 41.2606 58.8129C37.6856 53.6259 28.3386 57.9809 22.3846 60.0609C29.3786 64.1169 34.2666 68.7579 32.4206 70.9289C27.3766 75.5829 26.6226 61.2309 22.3846 60.0609C13.7396 63.0639 10.2946 60.4119 7.26562 64.7409C7.35663 71.1239 7.56462 74.0879 10.7756 79.2359C18.0556 90.2339 36.1646 79.9639 36.4766 84.4359C34.9686 88.1799 19.8366 85.2029 18.7706 87.4259C15.8066 91.6249 21.2406 100.712 25.7386 101.063C32.3946 101.583 47.3706 92.2229 49.2686 95.3429C51.6866 99.2429 29.7166 102.519 28.4426 110.319C28.0006 116.832 34.5656 123.579 39.7006 127.323C45.6286 133.758 58.9406 105.626 61.7746 106.991C66.1816 113.985 40.9356 131.028 52.9476 136.358C59.6426 138.659 66.2986 136.176 72.6556 133.368C82.4316 129.013 90.2836 117.43 92.8966 110.852ZM41.5206 105.951C41.8976 104.924 43.1456 104.43 44.2896 104.846C45.4336 105.275 46.0576 106.471 45.6676 107.498C45.2776 108.525 44.0296 109.019 42.8856 108.603C41.7416 108.174 41.1306 106.978 41.5206 105.951ZM57.6796 85.3199C59.2266 88.2969 60.9816 83.7079 60.4876 81.9399C60.3186 79.6649 59.4866 76.4149 57.0166 75.7259C54.7676 77.5589 55.8596 81.5239 57.6796 85.3199ZM71.3166 88.9599C66.7276 87.2049 69.9516 77.6499 72.5776 77.0779C75.0736 77.2989 74.8266 89.3109 71.3166 88.9599ZM69.0416 112.295C68.3526 114.011 70.9006 113.101 71.4596 112.256C72.3566 111.372 73.4226 109.851 72.8116 108.59C71.2516 108.291 69.9776 110.163 69.0416 112.295ZM34.2016 88.6999C35.3716 86.9969 38.1926 86.7239 40.1296 86.9579C40.7666 88.3619 38.6216 89.1679 37.3086 89.7789C35.9306 90.5329 33.8376 90.1039 34.2016 88.6999Z" fill="#0E64BA"/>
<path d="M117.496 131.079C117.327 131.066 117.145 131.001 117.002 130.884C86.8682 104.845 54.4072 85.5403 17.7862 71.8903C17.3572 71.7343 17.1362 71.2533 17.2922 70.8243C17.4482 70.3953 17.9292 70.1743 18.3582 70.3303C37.6632 77.5193 56.2532 86.5413 73.6342 97.1233C89.0392 106.509 103.989 117.442 118.094 129.623C118.445 129.922 118.484 130.442 118.185 130.793C118.003 131.001 117.756 131.105 117.496 131.079Z" fill="#16518C"/>
<path d="M44.7444 83.2788C44.3154 83.2528 43.9644 82.8888 43.9644 82.4598C43.9384 74.6338 40.6364 68.3288 34.1754 63.7268C33.7984 63.4668 33.7204 62.9468 33.9804 62.5698C34.2404 62.1928 34.7604 62.1148 35.1374 62.3748C38.4394 64.7278 41.0004 67.5488 42.7554 70.7468C44.6404 74.2048 45.6024 78.1308 45.6284 82.4468C45.6284 82.9018 45.2644 83.2788 44.7964 83.2788C44.7834 83.2788 44.7574 83.2788 44.7444 83.2788ZM77.3744 101.284C77.2574 101.271 77.1274 101.245 77.0104 101.18C76.6074 100.959 76.4774 100.452 76.6984 100.049C83.5234 88.0368 82.9904 75.1668 75.1774 62.8428C74.9304 62.4528 75.0474 61.9458 75.4374 61.6988C75.8274 61.4518 76.3344 61.5688 76.5814 61.9588C84.7454 74.8418 85.2914 88.2968 78.1414 100.868C77.9854 101.154 77.6864 101.31 77.3744 101.284ZM39.2584 115.844C38.9204 115.818 38.6214 115.597 38.5174 115.259C38.3874 114.817 38.6344 114.362 39.0634 114.219C50.1914 110.8 56.8734 104.222 62.1254 91.4948C62.2944 91.0658 62.7884 90.8708 63.2044 91.0398C63.6334 91.2088 63.8284 91.7028 63.6594 92.1188C61.0334 98.5018 58.1864 103.156 54.7154 106.796C50.7504 110.943 45.7974 113.881 39.5574 115.805C39.4534 115.844 39.3494 115.857 39.2584 115.844ZM58.5244 131.093C58.1864 131.067 57.8874 130.846 57.7834 130.508C57.6404 130.066 57.8874 129.611 58.3294 129.468C77.4134 123.462 82.6394 113.621 85.0574 105.717C85.1874 105.275 85.6554 105.028 86.0974 105.171C86.5394 105.301 86.7864 105.769 86.6434 106.211C84.1084 114.505 78.6484 124.814 58.8234 131.054C58.7324 131.08 58.6284 131.093 58.5244 131.093Z" fill="#16518C"/>
<path fill-rule="evenodd" clip-rule="evenodd" d="M112.384 99.5677C121.354 95.3427 134.705 79.5347 137.136 64.6237C137.916 60.0737 140.554 44.3177 131.376 43.0177C126.632 45.9037 125.124 58.2277 117.155 51.6627C114.256 47.3337 128.569 45.3577 128.699 40.2877C127.932 33.4497 120.197 22.9327 112.254 23.1927C109.394 25.1947 108.549 44.8897 104.012 44.5907C99.8255 43.2387 106.833 32.4617 108.236 26.3907C108.991 20.1377 99.1105 17.1997 93.2735 14.7947C95.8085 22.4647 96.3935 29.1987 93.5725 29.5887C86.7085 29.7317 95.6785 18.4867 93.2735 14.7947C84.8235 11.3107 84.0045 7.05974 78.8565 8.26874C74.6705 13.1177 72.8765 15.4577 71.8755 21.4637C70.0425 34.5417 90.3875 38.8447 87.6705 42.4067C84.0565 44.2267 74.6965 31.9547 72.4215 32.9167C67.4425 34.0867 65.4665 44.4997 68.5995 47.7497C73.2275 52.5467 90.6475 55.4717 89.9975 59.0727C89.2175 63.5837 70.6015 51.4677 64.4785 56.4597C59.8245 61.0357 60.2665 70.4347 61.6315 76.6487C61.8135 85.4107 90.4265 73.1647 91.6485 76.0767C90.3095 84.2277 60.1235 80.2497 65.5835 92.2097C69.0675 98.3717 75.6975 100.92 82.3015 103.026C92.5065 106.237 106.053 102.779 112.384 99.5677ZM77.1795 61.8417C78.1545 61.3347 79.4155 61.7767 79.9875 62.8557C80.5595 63.9477 80.2215 65.2347 79.2465 65.7547C78.2715 66.2747 77.0105 65.8197 76.4385 64.7407C75.8795 63.6617 76.2045 62.3617 77.1795 61.8417ZM102.959 57.1227C102.127 60.3727 106.495 58.0977 107.301 56.4467C108.679 54.6137 110.226 51.6497 108.835 49.5047C105.923 49.3617 104.116 53.0537 102.959 57.1227ZM110.746 68.8877C108.484 64.5327 117.22 59.5017 119.586 60.8277C121.289 62.6347 113.151 71.4617 110.746 68.8877ZM93.5725 84.8387C91.9215 85.6707 94.4305 86.6717 95.4055 86.4247C96.6665 86.3467 98.4605 85.9177 98.8635 84.5657C97.8885 83.3047 95.6915 83.8767 93.5725 84.8387ZM83.1335 44.0707C85.1485 43.5767 87.4365 45.2407 88.7235 46.6967C88.2815 48.1657 86.1235 47.3467 84.7585 46.9567C83.2245 46.5927 81.9375 44.9027 83.1335 44.0707Z" fill="#247AD1"/>
<path d="M117.91 131.287C117.52 131.261 117.195 130.962 117.143 130.572C111.839 91.0914 100.347 55.1074 81.9913 20.6054C81.7703 20.2024 81.9263 19.6954 82.3293 19.4874C82.7323 19.2664 83.2393 19.4224 83.4473 19.8254C93.1193 38.0124 101.062 57.0964 107.042 76.5444C112.346 93.7824 116.298 111.891 118.768 130.351C118.833 130.806 118.508 131.222 118.053 131.287C118.027 131.287 117.975 131.287 117.91 131.287Z" fill="#16518C"/>
<path d="M95.1609 47.2555C94.9789 47.2425 94.8099 47.1775 94.6669 47.0475C94.3289 46.7485 94.2899 46.2155 94.5889 45.8775C99.7499 39.9885 101.466 33.0855 99.6849 25.3505C99.5809 24.9085 99.8669 24.4535 100.309 24.3495C100.751 24.2455 101.206 24.5315 101.31 24.9735C103.221 33.2675 101.375 40.6645 95.8369 46.9695C95.6549 47.1775 95.4079 47.2815 95.1609 47.2555ZM107.641 82.3685C107.316 82.3425 107.017 82.1345 106.913 81.8095C106.77 81.3805 106.991 80.8995 107.433 80.7565C120.511 76.2845 128.649 66.3135 130.976 51.9095C131.054 51.4545 131.47 51.1555 131.925 51.2205C132.38 51.2985 132.679 51.7145 132.614 52.1695C130.183 67.2235 121.655 77.6495 107.966 82.3295C107.849 82.3685 107.745 82.3815 107.641 82.3685ZM81.9659 71.2795C77.7669 71.0195 73.5419 69.9015 69.1739 67.9125C68.7579 67.7175 68.5759 67.2365 68.7579 66.8075C68.9529 66.3915 69.4469 66.2095 69.8629 66.3915C80.4579 71.2275 89.8179 70.7205 102.181 64.6755C102.597 64.4675 103.091 64.6495 103.286 65.0525C103.481 65.4685 103.312 65.9625 102.909 66.1575C96.7079 69.1865 91.4949 70.7985 86.4899 71.2145C84.9819 71.3575 83.4739 71.3705 81.9659 71.2795ZM91.4429 96.9675C86.4119 96.6555 80.5099 95.2385 73.5029 92.1185C73.0869 91.9365 72.8919 91.4425 73.0869 91.0265C73.2689 90.6105 73.7629 90.4155 74.1789 90.6105C92.4309 98.7745 102.87 94.8615 109.929 90.5455C110.319 90.3115 110.826 90.4285 111.073 90.8185C111.307 91.2085 111.19 91.7155 110.8 91.9625C106.12 94.8095 100.049 97.5005 91.4429 96.9675Z" fill="#16518C"/>
<path fill-rule="evenodd" clip-rule="evenodd" d="M85.0609 81.0811H279.008C285.807 81.0811 291.397 86.6451 291.397 93.4701V226.291C291.397 233.103 285.82 238.68 279.008 238.68H85.0609C78.2489 238.68 72.6719 233.116 72.6719 226.291V93.4701C72.6719 86.6581 78.2359 81.0811 85.0609 81.0811Z" fill="#0575E6"/>
<path fill-rule="evenodd" clip-rule="evenodd" d="M88.4224 98.293H275.648C276.35 98.293 276.922 98.852 276.922 99.567V237.393C276.922 238.095 276.35 238.667 275.648 238.667H88.4224C87.7204 238.667 87.1484 238.095 87.1484 237.393V99.567C87.1484 98.852 87.7334 98.293 88.4224 98.293Z" fill="#62A7EC"/>
<path fill-rule="evenodd" clip-rule="evenodd" d="M65.1616 226.824H298.915C300.657 226.824 302.1 228.267 302.1 230.009V241.969C302.1 243.711 300.657 245.154 298.915 245.154H65.1616C63.4196 245.154 61.9766 243.711 61.9766 241.969V230.009C61.9766 228.267 63.4066 226.824 65.1616 226.824Z" fill="#0627A3"/>
<path fill-rule="evenodd" clip-rule="evenodd" d="M155.801 226.824H208.269C208.672 226.824 208.997 227.149 208.997 227.552V230.23C208.997 230.62 208.672 230.945 208.269 230.945H155.801C155.411 230.945 155.086 230.62 155.086 230.23V227.552C155.086 227.149 155.411 226.824 155.801 226.824Z" fill="#0B31C0"/>
<path fill-rule="evenodd" clip-rule="evenodd" d="M182.029 121.719C182.757 121.719 183.355 122.317 183.355 123.045V129.701C183.355 130.429 182.757 131.027 182.029 131.027C181.301 131.027 180.703 130.429 180.703 129.701V123.045C180.703 122.317 181.301 121.719 182.029 121.719Z" fill="url(#paint6_linear_11130_36050)"/>
<path fill-rule="evenodd" clip-rule="evenodd" d="M182.031 158.365C182.759 158.365 183.357 158.964 183.357 159.692V166.347C183.357 167.075 182.759 167.674 182.031 167.674C181.303 167.674 180.705 167.075 180.705 166.347V159.692C180.705 158.964 181.303 158.365 182.031 158.365ZM165.781 128.452C166.301 127.933 167.146 127.933 167.666 128.452L172.372 133.159C172.892 133.679 172.892 134.524 172.372 135.044C171.852 135.564 171.007 135.564 170.487 135.044L165.781 130.337C165.261 129.817 165.261 128.972 165.781 128.452ZM191.703 154.362C192.223 153.842 193.068 153.842 193.588 154.362L198.294 159.067C198.814 159.587 198.814 160.432 198.294 160.952C197.774 161.472 196.929 161.472 196.409 160.952L191.703 156.247C191.183 155.74 191.183 154.882 191.703 154.362Z" fill="#0575E6"/>
<path fill-rule="evenodd" clip-rule="evenodd" d="M198.294 128.452C197.774 127.933 196.929 127.933 196.409 128.452L191.702 133.159C191.183 133.679 191.183 134.524 191.702 135.044C192.222 135.564 193.067 135.564 193.587 135.044L198.294 130.337C198.814 129.817 198.814 128.972 198.294 128.452Z" fill="url(#paint7_linear_11130_36050)"/>
<path fill-rule="evenodd" clip-rule="evenodd" d="M172.372 154.362C171.852 153.842 171.007 153.842 170.487 154.362L165.781 159.068C165.261 159.588 165.261 160.433 165.781 160.953C166.301 161.473 167.146 161.473 167.666 160.953L172.372 156.247C172.892 155.74 172.892 154.882 172.372 154.362Z" fill="#0575E6"/>
<path fill-rule="evenodd" clip-rule="evenodd" d="M203.283 135.941C203.01 135.265 202.217 134.94 201.541 135.213L195.379 137.748C194.703 138.021 194.378 138.814 194.651 139.49C194.924 140.166 195.717 140.491 196.393 140.218L202.542 137.683C203.244 137.41 203.569 136.63 203.283 135.941Z" fill="url(#paint8_linear_11130_36050)"/>
<path fill-rule="evenodd" clip-rule="evenodd" d="M169.408 149.915C169.135 149.239 168.342 148.914 167.666 149.187L161.504 151.722C160.828 151.995 160.503 152.788 160.776 153.464C161.062 154.14 161.842 154.465 162.518 154.192L168.68 151.657C169.356 151.371 169.681 150.591 169.408 149.915Z" fill="#0575E6"/>
<path fill-rule="evenodd" clip-rule="evenodd" d="M190.73 123.422C190.054 123.149 189.274 123.474 189.001 124.15L186.479 130.312C186.206 130.988 186.531 131.768 187.207 132.041C187.883 132.314 188.663 131.989 188.949 131.313L191.458 125.151C191.731 124.475 191.406 123.695 190.73 123.422Z" fill="url(#paint9_linear_11130_36050)"/>
<path fill-rule="evenodd" clip-rule="evenodd" d="M176.87 157.352C176.194 157.079 175.414 157.404 175.141 158.08L172.619 164.242C172.346 164.918 172.671 165.698 173.347 165.971C174.023 166.244 174.803 165.919 175.089 165.243L177.598 159.081C177.884 158.418 177.559 157.638 176.87 157.352ZM159.047 144.703C159.047 143.975 159.645 143.377 160.373 143.377H167.029C167.757 143.377 168.355 143.975 168.355 144.703C168.355 145.431 167.757 146.029 167.029 146.029H160.373C159.645 146.042 159.047 145.431 159.047 144.703Z" fill="#0575E6"/>
<path fill-rule="evenodd" clip-rule="evenodd" d="M195.711 144.703C195.711 143.975 196.309 143.377 197.037 143.377H203.693C204.421 143.377 205.019 143.975 205.019 144.703C205.019 145.431 204.421 146.029 203.693 146.029H197.037C196.309 146.042 195.711 145.431 195.711 144.703Z" fill="url(#paint10_linear_11130_36050)"/>
<path fill-rule="evenodd" clip-rule="evenodd" d="M173.347 123.422C174.023 123.149 174.803 123.474 175.089 124.15L177.598 130.312C177.871 130.988 177.546 131.768 176.87 132.041C176.194 132.314 175.414 131.989 175.141 131.313L172.619 125.151C172.346 124.475 172.671 123.695 173.347 123.422ZM187.205 157.352C187.881 157.079 188.661 157.404 188.947 158.08L191.456 164.242C191.729 164.918 191.404 165.698 190.728 165.971C190.052 166.244 189.272 165.919 188.999 165.243L186.477 159.081C186.191 158.418 186.529 157.638 187.205 157.352ZM160.776 135.941C161.062 135.265 161.842 134.94 162.518 135.213L168.68 137.748C169.356 138.021 169.681 138.814 169.408 139.49C169.135 140.166 168.342 140.491 167.666 140.218L161.504 137.683C160.828 137.41 160.503 136.63 160.776 135.941Z" fill="#0575E6"/>
<path fill-rule="evenodd" clip-rule="evenodd" d="M194.667 149.915C194.94 149.239 195.733 148.914 196.409 149.187L202.558 151.722C203.234 151.995 203.559 152.788 203.286 153.464C203.013 154.14 202.22 154.465 201.544 154.192L195.382 151.657C194.719 151.371 194.394 150.591 194.667 149.915Z" fill="url(#paint11_linear_11130_36050)"/>
<path fill-rule="evenodd" clip-rule="evenodd" d="M133.544 187.121H230.524C232.318 187.121 233.787 188.59 233.787 190.384C233.787 192.178 232.318 193.647 230.524 193.647H133.544C131.75 193.647 130.281 192.178 130.281 190.384C130.294 188.59 131.75 187.121 133.544 187.121Z" fill="#62A7EC"/>
<path d="M230.536 194.245H133.556C131.424 194.245 129.695 192.516 129.695 190.384C129.695 188.252 131.424 186.523 133.556 186.523H230.536C232.668 186.523 234.397 188.252 234.397 190.384C234.384 192.516 232.655 194.245 230.536 194.245ZM133.543 187.719C132.074 187.719 130.878 188.915 130.878 190.384C130.878 191.853 132.074 193.049 133.543 193.049H230.523C231.992 193.049 233.188 191.853 233.188 190.384C233.188 188.915 231.992 187.719 230.523 187.719H133.543Z" fill="#0575E6"/>
<path fill-rule="evenodd" clip-rule="evenodd" d="M133.544 187.121H198.96V193.647H133.544C131.75 193.647 130.281 192.178 130.281 190.384C130.294 188.59 131.75 187.121 133.544 187.121Z" fill="#0575E6"/>
<path d="M158.255 174.265V180.18H161.596C161.856 180.18 162.064 180.245 162.207 180.375C162.35 180.505 162.415 180.661 162.415 180.869C162.415 181.064 162.35 181.233 162.207 181.35C162.064 181.48 161.856 181.532 161.596 181.532H157.618C157.254 181.532 157.007 181.454 156.851 181.298C156.695 181.142 156.617 180.882 156.617 180.531V174.278C156.617 173.94 156.695 173.693 156.838 173.524C156.994 173.355 157.189 173.277 157.423 173.277C157.67 173.277 157.865 173.355 158.021 173.524C158.177 173.68 158.255 173.927 158.255 174.265ZM166.51 173.264C167.355 173.264 168.07 173.433 168.681 173.771C169.279 174.109 169.747 174.603 170.046 175.227C170.358 175.851 170.514 176.592 170.514 177.45C170.514 178.074 170.423 178.646 170.254 179.166C170.085 179.686 169.825 180.128 169.487 180.505C169.149 180.882 168.733 181.168 168.239 181.363C167.745 181.558 167.173 181.662 166.536 181.662C165.899 181.662 165.327 181.558 164.833 181.35C164.326 181.142 163.91 180.856 163.572 180.479C163.234 180.102 162.987 179.66 162.805 179.127C162.636 178.607 162.545 178.035 162.545 177.424C162.545 176.8 162.636 176.228 162.818 175.708C163 175.188 163.26 174.746 163.598 174.382C163.936 174.018 164.352 173.732 164.833 173.537C165.327 173.368 165.886 173.264 166.51 173.264ZM168.837 177.45C168.837 176.852 168.746 176.345 168.551 175.903C168.356 175.461 168.083 175.136 167.732 174.915C167.381 174.694 166.965 174.577 166.51 174.577C166.185 174.577 165.873 174.642 165.6 174.759C165.327 174.889 165.08 175.058 164.885 175.305C164.69 175.539 164.521 175.838 164.404 176.215C164.287 176.579 164.235 176.995 164.235 177.45C164.235 177.918 164.287 178.334 164.404 178.698C164.521 179.075 164.69 179.374 164.898 179.621C165.106 179.868 165.353 180.05 165.626 180.167C165.899 180.284 166.198 180.349 166.536 180.349C166.952 180.349 167.342 180.245 167.693 180.037C168.044 179.829 168.33 179.504 168.538 179.062C168.733 178.633 168.837 178.087 168.837 177.45ZM176.689 180.609L176.299 179.595H172.997L172.607 180.635C172.451 181.038 172.321 181.311 172.217 181.454C172.113 181.597 171.931 181.662 171.697 181.662C171.489 181.662 171.307 181.584 171.151 181.441C170.995 181.285 170.917 181.116 170.917 180.921C170.917 180.804 170.93 180.7 170.969 180.583C171.008 180.466 171.073 180.297 171.151 180.089L173.231 174.811C173.296 174.655 173.361 174.473 173.439 174.265C173.517 174.057 173.608 173.875 173.699 173.732C173.79 173.589 173.92 173.472 174.076 173.394C174.232 173.303 174.414 173.264 174.648 173.264C174.882 173.264 175.064 173.303 175.22 173.394C175.376 173.485 175.493 173.589 175.597 173.732C175.688 173.875 175.766 174.018 175.831 174.174C175.896 174.33 175.974 174.538 176.078 174.798L178.197 180.037C178.366 180.44 178.444 180.726 178.444 180.908C178.444 181.103 178.366 181.272 178.21 181.428C178.054 181.584 177.859 181.662 177.638 181.662C177.508 181.662 177.404 181.636 177.3 181.597C177.209 181.545 177.131 181.493 177.066 181.415C177.001 181.337 176.936 181.22 176.858 181.051C176.793 180.882 176.728 180.739 176.689 180.609ZM173.426 178.347H175.857L174.635 174.993L173.426 178.347ZM180.667 173.407H182.812C183.371 173.407 183.852 173.459 184.242 173.563C184.645 173.667 185.009 173.862 185.334 174.148C186.179 174.876 186.608 175.968 186.608 177.45C186.608 177.944 186.569 178.386 186.478 178.789C186.387 179.192 186.257 179.556 186.088 179.881C185.906 180.206 185.685 180.492 185.412 180.752C185.191 180.947 184.957 181.103 184.697 181.22C184.437 181.337 184.164 181.415 183.865 181.467C183.566 181.519 183.228 181.545 182.864 181.545H180.706C180.407 181.545 180.186 181.506 180.03 181.415C179.874 181.324 179.783 181.194 179.731 181.038C179.679 180.869 179.666 180.661 179.666 180.401V174.447C179.666 174.096 179.744 173.836 179.9 173.68C180.056 173.485 180.316 173.407 180.667 173.407ZM181.304 174.707V180.219H182.552C182.825 180.219 183.046 180.206 183.189 180.193C183.345 180.18 183.501 180.141 183.67 180.076C183.839 180.011 183.982 179.933 184.099 179.829C184.645 179.361 184.931 178.568 184.931 177.424C184.931 176.618 184.814 176.02 184.567 175.617C184.32 175.214 184.021 174.967 183.67 174.85C183.319 174.746 182.89 174.681 182.383 174.681H181.304V174.707ZM188.116 180.661V174.265C188.116 173.927 188.194 173.68 188.337 173.511C188.493 173.342 188.688 173.264 188.922 173.264C189.169 173.264 189.364 173.342 189.52 173.511C189.676 173.68 189.754 173.927 189.754 174.265V180.661C189.754 180.999 189.676 181.246 189.52 181.415C189.364 181.584 189.169 181.662 188.922 181.662C188.688 181.662 188.493 181.584 188.337 181.415C188.194 181.246 188.116 180.999 188.116 180.661ZM193.745 174.252L196.904 179.036V174.2C196.904 173.888 196.969 173.654 197.112 173.498C197.242 173.342 197.424 173.264 197.658 173.264C197.892 173.264 198.087 173.342 198.217 173.498C198.36 173.654 198.425 173.888 198.425 174.2V180.583C198.425 181.298 198.126 181.649 197.541 181.649C197.398 181.649 197.255 181.623 197.138 181.584C197.021 181.545 196.904 181.48 196.8 181.376C196.696 181.285 196.605 181.181 196.514 181.051C196.423 180.921 196.332 180.804 196.254 180.674L193.173 175.942V180.7C193.173 181.012 193.095 181.246 192.952 181.402C192.809 181.558 192.627 181.636 192.393 181.636C192.159 181.636 191.977 181.558 191.834 181.389C191.691 181.233 191.626 180.999 191.626 180.687V174.46C191.626 174.2 191.652 173.979 191.717 173.836C191.782 173.667 191.899 173.537 192.068 173.433C192.237 173.329 192.406 173.277 192.588 173.277C192.731 173.277 192.861 173.303 192.965 173.355C193.069 173.407 193.16 173.472 193.238 173.55C193.316 173.628 193.394 173.732 193.485 173.862C193.563 173.979 193.654 174.109 193.745 174.252ZM207.642 178.23V179.79C207.642 179.998 207.616 180.167 207.577 180.284C207.538 180.414 207.46 180.518 207.356 180.622C207.252 180.726 207.109 180.817 206.94 180.908C206.446 181.168 205.978 181.363 205.523 181.493C205.068 181.61 204.574 181.675 204.041 181.675C203.417 181.675 202.845 181.584 202.338 181.389C201.831 181.194 201.389 180.921 201.025 180.557C200.661 180.193 200.388 179.751 200.193 179.231C199.998 178.711 199.907 178.126 199.907 177.489C199.907 176.852 199.998 176.28 200.193 175.76C200.375 175.24 200.661 174.785 201.025 174.421C201.389 174.057 201.831 173.771 202.364 173.576C202.884 173.381 203.482 173.29 204.145 173.29C204.691 173.29 205.172 173.368 205.601 173.511C206.017 173.654 206.368 173.836 206.628 174.057C206.888 174.278 207.083 174.512 207.226 174.759C207.356 175.006 207.421 175.227 207.421 175.422C207.421 175.63 207.343 175.799 207.187 175.955C207.031 176.098 206.849 176.176 206.641 176.176C206.524 176.176 206.407 176.15 206.303 176.098C206.199 176.046 206.108 175.968 206.03 175.864C205.822 175.552 205.653 175.305 205.51 175.149C205.367 174.993 205.185 174.85 204.938 174.733C204.704 174.616 204.392 174.564 204.028 174.564C203.651 174.564 203.313 174.629 203.014 174.759C202.715 174.889 202.455 175.084 202.247 175.331C202.039 175.578 201.87 175.89 201.753 176.254C201.636 176.618 201.584 177.021 201.584 177.45C201.584 178.399 201.805 179.14 202.247 179.647C202.689 180.154 203.3 180.414 204.08 180.414C204.457 180.414 204.821 180.362 205.146 180.258C205.484 180.154 205.822 180.011 206.16 179.829V178.49H204.886C204.574 178.49 204.353 178.438 204.197 178.347C204.041 178.256 203.963 178.1 203.963 177.879C203.963 177.697 204.028 177.554 204.158 177.424C204.288 177.307 204.47 177.242 204.691 177.242H206.563C206.797 177.242 206.992 177.268 207.148 177.307C207.304 177.346 207.434 177.437 207.538 177.58C207.59 177.736 207.642 177.944 207.642 178.23Z" fill="white"/>
<path d="M302.178 165.841C301.528 163.8 300.592 161.889 299.422 160.147L301.996 154.57L296.107 149.318L290.868 152.516C289.009 151.554 287.007 150.852 284.901 150.436L282.782 144.677L274.904 145.132L273.461 151.099C271.42 151.749 269.509 152.685 267.767 153.855L262.19 151.268L259.369 154.44L256.938 157.17L260.136 162.409C259.174 164.268 258.472 166.27 258.056 168.376L252.297 170.495L252.752 178.373L258.719 179.816C259.369 181.857 260.305 183.768 261.475 185.51L258.888 191.087L261.618 193.518L264.79 196.352L270.029 193.154C271.888 194.116 273.89 194.818 275.996 195.234L278.115 200.993L285.993 200.538L287.436 194.571C289.477 193.921 291.388 192.985 293.13 191.815L298.707 194.389L301.541 191.217L303.972 188.487L300.774 183.248C301.736 181.389 302.438 179.387 302.854 177.281L308.613 175.162L308.158 167.284L302.178 165.841ZM281.183 185.835C274.007 186.238 267.832 180.726 267.429 173.563C267.026 166.387 272.538 160.212 279.701 159.809C286.864 159.406 293.052 164.918 293.468 172.081C293.871 179.244 288.346 185.432 281.183 185.835Z" fill="url(#paint12_linear_11130_36050)"/>
<path fill-rule="evenodd" clip-rule="evenodd" d="M309.446 158.535L313.983 159.042L313.437 162.942C311.188 164.398 309.368 164.203 308.406 163.059L309.446 158.535Z" fill="#6686FF"/>
<path fill-rule="evenodd" clip-rule="evenodd" d="M317.584 151.463C314.594 150.397 311.63 149.331 308.666 148.265C307.249 149.812 305.39 157.417 306.521 159.692C307.951 162.539 312.085 161.915 313.645 159.991C315.205 158.236 317.701 153.491 317.584 151.463Z" fill="#9BCDFF"/>
<path fill-rule="evenodd" clip-rule="evenodd" d="M314.113 152.698C312.748 149.877 309.212 152.048 307.691 151.229C306.625 149.994 301.438 144.547 303.323 141.869C304.571 140.27 309.862 141.895 311.747 142.818C313.281 143.494 314.919 144.573 316.102 145.6C317.337 146.796 317.831 148.33 317.415 149.955C318.468 149.591 320.457 151.879 320.405 152.75C320.691 155.441 316.791 155.493 315.101 157.885C313.892 157.508 314.503 153.075 314.113 152.698Z" fill="#021B79"/>
<path fill-rule="evenodd" clip-rule="evenodd" d="M314.408 156.624C312.757 155.753 312.978 154.999 314.265 154.102C314.707 153.608 315.526 153.296 315.864 154.076C316.033 154.752 314.967 156.052 314.408 156.624Z" fill="#9BCDFF"/>
<path fill-rule="evenodd" clip-rule="evenodd" d="M334.003 235.872L332.482 237.887C330.961 241.007 324.487 244.374 327.919 247.286L339.516 239.421C338.567 237.978 337.643 236.366 335.953 235.521L334.003 235.872Z" fill="#0B31C0"/>
<path fill-rule="evenodd" clip-rule="evenodd" d="M334.695 233.493L331.172 235.924L332.485 237.887C333.889 237.471 335.111 236.6 335.956 235.521L334.695 233.493Z" fill="#6686FF"/>
<path fill-rule="evenodd" clip-rule="evenodd" d="M304.218 241.137L301.8 241.969C298.797 243.737 291.582 242.957 292.791 247.221L306.792 247.156C306.831 245.453 306.961 243.581 306.025 241.93L304.218 241.137Z" fill="#021B79"/>
<path fill-rule="evenodd" clip-rule="evenodd" d="M306.092 239.564L301.828 239.642L301.789 241.982C303.219 242.437 304.714 242.385 306.027 241.943L306.092 239.564Z" fill="#6686FF"/>
<path fill-rule="evenodd" clip-rule="evenodd" d="M316.428 203.151L307.432 196.938L301.062 215.501L301.465 240.721L307.407 240.292L308.303 216.827L316.428 203.151Z" fill="#021B79"/>
<path fill-rule="evenodd" clip-rule="evenodd" d="M310.551 184.354L319.599 192.102C320.327 193.792 321.094 194.819 319.924 201.826L335.745 234.144L330.103 237.628C318.533 220.741 307.834 201.618 306.352 194.195L310.551 184.354Z" fill="#0B31C0"/>
<path fill-rule="evenodd" clip-rule="evenodd" d="M321.029 167.518C320.093 164.606 317.129 164.138 313.957 161.525C312.189 163.956 309.381 162.656 307.301 164.073C300.281 170.846 305.585 185.484 306.352 194.207C310.746 193.518 315.14 192.803 319.573 192.114C319.404 183.911 322.29 170.235 321.029 167.518Z" fill="#0E64BA"/>
<path fill-rule="evenodd" clip-rule="evenodd" d="M308.758 178.048L303.974 175.383L299.866 182.988L287.984 191.568L289.323 193.83L303.064 186.238L308.758 178.048Z" fill="#6686FF"/>
<path fill-rule="evenodd" clip-rule="evenodd" d="M307.182 165.139L314.345 169.13L308.599 179.387L303.711 176.163L307.182 165.139Z" fill="#16518C"/>
<path fill-rule="evenodd" clip-rule="evenodd" d="M306.791 164.723L313.967 168.753L308.208 179.01L303.32 175.786L306.791 164.723Z" fill="#0E64BA"/>
<path fill-rule="evenodd" clip-rule="evenodd" d="M287.606 191.789C286.761 192.231 284.616 190.931 284.525 191.659C284.434 192.426 286.215 192.595 286.163 192.868C286.293 194.025 283.173 194.74 283.394 195.663C283.927 197.964 287.736 197.015 289.504 193.349L288.672 191.724C288.555 191.607 288.633 191.308 287.606 191.789Z" fill="#6686FF"/>
<path fill-rule="evenodd" clip-rule="evenodd" d="M182.03 10.5957C167.041 11.7007 156.433 27.8467 142.289 34.4767C144.278 61.7247 163.219 91.3127 182.03 103.299C200.828 91.3127 219.782 61.7247 221.771 34.4767C207.627 27.8467 197.019 11.6877 182.03 10.5957Z" fill="#0575E6"/>
<path fill-rule="evenodd" clip-rule="evenodd" d="M182.046 16.6279C169.007 17.5769 159.764 31.6169 147.453 37.4019C149.195 61.1139 165.679 86.8539 182.046 97.2929C198.413 86.8409 214.897 61.1009 216.613 37.3889C204.328 31.6169 195.085 17.5769 182.046 16.6279Z" fill="#0627A3"/>
<path fill-rule="evenodd" clip-rule="evenodd" d="M182.031 72.6577C192.808 72.6577 201.609 63.9087 201.609 53.0797C201.609 42.3027 192.808 33.5537 182.031 33.5537C171.254 33.5537 162.453 42.3027 162.453 53.0797C162.453 63.9087 171.254 72.6577 182.031 72.6577Z" fill="white"/>
<path d="M200.506 47.0472C200.324 47.0472 200.155 46.9302 200.076 46.7482C198.88 43.4592 196.839 40.5472 194.187 38.3372C193.992 38.1812 193.967 37.8952 194.136 37.7002C194.292 37.5052 194.577 37.4792 194.772 37.6482C197.554 39.9622 199.673 43.0042 200.934 46.4362C201.025 46.6702 200.896 46.9302 200.661 47.0082C200.609 47.0472 200.558 47.0472 200.506 47.0472Z" fill="#0575E6"/>
<path d="M182.033 73.1126C176.677 73.1126 171.646 71.0326 167.863 67.2496C164.08 63.4666 162 58.4356 162 53.0796C162 42.0686 170.983 33.0986 182.033 33.0986C185.413 33.0986 188.637 33.9176 191.614 35.5296C191.835 35.6466 191.913 35.9196 191.796 36.1406C191.679 36.3616 191.406 36.4396 191.185 36.3226C188.351 34.7756 185.27 33.9956 182.033 33.9956C171.49 33.9956 162.897 42.5496 162.897 53.0796C162.897 63.6226 171.477 72.2156 182.033 72.2156C192.576 72.2156 201.169 63.6356 201.169 53.0796C201.169 51.6236 201 50.2456 200.675 48.9976C200.61 48.7636 200.753 48.5166 201 48.4516C201.234 48.3866 201.481 48.5296 201.546 48.7766C201.897 50.1026 202.066 51.5586 202.066 53.0926C202.066 64.1166 193.083 73.1126 182.033 73.1126Z" fill="#0575E6"/>
<path fill-rule="evenodd" clip-rule="evenodd" d="M176.115 57.4349L167.717 52.9759C167.314 52.7289 167.21 53.1839 167.366 53.4309L174.958 61.7249C175.764 62.4269 176.375 62.4269 177.285 61.7249C183.759 55.9529 190.181 50.1939 196.668 44.4219C196.876 44.2139 196.668 43.8109 196.317 44.0189L176.115 57.4349Z" fill="#0627A3"/>
<path fill-rule="evenodd" clip-rule="evenodd" d="M57.7674 230.542H69.6754C71.6904 230.542 73.3674 232.219 73.3674 234.286C73.3674 236.301 71.6904 237.978 69.6754 237.978H57.7674C55.7004 237.978 54.0234 236.301 54.0234 234.286C54.0234 232.219 55.7004 230.542 57.7674 230.542Z" fill="url(#paint13_radial_11130_36050)"/>
<path fill-rule="evenodd" clip-rule="evenodd" d="M63.875 202.293H63.732H63.68H63.576H63.524C61.899 202.293 60.222 202.293 58.558 202.436C56.738 202.631 54.97 202.93 53.345 203.619C49.211 206.427 43.946 218.933 44.726 223.756C45.766 226.616 53.15 226.317 58.558 227.006V227.695H67.814V227.149C73.274 226.265 81.594 226.798 82.686 223.756C83.518 218.933 78.253 206.427 74.119 203.619C70.908 202.345 67.268 202.293 63.875 202.293Z" fill="#0E64BA"/>
<path fill-rule="evenodd" clip-rule="evenodd" d="M46.7951 247.728L45.5601 244.283C45.0661 243.893 43.6881 243.646 43.0511 243.594C40.8411 243.737 36.7071 243.698 36.6031 245.219C36.4991 247.39 41.8161 248.365 43.5451 248.222L46.7951 247.728Z" fill="#021B79"/>
<path fill-rule="evenodd" clip-rule="evenodd" d="M49.8886 246.896L48.6146 243.152L45.6116 244.387C45.1696 245.765 45.8066 247 46.7946 247.728L49.8886 246.896Z" fill="#6686FF"/>
<path fill-rule="evenodd" clip-rule="evenodd" d="M49.4447 247.624C48.3657 246.298 47.4817 244.725 47.4297 242.892C54.9177 240.279 85.2857 223.6 90.1607 228.956C96.1667 237.146 59.9357 243.984 49.4447 247.624Z" fill="#021B79"/>
<path fill-rule="evenodd" clip-rule="evenodd" d="M80.6094 247.728L81.8444 244.283C82.3384 243.893 83.7684 243.646 84.4054 243.594C86.6154 243.737 90.7104 243.698 90.8014 245.219C90.9444 247.39 85.5884 248.365 83.9114 248.222L80.6094 247.728Z" fill="#0B31C0"/>
<path fill-rule="evenodd" clip-rule="evenodd" d="M77.5156 246.896L78.7896 243.152L81.7926 244.387C82.2866 245.765 81.6496 247 80.6096 247.728L77.5156 246.896Z" fill="#6686FF"/>
<path fill-rule="evenodd" clip-rule="evenodd" d="M78.0083 247.624C79.0483 246.298 79.9323 244.725 79.9713 242.892C72.4833 240.279 42.1673 223.6 37.2923 228.956C31.2863 237.146 67.5173 243.984 78.0083 247.624Z" fill="#0B31C0"/>
<path fill-rule="evenodd" clip-rule="evenodd" d="M51.5655 214.994H75.8885C76.6295 214.994 77.2665 215.631 77.2665 216.372V232.661C77.2665 233.454 76.6295 234.039 75.8885 234.039H51.5655C50.7725 234.039 50.1875 233.454 50.1875 232.661V216.372C50.1875 215.631 50.7855 214.994 51.5655 214.994Z" fill="#62A7EC"/>
<path fill-rule="evenodd" clip-rule="evenodd" d="M63.7227 222.131C63.7227 222.131 63.7747 222.131 63.8267 222.131C63.7747 222.274 63.7747 222.43 63.7747 222.573C63.7747 223.652 64.6067 224.497 65.6987 224.497C65.8417 224.497 65.9457 224.497 66.0887 224.445C66.0887 224.497 66.0887 224.497 66.0887 224.549C66.0887 225.823 65.0487 226.915 63.7227 226.915C62.3967 226.915 61.3047 225.836 61.3047 224.549C61.3177 223.21 62.3967 222.131 63.7227 222.131Z" fill="white"/>
<path fill-rule="evenodd" clip-rule="evenodd" d="M60.7188 198.159C60.7707 200.278 60.7707 202.345 60.8227 204.464C62.4997 206.921 65.7498 206.479 67.1668 204.464L66.9197 197.769L60.7188 198.159Z" fill="#6686FF"/>
<path fill-rule="evenodd" clip-rule="evenodd" d="M63.8224 188.604L56.9844 188.5C58.1154 195.39 57.0364 202.28 63.7314 202.826C63.7834 202.826 63.7834 202.826 63.8354 202.826H63.8874C70.6344 202.28 69.5034 195.39 70.6344 188.5L63.8224 188.604Z" fill="#81C0FF"/>
<path fill-rule="evenodd" clip-rule="evenodd" d="M70.0228 193.622C71.5958 191.061 72.3368 188.799 72.1418 187.031C72.2848 186.784 72.3888 186.485 72.3888 186.199C72.3888 185.406 71.8038 184.717 70.8158 184.379C69.9838 183.586 68.7488 183.053 67.0718 182.754C66.5258 182.117 65.4988 181.675 64.3158 181.675C63.2758 181.675 62.3528 182.026 61.8068 182.559C60.7278 182.611 59.8438 182.702 59.0508 182.949C58.8038 182.897 58.6088 182.897 58.3618 182.897C56.6328 182.897 55.2548 183.781 55.2548 184.912C55.2548 185.159 55.3068 185.406 55.3978 185.601C55.2028 185.991 55.0988 186.433 55.0078 186.875C55.0078 186.875 55.2028 187.668 55.3068 187.811C55.4108 187.954 55.3588 189.488 55.3588 189.579C55.4108 189.722 55.3068 190.658 55.6578 190.957C56.1518 192.088 56.8408 193.219 57.6208 194.207C59.1028 192.582 58.0108 188.942 62.0538 189.28C63.4838 189.28 63.5748 188.487 64.7058 189.137C65.7458 187.655 66.3308 189.722 68.5928 189.137C69.7758 189.241 68.6968 191.464 70.0228 193.622Z" fill="#021B79"/>
<defs>
<linearGradient id="paint0_linear_11130_36050" x1="241.986" y1="74.0175" x2="354.623" y2="74.0175" gradientUnits="userSpaceOnUse">
<stop stop-color="#0627A3"/>
<stop offset="1" stop-color="#2C95FE"/>
</linearGradient>
<linearGradient id="paint1_linear_11130_36050" x1="265.475" y1="74.0171" x2="331.137" y2="74.0171" gradientUnits="userSpaceOnUse">
<stop stop-color="#0627A3"/>
<stop offset="1" stop-color="#2C95FE"/>
</linearGradient>
<linearGradient id="paint2_linear_11130_36050" x1="296.287" y1="74.0172" x2="300.324" y2="74.0172" gradientUnits="userSpaceOnUse">
<stop stop-color="#0627A3"/>
<stop offset="1" stop-color="#2C95FE"/>
</linearGradient>
<linearGradient id="paint3_linear_11130_36050" x1="244.013" y1="74.0177" x2="352.613" y2="74.0177" gradientUnits="userSpaceOnUse">
<stop stop-color="#0627A3"/>
<stop offset="1" stop-color="#2C95FE"/>
</linearGradient>
<linearGradient id="paint4_linear_11130_36050" x1="258.31" y1="33.4112" x2="338.297" y2="33.4112" gradientUnits="userSpaceOnUse">
<stop stop-color="#0627A3"/>
<stop offset="1" stop-color="#2C95FE"/>
</linearGradient>
<linearGradient id="paint5_linear_11130_36050" x1="258.306" y1="114.622" x2="338.301" y2="114.622" gradientUnits="userSpaceOnUse">
<stop stop-color="#0627A3"/>
<stop offset="1" stop-color="#2C95FE"/>
</linearGradient>
<linearGradient id="paint6_linear_11130_36050" x1="179.928" y1="130.027" x2="184.143" y2="122.728" gradientUnits="userSpaceOnUse">
<stop stop-color="#2C95FE"/>
<stop offset="1" stop-color="white"/>
</linearGradient>
<linearGradient id="paint7_linear_11130_36050" x1="192.722" y1="135.685" x2="197.27" y2="127.807" gradientUnits="userSpaceOnUse">
<stop stop-color="#2C95FE"/>
<stop offset="1" stop-color="white"/>
</linearGradient>
<linearGradient id="paint8_linear_11130_36050" x1="196.995" y1="141.16" x2="200.964" y2="134.286" gradientUnits="userSpaceOnUse">
<stop stop-color="#2C95FE"/>
<stop offset="1" stop-color="white"/>
</linearGradient>
<linearGradient id="paint9_linear_11130_36050" x1="186.649" y1="131.747" x2="191.28" y2="123.726" gradientUnits="userSpaceOnUse">
<stop stop-color="#2C95FE"/>
<stop offset="1" stop-color="white"/>
</linearGradient>
<linearGradient id="paint10_linear_11130_36050" x1="198.87" y1="147.299" x2="201.866" y2="142.11" gradientUnits="userSpaceOnUse">
<stop stop-color="#2C95FE"/>
<stop offset="1" stop-color="white"/>
</linearGradient>
<linearGradient id="paint11_linear_11130_36050" x1="198.096" y1="153.222" x2="199.869" y2="150.151" gradientUnits="userSpaceOnUse">
<stop stop-color="#2C95FE"/>
<stop offset="1" stop-color="white"/>
</linearGradient>
<linearGradient id="paint12_linear_11130_36050" x1="252.513" y1="174.396" x2="308.377" y2="171.231" gradientUnits="userSpaceOnUse">
<stop stop-color="#0B31C0"/>
<stop offset="1" stop-color="#0627A3"/>
</linearGradient>
<radialGradient id="paint13_radial_11130_36050" cx="0" cy="0" r="1" gradientUnits="userSpaceOnUse" gradientTransform="translate(63.7026 234.265) scale(7.32745 7.32744)">
<stop offset="0.574" stop-color="#0C0D13"/>
<stop offset="0.798" stop-color="#0C0D13"/>
<stop offset="1" stop-color="#0C0D13"/>
</radialGradient>
</defs>
</svg>
