<svg width="433" height="260" viewBox="0 0 433 260" fill="none" xmlns="http://www.w3.org/2000/svg">
<path d="M291.755 143.535C291.787 144.029 291.787 144.524 291.753 145.017C291.683 146.113 291.51 147.504 290.905 148.458C290.336 149.36 289.44 149.236 288.486 149.177C281.062 148.687 273.64 148.505 266.199 148.793C265.149 148.833 263.98 149.026 262.932 148.943C262.67 148.924 262.393 148.924 262.18 148.763C261.479 148.24 261.642 146.638 261.624 145.892C261.559 143.219 261.962 139.805 263.452 137.499C264.057 136.569 264.764 136.711 265.756 136.923C267.245 137.235 268.732 137.65 270.16 138.19C271.53 138.708 272.829 139.377 273.993 140.224C274.514 140.599 275.007 141.013 275.467 141.462C277.557 139.787 279.814 138.335 282.239 137.162C283.695 136.46 285.449 135.502 287.069 135.285C288.347 135.114 288.895 135.939 289.531 136.945C290.777 138.913 291.612 141.202 291.755 143.535Z" fill="#D6E9FC"/>
<path d="M291.755 143.535C291.787 144.029 291.787 144.524 291.753 145.017C291.683 146.113 291.51 147.504 290.905 148.458C290.336 149.36 289.44 149.236 288.486 149.177C281.062 148.687 273.64 148.505 266.199 148.793C265.149 148.833 263.98 149.026 262.932 148.943C262.67 148.924 262.393 148.924 262.18 148.763C261.479 148.24 261.642 146.638 261.624 145.892C261.559 143.219 261.962 139.805 263.452 137.499C264.057 136.569 264.764 136.711 265.756 136.923C267.245 137.235 268.732 137.65 270.16 138.19C271.53 138.708 272.829 139.377 273.993 140.224C272.093 139.222 269.968 138.725 267.821 138.78C266.797 138.808 265.616 139.076 265.183 140.003C264.837 140.743 265.132 141.658 265.694 142.251C266.259 142.841 267.035 143.174 267.801 143.462C272.65 145.275 277.937 145.805 283.093 145.307C286.032 145.022 288.931 144.408 291.755 143.535Z" fill="#B5CDE5"/>
<path d="M253.875 150.766H299.518V185.315H253.875V150.766Z" fill="#204CF2"/>
<path d="M272.586 150.764H299.52V185.314H272.586V150.764Z" fill="#3A62F8"/>
<path d="M282.367 150.764H290.454V185.314H282.367V150.764Z" fill="#D6E9FC"/>
<path d="M258.75 150.764H266.837V185.314H258.75V150.764Z" fill="#B5CDE5"/>
<path opacity="0.5" d="M299.518 156.624L253.875 157.694V150.767H299.518V156.624Z" fill="#204CF2"/>
<path d="M251.625 146.655H301.772V154.877H251.625V146.655Z" fill="#3A62F8"/>
<path d="M269.766 146.655H301.769V154.877H269.766V146.655Z" fill="#577AFF"/>
<path d="M283.695 146.655H291.782V154.877H283.695V146.655Z" fill="#D6E9FC"/>
<path d="M256.984 146.655H265.071V154.877H256.984V146.655Z" fill="#B5CDE5"/>
<path d="M237.977 190.465H315.417V243.359H237.977V190.465Z" fill="#0575E6"/>
<path d="M265.484 190.465H315.419V243.359H265.484V190.465Z" fill="#3777B8"/>
<path d="M281.656 190.465H298.537V243.359H281.656V190.465Z" fill="#D6E9FC"/>
<path d="M245.391 190.465H257.86V243.359H245.391V190.465Z" fill="#B5CDE5"/>
<path opacity="0.5" d="M315.417 197.799L237.977 199.139V190.464H315.417V197.799Z" fill="#0575E6"/>
<path d="M235.156 185.313H318.239V195.612H235.156V185.313Z" fill="#3777B8"/>
<path d="M261.953 185.313H318.237V195.612H261.953V185.313Z" fill="#4C8FD3"/>
<path d="M284.891 185.313H301.771V195.612H284.891V185.313Z" fill="#D6E9FC"/>
<path d="M242.836 185.313H255.305V195.612H242.836V185.313Z" fill="#B5CDE5"/>
<path d="M175.646 118.749C175.678 119.242 175.677 119.738 175.643 120.231C175.574 121.327 175.4 122.718 174.796 123.672C174.226 124.574 173.33 124.45 172.377 124.391C164.953 123.901 157.53 123.719 150.09 124.007C149.04 124.047 147.871 124.24 146.823 124.157C146.56 124.138 146.283 124.138 146.07 123.976C145.369 123.454 145.533 121.852 145.514 121.106C145.45 118.433 145.853 115.019 147.343 112.713C147.948 111.783 148.654 111.925 149.646 112.137C151.136 112.449 152.622 112.864 154.05 113.404C155.42 113.922 156.719 114.59 157.883 115.438C158.405 115.813 158.898 116.227 159.358 116.675C161.448 115.001 163.704 113.549 166.13 112.376C167.586 111.674 169.341 110.716 170.96 110.499C172.238 110.327 172.786 111.153 173.422 112.159C174.667 114.127 175.502 116.416 175.646 118.749Z" fill="#D6E9FC"/>
<path d="M175.646 118.749C175.678 119.242 175.677 119.738 175.643 120.231C175.574 121.327 175.4 122.718 174.796 123.672C174.226 124.574 173.33 124.45 172.377 124.391C164.953 123.901 157.53 123.719 150.09 124.007C149.04 124.047 147.871 124.24 146.823 124.157C146.56 124.138 146.283 124.138 146.07 123.976C145.369 123.454 145.533 121.852 145.514 121.106C145.45 118.433 145.853 115.019 147.343 112.713C147.948 111.783 148.654 111.925 149.646 112.137C151.136 112.449 152.622 112.864 154.05 113.404C155.42 113.922 156.719 114.59 157.883 115.438C155.983 114.436 153.858 113.939 151.711 113.994C150.688 114.022 149.507 114.289 149.074 115.217C148.727 115.957 149.023 116.872 149.585 117.465C150.149 118.055 150.926 118.388 151.691 118.676C156.541 120.489 161.827 121.019 166.983 120.521C169.922 120.236 172.821 119.622 175.646 118.749Z" fill="#B5CDE5"/>
<path d="M137.766 125.979H183.408V177.593H137.766V125.979Z" fill="#1C49F2"/>
<path d="M156.477 125.978H183.41V177.592H156.477V125.978Z" fill="#55AAFF"/>
<path d="M166.258 125.978H174.345V177.592H166.258V125.978Z" fill="#D6E9FC"/>
<path d="M142.648 125.978H150.735V177.592H142.648V125.978Z" fill="#B5CDE5"/>
<path opacity="0.5" d="M183.408 131.838L137.766 132.908V125.98H183.408V131.838Z" fill="#1C49F2"/>
<path d="M135.516 121.869H185.663V130.09H135.516V121.869Z" fill="#2350F9"/>
<path d="M153.656 121.869H185.659V130.09H153.656V121.869Z" fill="#55AAFF"/>
<path d="M167.586 121.869H175.673V130.09H167.586V121.869Z" fill="#D6E9FC"/>
<path d="M140.883 121.869H148.97V130.09H140.883V121.869Z" fill="#B5CDE5"/>
<path d="M121.867 182.744H199.308V243.359H121.867V182.744Z" fill="#2747C1"/>
<path d="M149.375 182.744H199.31V243.359H149.375V182.744Z" fill="#3F88D1"/>
<path d="M165.547 182.744H182.427V243.359H165.547V182.744Z" fill="#D6E9FC"/>
<path d="M129.281 182.744H141.751V243.359H129.281V182.744Z" fill="#B5CDE5"/>
<path opacity="0.5" d="M199.307 190.077L121.867 191.417V182.742H199.307V190.077Z" fill="#2747C1"/>
<path d="M119.047 177.593H202.129V187.891H119.047V177.593Z" fill="#3F88D1"/>
<path d="M145.844 177.593H202.127V187.891H145.844V177.593Z" fill="#5598DB"/>
<path d="M168.781 177.593H185.662V187.891H168.781V177.593Z" fill="#D6E9FC"/>
<path d="M126.727 177.593H139.196V187.891H126.727V177.593Z" fill="#B5CDE5"/>
<path d="M245.561 5.40625C240.712 8.85932 237.596 14.3737 237.141 20.3189C237.112 20.7252 237.097 21.1324 237.095 21.5397C234.421 21.5762 232.156 24.12 230.928 26.2701C229.539 28.7035 228.95 31.5264 229.101 34.3145C229.223 36.5737 229.443 38.9779 230.015 41.1723C230.727 43.9063 232.828 48.4424 236.284 47.8331C236.393 47.814 235.765 43.7804 235.813 43.7722C232.73 44.3153 230.728 40.6543 229.877 38.2077C229.78 37.929 229.691 37.3371 229.564 36.9171C229.575 36.6243 229.586 36.3311 229.614 36.0393C229.74 34.7026 230.051 33.3898 230.536 32.1379C231.531 29.5864 233.456 26.764 236.168 25.862C236.557 25.7334 236.961 25.6575 237.369 25.6363C237.442 26.2478 237.522 26.8584 237.6 27.4668C237.819 29.1883 238.189 33.0459 240.795 32.573C243.102 32.1543 242.013 27.9885 241.829 26.5032C241.554 24.2791 240.426 22.1239 238.028 21.6218L238.023 21.6214C238.038 21.5543 238.049 21.4868 238.065 21.4203C239.175 16.5945 242.001 12.3375 246.032 9.46767C246.589 9.07138 245.048 5.77153 245.561 5.40625ZM241.385 27.7513C241.171 28.1298 240.839 28.4185 240.324 28.512C239.255 28.7063 238.383 27.8909 237.933 27.0221C237.73 26.6286 237.638 26.2168 237.555 25.8018L237.557 25.6294C239.128 25.6116 240.519 26.4526 241.385 27.7513Z" fill="#435EC4"/>
<path d="M202.087 39.1917C200.762 36.3064 198.604 33.5146 196.04 31.6211C194.707 30.6375 192.955 29.9283 191.272 29.9402C188.432 25.9248 184.402 22.8544 179.766 20.8916C180.004 20.9924 180.376 22.5338 180.482 22.8065C180.604 23.1252 180.909 24.5686 181.235 24.7068C183.864 25.819 186.308 27.2692 188.496 29.107C188.908 29.4536 189.307 29.817 189.698 30.1878C188.999 30.4156 188.367 30.8099 187.854 31.3365C185.984 33.2446 186.486 36.1833 187.273 38.4547C187.932 40.3578 188.589 42.5038 189.642 44.2368C191.455 47.2215 194.455 44.877 195.179 42.3698C195.927 39.7841 194.918 37.3753 193.997 34.9962C193.837 34.5838 193.666 34.1761 193.483 33.7736C195.245 33.9523 196.935 34.8959 198.29 36.0597C200.178 37.6818 202.571 40.1535 203.191 42.6188C203.829 45.1579 203.256 48.0382 202.051 50.3043C201.92 50.5514 202.661 51.9437 202.766 52.2191C202.872 52.4928 203.653 53.8709 203.52 54.1194C206.152 49.1724 204.258 43.9162 202.087 39.1917ZM193.902 35.4413L193.959 35.9219C194.016 36.6112 193.979 37.3051 193.847 37.9841C193.616 39.1639 193.076 40.3733 192.117 41.1426C191.243 41.8435 190.084 42.1705 189.098 41.5047C188.862 41.3455 188.541 41.0154 188.265 40.6505C188.219 40.4497 188.179 40.2476 188.146 40.0445C187.774 37.7037 188.406 35.1654 190.779 34.1644C191.397 33.9034 192.058 33.7605 192.729 33.743C193.154 34.3614 193.613 35.0309 193.902 35.4413Z" fill="#55AAFF"/>
<path d="M121.101 153.318C115.709 153.977 108.844 157.652 107.31 163.361C101.055 164.632 95.7395 170.332 91.6484 174.745C91.814 174.567 93.4124 174.782 93.6924 174.785C94.0198 174.788 95.5065 175.032 95.7368 174.784C99.0827 171.174 102.669 167.536 107.038 165.185C107.027 167.576 108.482 169.643 111.038 169.826L111.031 169.827H111.051C111.069 169.828 111.086 169.832 111.104 169.833C112.859 169.935 115.79 170.38 117.201 169.045C119.449 166.918 116.975 163.765 114.594 163.279C113.644 163.085 112.59 163.009 111.534 163.006C112.01 161.697 112.833 160.489 113.701 159.451C116.593 155.997 120.745 153.899 125.189 153.356C123.852 153.519 122.446 153.154 121.101 153.318ZM113.375 165.159C114.314 166.67 113.993 168.219 112.876 169.106C111.794 168.294 111.168 166.922 111.118 165.444C111.096 164.803 111.187 164.176 111.357 163.566C111.748 163.736 112.23 163.938 112.344 164.025C112.753 164.337 113.103 164.721 113.375 165.159Z" fill="#577AFF"/>
<path d="M366.387 132.56C361.002 133.9 355.789 136.257 351.398 139.683C351.332 139.735 351.272 139.787 351.21 139.839C351.123 139.542 350.979 139.265 350.786 139.023C349.349 137.245 346.165 136.821 344.049 136.522C339.033 135.816 333.837 136.652 329.713 139.714C329.477 139.888 329.421 141.169 329.366 141.465C329.311 141.76 329.293 143.045 329.055 143.222C332.495 140.668 336.695 139.64 340.944 139.809C343.013 139.891 347.593 140.197 349.645 142.031L349.593 142.307C349.379 143.02 349.267 143.803 349.133 144.691C349.121 144.773 349.107 144.865 349.095 144.959L349.049 145.207C349.057 145.185 349.068 145.164 349.076 145.143C349.021 145.763 349.092 146.404 349.916 145.821C350.523 145.393 350.63 144.663 350.77 143.996C350.839 143.671 350.929 143.316 351.017 142.948C351.407 142.666 351.809 142.402 352.19 142.139C353.581 141.175 355.031 140.301 356.532 139.52C359.451 137.998 362.537 136.862 365.73 136.068C366.232 135.942 365.931 132.673 366.387 132.56Z" fill="#4869E5"/>
<path d="M340.258 169.953C336.862 167.243 332.741 165.567 328.416 165.208C329.939 162.144 330.546 158.384 327.624 156.355C325.607 154.953 322.919 154.014 320.563 153.354C318.2 152.692 315.793 152.511 313.449 153.337C312.534 153.66 312.151 155.463 311.258 155.778C315.357 154.333 319.622 155.999 323.376 157.695C325.705 158.746 327.623 160.14 327.475 162.941C327.436 163.676 327.293 164.413 327.099 165.135C325.297 165.067 322.936 165.017 321.619 166.288C320.794 167.084 319.034 168.508 319.063 169.784C319.103 171.531 321.183 172.332 322.612 171.806C324.124 171.25 325.289 169.573 326.306 168.405C326.503 168.179 326.701 167.932 326.898 167.67C327.72 167.792 328.537 167.948 329.346 168.137C332.547 168.88 335.503 170.347 338.067 172.394C338.136 172.448 340.229 169.929 340.258 169.953ZM325.973 168.113C325.859 168.342 325.606 168.722 325.404 169.034C324.526 169.566 323.511 169.802 322.533 169.236C321.942 168.895 321.502 168.359 321.35 167.757C322.832 167.365 324.579 167.389 326.221 167.582C326.14 167.759 326.061 167.939 325.973 168.113Z" fill="#3777B8"/>
<path d="M266.702 8.26074C263.14 11.0001 261.239 14.6735 260.76 18.8767C259.619 19.4996 258.501 20.1855 257.529 21.0561C255.713 22.6841 254.854 24.7039 254.846 27.1135C254.839 29.2149 254.639 31.5598 255.787 33.4059C255.177 32.4254 256.337 30.3254 255.711 29.3185C255.568 29.1149 255.442 28.8993 255.335 28.6741C255.443 28.2764 255.546 27.8291 255.637 27.6466C256.359 26.181 257.583 25.0482 258.909 24.1302C259.34 23.8319 259.973 23.3568 260.647 22.9381C260.669 24.4289 260.809 25.9794 261.794 27.1117C262.377 27.7816 263.541 28.4908 264.417 27.9052C265.129 27.4296 264.972 26.3839 264.963 25.6424C264.954 24.7919 264.95 23.9519 264.899 23.121L264.889 22.5674C264.884 22.6207 264.876 22.6686 264.868 22.7183C264.776 21.6024 264.582 20.5029 264.142 19.4198C263.576 18.0244 262.932 17.8898 261.988 18.2642C262.175 17.8556 262.377 17.4534 262.599 17.0635C263.658 15.2047 265.087 13.6478 266.777 12.3482C267.439 11.8397 266.079 8.73958 266.702 8.26074ZM262.985 22.084C263.646 22.156 264.09 22.8496 264.389 23.6919C263.879 24.1265 263.064 24.0636 262.305 23.5597C261.899 23.2902 261.595 22.9336 261.359 22.5327C261.944 22.2326 262.519 22.0329 262.985 22.084Z" fill="#5598DB"/>
<path d="M204.586 0C204.833 1.35897 204.703 2.69378 204.047 3.92552C203.901 4.20051 203.604 4.66703 203.245 5.10983C202.949 5.0054 202.648 4.94703 202.346 4.95798C201.41 4.99309 201.255 5.51023 201.368 6.13454C201.363 6.13089 201.357 6.12998 201.352 6.12587L201.38 6.20203C201.493 6.74106 201.787 7.34849 201.952 7.79358C202.157 8.34492 202.315 9.35959 202.712 9.79419L202.725 9.80741L202.781 9.95654C202.77 9.91413 202.763 9.87628 202.755 9.8366C203.259 10.3364 203.686 9.85256 204.243 9.34682C204.34 9.25927 204.421 9.16167 204.511 9.06956C205.236 9.345 205.967 9.78051 206.247 10.0145C206.913 10.5717 207.468 11.2444 207.941 11.9708C207.993 12.0511 208.214 12.4843 208.364 12.7529C208.435 13.069 208.581 13.6002 208.583 13.6103C209.269 17.2544 208.778 21.0737 206.391 24.0087C205.939 24.5637 208.238 27.325 207.82 27.8389C210.336 24.7452 210.741 20.6655 209.893 16.8631C209.263 14.0449 208.17 10.8618 206.664 8.39144C206.387 7.94083 206.08 7.50937 205.745 7.09996C206.122 6.0748 206.218 4.94931 206.015 3.8293C205.775 2.50589 204.825 1.31337 204.586 0Z" fill="#3777B8"/>
<path d="M81.8125 152.579C82.788 152.244 83.7885 152.189 84.7726 152.534C84.9924 152.611 85.3705 152.778 85.7376 152.993C85.6911 153.217 85.6875 153.448 85.7271 153.673C85.8589 154.361 86.2583 154.417 86.7066 154.263C86.7043 154.267 86.7043 154.272 86.7021 154.276L86.755 154.246C87.1403 154.102 87.5558 153.816 87.8654 153.644C88.2494 153.43 88.9809 153.199 89.2572 152.857C89.2604 152.853 89.2622 152.849 89.2654 152.845L89.3694 152.787C89.3393 152.8 89.3119 152.809 89.2837 152.82C89.596 152.391 89.1906 152.131 88.7538 151.776C88.6781 151.714 88.5973 151.666 88.5189 151.61C88.6402 151.043 88.8792 150.454 89.0205 150.221C89.3571 149.666 89.7908 149.18 90.2742 148.749C90.3275 148.701 90.6226 148.489 90.8041 148.348C91.0293 148.259 91.4051 148.092 91.4124 148.089C94.0259 147.171 96.9017 147.102 99.3392 148.533C99.8002 148.803 101.58 146.794 102.006 147.044C99.4377 145.536 96.3786 145.697 93.6666 146.754C91.6564 147.537 89.4291 148.704 87.7751 150.095C87.4737 150.351 87.1898 150.626 86.9255 150.92C86.1097 150.757 85.2652 150.816 84.4798 151.091C83.529 151.418 82.7556 152.255 81.8125 152.579Z" fill="#4869E5"/>
<path d="M100.576 125.878C98.11 126.36 96.0018 127.18 94.2766 129.118C93.7253 129.738 91.6403 133.177 91.3047 135.203C91.1774 135.208 91.0507 135.212 90.9234 135.218C89.5718 135.287 88.2497 135.907 86.9062 135.976C87.9054 135.925 88.8936 135.918 89.8905 136.023C90.1486 136.05 90.8176 136.069 91.3256 136.167C91.4141 136.437 91.5942 136.621 91.8998 136.679C92.4092 136.775 95.6493 136.291 95.917 135.92C96.1071 135.657 95.8198 135.509 95.4021 135.42C95.0268 134.161 96.5253 130.972 96.9189 130.282C98.022 128.347 99.5251 127.057 101.427 126.033C101.73 126.053 102.035 126.061 102.336 126.111C103.307 126.272 104.255 126.587 105.116 127.069C106.606 127.903 109.028 130.072 108.067 131.971C108.43 131.252 111.699 131.975 112.084 131.213C113.312 128.785 109.563 126.293 107.663 125.669C105.819 125.063 104.013 125.243 102.188 125.569C102.388 125.232 100.117 125.611 100.576 125.878Z" fill="#5598DB"/>
<path d="M363.646 172.81C362.347 170.625 360.067 169.201 357.514 169.045C356.707 168.996 355.869 169.082 355.035 169.23C354.598 165.329 352.458 160.896 348.608 159.349C347.201 158.784 345.875 158.914 344.441 159.205C342.992 159.499 341.512 159.691 340.273 160.548C341.099 159.977 342.658 160.447 343.499 159.866C343.591 159.794 343.688 159.732 343.784 159.669C344.325 159.767 344.846 159.818 345.383 160.032C346.523 160.485 347.509 161.256 348.345 162.142C350.38 164.298 351.515 167.084 351.822 170.008C351.843 170 351.864 169.994 351.886 169.99L351.879 169.992L352.852 169.787C355.901 169.446 358.84 170.834 360.421 173.493C360.614 173.816 363.478 172.526 363.646 172.81Z" fill="#55AAFF"/>
<path d="M288.96 92.221C288.831 92.4659 288.586 92.6095 288.306 92.5744C287.429 92.4632 287.228 91.6004 286.897 90.8789C286.384 89.7817 285.882 89.0995 284.552 89.4602C284.003 89.6107 283.47 89.8218 282.944 90.0421C282.422 90.2592 281.979 89.6982 282.157 89.2167C282.857 87.3266 283.964 85.614 285.401 84.2008C285.66 83.9431 286.007 83.976 286.246 84.1415C287.578 83.3963 287.878 85.4125 288.093 86.3186C288.385 87.5554 288.708 88.7844 288.975 90.0257C289.134 90.7544 289.316 91.5274 288.96 92.221Z" fill="#3757D1"/>
<path d="M321.118 56.2385C324.027 37.4867 313.505 20.2872 297.616 17.8224C281.727 15.3575 266.489 28.5607 263.58 47.3125C260.671 66.0643 271.193 83.2638 287.082 85.7286C302.971 88.1935 318.209 74.9903 321.118 56.2385Z" fill="#4869E5"/>
<path d="M313.722 60.2065C318.38 58.9811 320.139 50.317 317.65 40.8547C315.161 31.3924 309.366 24.715 304.708 25.9404C300.05 27.1658 298.291 35.8299 300.78 45.2922C303.269 54.7545 309.064 61.4319 313.722 60.2065Z" fill="#4869E5"/>
<path d="M325.659 124.533C324.973 125.745 323.392 124.58 322.655 124.041C321.868 123.465 321.073 122.67 320.062 122.541C319.125 122.419 318.536 123.085 317.622 122.855C317.406 122.797 317.291 122.576 317.235 122.386C316.954 121.374 317.988 120.055 318.584 119.32C319.458 118.25 320.542 117.437 321.778 116.832C322.019 116.715 322.236 116.769 322.388 116.895C323.592 116.886 324.187 118.011 324.524 119.127C324.889 120.341 325.253 121.563 325.579 122.789C325.728 123.337 325.966 123.983 325.659 124.533Z" fill="#1C49F2"/>
<path d="M359.051 83.8643C361.013 62.888 349.605 44.6681 333.572 43.1688C317.538 41.6696 302.95 57.4588 300.989 78.4351C299.028 99.4114 310.435 117.631 326.469 119.131C342.502 120.63 357.09 104.841 359.051 83.8643Z" fill="#55AAFF"/>
<path opacity="0.5" d="M350.763 90.616C355.492 89.563 357.421 80.1511 355.07 69.594C352.72 59.0369 346.98 51.3324 342.251 52.3854C337.522 53.4384 335.593 62.8502 337.943 73.4073C340.294 83.9644 346.033 91.669 350.763 90.616Z" fill="#55AAFF"/>
<path d="M148.987 83.4558C149.097 83.6642 149.307 83.7869 149.545 83.7573C150.292 83.6624 150.464 82.9273 150.745 82.3126C151.182 81.3777 151.61 80.7963 152.744 81.1036C153.211 81.2322 153.666 81.4119 154.115 81.5998C154.559 81.7845 154.936 81.3066 154.785 80.8966C154.188 79.286 153.245 77.8266 152.02 76.6222C151.8 76.4024 151.504 76.4307 151.3 76.5716C150.165 75.9368 149.91 77.6547 149.727 78.4267C149.478 79.4806 149.203 80.5281 148.976 81.5857C148.839 82.2063 148.684 82.8648 148.987 83.4558Z" fill="#204CF2"/>
<path d="M156.315 76.6055C170.429 71.392 177.303 54.8026 171.67 39.552C166.036 24.3015 150.028 16.1649 135.914 21.3784C121.801 26.592 114.926 43.1814 120.56 58.4319C126.193 73.6824 142.201 81.819 156.315 76.6055Z" fill="#3A62F8"/>
<path opacity="0.5" d="M138.006 44.0038C140.506 35.9839 139.052 28.3974 134.758 27.0589C130.464 25.7203 124.957 31.1366 122.456 39.1565C119.956 47.1763 121.411 54.7628 125.704 56.1014C129.998 57.44 135.506 52.0237 138.006 44.0038Z" fill="#3A62F8"/>
<path d="M112.459 118.278C113.094 119.4 114.559 118.321 115.241 117.822C115.97 117.288 116.706 116.552 117.642 116.433C118.51 116.319 119.056 116.936 119.903 116.723C120.103 116.669 120.209 116.465 120.261 116.289C120.521 115.351 119.564 114.13 119.012 113.449C118.202 112.457 117.198 111.705 116.053 111.145C115.83 111.037 115.629 111.086 115.488 111.203C114.373 111.195 113.822 112.237 113.51 113.271C113.172 114.395 112.835 115.526 112.533 116.662C112.394 117.169 112.174 117.769 112.459 118.278Z" fill="#2747C1"/>
<path d="M113.102 113.18C129.1 111.043 139.972 93.6161 137.386 74.255C134.8 54.894 119.736 40.9307 103.739 43.0671C87.7416 45.2036 76.8696 62.6308 79.4553 81.9918C82.041 101.353 97.1054 115.316 113.102 113.18Z" fill="#3F88D1"/>
<path opacity="0.5" d="M100.394 71.3001C102.852 61.5449 101.041 52.6778 96.3472 51.4949C91.6537 50.3119 85.8558 57.2611 83.3971 67.0163C80.9385 76.7715 82.7501 85.6386 87.4436 86.8216C92.137 88.0045 97.935 81.0553 100.394 71.3001Z" fill="#3F88D1"/>
<path d="M185.716 250.922C184.704 250.922 183.702 250.723 182.768 250.337C181.833 249.95 180.983 249.383 180.268 248.667C179.552 247.952 178.985 247.103 178.598 246.169C178.21 245.234 178.011 244.232 178.011 243.221V238.818C178.011 236.77 178.806 234.842 180.25 233.389L180.374 233.264C181.684 231.944 183.428 231.142 185.283 231.006C187.739 230.824 190.154 230.655 192.458 230.497C200.403 199.142 198.669 127.226 197.754 101.72C193.948 103.437 190.281 105.243 186.824 107.106C185.605 107.762 184.242 108.106 182.857 108.107C181.957 108.107 181.069 107.963 180.215 107.679C177.164 106.662 174.942 103.943 174.553 100.751L173.697 93.7305C173.463 91.8388 173.872 89.9233 174.858 88.2924C175.845 86.6614 177.351 85.4099 179.136 84.7393C183.752 82.9964 199.634 76.9667 210.164 72.5651C221.872 67.6664 230.585 63.7924 236.059 61.0517C237.33 60.417 238.731 60.0858 240.151 60.084C241.38 60.0842 242.597 60.3322 243.728 60.8131C244.86 61.294 245.882 61.998 246.735 62.883C247.588 63.7679 248.254 64.8158 248.694 65.9639C249.133 67.1121 249.336 68.3369 249.291 69.5653C248.015 104.59 247.368 125.975 247.368 133.125V179.628C247.368 191.051 247.494 201.86 247.742 211.754C248.065 224.889 248.546 227.636 248.649 228.087C248.744 228.413 248.933 228.947 249.203 229.17C249.248 229.207 249.702 229.572 251.196 229.771C252.392 229.935 258.683 230.245 261.369 230.378C265.362 230.574 268.491 233.859 268.491 237.856V243.026C268.491 247.154 265.131 250.513 261.001 250.513H260.911L260.781 250.51C248.974 250.165 237.315 249.943 231.079 249.943C225.887 249.943 208.452 250.245 185.946 250.918C185.869 250.92 185.792 250.922 185.716 250.922Z" fill="white"/>
<path d="M262.359 237.857V243.029C262.359 243.789 261.725 244.403 260.961 244.382C247.947 244.002 236.749 243.81 231.079 243.81C226.933 243.81 216.124 243.986 201.991 244.342C196.95 244.468 191.492 244.62 185.76 244.791C185.529 244.797 185.299 244.753 185.087 244.66C184.875 244.568 184.686 244.43 184.533 244.256C184.282 243.97 184.143 243.602 184.145 243.222V238.819C184.145 238.406 184.309 238.009 184.599 237.715L184.729 237.584C184.995 237.315 185.35 237.151 185.727 237.122C188.273 236.937 190.818 236.757 193.364 236.583C194.507 236.505 195.596 236.069 196.477 235.337C197.359 234.606 197.987 233.616 198.275 232.507C201.181 221.321 202.858 205.156 203.769 187.703C204.186 179.67 204.444 171.362 204.583 163.145C204.779 151.579 204.738 140.189 204.599 129.985C204.448 119.581 204.175 109.18 203.782 98.7828C203.667 95.7452 200.519 93.787 197.739 95.0215C192.87 97.1393 188.266 99.3675 183.917 101.71C183.649 101.854 183.354 101.942 183.051 101.968C182.748 101.994 182.443 101.958 182.155 101.862C181.752 101.729 181.396 101.484 181.128 101.156C180.86 100.828 180.692 100.43 180.642 100.01L179.783 92.9899C179.719 92.4621 179.833 91.9278 180.108 91.4727C180.383 91.0175 180.803 90.6679 181.3 90.4799C186.468 88.5299 202.008 82.6261 212.531 78.2272C224.444 73.2396 233.201 69.3433 238.806 66.5387C239.18 66.3511 239.59 66.2437 240.008 66.2233C240.426 66.2029 240.844 66.2699 241.234 66.4201C241.82 66.6468 242.32 67.05 242.666 67.5738C243.011 68.0976 243.186 68.716 243.164 69.3433C242.858 77.7735 242.583 85.402 242.35 92.2297C241.819 107.769 241.479 119.159 241.324 126.404C241.263 129.315 241.234 131.555 241.234 133.129V179.629C241.234 188.46 241.308 196.873 241.459 204.874C241.504 207.258 241.553 209.6 241.611 211.91C241.86 221.98 242.236 227.912 242.735 229.715C243.242 231.509 244.092 232.908 245.311 233.909C246.517 234.915 248.209 235.561 250.388 235.851C251.639 236.022 255.752 236.243 261.066 236.505C261.414 236.521 261.743 236.671 261.983 236.922C262.224 237.174 262.358 237.509 262.359 237.857Z" fill="#435EC4"/>
<g opacity="0.5">
<path d="M241.328 126.402C241.484 119.157 241.823 107.767 242.354 92.2275L204.603 129.983C204.742 140.187 204.783 151.577 204.587 163.143L241.328 126.402ZM241.238 150.236L203.773 187.701C202.861 205.154 201.185 221.32 198.278 232.505C197.991 233.614 197.362 234.604 196.481 235.336C195.6 236.067 194.511 236.503 193.368 236.581C190.927 236.748 188.356 236.929 185.731 237.121C185.353 237.149 184.999 237.313 184.733 237.583L184.602 237.713C184.312 238.007 184.149 238.404 184.148 238.817V243.22C184.148 243.6 184.283 243.968 184.537 244.254C184.69 244.428 184.879 244.566 185.091 244.659C185.303 244.751 185.532 244.796 185.764 244.79C191.496 244.618 196.953 244.467 201.994 244.34L241.463 204.871C241.312 196.871 241.238 188.457 241.238 179.626V150.236Z" fill="#435EC4"/>
</g>
<path d="M325.275 200.038C326.785 197.27 329.117 195.3 330.925 192.824C332.443 190.739 333.501 188.332 334.216 185.741C336.037 179.179 336.5 171.837 336.949 164.997C337.385 158.374 337.469 151.734 337.227 145.106C337.218 144.868 337.117 144.643 336.945 144.477C336.773 144.312 336.544 144.22 336.306 144.22H306.704C306.209 144.22 305.8 144.612 305.782 145.106C305.54 151.735 305.623 158.374 306.06 164.997C306.509 171.837 306.972 179.179 308.793 185.741C309.508 188.332 310.566 190.739 312.084 192.824C313.892 195.3 316.224 197.27 317.734 200.038C319.444 203.18 319.715 207.038 319.995 210.645C320.278 214.252 320.423 217.878 320.286 221.499C320.203 223.793 319.995 226.087 319.633 228.344V228.348C319.633 228.353 319.629 228.362 319.629 228.376C319.621 228.417 319.609 228.503 319.586 228.622C319.582 228.649 319.574 228.681 319.57 228.713C319.197 230.574 318.084 238.887 310.928 240C310.193 240.114 309.552 240.524 309.092 241.122C308.632 241.719 308.357 242.504 308.357 243.361H334.653C334.653 242.504 334.378 241.719 333.918 241.122C333.458 240.524 332.817 240.114 332.082 240C324.926 238.887 323.813 230.574 323.44 228.713C323.436 228.681 323.428 228.649 323.424 228.622C323.4 228.503 323.389 228.417 323.381 228.376C323.381 228.362 323.377 228.353 323.377 228.348V228.344C323.015 226.087 322.807 223.793 322.724 221.499C322.586 217.878 322.732 214.252 323.015 210.645C323.294 207.038 323.565 203.18 325.275 200.038Z" fill="#D3E3F4"/>
<path d="M308.289 164.085C308.303 164.34 308.316 164.591 308.335 164.847L308.353 165.102C308.795 171.874 309.256 178.879 310.989 185.135C311.673 187.612 312.662 189.746 313.926 191.479C314.564 192.354 315.289 193.18 316.06 194.051C317.35 195.515 318.691 197.029 319.735 198.949C319.745 198.967 319.754 198.981 319.763 198.999C319.93 199.316 320.181 199.581 320.488 199.766C320.796 199.951 321.148 200.049 321.506 200.048C321.865 200.048 322.217 199.949 322.523 199.763C322.83 199.578 323.08 199.312 323.247 198.994C323.256 198.981 323.265 198.962 323.274 198.949C324.319 197.029 325.655 195.515 326.95 194.046C327.716 193.18 328.441 192.354 329.08 191.483C330.347 189.746 331.332 187.612 332.016 185.131C333.754 178.874 334.214 171.865 334.657 165.088L334.671 164.847C334.689 164.591 334.702 164.34 334.716 164.085H308.289Z" fill="#55AAFF"/>
<path d="M333.139 150.488C333.064 149.617 331.695 149.61 331.771 150.488C332.583 159.91 332.212 169.352 330.629 178.678C330.482 179.539 331.801 179.909 331.948 179.042C333.552 169.597 333.962 160.033 333.139 150.488Z" fill="white"/>
<path d="M321.01 195.451C321.659 195.451 322.184 194.925 322.184 194.277C322.184 193.628 321.659 193.103 321.01 193.103C320.362 193.103 319.836 193.628 319.836 194.277C319.836 194.925 320.362 195.451 321.01 195.451Z" fill="#55AAFF"/>
<path d="M323.01 185.314C323.659 185.314 324.184 184.789 324.184 184.14C324.184 183.492 323.659 182.966 323.01 182.966C322.362 182.966 321.836 183.492 321.836 184.14C321.836 184.789 322.362 185.314 323.01 185.314Z" fill="#55AAFF"/>
<path d="M323.552 192.203C324.5 192.203 325.268 191.434 325.268 190.487C325.268 189.539 324.5 188.771 323.552 188.771C322.604 188.771 321.836 189.539 321.836 190.487C321.836 191.434 322.604 192.203 323.552 192.203Z" fill="#55AAFF"/>
<path d="M319.503 189.632C320.605 189.632 321.498 188.739 321.498 187.637C321.498 186.535 320.605 185.642 319.503 185.642C318.401 185.642 317.508 186.535 317.508 187.637C317.508 188.739 318.401 189.632 319.503 189.632Z" fill="#55AAFF"/>
<path d="M119.174 200.038C120.684 197.27 123.015 195.3 124.824 192.824C126.342 190.739 127.399 188.332 128.115 185.741C129.935 179.179 130.399 171.837 130.848 164.997C131.284 158.374 131.368 151.734 131.126 145.106C131.117 144.868 131.015 144.643 130.844 144.477C130.672 144.312 130.443 144.22 130.205 144.22H100.602C100.107 144.22 99.6988 144.612 99.6805 145.106C99.4384 151.735 99.5218 158.374 99.9587 164.997C100.407 171.837 100.871 179.179 102.691 185.741C103.407 188.332 104.464 190.739 105.982 192.824C107.791 195.3 110.123 197.27 111.633 200.038C113.343 203.18 113.615 207.038 113.894 210.645C114.177 214.252 114.322 217.878 114.185 221.499C114.102 223.793 113.894 226.087 113.532 228.344V228.348C113.532 228.353 113.528 228.362 113.528 228.376C113.52 228.417 113.508 228.503 113.485 228.622C113.481 228.649 113.473 228.681 113.469 228.713C113.095 230.574 111.982 238.887 104.826 240C104.091 240.114 103.45 240.524 102.99 241.122C102.53 241.719 102.255 242.504 102.255 243.361H128.552C128.552 242.504 128.276 241.719 127.817 241.122C127.357 240.524 126.716 240.114 125.981 240C118.825 238.887 117.712 230.574 117.339 228.713C117.334 228.681 117.327 228.649 117.323 228.622C117.299 228.503 117.287 228.417 117.279 228.376C117.279 228.362 117.275 228.353 117.275 228.348V228.344C116.914 226.087 116.705 223.793 116.623 221.499C116.485 217.878 116.63 214.252 116.914 210.645C117.192 207.038 117.463 203.18 119.174 200.038Z" fill="#D3E3F4"/>
<path d="M102.188 164.085C102.201 164.34 102.215 164.591 102.233 164.847L102.251 165.102C102.694 171.874 103.154 178.879 104.887 185.135C105.571 187.612 106.561 189.746 107.824 191.479C108.462 192.354 109.188 193.18 109.958 194.051C111.249 195.515 112.59 197.029 113.634 198.949C113.643 198.967 113.652 198.981 113.661 198.999C113.829 199.316 114.08 199.581 114.387 199.766C114.694 199.951 115.046 200.049 115.405 200.048C115.763 200.048 116.115 199.949 116.422 199.763C116.728 199.578 116.979 199.312 117.145 198.994C117.154 198.981 117.164 198.962 117.173 198.949C118.217 197.029 119.553 195.515 120.848 194.046C121.614 193.18 122.34 192.354 122.978 191.483C124.246 189.746 125.231 187.612 125.915 185.131C127.652 178.874 128.113 171.865 128.555 165.088L128.569 164.847C128.587 164.591 128.601 164.34 128.615 164.085H102.188Z" fill="#55AAFF"/>
<path d="M127.037 150.488C126.962 149.617 125.594 149.61 125.669 150.488C126.482 159.91 126.111 169.352 124.527 178.678C124.381 179.539 125.699 179.909 125.846 179.042C127.45 169.597 127.861 160.033 127.037 150.488Z" fill="white"/>
<path d="M115.401 181.885C116.049 181.885 116.575 181.359 116.575 180.71C116.575 180.062 116.049 179.536 115.401 179.536C114.752 179.536 114.227 180.062 114.227 180.71C114.227 181.359 114.752 181.885 115.401 181.885Z" fill="#55AAFF"/>
<path d="M118.622 187.081C118.622 187.392 118.498 187.691 118.278 187.911C118.058 188.131 117.759 188.255 117.448 188.255C117.136 188.255 116.838 188.131 116.617 187.911C116.397 187.691 116.273 187.392 116.273 187.081C116.273 186.769 116.397 186.47 116.617 186.25C116.838 186.03 117.136 185.906 117.448 185.906C117.759 185.906 118.058 186.03 118.278 186.25C118.498 186.47 118.622 186.769 118.622 187.081Z" fill="#55AAFF"/>
<path d="M115.732 193.791C116.679 193.791 117.448 193.023 117.448 192.075C117.448 191.128 116.679 190.359 115.732 190.359C114.784 190.359 114.016 191.128 114.016 192.075C114.016 193.023 114.784 193.791 115.732 193.791Z" fill="#55AAFF"/>
<path d="M111.87 187.799C112.972 187.799 113.865 186.906 113.865 185.804C113.865 184.702 112.972 183.809 111.87 183.809C110.768 183.809 109.875 184.702 109.875 185.804C109.875 186.906 110.768 187.799 111.87 187.799Z" fill="#55AAFF"/>
<path d="M185.239 142.102C185.239 142.102 183.767 146.39 178.117 145.037L178.129 142.85L178.138 140.936L178.146 139.289L178.158 136.86L178.175 134.048C178.179 133.696 178.628 133.557 178.829 133.847L179.74 135.025L181.167 136.86L182.132 138.099L183.293 139.595L185.239 142.102Z" fill="#4869E5"/>
<path d="M189.522 249.242C200.391 249.242 209.201 248.47 209.201 247.517C209.201 246.564 200.391 245.791 189.522 245.791C178.654 245.791 169.844 246.564 169.844 247.517C169.844 248.47 178.654 249.242 189.522 249.242Z" fill="#BECCDB"/>
<path d="M192.517 239.934C192.691 242.476 192.407 245.028 191.677 247.469C195.241 248.111 198.904 248.222 202.525 248.194C202.862 248.192 203.213 248.186 203.515 248.035C203.817 247.883 204.051 247.54 203.962 247.214C203.877 246.899 203.544 246.727 203.239 246.609C202.187 246.203 201.066 245.988 200.035 245.532C197.752 244.525 196.049 242.301 195.674 239.834C194.733 240.176 193.508 240.071 192.517 239.934ZM176.1 240.466C175.157 242.615 174.584 244.909 174.406 247.25C174.363 247.809 174.351 248.404 174.632 248.889C175.077 249.657 176.077 249.876 176.962 249.927C178.173 249.997 179.388 249.899 180.573 249.635C181.045 249.53 181.58 249.337 181.733 248.878C181.921 248.315 181.422 247.783 181.02 247.347C179.417 245.608 178.788 243.024 179.412 240.743C178.229 240.739 177.222 240.837 176.1 240.466Z" fill="#021B79"/>
<path d="M198.304 170.078L198.3 170.082L198.14 175.597C197.841 175.727 197.518 175.793 197.192 175.793C196.636 175.793 196.098 175.601 195.667 175.25L195.507 175.123C194.417 174.306 193.377 173.424 192.392 172.482C191.44 171.575 190.593 170.622 189.841 169.682C189.525 169.288 189.221 168.884 188.93 168.471C190.455 167.077 191.72 165.423 192.666 163.586C192.683 163.611 192.703 163.639 192.723 163.663C193.288 164.395 193.864 165.193 194.51 166.01C195.152 166.828 195.827 167.694 196.562 168.565C197.026 169.114 197.498 169.657 197.977 170.192C198.087 170.156 198.198 170.114 198.304 170.078Z" fill="#7C96FA"/>
<path d="M174.406 241.501C174.707 241.633 175.029 241.746 175.369 241.839C175.497 241.874 175.629 241.907 175.763 241.936C176.338 242.062 176.955 242.13 177.597 242.13C178.624 242.13 179.587 241.955 180.414 241.652L180.926 235.843L183.791 197.827L190.39 236.577L191.498 242.297C194.957 243.502 197.279 241.431 197.746 240.962C197.605 239.735 197.405 237.986 197.162 235.865C195.724 223.279 192.779 197.522 191.787 188.721C191.481 186.002 191.29 184.312 191.289 184.267C188.398 183.572 187.752 183.193 184.489 183.193C180.312 183.193 178.039 183.813 174.514 184.919C174.516 184.946 174.569 187.949 174.646 192.415C174.811 202.031 174.6 224.372 174.473 235.754C174.445 238.314 174.419 240.319 174.406 241.501Z" fill="#4E556D"/>
<path d="M176.27 195.816C176.231 198.837 176.191 201.859 176.15 204.882C176.04 213.19 175.931 229.328 175.819 237.636L175.761 241.936C175.629 241.907 175.498 241.875 175.367 241.839C175.431 237.107 175.491 232.372 175.557 227.64C175.662 219.712 175.767 203.958 175.873 196.03L175.879 195.532C175.883 195.319 175.885 195.103 175.889 194.89L175.965 189.221C175.968 188.967 176.364 188.966 176.36 189.221L176.278 195.289C177.615 194.386 178.387 192.853 178.298 191.135C178.284 190.852 178.724 190.852 178.74 191.135C178.842 193.107 177.879 194.858 176.27 195.816Z" fill="#3D4359"/>
<path d="M185.947 156.312C185.947 156.312 183.875 154.9 180.266 155.606V157.428L185.069 157.996L186.124 157.367L185.947 156.312Z" fill="#717D89"/>
<path d="M173.209 167.764C173.429 169.402 173.622 171.606 173.786 173.998C174.029 177.609 174.322 185.133 174.423 188.293C174.425 188.375 174.428 188.457 174.429 188.536C174.435 188.681 174.439 188.825 174.444 188.966C174.466 189.682 174.482 190.342 174.497 190.93C178.776 191.546 183.104 191.75 187.421 191.539C187.705 191.527 187.984 191.51 188.267 191.494C189.137 191.438 190.008 191.369 190.876 191.28C190.886 191.28 190.896 191.28 190.907 191.279C191.429 191.226 191.951 191.169 192.471 191.104C192.142 189.54 191.769 185.479 191.497 183.228C191.457 182.895 191.412 182.563 191.362 182.231C191.217 181.328 191.084 180.422 190.963 179.515C190.747 177.901 190.564 176.283 190.416 174.661C190.277 173.17 190.167 171.677 190.085 170.182C194.294 169.234 193.979 165.34 193.979 165.34L190.902 160.606V160.605C190.416 159.846 189.73 159.237 188.92 158.845C188.304 158.546 187.575 158.196 187.116 157.987C186.842 157.862 186.567 157.736 186.29 157.612C185.04 157.041 183.785 156.474 182.665 155.903C181.694 156.292 180.73 156.679 179.762 157.07C179.745 157.075 179.728 157.082 179.712 157.09C179.17 157.306 178.627 157.521 178.09 157.74C176.667 158.308 175.187 158.921 174.207 160.098C172.505 162.137 172.849 165.129 173.209 167.764Z" fill="#A2A9B1"/>
<path d="M190.327 171.336C190.302 169.895 190.165 168.458 189.916 167.038C189.874 166.798 189.509 166.9 189.55 167.139C189.792 168.53 189.923 169.925 189.948 171.336C189.952 171.58 190.331 171.581 190.327 171.336Z" fill="#717D89"/>
<path d="M186.001 195.214C185.472 196.142 184.776 196.964 183.949 197.639C183.966 196.95 183.975 196.26 183.967 195.569C183.963 195.219 183.419 195.219 183.424 195.569C183.451 197.867 183.339 200.153 183.088 202.437C183.05 202.784 183.593 202.78 183.631 202.437C183.781 201.076 183.875 199.714 183.926 198.349C184.965 197.572 185.826 196.619 186.47 195.488C186.644 195.184 186.174 194.911 186.001 195.214Z" fill="#3D4359"/>
<path d="M177.57 171C177.57 171 182.516 178.993 191.496 183.237V183.228C191.456 182.895 191.411 182.563 191.362 182.231C191.216 181.328 191.084 180.422 190.963 179.515C190.746 177.901 190.564 176.283 190.415 174.661C187.642 173.4 180.304 170.26 177.57 171Z" fill="#717D89"/>
<path d="M179.383 143.439C176.397 143.684 177.701 148.631 179.131 151.514C179.84 152.944 182.412 153.631 183.641 153.458C182.263 151.633 180.334 149.872 180.044 147.357C179.5 147.505 179.92 143.703 179.383 143.439Z" fill="#32448A"/>
<path d="M180.521 152.795C180.671 153.954 180.707 155.26 180.582 156.437C182.618 158.475 184.906 157.947 184.906 157.947C185.32 157.985 185.599 157.914 185.724 157.647C185.633 157.301 185.506 156.825 185.483 156.517C185.435 155.917 185.403 155.315 185.387 154.713C185.368 154.055 185.37 153.396 185.394 152.739C184.665 152.47 183.928 152.24 183.191 152.008C182.868 151.909 182.546 151.81 182.223 151.709C181.53 151.498 180.844 151.268 180.164 151.019C180.267 151.369 180.357 151.763 180.43 152.186C180.465 152.383 180.494 152.586 180.521 152.795Z" fill="#9DCEFF"/>
<path d="M185.484 156.517C181.852 155.621 180.781 152.363 180.781 152.363L183.193 152.007C183.929 152.238 184.665 152.47 185.396 152.738C185.352 153.752 185.375 155.205 185.484 156.517Z" fill="#7C96FA"/>
<path d="M186.693 142.665C187.33 143.187 188.042 144.34 187.548 145.92C187.322 146.643 186.874 147.297 186.266 147.747C186.295 146.497 186.283 145.248 186.312 143.998C186.713 143.962 186.331 142.842 186.693 142.665Z" fill="#32448A"/>
<path d="M186.566 154.18C185.505 155.09 183.484 154.859 182.33 154.209C181.44 153.706 180.882 153.074 180.458 152.238C180.441 152.207 180.425 152.176 180.41 152.144C180.216 151.729 180.101 151.022 180.086 150.93V150.928C180.086 150.846 180.089 150.774 180.093 150.727C180.131 150.292 180.122 149.849 180.123 149.412C180.124 148.684 180.158 147.93 180.473 147.258C180.86 146.431 180.173 144.821 181.012 144.437C182.656 143.893 186.053 144.569 186.673 144.468C186.698 144.464 186.724 144.465 186.749 144.471C186.773 144.478 186.796 144.489 186.816 144.505C186.836 144.521 186.852 144.541 186.863 144.564C186.875 144.587 186.881 144.612 186.882 144.637L186.95 146.336L186.948 146.339C186.946 146.585 186.954 146.831 186.977 147.071C187.091 148.317 187.466 149.517 187.534 150.768C187.601 152.018 187.543 153.334 186.566 154.18Z" fill="#9DCEFF"/>
<path d="M184.831 150.064C184.813 150.092 184.886 150.146 185.007 150.161C185.132 150.182 185.312 150.165 185.504 150.057C185.61 149.994 185.701 149.907 185.768 149.803C185.852 149.68 185.878 149.558 185.871 149.494C185.867 149.457 185.857 149.44 185.837 149.439C185.828 149.437 185.82 149.44 185.81 149.444C185.774 149.468 185.717 149.544 185.639 149.628C185.578 149.691 185.507 149.758 185.418 149.815C185.409 149.824 185.399 149.828 185.388 149.835C185.251 149.924 185.108 149.963 185 149.99C184.904 150.015 184.839 150.03 184.831 150.064Z" fill="#647DDD"/>
<path d="M184.045 150.951C184.962 151.148 186.08 151.088 186.523 150.956C186.674 150.91 186.823 151.024 186.801 151.159C186.382 153.697 184.153 152.309 183.833 151.218C183.787 151.06 183.866 150.913 184.045 150.951Z" fill="white"/>
<path d="M187.754 142.773C187.586 143.683 187.183 144.549 186.49 145.112C185.723 145.736 184.747 145.901 183.821 145.869C182.821 145.836 180.612 144.963 180.033 146.278C180.013 146.328 179.975 146.368 179.927 146.392C179.879 146.415 179.823 146.419 179.772 146.403C179.679 146.481 179.537 146.486 179.477 146.337C179.09 145.38 178.973 144.261 179.424 143.292C179.837 142.405 180.643 141.872 181.47 141.55C182.637 141.096 183.866 141.005 184.996 140.417C185.425 140.193 185.69 140.459 185.628 140.819C185.937 140.76 186.202 140.61 186.457 140.359C186.548 140.27 186.72 140.289 186.77 140.421C186.822 140.563 186.846 140.676 186.847 140.787C186.99 140.559 187.182 140.203 187.183 140.203C187.253 140.042 187.403 140.009 187.523 140.124C188.087 140.662 187.88 142.08 187.754 142.773Z" fill="#32448A"/>
<path d="M180.126 148.793C181.118 147.787 181.515 146.235 181.13 144.877C180.447 145.104 179.732 145.267 179.023 145.394C179.13 146.566 179.514 147.788 180.126 148.793Z" fill="#32448A"/>
<path d="M180.244 148.813C180.231 148.574 179.89 148.177 179.648 148.069C179.409 147.963 179.123 148.081 178.93 148.239C178.435 148.646 178.546 149.463 178.816 150.023C179.086 150.584 179.769 150.969 180.449 150.944C180.42 150.249 180.281 149.507 180.244 148.813Z" fill="#9DCEFF"/>
<path d="M185.074 157.995L186.559 160.02C186.559 160.02 187.417 159.391 187.12 157.986L185.951 156.311C185.951 156.311 186.129 157.96 185.074 157.995ZM180.27 155.605C180.27 155.605 181.816 157.659 185.074 157.995L183.959 160.292C183.959 160.292 181.199 159.832 179.367 157.227L180.27 155.605Z" fill="white"/>
<path d="M177.891 170.973C178.221 171.458 178.572 171.93 178.941 172.388C179.73 173.376 180.583 174.311 181.494 175.187C182.477 176.131 183.518 177.013 184.609 177.829L184.611 177.831L185.371 178.453C185.517 178.572 185.692 178.65 185.878 178.679C186.064 178.708 186.254 178.687 186.429 178.618L187.162 178.332C187.463 178.215 187.77 178.096 188.077 177.974C188.231 177.914 188.383 177.854 188.538 177.794C188.688 177.729 188.839 177.662 188.993 177.595C190.378 177.007 191.684 176.326 192.91 175.619C193.213 175.437 193.513 175.259 193.812 175.081C194.101 174.895 194.389 174.708 194.678 174.521C194.819 174.43 194.963 174.336 195.102 174.243C195.24 174.149 195.376 174.049 195.508 173.955L196.312 173.383C196.568 173.183 196.822 172.991 197.071 172.797C197.196 172.699 197.319 172.605 197.443 172.508C197.561 172.409 197.681 172.311 197.799 172.211C198.031 172.013 198.263 171.819 198.49 171.629C198.713 171.433 198.926 171.233 199.138 171.039C199.346 170.841 199.559 170.658 199.755 170.462L199.891 170.325C200.897 170.121 202.206 169.377 202.959 168.659C203.337 168.298 203.663 167.885 203.926 167.432C203.937 167.414 203.946 167.396 203.957 167.378C203.992 167.32 204.022 167.26 204.053 167.2C204.22 166.79 203.799 166.767 203.799 166.767L204.024 166.478C204.454 165.707 203.81 165.903 203.81 165.903C204.468 165.087 203.479 165.279 203.479 165.279C204.078 164.722 204.018 164.404 203.737 164.328C203.534 164.272 203.316 164.293 203.116 164.366L201.792 164.979L199.158 165.944L199.406 164.553C199.313 164.542 199.218 164.548 199.127 164.569C198.149 164.797 197.846 166.801 197.768 167.517C197.764 167.545 197.762 167.571 197.759 167.597L197.753 167.662L197.746 167.749C197.744 167.762 197.744 167.769 197.744 167.769C197.717 167.786 197.69 167.804 197.662 167.82C197.452 167.958 197.223 168.087 197 168.227C196.775 168.361 196.552 168.505 196.314 168.64C196.082 168.774 195.841 168.911 195.599 169.049C195.478 169.117 195.356 169.188 195.233 169.259C195.109 169.324 194.984 169.393 194.857 169.461C194.605 169.597 194.351 169.733 194.093 169.873C193.83 170.005 193.565 170.138 193.296 170.273C193.164 170.34 193.03 170.409 192.895 170.479C192.758 170.544 192.62 170.609 192.48 170.673C192.206 170.803 191.926 170.938 191.645 171.07C191.359 171.196 191.072 171.322 190.784 171.45C189.617 171.948 188.403 172.444 187.14 172.876C187.117 172.883 187.098 172.888 187.077 172.897C186.598 172.362 186.127 171.819 185.664 171.27C184.924 170.399 184.254 169.532 183.612 168.712C183.528 168.606 183.445 168.497 183.363 168.394C183.138 168.104 182.916 167.813 182.695 167.519C181.302 168.936 179.677 170.103 177.891 170.973Z" fill="#9CCDFF"/>
<path d="M187.984 172.309C187.179 172.514 186.42 172.869 185.747 173.356C185.551 173.498 185.74 173.827 185.938 173.684C186.583 173.214 187.311 172.872 188.084 172.674C188.321 172.614 188.22 172.248 187.984 172.309Z" fill="#7C96FA"/>
<path d="M179.442 162.205C180.113 163.377 180.881 164.483 181.66 165.585C182.031 166.108 182.397 166.634 182.758 167.164C183.027 167.559 183.396 167.945 183.561 168.397C183.635 168.601 183.324 168.727 183.25 168.524C183.068 168.028 182.625 167.561 182.33 167.127C181.967 166.593 181.59 166.069 181.218 165.542C180.497 164.522 179.794 163.492 179.173 162.407C179.066 162.221 179.335 162.018 179.442 162.205Z" fill="#717D89"/>
<path d="M182.121 166.566C182.228 165.992 182.158 165.407 181.938 164.868C181.857 164.668 182.176 164.561 182.257 164.761C182.499 165.353 182.566 166.002 182.451 166.631C182.411 166.844 182.081 166.779 182.121 166.566ZM175.084 166.874C175.544 167.627 175.954 168.411 176.441 169.147C176.872 169.797 177.347 170.752 178.028 171.17C178.057 171.187 178.08 171.211 178.095 171.24C178.11 171.269 178.116 171.302 178.113 171.334C178.11 171.367 178.097 171.397 178.077 171.423C178.057 171.449 178.03 171.468 177.999 171.479L177.938 171.502C177.825 171.546 177.746 171.463 177.732 171.369C177.205 170.98 176.843 170.333 176.484 169.807C175.875 168.915 175.362 167.973 174.8 167.053C174.686 166.869 174.971 166.689 175.084 166.874Z" fill="#717D89"/>
<path d="M181.163 136.86C181.032 136.914 180.884 136.942 180.734 136.942C180.411 136.941 180.101 136.813 179.873 136.584C179.644 136.356 179.516 136.046 179.515 135.724C179.515 135.466 179.597 135.225 179.736 135.024L181.163 136.86ZM179.433 138.075C179.433 138.398 179.304 138.707 179.076 138.936C178.847 139.164 178.538 139.292 178.215 139.293C178.19 139.293 178.166 139.293 178.141 139.289L178.154 136.861C178.174 136.857 178.195 136.857 178.215 136.857C178.538 136.857 178.848 136.985 179.076 137.213C179.305 137.442 179.433 137.752 179.433 138.075ZM179.286 141.893C179.286 142.433 178.853 142.87 178.313 142.87C178.248 142.87 178.186 142.862 178.125 142.849L178.133 140.936C178.19 140.924 178.252 140.92 178.313 140.92C178.441 140.919 178.568 140.944 178.686 140.993C178.804 141.042 178.911 141.114 179.002 141.204C179.092 141.295 179.164 141.402 179.213 141.52C179.261 141.639 179.286 141.765 179.286 141.893ZM183.288 139.596C183.264 139.955 183.104 140.292 182.84 140.538C182.577 140.784 182.23 140.921 181.87 140.92C181.492 140.92 181.13 140.77 180.864 140.503C180.597 140.237 180.447 139.875 180.447 139.498C180.447 139.12 180.597 138.759 180.864 138.492C181.13 138.225 181.492 138.075 181.87 138.075C181.959 138.075 182.045 138.083 182.127 138.099L183.288 139.596Z" fill="#76B5F4"/>
<path d="M422.81 257.073C422.81 258.689 408.552 260 390.964 260C373.375 260 359.117 258.689 359.117 257.073C359.117 255.456 373.375 254.146 390.964 254.146C408.552 254.146 422.81 255.456 422.81 257.073Z" fill="#BECCDB"/>
<path d="M9.40856 253.325C9.40856 254.941 23.6668 256.252 41.2551 256.252C58.8433 256.252 73.1016 254.941 73.1016 253.325C73.1016 251.708 58.8433 250.397 41.2551 250.397C23.6668 250.397 9.40856 251.708 9.40856 253.325Z" fill="#BECCDB"/>
<path d="M392.023 131.531C392.023 131.531 392.454 136.044 398.264 136.047L398.762 133.917L399.2 132.055L399.577 130.451L400.132 128.087L400.772 125.348C400.85 125.005 400.445 124.765 400.183 125L399.022 125.932L397.206 127.384L395.979 128.364L394.501 129.548L392.023 131.531Z" fill="#3A62F8"/>
<path d="M40.1953 127.783C40.1953 127.783 39.7648 132.296 33.955 132.299L33.4565 130.169L33.0183 128.307L32.6416 126.703L32.0871 124.339L31.4468 121.6C31.3688 121.257 31.7738 121.017 32.036 121.252L33.197 122.184L35.013 123.636L36.2401 124.616L37.7181 125.8L40.1953 127.783Z" fill="#3A62F8"/>
<path d="M397.21 127.384C397.325 127.466 397.461 127.529 397.608 127.564C397.923 127.638 398.254 127.585 398.529 127.417C398.804 127.248 399.001 126.977 399.077 126.663C399.135 126.42 399.117 126.164 399.026 125.932L397.21 127.384ZM398.608 128.968C398.533 129.282 398.586 129.613 398.755 129.889C398.924 130.164 399.195 130.361 399.508 130.437C399.532 130.444 399.556 130.448 399.581 130.45L400.135 128.086C400.116 128.078 400.097 128.072 400.076 128.068C399.921 128.031 399.76 128.024 399.602 128.049C399.444 128.075 399.292 128.13 399.156 128.214C399.019 128.298 398.901 128.407 398.807 128.537C398.713 128.666 398.645 128.813 398.608 128.968ZM397.86 132.716C397.83 132.84 397.824 132.969 397.844 133.096C397.864 133.222 397.908 133.344 397.975 133.453C398.042 133.563 398.129 133.658 398.233 133.733C398.336 133.808 398.454 133.863 398.578 133.893C398.642 133.908 398.703 133.914 398.766 133.917L399.204 132.054C399.149 132.029 399.092 132.01 399.033 131.996C398.909 131.966 398.78 131.961 398.654 131.981C398.527 132.001 398.406 132.045 398.297 132.112C398.188 132.179 398.093 132.267 398.018 132.37C397.943 132.474 397.89 132.591 397.86 132.716ZM394.504 129.548C394.444 129.903 394.521 130.268 394.72 130.568C394.919 130.869 395.224 131.082 395.575 131.166C395.941 131.254 396.328 131.193 396.65 130.996C396.972 130.798 397.202 130.482 397.29 130.115C397.378 129.748 397.317 129.361 397.119 129.039C396.922 128.718 396.605 128.487 396.238 128.399C396.154 128.379 396.069 128.367 395.982 128.363L394.504 129.548Z" fill="#7DBEFF"/>
<path d="M35.0089 123.637C34.894 123.719 34.7576 123.782 34.6103 123.817C34.2962 123.891 33.9652 123.838 33.69 123.67C33.4147 123.501 33.2175 123.23 33.1414 122.916C33.0834 122.673 33.1014 122.417 33.193 122.185L35.0089 123.637ZM33.6107 125.221C33.6853 125.535 33.6324 125.866 33.4637 126.142C33.295 126.417 33.0242 126.614 32.7105 126.69C32.6867 126.697 32.6625 126.701 32.638 126.703L32.0835 124.339C32.1024 124.331 32.1221 124.325 32.1423 124.321C32.2978 124.284 32.4592 124.277 32.6171 124.302C32.7751 124.327 32.9266 124.383 33.063 124.467C33.1993 124.551 33.3179 124.66 33.4119 124.79C33.5059 124.919 33.5734 125.066 33.6107 125.221ZM34.3586 128.968C34.389 129.093 34.3945 129.222 34.3748 129.349C34.3551 129.475 34.3106 129.597 34.2439 129.706C34.1771 129.816 34.0895 129.911 33.9859 129.986C33.8823 130.061 33.7649 130.116 33.6403 130.146C33.5769 130.161 33.5154 130.167 33.4529 130.17L33.0147 128.307C33.0696 128.282 33.1269 128.263 33.1857 128.249C33.3099 128.219 33.4389 128.214 33.5652 128.234C33.6915 128.254 33.8127 128.298 33.9217 128.365C34.0307 128.432 34.1254 128.52 34.2004 128.623C34.2754 128.727 34.3292 128.844 34.3586 128.968ZM37.7145 125.8C37.7745 126.156 37.6973 126.52 37.4987 126.821C37.3 127.122 36.9946 127.335 36.6442 127.419C36.2773 127.507 35.8905 127.446 35.5688 127.249C35.2471 127.051 35.0169 126.735 34.9286 126.368C34.8408 126.001 34.9022 125.614 35.0994 125.292C35.2966 124.971 35.6134 124.74 35.9803 124.652C36.0643 124.632 36.1501 124.62 36.2366 124.616L37.7145 125.8Z" fill="#7DBEFF"/>
<path d="M382.793 257.482C378.292 258.757 373.774 259.096 369.154 258.512C369.053 258.499 368.956 258.465 368.869 258.411C368.782 258.358 368.707 258.287 368.649 258.203C368.592 258.119 368.553 258.023 368.535 257.923C368.517 257.823 368.52 257.72 368.545 257.621C368.598 256.819 371.104 255.601 373.128 254.747C373.965 254.391 374.811 254.058 375.667 253.749L375.671 253.745C376.938 252.846 377.711 251.439 378.05 249.996C378.402 248.479 378.316 246.909 378.148 245.372C379.024 245.532 379.976 245.393 380.753 244.984C381.779 247.641 382.462 250.748 382.707 253.749C382.711 253.778 382.711 253.811 382.715 253.839C382.817 255.082 382.846 256.312 382.793 257.482ZM414.632 244.534C414.673 245.262 414.522 245.986 414.371 246.701C414.142 247.788 413.909 248.888 413.495 249.926C413.082 250.96 412.482 251.946 411.619 252.649C410.748 253.365 409.657 253.761 408.548 253.953C407.441 254.149 406.312 254.154 405.188 254.162C404.575 254.162 403.806 254.055 403.626 253.471C403.454 252.903 403.994 252.391 404.472 252.04C405.466 251.304 406.472 250.515 407.191 249.53C407.456 249.173 407.678 248.786 407.853 248.377C408.438 246.975 408.352 245.36 407.91 243.904C407.473 242.444 406.333 241.488 405.572 240.167C406.475 239.914 408.34 238.25 408.597 237.351C409.411 238.986 410.114 241.046 411.827 241.68C412.158 241.799 412.501 241.901 412.829 242.028C413.18 242.163 413.515 242.326 413.794 242.575C414.338 243.062 414.595 243.806 414.632 244.534Z" fill="#9DCEFF"/>
<path d="M49.4261 253.735C53.9271 255.01 58.445 255.349 63.0646 254.765C63.1658 254.752 63.2631 254.718 63.35 254.664C63.437 254.611 63.5117 254.54 63.5693 254.456C63.6268 254.372 63.6659 254.276 63.6839 254.176C63.702 254.076 63.6985 253.973 63.6739 253.874C63.6205 253.072 61.1147 251.854 59.0908 251C58.254 250.644 57.4074 250.311 56.5521 250.002L56.548 249.998C55.2807 249.099 54.5081 247.692 54.1684 246.249C53.8168 244.732 53.9025 243.162 54.0704 241.625C53.1952 241.785 52.243 241.646 51.466 241.237C50.4399 243.894 49.7572 247.001 49.5118 250.002C49.5077 250.031 49.5077 250.064 49.5036 250.092C49.4015 251.334 49.3732 252.565 49.4261 253.735ZM17.5864 240.787C17.5454 241.515 17.6968 242.238 17.8482 242.954C18.0771 244.041 18.3102 245.141 18.7233 246.179C19.1365 247.213 19.7371 248.199 20.5999 248.902C21.4709 249.618 22.5622 250.014 23.6704 250.206C24.7781 250.402 25.9068 250.406 27.0309 250.415C27.6442 250.415 28.4126 250.308 28.5928 249.724C28.7647 249.156 28.2248 248.644 27.7464 248.293C26.7527 247.557 25.7471 246.768 25.0275 245.783C24.7628 245.425 24.5406 245.039 24.3653 244.63C23.7807 243.228 23.8664 241.613 24.3083 240.157C24.7457 238.697 25.8862 237.741 26.6469 236.42C25.7435 236.167 23.8792 234.503 23.6216 233.604C22.808 235.239 22.1048 237.299 20.3919 237.933C20.0609 238.052 19.7175 238.154 19.3901 238.281C19.0385 238.416 18.7033 238.579 18.4251 238.828C17.881 239.315 17.6234 240.059 17.5864 240.787Z" fill="#9DCEFF"/>
<path d="M410.746 239.327C409.759 240.341 407.771 242.219 406.623 243.11C399.029 235.938 387.372 213.965 385.094 208.423C384.511 207.009 383.9 205.282 383.29 203.432C380.879 196.131 379.941 194.554 379.941 194.554C379.454 196.84 379.975 197.659 379.507 204.827C379.383 206.746 379.449 210.87 379.362 212.495C379.459 222.33 381.535 243.055 382.876 250.677C382.618 250.719 382.389 250.755 382.338 250.755C380.915 250.755 378.592 250.687 377.21 250.553C377.155 250.416 377.099 250.278 377.045 250.136C376.852 249.644 376.654 249.126 376.448 248.584C376.42 248.51 376.393 248.437 376.365 248.359C371.333 234.644 368.568 213.68 368.568 213.68V213.658C367.865 185.434 375.699 169.252 376.223 168.238C376.237 168.205 376.246 168.187 376.246 168.187L381.811 168.063L384.437 168.008L386.104 167.962C395.466 176.158 394.376 199.685 394.233 206.756C394.233 206.917 394.229 207.068 394.224 207.206C394.22 207.339 394.22 207.459 394.215 207.564C394.206 207.973 394.197 208.188 394.197 208.188C398.43 212.807 407.119 232.715 410.746 239.327Z" fill="#3C53AA"/>
<path d="M21.4724 235.58C22.4597 236.594 24.4475 238.472 25.5958 239.363C33.1901 232.191 44.8472 210.217 47.1246 204.676C47.7079 203.262 48.3185 201.535 48.9291 199.685C51.3397 192.384 52.2778 190.807 52.2778 190.807C52.7644 193.093 52.2436 193.912 52.7119 201.08C52.836 202.999 52.7694 207.123 52.8565 208.748C52.7602 218.583 50.6839 239.308 49.3432 246.93C49.6004 246.972 49.8298 247.008 49.8804 247.008C51.3037 247.008 53.6272 246.939 55.0089 246.806C55.0641 246.669 55.1193 246.531 55.174 246.389C55.3669 245.897 55.5644 245.378 55.771 244.837C55.7983 244.763 55.8262 244.69 55.8535 244.612C60.8858 230.897 63.6508 209.933 63.6508 209.933V209.911C64.3535 181.687 56.5193 165.505 55.9958 164.491C55.9821 164.458 55.973 164.44 55.973 164.44L50.4081 164.316L47.7818 164.261L46.115 164.215C36.7531 172.411 37.843 195.938 37.9853 203.009C37.9853 203.17 37.9899 203.321 37.9944 203.459C37.999 203.592 37.999 203.712 38.0035 203.817C38.0127 204.226 38.0218 204.441 38.0218 204.441C33.7884 209.06 25.0996 228.968 21.4724 235.58Z" fill="#3C53AA"/>
<path d="M383.916 142.307C384.292 144.349 385.298 146.182 386.198 148.029C387.132 149.948 388.008 151.918 388.53 153.994C388.689 154.623 388.806 155.256 388.886 155.893C388.841 157.012 388.759 158.132 388.689 159.236C388.434 163.202 388.437 167.48 390.688 170.755C392.762 173.773 396.442 175.371 400.081 175.778C403.654 176.177 407.381 175.54 410.475 173.71C413.569 171.879 415.971 168.812 416.725 165.297C417.479 161.782 416.472 157.873 413.91 155.351C411.755 153.23 408.748 152.205 406.394 150.305C403.991 148.367 402.317 138.791 399.796 134.851C397.303 130.955 393.082 127.031 391.02 132.581C389.586 132.927 388.383 133.699 387.081 134.392C385.465 135.252 384.427 136.434 384.061 137.89C383.618 139.3 383.664 140.933 383.916 142.307Z" fill="#465AA5"/>
<path d="M48.3025 138.56C47.9272 140.602 46.9203 142.435 46.021 144.282C45.0866 146.201 44.211 148.17 43.6884 150.247C43.5302 150.876 43.4125 151.509 43.3327 152.146C43.3779 153.265 43.4595 154.385 43.5302 155.489C43.7847 159.455 43.7819 163.733 41.5309 167.008C39.4564 170.026 35.7772 171.624 32.1376 172.031C28.565 172.43 24.8374 171.793 21.7437 169.963C18.65 168.132 16.2476 165.065 15.4938 161.55C14.74 158.035 15.7465 154.126 18.3084 151.604C20.4637 149.482 23.4707 148.458 25.8252 146.558C28.2276 144.62 29.9021 135.044 32.4226 131.104C34.9153 127.208 39.1372 123.284 41.1985 128.834C42.6327 129.18 43.8362 129.952 45.1382 130.645C46.7534 131.505 47.7918 132.687 48.1575 134.142C48.6003 135.553 48.5552 137.186 48.3025 138.56Z" fill="#465AA5"/>
<path d="M386.719 147.081C387.481 147.837 388.472 148.318 389.537 148.449C390.597 148.578 391.569 148.275 392.475 147.721C392.492 146.964 392.545 146.208 392.638 145.458C392.659 145.285 392.68 145.111 392.705 144.94L392.708 144.924C392.738 144.725 392.77 144.526 392.805 144.328C392.96 143.44 393.099 142.989 393.359 142.126C393.374 142.075 393.388 142.022 393.406 141.971C393.479 141.726 393.561 141.482 393.646 141.238L393.647 141.236C393.931 140.417 394.264 139.615 394.643 138.835C393.116 139.115 391.59 139.468 390.278 140.296C390.207 140.549 390.13 140.802 390.047 141.052C389.968 141.302 389.883 141.55 389.792 141.796C389.762 141.877 389.735 141.959 389.703 142.034C389.595 142.322 389.481 142.607 389.359 142.889C389.35 142.912 389.34 142.934 389.331 142.957C389.238 143.17 389.145 143.383 389.045 143.593C388.971 143.751 388.897 143.906 388.818 144.059L388.807 144.081C388.203 145.286 387.554 146.006 386.719 147.081Z" fill="#9DCEFF"/>
<path d="M45.5 143.333C44.7379 144.088 43.7464 144.57 42.6813 144.701C41.6219 144.83 40.6501 144.527 39.744 143.973C39.7271 143.216 39.6742 142.46 39.5812 141.71C39.5602 141.537 39.5387 141.363 39.5137 141.192L39.5109 141.176C39.4808 140.977 39.4485 140.778 39.4138 140.58C39.2592 139.692 39.1201 139.241 38.8602 138.378C38.8447 138.327 38.831 138.274 38.8132 138.223C38.7393 137.978 38.6582 137.734 38.5724 137.49L38.572 137.488C38.2875 136.669 37.955 135.867 37.576 135.087C39.1023 135.367 40.6287 135.72 41.9411 136.548C42.012 136.801 42.0888 137.053 42.1714 137.304C42.2508 137.554 42.3358 137.802 42.4264 138.048C42.4564 138.129 42.4842 138.211 42.5162 138.286C42.6233 138.574 42.7379 138.859 42.8596 139.141C42.8683 139.164 42.8792 139.186 42.8878 139.209C42.9809 139.422 43.0739 139.635 43.1738 139.845C43.2481 140.003 43.322 140.158 43.4004 140.311L43.4114 140.333C44.0156 141.538 44.6646 142.258 45.5 143.333Z" fill="#9DCEFF"/>
<path d="M388.805 144.081C391.684 144.347 393.148 141.711 393.148 141.711L390.044 141.052C389.965 141.302 389.88 141.55 389.789 141.796C389.759 141.877 389.731 141.959 389.699 142.035C389.592 142.322 389.478 142.607 389.356 142.889C389.347 142.912 389.336 142.934 389.328 142.958C389.235 143.17 389.142 143.383 389.042 143.593C388.967 143.751 388.894 143.907 388.815 144.059C388.812 144.067 388.808 144.072 388.805 144.081Z" fill="#77B4F1"/>
<path d="M43.4141 140.334C40.5347 140.6 39.0704 137.964 39.0704 137.964L42.1746 137.305C42.2539 137.555 42.3389 137.803 42.4295 138.049C42.4596 138.13 42.4874 138.212 42.5193 138.287C42.6265 138.575 42.741 138.86 42.8627 139.142C42.8714 139.165 42.8823 139.187 42.891 139.21C42.984 139.423 43.077 139.636 43.1769 139.846C43.2513 140.004 43.3251 140.159 43.4036 140.312C43.4072 140.32 43.4104 140.325 43.4141 140.334Z" fill="#77B4F1"/>
<path d="M387.272 140.855C387.759 141.976 389.511 142.548 390.73 142.462C391.949 142.377 392.802 141.908 393.714 141.093C393.765 141.044 393.82 140.995 393.872 140.944C393.916 140.806 393.966 140.67 394.023 140.534C394.175 140.174 394.369 139.826 394.551 139.479C394.855 138.9 395.144 138.288 395.168 137.637C395.198 136.835 394.822 136.077 394.297 135.459C392.945 134.195 391.108 133.002 391.108 133.002L390.248 134.482L390.248 134.485C390.148 134.682 390.037 134.874 389.917 135.057C389.301 136.003 388.49 136.816 387.909 137.784C387.331 138.752 386.826 139.818 387.272 140.855Z" fill="#9DCEFF"/>
<path d="M44.9468 137.107C44.4602 138.228 42.7077 138.8 41.4887 138.714C40.2702 138.629 39.417 138.16 38.5049 137.345C38.4534 137.296 38.3986 137.247 38.3466 137.196C38.3024 137.058 38.2527 136.922 38.1953 136.786C38.0434 136.425 37.85 136.078 37.6681 135.73C37.3634 135.152 37.0752 134.54 37.0506 133.889C37.021 133.087 37.3972 132.329 37.9221 131.711C39.2733 130.447 41.1111 129.254 41.1111 129.254L41.9703 130.734L41.9707 130.737C42.0711 130.933 42.1819 131.126 42.3018 131.309C42.9179 132.255 43.7283 133.068 44.3093 134.036C44.888 135.004 45.3923 136.07 44.9468 137.107Z" fill="#9DCEFF"/>
<path d="M394.628 139.15C394.742 138.941 394.918 138.719 395.157 138.721C395.392 138.722 395.568 138.944 395.651 139.164C395.866 139.731 395.69 140.424 395.23 140.818C394.77 141.213 394.059 141.284 393.531 140.986C393.858 140.372 394.294 139.76 394.628 139.15Z" fill="#9DCEFF"/>
<path d="M37.5912 135.402C37.4763 135.192 37.3012 134.971 37.0622 134.973C36.8265 134.974 36.6509 135.196 36.5674 135.416C36.3526 135.983 36.5291 136.675 36.9888 137.07C37.4485 137.465 38.1594 137.536 38.6875 137.238C38.3605 136.624 37.9246 136.012 37.5912 135.402Z" fill="#9DCEFF"/>
<path d="M390.271 138.044C390.268 138.079 390.17 138.081 390.054 138.022C389.932 137.965 389.787 137.844 389.691 137.638C389.64 137.521 389.618 137.394 389.627 137.267C389.635 137.113 389.691 136.994 389.739 136.943C389.767 136.914 389.786 136.906 389.804 136.917C389.814 136.92 389.82 136.927 389.825 136.937C389.841 136.979 389.84 137.077 389.853 137.195C389.866 137.284 389.884 137.383 389.924 137.484C389.926 137.497 389.931 137.507 389.937 137.519C389.998 137.675 390.096 137.793 390.172 137.881C390.239 137.959 390.286 138.01 390.271 138.044Z" fill="#647DDD"/>
<path d="M41.9482 134.297C41.9509 134.331 42.0485 134.334 42.1644 134.274C42.2866 134.218 42.4321 134.097 42.5274 133.891C42.5789 133.774 42.601 133.647 42.5917 133.52C42.5835 133.366 42.5274 133.247 42.4795 133.196C42.4521 133.167 42.4325 133.159 42.4143 133.169C42.4051 133.173 42.3992 133.18 42.3937 133.19C42.3778 133.232 42.3787 133.33 42.3655 133.448C42.3532 133.537 42.3349 133.636 42.2952 133.737C42.293 133.75 42.2875 133.76 42.282 133.772C42.2209 133.928 42.1224 134.046 42.0467 134.134C41.9797 134.212 41.9332 134.263 41.9482 134.297Z" fill="#647DDD"/>
<path d="M391.214 139.059C390.23 138.846 389.193 138.282 388.84 137.948C388.72 137.834 388.517 137.882 388.465 138.029C387.488 140.797 390.375 140.39 391.273 139.425C391.403 139.286 391.407 139.101 391.214 139.059Z" fill="white"/>
<path d="M41.0043 135.311C41.9884 135.098 43.0258 134.534 43.3784 134.2C43.4988 134.086 43.7021 134.134 43.7541 134.281C44.7305 137.049 41.8438 136.642 40.9459 135.677C40.8159 135.538 40.8118 135.353 41.0043 135.311Z" fill="white"/>
<path d="M375.793 136.368C376.154 138.054 376.728 140.273 377.624 143.046L377.622 143.051C378.732 146.525 380.347 150.873 382.679 156.169L382.69 156.192L388.491 147.189L388.54 147.111C388.54 147.111 388.461 147.062 388.314 146.955L388.308 146.952C387.534 146.383 384.929 144.222 382.576 139.325L382.567 139.315C381.767 137.644 380.994 135.661 380.333 133.312L386.607 117.049L384.625 116.305C384.625 116.305 380.551 123.005 377.015 128.938C375.682 131.171 375.245 133.826 375.793 136.368Z" fill="#9DCEFF"/>
<path d="M56.4261 132.62C56.0649 134.306 55.4908 136.525 54.5947 139.298L54.597 139.303C53.4865 142.777 51.8713 147.125 49.5396 152.421L49.5291 152.444L43.7279 143.441L43.6791 143.362C43.6791 143.362 43.7576 143.314 43.9049 143.207L43.9103 143.204C44.6851 142.635 47.29 140.474 49.6426 135.577L49.6518 135.567C50.4516 133.896 51.2246 131.913 51.8859 129.564L45.6122 113.301L47.5937 112.557C47.5937 112.557 51.6679 119.257 55.2035 125.19C56.5364 127.423 56.9733 130.078 56.4261 132.62Z" fill="#9DCEFF"/>
<path d="M387.422 146.184C387.422 146.184 383.696 141.929 382.577 139.325C382.577 139.325 379.346 140.795 377.844 143.735L380.032 152.624L387.422 146.184Z" fill="#5676EF"/>
<path d="M44.797 142.436C44.797 142.436 48.5223 138.181 49.6419 135.577C49.6419 135.577 52.8724 137.047 54.375 139.987L52.187 148.875L44.797 142.436Z" fill="#5676EF"/>
<path d="M398.258 152.962C396.543 154.203 394.707 155.719 392.978 157.512C390.2 160.404 387.684 164.039 386.373 168.447L386.365 168.44C381.9 170.162 376.273 168.284 376.273 168.284C376.592 163.528 377.004 160.488 377.875 157.554C378.364 155.945 378.286 153.961 378.804 152.551C379.569 150.453 381.759 149.348 382.723 148.377C384.147 146.967 385.401 146.449 386.039 146.272C386.174 146.229 386.316 146.201 386.458 146.173C386.465 146.173 386.473 146.17 386.479 146.165C386.493 146.173 386.507 146.165 386.521 146.165C386.946 146.158 387.365 146.18 387.797 146.236C389.37 146.442 390.781 146.264 392.325 146.605C392.361 146.612 392.389 146.626 392.417 146.626C392.467 146.64 392.524 146.654 392.566 146.676C392.814 146.74 393.048 146.832 393.275 146.945C393.742 147.167 394.169 147.467 394.536 147.831C395.523 148.781 396.912 150.702 398.258 152.962Z" fill="#5676EF"/>
<path d="M33.9687 149.215C35.6839 150.455 37.5194 151.972 39.2487 153.765C42.0268 156.657 44.5428 160.292 45.8539 164.7L45.8611 164.693C50.3261 166.415 55.9531 164.537 55.9531 164.537C55.6344 159.781 55.223 156.741 54.3515 153.807C53.8627 152.198 53.9406 150.214 53.423 148.804C52.6574 146.706 50.4675 145.601 49.5039 144.63C48.0793 143.22 46.8252 142.702 46.1872 142.525C46.0527 142.482 45.9108 142.454 45.769 142.426C45.7612 142.426 45.7536 142.423 45.7476 142.418C45.7334 142.426 45.7193 142.418 45.7052 142.418C45.2801 142.411 44.862 142.433 44.4296 142.489C42.8563 142.695 41.4458 142.517 39.9013 142.858C39.8657 142.865 39.8374 142.879 39.8092 142.879C39.7594 142.893 39.7029 142.907 39.6605 142.929C39.4124 142.993 39.1785 143.085 38.9518 143.198C38.4841 143.42 38.0576 143.719 37.6904 144.084C36.704 145.034 35.3149 146.955 33.9687 149.215Z" fill="#5676EF"/>
<path d="M407.99 146.227C406.411 147.384 404.249 148.831 401.397 150.505C401.481 150.324 402.984 146.96 400.023 143.612C401.962 142.8 404.114 141.702 406.448 140.211L413.911 121.801L415.856 122.259C415.856 122.259 414.043 131.31 412.561 139.008C412.006 141.906 410.373 144.486 407.99 146.227Z" fill="#9DCEFF"/>
<path d="M24.2289 142.48C25.8077 143.637 27.9697 145.084 30.8218 146.758C30.7374 146.577 29.2343 143.213 32.1953 139.865C30.2563 139.053 28.1043 137.955 25.7712 136.464L18.3078 118.054L16.3628 118.512C16.3628 118.512 18.1756 127.563 19.6577 135.261C20.2124 138.159 21.8461 140.739 24.2289 142.48Z" fill="#9DCEFF"/>
<path d="M402.818 150.107C401.239 150.963 399.715 151.918 398.256 152.966C396.538 154.201 394.705 155.718 392.972 157.514L392.422 146.735L392.564 146.675L392.728 146.604L392.735 146.606L401.275 142.942C402.244 143.824 402.814 145.148 402.981 146.468C403.139 147.676 403.016 148.901 402.818 150.107Z" fill="#5676EF"/>
<path d="M29.4003 146.359C30.9795 147.215 32.5034 148.17 33.9629 149.217C35.6807 150.453 37.5135 151.97 39.2464 153.766L39.7969 142.987L39.655 142.927L39.4904 142.856L39.4836 142.858L30.9439 139.194C29.9749 140.076 29.4048 141.4 29.2379 142.72C29.0801 143.928 29.2032 145.153 29.4003 146.359Z" fill="#5676EF"/>
<path d="M387.423 146.184C387.423 146.184 382.427 152.72 392.563 146.675C392.563 146.675 392.282 143.781 387.423 146.184ZM419.667 118.832C418.965 121 417.31 122.842 415.23 123.774C414.512 123.445 414.491 123.26 413.774 122.931C413.299 121.682 413.236 120.29 413.572 119C414.129 117.074 414.249 118.8 414.264 118.933L414.264 118.941C414.242 119.387 414.296 119.785 414.282 120.232C415.394 118.926 416.912 118.029 418.593 117.684C418.964 117.607 419.42 117.593 419.648 117.89C419.848 118.15 419.77 118.521 419.667 118.832ZM382.962 111.931C382.299 114.112 382.603 116.569 383.777 118.523C384.554 118.664 384.676 118.524 385.454 118.664C386.557 117.91 387.405 116.805 387.867 115.554C388.51 113.656 387.425 115.004 387.337 115.103L387.332 115.11C387.095 115.489 386.824 115.784 386.58 116.159C386.413 114.451 385.681 112.848 384.499 111.604C384.238 111.328 383.873 111.056 383.516 111.17C383.204 111.269 383.055 111.617 382.962 111.931Z" fill="#9DCEFF"/>
<path d="M44.7955 142.436C44.7955 142.436 49.7922 148.972 39.656 142.926C39.6556 142.926 39.9369 140.032 44.7955 142.436ZM12.5518 115.083C13.2536 117.252 14.9085 119.094 16.989 120.026C17.7067 119.697 17.7273 119.512 18.4451 119.183C18.9193 117.934 18.9827 116.542 18.6471 115.252C18.0894 113.326 17.9695 115.052 17.9544 115.185L17.9548 115.192C17.9767 115.639 17.9225 116.037 17.9371 116.484C16.8243 115.178 15.3067 114.281 13.6257 113.936C13.2545 113.859 12.7989 113.845 12.5709 114.142C12.3712 114.402 12.4487 114.773 12.5518 115.083ZM49.2564 108.183C49.9199 110.364 49.6153 112.821 48.4419 114.775C47.6644 114.916 47.5426 114.776 46.7651 114.916C45.6615 114.162 44.8142 113.057 44.3518 111.806C43.7083 109.908 44.7937 111.256 44.8821 111.355L44.8863 111.362C45.1234 111.741 45.3952 112.036 45.6392 112.411C45.8054 110.703 46.5379 109.1 47.72 107.856C47.9804 107.58 48.3462 107.308 48.7032 107.422C49.0152 107.521 49.1638 107.869 49.2564 108.183Z" fill="#9DCEFF"/>
<path d="M379.718 188.744C379.679 188.304 378.99 188.336 379.03 188.778C379.212 190.806 379.522 192.821 379.96 194.809C378.88 194.242 378.505 192.871 378.092 191.788C377.936 191.376 377.28 191.589 377.439 192.005C377.994 193.464 378.522 195.119 380.158 195.627C380.868 198.608 381.866 201.512 383.138 204.3C383.32 204.698 383.977 204.487 383.792 204.083C381.562 199.206 380.198 194.088 379.718 188.744ZM389.873 180.938C386.771 180.145 384.501 176.73 384.689 173.549C384.716 173.107 384.027 173.108 384.001 173.549C383.794 177.042 386.286 180.732 389.69 181.602C390.119 181.711 390.303 181.047 389.873 180.938ZM394.49 204.42C394.457 203.98 393.768 203.977 393.801 204.42C393.942 206.344 393.612 208.189 392.782 209.933C392.593 210.332 393.186 210.682 393.377 210.281C394.257 208.429 394.64 206.466 394.49 204.42Z" fill="#253982"/>
<path d="M52.501 184.997C52.5402 184.557 53.2283 184.589 53.1887 185.031C53.0071 187.059 52.6964 189.074 52.2584 191.062C53.3387 190.495 53.714 189.124 54.1263 188.041C54.2831 187.629 54.9385 187.842 54.7802 188.257C54.2243 189.717 53.6971 191.372 52.0604 191.88C51.3508 194.861 50.3528 197.765 49.0807 200.553C48.8988 200.951 48.2421 200.74 48.4268 200.336C50.6563 195.459 52.0212 190.341 52.501 184.997ZM42.3456 177.19C45.448 176.398 47.7181 172.983 47.5293 169.802C47.5029 169.359 48.1919 169.361 48.2179 169.802C48.425 173.295 45.9327 176.985 42.5285 177.855C42.0993 177.964 41.916 177.3 42.3456 177.19ZM37.7292 200.672C37.7616 200.233 38.4506 200.23 38.4178 200.672C38.2764 202.597 38.607 204.442 39.4366 206.186C39.6258 206.584 39.0325 206.935 38.8419 206.534C37.9613 204.682 37.5787 202.719 37.7292 200.672Z" fill="#253982"/>
<path d="M382.217 148.568C379.336 150.229 377.802 153.235 378.161 156.548C378.208 156.983 378.897 156.988 378.849 156.548C378.515 153.459 379.87 150.717 382.565 149.163C382.949 148.942 382.602 148.346 382.217 148.568ZM389.6 155.736C388.466 156.847 386.866 158.111 385.251 157.105C384.874 156.869 384.527 157.465 384.903 157.699C386.793 158.877 388.722 157.561 390.087 156.223C390.404 155.912 389.917 155.425 389.6 155.736Z" fill="#405DCC"/>
<path d="M50.0016 144.82C52.8828 146.481 54.4164 149.487 54.058 152.799C54.011 153.235 53.3215 153.24 53.3694 152.799C53.7037 149.711 52.3492 146.969 49.6541 145.415C49.2701 145.194 49.6167 144.598 50.0016 144.82ZM42.6189 151.988C43.7526 153.099 45.3532 154.363 46.9681 153.357C47.3452 153.121 47.6913 153.717 47.3156 153.951C45.4262 155.129 43.4972 153.813 42.1318 152.475C41.8149 152.164 42.3019 151.677 42.6189 151.988Z" fill="#405DCC"/>
<path d="M414.632 244.534C414.673 245.262 414.522 245.985 414.371 246.7C414.142 247.788 413.909 248.887 413.495 249.926C413.082 250.96 412.482 251.946 411.619 252.649C410.748 253.364 409.657 253.761 408.548 253.953C407.441 254.149 406.312 254.153 405.188 254.161C404.575 254.161 403.806 254.055 403.626 253.471C403.454 252.902 403.994 252.391 404.472 252.04C405.466 251.303 406.472 250.515 407.191 249.53C408.442 250.695 410.711 247.98 411.153 247.301C411.625 246.578 411.993 245.792 412.249 244.967C412.551 244.01 412.665 243.013 412.829 242.027C413.181 242.162 413.516 242.326 413.794 242.575C414.338 243.062 414.595 243.806 414.632 244.534ZM382.793 257.481C378.292 258.757 373.774 259.096 369.154 258.512C369.053 258.499 368.956 258.464 368.869 258.411C368.782 258.358 368.707 258.287 368.649 258.203C368.592 258.119 368.553 258.023 368.535 257.923C368.517 257.822 368.52 257.719 368.545 257.62C368.598 256.819 371.104 255.601 373.128 254.747C375.998 257.028 379.755 255.801 382.715 253.839C382.817 255.081 382.846 256.312 382.793 257.481Z" fill="#253982"/>
<path d="M17.5864 240.787C17.5454 241.514 17.6968 242.238 17.8482 242.953C18.0771 244.041 18.3102 245.14 18.7233 246.179C19.1365 247.213 19.7371 248.199 20.5999 248.902C21.4709 249.617 22.5622 250.014 23.6704 250.206C24.7781 250.402 25.9068 250.406 27.0309 250.414C27.6442 250.414 28.4126 250.308 28.5928 249.723C28.7647 249.155 28.2248 248.644 27.7464 248.292C26.7527 247.556 25.7471 246.767 25.0275 245.782C23.7766 246.948 21.5074 244.233 21.066 243.554C20.5941 242.831 20.2253 242.045 19.9701 241.22C19.6678 240.263 19.5533 239.266 19.3896 238.28C19.038 238.415 18.7028 238.579 18.4246 238.828C17.881 239.315 17.6234 240.059 17.5864 240.787ZM49.4261 253.734C53.9271 255.01 58.445 255.349 63.0646 254.764C63.1658 254.752 63.2631 254.717 63.35 254.664C63.437 254.611 63.5117 254.54 63.5693 254.456C63.6268 254.371 63.6659 254.276 63.6839 254.176C63.702 254.075 63.6985 253.972 63.6739 253.873C63.6205 253.072 61.1147 251.854 59.0908 250.999C56.221 253.281 52.4637 252.054 49.5036 250.092C49.4015 251.334 49.3732 252.565 49.4261 253.734Z" fill="#253982"/>
<path d="M392.301 74.7792C393.068 76.5163 393.411 78.3272 393.181 80.2206C393.08 81.0784 392.867 83.2678 391.787 83.5291C390.677 83.7991 388.571 82.4885 387.661 81.9403C386.094 81.0045 384.74 79.781 383.599 78.3577C383.238 77.9008 383.469 77.2997 384.061 77.2432C386.264 77.0257 388.371 77.7439 389.955 79.211C390.008 77.6614 390.417 76.1857 391.174 74.7792C391.387 74.3789 392.101 74.3264 392.301 74.7792ZM404.194 83.059C403.485 87.0684 400.733 91.574 397.299 93.7985C396.998 93.99 396.58 93.8551 396.402 93.5632C394.278 90.0066 393.529 86.0537 394.126 81.9617C394.213 81.3826 395.066 81.3612 395.323 81.8049C396.337 83.5547 397.273 85.3049 397.739 87.2116C398.836 84.8607 400.83 83.1023 403.393 82.2577C403.907 82.0885 404.277 82.602 404.194 83.059ZM422.833 108.35C420.29 110.274 416.39 112.054 413.164 110.992C412.746 110.857 412.646 110.443 412.755 110.121C412.741 110.064 412.733 110.006 412.729 109.947C412.677 107.274 413.33 104.793 414.697 102.499C414.989 102.011 415.733 102.116 415.889 102.656C416.272 103.948 416.268 105.207 416.15 106.513C418.344 106.453 420.536 106.669 422.676 107.157C423.281 107.292 423.242 108.04 422.833 108.35ZM412.563 104.113C412.267 104.336 411.849 104.148 411.671 103.883C408.619 99.3293 408.31 93.9663 409.068 88.6727C409.133 88.1984 409.865 88.0329 410.161 88.3854C412.168 90.7755 413.438 93.4916 413.97 96.4909C415.418 94.9829 417.096 93.7134 418.941 92.7296C419.454 92.4509 420.025 92.9038 419.899 93.4651C419.376 95.816 417.905 97.7532 416.529 99.6818C415.362 101.319 414.187 102.908 412.563 104.113ZM393.08 107.842C392.784 108.329 392.057 108.221 391.887 107.685C391.622 106.823 391.352 105.961 391.082 105.099C391.019 105.123 390.952 105.132 390.886 105.125C386.977 104.681 384.857 101.456 383.12 98.269C382.828 97.729 383.307 97.2197 383.855 97.3068C386.216 97.6741 388.446 98.6324 390.337 100.093C390.472 100.197 390.551 100.332 390.585 100.476C390.599 100.496 390.61 100.518 390.62 100.541C390.659 100.65 390.694 100.763 390.733 100.872C391.068 98.7259 391.947 96.7016 392.936 94.7033C393.145 94.281 393.854 94.2723 394.063 94.7033C395.884 98.4824 395.222 104.325 393.08 107.842Z" fill="#394D96"/>
<path d="M39.9174 71.0312C39.1512 72.7682 38.8074 74.5791 39.0381 76.4726C39.1385 77.3304 39.3514 79.5198 40.4313 79.7811C41.5413 80.0511 43.6481 78.7404 44.5579 78.1923C46.1249 77.2565 47.4788 76.033 48.6194 74.6097C48.9805 74.1527 48.7498 73.5517 48.1579 73.4951C45.9552 73.2776 43.8479 73.9959 42.2636 75.4629C42.2112 73.9133 41.8021 72.4376 41.0447 71.0312C40.8317 70.6308 40.1176 70.5784 39.9174 71.0312ZM28.0245 79.3109C28.7341 83.3203 31.4853 87.8259 34.9201 90.0505C35.2207 90.242 35.6384 90.107 35.8167 89.8151C37.9409 86.2586 38.6897 82.3057 38.0932 78.2137C38.0061 77.6345 37.1529 77.6131 36.8962 78.0568C35.8819 79.8066 34.9457 81.5569 34.4801 83.4635C33.3829 81.1127 31.3891 79.3542 28.8253 78.5097C28.3118 78.3405 27.942 78.854 28.0245 79.3109ZM9.38605 104.602C11.9284 106.526 15.8289 108.306 19.0548 107.244C19.4726 107.109 19.5729 106.695 19.4639 106.373C19.4773 106.316 19.486 106.258 19.4899 106.199C19.5419 103.526 18.8888 101.045 17.5221 98.7506C17.2302 98.2631 16.486 98.3676 16.3296 98.9075C15.9465 100.2 15.9506 101.459 16.0683 102.765C13.8747 102.705 11.6824 102.921 9.54293 103.409C8.93777 103.544 8.97699 104.292 9.38605 104.602ZM19.6554 100.365C19.9514 100.588 20.3696 100.4 20.5479 100.135C23.5996 95.5812 23.9084 90.2183 23.1509 84.9247C23.0857 84.4504 22.3542 84.2848 22.0582 84.6374C20.0512 87.0274 18.7803 89.7436 18.249 92.7429C16.8006 91.2348 15.1228 89.9653 13.2778 88.9815C12.7643 88.7029 12.1938 89.1557 12.3201 89.7171C12.8423 92.0679 14.3139 94.0052 15.6898 95.9337C16.8563 97.5709 18.032 99.1597 19.6554 100.365ZM39.1385 104.094C39.4344 104.581 40.1613 104.473 40.3314 103.937C40.5968 103.075 40.8668 102.213 41.1368 101.351C41.1993 101.375 41.2664 101.384 41.3329 101.377C45.242 100.933 47.3621 97.7077 49.0991 94.5209C49.391 93.981 48.9121 93.4716 48.3635 93.5587C46.0026 93.9261 43.7728 94.8844 41.8815 96.3446C41.7465 96.449 41.6681 96.584 41.6334 96.7277C41.6201 96.7484 41.6085 96.7702 41.5987 96.7929C41.5595 96.9019 41.5249 97.015 41.4856 97.124C41.1505 94.9779 40.2713 92.9536 39.283 90.9552C39.0742 90.5329 38.3646 90.5243 38.1557 90.9552C36.3348 94.7344 36.9965 100.577 39.1385 104.094Z" fill="#394D96"/>
<path d="M385.384 88.4851C385.004 87.7349 383.877 88.3952 384.256 89.144C388.109 96.7652 391.992 104.716 391.58 113.479C391.54 114.319 392.846 114.317 392.886 113.479C393.309 104.495 389.336 96.3024 385.384 88.4851ZM427.913 94.9922C423.829 97.0379 420.526 100.147 417.605 103.618C414.93 106.797 411.63 110.344 410.359 114.359C410.105 115.162 411.365 115.506 411.619 114.706C412.874 110.742 416.308 107.114 418.978 104.012C421.718 100.829 424.794 98.0125 428.573 96.1195C429.324 95.7433 428.664 94.6164 427.913 94.9922ZM414.637 79.5788C414.496 78.752 413.237 79.1027 413.377 79.9258C414.86 88.6027 414.084 97.4269 411.168 105.729C410.888 106.523 412.15 106.864 412.427 106.076C415.424 97.5446 416.159 88.4878 414.637 79.5788ZM401.26 73.4105C397.786 81.8534 396.072 90.8537 396.181 99.9816C396.191 100.821 397.497 100.823 397.487 99.9816C397.38 90.9618 399.088 82.0979 402.52 73.7575C402.839 72.9809 401.576 72.6425 401.26 73.4105ZM393.146 85.1091C390.843 79.472 386.234 72.0365 382.444 67.2709C381.921 66.6133 381.002 67.5427 381.52 68.1944C385.161 72.7711 389.674 80.0425 391.887 85.4561C392.2 86.2241 393.464 85.888 393.146 85.1091Z" fill="#253675"/>
<path d="M46.8352 84.737C47.2146 83.9868 48.3415 84.6472 47.963 85.396C44.1095 93.0172 40.2264 100.968 40.6387 109.731C40.6784 110.571 39.3723 110.569 39.3326 109.731C38.9099 100.747 42.8828 92.5543 46.8352 84.737ZM4.30526 91.2441C8.38948 93.2899 11.693 96.3991 14.6138 99.87C17.2889 103.049 20.5888 106.596 21.8597 110.611C22.1138 111.414 20.8538 111.758 20.6002 110.958C19.3452 106.994 15.9104 103.366 13.2403 100.264C10.5009 97.0813 7.42495 94.2644 3.64582 92.3714C2.89473 91.9952 3.55509 90.8683 4.30526 91.2441ZM17.5817 75.8307C17.7231 75.0039 18.9817 75.3546 18.8413 76.1778C17.3587 84.8547 18.1348 93.6789 21.0512 101.98C21.3303 102.775 20.0689 103.116 19.7921 102.328C16.795 93.7965 16.0599 84.7397 17.5817 75.8307ZM30.9585 69.6624C34.433 78.1054 36.1463 87.1056 36.0378 96.2336C36.0277 97.0731 34.7216 97.0754 34.7317 96.2336C34.8388 87.2137 33.131 78.3498 29.6989 70.0095C29.3797 69.2328 30.6425 68.8945 30.9585 69.6624ZM39.0731 81.361C41.3761 75.724 45.9847 68.2884 49.7748 63.5229C50.2979 62.8653 51.2163 63.7947 50.6983 64.4463C47.0582 69.0231 42.5444 76.2945 40.3322 81.7081C40.0184 82.476 38.7548 82.1399 39.0731 81.361Z" fill="#253675"/>
<path d="M386.347 89.0688C386.286 89.6658 385.852 90.3607 385.64 90.8063C385.435 91.2272 384.793 91.1825 384.577 90.8063C384.447 90.5575 384.299 90.3183 384.135 90.0908C384 90.1236 383.865 90.1601 383.73 90.1929C383.362 90.2052 382.876 90.389 382.508 90.4588C382.152 90.524 381.759 90.6426 381.42 90.4465C380.55 89.9435 381.559 89.134 381.22 88.5207C380.823 87.8093 379.654 87.1635 380.349 86.1985C380.574 85.8798 380.835 85.8716 381.167 85.7407C381.813 85.483 381.788 85.1032 382.086 84.5386C382.18 84.363 382.413 84.2198 382.614 84.2362C383.28 84.2855 383.537 84.5226 384.261 84.3179C384.625 84.2116 384.887 84.0274 385.291 84.1136C386.064 84.2691 386.117 84.8414 386.04 85.4912C385.999 85.8223 385.917 86.1944 386.162 86.4028C386.289 86.5091 386.539 86.4927 386.69 86.5825C386.951 86.7339 387.106 86.9054 387.16 87.2041C387.279 87.8302 386.777 88.5494 386.347 89.0688ZM404.97 72.7237C404.671 73.0507 404.675 73.1082 404.597 73.566C404.552 73.836 404.512 74.0526 404.348 74.2733C404.203 74.4748 403.992 74.6183 403.751 74.6783C403.53 75.5612 402.77 76.2361 401.948 76.0683C401.097 76.0518 399.83 75.9989 399.372 75.2219C398.98 74.5515 399.315 74.0321 399.712 73.5332C399.499 73.2021 399.058 72.83 398.943 72.4989C398.8 72.0821 398.812 71.7018 398.968 71.2968C399.119 70.9042 399.483 70.7532 399.867 70.9329C400.141 70.7897 400.272 70.5731 400.26 70.283C400.337 69.874 400.84 69.7436 401.163 69.915C401.543 70.1193 402.116 70.569 402.557 70.5731C402.999 70.5772 403.269 70.1193 403.62 69.8411C403.935 69.5917 404.565 69.604 404.646 70.1152C404.744 70.7528 405.443 70.9329 405.55 71.5627C405.64 72.1063 405.292 72.3721 404.97 72.7237Z" fill="#55AAFF"/>
<path d="M45.8717 85.3208C45.9328 85.9177 46.3665 86.6127 46.579 87.0582C46.7833 87.4792 47.4254 87.4345 47.642 87.0582C47.7717 86.8094 47.9193 86.5703 48.0834 86.3427C48.2184 86.3756 48.3534 86.412 48.4884 86.4449C48.8564 86.4572 49.343 86.641 49.711 86.7107C50.0667 86.776 50.4594 86.8945 50.7986 86.6984C51.6692 86.1954 50.6595 85.386 50.9988 84.7726C51.3956 84.0612 52.5648 83.4155 51.8699 82.4505C51.645 82.1317 51.3833 82.1235 51.0522 81.9926C50.406 81.735 50.4306 81.3551 50.1324 80.7905C50.0384 80.615 49.8054 80.4718 49.6052 80.4882C48.9389 80.5374 48.6813 80.7746 47.9576 80.5698C47.5937 80.4636 47.3319 80.2793 46.9274 80.3655C46.1549 80.521 46.1015 81.0934 46.179 81.7432C46.2201 82.0743 46.3017 82.4464 46.0564 82.6548C45.9296 82.7611 45.6801 82.7446 45.5292 82.8345C45.2674 82.9859 45.1124 83.1573 45.059 83.456C44.9395 84.0822 45.4421 84.8013 45.8717 85.3208ZM27.2492 68.9757C27.5474 69.3027 27.5437 69.3601 27.6213 69.818C27.6664 70.0879 27.707 70.3046 27.8707 70.5253C28.0155 70.7267 28.227 70.8702 28.4677 70.9302C28.6884 71.8131 29.4491 72.488 30.2708 72.3202C31.1213 72.3038 32.3886 72.2509 32.8465 71.4738C33.2391 70.8034 32.9035 70.284 32.5072 69.7851C32.7197 69.4541 33.1612 69.0819 33.2756 68.7508C33.4188 68.334 33.4065 67.9537 33.251 67.5488C33.0996 67.1561 32.7357 67.0052 32.3517 67.1848C32.0776 67.0416 31.9468 66.825 31.9591 66.535C31.8816 66.1259 31.3785 65.9955 31.0557 66.167C30.6753 66.3713 30.103 66.8209 29.6616 66.825C29.2201 66.8291 28.9502 66.3713 28.5986 66.0931C28.2839 65.8436 27.6541 65.856 27.5725 66.3672C27.4745 67.0047 26.7753 67.1848 26.6691 67.8146C26.5788 68.3582 26.9263 68.6241 27.2492 68.9757Z" fill="#55AAFF"/>
<path d="M384.565 67.7559C384.675 68.2138 384.475 68.5202 384.156 68.7291C384.115 68.8645 384.029 68.9815 383.911 69.0602C383.653 69.2316 383.592 70.3111 383.445 70.6303C383.355 70.8305 383.118 70.9208 382.918 70.9326C382.57 70.9573 382.468 70.8059 382.206 70.6421C381.687 70.3152 381.781 70.5071 381.241 70.6791C380.244 70.9937 380.15 69.9759 379.418 69.7346C378.801 69.5344 377.652 69.6776 377.505 68.7984C377.382 68.0665 378.187 67.817 378.703 67.4412C378.494 66.9264 378.118 66.4763 378.482 65.8798C378.588 65.7038 378.772 65.5733 378.94 65.4589C379.316 65.2012 379.643 64.9928 379.999 64.7028C380.309 64.4492 380.636 64.2778 381.029 64.5067C381.417 64.7356 381.217 64.9768 381.847 64.981C382.325 64.981 382.954 64.6458 383.392 64.4738C383.621 64.384 383.981 64.5313 384.083 64.7561C384.308 65.2386 384.451 65.7047 384.337 66.2401C384.267 66.5752 384.099 66.8083 384.206 67.164C384.266 67.3715 384.508 67.527 384.565 67.7559Z" fill="#5676EF"/>
<path d="M47.6537 64.0088C47.5434 64.4667 47.7436 64.7731 48.0623 64.982C48.1034 65.1174 48.1901 65.2344 48.3077 65.3131C48.5654 65.4845 48.6265 66.564 48.7738 66.8832C48.8636 67.0834 49.1007 67.1737 49.3009 67.1856C49.6484 67.2102 49.7506 67.0588 50.0123 66.8951C50.5318 66.5681 50.4373 66.7601 50.9773 66.932C51.9751 67.2467 52.069 66.2288 52.8005 65.9876C53.418 65.7874 54.5667 65.9306 54.714 65.0513C54.8367 64.3194 54.0313 64.0699 53.516 63.6942C53.7244 63.1793 54.1007 62.7292 53.7367 62.1327C53.6305 61.9567 53.4467 61.8263 53.2789 61.7118C52.9027 61.4542 52.5757 61.2457 52.22 60.9557C51.9094 60.7022 51.5824 60.5307 51.1898 60.7596C50.8013 60.9885 51.0019 61.2298 50.3721 61.2339C49.8938 61.2339 49.2644 60.8987 48.8266 60.7268C48.5977 60.6369 48.2379 60.7842 48.1358 61.0091C47.911 61.4915 47.7677 61.9576 47.8822 62.493C47.9515 62.8282 48.1193 63.0612 48.0131 63.4169C47.9524 63.6244 47.7112 63.7799 47.6537 64.0088Z" fill="#5676EF"/>
<path d="M432.189 96.3004C432.124 96.6561 431.793 96.8645 431.699 97.2366C431.613 97.5554 431.751 97.8377 431.498 98.1195C431.323 98.3115 431.134 98.3566 430.881 98.3772C430.611 98.4018 430.333 98.2504 430.072 98.2217C429.597 98.1688 429.168 98.2586 428.743 98.3772C427.896 98.6061 426.956 98.1441 426.126 98.6102C425.741 98.8227 425.378 98.6061 425.222 98.2422C425.1 97.948 425.296 97.2895 425.206 97.134C425.161 97.0524 424.65 96.9867 424.523 96.8476C424.004 96.2794 424.65 95.4618 424.916 94.9464C424.924 94.9273 424.935 94.9095 424.949 94.8935C424.197 94.4152 423.518 93.8141 424.352 93.0416C424.65 92.7634 424.847 92.8861 425.222 92.5021C425.378 92.3466 425.414 92.1341 425.648 92.0278C425.815 91.9462 425.95 91.995 426.118 91.9667C426.224 91.9914 426.326 92.0278 426.424 92.0771C427.238 92.2855 427.855 92.114 428.276 91.5618C428.591 91.2389 429.196 91.3821 429.302 91.8318C429.4 92.249 429.498 92.96 430.062 93.0421C429.952 93.0256 431.203 92.8742 431.154 92.8742C431.645 92.8783 431.89 93.3813 431.685 93.794C431.415 94.3376 431.42 94.6892 431.718 95.1881C431.808 95.3354 431.996 95.4171 432.082 95.5767C432.222 95.8261 432.243 96.0345 432.189 96.3004Z" fill="#55AAFF"/>
<path d="M0.0294724 92.5533C0.0946846 92.909 0.426187 93.1174 0.52013 93.4896C0.605864 93.8083 0.467269 94.0906 0.720367 94.3724C0.895939 94.5644 1.08428 94.6096 1.33784 94.6301C1.60781 94.6547 1.88548 94.5033 2.14725 94.4746C2.62152 94.4217 3.05067 94.5115 3.47615 94.6301C4.32255 94.859 5.2629 94.3971 6.09288 94.8631C6.47731 95.0756 6.84121 94.859 6.99626 94.4951C7.11893 94.201 6.92284 93.5425 7.01268 93.387C7.05783 93.3053 7.56856 93.2397 7.69533 93.1006C8.21475 92.5324 7.56857 91.7147 7.30271 91.1994C7.29432 91.1803 7.28326 91.1625 7.26986 91.1465C8.02186 90.6681 8.70087 90.067 7.86679 89.2945C7.56855 89.0163 7.37203 89.139 6.99626 88.755C6.84075 88.5995 6.80426 88.387 6.57123 88.2808C6.40341 88.1991 6.26888 88.2479 6.10106 88.2197C5.9948 88.2443 5.89266 88.2808 5.79461 88.33C4.98105 88.5384 4.36357 88.367 3.94265 87.8147C3.62799 87.4918 3.02283 87.635 2.91658 88.0847C2.81853 88.5019 2.72049 89.2129 2.15638 89.295C2.26674 89.2786 1.01588 89.1272 1.06467 89.1272C0.573983 89.1313 0.32862 89.6343 0.533379 90.047C0.803349 90.5906 0.799235 90.9422 0.500535 91.4411C0.410696 91.5884 0.222367 91.67 0.136633 91.8296C-0.00336838 92.0791 -0.0238829 92.2875 0.0294724 92.5533Z" fill="#55AAFF"/>
<path d="M418.067 79.2198C417.802 79.9476 417.156 79.9271 416.583 80.1519C416.743 80.7981 417.18 81.6276 416.649 82.1142C416.346 82.3965 415.835 82.3718 415.344 82.282C415.23 82.3718 415.111 82.4621 414.997 82.552C414.666 82.8055 414.281 82.7809 414.032 82.4334C414.032 82.4786 413.104 82.65 412.998 82.6336C412.74 82.5885 412.577 82.4904 412.364 82.339C412.016 82.0937 412.123 81.7749 411.648 81.4803C411.374 81.3088 410.986 81.3125 410.696 81.1328C409.437 80.3562 410.074 79.4282 410.769 78.6265C410.569 78.4099 410.27 78.0829 410.266 77.7108C410.258 77.0974 410.568 76.9095 411.034 76.6231C411.476 76.3449 411.848 76.1612 412.171 75.7402C412.367 75.4826 412.416 75.1843 412.711 74.996C413.435 74.5422 413.925 75.5031 414.64 75.0776C414.996 74.861 415.413 75.0735 415.54 75.4415C415.916 76.5374 416.705 75.8501 417.339 75.6992C417.833 75.5765 418.34 76.1324 418.034 76.5985C417.364 77.6214 418.419 78.2635 418.067 79.2198Z" fill="#5676EF"/>
<path d="M14.1514 75.4717C14.4172 76.1995 15.063 76.179 15.6353 76.4038C15.4757 77.05 15.0383 77.8796 15.5701 78.3662C15.8724 78.6484 16.3836 78.6238 16.8743 78.534C16.9888 78.6238 17.1073 78.7141 17.2218 78.8039C17.5529 79.0575 17.9373 79.0329 18.1868 78.6854C18.1868 78.7305 19.1148 78.902 19.221 78.8856C19.4787 78.8404 19.642 78.7424 19.8549 78.591C20.2024 78.3456 20.0962 78.0269 20.5704 77.7323C20.8445 77.5608 21.2326 77.5644 21.5231 77.3848C22.7822 76.6081 22.1447 75.6801 21.4497 74.8784C21.6499 74.6618 21.9486 74.3348 21.9527 73.9627C21.9609 73.3493 21.6503 73.1615 21.1843 72.8751C20.7428 72.5969 20.3707 72.4131 20.0478 71.9922C19.8517 71.7345 19.8025 71.4363 19.5079 71.248C18.7842 70.7942 18.294 71.7551 17.5784 71.3296C17.2227 71.113 16.8059 71.3255 16.6791 71.6935C16.3029 72.7893 15.514 72.1021 14.8801 71.9511C14.3853 71.8285 13.8786 72.3844 14.1851 72.8505C14.8546 73.8733 13.7998 74.5154 14.1514 75.4717Z" fill="#5676EF"/>
</svg>
