<svg width="297" height="260" viewBox="0 0 297 260" fill="none" xmlns="http://www.w3.org/2000/svg">
<path d="M208.508 163.073C208.508 163.073 231.808 154.233 245.066 179.541C249.081 179.943 263.944 181.549 264.345 196.412C269.169 196.412 292.064 200.032 296.084 213.689C286.843 212.887 251.088 212.887 251.088 212.887C251.088 212.887 217.754 195.609 208.508 163.073Z" fill="white"/>
<path d="M296.089 214.514H296.017C286.919 213.723 251.461 213.717 251.093 213.717C250.961 213.716 250.831 213.685 250.713 213.624C250.378 213.448 216.95 195.807 207.72 163.304C207.662 163.104 207.682 162.892 207.775 162.708C207.867 162.523 208.026 162.38 208.22 162.307C212.632 160.849 217.316 160.404 221.923 161.004C228.875 161.889 238.595 165.701 245.576 178.771C260.828 180.449 264.69 188.673 265.125 195.62C270.95 195.956 292.794 199.624 296.859 213.458C296.896 213.581 296.905 213.712 296.883 213.838C296.862 213.965 296.81 214.085 296.733 214.188C296.657 214.292 296.558 214.376 296.443 214.433C296.328 214.491 296.2 214.521 296.072 214.52L296.089 214.514ZM251.312 212.061C254.129 212.061 284.592 212.094 294.911 212.77C290.263 200.989 269.927 197.237 264.36 197.237C264.146 197.237 263.938 197.153 263.785 197.003C263.631 196.853 263.54 196.649 263.535 196.434C263.282 186.979 257.044 181.582 244.998 180.361C244.862 180.347 244.733 180.3 244.619 180.224C244.506 180.149 244.413 180.046 244.348 179.927C238.996 169.706 231.411 163.892 221.796 162.643C217.677 162.125 213.495 162.453 209.507 163.606C218.512 193.761 248.722 210.664 251.312 212.061Z" fill="#021B79"/>
<path d="M0.8125 238.762L72.3213 238.794L47.6178 207.441C47.6178 207.441 29.3556 205.823 28.536 221.896C26.1267 222.293 16.8965 221.302 13.684 232.144C10.8732 232.969 4.43739 231.941 0.8125 238.762Z" fill="white"/>
<path d="M72.3303 239.62L0.82138 239.587C0.679576 239.586 0.540253 239.548 0.416936 239.479C0.293619 239.409 0.190591 239.307 0.117548 239.187C0.0446169 239.065 0.00415074 238.926 0.000318214 238.784C-0.00362703 238.642 0.0291734 238.502 0.0953408 238.376C3.14276 232.634 8.0768 232.078 11.3443 231.704C11.9878 231.633 12.5654 231.567 13.044 231.473C16.1133 221.94 23.8857 221.429 27.2357 221.209L27.7858 221.17C28.1433 216.886 29.7715 213.469 32.6208 210.978C38.4736 205.89 47.3407 206.578 47.7147 206.637C47.9321 206.667 48.1296 206.778 48.2648 206.951L72.9683 238.305C73.0646 238.427 73.1244 238.573 73.1412 238.728C73.158 238.881 73.131 239.038 73.0632 239.177C72.9955 239.316 72.8896 239.435 72.7581 239.517C72.6265 239.598 72.4744 239.642 72.3193 239.642L72.3303 239.62ZM2.27357 237.969H70.6306L47.2087 208.266C45.5584 208.2 38.4076 208.14 33.6825 212.237C31.0311 214.548 29.5789 217.82 29.37 221.963C29.3603 222.151 29.2869 222.33 29.162 222.471C29.0371 222.612 28.8679 222.706 28.6824 222.738C28.3248 222.794 27.8628 222.826 27.3291 222.859C24.0288 223.079 17.1089 223.531 14.4741 232.409C14.4343 232.538 14.3634 232.656 14.2675 232.751C14.1715 232.847 14.0536 232.918 13.924 232.959C13.1396 233.149 12.3414 233.278 11.5368 233.343C8.69293 233.668 4.91948 234.092 2.27357 237.942V237.969Z" fill="#021B79"/>
<path d="M147.348 127.621C147.348 127.621 120.84 121.295 89.5032 150.217C67.209 170.404 31.658 211.076 41.5978 225.841C51.5375 240.605 251.311 242.408 266.058 234.878C268.77 233.068 268.468 219.212 248.885 196.313C229.303 173.414 204.005 133.347 169.043 129.128C149.763 131.235 147.348 127.621 147.348 127.621ZM178.581 100.403C178.581 100.403 177.58 107.031 178.785 108.654C176.375 108.253 174.164 106.047 174.164 106.047L172.558 104.237L174.967 98.6154L178.581 100.403Z" fill="#021B79"/>
<path d="M177.18 96.5908C177.18 96.5908 169.353 118.082 169.749 124.909C165.53 126.317 146.047 124.507 146.047 124.507C146.047 124.507 148.247 117.076 146.849 109.848C145.453 102.62 177.18 96.5908 177.18 96.5908Z" fill="white"/>
<path d="M163.299 126.267C156.182 126.267 146.545 125.382 145.978 125.327L144.977 125.239L145.263 124.271C145.263 124.199 147.397 116.938 146.05 110.001C145.965 109.515 145.981 109.016 146.096 108.536C146.21 108.056 146.421 107.604 146.715 107.207C151.077 100.772 175.978 95.981 177.035 95.777L178.459 95.5076L177.964 96.8715C177.888 97.0857 170.192 118.281 170.582 124.859L170.615 125.491L170.015 125.69C168.739 126.114 166.226 126.267 163.299 126.267ZM147.1 123.776C152.771 124.265 164.977 125.085 168.916 124.276C168.976 117.818 174.251 102.411 175.923 97.6797C168.057 99.2916 151.171 103.56 148.084 108.131C147.912 108.349 147.787 108.599 147.715 108.866C147.642 109.134 147.627 109.414 147.666 109.688C148.8 115.574 147.645 121.488 147.089 123.776H147.1Z" fill="#021B79"/>
<path d="M150.86 64.4506C150.86 64.4506 131.679 103.219 141.927 111.652C156.085 122.802 171.63 105.425 174.964 100.002C176.724 101.861 179.584 102.311 183.501 96.5909C185.867 93.0864 187.318 89.0453 187.72 84.8363C187.72 84.8363 176.774 47.58 150.86 64.4506Z" fill="white"/>
<path d="M151.936 116.14C148.092 116.105 144.376 114.745 141.419 112.29C130.774 103.528 149.328 65.6828 150.126 64.0766C150.191 63.9432 150.292 63.8308 150.417 63.752C157.293 59.269 163.795 58.1138 169.735 60.3086C182.646 65.0833 188.279 83.8015 188.515 84.594C188.543 84.683 188.554 84.7766 188.549 84.869C188.149 89.2313 186.655 93.4223 184.203 97.0531C182.035 100.222 179.917 101.905 177.899 102.065C176.915 102.138 175.936 101.85 175.148 101.255C172.035 105.822 163.982 114.249 155.022 115.859C154.003 116.044 152.97 116.139 151.936 116.14ZM151.506 65.0227C150.043 68.0316 133.194 103.39 142.452 111.014C146.165 113.94 150.302 115.03 154.724 114.232C163.701 112.62 171.777 103.66 174.263 99.5724C174.33 99.4642 174.42 99.3729 174.528 99.3052C174.636 99.2376 174.758 99.1948 174.884 99.1824C175.01 99.1688 175.137 99.1846 175.255 99.2275C175.374 99.2714 175.481 99.3424 175.566 99.4349C175.831 99.7584 176.168 100.017 176.55 100.188C176.933 100.358 177.349 100.438 177.767 100.42C178.79 100.337 180.517 99.5284 182.832 96.1231C185.074 92.7787 186.469 88.9383 186.898 84.9355C186.348 83.2131 180.748 66.1449 169.175 61.8708C163.789 59.8796 157.849 60.9467 151.506 65.0227Z" fill="#021B79"/>
<path d="M170.251 66.7609C170.251 66.7609 151.549 78.2128 141.934 60.7376C135.603 46.2764 144.343 36.9362 144.343 36.9362C144.343 36.9362 145.548 48.0806 154.888 48.0806C163.926 46.9804 178.838 39.197 183.607 52.8001C191.143 52.4261 208.035 72.443 186.671 88.2303C187.842 83.5704 183.283 81.75 180.95 83.6313C180.195 84.0089 179.607 84.6537 179.3 85.4416C179.3 85.4416 171.907 83.5603 170.251 66.7609ZM150.52 95.6339C149.27 95.6418 148.048 95.2675 147.017 94.5619C145.745 93.73 144.852 92.4314 144.53 90.9469C144.509 90.7936 144.53 90.638 144.592 90.496C144.654 90.354 144.755 90.2322 144.882 90.1443C149.833 86.7559 154.525 76.106 154.569 76.0023C154.656 75.8005 154.818 75.6416 155.022 75.5616C155.124 75.521 155.231 75.5007 155.34 75.503C155.448 75.5041 155.556 75.5278 155.655 75.5706C155.755 75.6134 155.845 75.6754 155.921 75.7532C155.996 75.831 156.056 75.9234 156.097 76.0237C156.136 76.1252 156.156 76.2323 156.154 76.3416C156.153 76.4498 156.13 76.5569 156.088 76.6561C155.895 77.1025 151.45 87.2237 146.285 91.1678C146.626 91.9896 147.199 92.6952 147.936 93.1968C148.495 93.5699 149.128 93.8202 149.792 93.9284C150.456 94.0377 151.136 94.0039 151.785 93.8292C151.892 93.801 152.004 93.7942 152.114 93.8089C152.223 93.8235 152.329 93.8607 152.424 93.9182C152.52 93.9746 152.602 94.0501 152.668 94.1403C152.733 94.2294 152.779 94.3308 152.804 94.439C152.83 94.5472 152.833 94.6588 152.814 94.7682C152.795 94.8775 152.753 94.9812 152.694 95.0748C152.634 95.1672 152.555 95.2472 152.464 95.3092C152.371 95.3712 152.269 95.4152 152.159 95.4355C151.623 95.5628 151.073 95.6293 150.52 95.6339ZM155.196 104.985C153.846 104.999 152.52 104.617 151.384 103.885C151.216 103.753 151.105 103.56 151.076 103.348C151.047 103.137 151.102 102.921 151.228 102.749C151.354 102.576 151.543 102.459 151.753 102.423C151.964 102.387 152.181 102.433 152.358 102.554C152.539 102.686 156.51 105.415 161.709 99.8474C161.859 99.6907 162.065 99.5994 162.282 99.5938C162.499 99.5881 162.71 99.6682 162.868 99.8169C163.027 99.9646 163.12 100.17 163.128 100.386C163.137 100.604 163.059 100.815 162.913 100.975C160.003 104.116 157.253 104.985 155.196 104.985ZM150.064 79.4899C150.687 79.4899 151.192 78.9849 151.192 78.3616C151.192 77.7394 150.687 77.2344 150.064 77.2344C149.442 77.2344 148.937 77.7394 148.937 78.3616C148.937 78.9849 149.442 79.4899 150.064 79.4899ZM162.517 83.983C163.141 83.983 163.646 83.4791 163.646 82.8558C163.646 82.2336 163.141 81.7286 162.517 81.7286C161.895 81.7286 161.39 82.2336 161.39 82.8558C161.39 83.4791 161.895 83.983 162.517 83.983ZM145.449 119.083C145.449 119.083 160.301 129.628 171.758 119.188C171.962 129.43 171.555 131.338 171.555 131.338C171.555 131.338 152.677 140.376 143.034 128.727C144.645 121.488 145.449 119.083 145.449 119.083Z" fill="#021B79"/>
<path d="M222.567 248.69C222.567 248.69 165.91 273.878 101.656 248.69C101.656 248.69 106.535 215.687 117.355 185.201C126.668 159.041 140.353 134.772 159.1 134.953C174.501 135.101 187.368 151.542 197.39 171.884C213.754 205.097 222.567 248.69 222.567 248.69Z" fill="#2C58FF"/>
<path d="M197.404 171.884C196.352 173.165 195.084 174.252 193.658 175.097C180.792 182.968 171.551 163.683 171.551 163.683C171.551 163.683 170.743 176.279 164.719 177.853C157.287 180.015 154.879 166.532 153.674 163.782C148.052 190.543 135.395 203.04 121.329 197.919C117.402 196.489 116.55 191.561 117.352 185.201C126.665 159.041 140.351 134.772 159.098 134.953C174.51 135.101 187.37 151.542 197.404 171.884Z" fill="white"/>
<path d="M140.746 259.004C140.746 259.004 80.3685 262.302 56.6406 244.098C56.6406 244.098 60.5571 219.988 68.9622 192.606C75.442 171.445 84.0835 152.549 94.3312 152.027C105.272 151.477 115.696 168.155 123.799 188.095C133.089 210.973 140.24 248.679 140.746 259.004Z" fill="white"/>
<path d="M140.749 259.807C140.543 259.807 140.343 259.728 140.192 259.587C140.04 259.447 139.947 259.254 139.93 259.048L139.028 248.509C138.22 237.826 132.465 213.425 124.577 192.616C114.677 166.483 103.967 152.357 94.396 152.847C71.8426 154.008 58.047 242.645 57.9095 243.537C57.8931 243.645 57.8557 243.749 57.7992 243.842C57.7428 243.937 57.6684 244.018 57.5802 244.083C57.4922 244.149 57.3921 244.196 57.2858 244.222C57.1794 244.249 57.0689 244.253 56.9606 244.238C56.8523 244.221 56.7481 244.184 56.6542 244.127C56.5603 244.071 56.4785 243.996 56.4133 243.909C56.3483 243.821 56.3012 243.72 56.2747 243.614C56.2482 243.507 56.243 243.397 56.2592 243.289C56.8093 239.581 70.3904 152.428 94.2912 151.202C118.566 149.976 139.095 227.848 140.651 248.371L141.553 258.911C141.562 259.019 141.55 259.127 141.517 259.231C141.483 259.333 141.43 259.429 141.36 259.513C141.29 259.595 141.205 259.664 141.109 259.713C141.012 259.763 140.907 259.793 140.799 259.802L140.749 259.807Z" fill="#021B79"/>
<path d="M266.355 246.627C243.308 264.444 173.026 259.315 173.026 259.315C173.026 259.315 171.902 228.937 182.591 202.001C185.418 194.85 189.081 188.249 193.828 182.903C198.707 176.741 204.621 172.969 211.722 173.519C211.986 173.519 212.272 173.551 212.503 173.573C226.645 174.751 238.109 185.674 247.102 200.263C248.571 202.622 249.963 205.081 251.294 207.611C257.812 219.988 262.801 234.019 266.355 246.627Z" fill="white"/>
<path d="M172.757 259.505C172.549 259.504 172.348 259.424 172.196 259.28C172.044 259.138 171.951 258.943 171.938 258.735L171.535 252.684C171.53 252.655 171.53 252.625 171.535 252.596C172.282 240.059 174.216 227.621 177.311 215.45C183.912 190.405 194.914 175.74 209.029 173.04C210.81 172.712 212.635 172.688 214.425 172.969C227.814 174.97 239.04 184.057 248.754 200.746C256.846 214.657 262.506 231.584 267.143 246.358C267.201 246.564 267.175 246.784 267.074 246.972C266.971 247.161 266.8 247.301 266.596 247.366C266.392 247.43 266.171 247.413 265.979 247.317C265.787 247.221 265.641 247.055 265.57 246.853C255.24 214.069 241.918 178.743 214.182 174.602C212.576 174.346 210.937 174.365 209.337 174.657C176.937 180.894 173.285 250.533 173.203 252.646L173.598 258.624C173.614 258.843 173.542 259.058 173.399 259.223C173.254 259.387 173.052 259.489 172.834 259.505H172.757Z" fill="#021B79"/>
<path d="M189.737 234.717C191.079 226.456 190.055 219.416 187.452 218.994C184.85 218.572 181.653 224.926 180.311 233.188C178.97 241.449 179.994 248.488 182.596 248.911C185.199 249.334 188.396 242.979 189.737 234.717ZM134.494 239.152C137.13 239.152 139.268 231.901 139.268 222.958C139.268 214.015 137.13 206.765 134.494 206.765C131.857 206.765 129.719 214.015 129.719 222.958C129.719 231.901 131.857 239.152 134.494 239.152Z" fill="#021B79"/>
<path d="M194.025 224.691L184.816 224.047C181.934 224.173 178.425 223.927 176.769 221.566C173.062 216.296 166.247 207.403 162.622 207.705C159.277 207.98 162.253 215.406 164.943 219.96C166.043 221.797 165.185 223.382 163.051 223.47C156.741 223.734 143.749 221.27 142.566 226.314C141.207 226.66 140.058 226.16 138.628 227.672C137.731 228.629 138.127 229.51 138.958 230.516C139.986 231.771 141.213 231.903 141.89 232.304C141.252 233.234 141.34 235.824 143.655 237.106C145.97 238.388 160.158 240.258 160.158 240.258C160.158 240.258 149.546 242.826 149.217 244.988C148.887 247.15 160.823 245.147 169.019 243.888C170.487 243.625 185.076 243.669 195.581 240.247C206.088 236.825 194.025 224.691 194.025 224.691Z" fill="white"/>
<path d="M152.176 246.765C150.377 246.765 149.277 246.523 148.766 246.012C148.614 245.864 148.501 245.684 148.435 245.483C148.369 245.283 148.353 245.07 148.386 244.862C148.645 243.151 152.577 241.562 156.059 240.511C151.599 239.851 144.893 238.739 143.26 237.826C142.661 237.5 142.137 237.053 141.723 236.512C141.31 235.971 141.013 235.349 140.855 234.686C140.71 234.044 140.71 233.379 140.855 232.738C139.88 232.413 139.014 231.827 138.347 231.044C137.836 230.423 136.489 228.778 138.055 227.111C138.474 226.651 138.983 226.282 139.551 226.03C140.119 225.778 140.735 225.648 141.356 225.648C141.554 225.648 141.747 225.621 141.906 225.593C143.419 221.743 150.735 222.127 157.22 222.485C159.382 222.601 161.423 222.71 162.996 222.645C163.275 222.667 163.555 222.619 163.81 222.503C164.065 222.388 164.287 222.21 164.454 221.984C164.551 221.719 164.58 221.433 164.538 221.154C164.495 220.874 164.384 220.609 164.211 220.384C163.997 220.015 158.942 211.385 160.641 208.096C160.821 207.744 161.089 207.447 161.42 207.232C161.752 207.019 162.135 206.898 162.528 206.88C165.598 206.637 170.615 211.407 177.425 221.094C178.525 222.694 180.945 223.393 184.757 223.222H184.851L194.108 223.866C194.315 223.878 194.51 223.965 194.658 224.108C194.955 224.404 201.848 231.44 200.571 236.699C200.081 238.729 198.492 240.192 195.857 241.05C187.386 243.8 176.225 244.35 171.462 244.576C170.361 244.625 169.431 244.669 169.185 244.713L167.271 245.01C160.003 246.121 155.13 246.765 152.176 246.765ZM150.102 244.944C151.951 245.682 161.654 244.19 166.962 243.377L168.866 243.086C169.179 243.03 169.888 242.997 171.33 242.926C176.027 242.7 187.034 242.172 195.296 239.482C197.375 238.8 198.558 237.766 198.916 236.308C199.757 232.827 195.582 227.508 193.646 225.494L184.812 224.9C181.995 225.021 178.051 224.851 176.099 222.072C170.015 213.414 165.004 208.365 162.693 208.552C162.579 208.547 162.466 208.576 162.369 208.635C162.271 208.693 162.192 208.779 162.143 208.882C161.423 210.268 163.007 215.064 165.664 219.57C166.018 220.021 166.235 220.565 166.283 221.137C166.333 221.708 166.214 222.282 165.942 222.787C165.67 223.292 165.255 223.707 164.75 223.979C164.246 224.252 163.673 224.372 163.101 224.322C161.451 224.394 159.365 224.278 157.165 224.158C151.345 223.844 144.106 223.447 143.38 226.528C143.348 226.676 143.274 226.811 143.169 226.919C143.063 227.027 142.928 227.103 142.781 227.139C142.357 227.239 141.924 227.3 141.488 227.321C141.067 227.3 140.647 227.375 140.259 227.539C139.87 227.703 139.524 227.951 139.244 228.266C138.886 228.646 138.693 228.937 139.608 230.021C140.109 230.597 140.763 231.022 141.493 231.248C141.78 231.35 142.058 231.475 142.324 231.622C142.423 231.682 142.508 231.762 142.574 231.856C142.641 231.951 142.686 232.058 142.71 232.172C142.733 232.282 142.735 232.396 142.712 232.507C142.691 232.617 142.647 232.722 142.583 232.816C142.359 233.298 142.319 233.845 142.467 234.355C142.571 234.795 142.767 235.209 143.043 235.566C143.32 235.923 143.669 236.218 144.068 236.43C145.647 237.31 154.613 238.739 160.251 239.482C160.442 239.507 160.619 239.597 160.751 239.737C160.883 239.878 160.96 240.06 160.972 240.252C160.981 240.445 160.923 240.635 160.807 240.79C160.692 240.944 160.526 241.053 160.339 241.1C155.433 242.244 150.889 243.993 150.102 244.944Z" fill="#021B79"/>
<path d="M161.364 228.387H161.326L143.014 227.101C142.869 227.089 142.732 227.022 142.637 226.911C142.541 226.802 142.492 226.658 142.503 226.511C142.513 226.366 142.58 226.229 142.691 226.133C142.801 226.038 142.946 225.99 143.091 226L161.404 227.277C161.549 227.281 161.687 227.344 161.787 227.451C161.886 227.557 161.939 227.699 161.933 227.846C161.929 227.991 161.866 228.13 161.759 228.229C161.653 228.328 161.511 228.381 161.364 228.377V228.387ZM160.764 235.06H160.682L141.809 233.15C141.591 233.129 141.39 233.021 141.25 232.851C141.112 232.68 141.045 232.462 141.066 232.243C141.089 232.024 141.197 231.824 141.367 231.684C141.538 231.545 141.756 231.479 141.975 231.5L160.848 233.431C160.955 233.441 161.06 233.473 161.156 233.525C161.251 233.575 161.336 233.645 161.404 233.729C161.472 233.812 161.524 233.909 161.555 234.013C161.586 234.116 161.596 234.226 161.584 234.334C161.56 234.533 161.463 234.718 161.312 234.853C161.161 234.986 160.966 235.06 160.764 235.06Z" fill="#021B79"/>
<path d="M120.697 214.174L129.773 212.485C132.65 212.281 136.11 211.638 137.474 209.107C140.561 203.447 146.32 193.832 149.95 193.706C153.305 193.601 151.198 201.313 149.042 206.154C148.173 208.1 149.191 209.575 151.32 209.422C157.618 208.965 170.247 205.021 171.996 209.911C173.383 210.098 174.472 209.471 176.061 210.812C177.063 211.66 176.771 212.579 176.061 213.679C175.182 215.037 173.977 215.329 173.35 215.786C174.092 216.632 174.273 219.224 172.145 220.736C170.016 222.248 156.133 225.741 156.133 225.741C156.133 225.741 166.969 227.089 167.541 229.196C168.113 231.303 156.028 230.676 147.739 230.379C146.259 230.285 131.786 231.991 120.939 229.79C110.092 227.59 120.697 214.174 120.697 214.174Z" fill="white"/>
<path d="M134.535 231.775C129.924 231.837 125.32 231.454 120.783 230.631C118.066 230.081 116.322 228.805 115.606 226.841C113.742 221.77 119.787 213.992 120.046 213.64C120.169 213.484 120.345 213.378 120.541 213.343L129.622 211.698H129.716C133.522 211.435 135.827 210.466 136.763 208.75C142.423 198.353 146.856 193.028 149.937 192.93C150.33 192.9 150.726 192.977 151.08 193.151C151.434 193.327 151.735 193.594 151.95 193.926C154.013 197.001 149.975 206.148 149.805 206.539C149.619 206.762 149.512 207.041 149.499 207.332C149.487 207.622 149.569 207.909 149.736 208.148C149.902 208.387 150.141 208.565 150.418 208.655C150.694 208.744 150.993 208.742 151.268 208.646C152.84 208.53 154.854 208.188 156.989 207.825C163.391 206.725 170.613 205.504 172.555 209.173H173.133C173.755 209.095 174.386 209.15 174.985 209.335C175.583 209.52 176.135 209.831 176.604 210.247C178.353 211.72 177.198 213.513 176.763 214.185C176.185 215.019 175.39 215.682 174.464 216.099C174.677 216.72 174.744 217.383 174.662 218.035C174.583 218.712 174.362 219.366 174.014 219.951C173.665 220.537 173.196 221.043 172.638 221.434C171.114 222.534 164.579 224.394 160.228 225.56C163.804 226.226 167.891 227.336 168.342 229.009C168.399 229.211 168.407 229.425 168.364 229.631C168.32 229.836 168.228 230.029 168.094 230.191C166.9 231.693 161.439 231.748 149.645 231.292L147.72 231.215C147.45 231.215 146.51 231.265 145.42 231.336C143.034 231.5 139.029 231.775 134.535 231.775ZM121.157 214.927C119.463 217.171 115.915 222.909 117.153 226.276C117.669 227.683 118.968 228.58 121.113 229.026C129.628 230.758 140.618 230.027 145.316 229.714C146.757 229.62 147.467 229.575 147.807 229.597L149.711 229.668C155.085 229.872 164.898 230.247 166.642 229.301C165.784 228.448 161.059 227.227 156.043 226.605C155.934 226.611 155.825 226.597 155.723 226.561C155.62 226.526 155.526 226.471 155.444 226.398C155.363 226.326 155.297 226.239 155.249 226.141C155.202 226.043 155.174 225.937 155.168 225.829C155.161 225.721 155.176 225.613 155.212 225.51C155.247 225.408 155.302 225.313 155.374 225.232C155.447 225.151 155.533 225.084 155.631 225.037C155.73 224.989 155.835 224.961 155.944 224.954C161.444 223.575 170.206 221.138 171.675 220.082C172.049 219.827 172.364 219.494 172.597 219.106C172.83 218.72 172.978 218.287 173.029 217.837C173.121 217.314 173.02 216.777 172.743 216.325C172.669 216.239 172.613 216.139 172.579 216.031C172.545 215.923 172.533 215.809 172.544 215.698C172.559 215.588 172.594 215.485 172.648 215.39C172.703 215.295 172.776 215.213 172.863 215.148C173.11 214.97 173.372 214.813 173.644 214.68C174.353 214.374 174.962 213.875 175.399 213.238C176.164 212.056 175.949 211.792 175.558 211.456C175.245 211.174 174.873 210.966 174.468 210.846C174.064 210.728 173.638 210.701 173.22 210.768C172.788 210.807 172.351 210.807 171.917 210.768C171.766 210.747 171.623 210.684 171.506 210.587C171.388 210.49 171.297 210.363 171.247 210.218C170.179 207.237 163.034 208.453 157.285 209.432C155.113 209.8 153.061 210.153 151.411 210.274C150.852 210.383 150.274 210.329 149.746 210.116C149.218 209.904 148.762 209.543 148.435 209.078C148.108 208.612 147.924 208.061 147.903 207.493C147.882 206.924 148.027 206.361 148.319 205.873C150.449 201.092 151.471 196.147 150.602 194.871C150.538 194.777 150.449 194.701 150.344 194.654C150.238 194.608 150.122 194.591 150.008 194.608C147.693 194.679 143.292 200.273 138.231 209.563C136.609 212.551 132.731 213.167 129.903 213.37L121.157 214.927Z" fill="#021B79"/>
<path d="M153.504 214.399C153.286 214.418 153.068 214.351 152.899 214.21C152.731 214.069 152.625 213.867 152.605 213.649C152.586 213.43 152.653 213.212 152.794 213.043C152.935 212.874 153.137 212.768 153.355 212.749L171.403 209.393C171.51 209.374 171.62 209.375 171.726 209.398C171.832 209.419 171.932 209.463 172.021 209.524C172.111 209.585 172.188 209.664 172.246 209.755C172.305 209.845 172.347 209.947 172.366 210.054C172.386 210.16 172.385 210.269 172.363 210.375C172.34 210.481 172.297 210.583 172.235 210.672C172.174 210.761 172.095 210.837 172.005 210.897C171.914 210.956 171.812 210.996 171.707 211.017L153.659 214.371C153.608 214.387 153.556 214.396 153.504 214.399ZM154.83 220.691C154.611 220.715 154.391 220.651 154.22 220.512C154.05 220.375 153.941 220.174 153.917 219.955C153.893 219.736 153.957 219.517 154.096 219.345C154.235 219.174 154.435 219.065 154.654 219.042L173.202 214.999C173.309 214.973 173.42 214.969 173.529 214.985C173.637 215.003 173.741 215.042 173.835 215.1C173.928 215.159 174.009 215.235 174.073 215.325C174.136 215.415 174.181 215.516 174.204 215.625C174.228 215.732 174.229 215.843 174.209 215.951C174.189 216.06 174.148 216.162 174.087 216.255C174.026 216.346 173.949 216.425 173.856 216.486C173.765 216.548 173.662 216.589 173.554 216.611L155.028 220.676C154.963 220.687 154.896 220.693 154.83 220.691Z" fill="#021B79"/>
<path d="M122.409 184.745C123.267 186.682 123.48 188.842 123.019 190.909C122.558 192.977 121.445 194.842 119.846 196.231C119.692 196.363 119.527 196.489 119.361 196.615C111.111 201.016 105.698 187.98 105.698 187.98C105.698 187.98 103.223 199.575 98.3049 205.449C97.5869 206.318 96.6649 206.998 95.6233 207.429C94.5806 207.859 93.4478 208.028 92.3251 207.92C91.2027 207.811 90.1238 207.429 89.1831 206.806C88.2424 206.184 87.4687 205.34 86.9298 204.349C83.5799 198.244 83.4314 187.749 84.009 182.979C77.5017 193.668 73.8602 194.91 71.5939 193.524C70.9891 193.125 70.5321 192.539 70.2936 191.855C70.055 191.171 70.048 190.428 70.2738 189.739C76.6546 169.387 84.3995 152.555 94.3552 152.049C104.653 151.499 114.521 166.334 122.409 184.745Z" fill="white"/>
<path d="M92.9727 208.772C92.7247 208.772 92.4767 208.772 92.2242 208.734C90.9655 208.608 89.7564 208.177 88.702 207.478C87.6475 206.779 86.7796 205.834 86.1735 204.723C83.4232 199.685 82.7301 191.731 82.9171 186.164C79.5122 191.28 76.6409 194.096 74.193 194.646C73.6796 194.781 73.1438 194.811 72.6189 194.731C72.0938 194.652 71.5906 194.466 71.1402 194.184C70.3765 193.691 69.7994 192.959 69.5004 192.1C69.2014 191.242 69.1978 190.309 69.4899 189.448C77.4935 163.843 85.3814 151.659 94.287 151.191C106.146 150.586 116.537 168.931 123.171 184.426C124.085 186.527 124.305 188.863 123.799 191.098C123.291 193.332 122.085 195.346 120.355 196.846C120.186 196.99 120.002 197.127 119.805 197.259C119.774 197.285 119.741 197.307 119.706 197.325C118.775 197.872 117.735 198.211 116.66 198.319C115.586 198.426 114.5 198.298 113.479 197.947C109.881 196.665 107.279 192.831 105.938 190.405C104.953 194.113 102.637 201.56 98.9131 206.005C98.1861 206.873 97.2764 207.571 96.2495 208.049C95.2238 208.527 94.1044 208.773 92.9727 208.772ZM83.9842 182.132C84.076 182.131 84.1673 182.145 84.2538 182.176C84.4318 182.239 84.5832 182.359 84.6832 182.519C84.7832 182.68 84.8258 182.869 84.8038 183.056C84.1548 188.402 84.6003 198.414 87.6257 203.931C88.094 204.811 88.7722 205.561 89.6002 206.115C90.4281 206.67 91.3802 207.012 92.3719 207.11C93.3639 207.208 94.3637 207.059 95.2846 206.677C96.2044 206.296 97.0172 205.693 97.6484 204.922C102.373 199.272 104.842 187.919 104.87 187.808C104.908 187.637 104.999 187.483 105.13 187.365C105.262 187.249 105.427 187.178 105.602 187.162C105.777 187.147 105.951 187.186 106.102 187.277C106.252 187.368 106.371 187.504 106.438 187.666C106.465 187.732 109.424 194.723 114.04 196.363C114.833 196.646 115.677 196.753 116.515 196.676C117.353 196.6 118.164 196.34 118.892 195.916C119.029 195.813 119.167 195.708 119.293 195.597C120.755 194.326 121.772 192.619 122.196 190.729C122.621 188.838 122.43 186.862 121.652 185.086C115.223 170.075 105.283 152.291 94.3693 152.841C86.3605 153.254 78.7311 165.394 71.0357 189.96C70.8622 190.472 70.8624 191.028 71.0365 191.539C71.2105 192.051 71.5486 192.492 71.9983 192.793C72.2627 192.961 72.5596 193.071 72.8694 193.116C73.1794 193.162 73.4955 193.141 73.797 193.057C76.1842 192.478 79.3747 188.931 83.2802 182.523C83.3535 182.402 83.4571 182.303 83.5806 182.234C83.704 182.166 83.8431 182.131 83.9842 182.132Z" fill="#021B79"/>
<path d="M249.716 204.977C247.208 217.396 236.916 205.081 233.016 199.222C233.335 201.17 236.317 215.461 231.366 222.397C229.435 225.103 226.283 226.644 222.758 224.784C213.626 220.416 209.721 210.059 207.905 200.229C203.395 208.134 196.695 211.528 190.117 210.026C186.96 209.311 183.571 205.565 182.586 202.001C185.413 194.85 189.076 188.249 193.824 182.903C198.703 176.741 204.616 172.969 211.718 173.519C211.981 173.519 212.268 173.551 212.499 173.573C227.422 174.739 238.11 184.8 247.097 200.263C248.012 201.797 248.858 203.359 249.716 204.977Z" fill="white"/>
<path d="M225.848 226.418C224.635 226.405 223.444 226.095 222.377 225.516C215.067 222.018 210.061 214.256 207.525 202.414C202.982 209.185 196.525 212.314 189.956 210.807C186.568 210.037 182.916 206.175 181.81 202.193C181.76 202.02 181.77 201.836 181.837 201.671C184.94 193.859 188.774 187.369 193.224 182.324C198.725 175.399 204.979 172.143 211.805 172.671C212.053 172.671 212.355 172.671 212.597 172.726C226.52 173.826 237.724 182.424 247.834 199.816C248.682 201.264 249.54 202.821 250.458 204.564C250.551 204.731 250.58 204.926 250.541 205.114C249.826 208.64 248.412 210.615 246.327 211.049C242.318 211.83 237.295 206.286 234.418 202.54C235.772 211.951 234.968 218.777 232.059 222.853C230.409 225.197 228.176 226.418 225.848 226.418ZM207.911 199.404H208.048C208.215 199.433 208.368 199.512 208.489 199.632C208.608 199.75 208.689 199.903 208.719 200.07C211.051 212.672 215.765 220.51 223.12 224.031C227.207 226.186 229.958 222.931 230.699 221.908C232.729 219.081 234.649 212.969 232.3 199.904C232.256 199.673 232.223 199.486 232.202 199.354C232.172 199.168 232.205 198.978 232.299 198.814C232.392 198.65 232.539 198.524 232.715 198.455C232.891 198.386 233.085 198.379 233.264 198.436C233.444 198.493 233.599 198.609 233.703 198.766C237.422 204.349 242.845 210.07 245.991 209.454C247.312 209.195 248.269 207.732 248.846 205.103C247.989 203.453 247.196 202.034 246.394 200.702C236.574 183.821 225.788 175.471 212.443 174.426C212.185 174.398 211.937 174.382 211.684 174.371C205.414 173.886 199.627 176.94 194.472 183.441C190.17 188.299 186.474 194.552 183.471 202.072C184.488 205.329 187.624 208.64 190.314 209.223C196.706 210.681 203.015 207.166 207.2 199.822C207.273 199.697 207.376 199.592 207.5 199.519C207.624 199.446 207.766 199.406 207.911 199.404ZM43.0057 216.099C43.0057 214.966 47.2413 195.834 96.428 204.366C105.133 205.898 113.949 206.713 122.788 206.803C129.757 206.858 134.845 206.858 134.845 206.858C134.845 206.858 127.364 232.969 135.395 238.998C130.956 240.099 57.06 243.399 45.4096 232.166C40.723 229.691 39.1938 222.018 40.591 216.902L43.0057 216.099Z" fill="#021B79"/>
<path d="M186.823 218.909C186.823 218.909 191.493 236.231 182.609 248.933C194.518 250.852 238.409 256.149 262.754 239.774C264.231 238.819 265.429 237.494 266.229 235.929C267.03 234.366 267.404 232.617 267.315 230.862C267.061 227.348 261.341 217.303 253.904 215.295C239.041 211.275 186.823 218.909 186.823 218.909Z" fill="#021B79"/>
<path d="M60.7266 145.696L79.7095 140.575L72.9326 129.43L60.7266 145.696Z" fill="#0575E6"/>
<path d="M91.2391 160.283C91.0955 160.284 90.9545 160.246 90.83 160.175C90.7054 160.104 90.6018 160 90.5296 159.876L72.8504 130.173C72.7433 129.985 72.7143 129.762 72.7697 129.553C72.825 129.344 72.9603 129.165 73.1464 129.055C73.3325 128.944 73.5545 128.911 73.7645 128.963C73.9746 129.015 74.156 129.147 74.2695 129.331L91.9487 159.035C92.0219 159.16 92.0609 159.303 92.0617 159.449C92.0624 159.594 92.025 159.737 91.9532 159.864C91.8813 159.99 91.7776 160.095 91.6523 160.169C91.527 160.242 91.3846 160.282 91.2391 160.283Z" fill="#021B79"/>
<path d="M203.54 127.411L184.062 124.722L189.386 112.807L203.54 127.411Z" fill="#0575E6"/>
<path d="M174.211 145.9C174.094 145.9 173.981 145.875 173.875 145.828C173.775 145.784 173.685 145.719 173.61 145.639C173.535 145.56 173.477 145.467 173.437 145.364C173.399 145.262 173.38 145.153 173.383 145.044C173.387 144.935 173.411 144.828 173.456 144.727L187.676 112.912C187.768 112.717 187.933 112.565 188.135 112.49C188.338 112.415 188.561 112.421 188.758 112.509C188.956 112.597 189.11 112.758 189.19 112.959C189.269 113.16 189.267 113.384 189.183 113.582L174.965 145.409C174.899 145.556 174.794 145.68 174.66 145.767C174.526 145.853 174.371 145.9 174.211 145.9Z" fill="#021B79"/>
<path d="M254.125 172.797L234.586 170.619L239.592 158.567L254.125 172.797Z" fill="#2C58FF"/>
<path d="M227.391 187.6C227.284 187.599 227.177 187.578 227.078 187.539C226.974 187.499 226.88 187.439 226.799 187.36C226.721 187.282 226.657 187.189 226.616 187.086C226.573 186.983 226.553 186.873 226.555 186.761C226.556 186.651 226.581 186.54 226.626 186.439L237.887 158.71C237.927 158.61 237.987 158.519 238.064 158.441C238.139 158.364 238.231 158.302 238.33 158.261C238.43 158.219 238.537 158.196 238.645 158.195C238.754 158.195 238.861 158.216 238.962 158.256C239.062 158.297 239.154 158.358 239.23 158.433C239.308 158.51 239.369 158.6 239.411 158.7C239.454 158.799 239.475 158.908 239.476 159.016C239.477 159.124 239.456 159.231 239.415 159.332L228.156 187.061C228.097 187.217 227.993 187.352 227.857 187.449C227.72 187.545 227.558 187.598 227.391 187.6Z" fill="#021B79"/>
<path d="M157.459 27.2275C157.301 27.2267 157.148 27.1812 157.015 27.0966C156.883 27.0118 156.777 26.8913 156.71 26.749L146.715 5.12575C146.624 4.92657 146.616 4.69944 146.693 4.49417C146.768 4.28879 146.924 4.1223 147.122 4.03111C147.322 3.93992 147.548 3.93158 147.755 4.00789C147.96 4.08432 148.126 4.23908 148.217 4.43815L158.212 26.0558C158.258 26.1547 158.284 26.2618 158.288 26.3708C158.293 26.4798 158.276 26.5886 158.238 26.6908C158.201 26.7931 158.142 26.8869 158.068 26.9667C157.993 27.0467 157.904 27.1109 157.805 27.156C157.697 27.2067 157.578 27.2313 157.459 27.2275ZM177.784 27.7116H177.597C177.385 27.6605 177.201 27.5281 177.086 27.3428C176.97 27.1575 176.933 26.9343 176.98 26.7215L183.004 0.609684C183.059 0.403291 183.193 0.226657 183.377 0.116979C183.561 0.00718832 183.779 -0.0269645 183.987 0.0215056C184.195 0.0699758 184.377 0.197349 184.493 0.376914C184.609 0.556366 184.651 0.773918 184.61 0.983692L178.586 27.0899C178.541 27.2683 178.437 27.4263 178.292 27.5389C178.147 27.6516 177.967 27.7124 177.784 27.7116ZM194.329 36.6666C194.154 36.6675 193.984 36.6126 193.842 36.51C193.7 36.4073 193.594 36.2622 193.54 36.0956C193.487 35.929 193.487 35.7495 193.542 35.5833C193.596 35.4169 193.703 35.2724 193.845 35.1705L213.813 20.6102C213.897 20.5284 213.998 20.4658 214.109 20.4262C214.22 20.3866 214.337 20.3711 214.454 20.3808C214.571 20.3904 214.685 20.425 214.788 20.4821C214.89 20.5391 214.979 20.6176 215.049 20.7121C215.119 20.8064 215.169 20.9147 215.194 21.0296C215.218 21.1445 215.218 21.2633 215.192 21.3781C215.168 21.4929 215.119 21.6011 215.048 21.6954C214.978 21.7897 214.889 21.8679 214.787 21.9248L194.819 36.4907C194.678 36.5989 194.507 36.6604 194.329 36.6666ZM237.428 60.6111H237.35C237.17 60.5943 237 60.5185 236.867 60.3951C236.732 60.2718 236.644 60.1079 236.613 59.929L235.255 51.986L229.039 49.5383C228.872 49.4741 228.73 49.3577 228.636 49.2065C228.541 49.0553 228.498 48.8773 228.513 48.6994C228.527 48.5215 228.6 48.3532 228.719 48.2198C228.837 48.0864 228.996 47.9951 229.171 47.9595L235.937 46.5239L238.792 39.4995C238.858 39.3329 238.977 39.1925 239.13 39.0994C239.283 39.0064 239.462 38.9658 239.641 38.9838C239.82 39.0019 239.987 39.0775 240.119 39.1994C240.25 39.3212 240.338 39.4825 240.37 39.659L241.724 46.8814L247.653 50.2368C247.803 50.3218 247.922 50.451 247.994 50.6067C248.068 50.7623 248.09 50.9368 248.06 51.1059C248.029 51.2746 247.946 51.4293 247.823 51.5485C247.699 51.6679 247.542 51.7458 247.372 51.7715L240.826 52.7781L238.203 60.0721C238.144 60.23 238.038 60.3663 237.899 60.4625C237.76 60.5588 237.596 60.6107 237.428 60.6111ZM232.196 48.9991L236.294 50.6163C236.426 50.6682 236.543 50.7531 236.632 50.8629C236.722 50.9728 236.782 51.1038 236.806 51.2434L237.713 56.5571L239.441 51.7551C239.488 51.613 239.574 51.4868 239.689 51.3898C239.803 51.293 239.942 51.229 240.089 51.205L244.771 50.4844L240.58 48.1136C240.477 48.0555 240.388 47.9765 240.317 47.8817C240.247 47.787 240.197 47.6786 240.173 47.5635L239.264 42.7174L237.3 47.5525C237.25 47.677 237.169 47.7872 237.065 47.8734C236.961 47.9596 236.838 48.0195 236.706 48.0475L232.196 48.9991Z" fill="#2C58FF"/>
<path d="M73.4162 98.4507C73.246 98.4496 73.08 98.3966 72.9412 98.2985C72.8023 98.1993 72.6973 98.0607 72.6405 97.9006L69.6922 89.6877L62.5964 88.2517C62.4228 88.2156 62.2657 88.1232 62.1479 87.9913C62.0301 87.8583 61.9578 87.6914 61.9417 87.5145C61.9237 87.3386 61.964 87.1617 62.0565 87.0106C62.1488 86.8596 62.2882 86.7435 62.4533 86.6792L69.3952 83.8679L71.1169 75.8365C71.1541 75.6562 71.2515 75.4927 71.3934 75.3733C71.5352 75.2549 71.7131 75.1873 71.8979 75.1823C72.0814 75.1785 72.2611 75.2346 72.4092 75.344C72.5573 75.4522 72.6657 75.6055 72.7176 75.7824L74.9839 83.6921L82.3878 85.6005C82.5593 85.6456 82.7118 85.7436 82.8229 85.8823C82.9339 86.0198 82.9976 86.19 83.0044 86.367C83.0111 86.5451 82.9607 86.7187 82.8606 86.8652C82.7604 87.0117 82.6159 87.1222 82.4483 87.1797L75.6494 89.4894L74.2302 97.7405C74.1984 97.9198 74.1085 98.0843 73.9744 98.2072C73.8401 98.3301 73.6691 98.4067 73.4876 98.4225L73.4162 98.4507ZM65.6107 87.1797L70.4788 88.1637C70.6196 88.1953 70.7499 88.2618 70.8569 88.3588C70.9639 88.4546 71.0441 88.5774 71.0894 88.7138L73.1356 94.413L74.1093 88.7465C74.1343 88.6 74.1986 88.4625 74.2955 88.3497C74.3923 88.2359 74.518 88.1513 74.6594 88.104L79.3019 86.5248L74.1093 85.1823C73.9731 85.1484 73.848 85.0797 73.7459 84.9839C73.6437 84.8869 73.5681 84.7663 73.5262 84.6322L72.041 79.4402L70.9408 84.6761C70.9105 84.808 70.8492 84.9298 70.7621 85.0312C70.675 85.1338 70.5647 85.2138 70.4403 85.2646L65.6107 87.1797Z" fill="#0575E6"/>
<path d="M98.203 118.296C98.0339 118.295 97.8682 118.242 97.7296 118.143C97.5909 118.045 97.485 117.906 97.4275 117.746L95.4752 112.306L90.7996 111.355C90.626 111.319 90.4686 111.229 90.3505 111.097C90.2325 110.964 90.16 110.798 90.144 110.621C90.128 110.445 90.1691 110.268 90.2615 110.116C90.3538 109.965 90.4923 109.848 90.6565 109.781L95.2441 107.923L96.3826 102.603C96.4209 102.423 96.519 102.261 96.6599 102.142C96.8008 102.024 96.9777 101.956 97.1615 101.95C97.3452 101.944 97.5267 101.999 97.6755 102.107C97.8243 102.216 97.9325 102.371 97.9832 102.548L99.4801 107.78L104.37 109.039C104.541 109.085 104.695 109.184 104.806 109.323C104.919 109.461 104.983 109.632 104.991 109.81C104.998 109.986 104.948 110.158 104.849 110.303C104.75 110.449 104.607 110.559 104.441 110.618L99.9581 112.136L99.018 117.637C98.9864 117.816 98.8974 117.981 98.7621 118.105C98.628 118.228 98.4566 118.303 98.2752 118.319L98.203 118.296ZM93.8035 110.288L96.2507 110.782C96.3916 110.813 96.5223 110.879 96.6294 110.976C96.7365 111.073 96.8165 111.196 96.8616 111.333L97.9122 114.259L98.407 111.399C98.4307 111.253 98.495 111.115 98.5919 111.002C98.69 110.89 98.8151 110.806 98.9571 110.761L101.278 109.969L98.6054 109.281C98.469 109.247 98.3439 109.178 98.2413 109.083C98.1399 108.986 98.0644 108.865 98.0215 108.731L97.2956 106.179L96.7455 108.704C96.7162 108.836 96.6554 108.959 96.5686 109.062C96.4806 109.165 96.3702 109.246 96.2451 109.298L93.8035 110.288Z" fill="#021B79"/>
<path d="M160.976 132.428C150.046 132.428 141.806 126.234 141.723 126.152C141.665 126.108 141.618 126.053 141.582 125.99C141.545 125.928 141.522 125.858 141.512 125.787C141.493 125.641 141.532 125.495 141.621 125.379C141.711 125.263 141.842 125.187 141.987 125.168C142.132 125.149 142.279 125.188 142.395 125.277C142.538 125.387 156.988 136.224 172.753 128.633C172.818 128.595 172.891 128.572 172.966 128.564C173.041 128.555 173.117 128.563 173.189 128.586C173.261 128.608 173.328 128.645 173.385 128.695C173.442 128.745 173.489 128.805 173.52 128.873C173.553 128.942 173.571 129.016 173.575 129.092C173.577 129.167 173.564 129.242 173.536 129.313C173.509 129.383 173.466 129.447 173.413 129.5C173.36 129.553 173.296 129.595 173.225 129.623C169.41 131.478 165.22 132.437 160.976 132.428ZM54.2569 204.196C54.1111 204.206 53.9668 204.159 53.8559 204.064C53.7451 203.968 53.6765 203.833 53.6656 203.686C53.6547 203.541 53.7021 203.397 53.7976 203.286C53.893 203.174 54.0286 203.106 54.1744 203.096L67.8326 201.088C67.9049 201.077 67.9785 201.081 68.0492 201.099C68.12 201.117 68.1865 201.149 68.245 201.192C68.3035 201.236 68.3527 201.291 68.3901 201.353C68.4274 201.416 68.452 201.486 68.4624 201.558C68.4729 201.63 68.4691 201.703 68.4511 201.774C68.4331 201.845 68.4014 201.912 68.3577 201.971C68.3141 202.028 68.2593 202.078 68.1966 202.115C68.1338 202.152 68.0644 202.177 67.9921 202.188L54.3339 204.196H54.2569Z" fill="white"/>
</svg>
