<svg width="300" height="260" viewBox="0 0 300 260" fill="none" xmlns="http://www.w3.org/2000/svg">
<path d="M60.6577 229.872C110.935 278.102 209.453 255.519 259.817 229.872C310.181 204.225 273.081 142.645 286.395 90.2955C297.711 45.8752 253.564 6.60409 210.992 8.40324C210.248 8.40324 209.491 8.47769 208.734 8.53973C201.86 9.02334 195.116 10.6548 188.782 13.3664C141.433 33.8891 137.636 46.7685 93.489 45.1803C-20.4653 41.0485 10.3808 181.643 60.6577 229.872Z" fill="#E6EAEF"/>
<path d="M60.6577 229.872C110.935 278.102 209.453 255.519 259.817 229.872C310.181 204.225 273.081 142.645 286.395 90.2955C297.711 45.8752 253.564 6.60409 210.992 8.40324C210.248 8.40324 209.491 8.47769 208.734 8.53973C201.86 9.02334 195.116 10.6548 188.782 13.3664C141.433 33.8891 137.636 46.7685 93.489 45.1803C-20.4653 41.0485 10.3808 181.643 60.6577 229.872Z" fill="#E6EAEF"/>
<path d="M95.9803 26.197C95.8447 27.2539 96.1059 28.3235 96.7132 29.199C97.3206 30.0745 98.231 30.6937 99.2684 30.9368C109.129 33.223 119.419 32.8543 129.09 29.8681C138.761 26.882 147.468 21.3852 154.322 13.9379C178.989 -12.0939 99.0823 2.01393 95.9803 26.197Z" fill="#E6EAEF"/>
<path d="M268.151 258.213H32.6484V260H268.151V258.213Z" fill="#021B79"/>
<path d="M79.8435 181.421H57.6953V169.299H79.8435V181.421ZM58.9981 180.181H78.5779V170.589H58.9981V180.181Z" fill="#AAB6C2"/>
<path d="M64.7093 192.266H42.5859V180.156H64.7093V192.266ZM43.8515 191.025H63.4312V181.446H43.8515V191.025ZM134.392 77.269H112.294V65.1465H134.405L134.392 77.269ZM113.547 76.0282H133.127V66.4245H113.534L113.547 76.0282ZM249.773 198.904H227.687V186.781H249.773V198.904ZM228.928 197.663H248.508V188.084H228.928V197.663ZM173.266 211.051H151.143V198.941H173.266V211.051ZM152.408 209.81H172.001V200.232H152.408V209.81Z" fill="#AAB6C2"/>
<path d="M152.397 211.052H130.273V198.941H152.397V211.052ZM131.539 209.811H151.119V200.232H131.539V209.811Z" fill="#AAB6C2"/>
<path d="M162.834 221.909H140.711V209.787H162.834V221.909ZM141.977 220.668H161.556V211.077H141.977V220.668ZM205.344 141.357H183.208V129.234H205.344V141.357ZM184.486 140.116H204.103V130.537H184.474L184.486 140.116Z" fill="#AAB6C2"/>
<path d="M220.47 152.213H198.359V140.09H220.47V152.213ZM199.625 150.972H219.205V141.393H199.625V150.972ZM242.283 91.538H220.235V79.3906H242.345L242.283 91.538ZM221.475 90.2972H241.055V80.6562H221.475V90.2972Z" fill="#AAB6C2"/>
<path d="M221.485 91.538H199.312V79.3906H221.485V91.538ZM200.64 90.2972H220.22V80.6562H200.578L200.64 90.2972Z" fill="#AAB6C2"/>
<path d="M231.861 102.357H209.75V90.2969H231.861V102.357ZM211.016 101.117H230.595V91.5377H211.016V101.117Z" fill="#AAB6C2"/>
<path d="M176.692 209.325L178.292 199.287L172.088 197.736C171.905 194.742 171.199 191.802 170.004 189.051L174.868 184.844L168.9 176.618L163.378 179.931C161.14 177.943 158.569 176.364 155.784 175.266L156.243 168.851L146.193 167.25L144.642 173.454C141.648 173.633 138.709 174.335 135.957 175.526L131.75 170.662L123.462 176.68L126.787 182.202C124.797 184.445 123.214 187.019 122.109 189.808L115.694 189.349L114.094 199.387L120.298 200.95C120.484 203.943 121.185 206.881 122.37 209.635L117.506 213.842L123.474 222.068L128.996 218.755C131.241 220.741 133.815 222.319 136.602 223.421L136.143 229.836L146.181 231.436L147.744 225.232C150.739 225.06 153.68 224.359 156.43 223.16L160.686 228.024L168.912 222.056L165.649 216.472C167.634 214.232 169.213 211.662 170.314 208.879L176.692 209.325ZM143.314 217.465C139.73 216.895 136.395 215.275 133.732 212.81C131.068 210.345 129.195 207.146 128.35 203.616C127.504 200.087 127.724 196.386 128.982 192.982C130.24 189.577 132.479 186.622 135.416 184.49C138.352 182.358 141.856 181.145 145.482 181.004C149.109 180.863 152.696 181.8 155.789 183.697C158.883 185.594 161.345 188.366 162.864 191.662C164.382 194.959 164.889 198.631 164.321 202.216C163.943 204.596 163.101 206.879 161.84 208.934C160.58 210.989 158.928 212.776 156.977 214.192C155.026 215.608 152.815 216.626 150.471 217.188C148.127 217.749 145.695 217.843 143.314 217.465Z" fill="#0575E6"/>
<path d="M118.317 200.664L113.875 199.56L115.079 191.979L115.525 192.053L114.384 199.212L118.429 200.23L118.317 200.664Z" fill="#1E284C"/>
<path d="M136.445 229.849H135.999L136.445 223.645C134.31 222.852 132.316 221.721 130.539 220.295L130.824 219.947C132.598 221.378 134.599 222.502 136.743 223.273H136.917L136.445 229.849Z" fill="#1E284C"/>
<path d="M158.591 213.135L158.281 212.813C168.828 202.961 162.388 191.099 162.326 190.975L162.711 190.764C162.785 190.937 169.374 203.097 158.591 213.135Z" fill="#021B79"/>
<path d="M171.338 193.829C170.91 192.237 170.38 190.674 169.75 189.151L169.688 188.99L171.474 187.451L171.772 187.786L170.221 189.126C170.833 190.623 171.351 192.156 171.772 193.717L171.338 193.829Z" fill="#1E284C"/>
<path d="M148.947 230.593L138.5 228.931L138.959 222.466C136.227 221.412 133.706 219.878 131.514 217.937L125.968 221.263L119.764 212.714L124.665 208.47C123.523 205.787 122.839 202.93 122.642 200.02L116.352 198.457L118.014 188.009L124.479 188.469C125.535 185.738 127.069 183.217 129.008 181.024L125.682 175.49L134.244 169.286L138.475 174.162C141.123 172.917 144 172.232 146.925 172.152L148.488 165.861L158.948 167.524L158.476 173.989C161.215 175.033 163.739 176.573 165.921 178.53L171.468 175.192L177.672 183.754L172.77 187.985C173.994 190.641 174.681 193.512 174.793 196.434L181.084 197.998L179.421 208.458L172.969 207.999C171.935 210.746 170.39 213.272 168.415 215.443L171.753 220.99L163.204 227.194L158.96 222.305C156.324 223.582 153.44 224.264 150.511 224.303L148.947 230.593ZM139.021 228.559L148.662 230.097L150.213 223.893H150.386C153.364 223.882 156.299 223.181 158.96 221.846L159.109 221.747L163.316 226.598L171.219 220.866L167.919 215.381L168.031 215.257C170.052 213.081 171.621 210.525 172.646 207.738L172.708 207.577L179.098 208.023L180.625 198.383L174.421 196.832V196.67C174.327 193.698 173.626 190.775 172.361 188.084L172.286 187.923L177.126 183.729L171.393 175.837L165.909 179.138L165.785 179.014C163.593 177.014 161.041 175.448 158.266 174.398H158.104L158.551 168.008L148.91 166.482L147.359 172.686H147.198C144.22 172.738 141.289 173.441 138.611 174.745L138.462 174.832L134.256 169.981L126.365 175.713L129.665 181.21L129.529 181.334C126.936 183.729 124.938 188.779 124.925 188.853V189.015L118.535 188.555L116.885 198.122L123.089 199.673V199.834C123.262 202.8 123.96 205.711 125.149 208.433L125.223 208.582L120.384 212.776L126.117 220.68L131.601 217.379L131.725 217.491C133.936 219.475 136.488 221.043 139.257 222.119H139.405L139.021 228.559Z" fill="#021B79"/>
<path d="M151.303 216.66C147.657 217.172 143.94 216.591 140.624 214.991C137.308 213.391 134.541 210.842 132.673 207.669C130.806 204.496 129.921 200.839 130.132 197.163C130.343 193.487 131.64 189.956 133.858 187.017C136.076 184.078 139.116 181.863 142.594 180.652C146.071 179.441 149.829 179.289 153.393 180.215C156.957 181.141 160.166 183.103 162.615 185.854C165.063 188.604 166.641 192.019 167.148 195.666C167.827 200.55 166.54 205.505 163.569 209.441C160.598 213.377 156.187 215.974 151.303 216.66ZM146.216 180.267C142.661 180.762 139.332 182.3 136.651 184.686C133.97 187.073 132.056 190.2 131.152 193.674C130.247 197.147 130.393 200.811 131.571 204.202C132.748 207.593 134.905 210.558 137.767 212.724C140.63 214.889 144.07 216.158 147.653 216.368C151.236 216.579 154.801 215.723 157.898 213.908C160.995 212.093 163.484 209.401 165.051 206.171C166.618 202.942 167.192 199.321 166.701 195.765C166.036 190.995 163.506 186.684 159.665 183.778C155.824 180.873 150.987 179.61 146.216 180.267Z" fill="#021B79"/>
<path d="M135.797 49.9944L136.79 43.716L132.881 42.7481C132.792 40.8815 132.372 39.0457 131.641 37.3259L134.631 34.6954L130.909 29.4965L127.459 31.581C126.059 30.3371 124.45 29.35 122.707 28.6651L122.992 24.645L116.714 23.6523L115.746 27.5484C113.877 27.6681 112.043 28.1088 110.324 28.8513L107.681 25.8113L102.544 29.5337L104.616 32.9831C103.378 34.3877 102.392 35.9954 101.7 37.7353L97.6925 37.45L96.6875 43.7284L100.596 44.6962C100.692 46.5618 101.112 48.3965 101.837 50.1184L98.7969 52.7489L102.519 57.8858L105.969 55.8137C107.371 57.0541 108.98 58.0408 110.721 58.7295L110.435 62.7497L116.714 63.7423L117.694 59.8463C119.559 59.7267 121.389 59.2859 123.104 58.5434L125.747 61.5834L130.884 57.861L128.812 54.4116C130.058 53.0133 131.045 51.404 131.727 49.6594L135.797 49.9944ZM114.94 55.0816C112.701 54.725 110.618 53.7125 108.954 52.1723C107.291 50.6321 106.121 48.6333 105.593 46.4285C105.066 44.2237 105.203 41.912 105.989 39.7854C106.775 37.6589 108.174 35.8131 110.008 34.4813C111.843 33.1495 114.031 32.3916 116.297 32.3032C118.562 32.2149 120.803 32.8002 122.735 33.9851C124.668 35.17 126.206 36.9013 127.155 38.9602C128.104 41.0191 128.422 43.3131 128.067 45.5523C127.588 48.556 125.937 51.2467 123.475 53.0335C121.014 54.8202 117.944 55.5569 114.94 55.0816Z" fill="#0575E6"/>
<path d="M99.3028 44.5851L96.5234 43.8902L97.2679 39.1504L97.5533 39.2L96.8336 43.6793L99.3649 44.3121L99.3028 44.5851Z" fill="#1E284C"/>
<path d="M110.625 62.8251H110.34L110.613 58.9166C109.266 58.4312 108.008 57.7269 106.891 56.832L107.077 56.6211C108.195 57.5121 109.453 58.2123 110.799 58.6932H110.898L110.625 62.8251Z" fill="#1E284C"/>
<path d="M124.46 52.4141L124.273 52.2032C126.132 50.5189 127.383 48.2681 127.832 45.8002C128.28 43.3323 127.902 40.7853 126.755 38.5545L127.003 38.418C128.176 40.7062 128.562 43.3171 128.103 45.847C127.643 48.3769 126.362 50.6848 124.46 52.4141Z" fill="#021B79"/>
<path d="M132.438 40.3176C132.162 39.3198 131.83 38.3381 131.445 37.3769V37.2901L132.562 36.3223L132.748 36.5332L131.78 37.3645C132.16 38.3039 132.483 39.2652 132.748 40.2432L132.438 40.3176Z" fill="#1E284C"/>
<path d="M118.496 63.2968L111.957 62.2545L112.242 58.2095C110.545 57.5453 108.979 56.5877 107.614 55.3805L104.102 57.4651L100.219 52.1173L103.283 49.462C102.577 47.7863 102.157 46.0036 102.043 44.1886L98.1094 43.2084L99.1516 36.6694L103.184 36.9548C103.85 35.2562 104.812 33.6893 106.026 32.3266L103.941 28.8648L109.289 24.9811L111.932 28.0335C113.588 27.2571 115.389 26.8345 117.218 26.7927L118.198 22.8594L124.724 23.9016L124.439 27.9342C126.131 28.5811 127.691 29.5314 129.042 30.7384L132.517 28.6539L136.4 34.0017L133.385 36.6694C134.127 38.3203 134.548 40.0973 134.626 41.9055L138.559 42.8858L137.517 49.4123L133.484 49.1269C132.836 50.8344 131.872 52.4045 130.643 53.7551L132.727 57.2293L127.38 61.1006L124.7 58.0979C123.056 58.8992 121.254 59.3231 119.426 59.3387L118.496 63.2968ZM112.292 62.056L118.322 63.0114L119.29 59.1277H119.401C121.256 59.1371 123.088 58.7122 124.749 57.8869H124.848L127.479 60.9145L132.442 57.3286L130.382 53.904L130.444 53.8296C131.713 52.4713 132.696 50.8722 133.335 49.1269V49.0277L137.331 49.3131L138.286 43.2828L134.403 42.315V42.2033C134.357 40.3509 133.935 38.5271 133.162 36.8431V36.7438L136.189 34.1134L132.616 29.1502L129.179 31.2099L129.104 31.1355C127.729 29.8894 126.135 28.9092 124.402 28.2444H124.303L124.588 24.2615L118.558 23.2937L117.416 27.016H117.255C115.4 27.0395 113.571 27.4627 111.895 28.2568H111.795L109.165 25.2169L104.202 28.8028L106.261 32.2398L106.187 32.3142C104.948 33.6946 103.968 35.2878 103.296 37.0168V37.1161L99.3626 36.9424L98.3948 42.9726L102.278 43.9404V44.0397C102.365 45.8907 102.785 47.7109 103.519 49.4123V49.5116L100.492 52.1297L104.078 57.0928L107.515 55.0331L107.589 55.1076C108.991 56.3772 110.62 57.3707 112.391 58.0358H112.49L112.292 62.056Z" fill="#021B79"/>
<path d="M119.927 54.5749C117.649 54.8892 115.33 54.5213 113.261 53.5175C111.193 52.5138 109.469 50.9193 108.306 48.9357C107.144 46.952 106.596 44.6683 106.731 42.3732C106.867 40.0781 107.679 37.8747 109.067 36.0415C110.454 34.2083 112.354 32.8276 114.526 32.074C116.698 31.3204 119.045 31.2277 121.27 31.8076C123.494 32.3875 125.497 33.614 127.025 35.332C128.553 37.0501 129.537 39.1825 129.853 41.4597C130.274 44.5149 129.465 47.6121 127.603 50.0711C125.742 52.5302 122.981 54.15 119.927 54.5749ZM116.738 31.8312C114.517 32.1422 112.438 33.1047 110.764 34.5971C109.09 36.0895 107.896 38.0448 107.333 40.2157C106.77 42.3866 106.863 44.6756 107.601 46.7935C108.339 48.9113 109.688 50.7629 111.478 52.114C113.268 53.4652 115.418 54.2553 117.657 54.3845C119.896 54.5136 122.123 53.9761 124.057 52.8397C125.99 51.7034 127.544 50.0193 128.52 48.0003C129.496 45.9813 129.852 43.7182 129.543 41.497C129.124 38.5182 127.541 35.8272 125.14 34.015C122.739 32.2027 119.717 31.4173 116.738 31.8312Z" fill="#021B79"/>
<path d="M294.689 104.59L296.277 94.5516L290.073 92.9882C289.891 89.9935 289.185 87.0539 287.988 84.3027L292.852 80.084L286.884 71.8699L281.375 75.1829C279.13 73.1975 276.556 71.6187 273.769 70.5175L274.228 64.0902L264.177 62.502L262.626 68.7059C259.632 68.8897 256.693 69.5951 253.941 70.7904L249.722 65.9265L241.496 71.8948L244.821 77.4039C242.809 79.659 241.209 82.2503 240.094 85.0596L233.666 84.6005L232.078 94.6509L238.282 96.2019C238.466 99.1964 239.171 102.136 240.367 104.887L235.503 109.106L241.471 117.333L246.98 114.007C249.222 115.997 251.796 117.576 254.586 118.673L254.127 125.1L264.177 126.688L265.728 120.484C268.723 120.302 271.663 119.596 274.414 118.4L278.633 123.276L286.847 117.295L283.534 111.786C285.519 109.541 287.098 106.967 288.199 104.18L294.689 104.59ZM261.311 112.729C257.724 112.166 254.385 110.552 251.715 108.09C249.046 105.628 247.167 102.43 246.316 98.9003C245.465 95.3704 245.681 91.6673 246.935 88.2599C248.19 84.8524 250.427 81.8937 253.363 79.7581C256.3 77.6225 259.804 76.4061 263.432 76.2628C267.061 76.1195 270.65 77.0558 273.746 78.9531C276.842 80.8504 279.305 83.6235 280.824 86.9214C282.344 90.2194 282.85 93.8939 282.281 97.4799C281.515 102.277 278.879 106.575 274.951 109.433C271.024 112.291 266.123 113.476 261.324 112.729H261.311Z" fill="#0575E6"/>
<path d="M233.517 87.3062L233.071 87.2441L231.867 94.813L236.309 95.9297L236.421 95.4954L232.376 94.478L233.517 87.3062Z" fill="#1E284C"/>
<path d="M248.785 115.113L248.5 115.461C250.278 116.882 252.272 118.009 254.406 118.798L253.959 125.002H254.406L254.878 118.414H254.704C252.564 117.645 250.564 116.53 248.785 115.113Z" fill="#1E284C"/>
<path d="M280.318 86.2909C280.38 86.415 286.833 98.2646 276.273 108.129L276.584 108.451C287.391 98.3638 280.778 86.1916 280.715 86.1172L280.318 86.2909Z" fill="#021B79"/>
<path d="M289.474 82.7051L287.688 84.2561V84.405C288.334 85.9202 288.885 87.4742 289.338 89.0579L289.772 88.9339C289.345 87.3761 288.831 85.8434 288.233 84.3429L289.722 83.0525L289.474 82.7051Z" fill="#1E284C"/>
<path d="M290.78 83.2737L295.668 79.0302L289.464 70.4811L283.918 73.8065C281.738 71.8492 279.214 70.3136 276.473 69.2776L276.932 62.813L266.472 61.1504L264.909 67.4288C261.983 67.5093 259.105 68.1981 256.459 69.4513L252.228 64.5626L243.667 70.7665L247.004 76.3005C245.056 78.489 243.517 81.0109 242.463 83.7452L235.999 83.2737L234.336 93.7336L240.664 95.2598C240.862 98.1695 241.546 101.025 242.686 103.71L237.798 107.941L244.002 116.502L249.548 113.164C251.739 115.11 254.26 116.648 256.993 117.706L256.534 124.17L266.981 125.833L268.557 119.542C271.487 119.504 274.373 118.817 277.007 117.532L281.238 122.421L289.799 116.217L286.462 110.67C288.432 108.498 289.973 105.972 291.003 103.226L297.467 103.685L299.118 93.2373L292.839 91.6739C292.7 88.7673 292.001 85.9149 290.78 83.2737ZM297.046 103.263L290.656 102.804V102.978C289.616 105.761 288.044 108.315 286.027 110.497L285.916 110.621L289.216 116.105L281.325 121.838L277.118 116.986L276.957 117.085C274.295 118.42 271.361 119.121 268.383 119.133H268.21L266.671 125.337L256.968 123.798L257.427 117.408L257.266 117.346C254.493 116.282 251.94 114.718 249.734 112.73L249.61 112.606L244.126 115.907L238.393 108.015L243.232 103.821L243.158 103.672C241.975 100.948 241.278 98.038 241.098 95.0737V94.9123L234.894 93.3614L236.371 83.7452L242.749 84.1919V84.043C242.749 84.043 244.759 78.9061 247.364 76.5238L247.488 76.3997L244.188 70.8906L252.079 65.1706L256.286 70.0096L256.447 69.9228C259.124 68.63 262.049 67.9316 265.021 67.8755H265.182L266.733 61.6715L276.386 63.2101L276.076 69.5754H276.238C279.01 70.6374 281.56 72.2069 283.757 74.2035L283.881 74.3276L289.377 71.0147L295.11 78.9185L290.258 83.1124L290.345 83.2737C291.604 85.9626 292.301 88.8801 292.393 91.8476V92.0213L298.597 93.5723L297.046 103.263Z" fill="#021B79"/>
<path d="M264.156 75.0976C260.509 75.6051 257.094 77.1834 254.343 79.6325C251.593 82.0816 249.631 85.2916 248.706 88.8562C247.781 92.4207 247.934 96.1796 249.146 99.6571C250.358 103.135 252.575 106.174 255.515 108.392C258.455 110.609 261.987 111.904 265.664 112.114C269.341 112.323 272.997 111.437 276.17 109.567C279.342 107.698 281.889 104.929 283.488 101.611C285.087 98.2939 285.665 94.5766 285.15 90.9301C284.461 86.0488 281.864 81.6402 277.928 78.6719C273.992 75.7037 269.039 74.4182 264.156 75.0976ZM269.256 111.478C265.7 111.966 262.08 111.389 258.852 109.821C255.624 108.252 252.933 105.762 251.12 102.664C249.307 99.5672 248.453 96.002 248.665 92.4194C248.878 88.8368 250.147 85.3975 252.313 82.5361C254.48 79.6748 257.446 77.5199 260.836 76.3436C264.227 75.1673 267.89 75.0224 271.363 75.9274C274.836 76.8323 277.963 78.7464 280.349 81.4278C282.734 84.1092 284.271 87.4375 284.766 90.9921C285.093 93.3557 284.951 95.7606 284.349 98.0694C283.746 100.378 282.695 102.546 281.255 104.448C279.814 106.35 278.013 107.95 275.955 109.156C273.896 110.363 271.62 111.151 269.256 111.478Z" fill="#021B79"/>
<path d="M259.053 38.6055H234.336V258.474H259.053V38.6055Z" fill="#021B79"/>
<path d="M151.898 258.201H239.871V38.8789H151.898V258.201ZM157.159 47.4404H234.597V77.7033H157.159V47.4404ZM157.159 81.7235H234.597V111.986H157.159V81.7235ZM157.159 115.994H234.597V146.257H157.159V115.994ZM157.159 150.265H234.597V180.528H157.159V150.265ZM157.159 184.548H234.597V214.811H157.159V184.548ZM157.159 218.819H234.597V249.119H157.159V218.819Z" fill="white"/>
<path d="M234.321 77.9768H234.867V47.168H156.883V77.9768H234.321ZM157.392 47.7139H234.321V77.4309H157.392V47.7139ZM234.321 112.26H234.867V81.4511H156.883V112.26H234.321ZM157.392 81.9846H234.321V111.764H157.392V81.9846ZM234.321 215.084H234.867V184.276H156.883V215.084H234.321ZM157.392 184.821H234.321V214.538H157.392V184.821ZM234.321 180.801H234.867V149.992H156.883V180.801H234.321ZM157.392 150.538H234.321V180.317H157.392V150.538ZM234.321 249.355H234.867V218.546H156.883V249.355H234.321ZM157.392 219.092H234.321V248.809H157.392V219.092ZM234.321 146.531H234.867V115.722H156.883V146.531H234.321ZM157.392 116.268H234.321V145.985H157.392V116.268Z" fill="#021B79"/>
<path d="M151.625 41.906V258.474H240.094V38.6055H151.625V41.906ZM152.171 248.821V39.1266H239.597V257.94H152.171V248.821Z" fill="#021B79"/>
<path d="M234.329 47.7129H157.438V77.4299H234.329V47.7129Z" fill="#AAB6C2"/>
<path d="M187.609 50.416H162.309C161.685 50.416 161.18 50.9215 161.18 51.5451V73.6064C161.18 74.23 161.685 74.7355 162.309 74.7355H187.609C188.232 74.7355 188.738 74.23 188.738 73.6064V51.5451C188.738 50.9215 188.232 50.416 187.609 50.416Z" fill="#021B79"/>
<path d="M230.017 50.416H227.436C227.217 50.416 227.039 50.5938 227.039 50.8131V74.3385C227.039 74.5578 227.217 74.7355 227.436 74.7355H230.017C230.236 74.7355 230.414 74.5578 230.414 74.3385V50.8131C230.414 50.5938 230.236 50.416 230.017 50.416Z" fill="#62A9F0"/>
<path d="M184.542 52.8496H165.72C164.623 52.8496 163.734 53.7384 163.734 54.8349V55.418C163.734 56.5145 164.623 57.4033 165.72 57.4033H184.542C185.639 57.4033 186.528 56.5145 186.528 55.418V54.8349C186.528 53.7384 185.639 52.8496 184.542 52.8496Z" fill="white"/>
<path d="M184.542 52.8496H165.72C164.623 52.8496 163.734 53.7384 163.734 54.8349V55.418C163.734 56.5145 164.623 57.4033 165.72 57.4033H184.542C185.639 57.4033 186.528 56.5145 186.528 55.418V54.8349C186.528 53.7384 185.639 52.8496 184.542 52.8496Z" fill="white"/>
<path d="M181.719 54.3379H168.555V55.9385H181.719V54.3379Z" fill="#021B79"/>
<path d="M202.023 52.4043H191.898V57.628H202.023V52.4043Z" fill="#021B79"/>
<path d="M216.64 52.4043H206.516V57.628H216.64V52.4043Z" fill="#021B79"/>
<path d="M223.736 60.9277H208.859V66.1515H223.736V60.9277Z" fill="#021B79"/>
<path d="M222.599 62.5781H209.992V64.5013H222.599V62.5781Z" fill="white"/>
<path d="M223.736 68.918H208.859V74.1417H223.736V68.918Z" fill="#021B79"/>
<path d="M222.599 70.5684H209.992V72.4916H222.599V70.5684Z" fill="white"/>
<path d="M184.542 60.2949H165.72C164.623 60.2949 163.734 61.1838 163.734 62.2802V62.8634C163.734 63.9598 164.623 64.8486 165.72 64.8486H184.542C185.639 64.8486 186.528 63.9598 186.528 62.8634V62.2802C186.528 61.1838 185.639 60.2949 184.542 60.2949Z" fill="white"/>
<path d="M184.542 67.7402H165.72C164.623 67.7402 163.734 68.6291 163.734 69.7255V70.3087C163.734 71.4051 164.623 72.2939 165.72 72.2939H184.542C185.639 72.2939 186.528 71.4051 186.528 70.3087V69.7255C186.528 68.6291 185.639 67.7402 184.542 67.7402Z" fill="white"/>
<path d="M181.719 61.7715H168.555V63.3721H181.719V61.7715Z" fill="#021B79"/>
<path d="M181.719 69.2148H168.555V70.8155H181.719V69.2148Z" fill="#021B79"/>
<path d="M193.856 62.2673C193.519 62.2524 193.186 62.3386 192.899 62.5148C192.612 62.6909 192.384 62.949 192.245 63.2557C192.105 63.5625 192.061 63.9038 192.118 64.2359C192.174 64.568 192.329 64.8756 192.561 65.1191C192.794 65.3626 193.094 65.5309 193.424 65.6023C193.753 65.6736 194.096 65.6449 194.409 65.5196C194.721 65.3944 194.989 65.1784 195.178 64.8995C195.367 64.6206 195.468 64.2916 195.469 63.9547C195.474 63.738 195.436 63.5224 195.357 63.3203C195.279 63.1182 195.162 62.9335 195.012 62.7768C194.862 62.6201 194.683 62.4944 194.484 62.407C194.286 62.3196 194.072 62.2721 193.856 62.2673Z" fill="#62A9F0"/>
<path d="M199.145 62.2673C198.808 62.2524 198.475 62.3386 198.188 62.5148C197.901 62.6909 197.673 62.949 197.534 63.2557C197.394 63.5625 197.35 63.9038 197.407 64.2359C197.463 64.568 197.618 64.8756 197.85 65.1191C198.083 65.3626 198.384 65.5309 198.713 65.6023C199.042 65.6736 199.385 65.6449 199.698 65.5196C200.01 65.3944 200.278 65.1784 200.467 64.8995C200.656 64.6206 200.757 64.2916 200.758 63.9547C200.763 63.738 200.725 63.5224 200.647 63.3203C200.568 63.1182 200.451 62.9335 200.301 62.7768C200.151 62.6201 199.972 62.4944 199.774 62.407C199.575 62.3196 199.361 62.2721 199.145 62.2673Z" fill="white"/>
<path d="M204.556 62.2679C204.219 62.2505 203.884 62.3345 203.596 62.5091C203.307 62.6836 203.077 62.9407 202.936 63.2471C202.795 63.5535 202.749 63.8952 202.804 64.2281C202.859 64.5609 203.012 64.8696 203.244 65.1144C203.477 65.3592 203.777 65.5287 204.106 65.6012C204.436 65.6737 204.779 65.6457 205.093 65.5209C205.406 65.3962 205.675 65.1803 205.865 64.9012C206.054 64.6222 206.156 64.2927 206.156 63.9553C206.166 63.5197 206.004 63.0978 205.704 62.7817C205.404 62.4656 204.991 62.2809 204.556 62.2679Z" fill="#62A9F0"/>
<path d="M222.081 52.7737C221.636 52.7539 221.194 52.8678 220.814 53.1009C220.434 53.3339 220.133 53.6754 219.948 54.0814C219.764 54.4874 219.705 54.9392 219.78 55.3788C219.854 55.8184 220.059 56.2255 220.367 56.5479C220.675 56.8702 221.073 57.093 221.508 57.1876C221.944 57.2821 222.398 57.244 222.812 57.0783C223.226 56.9126 223.581 56.6268 223.831 56.2576C224.081 55.8885 224.215 55.453 224.215 55.0071C224.222 54.7203 224.172 54.435 224.068 54.1676C223.964 53.9001 223.809 53.6557 223.611 53.4482C223.413 53.2408 223.176 53.0745 222.913 52.9588C222.651 52.843 222.368 52.7801 222.081 52.7737ZM193.853 68.7055C193.518 68.6834 193.183 68.762 192.893 68.9313C192.602 69.1005 192.369 69.3527 192.223 69.6555C192.076 69.9582 192.024 70.2978 192.072 70.6305C192.12 70.9633 192.266 71.2741 192.492 71.5231C192.718 71.7721 193.013 71.948 193.34 72.0281C193.666 72.1083 194.009 72.0891 194.325 71.973C194.64 71.8569 194.914 71.6492 195.111 71.3765C195.307 71.1038 195.418 70.7786 195.429 70.4426C195.44 70.2248 195.409 70.0069 195.336 69.8014C195.263 69.5959 195.15 69.4069 195.003 69.2454C194.857 69.0838 194.68 68.953 194.482 68.8603C194.285 68.7676 194.071 68.715 193.853 68.7055Z" fill="white"/>
<path d="M199.145 68.7087C198.808 68.6938 198.475 68.78 198.188 68.9562C197.901 69.1323 197.673 69.3904 197.534 69.6971C197.394 70.0039 197.35 70.3453 197.407 70.6773C197.463 71.0094 197.618 71.317 197.85 71.5605C198.083 71.804 198.384 71.9723 198.713 72.0437C199.042 72.115 199.385 72.0863 199.698 71.961C200.01 71.8358 200.278 71.6198 200.467 71.3409C200.656 71.0621 200.757 70.733 200.758 70.3962C200.763 70.1794 200.725 69.9639 200.647 69.7617C200.568 69.5596 200.451 69.3749 200.301 69.2182C200.151 69.0615 199.972 68.9359 199.774 68.8484C199.575 68.761 199.361 68.7135 199.145 68.7087Z" fill="#62A9F0"/>
<path d="M204.555 68.7053C204.22 68.6882 203.888 68.7712 203.6 68.9437C203.313 69.1162 203.083 69.3704 202.941 69.6739C202.799 69.9774 202.75 70.3164 202.801 70.6477C202.852 70.979 203.001 71.2876 203.228 71.5341C203.455 71.7806 203.75 71.9539 204.076 72.0318C204.402 72.1098 204.744 72.0889 205.058 71.9717C205.372 71.8546 205.644 71.6466 205.84 71.3742C206.035 71.1019 206.145 70.7775 206.155 70.4424C206.167 70.2226 206.135 70.0027 206.06 69.7957C205.986 69.5886 205.87 69.3985 205.721 69.2366C205.572 69.0748 205.392 68.9444 205.192 68.8531C204.991 68.7619 204.775 68.7116 204.555 68.7053Z" fill="white"/>
<path d="M234.329 81.9844H157.438V111.701H234.329V81.9844Z" fill="#AAB6C2"/>
<path d="M187.609 84.6895H162.309C161.685 84.6895 161.18 85.195 161.18 85.8186V107.88C161.18 108.503 161.685 109.009 162.309 109.009H187.609C188.232 109.009 188.738 108.503 188.738 107.88V85.8186C188.738 85.195 188.232 84.6895 187.609 84.6895Z" fill="#021B79"/>
<path d="M230.017 84.6895H227.436C227.217 84.6895 227.039 84.8672 227.039 85.0865V108.612C227.039 108.831 227.217 109.009 227.436 109.009H230.017C230.236 109.009 230.414 108.831 230.414 108.612V85.0865C230.414 84.8672 230.236 84.6895 230.017 84.6895Z" fill="#62A9F0"/>
<path d="M184.542 87.1309H165.72C164.623 87.1309 163.734 88.0197 163.734 89.1161V89.6993C163.734 90.7957 164.623 91.6846 165.72 91.6846H184.542C185.639 91.6846 186.528 90.7957 186.528 89.6993V89.1161C186.528 88.0197 185.639 87.1309 184.542 87.1309Z" fill="white"/>
<path d="M184.542 87.1309H165.72C164.623 87.1309 163.734 88.0197 163.734 89.1161V89.6993C163.734 90.7957 164.623 91.6846 165.72 91.6846H184.542C185.639 91.6846 186.528 90.7957 186.528 89.6993V89.1161C186.528 88.0197 185.639 87.1309 184.542 87.1309Z" fill="white"/>
<path d="M181.719 88.6094H168.555V90.21H181.719V88.6094Z" fill="#021B79"/>
<path d="M202.023 86.6738H191.898V91.8976H202.023V86.6738Z" fill="#021B79"/>
<path d="M216.64 86.6738H206.516V91.8976H216.64V86.6738Z" fill="#021B79"/>
<path d="M223.736 95.1973H208.859V100.421H223.736V95.1973Z" fill="#021B79"/>
<path d="M222.599 96.8477H209.992V98.7709H222.599V96.8477Z" fill="white"/>
<path d="M223.736 103.189H208.859V108.413H223.736V103.189Z" fill="#021B79"/>
<path d="M222.599 104.84H209.992V106.763H222.599V104.84Z" fill="white"/>
<path d="M184.542 94.5645H165.72C164.623 94.5645 163.734 95.4533 163.734 96.5497V97.1329C163.734 98.2293 164.623 99.1182 165.72 99.1182H184.542C185.639 99.1182 186.528 98.2293 186.528 97.1329V96.5497C186.528 95.4533 185.639 94.5645 184.542 94.5645Z" fill="white"/>
<path d="M184.542 102.01H165.72C164.623 102.01 163.734 102.899 163.734 103.995V104.578C163.734 105.675 164.623 106.563 165.72 106.563H184.542C185.639 106.563 186.528 105.675 186.528 104.578V103.995C186.528 102.899 185.639 102.01 184.542 102.01Z" fill="white"/>
<path d="M181.719 96.0547H168.555V97.6553H181.719V96.0547Z" fill="#021B79"/>
<path d="M181.719 103.488H168.555V105.089H181.719V103.488Z" fill="#021B79"/>
<path d="M193.846 96.5011C193.513 96.4888 193.183 96.5764 192.9 96.7528C192.616 96.9292 192.392 97.1863 192.255 97.491C192.119 97.7958 192.077 98.1344 192.134 98.4633C192.192 98.7922 192.346 99.0965 192.578 99.337C192.809 99.5775 193.108 99.7433 193.434 99.8131C193.761 99.8829 194.101 99.8536 194.41 99.7288C194.72 99.6041 194.985 99.3896 195.172 99.113C195.359 98.8363 195.459 98.5101 195.46 98.1762C195.464 97.9601 195.427 97.7451 195.348 97.5437C195.269 97.3423 195.152 97.1585 195.002 97.0027C194.852 96.847 194.673 96.7225 194.474 96.6364C194.276 96.5503 194.063 96.5044 193.846 96.5011Z" fill="#62A9F0"/>
<path d="M199.151 96.5011C198.818 96.4888 198.488 96.5764 198.204 96.7528C197.921 96.9292 197.696 97.1863 197.56 97.491C197.424 97.7958 197.382 98.1344 197.439 98.4633C197.497 98.7922 197.651 99.0965 197.883 99.337C198.114 99.5775 198.412 99.7433 198.739 99.8131C199.065 99.8829 199.405 99.8536 199.715 99.7288C200.025 99.6041 200.29 99.3896 200.477 99.113C200.664 98.8363 200.764 98.5101 200.764 98.1762C200.769 97.9601 200.731 97.7451 200.653 97.5437C200.574 97.3423 200.457 97.1585 200.307 97.0027C200.157 96.847 199.977 96.7225 199.779 96.6364C199.581 96.5503 199.367 96.5044 199.151 96.5011Z" fill="white"/>
<path d="M204.562 96.4997C204.228 96.4848 203.897 96.5703 203.612 96.7451C203.327 96.9199 203.101 97.176 202.962 97.4805C202.824 97.785 202.78 98.1238 202.836 98.4535C202.892 98.7832 203.045 99.0886 203.277 99.3304C203.508 99.5721 203.806 99.7392 204.132 99.8101C204.459 99.881 204.8 99.8525 205.11 99.7282C205.421 99.6039 205.687 99.3895 205.874 99.1127C206.062 98.8358 206.162 98.5092 206.163 98.1748C206.168 97.9597 206.13 97.7457 206.052 97.5451C205.975 97.3445 205.858 97.1612 205.709 97.0056C205.561 96.8501 205.383 96.7253 205.186 96.6385C204.989 96.5517 204.777 96.5045 204.562 96.4997Z" fill="#62A9F0"/>
<path d="M222.083 87.0588C221.637 87.039 221.196 87.153 220.816 87.386C220.436 87.6191 220.134 87.9606 219.95 88.3666C219.766 88.7725 219.707 89.2244 219.782 89.6639C219.856 90.1035 220.061 90.5107 220.369 90.833C220.677 91.1554 221.074 91.3782 221.51 91.4727C221.946 91.5672 222.4 91.5292 222.814 91.3635C223.228 91.1977 223.582 90.9119 223.832 90.5428C224.083 90.1737 224.216 89.7381 224.217 89.2923C224.223 89.0055 224.173 88.7202 224.07 88.4527C223.966 88.1852 223.811 87.9408 223.612 87.7334C223.414 87.526 223.177 87.3597 222.915 87.2439C222.652 87.1282 222.369 87.0653 222.083 87.0588Z" fill="white"/>
<path d="M193.847 106.34C194.738 106.34 195.46 105.59 195.46 104.665C195.46 103.74 194.738 102.99 193.847 102.99C192.957 102.99 192.234 103.74 192.234 104.665C192.234 105.59 192.957 106.34 193.847 106.34Z" fill="white"/>
<path d="M199.151 102.989C198.818 102.977 198.488 103.065 198.204 103.241C197.921 103.417 197.696 103.675 197.56 103.979C197.424 104.284 197.382 104.623 197.439 104.952C197.497 105.281 197.651 105.585 197.883 105.825C198.114 106.066 198.412 106.232 198.739 106.301C199.065 106.371 199.405 106.342 199.715 106.217C200.025 106.092 200.29 105.878 200.477 105.601C200.664 105.325 200.764 104.998 200.764 104.664C200.769 104.448 200.731 104.233 200.653 104.032C200.574 103.831 200.457 103.647 200.307 103.491C200.157 103.335 199.977 103.211 199.779 103.125C199.581 103.039 199.367 102.993 199.151 102.989Z" fill="#62A9F0"/>
<path d="M204.562 102.99C204.228 102.975 203.897 103.061 203.612 103.235C203.327 103.41 203.101 103.666 202.962 103.971C202.824 104.275 202.78 104.614 202.836 104.944C202.892 105.273 203.045 105.579 203.277 105.821C203.508 106.062 203.806 106.229 204.132 106.3C204.459 106.371 204.8 106.343 205.11 106.218C205.421 106.094 205.687 105.88 205.874 105.603C206.062 105.326 206.162 104.999 206.163 104.665C206.168 104.45 206.13 104.236 206.052 104.035C205.975 103.835 205.858 103.651 205.709 103.496C205.561 103.34 205.383 103.216 205.186 103.129C204.989 103.042 204.777 102.995 204.562 102.99Z" fill="white"/>
<path d="M234.329 150.539H157.438V180.256H234.329V150.539Z" fill="#AAB6C2"/>
<path d="M187.609 153.242H162.309C161.685 153.242 161.18 153.748 161.18 154.371V176.433C161.18 177.056 161.685 177.562 162.309 177.562H187.609C188.232 177.562 188.738 177.056 188.738 176.433V154.371C188.738 153.748 188.232 153.242 187.609 153.242Z" fill="#021B79"/>
<path d="M230.017 153.242H227.436C227.217 153.242 227.039 153.42 227.039 153.639V177.165C227.039 177.384 227.217 177.562 227.436 177.562H230.017C230.236 177.562 230.414 177.384 230.414 177.165V153.639C230.414 153.42 230.236 153.242 230.017 153.242Z" fill="#62A9F0"/>
<path d="M184.542 155.674H165.72C164.623 155.674 163.734 156.563 163.734 157.659V158.242C163.734 159.339 164.623 160.228 165.72 160.228H184.542C185.639 160.228 186.528 159.339 186.528 158.242V157.659C186.528 156.563 185.639 155.674 184.542 155.674Z" fill="white"/>
<path d="M184.542 155.674H165.72C164.623 155.674 163.734 156.563 163.734 157.659V158.242C163.734 159.339 164.623 160.228 165.72 160.228H184.542C185.639 160.228 186.528 159.339 186.528 158.242V157.659C186.528 156.563 185.639 155.674 184.542 155.674Z" fill="white"/>
<path d="M181.719 157.164H168.555V158.765H181.719V157.164Z" fill="#021B79"/>
<path d="M202.023 155.227H191.898V160.45H202.023V155.227Z" fill="#021B79"/>
<path d="M216.64 155.227H206.516V160.45H216.64V155.227Z" fill="#021B79"/>
<path d="M223.736 163.75H208.859V168.974H223.736V163.75Z" fill="#021B79"/>
<path d="M222.599 165.4H209.992V167.311H222.599V165.4Z" fill="white"/>
<path d="M223.736 171.742H208.859V176.966H223.736V171.742Z" fill="#021B79"/>
<path d="M222.599 173.393H209.992V175.316H222.599V173.393Z" fill="white"/>
<path d="M184.542 163.117H165.72C164.623 163.117 163.734 164.006 163.734 165.102V165.686C163.734 166.782 164.623 167.671 165.72 167.671H184.542C185.639 167.671 186.528 166.782 186.528 165.686V165.102C186.528 164.006 185.639 163.117 184.542 163.117Z" fill="white"/>
<path d="M184.542 170.562H165.72C164.623 170.562 163.734 171.451 163.734 172.548V173.131C163.734 174.227 164.623 175.116 165.72 175.116H184.542C185.639 175.116 186.528 174.227 186.528 173.131V172.548C186.528 171.451 185.639 170.562 184.542 170.562Z" fill="white"/>
<path d="M181.719 164.596H168.555V166.196H181.719V164.596Z" fill="#021B79"/>
<path d="M181.719 172.041H168.555V173.642H181.719V172.041Z" fill="#021B79"/>
<path d="M193.856 165.091C193.519 165.077 193.186 165.163 192.899 165.339C192.612 165.515 192.384 165.773 192.245 166.08C192.105 166.387 192.061 166.728 192.118 167.06C192.174 167.392 192.329 167.7 192.561 167.943C192.794 168.187 193.094 168.355 193.424 168.426C193.753 168.498 194.096 168.469 194.409 168.344C194.721 168.219 194.989 168.003 195.178 167.724C195.367 167.445 195.468 167.116 195.469 166.779C195.474 166.562 195.436 166.347 195.357 166.145C195.279 165.942 195.162 165.758 195.012 165.601C194.862 165.444 194.683 165.319 194.484 165.231C194.286 165.144 194.072 165.096 193.856 165.091Z" fill="#62A9F0"/>
<path d="M199.145 165.091C198.808 165.077 198.475 165.163 198.188 165.339C197.901 165.515 197.673 165.773 197.534 166.08C197.394 166.387 197.35 166.728 197.407 167.06C197.463 167.392 197.618 167.7 197.85 167.943C198.083 168.187 198.384 168.355 198.713 168.426C199.042 168.498 199.385 168.469 199.698 168.344C200.01 168.219 200.278 168.003 200.467 167.724C200.656 167.445 200.757 167.116 200.758 166.779C200.763 166.562 200.725 166.347 200.647 166.145C200.568 165.942 200.451 165.758 200.301 165.601C200.151 165.444 199.972 165.319 199.774 165.231C199.575 165.144 199.361 165.096 199.145 165.091Z" fill="white"/>
<path d="M204.556 165.09C204.219 165.073 203.884 165.157 203.596 165.331C203.307 165.506 203.077 165.763 202.936 166.069C202.795 166.376 202.749 166.717 202.804 167.05C202.859 167.383 203.012 167.692 203.244 167.937C203.477 168.181 203.777 168.351 204.106 168.423C204.436 168.496 204.779 168.468 205.093 168.343C205.406 168.218 205.675 168.003 205.865 167.724C206.054 167.444 206.156 167.115 206.156 166.778C206.166 166.342 206.004 165.92 205.704 165.604C205.404 165.288 204.991 165.103 204.556 165.09Z" fill="#62A9F0"/>
<path d="M222.084 155.6C221.638 155.58 221.197 155.694 220.817 155.927C220.437 156.16 220.135 156.502 219.951 156.908C219.767 157.314 219.708 157.765 219.783 158.205C219.857 158.645 220.062 159.052 220.37 159.374C220.678 159.696 221.075 159.919 221.511 160.014C221.947 160.108 222.401 160.07 222.815 159.904C223.229 159.739 223.583 159.453 223.833 159.084C224.084 158.715 224.217 158.279 224.218 157.833C224.224 157.546 224.174 157.261 224.071 156.994C223.967 156.726 223.812 156.482 223.613 156.274C223.415 156.067 223.178 155.901 222.916 155.785C222.653 155.669 222.37 155.606 222.084 155.6ZM193.856 171.532C193.519 171.517 193.186 171.603 192.899 171.779C192.612 171.955 192.384 172.213 192.245 172.52C192.105 172.827 192.061 173.168 192.118 173.5C192.174 173.832 192.329 174.14 192.561 174.383C192.794 174.627 193.094 174.795 193.424 174.867C193.753 174.938 194.096 174.909 194.409 174.784C194.721 174.659 194.989 174.443 195.178 174.164C195.367 173.885 195.468 173.556 195.469 173.219C195.474 173.002 195.436 172.787 195.357 172.585C195.279 172.383 195.162 172.198 195.012 172.041C194.862 171.884 194.683 171.759 194.484 171.671C194.286 171.584 194.072 171.536 193.856 171.532Z" fill="white"/>
<path d="M199.145 171.531C198.808 171.516 198.475 171.602 198.188 171.778C197.901 171.955 197.673 172.213 197.534 172.519C197.394 172.826 197.35 173.168 197.407 173.5C197.463 173.832 197.618 174.139 197.85 174.383C198.083 174.626 198.384 174.795 198.713 174.866C199.042 174.937 199.385 174.909 199.698 174.783C200.01 174.658 200.278 174.442 200.467 174.163C200.656 173.884 200.757 173.555 200.758 173.218C200.763 173.002 200.725 172.786 200.647 172.584C200.568 172.382 200.451 172.197 200.301 172.04C200.151 171.884 199.972 171.758 199.774 171.671C199.575 171.583 199.361 171.536 199.145 171.531Z" fill="#62A9F0"/>
<path d="M204.556 171.532C204.219 171.514 203.884 171.598 203.596 171.773C203.307 171.947 203.077 172.204 202.936 172.511C202.795 172.817 202.749 173.159 202.804 173.492C202.859 173.825 203.012 174.133 203.244 174.378C203.477 174.623 203.777 174.792 204.106 174.865C204.436 174.937 204.779 174.909 205.093 174.785C205.406 174.66 205.675 174.444 205.865 174.165C206.054 173.886 206.156 173.556 206.156 173.219C206.166 172.783 206.004 172.362 205.704 172.045C205.404 171.729 204.991 171.545 204.556 171.532Z" fill="white"/>
<path d="M234.329 184.82H157.438V214.537H234.329V184.82Z" fill="#AAB6C2"/>
<path d="M187.609 187.512H162.309C161.685 187.512 161.18 188.017 161.18 188.641V210.702C161.18 211.326 161.685 211.831 162.309 211.831H187.609C188.232 211.831 188.738 211.326 188.738 210.702V188.641C188.738 188.017 188.232 187.512 187.609 187.512Z" fill="#021B79"/>
<path d="M230.017 187.512H227.436C227.217 187.512 227.039 187.689 227.039 187.909V211.434C227.039 211.653 227.217 211.831 227.436 211.831H230.017C230.236 211.831 230.414 211.653 230.414 211.434V187.909C230.414 187.689 230.236 187.512 230.017 187.512Z" fill="#62A9F0"/>
<path d="M184.542 189.957H165.72C164.623 189.957 163.734 190.846 163.734 191.942V192.525C163.734 193.622 164.623 194.511 165.72 194.511H184.542C185.639 194.511 186.528 193.622 186.528 192.525V191.942C186.528 190.846 185.639 189.957 184.542 189.957Z" fill="white"/>
<path d="M184.542 189.957H165.72C164.623 189.957 163.734 190.846 163.734 191.942V192.525C163.734 193.622 164.623 194.511 165.72 194.511H184.542C185.639 194.511 186.528 193.622 186.528 192.525V191.942C186.528 190.846 185.639 189.957 184.542 189.957Z" fill="white"/>
<path d="M181.719 191.434H168.555V193.034H181.719V191.434Z" fill="#021B79"/>
<path d="M202.023 189.498H191.898V194.722H202.023V189.498Z" fill="#021B79"/>
<path d="M216.64 189.498H206.516V194.722H216.64V189.498Z" fill="#021B79"/>
<path d="M223.736 198.023H208.859V203.247H223.736V198.023Z" fill="#021B79"/>
<path d="M222.599 199.674H209.992V201.597H222.599V199.674Z" fill="white"/>
<path d="M223.736 206.014H208.859V211.237H223.736V206.014Z" fill="#021B79"/>
<path d="M222.599 207.664H209.992V209.575H222.599V207.664Z" fill="white"/>
<path d="M184.542 197.402H165.72C164.623 197.402 163.734 198.291 163.734 199.388V199.971C163.734 201.067 164.623 201.956 165.72 201.956H184.542C185.639 201.956 186.528 201.067 186.528 199.971V199.388C186.528 198.291 185.639 197.402 184.542 197.402Z" fill="white"/>
<path d="M184.542 204.834H165.72C164.623 204.834 163.734 205.723 163.734 206.819V207.402C163.734 208.499 164.623 209.388 165.72 209.388H184.542C185.639 209.388 186.528 208.499 186.528 207.402V206.819C186.528 205.723 185.639 204.834 184.542 204.834Z" fill="white"/>
<path d="M181.719 198.879H168.555V200.48H181.719V198.879Z" fill="#021B79"/>
<path d="M181.719 206.322H168.555V207.923H181.719V206.322Z" fill="#021B79"/>
<path d="M193.846 199.374C193.513 199.362 193.183 199.449 192.9 199.626C192.616 199.802 192.392 200.059 192.255 200.364C192.119 200.669 192.077 201.007 192.134 201.336C192.192 201.665 192.346 201.97 192.578 202.21C192.809 202.451 193.108 202.616 193.434 202.686C193.761 202.756 194.101 202.727 194.41 202.602C194.72 202.477 194.985 202.263 195.172 201.986C195.359 201.709 195.459 201.383 195.46 201.049C195.464 200.833 195.427 200.618 195.348 200.417C195.269 200.215 195.152 200.031 195.002 199.876C194.852 199.72 194.673 199.596 194.474 199.509C194.276 199.423 194.063 199.377 193.846 199.374Z" fill="#62A9F0"/>
<path d="M199.151 199.374C198.818 199.362 198.488 199.449 198.204 199.626C197.921 199.802 197.696 200.059 197.56 200.364C197.424 200.669 197.382 201.007 197.439 201.336C197.497 201.665 197.651 201.97 197.883 202.21C198.114 202.451 198.412 202.616 198.739 202.686C199.065 202.756 199.405 202.727 199.715 202.602C200.025 202.477 200.29 202.263 200.477 201.986C200.664 201.709 200.764 201.383 200.764 201.049C200.769 200.833 200.731 200.618 200.653 200.417C200.574 200.215 200.457 200.031 200.307 199.876C200.157 199.72 199.977 199.596 199.779 199.509C199.581 199.423 199.367 199.377 199.151 199.374Z" fill="white"/>
<path d="M204.562 199.375C204.228 199.36 203.897 199.445 203.612 199.62C203.327 199.795 203.101 200.051 202.962 200.355C202.824 200.66 202.78 200.999 202.836 201.329C202.892 201.658 203.045 201.964 203.277 202.205C203.508 202.447 203.806 202.614 204.132 202.685C204.459 202.756 204.8 202.727 205.11 202.603C205.421 202.479 205.687 202.265 205.874 201.988C206.062 201.711 206.162 201.384 206.163 201.05C206.168 200.835 206.13 200.621 206.052 200.42C205.975 200.219 205.858 200.036 205.709 199.881C205.561 199.725 205.383 199.6 205.186 199.514C204.989 199.427 204.777 199.38 204.562 199.375Z" fill="#62A9F0"/>
<path d="M222.075 189.883C221.629 189.863 221.188 189.977 220.808 190.21C220.428 190.443 220.126 190.785 219.942 191.191C219.757 191.597 219.699 192.049 219.773 192.488C219.848 192.928 220.052 193.335 220.361 193.657C220.669 193.98 221.066 194.202 221.502 194.297C221.937 194.391 222.391 194.353 222.805 194.188C223.219 194.022 223.574 193.736 223.824 193.367C224.074 192.998 224.208 192.562 224.209 192.116C224.215 191.83 224.165 191.544 224.062 191.277C223.958 191.009 223.802 190.765 223.604 190.558C223.406 190.35 223.169 190.184 222.907 190.068C222.644 189.952 222.361 189.89 222.075 189.883ZM193.846 205.815C193.513 205.802 193.183 205.89 192.9 206.066C192.616 206.243 192.392 206.5 192.255 206.805C192.119 207.11 192.077 207.448 192.134 207.777C192.192 208.106 192.346 208.41 192.578 208.651C192.809 208.891 193.108 209.057 193.434 209.127C193.761 209.197 194.101 209.167 194.41 209.043C194.72 208.918 194.985 208.703 195.172 208.427C195.359 208.15 195.459 207.824 195.46 207.49C195.464 207.274 195.427 207.059 195.348 206.857C195.269 206.656 195.152 206.472 195.002 206.316C194.852 206.161 194.673 206.036 194.474 205.95C194.276 205.864 194.063 205.818 193.846 205.815Z" fill="white"/>
<path d="M199.151 205.816C198.818 205.803 198.488 205.891 198.204 206.067C197.921 206.244 197.696 206.501 197.56 206.805C197.424 207.11 197.382 207.449 197.439 207.778C197.497 208.107 197.651 208.411 197.883 208.651C198.114 208.892 198.412 209.058 198.739 209.128C199.065 209.197 199.405 209.168 199.715 209.043C200.025 208.919 200.29 208.704 200.477 208.427C200.664 208.151 200.764 207.825 200.764 207.491C200.769 207.275 200.731 207.06 200.653 206.858C200.574 206.657 200.457 206.473 200.307 206.317C200.157 206.161 199.977 206.037 199.779 205.951C199.581 205.865 199.367 205.819 199.151 205.816Z" fill="#62A9F0"/>
<path d="M204.562 205.816C204.228 205.801 203.897 205.887 203.612 206.061C203.327 206.236 203.101 206.492 202.962 206.797C202.824 207.101 202.78 207.44 202.836 207.77C202.892 208.1 203.045 208.405 203.277 208.647C203.508 208.889 203.806 209.056 204.132 209.127C204.459 209.197 204.8 209.169 205.11 209.045C205.421 208.92 205.687 208.706 205.874 208.429C206.062 208.152 206.162 207.826 206.163 207.491C206.168 207.276 206.13 207.062 206.052 206.861C205.975 206.661 205.858 206.478 205.709 206.322C205.561 206.166 205.383 206.042 205.186 205.955C204.989 205.868 204.777 205.821 204.562 205.816Z" fill="white"/>
<path d="M234.329 219.092H157.438V248.809H234.329V219.092Z" fill="#AAB6C2"/>
<path d="M187.609 221.797H162.309C161.685 221.797 161.18 222.302 161.18 222.926V244.987C161.18 245.611 161.685 246.116 162.309 246.116H187.609C188.232 246.116 188.738 245.611 188.738 244.987V222.926C188.738 222.302 188.232 221.797 187.609 221.797Z" fill="#021B79"/>
<path d="M230.017 221.797H227.436C227.217 221.797 227.039 221.975 227.039 222.194V245.719C227.039 245.939 227.217 246.116 227.436 246.116H230.017C230.236 246.116 230.414 245.939 230.414 245.719V222.194C230.414 221.975 230.236 221.797 230.017 221.797Z" fill="#62A9F0"/>
<path d="M184.542 224.227H165.72C164.623 224.227 163.734 225.115 163.734 226.212V226.795C163.734 227.891 164.623 228.78 165.72 228.78H184.542C185.639 228.78 186.528 227.891 186.528 226.795V226.212C186.528 225.115 185.639 224.227 184.542 224.227Z" fill="white"/>
<path d="M184.542 224.227H165.72C164.623 224.227 163.734 225.115 163.734 226.212V226.795C163.734 227.891 164.623 228.78 165.72 228.78H184.542C185.639 228.78 186.528 227.891 186.528 226.795V226.212C186.528 225.115 185.639 224.227 184.542 224.227Z" fill="white"/>
<path d="M181.719 225.705H168.555V227.306H181.719V225.705Z" fill="#021B79"/>
<path d="M202.023 223.781H191.898V229.005H202.023V223.781Z" fill="#021B79"/>
<path d="M216.64 223.781H206.516V229.005H216.64V223.781Z" fill="#021B79"/>
<path d="M223.736 232.305H208.859V237.528H223.736V232.305Z" fill="#021B79"/>
<path d="M222.599 233.955H209.992V235.866H222.599V233.955Z" fill="white"/>
<path d="M223.736 240.297H208.859V245.521H223.736V240.297Z" fill="#021B79"/>
<path d="M222.599 241.947H209.992V243.87H222.599V241.947Z" fill="white"/>
<path d="M184.542 231.672H165.72C164.623 231.672 163.734 232.561 163.734 233.657V234.24C163.734 235.337 164.623 236.226 165.72 236.226H184.542C185.639 236.226 186.528 235.337 186.528 234.24V233.657C186.528 232.561 185.639 231.672 184.542 231.672Z" fill="white"/>
<path d="M184.542 239.117H165.72C164.623 239.117 163.734 240.006 163.734 241.102V241.686C163.734 242.782 164.623 243.671 165.72 243.671H184.542C185.639 243.671 186.528 242.782 186.528 241.686V241.102C186.528 240.006 185.639 239.117 184.542 239.117Z" fill="white"/>
<path d="M181.719 233.15H168.555V234.751H181.719V233.15Z" fill="#021B79"/>
<path d="M181.719 240.596H168.555V242.196H181.719V240.596Z" fill="#021B79"/>
<path d="M193.847 236.995C194.738 236.995 195.46 236.245 195.46 235.32C195.46 234.394 194.738 233.645 193.847 233.645C192.957 233.645 192.234 234.394 192.234 235.32C192.234 236.245 192.957 236.995 193.847 236.995Z" fill="#62A9F0"/>
<path d="M199.145 233.646C198.808 233.631 198.474 233.718 198.186 233.894C197.899 234.071 197.671 234.33 197.532 234.637C197.394 234.945 197.35 235.287 197.407 235.619C197.465 235.952 197.621 236.259 197.855 236.503C198.089 236.746 198.39 236.913 198.72 236.983C199.05 237.053 199.394 237.022 199.706 236.895C200.019 236.768 200.286 236.55 200.473 236.269C200.661 235.989 200.76 235.659 200.758 235.321C200.764 234.886 200.599 234.465 200.296 234.151C199.994 233.838 199.58 233.656 199.145 233.646Z" fill="white"/>
<path d="M204.556 233.645C204.218 233.627 203.883 233.712 203.594 233.887C203.305 234.062 203.076 234.32 202.935 234.627C202.794 234.934 202.749 235.276 202.805 235.61C202.861 235.943 203.015 236.252 203.249 236.496C203.482 236.74 203.784 236.909 204.114 236.98C204.444 237.051 204.788 237.021 205.101 236.894C205.415 236.768 205.683 236.55 205.871 236.269C206.059 235.988 206.158 235.658 206.156 235.32C206.163 234.886 205.999 234.468 205.699 234.154C205.4 233.841 204.989 233.658 204.556 233.645Z" fill="#62A9F0"/>
<path d="M222.084 224.155C221.638 224.135 221.197 224.249 220.817 224.482C220.437 224.715 220.135 225.056 219.951 225.462C219.766 225.868 219.708 226.32 219.782 226.76C219.857 227.199 220.062 227.606 220.37 227.929C220.678 228.251 221.075 228.474 221.511 228.568C221.947 228.663 222.401 228.625 222.815 228.459C223.228 228.293 223.583 228.008 223.833 227.638C224.084 227.269 224.217 226.834 224.218 226.388C224.224 226.101 224.174 225.816 224.071 225.548C223.967 225.281 223.812 225.037 223.613 224.829C223.415 224.622 223.178 224.455 222.916 224.34C222.653 224.224 222.37 224.161 222.084 224.155ZM193.856 240.086C193.519 240.071 193.185 240.158 192.897 240.335C192.61 240.511 192.382 240.77 192.243 241.078C192.104 241.385 192.061 241.727 192.118 242.06C192.176 242.392 192.332 242.7 192.566 242.943C192.8 243.186 193.101 243.353 193.431 243.423C193.761 243.493 194.105 243.462 194.417 243.335C194.73 243.208 194.997 242.99 195.184 242.71C195.372 242.429 195.471 242.099 195.469 241.761C195.475 241.326 195.309 240.905 195.007 240.591C194.705 240.278 194.291 240.096 193.856 240.086Z" fill="white"/>
<path d="M199.145 240.086C198.808 240.071 198.474 240.157 198.186 240.334C197.899 240.511 197.671 240.769 197.532 241.077C197.394 241.384 197.35 241.726 197.407 242.059C197.465 242.391 197.621 242.699 197.855 242.942C198.089 243.185 198.39 243.352 198.72 243.422C199.05 243.492 199.394 243.462 199.706 243.334C200.019 243.207 200.286 242.989 200.473 242.709C200.661 242.428 200.76 242.098 200.758 241.761C200.764 241.325 200.599 240.905 200.296 240.591C199.994 240.277 199.58 240.095 199.145 240.086Z" fill="#62A9F0"/>
<path d="M204.556 240.086C204.218 240.069 203.883 240.153 203.594 240.328C203.305 240.503 203.076 240.761 202.935 241.068C202.794 241.375 202.749 241.718 202.805 242.051C202.861 242.384 203.015 242.693 203.249 242.937C203.482 243.182 203.784 243.35 204.114 243.421C204.444 243.492 204.788 243.463 205.101 243.336C205.415 243.209 205.683 242.991 205.871 242.711C206.059 242.43 206.158 242.099 206.156 241.761C206.163 241.328 205.999 240.909 205.699 240.596C205.4 240.282 204.989 240.099 204.556 240.086Z" fill="white"/>
<path d="M192.242 116.266H157.438V145.983H192.242V116.266Z" fill="#021B79"/>
<path d="M234.335 116.266H191.453V145.983H234.335V116.266Z" fill="#AAB6C2"/>
<path d="M91.1972 106.774C85.8742 106.663 88.5419 106.961 84.0874 110.323C84.0874 110.323 83.0576 126.602 88.4054 131.181C95.3166 137.087 117.192 133.935 117.192 133.935L117.576 127.545L97.4136 123.823L91.1972 106.774Z" fill="#A5CFFA"/>
<path d="M126.645 127.658C126.136 127.347 125.044 127.546 124.226 127.41C121.285 126.888 118.493 126.603 116.694 127.323C114.609 128.166 114.932 129.916 115.131 132.286C115.279 134.159 118.53 135.413 120.094 135.45C121.657 135.487 121.483 130.487 122.96 129.879C124.436 129.271 127.923 128.415 126.645 127.658Z" fill="#A5CFFA"/>
<path d="M127.753 130.001C126.906 129.545 126 129.207 125.06 128.996C124.307 128.734 123.523 128.567 122.728 128.5C121.388 128.624 120.246 130.671 119.973 131.801C119.832 132.163 119.788 132.556 119.844 132.941C119.901 133.326 120.056 133.69 120.296 133.997C120.978 134.704 122.145 134.493 123.088 134.22L126.984 133.153C127.42 133.051 127.838 132.883 128.224 132.657C128.418 132.539 128.581 132.378 128.702 132.186C128.822 131.995 128.897 131.778 128.919 131.552C128.969 130.882 128.423 130.361 127.753 130.001Z" fill="#A5CFFA"/>
<path d="M91.0939 256.104C90.0941 255.93 89.0812 255.842 88.0664 255.843C85.1257 255.694 83.0288 253.361 80.299 252.406C77.5693 251.451 84.9644 243.485 84.1331 241.065C80.1998 240.929 76.9365 237.157 76.6883 238.584C73.4747 253.473 69.0202 252.158 69.0078 256.327C69.0078 258.225 70.9062 258.585 71.9237 258.56C79.7903 258.362 84.3316 258.56 90.7465 258.56C91.0694 258.6 91.3951 258.512 91.6534 258.314C91.9117 258.116 92.0819 257.825 92.1275 257.503C92.1731 257.181 92.0903 256.853 91.8969 256.592C91.7036 256.33 91.4152 256.155 91.0939 256.104Z" fill="white"/>
<path d="M91.1991 255.943C90.2854 255.782 89.3598 255.699 88.4321 255.694H88.1344C86.4474 255.485 84.8417 254.848 83.469 253.846C82.503 253.222 81.4762 252.698 80.4042 252.282C80.3037 252.255 80.2115 252.203 80.1358 252.132C80.06 252.06 80.0031 251.971 79.9699 251.873C79.6225 250.93 80.8881 248.783 82.1041 246.711C83.4566 244.391 84.747 242.207 84.3375 241.041C84.3314 241.007 84.3127 240.976 84.2851 240.955C84.2574 240.935 84.223 240.925 84.1886 240.929C82.2472 240.714 80.3911 240.015 78.7912 238.894C77.811 238.323 77.1658 237.939 76.7687 238.112C76.6929 238.153 76.6269 238.209 76.5755 238.278C76.524 238.346 76.4883 238.425 76.4709 238.509C74.498 247.642 72.0785 250.62 70.4655 252.58C69.4369 253.551 68.8346 254.889 68.7904 256.302C68.78 256.597 68.8308 256.89 68.9398 257.163C69.0487 257.436 69.2133 257.684 69.4232 257.891C70.1227 258.456 71.0065 258.743 71.9048 258.697C77.9102 258.548 82.0545 258.598 86.4345 258.697H90.7152C91.0607 258.699 91.3949 258.574 91.6537 258.345C91.9125 258.116 92.0776 257.8 92.1173 257.456C92.1745 257.135 92.1128 256.805 91.9438 256.526C91.7748 256.248 91.51 256.04 91.1991 255.943ZM91.7947 257.431C91.7639 257.695 91.6364 257.937 91.4369 258.111C91.2373 258.286 90.9801 258.379 90.7152 258.375H86.4345C82.0545 258.375 77.9102 258.263 71.8924 258.375C71.089 258.43 70.2947 258.177 69.6714 257.667C69.4939 257.489 69.3558 257.275 69.266 257.04C69.1763 256.805 69.1368 256.554 69.1502 256.302C69.1852 254.99 69.7384 253.746 70.6888 252.841C72.3143 250.843 74.7586 247.877 76.7563 238.633C76.7563 238.497 76.8431 238.472 76.8556 238.472C77.0913 238.361 77.8234 238.782 78.5927 239.229C80.1976 240.331 82.045 241.029 83.9777 241.264C84.2135 242.331 82.9478 244.478 81.7319 246.55C80.5159 248.622 79.1758 250.917 79.5729 251.997C79.626 252.141 79.7119 252.271 79.8238 252.377C79.9358 252.482 80.0708 252.56 80.2181 252.605C81.2629 252.993 82.265 253.488 83.2084 254.081C84.6364 255.102 86.2944 255.754 88.0351 255.98H88.3329C89.231 255.989 90.1271 256.068 91.013 256.216C91.2694 256.283 91.4893 256.448 91.6261 256.675C91.7628 256.902 91.8055 257.173 91.7451 257.431H91.7947Z" fill="#021B79"/>
<path d="M91.5702 255.955C90.2014 255.262 88.6872 254.905 87.1529 254.913C85.5753 254.581 84.0705 253.968 82.7109 253.101C82.5693 253.026 82.4038 253.01 82.2504 253.057C82.097 253.103 81.9682 253.208 81.892 253.349C81.2536 254.182 80.3132 254.73 79.2739 254.876C76.7055 255.558 71.4693 253.697 70.1417 253.188C70.0492 253.154 69.9479 253.151 69.8536 253.18C69.7594 253.209 69.6774 253.269 69.6206 253.349C69.0415 254.106 68.6197 254.971 68.3798 255.893C68.2915 256.683 68.4113 257.483 68.7272 258.213C68.7933 258.377 68.9064 258.517 69.0521 258.616C69.1978 258.716 69.3697 258.77 69.5461 258.772H91.26C91.3995 258.772 91.5377 258.744 91.6665 258.69C91.7952 258.636 91.9121 258.558 92.0102 258.458C92.1083 258.359 92.1857 258.241 92.238 258.112C92.2902 257.983 92.3163 257.844 92.3146 257.705C92.3516 257.374 92.3024 257.039 92.172 256.732C92.0416 256.426 91.8343 256.158 91.5702 255.955ZM78.3185 112.048L80.0308 116.279C84.6838 115.808 89.5601 116.465 94.4612 115.721L89.498 102.928C84.6714 100.583 83.7532 110.882 78.3185 112.048Z" fill="#021B79"/>
<path d="M63.2493 253.51C60.321 252.121 61.8968 243.46 61.2764 240.705C58.3481 240.569 54.4396 241.214 54.6878 242.802C56.276 252.542 55.7921 252.133 53.8441 255.061C52.6033 256.86 52.6033 258.995 55.7301 258.709C58.393 258.511 61.0648 258.462 63.7332 258.56C65.6564 258.573 69.2299 256.352 63.2493 253.51Z" fill="white"/>
<path d="M63.3289 253.362C61.4429 252.469 61.5173 248.213 61.5794 244.788C61.6684 243.414 61.6227 242.034 61.4429 240.669C61.4324 240.634 61.4112 240.603 61.3823 240.581C61.3533 240.558 61.3181 240.546 61.2816 240.545C58.8 240.433 55.76 240.867 54.8294 241.91C54.712 242.029 54.6239 242.174 54.5722 242.333C54.5205 242.493 54.5066 242.662 54.5317 242.828C55.971 251.687 55.698 252.084 54.1842 254.293C54.0353 254.491 53.874 254.727 53.7127 254.975C53.3528 255.389 53.1118 255.892 53.0157 256.432C52.9195 256.972 52.9717 257.527 53.1668 258.04C53.3984 258.351 53.7094 258.595 54.0673 258.746C54.4252 258.896 54.8169 258.948 55.2017 258.896C55.3835 258.908 55.5658 258.908 55.7476 258.896C57.9138 258.712 60.0891 258.658 62.2618 258.735H63.7507C64.793 258.735 66.4309 258.102 66.6914 256.935C66.8775 256.117 66.4433 254.851 63.3289 253.362ZM66.3812 256.849C66.1579 257.816 64.7061 258.4 63.7631 258.4H62.2742H60.1152C58.7752 258.4 57.3482 258.4 55.7228 258.586C54.5689 258.685 53.7872 258.462 53.4522 257.903C53.2945 257.443 53.2609 256.95 53.3545 256.473C53.4482 255.996 53.6659 255.552 53.9857 255.186L54.4448 254.504C56.033 252.208 56.3184 251.799 54.8543 242.815C54.8377 242.699 54.8481 242.58 54.8847 242.468C54.9213 242.356 54.983 242.254 55.0652 242.17C55.9089 241.227 58.7876 240.805 61.1451 240.929C61.299 242.234 61.3364 243.551 61.2567 244.863C61.2567 248.374 61.1078 252.754 63.18 253.734C65.463 254.739 66.5922 255.881 66.3812 256.849ZM90.7504 155.947C89.3111 154.88 86.6558 143.676 85.2413 142.559C82.1269 140.078 70.3518 140.152 66.6294 141.194C68.168 184.622 72.0889 183.629 79.8934 202.13C81.3079 205.467 72.4487 235.693 73.491 246.674C75.8733 247.195 78.9877 248.411 81.978 248.821C85.7004 244.093 96.8675 220.431 98.3192 203.42C98.3875 202.677 98.3875 201.93 98.3192 201.187C96.6566 182.265 96.4953 178.555 90.7504 155.947Z" fill="#021B79"/>
<path d="M55.9973 137.956C50.8852 157.014 47.6592 225.581 53.1807 246.711C58.268 247.158 58.4541 246.997 63.5413 247.431C64.0252 237.802 65.2908 222.02 70.465 205.765C70.6931 205.053 70.8592 204.322 70.9613 203.581C73.5049 184.759 78.5053 181.805 82.2277 157.461C81.0613 156.096 72.3634 144.904 71.2342 143.502C68.7527 140.4 59.819 137.757 55.9973 137.956Z" fill="#021B79"/>
<path d="M90.2899 124.927C90.2031 123.773 90.1038 122.632 90.0046 121.515C90.0046 121.341 90.0046 121.217 90.0046 121.143C90.0046 120.733 89.9177 120.299 89.8805 119.902C89.7192 118.153 89.5579 116.477 89.3966 114.939C89.3966 114.529 89.3097 114.132 89.2725 113.698C89.0797 111.366 88.7147 109.052 88.1806 106.774C87.2996 104.194 86.0092 95.1358 81.2942 92.3565L81.1329 92.2696L81.0336 92.2076C80.2891 91.7857 79.5819 91.401 78.9367 91.0908L78.7878 90.9171C75.8223 89.4406 73.4028 88.4355 73.4028 88.4355C73.4028 88.4355 70.9212 89.2048 67.8192 90.4208L66.3799 91.0288L65.9952 91.2025C61.4663 93.1506 56.4783 95.9175 56.3543 98.7217L52.2969 158.441C52.2969 158.441 59.6051 155.848 73.3903 158.032C78.2791 158.801 93.243 157.635 93.243 157.635C93.243 157.635 91.1957 136.082 90.3023 125.039C90.3118 125.021 90.3157 125.001 90.3135 124.981C90.3113 124.961 90.303 124.942 90.2899 124.927Z" fill="#7FA0C1"/>
<path d="M76.3118 89.7753L76.0388 87.4178L75.7286 84.7129H69.7108L69.4874 87.331L69.2641 89.9118L67.7875 90.4702L66.3854 91.0285C66.311 91.3511 67.7999 94.0188 73.5944 93.7334C77.4533 93.5473 78.9547 91.3263 78.8554 90.9913L78.7934 90.9169C77.8876 90.4826 77.0811 90.1103 76.3118 89.7753Z" fill="white"/>
<path d="M78.9654 90.8292L78.7916 90.7671L76.4714 89.6628L75.8882 84.6997C75.8826 84.6601 75.8634 84.6236 75.834 84.5965C75.8046 84.5694 75.7668 84.5532 75.7269 84.5508H69.709C69.6683 84.5507 69.6291 84.5659 69.5992 84.5936C69.5692 84.6212 69.5509 84.6591 69.5477 84.6997L69.1011 89.7869L67.7238 90.2956L67.4136 90.4197L66.3713 90.854C66.3296 90.8793 66.2987 90.919 66.2845 90.9657C66.2224 91.1642 66.4333 91.5116 66.6443 91.7722C67.1778 92.4298 68.8033 93.8939 72.7862 93.8939H73.6424C74.6134 93.9074 75.5759 93.7115 76.4644 93.3197C77.353 92.9279 78.1467 92.3493 78.7916 91.6233C78.9157 91.4496 79.1018 91.1394 79.0522 90.9409C79.0464 90.9172 79.0356 90.895 79.0207 90.8758C79.0057 90.8565 78.9869 90.8407 78.9654 90.8292ZM73.6299 93.5713C69.709 93.7575 67.8851 92.5911 67.153 91.8839C66.9202 91.6801 66.7377 91.4253 66.6195 91.1394L67.5252 90.7547L67.8479 90.6183L69.312 90.0599C69.3411 90.0492 69.3668 90.0309 69.3864 90.0069C69.4061 89.9829 69.4189 89.9541 69.4237 89.9234L69.8579 84.8734H75.6152L76.186 89.8366C76.1931 89.863 76.2056 89.8876 76.2227 89.909C76.2397 89.9303 76.261 89.9479 76.2852 89.9606C77.1414 90.3453 77.9231 90.7175 78.6924 91.1022C78.6055 91.5364 77.1414 93.3976 73.6299 93.5713Z" fill="#021B79"/>
<path d="M69.7003 84.713L69.477 87.3311C70.2249 87.6492 71.0352 87.7934 71.8469 87.753C73.3328 87.6741 74.7546 87.1219 75.9043 86.1772L75.7554 84.713H69.7003ZM72.9388 65.5428C71.4893 65.6323 70.0976 66.1439 68.9352 67.0145C67.7728 67.885 66.8903 69.0765 66.3966 70.4423C65.9028 71.8081 65.8193 73.2884 66.1564 74.7011C66.4934 76.1137 67.2362 77.3969 68.2934 78.3926C69.3505 79.3884 70.6759 80.0532 72.1061 80.3052C73.5363 80.5572 75.0091 80.3854 76.3429 79.8109C77.6767 79.2364 78.8133 78.2843 79.6129 77.0719C80.4124 75.8596 80.8399 74.4398 80.8426 72.9875C80.8137 71.9793 80.5862 70.9867 80.1731 70.0666C79.7601 69.1465 79.1695 68.3169 78.4353 67.6253C77.7011 66.9338 76.8377 66.3938 75.8945 66.0365C74.9513 65.6791 73.9469 65.5114 72.9388 65.5428Z" fill="#021B79"/>
<path d="M72.8464 67.3184C68.6277 67.3184 65.2031 71.7232 65.2031 77.1702C65.2031 82.6173 68.6277 87.0097 72.8464 87.0097C77.0651 87.0097 80.4773 82.6049 80.4773 77.1702C80.4773 71.7356 77.0651 67.3184 72.8464 67.3184Z" fill="white"/>
<path d="M72.8515 67.1562C68.5459 67.1562 65.0469 71.6479 65.0469 77.1694C65.0469 82.691 68.5459 87.1702 72.8515 87.1702C77.157 87.1702 80.656 82.6786 80.656 77.1694C80.656 71.6603 77.157 67.1562 72.8515 67.1562ZM72.8515 86.8476C68.732 86.8476 65.4067 82.5049 65.4067 77.1694C65.4067 71.834 68.7568 67.4789 72.8515 67.4789C76.9461 67.4789 80.2962 71.8216 80.2962 77.1694C80.2962 82.5173 76.9709 86.8476 72.8515 86.8476Z" fill="#021B79"/>
<path d="M81.7765 73.6934C81.1533 73.7434 80.572 74.0267 80.1487 74.4868C79.7255 74.9469 79.4914 75.5498 79.4934 76.1749C79.3818 77.6639 79.2825 79.7608 80.4365 79.8973C81.5904 80.0338 83.5633 78.0113 83.6749 76.5224C83.7793 75.8976 83.6408 75.2566 83.2879 74.7306C82.9349 74.2046 82.3942 73.8336 81.7765 73.6934Z" fill="white"/>
<path d="M81.8 73.5215C81.1176 73.5661 80.4788 73.8722 80.0165 74.3761C79.5542 74.8799 79.3042 75.5427 79.3184 76.2264C79.2376 77.0226 79.2376 77.8249 79.3184 78.6211C79.4549 79.5393 79.8271 80.0232 80.4103 80.0729H80.4972C81.7379 80.0729 83.7108 78.0504 83.8225 76.549C83.8824 75.827 83.7084 75.1048 83.3262 74.4893C83.1594 74.225 82.9359 74.001 82.672 73.8337C82.408 73.6663 82.1102 73.5597 81.8 73.5215ZM80.5592 79.7254C80.1373 79.7254 79.8768 79.316 79.7651 78.5591C79.6782 77.7881 79.6782 77.0098 79.7651 76.2388C79.7435 75.6621 79.9354 75.0976 80.3039 74.6535C80.6725 74.2094 81.1919 73.9168 81.7628 73.8317H81.8744C82.1292 73.867 82.3729 73.9589 82.5876 74.1006C82.8023 74.2423 82.9826 74.4302 83.1152 74.6506C83.4622 75.2015 83.6191 75.8509 83.5619 76.4994C83.4072 77.2702 83.0409 77.9826 82.5039 78.5568C81.967 79.131 81.2807 79.5443 80.522 79.7503L80.5592 79.7254Z" fill="#021B79"/>
<path d="M82.5176 74.4383C81.7111 74.5376 80.8053 74.9842 80.185 77.5651C80.173 77.6193 80.1816 77.6759 80.2091 77.7241C80.2366 77.7723 80.2811 77.8085 80.3338 77.8257H80.4083C80.4493 77.8241 80.4892 77.8118 80.524 77.79C80.5589 77.7682 80.5874 77.7378 80.6068 77.7016C80.6995 77.5018 80.7742 77.2942 80.8302 77.0812C80.9294 76.7338 81.0287 76.4236 81.2644 76.2995C81.5795 76.1757 81.9296 76.1757 82.2447 76.2995C82.3022 76.3155 82.3637 76.309 82.4167 76.2813C82.4697 76.2537 82.5102 76.207 82.5301 76.1506C82.5426 76.0948 82.5344 76.0363 82.507 75.9861C82.4796 75.9359 82.4349 75.8973 82.3812 75.8776C82.0286 75.7461 81.6472 75.7118 81.2768 75.7784C81.3881 75.5298 81.5601 75.3132 81.7769 75.1485C81.9937 74.9837 82.2484 74.876 82.5176 74.8354C82.5769 74.8354 82.6337 74.8118 82.6756 74.7699C82.7175 74.7281 82.741 74.6712 82.741 74.612C82.741 74.5528 82.7175 74.496 82.6756 74.4541C82.6337 74.4122 82.5769 74.3887 82.5176 74.3887V74.4383Z" fill="#021B79"/>
<path d="M63.9656 73.6945C63.3454 73.8347 62.8027 74.2077 62.4494 74.7364C62.0962 75.2651 61.9594 75.9093 62.0672 76.5359C62.1665 78.0249 64.1393 79.9853 65.2933 79.9109C66.4472 79.8364 66.3604 77.7271 66.2487 76.1885C66.137 74.6499 65.1444 73.6076 63.9656 73.6945Z" fill="white"/>
<path d="M64.0753 73.5215H63.9016C63.2338 73.6625 62.6464 74.0564 62.2624 74.6207C61.8785 75.1851 61.7278 75.8761 61.8419 76.549C61.9535 78.0504 63.8768 80.0729 65.1672 80.0729H65.254C65.8496 80.0729 66.2219 79.5393 66.3583 78.6211C66.4453 77.8253 66.4453 77.0223 66.3583 76.2264C66.3742 75.5744 66.1507 74.9392 65.7301 74.4408C65.3094 73.9424 64.7207 73.6153 64.0753 73.5215ZM66.0854 78.5715C65.9737 79.3284 65.7131 79.713 65.2789 79.7378C64.5289 79.5304 63.8513 79.1191 63.3212 78.5496C62.7911 77.98 62.4293 77.2746 62.2761 76.5118C62.165 75.9271 62.2853 75.3221 62.6117 74.8243C62.9381 74.3266 63.4451 73.9752 64.0257 73.8441H64.1249C64.6969 73.929 65.2176 74.2211 65.5883 74.665C65.9589 75.1088 66.1534 75.6733 66.135 76.2512C66.193 77.0245 66.1764 77.8015 66.0854 78.5715Z" fill="#021B79"/>
<path d="M63.2184 74.439C63.1891 74.4356 63.1593 74.438 63.1309 74.4461C63.1025 74.4543 63.076 74.468 63.0529 74.4864C63.0298 74.5049 63.0106 74.5278 62.9964 74.5537C62.9822 74.5796 62.9734 74.6081 62.9703 74.6375C62.9668 74.6669 62.9692 74.6967 62.9774 74.7251C62.9855 74.7535 62.9992 74.78 63.0177 74.8031C63.0362 74.8262 63.059 74.8454 63.085 74.8596C63.1109 74.8737 63.1394 74.8826 63.1688 74.8857C63.4384 74.9253 63.6937 75.0325 63.9106 75.1974C64.1276 75.3623 64.2993 75.5795 64.4096 75.8287C64.0433 75.7625 63.666 75.7968 63.3177 75.928C63.2852 75.9315 63.254 75.9422 63.2261 75.9591C63.1982 75.9761 63.1743 75.999 63.1562 76.0262C63.1381 76.0533 63.1262 76.0841 63.1213 76.1164C63.1164 76.1487 63.1186 76.1817 63.1278 76.213C63.137 76.2443 63.153 76.2732 63.1746 76.2977C63.1962 76.3222 63.2229 76.3417 63.2529 76.3547C63.2828 76.3678 63.3152 76.3741 63.3479 76.3732C63.3805 76.3724 63.4126 76.3644 63.4418 76.3498C63.7612 76.2265 64.115 76.2265 64.4344 76.3498C64.6702 76.4739 64.757 76.7841 64.8687 77.1315C64.9246 77.3445 64.9994 77.5522 65.092 77.7519C65.1104 77.789 65.1387 77.8202 65.1737 77.8421C65.2088 77.864 65.2492 77.8757 65.2906 77.876H65.365C65.4172 77.8589 65.4607 77.8221 65.4862 77.7734C65.5116 77.7248 65.5171 77.6681 65.5015 77.6154C64.9307 74.985 64.0249 74.5383 63.2184 74.439ZM74.6709 79.1292C74.3348 79.3239 73.955 79.4306 73.5666 79.4394C73.4859 79.4651 73.3992 79.4651 73.3185 79.4394C73.2192 79.365 73.2192 79.154 73.2316 78.9679L73.4426 76.2878C73.4461 76.2272 73.4261 76.1677 73.3868 76.1214C73.3475 76.0752 73.292 76.0459 73.2316 76.0396C73.2019 76.0361 73.1718 76.039 73.1433 76.048C73.1147 76.057 73.0885 76.072 73.0662 76.0919C73.0439 76.1119 73.0261 76.1363 73.0139 76.1637C73.0018 76.191 72.9957 76.2207 72.9959 76.2506L72.7973 78.9431C72.7634 79.0991 72.7707 79.2613 72.8186 79.4136C72.8665 79.5659 72.9532 79.7031 73.0703 79.8117C73.2119 79.8985 73.3759 79.9417 73.5418 79.9357C74.0084 79.9236 74.4646 79.7957 74.8695 79.5635C74.9205 79.5322 74.957 79.482 74.9709 79.4238C74.9849 79.3656 74.9752 79.3043 74.9439 79.2533C74.9127 79.2023 74.8624 79.1658 74.8042 79.1518C74.7461 79.1379 74.6847 79.1476 74.6337 79.1788L74.6709 79.1292ZM74.7702 82.5662C73.9541 82.742 73.1059 82.6979 72.3124 82.4385C71.5188 82.1791 70.8084 81.7136 70.2537 81.0897C70.2329 81.0679 70.2078 81.0506 70.1801 81.0387C70.1524 81.0269 70.1226 81.0208 70.0924 81.0208C70.0623 81.0208 70.0324 81.0269 70.0047 81.0387C69.977 81.0506 69.952 81.0679 69.9311 81.0897C69.8936 81.1326 69.8729 81.1877 69.8729 81.2448C69.8729 81.3018 69.8936 81.3569 69.9311 81.3999C70.4245 81.9421 71.0262 82.3747 71.6974 82.6697C72.3685 82.9646 73.0941 83.1154 73.8272 83.1122C74.1858 83.1125 74.5435 83.075 74.8943 83.0005C74.9516 82.9885 75.002 82.9545 75.0345 82.9058C75.067 82.857 75.079 82.7975 75.068 82.7399C75.0627 82.7074 75.0503 82.6764 75.0316 82.6493C75.013 82.6221 74.9885 82.5994 74.9601 82.5828C74.9316 82.5662 74.8998 82.5561 74.867 82.5532C74.8342 82.5504 74.8011 82.5548 74.7702 82.5662ZM72.909 83.5588C72.5022 83.6294 72.0835 83.576 71.7074 83.4056C71.3312 83.2353 71.015 82.9558 70.7997 82.6034C70.7867 82.5773 70.7685 82.5542 70.7461 82.5355C70.7238 82.5168 70.6978 82.5029 70.6698 82.4948C70.6418 82.4866 70.6125 82.4843 70.5836 82.4881C70.5547 82.4918 70.5268 82.5015 70.5019 82.5166C70.4517 82.5453 70.4145 82.5924 70.3983 82.6479C70.3821 82.7035 70.3881 82.7632 70.415 82.8144C70.6299 83.2018 70.9446 83.5247 71.3265 83.7495C71.7083 83.9742 72.1433 84.0926 72.5864 84.0924C72.7347 84.1107 72.8848 84.1107 73.0331 84.0924C73.0623 84.0881 73.0903 84.0777 73.1152 84.0619C73.1401 84.0461 73.1615 84.0253 73.1779 84.0007C73.1942 83.9762 73.2053 83.9484 73.2103 83.9193C73.2152 83.8902 73.2141 83.8604 73.2068 83.8318C73.2149 83.792 73.2125 83.7507 73.2 83.7121C73.1874 83.6734 73.165 83.6386 73.1351 83.6112C73.1051 83.5837 73.0685 83.5644 73.0289 83.5553C72.9893 83.5461 72.948 83.5473 72.909 83.5588Z" fill="#021B79"/>
<path d="M70.2711 76.5359C70.5589 76.5359 70.7923 76.1471 70.7923 75.6674C70.7923 75.1877 70.5589 74.7988 70.2711 74.7988C69.9833 74.7988 69.75 75.1877 69.75 75.6674C69.75 76.1471 69.9833 76.5359 70.2711 76.5359Z" fill="#021B79"/>
<path d="M77.0208 74.8107C76.7354 74.8107 76.4997 75.1953 76.4997 75.6668C76.4997 76.1383 76.7354 76.5354 77.0208 76.5354C77.3062 76.5354 77.5419 76.1507 77.5419 75.6668C77.5419 75.1829 77.3062 74.8107 77.0208 74.8107ZM70.5811 73.8181C70.1413 73.7609 69.6965 73.8765 69.3403 74.1407C69.1241 74.3265 68.9685 74.5728 68.8936 74.8479C68.8936 74.9968 69.0177 75.1581 69.0921 75.034C69.2141 74.8235 69.3842 74.6449 69.5885 74.5129C69.747 74.4216 69.9237 74.3664 70.1061 74.3514C70.2884 74.3364 70.4718 74.3619 70.6431 74.426C70.7176 74.426 70.7796 74.426 70.7548 74.2647C70.7608 74.1656 70.7608 74.0661 70.7548 73.9669C70.7488 73.9253 70.7279 73.8873 70.6959 73.8599C70.664 73.8325 70.6232 73.8176 70.5811 73.8181ZM76.3012 73.8181C76.268 73.8277 76.2385 73.8471 76.2164 73.8736C76.1943 73.9001 76.1806 73.9326 76.1771 73.9669C76.1771 74.0662 76.1771 74.1655 76.1771 74.2647C76.1771 74.364 76.1771 74.4509 76.2887 74.426C76.4618 74.3599 76.6475 74.3334 76.8321 74.3485C77.0168 74.3635 77.1957 74.4197 77.3558 74.5129C77.5562 74.6457 77.7221 74.8244 77.8397 75.034C77.9142 75.1581 78.0879 75.034 78.0383 74.8479C77.9454 74.5756 77.7724 74.3377 77.5419 74.1655C77.1906 73.8901 76.7444 73.7652 76.3012 73.8181ZM67.6156 68.4082C67.1317 68.4082 65.2829 70.5796 65.2829 72.9247C65.2461 74.0167 65.3167 75.1098 65.4939 76.188C66.1374 75.9106 66.6896 75.4572 67.0869 74.8799C67.4842 74.3026 67.7105 73.6249 67.7397 72.9247C67.7397 70.5796 68.0375 68.4082 67.6156 68.4082ZM78.1251 68.4082C77.6412 68.4082 78.7207 70.5796 78.7207 72.9247C78.6781 73.5533 78.7958 74.1825 79.0627 74.7533C79.3296 75.324 79.7371 75.8177 80.2469 76.188C80.4137 75.1087 80.4801 74.0162 80.4454 72.9247C80.4454 70.5796 78.5966 68.4082 78.1251 68.4082Z" fill="#021B79"/>
<path d="M78.1312 68.8325C76.7796 67.6137 75.0943 66.8273 73.2921 66.5742C73.2112 67.3959 73.3164 68.2253 73.5999 69.0007C73.8835 69.7762 74.3381 70.4778 74.9299 71.0535C76.1707 72.2943 80.8237 73.9197 79.434 70.5572C79.1372 69.8903 78.6915 69.3003 78.1312 68.8325Z" fill="#021B79"/>
<path d="M73.8252 66.3486C73.3004 66.2119 72.7494 66.2119 72.2246 66.3486C70.787 66.5757 69.4323 67.1697 68.2913 68.0733C67.1437 69.0017 66.3937 70.3331 66.1944 71.7956C66.1426 72.024 66.1436 72.2612 66.1973 72.4892C66.2511 72.7171 66.3562 72.9297 66.5046 73.1109C66.9761 73.57 67.7453 73.3715 68.3906 73.1109C69.8101 72.6578 71.1654 72.0239 72.4231 71.2249C73.5399 70.4432 76.4309 67.2295 73.8252 66.3486Z" fill="#021B79"/>
<path d="M81.0119 92.1564C80.9177 92.138 80.8208 92.138 80.7266 92.1564L81.9674 116.563L96.3854 114.714C96.3854 114.714 87.0174 94.7745 81.0119 92.1564Z" fill="#7FA0C1"/>
<path d="M79.2622 92.5553C77.4003 94.0866 75.0907 94.9706 72.6822 95.0735C70.2737 95.1765 67.897 94.4929 65.9113 93.126C65.8696 93.0858 65.814 93.0634 65.7562 93.0634C65.6983 93.0634 65.6427 93.0858 65.6011 93.126C65.585 93.1495 65.5739 93.1759 65.5683 93.2038C65.5628 93.2316 65.5629 93.2603 65.5687 93.2881C65.5745 93.3159 65.5858 93.3423 65.602 93.3656C65.6183 93.3889 65.639 93.4087 65.6631 93.4238C67.5894 94.7535 69.8738 95.4674 72.2145 95.4711H72.6984C75.2055 95.3565 77.6083 94.4338 79.5476 92.8406C79.5878 92.799 79.6102 92.7434 79.6102 92.6855C79.6102 92.6277 79.5878 92.5721 79.5476 92.5304C79.5046 92.5005 79.4525 92.4865 79.4004 92.4911C79.3482 92.4956 79.2993 92.5183 79.2622 92.5553ZM81.5577 247.332L73.5049 245.533C73.0431 245.464 72.5726 245.573 72.1877 245.837C71.8029 246.101 71.5322 246.502 71.4301 246.957C71.328 247.413 71.402 247.89 71.6373 248.293C71.8725 248.696 72.2516 248.996 72.6984 249.131L80.7511 250.93C80.9945 251.004 81.2504 251.026 81.5028 250.997C81.7553 250.967 81.999 250.886 82.2186 250.757C82.4381 250.629 82.629 250.457 82.779 250.252C82.9291 250.047 83.0353 249.813 83.0909 249.565C83.1465 249.317 83.1504 249.06 83.1022 248.81C83.054 248.561 82.9549 248.324 82.811 248.114C82.6671 247.905 82.4816 247.727 82.2659 247.592C82.0502 247.458 81.8091 247.369 81.5577 247.332ZM62.2633 245.111L54.0245 245.483C53.5309 245.504 53.066 245.721 52.732 246.085C52.3981 246.449 52.2225 246.931 52.2439 247.425C52.2653 247.918 52.4819 248.383 52.8461 248.717C53.2103 249.051 53.6922 249.227 54.1858 249.205L62.437 248.833C62.9254 248.807 63.3836 248.589 63.7115 248.227C64.0394 247.864 64.2102 247.386 64.1866 246.897C64.1819 246.652 64.128 246.411 64.028 246.187C63.9279 245.964 63.7839 245.762 63.6044 245.596C63.4249 245.429 63.2136 245.3 62.9832 245.217C62.7528 245.133 62.508 245.097 62.2633 245.111Z" fill="#021B79"/>
<path d="M129.092 97.1586L78.0205 119.94L67.3125 151.753L88.3439 147.808L160.446 121.081L150.123 93.2129L129.092 97.1586Z" fill="#021B79"/>
<path d="M129.097 97.154L57 123.881L67.3293 151.745L139.427 125.018L129.097 97.154Z" fill="#AAB6C2"/>
<path d="M56.5938 123.699L67.1405 152.151L139.826 125.213L129.279 96.7617L56.5938 123.699ZM67.5003 151.357L57.3879 124.059L128.907 97.5558L139.02 124.853L67.5003 151.357Z" fill="#021B79"/>
<path d="M87.6737 116.59C87.6241 116.451 87.5471 116.323 87.4473 116.215C87.3475 116.106 87.227 116.019 87.0928 115.957C86.9587 115.896 86.8136 115.862 86.6662 115.858C86.5187 115.854 86.3719 115.879 86.2344 115.932L62.498 124.729C62.3592 124.779 62.2316 124.856 62.123 124.956C62.0144 125.056 61.9268 125.176 61.8655 125.31C61.8042 125.444 61.7704 125.59 61.7661 125.737C61.7618 125.884 61.7871 126.031 61.8404 126.169L69.5085 146.865C69.5584 147.004 69.6353 147.132 69.7348 147.241C69.8344 147.35 69.9545 147.438 70.0884 147.501C70.2222 147.563 70.3671 147.598 70.5146 147.604C70.6622 147.61 70.8094 147.587 70.9478 147.535L94.6842 138.688C94.9635 138.583 95.1896 138.37 95.3129 138.098C95.4361 137.826 95.4465 137.516 95.3418 137.237L87.6737 116.59Z" fill="#021B79"/>
<path d="M126.007 101.19L123.525 102.084C123.427 102.12 123.347 102.194 123.302 102.289C123.258 102.385 123.254 102.494 123.29 102.592L131.467 124.666C131.484 124.715 131.512 124.759 131.547 124.797C131.583 124.835 131.626 124.865 131.673 124.886C131.721 124.907 131.772 124.918 131.824 124.919C131.876 124.919 131.927 124.909 131.975 124.889L134.457 123.996C134.553 123.957 134.632 123.883 134.675 123.788C134.719 123.694 134.725 123.586 134.693 123.487L126.516 101.463C126.502 101.411 126.477 101.362 126.443 101.32C126.41 101.278 126.368 101.243 126.32 101.217C126.273 101.192 126.22 101.176 126.166 101.171C126.113 101.167 126.058 101.173 126.007 101.19Z" fill="#62A9F0"/>
<path d="M84.1981 119.269L66.549 125.812C65.5209 126.193 64.9965 127.335 65.3776 128.363L65.5803 128.91C65.9614 129.938 67.1037 130.463 68.1318 130.082L85.781 123.539C86.809 123.158 87.3335 122.016 86.9524 120.987L86.7497 120.441C86.3686 119.413 85.2262 118.888 84.1981 119.269Z" fill="white"/>
<path d="M84.1981 119.269L66.549 125.812C65.5209 126.193 64.9965 127.335 65.3776 128.363L65.5803 128.91C65.9614 129.938 67.1037 130.463 68.1318 130.082L85.781 123.539C86.809 123.158 87.3335 122.016 86.9524 120.987L86.7497 120.441C86.3686 119.413 85.2262 118.888 84.1981 119.269Z" fill="white"/>
<path d="M82.0392 121.678L69.6953 126.254L70.2517 127.755L82.5956 123.179L82.0392 121.678Z" fill="#021B79"/>
<path d="M100.424 112.797L90.9297 116.314L92.7446 121.213L102.239 117.695L100.424 112.797Z" fill="#021B79"/>
<path d="M114.134 107.71L104.641 111.23L106.457 116.128L115.95 112.607L114.134 107.71Z" fill="#021B79"/>
<path d="M123.739 113.247L109.789 118.416L111.604 123.314L125.554 118.146L123.739 113.247Z" fill="#021B79"/>
<path d="M123.263 115.165L111.445 119.555L112.115 121.358L123.932 116.967L123.263 115.165Z" fill="white"/>
<path d="M126.536 120.736L112.586 125.904L114.401 130.803L128.351 125.634L126.536 120.736Z" fill="#021B79"/>
<path d="M126.04 122.665L114.219 127.045L114.887 128.848L126.708 124.469L126.04 122.665Z" fill="white"/>
<path d="M86.7919 126.261L69.1427 132.804C68.1147 133.185 67.5902 134.328 67.9713 135.356L68.174 135.902C68.5551 136.93 69.6975 137.455 70.7256 137.074L88.3747 130.531C89.4028 130.15 89.9272 129.008 89.5461 127.98L89.3434 127.433C88.9623 126.405 87.82 125.88 86.7919 126.261Z" fill="white"/>
<path d="M89.37 133.226L71.7209 139.769C70.6928 140.15 70.1683 141.292 70.5494 142.32L70.7521 142.867C71.1332 143.895 72.2756 144.42 73.3037 144.039L90.9528 137.496C91.9809 137.115 92.5054 135.973 92.1242 134.945L91.9215 134.398C91.5404 133.37 90.3981 132.845 89.37 133.226Z" fill="white"/>
<path d="M84.6322 128.643L72.2891 133.221L72.8457 134.721L85.1888 130.143L84.6322 128.643Z" fill="#021B79"/>
<path d="M87.229 135.605L74.875 140.189L75.4319 141.69L87.7859 137.105L87.229 135.605Z" fill="#021B79"/>
<path d="M96.1594 124.877C95.8372 124.978 95.5526 125.173 95.3426 125.438C95.1325 125.702 95.0067 126.024 94.9813 126.36C94.956 126.697 95.0322 127.034 95.2002 127.327C95.3683 127.62 95.6204 127.856 95.9239 128.004C96.2274 128.152 96.5683 128.205 96.9027 128.158C97.237 128.11 97.5493 127.963 97.7992 127.736C98.0491 127.509 98.2251 127.212 98.3043 126.883C98.3836 126.555 98.3626 126.211 98.244 125.894C98.1742 125.691 98.0648 125.502 97.9222 125.341C97.7796 125.179 97.6065 125.048 97.4128 124.953C97.2192 124.859 97.0088 124.803 96.7937 124.79C96.5786 124.777 96.3631 124.807 96.1594 124.877Z" fill="#62A9F0"/>
<path d="M101.211 123.016C100.89 123.119 100.607 123.316 100.399 123.581C100.191 123.846 100.067 124.168 100.043 124.504C100.019 124.84 100.097 125.176 100.266 125.467C100.434 125.759 100.687 125.994 100.99 126.141C101.293 126.288 101.634 126.341 101.967 126.293C102.301 126.245 102.612 126.098 102.862 125.871C103.111 125.645 103.287 125.348 103.366 125.021C103.446 124.693 103.425 124.349 103.308 124.034C103.164 123.621 102.863 123.282 102.47 123.091C102.077 122.901 101.624 122.874 101.211 123.016Z" fill="white"/>
<path d="M106.23 121.154C105.907 121.255 105.623 121.451 105.413 121.715C105.203 121.98 105.077 122.301 105.052 122.638C105.026 122.975 105.103 123.311 105.271 123.604C105.439 123.897 105.691 124.133 105.994 124.281C106.298 124.429 106.639 124.483 106.973 124.435C107.307 124.387 107.62 124.24 107.87 124.013C108.119 123.786 108.295 123.489 108.375 123.161C108.454 122.832 108.433 122.488 108.314 122.172C108.244 121.968 108.135 121.78 107.993 121.618C107.85 121.457 107.677 121.325 107.483 121.23C107.29 121.136 107.079 121.081 106.864 121.067C106.649 121.054 106.433 121.084 106.23 121.154Z" fill="#62A9F0"/>
<path d="M119.365 106.166C118.941 106.302 118.567 106.563 118.292 106.913C118.017 107.264 117.853 107.689 117.821 108.134C117.79 108.578 117.892 109.022 118.115 109.408C118.338 109.794 118.671 110.105 119.072 110.3C119.473 110.495 119.923 110.566 120.364 110.503C120.805 110.44 121.218 110.247 121.548 109.947C121.879 109.648 122.112 109.257 122.218 108.824C122.325 108.391 122.299 107.936 122.144 107.518C121.953 106.972 121.553 106.523 121.033 106.27C120.512 106.017 119.913 105.979 119.365 106.166ZM98.4329 130.92C98.1106 131.021 97.8261 131.216 97.616 131.48C97.406 131.745 97.2801 132.066 97.2548 132.403C97.2294 132.74 97.3057 133.076 97.4737 133.369C97.6417 133.662 97.8938 133.898 98.1973 134.046C98.5008 134.194 98.8418 134.248 99.1761 134.2C99.5104 134.153 99.8227 134.006 100.073 133.778C100.323 133.551 100.499 133.254 100.578 132.926C100.657 132.598 100.636 132.253 100.517 131.937C100.374 131.527 100.074 131.191 99.6841 131C99.2939 130.81 98.8443 130.781 98.4329 130.92Z" fill="white"/>
<path d="M103.437 129.059C103.116 129.162 102.834 129.359 102.626 129.624C102.418 129.889 102.294 130.211 102.27 130.547C102.246 130.883 102.324 131.219 102.492 131.51C102.661 131.802 102.913 132.037 103.216 132.184C103.52 132.331 103.86 132.384 104.194 132.336C104.527 132.288 104.839 132.141 105.088 131.914C105.338 131.688 105.513 131.391 105.593 131.064C105.672 130.736 105.652 130.392 105.534 130.077C105.391 129.664 105.089 129.325 104.696 129.134C104.303 128.944 103.85 128.917 103.437 129.059Z" fill="#62A9F0"/>
<path d="M108.473 127.199C108.151 127.3 107.866 127.496 107.656 127.76C107.446 128.025 107.321 128.346 107.295 128.683C107.27 129.019 107.346 129.356 107.514 129.649C107.682 129.942 107.934 130.178 108.238 130.326C108.541 130.474 108.882 130.528 109.216 130.48C109.551 130.432 109.863 130.285 110.113 130.058C110.363 129.831 110.539 129.534 110.618 129.206C110.697 128.877 110.676 128.533 110.558 128.217C110.488 128.013 110.379 127.825 110.236 127.663C110.093 127.502 109.92 127.37 109.727 127.275C109.533 127.181 109.323 127.125 109.108 127.112C108.892 127.099 108.677 127.129 108.473 127.199ZM77.379 179.337C77.3263 179.322 77.2696 179.327 77.221 179.353C77.1723 179.378 77.1355 179.422 77.1184 179.474L73.8303 189.152C73.814 189.203 73.8178 189.258 73.8408 189.307C73.8638 189.355 73.9045 189.393 73.9544 189.413C73.9974 189.413 74.0396 189.4 74.075 189.375C74.1105 189.351 74.1377 189.316 74.1529 189.276L77.5527 179.635C77.5667 179.604 77.5732 179.571 77.5715 179.537C77.5698 179.503 77.56 179.47 77.543 179.441C77.526 179.412 77.5022 179.387 77.4737 179.369C77.4451 179.351 77.4126 179.34 77.379 179.337Z" fill="white"/>
<path d="M63.7587 253.534C63.4186 253.455 63.0952 253.316 62.8033 253.125C62.0702 252.719 61.2157 252.592 60.3961 252.765C59.4159 252.926 58.4853 253.36 57.5175 253.608C56.6649 253.869 55.7511 253.847 54.9118 253.546C54.8226 253.499 54.7208 253.481 54.6207 253.494C54.5206 253.507 54.4271 253.552 54.3535 253.621C53.7366 254.242 53.2541 254.983 52.936 255.798C52.6179 256.614 52.4711 257.486 52.5047 258.361C52.5141 258.54 52.5911 258.708 52.72 258.833C52.849 258.957 53.0204 259.028 53.1995 259.031H66.9723C67.0549 259.031 67.1366 259.014 67.2127 258.982C67.2887 258.95 67.3577 258.904 67.4155 258.845C67.4732 258.786 67.5187 258.716 67.5491 258.639C67.5796 258.562 67.5944 258.48 67.5927 258.398C67.5661 257.261 67.1795 256.162 66.4884 255.259C65.7824 254.411 64.8272 253.808 63.7587 253.534Z" fill="#021B79"/>
<path d="M85.2428 128.477C84.856 128.291 84.4312 128.198 84.002 128.204L80.2796 128.093C80.0067 128.093 79.4607 127.993 78.89 127.956C80.1308 127.497 81.0489 126.988 80.2921 126.529C79.7833 126.232 78.6914 126.43 77.8105 126.281C74.8698 125.76 72.0656 125.487 70.2665 126.207L70.1052 126.281L50.8729 122.782L60.7992 108.24C55.4762 108.141 56.5061 99.6661 52.1137 103.029C52.1137 103.029 31.653 125.661 37.0008 130.227C43.2048 135.5 65.1544 133.453 69.8074 132.944C70.8424 133.708 72.0553 134.195 73.3312 134.359C74.3516 134.538 75.3849 134.633 76.4208 134.644C76.9171 134.644 80.2176 134.805 80.3913 134.297C80.4459 134.057 80.4106 133.805 80.2921 133.589C81.4336 133.589 83.27 133.589 83.4064 133.23C83.4359 133.004 83.4028 132.775 83.3109 132.567C83.219 132.359 83.0718 132.181 82.8853 132.051C84.0393 132.051 85.7267 132.051 85.8508 131.679C85.8839 131.435 85.8438 131.187 85.7355 130.966C85.6273 130.745 85.4558 130.561 85.2428 130.438C84.8577 130.247 84.4317 130.153 84.002 130.165H82.7612C83.9152 130.165 85.764 130.165 85.9004 129.805C85.9482 129.542 85.91 129.271 85.7915 129.032C85.6731 128.793 85.4806 128.598 85.2428 128.477Z" fill="white"/>
<path d="M85.3294 128.34C84.9037 128.124 84.4293 128.021 83.9522 128.043L80.2298 127.931C80.0315 127.944 79.8325 127.944 79.6342 127.931H79.4853C80.2794 127.571 80.6269 127.286 80.6641 126.975C80.7013 126.665 80.5648 126.603 80.3042 126.454C79.8541 126.265 79.3632 126.192 78.8773 126.243C78.5307 126.276 78.1817 126.276 77.8351 126.243C75.3535 125.797 72.1647 125.387 70.2042 126.169H70.1422L51.2201 122.732L61.0099 108.388C61.0254 108.364 61.0337 108.336 61.0337 108.308C61.0337 108.279 61.0254 108.251 61.0099 108.227C60.9939 108.202 60.9721 108.181 60.9461 108.165C60.9202 108.15 60.891 108.142 60.861 108.14C58.3794 108.14 57.362 106.217 56.4438 104.554C55.7862 103.388 55.203 102.371 54.26 102.172C53.8508 102.138 53.439 102.191 53.0519 102.328C52.6648 102.465 52.3111 102.683 52.0142 102.966C51.3317 103.711 35.5116 121.28 35.9707 128.328C35.976 128.717 36.0613 129.1 36.2214 129.455C36.3815 129.809 36.613 130.127 36.9013 130.388C43.1053 135.698 65.2162 133.639 69.7699 133.155C70.8239 133.907 72.0469 134.389 73.331 134.557C74.351 134.738 75.3845 134.834 76.4206 134.842H77.9219C80.0685 134.842 80.478 134.619 80.5648 134.371C80.6207 134.176 80.6207 133.97 80.5648 133.775C83.4062 133.775 83.5303 133.452 83.5924 133.291C83.6321 133.104 83.6281 132.911 83.5808 132.726C83.5334 132.541 83.444 132.369 83.3194 132.224H83.431C85.5652 132.224 85.9126 131.988 86.0367 131.74C86.0836 131.461 86.0446 131.173 85.925 130.917C85.8054 130.66 85.6108 130.445 85.3667 130.301L85.2054 130.226C85.9871 130.115 86.0491 129.929 86.0863 129.829C86.1407 129.532 86.0961 129.226 85.9594 128.957C85.8226 128.688 85.6013 128.471 85.3294 128.34ZM85.6893 129.693C85.6893 129.693 85.4287 129.978 82.7238 129.929C82.681 129.929 82.64 129.946 82.6097 129.976C82.5795 130.006 82.5625 130.047 82.5625 130.09C82.5625 130.133 82.5795 130.174 82.6097 130.204C82.64 130.234 82.681 130.251 82.7238 130.251H83.9646C84.3927 130.225 84.8202 130.311 85.2054 130.499C85.3882 130.606 85.5353 130.764 85.6281 130.954C85.7209 131.144 85.7551 131.357 85.7265 131.566C85.7265 131.566 85.4908 131.852 82.9223 131.815C82.888 131.811 82.8535 131.82 82.8259 131.841C82.7983 131.862 82.7795 131.892 82.7734 131.926C82.7552 131.952 82.7455 131.982 82.7455 132.013C82.7455 132.044 82.7552 132.075 82.7734 132.1C82.9364 132.211 83.0656 132.364 83.1466 132.544C83.2276 132.723 83.2574 132.922 83.2325 133.117C83.2325 133.117 82.9719 133.403 80.2794 133.353C80.2518 133.35 80.2239 133.356 80.1995 133.369C80.1752 133.382 80.1554 133.403 80.1429 133.428C80.1274 133.452 80.1192 133.48 80.1192 133.508C80.1192 133.537 80.1274 133.565 80.1429 133.589C80.2441 133.77 80.2751 133.982 80.2298 134.184C80.2298 134.259 79.7831 134.52 76.6315 134.408H76.433C75.4052 134.4 74.3799 134.304 73.3682 134.122C72.1162 133.964 70.925 133.49 69.9064 132.745C69.8891 132.736 69.87 132.732 69.8506 132.732C69.8312 132.732 69.8121 132.736 69.7947 132.745C65.4147 133.217 43.2418 135.314 37.0999 130.065C36.8428 129.833 36.6371 129.55 36.4961 129.234C36.355 128.917 36.2818 128.575 36.2809 128.229C35.8343 121.392 51.7412 103.661 52.2251 103.115C52.4856 102.864 52.7957 102.671 53.1354 102.547C53.4752 102.423 53.8371 102.371 54.198 102.395C55.0045 102.569 55.538 103.512 56.1584 104.616C57.0394 106.205 58.1437 108.153 60.5632 108.339L50.7486 122.658C50.7366 122.681 50.7304 122.706 50.7304 122.732C50.7304 122.758 50.7366 122.783 50.7486 122.806C50.7613 122.831 50.7789 122.852 50.8002 122.869C50.8216 122.886 50.8462 122.899 50.8727 122.906L70.1049 126.405H70.2042C72.115 125.635 75.1674 126.045 77.649 126.479C78.0164 126.511 78.3858 126.511 78.7533 126.479C79.1736 126.446 79.5963 126.501 79.994 126.64C80.0685 126.64 80.1926 126.777 80.1926 126.864C80.1926 126.951 79.9568 127.273 78.6168 127.782C78.589 127.796 78.5654 127.818 78.5481 127.844C78.5307 127.87 78.5202 127.9 78.5175 127.931C78.5178 127.961 78.5259 127.991 78.5412 128.017C78.5564 128.043 78.5782 128.065 78.6044 128.08H78.6788L79.4481 128.154C79.6547 128.167 79.8619 128.167 80.0685 128.154L83.8529 128.278C84.2796 128.253 84.7059 128.334 85.0937 128.514C85.3109 128.615 85.4877 128.786 85.5958 129C85.7038 129.214 85.7367 129.458 85.6893 129.693Z" fill="#021B79"/>
<path d="M52.0684 102.99C52.0684 102.99 47.6511 107.953 43.3828 113.586C46.7454 115.199 50.4677 116.477 53.6193 118.636L60.7539 108.201C55.4929 108.102 56.5228 99.6271 52.0684 102.99Z" fill="#021B79"/>
<path d="M43.0625 112.284L61.2153 121.156L62.94 105.597L57.009 97.0723L43.0625 112.284Z" fill="#7FA0C1"/>
<path d="M131.619 130.35C131.363 130.322 131.105 130.393 130.899 130.548C130.724 130.692 130.57 130.859 130.44 131.044C130.33 130.965 130.203 130.913 130.068 130.895C129.748 130.863 129.426 130.946 129.162 131.131L128.939 131.33C128.791 131.105 128.566 130.941 128.306 130.871C128.147 130.849 127.986 130.861 127.832 130.906C127.678 130.951 127.535 131.027 127.413 131.131C127.155 131.363 126.937 131.636 126.768 131.938C126.727 132.015 126.682 132.09 126.631 132.161H126.47C126.151 132.125 125.831 132.214 125.576 132.409C125.321 132.594 125.099 132.821 124.919 133.079C124.72 133.352 123.976 134.233 124.1 134.581C124.224 134.928 125.266 135.002 125.601 134.965C126.061 134.916 126.495 134.725 126.842 134.419L126.954 134.295C127.127 134.313 127.301 134.313 127.475 134.295C127.939 134.26 128.377 134.068 128.716 133.749C128.877 133.763 129.038 133.763 129.199 133.749C129.66 133.7 130.093 133.509 130.44 133.203C130.551 133.1 130.644 132.978 130.713 132.844H130.899C131.29 132.808 131.657 132.642 131.942 132.372C132.084 132.229 132.192 132.055 132.257 131.863C132.321 131.672 132.341 131.468 132.314 131.268C132.308 131.061 132.238 130.862 132.113 130.698C131.989 130.533 131.816 130.411 131.619 130.35Z" fill="white"/>
<path d="M131.657 130.19C131.506 130.169 131.352 130.18 131.205 130.22C131.058 130.261 130.92 130.331 130.801 130.426C130.647 130.54 130.513 130.678 130.404 130.835C130.306 130.787 130.201 130.754 130.094 130.736C129.734 130.69 129.37 130.783 129.076 130.997L128.965 131.096C128.804 130.922 128.598 130.797 128.369 130.736C128.186 130.705 127.998 130.716 127.82 130.768C127.642 130.819 127.478 130.91 127.339 131.034C127.066 131.275 126.835 131.56 126.657 131.878V131.989H126.582C126.221 131.951 125.858 132.048 125.565 132.262C125.296 132.464 125.062 132.707 124.87 132.982L124.783 133.093C124.237 133.801 123.927 134.334 124.026 134.632C124.056 134.697 124.098 134.756 124.15 134.806C124.547 135.228 125.701 135.116 125.714 135.116C126.224 135.078 126.708 134.873 127.091 134.533L127.165 134.458H127.624C128.084 134.417 128.519 134.23 128.865 133.925H129.3C129.629 133.918 129.951 133.83 130.238 133.67C130.526 133.51 130.77 133.282 130.95 133.007H131.049C131.459 132.953 131.842 132.771 132.141 132.485C132.3 132.323 132.421 132.128 132.496 131.913C132.571 131.699 132.598 131.471 132.575 131.245C132.557 130.993 132.457 130.755 132.292 130.565C132.126 130.374 131.904 130.243 131.657 130.19ZM131.868 132.2C131.613 132.438 131.285 132.582 130.937 132.61H130.677V132.684C130.606 132.804 130.523 132.916 130.429 133.019C130.081 133.316 129.645 133.491 129.188 133.515C129.039 133.53 128.89 133.53 128.741 133.515H128.667C128.368 133.798 127.984 133.972 127.575 134.012C127.41 134.023 127.244 134.023 127.079 134.012H126.992L126.892 134.123C126.546 134.424 126.11 134.603 125.652 134.632C125.168 134.632 124.411 134.632 124.324 134.359C124.237 134.086 124.498 133.801 125.019 133.118L125.106 132.982C125.283 132.744 125.492 132.531 125.726 132.349C125.95 132.181 126.229 132.102 126.508 132.126H126.582H126.706L126.917 131.791C127.072 131.507 127.273 131.251 127.513 131.034C127.587 130.941 127.682 130.865 127.789 130.814C127.896 130.762 128.014 130.735 128.133 130.735C128.252 130.735 128.37 130.762 128.477 130.814C128.585 130.865 128.679 130.941 128.754 131.034L128.865 131.17L128.965 131.307L129.163 131.133C129.207 131.086 129.257 131.044 129.312 131.009C129.536 130.842 129.816 130.767 130.094 130.798C130.205 130.814 130.312 130.857 130.404 130.922L130.54 131.009L130.627 130.885C130.741 130.709 130.883 130.554 131.049 130.426C131.132 130.359 131.227 130.309 131.329 130.279C131.432 130.25 131.539 130.24 131.645 130.252C131.807 130.296 131.952 130.389 132.06 130.517C132.169 130.646 132.236 130.804 132.253 130.972C132.316 131.192 132.314 131.425 132.245 131.644C132.177 131.862 132.046 132.056 131.868 132.2Z" fill="#021B79"/>
<path d="M59.3646 27.4747H5.94845C4.44999 27.4681 3.0101 28.0562 1.94471 29.1099C0.879331 30.1637 0.275469 31.597 0.265625 33.0955V56.1246C0.272188 57.6209 0.871194 59.0536 1.93157 60.1093C2.99194 61.1651 4.42733 61.7578 5.92364 61.7578L38.7798 61.9067V62.2044C39.028 67.6019 44.3758 77.8757 52.4285 78.98C51.6096 76.8582 48.7062 68.4332 51.1877 62.1672L51.2622 61.9687L59.3273 61.8198C60.8271 61.8199 62.2664 61.2284 63.3327 60.1737C64.399 59.119 65.0062 57.6863 65.0226 56.1866V33.1575C65.0258 32.4124 64.8819 31.674 64.599 30.9846C64.3162 30.2953 63.8999 29.6687 63.3742 29.1406C62.8485 28.6126 62.2236 28.1936 61.5355 27.9077C60.8475 27.6218 60.1097 27.4747 59.3646 27.4747Z" fill="white"/>
<path d="M59.3596 27.1649H5.94351V27.7853H59.372C60.0781 27.7917 60.7759 27.9376 61.4254 28.2146C62.0749 28.4915 62.6632 28.894 63.1567 29.399C63.6502 29.904 64.039 30.5015 64.3009 31.1572C64.5627 31.813 64.6925 32.5139 64.6826 33.2199V56.249C64.6696 57.661 64.1012 59.0112 63.1004 60.0073C62.0996 61.0035 60.7469 61.5656 59.3348 61.572L51.493 61.6589H51.0835L50.9347 62.0435C48.5647 67.9993 50.9347 75.8287 51.9893 78.5833C44.3585 77.144 39.3332 67.3789 39.0851 62.1924V61.5969H38.4895L5.9187 61.448C4.50684 61.4349 3.15744 60.8639 2.16489 59.8598C1.17234 58.8556 0.617176 57.4997 0.620513 56.0877V33.0462C0.630322 31.6365 1.19638 30.2877 2.19555 29.2931C3.19472 28.2986 4.54617 27.7389 5.95592 27.7356V27.1152C4.38063 27.1152 2.8695 27.7393 1.75328 28.8509C0.637062 29.9624 0.00668035 31.4709 0.000116656 33.0462V56.0753C-0.00478499 56.8585 0.144827 57.6349 0.440387 58.3602C0.735948 59.0855 1.17165 59.7453 1.72256 60.302C2.27347 60.8587 2.92876 61.3012 3.65092 61.6043C4.37308 61.9074 5.14793 62.0651 5.9311 62.0684L38.4895 62.2173C38.7377 67.4906 44.1599 78.5709 52.9323 79.3402C52.9323 79.3402 48.7012 69.3146 51.493 62.2793L59.3596 62.1304C60.9372 62.1272 62.4496 61.5007 63.5675 60.3875C64.6853 59.2743 65.318 57.7646 65.3278 56.187V33.1579C65.3311 32.372 65.1791 31.5933 64.8807 30.8663C64.5822 30.1394 64.1431 29.4785 63.5886 28.9217C63.0341 28.3648 62.375 27.923 61.6493 27.6215C60.9236 27.32 60.1455 27.1649 59.3596 27.1649Z" fill="#021B79"/>
<path d="M25.2851 39.0647L23.0889 39.4866C22.6051 38.552 21.9579 37.7116 21.1781 37.005L22.0963 34.9701L19.0191 33.2454L17.7783 35.0818C16.7812 34.7845 15.74 34.6628 14.7011 34.7219L13.9194 32.625L10.5445 33.63L10.954 35.8262C10.0215 36.3134 9.18164 36.9601 8.47237 37.7371L6.44988 36.8189L4.72518 39.896L6.57396 41.1368C6.27271 42.129 6.14675 43.1661 6.20172 44.2016L4.11719 44.9957L5.0726 48.3955L7.25639 47.9736C7.74791 48.9066 8.39879 49.7464 9.17962 50.4552L8.24903 52.4901L11.3262 54.2272L12.567 52.3784C13.564 52.6764 14.6053 52.7982 15.6442 52.7382L16.4258 54.8352L19.8256 53.8798L19.4038 51.6836C20.3356 51.1956 21.1754 50.549 21.8853 49.7728L23.9202 50.6909L25.6449 47.6138L23.7962 46.373C24.1166 45.3676 24.2511 44.3122 24.1932 43.2586L26.2902 42.4645L25.2851 39.0647ZM20.7314 46.8693C20.1171 47.966 19.1918 48.8563 18.0723 49.4279C16.9527 49.9995 15.6889 50.2268 14.4404 50.0811C13.1918 49.9354 12.0143 49.4233 11.0563 48.6094C10.0984 47.7954 9.40292 46.7161 9.05759 45.5074C8.71225 44.2987 8.73252 43.0148 9.11585 41.8177C9.49918 40.6205 10.2284 39.5636 11.2116 38.7803C12.1947 37.997 13.3878 37.5224 14.6403 37.4162C15.8929 37.31 17.1488 37.5771 18.2498 38.1837C18.9852 38.589 19.6331 39.1356 20.1563 39.7923C20.6795 40.449 21.0676 41.2027 21.2983 42.01C21.529 42.8174 21.5976 43.6623 21.5003 44.4963C21.403 45.3303 21.1417 46.1368 20.7314 46.8693Z" fill="#62A9F0"/>
<path d="M46.1703 37.0293H30.5859V38.8409H46.1703V37.0293Z" fill="#021B79"/>
<path d="M61.1708 37.0293H47.7578V38.8409H61.1708V37.0293Z" fill="#021B79"/>
<path d="M41.0582 41.0859H30.5859V42.8975H41.0582V41.0859Z" fill="#021B79"/>
<path d="M51.1332 41.0859H42.125V42.8975H51.1332V41.0859Z" fill="#021B79"/>
<path d="M61.1626 41.0859H52.3281V42.8975H61.1626V41.0859Z" fill="#021B79"/>
<path d="M46.1703 44.5977H30.5859V46.4092H46.1703V44.5977Z" fill="#021B79"/>
<path d="M61.1708 44.5977H47.7578V46.4092H61.1708V44.5977Z" fill="#021B79"/>
<path d="M41.0582 48.6426H30.5859V50.4541H41.0582V48.6426Z" fill="#021B79"/>
<path d="M51.1332 48.6426H42.125V50.4541H51.1332V48.6426Z" fill="#021B79"/>
<path d="M61.1626 48.6426H52.3281V50.4541H61.1626V48.6426Z" fill="#021B79"/>
</svg>
