<svg width="261" height="269" viewBox="0 0 261 269" fill="none" xmlns="http://www.w3.org/2000/svg">
<path opacity="0.05" d="M130.224 268.999C199.935 268.999 256.447 264.699 256.447 259.394C256.447 254.089 199.935 249.789 130.224 249.789C60.5122 249.789 4 254.089 4 259.394C4 264.699 60.5122 268.999 130.224 268.999Z" fill="black"/>
<path d="M259.463 114.785C257.676 132.134 253.326 151.388 246.46 170.234C246.302 170.673 246.14 171.111 245.977 171.549C233.445 205.342 212.812 237.648 184.352 255.111C167.948 254.72 149.594 254.501 130.221 254.501C120.1 254.501 110.257 254.561 100.824 254.674C78.6104 243.969 58.137 227.599 42.7541 212.878C23.9065 194.841 8.3638 171.758 2.50284 146.178C2.42796 145.858 2.35807 145.535 2.28651 145.214C0.887003 138.819 0.0932264 132.274 0.00669326 125.611C-0.257898 105.434 7.33538 84.8358 20.4418 69.7341C20.7464 69.383 21.0542 69.0352 21.3671 68.6891C30.3965 58.6579 41.9203 51.2027 55.2148 48.1491C69.0868 44.9623 83.7591 46.5183 97.5279 42.9188C126.006 35.4786 145.91 7.4652 174.672 1.21484C201.657 -4.64944 230.13 11.3925 244.796 34.793C249.988 43.0752 253.695 52.0747 256.195 61.4652C256.366 62.1075 256.533 62.7532 256.692 63.4005C260.794 79.9833 261.225 97.7026 259.466 114.783L259.463 114.785Z" fill="#EDF4FB"/>
<g opacity="0.5">
<path d="M256.684 63.402C243.867 48.3169 226.695 36.8779 207.769 31.1185C183.518 23.7382 156.46 25.7068 133.534 36.5218C125.827 40.1562 118.397 44.834 111.211 49.357C98.6475 57.2681 85.6559 65.4472 70.8887 68.1929C62.2104 69.8088 53.2409 69.4593 44.5677 69.1248C38.0411 68.8735 31.2931 68.6106 24.72 69.1881C23.3021 69.3129 21.871 69.4942 20.4382 69.7355C20.7428 69.3844 21.0506 69.0366 21.3635 68.6905C22.4618 68.5257 23.5551 68.3959 24.6417 68.3011C31.2715 67.7187 38.0494 67.9816 44.6026 68.2362C53.2276 68.569 62.1472 68.9151 70.7273 67.3176C85.3281 64.6018 98.2465 56.4693 110.739 48.6048C117.948 44.0668 125.401 39.3741 133.156 35.7164C156.28 24.8099 183.571 22.8229 208.03 30.2665C226.545 35.9011 243.396 46.9241 256.188 61.4666C256.359 62.109 256.526 62.7546 256.685 63.402H256.684ZM246.454 170.235C246.296 170.675 246.135 171.112 245.972 171.55L239.991 175.058C228.715 181.674 215.935 189.173 201.817 189.893C201.081 189.93 200.346 189.95 199.607 189.95C194.545 189.95 189.354 189.073 184.147 187.336C178.634 185.495 173.244 182.748 168.127 179.167C159.685 173.257 152.007 165.365 143.23 153.576C141.914 151.809 140.596 149.988 139.32 148.226C133.138 139.688 126.746 130.856 118.176 124.636C93.1294 106.459 59.1452 116.412 45.6976 121.534C30.1249 127.465 15.5208 135.822 2.49758 146.179C2.4227 145.86 2.35281 145.537 2.28125 145.216C15.2895 134.925 29.857 126.616 45.3797 120.704C58.2665 115.794 71.3363 113.223 83.1797 113.278C97.1066 113.34 109.055 116.919 118.697 123.915C127.383 130.221 133.818 139.108 140.04 147.704C141.315 149.463 142.631 151.281 143.943 153.045C152.659 164.756 160.276 172.587 168.636 178.438C179.163 185.805 190.93 189.556 201.77 189.005C215.672 188.294 228.352 180.854 239.54 174.291L246.453 170.234L246.454 170.235Z" fill="white"/>
</g>
<path d="M237.052 19.1178C237.406 19.7701 237.696 20.464 238.137 21.0615C238.578 21.6589 239.212 22.1664 239.95 22.2413C240.814 22.3295 241.659 21.7887 242.119 21.0531C242.578 20.3176 242.708 19.4173 242.693 18.5487C242.653 16.2356 241.618 13.9541 239.901 12.4015C238.629 11.2516 236.997 10.5111 235.301 10.2848C234.053 10.1183 231.033 10.0518 230.623 11.6776C230.282 13.0305 232.375 14.3934 233.237 15.0674C234.752 16.2522 236.115 17.3938 237.052 19.1161V19.1178ZM243.543 23.5842C242.947 23.7573 242.64 24.4612 242.705 25.0769C242.769 25.6926 243.111 26.2418 243.442 26.766C243.633 27.0672 243.828 27.3734 244.102 27.6014C244.377 27.8293 244.745 27.9725 245.093 27.8909C247.156 27.405 245.56 22.9968 243.545 23.5842H243.543ZM235.647 211.631C237.29 211.572 238.744 210.404 239.523 208.958C241.015 206.184 241.312 197.988 236.692 202.262C234.705 204.101 228.899 211.872 235.647 211.631Z" fill="#EDF4FB"/>
<path d="M134.53 13.3903H113.486C113.486 15.6202 112.586 17.6321 111.125 19.0949C109.663 20.551 107.645 21.4562 105.42 21.4562H55.9047C51.4499 21.4562 47.8388 17.8468 47.8388 13.3903H26.7947C21.8323 13.3903 17.7969 17.4258 17.7969 22.3831V243.978C17.7969 248.935 21.8323 252.976 26.7947 252.976H134.528C139.491 252.976 143.526 248.935 143.526 243.978V22.3815C143.526 17.4241 139.491 13.3887 134.528 13.3887L134.53 13.3903Z" fill="#F3F9FF"/>
<path d="M46.3994 66.1035H35.5661C35.1801 66.1035 34.8672 66.4164 34.8672 66.8024V77.6357C34.8672 78.0217 35.1801 78.3346 35.5661 78.3346H46.3994C46.7854 78.3346 47.0983 78.0217 47.0983 77.6357V66.8024C47.0983 66.4164 46.7854 66.1035 46.3994 66.1035Z" fill="#ADD0F4"/>
<path d="M66.2431 66.1035H55.4099C55.0239 66.1035 54.7109 66.4164 54.7109 66.8024V77.6357C54.7109 78.0217 55.0239 78.3346 55.4099 78.3346H66.2431C66.6291 78.3346 66.9421 78.0217 66.9421 77.6357V66.8024C66.9421 66.4164 66.6291 66.1035 66.2431 66.1035Z" fill="#ADD0F4"/>
<path d="M86.0791 66.1035H75.2458C74.8598 66.1035 74.5469 66.4164 74.5469 66.8024V77.6357C74.5469 78.0217 74.8598 78.3346 75.2458 78.3346H86.0791C86.4651 78.3346 86.778 78.0217 86.778 77.6357V66.8024C86.778 66.4164 86.4651 66.1035 86.0791 66.1035Z" fill="#ADD0F4"/>
<path d="M105.923 66.1035H95.0895C94.7035 66.1035 94.3906 66.4164 94.3906 66.8024V77.6357C94.3906 78.0217 94.7035 78.3346 95.0895 78.3346H105.923C106.309 78.3346 106.622 78.0217 106.622 77.6357V66.8024C106.622 66.4164 106.309 66.1035 105.923 66.1035Z" fill="#ADD0F4"/>
<path d="M125.556 66.1035H114.722C114.336 66.1035 114.023 66.4164 114.023 66.8024V77.6357C114.023 78.0217 114.336 78.3346 114.722 78.3346H125.556C125.942 78.3346 126.255 78.0217 126.255 77.6357V66.8024C126.255 66.4164 125.942 66.1035 125.556 66.1035Z" fill="#ADD0F4"/>
<path d="M34.8672 77.6377V66.8027C34.8672 66.4183 35.18 66.1055 35.5661 66.1055H46.3994C46.7838 66.1055 47.0966 66.4183 47.0966 66.8027V66.9475H36.4065C36.0204 66.9475 35.7092 67.2604 35.7092 67.6448V78.3349H35.5661C35.18 78.3349 34.8672 78.0221 34.8672 77.6377ZM54.7099 77.6377V66.8027C54.7099 66.4183 55.0228 66.1055 55.4088 66.1055H66.2421C66.6265 66.1055 66.9394 66.4183 66.9394 66.8027V66.9475H56.2492C55.8631 66.9475 55.5519 67.2604 55.5519 67.6448V78.3349H55.4088C55.0228 78.3349 54.7099 78.0221 54.7099 77.6377ZM74.5526 77.6377V66.8027C74.5526 66.4183 74.8655 66.1055 75.2515 66.1055H86.0848C86.4692 66.1055 86.7821 66.4183 86.7821 66.8027V66.9475H76.0919C75.7058 66.9475 75.3946 67.2604 75.3946 67.6448V78.3349H75.2515C74.8655 78.3349 74.5526 78.0221 74.5526 77.6377ZM94.3953 77.6377V66.8027C94.3953 66.4183 94.7082 66.1055 95.0942 66.1055H105.928C106.312 66.1055 106.625 66.4183 106.625 66.8027V66.9475H95.9346C95.5485 66.9475 95.2374 67.2604 95.2374 67.6448V78.3349H95.0942C94.7082 78.3349 94.3953 78.0221 94.3953 77.6377ZM114.238 77.6377V66.8027C114.238 66.4183 114.551 66.1055 114.937 66.1055H125.77C126.155 66.1055 126.468 66.4183 126.468 66.8027V66.9475H115.777C115.391 66.9475 115.08 67.2604 115.08 67.6448V78.3349H114.937C114.551 78.3349 114.238 78.0221 114.238 77.6377Z" fill="#BFD7EF"/>
<path d="M47.0967 66.8027V77.6377C47.0967 78.0221 46.7838 78.3349 46.3977 78.3349H35.5644C35.18 78.3349 34.8672 78.0221 34.8672 77.6377V77.4929H45.5574C45.9434 77.4929 46.2546 77.18 46.2546 76.7956V66.1055H46.3977C46.7838 66.1055 47.0967 66.4183 47.0967 66.8027ZM66.9394 66.8027V77.6377C66.9394 78.0221 66.6265 78.3349 66.2404 78.3349H55.4072C55.0228 78.3349 54.7099 78.0221 54.7099 77.6377V77.4929H65.4001C65.7845 77.4929 66.0973 77.18 66.0973 76.7956V66.1055H66.2404C66.6265 66.1055 66.9394 66.4183 66.9394 66.8027ZM86.7821 66.8027V77.6377C86.7821 78.0221 86.4692 78.3349 86.0831 78.3349H75.2499C74.8655 78.3349 74.5526 78.0221 74.5526 77.6377V77.4929H85.2428C85.6272 77.4929 85.94 77.18 85.94 76.7956V66.1055H86.0831C86.4692 66.1055 86.7821 66.4183 86.7821 66.8027ZM106.625 66.8027V77.6377C106.625 78.0221 106.312 78.3349 105.926 78.3349H95.0926C94.7082 78.3349 94.3953 78.0221 94.3953 77.6377V77.4929H105.085C105.47 77.4929 105.783 77.18 105.783 76.7956V66.1055H105.926C106.312 66.1055 106.625 66.4183 106.625 66.8027ZM126.253 66.8027V77.6377C126.253 78.0221 125.94 78.3349 125.554 78.3349H114.721C114.336 78.3349 114.023 78.0221 114.023 77.6377V77.4929H124.714C125.098 77.4929 125.411 77.18 125.411 76.7956V66.1055H125.554C125.94 66.1055 126.253 66.4183 126.253 66.8027Z" fill="#83B9EF"/>
<path d="M40.9834 75.5098C40.7371 75.5098 40.5391 75.3101 40.5391 75.0655V69.376C40.5391 69.1297 40.7388 68.9316 40.9834 68.9316C41.228 68.9316 41.4277 69.1313 41.4277 69.376V75.0655C41.4277 75.3118 41.228 75.5098 40.9834 75.5098Z" fill="white"/>
<path d="M38.9678 74.6761C38.8546 74.6761 38.7398 74.6328 38.6532 74.5463C38.4802 74.3732 38.4802 74.092 38.6532 73.9173L42.677 69.8935C42.8501 69.7204 43.1313 69.7204 43.3061 69.8935C43.4791 70.0665 43.4791 70.3478 43.3061 70.5225L39.2823 74.5463C39.1957 74.6328 39.0809 74.6761 38.9678 74.6761Z" fill="white"/>
<path d="M43.8292 72.664H38.1396C37.8933 72.664 37.6953 72.4643 37.6953 72.2197C37.6953 71.9751 37.895 71.7754 38.1396 71.7754H43.8292C44.0755 71.7754 44.2735 71.9751 44.2735 72.2197C44.2735 72.4643 44.0738 72.664 43.8292 72.664Z" fill="white"/>
<path d="M42.9915 74.6761C42.8784 74.6761 42.7636 74.6328 42.677 74.5463L38.6532 70.5225C38.4802 70.3495 38.4802 70.0682 38.6532 69.8935C38.8263 69.7204 39.1075 69.7204 39.2823 69.8935L43.3061 73.9173C43.4791 74.0904 43.4791 74.3716 43.3061 74.5463C43.2195 74.6328 43.1047 74.6761 42.9915 74.6761ZM60.8224 75.5098C60.5761 75.5098 60.378 75.3101 60.378 75.0655V69.376C60.378 69.1297 60.5777 68.9316 60.8224 68.9316C61.067 68.9316 61.2667 69.1313 61.2667 69.376V75.0655C61.2667 75.3118 61.067 75.5098 60.8224 75.5098Z" fill="white"/>
<path d="M58.8115 74.6761C58.6983 74.6761 58.5835 74.6328 58.497 74.5463C58.3239 74.3732 58.3239 74.092 58.497 73.9173L62.5208 69.8935C62.6938 69.7204 62.9751 69.7204 63.1498 69.8935C63.3229 70.0665 63.3229 70.3478 63.1498 70.5225L59.126 74.5463C59.0395 74.6328 58.9247 74.6761 58.8115 74.6761Z" fill="white"/>
<path d="M63.6651 72.664H57.9756C57.7293 72.664 57.5312 72.4643 57.5312 72.2197C57.5312 71.9751 57.7309 71.7754 57.9756 71.7754H63.6651C63.9114 71.7754 64.1094 71.9751 64.1094 72.2197C64.1094 72.4643 63.9097 72.664 63.6651 72.664Z" fill="white"/>
<path d="M62.8353 74.6761C62.7221 74.6761 62.6073 74.6328 62.5208 74.5463L58.497 70.5225C58.3239 70.3494 58.3239 70.0682 58.497 69.8935C58.6701 69.7204 58.9513 69.7204 59.126 69.8935L63.1498 73.9173C63.3229 74.0903 63.3229 74.3716 63.1498 74.5463C63.0633 74.6328 62.9485 74.6761 62.8353 74.6761Z" fill="white"/>
<path d="M80.6631 75.5098C80.4168 75.5098 80.2188 75.3101 80.2188 75.0655V69.376C80.2188 69.1297 80.4184 68.9316 80.6631 68.9316C80.9077 68.9316 81.1074 69.1313 81.1074 69.376V75.0655C81.1074 75.3118 80.9077 75.5098 80.6631 75.5098Z" fill="white"/>
<path d="M78.6553 74.6761C78.5421 74.6761 78.4273 74.6328 78.3407 74.5463C78.1677 74.3732 78.1677 74.092 78.3407 73.9173L82.3645 69.8935C82.5376 69.7204 82.8188 69.7204 82.9936 69.8935C83.1666 70.0665 83.1666 70.3478 82.9936 70.5225L78.9698 74.5463C78.8832 74.6328 78.7684 74.6761 78.6553 74.6761Z" fill="white"/>
<path d="M83.5089 72.664H77.8193C77.573 72.664 77.375 72.4643 77.375 72.2197C77.375 71.9751 77.5747 71.7754 77.8193 71.7754H83.5089C83.7552 71.7754 83.9532 71.9751 83.9532 72.2197C83.9532 72.4643 83.7535 72.664 83.5089 72.664Z" fill="white"/>
<path d="M82.679 74.6761C82.5659 74.6761 82.4511 74.6328 82.3645 74.5463L78.3407 70.5225C78.1677 70.3494 78.1677 70.0682 78.3407 69.8935C78.5138 69.7204 78.795 69.7204 78.9698 69.8935L82.9936 73.9173C83.1666 74.0903 83.1666 74.3716 82.9936 74.5463C82.907 74.6328 82.7922 74.6761 82.679 74.6761Z" fill="white"/>
<path d="M100.507 75.5098C100.261 75.5098 100.062 75.3101 100.062 75.0655V69.376C100.062 69.1297 100.262 68.9316 100.507 68.9316C100.751 68.9316 100.951 69.1313 100.951 69.376V75.0655C100.951 75.3118 100.751 75.5098 100.507 75.5098Z" fill="white"/>
<path d="M98.499 74.6761C98.3858 74.6761 98.271 74.6328 98.1845 74.5463C98.0114 74.3732 98.0114 74.092 98.1845 73.9173L102.208 69.8935C102.381 69.7204 102.663 69.7204 102.837 69.8935C103.012 70.0665 103.01 70.3478 102.837 70.5225L98.8135 74.5463C98.727 74.6328 98.6122 74.6761 98.499 74.6761Z" fill="white"/>
<path d="M103.353 72.664H97.6631C97.4168 72.664 97.2188 72.4643 97.2188 72.2197C97.2188 71.9751 97.4184 71.7754 97.6631 71.7754H103.353C103.599 71.7754 103.797 71.9751 103.797 72.2197C103.797 72.4643 103.597 72.664 103.353 72.664Z" fill="white"/>
<path d="M102.523 74.6767C102.41 74.6767 102.295 74.6334 102.208 74.5469L98.1845 70.5231C98.0114 70.3501 98.0114 70.0688 98.1845 69.8941C98.3576 69.7194 98.6405 69.721 98.8135 69.8941L102.837 73.9179C103.01 74.091 103.01 74.3722 102.837 74.5469C102.751 74.6334 102.636 74.6767 102.523 74.6767Z" fill="white"/>
<path d="M120.351 75.5098C120.104 75.5098 119.906 75.3101 119.906 75.0655V69.376C119.906 69.1297 120.106 68.9316 120.351 68.9316C120.595 68.9316 120.795 69.1313 120.795 69.376V75.0655C120.795 75.3118 120.595 75.5098 120.351 75.5098Z" fill="white"/>
<path d="M118.343 74.6761C118.23 74.6761 118.115 74.6328 118.028 74.5463C117.855 74.3732 117.855 74.092 118.028 73.9173L122.052 69.8935C122.225 69.7204 122.506 69.7204 122.681 69.8935C122.854 70.0665 122.854 70.3478 122.681 70.5225L118.657 74.5463C118.571 74.6328 118.456 74.6761 118.343 74.6761Z" fill="white"/>
<path d="M123.196 72.664H117.507C117.261 72.664 117.062 72.4643 117.062 72.2197C117.062 71.9751 117.262 71.7754 117.507 71.7754H123.196C123.443 71.7754 123.641 71.9751 123.641 72.2197C123.641 72.4643 123.441 72.664 123.196 72.664Z" fill="white"/>
<path d="M122.367 74.6761C122.253 74.6761 122.139 74.6328 122.052 74.5463L118.028 70.5225C117.855 70.3494 117.855 70.0682 118.028 69.8935C118.201 69.7204 118.483 69.7204 118.657 69.8935L122.681 73.9173C122.854 74.0903 122.854 74.3716 122.681 74.5463C122.595 74.6328 122.48 74.6761 122.367 74.6761Z" fill="white"/>
<path d="M99.342 88.6016H61.988C61.602 88.6016 61.2891 88.9145 61.2891 89.3005V103.88C61.2891 104.266 61.602 104.579 61.988 104.579H99.342C99.728 104.579 100.041 104.266 100.041 103.88V89.3005C100.041 88.9145 99.728 88.6016 99.342 88.6016Z" fill="#ADD0F4"/>
<path d="M61.2891 103.88V89.2988C61.2891 88.9144 61.6019 88.6016 61.988 88.6016H99.342C99.7264 88.6016 100.039 88.9144 100.039 89.2988V89.4436H62.83C62.4439 89.4436 62.1328 89.7564 62.1328 90.1409V104.577H61.9897C61.6036 104.577 61.2907 104.264 61.2907 103.88H61.2891Z" fill="#BFD7EF"/>
<path d="M100.039 89.2988V103.88C100.039 104.264 99.7264 104.577 99.3403 104.577H61.9863C61.6019 104.577 61.2891 104.264 61.2891 103.88V103.735H98.4983C98.8827 103.735 99.1956 103.422 99.1956 103.038V88.6016H99.3387C99.7248 88.6016 100.038 88.9144 100.038 89.2988H100.039Z" fill="#83B9EF"/>
<path d="M97.3677 125.744C92.4636 134.173 80.6618 133.79 80.6618 133.79C80.6618 133.79 68.86 134.173 63.9559 125.744L47.25 133.254V181.002C47.25 187.512 50.3502 193.686 55.6986 197.397C61.8791 201.684 70.8652 206.36 80.6601 206.36C90.455 206.36 99.4428 201.684 105.622 197.397C110.97 193.686 114.07 187.512 114.07 181.002V133.254L97.3643 125.744H97.3677Z" fill="#ADD0F4"/>
<path d="M80.6643 200.645C72.1908 200.645 64.1831 196.325 58.9595 192.7C55.207 190.098 52.9688 185.724 52.9688 181V136.948L62.2627 132.77C68.7993 139.13 78.3047 139.504 80.4297 139.504C80.5229 139.504 80.6011 139.504 80.6643 139.504C80.7276 139.504 80.8058 139.504 80.899 139.504C83.0257 139.504 92.5294 139.13 99.0659 132.77L108.36 136.948V181C108.36 185.723 106.12 190.098 102.369 192.699C97.1439 196.323 89.1379 200.643 80.6643 200.643V200.645Z" fill="#F3F9FF"/>
<path opacity="0.15" d="M114.074 133.253V181.001C114.074 187.51 110.976 193.686 105.627 197.395C99.4467 201.682 90.4606 206.358 80.6641 206.358V133.788C80.6641 133.788 92.4642 134.171 97.37 125.744L114.076 133.253H114.074Z" fill="#83B9EF"/>
<path d="M73.2874 181.447C72.3555 181.447 71.4236 181.091 70.713 180.38L63.2612 172.929C61.84 171.507 61.84 169.203 63.2612 167.78C64.6823 166.359 66.9871 166.359 68.4099 167.78L73.2874 172.657L92.9121 153.033C94.3332 151.612 96.638 151.612 98.0608 153.033C99.4819 154.454 99.4819 156.759 98.0608 158.181L75.8617 180.38C75.1512 181.091 74.2193 181.447 73.2874 181.447Z" fill="#83B9EF"/>
<path d="M134.538 7.93555H26.8009C18.8199 7.93555 12.3516 14.4039 12.3516 22.3833V49.9624C12.4764 49.9624 12.5978 49.979 12.7127 50.0106C13.0405 50.0988 13.3201 50.3035 13.5031 50.5781C13.6512 50.7994 13.7378 51.0657 13.7378 51.3502V80.0576C13.7378 80.3438 13.6512 80.6084 13.5031 80.8297C13.3201 81.106 13.0388 81.309 12.7127 81.3972C12.5978 81.4305 12.4764 81.4454 12.3516 81.4454V84.722C12.4764 84.722 12.5978 84.7387 12.7127 84.7703C13.0405 84.8585 13.3201 85.0615 13.5031 85.3378C13.6512 85.5591 13.7378 85.8237 13.7378 86.1082V94.8181C13.7378 95.1044 13.6512 95.3689 13.5031 95.5903C13.3201 95.8649 13.0388 96.0695 12.7127 96.1561C12.5978 96.1894 12.4764 96.2043 12.3516 96.2043V99.1698C12.4764 99.1698 12.5978 99.1864 12.7127 99.218C13.0405 99.3062 13.3201 99.5092 13.5031 99.7855C13.6512 100.007 13.7378 100.271 13.7378 100.556V109.266C13.7378 109.552 13.6512 109.817 13.5031 110.038C13.3201 110.313 13.0388 110.517 12.7127 110.604C12.5978 110.637 12.4764 110.652 12.3516 110.652V243.971C12.3516 245.08 12.4764 246.158 12.7127 247.195C12.904 248.04 13.1703 248.855 13.5031 249.636C15.7064 254.801 20.8301 258.421 26.7993 258.421H134.536C142.516 258.421 148.984 251.952 148.984 243.971V22.3833C148.984 14.4039 142.516 7.93555 134.536 7.93555H134.538ZM105.731 13.3888C106.381 13.3888 106.909 13.9163 106.909 14.567C106.909 15.2176 106.381 15.7452 105.731 15.7452C105.08 15.7452 104.553 15.2176 104.553 14.567C104.553 13.9163 105.08 13.3888 105.731 13.3888ZM55.2653 13.7299H101.098C101.561 13.7299 101.935 14.1044 101.935 14.567C101.935 14.7983 101.842 15.0063 101.689 15.1594C101.537 15.3108 101.329 15.404 101.098 15.404H55.2653C54.8011 15.404 54.4266 15.0296 54.4266 14.567C54.4266 14.1044 54.8011 13.7299 55.2653 13.7299ZM143.532 243.978C143.532 248.934 139.497 252.974 134.535 252.974H26.8026C21.8403 252.974 17.8065 248.934 17.8065 243.978V22.3816C17.8065 17.4259 21.8403 13.3888 26.8026 13.3888H47.8468C47.8468 17.8436 51.4579 21.453 55.9127 21.453H105.426C107.651 21.453 109.668 20.5494 111.131 19.0933C112.592 17.6306 113.49 15.6187 113.49 13.3888H134.535C139.497 13.3888 143.532 17.4242 143.532 22.3816V243.978Z" fill="#83B9EF"/>
<path d="M134.538 7.93555H26.8009C18.8199 7.93555 12.3516 14.4039 12.3516 22.3833V49.9624C12.8308 49.9624 13.2552 50.207 13.5048 50.5781V23.5348C13.5048 15.5538 19.9731 9.08544 27.9541 9.08544H135.69C139.384 9.08544 142.752 10.47 145.306 12.7531C142.664 9.79601 138.818 7.93555 134.538 7.93555Z" fill="#BFD7EF"/>
<path d="M13.5 99.7908V100.325C13.5749 100.325 13.6464 100.332 13.7163 100.343C13.6847 100.14 13.6098 99.9539 13.5 99.7908ZM13.5 85.3414V85.8773C13.5749 85.8773 13.6464 85.8839 13.7163 85.8956C13.6847 85.6926 13.6098 85.5045 13.5 85.3414ZM13.5 50.5801V51.1159C13.5749 51.1159 13.6464 51.1226 13.7163 51.1342C13.6847 50.9312 13.6098 50.7448 13.5 50.5801Z" fill="#A7CBEF"/>
<path d="M101.093 13.7305H55.2589C54.7966 13.7305 54.4219 14.1052 54.4219 14.5675C54.4219 15.0298 54.7966 15.4046 55.2589 15.4046H101.093C101.555 15.4046 101.93 15.0298 101.93 14.5675C101.93 14.1052 101.555 13.7305 101.093 13.7305Z" fill="#5AA2EA"/>
<path d="M13.5031 47.7324V50.578C13.3201 50.3035 13.0388 50.0988 12.7127 50.0106C12.5979 49.9773 12.4764 49.9623 12.3516 49.9623V47.7324H13.5048H13.5031ZM13.5031 80.8313V85.341C13.3201 85.0648 13.0388 84.8618 12.7127 84.7736C12.5979 84.7403 12.4764 84.7253 12.3516 84.7253V81.4487C12.4764 81.4487 12.5979 81.4321 12.7127 81.4005C13.0405 81.3123 13.3201 81.1092 13.5031 80.833V80.8313ZM13.5031 95.5936V99.7904C13.3201 99.5142 13.0388 99.3112 12.7127 99.223C12.5979 99.1897 12.4764 99.1747 12.3516 99.1747V96.2093C12.4764 96.2093 12.5979 96.1926 12.7127 96.161C13.0405 96.0728 13.3201 95.8698 13.5031 95.5952V95.5936ZM13.5031 110.043V249.641C13.1703 248.86 12.9024 248.043 12.7127 247.2C12.4764 246.165 12.3516 245.085 12.3516 243.976V110.659C12.4764 110.659 12.5979 110.642 12.7127 110.61C13.0405 110.522 13.3201 110.319 13.5031 110.045V110.043Z" fill="#BFD7EF"/>
<path d="M106 15.7219C106.634 15.5725 107.026 14.9379 106.876 14.3046C106.727 13.6713 106.092 13.2791 105.459 13.4286C104.826 13.5781 104.434 14.2126 104.583 14.8459C104.733 15.4792 105.367 15.8714 106 15.7219Z" fill="#5AA2EA"/>
<path d="M12.3488 49.9648C11.5833 49.9648 10.9609 50.5856 10.9609 51.3527V80.0617C10.9609 80.8272 11.5817 81.4496 12.3488 81.4496C13.1159 81.4496 13.7367 80.8289 13.7367 80.0617V51.3527C13.7367 50.5872 13.1159 49.9648 12.3488 49.9648ZM12.3488 84.7262C11.5833 84.7262 10.9609 85.3469 10.9609 86.1141V94.824C10.9609 95.5894 11.5817 96.2118 12.3488 96.2118C13.1159 96.2118 13.7367 95.5911 13.7367 94.824V86.1141C13.7367 85.3486 13.1159 84.7262 12.3488 84.7262ZM12.3488 99.1739C11.5833 99.1739 10.9609 99.7946 10.9609 100.562V109.272C10.9609 110.037 11.5817 110.66 12.3488 110.66C13.1159 110.66 13.7367 110.039 13.7367 109.272V100.562C13.7367 99.7963 13.1159 99.1739 12.3488 99.1739Z" fill="#5AA2EA"/>
<path opacity="0.3" d="M127.712 13.3906L17.8047 123.299V98.709L95.0571 21.4565H105.428C107.651 21.4565 109.67 20.5512 111.131 19.0952C112.593 17.6341 113.492 15.6222 113.492 13.3923H127.713L127.712 13.3906ZM143.534 22.3834V67.4955L17.8047 193.225V147.459L143.511 21.7511C143.526 21.9607 143.532 22.1704 143.532 22.3818L143.534 22.3834ZM143.534 114.227V140.846L31.4037 252.976H26.8025C21.8401 252.976 17.8047 248.935 17.8047 243.978V239.958L143.534 114.227Z" fill="white"/>
<path d="M173.588 35.3878C176.613 35.4661 181.439 31.8084 181.439 31.8084C181.439 31.8084 180.642 34.5674 182.947 35.0517C184.907 35.4627 191.936 31.9798 191.936 31.9798C191.708 34.9102 193.842 35.3878 193.842 35.3878V38.9207C193.842 39.3517 194.075 39.7262 194.423 39.9275C194.596 40.0274 194.795 40.0873 195.008 40.0873C195.652 40.0873 196.175 39.5647 196.175 38.9207V36.0751C196.819 35.6408 197.594 35.3878 198.43 35.3878C199.734 35.3878 200.894 36.0069 201.633 36.9671C201.775 37.1501 201.899 37.3465 202.009 37.5545C204.89 27.8295 198.451 22.8755 198.451 22.8755C198.451 22.8755 200.641 21.5958 200.044 20.7704C199.447 19.945 196.516 20.0881 196.516 20.0881C196.516 20.0881 196.657 17.116 195.434 17.0445C194.426 16.9862 194.163 19.3692 194.163 19.3692C194.163 19.3692 189.063 12.152 184.227 12.3517C179.391 12.5514 180.87 16.3922 180.87 16.3922C180.87 16.3922 172.506 15.6233 170.288 19.1512C168.336 22.2548 171.255 23.7308 171.255 23.7308C171.255 23.7308 166.704 26.2619 167.13 29.1924C167.556 32.1229 170.514 31.1261 170.514 31.1261C169.897 32.2127 169.879 33.2245 170.368 33.99C170.892 34.8087 171.999 35.3462 173.588 35.3878Z" fill="#132360"/>
<path d="M181.098 50.9743V54.7086L177.297 55.5306C177.453 57.0483 180.169 58.3147 182.442 59.1151C182.512 59.1301 182.58 59.1534 182.645 59.185C184.23 59.7308 185.549 60.0404 185.549 60.0404C185.549 60.0404 187.764 59.7125 190.368 59.0802C190.42 59.0668 190.472 59.0552 190.523 59.0419C193.82 58.2315 197.677 56.9368 198.463 55.2011L196.173 54.7053V47.543C193.432 49.8794 189.876 51.2905 185.992 51.2905C184.283 51.2905 182.637 51.2073 181.096 50.9693L181.098 50.9743Z" fill="#99CCFF"/>
<path d="M185.993 51.2952C189.877 51.2952 193.433 49.884 196.174 47.5476C197.166 46.7023 198.051 45.7371 198.807 44.6721L197.783 43.4157C197.196 43.3208 196.65 43.0995 196.177 42.78C196.652 43.0995 197.196 43.3208 197.783 43.4157C197.995 43.4506 198.211 43.4689 198.432 43.4689C198.873 43.4689 199.299 43.3974 199.697 43.2659C201.308 42.7351 202.473 41.2191 202.473 39.4285C202.473 38.7529 202.306 38.1155 202.012 37.5547C201.904 37.3484 201.777 37.152 201.636 36.9673C200.897 36.0071 199.737 35.3881 198.432 35.3881C197.597 35.3881 196.821 35.641 196.177 36.0753V38.9209C196.177 39.565 195.655 40.0875 195.011 40.0875C194.796 40.0875 194.597 40.0292 194.425 39.9277C194.079 39.7247 193.844 39.3503 193.844 38.9209V35.3881C193.844 35.3881 191.711 34.9088 191.939 31.98C191.939 31.98 184.91 35.463 182.95 35.0519C180.645 34.5677 181.442 31.8086 181.442 31.8086C181.442 31.8086 176.614 35.4663 173.591 35.3881C172.003 35.3465 170.895 34.809 170.371 33.9902C170.317 34.5177 170.289 35.0519 170.289 35.5928C170.289 45.0748 173.722 48.9721 178.749 50.4598C179.498 50.6811 180.284 50.8492 181.097 50.9757C182.638 51.212 184.282 51.2969 185.993 51.2969V51.2952Z" fill="#99CCFF"/>
<path d="M182.259 59.0957C181.714 59.0957 181.273 59.6033 181.273 60.2306C181.273 60.6982 181.518 61.0976 181.868 61.2723C182.117 61.3406 182.259 61.3655 182.259 61.3655C182.56 61.3655 182.831 61.2091 183.011 60.9612C182.576 60.4386 182.259 60.229 182.259 60.229C182.259 60.229 182.576 60.437 183.011 60.9612C183.156 60.7631 183.244 60.5085 183.244 60.229C183.244 59.7597 182.997 59.3586 182.646 59.1856C182.58 59.1623 182.512 59.139 182.443 59.1157C182.383 59.1024 182.322 59.0957 182.259 59.0957Z" fill="#294BCC"/>
<path d="M182.646 59.1871C182.581 59.1555 182.515 59.1322 182.443 59.1172C182.511 59.1405 182.578 59.1654 182.646 59.1871ZM182.258 61.3654C182.258 61.3654 182.118 61.3404 181.867 61.2722C181.987 61.3321 182.118 61.3654 182.258 61.3654Z" fill="#0575E6"/>
<path d="M189.672 60.1701C189.672 60.4513 189.762 60.7092 189.908 60.9073C190.333 60.3581 190.657 60.1701 190.657 60.1701C190.657 60.1701 190.334 60.3581 189.908 60.9073C190.09 61.1502 190.357 61.305 190.657 61.305C190.657 61.305 190.837 61.2517 191.143 61.1569C191.441 60.9622 191.642 60.5928 191.642 60.1701C191.642 59.5427 191.201 59.0352 190.657 59.0352C190.612 59.0352 190.567 59.0401 190.524 59.0468C190.472 59.0601 190.421 59.0718 190.369 59.0851C189.966 59.2265 189.672 59.6592 189.672 60.1701Z" fill="#294BCC"/>
<path d="M191.142 61.1562C190.836 61.2511 190.656 61.3043 190.656 61.3043C190.833 61.3043 190.997 61.2494 191.142 61.1562Z" fill="#0575E6"/>
<path d="M210.668 134.982L210.056 137.277C209.994 137.505 210.024 137.737 210.12 137.933C210.174 138.041 210.247 138.138 210.338 138.219C210.447 138.316 210.578 138.389 210.728 138.427L224.072 141.883L224.26 141.932C224.658 142.035 225.067 141.807 225.189 141.414L226.257 137.978L211.309 135.169C211.084 135.127 210.869 135.064 210.665 134.982H210.668Z" fill="#3F66FB"/>
<path d="M202.474 39.4272C202.474 41.2161 201.311 42.732 199.698 43.2629C199.3 43.3927 198.876 43.4659 198.435 43.4659C198.267 43.4659 198.102 43.4543 197.939 43.4326C198.2 43.3993 198.453 43.3428 198.696 43.2629C200.309 42.732 201.474 41.2161 201.474 39.4272C201.474 38.7499 201.306 38.1125 201.013 37.5534C200.903 37.347 200.778 37.1507 200.637 36.9659C199.994 36.1322 199.036 35.5531 197.938 35.4183C198.102 35.3984 198.269 35.3867 198.437 35.3867C199.741 35.3867 200.903 36.0058 201.64 36.9659C201.782 37.149 201.906 37.347 202.015 37.5534C202.309 38.1142 202.476 38.7499 202.476 39.4272H202.474Z" fill="#80BFFF"/>
<path d="M197.934 43.434C197.893 43.4407 197.851 43.444 197.81 43.4473L197.781 43.4141C197.831 43.4207 197.883 43.429 197.934 43.434Z" fill="#D9ECFF"/>
<path d="M182.177 50.9743C183.51 51.179 184.921 51.2689 186.384 51.2888C186.254 51.2938 186.123 51.2955 185.992 51.2955C184.282 51.2955 182.637 51.2123 181.096 50.976C180.282 50.8495 179.497 50.6831 178.749 50.4601C173.722 48.9724 170.289 45.0751 170.289 35.593C170.289 35.0522 170.317 34.518 170.371 33.9922C170.6 34.3516 170.943 34.6578 171.387 34.8908C171.376 35.1238 171.371 35.3584 171.371 35.5947C171.371 45.0751 174.804 48.9741 179.829 50.4618C180.58 50.6848 181.364 50.8512 182.177 50.9776V50.9743Z" fill="#B3D9FF"/>
<path d="M197.783 43.4134L198.806 44.6698C199.128 44.2189 199.424 43.7479 199.695 43.2637C199.297 43.3951 198.873 43.4667 198.43 43.4667C198.209 43.4667 197.993 43.4484 197.781 43.4134H197.783Z" fill="#132360"/>
<path d="M198.46 55.2059C199.289 53.377 197.67 52.6282 196.17 52.3203V54.71L198.46 55.2059ZM181.094 52.4867C179.896 52.708 177.078 53.4536 177.293 55.532L181.094 54.71V52.4867Z" fill="#294BCC"/>
<path d="M174.031 130H208.773L211.089 121.49H174.031V130Z" fill="#F2F2F2"/>
<path d="M215.807 104.166L211.833 118.758H169.422V104.166H215.807Z" fill="#021B79"/>
<path d="M215.927 103.697L215.799 104.167H169.414V102.14C169.414 100.572 170.685 99.3008 172.251 99.3008H214.453L214.46 99.3174L215.927 103.697Z" fill="#CCCCCC"/>
<path d="M211.459 149.416C211.369 149.772 211.251 150.092 211.109 150.38H211.322C211.351 149.962 211.416 149.611 211.459 149.416Z" fill="#0575E6"/>
<path d="M207.397 139.238C207.036 139.411 206.716 139.664 206.465 139.977L204.635 142.252L203.1 144.159C202.942 144.355 203.072 144.648 203.323 144.661C204.087 144.705 205.545 144.653 207.309 143.931C207.439 143.877 207.57 143.821 207.703 143.761C208.797 141.306 209.928 139.033 210.341 138.218C210.249 138.136 210.176 138.04 210.123 137.932L207.397 139.238Z" fill="#99CCFF"/>
<path d="M203.329 144.662C203.078 144.647 202.948 144.355 203.106 144.159L204.64 142.252H199.938V147.923H206.01C206.371 146.908 206.83 145.782 207.314 144.66V143.933C205.551 144.653 204.093 144.706 203.329 144.663V144.662Z" fill="#0036FF"/>
<path d="M207.312 144.661C207.442 144.359 207.574 144.06 207.707 143.764C207.574 143.824 207.442 143.88 207.312 143.933V144.661Z" fill="#CCCCCC"/>
<path d="M169.416 118.758V147.54C169.416 147.885 169.477 148.212 169.589 148.519C169.624 148.613 169.664 148.705 169.707 148.795C169.769 148.923 169.842 149.044 169.923 149.161C170.436 149.898 171.288 150.379 172.253 150.379H205.567C205.485 149.925 205.518 149.399 205.705 148.813C205.793 148.529 205.894 148.231 206.004 147.923H199.932V142.253H204.635L206.465 139.978C206.717 139.666 207.036 139.414 207.397 139.241L210.121 137.935C210.025 137.739 209.995 137.509 210.056 137.279L210.669 134.986C210.539 134.935 210.412 134.876 210.293 134.811C208.885 134.056 208.114 132.4 208.557 130.773L208.767 130.002H174.025V121.494H211.083L211.13 121.324L211.825 118.763H169.414L169.416 118.758ZM190.21 142.252H197.589V147.921H190.21V142.252ZM175.105 141.624C175.774 140.957 176.696 140.544 177.715 140.544H183.978C184.709 140.544 185.389 140.757 185.962 141.123C186.985 141.779 187.666 142.927 187.666 144.234C187.666 144.48 187.643 144.718 187.596 144.951C187.345 146.232 186.426 147.277 185.216 147.708C184.83 147.846 184.413 147.921 183.978 147.921H177.715C177.249 147.921 176.801 147.833 176.388 147.675C175.005 147.142 174.025 145.803 174.025 144.234C174.025 143.215 174.438 142.293 175.105 141.624Z" fill="#CCCCCC"/>
<path d="M185.968 141.126C185.395 140.76 184.715 140.547 183.984 140.547H177.721C175.684 140.547 174.031 142.198 174.031 144.236C174.031 146.273 175.682 147.925 177.721 147.925H183.984C184.419 147.925 184.836 147.849 185.224 147.711C186.652 147.202 187.674 145.839 187.674 144.236C187.674 142.93 186.993 141.783 185.969 141.128L185.968 141.126Z" fill="#0575E6"/>
<path d="M215.988 224.756H190.6C189.793 224.756 189.053 224.43 188.515 223.897C188.044 223.431 187.728 222.809 187.655 222.107L185.154 198.661L182.634 175.038C182.471 173.505 182.476 171.961 182.649 170.428L184.916 150.379H205.567C206.003 152.805 209.699 153.253 211.109 150.379H211.32C211.285 150.913 211.313 151.555 211.53 152.125C211.714 152.61 212.041 153.043 212.583 153.308C212.778 153.403 212.997 153.476 213.252 153.522C214.305 153.719 215.081 153.649 215.66 153.416L212.856 172.731L218.927 221.426C219.148 223.193 217.768 224.756 215.986 224.756H215.988Z" fill="#3796F6"/>
<path d="M217.555 150.38H217.585C217.6 150.224 217.615 150.129 217.615 150.129C217.595 150.21 217.575 150.295 217.555 150.38Z" fill="#0575E6"/>
<path d="M215.993 224.756H190.605C189.798 224.756 189.057 224.43 188.52 223.897C188.049 223.431 187.733 222.809 187.66 222.107L186.273 209.112C187.149 207.965 188.267 207.026 189.61 206.516C192.028 205.592 194.755 206.163 197.298 205.682C202.072 204.777 205.464 200.22 206.547 195.484C207.63 190.748 206.877 185.813 206.191 181.003C205.505 176.194 204.903 171.208 206.266 166.546C207.12 163.633 208.74 160.746 208.22 157.754C207.486 153.532 203.753 152.486 200.658 150.467C200.611 150.437 200.57 150.407 200.526 150.379H205.574C206.01 152.805 209.706 153.253 211.115 150.379H211.326C211.292 150.913 211.32 151.555 211.536 152.125C211.721 152.61 212.047 153.043 212.589 153.308C212.784 153.403 213.004 153.476 213.258 153.522C214.312 153.719 215.087 153.649 215.666 153.416L212.862 172.731L218.933 221.426C219.154 223.193 217.775 224.756 215.993 224.756Z" fill="#3693F0"/>
<path d="M193.951 231.918H215.11C215.11 231.918 215.113 231.918 215.115 231.918L214.181 224.758H193.016L193.949 231.918H193.951Z" fill="#99CCFF"/>
<path d="M193.952 231.918H193.928C193.432 231.918 193.031 232.319 193.031 232.815C193.031 233.311 193.432 233.712 193.928 233.712H215.111C215.192 233.712 215.27 233.7 215.345 233.68C215.726 233.577 216.007 233.229 216.007 232.815C216.007 232.321 215.608 231.921 215.116 231.918C215.114 231.918 215.112 231.918 215.111 231.918H193.952Z" fill="#CCCCCC"/>
<path d="M194.18 233.711L194.824 238.654H205.627C205.953 238.654 206.234 238.867 206.331 239.175C206.338 239.195 206.346 239.214 206.351 239.236C206.625 240.469 207.627 243.235 211.075 243.235C214.523 243.235 215.478 240.374 215.698 239.175C215.728 239.01 215.746 238.875 215.756 238.785C215.765 238.71 215.828 238.654 215.903 238.654H215.988L215.34 233.68C215.265 233.7 215.187 233.711 215.106 233.711H194.18Z" fill="white"/>
<path d="M90.7376 101.523C90.1985 102.569 89.1568 103.733 87.3329 104.962C85.8119 104.34 84.3725 100.531 83.6885 98.7936C83.5021 98.3193 83.4805 97.9216 83.5571 97.5921C83.607 97.3641 83.7035 97.1694 83.8217 97.0047C85.9367 96.7684 88.0734 96.5138 89.0353 96.3973C89.3981 96.3523 89.7592 96.4855 90.0088 96.7534C90.483 97.2626 91.172 98.2095 91.2269 99.4609C91.2535 100.08 91.1254 100.774 90.7376 101.526V101.523Z" fill="#99CCFF"/>
<path d="M246.629 99.3008H238.273C238.774 100.885 239.046 102.522 239.089 104.165H249.468V102.138C249.468 100.57 248.198 99.3008 246.631 99.3008H246.629Z" fill="#CCCCCC"/>
<path d="M211.461 149.417C211.474 149.362 211.489 149.307 211.501 149.252C211.501 149.252 211.484 149.312 211.461 149.417Z" fill="#0575E6"/>
<path d="M224.083 141.881C224.063 143.128 223.931 146.399 223.149 149.821C223.104 150.014 223.061 150.2 223.02 150.378C222.384 153.049 221.863 154.174 219.668 153.961C218.881 153.886 218.382 153.513 218.067 153.031C217.496 152.154 217.538 150.906 217.588 150.378C217.6 150.26 217.61 150.178 217.615 150.143C217.595 150.218 217.578 150.298 217.558 150.378C217.295 151.496 216.984 152.886 215.666 153.415C215.087 153.648 214.311 153.718 213.258 153.522C211.466 153.189 211.251 151.528 211.326 150.378C211.354 149.96 211.419 149.609 211.464 149.415C211.471 149.381 211.481 149.35 211.486 149.316C211.479 149.341 211.472 149.375 211.464 149.415C211.374 149.771 211.254 150.09 211.115 150.378C209.705 153.252 206.009 152.804 205.573 150.378C205.492 149.924 205.525 149.398 205.711 148.812C205.799 148.528 205.901 148.23 206.011 147.922C206.372 146.907 206.831 145.78 207.315 144.659C207.445 144.357 207.578 144.058 207.71 143.76C208.803 141.305 209.935 139.034 210.347 138.217C210.456 138.313 210.585 138.385 210.737 138.425L224.083 141.879V141.881Z" fill="#99CCFF"/>
<path d="M231.14 135.609C230.647 137.374 228.887 138.469 227.086 138.132L226.264 137.977L225.196 141.413C225.074 141.806 224.665 142.034 224.267 141.931L224.079 141.882C224.059 143.129 223.928 146.399 223.145 149.822C223.1 150.015 223.059 150.201 223.016 150.379H246.634C248.202 150.379 249.471 149.11 249.471 147.542V118.76H235.837L231.14 135.609Z" fill="#CCCCCC"/>
<path opacity="0.2" d="M246.634 99.3008H238.279C238.78 100.885 239.051 102.522 239.094 104.165H249.473V102.138C249.473 100.57 248.203 99.3008 246.636 99.3008H246.634ZM231.14 135.61C230.647 137.375 228.887 138.47 227.086 138.133L226.264 137.978L225.196 141.414C225.074 141.807 224.665 142.035 224.267 141.932L224.079 141.883C224.059 143.13 223.928 146.4 223.145 149.823C223.1 150.016 223.059 150.202 223.016 150.38H246.634C248.202 150.38 249.471 149.111 249.471 147.543V118.761H235.837L231.14 135.61Z" fill="#808080"/>
<path d="M216.793 238.817C216.788 238.789 216.786 238.775 216.786 238.775C216.773 238.704 216.711 238.654 216.64 238.654H215.902C215.828 238.654 215.763 238.711 215.756 238.784C215.746 238.874 215.728 239.008 215.696 239.173C215.475 240.373 214.581 243.234 211.073 243.234C207.565 243.234 206.623 240.47 206.35 239.235C206.344 239.215 206.337 239.195 206.331 239.173C206.234 238.867 205.953 238.652 205.627 238.652H194.089C193.818 238.652 193.559 238.762 193.372 238.959L187.887 244.711C187.084 245.553 186.103 246.206 185.015 246.623L180.482 248.367L179.437 248.768C176.967 249.719 175.323 252.072 175.273 254.709H219.643L216.793 238.814V238.817Z" fill="#48A1FA"/>
<path d="M238.45 109.384L235.836 118.758H249.47V104.164H239.091C239.138 105.918 238.925 107.677 238.449 109.384H238.45Z" fill="#021B79"/>
<path d="M180.247 224.758H159.081L158.805 231.918H179.97L180.247 224.758Z" fill="#99CCFF"/>
<path d="M239.09 104.166C239.046 102.524 238.775 100.884 238.274 99.3002C238.269 99.2869 238.266 99.2719 238.261 99.2569L228.115 67.4344C226.501 62.3672 222.317 58.5381 217.127 57.3749L212.596 56.3082L211.459 56.042L206.314 54.8305C204.921 50.9581 198.88 49.7051 196.171 49.334V52.321C197.669 52.6272 199.288 53.3777 198.461 55.2066C198.068 56.0736 196.906 56.8324 195.432 57.4731C193.958 58.1154 192.169 58.6413 190.52 59.0473C190.563 59.0407 190.608 59.0357 190.653 59.0357C191.197 59.0357 191.636 59.5432 191.636 60.1706C191.636 60.5949 191.435 60.9627 191.137 61.1574C190.994 61.2523 190.829 61.3055 190.653 61.3055C190.352 61.3055 190.084 61.1508 189.904 60.9078C189.756 60.7098 189.668 60.4518 189.668 60.1706C189.668 59.6597 189.96 59.2271 190.363 59.0856C187.759 59.718 185.546 60.0441 185.546 60.0441C185.546 60.0441 184.226 59.7346 182.64 59.1888C182.993 59.3602 183.239 59.7629 183.239 60.2322C183.239 60.5101 183.151 60.7663 183.006 60.9644C182.825 61.2107 182.555 61.3671 182.254 61.3671C182.116 61.3671 181.984 61.3338 181.865 61.2739C181.515 61.1008 181.271 60.6998 181.271 60.2322C181.271 59.6048 181.71 59.0973 182.254 59.0973C182.317 59.0973 182.38 59.1039 182.439 59.1172C180.166 58.3151 177.45 57.0504 177.293 55.5327C177.08 53.4543 179.896 52.7088 181.094 52.4858V50.9748C180.28 50.8483 179.495 50.6819 178.748 50.4589C176.173 51.078 172.091 52.5257 171.542 55.5477C164.129 58.0555 145.735 68.2015 132.975 76.3872L102.336 84.721C100.931 85.0722 99.961 86.2687 99.8279 87.6299C99.7913 88.0076 99.8196 88.397 99.9177 88.7848L103.512 102.725C103.542 102.84 103.577 102.951 103.617 103.059C104.196 104.615 105.857 105.526 107.508 105.135L142.735 96.1334C143.905 95.8572 145.038 95.4378 146.106 94.8854L163.317 86.0091V119.323C163.317 120.228 163.917 120.992 164.743 121.235C164.924 121.288 165.114 121.318 165.312 121.318H169.417V102.137C169.417 100.57 170.689 99.2985 172.254 99.2985H214.456L215.273 101.731L215.93 103.695L215.802 104.164L211.828 118.757L211.133 121.318L211.086 121.488L208.768 129.996L208.558 130.767C208.3 131.714 208.454 132.669 208.903 133.451C209.292 134.131 209.906 134.679 210.668 134.98C210.873 135.06 211.088 135.123 211.312 135.165L226.261 137.974L227.082 138.129C228.884 138.466 230.643 137.371 231.135 135.606L235.833 118.757L238.447 109.385C238.923 107.676 239.135 105.918 239.09 104.164V104.166Z" fill="#54A7FB"/>
<path d="M214.458 99.3005H172.257C170.689 99.3005 169.42 100.57 169.42 102.138V121.32H165.314C165.118 121.32 164.926 121.29 164.745 121.237C163.92 120.992 163.319 120.23 163.319 119.325V86.0111L162.906 86.2224L163.319 85.2622L166.259 90.8552C168.99 96.0506 174.981 98.6882 180.629 97.0906C198.23 92.1083 206.544 75.6953 206.544 75.6953L214.458 99.3022V99.3005Z" fill="#4B70FB"/>
<path d="M185.158 198.66L184.394 221.889C184.343 223.489 183.031 224.755 181.432 224.755H157.269C156.83 224.755 154.648 224.267 154.648 223.177L155.434 191.536L155.733 179.503C155.482 174.384 155.727 171.963 156.151 169.572L159.211 152.37L164.748 121.236C164.929 121.29 165.119 121.32 165.317 121.32H169.422V147.542C169.422 149.11 170.694 150.38 172.26 150.38H184.922L182.655 170.429C182.482 171.961 182.477 173.506 182.64 175.038L185.16 198.662L185.158 198.66Z" fill="#3796F6"/>
<path d="M185.158 198.661L184.394 221.89C184.343 223.489 183.031 224.755 181.432 224.755H157.269C156.83 224.755 154.648 224.266 154.648 223.178L155.124 203.991C156.903 204.417 158.691 204.795 160.499 204.735C165.886 204.553 170.516 200.42 172.822 195.551C175.13 190.678 175.545 185.152 175.804 179.768C176.064 174.385 176.225 168.885 178.096 163.831C178.72 162.149 179.532 160.516 179.821 158.746C180.112 156.977 179.776 154.971 178.43 153.787C177.287 152.78 175.674 152.559 174.247 152.024C173.37 151.697 172.483 151.114 171.968 150.365C172.063 150.375 172.16 150.38 172.258 150.38H184.92L182.654 170.429C182.48 171.962 182.475 173.506 182.639 175.039L185.158 198.662V198.661Z" fill="#3693F0"/>
<path d="M99.9209 88.7855C99.821 88.3977 99.7927 88.0067 99.831 87.6289L96.8956 88.4427C96.3314 88.5991 95.982 89.1566 96.0785 89.7273C96.0835 89.7523 96.0868 89.7773 96.0918 89.8022L98.9141 101.754L99.202 102.975C99.3484 103.593 99.9708 103.972 100.587 103.817L103.622 103.058C103.582 102.95 103.547 102.839 103.517 102.724L99.9225 88.7838L99.9209 88.7855Z" fill="#3F66FB"/>
<path d="M98.9106 101.751C95.9568 106.44 92.5421 107.532 88.9676 108.108C88.5033 108.183 88.1089 108.203 87.7727 108.181C86.9374 108.126 86.4049 107.51 86.2934 106.82C86.1968 106.219 86.4165 105.56 87.0289 105.164C87.1337 105.096 87.2369 105.029 87.3351 104.961C90.4669 102.848 91.294 100.941 91.2291 99.4563C91.1742 98.2065 90.4852 97.2596 90.011 96.7488C89.7613 96.4825 89.4002 96.3494 89.0375 96.3927C88.0756 96.5091 85.9389 96.7637 83.8238 97C81.8253 97.223 79.845 97.4277 78.8964 97.481C76.5917 97.6091 75.8678 96.3278 75.8245 95.6937C75.7813 95.058 76.0375 93.5537 78.2142 93.171C80.1645 92.8265 93.3658 90.2521 96.0749 89.7246C96.0799 89.7479 96.0833 89.7729 96.0899 89.7995L98.9106 101.751Z" fill="#99CCFF"/>
<path d="M170.05 239.174C170.056 239.194 170.065 239.214 170.07 239.235C170.344 240.468 171.346 243.234 174.794 243.234C178.242 243.234 179.196 240.373 179.417 239.174C179.447 239.009 179.465 238.874 179.475 238.784C179.483 238.709 179.547 238.653 179.622 238.653H179.705L179.896 233.71H158.795C158.774 233.71 158.752 233.709 158.73 233.707L158.539 238.651H169.342C169.669 238.651 169.95 238.864 170.048 239.172L170.05 239.174Z" fill="white"/>
<path d="M179.902 233.712H179.986C180.481 233.712 180.882 233.311 180.882 232.815C180.882 232.319 180.481 231.918 179.986 231.918H158.803C158.307 231.918 157.906 232.319 157.906 232.815C157.906 233.311 158.274 233.675 158.738 233.709C158.76 233.709 158.782 233.712 158.803 233.712H179.904H179.902Z" fill="#CCCCCC"/>
<path d="M175.281 254.713C175.281 254.754 175.281 254.796 175.281 254.839V258.427H139V254.839C139 254.796 139 254.754 139 254.713H175.281Z" fill="#F2F2F2"/>
<path d="M180.333 238.654H179.621C179.546 238.654 179.481 238.71 179.475 238.784C179.465 238.873 179.446 239.008 179.415 239.173C179.193 240.373 178.3 243.233 174.792 243.233C171.284 243.233 170.342 240.469 170.069 239.234C170.063 239.215 170.056 239.195 170.049 239.173C169.951 238.867 169.67 238.652 169.344 238.652H157.806C157.535 238.652 157.276 238.762 157.089 238.958L151.604 244.711C150.801 245.553 149.82 246.205 148.734 246.623L143.157 248.768C140.686 249.718 139.042 252.071 138.992 254.709H175.273C175.323 252.071 176.967 249.718 179.436 248.768L180.481 248.367V238.798C180.481 238.715 180.415 238.65 180.333 238.65V238.654Z" fill="#48A1FA"/>
<path d="M218.893 258.425H175.273V254.837C175.273 254.794 175.273 254.753 175.273 254.711H219.643L220.058 257.029C220.187 257.756 219.63 258.425 218.891 258.425H218.893Z" fill="#F2F2F2"/>
<path d="M197.588 142.252H190.211V147.923H197.588V142.252Z" fill="#0036FF"/>
<path d="M199.611 40.4087L198.997 39.7696C199.087 38.6131 198.739 37.7561 198.739 37.7561C196.991 39.0691 198.681 41.1458 198.681 41.1458C198.807 40.8297 198.889 40.5201 198.94 40.2223C199.403 40.2106 199.611 40.407 199.611 40.407V40.4087ZM192.052 33.4727C190.588 34.2249 187.841 35.4946 184.76 36.1785C180.194 37.1903 180.364 34.1982 180.364 34.1982C180.364 34.1982 177.505 36.6594 174.262 36.6594C171.018 36.6594 170.336 34.1982 170.336 34.1982L170.424 34.0718C170.968 34.8456 172.053 35.3481 173.588 35.3881C176.613 35.4663 181.439 31.8086 181.439 31.8086C181.439 31.8086 180.643 34.5693 182.946 35.0519C184.907 35.4646 191.936 31.98 191.936 31.98C191.889 32.5708 191.941 33.0633 192.051 33.4727H192.052Z" fill="#80BFFF"/>
<path d="M196.472 47.2832C196.472 47.2832 196.381 47.4862 196.173 47.8257C195.126 49.5364 191.129 54.7084 181.096 54.7084V50.9742C182.637 51.2105 184.283 51.2937 185.992 51.2937C189.877 51.2937 193.432 49.8825 196.174 47.5461C196.276 47.4596 196.374 47.3731 196.474 47.2832H196.472ZM179.923 54.8299C179.923 54.8299 179.592 57.6106 185.547 60.0418C185.547 60.0418 180.103 58.4327 178.72 57.3593C177.337 56.286 177.297 55.5305 177.297 55.5305L179.923 54.8299Z" fill="#5E80FF"/>
<path opacity="0.5" d="M176.202 61.3646C176.072 61.323 171.914 59.9268 171.493 56.3307C171.461 56.0661 171.461 55.8098 171.49 55.5668C171.51 55.5602 171.528 55.5535 171.546 55.5469C172.027 52.891 175.242 51.4515 177.76 50.7227C177.316 50.8941 167.279 54.8929 176.202 61.3646Z" fill="#C9E2FB"/>
<path d="M186.801 12.8655C179.694 12.2032 182.539 17.5267 182.539 17.5267C182.539 17.5267 171.758 16.7595 170.839 20.3723C170.335 22.3509 173.465 23.7304 173.465 23.7304C173.465 23.7304 168.458 26.0901 168.26 28.5364C168.072 30.8445 170.514 31.1257 170.514 31.1257C170.514 31.1257 167.556 32.1208 167.13 29.1903C166.704 26.2599 171.255 23.7288 171.255 23.7288C171.255 23.7288 168.336 22.2511 170.288 19.1475C172.508 15.6213 180.87 16.3884 180.87 16.3884C180.87 16.3884 179.391 12.5477 184.228 12.3497C185.089 12.3147 185.957 12.5127 186.803 12.8655H186.801Z" fill="#1F3999"/>
<path d="M196.992 51.3808C196.992 51.3808 199.222 51.89 198.68 54.1532C198.68 54.1532 198.58 52.9384 196.172 52.3194V49.334L198.929 49.8598L196.994 51.3808H196.992Z" fill="#3F66FB"/>
<path d="M181.1 50.976V52.5968C180.94 52.6318 180.513 52.7266 179.366 52.9812C177.535 53.3839 177.299 55.534 177.299 55.534C176.008 53.1992 180.795 50.9277 180.795 50.9277C180.897 50.9444 180.997 50.961 181.1 50.976Z" fill="#2653FB"/>
<path d="M215.99 224.756H190.602C189.795 224.756 189.055 224.43 188.517 223.897C188.907 223.884 189.334 223.877 189.797 223.877C214.206 223.877 212.199 209.18 212.199 209.18L208.475 183.929C207.293 175.921 207.703 167.759 209.68 159.909C210.146 158.055 210.808 154.736 211.532 152.123C211.716 152.609 212.043 153.041 212.585 153.306C212.78 153.401 212.999 153.474 213.254 153.521C214.307 153.717 215.083 153.647 215.662 153.414L212.858 172.729L218.929 221.424C219.15 223.192 217.77 224.754 215.988 224.754L215.99 224.756ZM185.157 198.661L184.394 221.89C184.342 223.489 183.031 224.756 181.432 224.756H157.269C156.83 224.756 156.412 224.661 156.039 224.488C163.135 223.659 168.568 221.025 172.369 218.421C176.552 215.553 179.047 210.802 179.047 205.73V173.357C179.047 172.037 179.153 170.719 179.365 169.416L182.45 150.379H184.923L182.656 170.428C182.483 171.961 182.478 173.505 182.641 175.038L185.161 198.661H185.157Z" fill="#338CE6"/>
<path d="M159.079 224.758L159.016 226.991L180.01 229.778L180.245 224.758H159.079Z" fill="#80BFFF"/>
<path d="M193.047 224.758L193.311 227.034L214.85 229.895L214.213 224.758H193.047Z" fill="#80BFFF"/>
<path d="M217.57 150.719L217.795 151.772C217.499 151.235 217.57 150.719 217.57 150.719Z" fill="#5E80FF"/>
<path d="M224.083 141.88C224.063 143.127 223.931 146.398 223.149 149.82C223.104 150.013 223.061 150.199 223.019 150.377C222.384 153.048 221.863 154.173 219.668 153.96C218.881 153.885 218.381 153.512 218.067 153.03L217.799 151.772C218.075 152.278 218.679 152.804 219.971 152.938C221.951 153.145 222.402 142.839 222.402 142.839L210.737 138.426L224.083 141.88ZM98.9141 101.751C95.9603 106.44 92.5456 107.532 88.9711 108.108C88.5068 108.182 88.1124 108.202 87.7763 108.181C86.9409 108.126 86.4084 107.51 86.2969 106.82C92.271 108.502 96.9954 101.207 96.9954 101.207L96.0918 89.8008L98.9124 101.752L98.9141 101.751Z" fill="#80BFFF"/>
<path d="M90.7447 101.523C90.7048 100.887 90.5351 100.238 90.3204 99.6489C89.8578 98.3642 89.1872 97.3558 89.1872 97.3558L83.5625 97.5921C83.6124 97.3641 83.7089 97.1694 83.8271 97.0047C85.9422 96.7684 88.0789 96.5138 89.0407 96.3973C89.4035 96.3523 89.7646 96.4855 90.0142 96.7534C90.4885 97.2626 91.1774 98.2095 91.2323 99.4609C91.259 100.08 91.1308 100.774 90.7431 101.526L90.7447 101.523Z" fill="#5E80FF"/>
<path opacity="0.2" d="M210.125 137.932L207.401 139.238C207.04 139.411 206.72 139.664 206.469 139.975L204.639 142.25H199.936V147.92H206.008C205.898 148.228 205.799 148.525 205.709 148.81C205.522 149.396 205.489 149.922 205.571 150.376H172.257C171.14 150.376 170.174 149.73 169.711 148.792C172.027 148.461 174.252 148.086 176.392 147.673C180.431 146.891 184.16 145.969 187.6 144.949C188.492 144.685 189.364 144.415 190.216 144.136C192.073 143.533 193.839 142.901 195.518 142.25C201.51 139.922 206.384 137.331 210.297 134.807C210.416 134.872 210.543 134.93 210.673 134.981L210.06 137.275C209.999 137.504 210.029 137.734 210.125 137.93V137.932Z" fill="#808080"/>
<path d="M214.466 99.3177L172.968 100.268C171.552 100.301 170.419 101.449 170.404 102.866L170.39 104.169L170.241 118.761L169.929 149.164C169.848 149.049 169.775 148.926 169.713 148.798C169.668 148.71 169.63 148.617 169.595 148.522L169.422 146.305V102.142C169.422 100.574 170.693 99.3027 172.259 99.3027H214.461L214.467 99.3194L214.466 99.3177Z" fill="#F2F2F2"/>
<path d="M181.273 60.2305C181.273 60.2305 177.963 58.9042 176.781 58.0938C176.781 58.0938 178.424 60.3952 180.857 60.9177L181.348 60.6831L181.273 60.2305Z" fill="#3F66FB"/>
<path d="M176.719 58.293C176.719 58.293 178.355 62.5381 183.938 62.39L183.012 60.9622L181.984 61.3183C181.984 61.3183 177.867 59.7857 176.719 58.293ZM197.808 58.3346C197.808 58.3346 192.474 59.9854 191.612 59.8905L191.521 61.0371C191.521 61.0371 197.026 59.3014 197.808 58.3346Z" fill="#3F66FB"/>
<path d="M197.552 58.5675C197.552 58.5675 194.377 61.879 189 62.5613C189 62.5613 189.581 61.0752 190.018 61.0386C190.018 61.0386 190.446 61.4547 191.08 61.3032C191.714 61.1518 196.963 59.2015 197.55 58.5658L197.552 58.5675ZM203.325 58.416C203.325 58.416 201.063 63.3933 193.788 62.4531C193.788 62.4531 200.243 60.4828 201.264 59.6874C202.286 58.892 203.325 58.416 203.325 58.416Z" fill="#3F66FB"/>
<path d="M214.457 99.2996H202.906L205.372 98.0066C207.963 96.6487 209.391 93.7831 208.917 90.8959L206.288 74.9355L214.458 99.2996H214.457Z" fill="#325CFB"/>
<path opacity="0.4" d="M217.071 240.328C217.071 240.328 219.006 254.711 206.337 254.711H219.65L217.069 240.328H217.071ZM180.489 241.203V248.371L179.444 248.772C176.974 249.722 175.33 252.075 175.28 254.713H168.617C179.029 254.713 180.489 241.203 180.489 241.203Z" fill="#234DEB"/>
<path d="M218.893 258.425H175.273C194.138 258.425 206.331 254.713 206.331 254.713H219.645L220.059 257.031C220.189 257.758 219.632 258.427 218.893 258.427V258.425Z" fill="#E6E6E6"/>
<path d="M175.281 254.712C175.281 254.754 175.281 254.795 175.281 254.838V258.426H139C156.401 258.426 168.619 254.714 168.619 254.714H175.282L175.281 254.712ZM215.995 238.653H215.908C215.833 238.653 215.768 238.71 215.762 238.783C215.752 238.873 215.733 239.008 215.702 239.173C215.48 240.372 214.587 243.233 211.079 243.233C209.029 243.233 207.842 242.254 207.161 241.203C213.788 243.98 213.565 235.808 213.565 235.808L204.517 233.709H215.108C215.189 233.709 215.267 233.698 215.344 233.678L215.993 238.652L215.995 238.653ZM179.904 233.711L179.712 238.653H179.627C179.552 238.653 179.488 238.71 179.481 238.783C179.471 238.873 179.453 239.008 179.421 239.173C179.2 240.372 178.306 243.233 174.798 243.233C172.508 243.233 171.298 242.013 170.663 240.833C177.486 244.832 177.883 235.894 177.883 235.894L168.616 233.711H179.902H179.904Z" fill="#E6E6E6"/>
<path opacity="0.2" d="M207.312 144.661C207.442 144.359 207.574 144.06 207.707 143.764C207.574 143.824 207.442 143.88 207.312 143.933V144.661Z" fill="#808080"/>
<path d="M238.45 109.387L235.836 118.76L231.138 135.609C230.646 137.374 228.887 138.469 227.085 138.131L226.264 137.977L211.316 135.168C211.091 135.126 210.876 135.063 210.672 134.983C209.908 134.682 209.295 134.134 208.906 133.454C208.455 132.672 208.304 131.716 208.561 130.77L208.771 129.999L211.089 121.49L211.136 121.321L211.831 118.76L214.752 108.036L215.933 112.999C222.432 112.999 226.574 108.567 228.757 105.262C230.047 103.312 230.509 100.929 230.075 98.6324L224.424 68.7951C223.54 64.1257 220.48 60.1585 216.19 58.115L212.196 56.2129L212.602 56.3077L217.133 57.3744C222.324 58.5376 226.505 62.3667 228.121 67.4339L238.267 99.2565C238.272 99.2714 238.276 99.2864 238.281 99.2997C238.782 100.884 239.053 102.523 239.096 104.166C239.143 105.918 238.93 107.677 238.454 109.386L238.45 109.387ZM163.318 76.2586V85.1566L163.073 86.1367L146.108 94.8882C145.039 95.439 143.908 95.8584 142.736 96.1363L107.509 105.136C105.858 105.527 104.198 104.615 103.618 103.061C103.578 102.952 103.544 102.841 103.514 102.726L101.781 96.0115C102.715 96.5174 103.653 97.0282 104.612 97.391C107.735 98.5759 111.235 98.283 114.512 97.619C125.548 95.3841 136.075 92.5368 146.233 88.1686C161.321 81.6803 163.32 76.2603 163.32 76.2603L163.318 76.2586Z" fill="#4B70FB"/>
<path d="M238.447 109.387L235.832 118.759L231.135 135.608C230.642 137.374 228.883 138.469 227.081 138.131L226.26 137.976L211.312 135.167C211.087 135.126 210.872 135.063 210.668 134.983C209.904 134.681 209.292 134.134 208.902 133.453C208.451 132.671 208.3 131.716 208.558 130.769C224.863 134.969 228.116 127.592 228.116 127.592L234.351 107.876C235.323 104.801 235.478 101.524 234.797 98.3725L228.116 67.4336L238.262 99.2561C238.267 99.2711 238.27 99.2861 238.275 99.2994C238.776 100.884 239.047 102.523 239.091 104.165C239.137 105.918 238.924 107.676 238.448 109.386L238.447 109.387ZM163.314 75.9604V86.0099L146.104 94.8862C145.036 95.437 143.904 95.8564 142.733 96.1343L107.505 105.134C105.855 105.525 104.194 104.613 103.615 103.059C103.575 102.95 103.54 102.839 103.51 102.724L101.25 93.9593C101.736 95.7948 102.382 97.221 103.092 98.3309C104.863 101.097 108.246 102.366 111.411 101.488L143.753 92.5082C144.653 92.2586 145.523 91.9125 146.35 91.4748L158.978 84.7968C159.607 84.464 160.098 83.9198 160.365 83.2592L163.316 75.9604H163.314Z" fill="#325CFB"/>
<path opacity="0.1" d="M135.367 84.3188C131.752 85.254 127.91 82.4749 126.782 78.1133C126.778 78.1 126.775 78.0867 126.773 78.0734L132.981 76.386C134.894 75.1579 136.934 73.8865 139.046 72.6035C139.392 73.2558 139.672 73.9681 139.868 74.7302C140.996 79.0918 138.981 83.3852 135.367 84.3188Z" fill="white"/>
<path opacity="0.2" d="M172.482 175.305C172.003 180.676 166.212 184.549 159.549 183.953C158.163 183.828 156.848 183.522 155.638 183.063L155.726 179.503C155.475 174.384 155.72 171.963 156.144 169.572L157.003 164.736C158.354 164.458 159.798 164.367 161.286 164.5C167.949 165.095 172.96 169.933 172.481 175.305H172.482ZM204.573 175.38C204.573 181.056 199.193 185.657 192.555 185.657C188.875 185.657 185.584 184.244 183.379 182.014L182.635 175.035C182.472 173.502 182.477 171.958 182.65 170.426L182.765 169.417C184.945 166.803 188.516 165.099 192.556 165.099C199.194 165.099 204.574 169.7 204.574 175.376L204.573 175.38Z" fill="white"/>
<path d="M185.551 60.3384C185.528 60.3384 185.506 60.3351 185.483 60.3301C185.47 60.3267 184.13 60.0106 182.551 59.4664C182.396 59.4132 182.315 59.2451 182.368 59.0903C182.421 58.9356 182.589 58.854 182.744 58.9073C184.115 59.3799 185.3 59.6777 185.565 59.7426C185.926 59.6877 187.968 59.3632 190.301 58.7974C190.459 58.7592 190.62 58.8557 190.658 59.0154C190.697 59.1752 190.6 59.3349 190.44 59.3732C187.853 60.0022 185.616 60.3351 185.595 60.3384C185.58 60.3401 185.566 60.3417 185.551 60.3417V60.3384Z" fill="#2F56EB"/>
<path d="M182.441 59.4128C182.408 59.4128 182.375 59.4078 182.343 59.3961C178.937 58.1963 177.14 56.9066 177.002 55.562C176.985 55.399 177.103 55.2542 177.266 55.2375C177.429 55.2209 177.574 55.339 177.591 55.5021C177.7 56.5672 179.458 57.752 182.54 58.837C182.694 58.8919 182.774 59.06 182.721 59.2147C182.678 59.3362 182.563 59.4128 182.441 59.4128ZM198.463 55.5021C198.422 55.5021 198.38 55.4938 198.342 55.4755C198.192 55.4073 198.127 55.2326 198.194 55.0828C198.42 54.5836 198.452 54.1542 198.289 53.8064C198.071 53.3421 197.477 52.966 196.575 52.7198C196.417 52.6765 196.323 52.5134 196.367 52.3553C196.41 52.1972 196.573 52.104 196.731 52.1473C197.823 52.4452 198.527 52.9178 198.826 53.5535C199.068 54.066 199.036 54.6618 198.735 55.3257C198.685 55.4356 198.577 55.5005 198.465 55.5005L198.463 55.5021ZM190.368 59.3795C190.234 59.3795 190.113 59.288 190.08 59.1532C190.041 58.9934 190.138 58.8337 190.298 58.7954L190.452 58.7571C190.611 58.7188 190.772 58.8154 190.81 58.9734C190.849 59.1332 190.752 59.2929 190.594 59.3312L190.437 59.3695C190.414 59.3745 190.391 59.3778 190.368 59.3778V59.3795Z" fill="#2F56EB"/>
<path d="M190.521 59.3431C190.388 59.3431 190.266 59.2532 190.233 59.1168C190.195 58.957 190.291 58.7972 190.449 58.759C194.859 57.674 197.608 56.3693 198.189 55.0847C198.257 54.9349 198.432 54.87 198.582 54.9365C198.731 55.0048 198.796 55.1795 198.73 55.3293C198.052 56.8253 195.313 58.1732 190.591 59.3348C190.567 59.3414 190.542 59.3431 190.519 59.3431H190.521ZM182.643 59.4845C182.611 59.4845 182.578 59.4795 182.546 59.4679L182.342 59.3963C182.187 59.3414 182.107 59.1733 182.16 59.0186C182.215 58.8638 182.383 58.7839 182.538 58.8372L182.738 58.9071C182.892 58.9603 182.974 59.1284 182.921 59.2832C182.879 59.4063 182.763 59.4829 182.641 59.4829L182.643 59.4845ZM177.294 55.8285C177.145 55.8285 177.017 55.7153 177 55.5622C176.843 54.0529 178.073 52.9013 180.46 52.3189C180.619 52.2806 180.779 52.3772 180.817 52.5369C180.856 52.6967 180.759 52.8564 180.599 52.8947C179.404 53.1859 177.424 53.9131 177.587 55.5007C177.604 55.6638 177.486 55.8085 177.323 55.8252C177.313 55.8252 177.303 55.8252 177.293 55.8252L177.294 55.8285ZM180.336 63.1605C177.17 62.4466 171.032 59.9255 171.19 56.0315C171.199 55.8684 171.339 55.742 171.502 55.7503C171.663 55.7586 171.788 55.8951 171.783 56.0548C171.776 56.5091 171.871 56.9601 172.054 57.3811C173.224 59.8739 176.61 61.2951 179.042 62.2935C179.503 62.4732 179.97 62.653 180.435 62.8194C180.636 62.8926 180.554 63.2054 180.338 63.1605H180.336ZM182.255 61.6628C182.074 61.6628 181.897 61.6212 181.733 61.538C181.586 61.4648 181.526 61.2867 181.599 61.1403C181.673 60.9939 181.851 60.934 181.997 61.0072C182.08 61.0488 182.167 61.0687 182.255 61.0687C182.418 61.0687 182.551 61.2019 182.551 61.365C182.551 61.528 182.418 61.6612 182.255 61.6612V61.6628Z" fill="#2F56EB"/>
<path d="M182.257 61.6626C182.094 61.6626 181.961 61.5295 181.961 61.3664C181.961 61.2033 182.094 61.0702 182.257 61.0702C182.452 61.0702 182.64 60.967 182.771 60.7873C182.868 60.6558 183.054 60.6259 183.186 60.724C183.317 60.8206 183.347 61.0069 183.249 61.1384C183.004 61.4712 182.643 61.6626 182.257 61.6626Z" fill="#2F56EB"/>
<path d="M183.005 61.2572C182.944 61.2572 182.884 61.2389 182.831 61.2006C182.699 61.1041 182.669 60.9177 182.767 60.7863C182.881 60.6315 182.942 60.4351 182.942 60.2305C182.942 59.8877 182.772 59.5815 182.509 59.4517C182.363 59.3801 182.301 59.202 182.375 59.0556C182.446 58.9092 182.624 58.8493 182.771 58.9208C183.235 59.1488 183.535 59.663 183.535 60.2305C183.535 60.5599 183.431 60.8811 183.245 61.1374C183.187 61.2173 183.097 61.2589 183.005 61.2589V61.2572Z" fill="#2F56EB"/>
<path d="M181.867 61.5686C181.822 61.5686 181.777 61.5586 181.735 61.537C181.274 61.3074 180.977 60.7948 180.977 60.2307C180.977 59.3504 181.695 58.6498 182.506 58.8262C182.666 58.8611 182.767 59.0192 182.732 59.179C182.697 59.3387 182.539 59.4402 182.379 59.4053C182.338 59.3953 182.296 59.392 182.258 59.392C181.878 59.392 181.569 59.7681 181.569 60.2307C181.569 60.5718 181.737 60.8764 182 61.0078C182.146 61.081 182.206 61.2591 182.133 61.4055C182.082 61.5087 181.977 61.5703 181.867 61.5703V61.5686Z" fill="#2F56EB"/>
<path d="M182.648 59.4842C182.605 59.4842 182.56 59.4742 182.516 59.4542C182.475 59.4343 182.43 59.4176 182.382 59.4076C182.222 59.3727 182.12 59.2146 182.155 59.0548C182.19 58.8951 182.348 58.7936 182.508 58.8285C182.603 58.8485 182.693 58.8801 182.778 58.9234C182.924 58.9949 182.984 59.173 182.912 59.3194C182.861 59.4243 182.756 59.4842 182.646 59.4842H182.648ZM190.371 59.3793C190.249 59.3793 190.135 59.3028 190.091 59.1813C190.037 59.0266 190.118 58.8585 190.273 58.8036C190.338 58.7803 190.406 58.7636 190.481 58.752C190.641 58.7254 190.794 58.8368 190.819 58.9999C190.844 59.1613 190.734 59.3128 190.571 59.3377C190.532 59.3444 190.497 59.3527 190.469 59.3627C190.436 59.3743 190.403 59.3793 190.371 59.3793ZM190.659 61.6009C190.276 61.6009 189.917 61.4129 189.672 61.0834C189.574 60.9519 189.602 60.7672 189.734 60.669C189.865 60.5708 190.051 60.5991 190.148 60.7306C190.279 60.907 190.466 61.0085 190.659 61.0085C190.822 61.0085 190.955 61.1416 190.955 61.3047C190.955 61.4678 190.822 61.6009 190.659 61.6009Z" fill="#2F56EB"/>
<path d="M189.908 61.2002C189.816 61.2002 189.728 61.1587 189.67 61.0804C189.48 60.8242 189.375 60.4997 189.375 60.1668C189.375 59.5395 189.734 58.9903 190.27 58.8023C190.425 58.7474 190.593 58.8289 190.648 58.9837C190.703 59.1384 190.621 59.3065 190.467 59.3614C190.172 59.4646 189.967 59.7958 189.967 60.1668C189.967 60.3732 190.031 60.5729 190.145 60.7277C190.244 60.8591 190.215 61.0455 190.084 61.142C190.031 61.1819 189.969 61.2002 189.908 61.2002Z" fill="#2F56EB"/>
<path d="M191.139 61.4521C191.042 61.4521 190.947 61.4055 190.891 61.3173C190.801 61.1809 190.839 60.9962 190.977 60.9063C191.204 60.7582 191.343 60.4753 191.343 60.1675C191.343 59.7048 191.034 59.3287 190.654 59.3287C190.629 59.3287 190.603 59.3321 190.568 59.3371C190.408 59.362 190.255 59.2522 190.23 59.0908C190.205 58.9294 190.315 58.7779 190.476 58.7513C190.541 58.7413 190.598 58.7363 190.654 58.7363C191.362 58.7363 191.936 59.3787 191.936 60.1675C191.936 60.6733 191.693 61.1476 191.302 61.4022C191.252 61.4355 191.195 61.4505 191.14 61.4505L191.139 61.4521Z" fill="#2F56EB"/>
<path d="M190.656 61.6003C190.493 61.6003 190.36 61.4671 190.36 61.3041C190.36 61.141 190.493 61.0079 190.656 61.0079C190.769 61.0079 190.877 60.9746 190.979 60.908C191.115 60.8182 191.3 60.8564 191.39 60.9929C191.48 61.1293 191.441 61.3141 191.305 61.4039C191.109 61.5321 190.884 61.6003 190.658 61.6003H190.656ZM182.259 61.6619C182.242 61.6619 182.226 61.6619 182.207 61.6569C182.201 61.6569 182.049 61.6286 181.788 61.557C181.63 61.5137 181.537 61.3507 181.582 61.1926C181.625 61.0345 181.788 60.9413 181.946 60.9862C182.176 61.0495 182.307 61.0728 182.309 61.0728C182.47 61.1011 182.578 61.2542 182.55 61.4156C182.525 61.5587 182.4 61.6602 182.259 61.6602V61.6619Z" fill="#2F56EB"/>
<path d="M176.836 58.1602C178.006 59.0538 179.24 59.8759 180.588 60.4716C181.034 60.668 181.49 60.8444 181.95 60.9858C182.309 61.1057 182.163 61.6398 181.79 61.5566C180.788 61.302 179.853 60.8594 178.976 60.3285C178.107 59.796 177.305 59.157 176.598 58.4248C176.446 58.27 176.664 58.0254 176.836 58.1602ZM191.056 60.8727C193.279 60.1105 195.638 59.395 197.749 58.3682C197.943 58.2667 198.115 58.5446 197.933 58.6727C196.406 59.6812 194.672 60.2936 192.959 60.896C192.388 61.0907 191.813 61.2721 191.232 61.4385C191.074 61.4834 190.911 61.3919 190.866 61.2355C190.823 61.0824 190.907 60.9226 191.057 60.8727H191.056Z" fill="#2F56EB"/>
<path d="M190.653 61.6009C190.525 61.6009 190.407 61.5177 190.369 61.3879C190.322 61.2315 190.412 61.0668 190.569 61.0202C190.569 61.0202 190.748 60.9669 191.049 60.8737C191.206 60.8255 191.372 60.912 191.421 61.0684C191.469 61.2249 191.382 61.3913 191.226 61.4395C190.918 61.5344 190.737 61.5893 190.737 61.5893C190.708 61.5976 190.68 61.6009 190.652 61.6009H190.653ZM203.276 58.6638C201.953 59.7372 200.403 60.4793 198.832 61.1034C197.263 61.7141 195.646 62.215 193.997 62.5611C193.779 62.6027 193.694 62.2832 193.91 62.2167C196.28 61.4578 198.644 60.6308 200.894 59.5641C201.637 59.2013 202.369 58.8202 203.064 58.3776C203.247 58.2578 203.449 58.519 203.276 58.6638ZM211.084 121.788C211.059 121.788 211.032 121.785 211.005 121.778C210.847 121.735 210.754 121.572 210.797 121.414L210.844 121.242C210.887 121.084 211.05 120.991 211.208 121.034C211.366 121.077 211.46 121.241 211.416 121.399L211.37 121.57C211.333 121.702 211.215 121.788 211.084 121.788ZM225.746 138.178C225.728 138.178 225.709 138.178 225.691 138.173L211.258 135.46C211.162 135.442 211.062 135.419 210.965 135.394C210.807 135.35 210.714 135.187 210.757 135.029C210.801 134.871 210.964 134.778 211.122 134.821C211.205 134.843 211.288 134.863 211.37 134.878L225.803 137.59C225.964 137.62 226.069 137.775 226.039 137.936C226.012 138.08 225.887 138.178 225.748 138.178H225.746ZM214.309 99.163C214.185 99.163 214.069 99.0848 214.027 98.96L206.003 75.0286C205.951 74.8738 206.035 74.7057 206.189 74.6541C206.344 74.6025 206.512 74.6858 206.564 74.8405L214.588 98.7719C214.64 98.9267 214.557 99.0948 214.402 99.1463C214.37 99.1563 214.339 99.1613 214.307 99.1613L214.309 99.163ZM204.144 54.1375L205.915 54.432C206.324 54.5152 206.183 55.1176 205.778 55.0095L204.063 54.4836C203.853 54.417 203.928 54.1025 204.144 54.1375ZM163.314 85.985C163.151 85.985 163.018 85.8519 163.018 85.6888V75.4895C163.018 75.3264 163.151 75.1933 163.314 75.1933C163.477 75.1933 163.61 75.3264 163.61 75.4895V85.6888C163.61 85.8519 163.477 85.985 163.314 85.985ZM103.511 103.022C103.38 103.022 103.258 102.934 103.225 102.799L99.6306 88.8589C99.5623 88.5926 99.5224 88.3181 99.5158 88.0435C99.5108 87.8804 99.6406 87.7439 99.8037 87.7389C99.9617 87.734 100.103 87.8638 100.108 88.0268C100.115 88.2565 100.146 88.4845 100.205 88.7091L103.799 102.649C103.841 102.807 103.744 102.969 103.586 103.01C103.561 103.017 103.536 103.02 103.511 103.02V103.022Z" fill="#2F56EB"/>
<path d="M185.089 198.394C184.902 198.394 184.741 198.253 184.721 198.063L182.27 175.077C182.103 173.521 182.108 171.943 182.285 170.387L184.495 150.844C184.518 150.641 184.699 150.495 184.904 150.518C185.107 150.541 185.253 150.724 185.23 150.927L183.02 170.471C182.85 171.973 182.845 173.496 183.005 174.999L185.456 197.986C185.478 198.189 185.33 198.373 185.127 198.394C185.114 198.394 185.1 198.396 185.087 198.396L185.089 198.394Z" fill="#153BCC"/>
<path d="M217.584 150.676H217.554C217.391 150.676 217.258 150.543 217.258 150.38C217.258 150.217 217.391 150.084 217.554 150.084H217.584C217.747 150.084 217.88 150.217 217.88 150.38C217.88 150.543 217.747 150.676 217.584 150.676Z" fill="#2F56EB"/>
<path d="M217.554 150.75C217.525 150.75 217.497 150.747 217.469 150.74C217.269 150.694 217.146 150.494 217.193 150.294C217.212 150.208 217.232 150.123 217.252 150.04C217.299 149.847 217.49 149.723 217.687 149.765C217.881 149.805 218.011 149.991 217.978 150.188C217.978 150.193 217.963 150.278 217.951 150.412C217.933 150.609 217.765 150.76 217.569 150.749C217.564 150.749 217.559 150.749 217.554 150.749V150.75ZM209.038 141.4C208.849 141.94 208.626 142.533 208.428 143.072C208.301 143.398 208.17 143.991 207.697 143.769C207.293 143.528 207.642 143.077 207.789 142.782C208.062 142.273 208.358 141.709 208.639 141.208C208.776 140.969 209.14 141.145 209.04 141.4H209.038ZM91.2286 99.8271C91.0322 99.8271 90.8675 99.6723 90.8591 99.4726C90.8092 98.3128 90.1369 97.4275 89.7409 97.0031C89.5728 96.8234 89.3265 96.7335 89.0835 96.7618C88.0285 96.89 85.9467 97.1379 83.8649 97.3692C83.6619 97.3925 83.4789 97.2461 83.4556 97.0414C83.4323 96.8384 83.5787 96.6553 83.7834 96.632C85.8618 96.4007 87.9403 96.1528 88.9953 96.0246C89.4729 95.9664 89.9555 96.1428 90.2834 96.4956C90.7493 96.9948 91.5397 98.0415 91.6013 99.4394C91.6096 99.644 91.4516 99.8171 91.2469 99.8254C91.2419 99.8254 91.2352 99.8254 91.2302 99.8254L91.2286 99.8271Z" fill="#80BFFF"/>
<path d="M87.3402 105.334C87.2204 105.334 87.1039 105.277 87.0324 105.17C86.9175 105.001 86.9625 104.771 87.1322 104.656C89.6833 102.936 90.938 101.192 90.8631 99.4743C90.8548 99.2696 91.0129 99.0965 91.2176 99.0882C91.4223 99.0799 91.5953 99.238 91.6037 99.4427C91.6902 101.435 90.3256 103.397 87.5466 105.27C87.4833 105.314 87.4118 105.334 87.3402 105.334ZM87.7047 102.782C87.6614 102.782 87.6165 102.774 87.5715 102.758C87.3802 102.684 87.2853 102.47 87.3585 102.278L88.2838 99.867C88.357 99.6756 88.5717 99.5808 88.763 99.654C88.9544 99.7272 89.0493 99.9419 88.976 100.133L88.0508 102.545C87.9942 102.693 87.8544 102.782 87.7047 102.782Z" fill="#80BFFF"/>
<path d="M88.6256 100.371C88.579 100.371 88.5307 100.363 88.4858 100.343L86.2459 99.4258C86.0562 99.3476 85.9664 99.1312 86.0429 98.9432C86.1211 98.7535 86.3375 98.6636 86.5255 98.7402L88.7654 99.6571C88.9551 99.7353 89.0449 99.9516 88.9684 100.14C88.9101 100.283 88.772 100.369 88.6256 100.369V100.371Z" fill="#80BFFF"/>
<path d="M88.6284 100.37C88.457 100.37 88.3023 100.251 88.2657 100.076C88.224 99.8762 88.3522 99.6798 88.5519 99.6382L91.1562 99.0957C91.3575 99.0541 91.5522 99.1823 91.5938 99.3819C91.6355 99.5816 91.5073 99.778 91.3076 99.8196L88.7033 100.362C88.6783 100.367 88.6517 100.37 88.6268 100.37H88.6284Z" fill="#80BFFF"/>
<path d="M185.119 74.0351C185.107 74.0351 185.094 74.0351 185.081 74.0335C184.918 74.0135 184.803 73.8637 184.824 73.7023C185.791 66.0924 183.957 62.5712 182.779 61.15C182.674 61.0236 182.693 60.8372 182.817 60.7323C182.944 60.6275 183.13 60.6458 183.235 60.7706C184.475 62.2666 186.407 65.9443 185.413 73.7755C185.395 73.9253 185.267 74.0351 185.121 74.0351H185.119Z" fill="#2F56EB"/>
<path d="M183.009 61.2582C182.924 61.2582 182.839 61.2215 182.781 61.1517C182.386 60.6774 182.095 60.481 182.093 60.4777C181.957 60.3878 181.92 60.2031 182.01 60.0667C182.1 59.9302 182.283 59.8919 182.419 59.9818C182.434 59.9918 182.781 60.2214 183.238 60.7722C183.343 60.8987 183.325 61.0851 183.2 61.1899C183.145 61.2365 183.078 61.2582 183.01 61.2582H183.009ZM189.905 61.2016C189.841 61.2016 189.776 61.1816 189.723 61.14C189.593 61.0402 189.57 60.8538 189.67 60.724C190.118 60.1465 190.465 59.9352 190.504 59.9119C190.645 59.8287 190.826 59.877 190.908 60.0184C190.99 60.1598 190.943 60.3396 190.803 60.4228C190.795 60.4278 190.51 60.6042 190.138 61.0851C190.079 61.16 189.991 61.1999 189.903 61.1999L189.905 61.2016Z" fill="#2F56EB"/>
<path d="M188.334 75.0887C188.189 75.0887 188.061 74.9822 188.041 74.8324C186.811 65.9778 188.535 62.1919 189.672 60.7225C189.772 60.5927 189.958 60.5694 190.088 60.6693C190.218 60.7691 190.241 60.9555 190.141 61.0853C189.061 62.4798 187.429 66.1109 188.629 74.7509C188.65 74.9123 188.537 75.0621 188.376 75.0854C188.362 75.087 188.347 75.0887 188.334 75.0887Z" fill="#2F56EB"/>
<path d="M211.113 150.751C211.058 150.751 211.003 150.739 210.95 150.712C210.767 150.622 210.69 150.401 210.78 150.216C210.913 149.945 211.021 149.646 211.103 149.326C211.153 149.128 211.354 149.008 211.552 149.058C211.75 149.108 211.87 149.309 211.82 149.507C211.727 149.877 211.6 150.226 211.445 150.543C211.381 150.674 211.249 150.751 211.113 150.751Z" fill="#80BFFF"/>
<path d="M198.846 37.9484C198.168 38.9785 198.183 39.967 198.846 41.0004C198.98 41.215 198.703 41.453 198.512 41.2932C197.249 40.2615 197.264 38.6923 198.512 37.6572C198.705 37.4924 198.983 37.7404 198.846 37.9501V37.9484Z" fill="#5E80FF"/>
<path d="M197.903 39.2028C198.452 39.1412 199.009 39.3325 199.397 39.7203C199.547 39.8983 199.931 40.2328 199.648 40.4392C199.544 40.5057 199.405 40.4708 199.341 40.3676C199.056 39.925 198.513 39.6571 197.993 39.7486C197.62 39.8118 197.53 39.261 197.903 39.2011V39.2028Z" fill="#5E80FF"/>
<path d="M202.01 37.5548C201.902 37.3485 201.776 37.1521 201.636 36.9674C200.897 36.0072 199.737 35.3882 198.432 35.3882C197.597 35.3882 196.822 35.6411 196.178 36.0754V38.921C196.178 39.5651 195.655 40.0892 195.011 40.0892C194.796 40.0892 194.597 40.0293 194.424 39.9295C194.077 39.7281 193.844 39.3537 193.844 38.9227V35.3898C193.844 35.3898 191.711 34.9106 191.937 31.9818C191.937 31.9818 184.908 35.4647 182.948 35.0537C182.841 35.032 182.742 35.0054 182.648 34.9721C188.148 34.2649 192.052 29.1378 192.052 29.1378C189.659 29.5638 188.128 28.7118 188.128 28.7118C196.72 27.6867 196.975 22.2817 196.975 22.2817C200.333 21.7426 198.837 20.2266 198.837 20.2266C199.371 20.3281 199.84 20.4945 200.043 20.7741C200.641 21.5994 198.451 22.8791 198.451 22.8791C198.451 22.8791 204.889 27.8332 202.009 37.5565L202.01 37.5548Z" fill="#091A59"/>
<path d="M185.368 75.505L184.303 75.3369C184.198 75.3203 184.13 75.2205 184.153 75.1173L184.481 73.6479C184.502 73.5547 184.592 73.4931 184.687 73.5081L185.564 73.6462C185.659 73.6612 185.726 73.7477 185.717 73.8426L185.577 75.3419C185.567 75.4468 185.471 75.5217 185.368 75.505ZM189.11 76.3454L188.044 76.5018C187.939 76.5168 187.844 76.4419 187.836 76.3371L187.711 74.836C187.703 74.7395 187.771 74.6547 187.866 74.6397L188.743 74.5099C188.837 74.4966 188.927 74.5581 188.947 74.653L189.26 76.1257C189.282 76.2289 189.212 76.3287 189.109 76.3437L189.11 76.3454Z" fill="#1948FB"/>
</svg>
