<svg width="373" height="260" viewBox="0 0 373 260" fill="none" xmlns="http://www.w3.org/2000/svg">
<path fill-rule="evenodd" clip-rule="evenodd" d="M368.616 70.0265C337.598 62.0554 312.403 79.3854 311.844 115.142C345.904 121.393 367.999 103.92 368.616 70.0265Z" fill="#D2DFEC"/>
<path fill-rule="evenodd" clip-rule="evenodd" d="M365.184 71.5682C365.386 71.4061 365.681 71.4372 365.846 71.6393C366.008 71.8413 365.977 72.1388 365.775 72.3009L346.675 87.6859L359.633 93.2923C359.871 93.3967 359.982 93.672 359.877 93.9118C359.775 94.1494 359.498 94.2604 359.258 94.156L345.844 88.352L340.54 92.624C340.48 92.7572 340.36 92.8616 340.207 92.8927L336.139 96.1677L349.548 104.57C349.768 104.707 349.835 104.998 349.697 105.218C349.559 105.438 349.268 105.504 349.048 105.367L335.364 96.7916L330.597 100.631C330.582 100.644 330.566 100.657 330.551 100.668L325.71 104.567L335.38 111.129C335.593 111.275 335.651 111.566 335.504 111.781C335.358 111.997 335.067 112.052 334.851 111.906L324.944 105.185L312.133 115.505C311.931 115.667 311.635 115.636 311.471 115.434C311.309 115.232 311.34 114.934 311.542 114.772L320.157 107.834L317.721 98.8988C317.652 98.6479 317.799 98.3903 318.05 98.3215C318.301 98.2526 318.558 98.3992 318.627 98.6501L320.956 107.19L329.731 100.122L324.715 84.7417C324.635 84.493 324.771 84.2288 325.017 84.1466C325.264 84.0667 325.53 84.2021 325.612 84.4486L330.517 99.4894L335.027 95.8569L335.045 95.8413L339.583 92.1844L336.499 75.9468C336.45 75.6914 336.619 75.445 336.874 75.3961C337.13 75.3473 337.376 75.516 337.425 75.7714L340.416 91.516L345.463 87.4505L345.487 87.4305L350.883 83.0853L350.005 70.8821C349.985 70.6223 350.181 70.3981 350.441 70.3781C350.7 70.3603 350.925 70.5535 350.942 70.8133L351.773 82.3681L365.184 71.5682Z" fill="white"/>
<path fill-rule="evenodd" clip-rule="evenodd" d="M3.28906 57.6573C34.3077 49.6862 59.5022 67.0162 60.0618 102.773C26.0013 109.023 3.90411 91.5513 3.28906 57.6573Z" fill="#D2DFEC"/>
<path fill-rule="evenodd" clip-rule="evenodd" d="M6.7185 59.1988C6.51645 59.0367 6.22114 59.0678 6.05683 59.2698C5.89474 59.4719 5.92583 59.7694 6.12788 59.9315L25.2275 75.3165L12.2694 80.9229C12.0319 81.0273 11.9208 81.3026 12.0252 81.5424C12.1295 81.78 12.4071 81.891 12.6447 81.7867L26.058 75.9848L31.3624 80.2568C31.4224 80.39 31.5423 80.4922 31.6955 80.5255L35.7632 83.8027L22.3544 92.2046C22.1345 92.3423 22.0679 92.6332 22.2056 92.853C22.3433 93.0728 22.6341 93.1394 22.8539 93.0017L36.5381 84.4267L41.3052 88.2657C41.3208 88.279 41.3363 88.2923 41.3519 88.3034L46.1923 92.2024L36.5226 98.7636C36.3094 98.9102 36.2517 99.201 36.3982 99.4164C36.5448 99.6318 36.8356 99.6873 37.051 99.5407L46.9583 92.8197L59.7699 103.14C59.9719 103.302 60.2672 103.271 60.4315 103.069C60.5936 102.867 60.5625 102.572 60.3605 102.407L51.7454 95.4686L54.1812 86.5338C54.25 86.2829 54.1035 86.0253 53.8526 85.9565C53.6017 85.8877 53.3441 86.0342 53.2753 86.2851L50.9461 94.8247L42.1712 87.7572L47.187 72.3767C47.2692 72.1303 47.1315 71.8638 46.885 71.7817C46.6386 71.7017 46.3721 71.8372 46.29 72.0836L41.3852 87.1244L36.8756 83.4919L36.8578 83.4764L32.3194 79.8194L35.4035 63.5818C35.4523 63.3265 35.2836 63.08 35.0283 63.0312C34.7729 62.9823 34.5264 63.1511 34.4776 63.4064L31.4868 79.1511L26.4399 75.0856L26.4154 75.0656L21.0199 70.7203L21.897 58.5171C21.917 58.2574 21.7216 58.0331 21.4618 58.0131C21.202 57.9931 20.9777 58.1885 20.9578 58.4483L20.1273 70.0031L6.7185 59.1988Z" fill="white"/>
<path fill-rule="evenodd" clip-rule="evenodd" d="M344.049 28.1445C313.015 36.0535 299.242 63.3574 315.928 94.9866C348.803 84.1068 359.789 58.1684 344.049 28.1445Z" fill="#C4D7EB"/>
<path fill-rule="evenodd" clip-rule="evenodd" d="M341.78 31.1429C341.88 30.9031 342.155 30.7876 342.395 30.8876C342.634 30.9875 342.75 31.2606 342.65 31.5026L333.289 54.1704L347.346 52.8626C347.606 52.8382 347.835 53.0291 347.859 53.2889C347.883 53.5465 347.692 53.7774 347.435 53.8018L332.883 55.1562L330.282 61.451C330.294 61.5975 330.238 61.7441 330.12 61.8462L328.127 66.6733L343.922 67.6014C344.182 67.617 344.38 67.839 344.364 68.0988C344.349 68.3586 344.127 68.5562 343.867 68.5406L327.747 67.5925L325.411 73.2501C325.404 73.2678 325.398 73.2878 325.389 73.3056L323.015 79.0519L334.648 80.1621C334.905 80.1865 335.096 80.4174 335.07 80.675C335.045 80.9325 334.814 81.1235 334.557 81.0968L322.638 79.96L316.359 95.1651C316.259 95.4049 315.986 95.5204 315.743 95.4205C315.504 95.3206 315.388 95.0474 315.488 94.8054L319.709 84.5806L313.281 77.915C313.101 77.7285 313.106 77.431 313.292 77.2512C313.479 77.0713 313.776 77.0757 313.956 77.2623L320.102 83.6347L324.403 73.2212L312.617 62.1393C312.428 61.9617 312.417 61.6619 312.597 61.4732C312.775 61.2845 313.075 61.2734 313.263 61.4532L324.789 72.2886L326.999 66.9375L327.007 66.9153L329.232 61.5265L318.725 48.766C318.561 48.5662 318.59 48.2686 318.79 48.1043C318.99 47.94 319.287 47.9689 319.454 48.1687L329.641 60.5406L332.114 54.5501L332.128 54.519L334.772 48.1154L328.14 37.8329C327.998 37.6153 328.062 37.3244 328.28 37.1823C328.497 37.0402 328.788 37.1046 328.93 37.3222L335.21 47.0563L341.78 31.1429Z" fill="white"/>
<path fill-rule="evenodd" clip-rule="evenodd" d="M27.8547 15.7734C58.8888 23.6824 72.6618 50.9863 55.9757 82.6155C23.1008 71.7335 12.1144 45.7973 27.8547 15.7734Z" fill="#C4D7EB"/>
<path fill-rule="evenodd" clip-rule="evenodd" d="M30.1228 18.7738C30.0229 18.534 29.7475 18.4185 29.5077 18.5184C29.2679 18.6183 29.1525 18.8914 29.2524 19.1335L38.6135 41.8012L24.5541 40.4934C24.2965 40.469 24.0656 40.66 24.0412 40.9175C24.0167 41.1773 24.2077 41.406 24.4675 41.4304L39.0176 42.7849L41.6176 49.0796C41.6065 49.2262 41.662 49.3727 41.7797 49.4749L43.7736 54.3019L27.9779 55.2301C27.7181 55.2456 27.5205 55.4676 27.536 55.7274C27.5516 55.9872 27.7736 56.1848 28.0334 56.1693L44.1533 55.2212L46.4891 60.8787C46.4958 60.8987 46.5025 60.9164 46.5113 60.9342L48.8849 66.6805L37.2524 67.7885C36.9948 67.8129 36.8039 68.0438 36.8305 68.3014C36.8549 68.559 37.0859 68.7499 37.3434 68.7233L49.2624 67.5864L55.5416 82.7915C55.6415 83.0313 55.9146 83.1468 56.1566 83.0469C56.3964 82.947 56.5119 82.6739 56.412 82.4318L52.1888 72.207L58.619 65.5415C58.7989 65.355 58.7944 65.0574 58.6079 64.8776C58.4214 64.6977 58.1239 64.7022 57.944 64.8887L51.798 71.2612L47.4972 60.8454L59.2829 49.7635C59.4717 49.5859 59.4828 49.2861 59.3029 49.0974C59.1253 48.9087 58.8255 48.8976 58.6368 49.0774L47.1108 59.9128L44.9016 54.5595L44.8927 54.5373L42.6679 49.1485L53.1747 36.388C53.339 36.1881 53.3101 35.8906 53.1103 35.7241C52.9082 35.5598 52.6129 35.5886 52.4464 35.7885L42.2593 48.1604L39.7858 42.1698L39.7725 42.1387L37.128 35.7352L43.7603 25.4549C43.9024 25.2373 43.838 24.9464 43.6204 24.8043C43.4028 24.6622 43.1119 24.7266 42.9698 24.9442L36.6906 34.6783L30.1228 18.7738Z" fill="white"/>
<path fill-rule="evenodd" clip-rule="evenodd" d="M66.3576 20.1289H299.266C310.534 20.1289 320.093 29.3679 319.753 40.6163L315.499 180.946C315.159 192.197 306.264 201.433 295.012 201.433H283.168H205.961H160.151H109.673H70.6097C59.4168 201.433 50.462 192.21 50.1223 180.946L45.868 40.6163C45.5306 29.3501 55.0893 20.1289 66.3576 20.1289ZM66.3599 31.3196C61.2463 31.3196 56.91 35.5028 57.0609 40.6163L61.3152 180.944C61.4684 186.057 65.5894 190.243 70.6141 190.243H295.016C300.041 190.243 304.164 185.969 304.315 180.944L308.569 40.6163C308.722 35.5183 304.384 31.3196 299.27 31.3196H66.3599Z" fill="#B0CAE4"/>
<path d="M205.967 201.432H160.156V229.879H205.967V201.432Z" fill="#85A5C6"/>
<path fill-rule="evenodd" clip-rule="evenodd" d="M205.961 229.881H230.605C231.84 229.881 232.55 230.94 232.846 232.121L235.579 243.079C235.872 244.264 234.557 245.321 233.338 245.321H132.773C131.557 245.321 130.235 244.276 130.535 243.079L133.269 232.121C133.566 230.924 134.277 229.881 135.509 229.881H160.151H205.961Z" fill="#B0CAE4"/>
<path fill-rule="evenodd" clip-rule="evenodd" d="M308.564 40.6162C308.564 36.1422 305.36 32.3786 301.133 31.5105L300.91 31.4683H300.906L300.68 31.4305H300.675L300.446 31.3994H300.444L300.213 31.3728H300.211L299.978 31.3528L299.743 31.3373L299.505 31.3284L299.265 31.3262H66.3592L66.1194 31.3284L65.8818 31.3373L65.6465 31.3528L65.4133 31.3728H65.4111L65.1802 31.3994H65.178L64.9493 31.4305H64.9448C60.4974 32.1166 57.0625 35.9867 57.0625 40.6184L61.3145 180.946C61.4677 186.06 65.5887 190.245 70.6112 190.245H295.013C300.038 190.245 304.161 185.971 304.312 180.946L308.564 40.6162Z" fill="#E0EAF5"/>
<path fill-rule="evenodd" clip-rule="evenodd" d="M211.723 0.36962C201.882 4.12871 205.715 35.5292 220.283 70.5067C234.848 105.482 254.634 130.79 264.475 127.031C274.315 123.274 270.483 91.8712 255.917 56.8959C241.352 21.9206 221.566 -3.38725 211.723 0.36962Z" fill="#9DBBD9"/>
<path fill-rule="evenodd" clip-rule="evenodd" d="M109.982 85.7363L89.5082 93.5565C84.8565 95.335 85.4094 107.165 90.7472 119.981C96.085 132.795 104.185 141.747 108.839 139.969L129.313 132.149C124.659 133.927 116.557 124.977 111.221 112.161C105.883 99.345 105.331 87.5126 109.982 85.7363Z" fill="#B0CAE4"/>
<path fill-rule="evenodd" clip-rule="evenodd" d="M111.216 112.161C106.281 100.309 105.435 89.3005 109.016 86.3052C149.123 66.1731 181.864 39.5375 207.234 6.39844C204.024 17.8134 208.846 43.0568 220.277 70.5072C231.84 98.273 246.695 119.948 257.25 125.821C211.617 118.64 168.6 120.821 128.2 132.371C123.448 132.556 116.152 124.012 111.216 112.161Z" fill="#C4D7EB"/>
<path fill-rule="evenodd" clip-rule="evenodd" d="M231.883 56.7625L216.625 61.201C217.757 64.2607 218.976 67.3692 220.284 70.5066C221.994 74.6099 223.775 78.5799 225.602 82.3878L239.537 75.1361C244.293 72.6604 246.964 67.5091 244.861 62.4556C242.754 57.3998 237.07 55.2549 231.883 56.7625Z" fill="#B0CAE4"/>
<path fill-rule="evenodd" clip-rule="evenodd" d="M131.367 131.487L138.488 166.063C139.558 171.261 148.657 171.039 153.409 168.672L153.411 168.67C158.165 166.303 169.593 156.477 164.737 154.326C155.385 150.185 149.85 141.401 148.626 127.375C142.82 128.561 137.067 129.933 131.367 131.487Z" fill="#9DBBD9"/>
<path fill-rule="evenodd" clip-rule="evenodd" d="M207.239 6.39844C197.436 37.8589 229.198 110.37 257.141 125.759C257.135 125.757 257.13 125.752 257.126 125.75C248.142 120.659 236.092 104.23 225.599 82.3885C223.771 78.5827 221.991 74.6127 220.281 70.5095C218.975 67.3721 217.754 64.2658 216.622 61.2039C207.854 37.4681 204.396 16.5056 207.239 6.39844Z" fill="white"/>
<path fill-rule="evenodd" clip-rule="evenodd" d="M230.822 57.9862C236.009 56.4786 241.693 58.6235 243.798 63.6771C245.17 66.9721 244.511 70.3115 242.566 72.9205C245.299 70.185 246.456 66.2904 244.857 62.4514C242.752 57.3978 237.07 55.253 231.883 56.7606L216.625 61.1991C216.727 61.4744 216.829 61.7498 216.934 62.0273L230.822 57.9862Z" fill="white"/>
<path fill-rule="evenodd" clip-rule="evenodd" d="M278.73 213.188V223.293L262.977 215.504V205.396L278.73 213.188Z" fill="#1E47DF"/>
<path fill-rule="evenodd" clip-rule="evenodd" d="M358.209 125.576L329.844 133.045V130.261L335.417 122.41L345.42 118.357C345.42 118.357 350.14 119.117 350.313 119.37C350.484 119.625 358.209 125.576 358.209 125.576Z" fill="#85A5C6"/>
<path fill-rule="evenodd" clip-rule="evenodd" d="M358.214 125.578C358.214 125.578 353.498 123.973 347.608 124.088C343.824 124.163 339.552 124.945 335.735 127.316C333.57 128.662 331.552 130.52 329.849 133.047H327.062C327.062 133.047 327.393 126.206 330.97 119.88C332.964 116.352 335.964 112.986 340.478 111.048C342.892 110.013 345.74 109.389 349.095 109.369L358.214 125.578Z" fill="#9DBBD9"/>
<path fill-rule="evenodd" clip-rule="evenodd" d="M295.914 125.576L324.279 133.045V130.261L318.706 122.41L308.703 118.357C308.703 118.357 303.983 119.117 303.81 119.37C303.637 119.625 295.914 125.576 295.914 125.576Z" fill="#85A5C6"/>
<path fill-rule="evenodd" clip-rule="evenodd" d="M327.061 133.047H324.277C321.753 129.295 318.529 127.023 315.169 125.704C311.228 124.161 307.096 123.928 303.674 124.161C299.18 124.468 295.914 125.578 295.914 125.578L305.031 109.369C306.419 109.378 307.72 109.489 308.939 109.691C313.384 110.424 316.741 112.351 319.277 114.802C326.517 121.79 327.061 133.047 327.061 133.047Z" fill="#9DBBD9"/>
<path d="M372.423 132.051H295.383V156.506H372.423V132.051Z" fill="#B0CAE4"/>
<path d="M368.734 156.506H299.055V260H368.734V156.506Z" fill="#B0CAE4"/>
<path d="M358.744 132.051H290.117V156.506H358.744V132.051Z" fill="#C4D7EB"/>
<path d="M355.467 156.506H293.398V260H355.467V156.506Z" fill="#C4D7EB"/>
<path d="M355.467 156.506H293.398V161.517H355.467V156.506Z" fill="#B0CAE4"/>
<path d="M331.794 132.051H322.328V260H331.794V132.051Z" fill="#9DBBD9"/>
<path fill-rule="evenodd" clip-rule="evenodd" d="M347.602 124.088C343.818 124.164 339.546 124.945 335.73 127.317L330.965 119.881C332.959 116.353 335.958 112.986 340.472 111.048L347.602 124.088ZM319.274 114.803C317.9 118.495 316.441 122.348 315.167 125.703C311.226 124.159 307.093 123.926 303.672 124.159L308.936 109.691C313.382 110.424 316.739 112.351 319.274 114.803Z" fill="#B0CAE4"/>
<path fill-rule="evenodd" clip-rule="evenodd" d="M299.129 199.354L272.383 206.397V203.773L277.636 196.37L287.068 192.551C287.068 192.551 291.52 193.266 291.68 193.506C291.847 193.743 299.129 199.354 299.129 199.354Z" fill="#85A5C6"/>
<path fill-rule="evenodd" clip-rule="evenodd" d="M299.127 199.355C299.127 199.355 294.197 197.679 288.236 197.983C284.45 198.176 280.245 199.164 276.623 201.891C275.08 203.055 273.639 204.533 272.382 206.398H269.758C269.758 206.398 270.051 200.299 273.168 194.477C275.011 191.036 277.838 187.687 282.176 185.756C284.499 184.721 287.261 184.09 290.532 184.07L299.127 199.355Z" fill="#B0CAE4"/>
<path fill-rule="evenodd" clip-rule="evenodd" d="M240.391 199.354L267.133 206.397V203.773L261.879 196.37L252.449 192.551C252.449 192.551 247.995 193.266 247.836 193.506C247.673 193.743 240.391 199.354 240.391 199.354Z" fill="#85A5C6"/>
<path fill-rule="evenodd" clip-rule="evenodd" d="M269.757 206.398H267.131C263.822 201.482 259.237 199.26 254.805 198.403C251.657 197.796 248.584 197.876 246.088 198.169C242.706 198.567 240.391 199.355 240.391 199.355L248.986 184.072C250.311 184.081 251.552 184.188 252.718 184.383C254.794 184.732 256.619 185.353 258.22 186.177C269.047 191.744 269.757 206.398 269.757 206.398Z" fill="#B0CAE4"/>
<path d="M331.271 203.35H218.266V222.54H331.271V203.35Z" fill="#85A5C6"/>
<path d="M326.526 222.539H223.008V259.828H326.526V222.539Z" fill="#85A5C6"/>
<path d="M321.254 203.35H208.25V222.54H321.254V203.35Z" fill="#9DBBD9"/>
<path d="M316.508 222.539H212.992V259.828H316.508V222.539Z" fill="#9DBBD9"/>
<path d="M316.508 222.539H212.992V225.497H316.508V222.539Z" fill="#85A5C6"/>
<path d="M274.503 203.35H265.016V259.829H274.503V203.35Z" fill="#B0CAE4"/>
<path fill-rule="evenodd" clip-rule="evenodd" d="M288.235 197.983C284.45 198.176 280.244 199.164 276.623 201.89L273.168 194.479C275.011 191.037 277.837 187.689 282.176 185.757L288.235 197.983ZM258.216 186.177L254.803 198.402C251.655 197.796 248.582 197.876 246.086 198.169L252.714 184.383C254.788 184.729 256.613 185.353 258.216 186.177Z" fill="#9DBBD9"/>
<path fill-rule="evenodd" clip-rule="evenodd" d="M279.559 188.812C278.726 189.543 277.814 189.841 276.75 189.618C277.749 190.373 279.132 189.794 279.559 188.812Z" fill="#6180F4"/>
<path fill-rule="evenodd" clip-rule="evenodd" d="M5.13281 161.879H5.49029C5.49251 161.879 5.37483 161.981 5.13281 161.879Z" fill="#000E41"/>
<path fill-rule="evenodd" clip-rule="evenodd" d="M73.1641 200.825C73.1641 203.758 75.5421 206.136 78.4752 206.136C81.4083 206.136 83.7863 203.758 83.7863 200.825C83.7863 197.892 81.4083 195.514 78.4752 195.514C75.5421 195.514 73.1641 197.892 73.1641 200.825Z" fill="#1B49F8"/>
<path fill-rule="evenodd" clip-rule="evenodd" d="M74.4062 200.147C74.4062 202.39 76.2247 204.211 78.4695 204.211C80.7121 204.211 82.5306 202.392 82.5306 200.147C82.5306 197.905 80.7121 196.084 78.4695 196.084C76.2247 196.084 74.4062 197.905 74.4062 200.147Z" fill="#0237FF"/>
<path fill-rule="evenodd" clip-rule="evenodd" d="M91.4688 192.667C91.4688 195.6 93.8468 197.978 96.7799 197.978C99.713 197.978 102.091 195.6 102.091 192.667C102.091 189.733 99.713 187.355 96.7799 187.355C93.8468 187.355 91.4688 189.733 91.4688 192.667Z" fill="#2042C0"/>
<path fill-rule="evenodd" clip-rule="evenodd" d="M92.2109 191.85C92.2109 194.093 94.0294 195.911 96.2742 195.911C98.5168 195.911 100.335 194.093 100.335 191.85C100.335 189.608 98.5168 187.789 96.2742 187.789C94.0294 187.789 92.2109 189.608 92.2109 191.85Z" fill="#1E47DF"/>
<path fill-rule="evenodd" clip-rule="evenodd" d="M84.8438 164.948C84.8438 167.881 87.2218 170.259 90.1549 170.259C93.088 170.259 95.466 167.881 95.466 164.948C95.466 162.015 93.088 159.637 90.1549 159.637C87.2218 159.637 84.8438 162.015 84.8438 164.948Z" fill="#1B49F8"/>
<path fill-rule="evenodd" clip-rule="evenodd" d="M86.2656 164.198C86.2656 166.343 88.0064 168.084 90.1513 168.084C92.2984 168.084 94.0369 166.343 94.0369 164.198C94.0369 162.053 92.2962 160.312 90.1513 160.312C88.0042 160.312 86.2656 162.051 86.2656 164.198Z" fill="#0237FF"/>
<path fill-rule="evenodd" clip-rule="evenodd" d="M77.4375 168.07L96.7525 173.157V171.261L92.9579 165.914L86.1458 163.154C86.1458 163.154 82.9307 163.672 82.8152 163.845C82.6976 164.018 77.4375 168.07 77.4375 168.07Z" fill="#85A5C6"/>
<path fill-rule="evenodd" clip-rule="evenodd" d="M77.4375 168.07C77.4375 168.07 81.1344 166.811 85.5507 167.093C87.5557 167.22 89.7095 167.664 91.73 168.685C93.5863 169.622 95.3293 171.043 96.7503 173.157H98.6465C98.6465 173.157 98.3423 166.905 94.6543 162.189C93.4819 160.692 91.9721 159.347 90.0181 158.41C88.2685 157.568 86.168 157.051 83.6434 157.035L77.4375 168.07Z" fill="#B0CAE4"/>
<path fill-rule="evenodd" clip-rule="evenodd" d="M119.852 168.07L100.539 173.157V171.261L104.334 165.914L111.146 163.154C111.146 163.154 114.361 163.672 114.476 163.845C114.594 164.018 119.852 168.07 119.852 168.07Z" fill="#85A5C6"/>
<path fill-rule="evenodd" clip-rule="evenodd" d="M98.6406 173.158H100.539C101.869 171.181 103.481 169.807 105.204 168.872C107.029 167.88 108.974 167.38 110.83 167.171C115.635 166.639 119.852 168.071 119.852 168.071L113.644 157.033C111.175 157.049 109.107 157.544 107.384 158.354C105.57 159.203 104.132 160.399 102.988 161.751C98.9626 166.51 98.6406 173.158 98.6406 173.158Z" fill="#B0CAE4"/>
<path d="M120.219 172.48H67.7578V183.402H120.219V172.48Z" fill="#9DBBD9"/>
<path d="M117.713 183.402H70.2656V259.608H117.713V183.402Z" fill="#9DBBD9"/>
<path d="M123.802 172.48H77.0703V183.402H123.802V172.48Z" fill="#B0CAE4"/>
<path d="M121.562 183.402H79.2969V259.608H121.562V183.402Z" fill="#B0CAE4"/>
<path d="M121.562 183.402H79.2969V185.676H121.562V183.402Z" fill="#9DBBD9"/>
<path d="M101.868 172.48H95.4219V259.608H101.868V172.48Z" fill="#9DBBD9"/>
<path fill-rule="evenodd" clip-rule="evenodd" d="M85.5469 167.093C87.5519 167.219 89.7056 167.663 91.7262 168.685C92.3767 167.292 92.9918 165.88 93.6179 164.477C93.9599 163.713 94.3062 162.952 94.6482 162.186C93.4758 160.689 91.966 159.344 90.012 158.407C89.4014 159.539 88.8264 160.691 88.2313 161.83C87.3654 163.496 86.495 165.156 85.669 166.84L85.5469 167.093ZM102.99 161.75C103.372 163.451 103.874 165.112 104.438 166.764C104.682 167.472 104.935 168.174 105.206 168.871C107.031 167.879 108.976 167.379 110.832 167.17C110.555 166.524 110.284 165.874 110.018 165.225C109.209 163.238 108.461 161.22 107.715 159.208C107.608 158.919 107.497 158.637 107.384 158.355C105.575 159.204 104.134 160.4 102.99 161.75Z" fill="#9DBBD9"/>
<path fill-rule="evenodd" clip-rule="evenodd" d="M10.9297 156.231L32.7426 161.975V159.832L28.4573 153.795L20.7637 150.68C20.7637 150.68 17.1334 151.264 17.0002 151.459C16.8714 151.654 10.9297 156.231 10.9297 156.231Z" fill="#85A5C6"/>
<path fill-rule="evenodd" clip-rule="evenodd" d="M10.9297 156.233C10.9297 156.233 14.5556 154.998 19.0873 155.087C21.996 155.145 25.2822 155.746 28.2175 157.569C29.8828 158.604 31.4348 160.032 32.7449 161.977H34.8875C34.8875 161.977 34.6322 156.717 31.8833 151.852C30.3513 149.139 28.0421 146.55 24.5717 145.06C22.7176 144.265 20.5261 143.783 17.9438 143.768L10.9297 156.233Z" fill="#9DBBD9"/>
<path fill-rule="evenodd" clip-rule="evenodd" d="M58.8364 156.231L37.0234 161.975V159.832L41.3088 153.795L49.0023 150.68C49.0023 150.68 52.6327 151.264 52.7659 151.459C52.8969 151.654 58.8364 156.231 58.8364 156.231Z" fill="#85A5C6"/>
<path fill-rule="evenodd" clip-rule="evenodd" d="M34.8828 161.977H37.0233C38.9639 159.091 41.444 157.343 44.0285 156.329C47.0593 155.141 50.2367 154.963 52.8701 155.141C56.325 155.376 58.8384 156.231 58.8384 156.231L51.8265 143.766C50.7585 143.772 49.7593 143.859 48.8223 144.014C45.4052 144.578 42.8206 146.059 40.8712 147.947C35.3002 153.32 34.8828 161.977 34.8828 161.977Z" fill="#9DBBD9"/>
<path d="M59.2462 161.211H0V180.017H59.2462V161.211Z" fill="#B0CAE4"/>
<path d="M56.4124 180.018H2.82812V259.607H56.4124V180.018Z" fill="#B0CAE4"/>
<path d="M63.2917 161.211H10.5156V180.017H63.2917V161.211Z" fill="#C4D7EB"/>
<path d="M60.7726 180.018H13.0391V259.607H60.7726V180.018Z" fill="#C4D7EB"/>
<path d="M60.7726 180.018H13.0391V183.872H60.7726V180.018Z" fill="#B0CAE4"/>
<path d="M38.5206 161.211H31.2422V259.607H38.5206V161.211Z" fill="#9DBBD9"/>
<path fill-rule="evenodd" clip-rule="evenodd" d="M19.0859 155.087C21.9946 155.144 25.2808 155.746 28.2161 157.569L31.8797 151.852C30.3477 149.138 28.0385 146.549 24.568 145.059L19.0859 155.087ZM40.87 147.946C41.9269 150.786 43.0482 153.748 44.0296 156.328C47.0604 155.14 50.2378 154.962 52.8711 155.14L48.8212 144.014C45.4018 144.58 42.8195 146.061 40.87 147.946Z" fill="#B0CAE4"/>
<path fill-rule="evenodd" clip-rule="evenodd" d="M130.508 217.316L149.383 222.287V220.436L145.675 215.211L139.019 212.516C139.019 212.516 135.874 213.02 135.761 213.188C135.648 213.357 130.508 217.316 130.508 217.316Z" fill="#85A5C6"/>
<path fill-rule="evenodd" clip-rule="evenodd" d="M130.508 217.316C130.508 217.316 132.679 216.576 135.668 216.372C138.459 216.183 141.958 216.457 145.067 218.235C146.659 219.145 148.149 220.449 149.383 222.287H151.237C151.237 222.287 150.989 217.176 148.186 212.773C146.661 210.377 144.376 208.19 140.961 207.158C139.667 206.767 138.213 206.538 136.572 206.529L130.508 217.316Z" fill="#B0CAE4"/>
<path fill-rule="evenodd" clip-rule="evenodd" d="M135.664 216.372C138.455 216.184 141.954 216.457 145.063 218.235L148.183 212.775C146.657 210.38 144.372 208.193 140.957 207.16L135.664 216.372Z" fill="#9DBBD9"/>
<path fill-rule="evenodd" clip-rule="evenodd" d="M171.964 217.316L153.086 222.287V220.436L156.794 215.211L163.453 212.516C163.453 212.516 166.595 213.02 166.708 213.188C166.823 213.357 171.964 217.316 171.964 217.316Z" fill="#85A5C6"/>
<path fill-rule="evenodd" clip-rule="evenodd" d="M151.234 222.288H153.088C154.476 220.225 156.179 218.835 157.991 217.92C160.009 216.899 162.161 216.468 164.157 216.352C168.42 216.108 171.966 217.314 171.966 217.314L165.898 206.527C164.37 206.538 163.002 206.734 161.774 207.078C158.679 207.946 156.488 209.751 154.942 211.821C151.519 216.401 151.234 222.288 151.234 222.288Z" fill="#B0CAE4"/>
<path d="M187.578 220.135H107.82V233.679H187.578V220.135Z" fill="#85A5C6"/>
<path d="M184.233 233.68H111.172V259.998H184.233V233.68Z" fill="#85A5C6"/>
<path d="M194.649 220.135H114.891V233.679H194.649V220.135Z" fill="#C4D7EB"/>
<path d="M191.304 233.68H118.242V259.998H191.304V233.68Z" fill="#9DBBD9"/>
<path d="M154.579 220.137H147.883V259.999H154.579V220.137Z" fill="#B0CAE4"/>
<path fill-rule="evenodd" clip-rule="evenodd" d="M154.938 211.823L157.988 217.922C160.007 216.901 162.158 216.47 164.154 216.355L161.772 207.08C158.677 207.948 156.485 209.753 154.938 211.823Z" fill="#9DBBD9"/>
<path fill-rule="evenodd" clip-rule="evenodd" d="M289.962 179.104C289.793 179.104 289.62 179.046 289.478 178.929C289.156 178.662 289.109 178.185 289.378 177.863C293.039 173.458 295.06 167.873 295.06 162.136C295.06 159.387 294.609 156.689 293.723 154.116C293.588 153.721 293.797 153.29 294.194 153.155C294.589 153.019 295.02 153.228 295.155 153.623C296.097 156.356 296.572 159.218 296.572 162.136C296.572 168.226 294.434 174.157 290.544 178.833C290.395 179.011 290.18 179.104 289.962 179.104Z" fill="white"/>
<path fill-rule="evenodd" clip-rule="evenodd" d="M305.681 169.316C299.606 170.468 291.986 172.835 282.82 176.417C283.44 176.581 284.026 176.781 284.574 177.016C297.228 172.422 305.615 170.113 309.733 170.091C309.003 169.836 308.272 169.665 307.544 169.574C307.604 162.837 307.953 156.871 308.59 151.68C307.031 159.733 306.063 165.613 305.681 169.316Z" fill="#0575E6"/>
<path fill-rule="evenodd" clip-rule="evenodd" d="M282.814 176.417C279.999 175.575 277.501 175.762 275.32 176.979L277.15 183.331C277.356 184.051 276.946 184.614 276.237 184.586L277.931 184.657C278.695 184.23 279.481 183.959 280.292 183.846C281.837 184.828 283.867 184.614 286.38 183.207C286.562 180.68 285.923 178.631 284.464 177.059C284.499 177.047 284.533 177.034 284.568 177.021C284.02 176.781 283.436 176.583 282.814 176.417Z" fill="#79B9F9"/>
<path fill-rule="evenodd" clip-rule="evenodd" d="M303.779 187.764C304.168 185.482 304.55 183.028 304.925 180.408C300.156 181.658 293.947 182.842 286.303 183.961C286.336 183.703 286.36 183.452 286.378 183.204C283.865 184.611 281.835 184.825 280.29 183.843C279.48 183.956 278.693 184.227 277.93 184.654L295.051 185.366C294.844 186.525 294.338 187.407 293.561 187.944C297.163 188.1 300.569 188.04 303.779 187.764Z" fill="#0575E6"/>
<path fill-rule="evenodd" clip-rule="evenodd" d="M275.324 176.979C276.956 176.068 278.768 175.735 280.759 175.979C284.034 168.907 282.007 158.849 286.619 143.502C283.297 145.172 279.425 153.245 275.004 167.722C274.525 168.128 273.876 168.59 273.055 169.107L275.324 176.979Z" fill="#6D9DCE"/>
<path fill-rule="evenodd" clip-rule="evenodd" d="M286.62 143.5C282.008 158.847 284.033 168.905 280.758 175.977C281.424 176.059 282.11 176.206 282.816 176.417C291.982 172.835 299.602 170.468 305.677 169.316C306.059 165.61 307.027 159.733 308.586 151.682C307.949 156.875 307.6 162.839 307.54 169.576C308.268 169.664 308.999 169.838 309.729 170.093C305.61 170.115 297.224 172.424 284.57 177.018L284.466 177.056C285.925 178.628 286.564 180.677 286.382 183.204C286.364 183.451 286.338 183.704 286.304 183.961C293.949 182.842 300.157 181.657 304.927 180.409C308.854 179.379 311.808 178.306 313.786 177.189C318.953 168.59 319.756 157.486 316.202 143.879C314.279 141.428 309.987 140.513 303.328 141.137C296.383 146.999 293.205 147.281 293.794 141.983C290.765 142.065 288.371 142.571 286.62 143.5Z" fill="#6D9DCE"/>
<path fill-rule="evenodd" clip-rule="evenodd" d="M286.405 143.615C282.286 152.15 281.576 169.491 279.682 171.365C278.962 172.227 277.275 173.284 274.617 174.534L274.666 174.705L275.321 176.979C276.953 176.068 278.765 175.735 280.756 175.979C284.032 168.907 282.004 158.849 286.616 143.502C286.547 143.535 286.478 143.573 286.405 143.615Z" fill="#0575E6"/>
<path fill-rule="evenodd" clip-rule="evenodd" d="M249.89 186.814L291.229 188.537C293.356 188.626 294.686 187.44 295.054 185.366L248.513 183.425L248.384 183.421C247.936 183.403 247.276 183.603 247.485 184.855C247.678 185.886 248.76 186.767 249.89 186.814Z" fill="#85A5C6"/>
<path fill-rule="evenodd" clip-rule="evenodd" d="M243.115 161.218L269.829 162.33C270.539 162.362 271.287 162.972 271.494 163.692L277.151 183.331C277.358 184.05 276.947 184.614 276.239 184.585L249.526 183.473C248.817 183.444 248.067 182.831 247.86 182.112L242.203 162.473C241.994 161.751 242.405 161.187 243.115 161.218Z" fill="#C4D7EB"/>
<path fill-rule="evenodd" clip-rule="evenodd" d="M245.5 169.195L248.979 181.276C249.152 181.874 249.788 182.427 250.416 182.453L274.789 183.47C275.404 183.497 275.695 183.006 275.531 182.442L273.208 174.378C271.201 174.629 269.109 174.762 266.958 174.762C265.341 174.762 263.758 174.686 262.219 174.544C261.913 175.366 261.138 175.925 260.141 175.925C258.869 175.925 257.663 175.015 257.235 173.811C252.57 172.863 248.522 171.251 245.5 169.195Z" fill="#85A5C6"/>
<path fill-rule="evenodd" clip-rule="evenodd" d="M237.503 190.248C239.544 188.92 241.12 187.687 242.235 186.551C243.965 187.332 245.617 188.038 247.186 188.671C250.979 188.18 255.419 187.71 260.509 187.259L249.895 186.817C248.765 186.77 247.684 185.889 247.493 184.859C247.282 183.606 247.941 183.407 248.392 183.424L248.521 183.429L249.533 183.471C248.825 183.442 248.074 182.829 247.868 182.11L245.073 172.402C243.367 172.305 241.857 172.274 240.539 172.309C233.043 175.027 226.583 186.164 212.648 195.439C212.877 197.872 214.076 199.422 215.937 200.967C223.251 197.837 230.605 194.353 234.921 191.835C235.849 191.293 236.711 190.763 237.503 190.248Z" fill="#223681"/>
<path fill-rule="evenodd" clip-rule="evenodd" d="M197.736 196.47C203.281 201.361 207.39 204.315 209.819 205.438C212.44 206.65 213.183 205.727 213.825 202.676C206.518 200.351 210.492 198.748 207.752 196.916C204.819 196.736 201.48 195.364 197.738 192.804C195.392 192.56 195.121 194.003 197.736 196.47Z" fill="#021B79"/>
<path fill-rule="evenodd" clip-rule="evenodd" d="M199.189 190.097C199.427 191.805 199.582 192.626 199.8 194.116L199.913 194.183L199.969 194.214L200.029 194.247L200.138 194.309L200.142 194.311L200.255 194.376L200.304 194.402L200.368 194.438L200.471 194.496L200.482 194.502L200.595 194.564L200.637 194.587L200.93 194.744L200.968 194.764L201.041 194.804L201.13 194.851L201.15 194.862L201.261 194.92L201.292 194.935L201.372 194.975L201.456 195.017L201.483 195.031L201.592 195.086L201.618 195.1L201.703 195.14L201.781 195.177L201.812 195.193L201.92 195.246L201.94 195.255L202.029 195.297L202.1 195.331L202.136 195.348L202.245 195.399L202.26 195.406L202.353 195.448L202.42 195.477L202.569 195.544L202.578 195.548L202.735 195.617L202.782 195.637L202.889 195.681L202.893 195.684L202.995 195.726L203.051 195.748L203.102 195.768L203.206 195.81H203.208L203.315 195.852L203.364 195.872L203.419 195.894L203.517 195.932L203.524 195.934L203.628 195.974L203.672 195.99L203.732 196.012L203.826 196.045L203.837 196.05L203.941 196.088L203.979 196.101L204.045 196.123L204.132 196.154L204.15 196.159L204.252 196.194L204.285 196.205L204.356 196.228L204.458 196.261L204.56 196.294L204.587 196.303L204.663 196.325L204.738 196.347L204.765 196.354L204.867 196.385L204.889 196.392L204.969 196.414L205.04 196.434L205.071 196.443L205.171 196.47L205.189 196.474L205.273 196.496L205.338 196.514L205.373 196.523L205.473 196.547L205.673 196.594L205.773 196.616L205.779 196.618L205.873 196.638L205.926 196.649L205.97 196.658L206.068 196.678H206.07L206.166 196.698L206.261 196.716H206.264L206.357 196.734H206.359L206.457 196.752L206.499 196.758L206.552 196.767C206.534 196.587 206.497 196.39 206.437 196.17C204.33 194.12 202.462 191.911 201.294 187.528C199.665 185.823 198.814 186.52 199.189 190.097ZM200.542 198.885C200.975 201.237 201.494 203.419 202.007 204.547C203.097 206.943 205.131 205.711 207.354 204.041C205.54 202.869 203.255 201.155 200.542 198.885Z" fill="#0E1C52"/>
<path fill-rule="evenodd" clip-rule="evenodd" d="M203.75 196.026L203.821 196.052L203.832 196.057L203.937 196.095L203.974 196.108L204.041 196.13L204.127 196.161L204.145 196.166L204.247 196.201L204.281 196.212L204.352 196.235L204.454 196.268L204.556 196.299L204.583 196.308L204.658 196.33L204.734 196.352L204.76 196.361L204.86 196.39L204.882 196.397L204.962 196.419L205.031 196.439L205.062 196.448L205.164 196.474L205.18 196.479L205.264 196.501L205.329 196.519L205.364 196.528L205.464 196.552L205.664 196.601L205.764 196.623L205.771 196.625L205.862 196.645L205.915 196.656L205.959 196.665L206.057 196.685H206.059L206.155 196.703L206.25 196.721H206.252L206.346 196.739L206.348 196.741L206.446 196.756L206.488 196.763L206.541 196.772C206.523 196.592 206.486 196.394 206.426 196.175C204.318 194.125 202.451 191.914 201.283 187.533C200.859 187.087 200.491 186.802 200.18 186.691C200.426 190.308 201.616 193.419 203.75 196.026Z" fill="#021B79"/>
<path fill-rule="evenodd" clip-rule="evenodd" d="M213.11 202.442C213.769 201.547 214.498 200.875 215.295 200.422C214.02 199.254 213.136 198.026 212.777 196.367C211.329 197.131 209.926 197.573 208.562 197.693C209.539 199.163 207.714 200.57 213.11 202.442Z" fill="#79B9F9"/>
<path fill-rule="evenodd" clip-rule="evenodd" d="M290.506 203.414C299.425 202.85 303.06 196.18 302.889 187.835C299.943 188.049 296.834 188.086 293.566 187.946C292.953 188.368 292.169 188.577 291.232 188.537L260.504 187.256C255.415 187.709 250.977 188.18 247.182 188.668C244.846 188.97 242.757 189.279 240.914 189.594C239.6 189.947 237.628 190.675 235.003 191.781L234.915 191.834C230.598 194.352 223.244 197.836 215.93 200.967C215.711 200.785 215.502 200.603 215.302 200.42C214.505 200.873 213.777 201.546 213.117 202.441C213.341 202.519 213.577 202.599 213.828 202.676C213.817 202.727 213.805 202.781 213.794 202.832C234.621 204.721 241.482 201.555 247.002 199.89C265.083 203.116 273.789 204.302 290.506 203.414Z" fill="#223681"/>
<path fill-rule="evenodd" clip-rule="evenodd" d="M300.774 130.689C300.09 127.874 299.962 124.668 299.036 123.431C291.522 120.789 290.683 124.945 287.37 125.738C287.334 126.766 287.65 127.92 288.316 129.195C288.065 133.747 289.135 136.56 291.524 137.628C292.128 138.265 293.121 138.638 294.506 138.749C294.373 139.331 293.971 141.44 293.798 141.98C293.207 147.278 296.387 146.996 303.332 141.134L303.361 141.132C303.319 139.266 303.161 137.837 303.192 136.431C303.212 135.474 303.25 134.626 303.308 133.882C305.795 131.291 306.287 129.19 304.784 127.583C302.815 126.65 301.674 127.974 301.358 131.553C300.765 131.329 301.176 131.522 300.774 130.689Z" fill="#79B9F9"/>
<path fill-rule="evenodd" clip-rule="evenodd" d="M287.371 125.738C290.684 124.945 291.523 120.787 299.037 123.429C299.963 124.666 300.094 127.872 300.775 130.687C301.175 131.522 300.767 131.327 301.355 131.553C301.67 127.974 302.812 126.651 304.781 127.583C306.284 129.191 305.791 131.291 303.304 133.882C303.249 134.626 303.211 135.474 303.191 136.431C310.19 129.981 308.775 121.224 304.512 118.344C305.549 118.453 306.608 118.855 307.685 119.552C306.133 117.472 304.044 116.75 301.417 117.383C301.701 115.913 301.646 114.825 301.253 114.121C301.135 115.116 300.938 115.884 300.658 116.428C298.97 114.887 295.733 114.527 292.416 115.775C288.124 117.389 283.69 121.335 282 120.158C282.255 124.21 284.556 126.668 287.371 125.738Z" fill="#021B79"/>
<path fill-rule="evenodd" clip-rule="evenodd" d="M298.927 137.477C297.681 138.28 296.204 138.704 294.501 138.751C294.428 139.073 294.27 139.868 294.117 140.603C296.267 140.026 297.87 138.984 298.927 137.477Z" fill="#5776ED"/>
<path fill-rule="evenodd" clip-rule="evenodd" d="M247.557 183.865C245.213 183.039 243.192 182.046 241.496 180.883C240.708 181.647 239.924 182.395 239.14 183.123C231.484 190.262 224.086 195.719 216.985 199.081C216.281 199.414 215.582 199.727 214.885 200.018C215.02 200.151 215.158 200.287 215.302 200.418L215.93 200.964C217.374 200.347 218.819 199.714 220.242 199.079C226.029 196.496 231.451 193.852 234.915 191.831C234.943 191.814 234.975 191.796 235.003 191.778C235.9 191.254 236.733 190.741 237.501 190.242C238.085 189.862 238.629 189.491 239.138 189.127C240.406 188.219 241.438 187.357 242.233 186.545C243.963 187.326 245.615 188.032 247.184 188.665C249.323 188.39 251.667 188.119 254.216 187.855C256.19 187.651 258.286 187.448 260.504 187.251L254.216 186.989L249.893 186.809C248.763 186.762 247.682 185.881 247.491 184.851C247.415 184.4 247.455 184.082 247.557 183.865ZM289.232 199.083C284.034 200.544 276.806 200.724 267.55 199.625C265.969 199.445 264.439 199.265 262.967 199.083C259.803 198.692 256.887 198.295 254.219 197.891C251.563 197.487 249.152 197.078 246.987 196.661C245.408 197.591 243.59 198.399 241.531 199.085C240.767 199.341 239.97 199.578 239.14 199.798C232.639 201.528 224.11 202.227 213.555 201.896C213.406 202.067 213.262 202.252 213.117 202.443C213.341 202.52 213.577 202.598 213.828 202.678L213.794 202.833C226.462 203.984 233.964 203.262 239.138 202.145C242.471 201.426 244.84 200.542 247.002 199.889C249.58 200.349 251.969 200.768 254.216 201.146C267.727 203.413 276.174 204.177 290.506 203.415C294.498 203.162 297.434 201.688 299.441 199.385C301.919 196.545 302.985 192.447 302.889 187.837C302.487 187.866 302.083 187.893 301.677 187.915C300.86 187.959 300.031 187.99 299.19 188.01C298.899 193.608 295.577 197.3 289.232 199.083Z" fill="#021B79"/>
<path fill-rule="evenodd" clip-rule="evenodd" d="M259.427 171.51C260.424 171.51 261.365 172.318 261.527 173.315C261.689 174.312 261.014 175.12 260.015 175.12C259.018 175.12 258.079 174.312 257.915 173.315C257.753 172.318 258.43 171.51 259.427 171.51Z" fill="#85A5C6"/>
<path fill-rule="evenodd" clip-rule="evenodd" d="M50.1705 193.255C49.7775 193.706 49.7286 194.21 49.924 194.747C49.924 194.749 49.924 194.751 49.9262 194.754C50.2859 195.75 51.4783 196.861 52.8594 197.969C53.0348 198.111 53.1924 198.242 53.3278 198.362C53.3634 198.393 53.4011 198.424 53.4344 198.457C53.4611 198.482 53.4899 198.506 53.5166 198.53C54.8044 199.718 54.3204 199.991 56.6362 202.401C59.274 205.147 61.0925 205.196 61.6098 204.947C62.045 204.734 61.1591 203.278 60.171 201.641C60.1222 201.561 60.0778 201.481 60.0289 201.404C59.8979 201.186 59.7692 200.964 59.6381 200.746C58.4836 198.775 58.7789 197.851 59.052 194.92C59.274 192.535 62.76 181.607 62.76 181.607L57.6998 180.736C57.6998 180.736 56.1788 189.44 54.5002 190.779C53.601 191.494 52.5973 191.503 51.7358 192.034C51.6737 192.069 51.6137 192.107 51.556 192.147C51.0631 192.469 50.5657 192.804 50.1705 193.255Z" fill="#79B9F9"/>
<path fill-rule="evenodd" clip-rule="evenodd" d="M50.1705 193.255C49.7775 193.705 49.7286 194.209 49.924 194.747C49.924 194.749 49.924 194.751 49.9262 194.753C50.3681 195.75 51.5271 196.854 52.8638 197.96C53.0392 198.104 53.1924 198.237 53.3301 198.362C53.3656 198.393 53.4033 198.424 53.4367 198.457C53.4633 198.481 53.4922 198.506 53.5188 198.53C54.8066 199.718 54.3226 199.991 56.6384 202.4C59.2762 205.147 61.0947 205.196 61.6121 204.947C62.0472 204.734 61.1613 203.277 60.1733 201.641C59.6604 201.452 57.2757 200.482 55.4705 198.173C53.8807 196.146 52.8216 193.539 51.7381 192.031C51.6759 192.067 51.6159 192.105 51.5582 192.144C51.0631 192.469 50.5657 192.804 50.1705 193.255Z" fill="#172457"/>
<path fill-rule="evenodd" clip-rule="evenodd" d="M90.9596 190.095C91.2704 191.656 93.4975 191.397 95.9843 190.788C98.4711 190.18 97.8805 190.901 101.418 190.511C104.957 190.12 106.029 188.801 106.138 188.275C106.234 187.808 104.484 187.644 102.61 187.426C102.375 187.402 102.139 187.371 101.899 187.342C99.7833 187.078 98.2313 185.71 96.3085 184.587C94.4878 183.525 91.7678 179.193 91.7678 179.193L86.9141 179.58C86.9141 179.58 89.4608 183.448 90.4467 185.131C91.0284 186.121 90.9951 187.429 90.9241 188.437C90.8863 188.983 90.8486 189.545 90.9596 190.095Z" fill="#79B9F9"/>
<path fill-rule="evenodd" clip-rule="evenodd" d="M95.99 190.789C98.4768 190.181 97.8862 190.903 101.423 190.512C104.963 190.121 106.035 188.802 106.144 188.276C106.239 187.81 104.49 187.645 102.616 187.428L102.6 187.463C102.6 187.463 100.477 188.969 97.5309 189.04C95.1285 189.097 92.5862 188.409 90.9275 188.436C90.8898 188.984 90.8543 189.546 90.9653 190.097C91.2761 191.658 93.5032 191.398 95.99 190.789Z" fill="#172457"/>
<path fill-rule="evenodd" clip-rule="evenodd" d="M80.1641 118.811C80.1641 118.811 81.3209 115.978 82.5932 115.862C83.8654 115.747 87.9109 115.11 88.2018 115.689C88.4905 116.267 88.2018 118.349 87.3336 119.1C86.4677 119.852 81.09 121.065 81.09 121.065L80.1641 118.811Z" fill="#79B9F9"/>
<path fill-rule="evenodd" clip-rule="evenodd" d="M72.3615 159.061L61.9013 187.211C61.9013 187.211 60.296 187.369 58.7551 186.922C57.3385 186.514 55.7109 185.441 55.7109 185.441C55.7109 185.441 58.3066 158.413 63.0648 152.791C67.8209 147.169 72.3615 159.061 72.3615 159.061Z" fill="#021B79"/>
<path fill-rule="evenodd" clip-rule="evenodd" d="M30.9943 147.674C30.9943 147.674 61.0493 137.509 67.7526 139.674C74.4559 141.834 94.5814 181.878 94.5814 181.878C94.5814 181.878 94.1284 182.482 92.8872 182.946C91.7348 183.379 88.9416 183.353 88.9416 183.353C88.9416 183.353 70.779 167.781 68.6163 163.241C66.4515 158.7 65.5877 154.377 63.4273 154.808C61.2624 155.241 35.535 165.403 29.6932 159.348C23.8558 153.293 25.3834 145.429 25.3834 145.429L30.9943 147.674Z" fill="#223681"/>
<path fill-rule="evenodd" clip-rule="evenodd" d="M49.3626 100.395C49.8422 99.4044 50.3795 97.6437 50.6415 94.5063C50.5993 94.8171 50.0576 98.7761 48.5366 101.016C42.2863 105.12 30.3051 118.824 30.5427 121.419C30.5427 121.419 26.3218 114.261 26.2485 114.219C26.2485 114.219 18.4639 104.32 27.6917 98.6495C32.379 95.7674 32.3545 92.0661 32.1591 88.8554C31.9615 85.6425 33.4381 71.8118 42.8302 75.431C42.8302 75.431 44.3379 74.7605 45.0151 74.8626C45.0151 74.8626 44.4644 74.967 44.1825 75.2579C45.2727 75.1935 46.8291 75.2734 48.1281 76.0128C51.5741 77.9667 54.6537 95.5232 49.3626 100.395Z" fill="#021B79"/>
<path fill-rule="evenodd" clip-rule="evenodd" d="M48.1611 101.221C48.1922 101.235 45.1436 102.818 42.85 102.189C40.694 101.603 39.2841 98.8055 39.3129 98.7989C40.2277 98.6168 40.4897 97.3601 40.4698 91.9668L40.8827 92.0467L47.8281 93.4234C47.8281 93.4234 47.6726 95.606 47.6682 97.6665C47.6593 99.3962 47.7659 101.035 48.1611 101.221Z" fill="#79B9F9"/>
<path fill-rule="evenodd" clip-rule="evenodd" d="M47.8259 93.4235C47.8259 93.4235 47.6705 95.6061 47.666 97.6666C43.7782 97.5578 41.7243 94.0119 40.8828 92.0469L47.8259 93.4235Z" fill="#5575EC"/>
<path fill-rule="evenodd" clip-rule="evenodd" d="M40.1716 91.2884C40.1716 91.2884 38.1355 88.071 37.6448 85.3178C37.2984 83.3528 38.2976 76.0722 45.6137 77.1202C45.6137 77.1202 47.7386 77.3289 49.737 78.6789C51.3245 79.7513 53.6182 82.0694 51.0559 88.4219L50.3898 90.569L40.1716 91.2884Z" fill="#021B79"/>
<path fill-rule="evenodd" clip-rule="evenodd" d="M49.1327 95.3692C49.1327 95.3692 39.9359 95.5223 39.9315 89.7938C39.9248 84.0652 38.7347 80.2284 44.6032 79.8887C50.4738 79.549 51.6151 81.7338 52.0836 83.6456C52.5499 85.5573 51.5218 95.1826 49.1327 95.3692Z" fill="#79B9F9"/>
<path fill-rule="evenodd" clip-rule="evenodd" d="M48.7861 79.7496C48.7861 79.7496 46.2682 86.4685 42.4048 87.4632C38.5391 88.4557 36.8672 87.421 36.8672 87.421C36.8672 87.421 39.8292 85.0674 40.4442 80.9575C40.4442 80.9575 46.8877 76.5523 48.7861 79.7496Z" fill="#021B79"/>
<path fill-rule="evenodd" clip-rule="evenodd" d="M48.1641 80.2958C48.1641 80.2958 50.0447 81.7968 50.5021 83.2533C50.9617 84.7121 51.166 87.7141 52.0431 87.6119C52.0431 87.6119 53.9415 83.0446 51.8099 80.4601C49.5474 77.7224 48.1641 80.2958 48.1641 80.2958Z" fill="#021B79"/>
<path fill-rule="evenodd" clip-rule="evenodd" d="M23.9411 147.832C24.4385 149.208 25.9572 149.561 27.9977 149.324C31.8856 148.871 37.6586 146.26 41.8173 144.457C48.1609 141.706 51.043 144.288 53.0635 142.541C55.0819 140.789 50.7566 136.901 54.5068 118.834C55.7768 112.708 47.7235 99.5696 47.7235 99.5696C47.7235 99.5696 47.0263 103.373 39.3194 98.7992C39.0485 98.6371 36.0133 103.129 33.0913 108.667C29.8695 114.775 26.7854 122.155 27.6936 125.959C29.4188 133.208 22.5001 143.833 23.9411 147.832Z" fill="#6D9DCE"/>
<path fill-rule="evenodd" clip-rule="evenodd" d="M47.7188 99.5684L52.4681 119.059C52.4681 119.059 53.061 120.111 53.9891 121.61C56.165 125.127 60.1906 131.102 62.7684 131.71C64.0385 132.01 66.7451 130.951 69.736 129.441C75.3957 126.581 82.0857 122.101 82.0857 122.101C82.5164 119.505 80.2605 117.389 80.2605 117.389C80.2605 117.389 66.7074 122.483 65.3641 122.578C62.4287 122.789 59.4445 108.63 56.7024 103.909C54.7174 100.499 47.7188 99.5684 47.7188 99.5684Z" fill="#6D9DCE"/>
<path fill-rule="evenodd" clip-rule="evenodd" d="M23.9411 147.831C24.4385 149.208 25.9572 149.561 27.9977 149.323C30.6866 148.151 42.3103 143.648 42.1793 140.597C41.9861 136.081 39.9456 135.937 41.3866 130.364C42.5434 125.885 31.8057 117.565 30.0938 115.756C26.872 121.866 26.7854 122.155 27.6913 125.958C29.4188 133.208 22.5001 143.832 23.9411 147.831ZM53.9894 121.611C56.1654 125.128 60.1909 131.103 62.7688 131.711C64.0388 132.011 66.7455 130.952 69.7363 129.442C67.5515 130.004 65.431 129.988 63.3705 129.789C61.1346 129.573 60.4862 126.833 56.9536 122.726C54.6622 120.059 54.1005 120.732 53.9894 121.611Z" fill="#0575E6"/>
<path fill-rule="evenodd" clip-rule="evenodd" d="M43.218 130.256C43.218 130.256 45.163 128.744 47.0037 129.102C48.8422 129.461 49.7415 130.727 49.6682 131.302C49.5971 131.879 48.6246 133.5 47.2191 133.644C45.8136 133.787 41.8125 132.778 41.8125 132.778L43.218 130.256Z" fill="#79B9F9"/>
<path fill-rule="evenodd" clip-rule="evenodd" d="M39.3128 98.7988C39.3128 98.7988 31.8168 99.2607 29.2234 102.88C25.5687 107.973 19.2273 128.767 20.957 133.528L43.758 133.43C43.758 133.43 44.3109 130.85 43.5426 129.6C42.7721 128.35 30.2803 126.331 29.703 125.754C29.1257 125.177 36.9103 114.508 36.9103 112.778C36.9103 111.049 39.3128 98.7988 39.3128 98.7988Z" fill="#6D9DCE"/>
<path fill-rule="evenodd" clip-rule="evenodd" d="M45.1797 138.772H72.7811L77.757 121.42H50.1955L45.1797 138.772Z" fill="#C4D7EB"/>
<path d="M72.6893 138.098H36.6016V138.773H72.6893V138.098Z" fill="#85A5C6"/>
<path fill-rule="evenodd" clip-rule="evenodd" d="M64.0178 129.815C64.1933 129.204 63.838 128.709 63.2296 128.709C62.619 128.709 61.984 129.204 61.8108 129.815C61.6354 130.425 61.9862 130.92 62.5968 130.92C63.2052 130.918 63.8402 130.423 64.0178 129.815Z" fill="#85A5C6"/>
</svg>
