<svg width="335" height="260" viewBox="0 0 335 260" fill="none" xmlns="http://www.w3.org/2000/svg">
<path d="M330.411 195.911C328.827 209.984 323.471 223.368 314.91 234.648C306.349 245.929 294.9 254.688 281.772 260H66.5273C50.0564 256.1 35.2834 246.99 24.4039 234.023C13.5243 221.057 7.11893 204.926 6.1396 188.028C5.16026 171.13 9.65929 154.367 18.968 140.23C28.2768 126.094 41.8984 115.338 57.8085 109.561C52.7814 97.8509 50.6913 85.0898 51.7201 72.3877C51.7886 71.5338 51.8729 70.6851 51.9678 69.8258C53.702 54.4223 59.9508 39.8752 69.9288 28.0128C79.9067 16.1504 93.1685 7.50212 108.047 3.15503C122.926 -1.19205 138.758 -1.04399 153.553 3.58061C168.348 8.2052 181.445 17.1 191.2 29.1469C203.817 24.1769 217.505 22.556 230.934 24.4421C244.363 26.3281 257.075 31.6568 267.835 39.91C278.595 48.1632 287.036 59.0602 292.338 71.5414C297.64 84.0226 299.622 97.6633 298.092 111.137C297.688 114.746 297.031 118.322 296.126 121.838C308.074 129.863 317.59 141.014 323.636 154.076C329.682 167.138 332.025 181.609 330.411 195.911Z" fill="#E1E7ED"/>
<path d="M39.7408 259.999C39.7408 259.999 26.9472 257.806 21.6601 249.904C14.3803 239.024 21.6601 233.463 21.6601 233.463C21.6601 233.463 8.74527 232.757 5.23983 224.307C1.73438 215.857 9.93659 213.037 9.93659 213.037C9.93659 213.037 -4.61758 201.255 1.50245 191.646C7.62247 182.036 23.8108 193.158 23.8108 193.158C23.8108 193.158 28.9767 187.402 36.2564 191.646C43.5361 195.889 50.0726 209.262 50.0726 209.262C50.0726 209.262 56.1768 200.338 62.0491 207.618C67.9213 214.897 64.3948 259.983 64.3948 259.983L39.7408 259.999Z" fill="#8095AA"/>
<path d="M61.3437 258.181C61.3017 258.186 61.2592 258.186 61.2172 258.181C47.8701 254.807 40.1845 245.724 37.0322 229.589C34.5758 217.038 29.0936 207.354 10.296 200.871C10.2282 200.85 10.1652 200.816 10.1109 200.77C10.0565 200.725 10.0119 200.669 9.97964 200.606C9.94739 200.543 9.92819 200.474 9.92319 200.403C9.91819 200.333 9.92749 200.262 9.95053 200.195C9.97357 200.128 10.0099 200.066 10.0573 200.013C10.1047 199.961 10.1623 199.918 10.2265 199.888C10.2907 199.858 10.3603 199.842 10.4311 199.839C10.502 199.837 10.5725 199.849 10.6386 199.874C29.9159 206.521 35.5457 216.479 38.0496 229.394C41.1175 245.076 48.5554 253.9 61.4596 257.163C61.5994 257.181 61.7266 257.253 61.8131 257.364C61.8996 257.475 61.9384 257.616 61.9209 257.756C61.9034 257.896 61.8311 258.023 61.7199 258.11C61.6087 258.196 61.4677 258.235 61.3279 258.217L61.3437 258.181ZM47.2112 209.858C47.2112 209.858 32.968 202.937 29.489 191.867C24.6657 176.638 35.0924 172.606 35.0924 172.606C35.0924 172.606 20.1956 167.376 18.9463 156.264C17.697 145.152 28.2924 144.667 28.2924 144.667C28.2924 144.667 15.2458 125.902 25.6567 116.729C36.0676 107.557 51.2754 126.081 51.2754 126.081C51.2754 126.081 59.2931 121.094 66.3778 128.553C73.4625 136.012 76.6042 153.913 76.6042 153.913C76.6042 153.913 86.799 145.537 91.2006 156.069C95.6021 166.602 76.1087 218.24 76.1087 218.24L47.2112 209.858Z" fill="#646D8E"/>
<path d="M73.1534 215.088C73.102 215.073 73.0525 215.052 73.0058 215.025C58.5149 206.528 52.6004 193.26 54.4032 173.281C55.8107 157.736 52.6795 144.51 32.8593 130.51C32.7195 130.411 32.6245 130.261 32.5954 130.093C32.5662 129.924 32.6052 129.751 32.7038 129.611C32.8023 129.471 32.9524 129.376 33.1209 129.347C33.2895 129.318 33.4627 129.357 33.6025 129.455C53.9288 143.815 57.1338 157.394 55.6894 173.397C53.9394 192.822 59.6482 205.695 73.6594 213.913C73.8153 213.983 73.9371 214.112 73.9979 214.271C74.0587 214.431 74.0535 214.608 73.9836 214.764C73.9137 214.92 73.7848 215.042 73.6251 215.103C73.4655 215.163 73.2882 215.158 73.1323 215.088H73.1534ZM317.306 147.431C317.306 147.431 325.261 144.126 327.517 138.232C330.621 130.114 325.092 127.595 325.092 127.595C325.092 127.595 333.342 125.233 334.375 119.245C335.408 113.257 329.673 112.645 329.673 112.645C329.673 112.645 337.353 102.872 331.987 97.5586C326.621 92.2451 317.754 101.823 317.754 101.823C316.486 100.991 314.97 100.623 313.462 100.781C311.954 100.938 310.547 101.612 309.478 102.688C305.398 106.504 303.116 116.135 303.116 116.135C303.116 116.135 297.844 111.264 295.124 116.841C292.404 122.418 301.329 151.068 301.329 151.068L317.306 147.431Z" fill="#8095AA"/>
<path d="M303.073 149.44L303.158 149.413C311.296 145.259 314.928 138.249 314.586 127.347C314.322 118.861 316.441 111.786 327.648 104.818C327.727 104.769 327.783 104.69 327.805 104.6C327.826 104.51 327.81 104.414 327.762 104.335C327.713 104.256 327.634 104.2 327.544 104.179C327.453 104.158 327.358 104.173 327.279 104.222C315.788 111.37 313.611 118.644 313.885 127.369C314.217 137.969 310.722 144.764 302.815 148.786C302.731 148.82 302.664 148.885 302.628 148.967C302.591 149.049 302.588 149.142 302.618 149.227C302.649 149.312 302.711 149.381 302.792 149.421C302.873 149.461 302.966 149.467 303.052 149.44H303.073ZM307.375 118.444C307.375 118.444 315.572 111.855 316.204 104.18C317.079 93.6108 309.736 92.5408 309.736 92.5408C309.736 92.5408 318.603 86.9689 317.775 79.5891C316.947 72.2092 310.016 73.4585 310.016 73.4585C310.016 73.4585 315.687 59.3893 307.585 55.0088C299.483 50.6283 292.383 64.8293 292.383 64.8293C290.614 64.285 288.712 64.3686 286.999 65.0661C285.285 65.7635 283.865 67.0318 282.979 68.6563C279.494 74.5286 280.106 86.5789 280.106 86.5789C280.106 86.5789 272.273 82.6623 270.981 90.1265C269.69 97.5907 289.895 128.143 289.895 128.143L307.375 118.444Z" fill="#646D8E"/>
<path d="M291.356 125.649L291.446 125.591C299.569 117.952 301.435 108.496 297.318 95.8339C294.118 85.9818 294.192 76.9678 304.951 64.9807C305.026 64.8958 305.065 64.7846 305.059 64.6712C305.053 64.5577 305.003 64.4512 304.919 64.3745C304.877 64.3369 304.828 64.3079 304.775 64.2893C304.721 64.2708 304.665 64.263 304.608 64.2664C304.552 64.2698 304.497 64.2844 304.446 64.3093C304.396 64.3342 304.35 64.3689 304.313 64.4114C293.28 76.6989 293.212 85.966 296.506 96.0975C300.507 108.406 298.71 117.583 290.861 124.963C290.821 125.003 290.789 125.05 290.767 125.102C290.746 125.154 290.734 125.21 290.734 125.266C290.734 125.323 290.746 125.379 290.767 125.431C290.789 125.483 290.821 125.53 290.861 125.57C290.924 125.634 291.006 125.677 291.095 125.691C291.185 125.705 291.276 125.69 291.356 125.649Z" fill="#8095AA"/>
<path d="M307.931 111.295H133.84C129.1 111.295 125.258 115.137 125.258 119.877V214.155C125.258 218.894 129.1 222.736 133.84 222.736H307.931C312.67 222.736 316.513 218.894 316.513 214.155V119.877C316.513 115.137 312.67 111.295 307.931 111.295Z" fill="#0575E6"/>
<path d="M316.505 119.877V200.597H125.25V119.877C125.25 118.748 125.473 117.629 125.906 116.587C126.339 115.544 126.973 114.596 127.773 113.799C128.573 113.002 129.522 112.37 130.566 111.941C131.61 111.511 132.729 111.291 133.858 111.295H307.928C310.203 111.298 312.384 112.203 313.992 113.812C315.6 115.421 316.503 117.602 316.505 119.877Z" fill="#021B79"/>
<g opacity="0.78">
<path d="M303.891 116.203H137.876C134.001 116.203 130.859 119.344 130.859 123.219V188.378C130.859 192.253 134.001 195.394 137.876 195.394H303.891C307.766 195.394 310.907 192.253 310.907 188.378V123.219C310.907 119.344 307.766 116.203 303.891 116.203Z" fill="white"/>
</g>
<path d="M238.721 218.693H203.055V246.573H238.721V218.693Z" fill="#0575E6"/>
<path d="M269.463 251.597H172.297C172.298 249.232 173.238 246.964 174.911 245.292C176.583 243.619 178.851 242.679 181.216 242.678H260.544C261.716 242.678 262.875 242.908 263.958 243.357C265.04 243.805 266.023 244.462 266.851 245.29C267.679 246.118 268.336 247.102 268.785 248.184C269.233 249.266 269.463 250.426 269.463 251.597Z" fill="#0575E6"/>
<path d="M287.715 260.001H147.123C146.005 260.001 144.932 259.556 144.141 258.765C143.351 257.975 142.906 256.902 142.906 255.783C142.906 254.665 143.351 253.592 144.141 252.802C144.932 252.011 146.005 251.566 147.123 251.566H287.715C288.834 251.566 289.906 252.011 290.697 252.802C291.488 253.592 291.932 254.665 291.932 255.783C291.932 256.902 291.488 257.975 290.697 258.765C289.906 259.556 288.834 260.001 287.715 260.001Z" fill="#021B79"/>
<g style="mix-blend-mode:multiply">
<path d="M202.969 222.764H238.64L238.809 229.527L202.969 222.764Z" fill="#BDCAD7"/>
</g>
<g style="mix-blend-mode:multiply">
<path d="M220.892 215.21C223.495 215.21 225.605 213.1 225.605 210.498C225.605 207.895 223.495 205.785 220.892 205.785C218.29 205.785 216.18 207.895 216.18 210.498C216.18 213.1 218.29 215.21 220.892 215.21Z" fill="#BDCAD7"/>
</g>
<g opacity="0.57">
<path d="M125.258 150.224L125.279 136.186L146.644 111.295H158.662L125.258 150.224Z" fill="white"/>
</g>
<g opacity="0.57">
<path d="M168.547 200.597H156.523L233.153 111.295H245.177L168.547 200.597Z" fill="white"/>
</g>
<g opacity="0.57">
<path d="M181.705 200.597H175.695L252.325 111.295H258.334L181.705 200.597Z" fill="white"/>
</g>
<g opacity="0.57">
<path d="M279.194 200.597H273.18L316.515 150.098V157.103L279.194 200.597Z" fill="white"/>
</g>
<g opacity="0.57">
<path d="M125.258 183.238V161.468L168.314 111.295H186.99L125.258 183.238Z" fill="white"/>
</g>
<g opacity="0.57">
<path d="M316.431 119.877V134.811L260.07 200.613H241.398L314.881 114.906C315.909 116.358 316.451 118.098 316.431 119.877Z" fill="white"/>
</g>
<g style="mix-blend-mode:multiply">
<path d="M203.029 242.68H239.312L200.367 246.781L203.029 242.68Z" fill="#BDCAD7"/>
</g>
<path d="M65.8209 79.1344C64.7829 66.8223 68.5892 54.591 76.4303 45.0419C84.2713 35.4929 95.5284 29.3796 107.807 28.0024C108.182 27.9495 108.563 27.9723 108.928 28.0695C109.294 28.1666 109.636 28.3362 109.935 28.568C110.234 28.7999 110.483 29.0894 110.668 29.4194C110.852 29.7493 110.969 30.113 111.011 30.4889C111.052 30.8648 111.018 31.2452 110.91 31.6076C110.802 31.97 110.622 32.307 110.381 32.5987C110.141 32.8903 109.844 33.1307 109.509 33.3055C109.173 33.4803 108.806 33.586 108.429 33.6164C97.7366 34.8139 87.9182 40.0903 81.0189 48.3466C74.1197 56.6029 70.6716 67.2025 71.3928 77.9378L78.1084 76.4987L73.1903 96.456L60.5391 80.2625L65.8209 79.1344Z" fill="#4B5DA0"/>
<path d="M246.741 53.3472C246.741 53.0676 246.63 52.7995 246.432 52.6018C246.234 52.404 245.966 52.293 245.686 52.293C245.407 52.293 245.139 52.404 244.941 52.6018C244.743 52.7995 244.632 53.0676 244.632 53.3472V64.1693H176.938V53.3472C176.938 53.0676 176.827 52.7995 176.629 52.6018C176.431 52.404 176.163 52.293 175.883 52.293C175.604 52.293 175.336 52.404 175.138 52.6018C174.94 52.7995 174.829 53.0676 174.829 53.3472V64.1693H107.14V53.3472C107.14 53.0676 107.029 52.7995 106.831 52.6018C106.633 52.404 106.365 52.293 106.086 52.293C105.806 52.293 105.538 52.404 105.34 52.6018C105.142 52.7995 105.031 53.0676 105.031 53.3472V66.2778H174.829V85.7818C174.829 86.0614 174.94 86.3296 175.138 86.5273C175.336 86.725 175.604 86.8361 175.883 86.8361C176.163 86.8361 176.431 86.725 176.629 86.5273C176.827 86.3296 176.938 86.0614 176.938 85.7818V66.2778H246.741V53.3472Z" fill="#0575E6"/>
<path d="M261.95 12.6113H229.426C226.727 12.6113 224.539 14.7991 224.539 17.4979V50.022C224.539 52.7208 226.727 54.9086 229.426 54.9086H261.95C264.649 54.9086 266.836 52.7208 266.836 50.022V17.4979C266.836 14.7991 264.649 12.6113 261.95 12.6113Z" fill="#4B5DA0"/>
<path d="M250.966 31.8102C254.319 28.4568 254.319 23.0198 250.966 19.6663C247.612 16.3129 242.175 16.3129 238.822 19.6663C235.469 23.0198 235.468 28.4568 238.822 31.8102C242.175 35.1637 247.612 35.1637 250.966 31.8102Z" fill="white"/>
<path d="M238.089 35.1133H253.281C254.348 35.1105 255.405 35.3179 256.392 35.7236C257.378 36.1292 258.275 36.7253 259.031 37.4776C259.788 38.23 260.388 39.1239 260.799 40.1084C261.21 41.0929 261.423 42.1486 261.426 43.2154V50.3738H229.961V43.2154C229.967 41.0637 230.826 39.0022 232.349 37.4832C233.873 35.9642 235.938 35.1119 238.089 35.1133Z" fill="white"/>
<path d="M192.544 12.6113H160.019C157.321 12.6113 155.133 14.7991 155.133 17.4979V50.022C155.133 52.7208 157.321 54.9086 160.019 54.9086H192.544C195.242 54.9086 197.43 52.7208 197.43 50.022V17.4979C197.43 14.7991 195.242 12.6113 192.544 12.6113Z" fill="#89AFD5"/>
<path d="M181.56 31.8083C184.913 28.4548 184.913 23.0178 181.56 19.6644C178.206 16.3109 172.769 16.311 169.416 19.6644C166.062 23.0178 166.062 28.4548 169.416 31.8083C172.769 35.1617 178.206 35.1617 181.56 31.8083Z" fill="white"/>
<path d="M168.686 35.1133H183.878C186.029 35.1119 188.094 35.9642 189.618 37.4832C191.141 39.0022 192 41.0637 192.006 43.2153V50.3738H160.562V43.2153C160.568 41.0646 161.426 39.0039 162.949 37.485C164.472 35.9662 166.535 35.1133 168.686 35.1133Z" fill="white"/>
<path d="M123.137 12.6113H90.6131C87.9143 12.6113 85.7266 14.7991 85.7266 17.4979V50.022C85.7266 52.7208 87.9143 54.9086 90.6131 54.9086H123.137C125.836 54.9086 128.024 52.7208 128.024 50.022V17.4979C128.024 14.7991 125.836 12.6113 123.137 12.6113Z" fill="#89AFD5"/>
<path d="M114.437 27.7048C115.527 23.0892 112.668 18.4643 108.052 17.3749C103.437 16.2855 98.8119 19.1441 97.7225 23.7598C96.6331 28.3755 99.4917 33.0003 104.107 34.0897C108.723 35.1791 113.348 32.3205 114.437 27.7048Z" fill="white"/>
<path d="M99.2819 35.1133H114.474C116.626 35.1119 118.69 35.9642 120.214 37.4832C121.738 39.0022 122.597 41.0637 122.602 43.2153V50.3738H91.1641V43.2153C91.1696 41.0655 92.0272 39.0056 93.5489 37.4869C95.0705 35.9682 97.1321 35.1147 99.2819 35.1133Z" fill="white"/>
<g opacity="0.33">
<path d="M281.095 92.6387H162.833C157.933 92.6387 153.961 96.6107 153.961 101.51V174.713C153.961 179.613 157.933 183.585 162.833 183.585H281.095C285.995 183.585 289.967 179.613 289.967 174.713V101.51C289.967 96.6107 285.995 92.6387 281.095 92.6387Z" fill="#172C7A"/>
</g>
<path d="M276.853 88.002H158.59C153.691 88.002 149.719 91.9739 149.719 96.8736V170.077C149.719 174.976 153.691 178.948 158.59 178.948H276.853C281.753 178.948 285.725 174.976 285.725 170.077V96.8736C285.725 91.9739 281.753 88.002 276.853 88.002Z" fill="white"/>
<path d="M234.812 106.039L231.38 100.552V87.3733C231.378 84.4348 230.321 81.5946 228.402 79.3695C226.482 77.1445 223.828 75.6824 220.922 75.2492V73.3779C220.922 72.4468 220.552 71.5538 219.893 70.8955C219.235 70.2371 218.342 69.8672 217.411 69.8672C216.48 69.8672 215.587 70.2371 214.929 70.8955C214.27 71.5538 213.9 72.4468 213.9 73.3779V75.2492C210.994 75.6834 208.341 77.1458 206.421 79.3707C204.502 81.5955 203.445 84.4351 203.442 87.3733V100.552L199.989 106.039C199.851 106.259 199.774 106.513 199.766 106.773C199.759 107.033 199.821 107.291 199.947 107.518C200.073 107.746 200.258 107.936 200.482 108.068C200.707 108.2 200.962 108.269 201.223 108.269H233.605C233.863 108.265 234.115 108.192 234.335 108.058C234.556 107.924 234.737 107.734 234.86 107.507C234.983 107.28 235.043 107.024 235.035 106.766C235.026 106.509 234.949 106.258 234.812 106.039ZM218.059 113.625H216.72C215.522 113.623 214.372 113.147 213.524 112.301C212.675 111.454 212.196 110.306 212.192 109.107H222.587C222.583 110.306 222.104 111.454 221.256 112.301C220.407 113.147 219.258 113.623 218.059 113.625Z" fill="#0575E6"/>
<g opacity="0.33">
<path d="M263.261 23.9657C268.35 23.9657 272.475 19.8403 272.475 14.7514C272.475 9.66249 268.35 5.53711 263.261 5.53711C258.172 5.53711 254.047 9.66249 254.047 14.7514C254.047 19.8403 258.172 23.9657 263.261 23.9657Z" fill="#172C7A"/>
</g>
<path d="M265.042 23.1688C270.131 23.1688 274.257 19.0435 274.257 13.9545C274.257 8.86562 270.131 4.74023 265.042 4.74023C259.953 4.74023 255.828 8.86562 255.828 13.9545C255.828 19.0435 259.953 23.1688 265.042 23.1688Z" fill="#4468F0"/>
<path d="M262.316 11.0612V13.4333H264.588V14.4454H262.311V16.8544H261.256V14.419H258.984V13.4069H261.256V11.0612H262.316ZM267.598 11.2193L266.248 11.8624L265.974 10.6237L267.856 9.75391H269.216V16.828H267.635L267.598 11.2193Z" fill="white"/>
<path d="M170.406 132.735C171.429 133.254 172.558 133.534 173.705 133.552C175.071 133.552 175.814 132.988 175.814 132.129C175.814 131.27 175.192 130.838 173.611 130.295C171.423 129.514 169.979 128.302 169.979 126.388C169.979 124.148 171.871 122.451 174.955 122.451C176.11 122.416 177.258 122.643 178.313 123.115L177.612 125.492C176.761 125.078 175.827 124.866 174.881 124.87C173.59 124.87 172.967 125.477 172.967 126.135C172.967 126.974 173.69 127.348 175.408 127.991C177.728 128.85 178.803 130.057 178.803 131.913C178.803 134.116 177.121 135.993 173.532 135.993C172.243 136.003 170.969 135.722 169.805 135.171L170.406 132.735ZM183.811 122.646V130.194C183.811 132.477 184.691 133.631 186.193 133.631C187.696 133.631 188.613 132.54 188.613 130.194V122.646H191.581V130.026C191.581 134.085 189.53 136.014 186.093 136.014C182.777 136.014 180.848 134.164 180.848 129.989V122.646H183.811ZM194.153 122.815C195.425 122.628 196.71 122.536 197.996 122.54C199.814 122.54 200.927 122.72 201.902 123.284C202.383 123.523 202.787 123.893 203.067 124.352C203.346 124.811 203.491 125.34 203.483 125.877C203.483 127.032 202.798 128.102 201.317 128.671V128.708C202.062 128.855 202.733 129.257 203.214 129.845C203.694 130.432 203.956 131.169 203.952 131.929C203.956 132.47 203.835 133.006 203.598 133.493C203.361 133.98 203.015 134.406 202.587 134.738C201.633 135.497 200.031 135.93 197.416 135.93C196.339 135.939 195.263 135.873 194.195 135.735L194.153 122.815ZM197.1 127.849H198.075C199.656 127.849 200.479 127.206 200.479 126.23C200.479 125.255 199.714 124.707 198.37 124.707C197.945 124.7 197.52 124.726 197.1 124.786V127.849ZM197.1 133.684C197.483 133.719 197.869 133.731 198.254 133.721C199.598 133.721 200.79 133.194 200.79 131.813C200.79 130.432 199.598 129.978 198.117 129.978H197.116L197.1 133.684ZM206.035 132.735C207.059 133.253 208.187 133.532 209.334 133.552C210.7 133.552 211.443 132.988 211.443 132.129C211.443 131.27 210.821 130.838 209.24 130.295C207.052 129.514 205.608 128.302 205.608 126.388C205.608 124.148 207.5 122.451 210.584 122.451C211.739 122.416 212.887 122.643 213.942 123.115L213.277 125.492C212.427 125.078 211.493 124.865 210.547 124.87C209.261 124.87 208.633 125.477 208.633 126.135C208.633 126.974 209.356 127.348 211.074 127.991C213.393 128.85 214.469 130.057 214.469 131.913C214.469 134.116 212.792 135.993 209.197 135.993C207.909 136.003 206.635 135.722 205.471 135.171L206.035 132.735ZM226.108 135.466C225.036 135.872 223.895 136.063 222.75 136.03C218.201 136.03 215.86 133.183 215.86 129.435C215.86 124.949 219.06 122.472 223.04 122.472C224.151 122.421 225.259 122.621 226.282 123.057L225.655 125.397C224.866 125.065 224.017 124.899 223.161 124.907C220.815 124.907 218.981 126.336 218.981 129.261C218.981 131.897 220.562 133.552 223.198 133.552C224.05 133.561 224.896 133.416 225.697 133.125L226.108 135.466ZM228.085 122.815C229.397 122.621 230.722 122.529 232.049 122.54C233.999 122.54 235.364 122.836 236.303 123.595C236.712 123.927 237.036 124.352 237.249 124.834C237.463 125.316 237.559 125.841 237.531 126.367C237.518 127.077 237.288 127.766 236.872 128.341C236.457 128.917 235.876 129.352 235.206 129.588V129.646C236.123 130.015 236.635 130.874 236.967 132.087C237.373 133.589 237.763 135.302 238.021 135.814H234.98C234.588 134.822 234.288 133.797 234.083 132.751C233.709 131.091 233.145 130.642 231.917 130.642H231.037V135.814H228.09L228.085 122.815ZM231.031 128.476H232.202C233.688 128.476 234.563 127.733 234.563 126.578C234.563 125.424 233.746 124.765 232.381 124.765C231.929 124.747 231.476 124.78 231.031 124.865V128.476ZM242.644 122.646V135.798H239.676V122.646H242.644ZM245.216 122.815C246.489 122.628 247.773 122.536 249.059 122.54C250.878 122.54 251.99 122.72 252.965 123.284C253.447 123.523 253.85 123.893 254.13 124.352C254.41 124.811 254.554 125.34 254.547 125.877C254.547 127.032 253.861 128.102 252.38 128.671V128.708C253.125 128.855 253.796 129.257 254.277 129.845C254.758 130.432 255.019 131.169 255.016 131.929C255.021 132.471 254.9 133.006 254.663 133.494C254.426 133.981 254.08 134.407 253.651 134.738C252.697 135.497 251.094 135.93 248.479 135.93C247.403 135.939 246.326 135.873 245.259 135.735L245.216 122.815ZM248.163 127.849H249.138C250.72 127.849 251.542 127.206 251.542 126.23C251.542 125.255 250.778 124.707 249.434 124.707C249.009 124.7 248.584 124.726 248.163 124.786V127.849ZM248.163 133.684C248.547 133.719 248.932 133.731 249.318 133.721C250.662 133.721 251.853 133.194 251.853 131.813C251.853 130.432 250.662 129.978 249.181 129.978H248.163V133.684ZM264.826 130.237H259.987V133.357H265.395V135.798H257.024V122.646H265.116V125.081H259.982V127.817H264.821L264.826 130.237Z" fill="#021B79"/>
<g opacity="0.33">
<path d="M251.567 149.418H182.786C180.277 149.418 178.242 151.452 178.242 153.962V159.913C178.242 162.423 180.277 164.457 182.786 164.457H251.567C254.076 164.457 256.11 162.423 256.11 159.913V153.962C256.11 151.452 254.076 149.418 251.567 149.418Z" fill="#172C7A"/>
</g>
<path d="M248.418 146.83H179.638C177.128 146.83 175.094 148.864 175.094 151.374V157.325C175.094 159.835 177.128 161.869 179.638 161.869H248.418C250.928 161.869 252.962 159.835 252.962 157.325V151.374C252.962 148.864 250.928 146.83 248.418 146.83Z" fill="#4B5DA0"/>
<path d="M217.672 154.352C217.673 154.9 217.511 155.435 217.208 155.891C216.904 156.347 216.473 156.702 215.967 156.913C215.461 157.123 214.905 157.178 214.368 157.072C213.83 156.966 213.337 156.703 212.949 156.316C212.562 155.929 212.298 155.436 212.19 154.899C212.083 154.362 212.138 153.805 212.347 153.299C212.556 152.793 212.911 152.361 213.366 152.057C213.821 151.752 214.357 151.59 214.904 151.59C215.267 151.589 215.627 151.66 215.963 151.799C216.299 151.937 216.604 152.14 216.861 152.397C217.118 152.654 217.322 152.958 217.461 153.294C217.6 153.629 217.672 153.989 217.672 154.352ZM226.259 154.352C226.26 154.9 226.098 155.435 225.795 155.891C225.491 156.347 225.06 156.702 224.554 156.913C224.048 157.123 223.492 157.178 222.955 157.072C222.417 156.966 221.924 156.703 221.536 156.316C221.149 155.929 220.885 155.436 220.777 154.899C220.67 154.362 220.725 153.805 220.934 153.299C221.143 152.793 221.498 152.361 221.953 152.057C222.408 151.752 222.944 151.59 223.491 151.59C223.854 151.589 224.214 151.66 224.55 151.799C224.886 151.937 225.191 152.14 225.448 152.397C225.705 152.654 225.909 152.958 226.048 153.294C226.187 153.629 226.259 153.989 226.259 154.352ZM209.048 154.352C209.048 154.898 208.886 155.432 208.582 155.887C208.279 156.341 207.847 156.695 207.343 156.904C206.838 157.113 206.283 157.168 205.747 157.061C205.211 156.955 204.719 156.691 204.332 156.305C203.946 155.919 203.683 155.427 203.577 154.891C203.47 154.355 203.525 153.8 203.734 153.295C203.943 152.79 204.297 152.359 204.751 152.055C205.205 151.752 205.739 151.59 206.286 151.59C206.649 151.589 207.008 151.66 207.343 151.799C207.679 151.937 207.984 152.141 208.24 152.397C208.497 152.654 208.7 152.959 208.839 153.294C208.978 153.63 209.049 153.989 209.048 154.352Z" fill="white"/>
<path d="M266.939 160.445L255.885 164.224L252.131 175.284L245.273 153.629L266.939 160.445Z" fill="#475DB2"/>
<path d="M255.885 164.224L245.273 153.629L252.131 175.284L255.885 164.224Z" fill="#60A6ED"/>
<path d="M116.815 135.964L115.913 154.841L102.461 146.965L106.214 133.312L116.815 135.964Z" fill="#6480E8"/>
<path d="M34.8672 259.816C34.8672 259.816 52.6843 178.195 79.9899 157.853C121.438 126.973 167.853 166.645 167.853 166.645L139.387 207.872L127.949 205.142L122.503 260.001L34.8672 259.816Z" fill="#4468F0"/>
<path d="M167.861 166.645L186.421 177.304L234.918 156.883L244.037 171.015C244.037 171.015 209.072 203.935 188.066 208.321C167.06 212.706 142.906 202.801 142.906 202.801L167.861 166.645Z" fill="#6480EA"/>
<g opacity="0.33">
<path d="M116.987 136.256L100.398 126.994C100.398 126.994 104.494 135.428 109.629 137.379C114.763 139.329 116.987 136.256 116.987 136.256Z" fill="#344480"/>
</g>
<path d="M129.687 113.526L126.055 109.789C126.055 109.789 125.501 108.592 125.185 107.991C119.455 97.0479 111.838 88.4872 101.079 95.34C93.8575 99.9418 91.9967 111.402 97.7267 122.35C103.457 133.299 114.247 138.95 121.833 135.002C127.378 132.102 129.666 124.854 128.258 116.889L129.587 115.745C129.745 115.61 129.873 115.443 129.965 115.256C130.056 115.069 130.108 114.865 130.117 114.657C130.126 114.449 130.093 114.242 130.019 114.047C129.945 113.853 129.832 113.675 129.687 113.526Z" fill="#6480E8"/>
<g opacity="0.32">
<path d="M115.729 119.034C118.389 118.993 120.524 117.507 120.497 115.714C120.469 113.921 118.291 112.5 115.63 112.54C112.969 112.581 110.835 114.067 110.862 115.86C110.889 117.653 113.068 119.074 115.729 119.034Z" fill="#344480"/>
</g>
<path d="M119.313 109.508C119.73 110.299 120.473 110.731 120.974 110.468C121.475 110.204 121.538 109.35 121.121 108.559C120.705 107.769 119.962 107.336 119.461 107.6C118.96 107.864 118.897 108.718 119.313 109.508ZM120.373 103.309C120.421 103.236 120.442 103.148 120.431 103.061C120.42 102.96 120.37 102.867 120.291 102.803C120.212 102.739 120.111 102.708 120.009 102.719C119.242 102.847 118.512 103.144 117.874 103.589C117.236 104.034 116.705 104.615 116.319 105.291C115.947 105.821 115.703 106.43 115.604 107.07C115.505 107.71 115.555 108.364 115.75 108.981C115.768 109.029 115.794 109.072 115.829 109.109C115.863 109.146 115.905 109.176 115.951 109.197C115.997 109.218 116.046 109.23 116.097 109.232C116.148 109.234 116.198 109.225 116.245 109.208C116.293 109.19 116.336 109.163 116.373 109.129C116.41 109.094 116.44 109.053 116.461 109.007C116.482 108.961 116.494 108.911 116.496 108.861C116.498 108.81 116.49 108.76 116.472 108.712C116.323 108.206 116.29 107.673 116.377 107.152C116.464 106.632 116.667 106.138 116.973 105.708L117.036 105.613C117.366 105.069 117.806 104.6 118.328 104.237C118.85 103.874 119.443 103.624 120.067 103.504C120.13 103.498 120.191 103.478 120.244 103.444C120.297 103.41 120.341 103.364 120.373 103.309Z" fill="#28292F"/>
<path d="M111.923 136.066C110.917 128.512 112.941 106.282 117.622 98.4967C118.07 97.7482 118.233 95.4868 118.149 94.4588C117.939 91.421 116.705 88.5443 114.647 86.2994C112.59 84.0544 109.832 82.5742 106.824 82.1009C103.816 81.6277 100.736 82.1893 98.0887 83.694C95.4414 85.1988 93.3832 87.5574 92.2508 90.3841C91.3283 90.2127 90.3879 90.1578 89.4517 90.2207C87.6093 90.3491 85.8256 90.9227 84.2537 91.8923C82.6818 92.8618 81.3688 94.1984 80.4272 95.7872C80.4262 95.8013 80.4262 95.8153 80.4272 95.8294C80.3639 95.9348 80.3112 96.0455 80.2532 96.1509C74.7605 106.093 67.7443 133.978 69.1307 145.085C69.1906 145.912 69.3391 146.73 69.5735 147.525C71.2656 154.463 75.7937 155.432 79.1146 155.617C79.8471 155.71 80.5868 155.731 81.3233 155.68C84.6653 155.812 123.61 155.153 123.668 149.096C123.726 143.04 112.925 143.619 111.923 136.066Z" fill="#28292F"/>
<path d="M105.888 126.862L107.617 113.911C107.617 113.911 104.391 109.166 101.708 112.856C99.025 116.546 105.888 126.862 105.888 126.862Z" fill="#6480E8"/>
<path d="M103.576 116.304C103.776 116.063 104.049 115.895 104.354 115.826C104.659 115.756 104.978 115.789 105.263 115.919C105.153 115.113 104.754 114.375 104.14 113.842C104.084 113.788 104.051 113.713 104.049 113.635C104.047 113.557 104.075 113.481 104.128 113.424C104.181 113.366 104.254 113.331 104.332 113.327C104.41 113.322 104.487 113.348 104.546 113.399C105.959 114.701 106.259 116.388 105.474 118.555C105.454 118.605 105.421 118.65 105.378 118.683C105.336 118.716 105.285 118.738 105.231 118.744C105.185 118.758 105.135 118.758 105.089 118.744C105.052 118.731 105.019 118.71 104.991 118.684C104.962 118.658 104.939 118.626 104.923 118.591C104.907 118.555 104.898 118.517 104.897 118.479C104.895 118.44 104.901 118.401 104.915 118.365C105.127 117.798 105.253 117.203 105.289 116.599C105.11 116.465 104.89 116.397 104.667 116.408C104.444 116.418 104.231 116.506 104.066 116.657C104.044 116.689 104.016 116.717 103.983 116.738C103.95 116.759 103.913 116.774 103.875 116.781C103.837 116.788 103.797 116.787 103.759 116.779C103.721 116.771 103.685 116.756 103.652 116.733C103.62 116.711 103.593 116.683 103.571 116.65C103.55 116.617 103.535 116.581 103.528 116.542C103.521 116.504 103.522 116.465 103.53 116.426C103.538 116.388 103.554 116.352 103.576 116.32V116.304Z" fill="#344480"/>
<path d="M241.998 173.651C241.998 173.651 265.292 173.867 265.572 170.941C265.625 170.414 265.129 169.929 264.423 169.539C266.837 169.36 268.677 168.443 268.682 167.341C268.682 166.645 267.939 166.029 266.8 165.617C269.436 165.517 271.465 164.563 271.47 163.393C271.47 162.681 270.696 162.054 269.504 161.643C269.504 161.643 280.643 163.05 281.312 160.499C282.93 154.289 257.818 154.569 255.783 152.66C252.531 149.608 261.218 142.012 258.809 139.746C256.4 137.479 241.619 147.895 238.598 150.963C236.695 152.966 235.156 155.285 234.049 157.816L221.656 165.749L231.635 181.853L241.998 173.651Z" fill="#6480EA"/>
<path d="M252.568 168.552C252.534 168.61 252.514 168.675 252.51 168.742C252.505 168.855 252.545 168.965 252.621 169.048C252.697 169.132 252.803 169.183 252.916 169.19L263.696 169.78C263.754 169.789 263.814 169.786 263.872 169.77C263.929 169.755 263.983 169.727 264.029 169.69C264.075 169.652 264.113 169.605 264.14 169.552C264.167 169.499 264.183 169.441 264.186 169.382C264.19 169.322 264.181 169.263 264.16 169.207C264.139 169.152 264.106 169.101 264.064 169.058C264.023 169.016 263.972 168.983 263.917 168.961C263.862 168.939 263.802 168.929 263.743 168.931L252.989 168.336C252.906 168.327 252.821 168.342 252.746 168.381C252.671 168.419 252.609 168.479 252.568 168.552ZM255.261 164.456C255.229 164.513 255.209 164.576 255.203 164.64C255.196 164.753 255.234 164.864 255.308 164.949C255.382 165.034 255.486 165.086 255.599 165.094L266.068 165.853C266.126 165.862 266.186 165.859 266.243 165.844C266.3 165.829 266.353 165.803 266.399 165.766C266.446 165.729 266.484 165.683 266.512 165.631C266.539 165.579 266.556 165.522 266.56 165.463C266.565 165.404 266.557 165.345 266.537 165.289C266.517 165.234 266.486 165.182 266.446 165.139C266.406 165.096 266.357 165.062 266.303 165.039C266.248 165.015 266.19 165.004 266.131 165.004L255.662 164.245C255.582 164.239 255.502 164.256 255.431 164.293C255.361 164.33 255.302 164.387 255.261 164.456ZM257.644 159.775C257.616 159.823 257.598 159.877 257.591 159.933C257.576 160.045 257.606 160.158 257.674 160.248C257.742 160.338 257.843 160.397 257.955 160.413L268.745 161.878C268.803 161.891 268.862 161.891 268.92 161.88C268.978 161.868 269.033 161.845 269.081 161.811C269.129 161.777 269.17 161.734 269.201 161.684C269.231 161.634 269.251 161.578 269.259 161.519C269.267 161.461 269.263 161.402 269.247 161.345C269.231 161.288 269.204 161.236 269.166 161.19C269.129 161.145 269.083 161.107 269.03 161.081C268.978 161.054 268.92 161.038 268.861 161.035L258.071 159.569C257.987 159.558 257.902 159.571 257.826 159.608C257.75 159.644 257.687 159.702 257.644 159.775ZM249.711 143.334C249.654 143.412 249.626 143.508 249.634 143.605C249.642 143.702 249.684 143.793 249.753 143.861C251.803 145.59 254.165 144.746 255.694 143.376C255.776 143.308 255.833 143.214 255.855 143.11C255.877 143.005 255.863 142.897 255.815 142.801C255.785 142.764 255.748 142.734 255.705 142.713C255.662 142.692 255.615 142.682 255.567 142.682C255.519 142.682 255.472 142.692 255.43 142.713C255.387 142.734 255.349 142.764 255.319 142.801C254.023 143.961 252.014 144.673 250.254 143.191C250.212 143.161 250.164 143.139 250.114 143.129C250.063 143.118 250.011 143.119 249.96 143.131C249.91 143.143 249.863 143.166 249.823 143.199C249.782 143.231 249.749 143.272 249.726 143.318L249.711 143.334ZM274.349 159.037C273.999 159.724 273.795 160.476 273.748 161.246C273.735 161.358 273.768 161.471 273.839 161.56C273.909 161.648 274.012 161.705 274.125 161.718C274.237 161.73 274.35 161.697 274.439 161.627C274.527 161.556 274.584 161.453 274.597 161.341C274.734 160.102 275.003 159.369 275.451 159.037C276.025 158.61 277.032 158.694 278.692 158.995C278.804 159.015 278.918 158.99 279.011 158.926C279.104 158.862 279.167 158.763 279.188 158.652C279.199 158.597 279.198 158.54 279.187 158.486C279.175 158.431 279.153 158.379 279.121 158.332C279.089 158.286 279.048 158.247 279.001 158.217C278.953 158.187 278.901 158.166 278.845 158.157C277.185 157.856 275.846 157.682 274.945 158.352C274.7 158.535 274.497 158.769 274.349 159.037Z" fill="#344480"/>
<path d="M128.059 205.869C127.954 205.892 127.844 205.892 127.738 205.869L107.87 199.875C107.776 199.848 107.689 199.803 107.612 199.741C107.536 199.68 107.473 199.605 107.426 199.519C107.379 199.433 107.35 199.339 107.34 199.241C107.33 199.144 107.339 199.046 107.367 198.952C107.396 198.859 107.442 198.772 107.505 198.696C107.567 198.621 107.643 198.558 107.73 198.513C107.816 198.467 107.911 198.439 108.008 198.431C108.106 198.422 108.204 198.433 108.297 198.462L128.165 204.456C128.324 204.505 128.462 204.607 128.556 204.745C128.649 204.883 128.694 205.048 128.682 205.215C128.669 205.381 128.601 205.538 128.488 205.661C128.375 205.783 128.224 205.864 128.059 205.89V205.869Z" fill="white"/>
<path d="M124.217 127.268C123.016 127.442 120.079 127.6 118.419 125.392C118.302 125.234 118.253 125.037 118.281 124.843C118.31 124.65 118.415 124.475 118.572 124.358C118.729 124.242 118.926 124.192 119.12 124.221C119.314 124.25 119.488 124.354 119.605 124.511C121.086 126.504 124.349 125.739 124.386 125.734C124.574 125.694 124.77 125.729 124.933 125.831C125.096 125.933 125.212 126.095 125.257 126.282C125.303 126.469 125.273 126.666 125.176 126.831C125.078 126.997 124.919 127.118 124.734 127.168C124.708 127.179 124.518 127.221 124.217 127.268Z" fill="#344480"/>
</svg>
