<svg width="156" height="156" viewBox="0 0 156 156" fill="none" xmlns="http://www.w3.org/2000/svg">
<path d="M68.25 87.75H19.5C14.1375 87.75 9.75 92.1375 9.75 97.5V126.75C9.75 132.113 14.1375 136.5 19.5 136.5H31.2L39.4875 151.125L47.775 146.25L36.5625 126.75H19.5V97.5H68.25V126.75H53.625V136.5H68.25C73.6125 136.5 78 132.113 78 126.75V97.5C78 92.1375 73.6125 87.75 68.25 87.75ZM92.625 126.75H102.375C121.388 126.75 136.5 111.638 136.5 92.625V82.875H126.75V92.625C126.75 106.275 116.025 117 102.375 117H92.625V126.75ZM19.5 68.25H29.25V58.5C29.25 44.85 39.975 34.125 53.625 34.125H73.125V24.375H53.625C34.6125 24.375 19.5 39.4875 19.5 58.5V68.25Z" fill="url(#paint0_linear_9892_60348)"/>
<path d="M120.25 37.375V60.125H143V37.05C143 21.45 128.375 19.5 128.375 19.5L126.425 24.05C126.425 24.05 132.925 25.025 134.225 30.225C135.525 34.125 132.925 37.375 132.925 37.375H120.25ZM91 37.375V60.125H113.75V37.05C113.75 21.45 99.125 19.5 99.125 19.5L97.175 24.05C97.175 24.05 103.675 25.025 104.975 30.225C106.275 34.125 103.675 37.375 103.675 37.375H91Z" fill="url(#paint1_linear_9892_60348)"/>
<defs>
<linearGradient id="paint0_linear_9892_60348" x1="9.75" y1="122.168" x2="142.424" y2="60.3838" gradientUnits="userSpaceOnUse">
<stop stop-color="#0575E6"/>
<stop offset="1" stop-color="#021B79"/>
</linearGradient>
<linearGradient id="paint1_linear_9892_60348" x1="9.75" y1="122.168" x2="142.424" y2="60.3838" gradientUnits="userSpaceOnUse">
<stop stop-color="#0575E6"/>
<stop offset="1" stop-color="#021B79"/>
</linearGradient>
</defs>
</svg>
