<svg width="156" height="156" viewBox="0 0 156 156" fill="none" xmlns="http://www.w3.org/2000/svg">
<path d="M19.5 117H68.25V126.75H19.5V117ZM19.5 87.75H68.25V97.5H19.5V87.75ZM126.75 68.25H29.25C26.6641 68.25 24.1842 67.2228 22.3557 65.3943C20.5272 63.5658 19.5 61.0859 19.5 58.5V29.25C19.5 26.6641 20.5272 24.1842 22.3557 22.3557C24.1842 20.5272 26.6641 19.5 29.25 19.5H126.75C129.336 19.5 131.816 20.5272 133.644 22.3557C135.473 24.1842 136.5 26.6641 136.5 29.25V58.5C136.5 61.0859 135.473 63.5658 133.644 65.3943C131.816 67.2228 129.336 68.25 126.75 68.25ZM29.25 29.25V58.5H126.75V29.25H29.25ZM126.75 136.5H97.5C94.9141 136.5 92.4342 135.473 90.6057 133.644C88.7772 131.816 87.75 129.336 87.75 126.75V97.5C87.75 94.9141 88.7772 92.4342 90.6057 90.6057C92.4342 88.7772 94.9141 87.75 97.5 87.75H126.75C129.336 87.75 131.816 88.7772 133.644 90.6057C135.473 92.4342 136.5 94.9141 136.5 97.5V126.75C136.5 129.336 135.473 131.816 133.644 133.644C131.816 135.473 129.336 136.5 126.75 136.5ZM97.5 97.5V126.75H126.75V97.5H97.5Z" fill="url(#paint0_linear_9892_60308)"/>
<defs>
<linearGradient id="paint0_linear_9892_60308" x1="19.5" y1="110.76" x2="136.5" y2="56.94" gradientUnits="userSpaceOnUse">
<stop stop-color="#0575E6"/>
<stop offset="1" stop-color="#021B79"/>
</linearGradient>
</defs>
</svg>
