<svg width="156" height="156" viewBox="0 0 156 156" fill="none" xmlns="http://www.w3.org/2000/svg">
<path d="M58.4999 68.25C58.4999 66.957 59.0136 65.717 59.9278 64.8028C60.842 63.8886 62.082 63.375 63.3749 63.375H92.6249C93.9179 63.375 95.1579 63.8886 96.0721 64.8028C96.9863 65.717 97.4999 66.957 97.4999 68.25C97.4999 69.5429 96.9863 70.7829 96.0721 71.6971C95.1579 72.6113 93.9179 73.125 92.6249 73.125H63.3749C62.082 73.125 60.842 72.6113 59.9278 71.6971C59.0136 70.7829 58.4999 69.5429 58.4999 68.25ZM63.3749 82.875C62.082 82.875 60.842 83.3886 59.9278 84.3028C59.0136 85.217 58.4999 86.457 58.4999 87.75C58.4999 89.0429 59.0136 90.2829 59.9278 91.1971C60.842 92.1113 62.082 92.625 63.3749 92.625H82.8749C84.1679 92.625 85.4079 92.1113 86.3221 91.1971C87.2363 90.2829 87.7499 89.0429 87.7499 87.75C87.7499 86.457 87.2363 85.217 86.3221 84.3028C85.4079 83.3886 84.1679 82.875 82.8749 82.875H63.3749ZM19.4999 78C19.5024 65.1207 23.7551 52.6021 31.5982 42.3864C39.4414 32.1706 50.4365 24.8287 62.8781 21.4995C75.3197 18.1703 88.5122 19.0399 100.409 23.9735C112.306 28.907 122.242 37.6288 128.677 48.7857C135.111 59.9426 137.683 72.911 135.995 85.6791C134.307 98.4473 128.453 110.302 119.34 119.403C110.227 128.504 98.3655 134.344 85.5953 136.016C72.825 137.688 59.8598 135.099 48.7109 128.651L25.9154 136.256C25.0733 136.537 24.1703 136.583 23.304 136.389C22.4376 136.194 21.6408 135.767 20.9996 135.153C20.3584 134.539 19.8971 133.761 19.6654 132.904C19.4338 132.047 19.4406 131.143 19.6852 130.289L26.6272 106.002C21.9376 97.4146 19.4865 87.7844 19.4999 78ZM77.9999 29.25C69.3925 29.2494 60.9383 31.5279 53.4968 35.8537C46.0553 40.1795 39.8918 46.3985 35.6328 53.8785C31.3738 61.3584 29.1712 69.8327 29.2489 78.4398C29.3265 87.0469 31.6817 95.4801 36.0749 102.882C36.413 103.454 36.6306 104.089 36.7144 104.747C36.7982 105.406 36.7465 106.075 36.5624 106.714L31.5997 124.069L47.7652 118.687C48.4517 118.458 49.1807 118.384 49.8991 118.472C50.6175 118.56 51.3074 118.806 51.9187 119.194C58.3076 123.237 65.5493 125.739 73.0716 126.501C80.5938 127.264 88.1904 126.266 95.2607 123.588C102.331 120.909 108.681 116.622 113.81 111.067C118.938 105.511 122.704 98.8385 124.81 91.5768C126.915 84.3152 127.303 76.6633 125.942 69.2259C124.582 61.7886 121.51 54.7697 116.969 48.7241C112.429 42.6784 106.544 37.7718 99.7808 34.3919C93.0175 31.0121 85.5607 29.2517 77.9999 29.25Z" fill="url(#paint0_linear_9892_60306)"/>
<defs>
<linearGradient id="paint0_linear_9892_60306" x1="19.4966" y1="110.771" x2="136.499" y2="56.9487" gradientUnits="userSpaceOnUse">
<stop stop-color="#0575E6"/>
<stop offset="1" stop-color="#021B79"/>
</linearGradient>
</defs>
</svg>
