<svg width="156" height="156" viewBox="0 0 156 156" fill="none" xmlns="http://www.w3.org/2000/svg">
<path d="M34.125 82.875H58.5V92.625H34.125V82.875ZM34.125 58.5H92.625V68.25H34.125V58.5ZM34.125 34.125H92.625V43.875H34.125V34.125Z" fill="url(#paint0_linear_9892_60354)"/>
<path d="M107.25 9.75H19.5C16.9165 9.75772 14.441 10.7874 12.6142 12.6142C10.7874 14.441 9.75772 16.9165 9.75 19.5V136.5C9.75772 139.083 10.7874 141.559 12.6142 143.386C14.441 145.213 16.9165 146.242 19.5 146.25H58.5V136.5H19.5V19.5H107.25V73.125H117V19.5C116.992 16.9165 115.963 14.441 114.136 12.6142C112.309 10.7874 109.833 9.75772 107.25 9.75Z" fill="url(#paint1_linear_9892_60354)"/>
<path d="M105.292 90.9727C100.658 91.2836 96.1637 92.6937 92.1823 95.0863C88.2008 97.4789 84.8464 100.785 82.3964 104.732C79.9465 108.678 78.4715 113.151 78.0936 117.781C77.7156 122.41 78.4456 127.063 80.223 131.355C82.0004 135.647 84.7742 139.453 88.3148 142.46C91.8555 145.466 96.0612 147.587 100.584 148.645C105.107 149.704 109.817 149.67 114.324 148.547C118.831 147.424 123.006 145.244 126.503 142.187L105.877 121.557C105.692 121.375 105.545 121.159 105.445 120.919C105.344 120.68 105.292 120.424 105.292 120.164V90.9727Z" fill="url(#paint2_linear_9892_60354)"/>
<path d="M129.261 139.425C133.935 134.098 136.507 127.251 136.497 120.164C136.502 116.28 135.731 112.435 134.23 108.853L110.535 120.699L129.261 139.425ZM132.479 105.366C130.066 101.249 126.682 97.7856 122.624 95.2768C118.565 92.7681 113.954 91.2904 109.193 90.9727V117.009L132.479 105.366Z" fill="url(#paint3_linear_9892_60354)"/>
<defs>
<linearGradient id="paint0_linear_9892_60354" x1="9.75" y1="116.22" x2="124.681" y2="74.6808" gradientUnits="userSpaceOnUse">
<stop stop-color="#0575E6"/>
<stop offset="1" stop-color="#021B79"/>
</linearGradient>
<linearGradient id="paint1_linear_9892_60354" x1="9.75" y1="116.22" x2="124.681" y2="74.6808" gradientUnits="userSpaceOnUse">
<stop stop-color="#0575E6"/>
<stop offset="1" stop-color="#021B79"/>
</linearGradient>
<linearGradient id="paint2_linear_9892_60354" x1="77.9966" y1="136.558" x2="136.476" y2="109.631" gradientUnits="userSpaceOnUse">
<stop stop-color="#0575E6"/>
<stop offset="1" stop-color="#021B79"/>
</linearGradient>
<linearGradient id="paint3_linear_9892_60354" x1="77.9966" y1="136.558" x2="136.476" y2="109.631" gradientUnits="userSpaceOnUse">
<stop stop-color="#0575E6"/>
<stop offset="1" stop-color="#021B79"/>
</linearGradient>
</defs>
</svg>
