<svg width="156" height="156" viewBox="0 0 156 156" fill="none" xmlns="http://www.w3.org/2000/svg">
<path d="M78 50.1427C80.2164 50.1427 82.3421 49.2622 83.9093 47.6949C85.4766 46.1277 86.3571 44.002 86.3571 41.7855C86.3571 39.5691 85.4766 37.4434 83.9093 35.8761C82.3421 34.3089 80.2164 33.4284 78 33.4284C75.7835 33.4284 73.6578 34.3089 72.0906 35.8761C70.5233 37.4434 69.6428 39.5691 69.6428 41.7855C69.6428 44.002 70.5233 46.1277 72.0906 47.6949C73.6578 49.2622 75.7835 50.1427 78 50.1427ZM82.9585 12.7863C81.5221 11.7275 79.7845 11.1563 78 11.1562C76.2155 11.1562 74.4778 11.7275 73.0414 12.7863L20.1128 51.8141C13.6277 56.6 17.0095 66.896 25.0714 66.896H27.8571V107.244C24.5564 108.62 21.7368 110.941 19.7538 113.917C17.7708 116.892 16.7131 120.388 16.7142 123.964V132.321C16.7142 134.628 18.5862 136.5 20.8928 136.5H135.107C136.215 136.5 137.278 136.06 138.062 135.276C138.845 134.492 139.286 133.429 139.286 132.321V123.964C139.286 120.389 138.228 116.894 136.245 113.92C134.262 110.946 131.443 108.625 128.143 107.25V66.896H130.923C138.99 66.896 142.372 56.6 135.882 51.8141L82.9585 12.7863ZM36.2142 105.857V66.896H50.1428V105.857H36.2142ZM119.786 66.896V105.857H105.857V66.896H119.786ZM97.5 66.896V105.857H82.1785V66.896H97.5ZM73.8214 66.896V105.857H58.5V66.896H73.8214ZM25.0714 58.5388L78 19.511L130.923 58.5388H25.0714ZM25.0714 123.964C25.0714 118.582 29.4394 114.214 34.8214 114.214H121.179C126.561 114.214 130.929 118.582 130.929 123.964V128.143H25.0714V123.964Z" fill="url(#paint0_linear_9892_60346)"/>
<defs>
<linearGradient id="paint0_linear_9892_60346" x1="16.7029" y1="108.924" x2="140.232" y2="53.3481" gradientUnits="userSpaceOnUse">
<stop stop-color="#0575E6"/>
<stop offset="1" stop-color="#021B79"/>
</linearGradient>
</defs>
</svg>
