<svg width="30" height="30" viewBox="0 0 30 30" fill="none" xmlns="http://www.w3.org/2000/svg">
<rect width="30" height="30" rx="15" fill="white"/>
<path d="M10.4337 12.1989V23H6.83697V12.1989H10.4337ZM10.6626 8.86376C10.6698 9.39419 10.4864 9.83742 10.1122 10.1935C9.73797 10.5495 9.24569 10.7275 8.63533 10.7275H8.61353C8.01771 10.7275 7.53815 10.5495 7.17484 10.1935C6.81154 9.83742 6.62988 9.39419 6.62988 8.86376C6.62988 8.32607 6.81699 7.88102 7.19119 7.52861C7.5654 7.1762 8.05404 7 8.65713 7C9.26022 7 9.74342 7.1762 10.1067 7.52861C10.47 7.88102 10.6553 8.32607 10.6626 8.86376ZM23.371 16.8093V23H19.7852V17.2234C19.7852 16.4605 19.6381 15.8629 19.3438 15.4305C19.0495 14.9982 18.5899 14.782 17.965 14.782C17.5073 14.782 17.124 14.9074 16.8152 15.158C16.5064 15.4087 16.2757 15.7193 16.1231 16.0899C16.0431 16.3079 16.0032 16.6022 16.0032 16.9728V23H12.4173C12.4319 20.1008 12.4391 17.7502 12.4391 15.9482C12.4391 14.1462 12.4355 13.0708 12.4282 12.7221L12.4173 12.1989H16.0032V13.7684H15.9814C16.1267 13.5359 16.2757 13.3324 16.4282 13.158C16.5808 12.9837 16.7861 12.7947 17.0441 12.5913C17.302 12.3878 17.6181 12.2298 17.9923 12.1172C18.3665 12.0045 18.7825 11.9482 19.2402 11.9482C20.4827 11.9482 21.4818 12.3606 22.2375 13.1853C22.9932 14.01 23.371 15.218 23.371 16.8093Z" fill="url(#paint0_linear_11044_123340)"/>
<defs>
<linearGradient id="paint0_linear_11044_123340" x1="6.62988" y1="19.48" x2="23.0984" y2="11.5536" gradientUnits="userSpaceOnUse">
<stop stop-color="#0575E6"/>
<stop offset="1" stop-color="#021B79"/>
</linearGradient>
</defs>
</svg>
