<svg width="156" height="156" viewBox="0 0 156 156" fill="none" xmlns="http://www.w3.org/2000/svg">
<path d="M136.5 9.75H87.7499C82.3728 9.75 77.9999 14.118 77.9999 19.5V48.75C77.9999 54.1271 82.3679 58.5 87.7499 58.5H99.562L108.001 73.125L116.449 68.25L105.188 48.75H87.7499V19.5H136.5V48.75H121.875V58.5H136.5C141.877 58.5 146.25 54.132 146.25 48.75V19.5C146.25 14.1229 141.877 9.75 136.5 9.75ZM71.6137 151.125L63.1702 146.25L80.062 117H107.25C109.836 117 112.316 115.973 114.144 114.144C115.973 112.316 117 109.836 117 107.25V82.875H126.75V107.25C126.75 112.422 124.695 117.382 121.038 121.039C117.382 124.696 112.422 126.75 107.25 126.75H85.6878L71.6137 151.125Z" fill="url(#paint0_linear_9892_60344)"/>
<path d="M48.75 87.75C51.4424 87.75 53.625 85.5674 53.625 82.875C53.625 80.1826 51.4424 78 48.75 78C46.0576 78 43.875 80.1826 43.875 82.875C43.875 85.5674 46.0576 87.75 48.75 87.75Z" fill="url(#paint1_linear_9892_60344)"/>
<path d="M68.25 87.75C70.9424 87.75 73.125 85.5674 73.125 82.875C73.125 80.1826 70.9424 78 68.25 78C65.5576 78 63.375 80.1826 63.375 82.875C63.375 85.5674 65.5576 87.75 68.25 87.75Z" fill="url(#paint2_linear_9892_60344)"/>
<path d="M87.75 87.75C90.4424 87.75 92.625 85.5674 92.625 82.875C92.625 80.1826 90.4424 78 87.75 78C85.0576 78 82.875 80.1826 82.875 82.875C82.875 85.5674 85.0576 87.75 87.75 87.75Z" fill="url(#paint3_linear_9892_60344)"/>
<path d="M58.5 126.75H29.25C24.0783 126.75 19.1184 124.696 15.4614 121.039C11.8045 117.382 9.75 112.422 9.75 107.25V58.5C9.75 53.3283 11.8045 48.3684 15.4614 44.7114C19.1184 41.0545 24.0783 39 29.25 39H68.25V48.75H29.25C26.6641 48.75 24.1842 49.7772 22.3557 51.6057C20.5272 53.4342 19.5 55.9141 19.5 58.5V107.25C19.5 109.836 20.5272 112.316 22.3557 114.144C24.1842 115.973 26.6641 117 29.25 117H58.5V126.75Z" fill="url(#paint4_linear_9892_60344)"/>
<defs>
<linearGradient id="paint0_linear_9892_60344" x1="63.1702" y1="120.023" x2="156.975" y2="94.6651" gradientUnits="userSpaceOnUse">
<stop stop-color="#0575E6"/>
<stop offset="1" stop-color="#021B79"/>
</linearGradient>
<linearGradient id="paint1_linear_9892_60344" x1="43.875" y1="85.605" x2="53.625" y2="81.12" gradientUnits="userSpaceOnUse">
<stop stop-color="#0575E6"/>
<stop offset="1" stop-color="#021B79"/>
</linearGradient>
<linearGradient id="paint2_linear_9892_60344" x1="63.375" y1="85.605" x2="73.125" y2="81.12" gradientUnits="userSpaceOnUse">
<stop stop-color="#0575E6"/>
<stop offset="1" stop-color="#021B79"/>
</linearGradient>
<linearGradient id="paint3_linear_9892_60344" x1="82.875" y1="85.605" x2="92.625" y2="81.12" gradientUnits="userSpaceOnUse">
<stop stop-color="#0575E6"/>
<stop offset="1" stop-color="#021B79"/>
</linearGradient>
<linearGradient id="paint4_linear_9892_60344" x1="9.75" y1="107.445" x2="74.5359" y2="87.5773" gradientUnits="userSpaceOnUse">
<stop stop-color="#0575E6"/>
<stop offset="1" stop-color="#021B79"/>
</linearGradient>
</defs>
</svg>
