<svg width="156" height="156" viewBox="0 0 156 156" fill="none" xmlns="http://www.w3.org/2000/svg">
<path d="M29.25 82.875H68.25V92.625H29.25V82.875Z" fill="url(#paint0_linear_9892_60364)"/>
<path d="M14.625 92.625C17.3174 92.625 19.5 90.4424 19.5 87.75C19.5 85.0576 17.3174 82.875 14.625 82.875C11.9326 82.875 9.75 85.0576 9.75 87.75C9.75 90.4424 11.9326 92.625 14.625 92.625Z" fill="url(#paint1_linear_9892_60364)"/>
<path d="M63.375 73.125C66.0674 73.125 68.25 70.9424 68.25 68.25C68.25 65.5576 66.0674 63.375 63.375 63.375C60.6826 63.375 58.5 65.5576 58.5 68.25C58.5 70.9424 60.6826 73.125 63.375 73.125Z" fill="url(#paint2_linear_9892_60364)"/>
<path d="M9.75 63.375H48.75V73.125H9.75V63.375ZM29.25 43.875H68.25V53.625H29.25V43.875Z" fill="url(#paint3_linear_9892_60364)"/>
<path d="M14.625 53.625C17.3174 53.625 19.5 51.4424 19.5 48.75C19.5 46.0576 17.3174 43.875 14.625 43.875C11.9326 43.875 9.75 46.0576 9.75 48.75C9.75 51.4424 11.9326 53.625 14.625 53.625Z" fill="url(#paint4_linear_9892_60364)"/>
<path d="M146.25 139.425L110.175 103.35C117.487 93.6 121.875 81.4125 121.875 68.25C121.875 36.075 95.5499 9.75 63.3749 9.75C47.2874 9.75 32.1749 16.0875 20.9624 28.275L28.2749 35.1C37.0499 24.8625 49.7249 19.5 63.3749 19.5C90.1874 19.5 112.125 41.4375 112.125 68.25C112.125 95.0625 90.1874 117 63.3749 117C48.7499 117 35.0999 110.662 25.8374 99.45L18.5249 105.788C29.2499 118.95 45.8249 126.75 63.3749 126.75C78.9749 126.75 93.1124 120.413 103.837 110.663L139.425 146.25L146.25 139.425Z" fill="url(#paint5_linear_9892_60364)"/>
<defs>
<linearGradient id="paint0_linear_9892_60364" x1="29.25" y1="90.48" x2="40.0244" y2="70.655" gradientUnits="userSpaceOnUse">
<stop stop-color="#0575E6"/>
<stop offset="1" stop-color="#021B79"/>
</linearGradient>
<linearGradient id="paint1_linear_9892_60364" x1="9.75" y1="90.48" x2="19.5" y2="85.995" gradientUnits="userSpaceOnUse">
<stop stop-color="#0575E6"/>
<stop offset="1" stop-color="#021B79"/>
</linearGradient>
<linearGradient id="paint2_linear_9892_60364" x1="58.5" y1="70.98" x2="68.25" y2="66.495" gradientUnits="userSpaceOnUse">
<stop stop-color="#0575E6"/>
<stop offset="1" stop-color="#021B79"/>
</linearGradient>
<linearGradient id="paint3_linear_9892_60364" x1="9.75" y1="66.69" x2="48.1375" y2="31.3735" gradientUnits="userSpaceOnUse">
<stop stop-color="#0575E6"/>
<stop offset="1" stop-color="#021B79"/>
</linearGradient>
<linearGradient id="paint4_linear_9892_60364" x1="9.75" y1="51.48" x2="19.5" y2="46.995" gradientUnits="userSpaceOnUse">
<stop stop-color="#0575E6"/>
<stop offset="1" stop-color="#021B79"/>
</linearGradient>
<linearGradient id="paint5_linear_9892_60364" x1="18.5249" y1="116.22" x2="149.087" y2="60.0222" gradientUnits="userSpaceOnUse">
<stop stop-color="#0575E6"/>
<stop offset="1" stop-color="#021B79"/>
</linearGradient>
</defs>
</svg>
