<svg width="156" height="156" viewBox="0 0 156 156" fill="none" xmlns="http://www.w3.org/2000/svg">
<path fill-rule="evenodd" clip-rule="evenodd" d="M74.75 118.625H126.75C129.441 118.625 131.625 116.441 131.625 113.75V19.5C131.625 16.484 130.429 13.5915 128.29 11.4595C126.158 9.321 123.266 8.125 120.25 8.125C104.37 8.125 63.3685 8.125 42.25 8.125C37.5115 8.125 32.9615 10.01 29.6075 13.3575C26.26 16.7115 24.375 21.2615 24.375 26C24.375 56.485 24.375 130 24.375 130C24.375 132.691 26.559 134.875 29.25 134.875C31.941 134.875 34.125 132.691 34.125 130C34.125 130 34.125 56.485 34.125 26C34.125 23.842 34.983 21.7815 36.504 20.254C38.0315 18.733 40.092 17.875 42.25 17.875H120.25C120.679 17.875 121.095 18.044 121.4 18.3495C121.706 18.655 121.875 19.071 121.875 19.5V108.875H74.75C72.059 108.875 69.875 111.059 69.875 113.75C69.875 116.441 72.059 118.625 74.75 118.625Z" fill="url(#paint0_linear_9892_60362)"/>
<path fill-rule="evenodd" clip-rule="evenodd" d="M74.75 108.875H43.875C33.1045 108.875 24.375 117.605 24.375 128.375C24.375 133.549 26.429 138.509 30.0885 142.162C33.7415 145.821 38.701 147.875 43.875 147.875C65.4095 147.875 104.767 147.875 120.25 147.875C123.266 147.875 126.158 146.679 128.29 144.541C130.429 142.409 131.625 139.516 131.625 136.5C131.625 131.976 131.625 126.75 131.625 126.75C131.625 124.059 129.441 121.875 126.75 121.875C124.059 121.875 121.875 124.059 121.875 126.75V136.5C121.875 136.929 121.706 137.345 121.4 137.651C121.095 137.956 120.679 138.125 120.25 138.125H43.875C41.288 138.125 38.8115 137.098 36.9785 135.272C35.152 133.439 34.125 130.962 34.125 128.375C34.125 122.993 38.493 118.625 43.875 118.625H74.75C77.441 118.625 79.625 116.441 79.625 113.75C79.625 111.059 77.441 108.875 74.75 108.875ZM55.016 95.3031L73.4045 76.9211C75.309 75.0166 75.309 71.9291 73.4045 70.0246C71.5 68.1201 68.4125 68.1201 66.508 70.0246L48.126 88.4066C46.2215 90.3111 46.2215 93.3986 48.126 95.3031C50.0305 97.2076 53.118 97.2076 55.016 95.3031Z" fill="url(#paint1_linear_9892_60362)"/>
<path fill-rule="evenodd" clip-rule="evenodd" d="M69.3809 39.5784C66.6704 42.2824 61.4704 47.4889 58.8769 50.0954C56.4914 52.4809 55.8349 56.1144 57.2454 59.1954C57.2454 59.2019 57.2519 59.2084 57.2519 59.2149C62.9394 71.5064 71.9094 80.5154 84.2139 86.1964C84.2204 86.2029 84.2334 86.2094 84.2399 86.2094C87.3274 87.6134 90.9609 86.9504 93.3529 84.5454C95.9464 81.9584 101.14 76.7584 103.844 74.0414C106.431 71.4544 106.964 67.4439 105.137 64.2654C105.131 64.2589 105.124 64.2459 105.124 64.2394C98.7544 53.3064 90.1419 44.6224 79.1764 38.2784C79.1699 38.2719 79.1569 38.2654 79.1504 38.2589C75.9654 36.4454 71.9679 36.9849 69.3809 39.5784ZM70.9929 51.7529L75.3869 47.3589C83.9604 52.5459 90.8309 59.4749 96.0439 68.0549L87.2559 76.8559C78.0129 72.3254 71.1359 65.4159 66.5989 56.1599L70.9929 51.7529Z" fill="url(#paint2_linear_9892_60362)"/>
<path fill-rule="evenodd" clip-rule="evenodd" d="M73.4045 35.5548L55.016 53.9368C53.118 55.8413 53.118 58.9288 55.016 60.8333C56.9205 62.7313 60.008 62.7313 61.9125 60.8333L80.301 42.4448C82.199 40.5468 82.199 37.4528 80.301 35.5548C78.3965 33.6503 75.309 33.6503 73.4045 35.5548ZM100.984 63.1278L82.5955 81.5163C80.691 83.4143 80.691 86.5083 82.5955 88.4063C84.5 90.3108 87.5875 90.3108 89.492 88.4063L107.874 70.0243C109.779 68.1198 109.779 65.0323 107.874 63.1278C105.97 61.2298 102.882 61.2298 100.984 63.1278Z" fill="url(#paint3_linear_9892_60362)"/>
<defs>
<linearGradient id="paint0_linear_9892_60362" x1="24.375" y1="106.99" x2="137.223" y2="63.0662" gradientUnits="userSpaceOnUse">
<stop stop-color="#0575E6"/>
<stop offset="1" stop-color="#021B79"/>
</linearGradient>
<linearGradient id="paint1_linear_9892_60362" x1="24.375" y1="130.434" x2="118.045" y2="72.1431" gradientUnits="userSpaceOnUse">
<stop stop-color="#0575E6"/>
<stop offset="1" stop-color="#021B79"/>
</linearGradient>
<linearGradient id="paint2_linear_9892_60362" x1="56.5095" y1="75.994" x2="106.23" y2="53.1404" gradientUnits="userSpaceOnUse">
<stop stop-color="#0575E6"/>
<stop offset="1" stop-color="#021B79"/>
</linearGradient>
<linearGradient id="paint3_linear_9892_60362" x1="53.5925" y1="77.5789" x2="109.302" y2="51.9519" gradientUnits="userSpaceOnUse">
<stop stop-color="#0575E6"/>
<stop offset="1" stop-color="#021B79"/>
</linearGradient>
</defs>
</svg>
