<svg width="156" height="156" viewBox="0 0 156 156" fill="none" xmlns="http://www.w3.org/2000/svg">
<path d="M39 68.25H68.25V78H39V68.25ZM39 29.25H97.5V39H39V29.25ZM39 48.75H97.5V58.5H39V48.75ZM39 117H68.25V126.75H39V117ZM146.25 117V107.25H136.008C135.379 104.198 134.167 101.297 132.439 98.7041L139.703 91.4404L132.81 84.5471L125.546 91.8109C122.953 90.0827 120.052 88.8711 117 88.2424V78H107.25V88.2424C104.198 88.8711 101.297 90.0827 98.7041 91.8109L91.4404 84.5471L84.5471 91.4404L91.8109 98.7041C90.0827 101.297 88.8711 104.198 88.2424 107.25H78V117H88.2424C88.8711 120.052 90.0827 122.953 91.8109 125.546L84.5471 132.81L91.4404 139.703L98.7041 132.439C101.297 134.167 104.198 135.379 107.25 136.008V146.25H117V136.008C120.052 135.379 122.953 134.167 125.546 132.439L132.81 139.703L139.703 132.81L132.439 125.546C134.167 122.953 135.379 120.052 136.008 117H146.25ZM112.125 126.75C109.232 126.75 106.405 125.892 104 124.285C101.595 122.678 99.7202 120.394 98.6133 117.722C97.5063 115.049 97.2167 112.109 97.781 109.272C98.3453 106.435 99.7382 103.829 101.784 101.784C103.829 99.7382 106.435 98.3453 109.272 97.781C112.109 97.2167 115.049 97.5063 117.722 98.6133C120.394 99.7202 122.678 101.595 124.285 104C125.892 106.405 126.75 109.232 126.75 112.125C126.746 116.003 125.204 119.72 122.462 122.462C119.72 125.204 116.003 126.746 112.125 126.75Z" fill="url(#paint0_linear_9892_60356)"/>
<path d="M68.25 146.25H29.25C26.6649 146.247 24.1865 145.219 22.3586 143.391C20.5306 141.564 19.5026 139.085 19.5 136.5V19.5C19.5026 16.9149 20.5306 14.4365 22.3586 12.6086C24.1865 10.7806 26.6649 9.75258 29.25 9.75H107.25C109.835 9.75258 112.314 10.7806 114.141 12.6086C115.969 14.4365 116.997 16.9149 117 19.5V68.25H107.25V19.5H29.25V136.5H68.25V146.25Z" fill="url(#paint1_linear_9892_60356)"/>
<defs>
<linearGradient id="paint0_linear_9892_60356" x1="39" y1="120.51" x2="149.328" y2="73.9885" gradientUnits="userSpaceOnUse">
<stop stop-color="#0575E6"/>
<stop offset="1" stop-color="#021B79"/>
</linearGradient>
<linearGradient id="paint1_linear_9892_60356" x1="19.5" y1="116.22" x2="126.12" y2="81.1876" gradientUnits="userSpaceOnUse">
<stop stop-color="#0575E6"/>
<stop offset="1" stop-color="#021B79"/>
</linearGradient>
</defs>
</svg>
