<svg width="156" height="156" viewBox="0 0 156 156" fill="none" xmlns="http://www.w3.org/2000/svg">
<path d="M19.5 97.5V107.25H36.9818L9.75 134.482L16.6432 141.375L43.875 114.143V131.625H53.625V97.5H19.5ZM92.625 48.75H126.75V58.5H92.625V48.75ZM92.625 73.125H126.75V82.875H92.625V73.125ZM92.625 97.5H126.75V107.25H92.625V97.5Z" fill="url(#paint0_linear_9892_60314)"/>
<path d="M136.5 24.375H19.5C16.9149 24.3776 14.4365 25.4056 12.6086 27.2336C10.7806 29.0615 9.75258 31.5399 9.75 34.125V82.875H19.5V34.125H73.125V131.625H136.5C139.085 131.622 141.564 130.594 143.391 128.766C145.219 126.939 146.247 124.46 146.25 121.875V34.125C146.247 31.5399 145.219 29.0615 143.391 27.2336C141.564 25.4056 139.085 24.3776 136.5 24.375ZM82.875 121.875V34.125H136.5L136.51 121.875H82.875Z" fill="url(#paint1_linear_9892_60314)"/>
<defs>
<linearGradient id="paint0_linear_9892_60314" x1="9.75" y1="120.998" x2="115.727" y2="59.4193" gradientUnits="userSpaceOnUse">
<stop stop-color="#0575E6"/>
<stop offset="1" stop-color="#021B79"/>
</linearGradient>
<linearGradient id="paint1_linear_9892_60314" x1="9.75" y1="108.03" x2="132.917" y2="35.9213" gradientUnits="userSpaceOnUse">
<stop stop-color="#0575E6"/>
<stop offset="1" stop-color="#021B79"/>
</linearGradient>
</defs>
</svg>
