<svg width="156" height="156" viewBox="0 0 156 156" fill="none" xmlns="http://www.w3.org/2000/svg">
<path d="M112.125 112.125V126.75H41.4375C35.6193 126.75 30.0394 124.439 25.9253 120.325C21.8113 116.211 19.5 110.631 19.5 104.812C19.5 98.9943 21.8113 93.4144 25.9253 89.3003C30.0394 85.1863 35.6193 82.875 41.4375 82.875H43.875V73.125H41.4375C33.0335 73.125 24.9736 76.4635 19.0311 82.4061C13.0885 88.3486 9.75 96.4085 9.75 104.812C9.75 113.217 13.0885 121.276 19.0311 127.219C24.9736 133.162 33.0335 136.5 41.4375 136.5H112.125V151.125H151.125V112.125H112.125ZM141.375 141.375H121.875V121.875H141.375V141.375Z" fill="url(#paint0_linear_9892_60310)"/>
<path d="M102.375 107.25H92.625V92.625H63.375V107.25H53.625V92.625C53.6276 90.0399 54.6556 87.5615 56.4836 85.7336C58.3115 83.9056 60.7899 82.8776 63.375 82.875H92.625C95.2101 82.8776 97.6885 83.9056 99.5164 85.7336C101.344 87.5615 102.372 90.0399 102.375 92.625V107.25ZM78 78C75.1074 78 72.2799 77.1423 69.8748 75.5352C67.4697 73.9282 65.5952 71.6441 64.4883 68.9718C63.3813 66.2994 63.0917 63.3588 63.656 60.5218C64.2203 57.6848 65.6132 55.0789 67.6586 53.0336C69.7039 50.9882 72.3098 49.5953 75.1468 49.031C77.9838 48.4667 80.9244 48.7563 83.5967 49.8633C86.2691 50.9702 88.5532 52.8447 90.1602 55.2498C91.7673 57.6549 92.625 60.4825 92.625 63.375C92.6211 67.2526 91.079 70.9703 88.3372 73.7122C85.5953 76.454 81.8776 77.9961 78 78ZM78 58.5C77.0358 58.5 76.0933 58.7859 75.2916 59.3216C74.4899 59.8573 73.8651 60.6186 73.4961 61.5094C73.1271 62.4002 73.0306 63.3804 73.2187 64.3261C73.4068 65.2717 73.8711 66.1404 74.5529 66.8222C75.2346 67.5039 76.1033 67.9682 77.0489 68.1563C77.9946 68.3444 78.9748 68.2479 79.8656 67.8789C80.7564 67.5099 81.5177 66.8851 82.0534 66.0834C82.5891 65.2817 82.875 64.3392 82.875 63.375C82.8737 62.0825 82.3597 60.8432 81.4457 59.9293C80.5318 59.0153 79.2925 58.5013 78 58.5Z" fill="url(#paint1_linear_9892_60310)"/>
<path d="M114.562 19.5H43.875V4.875H4.875V43.875H43.875V29.25H114.562C120.381 29.25 125.961 31.5613 130.075 35.6753C134.189 39.7894 136.5 45.3693 136.5 51.1875C136.5 57.0057 134.189 62.5856 130.075 66.6997C125.961 70.8137 120.381 73.125 114.562 73.125H112.125V82.875H114.562C122.967 82.875 131.026 79.5365 136.969 73.5939C142.911 67.6514 146.25 59.5915 146.25 51.1875C146.25 42.7835 142.911 34.7236 136.969 28.7811C131.026 22.8385 122.967 19.5 114.562 19.5ZM34.125 34.125H14.625V14.625H34.125V34.125Z" fill="url(#paint2_linear_9892_60310)"/>
<defs>
<linearGradient id="paint0_linear_9892_60310" x1="9.75" y1="133.965" x2="110.798" y2="49.7165" gradientUnits="userSpaceOnUse">
<stop stop-color="#0575E6"/>
<stop offset="1" stop-color="#021B79"/>
</linearGradient>
<linearGradient id="paint1_linear_9892_60310" x1="53.625" y1="94.38" x2="105.123" y2="74.6391" gradientUnits="userSpaceOnUse">
<stop stop-color="#0575E6"/>
<stop offset="1" stop-color="#021B79"/>
</linearGradient>
<linearGradient id="paint2_linear_9892_60310" x1="4.875" y1="65.715" x2="105.923" y2="-18.5335" gradientUnits="userSpaceOnUse">
<stop stop-color="#0575E6"/>
<stop offset="1" stop-color="#021B79"/>
</linearGradient>
</defs>
</svg>
