<svg width="156" height="156" viewBox="0 0 156 156" fill="none" xmlns="http://www.w3.org/2000/svg">
<path d="M34.125 82.875H58.5V92.625H34.125V82.875ZM34.125 58.5H92.625V68.25H34.125V58.5ZM34.125 34.125H92.625V43.875H34.125V34.125Z" fill="url(#paint0_linear_9892_60352)"/>
<path d="M107.25 9.75H19.5C16.9165 9.75772 14.441 10.7874 12.6142 12.6142C10.7874 14.441 9.75772 16.9165 9.75 19.5V136.5C9.75772 139.083 10.7874 141.559 12.6142 143.386C14.441 145.213 16.9165 146.242 19.5 146.25H58.5V136.5H19.5V19.5H107.25V73.125H117V19.5C116.992 16.9165 115.963 14.441 114.136 12.6142C112.309 10.7874 109.833 9.75772 107.25 9.75Z" fill="url(#paint1_linear_9892_60352)"/>
<path d="M104 149.5C86.0503 149.5 71.5 134.95 71.5 117C71.5 99.0503 86.0503 84.5 104 84.5C121.95 84.5 136.5 99.0503 136.5 117C136.5 134.95 121.95 149.5 104 149.5ZM104 143C110.896 143 117.509 140.261 122.385 135.385C127.261 130.509 130 123.896 130 117C130 110.104 127.261 103.491 122.385 98.6152C117.509 93.7393 110.896 91 104 91C97.1044 91 90.4912 93.7393 85.6152 98.6152C80.7393 103.491 78 110.104 78 117C78 123.896 80.7393 130.509 85.6152 135.385C90.4912 140.261 97.1044 143 104 143ZM104 100.75C104.862 100.75 105.689 101.092 106.298 101.702C106.908 102.311 107.25 103.138 107.25 104V120.25C107.25 121.112 106.908 121.939 106.298 122.548C105.689 123.158 104.862 123.5 104 123.5C103.138 123.5 102.311 123.158 101.702 122.548C101.092 121.939 100.75 121.112 100.75 120.25V104C100.75 103.138 101.092 102.311 101.702 101.702C102.311 101.092 103.138 100.75 104 100.75ZM104 133.25C103.138 133.25 102.311 132.908 101.702 132.298C101.092 131.689 100.75 130.862 100.75 130C100.75 129.138 101.092 128.311 101.702 127.702C102.311 127.092 103.138 126.75 104 126.75C104.862 126.75 105.689 127.092 106.298 127.702C106.908 128.311 107.25 129.138 107.25 130C107.25 130.862 106.908 131.689 106.298 132.298C105.689 132.908 104.862 133.25 104 133.25Z" fill="url(#paint2_linear_9892_60352)"/>
<defs>
<linearGradient id="paint0_linear_9892_60352" x1="9.75" y1="116.22" x2="124.681" y2="74.6808" gradientUnits="userSpaceOnUse">
<stop stop-color="#0575E6"/>
<stop offset="1" stop-color="#021B79"/>
</linearGradient>
<linearGradient id="paint1_linear_9892_60352" x1="9.75" y1="116.22" x2="124.681" y2="74.6808" gradientUnits="userSpaceOnUse">
<stop stop-color="#0575E6"/>
<stop offset="1" stop-color="#021B79"/>
</linearGradient>
<linearGradient id="paint2_linear_9892_60352" x1="71.5" y1="135.2" x2="136.5" y2="105.3" gradientUnits="userSpaceOnUse">
<stop stop-color="#0575E6"/>
<stop offset="1" stop-color="#021B79"/>
</linearGradient>
</defs>
</svg>
