<svg width="156" height="156" viewBox="0 0 156 156" fill="none" xmlns="http://www.w3.org/2000/svg">
<path d="M78 136.5H63.375C44.3625 136.5 29.25 121.387 29.25 102.375V82.875H39V102.375C39 116.025 49.725 126.75 63.375 126.75H78V136.5ZM136.5 146.25H147.225L124.8 92.625H114.075L91.65 146.25H102.375L106.275 136.5H132.113L136.5 146.25ZM110.663 126.75L119.438 105.3L128.212 126.75H110.663ZM136.5 73.125H126.75V53.625C126.75 39.975 116.025 29.25 102.375 29.25H82.875V19.5H102.375C121.387 19.5 136.5 34.6125 136.5 53.625V73.125ZM68.25 24.375V14.625H43.875V4.875H34.125V14.625H9.75V24.375H49.725C48.75 28.7625 45.825 36.5625 39 43.875C36.075 40.4625 33.6375 37.05 32.175 34.125H20.9625C22.9125 39 26.325 44.85 31.2 50.2125C27.3 53.625 21.45 56.55 14.625 58.9875L18.0375 68.25C26.8125 64.8375 33.6375 60.9375 39 57.0375C44.3625 61.425 51.1875 65.325 59.9625 68.25L63.375 58.9875C56.55 56.55 50.7 53.1375 46.3125 50.2125C55.575 40.4625 58.5 30.225 59.475 24.375H68.25Z" fill="url(#paint0_linear_9892_60342)"/>
<defs>
<linearGradient id="paint0_linear_9892_60342" x1="9.75" y1="115.148" x2="148.544" y2="53.0635" gradientUnits="userSpaceOnUse">
<stop stop-color="#0575E6"/>
<stop offset="1" stop-color="#021B79"/>
</linearGradient>
</defs>
</svg>
