<svg xmlns="http://www.w3.org/2000/svg" enable-background="new 0 0 1364 960" viewBox="0 0 1364 960" id="Welcome"><circle cx="1143.255" cy="585.327" r="120.665" fill="#9eceff" class="colorffec9e svgShape"></circle><path d="M1098.246,761.132c-67.338,0-122.12-54.783-122.12-122.12s54.783-122.12,122.12-122.12
	c67.338,0,122.121,54.783,122.121,122.12S1165.584,761.132,1098.246,761.132z M1098.246,526.464
	c-62.059,0-112.548,50.489-112.548,112.548c0,62.059,50.489,112.548,112.548,112.548c62.06,0,112.548-50.489,112.548-112.548
	C1210.794,576.953,1160.305,526.464,1098.246,526.464z" fill="#021b79" class="color000000 svgShape"></path><path fill="#b0d7ff" d="M201.78 299.627c0 5.515-4.467 9.982-9.969 9.982-5.515 0-9.982-4.466-9.982-9.982 0-.382.025-.753.061-1.123 4.837-2.702 9.797-5.219 14.844-7.551C199.744 292.668 201.78 295.913 201.78 299.627zM221.744 299.63c0-5.512 4.468-9.979 9.98-9.979 5.512 0 9.98 4.468 9.98 9.979 0 5.512-4.468 9.98-9.98 9.98C226.212 309.61 221.744 305.142 221.744 299.63zM261.662 299.63c0-5.512 4.468-9.979 9.98-9.979 5.512 0 9.98 4.468 9.98 9.979 0 5.512-4.468 9.98-9.98 9.98C266.13 309.61 261.662 305.142 261.662 299.63zM141.907 342.422c0-5.512 4.468-9.98 9.98-9.98 5.512 0 9.979 4.468 9.979 9.98 0 5.512-4.468 9.98-9.979 9.98C146.375 352.402 141.907 347.934 141.907 342.422zM181.825 342.422c0-5.512 4.468-9.98 9.98-9.98 5.512 0 9.979 4.468 9.979 9.98 0 5.512-4.468 9.98-9.979 9.98C186.293 352.402 181.825 347.934 181.825 342.422zM221.744 342.422c0-5.512 4.468-9.98 9.98-9.98 5.512 0 9.98 4.468 9.98 9.98 0 5.512-4.468 9.98-9.98 9.98C226.212 352.402 221.744 347.934 221.744 342.422z" class="colorffb0e5 svgShape"></path><circle cx="271.642" cy="342.422" r="9.98" fill="#b0d7ff" class="colorffb0e5 svgShape"></circle><circle cx="111.968" cy="385.215" r="9.98" fill="#b0d7ff" transform="rotate(-76.714 111.987 385.24)" class="colorffb0e5 svgShape"></circle><path fill="#b0d7ff" d="M141.907 385.215c0-5.512 4.468-9.98 9.98-9.98 5.512 0 9.979 4.468 9.979 9.98 0 5.512-4.468 9.98-9.979 9.98C146.375 395.194 141.907 390.726 141.907 385.215zM181.825 385.215c0-5.512 4.468-9.98 9.98-9.98 5.512 0 9.979 4.468 9.979 9.98 0 5.512-4.468 9.98-9.979 9.98C186.293 395.194 181.825 390.726 181.825 385.215zM221.744 385.215c0-5.512 4.468-9.98 9.98-9.98 5.512 0 9.98 4.468 9.98 9.98 0 5.512-4.468 9.98-9.98 9.98C226.212 395.194 221.744 390.726 221.744 385.215z" class="colorffb0e5 svgShape"></path><circle cx="271.642" cy="385.215" r="9.98" fill="#b0d7ff" transform="rotate(-76.714 271.672 385.235)" class="colorffb0e5 svgShape"></circle><path fill="#b0d7ff" d="M82.024,428.008c0,4.763-3.332,8.736-7.773,9.735c1.456-5.639,3.121-11.191,4.997-16.644
	C80.974,422.888,82.024,425.331,82.024,428.008z" class="colorffb0e5 svgShape"></path><circle cx="111.968" cy="428.007" r="9.98" fill="#b0d7ff" transform="rotate(-45.001 111.964 428.01)" class="colorffb0e5 svgShape"></circle><path fill="#b0d7ff" d="M141.907 428.007c0-5.512 4.468-9.98 9.98-9.98 5.512 0 9.979 4.468 9.979 9.98s-4.468 9.98-9.979 9.98C146.375 437.987 141.907 433.519 141.907 428.007zM181.825 428.007c0-5.512 4.468-9.98 9.98-9.98 5.512 0 9.979 4.468 9.979 9.98s-4.468 9.98-9.979 9.98C186.293 437.987 181.825 433.519 181.825 428.007zM221.744 428.007c0-5.512 4.468-9.98 9.98-9.98 5.512 0 9.98 4.468 9.98 9.98s-4.468 9.98-9.98 9.98C226.212 437.987 221.744 433.519 221.744 428.007z" class="colorffb0e5 svgShape"></path><circle cx="271.642" cy="428.007" r="9.98" fill="#b0d7ff" transform="rotate(-45.001 271.638 428.012)" class="colorffb0e5 svgShape"></circle><path fill="#b0d7ff" d="M82.024 470.798c0 5.515-4.467 9.982-9.97 9.982-1.58 0-3.085-.37-4.405-1.024.383-6.28 1.024-12.499 1.912-18.631.803-.197 1.629-.309 2.493-.309C77.557 460.816 82.024 465.283 82.024 470.798zM101.989 470.799c0-5.512 4.468-9.98 9.98-9.98 5.512 0 9.98 4.468 9.98 9.98 0 5.512-4.468 9.98-9.98 9.98C106.457 480.779 101.989 476.311 101.989 470.799zM141.907 470.799c0-5.512 4.468-9.98 9.98-9.98 5.512 0 9.979 4.468 9.979 9.98 0 5.512-4.468 9.98-9.979 9.98C146.375 480.779 141.907 476.311 141.907 470.799zM181.825 470.799c0-5.512 4.468-9.98 9.98-9.98 5.512 0 9.979 4.468 9.979 9.98 0 5.512-4.468 9.98-9.979 9.98C186.293 480.779 181.825 476.311 181.825 470.799zM221.744 470.799c0-5.512 4.468-9.98 9.98-9.98 5.512 0 9.98 4.468 9.98 9.98 0 5.512-4.468 9.98-9.98 9.98C226.212 480.779 221.744 476.311 221.744 470.799zM261.662 470.799c0-5.512 4.468-9.98 9.98-9.98 5.512 0 9.98 4.468 9.98 9.98 0 5.512-4.468 9.98-9.98 9.98C266.13 480.779 261.662 476.311 261.662 470.799zM298.961 299.63c0-5.512 4.468-9.979 9.98-9.979 5.512 0 9.98 4.468 9.98 9.979 0 5.512-4.468 9.98-9.98 9.98C303.429 309.61 298.961 305.142 298.961 299.63zM338.88 299.63c0-5.512 4.468-9.979 9.98-9.979 5.512 0 9.98 4.468 9.98 9.979 0 5.512-4.468 9.98-9.98 9.98C343.348 309.61 338.88 305.142 338.88 299.63zM378.798 299.63c0-5.512 4.468-9.979 9.98-9.979 5.512 0 9.98 4.468 9.98 9.979 0 5.512-4.468 9.98-9.98 9.98C383.266 309.61 378.798 305.142 378.798 299.63z" class="colorffb0e5 svgShape"></path><circle cx="308.941" cy="342.422" r="9.98" fill="#b0d7ff" class="colorffb0e5 svgShape"></circle><path fill="#b0d7ff" d="M338.88,342.422c0-5.512,4.468-9.98,9.98-9.98c5.512,0,9.98,4.468,9.98,9.98c0,5.512-4.468,9.98-9.98,9.98
	C343.348,352.402,338.88,347.934,338.88,342.422z" class="colorffb0e5 svgShape"></path><circle cx="388.778" cy="342.422" r="9.98" fill="#b0d7ff" class="colorffb0e5 svgShape"></circle><circle cx="428.696" cy="342.422" r="9.98" fill="#b0d7ff" class="colorffb0e5 svgShape"></circle><circle cx="308.941" cy="385.215" r="9.98" fill="#b0d7ff" transform="rotate(-45.001 308.938 385.22)" class="colorffb0e5 svgShape"></circle><path fill="#b0d7ff" d="M338.88,385.215c0-5.512,4.468-9.98,9.98-9.98c5.512,0,9.98,4.468,9.98,9.98c0,5.512-4.468,9.98-9.98,9.98
	C343.348,395.194,338.88,390.726,338.88,385.215z" class="colorffb0e5 svgShape"></path><circle cx="388.778" cy="385.215" r="9.98" fill="#b0d7ff" transform="rotate(-76.714 388.817 385.232)" class="colorffb0e5 svgShape"></circle><circle cx="428.696" cy="385.215" r="9.98" fill="#b0d7ff" transform="rotate(-76.714 428.738 385.23)" class="colorffb0e5 svgShape"></circle><circle cx="468.615" cy="385.215" r="9.98" fill="#b0d7ff" transform="rotate(-45.001 468.612 385.222)" class="colorffb0e5 svgShape"></circle><circle cx="308.941" cy="428.007" r="9.98" fill="#b0d7ff" transform="rotate(-76.714 308.976 428.03)" class="colorffb0e5 svgShape"></circle><path fill="#b0d7ff" d="M338.88,428.007c0-5.512,4.468-9.98,9.98-9.98c5.512,0,9.98,4.468,9.98,9.98s-4.468,9.98-9.98,9.98
	C343.348,437.987,338.88,433.519,338.88,428.007z" class="colorffb0e5 svgShape"></path><circle cx="388.778" cy="428.007" r="9.98" fill="#b0d7ff" transform="rotate(-45.001 388.775 428.013)" class="colorffb0e5 svgShape"></circle><circle cx="428.696" cy="428.007" r="9.98" fill="#b0d7ff" transform="rotate(-45.001 428.693 428.014)" class="colorffb0e5 svgShape"></circle><circle cx="468.615" cy="428.007" r="9.98" fill="#b0d7ff" transform="rotate(-76.714 468.662 428.025)" class="colorffb0e5 svgShape"></circle><path fill="#b0d7ff" d="M506.329 437.743c-4.453-.999-7.773-4.972-7.773-9.735 0-2.677 1.061-5.12 2.776-6.909C503.207 426.553 504.873 432.105 506.329 437.743zM298.961 470.799c0-5.512 4.468-9.98 9.98-9.98 5.512 0 9.98 4.468 9.98 9.98 0 5.512-4.468 9.98-9.98 9.98C303.429 480.779 298.961 476.311 298.961 470.799zM338.88 470.799c0-5.512 4.468-9.98 9.98-9.98 5.512 0 9.98 4.468 9.98 9.98 0 5.512-4.468 9.98-9.98 9.98C343.348 480.779 338.88 476.311 338.88 470.799zM378.798 470.799c0-5.512 4.468-9.98 9.98-9.98 5.512 0 9.98 4.468 9.98 9.98 0 5.512-4.468 9.98-9.98 9.98C383.266 480.779 378.798 476.311 378.798 470.799zM418.717 470.799c0-5.512 4.468-9.98 9.98-9.98 5.512 0 9.98 4.468 9.98 9.98 0 5.512-4.468 9.98-9.98 9.98C423.185 480.779 418.717 476.311 418.717 470.799zM458.635 470.799c0-5.512 4.468-9.98 9.98-9.98 5.512 0 9.98 4.468 9.98 9.98 0 5.512-4.468 9.98-9.98 9.98C463.103 480.779 458.635 476.311 458.635 470.799zM512.93 479.756c-1.321.654-2.814 1.024-4.393 1.024-5.515 0-9.982-4.466-9.982-9.982 0-5.515 4.466-9.982 9.982-9.982.852 0 1.691.111 2.48.309C511.906 467.257 512.547 473.476 512.93 479.756zM82.024 516.179c0 5.515-4.467 9.982-9.97 9.982-.864 0-1.69-.111-2.493-.308-.888-6.132-1.529-12.351-1.912-18.631 1.32-.654 2.826-1.024 4.405-1.024C77.557 506.197 82.024 510.664 82.024 516.179z" class="colorffb0e5 svgShape"></path><circle cx="111.968" cy="516.181" r="9.98" fill="#b0d7ff" transform="rotate(-45.001 111.963 516.185)" class="colorffb0e5 svgShape"></circle><path fill="#b0d7ff" d="M141.907 516.181c0-5.512 4.468-9.98 9.98-9.98 5.512 0 9.979 4.468 9.979 9.98 0 5.512-4.468 9.98-9.979 9.98C146.375 526.161 141.907 521.693 141.907 516.181zM181.825 516.181c0-5.512 4.468-9.98 9.98-9.98 5.512 0 9.979 4.468 9.979 9.98 0 5.512-4.468 9.98-9.979 9.98C186.293 526.161 181.825 521.693 181.825 516.181zM221.744 516.181c0-5.512 4.468-9.98 9.98-9.98 5.512 0 9.98 4.468 9.98 9.98 0 5.512-4.468 9.98-9.98 9.98C226.212 526.161 221.744 521.693 221.744 516.181z" class="colorffb0e5 svgShape"></path><circle cx="271.642" cy="516.181" r="9.98" fill="#b0d7ff" transform="rotate(-45.001 271.637 516.187)" class="colorffb0e5 svgShape"></circle><path fill="#b0d7ff" d="M82.024 558.968c0 2.677-1.05 5.12-2.776 6.909-1.876-5.441-3.541-10.994-4.997-16.62C78.692 550.245 82.024 554.218 82.024 558.968zM101.989 558.973c0-5.512 4.468-9.979 9.98-9.979 5.512 0 9.98 4.468 9.98 9.979 0 5.512-4.468 9.98-9.98 9.98C106.457 568.953 101.989 564.485 101.989 558.973zM141.907 558.973c0-5.512 4.468-9.979 9.98-9.979 5.512 0 9.979 4.468 9.979 9.979 0 5.512-4.468 9.98-9.979 9.98C146.375 568.953 141.907 564.485 141.907 558.973zM181.825 558.973c0-5.512 4.468-9.979 9.98-9.979 5.512 0 9.979 4.468 9.979 9.979 0 5.512-4.468 9.98-9.979 9.98C186.293 568.953 181.825 564.485 181.825 558.973zM221.744 558.973c0-5.512 4.468-9.979 9.98-9.979 5.512 0 9.98 4.468 9.98 9.979 0 5.512-4.468 9.98-9.98 9.98C226.212 568.953 221.744 564.485 221.744 558.973zM261.662 558.973c0-5.512 4.468-9.979 9.98-9.979 5.512 0 9.98 4.468 9.98 9.979 0 5.512-4.468 9.98-9.98 9.98C266.13 568.953 261.662 564.485 261.662 558.973zM101.989 601.766c0-5.512 4.468-9.98 9.98-9.98 5.512 0 9.98 4.468 9.98 9.98 0 5.512-4.468 9.979-9.98 9.979C106.457 611.745 101.989 607.277 101.989 601.766zM141.907 601.766c0-5.512 4.468-9.98 9.98-9.98 5.512 0 9.979 4.468 9.979 9.98 0 5.512-4.468 9.979-9.979 9.979C146.375 611.745 141.907 607.277 141.907 601.766zM181.825 601.766c0-5.512 4.468-9.98 9.98-9.98 5.512 0 9.979 4.468 9.979 9.98 0 5.512-4.468 9.979-9.979 9.979C186.293 611.745 181.825 607.277 181.825 601.766zM221.744 601.766c0-5.512 4.468-9.98 9.98-9.98 5.512 0 9.98 4.468 9.98 9.98 0 5.512-4.468 9.979-9.98 9.979C226.212 611.745 221.744 607.277 221.744 601.766zM261.662 601.766c0-5.512 4.468-9.98 9.98-9.98 5.512 0 9.98 4.468 9.98 9.98 0 5.512-4.468 9.979-9.98 9.979C266.13 611.745 261.662 607.277 261.662 601.766zM141.907 644.558c0-5.512 4.468-9.98 9.98-9.98 5.512 0 9.979 4.468 9.979 9.98 0 5.512-4.468 9.98-9.979 9.98C146.375 654.538 141.907 650.07 141.907 644.558zM181.825 644.558c0-5.512 4.468-9.98 9.98-9.98 5.512 0 9.979 4.468 9.979 9.98 0 5.512-4.468 9.98-9.979 9.98C186.293 654.538 181.825 650.07 181.825 644.558zM221.744 644.558c0-5.512 4.468-9.98 9.98-9.98 5.512 0 9.98 4.468 9.98 9.98 0 5.512-4.468 9.98-9.98 9.98C226.212 654.538 221.744 650.07 221.744 644.558z" class="colorffb0e5 svgShape"></path><circle cx="271.642" cy="644.558" r="9.98" fill="#b0d7ff" transform="rotate(-45.001 271.636 644.564)" class="colorffb0e5 svgShape"></circle><path fill="#b0d7ff" d="M201.78 687.349c0 3.726-2.035 6.959-5.046 8.674-5.046-2.332-10.007-4.849-14.844-7.551-.036-.37-.061-.74-.061-1.123 0-5.515 4.467-9.982 9.982-9.982C197.313 677.368 201.78 681.834 201.78 687.349zM221.744 687.35c0-5.512 4.468-9.98 9.98-9.98 5.512 0 9.98 4.468 9.98 9.98 0 5.512-4.468 9.98-9.98 9.98C226.212 697.33 221.744 692.862 221.744 687.35z" class="colorffb0e5 svgShape"></path><circle cx="271.642" cy="687.35" r="9.98" fill="#b0d7ff" class="colorffb0e5 svgShape"></circle><circle cx="308.941" cy="516.181" r="9.98" fill="#b0d7ff" transform="rotate(-76.714 308.979 516.21)" class="colorffb0e5 svgShape"></circle><path fill="#b0d7ff" d="M338.88,516.181c0-5.512,4.468-9.98,9.98-9.98c5.512,0,9.98,4.468,9.98,9.98c0,5.512-4.468,9.98-9.98,9.98
	C343.348,526.161,338.88,521.693,338.88,516.181z" class="colorffb0e5 svgShape"></path><circle cx="388.778" cy="516.181" r="9.98" fill="#b0d7ff" transform="rotate(-45.001 388.774 516.188)" class="colorffb0e5 svgShape"></circle><circle cx="428.696" cy="516.181" r="9.98" fill="#b0d7ff" transform="rotate(-45.001 428.692 516.189)" class="colorffb0e5 svgShape"></circle><circle cx="468.615" cy="516.181" r="9.98" fill="#b0d7ff" transform="rotate(-76.714 468.664 516.206)" class="colorffb0e5 svgShape"></circle><path fill="#b0d7ff" d="M512.93 507.221c-.383 6.28-1.024 12.499-1.913 18.631-.789.198-1.628.308-2.48.308-5.515 0-9.982-4.466-9.982-9.982 0-5.515 4.466-9.982 9.982-9.982C510.117 506.197 511.61 506.567 512.93 507.221zM298.961 558.973c0-5.512 4.468-9.979 9.98-9.979 5.512 0 9.98 4.468 9.98 9.979 0 5.512-4.468 9.98-9.98 9.98C303.429 568.953 298.961 564.485 298.961 558.973zM338.88 558.973c0-5.512 4.468-9.979 9.98-9.979 5.512 0 9.98 4.468 9.98 9.979 0 5.512-4.468 9.98-9.98 9.98C343.348 568.953 338.88 564.485 338.88 558.973zM378.798 558.973c0-5.512 4.468-9.979 9.98-9.979 5.512 0 9.98 4.468 9.98 9.979 0 5.512-4.468 9.98-9.98 9.98C383.266 568.953 378.798 564.485 378.798 558.973zM418.717 558.973c0-5.512 4.468-9.979 9.98-9.979 5.512 0 9.98 4.468 9.98 9.979 0 5.512-4.468 9.98-9.98 9.98C423.185 568.953 418.717 564.485 418.717 558.973zM458.635 558.973c0-5.512 4.468-9.979 9.98-9.979 5.512 0 9.98 4.468 9.98 9.979 0 5.512-4.468 9.98-9.98 9.98C463.103 568.953 458.635 564.485 458.635 558.973zM506.329 549.258c-1.456 5.626-3.122 11.179-4.997 16.62-1.715-1.789-2.776-4.232-2.776-6.909C498.556 554.218 501.875 550.245 506.329 549.258zM298.961 601.766c0-5.512 4.468-9.98 9.98-9.98 5.512 0 9.98 4.468 9.98 9.98 0 5.512-4.468 9.979-9.98 9.979C303.429 611.745 298.961 607.277 298.961 601.766zM338.88 601.766c0-5.512 4.468-9.98 9.98-9.98 5.512 0 9.98 4.468 9.98 9.98 0 5.512-4.468 9.979-9.98 9.979C343.348 611.745 338.88 607.277 338.88 601.766zM378.798 601.766c0-5.512 4.468-9.98 9.98-9.98 5.512 0 9.98 4.468 9.98 9.98 0 5.512-4.468 9.979-9.98 9.979C383.266 611.745 378.798 607.277 378.798 601.766zM418.717 601.766c0-5.512 4.468-9.98 9.98-9.98 5.512 0 9.98 4.468 9.98 9.98 0 5.512-4.468 9.979-9.98 9.979C423.185 611.745 418.717 607.277 418.717 601.766zM458.635 601.766c0-5.512 4.468-9.98 9.98-9.98 5.512 0 9.98 4.468 9.98 9.98 0 5.512-4.468 9.979-9.98 9.979C463.103 611.745 458.635 607.277 458.635 601.766z" class="colorffb0e5 svgShape"></path><circle cx="308.941" cy="644.558" r="9.98" fill="#b0d7ff" transform="rotate(-76.714 308.982 644.597)" class="colorffb0e5 svgShape"></circle><path fill="#b0d7ff" d="M338.88,644.558c0-5.512,4.468-9.98,9.98-9.98c5.512,0,9.98,4.468,9.98,9.98c0,5.512-4.468,9.98-9.98,9.98
	C343.348,654.538,338.88,650.07,338.88,644.558z" class="colorffb0e5 svgShape"></path><circle cx="388.778" cy="644.558" r="9.98" fill="#b0d7ff" transform="rotate(-45.001 388.772 644.566)" class="colorffb0e5 svgShape"></circle><circle cx="428.696" cy="644.558" r="9.98" fill="#b0d7ff" transform="rotate(-45.001 428.69 644.566)" class="colorffb0e5 svgShape"></circle><circle cx="308.941" cy="687.35" r="9.98" fill="#b0d7ff" class="colorffb0e5 svgShape"></circle><path fill="#b0d7ff" d="M338.88 687.35c0-5.512 4.468-9.98 9.98-9.98 5.512 0 9.98 4.468 9.98 9.98 0 5.512-4.468 9.98-9.98 9.98C343.348 697.33 338.88 692.862 338.88 687.35zM398.763 687.349c0 .383-.025.753-.061 1.123-4.85 2.702-9.797 5.219-14.856 7.551-3.011-1.715-5.046-4.948-5.046-8.674 0-5.515 4.466-9.982 9.982-9.982C394.284 677.368 398.763 681.834 398.763 687.349z" class="colorffb0e5 svgShape"></path><path fill="#c1dffe" d="M304.234 932.759c-1.272 0-2.544-.486-3.516-1.456l-24.719-24.718c-.02-.02-.02-.053 0-.073l25.138-25.137c2.046-2.045 5.429-1.935 7.332.328 1.688 2.007 1.373 5.031-.481 6.885l-17.924 17.925c-.02.02-.02.053 0 .073l17.482 17.483c2.037 2.037 2.152 5.491.011 7.418C306.614 932.334 305.424 932.759 304.234 932.759zM339.586 932.759c-1.272 0-2.544-.486-3.515-1.456l-24.719-24.718c-.02-.02-.02-.053 0-.073l25.138-25.137c2.046-2.045 5.428-1.935 7.332.328 1.688 2.007 1.373 5.031-.481 6.885l-17.924 17.925c-.02.02-.02.053 0 .073l17.483 17.483c2.037 2.037 2.152 5.491.01 7.418C341.965 932.334 340.776 932.759 339.586 932.759zM374.939 932.759c-1.272 0-2.544-.486-3.515-1.456l-24.721-24.718c-.02-.02-.02-.053 0-.073l25.138-25.137c2.046-2.045 5.428-1.935 7.332.328 1.688 2.007 1.373 5.031-.481 6.885l-17.924 17.925c-.02.02-.02.053 0 .073l17.477 17.476c2.036 2.036 2.157 5.495.019 7.423C377.321 932.333 376.13 932.759 374.939 932.759zM410.291 932.759c-1.272 0-2.544-.486-3.516-1.456l-24.719-24.718c-.02-.02-.02-.053 0-.073l25.138-25.137c2.046-2.045 5.428-1.935 7.332.328 1.688 2.007 1.373 5.031-.481 6.885l-17.924 17.925c-.02.02-.02.053 0 .073l17.482 17.483c2.037 2.037 2.152 5.491.011 7.418C412.671 932.334 411.481 932.759 410.291 932.759zM445.643 932.759c-1.272 0-2.544-.486-3.516-1.456l-24.719-24.718c-.02-.02-.02-.053 0-.073l25.138-25.137c2.046-2.045 5.429-1.935 7.332.328 1.688 2.007 1.373 5.031-.481 6.885l-17.924 17.925c-.02.02-.02.053 0 .073l17.482 17.483c2.037 2.037 2.152 5.491.011 7.418C448.023 932.334 446.833 932.759 445.643 932.759zM480.995 932.759c-1.272 0-2.544-.486-3.516-1.456l-24.719-24.718c-.02-.02-.02-.053 0-.073l25.138-25.137c2.046-2.045 5.428-1.935 7.332.328 1.688 2.007 1.373 5.031-.481 6.885l-17.924 17.925c-.02.02-.02.053 0 .073l17.483 17.483c2.037 2.037 2.152 5.491.01 7.418C483.375 932.334 482.185 932.759 480.995 932.759zM516.349 932.759c-1.272 0-2.544-.486-3.515-1.456l-24.721-24.718c-.02-.02-.02-.053 0-.073l25.138-25.137c2.046-2.045 5.429-1.935 7.332.328 1.688 2.007 1.373 5.031-.481 6.885l-17.924 17.925c-.02.02-.02.053 0 .073l17.477 17.476c2.036 2.036 2.157 5.495.018 7.423C518.73 932.333 517.539 932.759 516.349 932.759zM551.701 932.759c-1.272 0-2.544-.486-3.516-1.456l-24.721-24.718c-.02-.02-.02-.053 0-.073l25.14-25.137c1.942-1.941 5.089-1.942 7.031.001 1.942 1.942 1.942 5.09 0 7.032l-18.106 18.105c-.02.02-.02.053 0 .073l17.477 17.476c2.036 2.036 2.157 5.494.019 7.423C554.083 932.333 552.891 932.759 551.701 932.759zM587.053 932.759c-1.272 0-2.544-.486-3.515-1.456l-24.719-24.718c-.02-.02-.02-.053 0-.073l25.138-25.137c2.046-2.045 5.429-1.935 7.332.328 1.688 2.007 1.373 5.031-.481 6.885l-17.924 17.925c-.02.02-.02.053 0 .073l17.482 17.483c2.037 2.037 2.152 5.491.011 7.418C589.433 932.334 588.243 932.759 587.053 932.759zM622.405 932.759c-1.272 0-2.544-.486-3.515-1.456l-24.719-24.718c-.02-.02-.02-.053 0-.073l25.138-25.137c2.046-2.045 5.428-1.935 7.332.328 1.688 2.007 1.373 5.031-.481 6.885l-17.924 17.925c-.02.02-.02.053 0 .073l17.483 17.483c2.037 2.037 2.152 5.491.01 7.418C624.784 932.334 623.595 932.759 622.405 932.759zM658.413 932.759c-1.272 0-2.544-.486-3.516-1.456l-24.719-24.718c-.02-.02-.02-.053 0-.073l25.138-25.137c2.046-2.045 5.429-1.935 7.332.328 1.688 2.007 1.373 5.031-.481 6.885l-17.924 17.925c-.02.02-.02.053 0 .073l17.482 17.483c2.037 2.037 2.152 5.491.011 7.418C660.793 932.334 659.603 932.759 658.413 932.759zM693.765 932.759c-1.272 0-2.544-.486-3.515-1.456l-24.719-24.718c-.02-.02-.02-.053 0-.073l25.138-25.137c2.046-2.045 5.428-1.935 7.332.328 1.688 2.007 1.373 5.031-.481 6.885l-17.924 17.925c-.02.02-.02.053 0 .073l17.483 17.483c2.037 2.037 2.152 5.491.01 7.418C696.144 932.334 694.955 932.759 693.765 932.759z" class="colorc9c1fe svgShape"></path><path fill="#9fcefe" d="M1021.888,196.146H339.53h-31.686c-26.151,0-47.351,21.2-47.351,47.351v385.839v175.855
	c0,26.164,21.2,47.364,47.351,47.364h714.045c2.914,0,5.763-0.266,8.536-0.76l38.816-212.784V243.497
	C1069.24,217.346,1048.04,196.146,1021.888,196.146z" class="colorab9ffe svgShape"></path><path fill="#0575e6" d="M1021.888,196.146H339.53h-31.686c-26.151,0-47.351,21.2-47.351,47.351v385.839v175.855
	c0,26.164,21.2,47.364,47.351,47.364h714.045c2.914,0,5.763-0.266,8.536-0.76l38.816-212.784V243.497
	C1069.24,217.346,1048.04,196.146,1021.888,196.146z" class="colora58aff svgShape"></path><path fill="#9fcefe" d="M1069.24,639.012v166.18c0,18.68-10.803,34.814-26.493,42.526c-3.838,1.9-7.979,3.28-12.323,4.078
	L1069.24,639.012z" class="colorab9ffe svgShape"></path><path d="M1097.696,250.918l-28.456-5.192v11.588l26.417,4.825c22.594,4.116,37.625,25.86,33.497,48.453l-59.914,328.42
	l-38.816,212.784l-2.077,11.372c-2.001,10.942-8.144,20.453-17.299,26.785c-9.143,6.332-20.224,8.713-31.167,6.712l-241.758-44.109
	h-63.536l303.256,55.33c3.217,0.582,6.434,0.874,9.637,0.874c10.677,0,21.086-3.229,30.053-9.435
	c11.664-8.054,19.477-20.174,22.023-34.117l3.192-17.489l26.493-145.208l71.135-389.867
	C1145.617,283.858,1126.483,256.174,1097.696,250.918z M797.466,196.146l-402.214-73.376c-13.931-2.545-28.026,0.494-39.689,8.548
	c-11.651,8.054-19.477,20.174-22.024,34.117l-5.598,30.711l-67.449,369.693l-27.76,152.173c-4.28,23.442,7.637,46.161,27.76,56.609
	v-13.373c-12.563-9.105-19.516-24.936-16.552-41.196l16.552-90.714l79.037-433.191l5.23-28.672
	c2.001-10.942,8.13-20.453,17.287-26.785c9.156-6.319,20.224-8.7,31.166-6.712l340.743,62.168H797.466z" fill="#021b79" class="color000000 svgShape"></path><path fill="#ffffff" d="M279.055 804.125c0-3.371 2.733-6.104 6.104-6.104 3.371 0 6.104 2.733 6.104 6.104 0 3.371-2.733 6.104-6.104 6.104C281.788 810.229 279.055 807.496 279.055 804.125zM303.473 804.125c0-3.371 2.733-6.104 6.104-6.104 3.371 0 6.104 2.733 6.104 6.104 0 3.371-2.733 6.104-6.104 6.104C306.206 810.229 303.473 807.496 303.473 804.125zM327.89 804.125c0-3.371 2.733-6.104 6.104-6.104 3.371 0 6.104 2.733 6.104 6.104 0 3.371-2.733 6.104-6.104 6.104C330.623 810.229 327.89 807.496 327.89 804.125zM352.308 804.125c0-3.371 2.733-6.104 6.105-6.104s6.104 2.733 6.104 6.104c0 3.371-2.733 6.104-6.104 6.104S352.308 807.496 352.308 804.125zM376.725 804.125c0-3.371 2.733-6.104 6.104-6.104 3.371 0 6.104 2.733 6.104 6.104 0 3.371-2.733 6.104-6.104 6.104C379.458 810.229 376.725 807.496 376.725 804.125zM401.143 804.125c0-3.371 2.733-6.104 6.104-6.104 3.371 0 6.104 2.733 6.104 6.104 0 3.371-2.733 6.104-6.104 6.104C403.876 810.229 401.143 807.496 401.143 804.125zM425.56 804.125c0-3.371 2.733-6.104 6.104-6.104 3.371 0 6.104 2.733 6.104 6.104 0 3.371-2.733 6.104-6.104 6.104C428.293 810.229 425.56 807.496 425.56 804.125zM279.055 830.3c0-3.371 2.733-6.104 6.104-6.104 3.371 0 6.104 2.733 6.104 6.104s-2.733 6.104-6.104 6.104C281.788 836.404 279.055 833.671 279.055 830.3zM303.473 830.3c0-3.371 2.733-6.104 6.104-6.104 3.371 0 6.104 2.733 6.104 6.104s-2.733 6.104-6.104 6.104C306.206 836.404 303.473 833.671 303.473 830.3zM327.89 830.3c0-3.371 2.733-6.104 6.104-6.104 3.371 0 6.104 2.733 6.104 6.104s-2.733 6.104-6.104 6.104C330.623 836.404 327.89 833.671 327.89 830.3zM352.308 830.3c0-3.371 2.733-6.104 6.105-6.104s6.104 2.733 6.104 6.104-2.733 6.104-6.104 6.104S352.308 833.671 352.308 830.3zM376.725 830.3c0-3.371 2.733-6.104 6.104-6.104 3.371 0 6.104 2.733 6.104 6.104s-2.733 6.104-6.104 6.104C379.458 836.404 376.725 833.671 376.725 830.3zM401.143 830.3c0-3.371 2.733-6.104 6.104-6.104 3.371 0 6.104 2.733 6.104 6.104s-2.733 6.104-6.104 6.104C403.876 836.404 401.143 833.671 401.143 830.3zM425.56 830.3c0-3.371 2.733-6.104 6.104-6.104 3.371 0 6.104 2.733 6.104 6.104s-2.733 6.104-6.104 6.104C428.293 836.404 425.56 833.671 425.56 830.3z" class="colorffffff svgShape"></path><circle cx="285.16" cy="752.747" r="6.104" fill="#ffffff" class="colorffffff svgShape"></circle><circle cx="309.577" cy="752.747" r="6.104" fill="#ffffff" class="colorffffff svgShape"></circle><path fill="#ffffff" d="M327.89 752.747c0-3.371 2.733-6.104 6.104-6.104 3.371 0 6.104 2.733 6.104 6.104 0 3.371-2.733 6.104-6.104 6.104C330.623 758.851 327.89 756.118 327.89 752.747zM352.308 752.747c0-3.371 2.733-6.104 6.105-6.104s6.104 2.733 6.104 6.104c0 3.371-2.733 6.104-6.104 6.104S352.308 756.118 352.308 752.747zM376.725 752.747c0-3.371 2.733-6.104 6.104-6.104 3.371 0 6.104 2.733 6.104 6.104 0 3.371-2.733 6.104-6.104 6.104C379.458 758.851 376.725 756.118 376.725 752.747zM401.143 752.747c0-3.371 2.733-6.104 6.104-6.104 3.371 0 6.104 2.733 6.104 6.104 0 3.371-2.733 6.104-6.104 6.104C403.876 758.851 401.143 756.118 401.143 752.747zM425.56 752.747c0-3.371 2.733-6.104 6.104-6.104 3.371 0 6.104 2.733 6.104 6.104 0 3.371-2.733 6.104-6.104 6.104C428.293 758.851 425.56 756.118 425.56 752.747z" class="colorffffff svgShape"></path><circle cx="285.16" cy="778.922" r="6.104" fill="#ffffff" class="colorffffff svgShape"></circle><circle cx="309.577" cy="778.922" r="6.104" fill="#ffffff" class="colorffffff svgShape"></circle><path fill="#ffffff" d="M327.89 778.922c0-3.371 2.733-6.104 6.104-6.104 3.371 0 6.104 2.733 6.104 6.104s-2.733 6.104-6.104 6.104C330.623 785.027 327.89 782.294 327.89 778.922zM352.308 778.922c0-3.371 2.733-6.104 6.105-6.104s6.104 2.733 6.104 6.104-2.733 6.104-6.104 6.104S352.308 782.294 352.308 778.922zM376.725 778.922c0-3.371 2.733-6.104 6.104-6.104 3.371 0 6.104 2.733 6.104 6.104s-2.733 6.104-6.104 6.104C379.458 785.027 376.725 782.294 376.725 778.922zM401.143 778.922c0-3.371 2.733-6.104 6.104-6.104 3.371 0 6.104 2.733 6.104 6.104s-2.733 6.104-6.104 6.104C403.876 785.027 401.143 782.294 401.143 778.922zM425.56 778.922c0-3.371 2.733-6.104 6.104-6.104 3.371 0 6.104 2.733 6.104 6.104s-2.733 6.104-6.104 6.104C428.293 785.027 425.56 782.294 425.56 778.922zM450.933 804.125c0-3.371 2.733-6.104 6.104-6.104 3.371 0 6.104 2.733 6.104 6.104 0 3.371-2.733 6.104-6.104 6.104C453.666 810.229 450.933 807.496 450.933 804.125zM475.351 804.125c0-3.371 2.733-6.104 6.104-6.104 3.371 0 6.104 2.733 6.104 6.104 0 3.371-2.733 6.104-6.104 6.104C478.084 810.229 475.351 807.496 475.351 804.125zM499.768 804.125c0-3.371 2.733-6.104 6.104-6.104 3.371 0 6.104 2.733 6.104 6.104 0 3.371-2.733 6.104-6.104 6.104C502.501 810.229 499.768 807.496 499.768 804.125zM524.186 804.125c0-3.371 2.733-6.104 6.104-6.104s6.104 2.733 6.104 6.104c0 3.371-2.733 6.104-6.104 6.104S524.186 807.496 524.186 804.125zM548.603 804.125c0-3.371 2.733-6.104 6.105-6.104 3.371 0 6.104 2.733 6.104 6.104 0 3.371-2.733 6.104-6.104 6.104C551.336 810.229 548.603 807.496 548.603 804.125zM573.021 804.125c0-3.371 2.733-6.104 6.104-6.104 3.371 0 6.104 2.733 6.104 6.104 0 3.371-2.733 6.104-6.104 6.104C575.754 810.229 573.021 807.496 573.021 804.125zM597.438 804.125c0-3.371 2.733-6.104 6.104-6.104 3.371 0 6.104 2.733 6.104 6.104 0 3.371-2.733 6.104-6.104 6.104C600.171 810.229 597.438 807.496 597.438 804.125zM450.933 830.3c0-3.371 2.733-6.104 6.104-6.104 3.371 0 6.104 2.733 6.104 6.104s-2.733 6.104-6.104 6.104C453.666 836.404 450.933 833.671 450.933 830.3zM475.351 830.3c0-3.371 2.733-6.104 6.104-6.104 3.371 0 6.104 2.733 6.104 6.104s-2.733 6.104-6.104 6.104C478.084 836.404 475.351 833.671 475.351 830.3zM499.768 830.3c0-3.371 2.733-6.104 6.104-6.104 3.371 0 6.104 2.733 6.104 6.104s-2.733 6.104-6.104 6.104C502.501 836.404 499.768 833.671 499.768 830.3zM524.186 830.3c0-3.371 2.733-6.104 6.104-6.104s6.104 2.733 6.104 6.104-2.733 6.104-6.104 6.104S524.186 833.671 524.186 830.3zM548.603 830.3c0-3.371 2.733-6.104 6.105-6.104 3.371 0 6.104 2.733 6.104 6.104s-2.733 6.104-6.104 6.104C551.336 836.404 548.603 833.671 548.603 830.3zM573.021 830.3c0-3.371 2.733-6.104 6.104-6.104 3.371 0 6.104 2.733 6.104 6.104s-2.733 6.104-6.104 6.104C575.754 836.404 573.021 833.671 573.021 830.3zM597.438 830.3c0-3.371 2.733-6.104 6.104-6.104 3.371 0 6.104 2.733 6.104 6.104s-2.733 6.104-6.104 6.104C600.171 836.404 597.438 833.671 597.438 830.3zM450.933 752.747c0-3.371 2.733-6.104 6.104-6.104 3.371 0 6.104 2.733 6.104 6.104 0 3.371-2.733 6.104-6.104 6.104C453.666 758.851 450.933 756.118 450.933 752.747z" class="colorffffff svgShape"></path><circle cx="481.455" cy="752.747" r="6.104" fill="#ffffff" class="colorffffff svgShape"></circle><circle cx="505.872" cy="752.747" r="6.104" fill="#ffffff" class="colorffffff svgShape"></circle><circle cx="530.29" cy="752.747" r="6.104" fill="#ffffff" class="colorffffff svgShape"></circle><path fill="#ffffff" d="M548.603 752.747c0-3.371 2.733-6.104 6.105-6.104 3.371 0 6.104 2.733 6.104 6.104 0 3.371-2.733 6.104-6.104 6.104C551.336 758.851 548.603 756.118 548.603 752.747zM573.021 752.747c0-3.371 2.733-6.104 6.104-6.104 3.371 0 6.104 2.733 6.104 6.104 0 3.371-2.733 6.104-6.104 6.104C575.754 758.851 573.021 756.118 573.021 752.747zM597.438 752.747c0-3.371 2.733-6.104 6.104-6.104 3.371 0 6.104 2.733 6.104 6.104 0 3.371-2.733 6.104-6.104 6.104C600.171 758.851 597.438 756.118 597.438 752.747zM450.933 778.922c0-3.371 2.733-6.104 6.104-6.104 3.371 0 6.104 2.733 6.104 6.104s-2.733 6.104-6.104 6.104C453.666 785.027 450.933 782.294 450.933 778.922z" class="colorffffff svgShape"></path><circle cx="481.455" cy="778.922" r="6.104" fill="#ffffff" class="colorffffff svgShape"></circle><circle cx="505.872" cy="778.922" r="6.104" fill="#ffffff" class="colorffffff svgShape"></circle><circle cx="530.29" cy="778.922" r="6.104" fill="#ffffff" class="colorffffff svgShape"></circle><path fill="#ffffff" d="M548.603 778.922c0-3.371 2.733-6.104 6.105-6.104 3.371 0 6.104 2.733 6.104 6.104s-2.733 6.104-6.104 6.104C551.336 785.027 548.603 782.294 548.603 778.922zM573.021 778.922c0-3.371 2.733-6.104 6.104-6.104 3.371 0 6.104 2.733 6.104 6.104s-2.733 6.104-6.104 6.104C575.754 785.027 573.021 782.294 573.021 778.922zM597.438 778.922c0-3.371 2.733-6.104 6.104-6.104 3.371 0 6.104 2.733 6.104 6.104s-2.733 6.104-6.104 6.104C600.171 785.027 597.438 782.294 597.438 778.922zM985.543 213.413c3.371 0 6.104 2.733 6.104 6.104 0 3.371-2.733 6.104-6.104 6.104s-6.104-2.733-6.104-6.104C979.439 216.146 982.172 213.413 985.543 213.413z" class="colorffffff svgShape"></path><circle cx="985.543" cy="243.934" r="6.104" fill="#ffffff" class="colorffffff svgShape"></circle><circle cx="985.543" cy="268.352" r="6.104" fill="#ffffff" class="colorffffff svgShape"></circle><circle cx="985.543" cy="292.769" r="6.104" fill="#ffffff" class="colorffffff svgShape"></circle><path fill="#ffffff" d="M985.543 311.082c3.371 0 6.104 2.733 6.104 6.104 0 3.371-2.733 6.104-6.104 6.104s-6.104-2.733-6.104-6.104C979.439 313.815 982.172 311.082 985.543 311.082zM985.543 335.5c3.371 0 6.104 2.733 6.104 6.104 0 3.371-2.733 6.104-6.104 6.104s-6.104-2.733-6.104-6.104C979.439 338.233 982.172 335.5 985.543 335.5zM985.543 359.917c3.371 0 6.104 2.733 6.104 6.104 0 3.371-2.733 6.104-6.104 6.104s-6.104-2.733-6.104-6.104C979.439 362.65 982.172 359.917 985.543 359.917zM959.368 213.413c3.371 0 6.104 2.733 6.104 6.104 0 3.371-2.733 6.104-6.104 6.104s-6.104-2.733-6.104-6.104C953.263 216.146 955.996 213.413 959.368 213.413z" class="colorffffff svgShape"></path><circle cx="959.368" cy="243.934" r="6.104" fill="#ffffff" class="colorffffff svgShape"></circle><circle cx="959.368" cy="268.352" r="6.104" fill="#ffffff" class="colorffffff svgShape"></circle><circle cx="959.368" cy="292.769" r="6.104" fill="#ffffff" class="colorffffff svgShape"></circle><path fill="#ffffff" d="M959.368 311.082c3.371 0 6.104 2.733 6.104 6.104 0 3.371-2.733 6.104-6.104 6.104s-6.104-2.733-6.104-6.104C953.263 313.815 955.996 311.082 959.368 311.082zM959.368 335.5c3.371 0 6.104 2.733 6.104 6.104 0 3.371-2.733 6.104-6.104 6.104s-6.104-2.733-6.104-6.104C953.263 338.233 955.996 335.5 959.368 335.5zM959.368 359.917c3.371 0 6.104 2.733 6.104 6.104 0 3.371-2.733 6.104-6.104 6.104s-6.104-2.733-6.104-6.104C953.263 362.65 955.996 359.917 959.368 359.917zM1036.921 213.413c3.371 0 6.104 2.733 6.104 6.104 0 3.371-2.733 6.104-6.104 6.104s-6.104-2.733-6.104-6.104C1030.816 216.146 1033.549 213.413 1036.921 213.413zM1036.921 237.83c3.371 0 6.104 2.733 6.104 6.104 0 3.371-2.733 6.104-6.104 6.104s-6.104-2.733-6.104-6.104C1030.816 240.563 1033.549 237.83 1036.921 237.83zM1036.921 262.247c3.371 0 6.104 2.733 6.104 6.104 0 3.371-2.733 6.104-6.104 6.104s-6.104-2.733-6.104-6.104C1030.816 264.98 1033.549 262.247 1036.921 262.247zM1036.921 286.665c3.371 0 6.104 2.733 6.104 6.104 0 3.371-2.733 6.104-6.104 6.104s-6.104-2.733-6.104-6.104C1030.816 289.398 1033.549 286.665 1036.921 286.665zM1036.921 311.082c3.371 0 6.104 2.733 6.104 6.104 0 3.371-2.733 6.104-6.104 6.104s-6.104-2.733-6.104-6.104C1030.816 313.815 1033.549 311.082 1036.921 311.082zM1036.921 335.5c3.371 0 6.104 2.733 6.104 6.104 0 3.371-2.733 6.104-6.104 6.104s-6.104-2.733-6.104-6.104C1030.816 338.233 1033.549 335.5 1036.921 335.5zM1036.921 359.917c3.371 0 6.104 2.733 6.104 6.104 0 3.371-2.733 6.104-6.104 6.104s-6.104-2.733-6.104-6.104C1030.816 362.65 1033.549 359.917 1036.921 359.917zM1010.745 213.413c3.371 0 6.104 2.733 6.104 6.104 0 3.371-2.733 6.104-6.104 6.104s-6.104-2.733-6.104-6.104C1004.641 216.146 1007.374 213.413 1010.745 213.413z" class="colorffffff svgShape"></path><circle cx="1010.745" cy="243.934" r="6.104" fill="#ffffff" class="colorffffff svgShape"></circle><circle cx="1010.745" cy="268.352" r="6.104" fill="#ffffff" class="colorffffff svgShape"></circle><circle cx="1010.745" cy="292.769" r="6.104" fill="#ffffff" class="colorffffff svgShape"></circle><path fill="#ffffff" d="M1010.745 311.082c3.371 0 6.104 2.733 6.104 6.104 0 3.371-2.733 6.104-6.104 6.104s-6.104-2.733-6.104-6.104C1004.641 313.815 1007.374 311.082 1010.745 311.082zM1010.745 335.5c3.371 0 6.104 2.733 6.104 6.104 0 3.371-2.733 6.104-6.104 6.104s-6.104-2.733-6.104-6.104C1004.641 338.233 1007.374 335.5 1010.745 335.5zM1010.745 359.917c3.371 0 6.104 2.733 6.104 6.104 0 3.371-2.733 6.104-6.104 6.104s-6.104-2.733-6.104-6.104C1004.641 362.65 1007.374 359.917 1010.745 359.917z" class="colorffffff svgShape"></path><path d="M284.756 174.712c-1.866 0-3.659-1.045-4.525-2.838L211.467 29.609c-1.207-2.498-.161-5.501 2.337-6.708 2.496-1.204 5.501-.162 6.708 2.336l68.764 142.266c1.207 2.498.161 5.501-2.337 6.708C286.234 174.551 285.49 174.712 284.756 174.712zM1136.115 826.718c1.256-1.38 3.236-2.003 5.145-1.437l151.495 44.916c2.659.789 4.177 3.584 3.388 6.244-.79 2.656-3.583 4.177-6.243 3.388l-151.495-44.916c-2.659-.789-4.177-3.584-3.388-6.244C1135.24 827.92 1135.622 827.26 1136.115 826.718zM210.534 189.556c-1.285 0-2.571-.49-3.551-1.471l-47.638-47.637c-1.962-1.961-1.962-5.142 0-7.103 1.96-1.961 5.142-1.961 7.102 0l47.638 47.637c1.962 1.961 1.962 5.142 0 7.103C213.105 189.065 211.819 189.556 210.534 189.556zM1150.907 937.6c-1.285 0-2.571-.491-3.551-1.471l-47.639-47.637c-1.962-1.962-1.962-5.142 0-7.103 1.96-1.961 5.142-1.961 7.102 0l47.638 47.637c1.962 1.961 1.962 5.142 0 7.103C1153.478 937.109 1152.192 937.6 1150.907 937.6zM1157.732 226.814c-.344-1.238-.215-2.609.467-3.815l33.154-58.648c1.365-2.415 4.429-3.266 6.844-1.901 2.414 1.364 3.265 4.43 1.9 6.843l-33.154 58.648c-1.365 2.415-4.429 3.266-6.844 1.901C1158.893 229.16 1158.076 228.052 1157.732 226.814z" fill="#021b79" class="color000000 svgShape"></path><path fill="#ffffff" d="M320.189,464.662h26.182l9.426,49.941l13.796-49.941h26.089l13.83,49.874l9.436-49.874h26.046
	l-19.664,89.208h-27.032l-15.646-56.166l-15.585,56.166h-27.031L320.189,464.662z" class="colorffffff svgShape"></path><path fill="#ffffff" d="M320.189 464.662h26.182l9.426 49.941 13.796-49.941h26.089l13.83 49.874 9.436-49.874h26.046l-19.664 89.208h-27.032l-15.646-56.166-15.585 56.166h-27.031L320.189 464.662zM453.94 464.662h73.873v19.047h-46.247v14.178h42.9v18.195h-42.9v17.586h47.585v20.202H453.94V464.662zM544 464.662h27.566v67.241h43.022v21.967H544V464.662zM684.384 517.359l24.158 7.302c-1.623 6.776-4.179 12.435-7.668 16.978-3.489 4.544-7.819 7.972-12.992 10.284-5.172 2.312-11.754 3.469-19.746 3.469-9.696 0-17.616-1.409-23.762-4.227-6.146-2.817-11.451-7.772-15.913-14.867-4.463-7.095-6.693-16.176-6.693-27.244 0-14.756 3.925-26.098 11.774-34.023 7.85-7.926 18.955-11.889 33.316-11.889 11.237 0 20.07 2.272 26.501 6.815 6.429 4.544 11.206 11.522 14.33 20.933l-24.34 5.416c-.851-2.717-1.745-4.705-2.677-5.963-1.542-2.109-3.428-3.732-5.659-4.868-2.232-1.135-4.726-1.704-7.485-1.704-6.247 0-11.035 2.513-14.361 7.537-2.516 3.728-3.773 9.583-3.773 17.564 0 9.887 1.5 16.665 4.503 20.331 3.002 3.668 7.221 5.5 12.657 5.5 5.273 0 9.259-1.481 11.958-4.442C681.209 527.299 683.166 522.998 684.384 517.359zM718.46 509.327c0-14.563 4.056-25.901 12.17-34.016 8.113-8.113 19.411-12.17 33.894-12.17 14.848 0 26.288 3.986 34.32 11.957 8.032 7.972 12.049 19.138 12.049 33.499 0 10.426-1.756 18.976-5.264 25.648-3.509 6.674-8.58 11.866-15.213 15.578-6.633 3.712-14.899 5.568-24.797 5.568-10.062 0-18.388-1.602-24.979-4.807-6.593-3.204-11.938-8.276-16.035-15.213C720.508 528.434 718.46 519.753 718.46 509.327zM746.026 509.449c0 9.006 1.673 15.477 5.02 19.411 3.347 3.936 7.9 5.903 13.661 5.903 5.922 0 10.506-1.926 13.752-5.781 3.245-3.854 4.868-10.771 4.868-20.75 0-8.397-1.695-14.533-5.081-18.407-3.388-3.873-7.982-5.811-13.783-5.811-5.558 0-10.021 1.968-13.387 5.902C747.708 493.851 746.026 500.362 746.026 509.449zM825.436 464.662h36.252l13.98 54.279 13.881-54.279h36.231v89.208h-22.576v-68.031L885.81 553.87h-20.435l-17.362-68.031v68.031h-22.576V464.662zM943.306 464.662h73.873v19.047h-46.247v14.178h42.9v18.195h-42.9v17.586h47.585v20.202h-75.212V464.662z" class="colorffffff svgShape"></path><path fill="#91c8ff" d="M829.918,148.869c-0.85,0-1.699-0.324-2.347-0.972c-1.297-1.297-1.297-3.399,0-4.696l17.322-17.323
	c4.717-4.716,12.394-4.718,17.11,0l14.436,14.435c2.129,2.128,5.59,2.128,7.719,0.001l14.652-14.652
	c4.719-4.718,12.396-4.717,17.11,0.001l14.724,14.724c2.129,2.129,5.591,2.127,7.72,0l14.003-14.003
	c4.718-4.719,12.394-4.716,17.109,0l11.838,11.837c2.129,2.128,5.59,2.128,7.719,0.001l8.922-9.139
	c7.768-7.767,18.054-7.485,26.233,0.693l0.262,0.295l10.393,13.208c1.134,1.441,0.885,3.528-0.556,4.663
	c-1.442,1.132-3.53,0.884-4.662-0.557l-10.266-13.047c-3.318-3.26-9.777-7.492-16.68-0.588l-8.922,9.138
	c-4.744,4.745-12.419,4.746-17.137,0.028l-11.838-11.837c-2.129-2.128-5.59-2.127-7.719-0.001l-14.003,14.003
	c-4.717,4.718-12.393,4.717-17.11,0l-14.724-14.724c-2.13-2.129-5.592-2.128-7.72,0l-14.652,14.652
	c-4.718,4.716-12.393,4.717-17.109-0.001l-14.436-14.435c-2.128-2.128-5.59-2.129-7.72-0.001l-17.322,17.323
	C831.617,148.545,830.768,148.869,829.918,148.869z" class="colorff91da svgShape"></path><path d="M708.622,98.994c-0.85,0-1.699-0.324-2.347-0.973c-1.297-1.296-1.297-3.399,0-4.696l17.323-17.322
	c2.285-2.285,5.323-3.543,8.555-3.543c3.233,0,6.271,1.259,8.556,3.544l14.435,14.435c2.129,2.129,5.591,2.13,7.72,0.001
	l14.651-14.652c4.717-4.717,12.393-4.718,17.11,0l14.725,14.724c2.129,2.128,5.59,2.128,7.719,0.001l14.003-14.003
	c4.718-4.718,12.395-4.717,17.11,0.001l11.837,11.837c2.129,2.129,5.591,2.126,7.72,0l8.922-9.138
	c3.944-3.944,8.534-5.888,13.292-5.659c4.531,0.22,9.006,2.417,12.94,6.352l0.262,0.295l10.394,13.209
	c1.134,1.441,0.885,3.528-0.555,4.662c-1.442,1.134-3.53,0.885-4.663-0.556l-10.268-13.048c-2.711-2.665-5.623-4.144-8.433-4.282
	c-2.858-0.133-5.654,1.103-8.245,3.694l-8.922,9.138c-4.744,4.747-12.421,4.746-17.138,0.028l-11.837-11.837
	c-1.031-1.03-2.401-1.598-3.859-1.598c-1.459,0-2.83,0.568-3.861,1.598l-14.003,14.003c-4.718,4.716-12.393,4.717-17.109-0.001
	l-14.725-14.724c-1.031-1.031-2.401-1.599-3.861-1.599c-1.458,0-2.829,0.568-3.86,1.598l-14.651,14.652
	c-2.285,2.285-5.323,3.544-8.556,3.544c-3.232,0-6.27-1.259-8.555-3.544l-14.436-14.435c-1.031-1.032-2.401-1.599-3.859-1.599
	c-1.458,0-2.828,0.568-3.86,1.599l-17.323,17.323C710.32,98.67,709.471,98.994,708.622,98.994z" fill="#021b79" class="color000000 svgShape"></path><path fill="#91c8ff" d="M138.008 847.38c-.844 1.942-2.425 3.472-4.478 4.26-2.71 1.041-5.676.572-7.933-1.254l-21.786-17.638c-2.257-1.827-3.333-4.63-2.879-7.498.456-2.866 2.345-5.201 5.054-6.241l26.167-10.048c2.711-1.041 5.677-.571 7.933 1.256 2.256 1.827 3.332 4.63 2.878 7.498l-4.381 27.685C138.472 846.094 138.278 846.758 138.008 847.38zM107.312 825.811c-.074.171-.109.326-.125.428-.046.291-.079 1.029.609 1.586l21.785 17.638c.688.557 1.404.371 1.679.266.275-.105.928-.444 1.068-1.32l4.382-27.686c.139-.876-.38-1.401-.609-1.586-.229-.186-.852-.583-1.678-.267l-26.167 10.048C107.719 825.126 107.449 825.496 107.312 825.811zM1231.64 369.482c-.844 1.942-2.425 3.472-4.478 4.26-2.71 1.041-5.676.572-7.933-1.254l-21.786-17.638c-2.257-1.827-3.333-4.631-2.88-7.498.455-2.866 2.345-5.201 5.054-6.241l26.167-10.048c2.711-1.042 5.677-.571 7.933 1.256 2.256 1.827 3.332 4.63 2.878 7.498l-4.381 27.685C1232.104 368.196 1231.91 368.86 1231.64 369.482zM1200.944 347.913c-.074.171-.109.326-.125.428-.046.291-.079 1.03.609 1.586l21.785 17.638c.689.557 1.404.371 1.679.265.275-.105.928-.444 1.068-1.32l4.382-27.686c.139-.875-.38-1.401-.609-1.586-.229-.186-.852-.583-1.678-.267l-26.167 10.048C1201.352 347.228 1201.081 347.598 1200.944 347.913zM620.475 97.743c.899 1.917 1.001 4.115.236 6.176-1.011 2.721-3.324 4.637-6.186 5.123l-27.637 4.683c-2.863.485-5.678-.561-7.529-2.797-1.849-2.237-2.352-5.198-1.341-7.918l9.762-26.275c1.011-2.723 3.325-4.637 6.187-5.122 2.863-.485 5.677.561 7.528 2.798l17.874 21.591C619.817 96.545 620.187 97.13 620.475 97.743zM583.998 106.512c.079.169.172.298.238.377.188.227.72.74 1.593.592l27.636-4.683c.873-.148 1.207-.808 1.309-1.084.103-.275.281-.99-.284-1.674l-17.874-21.592c-.565-.683-1.302-.642-1.592-.592-.291.049-1.001.253-1.31 1.083l-9.762 26.275C583.753 105.753 583.852 106.201 583.998 106.512z" class="colorff91da svgShape"></path><path fill="#9eceff" d="M198.105,879.918c0-7.103,5.758-12.86,12.86-12.86c7.103,0,12.86,5.758,12.86,12.86
	c0,7.103-5.758,12.86-12.86,12.86C203.863,892.778,198.105,887.021,198.105,879.918z" class="colorffec9e svgShape"></path><circle cx="1179.148" cy="413.307" r="12.86" fill="#9eceff" transform="rotate(-76.714 1179.247 413.304)" class="colorffec9e svgShape"></circle><circle cx="1030.424" cy="74.847" r="12.86" fill="#9eceff" class="colorffec9e svgShape"></circle><circle cx="512.93" cy="61.987" r="12.86" fill="#9eceff" class="colorffec9e svgShape"></circle><circle cx="764.676" cy="912.692" r="12.86" fill="#9eceff" transform="rotate(-45.001 764.67 912.706)" class="colorffec9e svgShape"></circle><circle cx="178.944" cy="766.062" r="12.86" fill="#9eceff" transform="rotate(-76.714 178.978 766.112)" class="colorffec9e svgShape"></circle></svg>